<?xml version="1.0" encoding="UTF-8"?><svg id="a" xmlns="http://www.w3.org/2000/svg" xmlns:xlink="http://www.w3.org/1999/xlink" viewBox="0 0 512 456.2"><defs><style>.l{fill:none;}.m{fill:#df8000;}.n{fill:#2b2961;}.o{clip-path:url(#c);}.p{clip-path:url(#b);}.q{clip-path:url(#f);}.r{clip-path:url(#e);}.s{clip-path:url(#d);}.t{clip-path:url(#k);}.u{clip-path:url(#j);}.v{clip-path:url(#i);}.w{clip-path:url(#h);}.x{clip-path:url(#g);}</style><clipPath id="b"><rect class="l" y="11.29" width="512" height="433.62"/></clipPath><clipPath id="c"><rect class="l" y="11.29" width="512" height="433.62"/></clipPath><clipPath id="d"><rect class="l" y="11.29" width="512" height="433.62"/></clipPath><clipPath id="e"><rect class="l" y="11.29" width="512" height="433.62"/></clipPath><clipPath id="f"><rect class="l" y="11.29" width="512" height="433.62"/></clipPath><clipPath id="g"><rect class="l" y="11.29" width="512" height="433.62"/></clipPath><clipPath id="h"><rect class="l" y="11.29" width="512" height="433.62"/></clipPath><clipPath id="i"><rect class="l" y="11.29" width="512" height="433.62"/></clipPath><clipPath id="j"><rect class="l" y="11.29" width="512" height="433.62"/></clipPath><clipPath id="k"><rect class="l" y="11.29" width="512" height="433.62"/></clipPath></defs><rect class="m" x="167.73" y="322.02" width="118.67" height="66.48"/><path class="m" d="M286.39,389.2h-118.67c-.39,0-.7-.31-.7-.7v-66.48c0-.39,.32-.7,.7-.7h118.67c.39,0,.7,.31,.7,.7v66.48c0,.39-.32,.7-.7,.7Zm-117.96-1.41h117.26v-65.08h-117.26v65.08Z"/><g class="p"><path class="m" d="M253.22,98.72c-3.4-12.11-13.75-20.92-26.02-20.92s-22.62,8.81-26.02,20.92h52.03Z"/><path class="m" d="M253.22,99.43h-52.04c-.22,0-.43-.1-.56-.28s-.18-.4-.12-.62c3.6-12.82,14.32-21.43,26.69-21.43s23.1,8.61,26.69,21.43c.06,.21,.02,.44-.12,.62s-.34,.28-.56,.28Zm-51.09-1.41h50.15c-3.66-11.71-13.63-19.51-25.07-19.51s-21.41,7.8-25.07,19.51Z"/></g><rect class="n" x="159.56" y="320.65" width="128.2" height="2.25"/><g class="o"><path class="n" d="M223.56,142.23c-18.76,0-34.02-15.41-34.02-34.36s15.26-34.35,34.02-34.35,34.03,15.41,34.03,34.35-15.26,34.36-34.03,34.36Zm0-65.33c-16.89,0-30.64,13.9-30.64,30.97s13.75,30.98,30.64,30.98,30.65-13.9,30.65-30.98-13.75-30.97-30.65-30.97Z"/></g><rect class="n" x="192.19" y="96.02" width="62.75" height="2.25"/><g class="s"><path class="n" d="M214.1,111.08c0,.91-.73,1.65-1.64,1.65s-1.63-.74-1.63-1.65,.73-1.65,1.63-1.65,1.64,.74,1.64,1.65"/><path class="n" d="M236.3,111.08c0,.91-.73,1.65-1.64,1.65s-1.63-.74-1.63-1.65,.73-1.65,1.63-1.65,1.64,.74,1.64,1.65"/><path class="n" d="M189.39,444.91c-.93,0-1.69-.75-1.69-1.69v-53.43c0-.93,.76-1.69,1.69-1.69s1.69,.75,1.69,1.69v53.43c0,.93-.76,1.69-1.69,1.69Z"/><path class="n" d="M257.15,444.91c-.93,0-1.69-.75-1.69-1.69v-53.43c0-.93,.76-1.69,1.69-1.69s1.69,.75,1.69,1.69v53.43c0,.93-.76,1.69-1.69,1.69Z"/></g><path class="n" d="M191.48,279.13c-.93,0-1.69-.75-1.69-1.69v-63.74c0-.93,.76-1.69,1.69-1.69s1.69,.75,1.69,1.69v63.74c0,.93-.76,1.69-1.69,1.69Z"/><g class="r"><path class="n" d="M286.82,391.1h-127.09c-.93,0-1.69-.75-1.69-1.69V229.08c0-38.99,29.87-71.92,65.23-71.92s65.66,32.93,65.66,71.92h0l-.43,160.34c0,.93-.76,1.68-1.69,1.68Zm-125.4-3.38h123.72l.42-158.65c0-37.15-28.53-68.53-62.28-68.53s-61.86,31.39-61.86,68.54v158.64Z"/></g><path class="n" d="M220.86,390.1c-.62,0-1.13-.51-1.13-1.13v-55.57c0-.62,.51-1.13,1.13-1.13s1.13,.51,1.13,1.13v55.57c0,.62-.51,1.13-1.13,1.13Z"/><path class="n" d="M257.92,277.83c-.92,0-1.67-.74-1.69-1.66l-.97-62.44c-.02-.93,.73-1.7,1.66-1.72h.03c.92,0,1.67,.74,1.69,1.66l.97,62.44c.02,.93-.73,1.7-1.66,1.72h-.03Z"/><rect class="m" x="370.37" y="301.3" width="138.79" height="77.87"/><path class="m" d="M509.16,379.87h-138.79c-.39,0-.7-.31-.7-.7v-77.86c0-.39,.32-.7,.7-.7h138.79c.39,0,.7,.31,.7,.7v77.86c0,.39-.32,.7-.7,.7Zm-138.08-1.41h137.38v-76.45h-137.38v76.45Z"/><g class="q"><path class="m" d="M470.42,40.84c-3.98-14.27-16.12-24.66-30.49-24.66s-26.52,10.39-30.49,24.66h60.99Z"/><path class="m" d="M470.42,41.54h-60.99c-.22,0-.43-.1-.56-.28-.13-.17-.18-.4-.12-.61,4.2-15.06,16.72-25.18,31.17-25.18s26.98,10.12,31.17,25.18c.06,.21,.01,.44-.12,.61-.13,.18-.34,.28-.56,.28Zm-60.05-1.41h59.11c-4.26-13.95-16.03-23.25-29.56-23.25s-25.29,9.31-29.56,23.25Z"/><rect class="n" x="360.96" y="300.08" width="149.68" height="2.25"/><path class="n" d="M435.68,91.51c-21.9,0-39.72-17.99-39.72-40.11s17.82-40.11,39.72-40.11,39.73,17.99,39.73,40.11-17.82,40.11-39.73,40.11Zm0-76.84c-20.04,0-36.35,16.48-36.35,36.73s16.31,36.74,36.35,36.74,36.35-16.48,36.35-36.74-16.31-36.73-36.35-36.73Z"/></g><rect class="n" x="399.05" y="37.58" width="73.26" height="2.25"/><g class="x"><path class="n" d="M424.63,55.14c0,1.06-.86,1.93-1.91,1.93s-1.91-.87-1.91-1.93,.86-1.93,1.91-1.93,1.91,.87,1.91,1.93"/><path class="n" d="M450.55,55.14c0,1.06-.86,1.93-1.91,1.93s-1.91-.87-1.91-1.93,.86-1.93,1.91-1.93,1.91,.87,1.91,1.93"/><path class="n" d="M395.63,444.91c-.93,0-1.69-.75-1.69-1.69v-62.95c0-.93,.76-1.69,1.69-1.69s1.69,.75,1.69,1.69v62.95c0,.93-.76,1.69-1.69,1.69Z"/><path class="n" d="M475.05,444.91c-.93,0-1.69-.75-1.69-1.69v-62.95c0-.93,.76-1.69,1.69-1.69s1.69,.75,1.69,1.69v62.95c0,.93-.76,1.69-1.69,1.69Z"/></g><path class="n" d="M398.07,251.35c-.93,0-1.69-.75-1.69-1.69v-74.98c0-.93,.76-1.69,1.69-1.69s1.69,.75,1.69,1.69v74.98c0,.93-.76,1.69-1.69,1.69Z"/><g class="w"><path class="n" d="M509.81,382.08h-148.95c-.93,0-1.69-.75-1.69-1.69V192.8c0-45.45,34.88-83.85,76.16-83.85s76.67,38.4,76.67,83.85h0l-.5,187.6c0,.93-.76,1.68-1.69,1.68Zm-147.26-3.38h145.58l.5-185.91c0-43.62-33.56-80.47-73.29-80.47s-72.79,36.85-72.79,80.47v185.91Z"/></g><path class="n" d="M432.51,380.92c-.62,0-1.13-.51-1.13-1.13v-65.25c0-.62,.51-1.13,1.13-1.13s1.13,.51,1.13,1.13v65.25c0,.62-.51,1.13-1.13,1.13Z"/><path class="n" d="M476.08,249.84c-.92,0-1.67-.73-1.69-1.65l-1.7-73.47c-.02-.93,.72-1.7,1.65-1.73,.9,.01,1.71,.72,1.73,1.65l1.7,73.47c.02,.93-.72,1.7-1.65,1.73h-.04Z"/><rect class="m" x="7.89" y="346.72" width="94.6" height="52.92"/><path class="m" d="M102.49,400.34H7.89c-.39,0-.7-.31-.7-.7v-52.92c0-.39,.32-.7,.7-.7H102.49c.39,0,.7,.31,.7,.7v52.92c0,.39-.32,.7-.7,.7Zm-93.89-1.41H101.78v-51.51H8.59v51.51Z"/><g class="v"><path class="m" d="M75.96,167.76c-2.69-9.52-10.93-16.46-20.66-16.46s-17.96,6.93-20.66,16.46h41.32Z"/><path class="m" d="M75.96,168.47H34.64c-.22,0-.43-.1-.56-.28-.13-.18-.18-.4-.12-.62,2.87-10.15,11.45-16.97,21.34-16.97s18.51,6.98,21.34,16.97c.06,.21,.02,.44-.12,.62-.13,.18-.34,.28-.56,.28Zm-40.37-1.41h39.43c-2.93-9.04-10.75-15.05-19.71-15.05s-16.77,6.01-19.71,15.05Z"/><rect class="n" x="1.22" y="345.18" width="102.5" height="2.25"/><path class="n" d="M52.4,202.71c-15,0-27.21-12.33-27.21-27.49s12.2-27.49,27.21-27.49,27.2,12.33,27.2,27.49-12.2,27.49-27.2,27.49Zm0-51.6c-13.14,0-23.83,10.82-23.83,24.11s10.69,24.11,23.83,24.11,23.82-10.82,23.82-24.11-10.69-24.11-23.82-24.11Z"/></g><rect class="n" x="27.31" y="165.72" width="50.17" height="2.25"/><g class="u"><path class="n" d="M44.83,177.79c0,.73-.59,1.32-1.31,1.32s-1.31-.59-1.31-1.32,.59-1.32,1.31-1.32,1.31,.59,1.31,1.32"/><path class="n" d="M62.58,177.79c0,.73-.59,1.32-1.31,1.32s-1.31-.59-1.31-1.32,.59-1.32,1.31-1.32,1.31,.59,1.31,1.32"/><path class="n" d="M25.25,444.91c-.93,0-1.69-.75-1.69-1.69v-42.08c0-.93,.76-1.69,1.69-1.69s1.69,.75,1.69,1.69v42.08c0,.93-.76,1.69-1.69,1.69Z"/><path class="n" d="M79.07,444.91c-.93,0-1.69-.75-1.69-1.69v-42.08c0-.93,.76-1.69,1.69-1.69s1.69,.75,1.69,1.69v42.08c0,.93-.76,1.69-1.69,1.69Z"/></g><path class="n" d="M26.91,312.25c-.93,0-1.69-.75-1.69-1.69v-50.32c0-.93,.76-1.69,1.69-1.69s1.69,.75,1.69,1.69v50.32c0,.93-.76,1.69-1.69,1.69Z"/><g class="t"><path class="n" d="M102.63,401.85H1.69c-.93,0-1.69-.75-1.69-1.69v-127.82C0,241.08,23.89,214.67,52.16,214.67s52.5,26.41,52.5,57.67h0l-.34,127.82c0,.93-.76,1.68-1.69,1.68Zm-99.25-3.38H100.94l.34-126.14c0-29.43-22.5-54.29-49.12-54.29S3.38,242.91,3.38,272.34v126.13Z"/></g><path class="n" d="M50.24,401.05c-.62,0-1.13-.51-1.13-1.13v-44.01c0-.62,.51-1.13,1.13-1.13s1.13,.51,1.13,1.13v44.01c0,.62-.51,1.13-1.13,1.13Z"/><path class="n" d="M79.53,311.22c-.93,0-1.69-.75-1.69-1.68l-.1-49.29c0-.93,.75-1.69,1.69-1.69h0c.93,0,1.69,.75,1.69,1.68l.1,49.29c0,.93-.75,1.69-1.69,1.69h0Z"/></svg>