<?xml version="1.0" encoding="UTF-8"?><svg id="a" xmlns="http://www.w3.org/2000/svg" xmlns:xlink="http://www.w3.org/1999/xlink" viewBox="0 0 512 303.33"><defs><style>.j{fill:none;}.k{fill:#fff;}.l{fill:#df8000;}.m{fill:#2b2961;}.n{clip-path:url(#c);}.o{clip-path:url(#b);}.p{clip-path:url(#f);}.q{clip-path:url(#e);}.r{clip-path:url(#d);}.s{clip-path:url(#i);}.t{clip-path:url(#h);}.u{clip-path:url(#g);}</style><clipPath id="b"><rect class="j" y="5.65" width="512" height="292.03"/></clipPath><clipPath id="c"><rect class="j" y="5.65" width="512" height="292.03"/></clipPath><clipPath id="d"><rect class="j" y="5.65" width="512" height="292.03"/></clipPath><clipPath id="e"><rect class="j" y="5.65" width="512" height="292.03"/></clipPath><clipPath id="f"><rect class="j" y="5.65" width="512" height="292.03"/></clipPath><clipPath id="g"><rect class="j" y="5.65" width="512" height="292.03"/></clipPath><clipPath id="h"><rect class="j" y="5.65" width="512" height="292.03"/></clipPath><clipPath id="i"><rect class="j" y="5.65" width="512" height="292.03"/></clipPath></defs><polygon class="l" points="261.4 222.61 241.33 201.83 240.62 242.68 261.4 222.61"/><polygon class="l" points="180.35 221.2 160.29 200.42 159.57 241.27 180.35 221.2"/><polygon class="l" points="220.87 221.91 200.81 201.13 200.1 241.97 220.87 221.91"/><polygon class="k" points="1.14 124.45 1.14 296.54 97.81 296.54 122.77 271.59 122.77 124.45 1.14 124.45"/><g class="o"><path class="m" d="M97.81,297.68H1.14c-.63,0-1.14-.51-1.14-1.14V124.45c0-.63,.51-1.14,1.14-1.14H122.76c.63,0,1.14,.51,1.14,1.14v147.14c0,.3-.12,.59-.33,.8l-24.96,24.95c-.21,.21-.5,.33-.8,.33Zm-95.53-2.27H97.34l24.29-24.29V125.58H2.28v169.82Z"/></g><polygon class="k" points="97.71 271.49 97.71 296.56 122.79 271.49 97.71 271.49"/><g class="n"><path class="m" d="M97.71,297.61c-.14,0-.27-.03-.4-.08-.39-.16-.65-.54-.65-.97v-25.07c0-.58,.47-1.05,1.05-1.05h25.07c.42,0,.81,.26,.97,.65,.16,.39,.07,.84-.23,1.14l-25.07,25.07c-.2,.2-.47,.31-.74,.31Zm1.05-25.07v21.49l21.49-21.49h-21.49Z"/></g><polygon class="l" points="100.21 271.94 100.21 294.52 121.01 271.94 100.21 271.94"/><path class="l" d="M99.76,295.68v-24.2h22.28l-22.28,24.2Zm.91-23.29v20.97l19.3-20.97h-19.3Z"/><g class="r"><path class="m" d="M97.73,297.68c-.15,0-.29-.03-.44-.09-.43-.18-.7-.59-.7-1.05v-25.03c0-.63,.51-1.14,1.14-1.14h25.03c.46,0,.88,.28,1.05,.7,.18,.43,.08,.91-.25,1.24l-25.03,25.03c-.22,.22-.51,.33-.8,.33Zm1.14-25.03v21.15l21.15-21.15h-21.15Z"/></g><path class="m" d="M88.71,231.65H13.61c-.42,0-.76-.34-.76-.76s.34-.76,.76-.76H88.71c.42,0,.76,.34,.76,.76s-.34,.76-.76,.76Z"/><path class="m" d="M101.21,217.69H13.6c-.42,0-.76-.34-.76-.76s.34-.76,.76-.76H101.21c.42,0,.76,.34,.76,.76s-.34,.76-.76,.76Zm.41-14.12H14c-.42,0-.76-.34-.76-.76s.34-.76,.76-.76H101.62c.42,0,.76,.34,.76,.76s-.34,.76-.76,.76Z"/><path class="m" d="M101.21,178.79H13.6c-.42,0-.76-.34-.76-.76s.34-.76,.76-.76H101.21c.42,0,.76,.34,.76,.76s-.34,.76-.76,.76Zm.41-14.12H14c-.42,0-.76-.34-.76-.76s.34-.76,.76-.76H101.62c.42,0,.76,.34,.76,.76s-.34,.76-.76,.76Z"/><path class="m" d="M77.15,189.31H14.03c-.42,0-.76-.34-.76-.76s.34-.76,.76-.76h63.12c.42,0,.76,.34,.76,.76s-.34,.76-.76,.76Z"/><path class="m" d="M77.15,150.39H14.03c-.42,0-.76-.34-.76-.76s.34-.76,.76-.76h63.12c.42,0,.76,.34,.76,.76s-.34,.76-.76,.76Z"/><path class="m" d="M101.21,259.18H13.6c-.42,0-.76-.34-.76-.76s.34-.76,.76-.76H101.21c.42,0,.76,.34,.76,.76s-.34,.76-.76,.76Zm.41-14.12H14c-.42,0-.76-.34-.76-.76s.34-.76,.76-.76H101.62c.42,0,.76,.34,.76,.76s-.34,.76-.76,.76Z"/><path class="m" d="M63.86,269.87H14c-.42,0-.76-.34-.76-.76s.34-.76,.76-.76H63.86c.42,0,.76,.34,.76,.76s-.34,.76-.76,.76Z"/><g class="q"><path class="l" d="M385.79,20.02c.03-6.39,5.27-12.06,11.53-12.02,6.32,.05,11.45,5.66,11.45,12.02v9.68h-22.9l-.08-9.68Z"/><path class="l" d="M408.77,30.17h-22.9c-.26,0-.48-.21-.48-.47l-.08-9.68h0c.02-3.35,1.42-6.65,3.86-9.06,2.27-2.24,5.16-3.44,8.15-3.44,6.46,.04,11.92,5.77,11.92,12.5v9.68c0,.26-.21,.48-.48,.48Zm-22.43-.96h21.95v-9.2c0-6.21-5.03-11.5-10.98-11.54h-.06c-2.71,0-5.34,1.12-7.41,3.17-2.25,2.23-3.56,5.28-3.58,8.37l.08,9.2Z"/><path class="m" d="M411.36,60.96h-23c-.63,0-1.14-.51-1.14-1.13l-.08-41.01h0c.02-3.52,1.5-6.99,4.05-9.51,2.41-2.37,5.49-3.55,8.67-3.65,6.85,.04,12.63,6.07,12.63,13.16V59.82c0,.63-.51,1.14-1.14,1.14Zm-21.86-2.27h20.73V18.81c0-5.86-4.75-10.84-10.37-10.88-2.58,.07-5.08,1.04-7.06,2.99-2.13,2.1-3.36,4.98-3.38,7.89l.08,39.87Z"/><path class="k" d="M377.55,41.78c0,12.49,10.13,22.62,22.61,22.62s22.62-10.13,22.62-22.62-10.12-22.61-22.62-22.61-22.61,10.12-22.61,22.61"/><path class="m" d="M400.16,65.53c-13.1,0-23.75-10.66-23.75-23.75s10.65-23.75,23.75-23.75,23.75,10.65,23.75,23.75-10.66,23.75-23.75,23.75Zm0-45.23c-11.84,0-21.47,9.63-21.47,21.47s9.63,21.48,21.47,21.48,21.48-9.64,21.48-21.48-9.63-21.47-21.48-21.47Z"/><path class="l" d="M377.6,36.25c2.62-8.62,10.6-14.9,20.05-14.9s17.44,6.28,20.06,14.9h-40.11Z"/><path class="l" d="M417.71,36.73h-40.11c-.15,0-.29-.07-.38-.19-.09-.12-.12-.28-.07-.42,2.77-9.12,11.01-15.24,20.51-15.24s17.75,6.12,20.51,15.24c.04,.14,.02,.3-.07,.42-.09,.12-.23,.19-.38,.19Zm-39.45-.96h38.8c-2.82-8.37-10.54-13.94-19.4-13.94s-16.58,5.58-19.4,13.94Z"/></g><rect class="m" x="378.8" y="35.47" width="42.73" height="1.52"/><g class="p"><path class="m" d="M407.11,43.44c0,.66,.54,1.2,1.2,1.2s1.2-.53,1.2-1.2-.54-1.2-1.2-1.2-1.2,.54-1.2,1.2"/><path class="m" d="M390.82,43.44c0,.66,.54,1.2,1.2,1.2s1.2-.53,1.2-1.2-.54-1.2-1.2-1.2-1.2,.54-1.2,1.2"/><path class="m" d="M400.16,65.53c-13.1,0-23.75-10.66-23.75-23.75s10.65-23.75,23.75-23.75,23.75,10.65,23.75,23.75-10.66,23.75-23.75,23.75Zm0-45.23c-11.84,0-21.47,9.63-21.47,21.47s9.63,21.48,21.47,21.48,21.48-9.64,21.48-21.48-9.63-21.47-21.48-21.47Z"/></g><rect class="m" x="359.03" y="215.84" width="79.87" height="1.52"/><path class="m" d="M422.71,286.74c-.63,0-1.14-.51-1.14-1.14v-28.89c0-.63,.51-1.14,1.14-1.14s1.14,.51,1.14,1.14v28.89c0,.63-.51,1.14-1.14,1.14Zm-46.57,0c-.63,0-1.14-.51-1.14-1.14v-28.89c0-.63,.51-1.14,1.14-1.14s1.14,.51,1.14,1.14v28.89c0,.63-.51,1.14-1.14,1.14Z"/><path class="m" d="M422.68,151.22c-.73,0-1.32-.59-1.32-1.32v-38.78c0-.73,.59-1.32,1.32-1.32s1.32,.59,1.32,1.32v38.78c0,.73-.59,1.32-1.32,1.32Z"/><g class="u"><path class="m" d="M439.64,256.98h-80.17c-.63,0-1.14-.51-1.14-1.13l-.27-143.37h0c.06-11.57,4.93-22.96,13.34-31.27,7.84-7.74,17.84-11.86,28.16-11.89,22.34,.15,41.21,19.92,41.21,43.16V255.84c0,.63-.51,1.14-1.14,1.14Zm-79.03-2.27h77.89V112.47c0-22.02-17.84-40.74-38.95-40.89-9.71-.14-19.14,3.93-26.55,11.24-7.99,7.89-12.6,18.69-12.67,29.65l.27,142.24Z"/></g><path class="m" d="M376.16,151.22c-.73,0-1.32-.59-1.32-1.32v-38.78c0-.73,.59-1.32,1.32-1.32s1.32,.59,1.32,1.32v38.78c0,.73-.59,1.32-1.32,1.32Z"/><rect class="l" x="354.47" y="179.25" width="77.65" height="79.66"/><path class="l" d="M432.12,259.39h-77.65c-.26,0-.47-.21-.47-.47v-79.66c0-.26,.21-.47,.47-.47h77.65c.26,0,.47,.21,.47,.47v79.66c0,.26-.21,.47-.47,.47Zm-77.17-.95h76.7v-78.71h-76.7v78.71Z"/><rect class="m" x="353.31" y="178.19" width="84.67" height="1.52"/><path class="m" d="M420.89,291.28c-.63,0-1.14-.51-1.14-1.14v-30.77c0-.63,.51-1.14,1.14-1.14s1.14,.51,1.14,1.14v30.77c0,.63-.51,1.14-1.14,1.14Zm-49.51,0c-.63,0-1.14-.51-1.14-1.14v-30.77c0-.63,.51-1.14,1.14-1.14s1.14,.51,1.14,1.14v30.77c0,.63-.51,1.14-1.14,1.14Z"/><path class="m" d="M396.44,259.71c-.42,0-.76-.34-.76-.76v-67.54c0-.42,.34-.76,.76-.76s.76,.34,.76,.76v67.54c0,.42-.34,.76-.76,.76Z"/><rect class="k" x="287.98" y="143.27" width="222.88" height="149.11"/><g class="t"><path class="m" d="M510.86,293.52h-222.88c-.63,0-1.14-.51-1.14-1.14V143.27c0-.63,.51-1.14,1.14-1.14h222.88c.63,0,1.14,.51,1.14,1.14v149.11c0,.63-.51,1.14-1.14,1.14Zm-221.75-2.27h220.61V144.41h-220.61v146.83Z"/></g><rect class="l" x="283.15" y="148.29" width="219.14" height="148.92"/><g class="s"><path class="l" d="M502.29,297.68h-219.14c-.26,0-.48-.21-.48-.48V148.29c0-.26,.21-.48,.48-.48h219.14c.26,0,.48,.21,.48,.48v148.91c0,.26-.21,.48-.48,.48Zm-218.66-.96h218.18V148.77h-218.18v147.96Z"/><path class="m" d="M510.86,293.52h-222.88c-.63,0-1.14-.51-1.14-1.14V143.27c0-.63,.51-1.14,1.14-1.14h222.88c.63,0,1.14,.51,1.14,1.14v149.11c0,.63-.51,1.14-1.14,1.14Zm-221.75-2.27h220.61V144.41h-220.61v146.83Z"/></g></svg>