<?xml version="1.0" encoding="UTF-8"?><svg id="a" xmlns="http://www.w3.org/2000/svg" viewBox="0 0 336.16 512"><defs><style>.b{fill:#fff;}.c{fill:#df8000;}.d{fill:#2b2961;}</style></defs><rect class="b" x="3.08" y="3.07" width="329.98" height="505.85"/><rect class="c" x="15.35" y="17.54" width="320.8" height="487.17"/><g><path class="d" d="M331.99,512H4.15c-2.3,0-4.15-1.85-4.15-4.15V4.15C0,1.85,1.85,0,4.15,0H331.99c2.3,0,4.15,1.85,4.15,4.15V507.85c0,2.3-1.85,4.15-4.15,4.15ZM8.31,503.69H327.83V8.31H8.31V503.69Z"/><path class="d" d="M168.07,510.12c-2.3,0-4.15-1.85-4.15-4.15V107.26c0-2.3,1.85-4.15,4.15-4.15s4.15,1.85,4.15,4.15V505.96c0,2.3-1.85,4.15-4.15,4.15Z"/></g><g><path class="d" d="M49.02,265.6c5.17-12.02,10.51-16.8,27.32,0,16.8,16.83,33.61,52.55,16.8,42.04-16.8-10.51-27.31-10.51-27.31,8.39s-37.82,8.41-31.52-8.39c6.3-16.83,18.9-4.67,18.9-19.02s-9.37-10.98-4.2-23.02"/><path class="d" d="M250.71,337c5.17-12.02,10.51-16.8,27.32,0,16.8,16.83,33.61,52.55,16.8,42.04-16.8-10.51-27.31-10.51-27.31,8.39s-37.82,8.41-31.52-8.39c6.3-16.82,18.9-4.67,18.9-19.02s-9.37-10.98-4.2-23.02"/></g></svg>