<?xml version="1.0" encoding="UTF-8"?><svg id="a" xmlns="http://www.w3.org/2000/svg" xmlns:xlink="http://www.w3.org/1999/xlink" viewBox="0 0 512 512"><defs><style>.k{fill:none;}.l{fill:#df8000;}.m{fill:#2b2961;}.n{clip-path:url(#c);}.o{clip-path:url(#b);}.p{clip-path:url(#f);}.q{clip-path:url(#e);}.r{clip-path:url(#d);}.s{clip-path:url(#j);}.t{clip-path:url(#i);}.u{clip-path:url(#h);}.v{clip-path:url(#g);}</style><clipPath id="b"><rect class="k" x="9.06" width="493.87" height="512"/></clipPath><clipPath id="c"><rect class="k" x="9.06" width="493.87" height="512"/></clipPath><clipPath id="d"><rect class="k" x="9.06" width="493.87" height="512"/></clipPath><clipPath id="e"><rect class="k" x="9.06" width="493.87" height="512"/></clipPath><clipPath id="f"><rect class="k" x="9.06" width="493.87" height="512"/></clipPath><clipPath id="g"><rect class="k" x="9.06" width="493.87" height="512"/></clipPath><clipPath id="h"><rect class="k" x="9.06" width="493.87" height="512"/></clipPath><clipPath id="i"><rect class="k" x="9.06" width="493.87" height="512"/></clipPath><clipPath id="j"><rect class="k" x="9.06" width="493.87" height="512"/></clipPath></defs><rect class="l" x="172.16" y="311.58" width="134.66" height="142.01"/><path class="l" d="M306.82,454.83H172.15c-.69,0-1.25-.55-1.25-1.25v-142.01c0-.69,.56-1.25,1.25-1.25h134.66c.69,0,1.25,.55,1.25,1.25v142.01c0,.69-.56,1.25-1.25,1.25Zm-133.41-2.49h132.17v-139.51H173.4v139.51Z"/><g class="o"><path class="l" d="M427.74,101.59c15.29,0,29.49,2.95,41.3,11.29V58.73l-4.3,6.12c-6.74,14.34-20.76,24.22-37,24.22s-27.72-6.95-34.47-21.28l-2.84-2.94v47.41c10.97-6.74,23.69-10.67,37.31-10.67"/><path class="l" d="M469.04,114.12c-.25,0-.51-.08-.72-.22-10.53-7.45-23.81-11.06-40.58-11.06-12.81,0-25.49,3.62-36.66,10.49-.38,.24-.87,.25-1.26,.03s-.64-.64-.64-1.09v-47.41c0-.51,.31-.96,.78-1.16,.47-.18,1.01-.07,1.36,.29l2.84,2.94c.1,.1,.18,.21,.23,.33,6.51,13.84,17.42,20.56,33.34,20.56s29.06-9.01,35.87-23.49l4.41-6.32c.32-.43,.9-.62,1.4-.47,.52,.17,.87,.64,.87,1.19v54.14c0,.47-.26,.9-.67,1.11-.18,.09-.38,.14-.57,.14Zm-41.3-13.78c16.28,0,29.41,3.34,40.05,10.18V62.67l-2.03,2.9c-7.12,15.19-21.73,24.74-38.02,24.74s-28.62-7.33-35.5-21.8l-.56-.57v42.13c11.09-6.37,23.51-9.73,36.06-9.73Z"/><path class="m" d="M467.49,118.23c-.6,0-1.2-.18-1.71-.54-12.03-8.37-27.7-13.57-40.88-13.57s-26.06,3.99-37.83,12.19c-.92,.64-2.11,.72-3.09,.19-.99-.52-1.61-1.54-1.61-2.65V47.25h5.98v61.12c11.35-6.79,23.62-10.22,36.55-10.22s27.32,4.28,39.6,11.62V46.44h5.98V115.24c0,1.11-.62,2.13-1.61,2.65-.43,.23-.91,.34-1.38,.34Z"/></g><rect class="l" x="361.26" y="378.93" width="139.96" height="74.66"/><path class="l" d="M501.22,454.83h-139.96c-.69,0-1.25-.55-1.25-1.25v-74.65c0-.69,.56-1.25,1.25-1.25h139.96c.69,0,1.25,.55,1.25,1.25v74.65c0,.69-.56,1.25-1.25,1.25Zm-138.71-2.49h137.47v-72.16h-137.47v72.16Z"/><g class="n"><rect class="m" x="353.4" y="376.48" width="147.76" height="3.99"/><path class="m" d="M468.62,512.01c-1.65,0-2.99-1.33-2.99-2.99v-53.26c0-1.66,1.34-2.99,2.99-2.99s2.99,1.33,2.99,2.99v53.26c0,1.66-1.34,2.99-2.99,2.99Zm-84.39,0c-1.65,0-2.99-1.33-2.99-2.99v-53.26c0-1.66,1.34-2.99,2.99-2.99s2.99,1.33,2.99,2.99v53.26c0,1.66-1.34,2.99-2.99,2.99Z"/></g><path class="m" d="M468.5,254.48c-1.91,0-3.47-1.55-3.47-3.47v-71.79c0-1.92,1.55-3.47,3.47-3.47s3.47,1.55,3.47,3.47v71.79c0,1.92-1.55,3.47-3.47,3.47Zm-84.16,0c-1.91,0-3.47-1.55-3.47-3.47v-71.79c0-1.92,1.55-3.47,3.47-3.47s3.47,1.55,3.47,3.47v71.79c0,1.92-1.55,3.47-3.47,3.47Z"/><g class="r"><path class="m" d="M499.45,455.46h-146.55c-1.65,0-2.99-1.33-2.99-2.99V181.29c0-44.42,34.92-82.19,76.25-82.47h.47c18.48,0,36.46,7.71,50.69,21.76,16.16,15.97,25.5,38.08,25.63,60.69v.03l-.5,271.18c0,1.65-1.34,2.98-2.99,2.98Zm-143.56-5.98h140.58l.5-268.19c-.12-21.02-8.82-41.59-23.85-56.44-13.1-12.94-29.59-20.05-46.49-20.05h-.42c-38.11,.27-70.31,35.29-70.31,76.49V449.48Z"/><path class="l" d="M467.91,34.39c-4.81-16.03-19.47-27.71-36.83-27.71s-32.02,11.68-36.83,27.71h73.66Z"/><path class="l" d="M467.91,35.64h-73.66c-.39,0-.76-.18-1-.51-.24-.31-.31-.72-.19-1.1,5.13-17.11,20.4-28.6,38.02-28.6s32.89,11.49,38.03,28.6c.11,.38,.04,.79-.19,1.1-.23,.32-.6,.51-1,.51Zm-71.95-2.49h70.23c-5.26-15.15-19.17-25.22-35.12-25.22s-29.86,10.07-35.11,25.22Z"/><path class="m" d="M426.42,90.51c-24.29,0-44.06-20.3-44.06-45.26S402.13,.01,426.42,.01s44.05,20.3,44.05,45.25-19.76,45.26-44.05,45.26Zm0-84.52c-21,0-38.08,17.61-38.08,39.27s17.08,39.28,38.08,39.28,38.07-17.62,38.07-39.28-17.08-39.27-38.07-39.27Z"/></g><rect class="m" x="386.79" y="33.3" width="79.26" height="3.99"/><g class="q"><path class="m" d="M413.55,48.43c0,1.27-1,2.28-2.22,2.28s-2.23-1.02-2.23-2.28,1-2.28,2.23-2.28,2.22,1.02,2.22,2.28"/><path class="m" d="M443.75,48.43c0,1.27-1,2.28-2.22,2.28s-2.23-1.02-2.23-2.28,1-2.28,2.23-2.28,2.22,1.02,2.22,2.28"/></g><rect class="m" x="161.5" y="308.58" width="147.76" height="3.99"/><g class="p"><path class="m" d="M276.72,512.01c-1.65,0-2.99-1.33-2.99-2.99v-53.26c0-1.66,1.34-2.99,2.99-2.99s2.99,1.33,2.99,2.99v53.26c0,1.66-1.34,2.99-2.99,2.99Zm-84.39,0c-1.65,0-2.99-1.33-2.99-2.99v-53.26c0-1.66,1.34-2.99,2.99-2.99s2.99,1.33,2.99,2.99v53.26c0,1.66-1.34,2.99-2.99,2.99Z"/></g><path class="m" d="M276.61,254.48c-1.91,0-3.47-1.55-3.47-3.47v-71.79c0-1.92,1.55-3.47,3.47-3.47s3.47,1.55,3.47,3.47v71.79c0,1.92-1.55,3.47-3.47,3.47Zm-84.16,0c-1.91,0-3.47-1.55-3.47-3.47v-71.79c0-1.92,1.55-3.47,3.47-3.47s3.47,1.55,3.47,3.47v71.79c0,1.92-1.55,3.47-3.47,3.47Z"/><g class="v"><path class="m" d="M307.56,455.46H161.01c-1.65,0-2.99-1.33-2.99-2.99V181.29c0-44.42,34.92-82.19,76.25-82.47,18.68-.39,36.8,7.59,51.16,21.76,16.16,15.97,25.5,38.08,25.63,60.69v.03l-.5,271.18c0,1.65-1.34,2.98-2.99,2.98Zm-143.56-5.98h140.58l.5-268.19c-.12-21.02-8.82-41.59-23.85-56.44-13.1-12.94-29.59-20.05-46.49-20.05h-.42c-38.11,.27-70.31,35.29-70.31,76.49V449.48Z"/><path class="l" d="M276.02,34.39c-4.81-16.03-19.47-27.71-36.83-27.71s-32.02,11.68-36.83,27.71h73.66Z"/><path class="l" d="M276.01,35.64h-73.66c-.39,0-.76-.18-1-.51-.24-.31-.31-.72-.19-1.1,5.13-17.11,20.4-28.6,38.02-28.6s32.89,11.49,38.02,28.6c.11,.38,.04,.79-.19,1.1-.23,.32-.6,.51-1,.51Zm-71.94-2.49h70.23c-5.25-15.15-19.16-25.22-35.11-25.22s-29.86,10.07-35.11,25.22Z"/><path class="m" d="M234.53,90.51c-24.29,0-44.05-20.3-44.05-45.26S210.23,.01,234.53,.01s44.06,20.3,44.06,45.25-19.77,45.26-44.06,45.26Zm0-84.52c-20.99,0-38.07,17.61-38.07,39.27s17.08,39.28,38.07,39.28,38.08-17.62,38.08-39.28S255.52,5.99,234.53,5.99Z"/></g><rect class="m" x="194.9" y="33.3" width="79.26" height="3.99"/><g class="u"><path class="m" d="M221.65,48.43c0,1.27-1,2.28-2.22,2.28s-2.23-1.02-2.23-2.28,1-2.28,2.23-2.28,2.22,1.02,2.22,2.28"/><path class="m" d="M251.86,48.43c0,1.27-1,2.28-2.22,2.28s-2.23-1.02-2.23-2.28,1-2.28,2.23-2.28,2.22,1.02,2.22,2.28"/></g><rect class="l" x="18.02" y="399.62" width="98.16" height="53.97"/><path class="l" d="M116.17,454.83H18.02c-.69,0-1.25-.55-1.25-1.25v-53.97c0-.69,.56-1.25,1.25-1.25H116.17c.69,0,1.25,.55,1.25,1.25v53.97c0,.69-.56,1.25-1.25,1.25Zm-96.91-2.49H114.93v-51.48H19.26v51.48Z"/><g class="t"><path class="l" d="M90,209.52c-2.82-9.82-11.45-16.98-21.66-16.98s-18.83,7.16-21.66,16.98h43.31Z"/><path class="l" d="M90,210.77H46.69c-.39,0-.76-.18-1-.5-.23-.31-.31-.72-.2-1.09,3.07-10.7,12.26-17.89,22.85-17.89s19.78,7.19,22.86,17.89c.11,.37,.03,.78-.2,1.09-.24,.31-.61,.5-1,.5Zm-41.6-2.49h39.89c-3.17-8.73-11-14.49-19.95-14.49s-16.77,5.75-19.94,14.49Z"/><rect class="m" x="13.13" y="393.57" width="107.12" height="3.99"/><path class="m" d="M65.22,248.08c-16.08,0-29.16-13.44-29.16-29.95s13.08-29.95,29.16-29.95,29.16,13.44,29.16,29.95-13.08,29.95-29.16,29.95Zm0-53.92c-12.78,0-23.18,10.76-23.18,23.97s10.4,23.97,23.18,23.97,23.18-10.76,23.18-23.97-10.4-23.97-23.18-23.97Z"/></g><rect class="m" x="38.34" y="207.63" width="53.78" height="3.99"/><g class="s"><path class="m" d="M57.11,220.92c0,.8-.63,1.45-1.41,1.45s-1.4-.65-1.4-1.45,.63-1.44,1.4-1.44,1.41,.64,1.41,1.44"/><path class="m" d="M76.14,220.92c0,.8-.63,1.45-1.41,1.45s-1.4-.65-1.4-1.45,.63-1.44,1.4-1.44,1.41,.64,1.41,1.44"/><path class="m" d="M92.65,512c-1.65,0-2.99-1.33-2.99-2.99v-54.2c0-1.66,1.34-2.99,2.99-2.99s2.99,1.33,2.99,2.99v54.2c0,1.66-1.34,2.99-2.99,2.99Zm-55.33,0c-1.65,0-2.99-1.33-2.99-2.99v-54.2c0-1.66,1.34-2.99,2.99-2.99s2.99,1.33,2.99,2.99v54.2c0,1.66-1.34,2.99-2.99,2.99Zm53.98-142.87c-1.65,0-2.99-1.33-2.99-2.99v-54.21c0-1.66,1.34-2.99,2.99-2.99s2.99,1.33,2.99,2.99v54.21c0,1.66-1.34,2.99-2.99,2.99Zm-52.28,0c-1.65,0-2.99-1.33-2.99-2.99v-54.21c0-1.66,1.34-2.99,2.99-2.99s2.99,1.33,2.99,2.99v54.21c0,1.66-1.34,2.99-2.99,2.99Z"/><path class="m" d="M117.9,455.66H12.06c-1.65,0-2.99-1.33-2.99-2.99v-131.14c0-32.75,25.6-60.42,55.91-60.42s56.27,27.67,56.27,60.42h0l-.36,131.15c0,1.65-1.34,2.98-2.99,2.98Zm-102.86-5.98H114.92l.36-128.16c0-29.51-23.04-54.44-50.29-54.44s-49.93,24.94-49.93,54.45v128.15Z"/></g><path class="m" d="M63.5,454.88c-1.1,0-2-.9-2-2v-41.17c0-1.1,.9-2,2-2s2,.9,2,2v41.17c0,1.1-.9,2-2,2Z"/></svg>