<?xml version="1.0" encoding="UTF-8"?><svg id="a" xmlns="http://www.w3.org/2000/svg" xmlns:xlink="http://www.w3.org/1999/xlink" viewBox="0 0 512 512"><defs><style>.g{fill:none;}.h{fill:#df8000;}.i{fill:#2b2961;}.j{clip-path:url(#c);}.k{clip-path:url(#b);}.l{clip-path:url(#f);}.m{clip-path:url(#e);}.n{clip-path:url(#d);}</style><clipPath id="b"><rect class="g" x=".99" y="0" width="510.01" height="512"/></clipPath><clipPath id="c"><rect class="g" x=".99" y="0" width="510.01" height="512"/></clipPath><clipPath id="d"><rect class="g" x=".99" y="0" width="510.01" height="512"/></clipPath><clipPath id="e"><rect class="g" x=".99" y="0" width="510.01" height="512"/></clipPath><clipPath id="f"><rect class="g" x=".99" y="0" width="510.01" height="512"/></clipPath></defs><g class="k"><path class="h" d="M304.62,183.27c0,80.33-64.04,145.44-143.03,145.44S18.55,263.61,18.55,183.27,82.59,37.84,161.59,37.84s143.03,65.11,143.03,145.44m11.84,0c0-86.97-69.34-157.48-154.87-157.48S6.71,96.3,6.71,183.27s69.34,157.49,154.88,157.49,154.87-70.51,154.87-157.49"/><path class="i" d="M157.47,330.35c-79.75,0-144.64-65.98-144.64-147.08S77.71,36.21,157.47,36.21s144.64,65.97,144.64,147.07-64.89,147.08-144.64,147.08Zm0-289.5c-77.19,0-140,63.9-140,142.43s62.8,142.44,140,142.44,140-63.9,140-142.44S234.66,40.85,157.47,40.85Z"/></g><path class="i" d="M156.91,69.26c-1.28,0-2.32-1.04-2.32-2.32v-28.47c0-1.28,1.04-2.32,2.32-2.32s2.32,1.04,2.32,2.32v28.47c0,1.28-1.04,2.32-2.32,2.32Z"/><path class="i" d="M157.03,330.41c-1.28,0-2.32-1.04-2.32-2.32v-19.78c0-1.28,1.04-2.32,2.32-2.32s2.32,1.04,2.32,2.32v19.78c0,1.28-1.04,2.32-2.32,2.32Z"/><path class="i" d="M299.84,185.26h-19.39c-1.28,0-2.32-1.04-2.32-2.32s1.04-2.32,2.32-2.32h19.39c1.28,0,2.32,1.04,2.32,2.32s-1.04,2.32-2.32,2.32Z"/><path class="i" d="M34.47,185.59H15.09c-1.28,0-2.32-1.04-2.32-2.32s1.04-2.32,2.32-2.32h19.39c1.28,0,2.32,1.04,2.32,2.32s-1.04,2.32-2.32,2.32Z"/><path class="i" d="M51.39,121.8c-.39,0-.78-.1-1.14-.3l-16.5-9.36c-1.11-.63-1.51-2.05-.87-3.17,.63-1.11,2.05-1.5,3.16-.87l16.5,9.36c1.11,.63,1.51,2.05,.87,3.17-.43,.75-1.21,1.17-2.02,1.17Z"/><path class="i" d="M280.04,258.75c-.39,0-.78-.1-1.14-.3l-16.5-9.36c-1.11-.63-1.51-2.05-.87-3.16,.63-1.11,2.05-1.5,3.16-.88l16.5,9.36c1.11,.63,1.51,2.05,.87,3.16-.43,.76-1.21,1.18-2.02,1.18Z"/><path class="i" d="M220.24,77.78c-.37,0-.75-.09-1.1-.28-1.13-.61-1.55-2.02-.94-3.14l9.13-16.86c.61-1.13,2.02-1.54,3.15-.94,1.13,.61,1.55,2.02,.94,3.14l-9.13,16.86c-.42,.78-1.22,1.22-2.04,1.22Z"/><path class="i" d="M85.56,310.27c-.37,0-.75-.09-1.1-.28-1.13-.61-1.55-2.02-.94-3.14l9.13-16.86c.61-1.13,2.02-1.54,3.15-.94,1.13,.61,1.55,2.02,.94,3.14l-9.13,16.86c-.42,.78-1.22,1.22-2.04,1.22Z"/><path class="i" d="M33.35,256c-.83,0-1.63-.45-2.05-1.22-.61-1.13-.18-2.54,.95-3.14l16.72-8.96c1.13-.61,2.54-.17,3.14,.95,.61,1.13,.18,2.54-.95,3.14l-16.72,8.96c-.35,.19-.72,.27-1.09,.27Z"/><path class="i" d="M264.86,124.16c-.83,0-1.63-.45-2.05-1.22-.61-1.13-.18-2.54,.95-3.14l16.73-8.96c1.12-.6,2.54-.17,3.14,.95,.61,1.13,.18,2.54-.95,3.14l-16.73,8.96c-.35,.19-.72,.27-1.09,.27Z"/><path class="i" d="M97,76.42c-.84,0-1.66-.46-2.07-1.26l-8.73-17.09c-.58-1.14-.13-2.54,1.01-3.13,1.14-.56,2.54-.12,3.12,1.01l8.73,17.09c.58,1.14,.13,2.54-1.01,3.13-.34,.17-.7,.25-1.05,.25Z"/><path class="i" d="M226.67,311.85c-.84,0-1.66-.46-2.07-1.26l-8.74-17.09c-.58-1.14-.13-2.54,1.01-3.13,1.14-.55,2.54-.12,3.12,1.01l8.74,17.09c.58,1.14,.13,2.54-1.01,3.13-.34,.17-.7,.25-1.06,.25Z"/><g class="j"><path class="h" d="M179.61,225.72l3.14,4.91s1.5,2.65,1.51,2.66c1.07,1.88,.36,4.19,2.21,3.11,1.85-1.08,2.48-3.48,1.42-5.36-.02-.02-.04-.03-.05-.05h.02l-25.97-44.76-4.43,2.56,22.16,36.93Z"/><path class="i" d="M188.58,242.33l-.65-.17c-.63-.17-1.12-.48-1.33-.6l-.91-.29v-.66l-.51-.98-29.72-51.83,6.69-3.92,30.11,52.51c.56,.99,.65,2.08,.25,3.08-.48,1.22-1.59,2.12-3.29,2.65l-.64,.2Z"/><path class="i" d="M157.47,190.18c3.75,0,6.79-3.09,6.79-6.91s-3.04-6.9-6.79-6.9-6.79,3.09-6.79,6.9,3.04,6.91,6.79,6.91"/><path class="i" d="M157.47,341.75C71.19,341.75,1,270.38,1,182.65S71.19,23.54,157.47,23.54s156.47,71.38,156.47,159.11-70.19,159.11-156.47,159.11Zm0-313.57C73.75,28.18,5.64,97.47,5.64,182.65s68.11,154.47,151.83,154.47,151.83-69.29,151.83-154.47S241.19,28.18,157.47,28.18Z"/></g><rect class="i" x="137.19" y="18.87" width="35.91" height="7.87"/><rect class="i" x="130.36" y=".96" width="48.88" height="18.49"/><path class="i" d="M179.24,20.42h-48.88c-.53,0-.97-.43-.97-.97V.97c0-.54,.43-.97,.97-.97h48.88c.53,0,.97,.43,.97,.97V19.45c0,.54-.43,.97-.97,.97Zm-47.92-1.93h46.95V1.93h-46.95V18.48Z"/><rect class="h" x="378.03" y="377.06" width="129.99" height="72.72"/><g class="n"><path class="h" d="M508.02,450.75h-129.99c-.53,0-.97-.43-.97-.97v-72.72c0-.54,.43-.97,.97-.97h129.99c.53,0,.97,.43,.97,.97v72.72c0,.54-.43,.97-.97,.97Zm-129.02-1.93h128.05v-70.79h-128.05v70.79Z"/><path class="h" d="M471.57,131.16c-3.7-13.09-15.01-22.61-28.39-22.61s-24.69,9.53-28.39,22.61h56.78Z"/><path class="h" d="M471.57,132.12h-56.78c-.3,0-.59-.14-.77-.39-.18-.24-.24-.55-.16-.85,3.95-13.94,15.74-23.31,29.32-23.31s25.44,9.59,29.32,23.31c.08,.29,.02,.6-.16,.85-.18,.24-.47,.39-.77,.39Zm-55.48-1.93h54.17c-4.03-12.42-14.77-20.68-27.09-20.68s-23.05,8.25-27.09,20.68Z"/><rect class="i" x="368.87" y="374.95" width="140.85" height="3.1"/><path class="i" d="M439.19,179.18c-20.61,0-37.38-16.94-37.38-37.77s16.77-37.77,37.38-37.77,37.38,16.94,37.38,37.77-16.77,37.77-37.38,37.77Zm0-70.9c-18.05,0-32.74,14.86-32.74,33.13s14.69,33.13,32.74,33.13,32.73-14.86,32.73-33.13-14.68-33.13-32.73-33.13Z"/></g><rect class="i" x="404.71" y="128.34" width="68.94" height="3.1"/><g class="m"><path class="i" d="M428.78,144.93c0,1.01-.8,1.82-1.8,1.82s-1.8-.81-1.8-1.82,.8-1.82,1.8-1.82,1.8,.81,1.8,1.82"/><path class="i" d="M453.18,144.93c0,1.01-.8,1.82-1.8,1.82s-1.8-.81-1.8-1.82,.8-1.82,1.8-1.82,1.8,.81,1.8,1.82"/><path class="i" d="M401.89,512c-1.28,0-2.32-1.04-2.32-2.32v-57.82c0-1.28,1.04-2.32,2.32-2.32s2.32,1.04,2.32,2.32v57.82c0,1.28-1.04,2.32-2.32,2.32Z"/><path class="i" d="M475.84,512c-1.28,0-2.32-1.04-2.32-2.32v-57.82c0-1.28,1.04-2.32,2.32-2.32s2.32,1.04,2.32,2.32v57.82c0,1.28-1.04,2.32-2.32,2.32Z"/></g><path class="i" d="M404.16,329.71c-1.28,0-2.32-1.04-2.32-2.32v-69.15c0-1.28,1.04-2.32,2.32-2.32s2.32,1.04,2.32,2.32v69.15c0,1.28-1.04,2.32-2.32,2.32Z"/><g class="l"><path class="i" d="M508.21,452.82h-138.7c-1.28,0-2.32-1.04-2.32-2.32v-175.65c0-42.95,32.82-79.24,71.67-79.24s72.14,36.29,72.14,79.24h0l-.47,175.66c0,1.28-1.04,2.31-2.32,2.31Zm-136.38-4.64h134.06l.47-173.34c0-40.43-30.91-74.6-67.5-74.6s-67.03,34.17-67.03,74.6v173.33Z"/></g><path class="i" d="M436.22,451.73c-.85,0-1.55-.7-1.55-1.55v-60.48c0-.85,.69-1.55,1.55-1.55s1.55,.7,1.55,1.55v60.48c0,.85-.69,1.55-1.55,1.55Z"/><path class="i" d="M476.46,328.29c-1.28,0-2.32-1.04-2.32-2.31l-.14-67.73c0-1.28,.85-2.19,2.32-2.33,1.28,0,2.32,1.04,2.32,2.31l.14,67.73c0,1.28-1.04,2.33-2.32,2.33h0Z"/></svg>