<?xml version="1.0" encoding="UTF-8"?><svg id="a" xmlns="http://www.w3.org/2000/svg" xmlns:xlink="http://www.w3.org/1999/xlink" viewBox="0 0 512 512"><defs><style>.f{fill:none;}.g{fill:#df8000;}.h{fill:#2b2961;}.i{clip-path:url(#c);}.j{clip-path:url(#b);}.k{clip-path:url(#e);}.l{clip-path:url(#d);}</style><clipPath id="b"><polygon class="f" points="-299.64 56.84 -374.21 62.07 -430.49 92.17 -460.58 111.81 -480.21 128.81 -524.69 209.13 -527.31 310.68 -495.9 395.72 -419.95 472.97 -393.54 426.28 -307.21 273.68 -115.15 168.06 -143.96 130.12 -189.74 89.55 -244.3 51.54 -299.64 56.84"/></clipPath><clipPath id="c"><polygon class="f" points="161.38 65.09 91.35 115.43 37.83 196.16 26.46 303.22 62.53 393.65 137.7 468.4 166.13 422.9 252.54 275.34 359.46 466.57 392.54 442.83 426.56 408.8 454.03 364.33 471.05 300.22 468.43 234.78 455.34 189 433.1 148.44 404.32 117.04 372.92 92.18 344.13 75.17 235.58 45.1 161.38 65.09"/></clipPath><clipPath id="d"><rect class="f" x="15.71" width="480.58" height="512"/></clipPath><clipPath id="e"><rect class="f" x="15.71" width="480.58" height="512"/></clipPath></defs><g class="j"><rect class="g" x="-249.45" y="-102.39" width="5.55" height="540.5" transform="translate(-399.19 -88.6) rotate(-86.51)"/><rect class="g" x="-202.13" y="-186.02" width="5.55" height="540.5" transform="translate(-271.28 -119.89) rotate(-86.51)"/><rect class="g" x="-235.94" y="-126.27" width="5.55" height="540.5" transform="translate(-362.66 -97.53) rotate(-86.51)"/><rect class="g" x="-181.85" y="-221.86" width="5.55" height="540.49" transform="translate(-216.46 -133.31) rotate(-86.51)"/><rect class="g" x="-229.17" y="-138.23" width="5.55" height="540.5" transform="translate(-344.36 -102.01) rotate(-86.5)"/><rect class="g" x="-175.1" y="-233.81" width="5.55" height="540.5" transform="translate(-198.2 -137.79) rotate(-86.51)"/><rect class="g" x="-222.42" y="-150.17" width="5.55" height="540.5" transform="translate(-326.11 -106.48) rotate(-86.51)"/><rect class="g" x="-168.33" y="-245.76" width="5.55" height="540.5" transform="translate(-179.91 -142.26) rotate(-86.51)"/><rect class="g" x="-262.97" y="-78.51" width="5.55" height="540.5" transform="translate(-435.71 -79.66) rotate(-86.51)"/><rect class="g" x="-208.89" y="-174.07" width="5.55" height="540.5" transform="translate(-289.56 -115.42) rotate(-86.51)"/><rect class="g" x="-256.2" y="-90.46" width="5.55" height="540.5" transform="translate(-417.44 -84.13) rotate(-86.5)"/><rect class="g" x="-188.61" y="-209.92" width="5.55" height="540.5" transform="translate(-234.73 -128.84) rotate(-86.51)"/><rect class="g" x="-242.7" y="-114.33" width="5.55" height="540.5" transform="translate(-380.93 -93.07) rotate(-86.51)"/><rect class="g" x="-195.37" y="-197.97" width="5.55" height="540.5" transform="translate(-253 -124.37) rotate(-86.51)"/><rect class="g" x="-269.72" y="-66.55" width="5.55" height="540.49" transform="translate(-454 -75.17) rotate(-86.51)"/><rect class="g" x="-215.66" y="-162.12" width="5.55" height="540.5" transform="translate(-307.84 -110.95) rotate(-86.51)"/></g><g><g class="i"><rect class="g" x="263.16" y="-5.99" width="5.55" height="540.5" transform="translate(-24.65 501.14) rotate(-84.01)"/><rect class="g" x="146.77" y="180.26" width="5.55" height="540.49" transform="translate(-314.11 552.19) rotate(-84.01)"/><rect class="g" x="321.35" y="-99.12" width="5.55" height="540.49" transform="translate(120.08 475.6) rotate(-84)"/><rect class="g" x="197.7" y="98.77" width="5.55" height="540.5" transform="translate(-187.47 529.85) rotate(-84)"/><rect class="g" x="372.27" y="-180.61" width="5.55" height="540.5" transform="translate(246.73 453.27) rotate(-84.01)"/><rect class="g" x="277.71" y="-29.28" width="5.55" height="540.5" transform="translate(11.54 494.76) rotate(-84.01)"/><rect class="g" x="161.32" y="156.97" width="5.55" height="540.49" transform="translate(-277.92 545.8) rotate(-84)"/><rect class="g" x="335.9" y="-122.39" width="5.55" height="540.49" transform="translate(156.26 469.24) rotate(-84.01)"/><rect class="g" x="219.51" y="63.85" width="5.55" height="540.5" transform="translate(-133.2 520.28) rotate(-84)"/><rect class="g" x="394.09" y="-215.53" width="5.55" height="540.5" transform="translate(301 443.7) rotate(-84.01)"/><rect class="g" x="110.41" y="238.45" width="5.55" height="540.5" transform="translate(-404.56 568.14) rotate(-84)"/><rect class="g" x="284.98" y="-40.92" width="5.55" height="540.5" transform="translate(29.62 491.56) rotate(-84.01)"/><rect class="g" x="168.61" y="145.33" width="5.55" height="540.49" transform="translate(-259.82 542.62) rotate(-84.01)"/><rect class="g" x="343.18" y="-134.04" width="5.55" height="540.49" transform="translate(174.36 466.03) rotate(-84)"/><rect class="g" x="226.78" y="52.22" width="5.55" height="540.5" transform="translate(-115.12 517.09) rotate(-84.01)"/><rect class="g" x="401.37" y="-227.16" width="5.55" height="540.49" transform="translate(319.09 440.51) rotate(-84.01)"/><rect class="g" x="117.68" y="226.82" width="5.55" height="540.5" transform="translate(-386.47 564.94) rotate(-84)"/><rect class="g" x="292.25" y="-52.56" width="5.55" height="540.5" transform="translate(47.72 488.38) rotate(-84.01)"/><rect class="g" x="175.88" y="133.69" width="5.55" height="540.5" transform="translate(-241.73 539.43) rotate(-84.01)"/><rect class="g" x="350.45" y="-145.69" width="5.55" height="540.5" transform="translate(192.45 462.84) rotate(-84)"/><rect class="g" x="234.08" y="40.56" width="5.55" height="540.49" transform="translate(-96.99 513.9) rotate(-84.01)"/><rect class="g" x="408.64" y="-238.82" width="5.55" height="540.49" transform="translate(337.19 437.31) rotate(-84)"/><rect class="g" x="132.23" y="203.53" width="5.55" height="540.49" transform="translate(-350.28 558.57) rotate(-84.01)"/><rect class="g" x="306.81" y="-75.85" width="5.55" height="540.49" transform="translate(83.92 481.98) rotate(-84)"/><rect class="g" x="190.42" y="110.41" width="5.55" height="540.5" transform="translate(-205.56 533.04) rotate(-84.01)"/><rect class="g" x="365" y="-168.97" width="5.55" height="540.5" transform="translate(228.63 456.46) rotate(-84)"/><rect class="g" x="248.61" y="17.28" width="5.55" height="540.5" transform="translate(-60.83 507.51) rotate(-84)"/><rect class="g" x="423.19" y="-262.1" width="5.55" height="540.5" transform="translate(373.36 430.93) rotate(-84)"/><rect class="g" x="139.5" y="191.9" width="5.55" height="540.5" transform="translate(-332.2 555.38) rotate(-84)"/><rect class="g" x="314.09" y="-87.49" width="5.55" height="540.5" transform="translate(102.01 478.8) rotate(-84)"/><rect class="g" x="212.25" y="75.49" width="5.55" height="540.5" transform="translate(-151.29 523.47) rotate(-84)"/><rect class="g" x="386.82" y="-203.9" width="5.55" height="540.5" transform="translate(282.92 446.89) rotate(-84.01)"/><rect class="g" x="255.89" y="5.64" width="5.55" height="540.5" transform="translate(-42.74 504.32) rotate(-84)"/><rect class="g" x="270.44" y="-17.64" width="5.55" height="540.49" transform="translate(-6.54 497.95) rotate(-84.01)"/><rect class="g" x="154.04" y="168.62" width="5.55" height="540.5" transform="translate(-296.03 549) rotate(-84)"/><rect class="g" x="328.62" y="-110.76" width="5.55" height="540.5" transform="translate(138.17 472.42) rotate(-84.01)"/><rect class="g" x="204.97" y="87.13" width="5.55" height="540.49" transform="translate(-169.38 526.65) rotate(-84)"/><rect class="g" x="379.55" y="-192.26" width="5.55" height="540.49" transform="translate(264.84 450.08) rotate(-84.01)"/><rect class="g" x="124.96" y="215.19" width="5.55" height="540.49" transform="translate(-368.38 561.77) rotate(-84.01)"/><rect class="g" x="299.53" y="-64.2" width="5.55" height="540.49" transform="translate(65.82 485.18) rotate(-84.01)"/><rect class="g" x="183.15" y="122.05" width="5.55" height="540.5" transform="translate(-223.65 536.23) rotate(-84.01)"/><rect class="g" x="357.72" y="-157.32" width="5.55" height="540.5" transform="translate(210.54 459.65) rotate(-84)"/><rect class="g" x="241.34" y="28.92" width="5.55" height="540.49" transform="translate(-78.91 510.7) rotate(-84)"/><rect class="g" x="415.91" y="-250.45" width="5.55" height="540.49" transform="translate(355.27 434.12) rotate(-84)"/></g><g class="l"><path class="g" d="M478.25,274.57c0,120.34-97.55,217.9-217.9,217.9S42.45,394.91,42.45,274.57,140.01,56.67,260.35,56.67s217.9,97.56,217.9,217.9m18.04,0c0-130.3-105.63-235.94-235.94-235.94S24.42,144.27,24.42,274.57s105.63,235.94,235.93,235.94,235.94-105.63,235.94-235.94"/><path class="h" d="M253.84,494.93c-25.59,0-51.58-4.49-76.93-13.96-55.13-20.62-98.93-61.46-123.33-115.01-24.41-53.56-26.5-113.41-5.88-168.54C90.25,83.63,217.46,25.68,331.25,68.18c113.8,42.55,171.76,169.75,129.22,283.56-33.08,88.46-117.31,143.19-206.62,143.19Zm.48-435.16c-87.09,0-169.19,53.35-201.45,139.6-20.09,53.73-18.06,112.08,5.74,164.29,23.79,52.21,66.49,92.03,120.23,112.12,110.94,41.49,234.94-15.03,276.43-125.98,41.47-110.94-15.04-234.94-125.97-276.42-24.7-9.23-50.05-13.61-74.98-13.61Z"/></g><path class="h" d="M254.08,495c-1.53,0-2.77-1.24-2.77-2.77v-31.06c0-1.53,1.24-2.77,2.77-2.77s2.77,1.24,2.77,2.77v31.06c0,1.53-1.24,2.77-2.77,2.77Z"/><path class="h" d="M254.08,92.15c-1.53,0-2.77-1.24-2.77-2.77v-31.06c0-1.53,1.24-2.77,2.77-2.77s2.77,1.24,2.77,2.77v31.06c0,1.53-1.24,2.77-2.77,2.77Z"/><path class="h" d="M471.74,277.09h-31.06c-1.53,0-2.77-1.24-2.77-2.77s1.24-2.77,2.77-2.77h31.06c1.53,0,2.77,1.24,2.77,2.77s-1.24,2.77-2.77,2.77Z"/><path class="h" d="M67.49,277.27h-31.07c-1.53,0-2.77-1.24-2.77-2.77s1.24-2.77,2.77-2.77h31.07c1.53,0,2.77,1.24,2.77,2.77s-1.24,2.77-2.77,2.77Z"/><path class="h" d="M441.57,387.65c-.47,0-.95-.12-1.38-.37l-26.67-15.43c-1.32-.77-1.78-2.46-1.01-3.79,.76-1.32,2.46-1.78,3.79-1.01l26.67,15.43c1.32,.77,1.78,2.46,1.01,3.79-.51,.88-1.44,1.38-2.4,1.38Z"/><path class="h" d="M93.57,187.69c-.47,0-.95-.12-1.38-.37l-26.67-15.43c-1.32-.77-1.78-2.46-1.01-3.79,.77-1.32,2.46-1.78,3.79-1.01l26.67,15.43c1.32,.77,1.78,2.46,1.01,3.79-.51,.88-1.44,1.38-2.4,1.38Z"/><path class="h" d="M348.94,116.52c-.47,0-.95-.12-1.38-.37-1.33-.77-1.78-2.46-1.01-3.79l15.45-26.68c.77-1.32,2.46-1.77,3.79-1.01,1.33,.77,1.78,2.46,1.01,3.79l-15.45,26.68c-.51,.88-1.45,1.38-2.4,1.38Z"/><path class="h" d="M64.21,383.53c-.98,0-1.93-.51-2.43-1.43-.73-1.34-.24-3.03,1.1-3.76l27.03-14.84c1.35-.75,3.02-.25,3.76,1.09,.73,1.34,.24,3.03-1.1,3.76l-27.03,14.84c-.42,.23-.88,.34-1.33,.34Z"/><path class="h" d="M416.94,185.99c-.98,0-1.93-.51-2.43-1.43-.73-1.34-.24-3.03,1.1-3.76l27.02-14.83c1.35-.75,3.03-.25,3.76,1.09s.24,3.03-1.1,3.76l-27.02,14.83c-.42,.23-.88,.34-1.33,.34Z"/><path class="h" d="M162.73,114.49c-.98,0-1.93-.51-2.43-1.43l-14.83-27.02c-.73-1.34-.24-3.03,1.1-3.76,1.34-.74,3.02-.25,3.76,1.09l14.83,27.02c.73,1.34,.24,3.03-1.1,3.76-.42,.23-.88,.34-1.33,.34Z"/><path class="h" d="M360.27,467.22c-.98,0-1.93-.51-2.43-1.43l-14.83-27.01-90.48-159.15-106.35,183.84c-.77,1.32-2.46,1.78-3.79,1.01-1.32-.77-1.78-2.46-1.01-3.79l111.2-192.21,95.27,167.59,14.86,27.05c.73,1.34,.24,3.03-1.1,3.76-.42,.23-.88,.34-1.33,.34Z"/><g class="k"><path class="h" d="M254.08,511.99c-131.44,0-238.37-106.93-238.37-238.37S122.64,35.26,254.08,35.26s238.37,106.93,238.37,238.37-106.93,238.37-238.37,238.37Zm0-471.2c-128.38,0-232.84,104.45-232.84,232.83s104.45,232.83,232.84,232.83,232.84-104.45,232.84-232.83S382.46,40.8,254.08,40.8Z"/></g><rect class="h" x="226.72" y="28.27" width="54.71" height="11.79"/><rect class="h" x="216.53" y="1.14" width="75.11" height="28.28"/><path class="h" d="M291.64,30.59h-75.1c-.64,0-1.15-.51-1.15-1.15V1.17c0-.64,.52-1.15,1.15-1.15h75.1c.64,0,1.15,.51,1.15,1.15V29.44c0,.64-.52,1.15-1.15,1.15Zm-73.95-2.31h72.8V2.32h-72.8V28.28Z"/></g></svg>