<?xml version="1.0" encoding="UTF-8"?><svg id="a" xmlns="http://www.w3.org/2000/svg" xmlns:xlink="http://www.w3.org/1999/xlink" viewBox="0 0 512 512"><defs><style>.h{fill:none;}.i{fill:#fff;}.j{fill:#df8000;}.k{fill:#2b2961;}.l{clip-path:url(#c);}.m{clip-path:url(#b);}.n{clip-path:url(#f);}.o{clip-path:url(#e);}.p{clip-path:url(#d);}.q{clip-path:url(#g);}</style><clipPath id="b"><rect class="h" y="12.38" width="512" height="487.24"/></clipPath><clipPath id="c"><rect class="h" y="12.38" width="512" height="487.24"/></clipPath><clipPath id="d"><rect class="h" y="12.38" width="512" height="487.24"/></clipPath><clipPath id="e"><rect class="h" y="12.38" width="512" height="487.24"/></clipPath><clipPath id="f"><rect class="h" y="12.38" width="512" height="487.24"/></clipPath><clipPath id="g"><rect class="h" y="12.38" width="512" height="487.24"/></clipPath></defs><rect class="j" x="8.02" y="300.83" width="190.01" height="190.02"/><g class="m"><path class="k" d="M190.71,499.61H4.47C2,499.61,0,497.62,0,495.14v-186.99c0-2.47,2-4.47,4.47-4.47H190.71c2.47,0,4.47,1.99,4.47,4.47v186.99c0,2.47-2,4.47-4.47,4.47Zm-181.76-8.94H186.23v-178.06H8.95v178.06Z"/><path class="k" d="M192.87,499.21c-1.15,0-2.3-.44-3.17-1.32-1.74-1.75-1.73-4.59,.03-6.32l68.29-67.74-.06-178.73-184.93-.23L7.64,310.32c-1.74,1.75-4.58,1.75-6.32,0-1.75-1.75-1.75-4.57,0-6.32l66.7-66.76c.84-.84,1.98-1.31,3.16-1.31h0l191.26,.23c2.46,0,4.47,1.99,4.47,4.47l.06,185.06c0,1.19-.48,2.33-1.32,3.17l-69.62,69.05c-.87,.87-2.01,1.3-3.15,1.3Z"/></g><path class="k" d="M194.32,309.91c-1.18,0-2.37-.47-3.25-1.4-1.7-1.79-1.62-4.61,.17-6.32l67.11-63.59c1.78-1.69,4.62-1.62,6.32,.17,1.7,1.79,1.62,4.61-.17,6.32l-67.11,63.59c-.86,.82-1.97,1.22-3.08,1.22Z"/><g class="l"><path class="i" d="M72.11,438.31c2.83,9.14,11.08,17.81,26.4,17.81s27.38-11.39,27.38-27.8c0-13.98-8.5-21.97-14.89-24.54v-.28c6.25-3.41,12.89-10.41,12.89-21.82,0-14.83-10.05-25.37-25.8-25.37-14.06,0-22.44,8.39-24.98,17.25-.15,.42-.28,1.13-.28,1.71,0,2.13,1.42,3.41,3.68,3.41,1.7,0,2.85-1.13,3.7-3.41,3.12-7.42,8.51-11.57,17.74-11.57,11.36,0,18.31,7.42,18.31,18.13s-7.51,18.69-18.44,18.69h-2.13c-2.56,0-3.98,1.57-3.98,3.7s1.42,3.7,3.98,3.7h2.13c12.34,0,20.44,8.56,20.44,20.69s-7.53,20.12-19.74,20.12c-10.36,0-15.89-4.71-19.3-12.13-1-2.28-1.98-3.43-3.68-3.43-2.28,0-3.7,1.3-3.7,3.43,0,.57,.13,1.28,.28,1.71"/><path class="k" d="M96.41,454.69c-13.48,0-23.7-7.18-27.33-19.2-.19-.63-.4-1.62-.4-2.53,0-3.7,2.63-6.27,6.41-6.27,4.03,0,5.58,3.73,6.17,5.12,3.04,6.86,7.58,9.81,15.15,9.81,9.29,0,15.3-6.41,15.3-16.33s-6.42-16.89-15.97-16.89h-1.97c-3.86,0-6.66-2.75-6.66-6.54s2.8-6.55,6.66-6.55h1.97c8.45,0,14.13-6.01,14.13-14.97s-5.36-14.41-14-14.41c-6.87,0-11.09,2.84-13.68,9.23-1.22,3.39-3.31,5.17-6.18,5.17-3.77,0-6.41-2.59-6.41-6.29,0-.82,.17-1.83,.43-2.59,2.36-8.49,10.63-18.59,25.97-18.59s26.91,11.25,26.91,27.35c0,10.7-5.22,17.27-9.56,20.86,6.16,4.43,11.41,12.75,11.41,23.93,0,17.47-11.66,29.68-28.35,29.68Zm-21.5-22.13c-.26,.55-.2,.95-.13,1.15v.03c1.36,4.5,6.19,14.98,21.63,14.98,13.18,0,22.39-9.75,22.39-23.71,0-12.51-7.52-18.97-11.96-20.82l-1.84-.76v-3.73l1.51-1.12c3.14-1.78,10.45-7.13,10.45-18.37,0-13-8.22-21.39-20.95-21.39-11.99,0-18.34,7.42-20.28,14.38l-.16,.83c.33,.35,.65,.12,1.06-1,3.58-8.84,9.86-13.07,19.25-13.07,11.94,0,19.96,8.2,19.96,20.38s-8.26,20.93-20.09,20.93h-1.97c-.7,0-.7,.16-.7,.58s0,.57,.7,.57h1.97c12.91,0,21.93,9.4,21.93,22.86s-8.54,22.3-21.26,22.3c-9.88,0-16.63-4.4-20.63-13.42-.55-1.31-.84-1.57-.87-1.6Z"/></g><polygon class="i" points="247.61 305.75 438.75 496.09 509.41 426.04 509.32 238.24 315.29 238 247.61 305.75"/><polygon class="i" points="249.49 306.65 437.9 494.23 507.53 425.18 507.44 240.12 316.22 239.9 249.49 306.65"/><g class="p"><path class="k" d="M437.89,498.7c-1.15,0-2.3-.44-3.18-1.32-1.74-1.75-1.73-4.59,.03-6.32l68.31-67.74-.07-178.74-184.92-.22-65.4,65.45c-1.74,1.75-4.57,1.75-6.33,0-1.75-1.75-1.75-4.57,0-6.32l66.71-66.76c.84-.84,1.98-1.31,3.16-1.31h0l191.24,.22c2.47,0,4.47,1.99,4.47,4.47l.08,185.07c0,1.19-.48,2.33-1.32,3.17l-69.63,69.05c-.87,.87-2.01,1.3-3.15,1.3Z"/></g><rect class="i" x="247.61" y="305.75" width="190.01" height="190.77"/><polygon class="j" points="504.37 239.66 442.83 299.58 261.67 298.81 322.13 238.35 505.25 238.5 505.25 239.66 504.37 239.66"/><g class="o"><path class="k" d="M435.72,499.09H249.49c-2.47,0-4.47-1.99-4.47-4.47v-186.99c0-2.47,2-4.47,4.47-4.47h186.23c2.47,0,4.47,1.99,4.47,4.47v186.99c0,2.47-2,4.47-4.47,4.47Zm-181.76-8.94h177.29v-178.06H253.96v178.06Z"/><path class="k" d="M437.89,498.7c-1.15,0-2.3-.44-3.18-1.32-1.74-1.75-1.73-4.59,.03-6.32l68.31-67.74-.07-178.74-184.92-.22-65.4,65.45c-1.74,1.75-4.57,1.75-6.33,0-1.75-1.75-1.75-4.57,0-6.32l66.71-66.76c.84-.84,1.98-1.31,3.16-1.31h0l191.24,.22c2.47,0,4.47,1.99,4.47,4.47l.08,185.07c0,1.19-.48,2.33-1.32,3.17l-69.63,69.05c-.87,.87-2.01,1.3-3.15,1.3Z"/><path class="k" d="M439.34,309.39c-1.18,0-2.37-.47-3.25-1.4-1.7-1.79-1.62-4.61,.17-6.32l67.11-63.57c1.79-1.69,4.62-1.63,6.32,.17,1.7,1.79,1.62,4.61-.17,6.32l-67.11,63.57c-.87,.82-1.97,1.22-3.08,1.22Z"/><path class="j" d="M343.8,455.31c0,2.95,1.4,4.52,3.43,4.52,1.91,0,3.43-1.57,3.43-4.52v-98.16c0-2.97-1.52-4.37-3.43-4.37-1.27,0-2.28,.63-4.96,2.97l-14.76,12.91c-1.4,1.24-1.91,2.49-1.91,3.89,0,2.18,1.39,3.58,2.92,3.58,.89,0,1.65-.31,2.3-.78l12.73-10.58h.25v90.55Z"/><path class="k" d="M342.51,457.03c-2.91,0-5.84-2.27-5.84-7.34v-80.55l-5.79,5.56c-4.02,3.36-9.41,.39-9.41-4.86,0-2.23,.8-4.13,2.44-5.82l12.35-12.48c2.3-2.33,3.87-3.74,6.26-3.74,2.91,0,5.84,2.23,5.84,7.19v94.7c0,5.04-3.03,7.34-5.84,7.34Zm-.26-103.2c-.08,.29-.67,.8-1.77,1.91l-12.33,12.46c-.57,.58-.71,1.03-.73,1.54l10.81-10.38h4.16v-4.37c0-.57-.07-.95-.14-1.16Z"/></g><rect class="i" x="122.25" y="84.59" width="186.23" height="187.01"/><path class="k" d="M308.49,276.06H122.25c-2.47,0-4.47-1.99-4.47-4.47V84.59c0-2.47,2-4.47,4.47-4.47h186.24c2.47,0,4.47,1.99,4.47,4.47v187.01c0,2.47-2,4.47-4.47,4.47Zm-181.76-8.94h177.29V89.06H126.72v178.07Z"/><polygon class="i" points="122.25 83.62 310.66 271.19 380.28 202.14 380.2 17.09 188.96 16.85 122.25 83.62"/><g class="n"><path class="k" d="M310.65,275.66c-1.15,0-2.3-.44-3.17-1.32-1.74-1.75-1.73-4.59,.03-6.32l68.3-67.75-.07-178.71-184.93-.23L125.42,86.77c-1.74,1.76-4.57,1.76-6.32,0-1.75-1.75-1.75-4.57,0-6.32L185.79,13.69c.84-.84,1.98-1.31,3.16-1.31h0l191.25,.23c2.47,0,4.47,1.99,4.47,4.47l.08,185.04c0,1.19-.48,2.33-1.32,3.17l-69.63,69.06c-.87,.87-2.01,1.3-3.15,1.3Z"/><path class="k" d="M312.11,86.36c-1.18,0-2.37-.47-3.25-1.4-1.7-1.79-1.62-4.61,.17-6.32L376.15,15.06c1.79-1.67,4.61-1.63,6.32,.17,1.7,1.79,1.62,4.61-.17,6.32l-67.11,63.59c-.86,.82-1.97,1.22-3.08,1.22Z"/></g><polygon class="j" points="380.61 17.89 315.6 80.89 315.6 258.8 316.63 258.8 381.56 193.03 381.49 17.89 380.61 17.89"/><path class="k" d="M308.49,276.06H122.25c-2.47,0-4.47-1.99-4.47-4.47V84.59c0-2.47,2-4.47,4.47-4.47h186.24c2.47,0,4.47,1.99,4.47,4.47v187.01c0,2.47-2,4.47-4.47,4.47Zm-181.76-8.94h177.29V89.06H126.72v178.07Z"/><g class="q"><path class="k" d="M310.65,275.66c-1.15,0-2.3-.44-3.17-1.32-1.74-1.75-1.73-4.59,.03-6.32l68.3-67.75-.07-178.71-184.93-.23L125.42,86.77c-1.74,1.76-4.57,1.76-6.32,0-1.75-1.75-1.75-4.57,0-6.32L185.79,13.69c.84-.84,1.98-1.31,3.16-1.31h0l191.25,.23c2.47,0,4.47,1.99,4.47,4.47l.08,185.04c0,1.19-.48,2.33-1.32,3.17l-69.63,69.06c-.87,.87-2.01,1.3-3.15,1.3Z"/><path class="k" d="M312.11,86.36c-1.18,0-2.37-.47-3.25-1.4-1.7-1.79-1.62-4.61,.17-6.32L376.15,15.06c1.79-1.67,4.61-1.63,6.32,.17,1.7,1.79,1.62,4.61-.17,6.32l-67.11,63.59c-.86,.82-1.97,1.22-3.08,1.22Z"/><path class="j" d="M191.24,207.74h32.44c.52,0,.79,.27,.79,.79v13.73c0,2.47,1.43,3.79,3.5,3.79s3.52-1.31,3.52-3.79v-13.73c0-.52,.25-.79,.78-.79h7.95c2.36,0,3.65-1.43,3.65-3.38s-1.3-3.4-3.65-3.4h-7.95c-.52,0-.78-.27-.78-.79v-22.35c0-2.49-1.43-3.8-3.52-3.8s-3.5,1.31-3.5,3.8v22.35c0,.52-.27,.79-.79,.79h-27.35v-.27l26.97-59.61c.27-.66,.39-1.31,.39-1.83,0-1.95-1.43-3.13-3.25-3.13-1.31,0-2.47,.78-3.26,2.61l-27.88,61.06c-1.31,2.74-1.43,3.53-1.43,4.83,0,1.7,1.16,3.13,3.38,3.13"/><path class="k" d="M225.13,224.73c-3.67,0-6.23-2.72-6.23-6.61v-10.86h-27.8c-3.55,0-6.13-2.52-6.13-5.97,0-1.88,.33-3.09,1.62-5.85l25.8-58.22c1.6-3.86,4.56-4.28,5.75-4.28,3.42,0,5.99,2.58,5.99,5.98,0,.86-.19,1.85-.55,2.78l-23.31,53.11h18.63v-19.09c0-3.89,2.56-6.61,6.23-6.61s6.23,2.72,6.23,6.61v19.09h5.1c3.69,0,6.37,2.62,6.37,6.23s-2.67,6.22-6.37,6.22h-5.1v10.86c0,3.89-2.56,6.61-6.23,6.61Zm-7.01-85.61s-.14,.19-.25,.47l-25.85,58.32c-1.09,2.34-1.09,2.69-1.09,3.39h30.22c2.12,0,3.71,1.6,3.71,3.73v13.1l.5,.61,.04-13.7c0-2.17,1.55-3.74,3.69-3.74h7.37l-7.37-.51c-2.14,0-3.69-1.57-3.69-3.73v-21.33l-.51-.61-.03,21.94c0,2.13-1.59,3.73-3.71,3.73h-28.32l.25-4.43,24.98-56.89c.08-.25,.09-.35,.06-.35Z"/></g></svg>