<?xml version="1.0" encoding="UTF-8"?><svg id="a" xmlns="http://www.w3.org/2000/svg" xmlns:xlink="http://www.w3.org/1999/xlink" viewBox="0 0 512 512"><defs><style>.g{fill:none;}.h{fill:#df8000;}.i{fill:#2b2961;}.j{clip-path:url(#c);}.k{clip-path:url(#b);}.l{clip-path:url(#f);}.m{clip-path:url(#e);}.n{clip-path:url(#d);}</style><clipPath id="b"><polygon class="g" points="-397.78 67.31 -478.9 130.12 -528.63 240.03 -495.91 395.72 -419.96 472.97 -393.54 426.28 -307.22 273.68 -306.2 51.61 -397.78 67.31"/></clipPath><clipPath id="c"><polygon class="g" points="260.39 56.84 185.82 62.07 129.54 92.17 99.45 111.81 79.82 128.81 35.35 209.13 32.73 310.68 64.13 395.72 140.09 472.97 166.5 426.28 252.82 273.68 444.88 168.06 416.08 130.12 370.29 89.55 315.73 51.54 260.39 56.84"/></clipPath><clipPath id="d"><rect class="g" x="15.71" width="480.58" height="512"/></clipPath><clipPath id="e"><rect class="g" x="15.71" width="480.58" height="512"/></clipPath><clipPath id="f"><polygon class="g" points="721.42 65.09 651.39 115.43 597.86 196.16 586.49 303.22 622.57 393.65 697.74 468.4 726.16 422.9 812.58 275.34 919.49 466.57 952.57 442.83 986.6 408.8 1014.06 364.33 1031.08 300.22 1028.46 234.78 1015.37 189 993.13 148.44 964.35 117.04 932.95 92.18 904.16 75.17 795.62 45.1 721.42 65.09"/></clipPath></defs><g class="k"><rect class="h" x="-249.45" y="-102.4" width="5.55" height="540.5" transform="translate(-399.18 -88.6) rotate(-86.51)"/><rect class="h" x="-202.14" y="-186.02" width="5.55" height="540.5" transform="translate(-271.29 -119.9) rotate(-86.51)"/><rect class="h" x="-235.95" y="-126.27" width="5.55" height="540.5" transform="translate(-362.67 -97.54) rotate(-86.51)"/><rect class="h" x="-181.87" y="-221.86" width="5.55" height="540.49" transform="translate(-216.48 -133.33) rotate(-86.51)"/><rect class="h" x="-229.18" y="-138.23" width="5.55" height="540.5" transform="translate(-344.38 -102.01) rotate(-86.51)"/><rect class="h" x="-175.11" y="-233.81" width="5.55" height="540.5" transform="translate(-198.22 -137.8) rotate(-86.51)"/><rect class="h" x="-222.42" y="-150.18" width="5.55" height="540.5" transform="translate(-326.11 -106.49) rotate(-86.51)"/><rect class="h" x="-168.34" y="-245.76" width="5.55" height="540.5" transform="translate(-179.92 -142.27) rotate(-86.51)"/><rect class="h" x="-262.98" y="-78.52" width="5.55" height="540.5" transform="translate(-435.72 -79.67) rotate(-86.51)"/><rect class="h" x="-208.89" y="-174.07" width="5.55" height="540.49" transform="translate(-289.56 -115.42) rotate(-86.51)"/><rect class="h" x="-256.21" y="-90.45" width="5.55" height="540.5" transform="translate(-417.46 -84.13) rotate(-86.51)"/><rect class="h" x="-188.63" y="-209.92" width="5.55" height="540.5" transform="translate(-234.74 -128.86) rotate(-86.51)"/><rect class="h" x="-242.7" y="-114.33" width="5.55" height="540.5" transform="translate(-380.93 -93.07) rotate(-86.51)"/><rect class="h" x="-195.38" y="-197.97" width="5.55" height="540.5" transform="translate(-253.02 -124.38) rotate(-86.51)"/><rect class="h" x="-269.74" y="-66.55" width="5.55" height="540.49" transform="translate(-454.01 -75.19) rotate(-86.51)"/><rect class="h" x="-215.67" y="-162.12" width="5.55" height="540.5" transform="translate(-307.86 -110.96) rotate(-86.51)"/></g><g><g class="j"><rect class="h" x="256.51" y="-6.82" width="5.55" height="540.5" transform="translate(-19.46 506.18) rotate(-86.51)"/><rect class="h" x="148.36" y="184.35" width="5.55" height="540.5" transform="translate(-311.83 577.74) rotate(-86.51)"/><rect class="h" x="310.58" y="-102.39" width="5.55" height="540.5" transform="translate(126.72 470.4) rotate(-86.51)"/><rect class="h" x="195.67" y="100.71" width="5.55" height="540.5" transform="translate(-183.93 546.42) rotate(-86.51)"/><rect class="h" x="357.9" y="-186.02" width="5.55" height="540.5" transform="translate(254.62 439.1) rotate(-86.51)"/><rect class="h" x="270.03" y="-30.71" width="5.55" height="540.49" transform="translate(17.09 497.23) rotate(-86.51)"/><rect class="h" x="161.88" y="160.44" width="5.55" height="540.5" transform="translate(-275.27 568.78) rotate(-86.51)"/><rect class="h" x="324.09" y="-126.27" width="5.55" height="540.5" transform="translate(163.24 461.46) rotate(-86.51)"/><rect class="h" x="215.95" y="64.87" width="5.55" height="540.5" transform="translate(-129.1 533.01) rotate(-86.51)"/><rect class="h" x="378.18" y="-221.86" width="5.55" height="540.49" transform="translate(309.44 425.68) rotate(-86.51)"/><rect class="h" x="276.78" y="-42.65" width="5.55" height="540.5" transform="translate(35.34 492.76) rotate(-86.5)"/><rect class="h" x="168.65" y="148.48" width="5.55" height="540.5" transform="translate(-256.98 564.32) rotate(-86.51)"/><rect class="h" x="330.87" y="-138.23" width="5.55" height="540.5" transform="translate(181.53 456.98) rotate(-86.5)"/><rect class="h" x="222.71" y="52.93" width="5.55" height="540.5" transform="translate(-110.84 528.54) rotate(-86.5)"/><rect class="h" x="384.93" y="-233.81" width="5.55" height="540.5" transform="translate(327.7 421.2) rotate(-86.51)"/><rect class="h" x="121.32" y="232.13" width="5.55" height="540.5" transform="translate(-384.91 595.62) rotate(-86.51)"/><rect class="h" x="283.54" y="-54.59" width="5.55" height="540.5" transform="translate(53.6 488.29) rotate(-86.51)"/><rect class="h" x="175.41" y="136.54" width="5.55" height="540.5" transform="translate(-238.71 559.85) rotate(-86.51)"/><rect class="h" x="337.62" y="-150.17" width="5.55" height="540.5" transform="translate(199.79 452.51) rotate(-86.51)"/><rect class="h" x="229.47" y="40.96" width="5.55" height="540.5" transform="translate(-92.54 524.06) rotate(-86.51)"/><rect class="h" x="391.7" y="-245.76" width="5.55" height="540.5" transform="translate(345.99 416.73) rotate(-86.51)"/><rect class="h" x="134.85" y="208.23" width="5.55" height="540.5" transform="translate(-348.35 586.68) rotate(-86.51)"/><rect class="h" x="297.07" y="-78.51" width="5.55" height="540.5" transform="translate(90.19 479.33) rotate(-86.51)"/><rect class="h" x="188.91" y="112.66" width="5.55" height="540.5" transform="translate(-202.19 550.9) rotate(-86.51)"/><rect class="h" x="351.14" y="-174.07" width="5.55" height="540.5" transform="translate(236.35 443.57) rotate(-86.51)"/><rect class="h" x="243" y="17.07" width="5.55" height="540.5" transform="translate(-56 515.12) rotate(-86.51)"/><rect class="h" x="141.6" y="196.28" width="5.55" height="540.5" transform="translate(-330.09 582.21) rotate(-86.51)"/><rect class="h" x="303.83" y="-90.46" width="5.55" height="540.5" transform="translate(108.45 474.86) rotate(-86.5)"/><rect class="h" x="209.19" y="76.82" width="5.55" height="540.5" transform="translate(-147.37 537.48) rotate(-86.51)"/><rect class="h" x="371.42" y="-209.92" width="5.55" height="540.5" transform="translate(291.17 430.16) rotate(-86.51)"/><rect class="h" x="249.75" y="5.13" width="5.55" height="540.5" transform="translate(-37.74 510.64) rotate(-86.5)"/><rect class="h" x="263.28" y="-18.77" width="5.55" height="540.5" transform="translate(-1.17 501.71) rotate(-86.51)"/><rect class="h" x="155.12" y="172.4" width="5.55" height="540.5" transform="translate(-293.56 573.27) rotate(-86.51)"/><rect class="h" x="317.33" y="-114.33" width="5.55" height="540.5" transform="translate(144.97 465.93) rotate(-86.51)"/><rect class="h" x="202.43" y="88.76" width="5.55" height="540.49" transform="translate(-165.64 541.95) rotate(-86.51)"/><rect class="h" x="364.66" y="-197.97" width="5.55" height="540.5" transform="translate(272.9 434.62) rotate(-86.51)"/><rect class="h" x="128.08" y="220.18" width="5.55" height="540.5" transform="translate(-366.64 591.15) rotate(-86.51)"/><rect class="h" x="290.31" y="-66.55" width="5.55" height="540.49" transform="translate(71.9 483.82) rotate(-86.51)"/><rect class="h" x="182.16" y="124.6" width="5.55" height="540.49" transform="translate(-220.45 555.37) rotate(-86.51)"/><rect class="h" x="344.38" y="-162.12" width="5.55" height="540.5" transform="translate(218.07 448.04) rotate(-86.51)"/><rect class="h" x="236.23" y="29.02" width="5.55" height="540.5" transform="translate(-74.27 519.59) rotate(-86.51)"/></g><g class="n"><path class="h" d="M478.25,274.57c0,120.34-97.55,217.9-217.9,217.9S42.45,394.91,42.45,274.57,140.01,56.67,260.35,56.67s217.9,97.56,217.9,217.9m18.04,0c0-130.29-105.63-235.94-235.94-235.94S24.42,144.28,24.42,274.57s105.63,235.94,235.93,235.94,235.94-105.63,235.94-235.94"/><path class="i" d="M254.08,494.91c-121.49,0-220.33-98.84-220.33-220.34S132.59,54.23,254.08,54.23s220.34,98.85,220.34,220.35-98.84,220.34-220.34,220.34Zm0-435.15c-118.44,0-214.79,96.36-214.79,214.81s96.36,214.8,214.79,214.8,214.8-96.36,214.8-214.8S372.52,59.76,254.08,59.76Z"/></g><path class="i" d="M471.74,277.09h-31.06c-1.53,0-2.77-1.24-2.77-2.77s1.24-2.77,2.77-2.77h31.06c1.53,0,2.77,1.24,2.77,2.77s-1.24,2.77-2.77,2.77Z"/><path class="i" d="M67.49,277.27h-31.06c-1.53,0-2.77-1.24-2.77-2.77s1.24-2.77,2.77-2.77h31.06c1.53,0,2.77,1.24,2.77,2.77s-1.24,2.77-2.77,2.77Z"/><path class="i" d="M93.26,182.47c-.47,0-.95-.12-1.39-.37l-26.67-15.43c-1.33-.77-1.78-2.46-1.01-3.79,.77-1.32,2.47-1.78,3.78-1.01l26.67,15.43c1.32,.77,1.77,2.46,1.01,3.79-.51,.88-1.44,1.38-2.4,1.38Z"/><path class="i" d="M143.93,462.6c-.48,0-.97-.13-1.41-.39-1.31-.78-1.75-2.48-.97-3.8l110.54-186.43,.66-.36,188.15-104.67c1.34-.75,3.02-.26,3.77,1.07,.74,1.33,.26,3.02-1.08,3.76l-187.5,104.31-109.78,185.15c-.52,.87-1.44,1.35-2.38,1.35Z"/><path class="i" d="M64.22,383.53c-.98,0-1.92-.51-2.43-1.43-.74-1.34-.25-3.02,1.09-3.76l27.01-14.85c1.34-.75,3.02-.25,3.76,1.09,.74,1.34,.25,3.02-1.09,3.76l-27.01,14.85c-.42,.23-.88,.34-1.33,.34Z"/><path class="i" d="M416.93,186c-.98,0-1.92-.51-2.43-1.43-.74-1.34-.25-3.02,1.09-3.76l27.01-14.85c1.34-.75,3.02-.25,3.76,1.09s.25,3.02-1.09,3.76l-27.01,14.85c-.42,.23-.88,.34-1.33,.34Z"/><g class="m"><path class="i" d="M254.08,512c-131.44,0-238.37-106.93-238.37-238.37S122.64,35.27,254.08,35.27s238.37,106.93,238.37,238.37-106.93,238.37-238.37,238.37Zm0-471.2c-128.39,0-232.83,104.45-232.83,232.83s104.45,232.83,232.83,232.83,232.83-104.45,232.83-232.83S382.47,40.8,254.08,40.8Z"/></g><path class="i" d="M254.08,495.01c-1.53,0-2.77-1.24-2.77-2.77v-31.07c0-1.53,1.24-2.77,2.77-2.77s2.77,1.24,2.77,2.77v31.07c0,1.53-1.24,2.77-2.77,2.77Z"/><path class="i" d="M254.08,92.15c-1.53,0-2.77-1.24-2.77-2.77v-31.07c0-1.53,1.24-2.77,2.77-2.77s2.77,1.24,2.77,2.77v31.07c0,1.53-1.24,2.77-2.77,2.77Z"/><path class="i" d="M348.95,116.52c-.47,0-.95-.12-1.39-.37-1.32-.77-1.77-2.46-1.01-3.79l15.44-26.67c.77-1.32,2.46-1.78,3.78-1.01,1.32,.77,1.77,2.46,1.01,3.79l-15.44,26.67c-.51,.88-1.44,1.38-2.4,1.38Z"/><path class="i" d="M159.49,116.88c-.98,0-1.92-.51-2.43-1.43l-14.84-27.01c-.74-1.34-.25-3.03,1.09-3.76,1.34-.75,3.02-.25,3.76,1.09l14.84,27.01c.74,1.34,.25,3.03-1.09,3.76-.42,.23-.88,.34-1.33,.34Z"/><path class="i" d="M360.27,467.21c-.98,0-1.92-.51-2.43-1.43l-14.84-27.01c-.74-1.34-.25-3.03,1.09-3.76,1.34-.75,3.03-.25,3.76,1.09l14.84,27.01c.74,1.34,.25,3.03-1.09,3.76-.42,.23-.88,.34-1.33,.34Z"/><rect class="i" x="226.72" y="28.28" width="54.71" height="11.79"/><rect class="i" x="216.53" y="1.16" width="75.11" height="28.28"/><path class="i" d="M291.64,30.6h-75.11c-.64,0-1.15-.51-1.15-1.15V1.17c0-.64,.52-1.15,1.15-1.15h75.11c.64,0,1.15,.51,1.15,1.15V29.45c0,.64-.52,1.15-1.15,1.15Zm-73.95-2.31h72.8V2.33h-72.8V28.29Z"/><path class="i" d="M440.29,387.13c-.47,0-.95-.12-1.39-.37l-26.67-15.43c-1.33-.77-1.78-2.46-1.01-3.79,.76-1.32,2.47-1.78,3.78-1.01l26.67,15.43c1.32,.77,1.77,2.46,1.01,3.79-.51,.88-1.44,1.38-2.4,1.38Z"/></g><g class="l"><rect class="h" x="706.81" y="180.26" width="5.55" height="540.49" transform="translate(187.44 1109.16) rotate(-84.01)"/><rect class="h" x="757.73" y="98.77" width="5.55" height="540.5" transform="translate(314.07 1086.82) rotate(-84)"/><rect class="h" x="721.36" y="156.97" width="5.55" height="540.49" transform="translate(223.62 1102.77) rotate(-84)"/><rect class="h" x="670.44" y="238.45" width="5.55" height="540.5" transform="translate(96.98 1125.11) rotate(-84)"/><rect class="h" x="728.64" y="145.33" width="5.55" height="540.49" transform="translate(241.73 1099.59) rotate(-84.01)"/><rect class="h" x="677.71" y="226.82" width="5.55" height="540.5" transform="translate(115.07 1121.91) rotate(-84)"/><rect class="h" x="735.91" y="133.69" width="5.55" height="540.5" transform="translate(259.82 1096.4) rotate(-84.01)"/><rect class="h" x="692.27" y="203.53" width="5.55" height="540.49" transform="translate(151.27 1115.54) rotate(-84.01)"/><rect class="h" x="750.45" y="110.41" width="5.55" height="540.5" transform="translate(295.99 1090.02) rotate(-84.01)"/><rect class="h" x="699.54" y="191.9" width="5.55" height="540.5" transform="translate(169.34 1112.35) rotate(-84)"/><rect class="h" x="772.28" y="75.49" width="5.55" height="540.5" transform="translate(350.25 1080.44) rotate(-84)"/><rect class="h" x="714.08" y="168.62" width="5.55" height="540.5" transform="translate(205.51 1105.97) rotate(-84)"/><rect class="h" x="765" y="87.13" width="5.55" height="540.49" transform="translate(332.16 1083.62) rotate(-84)"/><rect class="h" x="684.99" y="215.19" width="5.55" height="540.49" transform="translate(133.16 1118.74) rotate(-84.01)"/><rect class="h" x="743.18" y="122.05" width="5.55" height="540.5" transform="translate(277.9 1093.2) rotate(-84.01)"/></g></svg>