<?xml version="1.0" encoding="UTF-8"?><svg id="a" xmlns="http://www.w3.org/2000/svg" xmlns:xlink="http://www.w3.org/1999/xlink" viewBox="0 0 462.67 512"><defs><style>.c{fill:none;}.d{fill:#fae2c8;}.e{fill:#df8000;}.f{fill:#2b2961;}.g{fill:#2c265f;}.h{clip-path:url(#b);}</style><clipPath id="b"><rect class="c" width="462.67" height="512"/></clipPath></defs><g><path class="g" d="M186.31,28.71v-8.69l-2.99,6.34h-1.46l-3.07-6.34v8.69h-1.97V15.71h1.97l3.8,8.09,3.72-8.09h1.97v13h-1.97Z"/><path class="g" d="M199.3,28.71l-.89-2.61h-5.13l-.89,2.61h-2.1l4.76-13h1.59l4.77,13h-2.1Zm-6.28-14.35v-1.98h1.68v1.98h-1.68Zm2.87,4.29l-2.03,5.77h4l-1.97-5.77Zm1.08-4.29v-1.98h1.68v1.98h-1.68Z"/><path class="g" d="M210.58,28.71l-2.74-5.48h-2.47v5.48h-1.97V15.71h5.04c2.46,0,4.03,1.59,4.03,3.8,0,1.86-1.13,3.05-2.59,3.45l2.99,5.75h-2.3Zm-2.28-11.23h-2.92v4.07h2.92c1.31,0,2.21-.75,2.21-2.03s-.89-2.05-2.21-2.05Z"/><path class="g" d="M214.7,28.71v-1.7l6.01-9.53h-5.75v-1.77h8.07v1.61l-6.04,9.62h6.04v1.77h-8.32Z"/></g><path class="e" d="M230.19,30.06h-1.79l5.2-15.7h1.79l-5.2,15.7Z"/><g><path class="e" d="M250.89,28.71v-8.69l-2.99,6.34h-1.46l-3.05-6.34v8.69h-1.97V15.71h1.95l3.8,8.09,3.74-8.09h1.97v13h-1.99Z"/><path class="e" d="M263.73,28.71l-.91-2.61h-5.13l-.91,2.61h-2.08l4.76-13h1.59l4.75,13h-2.06Zm-3.43-10.06l-2.04,5.77h4.03l-1.99-5.77Z"/><path class="e" d="M272.58,23.6h-2.96v5.11h-1.97V15.71h4.93c2.46,0,4.16,1.61,4.16,3.95s-1.7,3.94-4.16,3.94Zm-.13-6.11h-2.83v4.34h2.83c1.42,0,2.32-.84,2.32-2.17s-.89-2.17-2.32-2.17Z"/><path class="e" d="M283.53,17.48v11.23h-1.97v-11.23h-3.58v-1.77h9.13v1.77h-3.58Z"/></g><rect class="e" x="3.8" y="44.72" width="62.45" height="24.65"/><rect class="e" x="3.8" y="138.2" width="62.45" height="24.34"/><rect class="e" x="3.8" y="230.55" width="62.45" height="24.88"/><rect class="e" x="3.8" y="416.7" width="62.45" height="25"/><rect class="e" x="3.8" y="324.04" width="62.45" height="24.55"/><rect class="e" x="69.62" y="44.72" width="62.45" height="24.65"/><rect class="e" x="69.62" y="138.2" width="62.45" height="24.34"/><rect class="e" x="69.62" y="230.55" width="62.45" height="24.88"/><rect class="e" x="69.62" y="416.7" width="62.45" height="25"/><rect class="e" x="69.62" y="324.04" width="62.45" height="24.55"/><rect class="e" x="135.43" y="44.72" width="62.45" height="24.65"/><rect class="e" x="135.43" y="138.2" width="62.45" height="24.34"/><rect class="e" x="135.43" y="230.55" width="62.45" height="24.88"/><rect class="e" x="135.43" y="416.7" width="62.45" height="25"/><rect class="e" x="135.43" y="324.04" width="62.45" height="24.55"/><rect class="e" x="201.25" y="44.72" width="62.45" height="24.65"/><rect class="e" x="201.25" y="138.2" width="62.45" height="24.34"/><rect class="e" x="201.25" y="230.55" width="62.45" height="24.88"/><rect class="e" x="201.25" y="416.7" width="62.45" height="25"/><rect class="e" x="201.25" y="324.04" width="62.45" height="24.55"/><rect class="e" x="267.48" y="44.72" width="62.45" height="24.65"/><rect class="e" x="267.48" y="138.2" width="62.45" height="24.34"/><rect class="e" x="267.48" y="230.55" width="62.45" height="24.88"/><rect class="e" x="267.48" y="416.7" width="62.45" height="25"/><rect class="e" x="267.48" y="324.04" width="62.45" height="24.55"/><rect class="e" x="332.89" y="44.72" width="62.45" height="24.65"/><rect class="e" x="332.89" y="138.2" width="62.45" height="24.34"/><rect class="e" x="332.89" y="230.55" width="62.45" height="24.88"/><rect class="e" x="332.89" y="416.7" width="62.45" height="25"/><rect class="e" x="332.89" y="324.04" width="62.45" height="24.55"/><rect class="e" x="399.08" y="44.72" width="62.46" height="24.65"/><rect class="e" x="399.08" y="138.2" width="62.46" height="24.34"/><rect class="e" x="399.08" y="230.55" width="62.46" height="24.88"/><rect class="e" x="399.08" y="416.7" width="62.46" height="25"/><rect class="e" x="399.08" y="324.04" width="62.46" height="24.55"/><g><path class="e" d="M288.58,114.3c-3.4,0-6.17-2.32-6.17-6.14v-9.52c0-3.82,2.77-6.14,6.17-6.14s6.2,2.32,6.2,6.14v9.52c0,3.82-2.8,6.14-6.2,6.14Zm3.13-15.57c0-2.08-1.17-3.49-3.13-3.49s-3.1,1.42-3.1,3.49v9.34c0,2.08,1.14,3.49,3.1,3.49s3.13-1.42,3.13-3.49v-9.34Z"/><path class="e" d="M298.51,114.11v-2.74l8.25-10.02c.81-.99,1.14-1.78,1.14-2.86,0-1.93-1.14-3.25-3.13-3.25-1.63,0-3.16,.91-3.16,3.31h-3.07c0-3.65,2.59-6.05,6.23-6.05s6.2,2.32,6.2,6.02c0,1.89-.69,3.01-2.02,4.64l-6.71,8.22h8.73v2.74h-12.47Z"/></g><g><path class="e" d="M288.58,207.07c-3.4,0-6.17-2.32-6.17-6.14v-9.52c0-3.82,2.77-6.14,6.17-6.14s6.2,2.32,6.2,6.14v9.52c0,3.82-2.8,6.14-6.2,6.14Zm3.13-15.57c0-2.08-1.17-3.49-3.13-3.49s-3.1,1.42-3.1,3.49v9.34c0,2.08,1.14,3.49,3.1,3.49s3.13-1.42,3.13-3.49v-9.34Z"/><path class="e" d="M309.38,196.95l-4.88,9.93h-3.28l4.61-9.21c-.57,.24-1.27,.33-1.93,.33-3.1,0-5.6-2.44-5.6-6.21s2.62-6.53,6.32-6.53,6.35,2.44,6.35,6.41c0,1.75-.66,3.4-1.6,5.27Zm-4.76-8.95c-1.93,0-3.25,1.45-3.25,3.73,0,2.11,1.2,3.71,3.25,3.71,1.93,0,3.28-1.38,3.28-3.71s-1.35-3.73-3.28-3.73Z"/></g><g><path class="e" d="M288.18,299.94v-18.1l-4.18,3.68v-3.4l4.18-3.61h3.07v21.44h-3.07Z"/><path class="e" d="M304.65,300.12c-3.7,0-6.35-2.44-6.35-6.41,0-1.75,.66-3.41,1.6-5.27l4.88-9.94h3.28l-4.61,9.21c.57-.24,1.23-.33,1.9-.33,3.1,0,5.63,2.44,5.63,6.2s-2.62,6.53-6.32,6.53Zm-.03-10.18c-1.93,0-3.25,1.38-3.25,3.71s1.32,3.73,3.25,3.73,3.28-1.45,3.28-3.73c0-2.11-1.23-3.71-3.28-3.71Z"/></g><g><path class="e" d="M282.46,393.04v-2.74l8.25-10.02c.81-.99,1.14-1.78,1.14-2.86,0-1.93-1.14-3.25-3.13-3.25-1.63,0-3.16,.91-3.16,3.31h-3.07c0-3.65,2.59-6.05,6.23-6.05s6.2,2.32,6.2,6.02c0,1.89-.69,3.01-2.02,4.64l-6.71,8.22h8.73v2.74h-12.47Z"/><path class="e" d="M304.44,393.26c-3.43,0-6.44-1.84-6.56-6.02h3.07c.12,2.29,1.72,3.25,3.49,3.25,1.99,0,3.49-1.3,3.49-3.55s-1.17-3.52-3.58-3.52h-.51v-2.68h.51c2.23,0,3.25-1.29,3.25-3.25,0-2.17-1.42-3.31-3.16-3.31-1.87,0-3.07,1.18-3.22,3.07h-3.07c.18-3.64,2.86-5.84,6.29-5.84,3.64,0,6.23,2.44,6.23,5.99,0,2.29-1.02,3.76-2.68,4.58,1.84,.81,3.01,2.41,3.01,5.06,0,4.13-2.98,6.24-6.56,6.24Z"/></g><g><path class="e" d="M354.4,114.27c-3.4,0-6.17-2.32-6.17-6.14v-9.52c0-3.82,2.77-6.14,6.17-6.14s6.2,2.32,6.2,6.14v9.52c0,3.82-2.8,6.14-6.2,6.14Zm3.13-15.57c0-2.08-1.17-3.49-3.13-3.49s-3.1,1.42-3.1,3.49v9.34c0,2.08,1.14,3.49,3.1,3.49s3.13-1.42,3.13-3.49v-9.34Z"/><path class="e" d="M370.27,114.3c-3.43,0-6.44-1.84-6.56-6.02h3.07c.12,2.29,1.72,3.25,3.49,3.25,1.99,0,3.49-1.3,3.49-3.55s-1.17-3.52-3.58-3.52h-.51v-2.68h.51c2.23,0,3.25-1.29,3.25-3.25,0-2.17-1.42-3.31-3.16-3.31-1.87,0-3.07,1.18-3.22,3.07h-3.07c.18-3.64,2.86-5.84,6.29-5.84,3.64,0,6.23,2.44,6.23,5.99,0,2.29-1.02,3.76-2.68,4.58,1.84,.81,3.01,2.41,3.01,5.06,0,4.13-2.98,6.24-6.56,6.24Z"/></g><g><path class="e" d="M354.01,206.86v-18.1l-4.18,3.68v-3.4l4.18-3.61h3.07v21.44h-3.07Z"/><path class="e" d="M370.45,207.04c-3.4,0-6.17-2.32-6.17-6.14v-9.52c0-3.82,2.77-6.14,6.17-6.14s6.2,2.32,6.2,6.14v9.52c0,3.82-2.8,6.14-6.2,6.14Zm3.13-15.56c0-2.08-1.17-3.49-3.13-3.49s-3.1,1.42-3.1,3.49v9.33c0,2.08,1.14,3.49,3.1,3.49s3.13-1.42,3.13-3.49v-9.33Z"/></g><g><path class="e" d="M354.01,299.91v-18.09l-4.18,3.67v-3.4l4.18-3.61h3.07v21.44h-3.07Z"/><path class="e" d="M369.94,299.91h-3.31l7.2-18.69h-6.53v3.37h-2.95v-6.11h12.77v2.74l-7.17,18.69Z"/></g><g><path class="e" d="M348.29,393.01v-2.74l8.25-10.02c.81-.99,1.14-1.78,1.14-2.86,0-1.93-1.14-3.25-3.13-3.25-1.63,0-3.16,.91-3.16,3.31h-3.07c0-3.65,2.59-6.05,6.23-6.05s6.2,2.32,6.2,6.02c0,1.89-.69,3.01-2.02,4.64l-6.71,8.22h8.73v2.74h-12.47Z"/><path class="e" d="M375.15,389.79v3.22h-2.98v-3.22h-8.67v-2.86l7.56-15.36h3.31l-7.53,15.36h5.33v-5h2.98v5h2.29v2.86h-2.29Z"/></g><g><path class="e" d="M419.93,114.24c-3.4,0-6.17-2.32-6.17-6.14v-9.52c0-3.82,2.77-6.14,6.17-6.14s6.2,2.32,6.2,6.14v9.52c0,3.82-2.8,6.14-6.2,6.14Zm3.13-15.57c0-2.08-1.17-3.49-3.13-3.49s-3.1,1.42-3.1,3.49v9.34c0,2.08,1.14,3.49,3.1,3.49s3.13-1.42,3.13-3.49v-9.34Z"/><path class="e" d="M440.67,110.83v3.22h-2.98v-3.22h-8.67v-2.86l7.56-15.36h3.31l-7.53,15.36h5.33v-5h2.98v5h2.29v2.86h-2.29Z"/></g><g><path class="e" d="M419.53,206.83v-18.1l-4.18,3.68v-3.4l4.18-3.61h3.07v21.44h-3.07Z"/><path class="e" d="M435.58,206.83v-18.1l-4.18,3.68v-3.4l4.18-3.61h3.07v21.44h-3.07Z"/></g><g><path class="e" d="M419.53,299.88v-18.09l-4.18,3.67v-3.4l4.18-3.61h3.07v21.44h-3.07Z"/><path class="e" d="M435.97,300.06c-3.67,0-6.59-2.35-6.59-6.23,0-2.56,1.44-4.13,2.95-5.03-1.38-.85-2.59-2.35-2.59-4.61,0-3.58,2.74-5.93,6.23-5.93s6.26,2.35,6.26,5.93c0,2.26-1.2,3.76-2.59,4.61,1.5,.9,2.95,2.47,2.95,5.03,0,3.88-2.95,6.23-6.62,6.23Zm0-9.88c-1.99,0-3.52,1.59-3.52,3.58s1.53,3.55,3.52,3.55,3.52-1.57,3.52-3.55-1.53-3.58-3.52-3.58Zm0-9.18c-1.87,0-3.16,1.42-3.16,3.28s1.29,3.25,3.16,3.25,3.19-1.35,3.19-3.25-1.32-3.28-3.19-3.28Z"/></g><g><path class="e" d="M413.81,392.98v-2.74l8.25-10.02c.81-.99,1.14-1.78,1.14-2.86,0-1.93-1.14-3.25-3.13-3.25-1.63,0-3.16,.91-3.16,3.31h-3.07c0-3.65,2.59-6.05,6.23-6.05s6.2,2.32,6.2,6.02c0,1.89-.69,3.01-2.02,4.64l-6.71,8.22h8.73v2.74h-12.47Z"/><path class="e" d="M440.58,391.51c-.96,.97-2.44,1.69-4.52,1.69s-3.64-.72-4.58-1.66c-1.14-1.14-1.51-2.56-1.63-4.09h3.07c.24,1.9,1.21,2.98,3.13,2.98,.9,0,1.69-.31,2.23-.85,.9-.9,1.02-2.32,1.02-3.76,0-2.56-.66-4.49-3.13-4.49-1.75,0-2.71,.87-3.04,1.92h-2.8v-11.71h11.56v2.74h-8.79v5.66c.72-.75,1.99-1.23,3.55-1.23,1.69,0,2.98,.51,3.85,1.38,1.63,1.62,1.87,3.7,1.87,5.72,0,2.29-.24,4.12-1.81,5.69Z"/></g><g><path class="d" d="M419.93,486.21c-3.4,0-6.17-2.32-6.17-6.14v-9.52c0-3.82,2.77-6.14,6.17-6.14s6.2,2.32,6.2,6.14v9.52c0,3.82-2.8,6.14-6.2,6.14Zm3.13-15.56c0-2.08-1.17-3.49-3.13-3.49s-3.1,1.42-3.1,3.49v9.33c0,2.08,1.14,3.49,3.1,3.49s3.13-1.42,3.13-3.49v-9.33Z"/><path class="d" d="M429.86,486.03v-2.74l8.25-10.03c.81-.99,1.14-1.78,1.14-2.86,0-1.92-1.14-3.25-3.13-3.25-1.63,0-3.16,.9-3.16,3.31h-3.07c0-3.64,2.59-6.05,6.23-6.05s6.2,2.32,6.2,6.02c0,1.9-.69,3.01-2.02,4.64l-6.71,8.22h8.73v2.74h-12.47Z"/></g><g><path class="e" d="M223.32,206.98c-3.4,0-6.17-2.32-6.17-6.14v-9.52c0-3.82,2.77-6.14,6.17-6.14s6.2,2.32,6.2,6.14v9.52c0,3.82-2.8,6.14-6.2,6.14Zm3.13-15.56c0-2.08-1.17-3.49-3.13-3.49s-3.1,1.42-3.1,3.49v9.33c0,2.08,1.14,3.49,3.1,3.49s3.13-1.42,3.13-3.49v-9.33Z"/><path class="e" d="M239.37,206.98c-3.67,0-6.59-2.35-6.59-6.23,0-2.56,1.44-4.12,2.95-5.03-1.38-.84-2.59-2.35-2.59-4.6,0-3.58,2.74-5.94,6.23-5.94s6.26,2.35,6.26,5.94c0,2.26-1.2,3.76-2.59,4.6,1.5,.91,2.95,2.47,2.95,5.03,0,3.88-2.95,6.23-6.62,6.23Zm0-9.88c-1.99,0-3.52,1.6-3.52,3.58s1.53,3.55,3.52,3.55,3.52-1.56,3.52-3.55-1.53-3.58-3.52-3.58Zm0-9.18c-1.87,0-3.16,1.42-3.16,3.28s1.29,3.25,3.16,3.25,3.19-1.35,3.19-3.25-1.32-3.28-3.19-3.28Z"/></g><g><path class="e" d="M222.93,299.85v-18.09l-4.18,3.67v-3.4l4.18-3.61h3.07v21.44h-3.07Z"/><path class="e" d="M243.98,298.37c-.96,.97-2.44,1.69-4.52,1.69s-3.64-.72-4.58-1.66c-1.14-1.14-1.51-2.56-1.63-4.09h3.07c.24,1.9,1.21,2.98,3.13,2.98,.9,0,1.69-.31,2.23-.85,.9-.9,1.02-2.32,1.02-3.76,0-2.56-.66-4.49-3.13-4.49-1.75,0-2.71,.87-3.04,1.92h-2.8v-11.71h11.56v2.74h-8.79v5.66c.72-.75,1.99-1.23,3.55-1.23,1.69,0,2.98,.51,3.85,1.38,1.63,1.62,1.87,3.7,1.87,5.72,0,2.29-.24,4.12-1.81,5.69Z"/></g><g><path class="e" d="M217.21,392.96v-2.74l8.25-10.03c.81-.99,1.14-1.78,1.14-2.86,0-1.92-1.14-3.25-3.13-3.25-1.63,0-3.16,.9-3.16,3.31h-3.07c0-3.64,2.59-6.05,6.23-6.05s6.2,2.32,6.2,6.02c0,1.9-.69,3.01-2.02,4.64l-6.71,8.22h8.73v2.74h-12.47Z"/><path class="e" d="M233.26,392.96v-2.74l8.25-10.03c.81-.99,1.14-1.78,1.14-2.86,0-1.92-1.14-3.25-3.13-3.25-1.63,0-3.16,.9-3.16,3.31h-3.07c0-3.64,2.59-6.05,6.23-6.05s6.2,2.32,6.2,6.02c0,1.9-.69,3.01-2.02,4.64l-6.71,8.22h8.73v2.74h-12.47Z"/></g><g><path class="e" d="M217.21,486v-2.74l8.25-10.02c.81-.99,1.14-1.78,1.14-2.86,0-1.93-1.14-3.25-3.13-3.25-1.63,0-3.16,.91-3.16,3.31h-3.07c0-3.65,2.59-6.05,6.23-6.05s6.2,2.32,6.2,6.02c0,1.89-.69,3.01-2.02,4.64l-6.71,8.22h8.73v2.74h-12.47Z"/><path class="e" d="M244.13,476.07l-4.88,9.93h-3.28l4.61-9.21c-.57,.24-1.27,.33-1.93,.33-3.1,0-5.6-2.44-5.6-6.21s2.62-6.53,6.32-6.53,6.35,2.44,6.35,6.41c0,1.75-.66,3.4-1.6,5.27Zm-4.76-8.95c-1.93,0-3.25,1.45-3.25,3.73,0,2.11,1.2,3.71,3.25,3.71,1.93,0,3.28-1.38,3.28-3.71s-1.35-3.73-3.28-3.73Z"/></g><g><path class="d" d="M156.77,114.2c-3.43,0-6.44-1.84-6.56-6.02h3.07c.12,2.29,1.72,3.25,3.49,3.25,1.99,0,3.49-1.29,3.49-3.55s-1.17-3.52-3.58-3.52h-.51v-2.68h.51c2.23,0,3.25-1.29,3.25-3.25,0-2.17-1.42-3.31-3.16-3.31-1.87,0-3.07,1.17-3.22,3.07h-3.07c.18-3.65,2.86-5.84,6.29-5.84,3.64,0,6.23,2.44,6.23,5.99,0,2.29-1.02,3.77-2.68,4.58,1.84,.81,3.01,2.41,3.01,5.06,0,4.12-2.98,6.23-6.56,6.23Z"/><path class="d" d="M172.61,114v-18.1l-4.18,3.68v-3.4l4.18-3.61h3.07v21.44h-3.07Z"/></g><g><path class="e" d="M156.95,206.95c-3.4,0-6.17-2.32-6.17-6.14v-9.52c0-3.82,2.77-6.14,6.17-6.14s6.2,2.32,6.2,6.14v9.52c0,3.82-2.8,6.14-6.2,6.14Zm3.13-15.56c0-2.08-1.17-3.49-3.13-3.49s-3.1,1.42-3.1,3.49v9.33c0,2.08,1.14,3.49,3.1,3.49s3.13-1.42,3.13-3.49v-9.33Z"/><path class="e" d="M172.49,206.77h-3.31l7.2-18.7h-6.53v3.37h-2.95v-6.11h12.77v2.74l-7.17,18.7Z"/></g><g><path class="e" d="M156.56,299.82v-18.09l-4.18,3.67v-3.4l4.18-3.61h3.07v21.44h-3.07Z"/><path class="e" d="M177.7,296.59v3.22h-2.98v-3.22h-8.67v-2.86l7.56-15.36h3.31l-7.53,15.36h5.33v-5h2.98v5h2.29v2.86h-2.29Z"/></g><g><path class="e" d="M150.84,392.93v-2.74l8.25-10.03c.81-.99,1.14-1.78,1.14-2.86,0-1.92-1.14-3.25-3.13-3.25-1.63,0-3.16,.9-3.16,3.31h-3.07c0-3.64,2.59-6.05,6.23-6.05s6.2,2.32,6.2,6.02c0,1.9-.69,3.01-2.02,4.64l-6.71,8.22h8.73v2.74h-12.47Z"/><path class="e" d="M172.61,392.93v-18.1l-4.18,3.68v-3.4l4.18-3.61h3.07v21.44h-3.07Z"/></g><g><path class="e" d="M150.84,485.97v-2.74l8.25-10.02c.81-.99,1.14-1.78,1.14-2.86,0-1.93-1.14-3.25-3.13-3.25-1.63,0-3.16,.91-3.16,3.31h-3.07c0-3.65,2.59-6.05,6.23-6.05s6.2,2.32,6.2,6.02c0,1.89-.69,3.01-2.02,4.64l-6.71,8.22h8.73v2.74h-12.47Z"/><path class="e" d="M173,486.15c-3.67,0-6.59-2.35-6.59-6.23,0-2.56,1.44-4.13,2.95-5.03-1.38-.85-2.59-2.35-2.59-4.61,0-3.58,2.74-5.93,6.23-5.93s6.26,2.35,6.26,5.93c0,2.26-1.2,3.76-2.59,4.61,1.5,.9,2.95,2.47,2.95,5.03,0,3.88-2.95,6.23-6.62,6.23Zm0-9.88c-1.99,0-3.52,1.59-3.52,3.58s1.53,3.55,3.52,3.55,3.52-1.57,3.52-3.55-1.53-3.58-3.52-3.58Zm0-9.18c-1.87,0-3.16,1.42-3.16,3.28s1.29,3.25,3.16,3.25,3.19-1.35,3.19-3.25-1.32-3.28-3.19-3.28Z"/></g><g><path class="d" d="M90.95,114.17c-3.43,0-6.44-1.84-6.56-6.02h3.07c.12,2.29,1.72,3.25,3.49,3.25,1.99,0,3.49-1.29,3.49-3.55s-1.17-3.52-3.58-3.52h-.51v-2.68h.51c2.23,0,3.25-1.29,3.25-3.25,0-2.17-1.42-3.31-3.16-3.31-1.87,0-3.07,1.17-3.22,3.07h-3.07c.18-3.65,2.86-5.84,6.29-5.84,3.64,0,6.23,2.44,6.23,5.99,0,2.29-1.02,3.77-2.68,4.58,1.84,.81,3.01,2.41,3.01,5.06,0,4.12-2.98,6.23-6.56,6.23Z"/><path class="d" d="M107.18,114.14c-3.4,0-6.17-2.32-6.17-6.14v-9.52c0-3.82,2.77-6.14,6.17-6.14s6.2,2.32,6.2,6.14v9.52c0,3.82-2.8,6.14-6.2,6.14Zm3.13-15.56c0-2.08-1.17-3.49-3.13-3.49s-3.1,1.42-3.1,3.49v9.33c0,2.08,1.14,3.49,3.1,3.49s3.13-1.42,3.13-3.49v-9.33Z"/></g><g><path class="e" d="M91.13,206.92c-3.4,0-6.17-2.32-6.17-6.14v-9.52c0-3.82,2.77-6.14,6.17-6.14s6.2,2.32,6.2,6.14v9.52c0,3.82-2.8,6.14-6.2,6.14Zm3.13-15.56c0-2.08-1.17-3.49-3.13-3.49s-3.1,1.42-3.1,3.49v9.33c0,2.08,1.14,3.49,3.1,3.49s3.13-1.42,3.13-3.49v-9.33Z"/><path class="e" d="M107.21,206.92c-3.7,0-6.35-2.44-6.35-6.41,0-1.75,.66-3.41,1.6-5.27l4.88-9.94h3.28l-4.61,9.21c.57-.24,1.23-.33,1.9-.33,3.1,0,5.63,2.44,5.63,6.2s-2.62,6.53-6.32,6.53Zm-.03-10.18c-1.93,0-3.25,1.38-3.25,3.71s1.32,3.73,3.25,3.73,3.28-1.45,3.28-3.73c0-2.11-1.23-3.71-3.28-3.71Z"/></g><g><path class="e" d="M90.74,299.78v-18.09l-4.18,3.67v-3.4l4.18-3.61h3.07v21.44h-3.07Z"/><path class="e" d="M107,300c-3.43,0-6.44-1.84-6.56-6.02h3.07c.12,2.29,1.72,3.25,3.49,3.25,1.99,0,3.49-1.3,3.49-3.55s-1.17-3.52-3.58-3.52h-.51v-2.68h.51c2.23,0,3.25-1.29,3.25-3.25,0-2.17-1.42-3.31-3.16-3.31-1.87,0-3.07,1.18-3.22,3.07h-3.07c.18-3.64,2.86-5.84,6.29-5.84,3.64,0,6.23,2.44,6.23,5.99,0,2.29-1.02,3.76-2.68,4.58,1.84,.81,3.01,2.41,3.01,5.06,0,4.13-2.98,6.24-6.56,6.24Z"/></g><g><path class="e" d="M85.01,392.9v-2.74l8.25-10.03c.81-.99,1.14-1.78,1.14-2.86,0-1.92-1.14-3.25-3.13-3.25-1.63,0-3.16,.9-3.16,3.31h-3.07c0-3.64,2.59-6.05,6.23-6.05s6.2,2.32,6.2,6.02c0,1.9-.69,3.01-2.02,4.64l-6.71,8.22h8.73v2.74h-12.47Z"/><path class="e" d="M107.18,393.07c-3.4,0-6.17-2.32-6.17-6.14v-9.52c0-3.82,2.77-6.14,6.17-6.14s6.2,2.32,6.2,6.14v9.52c0,3.82-2.8,6.14-6.2,6.14Zm3.13-15.56c0-2.08-1.17-3.49-3.13-3.49s-3.1,1.42-3.1,3.49v9.33c0,2.08,1.14,3.49,3.1,3.49s3.13-1.42,3.13-3.49v-9.33Z"/></g><g><path class="e" d="M85.01,485.94v-2.74l8.25-10.02c.81-.99,1.14-1.78,1.14-2.86,0-1.93-1.14-3.25-3.13-3.25-1.63,0-3.16,.91-3.16,3.31h-3.07c0-3.65,2.59-6.05,6.23-6.05s6.2,2.32,6.2,6.02c0,1.89-.69,3.01-2.02,4.64l-6.71,8.22h8.73v2.74h-12.47Z"/><path class="e" d="M106.66,485.94h-3.31l7.2-18.69h-6.53v3.37h-2.95v-6.11h12.77v2.74l-7.17,18.69Z"/></g><g><path class="d" d="M19.19,113.93v-2.74l8.25-10.03c.81-.99,1.14-1.78,1.14-2.86,0-1.92-1.14-3.25-3.13-3.25-1.63,0-3.16,.9-3.16,3.31h-3.07c0-3.64,2.59-6.05,6.23-6.05s6.2,2.32,6.2,6.02c0,1.9-.69,3.01-2.02,4.64l-6.71,8.22h8.73v2.74h-12.47Z"/><path class="d" d="M46.11,104l-4.88,9.94h-3.28l4.61-9.21c-.57,.24-1.27,.33-1.93,.33-3.1,0-5.6-2.44-5.6-6.2s2.62-6.54,6.32-6.54,6.35,2.44,6.35,6.41c0,1.75-.66,3.4-1.6,5.27Zm-4.76-8.94c-1.93,0-3.25,1.45-3.25,3.73,0,2.11,1.2,3.7,3.25,3.7,1.93,0,3.28-1.38,3.28-3.7s-1.35-3.73-3.28-3.73Z"/></g><g><path class="e" d="M25.3,206.89c-3.4,0-6.17-2.32-6.17-6.14v-9.52c0-3.82,2.77-6.14,6.17-6.14s6.2,2.32,6.2,6.14v9.52c0,3.82-2.8,6.14-6.2,6.14Zm3.13-15.56c0-2.08-1.17-3.49-3.13-3.49s-3.1,1.42-3.1,3.49v9.33c0,2.08,1.14,3.49,3.1,3.49s3.13-1.42,3.13-3.49v-9.33Z"/><path class="e" d="M45.96,205.23c-.96,.96-2.44,1.69-4.52,1.69s-3.64-.72-4.58-1.65c-1.14-1.15-1.51-2.56-1.63-4.09h3.07c.24,1.89,1.21,2.98,3.13,2.98,.9,0,1.69-.3,2.23-.85,.9-.9,1.02-2.32,1.02-3.76,0-2.56-.66-4.49-3.13-4.49-1.75,0-2.71,.88-3.04,1.93h-2.8v-11.71h11.56v2.74h-8.79v5.66c.72-.75,1.99-1.24,3.55-1.24,1.69,0,2.98,.51,3.85,1.39,1.63,1.62,1.87,3.7,1.87,5.72,0,2.29-.24,4.12-1.81,5.69Z"/></g><g><path class="e" d="M24.91,299.75v-18.09l-4.18,3.67v-3.4l4.18-3.61h3.07v21.44h-3.07Z"/><path class="e" d="M35.24,299.75v-2.74l8.25-10.02c.81-.99,1.14-1.78,1.14-2.86,0-1.93-1.14-3.25-3.13-3.25-1.63,0-3.16,.91-3.16,3.31h-3.07c0-3.65,2.59-6.05,6.23-6.05s6.2,2.32,6.2,6.02c0,1.89-.69,3.01-2.02,4.64l-6.71,8.22h8.73v2.74h-12.47Z"/></g><g><path class="e" d="M24.91,392.86v-18.1l-4.18,3.68v-3.4l4.18-3.61h3.07v21.44h-3.07Z"/><path class="e" d="M46.11,382.93l-4.88,9.94h-3.28l4.61-9.21c-.57,.24-1.27,.33-1.93,.33-3.1,0-5.6-2.44-5.6-6.2s2.62-6.54,6.32-6.54,6.35,2.44,6.35,6.41c0,1.75-.66,3.4-1.6,5.27Zm-4.76-8.94c-1.93,0-3.25,1.45-3.25,3.73,0,2.11,1.2,3.7,3.25,3.7,1.93,0,3.28-1.38,3.28-3.7s-1.35-3.73-3.28-3.73Z"/></g><g><path class="e" d="M19.19,485.91v-2.74l8.25-10.02c.81-.99,1.14-1.78,1.14-2.86,0-1.93-1.14-3.25-3.13-3.25-1.63,0-3.16,.91-3.16,3.31h-3.07c0-3.65,2.59-6.05,6.23-6.05s6.2,2.32,6.2,6.02c0,1.89-.69,3.01-2.02,4.64l-6.71,8.22h8.73v2.74h-12.47Z"/><path class="e" d="M41.38,486.09c-3.7,0-6.35-2.44-6.35-6.41,0-1.75,.66-3.4,1.6-5.27l4.88-9.94h3.28l-4.61,9.21c.57-.24,1.23-.33,1.9-.33,3.1,0,5.63,2.44,5.63,6.2s-2.62,6.54-6.32,6.54Zm-.03-10.18c-1.93,0-3.25,1.38-3.25,3.7s1.32,3.74,3.25,3.74,3.28-1.45,3.28-3.74c0-2.11-1.23-3.7-3.28-3.7Z"/></g><g class="h"><path class="f" d="M461.89,512H.78c-.43,0-.78-.35-.78-.78V.78C0,.35,.35,0,.78,0H461.89c.43,0,.78,.35,.78,.78V511.22c0,.43-.35,.78-.78,.78ZM1.56,510.44H461.11V1.56H1.56V510.44Z"/><rect class="f" x=".44" y="43.87" width="461.8" height="1.56"/><rect class="f" x=".44" y="69.21" width="461.8" height="1.04"/><rect class="f" x=".44" y="162.05" width="461.8" height="1.04"/><rect class="f" x=".44" y="254.5" width="461.8" height="1.04"/><rect class="f" x=".44" y="347.6" width="461.8" height="1.04"/><rect class="f" x=".44" y="440.7" width="461.8" height="1.04"/><rect class="f" x=".44" y="137.3" width="461.8" height="1.56"/><rect class="f" x=".44" y="230.11" width="461.8" height="1.56"/><rect class="f" x=".44" y="324.18" width="461.8" height="1.56"/><rect class="f" x=".44" y="416.31" width="461.8" height="1.56"/><rect class="f" x="64.68" y="44.65" width="1.56" height="466.24"/><rect class="f" x="130.48" y="44.65" width="1.56" height="466.24"/><rect class="f" x="196.24" y="44.65" width="1.56" height="466.24"/><rect class="f" x="262" y="44.65" width="1.56" height="466.24"/><rect class="f" x="328.5" y="44.65" width="1.56" height="466.24"/><rect class="f" x="394.26" y="44.65" width="1.56" height="466.24"/></g><g><path class="f" d="M218.76,120.55c-4.71,0-8.55-3.21-8.55-8.51v-13.19c0-5.29,3.84-8.51,8.55-8.51s8.6,3.21,8.6,8.51v13.19c0,5.3-3.88,8.51-8.6,8.51Zm4.34-21.57c0-2.88-1.63-4.84-4.34-4.84s-4.3,1.96-4.3,4.84v12.93c0,2.88,1.59,4.84,4.3,4.84s4.34-1.96,4.34-4.84v-12.93Z"/><path class="f" d="M240.45,120.3v-25.08l-5.8,5.09v-4.71l5.8-5h4.25v29.71h-4.25Z"/></g><g><path class="e" d="M287.33,486.34c-3.43,0-6.44-1.84-6.56-6.02h3.07c.12,2.29,1.72,3.25,3.49,3.25,1.99,0,3.49-1.3,3.49-3.55s-1.17-3.52-3.58-3.52h-.51v-2.68h.51c2.23,0,3.25-1.29,3.25-3.25,0-2.17-1.42-3.31-3.16-3.31-1.87,0-3.07,1.18-3.22,3.07h-3.07c.18-3.64,2.86-5.84,6.29-5.84,3.64,0,6.23,2.44,6.23,5.99,0,2.29-1.02,3.76-2.68,4.58,1.84,.81,3.01,2.41,3.01,5.06,0,4.13-2.98,6.24-6.56,6.24Z"/><path class="e" d="M303.56,486.31c-3.4,0-6.17-2.32-6.17-6.14v-9.52c0-3.82,2.77-6.14,6.17-6.14s6.2,2.32,6.2,6.14v9.52c0,3.82-2.8,6.14-6.2,6.14Zm3.13-15.57c0-2.08-1.17-3.49-3.13-3.49s-3.1,1.42-3.1,3.49v9.34c0,2.08,1.14,3.49,3.1,3.49s3.13-1.42,3.13-3.49v-9.34Z"/></g><g><path class="e" d="M353.16,486.34c-3.43,0-6.44-1.84-6.56-6.02h3.07c.12,2.29,1.72,3.25,3.49,3.25,1.99,0,3.49-1.3,3.49-3.55s-1.17-3.52-3.58-3.52h-.51v-2.68h.51c2.23,0,3.25-1.29,3.25-3.25,0-2.17-1.42-3.31-3.16-3.31-1.87,0-3.07,1.18-3.22,3.07h-3.07c.18-3.64,2.86-5.84,6.29-5.84,3.64,0,6.23,2.44,6.23,5.99,0,2.29-1.02,3.76-2.68,4.58,1.84,.81,3.01,2.41,3.01,5.06,0,4.13-2.98,6.24-6.56,6.24Z"/><path class="e" d="M369,486.12v-18.09l-4.18,3.67v-3.4l4.18-3.61h3.07v21.44h-3.07Z"/></g></svg>