<?xml version="1.0" encoding="UTF-8"?><svg id="a" xmlns="http://www.w3.org/2000/svg" xmlns:xlink="http://www.w3.org/1999/xlink" viewBox="0 0 374.29 512"><defs><style>.g{fill:none;}.h{fill:#df8000;}.i{fill:#2b2961;}.j{clip-path:url(#c);}.k{clip-path:url(#b);}.l{clip-path:url(#f);}.m{clip-path:url(#e);}.n{clip-path:url(#d);}</style><clipPath id="b"><rect class="g" x="6.73" width="360.83" height="512"/></clipPath><clipPath id="c"><rect class="g" x="6.73" width="360.83" height="512"/></clipPath><clipPath id="d"><rect class="g" x="6.73" width="360.83" height="512"/></clipPath><clipPath id="e"><rect class="g" x="6.73" width="360.83" height="512"/></clipPath><clipPath id="f"><rect class="g" x="6.73" width="360.83" height="512"/></clipPath></defs><g class="k"><path class="h" d="M75.73,157.86c13.66,0,26.35,2.57,36.9,9.84v-47.22l-3.85,5.34c-6.03,12.5-18.55,21.12-33.06,21.12s-24.77-6.05-30.79-18.55l-2.54-2.56v41.33c9.8-5.87,21.17-9.3,33.34-9.3"/><path class="h" d="M112.63,168.54c-.16,0-.33-.05-.48-.15-9.46-6.52-21.38-9.69-36.42-9.69-11.51,0-22.89,3.17-32.9,9.18-.26,.15-.6,.15-.85,0-.26-.14-.43-.43-.43-.73v-41.33c0-.34,.2-.65,.52-.77,.33-.14,.68-.05,.92,.18l2.54,2.57c.07,.07,.12,.14,.16,.22,5.87,12.17,15.69,18.08,30.04,18.08s26.16-7.91,32.3-20.65l3.92-5.47c.21-.29,.57-.42,.94-.31,.35,.11,.58,.43,.58,.8v47.22c0,.31-.17,.6-.45,.74-.12,.07-.26,.1-.39,.1Zm-36.9-11.52c14.72,0,26.53,2.98,36.06,9.11v-43.05l-2.33,3.23c-6.34,13.19-19.3,21.47-33.74,21.47s-25.39-6.36-31.49-18.9l-1.01-1.02v37.83c9.96-5.68,21.16-8.67,32.5-8.67Z"/><path class="i" d="M111.63,172.09c-.39,0-.79-.11-1.12-.34-10.97-7.37-25.26-11.96-37.31-11.96s-23.8,3.52-34.56,10.75c-.61,.42-1.42,.45-2.06,.1-.66-.35-1.07-1.03-1.07-1.78v-58.04h4.02v54.37c10.43-6.26,21.74-9.43,33.66-9.43s25.31,4.02,36.42,10.65v-56.3h4.02v59.96c0,.75-.41,1.43-1.07,1.78-.29,.16-.62,.24-.94,.24Z"/></g><rect class="h" x="16.53" y="396.89" width="124.63" height="64.92"/><path class="h" d="M141.17,462.65H16.53c-.47,0-.84-.37-.84-.84v-64.92c0-.47,.37-.84,.84-.84h124.64c.47,0,.84,.37,.84,.84v64.92c0,.47-.37,.84-.84,.84Zm-123.8-1.68h122.96v-63.24H17.37v63.24Z"/><g class="j"><rect class="i" x="9.82" y="395.55" width="131.02" height="2.69"/><path class="i" d="M112.63,512c-1.11,0-2.01-.9-2.01-2.01v-47.11c0-1.11,.9-2.01,2.01-2.01s2.01,.9,2.01,2.01v47.11c0,1.11-.9,2.01-2.01,2.01Zm-76.11,0c-1.11,0-2.01-.9-2.01-2.01v-47.11c0-1.11,.9-2.01,2.01-2.01s2.01,.9,2.01,2.01v47.11c0,1.11-.9,2.01-2.01,2.01Z"/></g><path class="i" d="M36.52,289.38c-1.11,0-2.01-.9-2.01-2.01v-63.28c0-1.11,.9-2.01,2.01-2.01s2.01,.9,2.01,2.01v63.28c0,1.11-.9,2.01-2.01,2.01Z"/><g class="n"><path class="i" d="M139.96,463.18H8.74c-1.11,0-2.01-.9-2.01-2.01V226.21c0-38.17,30.96-70.63,67.61-70.88h.41c16.78,0,33.02,6.92,45.76,19.51,13.82,13.65,21.8,32.37,21.91,51.36v.02l-.45,234.96c0,1.11-.9,2.01-2.01,2.01Zm-129.21-4.02h127.2l.45-232.95c-.1-17.93-7.65-35.61-20.71-48.5-12.09-11.94-27.63-18.6-43.32-18.35-34.48,.24-63.61,30.85-63.61,66.86v232.95Z"/><path class="h" d="M113.79,99.95c-4.3-14.12-17.4-24.39-32.92-24.39s-28.63,10.28-32.92,24.39H113.79Z"/><path class="h" d="M113.79,100.79H47.95c-.27,0-.52-.12-.68-.34-.16-.21-.2-.49-.12-.74,4.54-14.94,18.09-24.99,33.72-24.99s29.17,10.04,33.72,24.99c.08,.26,.03,.53-.12,.74-.16,.22-.41,.34-.68,.34Zm-64.69-1.68h63.53c-4.64-13.63-17.26-22.71-31.76-22.71s-27.14,9.08-31.77,22.71Z"/><path class="i" d="M74.58,148.17c-21.55,0-39.07-17.53-39.07-39.07s17.53-39.06,39.07-39.06,39.06,17.52,39.06,39.06-17.52,39.07-39.06,39.07Zm0-74.11c-19.32,0-35.05,15.72-35.05,35.03s15.72,35.05,35.05,35.05,35.03-15.72,35.03-35.05-15.72-35.03-35.03-35.03Z"/></g><rect class="i" x="41.6" y="98.7" width="70.27" height="2.69"/><g class="m"><path class="i" d="M74.84,111.84c0,1.09-.89,1.97-1.97,1.97s-1.97-.88-1.97-1.97,.88-1.97,1.97-1.97,1.97,.89,1.97,1.97"/><path class="i" d="M101.62,111.84c0,1.09-.89,1.97-1.97,1.97s-1.97-.88-1.97-1.97,.88-1.97,1.97-1.97,1.97,.89,1.97,1.97"/></g><polygon class="h" points="159.38 .85 159.38 50.99 159.38 70.9 146.86 113.91 190.77 93.44 247.09 93.44 247.09 .85 159.38 .85"/><path class="h" d="M146.86,114.75c-.2,0-.39-.07-.55-.2-.25-.22-.35-.56-.26-.88l12.47-42.89V.85c0-.47,.38-.85,.85-.85h87.71c.47,0,.85,.38,.85,.85V93.44c0,.47-.38,.85-.85,.85h-56.12l-43.75,20.38c-.11,.05-.24,.08-.35,.08ZM160.22,1.69V70.9c0,.08-.01,.16-.03,.24l-11.99,41.22,42.22-19.67c.11-.05,.23-.08,.35-.08h55.47V1.69h-86.02Z"/><path class="i" d="M140.51,118.54c-.35,0-.71-.12-.98-.37-.45-.39-.64-1-.47-1.57l12.45-42.81V3.97c0-.84,.68-1.51,1.51-1.51h92.6c.84,0,1.51,.68,1.51,1.51V96.57c0,.84-.68,1.51-1.51,1.51h-60.87l-43.6,20.31c-.21,.1-.43,.14-.64,.14ZM154.53,5.49V74.01c0,.14-.02,.29-.06,.42l-11.58,39.82,40.88-19.05c.2-.1,.42-.14,.64-.14h59.69V5.49h-89.57Z"/><path class="i" d="M228.08,72.8h-53.92c-.56,0-1.01-.45-1.01-1.01s.45-1.01,1.01-1.01h53.92c.56,0,1.01,.45,1.01,1.01s-.45,1.01-1.01,1.01Zm0-13.16h-53.92c-.56,0-1.01-.45-1.01-1.01s.45-1.01,1.01-1.01h53.92c.56,0,1.01,.45,1.01,1.01s-.45,1.01-1.01,1.01Zm0-13.16h-53.92c-.56,0-1.01-.45-1.01-1.01s.45-1.01,1.01-1.01h53.92c.56,0,1.01,.45,1.01,1.01s-.45,1.01-1.01,1.01Zm0-13.16h-53.92c-.56,0-1.01-.45-1.01-1.01s.45-1.01,1.01-1.01h53.92c.56,0,1.01,.45,1.01,1.01s-.45,1.01-1.01,1.01Zm0-13.16h-53.92c-.56,0-1.01-.45-1.01-1.01s.45-1.01,1.01-1.01h53.92c.56,0,1.01,.45,1.01,1.01s-.45,1.01-1.01,1.01Z"/><path class="i" d="M112.63,289.38c-1.11,0-2.01-.9-2.01-2.01v-63.28c0-1.11,.9-2.01,2.01-2.01s2.01,.9,2.01,2.01v63.28c0,1.11-.9,2.01-2.01,2.01Z"/><g class="l"><path class="h" d="M291.51,194.95l-35,36.78s19.73,18.58,39.32,8.85c19.6-9.71,46.02-46.32,54.74-70.19,8.68-23.86,16.59-78.84-2.32-96.84-18.89-18-31.94-14.79-31.94-14.79l4.11,49.31s6.08-.48,10.55,7.56c4.06,7.31-4.48,28.02-8.3,39.42-3.79,11.39-11.5,32.89-16.02,37.36-6.64,6.59-15.14,2.53-15.14,2.53"/><path class="i" d="M289.93,250.51c-15.13,0-27.47-11.4-28.12-12.01-.39-.37-.62-.88-.64-1.42-.01-.53,.18-1.06,.56-1.44l34.66-36.37c.6-.63,1.54-.79,2.31-.43,.29,.13,7.21,3.26,12.7-2.16,3-2.97,8.9-16.79,15.41-36.08,.6-1.77,1.3-3.77,2.06-5.91,3.71-10.4,9.31-26.12,6.37-31.38-3.63-6.56-8.26-6.41-8.5-6.4-.87,.15-2.05-.75-2.14-1.84l-3.95-48.62c-.08-.98,.56-1.88,1.52-2.12,.58-.14,14.17-3.24,33.39,14.99,18.95,18.02,11.85,72.32,2.54,97.66-8.75,23.85-35.34,60.6-55.22,70.47-4.4,2.2-8.79,3.06-12.96,3.06Zm-23.81-13.64c4.82,3.85,20.1,14.39,34.98,6.97,19.09-9.48,44.74-45.09,53.24-68.25,8.72-23.77,15.89-76.79-1.55-93.35-13.68-12.99-24.11-14.49-27.96-14.15l3.64,44.96c2.52,.47,6.9,2.18,10.29,8.3,3.82,6.86-1.68,22.29-6.1,34.69-.75,2.11-1.46,4.09-2.05,5.84-4.05,12.02-11.57,32.9-16.39,37.66-5.91,5.83-12.91,4.43-15.86,3.47l-32.26,33.85Z"/><path class="h" d="M288,192.91l-35.35,35.03s-6.96-8.35-3.99-14.07c2.97-5.73,19.05-23.74,25.14-24.93,6.09-1.17,13.45-.15,14.2,3.97"/><path class="i" d="M258.78,234.68h-.1c-.56-.03-1.09-.29-1.45-.73-.28-.34-6.74-8.34-3.1-14.82,3.07-5.39,19.18-23.28,25.6-24.9,3.94-.97,9.69-1.34,12.95,.89,1.32,.9,2.12,2.16,2.3,3.64,.08,.62-.14,1.25-.58,1.68l-34.19,33.66c-.38,.37-.89,.58-1.42,.58Zm27.08-37.2c-1.59,0-3.39,.22-5.16,.66-4.51,1.14-19.85,17.32-23.07,22.98-1.43,2.54,.03,6.1,1.44,8.44l31.48-31s-.1-.08-.16-.12c-.93-.64-2.58-.96-4.54-.96Z"/><path class="h" d="M315.66,108.64s-9.87-.62-13.33-5.49c-3.49-4.88-7.49-35.57-4.21-38.82,3.28-3.25,12.64-6.97,12.64-6.97l4.9,51.29Z"/><path class="i" d="M321.78,115.76h-.14c-1.06-.07-10.47-.86-14.22-6.13-3.46-4.8-8.11-35.46-3.95-39.61,3.31-3.28,11.77-6.67,12.72-7.05,.6-.22,1.25-.17,1.79,.16,.54,.33,.89,.89,.96,1.52l4.85,48.9c.06,.59-.14,1.17-.56,1.6-.38,.39-.9,.61-1.45,.61Zm-6.59-47.99c-2.98,1.33-7.16,3.4-8.88,5.11-2.03,3.14,1.36,30.2,4.38,34.41,1.7,2.39,5.87,3.61,8.84,4.14l-4.33-43.66Z"/></g></svg>