<?xml version="1.0" encoding="UTF-8"?><svg id="a" xmlns="http://www.w3.org/2000/svg" xmlns:xlink="http://www.w3.org/1999/xlink" viewBox="0 0 352.47 512"><defs><style>.l{fill:none;}.m{fill:#fff;}.n{fill:#df8000;}.o{fill:#2b2961;}.p{clip-path:url(#c);}.q{clip-path:url(#b);}.r{clip-path:url(#f);}.s{clip-path:url(#e);}.t{clip-path:url(#d);}.u{clip-path:url(#k);}.v{clip-path:url(#j);}.w{clip-path:url(#i);}.x{clip-path:url(#h);}.y{clip-path:url(#g);}</style><clipPath id="b"><rect class="l" x="7.45" width="337.57" height="512"/></clipPath><clipPath id="c"><rect class="l" x="7.45" width="337.57" height="512"/></clipPath><clipPath id="d"><rect class="l" x="7.45" width="337.57" height="512"/></clipPath><clipPath id="e"><rect class="l" x="7.45" width="337.57" height="512"/></clipPath><clipPath id="f"><rect class="l" x="7.45" width="337.57" height="512"/></clipPath><clipPath id="g"><rect class="l" x="7.45" width="337.57" height="512"/></clipPath><clipPath id="h"><rect class="l" x="7.45" width="337.57" height="512"/></clipPath><clipPath id="i"><rect class="l" x="7.45" width="337.57" height="512"/></clipPath><clipPath id="j"><rect class="l" x="7.45" width="337.57" height="512"/></clipPath><clipPath id="k"><rect class="l" x="7.45" width="337.57" height="512"/></clipPath></defs><rect class="n" x="16.92" y="207.92" width="92.84" height="95.26"/><g class="q"><rect class="o" x="9.84" y="206.47" width="101.37" height="2.01"/></g><path class="o" d="M89.44,341.99c-.83,0-1.51-.67-1.51-1.51v-36.55c0-.83,.67-1.51,1.51-1.51s1.51,.67,1.51,1.51v36.55c0,.83-.67,1.51-1.51,1.51Zm-58.99,0c-.83,0-1.51-.67-1.51-1.51v-36.55c0-.83,.67-1.51,1.51-1.51s1.51,.67,1.51,1.51v36.55c0,.83-.67,1.51-1.51,1.51Z"/><path class="o" d="M92,172.31c-.96,0-1.75-.78-1.75-1.74l-.08-49.11c0-.97,.78-1.75,1.74-1.75h0c.96,0,1.75,.78,1.75,1.74l.08,49.11c0,.97-.78,1.75-1.74,1.75h0Z"/><g class="p"><path class="o" d="M110.59,304.22H8.95c-.83,0-1.51-.67-1.51-1.51V120.82c0-29.52,23.95-54.63,52.31-54.82h.32c12.99,0,25.55,5.35,35.42,15.1,10.69,10.55,16.86,25.03,16.94,39.72h0l-.34,181.9c0,.83-.68,1.5-1.51,1.5Zm-100.13-3.02H109.09l.34-180.38c-.08-13.89-5.93-27.59-16.05-37.59-9.3-9.18-21.11-14.23-33.3-14.23h-.3c-26.73,.18-49.32,23.91-49.32,51.81v180.38Z"/><path class="n" d="M88.64,23.18c-3.32-10.95-13.48-18.91-25.49-18.91s-22.17,7.97-25.5,18.91h50.99Z"/><path class="o" d="M59.94,60.46c-16.67,0-30.22-13.56-30.22-30.23S43.27,0,59.94,0s30.23,13.56,30.23,30.22-13.56,30.23-30.23,30.23Zm0-57.44c-15,0-27.21,12.21-27.21,27.21s12.21,27.21,27.21,27.21,27.21-12.21,27.21-27.21S74.95,3.02,59.94,3.02Z"/></g><rect class="o" x="32.76" y="22.2" width="54.37" height="2.01"/><g class="t"><path class="o" d="M51.11,36.03c0,.84-.68,1.53-1.53,1.53s-1.53-.68-1.53-1.53,.68-1.53,1.53-1.53,1.53,.68,1.53,1.53"/><path class="o" d="M71.83,36.03c0,.84-.68,1.53-1.53,1.53s-1.52-.68-1.52-1.53,.68-1.53,1.52-1.53,1.53,.68,1.53,1.53"/></g><path class="o" d="M329.71,334.25c-.55,0-1.01-.45-1.01-1.01v-80.67c0-.55,.45-1.01,1.01-1.01s1.01,.45,1.01,1.01v80.67c0,.55-.45,1.01-1.01,1.01Z"/><g class="s"><path class="m" d="M184.33,213c0,10.22,8.28,18.5,18.5,18.5s18.5-8.28,18.5-18.5-8.28-18.5-18.5-18.5-18.5,8.28-18.5,18.5"/><path class="o" d="M202.83,233c-11.03,0-20.01-8.98-20.01-20.01s8.98-20.01,20.01-20.01,20.01,8.97,20.01,20.01-8.97,20.01-20.01,20.01Zm0-37c-9.37,0-17,7.62-17,16.99s7.63,17,17,17,16.99-7.63,16.99-17-7.62-16.99-16.99-16.99Z"/><path class="m" d="M165.9,281.87c0-20.46,16.75-38.66,37.1-38.66s36.85,18.2,36.85,38.66v88.27h-73.71l-.25-88.27Z"/><path class="o" d="M239.86,371.65h-73.71c-.83,0-1.51-.67-1.51-1.5l-.25-88.27h0c0-21.78,17.68-40.17,38.61-40.17s38.36,18.39,38.36,40.16v88.27c0,.83-.67,1.51-1.51,1.51Zm-72.21-3.02h70.7v-86.77c0-20.14-16.19-37.15-35.35-37.15s-35.59,17.01-35.6,37.14l.25,86.77Z"/></g><rect class="n" x="167.65" y="334.01" width="67.8" height="36.46"/><g class="r"><path class="n" d="M185.61,207.45c1.97-6.8,7.98-11.75,15.09-11.75s13.12,4.95,15.09,11.75h-30.17Z"/></g><path class="o" d="M238.57,333.27h-73.5v-2.01h73.5v2.01Zm-17.29-125.04h-36.9v-2.01h36.9v2.01Z"/><g class="y"><path class="o" d="M207.2,214.86c0,.53,.43,.96,.97,.96s.96-.43,.96-.96-.43-.96-.96-.96-.97,.43-.97,.96"/><path class="o" d="M196.21,214.99c0,.53,.43,.96,.96,.96s.97-.43,.97-.96-.43-.96-.97-.96-.96,.43-.96,.96"/></g><path class="o" d="M222.53,409.28c-.83,0-1.51-.67-1.51-1.51v-36.47c0-.83,.67-1.51,1.51-1.51s1.51,.67,1.51,1.51v36.47c0,.83-.67,1.51-1.51,1.51Zm-39.05,0c-.83,0-1.51-.67-1.51-1.51v-36.47c0-.83,.67-1.51,1.51-1.51s1.51,.67,1.51,1.51v36.47c0,.83-.67,1.51-1.51,1.51Z"/><path class="o" d="M203.61,371.13c-.55,0-1.01-.45-1.01-1.01v-27.67c0-.55,.45-1.01,1.01-1.01s1.01,.45,1.01,1.01v27.67c0,.55-.45,1.01-1.01,1.01Z"/><g class="x"><path class="o" d="M239.85,371.65h-73.71c-.83,0-1.51-.67-1.51-1.5l-.25-88.26h0c0-21.77,17.68-40.16,38.61-40.16s38.36,18.39,38.36,40.15v88.26c0,.83-.67,1.51-1.51,1.51Zm-72.21-3.02h70.7v-86.75c0-20.13-16.19-37.14-35.35-37.14s-35.59,17.01-35.6,37.13l.25,86.76Zm35.18-135.71c-11.02,0-19.99-8.96-19.99-19.97s8.97-19.97,19.99-19.97,19.98,8.96,19.98,19.97-8.96,19.97-19.98,19.97Zm0-36.92c-9.36,0-16.97,7.61-16.97,16.95s7.61,16.96,16.97,16.96,16.97-7.61,16.97-16.96-7.61-16.95-16.97-16.95Z"/><path class="m" d="M269.56,281.87c0-20.46,16.75-38.66,37.1-38.66s36.85,18.2,36.85,38.66v88.27h-73.71l-.25-88.27Z"/><path class="o" d="M343.51,371.65h-73.7c-.83,0-1.51-.67-1.51-1.5l-.26-88.27h0c0-21.78,17.68-40.17,38.61-40.17s38.36,18.39,38.36,40.16v88.27c0,.83-.67,1.51-1.51,1.51Zm-72.2-3.02h70.69v-86.77c0-20.14-16.19-37.15-35.35-37.15s-35.59,17.01-35.6,37.14l.25,86.77Z"/></g><rect class="n" x="270.09" y="334.01" width="67.8" height="36.46"/><rect class="o" x="270.11" y="333.04" width="73.5" height="2.01"/><path class="o" d="M326.18,409.28c-.83,0-1.51-.67-1.51-1.51v-36.54c0-.83,.67-1.51,1.51-1.51s1.51,.67,1.51,1.51v36.54c0,.83-.67,1.51-1.51,1.51Zm-39.05,0c-.83,0-1.51-.67-1.51-1.51v-36.54c0-.83,.67-1.51,1.51-1.51s1.51,.67,1.51,1.51v36.54c0,.83-.67,1.51-1.51,1.51Z"/><path class="o" d="M325.6,313.2c-.83,0-1.51-.67-1.51-1.51v-36.54c0-.83,.67-1.51,1.51-1.51s1.51,.67,1.51,1.51v36.54c0,.83-.67,1.51-1.51,1.51Zm-36.9,0c-.83,0-1.51-.67-1.51-1.51v-36.54c0-.83,.67-1.51,1.51-1.51s1.51,.67,1.51,1.51v36.54c0,.83-.67,1.51-1.51,1.51Z"/><g class="w"><path class="o" d="M343.51,371.65h-73.7c-.83,0-1.51-.67-1.51-1.5l-.26-88.27h0c0-21.78,17.68-40.17,38.61-40.17s38.36,18.39,38.36,40.16v88.27c0,.83-.67,1.51-1.51,1.51Zm-72.2-3.02h70.69v-86.77c0-20.14-16.19-37.15-35.35-37.15s-35.59,17.01-35.6,37.14l.25,86.77Z"/></g><path class="o" d="M27.45,172.31c-.96,0-1.75-.78-1.75-1.74l-.08-49.11c0-.97,.78-1.75,1.74-1.75h0c.96,0,1.75,.78,1.75,1.74l.08,49.11c0,.97-.78,1.75-1.74,1.75h0Z"/><path class="o" d="M221.65,313.2c-.83,0-1.51-.67-1.51-1.51v-36.54c0-.83,.67-1.51,1.51-1.51s1.51,.67,1.51,1.51v36.54c0,.83-.67,1.51-1.51,1.51Zm-36.9,0c-.83,0-1.51-.67-1.51-1.51v-36.54c0-.83,.67-1.51,1.51-1.51s1.51,.67,1.51,1.51v36.54c0,.83-.67,1.51-1.51,1.51Z"/><g class="v"><path class="n" d="M290.86,209.03c1.97-6.8,7.98-11.75,15.09-11.75s13.12,4.95,15.09,11.75h-30.17Z"/></g><path class="o" d="M343.83,334.85h-73.5v-2.01h73.5v2.01Zm-17.3-125.04h-36.9v-2.01h36.9v2.01Z"/><g class="u"><path class="o" d="M312.45,216.44c0,.53,.43,.96,.97,.96s.96-.43,.96-.96-.43-.96-.96-.96-.97,.43-.97,.96"/><path class="o" d="M301.46,216.57c0,.53,.43,.96,.96,.96s.97-.43,.97-.96-.43-.96-.97-.96-.96,.43-.96,.96"/><path class="o" d="M308.08,234.58c-11.03,0-20.01-8.97-20.01-20.01s8.97-20.01,20.01-20.01,20.01,8.97,20.01,20.01-8.98,20.01-20.01,20.01Zm0-37c-9.37,0-16.99,7.62-16.99,16.99s7.62,16.99,16.99,16.99,17-7.62,17-16.99-7.63-16.99-17-16.99Z"/><path class="n" d="M124.29,436.53c.65-.59,1.09-1,1.76-1.55,17.79-14.64,43.43-14.33,59.46,1.5,6.88,6.79,10.94,15.42,12.21,24.48l-.05-.27c-19.78,16.57-44.3,8.63-44.3,8.63-2.02-22.87-29.42-32.49-29.09-32.8"/><path class="o" d="M154.86,512c-2.87,0-5.77-.28-8.65-.84-1.63-.31-3.24-.72-4.8-1.2-21.02-6.53-33.81-27.2-29.75-48.1,4.41-22.63,27.08-37.33,50.51-32.78h0c23.44,4.56,38.94,26.67,34.55,49.31-2.13,10.97-8.56,20.42-18.11,26.61-7.12,4.61-15.32,7-23.74,7Zm-10.25-3.25c.66,.16,1.32,.3,1.99,.43,10.83,2.1,21.81,.02,30.91-5.88,9.08-5.89,15.2-14.87,17.23-25.3,4.18-21.54-10.6-42.6-32.95-46.95h0c-12.86-2.5-25.51,1.09-34.71,8.69,21.64,7.55,28.02,29.88,28.08,30.11,.11,.38-.02,.8-.33,1.05-14.49,11.68-10.97,33.95-10.22,37.85Zm-19.28-67.47c-5.85,5.45-10.07,12.64-11.69,20.96-3.86,19.89,8.34,39.58,28.38,45.8,.14,.04,.28,.09,.43,.13-1.05-5.96-3.44-26.54,10.59-38.39-1.2-3.63-8.24-22.32-27.71-28.5Z"/><path class="o" d="M124.79,498.43l-2.01-.02c0-.28,.59-28.06,24.43-41.57l.99,1.75c-22.81,12.93-23.41,39.58-23.41,39.84Zm-10.78-19.62l-2-.17c.02-.23,2.2-23.06,22.9-34.41l.96,1.77c-19.73,10.82-21.84,32.6-21.86,32.82Z"/><path class="o" d="M163.13,505.22c-6.5,0-13.84-1.43-21.1-5.78l1.03-1.73c20.03,12.01,40.68,.65,40.89,.54l.99,1.75c-.14,.08-9.48,5.23-21.82,5.23Zm5.73-15.65c-7.63,0-15.98-1.96-23.73-7.94l1.23-1.59c21.5,16.54,47.96,.66,48.23,.5l1.05,1.72c-.18,.11-12.16,7.31-26.77,7.31Zm.13-18l-2.01-.02c.23-28.04-25.93-39.46-26.19-39.56l.79-1.86c.27,.12,27.66,12.03,27.42,41.44Zm13.92-4.71c-.62-22.42-21.25-35.77-21.46-35.91l1.08-1.7c.22,.14,21.74,14.04,22.4,37.55l-2.01,.06Z"/><path class="o" d="M165.26,472.45c-3.61,0-7.37-.55-11.15-1.89l.67-1.9c19.62,6.93,39.24-9.15,39.43-9.32l1.29,1.54c-.68,.57-14.07,11.56-30.23,11.56Z"/></g><path class="o" d="M208.76,463.81c-.37,0-.73-.21-.9-.57-.25-.5-.03-1.1,.47-1.34l45.8-22.12c.51-.24,1.1-.03,1.34,.47,.25,.5,.03,1.1-.47,1.34l-45.8,22.12c-.14,.07-.29,.1-.44,.1Z"/><path class="o" d="M208.76,451.08c-.37,0-.73-.21-.9-.57-.25-.5-.03-1.1,.47-1.34l45.8-22.12c.51-.24,1.1-.03,1.34,.47,.25,.5,.03,1.1-.47,1.34l-45.8,22.12c-.14,.07-.29,.1-.44,.1Z"/><path class="o" d="M197.72,441.33c-.37,0-.73-.21-.9-.57-.25-.5-.03-1.1,.47-1.34l45.81-22.12c.51-.24,1.1-.03,1.34,.47,.25,.5,.03,1.1-.47,1.34l-45.81,22.12c-.14,.07-.29,.1-.44,.1Z"/></svg>