<?xml version="1.0" encoding="UTF-8"?><svg id="a" xmlns="http://www.w3.org/2000/svg" xmlns:xlink="http://www.w3.org/1999/xlink" viewBox="0 0 512 242.4"><defs><style>.i{fill:none;}.j{fill:#fff;}.k{fill:#df8000;}.l{fill:#2b2961;}.m{clip-path:url(#c);}.n{clip-path:url(#b);}.o{clip-path:url(#f);}.p{clip-path:url(#e);}.q{clip-path:url(#d);}.r{clip-path:url(#h);}.s{clip-path:url(#g);}</style><clipPath id="b"><rect class="i" x="0" width="512" height="242.4"/></clipPath><clipPath id="c"><rect class="i" x="0" width="512" height="242.4"/></clipPath><clipPath id="d"><rect class="i" x="0" width="512" height="242.4"/></clipPath><clipPath id="e"><rect class="i" x="0" width="512" height="242.4"/></clipPath><clipPath id="f"><rect class="i" x="0" width="512" height="242.4"/></clipPath><clipPath id="g"><rect class="i" x="0" width="512" height="242.4"/></clipPath><clipPath id="h"><rect class="i" x="0" width="512" height="242.4"/></clipPath></defs><g class="n"><path class="j" d="M83.79,99.47c0-23.08-18.69-43.6-41.4-43.6S1.28,76.39,1.28,99.47l.16,95.94H83.67l.12-95.94Z"/><path class="l" d="M83.68,196.68H1.43c-.7,0-1.27-.57-1.27-1.27L0,99.47C0,75.14,19.41,54.59,42.39,54.59s42.67,20.55,42.67,44.88h0l-.12,95.94c0,.71-.57,1.27-1.27,1.27Zm-80.97-2.55H82.4l.12-94.67c0-22.94-18.38-42.33-40.13-42.33S2.55,76.52,2.55,99.47l.16,94.67Z"/><path class="j" d="M63.42,22.42c0,11.68-9.33,21.15-20.83,21.15s-20.84-9.47-20.84-21.15S31.08,1.27,42.59,1.27s20.83,9.47,20.83,21.15"/><path class="l" d="M42.59,44.84c-12.19,0-22.11-10.06-22.11-22.42S30.4,0,42.59,0s22.11,10.06,22.11,22.42-9.92,22.42-22.11,22.42Zm0-42.29c-10.79,0-19.56,8.91-19.56,19.87s8.77,19.87,19.56,19.87,19.56-8.91,19.56-19.87S53.37,2.55,42.59,2.55Z"/></g><polygon class="k" points="83.74 193.8 7.38 194.57 7.72 165.8 83.35 165.8 83.74 193.8"/><path class="k" d="M7.38,195.1c-.14,0-.28-.05-.38-.16-.1-.1-.15-.24-.15-.38l.34-28.77c0-.29,.24-.52,.53-.52H83.35c.29,0,.53,.23,.53,.52l.39,27.99c0,.14-.05,.28-.15,.38-.1,.1-.24,.16-.38,.16l-76.36,.78h0Zm.86-28.77l-.32,27.7,75.28-.77-.37-26.94H8.24Z"/><g class="m"><path class="k" d="M61.79,16.38c-2.2-7.82-8.9-13.51-16.83-13.51s-14.64,5.69-16.83,13.51H61.79Z"/><path class="k" d="M61.79,16.91H28.12c-.17,0-.32-.08-.42-.21s-.13-.3-.09-.46c2.34-8.31,9.31-13.9,17.35-13.9s15.01,5.59,17.34,13.9c.05,.16,.01,.33-.09,.46s-.26,.21-.42,.21Zm-32.96-1.06H61.07c-2.39-7.47-8.78-12.45-16.12-12.45s-13.74,4.97-16.12,12.45Z"/><path class="l" d="M42.59,44.84c-12.19,0-22.11-10.06-22.11-22.42S30.4,0,42.59,0s22.11,10.06,22.11,22.42-9.92,22.42-22.11,22.42Zm0-42.29c-10.79,0-19.56,8.91-19.56,19.87s8.77,19.87,19.56,19.87,19.56-8.91,19.56-19.87S53.37,2.55,42.59,2.55Z"/></g><rect class="l" x="22.2" y="14.86" width="40.78" height="1.7"/><g class="q"><path class="l" d="M40.32,20.69c0,.59-.48,1.08-1.06,1.08s-1.06-.48-1.06-1.08,.47-1.08,1.06-1.08,1.06,.48,1.06,1.08"/><path class="l" d="M54.75,20.69c0,.59-.48,1.08-1.06,1.08s-1.07-.48-1.07-1.08,.48-1.08,1.07-1.08,1.06,.48,1.06,1.08"/><path class="l" d="M64.37,242.4c-.71,0-1.27-.57-1.27-1.27v-45.04c0-.71,.57-1.27,1.27-1.27s1.27,.57,1.27,1.27v45.04c0,.71-.57,1.27-1.27,1.27Zm-43.94,0c-.71,0-1.27-.57-1.27-1.27v-45.04c0-.71,.57-1.27,1.27-1.27s1.27,.57,1.27,1.27v45.04c0,.71-.57,1.27-1.27,1.27Zm42.87-108.35c-.71,0-1.27-.57-1.27-1.27v-41.1c0-.71,.57-1.27,1.27-1.27s1.27,.57,1.27,1.27v41.1c0,.71-.57,1.27-1.27,1.27Zm-41.52,0c-.71,0-1.27-.57-1.27-1.27v-41.1c0-.71,.57-1.27,1.27-1.27s1.27,.57,1.27,1.27v41.1c0,.71-.57,1.27-1.27,1.27Z"/><path class="l" d="M83.91,196.68H1.67c-.7,0-1.27-.57-1.27-1.27L0,99.47C0,75.14,19.42,54.59,42.4,54.59s42.67,20.55,42.67,44.88l.12,95.94c0,.34-.13,.66-.37,.9-.24,.24-.56,.37-.9,.37Zm-80.97-2.55H82.63l-.11-94.67h0c0-22.94-18.37-42.33-40.12-42.33S2.55,76.52,2.55,99.47l.39,94.67Z"/><rect class="l" x=".45" y="163.6" width="83.24" height="1.7"/></g><polygon class="j" points="422.93 50.55 422.93 55.41 422.93 138.97 510.73 138.97 510.73 51.63 471.94 51.63 471.74 51.53 446.62 27.37 422.93 50.55"/><g class="p"><path class="l" d="M512,140.24h-90.35V50.02l.39-.38,24.58-24.05,25.74,24.77h39.64v89.89Zm-87.8-2.55h85.26V52.9h-37.51v-1.58l-1.08,1.12-24.23-23.3-22.43,21.94v86.61Z"/></g><polygon class="k" points="424.96 47.19 424.96 71.27 446.3 49.93 471.48 74.55 472.17 51.37 446.3 26.95 424.96 46.64 424.96 47.19"/><rect class="k" x="475.31" y="51.57" width="36.12" height="23.53"/><g class="o"><path class="l" d="M512,140.24h-90.35V50.02l.39-.38,24.58-24.05,25.74,24.77h39.64v89.89Zm-87.8-2.55h85.26V52.9h-37.51v-1.58l-1.08,1.12-24.23-23.3-22.43,21.94v86.61Z"/></g><path class="l" d="M461.77,119.21c-.71,0-1.27-.57-1.27-1.27v-5.01c0-.71,.57-1.27,1.27-1.27s1.27,.57,1.27,1.27v5.01c0,.71-.57,1.27-1.27,1.27Zm-8.57,0c-.71,0-1.27-.57-1.27-1.27v-5.01c0-.71,.57-1.27,1.27-1.27s1.27,.57,1.27,1.27v5.01c0,.71-.57,1.27-1.27,1.27Zm-8.57,0c-.71,0-1.27-.57-1.27-1.27v-5.01c0-.71,.57-1.27,1.27-1.27s1.27,.57,1.27,1.27v5.01c0,.71-.57,1.27-1.27,1.27Zm-8.57,0c-.71,0-1.27-.57-1.27-1.27v-5.01c0-.71,.57-1.27,1.27-1.27s1.27,.57,1.27,1.27v5.01c0,.71-.57,1.27-1.27,1.27Zm64.44-12.68c-.71,0-1.27-.57-1.27-1.27v-5.01c0-.71,.57-1.27,1.27-1.27s1.27,.57,1.27,1.27v5.01c0,.71-.57,1.27-1.27,1.27Zm-8.57,0c-.71,0-1.27-.57-1.27-1.27v-5.01c0-.71,.57-1.27,1.27-1.27s1.27,.57,1.27,1.27v5.01c0,.71-.57,1.27-1.27,1.27Zm-8.57,0c-.71,0-1.27-.57-1.27-1.27v-5.01c0-.71,.57-1.27,1.27-1.27s1.27,.57,1.27,1.27v5.01c0,.71-.57,1.27-1.27,1.27Zm-8.57,0c-.71,0-1.27-.57-1.27-1.27v-5.01c0-.71,.57-1.27,1.27-1.27s1.27,.57,1.27,1.27v5.01c0,.71-.57,1.27-1.27,1.27Zm-13.01,0c-.71,0-1.27-.57-1.27-1.27v-5.01c0-.71,.57-1.27,1.27-1.27s1.27,.57,1.27,1.27v5.01c0,.71-.57,1.27-1.27,1.27Zm-8.57,0c-.71,0-1.27-.57-1.27-1.27v-5.01c0-.71,.57-1.27,1.27-1.27s1.27,.57,1.27,1.27v5.01c0,.71-.57,1.27-1.27,1.27Zm-8.57,0c-.71,0-1.27-.57-1.27-1.27v-5.01c0-.71,.57-1.27,1.27-1.27s1.27,.57,1.27,1.27v5.01c0,.71-.57,1.27-1.27,1.27Zm-8.57,0c-.71,0-1.27-.57-1.27-1.27v-5.01c0-.71,.57-1.27,1.27-1.27s1.27,.57,1.27,1.27v5.01c0,.71-.57,1.27-1.27,1.27Zm64.44-13.21c-.71,0-1.27-.57-1.27-1.27v-5.01c0-.71,.57-1.27,1.27-1.27s1.27,.57,1.27,1.27v5.01c0,.71-.57,1.27-1.27,1.27Zm-8.57,0c-.71,0-1.27-.57-1.27-1.27v-5.01c0-.71,.57-1.27,1.27-1.27s1.27,.57,1.27,1.27v5.01c0,.71-.57,1.27-1.27,1.27Zm-8.57,0c-.71,0-1.27-.57-1.27-1.27v-5.01c0-.71,.57-1.27,1.27-1.27s1.27,.57,1.27,1.27v5.01c0,.71-.57,1.27-1.27,1.27Zm-8.57,0c-.71,0-1.27-.57-1.27-1.27v-5.01c0-.71,.57-1.27,1.27-1.27s1.27,.57,1.27,1.27v5.01c0,.71-.57,1.27-1.27,1.27Zm-13.01,0c-.71,0-1.27-.57-1.27-1.27v-5.01c0-.71,.57-1.27,1.27-1.27s1.27,.57,1.27,1.27v5.01c0,.71-.57,1.27-1.27,1.27Zm-8.57,0c-.71,0-1.27-.57-1.27-1.27v-5.01c0-.71,.57-1.27,1.27-1.27s1.27,.57,1.27,1.27v5.01c0,.71-.57,1.27-1.27,1.27Zm-8.57,0c-.71,0-1.27-.57-1.27-1.27v-5.01c0-.71,.57-1.27,1.27-1.27s1.27,.57,1.27,1.27v5.01c0,.71-.57,1.27-1.27,1.27Zm-8.57,0c-.71,0-1.27-.57-1.27-1.27v-5.01c0-.71,.57-1.27,1.27-1.27s1.27,.57,1.27,1.27v5.01c0,.71-.57,1.27-1.27,1.27Z"/><g class="s"><polygon class="l" points="511.42 75.48 471.52 75.48 446.94 51.81 423.91 73.98 422.14 72.15 445.8 49.38 445.38 26.43 447.93 26.38 448.35 49.63 470.92 71.36 470.97 50.13 473.51 50.14 473.47 72.93 511.42 72.93 511.42 75.48"/></g><path class="l" d="M488.45,139.18c-.66,0-1.2-.54-1.2-1.2v-8.72c0-.66,.54-1.2,1.2-1.2s1.2,.54,1.2,1.2v8.72c0,.66-.54,1.2-1.2,1.2Z"/><g class="r"><path class="l" d="M157.68,236.61c-10.23,0-20.68-.51-31.31-1.6-.7-.07-1.21-.7-1.14-1.4,.08-.7,.72-1.22,1.4-1.14,81.14,8.37,151.77-17.32,185.77-46.45,16.12-13.79,51.87-15.24,86.44-16.63,35.3-1.42,71.81-2.9,81.99-18.17,.4-.59,1.2-.74,1.77-.36,.59,.39,.75,1.18,.36,1.77-10.91,16.36-46.42,17.8-84.02,19.31-34.14,1.37-69.44,2.8-84.88,16.01-29.95,25.65-87.89,48.65-156.37,48.65Z"/></g></svg>