<?xml version="1.0" encoding="UTF-8"?><svg id="a" xmlns="http://www.w3.org/2000/svg" xmlns:xlink="http://www.w3.org/1999/xlink" viewBox="0 0 512 512"><defs><style>.f{fill:none;}.g{fill:#df8000;}.h{fill:#2b2961;}.i{clip-path:url(#c);}.j{clip-path:url(#b);}.k{clip-path:url(#e);}.l{clip-path:url(#d);}</style><clipPath id="b"><rect class="f" y="27.24" width="512" height="457.51"/></clipPath><clipPath id="c"><rect class="f" y="27.24" width="512" height="457.51"/></clipPath><clipPath id="d"><rect class="f" y="27.24" width="512" height="457.51"/></clipPath><clipPath id="e"><rect class="f" y="27.24" width="512" height="457.51"/></clipPath></defs><g class="j"><path class="h" d="M206.31,483.27c-1.15,0-2.08-.93-2.08-2.08v-14.74c0-1.15,.93-2.08,2.08-2.08s2.08,.93,2.08,2.08v14.74c0,1.15-.93,2.08-2.08,2.08Zm0-29.48c-1.15,0-2.08-.93-2.08-2.08v-14.74c0-1.15,.93-2.08,2.08-2.08s2.08,.93,2.08,2.08v14.74c0,1.15-.93,2.08-2.08,2.08Z"/><path class="h" d="M284.83,483.27c-1.15,0-2.08-.93-2.08-2.08v-14.74c0-1.15,.93-2.08,2.08-2.08s2.08,.93,2.08,2.08v14.74c0,1.15-.93,2.08-2.08,2.08Zm0-29.48c-1.15,0-2.08-.93-2.08-2.08v-14.74c0-1.15,.93-2.08,2.08-2.08s2.08,.93,2.08,2.08v14.74c0,1.15-.93,2.08-2.08,2.08Z"/><path class="h" d="M308.19,163.93c-.82,0-1.6-.49-1.93-1.29-2.21-5.44-5.09-10.62-8.56-15.39-.67-.93-.47-2.23,.46-2.9,.92-.69,2.23-.47,2.9,.45,3.67,5.05,6.72,10.53,9.05,16.27,.43,1.07-.08,2.28-1.14,2.71-.26,.1-.52,.15-.78,.15Zm-21.16-29.07c-.47,0-.94-.16-1.33-.48-4.57-3.82-9.56-6.98-14.83-9.4-1.04-.48-1.5-1.71-1.02-2.76,.48-1.06,1.71-1.51,2.76-1.02,5.6,2.57,10.9,5.93,15.75,9.99,.88,.74,1,2.05,.26,2.93-.41,.49-1,.74-1.6,.74Z"/><path class="h" d="M182.79,163.98c-.26,0-.52-.05-.77-.15-1.07-.43-1.59-1.64-1.16-2.7,2.3-5.75,5.32-11.22,8.96-16.25,.67-.93,1.96-1.14,2.9-.47,.93,.68,1.14,1.98,.47,2.9-3.45,4.76-6.3,9.92-8.47,15.36-.32,.81-1.1,1.31-1.93,1.31Zm21.02-29.01c-.6,0-1.18-.25-1.6-.74-.73-.88-.62-2.19,.26-2.93,4.83-4.03,10.12-7.38,15.71-9.95,1.05-.47,2.28-.02,2.76,1.02,.48,1.04,.02,2.27-1.02,2.76-5.26,2.42-10.24,5.57-14.78,9.37-.39,.32-.86,.48-1.33,.48Z"/><path class="h" d="M177.65,406.92c-1.15,0-2.08-.93-2.08-2.08v-17.31c0-1.15,.93-2.08,2.08-2.08s2.08,.93,2.08,2.08v17.31c0,1.15-.93,2.08-2.08,2.08Zm0-34.63c-1.15,0-2.08-.93-2.08-2.08v-17.32c0-1.15,.93-2.08,2.08-2.08s2.08,.93,2.08,2.08v17.32c0,1.15-.93,2.08-2.08,2.08Zm0-34.63c-1.15,0-2.08-.93-2.08-2.08v-17.32c0-1.15,.93-2.08,2.08-2.08s2.08,.93,2.08,2.08v17.32c0,1.15-.93,2.08-2.08,2.08Zm0-34.63c-1.15,0-2.08-.93-2.08-2.08v-17.32c0-1.15,.93-2.08,2.08-2.08s2.08,.93,2.08,2.08v17.32c0,1.15-.93,2.08-2.08,2.08Zm0-34.63c-1.15,0-2.08-.93-2.08-2.08v-17.32c0-1.15,.93-2.08,2.08-2.08s2.08,.93,2.08,2.08v17.32c0,1.15-.93,2.08-2.08,2.08Zm0-34.63c-1.15,0-2.08-.93-2.08-2.08v-17.32c0-1.15,.93-2.08,2.08-2.08s2.08,.93,2.08,2.08v17.32c0,1.15-.93,2.08-2.08,2.08Z"/><path class="h" d="M287.64,432.91h-16.92c-1.15,0-2.08-.93-2.08-2.08s.93-2.08,2.08-2.08h16.92c1.15,0,2.08,.93,2.08,2.08s-.93,2.08-2.08,2.08Zm-33.84,0h-16.92c-1.15,0-2.08-.93-2.08-2.08s.93-2.08,2.08-2.08h16.92c1.15,0,2.08,.93,2.08,2.08s-.93,2.08-2.08,2.08Zm-33.84,0h-16.92c-1.15,0-2.08-.93-2.08-2.08s.93-2.08,2.08-2.08h16.92c1.15,0,2.08,.93,2.08,2.08s-.93,2.08-2.08,2.08Z"/><path class="h" d="M313.09,406.94h0c-1.15,0-2.08-.93-2.07-2.09l.03-17.32c0-1.14,.93-2.07,2.08-2.07h0c1.15,0,2.08,.93,2.07,2.09l-.03,17.32c0,1.14-.93,2.07-2.08,2.07Zm.06-34.63h0c-1.15,0-2.08-.93-2.07-2.09l.03-17.32c0-1.14,.93-2.07,2.08-2.07h0c1.15,0,2.08,.93,2.07,2.09l-.03,17.32c0,1.14-.93,2.07-2.08,2.07Zm.06-34.63h0c-1.15,0-2.08-.93-2.07-2.09l.03-17.32c0-1.14,.93-2.07,2.08-2.07h0c1.15,0,2.08,.93,2.07,2.09l-.03,17.32c0,1.14-.93,2.07-2.08,2.07Zm.06-34.63h0c-1.15,0-2.08-.93-2.07-2.09l.03-17.32c0-1.14,.93-2.07,2.08-2.07h0c1.15,0,2.08,.93,2.07,2.09l-.03,17.32c0,1.14-.93,2.07-2.08,2.07Zm.07-34.63h0c-1.15,0-2.08-.93-2.07-2.09l.03-17.32c0-1.14,.93-2.07,2.08-2.07h0c1.15,0,2.08,.93,2.07,2.09l-.03,17.32c0,1.14-.93,2.07-2.08,2.07Zm.06-34.63h0c-1.15,0-2.08-.93-2.07-2.09l.03-17.32c0-1.14,.93-2.07,2.08-2.07h0c1.15,0,2.08,.93,2.07,2.09l-.03,17.32c0,1.14-.93,2.07-2.08,2.07Z"/><path class="h" d="M313.05,432.91h-8.47c-1.15,0-2.08-.93-2.08-2.08s.93-2.08,2.08-2.08h6.39v-6.58c.01-1.15,.94-2.08,2.09-2.08h0c1.15,0,2.08,.93,2.07,2.08v8.66c-.01,1.15-.94,2.08-2.09,2.08Zm-126.94,0h-8.46c-1.15,0-2.08-.93-2.08-2.08v-8.66c0-1.15,.93-2.08,2.08-2.08s2.08,.93,2.08,2.08v6.58h6.38c1.15,0,2.08,.93,2.08,2.08s-.93,2.08-2.08,2.08Zm127.38-233.78h0c-1.15,0-2.08-.93-2.07-2.09l.02-8.66c-.02-2.89-.23-5.85-.62-8.76-.15-1.14,.65-2.19,1.78-2.34,1.14-.2,2.19,.64,2.34,1.78,.41,3.09,.63,6.22,.65,9.31l-.02,8.68c0,1.14-.93,2.07-2.08,2.07Zm-135.83,0c-1.15,0-2.08-.93-2.08-2.08v-8.66c0-3.1,.2-6.23,.6-9.29,.15-1.13,1.2-1.86,2.33-1.79,1.14,.15,1.94,1.19,1.79,2.34-.37,2.88-.57,5.83-.57,8.75v8.66c0,1.15-.93,2.08-2.08,2.08Zm58.68-79.01c-1.01,0-1.9-.74-2.05-1.77-.17-1.14,.62-2.19,1.75-2.36,3.1-.46,6.23-.7,9.31-.72,2.97,.05,6.22,.19,9.35,.64,1.14,.16,1.93,1.21,1.77,2.35-.16,1.14-1.2,1.92-2.35,1.77-2.93-.41-5.86-.58-8.74-.6-2.88,.02-5.82,.25-8.72,.68-.1,.01-.21,.02-.31,.02Z"/><path class="h" d="M30.74,483.27c-1.15,0-2.08-.93-2.08-2.08v-14.74c0-1.15,.93-2.08,2.08-2.08s2.08,.93,2.08,2.08v14.74c0,1.15-.93,2.08-2.08,2.08Zm0-29.48c-1.15,0-2.08-.93-2.08-2.08v-14.74c0-1.15,.93-2.08,2.08-2.08s2.08,.93,2.08,2.08v14.74c0,1.15-.93,2.08-2.08,2.08Z"/><path class="h" d="M109.27,483.27c-1.15,0-2.08-.93-2.08-2.08v-14.74c0-1.15,.93-2.08,2.08-2.08s2.08,.93,2.08,2.08v14.74c0,1.15-.93,2.08-2.08,2.08Zm0-29.48c-1.15,0-2.08-.93-2.08-2.08v-14.74c0-1.15,.93-2.08,2.08-2.08s2.08,.93,2.08,2.08v14.74c0,1.15-.93,2.08-2.08,2.08Z"/><path class="h" d="M132.62,163.93c-.82,0-1.6-.49-1.93-1.29-2.21-5.44-5.08-10.61-8.56-15.39-.68-.93-.47-2.23,.46-2.91,.93-.66,2.23-.45,2.9,.46,3.67,5.06,6.71,10.53,9.04,16.27,.43,1.07-.08,2.28-1.14,2.71-.26,.1-.52,.15-.78,.15Zm-21.16-29.07c-.47,0-.94-.16-1.33-.48-4.57-3.82-9.56-6.98-14.83-9.4-1.04-.48-1.5-1.71-1.02-2.76,.48-1.06,1.72-1.51,2.76-1.02,5.6,2.57,10.9,5.93,15.75,9.99,.88,.74,1,2.05,.26,2.93-.41,.49-1,.74-1.6,.74Z"/><path class="h" d="M7.22,163.98c-.26,0-.52-.05-.77-.15-1.07-.43-1.58-1.63-1.16-2.7,2.3-5.75,5.31-11.22,8.96-16.25,.67-.93,1.96-1.14,2.9-.47,.93,.68,1.14,1.98,.47,2.9-3.45,4.76-6.3,9.92-8.47,15.36-.33,.81-1.11,1.31-1.93,1.31Zm21.02-29.01c-.6,0-1.18-.25-1.6-.74-.73-.88-.62-2.19,.26-2.93,4.83-4.03,10.12-7.38,15.71-9.95,1.05-.47,2.28-.02,2.76,1.02,.48,1.04,.02,2.27-1.02,2.76-5.26,2.42-10.24,5.57-14.78,9.37-.39,.32-.86,.48-1.33,.48Z"/><path class="h" d="M2.08,406.92C.93,406.92,0,405.99,0,404.84v-17.31c0-1.15,.93-2.08,2.08-2.08s2.08,.93,2.08,2.08v17.31c0,1.15-.93,2.08-2.08,2.08Zm0-34.63C.93,372.29,0,371.36,0,370.21v-17.32c0-1.15,.93-2.08,2.08-2.08s2.08,.93,2.08,2.08v17.32c0,1.15-.93,2.08-2.08,2.08Zm0-34.63C.93,337.66,0,336.73,0,335.58v-17.32c0-1.15,.93-2.08,2.08-2.08s2.08,.93,2.08,2.08v17.32c0,1.15-.93,2.08-2.08,2.08Zm0-34.63C.93,303.03,0,302.1,0,300.95v-17.32c0-1.15,.93-2.08,2.08-2.08s2.08,.93,2.08,2.08v17.32c0,1.15-.93,2.08-2.08,2.08Zm0-34.63C.93,268.39,0,267.47,0,266.31v-17.32c0-1.15,.93-2.08,2.08-2.08s2.08,.93,2.08,2.08v17.32c0,1.15-.93,2.08-2.08,2.08Zm0-34.63C.93,233.76,0,232.83,0,231.68v-17.32c0-1.15,.93-2.08,2.08-2.08s2.08,.93,2.08,2.08v17.32c0,1.15-.93,2.08-2.08,2.08Z"/><path class="h" d="M112.07,432.91h-16.92c-1.15,0-2.08-.93-2.08-2.08s.93-2.08,2.08-2.08h16.92c1.15,0,2.08,.93,2.08,2.08s-.93,2.08-2.08,2.08Zm-33.84,0h-16.92c-1.15,0-2.08-.93-2.08-2.08s.93-2.08,2.08-2.08h16.92c1.15,0,2.08,.93,2.08,2.08s-.93,2.08-2.08,2.08Zm-33.84,0H27.47c-1.15,0-2.08-.93-2.08-2.08s.93-2.08,2.08-2.08h16.92c1.15,0,2.08,.93,2.08,2.08s-.93,2.08-2.08,2.08Z"/><path class="h" d="M137.52,406.94h0c-1.15,0-2.08-.93-2.07-2.09l.03-17.32c0-1.14,.93-2.07,2.08-2.07h0c1.15,0,2.08,.93,2.07,2.09l-.03,17.32c0,1.14-.93,2.07-2.08,2.07Zm.06-34.63h0c-1.15,0-2.08-.93-2.07-2.09l.03-17.32c0-1.14,.93-2.07,2.08-2.07h0c1.15,0,2.08,.93,2.07,2.09l-.03,17.32c0,1.14-.93,2.07-2.08,2.07Zm.07-34.63h0c-1.15,0-2.08-.93-2.07-2.09l.03-17.32c0-1.14,.93-2.07,2.08-2.07h0c1.15,0,2.08,.93,2.07,2.09l-.03,17.32c0,1.14-.93,2.07-2.08,2.07Zm.06-34.63h0c-1.15,0-2.08-.93-2.07-2.09l.03-17.32c0-1.14,.93-2.07,2.08-2.07h0c1.15,0,2.08,.93,2.07,2.09l-.03,17.32c0,1.14-.93,2.07-2.08,2.07Zm.06-34.63h0c-1.15,0-2.08-.93-2.07-2.09l.03-17.32c0-1.14,.93-2.07,2.08-2.07h0c1.15,0,2.08,.93,2.07,2.09l-.03,17.32c0,1.14-.93,2.07-2.08,2.07Zm.07-34.63h0c-1.15,0-2.08-.93-2.07-2.09l.03-17.32c0-1.14,.93-2.07,2.08-2.07h0c1.15,0,2.08,.93,2.07,2.09l-.03,17.32c0,1.14-.93,2.07-2.08,2.07Z"/><path class="h" d="M137.48,432.91h-8.46c-1.15,0-2.08-.93-2.08-2.08s.93-2.08,2.08-2.08h6.39v-6.58c.01-1.15,.94-2.08,2.09-2.08h0c1.15,0,2.08,.93,2.07,2.08v8.66c-.01,1.15-.94,2.08-2.09,2.08Zm-126.94,0H2.08c-1.15,0-2.08-.93-2.08-2.08v-8.66c0-1.15,.93-2.08,2.08-2.08s2.08,.93,2.08,2.08v6.58h6.38c1.15,0,2.08,.93,2.08,2.08s-.93,2.08-2.08,2.08Zm127.38-233.78h0c-1.15,0-2.08-.93-2.07-2.09l.02-8.66c-.02-2.92-.23-5.88-.62-8.76-.15-1.14,.64-2.19,1.78-2.34,1.15-.14,2.18,.64,2.34,1.78,.41,3.06,.63,6.19,.65,9.31l-.02,8.68c0,1.14-.93,2.07-2.08,2.07Zm-135.83,0c-1.15,0-2.08-.93-2.08-2.08v-8.66c0-3.13,.2-6.26,.6-9.29,.15-1.14,1.2-1.86,2.33-1.79,1.14,.15,1.94,1.2,1.79,2.34-.37,2.86-.57,5.8-.57,8.75v8.66c0,1.15-.93,2.08-2.08,2.08ZM60.76,120.11c-1.01,0-1.9-.74-2.05-1.77-.17-1.14,.62-2.19,1.75-2.36,3.1-.46,6.23-.7,9.31-.72,3.07,.08,6.22,.19,9.35,.64,1.14,.16,1.93,1.21,1.77,2.35-.16,1.14-1.23,1.92-2.35,1.77-2.93-.41-5.83-.66-8.74-.6-2.88,.02-5.82,.25-8.72,.68-.1,.01-.21,.02-.31,.02Z"/><path class="h" d="M91.25,101.42c-.67,0-1.33-.32-1.73-.92-.64-.95-.38-2.25,.57-2.88,3.97-2.66,7.33-6.01,9.98-9.98,.64-.95,1.93-1.2,2.89-.57,.95,.64,1.21,1.93,.57,2.88-2.95,4.41-6.7,8.16-11.12,11.12-.36,.24-.76,.35-1.15,.35Z"/><path class="h" d="M48.76,101.42c-.4,0-.8-.12-1.15-.35-4.41-2.95-8.16-6.7-11.12-11.12-.64-.95-.39-2.25,.57-2.88,.95-.64,2.25-.38,2.88,.57,2.66,3.97,6.02,7.32,9.98,9.98,.95,.64,1.21,1.93,.57,2.88-.4,.6-1.06,.92-1.73,.92Z"/><path class="h" d="M38.21,48.39c-.4,0-.8-.12-1.15-.35-.95-.64-1.21-1.93-.57-2.88,2.95-4.41,6.7-8.16,11.12-11.12,.95-.64,2.24-.38,2.89,.57,.64,.95,.38,2.25-.57,2.88-3.97,2.66-7.32,6.02-9.97,9.98-.4,.6-1.06,.92-1.73,.92Z"/><path class="h" d="M101.8,48.4c-.67,0-1.33-.32-1.73-.92-2.66-3.97-6.01-7.33-9.97-9.99-.95-.64-1.21-1.93-.57-2.88,.64-.95,1.93-1.2,2.89-.57,4.41,2.95,8.15,6.7,11.12,11.12,.64,.95,.38,2.25-.57,2.88-.36,.24-.76,.35-1.15,.35Z"/><path class="h" d="M70.01,107.86c-2.64,0-5.28-.26-7.86-.76-1.13-.22-1.86-1.31-1.64-2.44,.22-1.13,1.33-1.86,2.44-1.64,4.64,.91,9.48,.91,14.12,0,1.12-.22,2.22,.51,2.44,1.64,.22,1.12-.51,2.22-1.64,2.44-2.58,.51-5.22,.76-7.86,.76Zm37.51-30.77c-.14,0-.27-.01-.41-.04-1.13-.22-1.86-1.31-1.64-2.44,.46-2.31,.69-4.68,.69-7.05s-.23-4.75-.69-7.05c-.22-1.13,.51-2.23,1.64-2.44,1.1-.22,2.22,.51,2.44,1.63,.51,2.58,.76,5.23,.76,7.87s-.26,5.29-.76,7.87c-.2,.99-1.07,1.67-2.04,1.67Zm-75.01,0c-.97,0-1.84-.68-2.04-1.67-.51-2.58-.76-5.23-.76-7.87s.26-5.29,.76-7.87c.23-1.12,1.35-1.85,2.44-1.63,1.13,.22,1.86,1.31,1.64,2.44-.46,2.31-.69,4.68-.69,7.05s.23,4.75,.69,7.05c.22,1.13-.51,2.23-1.64,2.44-.14,.03-.27,.04-.41,.04Zm44.97-44.96c-.14,0-.27-.01-.41-.04-4.56-.91-9.55-.91-14.11,0-1.12,.23-2.22-.51-2.45-1.63-.22-1.12,.51-2.22,1.63-2.44,5.09-1.02,10.64-1.02,15.73,0,1.13,.22,1.86,1.32,1.63,2.44-.2,.99-1.07,1.67-2.04,1.67Z"/><path class="h" d="M283.8,102.07c-1.15,0-2.08-.93-2.08-2.08v-14.32c0-1.15,.93-2.08,2.08-2.08s2.08,.93,2.08,2.08v14.32c0,1.15-.93,2.08-2.08,2.08Z"/><path class="h" d="M276.9,46.27c-.62,0-1.24-.28-1.65-.81-2.72-3.53-6.14-6.52-10.15-8.87-.99-.58-1.33-1.85-.74-2.84,.58-.99,1.85-1.33,2.84-.74,4.48,2.62,8.3,5.96,11.35,9.92,.7,.91,.53,2.21-.38,2.91-.38,.29-.83,.43-1.27,.43Z"/><path class="h" d="M214.25,46.27c-.44,0-.89-.14-1.27-.43-.91-.7-1.08-2.01-.38-2.92,3.06-3.98,6.88-7.32,11.35-9.92,.99-.59,2.27-.25,2.84,.74,.58,1,.24,2.27-.75,2.84-4,2.34-7.42,5.31-10.15,8.86-.41,.53-1.03,.81-1.65,.81Z"/><path class="h" d="M207.34,101.36c-1.15,0-2.08-.93-2.08-2.08v-14.04c0-1.15,.93-2.08,2.08-2.08s2.08,.93,2.08,2.08v14.04c0,1.15-.93,2.08-2.08,2.08Z"/><path class="h" d="M283.8,123.55c-1.15,0-2.08-.93-2.08-2.08v-7.16c0-1.15,.93-2.08,2.08-2.08s2.08,.93,2.08,2.08v7.16c0,1.15-.93,2.08-2.08,2.08Zm-76.46-1.14c-1.15,0-2.08-.93-2.08-2.08v-7.01c0-1.15,.93-2.08,2.08-2.08s2.08,.93,2.08,2.08v7.01c0,1.15-.93,2.08-2.08,2.08Zm76.46-48.98c-1.15,0-2.08-.93-2.08-2.08v-7.16c0-2.23-.25-4.48-.75-6.66-.25-1.12,.45-2.23,1.57-2.49,1.1-.24,2.23,.45,2.49,1.57,.57,2.48,.85,5.04,.85,7.58v7.16c0,1.15-.93,2.08-2.08,2.08Zm-76.46-.15c-1.15,0-2.08-.93-2.08-2.08v-7.01c0-2.55,.28-5.1,.85-7.58,.25-1.12,1.37-1.81,2.49-1.57,1.12,.26,1.82,1.37,1.57,2.49-.49,2.18-.75,4.43-.75,6.66v7.01c0,1.15-.93,2.08-2.08,2.08Zm45.38-41.27c-.12,0-.24,0-.36-.03-4.45-.77-9.14-.77-13.59,0-1.1,.21-2.21-.56-2.4-1.7-.2-1.13,.56-2.21,1.7-2.4,4.91-.84,10.08-.84,15,0,1.13,.2,1.89,1.27,1.7,2.4-.17,1.02-1.05,1.73-2.04,1.73Z"/></g><rect class="g" x="392.89" y="363.88" width="116.44" height="65.14"/><path class="g" d="M509.33,429.89h-116.45c-.48,0-.87-.39-.87-.87v-65.14c0-.48,.39-.87,.87-.87h116.45c.48,0,.87,.39,.87,.87v65.14c0,.48-.39,.87-.87,.87Zm-115.58-1.73h114.71v-63.4h-114.71v63.4Z"/><g class="i"><path class="g" d="M476.68,143.6c-3.31-11.72-13.45-20.26-25.43-20.26s-22.11,8.53-25.43,20.26h50.87Z"/><path class="g" d="M476.68,144.47h-50.87c-.27,0-.53-.13-.69-.35-.17-.22-.22-.49-.14-.76,3.54-12.49,14.09-20.88,26.27-20.88s22.74,8.39,26.27,20.88c.07,.26,.02,.54-.14,.76-.16,.22-.42,.35-.69,.35Zm-49.7-1.73h48.53c-3.61-11.13-13.23-18.52-24.27-18.52s-20.65,7.39-24.27,18.52Z"/><rect class="h" x="384.68" y="361.99" width="126.17" height="2.78"/><path class="h" d="M447.67,186.62c-18.47,0-33.49-15.18-33.49-33.83s15.02-33.83,33.49-33.83,33.48,15.18,33.48,33.83-15.02,33.83-33.48,33.83Zm0-63.51c-16.17,0-29.33,13.31-29.33,29.67s13.16,29.68,29.33,29.68,29.32-13.32,29.32-29.68-13.15-29.67-29.32-29.67Z"/></g><rect class="h" x="416.79" y="141.08" width="61.76" height="2.78"/><g class="l"><path class="h" d="M438.35,155.94c0,.9-.72,1.63-1.61,1.63s-1.62-.73-1.62-1.63,.72-1.63,1.62-1.63,1.61,.73,1.61,1.63"/><path class="h" d="M460.2,155.94c0,.9-.72,1.63-1.61,1.63s-1.62-.73-1.62-1.63,.72-1.63,1.62-1.63,1.61,.73,1.61,1.63"/><path class="h" d="M414.25,484.75c-1.15,0-2.08-.93-2.08-2.08v-51.79c0-1.15,.93-2.08,2.08-2.08s2.08,.93,2.08,2.08v51.79c0,1.15-.93,2.08-2.08,2.08Z"/><path class="h" d="M480.5,484.75c-1.15,0-2.08-.93-2.08-2.08v-51.79c0-1.15,.93-2.08,2.08-2.08s2.08,.93,2.08,2.08v51.79c0,1.15-.93,2.08-2.08,2.08Z"/></g><path class="h" d="M416.29,321.47c-1.15,0-2.08-.93-2.08-2.08v-61.95c0-1.15,.93-2.08,2.08-2.08s2.08,.93,2.08,2.08v61.95c0,1.15-.93,2.08-2.08,2.08Z"/><g class="k"><path class="h" d="M509.5,431.75h-124.24c-1.15,0-2.08-.93-2.08-2.08v-157.34c0-38.48,29.4-70.99,64.2-70.99s64.62,32.51,64.62,70.99h0l-.42,157.35c0,1.14-.93,2.07-2.08,2.07Zm-122.16-4.16h120.09l.42-155.27c0-36.22-27.69-66.83-60.46-66.83s-60.05,30.61-60.05,66.84v155.27Z"/></g><path class="h" d="M445.01,430.77c-.76,0-1.39-.62-1.39-1.39v-54.18c0-.76,.62-1.39,1.39-1.39s1.39,.62,1.39,1.39v54.18c0,.76-.62,1.39-1.39,1.39Z"/><path class="h" d="M481.06,320.19c-1.15,0-2.08-.93-2.08-2.07l-.13-60.67c0-1.15,.92-2.09,2.07-2.09h0c1.15,0,2.08,.93,2.08,2.07l.13,60.67c0,1.15-.92,2.09-2.07,2.09h0Z"/></svg>