<?xml version="1.0" encoding="UTF-8"?><svg id="a" xmlns="http://www.w3.org/2000/svg" xmlns:xlink="http://www.w3.org/1999/xlink" viewBox="0 0 512 512"><defs><style>.n{fill:none;}.o{fill:#fff;}.p{fill:#df8000;}.q{fill:#2b2961;}.r{clip-path:url(#c);}.s{clip-path:url(#b);}.t{clip-path:url(#f);}.u{clip-path:url(#e);}.v{clip-path:url(#d);}.w{clip-path:url(#m);}.x{clip-path:url(#l);}.y{clip-path:url(#k);}.a`{clip-path:url(#j);}.aa{clip-path:url(#i);}.ab{clip-path:url(#h);}.ac{clip-path:url(#g);}</style><clipPath id="b"><polygon class="n" points="-398.21 65.09 -468.24 115.43 -521.76 196.16 -533.14 303.22 -497.06 393.65 -421.89 468.4 -393.47 422.9 -307.05 275.34 -200.13 466.57 -167.06 442.83 -133.03 408.8 -105.57 364.33 -88.55 300.22 -91.17 234.78 -104.26 189 -126.5 148.44 -155.28 117.04 -186.67 92.18 -215.47 75.17 -324.01 45.1 -398.21 65.09"/></clipPath><clipPath id="c"><rect class="n" y="28.26" width="512" height="455.47"/></clipPath><clipPath id="d"><rect class="n" y="28.26" width="512" height="455.47"/></clipPath><clipPath id="e"><rect class="n" y="28.26" width="512" height="455.47"/></clipPath><clipPath id="f"><rect class="n" y="28.26" width="512" height="455.47"/></clipPath><clipPath id="g"><rect class="n" y="28.26" width="512" height="455.47"/></clipPath><clipPath id="h"><rect class="n" y="28.26" width="512" height="455.47"/></clipPath><clipPath id="i"><rect class="n" y="28.26" width="512" height="455.47"/></clipPath><clipPath id="j"><rect class="n" y="28.26" width="512" height="455.47"/></clipPath><clipPath id="k"><rect class="n" y="28.26" width="512" height="455.47"/></clipPath><clipPath id="l"><rect class="n" y="28.26" width="512" height="455.47"/></clipPath><clipPath id="m"><rect class="n" y="28.26" width="512" height="455.47"/></clipPath></defs><g class="s"><rect class="p" x="-238.24" y="-99.12" width="5.55" height="540.49" transform="translate(-381.07 -80.93) rotate(-84)"/><rect class="p" x="-187.32" y="-180.61" width="5.55" height="540.5" transform="translate(-254.42 -103.27) rotate(-84.01)"/><rect class="p" x="-223.69" y="-122.39" width="5.55" height="540.49" transform="translate(-344.9 -87.3) rotate(-84.01)"/><rect class="p" x="-165.51" y="-215.53" width="5.55" height="540.5" transform="translate(-200.16 -112.84) rotate(-84.01)"/><rect class="p" x="-216.42" y="-134.04" width="5.55" height="540.49" transform="translate(-326.79 -90.5) rotate(-84)"/><rect class="p" x="-158.23" y="-227.16" width="5.55" height="540.49" transform="translate(-182.07 -116.02) rotate(-84.01)"/><rect class="p" x="-267.34" y="-52.56" width="5.55" height="540.5" transform="translate(-453.44 -68.16) rotate(-84.01)"/><rect class="p" x="-209.15" y="-145.69" width="5.55" height="540.5" transform="translate(-308.7 -93.69) rotate(-84)"/><rect class="p" x="-150.95" y="-238.82" width="5.55" height="540.49" transform="translate(-163.96 -119.22) rotate(-84)"/><rect class="p" x="-252.79" y="-75.85" width="5.55" height="540.49" transform="translate(-417.23 -74.55) rotate(-84)"/><rect class="p" x="-194.6" y="-168.97" width="5.55" height="540.5" transform="translate(-272.51 -100.08) rotate(-84)"/><rect class="p" x="-136.41" y="-262.1" width="5.55" height="540.5" transform="translate(-127.78 -125.6) rotate(-84)"/><rect class="p" x="-245.51" y="-87.49" width="5.55" height="540.5" transform="translate(-399.14 -77.74) rotate(-84)"/><rect class="p" x="-172.77" y="-203.9" width="5.55" height="540.5" transform="translate(-218.23 -109.65) rotate(-84.01)"/><rect class="p" x="-230.97" y="-110.76" width="5.55" height="540.5" transform="translate(-362.99 -84.12) rotate(-84.01)"/><rect class="p" x="-180.04" y="-192.26" width="5.55" height="540.49" transform="translate(-236.32 -106.46) rotate(-84.01)"/><rect class="p" x="-260.06" y="-64.2" width="5.55" height="540.49" transform="translate(-435.34 -71.35) rotate(-84.01)"/><rect class="p" x="-201.87" y="-157.32" width="5.55" height="540.5" transform="translate(-290.61 -96.88) rotate(-84)"/><rect class="p" x="-143.69" y="-250.45" width="5.55" height="540.49" transform="translate(-145.88 -122.42) rotate(-84)"/></g><g><g class="r"><path class="o" d="M282.89,68.43c0,21.12-17.12,38.24-38.24,38.24s-38.24-17.12-38.24-38.24,17.12-38.24,38.24-38.24,38.24,17.12,38.24,38.24"/><path class="o" d="M312.48,188.72c-.21-37.65-31.1-71.11-68.05-70.87-37.33,.25-67.6,33.36-67.6,70.87v241.77h135.2l.45-241.77Z"/><path class="o" d="M137.57,188.72c-.21-37.65-31.09-71.11-68.05-70.87C32.18,118.11,1.91,151.22,1.91,188.72v241.77H137.11l.45-241.77Z"/><path class="o" d="M107.98,68.43c0,21.12-17.12,38.24-38.24,38.24s-38.24-17.12-38.24-38.24S48.62,30.19,69.74,30.19s38.24,17.12,38.24,38.24"/></g><rect class="p" x="12.61" y="304.49" width="123.29" height="126.5"/><path class="p" d="M135.9,431.86H12.61c-.47,0-.86-.38-.86-.86v-126.5c0-.48,.39-.86,.86-.86h123.29c.47,0,.86,.38,.86,.86v126.5c0,.48-.39,.86-.86,.86Zm-122.43-1.72h121.57v-124.78H13.47v124.78Z"/><g class="v"><path class="p" d="M245.83,118.56c14.05,0,27.09,2.65,37.93,10.11v-48.54l-3.95,5.5c-6.19,12.84-19.06,21.7-33.98,21.7s-26.09-5.72-32.28-18.57l-1.99-3.13v42.49c10.08-6.04,21.76-9.56,34.27-9.56"/><path class="p" d="M283.76,129.53c-.17,0-.34-.05-.49-.15-9.73-6.7-21.98-9.96-37.44-9.96-11.83,0-23.53,3.26-33.83,9.44-.27,.15-.6,.16-.87,0-.27-.15-.44-.44-.44-.75v-42.49c0-.38,.25-.72,.62-.83,.35-.09,.76,.04,.97,.36l1.99,3.13c5.83,12.09,16.43,18.17,31.55,18.17,14.17,0,26.9-8.13,33.21-21.22l4.03-5.62c.22-.3,.62-.42,.96-.32,.36,.11,.6,.44,.6,.82v48.54c0,.32-.18,.61-.46,.76-.12,.07-.26,.1-.4,.1Zm-37.93-11.83c15.13,0,27.28,3.07,37.07,9.36v-44.25l-2.39,3.32c-6.52,13.56-19.84,22.06-34.68,22.06-15.84,0-26.96-6.41-33.06-19.05l-.35-.56v38.04c10.25-5.84,21.76-8.92,33.41-8.92Z"/><path class="q" d="M282.74,133.17c-.4,0-.8-.11-1.15-.35-11.29-7.58-25.98-12.29-38.35-12.29s-24.45,3.62-35.52,11.05c-.64,.43-1.45,.46-2.13,.11-.67-.36-1.09-1.06-1.09-1.82v-59.67h4.13v55.9c10.73-6.44,22.36-9.71,34.61-9.71s25.92,4.05,37.44,10.95v-57.88h4.13v61.64c0,.76-.42,1.47-1.09,1.82-.31,.16-.64,.24-.97,.24Z"/></g><rect class="p" x="184.98" y="364.26" width="128.12" height="66.73"/><path class="p" d="M313.1,431.86H184.98c-.47,0-.86-.38-.86-.86v-66.74c0-.48,.39-.86,.86-.86h128.12c.47,0,.86,.38,.86,.86v66.74c0,.48-.39,.86-.86,.86Zm-127.26-1.72h126.4v-65.01h-126.4v65.01Z"/><rect class="q" x="178.09" y="362.89" width="134.68" height="2.76"/><g class="u"><path class="q" d="M283.77,482.58c-1.14,0-2.07-.92-2.07-2.07v-48.42c0-1.14,.93-2.07,2.07-2.07s2.07,.92,2.07,2.07v48.42c0,1.14-.93,2.07-2.07,2.07Zm-78.24,0c-1.14,0-2.07-.92-2.07-2.07v-48.42c0-1.14,.93-2.07,2.07-2.07s2.07,.92,2.07,2.07v48.42c0,1.14-.93,2.07-2.07,2.07Z"/></g><path class="q" d="M283.77,254.07c-1.32,0-2.39-1.07-2.39-2.39v-65.05c0-1.33,1.07-2.39,2.39-2.39s2.39,1.07,2.39,2.39v65.05c0,1.33-1.07,2.39-2.39,2.39Zm-78.24,0c-1.32,0-2.39-1.07-2.39-2.39v-65.05c0-1.33,1.07-2.39,2.39-2.39s2.39,1.07,2.39,2.39v65.05c0,1.33-1.07,2.39-2.39,2.39Z"/><g class="t"><path class="q" d="M311.87,432.41H176.97c-1.14,0-2.07-.92-2.07-2.07V188.81c0-39.24,31.83-72.61,69.5-72.86h.42c17.25,0,33.94,7.11,47.04,20.06,14.2,14.03,22.41,33.27,22.51,52.79v.02l-.45,241.53c0,1.14-.93,2.06-2.07,2.06Zm-132.83-4.13h130.77l.45-239.46c-.1-18.43-7.86-36.61-21.29-49.87-12.32-12.18-27.99-18.87-44.14-18.87h-.4c-35.45,.24-65.4,31.72-65.4,68.73v239.47Z"/><path class="p" d="M282.74,59.03c-4.42-14.51-17.89-25.08-33.84-25.08s-29.43,10.57-33.84,25.08h67.69Z"/><path class="p" d="M282.74,59.89h-67.69c-.27,0-.53-.13-.69-.35-.16-.22-.21-.5-.13-.76,4.68-15.37,18.61-25.69,34.67-25.69s29.99,10.32,34.67,25.69c.08,.26,.03,.54-.13,.76-.16,.22-.42,.35-.69,.35Zm-66.51-1.72h65.32c-4.78-14.01-17.76-23.35-32.66-23.35s-27.89,9.34-32.66,23.35Z"/><path class="q" d="M244.65,108.58c-22.14,0-40.16-18.01-40.16-40.15s18.02-40.16,40.16-40.16,40.15,18.02,40.15,40.16-18.01,40.15-40.15,40.15Zm0-76.17c-19.87,0-36.03,16.16-36.03,36.03s16.16,36.02,36.03,36.02,36.02-16.16,36.02-36.02-16.16-36.03-36.02-36.03Z"/></g><rect class="q" x="208.53" y="57.74" width="72.24" height="2.76"/><g class="ac"><path class="q" d="M232.91,71.74c0,1.12-.91,2.03-2.03,2.03s-2.03-.91-2.03-2.03,.91-2.03,2.03-2.03,2.03,.91,2.03,2.03"/><path class="q" d="M260.44,71.74c0,1.12-.91,2.03-2.03,2.03s-2.03-.91-2.03-2.03,.91-2.03,2.03-2.03,2.03,.91,2.03,2.03"/><rect class="q" x="3.18" y="302.5" width="134.68" height="2.76"/><path class="q" d="M108.86,482.58c-1.14,0-2.07-.92-2.07-2.07v-48.42c0-1.14,.93-2.07,2.07-2.07s2.07,.92,2.07,2.07v48.42c0,1.14-.93,2.07-2.07,2.07Zm-78.24,0c-1.14,0-2.07-.92-2.07-2.07v-48.42c0-1.14,.93-2.07,2.07-2.07s2.07,.92,2.07,2.07v48.42c0,1.14-.93,2.07-2.07,2.07Z"/></g><path class="q" d="M108.86,254.07c-1.32,0-2.39-1.07-2.39-2.39v-65.05c0-1.33,1.07-2.39,2.39-2.39s2.39,1.07,2.39,2.39v65.05c0,1.33-1.07,2.39-2.39,2.39Zm-78.24,0c-1.32,0-2.39-1.07-2.39-2.39v-65.05c0-1.33,1.07-2.39,2.39-2.39s2.39,1.07,2.39,2.39v65.05c0,1.33-1.07,2.39-2.39,2.39Z"/><g class="ab"><path class="q" d="M136.97,432.41H2.07c-1.14,0-2.07-.92-2.07-2.07V188.81C0,149.57,31.83,116.2,69.5,115.94h.42c17.25,0,33.94,7.11,47.04,20.05,14.2,14.03,22.41,33.27,22.52,52.8v.02l-.45,241.53c0,1.14-.93,2.06-2.07,2.06Zm-132.83-4.13H134.9l.45-239.47c-.11-18.43-7.87-36.61-21.29-49.87-12.32-12.18-27.99-18.86-44.14-18.86h-.4c-35.45,.24-65.4,31.72-65.4,68.73v239.47Z"/><path class="p" d="M107.83,59.03c-4.42-14.51-17.89-25.08-33.84-25.08s-29.43,10.57-33.84,25.08H107.83Z"/><path class="p" d="M107.83,59.89H40.14c-.27,0-.53-.13-.69-.35-.16-.22-.21-.5-.13-.76,4.68-15.37,18.61-25.69,34.67-25.69s29.99,10.32,34.67,25.69c.08,.26,.03,.54-.13,.76-.16,.22-.42,.35-.69,.35Zm-66.51-1.72H106.65c-4.78-14.01-17.76-23.35-32.66-23.35s-27.89,9.34-32.66,23.35Z"/><path class="q" d="M69.75,108.58c-22.15,0-40.16-18.01-40.16-40.15S47.6,28.27,69.75,28.27s40.15,18.02,40.15,40.16-18.01,40.15-40.15,40.15Zm0-76.17c-19.87,0-36.03,16.16-36.03,36.03s16.17,36.02,36.03,36.02,36.02-16.16,36.02-36.02-16.16-36.03-36.02-36.03Z"/></g><rect class="q" x="33.62" y="57.74" width="72.24" height="2.76"/><g class="aa"><path class="q" d="M58.01,71.74c0,1.12-.91,2.03-2.03,2.03s-2.03-.91-2.03-2.03,.91-2.03,2.03-2.03,2.03,.91,2.03,2.03"/><path class="q" d="M85.54,71.74c0,1.12-.91,2.03-2.03,2.03s-2.03-.91-2.03-2.03,.91-2.03,2.03-2.03,2.03,.91,2.03,2.03"/></g><path class="q" d="M69.27,432.38c-.76,0-1.38-.62-1.38-1.38v-107.09c0-.76,.62-1.38,1.38-1.38s1.38,.62,1.38,1.38v107.09c0,.76-.62,1.38-1.38,1.38Z"/><rect class="p" x="393.62" y="363.61" width="115.72" height="64.73"/><path class="p" d="M509.34,429.21h-115.72c-.47,0-.86-.38-.86-.86v-64.74c0-.48,.39-.86,.86-.86h115.72c.47,0,.86,.38,.86,.86v64.74c0,.48-.39,.86-.86,.86Zm-114.86-1.72h114v-63.02h-114v63.02Z"/><g class="a`"><path class="p" d="M476.9,144.7c-3.29-11.65-13.36-20.13-25.28-20.13s-21.98,8.48-25.28,20.13h50.55Z"/><path class="p" d="M476.89,145.57h-50.55c-.27,0-.52-.13-.69-.34-.16-.22-.22-.49-.14-.75,3.52-12.41,14-20.75,26.1-20.75s22.6,8.34,26.1,20.75c.07,.26,.02,.54-.14,.75-.16,.22-.42,.34-.69,.34Zm-49.39-1.72h48.23c-3.59-11.06-13.15-18.41-24.11-18.41s-20.52,7.35-24.11,18.41Z"/></g><rect class="q" x="385.47" y="361.74" width="125.38" height="2.76"/><g class="y"><path class="q" d="M448.07,187.46c-18.35,0-33.28-15.08-33.28-33.62s14.93-33.62,33.28-33.62,33.27,15.08,33.27,33.62-14.92,33.62-33.27,33.62Zm0-63.12c-16.07,0-29.15,13.23-29.15,29.49s13.08,29.49,29.15,29.49,29.14-13.23,29.14-29.49-13.07-29.49-29.14-29.49Z"/></g><rect class="q" x="417.38" y="142.19" width="61.37" height="2.76"/><g class="x"><path class="q" d="M438.81,156.97c0,.9-.72,1.62-1.6,1.62s-1.61-.72-1.61-1.62,.72-1.62,1.61-1.62,1.6,.72,1.6,1.62"/><path class="q" d="M460.52,156.97c0,.9-.72,1.62-1.6,1.62s-1.61-.72-1.61-1.62,.72-1.62,1.61-1.62,1.6,.72,1.6,1.62"/><path class="q" d="M414.86,483.74c-1.14,0-2.07-.92-2.07-2.07v-51.48c0-1.14,.93-2.07,2.07-2.07s2.07,.92,2.07,2.07v51.48c0,1.14-.93,2.07-2.07,2.07Z"/><path class="q" d="M480.7,483.74c-1.14,0-2.07-.92-2.07-2.07v-51.48c0-1.14,.93-2.07,2.07-2.07s2.07,.92,2.07,2.07v51.48c0,1.14-.93,2.07-2.07,2.07Z"/></g><path class="q" d="M416.89,321.46c-1.14,0-2.07-.92-2.07-2.07v-61.56c0-1.14,.93-2.07,2.07-2.07s2.07,.92,2.07,2.07v61.56c0,1.14-.93,2.07-2.07,2.07Z"/><g class="w"><path class="q" d="M509.51,431.06h-123.47c-1.14,0-2.07-.92-2.07-2.07v-156.36c0-38.24,29.22-70.54,63.8-70.54s64.22,32.3,64.22,70.54h0l-.42,156.37c0,1.14-.93,2.06-2.07,2.06Zm-121.4-4.13h119.34l.42-154.31c0-35.99-27.52-66.41-60.09-66.41s-59.67,30.41-59.67,66.41v154.3Z"/></g><path class="q" d="M445.42,430.08c-.76,0-1.38-.62-1.38-1.38v-53.83c0-.76,.62-1.38,1.38-1.38s1.38,.62,1.38,1.38v53.83c0,.76-.62,1.38-1.38,1.38Z"/><path class="q" d="M481.25,320.19c-1.14,0-2.07-.92-2.07-2.06l-.12-60.29c0-1.14,.92-2.07,2.06-2.07h0c1.14,0,2.07,.92,2.07,2.06l.12,60.29c0,1.14-.92,2.07-2.06,2.07h0Z"/></g></svg>