<?xml version="1.0" encoding="UTF-8"?><svg id="a" xmlns="http://www.w3.org/2000/svg" viewBox="0 0 512 126.94"><defs><style>.b{fill:#fff;}.c{fill:#fae2c8;}.d{fill:#df8000;}.e{fill:#2b2961;}</style></defs><polygon class="b" points="219.3 .38 219.3 126.56 292.63 126.56 292.7 111.53 292.7 .38 219.3 .38"/><path class="e" d="M292.63,126.94h-73.34c-.21,0-.38-.17-.38-.38V.38c0-.21,.17-.38,.38-.38h73.4c.21,0,.38,.17,.38,.38V111.53l-.07,15.03c0,.21-.17,.38-.38,.38Zm-72.95-.77h72.57l.06-14.65V.77h-72.63V126.18Z"/><polygon class="b" points="292.27 .38 292.27 126.56 365.61 126.56 365.67 111.53 365.67 .38 292.27 .38"/><path class="e" d="M365.61,126.94h-73.34c-.21,0-.38-.17-.38-.38V.38c0-.21,.17-.38,.38-.38h73.4c.21,0,.38,.17,.38,.38V111.53l-.07,15.03c0,.21-.17,.38-.38,.38Zm-72.95-.77h72.57l.06-14.65V.77h-72.63V126.18Z"/><g><path class="d" d="M240.31,100.24v-3.04l9.15-11.11c.9-1.1,1.27-1.97,1.27-3.17,0-2.14-1.27-3.61-3.47-3.61-1.8,0-3.51,1-3.51,3.67h-3.41c0-4.04,2.87-6.71,6.91-6.71s6.88,2.57,6.88,6.68c0,2.1-.77,3.34-2.24,5.14l-7.44,9.11h9.68v3.04h-13.82Z"/><path class="d" d="M270.15,89.22l-5.41,11.01h-3.64l5.11-10.21c-.63,.27-1.4,.37-2.14,.37-3.44,0-6.21-2.7-6.21-6.88s2.9-7.24,7.01-7.24,7.04,2.7,7.04,7.11c0,1.94-.73,3.77-1.77,5.84Zm-5.27-9.92c-2.14,0-3.61,1.6-3.61,4.14,0,2.34,1.33,4.11,3.61,4.11,2.14,0,3.64-1.54,3.64-4.11s-1.5-4.14-3.64-4.14Z"/></g><polygon class="b" points="219.3 .38 219.3 126.56 292.63 126.56 292.7 111.53 292.7 .38 219.3 .38"/><path class="e" d="M292.63,126.94h-73.34c-.21,0-.38-.17-.38-.38V.38c0-.21,.17-.38,.38-.38h73.4c.21,0,.38,.17,.38,.38V111.53l-.07,15.03c0,.21-.17,.38-.38,.38Zm-72.95-.77h72.57l.06-14.65V.77h-72.63V126.18Z"/><polygon class="b" points="292.27 .38 292.27 126.56 365.61 126.56 365.67 111.53 365.67 .38 292.27 .38"/><path class="e" d="M365.61,126.94h-73.34c-.21,0-.38-.17-.38-.38V.38c0-.21,.17-.38,.38-.38h73.4c.21,0,.38,.17,.38,.38V111.53l-.07,15.03c0,.21-.17,.38-.38,.38Zm-72.95-.77h72.57l.06-14.65V.77h-72.63V126.18Z"/><g><path class="d" d="M240.31,100.24v-3.04l9.15-11.11c.9-1.1,1.27-1.97,1.27-3.17,0-2.14-1.27-3.61-3.47-3.61-1.8,0-3.51,1-3.51,3.67h-3.41c0-4.04,2.87-6.71,6.91-6.71s6.88,2.57,6.88,6.68c0,2.1-.77,3.34-2.24,5.14l-7.44,9.11h9.68v3.04h-13.82Z"/><path class="d" d="M270.15,89.22l-5.41,11.01h-3.64l5.11-10.21c-.63,.27-1.4,.37-2.14,.37-3.44,0-6.21-2.7-6.21-6.88s2.9-7.24,7.01-7.24,7.04,2.7,7.04,7.11c0,1.94-.73,3.77-1.77,5.84Zm-5.27-9.92c-2.14,0-3.61,1.6-3.61,4.14,0,2.34,1.33,4.11,3.61,4.11,2.14,0,3.64-1.54,3.64-4.11s-1.5-4.14-3.64-4.14Z"/></g><polygon class="b" points="219.3 .38 219.3 126.56 292.63 126.56 292.7 111.53 292.7 .38 219.3 .38"/><path class="e" d="M292.63,126.94h-73.34c-.21,0-.38-.17-.38-.38V.38c0-.21,.17-.38,.38-.38h73.4c.21,0,.38,.17,.38,.38V111.53l-.07,15.03c0,.21-.17,.38-.38,.38Zm-72.95-.77h72.57l.06-14.65V.77h-72.63V126.18Z"/><polygon class="b" points="292.27 .38 292.27 126.56 365.61 126.56 365.67 111.53 365.67 .38 292.27 .38"/><path class="e" d="M365.61,126.94h-73.34c-.21,0-.38-.17-.38-.38V.38c0-.21,.17-.38,.38-.38h73.4c.21,0,.38,.17,.38,.38V111.53l-.07,15.03c0,.21-.17,.38-.38,.38Zm-72.95-.77h72.57l.06-14.65V.77h-72.63V126.18Z"/><polygon class="b" points=".38 .38 .38 126.56 73.72 126.56 73.79 111.53 73.79 .38 .38 .38"/><path class="e" d="M73.72,126.94H.38c-.21,0-.38-.17-.38-.38V.38c0-.21,.17-.38,.38-.38H73.79c.21,0,.38,.17,.38,.38V111.53l-.07,15.03c0,.21-.17,.38-.38,.38ZM.77,126.18H73.34l.06-14.65V.77H.77V126.18Z"/><polygon class="b" points="73.36 .38 73.36 126.56 146.69 126.56 146.76 111.53 146.76 .38 73.36 .38"/><path class="e" d="M146.69,126.94H73.36c-.21,0-.38-.17-.38-.38V.38c0-.21,.17-.38,.38-.38h73.4c.21,0,.38,.17,.38,.38V111.53l-.07,15.03c0,.21-.17,.38-.38,.38Zm-72.95-.77h72.57l.06-14.65V.77H73.74V126.18Z"/><polygon class="b" points="146.33 .38 146.33 126.56 219.66 126.56 219.73 111.53 219.73 .38 146.33 .38"/><path class="e" d="M219.66,126.94h-73.34c-.21,0-.38-.17-.38-.38V.38c0-.21,.17-.38,.38-.38h73.4c.21,0,.38,.17,.38,.38V111.53l-.07,15.03c0,.21-.17,.38-.38,.38Zm-72.95-.77h72.57l.06-14.65V.77h-72.63V126.18Z"/><polygon class="b" points="365.24 .38 365.24 126.56 438.58 126.56 438.65 111.53 438.65 .38 365.24 .38"/><path class="e" d="M438.58,126.94h-73.34c-.21,0-.38-.17-.38-.38V.38c0-.21,.17-.38,.38-.38h73.4c.21,0,.38,.17,.38,.38V111.53l-.07,15.03c0,.21-.17,.38-.38,.38Zm-72.95-.77h72.57l.06-14.65V.77h-72.63V126.18Z"/><polygon class="b" points="438.21 .38 438.21 126.56 511.55 126.56 511.62 111.53 511.62 .38 438.21 .38"/><path class="e" d="M511.55,126.94h-73.34c-.21,0-.38-.17-.38-.38V.38c0-.21,.17-.38,.38-.38h73.4c.21,0,.38,.17,.38,.38V111.53l-.07,15.03c0,.21-.17,.38-.38,.38Zm-72.95-.77h72.57l.06-14.65V.77h-72.63V126.18Z"/><rect class="e" x="0" y="50.99" width="74.17" height=".77"/><rect class="e" x="72.97" y="50.99" width="74.17" height=".77"/><rect class="e" x="145.94" y="50.99" width="74.17" height=".77"/><rect class="e" x="218.91" y="50.99" width="74.17" height=".77"/><rect class="e" x="364.86" y="50.99" width="74.17" height=".77"/><rect class="e" x="291.89" y="50.99" width="74.17" height=".77"/><rect class="e" x="437.83" y="50.99" width="74.17" height=".77"/><g><path class="e" d="M26.95,40.1v-4.3l-1.48,3.14h-.72l-1.52-3.14v4.3h-.98v-6.43h.98l1.88,4,1.84-4h.98v6.43h-.98Z"/><path class="e" d="M32.55,39.62c-.3,.3-.75,.54-1.37,.54s-1.07-.24-1.36-.54c-.43-.45-.54-1.03-.54-1.81s.11-1.34,.54-1.79c.3-.31,.74-.54,1.36-.54s1.08,.23,1.37,.54c.43,.45,.54,1.03,.54,1.79s-.11,1.36-.54,1.81Zm-.7-3.06c-.17-.17-.41-.27-.68-.27s-.5,.09-.67,.27c-.28,.28-.32,.76-.32,1.25s.04,.98,.32,1.26c.17,.17,.4,.27,.67,.27s.51-.1,.68-.27c.28-.28,.32-.76,.32-1.26s-.04-.98-.32-1.25Z"/><path class="e" d="M37.13,40.1v-2.79c0-.71-.41-1.02-.92-1.02s-.95,.32-.95,1.02v2.79h-.92v-4.58h.9v.46c.32-.34,.76-.51,1.22-.51s.86,.15,1.13,.41c.35,.34,.46,.78,.46,1.29v2.93h-.92Z"/><path class="e" d="M40.84,40.1c-.86,0-1.26-.62-1.26-1.28v-2.52h-.52v-.71h.52v-1.39h.92v1.39h.89v.71h-.89v2.47c0,.34,.16,.54,.51,.54h.38v.78h-.55Z"/><path class="e" d="M45.01,40.1v-.41c-.33,.33-.65,.47-1.22,.47s-.95-.14-1.23-.42c-.24-.24-.36-.6-.36-.98,0-.77,.53-1.32,1.58-1.32h1.21v-.33c0-.58-.29-.86-1-.86-.51,0-.75,.12-1,.44l-.61-.56c.43-.51,.88-.66,1.65-.66,1.26,0,1.89,.53,1.89,1.57v3.06h-.9Zm-.02-2.03h-1.08c-.54,0-.82,.25-.82,.66s.26,.65,.84,.65c.35,0,.62-.03,.86-.27,.14-.14,.2-.35,.2-.68v-.37Z"/><path class="e" d="M48.87,42.01c-.7,0-1.14-.16-1.62-.6l.59-.59c.29,.27,.54,.41,.99,.41,.78,0,1.08-.55,1.08-1.17v-.59c-.33,.4-.71,.52-1.19,.52s-.84-.15-1.09-.41c-.44-.45-.52-1.08-.52-1.86s.07-1.42,.52-1.86c.25-.25,.64-.4,1.1-.4,.49,0,.86,.12,1.2,.54v-.49h.89v4.56c0,1.12-.74,1.94-1.96,1.94Zm.11-5.72c-.83,0-.94,.72-.94,1.44s.11,1.44,.94,1.44,.93-.72,.93-1.44-.1-1.44-.93-1.44Z"/></g><g><path class="e" d="M96.39,39.5c-.41,.41-.99,.6-1.66,.6h-2.26v-6.43h2.26c.67,0,1.26,.2,1.66,.6,.7,.7,.65,1.64,.65,2.57s.05,1.96-.65,2.66Zm-.67-4.52c-.27-.3-.63-.43-1.09-.43h-1.18v4.68h1.18c.46,0,.82-.14,1.09-.43,.33-.37,.34-1.07,.34-1.95s0-1.49-.34-1.86Z"/><path class="e" d="M98.35,34.61v-.98h.98v.98h-.98Zm.03,5.49v-4.58h.92v4.58h-.92Z"/><path class="e" d="M101.44,38.07c0,.79,.42,1.29,1.17,1.29,.52,0,.79-.15,1.11-.47l.59,.55c-.47,.47-.91,.72-1.72,.72-1.15,0-2.06-.6-2.06-2.35,0-1.48,.77-2.34,1.94-2.34s1.94,.9,1.94,2.2v.41h-2.97Zm1.93-1.26c-.14-.34-.47-.58-.9-.58s-.77,.23-.91,.58c-.09,.21-.11,.34-.12,.63h2.06c0-.28-.04-.42-.13-.63Z"/><path class="e" d="M108.43,40.1v-2.79c0-.71-.41-1.02-.92-1.02s-.95,.32-.95,1.02v2.79h-.92v-4.58h.9v.46c.32-.34,.76-.51,1.22-.51s.86,.15,1.13,.41c.35,.34,.46,.78,.46,1.29v2.93h-.92Z"/><path class="e" d="M112.26,40.16c-.75,0-1.38-.13-1.93-.66l.61-.6c.37,.38,.87,.48,1.32,.48,.56,0,1-.2,1-.64,0-.3-.17-.5-.62-.54l-.73-.06c-.86-.07-1.36-.46-1.36-1.26,0-.9,.77-1.4,1.73-1.4,.69,0,1.27,.14,1.7,.51l-.58,.59c-.29-.24-.7-.33-1.13-.33-.55,0-.83,.24-.83,.59,0,.27,.14,.48,.63,.52l.72,.06c.86,.07,1.36,.48,1.36,1.29,0,.96-.81,1.46-1.91,1.46Z"/><path class="e" d="M116.56,40.1c-.86,0-1.26-.62-1.26-1.28v-2.52h-.52v-.71h.52v-1.39h.92v1.39h.89v.71h-.89v2.47c0,.34,.16,.54,.51,.54h.38v.78h-.55Z"/><path class="e" d="M120.73,40.1v-.41c-.33,.33-.65,.47-1.22,.47s-.95-.14-1.23-.42c-.24-.24-.36-.6-.36-.98,0-.77,.53-1.32,1.58-1.32h1.21v-.33c0-.58-.29-.86-1-.86-.51,0-.75,.12-1,.44l-.61-.56c.43-.51,.88-.66,1.65-.66,1.26,0,1.89,.53,1.89,1.57v3.06h-.9Zm-.02-2.03h-1.08c-.54,0-.82,.25-.82,.66s.26,.65,.84,.65c.35,0,.62-.03,.86-.27,.14-.14,.2-.35,.2-.68v-.37Z"/><path class="e" d="M124.59,42.01c-.7,0-1.14-.16-1.62-.6l.59-.59c.29,.27,.54,.41,.99,.41,.78,0,1.08-.55,1.08-1.17v-.59c-.33,.4-.71,.52-1.19,.52s-.84-.15-1.09-.41c-.44-.45-.52-1.08-.52-1.86s.07-1.42,.52-1.86c.25-.25,.64-.4,1.1-.4,.49,0,.86,.12,1.2,.54v-.49h.89v4.56c0,1.12-.74,1.94-1.96,1.94Zm.11-5.72c-.83,0-.94,.72-.94,1.44s.11,1.44,.94,1.44,.93-.72,.93-1.44-.1-1.44-.93-1.44Z"/></g><g><path class="e" d="M170.1,40.1v-4.3l-1.48,3.14h-.72l-1.52-3.14v4.3h-.98v-6.43h.98l1.88,4,1.84-4h.98v6.43h-.98Z"/><path class="e" d="M172.62,34.61v-.98h.98v.98h-.98Zm.03,5.49v-4.58h.92v4.58h-.92Z"/><path class="e" d="M176.4,40.1c-.86,0-1.26-.62-1.26-1.28v-2.52h-.52v-.71h.52v-1.39h.92v1.39h.89v.71h-.89v2.47c0,.34,.16,.54,.51,.54h.38v.78h-.55Z"/><path class="e" d="M179.49,40.1c-.86,0-1.26-.62-1.26-1.28v-2.52h-.52v-.71h.52v-1.39h.92v1.39h.89v.71h-.89v2.47c0,.34,.16,.54,.51,.54h.38v.78h-.55Z"/><path class="e" d="M185.7,40.1h-.79l-1.08-3.2-1.07,3.2h-.8l-1.42-4.58h.98l.89,3.23,1.07-3.23h.71l1.06,3.23,.89-3.23h.99l-1.43,4.58Z"/><path class="e" d="M190.94,39.62c-.3,.3-.75,.54-1.37,.54s-1.07-.24-1.36-.54c-.43-.45-.54-1.03-.54-1.81s.11-1.34,.54-1.79c.3-.31,.74-.54,1.36-.54s1.08,.23,1.37,.54c.43,.45,.54,1.03,.54,1.79s-.11,1.36-.54,1.81Zm-.7-3.06c-.17-.17-.41-.27-.68-.27s-.5,.09-.67,.27c-.28,.28-.32,.76-.32,1.25s.04,.98,.32,1.26c.17,.17,.4,.27,.67,.27s.51-.1,.68-.27c.28-.28,.32-.76,.32-1.26s-.04-.98-.32-1.25Z"/><path class="e" d="M194.53,40.16c-1.03,0-2.04-.63-2.04-2.35s1.01-2.34,2.04-2.34c.63,0,1.08,.18,1.51,.64l-.63,.62c-.29-.32-.52-.43-.88-.43s-.65,.15-.85,.41c-.2,.25-.27,.58-.27,1.11s.07,.87,.27,1.12c.2,.26,.5,.41,.85,.41s.59-.12,.88-.43l.63,.61c-.43,.46-.88,.65-1.51,.65Z"/><path class="e" d="M199.89,40.1v-2.81c0-.69-.41-1-.92-1s-.93,.32-.93,1v2.81h-.92v-6.43h.92v2.31c.32-.34,.73-.51,1.19-.51,1.02,0,1.59,.68,1.59,1.68v2.95h-.92Z"/></g><g><path class="e" d="M236.59,39.5c-.41,.41-.99,.6-1.66,.6h-2.26v-6.43h2.26c.67,0,1.26,.2,1.66,.6,.7,.7,.65,1.64,.65,2.57s.05,1.96-.65,2.66Zm-.67-4.52c-.27-.3-.63-.43-1.09-.43h-1.18v4.68h1.18c.46,0,.82-.14,1.09-.43,.33-.37,.34-1.07,.34-1.95s0-1.49-.34-1.86Z"/><path class="e" d="M241.64,39.62c-.3,.3-.75,.54-1.37,.54s-1.07-.24-1.36-.54c-.43-.45-.54-1.03-.54-1.81s.11-1.34,.54-1.79c.3-.31,.74-.54,1.36-.54s1.08,.23,1.37,.54c.43,.45,.54,1.03,.54,1.79s-.11,1.36-.54,1.81Zm-.7-3.06c-.17-.17-.41-.27-.68-.27s-.5,.09-.67,.27c-.28,.28-.32,.76-.32,1.25s.04,.98,.32,1.26c.17,.17,.4,.27,.67,.27s.51-.1,.68-.27c.28-.28,.32-.76,.32-1.26s-.04-.98-.32-1.25Z"/><path class="e" d="M246.23,40.1v-2.79c0-.71-.41-1.02-.92-1.02s-.95,.32-.95,1.02v2.79h-.92v-4.58h.9v.46c.32-.34,.76-.51,1.22-.51s.86,.15,1.13,.41c.35,.34,.46,.78,.46,1.29v2.93h-.92Z"/><path class="e" d="M251.36,40.1v-2.79c0-.71-.41-1.02-.92-1.02s-.95,.32-.95,1.02v2.79h-.92v-4.58h.9v.46c.32-.34,.76-.51,1.22-.51s.86,.15,1.13,.41c.35,.34,.46,.78,.46,1.29v2.93h-.92Z"/><path class="e" d="M254.38,38.07c0,.79,.42,1.29,1.17,1.29,.52,0,.79-.15,1.11-.47l.59,.55c-.47,.47-.91,.72-1.72,.72-1.15,0-2.06-.6-2.06-2.35,0-1.48,.77-2.34,1.94-2.34s1.94,.9,1.94,2.2v.41h-2.97Zm1.93-1.26c-.14-.34-.47-.58-.9-.58s-.77,.23-.91,.58c-.09,.21-.11,.34-.12,.63h2.06c0-.28-.04-.42-.13-.63Z"/><path class="e" d="M261.1,36.6c-.21-.21-.37-.31-.69-.31-.5,0-.91,.4-.91,1.03v2.78h-.92v-4.58h.9v.5c.23-.32,.7-.55,1.22-.55,.44,0,.78,.11,1.1,.43l-.7,.69Z"/><path class="e" d="M263.94,40.16c-.75,0-1.38-.13-1.93-.66l.61-.6c.37,.38,.87,.48,1.32,.48,.56,0,1-.2,1-.64,0-.3-.17-.5-.62-.54l-.73-.06c-.86-.07-1.36-.46-1.36-1.26,0-.9,.77-1.4,1.73-1.4,.69,0,1.27,.14,1.7,.51l-.58,.59c-.29-.24-.7-.33-1.13-.33-.55,0-.83,.24-.83,.59,0,.27,.14,.48,.63,.52l.72,.06c.86,.07,1.36,.48,1.36,1.29,0,.96-.81,1.46-1.91,1.46Z"/><path class="e" d="M268.24,40.1c-.86,0-1.26-.62-1.26-1.28v-2.52h-.52v-.71h.52v-1.39h.92v1.39h.89v.71h-.89v2.47c0,.34,.16,.54,.51,.54h.38v.78h-.55Z"/><path class="e" d="M272.42,40.1v-.41c-.33,.33-.65,.47-1.22,.47s-.95-.14-1.23-.42c-.24-.24-.36-.6-.36-.98,0-.77,.53-1.32,1.58-1.32h1.21v-.33c0-.58-.29-.86-1-.86-.51,0-.75,.12-1,.44l-.61-.56c.43-.51,.88-.66,1.65-.66,1.26,0,1.89,.53,1.89,1.57v3.06h-.9Zm-.02-2.03h-1.08c-.54,0-.82,.25-.82,.66s.26,.65,.84,.65c.35,0,.62-.03,.86-.27,.14-.14,.2-.35,.2-.68v-.37Z"/><path class="e" d="M276.28,42.01c-.7,0-1.14-.16-1.62-.6l.59-.59c.29,.27,.54,.41,.99,.41,.78,0,1.08-.55,1.08-1.17v-.59c-.33,.4-.71,.52-1.19,.52s-.84-.15-1.09-.41c-.44-.45-.52-1.08-.52-1.86s.07-1.42,.52-1.86c.25-.25,.64-.4,1.1-.4,.49,0,.86,.12,1.2,.54v-.49h.89v4.56c0,1.12-.74,1.94-1.96,1.94Zm.11-5.72c-.83,0-.94,.72-.94,1.44s.11,1.44,.94,1.44,.93-.72,.93-1.44-.1-1.44-.93-1.44Z"/></g><g><path class="e" d="M315.79,34.54v1.96h2.68v.87h-2.68v2.72h-.98v-6.43h4.11v.87h-3.14Z"/><path class="e" d="M322.25,36.6c-.21-.21-.37-.31-.69-.31-.5,0-.91,.4-.91,1.03v2.78h-.92v-4.58h.9v.5c.23-.32,.7-.55,1.22-.55,.44,0,.78,.11,1.1,.43l-.7,.69Z"/><path class="e" d="M324.11,38.07c0,.79,.42,1.29,1.17,1.29,.52,0,.79-.15,1.11-.47l.59,.55c-.47,.47-.91,.72-1.72,.72-1.15,0-2.06-.6-2.06-2.35,0-1.48,.77-2.34,1.94-2.34s1.94,.9,1.94,2.2v.41h-2.97Zm1.93-1.26c-.14-.34-.47-.58-.9-.58s-.77,.23-.91,.58c-.09,.21-.11,.34-.12,.63h2.06c0-.28-.04-.42-.13-.63Z"/><path class="e" d="M328.28,34.61v-.98h.98v.98h-.98Zm.03,5.49v-4.58h.92v4.58h-.92Z"/><path class="e" d="M332.06,40.1c-.86,0-1.26-.62-1.26-1.28v-2.52h-.52v-.71h.52v-1.39h.92v1.39h.89v.71h-.89v2.47c0,.34,.16,.54,.51,.54h.38v.78h-.55Z"/><path class="e" d="M336.24,40.1v-.41c-.33,.33-.65,.47-1.22,.47s-.95-.14-1.23-.42c-.24-.24-.36-.6-.36-.98,0-.77,.53-1.32,1.58-1.32h1.21v-.33c0-.58-.29-.86-1-.86-.51,0-.75,.12-1,.44l-.61-.56c.43-.51,.88-.66,1.65-.66,1.26,0,1.89,.53,1.89,1.57v3.06h-.9Zm-.02-2.03h-1.08c-.54,0-.82,.25-.82,.66s.26,.65,.84,.65c.35,0,.62-.03,.86-.27,.14-.14,.2-.35,.2-.68v-.37Z"/><path class="e" d="M340.1,42.01c-.7,0-1.14-.16-1.62-.6l.59-.59c.29,.27,.54,.41,.99,.41,.78,0,1.08-.55,1.08-1.17v-.59c-.33,.4-.71,.52-1.19,.52s-.84-.15-1.09-.41c-.44-.45-.52-1.08-.52-1.86s.07-1.42,.52-1.86c.25-.25,.64-.4,1.1-.4,.49,0,.86,.12,1.2,.54v-.49h.89v4.56c0,1.12-.74,1.94-1.96,1.94Zm.11-5.72c-.83,0-.94,.72-.94,1.44s.11,1.44,.94,1.44,.93-.72,.93-1.44-.1-1.44-.93-1.44Z"/></g><g><path class="e" d="M386.23,40.16c-.97,0-1.66-.23-2.28-.85l.65-.64c.47,.47,.99,.62,1.65,.62,.84,0,1.33-.37,1.33-.99,0-.28-.08-.51-.25-.67-.16-.15-.33-.21-.71-.27l-.76-.11c-.52-.07-.94-.25-1.22-.51-.32-.3-.47-.71-.47-1.23,0-1.12,.81-1.89,2.15-1.89,.85,0,1.45,.22,2,.73l-.62,.62c-.4-.38-.86-.5-1.4-.5-.76,0-1.17,.43-1.17,1,0,.23,.07,.44,.24,.59,.16,.15,.42,.25,.72,.3l.73,.11c.6,.09,.93,.24,1.2,.48,.35,.31,.52,.77,.52,1.32,0,1.19-.97,1.89-2.31,1.89Z"/><path class="e" d="M392.22,40.1v-.41c-.33,.33-.65,.47-1.22,.47s-.95-.14-1.23-.42c-.24-.24-.36-.6-.36-.98,0-.77,.53-1.32,1.58-1.32h1.21v-.33c0-.58-.29-.86-1-.86-.51,0-.75,.12-1,.44l-.61-.56c.43-.51,.88-.66,1.65-.66,1.26,0,1.89,.53,1.89,1.57v3.06h-.9Zm-.02-2.03h-1.08c-.54,0-.82,.25-.82,.66s.26,.65,.84,.65c.35,0,.62-.03,.86-.27,.14-.14,.2-.35,.2-.68v-.37Z"/><path class="e" d="M400.13,40.1v-2.79c0-.71-.41-1.02-.92-1.02s-.95,.32-.95,.98v2.84h-.92v-2.79c0-.71-.41-1.02-.92-1.02s-.95,.32-.95,1.02v2.79h-.92v-4.58h.9v.46c.31-.33,.76-.51,1.22-.51,.57,0,1.01,.23,1.3,.67,.37-.45,.83-.67,1.44-.67,.47,0,.89,.15,1.16,.41,.35,.34,.49,.78,.49,1.29v2.93h-.92Z"/><path class="e" d="M403.95,40.16c-.75,0-1.38-.13-1.93-.66l.61-.6c.37,.38,.87,.48,1.32,.48,.56,0,1-.2,1-.64,0-.3-.17-.5-.62-.54l-.73-.06c-.86-.07-1.36-.46-1.36-1.26,0-.9,.77-1.4,1.73-1.4,.69,0,1.27,.14,1.7,.51l-.58,.59c-.29-.24-.7-.33-1.13-.33-.55,0-.83,.24-.83,.59,0,.27,.14,.48,.63,.52l.72,.06c.86,.07,1.36,.48,1.36,1.29,0,.96-.81,1.46-1.91,1.46Z"/><path class="e" d="M408.26,40.1c-.86,0-1.26-.62-1.26-1.28v-2.52h-.52v-.71h.52v-1.39h.92v1.39h.89v.71h-.89v2.47c0,.34,.16,.54,.51,.54h.38v.78h-.55Z"/><path class="e" d="M412.42,40.1v-.41c-.33,.33-.65,.47-1.22,.47s-.95-.14-1.23-.42c-.24-.24-.36-.6-.36-.98,0-.77,.53-1.32,1.58-1.32h1.21v-.33c0-.58-.29-.86-1-.86-.51,0-.75,.12-1,.44l-.61-.56c.43-.51,.88-.66,1.65-.66,1.26,0,1.89,.53,1.89,1.57v3.06h-.9Zm-.02-2.03h-1.08c-.54,0-.82,.25-.82,.66s.26,.65,.84,.65c.35,0,.62-.03,.86-.27,.14-.14,.2-.35,.2-.68v-.37Z"/><path class="e" d="M416.28,42.01c-.7,0-1.14-.16-1.62-.6l.59-.59c.29,.27,.54,.41,.99,.41,.78,0,1.08-.55,1.08-1.17v-.59c-.33,.4-.71,.52-1.19,.52s-.84-.15-1.09-.41c-.44-.45-.52-1.08-.52-1.86s.07-1.42,.52-1.86c.25-.25,.64-.4,1.1-.4,.49,0,.86,.12,1.2,.54v-.49h.89v4.56c0,1.12-.74,1.94-1.96,1.94Zm.11-5.72c-.83,0-.94,.72-.94,1.44s.11,1.44,.94,1.44,.93-.72,.93-1.44-.1-1.44-.93-1.44Z"/></g><g><path class="e" d="M460.21,40.16c-.97,0-1.66-.23-2.28-.85l.65-.64c.47,.47,.99,.62,1.65,.62,.84,0,1.33-.37,1.33-.99,0-.28-.08-.51-.25-.67-.16-.15-.33-.21-.71-.27l-.76-.11c-.52-.07-.94-.25-1.22-.51-.32-.3-.47-.71-.47-1.23,0-1.12,.81-1.89,2.15-1.89,.85,0,1.45,.22,2,.73l-.62,.62c-.4-.38-.86-.5-1.4-.5-.76,0-1.17,.43-1.17,1,0,.23,.07,.44,.24,.59,.16,.15,.42,.25,.72,.3l.73,.11c.6,.09,.93,.24,1.2,.48,.35,.31,.52,.77,.52,1.32,0,1.19-.97,1.89-2.31,1.89Z"/><path class="e" d="M466.79,39.62c-.3,.3-.75,.54-1.37,.54s-1.07-.24-1.36-.54c-.43-.45-.54-1.03-.54-1.81s.11-1.34,.54-1.79c.3-.31,.74-.54,1.36-.54s1.08,.23,1.37,.54c.43,.45,.54,1.03,.54,1.79s-.11,1.36-.54,1.81Zm-.7-3.06c-.17-.17-.41-.27-.68-.27s-.5,.09-.67,.27c-.28,.28-.32,.76-.32,1.25s.04,.98,.32,1.26c.17,.17,.4,.27,.67,.27s.51-.1,.68-.27c.28-.28,.32-.76,.32-1.26s-.04-.98-.32-1.25Z"/><path class="e" d="M471.38,40.1v-2.79c0-.71-.41-1.02-.92-1.02s-.95,.32-.95,1.02v2.79h-.92v-4.58h.9v.46c.32-.34,.76-.51,1.22-.51s.86,.15,1.13,.41c.35,.34,.46,.78,.46,1.29v2.93h-.92Z"/><path class="e" d="M476.51,40.1v-2.79c0-.71-.41-1.02-.92-1.02s-.95,.32-.95,1.02v2.79h-.92v-4.58h.9v.46c.32-.34,.76-.51,1.22-.51s.86,.15,1.13,.41c.35,.34,.46,.78,.46,1.29v2.93h-.92Z"/><path class="e" d="M480.22,40.1c-.86,0-1.26-.62-1.26-1.28v-2.52h-.52v-.71h.52v-1.39h.92v1.39h.89v.71h-.89v2.47c0,.34,.16,.54,.51,.54h.38v.78h-.55Z"/><path class="e" d="M484.4,40.1v-.41c-.33,.33-.65,.47-1.22,.47s-.95-.14-1.23-.42c-.24-.24-.36-.6-.36-.98,0-.77,.53-1.32,1.58-1.32h1.21v-.33c0-.58-.29-.86-1-.86-.51,0-.75,.12-1,.44l-.61-.56c.43-.51,.88-.66,1.65-.66,1.26,0,1.89,.53,1.89,1.57v3.06h-.9Zm-.02-2.03h-1.08c-.54,0-.82,.25-.82,.66s.26,.65,.84,.65c.35,0,.62-.03,.86-.27,.14-.14,.2-.35,.2-.68v-.37Z"/><path class="e" d="M488.26,42.01c-.7,0-1.14-.16-1.62-.6l.59-.59c.29,.27,.54,.41,.99,.41,.78,0,1.08-.55,1.08-1.17v-.59c-.33,.4-.71,.52-1.19,.52s-.84-.15-1.09-.41c-.44-.45-.52-1.08-.52-1.86s.07-1.42,.52-1.86c.25-.25,.64-.4,1.1-.4,.49,0,.86,.12,1.2,.54v-.49h.89v4.56c0,1.12-.74,1.94-1.96,1.94Zm.11-5.72c-.83,0-.94,.72-.94,1.44s.11,1.44,.94,1.44,.93-.72,.93-1.44-.1-1.44-.93-1.44Z"/></g><g><path class="c" d="M392.43,100.44c-3.77,0-6.84-2.57-6.84-6.81v-10.55c0-4.24,3.07-6.81,6.84-6.81s6.88,2.57,6.88,6.81v10.55c0,4.24-3.1,6.81-6.88,6.81Zm3.47-17.26c0-2.3-1.3-3.87-3.47-3.87s-3.44,1.57-3.44,3.87v10.35c0,2.3,1.27,3.87,3.44,3.87s3.47-1.57,3.47-3.87v-10.35Z"/><path class="c" d="M409.79,100.24v-20.06l-4.64,4.07v-3.77l4.64-4.01h3.41v23.77h-3.41Z"/></g><g><path class="c" d="M465.07,100.44c-3.77,0-6.84-2.57-6.84-6.81v-10.55c0-4.24,3.07-6.81,6.84-6.81s6.88,2.57,6.88,6.81v10.55c0,4.24-3.1,6.81-6.88,6.81Zm3.47-17.26c0-2.3-1.3-3.87-3.47-3.87s-3.44,1.57-3.44,3.87v10.35c0,2.3,1.27,3.87,3.44,3.87s3.47-1.57,3.47-3.87v-10.35Z"/><path class="c" d="M476.09,100.24v-3.04l9.15-11.11c.9-1.1,1.27-1.97,1.27-3.17,0-2.14-1.27-3.61-3.47-3.61-1.8,0-3.51,1-3.51,3.67h-3.41c0-4.04,2.87-6.71,6.91-6.71s6.88,2.57,6.88,6.68c0,2.1-.77,3.34-2.24,5.14l-7.44,9.11h9.68v3.04h-13.82Z"/></g><g><path class="d" d="M166.74,100.24v-3.04l9.15-11.11c.9-1.1,1.27-1.97,1.27-3.17,0-2.14-1.27-3.61-3.47-3.61-1.8,0-3.51,1-3.51,3.67h-3.41c0-4.04,2.87-6.71,6.91-6.71s6.88,2.57,6.88,6.68c0,2.1-.77,3.34-2.24,5.14l-7.44,9.11h9.68v3.04h-13.82Z"/><path class="d" d="M191.32,100.44c-4.07,0-7.31-2.61-7.31-6.91,0-2.84,1.6-4.58,3.27-5.58-1.54-.94-2.87-2.6-2.87-5.11,0-3.97,3.04-6.58,6.91-6.58s6.94,2.6,6.94,6.58c0,2.51-1.33,4.17-2.87,5.11,1.67,1,3.27,2.74,3.27,5.58,0,4.3-3.27,6.91-7.34,6.91Zm0-10.95c-2.2,0-3.91,1.77-3.91,3.97s1.7,3.94,3.91,3.94,3.9-1.74,3.9-3.94-1.7-3.97-3.9-3.97Zm0-10.18c-2.07,0-3.51,1.57-3.51,3.64s1.44,3.6,3.51,3.6,3.54-1.5,3.54-3.6-1.47-3.64-3.54-3.64Z"/></g><g><path class="d" d="M93.76,100.24v-3.04l9.15-11.11c.9-1.1,1.27-1.97,1.27-3.17,0-2.14-1.27-3.61-3.47-3.61-1.8,0-3.51,1-3.51,3.67h-3.41c0-4.04,2.87-6.71,6.91-6.71s6.88,2.57,6.88,6.68c0,2.1-.77,3.34-2.24,5.14l-7.44,9.11h9.68v3.04h-13.82Z"/><path class="d" d="M117.77,100.24h-3.67l7.98-20.73h-7.24v3.74h-3.27v-6.78h14.15v3.04l-7.95,20.73Z"/></g><g><path class="d" d="M20.78,100.24v-3.04l9.15-11.11c.9-1.1,1.27-1.97,1.27-3.17,0-2.14-1.27-3.61-3.47-3.61-1.8,0-3.51,1-3.51,3.67h-3.41c0-4.04,2.87-6.71,6.91-6.71s6.88,2.57,6.88,6.68c0,2.1-.77,3.34-2.24,5.14l-7.44,9.11h9.68v3.04h-13.82Z"/><path class="d" d="M45.39,100.44c-4.11,0-7.04-2.7-7.04-7.11,0-1.94,.73-3.77,1.77-5.84l5.41-11.02h3.64l-5.11,10.22c.63-.27,1.37-.37,2.1-.37,3.44,0,6.24,2.7,6.24,6.87s-2.9,7.25-7.01,7.25Zm-.03-11.28c-2.14,0-3.61,1.54-3.61,4.1s1.47,4.14,3.61,4.14,3.64-1.6,3.64-4.14c0-2.34-1.37-4.1-3.64-4.1Z"/></g><polygon class="d" points="418.99 89.53 403.21 73.75 403.21 105.32 418.99 89.53"/><polygon class="b" points=".38 .38 .38 126.56 73.72 126.56 73.79 111.53 73.79 .38 .38 .38"/><path class="e" d="M73.72,126.94H.38c-.21,0-.38-.17-.38-.38V.38c0-.21,.17-.38,.38-.38H73.79c.21,0,.38,.17,.38,.38V111.53l-.07,15.03c0,.21-.17,.38-.38,.38ZM.77,126.18H73.34l.06-14.65V.77H.77V126.18Z"/><polygon class="b" points="73.36 .38 73.36 126.56 146.69 126.56 146.76 111.53 146.76 .38 73.36 .38"/><path class="e" d="M146.69,126.94H73.36c-.21,0-.38-.17-.38-.38V.38c0-.21,.17-.38,.38-.38h73.4c.21,0,.38,.17,.38,.38V111.53l-.07,15.03c0,.21-.17,.38-.38,.38Zm-72.95-.77h72.57l.06-14.65V.77H73.74V126.18Z"/><polygon class="b" points="146.33 .38 146.33 126.56 219.66 126.56 219.73 111.53 219.73 .38 146.33 .38"/><path class="e" d="M219.66,126.94h-73.34c-.21,0-.38-.17-.38-.38V.38c0-.21,.17-.38,.38-.38h73.4c.21,0,.38,.17,.38,.38V111.53l-.07,15.03c0,.21-.17,.38-.38,.38Zm-72.95-.77h72.57l.06-14.65V.77h-72.63V126.18Z"/><polygon class="b" points="365.24 .38 365.24 126.56 438.58 126.56 438.65 111.53 438.65 .38 365.24 .38"/><path class="e" d="M438.58,126.94h-73.34c-.21,0-.38-.17-.38-.38V.38c0-.21,.17-.38,.38-.38h73.4c.21,0,.38,.17,.38,.38V111.53l-.07,15.03c0,.21-.17,.38-.38,.38Zm-72.95-.77h72.57l.06-14.65V.77h-72.63V126.18Z"/><polygon class="b" points="438.21 .38 438.21 126.56 511.55 126.56 511.62 111.53 511.62 .38 438.21 .38"/><path class="e" d="M511.55,126.94h-73.34c-.21,0-.38-.17-.38-.38V.38c0-.21,.17-.38,.38-.38h73.4c.21,0,.38,.17,.38,.38V111.53l-.07,15.03c0,.21-.17,.38-.38,.38Zm-72.95-.77h72.57l.06-14.65V.77h-72.63V126.18Z"/><rect class="e" x="0" y="50.99" width="74.17" height=".77"/><rect class="e" x="72.97" y="50.99" width="74.17" height=".77"/><rect class="e" x="145.94" y="50.99" width="74.17" height=".77"/><rect class="e" x="218.91" y="50.99" width="74.17" height=".77"/><rect class="e" x="364.86" y="50.99" width="74.17" height=".77"/><rect class="e" x="291.89" y="50.99" width="74.17" height=".77"/><rect class="e" x="437.83" y="50.99" width="74.17" height=".77"/><g><path class="e" d="M26.95,40.1v-4.3l-1.48,3.14h-.72l-1.52-3.14v4.3h-.98v-6.43h.98l1.88,4,1.84-4h.98v6.43h-.98Z"/><path class="e" d="M32.55,39.62c-.3,.3-.75,.54-1.37,.54s-1.07-.24-1.36-.54c-.43-.45-.54-1.03-.54-1.81s.11-1.34,.54-1.79c.3-.31,.74-.54,1.36-.54s1.08,.23,1.37,.54c.43,.45,.54,1.03,.54,1.79s-.11,1.36-.54,1.81Zm-.7-3.06c-.17-.17-.41-.27-.68-.27s-.5,.09-.67,.27c-.28,.28-.32,.76-.32,1.25s.04,.98,.32,1.26c.17,.17,.4,.27,.67,.27s.51-.1,.68-.27c.28-.28,.32-.76,.32-1.26s-.04-.98-.32-1.25Z"/><path class="e" d="M37.13,40.1v-2.79c0-.71-.41-1.02-.92-1.02s-.95,.32-.95,1.02v2.79h-.92v-4.58h.9v.46c.32-.34,.76-.51,1.22-.51s.86,.15,1.13,.41c.35,.34,.46,.78,.46,1.29v2.93h-.92Z"/><path class="e" d="M40.84,40.1c-.86,0-1.26-.62-1.26-1.28v-2.52h-.52v-.71h.52v-1.39h.92v1.39h.89v.71h-.89v2.47c0,.34,.16,.54,.51,.54h.38v.78h-.55Z"/><path class="e" d="M45.01,40.1v-.41c-.33,.33-.65,.47-1.22,.47s-.95-.14-1.23-.42c-.24-.24-.36-.6-.36-.98,0-.77,.53-1.32,1.58-1.32h1.21v-.33c0-.58-.29-.86-1-.86-.51,0-.75,.12-1,.44l-.61-.56c.43-.51,.88-.66,1.65-.66,1.26,0,1.89,.53,1.89,1.57v3.06h-.9Zm-.02-2.03h-1.08c-.54,0-.82,.25-.82,.66s.26,.65,.84,.65c.35,0,.62-.03,.86-.27,.14-.14,.2-.35,.2-.68v-.37Z"/><path class="e" d="M48.87,42.01c-.7,0-1.14-.16-1.62-.6l.59-.59c.29,.27,.54,.41,.99,.41,.78,0,1.08-.55,1.08-1.17v-.59c-.33,.4-.71,.52-1.19,.52s-.84-.15-1.09-.41c-.44-.45-.52-1.08-.52-1.86s.07-1.42,.52-1.86c.25-.25,.64-.4,1.1-.4,.49,0,.86,.12,1.2,.54v-.49h.89v4.56c0,1.12-.74,1.94-1.96,1.94Zm.11-5.72c-.83,0-.94,.72-.94,1.44s.11,1.44,.94,1.44,.93-.72,.93-1.44-.1-1.44-.93-1.44Z"/></g><g><path class="e" d="M96.39,39.5c-.41,.41-.99,.6-1.66,.6h-2.26v-6.43h2.26c.67,0,1.26,.2,1.66,.6,.7,.7,.65,1.64,.65,2.57s.05,1.96-.65,2.66Zm-.67-4.52c-.27-.3-.63-.43-1.09-.43h-1.18v4.68h1.18c.46,0,.82-.14,1.09-.43,.33-.37,.34-1.07,.34-1.95s0-1.49-.34-1.86Z"/><path class="e" d="M98.35,34.61v-.98h.98v.98h-.98Zm.03,5.49v-4.58h.92v4.58h-.92Z"/><path class="e" d="M101.44,38.07c0,.79,.42,1.29,1.17,1.29,.52,0,.79-.15,1.11-.47l.59,.55c-.47,.47-.91,.72-1.72,.72-1.15,0-2.06-.6-2.06-2.35,0-1.48,.77-2.34,1.94-2.34s1.94,.9,1.94,2.2v.41h-2.97Zm1.93-1.26c-.14-.34-.47-.58-.9-.58s-.77,.23-.91,.58c-.09,.21-.11,.34-.12,.63h2.06c0-.28-.04-.42-.13-.63Z"/><path class="e" d="M108.43,40.1v-2.79c0-.71-.41-1.02-.92-1.02s-.95,.32-.95,1.02v2.79h-.92v-4.58h.9v.46c.32-.34,.76-.51,1.22-.51s.86,.15,1.13,.41c.35,.34,.46,.78,.46,1.29v2.93h-.92Z"/><path class="e" d="M112.26,40.16c-.75,0-1.38-.13-1.93-.66l.61-.6c.37,.38,.87,.48,1.32,.48,.56,0,1-.2,1-.64,0-.3-.17-.5-.62-.54l-.73-.06c-.86-.07-1.36-.46-1.36-1.26,0-.9,.77-1.4,1.73-1.4,.69,0,1.27,.14,1.7,.51l-.58,.59c-.29-.24-.7-.33-1.13-.33-.55,0-.83,.24-.83,.59,0,.27,.14,.48,.63,.52l.72,.06c.86,.07,1.36,.48,1.36,1.29,0,.96-.81,1.46-1.91,1.46Z"/><path class="e" d="M116.56,40.1c-.86,0-1.26-.62-1.26-1.28v-2.52h-.52v-.71h.52v-1.39h.92v1.39h.89v.71h-.89v2.47c0,.34,.16,.54,.51,.54h.38v.78h-.55Z"/><path class="e" d="M120.73,40.1v-.41c-.33,.33-.65,.47-1.22,.47s-.95-.14-1.23-.42c-.24-.24-.36-.6-.36-.98,0-.77,.53-1.32,1.58-1.32h1.21v-.33c0-.58-.29-.86-1-.86-.51,0-.75,.12-1,.44l-.61-.56c.43-.51,.88-.66,1.65-.66,1.26,0,1.89,.53,1.89,1.57v3.06h-.9Zm-.02-2.03h-1.08c-.54,0-.82,.25-.82,.66s.26,.65,.84,.65c.35,0,.62-.03,.86-.27,.14-.14,.2-.35,.2-.68v-.37Z"/><path class="e" d="M124.59,42.01c-.7,0-1.14-.16-1.62-.6l.59-.59c.29,.27,.54,.41,.99,.41,.78,0,1.08-.55,1.08-1.17v-.59c-.33,.4-.71,.52-1.19,.52s-.84-.15-1.09-.41c-.44-.45-.52-1.08-.52-1.86s.07-1.42,.52-1.86c.25-.25,.64-.4,1.1-.4,.49,0,.86,.12,1.2,.54v-.49h.89v4.56c0,1.12-.74,1.94-1.96,1.94Zm.11-5.72c-.83,0-.94,.72-.94,1.44s.11,1.44,.94,1.44,.93-.72,.93-1.44-.1-1.44-.93-1.44Z"/></g><g><path class="e" d="M170.1,40.1v-4.3l-1.48,3.14h-.72l-1.52-3.14v4.3h-.98v-6.43h.98l1.88,4,1.84-4h.98v6.43h-.98Z"/><path class="e" d="M172.62,34.61v-.98h.98v.98h-.98Zm.03,5.49v-4.58h.92v4.58h-.92Z"/><path class="e" d="M176.4,40.1c-.86,0-1.26-.62-1.26-1.28v-2.52h-.52v-.71h.52v-1.39h.92v1.39h.89v.71h-.89v2.47c0,.34,.16,.54,.51,.54h.38v.78h-.55Z"/><path class="e" d="M179.49,40.1c-.86,0-1.26-.62-1.26-1.28v-2.52h-.52v-.71h.52v-1.39h.92v1.39h.89v.71h-.89v2.47c0,.34,.16,.54,.51,.54h.38v.78h-.55Z"/><path class="e" d="M185.7,40.1h-.79l-1.08-3.2-1.07,3.2h-.8l-1.42-4.58h.98l.89,3.23,1.07-3.23h.71l1.06,3.23,.89-3.23h.99l-1.43,4.58Z"/><path class="e" d="M190.94,39.62c-.3,.3-.75,.54-1.37,.54s-1.07-.24-1.36-.54c-.43-.45-.54-1.03-.54-1.81s.11-1.34,.54-1.79c.3-.31,.74-.54,1.36-.54s1.08,.23,1.37,.54c.43,.45,.54,1.03,.54,1.79s-.11,1.36-.54,1.81Zm-.7-3.06c-.17-.17-.41-.27-.68-.27s-.5,.09-.67,.27c-.28,.28-.32,.76-.32,1.25s.04,.98,.32,1.26c.17,.17,.4,.27,.67,.27s.51-.1,.68-.27c.28-.28,.32-.76,.32-1.26s-.04-.98-.32-1.25Z"/><path class="e" d="M194.53,40.16c-1.03,0-2.04-.63-2.04-2.35s1.01-2.34,2.04-2.34c.63,0,1.08,.18,1.51,.64l-.63,.62c-.29-.32-.52-.43-.88-.43s-.65,.15-.85,.41c-.2,.25-.27,.58-.27,1.11s.07,.87,.27,1.12c.2,.26,.5,.41,.85,.41s.59-.12,.88-.43l.63,.61c-.43,.46-.88,.65-1.51,.65Z"/><path class="e" d="M199.89,40.1v-2.81c0-.69-.41-1-.92-1s-.93,.32-.93,1v2.81h-.92v-6.43h.92v2.31c.32-.34,.73-.51,1.19-.51,1.02,0,1.59,.68,1.59,1.68v2.95h-.92Z"/></g><g><path class="e" d="M236.59,39.5c-.41,.41-.99,.6-1.66,.6h-2.26v-6.43h2.26c.67,0,1.26,.2,1.66,.6,.7,.7,.65,1.64,.65,2.57s.05,1.96-.65,2.66Zm-.67-4.52c-.27-.3-.63-.43-1.09-.43h-1.18v4.68h1.18c.46,0,.82-.14,1.09-.43,.33-.37,.34-1.07,.34-1.95s0-1.49-.34-1.86Z"/><path class="e" d="M241.64,39.62c-.3,.3-.75,.54-1.37,.54s-1.07-.24-1.36-.54c-.43-.45-.54-1.03-.54-1.81s.11-1.34,.54-1.79c.3-.31,.74-.54,1.36-.54s1.08,.23,1.37,.54c.43,.45,.54,1.03,.54,1.79s-.11,1.36-.54,1.81Zm-.7-3.06c-.17-.17-.41-.27-.68-.27s-.5,.09-.67,.27c-.28,.28-.32,.76-.32,1.25s.04,.98,.32,1.26c.17,.17,.4,.27,.67,.27s.51-.1,.68-.27c.28-.28,.32-.76,.32-1.26s-.04-.98-.32-1.25Z"/><path class="e" d="M246.23,40.1v-2.79c0-.71-.41-1.02-.92-1.02s-.95,.32-.95,1.02v2.79h-.92v-4.58h.9v.46c.32-.34,.76-.51,1.22-.51s.86,.15,1.13,.41c.35,.34,.46,.78,.46,1.29v2.93h-.92Z"/><path class="e" d="M251.36,40.1v-2.79c0-.71-.41-1.02-.92-1.02s-.95,.32-.95,1.02v2.79h-.92v-4.58h.9v.46c.32-.34,.76-.51,1.22-.51s.86,.15,1.13,.41c.35,.34,.46,.78,.46,1.29v2.93h-.92Z"/><path class="e" d="M254.38,38.07c0,.79,.42,1.29,1.17,1.29,.52,0,.79-.15,1.11-.47l.59,.55c-.47,.47-.91,.72-1.72,.72-1.15,0-2.06-.6-2.06-2.35,0-1.48,.77-2.34,1.94-2.34s1.94,.9,1.94,2.2v.41h-2.97Zm1.93-1.26c-.14-.34-.47-.58-.9-.58s-.77,.23-.91,.58c-.09,.21-.11,.34-.12,.63h2.06c0-.28-.04-.42-.13-.63Z"/><path class="e" d="M261.1,36.6c-.21-.21-.37-.31-.69-.31-.5,0-.91,.4-.91,1.03v2.78h-.92v-4.58h.9v.5c.23-.32,.7-.55,1.22-.55,.44,0,.78,.11,1.1,.43l-.7,.69Z"/><path class="e" d="M263.94,40.16c-.75,0-1.38-.13-1.93-.66l.61-.6c.37,.38,.87,.48,1.32,.48,.56,0,1-.2,1-.64,0-.3-.17-.5-.62-.54l-.73-.06c-.86-.07-1.36-.46-1.36-1.26,0-.9,.77-1.4,1.73-1.4,.69,0,1.27,.14,1.7,.51l-.58,.59c-.29-.24-.7-.33-1.13-.33-.55,0-.83,.24-.83,.59,0,.27,.14,.48,.63,.52l.72,.06c.86,.07,1.36,.48,1.36,1.29,0,.96-.81,1.46-1.91,1.46Z"/><path class="e" d="M268.24,40.1c-.86,0-1.26-.62-1.26-1.28v-2.52h-.52v-.71h.52v-1.39h.92v1.39h.89v.71h-.89v2.47c0,.34,.16,.54,.51,.54h.38v.78h-.55Z"/><path class="e" d="M272.42,40.1v-.41c-.33,.33-.65,.47-1.22,.47s-.95-.14-1.23-.42c-.24-.24-.36-.6-.36-.98,0-.77,.53-1.32,1.58-1.32h1.21v-.33c0-.58-.29-.86-1-.86-.51,0-.75,.12-1,.44l-.61-.56c.43-.51,.88-.66,1.65-.66,1.26,0,1.89,.53,1.89,1.57v3.06h-.9Zm-.02-2.03h-1.08c-.54,0-.82,.25-.82,.66s.26,.65,.84,.65c.35,0,.62-.03,.86-.27,.14-.14,.2-.35,.2-.68v-.37Z"/><path class="e" d="M276.28,42.01c-.7,0-1.14-.16-1.62-.6l.59-.59c.29,.27,.54,.41,.99,.41,.78,0,1.08-.55,1.08-1.17v-.59c-.33,.4-.71,.52-1.19,.52s-.84-.15-1.09-.41c-.44-.45-.52-1.08-.52-1.86s.07-1.42,.52-1.86c.25-.25,.64-.4,1.1-.4,.49,0,.86,.12,1.2,.54v-.49h.89v4.56c0,1.12-.74,1.94-1.96,1.94Zm.11-5.72c-.83,0-.94,.72-.94,1.44s.11,1.44,.94,1.44,.93-.72,.93-1.44-.1-1.44-.93-1.44Z"/></g><g><path class="e" d="M315.79,34.54v1.96h2.68v.87h-2.68v2.72h-.98v-6.43h4.11v.87h-3.14Z"/><path class="e" d="M322.25,36.6c-.21-.21-.37-.31-.69-.31-.5,0-.91,.4-.91,1.03v2.78h-.92v-4.58h.9v.5c.23-.32,.7-.55,1.22-.55,.44,0,.78,.11,1.1,.43l-.7,.69Z"/><path class="e" d="M324.11,38.07c0,.79,.42,1.29,1.17,1.29,.52,0,.79-.15,1.11-.47l.59,.55c-.47,.47-.91,.72-1.72,.72-1.15,0-2.06-.6-2.06-2.35,0-1.48,.77-2.34,1.94-2.34s1.94,.9,1.94,2.2v.41h-2.97Zm1.93-1.26c-.14-.34-.47-.58-.9-.58s-.77,.23-.91,.58c-.09,.21-.11,.34-.12,.63h2.06c0-.28-.04-.42-.13-.63Z"/><path class="e" d="M328.28,34.61v-.98h.98v.98h-.98Zm.03,5.49v-4.58h.92v4.58h-.92Z"/><path class="e" d="M332.06,40.1c-.86,0-1.26-.62-1.26-1.28v-2.52h-.52v-.71h.52v-1.39h.92v1.39h.89v.71h-.89v2.47c0,.34,.16,.54,.51,.54h.38v.78h-.55Z"/><path class="e" d="M336.24,40.1v-.41c-.33,.33-.65,.47-1.22,.47s-.95-.14-1.23-.42c-.24-.24-.36-.6-.36-.98,0-.77,.53-1.32,1.58-1.32h1.21v-.33c0-.58-.29-.86-1-.86-.51,0-.75,.12-1,.44l-.61-.56c.43-.51,.88-.66,1.65-.66,1.26,0,1.89,.53,1.89,1.57v3.06h-.9Zm-.02-2.03h-1.08c-.54,0-.82,.25-.82,.66s.26,.65,.84,.65c.35,0,.62-.03,.86-.27,.14-.14,.2-.35,.2-.68v-.37Z"/><path class="e" d="M340.1,42.01c-.7,0-1.14-.16-1.62-.6l.59-.59c.29,.27,.54,.41,.99,.41,.78,0,1.08-.55,1.08-1.17v-.59c-.33,.4-.71,.52-1.19,.52s-.84-.15-1.09-.41c-.44-.45-.52-1.08-.52-1.86s.07-1.42,.52-1.86c.25-.25,.64-.4,1.1-.4,.49,0,.86,.12,1.2,.54v-.49h.89v4.56c0,1.12-.74,1.94-1.96,1.94Zm.11-5.72c-.83,0-.94,.72-.94,1.44s.11,1.44,.94,1.44,.93-.72,.93-1.44-.1-1.44-.93-1.44Z"/></g><g><path class="e" d="M386.23,40.16c-.97,0-1.66-.23-2.28-.85l.65-.64c.47,.47,.99,.62,1.65,.62,.84,0,1.33-.37,1.33-.99,0-.28-.08-.51-.25-.67-.16-.15-.33-.21-.71-.27l-.76-.11c-.52-.07-.94-.25-1.22-.51-.32-.3-.47-.71-.47-1.23,0-1.12,.81-1.89,2.15-1.89,.85,0,1.45,.22,2,.73l-.62,.62c-.4-.38-.86-.5-1.4-.5-.76,0-1.17,.43-1.17,1,0,.23,.07,.44,.24,.59,.16,.15,.42,.25,.72,.3l.73,.11c.6,.09,.93,.24,1.2,.48,.35,.31,.52,.77,.52,1.32,0,1.19-.97,1.89-2.31,1.89Z"/><path class="e" d="M392.22,40.1v-.41c-.33,.33-.65,.47-1.22,.47s-.95-.14-1.23-.42c-.24-.24-.36-.6-.36-.98,0-.77,.53-1.32,1.58-1.32h1.21v-.33c0-.58-.29-.86-1-.86-.51,0-.75,.12-1,.44l-.61-.56c.43-.51,.88-.66,1.65-.66,1.26,0,1.89,.53,1.89,1.57v3.06h-.9Zm-.02-2.03h-1.08c-.54,0-.82,.25-.82,.66s.26,.65,.84,.65c.35,0,.62-.03,.86-.27,.14-.14,.2-.35,.2-.68v-.37Z"/><path class="e" d="M400.13,40.1v-2.79c0-.71-.41-1.02-.92-1.02s-.95,.32-.95,.98v2.84h-.92v-2.79c0-.71-.41-1.02-.92-1.02s-.95,.32-.95,1.02v2.79h-.92v-4.58h.9v.46c.31-.33,.76-.51,1.22-.51,.57,0,1.01,.23,1.3,.67,.37-.45,.83-.67,1.44-.67,.47,0,.89,.15,1.16,.41,.35,.34,.49,.78,.49,1.29v2.93h-.92Z"/><path class="e" d="M403.95,40.16c-.75,0-1.38-.13-1.93-.66l.61-.6c.37,.38,.87,.48,1.32,.48,.56,0,1-.2,1-.64,0-.3-.17-.5-.62-.54l-.73-.06c-.86-.07-1.36-.46-1.36-1.26,0-.9,.77-1.4,1.73-1.4,.69,0,1.27,.14,1.7,.51l-.58,.59c-.29-.24-.7-.33-1.13-.33-.55,0-.83,.24-.83,.59,0,.27,.14,.48,.63,.52l.72,.06c.86,.07,1.36,.48,1.36,1.29,0,.96-.81,1.46-1.91,1.46Z"/><path class="e" d="M408.26,40.1c-.86,0-1.26-.62-1.26-1.28v-2.52h-.52v-.71h.52v-1.39h.92v1.39h.89v.71h-.89v2.47c0,.34,.16,.54,.51,.54h.38v.78h-.55Z"/><path class="e" d="M412.42,40.1v-.41c-.33,.33-.65,.47-1.22,.47s-.95-.14-1.23-.42c-.24-.24-.36-.6-.36-.98,0-.77,.53-1.32,1.58-1.32h1.21v-.33c0-.58-.29-.86-1-.86-.51,0-.75,.12-1,.44l-.61-.56c.43-.51,.88-.66,1.65-.66,1.26,0,1.89,.53,1.89,1.57v3.06h-.9Zm-.02-2.03h-1.08c-.54,0-.82,.25-.82,.66s.26,.65,.84,.65c.35,0,.62-.03,.86-.27,.14-.14,.2-.35,.2-.68v-.37Z"/><path class="e" d="M416.28,42.01c-.7,0-1.14-.16-1.62-.6l.59-.59c.29,.27,.54,.41,.99,.41,.78,0,1.08-.55,1.08-1.17v-.59c-.33,.4-.71,.52-1.19,.52s-.84-.15-1.09-.41c-.44-.45-.52-1.08-.52-1.86s.07-1.42,.52-1.86c.25-.25,.64-.4,1.1-.4,.49,0,.86,.12,1.2,.54v-.49h.89v4.56c0,1.12-.74,1.94-1.96,1.94Zm.11-5.72c-.83,0-.94,.72-.94,1.44s.11,1.44,.94,1.44,.93-.72,.93-1.44-.1-1.44-.93-1.44Z"/></g><g><path class="e" d="M460.21,40.16c-.97,0-1.66-.23-2.28-.85l.65-.64c.47,.47,.99,.62,1.65,.62,.84,0,1.33-.37,1.33-.99,0-.28-.08-.51-.25-.67-.16-.15-.33-.21-.71-.27l-.76-.11c-.52-.07-.94-.25-1.22-.51-.32-.3-.47-.71-.47-1.23,0-1.12,.81-1.89,2.15-1.89,.85,0,1.45,.22,2,.73l-.62,.62c-.4-.38-.86-.5-1.4-.5-.76,0-1.17,.43-1.17,1,0,.23,.07,.44,.24,.59,.16,.15,.42,.25,.72,.3l.73,.11c.6,.09,.93,.24,1.2,.48,.35,.31,.52,.77,.52,1.32,0,1.19-.97,1.89-2.31,1.89Z"/><path class="e" d="M466.79,39.62c-.3,.3-.75,.54-1.37,.54s-1.07-.24-1.36-.54c-.43-.45-.54-1.03-.54-1.81s.11-1.34,.54-1.79c.3-.31,.74-.54,1.36-.54s1.08,.23,1.37,.54c.43,.45,.54,1.03,.54,1.79s-.11,1.36-.54,1.81Zm-.7-3.06c-.17-.17-.41-.27-.68-.27s-.5,.09-.67,.27c-.28,.28-.32,.76-.32,1.25s.04,.98,.32,1.26c.17,.17,.4,.27,.67,.27s.51-.1,.68-.27c.28-.28,.32-.76,.32-1.26s-.04-.98-.32-1.25Z"/><path class="e" d="M471.38,40.1v-2.79c0-.71-.41-1.02-.92-1.02s-.95,.32-.95,1.02v2.79h-.92v-4.58h.9v.46c.32-.34,.76-.51,1.22-.51s.86,.15,1.13,.41c.35,.34,.46,.78,.46,1.29v2.93h-.92Z"/><path class="e" d="M476.51,40.1v-2.79c0-.71-.41-1.02-.92-1.02s-.95,.32-.95,1.02v2.79h-.92v-4.58h.9v.46c.32-.34,.76-.51,1.22-.51s.86,.15,1.13,.41c.35,.34,.46,.78,.46,1.29v2.93h-.92Z"/><path class="e" d="M480.22,40.1c-.86,0-1.26-.62-1.26-1.28v-2.52h-.52v-.71h.52v-1.39h.92v1.39h.89v.71h-.89v2.47c0,.34,.16,.54,.51,.54h.38v.78h-.55Z"/><path class="e" d="M484.4,40.1v-.41c-.33,.33-.65,.47-1.22,.47s-.95-.14-1.23-.42c-.24-.24-.36-.6-.36-.98,0-.77,.53-1.32,1.58-1.32h1.21v-.33c0-.58-.29-.86-1-.86-.51,0-.75,.12-1,.44l-.61-.56c.43-.51,.88-.66,1.65-.66,1.26,0,1.89,.53,1.89,1.57v3.06h-.9Zm-.02-2.03h-1.08c-.54,0-.82,.25-.82,.66s.26,.65,.84,.65c.35,0,.62-.03,.86-.27,.14-.14,.2-.35,.2-.68v-.37Z"/><path class="e" d="M488.26,42.01c-.7,0-1.14-.16-1.62-.6l.59-.59c.29,.27,.54,.41,.99,.41,.78,0,1.08-.55,1.08-1.17v-.59c-.33,.4-.71,.52-1.19,.52s-.84-.15-1.09-.41c-.44-.45-.52-1.08-.52-1.86s.07-1.42,.52-1.86c.25-.25,.64-.4,1.1-.4,.49,0,.86,.12,1.2,.54v-.49h.89v4.56c0,1.12-.74,1.94-1.96,1.94Zm.11-5.72c-.83,0-.94,.72-.94,1.44s.11,1.44,.94,1.44,.93-.72,.93-1.44-.1-1.44-.93-1.44Z"/></g><g><path class="c" d="M392.43,100.44c-3.77,0-6.84-2.57-6.84-6.81v-10.55c0-4.24,3.07-6.81,6.84-6.81s6.88,2.57,6.88,6.81v10.55c0,4.24-3.1,6.81-6.88,6.81Zm3.47-17.26c0-2.3-1.3-3.87-3.47-3.87s-3.44,1.57-3.44,3.87v10.35c0,2.3,1.27,3.87,3.44,3.87s3.47-1.57,3.47-3.87v-10.35Z"/><path class="c" d="M409.79,100.24v-20.06l-4.64,4.07v-3.77l4.64-4.01h3.41v23.77h-3.41Z"/></g><g><path class="c" d="M465.07,100.44c-3.77,0-6.84-2.57-6.84-6.81v-10.55c0-4.24,3.07-6.81,6.84-6.81s6.88,2.57,6.88,6.81v10.55c0,4.24-3.1,6.81-6.88,6.81Zm3.47-17.26c0-2.3-1.3-3.87-3.47-3.87s-3.44,1.57-3.44,3.87v10.35c0,2.3,1.27,3.87,3.44,3.87s3.47-1.57,3.47-3.87v-10.35Z"/><path class="c" d="M476.09,100.24v-3.04l9.15-11.11c.9-1.1,1.27-1.97,1.27-3.17,0-2.14-1.27-3.61-3.47-3.61-1.8,0-3.51,1-3.51,3.67h-3.41c0-4.04,2.87-6.71,6.91-6.71s6.88,2.57,6.88,6.68c0,2.1-.77,3.34-2.24,5.14l-7.44,9.11h9.68v3.04h-13.82Z"/></g><g><path class="d" d="M166.74,100.24v-3.04l9.15-11.11c.9-1.1,1.27-1.97,1.27-3.17,0-2.14-1.27-3.61-3.47-3.61-1.8,0-3.51,1-3.51,3.67h-3.41c0-4.04,2.87-6.71,6.91-6.71s6.88,2.57,6.88,6.68c0,2.1-.77,3.34-2.24,5.14l-7.44,9.11h9.68v3.04h-13.82Z"/><path class="d" d="M191.32,100.44c-4.07,0-7.31-2.61-7.31-6.91,0-2.84,1.6-4.58,3.27-5.58-1.54-.94-2.87-2.6-2.87-5.11,0-3.97,3.04-6.58,6.91-6.58s6.94,2.6,6.94,6.58c0,2.51-1.33,4.17-2.87,5.11,1.67,1,3.27,2.74,3.27,5.58,0,4.3-3.27,6.91-7.34,6.91Zm0-10.95c-2.2,0-3.91,1.77-3.91,3.97s1.7,3.94,3.91,3.94,3.9-1.74,3.9-3.94-1.7-3.97-3.9-3.97Zm0-10.18c-2.07,0-3.51,1.57-3.51,3.64s1.44,3.6,3.51,3.6,3.54-1.5,3.54-3.6-1.47-3.64-3.54-3.64Z"/></g><g><path class="d" d="M93.76,100.24v-3.04l9.15-11.11c.9-1.1,1.27-1.97,1.27-3.17,0-2.14-1.27-3.61-3.47-3.61-1.8,0-3.51,1-3.51,3.67h-3.41c0-4.04,2.87-6.71,6.91-6.71s6.88,2.57,6.88,6.68c0,2.1-.77,3.34-2.24,5.14l-7.44,9.11h9.68v3.04h-13.82Z"/><path class="d" d="M117.77,100.24h-3.67l7.98-20.73h-7.24v3.74h-3.27v-6.78h14.15v3.04l-7.95,20.73Z"/></g><g><path class="d" d="M20.78,100.24v-3.04l9.15-11.11c.9-1.1,1.27-1.97,1.27-3.17,0-2.14-1.27-3.61-3.47-3.61-1.8,0-3.51,1-3.51,3.67h-3.41c0-4.04,2.87-6.71,6.91-6.71s6.88,2.57,6.88,6.68c0,2.1-.77,3.34-2.24,5.14l-7.44,9.11h9.68v3.04h-13.82Z"/><path class="d" d="M45.39,100.44c-4.11,0-7.04-2.7-7.04-7.11,0-1.94,.73-3.77,1.77-5.84l5.41-11.02h3.64l-5.11,10.22c.63-.27,1.37-.37,2.1-.37,3.44,0,6.24,2.7,6.24,6.87s-2.9,7.25-7.01,7.25Zm-.03-11.28c-2.14,0-3.61,1.54-3.61,4.1s1.47,4.14,3.61,4.14,3.64-1.6,3.64-4.14c0-2.34-1.37-4.1-3.64-4.1Z"/></g><polygon class="d" points="418.99 89.53 403.21 73.75 403.21 105.32 418.99 89.53"/><polygon class="b" points=".38 .38 .38 126.56 73.72 126.56 73.79 111.53 73.79 .38 .38 .38"/><path class="e" d="M73.72,126.94H.38c-.21,0-.38-.17-.38-.38V.38c0-.21,.17-.38,.38-.38H73.79c.21,0,.38,.17,.38,.38V111.53l-.07,15.03c0,.21-.17,.38-.38,.38ZM.77,126.18H73.34l.06-14.65V.77H.77V126.18Z"/><polygon class="b" points="73.36 .38 73.36 126.56 146.69 126.56 146.76 111.53 146.76 .38 73.36 .38"/><path class="e" d="M146.69,126.94H73.36c-.21,0-.38-.17-.38-.38V.38c0-.21,.17-.38,.38-.38h73.4c.21,0,.38,.17,.38,.38V111.53l-.07,15.03c0,.21-.17,.38-.38,.38Zm-72.95-.77h72.57l.06-14.65V.77H73.74V126.18Z"/><polygon class="b" points="146.33 .38 146.33 126.56 219.66 126.56 219.73 111.53 219.73 .38 146.33 .38"/><path class="e" d="M219.66,126.94h-73.34c-.21,0-.38-.17-.38-.38V.38c0-.21,.17-.38,.38-.38h73.4c.21,0,.38,.17,.38,.38V111.53l-.07,15.03c0,.21-.17,.38-.38,.38Zm-72.95-.77h72.57l.06-14.65V.77h-72.63V126.18Z"/><polygon class="b" points="365.24 .38 365.24 126.56 438.58 126.56 438.65 111.53 438.65 .38 365.24 .38"/><path class="e" d="M438.58,126.94h-73.34c-.21,0-.38-.17-.38-.38V.38c0-.21,.17-.38,.38-.38h73.4c.21,0,.38,.17,.38,.38V111.53l-.07,15.03c0,.21-.17,.38-.38,.38Zm-72.95-.77h72.57l.06-14.65V.77h-72.63V126.18Z"/><polygon class="b" points="438.21 .38 438.21 126.56 511.55 126.56 511.62 111.53 511.62 .38 438.21 .38"/><path class="e" d="M511.55,126.94h-73.34c-.21,0-.38-.17-.38-.38V.38c0-.21,.17-.38,.38-.38h73.4c.21,0,.38,.17,.38,.38V111.53l-.07,15.03c0,.21-.17,.38-.38,.38Zm-72.95-.77h72.57l.06-14.65V.77h-72.63V126.18Z"/><rect class="e" x="0" y="50.99" width="74.17" height=".77"/><rect class="e" x="72.97" y="50.99" width="74.17" height=".77"/><rect class="e" x="145.94" y="50.99" width="74.17" height=".77"/><rect class="e" x="218.91" y="50.99" width="74.17" height=".77"/><rect class="e" x="364.86" y="50.99" width="74.17" height=".77"/><rect class="e" x="291.89" y="50.99" width="74.17" height=".77"/><rect class="e" x="437.83" y="50.99" width="74.17" height=".77"/><rect class="d" x="3.73" y=".75" width="69.24" height="50.24"/><rect class="d" x="76.7" y=".75" width="69.25" height="50.24"/><rect class="d" x="149.67" y=".75" width="69.24" height="50.24"/><rect class="d" x="222.64" y=".75" width="69.24" height="50.24"/><rect class="d" x="296.07" y=".75" width="69.24" height="50.24"/><rect class="d" x="368.59" y=".75" width="69.24" height="50.24"/><rect class="d" x="441.97" y=".75" width="69.25" height="50.24"/><g><path class="e" d="M32.14,23.21V14.95l-2.84,6.02h-1.39l-2.91-6.02v8.25h-1.87V10.87h1.87l3.6,7.68,3.53-7.68h1.87v12.34h-1.87Z"/><path class="e" d="M43.24,22.27c-.57,.59-1.44,1.04-2.63,1.04s-2.04-.45-2.62-1.04c-.83-.87-1.04-1.98-1.04-3.47s.21-2.59,1.04-3.45c.57-.59,1.42-1.04,2.62-1.04s2.06,.45,2.63,1.04c.83,.86,1.04,1.98,1.04,3.45s-.21,2.6-1.04,3.47Zm-1.33-5.88c-.33-.33-.78-.5-1.3-.5s-.95,.17-1.28,.5c-.54,.54-.61,1.46-.61,2.41s.07,1.87,.61,2.41c.33,.33,.76,.52,1.28,.52s.97-.19,1.3-.52c.54-.54,.61-1.46,.61-2.41s-.07-1.87-.61-2.41Z"/></g><path class="b" d="M47.32,24.49h-1.7l4.94-14.91h1.7l-4.94,14.91Z"/><g><path class="e" d="M108.02,22.04c-.78,.78-1.91,1.16-3.19,1.16h-4.33V10.87h4.33c1.28,0,2.41,.38,3.19,1.16,1.33,1.34,1.25,3.14,1.25,4.92s.09,3.76-1.25,5.1Zm-1.28-8.66c-.52-.57-1.21-.83-2.1-.83h-2.27v8.97h2.27c.88,0,1.58-.26,2.1-.83,.64-.71,.66-2.05,.66-3.75s-.02-2.86-.66-3.57Z"/><path class="e" d="M112.13,12.69v-1.87h1.87v1.87h-1.87Zm.05,10.52V14.42h1.77v8.79h-1.77Z"/></g><path class="b" d="M117.41,24.49h-1.7l4.94-14.91h1.7l-4.94,14.91Z"/><g><path class="e" d="M179.43,22.01V13.76l-2.84,6.02h-1.39l-2.91-6.02v8.25h-1.87V9.67h1.87l3.6,7.68,3.53-7.68h1.87v12.34h-1.87Z"/><path class="e" d="M184.6,11.49v-1.87h1.87v1.87h-1.87Zm.05,10.52V13.22h1.77v8.79h-1.77Z"/></g><path class="b" d="M189.87,23.29h-1.7l4.94-14.91h1.7l-4.94,14.91Z"/><g><path class="e" d="M249.76,20.85c-.78,.78-1.91,1.16-3.19,1.16h-4.33V9.67h4.33c1.28,0,2.41,.38,3.19,1.16,1.33,1.34,1.25,3.14,1.25,4.92s.09,3.76-1.25,5.1Zm-1.28-8.66c-.52-.57-1.21-.83-2.1-.83h-2.27v8.97h2.27c.88,0,1.58-.26,2.1-.83,.64-.71,.66-2.05,.66-3.75s-.02-2.86-.66-3.57Z"/><path class="e" d="M259.8,21.07c-.57,.59-1.44,1.04-2.63,1.04s-2.04-.45-2.62-1.04c-.83-.87-1.04-1.98-1.04-3.47s.21-2.59,1.04-3.45c.57-.59,1.42-1.04,2.62-1.04s2.06,.45,2.63,1.04c.83,.86,1.04,1.98,1.04,3.45s-.21,2.6-1.04,3.47Zm-1.33-5.88c-.33-.33-.78-.5-1.3-.5s-.95,.17-1.28,.5c-.54,.54-.61,1.46-.61,2.41s.07,1.87,.61,2.41c.33,.33,.76,.52,1.28,.52s.97-.19,1.3-.52c.54-.54,.61-1.46,.61-2.41s-.07-1.87-.61-2.41Z"/></g><path class="b" d="M263.88,23.29h-1.7l4.94-14.91h1.7l-4.94,14.91Z"/><g><path class="e" d="M320.54,11.35v3.76h5.13v1.68h-5.13v5.22h-1.87V9.67h7.89v1.68h-6.01Z"/><path class="e" d="M333.28,15.28c-.4-.4-.71-.59-1.32-.59-.95,0-1.75,.76-1.75,1.98v5.34h-1.77V13.22h1.73v.95c.45-.63,1.35-1.06,2.34-1.06,.85,0,1.49,.23,2.1,.83l-1.33,1.33Z"/></g><path class="b" d="M336.69,23.29h-1.7l4.94-14.91h1.7l-4.94,14.91Z"/><g><path class="e" d="M395,22.11c-1.85,0-3.19-.43-4.37-1.63l1.25-1.23c.9,.9,1.89,1.17,3.15,1.17,1.61,0,2.55-.69,2.55-1.89,0-.54-.16-.99-.49-1.29-.31-.29-.62-.41-1.35-.52l-1.45-.2c-1.01-.14-1.8-.49-2.34-.99-.61-.58-.9-1.35-.9-2.36,0-2.15,1.56-3.62,4.12-3.62,1.63,0,2.77,.42,3.83,1.41l-1.2,1.18c-.76-.73-1.65-.95-2.69-.95-1.45,0-2.25,.83-2.25,1.92,0,.45,.14,.85,.47,1.14,.31,.28,.82,.49,1.39,.58l1.4,.2c1.14,.17,1.79,.45,2.3,.92,.68,.59,1,1.47,1,2.53,0,2.27-1.85,3.62-4.44,3.62Z"/><path class="e" d="M406.8,22.01v-.8c-.64,.64-1.25,.9-2.34,.9s-1.82-.26-2.36-.8c-.45-.47-.69-1.15-.69-1.89,0-1.47,1.02-2.53,3.03-2.53h2.32v-.63c0-1.11-.55-1.64-1.92-1.64-.97,0-1.44,.23-1.92,.85l-1.16-1.09c.83-.97,1.7-1.26,3.15-1.26,2.41,0,3.62,1.02,3.62,3.01v5.88h-1.73Zm-.04-3.88h-2.06c-1.04,0-1.58,.47-1.58,1.26s.5,1.25,1.61,1.25c.68,0,1.18-.05,1.65-.5,.26-.26,.38-.68,.38-1.3v-.71Z"/></g><path class="b" d="M411.92,23.29h-1.7l4.94-14.91h1.7l-4.94,14.91Z"/><g><path class="e" d="M466.12,22.11c-1.85,0-3.19-.43-4.37-1.63l1.25-1.23c.9,.9,1.89,1.17,3.15,1.17,1.61,0,2.55-.69,2.55-1.89,0-.54-.16-.99-.49-1.29-.31-.29-.62-.41-1.35-.52l-1.45-.2c-1.01-.14-1.8-.49-2.34-.99-.61-.58-.9-1.35-.9-2.36,0-2.15,1.56-3.62,4.12-3.62,1.63,0,2.77,.42,3.83,1.41l-1.2,1.18c-.76-.73-1.65-.95-2.69-.95-1.45,0-2.25,.83-2.25,1.92,0,.45,.14,.85,.47,1.14,.31,.28,.82,.49,1.39,.58l1.4,.2c1.14,.17,1.79,.45,2.3,.92,.68,.59,1,1.47,1,2.53,0,2.27-1.85,3.62-4.44,3.62Z"/><path class="e" d="M479.07,21.07c-.57,.59-1.44,1.04-2.63,1.04s-2.04-.45-2.62-1.04c-.83-.87-1.04-1.98-1.04-3.47s.21-2.59,1.04-3.45c.57-.59,1.42-1.04,2.62-1.04s2.06,.45,2.63,1.04c.83,.86,1.04,1.98,1.04,3.45s-.21,2.6-1.04,3.47Zm-1.33-5.88c-.33-.33-.78-.5-1.3-.5s-.95,.17-1.28,.5c-.54,.54-.61,1.46-.61,2.41s.07,1.87,.61,2.41c.33,.33,.76,.52,1.28,.52s.97-.19,1.3-.52c.54-.54,.61-1.46,.61-2.41s-.07-1.87-.61-2.41Z"/></g><path class="b" d="M483.17,23.29h-1.7l4.94-14.91h1.7l-4.94,14.91Z"/><polygon class="d" points="309.92 71.72 309.98 81.82 319.65 72.18 331.07 83.3 331.38 72.83 319.65 61.8 310.09 71.72 309.92 71.72"/><polygon class="d" points="349.17 83.55 332.78 83.43 332.8 72.92 349.17 72.92 349.17 83.55"/><path class="e" d="M349.15,112.69h-40.38v-40.21l.17-.17,10.98-10.71,11.86,11.03h17.36v40.07Zm-39.22-1.16h38.07v-37.75h-16.75v-.26l-.09,.1-11.21-10.42-10.02,9.77v38.57Z"/><path class="e" d="M326.72,103.19c-.32,0-.58-.26-.58-.58v-2.17c0-.32,.26-.58,.58-.58s.58,.26,.58,.58v2.17c0,.32-.26,.58-.58,.58Zm-3.81,0c-.32,0-.58-.26-.58-.58v-2.17c0-.32,.26-.58,.58-.58s.58,.26,.58,.58v2.17c0,.32-.26,.58-.58,.58Zm-3.81,0c-.32,0-.58-.26-.58-.58v-2.17c0-.32,.26-.58,.58-.58s.58,.26,.58,.58v2.17c0,.32-.26,.58-.58,.58Zm-3.81,0c-.32,0-.58-.26-.58-.58v-2.17c0-.32,.26-.58,.58-.58s.58,.26,.58,.58v2.17c0,.32-.26,.58-.58,.58Zm28.64-5.49c-.32,0-.58-.26-.58-.58v-2.17c0-.32,.26-.58,.58-.58s.58,.26,.58,.58v2.17c0,.32-.26,.58-.58,.58Zm-3.81,0c-.32,0-.58-.26-.58-.58v-2.17c0-.32,.26-.58,.58-.58s.58,.26,.58,.58v2.17c0,.32-.26,.58-.58,.58Zm-3.81,0c-.32,0-.58-.26-.58-.58v-2.17c0-.32,.26-.58,.58-.58s.58,.26,.58,.58v2.17c0,.32-.26,.58-.58,.58Zm-3.81,0c-.32,0-.58-.26-.58-.58v-2.17c0-.32,.26-.58,.58-.58s.58,.26,.58,.58v2.17c0,.32-.26,.58-.58,.58Zm-5.78,0c-.32,0-.58-.26-.58-.58v-2.17c0-.32,.26-.58,.58-.58s.58,.26,.58,.58v2.17c0,.32-.26,.58-.58,.58Zm-3.81,0c-.32,0-.58-.26-.58-.58v-2.17c0-.32,.26-.58,.58-.58s.58,.26,.58,.58v2.17c0,.32-.26,.58-.58,.58Zm-3.81,0c-.32,0-.58-.26-.58-.58v-2.17c0-.32,.26-.58,.58-.58s.58,.26,.58,.58v2.17c0,.32-.26,.58-.58,.58Zm-3.81,0c-.32,0-.58-.26-.58-.58v-2.17c0-.32,.26-.58,.58-.58s.58,.26,.58,.58v2.17c0,.32-.26,.58-.58,.58Zm28.64-5.71c-.32,0-.58-.26-.58-.58v-2.17c0-.32,.26-.58,.58-.58s.58,.26,.58,.58v2.17c0,.32-.26,.58-.58,.58Zm-3.81,0c-.32,0-.58-.26-.58-.58v-2.17c0-.32,.26-.58,.58-.58s.58,.26,.58,.58v2.17c0,.32-.26,.58-.58,.58Zm-3.81,0c-.32,0-.58-.26-.58-.58v-2.17c0-.32,.26-.58,.58-.58s.58,.26,.58,.58v2.17c0,.32-.26,.58-.58,.58Zm-3.81,0c-.32,0-.58-.26-.58-.58v-2.17c0-.32,.26-.58,.58-.58s.58,.26,.58,.58v2.17c0,.32-.26,.58-.58,.58Zm-5.78,0c-.32,0-.58-.26-.58-.58v-2.17c0-.32,.26-.58,.58-.58s.58,.26,.58,.58v2.17c0,.32-.26,.58-.58,.58Zm-3.81,0c-.32,0-.58-.26-.58-.58v-2.17c0-.32,.26-.58,.58-.58s.58,.26,.58,.58v2.17c0,.32-.26,.58-.58,.58Zm-3.81,0c-.32,0-.58-.26-.58-.58v-2.17c0-.32,.26-.58,.58-.58s.58,.26,.58,.58v2.17c0,.32-.26,.58-.58,.58Zm-3.81,0c-.32,0-.58-.26-.58-.58v-2.17c0-.32,.26-.58,.58-.58s.58,.26,.58,.58v2.17c0,.32-.26,.58-.58,.58Z"/><polygon class="e" points="349.18 83.44 331.18 83.44 331.01 83.28 320.09 72.89 309.7 82.77 308.9 81.93 319.57 71.79 319.42 62.72 320.57 62.7 320.73 71.9 330.9 81.58 330.92 73.52 332.08 73.52 332.05 82.28 349.18 82.28 349.18 83.44"/><path class="e" d="M338.63,112.26c-.32,0-.58-.26-.58-.58v-3.39c0-.32,.26-.58,.58-.58s.58,.26,.58,.58v3.39c0,.32-.26,.58-.58,.58Z"/><polygon class="d" points="236.95 71.72 237.01 81.82 246.68 72.18 258.1 83.3 258.41 72.83 246.68 61.8 237.11 71.72 236.95 71.72"/><polygon class="d" points="276.2 83.55 259.81 83.43 259.83 72.92 276.2 72.92 276.2 83.55"/><path class="e" d="M276.18,112.69h-40.38v-40.21l.17-.17,10.98-10.71,11.86,11.03h17.36v40.07Zm-39.22-1.16h38.07v-37.75h-16.75v-.26l-.09,.1-11.21-10.42-10.02,9.77v38.57Z"/><path class="e" d="M253.75,103.19c-.32,0-.58-.26-.58-.58v-2.17c0-.32,.26-.58,.58-.58s.58,.26,.58,.58v2.17c0,.32-.26,.58-.58,.58Zm-3.81,0c-.32,0-.58-.26-.58-.58v-2.17c0-.32,.26-.58,.58-.58s.58,.26,.58,.58v2.17c0,.32-.26,.58-.58,.58Zm-3.81,0c-.32,0-.58-.26-.58-.58v-2.17c0-.32,.26-.58,.58-.58s.58,.26,.58,.58v2.17c0,.32-.26,.58-.58,.58Zm-3.81,0c-.32,0-.58-.26-.58-.58v-2.17c0-.32,.26-.58,.58-.58s.58,.26,.58,.58v2.17c0,.32-.26,.58-.58,.58Zm28.64-5.49c-.32,0-.58-.26-.58-.58v-2.17c0-.32,.26-.58,.58-.58s.58,.26,.58,.58v2.17c0,.32-.26,.58-.58,.58Zm-3.81,0c-.32,0-.58-.26-.58-.58v-2.17c0-.32,.26-.58,.58-.58s.58,.26,.58,.58v2.17c0,.32-.26,.58-.58,.58Zm-3.81,0c-.32,0-.58-.26-.58-.58v-2.17c0-.32,.26-.58,.58-.58s.58,.26,.58,.58v2.17c0,.32-.26,.58-.58,.58Zm-3.81,0c-.32,0-.58-.26-.58-.58v-2.17c0-.32,.26-.58,.58-.58s.58,.26,.58,.58v2.17c0,.32-.26,.58-.58,.58Zm-5.78,0c-.32,0-.58-.26-.58-.58v-2.17c0-.32,.26-.58,.58-.58s.58,.26,.58,.58v2.17c0,.32-.26,.58-.58,.58Zm-3.81,0c-.32,0-.58-.26-.58-.58v-2.17c0-.32,.26-.58,.58-.58s.58,.26,.58,.58v2.17c0,.32-.26,.58-.58,.58Zm-3.81,0c-.32,0-.58-.26-.58-.58v-2.17c0-.32,.26-.58,.58-.58s.58,.26,.58,.58v2.17c0,.32-.26,.58-.58,.58Zm-3.81,0c-.32,0-.58-.26-.58-.58v-2.17c0-.32,.26-.58,.58-.58s.58,.26,.58,.58v2.17c0,.32-.26,.58-.58,.58Zm28.64-5.71c-.32,0-.58-.26-.58-.58v-2.17c0-.32,.26-.58,.58-.58s.58,.26,.58,.58v2.17c0,.32-.26,.58-.58,.58Zm-3.81,0c-.32,0-.58-.26-.58-.58v-2.17c0-.32,.26-.58,.58-.58s.58,.26,.58,.58v2.17c0,.32-.26,.58-.58,.58Zm-3.81,0c-.32,0-.58-.26-.58-.58v-2.17c0-.32,.26-.58,.58-.58s.58,.26,.58,.58v2.17c0,.32-.26,.58-.58,.58Zm-3.81,0c-.32,0-.58-.26-.58-.58v-2.17c0-.32,.26-.58,.58-.58s.58,.26,.58,.58v2.17c0,.32-.26,.58-.58,.58Zm-5.78,0c-.32,0-.58-.26-.58-.58v-2.17c0-.32,.26-.58,.58-.58s.58,.26,.58,.58v2.17c0,.32-.26,.58-.58,.58Zm-3.81,0c-.32,0-.58-.26-.58-.58v-2.17c0-.32,.26-.58,.58-.58s.58,.26,.58,.58v2.17c0,.32-.26,.58-.58,.58Zm-3.81,0c-.32,0-.58-.26-.58-.58v-2.17c0-.32,.26-.58,.58-.58s.58,.26,.58,.58v2.17c0,.32-.26,.58-.58,.58Zm-3.81,0c-.32,0-.58-.26-.58-.58v-2.17c0-.32,.26-.58,.58-.58s.58,.26,.58,.58v2.17c0,.32-.26,.58-.58,.58Z"/><polygon class="e" points="276.2 83.44 258.21 83.44 258.04 83.28 247.11 72.89 236.73 82.77 235.93 81.93 246.6 71.79 246.45 62.72 247.6 62.7 247.76 71.9 257.93 81.58 257.95 73.52 259.11 73.52 259.08 82.28 276.2 82.28 276.2 83.44"/><path class="e" d="M265.66,112.26c-.32,0-.58-.26-.58-.58v-3.39c0-.32,.26-.58,.58-.58s.58,.26,.58,.58v3.39c0,.32-.26,.58-.58,.58Z"/><polygon class="d" points="163.98 71.72 164.04 81.82 173.71 72.18 185.12 83.3 185.44 72.83 173.71 61.8 164.14 71.72 163.98 71.72"/><polygon class="d" points="203.23 83.55 186.83 83.43 186.86 72.92 203.23 72.92 203.23 83.55"/><path class="e" d="M203.21,112.69h-40.38v-40.21l.17-.17,10.98-10.71,11.86,11.03h17.36v40.07Zm-39.22-1.16h38.07v-37.75h-16.75v-.26l-.09,.1-11.21-10.42-10.02,9.77v38.57Z"/><path class="e" d="M180.78,103.19c-.32,0-.58-.26-.58-.58v-2.17c0-.32,.26-.58,.58-.58s.58,.26,.58,.58v2.17c0,.32-.26,.58-.58,.58Zm-3.81,0c-.32,0-.58-.26-.58-.58v-2.17c0-.32,.26-.58,.58-.58s.58,.26,.58,.58v2.17c0,.32-.26,.58-.58,.58Zm-3.81,0c-.32,0-.58-.26-.58-.58v-2.17c0-.32,.26-.58,.58-.58s.58,.26,.58,.58v2.17c0,.32-.26,.58-.58,.58Zm-3.81,0c-.32,0-.58-.26-.58-.58v-2.17c0-.32,.26-.58,.58-.58s.58,.26,.58,.58v2.17c0,.32-.26,.58-.58,.58Zm28.64-5.49c-.32,0-.58-.26-.58-.58v-2.17c0-.32,.26-.58,.58-.58s.58,.26,.58,.58v2.17c0,.32-.26,.58-.58,.58Zm-3.81,0c-.32,0-.58-.26-.58-.58v-2.17c0-.32,.26-.58,.58-.58s.58,.26,.58,.58v2.17c0,.32-.26,.58-.58,.58Zm-3.81,0c-.32,0-.58-.26-.58-.58v-2.17c0-.32,.26-.58,.58-.58s.58,.26,.58,.58v2.17c0,.32-.26,.58-.58,.58Zm-3.81,0c-.32,0-.58-.26-.58-.58v-2.17c0-.32,.26-.58,.58-.58s.58,.26,.58,.58v2.17c0,.32-.26,.58-.58,.58Zm-5.78,0c-.32,0-.58-.26-.58-.58v-2.17c0-.32,.26-.58,.58-.58s.58,.26,.58,.58v2.17c0,.32-.26,.58-.58,.58Zm-3.81,0c-.32,0-.58-.26-.58-.58v-2.17c0-.32,.26-.58,.58-.58s.58,.26,.58,.58v2.17c0,.32-.26,.58-.58,.58Zm-3.81,0c-.32,0-.58-.26-.58-.58v-2.17c0-.32,.26-.58,.58-.58s.58,.26,.58,.58v2.17c0,.32-.26,.58-.58,.58Zm-3.81,0c-.32,0-.58-.26-.58-.58v-2.17c0-.32,.26-.58,.58-.58s.58,.26,.58,.58v2.17c0,.32-.26,.58-.58,.58Zm28.64-5.71c-.32,0-.58-.26-.58-.58v-2.17c0-.32,.26-.58,.58-.58s.58,.26,.58,.58v2.17c0,.32-.26,.58-.58,.58Zm-3.81,0c-.32,0-.58-.26-.58-.58v-2.17c0-.32,.26-.58,.58-.58s.58,.26,.58,.58v2.17c0,.32-.26,.58-.58,.58Zm-3.81,0c-.32,0-.58-.26-.58-.58v-2.17c0-.32,.26-.58,.58-.58s.58,.26,.58,.58v2.17c0,.32-.26,.58-.58,.58Zm-3.81,0c-.32,0-.58-.26-.58-.58v-2.17c0-.32,.26-.58,.58-.58s.58,.26,.58,.58v2.17c0,.32-.26,.58-.58,.58Zm-5.78,0c-.32,0-.58-.26-.58-.58v-2.17c0-.32,.26-.58,.58-.58s.58,.26,.58,.58v2.17c0,.32-.26,.58-.58,.58Zm-3.81,0c-.32,0-.58-.26-.58-.58v-2.17c0-.32,.26-.58,.58-.58s.58,.26,.58,.58v2.17c0,.32-.26,.58-.58,.58Zm-3.81,0c-.32,0-.58-.26-.58-.58v-2.17c0-.32,.26-.58,.58-.58s.58,.26,.58,.58v2.17c0,.32-.26,.58-.58,.58Zm-3.81,0c-.32,0-.58-.26-.58-.58v-2.17c0-.32,.26-.58,.58-.58s.58,.26,.58,.58v2.17c0,.32-.26,.58-.58,.58Z"/><polygon class="e" points="203.23 83.44 185.23 83.44 185.07 83.28 174.14 72.89 163.76 82.77 162.96 81.93 173.63 71.79 173.47 62.72 174.63 62.7 174.78 71.9 184.96 81.58 184.98 73.52 186.14 73.52 186.11 82.28 203.23 82.28 203.23 83.44"/><path class="e" d="M192.68,112.26c-.32,0-.58-.26-.58-.58v-3.39c0-.32,.26-.58,.58-.58s.58,.26,.58,.58v3.39c0,.32-.26,.58-.58,.58Z"/><polygon class="d" points="91.17 71.72 91.23 81.82 100.9 72.18 112.32 83.3 112.63 72.83 100.9 61.8 91.34 71.72 91.17 71.72"/><polygon class="d" points="130.42 83.55 114.03 83.43 114.05 72.92 130.42 72.92 130.42 83.55"/><path class="e" d="M130.4,112.69h-40.38v-40.21l.17-.17,10.98-10.71,11.86,11.03h17.36v40.07Zm-39.22-1.16h38.07v-37.75h-16.75v-.26l-.09,.1-11.21-10.42-10.02,9.77v38.57Z"/><path class="e" d="M107.97,103.19c-.32,0-.58-.26-.58-.58v-2.17c0-.32,.26-.58,.58-.58s.58,.26,.58,.58v2.17c0,.32-.26,.58-.58,.58Zm-3.81,0c-.32,0-.58-.26-.58-.58v-2.17c0-.32,.26-.58,.58-.58s.58,.26,.58,.58v2.17c0,.32-.26,.58-.58,.58Zm-3.81,0c-.32,0-.58-.26-.58-.58v-2.17c0-.32,.26-.58,.58-.58s.58,.26,.58,.58v2.17c0,.32-.26,.58-.58,.58Zm-3.81,0c-.32,0-.58-.26-.58-.58v-2.17c0-.32,.26-.58,.58-.58s.58,.26,.58,.58v2.17c0,.32-.26,.58-.58,.58Zm28.64-5.49c-.32,0-.58-.26-.58-.58v-2.17c0-.32,.26-.58,.58-.58s.58,.26,.58,.58v2.17c0,.32-.26,.58-.58,.58Zm-3.81,0c-.32,0-.58-.26-.58-.58v-2.17c0-.32,.26-.58,.58-.58s.58,.26,.58,.58v2.17c0,.32-.26,.58-.58,.58Zm-3.81,0c-.32,0-.58-.26-.58-.58v-2.17c0-.32,.26-.58,.58-.58s.58,.26,.58,.58v2.17c0,.32-.26,.58-.58,.58Zm-3.81,0c-.32,0-.58-.26-.58-.58v-2.17c0-.32,.26-.58,.58-.58s.58,.26,.58,.58v2.17c0,.32-.26,.58-.58,.58Zm-5.78,0c-.32,0-.58-.26-.58-.58v-2.17c0-.32,.26-.58,.58-.58s.58,.26,.58,.58v2.17c0,.32-.26,.58-.58,.58Zm-3.81,0c-.32,0-.58-.26-.58-.58v-2.17c0-.32,.26-.58,.58-.58s.58,.26,.58,.58v2.17c0,.32-.26,.58-.58,.58Zm-3.81,0c-.32,0-.58-.26-.58-.58v-2.17c0-.32,.26-.58,.58-.58s.58,.26,.58,.58v2.17c0,.32-.26,.58-.58,.58Zm-3.81,0c-.32,0-.58-.26-.58-.58v-2.17c0-.32,.26-.58,.58-.58s.58,.26,.58,.58v2.17c0,.32-.26,.58-.58,.58Zm28.64-5.71c-.32,0-.58-.26-.58-.58v-2.17c0-.32,.26-.58,.58-.58s.58,.26,.58,.58v2.17c0,.32-.26,.58-.58,.58Zm-3.81,0c-.32,0-.58-.26-.58-.58v-2.17c0-.32,.26-.58,.58-.58s.58,.26,.58,.58v2.17c0,.32-.26,.58-.58,.58Zm-3.81,0c-.32,0-.58-.26-.58-.58v-2.17c0-.32,.26-.58,.58-.58s.58,.26,.58,.58v2.17c0,.32-.26,.58-.58,.58Zm-3.81,0c-.32,0-.58-.26-.58-.58v-2.17c0-.32,.26-.58,.58-.58s.58,.26,.58,.58v2.17c0,.32-.26,.58-.58,.58Zm-5.78,0c-.32,0-.58-.26-.58-.58v-2.17c0-.32,.26-.58,.58-.58s.58,.26,.58,.58v2.17c0,.32-.26,.58-.58,.58Zm-3.81,0c-.32,0-.58-.26-.58-.58v-2.17c0-.32,.26-.58,.58-.58s.58,.26,.58,.58v2.17c0,.32-.26,.58-.58,.58Zm-3.81,0c-.32,0-.58-.26-.58-.58v-2.17c0-.32,.26-.58,.58-.58s.58,.26,.58,.58v2.17c0,.32-.26,.58-.58,.58Zm-3.81,0c-.32,0-.58-.26-.58-.58v-2.17c0-.32,.26-.58,.58-.58s.58,.26,.58,.58v2.17c0,.32-.26,.58-.58,.58Z"/><polygon class="e" points="130.43 83.44 112.43 83.44 112.26 83.28 101.34 72.89 90.95 82.77 90.15 81.93 100.82 71.79 100.67 62.72 101.82 62.7 101.98 71.91 112.15 81.58 112.17 73.52 113.33 73.52 113.3 82.28 130.43 82.28 130.43 83.44"/><path class="e" d="M119.88,112.26c-.32,0-.58-.26-.58-.58v-3.39c0-.32,.26-.58,.58-.58s.58,.26,.58,.58v3.39c0,.32-.26,.58-.58,.58Z"/><polygon class="d" points="18.36 71.72 18.42 81.82 28.1 72.18 39.51 83.3 39.82 72.83 28.1 61.8 18.53 71.72 18.36 71.72"/><polygon class="d" points="57.62 83.55 41.22 83.43 41.25 72.92 57.62 72.92 57.62 83.55"/><path class="e" d="M57.59,112.69H17.21v-40.21l.17-.17,10.98-10.71,11.86,11.03h17.36v40.07Zm-39.22-1.16H56.44v-37.75h-16.75v-.26l-.09,.1-11.21-10.42-10.02,9.77v38.57Z"/><path class="e" d="M35.17,103.19c-.32,0-.58-.26-.58-.58v-2.17c0-.32,.26-.58,.58-.58s.58,.26,.58,.58v2.17c0,.32-.26,.58-.58,.58Zm-3.81,0c-.32,0-.58-.26-.58-.58v-2.17c0-.32,.26-.58,.58-.58s.58,.26,.58,.58v2.17c0,.32-.26,.58-.58,.58Zm-3.81,0c-.32,0-.58-.26-.58-.58v-2.17c0-.32,.26-.58,.58-.58s.58,.26,.58,.58v2.17c0,.32-.26,.58-.58,.58Zm-3.81,0c-.32,0-.58-.26-.58-.58v-2.17c0-.32,.26-.58,.58-.58s.58,.26,.58,.58v2.17c0,.32-.26,.58-.58,.58Zm28.64-5.49c-.32,0-.58-.26-.58-.58v-2.17c0-.32,.26-.58,.58-.58s.58,.26,.58,.58v2.17c0,.32-.26,.58-.58,.58Zm-3.81,0c-.32,0-.58-.26-.58-.58v-2.17c0-.32,.26-.58,.58-.58s.58,.26,.58,.58v2.17c0,.32-.26,.58-.58,.58Zm-3.81,0c-.32,0-.58-.26-.58-.58v-2.17c0-.32,.26-.58,.58-.58s.58,.26,.58,.58v2.17c0,.32-.26,.58-.58,.58Zm-3.81,0c-.32,0-.58-.26-.58-.58v-2.17c0-.32,.26-.58,.58-.58s.58,.26,.58,.58v2.17c0,.32-.26,.58-.58,.58Zm-5.78,0c-.32,0-.58-.26-.58-.58v-2.17c0-.32,.26-.58,.58-.58s.58,.26,.58,.58v2.17c0,.32-.26,.58-.58,.58Zm-3.81,0c-.32,0-.58-.26-.58-.58v-2.17c0-.32,.26-.58,.58-.58s.58,.26,.58,.58v2.17c0,.32-.26,.58-.58,.58Zm-3.81,0c-.32,0-.58-.26-.58-.58v-2.17c0-.32,.26-.58,.58-.58s.58,.26,.58,.58v2.17c0,.32-.26,.58-.58,.58Zm-3.81,0c-.32,0-.58-.26-.58-.58v-2.17c0-.32,.26-.58,.58-.58s.58,.26,.58,.58v2.17c0,.32-.26,.58-.58,.58Zm28.64-5.71c-.32,0-.58-.26-.58-.58v-2.17c0-.32,.26-.58,.58-.58s.58,.26,.58,.58v2.17c0,.32-.26,.58-.58,.58Zm-3.81,0c-.32,0-.58-.26-.58-.58v-2.17c0-.32,.26-.58,.58-.58s.58,.26,.58,.58v2.17c0,.32-.26,.58-.58,.58Zm-3.81,0c-.32,0-.58-.26-.58-.58v-2.17c0-.32,.26-.58,.58-.58s.58,.26,.58,.58v2.17c0,.32-.26,.58-.58,.58Zm-3.81,0c-.32,0-.58-.26-.58-.58v-2.17c0-.32,.26-.58,.58-.58s.58,.26,.58,.58v2.17c0,.32-.26,.58-.58,.58Zm-5.78,0c-.32,0-.58-.26-.58-.58v-2.17c0-.32,.26-.58,.58-.58s.58,.26,.58,.58v2.17c0,.32-.26,.58-.58,.58Zm-3.81,0c-.32,0-.58-.26-.58-.58v-2.17c0-.32,.26-.58,.58-.58s.58,.26,.58,.58v2.17c0,.32-.26,.58-.58,.58Zm-3.81,0c-.32,0-.58-.26-.58-.58v-2.17c0-.32,.26-.58,.58-.58s.58,.26,.58,.58v2.17c0,.32-.26,.58-.58,.58Zm-3.81,0c-.32,0-.58-.26-.58-.58v-2.17c0-.32,.26-.58,.58-.58s.58,.26,.58,.58v2.17c0,.32-.26,.58-.58,.58Z"/><polygon class="e" points="57.62 83.44 39.62 83.44 39.45 83.28 28.53 72.89 18.14 82.77 17.34 81.93 28.01 71.79 27.86 62.72 29.02 62.7 29.17 71.9 39.34 81.58 39.37 73.52 40.52 73.52 40.5 82.28 57.62 82.28 57.62 83.44"/><path class="e" d="M47.07,112.26c-.32,0-.58-.26-.58-.58v-3.39c0-.32,.26-.58,.58-.58s.58,.26,.58,.58v3.39c0,.32-.26,.58-.58,.58Z"/><path class="b" d="M17.06,44.15h2.97c.81,0,1.38-.06,1.71-.18,.33-.12,.49-.37,.49-.74v-9.47h1.7v8.6c0,.74-.06,1.35-.17,1.84-.12,.49-.34,.86-.67,1.14-.33,.27-.79,.46-1.4,.57-.6,.11-1.39,.16-2.36,.16-.87,0-1.57-.06-2.12-.18-.54-.12-.97-.33-1.27-.62-.3-.29-.51-.69-.62-1.21-.11-.51-.16-1.18-.16-1.99,0-.49,.02-.98,.06-1.49,.04-.51,.1-1.01,.18-1.49,.08-.49,.18-.92,.29-1.3l1.6,.26c-.15,.66-.26,1.3-.33,1.92-.07,.62-.1,1.21-.1,1.76,0,.51,.01,.95,.04,1.33,.03,.38,.08,.74,.15,1.08Zm2.55-12.45c-.13,0-.28-.06-.45-.18-.17-.12-.32-.27-.44-.44s-.18-.32-.18-.45c0-.14,.06-.29,.18-.46,.12-.17,.27-.31,.43-.43,.17-.12,.32-.18,.46-.18s.29,.06,.45,.18c.16,.12,.31,.27,.43,.43,.13,.17,.19,.32,.19,.46,0,.13-.06,.27-.19,.44-.13,.17-.27,.32-.44,.44-.17,.13-.32,.19-.44,.19Zm4.32,8.29h1.96v1.92h-1.96v-1.92Zm5.7,0h1.96v1.92h-6.4v-1.92h2.74v-6.22h1.7v6.22Zm-2.25,5.46c-.13,0-.28-.06-.45-.18-.17-.12-.32-.27-.44-.44-.12-.17-.18-.32-.18-.45,0-.14,.06-.29,.18-.46,.12-.17,.27-.31,.43-.43,.17-.12,.32-.18,.46-.18s.29,.06,.45,.18c.16,.12,.31,.27,.43,.43,.13,.17,.19,.32,.19,.46,0,.13-.06,.27-.19,.44-.13,.17-.27,.31-.44,.44-.17,.13-.32,.19-.44,.19Zm2.69,0c-.13,0-.28-.06-.45-.18s-.32-.27-.44-.44c-.12-.17-.18-.32-.18-.45,0-.14,.06-.29,.18-.46,.12-.17,.27-.31,.43-.43,.17-.12,.32-.18,.46-.18s.29,.06,.45,.18c.16,.12,.31,.27,.43,.43,.13,.17,.19,.32,.19,.46,0,.13-.06,.27-.19,.44-.13,.17-.27,.31-.44,.44-.17,.13-.32,.19-.44,.19Zm5.27-5.46h1.96v1.92h-6.4v-1.92h2.74v-6.22h1.7v6.22Zm-.85-8.29c-.13,0-.28-.06-.45-.18-.17-.12-.32-.27-.44-.44s-.18-.32-.18-.45c0-.14,.06-.29,.18-.46,.12-.17,.27-.31,.43-.43,.17-.12,.32-.18,.46-.18s.29,.06,.45,.18c.16,.12,.31,.27,.43,.43,.13,.17,.19,.32,.19,.46,0,.13-.06,.27-.19,.44-.13,.17-.27,.32-.44,.44-.17,.13-.32,.19-.44,.19Zm2.12,10.21v-1.92h2.74v-6.22h1.7v8.15h-4.44Zm2.25-10.21c-.13,0-.28-.06-.45-.18s-.32-.27-.44-.44-.18-.32-.18-.45c0-.14,.06-.29,.18-.46,.12-.17,.27-.31,.43-.43,.17-.12,.32-.18,.46-.18s.29,.06,.45,.18c.16,.12,.31,.27,.43,.43,.13,.17,.19,.32,.19,.46,0,.13-.06,.27-.19,.44-.13,.17-.27,.32-.44,.44-.17,.13-.32,.19-.44,.19Zm1.34-2.81c-.13,0-.28-.06-.45-.18-.17-.12-.32-.27-.44-.44s-.18-.32-.18-.45c0-.14,.06-.29,.18-.46,.12-.17,.27-.31,.43-.43,.17-.12,.32-.18,.46-.18s.29,.06,.45,.18c.16,.12,.31,.27,.43,.43,.13,.17,.19,.32,.19,.46,0,.13-.06,.27-.19,.44-.13,.17-.27,.32-.44,.44-.17,.13-.32,.19-.44,.19Zm1.35,2.81c-.13,0-.28-.06-.45-.18s-.32-.27-.44-.44-.18-.32-.18-.45c0-.14,.06-.29,.18-.46,.12-.17,.27-.31,.43-.43,.17-.12,.32-.18,.46-.18s.29,.06,.45,.18c.16,.12,.31,.27,.43,.43,.13,.17,.19,.32,.19,.46,0,.13-.06,.27-.19,.44-.13,.17-.27,.32-.44,.44-.17,.13-.32,.19-.44,.19Zm3.94,14.74l1.46-.4v.9l-3.99,1.08v-.9l.73-.21c-.06-.14-.1-.3-.13-.49-.03-.19-.04-.42-.04-.69,0-.64,.12-1.13,.37-1.47,.25-.35,.6-.6,1.05-.75,.45-.15,.98-.23,1.58-.24v1.08c-.31,.01-.62,.05-.93,.11-.31,.06-.59,.16-.84,.29l-.02,1.35c0,.2,.06,.32,.17,.37,.12,.05,.31,.04,.59-.03Zm4.92-11.62v-3.83h1.7v3.33c0,.39-.03,.73-.08,1.01-.05,.28-.14,.51-.28,.68-.13,.17-.33,.3-.58,.39v.12c.5,.45,.84,.88,1.02,1.28,.18,.4,.28,.86,.28,1.37,0,1.05-.35,1.81-1.06,2.29-.71,.47-1.86,.71-3.47,.71-1.05,0-1.88-.09-2.47-.27-.6-.18-1.01-.47-1.26-.88-.24-.4-.36-.94-.36-1.6,0-.55,.06-1.02,.19-1.39,.13-.37,.37-.69,.72-.96,.35-.27,.86-.53,1.52-.77l4.13-1.49Zm-2.51,1.44l-3.66-2.97,1.16-1.4,4.53,3.68-2.03,.69Zm-2.22,3.99h3.35c.59,0,1.01-.11,1.27-.33,.25-.22,.38-.47,.38-.76,0-.21-.06-.42-.18-.64-.12-.22-.29-.41-.51-.57l-.88-.71-3.42,1.23v1.79Zm9.76,1.66v-10.92h1.7v10.92h-1.7Z"/><path class="b" d="M90.89,38.83l2.53-.68v1.8l-6.73,1.8v-1.8l1.72-.45c-.34-.49-.5-1.23-.5-2.24,0-1.38,.38-2.38,1.15-3.02,.77-.64,1.97-.95,3.62-.95v1.92c-.53,0-1.07,.06-1.62,.17-.55,.12-1,.28-1.36,.49v2.22c0,.39,.08,.64,.24,.75,.16,.11,.48,.1,.95-.03Zm4.54,3.09v-10.92h1.7v9h1.98v1.92h-3.68Zm2.98,0v-1.92h2.74v-6.22h1.7v8.15h-4.44Zm2.25-10.21c-.13,0-.28-.06-.45-.18-.17-.12-.32-.27-.44-.44-.12-.17-.18-.32-.18-.45,0-.14,.06-.29,.18-.46,.12-.17,.27-.31,.43-.43,.17-.12,.32-.18,.46-.18s.29,.06,.45,.18c.16,.12,.31,.27,.43,.43,.13,.17,.19,.32,.19,.46,0,.13-.06,.27-.19,.44-.13,.17-.27,.32-.44,.44-.17,.13-.32,.19-.44,.19Zm1.34-2.81c-.13,0-.28-.06-.45-.18s-.32-.27-.44-.44-.18-.32-.18-.45c0-.14,.06-.29,.18-.46,.12-.17,.27-.31,.43-.43,.17-.12,.32-.18,.46-.18s.29,.06,.45,.18c.16,.12,.31,.27,.43,.43,.13,.17,.19,.32,.19,.46,0,.13-.06,.27-.19,.44-.13,.17-.27,.32-.44,.44-.17,.13-.32,.19-.44,.19Zm1.35,2.81c-.13,0-.28-.06-.45-.18-.17-.12-.32-.27-.44-.44s-.18-.32-.18-.45c0-.14,.06-.29,.18-.46,.12-.17,.27-.31,.43-.43,.17-.12,.32-.18,.46-.18s.29,.06,.45,.18c.16,.12,.31,.27,.43,.43,.13,.17,.19,.32,.19,.46,0,.13-.06,.27-.19,.44-.13,.17-.27,.32-.44,.44-.17,.13-.32,.19-.44,.19Zm12.87,8.29v1.92h-11.41v-1.92h11.41Zm-8.65,.71l-.71-8.24h1.7l.73,8.24h-1.72Zm4.99,0v-9.71h1.7v9.71h-1.7Zm7.4-.71h1.96v1.92h-6.4v-1.92h2.74v-6.22h1.7v6.22Zm-2.18-8.29c-.13,0-.28-.06-.45-.18-.17-.12-.32-.27-.44-.44-.12-.17-.18-.32-.18-.45,0-.14,.06-.29,.18-.46,.12-.17,.27-.31,.43-.43,.17-.12,.32-.18,.46-.18s.29,.06,.45,.18c.16,.12,.31,.27,.43,.43,.13,.17,.19,.32,.19,.46,0,.13-.06,.27-.19,.44-.13,.17-.27,.32-.44,.44-.17,.13-.32,.19-.44,.19Zm1.34-2.81c-.13,0-.28-.06-.45-.18s-.32-.27-.44-.44-.18-.32-.18-.45c0-.14,.06-.29,.18-.46,.12-.17,.27-.31,.43-.43,.17-.12,.32-.18,.46-.18s.29,.06,.45,.18c.16,.12,.31,.27,.43,.43,.13,.17,.19,.32,.19,.46,0,.13-.06,.27-.19,.44-.13,.17-.27,.32-.44,.44-.17,.13-.32,.19-.44,.19Zm1.35,2.81c-.13,0-.28-.06-.45-.18-.17-.12-.32-.27-.44-.44s-.18-.32-.18-.45c0-.14,.06-.29,.18-.46,.12-.17,.27-.31,.43-.43,.17-.12,.32-.18,.46-.18s.29,.06,.45,.18c.16,.12,.31,.27,.43,.43,.13,.17,.19,.32,.19,.46,0,.13-.06,.27-.19,.44-.13,.17-.27,.32-.44,.44-.17,.13-.32,.19-.44,.19Zm5.2,10.21h-4.44v-1.92h2.74v-9h1.7v10.92Zm3.23,0v-10.92h1.7v10.92h-1.7Z"/><path class="b" d="M160.84,38.83l2.53-.68v1.8l-6.73,1.8v-1.8l1.72-.45c-.34-.49-.5-1.23-.5-2.24,0-1.38,.38-2.38,1.15-3.02,.77-.64,1.97-.95,3.62-.95v1.92c-.53,0-1.07,.06-1.62,.17-.55,.12-1,.28-1.36,.49v2.22c0,.39,.08,.64,.24,.75,.16,.11,.48,.1,.95-.03Zm4.54,3.09v-10.92h1.7v9h1.98v1.92h-3.68Zm2.98-1.92h2.62v1.92h-2.62v-1.92Zm3.23-4.49c0,.97,.23,1.79,.68,2.46,.46,.67,1.14,1.18,2.04,1.52,.9,.34,2.02,.51,3.36,.51v1.92c-1.09,0-2.1-.17-3.04-.5-.94-.34-1.77-.8-2.48-1.4-.71-.6-1.27-1.29-1.66-2.07-.4-.79-.6-1.64-.6-2.57,0-.45,.14-.81,.42-1.08,.28-.27,.74-.45,1.39-.56,.65-.11,1.53-.16,2.64-.16s2.02,.06,2.67,.16c.65,.11,1.11,.3,1.38,.56,.27,.27,.41,.62,.41,1.08,0,.92-.2,1.78-.6,2.57-.4,.79-.95,1.48-1.66,2.07-.71,.6-1.54,1.06-2.48,1.4-.94,.34-1.96,.5-3.06,.5v-1.92c1.35,0,2.48-.17,3.38-.51,.9-.34,1.58-.85,2.04-1.52,.46-.67,.68-1.49,.68-2.46h-5.5Zm6.09,4.49h2.64v1.92h-2.64v-1.92Zm1.94,1.92v-1.92h2.74v-6.22h1.7v8.15h-4.44Zm3.59,3.54c-.13,0-.28-.06-.45-.18-.17-.12-.32-.27-.44-.44-.12-.17-.18-.32-.18-.45,0-.14,.06-.29,.18-.46,.12-.17,.27-.31,.43-.43,.17-.12,.32-.18,.46-.18s.29,.06,.45,.18c.16,.12,.31,.27,.43,.43,.13,.17,.19,.32,.19,.46,0,.13-.06,.27-.19,.44-.13,.17-.27,.31-.44,.44-.17,.13-.32,.19-.44,.19Zm3.59,1.06l-.69-1.51c.46-.22,.82-.46,1.08-.72,.25-.26,.43-.59,.54-.98,.1-.39,.16-.89,.16-1.49v-8.05h1.7v8.05c0,.81-.09,1.51-.28,2.1-.19,.59-.48,1.09-.89,1.51-.41,.42-.95,.78-1.6,1.09Zm7.99-17.48l1.46-.4v.9l-3.99,1.08v-.9l.73-.21c-.06-.14-.1-.3-.13-.49-.03-.18-.04-.42-.04-.69,0-.64,.12-1.13,.37-1.47,.25-.35,.6-.6,1.05-.75,.45-.15,.98-.23,1.58-.24v1.08c-.31,.01-.62,.05-.93,.11-.31,.06-.59,.16-.84,.29l-.02,1.35c0,.2,.06,.32,.17,.37,.12,.05,.31,.04,.59-.03Zm4.14,5.79v-3.83h1.7v3.33c0,.39-.03,.73-.08,1.01-.05,.28-.14,.51-.28,.68-.13,.17-.33,.3-.58,.39v.12c.5,.45,.84,.88,1.02,1.28,.18,.4,.28,.86,.28,1.37,0,1.05-.35,1.81-1.06,2.29-.71,.47-1.86,.71-3.47,.71-1.05,0-1.88-.09-2.47-.27-.6-.18-1.01-.47-1.26-.88-.24-.4-.36-.94-.36-1.6,0-.55,.06-1.02,.19-1.39,.13-.37,.37-.69,.72-.96,.35-.27,.86-.53,1.52-.77l4.13-1.49Zm-2.51,1.44l-3.66-2.97,1.16-1.4,4.53,3.68-2.03,.69Zm-2.22,3.99h3.35c.59,0,1.01-.11,1.27-.33,.25-.22,.38-.47,.38-.76,0-.21-.06-.42-.18-.64-.12-.22-.29-.41-.51-.57l-.88-.71-3.42,1.23v1.79Zm9.76,1.66v-10.92h1.7v10.92h-1.7Z"/><g><path class="b" d="M227.51,44.58c-.82,0-1.48-.06-1.98-.16-.5-.11-.88-.3-1.15-.56-.26-.26-.44-.63-.53-1.1s-.13-1.07-.13-1.81c0-.39,.02-.79,.05-1.2,.03-.41,.08-.81,.15-1.19s.15-.73,.25-1.03l1.55,.24c-.13,.51-.23,1.02-.32,1.5s-.13,.94-.13,1.37c0,.46,.01,.86,.04,1.21,.03,.34,.07,.67,.13,.99h2.7c.74,0,1.26-.06,1.56-.16,.3-.11,.45-.33,.45-.67v-7.21h1.55v6.42c0,.67-.05,1.23-.16,1.67s-.31,.79-.61,1.03c-.3,.25-.72,.42-1.27,.52-.55,.1-1.26,.15-2.15,.15Zm5.69-3.79h-1.5v-1.75h2.2c.43,0,.75-.06,.94-.16,.2-.11,.29-.33,.29-.67v-3.42h1.55v2.77c0,.65-.05,1.19-.14,1.61-.09,.42-.25,.75-.5,.99-.24,.24-.59,.41-1.05,.5-.46,.1-1.06,.14-1.79,.14Zm5.3,0c-.71,0-1.28-.05-1.72-.14-.44-.09-.78-.26-1.02-.5s-.4-.57-.49-.99c-.09-.42-.13-.96-.13-1.61v-2.77h1.55v3.42c0,.34,.1,.56,.29,.67,.2,.11,.5,.16,.93,.16h2.02c.06-.32,.11-.66,.13-1.03,.03-.37,.04-.79,.04-1.27s-.04-.97-.11-1.5c-.07-.52-.17-1.06-.3-1.61l1.53-.24c.08,.28,.16,.62,.22,1,.06,.39,.12,.78,.16,1.17,.04,.4,.06,.76,.06,1.1,0,1.07-.1,1.89-.29,2.49s-.52,1.01-.98,1.27c-.46,.25-1.09,.37-1.89,.37Z"/><path class="b" d="M244.06,41.99c0-.4,.02-.81,.06-1.23,.04-.42,.09-.83,.17-1.22,.07-.4,.16-.75,.27-1.07l1.52,.25c-.14,.52-.25,1.02-.33,1.5s-.13,.95-.13,1.39c0,.38,.01,.72,.04,1,.03,.28,.07,.57,.13,.84h4.47c.87,0,1.56-.03,2.05-.07s.84-.13,1.04-.25c.21-.12,.31-.29,.31-.51v-2.92l-2.18-.25c-.71-.09-1.25-.23-1.62-.44s-.63-.52-.77-.94-.21-.97-.21-1.65c0-.6,.05-1.1,.14-1.5,.09-.4,.25-.73,.48-.98,.23-.25,.54-.43,.93-.55,.39-.11,.89-.16,1.49-.16,.55,0,1.08,.03,1.59,.08,.51,.05,1.02,.13,1.54,.24l-.28,1.67c-.52-.08-.98-.14-1.38-.18-.41-.04-.82-.06-1.24-.06-.32,0-.61,0-.87,.02s-.51,.03-.74,.07v2.59l2.42,.26c.61,.05,1.08,.19,1.4,.4s.55,.52,.67,.93c.13,.4,.19,.92,.19,1.56v1.15c0,.63-.08,1.16-.25,1.57-.16,.41-.46,.75-.88,1s-1.01,.43-1.76,.53c-.75,.1-1.72,.15-2.9,.15-1.07,0-1.96-.04-2.66-.11-.7-.07-1.24-.22-1.64-.44s-.67-.55-.83-.97-.24-.98-.24-1.67Zm4.54,5.98c-.12,0-.25-.05-.4-.16-.15-.11-.29-.24-.4-.4-.12-.16-.17-.3-.17-.41,0-.13,.06-.27,.17-.42,.11-.15,.25-.29,.4-.4,.16-.11,.29-.16,.41-.16,.13,0,.27,.05,.42,.16,.15,.11,.28,.24,.39,.4,.11,.15,.17,.29,.17,.42,0,.11-.06,.25-.17,.4-.12,.15-.25,.29-.4,.41-.15,.11-.29,.17-.4,.17Zm2.45,0c-.12,0-.25-.05-.4-.16-.15-.11-.29-.24-.4-.4s-.17-.3-.17-.41c0-.13,.06-.27,.17-.42,.11-.15,.25-.29,.4-.4,.16-.11,.3-.16,.41-.16,.13,0,.26,.05,.41,.16,.15,.11,.28,.24,.4,.4,.12,.15,.17,.29,.17,.42,0,.11-.06,.25-.17,.4-.12,.15-.25,.29-.4,.41-.15,.11-.29,.17-.4,.17Z"/><path class="b" d="M257.29,46.07c-.09-.31-.18-.65-.25-1.03-.07-.38-.13-.77-.17-1.18-.04-.41-.06-.82-.06-1.22,0-.86,.07-1.56,.21-2.08,.14-.53,.37-.91,.67-1.16,.31-.24,.71-.36,1.22-.36h5.15v-3.95c-.39-.1-.93-.14-1.61-.14-.45,0-.94,.03-1.45,.1-.51,.06-.99,.15-1.45,.28l-.62-1.49c.49-.2,1.05-.36,1.69-.47,.64-.12,1.3-.17,1.98-.17,.73,0,1.31,.07,1.75,.22s.76,.38,.96,.71c.2,.32,.29,.75,.29,1.29v5.39h-7c-.08,.29-.15,.62-.18,.96-.04,.35-.06,.77-.06,1.25,0,.36,.03,.75,.1,1.18,.07,.43,.19,.97,.36,1.62l-1.53,.27Zm1.75-5.87c-.29-.34-.49-.8-.59-1.34s-.15-1.14-.15-1.77c0-.58,.06-1.14,.17-1.67,.12-.54,.27-1.06,.46-1.59l1.52,.41c-.18,.52-.32,1.02-.43,1.47s-.17,.91-.17,1.37c0,.39,.02,.75,.06,1.09,.04,.33,.1,.65,.19,.93,.09,.28,.22,.55,.39,.79l-1.44,.3Z"/><path class="b" d="M271.08,45.24c-.65,0-1.19-.06-1.61-.16-.42-.11-.75-.3-.98-.57s-.4-.64-.5-1.13c-.1-.49-.15-1.09-.15-1.82,0-1.16,.24-2.08,.72-2.78,.48-.7,1.25-1.2,2.32-1.52,1.07-.32,2.47-.47,4.21-.47l.89,1.55c-1.56,0-2.82,.08-3.77,.24-.95,.15-1.65,.41-2.09,.77-.44,.35-.66,.82-.66,1.4v2.62c.26,.04,.57,.06,.93,.09,.35,.03,.75,.04,1.19,.04s.84-.03,1.26-.08c.42-.06,.91-.15,1.49-.29l.21,1.66c-.43,.14-.95,.25-1.55,.33-.6,.09-1.23,.13-1.9,.13Zm2.13-8.44c-.32-.64-.77-1.12-1.37-1.42-.6-.3-1.36-.45-2.3-.45-.24,0-.47,0-.69,.02s-.45,.03-.68,.05l-.25-1.7c.36-.05,.69-.07,.99-.09,.3-.02,.58-.03,.85-.03,.96,0,1.78,.12,2.46,.37,.68,.24,1.25,.63,1.72,1.16,.46,.53,.85,1.22,1.15,2.08h.89v1.55c-.78,0-1.38-.11-1.79-.34-.41-.23-.73-.63-.96-1.19Zm-1.66-5.69c-.12,0-.25-.06-.41-.17-.16-.11-.29-.24-.4-.4s-.17-.29-.17-.41,.06-.26,.17-.42,.24-.28,.39-.4c.15-.11,.29-.16,.42-.16s.26,.06,.41,.16c.15,.11,.28,.24,.39,.4,.12,.15,.17,.29,.17,.42s-.06,.25-.17,.41c-.12,.15-.25,.28-.4,.4-.15,.11-.29,.17-.4,.17Z"/><path class="b" d="M278.76,42.82h2.7c.74,0,1.26-.06,1.56-.16,.3-.11,.45-.33,.45-.67v-11.19h1.55v10.41c0,.67-.05,1.23-.16,1.67s-.31,.79-.61,1.03c-.3,.25-.72,.42-1.27,.52-.55,.1-1.26,.15-2.15,.15-.79,0-1.43-.06-1.93-.16-.5-.11-.88-.3-1.15-.56-.28-.26-.46-.63-.56-1.1s-.15-1.07-.15-1.81c0-.44,.02-.9,.06-1.36,.04-.46,.09-.92,.17-1.36,.07-.44,.16-.84,.27-1.18l1.45,.24c-.14,.6-.24,1.18-.3,1.74-.06,.57-.1,1.1-.1,1.61,0,.46,.01,.86,.04,1.21,.03,.34,.07,.67,.13,.99Z"/><path class="b" d="M288,40.79v-9.96h1.55v9.96h-1.55Z"/></g><g><path class="b" d="M309.39,33.76v8.15h-4.33c-.76,0-1.39-.06-1.87-.16-.49-.11-.86-.31-1.12-.6-.26-.29-.44-.7-.54-1.24-.1-.53-.15-1.22-.15-2.08s.05-1.55,.15-2.08c.1-.53,.28-.94,.54-1.23s.63-.49,1.12-.6c.49-.11,1.11-.16,1.87-.16h4.33Zm-1.7,1.92h-3.43c-.37,0-.64,.07-.81,.2-.17,.14-.25,.36-.25,.67v2.56c0,.31,.08,.54,.25,.67,.17,.14,.44,.2,.81,.2h3.43v-4.3Zm-3.35-3.99c-.13,0-.28-.06-.45-.18-.17-.12-.32-.27-.44-.44-.12-.17-.18-.33-.18-.45,0-.14,.06-.29,.18-.46,.12-.16,.27-.31,.43-.43,.17-.12,.32-.19,.46-.19s.29,.06,.45,.19c.16,.12,.31,.27,.43,.43,.13,.17,.19,.32,.19,.46,0,.12-.06,.28-.19,.44-.13,.17-.28,.32-.44,.45-.17,.12-.31,.19-.44,.19Zm2.69,0c-.13,0-.28-.06-.45-.18-.17-.12-.32-.27-.44-.44-.12-.17-.18-.33-.18-.45,0-.14,.06-.29,.18-.46,.12-.16,.27-.31,.43-.43,.17-.12,.32-.19,.46-.19s.29,.06,.45,.19c.16,.12,.31,.27,.43,.43,.13,.17,.19,.32,.19,.46,0,.12-.06,.28-.19,.44-.13,.17-.27,.32-.44,.45-.17,.12-.31,.19-.44,.19Z"/><path class="b" d="M315.41,47.61c-.72,0-1.31-.06-1.77-.18-.46-.12-.82-.33-1.08-.62-.25-.3-.44-.71-.55-1.24-.11-.52-.17-1.19-.17-2,0-1.07,.24-1.92,.72-2.56,.48-.64,1.25-1.11,2.32-1.41,1.06-.3,2.47-.45,4.21-.45v1.61c-1.9,0-3.28,.17-4.16,.53-.88,.35-1.32,.94-1.32,1.78v2.46c.29,.05,.63,.08,1.01,.11,.39,.03,.82,.05,1.31,.05s.92-.03,1.38-.1c.46-.07,1-.17,1.64-.3l.23,1.8c-.47,.16-1.04,.29-1.7,.37-.66,.09-1.35,.13-2.08,.13Zm-.47-11.96v4.56l-.92,.81c-.32-.31-.55-.73-.68-1.28-.13-.54-.19-1.22-.19-2.07,0-.8,.05-1.46,.16-1.99,.1-.53,.29-.95,.55-1.26,.26-.3,.62-.52,1.07-.66,.45-.13,1.03-.2,1.73-.2,.37,0,.74,.02,1.11,.06s.73,.1,1.08,.17c.35,.07,.67,.16,.96,.27l-.28,1.81c-.51-.13-.99-.23-1.46-.29-.46-.06-.91-.1-1.35-.1-.37,0-.71,.01-1.01,.03s-.56,.07-.78,.12Z"/><path class="b" d="M321.79,47.7c-.1-.34-.2-.71-.28-1.13-.08-.42-.15-.85-.19-1.3-.05-.45-.07-.9-.07-1.34,0-.95,.08-1.71,.23-2.29,.16-.58,.4-1,.74-1.27,.34-.27,.78-.4,1.34-.4h5.65v-4.33c-.43-.11-1.02-.16-1.77-.16-.5,0-1.03,.03-1.59,.11-.56,.07-1.09,.17-1.59,.31l-.68-1.63c.53-.22,1.15-.4,1.86-.52,.71-.13,1.43-.19,2.17-.19,.8,0,1.44,.08,1.92,.24s.84,.42,1.05,.77c.21,.35,.32,.82,.32,1.41v5.92h-7.68c-.09,.32-.16,.68-.2,1.06-.04,.38-.06,.84-.06,1.37,0,.39,.04,.82,.11,1.3,.07,.47,.2,1.07,.39,1.77l-1.68,.29Zm1.92-6.43c-.32-.38-.54-.87-.65-1.47s-.16-1.25-.16-1.94c0-.64,.06-1.25,.19-1.83,.13-.59,.29-1.16,.5-1.74l1.67,.45c-.2,.58-.36,1.12-.48,1.61s-.18,1-.18,1.51c0,.43,.02,.82,.06,1.2,.04,.37,.11,.71,.21,1.02,.1,.31,.24,.6,.42,.87l-1.58,.33Z"/><path class="b" d="M336.91,46.8c-.72,0-1.31-.06-1.77-.18-.46-.12-.82-.33-1.08-.63s-.44-.71-.55-1.24c-.11-.54-.17-1.2-.17-2,0-1.27,.26-2.29,.79-3.05,.53-.77,1.37-1.32,2.54-1.67,1.17-.35,2.71-.52,4.61-.52l.97,1.7c-1.71,0-3.09,.08-4.14,.26-1.05,.17-1.81,.45-2.29,.84-.48,.38-.72,.9-.72,1.54v2.87c.29,.04,.63,.07,1.01,.1,.39,.03,.82,.05,1.31,.05s.92-.03,1.38-.08c.46-.06,1-.16,1.64-.32l.23,1.82c-.47,.15-1.04,.27-1.7,.36-.66,.1-1.35,.14-2.08,.14Zm2.34-9.26c-.35-.71-.85-1.22-1.5-1.55-.65-.33-1.49-.5-2.52-.5-.27,0-.52,0-.76,.02s-.49,.03-.75,.05l-.28-1.87c.39-.05,.75-.08,1.08-.1,.33-.02,.64-.03,.93-.03,1.05,0,1.95,.14,2.7,.4,.75,.27,1.37,.69,1.88,1.28,.51,.58,.93,1.34,1.27,2.28h.97v1.7c-.86,0-1.51-.12-1.96-.37-.45-.25-.8-.69-1.06-1.31Zm-1.27,5.67c-.13,0-.28-.06-.45-.18-.17-.12-.32-.27-.44-.44-.12-.17-.18-.33-.18-.45,0-.14,.06-.29,.18-.46,.12-.16,.27-.31,.43-.43,.17-.12,.32-.18,.46-.18s.29,.06,.45,.18c.16,.12,.31,.27,.43,.43,.13,.17,.19,.32,.19,.46,0,.12-.06,.27-.19,.44-.13,.17-.28,.32-.44,.44-.17,.13-.31,.19-.44,.19Z"/><path class="b" d="M345.2,44.15h2.96c.81,0,1.38-.06,1.71-.18,.33-.12,.49-.37,.49-.74v-12.28h1.7v11.41c0,.74-.06,1.35-.17,1.83s-.34,.86-.67,1.13c-.33,.28-.79,.46-1.4,.58-.6,.11-1.39,.16-2.36,.16-.87,0-1.57-.06-2.12-.18-.54-.12-.97-.33-1.27-.62-.3-.29-.51-.69-.62-1.21s-.16-1.17-.16-1.99c0-.49,.02-.98,.06-1.49,.04-.51,.1-1,.18-1.49,.08-.49,.18-.92,.29-1.3l1.59,.26c-.15,.66-.26,1.3-.33,1.91-.07,.62-.1,1.21-.1,1.76,0,.51,.01,.95,.04,1.33,.03,.38,.08,.74,.15,1.08Z"/><path class="b" d="M355.32,41.91v-10.93h1.7v10.93h-1.7Z"/></g><g><path class="b" d="M375.49,42.52c-.56,0-1.01-.11-1.36-.33s-.6-.57-.76-1.06c-.16-.48-.24-1.13-.24-1.93,0-.5,.04-1,.13-1.53,.08-.52,.2-.98,.33-1.37l1.49,.24c-.13,.41-.22,.81-.28,1.19-.06,.39-.1,.75-.1,1.1,0,.4,.02,.75,.06,1.06,.04,.3,.1,.6,.18,.87h8.28v-5.68h1.55v7.44h-9.28Zm2.41-7.74c-.12,0-.25-.06-.41-.17-.16-.11-.29-.24-.4-.4s-.17-.29-.17-.41,.06-.27,.17-.42c.11-.15,.24-.29,.4-.4,.15-.11,.29-.16,.42-.16s.26,.05,.41,.16c.15,.11,.28,.24,.4,.4,.12,.15,.17,.29,.17,.42s-.06,.25-.17,.4c-.12,.15-.25,.29-.4,.41-.15,.11-.29,.18-.4,.18Zm2.45,0c-.12,0-.25-.06-.41-.17-.16-.11-.29-.24-.4-.4s-.17-.29-.17-.41,.06-.27,.17-.42c.11-.15,.24-.29,.4-.4,.15-.11,.29-.16,.42-.16s.26,.05,.41,.16c.15,.11,.28,.24,.4,.4,.12,.15,.17,.29,.17,.42s-.06,.25-.17,.4c-.12,.15-.25,.29-.4,.41-.15,.11-.29,.18-.4,.18Z"/><path class="b" d="M389.62,42.52c-.56,0-1.01-.11-1.36-.33s-.6-.57-.76-1.06c-.16-.48-.24-1.13-.24-1.93,0-.5,.04-1,.13-1.53,.08-.52,.2-.98,.33-1.37l1.49,.24c-.13,.41-.22,.81-.28,1.19-.06,.39-.1,.75-.1,1.1,0,.4,.02,.75,.06,1.06,.04,.3,.1,.6,.18,.87h8.28v-5.68h1.55v7.44h-9.28Zm3.64,3.35c-.12,0-.25-.06-.41-.16-.16-.11-.29-.25-.4-.41-.11-.15-.17-.29-.17-.41,0-.13,.06-.27,.17-.42s.24-.28,.4-.4c.15-.11,.29-.16,.42-.16s.26,.06,.41,.16c.15,.11,.28,.24,.4,.4,.12,.15,.17,.29,.17,.42,0,.11-.06,.25-.17,.4-.12,.15-.25,.29-.4,.4-.15,.12-.29,.18-.4,.18Z"/><path class="b" d="M405.25,46.32c-.82,0-1.49-.06-1.99-.16-.5-.11-.89-.3-1.15-.56-.26-.26-.44-.63-.53-1.1s-.13-1.07-.13-1.81c0-.39,.02-.79,.05-1.2,.03-.41,.08-.81,.15-1.2s.15-.73,.25-1.04l1.55,.24c-.13,.52-.23,1.02-.32,1.5s-.13,.94-.13,1.38c0,.46,.01,.87,.04,1.21,.03,.35,.07,.68,.13,.99h2.71c.74,0,1.26-.06,1.56-.16,.3-.11,.45-.33,.45-.68v-7.22h1.55v6.43c0,.68-.05,1.23-.16,1.67s-.31,.79-.61,1.04c-.3,.25-.73,.42-1.27,.53-.55,.1-1.27,.15-2.15,.15Zm5.7-3.8h-1.5v-1.76h2.2c.43,0,.75-.06,.94-.16,.2-.11,.29-.33,.29-.68v-3.42h1.55v2.77c0,.65-.05,1.19-.14,1.61-.09,.42-.26,.75-.5,.99-.24,.24-.59,.41-1.05,.5-.46,.1-1.06,.14-1.8,.14Zm5.3,0c-.71,0-1.28-.05-1.73-.14-.44-.09-.78-.26-1.02-.5s-.4-.57-.49-.99c-.09-.42-.13-.96-.13-1.61v-2.77h1.55v3.42c0,.34,.1,.56,.29,.68,.2,.11,.5,.16,.93,.16h2.03c.06-.32,.11-.66,.13-1.03,.03-.37,.04-.79,.04-1.27s-.04-.97-.11-1.5c-.07-.53-.17-1.06-.3-1.61l1.54-.24c.09,.28,.16,.62,.22,1,.06,.39,.12,.78,.16,1.17,.04,.4,.06,.76,.06,1.1,0,1.07-.1,1.9-.29,2.49s-.52,1.02-.98,1.27c-.46,.25-1.09,.37-1.89,.37Z"/><path class="b" d="M423.55,44.56h2.71c.74,0,1.26-.06,1.56-.16,.3-.11,.45-.33,.45-.68v-11.21h1.55v10.42c0,.68-.05,1.23-.16,1.67s-.31,.79-.61,1.04c-.3,.25-.73,.42-1.27,.53-.55,.1-1.27,.15-2.15,.15-.79,0-1.44-.06-1.93-.16-.5-.11-.88-.3-1.16-.56-.28-.26-.46-.63-.56-1.1s-.15-1.07-.15-1.81c0-.44,.02-.9,.06-1.36,.04-.46,.09-.92,.17-1.36,.07-.44,.16-.84,.27-1.19l1.46,.24c-.14,.6-.24,1.19-.3,1.75-.06,.57-.1,1.1-.1,1.61,0,.46,.01,.87,.04,1.21,.03,.35,.07,.68,.13,.99Z"/><path class="b" d="M432.79,42.52v-9.98h1.55v9.98h-1.55Z"/></g><path class="b" d="M457.68,41.91v-1.92h5.74c-.25-.98-.49-1.78-.72-2.38-.23-.61-.46-1.08-.69-1.41-.24-.34-.51-.56-.83-.68-.32-.12-.7-.18-1.15-.18-.23,0-.48,.01-.75,.04-.27,.03-.51,.07-.73,.13l-.49-1.86c.32-.08,.66-.14,1.01-.18,.35-.04,.66-.06,.95-.06,.62,0,1.16,.05,1.6,.14,.44,.09,.84,.27,1.17,.54,.34,.27,.64,.66,.92,1.18,.28,.52,.55,1.2,.83,2.04,.28,.84,.58,1.88,.92,3.13v1.49h-7.79Zm7.37-1.92h1.37v1.92h-1.37v-1.92Zm7.73-2.88l1.58,.61c-.23,.66-.53,1.25-.88,1.76-.36,.51-.78,.95-1.26,1.32-.48,.36-1.03,.64-1.64,.83-.61,.19-1.29,.29-2.03,.29h-2.83v-1.92h3.17c.54,0,1.03-.08,1.45-.25,.42-.17,.79-.39,1.1-.68,.31-.28,.58-.59,.8-.93,.22-.34,.4-.68,.54-1.02Zm1.47-.12h1.58v1.92h-1.66c-.36,0-.64-.08-.84-.23-.2-.16-.37-.4-.49-.74-.22-.61-.49-1.1-.81-1.46-.32-.36-.74-.61-1.24-.76-.5-.15-1.12-.23-1.86-.23-.25,0-.51,0-.78,.02-.27,.01-.55,.03-.85,.05l-.28-1.87c.37-.03,.72-.06,1.06-.09,.34-.02,.65-.03,.95-.03,.97,0,1.79,.12,2.44,.36,.66,.24,1.21,.6,1.66,1.1,.44,.5,.82,1.15,1.14,1.96Zm5.18-7.96l1.46-.4v.9l-3.99,1.08v-.9l.73-.21c-.06-.14-.1-.3-.13-.49-.03-.18-.04-.42-.04-.69,0-.64,.12-1.13,.37-1.47,.25-.35,.6-.6,1.05-.75,.45-.15,.98-.23,1.58-.24v1.08c-.31,.01-.62,.05-.93,.11-.31,.06-.59,.16-.84,.29l-.02,1.35c0,.2,.06,.32,.17,.37,.12,.05,.31,.04,.59-.03Zm4.14,5.79v-3.83h1.7v3.33c0,.39-.03,.73-.08,1.01-.05,.28-.14,.51-.28,.68-.13,.17-.33,.3-.58,.39v.12c.5,.45,.84,.88,1.02,1.28,.18,.4,.28,.86,.28,1.37,0,1.05-.35,1.81-1.06,2.29-.71,.47-1.86,.71-3.47,.71-1.05,0-1.88-.09-2.47-.27-.6-.18-1.01-.47-1.26-.88-.24-.4-.36-.94-.36-1.6,0-.55,.06-1.02,.19-1.39,.13-.37,.37-.69,.72-.96,.35-.27,.86-.53,1.52-.77l4.13-1.49Zm-2.51,1.44l-3.66-2.97,1.16-1.4,4.53,3.68-2.03,.69Zm-2.22,3.99h3.35c.59,0,1.01-.11,1.27-.33,.25-.22,.38-.47,.38-.76,0-.21-.06-.42-.18-.64-.12-.22-.29-.41-.51-.57l-.88-.71-3.42,1.23v1.79Zm9.76,1.66v-10.92h1.7v10.92h-1.7Z"/></svg>