<?xml version="1.0" encoding="UTF-8"?><svg id="a" xmlns="http://www.w3.org/2000/svg" xmlns:xlink="http://www.w3.org/1999/xlink" viewBox="0 0 282.57 512"><defs><style>.d{fill:none;}.e{fill:#df8000;}.f{fill:#2b2961;}.g{clip-path:url(#c);}.h{clip-path:url(#b);}</style><clipPath id="b"><rect class="d" x="10.21" width="262.14" height="512"/></clipPath><clipPath id="c"><rect class="d" x="10.21" width="262.14" height="512"/></clipPath></defs><rect class="e" x="22.4" y="356.29" width="138.71" height="75.33"/><path class="e" d="M161.1,432.98H22.4c-.75,0-1.36-.61-1.36-1.36v-75.34c0-.75,.61-1.36,1.36-1.36H161.1c.75,0,1.36,.61,1.36,1.36v75.34c0,.75-.61,1.36-1.36,1.36Zm-137.35-2.72H159.75v-72.62H23.75v72.62Z"/><g class="h"><path class="e" d="M124.33,94.26c-4.02-14-16.3-24.19-30.82-24.19s-26.8,10.19-30.82,24.19h61.64Z"/><path class="e" d="M124.33,95.62H62.69c-.43,0-.83-.2-1.09-.54s-.34-.79-.22-1.19c4.32-15.05,17.23-25.17,32.13-25.17s27.8,10.12,32.13,25.17c.12,.4,.04,.85-.22,1.19s-.66,.54-1.09,.54Zm-59.79-2.72h57.93c-4.44-12.91-15.88-21.47-28.97-21.47s-24.52,8.56-28.97,21.47Z"/><rect class="f" x="15.93" y="349.34" width="150.5" height="4.35"/><path class="f" d="M89.12,147.2c-22.59,0-40.97-18.57-40.97-41.4s18.38-41.39,40.97-41.39,40.98,18.57,40.98,41.39-18.38,41.4-40.98,41.4Zm0-76.28c-19,0-34.45,15.65-34.45,34.88s15.46,34.89,34.45,34.89,34.45-15.65,34.45-34.89-15.46-34.88-34.45-34.88Z"/></g><rect class="f" x="51.34" y="90.82" width="75.57" height="4.35"/><g class="g"><path class="f" d="M77.73,109.66c0,1.1-.88,1.99-1.97,1.99s-1.98-.89-1.98-1.99,.89-1.99,1.98-1.99,1.97,.89,1.97,1.99"/><path class="f" d="M104.47,109.66c0,1.1-.88,1.99-1.97,1.99s-1.98-.89-1.98-1.99,.89-1.99,1.98-1.99,1.97,.89,1.97,1.99"/><path class="f" d="M128.58,512c-1.8,0-3.26-1.45-3.26-3.26v-75.4c0-1.8,1.46-3.26,3.26-3.26s3.26,1.45,3.26,3.26v75.4c0,1.8-1.46,3.26-3.26,3.26Zm-79.62,0c-1.8,0-3.26-1.45-3.26-3.26v-75.4c0-1.8,1.46-3.26,3.26-3.26s3.26,1.45,3.26,3.26v75.4c0,1.8-1.46,3.26-3.26,3.26Zm77.69-198.77c-1.8,0-3.26-1.45-3.26-3.26v-75.39c0-1.8,1.46-3.26,3.26-3.26s3.26,1.45,3.26,3.26v75.39c0,1.8-1.46,3.26-3.26,3.26Zm-75.24,0c-1.8,0-3.26-1.45-3.26-3.26v-75.39c0-1.8,1.46-3.26,3.26-3.26s3.26,1.45,3.26,3.26v75.39c0,1.8-1.46,3.26-3.26,3.26Z"/><path class="f" d="M164.07,434.12H13.47c-1.8,0-3.26-1.45-3.26-3.26V248.38c0-45.09,35.98-83.18,78.57-83.18s79.07,38.09,79.07,83.18h0l-.51,182.49c0,1.79-1.47,3.25-3.26,3.25Zm-147.34-6.52H160.82l.5-179.23c0-41.55-33.22-76.65-72.54-76.65S16.73,206.82,16.73,248.38v179.22Z"/></g><path class="f" d="M87.11,433.06c-1.2,0-2.17-.98-2.17-2.18v-58.47c0-1.2,.97-2.18,2.17-2.18s2.17,.98,2.17,2.18v58.47c0,1.2-.97,2.18-2.17,2.18Z"/><polygon class="e" points="187.82 1.37 187.82 48.97 187.82 67.87 175.96 108.7 217.6 89.28 270.99 89.28 270.99 1.37 187.82 1.37"/><path class="e" d="M175.96,110.06c-.32,0-.64-.12-.89-.33-.41-.35-.57-.9-.42-1.42l11.81-40.64V1.37c0-.75,.61-1.37,1.37-1.37h83.17c.76,0,1.37,.62,1.37,1.37V89.29c0,.75-.61,1.37-1.37,1.37h-53.09l-41.36,19.28c-.19,.08-.38,.13-.58,.13ZM189.19,2.74V67.86c0,.13-.02,.25-.05,.38l-11.02,37.93,38.9-18.13c.18-.08,.38-.13,.58-.13h52.02V2.74h-80.43Z"/><path class="f" d="M170.3,113.71c-.57,0-1.14-.2-1.6-.59-.73-.63-1.03-1.61-.76-2.54l11.67-40.16V4.8c0-1.36,1.1-2.45,2.45-2.45h87.07c1.35,0,2.45,1.09,2.45,2.45V92c0,1.36-1.1,2.45-2.45,2.45h-57l-40.8,19.02c-.33,.16-.68,.23-1.04,.23ZM184.52,7.25v63.51c0,.23-.03,.46-.1,.68l-10.26,35.31,36.39-16.98c.32-.16,.68-.23,1.04-.23h55.09V7.25h-82.16Z"/><path class="f" d="M252.65,69.83h-50.4c-.9,0-1.63-.73-1.63-1.63s.73-1.63,1.63-1.63h50.4c.9,0,1.63,.73,1.63,1.63s-.73,1.63-1.63,1.63Zm0-12.28h-50.4c-.9,0-1.63-.73-1.63-1.63s.73-1.63,1.63-1.63h50.4c.9,0,1.63,.73,1.63,1.63s-.73,1.63-1.63,1.63Zm0-12.29h-50.4c-.9,0-1.63-.73-1.63-1.63s.73-1.63,1.63-1.63h50.4c.9,0,1.63,.73,1.63,1.63s-.73,1.63-1.63,1.63Zm0-12.29h-50.4c-.9,0-1.63-.73-1.63-1.63s.73-1.63,1.63-1.63h50.4c.9,0,1.63,.73,1.63,1.63s-.73,1.63-1.63,1.63Zm0-12.29h-50.4c-.9,0-1.63-.73-1.63-1.63s.73-1.63,1.63-1.63h50.4c.9,0,1.63,.73,1.63,1.63s-.73,1.63-1.63,1.63Z"/></svg>