<?xml version="1.0" encoding="utf-8"?>
<!-- Generator: Adobe Illustrator 26.0.2, SVG Export Plug-In . SVG Version: 6.00 Build 0)  -->
<svg version="1.1" id="Ebene_1" xmlns="http://www.w3.org/2000/svg" xmlns:xlink="http://www.w3.org/1999/xlink" x="0px" y="0px"
	 viewBox="0 0 52.87 67.32" style="enable-background:new 0 0 52.87 67.32;" xml:space="preserve">
<style type="text/css">
	.st0{fill:#E59C00;}
	.st1{fill:#2B2961;}
	.st2{fill:#FFFFFF;}
	.st3{clip-path:url(#SVGID_00000093171646512911746870000016564303712414913666_);}
	.st4{clip-path:url(#SVGID_00000119098496980296655480000012040163469569968293_);}
	.st5{clip-path:url(#SVGID_00000002375059332661989200000003130938379832307849_);}
	.st6{clip-path:url(#SVGID_00000005965314148781334660000000489181035819339942_);}
	.st7{clip-path:url(#SVGID_00000030450204444468101940000006591888089402038200_);}
	.st8{clip-path:url(#SVGID_00000176008588580088977490000018409969149180448440_);}
	.st9{clip-path:url(#SVGID_00000020363156792955726260000014185718248099591336_);}
	.st10{clip-path:url(#SVGID_00000056400848305613755700000017494857535159309716_);}
	.st11{clip-path:url(#SVGID_00000119081845855053934600000017333964096468464046_);}
	.st12{clip-path:url(#SVGID_00000067939841785857391860000010097589398737802397_);}
	.st13{clip-path:url(#SVGID_00000091710979078666560670000018248967507770420140_);}
	.st14{clip-path:url(#SVGID_00000170986258452629388440000005005182884044774536_);}
	.st15{clip-path:url(#SVGID_00000120516814010829458630000013848238857948303794_);}
	.st16{clip-path:url(#SVGID_00000182526186661162663170000004896240750260898213_);}
	.st17{clip-path:url(#SVGID_00000178926129366875361560000017250890929216549272_);}
	.st18{clip-path:url(#SVGID_00000130636323575988666090000005415256899654292126_);}
	.st19{clip-path:url(#SVGID_00000134233406863015517450000004109984845212100246_);}
	.st20{clip-path:url(#SVGID_00000016074253932872849130000000496761620612461955_);}
	.st21{clip-path:url(#SVGID_00000097480049121385426920000016299735407057375414_);}
	.st22{clip-path:url(#SVGID_00000168822477559354539510000001794328224316095638_);}
	.st23{clip-path:url(#SVGID_00000111160965497019624410000005123170665158079881_);}
	.st24{clip-path:url(#SVGID_00000021812490640834530760000001430852676703948695_);}
	.st25{clip-path:url(#SVGID_00000110459715869522061900000007555971938118479021_);}
	.st26{clip-path:url(#SVGID_00000174568456133003235590000003281429004192369308_);}
	.st27{clip-path:url(#SVGID_00000163061317954084538940000007118809594205579445_);}
	.st28{clip-path:url(#SVGID_00000109025184681903599450000002769934337857366413_);}
	.st29{clip-path:url(#SVGID_00000116198437826541190720000011915336258723977898_);}
	.st30{clip-path:url(#SVGID_00000152251514469932275550000017497942096399933070_);}
	.st31{clip-path:url(#SVGID_00000140712173800127279650000015951573855838985134_);}
	.st32{clip-path:url(#SVGID_00000013874569250728943250000008662412815717103802_);}
	.st33{clip-path:url(#SVGID_00000025407920300186033370000001946089610084765067_);}
	.st34{clip-path:url(#SVGID_00000018196864235708068940000012748937006622661547_);}
	.st35{clip-path:url(#SVGID_00000087408290311292960080000014600391443012465292_);}
	.st36{clip-path:url(#SVGID_00000162319286004430611870000001024332988793060748_);}
	.st37{clip-path:url(#SVGID_00000053522639074631466660000017533941771785478061_);}
	.st38{clip-path:url(#SVGID_00000150084465995094346600000000926524528227194499_);}
	.st39{clip-path:url(#SVGID_00000060729265037416596460000009453248173765829516_);}
	.st40{clip-path:url(#SVGID_00000044178107266462247000000016137871630522282161_);}
	.st41{clip-path:url(#SVGID_00000000912561533406335420000003327070906273722788_);}
	.st42{clip-path:url(#SVGID_00000052818939028836659720000008000901885393211824_);}
	.st43{clip-path:url(#SVGID_00000173121034515141281370000005865995149271638431_);}
	.st44{clip-path:url(#SVGID_00000145018376508122706330000018182329082045415076_);}
	.st45{clip-path:url(#SVGID_00000133498793593607374800000001408521174219440825_);}
	.st46{clip-path:url(#SVGID_00000074402961407274762460000005490042942407250059_);}
	.st47{clip-path:url(#SVGID_00000088823877073420396530000014733842371198649770_);}
	.st48{clip-path:url(#SVGID_00000124144031174740847600000008860261765948398008_);}
	.st49{clip-path:url(#SVGID_00000097496616598797786830000008182996719785870745_);}
	.st50{clip-path:url(#SVGID_00000018931428987569782540000005314565777904511914_);}
	.st51{clip-path:url(#SVGID_00000111157338337408457860000015311432375948279469_);}
	.st52{clip-path:url(#SVGID_00000171706835072760568650000008786277408998096823_);}
	.st53{clip-path:url(#SVGID_00000104672726024049466680000016697120017474363060_);}
	.st54{clip-path:url(#SVGID_00000083067425708184434240000017973049213428497536_);}
	.st55{clip-path:url(#SVGID_00000043437170151308884190000006401816394054228141_);}
	.st56{clip-path:url(#SVGID_00000000211130921727276950000015512480686437099413_);}
	.st57{clip-path:url(#SVGID_00000000222015521538812830000017834406058363259525_);}
	.st58{clip-path:url(#SVGID_00000033362237105623372190000002684473242007284650_);}
	.st59{clip-path:url(#SVGID_00000025443467289007628920000012553605093075518088_);}
	.st60{clip-path:url(#SVGID_00000047053725889398565930000017434986980076913066_);}
	.st61{clip-path:url(#SVGID_00000101819082060644885360000000564549962238265745_);}
	.st62{clip-path:url(#SVGID_00000088851410181151958570000015766037974029599670_);}
	.st63{clip-path:url(#SVGID_00000094586397223313608540000017191411720369396381_);}
	.st64{clip-path:url(#SVGID_00000009585353176825552050000010352432313115279758_);}
	.st65{clip-path:url(#SVGID_00000080893966788910573920000016819200832690482578_);}
	.st66{clip-path:url(#SVGID_00000018921723833643055770000002058312813815472815_);}
	.st67{clip-path:url(#SVGID_00000167369803576067711660000011073061381227742103_);}
	.st68{clip-path:url(#SVGID_00000170959184258422873390000015944244110442612612_);}
	.st69{clip-path:url(#SVGID_00000106859927570268607680000007303389322473005195_);}
	.st70{clip-path:url(#SVGID_00000099662169986132222380000007143548870350639001_);}
	.st71{clip-path:url(#SVGID_00000054959824362843319020000000567626160549945232_);}
	.st72{clip-path:url(#SVGID_00000006703576637099947710000015509681082542117527_);}
	.st73{clip-path:url(#SVGID_00000091015271116472893080000011136927404833808553_);}
	.st74{clip-path:url(#SVGID_00000027583148991385730480000008439757219431117192_);}
	.st75{clip-path:url(#SVGID_00000171690433064708645580000016190937795119651233_);}
	.st76{clip-path:url(#SVGID_00000096050654195489880500000004699064463560791208_);}
	.st77{clip-path:url(#SVGID_00000131365103746971295510000017743283198675364524_);}
	.st78{clip-path:url(#SVGID_00000078733711213576904600000010527260857479269801_);}
	.st79{clip-path:url(#SVGID_00000130632917066490828640000017179699615317984156_);}
	.st80{clip-path:url(#SVGID_00000160884904859443438780000003292078952313368729_);}
	.st81{clip-path:url(#SVGID_00000174580496536791765820000014356772104109527448_);}
	.st82{clip-path:url(#SVGID_00000085928948194423334610000003604233709802752929_);}
	.st83{fill:none;}
	.st84{clip-path:url(#SVGID_00000170964143106709918480000002202598405530533519_);}
	.st85{clip-path:url(#SVGID_00000103958348077513424510000017674441960771805373_);}
	.st86{clip-path:url(#SVGID_00000155852131852169458580000008674227404467129004_);}
	.st87{clip-path:url(#SVGID_00000028294843949227619180000009306846797707508629_);}
	.st88{clip-path:url(#SVGID_00000025430885722352214690000013497567793589971842_);}
	.st89{clip-path:url(#SVGID_00000158740814700414583030000004425170699024072367_);}
	.st90{clip-path:url(#SVGID_00000019657380580054132830000007837453368438128548_);}
	.st91{clip-path:url(#SVGID_00000004541288420263765690000011856356437165865360_);}
	.st92{clip-path:url(#SVGID_00000049192215708287396370000008171356685884812462_);}
	.st93{clip-path:url(#SVGID_00000008111161587060489770000005405686413007776912_);}
	.st94{clip-path:url(#SVGID_00000042731006285621887350000004959542332932563355_);}
	.st95{clip-path:url(#SVGID_00000142877593664670056000000006259898450572802726_);}
	.st96{clip-path:url(#SVGID_00000051380230235660799900000017999260981162821534_);}
	.st97{clip-path:url(#SVGID_00000121277673466883796020000001115754251812361656_);}
	.st98{clip-path:url(#SVGID_00000165202074521071521630000004571288978685754277_);}
	.st99{clip-path:url(#SVGID_00000083774750809911794880000005532214608661647242_);}
	.st100{clip-path:url(#SVGID_00000092430967532768192770000017294838725263511193_);}
	.st101{clip-path:url(#SVGID_00000183928915150626998030000012995356790184915328_);}
	.st102{clip-path:url(#SVGID_00000021807319015451066710000006603189534909063090_);}
	.st103{clip-path:url(#SVGID_00000078041526514316089460000014320902923578449847_);}
	.st104{clip-path:url(#SVGID_00000059299415927999594120000016209943343411175349_);}
	.st105{clip-path:url(#SVGID_00000079456576365297779320000010076710696571770528_);}
	.st106{clip-path:url(#SVGID_00000104695527564184809700000005754237552148847271_);}
	.st107{clip-path:url(#SVGID_00000103977554684124178140000013845386545861591971_);}
	.st108{clip-path:url(#SVGID_00000101794807044467088040000018103365572674461337_);}
	.st109{clip-path:url(#SVGID_00000076592490709687837560000010977196299176629651_);}
	.st110{clip-path:url(#SVGID_00000177476311895619373150000001955391555404223649_);}
	.st111{clip-path:url(#SVGID_00000014609309568242752320000017355112428667886775_);}
	.st112{clip-path:url(#SVGID_00000173159606686786970920000002209483990274909855_);}
	.st113{clip-path:url(#SVGID_00000057121679926985208110000015964893784162209152_);}
	.st114{clip-path:url(#SVGID_00000119806537667057503180000005882446651962240425_);}
	.st115{clip-path:url(#SVGID_00000125574122929218599470000012565274716401082004_);}
	.st116{clip-path:url(#SVGID_00000132792956357173242900000017422254774899217808_);}
	.st117{clip-path:url(#SVGID_00000120517446912687763610000017933603237952395140_);}
	.st118{clip-path:url(#SVGID_00000171686574002975869840000009403544353185473692_);}
	.st119{clip-path:url(#SVGID_00000042714827315427003800000016848487039560057008_);}
	.st120{clip-path:url(#SVGID_00000041286716206068768460000013832651164116805519_);}
	.st121{clip-path:url(#SVGID_00000093885372072410465410000005416474110958249615_);}
	.st122{clip-path:url(#SVGID_00000061429618479769436850000002633484848405859749_);}
	.st123{clip-path:url(#SVGID_00000182528102071925022340000001154946441913481393_);}
	.st124{clip-path:url(#SVGID_00000056417025259427603300000008427094811151232190_);}
	.st125{clip-path:url(#SVGID_00000065053695438008542460000003710507263075509411_);}
	.st126{clip-path:url(#SVGID_00000149343506221001836700000016215770828133528472_);}
	.st127{clip-path:url(#SVGID_00000139985649335873165910000015845699737335021197_);}
	.st128{clip-path:url(#SVGID_00000010288807046053056600000004831744829958355082_);}
	.st129{clip-path:url(#SVGID_00000075855973988050445960000008174087806878277017_);}
	.st130{clip-path:url(#SVGID_00000037666378348333067770000001238999258605148597_);}
	.st131{clip-path:url(#SVGID_00000162315556121605329850000004122202805330014120_);}
	.st132{clip-path:url(#SVGID_00000112634076281930648810000004751804121480733856_);}
	.st133{clip-path:url(#SVGID_00000056407884673735513410000000948445147286197648_);}
	.st134{clip-path:url(#SVGID_00000110436015944441452710000003552485542935675022_);}
	.st135{clip-path:url(#SVGID_00000157268391517397518960000017393242166178348713_);}
	.st136{clip-path:url(#SVGID_00000104675039774121033840000002390971485712347307_);}
	.st137{clip-path:url(#SVGID_00000154404920177606462460000010094136045804847293_);}
	.st138{clip-path:url(#SVGID_00000155137891387884440090000005361025046395052970_);}
	.st139{clip-path:url(#SVGID_00000140730082073300033270000013724576746153319359_);}
	.st140{clip-path:url(#SVGID_00000083046737247108353020000009607574506657032345_);}
	.st141{clip-path:url(#SVGID_00000167364837690808105770000002138432874872558260_);}
	.st142{clip-path:url(#SVGID_00000183218301296282284400000009375067409379848346_);}
	.st143{clip-path:url(#SVGID_00000159471141983862452410000013387925836470834091_);}
	.st144{clip-path:url(#SVGID_00000047026310606521838280000010727637041282239141_);}
	.st145{clip-path:url(#SVGID_00000116205421771245715040000001550443088190975365_);}
	.st146{clip-path:url(#SVGID_00000067238410824280886590000010025596275982392485_);}
	.st147{clip-path:url(#SVGID_00000046309558212654450990000014338776749283875465_);}
	.st148{clip-path:url(#SVGID_00000107578530071713157920000011408788729113415596_);}
	.st149{clip-path:url(#SVGID_00000061467908716562740660000017101550104166248115_);}
	.st150{clip-path:url(#SVGID_00000183241608431526684990000006380636803522978184_);}
	.st151{clip-path:url(#SVGID_00000142897655937557507670000010426415786733365897_);}
	.st152{clip-path:url(#SVGID_00000146494730393477738530000013522665262733334446_);}
	.st153{clip-path:url(#SVGID_00000106138072487091770170000001003716792174277250_);}
	.st154{clip-path:url(#SVGID_00000037688761254189909970000017503099032554087342_);}
	.st155{clip-path:url(#SVGID_00000046313148561724468990000007034738902059445679_);}
	.st156{clip-path:url(#SVGID_00000137834017166862864300000006519755439076529799_);}
	.st157{clip-path:url(#SVGID_00000077284309490623614510000016497408594489616818_);}
	.st158{clip-path:url(#SVGID_00000056424421142477312420000008598029225445808008_);}
	.st159{clip-path:url(#SVGID_00000152976239588200433900000012020647098656317317_);}
	.st160{clip-path:url(#SVGID_00000173869671633181859330000012723632323250457506_);}
	.st161{clip-path:url(#SVGID_00000114757590080040736020000008162983599806692767_);}
	.st162{clip-path:url(#SVGID_00000000193928077389608000000014640820180856960930_);}
	.st163{clip-path:url(#SVGID_00000039113245651732315890000010844910274340231339_);}
	.st164{clip-path:url(#SVGID_00000062887887176624283540000002549393152892200610_);}
	.st165{clip-path:url(#SVGID_00000152261760138907506370000011379332093354654391_);}
	.st166{clip-path:url(#SVGID_00000002375268800967074810000000250916263925833652_);}
	.st167{clip-path:url(#SVGID_00000147192583539166252480000012421991874763443092_);}
	.st168{clip-path:url(#SVGID_00000122686201580678921710000005567869349349239228_);}
	.st169{clip-path:url(#SVGID_00000012470624797578416180000011087156913253213631_);}
	.st170{clip-path:url(#SVGID_00000131337957372660923930000003243050721355127959_);}
	.st171{clip-path:url(#SVGID_00000052826568924016992390000007730063995902094464_);}
	.st172{clip-path:url(#SVGID_00000173854180476308260680000015355856266565433744_);}
	.st173{clip-path:url(#SVGID_00000005955133585394448220000014489975309738211993_);}
	.st174{clip-path:url(#SVGID_00000181789822389645163910000013482822587790943917_);}
	.st175{clip-path:url(#SVGID_00000147188988284954682220000016320303458333891495_);}
	.st176{clip-path:url(#SVGID_00000109744638054790534830000000135105239553075602_);}
	.st177{clip-path:url(#SVGID_00000089573309126337361440000011228218468833460646_);}
	.st178{clip-path:url(#SVGID_00000094588342906106934580000002334491154984431022_);}
	.st179{clip-path:url(#SVGID_00000121958916867552964460000007760451632961438911_);}
	.st180{clip-path:url(#SVGID_00000136378772676167286620000014634787165205072283_);}
	.st181{clip-path:url(#SVGID_00000183968752192534689140000018379946454698166450_);}
	.st182{clip-path:url(#SVGID_00000161610317289689840400000008823909829391389592_);}
	.st183{clip-path:url(#SVGID_00000123413043315838991360000010450395389933518012_);}
	.st184{clip-path:url(#SVGID_00000181781367182644118140000015300152824601550759_);}
	.st185{clip-path:url(#SVGID_00000134242202660194297130000014686896487703988627_);}
	.st186{clip-path:url(#SVGID_00000103964237335789276390000002721125734027698075_);}
</style>
<g>
	<g>
		<g>
			<rect x="20.86" y="6.87" class="st1" width="9.85" height="0.4"/>
		</g>
	</g>
	<g>
		<g>
			<path class="st1" d="M20.62,33.56c-0.19,0-0.35-0.16-0.35-0.35v-8.85c0-0.19,0.16-0.35,0.35-0.35s0.35,0.16,0.35,0.35v8.85
				C20.96,33.4,20.81,33.56,20.62,33.56z"/>
		</g>
	</g>
	<g>
		<g>
			<path class="st1" d="M31.29,33.56c-0.19,0-0.35-0.16-0.35-0.35v-8.85c0-0.19,0.16-0.35,0.35-0.35s0.35,0.16,0.35,0.35v8.85
				C31.64,33.4,31.48,33.56,31.29,33.56z"/>
		</g>
	</g>
	<g>
		<defs>
			<rect id="SVGID_00000028325891236622915030000003046259703855304581_" width="52.87" height="67.32"/>
		</defs>
		<clipPath id="SVGID_00000080196790112716421640000006282352437304054913_">
			<use xlink:href="#SVGID_00000028325891236622915030000003046259703855304581_"  style="overflow:visible;"/>
		</clipPath>
		<g style="clip-path:url(#SVGID_00000080196790112716421640000006282352437304054913_);">
			<path class="st0" d="M29.08,3.31c-0.01-1.46-1.21-2.76-2.64-2.75c-1.45,0.01-2.62,1.3-2.62,2.75v2.22h5.25L29.08,3.31z"/>
		</g>
		<g style="clip-path:url(#SVGID_00000080196790112716421640000006282352437304054913_);">
			<path class="st0" d="M29.06,5.65h-5.25c-0.07,0-0.13-0.06-0.13-0.13V3.31c0-1.55,1.26-2.87,2.75-2.88c0.01,0,0.01,0,0.02,0
				c0.68,0,1.34,0.28,1.86,0.79c0.56,0.55,0.89,1.31,0.89,2.09c0,0,0,0,0,0l-0.02,2.22C29.19,5.6,29.13,5.65,29.06,5.65z M23.94,5.4
				h5l0.02-2.09c0-0.7-0.3-1.4-0.81-1.91c-0.47-0.47-1.07-0.72-1.69-0.72c-0.01,0-0.01,0-0.02,0c-1.35,0.01-2.5,1.21-2.5,2.63V5.4z"
				/>
		</g>
		<g style="clip-path:url(#SVGID_00000080196790112716421640000006282352437304054913_);">
			<path class="st1" d="M28.47,12.75h-5.23c-0.17,0-0.3-0.13-0.3-0.3v-9.4c0-1.64,1.33-3.04,2.91-3.05c0.01,0,0.01,0,0.02,0
				c0.72,0,1.42,0.3,1.97,0.84c0.59,0.59,0.94,1.39,0.94,2.21c0,0,0,0,0,0l-0.02,9.4C28.77,12.62,28.63,12.75,28.47,12.75z
				 M23.54,12.15h4.63l0.02-9.1c0-0.66-0.28-1.31-0.76-1.79c-0.44-0.43-1-0.7-1.57-0.67c-1.25,0.01-2.32,1.13-2.32,2.45V12.15z"/>
		</g>
		<g style="clip-path:url(#SVGID_00000080196790112716421640000006282352437304054913_);">
			<path class="st2" d="M30.96,8.33c0,2.86-2.32,5.18-5.18,5.18c-2.86,0-5.17-2.32-5.17-5.18c0-2.86,2.32-5.17,5.17-5.17
				C28.64,3.15,30.96,5.47,30.96,8.33"/>
		</g>
		<g style="clip-path:url(#SVGID_00000080196790112716421640000006282352437304054913_);">
			<path class="st1" d="M25.78,13.8c-3.02,0-5.47-2.46-5.47-5.48c0-3.02,2.46-5.47,5.47-5.47c3.02,0,5.48,2.46,5.48,5.47
				C31.26,11.35,28.8,13.8,25.78,13.8z M25.78,3.45c-2.69,0-4.88,2.19-4.88,4.88c0,2.69,2.19,4.88,4.88,4.88
				c2.69,0,4.88-2.19,4.88-4.88C30.66,5.64,28.47,3.45,25.78,3.45z"/>
		</g>
		<g style="clip-path:url(#SVGID_00000080196790112716421640000006282352437304054913_);">
			<path class="st0" d="M30.97,7.04c-0.6-1.97-2.44-3.4-4.61-3.4c-2.17,0-4.01,1.43-4.61,3.4H30.97z"/>
		</g>
		<g style="clip-path:url(#SVGID_00000080196790112716421640000006282352437304054913_);">
			<path class="st0" d="M30.97,7.16h-9.21c-0.04,0-0.08-0.02-0.1-0.05C21.63,7.08,21.62,7.04,21.63,7c0.64-2.09,2.54-3.49,4.73-3.49
				c2.19,0,4.09,1.4,4.73,3.49c0.01,0.04,0,0.08-0.02,0.11C31.05,7.15,31.01,7.16,30.97,7.16z M21.93,6.91h8.87
				c-0.65-1.89-2.41-3.15-4.43-3.15C24.34,3.76,22.58,5.02,21.93,6.91z"/>
		</g>
	</g>
	<g>
		<defs>
			<rect id="SVGID_00000124872372900588978800000003047528629141447091_" width="52.87" height="67.32"/>
		</defs>
		<clipPath id="SVGID_00000020397485999088852220000005400408309083557544_">
			<use xlink:href="#SVGID_00000124872372900588978800000003047528629141447091_"  style="overflow:visible;"/>
		</clipPath>
		<g style="clip-path:url(#SVGID_00000020397485999088852220000005400408309083557544_);">
			<path class="st1" d="M24.18,8.71c0,0.15-0.12,0.28-0.28,0.28c-0.15,0-0.28-0.12-0.28-0.28c0-0.15,0.12-0.28,0.28-0.28
				C24.06,8.44,24.18,8.56,24.18,8.71"/>
		</g>
		<g style="clip-path:url(#SVGID_00000020397485999088852220000005400408309083557544_);">
			<path class="st1" d="M27.94,8.71c0,0.15-0.12,0.28-0.28,0.28s-0.28-0.12-0.28-0.28c0-0.15,0.12-0.28,0.28-0.28
				S27.94,8.56,27.94,8.71"/>
		</g>
		<g style="clip-path:url(#SVGID_00000020397485999088852220000005400408309083557544_);">
			<path class="st1" d="M25.78,13.8c-3.02,0-5.47-2.46-5.47-5.48c0-3.02,2.46-5.47,5.47-5.47c3.02,0,5.48,2.46,5.48,5.47
				C31.26,11.35,28.8,13.8,25.78,13.8z M25.78,3.45c-2.69,0-4.88,2.19-4.88,4.88c0,2.69,2.19,4.88,4.88,4.88
				c2.69,0,4.88-2.19,4.88-4.88C30.66,5.64,28.47,3.45,25.78,3.45z"/>
		</g>
	</g>
	<g>
		<defs>
			<rect id="SVGID_00000081624674318893133030000003547674476957032851_" width="52.87" height="67.32"/>
		</defs>
		<clipPath id="SVGID_00000008857606896441903690000013984767800546900657_">
			<use xlink:href="#SVGID_00000081624674318893133030000003547674476957032851_"  style="overflow:visible;"/>
		</clipPath>
		<g style="clip-path:url(#SVGID_00000008857606896441903690000013984767800546900657_);">
			<path class="st1" d="M35.13,57.94H16.72c-0.17,0-0.3-0.13-0.3-0.3V24.65c0-5.37,4.35-9.94,9.5-9.97c0.02,0,0.04,0,0.06,0
				c2.36,0,4.64,0.97,6.43,2.74c1.94,1.92,3.07,4.55,3.08,7.23c0,0,0,0,0,0l-0.06,32.99C35.43,57.81,35.29,57.94,35.13,57.94z
				 M17.02,57.34h17.81l0.06-32.69c-0.01-2.51-1.07-4.99-2.9-6.8c-1.69-1.67-3.82-2.59-6.06-2.57c-4.83,0.03-8.91,4.32-8.91,9.37
				V57.34z"/>
		</g>
	</g>
	<g>
		<rect x="0.3" y="31.76" class="st2" width="51.31" height="34.3"/>
	</g>
	<g>
		<defs>
			<rect id="SVGID_00000023966170893357141710000011514824690714187423_" width="52.87" height="67.32"/>
		</defs>
		<clipPath id="SVGID_00000146461653274263472020000011737783440587668624_">
			<use xlink:href="#SVGID_00000023966170893357141710000011514824690714187423_"  style="overflow:visible;"/>
		</clipPath>
		<g style="clip-path:url(#SVGID_00000146461653274263472020000011737783440587668624_);">
			<path class="st1" d="M51.61,66.36H0.3c-0.17,0-0.3-0.13-0.3-0.3v-34.3c0-0.17,0.13-0.3,0.3-0.3h51.31c0.17,0,0.3,0.13,0.3,0.3
				v34.3C51.91,66.23,51.77,66.36,51.61,66.36z M0.6,65.76h50.71v-33.7H0.6V65.76z"/>
		</g>
	</g>
	<g>
		<rect x="2.25" y="32.9" class="st0" width="50.49" height="34.3"/>
	</g>
	<g>
		<defs>
			<rect id="SVGID_00000022529047690652277160000001102063535163147914_" width="52.87" height="67.32"/>
		</defs>
		<clipPath id="SVGID_00000093143839209760683120000000414822626941643952_">
			<use xlink:href="#SVGID_00000022529047690652277160000001102063535163147914_"  style="overflow:visible;"/>
		</clipPath>
		<g style="clip-path:url(#SVGID_00000093143839209760683120000000414822626941643952_);">
			<path class="st0" d="M52.74,67.32H2.25c-0.07,0-0.13-0.06-0.13-0.13V32.9c0-0.07,0.06-0.13,0.13-0.13h50.49
				c0.07,0,0.13,0.06,0.13,0.13v34.3C52.87,67.27,52.81,67.32,52.74,67.32z M2.38,67.07h50.24V33.02H2.38V67.07z"/>
		</g>
		<g style="clip-path:url(#SVGID_00000093143839209760683120000000414822626941643952_);">
			<path class="st1" d="M51.61,66.36H0.3c-0.17,0-0.3-0.13-0.3-0.3v-34.3c0-0.17,0.13-0.3,0.3-0.3h51.31c0.17,0,0.3,0.13,0.3,0.3
				v34.3C51.91,66.23,51.77,66.36,51.61,66.36z M0.6,65.76h50.71v-33.7H0.6V65.76z"/>
		</g>
	</g>
</g>
<g>
	<g>
		<path class="st1" d="M30.71,7.29H21.1c-0.13,0-0.23-0.1-0.23-0.23s0.1-0.23,0.23-0.23h9.61c0.13,0,0.23,0.1,0.23,0.23
			S30.84,7.29,30.71,7.29z"/>
	</g>
</g>
</svg>
