<?xml version="1.0" encoding="utf-8"?>
<!-- Generator: Adobe Illustrator 26.0.2, SVG Export Plug-In . SVG Version: 6.00 Build 0)  -->
<svg version="1.1" id="Ebene_1" xmlns="http://www.w3.org/2000/svg" xmlns:xlink="http://www.w3.org/1999/xlink" x="0px" y="0px"
	 viewBox="0 0 30.82 32.82" style="enable-background:new 0 0 30.82 32.82;" xml:space="preserve">
<style type="text/css">
	.st0{fill:#E59C00;}
	.st1{fill:#2B2961;}
	.st2{fill:#FFFFFF;}
	.st3{clip-path:url(#SVGID_00000142891691516093613950000003562975776638257332_);}
	.st4{clip-path:url(#SVGID_00000077326641576042127610000004527523581349882007_);}
	.st5{clip-path:url(#SVGID_00000109731137904571543130000016786996479427526566_);}
	.st6{clip-path:url(#SVGID_00000101797811579758112660000017211920106623815580_);}
	.st7{clip-path:url(#SVGID_00000115516488171987104750000009434026761576049324_);}
	.st8{clip-path:url(#SVGID_00000089548808041232850030000004449780011852145334_);}
	.st9{clip-path:url(#SVGID_00000174583968542351709120000002004766073915460276_);}
	.st10{clip-path:url(#SVGID_00000131346965521906437360000001227944857572478611_);}
	.st11{clip-path:url(#SVGID_00000036944332327349633710000014190219865073259142_);}
	.st12{clip-path:url(#SVGID_00000142151086719287145950000011092996610628608899_);}
	.st13{clip-path:url(#SVGID_00000036935188618983868160000003576171765602613691_);}
	.st14{clip-path:url(#SVGID_00000020397378689089785460000014398368718763135405_);}
	.st15{clip-path:url(#SVGID_00000053531555653875675780000003747154251311135906_);}
	.st16{clip-path:url(#SVGID_00000103257096654152751590000014896002889158006925_);}
	.st17{clip-path:url(#SVGID_00000106859779302052506230000013364028701222077110_);}
	.st18{clip-path:url(#SVGID_00000132788857889008481290000015031618167922715044_);}
	.st19{clip-path:url(#SVGID_00000127738755799891313690000004123883886458620306_);}
	.st20{clip-path:url(#SVGID_00000065038617413724869910000003790520864819909788_);}
	.st21{clip-path:url(#SVGID_00000127762386766833240780000008271099014653329080_);}
	.st22{clip-path:url(#SVGID_00000137824236928187623020000012265596119374805941_);}
	.st23{clip-path:url(#SVGID_00000111884428912950486430000016289255098485120959_);}
	.st24{clip-path:url(#SVGID_00000145022517578136546010000012559315453987382421_);}
	.st25{clip-path:url(#SVGID_00000069358115724462333250000011447030441549305022_);}
	.st26{clip-path:url(#SVGID_00000170983293612989209730000006743076282044428673_);}
	.st27{clip-path:url(#SVGID_00000060013136396886033370000017032715530387995784_);}
	.st28{clip-path:url(#SVGID_00000109716317626989258390000005375886881748411031_);}
	.st29{clip-path:url(#SVGID_00000109023456563951506290000005792374576172592797_);}
	.st30{clip-path:url(#SVGID_00000155143816537120581140000017038581544134743680_);}
	.st31{clip-path:url(#SVGID_00000075868064244233805570000003107507387656616332_);}
	.st32{clip-path:url(#SVGID_00000085968392749718281990000005290997291351535272_);}
	.st33{clip-path:url(#SVGID_00000039850361263756164670000007369538659234197672_);}
	.st34{clip-path:url(#SVGID_00000105408750428592784500000008336542674305996430_);}
	.st35{clip-path:url(#SVGID_00000183953174108361801290000012686835520907320218_);}
	.st36{clip-path:url(#SVGID_00000087382393825824691640000016120710057021033884_);}
	.st37{clip-path:url(#SVGID_00000157282097123510140690000008571720428671101829_);}
	.st38{clip-path:url(#SVGID_00000072239471737149751880000006002495712938855347_);}
	.st39{clip-path:url(#SVGID_00000178908513873502142660000007534702176322831031_);}
	.st40{clip-path:url(#SVGID_00000047740115252211277720000003747116587193432469_);}
	.st41{clip-path:url(#SVGID_00000174603676196336746180000006197444581800399777_);}
	.st42{clip-path:url(#SVGID_00000039113439383135766660000014746947943101200314_);}
	.st43{clip-path:url(#SVGID_00000092442389451544168940000008460947242391677331_);}
	.st44{clip-path:url(#SVGID_00000069379745520682486890000010409689836709242009_);}
	.st45{clip-path:url(#SVGID_00000133499464333348946130000006998364244377252267_);}
	.st46{clip-path:url(#SVGID_00000070116763487349322330000016726180649757770666_);}
	.st47{clip-path:url(#SVGID_00000150813346131165728740000012163830837437556133_);}
	.st48{clip-path:url(#SVGID_00000107549098889809899290000006532282371220524212_);}
	.st49{clip-path:url(#SVGID_00000073680480492973904430000003332825068331878291_);}
	.st50{clip-path:url(#SVGID_00000008871037070026204010000015093179251765674912_);}
	.st51{clip-path:url(#SVGID_00000170272092349403848440000015016010236521950123_);}
	.st52{clip-path:url(#SVGID_00000100375936854537689620000006403397567862757805_);}
	.st53{clip-path:url(#SVGID_00000026130966701174444030000012797646502986413461_);}
	.st54{clip-path:url(#SVGID_00000062891999240521896970000010752235724912801974_);}
	.st55{clip-path:url(#SVGID_00000115491224721680198090000003448566984194748844_);}
	.st56{clip-path:url(#SVGID_00000110448440661115058320000007151096195018608800_);}
	.st57{clip-path:url(#SVGID_00000122687278453644049970000013757650663492422032_);}
	.st58{clip-path:url(#SVGID_00000052816274401909042500000011444130037071272320_);}
	.st59{clip-path:url(#SVGID_00000114765447655234559090000004151382840676326843_);}
	.st60{clip-path:url(#SVGID_00000107585373161027247810000004394111909993358981_);}
	.st61{clip-path:url(#SVGID_00000114752560539400874770000002463178744656700559_);}
	.st62{clip-path:url(#SVGID_00000098178587613048923780000016986136833170128814_);}
	.st63{clip-path:url(#SVGID_00000115516489440096813820000002980882525114761606_);}
	.st64{clip-path:url(#SVGID_00000051382806915724281050000017759440644149344946_);}
	.st65{clip-path:url(#SVGID_00000016766191045438363110000009039313410697731236_);}
	.st66{clip-path:url(#SVGID_00000106853657315568681060000006571026139795737226_);}
	.st67{clip-path:url(#SVGID_00000179617054795004406030000005501763024598619797_);}
	.st68{clip-path:url(#SVGID_00000034077486928805912840000004159647749053228471_);}
	.st69{clip-path:url(#SVGID_00000119812243191649010350000010963079744202447514_);}
	.st70{clip-path:url(#SVGID_00000026124642266007945060000016975816277869339071_);}
	.st71{clip-path:url(#SVGID_00000019644807799082784240000000365848461235590035_);}
	.st72{clip-path:url(#SVGID_00000011033320004975755360000000675849864574721409_);}
	.st73{clip-path:url(#SVGID_00000060008141582048610170000007528439025287164571_);}
	.st74{clip-path:url(#SVGID_00000176741527056184253810000002360448383485905829_);}
	.st75{clip-path:url(#SVGID_00000134218961877146992620000012118166761337673362_);}
	.st76{clip-path:url(#SVGID_00000149348507633235191830000000299816946192295077_);}
	.st77{clip-path:url(#SVGID_00000049931657529827759020000009356309025785662601_);}
	.st78{clip-path:url(#SVGID_00000082330941871805352960000000114961691067470503_);}
	.st79{clip-path:url(#SVGID_00000116211931977898468140000012866591098947559835_);}
	.st80{clip-path:url(#SVGID_00000083054025549974724340000000203059109037835189_);}
	.st81{clip-path:url(#SVGID_00000008835665576267683880000001827674885950642070_);}
	.st82{clip-path:url(#SVGID_00000042703841783870925740000008945133803282978733_);}
	.st83{fill:none;}
	.st84{clip-path:url(#SVGID_00000156554162191711039760000005495252650526967462_);}
	.st85{clip-path:url(#SVGID_00000160885862898695514710000017331774978915090362_);}
	.st86{clip-path:url(#SVGID_00000181080064003662053870000014389655950954644657_);}
	.st87{clip-path:url(#SVGID_00000006667075633592244440000004051629850128839840_);}
	.st88{clip-path:url(#SVGID_00000012467275534470355880000000272406134737017006_);}
	.st89{clip-path:url(#SVGID_00000103223151300752339350000010664328949734827443_);}
	.st90{clip-path:url(#SVGID_00000174591258041018843240000016176085862178934947_);}
	.st91{clip-path:url(#SVGID_00000074417553075322983490000018415584644284713614_);}
	.st92{clip-path:url(#SVGID_00000088811665231141293320000004065688537659247008_);}
	.st93{clip-path:url(#SVGID_00000116951189447804764850000012268957719160100537_);}
	.st94{clip-path:url(#SVGID_00000113327164007365843450000014603039305323169672_);}
	.st95{clip-path:url(#SVGID_00000070093684364278440480000015038977033159525288_);}
	.st96{clip-path:url(#SVGID_00000031929989277941134370000001632466922460430994_);}
	.st97{clip-path:url(#SVGID_00000117658949663143605810000010893136663963628432_);}
	.st98{clip-path:url(#SVGID_00000109009069021257245650000014572536410578508168_);}
	.st99{clip-path:url(#SVGID_00000046336811175407784500000015419291950047362728_);}
	.st100{clip-path:url(#SVGID_00000012449385555771058580000007484803371832597416_);}
	.st101{clip-path:url(#SVGID_00000042728353671779853070000003281512135381621416_);}
	.st102{clip-path:url(#SVGID_00000078725548119523638250000002803094683193239723_);}
	.st103{clip-path:url(#SVGID_00000021815106102938659890000014329101340503528080_);}
	.st104{clip-path:url(#SVGID_00000172428002091876943330000015594162180155911851_);}
	.st105{clip-path:url(#SVGID_00000130636571788548011110000012491654597779697309_);}
	.st106{clip-path:url(#SVGID_00000078760037283691948760000004225798988706059159_);}
	.st107{clip-path:url(#SVGID_00000021118420887074806960000000864457634721628829_);}
	.st108{clip-path:url(#SVGID_00000002367816306710385510000003240392680106610057_);}
	.st109{clip-path:url(#SVGID_00000047780918441487099890000006948344327817731726_);}
	.st110{clip-path:url(#SVGID_00000084492272499061136790000010361961522257541018_);}
	.st111{clip-path:url(#SVGID_00000060024915772267979290000016155232724016802195_);}
	.st112{clip-path:url(#SVGID_00000158001294252305225840000000551198228148020640_);}
	.st113{clip-path:url(#SVGID_00000009589591133646359140000017051839202482034330_);}
	.st114{clip-path:url(#SVGID_00000090275933971141629210000015751652593091123104_);}
	.st115{clip-path:url(#SVGID_00000122703329528896742570000014010873243823445152_);}
	.st116{clip-path:url(#SVGID_00000031177399095845755360000014041462589716132239_);}
	.st117{clip-path:url(#SVGID_00000155862438159768503960000007378141275400337582_);}
	.st118{clip-path:url(#SVGID_00000137822452552115411190000015659764785950070926_);}
	.st119{clip-path:url(#SVGID_00000031185850510029854860000014148904011962255280_);}
	.st120{clip-path:url(#SVGID_00000090977380325399511320000013955241032438481294_);}
	.st121{clip-path:url(#SVGID_00000061430413666495605540000008129831112918380424_);}
	.st122{clip-path:url(#SVGID_00000134233889250733509980000003443494679771910332_);}
	.st123{clip-path:url(#SVGID_00000180338511308568973280000003241545550540145334_);}
	.st124{clip-path:url(#SVGID_00000129914306046972460390000005011473781474995900_);}
	.st125{clip-path:url(#SVGID_00000146466867228699674130000015769144072249063584_);}
	.st126{clip-path:url(#SVGID_00000059308300068319582970000000281920444467029141_);}
	.st127{clip-path:url(#SVGID_00000088116344859185352600000002749291682675249556_);}
	.st128{clip-path:url(#SVGID_00000034056477492842565370000013358434914160068501_);}
	.st129{clip-path:url(#SVGID_00000080895301045459155280000018069508919737170087_);}
	.st130{clip-path:url(#SVGID_00000168821590852916128240000001225472731273699712_);}
	.st131{clip-path:url(#SVGID_00000170991536324531414880000007636174322563213960_);}
	.st132{clip-path:url(#SVGID_00000123437023764821157650000002279466233696100797_);}
	.st133{clip-path:url(#SVGID_00000168074689397162394570000009782674105801985435_);}
	.st134{clip-path:url(#SVGID_00000088130550365660097680000011835292187098619017_);}
	.st135{clip-path:url(#SVGID_00000110430732915110916840000007753628460067560635_);}
	.st136{clip-path:url(#SVGID_00000127753271837439133820000013599273214999273130_);}
	.st137{clip-path:url(#SVGID_00000173874448731752517080000012346838970284828334_);}
	.st138{clip-path:url(#SVGID_00000029015826569870833000000011787173188816506284_);}
	.st139{clip-path:url(#SVGID_00000065068610891503108230000017624086857552646309_);}
	.st140{clip-path:url(#SVGID_00000015315638999126784990000014211233622226741663_);}
	.st141{clip-path:url(#SVGID_00000088130385435717387650000007035897706597554354_);}
	.st142{clip-path:url(#SVGID_00000093161199395940551400000014703796484153719179_);}
	.st143{clip-path:url(#SVGID_00000170247057845872975050000009283537727215619714_);}
	.st144{clip-path:url(#SVGID_00000127753595263924022090000005882068920772584072_);}
	.st145{clip-path:url(#SVGID_00000056394387062160197860000003587248494508690082_);}
	.st146{clip-path:url(#SVGID_00000020358512383750965840000003614957515585315254_);}
	.st147{clip-path:url(#SVGID_00000143584695958260873420000018067992405718804640_);}
	.st148{clip-path:url(#SVGID_00000018230503575750350120000008762246888103673503_);}
	.st149{clip-path:url(#SVGID_00000119811050667053639070000007961164818188988545_);}
	.st150{clip-path:url(#SVGID_00000097483819871530599290000014665362358021371011_);}
	.st151{clip-path:url(#SVGID_00000054236563264429015330000004795478472233126039_);}
	.st152{clip-path:url(#SVGID_00000090295297362596972320000004620015662835313820_);}
	.st153{clip-path:url(#SVGID_00000060016407389535351570000011256265928921176228_);}
	.st154{clip-path:url(#SVGID_00000016042717719461695880000004652267456899367307_);}
	.st155{clip-path:url(#SVGID_00000003106906807107722590000001882661959159794617_);}
	.st156{clip-path:url(#SVGID_00000005256239647309499440000013591885138501558201_);}
	.st157{clip-path:url(#SVGID_00000067229892874649082870000007028798215540829347_);}
	.st158{clip-path:url(#SVGID_00000132805352460829068380000000360254107971168398_);}
	.st159{clip-path:url(#SVGID_00000024697626553328257180000009458439721813521034_);}
	.st160{clip-path:url(#SVGID_00000154409534201605902200000016930196874324168123_);}
	.st161{clip-path:url(#SVGID_00000033333985498937860310000004959333662796279205_);}
	.st162{clip-path:url(#SVGID_00000164482086740865048500000002371270231273127851_);}
	.st163{clip-path:url(#SVGID_00000149380708234016481340000003241792064016344746_);}
	.st164{clip-path:url(#SVGID_00000068645432911205920640000016534379245317590182_);}
	.st165{clip-path:url(#SVGID_00000093864677167955658740000009121658420667421825_);}
	.st166{clip-path:url(#SVGID_00000011021612781049438040000003687778142060761004_);}
	.st167{clip-path:url(#SVGID_00000075866924638418628760000000636542644880267651_);}
	.st168{clip-path:url(#SVGID_00000102543530357752663290000011727902228733461151_);}
	.st169{clip-path:url(#SVGID_00000176020448283993039050000006138476450977081776_);}
	.st170{clip-path:url(#SVGID_00000005962774315864909820000005951614549326102679_);}
	.st171{clip-path:url(#SVGID_00000178192464424761965570000013961439476459965597_);}
	.st172{clip-path:url(#SVGID_00000033363359875717527420000011229138965140050313_);}
	.st173{clip-path:url(#SVGID_00000101098016153874208410000000860128462668653503_);}
	.st174{clip-path:url(#SVGID_00000150789355001489809210000011563521857761786257_);}
	.st175{clip-path:url(#SVGID_00000086686606399898825810000011629244341248875659_);}
	.st176{clip-path:url(#SVGID_00000043442955973091344690000008969912640931913407_);}
	.st177{clip-path:url(#SVGID_00000025422091085148025120000000128501943714990006_);}
	.st178{clip-path:url(#SVGID_00000132771754462183850340000009266749409605085100_);}
	.st179{clip-path:url(#SVGID_00000049197178444553139440000006480484847620757421_);}
	.st180{clip-path:url(#SVGID_00000120560032474611254430000005411176832672388014_);}
	.st181{clip-path:url(#SVGID_00000164476554202166724590000013840690044649070741_);}
	.st182{clip-path:url(#SVGID_00000117663773115730185210000011590937838236861066_);}
	.st183{clip-path:url(#SVGID_00000025419822478842048800000003882061752721925268_);}
	.st184{clip-path:url(#SVGID_00000158009521080513968340000003823491038472689833_);}
	.st185{clip-path:url(#SVGID_00000174570124437677818620000014194822391354956979_);}
	.st186{clip-path:url(#SVGID_00000023962847382650105190000007396821378354638267_);}
</style>
<g>
	<g>
		<polygon class="st2" points="4.45,21.54 0.3,32.52 11.01,27.23 30.52,6.07 23.96,0.3 		"/>
	</g>
</g>
<g>
	<defs>
		<rect id="SVGID_00000183235000311251376050000001614917789085487494_" width="30.82" height="32.82"/>
	</defs>
	<clipPath id="SVGID_00000119077188324758250020000000898485589710738866_">
		<use xlink:href="#SVGID_00000183235000311251376050000001614917789085487494_"  style="overflow:visible;"/>
	</clipPath>
	<g style="clip-path:url(#SVGID_00000119077188324758250020000000898485589710738866_);">
		<g>
			<path class="st1" d="M0.3,32.81c-0.07,0-0.14-0.03-0.19-0.07c-0.09-0.08-0.12-0.2-0.08-0.31l4.15-10.98
				c0.01-0.03,0.03-0.07,0.06-0.09L23.75,0.11c0.11-0.11,0.28-0.12,0.4-0.02l6.56,5.76c0.06,0.05,0.09,0.12,0.1,0.2
				c0,0.08-0.02,0.15-0.08,0.21L11.22,27.42c-0.02,0.03-0.05,0.05-0.08,0.06L0.43,32.78C0.39,32.8,0.34,32.81,0.3,32.81z
				 M4.69,21.69L0.82,31.94L10.83,27L30.11,6.09L23.98,0.7L4.69,21.69z"/>
		</g>
	</g>
	<g style="clip-path:url(#SVGID_00000119077188324758250020000000898485589710738866_);">
		<g>
			<path class="st0" d="M24.73,4.37L7.5,23.07c-0.53,0.58-0.49,1.47,0.11,1.99s1.51,0.48,2.04-0.1l17.24-18.7L24.73,4.37z"/>
		</g>
	</g>
	<g style="clip-path:url(#SVGID_00000119077188324758250020000000898485589710738866_);">
		<g>
			<path class="st0" d="M8.57,25.55c-0.37,0-0.75-0.13-1.05-0.39C7.21,24.88,7.02,24.5,7,24.09c-0.02-0.41,0.12-0.8,0.4-1.11
				l17.24-18.7c0.05-0.05,0.12-0.06,0.17-0.01l2.15,1.89C26.99,6.19,27,6.22,27,6.26c0,0.03-0.01,0.07-0.03,0.09L9.74,25.04
				C9.43,25.38,9,25.55,8.57,25.55z M24.74,4.55L7.59,23.16c-0.23,0.25-0.35,0.58-0.34,0.92c0.02,0.34,0.17,0.66,0.43,0.89
				c0.54,0.48,1.38,0.43,1.87-0.09L26.7,6.27L24.74,4.55z"/>
		</g>
	</g>
	<g style="clip-path:url(#SVGID_00000119077188324758250020000000898485589710738866_);">
		<g>
			<path class="st0" d="M4.44,28.33c-0.7-0.54-1.79-0.52-1.94-0.36l-1.58,4.34l4.49-2.23C5.42,30.07,5.68,29.29,4.44,28.33"/>
		</g>
	</g>
	<g style="clip-path:url(#SVGID_00000119077188324758250020000000898485589710738866_);">
		<g>
			<path class="st0" d="M0.93,32.43c-0.03,0-0.06-0.01-0.08-0.03c-0.04-0.03-0.05-0.09-0.03-0.14l1.58-4.34
				c0.01-0.02,0.01-0.03,0.03-0.04c0.22-0.23,1.4-0.2,2.11,0.35l0,0c1.29,1.01,1.03,1.85,1.02,1.88c-0.01,0.03-0.03,0.06-0.06,0.07
				l-4.49,2.23C0.97,32.43,0.95,32.43,0.93,32.43z M2.61,28.04l-1.46,4.01l4.16-2.07c0.02-0.17,0.03-0.8-0.94-1.56l0,0
				C3.75,27.95,2.79,27.95,2.61,28.04z"/>
		</g>
	</g>
	<g style="clip-path:url(#SVGID_00000119077188324758250020000000898485589710738866_);">
		<g>
			<path class="st1" d="M0.3,32.82c-0.07,0-0.15-0.03-0.2-0.08c-0.09-0.08-0.12-0.21-0.08-0.33l4.15-10.98
				c0.01-0.04,0.03-0.07,0.06-0.1L23.74,0.1c0.11-0.12,0.3-0.13,0.42-0.02l6.56,5.76c0.06,0.05,0.1,0.13,0.1,0.21
				c0,0.08-0.02,0.16-0.08,0.22L11.23,27.43c-0.02,0.03-0.05,0.05-0.09,0.07L0.43,32.79C0.39,32.81,0.35,32.82,0.3,32.82z
				 M4.71,21.7L0.85,31.91l9.97-4.93l19.27-20.9l-6.1-5.37L4.71,21.7z"/>
		</g>
	</g>
	<g style="clip-path:url(#SVGID_00000119077188324758250020000000898485589710738866_);">
		<g>
			<path class="st1" d="M10.51,27.19c-0.39,0-0.78-0.14-1.1-0.41c-0.33-0.29-0.52-0.68-0.54-1.11c-0.01-0.15,0.01-0.31,0.04-0.45
				C8.36,25.4,7.73,25.3,7.26,24.9c-0.33-0.29-0.52-0.68-0.54-1.12c-0.01-0.14,0-0.27,0.03-0.4c-0.56,0.21-1.22,0.12-1.69-0.3
				c-0.33-0.29-0.52-0.68-0.54-1.11c-0.02-0.43,0.13-0.84,0.42-1.16l0.29,0.27c-0.22,0.24-0.33,0.55-0.32,0.87
				c0.02,0.32,0.16,0.62,0.41,0.84c0.51,0.45,1.3,0.41,1.76-0.09l0,0c0.02-0.02,0.04-0.05,0.06-0.07l17.1-18.54l-1.99-1.75l0.26-0.3
				l6.48,5.7l-0.26,0.3l-2.04-1.8L9.58,24.78l0,0l0,0c0,0,0,0,0,0c-0.22,0.24-0.33,0.55-0.32,0.87c0.02,0.32,0.16,0.62,0.41,0.84
				c0.51,0.45,1.3,0.41,1.76-0.09l0.29,0.27C11.4,27.01,10.96,27.19,10.51,27.19z M24.54,4.35L7.44,22.89
				c-0.22,0.24-0.33,0.55-0.32,0.87c0.02,0.32,0.16,0.62,0.41,0.84c0.51,0.45,1.3,0.41,1.76-0.09L26.38,5.96L24.54,4.35z M29.4,7.3
				L22.92,1.6l0.26-0.3L29.66,7L29.4,7.3z"/>
		</g>
	</g>
</g>
</svg>
