<?xml version="1.0" encoding="utf-8"?>
<!-- Generator: Adobe Illustrator 26.0.2, SVG Export Plug-In . SVG Version: 6.00 Build 0)  -->
<svg version="1.1" id="Ebene_1" xmlns="http://www.w3.org/2000/svg" xmlns:xlink="http://www.w3.org/1999/xlink" x="0px" y="0px"
	 viewBox="0 0 70.26 49.62" style="enable-background:new 0 0 70.26 49.62;" xml:space="preserve">
<style type="text/css">
	.st0{fill:#E59C00;}
	.st1{fill:#2B2961;}
	.st2{fill:#FFFFFF;}
	.st3{clip-path:url(#SVGID_00000176764422317718318270000011340014256349260475_);}
	.st4{clip-path:url(#SVGID_00000148660222710328118980000016499401974706394552_);}
	.st5{clip-path:url(#SVGID_00000103963568471655472990000008752722936509417891_);}
	.st6{clip-path:url(#SVGID_00000159436745040288099900000010293400693821662115_);}
	.st7{clip-path:url(#SVGID_00000036949536525671860230000004338534236665807778_);}
	.st8{clip-path:url(#SVGID_00000069364397792022813940000015260993337303812248_);}
	.st9{clip-path:url(#SVGID_00000088108285718278315600000003774948828154189959_);}
	.st10{clip-path:url(#SVGID_00000148655530998305624160000016433800010127853239_);}
	.st11{clip-path:url(#SVGID_00000114788125249257503890000010355566512794013614_);}
	.st12{clip-path:url(#SVGID_00000122710620025866813240000015210552280285591985_);}
	.st13{clip-path:url(#SVGID_00000145760818501150533110000018323229158006478990_);}
	.st14{clip-path:url(#SVGID_00000139987222214970235170000007535608298833355174_);}
	.st15{clip-path:url(#SVGID_00000070078949216496961090000005117059978776045185_);}
	.st16{clip-path:url(#SVGID_00000061436936671004127140000010167031965017290640_);}
	.st17{clip-path:url(#SVGID_00000080926850575735505740000002618049785090772923_);}
	.st18{clip-path:url(#SVGID_00000092437039618678602140000013403454935733654414_);}
	.st19{clip-path:url(#SVGID_00000110444677232913548250000009073178669185103770_);}
	.st20{clip-path:url(#SVGID_00000121997556216129723640000004985855500758043030_);}
	.st21{clip-path:url(#SVGID_00000039113252448503852610000001527058526728537235_);}
	.st22{clip-path:url(#SVGID_00000152969305930324428830000004183342625872147846_);}
	.st23{clip-path:url(#SVGID_00000013890203955707028310000011766307120001254303_);}
	.st24{clip-path:url(#SVGID_00000072272867979366441420000015337655502207037115_);}
	.st25{clip-path:url(#SVGID_00000052065005724788710000000016907334605319249036_);}
	.st26{clip-path:url(#SVGID_00000092437732101219938440000004636810725132823958_);}
	.st27{clip-path:url(#SVGID_00000173869090702113215830000007962218572406130605_);}
	.st28{clip-path:url(#SVGID_00000051369084375164238220000012597303983603673261_);}
	.st29{clip-path:url(#SVGID_00000042722256693551333800000015405945957221797514_);}
	.st30{clip-path:url(#SVGID_00000136391728546702640640000017895306982827523221_);}
	.st31{clip-path:url(#SVGID_00000166659360433801459420000000005966847184158093_);}
	.st32{clip-path:url(#SVGID_00000041285695134812532420000001131834636219099029_);}
	.st33{clip-path:url(#SVGID_00000088113202355098601770000007577514501479923615_);}
	.st34{clip-path:url(#SVGID_00000152240950155753905240000004369842700376018612_);}
	.st35{clip-path:url(#SVGID_00000105388387290849569740000009510291320200323719_);}
	.st36{clip-path:url(#SVGID_00000093886910144624092570000000623559451008335008_);}
	.st37{clip-path:url(#SVGID_00000079482880862862909150000001779578318729191858_);}
	.st38{clip-path:url(#SVGID_00000099629162228496040430000008812388595119692196_);}
	.st39{clip-path:url(#SVGID_00000020372311119794124090000016309941874776025268_);}
	.st40{clip-path:url(#SVGID_00000054226165956208017090000016670460738943506357_);}
	.st41{clip-path:url(#SVGID_00000018925115217878436150000002826392515384681600_);}
	.st42{clip-path:url(#SVGID_00000057144027193951465370000001215432228970080700_);}
	.st43{clip-path:url(#SVGID_00000135649987857514623190000000450372837004075947_);}
	.st44{clip-path:url(#SVGID_00000057859909353516306050000003337618241257318543_);}
	.st45{clip-path:url(#SVGID_00000137118073955732618920000017711460982694722963_);}
	.st46{clip-path:url(#SVGID_00000170967575972211363700000002416335395216607394_);}
	.st47{clip-path:url(#SVGID_00000032641003717262966650000001205937865524921752_);}
	.st48{clip-path:url(#SVGID_00000183965800606750952340000004097868124267688867_);}
	.st49{clip-path:url(#SVGID_00000147183461240091056830000004531877321561762197_);}
	.st50{clip-path:url(#SVGID_00000162313767199944057010000016477162618497841040_);}
	.st51{clip-path:url(#SVGID_00000176742419070790457780000001273012986486082951_);}
	.st52{clip-path:url(#SVGID_00000160183920133158852320000018189519304760927654_);}
	.st53{clip-path:url(#SVGID_00000162333269198629485500000011127592211605065623_);}
	.st54{clip-path:url(#SVGID_00000155117944802944641250000016241317093318950294_);}
	.st55{clip-path:url(#SVGID_00000086683245713550266450000010401533411297370264_);}
	.st56{clip-path:url(#SVGID_00000172425124058208797310000006700215237660527744_);}
	.st57{clip-path:url(#SVGID_00000132066198419969044810000015880590035772955274_);}
	.st58{clip-path:url(#SVGID_00000106831212406642955440000017541782382631011519_);}
	.st59{clip-path:url(#SVGID_00000152955704275185805250000007032301014420146323_);}
	.st60{clip-path:url(#SVGID_00000052804961524034278200000007919251505069996444_);}
	.st61{clip-path:url(#SVGID_00000136379596888592555570000009726544992002766518_);}
	.st62{clip-path:url(#SVGID_00000053528013217524009860000004525419578756767913_);}
	.st63{clip-path:url(#SVGID_00000015340770244830482900000004802172353596141995_);}
	.st64{clip-path:url(#SVGID_00000170280688864466133840000000944144820916983704_);}
	.st65{clip-path:url(#SVGID_00000143601675418150506900000004736605448385578401_);}
	.st66{clip-path:url(#SVGID_00000041254735579639490340000018015325105778308739_);}
	.st67{clip-path:url(#SVGID_00000033349557196680162830000016838319282075082644_);}
	.st68{clip-path:url(#SVGID_00000061436541085568215920000009984655178157487022_);}
	.st69{clip-path:url(#SVGID_00000171000009595897573700000011356618643821939601_);}
	.st70{clip-path:url(#SVGID_00000140714510613432314680000014890251219495796652_);}
	.st71{clip-path:url(#SVGID_00000069380177029862038740000013131168729908993684_);}
	.st72{clip-path:url(#SVGID_00000004515591337589559770000015365384522411490729_);}
	.st73{clip-path:url(#SVGID_00000052798342940717199980000000921323057186140045_);}
	.st74{clip-path:url(#SVGID_00000167361604024752732190000015011314342566873232_);}
	.st75{clip-path:url(#SVGID_00000143609377277839377400000017386216861017333935_);}
	.st76{clip-path:url(#SVGID_00000093881254827160004860000013400470736169302454_);}
	.st77{clip-path:url(#SVGID_00000013894292628408399910000005328847250283195023_);}
	.st78{clip-path:url(#SVGID_00000133506719649250905980000014094879720755220118_);}
	.st79{clip-path:url(#SVGID_00000082363963905857553780000012057668609678356906_);}
	.st80{clip-path:url(#SVGID_00000124131608124343434240000016239093716681576064_);}
	.st81{clip-path:url(#SVGID_00000052087644487769059310000016589673494687788217_);}
	.st82{clip-path:url(#SVGID_00000165915547290522859000000016875268559779392400_);}
	.st83{fill:none;}
	.st84{clip-path:url(#SVGID_00000017485871451318226340000012670423701494772866_);}
	.st85{clip-path:url(#SVGID_00000119796231479459928740000016224551576450046134_);}
	.st86{clip-path:url(#SVGID_00000091721828008254302970000018427085306677642398_);}
	.st87{clip-path:url(#SVGID_00000121242405472077636720000003031455458566199448_);}
	.st88{clip-path:url(#SVGID_00000115473142894897137530000002176049283423836035_);}
	.st89{clip-path:url(#SVGID_00000116920737698133587310000001289199103274867897_);}
	.st90{clip-path:url(#SVGID_00000078029759075168123780000017129084710600810884_);}
	.st91{clip-path:url(#SVGID_00000162323107957720780420000006712681174080670626_);}
	.st92{clip-path:url(#SVGID_00000171683176131079057370000005414020551649267385_);}
	.st93{clip-path:url(#SVGID_00000035512440896342853350000013484641087084319362_);}
	.st94{clip-path:url(#SVGID_00000009560798975045694950000001118541531729840293_);}
	.st95{clip-path:url(#SVGID_00000183971407963025940400000017417660171010755766_);}
	.st96{clip-path:url(#SVGID_00000164489662716745041090000013850437133285904525_);}
	.st97{clip-path:url(#SVGID_00000156572781816066050480000018418470277879200400_);}
	.st98{clip-path:url(#SVGID_00000095339574756652155170000009597885229684420745_);}
	.st99{clip-path:url(#SVGID_00000152224319847127870750000003415800404025673621_);}
	.st100{clip-path:url(#SVGID_00000085950263718729769820000017890774939459676820_);}
	.st101{clip-path:url(#SVGID_00000071536908149545100220000008473835481899612042_);}
	.st102{clip-path:url(#SVGID_00000106865652694849332710000007367546652081090484_);}
	.st103{clip-path:url(#SVGID_00000005243493754335763590000017202289598581155486_);}
	.st104{clip-path:url(#SVGID_00000134246025764008562230000014566826337270197418_);}
	.st105{clip-path:url(#SVGID_00000169539140303084978880000010170033839967563672_);}
	.st106{clip-path:url(#SVGID_00000170272918782816578650000005768294140046090131_);}
	.st107{clip-path:url(#SVGID_00000044179139691792518580000009807111806287120540_);}
	.st108{clip-path:url(#SVGID_00000003081822658599257780000014457305591888406681_);}
	.st109{clip-path:url(#SVGID_00000154395336310517982290000003065724748780371843_);}
	.st110{clip-path:url(#SVGID_00000139984390599876082650000004358391893553447809_);}
	.st111{clip-path:url(#SVGID_00000041974660417716942300000005987353020352777109_);}
	.st112{clip-path:url(#SVGID_00000160170856807340450850000004515768242231129262_);}
	.st113{clip-path:url(#SVGID_00000105414163301800408230000001161752218011558790_);}
	.st114{clip-path:url(#SVGID_00000146488886808887521680000008170637858107595677_);}
	.st115{clip-path:url(#SVGID_00000114054519902983065670000012679202523332647068_);}
	.st116{clip-path:url(#SVGID_00000117634468191713135020000011993221183033346706_);}
	.st117{clip-path:url(#SVGID_00000013914480347661542520000005920252836831784838_);}
	.st118{clip-path:url(#SVGID_00000158745164003644512050000000925191584175506849_);}
	.st119{clip-path:url(#SVGID_00000086668275220258142120000003006198070470093481_);}
	.st120{clip-path:url(#SVGID_00000040552135895160897430000017628361129991542707_);}
	.st121{clip-path:url(#SVGID_00000026155995148934767280000008066703662490607549_);}
	.st122{clip-path:url(#SVGID_00000170960528905778690910000014078717180550754475_);}
	.st123{clip-path:url(#SVGID_00000015314750313398405050000010060414128349999254_);}
	.st124{clip-path:url(#SVGID_00000044155284595898361730000004765843659186468278_);}
	.st125{clip-path:url(#SVGID_00000069358648391589114160000011615619358315461818_);}
	.st126{clip-path:url(#SVGID_00000005988575160188521090000010675526109890408118_);}
	.st127{clip-path:url(#SVGID_00000121241960039000589410000002573777365679274426_);}
	.st128{clip-path:url(#SVGID_00000060013441272159418710000000852066766453031100_);}
	.st129{clip-path:url(#SVGID_00000179628007947116668010000007850530557965055669_);}
	.st130{clip-path:url(#SVGID_00000075884258548831544190000012224541176430242734_);}
	.st131{clip-path:url(#SVGID_00000110441106181181122330000009421688547410898346_);}
	.st132{clip-path:url(#SVGID_00000108987174983225686550000014443584986129255304_);}
	.st133{clip-path:url(#SVGID_00000063599642484716825970000005820175817098758580_);}
	.st134{clip-path:url(#SVGID_00000129893576917873893820000002303847689928879489_);}
	.st135{clip-path:url(#SVGID_00000012455982909850025980000011487973532474118787_);}
	.st136{clip-path:url(#SVGID_00000096772260443670258000000016263298217134931120_);}
	.st137{clip-path:url(#SVGID_00000018944124686806995820000015000752117797560511_);}
	.st138{clip-path:url(#SVGID_00000045621337459479056740000004534358119112569732_);}
	.st139{clip-path:url(#SVGID_00000120548928507176649370000013497144970173330876_);}
	.st140{clip-path:url(#SVGID_00000114035302854116443090000001133818645899536545_);}
	.st141{clip-path:url(#SVGID_00000116917748202212393650000017591828664683195546_);}
	.st142{clip-path:url(#SVGID_00000006679315232147693950000013981522463376449172_);}
	.st143{clip-path:url(#SVGID_00000183964672707415252470000006557018813122677385_);}
	.st144{clip-path:url(#SVGID_00000029764588982328201000000008141630145654512777_);}
	.st145{clip-path:url(#SVGID_00000124163522369288405000000018162495493071456180_);}
	.st146{clip-path:url(#SVGID_00000065051774386931796890000017285567393411857072_);}
	.st147{clip-path:url(#SVGID_00000029043284987938520510000000493065819981900962_);}
	.st148{clip-path:url(#SVGID_00000129896198907904759540000011402696073495374747_);}
	.st149{clip-path:url(#SVGID_00000080172402001156842710000006856527739336968073_);}
	.st150{clip-path:url(#SVGID_00000131339115001622721470000016802671928101727679_);}
	.st151{clip-path:url(#SVGID_00000110438917122758012290000000954057391613530790_);}
	.st152{clip-path:url(#SVGID_00000010301651154038624180000004125382505414992009_);}
	.st153{clip-path:url(#SVGID_00000178193637971701064590000001350859915638569605_);}
	.st154{clip-path:url(#SVGID_00000082339411843874870400000017069194386672390021_);}
	.st155{clip-path:url(#SVGID_00000116922693174417218680000000442723372430222213_);}
	.st156{clip-path:url(#SVGID_00000022557926931347100090000007116383705089900684_);}
	.st157{clip-path:url(#SVGID_00000173877233103513285560000010741948338647688848_);}
	.st158{clip-path:url(#SVGID_00000082353575529283849690000007779529646501699506_);}
	.st159{clip-path:url(#SVGID_00000173849180563128760680000016589559406648065169_);}
	.st160{clip-path:url(#SVGID_00000168116701738840916210000005454735203001262010_);}
	.st161{clip-path:url(#SVGID_00000166668839192087828680000010010479831275158456_);}
	.st162{clip-path:url(#SVGID_00000021815048429335427990000002962902970263327376_);}
	.st163{clip-path:url(#SVGID_00000056387925670191336160000014212477032723090842_);}
	.st164{clip-path:url(#SVGID_00000129171795522688610710000014735226496944035726_);}
	.st165{clip-path:url(#SVGID_00000065051448222537890560000010731082635558423231_);}
	.st166{clip-path:url(#SVGID_00000080909546659181998080000007948030670493492902_);}
	.st167{clip-path:url(#SVGID_00000056422830361709661720000016978856703530085545_);}
	.st168{clip-path:url(#SVGID_00000011737681640957414980000005622389409643867815_);}
	.st169{clip-path:url(#SVGID_00000168090348426792118300000016606290092682125187_);}
	.st170{clip-path:url(#SVGID_00000121260998408966587490000009444138913213900971_);}
	.st171{clip-path:url(#SVGID_00000042735834833369017080000017728786669300571792_);}
	.st172{clip-path:url(#SVGID_00000117674061945894832400000009416147234677621172_);}
	.st173{clip-path:url(#SVGID_00000162327883944502028180000012689943547920382911_);}
	.st174{clip-path:url(#SVGID_00000114073539997595751450000001281850907694089867_);}
	.st175{clip-path:url(#SVGID_00000111907844989652471140000002181545618127888274_);}
	.st176{clip-path:url(#SVGID_00000045600593143918179420000012764381557338063246_);}
	.st177{clip-path:url(#SVGID_00000018202879844170357520000005651030864981296054_);}
	.st178{clip-path:url(#SVGID_00000043452851709007787390000009342150193579955842_);}
	.st179{clip-path:url(#SVGID_00000121279058220354098160000014621423826528520341_);}
	.st180{clip-path:url(#SVGID_00000038377851375628215670000001800701957746398109_);}
	.st181{clip-path:url(#SVGID_00000124132255344098247180000009075952941464081598_);}
	.st182{clip-path:url(#SVGID_00000124151249050412012050000009556133890575253137_);}
	.st183{clip-path:url(#SVGID_00000138536252984613631880000009168408821045345431_);}
	.st184{clip-path:url(#SVGID_00000034060299046027086800000002485173387316195720_);}
	.st185{clip-path:url(#SVGID_00000043429442635971956600000010314500030270570917_);}
	.st186{clip-path:url(#SVGID_00000003789662435964015580000017487117206811712407_);}
</style>
<g>
	<g>
		<defs>
			<rect id="SVGID_00000160161850043555875590000015482213499839230650_" width="70.26" height="49.62"/>
		</defs>
		<clipPath id="SVGID_00000001643330788730163830000017344233542869387671_">
			<use xlink:href="#SVGID_00000160161850043555875590000015482213499839230650_"  style="overflow:visible;"/>
		</clipPath>
		<g style="clip-path:url(#SVGID_00000001643330788730163830000017344233542869387671_);">
			<g>
				<path class="st0" d="M70.14,6.77H40.73l-5.06,4.92l-7.23-4.92H0.98v41.56h32.05c0.61,0.71,1.52,1.17,2.53,1.17
					c1.01,0,1.92-0.45,2.53-1.17h32.05V6.77z"/>
			</g>
		</g>
		<g style="clip-path:url(#SVGID_00000001643330788730163830000017344233542869387671_);">
			<g>
				<path class="st0" d="M35.56,49.62c-0.99,0-1.93-0.42-2.59-1.17H0.98c-0.07,0-0.12-0.06-0.12-0.12V6.77
					c0-0.07,0.06-0.12,0.12-0.12h27.47c0.02,0,0.05,0.01,0.07,0.02l7.14,4.86l4.99-4.85c0.02-0.02,0.05-0.04,0.09-0.04h29.41
					c0.07,0,0.12,0.06,0.12,0.12v41.56c0,0.07-0.06,0.12-0.12,0.12H38.15C37.49,49.19,36.55,49.62,35.56,49.62z M1.1,48.2h31.92
					c0.04,0,0.07,0.02,0.09,0.04c0.61,0.71,1.5,1.12,2.44,1.12c0.94,0,1.82-0.41,2.44-1.12c0.02-0.03,0.06-0.04,0.09-0.04h31.92
					V6.89H40.78l-5.02,4.88c-0.04,0.04-0.11,0.05-0.16,0.01l-7.2-4.89H1.1V48.2z"/>
			</g>
		</g>
		<g style="clip-path:url(#SVGID_00000001643330788730163830000017344233542869387671_);">
			<g>
				<path class="st1" d="M34.85,49.18c-1.01,0-1.97-0.42-2.66-1.16H0.29C0.13,48.01,0,47.89,0,47.73V6.2c0-0.16,0.13-0.29,0.29-0.29
					h27.45c0.06,0,0.11,0.02,0.16,0.05l7.03,4.78L39.82,6c0.05-0.05,0.12-0.08,0.2-0.08h29.39c0.16,0,0.29,0.13,0.29,0.29v41.53
					c0,0.16-0.13,0.29-0.29,0.29H37.51C36.82,48.75,35.86,49.18,34.85,49.18z M0.57,47.44h31.75c0.08,0,0.16,0.04,0.22,0.1
					c0.58,0.68,1.43,1.06,2.31,1.06c0.89,0,1.73-0.39,2.31-1.06c0.05-0.06,0.13-0.1,0.22-0.1h31.75V6.49H40.13l-4.97,4.83
					c-0.1,0.1-0.25,0.11-0.36,0.03l-7.15-4.86H0.57V47.44z"/>
			</g>
		</g>
	</g>
	<g>
		<g>
			<rect x="2.36" y="8.23" class="st2" width="32.44" height="38.25"/>
		</g>
	</g>
	<g>
		<g>
			<path class="st1" d="M34.81,46.76H2.36c-0.16,0-0.29-0.13-0.29-0.29V8.23c0-0.16,0.13-0.29,0.29-0.29h32.44
				c0.16,0,0.29,0.13,0.29,0.29v38.25C35.09,46.63,34.96,46.76,34.81,46.76z M2.65,46.19h31.87V8.52H2.65V46.19z"/>
		</g>
	</g>
	<g>
		<g>
			<rect x="35" y="8.24" class="st2" width="32.44" height="38.25"/>
		</g>
	</g>
	<g>
		<g>
			<path class="st1" d="M67.45,46.77H35c-0.16,0-0.29-0.13-0.29-0.29V8.23c0-0.16,0.13-0.29,0.29-0.29h32.44
				c0.16,0,0.29,0.13,0.29,0.29v38.25C67.73,46.64,67.6,46.77,67.45,46.77z M35.29,46.2h31.87V8.52H35.29V46.2z"/>
		</g>
	</g>
	<g>
		<defs>
			<rect id="SVGID_00000108300798709794068970000008224389680785676461_" width="70.26" height="49.62"/>
		</defs>
		<clipPath id="SVGID_00000051352936599925163670000012392404883652557750_">
			<use xlink:href="#SVGID_00000108300798709794068970000008224389680785676461_"  style="overflow:visible;"/>
		</clipPath>
		<g style="clip-path:url(#SVGID_00000051352936599925163670000012392404883652557750_);">
			<g>
				<path class="st2" d="M34.81,8.92c-2.54-2.84-7.5-5.17-13.4-5.95C15.03,2.12,9.26,3.3,6.19,5.73v37.56
					c3.06-2.43,8.84-3.6,15.21-2.76c5.91,0.78,10.86,3.11,13.4,5.95V8.92z"/>
			</g>
		</g>
		<g style="clip-path:url(#SVGID_00000051352936599925163670000012392404883652557750_);">
			<g>
				<path class="st1" d="M34.81,46.77c-0.08,0-0.16-0.03-0.21-0.1c-2.61-2.92-7.56-5.11-13.23-5.86C15.24,40,9.5,41.03,6.37,43.51
					c-0.09,0.07-0.2,0.08-0.3,0.03c-0.1-0.05-0.16-0.15-0.16-0.26V5.73c0-0.09,0.04-0.17,0.11-0.22c3.24-2.57,9.15-3.65,15.42-2.82
					c5.8,0.77,10.88,3.03,13.58,6.05c0.05,0.05,0.07,0.12,0.07,0.19v37.56c0,0.12-0.07,0.22-0.18,0.27
					C34.87,46.76,34.84,46.77,34.81,46.77z M17.31,39.97c1.34,0,2.72,0.09,4.12,0.28c5.46,0.73,10.28,2.77,13.08,5.53V9.03
					C31.89,6.16,26.98,4,21.36,3.25c-6.05-0.8-11.74,0.2-14.89,2.61v36.85C9.02,40.94,12.94,39.97,17.31,39.97z"/>
			</g>
		</g>
		<g style="clip-path:url(#SVGID_00000051352936599925163670000012392404883652557750_);">
			<g>
				<path class="st2" d="M34.89,8.92c0.38-0.43,0.82-0.85,1.31-1.25c2.75-2.26,7.08-4.04,12.09-4.7C54.67,2.12,60.44,3.3,63.5,5.73
					v37.56c-3.06-2.43-8.84-3.6-15.21-2.76c-5.91,0.78-10.86,3.11-13.4,5.95V8.92z"/>
			</g>
		</g>
		<g style="clip-path:url(#SVGID_00000051352936599925163670000012392404883652557750_);">
			<g>
				<path class="st1" d="M34.89,46.77c-0.03,0-0.07-0.01-0.1-0.02c-0.11-0.04-0.18-0.15-0.18-0.27V8.92c0-0.07,0.03-0.14,0.07-0.19
					c0.39-0.44,0.85-0.87,1.35-1.28c2.9-2.38,7.36-4.12,12.23-4.77c6.27-0.83,12.18,0.25,15.42,2.82c0.07,0.05,0.11,0.14,0.11,0.22
					v37.56c0,0.11-0.06,0.21-0.16,0.26c-0.1,0.05-0.22,0.04-0.3-0.03c-3.13-2.48-8.88-3.51-14.99-2.7
					c-5.67,0.75-10.62,2.95-13.23,5.86C35.05,46.73,34.97,46.77,34.89,46.77z M35.18,9.03v36.73c2.8-2.75,7.62-4.8,13.08-5.53
					c5.98-0.8,11.64,0.15,14.96,2.47V5.87c-3.15-2.42-8.83-3.42-14.89-2.61c-4.77,0.63-9.13,2.33-11.95,4.64
					C35.94,8.26,35.53,8.64,35.18,9.03z"/>
			</g>
		</g>
	</g>
	<g>
		<g>
			<polygon class="st2" points="35.73,31.05 34.87,29.02 34.02,31.05 34.02,7.99 35.73,7.99 			"/>
		</g>
	</g>
	<g>
		<g>
			<polygon class="st0" points="36.17,31.09 35.31,29.06 34.46,31.09 34.46,8.03 36.17,8.03 			"/>
		</g>
	</g>
	<g>
		<g>
			<path class="st1" d="M35.68,31.29c-0.11,0-0.22-0.07-0.27-0.18l-0.54-1.36l-0.54,1.36c-0.05,0.13-0.18,0.2-0.32,0.17
				c-0.13-0.03-0.23-0.14-0.23-0.28V8.03c0-0.16,0.13-0.29,0.29-0.29h1.62c0.16,0,0.29,0.13,0.29,0.29v22.98
				c0,0.14-0.1,0.25-0.23,0.28C35.72,31.29,35.7,31.29,35.68,31.29z M34.87,28.7c0.12,0,0.22,0.07,0.27,0.18l0.26,0.65V8.32h-1.05
				v21.21l0.26-0.65C34.65,28.77,34.76,28.7,34.87,28.7z"/>
		</g>
	</g>
	<g>
		<defs>
			<rect id="SVGID_00000127002414923276237930000010031990997367942318_" width="70.26" height="49.62"/>
		</defs>
		<clipPath id="SVGID_00000012438803869386296200000006272438366429146788_">
			<use xlink:href="#SVGID_00000127002414923276237930000010031990997367942318_"  style="overflow:visible;"/>
		</clipPath>
		<g style="clip-path:url(#SVGID_00000012438803869386296200000006272438366429146788_);">
			<g>
				<path class="st2" d="M34.81,7.72c-2.54-2.84-7.5-5.17-13.4-5.95C15.03,0.92,9.26,2.09,6.19,4.52v37.56
					c3.06-2.43,8.84-3.61,15.21-2.76c5.91,0.78,10.86,4.21,13.4,7.05V7.72z"/>
			</g>
		</g>
		<g style="clip-path:url(#SVGID_00000012438803869386296200000006272438366429146788_);">
			<g>
				<path class="st1" d="M34.81,46.66c-0.08,0-0.16-0.03-0.21-0.1c-2.44-2.72-7.37-6.18-13.23-6.96c-6.12-0.82-11.87,0.22-14.99,2.7
					c-0.09,0.07-0.2,0.08-0.3,0.03c-0.1-0.05-0.16-0.15-0.16-0.26V4.52c0-0.09,0.04-0.17,0.11-0.22c3.24-2.57,9.16-3.65,15.42-2.82
					c5.8,0.77,10.88,3.03,13.58,6.05c0.05,0.05,0.07,0.12,0.07,0.19v38.66c0,0.12-0.07,0.22-0.18,0.27
					C34.87,46.66,34.84,46.66,34.81,46.66z M17.31,38.76c1.34,0,2.73,0.09,4.13,0.28c5.64,0.75,10.44,3.92,13.08,6.62V7.83
					c-2.63-2.88-7.54-5.03-13.16-5.78C15.31,1.24,9.63,2.24,6.48,4.66v36.85C9.02,39.73,12.93,38.76,17.31,38.76z"/>
			</g>
		</g>
		<g style="clip-path:url(#SVGID_00000012438803869386296200000006272438366429146788_);">
			<g>
				<path class="st2" d="M34.89,7.72c0.38-0.43,0.82-0.85,1.31-1.25c2.75-2.26,7.08-4.04,12.09-4.7c6.37-0.85,12.15,0.33,15.21,2.76
					v37.56c-3.06-2.43-8.84-3.61-15.21-2.76c-5.91,0.78-10.86,4.25-13.4,7.09V7.72z"/>
			</g>
		</g>
		<g style="clip-path:url(#SVGID_00000012438803869386296200000006272438366429146788_);">
			<g>
				<path class="st1" d="M34.89,46.7c-0.03,0-0.07-0.01-0.1-0.02c-0.11-0.04-0.18-0.15-0.18-0.27V7.72c0-0.07,0.03-0.14,0.07-0.19
					c0.39-0.44,0.85-0.87,1.35-1.28c2.9-2.38,7.35-4.12,12.23-4.77c6.27-0.83,12.18,0.25,15.42,2.82c0.07,0.05,0.11,0.14,0.11,0.22
					v37.56c0,0.11-0.06,0.21-0.16,0.26c-0.1,0.05-0.22,0.04-0.3-0.03c-3.13-2.48-8.87-3.51-14.99-2.7c-5.83,0.78-10.77,4.25-13.23,7
					C35.05,46.67,34.97,46.7,34.89,46.7z M35.18,7.83v37.86c2.66-2.72,7.46-5.9,13.08-6.65c5.98-0.8,11.64,0.15,14.96,2.47V4.66
					c-3.15-2.42-8.83-3.42-14.89-2.61c-4.77,0.64-9.13,2.33-11.95,4.64C35.94,7.06,35.53,7.44,35.18,7.83z"/>
			</g>
		</g>
	</g>
	<g>
		<g>
			<polygon class="st2" points="35.73,29.85 34.87,27.81 34.02,29.85 34.02,6.78 35.73,6.78 			"/>
		</g>
	</g>
	<g>
		<g>
			<polygon class="st0" points="36.17,29.89 35.31,27.86 34.46,29.89 34.46,6.83 36.17,6.83 			"/>
		</g>
	</g>
	<g>
		<g>
			<path class="st1" d="M35.68,30.09c-0.11,0-0.22-0.07-0.27-0.18l-0.54-1.36l-0.54,1.36c-0.05,0.13-0.18,0.2-0.32,0.17
				c-0.13-0.03-0.23-0.14-0.23-0.28V6.83c0-0.16,0.13-0.29,0.29-0.29h1.62c0.16,0,0.29,0.13,0.29,0.29V29.8
				c0,0.14-0.1,0.25-0.23,0.28C35.72,30.09,35.7,30.09,35.68,30.09z M34.87,27.49c0.12,0,0.22,0.07,0.27,0.18l0.26,0.65V7.11h-1.05
				v21.21l0.26-0.65C34.65,27.56,34.76,27.49,34.87,27.49z"/>
		</g>
	</g>
	<g>
		<defs>
			<rect id="SVGID_00000125588440915531175920000005975205311454091185_" width="70.26" height="49.62"/>
		</defs>
		<clipPath id="SVGID_00000041253573207083056200000018030723463386219441_">
			<use xlink:href="#SVGID_00000125588440915531175920000005975205311454091185_"  style="overflow:visible;"/>
		</clipPath>
		<g style="clip-path:url(#SVGID_00000041253573207083056200000018030723463386219441_);">
			<g>
				<path class="st2" d="M34.81,6.51c-2.54-2.84-7.5-5.17-13.4-5.95C15.03-0.29,9.26,0.89,6.19,3.32v37.56
					c3.06-2.43,8.84-3.61,15.21-2.76c5.91,0.79,10.86,5.31,13.4,8.15V6.51z"/>
			</g>
		</g>
		<g style="clip-path:url(#SVGID_00000041253573207083056200000018030723463386219441_);">
			<g>
				<path class="st1" d="M34.81,46.56c-0.08,0-0.16-0.03-0.21-0.1c-2.39-2.67-7.29-7.27-13.23-8.06c-6.12-0.81-11.87,0.22-14.99,2.7
					c-0.09,0.07-0.2,0.08-0.3,0.03c-0.1-0.05-0.16-0.15-0.16-0.26V3.32c0-0.09,0.04-0.17,0.11-0.22c3.24-2.57,9.15-3.65,15.42-2.82
					c5.8,0.77,10.88,3.03,13.58,6.05c0.05,0.05,0.07,0.12,0.07,0.19v39.76c0,0.12-0.07,0.22-0.18,0.27
					C34.87,46.55,34.84,46.56,34.81,46.56z M17.32,37.56c1.34,0,2.72,0.09,4.12,0.28c5.73,0.76,10.49,4.93,13.08,7.7V6.62
					c-2.63-2.88-7.54-5.03-13.16-5.78C15.31,0.04,9.63,1.04,6.48,3.46v36.85C9.02,38.53,12.94,37.56,17.32,37.56z"/>
			</g>
		</g>
		<g style="clip-path:url(#SVGID_00000041253573207083056200000018030723463386219441_);">
			<g>
				<path class="st2" d="M34.89,6.51c0.38-0.43,0.82-0.85,1.31-1.25c2.75-2.26,7.08-4.04,12.09-4.7c6.37-0.85,12.15,0.33,15.21,2.76
					v37.56c-3.06-2.43-8.84-3.61-15.21-2.76c-5.91,0.79-10.86,5.36-13.4,8.2V6.51z"/>
			</g>
		</g>
		<g style="clip-path:url(#SVGID_00000041253573207083056200000018030723463386219441_);">
			<g>
				<path class="st1" d="M34.89,46.6c-0.03,0-0.07-0.01-0.1-0.02c-0.11-0.04-0.18-0.15-0.18-0.27V6.51c0-0.07,0.03-0.14,0.07-0.19
					c0.39-0.44,0.85-0.87,1.35-1.28c2.9-2.38,7.36-4.12,12.23-4.77c6.27-0.83,12.18,0.24,15.42,2.82c0.07,0.05,0.11,0.14,0.11,0.22
					v37.56c0,0.11-0.06,0.21-0.16,0.26c-0.1,0.05-0.22,0.04-0.3-0.03c-3.13-2.48-8.87-3.51-14.99-2.7
					c-5.89,0.78-10.82,5.42-13.23,8.11C35.05,46.57,34.97,46.6,34.89,46.6z M35.18,6.62v38.96c2.61-2.79,7.39-6.99,13.08-7.75
					c5.98-0.79,11.64,0.15,14.96,2.47V3.46c-3.15-2.42-8.83-3.42-14.89-2.61c-4.77,0.64-9.13,2.33-11.95,4.64
					C35.94,5.85,35.53,6.24,35.18,6.62z"/>
			</g>
		</g>
	</g>
	<g>
		<g>
			<polygon class="st2" points="35.73,28.64 34.87,26.61 34.02,28.64 34.02,5.58 35.73,5.58 			"/>
		</g>
	</g>
	<g>
		<g>
			<polygon class="st0" points="36.14,28.66 35.31,26.63 34.49,28.66 34.49,5.65 36.14,5.65 			"/>
		</g>
	</g>
	<g>
		<g>
			<path class="st0" d="M36.14,28.78c-0.05,0-0.1-0.03-0.12-0.08l-0.71-1.74L34.6,28.7c-0.02,0.05-0.08,0.09-0.14,0.08
				c-0.06-0.01-0.1-0.06-0.1-0.12V5.65c0-0.07,0.06-0.12,0.12-0.12h1.65c0.07,0,0.12,0.06,0.12,0.12v23.01
				c0,0.06-0.04,0.11-0.1,0.12C36.16,28.78,36.15,28.78,36.14,28.78z M35.31,26.5c0.05,0,0.1,0.03,0.12,0.08l0.59,1.44V5.77h-1.4
				v22.25l0.59-1.44C35.22,26.53,35.26,26.5,35.31,26.5z"/>
		</g>
	</g>
	<g>
		<g>
			<path class="st1" d="M35.68,28.88c-0.11,0-0.22-0.07-0.27-0.18l-0.54-1.36l-0.54,1.36c-0.05,0.13-0.18,0.2-0.32,0.17
				c-0.13-0.03-0.23-0.14-0.23-0.28V5.62c0-0.16,0.13-0.29,0.29-0.29h1.62c0.16,0,0.29,0.13,0.29,0.29V28.6
				c0,0.14-0.1,0.25-0.23,0.28C35.72,28.88,35.7,28.88,35.68,28.88z M34.87,26.29c0.12,0,0.22,0.07,0.27,0.18l0.26,0.65V5.91h-1.05
				v21.21l0.26-0.65C34.65,26.36,34.76,26.29,34.87,26.29z"/>
		</g>
	</g>
</g>
</svg>
