<?xml version="1.0" encoding="utf-8"?>
<!-- Generator: Adobe Illustrator 26.0.2, SVG Export Plug-In . SVG Version: 6.00 Build 0)  -->
<svg version="1.1" id="Ebene_1" xmlns="http://www.w3.org/2000/svg" xmlns:xlink="http://www.w3.org/1999/xlink" x="0px" y="0px"
	 viewBox="0 0 52.87 67.32" style="enable-background:new 0 0 52.87 67.32;" xml:space="preserve">
<style type="text/css">
	.st0{fill:#E59C00;}
	.st1{fill:#2B2961;}
	.st2{fill:#FFFFFF;}
	.st3{clip-path:url(#SVGID_00000053545321481142044950000003636270250658039227_);}
	.st4{clip-path:url(#SVGID_00000168106507964729622270000013624195489613588876_);}
	.st5{clip-path:url(#SVGID_00000127023203772743701830000001844470941974903697_);}
	.st6{clip-path:url(#SVGID_00000172428388571409166490000015695587708175564459_);}
	.st7{clip-path:url(#SVGID_00000141433556203650981640000009553924458217956542_);}
	.st8{clip-path:url(#SVGID_00000021121668451624167130000013811567225508014217_);}
	.st9{clip-path:url(#SVGID_00000105425773867685499210000017086676469557587125_);}
	.st10{clip-path:url(#SVGID_00000054223718859063272630000013139737545234185874_);}
	.st11{clip-path:url(#SVGID_00000127730003165409911530000013093918539764724622_);}
	.st12{clip-path:url(#SVGID_00000098203290971643303310000012665977941467111604_);}
	.st13{clip-path:url(#SVGID_00000062152607885298414470000013104803543358492560_);}
	.st14{clip-path:url(#SVGID_00000065794031900761271090000001418114089204154806_);}
	.st15{clip-path:url(#SVGID_00000021816255719318917500000004634557509882375340_);}
	.st16{clip-path:url(#SVGID_00000151531468882966072320000009200195596147555716_);}
	.st17{clip-path:url(#SVGID_00000096744828998961958020000012119981603793987985_);}
	.st18{clip-path:url(#SVGID_00000062154164412403787480000012443234064062684807_);}
	.st19{clip-path:url(#SVGID_00000159462104588924106660000000209773518778300570_);}
	.st20{clip-path:url(#SVGID_00000051357145362711318290000011545336020872559239_);}
	.st21{clip-path:url(#SVGID_00000125581122458013704070000009283582176840583346_);}
	.st22{clip-path:url(#SVGID_00000018197838291005276840000013802298318756993461_);}
	.st23{clip-path:url(#SVGID_00000029005794250044606530000002113496091280935835_);}
	.st24{clip-path:url(#SVGID_00000002353103707783154470000007760884256992131512_);}
	.st25{clip-path:url(#SVGID_00000008862685034003879210000012341507968181548195_);}
	.st26{clip-path:url(#SVGID_00000010291999852473197880000010988996845788630714_);}
	.st27{clip-path:url(#SVGID_00000044898194595303701880000001149129184121923502_);}
	.st28{clip-path:url(#SVGID_00000112591686658351141490000007245782924685738119_);}
	.st29{clip-path:url(#SVGID_00000002347761793137324010000002807123589007001005_);}
	.st30{clip-path:url(#SVGID_00000124845916431535188650000001830618365236127628_);}
	.st31{clip-path:url(#SVGID_00000042731329889157746190000010057600658362975933_);}
	.st32{clip-path:url(#SVGID_00000124152602394729212800000004049533313226072979_);}
	.st33{clip-path:url(#SVGID_00000007402668012010704130000004602857838475824547_);}
	.st34{clip-path:url(#SVGID_00000053544106572379054720000009006689659789063566_);}
	.st35{clip-path:url(#SVGID_00000033366330775173819740000009015451804370988197_);}
	.st36{clip-path:url(#SVGID_00000106104896178568633480000017119083114309393571_);}
	.st37{clip-path:url(#SVGID_00000065792025499524252640000015866503381107180192_);}
	.st38{clip-path:url(#SVGID_00000166660914081770160290000014031887025706667677_);}
	.st39{clip-path:url(#SVGID_00000027568108483755913440000014320499370019406994_);}
	.st40{clip-path:url(#SVGID_00000067213675458785986350000009320050565107634085_);}
	.st41{clip-path:url(#SVGID_00000054241448304517637670000008858332186422709419_);}
	.st42{clip-path:url(#SVGID_00000142887143788283111540000010199525157910644139_);}
	.st43{clip-path:url(#SVGID_00000165208428386536228100000007538417935452859533_);}
	.st44{clip-path:url(#SVGID_00000137132372504939967750000008071551660795821748_);}
	.st45{clip-path:url(#SVGID_00000039812337569266565330000013792147528402367419_);}
	.st46{clip-path:url(#SVGID_00000132071923950749427320000001190142293665589648_);}
	.st47{clip-path:url(#SVGID_00000011721641677781639420000010393018426676302498_);}
	.st48{clip-path:url(#SVGID_00000048475816450374645990000012555241846174295695_);}
	.st49{clip-path:url(#SVGID_00000158028041822094548840000013808841367745726887_);}
	.st50{clip-path:url(#SVGID_00000162338327075317208980000006152277148885084855_);}
	.st51{clip-path:url(#SVGID_00000083804402945304576510000017469284576821127572_);}
	.st52{clip-path:url(#SVGID_00000071543250271336925890000003336933505700648891_);}
	.st53{clip-path:url(#SVGID_00000008847037041562150630000003000849768933118881_);}
	.st54{clip-path:url(#SVGID_00000083049253756295999380000001176464363520927360_);}
	.st55{clip-path:url(#SVGID_00000040551501554022850920000011051861490482830500_);}
	.st56{clip-path:url(#SVGID_00000003784869668463476800000007811265507280978876_);}
	.st57{clip-path:url(#SVGID_00000111883219840559197260000003568672453530230925_);}
	.st58{clip-path:url(#SVGID_00000008119678532795964640000017330656048314290833_);}
	.st59{clip-path:url(#SVGID_00000144296949811763377510000015860238874904629893_);}
	.st60{clip-path:url(#SVGID_00000170980791115681590890000009406658464231526578_);}
	.st61{clip-path:url(#SVGID_00000120520624932372777660000011460220304556367290_);}
	.st62{clip-path:url(#SVGID_00000116931573942971064760000008862870126967640449_);}
	.st63{clip-path:url(#SVGID_00000058569944578680984620000002004191882311856306_);}
	.st64{clip-path:url(#SVGID_00000090987519516425483360000000245518951812822422_);}
	.st65{clip-path:url(#SVGID_00000060750542562709140280000009321823310946600065_);}
	.st66{clip-path:url(#SVGID_00000087377245235933931770000009009259582157008029_);}
	.st67{clip-path:url(#SVGID_00000084525840695505939570000013823681985016551867_);}
	.st68{clip-path:url(#SVGID_00000071551854990201051150000017625322507809413271_);}
	.st69{clip-path:url(#SVGID_00000072987173345384663070000007293942608740702372_);}
	.st70{clip-path:url(#SVGID_00000039815844027814586910000001907686600016561077_);}
	.st71{clip-path:url(#SVGID_00000101084712191501186150000002356778867816253318_);}
	.st72{clip-path:url(#SVGID_00000026153035053863056520000010991842896012828069_);}
	.st73{clip-path:url(#SVGID_00000122682251084590125090000009053489022066519207_);}
	.st74{clip-path:url(#SVGID_00000005266950380261048630000008088455627920460723_);}
	.st75{clip-path:url(#SVGID_00000136398358516197099610000015809592301195670707_);}
	.st76{clip-path:url(#SVGID_00000177446485768471127700000002644525605258610049_);}
	.st77{clip-path:url(#SVGID_00000134238929365240472980000016236372412964011941_);}
	.st78{clip-path:url(#SVGID_00000015344812411435916090000000823653624325248181_);}
	.st79{clip-path:url(#SVGID_00000042716422310692010230000007697861747352106372_);}
	.st80{clip-path:url(#SVGID_00000024695678782006002670000006717435783070194607_);}
	.st81{clip-path:url(#SVGID_00000162351346628685149210000016273114585237593011_);}
	.st82{clip-path:url(#SVGID_00000088844272754130004000000014863990279569253779_);}
	.st83{fill:none;}
	.st84{clip-path:url(#SVGID_00000013192084624731031250000010513884526386607770_);}
	.st85{clip-path:url(#SVGID_00000103233467246510029240000013706144078471023763_);}
	.st86{clip-path:url(#SVGID_00000025428182979111885800000007735903649741033370_);}
	.st87{clip-path:url(#SVGID_00000127763342958037308820000000399356651438638980_);}
	.st88{clip-path:url(#SVGID_00000118370734337017114510000017413563040244530057_);}
	.st89{clip-path:url(#SVGID_00000160883267657740265500000012869351757277668019_);}
	.st90{clip-path:url(#SVGID_00000094584209710131976730000004634539970075329457_);}
	.st91{clip-path:url(#SVGID_00000000182899853183176110000009213462775109747129_);}
	.st92{clip-path:url(#SVGID_00000176722765153988705350000015490670517966991006_);}
	.st93{clip-path:url(#SVGID_00000157998956459350718870000002833913551617459078_);}
	.st94{clip-path:url(#SVGID_00000050640102025883338090000003700002878167813543_);}
	.st95{clip-path:url(#SVGID_00000036232104666854184210000004467752403083367092_);}
	.st96{clip-path:url(#SVGID_00000023275747248407689250000000059794092243529381_);}
	.st97{clip-path:url(#SVGID_00000163755823278712474830000010362024146186489750_);}
	.st98{clip-path:url(#SVGID_00000082335669842234364320000013305938306968656038_);}
	.st99{clip-path:url(#SVGID_00000173162013949098578900000005039537472845436857_);}
	.st100{clip-path:url(#SVGID_00000122684827859902205770000017393668289543483302_);}
	.st101{clip-path:url(#SVGID_00000065049534866680028720000014305923954292374451_);}
	.st102{clip-path:url(#SVGID_00000146479284682985504960000013255141410879001775_);}
	.st103{clip-path:url(#SVGID_00000000197003047876329610000005152642263184901530_);}
	.st104{clip-path:url(#SVGID_00000138553288854751791020000004100055678259684785_);}
	.st105{clip-path:url(#SVGID_00000042736882606383047190000014328494734206604930_);}
	.st106{clip-path:url(#SVGID_00000107570031971063687070000007312530062062211476_);}
	.st107{clip-path:url(#SVGID_00000007412376666697689430000005592063517357012905_);}
	.st108{clip-path:url(#SVGID_00000022544031548271335350000004257592351664102566_);}
	.st109{clip-path:url(#SVGID_00000020368269115283792130000000924366644251555493_);}
	.st110{clip-path:url(#SVGID_00000102507038534548889590000001089142976566497936_);}
	.st111{clip-path:url(#SVGID_00000124140848012407838810000006156227321406312072_);}
	.st112{clip-path:url(#SVGID_00000169538624678212821260000015526326710624541340_);}
	.st113{clip-path:url(#SVGID_00000009551094683510108310000009371282138063924877_);}
	.st114{clip-path:url(#SVGID_00000061443263585470014000000002780065666117378738_);}
	.st115{clip-path:url(#SVGID_00000016757655717190871060000007022204583133303720_);}
	.st116{clip-path:url(#SVGID_00000169555048081551295500000011292210668348777620_);}
	.st117{clip-path:url(#SVGID_00000021802130217000195360000009911874752888420227_);}
	.st118{clip-path:url(#SVGID_00000065069269065143988100000006732861454053823643_);}
	.st119{clip-path:url(#SVGID_00000059283892450082527030000002036949100132695482_);}
	.st120{clip-path:url(#SVGID_00000071550806664600170200000009890267930113051540_);}
	.st121{clip-path:url(#SVGID_00000070097063991987886200000004392666880323690912_);}
	.st122{clip-path:url(#SVGID_00000170250842347686715790000017418390169928610993_);}
	.st123{clip-path:url(#SVGID_00000051374575795152110260000003874706700899887529_);}
	.st124{clip-path:url(#SVGID_00000151531804271103993760000000080507925294568601_);}
	.st125{clip-path:url(#SVGID_00000022561049595523554580000004515033814514059169_);}
	.st126{clip-path:url(#SVGID_00000008845294460614310660000010444098324827369370_);}
	.st127{clip-path:url(#SVGID_00000106137636900251684330000010321723260635920830_);}
	.st128{clip-path:url(#SVGID_00000181796996504922817800000011487562068582722731_);}
	.st129{clip-path:url(#SVGID_00000155123026206306763790000017070063840951444625_);}
	.st130{clip-path:url(#SVGID_00000159449903768994080030000006846891888065111432_);}
	.st131{clip-path:url(#SVGID_00000036935970408338673450000003899853492627298231_);}
	.st132{clip-path:url(#SVGID_00000016033491798726157750000015160974398398267582_);}
	.st133{clip-path:url(#SVGID_00000091700118788516036190000015968061446216155825_);}
	.st134{clip-path:url(#SVGID_00000039123952315450244890000009207000465983213496_);}
	.st135{clip-path:url(#SVGID_00000073713323757540801280000011092089390934783152_);}
	.st136{clip-path:url(#SVGID_00000147203536052440625130000012509389969656457116_);}
	.st137{clip-path:url(#SVGID_00000089568299159219718390000005537062192527544498_);}
	.st138{clip-path:url(#SVGID_00000181087301741141526840000009055063116463815335_);}
	.st139{clip-path:url(#SVGID_00000100363337640968799770000007783958431739948200_);}
	.st140{clip-path:url(#SVGID_00000049212452461213142990000012569160730812341930_);}
	.st141{clip-path:url(#SVGID_00000123438498997317608500000014626828542052235451_);}
	.st142{clip-path:url(#SVGID_00000173874983394488480610000002977986490017165217_);}
	.st143{clip-path:url(#SVGID_00000083779239463964175910000012380405603161339779_);}
	.st144{clip-path:url(#SVGID_00000046335919390093227270000001140132847170625467_);}
	.st145{clip-path:url(#SVGID_00000078042227461829389320000009612627184929982892_);}
	.st146{clip-path:url(#SVGID_00000152222571180812039870000017907221712382132156_);}
	.st147{clip-path:url(#SVGID_00000078045265122184393880000006099721701014714005_);}
	.st148{clip-path:url(#SVGID_00000163774019324521366920000016238427969898935701_);}
	.st149{clip-path:url(#SVGID_00000137118383696693593630000007645855314041031557_);}
	.st150{clip-path:url(#SVGID_00000124874446108802937640000018015856923074152115_);}
	.st151{clip-path:url(#SVGID_00000152246298894301599670000011957386104055516575_);}
	.st152{clip-path:url(#SVGID_00000091001749448576618730000014342665440873575323_);}
	.st153{clip-path:url(#SVGID_00000108275969324598659500000006405798774965718433_);}
	.st154{clip-path:url(#SVGID_00000162323877482318622760000011258835648521254545_);}
	.st155{clip-path:url(#SVGID_00000181803599649318200340000004692194957213694630_);}
	.st156{clip-path:url(#SVGID_00000132783417909003943970000009032705881464135304_);}
	.st157{clip-path:url(#SVGID_00000045586129824604961630000017400698561854003607_);}
	.st158{clip-path:url(#SVGID_00000106865399743869261830000009031600778841293979_);}
	.st159{clip-path:url(#SVGID_00000086682948981492282050000010954419119430892940_);}
	.st160{clip-path:url(#SVGID_00000018923722695942429710000010933478785768150448_);}
	.st161{clip-path:url(#SVGID_00000127026491370431898990000014243098522222370442_);}
	.st162{clip-path:url(#SVGID_00000039843424739045305450000007836325096131015857_);}
	.st163{clip-path:url(#SVGID_00000142141472351593779980000014309312451706375067_);}
	.st164{clip-path:url(#SVGID_00000160900537330544597460000002460009253313236906_);}
	.st165{clip-path:url(#SVGID_00000150822418132818095010000010681123285396018105_);}
	.st166{clip-path:url(#SVGID_00000152971667674687696610000002168657469909350532_);}
	.st167{clip-path:url(#SVGID_00000132798827481252349210000003836716183439846538_);}
	.st168{clip-path:url(#SVGID_00000159435420864299205250000000045604633963233429_);}
	.st169{clip-path:url(#SVGID_00000147193622231497401520000017230751937923100085_);}
	.st170{clip-path:url(#SVGID_00000008113208727478711410000012042385319361881498_);}
	.st171{clip-path:url(#SVGID_00000079466128822679995850000006894306773484056230_);}
	.st172{clip-path:url(#SVGID_00000179639727726002385700000000597719711337436550_);}
	.st173{clip-path:url(#SVGID_00000157996240165425651070000005840492429707107979_);}
	.st174{clip-path:url(#SVGID_00000144301660745924965230000007315997014306842008_);}
	.st175{clip-path:url(#SVGID_00000103237715695488641740000002607715693880532374_);}
	.st176{clip-path:url(#SVGID_00000098930589823591720270000010719580725128980121_);}
	.st177{clip-path:url(#SVGID_00000011728513943285095910000000319507131177953922_);}
	.st178{clip-path:url(#SVGID_00000150821125783170356210000012702271628846143676_);}
	.st179{clip-path:url(#SVGID_00000034786597308775812890000002078120259982113449_);}
	.st180{clip-path:url(#SVGID_00000165202590025838276760000014817251013331871918_);}
	.st181{clip-path:url(#SVGID_00000134962510186833502800000001058202400324833718_);}
	.st182{clip-path:url(#SVGID_00000148650476452338520050000017358112495435067292_);}
	.st183{clip-path:url(#SVGID_00000013904800806586783970000000817995934340130220_);}
	.st184{clip-path:url(#SVGID_00000107550814098970418380000003933759843721096601_);}
	.st185{clip-path:url(#SVGID_00000142152363971388578780000013458052579008490914_);}
	.st186{clip-path:url(#SVGID_00000171696637438924433270000006702614804435952036_);}
</style>
<g>
	<g>
		<polygon class="st0" points="29.72,24.99 27.47,27.8 25.21,24.99 27.47,14.22 		"/>
	</g>
	<g>
		<path class="st0" d="M27.47,27.92c-0.04,0-0.07-0.02-0.1-0.05l-2.26-2.81c-0.02-0.03-0.03-0.07-0.02-0.1l2.26-10.77
			c0.02-0.12,0.22-0.12,0.25,0l2.26,10.77c0.01,0.04,0,0.07-0.02,0.1l-2.26,2.81C27.54,27.9,27.51,27.92,27.47,27.92z M25.35,24.96
			l2.12,2.64l2.12-2.64l-2.12-10.13L25.35,24.96z"/>
	</g>
	<g>
		<path class="st1" d="M32.38,32.73c-0.19,0-0.35-0.16-0.35-0.35v-9.43c0-0.19,0.16-0.35,0.35-0.35c0.19,0,0.35,0.16,0.35,0.35v9.43
			C32.73,32.57,32.57,32.73,32.38,32.73z M21.04,32.73c-0.19,0-0.35-0.16-0.35-0.35v-9.43c0-0.19,0.16-0.35,0.35-0.35
			s0.35,0.16,0.35,0.35v9.43C21.39,32.57,21.23,32.73,21.04,32.73z"/>
	</g>
	<g>
		
			<rect x="29.85" y="5.76" transform="matrix(0.8412 -0.5408 0.5408 0.8412 1.7378 17.8153)" class="st1" width="2.7" height="0.37"/>
	</g>
	<g>
		<polygon class="st1" points="23.44,6.85 21.01,5.29 21.23,4.95 23.65,6.51 		"/>
	</g>
	<g>
		<polyline class="st2" points="27.83,13.06 26.58,14.3 25.34,13.06 		"/>
	</g>
	<g>
		<path class="st1" d="M26.58,14.5c-0.05,0-0.1-0.02-0.14-0.06L25.2,13.2l0.28-0.28l1.1,1.11l1.11-1.11l0.28,0.28l-1.25,1.25
			C26.69,14.48,26.64,14.5,26.58,14.5z"/>
	</g>
	<g>
		<defs>
			<rect id="SVGID_00000044862968398662770330000009055007244861545655_" width="52.87" height="67.32"/>
		</defs>
		<clipPath id="SVGID_00000152954392268665389560000016654443728332731322_">
			<use xlink:href="#SVGID_00000044862968398662770330000009055007244861545655_"  style="overflow:visible;"/>
		</clipPath>
		<g style="clip-path:url(#SVGID_00000152954392268665389560000016654443728332731322_);">
			<path class="st1" d="M26.71,11.64c-3.21,0-5.82-2.61-5.82-5.82C20.89,2.61,23.5,0,26.71,0c3.21,0,5.82,2.61,5.82,5.82
				C32.53,9.03,29.92,11.64,26.71,11.64z M26.71,0.6c-2.88,0-5.22,2.34-5.22,5.22c0,2.88,2.34,5.22,5.22,5.22
				c2.88,0,5.22-2.34,5.22-5.22C31.93,2.94,29.59,0.6,26.71,0.6z"/>
		</g>
		<g style="clip-path:url(#SVGID_00000152954392268665389560000016654443728332731322_);">
			<path class="st1" d="M25.01,6.23c0,0.16-0.13,0.29-0.29,0.29c-0.16,0-0.29-0.13-0.29-0.29c0-0.16,0.13-0.29,0.29-0.29
				C24.88,5.93,25.01,6.07,25.01,6.23"/>
		</g>
		<g style="clip-path:url(#SVGID_00000152954392268665389560000016654443728332731322_);">
			<path class="st1" d="M29,6.23c0,0.16-0.13,0.29-0.29,0.29c-0.16,0-0.29-0.13-0.29-0.29c0-0.16,0.13-0.29,0.29-0.29
				C28.87,5.93,29,6.07,29,6.23"/>
		</g>
	</g>
	<g>
		<defs>
			<rect id="SVGID_00000132803865336477225680000015789242522900045215_" width="52.87" height="67.32"/>
		</defs>
		<clipPath id="SVGID_00000152243382842880335670000002211472869080065459_">
			<use xlink:href="#SVGID_00000132803865336477225680000015789242522900045215_"  style="overflow:visible;"/>
		</clipPath>
		<g style="clip-path:url(#SVGID_00000152243382842880335670000002211472869080065459_);">
			<path class="st1" d="M26.58,27.43c-0.05,0-0.1-0.02-0.14-0.06l-2.81-2.81c-0.05-0.05-0.07-0.12-0.05-0.19l2.81-10.77
				c0.05-0.18,0.34-0.18,0.39,0l2.81,10.77c0.02,0.07,0,0.14-0.05,0.19l-2.81,2.81C26.69,27.41,26.64,27.43,26.58,27.43z M24,24.36
				l2.58,2.58l2.58-2.58l-2.58-9.92L24,24.36z M28.79,8.15c-0.78,0-1.42-0.61-1.47-1.38c-0.47-0.37-0.88-0.12-1.02,0
				c-0.05,0.77-0.69,1.38-1.47,1.38c-0.81,0-1.48-0.66-1.48-1.48c0-0.11,0.09-0.2,0.2-0.2h2.47c0.3-0.26,0.93-0.52,1.57,0h2.48
				c0.11,0,0.2,0.09,0.2,0.2C30.26,7.49,29.6,8.15,28.79,8.15z M27.73,6.88c0.09,0.5,0.53,0.88,1.06,0.88
				c0.52,0,0.96-0.38,1.06-0.88H27.73z M23.76,6.88c0.09,0.5,0.53,0.88,1.06,0.88c0.52,0,0.96-0.38,1.06-0.88H23.76z"/>
		</g>
	</g>
	<g>
		<defs>
			<rect id="SVGID_00000145759247557791278980000006346941190024894362_" width="52.87" height="67.32"/>
		</defs>
		<clipPath id="SVGID_00000129925639657565500390000007401179688047436956_">
			<use xlink:href="#SVGID_00000145759247557791278980000006346941190024894362_"  style="overflow:visible;"/>
		</clipPath>
		<g style="clip-path:url(#SVGID_00000129925639657565500390000007401179688047436956_);">
			<path class="st1" d="M36.45,58.58H16.9c-0.17,0-0.3-0.13-0.3-0.3V23.27c0-5.69,4.61-10.52,10.07-10.56c0.02,0,0.04,0,0.06,0
				c2.5,0,4.92,1.03,6.82,2.91c2.06,2.03,3.25,4.82,3.26,7.65c0,0,0,0,0,0l-0.07,35.01C36.75,58.44,36.62,58.58,36.45,58.58z
				 M17.2,57.98h18.95l0.07-34.71c-0.02-2.67-1.14-5.31-3.09-7.23c-1.79-1.76-4.06-2.73-6.4-2.73c-0.02,0-0.04,0-0.06,0
				c-5.14,0.04-9.48,4.6-9.48,9.96V57.98z"/>
		</g>
	</g>
	<g>
		<rect x="0.3" y="31.76" class="st2" width="51.31" height="34.3"/>
	</g>
	<g>
		<defs>
			<rect id="SVGID_00000042710714095703219120000015884035607248455050_" width="52.87" height="67.32"/>
		</defs>
		<clipPath id="SVGID_00000096746049854947791190000006098789676865688731_">
			<use xlink:href="#SVGID_00000042710714095703219120000015884035607248455050_"  style="overflow:visible;"/>
		</clipPath>
		<g style="clip-path:url(#SVGID_00000096746049854947791190000006098789676865688731_);">
			<path class="st1" d="M51.61,66.36H0.3c-0.17,0-0.3-0.13-0.3-0.3v-34.3c0-0.17,0.13-0.3,0.3-0.3h51.31c0.17,0,0.3,0.13,0.3,0.3
				v34.3C51.91,66.23,51.77,66.36,51.61,66.36z M0.6,65.76h50.71v-33.7H0.6V65.76z"/>
		</g>
	</g>
	<g>
		<rect x="2.25" y="32.9" class="st0" width="50.49" height="34.3"/>
	</g>
	<g>
		<defs>
			<rect id="SVGID_00000005945651839135468450000001887796362047368335_" width="52.87" height="67.32"/>
		</defs>
		<clipPath id="SVGID_00000146481369851696351880000003208098804522986903_">
			<use xlink:href="#SVGID_00000005945651839135468450000001887796362047368335_"  style="overflow:visible;"/>
		</clipPath>
		<g style="clip-path:url(#SVGID_00000146481369851696351880000003208098804522986903_);">
			<path class="st0" d="M52.74,67.32H2.25c-0.07,0-0.13-0.06-0.13-0.13V32.9c0-0.07,0.06-0.13,0.13-0.13h50.49
				c0.07,0,0.13,0.06,0.13,0.13v34.3C52.87,67.27,52.81,67.32,52.74,67.32z M2.38,67.07h50.24V33.02H2.38V67.07z"/>
		</g>
		<g style="clip-path:url(#SVGID_00000146481369851696351880000003208098804522986903_);">
			<path class="st1" d="M51.61,66.36H0.3c-0.17,0-0.3-0.13-0.3-0.3v-34.3c0-0.17,0.13-0.3,0.3-0.3h51.31c0.17,0,0.3,0.13,0.3,0.3
				v34.3C51.91,66.23,51.77,66.36,51.61,66.36z M0.6,65.76h50.71v-33.7H0.6V65.76z"/>
		</g>
	</g>
</g>
</svg>
