<?xml version="1.0" encoding="utf-8"?>
<!-- Generator: Adobe Illustrator 26.0.2, SVG Export Plug-In . SVG Version: 6.00 Build 0)  -->
<svg version="1.1" id="Ebene_1" xmlns="http://www.w3.org/2000/svg" xmlns:xlink="http://www.w3.org/1999/xlink" x="0px" y="0px"
	 viewBox="0 0 59.17 54.24" style="enable-background:new 0 0 59.17 54.24;" xml:space="preserve">
<style type="text/css">
	.st0{fill:#E59C00;}
	.st1{fill:#2B2961;}
	.st2{fill:#FFFFFF;}
	.st3{clip-path:url(#SVGID_00000139253615137044468660000016750107380972281218_);}
	.st4{clip-path:url(#SVGID_00000057113081829085775630000012470262250244132780_);}
	.st5{clip-path:url(#SVGID_00000078741347081390306800000009965043977758526875_);}
	.st6{clip-path:url(#SVGID_00000062193381130866608430000007290880449936200852_);}
	.st7{clip-path:url(#SVGID_00000148620797703425553150000001929207653256914566_);}
	.st8{clip-path:url(#SVGID_00000121268756677910177500000011581901350424553117_);}
	.st9{clip-path:url(#SVGID_00000006695740732537037490000010774007147736632963_);}
	.st10{clip-path:url(#SVGID_00000132073801113365671060000005079509081822160565_);}
	.st11{clip-path:url(#SVGID_00000163034096145127282440000000504003708409817530_);}
	.st12{clip-path:url(#SVGID_00000080166751140381885620000001426660835632462231_);}
	.st13{clip-path:url(#SVGID_00000146488045903066872100000017409381640441984673_);}
	.st14{clip-path:url(#SVGID_00000155847328402010896770000009907476157839403450_);}
	.st15{clip-path:url(#SVGID_00000044151578195604031800000013754868947587602101_);}
	.st16{clip-path:url(#SVGID_00000182492218828016034100000000084296160755115706_);}
	.st17{clip-path:url(#SVGID_00000102505728705506850040000013094781831486241710_);}
	.st18{clip-path:url(#SVGID_00000098926321643730252050000006073843725082203828_);}
	.st19{clip-path:url(#SVGID_00000094595053812385613580000005778760821044277131_);}
	.st20{clip-path:url(#SVGID_00000011015436712766632910000000211363462659515315_);}
	.st21{clip-path:url(#SVGID_00000014613253526752124860000018370737273220779707_);}
	.st22{clip-path:url(#SVGID_00000042712578865795249520000013993560446739014033_);}
	.st23{clip-path:url(#SVGID_00000054973131082081698510000016578209274685213343_);}
	.st24{clip-path:url(#SVGID_00000147940129165376577270000004048297762732108207_);}
	.st25{clip-path:url(#SVGID_00000167362382766143943940000011842632078846457255_);}
	.st26{clip-path:url(#SVGID_00000051369751855677208030000012083076032885412252_);}
	.st27{clip-path:url(#SVGID_00000075132252152931126410000005347031063328915625_);}
	.st28{clip-path:url(#SVGID_00000181047589041202891980000007789608357192106943_);}
	.st29{clip-path:url(#SVGID_00000106859431392017216090000007190776392938289837_);}
	.st30{clip-path:url(#SVGID_00000042001896345220730050000014804285682177505446_);}
	.st31{clip-path:url(#SVGID_00000063635256972538933630000009243204724822213811_);}
	.st32{clip-path:url(#SVGID_00000056395408349973992940000000824241069121094065_);}
	.st33{clip-path:url(#SVGID_00000123399237386482155670000002622585213026292145_);}
	.st34{clip-path:url(#SVGID_00000003089836748722159040000015046309737767036594_);}
	.st35{clip-path:url(#SVGID_00000141448347618676017870000014418127006082530467_);}
	.st36{clip-path:url(#SVGID_00000073697896701236752880000015183267345416327824_);}
	.st37{clip-path:url(#SVGID_00000040551859218705435850000001882722971369960857_);}
	.st38{clip-path:url(#SVGID_00000163061569003675780730000007407732490591991696_);}
	.st39{clip-path:url(#SVGID_00000116215968979492421160000011219420010743656626_);}
	.st40{clip-path:url(#SVGID_00000024701275878174628970000002104230913302601874_);}
	.st41{clip-path:url(#SVGID_00000101802479452054230610000018079269578105956508_);}
	.st42{clip-path:url(#SVGID_00000006701580594953306640000008849536617409538946_);}
	.st43{clip-path:url(#SVGID_00000139279386785178256460000000379681868459773862_);}
	.st44{clip-path:url(#SVGID_00000067942434501116843930000007748161259077699754_);}
	.st45{clip-path:url(#SVGID_00000173157243770495372510000018222958659749385657_);}
	.st46{clip-path:url(#SVGID_00000094596244884035173000000007696014537728620160_);}
	.st47{clip-path:url(#SVGID_00000107569983935657369920000007201935419425756346_);}
	.st48{clip-path:url(#SVGID_00000155858672223350529600000011656227001446624702_);}
	.st49{clip-path:url(#SVGID_00000057827714249284955090000002780468386463871919_);}
	.st50{clip-path:url(#SVGID_00000057867038098421627750000004280243839909068694_);}
	.st51{clip-path:url(#SVGID_00000074412273075881220220000013466108189057141414_);}
	.st52{clip-path:url(#SVGID_00000039101929506366005660000006784831971622374034_);}
	.st53{clip-path:url(#SVGID_00000003789033538009431410000002565415893879933886_);}
	.st54{clip-path:url(#SVGID_00000022533827802853017740000015210354135012024748_);}
	.st55{clip-path:url(#SVGID_00000110436432230658527280000017161494421004895137_);}
	.st56{clip-path:url(#SVGID_00000169526874679241099630000000405642609223958970_);}
	.st57{clip-path:url(#SVGID_00000019638493703930342200000014714444956785748116_);}
	.st58{clip-path:url(#SVGID_00000021829453229640995940000010028199898963953822_);}
	.st59{clip-path:url(#SVGID_00000162340228670544609610000012825898619355509940_);}
	.st60{clip-path:url(#SVGID_00000043447876491891078790000001724557058156176295_);}
	.st61{clip-path:url(#SVGID_00000000932114388915212480000010148660809577659302_);}
	.st62{clip-path:url(#SVGID_00000015345048299979092050000008749761703928453770_);}
	.st63{clip-path:url(#SVGID_00000013899899054172673080000011686358688481411218_);}
	.st64{clip-path:url(#SVGID_00000160157488438364685650000002748809882506677896_);}
	.st65{clip-path:url(#SVGID_00000032610212629782302530000011538593518446417574_);}
	.st66{clip-path:url(#SVGID_00000049933426826448718030000015647562813151588795_);}
	.st67{clip-path:url(#SVGID_00000090282820863163255700000014721401556744007302_);}
	.st68{clip-path:url(#SVGID_00000142863692663805803300000008685633258803209895_);}
	.st69{clip-path:url(#SVGID_00000111887693719645123150000004895363306571875251_);}
	.st70{clip-path:url(#SVGID_00000138564795163740314000000004319843626436612267_);}
	.st71{clip-path:url(#SVGID_00000147197992099370507480000011095351979344287935_);}
	.st72{clip-path:url(#SVGID_00000062889360489853884380000010341881262153655956_);}
	.st73{clip-path:url(#SVGID_00000060748146361917180590000012160993335775909296_);}
	.st74{clip-path:url(#SVGID_00000134248867734736831250000007120697146498763911_);}
	.st75{clip-path:url(#SVGID_00000126306861773333548850000010820904382163930014_);}
	.st76{clip-path:url(#SVGID_00000036253420584588584060000000113639914334497693_);}
	.st77{clip-path:url(#SVGID_00000106868367517968239870000015223432539995361176_);}
	.st78{clip-path:url(#SVGID_00000132787830784902403520000008646284915539238567_);}
	.st79{clip-path:url(#SVGID_00000019636499394633859780000016250493312572503694_);}
	.st80{clip-path:url(#SVGID_00000103254142839011152160000012312280988871984306_);}
	.st81{clip-path:url(#SVGID_00000175302281556469037780000012680844861134031246_);}
	.st82{clip-path:url(#SVGID_00000152262263940541255960000003335332116134097298_);}
	.st83{fill:none;}
	.st84{clip-path:url(#SVGID_00000036974369775519721680000001921647601261240220_);}
	.st85{clip-path:url(#SVGID_00000048492705343524765600000017953231183815192510_);}
	.st86{clip-path:url(#SVGID_00000098914874081709730410000011126440133678714784_);}
	.st87{clip-path:url(#SVGID_00000114052718551088978110000010823028808502281623_);}
	.st88{clip-path:url(#SVGID_00000047769838338667332750000010222408176843386250_);}
	.st89{clip-path:url(#SVGID_00000093876044313554162920000000684822882597277109_);}
	.st90{clip-path:url(#SVGID_00000140720804901203062940000016076045949956894906_);}
	.st91{clip-path:url(#SVGID_00000057855507466742366440000011076960403708995508_);}
	.st92{clip-path:url(#SVGID_00000023959676834330411130000006849271819972439982_);}
	.st93{clip-path:url(#SVGID_00000171713417825220357250000009692670218106861455_);}
	.st94{clip-path:url(#SVGID_00000052813419928474830260000003706991346288079514_);}
	.st95{clip-path:url(#SVGID_00000000925595708824869630000003031286522377178290_);}
	.st96{clip-path:url(#SVGID_00000044151694217758642080000007193178426514729374_);}
	.st97{clip-path:url(#SVGID_00000050632952524616051970000004925700373805396660_);}
	.st98{clip-path:url(#SVGID_00000011735570861827762740000005324596329376016574_);}
	.st99{clip-path:url(#SVGID_00000094613985114895502280000014805455806736602262_);}
	.st100{clip-path:url(#SVGID_00000163759951646519572860000017581207663269147054_);}
	.st101{clip-path:url(#SVGID_00000098933849858791214530000002424423242682388905_);}
	.st102{clip-path:url(#SVGID_00000109031459879616502510000017515639995131233445_);}
	.st103{clip-path:url(#SVGID_00000020371600134741669480000012845853645077832599_);}
	.st104{clip-path:url(#SVGID_00000155128343229110196010000006009968084766889618_);}
	.st105{clip-path:url(#SVGID_00000165204293566612712940000008099170817478317729_);}
	.st106{clip-path:url(#SVGID_00000132067673187168354830000001110516070319480716_);}
	.st107{clip-path:url(#SVGID_00000155122845450396635320000005121831889092164500_);}
	.st108{clip-path:url(#SVGID_00000076561511576382082470000011788100782452653727_);}
	.st109{clip-path:url(#SVGID_00000083061203912592183720000017868305025642418308_);}
	.st110{clip-path:url(#SVGID_00000018925896124057962470000008873539670937334664_);}
	.st111{clip-path:url(#SVGID_00000087410164220763463430000002965298798969906319_);}
	.st112{clip-path:url(#SVGID_00000150101748337207044580000016359966245586167738_);}
	.st113{clip-path:url(#SVGID_00000102544740206194131930000000453974129876573878_);}
	.st114{clip-path:url(#SVGID_00000060747509871365630030000011829310078652391077_);}
	.st115{clip-path:url(#SVGID_00000000921395050681925160000003326502724950225563_);}
	.st116{clip-path:url(#SVGID_00000165925992061392095730000005103119955058066605_);}
	.st117{clip-path:url(#SVGID_00000173841070996798164250000007010685406621921676_);}
	.st118{clip-path:url(#SVGID_00000176014911744645971660000008064270084062600124_);}
	.st119{clip-path:url(#SVGID_00000086678237049803452570000009076039027728219296_);}
	.st120{clip-path:url(#SVGID_00000032616537369529462250000011672258942307045037_);}
	.st121{clip-path:url(#SVGID_00000121959047605364405460000009125470933060317625_);}
	.st122{clip-path:url(#SVGID_00000040563527047323117020000010187532426513859233_);}
	.st123{clip-path:url(#SVGID_00000021117491450221408160000005768673007135694226_);}
	.st124{clip-path:url(#SVGID_00000121999552480589805510000001898617754887441070_);}
	.st125{clip-path:url(#SVGID_00000033366823936563630890000015211466062460870324_);}
	.st126{clip-path:url(#SVGID_00000133528530408225704620000008178004902423880067_);}
	.st127{clip-path:url(#SVGID_00000171711514968098383510000006987459353226259377_);}
	.st128{clip-path:url(#SVGID_00000153697241625493665820000011771091586161962174_);}
	.st129{clip-path:url(#SVGID_00000177472912749652783140000009576563959343108778_);}
	.st130{clip-path:url(#SVGID_00000145770055924774485360000000203782878551886211_);}
	.st131{clip-path:url(#SVGID_00000003800299778222386520000007496337675069487252_);}
	.st132{clip-path:url(#SVGID_00000094602095981770188750000017476277048400412605_);}
	.st133{clip-path:url(#SVGID_00000013900894979643048970000011976933756956562312_);}
	.st134{clip-path:url(#SVGID_00000000911381482940258380000009799306067185829513_);}
	.st135{clip-path:url(#SVGID_00000182526120830636648340000006427501085915892130_);}
	.st136{clip-path:url(#SVGID_00000156568211880483959960000008485312151964892055_);}
	.st137{clip-path:url(#SVGID_00000005236350671974902140000014659118716761430155_);}
	.st138{clip-path:url(#SVGID_00000067936685492285455460000014882375043697398457_);}
	.st139{clip-path:url(#SVGID_00000127761014422953304780000005373705236402343833_);}
	.st140{clip-path:url(#SVGID_00000069393640533256028770000018267511711833443470_);}
	.st141{clip-path:url(#SVGID_00000138569989937265744700000005087184179520962182_);}
	.st142{clip-path:url(#SVGID_00000143598864347697649330000011230942975059897488_);}
	.st143{clip-path:url(#SVGID_00000133529187125885976290000016304064078628151447_);}
	.st144{clip-path:url(#SVGID_00000142888006358138559780000001488505647419301546_);}
	.st145{clip-path:url(#SVGID_00000087372283180850335860000001551246859254077847_);}
	.st146{clip-path:url(#SVGID_00000070100660185625388040000015007537038547677347_);}
	.st147{clip-path:url(#SVGID_00000109022013770935702780000007945054010732083345_);}
	.st148{clip-path:url(#SVGID_00000023979163439344395590000007490307055037822097_);}
	.st149{clip-path:url(#SVGID_00000034070574225113428150000007355990496028797110_);}
	.st150{clip-path:url(#SVGID_00000183927144109207891230000013895499972733303716_);}
	.st151{clip-path:url(#SVGID_00000067929898604117867280000000038822662624857483_);}
	.st152{clip-path:url(#SVGID_00000020385293379607290140000013833676190541362860_);}
	.st153{clip-path:url(#SVGID_00000133507112433585767480000008591838367240171927_);}
	.st154{clip-path:url(#SVGID_00000171716614077608571450000016781020717100338591_);}
	.st155{clip-path:url(#SVGID_00000176014344596975000240000013193398247735710141_);}
	.st156{clip-path:url(#SVGID_00000135655027153848989740000004379993488287725205_);}
	.st157{clip-path:url(#SVGID_00000085223885229172103060000017681763168990109871_);}
	.st158{clip-path:url(#SVGID_00000042014884069136141480000003113661169920024506_);}
	.st159{clip-path:url(#SVGID_00000139265932249647044420000004749756768386835647_);}
	.st160{clip-path:url(#SVGID_00000183960057364538298280000000508145216653300117_);}
	.st161{clip-path:url(#SVGID_00000137130517844092346490000003046984542840107702_);}
	.st162{clip-path:url(#SVGID_00000018209926934992589110000002865294370424058520_);}
	.st163{clip-path:url(#SVGID_00000082355676069878446010000006088047278242345099_);}
	.st164{clip-path:url(#SVGID_00000123441730907922973880000011019593640532146053_);}
	.st165{clip-path:url(#SVGID_00000132076725660987318920000003321606864295778730_);}
	.st166{clip-path:url(#SVGID_00000031903963858275259290000009109299776525719191_);}
	.st167{clip-path:url(#SVGID_00000057847925043112499030000013038589698765444757_);}
	.st168{clip-path:url(#SVGID_00000055694785635481641850000009300700488503016121_);}
	.st169{clip-path:url(#SVGID_00000115495303077382512600000017499912128429533078_);}
	.st170{clip-path:url(#SVGID_00000151513471392095779190000006301341096811018649_);}
	.st171{clip-path:url(#SVGID_00000094588307008921744090000012436691368242632633_);}
	.st172{clip-path:url(#SVGID_00000010308474999120886430000004712421213188021173_);}
	.st173{clip-path:url(#SVGID_00000002357396832664449920000012417090271258402692_);}
	.st174{clip-path:url(#SVGID_00000134236529802331922920000009813631829768599943_);}
	.st175{clip-path:url(#SVGID_00000127749388742848692080000013751405004082139020_);}
	.st176{clip-path:url(#SVGID_00000016764753818929811560000011684245360787007137_);}
	.st177{clip-path:url(#SVGID_00000005258591452405429500000013045748018270983860_);}
	.st178{clip-path:url(#SVGID_00000104668528771473933510000005222161697593607076_);}
	.st179{clip-path:url(#SVGID_00000060724973202324755420000000083335936245439872_);}
	.st180{clip-path:url(#SVGID_00000130606775566014445010000000471276801361004715_);}
	.st181{clip-path:url(#SVGID_00000085248604493923935680000006589972590048116632_);}
	.st182{clip-path:url(#SVGID_00000183942497009185534720000009018485148983449014_);}
	.st183{clip-path:url(#SVGID_00000083778007062932749310000012142518655287394483_);}
	.st184{clip-path:url(#SVGID_00000092429002537327518150000011479758780250578853_);}
	.st185{clip-path:url(#SVGID_00000061452866737230004710000015282012722566759554_);}
	.st186{clip-path:url(#SVGID_00000182515556005156096390000000442671947546021766_);}
</style>
<g>
	<g>
		<path class="st2" d="M57.9,32.45c-0.9-0.53-1.65-0.06-2.34,0.46C56.44,33.12,57.38,33.21,57.9,32.45"/>
	</g>
	<g>
		<path class="st1" d="M56.61,33.26c-0.36,0-0.74-0.07-1.1-0.15l-0.41-0.1l0.33-0.26c0.71-0.54,1.54-1.07,2.56-0.48l0.18,0.11
			l-0.12,0.18C57.7,33.09,57.18,33.26,56.61,33.26z M56.04,32.81c0.6,0.1,1.16,0.08,1.54-0.29C57.06,32.3,56.59,32.45,56.04,32.81z"
			/>
	</g>
	<g>
		<path class="st2" d="M57.69,31.72c-0.04-1-0.94-1.25-1.87-1.42C56.16,31.08,56.65,31.83,57.69,31.72"/>
	</g>
	<g>
		<path class="st1" d="M57.49,31.93c-1.03,0-1.53-0.82-1.85-1.55l-0.15-0.34l0.37,0.07c0.96,0.17,1.98,0.45,2.03,1.61l0.01,0.19
			l-0.19,0.02C57.63,31.92,57.56,31.93,57.49,31.93z M56.17,30.57c0.28,0.52,0.65,0.94,1.29,0.96
			C57.36,30.99,56.91,30.74,56.17,30.57z"/>
	</g>
	<g>
		<path class="st2" d="M55.99,31.9c-0.84-0.59-1.64-0.18-2.37,0.29C54.48,32.46,55.41,32.62,55.99,31.9"/>
	</g>
	<g>
		<path class="st1" d="M54.83,32.62c-0.42,0-0.85-0.11-1.27-0.23l-0.41-0.13l0.36-0.23c0.76-0.48,1.64-0.95,2.59-0.28l0.18,0.12
			l-0.14,0.17C55.79,32.47,55.33,32.62,54.83,32.62z M54.13,32.12c0.58,0.14,1.14,0.16,1.55-0.18C55.18,31.69,54.7,31.8,54.13,32.12
			z"/>
	</g>
	<g>
		<path class="st2" d="M55.16,31.17c0.51-0.89-0.09-1.53-0.76-2.1C54.26,29.91,54.25,30.78,55.16,31.17"/>
	</g>
	<g>
		<path class="st1" d="M55.25,31.43l-0.16-0.07c-1.06-0.45-1.02-1.48-0.87-2.32l0.06-0.35l0.27,0.23c0.5,0.43,1.44,1.24,0.8,2.35
			L55.25,31.43z M54.55,29.47c-0.07,0.74,0.08,1.18,0.52,1.43C55.29,30.38,55.06,29.96,54.55,29.47z"/>
	</g>
	<g>
		<path class="st2" d="M54.26,31.25c-0.62-0.76-1.51-0.56-2.37-0.27C52.63,31.44,53.46,31.8,54.26,31.25"/>
	</g>
	<g>
		<path class="st1" d="M53.4,31.73c-0.57,0-1.12-0.28-1.62-0.58l-0.37-0.23l0.41-0.13c0.88-0.29,1.88-0.53,2.59,0.34l0.14,0.17
			l-0.18,0.12C54.05,31.64,53.72,31.73,53.4,31.73z M52.39,31.04c0.51,0.26,1.04,0.41,1.55,0.17
			C53.55,30.86,53.05,30.86,52.39,31.04z"/>
	</g>
	<g>
		<path class="st2" d="M53.39,30.27c0.77-0.68,0.42-1.47-0.01-2.21C52.97,28.81,52.67,29.63,53.39,30.27"/>
	</g>
	<g>
		<path class="st1" d="M53.39,30.54l-0.13-0.12c-0.94-0.84-0.32-1.97-0.05-2.46l0.17-0.31l0.18,0.31c0.32,0.56,0.93,1.61-0.03,2.46
			L53.39,30.54z M53.38,28.49c-0.31,0.67-0.31,1.13,0,1.5C53.76,29.56,53.69,29.1,53.38,28.49z"/>
	</g>
	<g>
		<path class="st2" d="M52.73,30.25c-0.44-0.87-1.37-0.81-2.28-0.67C51.08,30.17,51.82,30.67,52.73,30.25"/>
	</g>
	<g>
		<path class="st1" d="M52.05,30.61c-0.68,0-1.25-0.43-1.74-0.88l-0.3-0.28l0.41-0.06c0.94-0.15,1.99-0.22,2.49,0.78L53,30.35
			l-0.19,0.09C52.55,30.56,52.29,30.61,52.05,30.61z M50.92,29.72c0.45,0.36,0.95,0.6,1.52,0.43
			C52.12,29.73,51.62,29.65,50.92,29.72z"/>
	</g>
	<g>
		<path class="st2" d="M52.06,29.13c0.89-0.53,0.7-1.37,0.42-2.18C51.92,27.62,51.47,28.37,52.06,29.13"/>
	</g>
	<g>
		<path class="st1" d="M52.01,29.4l-0.11-0.14c-0.77-1,0.07-2,0.42-2.43l0.23-0.27l0.12,0.33c0.21,0.61,0.61,1.75-0.5,2.41
			L52.01,29.4z M52.4,27.38c-0.44,0.61-0.52,1.06-0.29,1.48C52.56,28.5,52.58,28.03,52.4,27.38z"/>
	</g>
	<g>
		<path class="st2" d="M51.5,29.03c-0.25-0.96-1.18-1.06-2.12-1.07C49.88,28.67,50.51,29.31,51.5,29.03"/>
	</g>
	<g>
		<path class="st1" d="M51.05,29.3c-0.84,0-1.41-0.63-1.82-1.22L49,27.76l0.39,0c0.97,0.01,2.02,0.12,2.31,1.22l0.05,0.19
			l-0.19,0.05C51.37,29.28,51.21,29.3,51.05,29.3z M49.8,28.18c0.38,0.46,0.82,0.79,1.44,0.71C51.02,28.39,50.54,28.23,49.8,28.18z"
			/>
	</g>
	<g>
		<path class="st2" d="M51.37,27.3c0.96-0.43,0.87-1.29,0.68-2.12C51.42,25.78,50.87,26.48,51.37,27.3"/>
	</g>
	<g>
		<path class="st1" d="M51.29,27.55L51.2,27.4c-0.65-1.08,0.31-1.98,0.72-2.37l0.26-0.24l0.08,0.34c0.14,0.63,0.4,1.81-0.8,2.35
			L51.29,27.55z M51.93,25.59c-0.52,0.56-0.66,1-0.47,1.44C51.96,26.73,52.04,26.26,51.93,25.59z"/>
	</g>
	<g>
		<path class="st2" d="M50.99,27.66c-0.12-0.99-1.03-1.19-1.97-1.3C49.43,27.12,49.96,27.83,50.99,27.66"/>
	</g>
	<g>
		<path class="st1" d="M50.7,27.89c-0.95,0-1.48-0.75-1.84-1.43l-0.18-0.34l0.38,0.04c0.97,0.11,2.01,0.33,2.14,1.47l0.02,0.19
			l-0.19,0.03C50.91,27.88,50.8,27.89,50.7,27.89z M49.4,26.62c0.31,0.5,0.7,0.88,1.35,0.87C50.61,26.96,50.14,26.74,49.4,26.62z"/>
	</g>
	<g>
		<path class="st2" d="M50.91,25.39c1.08-0.22,1.19-1.07,1.21-1.93C51.33,23.91,50.61,24.48,50.91,25.39"/>
	</g>
	<g>
		<path class="st1" d="M50.78,25.62l-0.06-0.17c-0.4-1.2,0.79-1.87,1.3-2.16l0.31-0.17l-0.01,0.35c-0.01,0.65-0.04,1.85-1.37,2.12
			L50.78,25.62z M51.9,23.83c-0.67,0.44-0.93,0.84-0.85,1.32C51.65,24.96,51.84,24.51,51.9,23.83z"/>
	</g>
	<g>
		<path class="st2" d="M50.47,26.25c0.31-0.97-0.45-1.47-1.25-1.9C49.27,25.2,49.46,26.06,50.47,26.25"/>
	</g>
	<g>
		<path class="st1" d="M50.61,26.48l-0.17-0.03c-1.16-0.22-1.37-1.23-1.42-2.09L49,24.01l0.31,0.17c0.61,0.32,1.74,0.92,1.35,2.14
			L50.61,26.48z M49.45,24.71c0.07,0.59,0.28,1.11,0.88,1.3C50.43,25.46,50.09,25.09,49.45,24.71z"/>
	</g>
	<g>
		<path class="st2" d="M51.42,23.18c1.12,0.05,1.47-0.74,1.74-1.55C52.26,21.87,51.39,22.23,51.42,23.18"/>
	</g>
	<g>
		<path class="st1" d="M51.52,23.38c-0.04,0-0.07,0-0.11,0l-0.19-0.01l-0.01-0.19c-0.04-1.24,1.31-1.6,1.89-1.75l0.36-0.09
			l-0.11,0.35C53.08,22.51,52.69,23.38,51.52,23.38z M52.84,21.93c-0.78,0.26-1.15,0.58-1.21,1.05
			C52.26,22.94,52.58,22.56,52.84,21.93z"/>
	</g>
	<g>
		<path class="st2" d="M50.44,24.41c0.63-0.81,0.14-1.52-0.43-2.17C49.75,23.05,49.61,23.91,50.44,24.41"/>
	</g>
	<g>
		<path class="st1" d="M50.49,24.68l-0.15-0.09c-0.96-0.59-0.78-1.59-0.51-2.41l0.11-0.34l0.23,0.27c0.43,0.5,1.22,1.42,0.43,2.43
			L50.49,24.68z M50.1,22.66c-0.18,0.72-0.09,1.17,0.29,1.48C50.68,23.65,50.52,23.2,50.1,22.66z"/>
	</g>
	<g>
		<path class="st2" d="M51.98,21.49c1.11-0.06,1.37-0.88,1.54-1.72C52.66,20.1,51.84,20.55,51.98,21.49"/>
	</g>
	<g>
		<path class="st1" d="M51.81,21.7l-0.03-0.18c-0.19-1.23,1.11-1.73,1.67-1.94l0.34-0.13l-0.07,0.35c-0.12,0.63-0.36,1.81-1.73,1.88
			L51.81,21.7z M53.24,20.1c-0.74,0.33-1.07,0.69-1.08,1.17C52.79,21.18,53.06,20.77,53.24,20.1z"/>
	</g>
	<g>
		<path class="st2" d="M51.06,22.48c0.78-0.67,0.45-1.46,0.04-2.21C50.67,21.01,50.36,21.82,51.06,22.48"/>
	</g>
	<g>
		<path class="st1" d="M51.05,22.75l-0.13-0.12c-0.92-0.86-0.27-1.98,0-2.46l0.18-0.31l0.17,0.31c0.31,0.57,0.89,1.63-0.09,2.46
			L51.05,22.75z M51.1,20.7c-0.32,0.66-0.33,1.12-0.03,1.5C51.44,21.78,51.38,21.31,51.1,20.7z"/>
	</g>
	<g>
		<path class="st2" d="M58.44,32.18c0,0.13,0.12,0.23,0.27,0.23s0.27-0.1,0.27-0.23c0-0.13-0.12-0.23-0.27-0.23
			S58.44,32.05,58.44,32.18"/>
	</g>
	<g>
		<path class="st1" d="M58.71,32.61c-0.26,0-0.47-0.19-0.47-0.43s0.21-0.43,0.47-0.43c0.26,0,0.47,0.19,0.47,0.43
			S58.96,32.61,58.71,32.61z M58.71,32.15c-0.04,0-0.07,0.03-0.07,0.03s0.02,0.03,0.07,0.03c0.05,0,0.07-0.03,0.07-0.03
			S58.75,32.15,58.71,32.15z"/>
	</g>
	<g>
		<path class="st0" d="M36.28,6.73c0-0.14-0.06-0.26-0.17-0.35C36,6.3,35.86,6.27,35.73,6.31C29.4,7.98,23.8,11.8,19.95,17.08
			c-3.34,4.58-5.23,9.99-5.44,15.64c-0.01,0.24,0.18,0.45,0.42,0.46c0.19,0.02,0.35-0.1,0.42-0.27l20.38,8.8l0,0.2
			c0,0.24,0.2,0.43,0.44,0.43c0,0,0,0,0.01,0c0.24,0,0.44-0.2,0.43-0.45L36.28,6.73z"/>
	</g>
	<g>
		<path class="st1" d="M35.07,40.68c-0.16,0-0.3-0.13-0.3-0.29l-0.02-0.9L34.44,5.68c-5.99,1.68-11.29,5.35-14.95,10.37
			c-3.25,4.46-5.07,9.71-5.28,15.2c-0.01,0.16-0.14,0.29-0.31,0.29c-0.17-0.01-0.29-0.15-0.29-0.31c0.21-5.61,2.08-10.98,5.39-15.53
			c3.82-5.24,9.38-9.04,15.65-10.7c0.09-0.02,0.19,0,0.26,0.05c0.07,0.06,0.12,0.14,0.12,0.24l0.33,35.09
			C35.37,40.54,35.24,40.68,35.07,40.68C35.07,40.68,35.07,40.68,35.07,40.68z"/>
	</g>
	<g>
		<path class="st2" d="M34.66,27.58L14.51,0.3c-3.88,4.78-6.2,10.88-6.2,17.51c0,5.72,1.72,11.03,4.68,15.45
			C13.04,33.8,0.3,45.94,0.3,45.94l8.01,8l9.48-9.47h18.06c0,0,11.85,0.82,11.85-11.38v-4.62h4.98l-5.33-5.33
			c-1.42-1.36-3.11-1.86-4.73-1.86c-3.63,0-6.66,2.63-7.26,6.09c-0.07,0.42-0.15,0.92-0.15,0.92L34.66,27.58z"/>
	</g>
	<g>
		<path class="st1" d="M8.31,54.24c-0.08,0-0.15-0.03-0.21-0.09l-8.01-8C0.03,46.09,0,46.02,0,45.94c0-0.08,0.03-0.16,0.09-0.21
			c4.72-4.49,11.76-11.33,12.55-12.44c-3.03-4.59-4.63-9.94-4.63-15.47c0-6.43,2.23-12.72,6.27-17.7c0.06-0.07,0.15-0.1,0.24-0.11
			c0.09,0,0.18,0.05,0.23,0.12l20.26,27.43c0.01-0.08,0.03-0.15,0.04-0.23c0.65-3.67,3.82-6.34,7.56-6.34
			c1.91,0,3.61,0.67,4.94,1.94l5.34,5.33c0.09,0.09,0.11,0.21,0.07,0.33s-0.16,0.19-0.28,0.19h-4.68v4.32c0,3.74-1.1,6.66-3.26,8.68
			c-3.56,3.33-8.69,3.01-8.9,3l-17.92,0l-9.39,9.39C8.46,54.21,8.38,54.24,8.31,54.24z M0.73,45.94l7.58,7.57l9.27-9.26
			c0.06-0.06,0.13-0.09,0.21-0.09h18.06c0.07,0,5.11,0.31,8.48-2.84c2.04-1.9,3.07-4.67,3.07-8.24v-4.62c0-0.17,0.13-0.3,0.3-0.3
			h4.25l-4.82-4.82c-1.22-1.17-2.75-1.77-4.52-1.77c-3.44,0-6.37,2.46-6.97,5.84c-0.07,0.41-0.15,0.91-0.15,0.91
			c-0.02,0.12-0.11,0.22-0.22,0.25c-0.12,0.03-0.24-0.01-0.31-0.11l-0.53-0.71c0,0,0,0,0,0L14.5,0.79c-3.8,4.83-5.9,10.86-5.9,17.02
			c0,5.47,1.6,10.75,4.63,15.28c0.03,0.04,0.04,0.09,0.05,0.13C13.3,33.42,13.36,33.91,0.73,45.94z"/>
	</g>
	<g>
		<path class="st1" d="M43.56,24.89c0,0.25-0.2,0.45-0.45,0.45c-0.25,0-0.44-0.2-0.44-0.45c0-0.25,0.2-0.45,0.44-0.45
			C43.36,24.44,43.56,24.64,43.56,24.89"/>
	</g>
	<g>
		<path class="st1" d="M8.31,54.24c-0.08,0-0.15-0.03-0.21-0.09l-8.01-8C0.03,46.09,0,46.02,0,45.94c0-0.08,0.03-0.16,0.09-0.21
			c4.72-4.49,11.76-11.33,12.55-12.44c-3.03-4.59-4.63-9.94-4.63-15.47c0-6.43,2.23-12.72,6.27-17.7c0.06-0.07,0.15-0.1,0.24-0.11
			c0.09,0,0.18,0.05,0.23,0.12l20.26,27.43c0.01-0.08,0.03-0.15,0.04-0.23c0.65-3.67,3.82-6.34,7.56-6.34
			c1.91,0,3.61,0.67,4.94,1.94l5.34,5.33c0.09,0.09,0.11,0.21,0.07,0.33s-0.16,0.19-0.28,0.19h-4.68v4.32c0,3.74-1.1,6.66-3.26,8.68
			c-3.56,3.33-8.69,3.01-8.9,3l-17.92,0l-9.39,9.39C8.46,54.21,8.38,54.24,8.31,54.24z M0.73,45.94l7.58,7.57l9.27-9.26
			c0.06-0.06,0.13-0.09,0.21-0.09h18.06c0.07,0,5.11,0.31,8.48-2.84c2.04-1.9,3.07-4.67,3.07-8.24v-4.62c0-0.17,0.13-0.3,0.3-0.3
			h4.25l-4.82-4.82c-1.22-1.17-2.75-1.77-4.52-1.77c-3.44,0-6.37,2.46-6.97,5.84c-0.07,0.41-0.15,0.91-0.15,0.91
			c-0.02,0.12-0.11,0.22-0.22,0.25c-0.12,0.03-0.24-0.01-0.31-0.11l-0.53-0.71c0,0,0,0,0,0L14.5,0.79c-3.8,4.83-5.9,10.86-5.9,17.02
			c0,5.47,1.6,10.75,4.63,15.28c0.03,0.04,0.04,0.09,0.05,0.13C13.3,33.42,13.36,33.91,0.73,45.94z"/>
	</g>
	<g>
		<path class="st1" d="M24.81,54.24L24.81,54.24c-0.17,0-0.3-0.13-0.3-0.3l0.02-9.34c0-0.17,0.13-0.3,0.3-0.3h0
			c0.17,0,0.3,0.13,0.3,0.3l-0.02,9.34C25.11,54.11,24.98,54.24,24.81,54.24z"/>
	</g>
	<g>
		<path class="st1" d="M28.22,54.24L28.22,54.24c-0.17,0-0.3-0.13-0.3-0.3l0.02-9.34c0-0.17,0.13-0.3,0.3-0.3h0
			c0.17,0,0.3,0.13,0.3,0.3l-0.02,9.34C28.52,54.11,28.39,54.24,28.22,54.24z"/>
	</g>
</g>
</svg>
