<?xml version="1.0" encoding="utf-8"?>
<!-- Generator: Adobe Illustrator 26.0.2, SVG Export Plug-In . SVG Version: 6.00 Build 0)  -->
<svg version="1.1" id="Ebene_1" xmlns="http://www.w3.org/2000/svg" xmlns:xlink="http://www.w3.org/1999/xlink" x="0px" y="0px"
	 viewBox="0 0 177.16 75.6" style="enable-background:new 0 0 177.16 75.6;" xml:space="preserve">
<style type="text/css">
	.st0{fill:#E59C00;}
	.st1{fill:#2B2961;}
	.st2{fill:#FFFFFF;}
	.st3{clip-path:url(#SVGID_00000129186875804555795410000011095713921869417142_);}
	.st4{clip-path:url(#SVGID_00000159460342702215176230000006742683614210434738_);}
	.st5{clip-path:url(#SVGID_00000013153849429088325160000008163401705943226021_);}
	.st6{clip-path:url(#SVGID_00000014614306465758067190000014877747270472296328_);}
	.st7{clip-path:url(#SVGID_00000167356875174956892250000003530728564381390517_);}
	.st8{clip-path:url(#SVGID_00000160906106922315170880000010201805996819904949_);}
	.st9{clip-path:url(#SVGID_00000181079873391930809550000010894526560071214225_);}
	.st10{clip-path:url(#SVGID_00000139294819942087710120000016532752349072575676_);}
	.st11{clip-path:url(#SVGID_00000034085174636437454360000010495410562039174041_);}
	.st12{clip-path:url(#SVGID_00000055682463444066263200000001782269554221649794_);}
	.st13{clip-path:url(#SVGID_00000149359674238555904110000002953300176292372355_);}
	.st14{clip-path:url(#SVGID_00000050630722650718951200000017867933942002895003_);}
	.st15{clip-path:url(#SVGID_00000135680940865143852250000007956542433017501875_);}
	.st16{clip-path:url(#SVGID_00000070098948761924817900000007935360645501319557_);}
	.st17{clip-path:url(#SVGID_00000163067104510471423730000010140694115604604560_);}
	.st18{clip-path:url(#SVGID_00000047042777805564436220000007871814398005160579_);}
	.st19{clip-path:url(#SVGID_00000014601075764159949950000010959797894860831167_);}
	.st20{clip-path:url(#SVGID_00000021798380500001642210000004577778733621590148_);}
	.st21{clip-path:url(#SVGID_00000061467766656630198130000005194471476827207865_);}
	.st22{clip-path:url(#SVGID_00000087402878188641358450000009974254590802027178_);}
	.st23{clip-path:url(#SVGID_00000059278361817172805490000012981569522053167535_);}
	.st24{clip-path:url(#SVGID_00000139275821986081031050000013068054789776552854_);}
	.st25{clip-path:url(#SVGID_00000060032580405906319610000002475471604107687052_);}
	.st26{clip-path:url(#SVGID_00000064333669319629862210000012063066833662041750_);}
	.st27{clip-path:url(#SVGID_00000145026894506194513680000015658554177449532803_);}
	.st28{clip-path:url(#SVGID_00000074438983153846378790000007905677025915100089_);}
	.st29{clip-path:url(#SVGID_00000078742853527147739660000000100588953304295352_);}
	.st30{clip-path:url(#SVGID_00000034060188768184291910000015406825947025476247_);}
	.st31{clip-path:url(#SVGID_00000101795495802373626000000012176170255909747855_);}
	.st32{clip-path:url(#SVGID_00000121256701884632517610000017292300215647896225_);}
	.st33{clip-path:url(#SVGID_00000021817445843050855670000003371288730154320059_);}
	.st34{clip-path:url(#SVGID_00000067214275108168013220000017037751335377631142_);}
	.st35{clip-path:url(#SVGID_00000112613359753549738000000002681961351060139415_);}
	.st36{clip-path:url(#SVGID_00000088852333880001175790000018356191164609975230_);}
	.st37{clip-path:url(#SVGID_00000158009713715644992960000002291362578692833957_);}
	.st38{clip-path:url(#SVGID_00000008849018023535205310000012882457573670352516_);}
	.st39{clip-path:url(#SVGID_00000084504498783199512360000003622253865278962576_);}
	.st40{clip-path:url(#SVGID_00000173842610787622414770000010867963937481714320_);}
	.st41{clip-path:url(#SVGID_00000124867939848051162020000015990105911576304024_);}
	.st42{clip-path:url(#SVGID_00000074403309372517983650000008308241567612827321_);}
	.st43{clip-path:url(#SVGID_00000109712223087020830600000010824816636780337072_);}
	.st44{clip-path:url(#SVGID_00000176005224687117804950000014206051177365183417_);}
	.st45{clip-path:url(#SVGID_00000000196894322793973480000013330730141770314885_);}
	.st46{clip-path:url(#SVGID_00000113327364119639420630000007849812276272257975_);}
	.st47{clip-path:url(#SVGID_00000043432181767926312820000003638607488473905854_);}
	.st48{clip-path:url(#SVGID_00000132052609886482089750000018347587169591565455_);}
	.st49{clip-path:url(#SVGID_00000163791040410482225790000008785862073686325899_);}
	.st50{clip-path:url(#SVGID_00000127038128006716117430000005333514322966217395_);}
	.st51{clip-path:url(#SVGID_00000112620706981466080360000013754494250495382968_);}
	.st52{clip-path:url(#SVGID_00000013891384644752664450000001893830737718616767_);}
	.st53{clip-path:url(#SVGID_00000148621305859279851710000012191488523525753480_);}
	.st54{clip-path:url(#SVGID_00000120518853774266292900000013877051439058230946_);}
	.st55{clip-path:url(#SVGID_00000065068448011464518120000002645350042844778408_);}
	.st56{clip-path:url(#SVGID_00000005229551953724146860000017178889792735840924_);}
	.st57{clip-path:url(#SVGID_00000123408599859102501830000014755223311759105710_);}
	.st58{clip-path:url(#SVGID_00000067947188658210965720000006984748615116287677_);}
	.st59{clip-path:url(#SVGID_00000137125317914895358530000005963228452278727082_);}
	.st60{clip-path:url(#SVGID_00000098905658150249962850000017046092781267337391_);}
	.st61{clip-path:url(#SVGID_00000057850763849580100530000004036199331545794460_);}
	.st62{clip-path:url(#SVGID_00000000929063878535032690000002827080299794427527_);}
	.st63{clip-path:url(#SVGID_00000152958752818485516270000006189727056092358078_);}
	.st64{clip-path:url(#SVGID_00000123407897068785028750000003577266556573324955_);}
	.st65{clip-path:url(#SVGID_00000054973111871671393130000009212916144140910242_);}
	.st66{clip-path:url(#SVGID_00000073715325117221420610000017625047428400753317_);}
	.st67{clip-path:url(#SVGID_00000059998864294999014610000009034444632715143552_);}
	.st68{clip-path:url(#SVGID_00000103945622278781441920000008502647761548829358_);}
	.st69{clip-path:url(#SVGID_00000132076279161243177570000003978361108580820866_);}
	.st70{clip-path:url(#SVGID_00000003804661832486608470000007061814459719329436_);}
	.st71{clip-path:url(#SVGID_00000043446789348739149700000014641207250886842800_);}
	.st72{clip-path:url(#SVGID_00000070094502069265383540000014420033837964647100_);}
	.st73{clip-path:url(#SVGID_00000166649001718600760230000015057437401600685952_);}
	.st74{clip-path:url(#SVGID_00000076604130151511102750000012920497556533071534_);}
	.st75{clip-path:url(#SVGID_00000083047231150216070620000010967446833198717074_);}
	.st76{clip-path:url(#SVGID_00000078041828172241907610000016911573118041212288_);}
	.st77{clip-path:url(#SVGID_00000003071030074176309520000016047400338428384424_);}
	.st78{clip-path:url(#SVGID_00000163055837740984240770000011185214891525452709_);}
	.st79{clip-path:url(#SVGID_00000088095804485309542300000007930233451616765109_);}
	.st80{clip-path:url(#SVGID_00000079480054341965467400000015994353413491817622_);}
	.st81{clip-path:url(#SVGID_00000181058671537512542630000010239127517652144538_);}
	.st82{clip-path:url(#SVGID_00000132070085648424874550000007277447711934241186_);}
	.st83{fill:none;}
	.st84{clip-path:url(#SVGID_00000017514534642382033050000014456378749836372628_);}
	.st85{clip-path:url(#SVGID_00000121247926808147199300000015971043102887923128_);}
	.st86{clip-path:url(#SVGID_00000020357956207614632040000015428879134869370036_);}
	.st87{clip-path:url(#SVGID_00000138571556338667242450000017273094142414924463_);}
	.st88{clip-path:url(#SVGID_00000102540969497465141190000007019109970119349686_);}
	.st89{clip-path:url(#SVGID_00000092417265231364768320000003679667558796638085_);}
	.st90{clip-path:url(#SVGID_00000116228090493127440550000017507513035456969387_);}
	.st91{clip-path:url(#SVGID_00000156576887170840576040000013210615934662647997_);}
	.st92{clip-path:url(#SVGID_00000170979627450415306290000012176010006044001687_);}
	.st93{clip-path:url(#SVGID_00000130608469103729015410000004748335063417291955_);}
	.st94{clip-path:url(#SVGID_00000139264781109523657880000001966436541231050930_);}
	.st95{clip-path:url(#SVGID_00000041269727612788195600000007873806613876995995_);}
	.st96{clip-path:url(#SVGID_00000029020456101381775240000013461590083628433838_);}
	.st97{clip-path:url(#SVGID_00000022532262368673909860000009698476862066567809_);}
	.st98{clip-path:url(#SVGID_00000039114879463909076340000015761904335880882615_);}
	.st99{clip-path:url(#SVGID_00000166644914939877033130000014434590305207339191_);}
	.st100{clip-path:url(#SVGID_00000017504770348632068220000017299315683894945162_);}
	.st101{clip-path:url(#SVGID_00000129178514519731924800000008230377335113318040_);}
	.st102{clip-path:url(#SVGID_00000091715251802067622780000002803918268358509967_);}
	.st103{clip-path:url(#SVGID_00000031172631292362734190000011981172397902753154_);}
	.st104{clip-path:url(#SVGID_00000105396484757443445320000016584795302673842582_);}
	.st105{clip-path:url(#SVGID_00000018927097132564358110000015710240608447059620_);}
	.st106{clip-path:url(#SVGID_00000165233467599126192500000015535697225806154661_);}
	.st107{clip-path:url(#SVGID_00000060005710458296614080000017374063678801520796_);}
	.st108{clip-path:url(#SVGID_00000095313823500799316500000007923188400846068135_);}
	.st109{clip-path:url(#SVGID_00000010288713512113094080000011851436042622822306_);}
	.st110{clip-path:url(#SVGID_00000029012700102317411710000011915824868807957640_);}
	.st111{clip-path:url(#SVGID_00000005965729206290937930000011568591471275009421_);}
	.st112{clip-path:url(#SVGID_00000065032494368875780380000009767242444884773311_);}
	.st113{clip-path:url(#SVGID_00000128481922327661465470000001151668404368801161_);}
	.st114{clip-path:url(#SVGID_00000085225591693913090730000013218727980842613177_);}
	.st115{clip-path:url(#SVGID_00000107571614108214080130000006450405343548938378_);}
	.st116{clip-path:url(#SVGID_00000155857228031295325800000006219607236228419484_);}
	.st117{clip-path:url(#SVGID_00000053516119387220810150000003557295638901226909_);}
	.st118{clip-path:url(#SVGID_00000011014075453041833370000002492780785345684622_);}
	.st119{clip-path:url(#SVGID_00000108990792871135653770000014549169062805551260_);}
	.st120{clip-path:url(#SVGID_00000089538757488442487370000001392449685247234715_);}
	.st121{clip-path:url(#SVGID_00000070807747966735616620000015626921203218017193_);}
	.st122{clip-path:url(#SVGID_00000162309946685862400690000014947297120241756813_);}
	.st123{clip-path:url(#SVGID_00000086662941309495158800000014059500795705422737_);}
	.st124{clip-path:url(#SVGID_00000170243210952913584320000007960420833741322405_);}
	.st125{clip-path:url(#SVGID_00000129183287664774548770000006929868354830313613_);}
	.st126{clip-path:url(#SVGID_00000121982957733339720440000006349531605318580096_);}
	.st127{clip-path:url(#SVGID_00000112630663585364634350000005535222738918759569_);}
	.st128{clip-path:url(#SVGID_00000041985506624519163120000016614702258351937938_);}
	.st129{clip-path:url(#SVGID_00000103984298164262692670000002502293496590369165_);}
	.st130{clip-path:url(#SVGID_00000119836821762603497320000008009594151274784929_);}
	.st131{clip-path:url(#SVGID_00000042711329285462301070000002532422558805791155_);}
	.st132{clip-path:url(#SVGID_00000066512538686337528450000013838298129893978516_);}
	.st133{clip-path:url(#SVGID_00000119082917008509874160000005112752341764748475_);}
	.st134{clip-path:url(#SVGID_00000031926841572992932150000015260345349686889896_);}
	.st135{clip-path:url(#SVGID_00000173854523292389908990000010787887812545280139_);}
	.st136{clip-path:url(#SVGID_00000021835672017600101900000015725950691227689887_);}
	.st137{clip-path:url(#SVGID_00000058584311556323693080000014740684521236351389_);}
	.st138{clip-path:url(#SVGID_00000085224976712813376390000015281006125539813248_);}
	.st139{clip-path:url(#SVGID_00000127758734229968626790000007459939851261419150_);}
	.st140{clip-path:url(#SVGID_00000145057682022911501250000013327113475576712583_);}
	.st141{clip-path:url(#SVGID_00000014596441348758897910000014214564685679850671_);}
	.st142{clip-path:url(#SVGID_00000065034471606130268590000000642959622059849662_);}
	.st143{clip-path:url(#SVGID_00000151537605133845769440000012424524260066672816_);}
	.st144{clip-path:url(#SVGID_00000089559519052596527440000007216046784972501176_);}
	.st145{clip-path:url(#SVGID_00000085940274760230563580000013711557311683135662_);}
	.st146{clip-path:url(#SVGID_00000018196224321561871830000007049766559560121493_);}
	.st147{clip-path:url(#SVGID_00000163781520610685626400000005507590330774320797_);}
	.st148{clip-path:url(#SVGID_00000090254329742659985660000007405878131290438035_);}
	.st149{clip-path:url(#SVGID_00000093173541989751364800000003688996262303268258_);}
	.st150{clip-path:url(#SVGID_00000141440618152701424290000013659941987122836918_);}
	.st151{clip-path:url(#SVGID_00000074426449873584350470000004855391027640874160_);}
	.st152{clip-path:url(#SVGID_00000159460163455151785490000003938841553068424098_);}
	.st153{clip-path:url(#SVGID_00000178912051666861797170000011335027202976971437_);}
	.st154{clip-path:url(#SVGID_00000093899035984990145620000008725439231672416386_);}
	.st155{clip-path:url(#SVGID_00000143607128858229414800000016128194122255976623_);}
	.st156{clip-path:url(#SVGID_00000067938776168714968110000009685349503548036010_);}
	.st157{clip-path:url(#SVGID_00000039854833978919340190000014979480856058327427_);}
	.st158{clip-path:url(#SVGID_00000048496081552738127240000017793139407644714161_);}
	.st159{clip-path:url(#SVGID_00000043443737990708581370000006960284756265323191_);}
	.st160{clip-path:url(#SVGID_00000080897634130246225620000017308035043878004130_);}
	.st161{clip-path:url(#SVGID_00000032623039112057958640000015601694856771104915_);}
	.st162{clip-path:url(#SVGID_00000070117180036314059310000004481483887985090698_);}
	.st163{clip-path:url(#SVGID_00000132049893175440535480000000865821598719345597_);}
	.st164{clip-path:url(#SVGID_00000021081162443517726180000002706426488212046254_);}
	.st165{clip-path:url(#SVGID_00000101825100637171609880000004703324211960669590_);}
	.st166{clip-path:url(#SVGID_00000065064116894423727630000018137175630114544020_);}
	.st167{clip-path:url(#SVGID_00000110467978278350110030000014188622153890584489_);}
	.st168{clip-path:url(#SVGID_00000171685213787598829300000012269128132128091785_);}
	.st169{clip-path:url(#SVGID_00000057136055363378881740000013240312056043958450_);}
	.st170{clip-path:url(#SVGID_00000174591245149833939920000005366247402476471970_);}
	.st171{clip-path:url(#SVGID_00000099654670685953182400000003860038448319326132_);}
	.st172{clip-path:url(#SVGID_00000140729019700883470470000004583737263117865902_);}
	.st173{clip-path:url(#SVGID_00000158026768480785813170000012874555087557055405_);}
	.st174{clip-path:url(#SVGID_00000109720888509030707100000015931586850429267612_);}
	.st175{clip-path:url(#SVGID_00000144299258750723770070000008608408461944930492_);}
	.st176{clip-path:url(#SVGID_00000089569759027209631690000008593245519634064259_);}
	.st177{clip-path:url(#SVGID_00000021091388638662737750000015680743318856291462_);}
	.st178{clip-path:url(#SVGID_00000045597694388139419130000018327304362658790292_);}
	.st179{clip-path:url(#SVGID_00000111175589526922284210000007354235988479862974_);}
	.st180{clip-path:url(#SVGID_00000116941407221337888150000017540755367760495000_);}
	.st181{clip-path:url(#SVGID_00000063594721255664064300000000355617930793309109_);}
	.st182{clip-path:url(#SVGID_00000117649622051506777250000003258837931118193539_);}
	.st183{clip-path:url(#SVGID_00000168093939657697095750000016519688426130927028_);}
	.st184{clip-path:url(#SVGID_00000181793540688382165750000013295766384317343120_);}
	.st185{clip-path:url(#SVGID_00000166654637306504972600000004017963638979521212_);}
	.st186{clip-path:url(#SVGID_00000125571382780317494360000009390752789519067020_);}
</style>
<g>
	<g>
		<g>
			<polygon class="st2" points="117.89,15.97 117.89,19.23 117.89,75.3 176.86,75.3 176.86,16.7 150.81,16.7 150.68,16.63 
				133.81,0.42 			"/>
		</g>
	</g>
	<g>
		<g>
			<g>
				<path class="st1" d="M177.16,75.6h-59.58l0-59.75l0.09-0.09L133.81,0l17.07,16.4h26.29L177.16,75.6z M118.19,75h58.38l0-58
					h-25.75v-0.51l-0.34,0.36L133.81,0.84L118.19,16.1l0,3.13V75z"/>
			</g>
		</g>
	</g>
	<g>
		<g>
			<polygon class="st0" points="119.77,14.24 119.77,30.12 133.84,16.05 150.44,32.28 150.9,17 133.84,0.89 119.77,13.88 			"/>
		</g>
	</g>
	<g>
		<g>
			<rect x="152.97" y="17.13" class="st0" width="23.81" height="15.51"/>
		</g>
	</g>
	<g>
		<g>
			<g>
				<path class="st1" d="M177.16,75.6h-59.58l0-59.75l0.09-0.09L133.81,0l17.07,16.4h26.29L177.16,75.6z M118.19,75h58.38l0-58
					h-25.75v-0.51l-0.34,0.36L133.81,0.84L118.19,16.1l0,3.13V75z"/>
			</g>
		</g>
	</g>
	<g>
		<g>
			<path class="st1" d="M143.93,61.73c-0.17,0-0.3-0.13-0.3-0.3v-3.48c0-0.17,0.13-0.3,0.3-0.3s0.3,0.13,0.3,0.3v3.48
				C144.23,61.6,144.1,61.73,143.93,61.73z M138.14,61.73c-0.17,0-0.3-0.13-0.3-0.3v-3.48c0-0.17,0.13-0.3,0.3-0.3s0.3,0.13,0.3,0.3
				v3.48C138.44,61.6,138.3,61.73,138.14,61.73z M132.34,61.73c-0.17,0-0.3-0.13-0.3-0.3v-3.48c0-0.17,0.13-0.3,0.3-0.3
				s0.3,0.13,0.3,0.3v3.48C132.64,61.6,132.51,61.73,132.34,61.73z M126.55,61.73c-0.17,0-0.3-0.13-0.3-0.3v-3.48
				c0-0.17,0.13-0.3,0.3-0.3s0.3,0.13,0.3,0.3v3.48C126.85,61.6,126.71,61.73,126.55,61.73z M170.12,52.93c-0.17,0-0.3-0.13-0.3-0.3
				v-3.48c0-0.17,0.13-0.3,0.3-0.3s0.3,0.13,0.3,0.3v3.48C170.42,52.8,170.29,52.93,170.12,52.93z M164.32,52.93
				c-0.17,0-0.3-0.13-0.3-0.3v-3.48c0-0.17,0.13-0.3,0.3-0.3s0.3,0.13,0.3,0.3v3.48C164.62,52.8,164.49,52.93,164.32,52.93z
				 M158.53,52.93c-0.17,0-0.3-0.13-0.3-0.3v-3.48c0-0.17,0.13-0.3,0.3-0.3s0.3,0.13,0.3,0.3v3.48
				C158.83,52.8,158.69,52.93,158.53,52.93z M152.73,52.93c-0.17,0-0.3-0.13-0.3-0.3v-3.48c0-0.17,0.13-0.3,0.3-0.3
				s0.3,0.13,0.3,0.3v3.48C153.03,52.8,152.9,52.93,152.73,52.93z M143.93,52.93c-0.17,0-0.3-0.13-0.3-0.3v-3.48
				c0-0.17,0.13-0.3,0.3-0.3s0.3,0.13,0.3,0.3v3.48C144.23,52.8,144.1,52.93,143.93,52.93z M138.14,52.93c-0.17,0-0.3-0.13-0.3-0.3
				v-3.48c0-0.17,0.13-0.3,0.3-0.3s0.3,0.13,0.3,0.3v3.48C138.44,52.8,138.3,52.93,138.14,52.93z M132.34,52.93
				c-0.17,0-0.3-0.13-0.3-0.3v-3.48c0-0.17,0.13-0.3,0.3-0.3s0.3,0.13,0.3,0.3v3.48C132.64,52.8,132.51,52.93,132.34,52.93z
				 M126.55,52.93c-0.17,0-0.3-0.13-0.3-0.3v-3.48c0-0.17,0.13-0.3,0.3-0.3s0.3,0.13,0.3,0.3v3.48
				C126.85,52.8,126.71,52.93,126.55,52.93z M170.12,43.76c-0.17,0-0.3-0.13-0.3-0.3v-3.48c0-0.17,0.13-0.3,0.3-0.3
				s0.3,0.13,0.3,0.3v3.48C170.42,43.63,170.29,43.76,170.12,43.76z M164.32,43.76c-0.17,0-0.3-0.13-0.3-0.3v-3.48
				c0-0.17,0.13-0.3,0.3-0.3s0.3,0.13,0.3,0.3v3.48C164.62,43.63,164.49,43.76,164.32,43.76z M158.53,43.76
				c-0.17,0-0.3-0.13-0.3-0.3v-3.48c0-0.17,0.13-0.3,0.3-0.3s0.3,0.13,0.3,0.3v3.48C158.83,43.63,158.69,43.76,158.53,43.76z
				 M152.73,43.76c-0.17,0-0.3-0.13-0.3-0.3v-3.48c0-0.17,0.13-0.3,0.3-0.3s0.3,0.13,0.3,0.3v3.48
				C153.03,43.63,152.9,43.76,152.73,43.76z M143.93,43.76c-0.17,0-0.3-0.13-0.3-0.3v-3.48c0-0.17,0.13-0.3,0.3-0.3
				s0.3,0.13,0.3,0.3v3.48C144.23,43.63,144.1,43.76,143.93,43.76z M138.14,43.76c-0.17,0-0.3-0.13-0.3-0.3v-3.48
				c0-0.17,0.13-0.3,0.3-0.3s0.3,0.13,0.3,0.3v3.48C138.44,43.63,138.3,43.76,138.14,43.76z M132.34,43.76c-0.17,0-0.3-0.13-0.3-0.3
				v-3.48c0-0.17,0.13-0.3,0.3-0.3s0.3,0.13,0.3,0.3v3.48C132.64,43.63,132.51,43.76,132.34,43.76z M126.55,43.76
				c-0.17,0-0.3-0.13-0.3-0.3v-3.48c0-0.17,0.13-0.3,0.3-0.3s0.3,0.13,0.3,0.3v3.48C126.85,43.63,126.71,43.76,126.55,43.76z"/>
		</g>
	</g>
	<g>
		<g>
			<g>
				<polygon class="st1" points="176.78,32.89 150.52,32.89 133.99,16.8 118.33,32.04 117.91,31.62 133.78,16.17 133.5,0.54 
					134.1,0.53 134.39,16.35 150.45,31.98 150.48,16.45 151.08,16.45 151.05,32.29 176.78,32.29 				"/>
			</g>
		</g>
		<g>
			<g>
				<path class="st1" d="M161.89,74.9c-0.16,0-0.28-0.13-0.28-0.28v-6.77c0-0.16,0.13-0.28,0.28-0.28s0.28,0.13,0.28,0.28v6.77
					C162.17,74.77,162.04,74.9,161.89,74.9z"/>
			</g>
		</g>
	</g>
	<g>
		<g>
			<polygon class="st0" points="31.31,42.75 39.99,51.66 40.29,34.14 			"/>
		</g>
	</g>
	<g>
		<g>
			<path class="st0" d="M39.99,51.79c-0.03,0-0.07-0.01-0.09-0.04l-8.68-8.92c-0.02-0.02-0.04-0.06-0.04-0.09
				c0-0.03,0.01-0.07,0.04-0.09l8.99-8.61c0.04-0.03,0.09-0.04,0.14-0.02c0.05,0.02,0.08,0.07,0.07,0.12l-0.31,17.53
				c0,0.05-0.03,0.1-0.08,0.11C40.02,51.78,40,51.79,39.99,51.79z M31.48,42.75l8.38,8.61l0.3-16.93L31.48,42.75z"/>
		</g>
	</g>
	<g>
		<g>
			<polygon class="st0" points="65.79,43.35 74.47,52.26 74.77,34.74 			"/>
		</g>
	</g>
	<g>
		<g>
			<path class="st0" d="M74.47,52.39c-0.03,0-0.07-0.01-0.09-0.04l-8.68-8.92c-0.02-0.02-0.04-0.06-0.04-0.09
				c0-0.03,0.01-0.07,0.04-0.09l8.99-8.61c0.04-0.03,0.09-0.04,0.14-0.02c0.05,0.02,0.08,0.07,0.07,0.12l-0.31,17.53
				c0,0.05-0.03,0.1-0.08,0.11C74.5,52.39,74.48,52.39,74.47,52.39z M65.96,43.35l8.38,8.61l0.3-16.93L65.96,43.35z"/>
		</g>
	</g>
	<g>
		<g>
			<polygon class="st0" points="48.55,43.05 57.23,51.96 57.53,34.44 			"/>
		</g>
	</g>
	<g>
		<g>
			<path class="st0" d="M57.23,52.09c-0.03,0-0.07-0.01-0.09-0.04l-8.68-8.92c-0.02-0.02-0.04-0.06-0.04-0.09
				c0-0.03,0.01-0.07,0.04-0.09l8.99-8.61c0.04-0.03,0.09-0.04,0.14-0.02c0.05,0.02,0.08,0.07,0.07,0.12l-0.31,17.53
				c0,0.05-0.03,0.1-0.08,0.11C57.26,52.09,57.24,52.09,57.23,52.09z M48.72,43.05l8.38,8.61l0.3-16.93L48.72,43.05z"/>
		</g>
	</g>
	<g>
		<g>
			<g>
				<path class="st2" d="M23.54,34.87c0-6.59-5.26-12.45-11.66-12.45S0.3,28.29,0.3,34.87v28.42h23.16L23.54,34.87z"/>
			</g>
		</g>
		<g>
			<g>
				<path class="st1" d="M23.46,63.59H0.3c-0.17,0-0.3-0.13-0.3-0.3V34.87c0-6.91,5.44-12.75,11.88-12.75
					c6.48,0,11.96,5.84,11.96,12.75c0,0,0,0,0,0l-0.08,28.42C23.76,63.46,23.63,63.59,23.46,63.59z M0.6,62.99h22.56l0.08-28.12
					c0-6.58-5.2-12.15-11.36-12.15c-6.11,0-11.28,5.56-11.28,12.15V62.99z"/>
			</g>
		</g>
	</g>
	<g>
		<g>
			<path class="st1" d="M4.75,19.1c-0.08,0-0.15-0.03-0.21-0.08c-0.12-0.11-0.12-0.3-0.01-0.42l2.6-2.7
				c0.11-0.12,0.3-0.12,0.42-0.01c0.12,0.11,0.12,0.3,0.01,0.42l-2.6,2.7C4.91,19.07,4.83,19.1,4.75,19.1z"/>
		</g>
	</g>
	<g>
		<g>
			<path class="st1" d="M19.09,19.1c-0.08,0-0.16-0.03-0.22-0.09l-2.6-2.7c-0.12-0.12-0.11-0.31,0.01-0.42
				c0.12-0.12,0.31-0.11,0.42,0.01l2.6,2.7c0.12,0.12,0.11,0.31-0.01,0.42C19.24,19.08,19.17,19.1,19.09,19.1z"/>
		</g>
	</g>
	<g>
		<g>
			<g>
				<path class="st2" d="M17.83,12.97c0,3.36-2.64,6.08-5.9,6.08c-3.26,0-5.9-2.72-5.9-6.08s2.64-6.08,5.9-6.08
					C15.19,6.89,17.83,9.61,17.83,12.97"/>
			</g>
		</g>
		<g>
			<g>
				<path class="st1" d="M11.93,19.35c-3.42,0-6.2-2.86-6.2-6.38s2.78-6.38,6.2-6.38c3.42,0,6.2,2.86,6.2,6.38
					S15.35,19.35,11.93,19.35z M11.93,7.19c-3.09,0-5.6,2.59-5.6,5.78s2.51,5.78,5.6,5.78c3.09,0,5.6-2.59,5.6-5.78
					S15.02,7.19,11.93,7.19z"/>
			</g>
		</g>
	</g>
	<g>
		<g>
			<rect x="2.14" y="51.51" class="st0" width="21.14" height="11.78"/>
		</g>
	</g>
	<g>
		<g>
			<path class="st0" d="M23.28,63.42H2.14c-0.07,0-0.12-0.06-0.12-0.12V51.51c0-0.07,0.06-0.12,0.12-0.12h21.14
				c0.07,0,0.12,0.06,0.12,0.12v11.78C23.4,63.36,23.35,63.42,23.28,63.42z M2.26,63.17h20.89V51.63H2.26V63.17z"/>
		</g>
	</g>
	<g>
		<g>
			<g>
				<rect x="0.44" y="51.43" class="st1" width="22.76" height="0.4"/>
			</g>
		</g>
		<g>
			<g>
				<path class="st0" d="M17.34,11.27c-0.62-2.26-2.51-3.9-4.74-3.9s-4.12,1.64-4.74,3.9H17.34z"/>
			</g>
		</g>
		<g>
			<g>
				<path class="st0" d="M17.34,11.4H7.86c-0.04,0-0.08-0.02-0.1-0.05c-0.02-0.03-0.03-0.07-0.02-0.11
					c0.65-2.39,2.61-3.99,4.86-3.99c2.25,0,4.21,1.6,4.86,3.99c0.01,0.04,0,0.08-0.02,0.11C17.41,11.38,17.38,11.4,17.34,11.4z
					 M8.02,11.15h9.15C16.51,8.96,14.69,7.5,12.6,7.5S8.69,8.96,8.02,11.15z"/>
			</g>
		</g>
		<g>
			<g>
				<path class="st1" d="M11.93,19.35c-3.42,0-6.2-2.86-6.2-6.38s2.78-6.38,6.2-6.38c3.42,0,6.2,2.86,6.2,6.38
					S15.35,19.35,11.93,19.35z M11.93,7.19c-3.09,0-5.6,2.59-5.6,5.78s2.51,5.78,5.6,5.78c3.09,0,5.6-2.59,5.6-5.78
					S15.02,7.19,11.93,7.19z"/>
			</g>
		</g>
	</g>
	<g>
		<g>
			<rect x="6.22" y="10.82" class="st1" width="11.43" height="0.4"/>
		</g>
	</g>
	<g>
		<g>
			<g>
				<path class="st1" d="M10.21,13.56c0,0.17-0.13,0.31-0.3,0.31c-0.16,0-0.3-0.14-0.3-0.31c0-0.17,0.13-0.31,0.3-0.31
					C10.08,13.26,10.21,13.39,10.21,13.56"/>
			</g>
		</g>
		<g>
			<g>
				<path class="st1" d="M14.25,13.56c0,0.17-0.13,0.31-0.3,0.31c-0.16,0-0.3-0.14-0.3-0.31c0-0.17,0.13-0.31,0.3-0.31
					C14.12,13.26,14.25,13.39,14.25,13.56"/>
			</g>
		</g>
		<g>
			<g>
				<path class="st1" d="M18.1,75.6c-0.17,0-0.3-0.13-0.3-0.3V63.56c0-0.17,0.13-0.3,0.3-0.3s0.3,0.13,0.3,0.3V75.3
					C18.4,75.47,18.26,75.6,18.1,75.6z M5.67,75.6c-0.17,0-0.3-0.13-0.3-0.3V63.56c0-0.17,0.13-0.3,0.3-0.3s0.3,0.13,0.3,0.3V75.3
					C5.97,75.47,5.83,75.6,5.67,75.6z M17.79,44.66c-0.17,0-0.3-0.13-0.3-0.3V32.62c0-0.17,0.13-0.3,0.3-0.3s0.3,0.13,0.3,0.3v11.74
					C18.09,44.53,17.96,44.66,17.79,44.66z M6.05,44.66c-0.17,0-0.3-0.13-0.3-0.3V32.62c0-0.17,0.13-0.3,0.3-0.3s0.3,0.13,0.3,0.3
					v11.74C6.35,44.53,6.21,44.66,6.05,44.66z"/>
			</g>
		</g>
		<g>
			<g>
				<path class="st1" d="M23.46,63.59H0.3c-0.17,0-0.3-0.13-0.3-0.3V34.87c0-6.91,5.44-12.75,11.88-12.75
					c6.48,0,11.96,5.84,11.96,12.75c0,0,0,0,0,0l-0.08,28.42C23.76,63.46,23.63,63.59,23.46,63.59z M0.6,62.99h22.56l0.08-28.12
					c0-6.58-5.2-12.15-11.36-12.15c-6.11,0-11.28,5.56-11.28,12.15V62.99z"/>
			</g>
		</g>
		<g>
			<g>
				<path class="st0" d="M124.03,30.78h-17.81l-3.06,2.97l-4.38-2.97H82.14v25.14h19.41c0.37,0.43,0.92,0.7,1.53,0.7
					c0.61,0,1.16-0.27,1.53-0.7h19.41V30.78z"/>
			</g>
		</g>
		<g>
			<g>
				<path class="st0" d="M103.09,56.75c-0.61,0-1.18-0.26-1.59-0.7H82.14c-0.07,0-0.12-0.06-0.12-0.12V30.78
					c0-0.07,0.06-0.12,0.12-0.12h16.64c0.02,0,0.05,0.01,0.07,0.02l4.29,2.92l2.99-2.9c0.02-0.02,0.05-0.04,0.09-0.04h17.81
					c0.07,0,0.12,0.06,0.12,0.12v25.14c0,0.07-0.06,0.12-0.12,0.12h-19.36C104.27,56.49,103.69,56.75,103.09,56.75z M82.26,55.79
					h19.29c0.04,0,0.07,0.02,0.09,0.04c0.36,0.42,0.89,0.66,1.44,0.66c0.55,0,1.08-0.24,1.44-0.66c0.02-0.03,0.06-0.04,0.09-0.04
					h19.29V30.9h-17.64l-3.03,2.94c-0.04,0.04-0.11,0.05-0.16,0.01l-4.35-2.95H82.26V55.79z"/>
			</g>
		</g>
		<g>
			<g>
				<path class="st1" d="M102.65,56.48c-0.62,0-1.22-0.25-1.65-0.7H81.78c-0.16,0-0.29-0.13-0.29-0.29v-25
					c0-0.16,0.13-0.29,0.29-0.29h16.58c0.06,0,0.11,0.02,0.16,0.05l4.17,2.83l2.89-2.8c0.05-0.05,0.12-0.08,0.2-0.08h17.75
					c0.16,0,0.29,0.13,0.29,0.29v25c0,0.16-0.13,0.29-0.29,0.29h-19.22C103.87,56.23,103.28,56.48,102.65,56.48z M82.07,55.21h19.06
					c0.08,0,0.16,0.04,0.22,0.1c0.66,0.77,1.96,0.76,2.62,0c0.05-0.06,0.13-0.1,0.22-0.1h19.06V30.79h-17.35l-2.97,2.88
					c-0.1,0.09-0.25,0.11-0.36,0.03l-4.29-2.91H82.07V55.21z"/>
			</g>
		</g>
	</g>
	<g>
		<g>
			<rect x="83.04" y="31.73" class="st2" width="19.47" height="23"/>
		</g>
	</g>
	<g>
		<g>
			<path class="st1" d="M102.52,55.01H83.04c-0.16,0-0.29-0.13-0.29-0.29v-23c0-0.16,0.13-0.29,0.29-0.29h19.47
				c0.16,0,0.29,0.13,0.29,0.29v23C102.8,54.89,102.67,55.01,102.52,55.01z M83.33,54.44h18.9V32.02h-18.9V54.44z"/>
		</g>
	</g>
	<g>
		<g>
			<rect x="102.86" y="31.73" class="st2" width="19.47" height="23"/>
		</g>
	</g>
	<g>
		<g>
			<path class="st1" d="M122.33,55.02h-19.47c-0.16,0-0.29-0.13-0.29-0.29v-23c0-0.16,0.13-0.29,0.29-0.29h19.47
				c0.16,0,0.29,0.13,0.29,0.29v23C122.62,54.89,122.49,55.02,122.33,55.02z M103.15,54.45h18.9V32.02h-18.9V54.45z"/>
		</g>
	</g>
	<g>
		<g>
			<g>
				<path class="st2" d="M102.52,32.12c-1.53-1.71-4.49-3.11-8.03-3.58c-3.82-0.51-7.28,0.2-9.12,1.66v22.61
					c1.84-1.46,5.3-2.17,9.12-1.66c3.54,0.47,6.51,1.88,8.03,3.58V32.12z"/>
			</g>
		</g>
		<g>
			<g>
				<path class="st1" d="M102.52,55.02c-0.08,0-0.16-0.03-0.21-0.1c-1.53-1.71-4.54-3.05-7.86-3.49c-3.64-0.49-7.05,0.13-8.9,1.6
					c-0.08,0.07-0.2,0.08-0.3,0.03c-0.1-0.05-0.16-0.15-0.16-0.26V30.2c0-0.09,0.04-0.17,0.11-0.22c1.97-1.57,5.54-2.22,9.33-1.72
					c3.5,0.47,6.57,1.84,8.21,3.68c0.05,0.05,0.07,0.12,0.07,0.19v22.61c0,0.12-0.07,0.22-0.18,0.27
					C102.58,55.01,102.55,55.02,102.52,55.02z M92.04,50.7c0.81,0,1.64,0.05,2.48,0.17c3.17,0.42,5.99,1.59,7.71,3.17V32.23
					c-1.55-1.67-4.52-2.98-7.79-3.41c-3.57-0.48-6.92,0.1-8.79,1.52v21.91C87.2,51.24,89.49,50.7,92.04,50.7z"/>
			</g>
		</g>
		<g>
			<g>
				<path class="st2" d="M102.79,32.12c0.23-0.26,0.49-0.51,0.79-0.75c1.65-1.36,4.24-2.43,7.25-2.83c3.82-0.51,7.28,0.2,9.12,1.66
					v22.61c-1.84-1.46-5.3-2.17-9.12-1.66c-3.54,0.47-6.51,1.88-8.03,3.58V32.12z"/>
			</g>
		</g>
		<g>
			<g>
				<path class="st1" d="M102.79,55.02c-0.03,0-0.07-0.01-0.1-0.02c-0.11-0.04-0.18-0.15-0.18-0.27V32.12
					c0-0.07,0.03-0.14,0.07-0.19c0.24-0.27,0.51-0.53,0.82-0.78c1.75-1.45,4.45-2.5,7.39-2.9c3.79-0.5,7.36,0.15,9.33,1.72
					c0.07,0.05,0.11,0.14,0.11,0.22v22.61c0,0.11-0.06,0.21-0.16,0.26c-0.1,0.05-0.22,0.03-0.3-0.03c-1.85-1.47-5.26-2.09-8.9-1.6
					c-3.32,0.44-6.33,1.78-7.86,3.49C102.95,54.98,102.87,55.02,102.79,55.02z M103.08,32.23v21.81c1.72-1.58,4.54-2.75,7.71-3.17
					c3.51-0.47,6.83,0.06,8.87,1.39V30.34c-1.87-1.41-5.22-1.99-8.79-1.52c-2.84,0.38-5.43,1.39-7.1,2.77
					C103.51,31.8,103.28,32.01,103.08,32.23z"/>
			</g>
		</g>
	</g>
	<g>
		<g>
			<polygon class="st2" points="103.19,45.47 102.67,44.24 102.15,45.47 102.15,31.47 103.19,31.47 			"/>
		</g>
	</g>
	<g>
		<g>
			<polygon class="st0" points="103.45,45.5 102.94,44.27 102.42,45.5 102.42,31.5 103.45,31.5 			"/>
		</g>
	</g>
	<g>
		<g>
			<path class="st1" d="M102.29,45.62c-0.01,0-0.03,0-0.04,0c-0.14-0.02-0.24-0.14-0.24-0.28V31.61c0-0.16,0.13-0.29,0.29-0.29h0.76
				c0.16,0,0.29,0.13,0.29,0.29v13.73c0,0.14-0.1,0.26-0.24,0.28c-0.14,0.02-0.27-0.06-0.32-0.2l-0.11-0.34l-0.11,0.34
				C102.52,45.54,102.41,45.62,102.29,45.62z M102.58,31.9v11.96c0.03-0.01,0.06-0.02,0.09-0.02l0,0c0.03,0,0.06,0.01,0.09,0.02
				V31.9H102.58z"/>
		</g>
	</g>
	<g>
		<g>
			<g>
				<path class="st2" d="M102.52,31.39c-1.53-1.71-4.49-3.11-8.03-3.59c-3.82-0.51-7.28,0.2-9.12,1.66v22.62
					c1.84-1.46,5.3-2.17,9.12-1.66c3.54,0.47,6.51,2.54,8.03,4.25V31.39z"/>
			</g>
		</g>
		<g>
			<g>
				<path class="st1" d="M102.52,54.95c-0.08,0-0.16-0.03-0.21-0.1c-1.45-1.63-4.38-3.69-7.86-4.15c-3.64-0.49-7.05,0.13-8.9,1.6
					c-0.08,0.07-0.2,0.08-0.3,0.03c-0.1-0.05-0.16-0.15-0.16-0.26V29.46c0-0.09,0.04-0.17,0.11-0.22c1.97-1.57,5.54-2.22,9.33-1.72
					c3.5,0.47,6.57,1.84,8.21,3.68c0.05,0.05,0.07,0.12,0.07,0.19v23.28c0,0.12-0.07,0.22-0.18,0.27
					C102.58,54.95,102.55,54.95,102.52,54.95z M92.04,49.97c0.81,0,1.64,0.05,2.48,0.17c3.27,0.44,6.08,2.23,7.71,3.82V31.5
					c-1.55-1.67-4.52-2.98-7.79-3.41c-3.57-0.48-6.92,0.1-8.79,1.52v21.92C87.2,50.52,89.49,49.97,92.04,49.97z"/>
			</g>
		</g>
		<g>
			<g>
				<path class="st2" d="M102.79,31.39c0.23-0.26,0.49-0.51,0.79-0.75c1.65-1.36,4.24-2.43,7.25-2.83c3.82-0.51,7.28,0.2,9.12,1.66
					v22.62c-1.84-1.46-5.3-2.17-9.12-1.66c-3.54,0.47-6.51,2.56-8.03,4.27V31.39z"/>
			</g>
		</g>
		<g>
			<g>
				<path class="st1" d="M102.79,54.98c-0.03,0-0.07-0.01-0.1-0.02c-0.11-0.04-0.18-0.15-0.18-0.27v-23.3
					c0-0.07,0.03-0.14,0.07-0.19c0.24-0.27,0.51-0.53,0.82-0.78c1.75-1.45,4.45-2.5,7.39-2.9c3.79-0.51,7.37,0.15,9.33,1.72
					c0.07,0.05,0.11,0.14,0.11,0.22v22.62c0,0.11-0.06,0.21-0.16,0.26c-0.1,0.05-0.22,0.03-0.3-0.03c-1.85-1.47-5.26-2.09-8.9-1.6
					c-3.46,0.46-6.4,2.54-7.86,4.18C102.95,54.94,102.87,54.98,102.79,54.98z M103.08,31.5v22.48c1.68-1.66,4.44-3.4,7.71-3.84
					c3.51-0.47,6.83,0.06,8.87,1.39V29.6c-1.87-1.41-5.22-1.99-8.79-1.52c-2.84,0.38-5.43,1.39-7.1,2.77
					C103.51,31.06,103.28,31.28,103.08,31.5z"/>
			</g>
		</g>
	</g>
	<g>
		<g>
			<polygon class="st2" points="103.19,44.74 102.67,43.51 102.15,44.74 102.15,30.74 103.19,30.74 			"/>
		</g>
	</g>
	<g>
		<g>
			<polygon class="st0" points="103.45,44.77 102.94,43.53 102.42,44.77 102.42,30.77 103.45,30.77 			"/>
		</g>
	</g>
	<g>
		<g>
			<path class="st1" d="M102.29,44.89c-0.01,0-0.03,0-0.04,0c-0.14-0.02-0.24-0.14-0.24-0.28V30.88c0-0.16,0.13-0.29,0.29-0.29h0.76
				c0.16,0,0.29,0.13,0.29,0.29V44.6c0,0.14-0.1,0.26-0.24,0.28c-0.14,0.02-0.27-0.06-0.32-0.2l-0.11-0.34l-0.11,0.34
				C102.52,44.81,102.41,44.89,102.29,44.89z M102.58,31.16v11.96c0.03-0.01,0.06-0.02,0.09-0.02l0,0c0.03,0,0.06,0.01,0.09,0.02
				V31.16H102.58z"/>
		</g>
	</g>
	<g>
		<g>
			<g>
				<path class="st2" d="M102.52,30.66c-1.53-1.71-4.49-3.11-8.03-3.59c-3.82-0.51-7.28,0.2-9.12,1.66v22.62
					c1.84-1.46,5.3-2.17,9.12-1.66c3.54,0.47,6.51,3.2,8.03,4.91V30.66z"/>
			</g>
		</g>
		<g>
			<g>
				<path class="st1" d="M102.52,54.89c-0.08,0-0.16-0.03-0.21-0.1c-1.42-1.6-4.34-4.34-7.86-4.82c-3.64-0.49-7.05,0.13-8.9,1.6
					c-0.08,0.07-0.2,0.08-0.3,0.03c-0.1-0.05-0.16-0.15-0.16-0.26V28.73c0-0.09,0.04-0.17,0.11-0.22c1.97-1.57,5.54-2.23,9.33-1.72
					c3.5,0.47,6.57,1.85,8.21,3.68c0.05,0.05,0.07,0.12,0.07,0.19V54.6c0,0.12-0.07,0.22-0.18,0.27
					C102.58,54.88,102.55,54.89,102.52,54.89z M92.04,49.24c0.81,0,1.64,0.05,2.48,0.17c3.33,0.45,6.11,2.79,7.71,4.46v-23.1
					c-1.55-1.67-4.51-2.98-7.79-3.41c-3.57-0.48-6.92,0.1-8.79,1.52V50.8C87.2,49.79,89.49,49.24,92.04,49.24z"/>
			</g>
		</g>
		<g>
			<g>
				<path class="st2" d="M102.79,30.66c0.23-0.26,0.49-0.51,0.79-0.75c1.65-1.36,4.24-2.43,7.25-2.83c3.82-0.51,7.28,0.2,9.12,1.66
					v22.62c-1.84-1.46-5.3-2.17-9.12-1.66c-3.54,0.47-6.51,3.23-8.03,4.94V30.66z"/>
			</g>
		</g>
		<g>
			<g>
				<path class="st1" d="M102.79,54.92c-0.03,0-0.07-0.01-0.1-0.02c-0.11-0.04-0.18-0.15-0.18-0.27V30.66
					c0-0.07,0.03-0.14,0.07-0.19c0.24-0.27,0.51-0.53,0.82-0.78c1.75-1.45,4.45-2.5,7.39-2.9c3.79-0.5,7.37,0.15,9.33,1.72
					c0.07,0.05,0.11,0.14,0.11,0.22v22.62c0,0.11-0.06,0.21-0.16,0.26c-0.1,0.05-0.22,0.03-0.3-0.03c-1.85-1.47-5.26-2.09-8.9-1.6
					c-3.49,0.47-6.42,3.24-7.86,4.84C102.95,54.88,102.87,54.92,102.79,54.92z M103.08,30.77V53.9c1.61-1.69,4.4-4.05,7.71-4.49
					c3.51-0.47,6.83,0.06,8.87,1.39V28.87c-1.87-1.41-5.22-2-8.79-1.52c-2.84,0.38-5.43,1.39-7.1,2.77
					C103.51,30.33,103.28,30.55,103.08,30.77z"/>
			</g>
		</g>
	</g>
	<g>
		<g>
			<polygon class="st2" points="103.19,44.01 102.67,42.78 102.15,44.01 102.15,30.01 103.19,30.01 			"/>
		</g>
	</g>
	<g>
		<g>
			<polygon class="st0" points="102.48,30.1 102.48,43.97 102.94,42.75 103.39,43.97 103.39,30.1 			"/>
		</g>
	</g>
	<g>
		<g>
			<path class="st0" d="M103.39,44.1c-0.05,0-0.1-0.03-0.12-0.08l-0.34-0.91l-0.34,0.91c-0.02,0.06-0.08,0.09-0.14,0.08
				c-0.06-0.01-0.1-0.06-0.1-0.12V30.1c0-0.07,0.06-0.12,0.12-0.12h0.91c0.07,0,0.12,0.06,0.12,0.12v13.87
				c0,0.06-0.04,0.11-0.1,0.12C103.4,44.1,103.4,44.1,103.39,44.1z M102.94,42.62c0.05,0,0.1,0.03,0.12,0.08l0.21,0.57V30.22h-0.66
				v13.05l0.21-0.57C102.84,42.66,102.88,42.62,102.94,42.62z"/>
		</g>
	</g>
	<g>
		<g>
			<path class="st1" d="M102.29,44.16c-0.01,0-0.03,0-0.04,0c-0.14-0.02-0.24-0.14-0.24-0.28V30.15c0-0.16,0.13-0.29,0.29-0.29h0.76
				c0.16,0,0.29,0.13,0.29,0.29v13.73c0,0.14-0.1,0.26-0.24,0.28c-0.14,0.02-0.27-0.06-0.32-0.2l-0.11-0.34l-0.11,0.34
				C102.52,44.08,102.41,44.16,102.29,44.16z M102.58,30.43v11.96c0.03-0.01,0.06-0.02,0.09-0.02l0,0c0.03,0,0.06,0.01,0.09,0.02
				V30.43H102.58z"/>
		</g>
	</g>
</g>
</svg>
