<?xml version="1.0" encoding="utf-8"?>
<!-- Generator: Adobe Illustrator 26.0.2, SVG Export Plug-In . SVG Version: 6.00 Build 0)  -->
<svg version="1.1" id="Ebene_1" xmlns="http://www.w3.org/2000/svg" xmlns:xlink="http://www.w3.org/1999/xlink" x="0px" y="0px"
	 viewBox="0 0 81.73 76.28" style="enable-background:new 0 0 81.73 76.28;" xml:space="preserve">
<style type="text/css">
	.st0{fill:#E59C00;}
	.st1{fill:#2B2961;}
	.st2{fill:#FFFFFF;}
	.st3{clip-path:url(#SVGID_00000080906564066841887870000012670461491233660345_);}
	.st4{clip-path:url(#SVGID_00000026855231636026982020000008714556824503908028_);}
	.st5{clip-path:url(#SVGID_00000040561301597447226920000014062388576151488175_);}
	.st6{clip-path:url(#SVGID_00000163764912719396435370000001959104506409896081_);}
	.st7{clip-path:url(#SVGID_00000053516988733922969930000007960795219510139061_);}
	.st8{clip-path:url(#SVGID_00000162345836729481184710000002650411512840467126_);}
	.st9{clip-path:url(#SVGID_00000036234787177612011610000005988507733379972765_);}
	.st10{clip-path:url(#SVGID_00000116199229428941947290000014026634652261203383_);}
	.st11{clip-path:url(#SVGID_00000169529918077626197030000002036543643549648556_);}
	.st12{clip-path:url(#SVGID_00000173132433392654172130000011280856017274862240_);}
	.st13{clip-path:url(#SVGID_00000143583986594134473710000004792744913691750060_);}
	.st14{clip-path:url(#SVGID_00000123407351487148388900000013513081891100287932_);}
	.st15{clip-path:url(#SVGID_00000124131307026079223470000017715374175566770050_);}
	.st16{clip-path:url(#SVGID_00000024001290954962987630000012211697008235356090_);}
	.st17{clip-path:url(#SVGID_00000003066722451455217590000016998853018320877444_);}
	.st18{clip-path:url(#SVGID_00000115499761341400726750000001597908516940120506_);}
	.st19{clip-path:url(#SVGID_00000128485332916892956550000014747092225182642075_);}
	.st20{clip-path:url(#SVGID_00000135649214074228789030000001116808023310095511_);}
	.st21{clip-path:url(#SVGID_00000147221959152251849570000000964427317856263067_);}
	.st22{clip-path:url(#SVGID_00000163781106114119271640000016564262376871401900_);}
	.st23{clip-path:url(#SVGID_00000097490682375575107800000015809424786342200767_);}
	.st24{clip-path:url(#SVGID_00000152963652475804371150000013492287055389558957_);}
	.st25{clip-path:url(#SVGID_00000021098770267026536210000018093929564070356415_);}
	.st26{clip-path:url(#SVGID_00000103260867880298099310000003884030891742624655_);}
	.st27{clip-path:url(#SVGID_00000068635100078247864470000001454245557888254102_);}
	.st28{clip-path:url(#SVGID_00000101103289172255382400000002473043581453541775_);}
	.st29{clip-path:url(#SVGID_00000142143286339980514290000009550421667812599690_);}
	.st30{clip-path:url(#SVGID_00000095298478354117164990000016656897981383582121_);}
	.st31{clip-path:url(#SVGID_00000005251855715095931370000017650498488009171362_);}
	.st32{clip-path:url(#SVGID_00000124127678194658723120000017886371045529126844_);}
	.st33{clip-path:url(#SVGID_00000101821519040676992310000003796699584804109993_);}
	.st34{clip-path:url(#SVGID_00000124872936378772947980000008593122435994253495_);}
	.st35{clip-path:url(#SVGID_00000086676257046308459240000006160684930062795926_);}
	.st36{clip-path:url(#SVGID_00000107547589466495491520000016189246769707083904_);}
	.st37{clip-path:url(#SVGID_00000026155874662582317050000008812998309821299090_);}
	.st38{clip-path:url(#SVGID_00000155104653273948900350000013748259116361644950_);}
	.st39{clip-path:url(#SVGID_00000043444040749893740410000003506791838951986607_);}
	.st40{clip-path:url(#SVGID_00000090998789271663010390000003894516699786833304_);}
	.st41{clip-path:url(#SVGID_00000078759955664172095210000017627213176959855496_);}
	.st42{clip-path:url(#SVGID_00000125597967834140917100000005520993200799803543_);}
	.st43{clip-path:url(#SVGID_00000040557796098385581230000018085242035527059614_);}
	.st44{clip-path:url(#SVGID_00000044172642951589644950000006775515762752070812_);}
	.st45{clip-path:url(#SVGID_00000157267527534422759390000002863911617800014265_);}
	.st46{clip-path:url(#SVGID_00000140000190321573469330000014454113832429973651_);}
	.st47{clip-path:url(#SVGID_00000152943330680859497550000012135212459368038566_);}
	.st48{clip-path:url(#SVGID_00000047747352097044968620000014134060394458081415_);}
	.st49{clip-path:url(#SVGID_00000166664268258984332460000003516464721684300694_);}
	.st50{clip-path:url(#SVGID_00000049206208573488624270000008441694047056255907_);}
	.st51{clip-path:url(#SVGID_00000147932073696558940480000014923905354075775643_);}
	.st52{clip-path:url(#SVGID_00000103986552645309516520000002087078603499254952_);}
	.st53{clip-path:url(#SVGID_00000148630246973361493320000004059881535532673457_);}
	.st54{clip-path:url(#SVGID_00000110455892779337890380000017409336090860094873_);}
	.st55{clip-path:url(#SVGID_00000180363988094995980640000011174475065834913181_);}
	.st56{clip-path:url(#SVGID_00000139296237167513414270000018397519944994860469_);}
	.st57{clip-path:url(#SVGID_00000009570058839716609830000009311851875012670878_);}
	.st58{clip-path:url(#SVGID_00000161600123709987396380000008213465696189424823_);}
	.st59{clip-path:url(#SVGID_00000068653314420295278800000010017302480741028016_);}
	.st60{clip-path:url(#SVGID_00000094576068573591246980000001009140780468974492_);}
	.st61{clip-path:url(#SVGID_00000181082524989877472870000008342686313418625951_);}
	.st62{clip-path:url(#SVGID_00000111184060127284923470000013691023909569409429_);}
	.st63{clip-path:url(#SVGID_00000033331405811175243260000006540978161569146546_);}
	.st64{clip-path:url(#SVGID_00000099642008358892083690000017390655484428632236_);}
	.st65{clip-path:url(#SVGID_00000140699892969357722250000010517935391235923390_);}
	.st66{clip-path:url(#SVGID_00000118385104831372741910000009377057951953119887_);}
	.st67{clip-path:url(#SVGID_00000168075926306827328890000014625118368840394412_);}
	.st68{clip-path:url(#SVGID_00000137828985365461656050000002593830010306881160_);}
	.st69{clip-path:url(#SVGID_00000101793844734206162640000005016750737364023691_);}
	.st70{clip-path:url(#SVGID_00000065792897146854557840000000499935777905492150_);}
	.st71{clip-path:url(#SVGID_00000071521608298293428990000011201357966072961679_);}
	.st72{clip-path:url(#SVGID_00000021805868844081886780000009937882903546642577_);}
	.st73{clip-path:url(#SVGID_00000029743123662212432860000001951254447130943885_);}
	.st74{clip-path:url(#SVGID_00000098217314620547113390000011118539600783857338_);}
	.st75{clip-path:url(#SVGID_00000092434565117135162610000006591694677954634933_);}
	.st76{clip-path:url(#SVGID_00000036954592155847374480000005135139507129339778_);}
	.st77{clip-path:url(#SVGID_00000057133855233851574230000006528751911772658078_);}
	.st78{clip-path:url(#SVGID_00000126319176355590449900000010936116037072395706_);}
	.st79{clip-path:url(#SVGID_00000032636246817051107650000000122706964563225238_);}
	.st80{clip-path:url(#SVGID_00000075120308780973130490000001547332788690878862_);}
	.st81{clip-path:url(#SVGID_00000134948187063468849580000009330910680694725260_);}
	.st82{clip-path:url(#SVGID_00000178178839268897710110000016989020648414062256_);}
	.st83{fill:none;}
	.st84{clip-path:url(#SVGID_00000085246589779316723810000008687603838043439805_);}
	.st85{clip-path:url(#SVGID_00000181061065661723651100000007143590306669205169_);}
	.st86{clip-path:url(#SVGID_00000072258893923927769500000017035828011554920106_);}
	.st87{clip-path:url(#SVGID_00000182487700150353013970000005770003406243530169_);}
	.st88{clip-path:url(#SVGID_00000093877447950844710770000000088287944486803586_);}
	.st89{clip-path:url(#SVGID_00000104707153269341445320000010780119383296498588_);}
	.st90{clip-path:url(#SVGID_00000041286552242804754960000014539841158995529632_);}
	.st91{clip-path:url(#SVGID_00000060004604597446578170000006079392191448378245_);}
	.st92{clip-path:url(#SVGID_00000005972109564220312000000005343702009102886548_);}
	.st93{clip-path:url(#SVGID_00000072238413446820088280000014071208797067868817_);}
	.st94{clip-path:url(#SVGID_00000129187027507917889710000010322485982246326697_);}
	.st95{clip-path:url(#SVGID_00000035518507786344481880000009756246720550353547_);}
	.st96{clip-path:url(#SVGID_00000078731386984394627690000009161595357656958380_);}
	.st97{clip-path:url(#SVGID_00000092455773953033316530000008477661946947748497_);}
	.st98{clip-path:url(#SVGID_00000146495491699944577930000004014792162254677401_);}
	.st99{clip-path:url(#SVGID_00000005243355824446614750000010497187912287728315_);}
	.st100{clip-path:url(#SVGID_00000161597864653487588050000000751922550583396792_);}
	.st101{clip-path:url(#SVGID_00000039841690427396889950000005208265064419999403_);}
	.st102{clip-path:url(#SVGID_00000001656264614390195280000014366840520267699623_);}
	.st103{clip-path:url(#SVGID_00000136395218157940215450000002805602501533307807_);}
	.st104{clip-path:url(#SVGID_00000062879277463051867110000009465724562607580348_);}
	.st105{clip-path:url(#SVGID_00000085930661481831517950000003620736224114470043_);}
	.st106{clip-path:url(#SVGID_00000027577236351739866860000010405420143285101499_);}
	.st107{clip-path:url(#SVGID_00000003809523698374396710000003092601176818975623_);}
	.st108{clip-path:url(#SVGID_00000016763952811468010240000000856340323754002821_);}
	.st109{clip-path:url(#SVGID_00000018238656699229800510000010998906887351998121_);}
	.st110{clip-path:url(#SVGID_00000134235262936386890400000006884014906306121885_);}
	.st111{clip-path:url(#SVGID_00000098196815656400664190000003548427164915262874_);}
	.st112{clip-path:url(#SVGID_00000133495725178029887010000011788540066317466764_);}
	.st113{clip-path:url(#SVGID_00000100345303814445172680000011754195794726486418_);}
	.st114{clip-path:url(#SVGID_00000088129423816990805060000010894061679893076399_);}
	.st115{clip-path:url(#SVGID_00000053518236119860168270000007534725202754207633_);}
	.st116{clip-path:url(#SVGID_00000046335094505288711340000016107943279547177886_);}
	.st117{clip-path:url(#SVGID_00000029761489770214687090000016368774877694438838_);}
	.st118{clip-path:url(#SVGID_00000150793953417365459990000016630313619195903899_);}
	.st119{clip-path:url(#SVGID_00000031200929344729944730000015715780766141621945_);}
	.st120{clip-path:url(#SVGID_00000164486451776224335220000014506253588490306688_);}
	.st121{clip-path:url(#SVGID_00000003807279772936667320000009553733066870721455_);}
	.st122{clip-path:url(#SVGID_00000076579009879726132840000016016079373374989952_);}
	.st123{clip-path:url(#SVGID_00000058580086157483710600000009348320050731118003_);}
	.st124{clip-path:url(#SVGID_00000031907336087825381190000011804923647160159117_);}
	.st125{clip-path:url(#SVGID_00000114751871018221136380000013209374216539394979_);}
	.st126{clip-path:url(#SVGID_00000052072815936227468820000016755964412136055958_);}
	.st127{clip-path:url(#SVGID_00000129168419968577144250000002513104900952712886_);}
	.st128{clip-path:url(#SVGID_00000183249326686153054010000002813671128245195162_);}
	.st129{clip-path:url(#SVGID_00000039104019064961730100000000400150855862834877_);}
	.st130{clip-path:url(#SVGID_00000088817621148146674570000009169171020154964381_);}
	.st131{clip-path:url(#SVGID_00000164511633994835717920000007680799461614715580_);}
	.st132{clip-path:url(#SVGID_00000132787391159911032900000000325992809464633532_);}
	.st133{clip-path:url(#SVGID_00000155842735967742823640000004552958819875428534_);}
	.st134{clip-path:url(#SVGID_00000054224375514148632950000003456800458298963877_);}
	.st135{clip-path:url(#SVGID_00000042017931744131385760000009827123369749664911_);}
	.st136{clip-path:url(#SVGID_00000134954040273569293840000003171726918739578041_);}
	.st137{clip-path:url(#SVGID_00000046329660938525395550000000857875055960668303_);}
	.st138{clip-path:url(#SVGID_00000139990411001269533330000006517850047893926038_);}
	.st139{clip-path:url(#SVGID_00000061430104441499087080000005963049340426472349_);}
	.st140{clip-path:url(#SVGID_00000010308309391475272600000018006215974156470433_);}
	.st141{clip-path:url(#SVGID_00000043415118518125270680000000812126583719416210_);}
	.st142{clip-path:url(#SVGID_00000114059197524333782000000000640988822089230247_);}
	.st143{clip-path:url(#SVGID_00000114051916096314643030000015794145975262018471_);}
	.st144{clip-path:url(#SVGID_00000049219817609844766130000003496456962446614916_);}
	.st145{clip-path:url(#SVGID_00000046304171899423505200000007252668042113282749_);}
	.st146{clip-path:url(#SVGID_00000155828918801413329980000013029577101616540854_);}
	.st147{clip-path:url(#SVGID_00000066516269425487199300000011344005005193830068_);}
	.st148{clip-path:url(#SVGID_00000101083009050665224680000001595446705826981004_);}
	.st149{clip-path:url(#SVGID_00000090975336892051938790000014288469494626571690_);}
	.st150{clip-path:url(#SVGID_00000052820074130703976070000014221756730871785348_);}
	.st151{clip-path:url(#SVGID_00000063627028546110370310000015024957412461444484_);}
	.st152{clip-path:url(#SVGID_00000109729401542958112760000014379670518932807860_);}
	.st153{clip-path:url(#SVGID_00000038375521618199559700000013082133392789051047_);}
	.st154{clip-path:url(#SVGID_00000098912094088433291310000016895521041838575529_);}
	.st155{clip-path:url(#SVGID_00000151521834399549741970000015181604471659359116_);}
	.st156{clip-path:url(#SVGID_00000148643449924895579420000010694398065508308667_);}
	.st157{clip-path:url(#SVGID_00000019678051396284688190000005763995462225008060_);}
	.st158{clip-path:url(#SVGID_00000169529411163422944410000010250571927195900331_);}
	.st159{clip-path:url(#SVGID_00000106141175847641196340000017471197920767653563_);}
	.st160{clip-path:url(#SVGID_00000125563489072970393350000018291974751945349283_);}
	.st161{clip-path:url(#SVGID_00000108293118133885753730000001180993767778812319_);}
	.st162{clip-path:url(#SVGID_00000083089740056512704680000013431132918563555475_);}
	.st163{clip-path:url(#SVGID_00000056387892577882725170000018297849447210140348_);}
	.st164{clip-path:url(#SVGID_00000176014085948507981570000002226137324122907537_);}
	.st165{clip-path:url(#SVGID_00000036233421966135288370000003291118997798786432_);}
	.st166{clip-path:url(#SVGID_00000133494724760627597790000011279841766191510957_);}
	.st167{clip-path:url(#SVGID_00000064354928794079341720000010574130067375736493_);}
	.st168{clip-path:url(#SVGID_00000178891963831253135050000002625638606268927918_);}
	.st169{clip-path:url(#SVGID_00000147911495554471240890000013166150111783441300_);}
	.st170{clip-path:url(#SVGID_00000014611549425556655870000010432142272836662159_);}
	.st171{clip-path:url(#SVGID_00000125565540870057332280000012950749970465256579_);}
	.st172{clip-path:url(#SVGID_00000002346813424072716460000011580803869213180314_);}
	.st173{clip-path:url(#SVGID_00000044890211431957885780000016928459054198067600_);}
	.st174{clip-path:url(#SVGID_00000129199512654390185670000014599454346432158367_);}
	.st175{clip-path:url(#SVGID_00000143601832424476430560000009854949601563722904_);}
	.st176{clip-path:url(#SVGID_00000071533782193874401110000013711335452035052176_);}
	.st177{clip-path:url(#SVGID_00000016794832186518583090000017722207989005406349_);}
	.st178{clip-path:url(#SVGID_00000158019182990493466510000013374479714832855473_);}
	.st179{clip-path:url(#SVGID_00000085224077530447504310000003296914818118938254_);}
	.st180{clip-path:url(#SVGID_00000039856006664721459170000002619740676774151851_);}
	.st181{clip-path:url(#SVGID_00000083796369557886495950000008360856825677124018_);}
	.st182{clip-path:url(#SVGID_00000003072330981515868360000013411300063221469569_);}
	.st183{clip-path:url(#SVGID_00000141441043775501482660000002896276456640997303_);}
	.st184{clip-path:url(#SVGID_00000134928425802724954730000015152491062711010466_);}
	.st185{clip-path:url(#SVGID_00000053523500798705237550000001175760176498934963_);}
	.st186{clip-path:url(#SVGID_00000078041345112524813610000016217851975993505173_);}
</style>
<g>
	<g>
		<rect x="1.83" y="50.47" class="st0" width="17.87" height="18.33"/>
	</g>
	<g>
		<path class="st0" d="M19.7,68.93H1.83c-0.07,0-0.12-0.06-0.12-0.12V50.47c0-0.07,0.06-0.12,0.12-0.12H19.7
			c0.07,0,0.12,0.06,0.12,0.12V68.8C19.82,68.87,19.77,68.93,19.7,68.93z M1.95,68.68h17.62V50.59H1.95V68.68z"/>
	</g>
	<g>
		<defs>
			<rect id="SVGID_00000077320057909081046940000004584235213185634993_" width="81.73" height="76.28"/>
		</defs>
		<clipPath id="SVGID_00000160182782397618433240000006386232949356940970_">
			<use xlink:href="#SVGID_00000077320057909081046940000004584235213185634993_"  style="overflow:visible;"/>
		</clipPath>
		<g style="clip-path:url(#SVGID_00000160182782397618433240000006386232949356940970_);">
			<path class="st0" d="M35.63,23.52c2.03,0,3.93,0.38,5.5,1.47v-7.03l-0.57,0.8c-0.9,1.86-2.76,3.15-4.92,3.15
				c-2.16,0-3.69-0.9-4.59-2.76l-0.38-0.38v6.16C32.12,24.03,33.82,23.52,35.63,23.52"/>
		</g>
		<g style="clip-path:url(#SVGID_00000160182782397618433240000006386232949356940970_);">
			<path class="st0" d="M41.13,25.11c-0.02,0-0.05-0.01-0.07-0.02c-1.41-0.97-3.19-1.44-5.43-1.44c-1.71,0-3.41,0.47-4.9,1.37
				c-0.04,0.02-0.09,0.02-0.13,0s-0.06-0.06-0.06-0.11v-6.16c0-0.05,0.03-0.1,0.08-0.12c0.05-0.02,0.1-0.01,0.14,0.03l0.38,0.38
				c0.01,0.01,0.02,0.02,0.02,0.03c0.87,1.81,2.34,2.69,4.48,2.69c2.05,0,3.9-1.18,4.81-3.08l0.58-0.81
				c0.03-0.04,0.09-0.06,0.14-0.05c0.05,0.02,0.09,0.06,0.09,0.12v7.04c0,0.05-0.03,0.09-0.07,0.11
				C41.17,25.11,41.15,25.11,41.13,25.11z M35.63,23.39c2.19,0,3.95,0.44,5.37,1.36v-6.41l-0.35,0.48c-0.95,1.97-2.88,3.2-5.03,3.2
				c-2.2,0-3.78-0.95-4.69-2.82l-0.15-0.15v5.64C32.27,23.84,33.94,23.39,35.63,23.39z"/>
		</g>
		<g style="clip-path:url(#SVGID_00000160182782397618433240000006386232949356940970_);">
			<path class="st1" d="M40.98,25.64c-0.06,0-0.12-0.02-0.17-0.05c-1.63-1.1-3.76-1.78-5.56-1.78c-1.86,0-3.55,0.52-5.15,1.6
				c-0.09,0.06-0.21,0.07-0.31,0.02c-0.1-0.05-0.16-0.15-0.16-0.26v-8.65h0.6v8.1c1.55-0.93,3.24-1.41,5.02-1.41
				c1.74,0,3.77,0.6,5.43,1.59v-8.39h0.6v8.93c0,0.11-0.06,0.21-0.16,0.26C41.08,25.63,41.03,25.64,40.98,25.64z"/>
		</g>
	</g>
	<g>
		<rect x="26.81" y="59.13" class="st0" width="18.57" height="9.67"/>
	</g>
	<g>
		<path class="st0" d="M45.38,68.93H26.81c-0.07,0-0.12-0.06-0.12-0.12v-9.67c0-0.07,0.06-0.12,0.12-0.12h18.57
			c0.07,0,0.12,0.06,0.12,0.12v9.67C45.5,68.87,45.45,68.93,45.38,68.93z M26.94,68.68h18.32v-9.42H26.94V68.68z"/>
	</g>
	<g>
		<rect x="25.81" y="58.93" class="st1" width="19.52" height="0.4"/>
	</g>
	<g>
		<defs>
			<rect id="SVGID_00000138569587372085487920000012032129837120092861_" width="81.73" height="76.28"/>
		</defs>
		<clipPath id="SVGID_00000057829939309877450870000005575700447677000627_">
			<use xlink:href="#SVGID_00000138569587372085487920000012032129837120092861_"  style="overflow:visible;"/>
		</clipPath>
		<g style="clip-path:url(#SVGID_00000057829939309877450870000005575700447677000627_);">
			<path class="st1" d="M41.13,76.28c-0.17,0-0.3-0.13-0.3-0.3v-7.02c0-0.17,0.13-0.3,0.3-0.3s0.3,0.13,0.3,0.3v7.02
				C41.43,76.15,41.29,76.28,41.13,76.28z M29.79,76.28c-0.17,0-0.3-0.13-0.3-0.3v-7.02c0-0.17,0.13-0.3,0.3-0.3s0.3,0.13,0.3,0.3
				v7.02C30.09,76.15,29.96,76.28,29.79,76.28z"/>
		</g>
	</g>
	<g>
		<path class="st1" d="M29.79,43.16c-0.19,0-0.35-0.16-0.35-0.35v-9.43c0-0.19,0.16-0.35,0.35-0.35s0.35,0.16,0.35,0.35v9.43
			C30.14,43.01,29.98,43.16,29.79,43.16z"/>
	</g>
	<g>
		<defs>
			<rect id="SVGID_00000146479080309036334590000009976067103162799772_" width="81.73" height="76.28"/>
		</defs>
		<clipPath id="SVGID_00000054988535782138671790000001522495752982524065_">
			<use xlink:href="#SVGID_00000146479080309036334590000009976067103162799772_"  style="overflow:visible;"/>
		</clipPath>
		<g style="clip-path:url(#SVGID_00000054988535782138671790000001522495752982524065_);">
			<path class="st1" d="M45.2,69.01H25.65c-0.17,0-0.3-0.13-0.3-0.3V33.7c0-5.69,4.61-10.52,10.07-10.56c0.02,0,0.04,0,0.06,0
				c2.5,0,4.92,1.03,6.82,2.91c2.06,2.03,3.25,4.82,3.26,7.65c0,0,0,0,0,0L45.5,68.71C45.5,68.88,45.37,69.01,45.2,69.01z
				 M25.95,68.41H44.9l0.07-34.71c-0.02-2.67-1.14-5.3-3.08-7.23c-1.79-1.76-4.06-2.73-6.4-2.73c-0.02,0-0.04,0-0.06,0
				c-5.14,0.04-9.48,4.6-9.48,9.96V68.41z"/>
		</g>
		<g style="clip-path:url(#SVGID_00000054988535782138671790000001522495752982524065_);">
			<path class="st0" d="M40.98,14.89c-0.64-2.1-2.59-3.63-4.91-3.63s-4.27,1.53-4.9,3.63H40.98z"/>
		</g>
		<g style="clip-path:url(#SVGID_00000054988535782138671790000001522495752982524065_);">
			<path class="st0" d="M40.98,15.02h-9.81c-0.04,0-0.08-0.02-0.1-0.05c-0.02-0.03-0.03-0.07-0.02-0.11
				c0.68-2.23,2.7-3.72,5.02-3.72c2.33,0,4.35,1.5,5.02,3.72c0.01,0.04,0,0.08-0.02,0.11C41.06,15,41.02,15.02,40.98,15.02z
				 M31.34,14.77h9.47c-0.69-2.03-2.57-3.38-4.73-3.38C33.91,11.38,32.03,12.74,31.34,14.77z"/>
		</g>
		<g style="clip-path:url(#SVGID_00000054988535782138671790000001522495752982524065_);">
			<path class="st1" d="M35.46,22.07c-3.21,0-5.82-2.61-5.82-5.82c0-3.21,2.61-5.82,5.82-5.82c3.21,0,5.82,2.61,5.82,5.82
				C41.28,19.46,38.67,22.07,35.46,22.07z M35.46,11.03c-2.88,0-5.22,2.34-5.22,5.22c0,2.88,2.34,5.22,5.22,5.22
				c2.88,0,5.22-2.34,5.22-5.22C40.68,13.38,38.34,11.03,35.46,11.03z"/>
		</g>
	</g>
	<g>
		<rect x="30.22" y="14.71" class="st1" width="10.47" height="0.4"/>
	</g>
	<g>
		<defs>
			<rect id="SVGID_00000116922687914563105260000014851680973456472747_" width="81.73" height="76.28"/>
		</defs>
		<clipPath id="SVGID_00000157282088863104037470000001384196697382087050_">
			<use xlink:href="#SVGID_00000116922687914563105260000014851680973456472747_"  style="overflow:visible;"/>
		</clipPath>
		<g style="clip-path:url(#SVGID_00000157282088863104037470000001384196697382087050_);">
			<path class="st1" d="M35.18,16.66c0,0.16-0.13,0.29-0.29,0.29c-0.16,0-0.29-0.13-0.29-0.29c0-0.16,0.13-0.29,0.29-0.29
				C35.04,16.37,35.18,16.5,35.18,16.66"/>
		</g>
		<g style="clip-path:url(#SVGID_00000157282088863104037470000001384196697382087050_);">
			<path class="st1" d="M39.17,16.66c0,0.16-0.13,0.29-0.29,0.29c-0.16,0-0.29-0.13-0.29-0.29c0-0.16,0.13-0.29,0.29-0.29
				C39.03,16.37,39.17,16.5,39.17,16.66"/>
		</g>
		<g style="clip-path:url(#SVGID_00000157282088863104037470000001384196697382087050_);">
			<rect x="0.46" y="50.18" class="st1" width="19.52" height="0.4"/>
		</g>
		<g style="clip-path:url(#SVGID_00000157282088863104037470000001384196697382087050_);">
			<path class="st1" d="M15.78,76.28c-0.17,0-0.3-0.13-0.3-0.3v-7.02c0-0.17,0.13-0.3,0.3-0.3s0.3,0.13,0.3,0.3v7.02
				C16.08,76.15,15.94,76.28,15.78,76.28z M4.44,76.28c-0.17,0-0.3-0.13-0.3-0.3v-7.02c0-0.17,0.13-0.3,0.3-0.3s0.3,0.13,0.3,0.3
				v7.02C4.74,76.15,4.6,76.28,4.44,76.28z"/>
		</g>
	</g>
	<g>
		<path class="st1" d="M15.78,43.16c-0.19,0-0.35-0.16-0.35-0.35v-9.43c0-0.19,0.16-0.35,0.35-0.35s0.35,0.16,0.35,0.35v9.43
			C16.13,43.01,15.97,43.16,15.78,43.16z M4.44,43.16c-0.19,0-0.35-0.16-0.35-0.35v-9.43c0-0.19,0.16-0.35,0.35-0.35
			s0.35,0.16,0.35,0.35v9.43C4.79,43.01,4.63,43.16,4.44,43.16z"/>
	</g>
	<g>
		<defs>
			<rect id="SVGID_00000074413796178007732940000014052306204588965303_" width="81.73" height="76.28"/>
		</defs>
		<clipPath id="SVGID_00000124155002045661228300000012602273295351740587_">
			<use xlink:href="#SVGID_00000074413796178007732940000014052306204588965303_"  style="overflow:visible;"/>
		</clipPath>
		<g style="clip-path:url(#SVGID_00000124155002045661228300000012602273295351740587_);">
			<path class="st1" d="M19.85,69.01H0.3c-0.17,0-0.3-0.13-0.3-0.3V33.7c0-5.69,4.61-10.52,10.07-10.56c0.02,0,0.04,0,0.06,0
				c2.5,0,4.92,1.03,6.82,2.91c2.06,2.03,3.25,4.82,3.26,7.65c0,0,0,0,0,0l-0.07,35.01C20.15,68.88,20.02,69.01,19.85,69.01z
				 M0.6,68.41h18.95l0.07-34.71c-0.02-2.67-1.14-5.3-3.08-7.23c-1.79-1.76-4.06-2.73-6.4-2.73c-0.02,0-0.04,0-0.06,0
				c-5.14,0.04-9.48,4.6-9.48,9.96V68.41z"/>
		</g>
		<g style="clip-path:url(#SVGID_00000124155002045661228300000012602273295351740587_);">
			<path class="st0" d="M15.63,14.89c-0.64-2.1-2.59-3.63-4.91-3.63s-4.26,1.53-4.9,3.63H15.63z"/>
		</g>
		<g style="clip-path:url(#SVGID_00000124155002045661228300000012602273295351740587_);">
			<path class="st0" d="M15.63,15.02H5.82c-0.04,0-0.08-0.02-0.1-0.05c-0.02-0.03-0.03-0.07-0.02-0.11c0.68-2.23,2.7-3.72,5.02-3.72
				s4.35,1.5,5.02,3.72c0.01,0.04,0,0.08-0.02,0.11C15.71,15,15.67,15.02,15.63,15.02z M5.99,14.77h9.47
				c-0.69-2.03-2.57-3.38-4.73-3.38S6.68,12.74,5.99,14.77z"/>
		</g>
		<g style="clip-path:url(#SVGID_00000124155002045661228300000012602273295351740587_);">
			<path class="st1" d="M10.11,22.07c-3.21,0-5.82-2.61-5.82-5.82c0-3.21,2.61-5.82,5.82-5.82c3.21,0,5.82,2.61,5.82,5.82
				C15.93,19.46,13.32,22.07,10.11,22.07z M10.11,11.03c-2.88,0-5.22,2.34-5.22,5.22c0,2.88,2.34,5.22,5.22,5.22
				c2.88,0,5.22-2.34,5.22-5.22C15.33,13.38,12.99,11.03,10.11,11.03z"/>
		</g>
	</g>
	<g>
		<rect x="4.87" y="14.71" class="st1" width="10.47" height="0.4"/>
	</g>
	<g>
		<defs>
			<rect id="SVGID_00000164498527350433672460000015775042567220497283_" width="81.73" height="76.28"/>
		</defs>
		<clipPath id="SVGID_00000102516190570743404980000000961216273554292662_">
			<use xlink:href="#SVGID_00000164498527350433672460000015775042567220497283_"  style="overflow:visible;"/>
		</clipPath>
		<g style="clip-path:url(#SVGID_00000102516190570743404980000000961216273554292662_);">
			<path class="st1" d="M9.82,16.66c0,0.16-0.13,0.29-0.29,0.29c-0.16,0-0.29-0.13-0.29-0.29c0-0.16,0.13-0.29,0.29-0.29
				C9.69,16.37,9.82,16.5,9.82,16.66"/>
		</g>
		<g style="clip-path:url(#SVGID_00000102516190570743404980000000961216273554292662_);">
			<path class="st1" d="M13.81,16.66c0,0.16-0.13,0.29-0.29,0.29c-0.16,0-0.29-0.13-0.29-0.29c0-0.16,0.13-0.29,0.29-0.29
				C13.68,16.37,13.81,16.5,13.81,16.66"/>
		</g>
	</g>
	<g>
		<path class="st1" d="M10.04,69c-0.11,0-0.2-0.09-0.2-0.2V53.28c0-0.11,0.09-0.2,0.2-0.2s0.2,0.09,0.2,0.2V68.8
			C10.24,68.91,10.15,69,10.04,69z"/>
	</g>
	<g>
		<defs>
			<rect id="SVGID_00000133501999776779377070000016131109508907788717_" width="81.73" height="76.28"/>
		</defs>
		<clipPath id="SVGID_00000136372572776876026670000011996782218976639668_">
			<use xlink:href="#SVGID_00000133501999776779377070000016131109508907788717_"  style="overflow:visible;"/>
		</clipPath>
		<g style="clip-path:url(#SVGID_00000136372572776876026670000011996782218976639668_);">
			<path class="st0" d="M71.79,23.52c2.03,0,3.93,0.38,5.5,1.47v-7.03l-0.57,0.8c-0.9,1.86-2.76,3.15-4.92,3.15
				c-2.16,0-3.69-0.9-4.59-2.76l-0.38-0.38v6.16C68.28,24.03,69.98,23.52,71.79,23.52"/>
		</g>
		<g style="clip-path:url(#SVGID_00000136372572776876026670000011996782218976639668_);">
			<path class="st0" d="M77.29,25.11c-0.02,0-0.05-0.01-0.07-0.02c-1.41-0.97-3.19-1.44-5.43-1.44c-1.71,0-3.41,0.47-4.9,1.37
				c-0.04,0.02-0.09,0.02-0.13,0c-0.04-0.02-0.06-0.06-0.06-0.11v-6.16c0-0.05,0.03-0.1,0.08-0.12c0.05-0.02,0.1-0.01,0.14,0.03
				l0.38,0.38c0.01,0.01,0.02,0.02,0.02,0.03c0.87,1.81,2.34,2.69,4.47,2.69c2.05,0,3.9-1.18,4.81-3.07l0.58-0.81
				c0.03-0.04,0.09-0.06,0.14-0.05c0.05,0.02,0.09,0.07,0.09,0.12v7.03c0,0.05-0.03,0.09-0.07,0.11
				C77.33,25.11,77.31,25.11,77.29,25.11z M71.79,23.39c2.19,0,3.95,0.44,5.37,1.36v-6.41l-0.34,0.48c-0.94,1.97-2.88,3.2-5.03,3.2
				c-2.21,0-3.78-0.95-4.69-2.82l-0.15-0.15v5.63C68.44,23.84,70.1,23.39,71.79,23.39z"/>
		</g>
		<g style="clip-path:url(#SVGID_00000136372572776876026670000011996782218976639668_);">
			<path class="st1" d="M77.14,25.64c-0.06,0-0.12-0.02-0.17-0.05c-1.63-1.1-3.76-1.78-5.56-1.78c-1.86,0-3.55,0.52-5.15,1.6
				c-0.09,0.06-0.21,0.07-0.31,0.02c-0.1-0.05-0.16-0.15-0.16-0.26v-8.65h0.6v8.1c1.55-0.93,3.24-1.41,5.02-1.41
				c1.74,0,3.77,0.6,5.43,1.59v-8.39h0.6v8.93c0,0.11-0.06,0.21-0.16,0.26C77.24,25.63,77.19,25.64,77.14,25.64z"/>
		</g>
		<g style="clip-path:url(#SVGID_00000136372572776876026670000011996782218976639668_);">
			<path class="st1" d="M77.29,76.28c-0.17,0-0.3-0.13-0.3-0.3v-7.02c0-0.17,0.13-0.3,0.3-0.3s0.3,0.13,0.3,0.3v7.02
				C77.59,76.15,77.46,76.28,77.29,76.28z M65.95,76.28c-0.17,0-0.3-0.13-0.3-0.3v-7.02c0-0.17,0.13-0.3,0.3-0.3s0.3,0.13,0.3,0.3
				v7.02C66.25,76.15,66.12,76.28,65.95,76.28z"/>
		</g>
	</g>
	<g>
		<path class="st1" d="M77.29,43.16c-0.19,0-0.35-0.16-0.35-0.35v-9.43c0-0.19,0.16-0.35,0.35-0.35s0.35,0.16,0.35,0.35v9.43
			C77.64,43.01,77.48,43.16,77.29,43.16z"/>
	</g>
	<g>
		<defs>
			<rect id="SVGID_00000106122818518487951090000006268285594753033382_" width="81.73" height="76.28"/>
		</defs>
		<clipPath id="SVGID_00000031199758884544515870000017239575856726536358_">
			<use xlink:href="#SVGID_00000106122818518487951090000006268285594753033382_"  style="overflow:visible;"/>
		</clipPath>
		<g style="clip-path:url(#SVGID_00000031199758884544515870000017239575856726536358_);">
			<path class="st1" d="M81.36,69.01H61.81c-0.17,0-0.3-0.13-0.3-0.3V33.7c0-5.69,4.61-10.52,10.07-10.56c0.02,0,0.04,0,0.06,0
				c2.5,0,4.92,1.03,6.82,2.91c2.06,2.03,3.25,4.82,3.26,7.65c0,0,0,0,0,0l-0.07,35.01C81.66,68.88,81.53,69.01,81.36,69.01z
				 M62.11,68.41h18.95l0.07-34.71c-0.02-2.67-1.14-5.3-3.08-7.23c-1.8-1.78-4.09-2.74-6.45-2.73c-5.14,0.04-9.48,4.6-9.48,9.96
				V68.41z"/>
		</g>
		<g style="clip-path:url(#SVGID_00000031199758884544515870000017239575856726536358_);">
			<path class="st0" d="M77.14,14.89c-0.64-2.1-2.59-3.63-4.91-3.63c-2.31,0-4.27,1.53-4.9,3.63H77.14z"/>
		</g>
		<g style="clip-path:url(#SVGID_00000031199758884544515870000017239575856726536358_);">
			<path class="st0" d="M77.14,15.02h-9.81c-0.04,0-0.08-0.02-0.1-0.05c-0.02-0.03-0.03-0.07-0.02-0.11
				c0.68-2.23,2.7-3.72,5.03-3.72c2.33,0,4.35,1.5,5.03,3.72c0.01,0.04,0,0.08-0.02,0.11C77.22,15,77.18,15.02,77.14,15.02z
				 M67.5,14.77h9.46c-0.69-2.03-2.57-3.38-4.73-3.38C70.08,11.38,68.19,12.74,67.5,14.77z"/>
		</g>
		<g style="clip-path:url(#SVGID_00000031199758884544515870000017239575856726536358_);">
			<path class="st1" d="M71.62,22.07c-3.21,0-5.82-2.61-5.82-5.82c0-3.21,2.61-5.82,5.82-5.82c3.21,0,5.82,2.61,5.82,5.82
				C77.44,19.46,74.83,22.07,71.62,22.07z M71.62,11.03c-2.88,0-5.22,2.34-5.22,5.22c0,2.88,2.34,5.22,5.22,5.22
				c2.88,0,5.22-2.34,5.22-5.22C76.84,13.38,74.5,11.03,71.62,11.03z"/>
		</g>
	</g>
	<g>
		<rect x="66.39" y="14.71" class="st1" width="10.47" height="0.4"/>
	</g>
	<g>
		<defs>
			<rect id="SVGID_00000174594583968204222760000006248485616857924753_" width="81.73" height="76.28"/>
		</defs>
		<clipPath id="SVGID_00000096035560136072222140000008418456497595903141_">
			<use xlink:href="#SVGID_00000174594583968204222760000006248485616857924753_"  style="overflow:visible;"/>
		</clipPath>
		<g style="clip-path:url(#SVGID_00000096035560136072222140000008418456497595903141_);">
			<path class="st1" d="M68.14,16.58c0,0.16-0.13,0.29-0.29,0.29c-0.16,0-0.29-0.13-0.29-0.29c0-0.16,0.13-0.29,0.29-0.29
				C68.01,16.29,68.14,16.42,68.14,16.58"/>
		</g>
		<g style="clip-path:url(#SVGID_00000096035560136072222140000008418456497595903141_);">
			<path class="st1" d="M72.13,16.58c0,0.16-0.13,0.29-0.29,0.29c-0.16,0-0.29-0.13-0.29-0.29c0-0.16,0.13-0.29,0.29-0.29
				C72,16.29,72.13,16.42,72.13,16.58"/>
		</g>
	</g>
	<g>
		<polygon class="st0" points="47.69,0.13 47.69,13.92 56.08,13.92 62.63,16.97 60.76,10.56 60.76,7.6 60.76,0.13 		"/>
	</g>
	<g>
		<path class="st0" d="M62.63,17.1c-0.02,0-0.04,0-0.05-0.01l-6.52-3.04h-8.36c-0.07,0-0.13-0.06-0.13-0.13V0.13
			c0-0.07,0.06-0.13,0.13-0.13h13.07c0.07,0,0.13,0.06,0.13,0.13v10.42l1.86,6.39c0.01,0.05,0,0.1-0.04,0.13
			C62.68,17.09,62.66,17.1,62.63,17.1z M47.82,13.8h8.26c0.02,0,0.04,0,0.05,0.01l6.29,2.93l-1.79-6.14c0-0.01,0-0.02,0-0.04V0.25
			H47.82V13.8z"/>
	</g>
	<g>
		<path class="st1" d="M63.57,17.66c-0.03,0-0.06-0.01-0.1-0.02l-6.5-3.03h-9.07c-0.12,0-0.23-0.1-0.23-0.23V0.59
			c0-0.12,0.1-0.23,0.23-0.23h13.8c0.12,0,0.23,0.1,0.23,0.23v10.4l1.85,6.38c0.02,0.08,0,0.18-0.07,0.23
			C63.68,17.64,63.63,17.66,63.57,17.66z M48.14,14.16h8.89c0.03,0,0.07,0.01,0.1,0.02l6.09,2.84l-1.72-5.93
			c-0.01-0.02-0.01-0.04-0.01-0.06V0.82H48.14V14.16z"/>
	</g>
	<g>
		<path class="st1" d="M58.56,10.85h-8.03c-0.08,0-0.15-0.07-0.15-0.15s0.07-0.15,0.15-0.15h8.03c0.08,0,0.15,0.07,0.15,0.15
			S58.64,10.85,58.56,10.85z M58.56,8.89h-8.03c-0.08,0-0.15-0.07-0.15-0.15s0.07-0.15,0.15-0.15h8.03c0.08,0,0.15,0.07,0.15,0.15
			S58.64,8.89,58.56,8.89z M58.56,6.92h-8.03c-0.08,0-0.15-0.07-0.15-0.15s0.07-0.15,0.15-0.15h8.03c0.08,0,0.15,0.07,0.15,0.15
			S58.64,6.92,58.56,6.92z M58.56,4.96h-8.03c-0.08,0-0.15-0.07-0.15-0.15s0.07-0.15,0.15-0.15h8.03c0.08,0,0.15,0.07,0.15,0.15
			S58.64,4.96,58.56,4.96z M58.56,3h-8.03c-0.08,0-0.15-0.07-0.15-0.15s0.07-0.15,0.15-0.15h8.03c0.08,0,0.15,0.07,0.15,0.15
			S58.64,3,58.56,3z"/>
	</g>
	<g>
		<path class="st1" d="M71.49,68.74c-0.11,0-0.2-0.09-0.2-0.2V23.65c0-0.11,0.09-0.2,0.2-0.2s0.2,0.09,0.2,0.2v44.89
			C71.69,68.65,71.6,68.74,71.49,68.74z"/>
	</g>
	<g>
		<path class="st1" d="M65.95,43.16c-0.19,0-0.35-0.16-0.35-0.35v-9.43c0-0.19,0.16-0.35,0.35-0.35s0.35,0.16,0.35,0.35v9.43
			C66.3,43.01,66.14,43.16,65.95,43.16z"/>
	</g>
	<g>
		<path class="st1" d="M41.13,43.16c-0.19,0-0.35-0.16-0.35-0.35v-9.43c0-0.19,0.16-0.35,0.35-0.35s0.35,0.16,0.35,0.35v9.43
			C41.48,43.01,41.32,43.16,41.13,43.16z"/>
	</g>
</g>
</svg>
