<?xml version="1.0" encoding="utf-8"?>
<!-- Generator: Adobe Illustrator 26.0.2, SVG Export Plug-In . SVG Version: 6.00 Build 0)  -->
<svg version="1.1" id="Ebene_1" xmlns="http://www.w3.org/2000/svg" xmlns:xlink="http://www.w3.org/1999/xlink" x="0px" y="0px"
	 viewBox="0 0 34.94 37.62" style="enable-background:new 0 0 34.94 37.62;" xml:space="preserve">
<style type="text/css">
	.st0{fill:#E59C00;}
	.st1{fill:#2B2961;}
	.st2{fill:#FFFFFF;}
	.st3{clip-path:url(#SVGID_00000005230327892156413200000015695879552191555725_);}
	.st4{clip-path:url(#SVGID_00000034772009874012240000000016270590522711341970_);}
	.st5{clip-path:url(#SVGID_00000100350714328680184940000005050367228831170979_);}
	.st6{clip-path:url(#SVGID_00000063635257176293763860000008220882202547073198_);}
	.st7{clip-path:url(#SVGID_00000067949706311047169410000001741684131863096454_);}
	.st8{clip-path:url(#SVGID_00000067194378378810734560000009244126155087435192_);}
	.st9{clip-path:url(#SVGID_00000011735437112737321400000000176567706739188124_);}
	.st10{clip-path:url(#SVGID_00000143614593543459018740000008759890292583944350_);}
	.st11{clip-path:url(#SVGID_00000109729157993059692730000010421394596126427813_);}
	.st12{clip-path:url(#SVGID_00000023968185695612560260000018307696633423782529_);}
	.st13{clip-path:url(#SVGID_00000054231466682918482920000005301620343768180391_);}
	.st14{clip-path:url(#SVGID_00000047742321798313685140000006053103029029734584_);}
	.st15{clip-path:url(#SVGID_00000124842683828310969480000017069249055562593415_);}
	.st16{clip-path:url(#SVGID_00000158713623820653177010000017309578193350404522_);}
	.st17{clip-path:url(#SVGID_00000047060121327278864040000013785674517710993031_);}
	.st18{clip-path:url(#SVGID_00000054950300042081350940000007997371234554137502_);}
	.st19{clip-path:url(#SVGID_00000120527297320027185110000015609836120717372820_);}
	.st20{clip-path:url(#SVGID_00000183223053970322375840000016538385379063178113_);}
	.st21{clip-path:url(#SVGID_00000046323766893180689160000017383479176917219205_);}
	.st22{clip-path:url(#SVGID_00000154418328568600946500000002691272406786472105_);}
	.st23{clip-path:url(#SVGID_00000023270596304546827390000005795639877325435266_);}
	.st24{clip-path:url(#SVGID_00000036940882184150456420000008750034618832769457_);}
	.st25{clip-path:url(#SVGID_00000114774315713208049860000014927402650796308375_);}
	.st26{clip-path:url(#SVGID_00000176759156801484405360000002504505183954166457_);}
	.st27{clip-path:url(#SVGID_00000058567497943201758120000004047980714863692952_);}
	.st28{clip-path:url(#SVGID_00000002373126936034377300000001417431645534658694_);}
	.st29{clip-path:url(#SVGID_00000036224044430964996960000015105064116864546445_);}
	.st30{clip-path:url(#SVGID_00000104665072023703065310000009088716412347214494_);}
	.st31{clip-path:url(#SVGID_00000023280236589570378120000002396785008287423415_);}
	.st32{clip-path:url(#SVGID_00000085246504520709684790000005134007270925647745_);}
	.st33{clip-path:url(#SVGID_00000125584038825842621740000016134036091650950571_);}
	.st34{clip-path:url(#SVGID_00000101085425639842816440000004017359318896599982_);}
	.st35{clip-path:url(#SVGID_00000089573629815852992930000002340650075060488583_);}
	.st36{clip-path:url(#SVGID_00000111171154889953495350000004969549987633004195_);}
	.st37{clip-path:url(#SVGID_00000041991911997389482230000015826674364800076732_);}
	.st38{clip-path:url(#SVGID_00000141427141903108562130000013997687460649931167_);}
	.st39{clip-path:url(#SVGID_00000180353805837935792080000002390037989780951993_);}
	.st40{clip-path:url(#SVGID_00000085223430459030500600000010071616506375802784_);}
	.st41{clip-path:url(#SVGID_00000143617545632914083710000005100966307097710209_);}
	.st42{clip-path:url(#SVGID_00000114033828825203793510000010994865739952442265_);}
	.st43{clip-path:url(#SVGID_00000158716563806307259510000016275934934161081267_);}
	.st44{clip-path:url(#SVGID_00000010297108166512189070000006370184873131986105_);}
	.st45{clip-path:url(#SVGID_00000037654638329597447900000002632483475828329620_);}
	.st46{clip-path:url(#SVGID_00000154426362672645042070000014560749112599592855_);}
	.st47{clip-path:url(#SVGID_00000028301504048652941340000005863036258626914231_);}
	.st48{clip-path:url(#SVGID_00000122687420888417307430000000091837351462006450_);}
	.st49{clip-path:url(#SVGID_00000046327035558183791260000005881954573260007353_);}
	.st50{clip-path:url(#SVGID_00000180326672540259950030000012264129893159843472_);}
	.st51{clip-path:url(#SVGID_00000158004736641650153410000010539187499486008962_);}
	.st52{clip-path:url(#SVGID_00000108278172887438132380000008015719473370441615_);}
	.st53{clip-path:url(#SVGID_00000038400338200184534800000001762495098575483273_);}
	.st54{clip-path:url(#SVGID_00000115476439971759485260000000828088384339930275_);}
	.st55{clip-path:url(#SVGID_00000085955134258054813740000018363733889675918269_);}
	.st56{clip-path:url(#SVGID_00000137831734792628678110000003914229211447654024_);}
	.st57{clip-path:url(#SVGID_00000032637148349313562430000011155657243833929634_);}
	.st58{clip-path:url(#SVGID_00000092424931408463123420000009018540701556433080_);}
	.st59{clip-path:url(#SVGID_00000096020791626691296360000014043742383557880973_);}
	.st60{clip-path:url(#SVGID_00000173844883129223753990000009384029095293614992_);}
	.st61{clip-path:url(#SVGID_00000027563916677087040470000010279860852844284038_);}
	.st62{clip-path:url(#SVGID_00000170264190904528059100000017611445953534241435_);}
	.st63{clip-path:url(#SVGID_00000064318406098527333940000002854300123364550542_);}
	.st64{clip-path:url(#SVGID_00000155140259378560295240000001049162469278324122_);}
	.st65{clip-path:url(#SVGID_00000182499575258998009710000014197342164753524122_);}
	.st66{clip-path:url(#SVGID_00000158712790010274805620000014138567901251579579_);}
	.st67{clip-path:url(#SVGID_00000076595708878639796210000003950501890467423659_);}
	.st68{clip-path:url(#SVGID_00000178923494409371860800000011101943732650153097_);}
	.st69{clip-path:url(#SVGID_00000166643520003326606370000006692193885387445426_);}
	.st70{clip-path:url(#SVGID_00000146482747021635286590000000493978163473281726_);}
	.st71{clip-path:url(#SVGID_00000163038991149289708640000003937395781765600422_);}
	.st72{clip-path:url(#SVGID_00000076595591031123856400000016208597597725949330_);}
	.st73{clip-path:url(#SVGID_00000153700612431021907050000005982648809286749087_);}
	.st74{clip-path:url(#SVGID_00000087412782192078789040000010803590418840375944_);}
	.st75{clip-path:url(#SVGID_00000101068436700799032670000018120323823285916834_);}
	.st76{clip-path:url(#SVGID_00000174601699978365144560000003007260187783078539_);}
	.st77{clip-path:url(#SVGID_00000025437299112205312960000005064890264149461940_);}
	.st78{clip-path:url(#SVGID_00000130620933258719347830000004527414865834140840_);}
	.st79{clip-path:url(#SVGID_00000047746952786015152200000002769027837141347255_);}
	.st80{clip-path:url(#SVGID_00000024713253943019860100000006160590705034247328_);}
	.st81{clip-path:url(#SVGID_00000032650157654678356670000000048978888386788998_);}
	.st82{clip-path:url(#SVGID_00000031191938360739080660000015983949543781474699_);}
	.st83{fill:none;}
	.st84{clip-path:url(#SVGID_00000013899374029599111550000013312423979504414881_);}
	.st85{clip-path:url(#SVGID_00000025406182746269794280000013065751189282991038_);}
	.st86{clip-path:url(#SVGID_00000055671040353991421240000004198519338215285172_);}
	.st87{clip-path:url(#SVGID_00000004532899122771290770000000004583064796627878_);}
	.st88{clip-path:url(#SVGID_00000175302058742371407770000005661378562670349224_);}
	.st89{clip-path:url(#SVGID_00000016771380882296184520000011670041590890583700_);}
	.st90{clip-path:url(#SVGID_00000010294763548821570280000007337741579491977344_);}
	.st91{clip-path:url(#SVGID_00000057870578781947956300000006797979732478856320_);}
	.st92{clip-path:url(#SVGID_00000104702113503247968200000016256535568644302723_);}
	.st93{clip-path:url(#SVGID_00000119796403684686078300000014124449043327565498_);}
	.st94{clip-path:url(#SVGID_00000034053475334549079730000012722317404567780481_);}
	.st95{clip-path:url(#SVGID_00000147194113322280132110000007121509631045503894_);}
	.st96{clip-path:url(#SVGID_00000008848550020116158710000010848029369262620314_);}
	.st97{clip-path:url(#SVGID_00000050643203629036921080000001264224300293055916_);}
	.st98{clip-path:url(#SVGID_00000127014119700411461520000011099940376768755073_);}
	.st99{clip-path:url(#SVGID_00000115481228347226801670000018318537731581804935_);}
	.st100{clip-path:url(#SVGID_00000090287354680859691360000017821425113769988542_);}
	.st101{clip-path:url(#SVGID_00000001644779403683273720000010470739587998645947_);}
	.st102{clip-path:url(#SVGID_00000056426168280959705860000001217830833580751265_);}
	.st103{clip-path:url(#SVGID_00000084506316638238905440000003104143036125635256_);}
	.st104{clip-path:url(#SVGID_00000040558499624210574690000007365410959690386324_);}
	.st105{clip-path:url(#SVGID_00000098920623917480091760000013827020913779933316_);}
	.st106{clip-path:url(#SVGID_00000045581717052746761750000009398680727936651676_);}
	.st107{clip-path:url(#SVGID_00000147901900919373857940000013755605639188587400_);}
	.st108{clip-path:url(#SVGID_00000140006868000218969020000010659207558486460309_);}
	.st109{clip-path:url(#SVGID_00000072241173228610118310000000025933843537623475_);}
	.st110{clip-path:url(#SVGID_00000090270947297096184480000011929480007590948538_);}
	.st111{clip-path:url(#SVGID_00000004509209257564300490000017401143319075487647_);}
	.st112{clip-path:url(#SVGID_00000152227266472621655530000015123008427419206069_);}
	.st113{clip-path:url(#SVGID_00000178912688026394428110000017552699573514062513_);}
	.st114{clip-path:url(#SVGID_00000029735350131771962800000007041349033731942322_);}
	.st115{clip-path:url(#SVGID_00000012447877641330314190000001873660430527954326_);}
	.st116{clip-path:url(#SVGID_00000088816408211733884170000002167613487119251600_);}
	.st117{clip-path:url(#SVGID_00000013170830827643406810000002584628790105162402_);}
	.st118{clip-path:url(#SVGID_00000021086107310103062750000006794611345882918575_);}
	.st119{clip-path:url(#SVGID_00000113341344396849373360000014394848969105319331_);}
	.st120{clip-path:url(#SVGID_00000060743545192279532830000008306259559695981746_);}
	.st121{clip-path:url(#SVGID_00000112634727359347789320000004180908126572068739_);}
	.st122{clip-path:url(#SVGID_00000181781892142207929960000010491237072822119836_);}
	.st123{clip-path:url(#SVGID_00000070806245051544670850000001354530033350997377_);}
	.st124{clip-path:url(#SVGID_00000134234532664606714550000001400423770455531447_);}
	.st125{clip-path:url(#SVGID_00000093140042043620937260000010113853168174365824_);}
	.st126{clip-path:url(#SVGID_00000037677018259327900090000000432038546259557293_);}
	.st127{clip-path:url(#SVGID_00000020360848377365520810000001146013319690336697_);}
	.st128{clip-path:url(#SVGID_00000072967948524564552490000008404832423700179619_);}
	.st129{clip-path:url(#SVGID_00000157266184570921938950000009814110901769343108_);}
	.st130{clip-path:url(#SVGID_00000183960574213635307900000008743490604161241241_);}
	.st131{clip-path:url(#SVGID_00000098931689542135567200000010656279664497891499_);}
	.st132{clip-path:url(#SVGID_00000084524971762325901550000008238406615200564390_);}
	.st133{clip-path:url(#SVGID_00000016762847374146948010000005455733360825450889_);}
	.st134{clip-path:url(#SVGID_00000108276302114098786170000000383416864572416917_);}
	.st135{clip-path:url(#SVGID_00000124139340804556641220000006800032127658430621_);}
	.st136{clip-path:url(#SVGID_00000163784993471811444960000002042724598334445185_);}
	.st137{clip-path:url(#SVGID_00000155829688270078037350000008569979320292212867_);}
	.st138{clip-path:url(#SVGID_00000016043171127751567470000012427231246600448168_);}
	.st139{clip-path:url(#SVGID_00000043453565006320842870000017260221626958353331_);}
	.st140{clip-path:url(#SVGID_00000020394421095067929720000016684080059397422475_);}
	.st141{clip-path:url(#SVGID_00000066479413052722716920000000223413161601997497_);}
	.st142{clip-path:url(#SVGID_00000071532889345045554150000011721628263617992121_);}
	.st143{clip-path:url(#SVGID_00000064352211901785704660000015286866622200756119_);}
	.st144{clip-path:url(#SVGID_00000145757326932740793010000011411296670145192349_);}
	.st145{clip-path:url(#SVGID_00000060719047695078111530000012794099238471183522_);}
	.st146{clip-path:url(#SVGID_00000066496825891589705760000007276432527243357571_);}
	.st147{clip-path:url(#SVGID_00000043416777457807148640000008593591622331484554_);}
	.st148{clip-path:url(#SVGID_00000111173339994697533990000012485375244029061008_);}
	.st149{clip-path:url(#SVGID_00000009569716037607387400000009151299576444126889_);}
	.st150{clip-path:url(#SVGID_00000076601012072833673820000004083540962178329754_);}
	.st151{clip-path:url(#SVGID_00000142898109043738302700000013830332539037205176_);}
	.st152{clip-path:url(#SVGID_00000142158335954492111750000002580148662878459545_);}
	.st153{clip-path:url(#SVGID_00000089534132098596475720000015910294381109144962_);}
	.st154{clip-path:url(#SVGID_00000165225760265199483190000003628717361942582915_);}
	.st155{clip-path:url(#SVGID_00000083076913870717607070000014534746074294932614_);}
	.st156{clip-path:url(#SVGID_00000071520996030673218360000010447782390569523893_);}
	.st157{clip-path:url(#SVGID_00000053537444534115968000000011886605063112031676_);}
	.st158{clip-path:url(#SVGID_00000139254390279640361470000017770181995581717172_);}
	.st159{clip-path:url(#SVGID_00000128483973946482847340000013259316844220043703_);}
	.st160{clip-path:url(#SVGID_00000003084322788601886280000002753497595931607717_);}
	.st161{clip-path:url(#SVGID_00000147914023556988479710000003184134269650472321_);}
	.st162{clip-path:url(#SVGID_00000154420468005360916150000018107932523428800924_);}
	.st163{clip-path:url(#SVGID_00000029745388369808803930000007706376913740691873_);}
	.st164{clip-path:url(#SVGID_00000013891911238831181440000015307468097698489998_);}
	.st165{clip-path:url(#SVGID_00000070080938145701611740000010016382353785283252_);}
	.st166{clip-path:url(#SVGID_00000040535339360078734830000009129538641171244444_);}
	.st167{clip-path:url(#SVGID_00000041266463286288648830000010838129601903198143_);}
	.st168{clip-path:url(#SVGID_00000155855094197700833830000000696442138244656015_);}
	.st169{clip-path:url(#SVGID_00000125592535975016772490000007421146357312204973_);}
	.st170{clip-path:url(#SVGID_00000098187640500565047100000008269275334975066759_);}
	.st171{clip-path:url(#SVGID_00000069361872701790163980000003590104218535219352_);}
	.st172{clip-path:url(#SVGID_00000088092381254307479840000016363639343433216692_);}
	.st173{clip-path:url(#SVGID_00000102526129413190401200000001957120499106274491_);}
	.st174{clip-path:url(#SVGID_00000034073941315923819540000004292454851141651876_);}
	.st175{clip-path:url(#SVGID_00000178170522920990388740000010153588414305359777_);}
	.st176{clip-path:url(#SVGID_00000164510940136470767700000001631047147633877643_);}
	.st177{clip-path:url(#SVGID_00000006676487370894217620000011416882110348608912_);}
	.st178{clip-path:url(#SVGID_00000082351649526187723110000006782112635426102920_);}
	.st179{clip-path:url(#SVGID_00000072988046376827183220000014692755183591215744_);}
	.st180{clip-path:url(#SVGID_00000046327355077921380480000000468861059472222902_);}
	.st181{clip-path:url(#SVGID_00000079453886018427555220000017502052216794233021_);}
	.st182{clip-path:url(#SVGID_00000124164160619468406840000017872199363418939069_);}
	.st183{clip-path:url(#SVGID_00000151525654630601103250000011088523203418360493_);}
	.st184{clip-path:url(#SVGID_00000107569119868806502870000009434450589523695255_);}
	.st185{clip-path:url(#SVGID_00000021080726153180516500000007703785641839770512_);}
	.st186{clip-path:url(#SVGID_00000050661014070708086040000007962228484399508909_);}
</style>
<g>
	<g>
		<g>
			<polygon class="st0" points="2.7,31.62 0.82,37.49 6.69,35.35 13.12,28.45 9.13,24.73 			"/>
		</g>
	</g>
	<g>
		<defs>
			<rect id="SVGID_00000061445675563362759750000000261485065367720097_" y="0" width="34.94" height="37.62"/>
		</defs>
		<clipPath id="SVGID_00000165227676644113878530000008925181778974201764_">
			<use xlink:href="#SVGID_00000061445675563362759750000000261485065367720097_"  style="overflow:visible;"/>
		</clipPath>
		<g style="clip-path:url(#SVGID_00000165227676644113878530000008925181778974201764_);">
			<g>
				<path class="st0" d="M0.82,37.62c-0.03,0-0.06-0.01-0.09-0.03C0.7,37.55,0.68,37.5,0.7,37.45l1.88-5.87
					c0.01-0.02,0.02-0.03,0.03-0.05l6.42-6.89c0.02-0.02,0.05-0.04,0.09-0.04c0.03,0,0.06,0.01,0.09,0.03l3.99,3.73
					c0.05,0.05,0.05,0.13,0.01,0.18l-6.43,6.89c-0.01,0.01-0.03,0.03-0.05,0.03l-5.88,2.15C0.85,37.61,0.83,37.62,0.82,37.62z
					 M2.81,31.69l-1.8,5.6l5.61-2.05l6.32-6.78l-3.81-3.55L2.81,31.69z"/>
			</g>
		</g>
		<g style="clip-path:url(#SVGID_00000165227676644113878530000008925181778974201764_);">
			<g>
				<path class="st0" d="M34.81,4.91c0-2.16-1.75-3.91-3.91-3.91c-1.16,0-2.2,0.52-2.91,1.33l0,0l-0.05,0.03l5.75,5.27
					c0,0,0.01,0.01,0.04-0.02l0.01-0.01C34.4,6.89,34.81,5.95,34.81,4.91"/>
			</g>
		</g>
		<g style="clip-path:url(#SVGID_00000165227676644113878530000008925181778974201764_);">
			<g>
				<path class="st0" d="M33.69,7.75c-0.04,0-0.08-0.02-0.1-0.05l-5.74-5.26c-0.03-0.03-0.04-0.06-0.04-0.1
					c0-0.04,0.02-0.07,0.06-0.09l0.04-0.02c0.77-0.86,1.86-1.35,2.99-1.35c2.23,0,4.04,1.81,4.04,4.04c0,1.03-0.39,2.01-1.11,2.77
					C33.79,7.71,33.75,7.75,33.69,7.75z M28.12,2.35l5.57,5.1c0.65-0.71,1-1.61,1-2.55c0-2.09-1.7-3.79-3.79-3.79
					C29.85,1.12,28.84,1.57,28.12,2.35z"/>
			</g>
		</g>
		<g style="clip-path:url(#SVGID_00000165227676644113878530000008925181778974201764_);">
			<g>
				<path class="st1" d="M0.29,37.2c-0.07,0-0.14-0.03-0.2-0.08c-0.08-0.08-0.11-0.19-0.07-0.29l1.88-5.87
					c0.01-0.04,0.03-0.08,0.06-0.11l6.42-6.89c0.05-0.06,0.12-0.09,0.2-0.09c0.07-0.01,0.15,0.02,0.2,0.08l3.99,3.73
					c0.12,0.11,0.12,0.29,0.01,0.4l-6.42,6.89C6.34,35,6.3,35.02,6.26,35.04l-5.88,2.15C0.35,37.19,0.32,37.2,0.29,37.2z
					 M2.42,31.19l-1.69,5.25L6,34.52l6.18-6.63l-3.58-3.34L2.42,31.19z"/>
			</g>
		</g>
		<g style="clip-path:url(#SVGID_00000165227676644113878530000008925181778974201764_);">
			<g>
				
					<rect x="-1.03" y="33.09" transform="matrix(0.6889 -0.7248 0.7248 0.6889 -23.0499 13.0335)" class="st1" width="9.38" height="0.57"/>
			</g>
		</g>
		<g style="clip-path:url(#SVGID_00000165227676644113878530000008925181778974201764_);">
			<g>
				<path class="st2" d="M7.86,28.94c-0.34-0.32-0.88-0.3-1.19,0.04c-0.32,0.34-0.3,0.88,0.04,1.19c0.34,0.32,0.88,0.3,1.19-0.04
					C8.22,29.79,8.2,29.26,7.86,28.94"/>
			</g>
		</g>
		<g style="clip-path:url(#SVGID_00000165227676644113878530000008925181778974201764_);">
			<g>
				<path class="st1" d="M7.29,30.69c-0.29,0-0.56-0.11-0.77-0.3c-0.22-0.2-0.35-0.48-0.36-0.79c-0.01-0.3,0.1-0.59,0.3-0.81
					c0.21-0.22,0.48-0.35,0.79-0.36c0.3-0.01,0.59,0.1,0.81,0.3h0c0.22,0.21,0.35,0.49,0.36,0.79c0.01,0.3-0.1,0.59-0.3,0.81
					c-0.21,0.22-0.48,0.35-0.79,0.36C7.31,30.69,7.3,30.69,7.29,30.69z M7.29,29c-0.01,0-0.01,0-0.02,0
					c-0.15,0.01-0.29,0.07-0.39,0.18c-0.1,0.11-0.16,0.25-0.15,0.4c0.01,0.15,0.07,0.29,0.18,0.39c0.11,0.1,0.25,0.17,0.4,0.15
					c0.15,0,0.29-0.07,0.39-0.18c0.1-0.11,0.16-0.25,0.15-0.4c0-0.15-0.07-0.29-0.18-0.39c0,0,0,0,0,0C7.56,29.05,7.43,29,7.29,29z"
					/>
			</g>
		</g>
	</g>
	<g>
		<g>
			
				<rect x="5.65" y="11.22" transform="matrix(0.6756 -0.7373 0.7373 0.6756 -4.7365 20.0338)" class="st2" width="29.49" height="8.36"/>
		</g>
	</g>
	<g>
		<g>
			<path class="st1" d="M13.52,29.38c-0.07,0-0.14-0.02-0.19-0.08l-6.17-5.65c-0.06-0.05-0.09-0.12-0.09-0.2
				c0-0.08,0.02-0.15,0.07-0.21L27.06,1.51c0.05-0.06,0.12-0.09,0.2-0.09c0.07,0,0.15,0.02,0.21,0.07l6.17,5.65
				c0.12,0.11,0.12,0.29,0.02,0.4L13.73,29.29C13.67,29.35,13.6,29.38,13.52,29.38z M7.76,23.43l5.75,5.26L33.04,7.37l-5.74-5.26
				L7.76,23.43z"/>
		</g>
	</g>
	<g>
		<defs>
			<rect id="SVGID_00000155138851298468434400000001300339009372861846_" y="0" width="34.94" height="37.62"/>
		</defs>
		<clipPath id="SVGID_00000125572461819277806660000004558983058813376139_">
			<use xlink:href="#SVGID_00000155138851298468434400000001300339009372861846_"  style="overflow:visible;"/>
		</clipPath>
		<g style="clip-path:url(#SVGID_00000125572461819277806660000004558983058813376139_);">
			<g>
				<path class="st1" d="M22.86,19.19c-0.07,0-0.14-0.03-0.19-0.08l-6.17-5.65c-0.12-0.11-0.12-0.29-0.02-0.4L27.06,1.51
					c0.01-0.01,0.02-0.02,0.03-0.03C27.95,0.54,29.15,0,30.4,0c2.47,0,4.48,2.01,4.48,4.48c0,1.14-0.44,2.23-1.23,3.07
					c-0.06,0.07-0.09,0.1-0.11,0.12L23.07,19.1c-0.05,0.06-0.12,0.09-0.2,0.09C22.86,19.19,22.86,19.19,22.86,19.19z M17.09,13.24
					l5.74,5.26L33.12,7.28l0.27,0.13l-0.22-0.19c0,0,0.05-0.05,0.05-0.06c0.7-0.74,1.08-1.69,1.08-2.69c0-2.15-1.75-3.91-3.91-3.91
					c-1.1,0-2.16,0.48-2.91,1.32c-0.01,0.01-0.02,0.02-0.03,0.03L17.09,13.24z"/>
			</g>
		</g>
		<g style="clip-path:url(#SVGID_00000125572461819277806660000004558983058813376139_);">
			<g>
				<path class="st1" d="M33.33,7.76c-0.07,0-0.13-0.02-0.18-0.07c-0.07-0.06-0.1-0.14-0.1-0.23l-6.02-5.51
					c-0.06-0.06-0.1-0.14-0.09-0.23c0.01-0.09,0.05-0.17,0.12-0.22c0.01-0.01,0.02-0.01,0.03-0.02C27.94,0.54,29.15,0,30.4,0
					c2.47,0,4.48,2.01,4.48,4.48c0,1.14-0.44,2.23-1.23,3.07c-0.06,0.07-0.09,0.1-0.11,0.12C33.48,7.73,33.41,7.76,33.33,7.76z
					 M27.64,1.73l5.74,5.26c0.6-0.71,0.93-1.59,0.93-2.51c0-2.15-1.75-3.91-3.91-3.91C29.37,0.57,28.38,0.99,27.64,1.73z"/>
			</g>
		</g>
	</g>
</g>
</svg>
