<?xml version="1.0" encoding="utf-8"?>
<!-- Generator: Adobe Illustrator 26.0.2, SVG Export Plug-In . SVG Version: 6.00 Build 0)  -->
<svg version="1.1" id="Ebene_1" xmlns="http://www.w3.org/2000/svg" xmlns:xlink="http://www.w3.org/1999/xlink" x="0px" y="0px"
	 viewBox="0 0 34.33 43.27" style="enable-background:new 0 0 34.33 43.27;" xml:space="preserve">
<style type="text/css">
	.st0{fill:#E59C00;}
	.st1{fill:#2B2961;}
	.st2{fill:#FFFFFF;}
	.st3{clip-path:url(#SVGID_00000178187570547885264040000003332524281673490068_);}
	.st4{clip-path:url(#SVGID_00000088109757858676797630000011826277984334624945_);}
	.st5{clip-path:url(#SVGID_00000165956855452377734090000018201291861925184161_);}
	.st6{clip-path:url(#SVGID_00000169540416368252395380000011212037067544967853_);}
	.st7{clip-path:url(#SVGID_00000121265851667266059050000006757578504974858175_);}
	.st8{clip-path:url(#SVGID_00000028308162595288653840000001213722222142826371_);}
	.st9{clip-path:url(#SVGID_00000154384973068261628720000011546089376904196007_);}
	.st10{clip-path:url(#SVGID_00000141418928454244646830000013589948171518591893_);}
	.st11{clip-path:url(#SVGID_00000114754045522412826610000001022853429146084245_);}
	.st12{clip-path:url(#SVGID_00000128477143340033879070000016421033426418485147_);}
	.st13{clip-path:url(#SVGID_00000106129509913566639610000007146352582518811793_);}
	.st14{clip-path:url(#SVGID_00000068676749836836690520000017101706620719876271_);}
	.st15{clip-path:url(#SVGID_00000155120702192761876780000010266472446360848304_);}
	.st16{clip-path:url(#SVGID_00000045597016086200297150000014454762843531440770_);}
	.st17{clip-path:url(#SVGID_00000145036542105860998580000014153412664482126725_);}
	.st18{clip-path:url(#SVGID_00000024686700093999717990000006819582750778600352_);}
	.st19{clip-path:url(#SVGID_00000070826524943534851090000012059992897938575237_);}
	.st20{clip-path:url(#SVGID_00000065062812681206599300000004388080446649875605_);}
	.st21{clip-path:url(#SVGID_00000121968394257560890550000001782416899133293206_);}
	.st22{clip-path:url(#SVGID_00000019667044234251748560000015408504119079023767_);}
	.st23{clip-path:url(#SVGID_00000170982769608767925220000018276796086522783618_);}
	.st24{clip-path:url(#SVGID_00000049190156268766650910000005170810419173697928_);}
	.st25{clip-path:url(#SVGID_00000101091285103057430980000017937351675616924073_);}
	.st26{clip-path:url(#SVGID_00000123415033683698542050000005338043854233079971_);}
	.st27{clip-path:url(#SVGID_00000045585683271177180550000011641903549187471796_);}
	.st28{clip-path:url(#SVGID_00000116956639157808992870000011545840746598297266_);}
	.st29{clip-path:url(#SVGID_00000153694822041737249870000003887503257317842327_);}
	.st30{clip-path:url(#SVGID_00000023282907246778438160000017571268502301912726_);}
	.st31{clip-path:url(#SVGID_00000131368951428891097640000009201350068105758876_);}
	.st32{clip-path:url(#SVGID_00000080165764227930582930000015861659511027998597_);}
	.st33{clip-path:url(#SVGID_00000032642946147884418860000016555594422618821525_);}
	.st34{clip-path:url(#SVGID_00000074417564183245582900000002892762860926576782_);}
	.st35{clip-path:url(#SVGID_00000063633439225980772010000010306429700076759972_);}
	.st36{clip-path:url(#SVGID_00000048467612467750996160000001464295277041311673_);}
	.st37{clip-path:url(#SVGID_00000010297197920451162170000002047691738554510520_);}
	.st38{clip-path:url(#SVGID_00000079445700859387486090000006280964720647165367_);}
	.st39{clip-path:url(#SVGID_00000004510618681058966590000007383494299161360312_);}
	.st40{clip-path:url(#SVGID_00000042726568576690872430000002972415375451535524_);}
	.st41{clip-path:url(#SVGID_00000099645038476557026310000000908852763313843866_);}
	.st42{clip-path:url(#SVGID_00000132063096327620962110000008744937645396560015_);}
	.st43{clip-path:url(#SVGID_00000146472804421137283600000008347854368060813240_);}
	.st44{clip-path:url(#SVGID_00000060031737955503656130000006880884160390562968_);}
	.st45{clip-path:url(#SVGID_00000083084499613932338440000004407236707236346046_);}
	.st46{clip-path:url(#SVGID_00000131350007275608541910000016667831553746379933_);}
	.st47{clip-path:url(#SVGID_00000150813760166024340580000001512681973836524170_);}
	.st48{clip-path:url(#SVGID_00000152236818863123028510000018296048257714306199_);}
	.st49{clip-path:url(#SVGID_00000070086022098781848010000006416111542559906731_);}
	.st50{clip-path:url(#SVGID_00000083782777356760373230000014128649037137563282_);}
	.st51{clip-path:url(#SVGID_00000163783237861525603860000013210140242077967783_);}
	.st52{clip-path:url(#SVGID_00000124848245355761645040000011799933180504821408_);}
	.st53{clip-path:url(#SVGID_00000127735267172700709360000014529691122433045656_);}
	.st54{clip-path:url(#SVGID_00000168831368825163449420000002752890420770784671_);}
	.st55{clip-path:url(#SVGID_00000003810619282362033550000011966802065790996393_);}
	.st56{clip-path:url(#SVGID_00000043419074872041009500000009024081771940809140_);}
	.st57{clip-path:url(#SVGID_00000106106665207295423150000003769907496847011763_);}
	.st58{clip-path:url(#SVGID_00000097496728508556517840000007036405553249996457_);}
	.st59{clip-path:url(#SVGID_00000119099610743169222150000013755133667367319698_);}
	.st60{clip-path:url(#SVGID_00000156569116671232960980000008476368330462601900_);}
	.st61{clip-path:url(#SVGID_00000121279087117715227370000009952109472791887028_);}
	.st62{clip-path:url(#SVGID_00000147917572408046091250000011515826695172048774_);}
	.st63{clip-path:url(#SVGID_00000125582086710447706260000006975595535364041649_);}
	.st64{clip-path:url(#SVGID_00000163032944278519398690000000812025002646849668_);}
	.st65{clip-path:url(#SVGID_00000074431237379908307460000003708305616396227996_);}
	.st66{clip-path:url(#SVGID_00000147203331583651950480000004618233456054491292_);}
	.st67{clip-path:url(#SVGID_00000133524442208973671720000000424852532951129271_);}
	.st68{clip-path:url(#SVGID_00000088104578699901124790000005949775594780077459_);}
	.st69{clip-path:url(#SVGID_00000173872634325334455150000003831478780341234568_);}
	.st70{clip-path:url(#SVGID_00000072995582061271626410000013000661064989440417_);}
	.st71{clip-path:url(#SVGID_00000003819572356379878140000017685192966351504026_);}
	.st72{clip-path:url(#SVGID_00000057112693560460780370000001910815649322628799_);}
	.st73{clip-path:url(#SVGID_00000118387121172483189820000002802897263547268742_);}
	.st74{clip-path:url(#SVGID_00000139974769079291853040000014339370451498407570_);}
	.st75{clip-path:url(#SVGID_00000154403757299968332700000010976876055215467179_);}
	.st76{clip-path:url(#SVGID_00000052795164648533158930000008075741603199722915_);}
	.st77{clip-path:url(#SVGID_00000039131066707830389110000013436618045057620110_);}
	.st78{clip-path:url(#SVGID_00000132798459469043721610000008214474431971366295_);}
	.st79{clip-path:url(#SVGID_00000064352778954714574250000013607902512810475177_);}
	.st80{clip-path:url(#SVGID_00000005958809390415571140000005248252353334416526_);}
	.st81{clip-path:url(#SVGID_00000142159516340509258870000006818413447332750240_);}
	.st82{clip-path:url(#SVGID_00000123435911536055199020000002347065688694905218_);}
	.st83{fill:none;}
	.st84{clip-path:url(#SVGID_00000132069309403096897590000000729331557006512029_);}
	.st85{clip-path:url(#SVGID_00000053519363487556822110000000159238397473127062_);}
	.st86{clip-path:url(#SVGID_00000047780819304047797060000001187362898677599669_);}
	.st87{clip-path:url(#SVGID_00000124149489575713059250000016993804416142950582_);}
	.st88{clip-path:url(#SVGID_00000104702452000419290980000000146018910761683079_);}
	.st89{clip-path:url(#SVGID_00000170988386171624476840000009641856622647504007_);}
	.st90{clip-path:url(#SVGID_00000169538318930905134200000002221808822081743499_);}
	.st91{clip-path:url(#SVGID_00000085215751529776816880000011149009418883227527_);}
	.st92{clip-path:url(#SVGID_00000183247508351951973050000005629736771054572687_);}
	.st93{clip-path:url(#SVGID_00000129927412911497521760000012125338257928771494_);}
	.st94{clip-path:url(#SVGID_00000016043002894450177900000018255663147254887562_);}
	.st95{clip-path:url(#SVGID_00000015325191444598928540000011651217726924540051_);}
	.st96{clip-path:url(#SVGID_00000103954255608177366790000014040676947582522255_);}
	.st97{clip-path:url(#SVGID_00000169520038970364246320000012048972823613862043_);}
	.st98{clip-path:url(#SVGID_00000112594594250852235820000005526882400483446409_);}
	.st99{clip-path:url(#SVGID_00000096739091248740271630000005063544762440897188_);}
	.st100{clip-path:url(#SVGID_00000049923055445012461280000017049631866221619877_);}
	.st101{clip-path:url(#SVGID_00000153697829924504885540000012269687188738299033_);}
	.st102{clip-path:url(#SVGID_00000101080322445232912320000002117447041365474954_);}
	.st103{clip-path:url(#SVGID_00000151510133016614266340000007114441206999826602_);}
	.st104{clip-path:url(#SVGID_00000043436583807269064790000016649281705569102761_);}
	.st105{clip-path:url(#SVGID_00000176743883725753704920000004086364173369932212_);}
	.st106{clip-path:url(#SVGID_00000082345571308227861700000004424233378385967039_);}
	.st107{clip-path:url(#SVGID_00000144296906431066303490000013127634809295435452_);}
	.st108{clip-path:url(#SVGID_00000130633105217633913030000000524402541149812867_);}
	.st109{clip-path:url(#SVGID_00000141414064033912161660000003338663077677041814_);}
	.st110{clip-path:url(#SVGID_00000089549580253978109090000004809532146723522223_);}
	.st111{clip-path:url(#SVGID_00000054988734739027236290000003726334654914264750_);}
	.st112{clip-path:url(#SVGID_00000093175942632694680210000013836092565923264684_);}
	.st113{clip-path:url(#SVGID_00000085208721027953302900000003442219634690012582_);}
	.st114{clip-path:url(#SVGID_00000164488933164904341050000003507980183800730814_);}
	.st115{clip-path:url(#SVGID_00000123400440515140053370000011391318561097971850_);}
	.st116{clip-path:url(#SVGID_00000070838526772748617270000017503406374443433147_);}
	.st117{clip-path:url(#SVGID_00000165193804234407493180000000100407720058927773_);}
	.st118{clip-path:url(#SVGID_00000126282230367696331390000012249968843078332806_);}
	.st119{clip-path:url(#SVGID_00000122719774294539884540000016716891937607847842_);}
	.st120{clip-path:url(#SVGID_00000090988444620360827260000018012720490132333728_);}
	.st121{clip-path:url(#SVGID_00000087391497850405618410000013196438802816524966_);}
	.st122{clip-path:url(#SVGID_00000124124969534914614410000018147418331604779429_);}
	.st123{clip-path:url(#SVGID_00000043429284744763766440000001470317578994257575_);}
	.st124{clip-path:url(#SVGID_00000014603890720320850180000015458363214272404109_);}
	.st125{clip-path:url(#SVGID_00000079482396513222294400000002409615123969310593_);}
	.st126{clip-path:url(#SVGID_00000133509111913512575170000017764620687101323414_);}
	.st127{clip-path:url(#SVGID_00000093157240733622586510000018400279413715571082_);}
	.st128{clip-path:url(#SVGID_00000171696277916960952200000011568432618261900961_);}
	.st129{clip-path:url(#SVGID_00000145769348169375243940000014671112718740912280_);}
	.st130{clip-path:url(#SVGID_00000005960064276873401630000017616204116408784560_);}
	.st131{clip-path:url(#SVGID_00000020391868601023841290000014229866099004681142_);}
	.st132{clip-path:url(#SVGID_00000052798628481756704360000000942985610282721191_);}
	.st133{clip-path:url(#SVGID_00000046329126587399997470000001748617191283426483_);}
	.st134{clip-path:url(#SVGID_00000083060882305635271410000011797739116614117505_);}
	.st135{clip-path:url(#SVGID_00000080189618487816618620000006951182374947516573_);}
	.st136{clip-path:url(#SVGID_00000031924534143504149920000000605218579041327786_);}
	.st137{clip-path:url(#SVGID_00000090992470641116260390000011902913809959628679_);}
	.st138{clip-path:url(#SVGID_00000063618087130527843890000013936158719169463445_);}
	.st139{clip-path:url(#SVGID_00000061436516840929899280000006027560162470269101_);}
	.st140{clip-path:url(#SVGID_00000104664185785397985450000004863789358743748740_);}
	.st141{clip-path:url(#SVGID_00000159472412458464180350000015321806489832910998_);}
	.st142{clip-path:url(#SVGID_00000063629478032796086920000002387480113239368124_);}
	.st143{clip-path:url(#SVGID_00000108277378291170516700000002902281247472824998_);}
	.st144{clip-path:url(#SVGID_00000004533239524560591730000001243938190228594581_);}
	.st145{clip-path:url(#SVGID_00000023264681311559853890000014618643328608490663_);}
	.st146{clip-path:url(#SVGID_00000143588030290026714440000006513530390144832942_);}
	.st147{clip-path:url(#SVGID_00000009575237189808476030000009202432957846028461_);}
	.st148{clip-path:url(#SVGID_00000006675691536608754940000002810223723278112684_);}
	.st149{clip-path:url(#SVGID_00000134939183810091272330000000190259377579483060_);}
	.st150{clip-path:url(#SVGID_00000156554597467095368880000016747519069065902984_);}
	.st151{clip-path:url(#SVGID_00000024700537450936650940000005568327443538393502_);}
	.st152{clip-path:url(#SVGID_00000137849633073669356100000005244591214370573223_);}
	.st153{clip-path:url(#SVGID_00000136413051917199279960000014617466377165658295_);}
	.st154{clip-path:url(#SVGID_00000152226111042555094340000011884874859506393231_);}
	.st155{clip-path:url(#SVGID_00000039837351474913935740000005081550194698967683_);}
	.st156{clip-path:url(#SVGID_00000180348840596242003340000006774571107340117933_);}
	.st157{clip-path:url(#SVGID_00000118356241072119464700000008940755750144367530_);}
	.st158{clip-path:url(#SVGID_00000094592260824967467580000013424162564961550248_);}
	.st159{clip-path:url(#SVGID_00000032615335943369129250000007364151993008004287_);}
	.st160{clip-path:url(#SVGID_00000109732985570541075700000010038206636892145836_);}
	.st161{clip-path:url(#SVGID_00000036226377331314133280000018152633728723816874_);}
	.st162{clip-path:url(#SVGID_00000080901642975611154990000009037753933153359489_);}
	.st163{clip-path:url(#SVGID_00000096047619220127576750000001083794115675683007_);}
	.st164{clip-path:url(#SVGID_00000030448467558503650010000006581643048301846403_);}
	.st165{clip-path:url(#SVGID_00000047757252802214465930000018410402345704553893_);}
	.st166{clip-path:url(#SVGID_00000116918877700144130680000016188948394763354791_);}
	.st167{clip-path:url(#SVGID_00000102526190086970823870000007830087179472663175_);}
	.st168{clip-path:url(#SVGID_00000003787149972478096360000011975628696827955603_);}
	.st169{clip-path:url(#SVGID_00000018939810229923271230000010144481414039751321_);}
	.st170{clip-path:url(#SVGID_00000097467693644597131070000008307739633441571766_);}
	.st171{clip-path:url(#SVGID_00000060011933789957071650000010499222297879917728_);}
	.st172{clip-path:url(#SVGID_00000068646719060105991070000009613591048647233433_);}
	.st173{clip-path:url(#SVGID_00000071518622700144353200000003469046736420855945_);}
	.st174{clip-path:url(#SVGID_00000153671519508062935410000008616261675594280862_);}
	.st175{clip-path:url(#SVGID_00000082328214741941962320000012444199281716483260_);}
	.st176{clip-path:url(#SVGID_00000147907402073412958000000015052745984826532523_);}
	.st177{clip-path:url(#SVGID_00000182490509979536658400000017639097211495853702_);}
	.st178{clip-path:url(#SVGID_00000109002409636374857940000015723289146227746180_);}
	.st179{clip-path:url(#SVGID_00000067949125244466827310000018074675005418349697_);}
	.st180{clip-path:url(#SVGID_00000145780750719723972630000008793223573522860983_);}
	.st181{clip-path:url(#SVGID_00000114787576409018165860000010167435004396219583_);}
	.st182{clip-path:url(#SVGID_00000102514330730774021310000013359126461497151639_);}
	.st183{clip-path:url(#SVGID_00000138531741122026438770000000319109262789664642_);}
	.st184{clip-path:url(#SVGID_00000150783428652015519010000012511810005259282070_);}
	.st185{clip-path:url(#SVGID_00000017511927011945830910000014300947669260466854_);}
	.st186{clip-path:url(#SVGID_00000152944267116314272680000006089649684806340756_);}
</style>
<g>
	<g>
		<defs>
			<rect id="SVGID_00000029725662415946078830000016118215653181315713_" x="0" width="34.33" height="43.27"/>
		</defs>
		<clipPath id="SVGID_00000178913658715343890980000006029125373799586966_">
			<use xlink:href="#SVGID_00000029725662415946078830000016118215653181315713_"  style="overflow:visible;"/>
		</clipPath>
		<g style="clip-path:url(#SVGID_00000178913658715343890980000006029125373799586966_);">
			<g>
				<path class="st1" d="M34.03,20.39c-0.05,0-0.11-0.01-0.15-0.04L14.13,8.49c-0.14-0.09-0.19-0.27-0.1-0.41
					c0.09-0.14,0.27-0.19,0.41-0.1l19.74,11.86c0.14,0.09,0.19,0.27,0.1,0.41C34.23,20.34,34.13,20.39,34.03,20.39z"/>
			</g>
		</g>
	</g>
	<g>
		<g>
			
				<rect x="23.64" y="4.88" transform="matrix(0.5151 -0.8572 0.8572 0.5151 9.5307 27.7727)" class="st2" width="11.34" height="1.17"/>
		</g>
	</g>
	<g>
		<defs>
			<rect id="SVGID_00000145762525631142364910000015490870847383393720_" x="0" width="34.33" height="43.27"/>
		</defs>
		<clipPath id="SVGID_00000132062122718605369560000015782193071809972627_">
			<use xlink:href="#SVGID_00000145762525631142364910000015490870847383393720_"  style="overflow:visible;"/>
		</clipPath>
		<g style="clip-path:url(#SVGID_00000132062122718605369560000015782193071809972627_);">
			<g>
				<path class="st1" d="M26.89,10.93c-0.05,0-0.11-0.01-0.15-0.04l-1-0.6c-0.14-0.09-0.19-0.27-0.1-0.41l5.84-9.72
					c0.04-0.07,0.11-0.12,0.18-0.14c0.08-0.02,0.16-0.01,0.23,0.03l1,0.6c0.14,0.09,0.19,0.27,0.1,0.41l-5.84,9.72
					c-0.04,0.07-0.11,0.12-0.18,0.14C26.94,10.92,26.92,10.93,26.89,10.93z M26.3,9.92l0.49,0.29l5.53-9.21l-0.49-0.29L26.3,9.92z"
					/>
			</g>
		</g>
		<g style="clip-path:url(#SVGID_00000132062122718605369560000015782193071809972627_);">
			<g>
				<path class="st1" d="M20.72,43.27c-0.02,0-0.04,0-0.07-0.01c-0.16-0.04-0.26-0.2-0.23-0.36L27.99,9
					c0.04-0.16,0.2-0.27,0.36-0.23c0.16,0.04,0.26,0.2,0.23,0.36l-7.56,33.91C20.98,43.18,20.86,43.27,20.72,43.27z"/>
			</g>
		</g>
	</g>
	<g>
		<g>
			<polygon class="st2" points="27.69,5.69 20.14,39.61 23.07,40.26 30.62,6.34 			"/>
		</g>
	</g>
	<g>
		<g>
			<path class="st1" d="M23.07,40.56c-0.02,0-0.04,0-0.07-0.01l-2.93-0.65c-0.08-0.02-0.15-0.06-0.19-0.13
				c-0.04-0.07-0.06-0.15-0.04-0.23L27.4,5.63c0.04-0.16,0.2-0.26,0.36-0.23l2.93,0.65c0.08,0.02,0.15,0.06,0.19,0.13
				c0.04,0.07,0.06,0.15,0.04,0.23l-7.55,33.92C23.33,40.46,23.21,40.56,23.07,40.56z M20.5,39.38l2.34,0.52l7.42-33.33l-2.34-0.52
				L20.5,39.38z"/>
		</g>
	</g>
	<g>
		<defs>
			<rect id="SVGID_00000015349528722218089760000006524803684415942055_" x="0" width="34.33" height="43.27"/>
		</defs>
		<clipPath id="SVGID_00000139262828025979712720000008708928849415478177_">
			<use xlink:href="#SVGID_00000015349528722218089760000006524803684415942055_"  style="overflow:visible;"/>
		</clipPath>
		<g style="clip-path:url(#SVGID_00000139262828025979712720000008708928849415478177_);">
			<g>
				<path class="st2" d="M22.47,40.46c0.77,0.56,1.85,0.39,2.41-0.38c0.56-0.77,0.39-1.85-0.38-2.41c-0.77-0.56-1.85-0.39-2.41,0.38
					C21.53,38.83,21.7,39.9,22.47,40.46"/>
			</g>
		</g>
		<g style="clip-path:url(#SVGID_00000139262828025979712720000008708928849415478177_);">
			<g>
				<path class="st1" d="M23.48,41.09c-0.42,0-0.84-0.13-1.19-0.39c-0.44-0.32-0.72-0.79-0.81-1.32c-0.08-0.53,0.04-1.07,0.36-1.51
					c0.32-0.44,0.79-0.72,1.32-0.81c0.53-0.08,1.07,0.04,1.51,0.36c0.44,0.32,0.72,0.79,0.81,1.32s-0.04,1.07-0.36,1.51
					c-0.32,0.44-0.79,0.72-1.32,0.81C23.69,41.08,23.58,41.09,23.48,41.09z M23.48,37.65c-0.07,0-0.15,0.01-0.23,0.02
					c-0.38,0.06-0.71,0.26-0.93,0.57c-0.22,0.31-0.31,0.68-0.25,1.06c0.06,0.38,0.26,0.71,0.57,0.93c0.31,0.22,0.68,0.31,1.06,0.25
					c0.38-0.06,0.71-0.26,0.93-0.57c0.22-0.31,0.31-0.68,0.25-1.06c-0.06-0.38-0.26-0.71-0.57-0.93
					C24.07,37.74,23.78,37.65,23.48,37.65z"/>
			</g>
		</g>
		<g style="clip-path:url(#SVGID_00000139262828025979712720000008708928849415478177_);">
			<g>
				<path class="st1" d="M0.3,31c-0.08,0-0.17-0.04-0.23-0.1c-0.11-0.13-0.09-0.32,0.03-0.42L26.5,7.88
					c0.12-0.11,0.31-0.09,0.42,0.03c0.11,0.13,0.09,0.32-0.03,0.42L0.5,30.93C0.44,30.98,0.37,31,0.3,31z"/>
			</g>
		</g>
	</g>
	<g>
		<g>
			<polygon class="st2" points="29.94,7.04 3.54,29.63 1.59,27.35 28,4.76 			"/>
		</g>
	</g>
	<g>
		<g>
			<path class="st1" d="M3.54,29.93c-0.01,0-0.02,0-0.02,0c-0.08-0.01-0.15-0.04-0.21-0.1l-1.95-2.28
				c-0.11-0.13-0.09-0.32,0.03-0.42L27.8,4.53c0.06-0.05,0.14-0.08,0.22-0.07c0.08,0.01,0.15,0.04,0.21,0.1l1.95,2.28
				c0.11,0.13,0.09,0.32-0.03,0.42L3.73,29.86C3.68,29.91,3.61,29.93,3.54,29.93z M2.02,27.39l1.56,1.83l25.95-22.2l-1.56-1.83
				L2.02,27.39z"/>
		</g>
	</g>
	<g>
		<defs>
			<rect id="SVGID_00000155125641185938224140000013436268899590186679_" x="0" width="34.33" height="43.27"/>
		</defs>
		<clipPath id="SVGID_00000012471393474592768440000015626883484519656845_">
			<use xlink:href="#SVGID_00000155125641185938224140000013436268899590186679_"  style="overflow:visible;"/>
		</clipPath>
		<g style="clip-path:url(#SVGID_00000012471393474592768440000015626883484519656845_);">
			<g>
				<path class="st2" d="M1.69,27.98c-0.86-0.42-1.21-1.45-0.79-2.3c0.42-0.86,1.45-1.21,2.3-0.79s1.21,1.45,0.79,2.3
					C3.58,28.04,2.55,28.4,1.69,27.98"/>
			</g>
		</g>
		<g style="clip-path:url(#SVGID_00000012471393474592768440000015626883484519656845_);">
			<g>
				<path class="st1" d="M2.45,28.46c-0.3,0-0.6-0.07-0.88-0.21c-1-0.49-1.42-1.7-0.93-2.71c0.49-1,1.7-1.42,2.71-0.93
					c0.49,0.24,0.85,0.65,1.03,1.16c0.18,0.51,0.14,1.06-0.1,1.55c-0.24,0.49-0.65,0.85-1.16,1.03C2.89,28.42,2.67,28.46,2.45,28.46
					z M2.45,25.01c-0.53,0-1.04,0.29-1.28,0.8c-0.34,0.71-0.05,1.56,0.66,1.9c0.34,0.17,0.73,0.19,1.09,0.07
					c0.36-0.12,0.65-0.38,0.82-0.72c0.17-0.34,0.19-0.73,0.07-1.09c-0.12-0.36-0.38-0.65-0.72-0.82
					C2.87,25.05,2.66,25.01,2.45,25.01z"/>
			</g>
		</g>
	</g>
	<g>
		<g>
			
				<rect x="24.36" y="5.14" transform="matrix(0.515 -0.8572 0.8572 0.515 8.1787 27.8013)" class="st2" width="8.59" height="3.07"/>
		</g>
	</g>
	<g>
		<g>
			<path class="st1" d="M27.76,11.45c-0.05,0-0.11-0.01-0.15-0.04l-2.63-1.58c-0.07-0.04-0.12-0.11-0.14-0.18
				c-0.02-0.08-0.01-0.16,0.03-0.23l4.43-7.37c0.09-0.14,0.27-0.19,0.41-0.1l2.63,1.58c0.07,0.04,0.12,0.11,0.14,0.18
				c0.02,0.08,0.01,0.16-0.03,0.23l-4.43,7.37C27.96,11.4,27.86,11.45,27.76,11.45z M25.54,9.46l2.12,1.27l4.12-6.85l-2.12-1.27
				L25.54,9.46z"/>
		</g>
	</g>
	<g>
		<g>
			<path class="st1" d="M22.76,16.79c-0.05,0-0.11-0.01-0.15-0.04c-0.14-0.09-0.19-0.27-0.1-0.41l2.81-4.68
				c0.09-0.14,0.27-0.19,0.41-0.1c0.14,0.09,0.19,0.27,0.1,0.41l-2.81,4.68C22.96,16.74,22.86,16.79,22.76,16.79z"/>
		</g>
	</g>
	<g>
		<g>
			
				<rect x="24.74" y="5.83" transform="matrix(0.515 -0.8572 0.8572 0.515 8.1656 28.2706)" class="st0" width="8.66" height="2.18"/>
		</g>
	</g>
	<g>
		<g>
			<path class="st1" d="M27.76,11.45c-0.05,0-0.11-0.01-0.15-0.04l-2.63-1.58c-0.07-0.04-0.12-0.11-0.14-0.18
				c-0.02-0.08-0.01-0.16,0.03-0.23l4.43-7.37c0.09-0.14,0.27-0.19,0.41-0.1l2.63,1.58c0.07,0.04,0.12,0.11,0.14,0.18
				c0.02,0.08,0.01,0.16-0.03,0.23l-4.43,7.37C27.96,11.4,27.86,11.45,27.76,11.45z M25.54,9.46l2.12,1.27l4.12-6.85l-2.12-1.27
				L25.54,9.46z"/>
		</g>
	</g>
	<g>
		<defs>
			<rect id="SVGID_00000001653705215227149080000008355425940862962601_" x="0" width="34.33" height="43.27"/>
		</defs>
		<clipPath id="SVGID_00000083049254631912035560000015812481517246582178_">
			<use xlink:href="#SVGID_00000001653705215227149080000008355425940862962601_"  style="overflow:visible;"/>
		</clipPath>
		<g style="clip-path:url(#SVGID_00000083049254631912035560000015812481517246582178_);">
			<g>
				<path class="st0" d="M22.45,40.95c0.78,0.57,1.88,0.4,2.45-0.39c0.57-0.78,0.4-1.88-0.39-2.46c-0.79-0.57-1.88-0.4-2.46,0.39
					C21.49,39.28,21.67,40.38,22.45,40.95"/>
			</g>
		</g>
		<g style="clip-path:url(#SVGID_00000083049254631912035560000015812481517246582178_);">
			<g>
				<path class="st0" d="M1.68,28.46c-0.87-0.42-1.24-1.48-0.81-2.35c0.42-0.87,1.48-1.23,2.35-0.81c0.87,0.43,1.23,1.48,0.81,2.35
					C3.61,28.53,2.55,28.89,1.68,28.46"/>
			</g>
		</g>
		<g style="clip-path:url(#SVGID_00000083049254631912035560000015812481517246582178_);">
			<g>
				<path class="st1" d="M2.45,28.46c-0.3,0-0.6-0.07-0.88-0.21c-1-0.49-1.42-1.7-0.93-2.71c0.49-1,1.7-1.42,2.71-0.93
					c0.49,0.24,0.85,0.65,1.03,1.16c0.18,0.51,0.14,1.06-0.1,1.55c-0.24,0.49-0.65,0.85-1.16,1.03C2.89,28.42,2.67,28.46,2.45,28.46
					z M2.45,25.01c-0.53,0-1.04,0.29-1.28,0.8c-0.34,0.71-0.05,1.56,0.66,1.9c0.34,0.17,0.73,0.19,1.09,0.07
					c0.36-0.12,0.65-0.38,0.82-0.72c0.17-0.34,0.19-0.73,0.07-1.09c-0.12-0.36-0.38-0.65-0.72-0.82
					C2.87,25.05,2.66,25.01,2.45,25.01z"/>
			</g>
		</g>
		<g style="clip-path:url(#SVGID_00000083049254631912035560000015812481517246582178_);">
			<g>
				<path class="st1" d="M23.48,41.09c-0.42,0-0.84-0.13-1.19-0.39c-0.44-0.32-0.72-0.79-0.81-1.32c-0.08-0.53,0.04-1.07,0.36-1.51
					c0.32-0.44,0.79-0.72,1.32-0.81c0.53-0.08,1.07,0.04,1.51,0.36c0.44,0.32,0.72,0.79,0.81,1.32s-0.04,1.07-0.36,1.51
					c-0.32,0.44-0.79,0.72-1.32,0.81C23.69,41.09,23.58,41.09,23.48,41.09z M23.48,37.65c-0.07,0-0.15,0.01-0.23,0.02
					c-0.38,0.06-0.71,0.26-0.93,0.57s-0.31,0.68-0.25,1.06c0.06,0.38,0.26,0.71,0.57,0.93c0,0,0,0,0,0
					c0.31,0.22,0.69,0.31,1.06,0.25c0.38-0.06,0.71-0.26,0.93-0.57s0.31-0.68,0.25-1.06c-0.06-0.38-0.26-0.71-0.57-0.93
					C24.07,37.74,23.78,37.65,23.48,37.65z"/>
			</g>
		</g>
	</g>
</g>
</svg>
