<?xml version="1.0" encoding="utf-8"?>
<!-- Generator: Adobe Illustrator 26.0.2, SVG Export Plug-In . SVG Version: 6.00 Build 0)  -->
<svg version="1.1" id="Ebene_1" xmlns="http://www.w3.org/2000/svg" xmlns:xlink="http://www.w3.org/1999/xlink" x="0px" y="0px"
	 viewBox="0 0 41.5 43.55" style="enable-background:new 0 0 41.5 43.55;" xml:space="preserve">
<style type="text/css">
	.st0{fill:#E59C00;}
	.st1{fill:#2B2961;}
	.st2{fill:#FFFFFF;}
	.st3{clip-path:url(#SVGID_00000003825211994587373490000011876876582615310470_);}
	.st4{clip-path:url(#SVGID_00000179628137926568578770000008481120184308008623_);}
	.st5{clip-path:url(#SVGID_00000156564468752000192610000011603196627922362273_);}
	.st6{clip-path:url(#SVGID_00000123422797556699456090000013215364607735010468_);}
	.st7{clip-path:url(#SVGID_00000089566922994286833490000014889771030050407346_);}
	.st8{clip-path:url(#SVGID_00000042716673745527235570000006025906160333080478_);}
	.st9{clip-path:url(#SVGID_00000169550718101328378840000015438555443576416422_);}
	.st10{clip-path:url(#SVGID_00000109717321817502010600000009896448608084415927_);}
	.st11{clip-path:url(#SVGID_00000070085403406857171980000015144920542657228215_);}
	.st12{clip-path:url(#SVGID_00000111908390242515400230000014697920586686700970_);}
	.st13{clip-path:url(#SVGID_00000044144147538582900750000005034969146603811972_);}
	.st14{clip-path:url(#SVGID_00000176034189278374867300000011488087894030001564_);}
	.st15{clip-path:url(#SVGID_00000071534868422549608130000009311614574683801513_);}
	.st16{clip-path:url(#SVGID_00000067914510179974083780000009312201566265133499_);}
	.st17{clip-path:url(#SVGID_00000041281897698468046210000015808716172302509698_);}
	.st18{clip-path:url(#SVGID_00000150074180757101635720000008889152192955406515_);}
	.st19{clip-path:url(#SVGID_00000076595746941890251120000017134797248737123714_);}
	.st20{clip-path:url(#SVGID_00000145752276114096728530000000378343524001119651_);}
	.st21{clip-path:url(#SVGID_00000075149338863842300690000014149923518287967898_);}
	.st22{clip-path:url(#SVGID_00000114044885860286639180000000125878551979269038_);}
	.st23{clip-path:url(#SVGID_00000165236585421193527800000009518473168981338501_);}
	.st24{clip-path:url(#SVGID_00000093174348736072337970000015722298090150277783_);}
	.st25{clip-path:url(#SVGID_00000010273173164148591350000003943770399825917581_);}
	.st26{clip-path:url(#SVGID_00000021827227233185769100000015136521053489312161_);}
	.st27{clip-path:url(#SVGID_00000157287072476670766820000016254774097886310021_);}
	.st28{clip-path:url(#SVGID_00000019649222417543901890000012287454346720559791_);}
	.st29{clip-path:url(#SVGID_00000131356647085167675370000002498942946877898909_);}
	.st30{clip-path:url(#SVGID_00000119085877151159159280000007134361513984963973_);}
	.st31{clip-path:url(#SVGID_00000072282529374231373580000001861356243578330512_);}
	.st32{clip-path:url(#SVGID_00000100374874969648494180000002111135024589832627_);}
	.st33{clip-path:url(#SVGID_00000168091160923527234740000010185221980350601354_);}
	.st34{clip-path:url(#SVGID_00000053526639514866328820000005789200789411672225_);}
	.st35{clip-path:url(#SVGID_00000045611590615606984130000010021894373959927439_);}
	.st36{clip-path:url(#SVGID_00000145773734226607679860000013031168979989154718_);}
	.st37{clip-path:url(#SVGID_00000118369612043553322810000007300695229861246601_);}
	.st38{clip-path:url(#SVGID_00000069382002942973943880000007396488193002554260_);}
	.st39{clip-path:url(#SVGID_00000058580875912431583400000016873797036207817648_);}
	.st40{clip-path:url(#SVGID_00000122716310630410276270000013847956590323762864_);}
	.st41{clip-path:url(#SVGID_00000004506958502566182990000014814844108675374987_);}
	.st42{clip-path:url(#SVGID_00000022533196892886152330000004751434342080495023_);}
	.st43{clip-path:url(#SVGID_00000149365671450463161690000015937622862391318438_);}
	.st44{clip-path:url(#SVGID_00000118385676639880173760000017339642313401786542_);}
	.st45{clip-path:url(#SVGID_00000119115868624389175610000009525182383452142995_);}
	.st46{clip-path:url(#SVGID_00000023987474505155468900000004661259156074571909_);}
	.st47{clip-path:url(#SVGID_00000072260806677826588890000004062173632968698003_);}
	.st48{clip-path:url(#SVGID_00000004538461740519914860000001346957822256752799_);}
	.st49{clip-path:url(#SVGID_00000056406353376488421470000007056996744144657850_);}
	.st50{clip-path:url(#SVGID_00000150066339112022549770000004262563707432983684_);}
	.st51{clip-path:url(#SVGID_00000098931277683388007060000004816267035358542244_);}
	.st52{clip-path:url(#SVGID_00000111907905017840774260000006368068975992118146_);}
	.st53{clip-path:url(#SVGID_00000025410219869990851770000004578737024365498263_);}
	.st54{clip-path:url(#SVGID_00000023978977277742948890000014888293329019398540_);}
	.st55{clip-path:url(#SVGID_00000030489211777550941050000010324561740207793841_);}
	.st56{clip-path:url(#SVGID_00000145053916900354535120000006798306027148740798_);}
	.st57{clip-path:url(#SVGID_00000090293278624453305450000014039788811077471673_);}
	.st58{clip-path:url(#SVGID_00000108294135463177793130000007475621859841630600_);}
	.st59{clip-path:url(#SVGID_00000067207342846661893780000007206746723085340295_);}
	.st60{clip-path:url(#SVGID_00000111180177959745607390000001831332451369142694_);}
	.st61{clip-path:url(#SVGID_00000059297734586280953730000006746920625499858072_);}
	.st62{clip-path:url(#SVGID_00000042720974584769005290000011201546275777301136_);}
	.st63{clip-path:url(#SVGID_00000110453671085997628600000017343575968004296623_);}
	.st64{clip-path:url(#SVGID_00000088132880786554032300000004636669113620749501_);}
	.st65{clip-path:url(#SVGID_00000110465616456592940310000007860593647881594534_);}
	.st66{clip-path:url(#SVGID_00000157266946214742314520000008983212919297039239_);}
	.st67{clip-path:url(#SVGID_00000091004698552691857290000003675682953762104709_);}
	.st68{clip-path:url(#SVGID_00000124878055959172078540000009355273578002032306_);}
	.st69{clip-path:url(#SVGID_00000152224276514971001360000004657317736431868556_);}
	.st70{clip-path:url(#SVGID_00000040555894942864096610000002777986260577494463_);}
	.st71{clip-path:url(#SVGID_00000173141896863273410460000008559703873152609706_);}
	.st72{clip-path:url(#SVGID_00000169531197541918126590000007005109704659897258_);}
	.st73{clip-path:url(#SVGID_00000016767090995991501790000011465242461032382383_);}
	.st74{clip-path:url(#SVGID_00000087410611298644557410000004562748189747242681_);}
	.st75{clip-path:url(#SVGID_00000132073129596159191670000017387874708708275330_);}
	.st76{clip-path:url(#SVGID_00000166664413267356953220000016852083861160060046_);}
	.st77{clip-path:url(#SVGID_00000128454302153851504030000003372079480162519978_);}
	.st78{clip-path:url(#SVGID_00000098189683874950474600000000771199455800565651_);}
	.st79{clip-path:url(#SVGID_00000080923524565218342000000003934299530001834651_);}
	.st80{clip-path:url(#SVGID_00000072261274780181971340000001649587488524118407_);}
	.st81{clip-path:url(#SVGID_00000089569654577991512040000010388010716359253643_);}
	.st82{clip-path:url(#SVGID_00000003821825773784061100000006682763700401507259_);}
	.st83{fill:none;}
	.st84{clip-path:url(#SVGID_00000131351777086610608300000002982787769625207432_);}
	.st85{clip-path:url(#SVGID_00000163045566268965176040000003925462834789974166_);}
	.st86{clip-path:url(#SVGID_00000064331638258110157350000000374726926207513498_);}
	.st87{clip-path:url(#SVGID_00000116942878911277462420000015543304588211973040_);}
	.st88{clip-path:url(#SVGID_00000120532418199590445630000006313692436129704326_);}
	.st89{clip-path:url(#SVGID_00000137835987559390910760000012683249031709359783_);}
	.st90{clip-path:url(#SVGID_00000145768437330152031660000007204544225475857819_);}
	.st91{clip-path:url(#SVGID_00000148633740286438420220000007357265183125772680_);}
	.st92{clip-path:url(#SVGID_00000044160483162531209310000015394763152804082599_);}
	.st93{clip-path:url(#SVGID_00000005228667604206176090000005769881069319541177_);}
	.st94{clip-path:url(#SVGID_00000038398047373370682950000006935753282732304545_);}
	.st95{clip-path:url(#SVGID_00000084518497362313022200000003974610766985476489_);}
	.st96{clip-path:url(#SVGID_00000007409221817455588360000000006679999562435218_);}
	.st97{clip-path:url(#SVGID_00000139253678649598259660000008578257283261241767_);}
	.st98{clip-path:url(#SVGID_00000148629105313235389420000005906282193607036350_);}
	.st99{clip-path:url(#SVGID_00000016771502630025822360000013851318756377115058_);}
	.st100{clip-path:url(#SVGID_00000173153329807260613650000009214088061567426208_);}
	.st101{clip-path:url(#SVGID_00000165931942493719071630000014997531769222978748_);}
	.st102{clip-path:url(#SVGID_00000080179442437529903670000005943419084184705940_);}
	.st103{clip-path:url(#SVGID_00000023280329690163914170000001747029390080628111_);}
	.st104{clip-path:url(#SVGID_00000049916618095410655870000007887524385096087987_);}
	.st105{clip-path:url(#SVGID_00000076586255585735081010000017361055498808927879_);}
	.st106{clip-path:url(#SVGID_00000061463588114916845290000014715725934104133040_);}
	.st107{clip-path:url(#SVGID_00000029730141973546168690000016217301080570052536_);}
	.st108{clip-path:url(#SVGID_00000075155062596774718620000006528563976721272228_);}
	.st109{clip-path:url(#SVGID_00000171000893929986196480000012491499988278387621_);}
	.st110{clip-path:url(#SVGID_00000030449449628435701490000010533053814848449931_);}
	.st111{clip-path:url(#SVGID_00000101069934789467039040000014244558108999570347_);}
	.st112{clip-path:url(#SVGID_00000003806546226683000690000011928387168977979582_);}
	.st113{clip-path:url(#SVGID_00000077290931164340083890000012551811570729840302_);}
	.st114{clip-path:url(#SVGID_00000142139755347178781480000003058720169568691639_);}
	.st115{clip-path:url(#SVGID_00000170990355905467283770000000490773037850111876_);}
	.st116{clip-path:url(#SVGID_00000121976757169847787860000003586076047506695869_);}
	.st117{clip-path:url(#SVGID_00000036244962315284062020000007414102493821894275_);}
	.st118{clip-path:url(#SVGID_00000040571597915037029800000010054971109928789920_);}
	.st119{clip-path:url(#SVGID_00000102507657797037002500000000563662396498925234_);}
	.st120{clip-path:url(#SVGID_00000095299792604572637600000011628505568079463316_);}
	.st121{clip-path:url(#SVGID_00000132051136241512636300000009048152762396729269_);}
	.st122{clip-path:url(#SVGID_00000012463240691903859810000010298621639414076554_);}
	.st123{clip-path:url(#SVGID_00000059306812805694529650000007363750830187334578_);}
	.st124{clip-path:url(#SVGID_00000016772052808972021220000005440352971375212707_);}
	.st125{clip-path:url(#SVGID_00000016060117779727506020000012964425723104091557_);}
	.st126{clip-path:url(#SVGID_00000136397357331924232960000009459607046320511650_);}
	.st127{clip-path:url(#SVGID_00000078753904423018217110000010477740354296387998_);}
	.st128{clip-path:url(#SVGID_00000042705868353283729520000012555707864077107098_);}
	.st129{clip-path:url(#SVGID_00000167355680111307370760000008653081026422857906_);}
	.st130{clip-path:url(#SVGID_00000005261769947505214500000002545165083054518951_);}
	.st131{clip-path:url(#SVGID_00000165208546192703382560000007078940267137418668_);}
	.st132{clip-path:url(#SVGID_00000127019502318781505870000014642676953865998233_);}
	.st133{clip-path:url(#SVGID_00000116918658163336360480000010748887518197443771_);}
	.st134{clip-path:url(#SVGID_00000031893291351001774560000011898890596665234828_);}
	.st135{clip-path:url(#SVGID_00000007393174295715895340000017356048854098699158_);}
	.st136{clip-path:url(#SVGID_00000043432000321762078840000013856368143756719244_);}
	.st137{clip-path:url(#SVGID_00000020386187923462712030000008842316496554086818_);}
	.st138{clip-path:url(#SVGID_00000041976639853237142700000001003103756455299482_);}
	.st139{clip-path:url(#SVGID_00000154418344069499847250000001463449556867801246_);}
	.st140{clip-path:url(#SVGID_00000170994141334943233720000010851969905721478820_);}
	.st141{clip-path:url(#SVGID_00000101091806683567717630000014309019005233576352_);}
	.st142{clip-path:url(#SVGID_00000057139302554415326180000008231508764708199057_);}
	.st143{clip-path:url(#SVGID_00000074408918932565550600000004222834340960550320_);}
	.st144{clip-path:url(#SVGID_00000043427032410560128820000011623172410514710427_);}
	.st145{clip-path:url(#SVGID_00000038389726655487865010000011482812968806824349_);}
	.st146{clip-path:url(#SVGID_00000022556511237543133690000002501963296003008922_);}
	.st147{clip-path:url(#SVGID_00000127746593806054707930000011062157079993808019_);}
	.st148{clip-path:url(#SVGID_00000181805308237245170420000005190084168393521800_);}
	.st149{clip-path:url(#SVGID_00000134951102275788326690000009225438345350908059_);}
	.st150{clip-path:url(#SVGID_00000171690000395905843510000001580458778352355263_);}
	.st151{clip-path:url(#SVGID_00000044144948596064447740000001543419542681882802_);}
	.st152{clip-path:url(#SVGID_00000018930331952657277210000002293307360535705504_);}
	.st153{clip-path:url(#SVGID_00000133502758270463691100000014470882348858165655_);}
	.st154{clip-path:url(#SVGID_00000180330562385309293420000016858137704390752931_);}
	.st155{clip-path:url(#SVGID_00000091697674547096884430000000693016531992909493_);}
	.st156{clip-path:url(#SVGID_00000077285349713371756930000003280474400104468887_);}
	.st157{clip-path:url(#SVGID_00000134947000148168288660000015899781754670869918_);}
	.st158{clip-path:url(#SVGID_00000183944327804887195100000009340938033689154998_);}
	.st159{clip-path:url(#SVGID_00000002381556860898292700000002744161890525077690_);}
	.st160{clip-path:url(#SVGID_00000042717519611436496480000001788942386600452025_);}
	.st161{clip-path:url(#SVGID_00000008112061530431161290000014298883898783680906_);}
	.st162{clip-path:url(#SVGID_00000150074702694704179470000000543640982669183644_);}
	.st163{clip-path:url(#SVGID_00000145760437996451146150000007296513998274325389_);}
	.st164{clip-path:url(#SVGID_00000035529689809317875560000010998218862149021320_);}
	.st165{clip-path:url(#SVGID_00000159465776093335660450000012179517526469159573_);}
	.st166{clip-path:url(#SVGID_00000106142171509822030140000017103673693776079024_);}
	.st167{clip-path:url(#SVGID_00000143578282416508570890000010507809270239178175_);}
	.st168{clip-path:url(#SVGID_00000170259089365921758230000008495653907004499366_);}
	.st169{clip-path:url(#SVGID_00000119817016915406563310000006296275542041445265_);}
	.st170{clip-path:url(#SVGID_00000127748333103125901950000015495581104350705576_);}
	.st171{clip-path:url(#SVGID_00000178887727020217180030000006951905026585060252_);}
	.st172{clip-path:url(#SVGID_00000060753547514125517120000009845985849413478828_);}
	.st173{clip-path:url(#SVGID_00000049202617967615500050000004398504882126807996_);}
	.st174{clip-path:url(#SVGID_00000001664201255335894330000007941602434302427011_);}
	.st175{clip-path:url(#SVGID_00000152955718190611015720000004233033928830454165_);}
	.st176{clip-path:url(#SVGID_00000049198362058832420310000000678180611738545032_);}
	.st177{clip-path:url(#SVGID_00000182530573293893558200000008816166874398388866_);}
	.st178{clip-path:url(#SVGID_00000020391832012851332650000007852219043869623960_);}
	.st179{clip-path:url(#SVGID_00000139989708786964340770000015738552098535398564_);}
	.st180{clip-path:url(#SVGID_00000028297584599531922720000015751130500465036711_);}
	.st181{clip-path:url(#SVGID_00000021824420694001228130000014969246728799056513_);}
	.st182{clip-path:url(#SVGID_00000026863095580101241520000009438304655132341395_);}
	.st183{clip-path:url(#SVGID_00000139277898471880960770000001239123221367095722_);}
	.st184{clip-path:url(#SVGID_00000129926648538275766250000017834769515845511869_);}
	.st185{clip-path:url(#SVGID_00000118376550552330552180000001065084917092785082_);}
	.st186{clip-path:url(#SVGID_00000083069519230463269150000004395012271651386798_);}
</style>
<g>
	<defs>
		<rect id="SVGID_00000075867475154221544540000003606921415164421050_" x="0" width="41.49" height="43.55"/>
	</defs>
	<clipPath id="SVGID_00000103943438337858125840000011726819319050787481_">
		<use xlink:href="#SVGID_00000075867475154221544540000003606921415164421050_"  style="overflow:visible;"/>
	</clipPath>
	<g style="clip-path:url(#SVGID_00000103943438337858125840000011726819319050787481_);">
		<g>
			<path class="st0" d="M13.34,40.72c1.71,2.79,5.36,3.67,8.15,1.96c2.79-1.71,3.66-5.36,1.96-8.15s-5.36-3.66-8.15-1.96
				C12.51,34.29,11.64,37.93,13.34,40.72"/>
		</g>
	</g>
	<g style="clip-path:url(#SVGID_00000103943438337858125840000011726819319050787481_);">
		<g>
			<path class="st1" d="M19.46,31.48c-0.03,0-0.05,0-0.08-0.01c-0.67-0.18-1.37-0.23-2.07-0.14c-0.09,0.01-0.19-0.02-0.26-0.09
				c-0.07-0.07-0.09-0.17-0.08-0.26l4.88-25.88c0-0.03,0.6-5.59,6.45-5.05c0.08,0.01,0.16,0.05,0.21,0.12s0.07,0.15,0.05,0.24
				l-5.25,27.19c-0.02,0.12-0.11,0.21-0.23,0.24c-0.52,0.12-0.97,0.29-1.36,0.54c0,0,0,0,0,0c-1.03,0.64-1.73,1.66-1.99,2.89
				c-0.02,0.08-0.07,0.15-0.14,0.19C19.57,31.46,19.52,31.48,19.46,31.48z M18,30.69c0.42,0,0.83,0.04,1.24,0.13
				c0.34-1.25,1.1-2.3,2.19-2.97c0.4-0.25,0.84-0.43,1.35-0.56l5.15-26.67c-4.95-0.26-5.45,4.36-5.47,4.56L17.64,30.7
				C17.76,30.69,17.88,30.69,18,30.69z"/>
		</g>
	</g>
	<g style="clip-path:url(#SVGID_00000103943438337858125840000011726819319050787481_);">
		<g>
			<path class="st1" d="M17.95,43.12c-0.48,0-0.97-0.06-1.45-0.17c-1.6-0.38-2.96-1.37-3.82-2.77c-1.78-2.9-0.86-6.71,2.04-8.48
				c2.9-1.78,6.71-0.86,8.48,2.04c0.86,1.4,1.12,3.06,0.74,4.66c-0.38,1.6-1.37,2.96-2.77,3.82C20.18,42.81,19.07,43.12,17.95,43.12
				z M17.93,31.38c-0.99,0-2,0.26-2.9,0.82c-2.62,1.6-3.44,5.04-1.84,7.66c0.78,1.27,2,2.16,3.45,2.5c1.45,0.35,2.94,0.11,4.21-0.67
				c1.27-0.78,2.16-2,2.5-3.45s0.11-2.94-0.67-4.21C21.64,32.33,19.8,31.38,17.93,31.38z"/>
		</g>
	</g>
	<g style="clip-path:url(#SVGID_00000103943438337858125840000011726819319050787481_);">
		<g>
			<path class="st2" d="M15.4,38.51c0.86,1.4,2.69,1.84,4.1,0.98c1.4-0.86,1.84-2.69,0.98-4.1c-0.86-1.4-2.69-1.84-4.1-0.98
				C14.98,35.27,14.54,37.1,15.4,38.51"/>
		</g>
	</g>
	<g style="clip-path:url(#SVGID_00000103943438337858125840000011726819319050787481_);">
		<g>
			<path class="st1" d="M17.94,40.23c-0.26,0-0.52-0.03-0.77-0.09c-0.85-0.2-1.57-0.73-2.03-1.48c-0.94-1.54-0.46-3.56,1.08-4.51
				c1.54-0.94,3.56-0.46,4.51,1.08c0.94,1.54,0.46,3.56-1.08,4.51C19.13,40.06,18.54,40.23,17.94,40.23z M17.93,34.27
				c-0.48,0-0.96,0.13-1.4,0.39c-1.26,0.77-1.66,2.42-0.88,3.68l0,0c0.37,0.61,0.96,1.04,1.66,1.21c0.69,0.17,1.42,0.05,2.03-0.32
				c0.61-0.37,1.04-0.96,1.21-1.66c0.17-0.7,0.05-1.41-0.32-2.02C19.72,34.73,18.84,34.27,17.93,34.27z"/>
		</g>
	</g>
	<g style="clip-path:url(#SVGID_00000103943438337858125840000011726819319050787481_);">
		<g>
			<path class="st0" d="M4.31,32.87c-3-1.31-4.38-4.79-3.07-7.8c1.3-3,4.79-4.37,7.79-3.07c3,1.3,4.38,4.79,3.07,7.79
				C10.8,32.8,7.31,34.18,4.31,32.87"/>
		</g>
	</g>
	<g style="clip-path:url(#SVGID_00000103943438337858125840000011726819319050787481_);">
		<g>
			<path class="st2" d="M14.43,21.88c0.22-0.49,0.32-1.01,0.37-1.51l26.19-8.98c1.3,5.49-3.91,6.73-3.91,6.73l-24.95,8.44
				c-0.01-0.74-0.16-1.47-0.45-2.15C12.86,23.98,13.88,23.11,14.43,21.88"/>
		</g>
	</g>
	<g style="clip-path:url(#SVGID_00000103943438337858125840000011726819319050787481_);">
		<g>
			<path class="st1" d="M12.13,26.85c-0.06,0-0.12-0.02-0.17-0.05c-0.08-0.06-0.13-0.14-0.13-0.24c-0.01-0.71-0.16-1.39-0.43-2.04
				c-0.03-0.08-0.03-0.16,0-0.24c0.03-0.08,0.1-0.13,0.17-0.16c1.17-0.42,2.09-1.26,2.58-2.37l0,0c0.19-0.42,0.3-0.89,0.34-1.42
				c0.01-0.12,0.09-0.22,0.2-0.26l26.19-8.98c0.08-0.03,0.17-0.02,0.24,0.02c0.07,0.04,0.13,0.11,0.15,0.19
				c1.35,5.72-4.08,7.08-4.13,7.1l-24.92,8.43C12.19,26.85,12.16,26.85,12.13,26.85z M12.06,24.58c0.18,0.5,0.3,1.03,0.34,1.57
				l24.58-8.31c0.22-0.05,4.73-1.2,3.79-6.06l-25.69,8.81c-0.06,0.52-0.18,0.98-0.37,1.41l0,0C14.19,23.17,13.26,24.07,12.06,24.58z
				"/>
		</g>
	</g>
	<g style="clip-path:url(#SVGID_00000103943438337858125840000011726819319050787481_);">
		<g>
			<path class="st1" d="M6.17,32.89c-0.83,0-1.67-0.17-2.46-0.51c-1.51-0.66-2.68-1.86-3.28-3.4c-0.6-1.53-0.57-3.21,0.08-4.72
				c1.36-3.12,5-4.55,8.12-3.2c1.51,0.66,2.68,1.86,3.28,3.4c0.6,1.53,0.57,3.21-0.08,4.72c-0.66,1.51-1.86,2.68-3.4,3.28
				C7.7,32.75,6.93,32.89,6.17,32.89z M6.18,21.15c-2.15,0-4.2,1.25-5.12,3.35c-0.59,1.36-0.62,2.88-0.07,4.26
				c0.54,1.38,1.6,2.47,2.96,3.07l0,0c1.36,0.59,2.88,0.62,4.26,0.07c1.38-0.55,2.47-1.6,3.07-2.96c1.22-2.82-0.07-6.1-2.89-7.33
				C7.67,21.3,6.92,21.15,6.18,21.15z"/>
		</g>
	</g>
	<g style="clip-path:url(#SVGID_00000103943438337858125840000011726819319050787481_);">
		<g>
			<path class="st2" d="M4.98,29.45c-1.51-0.66-2.2-2.41-1.54-3.92c0.66-1.51,2.41-2.2,3.92-1.54c1.51,0.66,2.2,2.41,1.54,3.92
				C8.25,29.42,6.49,30.11,4.98,29.45"/>
		</g>
	</g>
	<g style="clip-path:url(#SVGID_00000103943438337858125840000011726819319050787481_);">
		<g>
			<path class="st1" d="M6.17,30c-0.44,0-0.88-0.09-1.3-0.27l0,0c-0.8-0.35-1.42-0.99-1.74-1.81c-0.32-0.81-0.31-1.71,0.04-2.51
				c0.35-0.8,0.99-1.42,1.8-1.74c0.81-0.32,1.71-0.31,2.51,0.04c0.8,0.35,1.42,0.99,1.74,1.8s0.31,1.71-0.04,2.51
				C8.64,29.26,7.43,30,6.17,30z M5.1,29.18c1.36,0.59,2.94-0.04,3.52-1.39c0.29-0.66,0.3-1.38,0.04-2.05
				c-0.26-0.67-0.77-1.19-1.42-1.47c-0.66-0.29-1.38-0.3-2.05-0.04C4.52,24.49,4,25,3.72,25.65c-0.29,0.66-0.3,1.38-0.04,2.05
				C3.94,28.37,4.45,28.89,5.1,29.18L5.1,29.18z"/>
		</g>
	</g>
</g>
</svg>
