<?xml version="1.0" encoding="utf-8"?>
<!-- Generator: Adobe Illustrator 26.0.2, SVG Export Plug-In . SVG Version: 6.00 Build 0)  -->
<svg version="1.1" id="Ebene_1" xmlns="http://www.w3.org/2000/svg" xmlns:xlink="http://www.w3.org/1999/xlink" x="0px" y="0px"
	 viewBox="0 0 122.25 75.81" style="enable-background:new 0 0 122.25 75.81;" xml:space="preserve">
<style type="text/css">
	.st0{fill:#E59C00;}
	.st1{fill:#2B2961;}
	.st2{fill:#FFFFFF;}
	.st3{clip-path:url(#SVGID_00000096059825342221580620000017448884907713829510_);}
	.st4{clip-path:url(#SVGID_00000000917465442159762770000014365798540266261150_);}
	.st5{clip-path:url(#SVGID_00000063615248039652214880000010155018307001695933_);}
	.st6{clip-path:url(#SVGID_00000054260391823913354220000011426448481750683832_);}
	.st7{clip-path:url(#SVGID_00000158022874868662231250000017151222706434995375_);}
	.st8{clip-path:url(#SVGID_00000064330632148497430720000013461589119820529544_);}
	.st9{clip-path:url(#SVGID_00000160872573213900526100000008147125187131060897_);}
	.st10{clip-path:url(#SVGID_00000152961855999379039660000004267798908775024258_);}
	.st11{clip-path:url(#SVGID_00000023253569127922845770000013998375695137830551_);}
	.st12{clip-path:url(#SVGID_00000109709895738792349960000003586506676860283052_);}
	.st13{clip-path:url(#SVGID_00000067211293076720614850000011949222642046834571_);}
	.st14{clip-path:url(#SVGID_00000058574556473039277590000015529584421047134141_);}
	.st15{clip-path:url(#SVGID_00000106856537223633392410000006926867452897012870_);}
	.st16{clip-path:url(#SVGID_00000057848210099809557520000004743561811590388398_);}
	.st17{clip-path:url(#SVGID_00000088811899691529353000000012821817576781778584_);}
	.st18{clip-path:url(#SVGID_00000062187020418076484090000001254854272907339687_);}
	.st19{clip-path:url(#SVGID_00000005260453324181495190000011879512221994906015_);}
	.st20{clip-path:url(#SVGID_00000093154310615644224740000008896530516842061483_);}
	.st21{clip-path:url(#SVGID_00000099619946905945188380000014714494631348964995_);}
	.st22{clip-path:url(#SVGID_00000165948666917501866430000001365581893226005154_);}
	.st23{clip-path:url(#SVGID_00000137817728680999676310000011541396642301822139_);}
	.st24{clip-path:url(#SVGID_00000104708171876489057900000004470538868338347681_);}
	.st25{clip-path:url(#SVGID_00000054961082431648985410000001792692397998005138_);}
	.st26{clip-path:url(#SVGID_00000164508110229447362530000016687342077360170629_);}
	.st27{clip-path:url(#SVGID_00000101091435098404503360000016133137557946689953_);}
	.st28{clip-path:url(#SVGID_00000091712397515568947880000018410091792021760938_);}
	.st29{clip-path:url(#SVGID_00000129186101118261548970000010584898063518266031_);}
	.st30{clip-path:url(#SVGID_00000098926533313346085300000005297548444540266140_);}
	.st31{clip-path:url(#SVGID_00000015344508639774023690000004937710369159008698_);}
	.st32{clip-path:url(#SVGID_00000068638051106586165790000018356515196890355092_);}
	.st33{clip-path:url(#SVGID_00000121265218963569362660000000720322359743004085_);}
	.st34{clip-path:url(#SVGID_00000089573568828495484400000013656498109716851643_);}
	.st35{clip-path:url(#SVGID_00000044892428224398066900000004306687472852843434_);}
	.st36{clip-path:url(#SVGID_00000016069501787503589340000015502494739130867646_);}
	.st37{clip-path:url(#SVGID_00000000937402084900257450000016713334682106777261_);}
	.st38{clip-path:url(#SVGID_00000037690197344439306540000011676579054989853885_);}
	.st39{clip-path:url(#SVGID_00000090260202974470792810000010917431958137270935_);}
	.st40{clip-path:url(#SVGID_00000064314435101594226910000005034926408722454975_);}
	.st41{clip-path:url(#SVGID_00000069392174631919124710000014022715996976154251_);}
	.st42{clip-path:url(#SVGID_00000127725739060382559210000014419726705486929032_);}
	.st43{clip-path:url(#SVGID_00000050634686549487902730000000583677423487149731_);}
	.st44{clip-path:url(#SVGID_00000128457291485254116740000004819460017991525288_);}
	.st45{clip-path:url(#SVGID_00000079482431274998923130000017273233182961048231_);}
	.st46{clip-path:url(#SVGID_00000036247468947714217690000004918896411246288261_);}
	.st47{clip-path:url(#SVGID_00000113346284685009956220000001530145336393555640_);}
	.st48{clip-path:url(#SVGID_00000154387212194787771440000009185442076312425643_);}
	.st49{clip-path:url(#SVGID_00000075147064997866190540000001634873432850351023_);}
	.st50{clip-path:url(#SVGID_00000030454390067869279790000006957509811179035028_);}
	.st51{clip-path:url(#SVGID_00000075853176989049028760000015166422101533160590_);}
	.st52{clip-path:url(#SVGID_00000121272157164783019730000010322757207429139110_);}
	.st53{clip-path:url(#SVGID_00000036217714545897047920000012410043841129523386_);}
	.st54{clip-path:url(#SVGID_00000049913683812951079870000009683980769458076804_);}
	.st55{clip-path:url(#SVGID_00000153683017129217409700000003862588628926425999_);}
	.st56{clip-path:url(#SVGID_00000050663357065487320280000004390446894442258853_);}
	.st57{clip-path:url(#SVGID_00000003069237207998229220000014505389069309353649_);}
	.st58{clip-path:url(#SVGID_00000145738658884747700610000004693181601355598222_);}
	.st59{clip-path:url(#SVGID_00000036220088900786456450000005330806152840153989_);}
	.st60{clip-path:url(#SVGID_00000179611614243806362600000017095399865390024836_);}
	.st61{clip-path:url(#SVGID_00000011011118383473255890000005976305290115464592_);}
	.st62{clip-path:url(#SVGID_00000005258649390962286910000012169394126615181236_);}
	.st63{clip-path:url(#SVGID_00000078027617388746993200000015003181771530361223_);}
	.st64{clip-path:url(#SVGID_00000098197908738468364870000013726486872269178273_);}
	.st65{clip-path:url(#SVGID_00000082369124694180395750000014615595294761056154_);}
	.st66{clip-path:url(#SVGID_00000003093922364312179110000015086305476571777188_);}
	.st67{clip-path:url(#SVGID_00000026144912841671328070000009903209361269526920_);}
	.st68{clip-path:url(#SVGID_00000183230930960908374350000008720739505167556783_);}
	.st69{clip-path:url(#SVGID_00000042005942378074672690000003954857932426678971_);}
	.st70{clip-path:url(#SVGID_00000183946102681584161450000016583079559558158997_);}
	.st71{clip-path:url(#SVGID_00000122705124627371845720000016673155341986375354_);}
	.st72{clip-path:url(#SVGID_00000018226278872012736370000010471429757396144816_);}
	.st73{clip-path:url(#SVGID_00000073689303801861500580000015758084234149725097_);}
	.st74{clip-path:url(#SVGID_00000033353640904455770910000000391977156964193176_);}
	.st75{clip-path:url(#SVGID_00000011008757582776068100000003229149915012170123_);}
	.st76{clip-path:url(#SVGID_00000032639778033330587540000000005795033385121433_);}
	.st77{clip-path:url(#SVGID_00000169526233225131808590000013686619468300994453_);}
	.st78{clip-path:url(#SVGID_00000065053323650515340070000009524302918845713051_);}
	.st79{clip-path:url(#SVGID_00000163041512409583956980000016931759313965077915_);}
	.st80{clip-path:url(#SVGID_00000105401045430239816610000015701952302854065038_);}
	.st81{clip-path:url(#SVGID_00000175295903836137844140000001701797699032145586_);}
	.st82{clip-path:url(#SVGID_00000096054626242994814360000018307591165469589909_);}
	.st83{fill:none;}
	.st84{clip-path:url(#SVGID_00000005234369356505914900000013866822483491588514_);}
	.st85{clip-path:url(#SVGID_00000125573632477104664910000002771185149637087890_);}
	.st86{clip-path:url(#SVGID_00000099662368364354839780000006136201899744889785_);}
	.st87{clip-path:url(#SVGID_00000036961869413176172920000013812298076071377576_);}
	.st88{clip-path:url(#SVGID_00000149381570417964135620000000406813408291126461_);}
	.st89{clip-path:url(#SVGID_00000164497576877550909800000003862108183514448814_);}
	.st90{clip-path:url(#SVGID_00000116930506791052317980000011099688668458940848_);}
	.st91{clip-path:url(#SVGID_00000001653204073404658000000015118112117889428630_);}
	.st92{clip-path:url(#SVGID_00000176764067236602733750000006996184685974617017_);}
	.st93{clip-path:url(#SVGID_00000087397511637688999060000014612665794491031714_);}
	.st94{clip-path:url(#SVGID_00000023984964117918092140000007534094165705535162_);}
	.st95{clip-path:url(#SVGID_00000035523356167083576060000010696836135555609496_);}
	.st96{clip-path:url(#SVGID_00000056407713326278072990000004960159309672032911_);}
	.st97{clip-path:url(#SVGID_00000114769423238249700440000000799027553375901831_);}
	.st98{clip-path:url(#SVGID_00000139266708411630290430000010812726536822736555_);}
	.st99{clip-path:url(#SVGID_00000094599676693852203540000007219421628871119240_);}
	.st100{clip-path:url(#SVGID_00000124880642844931934770000005223491203427325116_);}
	.st101{clip-path:url(#SVGID_00000057134546243255365930000009920099238783531911_);}
	.st102{clip-path:url(#SVGID_00000111192105219749350490000002314499002622417080_);}
	.st103{clip-path:url(#SVGID_00000027566335827431309150000006843569659268705171_);}
	.st104{clip-path:url(#SVGID_00000165232543043987979520000017874911429986213812_);}
	.st105{clip-path:url(#SVGID_00000013877375467702537450000002389792823011554733_);}
	.st106{clip-path:url(#SVGID_00000130618296828791598200000006210851811274913671_);}
	.st107{clip-path:url(#SVGID_00000150817078621159651690000002961702435264891320_);}
	.st108{clip-path:url(#SVGID_00000063632641866759274530000001873509953921703317_);}
	.st109{clip-path:url(#SVGID_00000151514140901471603990000003139455547766262454_);}
	.st110{clip-path:url(#SVGID_00000116208787591603760310000012340401082879356839_);}
	.st111{clip-path:url(#SVGID_00000095301293371616788440000000588768020214301118_);}
	.st112{clip-path:url(#SVGID_00000064318499626953935290000007058828977544710290_);}
	.st113{clip-path:url(#SVGID_00000007386278841397483340000010181920389719220130_);}
	.st114{clip-path:url(#SVGID_00000071552439209997748700000012781978407528843174_);}
	.st115{clip-path:url(#SVGID_00000159433357455763621890000003354493726349317539_);}
	.st116{clip-path:url(#SVGID_00000160901686545992524990000007294161787185178505_);}
	.st117{clip-path:url(#SVGID_00000044865779602510816040000003691313863515044499_);}
	.st118{clip-path:url(#SVGID_00000058584823613848397290000001320864297786320272_);}
	.st119{clip-path:url(#SVGID_00000132072675363861903920000016493449996042429839_);}
	.st120{clip-path:url(#SVGID_00000057865813621032339170000010912955224109031353_);}
	.st121{clip-path:url(#SVGID_00000128460508006014402560000007922675041647863434_);}
	.st122{clip-path:url(#SVGID_00000047780558270631559050000002731519126922499496_);}
	.st123{clip-path:url(#SVGID_00000161589493046697629960000010400539644510632838_);}
	.st124{clip-path:url(#SVGID_00000076593534093875815200000015743503845721588642_);}
	.st125{clip-path:url(#SVGID_00000143590877758567057040000014490891421818088622_);}
	.st126{clip-path:url(#SVGID_00000067949277971405264340000009091751931471825826_);}
	.st127{clip-path:url(#SVGID_00000152968251649616804890000010603971313889729457_);}
	.st128{clip-path:url(#SVGID_00000089573461025400838370000009310819228755788209_);}
	.st129{clip-path:url(#SVGID_00000122684747550945976370000005816152871939220121_);}
	.st130{clip-path:url(#SVGID_00000114036337032619744180000002240281827669775752_);}
	.st131{clip-path:url(#SVGID_00000127023599253683215370000003671355097162441125_);}
	.st132{clip-path:url(#SVGID_00000072270655314163607090000015955717966169219487_);}
	.st133{clip-path:url(#SVGID_00000131353887796647869350000016640712223628024758_);}
	.st134{clip-path:url(#SVGID_00000036940465235636916460000000014547745215512992_);}
	.st135{clip-path:url(#SVGID_00000177450792081742501290000000953925028322428568_);}
	.st136{clip-path:url(#SVGID_00000001648513067780689080000017256446719881919652_);}
	.st137{clip-path:url(#SVGID_00000085209497368630693450000007496214773898418057_);}
	.st138{clip-path:url(#SVGID_00000140695200803279063580000009320011921884530606_);}
	.st139{clip-path:url(#SVGID_00000132803075888949284020000011876614082218331306_);}
	.st140{clip-path:url(#SVGID_00000155867428166078559630000014993464472423475610_);}
	.st141{clip-path:url(#SVGID_00000001624410248519375820000011607971352795188658_);}
	.st142{clip-path:url(#SVGID_00000094619207989396460640000008288710008602666166_);}
	.st143{clip-path:url(#SVGID_00000149351238251261146800000016283035248929300911_);}
	.st144{clip-path:url(#SVGID_00000059297940746474549880000015927951646470230171_);}
	.st145{clip-path:url(#SVGID_00000065784229524605640780000005514612591033006774_);}
	.st146{clip-path:url(#SVGID_00000132777778272203183000000017749560918182945409_);}
	.st147{clip-path:url(#SVGID_00000178918758247543649740000007715538972308266634_);}
	.st148{clip-path:url(#SVGID_00000137129248888095105050000008808783738412073603_);}
	.st149{clip-path:url(#SVGID_00000085223095978478794920000003492490869007230089_);}
	.st150{clip-path:url(#SVGID_00000109000611589326731360000018073979234706958005_);}
	.st151{clip-path:url(#SVGID_00000106844492346367280250000014236784207138337927_);}
	.st152{clip-path:url(#SVGID_00000148646839874471035420000006861631332861775252_);}
	.st153{clip-path:url(#SVGID_00000110435259755302585740000011107344187520533646_);}
	.st154{clip-path:url(#SVGID_00000023983530663335374970000016251801092130161551_);}
	.st155{clip-path:url(#SVGID_00000178175455324265916430000011328421758756789391_);}
	.st156{clip-path:url(#SVGID_00000182498023381955128460000015254347592997032101_);}
	.st157{clip-path:url(#SVGID_00000021098474066393976420000001174347937466980232_);}
	.st158{clip-path:url(#SVGID_00000130628693122942107400000006234480863601630904_);}
	.st159{clip-path:url(#SVGID_00000062153064608282292390000009288758247662856886_);}
	.st160{clip-path:url(#SVGID_00000071534953428047616010000006581040504459086997_);}
	.st161{clip-path:url(#SVGID_00000104679734720357268120000000198865546501146762_);}
	.st162{clip-path:url(#SVGID_00000019675167283121170240000006888192439339786423_);}
	.st163{clip-path:url(#SVGID_00000139296026996161314830000016003960753549679018_);}
	.st164{clip-path:url(#SVGID_00000171696569234669582720000016857416141520507811_);}
	.st165{clip-path:url(#SVGID_00000059300841512640926320000012625932616122227075_);}
	.st166{clip-path:url(#SVGID_00000158731428054821107070000016145160273514343582_);}
	.st167{clip-path:url(#SVGID_00000024711081535710465670000015359123790691847090_);}
	.st168{clip-path:url(#SVGID_00000179614842538903253270000003104895309723180947_);}
	.st169{clip-path:url(#SVGID_00000122720833910228711530000015325942169029186184_);}
	.st170{clip-path:url(#SVGID_00000088818771917609819920000011070354820386529456_);}
	.st171{clip-path:url(#SVGID_00000165195296290993586630000002462172978970191011_);}
	.st172{clip-path:url(#SVGID_00000113349954611456318130000012531828487100311468_);}
	.st173{clip-path:url(#SVGID_00000161623068020723218260000007790102346649876158_);}
	.st174{clip-path:url(#SVGID_00000129927355248300844860000006125604605769578630_);}
	.st175{clip-path:url(#SVGID_00000063626937002366909490000007570807335994673058_);}
	.st176{clip-path:url(#SVGID_00000087374469688891645540000007070115112701564294_);}
	.st177{clip-path:url(#SVGID_00000111193802296377411650000002561791136642708147_);}
	.st178{clip-path:url(#SVGID_00000030467207655098320420000001934234849137166260_);}
	.st179{clip-path:url(#SVGID_00000166652769394137016020000011420472895816965778_);}
	.st180{clip-path:url(#SVGID_00000077299701142903037060000006091354212247469457_);}
	.st181{clip-path:url(#SVGID_00000000198960609819477840000008642520830830530468_);}
	.st182{clip-path:url(#SVGID_00000169558914985609602890000010028963322053157530_);}
	.st183{clip-path:url(#SVGID_00000103232903424421472650000002166541081396305798_);}
	.st184{clip-path:url(#SVGID_00000028295209317827523640000012255096184059041973_);}
	.st185{clip-path:url(#SVGID_00000016768290574587537720000003601127819150647182_);}
	.st186{clip-path:url(#SVGID_00000046297552125582416740000010348670676804162994_);}
</style>
<g>
</g>
<g>
	<g>
		<g>
			<path class="st0" d="M29.08,11.43c-0.01-1.46-1.21-2.76-2.64-2.75c-1.45,0.01-2.62,1.3-2.62,2.75v2.22h5.25L29.08,11.43z"/>
		</g>
		<g>
			<path class="st0" d="M29.06,13.77h-5.25c-0.07,0-0.13-0.06-0.13-0.13v-2.22c0-1.55,1.26-2.87,2.75-2.88c0.01,0,0.01,0,0.02,0
				c0.68,0,1.34,0.28,1.86,0.79c0.56,0.55,0.89,1.31,0.89,2.09c0,0,0,0,0,0l-0.02,2.22C29.19,13.72,29.13,13.77,29.06,13.77z
				 M23.94,13.52h5l0.02-2.09c0-0.7-0.3-1.4-0.81-1.91c-0.47-0.47-1.07-0.72-1.69-0.72c-0.01,0-0.01,0-0.02,0
				c-1.35,0.01-2.5,1.21-2.5,2.63V13.52z"/>
		</g>
		<g>
			<path class="st1" d="M28.47,20.87h-5.23c-0.17,0-0.3-0.13-0.3-0.3v-9.4c0-1.64,1.33-3.04,2.91-3.05
				c0.73-0.03,1.44,0.29,1.99,0.84c0.59,0.59,0.94,1.39,0.94,2.21c0,0,0,0,0,0l-0.02,9.4C28.77,20.74,28.63,20.87,28.47,20.87z
				 M23.54,20.27h4.63l0.02-9.1c0-0.66-0.28-1.31-0.76-1.79c-0.44-0.43-0.97-0.67-1.57-0.67c-1.25,0.01-2.32,1.13-2.32,2.45V20.27z"
				/>
		</g>
		<g>
			<path class="st2" d="M30.96,16.45c0,2.86-2.32,5.18-5.18,5.18c-2.86,0-5.17-2.32-5.17-5.18c0-2.86,2.32-5.17,5.17-5.17
				C28.64,11.27,30.96,13.59,30.96,16.45"/>
		</g>
		<g>
			<path class="st1" d="M25.78,21.92c-3.02,0-5.48-2.46-5.48-5.48c0-3.02,2.46-5.47,5.48-5.47c3.02,0,5.48,2.46,5.48,5.47
				C31.26,19.47,28.8,21.92,25.78,21.92z M25.78,11.57c-2.69,0-4.88,2.19-4.88,4.88c0,2.69,2.19,4.88,4.88,4.88s4.88-2.19,4.88-4.88
				C30.66,13.76,28.47,11.57,25.78,11.57z"/>
		</g>
		<g>
			<path class="st0" d="M30.97,15.16c-0.6-1.97-2.44-3.4-4.61-3.4c-2.17,0-4.01,1.43-4.61,3.4H30.97z"/>
		</g>
		<g>
			<path class="st0" d="M30.97,15.29h-9.21c-0.04,0-0.08-0.02-0.1-0.05c-0.02-0.03-0.03-0.07-0.02-0.11
				c0.64-2.09,2.54-3.49,4.73-3.49s4.09,1.4,4.73,3.49c0.01,0.04,0,0.08-0.02,0.11C31.04,15.27,31.01,15.29,30.97,15.29z
				 M21.93,15.03h8.87c-0.65-1.89-2.41-3.15-4.43-3.15S22.58,13.14,21.93,15.03z"/>
		</g>
	</g>
	<g>
		<rect x="20.86" y="14.99" class="st1" width="9.85" height="0.4"/>
	</g>
	<g>
		<g>
			<path class="st1" d="M24.18,16.83c0,0.15-0.12,0.28-0.28,0.28c-0.15,0-0.28-0.12-0.28-0.28c0-0.15,0.12-0.28,0.28-0.28
				C24.06,16.56,24.18,16.68,24.18,16.83"/>
		</g>
		<g>
			<path class="st1" d="M27.94,16.83c0,0.15-0.12,0.28-0.28,0.28s-0.28-0.12-0.28-0.28c0-0.15,0.12-0.28,0.28-0.28
				S27.94,16.68,27.94,16.83"/>
		</g>
		<g>
			<path class="st1" d="M25.78,21.92c-3.02,0-5.48-2.46-5.48-5.48c0-3.02,2.46-5.47,5.48-5.47c3.02,0,5.48,2.46,5.48,5.47
				C31.26,19.47,28.8,21.92,25.78,21.92z M25.78,11.57c-2.69,0-4.88,2.19-4.88,4.88c0,2.69,2.19,4.88,4.88,4.88s4.88-2.19,4.88-4.88
				C30.66,13.76,28.47,11.57,25.78,11.57z"/>
		</g>
	</g>
	<g>
		<rect x="16.85" y="56.54" class="st1" width="18.41" height="0.4"/>
	</g>
	<g>
		<path class="st1" d="M31.28,72.92c-0.17,0-0.3-0.13-0.3-0.3v-6.58c0-0.17,0.13-0.3,0.3-0.3s0.3,0.13,0.3,0.3v6.58
			C31.58,72.79,31.45,72.92,31.28,72.92z M20.62,72.92c-0.17,0-0.3-0.13-0.3-0.3v-6.58c0-0.17,0.13-0.3,0.3-0.3s0.3,0.13,0.3,0.3
			v6.58C20.92,72.79,20.79,72.92,20.62,72.92z"/>
	</g>
	<g>
		<path class="st1" d="M20.62,41.68c-0.19,0-0.35-0.16-0.35-0.35v-8.85c0-0.19,0.16-0.35,0.35-0.35s0.35,0.16,0.35,0.35v8.85
			C20.96,41.52,20.81,41.68,20.62,41.68z"/>
	</g>
	<g>
		<g>
			<path class="st1" d="M35.13,66.06H16.72c-0.17,0-0.3-0.13-0.3-0.3V32.77c0-5.37,4.35-9.94,9.5-9.97c0.02,0,0.04,0,0.06,0
				c2.36,0,4.64,0.97,6.43,2.74c1.94,1.92,3.07,4.55,3.08,7.23c0,0,0,0,0,0l-0.06,32.99C35.43,65.93,35.29,66.06,35.13,66.06z
				 M17.02,65.46h17.81l0.06-32.69c-0.01-2.51-1.07-4.99-2.9-6.8c-1.68-1.66-3.81-2.57-6.01-2.57c-0.02,0-0.04,0-0.05,0
				c-4.83,0.03-8.91,4.33-8.91,9.37V65.46z"/>
		</g>
	</g>
	<g>
		<path class="st1" d="M31.29,41.68c-0.19,0-0.35-0.16-0.35-0.35v-8.85c0-0.19,0.16-0.35,0.35-0.35s0.35,0.16,0.35,0.35v8.85
			C31.64,41.52,31.48,41.68,31.29,41.68z"/>
	</g>
	<g>
		<rect x="18.43" y="48.16" class="st0" width="17.87" height="18.33"/>
	</g>
	<g>
		<path class="st0" d="M36.3,66.62H18.43c-0.07,0-0.12-0.06-0.12-0.12V48.16c0-0.07,0.06-0.12,0.12-0.12H36.3
			c0.07,0,0.12,0.06,0.12,0.12v18.33C36.42,66.56,36.37,66.62,36.3,66.62z M18.56,66.37h17.62V48.28H18.56V66.37z"/>
	</g>
	<g>
		<rect x="17.06" y="47.87" class="st1" width="19.52" height="0.4"/>
	</g>
	<g>
		<path class="st1" d="M32.38,73.97c-0.17,0-0.3-0.13-0.3-0.3v-7.02c0-0.17,0.13-0.3,0.3-0.3s0.3,0.13,0.3,0.3v7.02
			C32.68,73.84,32.55,73.97,32.38,73.97z M21.04,73.97c-0.17,0-0.3-0.13-0.3-0.3v-7.02c0-0.17,0.13-0.3,0.3-0.3s0.3,0.13,0.3,0.3
			v7.02C21.34,73.84,21.21,73.97,21.04,73.97z"/>
	</g>
	<g>
		<path class="st1" d="M26.64,66.69c-0.11,0-0.2-0.09-0.2-0.2V50.97c0-0.11,0.09-0.2,0.2-0.2s0.2,0.09,0.2,0.2v15.52
			C26.84,66.6,26.75,66.69,26.64,66.69z"/>
	</g>
	<g>
		<rect x="0.3" y="39.89" class="st2" width="51.31" height="34.3"/>
	</g>
	<g>
		<g>
			<path class="st1" d="M51.61,74.48H0.3c-0.17,0-0.3-0.13-0.3-0.3v-34.3c0-0.17,0.13-0.3,0.3-0.3h51.31c0.17,0,0.3,0.13,0.3,0.3
				v34.3C51.91,74.35,51.77,74.48,51.61,74.48z M0.6,73.88h50.71v-33.7H0.6V73.88z"/>
		</g>
	</g>
	<g>
		<rect x="2.25" y="41.02" class="st0" width="50.49" height="34.3"/>
	</g>
	<g>
		<g>
			<path class="st0" d="M52.74,75.44H2.25c-0.07,0-0.13-0.06-0.13-0.13v-34.3c0-0.07,0.06-0.13,0.13-0.13h50.49
				c0.07,0,0.13,0.06,0.13,0.13v34.3C52.87,75.39,52.81,75.44,52.74,75.44z M2.38,75.19h50.24V41.15H2.38V75.19z"/>
		</g>
		<g>
			<path class="st1" d="M51.61,74.48H0.3c-0.17,0-0.3-0.13-0.3-0.3v-34.3c0-0.17,0.13-0.3,0.3-0.3h51.31c0.17,0,0.3,0.13,0.3,0.3
				v34.3C51.91,74.35,51.77,74.48,51.61,74.48z M0.6,73.88h50.71v-33.7H0.6V73.88z"/>
		</g>
		<g>
			<path class="st2" d="M112.31,23.04c2.03,0,3.93,0.38,5.5,1.47v-7.03l-0.57,0.8c-0.9,1.86-2.76,3.15-4.92,3.15
				c-2.16,0-3.69-0.9-4.59-2.76l-0.38-0.38v6.16C108.81,23.55,110.5,23.04,112.31,23.04"/>
		</g>
		<g>
			<path class="st0" d="M117.81,24.64c-0.02,0-0.05-0.01-0.07-0.02c-1.41-0.97-3.19-1.44-5.43-1.44c-1.72,0-3.41,0.47-4.9,1.37
				c-0.04,0.02-0.09,0.02-0.13,0c-0.04-0.02-0.06-0.06-0.06-0.11v-6.16c0-0.05,0.03-0.1,0.08-0.12c0.05-0.02,0.1-0.01,0.14,0.03
				l0.38,0.38c0.01,0.01,0.02,0.02,0.02,0.03c0.87,1.81,2.34,2.69,4.48,2.69c2.05,0,3.9-1.18,4.81-3.08l0.58-0.81
				c0.03-0.04,0.09-0.06,0.14-0.05c0.05,0.02,0.09,0.06,0.09,0.12v7.04c0,0.05-0.03,0.09-0.07,0.11
				C117.85,24.63,117.83,24.64,117.81,24.64z M112.31,22.92c2.19,0,3.95,0.44,5.37,1.36v-6.41l-0.35,0.48
				c-0.95,1.96-2.88,3.2-5.03,3.2c-2.2,0-3.78-0.95-4.69-2.82l-0.15-0.15v5.64C108.95,23.37,110.62,22.92,112.31,22.92z"/>
		</g>
		<g>
			<path class="st2" d="M106.62,16.04v8.65c1.55-1.04,3.3-1.65,5.31-1.65s4.18,0.79,5.73,1.83v-8.93"/>
		</g>
		<g>
			<path class="st1" d="M117.66,25.16c-0.06,0-0.12-0.02-0.17-0.05c-1.63-1.1-3.76-1.78-5.56-1.78c-1.86,0-3.55,0.52-5.15,1.6
				c-0.09,0.06-0.21,0.07-0.31,0.02c-0.1-0.05-0.16-0.15-0.16-0.26v-8.65h0.6v8.1c1.55-0.93,3.24-1.41,5.02-1.41
				c1.74,0,3.77,0.6,5.43,1.59v-8.39h0.6v8.93c0,0.11-0.06,0.21-0.16,0.26C117.76,25.15,117.71,25.16,117.66,25.16z"/>
		</g>
	</g>
	<g>
		<rect x="103.49" y="58.66" class="st2" width="18.57" height="9.67"/>
	</g>
	<g>
		<path class="st0" d="M122.06,68.45h-18.57c-0.07,0-0.12-0.06-0.12-0.12v-9.67c0-0.07,0.06-0.12,0.12-0.12h18.57
			c0.07,0,0.12,0.06,0.12,0.12v9.67C122.19,68.4,122.13,68.45,122.06,68.45z M103.62,68.2h18.32v-9.42h-18.32V68.2z"/>
	</g>
	<g>
		<rect x="102.49" y="58.46" class="st1" width="19.52" height="0.4"/>
	</g>
	<g>
		<g>
			<path class="st1" d="M117.81,75.81c-0.17,0-0.3-0.13-0.3-0.3v-7.02c0-0.17,0.13-0.3,0.3-0.3s0.3,0.13,0.3,0.3v7.02
				C118.11,75.67,117.98,75.81,117.81,75.81z M106.47,75.81c-0.17,0-0.3-0.13-0.3-0.3v-7.02c0-0.17,0.13-0.3,0.3-0.3
				s0.3,0.13,0.3,0.3v7.02C106.77,75.67,106.64,75.81,106.47,75.81z"/>
		</g>
	</g>
	<g>
		<path class="st1" d="M106.47,42.69c-0.19,0-0.35-0.16-0.35-0.35v-9.43c0-0.19,0.16-0.35,0.35-0.35s0.35,0.16,0.35,0.35v9.43
			C106.82,42.53,106.66,42.69,106.47,42.69z"/>
	</g>
	<g>
		<g>
			<path class="st2" d="M121.95,33.23c-0.03-5.45-4.5-10.3-9.84-10.26c-5.4,0.04-9.78,4.83-9.78,10.26v35.01h19.55L121.95,33.23z"/>
		</g>
		<g>
			<path class="st1" d="M121.88,68.53h-19.55c-0.17,0-0.3-0.13-0.3-0.3V33.23c0-5.69,4.61-10.52,10.07-10.56c0.02,0,0.04,0,0.06,0
				c2.5,0,4.92,1.03,6.82,2.91c2.06,2.03,3.25,4.82,3.26,7.65c0,0,0,0,0,0l-0.07,35.01C122.18,68.4,122.05,68.53,121.88,68.53z
				 M102.63,67.94h18.95l0.07-34.71c-0.02-2.67-1.14-5.31-3.08-7.23c-1.79-1.76-4.06-2.73-6.4-2.73c-0.02,0-0.04,0-0.06,0
				c-5.14,0.04-9.48,4.6-9.48,9.96V67.94z"/>
		</g>
		<g>
			<path class="st2" d="M117.66,14.42c-0.64-2.1-2.59-3.63-4.91-3.63c-2.31,0-4.27,1.53-4.9,3.63H117.66z"/>
		</g>
		<g>
			<path class="st0" d="M117.66,14.54h-9.81c-0.04,0-0.08-0.02-0.1-0.05c-0.02-0.03-0.03-0.07-0.02-0.11
				c0.68-2.23,2.7-3.72,5.02-3.72c2.33,0,4.35,1.5,5.02,3.72c0.01,0.04,0,0.08-0.02,0.11C117.74,14.52,117.7,14.54,117.66,14.54z
				 M108.02,14.29h9.47c-0.69-2.03-2.57-3.38-4.73-3.38C110.59,10.91,108.71,12.26,108.02,14.29z"/>
		</g>
		<g>
			<path class="st2" d="M117.66,15.78c0,3.05-2.47,5.52-5.52,5.52c-3.05,0-5.52-2.47-5.52-5.52c0-3.05,2.47-5.52,5.52-5.52
				C115.19,10.26,117.66,12.73,117.66,15.78"/>
		</g>
		<g>
			<path class="st1" d="M112.14,21.6c-3.21,0-5.82-2.61-5.82-5.82s2.61-5.82,5.82-5.82c3.21,0,5.82,2.61,5.82,5.82
				S115.35,21.6,112.14,21.6z M112.14,10.56c-2.88,0-5.22,2.34-5.22,5.22s2.34,5.22,5.22,5.22c2.88,0,5.22-2.34,5.22-5.22
				S115.02,10.56,112.14,10.56z"/>
		</g>
	</g>
	<g>
		<rect x="106.91" y="14.23" class="st1" width="10.47" height="0.4"/>
	</g>
	<g>
		<g>
			<path class="st2" d="M110.44,16.19c0,0.16-0.13,0.29-0.29,0.29c-0.16,0-0.29-0.13-0.29-0.29c0-0.16,0.13-0.29,0.29-0.29
				C110.31,15.89,110.44,16.03,110.44,16.19"/>
		</g>
		<g>
			<path class="st2" d="M114.43,16.19c0,0.16-0.13,0.29-0.29,0.29c-0.16,0-0.29-0.13-0.29-0.29c0-0.16,0.13-0.29,0.29-0.29
				C114.3,15.89,114.43,16.03,114.43,16.19"/>
		</g>
	</g>
	<g>
		<path class="st1" d="M117.81,42.69c-0.19,0-0.35-0.16-0.35-0.35v-9.43c0-0.19,0.16-0.35,0.35-0.35s0.35,0.16,0.35,0.35v9.43
			C118.16,42.53,118,42.69,117.81,42.69z"/>
	</g>
	<g>
		<rect x="78.51" y="50" class="st0" width="17.87" height="18.33"/>
	</g>
	<g>
		<path class="st0" d="M96.38,68.45H78.51c-0.07,0-0.12-0.06-0.12-0.12V50c0-0.07,0.06-0.12,0.12-0.12h17.87
			c0.07,0,0.12,0.06,0.12,0.12v18.33C96.5,68.4,96.45,68.45,96.38,68.45z M78.64,68.2h17.62V50.12H78.64V68.2z"/>
	</g>
	<g>
		<rect x="77.14" y="49.71" class="st1" width="19.52" height="0.4"/>
	</g>
	<g>
		<g>
			<path class="st1" d="M92.46,75.81c-0.17,0-0.3-0.13-0.3-0.3v-7.02c0-0.17,0.13-0.3,0.3-0.3s0.3,0.13,0.3,0.3v7.02
				C92.76,75.67,92.62,75.81,92.46,75.81z M81.12,75.81c-0.17,0-0.3-0.13-0.3-0.3v-7.02c0-0.17,0.13-0.3,0.3-0.3s0.3,0.13,0.3,0.3
				v7.02C81.42,75.67,81.29,75.81,81.12,75.81z"/>
		</g>
	</g>
	<g>
		<path class="st1" d="M92.46,42.69c-0.19,0-0.35-0.16-0.35-0.35v-9.43c0-0.19,0.16-0.35,0.35-0.35s0.35,0.16,0.35,0.35v9.43
			C92.81,42.53,92.65,42.69,92.46,42.69z M81.12,42.69c-0.19,0-0.35-0.16-0.35-0.35v-9.43c0-0.19,0.16-0.35,0.35-0.35
			s0.35,0.16,0.35,0.35v9.43C81.47,42.53,81.31,42.69,81.12,42.69z"/>
	</g>
	<g>
		<g>
			<path class="st1" d="M96.53,68.53H76.98c-0.17,0-0.3-0.13-0.3-0.3V33.23c0-5.69,4.61-10.52,10.07-10.56
				c2.52,0.02,4.96,1.01,6.88,2.91c2.06,2.03,3.25,4.82,3.26,7.65c0,0,0,0,0,0l-0.07,35.01C96.83,68.4,96.7,68.53,96.53,68.53z
				 M77.28,67.94h18.95l0.07-34.71c-0.02-2.67-1.14-5.3-3.09-7.23c-1.79-1.76-4.06-2.73-6.4-2.73c-0.02,0-0.04,0-0.06,0
				c-5.14,0.04-9.48,4.6-9.48,9.96V67.94z"/>
		</g>
		<g>
			<path class="st0" d="M92.31,14.42c-0.64-2.1-2.59-3.63-4.91-3.63c-2.31,0-4.26,1.53-4.9,3.63H92.31z"/>
		</g>
		<g>
			<path class="st0" d="M92.31,14.54H82.5c-0.04,0-0.08-0.02-0.1-0.05c-0.02-0.03-0.03-0.07-0.02-0.11c0.68-2.23,2.7-3.72,5.02-3.72
				s4.35,1.5,5.02,3.72c0.01,0.04,0,0.08-0.02,0.11C92.39,14.52,92.35,14.54,92.31,14.54z M82.67,14.29h9.47
				c-0.69-2.03-2.57-3.38-4.73-3.38S83.36,12.26,82.67,14.29z"/>
		</g>
		<g>
			<path class="st1" d="M86.79,21.6c-3.21,0-5.82-2.61-5.82-5.82s2.61-5.82,5.82-5.82c3.21,0,5.82,2.61,5.82,5.82
				S90,21.6,86.79,21.6z M86.79,10.56c-2.88,0-5.22,2.34-5.22,5.22S83.91,21,86.79,21c2.88,0,5.22-2.34,5.22-5.22
				S89.67,10.56,86.79,10.56z"/>
		</g>
	</g>
	<g>
		<rect x="81.55" y="14.23" class="st1" width="10.47" height="0.4"/>
	</g>
	<g>
		<g>
			<path class="st1" d="M85.09,16.19c0,0.16-0.13,0.29-0.29,0.29c-0.16,0-0.29-0.13-0.29-0.29c0-0.16,0.13-0.29,0.29-0.29
				C84.96,15.89,85.09,16.03,85.09,16.19"/>
		</g>
		<g>
			<path class="st1" d="M89.08,16.19c0,0.16-0.13,0.29-0.29,0.29c-0.16,0-0.29-0.13-0.29-0.29c0-0.16,0.13-0.29,0.29-0.29
				C88.95,15.89,89.08,16.03,89.08,16.19"/>
		</g>
	</g>
	<g>
		<path class="st1" d="M86.72,68.53c-0.11,0-0.2-0.09-0.2-0.2V52.81c0-0.11,0.09-0.2,0.2-0.2s0.2,0.09,0.2,0.2v15.52
			C86.92,68.44,86.83,68.53,86.72,68.53z"/>
	</g>
	<g>
		<g>
			<path class="st0" d="M112.31,23.04c2.03,0,3.93,0.38,5.5,1.47v-7.03l-0.57,0.8c-0.9,1.86-2.76,3.15-4.92,3.15
				c-2.16,0-3.69-0.9-4.59-2.76l-0.38-0.38v6.16C108.81,23.55,110.5,23.04,112.31,23.04"/>
		</g>
		<g>
			<path class="st0" d="M117.81,24.64c-0.02,0-0.05-0.01-0.07-0.02c-1.41-0.97-3.19-1.44-5.43-1.44c-1.72,0-3.41,0.47-4.9,1.37
				c-0.04,0.02-0.09,0.02-0.13,0c-0.04-0.02-0.06-0.06-0.06-0.11v-6.16c0-0.05,0.03-0.1,0.08-0.12c0.05-0.02,0.1-0.01,0.14,0.03
				l0.38,0.38c0.01,0.01,0.02,0.02,0.02,0.03c0.87,1.81,2.34,2.69,4.48,2.69c2.05,0,3.9-1.18,4.81-3.08l0.58-0.81
				c0.03-0.04,0.09-0.06,0.14-0.05c0.05,0.02,0.09,0.06,0.09,0.12v7.04c0,0.05-0.03,0.09-0.07,0.11
				C117.85,24.63,117.83,24.64,117.81,24.64z M112.31,22.92c2.19,0,3.95,0.44,5.37,1.36v-6.41l-0.35,0.48
				c-0.95,1.96-2.88,3.2-5.03,3.2c-2.2,0-3.78-0.95-4.69-2.82l-0.15-0.15v5.64C108.95,23.37,110.62,22.92,112.31,22.92z"/>
		</g>
		<g>
			<path class="st1" d="M117.66,25.16c-0.06,0-0.12-0.02-0.17-0.05c-1.63-1.1-3.76-1.78-5.56-1.78c-1.86,0-3.55,0.52-5.15,1.6
				c-0.09,0.06-0.21,0.07-0.31,0.02c-0.1-0.05-0.16-0.15-0.16-0.26v-8.65h0.6v8.1c1.55-0.93,3.24-1.41,5.02-1.41
				c1.74,0,3.77,0.6,5.43,1.59v-8.39h0.6v8.93c0,0.11-0.06,0.21-0.16,0.26C117.76,25.15,117.71,25.16,117.66,25.16z"/>
		</g>
	</g>
	<g>
		<rect x="103.49" y="58.66" class="st0" width="18.57" height="9.67"/>
	</g>
	<g>
		<path class="st0" d="M122.06,68.45h-18.57c-0.07,0-0.12-0.06-0.12-0.12v-9.67c0-0.07,0.06-0.12,0.12-0.12h18.57
			c0.07,0,0.12,0.06,0.12,0.12v9.67C122.19,68.4,122.13,68.45,122.06,68.45z M103.62,68.2h18.32v-9.42h-18.32V68.2z"/>
	</g>
	<g>
		<rect x="102.49" y="58.46" class="st1" width="19.52" height="0.4"/>
	</g>
	<g>
		<g>
			<path class="st1" d="M117.81,75.81c-0.17,0-0.3-0.13-0.3-0.3v-7.02c0-0.17,0.13-0.3,0.3-0.3s0.3,0.13,0.3,0.3v7.02
				C118.11,75.67,117.98,75.81,117.81,75.81z M106.47,75.81c-0.17,0-0.3-0.13-0.3-0.3v-7.02c0-0.17,0.13-0.3,0.3-0.3
				s0.3,0.13,0.3,0.3v7.02C106.77,75.67,106.64,75.81,106.47,75.81z"/>
		</g>
	</g>
	<g>
		<path class="st1" d="M106.47,42.69c-0.19,0-0.35-0.16-0.35-0.35v-9.43c0-0.19,0.16-0.35,0.35-0.35s0.35,0.16,0.35,0.35v9.43
			C106.82,42.53,106.66,42.69,106.47,42.69z"/>
	</g>
	<g>
		<g>
			<path class="st1" d="M121.88,68.53h-19.55c-0.17,0-0.3-0.13-0.3-0.3V33.23c0-5.69,4.61-10.52,10.07-10.56c0.02,0,0.04,0,0.06,0
				c2.5,0,4.92,1.03,6.82,2.91c2.06,2.03,3.25,4.82,3.26,7.65c0,0,0,0,0,0l-0.07,35.01C122.18,68.4,122.05,68.53,121.88,68.53z
				 M102.63,67.94h18.95l0.07-34.71c-0.02-2.67-1.14-5.31-3.08-7.23c-1.79-1.76-4.06-2.73-6.4-2.73c-0.02,0-0.04,0-0.06,0
				c-5.14,0.04-9.48,4.6-9.48,9.96V67.94z"/>
		</g>
		<g>
			<path class="st0" d="M117.66,14.42c-0.64-2.1-2.59-3.63-4.91-3.63c-2.31,0-4.27,1.53-4.9,3.63H117.66z"/>
		</g>
		<g>
			<path class="st0" d="M117.66,14.54h-9.81c-0.04,0-0.08-0.02-0.1-0.05c-0.02-0.03-0.03-0.07-0.02-0.11
				c0.68-2.23,2.7-3.72,5.02-3.72c2.33,0,4.35,1.5,5.02,3.72c0.01,0.04,0,0.08-0.02,0.11C117.74,14.52,117.7,14.54,117.66,14.54z
				 M108.02,14.29h9.47c-0.69-2.03-2.57-3.38-4.73-3.38C110.59,10.91,108.71,12.26,108.02,14.29z"/>
		</g>
		<g>
			<path class="st1" d="M112.14,21.6c-3.21,0-5.82-2.61-5.82-5.82s2.61-5.82,5.82-5.82c3.21,0,5.82,2.61,5.82,5.82
				S115.35,21.6,112.14,21.6z M112.14,10.56c-2.88,0-5.22,2.34-5.22,5.22s2.34,5.22,5.22,5.22c2.88,0,5.22-2.34,5.22-5.22
				S115.02,10.56,112.14,10.56z"/>
		</g>
	</g>
	<g>
		<rect x="106.91" y="14.23" class="st1" width="10.47" height="0.4"/>
	</g>
	<g>
		<g>
			<path class="st1" d="M110.44,16.19c0,0.16-0.13,0.29-0.29,0.29c-0.16,0-0.29-0.13-0.29-0.29c0-0.16,0.13-0.29,0.29-0.29
				C110.31,15.89,110.44,16.03,110.44,16.19"/>
		</g>
		<g>
			<path class="st1" d="M114.43,16.19c0,0.16-0.13,0.29-0.29,0.29c-0.16,0-0.29-0.13-0.29-0.29c0-0.16,0.13-0.29,0.29-0.29
				C114.3,15.89,114.43,16.03,114.43,16.19"/>
		</g>
	</g>
	<g>
		<path class="st1" d="M117.81,42.69c-0.19,0-0.35-0.16-0.35-0.35v-9.43c0-0.19,0.16-0.35,0.35-0.35s0.35,0.16,0.35,0.35v9.43
			C118.16,42.53,118,42.69,117.81,42.69z"/>
	</g>
	<g>
		<polygon class="st2" points="60.61,0.23 60.61,14.57 70.09,14.57 76.89,17.74 74.95,11.08 74.95,8 74.95,0.23 		"/>
	</g>
	<g>
		<polygon class="st0" points="60.68,0.63 60.68,14.98 69.4,14.98 76.21,18.14 74.27,11.48 74.27,8.4 74.27,0.63 		"/>
	</g>
	<g>
		<path class="st0" d="M76.21,18.24c-0.01,0-0.03,0-0.04-0.01l-6.78-3.16h-8.7c-0.05,0-0.09-0.04-0.09-0.09V0.63
			c0-0.05,0.04-0.09,0.09-0.09h13.59c0.05,0,0.09,0.04,0.09,0.09v10.83l1.93,6.65c0.01,0.04,0,0.07-0.03,0.1
			C76.25,18.23,76.23,18.24,76.21,18.24z M60.78,14.88h8.63c0.01,0,0.03,0,0.04,0.01l6.61,3.08l-1.88-6.46c0-0.01,0-0.02,0-0.03
			V0.73h-13.4V14.88z"/>
	</g>
	<g>
		<g>
			<path class="st1" d="M76.89,17.97c-0.03,0-0.06-0.01-0.1-0.02l-6.76-3.15H60.6c-0.12,0-0.23-0.1-0.23-0.23V0.23
				C60.38,0.1,60.48,0,60.6,0h14.35c0.12,0,0.23,0.1,0.23,0.23v10.82l1.93,6.64c0.02,0.08,0,0.18-0.07,0.23
				C77,17.95,76.95,17.97,76.89,17.97z M60.83,14.35h9.26c0.03,0,0.07,0.01,0.1,0.02l6.35,2.96l-1.8-6.19
				c-0.01-0.02-0.01-0.04-0.01-0.06V0.45h-13.9V14.35z"/>
		</g>
	</g>
	<g>
		<path class="st1" d="M71.98,11.78h-8.36c-0.08,0-0.15-0.07-0.15-0.15s0.07-0.15,0.15-0.15h8.36c0.08,0,0.15,0.07,0.15,0.15
			S72.06,11.78,71.98,11.78z M71.98,9.74h-8.36c-0.08,0-0.15-0.07-0.15-0.15s0.07-0.15,0.15-0.15h8.36c0.08,0,0.15,0.07,0.15,0.15
			S72.06,9.74,71.98,9.74z M71.98,7.7h-8.36c-0.08,0-0.15-0.07-0.15-0.15s0.07-0.15,0.15-0.15h8.36c0.08,0,0.15,0.07,0.15,0.15
			S72.06,7.7,71.98,7.7z M71.98,5.66h-8.36c-0.08,0-0.15-0.07-0.15-0.15s0.07-0.15,0.15-0.15h8.36c0.08,0,0.15,0.07,0.15,0.15
			S72.06,5.66,71.98,5.66z M71.98,3.62h-8.36c-0.08,0-0.15-0.07-0.15-0.15s0.07-0.15,0.15-0.15h8.36c0.08,0,0.15,0.07,0.15,0.15
			S72.06,3.62,71.98,3.62z"/>
	</g>
</g>
</svg>
