<?xml version="1.0" encoding="utf-8"?>
<!-- Generator: Adobe Illustrator 26.0.2, SVG Export Plug-In . SVG Version: 6.00 Build 0)  -->
<svg version="1.1" id="Ebene_1" xmlns="http://www.w3.org/2000/svg" xmlns:xlink="http://www.w3.org/1999/xlink" x="0px" y="0px"
	 viewBox="0 0 95.4 87.45" style="enable-background:new 0 0 95.4 87.45;" xml:space="preserve">
<style type="text/css">
	.st0{fill:#E59C00;}
	.st1{fill:#2B2961;}
	.st2{fill:#FFFFFF;}
	.st3{clip-path:url(#SVGID_00000140704962508073026780000006688177382381832122_);}
	.st4{clip-path:url(#SVGID_00000001639496515936928050000015006396425919669387_);}
	.st5{clip-path:url(#SVGID_00000003801441665181971900000002371248632323488171_);}
	.st6{clip-path:url(#SVGID_00000132807804448041076080000010919736022655566522_);}
	.st7{clip-path:url(#SVGID_00000080172945143627626350000013718126022430269825_);}
	.st8{clip-path:url(#SVGID_00000158748944702425200480000013631139823136219540_);}
	.st9{clip-path:url(#SVGID_00000019640383119368652710000015270981240077783966_);}
	.st10{clip-path:url(#SVGID_00000075163129459803623570000017775882545069581984_);}
	.st11{clip-path:url(#SVGID_00000063600547929361324850000016921315912493457560_);}
	.st12{clip-path:url(#SVGID_00000065051232308111734690000013647782614949088659_);}
	.st13{clip-path:url(#SVGID_00000049911716615263359350000018188967978387415199_);}
	.st14{clip-path:url(#SVGID_00000152981446486031320030000015071924012067151499_);}
	.st15{clip-path:url(#SVGID_00000080918337359029675960000008020421124776256142_);}
	.st16{clip-path:url(#SVGID_00000086689049995202273690000015093056138682540702_);}
	.st17{clip-path:url(#SVGID_00000014624829000972779980000011373844156551803837_);}
	.st18{clip-path:url(#SVGID_00000121251190392229219530000015462484430916228499_);}
	.st19{clip-path:url(#SVGID_00000114035899455640870210000003877562378443535772_);}
	.st20{clip-path:url(#SVGID_00000116922034286817985830000016324120550391112360_);}
	.st21{clip-path:url(#SVGID_00000035489378514100689430000012152849351852785077_);}
	.st22{clip-path:url(#SVGID_00000138547439349152249230000003955940031755783044_);}
	.st23{clip-path:url(#SVGID_00000059288322295034440610000009952460462131373713_);}
	.st24{clip-path:url(#SVGID_00000114765976990778539400000002273682104186750614_);}
	.st25{clip-path:url(#SVGID_00000090293259936274823860000004708086071354382743_);}
	.st26{clip-path:url(#SVGID_00000002367860028215351690000017144606348931046550_);}
	.st27{clip-path:url(#SVGID_00000173881853306015905450000017533304163120637833_);}
	.st28{clip-path:url(#SVGID_00000050646682939847630910000017959799345642438789_);}
	.st29{clip-path:url(#SVGID_00000096019890784260305240000004656271897457527176_);}
	.st30{clip-path:url(#SVGID_00000082355369334136372540000008088169529917444489_);}
	.st31{clip-path:url(#SVGID_00000150812789421258142560000009651573536095924923_);}
	.st32{clip-path:url(#SVGID_00000142158777922875309310000011748672389783256973_);}
	.st33{clip-path:url(#SVGID_00000089559390309981478130000003703586921304251798_);}
	.st34{clip-path:url(#SVGID_00000163777106047090904560000003974106238010991801_);}
	.st35{clip-path:url(#SVGID_00000168801948351215279080000008529905195648577727_);}
	.st36{clip-path:url(#SVGID_00000036210137818286908770000005770613582166147488_);}
	.st37{clip-path:url(#SVGID_00000084505672501344537510000000574038105150635683_);}
	.st38{clip-path:url(#SVGID_00000071553631193613264160000012010972902145070763_);}
	.st39{clip-path:url(#SVGID_00000114773406729924460800000016902039752432786090_);}
	.st40{clip-path:url(#SVGID_00000029755036502190430380000002619956058383873165_);}
	.st41{clip-path:url(#SVGID_00000173876857068677324470000003628727997451559319_);}
	.st42{clip-path:url(#SVGID_00000085220577832600667980000015866969996067499940_);}
	.st43{clip-path:url(#SVGID_00000003071264504387668280000005534146758732104111_);}
	.st44{clip-path:url(#SVGID_00000176757974005855647350000003442708537597137070_);}
	.st45{clip-path:url(#SVGID_00000165220686868680461110000006075547285467909053_);}
	.st46{clip-path:url(#SVGID_00000070094900343502724780000008021201623066264762_);}
	.st47{clip-path:url(#SVGID_00000052063775486802000260000000677084961505347246_);}
	.st48{clip-path:url(#SVGID_00000043438119179163541810000017715452575405735057_);}
	.st49{clip-path:url(#SVGID_00000102528740745938609900000002482351601689933490_);}
	.st50{clip-path:url(#SVGID_00000140695897645784822620000017155901521335934606_);}
	.st51{clip-path:url(#SVGID_00000122000781286892990160000014548348553257129387_);}
	.st52{clip-path:url(#SVGID_00000140013217123217048280000012832712464408455064_);}
	.st53{clip-path:url(#SVGID_00000028311549422232847210000005779581490877680263_);}
	.st54{clip-path:url(#SVGID_00000092420105746149924700000001253843883464637836_);}
	.st55{clip-path:url(#SVGID_00000117651595878211270110000000727387316753049482_);}
	.st56{clip-path:url(#SVGID_00000134231900385287193140000002370943422078341526_);}
	.st57{clip-path:url(#SVGID_00000075128558136815414490000013212178802391271079_);}
	.st58{clip-path:url(#SVGID_00000119807233269226947690000014361099365070908554_);}
	.st59{clip-path:url(#SVGID_00000164481664508144461950000006300129368296022446_);}
	.st60{clip-path:url(#SVGID_00000036964491068823156380000008526095783858139319_);}
	.st61{clip-path:url(#SVGID_00000131329373723179228850000017973852876342536087_);}
	.st62{clip-path:url(#SVGID_00000011000889561678352500000008814408864724027781_);}
	.st63{clip-path:url(#SVGID_00000112594033239955772760000014919877136790528951_);}
	.st64{clip-path:url(#SVGID_00000085941356960941732570000002846526688900324748_);}
	.st65{clip-path:url(#SVGID_00000119828256228510006910000015469068288438747060_);}
	.st66{clip-path:url(#SVGID_00000145777954983517349670000004961963983281255818_);}
	.st67{clip-path:url(#SVGID_00000176020339498289247930000007460770718258164410_);}
	.st68{clip-path:url(#SVGID_00000000223488231555350780000002693684526197527437_);}
	.st69{clip-path:url(#SVGID_00000060742521701780507400000009436002110457854083_);}
	.st70{clip-path:url(#SVGID_00000098910272022816029150000001990092494535349653_);}
	.st71{clip-path:url(#SVGID_00000015354898718106878030000004860420267752216198_);}
	.st72{clip-path:url(#SVGID_00000002379475987220809650000005730835478651539354_);}
	.st73{clip-path:url(#SVGID_00000004518741556104347570000008120542458907194793_);}
	.st74{clip-path:url(#SVGID_00000018948852129272092010000015106111569940384674_);}
	.st75{clip-path:url(#SVGID_00000040541850168103011520000001293907749127541645_);}
	.st76{clip-path:url(#SVGID_00000108293178650920004660000006560989013899525816_);}
	.st77{clip-path:url(#SVGID_00000149369594315170009970000006963266497957217438_);}
	.st78{clip-path:url(#SVGID_00000127723583294608541850000011457096135007414658_);}
	.st79{clip-path:url(#SVGID_00000054268029624012719840000010035116101644347791_);}
	.st80{clip-path:url(#SVGID_00000091008300090758805950000007943833059262982551_);}
	.st81{clip-path:url(#SVGID_00000044883984960617731880000006052169392126323106_);}
	.st82{clip-path:url(#SVGID_00000011726048477568604810000005519908143639826837_);}
	.st83{fill:none;}
	.st84{clip-path:url(#SVGID_00000124856550935576620910000013068569412917451964_);}
	.st85{clip-path:url(#SVGID_00000080904257216171426520000011626078107450716572_);}
	.st86{clip-path:url(#SVGID_00000093140656135237243670000017307383940984570526_);}
	.st87{clip-path:url(#SVGID_00000106849778843676307400000004258228438183468213_);}
	.st88{clip-path:url(#SVGID_00000094618894017016893000000013751632847486666401_);}
	.st89{clip-path:url(#SVGID_00000027601697734858125980000012490907922948838021_);}
	.st90{clip-path:url(#SVGID_00000067222595007295836040000010063799506759415689_);}
	.st91{clip-path:url(#SVGID_00000071527447610061377910000013249000981655969426_);}
	.st92{clip-path:url(#SVGID_00000033336411535007739090000011315567823636996254_);}
	.st93{clip-path:url(#SVGID_00000018945646939653167010000002499472443215436692_);}
	.st94{clip-path:url(#SVGID_00000025407736233183484950000002639087007766310078_);}
	.st95{clip-path:url(#SVGID_00000096738156382676709700000005725797249416188079_);}
	.st96{clip-path:url(#SVGID_00000173849508631486738920000018248078851910658703_);}
	.st97{clip-path:url(#SVGID_00000080200820496563132440000014424389542367418028_);}
	.st98{clip-path:url(#SVGID_00000177483085590859935230000006813676750425848475_);}
	.st99{clip-path:url(#SVGID_00000013885079287906077580000005691053652621515941_);}
	.st100{clip-path:url(#SVGID_00000086686818809420331810000015045136814693175939_);}
	.st101{clip-path:url(#SVGID_00000147214247546840254520000003202663577151770799_);}
	.st102{clip-path:url(#SVGID_00000100363965284443767880000017491585664547609491_);}
	.st103{clip-path:url(#SVGID_00000134936697850809395180000000301602440076020927_);}
	.st104{clip-path:url(#SVGID_00000126308458786172814170000004778577740424343952_);}
	.st105{clip-path:url(#SVGID_00000056404500680237328150000005554862557528025241_);}
	.st106{clip-path:url(#SVGID_00000070820101765135334990000003530026451036413835_);}
	.st107{clip-path:url(#SVGID_00000133500720362496553610000015242178645402641589_);}
	.st108{clip-path:url(#SVGID_00000082347216588470698410000011316087858792154019_);}
	.st109{clip-path:url(#SVGID_00000109733894668635312710000003742855092010268061_);}
	.st110{clip-path:url(#SVGID_00000182521071414060374090000007821195959160719548_);}
	.st111{clip-path:url(#SVGID_00000092434309818731570670000013049709426055184260_);}
	.st112{clip-path:url(#SVGID_00000000942461248149441680000013390424720689177020_);}
	.st113{clip-path:url(#SVGID_00000127035350860819547060000017205165033433184906_);}
	.st114{clip-path:url(#SVGID_00000178172565391717917420000002679897635917894034_);}
	.st115{clip-path:url(#SVGID_00000106853134433704596400000001445833165927754675_);}
	.st116{clip-path:url(#SVGID_00000132804644519394380110000010797204369622491069_);}
	.st117{clip-path:url(#SVGID_00000041258242984310517280000015718642925004696471_);}
	.st118{clip-path:url(#SVGID_00000134961715088013193740000010392135006762978720_);}
	.st119{clip-path:url(#SVGID_00000152255719477333676340000012674977399756884610_);}
	.st120{clip-path:url(#SVGID_00000083053413857243020660000007767617813649386657_);}
	.st121{clip-path:url(#SVGID_00000109030875879668119180000013398418059366322869_);}
	.st122{clip-path:url(#SVGID_00000084510012498052587290000000028180596370054312_);}
	.st123{clip-path:url(#SVGID_00000136407214026535250580000002375228905221520517_);}
	.st124{clip-path:url(#SVGID_00000091714656091109564690000004913557530846003647_);}
	.st125{clip-path:url(#SVGID_00000021080301890392636920000007210739756023461282_);}
	.st126{clip-path:url(#SVGID_00000160886418205620668320000011578511200866986632_);}
	.st127{clip-path:url(#SVGID_00000164486137790386732080000006425024375033894060_);}
	.st128{clip-path:url(#SVGID_00000019680340053145494960000014638010712579108030_);}
	.st129{clip-path:url(#SVGID_00000167385075365036899590000006262056927959552135_);}
	.st130{clip-path:url(#SVGID_00000072994969999258203890000007128368841698348677_);}
	.st131{clip-path:url(#SVGID_00000099635962080900032910000005387852514592342664_);}
	.st132{clip-path:url(#SVGID_00000113317583744420202870000006604067839866082742_);}
	.st133{clip-path:url(#SVGID_00000086656135708860190080000017582535907895455883_);}
	.st134{clip-path:url(#SVGID_00000165934677539650686220000005301045070480363411_);}
	.st135{clip-path:url(#SVGID_00000159450185832811626930000012012673680201254054_);}
	.st136{clip-path:url(#SVGID_00000026884415539097249530000012759288089187068860_);}
	.st137{clip-path:url(#SVGID_00000029729914282540727890000015848676069405524158_);}
	.st138{clip-path:url(#SVGID_00000062892615095402506210000013093334295518511769_);}
	.st139{clip-path:url(#SVGID_00000163755966592059040540000017324181256886138550_);}
	.st140{clip-path:url(#SVGID_00000047741585184469065120000014248658907077148064_);}
	.st141{clip-path:url(#SVGID_00000091012574719828432210000018053130537580084906_);}
	.st142{clip-path:url(#SVGID_00000036253809737087971670000014553312757406510999_);}
	.st143{clip-path:url(#SVGID_00000024699681964995753710000012558391618684896440_);}
	.st144{clip-path:url(#SVGID_00000085210265631413082580000008553355870918773435_);}
	.st145{clip-path:url(#SVGID_00000150811380269736091140000005518102104748983982_);}
	.st146{clip-path:url(#SVGID_00000078747787506822688250000012680480060712819119_);}
	.st147{clip-path:url(#SVGID_00000000212210484234345650000012906876700340997524_);}
	.st148{clip-path:url(#SVGID_00000173147040430826407430000001120806993457483930_);}
	.st149{clip-path:url(#SVGID_00000124872655086968609430000018100546403330317720_);}
	.st150{clip-path:url(#SVGID_00000174567394410169112970000006860388105790913176_);}
	.st151{clip-path:url(#SVGID_00000144306821087116356530000015400845272823372421_);}
	.st152{clip-path:url(#SVGID_00000139253877953861663040000014457216517619562895_);}
	.st153{clip-path:url(#SVGID_00000155850558398056620490000011875362984327991445_);}
	.st154{clip-path:url(#SVGID_00000164475279459552542760000017409946361773710266_);}
	.st155{clip-path:url(#SVGID_00000097465201383801450510000000713201771062492041_);}
	.st156{clip-path:url(#SVGID_00000015331203011213141310000017576760574084999820_);}
	.st157{clip-path:url(#SVGID_00000047744480888457801470000014717320657996864700_);}
	.st158{clip-path:url(#SVGID_00000043425361354070506320000013586374156169620140_);}
	.st159{clip-path:url(#SVGID_00000182525157101588251440000013457540928152219809_);}
	.st160{clip-path:url(#SVGID_00000070104690411979786090000000723456664488278927_);}
	.st161{clip-path:url(#SVGID_00000072274181876714120020000017246253942757284225_);}
	.st162{clip-path:url(#SVGID_00000144300114152958907560000010003715356728105915_);}
	.st163{clip-path:url(#SVGID_00000033333205072065395010000001595854018971008154_);}
	.st164{clip-path:url(#SVGID_00000182526439885581993680000009212067506615524529_);}
	.st165{clip-path:url(#SVGID_00000103974844477827339140000009934655268705537437_);}
	.st166{clip-path:url(#SVGID_00000050657298567738557780000004103353914623488403_);}
	.st167{clip-path:url(#SVGID_00000129927375400538731560000005534283618874124215_);}
	.st168{clip-path:url(#SVGID_00000054982507460417898320000014564779934304463279_);}
	.st169{clip-path:url(#SVGID_00000062188864399491323720000003523717193332080051_);}
	.st170{clip-path:url(#SVGID_00000134934961693084996830000003699053848281481919_);}
	.st171{clip-path:url(#SVGID_00000067957629525809352840000010177047112670266787_);}
	.st172{clip-path:url(#SVGID_00000117648004939070989020000014508037154025628074_);}
	.st173{clip-path:url(#SVGID_00000104701725708853404630000016405652988452848021_);}
	.st174{clip-path:url(#SVGID_00000013175231925168519860000009060370223189220764_);}
	.st175{clip-path:url(#SVGID_00000021093705055610215390000006163833627577681073_);}
	.st176{clip-path:url(#SVGID_00000149344876630822715960000000272401034378441604_);}
	.st177{clip-path:url(#SVGID_00000138567085102060539440000009021720331395179920_);}
	.st178{clip-path:url(#SVGID_00000023252664580877059090000005443948146581479312_);}
	.st179{clip-path:url(#SVGID_00000102544056748022616260000008998643779170338987_);}
	.st180{clip-path:url(#SVGID_00000036213061113383209640000000483212313812149902_);}
	.st181{clip-path:url(#SVGID_00000181082289663652850300000007400665940840280479_);}
	.st182{clip-path:url(#SVGID_00000167386182385516016920000007309841295558046848_);}
	.st183{clip-path:url(#SVGID_00000032631044695918825670000016547467090311211910_);}
	.st184{clip-path:url(#SVGID_00000049925989523955771430000008791375701440004517_);}
	.st185{clip-path:url(#SVGID_00000078033468083574479230000003982520987173916063_);}
	.st186{clip-path:url(#SVGID_00000010295222162979544100000004160073924183868807_);}
</style>
<g>
	<g>
		<g>
			<polygon class="st2" points="36.13,15.97 36.12,19.23 36.12,75.3 95.1,75.3 95.1,16.7 69.05,16.7 68.91,16.63 52.04,0.42 			"/>
		</g>
	</g>
	<g>
		<defs>
			<rect id="SVGID_00000142878920770697160570000005049908950680436102_" width="95.4" height="87.45"/>
		</defs>
		<clipPath id="SVGID_00000048502378057874177140000014957247471123539900_">
			<use xlink:href="#SVGID_00000142878920770697160570000005049908950680436102_"  style="overflow:visible;"/>
		</clipPath>
		<g style="clip-path:url(#SVGID_00000048502378057874177140000014957247471123539900_);">
			<g>
				<path class="st1" d="M95.4,75.6H35.82l0-59.75l0.09-0.09L52.04,0l17.07,16.4H95.4L95.4,75.6z M36.42,75H94.8l0-58H69.05v-0.51
					l-0.34,0.36L52.04,0.84L36.43,16.1l0,3.13V75z"/>
			</g>
		</g>
	</g>
	<g>
		<g>
			<polygon class="st0" points="38.01,14.24 38.01,30.12 52.08,16.05 68.68,32.28 69.14,16.99 52.08,0.89 38.01,13.88 			"/>
		</g>
	</g>
	<g>
		<g>
			<rect x="71.2" y="17.13" class="st0" width="23.81" height="15.51"/>
		</g>
	</g>
	<g>
		<defs>
			<rect id="SVGID_00000040540292771776194150000015856206490366928821_" width="95.4" height="87.45"/>
		</defs>
		<clipPath id="SVGID_00000150791884155313098880000000196592122766207628_">
			<use xlink:href="#SVGID_00000040540292771776194150000015856206490366928821_"  style="overflow:visible;"/>
		</clipPath>
		<g style="clip-path:url(#SVGID_00000150791884155313098880000000196592122766207628_);">
			<g>
				<path class="st1" d="M95.4,75.6H35.82l0-59.75l0.09-0.09L52.04,0l17.07,16.4H95.4L95.4,75.6z M36.42,75H94.8l0-58H69.05v-0.51
					l-0.34,0.36L52.04,0.84L36.43,16.1l0,3.13V75z"/>
			</g>
		</g>
	</g>
	<g>
		<g>
			<path class="st1" d="M62.17,61.73c-0.17,0-0.3-0.13-0.3-0.3v-3.48c0-0.17,0.13-0.3,0.3-0.3s0.3,0.13,0.3,0.3v3.48
				C62.47,61.6,62.34,61.73,62.17,61.73z M56.37,61.73c-0.17,0-0.3-0.13-0.3-0.3v-3.48c0-0.17,0.13-0.3,0.3-0.3s0.3,0.13,0.3,0.3
				v3.48C56.67,61.6,56.54,61.73,56.37,61.73z M50.58,61.73c-0.17,0-0.3-0.13-0.3-0.3v-3.48c0-0.17,0.13-0.3,0.3-0.3
				s0.3,0.13,0.3,0.3v3.48C50.88,61.6,50.74,61.73,50.58,61.73z M44.78,61.73c-0.17,0-0.3-0.13-0.3-0.3v-3.48
				c0-0.17,0.13-0.3,0.3-0.3s0.3,0.13,0.3,0.3v3.48C45.08,61.6,44.95,61.73,44.78,61.73z M88.36,52.93c-0.17,0-0.3-0.13-0.3-0.3
				v-3.48c0-0.17,0.13-0.3,0.3-0.3s0.3,0.13,0.3,0.3v3.48C88.66,52.8,88.52,52.93,88.36,52.93z M82.56,52.93
				c-0.17,0-0.3-0.13-0.3-0.3v-3.48c0-0.17,0.13-0.3,0.3-0.3s0.3,0.13,0.3,0.3v3.48C82.86,52.8,82.72,52.93,82.56,52.93z
				 M76.76,52.93c-0.17,0-0.3-0.13-0.3-0.3v-3.48c0-0.17,0.13-0.3,0.3-0.3s0.3,0.13,0.3,0.3v3.48
				C77.06,52.8,76.93,52.93,76.76,52.93z M70.97,52.93c-0.17,0-0.3-0.13-0.3-0.3v-3.48c0-0.17,0.13-0.3,0.3-0.3s0.3,0.13,0.3,0.3
				v3.48C71.27,52.8,71.13,52.93,70.97,52.93z M62.17,52.93c-0.17,0-0.3-0.13-0.3-0.3v-3.48c0-0.17,0.13-0.3,0.3-0.3
				s0.3,0.13,0.3,0.3v3.48C62.47,52.8,62.34,52.93,62.17,52.93z M56.37,52.93c-0.17,0-0.3-0.13-0.3-0.3v-3.48
				c0-0.17,0.13-0.3,0.3-0.3s0.3,0.13,0.3,0.3v3.48C56.67,52.8,56.54,52.93,56.37,52.93z M50.58,52.93c-0.17,0-0.3-0.13-0.3-0.3
				v-3.48c0-0.17,0.13-0.3,0.3-0.3s0.3,0.13,0.3,0.3v3.48C50.88,52.8,50.74,52.93,50.58,52.93z M44.78,52.93
				c-0.17,0-0.3-0.13-0.3-0.3v-3.48c0-0.17,0.13-0.3,0.3-0.3s0.3,0.13,0.3,0.3v3.48C45.08,52.8,44.95,52.93,44.78,52.93z
				 M88.36,43.76c-0.17,0-0.3-0.13-0.3-0.3v-3.48c0-0.17,0.13-0.3,0.3-0.3s0.3,0.13,0.3,0.3v3.48
				C88.66,43.63,88.52,43.76,88.36,43.76z M82.56,43.76c-0.17,0-0.3-0.13-0.3-0.3v-3.48c0-0.17,0.13-0.3,0.3-0.3s0.3,0.13,0.3,0.3
				v3.48C82.86,43.63,82.72,43.76,82.56,43.76z M76.76,43.76c-0.17,0-0.3-0.13-0.3-0.3v-3.48c0-0.17,0.13-0.3,0.3-0.3
				s0.3,0.13,0.3,0.3v3.48C77.06,43.63,76.93,43.76,76.76,43.76z M70.97,43.76c-0.17,0-0.3-0.13-0.3-0.3v-3.48
				c0-0.17,0.13-0.3,0.3-0.3s0.3,0.13,0.3,0.3v3.48C71.27,43.63,71.13,43.76,70.97,43.76z M62.17,43.76c-0.17,0-0.3-0.13-0.3-0.3
				v-3.48c0-0.17,0.13-0.3,0.3-0.3s0.3,0.13,0.3,0.3v3.48C62.47,43.63,62.34,43.76,62.17,43.76z M56.37,43.76
				c-0.17,0-0.3-0.13-0.3-0.3v-3.48c0-0.17,0.13-0.3,0.3-0.3s0.3,0.13,0.3,0.3v3.48C56.67,43.63,56.54,43.76,56.37,43.76z
				 M50.58,43.76c-0.17,0-0.3-0.13-0.3-0.3v-3.48c0-0.17,0.13-0.3,0.3-0.3s0.3,0.13,0.3,0.3v3.48
				C50.88,43.63,50.74,43.76,50.58,43.76z M44.78,43.76c-0.17,0-0.3-0.13-0.3-0.3v-3.48c0-0.17,0.13-0.3,0.3-0.3s0.3,0.13,0.3,0.3
				v3.48C45.08,43.63,44.95,43.76,44.78,43.76z"/>
		</g>
	</g>
	<g>
		<defs>
			<rect id="SVGID_00000007402398190505117920000017767307643275719311_" width="95.4" height="87.45"/>
		</defs>
		<clipPath id="SVGID_00000044870428332424386330000003242354838208356514_">
			<use xlink:href="#SVGID_00000007402398190505117920000017767307643275719311_"  style="overflow:visible;"/>
		</clipPath>
		<g style="clip-path:url(#SVGID_00000044870428332424386330000003242354838208356514_);">
			<g>
				<polygon class="st1" points="95.02,32.89 68.76,32.89 52.23,16.8 36.57,32.04 36.15,31.61 52.02,16.17 51.74,0.54 52.34,0.53 
					52.62,16.35 68.68,31.98 68.72,16.45 69.32,16.45 69.28,32.29 95.02,32.29 				"/>
			</g>
		</g>
	</g>
	<g>
		<g>
			<path class="st1" d="M80.12,74.9c-0.16,0-0.28-0.13-0.28-0.28v-6.77c0-0.16,0.13-0.28,0.28-0.28s0.28,0.13,0.28,0.28v6.77
				C80.4,74.77,80.28,74.9,80.12,74.9z"/>
		</g>
	</g>
	<g>
		<defs>
			<rect id="SVGID_00000155110334770764615060000015147014497256800659_" width="95.4" height="87.45"/>
		</defs>
		<clipPath id="SVGID_00000011002095881038382790000002140587852366711738_">
			<use xlink:href="#SVGID_00000155110334770764615060000015147014497256800659_"  style="overflow:visible;"/>
		</clipPath>
		<g style="clip-path:url(#SVGID_00000011002095881038382790000002140587852366711738_);">
			<g>
				<path class="st2" d="M35.63,34.69c2.03,0,3.93,0.38,5.5,1.47v-7.03l-0.57,0.8c-0.9,1.86-2.76,3.15-4.92,3.15
					c-2.16,0-3.69-0.9-4.59-2.76l-0.38-0.38v6.16C32.12,35.2,33.82,34.69,35.63,34.69"/>
			</g>
		</g>
		<g style="clip-path:url(#SVGID_00000011002095881038382790000002140587852366711738_);">
			<g>
				<path class="st0" d="M41.13,36.28c-0.02,0-0.05-0.01-0.07-0.02c-1.41-0.97-3.19-1.44-5.43-1.44c-1.72,0-3.41,0.47-4.9,1.37
					c-0.04,0.02-0.09,0.02-0.13,0c-0.04-0.02-0.06-0.06-0.06-0.11v-6.16c0-0.05,0.03-0.1,0.08-0.12c0.05-0.02,0.1-0.01,0.14,0.03
					l0.38,0.38c0.01,0.01,0.02,0.02,0.02,0.03c0.87,1.81,2.34,2.69,4.48,2.69c2.05,0,3.9-1.18,4.81-3.08l0.58-0.81
					c0.03-0.04,0.09-0.06,0.14-0.05c0.05,0.02,0.09,0.06,0.09,0.12v7.04c0,0.05-0.03,0.09-0.07,0.11
					C41.17,36.27,41.15,36.28,41.13,36.28z M35.63,34.56c2.19,0,3.95,0.44,5.37,1.36V29.5l-0.35,0.48c-0.95,1.97-2.88,3.2-5.03,3.2
					c-2.2,0-3.78-0.95-4.69-2.82l-0.15-0.15v5.64C32.27,35.01,33.94,34.56,35.63,34.56z"/>
			</g>
		</g>
		<g style="clip-path:url(#SVGID_00000011002095881038382790000002140587852366711738_);">
			<g>
				<path class="st2" d="M29.94,27.68v8.65c1.55-1.04,3.3-1.65,5.31-1.65c2.01,0,4.18,0.79,5.73,1.83v-8.93"/>
			</g>
		</g>
		<g style="clip-path:url(#SVGID_00000011002095881038382790000002140587852366711738_);">
			<g>
				<path class="st1" d="M40.98,36.81c-0.06,0-0.12-0.02-0.17-0.05c-1.63-1.1-3.76-1.78-5.56-1.78c-1.86,0-3.55,0.52-5.15,1.6
					c-0.09,0.06-0.21,0.07-0.31,0.02c-0.1-0.05-0.16-0.15-0.16-0.26v-8.65h0.6v8.1c1.55-0.93,3.24-1.41,5.02-1.41
					c1.74,0,3.77,0.6,5.43,1.59v-8.39h0.6v8.93c0,0.11-0.06,0.21-0.16,0.26C41.08,36.79,41.03,36.81,40.98,36.81z"/>
			</g>
		</g>
	</g>
	<g>
		<g>
			<rect x="26.81" y="70.3" class="st2" width="18.57" height="9.67"/>
		</g>
	</g>
	<g>
		<g>
			<path class="st0" d="M45.38,80.1H26.81c-0.07,0-0.12-0.06-0.12-0.12V70.3c0-0.07,0.06-0.12,0.12-0.12h18.57
				c0.07,0,0.12,0.06,0.12,0.12v9.67C45.51,80.04,45.45,80.1,45.38,80.1z M26.94,79.85h18.32v-9.42H26.94V79.85z"/>
		</g>
	</g>
	<g>
		<g>
			<rect x="25.81" y="70.1" class="st1" width="19.52" height="0.4"/>
		</g>
	</g>
	<g>
		<defs>
			<rect id="SVGID_00000159454376562565998980000004511806620183755959_" width="95.4" height="87.45"/>
		</defs>
		<clipPath id="SVGID_00000054241653650233369460000012357860960464198279_">
			<use xlink:href="#SVGID_00000159454376562565998980000004511806620183755959_"  style="overflow:visible;"/>
		</clipPath>
		<g style="clip-path:url(#SVGID_00000054241653650233369460000012357860960464198279_);">
			<g>
				<path class="st1" d="M41.13,87.45c-0.17,0-0.3-0.13-0.3-0.3v-7.02c0-0.17,0.13-0.3,0.3-0.3s0.3,0.13,0.3,0.3v7.02
					C41.43,87.31,41.29,87.45,41.13,87.45z M29.79,87.45c-0.17,0-0.3-0.13-0.3-0.3v-7.02c0-0.17,0.13-0.3,0.3-0.3s0.3,0.13,0.3,0.3
					v7.02C30.09,87.31,29.96,87.45,29.79,87.45z"/>
			</g>
		</g>
	</g>
	<g>
		<g>
			<path class="st1" d="M29.79,54.33c-0.19,0-0.35-0.16-0.35-0.35v-9.43c0-0.19,0.16-0.35,0.35-0.35s0.35,0.16,0.35,0.35v9.43
				C30.14,54.17,29.98,54.33,29.79,54.33z"/>
		</g>
	</g>
	<g>
		<defs>
			<rect id="SVGID_00000045592278057594794560000009531794800840044928_" width="95.4" height="87.45"/>
		</defs>
		<clipPath id="SVGID_00000101809716767482069170000001767358291455924619_">
			<use xlink:href="#SVGID_00000045592278057594794560000009531794800840044928_"  style="overflow:visible;"/>
		</clipPath>
		<g style="clip-path:url(#SVGID_00000101809716767482069170000001767358291455924619_);">
			<g>
				<path class="st2" d="M45.27,44.87c-0.03-5.45-4.5-10.3-9.84-10.26c-5.4,0.04-9.77,4.83-9.77,10.26v35.01H45.2L45.27,44.87z"/>
			</g>
		</g>
		<g style="clip-path:url(#SVGID_00000101809716767482069170000001767358291455924619_);">
			<g>
				<path class="st1" d="M45.2,80.18H25.65c-0.17,0-0.3-0.13-0.3-0.3V44.87c0-5.69,4.61-10.52,10.07-10.56c0.02,0,0.04,0,0.06,0
					c2.5,0,4.92,1.03,6.82,2.91c2.06,2.03,3.25,4.82,3.26,7.65c0,0,0,0,0,0L45.5,79.88C45.5,80.04,45.37,80.18,45.2,80.18z
					 M25.95,79.58H44.9l0.07-34.71c-0.02-2.67-1.14-5.31-3.08-7.23c-1.79-1.76-4.06-2.73-6.4-2.73c-0.02,0-0.04,0-0.06,0
					c-5.14,0.04-9.48,4.6-9.48,9.96V79.58z"/>
			</g>
		</g>
		<g style="clip-path:url(#SVGID_00000101809716767482069170000001767358291455924619_);">
			<g>
				<path class="st2" d="M40.98,26.06c-0.64-2.1-2.59-3.63-4.91-3.63s-4.27,1.53-4.9,3.63H40.98z"/>
			</g>
		</g>
		<g style="clip-path:url(#SVGID_00000101809716767482069170000001767358291455924619_);">
			<g>
				<path class="st0" d="M40.98,26.18h-9.81c-0.04,0-0.08-0.02-0.1-0.05c-0.02-0.03-0.03-0.07-0.02-0.11
					c0.68-2.23,2.7-3.72,5.02-3.72c2.33,0,4.35,1.5,5.02,3.72c0.01,0.04,0,0.08-0.02,0.11C41.06,26.16,41.02,26.18,40.98,26.18z
					 M31.34,25.93h9.47c-0.69-2.03-2.57-3.38-4.73-3.38C33.91,22.55,32.03,23.9,31.34,25.93z"/>
			</g>
		</g>
		<g style="clip-path:url(#SVGID_00000101809716767482069170000001767358291455924619_);">
			<g>
				<path class="st2" d="M40.98,27.42c0,3.05-2.47,5.52-5.52,5.52c-3.05,0-5.52-2.47-5.52-5.52c0-3.05,2.47-5.52,5.52-5.52
					C38.51,21.9,40.98,24.37,40.98,27.42"/>
			</g>
		</g>
		<g style="clip-path:url(#SVGID_00000101809716767482069170000001767358291455924619_);">
			<g>
				<path class="st1" d="M35.46,33.24c-3.21,0-5.82-2.61-5.82-5.82c0-3.21,2.61-5.82,5.82-5.82c3.21,0,5.82,2.61,5.82,5.82
					C41.28,30.63,38.67,33.24,35.46,33.24z M35.46,22.2c-2.88,0-5.22,2.34-5.22,5.22c0,2.88,2.34,5.22,5.22,5.22
					c2.88,0,5.22-2.34,5.22-5.22C40.68,24.54,38.34,22.2,35.46,22.2z"/>
			</g>
		</g>
	</g>
	<g>
		<g>
			<rect x="30.22" y="25.87" class="st1" width="10.47" height="0.4"/>
		</g>
	</g>
	<g>
		<defs>
			<rect id="SVGID_00000139975769842811011520000013563104413056635278_" width="95.4" height="87.45"/>
		</defs>
		<clipPath id="SVGID_00000025420582971403629570000000933070438522529962_">
			<use xlink:href="#SVGID_00000139975769842811011520000013563104413056635278_"  style="overflow:visible;"/>
		</clipPath>
		<g style="clip-path:url(#SVGID_00000025420582971403629570000000933070438522529962_);">
			<g>
				<path class="st2" d="M33.76,27.83c0,0.16-0.13,0.29-0.29,0.29c-0.16,0-0.29-0.13-0.29-0.29c0-0.16,0.13-0.29,0.29-0.29
					C33.63,27.53,33.76,27.67,33.76,27.83"/>
			</g>
		</g>
		<g style="clip-path:url(#SVGID_00000025420582971403629570000000933070438522529962_);">
			<g>
				<path class="st2" d="M37.75,27.83c0,0.16-0.13,0.29-0.29,0.29c-0.16,0-0.29-0.13-0.29-0.29c0-0.16,0.13-0.29,0.29-0.29
					C37.62,27.53,37.75,27.67,37.75,27.83"/>
			</g>
		</g>
	</g>
	<g>
		<g>
			<path class="st1" d="M41.13,54.33c-0.19,0-0.35-0.16-0.35-0.35v-9.43c0-0.19,0.16-0.35,0.35-0.35s0.35,0.16,0.35,0.35v9.43
				C41.48,54.17,41.32,54.33,41.13,54.33z"/>
		</g>
	</g>
	<g>
		<g>
			<rect x="1.83" y="61.31" class="st0" width="17.87" height="18.33"/>
		</g>
	</g>
	<g>
		<g>
			<path class="st0" d="M19.7,79.77H1.83c-0.07,0-0.12-0.06-0.12-0.12V61.31c0-0.07,0.06-0.12,0.12-0.12H19.7
				c0.07,0,0.12,0.06,0.12,0.12v18.33C19.82,79.71,19.77,79.77,19.7,79.77z M1.95,79.52h17.62V61.44H1.95V79.52z"/>
		</g>
	</g>
	<g>
		<defs>
			<rect id="SVGID_00000006680671312347437900000001609168552247277478_" width="95.4" height="87.45"/>
		</defs>
		<clipPath id="SVGID_00000023263031735667486270000009544705387037460620_">
			<use xlink:href="#SVGID_00000006680671312347437900000001609168552247277478_"  style="overflow:visible;"/>
		</clipPath>
		<g style="clip-path:url(#SVGID_00000023263031735667486270000009544705387037460620_);">
			<g>
				<rect x="0.46" y="61.02" class="st1" width="19.52" height="0.4"/>
			</g>
		</g>
		<g style="clip-path:url(#SVGID_00000023263031735667486270000009544705387037460620_);">
			<g>
				<path class="st1" d="M15.78,87.12c-0.17,0-0.3-0.13-0.3-0.3V79.8c0-0.17,0.13-0.3,0.3-0.3s0.3,0.13,0.3,0.3v7.02
					C16.08,86.99,15.94,87.12,15.78,87.12z M4.44,87.12c-0.17,0-0.3-0.13-0.3-0.3V79.8c0-0.17,0.13-0.3,0.3-0.3s0.3,0.13,0.3,0.3
					v7.02C4.74,86.99,4.6,87.12,4.44,87.12z"/>
			</g>
		</g>
	</g>
	<g>
		<g>
			<path class="st1" d="M15.78,54c-0.19,0-0.35-0.16-0.35-0.35v-9.43c0-0.19,0.16-0.35,0.35-0.35s0.35,0.16,0.35,0.35v9.43
				C16.13,53.85,15.97,54,15.78,54z M4.44,54c-0.19,0-0.35-0.16-0.35-0.35v-9.43c0-0.19,0.16-0.35,0.35-0.35s0.35,0.16,0.35,0.35
				v9.43C4.79,53.85,4.63,54,4.44,54z"/>
		</g>
	</g>
	<g>
		<defs>
			<rect id="SVGID_00000130630936495732330650000013989290083063198888_" width="95.4" height="87.45"/>
		</defs>
		<clipPath id="SVGID_00000121255128681071670160000008552482370303388295_">
			<use xlink:href="#SVGID_00000130630936495732330650000013989290083063198888_"  style="overflow:visible;"/>
		</clipPath>
		<g style="clip-path:url(#SVGID_00000121255128681071670160000008552482370303388295_);">
			<g>
				<path class="st1" d="M19.85,79.85H0.3c-0.17,0-0.3-0.13-0.3-0.3V44.54c0-5.69,4.61-10.52,10.07-10.56
					c2.55-0.03,4.97,1.02,6.88,2.91c2.06,2.03,3.25,4.82,3.26,7.65c0,0,0,0,0,0l-0.07,35.01C20.15,79.72,20.02,79.85,19.85,79.85z
					 M0.6,79.25h18.95l0.07-34.71c-0.02-2.67-1.14-5.31-3.09-7.23c-1.79-1.76-4.06-2.73-6.4-2.73c-0.02,0-0.04,0-0.06,0
					c-5.14,0.04-9.48,4.6-9.48,9.96V79.25z"/>
			</g>
		</g>
		<g style="clip-path:url(#SVGID_00000121255128681071670160000008552482370303388295_);">
			<g>
				<path class="st0" d="M15.63,25.73c-0.64-2.1-2.59-3.63-4.91-3.63s-4.26,1.53-4.9,3.63H15.63z"/>
			</g>
		</g>
		<g style="clip-path:url(#SVGID_00000121255128681071670160000008552482370303388295_);">
			<g>
				<path class="st0" d="M15.63,25.86H5.82c-0.04,0-0.08-0.02-0.1-0.05c-0.02-0.03-0.03-0.07-0.02-0.11
					c0.68-2.23,2.7-3.72,5.02-3.72c2.33,0,4.35,1.5,5.02,3.72c0.01,0.04,0,0.08-0.02,0.11C15.71,25.84,15.67,25.86,15.63,25.86z
					 M5.99,25.61h9.47c-0.69-2.03-2.57-3.38-4.73-3.38C8.56,22.22,6.68,23.58,5.99,25.61z"/>
			</g>
		</g>
		<g style="clip-path:url(#SVGID_00000121255128681071670160000008552482370303388295_);">
			<g>
				<path class="st1" d="M10.11,32.92c-3.21,0-5.82-2.61-5.82-5.82c0-3.21,2.61-5.82,5.82-5.82c3.21,0,5.82,2.61,5.82,5.82
					C15.93,30.3,13.32,32.92,10.11,32.92z M10.11,21.87c-2.88,0-5.22,2.34-5.22,5.22c0,2.88,2.34,5.22,5.22,5.22
					c2.88,0,5.22-2.34,5.22-5.22C15.33,24.22,12.99,21.87,10.11,21.87z"/>
			</g>
		</g>
	</g>
	<g>
		<g>
			<rect x="4.87" y="25.55" class="st1" width="10.47" height="0.4"/>
		</g>
	</g>
	<g>
		<g>
			<path class="st1" d="M10.04,79.85c-0.11,0-0.2-0.09-0.2-0.2V64.12c0-0.11,0.09-0.2,0.2-0.2s0.2,0.09,0.2,0.2v15.52
				C10.24,79.76,10.15,79.85,10.04,79.85z"/>
		</g>
	</g>
	<g>
		<defs>
			<rect id="SVGID_00000180338014224716771160000013352859011716911784_" width="95.4" height="87.45"/>
		</defs>
		<clipPath id="SVGID_00000077314373983695890980000018161953327200670901_">
			<use xlink:href="#SVGID_00000180338014224716771160000013352859011716911784_"  style="overflow:visible;"/>
		</clipPath>
		<g style="clip-path:url(#SVGID_00000077314373983695890980000018161953327200670901_);">
			<g>
				<path class="st0" d="M35.63,34.69c2.03,0,3.93,0.38,5.5,1.47v-7.03l-0.57,0.8c-0.9,1.86-2.76,3.15-4.92,3.15
					c-2.16,0-3.69-0.9-4.59-2.76l-0.38-0.38v6.16C32.12,35.2,33.82,34.69,35.63,34.69"/>
			</g>
		</g>
		<g style="clip-path:url(#SVGID_00000077314373983695890980000018161953327200670901_);">
			<g>
				<path class="st0" d="M41.13,36.28c-0.02,0-0.05-0.01-0.07-0.02c-1.41-0.97-3.19-1.44-5.43-1.44c-1.72,0-3.41,0.47-4.9,1.37
					c-0.04,0.02-0.09,0.02-0.13,0c-0.04-0.02-0.06-0.06-0.06-0.11v-6.16c0-0.05,0.03-0.1,0.08-0.12c0.05-0.02,0.1-0.01,0.14,0.03
					l0.38,0.38c0.01,0.01,0.02,0.02,0.02,0.03c0.87,1.81,2.34,2.69,4.48,2.69c2.05,0,3.9-1.18,4.81-3.08l0.58-0.81
					c0.03-0.04,0.09-0.06,0.14-0.05c0.05,0.02,0.09,0.06,0.09,0.12v7.04c0,0.05-0.03,0.09-0.07,0.11
					C41.17,36.27,41.15,36.28,41.13,36.28z M35.63,34.56c2.19,0,3.95,0.44,5.37,1.36V29.5l-0.35,0.48c-0.95,1.97-2.88,3.2-5.03,3.2
					c-2.2,0-3.78-0.95-4.69-2.82l-0.15-0.15v5.64C32.27,35.01,33.94,34.56,35.63,34.56z"/>
			</g>
		</g>
		<g style="clip-path:url(#SVGID_00000077314373983695890980000018161953327200670901_);">
			<g>
				<path class="st1" d="M40.98,36.81c-0.06,0-0.12-0.02-0.17-0.05c-1.63-1.1-3.76-1.78-5.56-1.78c-1.86,0-3.55,0.52-5.15,1.6
					c-0.09,0.06-0.21,0.07-0.31,0.02c-0.1-0.05-0.16-0.15-0.16-0.26v-8.65h0.6v8.1c1.55-0.93,3.24-1.41,5.02-1.41
					c1.74,0,3.77,0.6,5.43,1.59v-8.39h0.6v8.93c0,0.11-0.06,0.21-0.16,0.26C41.08,36.79,41.03,36.81,40.98,36.81z"/>
			</g>
		</g>
	</g>
	<g>
		<g>
			<rect x="26.81" y="70.3" class="st0" width="18.57" height="9.67"/>
		</g>
	</g>
	<g>
		<g>
			<path class="st0" d="M45.38,80.1H26.81c-0.07,0-0.12-0.06-0.12-0.12V70.3c0-0.07,0.06-0.12,0.12-0.12h18.57
				c0.07,0,0.12,0.06,0.12,0.12v9.67C45.51,80.04,45.45,80.1,45.38,80.1z M26.94,79.85h18.32v-9.42H26.94V79.85z"/>
		</g>
	</g>
	<g>
		<g>
			<rect x="25.81" y="70.1" class="st1" width="19.52" height="0.4"/>
		</g>
	</g>
	<g>
		<defs>
			<rect id="SVGID_00000072986130585529773110000004241511761560448418_" width="95.4" height="87.45"/>
		</defs>
		<clipPath id="SVGID_00000160887971036990452870000016231652915637254312_">
			<use xlink:href="#SVGID_00000072986130585529773110000004241511761560448418_"  style="overflow:visible;"/>
		</clipPath>
		<g style="clip-path:url(#SVGID_00000160887971036990452870000016231652915637254312_);">
			<g>
				<path class="st1" d="M41.13,87.45c-0.17,0-0.3-0.13-0.3-0.3v-7.02c0-0.17,0.13-0.3,0.3-0.3s0.3,0.13,0.3,0.3v7.02
					C41.43,87.31,41.29,87.45,41.13,87.45z M29.79,87.45c-0.17,0-0.3-0.13-0.3-0.3v-7.02c0-0.17,0.13-0.3,0.3-0.3s0.3,0.13,0.3,0.3
					v7.02C30.09,87.31,29.96,87.45,29.79,87.45z"/>
			</g>
		</g>
	</g>
	<g>
		<g>
			<path class="st1" d="M29.79,54.33c-0.19,0-0.35-0.16-0.35-0.35v-9.43c0-0.19,0.16-0.35,0.35-0.35s0.35,0.16,0.35,0.35v9.43
				C30.14,54.17,29.98,54.33,29.79,54.33z"/>
		</g>
	</g>
	<g>
		<defs>
			<rect id="SVGID_00000026858856523012403300000007514855054304959637_" width="95.4" height="87.45"/>
		</defs>
		<clipPath id="SVGID_00000112613922845195880170000012789568815201339803_">
			<use xlink:href="#SVGID_00000026858856523012403300000007514855054304959637_"  style="overflow:visible;"/>
		</clipPath>
		<g style="clip-path:url(#SVGID_00000112613922845195880170000012789568815201339803_);">
			<g>
				<path class="st1" d="M45.2,80.18H25.65c-0.17,0-0.3-0.13-0.3-0.3V44.87c0-5.69,4.61-10.52,10.07-10.56c0.02,0,0.04,0,0.06,0
					c2.5,0,4.92,1.03,6.82,2.91c2.06,2.03,3.25,4.82,3.26,7.65c0,0,0,0,0,0L45.5,79.88C45.5,80.04,45.37,80.18,45.2,80.18z
					 M25.95,79.58H44.9l0.07-34.71c-0.02-2.67-1.14-5.31-3.08-7.23c-1.79-1.76-4.06-2.73-6.4-2.73c-0.02,0-0.04,0-0.06,0
					c-5.14,0.04-9.48,4.6-9.48,9.96V79.58z"/>
			</g>
		</g>
		<g style="clip-path:url(#SVGID_00000112613922845195880170000012789568815201339803_);">
			<g>
				<path class="st0" d="M40.98,26.06c-0.64-2.1-2.59-3.63-4.91-3.63s-4.27,1.53-4.9,3.63H40.98z"/>
			</g>
		</g>
		<g style="clip-path:url(#SVGID_00000112613922845195880170000012789568815201339803_);">
			<g>
				<path class="st0" d="M40.98,26.18h-9.81c-0.04,0-0.08-0.02-0.1-0.05c-0.02-0.03-0.03-0.07-0.02-0.11
					c0.68-2.23,2.7-3.72,5.02-3.72c2.33,0,4.35,1.5,5.02,3.72c0.01,0.04,0,0.08-0.02,0.11C41.06,26.16,41.02,26.18,40.98,26.18z
					 M31.34,25.93h9.47c-0.69-2.03-2.57-3.38-4.73-3.38C33.91,22.55,32.03,23.9,31.34,25.93z"/>
			</g>
		</g>
		<g style="clip-path:url(#SVGID_00000112613922845195880170000012789568815201339803_);">
			<g>
				<path class="st1" d="M35.46,33.24c-3.21,0-5.82-2.61-5.82-5.82c0-3.21,2.61-5.82,5.82-5.82c3.21,0,5.82,2.61,5.82,5.82
					C41.28,30.63,38.67,33.24,35.46,33.24z M35.46,22.2c-2.88,0-5.22,2.34-5.22,5.22c0,2.88,2.34,5.22,5.22,5.22
					c2.88,0,5.22-2.34,5.22-5.22C40.68,24.54,38.34,22.2,35.46,22.2z"/>
			</g>
		</g>
	</g>
	<g>
		<g>
			<rect x="30.22" y="25.87" class="st1" width="10.47" height="0.4"/>
		</g>
	</g>
	<g>
		<defs>
			<rect id="SVGID_00000136407618786681348280000007385113478097248402_" width="95.4" height="87.45"/>
		</defs>
		<clipPath id="SVGID_00000143583030723307836730000009369740779661674924_">
			<use xlink:href="#SVGID_00000136407618786681348280000007385113478097248402_"  style="overflow:visible;"/>
		</clipPath>
		<g style="clip-path:url(#SVGID_00000143583030723307836730000009369740779661674924_);">
			<g>
				<path class="st1" d="M33.76,27.83c0,0.16-0.13,0.29-0.29,0.29c-0.16,0-0.29-0.13-0.29-0.29c0-0.16,0.13-0.29,0.29-0.29
					C33.63,27.53,33.76,27.67,33.76,27.83"/>
			</g>
		</g>
		<g style="clip-path:url(#SVGID_00000143583030723307836730000009369740779661674924_);">
			<g>
				<path class="st1" d="M37.75,27.83c0,0.16-0.13,0.29-0.29,0.29c-0.16,0-0.29-0.13-0.29-0.29c0-0.16,0.13-0.29,0.29-0.29
					C37.62,27.53,37.75,27.67,37.75,27.83"/>
			</g>
		</g>
	</g>
	<g>
		<g>
			<path class="st1" d="M41.13,54.33c-0.19,0-0.35-0.16-0.35-0.35v-9.43c0-0.19,0.16-0.35,0.35-0.35s0.35,0.16,0.35,0.35v9.43
				C41.48,54.17,41.32,54.33,41.13,54.33z"/>
		</g>
	</g>
	<g>
		<defs>
			<rect id="SVGID_00000052803413279761240380000018425002711952643768_" width="95.4" height="87.45"/>
		</defs>
		<clipPath id="SVGID_00000126296170330133830240000008826712895603891074_">
			<use xlink:href="#SVGID_00000052803413279761240380000018425002711952643768_"  style="overflow:visible;"/>
		</clipPath>
		<g style="clip-path:url(#SVGID_00000126296170330133830240000008826712895603891074_);">
			<g>
				<path class="st1" d="M8.24,27.5c0,0.16-0.13,0.29-0.29,0.29c-0.16,0-0.29-0.13-0.29-0.29c0-0.16,0.13-0.29,0.29-0.29
					C8.11,27.21,8.24,27.34,8.24,27.5"/>
			</g>
		</g>
		<g style="clip-path:url(#SVGID_00000126296170330133830240000008826712895603891074_);">
			<g>
				<path class="st1" d="M12.23,27.5c0,0.16-0.13,0.29-0.29,0.29c-0.16,0-0.29-0.13-0.29-0.29c0-0.16,0.13-0.29,0.29-0.29
					C12.1,27.21,12.23,27.34,12.23,27.5"/>
			</g>
		</g>
	</g>
</g>
</svg>
