<?xml version="1.0" encoding="utf-8"?>
<!-- Generator: Adobe Illustrator 26.0.2, SVG Export Plug-In . SVG Version: 6.00 Build 0)  -->
<svg version="1.1" id="Ebene_1" xmlns="http://www.w3.org/2000/svg" xmlns:xlink="http://www.w3.org/1999/xlink" x="0px" y="0px"
	 viewBox="0 0 44.66 44.56" style="enable-background:new 0 0 44.66 44.56;" xml:space="preserve">
<style type="text/css">
	.st0{fill:#E59C00;}
	.st1{fill:#2B2961;}
	.st2{fill:#FFFFFF;}
	.st3{clip-path:url(#SVGID_00000024708458357866883010000014027053167501747127_);}
	.st4{clip-path:url(#SVGID_00000086668747360791125960000004647914220971005374_);}
	.st5{clip-path:url(#SVGID_00000003799446940851276910000005088876846656454039_);}
	.st6{clip-path:url(#SVGID_00000052089773769714094110000009682486244353861518_);}
	.st7{clip-path:url(#SVGID_00000040574560069222697370000016112340366054924459_);}
	.st8{clip-path:url(#SVGID_00000092450031872457844300000013126111258144302780_);}
	.st9{clip-path:url(#SVGID_00000095307408853039228980000015638083182368158095_);}
	.st10{clip-path:url(#SVGID_00000171698688620447358290000016378820347953628316_);}
	.st11{clip-path:url(#SVGID_00000150097263362927234510000000445908475675717777_);}
	.st12{clip-path:url(#SVGID_00000088124586901835839210000013789497511443752880_);}
	.st13{clip-path:url(#SVGID_00000130619699546592488210000010409570287332611504_);}
	.st14{clip-path:url(#SVGID_00000139995339424480913770000001300922536139926454_);}
	.st15{clip-path:url(#SVGID_00000146481908374535045130000015429787198383407003_);}
	.st16{clip-path:url(#SVGID_00000091017447348136800640000015871515537184638336_);}
	.st17{clip-path:url(#SVGID_00000110456219783344545910000008922620209879038616_);}
	.st18{clip-path:url(#SVGID_00000023273103582035302560000001376909082447398534_);}
	.st19{clip-path:url(#SVGID_00000158739680338410649760000004384757326847713967_);}
	.st20{clip-path:url(#SVGID_00000148621293598521788750000016792019185070084525_);}
	.st21{clip-path:url(#SVGID_00000060736396888475086590000014692657811736192646_);}
	.st22{clip-path:url(#SVGID_00000177461001618264617030000006851121915199027614_);}
	.st23{clip-path:url(#SVGID_00000026139705215723937000000016530264261335778493_);}
	.st24{clip-path:url(#SVGID_00000171701432255216468370000011049928571582645942_);}
	.st25{clip-path:url(#SVGID_00000050650735072758516150000016068421863101483193_);}
	.st26{clip-path:url(#SVGID_00000173875967741039033370000004980386096954130856_);}
	.st27{clip-path:url(#SVGID_00000153677846779617783630000015736795300610312326_);}
	.st28{clip-path:url(#SVGID_00000029748043643011501250000017771414080146776471_);}
	.st29{clip-path:url(#SVGID_00000163756447504122022880000000408760081959245217_);}
	.st30{clip-path:url(#SVGID_00000145042395454054973240000000944835164987453100_);}
	.st31{clip-path:url(#SVGID_00000051368003468377465390000008918502718161587854_);}
	.st32{clip-path:url(#SVGID_00000083069144841913257160000007640217296506101674_);}
	.st33{clip-path:url(#SVGID_00000131366575968115836640000003209049967940226453_);}
	.st34{clip-path:url(#SVGID_00000121238433738711349170000011198607964368854419_);}
	.st35{clip-path:url(#SVGID_00000145760723596469993680000018027786262874173603_);}
	.st36{clip-path:url(#SVGID_00000030450684674614317950000010001600731341170575_);}
	.st37{clip-path:url(#SVGID_00000180344470527168528960000000178336557894276256_);}
	.st38{clip-path:url(#SVGID_00000043420817731265008180000007205865455058024112_);}
	.st39{clip-path:url(#SVGID_00000129898625048122436110000003176547840315806653_);}
	.st40{clip-path:url(#SVGID_00000014627484071247036690000014701930082801182119_);}
	.st41{clip-path:url(#SVGID_00000016771533693534754150000000492734146749056177_);}
	.st42{clip-path:url(#SVGID_00000142160207130233041660000009053624694469277629_);}
	.st43{clip-path:url(#SVGID_00000181061848226580390800000017045571382301814924_);}
	.st44{clip-path:url(#SVGID_00000170987646432059461770000004596020009441004727_);}
	.st45{clip-path:url(#SVGID_00000039816034833147650630000009796183496807458488_);}
	.st46{clip-path:url(#SVGID_00000067921679506092766110000008300920380625181880_);}
	.st47{clip-path:url(#SVGID_00000171682653528998030900000010464628504196170935_);}
	.st48{clip-path:url(#SVGID_00000096029186501001676750000003073641926092597694_);}
	.st49{clip-path:url(#SVGID_00000052822126231350173200000009027384808609068182_);}
	.st50{clip-path:url(#SVGID_00000005975058696585259310000014509956036547014043_);}
	.st51{clip-path:url(#SVGID_00000106141455524043190470000008292633970791666354_);}
	.st52{clip-path:url(#SVGID_00000074405948585048563060000018267836254939495061_);}
	.st53{clip-path:url(#SVGID_00000000205662289973730780000011276171841266227083_);}
	.st54{clip-path:url(#SVGID_00000162350620058326600690000003111206972202179206_);}
	.st55{clip-path:url(#SVGID_00000000191534366344299880000003983144096706249359_);}
	.st56{clip-path:url(#SVGID_00000000905036583937123490000009843732253466604443_);}
	.st57{clip-path:url(#SVGID_00000052084269345904026110000017387795493929264056_);}
	.st58{clip-path:url(#SVGID_00000118367050946304180720000005531356391757110191_);}
	.st59{clip-path:url(#SVGID_00000010289653199238229380000015252391630991778725_);}
	.st60{clip-path:url(#SVGID_00000163064596943349279330000001341323036363824551_);}
	.st61{clip-path:url(#SVGID_00000127738805411462609820000003444941435153209996_);}
	.st62{clip-path:url(#SVGID_00000019666284406616022840000016357543697792521614_);}
	.st63{clip-path:url(#SVGID_00000047037217631979556130000007775735686968386472_);}
	.st64{clip-path:url(#SVGID_00000145778456654357180940000014198052103657897609_);}
	.st65{clip-path:url(#SVGID_00000157286730787311968350000002053412809661170874_);}
	.st66{clip-path:url(#SVGID_00000156553296794941494750000015290108185984282501_);}
	.st67{clip-path:url(#SVGID_00000169545442897854886710000016573790139199817106_);}
	.st68{clip-path:url(#SVGID_00000036226748037472870570000001704104598264823937_);}
	.st69{clip-path:url(#SVGID_00000095304826341728885160000008188223689092820873_);}
	.st70{clip-path:url(#SVGID_00000081617815125205417340000008308351305611983245_);}
	.st71{clip-path:url(#SVGID_00000050639009980261697420000004191968980286236292_);}
	.st72{clip-path:url(#SVGID_00000124138154324749993470000010110018759638289573_);}
	.st73{clip-path:url(#SVGID_00000012454773336868403430000001304046122904825219_);}
	.st74{clip-path:url(#SVGID_00000117652297794694555530000002450481199507028658_);}
	.st75{clip-path:url(#SVGID_00000168114299379330081060000009844626711542674077_);}
	.st76{clip-path:url(#SVGID_00000065071367808378893280000010401932585200470198_);}
	.st77{clip-path:url(#SVGID_00000063590855545573914990000006677373352217230745_);}
	.st78{clip-path:url(#SVGID_00000007398252661226989580000002456401387492856489_);}
	.st79{clip-path:url(#SVGID_00000059267720433749400060000002674333902844549769_);}
	.st80{clip-path:url(#SVGID_00000061455159393529143610000004038046517017375109_);}
	.st81{clip-path:url(#SVGID_00000007392960666398429890000010565830963918847130_);}
	.st82{clip-path:url(#SVGID_00000168083555693869733540000001894026400273313184_);}
	.st83{fill:none;}
	.st84{clip-path:url(#SVGID_00000169546912718664040910000016458735612769454494_);}
	.st85{clip-path:url(#SVGID_00000137101255490920448080000002092104291385979039_);}
	.st86{clip-path:url(#SVGID_00000089540763792887270130000002527687265287559850_);}
	.st87{clip-path:url(#SVGID_00000042725999782448357260000011510294439193569440_);}
	.st88{clip-path:url(#SVGID_00000029764790212393253130000017680862763485947295_);}
	.st89{clip-path:url(#SVGID_00000145745015701107105140000008478390979823633323_);}
	.st90{clip-path:url(#SVGID_00000008864127994844763680000002821117425301091481_);}
	.st91{clip-path:url(#SVGID_00000052825048632118932090000009476582319722947713_);}
	.st92{clip-path:url(#SVGID_00000137096426799761186010000014154119373599484607_);}
	.st93{clip-path:url(#SVGID_00000142894944634772699170000005222977995638522757_);}
	.st94{clip-path:url(#SVGID_00000039839843215722413420000002669412514444529029_);}
	.st95{clip-path:url(#SVGID_00000049180717600564791990000011557510396229703828_);}
	.st96{clip-path:url(#SVGID_00000070827735475786961740000010343683930626459323_);}
	.st97{clip-path:url(#SVGID_00000046342030405903833150000013304401311217538449_);}
	.st98{clip-path:url(#SVGID_00000007413107547661303210000008521795084089972377_);}
	.st99{clip-path:url(#SVGID_00000108995904034763076680000013706188506714089918_);}
	.st100{clip-path:url(#SVGID_00000103263686428783052040000012863619687668446141_);}
	.st101{clip-path:url(#SVGID_00000148652764204314458230000005574054243783261098_);}
	.st102{clip-path:url(#SVGID_00000004546226400929880910000007438411082831237302_);}
	.st103{clip-path:url(#SVGID_00000073719278997295309900000016855215647274350468_);}
	.st104{clip-path:url(#SVGID_00000028318853778018035650000004402808092464184715_);}
	.st105{clip-path:url(#SVGID_00000145017851888598712900000013132106446374613162_);}
	.st106{clip-path:url(#SVGID_00000112596965824058609430000013287371233171595924_);}
	.st107{clip-path:url(#SVGID_00000137847309818562721930000010042788955908595882_);}
	.st108{clip-path:url(#SVGID_00000039103043583697212740000004662120787267918493_);}
	.st109{clip-path:url(#SVGID_00000048487102339252973540000004678432075112658598_);}
	.st110{clip-path:url(#SVGID_00000085216747365908803610000013623526146703155104_);}
	.st111{clip-path:url(#SVGID_00000057142230464690716450000017932465806378767545_);}
	.st112{clip-path:url(#SVGID_00000147178390204747874690000002609273763356237496_);}
	.st113{clip-path:url(#SVGID_00000170280057429729028590000007053781236511799731_);}
	.st114{clip-path:url(#SVGID_00000078014014177182479460000002102385430511969417_);}
	.st115{clip-path:url(#SVGID_00000068677006097348808140000008489596973098616482_);}
	.st116{clip-path:url(#SVGID_00000119104036898121575590000014863368831207783334_);}
	.st117{clip-path:url(#SVGID_00000027581261030634522820000009150589091716789644_);}
	.st118{clip-path:url(#SVGID_00000082330723162320835020000011377733118636051098_);}
	.st119{clip-path:url(#SVGID_00000147918026862597545260000013797651616755586451_);}
	.st120{clip-path:url(#SVGID_00000062887515124797040290000003414397149161672329_);}
	.st121{clip-path:url(#SVGID_00000173156833497563872550000010795975427225393287_);}
	.st122{clip-path:url(#SVGID_00000008838127983234513370000014120520064869719734_);}
	.st123{clip-path:url(#SVGID_00000088828670458144703010000011507099606662696633_);}
	.st124{clip-path:url(#SVGID_00000044177710066729487700000002916234096182434747_);}
	.st125{clip-path:url(#SVGID_00000049221702872528240790000011946355622111582644_);}
	.st126{clip-path:url(#SVGID_00000011016323388738639570000013562358570056354734_);}
	.st127{clip-path:url(#SVGID_00000170959541891716255470000011606938562348850059_);}
	.st128{clip-path:url(#SVGID_00000142148178289598082930000013935384212391126459_);}
	.st129{clip-path:url(#SVGID_00000091715266285633505160000013589202882800997821_);}
	.st130{clip-path:url(#SVGID_00000107575568005041158960000015075103748765800632_);}
	.st131{clip-path:url(#SVGID_00000075879079744677628980000006678577463962120584_);}
	.st132{clip-path:url(#SVGID_00000008830165972557770780000000278930472696213434_);}
	.st133{clip-path:url(#SVGID_00000036224551814507636200000000073120905051522228_);}
	.st134{clip-path:url(#SVGID_00000075861900955530998170000005301629897634220187_);}
	.st135{clip-path:url(#SVGID_00000025441855318751483690000002555516048427279504_);}
	.st136{clip-path:url(#SVGID_00000057857475294424489820000009465914673189066918_);}
	.st137{clip-path:url(#SVGID_00000106854121297908667670000002148030503718470327_);}
	.st138{clip-path:url(#SVGID_00000021798523576041739780000005725894991351237027_);}
	.st139{clip-path:url(#SVGID_00000088096980665425140050000012856752448976197283_);}
	.st140{clip-path:url(#SVGID_00000088105948381849838760000002469873594591574193_);}
	.st141{clip-path:url(#SVGID_00000066517236997748903890000010326497640941292948_);}
	.st142{clip-path:url(#SVGID_00000067934681056446534220000006831148471832289446_);}
	.st143{clip-path:url(#SVGID_00000000943413583551631400000008965120947077127325_);}
	.st144{clip-path:url(#SVGID_00000039817256894441524380000002733599539629380506_);}
	.st145{clip-path:url(#SVGID_00000057859223018747288320000006700526363834382478_);}
	.st146{clip-path:url(#SVGID_00000130646171994102055540000015711407395092197311_);}
	.st147{clip-path:url(#SVGID_00000000930485924446133640000006932380175557100714_);}
	.st148{clip-path:url(#SVGID_00000107572463379810611590000001828278415089601725_);}
	.st149{clip-path:url(#SVGID_00000161602659837258521630000013090011990324103860_);}
	.st150{clip-path:url(#SVGID_00000107566147551801920610000000648881344644974257_);}
	.st151{clip-path:url(#SVGID_00000121977067201431225020000014329231091103596460_);}
	.st152{clip-path:url(#SVGID_00000008139807173956545830000010345648752906234263_);}
	.st153{clip-path:url(#SVGID_00000124150029831641567880000001276189979877475977_);}
	.st154{clip-path:url(#SVGID_00000127033202722283556340000012021449902771382946_);}
	.st155{clip-path:url(#SVGID_00000163033042852927132330000015111811848152328866_);}
	.st156{clip-path:url(#SVGID_00000129172565289926800940000005854356483769592208_);}
	.st157{clip-path:url(#SVGID_00000114753523454050953070000006868302717145604507_);}
	.st158{clip-path:url(#SVGID_00000129917902290965741270000012265344387101896088_);}
	.st159{clip-path:url(#SVGID_00000005266651384179138370000010331056598439887030_);}
	.st160{clip-path:url(#SVGID_00000167372260333080157580000007363585062157615037_);}
	.st161{clip-path:url(#SVGID_00000040557498762914390660000006239669712317364143_);}
	.st162{clip-path:url(#SVGID_00000143610501995461896150000001158306220741818271_);}
	.st163{clip-path:url(#SVGID_00000148627633294470007390000000424903442108365228_);}
	.st164{clip-path:url(#SVGID_00000041993488640561218570000004072963735096730801_);}
	.st165{clip-path:url(#SVGID_00000181070118587955397060000013669068871414605211_);}
	.st166{clip-path:url(#SVGID_00000161590109973075628890000014133611966626234814_);}
	.st167{clip-path:url(#SVGID_00000127046019973259566920000016378515072481904018_);}
	.st168{clip-path:url(#SVGID_00000059990768527051198840000003133375980644174494_);}
	.st169{clip-path:url(#SVGID_00000046333731519166330140000008087748538673681051_);}
	.st170{clip-path:url(#SVGID_00000024713247722785285840000008106133644477301671_);}
	.st171{clip-path:url(#SVGID_00000098202725227251391620000004151022458503663802_);}
	.st172{clip-path:url(#SVGID_00000092442822588127286220000003650844156587830921_);}
	.st173{clip-path:url(#SVGID_00000162348341983829303510000004154667673994348696_);}
	.st174{clip-path:url(#SVGID_00000101067115846252207660000010699152789203902902_);}
	.st175{clip-path:url(#SVGID_00000106835578803906523700000004854377845044808101_);}
	.st176{clip-path:url(#SVGID_00000075151254398303077680000016068659969849417127_);}
	.st177{clip-path:url(#SVGID_00000010294689561627773270000008077943130589832370_);}
	.st178{clip-path:url(#SVGID_00000105403664828979459600000014116522878340706998_);}
	.st179{clip-path:url(#SVGID_00000172423157853315261020000010530434615840725667_);}
	.st180{clip-path:url(#SVGID_00000166655984255001559240000008396806921517690770_);}
	.st181{clip-path:url(#SVGID_00000077310371490171687210000011709780779103686564_);}
	.st182{clip-path:url(#SVGID_00000137824583601627238430000005296493638274027939_);}
	.st183{clip-path:url(#SVGID_00000085241384347007429080000006941363498571284634_);}
	.st184{clip-path:url(#SVGID_00000023282406631787689640000013427679992047038897_);}
	.st185{clip-path:url(#SVGID_00000051370251282463938730000016642010817770459560_);}
	.st186{clip-path:url(#SVGID_00000180360192423730869800000008424970827970538884_);}
</style>
<g>
	<g>
		<g>
			<polygon class="st1" points="20.52,44.15 21.33,44.26 44.36,17.76 24.9,0.86 24.08,0.73 			"/>
		</g>
	</g>
	<g>
		<defs>
			<rect id="SVGID_00000140735813027262050370000007730192809935385488_" x="0" y="0" width="44.66" height="44.56"/>
		</defs>
		<clipPath id="SVGID_00000038395321660259069040000011604361877800483746_">
			<use xlink:href="#SVGID_00000140735813027262050370000007730192809935385488_"  style="overflow:visible;"/>
		</clipPath>
		<g style="clip-path:url(#SVGID_00000038395321660259069040000011604361877800483746_);">
			<g>
				<path class="st1" d="M21.33,44.56c-0.01,0-0.03,0-0.04,0l-0.81-0.11l0.08-0.6l0.65,0.09l22.73-26.14L24.77,1.14l-0.74-0.11
					l0.09-0.59l0.82,0.13c0.06,0.01,0.11,0.03,0.15,0.07l19.45,16.91c0.12,0.11,0.14,0.3,0.03,0.42L21.55,44.45
					C21.5,44.52,21.41,44.56,21.33,44.56z"/>
			</g>
		</g>
	</g>
	<g>
		<g>
			
				<rect x="4.76" y="9.57" transform="matrix(0.6561 -0.7547 0.7547 0.6561 -9.2648 24.5483)" class="st2" width="35.09" height="25.75"/>
		</g>
	</g>
	<g>
		<defs>
			<rect id="SVGID_00000120543377383374543780000012667881567960368054_" x="0" y="0" width="44.66" height="44.56"/>
		</defs>
		<clipPath id="SVGID_00000177466934490371850020000009974457902986096258_">
			<use xlink:href="#SVGID_00000120543377383374543780000012667881567960368054_"  style="overflow:visible;"/>
		</clipPath>
		<g style="clip-path:url(#SVGID_00000177466934490371850020000009974457902986096258_);">
			<g>
				<path class="st1" d="M20.51,44.43c-0.07,0-0.14-0.02-0.2-0.07L0.88,27.46c-0.06-0.05-0.1-0.13-0.1-0.21
					c-0.01-0.08,0.02-0.16,0.07-0.22L23.87,0.55c0.11-0.12,0.3-0.14,0.42-0.03l19.43,16.89c0.06,0.05,0.1,0.13,0.1,0.21
					c0.01,0.08-0.02,0.16-0.07,0.22L20.73,44.32C20.67,44.39,20.59,44.43,20.51,44.43z M1.5,27.21l18.98,16.5L43.1,17.67L24.13,1.17
					L1.5,27.21z"/>
			</g>
		</g>
	</g>
	<g>
		<g>
			
				<rect x="4.76" y="9.57" transform="matrix(0.6561 -0.7547 0.7547 0.6561 -9.2648 24.5483)" class="st2" width="35.09" height="25.75"/>
		</g>
	</g>
	<g>
		<defs>
			<rect id="SVGID_00000090267155781408520700000008692461675905982110_" x="0" y="0" width="44.66" height="44.56"/>
		</defs>
		<clipPath id="SVGID_00000143611346106903456640000012373734949126687116_">
			<use xlink:href="#SVGID_00000090267155781408520700000008692461675905982110_"  style="overflow:visible;"/>
		</clipPath>
		<g style="clip-path:url(#SVGID_00000143611346106903456640000012373734949126687116_);">
			<g>
				<path class="st1" d="M20.51,44.43c-0.07,0-0.14-0.02-0.2-0.07L0.88,27.46c-0.06-0.05-0.1-0.13-0.1-0.21
					c-0.01-0.08,0.02-0.16,0.07-0.22L23.87,0.55c0.11-0.12,0.3-0.14,0.42-0.03l19.43,16.89c0.06,0.05,0.1,0.13,0.1,0.21
					c0.01,0.08-0.02,0.16-0.07,0.22L20.73,44.32C20.67,44.39,20.59,44.43,20.51,44.43z M1.5,27.21l18.98,16.5L43.1,17.67L24.13,1.17
					L1.5,27.21z"/>
			</g>
		</g>
	</g>
	<g>
		<g>
			
				<rect x="5.11" y="10.39" transform="matrix(0.6561 -0.7547 0.7547 0.6561 -9.3859 24.9564)" class="st0" width="35.15" height="24.78"/>
		</g>
	</g>
	<g>
		<defs>
			<rect id="SVGID_00000152249384794527522370000008207967726573933970_" x="0" y="0" width="44.66" height="44.56"/>
		</defs>
		<clipPath id="SVGID_00000146480174801179876510000011320713173918137492_">
			<use xlink:href="#SVGID_00000152249384794527522370000008207967726573933970_"  style="overflow:visible;"/>
		</clipPath>
		<g style="clip-path:url(#SVGID_00000146480174801179876510000011320713173918137492_);">
			<g>
				<path class="st0" d="M20.51,44.29c-0.03,0-0.06-0.01-0.08-0.03L1.72,28.01c-0.02-0.02-0.04-0.05-0.04-0.09
					c0-0.03,0.01-0.07,0.03-0.09L24.78,1.3c0.02-0.02,0.05-0.04,0.09-0.04c0.04,0,0.07,0.01,0.09,0.03l18.7,16.26
					c0.02,0.02,0.04,0.05,0.04,0.09c0,0.03-0.01,0.07-0.03,0.09L20.6,44.25C20.58,44.28,20.54,44.29,20.51,44.29z M1.98,27.9
					L20.5,43.99l22.9-26.34L24.88,1.56L1.98,27.9z"/>
			</g>
		</g>
	</g>
	<g>
		<g>
			
				<rect x="23.34" y="11.57" transform="matrix(0.6561 -0.7547 0.7547 0.6561 -4.5686 25.938)" class="st2" width="5.68" height="12.82"/>
		</g>
	</g>
	<g>
		<g>
			<path class="st1" d="M29.15,24.63c-0.07,0-0.14-0.02-0.2-0.07l-9.68-8.41c-0.12-0.11-0.14-0.3-0.03-0.42l3.73-4.29
				c0.11-0.13,0.3-0.14,0.42-0.03l9.68,8.41c0.06,0.05,0.1,0.13,0.1,0.21c0.01,0.08-0.02,0.16-0.07,0.22l-3.73,4.29
				C29.32,24.6,29.23,24.63,29.15,24.63z M19.9,15.89l9.23,8.02l3.33-3.83l-9.23-8.02L19.9,15.89z"/>
		</g>
	</g>
	<g>
		<g>
			
				<rect x="26.32" y="12.45" transform="matrix(0.6561 -0.7547 0.7547 0.6561 -4.0248 26.0975)" class="st1" width="0.6" height="10.02"/>
		</g>
	</g>
	<g>
		<g>
			
				<rect x="24.11" y="14.09" transform="matrix(0.656 -0.7547 0.7547 0.656 -4.7007 24.3878)" class="st1" width="0.6" height="6.53"/>
		</g>
	</g>
	<g>
		<defs>
			<rect id="SVGID_00000172420528883585686010000015995632353495590055_" x="0" y="0" width="44.66" height="44.56"/>
		</defs>
		<clipPath id="SVGID_00000043419170676933819140000017063946314852748701_">
			<use xlink:href="#SVGID_00000172420528883585686010000015995632353495590055_"  style="overflow:visible;"/>
		</clipPath>
		<g style="clip-path:url(#SVGID_00000043419170676933819140000017063946314852748701_);">
			<g>
				<path class="st1" d="M20.51,44.43c-0.07,0-0.14-0.02-0.2-0.07L0.88,27.46c-0.06-0.05-0.1-0.13-0.1-0.21
					c-0.01-0.08,0.02-0.16,0.07-0.22L23.87,0.55c0.11-0.12,0.3-0.14,0.42-0.03l19.43,16.89c0.06,0.05,0.1,0.13,0.1,0.21
					c0.01,0.08-0.02,0.16-0.07,0.22L20.73,44.32C20.67,44.39,20.59,44.43,20.51,44.43z M1.5,27.21l18.98,16.5L43.1,17.67L24.13,1.17
					L1.5,27.21z"/>
			</g>
		</g>
		<g style="clip-path:url(#SVGID_00000043419170676933819140000017063946314852748701_);">
			<g>
				<path class="st1" d="M22.73,4.06c-0.48,0-0.97-0.17-1.36-0.51c-0.41-0.36-0.66-0.85-0.71-1.4c-0.04-0.54,0.13-1.07,0.48-1.47
					C21.5,0.28,22,0.04,22.54,0c0.54-0.03,1.07,0.15,1.48,0.51c0.12,0.11,0.14,0.3,0.03,0.42c-0.11,0.13-0.3,0.14-0.42,0.03
					c-0.29-0.26-0.66-0.39-1.05-0.36c-0.38,0.02-0.73,0.19-0.97,0.48c-0.25,0.28-0.37,0.65-0.34,1.03c0.03,0.38,0.21,0.73,0.5,0.99
					c0.6,0.53,1.51,0.47,2.03-0.11c0.11-0.12,0.3-0.14,0.42-0.03c0.12,0.11,0.14,0.3,0.03,0.42C23.85,3.83,23.3,4.06,22.73,4.06z"/>
			</g>
		</g>
		<g style="clip-path:url(#SVGID_00000043419170676933819140000017063946314852748701_);">
			<g>
				<path class="st1" d="M18.6,8.82c-0.5,0-0.98-0.18-1.36-0.51c-0.41-0.36-0.66-0.85-0.71-1.39c-0.04-0.54,0.13-1.07,0.48-1.47
					c0.73-0.84,2.02-0.92,2.87-0.18c0.12,0.11,0.14,0.3,0.03,0.42c-0.11,0.13-0.3,0.14-0.42,0.03c-0.6-0.52-1.51-0.47-2.03,0.12
					c-0.25,0.28-0.37,0.65-0.34,1.03c0.03,0.38,0.21,0.73,0.5,0.99c0.29,0.26,0.66,0.39,1.05,0.36c0.38-0.02,0.73-0.19,0.98-0.48
					c0.11-0.13,0.3-0.14,0.42-0.03c0.12,0.11,0.14,0.3,0.03,0.42c-0.35,0.41-0.85,0.65-1.39,0.68C18.68,8.82,18.64,8.82,18.6,8.82z"
					/>
			</g>
		</g>
		<g style="clip-path:url(#SVGID_00000043419170676933819140000017063946314852748701_);">
			<g>
				<path class="st1" d="M14.47,13.57c-0.48,0-0.96-0.17-1.36-0.51c-0.41-0.36-0.66-0.85-0.71-1.4c-0.04-0.54,0.13-1.07,0.48-1.47
					c0.73-0.84,2.02-0.92,2.87-0.18c0.12,0.11,0.14,0.3,0.03,0.42c-0.11,0.12-0.3,0.14-0.42,0.03c-0.6-0.53-1.51-0.47-2.03,0.12
					c-0.25,0.28-0.37,0.65-0.34,1.03c0.03,0.38,0.21,0.73,0.5,0.99c0.61,0.53,1.51,0.47,2.03-0.12c0.11-0.13,0.3-0.14,0.42-0.03
					c0.12,0.11,0.14,0.3,0.03,0.42C15.59,13.34,15.03,13.57,14.47,13.57z"/>
			</g>
		</g>
		<g style="clip-path:url(#SVGID_00000043419170676933819140000017063946314852748701_);">
			<g>
				<path class="st1" d="M10.34,18.32c-0.48,0-0.97-0.17-1.36-0.51c-0.41-0.36-0.66-0.85-0.71-1.39c-0.04-0.54,0.13-1.07,0.48-1.47
					c0.35-0.41,0.85-0.65,1.39-0.68c0.54-0.03,1.07,0.15,1.48,0.51c0.12,0.11,0.14,0.3,0.03,0.42c-0.11,0.13-0.3,0.14-0.42,0.03
					c-0.29-0.26-0.67-0.39-1.05-0.36c-0.38,0.02-0.73,0.19-0.97,0.48c-0.25,0.29-0.37,0.65-0.34,1.03c0.03,0.38,0.21,0.73,0.5,0.99
					c0.6,0.53,1.51,0.47,2.03-0.11c0.11-0.12,0.3-0.14,0.42-0.03c0.12,0.11,0.14,0.3,0.03,0.42C11.46,18.09,10.9,18.32,10.34,18.32z
					"/>
			</g>
		</g>
		<g style="clip-path:url(#SVGID_00000043419170676933819140000017063946314852748701_);">
			<g>
				<path class="st1" d="M8.27,20.7c-0.48,0-0.97-0.17-1.36-0.51c-0.41-0.36-0.66-0.85-0.71-1.4c-0.04-0.54,0.13-1.07,0.48-1.47
					c0.73-0.84,2.02-0.92,2.87-0.18c0.12,0.11,0.14,0.3,0.03,0.42c-0.11,0.13-0.3,0.14-0.42,0.03c-0.6-0.53-1.51-0.47-2.03,0.12
					C6.89,18,6.77,18.37,6.8,18.75c0.03,0.38,0.21,0.73,0.5,0.99c0.6,0.53,1.51,0.47,2.03-0.11c0.11-0.13,0.3-0.14,0.42-0.03
					c0.12,0.11,0.14,0.3,0.03,0.42C9.39,20.47,8.83,20.7,8.27,20.7z"/>
			</g>
		</g>
		<g style="clip-path:url(#SVGID_00000043419170676933819140000017063946314852748701_);">
			<g>
				<path class="st1" d="M21.7,5.25c-0.5,0-0.98-0.18-1.36-0.51c-0.41-0.36-0.66-0.85-0.71-1.4c-0.04-0.54,0.13-1.07,0.48-1.47
					c0.35-0.41,0.85-0.65,1.39-0.68c0.55-0.03,1.07,0.15,1.48,0.51c0.12,0.11,0.14,0.3,0.03,0.42c-0.11,0.13-0.3,0.14-0.42,0.03
					c-0.29-0.25-0.67-0.38-1.05-0.36c-0.38,0.02-0.73,0.19-0.97,0.48c-0.25,0.28-0.37,0.65-0.34,1.03c0.03,0.38,0.21,0.73,0.5,0.99
					s0.67,0.39,1.05,0.36c0.38-0.02,0.73-0.19,0.98-0.48c0.11-0.13,0.3-0.14,0.42-0.03c0.12,0.11,0.14,0.3,0.03,0.42
					c-0.35,0.41-0.85,0.65-1.39,0.68C21.78,5.25,21.74,5.25,21.7,5.25z"/>
			</g>
		</g>
		<g style="clip-path:url(#SVGID_00000043419170676933819140000017063946314852748701_);">
			<g>
				<path class="st1" d="M17.57,10.01c-0.5,0-0.98-0.18-1.36-0.51c-0.85-0.74-0.96-2.03-0.23-2.87c0.73-0.84,2.02-0.92,2.87-0.18
					c0.12,0.11,0.14,0.3,0.03,0.42C18.78,7,18.59,7.01,18.46,6.9c-0.6-0.53-1.51-0.47-2.03,0.12C15.92,7.61,16,8.52,16.6,9.04
					c0.29,0.25,0.67,0.38,1.05,0.36c0.38-0.02,0.73-0.19,0.97-0.48c0.11-0.13,0.3-0.14,0.42-0.03c0.12,0.11,0.14,0.3,0.03,0.42
					c-0.35,0.41-0.85,0.65-1.39,0.68C17.65,10,17.61,10.01,17.57,10.01z"/>
			</g>
		</g>
		<g style="clip-path:url(#SVGID_00000043419170676933819140000017063946314852748701_);">
			<g>
				<path class="st1" d="M13.44,14.76c-0.48,0-0.96-0.17-1.36-0.51c-0.42-0.36-0.67-0.87-0.71-1.42c-0.04-0.53,0.13-1.05,0.48-1.45
					c0.35-0.41,0.85-0.65,1.39-0.68c0.54-0.03,1.07,0.15,1.48,0.51c0.12,0.11,0.14,0.3,0.03,0.42c-0.11,0.13-0.3,0.14-0.42,0.03
					c-0.29-0.26-0.67-0.39-1.05-0.36c-0.38,0.02-0.73,0.19-0.97,0.48c-0.24,0.28-0.36,0.64-0.34,1.02c0.03,0.39,0.21,0.75,0.5,1.01
					c0.6,0.53,1.51,0.47,2.03-0.12c0.11-0.12,0.3-0.14,0.42-0.03c0.12,0.11,0.14,0.3,0.03,0.42C14.56,14.53,14,14.76,13.44,14.76z"
					/>
			</g>
		</g>
		<g style="clip-path:url(#SVGID_00000043419170676933819140000017063946314852748701_);">
			<g>
				<path class="st1" d="M9.3,19.51c-0.48,0-0.97-0.17-1.36-0.51c-0.41-0.36-0.66-0.85-0.71-1.39c-0.04-0.54,0.13-1.07,0.48-1.47
					c0.35-0.41,0.85-0.65,1.39-0.68c0.54-0.03,1.07,0.15,1.48,0.51c0.12,0.11,0.14,0.3,0.03,0.42c-0.11,0.13-0.3,0.14-0.42,0.03
					c-0.29-0.26-0.66-0.39-1.05-0.36c-0.38,0.02-0.73,0.19-0.97,0.48c-0.25,0.29-0.37,0.65-0.34,1.03c0.03,0.38,0.21,0.73,0.5,0.99
					c0.6,0.53,1.51,0.47,2.03-0.11c0.11-0.13,0.3-0.14,0.42-0.03c0.12,0.11,0.14,0.3,0.03,0.42C10.42,19.28,9.87,19.51,9.3,19.51z"
					/>
			</g>
		</g>
		<g style="clip-path:url(#SVGID_00000043419170676933819140000017063946314852748701_);">
			<g>
				<path class="st1" d="M6.21,23.08c-0.48,0-0.97-0.17-1.36-0.51c-0.41-0.36-0.66-0.85-0.71-1.39c-0.04-0.54,0.13-1.07,0.48-1.47
					c0.35-0.41,0.85-0.65,1.39-0.68c0.54-0.03,1.07,0.15,1.48,0.51c0.12,0.11,0.14,0.3,0.03,0.42c-0.11,0.13-0.3,0.14-0.42,0.03
					c-0.29-0.26-0.67-0.39-1.05-0.36c-0.38,0.02-0.73,0.19-0.97,0.48c-0.25,0.28-0.37,0.65-0.34,1.03c0.03,0.38,0.21,0.73,0.5,0.99
					c0.6,0.53,1.51,0.47,2.03-0.11c0.11-0.13,0.3-0.14,0.42-0.03c0.12,0.11,0.14,0.3,0.03,0.42C7.33,22.85,6.77,23.08,6.21,23.08z"
					/>
			</g>
		</g>
		<g style="clip-path:url(#SVGID_00000043419170676933819140000017063946314852748701_);">
			<g>
				<path class="st1" d="M20.67,6.44c-0.5,0-0.98-0.18-1.36-0.51c-0.85-0.74-0.96-2.03-0.23-2.87c0.73-0.84,2.02-0.92,2.87-0.17
					c0.12,0.11,0.14,0.3,0.03,0.42c-0.11,0.13-0.3,0.14-0.42,0.03c-0.61-0.52-1.51-0.47-2.03,0.12c-0.51,0.59-0.44,1.5,0.17,2.02
					c0.29,0.26,0.67,0.38,1.05,0.36c0.38-0.02,0.73-0.19,0.98-0.48c0.11-0.13,0.3-0.14,0.42-0.03c0.12,0.11,0.14,0.3,0.03,0.42
					c-0.35,0.41-0.85,0.65-1.39,0.68C20.75,6.44,20.71,6.44,20.67,6.44z"/>
			</g>
		</g>
		<g style="clip-path:url(#SVGID_00000043419170676933819140000017063946314852748701_);">
			<g>
				<path class="st1" d="M16.53,11.19c-0.48,0-0.96-0.17-1.36-0.51c-0.41-0.36-0.66-0.85-0.71-1.4c-0.04-0.54,0.13-1.07,0.48-1.47
					c0.35-0.41,0.85-0.65,1.39-0.68c0.54-0.03,1.07,0.15,1.48,0.51c0.12,0.11,0.14,0.3,0.03,0.42c-0.11,0.13-0.3,0.14-0.42,0.03
					c-0.29-0.25-0.67-0.38-1.05-0.36C16,7.75,15.65,7.92,15.4,8.21c-0.25,0.28-0.37,0.65-0.34,1.03c0.03,0.38,0.21,0.73,0.5,0.99
					c0.61,0.53,1.51,0.47,2.03-0.12c0.11-0.13,0.3-0.14,0.42-0.03c0.12,0.11,0.14,0.3,0.03,0.42C17.66,10.96,17.1,11.19,16.53,11.19
					z"/>
			</g>
		</g>
		<g style="clip-path:url(#SVGID_00000043419170676933819140000017063946314852748701_);">
			<g>
				<path class="st1" d="M12.4,15.95c-0.5,0-0.97-0.18-1.36-0.51c-0.85-0.74-0.96-2.03-0.23-2.87c0.73-0.84,2.02-0.92,2.87-0.17
					c0.12,0.11,0.14,0.3,0.03,0.42s-0.3,0.14-0.42,0.03c-0.6-0.52-1.51-0.47-2.03,0.12c-0.51,0.59-0.44,1.5,0.17,2.02
					c0.3,0.26,0.67,0.39,1.06,0.36c0.38-0.03,0.72-0.19,0.96-0.48c0.11-0.13,0.3-0.14,0.42-0.03c0.12,0.11,0.14,0.3,0.03,0.42
					c-0.35,0.4-0.84,0.64-1.37,0.68C12.5,15.95,12.45,15.95,12.4,15.95z"/>
			</g>
		</g>
		<g style="clip-path:url(#SVGID_00000043419170676933819140000017063946314852748701_);">
			<g>
				<path class="st1" d="M7.24,21.89c-0.48,0-0.97-0.17-1.36-0.51c-0.41-0.36-0.66-0.85-0.71-1.4c-0.04-0.54,0.13-1.07,0.48-1.47
					c0.35-0.41,0.85-0.65,1.39-0.68c0.54-0.03,1.07,0.15,1.48,0.51c0.12,0.11,0.14,0.3,0.03,0.42c-0.11,0.12-0.3,0.14-0.42,0.03
					c-0.29-0.26-0.67-0.38-1.05-0.36c-0.38,0.02-0.73,0.19-0.97,0.48c-0.25,0.28-0.37,0.65-0.34,1.03c0.03,0.38,0.21,0.73,0.5,0.99
					c0.6,0.53,1.51,0.48,2.03-0.11c0.11-0.12,0.3-0.14,0.42-0.03c0.12,0.11,0.14,0.3,0.03,0.42C8.36,21.66,7.8,21.89,7.24,21.89z"/>
			</g>
		</g>
		<g style="clip-path:url(#SVGID_00000043419170676933819140000017063946314852748701_);">
			<g>
				<path class="st1" d="M4.14,25.45c-0.48,0-0.97-0.17-1.36-0.51c-0.41-0.36-0.66-0.85-0.71-1.39c-0.04-0.54,0.13-1.07,0.48-1.47
					c0.73-0.84,2.02-0.92,2.87-0.18c0.12,0.11,0.14,0.3,0.03,0.42c-0.11,0.13-0.3,0.14-0.42,0.03c-0.6-0.52-1.51-0.47-2.03,0.12
					c-0.25,0.28-0.37,0.65-0.34,1.03c0.03,0.38,0.21,0.73,0.5,0.99c0.6,0.53,1.51,0.47,2.03-0.11c0.11-0.12,0.3-0.14,0.42-0.03
					c0.12,0.11,0.14,0.3,0.03,0.42C5.26,25.22,4.7,25.45,4.14,25.45z"/>
			</g>
		</g>
		<g style="clip-path:url(#SVGID_00000043419170676933819140000017063946314852748701_);">
			<g>
				<path class="st1" d="M19.63,7.63c-0.5,0-0.97-0.18-1.36-0.51c-0.85-0.74-0.96-2.03-0.23-2.87c0.73-0.84,2.02-0.92,2.87-0.17
					c0.12,0.11,0.14,0.3,0.03,0.42c-0.11,0.13-0.3,0.14-0.42,0.03C19.92,4,19.01,4.05,18.5,4.64c-0.51,0.59-0.44,1.5,0.17,2.02
					c0.3,0.26,0.67,0.39,1.06,0.36c0.38-0.03,0.72-0.19,0.96-0.48c0.11-0.13,0.3-0.14,0.42-0.03c0.12,0.11,0.14,0.3,0.03,0.42
					c-0.35,0.4-0.84,0.64-1.37,0.68C19.73,7.63,19.68,7.63,19.63,7.63z"/>
			</g>
		</g>
		<g style="clip-path:url(#SVGID_00000043419170676933819140000017063946314852748701_);">
			<g>
				<path class="st1" d="M15.5,12.38c-0.48,0-0.96-0.17-1.36-0.51c-0.41-0.36-0.66-0.85-0.71-1.4C13.39,9.93,13.56,9.41,13.92,9
					c0.35-0.41,0.85-0.65,1.39-0.68c0.54-0.03,1.07,0.15,1.48,0.51c0.12,0.11,0.14,0.3,0.03,0.42c-0.11,0.13-0.3,0.14-0.42,0.03
					c-0.29-0.26-0.68-0.38-1.05-0.36c-0.38,0.02-0.73,0.19-0.97,0.48c-0.25,0.28-0.37,0.65-0.34,1.03c0.03,0.38,0.21,0.73,0.5,0.99
					c0.6,0.53,1.51,0.47,2.03-0.12c0.11-0.13,0.3-0.14,0.42-0.03c0.12,0.11,0.14,0.3,0.03,0.42C16.62,12.15,16.06,12.38,15.5,12.38z
					"/>
			</g>
		</g>
		<g style="clip-path:url(#SVGID_00000043419170676933819140000017063946314852748701_);">
			<g>
				<path class="st1" d="M11.37,17.14c-0.5,0-0.98-0.18-1.36-0.51c-0.85-0.74-0.96-2.03-0.23-2.87c0.73-0.84,2.02-0.92,2.87-0.18
					c0.12,0.11,0.14,0.3,0.03,0.42c-0.11,0.13-0.3,0.14-0.42,0.03c-0.6-0.53-1.51-0.47-2.03,0.12c-0.51,0.59-0.44,1.5,0.17,2.02
					c0.29,0.26,0.67,0.38,1.05,0.36c0.38-0.02,0.73-0.19,0.97-0.48c0.11-0.13,0.3-0.14,0.42-0.03c0.12,0.11,0.14,0.3,0.03,0.42
					c-0.35,0.41-0.85,0.65-1.39,0.68C11.45,17.14,11.41,17.14,11.37,17.14z"/>
			</g>
		</g>
		<g style="clip-path:url(#SVGID_00000043419170676933819140000017063946314852748701_);">
			<g>
				<path class="st1" d="M5.17,24.27c-0.5,0-0.97-0.18-1.36-0.51c-0.85-0.74-0.96-2.03-0.23-2.87c0.73-0.84,2.02-0.92,2.87-0.17
					c0.12,0.11,0.14,0.3,0.03,0.42c-0.11,0.13-0.3,0.14-0.42,0.03c-0.61-0.52-1.51-0.47-2.03,0.12c-0.51,0.59-0.44,1.5,0.17,2.02
					c0.3,0.26,0.68,0.39,1.06,0.36c0.38-0.03,0.72-0.19,0.96-0.48c0.11-0.13,0.3-0.14,0.42-0.03c0.12,0.11,0.14,0.3,0.03,0.42
					c-0.35,0.4-0.84,0.64-1.37,0.68C5.27,24.26,5.22,24.27,5.17,24.27z"/>
			</g>
		</g>
		<g style="clip-path:url(#SVGID_00000043419170676933819140000017063946314852748701_);">
			<g>
				<path class="st1" d="M3.11,26.64c-0.48,0-0.96-0.17-1.36-0.51c-0.41-0.36-0.66-0.85-0.71-1.4C1,24.19,1.17,23.67,1.52,23.26
					c0.35-0.41,0.85-0.65,1.39-0.68c0.54-0.03,1.07,0.15,1.48,0.51c0.12,0.11,0.14,0.3,0.03,0.42c-0.11,0.13-0.3,0.14-0.42,0.03
					c-0.29-0.26-0.67-0.38-1.05-0.36c-0.38,0.02-0.73,0.19-0.97,0.48c-0.25,0.28-0.37,0.65-0.34,1.03c0.03,0.38,0.21,0.73,0.5,0.99
					c0.61,0.53,1.51,0.47,2.03-0.12c0.11-0.13,0.3-0.14,0.42-0.03c0.12,0.11,0.14,0.3,0.03,0.42C4.23,26.41,3.67,26.64,3.11,26.64z"
					/>
			</g>
		</g>
		<g style="clip-path:url(#SVGID_00000043419170676933819140000017063946314852748701_);">
			<g>
				<path class="st1" d="M2.07,27.83c-0.48,0-0.96-0.17-1.36-0.51c-0.41-0.36-0.66-0.85-0.71-1.4c-0.04-0.54,0.13-1.07,0.48-1.47
					c0.35-0.41,0.85-0.65,1.39-0.68c0.55-0.03,1.07,0.15,1.48,0.51c0.12,0.11,0.14,0.3,0.03,0.42c-0.11,0.13-0.3,0.14-0.42,0.03
					c-0.29-0.26-0.66-0.39-1.05-0.36c-0.38,0.02-0.73,0.19-0.97,0.48c-0.25,0.28-0.37,0.65-0.34,1.03c0.03,0.38,0.21,0.73,0.5,0.99
					c0.61,0.53,1.51,0.47,2.03-0.12c0.11-0.13,0.3-0.14,0.42-0.03c0.12,0.11,0.14,0.3,0.03,0.42C3.19,27.6,2.64,27.83,2.07,27.83z"
					/>
			</g>
		</g>
	</g>
</g>
</svg>
