<?xml version="1.0" encoding="utf-8"?>
<!-- Generator: Adobe Illustrator 26.0.2, SVG Export Plug-In . SVG Version: 6.00 Build 0)  -->
<svg version="1.1" id="Ebene_1" xmlns="http://www.w3.org/2000/svg" xmlns:xlink="http://www.w3.org/1999/xlink" x="0px" y="0px"
	 viewBox="0 0 54.05 87.08" style="enable-background:new 0 0 54.05 87.08;" xml:space="preserve">
<style type="text/css">
	.st0{fill:#E59C00;}
	.st1{fill:#2B2961;}
	.st2{fill:#FFFFFF;}
	.st3{clip-path:url(#SVGID_00000047759988442747243540000011255370987764671143_);}
	.st4{clip-path:url(#SVGID_00000054232443232331122380000015861077020128011928_);}
	.st5{clip-path:url(#SVGID_00000070803078069959512210000012104006959545788090_);}
	.st6{clip-path:url(#SVGID_00000159432764894931991490000016843477679035788468_);}
	.st7{clip-path:url(#SVGID_00000092424085203647332020000015827205779196578193_);}
	.st8{clip-path:url(#SVGID_00000168114944907119304510000008367514035273906086_);}
	.st9{clip-path:url(#SVGID_00000134959954433371073220000006577970017171518122_);}
	.st10{clip-path:url(#SVGID_00000132068977611014992420000000773650291203799169_);}
	.st11{clip-path:url(#SVGID_00000085962955760864341020000003276377688095272349_);}
	.st12{clip-path:url(#SVGID_00000061465197754670666280000016834434345303463841_);}
	.st13{clip-path:url(#SVGID_00000152264979507168419410000009083216893957517705_);}
	.st14{clip-path:url(#SVGID_00000130636266974516727470000014392321117750988730_);}
	.st15{clip-path:url(#SVGID_00000129197116159026787750000001656136136521200027_);}
	.st16{clip-path:url(#SVGID_00000016043540106378035800000011613684361985809321_);}
	.st17{clip-path:url(#SVGID_00000083057227999447390160000010282631151699877053_);}
	.st18{clip-path:url(#SVGID_00000124159566301002778210000014949027286278694586_);}
	.st19{clip-path:url(#SVGID_00000088127670646068803160000011871459523081051572_);}
	.st20{clip-path:url(#SVGID_00000073693357299187523810000018031957967335048120_);}
	.st21{clip-path:url(#SVGID_00000078035544201705910460000014293559662639957915_);}
	.st22{clip-path:url(#SVGID_00000045601546416514091730000004959866484563703940_);}
	.st23{clip-path:url(#SVGID_00000120541002568157810890000006874689481897455028_);}
	.st24{clip-path:url(#SVGID_00000146488370000192856480000012832081448337607328_);}
	.st25{clip-path:url(#SVGID_00000124879170386779170670000003441405814477780380_);}
	.st26{clip-path:url(#SVGID_00000158733911911984711340000006124111311293474234_);}
	.st27{clip-path:url(#SVGID_00000170246021619802694840000000289139906033882511_);}
	.st28{clip-path:url(#SVGID_00000120547261218821568710000001245754228193570443_);}
	.st29{clip-path:url(#SVGID_00000178205716784428973590000002504441974362776999_);}
	.st30{clip-path:url(#SVGID_00000061436199558698751610000000723634259707372705_);}
	.st31{clip-path:url(#SVGID_00000011007612602343631390000017627938274102479268_);}
	.st32{clip-path:url(#SVGID_00000175302198134583142610000006425684774311728520_);}
	.st33{clip-path:url(#SVGID_00000109015770163052767100000011034927563829926844_);}
	.st34{clip-path:url(#SVGID_00000075860363719582864470000003054553291157435023_);}
	.st35{clip-path:url(#SVGID_00000003104694534535375870000001216966709015089298_);}
	.st36{clip-path:url(#SVGID_00000011720096743412214640000002478428639670306701_);}
	.st37{clip-path:url(#SVGID_00000152972081915798500950000010462332381190115477_);}
	.st38{clip-path:url(#SVGID_00000124855765856362569390000011298778461720473735_);}
	.st39{clip-path:url(#SVGID_00000043456141425226002860000016095105931879695789_);}
	.st40{clip-path:url(#SVGID_00000060744516159333549430000009372806863692663684_);}
	.st41{clip-path:url(#SVGID_00000091734430801518441180000018068702961210997639_);}
	.st42{clip-path:url(#SVGID_00000061458440610023530550000000607573038754059681_);}
	.st43{clip-path:url(#SVGID_00000040551623557464112200000008859653563521448331_);}
	.st44{clip-path:url(#SVGID_00000126282265213071451830000010099597585230629284_);}
	.st45{clip-path:url(#SVGID_00000135654001978048864000000015134431122296727976_);}
	.st46{clip-path:url(#SVGID_00000153680066405209925890000005285132050647548329_);}
	.st47{clip-path:url(#SVGID_00000114053529474799366470000016605236023182012568_);}
	.st48{clip-path:url(#SVGID_00000050662282840465589270000014966782725510435761_);}
	.st49{clip-path:url(#SVGID_00000138560249176327161570000001927934411594677403_);}
	.st50{clip-path:url(#SVGID_00000145744467075876190170000002494080112879216010_);}
	.st51{clip-path:url(#SVGID_00000179613285881484596010000008680806973747052445_);}
	.st52{clip-path:url(#SVGID_00000036947916590774312040000017541359581008523946_);}
	.st53{clip-path:url(#SVGID_00000011002184056099017110000015325174599550646945_);}
	.st54{clip-path:url(#SVGID_00000121979362196334240010000013983328854377282472_);}
	.st55{clip-path:url(#SVGID_00000133519452978951858190000006468389544441571464_);}
	.st56{clip-path:url(#SVGID_00000029764617481263361340000017929210106756636056_);}
	.st57{clip-path:url(#SVGID_00000083087556326750882230000007025877091525062050_);}
	.st58{clip-path:url(#SVGID_00000066507820607659207790000010070938073112608937_);}
	.st59{clip-path:url(#SVGID_00000143599771307917968140000005802238159114118584_);}
	.st60{clip-path:url(#SVGID_00000091723878221342972490000018208854702551400359_);}
	.st61{clip-path:url(#SVGID_00000000938392936359068150000013762720839812354749_);}
	.st62{clip-path:url(#SVGID_00000012459664986846861300000005526263982053909401_);}
	.st63{clip-path:url(#SVGID_00000088129624313464073280000016113910351254449545_);}
	.st64{clip-path:url(#SVGID_00000147181911880641444020000002735153024541485737_);}
	.st65{clip-path:url(#SVGID_00000128486829128517283580000010310885071955968936_);}
	.st66{clip-path:url(#SVGID_00000019636124309578532130000012815136726929515965_);}
	.st67{clip-path:url(#SVGID_00000086661550580357415860000006218908089481612672_);}
	.st68{clip-path:url(#SVGID_00000080907071298740868740000006569070447467345343_);}
	.st69{clip-path:url(#SVGID_00000162321585923227996140000013813351268638548101_);}
	.st70{clip-path:url(#SVGID_00000129172786487835139940000005121976172275309244_);}
	.st71{clip-path:url(#SVGID_00000169537816625691793940000000545476032116709794_);}
	.st72{clip-path:url(#SVGID_00000140736605887833260980000006784539347354600116_);}
	.st73{clip-path:url(#SVGID_00000158750398418575496620000004950957029695062676_);}
	.st74{clip-path:url(#SVGID_00000162316535627387453580000016689601119122277009_);}
	.st75{clip-path:url(#SVGID_00000049904315975252589760000003920471730806978696_);}
	.st76{clip-path:url(#SVGID_00000157304997056207938690000010849052704895359154_);}
	.st77{clip-path:url(#SVGID_00000064345350432400938520000012966505128727573676_);}
	.st78{clip-path:url(#SVGID_00000031903660291409346640000006060941634168839093_);}
	.st79{clip-path:url(#SVGID_00000032650170839733352640000004334019930317289655_);}
	.st80{clip-path:url(#SVGID_00000075138582352168141400000010929613049794738340_);}
	.st81{clip-path:url(#SVGID_00000111912135437349277220000000956463809180221073_);}
	.st82{clip-path:url(#SVGID_00000080164382437183731460000008904353488519753401_);}
	.st83{fill:none;}
	.st84{clip-path:url(#SVGID_00000129914457097464546590000008187229693845270913_);}
	.st85{clip-path:url(#SVGID_00000090277930357119251190000001735316945894416023_);}
	.st86{clip-path:url(#SVGID_00000119824012080494049620000017235464707668415365_);}
	.st87{clip-path:url(#SVGID_00000132047571535948452460000006452081112790468497_);}
	.st88{clip-path:url(#SVGID_00000016758037804214776980000016266634970661551232_);}
	.st89{clip-path:url(#SVGID_00000042697658327526932850000001331196586382253213_);}
	.st90{clip-path:url(#SVGID_00000142892524234037062050000001974836466356775101_);}
	.st91{clip-path:url(#SVGID_00000092419168022520398280000011486172106701744292_);}
	.st92{clip-path:url(#SVGID_00000145024761907490667450000015304829285272266936_);}
	.st93{clip-path:url(#SVGID_00000070803176472585801250000007241283127441899953_);}
	.st94{clip-path:url(#SVGID_00000150081742591711107500000015414720975166284729_);}
	.st95{clip-path:url(#SVGID_00000059301640851839636790000008422166669645158577_);}
	.st96{clip-path:url(#SVGID_00000090271720389565565020000018239176824397944960_);}
	.st97{clip-path:url(#SVGID_00000132783726224405625480000018206865339113468826_);}
	.st98{clip-path:url(#SVGID_00000174579685952060477560000012140785783765837491_);}
	.st99{clip-path:url(#SVGID_00000014636613906716798960000016205201188668456092_);}
	.st100{clip-path:url(#SVGID_00000088128835550336749500000002377976286517186238_);}
	.st101{clip-path:url(#SVGID_00000124137116809798135830000006841684668626835638_);}
	.st102{clip-path:url(#SVGID_00000018235907683405130550000014415669492877388209_);}
	.st103{clip-path:url(#SVGID_00000121972852948978059420000007092936497751133570_);}
	.st104{clip-path:url(#SVGID_00000170238098555130145920000002601109246467268250_);}
	.st105{clip-path:url(#SVGID_00000174587749860579788680000016075755903188296592_);}
	.st106{clip-path:url(#SVGID_00000060753244933039358190000000683710365793611685_);}
	.st107{clip-path:url(#SVGID_00000124866978530111696440000010241849743292724403_);}
	.st108{clip-path:url(#SVGID_00000095324982147627269010000006847310860305803443_);}
	.st109{clip-path:url(#SVGID_00000011023962093494197470000012669161569694317995_);}
	.st110{clip-path:url(#SVGID_00000132045904833226700680000008899146462103505283_);}
	.st111{clip-path:url(#SVGID_00000151504295385400275870000004361300928142305191_);}
	.st112{clip-path:url(#SVGID_00000097495415384900291440000013717242869330751888_);}
	.st113{clip-path:url(#SVGID_00000114075417917208157400000001070866648568859562_);}
	.st114{clip-path:url(#SVGID_00000060014739085715921870000008733409717555642803_);}
	.st115{clip-path:url(#SVGID_00000075851656916749316260000005368410856241879950_);}
	.st116{clip-path:url(#SVGID_00000170978591099125842480000006354832078043284885_);}
	.st117{clip-path:url(#SVGID_00000108305548131630697310000006597515192484205197_);}
	.st118{clip-path:url(#SVGID_00000132794616114908785440000013138624712837516711_);}
	.st119{clip-path:url(#SVGID_00000122721223113905655410000006907313552824392348_);}
	.st120{clip-path:url(#SVGID_00000083790281164465607370000010854307228236328119_);}
	.st121{clip-path:url(#SVGID_00000116915109747164003120000017698341474000517008_);}
	.st122{clip-path:url(#SVGID_00000124859519152599114490000011197338783825180826_);}
	.st123{clip-path:url(#SVGID_00000065755564499432546020000002175296649401477562_);}
	.st124{clip-path:url(#SVGID_00000008133293857872058030000010466681347830810000_);}
	.st125{clip-path:url(#SVGID_00000171705387601610084590000009706092941962025399_);}
	.st126{clip-path:url(#SVGID_00000180345413216194407060000010246884719670951329_);}
	.st127{clip-path:url(#SVGID_00000155121735689656673720000001282449897634272653_);}
	.st128{clip-path:url(#SVGID_00000181064037820959800970000005006553231355660184_);}
	.st129{clip-path:url(#SVGID_00000151502764321202776910000009011645586216726969_);}
	.st130{clip-path:url(#SVGID_00000156546629911801492810000008531723339011090348_);}
	.st131{clip-path:url(#SVGID_00000046311173325795887740000005398181225544189842_);}
	.st132{clip-path:url(#SVGID_00000142895883364802167360000003198067970209198212_);}
	.st133{clip-path:url(#SVGID_00000009574965784161738040000011138622086521138304_);}
	.st134{clip-path:url(#SVGID_00000103974683730638177250000016426616253967785363_);}
	.st135{clip-path:url(#SVGID_00000010993043142221850670000000750024759461207213_);}
	.st136{clip-path:url(#SVGID_00000085967827859540282990000003211630179740932755_);}
	.st137{clip-path:url(#SVGID_00000170999706668323463470000018437120684553748131_);}
	.st138{clip-path:url(#SVGID_00000057128657138670451410000004112881224345860002_);}
	.st139{clip-path:url(#SVGID_00000104701261055973619540000003533728196694151556_);}
	.st140{clip-path:url(#SVGID_00000088833398548403450690000011850413233744994726_);}
	.st141{clip-path:url(#SVGID_00000015320000595276027510000010830381405684661393_);}
	.st142{clip-path:url(#SVGID_00000163075198162703719100000018396717340551375764_);}
	.st143{clip-path:url(#SVGID_00000067236365041452902520000009116644055641165983_);}
	.st144{clip-path:url(#SVGID_00000142156897369930914690000008360813725250325662_);}
	.st145{clip-path:url(#SVGID_00000160152109460141387320000018212413130961707393_);}
	.st146{clip-path:url(#SVGID_00000142167584621193501560000011068794048664773030_);}
	.st147{clip-path:url(#SVGID_00000106867847886245473230000014685390714169569410_);}
	.st148{clip-path:url(#SVGID_00000054237276653489682270000003448411962554348697_);}
	.st149{clip-path:url(#SVGID_00000145742142503225490720000017013759858064147627_);}
	.st150{clip-path:url(#SVGID_00000143577179069618470050000006268362378830697347_);}
	.st151{clip-path:url(#SVGID_00000147214152525457445160000003369234762972781203_);}
	.st152{clip-path:url(#SVGID_00000164487068428394305180000000092709850403881649_);}
	.st153{clip-path:url(#SVGID_00000154428055758873325850000012331279894247686037_);}
	.st154{clip-path:url(#SVGID_00000135681320441486501760000000921781185186703543_);}
	.st155{clip-path:url(#SVGID_00000005967492134929296260000009248598471637859465_);}
	.st156{clip-path:url(#SVGID_00000044878953778511222780000005264054221627432838_);}
	.st157{clip-path:url(#SVGID_00000147942511013678357510000005045666002186043023_);}
	.st158{clip-path:url(#SVGID_00000020365843223002344910000000596613169137007000_);}
	.st159{clip-path:url(#SVGID_00000008141536036653331170000014730491583731306126_);}
	.st160{clip-path:url(#SVGID_00000172425698220175520740000015096626451978928827_);}
	.st161{clip-path:url(#SVGID_00000122709941533100709260000002188005022762972588_);}
	.st162{clip-path:url(#SVGID_00000050664359865775823360000012738570841916532662_);}
	.st163{clip-path:url(#SVGID_00000129191931099559813650000002962513693304342440_);}
	.st164{clip-path:url(#SVGID_00000132075727702995521170000002746248139240774033_);}
	.st165{clip-path:url(#SVGID_00000062161406415957711530000018047012562666304936_);}
	.st166{clip-path:url(#SVGID_00000183954015915242268260000013019857309769423789_);}
	.st167{clip-path:url(#SVGID_00000087379027518984968930000007873798486447052477_);}
	.st168{clip-path:url(#SVGID_00000140733477398892309280000011187913741173374086_);}
	.st169{clip-path:url(#SVGID_00000034052092350325456160000001140757201273265040_);}
	.st170{clip-path:url(#SVGID_00000018210316438573089910000011002609869379945112_);}
	.st171{clip-path:url(#SVGID_00000003097421822959097220000004081156705043529661_);}
	.st172{clip-path:url(#SVGID_00000160165233988118548550000005812019651693001355_);}
	.st173{clip-path:url(#SVGID_00000066503073016154666580000002541538314769481638_);}
	.st174{clip-path:url(#SVGID_00000044877080452193675900000009139451886113169550_);}
	.st175{clip-path:url(#SVGID_00000178914074676154939180000011458902445096575665_);}
	.st176{clip-path:url(#SVGID_00000127748735836965912470000000991049628888405414_);}
	.st177{clip-path:url(#SVGID_00000041998597621847747780000002650131962471977401_);}
	.st178{clip-path:url(#SVGID_00000088124596954671097430000013875251326186839989_);}
	.st179{clip-path:url(#SVGID_00000157993111876412913780000018061265144222902925_);}
	.st180{clip-path:url(#SVGID_00000139998233328085034540000011310357653870906763_);}
	.st181{clip-path:url(#SVGID_00000054240925980137624260000016460207905002368393_);}
	.st182{clip-path:url(#SVGID_00000014607954132796933000000014253942238858863778_);}
	.st183{clip-path:url(#SVGID_00000145754967961729214900000018049583132838259117_);}
	.st184{clip-path:url(#SVGID_00000075124514227667844060000000509702156818160520_);}
	.st185{clip-path:url(#SVGID_00000086684440354358691700000016217950138905138364_);}
	.st186{clip-path:url(#SVGID_00000057135199302561036760000014479830795394445218_);}
</style>
<g>
	<g>
		<g>
			<rect x="1.88" y="52.63" class="st0" width="18.46" height="18.94"/>
		</g>
	</g>
	<g>
		<g>
			<path class="st0" d="M20.35,71.7H1.88c-0.07,0-0.13-0.06-0.13-0.13V52.63c0-0.07,0.06-0.13,0.13-0.13h18.46
				c0.07,0,0.13,0.06,0.13,0.13v18.94C20.48,71.65,20.42,71.7,20.35,71.7z M2.01,71.45h18.21V52.76H2.01V71.45z"/>
		</g>
	</g>
	<g>
		<g>
			<g>
				<rect x="0.48" y="52.35" class="st1" width="20.16" height="0.4"/>
			</g>
		</g>
	</g>
	<g>
		<g>
			<path class="st1" d="M16.31,79.3c-0.17,0-0.3-0.13-0.3-0.3v-7.27c0-0.17,0.13-0.3,0.3-0.3s0.3,0.13,0.3,0.3V79
				C16.61,79.16,16.47,79.3,16.31,79.3z M4.58,79.3c-0.17,0-0.3-0.13-0.3-0.3v-7.27c0-0.17,0.13-0.3,0.3-0.3s0.3,0.13,0.3,0.3V79
				C4.88,79.16,4.74,79.3,4.58,79.3z"/>
		</g>
	</g>
	<g>
		<g>
			<path class="st1" d="M18.41,44.78c-0.15,0-0.29-0.1-0.33-0.25l-2.71-9.38c-0.05-0.18,0.05-0.38,0.24-0.43
				c0.19-0.05,0.38,0.05,0.43,0.24l2.71,9.38c0.05,0.18-0.05,0.38-0.24,0.43C18.47,44.77,18.44,44.78,18.41,44.78z"/>
		</g>
	</g>
	<g>
		<g>
			<g>
				<path class="st1" d="M20.51,71.79H0.3c-0.17,0-0.3-0.13-0.3-0.3V35.31c0-5.87,4.76-10.86,10.4-10.9c2.6-0.03,5.13,1.05,7.11,3
					c2.12,2.1,3.35,4.98,3.37,7.9c0,0,0,0,0,0l-0.07,36.17C20.81,71.65,20.68,71.79,20.51,71.79z M0.6,71.19h19.61l0.07-35.87
					c-0.02-2.76-1.18-5.49-3.19-7.47c-1.85-1.83-4.2-2.83-6.62-2.83c-0.02,0-0.04,0-0.06,0c-5.32,0.04-9.81,4.75-9.81,10.3V71.19z"
					/>
			</g>
		</g>
		<g>
			<g>
				<path class="st0" d="M16.15,15.9c-0.66-2.18-2.68-3.76-5.07-3.76s-4.41,1.58-5.07,3.76H16.15z"/>
			</g>
		</g>
		<g>
			<g>
				<path class="st0" d="M16.15,16.02H6.01c-0.04,0-0.08-0.02-0.1-0.05c-0.02-0.03-0.03-0.07-0.02-0.11c0.7-2.3,2.79-3.85,5.19-3.85
					c2.41,0,4.49,1.55,5.19,3.85c0.01,0.04,0,0.08-0.02,0.11C16.22,16,16.19,16.02,16.15,16.02z M6.18,15.77h9.79
					c-0.71-2.11-2.66-3.51-4.9-3.51C8.84,12.26,6.89,13.66,6.18,15.77z"/>
			</g>
		</g>
		<g>
			<g>
				<path class="st1" d="M10.44,23.31c-3.31,0-6.01-2.7-6.01-6.01c0-3.31,2.7-6.01,6.01-6.01c3.31,0,6.01,2.7,6.01,6.01
					C16.45,20.61,13.75,23.31,10.44,23.31z M10.44,11.89c-2.98,0-5.41,2.43-5.41,5.41c0,2.98,2.43,5.41,5.41,5.41
					c2.98,0,5.41-2.43,5.41-5.41C15.85,14.32,13.42,11.89,10.44,11.89z"/>
			</g>
		</g>
	</g>
	<g>
		<g>
			<rect x="5.03" y="15.7" class="st1" width="10.81" height="0.4"/>
		</g>
	</g>
	<g>
		<g>
			<g>
				<path class="st1" d="M8.68,18.45c0,0.17-0.14,0.3-0.3,0.3c-0.17,0-0.3-0.14-0.3-0.3c0-0.17,0.14-0.3,0.3-0.3
					C8.55,18.15,8.68,18.28,8.68,18.45"/>
			</g>
		</g>
		<g>
			<g>
				<path class="st1" d="M12.8,18.45c0,0.17-0.14,0.3-0.3,0.3c-0.17,0-0.3-0.14-0.3-0.3c0-0.17,0.14-0.3,0.3-0.3
					C12.67,18.15,12.8,18.28,12.8,18.45"/>
			</g>
		</g>
	</g>
	<g>
		<g>
			<path class="st1" d="M51,72.16c-0.11,0-0.2-0.09-0.2-0.2V55.92c0-0.11,0.09-0.2,0.2-0.2s0.2,0.09,0.2,0.2v16.04
				C51.2,72.07,51.11,72.16,51,72.16z"/>
		</g>
	</g>
	<g>
		<g>
			<g>
				<path class="st2" d="M22.09,48.05c0,2.03,1.65,3.68,3.68,3.68s3.68-1.65,3.68-3.68c0-2.03-1.65-3.68-3.68-3.68
					S22.09,46.01,22.09,48.05"/>
			</g>
		</g>
		<g>
			<g>
				<path class="st1" d="M25.77,52.03c-2.19,0-3.98-1.78-3.98-3.98c0-2.19,1.78-3.98,3.98-3.98c2.19,0,3.98,1.78,3.98,3.98
					C29.75,50.24,27.96,52.03,25.77,52.03z M25.77,44.67c-1.86,0-3.38,1.52-3.38,3.38c0,1.86,1.52,3.38,3.38,3.38
					c1.86,0,3.38-1.52,3.38-3.38C29.15,46.18,27.63,44.67,25.77,44.67z"/>
			</g>
		</g>
		<g>
			<g>
				<path class="st2" d="M18.43,61.74c0-4.07,3.33-7.69,7.38-7.69s7.33,3.62,7.33,7.69V79.3H18.48L18.43,61.74z"/>
			</g>
		</g>
		<g>
			<g>
				<path class="st1" d="M33.13,79.6H18.48c-0.17,0-0.3-0.13-0.3-0.3l-0.05-17.56c0,0,0,0,0,0c0-4.33,3.52-7.99,7.68-7.99
					c4.14,0,7.63,3.66,7.63,7.99V79.3C33.43,79.46,33.3,79.6,33.13,79.6z M18.77,79h14.06V61.74c0-4-3.22-7.39-7.03-7.39
					c-3.84,0-7.08,3.38-7.08,7.39L18.77,79z"/>
			</g>
		</g>
	</g>
	<g>
		<g>
			<rect x="18.77" y="72.11" class="st0" width="13.48" height="7.25"/>
		</g>
	</g>
	<g>
		<g>
			<path class="st0" d="M32.26,79.49H18.77c-0.07,0-0.13-0.06-0.13-0.13v-7.25c0-0.07,0.06-0.13,0.13-0.13h13.48
				c0.07,0,0.13,0.06,0.13,0.13v7.25C32.38,79.43,32.33,79.49,32.26,79.49z M18.9,79.24h13.23v-7H18.9V79.24z"/>
		</g>
	</g>
	<g>
		<g>
			<g>
				<path class="st0" d="M22.34,46.94c0.39-1.35,1.59-2.34,3-2.34c1.41,0,2.61,0.98,3,2.34H22.34z"/>
			</g>
		</g>
		<g>
			<g>
				<path class="st0" d="M28.34,47.07h-6c-0.04,0-0.08-0.02-0.1-0.05c-0.02-0.03-0.03-0.07-0.02-0.11c0.42-1.45,1.67-2.43,3.12-2.43
					s2.7,0.98,3.12,2.43c0.01,0.04,0,0.08-0.02,0.11C28.42,47.05,28.38,47.07,28.34,47.07z M22.52,46.82h5.66
					c-0.43-1.25-1.55-2.08-2.83-2.08S22.95,45.56,22.52,46.82z"/>
			</g>
		</g>
	</g>
	<g>
		<g>
			<path class="st1" d="M32.88,71.96H18.26v-0.4h14.62V71.96z M29.44,47.1H22.1v-0.4h7.34V47.1z"/>
		</g>
	</g>
	<g>
		<g>
			<g>
				<path class="st1" d="M28.06,48.42c0,0.11,0.09,0.19,0.19,0.19c0.1,0,0.19-0.08,0.19-0.19c0-0.11-0.09-0.19-0.19-0.19
					C28.14,48.23,28.06,48.31,28.06,48.42"/>
			</g>
		</g>
		<g>
			<g>
				<path class="st1" d="M25.46,48.42c0,0.11,0.09,0.19,0.19,0.19c0.11,0,0.19-0.08,0.19-0.19c0-0.11-0.09-0.19-0.19-0.19
					C25.55,48.23,25.46,48.31,25.46,48.42"/>
			</g>
		</g>
		<g>
			<g>
				<path class="st1" d="M29.69,87.08c-0.17,0-0.3-0.13-0.3-0.3v-7.25c0-0.17,0.13-0.3,0.3-0.3s0.3,0.13,0.3,0.3v7.25
					C29.99,86.95,29.85,87.08,29.69,87.08z M21.92,87.08c-0.17,0-0.3-0.13-0.3-0.3v-7.25c0-0.17,0.13-0.3,0.3-0.3s0.3,0.13,0.3,0.3
					v7.25C22.22,86.95,22.09,87.08,21.92,87.08z M22.11,67.96c-0.17,0-0.3-0.13-0.3-0.3v-7.25c0-0.17,0.13-0.3,0.3-0.3
					s0.3,0.13,0.3,0.3v7.25C22.41,67.83,22.28,67.96,22.11,67.96z"/>
			</g>
		</g>
	</g>
	<g>
		<g>
			<path class="st1" d="M25.93,79.5c-0.11,0-0.2-0.09-0.2-0.2v-5.5c0-0.11,0.09-0.2,0.2-0.2s0.2,0.09,0.2,0.2v5.5
				C26.13,79.41,26.04,79.5,25.93,79.5z"/>
		</g>
	</g>
	<g>
		<g>
			<g>
				<path class="st1" d="M33.13,79.6H18.48c-0.17,0-0.3-0.13-0.3-0.3l-0.05-17.55c0,0,0,0,0,0c0-4.33,3.52-7.99,7.68-7.99
					c4.14,0,7.63,3.66,7.63,7.99V79.3C33.43,79.46,33.3,79.6,33.13,79.6z M18.77,79h14.06V61.75c0-4-3.22-7.39-7.03-7.39
					c-3.84,0-7.08,3.38-7.08,7.39L18.77,79z M25.77,52.01c-2.19,0-3.97-1.78-3.97-3.97s1.78-3.97,3.97-3.97s3.97,1.78,3.97,3.97
					S27.96,52.01,25.77,52.01z M25.77,44.67c-1.86,0-3.37,1.51-3.37,3.37s1.51,3.37,3.37,3.37c1.86,0,3.37-1.51,3.37-3.37
					S27.63,44.67,25.77,44.67z"/>
			</g>
		</g>
		<g>
			<g>
				<path class="st2" d="M39.04,61.74c0-4.07,3.33-7.69,7.38-7.69s7.33,3.62,7.33,7.69V79.3H39.09L39.04,61.74z"/>
			</g>
		</g>
		<g>
			<g>
				<path class="st1" d="M53.75,79.6H39.09c-0.17,0-0.3-0.13-0.3-0.3l-0.05-17.56c0,0,0,0,0,0c0-4.33,3.52-7.99,7.68-7.99
					c4.14,0,7.63,3.66,7.63,7.99V79.3C54.05,79.46,53.91,79.6,53.75,79.6z M39.39,79h14.06V61.74c0-4-3.22-7.39-7.03-7.39
					c-3.84,0-7.08,3.38-7.08,7.39L39.39,79z"/>
			</g>
		</g>
		<g>
			<g>
				<path class="st2" d="M38.42,50.8c0.42,1.99,2.38,3.26,4.36,2.83c1.99-0.42,3.26-2.38,2.83-4.36c-0.42-1.99-2.38-3.26-4.36-2.83
					C39.27,46.86,38,48.81,38.42,50.8"/>
			</g>
		</g>
		<g>
			<g>
				<path class="st1" d="M42.02,54.02c-1.84,0-3.49-1.28-3.89-3.15l0,0c-0.46-2.15,0.92-4.26,3.06-4.72
					c2.14-0.46,4.26,0.92,4.72,3.06c0.46,2.15-0.92,4.26-3.06,4.72C42.57,53.99,42.29,54.02,42.02,54.02z M38.72,50.74
					c0.39,1.82,2.19,2.99,4.01,2.6c1.82-0.39,2.99-2.19,2.6-4.01c-0.39-1.82-2.18-2.99-4.01-2.6C39.5,47.12,38.33,48.92,38.72,50.74
					L38.72,50.74z"/>
			</g>
		</g>
	</g>
	<g>
		<g>
			<rect x="39.15" y="72.11" class="st0" width="13.48" height="7.25"/>
		</g>
	</g>
	<g>
		<g>
			<path class="st0" d="M52.63,79.49H39.15c-0.07,0-0.13-0.06-0.13-0.13v-7.25c0-0.07,0.06-0.13,0.13-0.13h13.48
				c0.07,0,0.13,0.06,0.13,0.13v7.25C52.76,79.43,52.7,79.49,52.63,79.49z M39.27,79.24H52.5v-7H39.27V79.24z"/>
		</g>
	</g>
	<g>
		<g>
			<path class="st1" d="M47.16,52.85c-0.06,0-0.11-0.02-0.16-0.05l-1.72-1.13c-0.14-0.09-0.18-0.28-0.09-0.42
				c0.09-0.14,0.28-0.18,0.42-0.09l1.72,1.13c0.14,0.09,0.18,0.28,0.09,0.42C47.35,52.8,47.26,52.85,47.16,52.85z"/>
		</g>
	</g>
	<g>
		<g>
			<path class="st1" d="M38.36,54.71c-0.06,0-0.11-0.02-0.16-0.05c-0.14-0.09-0.18-0.28-0.09-0.42l1.13-1.72
				c0.09-0.14,0.28-0.18,0.42-0.09c0.14,0.09,0.18,0.28,0.09,0.42l-1.13,1.72C38.56,54.66,38.46,54.71,38.36,54.71z"/>
		</g>
	</g>
	<g>
		<g>
			<rect x="39.15" y="71.92" class="st1" width="14.62" height="0.4"/>
		</g>
	</g>
	<g>
		<g>
			<g>
				<path class="st0" d="M38.44,49.67c0.1-1.4,1.07-2.61,2.45-2.91c1.38-0.29,2.76,0.42,3.42,1.66L38.44,49.67z"/>
			</g>
		</g>
		<g>
			<g>
				<path class="st0" d="M38.44,49.79c-0.03,0-0.06-0.01-0.08-0.03c-0.03-0.03-0.05-0.06-0.04-0.1c0.11-1.51,1.13-2.72,2.55-3.02
					c1.42-0.3,2.84,0.39,3.56,1.72c0.02,0.04,0.02,0.08,0,0.11c-0.02,0.04-0.05,0.06-0.09,0.07l-5.87,1.25
					C38.46,49.79,38.45,49.79,38.44,49.79z M41.52,46.82c-0.2,0-0.4,0.02-0.61,0.06c-1.25,0.27-2.17,1.31-2.33,2.63l5.53-1.18
					C43.54,47.38,42.56,46.82,41.52,46.82z"/>
			</g>
		</g>
	</g>
	<g>
		<g>
			
				<rect x="38.11" y="48.72" transform="matrix(0.9778 -0.2097 0.2097 0.9778 -9.3289 9.8495)" class="st1" width="7.34" height="0.4"/>
		</g>
	</g>
	<g>
		<g>
			<g>
				<path class="st1" d="M42.05,50.41c0.02,0.1,0.12,0.17,0.23,0.15c0.1-0.02,0.17-0.12,0.15-0.23c-0.02-0.1-0.12-0.17-0.23-0.15
					C42.09,50.2,42.02,50.31,42.05,50.41"/>
			</g>
		</g>
		<g>
			<g>
				<path class="st1" d="M39.51,50.95c0.02,0.1,0.12,0.17,0.23,0.15c0.1-0.02,0.17-0.12,0.15-0.23c-0.02-0.1-0.12-0.17-0.23-0.15
					C39.55,50.74,39.48,50.85,39.51,50.95"/>
			</g>
		</g>
		<g>
			<g>
				<path class="st1" d="M50.3,87.08c-0.17,0-0.3-0.13-0.3-0.3v-7.27c0-0.17,0.13-0.3,0.3-0.3s0.3,0.13,0.3,0.3v7.27
					C50.6,86.95,50.47,87.08,50.3,87.08z M42.54,87.08c-0.17,0-0.3-0.13-0.3-0.3v-7.27c0-0.17,0.13-0.3,0.3-0.3s0.3,0.13,0.3,0.3
					v7.27C42.83,86.95,42.7,87.08,42.54,87.08z"/>
			</g>
		</g>
		<g>
			<g>
				<path class="st1" d="M42.02,54.02c-1.84,0-3.49-1.28-3.89-3.15l0,0c-0.46-2.15,0.92-4.26,3.06-4.72
					c2.14-0.46,4.26,0.92,4.72,3.06c0.46,2.15-0.92,4.26-3.06,4.72C42.57,53.99,42.29,54.02,42.02,54.02z M38.72,50.74
					c0.39,1.82,2.19,2.99,4.01,2.6c1.82-0.39,2.99-2.19,2.6-4.01c-0.39-1.82-2.18-2.99-4.01-2.6C39.5,47.12,38.33,48.92,38.72,50.74
					L38.72,50.74z"/>
			</g>
		</g>
	</g>
	<g>
		<g>
			<path class="st1" d="M50.18,67.98c-0.17,0-0.3-0.13-0.3-0.3v-7.27c0-0.17,0.13-0.3,0.3-0.3s0.3,0.13,0.3,0.3v7.27
				C50.48,67.84,50.35,67.98,50.18,67.98z M42.85,67.98c-0.17,0-0.3-0.13-0.3-0.3v-7.27c0-0.17,0.13-0.3,0.3-0.3s0.3,0.13,0.3,0.3
				v7.27C43.15,67.84,43.01,67.98,42.85,67.98z"/>
		</g>
	</g>
	<g>
		<g>
			<g>
				<path class="st1" d="M40.4,52.56c-0.04,0-0.08-0.01-0.12-0.04c-0.09-0.07-0.11-0.19-0.04-0.28c0.2-0.27,0.49-0.46,0.81-0.53
					c0.32-0.07,0.66-0.02,0.96,0.15c0.1,0.05,0.13,0.18,0.08,0.27c-0.05,0.1-0.18,0.13-0.27,0.08c-0.21-0.12-0.45-0.16-0.68-0.11
					c-0.23,0.05-0.43,0.18-0.58,0.38C40.52,52.53,40.46,52.56,40.4,52.56z"/>
			</g>
		</g>
		<g>
			<g>
				<path class="st1" d="M53.75,79.6H39.09c-0.17,0-0.3-0.13-0.3-0.3l-0.05-17.56c0,0,0,0,0,0c0-4.33,3.52-7.99,7.68-7.99
					c4.14,0,7.63,3.66,7.63,7.99V79.3C54.05,79.46,53.91,79.6,53.75,79.6z M39.39,79h14.06V61.74c0-4-3.22-7.39-7.03-7.39
					c-3.84,0-7.08,3.38-7.08,7.39L39.39,79z"/>
			</g>
		</g>
		<g>
			<g>
				<path class="st0" d="M42.18,51.08c0.02,0.1,0.12,0.17,0.23,0.15c0.1-0.02,0.17-0.12,0.15-0.23c-0.02-0.1-0.12-0.17-0.23-0.15
					C42.22,50.87,42.15,50.97,42.18,51.08"/>
			</g>
		</g>
		<g>
			<g>
				<path class="st0" d="M39.64,51.61c0.02,0.1,0.12,0.17,0.23,0.15c0.1-0.02,0.17-0.12,0.15-0.23c-0.02-0.1-0.12-0.17-0.23-0.15
					C39.68,51.41,39.61,51.51,39.64,51.61"/>
			</g>
		</g>
		<g>
			<g>
				<path class="st0" d="M42.36,51.93c0.02,0.1,0.12,0.17,0.23,0.15c0.1-0.02,0.17-0.12,0.15-0.23c-0.02-0.1-0.12-0.17-0.23-0.15
					C42.4,51.73,42.34,51.83,42.36,51.93"/>
			</g>
		</g>
		<g>
			<g>
				<path class="st0" d="M39.82,52.47c0.02,0.1,0.12,0.17,0.23,0.15c0.1-0.02,0.17-0.12,0.15-0.23c-0.02-0.1-0.12-0.17-0.23-0.15
					C39.86,52.27,39.8,52.37,39.82,52.47"/>
			</g>
		</g>
		<g>
			<g>
				<path class="st0" d="M42.54,52.79c0.02,0.1,0.12,0.17,0.23,0.15c0.1-0.02,0.17-0.12,0.15-0.23c-0.02-0.1-0.12-0.17-0.23-0.15
					C42.59,52.59,42.52,52.69,42.54,52.79"/>
			</g>
		</g>
		<g>
			<g>
				<path class="st0" d="M40,53.33c0.02,0.1,0.12,0.17,0.23,0.15c0.1-0.02,0.17-0.12,0.15-0.23c-0.02-0.1-0.12-0.17-0.23-0.15
					C40.05,53.13,39.98,53.23,40,53.33"/>
			</g>
		</g>
		<g>
			<g>
				<path class="st0" d="M42.78,53.94c0.02,0.1,0.12,0.17,0.23,0.15c0.1-0.02,0.17-0.12,0.15-0.23c-0.02-0.1-0.12-0.17-0.23-0.15
					C42.83,53.73,42.76,53.84,42.78,53.94"/>
			</g>
		</g>
		<g>
			<g>
				<path class="st0" d="M40.24,54.48c0.02,0.1,0.12,0.17,0.23,0.15c0.1-0.02,0.17-0.12,0.15-0.23c-0.02-0.1-0.12-0.17-0.23-0.15
					C40.29,54.27,40.22,54.38,40.24,54.48"/>
			</g>
		</g>
	</g>
	<g>
		<g>
			<path class="st1" d="M32.5,57.98c-0.1,0-0.2-0.05-0.25-0.14c-0.09-0.14-0.05-0.33,0.1-0.41l6.17-3.86
				c0.14-0.09,0.33-0.04,0.41,0.1c0.09,0.14,0.05,0.33-0.1,0.41l-6.17,3.86C32.61,57.97,32.56,57.98,32.5,57.98z"/>
		</g>
	</g>
	<g>
		<g>
			<path class="st1" d="M8.67,45.36c-0.15,0-0.29-0.1-0.33-0.25l-2.71-9.38c-0.05-0.18,0.05-0.38,0.24-0.43
				c0.19-0.05,0.38,0.05,0.43,0.24l2.71,9.38c0.05,0.18-0.05,0.38-0.24,0.43C8.74,45.36,8.7,45.36,8.67,45.36z"/>
		</g>
	</g>
	<g>
		<g>
			<polygon class="st83" points="20.81,0.21 20.81,7.86 20.81,10.89 18.9,17.45 25.6,14.33 34.94,14.33 34.94,0.21 			"/>
		</g>
		<g>
			<path class="st0" d="M34.87,0.51H21.49c-0.05,0-0.09,0.04-0.09,0.09v10.68l-1.91,6.55c-0.01,0.04,0,0.07,0.03,0.1
				c0.02,0.02,0.04,0.02,0.06,0.02c0.01,0,0.03,0,0.04-0.01l6.68-3.11h8.57c0.05,0,0.09-0.04,0.09-0.09V0.6
				C34.97,0.55,34.92,0.51,34.87,0.51z M27.21,3.42c0-0.35,0.29-0.64,0.64-0.64c0.35,0,0.64,0.29,0.64,0.64v5.74
				c0,0.35-0.29,0.64-0.64,0.64c-0.35,0-0.64-0.29-0.64-0.64V3.42z M27.85,12.28c-0.48,0-0.86-0.39-0.86-0.86
				c0-0.48,0.39-0.86,0.86-0.86c0.48,0,0.86,0.39,0.86,0.86C28.71,11.89,28.32,12.28,27.85,12.28z"/>
		</g>
		<g>
			<g>
				<g>
					<path class="st1" d="M27.93,12.13c-0.59,0-1.06-0.48-1.06-1.06c0-0.59,0.48-1.06,1.06-1.06c0.59,0,1.06,0.48,1.06,1.06
						C28.99,11.65,28.51,12.13,27.93,12.13z M27.93,10.4c-0.36,0-0.66,0.3-0.66,0.66c0,0.37,0.3,0.66,0.66,0.66
						c0.37,0,0.66-0.3,0.66-0.66C28.59,10.7,28.29,10.4,27.93,10.4z"/>
				</g>
				<g>
					<path class="st1" d="M27.93,9.65c-0.46,0-0.84-0.38-0.84-0.84V3.07c0-0.46,0.38-0.84,0.84-0.84c0.46,0,0.84,0.38,0.84,0.84
						v5.74C28.77,9.27,28.39,9.65,27.93,9.65z M27.93,2.63c-0.24,0-0.44,0.2-0.44,0.44v5.74c0,0.24,0.2,0.44,0.44,0.44
						c0.24,0,0.44-0.2,0.44-0.44V3.07C28.37,2.83,28.17,2.63,27.93,2.63z"/>
				</g>
			</g>
			<g>
				<path class="st1" d="M18.9,17.66c-0.05,0-0.09-0.02-0.13-0.05c-0.06-0.05-0.08-0.13-0.06-0.21l1.9-6.54V0.2
					c0-0.11,0.09-0.2,0.2-0.2h14.14c0.11,0,0.2,0.09,0.2,0.2v14.14c0,0.11-0.09,0.2-0.2,0.2h-9.3l-6.66,3.1
					C18.96,17.65,18.93,17.66,18.9,17.66z M21.01,0.4v10.49c0,0.02,0,0.04-0.01,0.06l-1.79,6.14l6.3-2.94
					c0.03-0.01,0.06-0.02,0.08-0.02h9.14V0.4H21.01z"/>
			</g>
		</g>
	</g>
</g>
</svg>
