<?xml version="1.0" encoding="utf-8"?>
<!-- Generator: Adobe Illustrator 26.0.2, SVG Export Plug-In . SVG Version: 6.00 Build 0)  -->
<svg version="1.1" id="Ebene_1" xmlns="http://www.w3.org/2000/svg" xmlns:xlink="http://www.w3.org/1999/xlink" x="0px" y="0px"
	 viewBox="0 0 61.15 54" style="enable-background:new 0 0 61.15 54;" xml:space="preserve">
<style type="text/css">
	.st0{fill:#E59C00;}
	.st1{fill:#2B2961;}
	.st2{fill:#FFFFFF;}
	.st3{clip-path:url(#SVGID_00000111157568551013574320000011504126763611637905_);}
	.st4{clip-path:url(#SVGID_00000131329763183251172810000000218764220239132826_);}
	.st5{clip-path:url(#SVGID_00000055689595268895000030000000172186929641509042_);}
	.st6{clip-path:url(#SVGID_00000029042600601177108330000009255387949939177885_);}
	.st7{clip-path:url(#SVGID_00000087385619780040429220000015481516631144351670_);}
	.st8{clip-path:url(#SVGID_00000024688425158037435790000002152243611736961670_);}
	.st9{clip-path:url(#SVGID_00000054946160630306431130000001080651676864621711_);}
	.st10{clip-path:url(#SVGID_00000071552632747902478480000004180172016816365468_);}
	.st11{clip-path:url(#SVGID_00000162349439815524752570000015638879918711236517_);}
	.st12{clip-path:url(#SVGID_00000087383346715192854760000003807124896475022990_);}
	.st13{clip-path:url(#SVGID_00000161625831491430415780000008561389159147769475_);}
	.st14{clip-path:url(#SVGID_00000152968441891883567460000013948530335490784144_);}
	.st15{clip-path:url(#SVGID_00000150788832278539061230000011647455263813672328_);}
	.st16{clip-path:url(#SVGID_00000009582814483187285180000005899193576710228624_);}
	.st17{clip-path:url(#SVGID_00000128461553363050146940000011653730394972920234_);}
	.st18{clip-path:url(#SVGID_00000115494806137553768220000013023585021869536658_);}
	.st19{clip-path:url(#SVGID_00000140724147337731283300000010351308290541698741_);}
	.st20{clip-path:url(#SVGID_00000056409539496904033520000013761522309354369186_);}
	.st21{clip-path:url(#SVGID_00000167366527843884241640000010698757528709066122_);}
	.st22{clip-path:url(#SVGID_00000139980577765905895090000003034282824178432172_);}
	.st23{clip-path:url(#SVGID_00000049218569098301562040000009217898334598821268_);}
	.st24{clip-path:url(#SVGID_00000139286718932538614270000004139635452263820179_);}
	.st25{clip-path:url(#SVGID_00000093170540930948594210000018315951075449542808_);}
	.st26{clip-path:url(#SVGID_00000034791465162548800770000003603820017956009633_);}
	.st27{clip-path:url(#SVGID_00000078008573979908423290000000634708646094127281_);}
	.st28{clip-path:url(#SVGID_00000114753070236894493100000001718947975224589740_);}
	.st29{clip-path:url(#SVGID_00000078729088812736306010000002177532194914534786_);}
	.st30{clip-path:url(#SVGID_00000103233600021375248430000012919334962999841698_);}
	.st31{clip-path:url(#SVGID_00000083088006261666955850000017037883319841925030_);}
	.st32{clip-path:url(#SVGID_00000016762806987751103420000011238178086382719910_);}
	.st33{clip-path:url(#SVGID_00000079461146246417526660000014635763780289257090_);}
	.st34{clip-path:url(#SVGID_00000139253293815287258160000001149591139043046039_);}
	.st35{clip-path:url(#SVGID_00000003080303222021222310000002274443016580853407_);}
	.st36{clip-path:url(#SVGID_00000094602320438362074840000005277569092289802166_);}
	.st37{clip-path:url(#SVGID_00000093882572636653511060000007286398232499193017_);}
	.st38{clip-path:url(#SVGID_00000005252730841211784690000004587885885859589009_);}
	.st39{clip-path:url(#SVGID_00000003796341600687725130000003832174026942206108_);}
	.st40{clip-path:url(#SVGID_00000126281669270053745020000010996966572613503677_);}
	.st41{clip-path:url(#SVGID_00000049925109773470616730000003099847844854740120_);}
	.st42{clip-path:url(#SVGID_00000085233210983582992710000000222172004164496532_);}
	.st43{clip-path:url(#SVGID_00000150099472321390607200000003997524521173607856_);}
	.st44{clip-path:url(#SVGID_00000176041538452038245420000000806958241807559058_);}
	.st45{clip-path:url(#SVGID_00000114055315970244450870000017737741396138107315_);}
	.st46{clip-path:url(#SVGID_00000060748687001820899680000001821284968649169302_);}
	.st47{clip-path:url(#SVGID_00000026151114462258671310000003437278103345769632_);}
	.st48{clip-path:url(#SVGID_00000040561985791105769810000000173645974945056925_);}
	.st49{clip-path:url(#SVGID_00000155849245676438289830000012688439477256534707_);}
	.st50{clip-path:url(#SVGID_00000088826597608841295230000010812832117607282111_);}
	.st51{clip-path:url(#SVGID_00000073711700278500361250000017467468312868200638_);}
	.st52{clip-path:url(#SVGID_00000155105692689869170500000014216737892274512562_);}
	.st53{clip-path:url(#SVGID_00000080206812826252792430000002442177126865670786_);}
	.st54{clip-path:url(#SVGID_00000151503533338084240690000008210940267364320911_);}
	.st55{clip-path:url(#SVGID_00000033332427442020871460000011006475853925625768_);}
	.st56{clip-path:url(#SVGID_00000095319898017022711710000003352794245227698108_);}
	.st57{clip-path:url(#SVGID_00000010280588668159567630000002757212758308768137_);}
	.st58{clip-path:url(#SVGID_00000098220610353450338600000008949774631182008488_);}
	.st59{clip-path:url(#SVGID_00000048488186206982452360000010877638577646537389_);}
	.st60{clip-path:url(#SVGID_00000116236809526594430170000016784920065728859015_);}
	.st61{clip-path:url(#SVGID_00000124852415173037411800000007941761293556203689_);}
	.st62{clip-path:url(#SVGID_00000150088668605216838900000002463788717522374562_);}
	.st63{clip-path:url(#SVGID_00000145750128148792339680000004699807618053137292_);}
	.st64{clip-path:url(#SVGID_00000045589249260581949990000000650859228771415705_);}
	.st65{clip-path:url(#SVGID_00000013185543134743773320000012992491265660188599_);}
	.st66{clip-path:url(#SVGID_00000124142762644083179370000004546959921828527787_);}
	.st67{clip-path:url(#SVGID_00000003783983188426352150000007011497357156347570_);}
	.st68{clip-path:url(#SVGID_00000032616817935058782060000016111866010950490763_);}
	.st69{clip-path:url(#SVGID_00000117665281889129439170000000040378411090149038_);}
	.st70{clip-path:url(#SVGID_00000176005889423621249200000006753795626521779841_);}
	.st71{clip-path:url(#SVGID_00000124866804207559981540000011158295674778568592_);}
	.st72{clip-path:url(#SVGID_00000162323674185684522690000003909295587259759035_);}
	.st73{clip-path:url(#SVGID_00000003092588832735205120000008683270764379303075_);}
	.st74{clip-path:url(#SVGID_00000147903083120785781540000011667324973063934390_);}
	.st75{clip-path:url(#SVGID_00000048497844330183003740000002165920470512973503_);}
	.st76{clip-path:url(#SVGID_00000161592310816955635750000011581658569001520572_);}
	.st77{clip-path:url(#SVGID_00000139994234249962761950000007833900497337926563_);}
	.st78{clip-path:url(#SVGID_00000077285877166056201710000002965775616725546175_);}
	.st79{clip-path:url(#SVGID_00000137113559967307027120000012515773637948295852_);}
	.st80{clip-path:url(#SVGID_00000052096075623737077580000008986725607906021547_);}
	.st81{clip-path:url(#SVGID_00000183239551902792684460000018424885630539421068_);}
	.st82{clip-path:url(#SVGID_00000016056951084228796620000010878851244844916900_);}
	.st83{fill:none;}
	.st84{clip-path:url(#SVGID_00000179619987282139966000000010351914615443136395_);}
	.st85{clip-path:url(#SVGID_00000100371051866613092390000013307629361705282967_);}
	.st86{clip-path:url(#SVGID_00000033338823079460243990000001525401750280525725_);}
	.st87{clip-path:url(#SVGID_00000031903121525555117430000007423022904969985961_);}
	.st88{clip-path:url(#SVGID_00000056401050555712177880000009775186724474530191_);}
	.st89{clip-path:url(#SVGID_00000166656262065516673550000016332485170271308948_);}
	.st90{clip-path:url(#SVGID_00000155860609768586506750000005192594132372797118_);}
	.st91{clip-path:url(#SVGID_00000080885693129480405240000003530343054351674020_);}
	.st92{clip-path:url(#SVGID_00000050663172771901905150000003359411405417441471_);}
	.st93{clip-path:url(#SVGID_00000181087234650598846200000005061715193659225260_);}
	.st94{clip-path:url(#SVGID_00000148640851197200036980000002280624243614443675_);}
	.st95{clip-path:url(#SVGID_00000106146666723362190660000010596219424791297433_);}
	.st96{clip-path:url(#SVGID_00000036963025752868624530000007906039809088540595_);}
	.st97{clip-path:url(#SVGID_00000153703029135103278070000017593724001051270036_);}
	.st98{clip-path:url(#SVGID_00000039110630842007176180000015148703147275069859_);}
	.st99{clip-path:url(#SVGID_00000146483227731544650160000013532991491403735982_);}
	.st100{clip-path:url(#SVGID_00000171697815847428108710000006503984016755255218_);}
	.st101{clip-path:url(#SVGID_00000139981090292382797330000005484943524809847174_);}
	.st102{clip-path:url(#SVGID_00000129194434627872921460000016370749044021826179_);}
	.st103{clip-path:url(#SVGID_00000072242361048884886760000012867836046317686925_);}
	.st104{clip-path:url(#SVGID_00000003085731393995569390000008242668179467058339_);}
	.st105{clip-path:url(#SVGID_00000066493357667604645650000008841970061176830135_);}
	.st106{clip-path:url(#SVGID_00000031193364892007781550000014562785815432837289_);}
	.st107{clip-path:url(#SVGID_00000044179859687336008350000012622306193586757263_);}
	.st108{clip-path:url(#SVGID_00000120560687739770546810000015908490463272135852_);}
	.st109{clip-path:url(#SVGID_00000072281190452179598340000010111538126622215330_);}
	.st110{clip-path:url(#SVGID_00000174570670185807806220000012933451775851425945_);}
	.st111{clip-path:url(#SVGID_00000168809594157654789180000003633023585867248021_);}
	.st112{clip-path:url(#SVGID_00000086649462120745750250000006141024776458848902_);}
	.st113{clip-path:url(#SVGID_00000006700699132811381620000017222428792664578479_);}
	.st114{clip-path:url(#SVGID_00000057114124313059708890000003288669846644355243_);}
	.st115{clip-path:url(#SVGID_00000088849580299336359200000002772671721391687555_);}
	.st116{clip-path:url(#SVGID_00000183230593979913005540000010037293092399850399_);}
	.st117{clip-path:url(#SVGID_00000138560332487496637160000013559425736198157459_);}
	.st118{clip-path:url(#SVGID_00000106841506281708979730000003644830091074606242_);}
	.st119{clip-path:url(#SVGID_00000098909743729819363480000016624396081021412769_);}
	.st120{clip-path:url(#SVGID_00000028318889535881020790000000705549196023558793_);}
	.st121{clip-path:url(#SVGID_00000046330046285918377910000010189465114925882794_);}
	.st122{clip-path:url(#SVGID_00000033330421540339516070000000358138468380027014_);}
	.st123{clip-path:url(#SVGID_00000110467972542621969580000013166873561584762768_);}
	.st124{clip-path:url(#SVGID_00000178905396388909204000000004255725221440351160_);}
	.st125{clip-path:url(#SVGID_00000067224469432977755910000015874869855667507632_);}
	.st126{clip-path:url(#SVGID_00000154415975856753223230000002949637411579365814_);}
	.st127{clip-path:url(#SVGID_00000005964441727394119380000003777845857162055575_);}
	.st128{clip-path:url(#SVGID_00000168076290886424245790000000050457919342677382_);}
	.st129{clip-path:url(#SVGID_00000011029628148092591070000010523125782530959242_);}
	.st130{clip-path:url(#SVGID_00000161598929207022876690000008255565237788279438_);}
	.st131{clip-path:url(#SVGID_00000176731477884884470900000005243622667950335670_);}
	.st132{clip-path:url(#SVGID_00000027571920848541845280000012851242564843749265_);}
	.st133{clip-path:url(#SVGID_00000080179593320424352220000014349430871338237581_);}
	.st134{clip-path:url(#SVGID_00000139251411374010888860000015721180926871433657_);}
	.st135{clip-path:url(#SVGID_00000014618047793669631200000010415253260364246933_);}
	.st136{clip-path:url(#SVGID_00000122688021385831989120000017433200828872424613_);}
	.st137{clip-path:url(#SVGID_00000113330671234433228940000012284835419570861210_);}
	.st138{clip-path:url(#SVGID_00000060720360866379026810000001432677235444631707_);}
	.st139{clip-path:url(#SVGID_00000080205920170482641080000014725562488719864490_);}
	.st140{clip-path:url(#SVGID_00000136385610676766875130000008109305929938214838_);}
	.st141{clip-path:url(#SVGID_00000082344456086761573740000011033715687530124938_);}
	.st142{clip-path:url(#SVGID_00000036946787429579262480000016939843179203085459_);}
	.st143{clip-path:url(#SVGID_00000133518208015825174590000005063683822003405228_);}
	.st144{clip-path:url(#SVGID_00000004541313781359858330000003795398027261786516_);}
	.st145{clip-path:url(#SVGID_00000081650103376542403920000013855387398134372759_);}
	.st146{clip-path:url(#SVGID_00000163777853651344736980000014503397688790501310_);}
	.st147{clip-path:url(#SVGID_00000175323539547103959700000006554448579932493708_);}
	.st148{clip-path:url(#SVGID_00000090999928764563431520000009835927390957535372_);}
	.st149{clip-path:url(#SVGID_00000043444249317252214040000006501938413590310028_);}
	.st150{clip-path:url(#SVGID_00000167370809251487952970000000032686014529817494_);}
	.st151{clip-path:url(#SVGID_00000040542954073829613850000003975715195896190604_);}
	.st152{clip-path:url(#SVGID_00000005254635398050835500000005868532355864898444_);}
	.st153{clip-path:url(#SVGID_00000125582442071532506670000014153246395007696781_);}
	.st154{clip-path:url(#SVGID_00000043455007909179692720000013661420912658595465_);}
	.st155{clip-path:url(#SVGID_00000023280916800857070110000011241120798170372748_);}
	.st156{clip-path:url(#SVGID_00000160153936136438628100000013682745303586231705_);}
	.st157{clip-path:url(#SVGID_00000036215196484898356830000014956648555919371921_);}
	.st158{clip-path:url(#SVGID_00000094585209048531412570000010917907635668139932_);}
	.st159{clip-path:url(#SVGID_00000085965221210340228060000002027227838322868651_);}
	.st160{clip-path:url(#SVGID_00000065059353696791895450000001738667209327456395_);}
	.st161{clip-path:url(#SVGID_00000081644416476354382570000004429323426560040635_);}
	.st162{clip-path:url(#SVGID_00000085230304254092456520000011376239571443193749_);}
	.st163{clip-path:url(#SVGID_00000052800141804830642250000004923948673312831159_);}
	.st164{clip-path:url(#SVGID_00000068656003456843477550000001422702194696295358_);}
	.st165{clip-path:url(#SVGID_00000084517215182110624390000012096462893748341668_);}
	.st166{clip-path:url(#SVGID_00000119105586577288661370000010637695987730137476_);}
	.st167{clip-path:url(#SVGID_00000127029306683654018830000007948491124675361712_);}
	.st168{clip-path:url(#SVGID_00000000188450730449642220000007701231152793592705_);}
	.st169{clip-path:url(#SVGID_00000173859550160276818860000011581392346262061971_);}
	.st170{clip-path:url(#SVGID_00000033328942606325361890000006806291527215136406_);}
	.st171{clip-path:url(#SVGID_00000145745489518299803490000013340263258484791449_);}
	.st172{clip-path:url(#SVGID_00000147200696414497251430000017962153574031255978_);}
	.st173{clip-path:url(#SVGID_00000092448183443387482080000003675490455729383609_);}
	.st174{clip-path:url(#SVGID_00000005267700444636807940000016094652731462597799_);}
	.st175{clip-path:url(#SVGID_00000072995674010859345720000002870508165970855314_);}
	.st176{clip-path:url(#SVGID_00000114036520378705650700000017228540971075661490_);}
	.st177{clip-path:url(#SVGID_00000066514299343294863540000010962315823510739390_);}
	.st178{clip-path:url(#SVGID_00000029758360588003720320000000954232406613617839_);}
	.st179{clip-path:url(#SVGID_00000035530102597122931870000007048008042457038210_);}
	.st180{clip-path:url(#SVGID_00000084527210316884904800000000775444608785626261_);}
	.st181{clip-path:url(#SVGID_00000100368619091253280830000015425341694061953205_);}
	.st182{clip-path:url(#SVGID_00000181083448421651035290000015096419005208296071_);}
	.st183{clip-path:url(#SVGID_00000020356599056763833210000001728605498466677660_);}
	.st184{clip-path:url(#SVGID_00000142141584344646004850000015500967940388956815_);}
	.st185{clip-path:url(#SVGID_00000151529185827256541170000017902276107871906452_);}
	.st186{clip-path:url(#SVGID_00000099653681467645682210000017792367569257646782_);}
</style>
<g>
	<g>
		<polygon class="st0" points="1.43,0.3 1.43,50.05 26.67,50.05 35.78,36.89 35.78,0.3 		"/>
	</g>
	<g>
		<defs>
			<rect id="SVGID_00000025445130732379204270000001612373822217169592_" width="61.15" height="54"/>
		</defs>
		<clipPath id="SVGID_00000149356616612725443550000000652287533955229846_">
			<use xlink:href="#SVGID_00000025445130732379204270000001612373822217169592_"  style="overflow:visible;"/>
		</clipPath>
		<g style="clip-path:url(#SVGID_00000149356616612725443550000000652287533955229846_);">
			<path class="st0" d="M26.73,50.17H1.31V0.18H35.9v36.74l-0.02,0.03L26.73,50.17z M1.55,49.93H26.6l9.06-13.08V0.42H1.55V49.93z"
				/>
		</g>
		<g style="clip-path:url(#SVGID_00000149356616612725443550000000652287533955229846_);">
			<path class="st1" d="M35.51,50.4H0.3c-0.17,0-0.3-0.13-0.3-0.3V0.3C0,0.13,0.13,0,0.3,0h35.21c0.17,0,0.3,0.13,0.3,0.3v49.8
				C35.81,50.26,35.68,50.4,35.51,50.4z M0.6,49.8h34.61V0.6H0.6V49.8z"/>
		</g>
	</g>
	<g>
		<polygon class="st2" points="3.9,3.9 3.9,53.7 31.89,53.7 39.11,46.48 39.11,3.9 		"/>
	</g>
	<g>
		<defs>
			<rect id="SVGID_00000105386479527051415780000003424753807528848819_" width="61.15" height="54"/>
		</defs>
		<clipPath id="SVGID_00000044889544510273412150000007163958450474795944_">
			<use xlink:href="#SVGID_00000105386479527051415780000003424753807528848819_"  style="overflow:visible;"/>
		</clipPath>
		<g style="clip-path:url(#SVGID_00000044889544510273412150000007163958450474795944_);">
			<path class="st1" d="M31.89,54H3.9c-0.17,0-0.3-0.13-0.3-0.3V3.9c0-0.17,0.13-0.3,0.3-0.3h35.21c0.17,0,0.3,0.13,0.3,0.3v42.58
				c0,0.08-0.03,0.16-0.09,0.21l-7.23,7.22C32.04,53.97,31.97,54,31.89,54z M4.2,53.4h27.56l7.05-7.04V4.2H4.2V53.4z"/>
		</g>
	</g>
	<g>
		<polygon class="st2" points="31.82,46.4 31.82,53.7 39.12,46.4 		"/>
	</g>
	<g>
		<defs>
			<rect id="SVGID_00000019655552560015599470000001402862632366031752_" width="61.15" height="54"/>
		</defs>
		<clipPath id="SVGID_00000026121714027481658270000015845334988197715614_">
			<use xlink:href="#SVGID_00000019655552560015599470000001402862632366031752_"  style="overflow:visible;"/>
		</clipPath>
		<g style="clip-path:url(#SVGID_00000026121714027481658270000015845334988197715614_);">
			<path class="st1" d="M31.82,53.98c-0.04,0-0.07-0.01-0.11-0.02c-0.1-0.04-0.17-0.14-0.17-0.26v-7.3c0-0.15,0.12-0.28,0.28-0.28
				h7.3c0.11,0,0.21,0.07,0.26,0.17c0.04,0.1,0.02,0.22-0.06,0.3l-7.3,7.3C31.96,53.95,31.89,53.98,31.82,53.98z M32.09,46.68v6.35
				l6.35-6.35H32.09z"/>
		</g>
	</g>
	<g>
		<polygon class="st0" points="32.56,46.55 32.56,53.12 38.6,46.55 		"/>
	</g>
	<g>
		<path class="st0" d="M32.44,53.42v-6.99h6.44L32.44,53.42z M32.68,46.67v6.14l5.65-6.14H32.68z"/>
	</g>
	<g>
		<defs>
			<rect id="SVGID_00000094604617601928395280000003018481864421118134_" width="61.15" height="54"/>
		</defs>
		<clipPath id="SVGID_00000082362407139516877710000003080166372227024062_">
			<use xlink:href="#SVGID_00000094604617601928395280000003018481864421118134_"  style="overflow:visible;"/>
		</clipPath>
		<g style="clip-path:url(#SVGID_00000082362407139516877710000003080166372227024062_);">
			<path class="st1" d="M31.82,53.98c-0.04,0-0.07-0.01-0.11-0.02c-0.1-0.04-0.17-0.14-0.17-0.26v-7.3c0-0.15,0.12-0.28,0.28-0.28
				h7.3c0.11,0,0.21,0.07,0.26,0.17c0.04,0.1,0.02,0.22-0.06,0.3l-7.3,7.3C31.96,53.95,31.89,53.98,31.82,53.98z M32.09,46.68v6.35
				l6.35-6.35H32.09z"/>
		</g>
	</g>
	<g>
		<path class="st1" d="M29.26,34.93H7.52c-0.11,0-0.2-0.09-0.2-0.2s0.09-0.2,0.2-0.2h21.75c0.11,0,0.2,0.09,0.2,0.2
			S29.37,34.93,29.26,34.93z"/>
	</g>
	<g>
		<path class="st1" d="M32.87,30.88H7.51c-0.11,0-0.2-0.09-0.2-0.2s0.09-0.2,0.2-0.2h25.36c0.11,0,0.2,0.09,0.2,0.2
			S32.98,30.88,32.87,30.88z M32.99,26.76H7.63c-0.11,0-0.2-0.09-0.2-0.2s0.09-0.2,0.2-0.2h25.36c0.11,0,0.2,0.09,0.2,0.2
			S33.1,26.76,32.99,26.76z"/>
	</g>
	<g>
		<path class="st1" d="M25.92,22.71H7.64c-0.11,0-0.2-0.09-0.2-0.2s0.09-0.2,0.2-0.2h18.28c0.11,0,0.2,0.09,0.2,0.2
			S26.03,22.71,25.92,22.71z"/>
	</g>
	<g>
		<path class="st1" d="M32.87,42.09H7.51c-0.11,0-0.2-0.09-0.2-0.2s0.09-0.2,0.2-0.2h25.36c0.11,0,0.2,0.09,0.2,0.2
			S32.98,42.09,32.87,42.09z M32.99,38.75H7.63c-0.11,0-0.2-0.09-0.2-0.2s0.09-0.2,0.2-0.2h25.36c0.11,0,0.2,0.09,0.2,0.2
			S33.1,38.75,32.99,38.75z"/>
	</g>
	<g>
		<path class="st1" d="M22.05,45.92H7.63c-0.11,0-0.2-0.09-0.2-0.2s0.09-0.2,0.2-0.2h14.42c0.11,0,0.2,0.09,0.2,0.2
			S22.16,45.92,22.05,45.92z"/>
	</g>
	<g>
		<polygon class="st2" points="23.03,45.23 36.43,38.45 60.86,11.32 52.65,3.93 28.21,31.16 		"/>
	</g>
	<g>
		<path class="st1" d="M23.03,45.52c-0.07,0-0.14-0.02-0.19-0.07c-0.09-0.08-0.12-0.2-0.08-0.31l5.19-14.07
			c0.01-0.03,0.03-0.07,0.06-0.09L52.44,3.74c0.05-0.06,0.12-0.09,0.2-0.09c0.08,0,0.15,0.02,0.21,0.07l8.21,7.39
			c0.06,0.05,0.09,0.12,0.09,0.2s-0.02,0.15-0.07,0.21L36.64,38.64c-0.02,0.03-0.05,0.05-0.08,0.06l-13.4,6.78
			C23.11,45.5,23.07,45.52,23.03,45.52z M28.46,31.31l-4.92,13.34l12.71-6.43l24.2-26.87l-7.78-7L28.46,31.31z"/>
	</g>
	<g>
		<defs>
			<rect id="SVGID_00000052814233368941077070000010948814072283553206_" width="61.15" height="54"/>
		</defs>
		<clipPath id="SVGID_00000039099997740592087220000014592069673990061498_">
			<use xlink:href="#SVGID_00000052814233368941077070000010948814072283553206_"  style="overflow:visible;"/>
		</clipPath>
		<g style="clip-path:url(#SVGID_00000039099997740592087220000014592069673990061498_);">
			<path class="st0" d="M53.59,9.18L32.04,33.11c-0.67,0.74-0.61,1.88,0.13,2.55c0.74,0.67,1.88,0.61,2.55-0.13L56.28,11.6
				L53.59,9.18z"/>
		</g>
		<g style="clip-path:url(#SVGID_00000039099997740592087220000014592069673990061498_);">
			<path class="st0" d="M33.38,36.25c-0.46,0-0.92-0.16-1.29-0.5c-0.79-0.71-0.86-1.93-0.14-2.73L53.5,9.1
				c0.05-0.05,0.12-0.06,0.18-0.01l2.68,2.42c0.02,0.02,0.04,0.05,0.04,0.09c0,0.03-0.01,0.07-0.03,0.09L34.82,35.61
				C34.44,36.03,33.91,36.25,33.38,36.25z M53.6,9.36L32.14,33.19c-0.3,0.33-0.45,0.76-0.43,1.21s0.22,0.86,0.55,1.16
				c0.69,0.62,1.75,0.57,2.37-0.12L56.1,11.6L53.6,9.36z"/>
		</g>
		<g style="clip-path:url(#SVGID_00000039099997740592087220000014592069673990061498_);">
			<path class="st0" d="M28.28,39.77c-0.88-0.7-2.26-0.67-2.44-0.47l-1.99,5.61l5.66-2.88C29.51,42.03,29.84,41.02,28.28,39.77"/>
		</g>
		<g style="clip-path:url(#SVGID_00000039099997740592087220000014592069673990061498_);">
			<path class="st0" d="M23.85,45.04c-0.03,0-0.06-0.01-0.08-0.03c-0.04-0.03-0.05-0.09-0.04-0.14l1.99-5.61
				c0.01-0.02,0.01-0.03,0.02-0.04c0.24-0.26,1.69-0.28,2.62,0.46l0,0c1.61,1.29,1.29,2.34,1.27,2.39
				c-0.01,0.03-0.03,0.06-0.06,0.07l-5.66,2.88C23.89,45.03,23.87,45.04,23.85,45.04z M25.94,39.37l-1.87,5.28l5.33-2.71
				c0.03-0.2,0.08-1.05-1.2-2.07l0,0C27.38,39.22,26.14,39.24,25.94,39.37z"/>
		</g>
		<g style="clip-path:url(#SVGID_00000039099997740592087220000014592069673990061498_);">
			<path class="st1" d="M23.03,45.53c-0.07,0-0.14-0.03-0.2-0.08c-0.09-0.08-0.12-0.21-0.08-0.33l5.19-14.07
				c0.01-0.04,0.03-0.07,0.06-0.1L52.43,3.74c0.05-0.06,0.13-0.1,0.21-0.1c0.09,0,0.16,0.02,0.22,0.08l8.21,7.39
				c0.06,0.05,0.09,0.13,0.1,0.21s-0.02,0.16-0.08,0.22L36.65,38.65c-0.02,0.03-0.05,0.05-0.09,0.07l-13.4,6.78
				C23.12,45.52,23.07,45.53,23.03,45.53z M28.48,31.31l-4.91,13.3l12.67-6.41l24.19-26.86l-7.76-6.98L28.48,31.31z"/>
		</g>
		<g style="clip-path:url(#SVGID_00000039099997740592087220000014592069673990061498_);">
			<path class="st1" d="M35.79,38.35c-0.48,0-0.96-0.17-1.34-0.51c-0.59-0.53-0.79-1.33-0.58-2.05c-0.21,0.08-0.43,0.13-0.65,0.15
				c-0.54,0.03-1.05-0.15-1.45-0.51c-0.4-0.36-0.63-0.85-0.66-1.39c-0.01-0.21,0.01-0.41,0.06-0.6c-0.7,0.31-1.55,0.21-2.16-0.34
				c-0.82-0.74-0.89-2.01-0.15-2.83l0.3,0.27c-0.59,0.66-0.54,1.68,0.12,2.27c0.66,0.59,1.67,0.54,2.27-0.12l0,0
				c0.02-0.03,0.05-0.06,0.07-0.09L53.04,8.8l-2.54-2.28l0.27-0.3l8.1,7.3l-0.27,0.3l-2.59-2.33L34.6,35.27c0,0,0,0,0,0
				c-0.59,0.66-0.54,1.68,0.12,2.27c0.66,0.59,1.68,0.54,2.27-0.12l0.3,0.27C36.89,38.13,36.34,38.35,35.79,38.35z M53.34,9.07
				L31.92,32.86c-0.29,0.32-0.43,0.73-0.41,1.16s0.21,0.82,0.53,1.11c0.32,0.29,0.73,0.44,1.16,0.41c0.43-0.02,0.82-0.21,1.11-0.53
				l21.42-23.8L53.34,9.07z M59.45,12.88l-8.1-7.3l0.27-0.3l8.1,7.3L59.45,12.88z"/>
		</g>
	</g>
</g>
</svg>
