<?xml version="1.0" encoding="utf-8"?>
<!-- Generator: Adobe Illustrator 26.0.2, SVG Export Plug-In . SVG Version: 6.00 Build 0)  -->
<svg version="1.1" id="Ebene_1" xmlns="http://www.w3.org/2000/svg" xmlns:xlink="http://www.w3.org/1999/xlink" x="0px" y="0px"
	 viewBox="0 0 124.11 86.67" style="enable-background:new 0 0 124.11 86.67;" xml:space="preserve">
<style type="text/css">
	.st0{fill:#E59C00;}
	.st1{fill:#2B2961;}
	.st2{fill:#FFFFFF;}
	.st3{clip-path:url(#SVGID_00000054251370853647143080000016968231025582269824_);}
	.st4{clip-path:url(#SVGID_00000160173830767234066460000007789301508057312934_);}
	.st5{clip-path:url(#SVGID_00000047022676151871668160000007053723248679320245_);}
	.st6{clip-path:url(#SVGID_00000062911138258973330150000014299612116005653898_);}
	.st7{clip-path:url(#SVGID_00000010989850408622714120000007425713916391770291_);}
	.st8{clip-path:url(#SVGID_00000044900220379513446650000007694781469966611359_);}
	.st9{clip-path:url(#SVGID_00000001631434071303941080000003536696482407085233_);}
	.st10{clip-path:url(#SVGID_00000060713964700345233520000013747143711669806512_);}
	.st11{clip-path:url(#SVGID_00000039097489691502007390000013450459644910574728_);}
	.st12{clip-path:url(#SVGID_00000181053961078763071310000012317900845332292016_);}
	.st13{clip-path:url(#SVGID_00000055669366386913970940000001494958588454752900_);}
	.st14{clip-path:url(#SVGID_00000080188073798303627580000010538634557710786982_);}
	.st15{clip-path:url(#SVGID_00000053525604156698812500000007367409493978172310_);}
	.st16{clip-path:url(#SVGID_00000168078234412550041710000015403255019483328401_);}
	.st17{clip-path:url(#SVGID_00000116916299015664907900000010697550046892360117_);}
	.st18{clip-path:url(#SVGID_00000108274991490204003620000003471051796138003132_);}
	.st19{clip-path:url(#SVGID_00000146491049421276987720000009711466467339867552_);}
	.st20{clip-path:url(#SVGID_00000178883564235867306950000008138422820977540537_);}
	.st21{clip-path:url(#SVGID_00000126306712180938538130000013879897210038016443_);}
	.st22{clip-path:url(#SVGID_00000046316573484874697970000015940557830804989118_);}
	.st23{clip-path:url(#SVGID_00000088811898143433789770000004433626260700020142_);}
	.st24{clip-path:url(#SVGID_00000035507305691491476850000002818027801672022404_);}
	.st25{clip-path:url(#SVGID_00000029040848046373714890000013864828694399985792_);}
	.st26{clip-path:url(#SVGID_00000119081897157810517330000014293134935454475651_);}
	.st27{clip-path:url(#SVGID_00000011019526366280615480000005975982542594304944_);}
	.st28{clip-path:url(#SVGID_00000049211550932865313250000004692941554902123936_);}
	.st29{clip-path:url(#SVGID_00000124880620912499338460000006623766316238835086_);}
	.st30{clip-path:url(#SVGID_00000071528733217633209020000013078291359042829199_);}
	.st31{clip-path:url(#SVGID_00000010996526032044170890000017601755894324948670_);}
	.st32{clip-path:url(#SVGID_00000034052841853863062380000016861695651205356417_);}
	.st33{clip-path:url(#SVGID_00000080903345418299698870000007822794509040712841_);}
	.st34{clip-path:url(#SVGID_00000040533005979966247390000002651606112856806282_);}
	.st35{clip-path:url(#SVGID_00000152972583004934622410000015004701014891425174_);}
	.st36{clip-path:url(#SVGID_00000067920495351068105060000012521435775249597572_);}
	.st37{clip-path:url(#SVGID_00000022555617997421868770000015340560745656252083_);}
	.st38{clip-path:url(#SVGID_00000145772946818456582740000002035058298372465291_);}
	.st39{clip-path:url(#SVGID_00000106856681098958431030000005871875925368115896_);}
	.st40{clip-path:url(#SVGID_00000016044727453534577990000003387451669801878694_);}
	.st41{clip-path:url(#SVGID_00000013168486951210255650000014863367112586961578_);}
	.st42{clip-path:url(#SVGID_00000180341839388882427620000009584205618888768180_);}
	.st43{clip-path:url(#SVGID_00000032633537704681976790000016459011851026855343_);}
	.st44{clip-path:url(#SVGID_00000090274460788483279150000004029340695674055071_);}
	.st45{clip-path:url(#SVGID_00000008148699219068300940000014830178961100055993_);}
	.st46{clip-path:url(#SVGID_00000039091554215681428980000008413143036740513468_);}
	.st47{clip-path:url(#SVGID_00000150086968313793766330000009818402081195461027_);}
	.st48{clip-path:url(#SVGID_00000140720172115353768650000003118222430236683139_);}
	.st49{clip-path:url(#SVGID_00000072238073492999342510000007946360227840746120_);}
	.st50{clip-path:url(#SVGID_00000034068961133591093390000004259939758176002986_);}
	.st51{clip-path:url(#SVGID_00000143617960411330916850000006034607331325810560_);}
	.st52{clip-path:url(#SVGID_00000028319377074948362840000002290973816005861007_);}
	.st53{clip-path:url(#SVGID_00000003808588755429468810000007537359397849759108_);}
	.st54{clip-path:url(#SVGID_00000011009319015784628790000008267916930507481743_);}
	.st55{clip-path:url(#SVGID_00000054250361443575984360000005375404717525026475_);}
	.st56{clip-path:url(#SVGID_00000087411465160583828460000002098661973782400156_);}
	.st57{clip-path:url(#SVGID_00000009591307366959209570000003993353108836862385_);}
	.st58{clip-path:url(#SVGID_00000153702464298231301680000011270594267419324080_);}
	.st59{clip-path:url(#SVGID_00000160160136989851322980000005163381310229787805_);}
	.st60{clip-path:url(#SVGID_00000147921924258715423380000008160989726393556135_);}
	.st61{clip-path:url(#SVGID_00000141457865037703755630000011596364552458952885_);}
	.st62{clip-path:url(#SVGID_00000071549181110653253960000008511774190993708475_);}
	.st63{clip-path:url(#SVGID_00000113326152918717170240000011341480517209280435_);}
	.st64{clip-path:url(#SVGID_00000183946811793389048500000014344234404909685940_);}
	.st65{clip-path:url(#SVGID_00000009560083467457702990000015845714619564698266_);}
	.st66{clip-path:url(#SVGID_00000001656715386244782490000017007780234988568251_);}
	.st67{clip-path:url(#SVGID_00000080885878518096169140000005527100127303108772_);}
	.st68{clip-path:url(#SVGID_00000124846484534538990570000011951654570460085901_);}
	.st69{clip-path:url(#SVGID_00000086681774160939587070000014779495663429026199_);}
	.st70{clip-path:url(#SVGID_00000173131770883200776310000005329323544922147248_);}
	.st71{clip-path:url(#SVGID_00000061437879370982400590000012629965852204352938_);}
	.st72{clip-path:url(#SVGID_00000158723608705641296600000016218171550977227396_);}
	.st73{clip-path:url(#SVGID_00000162331605654138352960000013349531823823587720_);}
	.st74{clip-path:url(#SVGID_00000024682202320836291470000002660658584349188516_);}
	.st75{clip-path:url(#SVGID_00000088832632255576516160000001429417320838462125_);}
	.st76{clip-path:url(#SVGID_00000021080344812248893240000007874489243330189199_);}
	.st77{clip-path:url(#SVGID_00000049189863810167564350000001025061114319621810_);}
	.st78{clip-path:url(#SVGID_00000109006525567870897490000004728203557222789005_);}
	.st79{clip-path:url(#SVGID_00000016039738358882610630000009666634179362259118_);}
	.st80{clip-path:url(#SVGID_00000065074156070078202840000012403162245410559914_);}
	.st81{clip-path:url(#SVGID_00000091001904583877590710000000872920627930573482_);}
	.st82{clip-path:url(#SVGID_00000046317528775803644680000008772132477111094430_);}
	.st83{fill:none;}
	.st84{clip-path:url(#SVGID_00000012438065291927244540000002974789977839457435_);}
	.st85{clip-path:url(#SVGID_00000083786113152852532320000005729391311371926677_);}
	.st86{clip-path:url(#SVGID_00000019673695209058705640000007453103295020938157_);}
	.st87{clip-path:url(#SVGID_00000082332460899072088960000015633752479991892658_);}
	.st88{clip-path:url(#SVGID_00000124129094051065746840000014011723259917996174_);}
	.st89{clip-path:url(#SVGID_00000114054878059115044310000014598032903871829157_);}
	.st90{clip-path:url(#SVGID_00000147907912582597029340000012655026334796896437_);}
	.st91{clip-path:url(#SVGID_00000034076076908636112920000014117150998222018435_);}
	.st92{clip-path:url(#SVGID_00000058572811134410034870000018178489858801846439_);}
	.st93{clip-path:url(#SVGID_00000046327022783680299960000001456204580097889973_);}
	.st94{clip-path:url(#SVGID_00000031900941018374498420000005111903424333591684_);}
	.st95{clip-path:url(#SVGID_00000014632340541069187070000003945257411849363078_);}
	.st96{clip-path:url(#SVGID_00000026866806033191874490000012931036436593058469_);}
	.st97{clip-path:url(#SVGID_00000145738785235638317190000001974127559134456981_);}
	.st98{clip-path:url(#SVGID_00000152232655526021231010000003189874905373724545_);}
	.st99{clip-path:url(#SVGID_00000073686969420720771840000016929440315352789922_);}
	.st100{clip-path:url(#SVGID_00000051383992365737279110000018160001890396394388_);}
	.st101{clip-path:url(#SVGID_00000109012198052335779520000008106059957062225031_);}
	.st102{clip-path:url(#SVGID_00000041294111747962918900000004554276043876947379_);}
	.st103{clip-path:url(#SVGID_00000088121608708617305250000001831687622461765761_);}
	.st104{clip-path:url(#SVGID_00000160887231238093071540000002356701546258163602_);}
	.st105{clip-path:url(#SVGID_00000055699052252957656110000013468939938526967200_);}
	.st106{clip-path:url(#SVGID_00000165210719748472288620000014299543458296165029_);}
	.st107{clip-path:url(#SVGID_00000054264952945465838470000016142079219607620796_);}
	.st108{clip-path:url(#SVGID_00000057852838547732625050000001955007081025025920_);}
	.st109{clip-path:url(#SVGID_00000030462534302549825190000015958763400029343405_);}
	.st110{clip-path:url(#SVGID_00000092413890422611198690000007804247020087412646_);}
	.st111{clip-path:url(#SVGID_00000037679929194224715280000012072351549183671959_);}
	.st112{clip-path:url(#SVGID_00000178197018216281307270000007477154300421006209_);}
	.st113{clip-path:url(#SVGID_00000109729526154051881270000003568746461076280500_);}
	.st114{clip-path:url(#SVGID_00000103964752679270916830000014602469843390751109_);}
	.st115{clip-path:url(#SVGID_00000103240017453147809070000014093485384580678028_);}
	.st116{clip-path:url(#SVGID_00000112629232045660936800000011445872520304851844_);}
	.st117{clip-path:url(#SVGID_00000097492044238409753450000007960551701370291103_);}
	.st118{clip-path:url(#SVGID_00000003809689374317647110000002727832826606495152_);}
	.st119{clip-path:url(#SVGID_00000063617717976524343890000003106423938512272270_);}
	.st120{clip-path:url(#SVGID_00000059988049652389995180000006895232054501394867_);}
	.st121{clip-path:url(#SVGID_00000159455931737553965510000001541850770163847041_);}
	.st122{clip-path:url(#SVGID_00000141445967524376066910000017005942033604827290_);}
	.st123{clip-path:url(#SVGID_00000155109660522889481990000004754847876669916563_);}
	.st124{clip-path:url(#SVGID_00000075163607845311125150000015903022664834305453_);}
	.st125{clip-path:url(#SVGID_00000067200668026582971810000004413095703492741301_);}
	.st126{clip-path:url(#SVGID_00000012448547841284043910000013596938066773861292_);}
	.st127{clip-path:url(#SVGID_00000062907464821041141680000018046825131019627415_);}
	.st128{clip-path:url(#SVGID_00000062166517695262143350000009978784207057067159_);}
	.st129{clip-path:url(#SVGID_00000042717369243510921460000015785213849962748095_);}
	.st130{clip-path:url(#SVGID_00000096037070114307359820000007175424935235617921_);}
	.st131{clip-path:url(#SVGID_00000146488478764865958700000002900645558574861237_);}
	.st132{clip-path:url(#SVGID_00000135672778823368963060000001423013542666608784_);}
	.st133{clip-path:url(#SVGID_00000160908787272682158460000013424313596555340703_);}
	.st134{clip-path:url(#SVGID_00000005958044265300598380000000845872784404968605_);}
	.st135{clip-path:url(#SVGID_00000018921216063750576920000013832921492229573762_);}
	.st136{clip-path:url(#SVGID_00000157305075642125226400000004012732015449111727_);}
	.st137{clip-path:url(#SVGID_00000018195392225162997500000005259962669188794296_);}
	.st138{clip-path:url(#SVGID_00000060713870464738209860000018364158277946258876_);}
	.st139{clip-path:url(#SVGID_00000002371706142432721560000011201869173733828238_);}
	.st140{clip-path:url(#SVGID_00000027600114903888367870000009255647980686880410_);}
	.st141{clip-path:url(#SVGID_00000161614329932841755030000003941997944972762756_);}
	.st142{clip-path:url(#SVGID_00000094584957307087084000000009409809199952046493_);}
	.st143{clip-path:url(#SVGID_00000098211357503638791430000013671097793371371931_);}
	.st144{clip-path:url(#SVGID_00000146459850977533250790000002667851175414991006_);}
	.st145{clip-path:url(#SVGID_00000183941347377738276120000000923912190990490281_);}
	.st146{clip-path:url(#SVGID_00000005968150045507012390000017847919915782830215_);}
	.st147{clip-path:url(#SVGID_00000168817635585138755210000013125080935213779891_);}
	.st148{clip-path:url(#SVGID_00000131337100109677179110000011809706836169469353_);}
	.st149{clip-path:url(#SVGID_00000075137559600262012310000010472147662745394848_);}
	.st150{clip-path:url(#SVGID_00000159457820096880714940000015344945430598312878_);}
	.st151{clip-path:url(#SVGID_00000104684112958326429440000014354325340414620861_);}
	.st152{clip-path:url(#SVGID_00000072258160799786482540000012857441039667789456_);}
	.st153{clip-path:url(#SVGID_00000054957658425295602890000006920046939541492388_);}
	.st154{clip-path:url(#SVGID_00000181810073822569041910000012315419210964502451_);}
	.st155{clip-path:url(#SVGID_00000059279612406549525190000002000291864328880273_);}
	.st156{clip-path:url(#SVGID_00000175284600474527913540000001232734810868447896_);}
	.st157{clip-path:url(#SVGID_00000088103597121009800650000005286968527286492301_);}
	.st158{clip-path:url(#SVGID_00000125598942543547544780000008636647019483480201_);}
	.st159{clip-path:url(#SVGID_00000148624129223223368200000014335382148298305454_);}
	.st160{clip-path:url(#SVGID_00000015312338706041065840000013545771176851640194_);}
	.st161{clip-path:url(#SVGID_00000037670359016391426650000005028449690759164093_);}
	.st162{clip-path:url(#SVGID_00000117653047299153832110000006920616692215028870_);}
	.st163{clip-path:url(#SVGID_00000125592698277119841350000010699978883900476070_);}
	.st164{clip-path:url(#SVGID_00000062895961634878244110000006622883718772591024_);}
	.st165{clip-path:url(#SVGID_00000120532271726544728590000015364529317567550393_);}
	.st166{clip-path:url(#SVGID_00000167367475613580858760000006747482830806507961_);}
	.st167{clip-path:url(#SVGID_00000071550687124559472350000001843517531567510423_);}
	.st168{clip-path:url(#SVGID_00000013904093681395600190000017963757945853251471_);}
	.st169{clip-path:url(#SVGID_00000156577889097141933530000007030938666829749137_);}
	.st170{clip-path:url(#SVGID_00000106123309667264201410000008687506277559609000_);}
	.st171{clip-path:url(#SVGID_00000008864873616464043580000012301164230670031751_);}
	.st172{clip-path:url(#SVGID_00000181776182914441216790000004453987693321098683_);}
	.st173{clip-path:url(#SVGID_00000115488673472720164540000008092702239464029608_);}
	.st174{clip-path:url(#SVGID_00000098180912452477735220000009225832353863661490_);}
	.st175{clip-path:url(#SVGID_00000156569723762626475350000010492132220450042802_);}
	.st176{clip-path:url(#SVGID_00000098181934288506052830000013917266507805560457_);}
	.st177{clip-path:url(#SVGID_00000013905933802678807520000000618965089172700086_);}
	.st178{clip-path:url(#SVGID_00000014623414371524890950000017510138357436393914_);}
	.st179{clip-path:url(#SVGID_00000013903700121166478860000007273317278818283152_);}
	.st180{clip-path:url(#SVGID_00000051381016040698595160000009037837409568227775_);}
	.st181{clip-path:url(#SVGID_00000142867572968944569490000015305278415756763322_);}
	.st182{clip-path:url(#SVGID_00000076591100098732700710000008630231006313403272_);}
	.st183{clip-path:url(#SVGID_00000175281904409552775790000012999439902385192840_);}
	.st184{clip-path:url(#SVGID_00000154411090928758904900000014980413501465728954_);}
	.st185{clip-path:url(#SVGID_00000119830649615981206420000003509913630646133676_);}
	.st186{clip-path:url(#SVGID_00000125580536454218828110000009242933898137572487_);}
</style>
<g>
	<g>
		<rect x="1.9" y="59.84" class="st0" width="18.58" height="19.06"/>
	</g>
	<g>
		<path class="st0" d="M20.48,79.03H1.9c-0.07,0-0.12-0.06-0.12-0.12V59.84c0-0.07,0.06-0.12,0.12-0.12h18.58
			c0.07,0,0.12,0.06,0.12,0.12V78.9C20.6,78.97,20.54,79.03,20.48,79.03z M2.02,78.78h18.33V59.97H2.02V78.78z"/>
	</g>
	<g>
		<rect x="54.33" y="59.84" class="st0" width="18.58" height="19.06"/>
	</g>
	<g>
		<path class="st0" d="M72.91,79.03H54.33c-0.07,0-0.12-0.06-0.12-0.12V59.84c0-0.07,0.06-0.12,0.12-0.12h18.58
			c0.07,0,0.12,0.06,0.12,0.12V78.9C73.03,78.97,72.98,79.03,72.91,79.03z M54.45,78.78h18.33V59.97H54.45V78.78z"/>
	</g>
	<g>
		<defs>
			<rect id="SVGID_00000163064506839146749960000010936235335038749887_" width="124.11" height="86.67"/>
		</defs>
		<clipPath id="SVGID_00000103235681643848056190000005299908306750885033_">
			<use xlink:href="#SVGID_00000163064506839146749960000010936235335038749887_"  style="overflow:visible;"/>
		</clipPath>
		<g style="clip-path:url(#SVGID_00000103235681643848056190000005299908306750885033_);">
			<path class="st0" d="M37.03,31.84c2.12,0,4.08,0.4,5.72,1.53v-7.32l-0.6,0.83c-0.93,1.94-2.87,3.27-5.12,3.27
				c-2.25,0-3.84-0.94-4.77-2.88l-0.39-0.4v6.41C33.38,32.37,35.14,31.84,37.03,31.84"/>
		</g>
		<g style="clip-path:url(#SVGID_00000103235681643848056190000005299908306750885033_);">
			<path class="st0" d="M42.74,33.49c-0.02,0-0.05-0.01-0.07-0.02c-1.47-1.01-3.32-1.5-5.65-1.5c-1.78,0-3.55,0.49-5.1,1.42
				c-0.04,0.02-0.09,0.02-0.13,0c-0.04-0.02-0.06-0.06-0.06-0.11v-6.41c0-0.05,0.03-0.1,0.08-0.12c0.05-0.02,0.1-0.01,0.14,0.03
				l0.39,0.4c0.01,0.01,0.02,0.02,0.02,0.03c0.91,1.89,2.43,2.81,4.66,2.81c2.14,0,4.06-1.23,5.01-3.2l0.61-0.85
				c0.03-0.04,0.09-0.06,0.14-0.05c0.05,0.02,0.09,0.06,0.09,0.12v7.32c0,0.05-0.03,0.09-0.07,0.11
				C42.78,33.49,42.76,33.49,42.74,33.49z M37.03,31.72c2.28,0,4.12,0.46,5.59,1.42v-6.7l-0.37,0.51c-0.98,2.04-2.99,3.33-5.22,3.33
				c-2.29,0-3.93-0.98-4.88-2.93l-0.17-0.17v5.89C33.53,32.18,35.27,31.72,37.03,31.72z"/>
		</g>
		<g style="clip-path:url(#SVGID_00000103235681643848056190000005299908306750885033_);">
			<path class="st0" d="M88.45,31.84c2.12,0,4.08,0.4,5.72,1.53v-7.32l-0.6,0.83c-0.93,1.94-2.87,3.27-5.12,3.27
				c-2.25,0-3.84-0.94-4.77-2.88l-0.39-0.4v6.41C84.8,32.37,86.56,31.84,88.45,31.84"/>
		</g>
		<g style="clip-path:url(#SVGID_00000103235681643848056190000005299908306750885033_);">
			<path class="st0" d="M94.17,33.49c-0.02,0-0.05-0.01-0.07-0.02c-1.47-1.01-3.31-1.5-5.65-1.5c-1.78,0-3.55,0.49-5.1,1.42
				c-0.04,0.02-0.09,0.02-0.13,0s-0.06-0.06-0.06-0.11v-6.41c0-0.05,0.03-0.1,0.08-0.12c0.05-0.02,0.1-0.01,0.14,0.03l0.39,0.4
				c0.01,0.01,0.02,0.02,0.02,0.03c0.91,1.89,2.43,2.81,4.66,2.81c2.14,0,4.06-1.23,5.01-3.2l0.61-0.85
				c0.03-0.04,0.09-0.06,0.14-0.05c0.05,0.02,0.09,0.06,0.09,0.12v7.32c0,0.05-0.03,0.09-0.07,0.11
				C94.21,33.49,94.19,33.49,94.17,33.49z M88.45,31.72c2.28,0,4.11,0.46,5.59,1.42v-6.7l-0.37,0.51c-0.98,2.04-2.99,3.33-5.22,3.33
				c-2.29,0-3.93-0.98-4.88-2.93l-0.17-0.17v5.89C84.95,32.18,86.69,31.72,88.45,31.72z"/>
		</g>
		<g style="clip-path:url(#SVGID_00000103235681643848056190000005299908306750885033_);">
			<path class="st0" d="M113.78,31.84c2.12,0,4.08,0.4,5.72,1.53v-7.32l-0.6,0.83c-0.93,1.94-2.87,3.27-5.12,3.27
				c-2.25,0-3.84-0.94-4.77-2.88l-0.39-0.4v6.41C110.14,32.37,111.9,31.84,113.78,31.84"/>
		</g>
		<g style="clip-path:url(#SVGID_00000103235681643848056190000005299908306750885033_);">
			<path class="st0" d="M119.5,33.49c-0.02,0-0.05-0.01-0.07-0.02c-1.47-1.01-3.32-1.5-5.65-1.5c-1.78,0-3.55,0.49-5.1,1.42
				c-0.04,0.02-0.09,0.02-0.13,0c-0.04-0.02-0.06-0.06-0.06-0.11v-6.41c0-0.05,0.03-0.1,0.08-0.12c0.05-0.02,0.1-0.01,0.14,0.03
				l0.39,0.4c0.01,0.01,0.02,0.02,0.02,0.03c0.91,1.89,2.43,2.81,4.66,2.81c2.14,0,4.06-1.23,5.01-3.2l0.61-0.85
				c0.03-0.04,0.09-0.06,0.14-0.05c0.05,0.02,0.09,0.06,0.09,0.12v7.32c0,0.05-0.03,0.09-0.07,0.11
				C119.54,33.49,119.52,33.49,119.5,33.49z M113.78,31.72c2.28,0,4.12,0.46,5.59,1.42v-6.7l-0.37,0.51
				c-0.98,2.04-2.99,3.33-5.22,3.33c-2.29,0-3.93-0.98-4.88-2.93l-0.17-0.17v5.89C110.29,32.18,112.03,31.72,113.78,31.72z"/>
		</g>
		<g style="clip-path:url(#SVGID_00000103235681643848056190000005299908306750885033_);">
			<path class="st1" d="M42.6,34.04c-0.06,0-0.12-0.02-0.17-0.05c-1.7-1.14-3.92-1.85-5.79-1.85c-1.94,0-3.7,0.55-5.37,1.67
				c-0.09,0.06-0.21,0.07-0.31,0.02c-0.1-0.05-0.16-0.15-0.16-0.26v-9h0.6v8.45c1.62-0.98,3.38-1.47,5.24-1.47
				c1.82,0,3.94,0.63,5.66,1.66v-8.75h0.6v9.29c0,0.11-0.06,0.21-0.16,0.26C42.69,34.03,42.65,34.04,42.6,34.04z"/>
		</g>
		<g style="clip-path:url(#SVGID_00000103235681643848056190000005299908306750885033_);">
			<path class="st1" d="M94.02,34.04c-0.06,0-0.12-0.02-0.17-0.05c-1.7-1.14-3.92-1.85-5.79-1.85c-1.94,0-3.7,0.55-5.37,1.67
				c-0.09,0.06-0.21,0.07-0.31,0.02c-0.1-0.05-0.16-0.15-0.16-0.26v-9h0.6v8.45c1.62-0.98,3.38-1.47,5.24-1.47
				c1.82,0,3.94,0.63,5.66,1.66v-8.75h0.6v9.29c0,0.11-0.06,0.21-0.16,0.26C94.12,34.03,94.07,34.04,94.02,34.04z"/>
		</g>
		<g style="clip-path:url(#SVGID_00000103235681643848056190000005299908306750885033_);">
			<path class="st1" d="M119.35,34.04c-0.06,0-0.12-0.02-0.17-0.05c-1.7-1.14-3.92-1.85-5.79-1.85c-1.94,0-3.7,0.55-5.37,1.67
				c-0.09,0.06-0.21,0.07-0.31,0.02c-0.1-0.05-0.16-0.15-0.16-0.26v-9h0.6v8.45c1.62-0.98,3.38-1.47,5.24-1.47
				c1.82,0,3.94,0.63,5.66,1.66v-8.75h0.6v9.29c0,0.11-0.06,0.21-0.16,0.26C119.45,34.03,119.4,34.04,119.35,34.04z"/>
		</g>
	</g>
	<g>
		<rect x="27.86" y="68.84" class="st0" width="19.31" height="10.06"/>
	</g>
	<g>
		<path class="st0" d="M47.16,79.03H27.86c-0.07,0-0.12-0.06-0.12-0.12V68.84c0-0.07,0.06-0.12,0.12-0.12h19.31
			c0.07,0,0.12,0.06,0.12,0.12V78.9C47.29,78.97,47.23,79.03,47.16,79.03z M27.98,78.78h19.06v-9.81H27.98V78.78z"/>
	</g>
	<g>
		<rect x="79.28" y="68.84" class="st0" width="19.31" height="10.06"/>
	</g>
	<g>
		<path class="st0" d="M98.59,79.03H79.28c-0.07,0-0.12-0.06-0.12-0.12V68.84c0-0.07,0.06-0.12,0.12-0.12h19.31
			c0.07,0,0.12,0.06,0.12,0.12V78.9C98.71,78.97,98.65,79.03,98.59,79.03z M79.4,78.78h19.06v-9.81H79.4V78.78z"/>
	</g>
	<g>
		<rect x="104.61" y="68.84" class="st0" width="19.31" height="10.06"/>
	</g>
	<g>
		<path class="st0" d="M123.92,79.03h-19.31c-0.07,0-0.12-0.06-0.12-0.12V68.84c0-0.07,0.06-0.12,0.12-0.12h19.31
			c0.07,0,0.12,0.06,0.12,0.12V78.9C124.05,78.97,123.99,79.03,123.92,79.03z M104.74,78.78h19.06v-9.81h-19.06V78.78z"/>
	</g>
	<g>
		<rect x="26.82" y="68.65" class="st1" width="20.28" height="0.4"/>
	</g>
	<g>
		<rect x="78.25" y="68.65" class="st1" width="20.29" height="0.4"/>
	</g>
	<g>
		<rect x="103.58" y="68.65" class="st1" width="20.29" height="0.4"/>
	</g>
	<g>
		<defs>
			<rect id="SVGID_00000181070593558591944620000001046144610285516470_" width="124.11" height="86.67"/>
		</defs>
		<clipPath id="SVGID_00000173866781796900483450000015786216118985220001_">
			<use xlink:href="#SVGID_00000181070593558591944620000001046144610285516470_"  style="overflow:visible;"/>
		</clipPath>
		<g style="clip-path:url(#SVGID_00000173866781796900483450000015786216118985220001_);">
			<path class="st1" d="M42.75,86.67c-0.17,0-0.3-0.13-0.3-0.3v-7.32c0-0.17,0.13-0.3,0.3-0.3s0.3,0.13,0.3,0.3v7.32
				C43.05,86.53,42.92,86.67,42.75,86.67z M30.95,86.67c-0.17,0-0.3-0.13-0.3-0.3v-7.32c0-0.17,0.13-0.3,0.3-0.3s0.3,0.13,0.3,0.3
				v7.32C31.25,86.53,31.11,86.67,30.95,86.67z"/>
		</g>
		<g style="clip-path:url(#SVGID_00000173866781796900483450000015786216118985220001_);">
			<path class="st1" d="M94.17,86.67c-0.17,0-0.3-0.13-0.3-0.3v-7.32c0-0.17,0.13-0.3,0.3-0.3s0.3,0.13,0.3,0.3v7.32
				C94.47,86.53,94.34,86.67,94.17,86.67z M82.37,86.67c-0.17,0-0.3-0.13-0.3-0.3v-7.32c0-0.17,0.13-0.3,0.3-0.3s0.3,0.13,0.3,0.3
				v7.32C82.67,86.53,82.53,86.67,82.37,86.67z"/>
		</g>
		<g style="clip-path:url(#SVGID_00000173866781796900483450000015786216118985220001_);">
			<path class="st1" d="M119.51,86.67c-0.17,0-0.3-0.13-0.3-0.3v-7.32c0-0.17,0.13-0.3,0.3-0.3s0.3,0.13,0.3,0.3v7.32
				C119.81,86.53,119.67,86.67,119.51,86.67z M107.7,86.67c-0.17,0-0.3-0.13-0.3-0.3v-7.32c0-0.17,0.13-0.3,0.3-0.3
				s0.3,0.13,0.3,0.3v7.32C108,86.53,107.87,86.67,107.7,86.67z"/>
		</g>
	</g>
	<g>
		<path class="st1" d="M42.75,52.25c-0.19,0-0.35-0.16-0.35-0.35v-9.83c0-0.19,0.16-0.35,0.35-0.35s0.35,0.16,0.35,0.35v9.83
			C43.1,52.09,42.95,52.25,42.75,52.25z M30.94,52.25c-0.19,0-0.35-0.16-0.35-0.35v-9.83c0-0.19,0.16-0.35,0.35-0.35
			s0.35,0.16,0.35,0.35v9.83C31.29,52.09,31.14,52.25,30.94,52.25z"/>
	</g>
	<g>
		<path class="st1" d="M94.18,52.25c-0.19,0-0.35-0.16-0.35-0.35v-9.83c0-0.19,0.16-0.35,0.35-0.35s0.35,0.16,0.35,0.35v9.83
			C94.52,52.09,94.37,52.25,94.18,52.25z M82.37,52.25c-0.19,0-0.35-0.16-0.35-0.35v-9.83c0-0.19,0.16-0.35,0.35-0.35
			s0.35,0.16,0.35,0.35v9.83C82.71,52.09,82.56,52.25,82.37,52.25z"/>
	</g>
	<g>
		<path class="st1" d="M119.51,52.25c-0.19,0-0.35-0.16-0.35-0.35v-9.83c0-0.19,0.16-0.35,0.35-0.35s0.35,0.16,0.35,0.35v9.83
			C119.86,52.09,119.7,52.25,119.51,52.25z M107.7,52.25c-0.19,0-0.35-0.16-0.35-0.35v-9.83c0-0.19,0.16-0.35,0.35-0.35
			s0.35,0.16,0.35,0.35v9.83C108.05,52.09,107.89,52.25,107.7,52.25z"/>
	</g>
	<g>
		<defs>
			<rect id="SVGID_00000121995821434915865760000008275474831314791858_" width="124.11" height="86.67"/>
		</defs>
		<clipPath id="SVGID_00000021112484937271487890000007377233147743416495_">
			<use xlink:href="#SVGID_00000121995821434915865760000008275474831314791858_"  style="overflow:visible;"/>
		</clipPath>
		<g style="clip-path:url(#SVGID_00000021112484937271487890000007377233147743416495_);">
			<path class="st1" d="M46.98,79.11H26.64c-0.17,0-0.3-0.13-0.3-0.3v-36.4c0-5.91,4.79-10.93,10.47-10.97c0.02,0,0.04,0,0.06,0
				c2.6,0,5.11,1.07,7.09,3.02c2.14,2.11,3.37,5.01,3.39,7.94c0,0,0,0,0,0l-0.07,36.4C47.28,78.98,47.15,79.11,46.98,79.11z
				 M26.94,78.51h19.74l0.07-36.1c-0.02-2.78-1.19-5.52-3.21-7.52c-1.86-1.84-4.23-2.85-6.67-2.85c-0.02,0-0.04,0-0.06,0
				c-5.35,0.04-9.87,4.78-9.87,10.37V78.51z"/>
		</g>
		<g style="clip-path:url(#SVGID_00000021112484937271487890000007377233147743416495_);">
			<path class="st1" d="M98.41,79.11H78.07c-0.17,0-0.3-0.13-0.3-0.3v-36.4c0-5.91,4.79-10.93,10.47-10.97c0.02,0,0.04,0,0.06,0
				c2.6,0,5.11,1.07,7.09,3.02c2.14,2.11,3.37,5.01,3.39,7.94c0,0,0,0,0,0l-0.07,36.4C98.71,78.98,98.57,79.11,98.41,79.11z
				 M78.37,78.51h19.74l0.07-36.1c-0.02-2.78-1.19-5.52-3.21-7.52c-1.86-1.84-4.23-2.85-6.67-2.85c-0.02,0-0.04,0-0.06,0
				c-5.35,0.04-9.87,4.78-9.87,10.37V78.51z"/>
		</g>
		<g style="clip-path:url(#SVGID_00000021112484937271487890000007377233147743416495_);">
			<path class="st1" d="M123.74,79.11H103.4c-0.17,0-0.3-0.13-0.3-0.3v-36.4c0-5.91,4.79-10.93,10.47-10.97c0.02,0,0.04,0,0.06,0
				c2.6,0,5.11,1.07,7.09,3.02c2.14,2.11,3.37,5.01,3.39,7.94c0,0,0,0,0,0l-0.07,36.4C124.04,78.98,123.91,79.11,123.74,79.11z
				 M103.7,78.51h19.74l0.07-36.1c-0.02-2.78-1.19-5.52-3.21-7.52c-1.86-1.84-4.23-2.85-6.67-2.85c-0.02,0-0.04,0-0.06,0
				c-5.35,0.04-9.87,4.78-9.87,10.37V78.51z"/>
		</g>
		<g style="clip-path:url(#SVGID_00000021112484937271487890000007377233147743416495_);">
			<path class="st0" d="M42.59,22.88c-0.67-2.19-2.7-3.79-5.1-3.79s-4.44,1.6-5.1,3.79H42.59z"/>
		</g>
		<g style="clip-path:url(#SVGID_00000021112484937271487890000007377233147743416495_);">
			<path class="st0" d="M42.59,23h-10.2c-0.04,0-0.08-0.02-0.1-0.05c-0.02-0.03-0.03-0.07-0.02-0.11c0.7-2.32,2.8-3.88,5.22-3.88
				s4.52,1.56,5.22,3.88c0.01,0.04,0,0.08-0.02,0.11C42.67,22.98,42.63,23,42.59,23z M32.56,22.75h9.86
				c-0.72-2.12-2.68-3.54-4.93-3.54S33.28,20.63,32.56,22.75z"/>
		</g>
		<g style="clip-path:url(#SVGID_00000021112484937271487890000007377233147743416495_);">
			<path class="st0" d="M94.01,22.88c-0.67-2.19-2.7-3.79-5.1-3.79s-4.44,1.6-5.1,3.79H94.01z"/>
		</g>
		<g style="clip-path:url(#SVGID_00000021112484937271487890000007377233147743416495_);">
			<path class="st0" d="M94.01,23h-10.2c-0.04,0-0.08-0.02-0.1-0.05c-0.02-0.03-0.03-0.07-0.02-0.11c0.7-2.32,2.8-3.88,5.22-3.88
				s4.52,1.56,5.22,3.88c0.01,0.04,0,0.08-0.02,0.11C94.09,22.98,94.05,23,94.01,23z M83.98,22.75h9.86
				c-0.72-2.12-2.68-3.54-4.93-3.54S84.7,20.63,83.98,22.75z"/>
		</g>
		<g style="clip-path:url(#SVGID_00000021112484937271487890000007377233147743416495_);">
			<path class="st0" d="M119.35,22.88c-0.67-2.19-2.7-3.79-5.1-3.79s-4.44,1.6-5.1,3.79H119.35z"/>
		</g>
		<g style="clip-path:url(#SVGID_00000021112484937271487890000007377233147743416495_);">
			<path class="st0" d="M119.35,23h-10.2c-0.04,0-0.08-0.02-0.1-0.05c-0.02-0.03-0.03-0.07-0.02-0.11c0.7-2.32,2.8-3.88,5.22-3.88
				s4.52,1.56,5.22,3.88c0.01,0.04,0,0.08-0.02,0.11C119.42,22.98,119.39,23,119.35,23z M109.31,22.75h9.86
				c-0.72-2.12-2.68-3.54-4.93-3.54S110.03,20.63,109.31,22.75z"/>
		</g>
		<g style="clip-path:url(#SVGID_00000021112484937271487890000007377233147743416495_);">
			<path class="st1" d="M36.85,30.34c-3.33,0-6.05-2.71-6.05-6.05c0-3.33,2.71-6.05,6.05-6.05s6.05,2.71,6.05,6.05
				C42.9,27.62,40.18,30.34,36.85,30.34z M36.85,18.84c-3,0-5.45,2.44-5.45,5.45c0,3,2.44,5.45,5.45,5.45c3,0,5.45-2.44,5.45-5.45
				C42.3,21.28,39.85,18.84,36.85,18.84z"/>
		</g>
		<g style="clip-path:url(#SVGID_00000021112484937271487890000007377233147743416495_);">
			<path class="st1" d="M88.27,30.34c-3.34,0-6.05-2.71-6.05-6.05c0-3.33,2.71-6.05,6.05-6.05c3.33,0,6.05,2.71,6.05,6.05
				C94.32,27.62,91.61,30.34,88.27,30.34z M88.27,18.84c-3,0-5.45,2.44-5.45,5.45c0,3,2.44,5.45,5.45,5.45c3,0,5.45-2.44,5.45-5.45
				C93.72,21.28,91.28,18.84,88.27,18.84z"/>
		</g>
		<g style="clip-path:url(#SVGID_00000021112484937271487890000007377233147743416495_);">
			<path class="st1" d="M113.61,30.34c-3.34,0-6.05-2.71-6.05-6.05c0-3.33,2.71-6.05,6.05-6.05c3.33,0,6.05,2.71,6.05,6.05
				C119.65,27.62,116.94,30.34,113.61,30.34z M113.61,18.84c-3,0-5.45,2.44-5.45,5.45c0,3,2.44,5.45,5.45,5.45
				c3,0,5.45-2.44,5.45-5.45C119.05,21.28,116.61,18.84,113.61,18.84z"/>
		</g>
	</g>
	<g>
		<rect x="31.41" y="22.68" class="st1" width="10.88" height="0.4"/>
	</g>
	<g>
		<rect x="82.83" y="22.68" class="st1" width="10.88" height="0.4"/>
	</g>
	<g>
		<rect x="108.16" y="22.68" class="st1" width="10.88" height="0.4"/>
	</g>
	<g>
		<defs>
			<rect id="SVGID_00000107580949902373780810000015575291605832495748_" width="124.11" height="86.67"/>
		</defs>
		<clipPath id="SVGID_00000152231824719423872410000006594999197630272954_">
			<use xlink:href="#SVGID_00000107580949902373780810000015575291605832495748_"  style="overflow:visible;"/>
		</clipPath>
		<g style="clip-path:url(#SVGID_00000152231824719423872410000006594999197630272954_);">
			<path class="st1" d="M35.14,24.71c0,0.17-0.14,0.31-0.31,0.31c-0.17,0-0.3-0.14-0.3-0.31c0-0.17,0.14-0.31,0.3-0.31
				C35,24.41,35.14,24.54,35.14,24.71"/>
		</g>
		<g style="clip-path:url(#SVGID_00000152231824719423872410000006594999197630272954_);">
			<path class="st1" d="M8.69,24.71c0,0.17-0.14,0.31-0.31,0.31c-0.17,0-0.3-0.14-0.3-0.31c0-0.17,0.14-0.31,0.3-0.31
				C8.55,24.41,8.69,24.54,8.69,24.71"/>
		</g>
		<g style="clip-path:url(#SVGID_00000152231824719423872410000006594999197630272954_);">
			<path class="st1" d="M86.56,24.71c0,0.17-0.14,0.31-0.31,0.31c-0.17,0-0.3-0.14-0.3-0.31c0-0.17,0.14-0.31,0.3-0.31
				C86.42,24.41,86.56,24.54,86.56,24.71"/>
		</g>
		<g style="clip-path:url(#SVGID_00000152231824719423872410000006594999197630272954_);">
			<path class="st1" d="M111.89,24.71c0,0.17-0.14,0.31-0.31,0.31c-0.17,0-0.3-0.14-0.3-0.31c0-0.17,0.14-0.31,0.3-0.31
				C111.76,24.41,111.89,24.54,111.89,24.71"/>
		</g>
		<g style="clip-path:url(#SVGID_00000152231824719423872410000006594999197630272954_);">
			<path class="st1" d="M39.28,24.71c0,0.17-0.14,0.31-0.31,0.31c-0.17,0-0.3-0.14-0.3-0.31c0-0.17,0.14-0.31,0.3-0.31
				C39.15,24.41,39.28,24.54,39.28,24.71"/>
		</g>
		<g style="clip-path:url(#SVGID_00000152231824719423872410000006594999197630272954_);">
			<path class="st1" d="M12.84,24.71c0,0.17-0.14,0.31-0.31,0.31c-0.17,0-0.3-0.14-0.3-0.31c0-0.17,0.14-0.31,0.3-0.31
				C12.7,24.41,12.84,24.54,12.84,24.71"/>
		</g>
		<g style="clip-path:url(#SVGID_00000152231824719423872410000006594999197630272954_);">
			<path class="st1" d="M90.71,24.71c0,0.17-0.14,0.31-0.31,0.31c-0.17,0-0.3-0.14-0.3-0.31c0-0.17,0.14-0.31,0.3-0.31
				C90.57,24.41,90.71,24.54,90.71,24.71"/>
		</g>
		<g style="clip-path:url(#SVGID_00000152231824719423872410000006594999197630272954_);">
			<path class="st1" d="M116.04,24.71c0,0.17-0.14,0.31-0.31,0.31c-0.17,0-0.3-0.14-0.3-0.31c0-0.17,0.14-0.31,0.3-0.31
				C115.9,24.41,116.04,24.54,116.04,24.71"/>
		</g>
		<g style="clip-path:url(#SVGID_00000152231824719423872410000006594999197630272954_);">
			<rect x="0.48" y="59.55" class="st1" width="20.29" height="0.4"/>
		</g>
	</g>
	<g>
		<rect x="52.91" y="59.55" class="st1" width="20.28" height="0.4"/>
	</g>
	<g>
		<defs>
			<rect id="SVGID_00000127018419415330905010000010813753420440831935_" width="124.11" height="86.67"/>
		</defs>
		<clipPath id="SVGID_00000093147092076931669820000017294102004205321111_">
			<use xlink:href="#SVGID_00000127018419415330905010000010813753420440831935_"  style="overflow:visible;"/>
		</clipPath>
		<g style="clip-path:url(#SVGID_00000093147092076931669820000017294102004205321111_);">
			<path class="st1" d="M16.41,86.67c-0.17,0-0.3-0.13-0.3-0.3v-7.32c0-0.17,0.13-0.3,0.3-0.3s0.3,0.13,0.3,0.3v7.32
				C16.71,86.53,16.57,86.67,16.41,86.67z M4.6,86.67c-0.17,0-0.3-0.13-0.3-0.3v-7.32c0-0.17,0.13-0.3,0.3-0.3s0.3,0.13,0.3,0.3
				v7.32C4.9,86.53,4.77,86.67,4.6,86.67z"/>
		</g>
		<g style="clip-path:url(#SVGID_00000093147092076931669820000017294102004205321111_);">
			<path class="st1" d="M68.84,86.67c-0.17,0-0.3-0.13-0.3-0.3v-7.32c0-0.17,0.13-0.3,0.3-0.3s0.3,0.13,0.3,0.3v7.32
				C69.14,86.53,69.01,86.67,68.84,86.67z M57.04,86.67c-0.17,0-0.3-0.13-0.3-0.3v-7.32c0-0.17,0.13-0.3,0.3-0.3s0.3,0.13,0.3,0.3
				v7.32C57.34,86.53,57.2,86.67,57.04,86.67z"/>
		</g>
	</g>
	<g>
		<path class="st1" d="M16.41,52.25c-0.19,0-0.35-0.16-0.35-0.35v-9.83c0-0.19,0.16-0.35,0.35-0.35s0.35,0.16,0.35,0.35v9.83
			C16.76,52.09,16.6,52.25,16.41,52.25z M4.6,52.25c-0.19,0-0.35-0.16-0.35-0.35v-9.83c0-0.19,0.16-0.35,0.35-0.35
			s0.35,0.16,0.35,0.35v9.83C4.95,52.09,4.79,52.25,4.6,52.25z"/>
	</g>
	<g>
		<path class="st1" d="M68.84,52.25c-0.19,0-0.35-0.16-0.35-0.35v-9.83c0-0.19,0.16-0.35,0.35-0.35s0.35,0.16,0.35,0.35v9.83
			C69.19,52.09,69.04,52.25,68.84,52.25z M57.03,52.25c-0.19,0-0.35-0.16-0.35-0.35v-9.83c0-0.19,0.16-0.35,0.35-0.35
			s0.35,0.16,0.35,0.35v9.83C57.38,52.09,57.23,52.25,57.03,52.25z"/>
	</g>
	<g>
		<defs>
			<rect id="SVGID_00000016774129026265832810000016870804544447331761_" width="124.11" height="86.67"/>
		</defs>
		<clipPath id="SVGID_00000168098245645452668410000010081471684240411553_">
			<use xlink:href="#SVGID_00000016774129026265832810000016870804544447331761_"  style="overflow:visible;"/>
		</clipPath>
		<g style="clip-path:url(#SVGID_00000168098245645452668410000010081471684240411553_);">
			<path class="st1" d="M20.64,79.11H0.3c-0.17,0-0.3-0.13-0.3-0.3v-36.4c0-5.91,4.79-10.93,10.47-10.97c0.02,0,0.04,0,0.06,0
				c2.6,0,5.11,1.07,7.09,3.02c2.14,2.11,3.37,5.01,3.39,7.94c0,0,0,0,0,0l-0.07,36.4C20.94,78.98,20.81,79.11,20.64,79.11z
				 M0.6,78.51h19.74l0.07-36.1c-0.02-2.78-1.19-5.52-3.21-7.52c-1.88-1.85-4.26-2.87-6.73-2.85C5.12,32.08,0.6,36.83,0.6,42.41
				V78.51z"/>
		</g>
		<g style="clip-path:url(#SVGID_00000168098245645452668410000010081471684240411553_);">
			<path class="st1" d="M73.07,79.11H52.73c-0.17,0-0.3-0.13-0.3-0.3v-36.4c0-5.91,4.79-10.93,10.47-10.97c0.02,0,0.04,0,0.06,0
				c2.6,0,5.11,1.07,7.09,3.02c2.14,2.11,3.37,5.01,3.39,7.94c0,0,0,0,0,0l-0.07,36.4C73.37,78.98,73.24,79.11,73.07,79.11z
				 M53.03,78.51h19.74l0.07-36.1c-0.02-2.78-1.19-5.52-3.21-7.52c-1.86-1.84-4.23-2.85-6.67-2.85c-0.02,0-0.04,0-0.06,0
				c-5.35,0.04-9.87,4.78-9.87,10.37V78.51z"/>
		</g>
		<g style="clip-path:url(#SVGID_00000168098245645452668410000010081471684240411553_);">
			<path class="st0" d="M16.25,22.88c-0.67-2.19-2.7-3.79-5.1-3.79s-4.44,1.6-5.1,3.79H16.25z"/>
		</g>
		<g style="clip-path:url(#SVGID_00000168098245645452668410000010081471684240411553_);">
			<path class="st0" d="M16.25,23H6.04c-0.04,0-0.08-0.02-0.1-0.05c-0.02-0.03-0.03-0.07-0.02-0.11c0.7-2.32,2.8-3.88,5.22-3.88
				c2.42,0,4.52,1.56,5.22,3.88c0.01,0.04,0,0.08-0.02,0.11C16.32,22.98,16.29,23,16.25,23z M6.21,22.75h9.86
				c-0.72-2.12-2.68-3.54-4.93-3.54C8.89,19.22,6.93,20.63,6.21,22.75z"/>
		</g>
		<g style="clip-path:url(#SVGID_00000168098245645452668410000010081471684240411553_);">
			<path class="st0" d="M68.68,22.88c-0.67-2.19-2.7-3.79-5.1-3.79c-2.4,0-4.44,1.6-5.1,3.79H68.68z"/>
		</g>
		<g style="clip-path:url(#SVGID_00000168098245645452668410000010081471684240411553_);">
			<path class="st0" d="M68.68,23h-10.2c-0.04,0-0.08-0.02-0.1-0.05c-0.02-0.03-0.03-0.07-0.02-0.11c0.7-2.32,2.8-3.88,5.22-3.88
				c2.42,0,4.52,1.56,5.22,3.88c0.01,0.04,0,0.08-0.02,0.11C68.76,22.98,68.72,23,68.68,23z M58.65,22.75h9.86
				c-0.72-2.12-2.68-3.54-4.93-3.54C61.33,19.22,59.37,20.63,58.65,22.75z"/>
		</g>
		<g style="clip-path:url(#SVGID_00000168098245645452668410000010081471684240411553_);">
			<path class="st1" d="M10.51,30.34c-3.34,0-6.05-2.71-6.05-6.05c0-3.33,2.71-6.05,6.05-6.05c3.33,0,6.05,2.71,6.05,6.05
				C16.55,27.62,13.84,30.34,10.51,30.34z M10.51,18.84c-3,0-5.45,2.44-5.45,5.45c0,3,2.44,5.45,5.45,5.45c3,0,5.45-2.44,5.45-5.45
				C15.95,21.28,13.51,18.84,10.51,18.84z"/>
		</g>
		<g style="clip-path:url(#SVGID_00000168098245645452668410000010081471684240411553_);">
			<path class="st1" d="M62.94,30.34c-3.34,0-6.05-2.71-6.05-6.05c0-3.33,2.71-6.05,6.05-6.05c3.33,0,6.05,2.71,6.05,6.05
				C68.99,27.62,66.27,30.34,62.94,30.34z M62.94,18.84c-3,0-5.45,2.44-5.45,5.45c0,3,2.44,5.45,5.45,5.45c3,0,5.45-2.44,5.45-5.45
				C68.39,21.28,65.94,18.84,62.94,18.84z"/>
		</g>
	</g>
	<g>
		<rect x="5.06" y="22.68" class="st1" width="10.88" height="0.4"/>
	</g>
	<g>
		<rect x="57.5" y="22.68" class="st1" width="10.88" height="0.4"/>
	</g>
	<g>
		<defs>
			<rect id="SVGID_00000176018178004972800580000017182929703476160434_" width="124.11" height="86.67"/>
		</defs>
		<clipPath id="SVGID_00000010989941102907346870000017821984587652838556_">
			<use xlink:href="#SVGID_00000176018178004972800580000017182929703476160434_"  style="overflow:visible;"/>
		</clipPath>
		<g style="clip-path:url(#SVGID_00000010989941102907346870000017821984587652838556_);">
			<path class="st1" d="M61.23,24.71c0,0.17-0.14,0.31-0.31,0.31c-0.17,0-0.3-0.14-0.3-0.31c0-0.17,0.14-0.31,0.3-0.31
				C61.09,24.41,61.23,24.54,61.23,24.71"/>
		</g>
		<g style="clip-path:url(#SVGID_00000010989941102907346870000017821984587652838556_);">
			<path class="st1" d="M65.37,24.71c0,0.17-0.14,0.31-0.31,0.31c-0.17,0-0.3-0.14-0.3-0.31c0-0.17,0.14-0.31,0.3-0.31
				C65.24,24.41,65.37,24.54,65.37,24.71"/>
		</g>
	</g>
	<g>
		<path class="st1" d="M62.87,79.11c-0.11,0-0.2-0.09-0.2-0.2V62.76c0-0.11,0.09-0.2,0.2-0.2s0.2,0.09,0.2,0.2v16.14
			C63.07,79.02,62.98,79.11,62.87,79.11z"/>
	</g>
	<g>
		<polygon class="st2" points="90.8,0.23 90.8,14.57 100.28,14.57 107.08,17.74 105.14,11.08 105.14,8 105.14,0.23 		"/>
	</g>
	<g>
		<polygon class="st0" points="90.87,0.63 90.87,14.98 99.59,14.98 106.39,18.15 104.46,11.48 104.46,8.4 104.46,0.63 		"/>
	</g>
	<g>
		<path class="st0" d="M106.39,18.24c-0.01,0-0.03,0-0.04-0.01l-6.78-3.16h-8.7c-0.05,0-0.09-0.04-0.09-0.09V0.63
			c0-0.05,0.04-0.09,0.09-0.09h13.59c0.05,0,0.09,0.04,0.09,0.09v10.84l1.93,6.65c0.01,0.04,0,0.07-0.03,0.1
			C106.44,18.23,106.42,18.24,106.39,18.24z M90.96,14.88h8.63c0.01,0,0.03,0,0.04,0.01l6.61,3.08l-1.88-6.46c0-0.01,0-0.02,0-0.03
			V0.73h-13.4V14.88z"/>
	</g>
	<g>
		<defs>
			<rect id="SVGID_00000047026509753347351690000002250844222075737739_" width="124.11" height="86.67"/>
		</defs>
		<clipPath id="SVGID_00000142868092947366474050000012917756556200665473_">
			<use xlink:href="#SVGID_00000047026509753347351690000002250844222075737739_"  style="overflow:visible;"/>
		</clipPath>
		<g style="clip-path:url(#SVGID_00000142868092947366474050000012917756556200665473_);">
			<path class="st1" d="M107.08,17.97c-0.03,0-0.06-0.01-0.1-0.02l-6.76-3.15h-9.44c-0.12,0-0.23-0.1-0.23-0.23V0.23
				c0-0.12,0.1-0.23,0.23-0.23h14.35c0.12,0,0.23,0.1,0.23,0.23v10.82l1.93,6.64c0.02,0.08,0,0.18-0.07,0.23
				C107.19,17.95,107.14,17.97,107.08,17.97z M91.02,14.35h9.26c0.03,0,0.07,0.01,0.1,0.02l6.36,2.96l-1.8-6.19
				c-0.01-0.02-0.01-0.04-0.01-0.06V0.45h-13.9V14.35z"/>
		</g>
	</g>
	<g>
		<path class="st1" d="M102.17,11.78h-8.36c-0.08,0-0.15-0.07-0.15-0.15s0.07-0.15,0.15-0.15h8.36c0.08,0,0.15,0.07,0.15,0.15
			S102.25,11.78,102.17,11.78z M102.17,9.74h-8.36c-0.08,0-0.15-0.07-0.15-0.15s0.07-0.15,0.15-0.15h8.36
			c0.08,0,0.15,0.07,0.15,0.15S102.25,9.74,102.17,9.74z M102.17,7.7h-8.36c-0.08,0-0.15-0.07-0.15-0.15s0.07-0.15,0.15-0.15h8.36
			c0.08,0,0.15,0.07,0.15,0.15S102.25,7.7,102.17,7.7z M102.17,5.66h-8.36c-0.08,0-0.15-0.07-0.15-0.15s0.07-0.15,0.15-0.15h8.36
			c0.08,0,0.15,0.07,0.15,0.15S102.25,5.66,102.17,5.66z M102.17,3.62h-8.36c-0.08,0-0.15-0.07-0.15-0.15s0.07-0.15,0.15-0.15h8.36
			c0.08,0,0.15,0.07,0.15,0.15S102.25,3.62,102.17,3.62z"/>
	</g>
	<g>
		<polygon class="st2" points="19.18,0.23 19.18,8 19.18,11.08 17.24,17.74 24.04,14.57 33.52,14.57 33.52,0.23 		"/>
	</g>
	<g>
		<polygon class="st0" points="19.86,0.63 19.86,8.4 19.86,11.48 17.92,18.15 24.73,14.98 33.45,14.98 33.45,0.63 		"/>
	</g>
	<g>
		<path class="st0" d="M17.92,18.24c-0.02,0-0.04-0.01-0.06-0.02c-0.03-0.02-0.04-0.06-0.03-0.1l1.93-6.65V0.63
			c0-0.05,0.04-0.09,0.09-0.09h13.59c0.05,0,0.09,0.04,0.09,0.09v14.34c0,0.05-0.04,0.09-0.09,0.09h-8.7l-6.78,3.16
			C17.95,18.24,17.94,18.24,17.92,18.24z M19.96,0.73v10.75c0,0.01,0,0.02,0,0.03l-1.88,6.46l6.61-3.08
			c0.01-0.01,0.03-0.01,0.04-0.01h8.63V0.73H19.96z"/>
	</g>
	<g>
		<defs>
			<rect id="SVGID_00000065063364524696818740000007703792741007822493_" width="124.11" height="86.67"/>
		</defs>
		<clipPath id="SVGID_00000070077945599768846200000009752192732100590479_">
			<use xlink:href="#SVGID_00000065063364524696818740000007703792741007822493_"  style="overflow:visible;"/>
		</clipPath>
		<g style="clip-path:url(#SVGID_00000070077945599768846200000009752192732100590479_);">
			<path class="st1" d="M17.23,17.97c-0.05,0-0.1-0.02-0.15-0.05c-0.07-0.06-0.09-0.15-0.07-0.23l1.93-6.64V0.23
				c0-0.12,0.1-0.23,0.23-0.23h14.35c0.12,0,0.23,0.1,0.23,0.23v14.35c0,0.12-0.1,0.23-0.23,0.23h-9.44l-6.76,3.15
				C17.3,17.97,17.27,17.97,17.23,17.97z M19.4,0.45v10.63c0,0.02,0,0.04-0.01,0.06l-1.8,6.19l6.36-2.96
				c0.03-0.01,0.06-0.02,0.1-0.02h9.26V0.45H19.4z"/>
		</g>
	</g>
	<g>
		<path class="st1" d="M30.51,11.78h-8.36c-0.08,0-0.15-0.07-0.15-0.15s0.07-0.15,0.15-0.15h8.36c0.08,0,0.15,0.07,0.15,0.15
			S30.59,11.78,30.51,11.78z M30.51,9.74h-8.36C22.06,9.74,22,9.67,22,9.59s0.07-0.15,0.15-0.15h8.36c0.08,0,0.15,0.07,0.15,0.15
			S30.59,9.74,30.51,9.74z M30.51,7.7h-8.36C22.06,7.7,22,7.63,22,7.55s0.07-0.15,0.15-0.15h8.36c0.08,0,0.15,0.07,0.15,0.15
			S30.59,7.7,30.51,7.7z M30.51,5.66h-8.36C22.06,5.66,22,5.59,22,5.51s0.07-0.15,0.15-0.15h8.36c0.08,0,0.15,0.07,0.15,0.15
			S30.59,5.66,30.51,5.66z M30.51,3.62h-8.36C22.06,3.62,22,3.55,22,3.47s0.07-0.15,0.15-0.15h8.36c0.08,0,0.15,0.07,0.15,0.15
			S30.59,3.62,30.51,3.62z"/>
	</g>
</g>
</svg>
