<?xml version="1.0" encoding="utf-8"?>
<!-- Generator: Adobe Illustrator 26.0.2, SVG Export Plug-In . SVG Version: 6.00 Build 0)  -->
<svg version="1.1" id="Ebene_1" xmlns="http://www.w3.org/2000/svg" xmlns:xlink="http://www.w3.org/1999/xlink" x="0px" y="0px"
	 viewBox="0 0 46.03 64.8" style="enable-background:new 0 0 46.03 64.8;" xml:space="preserve">
<style type="text/css">
	.st0{fill:#E59C00;}
	.st1{fill:#2B2961;}
	.st2{fill:#FFFFFF;}
	.st3{clip-path:url(#SVGID_00000070817863556221266170000016305591162817196947_);}
	.st4{clip-path:url(#SVGID_00000172416051706769398260000000551824408498869911_);}
	.st5{clip-path:url(#SVGID_00000181079391786668066290000017410603262925817250_);}
	.st6{clip-path:url(#SVGID_00000012448192886478674950000012577244329371641731_);}
	.st7{clip-path:url(#SVGID_00000069361764106794606950000010220347231075125950_);}
	.st8{clip-path:url(#SVGID_00000137104608754033561820000018384724306039775880_);}
	.st9{clip-path:url(#SVGID_00000005951111198613621630000017990842208234357422_);}
	.st10{clip-path:url(#SVGID_00000030487818561495037930000006673282898480808878_);}
	.st11{clip-path:url(#SVGID_00000135677475987929422160000015982560743050314403_);}
	.st12{clip-path:url(#SVGID_00000033334773052277891410000003672350325217416893_);}
	.st13{clip-path:url(#SVGID_00000053524132427270339750000016076767562493099420_);}
	.st14{clip-path:url(#SVGID_00000028286294054714932310000000234438269285380240_);}
	.st15{clip-path:url(#SVGID_00000024002714965120117090000011565259008485751181_);}
	.st16{clip-path:url(#SVGID_00000027569341254589622190000012911167392724396979_);}
	.st17{clip-path:url(#SVGID_00000085936139232583261420000008597670787119956671_);}
	.st18{clip-path:url(#SVGID_00000028283811024408047180000016346737366432239805_);}
	.st19{clip-path:url(#SVGID_00000071520814371830880840000012540523646573511868_);}
	.st20{clip-path:url(#SVGID_00000139287632351725619290000014846184441345162131_);}
	.st21{clip-path:url(#SVGID_00000178909825229694118040000003568413890351627160_);}
	.st22{clip-path:url(#SVGID_00000150062949200475155120000012409158435986235017_);}
	.st23{clip-path:url(#SVGID_00000092428783249900207080000016353909940343899822_);}
	.st24{clip-path:url(#SVGID_00000031895900630529842680000000007040802112080526_);}
	.st25{clip-path:url(#SVGID_00000152248224962039133350000017887143850108242353_);}
	.st26{clip-path:url(#SVGID_00000011721691972849196370000000182294003143850649_);}
	.st27{clip-path:url(#SVGID_00000074439839660817120440000007011833546174743996_);}
	.st28{clip-path:url(#SVGID_00000164488642386719304880000010534031013514378156_);}
	.st29{clip-path:url(#SVGID_00000022540528567934751380000013382099658558556055_);}
	.st30{clip-path:url(#SVGID_00000033350396923372186450000013591131884365267097_);}
	.st31{clip-path:url(#SVGID_00000044892338603091011130000000138654527358891930_);}
	.st32{clip-path:url(#SVGID_00000018925667377585669020000007395726147045470116_);}
	.st33{clip-path:url(#SVGID_00000044870264500787626440000009450739912748083878_);}
	.st34{clip-path:url(#SVGID_00000153684224530030795050000009727537306408090765_);}
	.st35{clip-path:url(#SVGID_00000002364414151682045320000003413142477331338642_);}
	.st36{clip-path:url(#SVGID_00000138552210718644601240000009329326981354567842_);}
	.st37{clip-path:url(#SVGID_00000067921867687755025100000004656683846731977108_);}
	.st38{clip-path:url(#SVGID_00000179626373244839497470000016182445638961242024_);}
	.st39{clip-path:url(#SVGID_00000109017910500917782310000012992271927647774907_);}
	.st40{clip-path:url(#SVGID_00000167378846906051938680000011771236741330077604_);}
	.st41{clip-path:url(#SVGID_00000148639335264328319170000005412554060328876185_);}
	.st42{clip-path:url(#SVGID_00000007429874171763290700000001482193513133567873_);}
	.st43{clip-path:url(#SVGID_00000155146397714995904750000003103025448308228008_);}
	.st44{clip-path:url(#SVGID_00000121984560770509913470000004697058124963797407_);}
	.st45{clip-path:url(#SVGID_00000011720984681821598190000001690027654181010825_);}
	.st46{clip-path:url(#SVGID_00000018945979077848881380000016195915964608952249_);}
	.st47{clip-path:url(#SVGID_00000128463612789870482310000013805454025037134498_);}
	.st48{clip-path:url(#SVGID_00000029037815338020797450000010733083763500944559_);}
	.st49{clip-path:url(#SVGID_00000139254122392741929460000006875949003835222665_);}
	.st50{clip-path:url(#SVGID_00000147183995968115733610000005417290041340065940_);}
	.st51{clip-path:url(#SVGID_00000132771049149630346570000014577488987137423517_);}
	.st52{clip-path:url(#SVGID_00000119823785883432480890000000844506117158726026_);}
	.st53{clip-path:url(#SVGID_00000180341031904731028260000002135477102893681836_);}
	.st54{clip-path:url(#SVGID_00000144321700271225678090000001669323465149729976_);}
	.st55{clip-path:url(#SVGID_00000153681681367895387770000013995803840624425116_);}
	.st56{clip-path:url(#SVGID_00000016042938052196512060000011958771096052021130_);}
	.st57{clip-path:url(#SVGID_00000117671190305755953040000008820221730113416845_);}
	.st58{clip-path:url(#SVGID_00000132790220423109803370000010456553965190098823_);}
	.st59{clip-path:url(#SVGID_00000033347186142588267060000013095248608356505787_);}
	.st60{clip-path:url(#SVGID_00000166660234951607132860000004273732902116338829_);}
	.st61{clip-path:url(#SVGID_00000180347208892118647290000016474312666073593774_);}
	.st62{clip-path:url(#SVGID_00000155145354503156658360000010076486933350415255_);}
	.st63{clip-path:url(#SVGID_00000042015555139913583140000003984877626448525440_);}
	.st64{clip-path:url(#SVGID_00000004532351543274536180000018329902683459261106_);}
	.st65{clip-path:url(#SVGID_00000048490110593983712840000014062571522000546737_);}
	.st66{clip-path:url(#SVGID_00000016784825880058738930000013880439656716680610_);}
	.st67{clip-path:url(#SVGID_00000078017014690284637970000008048795749722975874_);}
	.st68{clip-path:url(#SVGID_00000117665181270139461330000018291447143809471401_);}
	.st69{clip-path:url(#SVGID_00000037687268592793992330000016623074062614498705_);}
	.st70{clip-path:url(#SVGID_00000029034690726132103920000018217198413955734694_);}
	.st71{clip-path:url(#SVGID_00000038398901862980764720000011925190114048249746_);}
	.st72{clip-path:url(#SVGID_00000031910869852682965570000011392413410167778982_);}
	.st73{clip-path:url(#SVGID_00000154399061451979636970000006754006799568887741_);}
	.st74{clip-path:url(#SVGID_00000179639292794740505990000003416670062154087573_);}
	.st75{clip-path:url(#SVGID_00000079474417847650168850000003793257095967892614_);}
	.st76{clip-path:url(#SVGID_00000105405499393422742940000000449022593311187870_);}
	.st77{clip-path:url(#SVGID_00000167375059273108535610000018420429704899573666_);}
	.st78{clip-path:url(#SVGID_00000052064692519961230700000015425421407036958136_);}
	.st79{clip-path:url(#SVGID_00000071521131516984715140000012661048771675349170_);}
	.st80{clip-path:url(#SVGID_00000135679090990098152890000017758836596971724167_);}
	.st81{clip-path:url(#SVGID_00000149342874247750623410000009589198762781073036_);}
	.st82{clip-path:url(#SVGID_00000090999747652649451410000004584573186061707664_);}
	.st83{fill:none;}
	.st84{clip-path:url(#SVGID_00000142145941438463770510000003849907533572588478_);}
	.st85{clip-path:url(#SVGID_00000092454030042577881320000001798100097994859190_);}
	.st86{clip-path:url(#SVGID_00000150824379575850277550000009152639443477987499_);}
	.st87{clip-path:url(#SVGID_00000066504458905396613200000000264061033889340800_);}
	.st88{clip-path:url(#SVGID_00000015345236701156146760000015908704025767381391_);}
	.st89{clip-path:url(#SVGID_00000070824833418454108620000003616738531683939489_);}
	.st90{clip-path:url(#SVGID_00000178169051532856877280000002130964106027279791_);}
	.st91{clip-path:url(#SVGID_00000124881428421246881110000001743100964977382784_);}
	.st92{clip-path:url(#SVGID_00000138535154104272918780000002266631579749873042_);}
	.st93{clip-path:url(#SVGID_00000101802106831453000600000002690247277411567287_);}
	.st94{clip-path:url(#SVGID_00000095305590891989740230000007900770436497250736_);}
	.st95{clip-path:url(#SVGID_00000069358084148787810630000018156064002786680749_);}
	.st96{clip-path:url(#SVGID_00000023266739741624542630000001240989084008846254_);}
	.st97{clip-path:url(#SVGID_00000011724114228302592350000018242709261334596247_);}
	.st98{clip-path:url(#SVGID_00000035524626542106421880000007420536180309440646_);}
	.st99{clip-path:url(#SVGID_00000091709250374955872140000006105668252253167024_);}
	.st100{clip-path:url(#SVGID_00000124151585446884321790000012859798019143893695_);}
	.st101{clip-path:url(#SVGID_00000086660606188826893250000007477152996707738809_);}
	.st102{clip-path:url(#SVGID_00000003794765759857140680000004561650323332094616_);}
	.st103{clip-path:url(#SVGID_00000114785533335870659110000002900720306802001282_);}
	.st104{clip-path:url(#SVGID_00000101794327922571430430000008027801884113043358_);}
	.st105{clip-path:url(#SVGID_00000131359472885654191500000008576935483518167226_);}
	.st106{clip-path:url(#SVGID_00000129200826934413589450000009398431166644015529_);}
	.st107{clip-path:url(#SVGID_00000157290144347906657070000012637251637824116887_);}
	.st108{clip-path:url(#SVGID_00000147213572735028455660000000842000015315751849_);}
	.st109{clip-path:url(#SVGID_00000173155965408173124890000015247753942622414996_);}
	.st110{clip-path:url(#SVGID_00000181779325359428905650000017298508015869179538_);}
	.st111{clip-path:url(#SVGID_00000074409051478677743250000015811985622831072143_);}
	.st112{clip-path:url(#SVGID_00000147194982975754906870000013659288318311687581_);}
	.st113{clip-path:url(#SVGID_00000093144958807145320150000011634351191161058226_);}
	.st114{clip-path:url(#SVGID_00000005984447910139301990000014419821982839948722_);}
	.st115{clip-path:url(#SVGID_00000165934835751921937750000002336243766130628516_);}
	.st116{clip-path:url(#SVGID_00000181804157764594132410000006939140292163798159_);}
	.st117{clip-path:url(#SVGID_00000139294411328923307180000006568253663245549991_);}
	.st118{clip-path:url(#SVGID_00000051342876918516068450000004613948132257379474_);}
	.st119{clip-path:url(#SVGID_00000054236036122754133220000002222144108526494862_);}
	.st120{clip-path:url(#SVGID_00000069388848369909890650000004369491018625705104_);}
	.st121{clip-path:url(#SVGID_00000123417024091638956100000010198017435453841591_);}
	.st122{clip-path:url(#SVGID_00000108990645823295775740000000376649519498368920_);}
	.st123{clip-path:url(#SVGID_00000176035387692578802340000003111714798122304142_);}
	.st124{clip-path:url(#SVGID_00000106857596104385020920000009102330179338400425_);}
	.st125{clip-path:url(#SVGID_00000005247946149868602620000002687303609771850401_);}
	.st126{clip-path:url(#SVGID_00000034797767996699100430000011532091336927916213_);}
	.st127{clip-path:url(#SVGID_00000046311661137424268090000012170195527576651144_);}
	.st128{clip-path:url(#SVGID_00000078754149033303676780000010367106826527728290_);}
	.st129{clip-path:url(#SVGID_00000029016218934865147670000007562591748053104260_);}
	.st130{clip-path:url(#SVGID_00000132777658646801734420000002333922111315655593_);}
	.st131{clip-path:url(#SVGID_00000014621063288833885760000008841875551778271387_);}
	.st132{clip-path:url(#SVGID_00000023251317613247954380000005890577607223651495_);}
	.st133{clip-path:url(#SVGID_00000023970290438517871050000011156701244396639628_);}
	.st134{clip-path:url(#SVGID_00000152978663240883287730000005469125355417923476_);}
	.st135{clip-path:url(#SVGID_00000122700939042168145650000001144482631064278703_);}
	.st136{clip-path:url(#SVGID_00000177448827748889954150000012513070321232030343_);}
	.st137{clip-path:url(#SVGID_00000131356959574735415020000006341038701682893502_);}
	.st138{clip-path:url(#SVGID_00000168106787081132106430000005029688733808354201_);}
	.st139{clip-path:url(#SVGID_00000070104137339812244050000013060746742380470458_);}
	.st140{clip-path:url(#SVGID_00000130628149009408903640000015328195753697583038_);}
	.st141{clip-path:url(#SVGID_00000177442708976426555410000001293027799877032330_);}
	.st142{clip-path:url(#SVGID_00000080899185334123114270000000900139125617341625_);}
	.st143{clip-path:url(#SVGID_00000135684997890278627280000015141301805603041952_);}
	.st144{clip-path:url(#SVGID_00000142161290726488192860000013640948691532289939_);}
	.st145{clip-path:url(#SVGID_00000120552608691509169140000011803356240856188839_);}
	.st146{clip-path:url(#SVGID_00000110442943936809324250000003527079987989334427_);}
	.st147{clip-path:url(#SVGID_00000045581711931301589210000011449196477342764192_);}
	.st148{clip-path:url(#SVGID_00000053532411757389068890000003937794389968889222_);}
	.st149{clip-path:url(#SVGID_00000043445565234884350060000005361303399405383048_);}
	.st150{clip-path:url(#SVGID_00000123413162912245081250000004704282365151159220_);}
	.st151{clip-path:url(#SVGID_00000039827248323589098360000012521521641736365479_);}
	.st152{clip-path:url(#SVGID_00000055688143433417238940000003430367255793776036_);}
	.st153{clip-path:url(#SVGID_00000051377672337684871720000017846914008369628813_);}
	.st154{clip-path:url(#SVGID_00000038393394377188663360000005611420296125705374_);}
	.st155{clip-path:url(#SVGID_00000141416020873011999160000004739349982157901196_);}
	.st156{clip-path:url(#SVGID_00000150801565960813128890000003833578422385749416_);}
	.st157{clip-path:url(#SVGID_00000005233603045601985840000014617590463196603322_);}
	.st158{clip-path:url(#SVGID_00000161603871004843747690000012034951155472520347_);}
	.st159{clip-path:url(#SVGID_00000168836761230480667100000005051443718055669946_);}
	.st160{clip-path:url(#SVGID_00000036929683214644112470000000126284613624357543_);}
	.st161{clip-path:url(#SVGID_00000080894591906767637540000015925137656908216493_);}
	.st162{clip-path:url(#SVGID_00000181059038358148914190000006041795323308748949_);}
	.st163{clip-path:url(#SVGID_00000173122337078942356440000001342908362826435261_);}
	.st164{clip-path:url(#SVGID_00000016054864611557103880000017363592730093783463_);}
	.st165{clip-path:url(#SVGID_00000169535751188807856860000011693838577648665224_);}
	.st166{clip-path:url(#SVGID_00000044159520621111366460000007487870253257139089_);}
	.st167{clip-path:url(#SVGID_00000159453941309924603400000017523553475441151625_);}
	.st168{clip-path:url(#SVGID_00000172411454689375917270000006558057870922961837_);}
	.st169{clip-path:url(#SVGID_00000162330512963380861580000008796088953478955403_);}
	.st170{clip-path:url(#SVGID_00000117673783113133963540000002933680105596293531_);}
	.st171{clip-path:url(#SVGID_00000167357485374873717680000014118136821568972192_);}
	.st172{clip-path:url(#SVGID_00000025417269617229019290000003194177604025544614_);}
	.st173{clip-path:url(#SVGID_00000167386612835034797370000015818018301229685666_);}
	.st174{clip-path:url(#SVGID_00000023997086164507240540000011816087864887598733_);}
	.st175{clip-path:url(#SVGID_00000151543965499520257270000017207819626345898386_);}
	.st176{clip-path:url(#SVGID_00000170252875412838313860000005800969171428481209_);}
	.st177{clip-path:url(#SVGID_00000008857821130770899340000006179285546978313123_);}
	.st178{clip-path:url(#SVGID_00000005244202299539915460000000165673314444669830_);}
	.st179{clip-path:url(#SVGID_00000051357508482754590220000006188252478402347452_);}
	.st180{clip-path:url(#SVGID_00000057860378023550949220000006415725309149798046_);}
	.st181{clip-path:url(#SVGID_00000158723841030530796480000015198568874081781425_);}
	.st182{clip-path:url(#SVGID_00000145048203396097524310000012376808125829715618_);}
	.st183{clip-path:url(#SVGID_00000161601590977961489490000004834626538130963641_);}
	.st184{clip-path:url(#SVGID_00000009590515718624516450000001376209463940013223_);}
	.st185{clip-path:url(#SVGID_00000118382249734057375860000004266068151888569765_);}
	.st186{clip-path:url(#SVGID_00000062904330428622608760000014159732282151359890_);}
</style>
<g>
	<g>
		<polygon class="st2" points="0.3,0.3 0.3,64.5 36.41,64.5 45.73,55.19 45.73,0.3 		"/>
	</g>
	<g>
		<defs>
			<rect id="SVGID_00000074415924421003987070000004404856649940876990_" width="46.03" height="64.8"/>
		</defs>
		<clipPath id="SVGID_00000075120263155702655070000001502350417680846503_">
			<use xlink:href="#SVGID_00000074415924421003987070000004404856649940876990_"  style="overflow:visible;"/>
		</clipPath>
		<g style="clip-path:url(#SVGID_00000075120263155702655070000001502350417680846503_);">
			<path class="st1" d="M36.41,64.8H0.3c-0.17,0-0.3-0.13-0.3-0.3V0.3C0,0.13,0.13,0,0.3,0h45.43c0.17,0,0.3,0.13,0.3,0.3v54.89
				c0,0.08-0.03,0.16-0.09,0.21l-9.32,9.31C36.57,64.77,36.49,64.8,36.41,64.8z M0.6,64.2h35.69l9.15-9.13V0.6H0.6V64.2z"/>
		</g>
	</g>
	<g>
		<polygon class="st2" points="36.68,55.44 36.68,64.52 45.75,55.44 		"/>
	</g>
	<g>
		<defs>
			<rect id="SVGID_00000101076819185613473690000003471929278380781734_" width="46.03" height="64.8"/>
		</defs>
		<clipPath id="SVGID_00000059304506490471898490000017202577185789042866_">
			<use xlink:href="#SVGID_00000101076819185613473690000003471929278380781734_"  style="overflow:visible;"/>
		</clipPath>
		<g style="clip-path:url(#SVGID_00000059304506490471898490000017202577185789042866_);">
			<path class="st1" d="M36.68,64.79c-0.04,0-0.07-0.01-0.11-0.02c-0.1-0.04-0.17-0.14-0.17-0.26v-9.07c0-0.15,0.12-0.28,0.28-0.28
				h9.07c0.11,0,0.21,0.07,0.26,0.17c0.04,0.1,0.02,0.22-0.06,0.3l-9.07,9.07C36.82,64.77,36.75,64.79,36.68,64.79z M36.95,55.72
				v8.13l8.13-8.13H36.95z"/>
		</g>
	</g>
	<g>
		<polygon class="st0" points="37.27,55.41 37.23,63.87 45.73,55.34 		"/>
	</g>
	<g>
		<path class="st0" d="M37.11,64.16l0.04-8.87l8.87-0.07L37.11,64.16z M37.39,55.53l-0.03,8.06l8.08-8.12L37.39,55.53z"/>
	</g>
	<g>
		<defs>
			<rect id="SVGID_00000164488141570102602920000004439665403875324544_" width="46.03" height="64.8"/>
		</defs>
		<clipPath id="SVGID_00000091733032950806503460000002129216340161232774_">
			<use xlink:href="#SVGID_00000164488141570102602920000004439665403875324544_"  style="overflow:visible;"/>
		</clipPath>
		<g style="clip-path:url(#SVGID_00000091733032950806503460000002129216340161232774_);">
			<path class="st1" d="M36.69,64.8c-0.04,0-0.08-0.01-0.11-0.02c-0.11-0.05-0.19-0.16-0.19-0.28v-9.04c0-0.17,0.13-0.3,0.3-0.3
				h9.04c0.12,0,0.23,0.07,0.28,0.19c0.05,0.11,0.02,0.24-0.07,0.33l-9.04,9.04C36.85,64.77,36.77,64.8,36.69,64.8z M36.99,55.76
				v8.02l8.02-8.02H36.99z"/>
		</g>
	</g>
	<g>
		<path class="st1" d="M43.88,7.66H1.98c-0.17,0-0.3-0.13-0.3-0.3s0.13-0.3,0.3-0.3h41.9c0.17,0,0.3,0.13,0.3,0.3
			S44.04,7.66,43.88,7.66z"/>
	</g>
	<g>
		<path class="st1" d="M22,15.71H2.04v-6H22V15.71z M2.64,15.11H21.4v-4.8H2.64V15.11z"/>
	</g>
	<g>
		<path class="st1" d="M22,22.81H2.04v-6H22V22.81z M2.64,22.21H21.4v-4.8H2.64V22.21z"/>
	</g>
	<g>
		<path class="st1" d="M43.82,27.58H2.04v-2.66h41.78V27.58z M2.64,26.98h40.58v-1.46H2.64V26.98z"/>
	</g>
	<g>
		<path class="st1" d="M43.82,29.67H2.04v-2.65h41.78V29.67z M2.64,29.07h40.58v-1.46H2.64V29.07z"/>
	</g>
	<g>
		<path class="st1" d="M43.82,15.77H25.59v-6h18.23V15.77z M26.19,15.17h17.03v-4.8H26.19V15.17z"/>
	</g>
	<g>
		<rect x="21.36" y="25.09" class="st1" width="0.6" height="2.31"/>
	</g>
	<g>
		<rect x="26.69" y="24.92" class="st1" width="0.6" height="2.65"/>
	</g>
	<g>
		<rect x="20.54" y="27.4" class="st1" width="0.6" height="2.02"/>
	</g>
	<g>
		<rect x="29.71" y="27.4" class="st1" width="0.6" height="2.02"/>
	</g>
	<g>
		<path class="st1" d="M20.82,34.25H2.48c-0.17,0-0.3-0.13-0.3-0.3s0.13-0.3,0.3-0.3h18.35c0.17,0,0.3,0.13,0.3,0.3
			S20.99,34.25,20.82,34.25z"/>
	</g>
	<g>
		<path class="st1" d="M44.37,37.26H2.48c-0.17,0-0.3-0.13-0.3-0.3s0.13-0.3,0.3-0.3h41.9c0.17,0,0.3,0.13,0.3,0.3
			S44.54,37.26,44.37,37.26z"/>
	</g>
	<g>
		<path class="st1" d="M41.39,38.69H2.48c-0.17,0-0.3-0.13-0.3-0.3s0.13-0.3,0.3-0.3h38.91c0.17,0,0.3,0.13,0.3,0.3
			S41.56,38.69,41.39,38.69z"/>
	</g>
	<g>
		<path class="st1" d="M39.5,41.48H16.86c-0.17,0-0.3-0.13-0.3-0.3s0.13-0.3,0.3-0.3H39.5c0.17,0,0.3,0.13,0.3,0.3
			S39.66,41.48,39.5,41.48z"/>
	</g>
	<g>
		<path class="st1" d="M39.5,43.28H16.86c-0.17,0-0.3-0.13-0.3-0.3s0.13-0.3,0.3-0.3H39.5c0.17,0,0.3,0.13,0.3,0.3
			S39.66,43.28,39.5,43.28z"/>
	</g>
	<g>
		<path class="st1" d="M39.5,44.85H16.86c-0.17,0-0.3-0.13-0.3-0.3s0.13-0.3,0.3-0.3H39.5c0.17,0,0.3,0.13,0.3,0.3
			S39.66,44.85,39.5,44.85z"/>
	</g>
	<g>
		<path class="st1" d="M43.88,50.19H3.06c-0.17,0-0.3-0.13-0.3-0.3s0.13-0.3,0.3-0.3h40.82c0.17,0,0.3,0.13,0.3,0.3
			S44.04,50.19,43.88,50.19z"/>
	</g>
	<g>
		<path class="st1" d="M41.22,51.36H3.06c-0.17,0-0.3-0.13-0.3-0.3s0.13-0.3,0.3-0.3h38.16c0.17,0,0.3,0.13,0.3,0.3
			S41.38,51.36,41.22,51.36z"/>
	</g>
	<g>
		<path class="st1" d="M43.88,52.46H3.06c-0.17,0-0.3-0.13-0.3-0.3s0.13-0.3,0.3-0.3h40.82c0.17,0,0.3,0.13,0.3,0.3
			S44.04,52.46,43.88,52.46z"/>
	</g>
	<g>
		<path class="st1" d="M41.22,53.73H3.06c-0.17,0-0.3-0.13-0.3-0.3s0.13-0.3,0.3-0.3h38.16c0.17,0,0.3,0.13,0.3,0.3
			S41.38,53.73,41.22,53.73z"/>
	</g>
	<g>
		<path class="st1" d="M36.11,54.99H3.06c-0.17,0-0.3-0.13-0.3-0.3s0.13-0.3,0.3-0.3h33.06c0.17,0,0.3,0.13,0.3,0.3
			S36.28,54.99,36.11,54.99z"/>
	</g>
	<g>
		<path class="st1" d="M36.11,56.25H3.06c-0.17,0-0.3-0.13-0.3-0.3s0.13-0.3,0.3-0.3h33.06c0.17,0,0.3,0.13,0.3,0.3
			S36.28,56.25,36.11,56.25z"/>
	</g>
	<g>
		<path class="st1" d="M36.11,57.52H3.06c-0.17,0-0.3-0.13-0.3-0.3s0.13-0.3,0.3-0.3h33.06c0.17,0,0.3,0.13,0.3,0.3
			S36.28,57.52,36.11,57.52z"/>
	</g>
	<g>
		<rect x="3.06" y="58.18" class="st1" width="33.06" height="0.6"/>
	</g>
	<g>
		<rect x="3.06" y="59.42" class="st1" width="33.06" height="0.6"/>
	</g>
</g>
</svg>
