<?xml version="1.0" encoding="utf-8"?>
<!-- Generator: Adobe Illustrator 26.0.2, SVG Export Plug-In . SVG Version: 6.00 Build 0)  -->
<svg version="1.1" id="Ebene_1" xmlns="http://www.w3.org/2000/svg" xmlns:xlink="http://www.w3.org/1999/xlink" x="0px" y="0px"
	 viewBox="0 0 33.87 32.74" style="enable-background:new 0 0 33.87 32.74;" xml:space="preserve">
<style type="text/css">
	.st0{fill:#E59C00;}
	.st1{fill:#2B2961;}
	.st2{fill:#FFFFFF;}
	.st3{clip-path:url(#SVGID_00000091725151617363494990000004621487118208035204_);}
	.st4{clip-path:url(#SVGID_00000132794224721998378060000009287153764862227111_);}
	.st5{clip-path:url(#SVGID_00000016069751852938824340000000484237004170514603_);}
	.st6{clip-path:url(#SVGID_00000071543229846962979130000010646341250543098544_);}
	.st7{clip-path:url(#SVGID_00000110459663094576055010000017187658114186573475_);}
	.st8{clip-path:url(#SVGID_00000069392972738730846130000000195485766292058259_);}
	.st9{clip-path:url(#SVGID_00000128478343263601573090000011406111454145336503_);}
	.st10{clip-path:url(#SVGID_00000041289415487474718600000017448605910716621199_);}
	.st11{clip-path:url(#SVGID_00000075138363275423117380000016300781948960219026_);}
	.st12{clip-path:url(#SVGID_00000152260736418406579510000009906873969613143713_);}
	.st13{clip-path:url(#SVGID_00000101073356343779708950000017928680964977034391_);}
	.st14{clip-path:url(#SVGID_00000155109026919121905580000008253586123490540967_);}
	.st15{clip-path:url(#SVGID_00000092449320601806456360000016859025296485805200_);}
	.st16{clip-path:url(#SVGID_00000109726407624723104510000009375561037866180782_);}
	.st17{clip-path:url(#SVGID_00000050656318526922641630000014109068354972788116_);}
	.st18{clip-path:url(#SVGID_00000009589179843232197430000008851574423719626910_);}
	.st19{clip-path:url(#SVGID_00000033367811718961034800000000500376057167794111_);}
	.st20{clip-path:url(#SVGID_00000103244088197553450090000017857759607759741313_);}
	.st21{clip-path:url(#SVGID_00000049181161605729395710000007642235753992908447_);}
	.st22{clip-path:url(#SVGID_00000091734727251142606650000011587039669994768572_);}
	.st23{clip-path:url(#SVGID_00000051380908351658534440000002126779312924329134_);}
	.st24{clip-path:url(#SVGID_00000061470929357386923400000005517002659734955951_);}
	.st25{clip-path:url(#SVGID_00000101805013044935270720000006474920255363635597_);}
	.st26{clip-path:url(#SVGID_00000154383497371521159270000007167528464172883898_);}
	.st27{clip-path:url(#SVGID_00000081616704751865659990000003426104458342713743_);}
	.st28{clip-path:url(#SVGID_00000015332417735792091070000010502827266546543279_);}
	.st29{clip-path:url(#SVGID_00000180332630011726185720000013813861538121280673_);}
	.st30{clip-path:url(#SVGID_00000087383122482433410700000005019318030121041040_);}
	.st31{clip-path:url(#SVGID_00000181082873131629343230000005153636402731227059_);}
	.st32{clip-path:url(#SVGID_00000125603909399856111010000018199192648116141453_);}
	.st33{clip-path:url(#SVGID_00000145022046941783775880000007545421092447412145_);}
	.st34{clip-path:url(#SVGID_00000052106579294322448590000016433421520256298644_);}
	.st35{clip-path:url(#SVGID_00000157996874949558500700000016345047110554409373_);}
	.st36{clip-path:url(#SVGID_00000173120613419990934180000015436263459956387230_);}
	.st37{clip-path:url(#SVGID_00000052795378551071328140000014446563871465376400_);}
	.st38{clip-path:url(#SVGID_00000154410100226846536270000007004092893955660445_);}
	.st39{clip-path:url(#SVGID_00000168106248301086419650000004667192536995518116_);}
	.st40{clip-path:url(#SVGID_00000164514311233930586590000007527284423529724053_);}
	.st41{clip-path:url(#SVGID_00000037652518988776358960000017534136462749255585_);}
	.st42{clip-path:url(#SVGID_00000124159655691840457750000001823663115602991755_);}
	.st43{clip-path:url(#SVGID_00000016066210930632921860000016533086948792037037_);}
	.st44{clip-path:url(#SVGID_00000129201095919517315950000002745781661993802894_);}
	.st45{clip-path:url(#SVGID_00000085943202767173168600000001741794903382827454_);}
	.st46{clip-path:url(#SVGID_00000122701256356254557880000002208714839815814800_);}
	.st47{clip-path:url(#SVGID_00000009556088629066631740000012427684700229499012_);}
	.st48{clip-path:url(#SVGID_00000072959254494155406260000012767077861935924155_);}
	.st49{clip-path:url(#SVGID_00000066485763696208304070000000314415559877908148_);}
	.st50{clip-path:url(#SVGID_00000026884771447180060290000001861546961767165885_);}
	.st51{clip-path:url(#SVGID_00000175319908431382628340000011063768204081234078_);}
	.st52{clip-path:url(#SVGID_00000150062610114238787200000013960304961537802368_);}
	.st53{clip-path:url(#SVGID_00000057132601364721748390000007437162265414514868_);}
	.st54{clip-path:url(#SVGID_00000031199589737921058470000015806641508447909042_);}
	.st55{clip-path:url(#SVGID_00000147941802031881320550000016977709713614293163_);}
	.st56{clip-path:url(#SVGID_00000060001324238231627660000008295290813153442187_);}
	.st57{clip-path:url(#SVGID_00000082356814302515394870000018174980795127591597_);}
	.st58{clip-path:url(#SVGID_00000176726548863345131210000015752974753278152347_);}
	.st59{clip-path:url(#SVGID_00000092431979562397179200000012254363423181040551_);}
	.st60{clip-path:url(#SVGID_00000016077479565118938770000012087243710636843151_);}
	.st61{clip-path:url(#SVGID_00000173149811919327551200000000309160337425200288_);}
	.st62{clip-path:url(#SVGID_00000156556100706386494060000002918308239484695436_);}
	.st63{clip-path:url(#SVGID_00000071522076124495753660000011927311646989259421_);}
	.st64{clip-path:url(#SVGID_00000070119139661892974630000000232812720584940689_);}
	.st65{clip-path:url(#SVGID_00000130608330090863505180000018417238686851646130_);}
	.st66{clip-path:url(#SVGID_00000052797453657941072220000015765704637000704442_);}
	.st67{clip-path:url(#SVGID_00000091711622400815793710000014116884773544855692_);}
	.st68{clip-path:url(#SVGID_00000076577269132736920130000010245640212943347889_);}
	.st69{clip-path:url(#SVGID_00000120529580215437567630000009365986103889931907_);}
	.st70{clip-path:url(#SVGID_00000090289355030033364980000001167981265845521852_);}
	.st71{clip-path:url(#SVGID_00000017493070588508351520000002227073191200796593_);}
	.st72{clip-path:url(#SVGID_00000156564683334459639840000009975691455745968039_);}
	.st73{clip-path:url(#SVGID_00000021837751094499651670000004182414863128624564_);}
	.st74{clip-path:url(#SVGID_00000062871995174260141680000009080598245822511000_);}
	.st75{clip-path:url(#SVGID_00000041982414335451607870000001513735117994321327_);}
	.st76{clip-path:url(#SVGID_00000168091693224776585050000004845215010709578646_);}
	.st77{clip-path:url(#SVGID_00000016769377820287504870000001112151617264518588_);}
	.st78{clip-path:url(#SVGID_00000011734126326879591630000010388138993320960402_);}
	.st79{clip-path:url(#SVGID_00000031178451062757929670000009315278308127695290_);}
	.st80{clip-path:url(#SVGID_00000079486595924385065840000006793745357615431575_);}
	.st81{clip-path:url(#SVGID_00000134237744346409258460000004520851373203126921_);}
	.st82{clip-path:url(#SVGID_00000007425361701799072950000003079847587144049312_);}
	.st83{fill:none;}
	.st84{clip-path:url(#SVGID_00000065076440105118869580000006881838369135000229_);}
	.st85{clip-path:url(#SVGID_00000166652455065628151980000005630487268994732218_);}
	.st86{clip-path:url(#SVGID_00000070828303063489116160000009045093464089000841_);}
	.st87{clip-path:url(#SVGID_00000003076657393942042540000007664426153256856226_);}
	.st88{clip-path:url(#SVGID_00000123437078710192277880000016081626748180639147_);}
	.st89{clip-path:url(#SVGID_00000067223907553325926670000009268638539768564103_);}
	.st90{clip-path:url(#SVGID_00000027567180864281312240000010532533149780566970_);}
	.st91{clip-path:url(#SVGID_00000020378573929326450820000010984584226492537015_);}
	.st92{clip-path:url(#SVGID_00000025419548346436232860000007264628315711095222_);}
	.st93{clip-path:url(#SVGID_00000183245073998715010710000011292889370396443547_);}
	.st94{clip-path:url(#SVGID_00000124123012160399521190000018061473143154058170_);}
	.st95{clip-path:url(#SVGID_00000130622760799545632030000010937369324627006617_);}
	.st96{clip-path:url(#SVGID_00000158744390314203920450000007861933047293771663_);}
	.st97{clip-path:url(#SVGID_00000018231215557982409610000004325499414767336881_);}
	.st98{clip-path:url(#SVGID_00000001653908232708741260000012029842175463882135_);}
	.st99{clip-path:url(#SVGID_00000166635586552322457660000011365153538529894579_);}
	.st100{clip-path:url(#SVGID_00000145026287984828206030000015960644354306297514_);}
	.st101{clip-path:url(#SVGID_00000038404721520212624720000000607222079122771332_);}
	.st102{clip-path:url(#SVGID_00000128487445486255992780000014471118628983656126_);}
	.st103{clip-path:url(#SVGID_00000070834691858033715300000006548208746416110233_);}
	.st104{clip-path:url(#SVGID_00000130620412579240553140000016002093349672620431_);}
	.st105{clip-path:url(#SVGID_00000093165937264407987270000012624465209793662084_);}
	.st106{clip-path:url(#SVGID_00000115478581269597338130000008924769308055763376_);}
	.st107{clip-path:url(#SVGID_00000121271517587570532450000013191567674333591219_);}
	.st108{clip-path:url(#SVGID_00000023258999791732126280000002662597346560643007_);}
	.st109{clip-path:url(#SVGID_00000177458823803891416530000000651182801910292877_);}
	.st110{clip-path:url(#SVGID_00000016765525045136043570000004765561887666775439_);}
	.st111{clip-path:url(#SVGID_00000109740301423713071210000002233447820753798047_);}
	.st112{clip-path:url(#SVGID_00000101788926049433868800000013677297859789004217_);}
	.st113{clip-path:url(#SVGID_00000169533211452950971820000006539304956088473522_);}
	.st114{clip-path:url(#SVGID_00000150060403110450714240000017661021337613992117_);}
	.st115{clip-path:url(#SVGID_00000178921487234947968970000013074461687945689497_);}
	.st116{clip-path:url(#SVGID_00000028291947618613157350000001489196162126117782_);}
	.st117{clip-path:url(#SVGID_00000020379433662952591740000007086847001476038566_);}
	.st118{clip-path:url(#SVGID_00000098913134812368492030000000561243079755480232_);}
	.st119{clip-path:url(#SVGID_00000003087459739776088510000017756117388701462711_);}
	.st120{clip-path:url(#SVGID_00000023262922328671423840000009218301072925601699_);}
	.st121{clip-path:url(#SVGID_00000052782534533743564570000002898385713919619513_);}
	.st122{clip-path:url(#SVGID_00000131339799845015541730000014723319162493967491_);}
	.st123{clip-path:url(#SVGID_00000048489264389988990900000002766429564674999699_);}
	.st124{clip-path:url(#SVGID_00000119077940281055622710000002909618174919427712_);}
	.st125{clip-path:url(#SVGID_00000170957148531994758700000017424381803835827135_);}
	.st126{clip-path:url(#SVGID_00000125598333659564043760000017888901615985398167_);}
	.st127{clip-path:url(#SVGID_00000072238056088800310340000014641034107170194328_);}
	.st128{clip-path:url(#SVGID_00000085941571357469201510000003285866325545099194_);}
	.st129{clip-path:url(#SVGID_00000175320257268102648200000000645586712701664183_);}
	.st130{clip-path:url(#SVGID_00000103250416558419379400000002332508098657635775_);}
	.st131{clip-path:url(#SVGID_00000067955773501914886970000007154884415487582348_);}
	.st132{clip-path:url(#SVGID_00000015315088093748095200000003039507283530334390_);}
	.st133{clip-path:url(#SVGID_00000043417303243005638270000012063711213327792548_);}
	.st134{clip-path:url(#SVGID_00000060017385733664627260000015828414386358369943_);}
	.st135{clip-path:url(#SVGID_00000098201984538058899340000008396290991199040417_);}
	.st136{clip-path:url(#SVGID_00000026148912216098176920000011049211292553793719_);}
	.st137{clip-path:url(#SVGID_00000062879501955351687440000010810677581277988250_);}
	.st138{clip-path:url(#SVGID_00000022555184945720182610000001245170335373361024_);}
	.st139{clip-path:url(#SVGID_00000068667060103219503900000006098588206033598142_);}
	.st140{clip-path:url(#SVGID_00000100384667869845590160000009232231604002916279_);}
	.st141{clip-path:url(#SVGID_00000164500353034033008120000015515791341500013702_);}
	.st142{clip-path:url(#SVGID_00000061445303630583114790000006215540030564513186_);}
	.st143{clip-path:url(#SVGID_00000072983065930509791350000001874726989588670399_);}
	.st144{clip-path:url(#SVGID_00000115483946319499615240000015961211921837585572_);}
	.st145{clip-path:url(#SVGID_00000032626162179059141680000012887504286022160784_);}
	.st146{clip-path:url(#SVGID_00000023984273723793587070000005670018992434540432_);}
	.st147{clip-path:url(#SVGID_00000021119171256723443390000011443677316094351766_);}
	.st148{clip-path:url(#SVGID_00000042016377154783120580000000652030885225137062_);}
	.st149{clip-path:url(#SVGID_00000134963142193677151000000010097660978826530730_);}
	.st150{clip-path:url(#SVGID_00000155144542179769616920000013679455366592541826_);}
	.st151{clip-path:url(#SVGID_00000061434320303350016050000013990985048572014985_);}
	.st152{clip-path:url(#SVGID_00000165226895350216701480000014715796431867983270_);}
	.st153{clip-path:url(#SVGID_00000114762115449521956770000006500541550279029165_);}
	.st154{clip-path:url(#SVGID_00000131368950872067785410000015218096269846699150_);}
	.st155{clip-path:url(#SVGID_00000147922664189242949460000015210177042376106684_);}
	.st156{clip-path:url(#SVGID_00000075133355812698104160000004440410728088375715_);}
	.st157{clip-path:url(#SVGID_00000158723532896613371090000000835854376184089481_);}
	.st158{clip-path:url(#SVGID_00000054238248444196922300000011153649710687038114_);}
	.st159{clip-path:url(#SVGID_00000069391426026130072630000013276105753588447618_);}
	.st160{clip-path:url(#SVGID_00000168814458954555859980000002830450604098450105_);}
	.st161{clip-path:url(#SVGID_00000003788547557164759340000010450456700681507976_);}
	.st162{clip-path:url(#SVGID_00000143595427800882676100000009696425987239164806_);}
	.st163{clip-path:url(#SVGID_00000066516312730688220060000006330539264384515972_);}
	.st164{clip-path:url(#SVGID_00000067203358172732627570000002280719551842462135_);}
	.st165{clip-path:url(#SVGID_00000169559055569040529020000011372347549187194766_);}
	.st166{clip-path:url(#SVGID_00000020388143983814592420000009589062079784321422_);}
	.st167{clip-path:url(#SVGID_00000098207678900401412710000010007623152953723783_);}
	.st168{clip-path:url(#SVGID_00000146458987627807123700000005488407137132622993_);}
	.st169{clip-path:url(#SVGID_00000156572312751125727870000010492178158852654759_);}
	.st170{clip-path:url(#SVGID_00000037677366970397891860000016236323599015422622_);}
	.st171{clip-path:url(#SVGID_00000083086369135046584050000015789513409586949003_);}
	.st172{clip-path:url(#SVGID_00000072258116545391269040000000015185145073016979_);}
	.st173{clip-path:url(#SVGID_00000168115761510375835050000003568248513409898665_);}
	.st174{clip-path:url(#SVGID_00000152250716616760356150000014587833489776270491_);}
	.st175{clip-path:url(#SVGID_00000051358249185812840700000002274732592698310543_);}
	.st176{clip-path:url(#SVGID_00000063619583238769540230000013887580617548394127_);}
	.st177{clip-path:url(#SVGID_00000167366110122838419130000004053181097729749927_);}
	.st178{clip-path:url(#SVGID_00000114068622655132084570000002681529333071541160_);}
	.st179{clip-path:url(#SVGID_00000059267530263825597790000006799026891703106493_);}
	.st180{clip-path:url(#SVGID_00000135676612552680518780000009621490144078131360_);}
	.st181{clip-path:url(#SVGID_00000117650287724086847090000008730046226675728275_);}
	.st182{clip-path:url(#SVGID_00000061440165298212575650000014201379614072663190_);}
	.st183{clip-path:url(#SVGID_00000025406243513169849950000001714394570661151147_);}
	.st184{clip-path:url(#SVGID_00000001642426167587609670000001004882432152785577_);}
	.st185{clip-path:url(#SVGID_00000078741761446279947460000001626451918208897704_);}
	.st186{clip-path:url(#SVGID_00000127740297305729420730000006064320692190049176_);}
</style>
<g>
	<g>
		<g>
			<polygon class="st0" points="2.24,31.9 32.3,32.62 33.58,1.97 			"/>
		</g>
	</g>
	<g>
		<defs>
			<rect id="SVGID_00000076565932432177028010000004627718162331202205_" x="0" width="33.86" height="32.74"/>
		</defs>
		<clipPath id="SVGID_00000143596211126017021110000014953784963379156625_">
			<use xlink:href="#SVGID_00000076565932432177028010000004627718162331202205_"  style="overflow:visible;"/>
		</clipPath>
		<g style="clip-path:url(#SVGID_00000143596211126017021110000014953784963379156625_);">
			<g>
				<path class="st0" d="M32.3,32.74C32.3,32.74,32.3,32.74,32.3,32.74L2.23,32.03c-0.05,0-0.1-0.03-0.11-0.08
					c-0.02-0.05-0.01-0.1,0.03-0.14L33.49,1.88c0.04-0.03,0.09-0.04,0.14-0.02c0.05,0.02,0.08,0.07,0.07,0.12l-1.28,30.65
					C32.42,32.69,32.37,32.74,32.3,32.74z M2.54,31.79l29.64,0.7l1.26-30.22L2.54,31.79z"/>
			</g>
		</g>
		<g style="clip-path:url(#SVGID_00000143596211126017021110000014953784963379156625_);">
			<g>
				<path class="st1" d="M32.45,32.59C32.45,32.59,32.45,32.59,32.45,32.59L0.3,32.46c-0.12,0-0.23-0.07-0.28-0.19
					c-0.04-0.11-0.02-0.24,0.07-0.33L33.36,0.08c0.09-0.08,0.22-0.11,0.33-0.06c0.11,0.05,0.18,0.16,0.18,0.28L32.75,32.3
					C32.74,32.46,32.61,32.59,32.45,32.59z M1.04,31.87l31.12,0.12l1.08-30.96L1.04,31.87z"/>
			</g>
		</g>
	</g>
	<g>
		<g>
			<path class="st1" d="M4.12,30.76c-0.08,0-0.16-0.03-0.22-0.09l-0.86-0.91c-0.11-0.12-0.11-0.31,0.01-0.42
				c0.12-0.11,0.31-0.11,0.42,0.01l0.86,0.91c0.11,0.12,0.11,0.31-0.01,0.42C4.27,30.73,4.19,30.76,4.12,30.76z"/>
		</g>
	</g>
	<g>
		<g>
			<path class="st1" d="M13.2,22.15c-0.08,0-0.16-0.03-0.22-0.09l-0.86-0.91c-0.11-0.12-0.11-0.31,0.01-0.42
				c0.12-0.11,0.31-0.11,0.42,0.01l0.86,0.91c0.11,0.12,0.11,0.31-0.01,0.42C13.35,22.12,13.27,22.15,13.2,22.15z"/>
		</g>
	</g>
	<g>
		<g>
			<path class="st1" d="M22.28,13.53c-0.08,0-0.16-0.03-0.22-0.09l-0.86-0.91c-0.11-0.12-0.11-0.31,0.01-0.42
				c0.12-0.11,0.31-0.11,0.42,0.01l0.86,0.91c0.11,0.12,0.11,0.31-0.01,0.42C22.42,13.5,22.35,13.53,22.28,13.53z"/>
		</g>
	</g>
	<g>
		<g>
			<path class="st1" d="M31.36,4.92c-0.08,0-0.16-0.03-0.22-0.09l-0.86-0.91c-0.11-0.12-0.11-0.31,0.01-0.42
				c0.12-0.11,0.31-0.11,0.42,0.01l0.86,0.91c0.11,0.12,0.11,0.31-0.01,0.42C31.5,4.89,31.43,4.92,31.36,4.92z"/>
		</g>
	</g>
	<g>
		<g>
			<path class="st1" d="M7.75,27.32c-0.08,0-0.16-0.03-0.22-0.09l-0.86-0.91C6.56,26.19,6.57,26,6.69,25.89
				C6.81,25.77,7,25.78,7.11,25.9l0.86,0.91c0.11,0.12,0.11,0.31-0.01,0.42C7.9,27.29,7.83,27.32,7.75,27.32z"/>
		</g>
	</g>
	<g>
		<g>
			<path class="st1" d="M16.83,18.7c-0.08,0-0.16-0.03-0.22-0.09l-0.86-0.91c-0.11-0.12-0.11-0.31,0.01-0.42
				c0.12-0.11,0.31-0.11,0.42,0.01l0.86,0.91c0.11,0.12,0.11,0.31-0.01,0.42C16.98,18.67,16.9,18.7,16.83,18.7z"/>
		</g>
	</g>
	<g>
		<g>
			<path class="st1" d="M25.91,10.09c-0.08,0-0.16-0.03-0.22-0.09l-0.86-0.91c-0.11-0.12-0.11-0.31,0.01-0.42
				c0.12-0.11,0.31-0.11,0.42,0.01l0.86,0.91c0.11,0.12,0.11,0.31-0.01,0.42C26.06,10.06,25.98,10.09,25.91,10.09z"/>
		</g>
	</g>
	<g>
		<g>
			<path class="st1" d="M11.89,24.4c-0.08,0-0.16-0.03-0.22-0.09l-1.37-1.45c-0.11-0.12-0.11-0.31,0.01-0.42s0.31-0.11,0.42,0.01
				l1.37,1.45c0.11,0.12,0.11,0.31-0.01,0.42C12.04,24.38,11.97,24.4,11.89,24.4z"/>
		</g>
	</g>
	<g>
		<g>
			<path class="st1" d="M20.97,15.79c-0.08,0-0.16-0.03-0.22-0.09l-1.37-1.45c-0.11-0.12-0.11-0.31,0.01-0.42
				c0.12-0.11,0.31-0.11,0.42,0.01l1.37,1.45c0.11,0.12,0.11,0.31-0.01,0.42C21.12,15.76,21.04,15.79,20.97,15.79z"/>
		</g>
	</g>
	<g>
		<g>
			<path class="st1" d="M30.05,7.17c-0.08,0-0.16-0.03-0.22-0.09l-1.37-1.45c-0.11-0.12-0.11-0.31,0.01-0.42
				C28.6,5.1,28.79,5.1,28.9,5.22l1.37,1.45c0.11,0.12,0.11,0.31-0.01,0.42C30.2,7.15,30.12,7.17,30.05,7.17z"/>
		</g>
	</g>
	<g>
		<g>
			<path class="st1" d="M5.94,29.04c-0.08,0-0.16-0.03-0.22-0.09l-0.86-0.91c-0.11-0.12-0.11-0.31,0.01-0.42
				c0.12-0.11,0.31-0.11,0.42,0.01l0.86,0.91c0.11,0.12,0.11,0.31-0.01,0.42C6.08,29.01,6.01,29.04,5.94,29.04z"/>
		</g>
	</g>
	<g>
		<g>
			<path class="st1" d="M15.01,20.42c-0.08,0-0.16-0.03-0.22-0.09l-0.86-0.91c-0.11-0.12-0.11-0.31,0.01-0.42
				c0.12-0.11,0.31-0.11,0.42,0.01l0.86,0.91c0.11,0.12,0.11,0.31-0.01,0.42C15.16,20.4,15.09,20.42,15.01,20.42z"/>
		</g>
	</g>
	<g>
		<g>
			<path class="st1" d="M24.09,11.81c-0.08,0-0.16-0.03-0.22-0.09l-0.86-0.91c-0.11-0.12-0.11-0.31,0.01-0.42
				c0.12-0.11,0.31-0.11,0.42,0.01l0.86,0.91c0.11,0.12,0.11,0.31-0.01,0.42C24.24,11.78,24.17,11.81,24.09,11.81z"/>
		</g>
	</g>
	<g>
		<defs>
			<rect id="SVGID_00000003804061342962194380000017751668714052584071_" x="0" width="33.86" height="32.74"/>
		</defs>
		<clipPath id="SVGID_00000008124021760958706170000016606477665849675147_">
			<use xlink:href="#SVGID_00000003804061342962194380000017751668714052584071_"  style="overflow:visible;"/>
		</clipPath>
		<g style="clip-path:url(#SVGID_00000008124021760958706170000016606477665849675147_);">
			<g>
				<path class="st1" d="M33.17,3.19c-0.08,0-0.16-0.03-0.22-0.09L32.1,2.19c-0.11-0.12-0.11-0.31,0.01-0.42
					c0.12-0.11,0.31-0.11,0.42,0.01l0.86,0.91C33.5,2.81,33.5,3,33.38,3.11C33.32,3.17,33.25,3.19,33.17,3.19z"/>
			</g>
		</g>
	</g>
	<g>
		<g>
			<path class="st1" d="M9.57,25.59c-0.08,0-0.16-0.03-0.22-0.09l-0.86-0.91c-0.11-0.12-0.11-0.31,0.01-0.42
				c0.12-0.11,0.31-0.11,0.42,0.01l0.86,0.91c0.11,0.12,0.11,0.31-0.01,0.42C9.72,25.57,9.64,25.59,9.57,25.59z"/>
		</g>
	</g>
	<g>
		<g>
			<path class="st1" d="M18.65,16.98c-0.08,0-0.16-0.03-0.22-0.09l-0.86-0.91c-0.11-0.12-0.11-0.31,0.01-0.42
				c0.12-0.11,0.31-0.11,0.42,0.01l0.86,0.91c0.11,0.12,0.11,0.31-0.01,0.42C18.79,16.95,18.72,16.98,18.65,16.98z"/>
		</g>
	</g>
	<g>
		<g>
			<path class="st1" d="M27.72,8.36c-0.08,0-0.16-0.03-0.22-0.09l-0.86-0.91c-0.11-0.12-0.11-0.31,0.01-0.42
				c0.12-0.11,0.31-0.11,0.42,0.01l0.86,0.91c0.11,0.12,0.11,0.31-0.01,0.42C27.87,8.34,27.8,8.36,27.72,8.36z"/>
		</g>
	</g>
	<g>
		<g>
			<polygon class="st2" points="27.01,26.67 27.43,15.45 15.74,26.62 			"/>
		</g>
	</g>
	<g>
		<g>
			<path class="st1" d="M27.01,26.97C27.01,26.97,27.01,26.97,27.01,26.97l-11.28-0.05c-0.12,0-0.23-0.08-0.28-0.19
				s-0.02-0.24,0.07-0.33l11.7-11.17c0.09-0.08,0.22-0.11,0.33-0.06c0.11,0.05,0.18,0.16,0.18,0.28l-0.42,11.22
				C27.3,26.84,27.17,26.97,27.01,26.97z M16.48,26.32l10.24,0.05l0.38-10.19L16.48,26.32z"/>
		</g>
	</g>
</g>
</svg>
