<?xml version="1.0" encoding="utf-8"?>
<!-- Generator: Adobe Illustrator 26.0.2, SVG Export Plug-In . SVG Version: 6.00 Build 0)  -->
<svg version="1.1" id="Ebene_1" xmlns="http://www.w3.org/2000/svg" xmlns:xlink="http://www.w3.org/1999/xlink" x="0px" y="0px"
	 viewBox="0 0 77.95 86.4" style="enable-background:new 0 0 77.95 86.4;" xml:space="preserve">
<style type="text/css">
	.st0{fill:#E59C00;}
	.st1{fill:#2B2961;}
	.st2{fill:#FFFFFF;}
	.st3{clip-path:url(#SVGID_00000031196586133460686460000002714107489581276599_);}
	.st4{clip-path:url(#SVGID_00000057141079010295127390000017607228183480502158_);}
	.st5{clip-path:url(#SVGID_00000100353669160097452430000011850324380742714793_);}
	.st6{clip-path:url(#SVGID_00000157997742742336129790000017439731556040550035_);}
	.st7{clip-path:url(#SVGID_00000126294750082756770770000001283838085432060850_);}
	.st8{clip-path:url(#SVGID_00000128463664645020512370000001996522983918529185_);}
	.st9{clip-path:url(#SVGID_00000026885151231805431580000001444842674174121652_);}
	.st10{clip-path:url(#SVGID_00000097478418963517771550000012195002122835067557_);}
	.st11{clip-path:url(#SVGID_00000020364548169268936860000000779616081268174466_);}
	.st12{clip-path:url(#SVGID_00000065789779764802004690000007640831579881274797_);}
	.st13{clip-path:url(#SVGID_00000080923226499948443320000009563641638071891861_);}
	.st14{clip-path:url(#SVGID_00000011746671074733130990000008039115002844149897_);}
	.st15{clip-path:url(#SVGID_00000167376952975481353410000014157940393892309425_);}
	.st16{clip-path:url(#SVGID_00000065062272842548831850000008517956786952846518_);}
	.st17{clip-path:url(#SVGID_00000166649106954321162630000007771926612211505852_);}
	.st18{clip-path:url(#SVGID_00000021089725499126508100000017246047164224891321_);}
	.st19{clip-path:url(#SVGID_00000111878621757697389940000002160611587088429215_);}
	.st20{clip-path:url(#SVGID_00000027587883171012522550000004392284563593546174_);}
	.st21{clip-path:url(#SVGID_00000018944381389126131360000018431160608579192238_);}
	.st22{clip-path:url(#SVGID_00000147908159185388209500000002511374290527175840_);}
	.st23{clip-path:url(#SVGID_00000076586602928750646750000009319270363116485052_);}
	.st24{clip-path:url(#SVGID_00000024724407126058307070000003636571730468630920_);}
	.st25{clip-path:url(#SVGID_00000063629619710873061540000000497751921310163330_);}
	.st26{clip-path:url(#SVGID_00000057866900271624709080000004861394542570879637_);}
	.st27{clip-path:url(#SVGID_00000086657039865951832870000018316527595521264014_);}
	.st28{clip-path:url(#SVGID_00000082342751590849471560000008848963627090331578_);}
	.st29{clip-path:url(#SVGID_00000117646129399010259740000008539618361843558537_);}
	.st30{clip-path:url(#SVGID_00000021084038859299833490000009823896743901636236_);}
	.st31{clip-path:url(#SVGID_00000183964112455873642700000016197721636292437164_);}
	.st32{clip-path:url(#SVGID_00000088114160524567299030000015797974750007127478_);}
	.st33{clip-path:url(#SVGID_00000070840203212772167140000014086914043740492991_);}
	.st34{clip-path:url(#SVGID_00000048484786450258255040000017875159257327889024_);}
	.st35{clip-path:url(#SVGID_00000155133164349041828830000003239199756640940441_);}
	.st36{clip-path:url(#SVGID_00000084512377606411712790000017907562759920183705_);}
	.st37{clip-path:url(#SVGID_00000051349491628108195080000015000734929176404880_);}
	.st38{clip-path:url(#SVGID_00000165924654162883425620000014697645344890893719_);}
	.st39{clip-path:url(#SVGID_00000111151134800540726550000000607841183815322243_);}
	.st40{clip-path:url(#SVGID_00000147938974872431430520000007368036778221681546_);}
	.st41{clip-path:url(#SVGID_00000037685633561569569660000009045417887733937035_);}
	.st42{clip-path:url(#SVGID_00000031926465944803850000000016239127866964200858_);}
	.st43{clip-path:url(#SVGID_00000013871626293673831990000008189729660294486711_);}
	.st44{clip-path:url(#SVGID_00000137090804613213454520000001649447144625061784_);}
	.st45{clip-path:url(#SVGID_00000046326246524952591860000007065261683783764623_);}
	.st46{clip-path:url(#SVGID_00000006680151708034329830000015663571533630029954_);}
	.st47{clip-path:url(#SVGID_00000026867951182520843830000013325748400719781048_);}
	.st48{clip-path:url(#SVGID_00000005948995492358267820000002877744851689631633_);}
	.st49{clip-path:url(#SVGID_00000094613529511906097270000004949211145636480688_);}
	.st50{clip-path:url(#SVGID_00000104699465270854781360000017545432203343794095_);}
	.st51{clip-path:url(#SVGID_00000129199391272775154620000002611123736728088717_);}
	.st52{clip-path:url(#SVGID_00000175300713617008234010000015895766764033797786_);}
	.st53{clip-path:url(#SVGID_00000128445358945437955310000014217114388201270433_);}
	.st54{clip-path:url(#SVGID_00000160880374267524224720000009805553586647607475_);}
	.st55{clip-path:url(#SVGID_00000057148971013077000100000003832231209900898713_);}
	.st56{clip-path:url(#SVGID_00000075869974789403075090000015999426365855369407_);}
	.st57{clip-path:url(#SVGID_00000007415046582000987400000015948684535979181231_);}
	.st58{clip-path:url(#SVGID_00000128477465213023149020000010418420423674419853_);}
	.st59{clip-path:url(#SVGID_00000124142666701168842410000000678253987524608133_);}
	.st60{clip-path:url(#SVGID_00000168807260619024433250000004017588401972196227_);}
	.st61{clip-path:url(#SVGID_00000112616208043465301250000002146361628920426124_);}
	.st62{clip-path:url(#SVGID_00000088819626240049823440000015740205494222612650_);}
	.st63{clip-path:url(#SVGID_00000166663166585801388120000012082238620370426032_);}
	.st64{clip-path:url(#SVGID_00000105397653005893459740000013453312753544891039_);}
	.st65{clip-path:url(#SVGID_00000127010483845487786580000003909414258728703414_);}
	.st66{clip-path:url(#SVGID_00000165938939126054253280000012868645555548537496_);}
	.st67{clip-path:url(#SVGID_00000060018686632813076130000014402981629242332299_);}
	.st68{clip-path:url(#SVGID_00000174593287052490909880000006317419100956104350_);}
	.st69{clip-path:url(#SVGID_00000122712914407935484480000013104781661846134169_);}
	.st70{clip-path:url(#SVGID_00000053538838837819639720000016550586691821700266_);}
	.st71{clip-path:url(#SVGID_00000074411030700598981360000000031049121679689346_);}
	.st72{clip-path:url(#SVGID_00000078750437204232951390000012165135053304145046_);}
	.st73{clip-path:url(#SVGID_00000160891748578423786440000000074071812416158651_);}
	.st74{clip-path:url(#SVGID_00000052783229086098446830000016953074047737997732_);}
	.st75{clip-path:url(#SVGID_00000040567890171736373470000004109694475643040136_);}
	.st76{clip-path:url(#SVGID_00000005232743089056914850000010672129831774499224_);}
	.st77{clip-path:url(#SVGID_00000155827914561592219120000008495747739272680356_);}
	.st78{clip-path:url(#SVGID_00000147216137885503020160000002794136556329964176_);}
	.st79{clip-path:url(#SVGID_00000140714706447167760820000000739209724585396920_);}
	.st80{clip-path:url(#SVGID_00000074428639033103020190000001951889373139510706_);}
	.st81{clip-path:url(#SVGID_00000068657048909693263950000016556579009025654706_);}
	.st82{clip-path:url(#SVGID_00000080896433000186276610000000001553865146029717_);}
	.st83{fill:none;}
	.st84{clip-path:url(#SVGID_00000057110555534815056700000003019419629057895098_);}
	.st85{clip-path:url(#SVGID_00000150060342426687501880000001146194975470967707_);}
	.st86{clip-path:url(#SVGID_00000101816941925134816260000004881259278306181042_);}
	.st87{clip-path:url(#SVGID_00000124853444877367984290000013764777076252873367_);}
	.st88{clip-path:url(#SVGID_00000143578958663723295640000011071751032206836363_);}
	.st89{clip-path:url(#SVGID_00000060735347423105829990000014092724097830194333_);}
	.st90{clip-path:url(#SVGID_00000137835631063140043200000016140414209337543576_);}
	.st91{clip-path:url(#SVGID_00000147189651278085240770000009416761729090995368_);}
	.st92{clip-path:url(#SVGID_00000083090468834888999640000017434728907280195985_);}
	.st93{clip-path:url(#SVGID_00000027589601775026219620000014890094061181170560_);}
	.st94{clip-path:url(#SVGID_00000003825992491099280890000008808368834345432977_);}
	.st95{clip-path:url(#SVGID_00000173845797792145705020000015768120038116902810_);}
	.st96{clip-path:url(#SVGID_00000054972837013466335000000015760770631294236602_);}
	.st97{clip-path:url(#SVGID_00000096751727517235781060000008960342659202166930_);}
	.st98{clip-path:url(#SVGID_00000099637134817141237400000005818372155630581694_);}
	.st99{clip-path:url(#SVGID_00000063631753263552008470000017608990146708382642_);}
	.st100{clip-path:url(#SVGID_00000114056804950565000550000002081984979585598906_);}
	.st101{clip-path:url(#SVGID_00000052789424102484298670000014969236905228283294_);}
	.st102{clip-path:url(#SVGID_00000110467154519509801070000017459351086962574987_);}
	.st103{clip-path:url(#SVGID_00000152229309288288079890000005946455153761766814_);}
	.st104{clip-path:url(#SVGID_00000155834791428686803690000001219632520278038462_);}
	.st105{clip-path:url(#SVGID_00000121983611355121419790000012700242586704332457_);}
	.st106{clip-path:url(#SVGID_00000156548606746265716340000013538368817128376459_);}
	.st107{clip-path:url(#SVGID_00000160902615105134545470000011218801241260804506_);}
	.st108{clip-path:url(#SVGID_00000181084345988185922120000012371336188771756723_);}
	.st109{clip-path:url(#SVGID_00000144299449722129940650000014584836118437235860_);}
	.st110{clip-path:url(#SVGID_00000142892953165050810300000017306248402944843683_);}
	.st111{clip-path:url(#SVGID_00000016042549118384376350000006806144746698587280_);}
	.st112{clip-path:url(#SVGID_00000099620536406092703280000012516427887056538545_);}
	.st113{clip-path:url(#SVGID_00000070091800058457465720000011184855100266541737_);}
	.st114{clip-path:url(#SVGID_00000181062107142613580740000018344630239205889461_);}
	.st115{clip-path:url(#SVGID_00000052097720101142917980000015275327784206073729_);}
	.st116{clip-path:url(#SVGID_00000173879982009993291180000014688303052238685596_);}
	.st117{clip-path:url(#SVGID_00000088126075537933411220000016688951556270278837_);}
	.st118{clip-path:url(#SVGID_00000056426248632160556960000015297771068544850828_);}
	.st119{clip-path:url(#SVGID_00000083081615037686779930000017030278549857147796_);}
	.st120{clip-path:url(#SVGID_00000179644456636835393340000013886553768930460087_);}
	.st121{clip-path:url(#SVGID_00000157996310007500727510000010242388712952345497_);}
	.st122{clip-path:url(#SVGID_00000123406686061968432270000004909313810538400442_);}
	.st123{clip-path:url(#SVGID_00000042729243338031585060000008895469659758639773_);}
	.st124{clip-path:url(#SVGID_00000079460736528991250530000005568549942363608973_);}
	.st125{clip-path:url(#SVGID_00000025410267123421728840000005845875339796681916_);}
	.st126{clip-path:url(#SVGID_00000182490976090176139810000015744470745953696699_);}
	.st127{clip-path:url(#SVGID_00000026164255429542062680000001172959281804912813_);}
	.st128{clip-path:url(#SVGID_00000033327424209221585950000009969672285832114868_);}
	.st129{clip-path:url(#SVGID_00000118368273435795951180000003851576542769425337_);}
	.st130{clip-path:url(#SVGID_00000059298976241902304540000013008247255560745663_);}
	.st131{clip-path:url(#SVGID_00000022555404611895971510000001874621077453106340_);}
	.st132{clip-path:url(#SVGID_00000008126561465839524570000000986986741380763037_);}
	.st133{clip-path:url(#SVGID_00000065797177482844531430000002424388136499941273_);}
	.st134{clip-path:url(#SVGID_00000155833131135350448260000000135868141526239635_);}
	.st135{clip-path:url(#SVGID_00000145040827165949434280000011971171735549855125_);}
	.st136{clip-path:url(#SVGID_00000080204959737359004160000000370166913576565913_);}
	.st137{clip-path:url(#SVGID_00000088816777467551333150000003063905270058329490_);}
	.st138{clip-path:url(#SVGID_00000121240843904043452340000014223730535788101281_);}
	.st139{clip-path:url(#SVGID_00000113347725936734263140000009589477711048406927_);}
	.st140{clip-path:url(#SVGID_00000160150432656718014760000016303800538907964081_);}
	.st141{clip-path:url(#SVGID_00000008834570539847379560000009981738130248630972_);}
	.st142{clip-path:url(#SVGID_00000044896478959581968390000005427189267491624374_);}
	.st143{clip-path:url(#SVGID_00000140706011745537319110000004583235189470658718_);}
	.st144{clip-path:url(#SVGID_00000116216219184383101150000001236389848858322583_);}
	.st145{clip-path:url(#SVGID_00000044166562139683018120000010545356382411274638_);}
	.st146{clip-path:url(#SVGID_00000093146005401873392310000007613157749222757806_);}
	.st147{clip-path:url(#SVGID_00000065033216985556750060000007278087143386285702_);}
	.st148{clip-path:url(#SVGID_00000032620273366725395190000009538012959136245645_);}
	.st149{clip-path:url(#SVGID_00000045612920096467814610000001650199941749710258_);}
	.st150{clip-path:url(#SVGID_00000072239077440807933390000001371510039164126365_);}
	.st151{clip-path:url(#SVGID_00000153690689914401016670000002428318619651982987_);}
	.st152{clip-path:url(#SVGID_00000016066901284165475300000012277677662662630322_);}
	.st153{clip-path:url(#SVGID_00000092414101464667814280000001408998001752672148_);}
	.st154{clip-path:url(#SVGID_00000138575295251816780560000016121048346062015382_);}
	.st155{clip-path:url(#SVGID_00000067946612823791782870000017606876407416724647_);}
	.st156{clip-path:url(#SVGID_00000124125821277303744450000004649410286479912637_);}
	.st157{clip-path:url(#SVGID_00000165233763291729825380000005138821212313306249_);}
	.st158{clip-path:url(#SVGID_00000178201516542694030310000011672121580735464071_);}
	.st159{clip-path:url(#SVGID_00000050621775048867298560000006306654452095137924_);}
	.st160{clip-path:url(#SVGID_00000015317881765501972130000007975936615637046691_);}
	.st161{clip-path:url(#SVGID_00000138560646609312831210000010981884239655484847_);}
	.st162{clip-path:url(#SVGID_00000026874589081820178340000008398375620647268767_);}
	.st163{clip-path:url(#SVGID_00000061462825232600245820000014991520070010694570_);}
	.st164{clip-path:url(#SVGID_00000088843325475325891420000002520314125172275353_);}
	.st165{clip-path:url(#SVGID_00000094602017351295821480000014810935463547567754_);}
	.st166{clip-path:url(#SVGID_00000018213695630455332400000000160044691024352434_);}
	.st167{clip-path:url(#SVGID_00000116926426842781225540000000144474414544331440_);}
	.st168{clip-path:url(#SVGID_00000053522662390148452890000015771843745435413657_);}
	.st169{clip-path:url(#SVGID_00000008841825822498299080000009210532248318548395_);}
	.st170{clip-path:url(#SVGID_00000172411210562381432010000010295595693462686385_);}
	.st171{clip-path:url(#SVGID_00000003795079146296815160000002645606747228728482_);}
	.st172{clip-path:url(#SVGID_00000176014992584894466600000015143838392390500763_);}
	.st173{clip-path:url(#SVGID_00000052797556851814232580000003305561009676737419_);}
	.st174{clip-path:url(#SVGID_00000052102752140150951620000008403670981643593381_);}
	.st175{clip-path:url(#SVGID_00000093877687805065530360000001574926650179238819_);}
	.st176{clip-path:url(#SVGID_00000116943138436069619010000017086395283769595276_);}
	.st177{clip-path:url(#SVGID_00000143587165059426869270000009283390931259590560_);}
	.st178{clip-path:url(#SVGID_00000132800887450227346820000001837046668218254746_);}
	.st179{clip-path:url(#SVGID_00000125585348983991499090000013528265534694249384_);}
	.st180{clip-path:url(#SVGID_00000086678393354609431090000005557925858997458832_);}
	.st181{clip-path:url(#SVGID_00000170272185134313364120000011657252114832700088_);}
	.st182{clip-path:url(#SVGID_00000139273724914257005460000010468780949280481929_);}
	.st183{clip-path:url(#SVGID_00000049221963128204463160000005686751404823117453_);}
	.st184{clip-path:url(#SVGID_00000057855198287510705850000000265862143877768123_);}
	.st185{clip-path:url(#SVGID_00000052797136759367259230000006380823710058206647_);}
	.st186{clip-path:url(#SVGID_00000101083202883925575710000016944956339991003294_);}
</style>
<g>
	<g>
		<g>
			<rect x="4.6" y="4.05" class="st0" width="54.1" height="40.38"/>
		</g>
	</g>
	<g>
		<g>
			<path class="st0" d="M58.7,44.52H4.6c-0.05,0-0.09-0.04-0.09-0.09V4.05C4.5,4,4.55,3.96,4.6,3.96h54.1
				c0.05,0,0.09,0.04,0.09,0.09v40.38C58.79,44.48,58.75,44.52,58.7,44.52z M4.69,44.33H58.6V4.14H4.69V44.33z"/>
		</g>
	</g>
	<g>
		<defs>
			<rect id="SVGID_1_" width="77.95" height="86.4"/>
		</defs>
		<clipPath id="SVGID_00000051362708956863507200000001065768817135870131_">
			<use xlink:href="#SVGID_1_"  style="overflow:visible;"/>
		</clipPath>
		<g style="clip-path:url(#SVGID_00000051362708956863507200000001065768817135870131_);">
			<g>
				<path class="st1" d="M61.46,47.08H0.3c-0.17,0-0.3-0.14-0.3-0.3V0.3C0,0.14,0.14,0,0.3,0h61.16c0.17,0,0.3,0.14,0.3,0.3v46.47
					C61.77,46.94,61.63,47.08,61.46,47.08z M0.61,46.47h60.55V0.61H0.61V46.47z"/>
			</g>
		</g>
	</g>
	<g>
		<g>
			<path class="st1" d="M58.53,43.97H3.23c-0.17,0-0.3-0.13-0.3-0.3V3.25c0-0.17,0.13-0.3,0.3-0.3h55.3c0.17,0,0.3,0.13,0.3,0.3
				v40.42C58.83,43.83,58.7,43.97,58.53,43.97z M3.53,43.37h54.7V3.55H3.53V43.37z"/>
		</g>
	</g>
	<g>
		<defs>
			<rect id="SVGID_00000003074405097559884190000008142887369969897105_" width="77.95" height="86.4"/>
		</defs>
		<clipPath id="SVGID_00000181086900970552562750000010647107687079304836_">
			<use xlink:href="#SVGID_00000003074405097559884190000008142887369969897105_"  style="overflow:visible;"/>
		</clipPath>
		<g style="clip-path:url(#SVGID_00000181086900970552562750000010647107687079304836_);">
			<g>
				<path class="st2" d="M66.7,39.77c-0.03-5.97-4.85-11.28-10.61-11.24c-5.82,0.04-10.54,5.29-10.54,11.24v38.34h21.07L66.7,39.77z
					"/>
			</g>
		</g>
		<g style="clip-path:url(#SVGID_00000181086900970552562750000010647107687079304836_);">
			<g>
				<path class="st2" d="M62.07,20.66c0,3.34-2.66,6.05-5.95,6.05c-3.29,0-5.95-2.71-5.95-6.05c0-3.34,2.66-6.05,5.95-6.05
					C59.41,14.61,62.07,17.32,62.07,20.66"/>
			</g>
		</g>
	</g>
	<g>
		<g>
			<rect x="47.19" y="58.12" class="st0" width="19.28" height="20.1"/>
		</g>
	</g>
	<g>
		<g>
			<path class="st0" d="M66.47,78.35H47.19c-0.07,0-0.12-0.06-0.12-0.12v-20.1c0-0.07,0.06-0.12,0.12-0.12h19.28
				c0.07,0,0.12,0.06,0.12,0.12v20.1C66.59,78.29,66.54,78.35,66.47,78.35z M47.31,78.1h19.03V58.24H47.31V78.1z"/>
		</g>
	</g>
	<g>
		<g>
			<rect x="45.72" y="57.84" class="st1" width="21.04" height="0.4"/>
		</g>
	</g>
	<g>
		<defs>
			<rect id="SVGID_00000109729522615919842240000017352598196552720575_" width="77.95" height="86.4"/>
		</defs>
		<clipPath id="SVGID_00000162334041998083567820000017907994872394045841_">
			<use xlink:href="#SVGID_00000109729522615919842240000017352598196552720575_"  style="overflow:visible;"/>
		</clipPath>
		<g style="clip-path:url(#SVGID_00000162334041998083567820000017907994872394045841_);">
			<g>
				<path class="st1" d="M62.26,86.4c-0.17,0-0.3-0.13-0.3-0.3v-7.74c0-0.17,0.13-0.3,0.3-0.3s0.3,0.13,0.3,0.3v7.74
					C62.56,86.27,62.42,86.4,62.26,86.4z M49.99,86.4c-0.17,0-0.3-0.13-0.3-0.3v-7.74c0-0.17,0.13-0.3,0.3-0.3s0.3,0.13,0.3,0.3
					v7.74C50.29,86.27,50.15,86.4,49.99,86.4z"/>
			</g>
		</g>
	</g>
	<g>
		<g>
			<path class="st1" d="M59.63,50.07c-0.19,0-0.35-0.16-0.35-0.35V39.37c0-0.19,0.16-0.35,0.35-0.35s0.35,0.16,0.35,0.35v10.36
				C59.98,49.92,59.82,50.07,59.63,50.07z M45.54,38.94c-0.11,0-0.22-0.05-0.29-0.15l-5.83-8.5c-0.11-0.16-0.07-0.37,0.09-0.48
				c0.16-0.11,0.38-0.07,0.48,0.09l5.83,8.5c0.11,0.16,0.07,0.37-0.09,0.48C45.68,38.92,45.61,38.94,45.54,38.94z"/>
		</g>
	</g>
	<g>
		<defs>
			<rect id="SVGID_00000106827659543274096320000017637734000547483782_" width="77.95" height="86.4"/>
		</defs>
		<clipPath id="SVGID_00000119817358367101098570000013132546727671826561_">
			<use xlink:href="#SVGID_00000106827659543274096320000017637734000547483782_"  style="overflow:visible;"/>
		</clipPath>
		<g style="clip-path:url(#SVGID_00000119817358367101098570000013132546727671826561_);">
			<g>
				<path class="st1" d="M66.65,78.43H45.53c-0.17,0-0.3-0.13-0.3-0.3V39.75c0-6.22,4.97-11.51,10.86-11.55c0.02,0,0.04,0,0.07,0
					c2.66,0,5.25,1.11,7.29,3.12c2.26,2.23,3.56,5.3,3.58,8.43c0,0,0,0,0,0l-0.07,38.38C66.95,78.3,66.81,78.43,66.65,78.43z
					 M45.83,77.84h20.52l0.07-38.08c-0.02-2.97-1.26-5.89-3.4-8.01c-1.94-1.92-4.4-2.96-6.93-2.95
					c-5.56,0.04-10.26,5.05-10.26,10.95V77.84z"/>
			</g>
		</g>
		<g style="clip-path:url(#SVGID_00000119817358367101098570000013132546727671826561_);">
			<g>
				<path class="st0" d="M62.08,19.18c-0.69-2.32-2.8-4-5.3-4c-2.5,0-4.61,1.69-5.3,4H62.08z"/>
			</g>
		</g>
		<g style="clip-path:url(#SVGID_00000119817358367101098570000013132546727671826561_);">
			<g>
				<path class="st0" d="M62.08,19.3H51.49c-0.04,0-0.08-0.02-0.1-0.05c-0.02-0.03-0.03-0.07-0.02-0.11
					c0.73-2.45,2.91-4.09,5.42-4.09c2.51,0,4.69,1.64,5.42,4.09c0.01,0.04,0,0.08-0.02,0.11C62.16,19.28,62.12,19.3,62.08,19.3z
					 M51.66,19.05h10.25c-0.74-2.25-2.78-3.75-5.13-3.75S52.4,16.8,51.66,19.05z"/>
			</g>
		</g>
		<g style="clip-path:url(#SVGID_00000119817358367101098570000013132546727671826561_);">
			<g>
				<path class="st1" d="M56.12,27.03c-3.46,0-6.27-2.86-6.27-6.37c0-3.51,2.81-6.37,6.27-6.37s6.27,2.86,6.27,6.37
					C62.4,24.17,59.58,27.03,56.12,27.03z M56.12,14.88c-3.13,0-5.67,2.59-5.67,5.77s2.55,5.77,5.67,5.77s5.67-2.59,5.67-5.77
					S59.25,14.88,56.12,14.88z"/>
			</g>
		</g>
	</g>
	<g>
		<g>
			<rect x="50.48" y="18.97" class="st1" width="11.29" height="0.4"/>
		</g>
	</g>
	<g>
		<defs>
			<rect id="SVGID_00000013889592317213040750000006746882831701796016_" width="77.95" height="86.4"/>
		</defs>
		<clipPath id="SVGID_00000020376149709868932700000012853525507691371929_">
			<use xlink:href="#SVGID_00000013889592317213040750000006746882831701796016_"  style="overflow:visible;"/>
		</clipPath>
		<g style="clip-path:url(#SVGID_00000020376149709868932700000012853525507691371929_);">
			<g>
				<path class="st1" d="M54.29,21.11c0,0.18-0.14,0.32-0.32,0.32s-0.32-0.14-0.32-0.32c0-0.18,0.14-0.32,0.32-0.32
					S54.29,20.93,54.29,21.11"/>
			</g>
		</g>
		<g style="clip-path:url(#SVGID_00000020376149709868932700000012853525507691371929_);">
			<g>
				<path class="st1" d="M58.59,21.11c0,0.18-0.14,0.32-0.32,0.32s-0.32-0.14-0.32-0.32c0-0.18,0.14-0.32,0.32-0.32
					S58.59,20.93,58.59,21.11"/>
			</g>
		</g>
	</g>
	<g>
		<g>
			<path class="st1" d="M56.06,78.43c-0.11,0-0.2-0.09-0.2-0.2V61.19c0-0.11,0.09-0.2,0.2-0.2s0.2,0.09,0.2,0.2v17.04
				C56.26,78.34,56.17,78.43,56.06,78.43z"/>
		</g>
	</g>
	<g>
		<g>
			<polygon class="st2" points="62.84,2.57 62.84,10.75 62.84,14 60.83,21.02 67.88,17.68 77.71,17.68 77.71,2.57 			"/>
		</g>
	</g>
	<g>
		<g>
			<polygon class="st0" points="63.54,2.99 63.54,11.18 63.54,14.43 61.53,21.45 68.59,18.11 77.64,18.11 77.64,2.99 			"/>
		</g>
	</g>
	<g>
		<defs>
			<rect id="SVGID_00000065774095034698079730000005917873094047155884_" width="77.95" height="86.4"/>
		</defs>
		<clipPath id="SVGID_00000168830978628416691080000001814414100171642772_">
			<use xlink:href="#SVGID_00000065774095034698079730000005917873094047155884_"  style="overflow:visible;"/>
		</clipPath>
		<g style="clip-path:url(#SVGID_00000168830978628416691080000001814414100171642772_);">
			<g>
				<path class="st0" d="M61.53,21.55c-0.02,0-0.04-0.01-0.06-0.02c-0.03-0.02-0.04-0.06-0.03-0.1l2.01-7.01V2.99
					c0-0.05,0.04-0.09,0.09-0.09h14.1c0.05,0,0.09,0.04,0.09,0.09v15.12c0,0.05-0.04,0.09-0.09,0.09h-9.03l-7.04,3.33
					C61.56,21.54,61.55,21.55,61.53,21.55z M63.64,3.08v11.35c0,0.01,0,0.02,0,0.03l-1.95,6.83l6.87-3.25
					c0.01-0.01,0.03-0.01,0.04-0.01h8.96V3.08H63.64z"/>
			</g>
		</g>
		<g style="clip-path:url(#SVGID_00000168830978628416691080000001814414100171642772_);">
			<g>
				<path class="st1" d="M60.81,21.27c-0.05,0-0.1-0.02-0.15-0.05c-0.07-0.06-0.1-0.15-0.07-0.23l2.01-7V2.55
					c0-0.12,0.1-0.23,0.23-0.23h14.9c0.12,0,0.23,0.1,0.23,0.23v15.14c0,0.12-0.1,0.23-0.23,0.23h-9.8l-7.02,3.32
					C60.88,21.26,60.84,21.27,60.81,21.27z M63.05,2.78V14c0,0.02,0,0.04-0.01,0.06l-1.88,6.56l6.62-3.13
					c0.03-0.01,0.06-0.02,0.1-0.02h9.62V2.78H63.05z"/>
			</g>
		</g>
	</g>
	<g>
		<g>
			<path class="st1" d="M74.59,14.74h-8.68c-0.08,0-0.15-0.07-0.15-0.15s0.07-0.15,0.15-0.15h8.68c0.08,0,0.15,0.07,0.15,0.15
				S74.68,14.74,74.59,14.74z M74.59,12.58h-8.68c-0.08,0-0.15-0.07-0.15-0.15s0.07-0.15,0.15-0.15h8.68c0.08,0,0.15,0.07,0.15,0.15
				S74.68,12.58,74.59,12.58z M74.59,10.43h-8.68c-0.08,0-0.15-0.07-0.15-0.15s0.07-0.15,0.15-0.15h8.68c0.08,0,0.15,0.07,0.15,0.15
				S74.68,10.43,74.59,10.43z M74.59,8.27h-8.68c-0.08,0-0.15-0.07-0.15-0.15s0.07-0.15,0.15-0.15h8.68c0.08,0,0.15,0.07,0.15,0.15
				S74.68,8.27,74.59,8.27z M74.59,6.12h-8.68c-0.08,0-0.15-0.07-0.15-0.15s0.07-0.15,0.15-0.15h8.68c0.08,0,0.15,0.07,0.15,0.15
				S74.68,6.12,74.59,6.12z"/>
		</g>
	</g>
	<g>
		<g>
			<path class="st1" d="M44.05,11.49H7.53c-0.17,0-0.31-0.14-0.31-0.31s0.14-0.31,0.31-0.31h36.51c0.17,0,0.31,0.14,0.31,0.31
				S44.22,11.49,44.05,11.49z"/>
		</g>
	</g>
	<g>
		<g>
			<path class="st1" d="M38.55,13.61H7.53c-0.16,0-0.28-0.13-0.28-0.28s0.13-0.28,0.28-0.28h31.01c0.16,0,0.28,0.13,0.28,0.28
				S38.7,13.61,38.55,13.61z"/>
		</g>
	</g>
	<g>
		<g>
			<path class="st1" d="M44.05,15.78H7.53c-0.17,0-0.31-0.14-0.31-0.31s0.14-0.31,0.31-0.31h36.51c0.17,0,0.31,0.14,0.31,0.31
				S44.22,15.78,44.05,15.78z"/>
		</g>
	</g>
	<g>
		<g>
			<path class="st1" d="M38.55,17.91H7.53c-0.16,0-0.28-0.13-0.28-0.28s0.13-0.28,0.28-0.28h31.01c0.16,0,0.28,0.13,0.28,0.28
				S38.7,17.91,38.55,17.91z"/>
		</g>
	</g>
	<g>
		<g>
			<path class="st1" d="M44.05,20.08H7.53c-0.17,0-0.31-0.14-0.31-0.31s0.14-0.31,0.31-0.31h36.51c0.17,0,0.31,0.14,0.31,0.31
				S44.22,20.08,44.05,20.08z"/>
		</g>
	</g>
	<g>
		<g>
			<path class="st1" d="M38.55,22.34H7.53c-0.16,0-0.28-0.13-0.28-0.28s0.13-0.28,0.28-0.28h31.01c0.16,0,0.28,0.13,0.28,0.28
				S38.7,22.34,38.55,22.34z"/>
		</g>
	</g>
	<g>
		<g>
			<path class="st1" d="M44.05,24.51H7.53c-0.17,0-0.31-0.14-0.31-0.31s0.14-0.31,0.31-0.31h36.51c0.17,0,0.31,0.14,0.31,0.31
				S44.22,24.51,44.05,24.51z"/>
		</g>
	</g>
	<g>
		<g>
			<path class="st1" d="M38.55,26.63H7.53c-0.16,0-0.28-0.13-0.28-0.28s0.13-0.28,0.28-0.28h31.01c0.16,0,0.28,0.13,0.28,0.28
				S38.7,26.63,38.55,26.63z"/>
		</g>
	</g>
	<g>
		<g>
			<path class="st1" d="M44.05,28.8H7.53c-0.17,0-0.31-0.14-0.31-0.31s0.14-0.31,0.31-0.31h36.51c0.17,0,0.31,0.14,0.31,0.31
				S44.22,28.8,44.05,28.8z"/>
		</g>
	</g>
</g>
</svg>
