<?xml version="1.0" encoding="utf-8"?>
<!-- Generator: Adobe Illustrator 26.0.2, SVG Export Plug-In . SVG Version: 6.00 Build 0)  -->
<svg version="1.1" id="Ebene_1" xmlns="http://www.w3.org/2000/svg" xmlns:xlink="http://www.w3.org/1999/xlink" x="0px" y="0px"
	 viewBox="0 0 66.63 59.37" style="enable-background:new 0 0 66.63 59.37;" xml:space="preserve">
<style type="text/css">
	.st0{fill:#E59C00;}
	.st1{fill:#2B2961;}
	.st2{fill:#FFFFFF;}
	.st3{clip-path:url(#SVGID_00000031168035057681998030000012823152528771294893_);}
	.st4{clip-path:url(#SVGID_00000085225020672987612250000014213736088097681598_);}
	.st5{clip-path:url(#SVGID_00000119094582210102143060000006105710455054540988_);}
	.st6{clip-path:url(#SVGID_00000042707719724820524490000007112380251650835088_);}
	.st7{clip-path:url(#SVGID_00000160893317113335517790000007111970761146882740_);}
	.st8{clip-path:url(#SVGID_00000065040503718100614410000015542975871167861157_);}
	.st9{clip-path:url(#SVGID_00000070101411360887752110000004575882107943748788_);}
	.st10{clip-path:url(#SVGID_00000085245785077353518310000002573417615462747325_);}
	.st11{clip-path:url(#SVGID_00000130625407658690625560000003140254490579026076_);}
	.st12{clip-path:url(#SVGID_00000112627914188535166450000007777520899913916845_);}
	.st13{clip-path:url(#SVGID_00000122715315460225727160000008213758483234134171_);}
	.st14{clip-path:url(#SVGID_00000070097013509346479440000018167457597278135949_);}
	.st15{clip-path:url(#SVGID_00000007426640284561438680000015084560913597152906_);}
	.st16{clip-path:url(#SVGID_00000042711134555929051250000011548434978506129297_);}
	.st17{clip-path:url(#SVGID_00000090291553461725902600000003695891039895021472_);}
	.st18{clip-path:url(#SVGID_00000150084827414181573980000008430754344767173306_);}
	.st19{clip-path:url(#SVGID_00000136395353347761074270000009946114324376466333_);}
	.st20{clip-path:url(#SVGID_00000004520843698388079860000010576710366592706228_);}
	.st21{clip-path:url(#SVGID_00000027562760648573865740000002930941312295919796_);}
	.st22{clip-path:url(#SVGID_00000098186870524064364760000013190661336625635506_);}
	.st23{clip-path:url(#SVGID_00000067203913832728883830000009285957280937474465_);}
	.st24{clip-path:url(#SVGID_00000115477502984086642740000011282947204287603636_);}
	.st25{clip-path:url(#SVGID_00000139984783401161121360000011606968070138199718_);}
	.st26{clip-path:url(#SVGID_00000048494561955466468370000010716210954680178109_);}
	.st27{clip-path:url(#SVGID_00000157308307719224102530000017803576630799899536_);}
	.st28{clip-path:url(#SVGID_00000090285711726971316110000017931530995305807750_);}
	.st29{clip-path:url(#SVGID_00000116194321003441535220000010439022956361896353_);}
	.st30{clip-path:url(#SVGID_00000076601832832616664780000000162658408137247881_);}
	.st31{clip-path:url(#SVGID_00000044155741546821039410000015550501284701728942_);}
	.st32{clip-path:url(#SVGID_00000180335863249661946430000003034688923270714285_);}
	.st33{clip-path:url(#SVGID_00000146471807464721112500000001199280688340156564_);}
	.st34{clip-path:url(#SVGID_00000129922464914206770010000017125845608076106375_);}
	.st35{clip-path:url(#SVGID_00000031185024575378671720000017817687479880571788_);}
	.st36{clip-path:url(#SVGID_00000021109651702013703220000008147957263423836038_);}
	.st37{clip-path:url(#SVGID_00000099627059488462584910000004980470670949304222_);}
	.st38{clip-path:url(#SVGID_00000121268958548326369380000014355602309651953322_);}
	.st39{clip-path:url(#SVGID_00000031207953743110914930000013764570161867265957_);}
	.st40{clip-path:url(#SVGID_00000017494988782735022670000004841249877490301612_);}
	.st41{clip-path:url(#SVGID_00000005255088800418931030000013609822392661127822_);}
	.st42{clip-path:url(#SVGID_00000062166877542047762040000005959957751772891305_);}
	.st43{clip-path:url(#SVGID_00000161610530674080585530000011326558215015912087_);}
	.st44{clip-path:url(#SVGID_00000137853232791989058780000000775284688171284117_);}
	.st45{clip-path:url(#SVGID_00000047775910586520055050000008775533346151641755_);}
	.st46{clip-path:url(#SVGID_00000160187702777126110870000011119667888614179250_);}
	.st47{clip-path:url(#SVGID_00000169554411887810802820000014846680315991222940_);}
	.st48{clip-path:url(#SVGID_00000115479848341240594780000011332278456716641958_);}
	.st49{clip-path:url(#SVGID_00000101097525341289804410000000935451249791047817_);}
	.st50{clip-path:url(#SVGID_00000168805667224094356000000011347597706544778915_);}
	.st51{clip-path:url(#SVGID_00000129196570532746966690000010608521878464903332_);}
	.st52{clip-path:url(#SVGID_00000162339000682629087490000004150966000433604530_);}
	.st53{clip-path:url(#SVGID_00000181067921595027096400000016786346175994372993_);}
	.st54{clip-path:url(#SVGID_00000111183861048712118520000001660775218853577099_);}
	.st55{clip-path:url(#SVGID_00000096036293872354453970000001300725266351237810_);}
	.st56{clip-path:url(#SVGID_00000074435187453049843720000006612106505850340492_);}
	.st57{clip-path:url(#SVGID_00000108307020694870877140000017425578898992785826_);}
	.st58{clip-path:url(#SVGID_00000034053447372868152910000016542976211619907491_);}
	.st59{clip-path:url(#SVGID_00000061472355631848642380000015396795014362055606_);}
	.st60{clip-path:url(#SVGID_00000019658964047448995680000012450014917820347823_);}
	.st61{clip-path:url(#SVGID_00000134960504222548382150000006144635198444427444_);}
	.st62{clip-path:url(#SVGID_00000093136563545924085040000010150421505162399362_);}
	.st63{clip-path:url(#SVGID_00000012472156459851676350000017159552738452025779_);}
	.st64{clip-path:url(#SVGID_00000181794964125419389470000004075153099136747174_);}
	.st65{clip-path:url(#SVGID_00000005257533143507652540000013447035618192045710_);}
	.st66{clip-path:url(#SVGID_00000132805796513011208870000002574059403765173173_);}
	.st67{clip-path:url(#SVGID_00000134959189170484844550000007519503817520485279_);}
	.st68{clip-path:url(#SVGID_00000063630093736045660150000009576939516421251733_);}
	.st69{clip-path:url(#SVGID_00000145044017053677150930000011308424827329049255_);}
	.st70{clip-path:url(#SVGID_00000129195730090612554070000000660434231948238727_);}
	.st71{clip-path:url(#SVGID_00000123402089606386226890000017330821571417429690_);}
	.st72{clip-path:url(#SVGID_00000146460199722555289470000017264944839767079836_);}
	.st73{clip-path:url(#SVGID_00000147926107645390927990000001748006516154784396_);}
	.st74{clip-path:url(#SVGID_00000089536116703680396790000018121563734404560527_);}
	.st75{clip-path:url(#SVGID_00000063591524621712788640000011107636741229876368_);}
	.st76{clip-path:url(#SVGID_00000132083676643878284800000000932504913224241026_);}
	.st77{clip-path:url(#SVGID_00000149349995218144057750000008191019100915871885_);}
	.st78{clip-path:url(#SVGID_00000047754923072280366990000006289059727909882022_);}
	.st79{clip-path:url(#SVGID_00000008864415419860106150000005725360263783686532_);}
	.st80{clip-path:url(#SVGID_00000164514796646438803420000002154995908785509805_);}
	.st81{clip-path:url(#SVGID_00000005251790975337719030000010706676668584294272_);}
	.st82{clip-path:url(#SVGID_00000103260449725019429620000018174111156442893227_);}
	.st83{fill:none;}
	.st84{clip-path:url(#SVGID_00000127726087571828847660000012345404881221193114_);}
	.st85{clip-path:url(#SVGID_00000080914186693590312070000009113686268799786119_);}
	.st86{clip-path:url(#SVGID_00000041984929994444456360000008461526677193072515_);}
	.st87{clip-path:url(#SVGID_00000104698928965234938660000008728648451884476322_);}
	.st88{clip-path:url(#SVGID_00000096044899433668018300000006430324251276777882_);}
	.st89{clip-path:url(#SVGID_00000047056235631585858620000008773995039097474233_);}
	.st90{clip-path:url(#SVGID_00000083783190231314928810000007294867824622485427_);}
	.st91{clip-path:url(#SVGID_00000031925565529911648520000000050615859651996063_);}
	.st92{clip-path:url(#SVGID_00000041984186524470613180000016281105602541734534_);}
	.st93{clip-path:url(#SVGID_00000134956192571825120570000009166490384546029749_);}
	.st94{clip-path:url(#SVGID_00000171698825208938962560000009296506741555725476_);}
	.st95{clip-path:url(#SVGID_00000173866568696142109340000008326985746751497878_);}
	.st96{clip-path:url(#SVGID_00000039105837703708501120000000362853788898257034_);}
	.st97{clip-path:url(#SVGID_00000030461042967057310200000001706882884111565241_);}
	.st98{clip-path:url(#SVGID_00000103981356661299116730000009979834251791449277_);}
	.st99{clip-path:url(#SVGID_00000135690885249348861430000005297411171675971513_);}
	.st100{clip-path:url(#SVGID_00000000937351022339660880000013294903146814777244_);}
	.st101{clip-path:url(#SVGID_00000122722500433157761160000009267628627236792217_);}
	.st102{clip-path:url(#SVGID_00000079461144385830642090000017386073619910168762_);}
	.st103{clip-path:url(#SVGID_00000049902299207370424460000000413843916478650505_);}
	.st104{clip-path:url(#SVGID_00000077323176143211059240000008970058386329788091_);}
	.st105{clip-path:url(#SVGID_00000010280471842306770830000007345805806027235219_);}
	.st106{clip-path:url(#SVGID_00000119105633172435488100000016068647848259967394_);}
	.st107{clip-path:url(#SVGID_00000082366281744362709740000008383991796471004306_);}
	.st108{clip-path:url(#SVGID_00000034782291122120283930000018041410710173855117_);}
	.st109{clip-path:url(#SVGID_00000163055324983560086580000007243656297733844370_);}
	.st110{clip-path:url(#SVGID_00000003106077501356574420000003511678037459580555_);}
	.st111{clip-path:url(#SVGID_00000070115626928379781850000004923658674217621671_);}
	.st112{clip-path:url(#SVGID_00000011717623980588343960000010096695271317016711_);}
	.st113{clip-path:url(#SVGID_00000096061563172084370530000007887292614644902787_);}
	.st114{clip-path:url(#SVGID_00000000195921781266373130000007057730323923082880_);}
	.st115{clip-path:url(#SVGID_00000099629116240211669780000015370800171035527853_);}
	.st116{clip-path:url(#SVGID_00000079476808817163311450000016329092465620268701_);}
	.st117{clip-path:url(#SVGID_00000156588266265025511840000016142343715927209383_);}
	.st118{clip-path:url(#SVGID_00000091703286432122948370000005682531194149277580_);}
	.st119{clip-path:url(#SVGID_00000111159043553045342280000014032692669631460253_);}
	.st120{clip-path:url(#SVGID_00000172432170014439720320000017845470237147230594_);}
	.st121{clip-path:url(#SVGID_00000070836005183436129620000015572526843275494324_);}
	.st122{clip-path:url(#SVGID_00000041291393964294777260000014181776708782454407_);}
	.st123{clip-path:url(#SVGID_00000057150029976595625390000017484267452750491781_);}
	.st124{clip-path:url(#SVGID_00000178171571509788840620000018331264240850604417_);}
	.st125{clip-path:url(#SVGID_00000106839240571906225380000015957659779790622358_);}
	.st126{clip-path:url(#SVGID_00000178169037905351614060000006264954300942632891_);}
	.st127{clip-path:url(#SVGID_00000181089309378017562440000012049361110595649202_);}
	.st128{clip-path:url(#SVGID_00000028323745718225483100000007007277164085071546_);}
	.st129{clip-path:url(#SVGID_00000181074263952878008100000012272938548027847859_);}
	.st130{clip-path:url(#SVGID_00000020375876425356903580000012824924567563645104_);}
	.st131{clip-path:url(#SVGID_00000151529923138195200040000016180798526169280908_);}
	.st132{clip-path:url(#SVGID_00000165944182308740142600000016759367422666951330_);}
	.st133{clip-path:url(#SVGID_00000146489875516305283510000000201783080372181420_);}
	.st134{clip-path:url(#SVGID_00000119833538512634389470000008919737089512547251_);}
	.st135{clip-path:url(#SVGID_00000147940101603790107500000007308440166361992361_);}
	.st136{clip-path:url(#SVGID_00000066496045592105315120000005673227343618760358_);}
	.st137{clip-path:url(#SVGID_00000007413414859159478870000011692539589832471982_);}
	.st138{clip-path:url(#SVGID_00000090989368533055460590000001269931257976670114_);}
	.st139{clip-path:url(#SVGID_00000008869498450238494350000001130855480985828277_);}
	.st140{clip-path:url(#SVGID_00000041987355912875354780000006874255003772542882_);}
	.st141{clip-path:url(#SVGID_00000118373706945565831700000011909175786285744554_);}
	.st142{clip-path:url(#SVGID_00000111899334229995343600000017239735811168987024_);}
	.st143{clip-path:url(#SVGID_00000181789696556688936740000000503608791106459315_);}
	.st144{clip-path:url(#SVGID_00000108308016525910757890000018150692519166448007_);}
	.st145{clip-path:url(#SVGID_00000016046093972611406240000014048894070790970779_);}
	.st146{clip-path:url(#SVGID_00000076597235217468971720000016075781330898031510_);}
	.st147{clip-path:url(#SVGID_00000138561794556166988890000012931134783589728643_);}
	.st148{clip-path:url(#SVGID_00000028326281915148647980000015826738016266695094_);}
	.st149{clip-path:url(#SVGID_00000176013544896468243550000004095544231594320564_);}
	.st150{clip-path:url(#SVGID_00000111873836403004424900000009478616628510818710_);}
	.st151{clip-path:url(#SVGID_00000010273019498046627380000011151153128873377196_);}
	.st152{clip-path:url(#SVGID_00000029749663958239232650000010254912832506482079_);}
	.st153{clip-path:url(#SVGID_00000110433252876398597500000012454659793804245920_);}
	.st154{clip-path:url(#SVGID_00000038371417915086444500000005205833584759975046_);}
	.st155{clip-path:url(#SVGID_00000070096941476737138660000014802073509663457694_);}
	.st156{clip-path:url(#SVGID_00000072252465441679717310000011470226549492293281_);}
	.st157{clip-path:url(#SVGID_00000011722318025584392900000001489481007341636259_);}
	.st158{clip-path:url(#SVGID_00000106136230985252192400000012733251332351333519_);}
	.st159{clip-path:url(#SVGID_00000124137954192284769650000008386127382413573254_);}
	.st160{clip-path:url(#SVGID_00000178168503126163073820000011694120546531956413_);}
	.st161{clip-path:url(#SVGID_00000026849957196296511050000017374430980058580642_);}
	.st162{clip-path:url(#SVGID_00000022557308451936746800000017344550627961203391_);}
	.st163{clip-path:url(#SVGID_00000026860876787605345250000016255603034359945147_);}
	.st164{clip-path:url(#SVGID_00000075121233695890522200000007917470782565385376_);}
	.st165{clip-path:url(#SVGID_00000112623133345643707360000014148819858785462189_);}
	.st166{clip-path:url(#SVGID_00000047745792194833463020000016509995281675818171_);}
	.st167{clip-path:url(#SVGID_00000049195629003498705990000009708908246144176302_);}
	.st168{clip-path:url(#SVGID_00000166646152518394808360000001373631338886171551_);}
	.st169{clip-path:url(#SVGID_00000016043802214603136990000015420638205563951546_);}
	.st170{clip-path:url(#SVGID_00000178922479144679110520000004139669444155708308_);}
	.st171{clip-path:url(#SVGID_00000089532601878416382410000006544354219410043563_);}
	.st172{clip-path:url(#SVGID_00000062885652025712462850000003626521506035350406_);}
	.st173{clip-path:url(#SVGID_00000018223020487568091020000012238948316477789343_);}
	.st174{clip-path:url(#SVGID_00000111174897249316186410000009272381548243356075_);}
	.st175{clip-path:url(#SVGID_00000090269992890638969730000015520873506207031722_);}
	.st176{clip-path:url(#SVGID_00000063624183154312455180000004920867230763409848_);}
	.st177{clip-path:url(#SVGID_00000086684749919868557030000000337742663234312087_);}
	.st178{clip-path:url(#SVGID_00000137111918325013701620000003830381616830249859_);}
	.st179{clip-path:url(#SVGID_00000148646323045061392470000017821765445690768770_);}
	.st180{clip-path:url(#SVGID_00000145044063128277370320000015101403233860796334_);}
	.st181{clip-path:url(#SVGID_00000083058616460794274670000016645597716198749059_);}
	.st182{clip-path:url(#SVGID_00000054257637261654142900000004519861245729637276_);}
	.st183{clip-path:url(#SVGID_00000023280284391707409420000009880300608550701955_);}
	.st184{clip-path:url(#SVGID_00000142133728831866422540000003568027549818173606_);}
	.st185{clip-path:url(#SVGID_00000034069257003402119270000012432981678679605428_);}
	.st186{clip-path:url(#SVGID_00000022562118965436012330000007200695280830904461_);}
</style>
<g>
	<g>
		<g>
			<rect x="30.51" y="13.25" class="st0" width="26.33" height="7.94"/>
		</g>
	</g>
	<g>
		<g>
			<path class="st0" d="M56.95,21.31H30.39v-8.18h26.57V21.31z M30.63,21.07h26.09v-7.7H30.63V21.07z"/>
		</g>
	</g>
	<g>
		<defs>
			<rect id="SVGID_00000021805917828492366900000018335748728596357274_" width="66.63" height="59.37"/>
		</defs>
		<clipPath id="SVGID_00000030447101477610871840000006799602595482106810_">
			<use xlink:href="#SVGID_00000021805917828492366900000018335748728596357274_"  style="overflow:visible;"/>
		</clipPath>
		<g style="clip-path:url(#SVGID_00000030447101477610871840000006799602595482106810_);">
			<g>
				<path class="st0" d="M33.86,32.43c1.85,0,3.35-1.5,3.35-3.35c0-1.85-1.5-3.35-3.35-3.35c-1.85,0-3.35,1.5-3.35,3.35
					C30.51,30.93,32.01,32.43,33.86,32.43"/>
			</g>
		</g>
		<g style="clip-path:url(#SVGID_00000030447101477610871840000006799602595482106810_);">
			<g>
				<path class="st0" d="M33.86,32.55c-1.91,0-3.47-1.56-3.47-3.47c0-1.91,1.56-3.47,3.47-3.47s3.47,1.56,3.47,3.47
					C37.33,30.99,35.77,32.55,33.86,32.55z M33.86,25.84c-1.78,0-3.23,1.45-3.23,3.23c0,1.78,1.45,3.23,3.23,3.23
					s3.23-1.45,3.23-3.23C37.09,27.29,35.64,25.84,33.86,25.84z"/>
			</g>
		</g>
		<g style="clip-path:url(#SVGID_00000030447101477610871840000006799602595482106810_);">
			<g>
				<path class="st0" d="M33.86,42.33c1.85,0,3.35-1.5,3.35-3.35c0-1.85-1.5-3.35-3.35-3.35c-1.85,0-3.35,1.5-3.35,3.35
					C30.51,40.83,32.01,42.33,33.86,42.33"/>
			</g>
		</g>
		<g style="clip-path:url(#SVGID_00000030447101477610871840000006799602595482106810_);">
			<g>
				<path class="st0" d="M33.86,42.45c-1.91,0-3.47-1.56-3.47-3.47c0-1.91,1.56-3.47,3.47-3.47s3.47,1.56,3.47,3.47
					C37.33,40.89,35.77,42.45,33.86,42.45z M33.86,35.74c-1.78,0-3.23,1.45-3.23,3.23c0,1.78,1.45,3.23,3.23,3.23
					s3.23-1.45,3.23-3.23C37.09,37.19,35.64,35.74,33.86,35.74z"/>
			</g>
		</g>
		<g style="clip-path:url(#SVGID_00000030447101477610871840000006799602595482106810_);">
			<g>
				<path class="st0" d="M33.86,52.3c1.85,0,3.35-1.5,3.35-3.35c0-1.85-1.5-3.35-3.35-3.35c-1.85,0-3.35,1.5-3.35,3.35
					C30.51,50.8,32.01,52.3,33.86,52.3"/>
			</g>
		</g>
		<g style="clip-path:url(#SVGID_00000030447101477610871840000006799602595482106810_);">
			<g>
				<path class="st0" d="M33.86,52.42c-1.91,0-3.47-1.56-3.47-3.47c0-1.91,1.56-3.47,3.47-3.47s3.47,1.56,3.47,3.47
					C37.33,50.86,35.77,52.42,33.86,52.42z M33.86,45.72c-1.78,0-3.23,1.45-3.23,3.23c0,1.78,1.45,3.23,3.23,3.23
					s3.23-1.45,3.23-3.23C37.09,47.17,35.64,45.72,33.86,45.72z"/>
			</g>
		</g>
		<g style="clip-path:url(#SVGID_00000030447101477610871840000006799602595482106810_);">
			<g>
				<path class="st0" d="M43.68,32.43c1.85,0,3.35-1.5,3.35-3.35c0-1.85-1.5-3.35-3.35-3.35c-1.85,0-3.35,1.5-3.35,3.35
					C40.33,30.93,41.83,32.43,43.68,32.43"/>
			</g>
		</g>
		<g style="clip-path:url(#SVGID_00000030447101477610871840000006799602595482106810_);">
			<g>
				<path class="st0" d="M43.68,32.55c-1.91,0-3.47-1.56-3.47-3.47c0-1.91,1.56-3.47,3.47-3.47s3.47,1.56,3.47,3.47
					C47.15,30.99,45.59,32.55,43.68,32.55z M43.68,25.84c-1.78,0-3.23,1.45-3.23,3.23c0,1.78,1.45,3.23,3.23,3.23
					s3.23-1.45,3.23-3.23C46.91,27.29,45.46,25.84,43.68,25.84z"/>
			</g>
		</g>
		<g style="clip-path:url(#SVGID_00000030447101477610871840000006799602595482106810_);">
			<g>
				<path class="st0" d="M43.68,42.33c1.85,0,3.35-1.5,3.35-3.35c0-1.85-1.5-3.35-3.35-3.35c-1.85,0-3.35,1.5-3.35,3.35
					C40.33,40.83,41.83,42.33,43.68,42.33"/>
			</g>
		</g>
		<g style="clip-path:url(#SVGID_00000030447101477610871840000006799602595482106810_);">
			<g>
				<path class="st0" d="M43.68,42.45c-1.91,0-3.47-1.56-3.47-3.47c0-1.91,1.56-3.47,3.47-3.47s3.47,1.56,3.47,3.47
					C47.15,40.89,45.59,42.45,43.68,42.45z M43.68,35.74c-1.78,0-3.23,1.45-3.23,3.23c0,1.78,1.45,3.23,3.23,3.23
					s3.23-1.45,3.23-3.23C46.91,37.19,45.46,35.74,43.68,35.74z"/>
			</g>
		</g>
		<g style="clip-path:url(#SVGID_00000030447101477610871840000006799602595482106810_);">
			<g>
				<path class="st0" d="M43.68,52.3c1.85,0,3.35-1.5,3.35-3.35c0-1.85-1.5-3.35-3.35-3.35c-1.85,0-3.35,1.5-3.35,3.35
					C40.33,50.8,41.83,52.3,43.68,52.3"/>
			</g>
		</g>
		<g style="clip-path:url(#SVGID_00000030447101477610871840000006799602595482106810_);">
			<g>
				<path class="st0" d="M43.68,52.42c-1.91,0-3.47-1.56-3.47-3.47c0-1.91,1.56-3.47,3.47-3.47s3.47,1.56,3.47,3.47
					C47.15,50.86,45.59,52.42,43.68,52.42z M43.68,45.72c-1.78,0-3.23,1.45-3.23,3.23c0,1.78,1.45,3.23,3.23,3.23
					s3.23-1.45,3.23-3.23C46.91,47.17,45.46,45.72,43.68,45.72z"/>
			</g>
		</g>
		<g style="clip-path:url(#SVGID_00000030447101477610871840000006799602595482106810_);">
			<g>
				<path class="st0" d="M53.5,32.43c1.85,0,3.35-1.5,3.35-3.35c0-1.85-1.5-3.35-3.35-3.35c-1.85,0-3.35,1.5-3.35,3.35
					C50.15,30.93,51.65,32.43,53.5,32.43"/>
			</g>
		</g>
		<g style="clip-path:url(#SVGID_00000030447101477610871840000006799602595482106810_);">
			<g>
				<path class="st0" d="M53.5,32.55c-1.91,0-3.47-1.56-3.47-3.47c0-1.91,1.56-3.47,3.47-3.47c1.91,0,3.47,1.56,3.47,3.47
					C56.97,30.99,55.41,32.55,53.5,32.55z M53.5,25.84c-1.78,0-3.23,1.45-3.23,3.23c0,1.78,1.45,3.23,3.23,3.23
					c1.78,0,3.23-1.45,3.23-3.23C56.73,27.29,55.28,25.84,53.5,25.84z"/>
			</g>
		</g>
		<g style="clip-path:url(#SVGID_00000030447101477610871840000006799602595482106810_);">
			<g>
				<path class="st0" d="M53.5,42.37c1.85,0,3.35-1.5,3.35-3.35c0-1.85-1.5-3.35-3.35-3.35c-1.85,0-3.35,1.5-3.35,3.35
					C50.15,40.86,51.65,42.37,53.5,42.37"/>
			</g>
		</g>
		<g style="clip-path:url(#SVGID_00000030447101477610871840000006799602595482106810_);">
			<g>
				<path class="st0" d="M53.5,42.48c-1.91,0-3.47-1.56-3.47-3.47c0-1.91,1.56-3.47,3.47-3.47c1.91,0,3.47,1.56,3.47,3.47
					C56.97,40.93,55.41,42.48,53.5,42.48z M53.5,35.78c-1.78,0-3.23,1.45-3.23,3.23c0,1.78,1.45,3.23,3.23,3.23
					c1.78,0,3.23-1.45,3.23-3.23C56.73,37.23,55.28,35.78,53.5,35.78z"/>
			</g>
		</g>
		<g style="clip-path:url(#SVGID_00000030447101477610871840000006799602595482106810_);">
			<g>
				<path class="st0" d="M53.5,52.3c1.85,0,3.35-1.5,3.35-3.35c0-1.85-1.5-3.35-3.35-3.35c-1.85,0-3.35,1.5-3.35,3.35
					C50.15,50.8,51.65,52.3,53.5,52.3"/>
			</g>
		</g>
		<g style="clip-path:url(#SVGID_00000030447101477610871840000006799602595482106810_);">
			<g>
				<path class="st0" d="M53.5,52.42c-1.91,0-3.47-1.56-3.47-3.47c0-1.91,1.56-3.47,3.47-3.47c1.91,0,3.47,1.56,3.47,3.47
					C56.97,50.86,55.41,52.42,53.5,52.42z M53.5,45.72c-1.78,0-3.23,1.45-3.23,3.23c0,1.78,1.45,3.23,3.23,3.23
					c1.78,0,3.23-1.45,3.23-3.23C56.73,47.17,55.28,45.72,53.5,45.72z"/>
			</g>
		</g>
		<g style="clip-path:url(#SVGID_00000030447101477610871840000006799602595482106810_);">
			<g>
				<path class="st1" d="M66.33,59.37H0.3c-0.17,0-0.3-0.13-0.3-0.3v-54c0-0.17,0.13-0.3,0.3-0.3h66.03c0.17,0,0.3,0.13,0.3,0.3v54
					C66.63,59.23,66.5,59.37,66.33,59.37z M0.6,58.77h65.43V5.37H0.6V58.77z"/>
			</g>
		</g>
		<g style="clip-path:url(#SVGID_00000030447101477610871840000006799602595482106810_);">
			<g>
				<path class="st2" d="M21.54,42.28c0-0.03,0.01-0.04,0.01-0.07l-0.22-35.2c-0.02-3.68-3.16-6.69-7-6.71
					C10.48,0.28,7.38,3.25,7.4,6.93l0.01,2.29H7.41c0,0.03-0.01,0.04-0.01,0.07l0.22,35.2c0.02,3.68,3.16,6.69,7,6.71
					c3.84,0.02,6.94-2.95,6.92-6.63L21.54,42.28L21.54,42.28z"/>
			</g>
		</g>
		<g style="clip-path:url(#SVGID_00000030447101477610871840000006799602595482106810_);">
			<g>
				<path class="st1" d="M14.67,51.5c-0.01,0-0.03,0-0.04,0c-4-0.02-7.28-3.17-7.3-7.01L7.1,9.29c0-0.02,0-0.07,0.01-0.08
					c0-0.02,0-0.05,0.01-0.07L7.1,6.93C7.09,5.12,7.8,3.41,9.1,2.11C10.46,0.75,12.3,0,14.28,0c0.02,0,0.03,0,0.05,0
					c4,0.02,7.28,3.16,7.3,7.01l0.22,35.2c0,0.02,0,0.07-0.01,0.09c0,0.03,0,0.05-0.01,0.08l0.01,2.2c0.01,1.81-0.7,3.52-1.99,4.81
					C18.49,50.75,16.65,51.5,14.67,51.5z M7.7,9.31l0.22,35.18c0.02,3.51,3.03,6.39,6.7,6.41c0.01,0,0.03,0,0.04,0
					c1.82,0,3.51-0.69,4.76-1.94c1.18-1.18,1.83-2.74,1.82-4.39l-0.01-2.29c0-0.03,0-0.07,0.02-0.1L21.02,7.01
					C21,3.5,18,0.62,14.32,0.6c-0.01,0-0.03,0-0.04,0c-1.82,0-3.51,0.69-4.76,1.94C8.34,3.72,7.69,5.28,7.7,6.93l0.01,2.29
					C7.72,9.25,7.71,9.28,7.7,9.31z"/>
			</g>
		</g>
	</g>
	<g>
		<g>
			<path class="st1" d="M56.13,20.78H29.8c-0.17,0-0.3-0.13-0.3-0.3v-7.94c0-0.17,0.13-0.3,0.3-0.3h26.33c0.17,0,0.3,0.13,0.3,0.3
				v7.94C56.43,20.65,56.29,20.78,56.13,20.78z M30.1,20.18h25.73v-7.34H30.1V20.18z"/>
		</g>
	</g>
	<g>
		<defs>
			<rect id="SVGID_00000138559853145603933640000008496171558514872965_" width="66.63" height="59.37"/>
		</defs>
		<clipPath id="SVGID_00000105428734425921198590000005450776393522323370_">
			<use xlink:href="#SVGID_00000138559853145603933640000008496171558514872965_"  style="overflow:visible;"/>
		</clipPath>
		<g style="clip-path:url(#SVGID_00000105428734425921198590000005450776393522323370_);">
			<g>
				<path class="st1" d="M33.15,32.02c-2.01,0-3.65-1.64-3.65-3.65c0-2.01,1.64-3.65,3.65-3.65s3.65,1.64,3.65,3.65
					C36.8,30.38,35.16,32.02,33.15,32.02z M33.15,25.32c-1.68,0-3.05,1.37-3.05,3.05c0,1.68,1.37,3.05,3.05,3.05
					c1.68,0,3.05-1.37,3.05-3.05C36.2,26.68,34.83,25.32,33.15,25.32z"/>
			</g>
		</g>
		<g style="clip-path:url(#SVGID_00000105428734425921198590000005450776393522323370_);">
			<g>
				<path class="st1" d="M33.15,41.92c-2.01,0-3.65-1.64-3.65-3.65c0-2.01,1.64-3.65,3.65-3.65s3.65,1.64,3.65,3.65
					C36.8,40.28,35.16,41.92,33.15,41.92z M33.15,35.22c-1.68,0-3.05,1.37-3.05,3.05c0,1.68,1.37,3.05,3.05,3.05
					c1.68,0,3.05-1.37,3.05-3.05C36.2,36.59,34.83,35.22,33.15,35.22z"/>
			</g>
		</g>
		<g style="clip-path:url(#SVGID_00000105428734425921198590000005450776393522323370_);">
			<g>
				<path class="st1" d="M33.15,51.89c-2.01,0-3.65-1.64-3.65-3.65c0-2.01,1.64-3.65,3.65-3.65s3.65,1.64,3.65,3.65
					C36.8,50.25,35.16,51.89,33.15,51.89z M33.15,45.19c-1.68,0-3.05,1.37-3.05,3.05c0,1.68,1.37,3.05,3.05,3.05
					c1.68,0,3.05-1.37,3.05-3.05C36.2,46.56,34.83,45.19,33.15,45.19z"/>
			</g>
		</g>
		<g style="clip-path:url(#SVGID_00000105428734425921198590000005450776393522323370_);">
			<g>
				<path class="st1" d="M42.97,32.02c-2.01,0-3.65-1.64-3.65-3.65c0-2.01,1.64-3.65,3.65-3.65s3.65,1.64,3.65,3.65
					C46.62,30.38,44.98,32.02,42.97,32.02z M42.97,25.32c-1.68,0-3.05,1.37-3.05,3.05c0,1.68,1.37,3.05,3.05,3.05
					s3.05-1.37,3.05-3.05C46.02,26.68,44.65,25.32,42.97,25.32z"/>
			</g>
		</g>
		<g style="clip-path:url(#SVGID_00000105428734425921198590000005450776393522323370_);">
			<g>
				<path class="st1" d="M42.97,41.92c-2.01,0-3.65-1.64-3.65-3.65c0-2.01,1.64-3.65,3.65-3.65s3.65,1.64,3.65,3.65
					C46.62,40.28,44.98,41.92,42.97,41.92z M42.97,35.22c-1.68,0-3.05,1.37-3.05,3.05c0,1.68,1.37,3.05,3.05,3.05
					s3.05-1.37,3.05-3.05C46.02,36.59,44.65,35.22,42.97,35.22z"/>
			</g>
		</g>
		<g style="clip-path:url(#SVGID_00000105428734425921198590000005450776393522323370_);">
			<g>
				<path class="st1" d="M42.97,51.89c-2.01,0-3.65-1.64-3.65-3.65c0-2.01,1.64-3.65,3.65-3.65s3.65,1.64,3.65,3.65
					C46.62,50.25,44.98,51.89,42.97,51.89z M42.97,45.19c-1.68,0-3.05,1.37-3.05,3.05c0,1.68,1.37,3.05,3.05,3.05
					s3.05-1.37,3.05-3.05C46.02,46.56,44.65,45.19,42.97,45.19z"/>
			</g>
		</g>
		<g style="clip-path:url(#SVGID_00000105428734425921198590000005450776393522323370_);">
			<g>
				<path class="st1" d="M52.79,32.02c-2.01,0-3.65-1.64-3.65-3.65c0-2.01,1.64-3.65,3.65-3.65s3.65,1.64,3.65,3.65
					C56.44,30.38,54.8,32.02,52.79,32.02z M52.79,25.32c-1.68,0-3.05,1.37-3.05,3.05c0,1.68,1.37,3.05,3.05,3.05
					c1.68,0,3.05-1.37,3.05-3.05C55.84,26.68,54.47,25.32,52.79,25.32z"/>
			</g>
		</g>
		<g style="clip-path:url(#SVGID_00000105428734425921198590000005450776393522323370_);">
			<g>
				<path class="st1" d="M52.79,41.96c-2.01,0-3.65-1.64-3.65-3.65c0-2.01,1.64-3.65,3.65-3.65s3.65,1.64,3.65,3.65
					C56.44,40.32,54.8,41.96,52.79,41.96z M52.79,35.25c-1.68,0-3.05,1.37-3.05,3.05c0,1.68,1.37,3.05,3.05,3.05
					c1.68,0,3.05-1.37,3.05-3.05C55.84,36.62,54.47,35.25,52.79,35.25z"/>
			</g>
		</g>
		<g style="clip-path:url(#SVGID_00000105428734425921198590000005450776393522323370_);">
			<g>
				<path class="st1" d="M52.79,51.89c-2.01,0-3.65-1.64-3.65-3.65c0-2.01,1.64-3.65,3.65-3.65s3.65,1.64,3.65,3.65
					C56.44,50.25,54.8,51.89,52.79,51.89z M52.79,45.19c-1.68,0-3.05,1.37-3.05,3.05c0,1.68,1.37,3.05,3.05,3.05
					c1.68,0,3.05-1.37,3.05-3.05C55.84,46.56,54.47,45.19,52.79,45.19z"/>
			</g>
		</g>
		<g style="clip-path:url(#SVGID_00000105428734425921198590000005450776393522323370_);">
			<g>
				<path class="st0" d="M22.67,42.28c0-0.03,0.01-0.04,0.01-0.07l-0.22-35.2c-0.02-3.68-3.16-6.69-7-6.71
					c-3.85-0.02-6.94,2.95-6.92,6.63l0.01,2.29H8.54c0,0.03-0.01,0.04-0.01,0.07l0.22,35.2c0.02,3.68,3.16,6.69,7,6.71
					c3.84,0.02,6.94-2.95,6.92-6.63L22.67,42.28L22.67,42.28z"/>
			</g>
		</g>
		<g style="clip-path:url(#SVGID_00000105428734425921198590000005450776393522323370_);">
			<g>
				<path class="st0" d="M15.8,51.32c-0.01,0-0.03,0-0.04,0c-3.9-0.02-7.1-3.08-7.12-6.83L8.42,9.29c0-0.02,0-0.04,0-0.06l0-2.3
					C8.41,5.17,9.1,3.5,10.36,2.24c1.33-1.33,3.12-2.06,5.05-2.06c0.01,0,0.03,0,0.04,0c3.9,0.02,7.1,3.08,7.12,6.83l0.22,35.2
					c0,0.02,0,0.04,0,0.06l0,0.12l-0.01,0l0.01,2.18c0.01,1.76-0.68,3.42-1.94,4.69C19.53,50.59,17.73,51.32,15.8,51.32z M8.66,9.34
					l0.22,35.15c0.02,3.61,3.11,6.57,6.88,6.59c0.01,0,0.03,0,0.04,0c1.87,0,3.6-0.71,4.89-1.99c1.22-1.22,1.88-2.82,1.87-4.52
					l-0.01-2.41h0.01L22.34,7.01c-0.02-3.61-3.11-6.57-6.88-6.59c-0.01,0-0.03,0-0.04,0c-1.87,0-3.6,0.71-4.89,1.99
					C9.31,3.63,8.65,5.23,8.66,6.93l0.01,2.41H8.66z"/>
			</g>
		</g>
		<g style="clip-path:url(#SVGID_00000105428734425921198590000005450776393522323370_);">
			<g>
				<path class="st1" d="M14.67,51.5c-0.01,0-0.03,0-0.04,0c-4-0.02-7.28-3.17-7.3-7.01L7.1,9.29c0-0.02,0-0.07,0.01-0.08
					c0-0.02,0-0.05,0.01-0.07L7.1,6.93C7.09,5.12,7.8,3.41,9.1,2.11C10.46,0.75,12.3,0,14.28,0c0.02,0,0.03,0,0.05,0
					c4,0.02,7.28,3.16,7.3,7.01l0.22,35.2c0,0.02,0,0.07-0.01,0.09c0,0.03,0,0.05-0.01,0.08l0.01,2.2c0.01,1.81-0.7,3.52-1.99,4.81
					C18.49,50.75,16.65,51.5,14.67,51.5z M7.7,9.31l0.22,35.18c0.02,3.51,3.03,6.39,6.7,6.41c0.01,0,0.03,0,0.04,0
					c1.82,0,3.51-0.69,4.76-1.94c1.18-1.18,1.83-2.74,1.82-4.39l-0.01-2.29c0-0.03,0-0.07,0.02-0.1L21.02,7.01
					C21,3.5,18,0.62,14.32,0.6c-0.01,0-0.03,0-0.04,0c-1.82,0-3.51,0.69-4.76,1.94C8.34,3.72,7.69,5.28,7.7,6.93l0.01,2.29
					C7.72,9.25,7.71,9.28,7.7,9.31z"/>
			</g>
		</g>
	</g>
</g>
</svg>
