<?xml version="1.0" encoding="utf-8"?>
<!-- Generator: Adobe Illustrator 26.0.2, SVG Export Plug-In . SVG Version: 6.00 Build 0)  -->
<svg version="1.1" id="Ebene_1" xmlns="http://www.w3.org/2000/svg" xmlns:xlink="http://www.w3.org/1999/xlink" x="0px" y="0px"
	 viewBox="0 0 52.33 54" style="enable-background:new 0 0 52.33 54;" xml:space="preserve">
<style type="text/css">
	.st0{fill:#E59C00;}
	.st1{fill:#2B2961;}
	.st2{fill:#FFFFFF;}
	.st3{clip-path:url(#SVGID_00000041278934162440084870000000738578072948073126_);}
	.st4{clip-path:url(#SVGID_00000139260877738849548720000014562701240937796535_);}
	.st5{clip-path:url(#SVGID_00000142880484375449067910000011620075377047541419_);}
	.st6{clip-path:url(#SVGID_00000033347257271710176850000011451138746459122353_);}
	.st7{clip-path:url(#SVGID_00000150789591166796174550000006768763874802587314_);}
	.st8{clip-path:url(#SVGID_00000041261211064610395090000013738435186300665265_);}
	.st9{clip-path:url(#SVGID_00000154383792728782210850000008517733572694669499_);}
	.st10{clip-path:url(#SVGID_00000134947781337852034200000006824841894516683684_);}
	.st11{clip-path:url(#SVGID_00000005226768411122421280000010921538340694676921_);}
	.st12{clip-path:url(#SVGID_00000024720732506793229360000000876578155316420776_);}
	.st13{clip-path:url(#SVGID_00000022547212286210179520000006081995138346707119_);}
	.st14{clip-path:url(#SVGID_00000052822748417981510230000001219506931109958018_);}
	.st15{clip-path:url(#SVGID_00000016037802407710903850000016262803327278458776_);}
	.st16{clip-path:url(#SVGID_00000134930759554186807270000009542712756452932537_);}
	.st17{clip-path:url(#SVGID_00000165924271980065816880000000275502801226763395_);}
	.st18{clip-path:url(#SVGID_00000104695792933352004650000007152829377391806619_);}
	.st19{clip-path:url(#SVGID_00000139268790100289485970000017292009935719597456_);}
	.st20{clip-path:url(#SVGID_00000067958254537952884220000003577952264624010165_);}
	.st21{clip-path:url(#SVGID_00000021801903530648284820000005603006814710912171_);}
	.st22{clip-path:url(#SVGID_00000044864354248336199360000002562340572817228452_);}
	.st23{clip-path:url(#SVGID_00000116224757672113326390000007900314922356689055_);}
	.st24{clip-path:url(#SVGID_00000031928329190679902800000010039450237202684081_);}
	.st25{clip-path:url(#SVGID_00000134236796762854769490000000947516953390458525_);}
	.st26{clip-path:url(#SVGID_00000092436356562313869260000016380448006954115227_);}
	.st27{clip-path:url(#SVGID_00000037650488629823172230000007154026484556056718_);}
	.st28{clip-path:url(#SVGID_00000036217942250434565510000009020895130752653485_);}
	.st29{clip-path:url(#SVGID_00000089558512294550458770000010669318629930148225_);}
	.st30{clip-path:url(#SVGID_00000130647152805875931090000005934565473713052606_);}
	.st31{clip-path:url(#SVGID_00000138562278985938289950000015909015670423983240_);}
	.st32{clip-path:url(#SVGID_00000098915047910777336520000013751799759982924990_);}
	.st33{clip-path:url(#SVGID_00000167371796216417255120000007765285169453611395_);}
	.st34{clip-path:url(#SVGID_00000042736203405747171910000015312600209967561124_);}
	.st35{clip-path:url(#SVGID_00000042716290400643637500000010576711962399541136_);}
	.st36{clip-path:url(#SVGID_00000106865507712397770180000001566567214375789503_);}
	.st37{clip-path:url(#SVGID_00000134242847270026650380000008494805212434473642_);}
	.st38{clip-path:url(#SVGID_00000135689384803471829750000016910342591473436033_);}
	.st39{clip-path:url(#SVGID_00000160894170316653657050000004057620415666016185_);}
	.st40{clip-path:url(#SVGID_00000022547394220400483960000005766734897459226798_);}
	.st41{clip-path:url(#SVGID_00000147204496647369268000000015099158782228398978_);}
	.st42{clip-path:url(#SVGID_00000023252724776530746570000007360016184056155326_);}
	.st43{clip-path:url(#SVGID_00000168805608361370246180000001444165169500480931_);}
	.st44{clip-path:url(#SVGID_00000040561248427001822430000001054658237734572194_);}
	.st45{clip-path:url(#SVGID_00000152227795727802574530000002368658444444897181_);}
	.st46{clip-path:url(#SVGID_00000173870617425726943110000004419336547404463007_);}
	.st47{clip-path:url(#SVGID_00000126309772877326368140000010714366986520342689_);}
	.st48{clip-path:url(#SVGID_00000093149755398335915560000001190241990246488468_);}
	.st49{clip-path:url(#SVGID_00000039127320370028938690000013246626525316797093_);}
	.st50{clip-path:url(#SVGID_00000129167597251969891800000009894950086070331026_);}
	.st51{clip-path:url(#SVGID_00000090984773536702363710000013953644165399352982_);}
	.st52{clip-path:url(#SVGID_00000129172228613241233900000016704434119318416263_);}
	.st53{clip-path:url(#SVGID_00000007405267767587965880000006278262826757899421_);}
	.st54{clip-path:url(#SVGID_00000175291177496397242440000016470244457413292705_);}
	.st55{clip-path:url(#SVGID_00000029028923247887895850000006731415632910605739_);}
	.st56{clip-path:url(#SVGID_00000110466443254197962020000014950182158028508038_);}
	.st57{clip-path:url(#SVGID_00000155121623320384758490000010971017362957746351_);}
	.st58{clip-path:url(#SVGID_00000123425162205193966920000011559061197084111283_);}
	.st59{clip-path:url(#SVGID_00000059289235933497163950000012342848177975064738_);}
	.st60{clip-path:url(#SVGID_00000019659200307202368180000009806095871578163630_);}
	.st61{clip-path:url(#SVGID_00000047755722075873360480000013646573343699735990_);}
	.st62{clip-path:url(#SVGID_00000160182706914645146670000014272504898533791394_);}
	.st63{clip-path:url(#SVGID_00000107580550431494457550000004682072078186622867_);}
	.st64{clip-path:url(#SVGID_00000022519917737817824160000009229123902689858718_);}
	.st65{clip-path:url(#SVGID_00000101088738038713775750000004198061561276951225_);}
	.st66{clip-path:url(#SVGID_00000182490058254539863340000002709716897401703061_);}
	.st67{clip-path:url(#SVGID_00000143594611862452209960000000321092806275247752_);}
	.st68{clip-path:url(#SVGID_00000155109684800105061510000000812105273870990506_);}
	.st69{clip-path:url(#SVGID_00000101080688734119295030000013791431456220374174_);}
	.st70{clip-path:url(#SVGID_00000062903148234410526030000003425795563042758052_);}
	.st71{clip-path:url(#SVGID_00000103224048519757963050000017887638230224029885_);}
	.st72{clip-path:url(#SVGID_00000028292372261078437350000011736031293580891032_);}
	.st73{clip-path:url(#SVGID_00000163785479792679342140000004155142223886382005_);}
	.st74{clip-path:url(#SVGID_00000072994009237905437980000017242791981700732824_);}
	.st75{clip-path:url(#SVGID_00000086664535330130708660000005868236089022234515_);}
	.st76{clip-path:url(#SVGID_00000064320850470469814580000016595722865583962265_);}
	.st77{clip-path:url(#SVGID_00000149378939252370251680000000978849387084941994_);}
	.st78{clip-path:url(#SVGID_00000077311254493516434110000013843528936310131898_);}
	.st79{clip-path:url(#SVGID_00000042013543298546811930000005462891665825323929_);}
	.st80{clip-path:url(#SVGID_00000129182203744798645370000017558225546911104944_);}
	.st81{clip-path:url(#SVGID_00000078736092080685776420000008805635109715230856_);}
	.st82{clip-path:url(#SVGID_00000098917171592702138930000010381880668531749032_);}
	.st83{fill:none;}
	.st84{clip-path:url(#SVGID_00000155857710848906624690000011902094110601544620_);}
	.st85{clip-path:url(#SVGID_00000120545828329295249730000014553786112860142238_);}
	.st86{clip-path:url(#SVGID_00000045620497455479520540000001741337183746629263_);}
	.st87{clip-path:url(#SVGID_00000149358443817590140250000003691619315699023232_);}
	.st88{clip-path:url(#SVGID_00000032634622565603296740000001208214259383175611_);}
	.st89{clip-path:url(#SVGID_00000067915441067832825150000004204016310028364424_);}
	.st90{clip-path:url(#SVGID_00000119834581548903356750000015143643515108945813_);}
	.st91{clip-path:url(#SVGID_00000013895210678760245140000015383661567087661985_);}
	.st92{clip-path:url(#SVGID_00000072241132581770211580000013996887778199206576_);}
	.st93{clip-path:url(#SVGID_00000039846506406582570170000003685581389496799372_);}
	.st94{clip-path:url(#SVGID_00000123423419247077455730000003485164465739376793_);}
	.st95{clip-path:url(#SVGID_00000113330318320677270970000002571010253773740175_);}
	.st96{clip-path:url(#SVGID_00000148631876623858324070000017669216857829518761_);}
	.st97{clip-path:url(#SVGID_00000182529749216223400010000001251355174286438846_);}
	.st98{clip-path:url(#SVGID_00000145026690952800439200000012849712057849873321_);}
	.st99{clip-path:url(#SVGID_00000143610314323065897110000013648229313037687995_);}
	.st100{clip-path:url(#SVGID_00000071559715507157161190000004773100719859708579_);}
	.st101{clip-path:url(#SVGID_00000074405036665743873330000006124762190862014625_);}
	.st102{clip-path:url(#SVGID_00000012453826235939641990000007217323533085053604_);}
	.st103{clip-path:url(#SVGID_00000121243043760321275960000016907566942648308159_);}
	.st104{clip-path:url(#SVGID_00000168110378438712267850000007652993373892905614_);}
	.st105{clip-path:url(#SVGID_00000141433863262720464430000008602304040752980355_);}
	.st106{clip-path:url(#SVGID_00000044859784217904188150000001535555469183752094_);}
	.st107{clip-path:url(#SVGID_00000183955376231048631410000007417294160879587991_);}
	.st108{clip-path:url(#SVGID_00000140706696981855265140000008855626480429615765_);}
	.st109{clip-path:url(#SVGID_00000026149231239358314650000004780434199039854757_);}
	.st110{clip-path:url(#SVGID_00000082355319695280083230000011887873201842970014_);}
	.st111{clip-path:url(#SVGID_00000148626038974914484520000009191233581527286692_);}
	.st112{clip-path:url(#SVGID_00000051368896904628446560000006975175840563947678_);}
	.st113{clip-path:url(#SVGID_00000136395827412205166680000016334673678013695418_);}
	.st114{clip-path:url(#SVGID_00000004535253911543782270000001464214700849219230_);}
	.st115{clip-path:url(#SVGID_00000087405951157601047400000014759898389096837523_);}
	.st116{clip-path:url(#SVGID_00000117659628948100001680000001397841905474694590_);}
	.st117{clip-path:url(#SVGID_00000158018280272710617470000003154575401299051665_);}
	.st118{clip-path:url(#SVGID_00000116949106161206656460000017765590790611411088_);}
	.st119{clip-path:url(#SVGID_00000077310164261829945980000005394517671554994095_);}
	.st120{clip-path:url(#SVGID_00000004524101620530110370000002034101399941251722_);}
	.st121{clip-path:url(#SVGID_00000111152984812290081480000007691350739660743094_);}
	.st122{clip-path:url(#SVGID_00000165950793580673156840000004971779435909368208_);}
	.st123{clip-path:url(#SVGID_00000105428103235186124170000016084829270696318349_);}
	.st124{clip-path:url(#SVGID_00000013899356250254502370000005185512220970379146_);}
	.st125{clip-path:url(#SVGID_00000095325773299640764960000012056718385395426215_);}
	.st126{clip-path:url(#SVGID_00000037654689361370621030000006934616217567020433_);}
	.st127{clip-path:url(#SVGID_00000162333591405741949900000016309523405211101343_);}
	.st128{clip-path:url(#SVGID_00000091714346560352411630000005580187652764010921_);}
	.st129{clip-path:url(#SVGID_00000103954257232675876580000017578525952018725512_);}
	.st130{clip-path:url(#SVGID_00000145748594141263198260000000977017143284356228_);}
	.st131{clip-path:url(#SVGID_00000061464512383037838710000013056370056769027756_);}
	.st132{clip-path:url(#SVGID_00000122685887835241714870000008578697487271414920_);}
	.st133{clip-path:url(#SVGID_00000142861101554374428880000009055177400404261310_);}
	.st134{clip-path:url(#SVGID_00000041983078542989462150000008283152076283434407_);}
	.st135{clip-path:url(#SVGID_00000163059345603578403330000010167552751719918725_);}
	.st136{clip-path:url(#SVGID_00000156579713412464031890000005860178139317862016_);}
	.st137{clip-path:url(#SVGID_00000168833693879913784330000010136779462285392517_);}
	.st138{clip-path:url(#SVGID_00000052793506208046338080000004730845839915836598_);}
	.st139{clip-path:url(#SVGID_00000124845435629827759580000003129212404846827705_);}
	.st140{clip-path:url(#SVGID_00000013889584562688192360000005163240002335592357_);}
	.st141{clip-path:url(#SVGID_00000133523408438991505800000007617576895895215233_);}
	.st142{clip-path:url(#SVGID_00000142153905093339577980000003114805883759756729_);}
	.st143{clip-path:url(#SVGID_00000027568210996131885280000014371513118027553430_);}
	.st144{clip-path:url(#SVGID_00000034768140875953738920000012317349189998178715_);}
	.st145{clip-path:url(#SVGID_00000059996232465029542310000015023201443245238963_);}
	.st146{clip-path:url(#SVGID_00000116941159809528607280000000268192229070181520_);}
	.st147{clip-path:url(#SVGID_00000150799896435717655560000015659841123037550259_);}
	.st148{clip-path:url(#SVGID_00000065034588583752469150000008556090065964000445_);}
	.st149{clip-path:url(#SVGID_00000094611480731684537820000017275817318756285586_);}
	.st150{clip-path:url(#SVGID_00000170968948736666400430000017432699054554296505_);}
	.st151{clip-path:url(#SVGID_00000141451117506408415310000005657894155973847979_);}
	.st152{clip-path:url(#SVGID_00000111169765842194974870000007935860185797766291_);}
	.st153{clip-path:url(#SVGID_00000102516289934846783870000009592562672529492134_);}
	.st154{clip-path:url(#SVGID_00000123416821983380632330000017055034089764900736_);}
	.st155{clip-path:url(#SVGID_00000101094444602732807760000000912160436329589650_);}
	.st156{clip-path:url(#SVGID_00000168097779218863919940000010893169125905645736_);}
	.st157{clip-path:url(#SVGID_00000131342495932699388640000016198200917638894464_);}
	.st158{clip-path:url(#SVGID_00000137836123009297230490000000967359345981473716_);}
	.st159{clip-path:url(#SVGID_00000082330159001997153440000003793717471910690476_);}
	.st160{clip-path:url(#SVGID_00000044863815686119385340000001013918597120967870_);}
	.st161{clip-path:url(#SVGID_00000048463345001410907200000013619237736347599807_);}
	.st162{clip-path:url(#SVGID_00000094602875454942462060000018009749565608115842_);}
	.st163{clip-path:url(#SVGID_00000011725137882606494330000007646350204815172279_);}
	.st164{clip-path:url(#SVGID_00000016754288974533334450000015289648855831825592_);}
	.st165{clip-path:url(#SVGID_00000003802619757392424970000017166812628103291828_);}
	.st166{clip-path:url(#SVGID_00000100378819526105389900000009820968435107390368_);}
	.st167{clip-path:url(#SVGID_00000080901948493684047300000017876116186366531985_);}
	.st168{clip-path:url(#SVGID_00000011033455986162837070000003941608656127682461_);}
	.st169{clip-path:url(#SVGID_00000062154227084194072990000004022495028944038569_);}
	.st170{clip-path:url(#SVGID_00000116227469059004864180000013177849573061202347_);}
	.st171{clip-path:url(#SVGID_00000124882105520203091800000003161112246947298715_);}
	.st172{clip-path:url(#SVGID_00000080924992943581165460000010418519848540408448_);}
	.st173{clip-path:url(#SVGID_00000109015832325964747700000015339836609785992588_);}
	.st174{clip-path:url(#SVGID_00000027589244488473949930000017052716339707711619_);}
	.st175{clip-path:url(#SVGID_00000145758200060214669200000006108089245948137629_);}
	.st176{clip-path:url(#SVGID_00000134962448944697736820000001628631715916178879_);}
	.st177{clip-path:url(#SVGID_00000127745277970203238060000017708436960332734853_);}
	.st178{clip-path:url(#SVGID_00000029749479815739422520000010648927866393468852_);}
	.st179{clip-path:url(#SVGID_00000169516614929619274980000017233025331280447375_);}
	.st180{clip-path:url(#SVGID_00000023977702537805012070000000174754745226237599_);}
	.st181{clip-path:url(#SVGID_00000004548013806391819150000006545817029548981392_);}
	.st182{clip-path:url(#SVGID_00000154391482538183457510000002668259000410719402_);}
	.st183{clip-path:url(#SVGID_00000152971645215581976000000006783838851435849627_);}
	.st184{clip-path:url(#SVGID_00000127008261644966335890000018079893659156403857_);}
	.st185{clip-path:url(#SVGID_00000086685672377734192710000005211553945417734576_);}
	.st186{clip-path:url(#SVGID_00000158744952302417246020000001403648795230055819_);}
</style>
<g>
	<g>
		<g>
			<g>
				<path class="st1" d="M16.01,50.84c-4.78,0-8.78-3.77-9.1-8.57L6.9,42.09h18.22l-0.01,0.19C24.79,47.08,20.79,50.84,16.01,50.84z
					 M7.28,42.43c0.4,4.54,4.2,8.06,8.74,8.06c4.53,0,8.33-3.53,8.73-8.06H7.28z"/>
			</g>
		</g>
		<g>
			<g>
				<path class="st0" d="M10.41,48.25c0,0,2.35-2.11,5.66-2.07c3.31,0.04,5.67,2.42,5.67,2.42s-2.69,2.24-5.81,2.06
					c-3.12-0.18-5.65-2.23-5.65-2.23L10.41,48.25z"/>
			</g>
		</g>
		<g>
			<g>
				<path class="st0" d="M16.29,50.79c-0.12,0-0.24,0-0.36-0.01c-3.12-0.18-5.69-2.24-5.72-2.26c-0.05-0.04-0.06-0.12-0.02-0.17
					l0.12-0.17c0-0.01,0.01-0.01,0.02-0.02c0.02-0.02,2.38-2.1,5.65-2.1c0.03,0,0.07,0,0.1,0c3.32,0.04,5.73,2.43,5.76,2.46
					c0.02,0.02,0.04,0.06,0.04,0.09c0,0.04-0.02,0.07-0.04,0.09C21.79,48.71,19.26,50.79,16.29,50.79z M10.46,48.39
					c0.48,0.36,2.77,1.97,5.48,2.13c2.69,0.15,5.07-1.53,5.61-1.94c-0.49-0.44-2.64-2.25-5.48-2.29c-3.12-0.05-5.4,1.89-5.57,2.03
					L10.46,48.39z"/>
			</g>
		</g>
	</g>
	<g>
		<defs>
			<path id="SVGID_00000057125443029621555410000014796318336936424872_" d="M8.2,45.09c0.28,2.91,3.76,5.22,8.01,5.22
				c4.25,0,7.73-2.3,8.01-5.22H8.2z"/>
		</defs>
		<clipPath id="SVGID_00000097484319168542806570000004562049443076214923_">
			<use xlink:href="#SVGID_00000057125443029621555410000014796318336936424872_"  style="overflow:visible;"/>
		</clipPath>
		<g style="clip-path:url(#SVGID_00000097484319168542806570000004562049443076214923_);">
			<g>
				<path class="st1" d="M18.12,68.02c-4.42,0-8.01-3.6-8.01-8.01S13.7,52,18.12,52s8.01,3.6,8.01,8.01S22.54,68.02,18.12,68.02z
					 M18.12,52.4c-4.2,0-7.61,3.42-7.61,7.61s3.42,7.61,7.61,7.61s7.61-3.42,7.61-7.61S22.32,52.4,18.12,52.4z"/>
			</g>
		</g>
	</g>
	<g>
		<g>
			<g>
				<path class="st1" d="M16.01,50.88c-4.79,0-8.8-3.79-9.13-8.62c0-0.06,0.02-0.11,0.05-0.15c0.04-0.04,0.09-0.06,0.15-0.06h17.86
					c0.06,0,0.11,0.02,0.15,0.06c0.04,0.04,0.06,0.09,0.05,0.15C24.82,47.1,20.81,50.88,16.01,50.88z M7.3,42.45
					c0.41,4.52,4.2,8.03,8.71,8.03s8.3-3.51,8.71-8.03H7.3z"/>
			</g>
		</g>
		<g>
			<g>
				<path class="st1" d="M16.01,54C7.18,54,0,46.82,0,37.99c0-8.83,7.18-16.01,16.01-16.01s16.01,7.18,16.01,16.01
					C32.02,46.82,24.84,54,16.01,54z M16.01,22.58c-8.5,0-15.41,6.91-15.41,15.41c0,8.5,6.91,15.41,15.41,15.41
					s15.41-6.91,15.41-15.41C31.42,29.49,24.51,22.58,16.01,22.58z"/>
			</g>
		</g>
	</g>
	<g>
		<g>
			<polygon class="st2" points="26.29,0.42 26.29,14.29 26.29,19.8 22.83,31.7 34.98,26.04 51.91,26.04 51.91,0.42 			"/>
		</g>
	</g>
	<g>
		<g>
			<polygon class="st0" points="27.48,1.09 27.48,15.01 27.48,20.53 24.01,32.47 36.2,26.79 51.84,26.79 51.84,1.09 			"/>
		</g>
	</g>
	<g>
		<g>
			<path class="st0" d="M24,32.6c-0.03,0-0.06-0.01-0.08-0.03c-0.04-0.03-0.05-0.08-0.04-0.13l3.47-11.92V1.09
				c0-0.07,0.06-0.12,0.12-0.12h24.36c0.07,0,0.12,0.06,0.12,0.12v25.7c0,0.07-0.06,0.12-0.12,0.12H36.23l-12.17,5.67
				C24.04,32.59,24.02,32.6,24,32.6z M27.61,1.22v19.32c0,0.01,0,0.02,0,0.04l-3.4,11.67l11.94-5.56c0.02-0.01,0.03-0.01,0.05-0.01
				h15.51V1.22H27.61z"/>
		</g>
	</g>
	<g>
		<g>
			<g>
				<path class="st1" d="M22.71,32.12c-0.07,0-0.14-0.02-0.2-0.07c-0.09-0.08-0.13-0.2-0.09-0.31l3.48-11.95V0.3
					c0-0.17,0.13-0.3,0.3-0.3h25.83c0.17,0,0.3,0.13,0.3,0.3v25.82c0,0.17-0.13,0.3-0.3,0.3h-17l-12.19,5.67
					C22.8,32.11,22.75,32.12,22.71,32.12z M26.5,0.6v19.23c0,0.03,0,0.06-0.01,0.08l-3.31,11.36l11.65-5.42
					c0.04-0.02,0.08-0.03,0.13-0.03h16.77V0.6H26.5z"/>
			</g>
		</g>
	</g>
	<g>
		<g>
			<path class="st1" d="M46.61,21.05H31.53c-0.11,0-0.2-0.09-0.2-0.2s0.09-0.2,0.2-0.2h15.08c0.11,0,0.2,0.09,0.2,0.2
				S46.72,21.05,46.61,21.05z M46.61,17.37H31.53c-0.11,0-0.2-0.09-0.2-0.2s0.09-0.2,0.2-0.2h15.08c0.11,0,0.2,0.09,0.2,0.2
				S46.72,17.37,46.61,17.37z M46.61,13.69H31.53c-0.11,0-0.2-0.09-0.2-0.2s0.09-0.2,0.2-0.2h15.08c0.11,0,0.2,0.09,0.2,0.2
				S46.72,13.69,46.61,13.69z M46.61,10.01H31.53c-0.11,0-0.2-0.09-0.2-0.2s0.09-0.2,0.2-0.2h15.08c0.11,0,0.2,0.09,0.2,0.2
				S46.72,10.01,46.61,10.01z M46.61,6.32H31.53c-0.11,0-0.2-0.09-0.2-0.2s0.09-0.2,0.2-0.2h15.08c0.11,0,0.2,0.09,0.2,0.2
				S46.72,6.32,46.61,6.32z"/>
		</g>
	</g>
</g>
</svg>
