<?xml version="1.0" encoding="UTF-8"?><svg id="a" xmlns="http://www.w3.org/2000/svg" xmlns:xlink="http://www.w3.org/1999/xlink" viewBox="0 0 430.5 512"><defs><style>.e{fill:none;}.f{fill:#fff;}.g{fill:#87ccc8;}.h{fill:#2b2961;}.i{clip-path:url(#c);}.j{clip-path:url(#b);}.k{clip-path:url(#d);}</style><clipPath id="b"><rect class="e" x="-18.93" width="468.35" height="512"/></clipPath><clipPath id="c"><rect class="e" x="-18.93" width="468.35" height="512"/></clipPath><clipPath id="d"><rect class="e" x="-18.93" width="468.35" height="512"/></clipPath></defs><rect class="g" x="6.21" y="230.89" width="39.59" height="166.15"/><rect class="g" x="7.05" y="301.12" width="416.4" height="210.04"/><g class="j"><path class="h" d="M424.29,512H6.21v-211.71H424.29v211.71Zm-416.4-1.67H422.61v-208.36H7.89v208.36Z"/><path class="f" d="M325.19,483.84v-15.83c0-1.6-.11-3.23-.94-4.68-.84-1.42-2-2.54-3.19-3.74l-3.2,3.2c.87,.87,1.42,1.34,2.03,2.4,.36,.65,.54,1.67,.54,3.05v15.39c0,1.38-.18,2.4-.54,3.05-.62,1.05-1.16,1.52-2.03,2.4l3.2,3.2c1.2-1.2,2.36-2.32,3.19-3.74,.83-1.45,.94-3.09,.94-4.68m-11.04,2.65l-3.2-3.16c-1.13,1.13-1.82,1.49-3.05,1.49-2.47,0-3.74-1.82-3.74-5.45s1.27-5.41,3.74-5.41c1.2,0,1.96,.36,3.05,1.49l3.2-3.19c-1.13-1.09-1.67-1.45-2.69-1.89-1.02-.44-2.21-.65-3.52-.65-5.33,0-8.49,3.56-8.49,9.51,0,6.28,3.08,9.84,8.49,9.84,1.31,0,2.47-.22,3.52-.69,1.02-.44,1.56-.8,2.69-1.89m-24.29-5.63v1.02c0,2.36-.98,3.31-3.42,3.31-2,0-2.98-.73-2.98-2.18s.98-2.15,2.65-2.15h3.74Zm4.71,7.99v-12.45c0-4.43-2.72-6.68-8.17-6.68-1.78,0-3.09,.22-4.18,.69-.94,.44-1.45,.84-2.54,1.92l3.01,2.94c1.12-1.24,1.89-1.56,3.56-1.56,2.54,0,3.6,.87,3.6,2.98v.94h-4.47c-3.99,0-6.46,2.1-6.46,5.52,0,3.7,2.36,5.88,6.39,5.88,1.09,0,1.96-.15,2.69-.44,.73-.29,1.13-.58,1.96-1.38v1.63h4.61Zm-20.33,0v-18.91h-13.83v7.66c0,6.79-1.56,7.08-3.16,7.08h-.58v4.17h2.25c3.85,0,6.06-2.1,6.06-10.2v-4.54h4.54v14.74h4.71Zm-30.75,0v-9.87l6.5,9.87h5.66l-7.12-10.09,6.68-8.82h-5.52l-6.21,8.97v-8.97h-4.75v18.91h4.75Zm-23.74-18.04c0,2.4-1.42,3.78-3.34,3.78s-3.34-1.49-3.34-3.78c0-2.4,1.42-3.78,3.34-3.78s3.34,1.38,3.34,3.78m4.72-.04c0-5.12-3.48-7.99-8.06-7.99s-8.06,2.97-8.06,8.06c0,4.79,3.34,7.66,6.82,7.66,.62,0,1.31-.07,1.93-.33l-5.38,10.67h5.12l5.48-11.18c1.16-2.36,2.14-4.54,2.14-6.9m-35.8,13.91h-5.78c.94-1.92,1.45-4.28,1.45-8.1v-2.47h4.32v10.57Zm7.11,8.82v-8.82h-2.4v-14.74h-13.58v5.77c0,4.94-.87,7.23-1.85,8.97h-1.92v8.82h4.47v-4.65h10.82v4.65h4.47Zm-27.3-15.86h-7.19c.11-2.54,1.42-4,3.6-4s3.45,1.42,3.6,4m4.64,3.23v-2.1c0-5.49-3.23-9.04-8.24-9.04s-8.24,3.7-8.24,9.62c0,6.43,2.97,9.73,8.78,9.73,1.49,0,2.8-.25,3.89-.69,1.2-.51,1.85-.94,3.27-2.28l-2.87-2.8c-.84,.8-1.23,1.09-1.92,1.38-.62,.25-1.42,.4-2.18,.4-2.76,0-4.18-1.38-4.32-4.21h11.84Zm-21.57,7.99v-18.91h-13.83v7.66c0,6.79-1.56,7.08-3.16,7.08h-.58v4.17h2.25c3.85,0,6.06-2.1,6.06-10.2v-4.54h4.54v14.74h4.71Zm-19.82-2.36l-3.2-3.16c-1.13,1.13-1.82,1.49-3.05,1.49-2.47,0-3.74-1.82-3.74-5.45s1.27-5.41,3.74-5.41c1.2,0,1.96,.36,3.05,1.49l3.2-3.19c-1.13-1.09-1.67-1.45-2.69-1.89-1.02-.44-2.21-.65-3.52-.65-5.33,0-8.49,3.56-8.49,9.51,0,6.28,3.08,9.84,8.49,9.84,1.31,0,2.47-.22,3.52-.69,1.02-.44,1.56-.8,2.69-1.89m-19.13,2.61c-.87-.87-1.42-1.38-2.03-2.43-.36-.65-.54-1.67-.54-3.05v-15.39c0-1.38,.18-2.4,.54-3.05,.62-1.05,1.16-1.56,2.03-2.43l-3.16-3.16c-1.2,1.2-2.36,2.32-3.19,3.74-.83,1.45-.94,3.09-.94,4.68v15.83c0,1.6,.11,3.23,.94,4.68,.84,1.42,2,2.54,3.19,3.74l3.16-3.16Z"/><path class="f" d="M388.15,434.06h-7.19c.11-2.54,1.42-4,3.6-4s3.45,1.42,3.59,4m4.64,3.23v-2.1c0-5.49-3.23-9.04-8.24-9.04s-8.24,3.7-8.24,9.62c0,6.43,2.97,9.73,8.79,9.73,1.49,0,2.8-.25,3.89-.69,1.2-.51,1.85-.94,3.26-2.28l-2.87-2.8c-.84,.8-1.23,1.09-1.92,1.38-.62,.26-1.42,.4-2.18,.4-2.76,0-4.18-1.38-4.32-4.22h11.84Zm-21.53,7.99v-18.91h-4.75l-6.65,11.25v-11.25h-4.75v18.91h4.75l6.65-11.54v11.54h4.75Zm-22.11,0v-18.91h-4.75v7.15h-6.07v-7.15h-4.75v18.91h4.75v-7.59h6.07v7.59h4.75Zm-26.06-7.99v1.02c0,2.36-.98,3.31-3.42,3.31-2,0-2.98-.73-2.98-2.18s.98-2.15,2.65-2.15h3.74Zm4.71,7.99v-12.45c0-4.43-2.72-6.68-8.17-6.68-1.78,0-3.09,.22-4.18,.69-.94,.44-1.45,.84-2.54,1.92l3.01,2.94c1.13-1.24,1.89-1.56,3.56-1.56,2.54,0,3.6,.87,3.6,2.98v.95h-4.47c-3.99,0-6.46,2.1-6.46,5.52,0,3.7,2.36,5.88,6.38,5.88,1.09,0,1.96-.15,2.69-.44,.73-.29,1.13-.58,1.96-1.38v1.63h4.61Zm-24.25-5.7c0,1.34-.87,2.22-2.36,2.22h-3.74v-4.4h3.74c1.49,0,2.36,.8,2.36,2.18m-2.58-9.73c1.49,0,2.29,.73,2.29,2s-.8,2.04-2.29,2.04h-3.52v-4.04h3.52Zm7.26,9.99c0-2.04-.87-3.34-2.68-4.28,1.63-.94,2.39-2.21,2.39-3.99,0-3.16-2.28-5.19-5.84-5.19h-9.33v18.91h9.66c3.56,0,5.81-2.1,5.81-5.44m-25.37-4.03c0,2.47-.15,5.45-3.31,5.45-2.29,0-3.27-1.53-3.27-5.16,0-2.43,.04-5.7,3.27-5.7s3.31,2.98,3.31,5.41m4.71-.07c0-3.67-.58-5.63-2.14-7.26-1.45-1.52-3.49-2.32-5.88-2.32s-4.4,.8-5.85,2.32c-1.56,1.67-2.14,3.59-2.14,7.33s.54,5.7,2.14,7.37c1.45,1.52,3.45,2.32,5.85,2.32s4.43-.8,5.88-2.32c1.59-1.67,2.14-3.59,2.14-7.44m-20.48,3.96c0-2.04-1.16-3.63-2.87-4.36,1.56-.73,2.58-2.29,2.58-4.07,0-3.34-3.26-5.12-6.89-5.12-2.83,0-5.52,.51-7.66,2.21l2.61,2.9c1.23-.87,2.69-1.31,4.1-1.31,1.92,0,3.2,.62,3.2,1.93s-.98,2.07-2.54,2.07h-2.8v3.37h2.87c1.67,0,2.72,.62,2.72,2.04s-1.63,2.15-3.3,2.15c-1.78,0-3.45-.47-4.79-1.67l-2.72,2.98c2.25,2.03,5.3,2.68,8.28,2.68,3.88,0,7.22-2.28,7.22-5.81m-23.99-2.4v1.02c0,2.36-.98,3.31-3.42,3.31-2,0-2.98-.73-2.98-2.18s.98-2.15,2.65-2.15h3.74Zm4.71,7.99v-12.45c0-4.43-2.72-6.68-8.17-6.68-1.78,0-3.09,.22-4.18,.69-.94,.44-1.45,.84-2.54,1.92l3.01,2.94c1.12-1.24,1.89-1.56,3.56-1.56,2.54,0,3.6,.87,3.6,2.98v.95h-4.47c-3.99,0-6.46,2.1-6.46,5.52,0,3.7,2.36,5.88,6.39,5.88,1.09,0,1.96-.15,2.69-.44,.73-.29,1.13-.58,1.96-1.38v1.63h4.61Zm-24.25-9.51c0,4.03-.84,5.49-3.2,5.49s-3.2-1.46-3.2-5.16c0-2.43-.07-5.7,3.2-5.7,2.36,0,3.2,1.42,3.2,5.38m-6.54-7.62v-1.78h-4.57v25.85h4.71v-8.6c1.35,1.34,2.54,1.89,4.51,1.89s3.59-.62,4.68-1.7c1.42-1.42,1.92-3.49,1.92-7.92,0-2.51-.07-3.45-.33-4.83-.25-1.27-.83-2.43-1.59-3.19-1.09-1.09-2.79-1.7-4.68-1.7-2.07,0-3.2,.54-4.65,1.99m-17.61,17.35c2.25,0,4.25-.76,5.59-2.18,1.63-1.7,2.32-3.81,2.32-7.59,0-3.23-.72-6.1-2.39-7.66-1.05-.94-2.28-1.52-4.64-1.52-2.07,0-4,.94-4.72,2.18,0-2.29,.65-3.45,2.4-4.36,2.14-1.13,5.34-.91,7.73-1.09v-4.06c-5.59,.04-9,.29-11.36,2.1-2.39,1.89-3.01,4.06-3.01,12.93,0,3.52,.4,6.54,1.52,8.31,1.27,1.99,3.77,2.94,6.57,2.94m-.07-4.24c-.91,0-1.71-.25-2.25-.91-.69-.77-1.06-2.22-1.06-4.54,0-2.07,.37-3.52,.95-4.28,.58-.73,1.42-.98,2.36-.98s1.78,.29,2.33,1.02c.62,.76,.94,2.21,.94,4.28,0,2.21-.36,3.7-.98,4.47-.58,.69-1.38,.94-2.29,.94m-17.46-5.45c0,2.47-.15,5.45-3.31,5.45-2.29,0-3.27-1.53-3.27-5.16,0-2.43,.04-5.7,3.27-5.7s3.31,2.98,3.31,5.41m4.72-.07c0-3.67-.58-5.63-2.14-7.26-1.45-1.52-3.48-2.32-5.88-2.32s-4.39,.8-5.85,2.32c-1.56,1.67-2.14,3.59-2.14,7.33s.54,5.7,2.14,7.37c1.45,1.52,3.45,2.32,5.85,2.32s4.43-.8,5.88-2.32c1.6-1.67,2.14-3.59,2.14-7.44m-34.31,.07c0,2.47-.15,5.45-3.31,5.45-2.29,0-3.27-1.53-3.27-5.16,0-2.43,.04-5.7,3.27-5.7s3.31,2.98,3.31,5.41m4.72-.07c0-3.67-.58-5.63-2.14-7.26-1.45-1.52-3.48-2.32-5.88-2.32s-4.39,.8-5.85,2.32c-1.56,1.67-2.14,3.59-2.14,7.33s.54,5.7,2.14,7.37c1.45,1.52,3.45,2.32,5.85,2.32s4.43-.8,5.88-2.32c1.6-1.67,2.14-3.59,2.14-7.44m-21.2,9.55v-18.91h-4.75v7.15h-6.07v-7.15h-4.75v18.91h4.75v-7.59h6.07v7.59h4.75Zm-26.87-4.17h-5.78c.94-1.93,1.45-4.29,1.45-8.1v-2.47h4.32v10.57Zm7.11,8.82v-8.82h-2.4v-14.74h-13.58v5.77c0,4.94-.87,7.23-1.85,8.97h-1.92v8.82h4.47v-4.65h10.82v4.65h4.47Zm-27.3-15.86h-7.19c.11-2.54,1.42-4,3.6-4s3.45,1.42,3.6,4m4.64,3.23v-2.1c0-5.49-3.23-9.04-8.24-9.04s-8.24,3.7-8.24,9.62c0,6.43,2.97,9.73,8.78,9.73,1.49,0,2.8-.25,3.89-.69,1.2-.51,1.85-.94,3.27-2.28l-2.87-2.8c-.84,.8-1.23,1.09-1.92,1.38-.62,.26-1.42,.4-2.18,.4-2.76,0-4.18-1.38-4.32-4.22h11.84Zm-25.48-1.52c0,4.03-.84,5.49-3.2,5.49s-3.2-1.46-3.2-5.16c0-2.43-.07-5.7,3.2-5.7,2.36,0,3.2,1.42,3.2,5.38m-6.54-7.62v-1.78h-4.57v25.85h4.71v-8.6c1.34,1.34,2.54,1.89,4.51,1.89s3.59-.62,4.68-1.7c1.41-1.42,1.92-3.49,1.92-7.92,0-2.51-.07-3.45-.33-4.83-.25-1.27-.84-2.43-1.59-3.19-1.09-1.09-2.79-1.7-4.68-1.7-2.07,0-3.2,.54-4.65,1.99m-8.97,14.78l-3.2-3.16c-1.13,1.13-1.82,1.49-3.05,1.49-2.47,0-3.74-1.82-3.74-5.45s1.27-5.41,3.74-5.41c1.2,0,1.96,.36,3.05,1.49l3.2-3.19c-1.13-1.09-1.67-1.45-2.69-1.89-1.02-.43-2.21-.65-3.52-.65-5.33,0-8.49,3.55-8.49,9.51,0,6.28,3.08,9.84,8.49,9.84,1.31,0,2.47-.22,3.52-.69,1.02-.44,1.56-.8,2.69-1.89"/><path class="f" d="M352.03,393.72v1.02c0,2.36-.98,3.31-3.42,3.31-2,0-2.98-.73-2.98-2.18s.98-2.15,2.65-2.15h3.74Zm4.71,7.99v-12.45c0-4.43-2.72-6.68-8.17-6.68-1.78,0-3.09,.22-4.18,.69-.94,.44-1.45,.84-2.54,1.92l3.01,2.94c1.13-1.24,1.89-1.56,3.56-1.56,2.54,0,3.6,.87,3.6,2.98v.95h-4.47c-3.99,0-6.46,2.1-6.46,5.52,0,3.7,2.36,5.88,6.39,5.88,1.09,0,1.96-.15,2.69-.44,.73-.29,1.13-.58,1.96-1.38v1.63h4.61Zm-20.3,0v-18.91h-4.75v7.15h-6.07v-7.15h-4.75v18.91h4.75v-7.59h6.07v7.59h4.75Zm-30.68,0v-18.91h-4.75v7.15h-6.07v-7.15h-4.75v18.91h4.75v-7.59h6.07v7.59h4.75Zm-25.27-11.21h-7.19c.11-2.54,1.42-4,3.6-4s3.45,1.42,3.6,4m4.64,3.23v-2.1c0-5.49-3.23-9.04-8.24-9.04s-8.24,3.7-8.24,9.62c0,6.43,2.97,9.73,8.78,9.73,1.49,0,2.8-.25,3.89-.69,1.2-.51,1.85-.94,3.27-2.28l-2.87-2.8c-.84,.8-1.23,1.09-1.92,1.38-.62,.26-1.42,.4-2.18,.4-2.76,0-4.18-1.38-4.32-4.22h11.84Zm-21.53,7.99v-18.91h-15.57v18.91h4.75v-14.74h6.07v14.74h4.75Zm-25.27-11.21h-7.19c.11-2.54,1.42-4,3.59-4s3.45,1.42,3.6,4m4.64,3.23v-2.1c0-5.49-3.23-9.04-8.24-9.04s-8.24,3.7-8.24,9.62c0,6.43,2.97,9.73,8.79,9.73,1.49,0,2.8-.25,3.89-.69,1.2-.51,1.85-.94,3.27-2.28l-2.87-2.8c-.84,.8-1.23,1.09-1.92,1.38-.62,.26-1.42,.4-2.18,.4-2.76,0-4.18-1.38-4.32-4.22h11.84Zm-18.95-6.75v-4.17h-15.76v4.17h5.56v14.74h4.75v-14.74h5.45Zm-17.54,12.38l-3.2-3.16c-1.13,1.13-1.82,1.49-3.05,1.49-2.47,0-3.74-1.82-3.74-5.45s1.27-5.41,3.74-5.41c1.2,0,1.96,.36,3.05,1.49l3.2-3.19c-1.13-1.09-1.67-1.45-2.69-1.89-1.02-.43-2.21-.65-3.52-.65-5.34,0-8.49,3.55-8.49,9.51,0,6.28,3.08,9.84,8.49,9.84,1.31,0,2.47-.22,3.52-.69,1.02-.44,1.56-.8,2.69-1.89m-33.44-5.63v1.02c0,2.36-.98,3.31-3.42,3.31-2,0-2.98-.73-2.98-2.18s.98-2.15,2.65-2.15h3.74Zm4.72,7.99v-12.45c0-4.43-2.72-6.68-8.17-6.68-1.78,0-3.09,.22-4.18,.69-.94,.44-1.45,.84-2.54,1.92l3.01,2.94c1.13-1.24,1.89-1.56,3.56-1.56,2.54,0,3.6,.87,3.6,2.98v.95h-4.47c-3.99,0-6.46,2.1-6.46,5.52,0,3.7,2.36,5.88,6.39,5.88,1.09,0,1.96-.15,2.69-.44,.73-.29,1.13-.58,1.96-1.38v1.63h4.61Zm-24.25-5.7c0,1.34-.87,2.22-2.36,2.22h-3.74v-4.4h3.74c1.49,0,2.36,.8,2.36,2.18m-2.58-9.73c1.49,0,2.29,.73,2.29,2s-.8,2.04-2.29,2.04h-3.52v-4.04h3.52Zm7.26,9.99c0-2.04-.87-3.34-2.68-4.28,1.63-.94,2.39-2.21,2.39-3.99,0-3.16-2.28-5.19-5.84-5.19h-9.33v18.91h9.66c3.56,0,5.81-2.1,5.81-5.44m-25.37-4.07c0,4.03-.84,5.49-3.2,5.49s-3.2-1.46-3.2-5.16c0-2.43-.07-5.7,3.2-5.7,2.36,0,3.2,1.42,3.2,5.38m-6.54-7.62v-1.78h-4.57v25.85h4.71v-8.6c1.34,1.34,2.54,1.89,4.51,1.89s3.59-.62,4.68-1.7c1.41-1.42,1.92-3.49,1.92-7.92,0-2.51-.07-3.45-.33-4.83-.25-1.27-.84-2.43-1.59-3.19-1.09-1.09-2.79-1.7-4.68-1.7-2.07,0-3.2,.54-4.65,1.99m-16.26,8.75c1.52,0,2.51,.91,2.51,2.33s-.98,2.36-2.51,2.36h-3.63v-4.69h3.63Zm7.15,2.33c0-3.56-2.54-6.02-6.28-6.02h-4.36v-6.83h-9.18v4.17h4.43v14.74h9.11c3.74,0,6.28-2.5,6.28-6.06m-24,6.06v-25.85h-18.84v25.85h5.04v-21.35h8.76v21.35h5.04Z"/><path class="h" d="M396.39,352.18c0-3.2-1.89-5.19-5.63-5.56l-2.98-.29c-1.67-.15-1.96-.94-1.96-1.63,0-.94,.8-1.82,2.69-1.82,1.63,0,3.3,.29,4.39,1.27l2.9-2.94c-1.82-1.71-4.28-2.21-7.23-2.21-3.85,0-7.3,2.1-7.3,6.02,0,3.49,2.11,4.98,5.52,5.3l2.98,.29c1.49,.15,2,.8,2,1.74,0,1.42-1.71,1.96-3.34,1.96-1.45,0-3.49-.22-5.05-1.78l-3.09,3.09c2.4,2.39,5.08,2.72,8.06,2.72,4.47,0,8.02-1.99,8.02-6.17m-18.7,0c0-3.2-1.89-5.19-5.63-5.56l-2.98-.29c-1.67-.15-1.96-.94-1.96-1.63,0-.94,.8-1.82,2.69-1.82,1.63,0,3.3,.29,4.39,1.27l2.9-2.94c-1.82-1.71-4.28-2.21-7.23-2.21-3.85,0-7.3,2.1-7.3,6.02,0,3.49,2.11,4.98,5.52,5.3l2.98,.29c1.49,.15,2,.8,2,1.74,0,1.42-1.71,1.96-3.34,1.96-1.45,0-3.49-.22-5.05-1.78l-3.09,3.09c2.4,2.39,5.08,2.72,8.06,2.72,4.47,0,8.02-1.99,8.02-6.17m-20.26,5.95v-18.91h-4.72v11.44c0,2.58-1.67,3.45-3.16,3.45s-3.13-.87-3.13-3.45v-11.44h-4.72v12.09c0,2.07,.4,3.85,1.92,5.37,1.05,1.05,2.58,1.67,4.46,1.67,1.75,0,3.49-.65,4.72-1.96v1.74h4.61Zm-20.01,0v-3.99h-1.82c-1.2,0-1.67-.58-1.67-1.71v-20.15h-4.71v20.44c0,2.68,1.63,5.4,5.51,5.4h2.69Zm-13.83,0v-12.24c0-3.99-2.18-6.89-6.31-6.89-1.67,0-3.27,.65-4.54,1.96v-8.68h-4.71v25.85h4.71v-11.55c0-2.47,1.56-3.34,3.05-3.34s3.09,.84,3.09,3.34v11.55h4.71Zm-19.97-2.36l-3.2-3.16c-.98,1.06-1.82,1.49-3.05,1.49-1.13,0-2-.4-2.69-1.24-.73-.91-1.05-2.21-1.05-4.21s.33-3.27,1.05-4.18c.69-.84,1.56-1.23,2.69-1.23,1.23,0,2.07,.44,3.05,1.49l3.2-3.19c-1.67-1.74-3.63-2.54-6.25-2.54-3.78,0-8.45,1.99-8.45,9.66s4.68,9.69,8.45,9.69c2.61,0,4.57-.84,6.25-2.58m-18.44-3.59c0-3.2-1.89-5.19-5.63-5.56l-2.98-.29c-1.67-.15-1.96-.94-1.96-1.63,0-.94,.8-1.82,2.69-1.82,1.63,0,3.3,.29,4.39,1.27l2.9-2.94c-1.82-1.71-4.28-2.21-7.23-2.21-3.85,0-7.3,2.1-7.3,6.02,0,3.49,2.11,4.98,5.52,5.3l2.98,.29c1.49,.15,2,.8,2,1.74,0,1.42-1.71,1.96-3.34,1.96-1.45,0-3.49-.22-5.05-1.78l-3.09,3.09c2.4,2.39,5.08,2.72,8.06,2.72,4.47,0,8.02-1.99,8.02-6.17m-24.18-3.52c0,3.09-.36,5.45-3.2,5.45s-3.2-2.36-3.2-5.45,.36-5.41,3.2-5.41,3.2,2.32,3.2,5.41m4.71,0c0-2.83-.04-6.07-1.92-7.95-1.05-1.05-2.76-1.7-4.61-1.7s-3.34,.51-4.58,1.89v-8.6h-4.71v25.85h4.57v-1.78c1.31,1.45,2.73,1.99,4.72,1.99,1.85,0,3.56-.65,4.61-1.7,1.89-1.89,1.92-5.16,1.92-7.99m-26.35,2.5c0,1.16-.18,1.93-.69,2.4-.84,.8-1.67,.91-2.98,.91-1.85,0-2.73-.87-2.73-2.18s.95-2.15,2.65-2.15h3.74v1.02Zm4.71,6.97v-12.45c0-4.43-2.76-6.68-8.06-6.68-3.16,0-4.97,.58-6.82,2.61l3.01,2.94c.98-1.13,1.82-1.56,3.63-1.56,2.51,0,3.52,.91,3.52,2.98v.95h-4.47c-4.39,0-6.46,2.46-6.46,5.48,0,1.67,.54,3.2,1.56,4.25,1.13,1.12,2.68,1.67,4.83,1.67s3.38-.54,4.65-1.81v1.63h4.61Zm-18.81,0v-3.99h-1.82c-1.2,0-1.67-.58-1.67-1.71v-20.15h-4.71v20.44c0,2.68,1.63,5.4,5.51,5.4h2.69Zm-14.05,0v-18.91h-4.71v11.44c0,2.58-1.67,3.45-3.16,3.45s-3.13-.87-3.13-3.45v-11.44h-4.71v12.09c0,2.07,.4,3.85,1.92,5.37,1.05,1.05,2.58,1.67,4.47,1.67,1.74,0,3.49-.65,4.72-1.96v1.74h4.61Zm-21.31,0v-12.24c0-3.99-2.18-6.89-6.31-6.89-1.67,0-3.27,.65-4.54,1.96v-8.68h-4.72v25.85h4.72v-11.55c0-2.47,1.56-3.34,3.05-3.34s3.09,.84,3.09,3.34v11.55h4.72Zm-19.97-2.36l-3.2-3.16c-.98,1.06-1.82,1.49-3.05,1.49-1.13,0-2-.4-2.69-1.24-.73-.91-1.05-2.21-1.05-4.21s.33-3.27,1.05-4.18c.69-.84,1.56-1.23,2.69-1.23,1.23,0,2.07,.44,3.05,1.49l3.2-3.19c-1.67-1.74-3.63-2.54-6.25-2.54-3.78,0-8.46,1.99-8.46,9.66s4.68,9.69,8.46,9.69c2.61,0,4.57-.84,6.25-2.58m-18.44-3.59c0-3.2-1.89-5.19-5.63-5.56l-2.98-.29c-1.67-.15-1.96-.94-1.96-1.63,0-.94,.8-1.82,2.69-1.82,1.63,0,3.3,.29,4.39,1.27l2.9-2.94c-1.82-1.71-4.28-2.21-7.23-2.21-3.85,0-7.3,2.1-7.3,6.02,0,3.49,2.11,4.98,5.52,5.3l2.98,.29c1.49,.15,2,.8,2,1.74,0,1.42-1.71,1.96-3.34,1.96-1.45,0-3.49-.22-5.05-1.78l-3.09,3.09c2.4,2.39,5.08,2.72,8.06,2.72,4.47,0,8.02-1.99,8.02-6.17m-19.25,5.95v-3.99h-1.71c-1.13,0-1.63-.62-1.63-1.71v-9.08h3.34v-3.59h-3.34v-5.59h-4.72v5.59h-1.99v3.59h1.99v9.37c0,2.69,1.63,5.41,5.48,5.41h2.58Zm-18.44-9.47c0,3.09-.37,5.45-3.2,5.45s-3.2-2.36-3.2-5.45,.36-5.41,3.2-5.41,3.2,2.32,3.2,5.41m4.71,0c0-2.83-.04-6.07-1.92-7.95-1.05-1.05-2.76-1.7-4.61-1.7-2,0-3.42,.54-4.72,1.99v-1.78h-4.57v25.85h4.71v-8.6c1.23,1.38,2.65,1.89,4.58,1.89s3.56-.65,4.61-1.7c1.89-1.89,1.92-5.16,1.92-7.99m-21.86,9.47v-18.91h-4.71v11.44c0,2.58-1.67,3.45-3.16,3.45s-3.13-.87-3.13-3.45v-11.44h-4.71v12.09c0,2.07,.4,3.85,1.92,5.37,1.05,1.05,2.58,1.67,4.46,1.67,1.75,0,3.49-.65,4.73-1.96v1.74h4.61Zm-26.03-6.97c0,1.16-.18,1.93-.69,2.4-.84,.8-1.67,.91-2.98,.91-1.85,0-2.73-.87-2.73-2.18s.94-2.15,2.65-2.15h3.74v1.02Zm4.71,6.97v-12.45c0-4.43-2.76-6.68-8.06-6.68-3.16,0-4.97,.58-6.83,2.61l3.01,2.94c.98-1.13,1.82-1.56,3.63-1.56,2.51,0,3.52,.91,3.52,2.98v.95h-4.47c-4.39,0-6.46,2.46-6.46,5.48,0,1.67,.54,3.2,1.56,4.25,1.13,1.12,2.68,1.67,4.83,1.67s3.38-.54,4.65-1.81v1.63h4.61Zm-20.7,0v-25.85h-5.04v10.57h-8.76v-10.57h-5.04v25.85h5.04v-10.82h8.76v10.82h5.04Z"/></g><polygon class="f" points="19.45 267.47 32.56 267.47 26 260.92 19.45 267.47"/><polygon class="f" points="19.45 293.53 32.56 293.53 26 286.98 19.45 293.53"/><polygon class="f" points="19.45 280.5 32.56 280.5 26 273.95 19.45 280.5"/><rect class="g" x="6.21" y="46.45" width="39.59" height="67.35"/><rect class="g" x="7.05" y=".84" width="416.23" height="58.09"/><g class="i"><path class="h" d="M424.12,59.77H6.21V0H424.12V59.77ZM7.89,58.1H422.45V1.67H7.89V58.1Z"/><path class="f" d="M325.82,29.22h-7.19c.04-.84,.15-1.35,.44-2.04,.51-1.13,1.56-1.96,3.16-1.96s2.65,.84,3.16,1.96c.29,.69,.4,1.2,.44,2.04m4.65,3.23v-2.1c0-5.19-2.98-9.04-8.24-9.04-4.9,0-8.24,3.48-8.24,9.66,0,7.66,4.28,9.69,8.75,9.69,3.41,0,5.26-1.05,7.19-2.97l-2.87-2.8c-1.2,1.2-2.21,1.78-4.28,1.78-2.65,0-4.14-1.78-4.14-4.22h11.84Zm-19.32-6.79v-3.59h-3.49v-2.07c0-1.09,.51-1.71,1.63-1.71h1.85v-3.99h-2.69c-3.85,0-5.52,2.72-5.52,5.41v2.36h-1.96v3.59h1.96v14.78h4.72v-14.78h3.49Zm-14.74-11.21h-4.82v3.84h4.82v-3.84Zm-.04,7.08h-4.71v18.91h4.71V21.52Zm-14.45,7.7h-7.19c.04-.84,.15-1.35,.44-2.04,.51-1.13,1.56-1.96,3.16-1.96s2.65,.84,3.16,1.96c.29,.69,.4,1.2,.44,2.04m4.65,3.23v-2.1c0-5.19-2.98-9.04-8.24-9.04-4.9,0-8.24,3.48-8.24,9.66,0,7.66,4.28,9.69,8.74,9.69,3.41,0,5.26-1.05,7.19-2.97l-2.87-2.8c-1.2,1.2-2.21,1.78-4.28,1.78-2.65,0-4.14-1.78-4.14-4.22h11.84Zm-26.17-9.95c0,2-1.46,3.42-3.67,3.42h-4.76v-6.83h4.76c2.21,0,3.67,1.42,3.67,3.42m6.09,17.93l-5.77-11.15c2.5-.9,4.71-3.15,4.71-6.79,0-4.32-3.12-7.91-8.38-7.91h-10.13v25.85h5.04v-10.31h3.63l5.05,10.31h5.84Zm-38.81-11.21h-7.19c.04-.84,.15-1.35,.44-2.04,.51-1.13,1.56-1.96,3.16-1.96s2.65,.84,3.16,1.96c.29,.69,.4,1.2,.44,2.04m4.65,3.23v-2.1c0-5.19-2.98-9.04-8.24-9.04-4.9,0-8.24,3.48-8.24,9.66,0,7.66,4.28,9.69,8.74,9.69,3.41,0,5.26-1.05,7.19-2.97l-2.87-2.8c-1.2,1.2-2.21,1.78-4.28,1.78-2.65,0-4.14-1.78-4.14-4.22h11.84Zm-17.83-9.36c-1.31-1.31-2.61-1.78-4.47-1.78-2.03,0-3.85,.94-4.76,2.03v-1.81h-4.61v18.91h4.71v-11.4c0-2.4,1.6-3.49,3.05-3.49,1.16,0,1.78,.4,2.51,1.13l3.56-3.59Zm-23.56,6.14h-7.19c.04-.84,.15-1.35,.44-2.04,.51-1.13,1.56-1.96,3.16-1.96s2.65,.84,3.16,1.96c.29,.69,.4,1.2,.44,2.04m4.65,3.23v-2.1c0-5.19-2.98-9.04-8.24-9.04-4.9,0-8.24,3.48-8.24,9.66,0,7.66,4.28,9.69,8.75,9.69,3.41,0,5.26-1.05,7.19-2.97l-2.87-2.8c-1.2,1.2-2.21,1.78-4.28,1.78-2.65,0-4.14-1.78-4.14-4.22h11.84Zm-19.13,7.99v-3.99h-1.82c-1.2,0-1.67-.58-1.67-1.71V14.58h-4.72v20.44c0,2.68,1.63,5.4,5.52,5.4h2.69Zm-13.03,0v-3.99h-1.71c-1.13,0-1.63-.62-1.63-1.71v-9.08h3.34v-3.59h-3.34v-5.59h-4.72v5.59h-2v3.59h2v9.37c0,2.69,1.63,5.41,5.48,5.41h2.58Zm-13.51,0v-3.99h-1.71c-1.13,0-1.63-.62-1.63-1.71v-9.08h3.34v-3.59h-3.34v-5.59h-4.72v5.59h-2v3.59h2v9.37c0,2.69,1.63,5.41,5.48,5.41h2.58Zm-14.45-25.99h-4.82v3.84h4.82v-3.84Zm-.04,7.08h-4.71v18.91h4.71V21.52Zm-11.11,18.91V14.58h-4.97l-6.72,13.98-6.76-13.98h-4.97v25.85h5.04v-15.07l4.98,9.8h3.41l4.94-9.8v15.07h5.04Z"/></g><polygon class="f" points="19.45 69.49 32.56 69.49 26 62.94 19.45 69.49"/><polygon class="f" points="19.45 95.55 32.56 95.55 26 89 19.45 95.55"/><polygon class="f" points="19.45 82.52 32.56 82.52 26 75.97 19.45 82.52"/><rect class="g" x="6.21" y="202.45" width="416.4" height="39.59"/><g class="k"><path class="h" d="M247.44,162.7c0-2.29-.62-4.18-1.99-5.48-1.09-1.02-2.58-1.67-4.94-2l-3.05-.44c-1.06-.15-1.89-.54-2.4-1.02-.54-.51-.76-1.2-.76-1.85,0-1.78,1.31-3.27,4-3.27,1.71,0,3.67,.22,5.3,1.78l3.19-3.16c-2.21-2.14-4.79-3.01-8.35-3.01-5.59,0-9,3.23-9,7.84,0,2.18,.62,3.85,1.85,5.09,1.16,1.13,2.79,1.82,5.01,2.14l3.13,.44c1.2,.18,1.78,.44,2.29,.91,.54,.51,.8,1.27,.8,2.18,0,2.07-1.6,3.2-4.58,3.2-2.4,0-4.61-.54-6.25-2.18l-3.27,3.27c2.54,2.58,5.51,3.41,9.44,3.41,5.41,0,9.58-2.83,9.58-7.84m-21.46-13.73v-4.5h-17.03v25.85h5.04v-10.49h10.2v-4.5h-10.2v-6.36h11.98Zm-28.32,2.98c0,1.78-1.2,2.98-3.34,2.98h-4.94v-5.96h4.94c2.14,0,3.34,1.2,3.34,2.98m.36,10.67c0,1.74-1.09,3.2-3.38,3.2h-5.27v-6.36h5.27c2.29,0,3.38,1.42,3.38,3.16m5.04,.25c0-3.45-1.99-5.08-3.56-5.81,1.31-.62,3.19-2.47,3.19-5.34,0-4.43-2.94-7.26-7.99-7.26h-10.38v25.85h10.82c4.61,0,7.91-2.61,7.91-7.44"/><path class="f" d="M334.93,230.35v-17.89h-2.49l-8,12.97v-12.97h-2.71v17.89h2.46l8.02-12.99v12.99h2.71Zm-19.61,0v-17.89h-2.74v7.67h-7.24v-7.67h-2.71v17.89h2.71v-7.82h7.24v7.82h2.74Zm-19.13,0v-17.89h-2.49l-8,12.97v-12.97h-2.71v17.89h2.46l8.02-12.99v12.99h2.71Zm-30.56-17.89v5.28c0,4.25-.63,7.77-2.19,10.18h-1.56v6.46h2.64v-4.02h10.86v4.02h2.66v-6.46h-2.11v-15.46h-10.3Zm2.61,2.44h4.98v13.02h-6.74c1.33-2.51,1.76-5.61,1.76-9.03v-4Zm-12.62,6.34c0,3.04,0,4.63-1.06,5.73-.68,.73-1.61,1.11-2.66,1.11s-1.94-.38-2.67-1.11c-.96-.96-1.03-2.64-1.03-4.47v-1.53c0-2.29,.03-4.05,1.03-5.11,.7-.73,1.66-1.11,2.67-1.11s1.96,.38,2.66,1.11c1.01,1.06,1.06,2.66,1.06,5.38m2.74-1.08c0-2.54-.35-4.52-1.73-5.93-1.23-1.23-2.87-1.91-4.73-1.91s-3.47,.68-4.7,1.91c-1.51,1.51-1.73,3.42-1.73,6.36v1.18c0,2.66,.03,5.1,1.73,6.84,1.23,1.25,2.84,1.91,4.7,1.91s3.49-.65,4.73-1.91c1.71-1.76,1.73-4,1.73-6.94v-1.51Zm-16.31-5.25v-2.44h-11.01v17.89h2.71v-15.46h8.3Zm-22.95-4.3h-2.46l-7.16,21.61h2.46l7.16-21.61Zm-20.69,19.75v-2.44h-8.72v-5.38h7.44v-2.41h-7.44v-5.23h8.72v-2.44h-11.43v17.89h11.43Zm-20.13-12.64c0,1.76-1.23,2.79-3.04,2.79h-4.02v-5.61h4.02c1.81,0,3.04,1.06,3.04,2.82m3.27,12.64l-4.12-7.92c2.01-.55,3.57-2.18,3.57-4.75,0-3.04-2.16-5.23-5.56-5.23h-6.94v17.89h2.71v-7.54h3.39l3.77,7.54h3.16Zm-19.73,0v-17.89h-2.71v7.64h-7.27v-7.64h-2.71v17.89h2.71v-7.82h7.27v7.82h2.71Zm-22.12-5.9h-5.5l2.79-7.94,2.71,7.94Zm4.88,5.9l-6.56-17.89h-2.19l-6.56,17.89h2.89l1.23-3.59h7.06l1.23,3.59h2.89Zm-19.36-5.65v-12.24h-2.71v12.04c0,2.34-1.23,3.57-3.24,3.57-1.31,0-1.91-.45-2.54-1.08l-1.81,1.78c1.23,1.23,2.51,1.73,4.35,1.73,3.29,0,5.95-2.08,5.95-5.8m-21.72,5.65v-2.28h-7.29l5.61-6.86c1.1-1.36,1.68-2.29,1.68-3.87,0-3.09-2.11-5.02-5.18-5.02s-5.2,2.01-5.2,5.05h2.56c0-2.01,1.28-2.77,2.64-2.77,1.66,0,2.61,1.11,2.61,2.71,0,.9-.28,1.56-.96,2.39l-6.89,8.37v2.28h10.4Z"/></g><path class="h" d="M424.29,242.64H6.21V111.78H424.29V242.64Zm-416.4-1.67H422.61V113.46H7.89v127.51Z"/><polygon class="f" points="19.45 106.57 32.56 106.57 26 100.02 19.45 106.57"/><polygon class="f" points="19.45 254.36 32.56 254.36 26 247.81 19.45 254.36"/></svg>