<?xml version="1.0" encoding="UTF-8" standalone="no"?> <svg xmlns="http://www.w3.org/2000/svg" xmlns:xlink="http://www.w3.org/1999/xlink" xmlns:serif="http://www.serif.com/" width="100%" height="100%" viewBox="0 0 647 731" version="1.1" xml:space="preserve" style="fill-rule:evenodd;clip-rule:evenodd;stroke-miterlimit:10;"> <g transform="matrix(-4.16667,0,0,4.16667,542.808,-1965.36)"> <rect x="113.386" y="551.402" width="14.173" height="59.488" style="fill:rgb(121,204,198);"></rect> </g> <g transform="matrix(-4.16667,0,0,4.16667,542.808,-2615.84)"> <rect x="113.386" y="647.146" width="14.173" height="24.114" style="fill:rgb(121,204,198);"></rect> </g> <g transform="matrix(-4.16667,0,0,4.16667,1104.95,-2191.79)"> <rect x="113.386" y="601.231" width="149.086" height="14.173" style="fill:rgb(121,204,198);"></rect> </g> <g transform="matrix(4.16667,0,0,4.16667,-461.129,-2765.73)"> <rect x="113.686" y="666.79" width="147.985" height="20.8" style="fill:rgb(121,204,198);stroke:rgb(42,44,104);stroke-width:0.6px;"></rect> </g> <g transform="matrix(4.16667,0,0,4.16667,-461.129,-630.354)"> <text x="179.5px" y="214.306px" style="font-family:'Arial-BoldMT', 'Arial', sans-serif;font-weight:700;font-size:13px;fill:rgb(42,44,104);">B<tspan x="188.314px " y="214.306px ">K</tspan></text> <text x="140.136px" y="236.006px" style="font-family:'ArialMT', 'Arial', sans-serif;font-size:9px;fill:white;">1<tspan x="145.546px 148.492px 151.894px 155.606px 161.016px 163.962px 168.867px 175.274px 182.178px 189.083px 195.49px 198.437px 201.342px 205.223px 211.631px 218.038px 224.446px 231.35px " y="236.006px 236.006px 236.006px 236.006px 236.006px 236.006px 236.006px 236.006px 236.006px 236.006px 236.006px 236.006px 236.006px 236.006px 236.006px 236.006px 236.006px 236.006px "> - 3 JAHRE / YEARS</tspan></text> </g> <g transform="matrix(4.16667,0,0,4.16667,-461.129,-630.354)"> <text x="127.628px" y="167.8px" style="font-family:'Arial-BoldMT', 'Arial', sans-serif;font-weight:700;font-size:13px;fill:white;">F<tspan x="135.41px 142.481px 149.552px 157.334px 165.116px 172.899px 179.97px 187.752px 194.823px 201.894px 209.677px 217.459px 220.912px 225.812px 232.883px 236.336px 240.507px " y="167.8px 167.8px 167.8px 167.8px 167.8px 167.8px 167.8px 167.8px 167.8px 167.8px 167.8px 167.8px 167.8px 167.8px 167.8px 167.8px 167.8px ">achhochschulreife</tspan></text> </g> <g transform="matrix(-4.16667,0,0,4.16667,1107.45,-2326.15)"> <rect x="113.686" y="601.314" width="149.088" height="46.253" style="fill:none;stroke:rgb(42,44,104);stroke-width:0.6px;"></rect> </g> <g transform="matrix(-4.16667,0,0,4.16667,1107.45,-1721.57)"> <rect x="113.686" y="518.216" width="149.088" height="67.35" style="fill:rgb(121,204,198);stroke:rgb(42,44,104);stroke-width:0.6px;"></rect> </g> <g transform="matrix(4.16667,0,0,4.16667,31.0669,375.174)"> <path d="M0,2.345L4.691,2.345L2.345,0L0,2.345Z" style="fill:white;fill-rule:nonzero;"></path> </g> <g transform="matrix(4.16667,0,0,4.16667,31.0669,414.042)"> <path d="M0,2.345L4.691,2.345L2.345,0L0,2.345Z" style="fill:white;fill-rule:nonzero;"></path> </g> <g transform="matrix(4.16667,0,0,4.16667,31.0669,394.608)"> <path d="M0,2.345L4.691,2.345L2.345,0L0,2.345Z" style="fill:white;fill-rule:nonzero;"></path> </g> <g transform="matrix(4.16667,0,0,4.16667,31.0669,161.394)"> <path d="M0,2.345L4.691,2.345L2.345,0L0,2.345Z" style="fill:white;fill-rule:nonzero;"></path> </g> <g transform="matrix(4.16667,0,0,4.16667,31.0669,100.174)"> <path d="M0,2.345L4.691,2.345L2.345,0L0,2.345Z" style="fill:white;fill-rule:nonzero;"></path> </g> <g transform="matrix(4.16667,0,0,4.16667,31.0669,139.042)"> <path d="M0,2.345L4.691,2.345L2.345,0L0,2.345Z" style="fill:white;fill-rule:nonzero;"></path> </g> <g transform="matrix(4.16667,0,0,4.16667,31.0669,119.608)"> <path d="M0,2.345L4.691,2.345L2.345,0L0,2.345Z" style="fill:white;fill-rule:nonzero;"></path> </g> <g transform="matrix(4.16667,0,0,4.16667,-461.129,-630.354)"> <text x="146.371px" y="269.572px" style="font-family:'Arial-BoldMT', 'Arial', sans-serif;font-weight:700;font-size:13px;fill:rgb(41,44,104);">M<tspan x="157.41px 161.233px 165.773px 170.313px 174.135px 181.576px 186.846px " y="269.572px 269.572px 269.572px 269.572px 269.572px 269.572px 269.572px ">ittlere</tspan></text> <text x="198.865px" y="269.572px" style="font-family:'Arial-BoldMT', 'Arial', sans-serif;font-weight:700;font-size:13px;fill:rgb(41,44,104);">R<tspan x="208.463px 215.904px 219.727px 224.267px " y="269.572px 269.572px 269.572px 269.572px ">eife</tspan></text> <text x="115.151px" y="285.172px" style="font-family:'Arial-BoldMT', 'Arial', sans-serif;font-weight:700;font-size:13px;fill:white;">In<tspan x="126.84px 131.237px 138.535px 143.662px 155.289px 162.586px 170.595px 174.275px 181.573px " y="285.172px 285.172px 285.172px 285.172px 285.172px 285.172px 285.172px 285.172px 285.172px ">termediat</tspan>e</text> <text x="198.468px" y="285.172px" style="font-family:'Arial-BoldMT', 'Arial', sans-serif;font-weight:700;font-size:13px;fill:white;">se<tspan x="213.064px 220.362px 228.371px 236.379px 244.388px 251.686px 256.813px " y="285.172px 285.172px 285.172px 285.172px 285.172px 285.172px 285.172px ">condary</tspan></text> <text x="144.355px" y="300.772px" style="font-family:'Arial-BoldMT', 'Arial', sans-serif;font-weight:700;font-size:13px;fill:white;">s<tspan x="151.461px 158.567px 166.384px 174.201px 182.018px " y="300.772px 300.772px 300.772px 300.772px 300.772px ">chool</tspan></text> <text x="187.736px" y="300.772px" style="font-family:'Arial-BoldMT', 'Arial', sans-serif;font-weight:700;font-size:13px;fill:white;">l<tspan x="191.224px 198.33px 205.436px 212.542px 216.029px 223.846px " y="300.772px 300.772px 300.772px 300.772px 300.772px 300.772px ">eaving</tspan></text> <text x="156.926px" y="316.372px" style="font-family:'Arial-BoldMT', 'Arial', sans-serif;font-weight:700;font-size:13px;fill:white;">c<tspan x="164.286px 171.645px 176.833px 181.292px 185.033px 193.104px 200.463px 207.822px 212.281px " y="316.372px 316.372px 316.372px 316.372px 316.372px 316.372px 316.372px 316.372px 316.372px ">ertiﬁcate</tspan></text> </g> </svg> 