<?xml version="1.0" encoding="UTF-8"?><svg id="a" xmlns="http://www.w3.org/2000/svg" xmlns:xlink="http://www.w3.org/1999/xlink" viewBox="0 0 288.85 512"><defs><style>.d{fill:none;}.e{fill:#fff;}.f{fill:#87ccc8;}.g{fill:#6ec3bf;}.h{fill:#2b2961;}.i{clip-path:url(#c);}.j{clip-path:url(#b);}</style><clipPath id="b"><rect class="d" x="-13.95" width="316.75" height="512"/></clipPath><clipPath id="c"><rect class="d" x="-13.95" width="316.75" height="512"/></clipPath></defs><rect class="f" x="3.05" y="309.37" width="26.77" height="112.37"/><rect class="f" x="3.05" y="187.01" width="26.77" height="41.81"/><rect class="f" x="3.61" y="356.87" width="281.43" height="154.57"/><g class="j"><path class="h" d="M285.61,512H3.05v-155.7H285.61v155.7Zm-281.43-1.13H284.48v-153.43H4.18v153.43Z"/><path class="e" d="M237.4,499.2v-10.7c0-1.08-.07-2.19-.64-3.17-.56-.96-1.35-1.72-2.16-2.53l-2.16,2.16c.59,.59,.96,.91,1.38,1.62,.25,.44,.37,1.13,.37,2.06v10.41c0,.93-.12,1.62-.37,2.06-.42,.71-.79,1.03-1.38,1.62l2.16,2.16c.81-.81,1.6-1.57,2.16-2.53,.56-.98,.64-2.09,.64-3.17m-7.47,1.79l-2.16-2.14c-.76,.76-1.23,1.01-2.06,1.01-1.67,0-2.53-1.23-2.53-3.68s.86-3.66,2.53-3.66c.81,0,1.33,.25,2.06,1.01l2.16-2.16c-.76-.74-1.13-.98-1.82-1.28-.69-.29-1.5-.44-2.38-.44-3.61,0-5.74,2.4-5.74,6.43,0,4.25,2.09,6.65,5.74,6.65,.88,0,1.67-.15,2.38-.47,.69-.29,1.06-.54,1.82-1.28m-16.42-3.81v.69c0,1.6-.66,2.24-2.31,2.24-1.35,0-2.02-.49-2.02-1.47s.66-1.45,1.79-1.45h2.53Zm3.19,5.4v-8.42c0-3-1.84-4.52-5.52-4.52-1.21,0-2.09,.15-2.82,.47-.64,.29-.98,.56-1.72,1.3l2.04,1.99c.76-.84,1.28-1.06,2.41-1.06,1.72,0,2.43,.59,2.43,2.02v.64h-3.02c-2.7,0-4.37,1.42-4.37,3.73,0,2.5,1.59,3.98,4.32,3.98,.74,0,1.33-.1,1.82-.29,.49-.2,.76-.39,1.33-.93v1.1h3.11Zm-13.75,0v-12.79h-9.35v5.18c0,4.59-1.06,4.79-2.14,4.79h-.39v2.82h1.52c2.6,0,4.1-1.42,4.1-6.9v-3.07h3.07v9.97h3.19Zm-20.8,0v-6.68l4.4,6.68h3.83l-4.81-6.82,4.52-5.97h-3.73l-4.2,6.07v-6.07h-3.21v12.79h3.21Zm-13.46,0v-12.79h-3.21l-4.5,7.61v-7.61h-3.21v12.79h3.21l4.5-7.81v7.81h3.21Zm-13.45-9.97v-2.82h-10.66v2.82h3.76v9.97h3.21v-9.97h3.68Zm-11.89,1.48h-7.56v2.97h7.56v-2.97Zm-13.87-3.71c0,1.62-.96,2.55-2.26,2.55s-2.26-1.01-2.26-2.55c0-1.62,.96-2.56,2.26-2.56s2.26,.93,2.26,2.56m3.19-.02c0-3.46-2.36-5.4-5.45-5.4s-5.45,2.01-5.45,5.45c0,3.24,2.26,5.18,4.61,5.18,.42,0,.88-.05,1.3-.22l-3.64,7.22h3.46l3.71-7.56c.79-1.59,1.45-3.07,1.45-4.66m-24.21,9.4h-3.91c.64-1.3,.98-2.9,.98-5.48v-1.67h2.92v7.15Zm4.81,5.97v-5.97h-1.62v-9.97h-9.18v3.9c0,3.34-.59,4.89-1.25,6.07h-1.3v5.97h3.02v-3.14h7.32v3.14h3.02Zm-18.46-10.73h-4.87c.07-1.72,.96-2.7,2.43-2.7s2.33,.96,2.43,2.7m3.14,2.18v-1.42c0-3.71-2.18-6.11-5.57-6.11s-5.57,2.5-5.57,6.51c0,4.35,2.01,6.58,5.94,6.58,1.01,0,1.89-.17,2.63-.47,.81-.34,1.25-.64,2.21-1.55l-1.94-1.89c-.56,.54-.83,.74-1.3,.93-.42,.17-.96,.27-1.47,.27-1.87,0-2.83-.93-2.92-2.85h8.01Zm-14.59,5.4v-12.79h-9.35v5.18c0,4.59-1.06,4.79-2.14,4.79h-.39v2.82h1.52c2.6,0,4.1-1.42,4.1-6.9v-3.07h3.07v9.97h3.19Zm-13.41-1.59l-2.16-2.14c-.76,.76-1.23,1.01-2.06,1.01-1.67,0-2.53-1.23-2.53-3.68s.86-3.66,2.53-3.66c.81,0,1.33,.25,2.06,1.01l2.16-2.16c-.76-.74-1.13-.98-1.82-1.28-.69-.29-1.5-.44-2.38-.44-3.61,0-5.74,2.4-5.74,6.43,0,4.25,2.09,6.65,5.74,6.65,.88,0,1.67-.15,2.38-.47,.69-.29,1.06-.54,1.82-1.28m-12.94,1.77c-.59-.59-.96-.93-1.38-1.65-.25-.44-.37-1.13-.37-2.06v-10.41c0-.93,.12-1.62,.37-2.06,.42-.71,.79-1.06,1.38-1.65l-2.14-2.14c-.81,.81-1.59,1.57-2.16,2.53-.56,.98-.64,2.09-.64,3.17v10.7c0,1.08,.07,2.19,.64,3.17,.56,.96,1.35,1.72,2.16,2.53l2.14-2.14Z"/><path class="e" d="M278.85,465.53h-4.86c.07-1.72,.96-2.7,2.43-2.7s2.33,.96,2.43,2.7m3.14,2.18v-1.42c0-3.71-2.18-6.11-5.57-6.11s-5.57,2.5-5.57,6.51c0,4.35,2.01,6.58,5.94,6.58,1.01,0,1.89-.17,2.63-.47,.81-.34,1.25-.64,2.21-1.55l-1.94-1.89c-.56,.54-.83,.74-1.3,.93-.42,.17-.96,.27-1.47,.27-1.87,0-2.83-.94-2.92-2.85h8.01Zm-14.56,5.4v-12.79h-3.21l-4.5,7.61v-7.61h-3.21v12.79h3.21l4.5-7.81v7.81h3.21Zm-14.95,0v-12.79h-3.21v4.84h-4.1v-4.84h-3.21v12.79h3.21v-5.13h4.1v5.13h3.21Zm-17.63-5.4v.69c0,1.6-.66,2.24-2.31,2.24-1.35,0-2.02-.49-2.02-1.48s.66-1.45,1.79-1.45h2.53Zm3.19,5.4v-8.42c0-3-1.84-4.52-5.52-4.52-1.21,0-2.09,.15-2.83,.46-.64,.29-.98,.56-1.72,1.3l2.04,1.99c.76-.84,1.28-1.06,2.41-1.06,1.72,0,2.43,.59,2.43,2.02v.64h-3.02c-2.7,0-4.37,1.42-4.37,3.73,0,2.5,1.6,3.98,4.32,3.98,.74,0,1.33-.1,1.82-.29,.49-.2,.76-.39,1.33-.93v1.1h3.12Zm-16.4-3.85c0,.91-.59,1.5-1.6,1.5h-2.53v-2.98h2.53c1.01,0,1.6,.54,1.6,1.48m-1.75-6.58c1.01,0,1.55,.49,1.55,1.35s-.54,1.38-1.55,1.38h-2.38v-2.73h2.38Zm4.91,6.75c0-1.38-.59-2.26-1.82-2.9,1.1-.64,1.62-1.5,1.62-2.7,0-2.14-1.55-3.51-3.95-3.51h-6.31v12.79h6.53c2.41,0,3.93-1.42,3.93-3.68m-17.16-2.73c0,1.67-.1,3.69-2.24,3.69-1.55,0-2.21-1.03-2.21-3.49,0-1.65,.02-3.86,2.21-3.86s2.24,2.01,2.24,3.66m3.19-.05c0-2.48-.39-3.81-1.45-4.91-.98-1.03-2.36-1.57-3.98-1.57s-2.97,.54-3.95,1.57c-1.06,1.13-1.45,2.43-1.45,4.96s.37,3.86,1.45,4.98c.98,1.03,2.33,1.57,3.95,1.57s3-.54,3.98-1.57c1.08-1.13,1.45-2.43,1.45-5.03m-13.85,2.68c0-1.38-.78-2.46-1.94-2.95,1.06-.49,1.74-1.55,1.74-2.75,0-2.26-2.21-3.46-4.66-3.46-1.92,0-3.73,.34-5.18,1.5l1.77,1.96c.83-.59,1.82-.89,2.77-.89,1.3,0,2.16,.42,2.16,1.3s-.66,1.4-1.72,1.4h-1.89v2.28h1.94c1.13,0,1.84,.42,1.84,1.38s-1.11,1.45-2.23,1.45c-1.2,0-2.33-.32-3.24-1.13l-1.84,2.01c1.52,1.37,3.59,1.82,5.6,1.82,2.63,0,4.88-1.55,4.88-3.93m-16.23-1.62v.69c0,1.6-.66,2.24-2.31,2.24-1.35,0-2.02-.49-2.02-1.48s.66-1.45,1.79-1.45h2.53Zm3.19,5.4v-8.42c0-3-1.84-4.52-5.52-4.52-1.21,0-2.09,.15-2.82,.46-.64,.29-.98,.56-1.72,1.3l2.03,1.99c.76-.84,1.28-1.06,2.41-1.06,1.72,0,2.43,.59,2.43,2.02v.64h-3.02c-2.7,0-4.37,1.42-4.37,3.73,0,2.5,1.59,3.98,4.32,3.98,.74,0,1.33-.1,1.82-.29,.49-.2,.76-.39,1.33-.93v1.1h3.11Zm-16.4-6.43c0,2.73-.56,3.71-2.16,3.71s-2.16-.98-2.16-3.49c0-1.65-.05-3.86,2.16-3.86,1.6,0,2.16,.96,2.16,3.64m-4.42-5.16v-1.2h-3.09v17.48h3.19v-5.82c.91,.91,1.72,1.28,3.05,1.28s2.43-.42,3.17-1.15c.96-.96,1.3-2.36,1.3-5.35,0-1.7-.05-2.33-.22-3.27-.17-.86-.56-1.64-1.08-2.16-.74-.74-1.89-1.15-3.17-1.15-1.4,0-2.16,.37-3.15,1.35m-11.91,11.74c1.52,0,2.87-.52,3.78-1.47,1.11-1.15,1.57-2.58,1.57-5.13,0-2.19-.49-4.13-1.62-5.18-.71-.64-1.55-1.03-3.14-1.03-1.4,0-2.7,.64-3.19,1.47,0-1.55,.44-2.33,1.62-2.95,1.45-.76,3.61-.61,5.23-.74v-2.75c-3.78,.02-6.09,.19-7.69,1.42-1.62,1.28-2.04,2.75-2.04,8.74,0,2.38,.27,4.42,1.03,5.62,.86,1.35,2.55,1.99,4.44,1.99m-.05-2.87c-.61,0-1.15-.17-1.52-.61-.47-.52-.71-1.5-.71-3.07,0-1.4,.25-2.38,.64-2.9,.39-.49,.96-.66,1.6-.66s1.21,.2,1.57,.69c.42,.52,.64,1.5,.64,2.9,0,1.5-.25,2.5-.66,3.02-.39,.47-.94,.64-1.55,.64m-11.81-3.69c0,1.67-.1,3.69-2.24,3.69-1.55,0-2.21-1.03-2.21-3.49,0-1.65,.02-3.86,2.21-3.86s2.24,2.01,2.24,3.66m3.19-.05c0-2.48-.39-3.81-1.45-4.91-.98-1.03-2.36-1.57-3.98-1.57s-2.97,.54-3.95,1.57c-1.05,1.13-1.45,2.43-1.45,4.96s.37,3.86,1.45,4.98c.98,1.03,2.33,1.57,3.95,1.57s3-.54,3.98-1.57c1.08-1.13,1.45-2.43,1.45-5.03m-23.2,.05c0,1.67-.1,3.69-2.24,3.69-1.55,0-2.21-1.03-2.21-3.49,0-1.65,.02-3.86,2.21-3.86s2.24,2.01,2.24,3.66m3.19-.05c0-2.48-.39-3.81-1.45-4.91-.98-1.03-2.36-1.57-3.98-1.57s-2.97,.54-3.95,1.57c-1.05,1.13-1.45,2.43-1.45,4.96s.37,3.86,1.45,4.98c.98,1.03,2.33,1.57,3.95,1.57s3-.54,3.98-1.57c1.08-1.13,1.45-2.43,1.45-5.03m-14.34,6.46v-12.79h-3.21v4.84h-4.1v-4.84h-3.21v12.79h3.21v-5.13h4.1v5.13h3.21Zm-18.17-2.82h-3.91c.64-1.3,.98-2.9,.98-5.48v-1.67h2.92v7.15Zm4.81,5.96v-5.96h-1.62v-9.97h-9.18v3.9c0,3.34-.59,4.89-1.25,6.07h-1.3v5.96h3.02v-3.14h7.32v3.14h3.02Zm-18.46-10.73h-4.86c.07-1.72,.96-2.7,2.43-2.7s2.33,.96,2.43,2.7m3.14,2.18v-1.42c0-3.71-2.18-6.11-5.57-6.11s-5.57,2.5-5.57,6.51c0,4.35,2.01,6.58,5.94,6.58,1.01,0,1.89-.17,2.63-.47,.81-.34,1.25-.64,2.21-1.55l-1.94-1.89c-.56,.54-.83,.74-1.3,.93-.42,.17-.96,.27-1.47,.27-1.87,0-2.83-.94-2.92-2.85h8.01Zm-17.24-1.03c0,2.73-.56,3.71-2.16,3.71s-2.16-.98-2.16-3.49c0-1.65-.05-3.86,2.16-3.86,1.6,0,2.16,.96,2.16,3.64m-4.42-5.16v-1.2h-3.09v17.48h3.19v-5.82c.91,.91,1.72,1.28,3.05,1.28s2.43-.42,3.17-1.15c.96-.96,1.3-2.36,1.3-5.35,0-1.7-.05-2.33-.22-3.27-.17-.86-.56-1.64-1.08-2.16-.73-.74-1.89-1.15-3.17-1.15-1.4,0-2.16,.37-3.15,1.35m-6.07,9.99l-2.16-2.14c-.76,.76-1.23,1.01-2.06,1.01-1.67,0-2.53-1.23-2.53-3.69s.86-3.66,2.53-3.66c.81,0,1.33,.25,2.06,1.01l2.16-2.16c-.76-.74-1.13-.98-1.82-1.28-.69-.29-1.5-.44-2.38-.44-3.61,0-5.74,2.4-5.74,6.43,0,4.25,2.09,6.65,5.74,6.65,.88,0,1.67-.15,2.38-.47,.69-.29,1.06-.54,1.82-1.28m-22.61-3.81v.69c0,1.6-.66,2.24-2.31,2.24-1.35,0-2.02-.49-2.02-1.48s.66-1.45,1.79-1.45h2.53Zm3.19,5.4v-8.42c0-3-1.84-4.52-5.52-4.52-1.21,0-2.09,.15-2.83,.46-.64,.29-.98,.56-1.72,1.3l2.04,1.99c.76-.84,1.28-1.06,2.41-1.06,1.72,0,2.43,.59,2.43,2.02v.64h-3.02c-2.7,0-4.37,1.42-4.37,3.73,0,2.5,1.59,3.98,4.32,3.98,.74,0,1.33-.1,1.82-.29,.49-.2,.76-.39,1.33-.93v1.1h3.11Zm-13.73,0v-12.79h-3.21v4.84h-4.1v-4.84h-3.21v12.79h3.21v-5.13h4.1v5.13h3.21Z"/><path class="e" d="M280.72,443.65v-12.79h-3.21v4.84h-4.1v-4.84h-3.21v12.79h3.21v-5.13h4.1v5.13h3.21Zm-17.09-7.58h-4.87c.07-1.72,.96-2.7,2.43-2.7s2.33,.96,2.43,2.7m3.14,2.18v-1.42c0-3.71-2.18-6.11-5.57-6.11s-5.57,2.5-5.57,6.51c0,4.35,2.01,6.58,5.94,6.58,1.01,0,1.89-.17,2.63-.47,.81-.34,1.25-.64,2.21-1.55l-1.94-1.89c-.56,.54-.83,.74-1.3,.93-.42,.17-.96,.27-1.48,.27-1.87,0-2.83-.94-2.92-2.85h8.01Zm-14.56,5.4v-12.79h-10.53v12.79h3.21v-9.97h4.1v9.97h3.21Zm-17.09-7.58h-4.86c.07-1.72,.96-2.7,2.43-2.7s2.33,.96,2.43,2.7m3.14,2.18v-1.42c0-3.71-2.18-6.11-5.57-6.11s-5.57,2.5-5.57,6.51c0,4.35,2.01,6.58,5.94,6.58,1.01,0,1.89-.17,2.63-.47,.81-.34,1.25-.64,2.21-1.55l-1.94-1.89c-.56,.54-.83,.74-1.3,.93-.42,.17-.96,.27-1.47,.27-1.87,0-2.83-.94-2.92-2.85h8.01Zm-12.82-4.57v-2.82h-10.66v2.82h3.76v9.97h3.21v-9.97h3.68Zm-11.86,8.38l-2.16-2.14c-.76,.76-1.23,1.01-2.06,1.01-1.67,0-2.53-1.23-2.53-3.69s.86-3.66,2.53-3.66c.81,0,1.33,.25,2.06,1.01l2.16-2.16c-.76-.74-1.13-.98-1.82-1.28-.69-.29-1.5-.44-2.38-.44-3.61,0-5.74,2.4-5.74,6.43,0,4.25,2.09,6.65,5.74,6.65,.88,0,1.67-.15,2.38-.47,.69-.29,1.06-.54,1.82-1.28m-22.61-3.81v.69c0,1.6-.66,2.24-2.31,2.24-1.35,0-2.01-.49-2.01-1.48s.66-1.45,1.79-1.45h2.53Zm3.19,5.4v-8.42c0-3-1.84-4.52-5.53-4.52-1.2,0-2.09,.15-2.82,.46-.64,.29-.98,.56-1.72,1.3l2.04,1.99c.76-.84,1.28-1.06,2.41-1.06,1.72,0,2.43,.59,2.43,2.02v.64h-3.02c-2.7,0-4.37,1.42-4.37,3.73,0,2.5,1.59,3.98,4.32,3.98,.74,0,1.33-.1,1.82-.29,.49-.2,.76-.39,1.33-.93v1.1h3.12Zm-16.4-3.85c0,.91-.59,1.5-1.6,1.5h-2.53v-2.98h2.53c1.01,0,1.6,.54,1.6,1.48m-1.75-6.58c1.01,0,1.55,.49,1.55,1.35s-.54,1.38-1.55,1.38h-2.38v-2.73h2.38Zm4.91,6.75c0-1.38-.59-2.26-1.82-2.9,1.1-.64,1.62-1.5,1.62-2.7,0-2.14-1.55-3.51-3.95-3.51h-6.31v12.79h6.53c2.41,0,3.93-1.42,3.93-3.68m-17.16-2.75c0,2.73-.57,3.71-2.16,3.71s-2.16-.98-2.16-3.49c0-1.65-.05-3.86,2.16-3.86,1.6,0,2.16,.96,2.16,3.64m-4.42-5.16v-1.2h-3.09v17.48h3.19v-5.82c.91,.91,1.72,1.28,3.05,1.28s2.43-.42,3.17-1.15c.96-.96,1.3-2.36,1.3-5.35,0-1.7-.05-2.33-.22-3.27-.17-.86-.56-1.64-1.08-2.16-.74-.74-1.89-1.15-3.17-1.15-1.4,0-2.16,.37-3.15,1.35m-11,5.92c1.03,0,1.7,.61,1.7,1.57s-.66,1.6-1.7,1.6h-2.46v-3.17h2.46Zm4.84,1.57c0-2.41-1.72-4.07-4.25-4.07h-2.95v-4.62h-6.21v2.82h3v9.97h6.16c2.53,0,4.25-1.69,4.25-4.1m-15.96,4.1v-12.79h-10.53v12.79h3.21v-9.97h4.1v9.97h3.21Zm-20.77,0v-12.79h-3.14l-3.37,6.73-3.39-6.73h-3.16v12.79h3.21v-7.39l2.43,4.74h1.82l2.41-4.74v7.39h3.19Zm-15.42-12.79h-3.36l-2.55,7.91-2.65-7.91h-3.36l4.37,11.89-.54,1.57c-.32,.91-.66,1.15-1.6,1.15h-.74v2.87h1.25c1.94,0,3.02-.79,3.71-2.63l5.48-14.85Zm-14.32,12.79v-12.79h-3.14l-3.37,6.73-3.39-6.73h-3.17v12.79h3.21v-7.39l2.43,4.74h1.82l2.41-4.74v7.39h3.19Zm-17.09,0v-12.79h-3.21l-4.5,7.61v-7.61h-3.21v12.79h3.21l4.5-7.81v7.81h3.21Zm-14.95,0v-12.79h-3.21v4.84h-4.1v-4.84h-3.21v12.79h3.21v-5.13h4.1v5.13h3.21Zm-14.56,0v-12.79h-3.21l-4.5,7.61v-7.61h-3.21v12.79h3.21l4.5-7.81v7.81h3.21Zm-15.22,0v-17.48h-3.36l-4.54,9.45-4.57-9.45h-3.36v17.48h3.41v-10.19l3.37,6.63h2.31l3.34-6.63v10.19h3.41Z"/><path class="h" d="M267.25,410.16c0-2.16-1.28-3.51-3.81-3.76l-2.01-.2c-1.13-.1-1.33-.64-1.33-1.11,0-.64,.54-1.23,1.82-1.23,1.11,0,2.23,.2,2.97,.86l1.96-1.99c-1.23-1.15-2.9-1.5-4.89-1.5-2.6,0-4.94,1.42-4.94,4.07,0,2.36,1.42,3.37,3.73,3.59l2.01,.2c1.01,.1,1.35,.54,1.35,1.18,0,.96-1.15,1.33-2.26,1.33-.98,0-2.36-.15-3.41-1.21l-2.09,2.09c1.62,1.62,3.44,1.84,5.45,1.84,3.02,0,5.43-1.35,5.43-4.17m-12.65,0c0-2.16-1.28-3.51-3.81-3.76l-2.01-.2c-1.13-.1-1.33-.64-1.33-1.11,0-.64,.54-1.23,1.82-1.23,1.11,0,2.23,.2,2.97,.86l1.96-1.99c-1.23-1.15-2.9-1.5-4.89-1.5-2.6,0-4.94,1.42-4.94,4.07,0,2.36,1.42,3.37,3.73,3.59l2.01,.2c1.01,.1,1.35,.54,1.35,1.18,0,.96-1.15,1.33-2.26,1.33-.98,0-2.36-.15-3.41-1.21l-2.09,2.09c1.62,1.62,3.44,1.84,5.45,1.84,3.02,0,5.43-1.35,5.43-4.17m-13.7,4.03v-12.79h-3.19v7.74c0,1.74-1.13,2.33-2.14,2.33s-2.11-.59-2.11-2.33v-7.74h-3.19v8.18c0,1.4,.27,2.6,1.3,3.63,.71,.71,1.74,1.13,3.02,1.13,1.18,0,2.36-.44,3.19-1.32v1.18h3.12Zm-13.53,0v-2.7h-1.23c-.81,0-1.13-.39-1.13-1.15v-13.63h-3.19v13.83c0,1.82,1.1,3.66,3.73,3.66h1.82Zm-9.36,0v-8.28c0-2.7-1.47-4.66-4.27-4.66-1.13,0-2.21,.44-3.07,1.32v-5.87h-3.19v17.48h3.19v-7.81c0-1.67,1.06-2.26,2.06-2.26s2.09,.56,2.09,2.26v7.81h3.19Zm-13.51-1.59l-2.16-2.14c-.66,.71-1.23,1.01-2.06,1.01-.76,0-1.35-.27-1.82-.84-.49-.61-.71-1.5-.71-2.85s.22-2.21,.71-2.83c.47-.56,1.06-.83,1.82-.83,.83,0,1.4,.29,2.06,1.01l2.16-2.16c-1.13-1.18-2.46-1.72-4.22-1.72-2.55,0-5.72,1.35-5.72,6.53s3.16,6.55,5.72,6.55c1.77,0,3.09-.56,4.22-1.74m-12.47-2.43c0-2.16-1.28-3.51-3.81-3.76l-2.01-.2c-1.13-.1-1.33-.64-1.33-1.11,0-.64,.54-1.23,1.82-1.23,1.11,0,2.23,.2,2.97,.86l1.96-1.99c-1.23-1.15-2.9-1.5-4.89-1.5-2.6,0-4.94,1.42-4.94,4.07,0,2.36,1.42,3.37,3.73,3.59l2.01,.2c1.01,.1,1.35,.54,1.35,1.18,0,.96-1.15,1.33-2.26,1.33-.98,0-2.36-.15-3.41-1.21l-2.09,2.09c1.62,1.62,3.44,1.84,5.45,1.84,3.02,0,5.43-1.35,5.43-4.17m-16.35-2.38c0,2.09-.25,3.69-2.16,3.69s-2.16-1.6-2.16-3.69,.25-3.66,2.16-3.66,2.16,1.57,2.16,3.66m3.19,0c0-1.92-.02-4.1-1.3-5.38-.71-.71-1.86-1.15-3.12-1.15s-2.26,.34-3.1,1.28v-5.82h-3.19v17.48h3.09v-1.2c.89,.98,1.84,1.35,3.19,1.35,1.25,0,2.41-.44,3.12-1.15,1.28-1.28,1.3-3.49,1.3-5.4m-17.82,1.69c0,.79-.12,1.3-.47,1.62-.56,.54-1.13,.62-2.02,.62-1.25,0-1.84-.59-1.84-1.48s.64-1.45,1.79-1.45h2.53v.69Zm3.19,4.71v-8.42c0-3-1.86-4.52-5.45-4.52-2.14,0-3.36,.39-4.61,1.77l2.04,1.99c.66-.76,1.23-1.06,2.46-1.06,1.7,0,2.38,.61,2.38,2.02v.64h-3.02c-2.97,0-4.37,1.67-4.37,3.71,0,1.13,.37,2.16,1.05,2.87,.76,.76,1.82,1.13,3.27,1.13s2.29-.37,3.15-1.23v1.1h3.11Zm-12.72,0v-2.7h-1.23c-.81,0-1.13-.39-1.13-1.15v-13.63h-3.19v13.83c0,1.82,1.1,3.66,3.73,3.66h1.82Zm-9.5,0v-12.79h-3.19v7.74c0,1.74-1.13,2.33-2.14,2.33s-2.11-.59-2.11-2.33v-7.74h-3.19v8.18c0,1.4,.27,2.6,1.3,3.63,.71,.71,1.74,1.13,3.02,1.13,1.18,0,2.36-.44,3.19-1.32v1.18h3.11Zm-14.41,0v-8.28c0-2.7-1.47-4.66-4.27-4.66-1.13,0-2.21,.44-3.07,1.32v-5.87h-3.19v17.48h3.19v-7.81c0-1.67,1.06-2.26,2.06-2.26s2.09,.56,2.09,2.26v7.81h3.19Zm-13.51-1.59l-2.16-2.14c-.66,.71-1.23,1.01-2.06,1.01-.76,0-1.35-.27-1.82-.84-.49-.61-.71-1.5-.71-2.85s.22-2.21,.71-2.83c.47-.56,1.06-.83,1.82-.83,.83,0,1.4,.29,2.06,1.01l2.16-2.16c-1.13-1.18-2.46-1.72-4.22-1.72-2.55,0-5.72,1.35-5.72,6.53s3.17,6.55,5.72,6.55c1.77,0,3.09-.56,4.22-1.74m-12.47-2.43c0-2.16-1.28-3.51-3.81-3.76l-2.01-.2c-1.13-.1-1.33-.64-1.33-1.11,0-.64,.54-1.23,1.82-1.23,1.11,0,2.23,.2,2.97,.86l1.96-1.99c-1.23-1.15-2.9-1.5-4.89-1.5-2.6,0-4.94,1.42-4.94,4.07,0,2.36,1.42,3.37,3.73,3.59l2.01,.2c1.01,.1,1.35,.54,1.35,1.18,0,.96-1.15,1.33-2.26,1.33-.98,0-2.36-.15-3.41-1.21l-2.09,2.09c1.62,1.62,3.44,1.84,5.45,1.84,3.02,0,5.43-1.35,5.43-4.17m-13.02,4.03v-2.7h-1.15c-.76,0-1.11-.42-1.11-1.16v-6.14h2.26v-2.43h-2.26v-3.78h-3.19v3.78h-1.35v2.43h1.35v6.34c0,1.82,1.11,3.66,3.71,3.66h1.74Zm-12.47-6.41c0,2.09-.25,3.69-2.16,3.69s-2.16-1.6-2.16-3.69,.25-3.66,2.16-3.66,2.16,1.57,2.16,3.66m3.19,0c0-1.92-.02-4.1-1.3-5.38-.71-.71-1.86-1.15-3.12-1.15-1.35,0-2.31,.37-3.19,1.35v-1.2h-3.09v17.48h3.19v-5.82c.83,.93,1.79,1.28,3.1,1.28s2.41-.44,3.12-1.15c1.28-1.28,1.3-3.49,1.3-5.4m-14.78,6.41v-12.79h-3.19v7.74c0,1.74-1.13,2.33-2.14,2.33s-2.11-.59-2.11-2.33v-7.74h-3.19v8.18c0,1.4,.27,2.6,1.3,3.63,.71,.71,1.74,1.13,3.02,1.13,1.18,0,2.36-.44,3.2-1.32v1.18h3.11Zm-17.6-4.71c0,.79-.12,1.3-.47,1.62-.56,.54-1.13,.62-2.01,.62-1.25,0-1.84-.59-1.84-1.48s.64-1.45,1.79-1.45h2.53v.69Zm3.19,4.71v-8.42c0-3-1.86-4.52-5.45-4.52-2.14,0-3.36,.39-4.62,1.77l2.04,1.99c.66-.76,1.23-1.06,2.46-1.06,1.69,0,2.38,.61,2.38,2.02v.64h-3.02c-2.97,0-4.37,1.67-4.37,3.71,0,1.13,.37,2.16,1.05,2.87,.76,.76,1.82,1.13,3.26,1.13s2.29-.37,3.15-1.23v1.1h3.11Zm-14,0v-17.48h-3.41v7.15h-5.92v-7.15h-3.41v17.48h3.41v-7.32h5.92v7.32h3.41Z"/><path class="h" d="M211.08,380.69c0-2.16-1.28-3.51-3.81-3.76l-2.01-.2c-1.13-.1-1.33-.64-1.33-1.11,0-.64,.54-1.23,1.82-1.23,1.11,0,2.23,.2,2.97,.86l1.96-1.99c-1.23-1.15-2.9-1.5-4.89-1.5-2.6,0-4.94,1.42-4.94,4.07,0,2.36,1.42,3.37,3.73,3.59l2.01,.2c1.01,.1,1.35,.54,1.35,1.18,0,.96-1.15,1.33-2.26,1.33-.98,0-2.36-.15-3.41-1.21l-2.09,2.09c1.62,1.62,3.44,1.84,5.45,1.84,3.02,0,5.43-1.35,5.43-4.17m-13.56,4.03v-8.18c0-1.4-.27-2.6-1.3-3.63-.71-.71-1.74-1.13-3.02-1.13-1.18,0-2.36,.44-3.2,1.32v-1.18h-3.11v12.79h3.19v-7.74c0-1.74,1.13-2.33,2.14-2.33s2.11,.59,2.11,2.33v7.74h3.19Zm-17.21-7.58h-4.86c.02-.57,.1-.91,.29-1.38,.34-.76,1.06-1.33,2.14-1.33s1.79,.56,2.14,1.33c.2,.47,.27,.81,.29,1.38m3.14,2.18v-1.42c0-3.51-2.01-6.11-5.57-6.11-3.31,0-5.57,2.35-5.57,6.53,0,5.18,2.9,6.55,5.91,6.55,2.31,0,3.56-.71,4.86-2.01l-1.94-1.89c-.81,.81-1.5,1.21-2.9,1.21-1.79,0-2.8-1.21-2.8-2.85h8.01Zm-13.83,5.4v-2.7h-1.15c-.76,0-1.11-.42-1.11-1.16v-6.14h2.26v-2.43h-2.26v-3.78h-3.19v3.78h-1.35v2.43h1.35v6.34c0,1.82,1.11,3.66,3.7,3.66h1.74Zm-8.67-4.03c0-2.16-1.28-3.51-3.81-3.76l-2.01-.2c-1.13-.1-1.33-.64-1.33-1.11,0-.64,.54-1.23,1.82-1.23,1.11,0,2.23,.2,2.97,.86l1.96-1.99c-1.23-1.15-2.9-1.5-4.89-1.5-2.6,0-4.94,1.42-4.94,4.07,0,2.36,1.42,3.37,3.73,3.59l2.01,.2c1.01,.1,1.35,.54,1.35,1.18,0,.96-1.15,1.33-2.26,1.33-.98,0-2.36-.15-3.41-1.21l-2.09,2.09c1.62,1.62,3.44,1.84,5.45,1.84,3.02,0,5.43-1.35,5.43-4.17m-16.21-3.56h-4.86c.02-.57,.1-.91,.29-1.38,.34-.76,1.06-1.33,2.14-1.33s1.79,.56,2.14,1.33c.2,.47,.27,.81,.29,1.38m3.14,2.18v-1.42c0-3.51-2.01-6.11-5.57-6.11-3.32,0-5.57,2.35-5.57,6.53,0,5.18,2.9,6.55,5.92,6.55,2.31,0,3.56-.71,4.86-2.01l-1.94-1.89c-.81,.81-1.5,1.21-2.9,1.21-1.79,0-2.8-1.21-2.8-2.85h8.01Zm-17.78-1c0,2.09-.27,3.69-2.19,3.69s-2.16-1.6-2.16-3.69,.25-3.66,2.16-3.66,2.19,1.57,2.19,3.66m3.19,6.41v-17.48h-3.19v5.82c-.83-.93-1.82-1.28-3.12-1.28s-2.41,.44-3.12,1.15c-1.28,1.28-1.3,3.46-1.3,5.38s.02,4.13,1.3,5.4c.71,.71,1.89,1.15,3.14,1.15,1.35,0,2.29-.37,3.17-1.35v1.2h3.12Zm-14.12,0v-8.18c0-1.4-.27-2.6-1.3-3.63-.71-.71-1.74-1.13-3.02-1.13-1.18,0-2.36,.44-3.19,1.32v-1.18h-3.12v12.79h3.19v-7.74c0-1.74,1.13-2.33,2.14-2.33s2.11,.59,2.11,2.33v7.74h3.19Zm-14.66-17.58h-3.26v2.6h3.26v-2.6Zm-.02,4.79h-3.19v12.79h3.19v-12.79Zm-7.12,12.79v-8.18c0-1.4-.37-2.6-1.4-3.63-.71-.71-1.86-1.13-3.14-1.13-1.6,0-2.75,.49-3.83,1.62-.81-1.11-1.96-1.62-3.39-1.62-1.18,0-2.36,.46-3.19,1.32v-1.18h-3.11v12.79h3.19v-7.74c0-1.74,1.13-2.33,2.14-2.33s2.11,.59,2.11,2.33v7.74h3.19v-7.81c0-1.67,1.15-2.26,2.14-2.26s2.11,.59,2.11,2.33v7.74h3.19Z"/></g><polygon class="e" points="12 334.11 20.86 334.11 16.43 329.68 12 334.11"/><polygon class="e" points="12 351.73 20.86 351.73 16.43 347.3 12 351.73"/><polygon class="e" points="12 342.92 20.86 342.92 16.43 338.49 12 342.92"/><polygon class="e" points="12 203.8 20.86 203.8 16.43 199.37 12 203.8"/><polygon class="e" points="12 221.42 20.86 221.42 16.43 216.99 12 221.42"/><polygon class="e" points="12 212.61 20.86 212.61 16.43 208.18 12 212.61"/><rect class="f" x="3.05" y="290.13" width="281.61" height="26.77"/><g class="i"><path class="h" d="M166.19,263.25c0-1.55-.42-2.82-1.35-3.71-.74-.69-1.74-1.13-3.34-1.35l-2.06-.29c-.71-.1-1.28-.37-1.62-.69-.37-.34-.52-.81-.52-1.25,0-1.2,.88-2.21,2.7-2.21,1.15,0,2.48,.15,3.59,1.2l2.16-2.13c-1.5-1.45-3.24-2.04-5.65-2.04-3.78,0-6.09,2.18-6.09,5.3,0,1.48,.42,2.6,1.25,3.44,.79,.76,1.89,1.23,3.39,1.45l2.11,.29c.81,.12,1.2,.29,1.55,.61,.37,.34,.54,.86,.54,1.47,0,1.4-1.08,2.16-3.1,2.16-1.62,0-3.12-.37-4.22-1.47l-2.21,2.21c1.72,1.74,3.73,2.31,6.38,2.31,3.66,0,6.48-1.91,6.48-5.3m-14.51-9.28v-3.04h-11.51v17.48h3.41v-7.1h6.9v-3.04h-6.9v-4.3h8.1Zm-19.15,2.02c0,1.2-.81,2.02-2.26,2.02h-3.34v-4.03h3.34c1.45,0,2.26,.81,2.26,2.02m.25,7.22c0,1.18-.74,2.16-2.29,2.16h-3.56v-4.3h3.56c1.55,0,2.29,.96,2.29,2.14m3.41,.17c0-2.33-1.35-3.44-2.4-3.93,.88-.42,2.16-1.67,2.16-3.61,0-3-1.99-4.91-5.4-4.91h-7.02v17.48h7.32c3.12,0,5.35-1.77,5.35-5.03"/><path class="g" d="M192.25,157.41l2.11-4.54h1.72v4.54h3.19v-12.79h-6.21c-2.5,0-4.25,1.67-4.25,4,0,1.75,.96,3.02,2.38,3.56l-2.58,5.23h3.63Zm3.88-7.07h-2.51c-1.06,0-1.69-.64-1.69-1.57s.64-1.6,1.69-1.6h2.51v3.17Zm-10.49,7.07v-12.79h-3.21l-4.5,7.61v-7.61h-3.21v12.79h3.21l4.5-7.81v7.81h3.21Zm-13.87-1.59l-2.16-2.14c-.76,.76-1.23,1.01-2.06,1.01-1.67,0-2.53-1.23-2.53-3.69s.86-3.66,2.53-3.66c.81,0,1.33,.25,2.06,1.01l2.16-2.16c-.76-.74-1.13-.98-1.82-1.28-.69-.29-1.5-.44-2.38-.44-3.61,0-5.74,2.4-5.74,6.43,0,4.25,2.09,6.65,5.74,6.65,.88,0,1.67-.15,2.38-.47,.69-.29,1.06-.54,1.82-1.28m-15.88-5.99h-4.87c.07-1.72,.96-2.7,2.43-2.7s2.33,.96,2.43,2.7m3.14,2.18v-1.42c0-3.71-2.18-6.11-5.57-6.11s-5.57,2.5-5.57,6.51c0,4.35,2.01,6.58,5.94,6.58,1.01,0,1.89-.17,2.63-.47,.81-.34,1.25-.64,2.21-1.55l-1.94-1.89c-.56,.54-.83,.74-1.3,.93-.42,.17-.96,.27-1.47,.27-1.87,0-2.83-.94-2.92-2.85h8.01Zm-23.25,2.68c-1.99-.05-3.05-1.28-3.05-3.73s1.01-3.59,3.05-3.61v7.35Zm6.14-3.73c0,2.46-1.06,3.69-3.05,3.73v-7.35c2.04,.02,3.05,1.15,3.05,3.61m3.21-.02c0-4.3-2.4-6.21-6.21-6.43v-4.57h-3.19v4.57c-3.81,.22-6.21,2.13-6.21,6.43s2.45,6.38,6.21,6.6v4.57h3.19v-4.57c3.76-.22,6.21-2.28,6.21-6.6m-21.65,.07c0,1.67-.1,3.69-2.24,3.69-1.55,0-2.21-1.03-2.21-3.49,0-1.65,.02-3.86,2.21-3.86s2.24,2.01,2.24,3.66m3.19-.05c0-2.48-.39-3.81-1.45-4.91-.98-1.03-2.36-1.57-3.98-1.57s-2.97,.54-3.95,1.57c-1.06,1.13-1.45,2.43-1.45,4.96s.37,3.86,1.45,4.98c.98,1.03,2.33,1.57,3.95,1.57s3-.54,3.98-1.57c1.08-1.13,1.45-2.43,1.45-5.03m-17.01,.02c0,2.73-.57,3.71-2.16,3.71s-2.16-.98-2.16-3.49c0-1.65-.05-3.86,2.16-3.86,1.6,0,2.16,.96,2.16,3.64m-4.42-5.16v-1.2h-3.09v17.48h3.19v-5.82c.91,.91,1.72,1.28,3.05,1.28s2.43-.42,3.17-1.15c.96-.96,1.3-2.36,1.3-5.35,0-1.7-.05-2.33-.22-3.27-.17-.86-.56-1.64-1.08-2.16-.74-.74-1.89-1.15-3.17-1.15-1.4,0-2.16,.37-3.15,1.35m-7.15,11.59v-12.79h-10.53v12.79h3.21v-9.97h4.1v9.97h3.21Z"/><path class="g" d="M217.46,122.54v.69c0,1.6-.66,2.24-2.31,2.24-1.35,0-2.02-.49-2.02-1.48s.66-1.45,1.79-1.45h2.53Zm3.19,5.4v-8.42c0-3-1.84-4.52-5.52-4.52-1.21,0-2.09,.15-2.83,.46-.64,.29-.98,.56-1.72,1.3l2.04,1.99c.76-.84,1.28-1.06,2.41-1.06,1.72,0,2.43,.59,2.43,2.02v.64h-3.02c-2.7,0-4.37,1.42-4.37,3.73,0,2.5,1.59,3.98,4.32,3.98,.74,0,1.33-.1,1.82-.29s.76-.39,1.33-.93v1.1h3.12Zm-13.73,0v-12.79h-3.21v4.84h-4.1v-4.84h-3.21v12.79h3.21v-5.13h4.1v5.13h3.21Zm-23.28-7.58h-4.87c.07-1.72,.96-2.7,2.43-2.7s2.33,.96,2.43,2.7m3.14,2.18v-1.42c0-3.71-2.18-6.11-5.57-6.11s-5.57,2.5-5.57,6.51c0,4.35,2.01,6.58,5.94,6.58,1.01,0,1.89-.17,2.63-.47,.81-.34,1.25-.64,2.21-1.55l-1.94-1.89c-.56,.54-.83,.74-1.3,.93-.42,.17-.96,.27-1.48,.27-1.87,0-2.83-.94-2.92-2.85h8.01Zm-14.56,5.4v-12.79h-3.21v4.84h-4.1v-4.84h-3.21v12.79h3.21v-5.13h4.1v5.13h3.21Zm-17.63-5.4v.69c0,1.6-.66,2.24-2.31,2.24-1.35,0-2.02-.49-2.02-1.48s.66-1.45,1.79-1.45h2.53Zm3.19,5.4v-8.42c0-3-1.84-4.52-5.52-4.52-1.21,0-2.09,.15-2.82,.46-.64,.29-.98,.56-1.72,1.3l2.03,1.99c.76-.84,1.28-1.06,2.41-1.06,1.72,0,2.43,.59,2.43,2.02v.64h-3.02c-2.7,0-4.37,1.42-4.37,3.73,0,2.5,1.59,3.98,4.32,3.98,.74,0,1.33-.1,1.82-.29,.49-.2,.76-.39,1.33-.93v1.1h3.11Zm-16.4-3.85c0,.91-.59,1.5-1.6,1.5h-2.53v-2.98h2.53c1.01,0,1.6,.54,1.6,1.48m-1.75-6.58c1.01,0,1.55,.49,1.55,1.35s-.54,1.38-1.55,1.38h-2.38v-2.73h2.38Zm4.91,6.75c0-1.38-.59-2.26-1.82-2.9,1.11-.64,1.62-1.5,1.62-2.7,0-2.14-1.55-3.51-3.95-3.51h-6.31v12.79h6.53c2.4,0,3.93-1.42,3.93-3.68m-17.55-1.72v.69c0,1.6-.66,2.24-2.31,2.24-1.35,0-2.02-.49-2.02-1.48s.66-1.45,1.79-1.45h2.53Zm3.19,5.4v-8.42c0-3-1.84-4.52-5.52-4.52-1.2,0-2.09,.15-2.82,.46-.64,.29-.98,.56-1.72,1.3l2.04,1.99c.76-.84,1.28-1.06,2.41-1.06,1.72,0,2.43,.59,2.43,2.02v.64h-3.02c-2.7,0-4.37,1.42-4.37,3.73,0,2.5,1.59,3.98,4.32,3.98,.74,0,1.33-.1,1.82-.29,.49-.2,.76-.39,1.33-.93v1.1h3.11Zm-13.72,0v-12.79h-3.19v5.6c-.56,.07-1.47,.22-2.31,.22-.98,0-1.57-.49-1.57-1.55v-4.27h-3.19v5.16c0,2.21,1.55,3.48,3.58,3.48,1.47,0,2.65-.2,3.49-.34v4.49h3.19Zm-12.28-12.79h-3.36l-2.55,7.91-2.65-7.91h-3.36l4.37,11.89-.54,1.57c-.32,.91-.66,1.15-1.6,1.15h-.74v2.87h1.25c1.94,0,3.02-.79,3.71-2.63l5.48-14.85Zm-13.8,9.01c0-1.38-.79-2.46-1.94-2.95,1.05-.49,1.74-1.55,1.74-2.75,0-2.26-2.21-3.46-4.66-3.46-1.92,0-3.73,.34-5.18,1.5l1.77,1.96c.83-.59,1.82-.89,2.77-.89,1.3,0,2.16,.42,2.16,1.3s-.66,1.4-1.72,1.4h-1.89v2.28h1.94c1.13,0,1.84,.42,1.84,1.38s-1.11,1.45-2.23,1.45c-1.2,0-2.33-.32-3.24-1.13l-1.84,2.01c1.52,1.37,3.59,1.82,5.6,1.82,2.63,0,4.88-1.55,4.88-3.93m-13.16,3.78v-12.79h-3.21l-4.5,7.61v-7.61h-3.21v12.79h3.21l4.5-7.81v7.81h3.21Z"/><path class="g" d="M240.86,92.07c0,1.67-.1,3.69-2.24,3.69-1.55,0-2.21-1.03-2.21-3.49,0-1.65,.02-3.86,2.21-3.86s2.24,2.01,2.24,3.66m3.19-.05c0-2.48-.39-3.81-1.45-4.91-.98-1.03-2.36-1.57-3.98-1.57s-2.97,.54-3.95,1.57c-1.06,1.13-1.45,2.43-1.45,4.96s.37,3.86,1.45,4.98c.98,1.03,2.33,1.57,3.95,1.57s3-.54,3.98-1.57c1.08-1.13,1.45-2.43,1.45-5.03m-14.34,6.46v-12.79h-3.21v4.84h-4.1v-4.84h-3.21v12.79h3.21v-5.13h4.1v5.13h3.21Zm-17.09-7.58h-4.87c.07-1.72,.96-2.7,2.43-2.7s2.33,.96,2.43,2.7m3.14,2.18v-1.42c0-3.71-2.18-6.11-5.57-6.11s-5.57,2.5-5.57,6.51c0,4.35,2.01,6.58,5.94,6.58,1.01,0,1.89-.17,2.63-.47,.81-.34,1.25-.64,2.21-1.55l-1.94-1.89c-.56,.54-.83,.74-1.3,.93-.42,.17-.96,.27-1.48,.27-1.87,0-2.83-.94-2.92-2.85h8.01Zm-14.59,5.4v-12.79h-3.14l-3.37,6.73-3.39-6.73h-3.16v12.79h3.21v-7.39l2.43,4.74h1.82l2.41-4.74v7.39h3.19Zm-19.76-6.43c0,2.73-.56,3.71-2.16,3.71s-2.16-.98-2.16-3.49c0-1.65-.05-3.86,2.16-3.86,1.6,0,2.16,.96,2.16,3.64m-4.42-5.16v-1.2h-3.09v17.48h3.19v-5.82c.91,.91,1.72,1.28,3.05,1.28s2.43-.42,3.17-1.15c.96-.96,1.3-2.36,1.3-5.35,0-1.7-.05-2.33-.22-3.27-.17-.86-.56-1.64-1.08-2.16-.74-.74-1.89-1.15-3.17-1.15-1.4,0-2.16,.37-3.15,1.35m-7.14,11.59v-12.79h-3.21l-4.5,7.61v-7.61h-3.21v12.79h3.21l4.5-7.81v7.81h3.21Zm-23.65-2.72c-1.99-.05-3.05-1.28-3.05-3.73s1.01-3.59,3.05-3.61v7.35Zm6.14-3.73c0,2.46-1.06,3.69-3.05,3.73v-7.35c2.04,.02,3.05,1.15,3.05,3.61m3.21-.02c0-4.3-2.4-6.21-6.21-6.43v-4.57h-3.19v4.57c-3.81,.22-6.21,2.13-6.21,6.43s2.45,6.38,6.21,6.6v4.57h3.19v-4.57c3.76-.22,6.21-2.28,6.21-6.6m-17.12-12.82h-3l-7,21.11h3l7-21.11Zm-14.93,12.89c0,1.67-.1,3.69-2.24,3.69-1.55,0-2.21-1.03-2.21-3.49,0-1.65,.02-3.86,2.21-3.86s2.24,2.01,2.24,3.66m3.19-.05c0-2.48-.39-3.81-1.45-4.91-.98-1.03-2.36-1.57-3.98-1.57s-2.97,.54-3.95,1.57c-1.05,1.13-1.45,2.43-1.45,4.96s.37,3.86,1.45,4.98c.98,1.03,2.33,1.57,3.95,1.57s3-.54,3.98-1.57c1.08-1.13,1.45-2.43,1.45-5.03m-14.34,6.46v-12.79h-3.21v4.84h-4.1v-4.84h-3.21v12.79h3.21v-5.13h4.1v5.13h3.21Zm-14.59,0v-12.79h-9.35v5.18c0,4.59-1.06,4.79-2.14,4.79h-.39v2.82h1.52c2.6,0,4.1-1.42,4.1-6.9v-3.07h3.07v9.97h3.19Zm-17.56-5.4v.69c0,1.6-.66,2.24-2.31,2.24-1.35,0-2.01-.49-2.01-1.48s.66-1.45,1.79-1.45h2.53Zm3.19,5.4v-8.42c0-3-1.84-4.52-5.53-4.52-1.2,0-2.09,.15-2.82,.46-.64,.29-.98,.56-1.72,1.3l2.04,1.99c.76-.84,1.28-1.06,2.41-1.06,1.72,0,2.43,.59,2.43,2.02v.64h-3.02c-2.7,0-4.37,1.42-4.37,3.73,0,2.5,1.59,3.98,4.32,3.98,.74,0,1.33-.1,1.82-.29,.49-.2,.76-.39,1.33-.93v1.1h3.12Zm-12.06-12.79h-3.36l-2.55,7.91-2.65-7.91h-3.36l4.37,11.89-.54,1.57c-.32,.91-.66,1.15-1.6,1.15h-.74v2.87h1.25c1.94,0,3.02-.79,3.71-2.63l5.48-14.85Zm-18.64,9.75h-5.4c1.2-2.43,1.55-5.4,1.55-8.87v-2.53h3.86v11.4Zm5.42,6.92v-6.92h-2.01v-14.44h-10.53v4.47c0,4.03-.64,7.74-2.09,9.97h-1.65v6.92h3.29v-3.88h9.7v3.88h3.29Z"/><path class="h" d="M203.67,62.25c0,1.69-.22,3.34-2.11,3.34s-2.09-1.65-2.09-3.34,.2-3.32,2.09-3.32,2.11,1.62,2.11,3.32m3.19,6.28v-12.32h-3.09v1.2c-.88-.98-1.77-1.35-3.12-1.35-1.25,0-2.36,.42-3.07,1.13-1.2,1.2-1.3,2.82-1.3,5.06s.1,3.88,1.3,5.08c.71,.71,1.79,1.13,3.04,1.13s2.21-.34,3.05-1.28v1.3c0,1.3-.66,2.66-2.58,2.66-1.08,0-1.79-.3-2.5-.98l-1.99,2.01c1.32,1.28,2.67,1.67,4.64,1.67,3.44,0,5.62-2.23,5.62-5.3m-13.97,.47v-8.18c0-1.4-.27-2.6-1.3-3.63-.71-.71-1.74-1.13-3.02-1.13-1.18,0-2.36,.44-3.19,1.32v-1.18h-3.12v12.79h3.19v-7.74c0-1.74,1.13-2.33,2.14-2.33s2.11,.59,2.11,2.33v7.74h3.19Zm-14.71,0v-12.79h-3.19v7.74c0,1.74-1.13,2.33-2.14,2.33s-2.11-.59-2.11-2.33v-7.74h-3.19v8.18c0,1.4,.27,2.6,1.3,3.63,.71,.71,1.74,1.13,3.02,1.13,1.18,0,2.36-.44,3.19-1.32v1.18h3.12Zm-17.75-6.41c0,2.09-.27,3.69-2.19,3.69s-2.16-1.6-2.16-3.69,.25-3.66,2.16-3.66,2.19,1.57,2.19,3.66m3.19,6.41v-17.48h-3.19v5.82c-.83-.93-1.82-1.28-3.12-1.28s-2.41,.44-3.12,1.15c-1.28,1.28-1.3,3.46-1.3,5.38s.02,4.13,1.3,5.4c.71,.71,1.89,1.15,3.14,1.15,1.35,0,2.29-.37,3.17-1.35v1.2h3.12Zm-13.24,0v-2.7h-1.23c-.81,0-1.13-.39-1.13-1.15v-13.63h-3.19v13.83c0,1.82,1.11,3.66,3.73,3.66h1.82Zm-9.45-17.58h-3.26v2.6h3.26v-2.6Zm-.02,4.79h-3.19v12.79h3.19v-12.79Zm-9.92,6.38c0,2.09-.25,3.69-2.16,3.69s-2.16-1.6-2.16-3.69,.25-3.66,2.16-3.66,2.16,1.57,2.16,3.66m3.19,0c0-1.92-.02-4.1-1.3-5.38-.71-.71-1.87-1.15-3.12-1.15s-2.26,.34-3.1,1.28v-5.82h-3.19v17.48h3.09v-1.2c.88,.98,1.84,1.35,3.19,1.35,1.25,0,2.41-.44,3.12-1.15,1.28-1.28,1.3-3.49,1.3-5.4m-13.87,2.38c0-2.16-1.28-3.51-3.81-3.76l-2.01-.2c-1.13-.1-1.33-.64-1.33-1.11,0-.64,.54-1.23,1.82-1.23,1.11,0,2.23,.2,2.97,.86l1.96-1.99c-1.23-1.15-2.9-1.5-4.89-1.5-2.6,0-4.94,1.42-4.94,4.07,0,2.36,1.42,3.37,3.73,3.59l2.01,.2c1.01,.1,1.35,.54,1.35,1.18,0,.96-1.15,1.33-2.26,1.33-.98,0-2.36-.15-3.41-1.21l-2.09,2.09c1.62,1.62,3.44,1.84,5.45,1.84,3.02,0,5.43-1.35,5.43-4.17m-13.7,4.03v-12.79h-3.19v7.74c0,1.74-1.13,2.33-2.14,2.33s-2.11-.59-2.11-2.33v-7.74h-3.19v8.18c0,1.4,.27,2.6,1.3,3.63,.71,.71,1.74,1.13,3.02,1.13,1.18,0,2.36-.44,3.2-1.32v1.18h3.11Zm-18.39-5.96h-4.35l2.21-6.36,2.14,6.36Zm5.5,5.96l-6.38-17.48h-2.68l-6.36,17.48h3.56l1.06-3.09h6.21l1.03,3.09h3.56Z"/><path class="h" d="M246.59,31.95h-4.86c.02-.57,.1-.91,.29-1.38,.34-.76,1.06-1.33,2.14-1.33s1.79,.56,2.14,1.33c.2,.47,.27,.81,.29,1.38m3.14,2.18v-1.42c0-3.51-2.01-6.11-5.57-6.11-3.32,0-5.57,2.35-5.57,6.53,0,5.18,2.9,6.55,5.92,6.55,2.31,0,3.56-.71,4.86-2.01l-1.94-1.89c-.81,.81-1.5,1.21-2.9,1.21-1.79,0-2.8-1.21-2.8-2.85h8.01Zm-14.44,5.4v-8.28c0-2.7-1.47-4.66-4.27-4.66-1.13,0-2.21,.44-3.07,1.32v-5.87h-3.19v17.48h3.19v-7.81c0-1.67,1.06-2.26,2.06-2.26s2.09,.56,2.09,2.26v7.81h3.19Zm-13.51-1.59l-2.16-2.14c-.66,.71-1.23,1.01-2.06,1.01-.76,0-1.35-.27-1.82-.84-.49-.61-.71-1.5-.71-2.85s.22-2.21,.71-2.83c.47-.56,1.06-.83,1.82-.83,.83,0,1.4,.29,2.06,1.01l2.16-2.16c-1.13-1.18-2.46-1.72-4.22-1.72-2.55,0-5.72,1.35-5.72,6.53s3.17,6.55,5.72,6.55c1.77,0,3.09-.56,4.22-1.74m-13.33-15.98h-3.26v2.6h3.26v-2.6Zm-.02,4.79h-3.19v12.79h3.19v-12.79Zm-6.24,12.79v-2.7h-1.23c-.81,0-1.13-.39-1.13-1.15v-13.63h-3.19v13.83c0,1.82,1.1,3.66,3.73,3.66h1.82Zm-12.15-6.41c0,2.09-.25,3.69-2.16,3.69s-2.16-1.6-2.16-3.69,.25-3.66,2.16-3.66,2.16,1.57,2.16,3.66m3.19,0c0-1.92-.02-4.1-1.3-5.38-.71-.71-1.86-1.15-3.12-1.15s-2.26,.34-3.1,1.28v-5.82h-3.19v17.48h3.09v-1.2c.88,.98,1.84,1.35,3.19,1.35,1.25,0,2.41-.44,3.12-1.15,1.28-1.28,1.3-3.49,1.3-5.4m-17.29-1.18h-4.86c.02-.57,.1-.91,.29-1.38,.34-.76,1.06-1.33,2.14-1.33s1.79,.56,2.14,1.33c.2,.47,.27,.81,.29,1.38m3.14,2.18v-1.42c0-3.51-2.01-6.11-5.57-6.11-3.31,0-5.57,2.35-5.57,6.53,0,5.18,2.89,6.55,5.91,6.55,2.31,0,3.56-.71,4.86-2.01l-1.94-1.89c-.81,.81-1.5,1.21-2.9,1.21-1.79,0-2.8-1.21-2.8-2.85h8.01Zm-14.54-12.18h-3.26v2.6h3.26v-2.6Zm-.02,4.79h-3.19v12.79h3.19v-12.79Zm-5.5,1.05c-.88-.88-1.77-1.2-3.02-1.2-1.38,0-2.6,.64-3.22,1.37v-1.23h-3.11v12.79h3.19v-7.71c0-1.62,1.08-2.36,2.06-2.36,.79,0,1.2,.27,1.69,.76l2.41-2.43Zm-12.74,11.74v-2.7h-1.15c-.76,0-1.11-.42-1.11-1.16v-6.14h2.26v-2.43h-2.26v-3.78h-3.19v3.78h-1.35v2.43h1.35v6.34c0,1.82,1.11,3.66,3.71,3.66h1.74Zm-12.33-7.58h-4.86c.02-.57,.1-.91,.29-1.38,.34-.76,1.06-1.33,2.14-1.33s1.79,.56,2.14,1.33c.2,.47,.27,.81,.29,1.38m3.14,2.18v-1.42c0-3.51-2.01-6.11-5.57-6.11-3.32,0-5.57,2.35-5.57,6.53,0,5.18,2.9,6.55,5.92,6.55,2.31,0,3.56-.71,4.86-2.01l-1.94-1.89c-.81,.81-1.5,1.21-2.9,1.21-1.79,0-2.8-1.21-2.8-2.85h8.01Zm-17.24-1c0,2.09-.25,3.69-2.16,3.69s-2.16-1.6-2.16-3.69,.25-3.66,2.16-3.66,2.16,1.57,2.16,3.66m3.19,0c0-1.92-.02-4.1-1.3-5.38-.71-.71-1.86-1.15-3.12-1.15s-2.26,.34-3.1,1.28v-5.82h-3.19v17.48h3.09v-1.2c.88,.98,1.84,1.35,3.19,1.35,1.25,0,2.41-.44,3.12-1.15,1.28-1.28,1.3-3.49,1.3-5.4m-12.89-12.89h-3l-7,21.11h3l7-21.11Zm-14.78,11.71h-4.86c.02-.57,.1-.91,.29-1.38,.34-.76,1.06-1.33,2.14-1.33s1.79,.56,2.14,1.33c.2,.47,.27,.81,.29,1.38m3.14,2.18v-1.42c0-3.51-2.01-6.11-5.57-6.11-3.32,0-5.57,2.35-5.57,6.53,0,5.18,2.9,6.55,5.92,6.55,2.31,0,3.56-.71,4.86-2.01l-1.94-1.89c-.81,.81-1.5,1.21-2.9,1.21-1.79,0-2.8-1.21-2.8-2.85h8.01Zm-12.94,5.4v-2.7h-1.23c-.81,0-1.13-.39-1.13-1.15v-13.63h-3.19v13.83c0,1.82,1.11,3.66,3.73,3.66h1.82Zm-12.55-4.71c0,.79-.12,1.3-.47,1.62-.56,.54-1.13,.62-2.01,.62-1.25,0-1.84-.59-1.84-1.48s.64-1.45,1.79-1.45h2.53v.69Zm3.19,4.71v-8.42c0-3-1.86-4.52-5.45-4.52-2.14,0-3.36,.39-4.62,1.77l2.04,1.99c.66-.76,1.23-1.06,2.46-1.06,1.69,0,2.38,.61,2.38,2.02v.64h-3.02c-2.97,0-4.37,1.67-4.37,3.71,0,1.13,.37,2.16,1.06,2.87,.76,.76,1.82,1.13,3.26,1.13s2.29-.37,3.15-1.23v1.1h3.12Zm-13.75,0v-12.79h-3.19v7.74c0,1.74-1.13,2.33-2.14,2.33s-2.11-.59-2.11-2.33v-7.74h-3.19v8.18c0,1.4,.27,2.6,1.3,3.63,.71,.71,1.74,1.13,3.02,1.13,1.18,0,2.36-.44,3.19-1.32v1.18h3.12Zm-17.75-6.41c0,2.09-.27,3.69-2.19,3.69s-2.16-1.6-2.16-3.69,.25-3.66,2.16-3.66,2.19,1.57,2.19,3.66m3.19,6.41V22.06h-3.19v5.82c-.84-.93-1.82-1.28-3.12-1.28s-2.4,.44-3.12,1.15c-1.28,1.28-1.3,3.46-1.3,5.38s.02,4.13,1.3,5.4c.71,.71,1.89,1.15,3.14,1.15,1.35,0,2.29-.37,3.17-1.35v1.2h3.11Z"/><path class="e" d="M216.99,305.01h-3.76l1.9-5.37,1.85,5.37Zm3.26,3.99l-4.42-12.1h-1.48l-4.44,12.1h1.94l.85-2.43h4.78l.85,2.43h1.92Zm-13.23,0v-12.1h-1.85v5.19h-4.9v-5.19h-1.83v12.1h1.83v-5.29h4.9v5.29h1.85Zm-12.94,0v-12.1h-1.68l-5.41,8.77v-8.77h-1.83v12.1h1.66l5.42-8.79v8.79h1.83Zm-20.67-12.1v3.57c0,2.87-.42,5.25-1.48,6.89h-1.05v4.37h1.79v-2.72h7.34v2.72h1.8v-4.37h-1.43v-10.46h-6.97Zm1.77,1.65h3.37v8.81h-4.56c.9-1.7,1.19-3.79,1.19-6.11v-2.7Zm-8.53,4.29c0,2.06,0,3.13-.71,3.88-.46,.49-1.09,.75-1.8,.75s-1.31-.26-1.8-.75c-.65-.65-.7-1.79-.7-3.03v-1.04c0-1.55,.02-2.74,.7-3.45,.48-.49,1.12-.75,1.8-.75s1.33,.25,1.8,.75c.68,.71,.71,1.8,.71,3.64m1.85-.73c0-1.72-.24-3.06-1.17-4.01-.83-.83-1.94-1.29-3.2-1.29s-2.35,.46-3.18,1.29c-1.02,1.02-1.17,2.31-1.17,4.3v.8c0,1.8,.02,3.45,1.17,4.62,.83,.85,1.92,1.29,3.18,1.29s2.36-.44,3.2-1.29c1.15-1.19,1.17-2.7,1.17-4.69v-1.02Zm-11.03-3.55v-1.65h-7.44v12.1h1.83v-10.46h5.61Zm-15.52-2.91h-1.67l-4.85,14.62h1.67l4.85-14.62Zm-16,4.81c0,1.19-.83,1.89-2.06,1.89h-2.72v-3.79h2.72c1.22,0,2.06,.71,2.06,1.91m2.21,8.55l-2.79-5.36c1.36-.37,2.41-1.48,2.41-3.21,0-2.06-1.46-3.54-3.76-3.54h-4.69v12.1h1.83v-5.1h2.3l2.55,5.1h2.14Zm-13.35,0v-12.1h-1.83v5.17h-4.91v-5.17h-1.83v12.1h1.83v-5.29h4.91v5.29h1.83Zm-14.96-3.99h-3.72l1.89-5.37,1.84,5.37Zm3.3,3.99l-4.44-12.1h-1.48l-4.44,12.1h1.96l.83-2.43h4.78l.83,2.43h1.96Zm-13.09-3.82v-8.28h-1.83v8.14c0,1.58-.83,2.41-2.19,2.41-.88,0-1.29-.31-1.72-.73l-1.22,1.21c.83,.83,1.7,1.17,2.94,1.17,2.23,0,4.03-1.41,4.03-3.93m-16.76,3.82v-12.1h-1.73l-2.36,2.04v1.92l2.36-2.07v10.22h1.73Z"/></g><path class="h" d="M285.8,317.32H3.05v-88.5H285.8v88.5Zm-281.62-1.13H284.66v-86.24H4.18v86.24Z"/><path class="h" d="M285.8,187H3.05V0H285.8V187Zm-281.62-1.13H284.66V1.13H4.18V185.87Z"/><polygon class="e" points="12 325.24 20.86 325.24 16.43 320.81 12 325.24"/><polygon class="e" points="12 194.93 20.86 194.93 16.43 190.5 12 194.93"/></svg>