<?xml version="1.0" encoding="utf-8"?>
<!-- Generator: Adobe Illustrator 26.2.1, SVG Export Plug-In . SVG Version: 6.00 Build 0)  -->
<svg version="1.1" id="Ebene_1" xmlns="http://www.w3.org/2000/svg" xmlns:xlink="http://www.w3.org/1999/xlink" x="0px" y="0px"
	 viewBox="0 0 512 512" style="enable-background:new 0 0 512 512;" xml:space="preserve">
<style type="text/css">
	.st0{fill:#6EC3BF;}
	.st1{fill:#A0D5D2;}
	.st2{fill:#87CCC8;}
	.st3{fill:#FFFFFF;}
	.st4{clip-path:url(#SVGID_00000063614637963694494150000010741276603510017435_);fill:#2B2961;}
	.st5{fill:#897DA2;}
	.st6{fill:#2B2961;}
	.st7{clip-path:url(#SVGID_00000063632290508805277910000014842031655176651666_);fill:#FFFFFF;}
	.st8{clip-path:url(#SVGID_00000063632290508805277910000014842031655176651666_);fill:#2B2961;}
	.st9{clip-path:url(#SVGID_00000026132429665457618170000010652416097302814875_);fill:#FFFFFF;}
	.st10{clip-path:url(#SVGID_00000026132429665457618170000010652416097302814875_);fill:#6EC3BF;}
	.st11{fill:#9D9D9C;}
	.st12{fill:#D0D0D0;}
	.st13{clip-path:url(#SVGID_00000125595492675487928610000012414157332597596070_);fill:#FFFFFF;}
	.st14{clip-path:url(#SVGID_00000060736568427650406970000009695442934224178315_);fill:#2B2961;}
	.st15{clip-path:url(#SVGID_00000060736568427650406970000009695442934224178315_);fill:#FFFFFF;}
	.st16{fill:#97D1CE;}
	.st17{clip-path:url(#SVGID_00000013873342995473948550000014775540742562832534_);fill:#2B2961;}
	.st18{clip-path:url(#SVGID_00000181804625045330508180000011248132105342126223_);fill:#2B2961;}
	.st19{clip-path:url(#SVGID_00000137819596463508562070000015322749549914671788_);fill:#FFFFFF;}
	.st20{clip-path:url(#SVGID_00000137819596463508562070000015322749549914671788_);fill:#2B2961;}
	.st21{clip-path:url(#SVGID_00000152253536658209165700000010252338370433039275_);fill:#2B2961;}
	.st22{clip-path:url(#SVGID_00000142856559959517769440000012201464128506565781_);fill:#2B2961;}
	.st23{clip-path:url(#SVGID_00000142856559959517769440000012201464128506565781_);fill:#FFFFFF;}
	.st24{clip-path:url(#SVGID_00000122681542803965129280000015264189827191634560_);fill:#FFFFFF;}
	.st25{clip-path:url(#SVGID_00000133519375078897031280000014991160735425829560_);fill:#6EC3BF;}
	.st26{clip-path:url(#SVGID_00000048502672403804935830000003788209765375842720_);fill:#2B2961;}
	.st27{clip-path:url(#SVGID_00000048502672403804935830000003788209765375842720_);fill:#1D1D1B;}
	.st28{clip-path:url(#SVGID_00000048502672403804935830000003788209765375842720_);fill:#FFFFFF;}
	.st29{clip-path:url(#SVGID_00000116216551973837994400000015651096396973958293_);fill:#2B2961;}
	.st30{clip-path:url(#SVGID_00000069377603532342581020000005606746006271701659_);fill:#2B2961;}
	.st31{clip-path:url(#SVGID_00000069377603532342581020000005606746006271701659_);fill:#FFFFFF;}
	.st32{clip-path:url(#SVGID_00000182486591392320831720000001085739364902894979_);fill:#2B2961;}
	.st33{clip-path:url(#SVGID_00000183220500621795860950000017881404032549176497_);fill:#2B2961;}
	.st34{clip-path:url(#SVGID_00000183220500621795860950000017881404032549176497_);fill:#6EC3BF;}
	.st35{clip-path:url(#SVGID_00000146460797784224967610000010522860619348474797_);fill:#2B2961;}
	.st36{clip-path:url(#SVGID_00000038410843698236040740000012013076174752404401_);fill:#2B2961;}
	.st37{clip-path:url(#SVGID_00000075129510142360600210000009047716561181351612_);fill:#2B2961;}
	.st38{clip-path:url(#SVGID_00000146488704446929494010000013455358348956818057_);fill:#2B2961;}
	.st39{clip-path:url(#SVGID_00000031184082505708291290000008198007753801372813_);fill:#6EC3BF;}
	.st40{clip-path:url(#SVGID_00000170957935354474663140000000959558137377617552_);fill:#6EC3BF;}
	.st41{clip-path:url(#SVGID_00000052067331017688628280000001843024563644034223_);fill:#6EC3BF;}
	.st42{clip-path:url(#SVGID_00000073707824900408159000000009437811387438222007_);fill:#6EC3BF;}
	.st43{clip-path:url(#SVGID_00000125574975815338380510000002961771006145147549_);fill:#2B2961;}
	.st44{clip-path:url(#SVGID_00000111187657180016116920000008049809508503430820_);fill:#2B2961;}
	.st45{clip-path:url(#SVGID_00000098932369703882717220000008203921224187264138_);fill:#2B2961;}
	.st46{clip-path:url(#SVGID_00000175303967466881300280000011856674036749955509_);fill:#2B2961;}
	.st47{clip-path:url(#SVGID_00000175303967466881300280000011856674036749955509_);fill:#FFFFFF;}
	.st48{clip-path:url(#SVGID_00000002369142848070718110000009674680231940685197_);fill:#FFFFFF;}
	.st49{clip-path:url(#SVGID_00000037662297747760481230000016169232754289436335_);fill:#2B2961;}
	.st50{clip-path:url(#SVGID_00000154404280237741867550000006234451395921681312_);fill:#2B2961;}
	.st51{clip-path:url(#SVGID_00000154404280237741867550000006234451395921681312_);fill:#FFFFFF;}
	.st52{clip-path:url(#SVGID_00000067916927250721829830000005016354899665476230_);fill:#2B2961;}
	.st53{clip-path:url(#SVGID_00000067916927250721829830000005016354899665476230_);fill:#2C265F;}
	.st54{clip-path:url(#SVGID_00000067931331936312113010000016549994436434429873_);fill:#FFFFFF;}
	.st55{clip-path:url(#SVGID_00000181793276011531825700000004898934640981092253_);fill:#2B2961;}
	.st56{clip-path:url(#SVGID_00000166653295163266159450000003714816926361534396_);fill:#FFFFFF;}
	.st57{clip-path:url(#SVGID_00000003819796522527885220000013466262469633605781_);fill:#2B2961;}
	.st58{clip-path:url(#SVGID_00000036218530726855487080000005053848034635925915_);fill:#FFFFFF;}
	.st59{clip-path:url(#SVGID_00000103240378311722084190000014712903745233104048_);fill:#2B2961;}
	.st60{clip-path:url(#SVGID_00000103240378311722084190000014712903745233104048_);fill:#FFFFFF;}
	.st61{clip-path:url(#SVGID_00000139262311782903388300000013610071696359070395_);fill:#2B2961;}
	.st62{clip-path:url(#SVGID_00000155825690700960384410000009657649635557233846_);fill:#FFFFFF;}
	.st63{clip-path:url(#SVGID_00000038382259920746846650000017395931438452790712_);fill:#2B2961;}
	.st64{clip-path:url(#SVGID_00000144338286948887247160000004730036090222426248_);fill:#FFFFFF;}
	.st65{clip-path:url(#SVGID_00000144338286948887247160000004730036090222426248_);fill:#2B2961;}
	.st66{clip-path:url(#SVGID_00000026129069984663697490000004776824303157677967_);fill:#2B2961;}
	.st67{clip-path:url(#SVGID_00000026129069984663697490000004776824303157677967_);fill:#6EC3BF;}
	.st68{clip-path:url(#SVGID_00000026129069984663697490000004776824303157677967_);fill:#FFFFFF;}
	.st69{clip-path:url(#SVGID_00000145020997729142755330000002597155438213536424_);fill:#2B2961;}
	.st70{clip-path:url(#SVGID_00000015334740974929701880000011481322645097402260_);fill:#2B2961;}
	.st71{clip-path:url(#SVGID_00000079470524475490711550000006634922873221895330_);fill:#2B2961;}
	.st72{clip-path:url(#SVGID_00000031907667292307652320000006107728908181903764_);fill:#2B2961;}
	.st73{clip-path:url(#SVGID_00000101096585318336556510000004486928835733988767_);fill:#2B2961;}
	.st74{clip-path:url(#SVGID_00000036954564711801097370000004752732783732439976_);fill:#FFFFFF;}
	.st75{clip-path:url(#SVGID_00000036954564711801097370000004752732783732439976_);fill:#6EC3BF;}
	.st76{clip-path:url(#SVGID_00000165236038187885079130000000780544052516130948_);fill:#2B2961;}
	.st77{clip-path:url(#SVGID_00000138531304397102958730000011509043249093567362_);fill:#2B2961;}
	.st78{clip-path:url(#SVGID_00000138531304397102958730000011509043249093567362_);fill:#FFFFFF;}
	.st79{clip-path:url(#SVGID_00000039105645147167177890000002074386227360094348_);fill:#2B2961;}
	.st80{clip-path:url(#SVGID_00000118359262685372050010000010235170096810581170_);fill:#FFFFFF;}
	.st81{clip-path:url(#SVGID_00000065066022093028460820000003779822284382402490_);fill:#2B2961;}
	.st82{clip-path:url(#SVGID_00000103227497685217762940000015668072417350209674_);fill:#2B2961;}
	.st83{clip-path:url(#SVGID_00000100357872086570625140000009681643949793656707_);fill:#2B2961;}
	.st84{clip-path:url(#SVGID_00000165207530838060626770000016941126950934014143_);fill:#FFFFFF;}
	.st85{clip-path:url(#SVGID_00000162341455239415837820000013854526585379651217_);fill:#FFFFFF;}
	.st86{clip-path:url(#SVGID_00000115511894533752436330000010612632548315167364_);fill:#2B2961;}
	.st87{clip-path:url(#SVGID_00000008863315914339924800000004842841127600581784_);fill:#2B2961;}
	.st88{clip-path:url(#SVGID_00000008863315914339924800000004842841127600581784_);fill:#FFFFFF;}
	.st89{clip-path:url(#SVGID_00000152264357465959935420000004711262050515422085_);fill:#2B2961;}
	.st90{clip-path:url(#SVGID_00000083072828968427762340000015092317226230955960_);fill:#FFFFFF;}
	.st91{clip-path:url(#SVGID_00000080928763570897598150000006278190821862472886_);fill:#6EC3BF;}
	.st92{clip-path:url(#SVGID_00000080928763570897598150000006278190821862472886_);fill:#2B2961;}
	.st93{clip-path:url(#SVGID_00000071553335495421724080000016606528135340506291_);fill:#6EC3BF;}
	.st94{clip-path:url(#SVGID_00000065045441188233164480000010873040422614310314_);fill:#2B2961;}
	.st95{clip-path:url(#SVGID_00000114068156240055520550000009164339677357766322_);fill:#2B2961;}
	.st96{clip-path:url(#SVGID_00000182527909557952840400000009750600229335847847_);fill:#2B2961;}
	.st97{clip-path:url(#SVGID_00000003064406129254387440000002325032498056692882_);fill:#2B2961;}
	.st98{clip-path:url(#SVGID_00000155862280543124149850000006911379276375957422_);fill:#2B2961;}
	.st99{clip-path:url(#SVGID_00000155862280543124149850000006911379276375957422_);fill:#6EC3BF;}
	.st100{clip-path:url(#SVGID_00000067219091280464637870000001904337511542199941_);fill:#2B2961;}
	.st101{clip-path:url(#SVGID_00000134931225312594502810000008236996452885823154_);fill:#2B2961;}
	.st102{clip-path:url(#SVGID_00000134931225312594502810000008236996452885823154_);fill:#6EC3BF;}
	.st103{clip-path:url(#SVGID_00000026130682435037249640000005117575035720772743_);fill:#2B2961;}
	.st104{clip-path:url(#SVGID_00000039118979645469150140000006471457887682325130_);fill:#FFFFFF;}
	.st105{clip-path:url(#SVGID_00000039118979645469150140000006471457887682325130_);fill:#2B2961;}
	.st106{clip-path:url(#SVGID_00000082329241033558275710000009981198556847098765_);fill:#6EC3BF;}
	.st107{clip-path:url(#SVGID_00000166669894032202704180000006037704862640673677_);fill:#2B2961;}
	.st108{clip-path:url(#SVGID_00000098934870439552444250000016811165879702905520_);fill:#2B2961;}
	.st109{clip-path:url(#SVGID_00000098934870439552444250000016811165879702905520_);fill:#FFFFFF;}
	.st110{clip-path:url(#SVGID_00000067209610237950203350000009095720550782261429_);fill:#6EC3BF;}
	.st111{clip-path:url(#SVGID_00000172399742228999142930000007823623030818384550_);fill:#2B2961;}
	.st112{clip-path:url(#SVGID_00000110464483673207163260000005020642446513699980_);fill:#2B2961;}
	.st113{clip-path:url(#SVGID_00000110464483673207163260000005020642446513699980_);fill:#6EC3BF;}
	.st114{clip-path:url(#SVGID_00000083798290409883791080000002750607691371250601_);fill:#2B2961;}
	.st115{clip-path:url(#SVGID_00000139255147342911608320000004378035904273048752_);fill:#6EC3BF;}
	.st116{clip-path:url(#SVGID_00000139255147342911608320000004378035904273048752_);fill:#2B2961;}
	.st117{clip-path:url(#SVGID_00000070838381747936501210000016225322991635109514_);fill:#2B2961;}
	.st118{clip-path:url(#SVGID_00000089567001115749442840000011823552942275948963_);fill:#FFFFFF;}
	.st119{clip-path:url(#SVGID_00000089567001115749442840000011823552942275948963_);}
	.st120{clip-path:url(#SVGID_00000060008640040705189080000002748452755413647530_);fill:#2B2961;}
	.st121{clip-path:url(#SVGID_00000089567001115749442840000011823552942275948963_);fill:#6EC3BF;}
	.st122{clip-path:url(#SVGID_00000106115975337522602220000003125620895400164779_);fill:#2B2961;}
	.st123{clip-path:url(#SVGID_00000089567001115749442840000011823552942275948963_);fill:#2B2961;}
	.st124{clip-path:url(#SVGID_00000106105013857900934960000016764507919003521441_);fill:#2B2961;}
	.st125{clip-path:url(#SVGID_00000057135235171618855800000009100804567319348900_);fill:#2B2961;}
	.st126{clip-path:url(#SVGID_00000100350628698989514760000007964047528890602902_);}
	.st127{clip-path:url(#SVGID_00000063591951787825689920000008406917743916439972_);}
	.st128{clip-path:url(#SVGID_00000123401041285748014930000009833645829897805196_);fill:#FFFFFF;}
	.st129{clip-path:url(#SVGID_00000016034134410123766400000003139960286239889580_);fill:#2B2961;}
	.st130{clip-path:url(#SVGID_00000160904869753648242280000015059445061619975606_);fill:#2B2961;}
	.st131{clip-path:url(#SVGID_00000160904869753648242280000015059445061619975606_);fill:#6EC3BF;}
	.st132{clip-path:url(#SVGID_00000160904869753648242280000015059445061619975606_);fill:#FFFFFF;}
	.st133{clip-path:url(#SVGID_00000025423346969458347480000015968402769945659532_);fill:#2B2961;}
	.st134{clip-path:url(#SVGID_00000025423346969458347480000015968402769945659532_);fill:#6EC3BF;}
	.st135{clip-path:url(#SVGID_00000176736906935814053080000005848404623506637737_);fill:#2B2961;}
	.st136{clip-path:url(#SVGID_00000089563136889117428160000004903699029596462235_);fill:#6EC3BF;}
	.st137{clip-path:url(#SVGID_00000089563136889117428160000004903699029596462235_);fill:#FFFFFF;}
	.st138{clip-path:url(#SVGID_00000159456084692273002650000017663140118105398665_);fill:#2B2961;}
	.st139{clip-path:url(#SVGID_00000159456084692273002650000017663140118105398665_);fill:#6EC3BF;}
	.st140{clip-path:url(#SVGID_00000054234171759817410590000001628498095789806993_);fill:#2B2961;}
	.st141{clip-path:url(#SVGID_00000103946610806072030200000009532924837522562986_);fill:#2B2961;}
	.st142{clip-path:url(#SVGID_00000103946610806072030200000009532924837522562986_);fill:#FFFFFF;}
	.st143{clip-path:url(#SVGID_00000157295868609926820100000009059528535825090181_);fill:#2B2961;}
	.st144{clip-path:url(#SVGID_00000020390329804448245110000014868635899614954624_);fill:#FFFFFF;}
	.st145{clip-path:url(#SVGID_00000016050764054296168970000010536118713845781638_);fill:#2B2961;}
	.st146{clip-path:url(#SVGID_00000007398602710216648170000015288050607258371463_);fill:#2B2961;}
	.st147{clip-path:url(#SVGID_00000007398602710216648170000015288050607258371463_);fill:#FFFFFF;}
	.st148{clip-path:url(#SVGID_00000088827063988571679890000000855729403211360918_);fill:#2B2961;}
	.st149{clip-path:url(#SVGID_00000038374456041470473840000008658237279626000039_);fill:#2B2961;}
	.st150{clip-path:url(#SVGID_00000038374456041470473840000008658237279626000039_);fill:#FFFFFF;}
	.st151{clip-path:url(#SVGID_00000080165244627096817790000001523538004049809044_);fill:#2B2961;}
	.st152{clip-path:url(#SVGID_00000080165244627096817790000001523538004049809044_);fill:#6EC3BF;}
	.st153{clip-path:url(#SVGID_00000139980029030183843150000002504508423739021188_);fill:#1D1D1B;}
	.st154{clip-path:url(#SVGID_00000139980029030183843150000002504508423739021188_);fill:#2B2961;}
	.st155{clip-path:url(#SVGID_00000139980029030183843150000002504508423739021188_);fill:#FFFFFF;}
	.st156{clip-path:url(#SVGID_00000142178534269210368360000011114232568058827905_);fill:#2B2961;}
	.st157{clip-path:url(#SVGID_00000119115912990246886020000003000030609333024946_);fill:#2B2961;}
	.st158{clip-path:url(#SVGID_00000126282107385345168650000008423164663515311771_);fill:#2B2961;}
	.st159{clip-path:url(#SVGID_00000126282107385345168650000008423164663515311771_);fill:#FFFFFF;}
	.st160{clip-path:url(#SVGID_00000126282107385345168650000008423164663515311771_);fill:#6EC3BF;}
	.st161{clip-path:url(#SVGID_00000077284800729579854510000011168027517260880298_);fill:#2B2961;}
	.st162{clip-path:url(#SVGID_00000141417115411422664660000009258985276321185671_);fill:#2B2961;}
	.st163{clip-path:url(#SVGID_00000065061855296751403270000003685115095387140238_);fill:#2B2961;}
	.st164{clip-path:url(#SVGID_00000108303669254578072360000002298024800881440139_);fill:#2B2961;}
	.st165{clip-path:url(#SVGID_00000108303669254578072360000002298024800881440139_);fill:#FFFFFF;}
	.st166{clip-path:url(#SVGID_00000098221154624354192830000016718489758077063086_);fill:#2B2961;}
	.st167{clip-path:url(#SVGID_00000098221154624354192830000016718489758077063086_);fill:#FFFFFF;}
	.st168{clip-path:url(#SVGID_00000006689684999222829190000003417129222386216872_);fill:#2B2961;}
	.st169{clip-path:url(#SVGID_00000070838068427626810200000001804787566896436916_);fill:#2B2961;}
	.st170{clip-path:url(#SVGID_00000070838068427626810200000001804787566896436916_);fill:#FFFFFF;}
	.st171{clip-path:url(#SVGID_00000012431790256809970620000013181843101182703253_);fill:#2B2961;}
	.st172{clip-path:url(#SVGID_00000131362548169350991560000010822517471703259788_);fill:#FFFFFF;}
	.st173{clip-path:url(#SVGID_00000089564175211870495950000000488463214926001317_);fill:#2B2961;}
	.st174{clip-path:url(#SVGID_00000089564175211870495950000000488463214926001317_);fill:#6EC3BF;}
	.st175{clip-path:url(#SVGID_00000070814534983011913020000016043746291759413388_);fill:#2B2961;}
	.st176{clip-path:url(#SVGID_00000145040017946808492890000000755237798935401142_);fill:#2B2961;}
	.st177{clip-path:url(#SVGID_00000138542758195658497090000004020006750979985566_);fill:#FFFFFF;}
	.st178{clip-path:url(#SVGID_00000091724726943022673530000010715550963299135891_);fill:#6EC3BF;}
	.st179{clip-path:url(#SVGID_00000091724726943022673530000010715550963299135891_);fill:#2B2961;}
	.st180{clip-path:url(#SVGID_00000008871954122295829590000002795169744771007156_);fill:#6EC3BF;}
	.st181{clip-path:url(#SVGID_00000137832760380682497720000010673875476512916131_);fill:#2B2961;}
	.st182{clip-path:url(#SVGID_00000117667394413445572890000006166211762775056806_);fill:#6EC3BF;}
	.st183{clip-path:url(#SVGID_00000117667394413445572890000006166211762775056806_);fill:#2B2961;}
	.st184{clip-path:url(#SVGID_00000085955880190168814330000015170744971120911292_);fill:#2B2961;}
	.st185{clip-path:url(#SVGID_00000157272425220956108470000011650288365889625778_);fill:#2B2961;}
	.st186{clip-path:url(#SVGID_00000170279670994001709490000009844086332940243849_);fill:#2B2961;}
	.st187{clip-path:url(#SVGID_00000083777035942242518030000000387570198560697527_);fill:#2B2961;}
	.st188{clip-path:url(#SVGID_00000091737592147548736110000009907975948975190436_);fill:#2B2961;}
	.st189{clip-path:url(#SVGID_00000044161157561245277150000006392674329912711296_);fill:#6EC3BF;}
	.st190{clip-path:url(#SVGID_00000044161157561245277150000006392674329912711296_);fill:#2B2961;}
	.st191{clip-path:url(#SVGID_00000121265390219422170770000016721970622919992235_);fill:#6EC3BF;}
	.st192{clip-path:url(#SVGID_00000121265390219422170770000016721970622919992235_);fill:#2B2961;}
	.st193{clip-path:url(#SVGID_00000019676983356733163800000017554409063649930681_);fill:#2B2961;}
	.st194{clip-path:url(#SVGID_00000175306495770052466050000011237367840721555085_);fill:#2B2961;}
	.st195{clip-path:url(#SVGID_00000170243443160598580510000001234573217635049862_);fill:#2B2961;}
	.st196{clip-path:url(#SVGID_00000111152677503495255630000016568010575142491821_);fill:#FFFFFF;}
	.st197{clip-path:url(#SVGID_00000076577791674540446110000017515378288993441172_);fill:#2B2961;}
	.st198{clip-path:url(#SVGID_00000065786168510511336890000015180930946911236246_);fill:#2B2961;}
	.st199{clip-path:url(#SVGID_00000065786168510511336890000015180930946911236246_);fill:#6EC3BF;}
	.st200{clip-path:url(#SVGID_00000116941337379098161160000005615632923657984144_);fill:#2B2961;}
	.st201{clip-path:url(#SVGID_00000072240843438256259940000017859651854650672798_);fill:#2B2961;}
	.st202{clip-path:url(#SVGID_00000085215993496712057070000014700141701632347576_);fill:#6EC3BF;}
	.st203{clip-path:url(#SVGID_00000085215993496712057070000014700141701632347576_);fill:#2B2961;}
	.st204{clip-path:url(#SVGID_00000091701282306543226400000015516836891966620556_);fill:#6EC3BF;}
	.st205{clip-path:url(#SVGID_00000091701282306543226400000015516836891966620556_);fill:#2B2961;}
	.st206{clip-path:url(#SVGID_00000165205678003335832220000014211843619589655228_);fill:#2B2961;}
	.st207{clip-path:url(#SVGID_00000080925886654841633850000015431998724058418820_);fill:#2B2961;}
	.st208{clip-path:url(#SVGID_00000080925886654841633850000015431998724058418820_);fill:#6EC3BF;}
	.st209{clip-path:url(#SVGID_00000068661795140067268750000007610141949110346640_);fill:#2B2961;}
	.st210{clip-path:url(#SVGID_00000068661795140067268750000007610141949110346640_);fill:#6EC3BF;}
	.st211{clip-path:url(#SVGID_00000153676284016837265550000008754843776184771229_);fill:#2B2961;}
	.st212{clip-path:url(#SVGID_00000153676284016837265550000008754843776184771229_);fill:#6EC3BF;}
	.st213{clip-path:url(#SVGID_00000102513249528543031250000010525201078342552479_);fill:#2B2961;}
	.st214{clip-path:url(#SVGID_00000109018662007590638290000002732418972140139157_);fill:#6EC3BF;}
	.st215{clip-path:url(#SVGID_00000109018662007590638290000002732418972140139157_);fill:#2B2961;}
	.st216{clip-path:url(#SVGID_00000096038160438842525100000005290892236482299290_);fill:#6EC3BF;}
	.st217{clip-path:url(#SVGID_00000096038160438842525100000005290892236482299290_);fill:#2B2961;}
	.st218{clip-path:url(#SVGID_00000045586919038821516490000011978304921760438713_);fill:#FFFFFF;}
	.st219{clip-path:url(#SVGID_00000045586919038821516490000011978304921760438713_);fill:#2B2961;}
	.st220{clip-path:url(#SVGID_00000111899984593509229530000006907153902421934221_);fill:#FFFFFF;}
	.st221{clip-path:url(#SVGID_00000111899984593509229530000006907153902421934221_);fill:#2B2961;}
	.st222{clip-path:url(#SVGID_00000017482055039398200980000008422982156069809311_);fill:#FFFFFF;}
	.st223{clip-path:url(#SVGID_00000017482055039398200980000008422982156069809311_);fill:#2B2961;}
	.st224{clip-path:url(#SVGID_00000005254294187369776780000001981334727520516758_);fill:#6EC3BF;}
	.st225{clip-path:url(#SVGID_00000005254294187369776780000001981334727520516758_);fill:#2B2961;}
	.st226{clip-path:url(#SVGID_00000024720514449650691550000009341253872839353016_);fill:#2B2961;}
	.st227{clip-path:url(#SVGID_00000024720514449650691550000009341253872839353016_);fill:#6EC3BF;}
	.st228{clip-path:url(#SVGID_00000030469861340127510140000017011538594233568425_);fill:#2B2961;}
	.st229{clip-path:url(#SVGID_00000000930298835337136820000002382565403574066085_);fill:#6EC3BF;}
	.st230{clip-path:url(#SVGID_00000000930298835337136820000002382565403574066085_);fill:#2B2961;}
	.st231{clip-path:url(#SVGID_00000045582315051797605390000015719119919825880481_);fill:#2B2961;}
	.st232{clip-path:url(#SVGID_00000127042544617547541710000005543810854309993602_);fill:#2B2961;}
	.st233{clip-path:url(#SVGID_00000127042544617547541710000005543810854309993602_);fill:#6EC3BF;}
	.st234{clip-path:url(#SVGID_00000046319960826290042860000006662737925423153326_);fill:#2B2961;}
	.st235{clip-path:url(#SVGID_00000030483171149678158960000001358422610466452925_);fill:#FFFFFF;}
	.st236{clip-path:url(#SVGID_00000030483171149678158960000001358422610466452925_);fill:#2B2961;}
	.st237{fill:#2C265F;}
	.st238{clip-path:url(#SVGID_00000035527813474530516540000004869293006630113206_);fill:#2B2961;}
	.st239{clip-path:url(#SVGID_00000035527813474530516540000004869293006630113206_);fill:#6EC3BF;}
	.st240{fill:#61B87A;}
	.st241{clip-path:url(#SVGID_00000103247858437448193270000000958384943528991110_);fill:#2B2961;}
	.st242{clip-path:url(#SVGID_00000106859795017081203230000017770388760566583453_);fill:#2B2961;}
	.st243{clip-path:url(#SVGID_00000161597286098148880650000016765421039031679913_);fill:#2B2961;}
	.st244{clip-path:url(#SVGID_00000180353513369603232560000008573741109041633159_);fill:#2B2961;}
	.st245{clip-path:url(#SVGID_00000180353513369603232560000008573741109041633159_);fill:#61B87A;}
	.st246{clip-path:url(#SVGID_00000180353513369603232560000008573741109041633159_);fill:#FFFFFF;}
	.st247{clip-path:url(#SVGID_00000121960507033673997630000007820812572372510374_);fill:#2B2961;}
	.st248{clip-path:url(#SVGID_00000121960507033673997630000007820812572372510374_);fill:#61B87A;}
	.st249{clip-path:url(#SVGID_00000143615294533550897920000015463335677621876893_);fill:#2B2961;}
	.st250{clip-path:url(#SVGID_00000013169543271049059880000005698979448370522260_);fill:#6EC3BF;}
	.st251{clip-path:url(#SVGID_00000013169543271049059880000005698979448370522260_);fill:#2B2961;}
	.st252{clip-path:url(#SVGID_00000107557788033103532650000018294278233951046534_);fill:#2B2961;}
	.st253{clip-path:url(#SVGID_00000107557788033103532650000018294278233951046534_);fill:#6EC3BF;}
	.st254{clip-path:url(#SVGID_00000154414542668791556100000016461774367626711483_);fill:#2B2961;}
	.st255{clip-path:url(#SVGID_00000154414542668791556100000016461774367626711483_);fill:#6EC3BF;}
</style>
<g>
	<g>
		<defs>
			<rect id="SVGID_00000035490600000812262500000004163979721360839357_" y="32.87" width="512" height="446.27"/>
		</defs>
		<clipPath id="SVGID_00000080189317302088030460000002834479927830301627_">
			<use xlink:href="#SVGID_00000035490600000812262500000004163979721360839357_"  style="overflow:visible;"/>
		</clipPath>
		<path style="clip-path:url(#SVGID_00000080189317302088030460000002834479927830301627_);fill:#6EC3BF;" d="M460.84,205
			c10.39,0,20.03,1.94,28.05,7.45v-35.72l-2.92,4.04c-4.58,9.45-14.1,15.97-25.13,15.97c-11.03,0-18.82-4.58-23.4-14.03l-1.94-1.94
			v31.26C442.95,207.58,451.58,205,460.84,205"/>
		<path style="clip-path:url(#SVGID_00000080189317302088030460000002834479927830301627_);fill:#6EC3BF;" d="M488.88,213.35
			c-0.18,0-0.36-0.05-0.51-0.16c-7.14-4.91-16.15-7.29-27.54-7.29c-8.71,0-17.31,2.39-24.87,6.9c-0.28,0.16-0.63,0.17-0.91,0.01
			c-0.28-0.16-0.46-0.46-0.46-0.78v-31.26c0-0.36,0.22-0.69,0.56-0.83c0.34-0.15,0.72-0.07,0.98,0.2l1.94,1.94
			c0.07,0.07,0.13,0.15,0.17,0.24c4.41,9.1,11.8,13.52,22.59,13.52c10.38,0,19.7-5.93,24.32-15.46l3-4.18
			c0.22-0.31,0.64-0.44,1.01-0.33c0.37,0.12,0.63,0.47,0.63,0.86v35.72c0,0.34-0.19,0.64-0.48,0.8
			C489.17,213.31,489.03,213.35,488.88,213.35z M460.84,204.09c11.03,0,19.93,2.19,27.14,6.68v-31.26l-1.28,1.77
			c-4.84,10.03-14.79,16.34-25.86,16.34c-11.34,0-19.46-4.85-24.14-14.4l-0.29-0.29v27.52
			C443.91,206.29,452.32,204.09,460.84,204.09z"/>
		<path style="clip-path:url(#SVGID_00000080189317302088030460000002834479927830301627_);fill:#2B2961;" d="M487.76,216.06
			c-0.42,0-0.84-0.12-1.2-0.37c-8.15-5.52-18.74-8.94-27.65-8.94c-9.25,0-17.62,2.63-25.59,8.03c-0.66,0.45-1.5,0.5-2.22,0.12
			c-0.7-0.37-1.14-1.11-1.14-1.9v-43.95h4.3v40.06c7.66-4.43,15.93-6.66,24.65-6.66c8.67,0,18.4,2.79,26.71,7.58v-41.52h4.3v45.4
			c0,0.79-0.44,1.53-1.14,1.9C488.46,215.98,488.11,216.06,487.76,216.06z"/>
		<path style="clip-path:url(#SVGID_00000080189317302088030460000002834479927830301627_);fill:#2B2961;" d="M488.53,476.88
			c-1.19,0-2.15-0.96-2.15-2.15V439.8c0-1.19,0.96-2.15,2.15-2.15s2.15,0.96,2.15,2.15v34.93
			C490.68,475.92,489.72,476.88,488.53,476.88z M431.35,476.88c-1.19,0-2.15-0.96-2.15-2.15V439.8c0-1.19,0.96-2.15,2.15-2.15
			s2.15,0.96,2.15,2.15v34.93C433.5,475.92,432.53,476.88,431.35,476.88z"/>
	</g>
	<path class="st6" d="M488.51,306.3c-1.38,0-2.49-1.12-2.49-2.49v-47.16c0-1.38,1.12-2.49,2.49-2.49s2.49,1.12,2.49,2.49v47.16
		C491,305.19,489.88,306.3,488.51,306.3z"/>
	<g>
		<defs>
			<rect id="SVGID_00000062886544086881917200000008306664262854571172_" y="32.87" width="512" height="446.27"/>
		</defs>
		<clipPath id="SVGID_00000037654743539157440840000012011138382959961791_">
			<use xlink:href="#SVGID_00000062886544086881917200000008306664262854571172_"  style="overflow:visible;"/>
		</clipPath>
		<path style="clip-path:url(#SVGID_00000037654743539157440840000012011138382959961791_);fill:#2B2961;" d="M509.51,439.42h-99.49
			c-1.19,0-2.15-0.96-2.15-2.15V257.92c0-29.47,23.76-54.53,51.88-54.71c0.11,0,0.21,0,0.32,0c12.82,0,25.24,5.3,35.01,14.94
			c10.67,10.54,16.84,25.04,16.91,39.76c0,0,0,0.01,0,0.01l-0.34,179.36C511.66,438.46,510.7,439.42,509.51,439.42z M412.18,435.12
			h95.19l0.33-177.2c-0.08-13.59-5.77-26.98-15.64-36.72c-8.95-8.84-20.3-13.7-31.99-13.7c-0.09,0-0.19,0-0.29,0
			c-25.81,0.17-47.61,23.26-47.61,50.42V435.12z"/>
		<path style="clip-path:url(#SVGID_00000037654743539157440840000012011138382959961791_);fill:#6EC3BF;" d="M488.12,160.45
			c-3.26-10.54-13.22-18.21-25.01-18.21c-11.79,0-21.75,7.67-25.01,18.21H488.12z"/>
		<path style="clip-path:url(#SVGID_00000037654743539157440840000012011138382959961791_);fill:#6EC3BF;" d="M488.12,161.35H438.1
			c-0.29,0-0.56-0.14-0.73-0.37c-0.17-0.23-0.22-0.53-0.13-0.8c3.49-11.27,13.88-18.84,25.87-18.84c11.99,0,22.38,7.57,25.87,18.84
			c0.08,0.27,0.03,0.57-0.14,0.8C488.67,161.22,488.4,161.35,488.12,161.35z M439.36,159.55h47.5c-3.59-9.86-12.98-16.4-23.75-16.4
			C452.34,143.15,442.95,149.69,439.36,159.55z"/>
		<path style="clip-path:url(#SVGID_00000037654743539157440840000012011138382959961791_);fill:#2B2961;" d="M459.94,197.7
			c-16.53,0-29.97-13.45-29.97-29.98c0-16.53,13.45-29.97,29.97-29.97c16.53,0,29.98,13.45,29.98,29.97
			C489.91,184.25,476.47,197.7,459.94,197.7z M459.94,142.05c-14.16,0-25.67,11.52-25.67,25.67c0,14.16,11.52,25.68,25.67,25.68
			c14.16,0,25.68-11.52,25.68-25.68C485.62,153.57,474.1,142.05,459.94,142.05z"/>
	</g>
	<rect x="432.98" y="159.59" class="st6" width="53.92" height="2.87"/>
	<g>
		<defs>
			<rect id="SVGID_00000022528217117155668760000017880780943307341468_" y="32.87" width="512" height="446.27"/>
		</defs>
		<clipPath id="SVGID_00000005239256098298996990000003493822411343003019_">
			<use xlink:href="#SVGID_00000022528217117155668760000017880780943307341468_"  style="overflow:visible;"/>
		</clipPath>
		<path style="clip-path:url(#SVGID_00000005239256098298996990000003493822411343003019_);fill:#2B2961;" d="M442.02,169.41
			c0,0.84-0.68,1.51-1.51,1.51c-0.84,0-1.52-0.67-1.52-1.51c0-0.84,0.68-1.51,1.52-1.51C441.33,167.9,442.02,168.58,442.02,169.41"
			/>
		<path style="clip-path:url(#SVGID_00000005239256098298996990000003493822411343003019_);fill:#2B2961;" d="M462.56,169.41
			c0,0.84-0.68,1.51-1.51,1.51c-0.84,0-1.52-0.67-1.52-1.51c0-0.84,0.68-1.51,1.52-1.51C461.88,167.9,462.56,168.58,462.56,169.41"
			/>
	</g>
	<polygon class="st3" points="407.41,82.67 407.41,121.14 407.41,136.41 417.02,169.41 383.32,153.72 336.36,153.72 336.36,82.67 	
		"/>
	<polygon class="st0" points="403.83,84.92 403.83,123.17 403.83,138.35 413.37,171.16 379.9,155.56 336.97,155.56 336.97,84.92 	
		"/>
	<path class="st0" d="M413.37,172.06c-0.13,0-0.26-0.03-0.38-0.08l-33.29-15.52h-42.73c-0.5,0-0.9-0.4-0.9-0.9V84.92
		c0-0.5,0.4-0.9,0.9-0.9h66.86c0.5,0,0.9,0.4,0.9,0.9v53.3l9.51,32.69c0.1,0.34-0.01,0.71-0.28,0.94
		C413.79,171.99,413.58,172.06,413.37,172.06z M337.87,154.65h42.02c0.13,0,0.26,0.03,0.38,0.08l31.67,14.76l-8.98-30.9
		c-0.02-0.08-0.04-0.17-0.04-0.25V85.82h-65.05V154.65z"/>
	<path class="st6" d="M418.04,174.97c-0.23,0-0.47-0.05-0.68-0.15l-32.99-15.38H338.3c-0.89,0-1.62-0.72-1.62-1.62V87.52
		c0-0.89,0.72-1.62,1.62-1.62h70.25c0.89,0,1.62,0.72,1.62,1.62v52.95l9.42,32.43c0.18,0.61-0.02,1.27-0.5,1.68
		C418.79,174.84,418.42,174.97,418.04,174.97z M339.92,156.21h44.81c0.23,0,0.47,0.05,0.68,0.15l30.08,14.03L407,141.15
		c-0.05-0.15-0.07-0.3-0.07-0.45V89.13h-67.02V156.21z"/>
	<path class="st6" d="M392.37,139.88h-40.77c-0.59,0-1.08-0.48-1.08-1.08s0.48-1.08,1.08-1.08h40.77c0.59,0,1.08,0.48,1.08,1.08
		S392.97,139.88,392.37,139.88z M392.37,129.93h-40.77c-0.59,0-1.08-0.48-1.08-1.08c0-0.59,0.48-1.08,1.08-1.08h40.77
		c0.59,0,1.08,0.48,1.08,1.08C393.45,129.44,392.97,129.93,392.37,129.93z M392.37,119.98h-40.77c-0.59,0-1.08-0.48-1.08-1.08
		s0.48-1.08,1.08-1.08h40.77c0.59,0,1.08,0.48,1.08,1.08S392.97,119.98,392.37,119.98z M392.37,110.04h-40.77
		c-0.59,0-1.08-0.48-1.08-1.08c0-0.59,0.48-1.08,1.08-1.08h40.77c0.59,0,1.08,0.48,1.08,1.08
		C393.45,109.56,392.97,110.04,392.37,110.04z M392.37,100.09h-40.77c-0.59,0-1.08-0.48-1.08-1.08s0.48-1.08,1.08-1.08h40.77
		c0.59,0,1.08,0.48,1.08,1.08S392.97,100.09,392.37,100.09z"/>
	<path class="st6" d="M458.97,438.02c-0.79,0-1.43-0.64-1.43-1.43V206.2c0-0.79,0.64-1.43,1.43-1.43c0.79,0,1.43,0.64,1.43,1.43
		v230.38C460.41,437.38,459.76,438.02,458.97,438.02z"/>
	<path class="st6" d="M430.31,306.3c-1.38,0-2.49-1.12-2.49-2.49v-47.16c0-1.38,1.12-2.49,2.49-2.49s2.49,1.12,2.49,2.49v47.16
		C432.8,305.19,431.68,306.3,430.31,306.3z"/>
	<polygon class="st3" points="208.05,55.85 208.05,104.21 208.05,123.41 195.98,164.89 238.34,145.16 297.37,145.16 297.37,55.85 	
		"/>
	<polygon class="st0" points="212.37,58.43 212.37,106.74 212.37,125.91 200.31,167.34 242.61,147.63 296.86,147.63 296.86,58.43 	
		"/>
	<path class="st0" d="M200.31,168.02c-0.16,0-0.31-0.06-0.44-0.16c-0.2-0.17-0.28-0.44-0.21-0.7l12.03-41.34V58.43
		c0-0.37,0.3-0.68,0.68-0.68h84.49c0.37,0,0.68,0.3,0.68,0.68v89.2c0,0.37-0.3,0.68-0.68,0.68h-54.09l-42.17,19.65
		C200.5,168,200.41,168.02,200.31,168.02z M213.04,59.1v66.81c0,0.06-0.01,0.13-0.03,0.19l-11.64,40.01l40.96-19.08
		c0.09-0.04,0.19-0.07,0.28-0.07h53.57V59.1H213.04z"/>
	<path class="st6" d="M196.14,166.36c-0.38,0-0.75-0.13-1.05-0.39c-0.48-0.41-0.68-1.07-0.5-1.68l11.97-41.15V56.01
		c0-0.89,0.72-1.62,1.62-1.62h89.04c0.89,0,1.62,0.72,1.62,1.62v89.05c0,0.89-0.72,1.62-1.62,1.62h-58.49l-41.91,19.53
		C196.6,166.31,196.37,166.36,196.14,166.36z M209.79,57.62v65.75c0,0.15-0.02,0.3-0.07,0.45l-11.04,37.95l39-18.18
		c0.21-0.1,0.45-0.15,0.68-0.15h57.23V57.62H209.79z"/>
	<polygon class="st3" points="1.71,34.58 1.71,138.9 70.65,138.9 120.13,161.94 106.03,113.49 106.03,91.06 106.03,34.58 	"/>
	<polygon class="st0" points="2.19,37.47 2.19,141.86 65.68,141.86 115.18,164.92 101.08,116.43 101.08,94 101.08,37.47 	"/>
	<g>
		<defs>
			<rect id="SVGID_00000085230145791339771170000000943820068699474337_" y="32.87" width="512" height="446.27"/>
		</defs>
		<clipPath id="SVGID_00000113337362431339033440000018025317357709199242_">
			<use xlink:href="#SVGID_00000085230145791339771170000000943820068699474337_"  style="overflow:visible;"/>
		</clipPath>
		<path style="clip-path:url(#SVGID_00000113337362431339033440000018025317357709199242_);fill:#6EC3BF;" d="M115.18,165.59
			c-0.1,0-0.19-0.02-0.28-0.06l-49.37-22.99H2.2c-0.37,0-0.68-0.3-0.68-0.68V37.47c0-0.37,0.3-0.68,0.68-0.68h98.88
			c0.37,0,0.68,0.3,0.68,0.68v78.86l14.08,48.39c0.07,0.26-0.01,0.53-0.21,0.7C115.5,165.54,115.34,165.59,115.18,165.59z
			 M2.87,141.19h62.81c0.1,0,0.2,0.02,0.28,0.06l48.16,22.43l-13.69-47.06c-0.02-0.06-0.03-0.13-0.03-0.19V38.15H2.87V141.19z"/>
		<path style="clip-path:url(#SVGID_00000113337362431339033440000018025317357709199242_);fill:#2B2961;" d="M120.22,163.65
			c-0.23,0-0.47-0.05-0.68-0.15l-49.22-22.93H1.62c-0.89,0-1.62-0.72-1.62-1.62V34.49c0-0.89,0.72-1.62,1.62-1.62H106.1
			c0.89,0,1.62,0.72,1.62,1.62v78.79l14.05,48.31c0.18,0.61-0.02,1.27-0.5,1.68C120.97,163.52,120.6,163.65,120.22,163.65z
			 M3.23,137.34h67.44c0.23,0,0.47,0.05,0.68,0.15l46.32,21.58l-13.12-45.11c-0.05-0.15-0.07-0.3-0.07-0.45V36.1H3.23V137.34z"/>
	</g>
	<rect x="115.28" y="357.49" class="st0" width="83.82" height="86.01"/>
	<path class="st0" d="M199.1,444.39h-83.82c-0.49,0-0.9-0.4-0.9-0.9v-86.01c0-0.49,0.4-0.9,0.9-0.9h83.82c0.49,0,0.9,0.4,0.9,0.9
		v86.01C199.99,443.99,199.59,444.39,199.1,444.39z M116.18,442.6h82.02v-84.22h-82.02V442.6z"/>
	<rect x="108.51" y="355.19" class="st6" width="92.22" height="2.87"/>
	<g>
		<defs>
			<rect id="SVGID_00000047780280235716269700000012079839209214148523_" y="32.87" width="512" height="446.27"/>
		</defs>
		<clipPath id="SVGID_00000011736748531125172530000002314639720925489039_">
			<use xlink:href="#SVGID_00000047780280235716269700000012079839209214148523_"  style="overflow:visible;"/>
		</clipPath>
		<path style="clip-path:url(#SVGID_00000011736748531125172530000002314639720925489039_);fill:#2B2961;" d="M180.15,479.13
			c-1.19,0-2.15-0.96-2.15-2.15v-31.69c0-1.19,0.96-2.15,2.15-2.15c1.19,0,2.15,0.96,2.15,2.15v31.69
			C182.3,478.17,181.34,479.13,180.15,479.13z M128.04,479.13c-1.19,0-2.15-0.96-2.15-2.15v-31.69c0-1.19,0.96-2.15,2.15-2.15
			c1.19,0,2.15,0.96,2.15,2.15v31.69C130.19,478.17,129.23,479.13,128.04,479.13z"/>
	</g>
	<path class="st6" d="M180.03,322.65c-1.38,0-2.49-1.12-2.49-2.49v-42.85c0-1.38,1.12-2.49,2.49-2.49s2.49,1.12,2.49,2.49v42.85
		C182.52,321.53,181.41,322.65,180.03,322.65z M128.16,322.65c-1.38,0-2.49-1.12-2.49-2.49v-42.85c0-1.38,1.12-2.49,2.49-2.49
		s2.49,1.12,2.49,2.49v42.85C130.65,321.53,129.53,322.65,128.16,322.65z"/>
	<g>
		<defs>
			<rect id="SVGID_00000051363470600238128590000007823386592836849572_" y="32.87" width="512" height="446.27"/>
		</defs>
		<clipPath id="SVGID_00000125602559431596230740000015879069524884516528_">
			<use xlink:href="#SVGID_00000051363470600238128590000007823386592836849572_"  style="overflow:visible;"/>
		</clipPath>
		<path style="clip-path:url(#SVGID_00000125602559431596230740000015879069524884516528_);fill:#2B2961;" d="M199.4,444.77h-90.91
			c-1.19,0-2.15-0.96-2.15-2.15V278.36c0-27.08,21.79-50.12,47.59-50.29c0.1,0,0.2,0,0.29,0c11.75,0,23.13,4.86,32.08,13.7
			c9.81,9.69,15.48,23.02,15.55,36.58c0,0,0,0.01,0,0.01l-0.31,164.26C201.54,443.81,200.58,444.77,199.4,444.77z M110.63,440.47
			h86.62l0.3-162.12c-0.07-12.42-5.27-24.64-14.28-33.53c-8.14-8.04-18.45-12.46-29.06-12.46c-0.09,0-0.18,0-0.27,0
			c-23.48,0.16-43.32,21.22-43.32,45.99V440.47z"/>
		<path style="clip-path:url(#SVGID_00000125602559431596230740000015879069524884516528_);fill:#6EC3BF;" d="M179.87,188.78
			c-2.98-9.58-12.09-16.56-22.87-16.56s-19.88,6.97-22.87,16.56H179.87z"/>
		<path style="clip-path:url(#SVGID_00000125602559431596230740000015879069524884516528_);fill:#6EC3BF;" d="M179.87,189.67h-45.74
			c-0.28,0-0.55-0.14-0.72-0.36c-0.17-0.23-0.22-0.52-0.13-0.8c3.21-10.28,12.74-17.19,23.72-17.19c10.99,0,20.53,6.91,23.72,17.19
			c0.09,0.27,0.03,0.57-0.13,0.8C180.42,189.53,180.15,189.67,179.87,189.67z M135.38,187.88h43.24
			c-3.3-8.88-11.84-14.77-21.62-14.77C147.22,173.11,138.69,179,135.38,187.88z"/>
		<path style="clip-path:url(#SVGID_00000125602559431596230740000015879069524884516528_);fill:#2B2961;" d="M154.09,223.02
			c-15.16,0-27.5-12.34-27.5-27.5c0-15.16,12.34-27.5,27.5-27.5c15.16,0,27.5,12.34,27.5,27.5
			C181.59,210.68,169.26,223.02,154.09,223.02z M154.09,172.32c-12.8,0-23.2,10.41-23.2,23.2s10.41,23.2,23.2,23.2
			c12.79,0,23.2-10.41,23.2-23.2S166.89,172.32,154.09,172.32z"/>
	</g>
	<rect x="129.36" y="187.94" class="st6" width="49.47" height="2.87"/>
	<g>
		<defs>
			<rect id="SVGID_00000083791094564694683200000000396529494592614073_" y="32.87" width="512" height="446.27"/>
		</defs>
		<clipPath id="SVGID_00000143592293046586161190000003890764871762005653_">
			<use xlink:href="#SVGID_00000083791094564694683200000000396529494592614073_"  style="overflow:visible;"/>
		</clipPath>
		<path style="clip-path:url(#SVGID_00000143592293046586161190000003890764871762005653_);fill:#2B2961;" d="M152.75,200.8
			c0,0.77-0.62,1.39-1.39,1.39s-1.39-0.62-1.39-1.39s0.62-1.39,1.39-1.39S152.75,200.03,152.75,200.8"/>
		<path style="clip-path:url(#SVGID_00000143592293046586161190000003890764871762005653_);fill:#2B2961;" d="M171.61,200.8
			c0,0.77-0.62,1.39-1.39,1.39s-1.39-0.62-1.39-1.39s0.62-1.39,1.39-1.39S171.61,200.03,171.61,200.8"/>
	</g>
	<path class="st6" d="M153.71,444.75c-0.79,0-1.43-0.64-1.43-1.43v-72.35c0-0.79,0.64-1.43,1.43-1.43s1.43,0.64,1.43,1.43v72.35
		C155.14,444.11,154.5,444.75,153.71,444.75z"/>
	<g>
		<defs>
			<rect id="SVGID_00000129915844586771031460000005148817448881196684_" y="32.87" width="512" height="446.27"/>
		</defs>
		<clipPath id="SVGID_00000126300167922725218300000002607918779278959515_">
			<use xlink:href="#SVGID_00000129915844586771031460000005148817448881196684_"  style="overflow:visible;"/>
		</clipPath>
		<path style="clip-path:url(#SVGID_00000126300167922725218300000002607918779278959515_);fill:#FFFFFF;" d="M244.95,120.88
			c0,2.73,2.23,4.96,4.96,4.96c2.66,0,4.97-2.23,4.97-4.96s-2.31-4.96-4.97-4.96C247.18,115.93,244.95,118.15,244.95,120.88
			 M249.77,111.82c2.16,0,3.96-1.44,3.96-3.96v-0.44c0-1.66,0.43-2.59,1.88-4.31l4.31-5.11c2.81-3.32,3.96-6.19,3.96-9.94
			c0-7.2-5.32-12.59-13.53-12.59c-7.19,0-11.94,3.73-13.6,9.06c-0.22,0.65-0.29,1.37-0.29,1.88c0,2.09,1.58,3.53,3.75,3.53
			c1.58,0,2.95-0.87,3.74-2.82c1.01-2.81,3.02-4.47,6.19-4.47c3.53,0,5.55,2.52,5.55,5.48c0,2.24-0.5,3.82-3.03,6.84l-3.95,4.75
			c-2.31,2.66-2.88,4.6-2.88,7.63v0.51C245.81,110.38,247.54,111.82,249.77,111.82"/>
		<path style="clip-path:url(#SVGID_00000126300167922725218300000002607918779278959515_);fill:#FFFFFF;" d="M45.21,113.3
			c0,3.58,2.92,6.5,6.5,6.5c3.58,0,6.5-2.92,6.5-6.5c0-3.58-2.92-6.5-6.5-6.5C48.14,106.8,45.21,109.72,45.21,113.3 M51.71,101.05
			c3.01,0,5.28-2.07,5.28-5.66V59.95c0-3.49-2.26-5.56-5.28-5.56c-3.01,0-5.28,2.07-5.28,5.56v35.44
			C46.44,98.98,48.7,101.05,51.71,101.05"/>
		<path style="clip-path:url(#SVGID_00000126300167922725218300000002607918779278959515_);fill:#2B2961;" d="M250.44,124.77
			c-3.37,0-6.12-2.76-6.12-6.15c0-3.39,2.74-6.16,6.12-6.16c3.32,0,6.12,2.82,6.12,6.16C256.56,121.95,253.76,124.77,250.44,124.77z
			 M250.44,114.93c-2.02,0-3.65,1.66-3.65,3.69c0,2.03,1.64,3.69,3.65,3.69c1.98,0,3.66-1.69,3.66-3.69
			C254.1,116.62,252.42,114.93,250.44,114.93z M250.3,110.85c-3.02,0-5.13-2.12-5.13-5.16v-0.5c0-3.49,0.82-5.68,3.14-8.37l3.87-4.7
			c2.32-2.78,2.71-4.1,2.71-6c0-2.1-1.31-4.21-4.23-4.21c-2.45,0-4.06,1.19-4.93,3.62c-0.95,2.34-2.67,3.6-4.85,3.6
			c-2.85,0-4.91-1.99-4.91-4.74c0-0.36,0.03-1.29,0.34-2.24c1.9-6.16,7.35-9.84,14.57-9.84c8.58,0,14.57,5.65,14.57,13.73
			c0,3.98-1.25,7.16-4.19,10.65l-4.25,5.06c-1.34,1.62-1.56,2.26-1.56,3.5v0.43C255.43,108.68,253.28,110.85,250.3,110.85z
			 M250.65,79.45c3.88,0,6.7,2.81,6.7,6.67c0,2.75-0.79,4.59-3.27,7.57l-3.89,4.71c-2.18,2.54-2.56,4.21-2.56,6.79v0.5
			c0,1.69,1,2.69,2.67,2.69c1.23,0,2.67-0.71,2.67-2.69v-0.43c0-2.13,0.69-3.33,2.13-5.07l4.25-5.07c2.6-3.09,3.62-5.63,3.62-9.06
			c0-6.63-4.98-11.27-12.1-11.27c-6.08,0-10.65,3.04-12.22,8.13c-0.14,0.44-0.23,0.99-0.23,1.49c0,1.36,0.98,2.27,2.45,2.27
			c1.17,0,2-0.66,2.55-2.02C244.63,81.27,247.14,79.45,250.65,79.45z"/>
		<path style="clip-path:url(#SVGID_00000126300167922725218300000002607918779278959515_);fill:#2B2961;" d="M52.4,118.39
			c-4.33,0-7.85-3.53-7.85-7.87s3.52-7.88,7.85-7.88c4.33,0,7.85,3.53,7.85,7.88S56.73,118.39,52.4,118.39z M52.4,105.4
			c-2.8,0-5.08,2.3-5.08,5.11s2.28,5.11,5.08,5.11c2.8,0,5.09-2.29,5.09-5.11S55.21,105.4,52.4,105.4z M52.4,99.66
			c-3.9,0-6.63-2.89-6.63-7.03V57.22c0-4.08,2.73-6.94,6.63-6.94c3.91,0,6.63,2.85,6.63,6.94v35.41
			C59.03,96.77,56.31,99.66,52.4,99.66z M52.4,53.04c-2.38,0-3.86,1.6-3.86,4.17v35.41c0,2.63,1.48,4.27,3.86,4.27
			c2.38,0,3.87-1.63,3.87-4.27V57.22C56.27,54.64,54.79,53.04,52.4,53.04z"/>
	</g>
</g>
</svg>
