<?xml version="1.0" encoding="UTF-8" standalone="no"?> <svg xmlns="http://www.w3.org/2000/svg" xmlns:xlink="http://www.w3.org/1999/xlink" xmlns:serif="http://www.serif.com/" width="100%" height="100%" viewBox="0 0 647 1060" version="1.1" xml:space="preserve" style="fill-rule:evenodd;clip-rule:evenodd;stroke-miterlimit:10;"> <g transform="matrix(-4.16667,0,0,4.16667,542.808,-1515.78)"> <rect x="113.386" y="486.157" width="14.173" height="99.881" style="fill:rgb(121,204,198);"></rect> </g> <g transform="matrix(-4.16667,0,0,4.16667,1107.45,-1281.85)"> <rect x="113.686" y="457.19" width="149.088" height="101.67" style="fill:rgb(121,204,198);stroke:rgb(42,44,104);stroke-width:0.6px;"></rect> </g> <g transform="matrix(4.16667,0,0,4.16667,31.0669,554.667)"> <path d="M0,2.345L4.691,2.345L2.345,0L0,2.345Z" style="fill:white;fill-rule:nonzero;"></path> </g> <g transform="matrix(4.16667,0,0,4.16667,31.0669,593.535)"> <path d="M0,2.345L4.691,2.345L2.345,0L0,2.345Z" style="fill:white;fill-rule:nonzero;"></path> </g> <g transform="matrix(4.16667,0,0,4.16667,31.0669,574.102)"> <path d="M0,2.345L4.691,2.345L2.345,0L0,2.345Z" style="fill:white;fill-rule:nonzero;"></path> </g> <g transform="matrix(-4.16667,0,0,4.16667,542.808,-2381.81)"> <rect x="113.386" y="627.964" width="14.173" height="24.114" style="fill:rgb(121,204,198);"></rect> </g> <g transform="matrix(4.16667,0,0,4.16667,-461.129,-2685.8)"> <rect x="113.686" y="647.608" width="149.028" height="57.784" style="fill:rgb(121,204,198);stroke:rgb(42,44,104);stroke-width:0.6px;"></rect> </g> <g transform="matrix(4.16667,0,0,4.16667,31.0669,259.312)"> <path d="M0,2.345L4.691,2.345L2.345,0L0,2.345Z" style="fill:white;fill-rule:nonzero;"></path> </g> <g transform="matrix(4.16667,0,0,4.16667,31.0669,298.181)"> <path d="M0,2.345L4.691,2.345L2.345,0L0,2.345Z" style="fill:white;fill-rule:nonzero;"></path> </g> <g transform="matrix(4.16667,0,0,4.16667,31.0669,278.747)"> <path d="M0,2.345L4.691,2.345L2.345,0L0,2.345Z" style="fill:white;fill-rule:nonzero;"></path> </g> <g transform="matrix(-4.16667,0,0,4.16667,1104.95,-1957.77)"> <rect x="113.386" y="582.049" width="149.086" height="14.173" style="fill:rgb(121,204,198);"></rect> </g> <g transform="matrix(4.16667,0,0,4.16667,-461.129,-556.179)"> <text x="146.371px" y="299.315px" style="font-family:'Arial-BoldMT', 'Arial', sans-serif;font-weight:700;font-size:13px;fill:rgb(41,44,104);">M<tspan x="157.41px 161.233px 165.773px 170.313px 174.135px 181.576px 186.846px " y="299.315px 299.315px 299.315px 299.315px 299.315px 299.315px 299.315px ">ittlere</tspan></text> <text x="198.865px" y="299.315px" style="font-family:'Arial-BoldMT', 'Arial', sans-serif;font-weight:700;font-size:13px;fill:rgb(41,44,104);">R<tspan x="208.463px 215.904px 219.727px 224.267px " y="299.315px 299.315px 299.315px 299.315px ">eife</tspan></text> <text x="148.457px" y="314.915px" style="font-family:'Arial-BoldMT', 'Arial', sans-serif;font-weight:700;font-size:13px;fill:rgb(41,44,104);">+<tspan x="155.84px 158.761px 167.941px 175.674px 182.696px 190.428px 193.832px 197.236px 204.968px 212.701px 220.434px " y="314.915px 314.915px 314.915px 314.915px 314.915px 314.915px 314.915px 314.915px 314.915px 314.915px 314.915px "> Ausbildung</tspan></text> <text x="115.151px" y="330.515px" style="font-family:'Arial-BoldMT', 'Arial', sans-serif;font-weight:700;font-size:13px;fill:white;">In<tspan x="126.84px 131.237px 138.535px 143.662px 155.289px 162.586px 170.595px 174.275px 181.573px " y="330.515px 330.515px 330.515px 330.515px 330.515px 330.515px 330.515px 330.515px 330.515px ">termediat</tspan>e</text> <text x="198.468px" y="330.515px" style="font-family:'Arial-BoldMT', 'Arial', sans-serif;font-weight:700;font-size:13px;fill:white;">se<tspan x="213.064px 220.362px 228.371px 236.379px 244.388px 251.686px 256.813px " y="330.515px 330.515px 330.515px 330.515px 330.515px 330.515px 330.515px ">condary</tspan></text> <text x="144.355px" y="346.116px" style="font-family:'Arial-BoldMT', 'Arial', sans-serif;font-weight:700;font-size:13px;fill:white;">s<tspan x="151.461px 158.567px 166.384px 174.201px 182.018px " y="346.116px 346.116px 346.116px 346.116px 346.116px ">chool</tspan></text> <text x="187.736px" y="346.116px" style="font-family:'Arial-BoldMT', 'Arial', sans-serif;font-weight:700;font-size:13px;fill:white;">l<tspan x="191.224px 198.33px 205.436px 212.542px 216.029px 223.846px " y="346.116px 346.116px 346.116px 346.116px 346.116px 346.116px ">eaving</tspan></text> <text x="156.926px" y="361.716px" style="font-family:'Arial-BoldMT', 'Arial', sans-serif;font-weight:700;font-size:13px;fill:white;">c<tspan x="164.286px 171.645px 176.833px 181.292px 185.033px 193.104px 200.463px 207.822px 212.281px " y="361.716px 361.716px 361.716px 361.716px 361.716px 361.716px 361.716px 361.716px 361.716px ">ertiﬁcate</tspan></text> <text x="137.374px" y="377.316px" style="font-family:'Arial-BoldMT', 'Arial', sans-serif;font-weight:700;font-size:13px;fill:white;">+ <tspan x="148.44px 155.602px 163.474px 171.346px 176.336px 183.498px 191.37px 195.63px 199.173px 206.334px 213.496px 220.657px 228.529px " y="377.316px 377.316px 377.316px 377.316px 377.316px 377.316px 377.316px 377.316px 377.316px 377.316px 377.316px 377.316px 377.316px ">apprenticeshi</tspan>p</text> </g> <g transform="matrix(4.16667,0,0,4.16667,-461.129,-556.179)"> <text x="139.881px" y="154.878px" style="font-family:'Arial-BoldMT', 'Arial', sans-serif;font-weight:700;font-size:13px;fill:white;">F<tspan x="147.569px 154.546px 161.524px 169.212px 176.9px 183.877px 191.565px 199.253px 206.942px 214.63px 221.607px 229.295px " y="154.878px 154.878px 154.878px 154.878px 154.878px 154.878px 154.878px 154.878px 154.878px 154.878px 154.878px 154.878px ">achgebundene</tspan></text> <text x="137.509px" y="170.478px" style="font-family:'Arial-BoldMT', 'Arial', sans-serif;font-weight:700;font-size:13px;fill:white;">Ho<tspan x="154.674px 161.822px 169.681px 176.829px 183.978px 191.837px 199.696px 203.226px 208.203px 215.351px 218.881px 223.128px 230.277px " y="170.478px 170.478px 170.478px 170.478px 170.478px 170.478px 170.478px 170.478px 170.478px 170.478px 170.478px 170.478px 170.478px ">chschulreife </tspan>/</text> <text x="168.955px" y="186.078px" style="font-family:'Arial-BoldMT', 'Arial', sans-serif;font-weight:700;font-size:13px;fill:white;">A<tspan x="178.196px 185.99px 189.454px 193.636px 201.429px " y="186.078px 186.078px 186.078px 186.078px 186.078px ">bitur</tspan></text> </g> <g transform="matrix(4.16667,0,0,4.16667,-461.129,-556.179)"> <text x="175.665px" y="233.488px" style="font-family:'Arial-BoldMT', 'Arial', sans-serif;font-weight:700;font-size:13px;fill:rgb(42,44,104);">B<tspan x="184.027px 193.111px " y="233.488px 233.488px ">OS</tspan></text> <text x="147.871px" y="255.188px" style="font-family:'ArialMT', 'Arial', sans-serif;font-size:9px;fill:white;">2<tspan x="153.297px 156.237px 161.158px 167.582px 174.502px 181.423px 187.846px 190.786px 193.707px 197.489px 203.913px 210.336px 216.76px 223.681px " y="255.188px 255.188px 255.188px 255.188px 255.188px 255.188px 255.188px 255.188px 255.188px 255.188px 255.188px 255.188px 255.188px 255.188px "> JAHRE / YEARS</tspan></text> </g> <g transform="matrix(-4.16667,0,0,4.16667,1107.45,-2092.13)"> <rect x="113.686" y="582.133" width="149.088" height="46.253" style="fill:none;stroke:rgb(42,44,104);stroke-width:0.6px;"></rect> </g> <g transform="matrix(4.16667,0,0,4.16667,31.0669,314.627)"> <path d="M0,2.345L4.691,2.345L2.345,0L0,2.345Z" style="fill:white;fill-rule:nonzero;"></path> </g> <g transform="matrix(4.16667,0,0,4.16667,31.0669,535.099)"> <path d="M0,2.345L4.691,2.345L2.345,0L0,2.345Z" style="fill:white;fill-rule:nonzero;"></path> </g> </svg> 