<?xml version="1.0" encoding="utf-8"?>
<!-- Generator: Adobe Illustrator 26.2.1, SVG Export Plug-In . SVG Version: 6.00 Build 0)  -->
<svg version="1.1" id="Ebene_1" xmlns="http://www.w3.org/2000/svg" xmlns:xlink="http://www.w3.org/1999/xlink" x="0px" y="0px"
	 viewBox="0 0 512 235.44" style="enable-background:new 0 0 512 235.44;" xml:space="preserve">
<style type="text/css">
	.st0{fill:#6EC3BF;}
	.st1{fill:#A0D5D2;}
	.st2{fill:#87CCC8;}
	.st3{fill:#FFFFFF;}
	.st4{clip-path:url(#SVGID_00000049181431888309103580000000035911798100570007_);fill:#2B2961;}
	.st5{fill:#897DA2;}
	.st6{fill:#2B2961;}
	.st7{clip-path:url(#SVGID_00000063595730063390140600000015403937532153319568_);fill:#FFFFFF;}
	.st8{clip-path:url(#SVGID_00000063595730063390140600000015403937532153319568_);fill:#2B2961;}
	.st9{clip-path:url(#SVGID_00000016073159489821555970000006608947315009134745_);fill:#FFFFFF;}
	.st10{clip-path:url(#SVGID_00000016073159489821555970000006608947315009134745_);fill:#6EC3BF;}
	.st11{fill:#9D9D9C;}
	.st12{fill:#D0D0D0;}
	.st13{clip-path:url(#SVGID_00000159454541836203832810000017883528449357761670_);fill:#FFFFFF;}
	.st14{clip-path:url(#SVGID_00000172398758660010510150000004200146812369894333_);fill:#2B2961;}
	.st15{clip-path:url(#SVGID_00000172398758660010510150000004200146812369894333_);fill:#FFFFFF;}
	.st16{fill:#97D1CE;}
	.st17{clip-path:url(#SVGID_00000038399481582144301680000000425128128280342930_);fill:#2B2961;}
	.st18{clip-path:url(#SVGID_00000137847638605332517860000003800206235024092045_);fill:#2B2961;}
	.st19{clip-path:url(#SVGID_00000036944256582530484510000013697963989363877290_);fill:#FFFFFF;}
	.st20{clip-path:url(#SVGID_00000036944256582530484510000013697963989363877290_);fill:#2B2961;}
	.st21{clip-path:url(#SVGID_00000074415988016889684080000007561372025276266115_);fill:#2B2961;}
	.st22{clip-path:url(#SVGID_00000016074127510834145200000001776340379674479286_);fill:#2B2961;}
	.st23{clip-path:url(#SVGID_00000016074127510834145200000001776340379674479286_);fill:#FFFFFF;}
	.st24{clip-path:url(#SVGID_00000010296769705945538560000000118747291334027690_);fill:#FFFFFF;}
	.st25{clip-path:url(#SVGID_00000031168412447543488680000009055185497068333748_);fill:#6EC3BF;}
	.st26{clip-path:url(#SVGID_00000143594474460210896170000008654929959985128338_);fill:#2B2961;}
	.st27{clip-path:url(#SVGID_00000143594474460210896170000008654929959985128338_);fill:#1D1D1B;}
	.st28{clip-path:url(#SVGID_00000143594474460210896170000008654929959985128338_);fill:#FFFFFF;}
	.st29{clip-path:url(#SVGID_00000142157137703513299650000000891405737846540672_);fill:#2B2961;}
	.st30{clip-path:url(#SVGID_00000039840667580994949020000007983991115087914650_);fill:#2B2961;}
	.st31{clip-path:url(#SVGID_00000039840667580994949020000007983991115087914650_);fill:#FFFFFF;}
	.st32{clip-path:url(#SVGID_00000008144824855523356970000017458684580798162313_);fill:#2B2961;}
	.st33{clip-path:url(#SVGID_00000139976615202693380550000015651446338976669867_);fill:#2B2961;}
	.st34{clip-path:url(#SVGID_00000139976615202693380550000015651446338976669867_);fill:#6EC3BF;}
	.st35{clip-path:url(#SVGID_00000070839970674898775980000013630325451411680164_);fill:#2B2961;}
	.st36{clip-path:url(#SVGID_00000037655933443364742620000002378110204141008050_);fill:#2B2961;}
	.st37{clip-path:url(#SVGID_00000082340805065925414440000016427309002065999795_);fill:#2B2961;}
	.st38{clip-path:url(#SVGID_00000012452420722089860540000008256505078057728134_);fill:#2B2961;}
	.st39{clip-path:url(#SVGID_00000125589805062535629290000011279578595369790123_);fill:#6EC3BF;}
	.st40{clip-path:url(#SVGID_00000106833343334774162060000004437724073703506591_);fill:#6EC3BF;}
	.st41{clip-path:url(#SVGID_00000174594935238990864590000009961984713988419992_);fill:#6EC3BF;}
	.st42{clip-path:url(#SVGID_00000018918193968289399000000014070765947044072124_);fill:#6EC3BF;}
	.st43{clip-path:url(#SVGID_00000011712524597644968190000000054060388910571407_);fill:#2B2961;}
	.st44{clip-path:url(#SVGID_00000168115152067844473150000007861631421216844723_);fill:#2B2961;}
	.st45{clip-path:url(#SVGID_00000106841632075166526510000008747025126655119001_);fill:#2B2961;}
	.st46{clip-path:url(#SVGID_00000072966435687831013130000000984566143789262488_);fill:#2B2961;}
	.st47{clip-path:url(#SVGID_00000072966435687831013130000000984566143789262488_);fill:#FFFFFF;}
	.st48{clip-path:url(#SVGID_00000069378689570585893100000004118886070643776645_);fill:#FFFFFF;}
	.st49{clip-path:url(#SVGID_00000015318201285253141270000015913438645070035857_);fill:#2B2961;}
	.st50{clip-path:url(#SVGID_00000152979740715904189090000002179224588516115868_);fill:#2B2961;}
	.st51{clip-path:url(#SVGID_00000152979740715904189090000002179224588516115868_);fill:#FFFFFF;}
	.st52{clip-path:url(#SVGID_00000084530019813721281610000003678913857637559215_);fill:#2B2961;}
	.st53{clip-path:url(#SVGID_00000084530019813721281610000003678913857637559215_);fill:#2C265F;}
	.st54{clip-path:url(#SVGID_00000003826540056494309490000000489607862256420255_);fill:#FFFFFF;}
	.st55{clip-path:url(#SVGID_00000145017231283101444790000012175199761704192445_);fill:#2B2961;}
	.st56{clip-path:url(#SVGID_00000036237307851395609660000009980393699748136584_);fill:#FFFFFF;}
	.st57{clip-path:url(#SVGID_00000130640963415512992060000018400396779559259817_);fill:#2B2961;}
	.st58{clip-path:url(#SVGID_00000182503297369590007850000016154078345385566898_);fill:#FFFFFF;}
	.st59{clip-path:url(#SVGID_00000129885873368422590460000006364572182891528634_);fill:#2B2961;}
	.st60{clip-path:url(#SVGID_00000129885873368422590460000006364572182891528634_);fill:#FFFFFF;}
	.st61{clip-path:url(#SVGID_00000056401201782461719910000011121710883099931528_);fill:#2B2961;}
	.st62{clip-path:url(#SVGID_00000164490042861815368330000005906037192757166753_);fill:#FFFFFF;}
	.st63{clip-path:url(#SVGID_00000109733870322003753470000013935116400754576319_);fill:#2B2961;}
	.st64{clip-path:url(#SVGID_00000094617812064501590170000003146971731812739993_);fill:#FFFFFF;}
	.st65{clip-path:url(#SVGID_00000094617812064501590170000003146971731812739993_);fill:#2B2961;}
	.st66{clip-path:url(#SVGID_00000142164846919684005260000015040119382259277233_);fill:#2B2961;}
	.st67{clip-path:url(#SVGID_00000142164846919684005260000015040119382259277233_);fill:#6EC3BF;}
	.st68{clip-path:url(#SVGID_00000142164846919684005260000015040119382259277233_);fill:#FFFFFF;}
	.st69{clip-path:url(#SVGID_00000179605078880855912550000010414501867846071483_);fill:#2B2961;}
	.st70{clip-path:url(#SVGID_00000052806042232832236750000004207771107890742694_);fill:#2B2961;}
	.st71{clip-path:url(#SVGID_00000116951115928592660890000016273458752271373720_);fill:#2B2961;}
	.st72{clip-path:url(#SVGID_00000125565103888751338360000018029323367220785305_);fill:#2B2961;}
	.st73{clip-path:url(#SVGID_00000032631819049045520780000007992764843547075208_);fill:#2B2961;}
	.st74{clip-path:url(#SVGID_00000023244451801823295410000007614613296866780595_);fill:#FFFFFF;}
	.st75{clip-path:url(#SVGID_00000023244451801823295410000007614613296866780595_);fill:#6EC3BF;}
	.st76{clip-path:url(#SVGID_00000010290577328162155250000010555048159725408692_);fill:#2B2961;}
	.st77{clip-path:url(#SVGID_00000015350745282513493470000008984199362886685855_);fill:#2B2961;}
	.st78{clip-path:url(#SVGID_00000015350745282513493470000008984199362886685855_);fill:#FFFFFF;}
	.st79{clip-path:url(#SVGID_00000163073771516463638410000009922475665147559313_);fill:#2B2961;}
	.st80{clip-path:url(#SVGID_00000139289202832538523130000006706173502679683460_);fill:#FFFFFF;}
	.st81{clip-path:url(#SVGID_00000168084146462507616500000012442444396587881125_);fill:#2B2961;}
	.st82{clip-path:url(#SVGID_00000026849422378199902690000012360162557376802485_);fill:#2B2961;}
	.st83{clip-path:url(#SVGID_00000031167551244533994350000017486231586037972352_);fill:#2B2961;}
	.st84{clip-path:url(#SVGID_00000048492350981694662860000006509877463286447248_);fill:#FFFFFF;}
	.st85{clip-path:url(#SVGID_00000177481260911178685990000006740742422617922469_);fill:#FFFFFF;}
	.st86{clip-path:url(#SVGID_00000144298503064943905670000006920796901508528040_);fill:#2B2961;}
	.st87{clip-path:url(#SVGID_00000102508309279447834550000001685698391267526555_);fill:#2B2961;}
	.st88{clip-path:url(#SVGID_00000102508309279447834550000001685698391267526555_);fill:#FFFFFF;}
	.st89{clip-path:url(#SVGID_00000114789904370467895750000002024385132102954629_);fill:#2B2961;}
	.st90{clip-path:url(#SVGID_00000052102750019584154540000007698121329706783111_);fill:#FFFFFF;}
	.st91{clip-path:url(#SVGID_00000097488655749932614230000002300863460614054533_);fill:#6EC3BF;}
	.st92{clip-path:url(#SVGID_00000097488655749932614230000002300863460614054533_);fill:#2B2961;}
	.st93{clip-path:url(#SVGID_00000103264219278149507040000015133442090272669314_);fill:#6EC3BF;}
	.st94{clip-path:url(#SVGID_00000013175973673221484350000005454953027860265876_);fill:#2B2961;}
	.st95{clip-path:url(#SVGID_00000167391920480984537760000012954994900622864517_);fill:#2B2961;}
	.st96{clip-path:url(#SVGID_00000046326388887221995730000012577714559909734531_);fill:#2B2961;}
	.st97{clip-path:url(#SVGID_00000153704405254045477760000016334677814415890079_);fill:#2B2961;}
	.st98{clip-path:url(#SVGID_00000005263329025952304530000012715746962742542513_);fill:#2B2961;}
	.st99{clip-path:url(#SVGID_00000005263329025952304530000012715746962742542513_);fill:#6EC3BF;}
	.st100{clip-path:url(#SVGID_00000170244584289491767390000007744296492737245880_);fill:#2B2961;}
	.st101{clip-path:url(#SVGID_00000145055442835658426130000009415552843856810635_);fill:#2B2961;}
	.st102{clip-path:url(#SVGID_00000145055442835658426130000009415552843856810635_);fill:#6EC3BF;}
	.st103{clip-path:url(#SVGID_00000045619341141715217080000011387477021505858228_);fill:#2B2961;}
	.st104{clip-path:url(#SVGID_00000136389834144232954810000008942120475615965829_);fill:#FFFFFF;}
	.st105{clip-path:url(#SVGID_00000136389834144232954810000008942120475615965829_);fill:#2B2961;}
	.st106{clip-path:url(#SVGID_00000042010885643653007500000011388107858849304503_);fill:#6EC3BF;}
	.st107{clip-path:url(#SVGID_00000104683061796136416420000001380715851951894430_);fill:#2B2961;}
	.st108{clip-path:url(#SVGID_00000070119381851280663520000017899105344886121118_);fill:#2B2961;}
	.st109{clip-path:url(#SVGID_00000070119381851280663520000017899105344886121118_);fill:#FFFFFF;}
	.st110{clip-path:url(#SVGID_00000163036671716293001900000016321320298621619339_);fill:#6EC3BF;}
	.st111{clip-path:url(#SVGID_00000071539558021248896910000004339265462670544018_);fill:#2B2961;}
	.st112{clip-path:url(#SVGID_00000176750743110632094300000004195236236672043194_);fill:#2B2961;}
	.st113{clip-path:url(#SVGID_00000176750743110632094300000004195236236672043194_);fill:#6EC3BF;}
	.st114{clip-path:url(#SVGID_00000163790708191747185940000000425901677409822365_);fill:#2B2961;}
	.st115{clip-path:url(#SVGID_00000103956537472569724880000011813333302450270142_);fill:#6EC3BF;}
	.st116{clip-path:url(#SVGID_00000103956537472569724880000011813333302450270142_);fill:#2B2961;}
	.st117{clip-path:url(#SVGID_00000106829179671081493050000016727833044472956350_);fill:#2B2961;}
	.st118{clip-path:url(#SVGID_00000087397570016267090750000014331377375781578382_);fill:#FFFFFF;}
	.st119{clip-path:url(#SVGID_00000087397570016267090750000014331377375781578382_);}
	.st120{clip-path:url(#SVGID_00000062873707769621277830000013849278994065402752_);fill:#2B2961;}
	.st121{clip-path:url(#SVGID_00000087397570016267090750000014331377375781578382_);fill:#6EC3BF;}
	.st122{clip-path:url(#SVGID_00000165935288752650966820000005307398383860108461_);fill:#2B2961;}
	.st123{clip-path:url(#SVGID_00000087397570016267090750000014331377375781578382_);fill:#2B2961;}
	.st124{clip-path:url(#SVGID_00000140728805693567618470000017860935289127107254_);fill:#2B2961;}
	.st125{clip-path:url(#SVGID_00000060024897256664637590000013843670085219816862_);fill:#2B2961;}
	.st126{clip-path:url(#SVGID_00000091709597474807523320000014434620985612052129_);}
	.st127{clip-path:url(#SVGID_00000036943765048429821940000003434655327706908049_);}
	.st128{clip-path:url(#SVGID_00000044899818294938658700000001827271160805256887_);fill:#FFFFFF;}
	.st129{clip-path:url(#SVGID_00000161595052308060147750000003766261720808682413_);fill:#2B2961;}
	.st130{clip-path:url(#SVGID_00000090977825252451656870000005534281756017724048_);fill:#2B2961;}
	.st131{clip-path:url(#SVGID_00000090977825252451656870000005534281756017724048_);fill:#6EC3BF;}
	.st132{clip-path:url(#SVGID_00000090977825252451656870000005534281756017724048_);fill:#FFFFFF;}
	.st133{clip-path:url(#SVGID_00000060720701640842043510000003196999394903793320_);fill:#2B2961;}
	.st134{clip-path:url(#SVGID_00000060720701640842043510000003196999394903793320_);fill:#6EC3BF;}
	.st135{clip-path:url(#SVGID_00000016046413704429502520000017774393073549027249_);fill:#2B2961;}
	.st136{clip-path:url(#SVGID_00000025407966822308009480000016509127031189372583_);fill:#6EC3BF;}
	.st137{clip-path:url(#SVGID_00000025407966822308009480000016509127031189372583_);fill:#FFFFFF;}
	.st138{clip-path:url(#SVGID_00000182498324419355184550000007394738461998250896_);fill:#2B2961;}
	.st139{clip-path:url(#SVGID_00000182498324419355184550000007394738461998250896_);fill:#6EC3BF;}
	.st140{clip-path:url(#SVGID_00000121258824236923973060000010711905642609259173_);fill:#2B2961;}
	.st141{clip-path:url(#SVGID_00000017501369856828906970000004183032304151937973_);fill:#2B2961;}
	.st142{clip-path:url(#SVGID_00000017501369856828906970000004183032304151937973_);fill:#FFFFFF;}
	.st143{clip-path:url(#SVGID_00000053526818859387344570000010631109329353044404_);fill:#2B2961;}
	.st144{clip-path:url(#SVGID_00000077284859367151946950000007115140230737123988_);fill:#FFFFFF;}
	.st145{clip-path:url(#SVGID_00000133522629195202558450000016756338443942340533_);fill:#2B2961;}
	.st146{clip-path:url(#SVGID_00000113311686109674084160000015626975390629371826_);fill:#2B2961;}
	.st147{clip-path:url(#SVGID_00000113311686109674084160000015626975390629371826_);fill:#FFFFFF;}
	.st148{clip-path:url(#SVGID_00000170237213240847817910000005788055404752035757_);fill:#2B2961;}
	.st149{clip-path:url(#SVGID_00000075125790600509134150000007296491204611202727_);fill:#2B2961;}
	.st150{clip-path:url(#SVGID_00000075125790600509134150000007296491204611202727_);fill:#FFFFFF;}
	.st151{clip-path:url(#SVGID_00000008106827124881906860000012386306169380809627_);fill:#2B2961;}
	.st152{clip-path:url(#SVGID_00000008106827124881906860000012386306169380809627_);fill:#6EC3BF;}
	.st153{clip-path:url(#SVGID_00000090268810314444198350000001119909683480730548_);fill:#1D1D1B;}
	.st154{clip-path:url(#SVGID_00000090268810314444198350000001119909683480730548_);fill:#2B2961;}
	.st155{clip-path:url(#SVGID_00000090268810314444198350000001119909683480730548_);fill:#FFFFFF;}
	.st156{clip-path:url(#SVGID_00000106859368032331239000000013412642900732445569_);fill:#2B2961;}
	.st157{clip-path:url(#SVGID_00000127045082524555824540000012932166991795135885_);fill:#2B2961;}
	.st158{clip-path:url(#SVGID_00000049936681535964966050000017087121750060778645_);fill:#2B2961;}
	.st159{clip-path:url(#SVGID_00000049936681535964966050000017087121750060778645_);fill:#FFFFFF;}
	.st160{clip-path:url(#SVGID_00000049936681535964966050000017087121750060778645_);fill:#6EC3BF;}
	.st161{clip-path:url(#SVGID_00000049925672597639974490000008127076697986743714_);fill:#2B2961;}
	.st162{clip-path:url(#SVGID_00000092421458506947881480000002567124007807372433_);fill:#2B2961;}
	.st163{clip-path:url(#SVGID_00000183236739574188172760000004845304743140707219_);fill:#2B2961;}
	.st164{clip-path:url(#SVGID_00000164505183230706668780000016207281381839390625_);fill:#2B2961;}
	.st165{clip-path:url(#SVGID_00000164505183230706668780000016207281381839390625_);fill:#FFFFFF;}
	.st166{clip-path:url(#SVGID_00000034065310681647911810000002740720572768393142_);fill:#2B2961;}
	.st167{clip-path:url(#SVGID_00000034065310681647911810000002740720572768393142_);fill:#FFFFFF;}
	.st168{clip-path:url(#SVGID_00000121259745479564246830000017585823067385541295_);fill:#2B2961;}
	.st169{clip-path:url(#SVGID_00000099647938105141170240000008213315168276058040_);fill:#2B2961;}
	.st170{clip-path:url(#SVGID_00000099647938105141170240000008213315168276058040_);fill:#FFFFFF;}
	.st171{clip-path:url(#SVGID_00000160902054281318583740000016805407660390596003_);fill:#2B2961;}
	.st172{clip-path:url(#SVGID_00000089565905859436441160000013848336502676206729_);fill:#FFFFFF;}
	.st173{clip-path:url(#SVGID_00000153685109274024202600000018316948360483963801_);fill:#2B2961;}
	.st174{clip-path:url(#SVGID_00000153685109274024202600000018316948360483963801_);fill:#6EC3BF;}
	.st175{clip-path:url(#SVGID_00000052079116285911028670000009489179162077309338_);fill:#2B2961;}
	.st176{clip-path:url(#SVGID_00000179618002062661898130000004234577645250085524_);fill:#2B2961;}
	.st177{clip-path:url(#SVGID_00000029766704026627260770000007821021319500996791_);fill:#FFFFFF;}
	.st178{clip-path:url(#SVGID_00000109721373170310867010000014531851914180458119_);fill:#6EC3BF;}
	.st179{clip-path:url(#SVGID_00000109721373170310867010000014531851914180458119_);fill:#2B2961;}
	.st180{clip-path:url(#SVGID_00000160174582395076279240000014316998050240106390_);fill:#6EC3BF;}
	.st181{clip-path:url(#SVGID_00000119809755719611812520000001811389632149752731_);fill:#2B2961;}
	.st182{clip-path:url(#SVGID_00000050644000201056216630000005659483342726230426_);fill:#6EC3BF;}
	.st183{clip-path:url(#SVGID_00000050644000201056216630000005659483342726230426_);fill:#2B2961;}
	.st184{clip-path:url(#SVGID_00000054946238464008345220000013418553228275937212_);fill:#2B2961;}
	.st185{clip-path:url(#SVGID_00000054255599232516363330000011137015931012742547_);fill:#2B2961;}
	.st186{clip-path:url(#SVGID_00000003824653558061740240000004000125293975042459_);fill:#2B2961;}
	.st187{clip-path:url(#SVGID_00000133487019982489794080000017658364453050241950_);fill:#2B2961;}
	.st188{clip-path:url(#SVGID_00000054963902607354143700000004284509506738594707_);fill:#2B2961;}
	.st189{clip-path:url(#SVGID_00000063602529480007918720000011085214956764227756_);fill:#6EC3BF;}
	.st190{clip-path:url(#SVGID_00000063602529480007918720000011085214956764227756_);fill:#2B2961;}
	.st191{clip-path:url(#SVGID_00000054245357352240338040000002868179371117478809_);fill:#6EC3BF;}
	.st192{clip-path:url(#SVGID_00000054245357352240338040000002868179371117478809_);fill:#2B2961;}
	.st193{clip-path:url(#SVGID_00000005247328998427883020000013013394494500110217_);fill:#2B2961;}
	.st194{clip-path:url(#SVGID_00000075877827488792696520000013938693464522528136_);fill:#2B2961;}
	.st195{clip-path:url(#SVGID_00000140703510738318744230000011476510333694017453_);fill:#2B2961;}
	.st196{clip-path:url(#SVGID_00000018220862242449222340000008655459344122960063_);fill:#FFFFFF;}
	.st197{clip-path:url(#SVGID_00000118396601690682248470000010318327619396250514_);fill:#2B2961;}
	.st198{clip-path:url(#SVGID_00000106862339011864502630000009354671354599982246_);fill:#2B2961;}
	.st199{clip-path:url(#SVGID_00000106862339011864502630000009354671354599982246_);fill:#6EC3BF;}
	.st200{clip-path:url(#SVGID_00000155116313634707738200000011174240850562247322_);fill:#2B2961;}
	.st201{clip-path:url(#SVGID_00000002354018450128082690000018072477711277961114_);fill:#2B2961;}
	.st202{clip-path:url(#SVGID_00000055695339553757846440000002829631446361250465_);fill:#6EC3BF;}
	.st203{clip-path:url(#SVGID_00000055695339553757846440000002829631446361250465_);fill:#2B2961;}
	.st204{clip-path:url(#SVGID_00000058564266660864908440000011007245175292440745_);fill:#6EC3BF;}
	.st205{clip-path:url(#SVGID_00000058564266660864908440000011007245175292440745_);fill:#2B2961;}
	.st206{clip-path:url(#SVGID_00000018945161766706688990000016113102662043454599_);fill:#2B2961;}
	.st207{clip-path:url(#SVGID_00000143595375868803440060000003806397337718791834_);fill:#2B2961;}
	.st208{clip-path:url(#SVGID_00000143595375868803440060000003806397337718791834_);fill:#6EC3BF;}
	.st209{clip-path:url(#SVGID_00000018915489616860378350000003746642838913097119_);fill:#2B2961;}
	.st210{clip-path:url(#SVGID_00000018915489616860378350000003746642838913097119_);fill:#6EC3BF;}
	.st211{clip-path:url(#SVGID_00000075139633753937863520000015900603259400163456_);fill:#2B2961;}
	.st212{clip-path:url(#SVGID_00000075139633753937863520000015900603259400163456_);fill:#6EC3BF;}
	.st213{clip-path:url(#SVGID_00000183930305743015952630000013019049839306916779_);fill:#2B2961;}
	.st214{clip-path:url(#SVGID_00000162354303476801932420000009420012141333471616_);fill:#6EC3BF;}
	.st215{clip-path:url(#SVGID_00000162354303476801932420000009420012141333471616_);fill:#2B2961;}
	.st216{clip-path:url(#SVGID_00000020383300067447837860000007254233550439739565_);fill:#6EC3BF;}
	.st217{clip-path:url(#SVGID_00000020383300067447837860000007254233550439739565_);fill:#2B2961;}
	.st218{clip-path:url(#SVGID_00000145753867045841824410000014074193897196043173_);fill:#FFFFFF;}
	.st219{clip-path:url(#SVGID_00000145753867045841824410000014074193897196043173_);fill:#2B2961;}
	.st220{clip-path:url(#SVGID_00000088093169595413459010000000154947094870816161_);fill:#FFFFFF;}
	.st221{clip-path:url(#SVGID_00000088093169595413459010000000154947094870816161_);fill:#2B2961;}
	.st222{clip-path:url(#SVGID_00000016766416694959658130000008636239832387364014_);fill:#FFFFFF;}
	.st223{clip-path:url(#SVGID_00000016766416694959658130000008636239832387364014_);fill:#2B2961;}
	.st224{clip-path:url(#SVGID_00000042011343400314027510000001542652116965507723_);fill:#6EC3BF;}
	.st225{clip-path:url(#SVGID_00000042011343400314027510000001542652116965507723_);fill:#2B2961;}
	.st226{clip-path:url(#SVGID_00000127724621737382755410000006628723562382745223_);fill:#2B2961;}
	.st227{clip-path:url(#SVGID_00000127724621737382755410000006628723562382745223_);fill:#6EC3BF;}
	.st228{clip-path:url(#SVGID_00000041975353863300667760000002537467514257431730_);fill:#2B2961;}
	.st229{clip-path:url(#SVGID_00000142144743738767983280000005178690902726324893_);fill:#6EC3BF;}
	.st230{clip-path:url(#SVGID_00000142144743738767983280000005178690902726324893_);fill:#2B2961;}
	.st231{clip-path:url(#SVGID_00000040553416283486437190000007766467660676282525_);fill:#2B2961;}
	.st232{clip-path:url(#SVGID_00000161628477035209982970000011126441812998256796_);fill:#2B2961;}
	.st233{clip-path:url(#SVGID_00000161628477035209982970000011126441812998256796_);fill:#6EC3BF;}
	.st234{clip-path:url(#SVGID_00000058579226647088418020000002586143008793974182_);fill:#2B2961;}
	.st235{clip-path:url(#SVGID_00000036939847852218754690000004945916958825021569_);fill:#FFFFFF;}
	.st236{clip-path:url(#SVGID_00000036939847852218754690000004945916958825021569_);fill:#2B2961;}
	.st237{fill:#2C265F;}
	.st238{clip-path:url(#SVGID_00000042725217514694832990000016526089246438771377_);fill:#2B2961;}
	.st239{clip-path:url(#SVGID_00000042725217514694832990000016526089246438771377_);fill:#6EC3BF;}
	.st240{fill:#61B87A;}
	.st241{clip-path:url(#SVGID_00000161590497941660645640000006665862139617575596_);fill:#2B2961;}
	.st242{clip-path:url(#SVGID_00000082349630020907349670000012538574143622962563_);fill:#2B2961;}
	.st243{clip-path:url(#SVGID_00000132082797588267208280000000047836544015356349_);fill:#2B2961;}
	.st244{clip-path:url(#SVGID_00000099660387389457490090000015644165691108148366_);fill:#2B2961;}
	.st245{clip-path:url(#SVGID_00000099660387389457490090000015644165691108148366_);fill:#61B87A;}
	.st246{clip-path:url(#SVGID_00000099660387389457490090000015644165691108148366_);fill:#FFFFFF;}
	.st247{clip-path:url(#SVGID_00000069360892516847097260000003685470806377545355_);fill:#2B2961;}
	.st248{clip-path:url(#SVGID_00000069360892516847097260000003685470806377545355_);fill:#61B87A;}
	.st249{clip-path:url(#SVGID_00000145026106046989795590000016487206380754377859_);fill:#2B2961;}
	.st250{clip-path:url(#SVGID_00000153692166388872928260000003646822081578274469_);fill:#6EC3BF;}
	.st251{clip-path:url(#SVGID_00000153692166388872928260000003646822081578274469_);fill:#2B2961;}
	.st252{clip-path:url(#SVGID_00000000919527733965934930000004816026340585322669_);fill:#2B2961;}
	.st253{clip-path:url(#SVGID_00000000919527733965934930000004816026340585322669_);fill:#6EC3BF;}
	.st254{clip-path:url(#SVGID_00000018206670962453946170000001096841752385530255_);fill:#2B2961;}
	.st255{clip-path:url(#SVGID_00000018206670962453946170000001096841752385530255_);fill:#6EC3BF;}
</style>
<g>
	<g>
		<defs>
			<rect id="SVGID_00000049180283347716854220000012303457770835845262_" y="10.28" width="512" height="214.87"/>
		</defs>
		<clipPath id="SVGID_00000177453761117821807980000010631060286652918193_">
			<use xlink:href="#SVGID_00000049180283347716854220000012303457770835845262_"  style="overflow:visible;"/>
		</clipPath>
		<polygon style="clip-path:url(#SVGID_00000177453761117821807980000010631060286652918193_);fill:#FFFFFF;" points="
			482.48,195.63 482.48,223.27 510.12,195.63 		"/>
		<g style="clip-path:url(#SVGID_00000177453761117821807980000010631060286652918193_);">
			<defs>
				<rect id="SVGID_00000068664508603487557510000008443784289048292497_" y="10.29" width="512" height="214.87"/>
			</defs>
			<clipPath id="SVGID_00000025431626031386263540000014803107312672591285_">
				<use xlink:href="#SVGID_00000068664508603487557510000008443784289048292497_"  style="overflow:visible;"/>
			</clipPath>
			<path style="clip-path:url(#SVGID_00000025431626031386263540000014803107312672591285_);fill:#2B2961;" d="M482.48,225.07
				c-0.24,0-0.46-0.05-0.69-0.14c-0.67-0.28-1.11-0.93-1.11-1.66v-27.64c0-0.99,0.81-1.8,1.8-1.8h27.64c0.73,0,1.39,0.44,1.67,1.11
				c0.27,0.67,0.12,1.45-0.39,1.96l-27.64,27.64C483.4,224.89,482.95,225.07,482.48,225.07z M484.28,197.43v21.5l21.5-21.5H484.28z"
				/>
		</g>
		<polygon style="clip-path:url(#SVGID_00000177453761117821807980000010631060286652918193_);fill:#6EC3BF;" points="
			484.55,196.11 484.55,221.3 510.09,196.11 		"/>
		<path style="clip-path:url(#SVGID_00000177453761117821807980000010631060286652918193_);fill:#6EC3BF;" d="M483.77,223.16v-27.82
			h28.22L483.77,223.16z M485.32,196.89v22.55l22.88-22.55H485.32z"/>
		<g style="clip-path:url(#SVGID_00000177453761117821807980000010631060286652918193_);">
			<defs>
				<rect id="SVGID_00000133498932691492380280000015491955365676651676_" y="10.29" width="512" height="214.87"/>
			</defs>
			<clipPath id="SVGID_00000134244535174754862510000004973563417166465711_">
				<use xlink:href="#SVGID_00000133498932691492380280000015491955365676651676_"  style="overflow:visible;"/>
			</clipPath>
			<path style="clip-path:url(#SVGID_00000134244535174754862510000004973563417166465711_);fill:#2B2961;" d="M482.55,225.15
				c-0.25,0-0.51-0.05-0.75-0.15c-0.72-0.3-1.2-1.01-1.2-1.8v-27.5c0-1.08,0.87-1.95,1.95-1.95h27.5c0.79,0,1.5,0.48,1.81,1.21
				c0.3,0.73,0.13,1.57-0.43,2.13l-27.5,27.5C483.55,224.96,483.05,225.15,482.55,225.15z M484.5,197.65v20.83l20.84-20.83H484.5z"
				/>
		</g>
		<polygon style="clip-path:url(#SVGID_00000177453761117821807980000010631060286652918193_);fill:#6EC3BF;" points="427.91,56.65 
			431.6,56.65 451.01,44.06 451.01,43.75 446.64,43.75 427.91,55.86 		"/>
		<polygon style="clip-path:url(#SVGID_00000177453761117821807980000010631060286652918193_);fill:#6EC3BF;" points="410.03,56.65 
			390.79,43.75 390.79,47.15 405.17,56.65 		"/>
		<path style="clip-path:url(#SVGID_00000177453761117821807980000010631060286652918193_);fill:#2B2961;" d="M407.87,56.99h-4.38
			c-0.24,0-0.48-0.07-0.69-0.2l-12.95-8.08c-0.38-0.24-0.62-0.65-0.62-1.1v-2.9c0-0.48,0.26-0.91,0.67-1.14
			c0.42-0.23,0.92-0.21,1.33,0.04l17.33,10.99c0.49,0.31,0.71,0.91,0.55,1.46C408.95,56.61,408.44,56.99,407.87,56.99z"/>
		<path style="clip-path:url(#SVGID_00000177453761117821807980000010631060286652918193_);fill:#2B2961;" d="M431.05,56.99h-3.38
			c-0.72,0-1.3-0.58-1.3-1.3v-0.68c0-0.46,0.24-0.88,0.64-1.12l17.17-10.31c0.2-0.12,0.43-0.19,0.67-0.19h4c0.72,0,1.3,0.58,1.3,1.3
			c0,0.46-0.24,1.15-0.63,1.39l-17.79,10.71C431.52,56.93,431.28,56.99,431.05,56.99z"/>
		<polygon style="clip-path:url(#SVGID_00000177453761117821807980000010631060286652918193_);fill:#6EC3BF;" points="
			223.14,110.84 178.7,149.63 145.49,117.34 95.67,172.69 50.47,140.71 7.11,197.6 7.11,219.34 50.47,162.44 95.67,194.43 
			145.49,139.07 178.7,171.36 233.6,123.32 242.65,134.09 245.39,102.73 213.76,99.67 		"/>
		<path style="clip-path:url(#SVGID_00000177453761117821807980000010631060286652918193_);fill:#6EC3BF;" d="M7.11,220.16
			c-0.09,0-0.18-0.01-0.26-0.04c-0.34-0.11-0.56-0.43-0.56-0.78V197.6c0-0.18,0.06-0.35,0.17-0.5l43.36-56.88
			c0.28-0.35,0.77-0.43,1.13-0.17l44.61,31.56l49.32-54.81c0.15-0.17,0.36-0.26,0.58-0.27c0.01,0,0.02,0,0.03,0
			c0.22,0,0.42,0.08,0.57,0.23l32.68,31.76L222,110.76l-8.87-10.57c-0.22-0.26-0.25-0.61-0.1-0.91c0.15-0.29,0.44-0.46,0.8-0.44
			l31.64,3.07c0.45,0.04,0.78,0.44,0.74,0.89l-2.75,31.36c-0.03,0.33-0.25,0.61-0.57,0.71c-0.31,0.1-0.66,0-0.88-0.25l-8.5-10.14
			l-54.27,47.49c-0.32,0.29-0.81,0.26-1.11-0.03l-32.61-31.69l-49.24,54.72c-0.27,0.31-0.74,0.36-1.09,0.12l-44.56-31.53
			L7.76,219.83C7.61,220.04,7.36,220.16,7.11,220.16z M7.93,197.87v19.03l41.89-54.96c0.28-0.35,0.77-0.43,1.13-0.17l44.61,31.56
			l49.32-54.81c0.15-0.17,0.36-0.26,0.58-0.27c0.01,0,0.02,0,0.03,0c0.22,0,0.42,0.08,0.57,0.23l32.68,31.76l54.33-47.54
			c0.17-0.14,0.42-0.22,0.6-0.2c0.22,0.02,0.43,0.12,0.57,0.29l7.77,9.26l2.5-28.58l-28.83-2.8l8.09,9.64
			c0.29,0.34,0.25,0.85-0.09,1.15l-44.44,38.79c-0.34,0.28-0.81,0.26-1.11-0.03l-32.61-31.7l-49.24,54.72
			c-0.27,0.31-0.74,0.36-1.09,0.12l-44.56-31.52L7.93,197.87z"/>
		<g style="clip-path:url(#SVGID_00000177453761117821807980000010631060286652918193_);">
			<defs>
				<rect id="SVGID_00000116928021761030635900000003296384111891978903_" y="10.29" width="512" height="214.87"/>
			</defs>
			<clipPath id="SVGID_00000156575663363488486980000016619823381830194852_">
				<use xlink:href="#SVGID_00000116928021761030635900000003296384111891978903_"  style="overflow:visible;"/>
			</clipPath>
			<path style="clip-path:url(#SVGID_00000156575663363488486980000016619823381830194852_);fill:#2B2961;" d="M290.6,225.08H1.95
				c-1.08,0-1.95-0.87-1.95-1.95V83.83c0-1.08,0.87-1.95,1.95-1.95s1.95,0.87,1.95,1.95v137.34h286.7c1.08,0,1.95,0.87,1.95,1.95
				C292.55,224.2,291.68,225.08,290.6,225.08z"/>
			<path style="clip-path:url(#SVGID_00000156575663363488486980000016619823381830194852_);fill:#2B2961;" d="M1.95,225.08
				c-0.21,0-0.42-0.03-0.62-0.1C0.53,224.71,0,223.97,0,223.13v-21.74c0-0.43,0.14-0.84,0.4-1.18l43.36-56.88
				c0.64-0.84,1.83-1.01,2.68-0.41l43.79,30.97l48.66-54.06c0.36-0.39,0.85-0.63,1.39-0.65c0.5-0.05,1.05,0.18,1.42,0.55
				l31.92,31.04l41.64-36.34l-8.15-9.72c-0.51-0.61-0.6-1.46-0.24-2.17c0.38-0.7,1.15-1.12,1.92-1.03l31.64,3.07
				c1.06,0.1,1.85,1.05,1.75,2.11l-2.75,31.36c-0.07,0.79-0.6,1.46-1.36,1.69c-0.74,0.24-1.58,0-2.08-0.61l-7.76-9.25l-53.41,46.73
				c-0.76,0.67-1.91,0.64-2.64-0.07l-31.76-30.87l-48.46,53.84c-0.66,0.74-1.79,0.85-2.57,0.29l-43.67-30.9L3.5,224.32
				C3.12,224.81,2.55,225.08,1.95,225.08z M3.9,202.05v15.3l39.86-52.3c0.64-0.84,1.84-1.01,2.68-0.41l43.79,30.98l48.66-54.06
				c0.36-0.39,0.85-0.63,1.39-0.65c0.5-0.06,1.05,0.18,1.42,0.55l31.92,31.03l53.55-46.86c0.39-0.35,0.91-0.54,1.44-0.48
				c0.52,0.04,1,0.29,1.34,0.69l6.01,7.17l2.16-24.74l-24.95-2.42l6.31,7.52c0.69,0.82,0.59,2.03-0.21,2.73l-44.44,38.79
				c-0.76,0.66-1.91,0.64-2.64-0.07l-31.76-30.88L91.97,177.8c-0.66,0.74-1.79,0.86-2.57,0.29l-43.67-30.89L3.9,202.05z"/>
		</g>
		<polygon style="clip-path:url(#SVGID_00000177453761117821807980000010631060286652918193_);fill:#6EC3BF;" points="
			461.14,209.15 361.17,209.15 361.17,11.8 497.26,11.8 497.26,156.93 		"/>
		<path style="clip-path:url(#SVGID_00000177453761117821807980000010631060286652918193_);fill:#6EC3BF;" d="M461.54,209.93H360.39
			V11.02h137.64v146.16l-0.13,0.2L461.54,209.93z M361.94,208.38h98.79l35.75-51.69V12.57H361.94V208.38z"/>
		<path style="clip-path:url(#SVGID_00000177453761117821807980000010631060286652918193_);fill:#2B2961;" d="M495.7,210.81H357.12
			c-1.08,0-1.95-0.87-1.95-1.95V12.24c0-1.08,0.87-1.95,1.95-1.95H495.7c1.08,0,1.95,0.87,1.95,1.95v196.62
			C497.66,209.94,496.78,210.81,495.7,210.81z M359.07,206.91h134.68V14.19H359.07V206.91z"/>
		<polygon style="clip-path:url(#SVGID_00000177453761117821807980000010631060286652918193_);fill:#FFFFFF;" points="371.46,26.58 
			371.46,223.2 481.61,223.2 510.04,194.69 510.04,26.58 		"/>
		<g style="clip-path:url(#SVGID_00000177453761117821807980000010631060286652918193_);">
			<defs>
				<rect id="SVGID_00000051347005874389839400000012045047162063985029_" y="10.29" width="512" height="214.87"/>
			</defs>
			<clipPath id="SVGID_00000123428754116470708460000009733220054289229719_">
				<use xlink:href="#SVGID_00000051347005874389839400000012045047162063985029_"  style="overflow:visible;"/>
			</clipPath>
			<path style="clip-path:url(#SVGID_00000123428754116470708460000009733220054289229719_);fill:#2B2961;" d="M481.61,225.15
				H371.46c-1.08,0-1.95-0.87-1.95-1.95V26.58c0-1.08,0.87-1.95,1.95-1.95h138.59c1.08,0,1.95,0.87,1.95,1.95v168.11
				c0,0.52-0.2,1.01-0.57,1.38l-28.44,28.51C482.63,224.95,482.13,225.15,481.61,225.15z M373.41,221.25H480.8l27.29-27.36V28.53
				H373.41V221.25z"/>
		</g>
		
			<rect x="390.79" y="44.95" style="clip-path:url(#SVGID_00000177453761117821807980000010631060286652918193_);fill:#6EC3BF;" width="60.22" height="39.48"/>
		<polygon style="clip-path:url(#SVGID_00000177453761117821807980000010631060286652918193_);fill:#6EC3BF;" points="451.01,44.95 
			443.47,44.95 427.78,55.22 427.78,44.95 413.96,44.95 413.96,55.65 397.38,44.95 390.79,44.95 390.79,50.29 402.68,58 390.79,58 
			390.79,71.67 402.58,71.67 390.79,79.43 390.79,84.43 398.59,84.43 413.96,74.33 413.96,84.43 427.78,84.43 427.78,74.15 
			443.67,84.43 451.01,84.43 451.01,79.49 438.92,71.67 451.01,71.67 451.01,58 438.98,58 451.01,50.1 		"/>
		<polygon style="clip-path:url(#SVGID_00000177453761117821807980000010631060286652918193_);fill:#6EC3BF;" points="410.03,57.86 
			390.79,44.95 390.79,48.36 405.17,57.86 		"/>
		<polygon style="clip-path:url(#SVGID_00000177453761117821807980000010631060286652918193_);fill:#6EC3BF;" points="431.79,71.81 
			451.01,84.43 451.01,81.26 436.65,71.81 		"/>
		<polygon style="clip-path:url(#SVGID_00000177453761117821807980000010631060286652918193_);fill:#6EC3BF;" points="413.84,71.81 
			409.88,71.81 390.79,84.43 395.36,84.43 413.84,72.43 		"/>
		<polygon style="clip-path:url(#SVGID_00000177453761117821807980000010631060286652918193_);fill:#6EC3BF;" points="427.91,57.86 
			431.6,57.86 451.01,45.27 451.01,44.95 446.64,44.95 427.91,57.07 		"/>
		<polygon style="clip-path:url(#SVGID_00000177453761117821807980000010631060286652918193_);fill:#6EC3BF;" points="451.01,60.9 
			424.82,60.9 424.82,44.95 416.93,44.95 416.93,60.9 390.79,60.9 390.79,68.77 416.93,68.77 416.93,84.43 424.82,84.43 
			424.82,68.77 451.01,68.77 		"/>
		<polygon style="clip-path:url(#SVGID_00000177453761117821807980000010631060286652918193_);fill:#FFFFFF;" points="448.84,44.71 
			441.54,44.71 426.36,54.48 426.36,44.71 412.98,44.71 412.98,54.88 396.92,44.71 390.54,44.71 390.54,49.79 402.05,57.11 
			390.54,57.11 390.54,70.13 401.96,70.13 390.54,77.51 390.54,82.26 398.1,82.26 412.98,72.65 412.98,82.26 426.36,82.26 
			426.36,72.48 441.74,82.26 448.84,82.26 448.84,77.56 437.14,70.13 448.84,70.13 448.84,57.11 437.2,57.11 448.84,49.6 		"/>
		<path style="clip-path:url(#SVGID_00000177453761117821807980000010631060286652918193_);fill:#2B2961;" d="M448.84,83.56h-7.1
			c-0.25,0-0.49-0.07-0.7-0.2l-13.38-8.5v7.41c0,0.72-0.58,1.3-1.3,1.3h-13.37c-0.72,0-1.3-0.58-1.3-1.3v-7.22l-12.88,8.31
			c-0.21,0.14-0.46,0.21-0.71,0.21h-7.56c-0.72,0-1.3-0.58-1.3-1.3v-4.75c0-0.44,0.22-0.85,0.6-1.09l7.72-4.98h-7.01
			c-0.72,0-1.3-0.58-1.3-1.3V57.11c0-0.72,0.58-1.3,1.3-1.3h7.05l-7.75-4.93c-0.38-0.24-0.6-0.65-0.6-1.1v-5.08
			c0-0.72,0.58-1.3,1.3-1.3h6.39c0.25,0,0.49,0.07,0.7,0.2l14.05,8.91v-7.81c0-0.72,0.58-1.3,1.3-1.3h13.37c0.72,0,1.3,0.58,1.3,1.3
			v7.38l13.18-8.48c0.21-0.14,0.46-0.21,0.71-0.21h7.3c0.72,0,1.3,0.58,1.3,1.3v4.89c0,0.44-0.23,0.85-0.6,1.09l-7.93,5.12h7.23
			c0.72,0,1.3,0.58,1.3,1.3v13.01c0,0.72-0.58,1.3-1.3,1.3h-7.23l7.93,5.03c0.38,0.24,0.6,0.65,0.6,1.1v4.7
			C450.14,82.98,449.56,83.56,448.84,83.56z M442.12,80.96h5.42v-2.68l-11.1-7.05c-0.49-0.31-0.71-0.91-0.55-1.46
			c0.17-0.56,0.67-0.94,1.25-0.94h10.4V58.42h-10.34c-0.58,0-1.09-0.38-1.25-0.93c-0.17-0.55,0.06-1.15,0.54-1.46l11.05-7.13v-2.88
			h-5.61l-14.86,9.56c-0.4,0.26-0.9,0.27-1.33,0.05c-0.42-0.23-0.68-0.67-0.68-1.14v-8.47h-10.77v8.87c0,0.48-0.26,0.91-0.67,1.14
			c-0.42,0.23-0.92,0.21-1.33-0.04l-15.73-9.97h-4.71v3.06l10.91,6.95c0.49,0.31,0.71,0.91,0.55,1.46
			c-0.17,0.56-0.67,0.94-1.25,0.94h-10.21v10.41h10.12c0.58,0,1.09,0.38,1.25,0.93c0.17,0.55-0.06,1.15-0.54,1.46l-10.82,7v2.74
			h5.87l14.56-9.4c0.4-0.26,0.9-0.28,1.33-0.05c0.42,0.23,0.68,0.67,0.68,1.14v8.3h10.77v-8.47c0-0.48,0.26-0.91,0.67-1.14
			c0.42-0.23,0.92-0.21,1.33,0.04L442.12,80.96z"/>
		<polygon style="clip-path:url(#SVGID_00000177453761117821807980000010631060286652918193_);fill:#6EC3BF;" points="451.02,59.12 
			424.83,59.12 424.83,43.18 416.94,43.18 416.94,59.12 390.8,59.12 390.8,66.99 416.94,66.99 416.94,82.65 424.83,82.65 
			424.83,66.99 451.02,66.99 		"/>
		<polygon style="clip-path:url(#SVGID_00000177453761117821807980000010631060286652918193_);fill:#6EC3BF;" points="413.84,70.6 
			409.88,70.6 390.79,83.22 395.36,83.22 413.84,71.22 		"/>
		<polygon style="clip-path:url(#SVGID_00000177453761117821807980000010631060286652918193_);fill:#6EC3BF;" points="431.79,70.6 
			451.01,83.22 451.01,80.05 436.65,70.6 		"/>
		<path style="clip-path:url(#SVGID_00000177453761117821807980000010631060286652918193_);fill:#2B2961;" d="M448.84,83.56h-58.3
			c-0.72,0-1.3-0.58-1.3-1.3V44.71c0-0.72,0.58-1.3,1.3-1.3h58.3c0.72,0,1.3,0.58,1.3,1.3v37.55
			C450.14,82.98,449.56,83.56,448.84,83.56z M391.84,80.96h55.69V46.01h-55.69V80.96z"/>
		<path style="clip-path:url(#SVGID_00000177453761117821807980000010631060286652918193_);fill:#2B2961;" d="M448.84,83.56
			c-0.24,0-0.48-0.07-0.69-0.19l-17.3-10.69c-0.5-0.31-0.72-0.9-0.57-1.46c0.16-0.56,0.67-0.95,1.25-0.95h4.38
			c0.24,0,0.48,0.07,0.69,0.2l12.92,8.01c0.38,0.24,0.62,0.65,0.62,1.11v2.68c0,0.47-0.25,0.91-0.67,1.14
			C449.28,83.5,449.06,83.56,448.84,83.56z"/>
		<path style="clip-path:url(#SVGID_00000177453761117821807980000010631060286652918193_);fill:#2B2961;" d="M394.73,83.56h-4.2
			c-0.58,0-1.09-0.39-1.25-0.95c-0.16-0.56,0.08-1.16,0.57-1.46l17.5-10.69c0.2-0.13,0.44-0.19,0.68-0.19h3.64
			c0.72,0,1.3,0.58,1.3,1.3v0.53c0,0.46-0.24,0.88-0.64,1.12L395.4,83.37C395.2,83.5,394.97,83.56,394.73,83.56z"/>
		<path style="clip-path:url(#SVGID_00000177453761117821807980000010631060286652918193_);fill:#2B2961;" d="M423.5,83.56h-7.65
			c-0.72,0-1.3-0.58-1.3-1.3v-13.6h-24.01c-0.72,0-1.3-0.58-1.3-1.3v-7.49c0-0.72,0.58-1.3,1.3-1.3h24.01V44.71
			c0-0.72,0.58-1.3,1.3-1.3h7.65c0.72,0,1.3,0.58,1.3,1.3v13.86h24.04c0.72,0,1.3,0.58,1.3,1.3v7.49c0,0.72-0.58,1.3-1.3,1.3H424.8
			v13.6C424.8,82.98,424.21,83.56,423.5,83.56z M417.15,80.96h5.04v-13.6c0-0.72,0.58-1.3,1.3-1.3h24.04v-4.88H423.5
			c-0.72,0-1.3-0.58-1.3-1.3V46.01h-5.04v13.86c0,0.72-0.58,1.3-1.3,1.3h-24.01v4.88h24.01c0.72,0,1.3,0.58,1.3,1.3V80.96z"/>
		<path style="clip-path:url(#SVGID_00000177453761117821807980000010631060286652918193_);fill:#2B2961;" d="M390.63,112.64
			c-0.99,0-1.8-0.81-1.8-1.8V45.55c0-0.99,0.81-1.8,1.8-1.8c0.99,0,1.8,0.81,1.8,1.8v65.28
			C392.43,111.83,391.62,112.64,390.63,112.64z"/>
		
			<rect x="437.82" y="88.1" style="clip-path:url(#SVGID_00000177453761117821807980000010631060286652918193_);fill:#6EC3BF;" width="19.9" height="40.57"/>
		<g style="clip-path:url(#SVGID_00000177453761117821807980000010631060286652918193_);">
			<defs>
				<rect id="SVGID_00000038414670398164171100000015186965679919119292_" y="10.29" width="512" height="214.87"/>
			</defs>
			<clipPath id="SVGID_00000051376584349949220440000011092713271439538107_">
				<use xlink:href="#SVGID_00000038414670398164171100000015186965679919119292_"  style="overflow:visible;"/>
			</clipPath>
			<g style="clip-path:url(#SVGID_00000051376584349949220440000011092713271439538107_);">
				<defs>
					<rect id="SVGID_00000102519588484669964820000008296821636326021290_" x="418.96" y="42.54" width="137.65" height="92.64"/>
				</defs>
				<clipPath id="SVGID_00000043441251443022257180000002377152993366542218_">
					<use xlink:href="#SVGID_00000102519588484669964820000008296821636326021290_"  style="overflow:visible;"/>
				</clipPath>
				<g style="clip-path:url(#SVGID_00000043441251443022257180000002377152993366542218_);">
					<rect x="477.54" y="88.1" class="st0" width="20.5" height="40.57"/>
				</g>
			</g>
		</g>
		<path style="clip-path:url(#SVGID_00000177453761117821807980000010631060286652918193_);fill:#2B2961;" d="M495.67,127.92h-58.3
			c-0.72,0-1.3-0.58-1.3-1.3V89.06c0-0.72,0.58-1.3,1.3-1.3h58.3c0.72,0,1.3,0.58,1.3,1.3v37.55
			C496.97,127.33,496.38,127.92,495.67,127.92z M438.67,125.31h55.69V90.37h-55.69V125.31z"/>
		<path style="clip-path:url(#SVGID_00000177453761117821807980000010631060286652918193_);fill:#2B2961;" d="M436.89,156.99
			c-0.99,0-1.8-0.81-1.8-1.8V89.66c0-0.99,0.81-1.8,1.8-1.8c0.99,0,1.8,0.81,1.8,1.8v65.53
			C438.69,156.18,437.88,156.99,436.89,156.99z"/>
		
			<rect x="455.08" y="88.03" style="clip-path:url(#SVGID_00000177453761117821807980000010631060286652918193_);fill:#2B2961;" width="2.61" height="39.96"/>
		
			<rect x="474.33" y="87.79" style="clip-path:url(#SVGID_00000177453761117821807980000010631060286652918193_);fill:#2B2961;" width="2.61" height="39.32"/>
		
			<rect x="386.08" y="147.64" style="clip-path:url(#SVGID_00000177453761117821807980000010631060286652918193_);fill:#6EC3BF;" width="59.97" height="40.03"/>
		<polygon style="clip-path:url(#SVGID_00000177453761117821807980000010631060286652918193_);fill:#FFFFFF;" points="
			417.17,162.54 419.31,165.46 422.75,164.33 420.63,167.27 422.77,170.19 419.32,169.09 417.2,172.03 417.19,168.4 413.74,167.3 
			417.18,166.17 		"/>
		<g style="clip-path:url(#SVGID_00000177453761117821807980000010631060286652918193_);">
			<defs>
				<rect id="SVGID_00000102516446214496630310000013059465244347359880_" y="10.29" width="512" height="214.87"/>
			</defs>
			<clipPath id="SVGID_00000181077672301282901460000010614280712510118557_">
				<use xlink:href="#SVGID_00000102516446214496630310000013059465244347359880_"  style="overflow:visible;"/>
			</clipPath>
			<path style="clip-path:url(#SVGID_00000181077672301282901460000010614280712510118557_);fill:#FFFFFF;" d="M408.07,175.22
				c-4.29,0-7.77-3.56-7.77-7.95c0-4.39,3.48-7.95,7.77-7.95c2.66,0,5,1.37,6.4,3.45c-1.63-3.2-4.93-5.38-8.73-5.38
				c-5.43,0-9.82,4.46-9.82,9.96c0,5.49,4.39,9.95,9.82,9.95c4.02,0,7.46-2.43,8.99-5.93C413.37,173.67,410.89,175.22,408.07,175.22
				"/>
		</g>
		<path style="clip-path:url(#SVGID_00000177453761117821807980000010631060286652918193_);fill:#2B2961;" d="M443.67,186.95h-58.3
			c-0.72,0-1.3-0.58-1.3-1.3V148.1c0-0.72,0.58-1.3,1.3-1.3h58.3c0.72,0,1.3,0.58,1.3,1.3v37.55
			C444.97,186.37,444.39,186.95,443.67,186.95z M386.67,184.35h55.69V149.4h-55.69V184.35z"/>
		<path style="clip-path:url(#SVGID_00000177453761117821807980000010631060286652918193_);fill:#2B2961;" d="M385.54,216.03
			c-0.99,0-1.8-0.81-1.8-1.8v-65.76c0-0.99,0.81-1.8,1.8-1.8c0.99,0,1.8,0.81,1.8,1.8v65.76
			C387.33,215.22,386.53,216.03,385.54,216.03z"/>
		<path style="clip-path:url(#SVGID_00000177453761117821807980000010631060286652918193_);fill:#2B2961;" d="M416.69,172.19
			c-0.13,0-0.27-0.02-0.39-0.06c-0.54-0.17-0.91-0.67-0.91-1.24v-2.15l-2.03-0.65c-0.53-0.17-0.9-0.67-0.9-1.23
			c0-0.56,0.36-1.06,0.9-1.24l2.03-0.67l-0.01-2.15c0-0.56,0.36-1.07,0.9-1.24c0.53-0.17,1.13,0.02,1.46,0.47l1.25,1.73l2.01-0.67
			c0.55-0.18,1.13,0.01,1.46,0.46c0.33,0.45,0.34,1.07,0.01,1.53l-1.25,1.75l1.26,1.74c0.33,0.46,0.33,1.07,0,1.53
			c-0.34,0.46-0.93,0.64-1.46,0.47l-2.01-0.65l-1.24,1.74C417.5,171.99,417.1,172.19,416.69,172.19z M417.56,166.83
			c0.13,0.11,0.23,0.25,0.3,0.41c0.15-0.08,0.31-0.13,0.46-0.15c-0.03-0.17-0.03-0.34,0-0.51c-0.17-0.02-0.32-0.07-0.46-0.15
			C417.79,166.57,417.69,166.71,417.56,166.83z"/>
		<g style="clip-path:url(#SVGID_00000177453761117821807980000010631060286652918193_);">
			<defs>
				<rect id="SVGID_00000107569856599896819990000005823685044093938866_" y="10.29" width="512" height="214.87"/>
			</defs>
			<clipPath id="SVGID_00000044899257063865787510000010955062904519522439_">
				<use xlink:href="#SVGID_00000107569856599896819990000005823685044093938866_"  style="overflow:visible;"/>
			</clipPath>
			<path style="clip-path:url(#SVGID_00000044899257063865787510000010955062904519522439_);fill:#2B2961;" d="M405.03,177.44
				c-5.73,0-10.4-4.74-10.4-10.57c0-5.83,4.67-10.56,10.4-10.56c3.92,0,7.46,2.19,9.25,5.72c0.31,0.61,0.09,1.37-0.51,1.71
				c-0.58,0.35-1.35,0.17-1.74-0.4c-1.11-1.65-2.92-2.63-4.85-2.63c-3.25,0-5.89,2.74-5.89,6.1s2.64,6.1,5.89,6.1
				c2.08,0,3.97-1.1,5.05-2.95c0.34-0.59,1.09-0.82,1.72-0.5c0.61,0.31,0.88,1.05,0.6,1.68
				C412.89,174.97,409.15,177.44,405.03,177.44z M403.21,159.13c-3.42,0.84-5.97,3.99-5.97,7.74c0,3.9,2.76,7.16,6.39,7.84
				c-2.9-1.38-4.93-4.4-4.93-7.9C398.7,163.49,400.52,160.6,403.21,159.13z"/>
		</g>
	</g>
</g>
</svg>
