<?xml version="1.0" encoding="UTF-8"?> <!-- Generator: Adobe Illustrator 24.2.1, SVG Export Plug-In . SVG Version: 6.00 Build 0) --> <svg xmlns="http://www.w3.org/2000/svg" xmlns:xlink="http://www.w3.org/1999/xlink" version="1.1" id="Ebene_1" x="0px" y="0px" viewBox="0 0 343.8 638.5" style="enable-background:new 0 0 343.8 638.5;" xml:space="preserve"> <style type="text/css"> .st0{fill:#88D0CB;} .st1{fill:#FFFFFF;} .st2{fill:#62C6BF;} .st3{fill:none;stroke:#2A2C68;stroke-width:0.6;stroke-linejoin:round;} .st4{fill:#2A2C68;} .st5{font-family:'DINPro-Medium';} .st6{font-size:9.5px;} .st7{fill:#292C68;} .st8{font-family:'DINPro-Bold';} .st9{font-size:13px;} </style> <g id="Layer-1"> <path class="st0" d="M344.1,558H330V276.2h14.2V558z"></path> </g> <g id="Layer-1_1_"> <path class="st0" d="M217.8,284.7h-14.2v-87h14.2V284.7z"></path> </g> <g id="Layer-1_2_"> <path class="st0" d="M169.2,195h48.6v14.2h-48.6V195z"></path> </g> <g id="Layer-1_3_"> <path class="st0" d="M344.1,560.2H330V270h14.2V560.2z"></path> </g> <g id="Layer-1_4_"> <path class="st0" d="M217.8,286.8h-14.2V195h14.2V286.8z"></path> </g> <g id="Layer-1_5_"> <path class="st0" d="M166.5,195h51.4v14.2h-51.4V195z"></path> </g> <g id="Layer-1_6_"> <path class="st0" d="M166.8,560.2h-14.2V32.5h14.2V560.2z"></path> </g> <g id="Layer-1_7_"> <path class="st0" d="M14.5,638.8H0.4v-398h14.2V638.8z"></path> </g> <g id="Layer-1_8_"> <path class="st1" d="M157.3,350.6h4.7l-2.3-2.3L157.3,350.6z"></path> </g> <g id="Layer-1_9_"> <path class="st1" d="M157.3,378.6h4.7l-2.3-2.3L157.3,378.6z"></path> </g> <g id="Layer-1_10_"> <path class="st1" d="M157.3,406.5h4.7l-2.3-2.3L157.3,406.5z"></path> </g> <g id="Layer-1_11_"> <path class="st1" d="M157.3,434.5h4.7l-2.3-2.3L157.3,434.5z"></path> </g> <g id="Layer-1_12_"> <path class="st1" d="M157.3,196.7h4.7l-2.3-2.3L157.3,196.7z"></path> </g> <g id="Layer-1_13_"> <path class="st1" d="M157.3,364.6h4.7l-2.3-2.3L157.3,364.6z"></path> </g> <g id="Layer-1_14_"> <path class="st1" d="M157.3,392.6h4.7l-2.3-2.3L157.3,392.6z"></path> </g> <g id="Layer-1_15_"> <path class="st1" d="M157.3,420.5h4.7l-2.3-2.3L157.3,420.5z"></path> </g> <g id="Layer-1_16_"> <path class="st1" d="M157.3,448.5h4.7l-2.3-2.3L157.3,448.5z"></path> </g> <g id="Layer-1_17_"> <path class="st1" d="M157.3,355.2h4.7l-2.3-2.3L157.3,355.2z"></path> </g> <g id="Layer-1_18_"> <path class="st1" d="M157.3,383.2h4.7l-2.3-2.3L157.3,383.2z"></path> </g> <g id="Layer-1_19_"> <path class="st1" d="M157.3,411.2h4.7l-2.3-2.3L157.3,411.2z"></path> </g> <g id="Layer-1_20_"> <path class="st1" d="M157.3,439.2h4.7l-2.3-2.3L157.3,439.2z"></path> </g> <g id="Layer-1_21_"> <path class="st1" d="M157.3,201.3h4.7l-2.3-2.3L157.3,201.3z"></path> </g> <g id="Layer-1_22_"> <path class="st1" d="M157.3,369.2h4.7l-2.3-2.3L157.3,369.2z"></path> </g> <g id="Layer-1_23_"> <path class="st1" d="M157.3,397.2h4.7l-2.3-2.3L157.3,397.2z"></path> </g> <g id="Layer-1_24_"> <path class="st1" d="M157.3,425.2h4.7l-2.3-2.3L157.3,425.2z"></path> </g> <g id="Layer-1_25_"> <path class="st1" d="M157.3,453.2h4.7l-2.3-2.3L157.3,453.2z"></path> </g> <g id="Layer-1_26_"> <path class="st1" d="M157.3,192h4.7l-2.3-2.3L157.3,192z"></path> </g> <g id="Layer-1_27_"> <path class="st1" d="M157.3,359.9h4.7l-2.3-2.3L157.3,359.9z"></path> </g> <g id="Layer-1_28_"> <path class="st1" d="M157.3,387.9h4.7l-2.3-2.3L157.3,387.9z"></path> </g> <g id="Layer-1_29_"> <path class="st1" d="M157.3,415.9h4.7l-2.3-2.3L157.3,415.9z"></path> </g> <g id="Layer-1_30_"> <path class="st1" d="M157.3,443.9h4.7l-2.3-2.3L157.3,443.9z"></path> </g> <g id="Layer-1_31_"> <path class="st1" d="M157.3,210.6h4.7l-2.3-2.3L157.3,210.6z"></path> <path class="st1" d="M157.3,266.6h4.7l-2.3-2.3L157.3,266.6z"></path> <path class="st1" d="M157.3,294.6h4.7l-2.3-2.3L157.3,294.6z"></path> <path class="st1" d="M157.3,322.6h4.7l-2.3-2.3L157.3,322.6z"></path> <path class="st1" d="M157.3,224.6h4.7l-2.3-2.3L157.3,224.6z"></path> <path class="st1" d="M157.3,252.6h4.7l-2.3-2.3L157.3,252.6z"></path> <path class="st1" d="M157.3,280.6h4.7l-2.3-2.3L157.3,280.6z"></path> <path class="st1" d="M157.3,308.6h4.7l-2.3-2.3L157.3,308.6z"></path> <path class="st1" d="M157.3,336.6h4.7l-2.3-2.3L157.3,336.6z"></path> <path class="st1" d="M157.3,215.3h4.7l-2.3-2.3L157.3,215.3z"></path> <path class="st1" d="M157.3,271.3h4.7l-2.3-2.3L157.3,271.3z"></path> <path class="st1" d="M157.3,299.3h4.7l-2.3-2.3L157.3,299.3z"></path> <path class="st1" d="M157.3,327.3h4.7l-2.3-2.3L157.3,327.3z"></path> <path class="st1" d="M157.3,229.3h4.7l-2.3-2.3L157.3,229.3z"></path> <path class="st1" d="M157.3,257.3h4.7l-2.3-2.3L157.3,257.3z"></path> <path class="st1" d="M157.3,285.3h4.7l-2.3-2.3L157.3,285.3z"></path> <path class="st1" d="M157.3,313.3h4.7l-2.3-2.3L157.3,313.3z"></path> <path class="st1" d="M157.3,341.2h4.7l-2.3-2.3L157.3,341.2z"></path> <path class="st1" d="M157.3,220h4.7l-2.3-2.3L157.3,220z"></path> <path class="st1" d="M157.3,248h4.7l-2.3-2.3L157.3,248z"></path> <path class="st1" d="M157.3,275.9h4.7l-2.3-2.3L157.3,275.9z"></path> <path class="st1" d="M157.3,303.9h4.7l-2.3-2.3L157.3,303.9z"></path> <path class="st1" d="M157.3,331.9h4.7l-2.3-2.3L157.3,331.9z"></path> <path class="st1" d="M157.3,206h4.7l-2.3-2.3L157.3,206z"></path> <path class="st1" d="M157.3,262h4.7l-2.3-2.3L157.3,262z"></path> <path class="st1" d="M157.3,289.9h4.7l-2.3-2.3L157.3,289.9z"></path> <path class="st1" d="M157.3,317.9h4.7l-2.3-2.3L157.3,317.9z"></path> </g> <g id="Layer-1_32_"> <path class="st1" d="M157.3,345.9h4.7l-2.3-2.3L157.3,345.9z"></path> </g> <g id="Layer-1_33_"> <path class="st1" d="M157.3,373.9h4.7l-2.3-2.3L157.3,373.9z"></path> </g> <g id="Layer-1_34_"> <path class="st1" d="M157.3,401.9h4.7l-2.3-2.3L157.3,401.9z"></path> </g> <g id="Layer-1_35_"> <path class="st1" d="M157.3,429.9h4.7l-2.3-2.3L157.3,429.9z"></path> </g> <g id="Layer-1_36_"> <path class="st1" d="M5.1,402.6h4.7l-2.3-2.3L5.1,402.6z"></path> </g> <g id="Layer-1_37_"> <path class="st1" d="M5.1,430.6h4.7l-2.3-2.3L5.1,430.6z"></path> </g> <g id="Layer-1_38_"> <path class="st1" d="M5.1,458.6h4.7l-2.3-2.3L5.1,458.6z"></path> </g> <g id="Layer-1_39_"> <path class="st1" d="M5.1,486.5h4.7l-2.3-2.3L5.1,486.5z"></path> </g> <g id="Layer-1_40_"> <path class="st1" d="M5.1,248.7h4.7l-2.3-2.3L5.1,248.7z"></path> </g> <g id="Layer-1_41_"> <path class="st1" d="M5.1,416.6h4.7l-2.3-2.3L5.1,416.6z"></path> </g> <g id="Layer-1_42_"> <path class="st1" d="M5.1,444.6h4.7l-2.3-2.3L5.1,444.6z"></path> </g> <g id="Layer-1_43_"> <path class="st1" d="M5.1,472.6h4.7l-2.3-2.3L5.1,472.6z"></path> </g> <g id="Layer-1_44_"> <path class="st1" d="M5.1,500.5h4.7l-2.3-2.3L5.1,500.5z"></path> </g> <g id="Layer-1_45_"> <path class="st1" d="M5.1,407.3h4.7l-2.3-2.3L5.1,407.3z"></path> </g> <g id="Layer-1_46_"> <path class="st1" d="M5.1,435.2h4.7l-2.3-2.3L5.1,435.2z"></path> </g> <g id="Layer-1_47_"> <path class="st1" d="M5.1,463.2h4.7l-2.3-2.3L5.1,463.2z"></path> </g> <g id="Layer-1_48_"> <path class="st1" d="M5.1,491.2h4.7l-2.3-2.3L5.1,491.2z"></path> </g> <g id="Layer-1_49_"> <path class="st1" d="M5.1,253.3h4.7L7.5,251L5.1,253.3z"></path> </g> <g id="Layer-1_50_"> <path class="st1" d="M5.1,421.2h4.7l-2.3-2.3L5.1,421.2z"></path> </g> <g id="Layer-1_51_"> <path class="st1" d="M5.1,449.2h4.7l-2.3-2.3L5.1,449.2z"></path> </g> <g id="Layer-1_52_"> <path class="st1" d="M5.1,477.2h4.7l-2.3-2.3L5.1,477.2z"></path> </g> <g id="Layer-1_53_"> <path class="st1" d="M5.1,505.2h4.7l-2.3-2.3L5.1,505.2z"></path> </g> <g id="Layer-1_54_"> <path class="st1" d="M5.1,244h4.7l-2.3-2.3L5.1,244z"></path> </g> <g id="Layer-1_55_"> <path class="st1" d="M5.1,411.9h4.7l-2.3-2.3L5.1,411.9z"></path> </g> <g id="Layer-1_56_"> <path class="st1" d="M5.1,439.9h4.7l-2.3-2.3L5.1,439.9z"></path> </g> <g id="Layer-1_57_"> <path class="st1" d="M5.1,467.9h4.7l-2.3-2.3L5.1,467.9z"></path> </g> <g id="Layer-1_58_"> <path class="st1" d="M5.1,495.9h4.7l-2.3-2.3L5.1,495.9z"></path> </g> <g id="Layer-1_59_"> <path class="st1" d="M5.1,262.7h4.7l-2.3-2.3L5.1,262.7z"></path> <path class="st1" d="M5.1,318.6h4.7l-2.3-2.3L5.1,318.6z"></path> <path class="st1" d="M5.1,346.6h4.7l-2.3-2.3L5.1,346.6z"></path> <path class="st1" d="M5.1,374.6h4.7l-2.3-2.3L5.1,374.6z"></path> <path class="st1" d="M5.1,276.7h4.7l-2.3-2.3L5.1,276.7z"></path> <path class="st1" d="M5.1,304.6h4.7l-2.3-2.3L5.1,304.6z"></path> <path class="st1" d="M5.1,332.6h4.7l-2.3-2.3L5.1,332.6z"></path> <path class="st1" d="M5.1,360.6h4.7l-2.3-2.3L5.1,360.6z"></path> <path class="st1" d="M5.1,388.6h4.7l-2.3-2.3L5.1,388.6z"></path> <path class="st1" d="M5.1,267.3h4.7L7.5,265L5.1,267.3z"></path> <path class="st1" d="M5.1,323.3h4.7L7.5,321L5.1,323.3z"></path> <path class="st1" d="M5.1,351.3h4.7l-2.3-2.3L5.1,351.3z"></path> <path class="st1" d="M5.1,379.3h4.7l-2.3-2.3L5.1,379.3z"></path> <path class="st1" d="M5.1,281.3h4.7L7.5,279L5.1,281.3z"></path> <path class="st1" d="M5.1,309.3h4.7L7.5,307L5.1,309.3z"></path> <path class="st1" d="M5.1,337.3h4.7l-2.3-2.3L5.1,337.3z"></path> <path class="st1" d="M5.1,365.3h4.7l-2.3-2.3L5.1,365.3z"></path> <path class="st1" d="M5.1,393.3h4.7l-2.3-2.3L5.1,393.3z"></path> <path class="st1" d="M5.1,272h4.7l-2.3-2.3L5.1,272z"></path> <path class="st1" d="M5.1,300h4.7l-2.3-2.3L5.1,300z"></path> <path class="st1" d="M5.1,328h4.7l-2.3-2.3L5.1,328z"></path> <path class="st1" d="M5.1,355.9h4.7l-2.3-2.3L5.1,355.9z"></path> <path class="st1" d="M5.1,383.9h4.7l-2.3-2.3L5.1,383.9z"></path> <path class="st1" d="M5.1,258h4.7l-2.3-2.3L5.1,258z"></path> <path class="st1" d="M5.1,314h4.7l-2.3-2.3L5.1,314z"></path> <path class="st1" d="M5.1,342h4.7l-2.3-2.3L5.1,342z"></path> <path class="st1" d="M5.1,369.9h4.7l-2.3-2.3L5.1,369.9z"></path> </g> <g id="Layer-1_60_"> <path class="st1" d="M5.1,397.9h4.7l-2.3-2.3L5.1,397.9z"></path> </g> <g id="Layer-1_61_"> <path class="st1" d="M5.1,425.9h4.7l-2.3-2.3L5.1,425.9z"></path> </g> <g id="Layer-1_62_"> <path class="st1" d="M5.1,453.9h4.7l-2.3-2.3L5.1,453.9z"></path> </g> <g id="Layer-1_63_"> <path class="st1" d="M5.1,481.9h4.7l-2.3-2.3L5.1,481.9z"></path> </g> <g id="Layer-1_64_"> <path class="st1" d="M5.1,669.4h4.7L7.5,667L5.1,669.4z"></path> </g> <g id="Layer-1_66_"> <path class="st1" d="M5.1,515.5h4.7l-2.3-2.3L5.1,515.5z"></path> </g> <g id="Layer-1_69_"> <path class="st1" d="M5.1,674h4.7l-2.3-2.3L5.1,674z"></path> </g> <g id="Layer-1_71_"> <path class="st1" d="M5.1,520.1h4.7l-2.3-2.3L5.1,520.1z"></path> </g> <g id="Layer-1_74_"> <path class="st1" d="M5.1,510.8h4.7l-2.3-2.3L5.1,510.8z"></path> </g> <g id="Layer-1_75_"> <path class="st1" d="M5.1,678.7h4.7l-2.3-2.3L5.1,678.7z"></path> </g> <g id="Layer-1_77_"> <path class="st1" d="M5.1,529.5h4.7l-2.3-2.3L5.1,529.5z"></path> <path class="st1" d="M5.1,585.4h4.7l-2.3-2.3L5.1,585.4z"></path> <path class="st1" d="M5.1,613.4h4.7l-2.3-2.3L5.1,613.4z"></path> <path class="st1" d="M5.1,641.4h4.7l-2.3-2.3L5.1,641.4z"></path> <path class="st1" d="M5.1,571.4h4.7l-2.3-2.3L5.1,571.4z"></path> <path class="st1" d="M5.1,599.4h4.7l-2.3-2.3L5.1,599.4z"></path> <path class="st1" d="M5.1,627.4h4.7l-2.3-2.3L5.1,627.4z"></path> <path class="st1" d="M5.1,655.4h4.7L7.5,653L5.1,655.4z"></path> <path class="st1" d="M5.1,534.1h4.7l-2.3-2.3L5.1,534.1z"></path> <path class="st1" d="M5.1,590.1h4.7l-2.3-2.3L5.1,590.1z"></path> <path class="st1" d="M5.1,618.1h4.7l-2.3-2.3L5.1,618.1z"></path> <path class="st1" d="M5.1,646.1h4.7l-2.3-2.3L5.1,646.1z"></path> <path class="st1" d="M5.1,576.1h4.7l-2.3-2.3L5.1,576.1z"></path> <path class="st1" d="M5.1,604.1h4.7l-2.3-2.3L5.1,604.1z"></path> <path class="st1" d="M5.1,632.1h4.7l-2.3-2.3L5.1,632.1z"></path> <path class="st1" d="M5.1,660.1h4.7l-2.3-2.3L5.1,660.1z"></path> <path class="st1" d="M5.1,538.8h4.7l-2.3-2.3L5.1,538.8z"></path> <path class="st1" d="M5.1,566.8h4.7l-2.3-2.3L5.1,566.8z"></path> <path class="st1" d="M5.1,594.8h4.7l-2.3-2.3L5.1,594.8z"></path> <path class="st1" d="M5.1,622.7h4.7l-2.3-2.3L5.1,622.7z"></path> <path class="st1" d="M5.1,650.7h4.7l-2.3-2.3L5.1,650.7z"></path> <path class="st1" d="M5.1,524.8h4.7l-2.3-2.3L5.1,524.8z"></path> <path class="st1" d="M5.1,580.8h4.7l-2.3-2.3L5.1,580.8z"></path> <path class="st1" d="M5.1,608.7h4.7l-2.3-2.3L5.1,608.7z"></path> </g> <g id="Layer-1_78_"> <path class="st1" d="M5.1,664.7h4.7l-2.3-2.3L5.1,664.7z"></path> </g> <g id="Layer-1_80_"> <path class="st1" d="M334.7,350.6h4.7l-2.3-2.3L334.7,350.6z"></path> </g> <g id="Layer-1_81_"> <path class="st1" d="M334.7,378.6h4.7l-2.3-2.3L334.7,378.6z"></path> </g> <g id="Layer-1_82_"> <path class="st1" d="M334.7,406.5h4.7l-2.3-2.3L334.7,406.5z"></path> </g> <g id="Layer-1_83_"> <path class="st1" d="M334.7,434.5h4.7l-2.3-2.3L334.7,434.5z"></path> </g> <g id="Layer-1_84_"> <path class="st1" d="M334.7,364.6h4.7l-2.3-2.3L334.7,364.6z"></path> </g> <g id="Layer-1_85_"> <path class="st1" d="M334.7,392.6h4.7l-2.3-2.3L334.7,392.6z"></path> </g> <g id="Layer-1_86_"> <path class="st1" d="M334.7,420.5h4.7l-2.3-2.3L334.7,420.5z"></path> </g> <g id="Layer-1_87_"> <path class="st1" d="M334.7,448.5h4.7l-2.3-2.3L334.7,448.5z"></path> </g> <g id="Layer-1_88_"> <path class="st1" d="M334.7,355.2h4.7l-2.3-2.3L334.7,355.2z"></path> </g> <g id="Layer-1_89_"> <path class="st1" d="M334.7,383.2h4.7l-2.3-2.3L334.7,383.2z"></path> </g> <g id="Layer-1_90_"> <path class="st1" d="M334.7,411.2h4.7l-2.3-2.3L334.7,411.2z"></path> </g> <g id="Layer-1_91_"> <path class="st1" d="M334.7,439.2h4.7l-2.3-2.3L334.7,439.2z"></path> </g> <g id="Layer-1_92_"> <path class="st1" d="M334.7,369.2h4.7l-2.3-2.3L334.7,369.2z"></path> </g> <g id="Layer-1_93_"> <path class="st1" d="M334.7,397.2h4.7l-2.3-2.3L334.7,397.2z"></path> </g> <g id="Layer-1_94_"> <path class="st1" d="M334.7,425.2h4.7l-2.3-2.3L334.7,425.2z"></path> </g> <g id="Layer-1_95_"> <path class="st1" d="M334.7,453.2h4.7l-2.3-2.3L334.7,453.2z"></path> </g> <g id="Layer-1_96_"> <path class="st1" d="M334.7,359.9h4.7l-2.3-2.3L334.7,359.9z"></path> </g> <g id="Layer-1_97_"> <path class="st1" d="M334.7,387.9h4.7l-2.3-2.3L334.7,387.9z"></path> </g> <g id="Layer-1_98_"> <path class="st1" d="M334.7,415.9h4.7l-2.3-2.3L334.7,415.9z"></path> </g> <g id="Layer-1_99_"> <path class="st1" d="M334.7,443.9h4.7l-2.3-2.3L334.7,443.9z"></path> </g> <g id="Layer-1_100_"> <path class="st1" d="M334.7,238.6h4.7l-2.3-2.3L334.7,238.6z"></path> <path class="st1" d="M334.7,266.6h4.7l-2.3-2.3L334.7,266.6z"></path> <path class="st1" d="M334.7,294.6h4.7l-2.3-2.3L334.7,294.6z"></path> <path class="st1" d="M334.7,322.6h4.7l-2.3-2.3L334.7,322.6z"></path> <path class="st1" d="M334.7,252.6h4.7l-2.3-2.3L334.7,252.6z"></path> <path class="st1" d="M334.7,280.6h4.7l-2.3-2.3L334.7,280.6z"></path> <path class="st1" d="M334.7,308.6h4.7l-2.3-2.3L334.7,308.6z"></path> <path class="st1" d="M334.7,336.6h4.7l-2.3-2.3L334.7,336.6z"></path> <path class="st1" d="M334.7,299.3h4.7l-2.3-2.3L334.7,299.3z"></path> <path class="st1" d="M334.7,327.3h4.7l-2.3-2.3L334.7,327.3z"></path> <path class="st1" d="M334.7,257.3h4.7l-2.3-2.3L334.7,257.3z"></path> <path class="st1" d="M334.7,285.3h4.7l-2.3-2.3L334.7,285.3z"></path> <path class="st1" d="M334.7,313.3h4.7l-2.3-2.3L334.7,313.3z"></path> <path class="st1" d="M334.7,341.2h4.7l-2.3-2.3L334.7,341.2z"></path> <path class="st1" d="M334.7,248h4.7l-2.3-2.3L334.7,248z"></path> <path class="st1" d="M334.7,275.9h4.7l-2.3-2.3L334.7,275.9z"></path> <path class="st1" d="M334.7,303.9h4.7l-2.3-2.3L334.7,303.9z"></path> <path class="st1" d="M334.7,331.9h4.7l-2.3-2.3L334.7,331.9z"></path> <path class="st1" d="M334.7,234h4.7l-2.3-2.3L334.7,234z"></path> <path class="st1" d="M334.7,262h4.7l-2.3-2.3L334.7,262z"></path> <path class="st1" d="M334.7,289.9h4.7l-2.3-2.3L334.7,289.9z"></path> <path class="st1" d="M334.7,317.9h4.7l-2.3-2.3L334.7,317.9z"></path> </g> <g id="Layer-1_101_"> <path class="st1" d="M334.7,345.9h4.7l-2.3-2.3L334.7,345.9z"></path> </g> <g id="Layer-1_102_"> <path class="st1" d="M334.7,373.9h4.7l-2.3-2.3L334.7,373.9z"></path> </g> <g id="Layer-1_103_"> <path class="st1" d="M334.7,401.9h4.7l-2.3-2.3L334.7,401.9z"></path> </g> <g id="Layer-1_104_"> <path class="st1" d="M334.7,429.9h4.7l-2.3-2.3L334.7,429.9z"></path> </g> <g id="Layer-1_105_"> <path class="st1" d="M157.3,116h4.7l-2.3-2.3L157.3,116z"></path> </g> <g id="Layer-1_106_"> <path class="st1" d="M157.3,144h4.7l-2.3-2.3L157.3,144z"></path> </g> <g id="Layer-1_107_"> <path class="st1" d="M157.3,172h4.7l-2.3-2.3L157.3,172z"></path> </g> <g id="Layer-1_108_"> <path class="st1" d="M157.3,130h4.7l-2.3-2.3L157.3,130z"></path> </g> <g id="Layer-1_109_"> <path class="st1" d="M157.3,158h4.7l-2.3-2.3L157.3,158z"></path> </g> <g id="Layer-1_110_"> <path class="st1" d="M157.3,120.6h4.7l-2.3-2.3L157.3,120.6z"></path> </g> <g id="Layer-1_111_"> <path class="st1" d="M157.3,148.6h4.7l-2.3-2.3L157.3,148.6z"></path> </g> <g id="Layer-1_112_"> <path class="st1" d="M157.3,176.6h4.7l-2.3-2.3L157.3,176.6z"></path> </g> <g id="Layer-1_113_"> <path class="st1" d="M157.3,134.6h4.7l-2.3-2.3L157.3,134.6z"></path> </g> <g id="Layer-1_114_"> <path class="st1" d="M157.3,162.6h4.7l-2.3-2.3L157.3,162.6z"></path> </g> <g id="Layer-1_115_"> <path class="st1" d="M157.3,125.3h4.7l-2.3-2.3L157.3,125.3z"></path> </g> <g id="Layer-1_116_"> <path class="st1" d="M157.3,153.3h4.7l-2.3-2.3L157.3,153.3z"></path> </g> <g id="Layer-1_117_"> <path class="st1" d="M157.3,32h4.7l-2.3-2.3L157.3,32z"></path> <path class="st1" d="M157.3,60h4.7l-2.3-2.3L157.3,60z"></path> <path class="st1" d="M157.3,88h4.7l-2.3-2.3L157.3,88z"></path> <path class="st1" d="M157.3,46h4.7l-2.3-2.3L157.3,46z"></path> <path class="st1" d="M157.3,74h4.7l-2.3-2.3L157.3,74z"></path> <path class="st1" d="M157.3,102h4.7l-2.3-2.3L157.3,102z"></path> <path class="st1" d="M157.3,36.7h4.7l-2.3-2.3L157.3,36.7z"></path> <path class="st1" d="M157.3,64.7h4.7l-2.3-2.3L157.3,64.7z"></path> <path class="st1" d="M157.3,92.7h4.7l-2.3-2.3L157.3,92.7z"></path> <path class="st1" d="M157.3,50.7h4.7l-2.3-2.3L157.3,50.7z"></path> <path class="st1" d="M157.3,78.7h4.7l-2.3-2.3L157.3,78.7z"></path> <path class="st1" d="M157.3,106.7h4.7l-2.3-2.3L157.3,106.7z"></path> <path class="st1" d="M157.3,41.4h4.7l-2.3-2.3L157.3,41.4z"></path> <path class="st1" d="M157.3,69.3h4.7l-2.3-2.3L157.3,69.3z"></path> <path class="st1" d="M157.3,97.3h4.7l-2.3-2.3L157.3,97.3z"></path> <path class="st1" d="M157.3,27.4h4.7l-2.3-2.3L157.3,27.4z"></path> <path class="st1" d="M157.3,55.3h4.7l-2.3-2.3L157.3,55.3z"></path> <path class="st1" d="M157.3,83.3h4.7l-2.3-2.3L157.3,83.3z"></path> </g> <g id="Layer-1_118_"> <path class="st1" d="M157.3,111.3h4.7l-2.3-2.3L157.3,111.3z"></path> </g> <g id="Layer-1_119_"> <path class="st1" d="M157.3,139.3h4.7l-2.3-2.3L157.3,139.3z"></path> </g> <g id="Layer-1_120_"> <path class="st1" d="M157.3,167.3h4.7l-2.3-2.3L157.3,167.3z"></path> </g> <g id="Layer-1_121_"> <path class="st1" d="M157.2,462.8h4.7l-2.3-2.3L157.2,462.8z"></path> <path class="st1" d="M157.2,490.7h4.7l-2.3-2.3L157.2,490.7z"></path> <path class="st1" d="M157.2,518.7h4.7l-2.3-2.3L157.2,518.7z"></path> <path class="st1" d="M157.2,476.7h4.7l-2.3-2.3L157.2,476.7z"></path> <path class="st1" d="M157.2,504.7h4.7l-2.3-2.3L157.2,504.7z"></path> <path class="st1" d="M157.2,532.7h4.7l-2.3-2.3L157.2,532.7z"></path> <path class="st1" d="M157.2,467.4h4.7l-2.3-2.3L157.2,467.4z"></path> <path class="st1" d="M157.2,495.4h4.7l-2.3-2.3L157.2,495.4z"></path> <path class="st1" d="M157.2,523.4h4.7l-2.3-2.3L157.2,523.4z"></path> <path class="st1" d="M157.2,481.4h4.7l-2.3-2.3L157.2,481.4z"></path> <path class="st1" d="M157.2,509.4h4.7l-2.3-2.3L157.2,509.4z"></path> <path class="st1" d="M157.2,537.4h4.7l-2.3-2.3L157.2,537.4z"></path> <path class="st1" d="M157.2,472.1h4.7l-2.3-2.3L157.2,472.1z"></path> <path class="st1" d="M157.2,500.1h4.7l-2.3-2.3L157.2,500.1z"></path> <path class="st1" d="M157.2,528.1h4.7l-2.3-2.3L157.2,528.1z"></path> <path class="st1" d="M157.2,458.1h4.7l-2.3-2.3L157.2,458.1z"></path> <path class="st1" d="M157.2,486.1h4.7l-2.3-2.3L157.2,486.1z"></path> <path class="st1" d="M157.2,514.1h4.7l-2.3-2.3L157.2,514.1z"></path> </g> <g id="Layer-1_122_"> <path class="st1" d="M334.6,462.8h4.7l-2.3-2.3L334.6,462.8z"></path> <path class="st1" d="M334.6,490.7h4.7l-2.3-2.3L334.6,490.7z"></path> <path class="st1" d="M334.6,518.7h4.7l-2.3-2.3L334.6,518.7z"></path> <path class="st1" d="M334.6,476.7h4.7l-2.3-2.3L334.6,476.7z"></path> <path class="st1" d="M334.6,504.7h4.7l-2.3-2.3L334.6,504.7z"></path> <path class="st1" d="M334.6,532.7h4.7l-2.3-2.3L334.6,532.7z"></path> <path class="st1" d="M334.6,467.4h4.7l-2.3-2.3L334.6,467.4z"></path> <path class="st1" d="M334.6,495.4h4.7l-2.3-2.3L334.6,495.4z"></path> <path class="st1" d="M334.6,523.4h4.7L337,521L334.6,523.4z"></path> <path class="st1" d="M334.6,481.4h4.7l-2.3-2.3L334.6,481.4z"></path> <path class="st1" d="M334.6,509.4h4.7l-2.3-2.3L334.6,509.4z"></path> <path class="st1" d="M334.6,537.4h4.7L337,535L334.6,537.4z"></path> <path class="st1" d="M334.6,472.1h4.7l-2.3-2.3L334.6,472.1z"></path> <path class="st1" d="M334.6,500.1h4.7l-2.3-2.3L334.6,500.1z"></path> <path class="st1" d="M334.6,528.1h4.7l-2.3-2.3L334.6,528.1z"></path> <path class="st1" d="M334.6,458.1h4.7l-2.3-2.3L334.6,458.1z"></path> <path class="st1" d="M334.6,486.1h4.7l-2.3-2.3L334.6,486.1z"></path> <path class="st1" d="M334.6,514.1h4.7l-2.3-2.3L334.6,514.1z"></path> </g> <g id="Layer-1_123_"> <path class="st1" d="M208.3,217.4h4.7l-2.3-2.3L208.3,217.4z"></path> <path class="st1" d="M208.3,245.4h4.7l-2.3-2.3L208.3,245.4z"></path> <path class="st1" d="M208.3,231.4h4.7l-2.3-2.3L208.3,231.4z"></path> <path class="st1" d="M208.3,259.4h4.7l-2.3-2.3L208.3,259.4z"></path> <path class="st1" d="M208.3,222.1h4.7l-2.3-2.3L208.3,222.1z"></path> <path class="st1" d="M208.3,250.1h4.7l-2.3-2.3L208.3,250.1z"></path> <path class="st1" d="M208.3,208.1h4.7l-2.3-2.3L208.3,208.1z"></path> <path class="st1" d="M208.3,236.1h4.7l-2.3-2.3L208.3,236.1z"></path> <path class="st1" d="M208.3,264.1h4.7l-2.3-2.3L208.3,264.1z"></path> <path class="st1" d="M208.3,226.7h4.7l-2.3-2.3L208.3,226.7z"></path> <path class="st1" d="M208.3,254.7h4.7l-2.3-2.3L208.3,254.7z"></path> <path class="st1" d="M208.3,212.8h4.7l-2.3-2.3L208.3,212.8z"></path> <path class="st1" d="M208.3,240.7h4.7l-2.3-2.3L208.3,240.7z"></path> </g> <g id="Layer-1_124_"> <path class="st1" d="M185.3,204.5v-4.7l-2.3,2.3L185.3,204.5z"></path> <path class="st1" d="M213.3,204.5v-4.7l-2.3,2.3L213.3,204.5z"></path> <path class="st1" d="M171.3,204.5v-4.7l-2.3,2.3L171.3,204.5z"></path> <path class="st1" d="M199.3,204.5v-4.7l-2.3,2.3L199.3,204.5z"></path> <path class="st1" d="M227.3,204.5v-4.7l-2.3,2.3L227.3,204.5z"></path> <path class="st1" d="M190,204.5v-4.7l-2.3,2.3L190,204.5z"></path> <path class="st1" d="M176,204.5v-4.7l-2.3,2.3L176,204.5z"></path> <path class="st1" d="M204,204.5v-4.7l-2.3,2.3L204,204.5z"></path> <path class="st1" d="M232,204.5v-4.7l-2.3,2.3L232,204.5z"></path> <path class="st1" d="M194.7,204.5v-4.7l-2.3,2.3L194.7,204.5z"></path> <path class="st1" d="M222.6,204.5v-4.7l-2.3,2.3L222.6,204.5z"></path> <path class="st1" d="M180.7,204.5v-4.7l-2.3,2.3L180.7,204.5z"></path> <path class="st1" d="M208.6,204.5v-4.7l-2.3,2.3L208.6,204.5z"></path> </g> <g id="Layer-1_127_"> <path class="st2" d="M343.9,638.3H173.5v-78.1h170.4V638.3z"></path> </g> <g id="Layer-1_128_"> <path class="st2" d="M166.8,638.3H0v-78.1h166.8V638.3z"></path> </g> <g id="Layer-1_129_"> <path class="st3" d="M343.8,638.5H173.8v-78.1h170.1V638.5z"></path> </g> <g id="Layer-1_130_"> <path class="st3" d="M166.8,638.5H0.3v-78.1h166.5V638.5z"></path> </g> <g id="Layer-1_131_"> <text transform="matrix(1 0 0 1 212.0585 580.0002)" class="st4 st5 st6">O</text> <text transform="matrix(1 0 0 1 218.2905 580.0002)" class="st4 st5 st6">h</text> <text transform="matrix(1 0 0 1 223.7815 580.0002)" class="st4 st5 st6">n</text> <text transform="matrix(1 0 0 1 229.2725 580.0002)" class="st4 st5 st6">e</text> <text transform="matrix(1 0 0 1 234.488 580.0002)" class="st4 st5 st6"> </text> <text transform="matrix(1 0 0 1 236.863 580.0002)" class="st4 st5 st6">S</text> <text transform="matrix(1 0 0 1 242.563 580.0002)" class="st4 st5 st6">c</text> <text transform="matrix(1 0 0 1 247.2655 580.0002)" class="st4 st5 st6">h</text> <text transform="matrix(1 0 0 1 252.7565 580.0002)" class="st4 st5 st6">u</text> <text transform="matrix(1 0 0 1 258.2475 580.0002)" class="st4 st5 st6">l</text> <text transform="matrix(1 0 0 1 261.297 580.0002)" class="st4 st5 st6">a</text> <text transform="matrix(1 0 0 1 266.427 580.0002)" class="st4 st5 st6">b</text> <text transform="matrix(1 0 0 1 271.7755 580.0002)" class="st4 st5 st6">s</text> <text transform="matrix(1 0 0 1 276.6111 580.0002)" class="st4 st5 st6">c</text> <text transform="matrix(1 0 0 1 281.3136 580.0002)" class="st4 st5 st6">h</text> <text transform="matrix(1 0 0 1 286.8046 580.0002)" class="st4 st5 st6">l</text> <text transform="matrix(1 0 0 1 289.8541 580.0002)" class="st4 st5 st6">u</text> <text transform="matrix(1 0 0 1 295.3451 580.0002)" class="st4 st5 st6">s</text> <text transform="matrix(1 0 0 1 300.1331 580.0002)" class="st4 st5 st6">s</text> <text transform="matrix(1 0 0 1 304.8736 580.0002)" class="st4 st5 st6"> </text> </g> <g id="Layer-1_132_"> <text transform="matrix(1 0 0 1 184.0009 591.0002)" class="st1 st5 st6">w</text> <text transform="matrix(1 0 0 1 191.0309 591.0002)" class="st1 st5 st6">i</text> <text transform="matrix(1 0 0 1 193.5104 591.0002)" class="st1 st5 st6">t</text> <text transform="matrix(1 0 0 1 196.7309 591.0002)" class="st1 st5 st6">h</text> <text transform="matrix(1 0 0 1 202.0984 591.0002)" class="st1 st5 st6">o</text> <text transform="matrix(1 0 0 1 207.1714 591.0002)" class="st1 st5 st6">u</text> <text transform="matrix(1 0 0 1 212.5389 591.0002)" class="st1 st5 st6">t</text> <text transform="matrix(1 0 0 1 215.7594 591.0002)" class="st1 st5 st6"> </text> <text transform="matrix(1 0 0 1 218.0109 591.0002)" class="st1 st5 st6">s</text> <text transform="matrix(1 0 0 1 222.7229 591.0002)" class="st1 st5 st6">c</text> <text transform="matrix(1 0 0 1 227.3019 591.0002)" class="st1 st5 st6">h</text> <text transform="matrix(1 0 0 1 232.6694 591.0002)" class="st1 st5 st6">o</text> <text transform="matrix(1 0 0 1 237.7424 591.0002)" class="st1 st5 st6">o</text> <text transform="matrix(1 0 0 1 242.8154 591.0002)" class="st1 st5 st6">l</text> <text transform="matrix(1 0 0 1 245.7414 591.0002)" class="st1 st5 st6"> </text> <text transform="matrix(1 0 0 1 247.9929 591.0002)" class="st1 st5 st6">l</text> <text transform="matrix(1 0 0 1 250.8239 591.0002)" class="st1 st5 st6">e</text> <text transform="matrix(1 0 0 1 255.9159 591.0002)" class="st1 st5 st6">a</text> <text transform="matrix(1 0 0 1 260.9224 591.0002)" class="st1 st5 st6">v</text> <text transform="matrix(1 0 0 1 265.3684 591.0002)" class="st1 st5 st6">i</text> <text transform="matrix(1 0 0 1 267.8479 591.0002)" class="st1 st5 st6">n</text> <text transform="matrix(1 0 0 1 273.2154 591.0002)" class="st1 st5 st6">g</text> <text transform="matrix(1 0 0 1 278.4024 591.0002)" class="st1 st5 st6"> </text> <text transform="matrix(1 0 0 1 280.6539 591.0002)" class="st1 st5 st6">q</text> <text transform="matrix(1 0 0 1 285.8789 591.0002)" class="st1 st5 st6">u</text> <text transform="matrix(1 0 0 1 291.2464 591.0002)" class="st1 st5 st6">a</text> <text transform="matrix(1 0 0 1 296.2529 591.0002)" class="st1 st5 st6">l</text> <text transform="matrix(1 0 0 1 299.1789 591.0002)" class="st1 st5 st6">i</text> <text transform="matrix(1 0 0 1 301.6584 591.0002)" class="st1 st5 st6">f</text> <text transform="matrix(1 0 0 1 304.7458 591.0002)" class="st1 st5 st6">i</text> <text transform="matrix(1 0 0 1 307.2253 591.0002)" class="st1 st5 st6">c</text> <text transform="matrix(1 0 0 1 311.7569 591.0002)" class="st1 st5 st6">a</text> <text transform="matrix(1 0 0 1 316.7634 591.0002)" class="st1 st5 st6">t</text> <text transform="matrix(1 0 0 1 319.9839 591.0002)" class="st1 st5 st6">i</text> <text transform="matrix(1 0 0 1 322.4633 591.0002)" class="st1 st5 st6">o</text> <text transform="matrix(1 0 0 1 327.5363 591.0002)" class="st1 st5 st6">n</text> </g> <g id="Layer-1_133_"> <text transform="matrix(1 0 0 1 187.5964 602.0002)" class="st4 st5 st6">O</text> <text transform="matrix(1 0 0 1 193.8284 602.0002)" class="st4 st5 st6">h</text> <text transform="matrix(1 0 0 1 199.3194 602.0002)" class="st4 st5 st6">n</text> <text transform="matrix(1 0 0 1 204.8104 602.0002)" class="st4 st5 st6">e</text> <text transform="matrix(1 0 0 1 210.0259 602.0002)" class="st4 st5 st6"> </text> <text transform="matrix(1 0 0 1 212.4009 602.0002)" class="st4 st5 st6">/</text> <text transform="matrix(1 0 0 1 216.1059 602.0002)" class="st4 st5 st6"> </text> <text transform="matrix(1 0 0 1 218.4809 602.0002)" class="st4 st5 st6">w</text> <text transform="matrix(1 0 0 1 225.5869 602.0002)" class="st4 st5 st6">e</text> <text transform="matrix(1 0 0 1 230.8024 602.0002)" class="st4 st5 st6">n</text> <text transform="matrix(1 0 0 1 236.2934 602.0002)" class="st4 st5 st6">i</text> <text transform="matrix(1 0 0 1 238.8964 602.0002)" class="st4 st5 st6">g</text> <text transform="matrix(1 0 0 1 244.2069 602.0002)" class="st4 st5 st6"> </text> <text transform="matrix(1 0 0 1 246.5819 602.0002)" class="st4 st5 st6">D</text> <text transform="matrix(1 0 0 1 253.0039 602.0002)" class="st4 st5 st6">e</text> <text transform="matrix(1 0 0 1 258.2194 602.0002)" class="st4 st5 st6">u</text> <text transform="matrix(1 0 0 1 263.7104 602.0002)" class="st4 st5 st6">t</text> <text transform="matrix(1 0 0 1 267.0069 602.0002)" class="st4 st5 st6">s</text> <text transform="matrix(1 0 0 1 271.8424 602.0002)" class="st4 st5 st6">c</text> <text transform="matrix(1 0 0 1 276.545 602.0002)" class="st4 st5 st6">h</text> <text transform="matrix(1 0 0 1 282.0359 602.0002)" class="st4 st5 st6">k</text> <text transform="matrix(1 0 0 1 286.9569 602.0002)" class="st4 st5 st6">e</text> <text transform="matrix(1 0 0 1 292.1725 602.0002)" class="st4 st5 st6">n</text> <text transform="matrix(1 0 0 1 297.6635 602.0002)" class="st4 st5 st6">n</text> <text transform="matrix(1 0 0 1 303.1544 602.0002)" class="st4 st5 st6">t</text> <text transform="matrix(1 0 0 1 306.4984 602.0002)" class="st4 st5 st6">n</text> <text transform="matrix(1 0 0 1 311.9894 602.0002)" class="st4 st5 st6">i</text> <text transform="matrix(1 0 0 1 314.5924 602.0002)" class="st4 st5 st6">s</text> <text transform="matrix(1 0 0 1 319.3805 602.0002)" class="st4 st5 st6">s</text> <text transform="matrix(1 0 0 1 324.216 602.0002)" class="st4 st5 st6">e</text> <text transform="matrix(1 0 0 1 329.3365 602.0002)" class="st4 st5 st6"> </text> </g> <g id="Layer-1_134_"> <text transform="matrix(1 0 0 1 179.4743 613.0002)" class="st1 st5 st6">w</text> <text transform="matrix(1 0 0 1 186.6278 613.0002)" class="st1 st5 st6">i</text> <text transform="matrix(1 0 0 1 189.2308 613.0002)" class="st1 st5 st6">t</text> <text transform="matrix(1 0 0 1 192.5748 613.0002)" class="st1 st5 st6">h</text> <text transform="matrix(1 0 0 1 198.0658 613.0002)" class="st1 st5 st6"> </text> <text transform="matrix(1 0 0 1 200.4408 613.0002)" class="st1 st5 st6">n</text> <text transform="matrix(1 0 0 1 205.9318 613.0002)" class="st1 st5 st6">o</text> <text transform="matrix(1 0 0 1 211.1283 613.0002)" class="st1 st5 st6"> </text> <text transform="matrix(1 0 0 1 213.5033 613.0002)" class="st1 st5 st6">/</text> <text transform="matrix(1 0 0 1 217.2083 613.0002)" class="st1 st5 st6"> </text> <text transform="matrix(1 0 0 1 219.5833 613.0002)" class="st1 st5 st6">l</text> <text transform="matrix(1 0 0 1 222.6328 613.0002)" class="st1 st5 st6">i</text> <text transform="matrix(1 0 0 1 225.2358 613.0002)" class="st1 st5 st6">t</text> <text transform="matrix(1 0 0 1 228.5798 613.0002)" class="st1 st5 st6">t</text> <text transform="matrix(1 0 0 1 231.9238 613.0002)" class="st1 st5 st6">l</text> <text transform="matrix(1 0 0 1 234.8783 613.0002)" class="st1 st5 st6">e</text> <text transform="matrix(1 0 0 1 240.0938 613.0002)" class="st1 st5 st6"> </text> <text transform="matrix(1 0 0 1 242.4688 613.0002)" class="st1 st5 st6">k</text> <text transform="matrix(1 0 0 1 247.7698 613.0002)" class="st1 st5 st6">n</text> <text transform="matrix(1 0 0 1 253.2608 613.0002)" class="st1 st5 st6">o</text> <text transform="matrix(1 0 0 1 258.4098 613.0002)" class="st1 st5 st6">w</text> <text transform="matrix(1 0 0 1 265.5633 613.0002)" class="st1 st5 st6">l</text> <text transform="matrix(1 0 0 1 268.5187 613.0002)" class="st1 st5 st6">e</text> <text transform="matrix(1 0 0 1 273.7343 613.0002)" class="st1 st5 st6">d</text> <text transform="matrix(1 0 0 1 279.0828 613.0002)" class="st1 st5 st6">g</text> <text transform="matrix(1 0 0 1 284.3932 613.0002)" class="st1 st5 st6">e</text> <text transform="matrix(1 0 0 1 289.6088 613.0002)" class="st1 st5 st6"> </text> <text transform="matrix(1 0 0 1 291.9838 613.0002)" class="st1 st5 st6">o</text> <text transform="matrix(1 0 0 1 297.1803 613.0002)" class="st1 st5 st6">f</text> <text transform="matrix(1 0 0 1 300.3913 613.0002)" class="st1 st5 st6"> </text> <text transform="matrix(1 0 0 1 302.7663 613.0002)" class="st1 st5 st6">G</text> <text transform="matrix(1 0 0 1 309.0268 613.0002)" class="st1 st5 st6">e</text> <text transform="matrix(1 0 0 1 314.2423 613.0002)" class="st1 st5 st6">r</text> <text transform="matrix(1 0 0 1 318.5078 613.0002)" class="st1 st5 st6">m</text> <text transform="matrix(1 0 0 1 326.9343 613.0002)" class="st1 st5 st6">a</text> <text transform="matrix(1 0 0 1 332.0643 613.0002)" class="st1 st5 st6">n</text> </g> <g id="Layer-1_135_"> <text transform="matrix(1 0 0 1 37.0147 580.0002)" class="st4 st5 st6">O</text> <text transform="matrix(1 0 0 1 43.2467 580.0002)" class="st4 st5 st6">h</text> <text transform="matrix(1 0 0 1 48.7377 580.0002)" class="st4 st5 st6">n</text> <text transform="matrix(1 0 0 1 54.2287 580.0002)" class="st4 st5 st6">e</text> <text transform="matrix(1 0 0 1 59.4442 580.0002)" class="st4 st5 st6"> </text> <text transform="matrix(1 0 0 1 61.8192 580.0002)" class="st4 st5 st6">S</text> <text transform="matrix(1 0 0 1 67.5192 580.0002)" class="st4 st5 st6">c</text> <text transform="matrix(1 0 0 1 72.2217 580.0002)" class="st4 st5 st6">h</text> <text transform="matrix(1 0 0 1 77.7127 580.0002)" class="st4 st5 st6">u</text> <text transform="matrix(1 0 0 1 83.2037 580.0002)" class="st4 st5 st6">l</text> <text transform="matrix(1 0 0 1 86.2532 580.0002)" class="st4 st5 st6">a</text> <text transform="matrix(1 0 0 1 91.3832 580.0002)" class="st4 st5 st6">b</text> <text transform="matrix(1 0 0 1 96.7317 580.0002)" class="st4 st5 st6">s</text> <text transform="matrix(1 0 0 1 101.5672 580.0002)" class="st4 st5 st6">c</text> <text transform="matrix(1 0 0 1 106.2697 580.0002)" class="st4 st5 st6">h</text> <text transform="matrix(1 0 0 1 111.7607 580.0002)" class="st4 st5 st6">l</text> <text transform="matrix(1 0 0 1 114.8102 580.0002)" class="st4 st5 st6">u</text> <text transform="matrix(1 0 0 1 120.3012 580.0002)" class="st4 st5 st6">s</text> <text transform="matrix(1 0 0 1 125.0892 580.0002)" class="st4 st5 st6">s</text> <text transform="matrix(1 0 0 1 129.8297 580.0002)" class="st4 st5 st6"> </text> </g> <g id="Layer-1_136_"> <text transform="matrix(1 0 0 1 8.9571 591.0002)" class="st1 st5 st6">w</text> <text transform="matrix(1 0 0 1 15.9871 591.0002)" class="st1 st5 st6">i</text> <text transform="matrix(1 0 0 1 18.4666 591.0002)" class="st1 st5 st6">t</text> <text transform="matrix(1 0 0 1 21.6871 591.0002)" class="st1 st5 st6">h</text> <text transform="matrix(1 0 0 1 27.0546 591.0002)" class="st1 st5 st6">o</text> <text transform="matrix(1 0 0 1 32.1276 591.0002)" class="st1 st5 st6">u</text> <text transform="matrix(1 0 0 1 37.4951 591.0002)" class="st1 st5 st6">t</text> <text transform="matrix(1 0 0 1 40.7156 591.0002)" class="st1 st5 st6"> </text> <text transform="matrix(1 0 0 1 42.9671 591.0002)" class="st1 st5 st6">s</text> <text transform="matrix(1 0 0 1 47.6791 591.0002)" class="st1 st5 st6">c</text> <text transform="matrix(1 0 0 1 52.2581 591.0002)" class="st1 st5 st6">h</text> <text transform="matrix(1 0 0 1 57.6256 591.0002)" class="st1 st5 st6">o</text> <text transform="matrix(1 0 0 1 62.6986 591.0002)" class="st1 st5 st6">o</text> <text transform="matrix(1 0 0 1 67.7716 591.0002)" class="st1 st5 st6">l</text> <text transform="matrix(1 0 0 1 70.6976 591.0002)" class="st1 st5 st6"> </text> <text transform="matrix(1 0 0 1 72.9491 591.0002)" class="st1 st5 st6">l</text> <text transform="matrix(1 0 0 1 75.7801 591.0002)" class="st1 st5 st6">e</text> <text transform="matrix(1 0 0 1 80.8721 591.0002)" class="st1 st5 st6">a</text> <text transform="matrix(1 0 0 1 85.8786 591.0002)" class="st1 st5 st6">v</text> <text transform="matrix(1 0 0 1 90.3246 591.0002)" class="st1 st5 st6">i</text> <text transform="matrix(1 0 0 1 92.8041 591.0002)" class="st1 st5 st6">n</text> <text transform="matrix(1 0 0 1 98.1716 591.0002)" class="st1 st5 st6">g</text> <text transform="matrix(1 0 0 1 103.3586 591.0002)" class="st1 st5 st6"> </text> <text transform="matrix(1 0 0 1 105.6101 591.0002)" class="st1 st5 st6">q</text> <text transform="matrix(1 0 0 1 110.8351 591.0002)" class="st1 st5 st6">u</text> <text transform="matrix(1 0 0 1 116.2026 591.0002)" class="st1 st5 st6">a</text> <text transform="matrix(1 0 0 1 121.209 591.0002)" class="st1 st5 st6">l</text> <text transform="matrix(1 0 0 1 124.135 591.0002)" class="st1 st5 st6">i</text> <text transform="matrix(1 0 0 1 126.6145 591.0002)" class="st1 st5 st6">f</text> <text transform="matrix(1 0 0 1 129.702 591.0002)" class="st1 st5 st6">i</text> <text transform="matrix(1 0 0 1 132.1815 591.0002)" class="st1 st5 st6">c</text> <text transform="matrix(1 0 0 1 136.713 591.0002)" class="st1 st5 st6">a</text> <text transform="matrix(1 0 0 1 141.7195 591.0002)" class="st1 st5 st6">t</text> <text transform="matrix(1 0 0 1 144.94 591.0002)" class="st1 st5 st6">i</text> <text transform="matrix(1 0 0 1 147.4195 591.0002)" class="st1 st5 st6">o</text> <text transform="matrix(1 0 0 1 152.4925 591.0002)" class="st1 st5 st6">n</text> </g> <g id="Layer-1_137_"> <text transform="matrix(1 0 0 1 31.2293 602.0002)" class="st4 st5 st6">M</text> <text transform="matrix(1 0 0 1 39.0478 602.0002)" class="st4 st5 st6">i</text> <text transform="matrix(1 0 0 1 41.6508 602.0002)" class="st4 st5 st6">t</text> <text transform="matrix(1 0 0 1 44.9948 602.0002)" class="st4 st5 st6"> </text> <text transform="matrix(1 0 0 1 47.3698 602.0002)" class="st4 st5 st6">D</text> <text transform="matrix(1 0 0 1 53.7918 602.0002)" class="st4 st5 st6">e</text> <text transform="matrix(1 0 0 1 59.0073 602.0002)" class="st4 st5 st6">u</text> <text transform="matrix(1 0 0 1 64.4983 602.0002)" class="st4 st5 st6">t</text> <text transform="matrix(1 0 0 1 67.7948 602.0002)" class="st4 st5 st6">s</text> <text transform="matrix(1 0 0 1 72.6303 602.0002)" class="st4 st5 st6">c</text> <text transform="matrix(1 0 0 1 77.3328 602.0002)" class="st4 st5 st6">h</text> <text transform="matrix(1 0 0 1 82.8238 602.0002)" class="st4 st5 st6">k</text> <text transform="matrix(1 0 0 1 87.7448 602.0002)" class="st4 st5 st6">e</text> <text transform="matrix(1 0 0 1 92.9603 602.0002)" class="st4 st5 st6">n</text> <text transform="matrix(1 0 0 1 98.4513 602.0002)" class="st4 st5 st6">n</text> <text transform="matrix(1 0 0 1 103.9423 602.0002)" class="st4 st5 st6">t</text> <text transform="matrix(1 0 0 1 107.2863 602.0002)" class="st4 st5 st6">n</text> <text transform="matrix(1 0 0 1 112.7773 602.0002)" class="st4 st5 st6">i</text> <text transform="matrix(1 0 0 1 115.3802 602.0002)" class="st4 st5 st6">s</text> <text transform="matrix(1 0 0 1 120.1692 602.0002)" class="st4 st5 st6">s</text> <text transform="matrix(1 0 0 1 125.0047 602.0002)" class="st4 st5 st6">e</text> <text transform="matrix(1 0 0 1 130.2202 602.0002)" class="st4 st5 st6">n</text> <text transform="matrix(1 0 0 1 135.6162 602.0002)" class="st4 st5 st6"> </text> </g> <g id="Layer-1_138_"> <text transform="matrix(1 0 0 1 26.8642 613.0002)" class="st1 st5 st6">w</text> <text transform="matrix(1 0 0 1 33.8942 613.0002)" class="st1 st5 st6">i</text> <text transform="matrix(1 0 0 1 36.3737 613.0002)" class="st1 st5 st6">t</text> <text transform="matrix(1 0 0 1 39.5942 613.0002)" class="st1 st5 st6">h</text> <text transform="matrix(1 0 0 1 44.9617 613.0002)" class="st1 st5 st6"> </text> <text transform="matrix(1 0 0 1 47.2132 613.0002)" class="st1 st5 st6">k</text> <text transform="matrix(1 0 0 1 52.3907 613.0002)" class="st1 st5 st6">n</text> <text transform="matrix(1 0 0 1 57.7582 613.0002)" class="st1 st5 st6">o</text> <text transform="matrix(1 0 0 1 62.7837 613.0002)" class="st1 st5 st6">w</text> <text transform="matrix(1 0 0 1 69.8137 613.0002)" class="st1 st5 st6">l</text> <text transform="matrix(1 0 0 1 72.6447 613.0002)" class="st1 st5 st6">e</text> <text transform="matrix(1 0 0 1 77.7367 613.0002)" class="st1 st5 st6">d</text> <text transform="matrix(1 0 0 1 82.9617 613.0002)" class="st1 st5 st6">g</text> <text transform="matrix(1 0 0 1 88.1487 613.0002)" class="st1 st5 st6">e</text> <text transform="matrix(1 0 0 1 93.2407 613.0002)" class="st1 st5 st6"> </text> <text transform="matrix(1 0 0 1 95.4922 613.0002)" class="st1 st5 st6">o</text> <text transform="matrix(1 0 0 1 100.5652 613.0002)" class="st1 st5 st6">f</text> <text transform="matrix(1 0 0 1 103.6527 613.0002)" class="st1 st5 st6"> </text> <text transform="matrix(1 0 0 1 105.9042 613.0002)" class="st1 st5 st6">G</text> <text transform="matrix(1 0 0 1 112.0412 613.0002)" class="st1 st5 st6">e</text> <text transform="matrix(1 0 0 1 117.1332 613.0002)" class="st1 st5 st6">r</text> <text transform="matrix(1 0 0 1 121.2752 613.0002)" class="st1 st5 st6">m</text> <text transform="matrix(1 0 0 1 129.5782 613.0002)" class="st1 st5 st6">a</text> <text transform="matrix(1 0 0 1 134.5847 613.0002)" class="st1 st5 st6">n</text> </g> <g id="Layer-1_139_"> <path class="st2" d="M343.6,443.5h-140V270h140V443.5z"></path> </g> <g id="Layer-1_140_"> <path class="st2" d="M245.8,240.8H0V61.2h245.8V240.8z"></path> </g> <g id="Layer-1_141_"> <text transform="matrix(1 0 0 1 250.0819 292.2561)" class="st7 st8 st9">V</text> <text transform="matrix(1 0 0 1 257.3749 292.2561)" class="st7 st8 st9">A</text> <text transform="matrix(1 0 0 1 265.9289 292.2561)" class="st7 st8 st9">B</text> <text transform="matrix(1 0 0 1 274.7429 292.2561)" class="st7 st8 st9"> </text> <text transform="matrix(1 0 0 1 278.0189 292.2561)" class="st7 st8 st9">–</text> <text transform="matrix(1 0 0 1 285.3379 292.2561)" class="st7 st8 st9"> </text> <text transform="matrix(1 0 0 1 288.6139 292.2561)" class="st7 st8 st9">O</text> </g> <g id="Layer-1_142_"> <text transform="matrix(1 0 0 1 227.5306 316.0002)" class="st4 st5 st6">V</text> <text transform="matrix(1 0 0 1 232.6036 316.0002)" class="st4 st5 st6">o</text> <text transform="matrix(1 0 0 1 237.8001 316.0002)" class="st4 st5 st6">r</text> <text transform="matrix(1 0 0 1 241.7806 316.0002)" class="st4 st5 st6">q</text> <text transform="matrix(1 0 0 1 247.1291 316.0002)" class="st4 st5 st6">u</text> <text transform="matrix(1 0 0 1 252.6201 316.0002)" class="st4 st5 st6">a</text> <text transform="matrix(1 0 0 1 257.7501 316.0002)" class="st4 st5 st6">l</text> <text transform="matrix(1 0 0 1 260.7996 316.0002)" class="st4 st5 st6">i</text> <text transform="matrix(1 0 0 1 263.4026 316.0002)" class="st4 st5 st6">f</text> <text transform="matrix(1 0 0 1 266.6136 316.0002)" class="st4 st5 st6">i</text> <text transform="matrix(1 0 0 1 269.2166 316.0002)" class="st4 st5 st6">z</text> <text transform="matrix(1 0 0 1 273.7671 316.0002)" class="st4 st5 st6">i</text> <text transform="matrix(1 0 0 1 276.3701 316.0002)" class="st4 st5 st6">e</text> <text transform="matrix(1 0 0 1 281.5856 316.0002)" class="st4 st5 st6">r</text> <text transform="matrix(1 0 0 1 285.8511 316.0002)" class="st4 st5 st6">u</text> <text transform="matrix(1 0 0 1 291.3421 316.0002)" class="st4 st5 st6">n</text> <text transform="matrix(1 0 0 1 296.8331 316.0002)" class="st4 st5 st6">g</text> <text transform="matrix(1 0 0 1 302.1436 316.0002)" class="st4 st5 st6">j</text> <text transform="matrix(1 0 0 1 304.7466 316.0002)" class="st4 st5 st6">a</text> <text transform="matrix(1 0 0 1 309.8766 316.0002)" class="st4 st5 st6">h</text> <text transform="matrix(1 0 0 1 315.3676 316.0002)" class="st4 st5 st6">r</text> <text transform="matrix(1 0 0 1 319.5381 316.0002)" class="st4 st5 st6"> </text> </g> <g id="Layer-1_143_"> <text transform="matrix(1 0 0 1 237.3487 327.0002)" class="st4 st5 st6">A</text> <text transform="matrix(1 0 0 1 243.3812 327.0002)" class="st4 st5 st6">r</text> <text transform="matrix(1 0 0 1 247.6467 327.0002)" class="st4 st5 st6">b</text> <text transform="matrix(1 0 0 1 252.9952 327.0002)" class="st4 st5 st6">e</text> <text transform="matrix(1 0 0 1 258.2107 327.0002)" class="st4 st5 st6">i</text> <text transform="matrix(1 0 0 1 260.8137 327.0002)" class="st4 st5 st6">t</text> <text transform="matrix(1 0 0 1 264.1577 327.0002)" class="st4 st5 st6"> </text> <text transform="matrix(1 0 0 1 266.5327 327.0002)" class="st4 st5 st6">u</text> <text transform="matrix(1 0 0 1 272.0237 327.0002)" class="st4 st5 st6">n</text> <text transform="matrix(1 0 0 1 277.5147 327.0002)" class="st4 st5 st6">d</text> <text transform="matrix(1 0 0 1 282.8632 327.0002)" class="st4 st5 st6"> </text> <text transform="matrix(1 0 0 1 285.2382 327.0002)" class="st4 st5 st6">B</text> <text transform="matrix(1 0 0 1 291.6317 327.0002)" class="st4 st5 st6">e</text> <text transform="matrix(1 0 0 1 296.8472 327.0002)" class="st4 st5 st6">r</text> <text transform="matrix(1 0 0 1 301.1127 327.0002)" class="st4 st5 st6">u</text> <text transform="matrix(1 0 0 1 306.6037 327.0002)" class="st4 st5 st6">f</text> </g> <g id="Layer-1_144_"> <text transform="matrix(1 0 0 1 215.3187 338.0002)" class="st4 st5 st6"> </text> <text transform="matrix(1 0 0 1 217.6937 338.0002)" class="st4 st5 st6">–</text> <text transform="matrix(1 0 0 1 222.8522 338.0002)" class="st4 st5 st6"> </text> <text transform="matrix(1 0 0 1 225.2272 338.0002)" class="st4 st5 st6">o</text> <text transform="matrix(1 0 0 1 230.4237 338.0002)" class="st4 st5 st6">h</text> <text transform="matrix(1 0 0 1 235.9147 338.0002)" class="st4 st5 st6">n</text> <text transform="matrix(1 0 0 1 241.4057 338.0002)" class="st4 st5 st6">e</text> <text transform="matrix(1 0 0 1 246.6212 338.0002)" class="st4 st5 st6"> </text> <text transform="matrix(1 0 0 1 248.9962 338.0002)" class="st4 st5 st6">D</text> <text transform="matrix(1 0 0 1 255.4182 338.0002)" class="st4 st5 st6">e</text> <text transform="matrix(1 0 0 1 260.6337 338.0002)" class="st4 st5 st6">u</text> <text transform="matrix(1 0 0 1 266.1247 338.0002)" class="st4 st5 st6">t</text> <text transform="matrix(1 0 0 1 269.4222 338.0002)" class="st4 st5 st6">s</text> <text transform="matrix(1 0 0 1 274.2577 338.0002)" class="st4 st5 st6">c</text> <text transform="matrix(1 0 0 1 278.9602 338.0002)" class="st4 st5 st6">h</text> <text transform="matrix(1 0 0 1 284.4512 338.0002)" class="st4 st5 st6">k</text> <text transform="matrix(1 0 0 1 289.3722 338.0002)" class="st4 st5 st6">e</text> <text transform="matrix(1 0 0 1 294.5877 338.0002)" class="st4 st5 st6">n</text> <text transform="matrix(1 0 0 1 300.0787 338.0002)" class="st4 st5 st6">n</text> <text transform="matrix(1 0 0 1 305.5697 338.0002)" class="st4 st5 st6">t</text> <text transform="matrix(1 0 0 1 308.9137 338.0002)" class="st4 st5 st6">n</text> <text transform="matrix(1 0 0 1 314.4047 338.0002)" class="st4 st5 st6">i</text> <text transform="matrix(1 0 0 1 317.0077 338.0002)" class="st4 st5 st6">s</text> <text transform="matrix(1 0 0 1 321.7957 338.0002)" class="st4 st5 st6">s</text> <text transform="matrix(1 0 0 1 326.6312 338.0002)" class="st4 st5 st6">e</text> </g> <g id="Layer-1_145_"> <text transform="matrix(1 0 0 1 216.6106 349.0002)" class="st1 st5 st6">P</text> <text transform="matrix(1 0 0 1 222.6811 349.0002)" class="st1 st5 st6">r</text> <text transform="matrix(1 0 0 1 226.6616 349.0002)" class="st1 st5 st6">e</text> <text transform="matrix(1 0 0 1 231.8771 349.0002)" class="st1 st5 st6">-</text> <text transform="matrix(1 0 0 1 236.0191 349.0002)" class="st1 st5 st6">q</text> <text transform="matrix(1 0 0 1 241.3676 349.0002)" class="st1 st5 st6">u</text> <text transform="matrix(1 0 0 1 246.8586 349.0002)" class="st1 st5 st6">a</text> <text transform="matrix(1 0 0 1 251.9886 349.0002)" class="st1 st5 st6">l</text> <text transform="matrix(1 0 0 1 255.0381 349.0002)" class="st1 st5 st6">i</text> <text transform="matrix(1 0 0 1 257.6411 349.0002)" class="st1 st5 st6">f</text> <text transform="matrix(1 0 0 1 260.8521 349.0002)" class="st1 st5 st6">y</text> <text transform="matrix(1 0 0 1 265.3931 349.0002)" class="st1 st5 st6">i</text> <text transform="matrix(1 0 0 1 267.9961 349.0002)" class="st1 st5 st6">n</text> <text transform="matrix(1 0 0 1 273.4871 349.0002)" class="st1 st5 st6">g</text> <text transform="matrix(1 0 0 1 278.7976 349.0002)" class="st1 st5 st6"> </text> <text transform="matrix(1 0 0 1 281.1726 349.0002)" class="st1 st5 st6">y</text> <text transform="matrix(1 0 0 1 285.6186 349.0002)" class="st1 st5 st6">e</text> <text transform="matrix(1 0 0 1 290.8341 349.0002)" class="st1 st5 st6">a</text> <text transform="matrix(1 0 0 1 295.9641 349.0002)" class="st1 st5 st6">r</text> <text transform="matrix(1 0 0 1 300.2296 349.0002)" class="st1 st5 st6"> </text> <text transform="matrix(1 0 0 1 302.6046 349.0002)" class="st1 st5 st6">w</text> <text transform="matrix(1 0 0 1 309.7107 349.0002)" class="st1 st5 st6">o</text> <text transform="matrix(1 0 0 1 314.9072 349.0002)" class="st1 st5 st6">r</text> <text transform="matrix(1 0 0 1 319.1727 349.0002)" class="st1 st5 st6">k</text> <text transform="matrix(1 0 0 1 324.4737 349.0002)" class="st1 st5 st6"> </text> <text transform="matrix(1 0 0 1 326.8487 349.0002)" class="st1 st5 st6">/</text> <text transform="matrix(1 0 0 1 330.4577 349.0002)" class="st1 st5 st6"> </text> </g> <g id="Layer-1_146_"> <text transform="matrix(1 0 0 1 214.8151 360.0002)" class="st1 st5 st6">t</text> <text transform="matrix(1 0 0 1 218.1591 360.0002)" class="st1 st5 st6">r</text> <text transform="matrix(1 0 0 1 222.3296 360.0002)" class="st1 st5 st6">a</text> <text transform="matrix(1 0 0 1 227.4596 360.0002)" class="st1 st5 st6">d</text> <text transform="matrix(1 0 0 1 232.8081 360.0002)" class="st1 st5 st6">e</text> <text transform="matrix(1 0 0 1 238.0236 360.0002)" class="st1 st5 st6"> </text> <text transform="matrix(1 0 0 1 240.3986 360.0002)" class="st1 st5 st6">w</text> <text transform="matrix(1 0 0 1 247.5521 360.0002)" class="st1 st5 st6">i</text> <text transform="matrix(1 0 0 1 250.1551 360.0002)" class="st1 st5 st6">t</text> <text transform="matrix(1 0 0 1 253.4991 360.0002)" class="st1 st5 st6">h</text> <text transform="matrix(1 0 0 1 258.9901 360.0002)" class="st1 st5 st6"> </text> <text transform="matrix(1 0 0 1 261.3651 360.0002)" class="st1 st5 st6">n</text> <text transform="matrix(1 0 0 1 266.8561 360.0002)" class="st1 st5 st6">o</text> <text transform="matrix(1 0 0 1 272.0526 360.0002)" class="st1 st5 st6"> </text> <text transform="matrix(1 0 0 1 274.4276 360.0002)" class="st1 st5 st6">k</text> <text transform="matrix(1 0 0 1 279.7286 360.0002)" class="st1 st5 st6">n</text> <text transform="matrix(1 0 0 1 285.2196 360.0002)" class="st1 st5 st6">o</text> <text transform="matrix(1 0 0 1 290.3686 360.0002)" class="st1 st5 st6">w</text> <text transform="matrix(1 0 0 1 297.5221 360.0002)" class="st1 st5 st6">l</text> <text transform="matrix(1 0 0 1 300.4766 360.0002)" class="st1 st5 st6">e</text> <text transform="matrix(1 0 0 1 305.6921 360.0002)" class="st1 st5 st6">d</text> <text transform="matrix(1 0 0 1 311.0406 360.0002)" class="st1 st5 st6">g</text> <text transform="matrix(1 0 0 1 316.3511 360.0002)" class="st1 st5 st6">e</text> <text transform="matrix(1 0 0 1 321.5667 360.0002)" class="st1 st5 st6"> </text> <text transform="matrix(1 0 0 1 323.9417 360.0002)" class="st1 st5 st6">o</text> <text transform="matrix(1 0 0 1 329.1382 360.0002)" class="st1 st5 st6">f</text> <text transform="matrix(1 0 0 1 332.2542 360.0002)" class="st1 st5 st6"> </text> </g> <g id="Layer-1_147_"> <text transform="matrix(1 0 0 1 256.1869 371.0002)" class="st1 st5 st6">G</text> <text transform="matrix(1 0 0 1 262.4474 371.0002)" class="st1 st5 st6">e</text> <text transform="matrix(1 0 0 1 267.6629 371.0002)" class="st1 st5 st6">r</text> <text transform="matrix(1 0 0 1 271.9284 371.0002)" class="st1 st5 st6">m</text> <text transform="matrix(1 0 0 1 280.3549 371.0002)" class="st1 st5 st6">a</text> <text transform="matrix(1 0 0 1 285.485 371.0002)" class="st1 st5 st6">n</text> </g> <g id="Layer-1_148_"> <text transform="matrix(1 0 0 1 217.3989 393.0002)" class="st4 st5 st6">S</text> <text transform="matrix(1 0 0 1 223.0989 393.0002)" class="st4 st5 st6">c</text> <text transform="matrix(1 0 0 1 227.8014 393.0002)" class="st4 st5 st6">h</text> <text transform="matrix(1 0 0 1 233.2924 393.0002)" class="st4 st5 st6">w</text> <text transform="matrix(1 0 0 1 240.3984 393.0002)" class="st4 st5 st6">e</text> <text transform="matrix(1 0 0 1 245.614 393.0002)" class="st4 st5 st6">r</text> <text transform="matrix(1 0 0 1 249.8795 393.0002)" class="st4 st5 st6">p</text> <text transform="matrix(1 0 0 1 255.228 393.0002)" class="st4 st5 st6">u</text> <text transform="matrix(1 0 0 1 260.719 393.0002)" class="st4 st5 st6">n</text> <text transform="matrix(1 0 0 1 266.21 393.0002)" class="st4 st5 st6">k</text> <text transform="matrix(1 0 0 1 271.511 393.0002)" class="st4 st5 st6">t</text> <text transform="matrix(1 0 0 1 274.8549 393.0002)" class="st4 st5 st6">:</text> <text transform="matrix(1 0 0 1 277.8285 393.0002)" class="st4 st5 st6"> </text> <text transform="matrix(1 0 0 1 280.2035 393.0002)" class="st4 st5 st6">E</text> <text transform="matrix(1 0 0 1 286.0269 393.0002)" class="st4 st5 st6">r</text> <text transform="matrix(1 0 0 1 290.2924 393.0002)" class="st4 st5 st6">w</text> <text transform="matrix(1 0 0 1 297.3985 393.0002)" class="st4 st5 st6">e</text> <text transform="matrix(1 0 0 1 302.614 393.0002)" class="st4 st5 st6">r</text> <text transform="matrix(1 0 0 1 306.8795 393.0002)" class="st4 st5 st6">b</text> <text transform="matrix(1 0 0 1 312.228 393.0002)" class="st4 st5 st6"> </text> <text transform="matrix(1 0 0 1 314.603 393.0002)" class="st4 st5 st6">v</text> <text transform="matrix(1 0 0 1 319.0775 393.0002)" class="st4 st5 st6">o</text> <text transform="matrix(1 0 0 1 324.274 393.0002)" class="st4 st5 st6">n</text> <text transform="matrix(1 0 0 1 329.67 393.0002)" class="st4 st5 st6"> </text> </g> <g id="Layer-1_149_"> <text transform="matrix(1 0 0 1 229.4116 404.0002)" class="st4 st5 st6">D</text> <text transform="matrix(1 0 0 1 235.8336 404.0002)" class="st4 st5 st6">e</text> <text transform="matrix(1 0 0 1 241.0491 404.0002)" class="st4 st5 st6">u</text> <text transform="matrix(1 0 0 1 246.5401 404.0002)" class="st4 st5 st6">t</text> <text transform="matrix(1 0 0 1 249.8366 404.0002)" class="st4 st5 st6">s</text> <text transform="matrix(1 0 0 1 254.6721 404.0002)" class="st4 st5 st6">c</text> <text transform="matrix(1 0 0 1 259.3747 404.0002)" class="st4 st5 st6">h</text> <text transform="matrix(1 0 0 1 264.8657 404.0002)" class="st4 st5 st6">k</text> <text transform="matrix(1 0 0 1 269.7867 404.0002)" class="st4 st5 st6">e</text> <text transform="matrix(1 0 0 1 275.0022 404.0002)" class="st4 st5 st6">n</text> <text transform="matrix(1 0 0 1 280.4932 404.0002)" class="st4 st5 st6">n</text> <text transform="matrix(1 0 0 1 285.9842 404.0002)" class="st4 st5 st6">t</text> <text transform="matrix(1 0 0 1 289.3282 404.0002)" class="st4 st5 st6">n</text> <text transform="matrix(1 0 0 1 294.8192 404.0002)" class="st4 st5 st6">i</text> <text transform="matrix(1 0 0 1 297.4221 404.0002)" class="st4 st5 st6">s</text> <text transform="matrix(1 0 0 1 302.2102 404.0002)" class="st4 st5 st6">s</text> <text transform="matrix(1 0 0 1 307.0457 404.0002)" class="st4 st5 st6">e</text> <text transform="matrix(1 0 0 1 312.2612 404.0002)" class="st4 st5 st6">n</text> </g> <g id="Layer-1_150_"> <text transform="matrix(1 0 0 1 212.9531 415.0002)" class="st1 st5 st6">F</text> <text transform="matrix(1 0 0 1 218.3206 415.0002)" class="st1 st5 st6">o</text> <text transform="matrix(1 0 0 1 223.5171 415.0002)" class="st1 st5 st6">c</text> <text transform="matrix(1 0 0 1 228.2196 415.0002)" class="st1 st5 st6">u</text> <text transform="matrix(1 0 0 1 233.7106 415.0002)" class="st1 st5 st6">s</text> <text transform="matrix(1 0 0 1 238.5461 415.0002)" class="st1 st5 st6">:</text> <text transform="matrix(1 0 0 1 241.5196 415.0002)" class="st1 st5 st6"> </text> <text transform="matrix(1 0 0 1 243.8946 415.0002)" class="st1 st5 st6">a</text> <text transform="matrix(1 0 0 1 249.0246 415.0002)" class="st1 st5 st6">c</text> <text transform="matrix(1 0 0 1 253.5847 415.0002)" class="st1 st5 st6">q</text> <text transform="matrix(1 0 0 1 258.9332 415.0002)" class="st1 st5 st6">u</text> <text transform="matrix(1 0 0 1 264.4242 415.0002)" class="st1 st5 st6">i</text> <text transform="matrix(1 0 0 1 267.0272 415.0002)" class="st1 st5 st6">r</text> <text transform="matrix(1 0 0 1 271.2927 415.0002)" class="st1 st5 st6">i</text> <text transform="matrix(1 0 0 1 273.8957 415.0002)" class="st1 st5 st6">n</text> <text transform="matrix(1 0 0 1 279.3867 415.0002)" class="st1 st5 st6">g</text> <text transform="matrix(1 0 0 1 284.6971 415.0002)" class="st1 st5 st6"> </text> <text transform="matrix(1 0 0 1 287.0721 415.0002)" class="st1 st5 st6">k</text> <text transform="matrix(1 0 0 1 292.3731 415.0002)" class="st1 st5 st6">n</text> <text transform="matrix(1 0 0 1 297.8641 415.0002)" class="st1 st5 st6">o</text> <text transform="matrix(1 0 0 1 303.0132 415.0002)" class="st1 st5 st6">w</text> <text transform="matrix(1 0 0 1 310.1667 415.0002)" class="st1 st5 st6">l</text> <text transform="matrix(1 0 0 1 313.1212 415.0002)" class="st1 st5 st6">e</text> <text transform="matrix(1 0 0 1 318.3367 415.0002)" class="st1 st5 st6">d</text> <text transform="matrix(1 0 0 1 323.6852 415.0002)" class="st1 st5 st6">g</text> <text transform="matrix(1 0 0 1 328.9957 415.0002)" class="st1 st5 st6">e</text> <text transform="matrix(1 0 0 1 334.1162 415.0002)" class="st1 st5 st6"> </text> </g> <g id="Layer-1_151_"> <text transform="matrix(1 0 0 1 250.7958 426.0002)" class="st1 st5 st6">o</text> <text transform="matrix(1 0 0 1 255.9923 426.0002)" class="st1 st5 st6">f</text> <text transform="matrix(1 0 0 1 259.2033 426.0002)" class="st1 st5 st6"> </text> <text transform="matrix(1 0 0 1 261.5783 426.0002)" class="st1 st5 st6">G</text> <text transform="matrix(1 0 0 1 267.8388 426.0002)" class="st1 st5 st6">e</text> <text transform="matrix(1 0 0 1 273.0543 426.0002)" class="st1 st5 st6">r</text> <text transform="matrix(1 0 0 1 277.3198 426.0002)" class="st1 st5 st6">m</text> <text transform="matrix(1 0 0 1 285.7463 426.0002)" class="st1 st5 st6">a</text> <text transform="matrix(1 0 0 1 290.8763 426.0002)" class="st1 st5 st6">n</text> </g> <g id="Layer-1_152_"> <text transform="matrix(1 0 0 1 161.2364 78.9925)" class="st7 st8 st9">V</text> <text transform="matrix(1 0 0 1 168.5294 78.9925)" class="st7 st8 st9">A</text> <text transform="matrix(1 0 0 1 177.0834 78.9925)" class="st7 st8 st9">B</text> <text transform="matrix(1 0 0 1 185.8974 78.9925)" class="st7 st8 st9"> </text> <text transform="matrix(1 0 0 1 189.1734 78.9925)" class="st7 st8 st9">–</text> <text transform="matrix(1 0 0 1 196.4924 78.9925)" class="st7 st8 st9"> </text> <text transform="matrix(1 0 0 1 199.7684 78.9925)" class="st7 st8 st9">R</text> </g> <g id="Layer-1_153_"> <text transform="matrix(1 0 0 1 136.3324 107.0003)" class="st4 st5 st6">V</text> <text transform="matrix(1 0 0 1 141.4054 107.0003)" class="st4 st5 st6">o</text> <text transform="matrix(1 0 0 1 146.6019 107.0003)" class="st4 st5 st6">r</text> <text transform="matrix(1 0 0 1 150.5824 107.0003)" class="st4 st5 st6">q</text> <text transform="matrix(1 0 0 1 155.9309 107.0003)" class="st4 st5 st6">u</text> <text transform="matrix(1 0 0 1 161.4219 107.0003)" class="st4 st5 st6">a</text> <text transform="matrix(1 0 0 1 166.5519 107.0003)" class="st4 st5 st6">l</text> <text transform="matrix(1 0 0 1 169.6014 107.0003)" class="st4 st5 st6">i</text> <text transform="matrix(1 0 0 1 172.2044 107.0003)" class="st4 st5 st6">f</text> <text transform="matrix(1 0 0 1 175.4154 107.0003)" class="st4 st5 st6">i</text> <text transform="matrix(1 0 0 1 178.0184 107.0003)" class="st4 st5 st6">z</text> <text transform="matrix(1 0 0 1 182.5689 107.0003)" class="st4 st5 st6">i</text> <text transform="matrix(1 0 0 1 185.1719 107.0003)" class="st4 st5 st6">e</text> <text transform="matrix(1 0 0 1 190.3874 107.0003)" class="st4 st5 st6">r</text> <text transform="matrix(1 0 0 1 194.6529 107.0003)" class="st4 st5 st6">u</text> <text transform="matrix(1 0 0 1 200.1439 107.0003)" class="st4 st5 st6">n</text> <text transform="matrix(1 0 0 1 205.6349 107.0003)" class="st4 st5 st6">g</text> <text transform="matrix(1 0 0 1 210.9454 107.0003)" class="st4 st5 st6">s</text> <text transform="matrix(1 0 0 1 215.7809 107.0003)" class="st4 st5 st6">j</text> <text transform="matrix(1 0 0 1 218.3839 107.0003)" class="st4 st5 st6">a</text> <text transform="matrix(1 0 0 1 223.5139 107.0003)" class="st4 st5 st6">h</text> <text transform="matrix(1 0 0 1 229.0049 107.0003)" class="st4 st5 st6">r</text> <text transform="matrix(1 0 0 1 233.1754 107.0003)" class="st4 st5 st6"> </text> </g> <g id="Layer-1_154_"> <text transform="matrix(1 0 0 1 148.5682 118.0003)" class="st4 st5 st6">A</text> <text transform="matrix(1 0 0 1 154.6007 118.0003)" class="st4 st5 st6">r</text> <text transform="matrix(1 0 0 1 158.8662 118.0003)" class="st4 st5 st6">b</text> <text transform="matrix(1 0 0 1 164.2147 118.0003)" class="st4 st5 st6">e</text> <text transform="matrix(1 0 0 1 169.4302 118.0003)" class="st4 st5 st6">i</text> <text transform="matrix(1 0 0 1 172.0332 118.0003)" class="st4 st5 st6">t</text> <text transform="matrix(1 0 0 1 175.3772 118.0003)" class="st4 st5 st6"> </text> <text transform="matrix(1 0 0 1 177.7522 118.0003)" class="st4 st5 st6">u</text> <text transform="matrix(1 0 0 1 183.2432 118.0003)" class="st4 st5 st6">n</text> <text transform="matrix(1 0 0 1 188.7342 118.0003)" class="st4 st5 st6">d</text> <text transform="matrix(1 0 0 1 194.0827 118.0003)" class="st4 st5 st6"> </text> <text transform="matrix(1 0 0 1 196.4577 118.0003)" class="st4 st5 st6">B</text> <text transform="matrix(1 0 0 1 202.8512 118.0003)" class="st4 st5 st6">e</text> <text transform="matrix(1 0 0 1 208.0667 118.0003)" class="st4 st5 st6">r</text> <text transform="matrix(1 0 0 1 212.3322 118.0003)" class="st4 st5 st6">u</text> <text transform="matrix(1 0 0 1 217.8232 118.0003)" class="st4 st5 st6">f</text> <text transform="matrix(1 0 0 1 220.9392 118.0003)" class="st4 st5 st6"> </text> </g> <g id="Layer-1_155_"> <text transform="matrix(1 0 0 1 154.4629 129.0003)" class="st4 st5 st6">–</text> <text transform="matrix(1 0 0 1 159.6214 129.0003)" class="st4 st5 st6"> </text> <text transform="matrix(1 0 0 1 161.9964 129.0003)" class="st4 st5 st6">R</text> <text transform="matrix(1 0 0 1 168.0289 129.0003)" class="st4 st5 st6">e</text> <text transform="matrix(1 0 0 1 173.2444 129.0003)" class="st4 st5 st6">g</text> <text transform="matrix(1 0 0 1 178.5549 129.0003)" class="st4 st5 st6">e</text> <text transform="matrix(1 0 0 1 183.7704 129.0003)" class="st4 st5 st6">l</text> <text transform="matrix(1 0 0 1 186.8199 129.0003)" class="st4 st5 st6">k</text> <text transform="matrix(1 0 0 1 192.1209 129.0003)" class="st4 st5 st6">l</text> <text transform="matrix(1 0 0 1 195.1704 129.0003)" class="st4 st5 st6">a</text> <text transform="matrix(1 0 0 1 200.3004 129.0003)" class="st4 st5 st6">s</text> <text transform="matrix(1 0 0 1 205.0885 129.0003)" class="st4 st5 st6">s</text> <text transform="matrix(1 0 0 1 209.924 129.0003)" class="st4 st5 st6">e</text> </g> <g id="Layer-1_156_"> <text transform="matrix(1 0 0 1 127.8301 140.0003)" class="st1 st5 st6">P</text> <text transform="matrix(1 0 0 1 133.9006 140.0003)" class="st1 st5 st6">r</text> <text transform="matrix(1 0 0 1 137.8811 140.0003)" class="st1 st5 st6">e</text> <text transform="matrix(1 0 0 1 143.0966 140.0003)" class="st1 st5 st6">-</text> <text transform="matrix(1 0 0 1 147.2386 140.0003)" class="st1 st5 st6">q</text> <text transform="matrix(1 0 0 1 152.5871 140.0003)" class="st1 st5 st6">u</text> <text transform="matrix(1 0 0 1 158.0781 140.0003)" class="st1 st5 st6">a</text> <text transform="matrix(1 0 0 1 163.2081 140.0003)" class="st1 st5 st6">l</text> <text transform="matrix(1 0 0 1 166.2576 140.0003)" class="st1 st5 st6">i</text> <text transform="matrix(1 0 0 1 168.8606 140.0003)" class="st1 st5 st6">f</text> <text transform="matrix(1 0 0 1 172.0716 140.0003)" class="st1 st5 st6">y</text> <text transform="matrix(1 0 0 1 176.6126 140.0003)" class="st1 st5 st6">i</text> <text transform="matrix(1 0 0 1 179.2156 140.0003)" class="st1 st5 st6">n</text> <text transform="matrix(1 0 0 1 184.7066 140.0003)" class="st1 st5 st6">g</text> <text transform="matrix(1 0 0 1 190.0171 140.0003)" class="st1 st5 st6"> </text> <text transform="matrix(1 0 0 1 192.3921 140.0003)" class="st1 st5 st6">y</text> <text transform="matrix(1 0 0 1 196.8381 140.0003)" class="st1 st5 st6">e</text> <text transform="matrix(1 0 0 1 202.0536 140.0003)" class="st1 st5 st6">a</text> <text transform="matrix(1 0 0 1 207.1836 140.0003)" class="st1 st5 st6">r</text> <text transform="matrix(1 0 0 1 211.4491 140.0003)" class="st1 st5 st6"> </text> <text transform="matrix(1 0 0 1 213.8241 140.0003)" class="st1 st5 st6">w</text> <text transform="matrix(1 0 0 1 220.9301 140.0003)" class="st1 st5 st6">o</text> <text transform="matrix(1 0 0 1 226.1266 140.0003)" class="st1 st5 st6">r</text> <text transform="matrix(1 0 0 1 230.3922 140.0003)" class="st1 st5 st6">k</text> <text transform="matrix(1 0 0 1 235.6931 140.0003)" class="st1 st5 st6"> </text> <text transform="matrix(1 0 0 1 238.0681 140.0003)" class="st1 st5 st6">/</text> <text transform="matrix(1 0 0 1 241.6772 140.0003)" class="st1 st5 st6"> </text> </g> <g id="Layer-1_157_"> <text transform="matrix(1 0 0 1 173.1965 151.0003)" class="st1 st5 st6">t</text> <text transform="matrix(1 0 0 1 176.5405 151.0003)" class="st1 st5 st6">r</text> <text transform="matrix(1 0 0 1 180.711 151.0003)" class="st1 st5 st6">a</text> <text transform="matrix(1 0 0 1 185.841 151.0003)" class="st1 st5 st6">d</text> <text transform="matrix(1 0 0 1 191.1895 151.0003)" class="st1 st5 st6">e</text> </g> <g id="Layer-1_158_"> <text transform="matrix(1 0 0 1 151.3469 162.0003)" class="st1 st5 st6">–</text> <text transform="matrix(1 0 0 1 156.5054 162.0003)" class="st1 st5 st6"> </text> <text transform="matrix(1 0 0 1 158.8804 162.0003)" class="st1 st5 st6">R</text> <text transform="matrix(1 0 0 1 164.9129 162.0003)" class="st1 st5 st6">e</text> <text transform="matrix(1 0 0 1 170.1284 162.0003)" class="st1 st5 st6">g</text> <text transform="matrix(1 0 0 1 175.4389 162.0003)" class="st1 st5 st6">u</text> <text transform="matrix(1 0 0 1 180.9299 162.0003)" class="st1 st5 st6">l</text> <text transform="matrix(1 0 0 1 183.9794 162.0003)" class="st1 st5 st6">a</text> <text transform="matrix(1 0 0 1 189.1094 162.0003)" class="st1 st5 st6">r</text> <text transform="matrix(1 0 0 1 193.3749 162.0003)" class="st1 st5 st6"> </text> <text transform="matrix(1 0 0 1 195.7499 162.0003)" class="st1 st5 st6">c</text> <text transform="matrix(1 0 0 1 200.4524 162.0003)" class="st1 st5 st6">l</text> <text transform="matrix(1 0 0 1 203.5019 162.0003)" class="st1 st5 st6">a</text> <text transform="matrix(1 0 0 1 208.6319 162.0003)" class="st1 st5 st6">s</text> <text transform="matrix(1 0 0 1 213.42 162.0003)" class="st1 st5 st6">s</text> </g> <g id="Layer-1_159_"> <text transform="matrix(1 0 0 1 154.5863 184.0003)" class="st4 st5 st6">S</text> <text transform="matrix(1 0 0 1 160.2863 184.0003)" class="st4 st5 st6">c</text> <text transform="matrix(1 0 0 1 164.9888 184.0003)" class="st4 st5 st6">h</text> <text transform="matrix(1 0 0 1 170.4798 184.0003)" class="st4 st5 st6">w</text> <text transform="matrix(1 0 0 1 177.5858 184.0003)" class="st4 st5 st6">e</text> <text transform="matrix(1 0 0 1 182.8014 184.0003)" class="st4 st5 st6">r</text> <text transform="matrix(1 0 0 1 187.0669 184.0003)" class="st4 st5 st6">p</text> <text transform="matrix(1 0 0 1 192.4154 184.0003)" class="st4 st5 st6">u</text> <text transform="matrix(1 0 0 1 197.9064 184.0003)" class="st4 st5 st6">n</text> <text transform="matrix(1 0 0 1 203.3974 184.0003)" class="st4 st5 st6">k</text> <text transform="matrix(1 0 0 1 208.6984 184.0003)" class="st4 st5 st6">t</text> <text transform="matrix(1 0 0 1 212.0424 184.0003)" class="st4 st5 st6">:</text> <text transform="matrix(1 0 0 1 214.9209 184.0003)" class="st4 st5 st6"> </text> </g> <g id="Layer-1_160_"> <text transform="matrix(1 0 0 1 138.218 195.0003)" class="st4 st5 st6">H</text> <text transform="matrix(1 0 0 1 144.8775 195.0003)" class="st4 st5 st6">a</text> <text transform="matrix(1 0 0 1 150.0075 195.0003)" class="st4 st5 st6">u</text> <text transform="matrix(1 0 0 1 155.4985 195.0003)" class="st4 st5 st6">p</text> <text transform="matrix(1 0 0 1 160.847 195.0003)" class="st4 st5 st6">t</text> <text transform="matrix(1 0 0 1 164.1435 195.0003)" class="st4 st5 st6">s</text> <text transform="matrix(1 0 0 1 168.979 195.0003)" class="st4 st5 st6">c</text> <text transform="matrix(1 0 0 1 173.6815 195.0003)" class="st4 st5 st6">h</text> <text transform="matrix(1 0 0 1 179.1725 195.0003)" class="st4 st5 st6">u</text> <text transform="matrix(1 0 0 1 184.6635 195.0003)" class="st4 st5 st6">l</text> <text transform="matrix(1 0 0 1 187.713 195.0003)" class="st4 st5 st6">a</text> <text transform="matrix(1 0 0 1 192.843 195.0003)" class="st4 st5 st6">b</text> <text transform="matrix(1 0 0 1 198.1916 195.0003)" class="st4 st5 st6">s</text> <text transform="matrix(1 0 0 1 203.0271 195.0003)" class="st4 st5 st6">c</text> <text transform="matrix(1 0 0 1 207.7296 195.0003)" class="st4 st5 st6">h</text> <text transform="matrix(1 0 0 1 213.2206 195.0003)" class="st4 st5 st6">l</text> <text transform="matrix(1 0 0 1 216.2701 195.0003)" class="st4 st5 st6">u</text> <text transform="matrix(1 0 0 1 221.7611 195.0003)" class="st4 st5 st6">s</text> <text transform="matrix(1 0 0 1 226.5491 195.0003)" class="st4 st5 st6">s</text> </g> <g id="Layer-1_161_"> <text transform="matrix(1 0 0 1 152.5392 206.0003)" class="st1 st5 st6">F</text> <text transform="matrix(1 0 0 1 157.9067 206.0003)" class="st1 st5 st6">o</text> <text transform="matrix(1 0 0 1 163.1032 206.0003)" class="st1 st5 st6">c</text> <text transform="matrix(1 0 0 1 167.8057 206.0003)" class="st1 st5 st6">u</text> <text transform="matrix(1 0 0 1 173.2967 206.0003)" class="st1 st5 st6">s</text> <text transform="matrix(1 0 0 1 178.1322 206.0003)" class="st1 st5 st6">:</text> <text transform="matrix(1 0 0 1 181.1057 206.0003)" class="st1 st5 st6"> </text> <text transform="matrix(1 0 0 1 183.4807 206.0003)" class="st1 st5 st6">g</text> <text transform="matrix(1 0 0 1 188.7912 206.0003)" class="st1 st5 st6">e</text> <text transform="matrix(1 0 0 1 194.0067 206.0003)" class="st1 st5 st6">n</text> <text transform="matrix(1 0 0 1 199.4977 206.0003)" class="st1 st5 st6">e</text> <text transform="matrix(1 0 0 1 204.7133 206.0003)" class="st1 st5 st6">r</text> <text transform="matrix(1 0 0 1 208.8838 206.0003)" class="st1 st5 st6">a</text> <text transform="matrix(1 0 0 1 214.0138 206.0003)" class="st1 st5 st6">l</text> <text transform="matrix(1 0 0 1 216.9683 206.0003)" class="st1 st5 st6"> </text> </g> <g id="Layer-1_162_"> <text transform="matrix(1 0 0 1 147.0864 217.0003)" class="st1 st5 st6">s</text> <text transform="matrix(1 0 0 1 151.9219 217.0003)" class="st1 st5 st6">e</text> <text transform="matrix(1 0 0 1 157.1374 217.0003)" class="st1 st5 st6">c</text> <text transform="matrix(1 0 0 1 161.6974 217.0003)" class="st1 st5 st6">o</text> <text transform="matrix(1 0 0 1 166.894 217.0003)" class="st1 st5 st6">n</text> <text transform="matrix(1 0 0 1 172.3849 217.0003)" class="st1 st5 st6">d</text> <text transform="matrix(1 0 0 1 177.7335 217.0003)" class="st1 st5 st6">a</text> <text transform="matrix(1 0 0 1 182.8635 217.0003)" class="st1 st5 st6">r</text> <text transform="matrix(1 0 0 1 187.129 217.0003)" class="st1 st5 st6">y</text> <text transform="matrix(1 0 0 1 191.67 217.0003)" class="st1 st5 st6"> </text> <text transform="matrix(1 0 0 1 194.045 217.0003)" class="st1 st5 st6">s</text> <text transform="matrix(1 0 0 1 198.8805 217.0003)" class="st1 st5 st6">c</text> <text transform="matrix(1 0 0 1 203.583 217.0003)" class="st1 st5 st6">h</text> <text transform="matrix(1 0 0 1 209.074 217.0003)" class="st1 st5 st6">o</text> <text transform="matrix(1 0 0 1 214.2705 217.0003)" class="st1 st5 st6">o</text> <text transform="matrix(1 0 0 1 219.467 217.0003)" class="st1 st5 st6">l</text> <text transform="matrix(1 0 0 1 222.4215 217.0003)" class="st1 st5 st6"> </text> </g> <g id="Layer-1_163_"> <text transform="matrix(1 0 0 1 145.9273 228.0003)" class="st1 st5 st6">l</text> <text transform="matrix(1 0 0 1 148.8818 228.0003)" class="st1 st5 st6">e</text> <text transform="matrix(1 0 0 1 154.0973 228.0003)" class="st1 st5 st6">a</text> <text transform="matrix(1 0 0 1 159.2273 228.0003)" class="st1 st5 st6">v</text> <text transform="matrix(1 0 0 1 163.7968 228.0003)" class="st1 st5 st6">i</text> <text transform="matrix(1 0 0 1 166.3998 228.0003)" class="st1 st5 st6">n</text> <text transform="matrix(1 0 0 1 171.8908 228.0003)" class="st1 st5 st6">g</text> <text transform="matrix(1 0 0 1 177.2013 228.0003)" class="st1 st5 st6"> </text> <text transform="matrix(1 0 0 1 179.5763 228.0003)" class="st1 st5 st6">c</text> <text transform="matrix(1 0 0 1 184.1363 228.0003)" class="st1 st5 st6">e</text> <text transform="matrix(1 0 0 1 189.3518 228.0003)" class="st1 st5 st6">r</text> <text transform="matrix(1 0 0 1 193.6173 228.0003)" class="st1 st5 st6">t</text> <text transform="matrix(1 0 0 1 196.9613 228.0003)" class="st1 st5 st6">i</text> <text transform="matrix(1 0 0 1 199.5643 228.0003)" class="st1 st5 st6">f</text> <text transform="matrix(1 0 0 1 202.7753 228.0003)" class="st1 st5 st6">i</text> <text transform="matrix(1 0 0 1 205.3783 228.0003)" class="st1 st5 st6">c</text> <text transform="matrix(1 0 0 1 210.0343 228.0003)" class="st1 st5 st6">a</text> <text transform="matrix(1 0 0 1 215.1643 228.0003)" class="st1 st5 st6">t</text> <text transform="matrix(1 0 0 1 218.4608 228.0003)" class="st1 st5 st6">e</text> </g> <g id="Layer-1_164_"> <text transform="matrix(1 0 0 1 51.9061 78.9925)" class="st7 st8 st9">A</text> <text transform="matrix(1 0 0 1 59.9401 78.9925)" class="st7 st8 st9">V</text> </g> <g id="Layer-1_165_"> <text transform="matrix(1 0 0 1 30.8056 107.0003)" class="st4 st5 st6">A</text> <text transform="matrix(1 0 0 1 36.8381 107.0003)" class="st4 st5 st6">u</text> <text transform="matrix(1 0 0 1 42.3291 107.0003)" class="st4 st5 st6">s</text> <text transform="matrix(1 0 0 1 47.1646 107.0003)" class="st4 st5 st6">b</text> <text transform="matrix(1 0 0 1 52.5131 107.0003)" class="st4 st5 st6">i</text> <text transform="matrix(1 0 0 1 55.1161 107.0003)" class="st4 st5 st6">l</text> <text transform="matrix(1 0 0 1 58.0706 107.0003)" class="st4 st5 st6">d</text> <text transform="matrix(1 0 0 1 63.4191 107.0003)" class="st4 st5 st6">u</text> <text transform="matrix(1 0 0 1 68.9101 107.0003)" class="st4 st5 st6">n</text> <text transform="matrix(1 0 0 1 74.4011 107.0003)" class="st4 st5 st6">g</text> <text transform="matrix(1 0 0 1 79.7116 107.0003)" class="st4 st5 st6">s</text> <text transform="matrix(1 0 0 1 84.5471 107.0003)" class="st4 st5 st6">-</text> </g> <g id="Layer-1_166_"> <text transform="matrix(1 0 0 1 31.7794 118.0003)" class="st4 st5 st6">v</text> <text transform="matrix(1 0 0 1 36.2539 118.0003)" class="st4 st5 st6">o</text> <text transform="matrix(1 0 0 1 41.4504 118.0003)" class="st4 st5 st6">r</text> <text transform="matrix(1 0 0 1 45.7159 118.0003)" class="st4 st5 st6">b</text> <text transform="matrix(1 0 0 1 51.0644 118.0003)" class="st4 st5 st6">e</text> <text transform="matrix(1 0 0 1 56.2799 118.0003)" class="st4 st5 st6">r</text> <text transform="matrix(1 0 0 1 60.2604 118.0003)" class="st4 st5 st6">e</text> <text transform="matrix(1 0 0 1 65.4759 118.0003)" class="st4 st5 st6">i</text> <text transform="matrix(1 0 0 1 68.0789 118.0003)" class="st4 st5 st6">t</text> <text transform="matrix(1 0 0 1 71.4229 118.0003)" class="st4 st5 st6">u</text> <text transform="matrix(1 0 0 1 76.9139 118.0003)" class="st4 st5 st6">n</text> <text transform="matrix(1 0 0 1 82.4049 118.0003)" class="st4 st5 st6">g</text> </g> <g id="Layer-1_167_"> <text transform="matrix(1 0 0 1 26.4547 129.0003)" class="st1 st5 st6">P</text> <text transform="matrix(1 0 0 1 32.5252 129.0003)" class="st1 st5 st6">r</text> <text transform="matrix(1 0 0 1 36.5057 129.0003)" class="st1 st5 st6">e</text> <text transform="matrix(1 0 0 1 41.7212 129.0003)" class="st1 st5 st6">p</text> <text transform="matrix(1 0 0 1 47.0697 129.0003)" class="st1 st5 st6">a</text> <text transform="matrix(1 0 0 1 52.1997 129.0003)" class="st1 st5 st6">r</text> <text transform="matrix(1 0 0 1 56.3702 129.0003)" class="st1 st5 st6">a</text> <text transform="matrix(1 0 0 1 61.5002 129.0003)" class="st1 st5 st6">t</text> <text transform="matrix(1 0 0 1 64.8442 129.0003)" class="st1 st5 st6">i</text> <text transform="matrix(1 0 0 1 67.4472 129.0003)" class="st1 st5 st6">o</text> <text transform="matrix(1 0 0 1 72.6437 129.0003)" class="st1 st5 st6">n</text> <text transform="matrix(1 0 0 1 78.1347 129.0003)" class="st1 st5 st6"> </text> <text transform="matrix(1 0 0 1 80.5097 129.0003)" class="st1 st5 st6">f</text> <text transform="matrix(1 0 0 1 83.5782 129.0003)" class="st1 st5 st6">o</text> <text transform="matrix(1 0 0 1 88.7747 129.0003)" class="st1 st5 st6">r</text> <text transform="matrix(1 0 0 1 92.9452 129.0003)" class="st1 st5 st6"> </text> </g> <g id="Layer-1_168_"> <text transform="matrix(1 0 0 1 19.3535 140.0003)" class="st1 st5 st6">v</text> <text transform="matrix(1 0 0 1 23.828 140.0003)" class="st1 st5 st6">o</text> <text transform="matrix(1 0 0 1 29.0245 140.0003)" class="st1 st5 st6">c</text> <text transform="matrix(1 0 0 1 33.6795 140.0003)" class="st1 st5 st6">a</text> <text transform="matrix(1 0 0 1 38.8095 140.0003)" class="st1 st5 st6">t</text> <text transform="matrix(1 0 0 1 42.1535 140.0003)" class="st1 st5 st6">i</text> <text transform="matrix(1 0 0 1 44.7565 140.0003)" class="st1 st5 st6">o</text> <text transform="matrix(1 0 0 1 49.953 140.0003)" class="st1 st5 st6">n</text> <text transform="matrix(1 0 0 1 55.444 140.0003)" class="st1 st5 st6">a</text> <text transform="matrix(1 0 0 1 60.574 140.0003)" class="st1 st5 st6">l</text> <text transform="matrix(1 0 0 1 63.6235 140.0003)" class="st1 st5 st6"> </text> <text transform="matrix(1 0 0 1 65.9985 140.0003)" class="st1 st5 st6">t</text> <text transform="matrix(1 0 0 1 69.3425 140.0003)" class="st1 st5 st6">r</text> <text transform="matrix(1 0 0 1 73.513 140.0003)" class="st1 st5 st6">a</text> <text transform="matrix(1 0 0 1 78.643 140.0003)" class="st1 st5 st6">i</text> <text transform="matrix(1 0 0 1 81.246 140.0003)" class="st1 st5 st6">n</text> <text transform="matrix(1 0 0 1 86.737 140.0003)" class="st1 st5 st6">i</text> <text transform="matrix(1 0 0 1 89.34 140.0003)" class="st1 st5 st6">n</text> <text transform="matrix(1 0 0 1 94.831 140.0003)" class="st1 st5 st6">g</text> </g> <g id="Layer-1_169_"> <text transform="matrix(1 0 0 1 29.5326 173.0003)" class="st4 st5 st6">S</text> <text transform="matrix(1 0 0 1 35.2326 173.0003)" class="st4 st5 st6">c</text> <text transform="matrix(1 0 0 1 39.9351 173.0003)" class="st4 st5 st6">h</text> <text transform="matrix(1 0 0 1 45.4261 173.0003)" class="st4 st5 st6">w</text> <text transform="matrix(1 0 0 1 52.5321 173.0003)" class="st4 st5 st6">e</text> <text transform="matrix(1 0 0 1 57.7476 173.0003)" class="st4 st5 st6">r</text> <text transform="matrix(1 0 0 1 62.0131 173.0003)" class="st4 st5 st6">p</text> <text transform="matrix(1 0 0 1 67.3616 173.0003)" class="st4 st5 st6">u</text> <text transform="matrix(1 0 0 1 72.8526 173.0003)" class="st4 st5 st6">n</text> <text transform="matrix(1 0 0 1 78.3436 173.0003)" class="st4 st5 st6">k</text> <text transform="matrix(1 0 0 1 83.6446 173.0003)" class="st4 st5 st6">t</text> <text transform="matrix(1 0 0 1 86.9886 173.0003)" class="st4 st5 st6">:</text> <text transform="matrix(1 0 0 1 89.8671 173.0003)" class="st4 st5 st6"> </text> </g> <g id="Layer-1_170_"> <text transform="matrix(1 0 0 1 13.1643 184.0003)" class="st4 st5 st6">H</text> <text transform="matrix(1 0 0 1 19.8238 184.0003)" class="st4 st5 st6">a</text> <text transform="matrix(1 0 0 1 24.9538 184.0003)" class="st4 st5 st6">u</text> <text transform="matrix(1 0 0 1 30.4448 184.0003)" class="st4 st5 st6">p</text> <text transform="matrix(1 0 0 1 35.7933 184.0003)" class="st4 st5 st6">t</text> <text transform="matrix(1 0 0 1 39.0898 184.0003)" class="st4 st5 st6">s</text> <text transform="matrix(1 0 0 1 43.9253 184.0003)" class="st4 st5 st6">c</text> <text transform="matrix(1 0 0 1 48.6278 184.0003)" class="st4 st5 st6">h</text> <text transform="matrix(1 0 0 1 54.1188 184.0003)" class="st4 st5 st6">u</text> <text transform="matrix(1 0 0 1 59.6098 184.0003)" class="st4 st5 st6">l</text> <text transform="matrix(1 0 0 1 62.6593 184.0003)" class="st4 st5 st6">a</text> <text transform="matrix(1 0 0 1 67.7893 184.0003)" class="st4 st5 st6">b</text> <text transform="matrix(1 0 0 1 73.1378 184.0003)" class="st4 st5 st6">s</text> <text transform="matrix(1 0 0 1 77.9733 184.0003)" class="st4 st5 st6">c</text> <text transform="matrix(1 0 0 1 82.6758 184.0003)" class="st4 st5 st6">h</text> <text transform="matrix(1 0 0 1 88.1668 184.0003)" class="st4 st5 st6">l</text> <text transform="matrix(1 0 0 1 91.2163 184.0003)" class="st4 st5 st6">u</text> <text transform="matrix(1 0 0 1 96.7073 184.0003)" class="st4 st5 st6">s</text> <text transform="matrix(1 0 0 1 101.4953 184.0003)" class="st4 st5 st6">s</text> </g> <g id="Layer-1_171_"> <text transform="matrix(1 0 0 1 27.4855 195.0003)" class="st1 st5 st6">F</text> <text transform="matrix(1 0 0 1 32.853 195.0003)" class="st1 st5 st6">o</text> <text transform="matrix(1 0 0 1 38.0495 195.0003)" class="st1 st5 st6">c</text> <text transform="matrix(1 0 0 1 42.752 195.0003)" class="st1 st5 st6">u</text> <text transform="matrix(1 0 0 1 48.243 195.0003)" class="st1 st5 st6">s</text> <text transform="matrix(1 0 0 1 53.0785 195.0003)" class="st1 st5 st6">:</text> <text transform="matrix(1 0 0 1 56.052 195.0003)" class="st1 st5 st6"> </text> <text transform="matrix(1 0 0 1 58.427 195.0003)" class="st1 st5 st6">g</text> <text transform="matrix(1 0 0 1 63.7375 195.0003)" class="st1 st5 st6">e</text> <text transform="matrix(1 0 0 1 68.953 195.0003)" class="st1 st5 st6">n</text> <text transform="matrix(1 0 0 1 74.444 195.0003)" class="st1 st5 st6">e</text> <text transform="matrix(1 0 0 1 79.6595 195.0003)" class="st1 st5 st6">r</text> <text transform="matrix(1 0 0 1 83.83 195.0003)" class="st1 st5 st6">a</text> <text transform="matrix(1 0 0 1 88.96 195.0003)" class="st1 st5 st6">l</text> <text transform="matrix(1 0 0 1 91.9145 195.0003)" class="st1 st5 st6"> </text> </g> <g id="Layer-1_172_"> <text transform="matrix(1 0 0 1 22.0327 206.0003)" class="st1 st5 st6">s</text> <text transform="matrix(1 0 0 1 26.8682 206.0003)" class="st1 st5 st6">e</text> <text transform="matrix(1 0 0 1 32.0837 206.0003)" class="st1 st5 st6">c</text> <text transform="matrix(1 0 0 1 36.6437 206.0003)" class="st1 st5 st6">o</text> <text transform="matrix(1 0 0 1 41.8402 206.0003)" class="st1 st5 st6">n</text> <text transform="matrix(1 0 0 1 47.3312 206.0003)" class="st1 st5 st6">d</text> <text transform="matrix(1 0 0 1 52.6797 206.0003)" class="st1 st5 st6">a</text> <text transform="matrix(1 0 0 1 57.8097 206.0003)" class="st1 st5 st6">r</text> <text transform="matrix(1 0 0 1 62.0752 206.0003)" class="st1 st5 st6">y</text> <text transform="matrix(1 0 0 1 66.6162 206.0003)" class="st1 st5 st6"> </text> <text transform="matrix(1 0 0 1 68.9912 206.0003)" class="st1 st5 st6">s</text> <text transform="matrix(1 0 0 1 73.8267 206.0003)" class="st1 st5 st6">c</text> <text transform="matrix(1 0 0 1 78.5292 206.0003)" class="st1 st5 st6">h</text> <text transform="matrix(1 0 0 1 84.0202 206.0003)" class="st1 st5 st6">o</text> <text transform="matrix(1 0 0 1 89.2167 206.0003)" class="st1 st5 st6">o</text> <text transform="matrix(1 0 0 1 94.4132 206.0003)" class="st1 st5 st6">l</text> <text transform="matrix(1 0 0 1 97.3677 206.0003)" class="st1 st5 st6"> </text> </g> <g id="Layer-1_173_"> <text transform="matrix(1 0 0 1 20.8737 217.0003)" class="st1 st5 st6">l</text> <text transform="matrix(1 0 0 1 23.8282 217.0003)" class="st1 st5 st6">e</text> <text transform="matrix(1 0 0 1 29.0437 217.0003)" class="st1 st5 st6">a</text> <text transform="matrix(1 0 0 1 34.1737 217.0003)" class="st1 st5 st6">v</text> <text transform="matrix(1 0 0 1 38.7432 217.0003)" class="st1 st5 st6">i</text> <text transform="matrix(1 0 0 1 41.3462 217.0003)" class="st1 st5 st6">n</text> <text transform="matrix(1 0 0 1 46.8372 217.0003)" class="st1 st5 st6">g</text> <text transform="matrix(1 0 0 1 52.1477 217.0003)" class="st1 st5 st6"> </text> <text transform="matrix(1 0 0 1 54.5227 217.0003)" class="st1 st5 st6">c</text> <text transform="matrix(1 0 0 1 59.0827 217.0003)" class="st1 st5 st6">e</text> <text transform="matrix(1 0 0 1 64.2982 217.0003)" class="st1 st5 st6">r</text> <text transform="matrix(1 0 0 1 68.5637 217.0003)" class="st1 st5 st6">t</text> <text transform="matrix(1 0 0 1 71.9077 217.0003)" class="st1 st5 st6">i</text> <text transform="matrix(1 0 0 1 74.5107 217.0003)" class="st1 st5 st6">f</text> <text transform="matrix(1 0 0 1 77.7217 217.0003)" class="st1 st5 st6">i</text> <text transform="matrix(1 0 0 1 80.3247 217.0003)" class="st1 st5 st6">c</text> <text transform="matrix(1 0 0 1 84.9806 217.0003)" class="st1 st5 st6">a</text> <text transform="matrix(1 0 0 1 90.1106 217.0003)" class="st1 st5 st6">t</text> <text transform="matrix(1 0 0 1 93.4071 217.0003)" class="st1 st5 st6">e</text> </g> <g id="Layer-1_174_"> <text transform="matrix(1 0 0 1 111.2644 78.9925)" class="st7 st8 st9">/</text> </g> <g id="Layer-1_175_"> <path class="st3" d="M343.6,443.7H203.8V270.3h139.8V443.7z"></path> </g> <g id="Layer-1_176_"> <path class="st3" d="M245.8,240.5H0.3V61.5h245.5V240.5z"></path> </g> <g id="Layer-1_177_"> <path class="st2" d="M25.9,32.5h318v-21h-318V32.5z"></path> </g> <g id="Layer-1_178_"> <path class="st3" d="M25.6,32.5h318.3v-21H25.6V32.5z"></path> </g> <g id="Layer-1_179_"> <text transform="matrix(1 0 0 1 120.0308 25.2436)" class="st1 st8 st9">H</text> <text transform="matrix(1 0 0 1 129.1958 25.2436)" class="st1 st8 st9">a</text> <text transform="matrix(1 0 0 1 136.3978 25.2436)" class="st1 st8 st9">u</text> <text transform="matrix(1 0 0 1 144.1068 25.2436)" class="st1 st8 st9">p</text> <text transform="matrix(1 0 0 1 151.6468 25.2436)" class="st1 st8 st9">t</text> <text transform="matrix(1 0 0 1 156.4178 25.2436)" class="st1 st8 st9">s</text> <text transform="matrix(1 0 0 1 163.1908 25.2436)" class="st1 st8 st9">c</text> <text transform="matrix(1 0 0 1 169.6908 25.2436)" class="st1 st8 st9">h</text> <text transform="matrix(1 0 0 1 177.3998 25.2436)" class="st1 st8 st9">u</text> <text transform="matrix(1 0 0 1 185.1089 25.2436)" class="st1 st8 st9">l</text> <text transform="matrix(1 0 0 1 189.5939 25.2436)" class="st1 st8 st9">a</text> <text transform="matrix(1 0 0 1 196.7959 25.2436)" class="st1 st8 st9">b</text> <text transform="matrix(1 0 0 1 204.3359 25.2436)" class="st1 st8 st9">s</text> <text transform="matrix(1 0 0 1 211.1089 25.2436)" class="st1 st8 st9">c</text> <text transform="matrix(1 0 0 1 217.6089 25.2436)" class="st1 st8 st9">h</text> <text transform="matrix(1 0 0 1 225.3179 25.2436)" class="st1 st8 st9">l</text> <text transform="matrix(1 0 0 1 229.8029 25.2436)" class="st1 st8 st9">u</text> <text transform="matrix(1 0 0 1 237.5119 25.2436)" class="st1 st8 st9">s</text> <text transform="matrix(1 0 0 1 244.2199 25.2436)" class="st1 st8 st9">s</text> </g> <g id="Layer-1_195_"> <path class="st1" d="M5.1,295.2h4.7l-2.3-2.3L5.1,295.2z"></path> </g> <g id="Layer-1_196_"> <path class="st1" d="M5.1,290.4h4.7l-2.3-2.3L5.1,290.4z"></path> </g> <g id="Layer-1_197_"> <path class="st1" d="M5.1,285.7h4.7l-2.3-2.3L5.1,285.7z"></path> </g> </svg> 