<?xml version="1.0" encoding="utf-8"?>
<!-- Generator: Adobe Illustrator 26.2.1, SVG Export Plug-In . SVG Version: 6.00 Build 0)  -->
<svg version="1.1" id="Ebene_1" xmlns="http://www.w3.org/2000/svg" xmlns:xlink="http://www.w3.org/1999/xlink" x="0px" y="0px"
	 viewBox="0 0 512 512" style="enable-background:new 0 0 512 512;" xml:space="preserve">
<style type="text/css">
	.st0{fill:#6EC3BF;}
	.st1{fill:#A0D5D2;}
	.st2{fill:#87CCC8;}
	.st3{fill:#FFFFFF;}
	.st4{clip-path:url(#SVGID_00000030469968806096404440000018196551959133173159_);fill:#2B2961;}
	.st5{fill:#897DA2;}
	.st6{fill:#2B2961;}
	.st7{clip-path:url(#SVGID_00000074438333572801919090000012603659907648496017_);fill:#FFFFFF;}
	.st8{clip-path:url(#SVGID_00000074438333572801919090000012603659907648496017_);fill:#2B2961;}
	.st9{clip-path:url(#SVGID_00000183248943943713084830000004676673237881265565_);fill:#FFFFFF;}
	.st10{clip-path:url(#SVGID_00000183248943943713084830000004676673237881265565_);fill:#6EC3BF;}
	.st11{fill:#9D9D9C;}
	.st12{fill:#D0D0D0;}
	.st13{clip-path:url(#SVGID_00000096742513720816952360000014531664215287449745_);fill:#FFFFFF;}
	.st14{clip-path:url(#SVGID_00000044878042501610302180000005969164717104506033_);fill:#2B2961;}
	.st15{clip-path:url(#SVGID_00000044878042501610302180000005969164717104506033_);fill:#FFFFFF;}
	.st16{fill:#97D1CE;}
	.st17{clip-path:url(#SVGID_00000157986414305071589900000008859141984534737028_);fill:#2B2961;}
	.st18{clip-path:url(#SVGID_00000139260683569052471430000005981058817352695739_);fill:#2B2961;}
	.st19{clip-path:url(#SVGID_00000036250482554553851790000003894368785052751539_);fill:#FFFFFF;}
	.st20{clip-path:url(#SVGID_00000036250482554553851790000003894368785052751539_);fill:#2B2961;}
	.st21{clip-path:url(#SVGID_00000065035940911985584540000004178841946119073447_);fill:#2B2961;}
	.st22{clip-path:url(#SVGID_00000109004898897339007210000009630984573920582029_);fill:#2B2961;}
	.st23{clip-path:url(#SVGID_00000109004898897339007210000009630984573920582029_);fill:#FFFFFF;}
	.st24{clip-path:url(#SVGID_00000159456499311644584880000001146438910699468964_);fill:#FFFFFF;}
	.st25{clip-path:url(#SVGID_00000175314172230191774910000010957434303420408192_);fill:#6EC3BF;}
	.st26{clip-path:url(#SVGID_00000123426189600596498240000013014083847696728989_);fill:#2B2961;}
	.st27{clip-path:url(#SVGID_00000123426189600596498240000013014083847696728989_);fill:#1D1D1B;}
	.st28{clip-path:url(#SVGID_00000123426189600596498240000013014083847696728989_);fill:#FFFFFF;}
	.st29{clip-path:url(#SVGID_00000080904281065349006610000008331224050482802569_);fill:#2B2961;}
	.st30{clip-path:url(#SVGID_00000134241673595049947690000013938516941492420233_);fill:#2B2961;}
	.st31{clip-path:url(#SVGID_00000134241673595049947690000013938516941492420233_);fill:#FFFFFF;}
	.st32{clip-path:url(#SVGID_00000051344210506167358310000011097380480324215959_);fill:#2B2961;}
	.st33{clip-path:url(#SVGID_00000074429260416036286490000014034789917692010391_);fill:#2B2961;}
	.st34{clip-path:url(#SVGID_00000074429260416036286490000014034789917692010391_);fill:#6EC3BF;}
	.st35{clip-path:url(#SVGID_00000071532348097459153540000001862512795508188332_);fill:#2B2961;}
	.st36{clip-path:url(#SVGID_00000057125480065884851830000005440855535794429570_);fill:#2B2961;}
	.st37{clip-path:url(#SVGID_00000018924454926587392990000006966748844403831959_);fill:#2B2961;}
	.st38{clip-path:url(#SVGID_00000064330809836891104550000015794751353260534925_);fill:#2B2961;}
	.st39{clip-path:url(#SVGID_00000129893836528872550190000005634726592064587963_);fill:#6EC3BF;}
	.st40{clip-path:url(#SVGID_00000000182099232383400910000003881031009688139142_);fill:#6EC3BF;}
	.st41{clip-path:url(#SVGID_00000107580405118941639140000011220872697261363341_);fill:#6EC3BF;}
	.st42{clip-path:url(#SVGID_00000062193271687364107440000006043198663840019862_);fill:#6EC3BF;}
	.st43{clip-path:url(#SVGID_00000088128891886412414630000007383789516747261359_);fill:#2B2961;}
	.st44{clip-path:url(#SVGID_00000029046570246039688820000001415638454805169083_);fill:#2B2961;}
	.st45{clip-path:url(#SVGID_00000067954249413511933340000008607261579202038459_);fill:#2B2961;}
	.st46{clip-path:url(#SVGID_00000132786354699150999080000017366924179559142285_);fill:#2B2961;}
	.st47{clip-path:url(#SVGID_00000132786354699150999080000017366924179559142285_);fill:#FFFFFF;}
	.st48{clip-path:url(#SVGID_00000003810356891226555170000009813394807795883430_);fill:#FFFFFF;}
	.st49{clip-path:url(#SVGID_00000002348509691195946070000000758025599878329218_);fill:#2B2961;}
	.st50{clip-path:url(#SVGID_00000079450566312177290050000006761744446491328424_);fill:#2B2961;}
	.st51{clip-path:url(#SVGID_00000079450566312177290050000006761744446491328424_);fill:#FFFFFF;}
	.st52{clip-path:url(#SVGID_00000170260519452618605210000006377585130586440331_);fill:#2B2961;}
	.st53{clip-path:url(#SVGID_00000170260519452618605210000006377585130586440331_);fill:#2C265F;}
	.st54{clip-path:url(#SVGID_00000048473866366892877210000012094541558847511703_);fill:#FFFFFF;}
	.st55{clip-path:url(#SVGID_00000181769878773332587810000006453288537271313047_);fill:#2B2961;}
	.st56{clip-path:url(#SVGID_00000059303484169586641400000017922655903332175501_);fill:#FFFFFF;}
	.st57{clip-path:url(#SVGID_00000166673712827263076870000014283327493907668402_);fill:#2B2961;}
	.st58{clip-path:url(#SVGID_00000016069913104342829840000010693679956320806798_);fill:#FFFFFF;}
	.st59{clip-path:url(#SVGID_00000009568394983542949420000011226879488172957110_);fill:#2B2961;}
	.st60{clip-path:url(#SVGID_00000009568394983542949420000011226879488172957110_);fill:#FFFFFF;}
	.st61{clip-path:url(#SVGID_00000015352992621290418480000005756015404447275929_);fill:#2B2961;}
	.st62{clip-path:url(#SVGID_00000114780728714965333440000012043305943557225140_);fill:#FFFFFF;}
	.st63{clip-path:url(#SVGID_00000150798895509091885560000001779665636764531900_);fill:#2B2961;}
	.st64{clip-path:url(#SVGID_00000036247064264594035600000011542580996588568765_);fill:#FFFFFF;}
	.st65{clip-path:url(#SVGID_00000036247064264594035600000011542580996588568765_);fill:#2B2961;}
	.st66{clip-path:url(#SVGID_00000083090696638020126460000004345176310923867018_);fill:#2B2961;}
	.st67{clip-path:url(#SVGID_00000083090696638020126460000004345176310923867018_);fill:#6EC3BF;}
	.st68{clip-path:url(#SVGID_00000083090696638020126460000004345176310923867018_);fill:#FFFFFF;}
	.st69{clip-path:url(#SVGID_00000136393201054118296020000007879829170400875947_);fill:#2B2961;}
	.st70{clip-path:url(#SVGID_00000021799837179784135790000009003704405113172115_);fill:#2B2961;}
	.st71{clip-path:url(#SVGID_00000160148974253529851790000016049266468480860815_);fill:#2B2961;}
	.st72{clip-path:url(#SVGID_00000150074530430109773560000009499346059597683340_);fill:#2B2961;}
	.st73{clip-path:url(#SVGID_00000153672257680682490290000007230830388155301254_);fill:#2B2961;}
	.st74{clip-path:url(#SVGID_00000129926019441895851010000001160466401582595480_);fill:#FFFFFF;}
	.st75{clip-path:url(#SVGID_00000129926019441895851010000001160466401582595480_);fill:#6EC3BF;}
	.st76{clip-path:url(#SVGID_00000101797871436452438310000004043866482648673410_);fill:#2B2961;}
	.st77{clip-path:url(#SVGID_00000067955123159219697290000016063004095825356469_);fill:#2B2961;}
	.st78{clip-path:url(#SVGID_00000067955123159219697290000016063004095825356469_);fill:#FFFFFF;}
	.st79{clip-path:url(#SVGID_00000160183939289002758120000002662571110753127049_);fill:#2B2961;}
	.st80{clip-path:url(#SVGID_00000009573375875609060220000012340760169688081574_);fill:#FFFFFF;}
	.st81{clip-path:url(#SVGID_00000054268352210022850990000010553197650900497293_);fill:#2B2961;}
	.st82{clip-path:url(#SVGID_00000086649719269292378620000013191388256803111051_);fill:#2B2961;}
	.st83{clip-path:url(#SVGID_00000027588177364166208600000016807694569891026593_);fill:#2B2961;}
	.st84{clip-path:url(#SVGID_00000059302785058194360610000003686370013732312763_);fill:#FFFFFF;}
	.st85{clip-path:url(#SVGID_00000111875837725016310390000006989906983070509753_);fill:#FFFFFF;}
	.st86{clip-path:url(#SVGID_00000175288867788284225080000013142431039473063580_);fill:#2B2961;}
	.st87{clip-path:url(#SVGID_00000144326393357123625680000007598751967908133506_);fill:#2B2961;}
	.st88{clip-path:url(#SVGID_00000144326393357123625680000007598751967908133506_);fill:#FFFFFF;}
	.st89{clip-path:url(#SVGID_00000047049405165027449990000015532739371886991534_);fill:#2B2961;}
	.st90{clip-path:url(#SVGID_00000106849662818391093030000012221635586947257774_);fill:#FFFFFF;}
	.st91{clip-path:url(#SVGID_00000155852162158539307490000007034817410517321900_);fill:#6EC3BF;}
	.st92{clip-path:url(#SVGID_00000155852162158539307490000007034817410517321900_);fill:#2B2961;}
	.st93{clip-path:url(#SVGID_00000065046721627150711590000012788283878972145301_);fill:#6EC3BF;}
	.st94{clip-path:url(#SVGID_00000170247773058869003800000013033229805117463221_);fill:#2B2961;}
	.st95{clip-path:url(#SVGID_00000132779616028286706290000011762292725115847349_);fill:#2B2961;}
	.st96{clip-path:url(#SVGID_00000133528232353450677540000018441173785813220778_);fill:#2B2961;}
	.st97{clip-path:url(#SVGID_00000176030158988095910570000003134866980429384073_);fill:#2B2961;}
	.st98{clip-path:url(#SVGID_00000065068948683354979470000013358493134417903286_);fill:#2B2961;}
	.st99{clip-path:url(#SVGID_00000065068948683354979470000013358493134417903286_);fill:#6EC3BF;}
	.st100{clip-path:url(#SVGID_00000139993412242107414770000008920840521085224885_);fill:#2B2961;}
	.st101{clip-path:url(#SVGID_00000134941240602397773960000016111133296024302003_);fill:#2B2961;}
	.st102{clip-path:url(#SVGID_00000134941240602397773960000016111133296024302003_);fill:#6EC3BF;}
	.st103{clip-path:url(#SVGID_00000059990158974672089210000017254558634992658110_);fill:#2B2961;}
	.st104{clip-path:url(#SVGID_00000183938029884893159830000006215264536812459194_);fill:#FFFFFF;}
	.st105{clip-path:url(#SVGID_00000183938029884893159830000006215264536812459194_);fill:#2B2961;}
	.st106{clip-path:url(#SVGID_00000013165260492817704850000006632459491312151706_);fill:#6EC3BF;}
	.st107{clip-path:url(#SVGID_00000042713928614992208610000004300951554238758309_);fill:#2B2961;}
	.st108{clip-path:url(#SVGID_00000052066943053579765800000008179009065187495557_);fill:#2B2961;}
	.st109{clip-path:url(#SVGID_00000052066943053579765800000008179009065187495557_);fill:#FFFFFF;}
	.st110{clip-path:url(#SVGID_00000123402686224765936180000007032594567626937261_);fill:#6EC3BF;}
	.st111{clip-path:url(#SVGID_00000069393257818574649170000005395261782225121462_);fill:#2B2961;}
	.st112{clip-path:url(#SVGID_00000075150497635315340430000017088041334020940448_);fill:#2B2961;}
	.st113{clip-path:url(#SVGID_00000075150497635315340430000017088041334020940448_);fill:#6EC3BF;}
	.st114{clip-path:url(#SVGID_00000046335456839926122870000017104912909064471963_);fill:#2B2961;}
	.st115{clip-path:url(#SVGID_00000160901956893902330480000001503434306201190837_);fill:#6EC3BF;}
	.st116{clip-path:url(#SVGID_00000160901956893902330480000001503434306201190837_);fill:#2B2961;}
	.st117{clip-path:url(#SVGID_00000106853449375864108540000005788862743074161050_);fill:#2B2961;}
	.st118{clip-path:url(#SVGID_00000001651614475387942280000010674400419476091833_);fill:#FFFFFF;}
	.st119{clip-path:url(#SVGID_00000001651614475387942280000010674400419476091833_);}
	.st120{clip-path:url(#SVGID_00000104688701336049227330000015729246784362652332_);fill:#2B2961;}
	.st121{clip-path:url(#SVGID_00000001651614475387942280000010674400419476091833_);fill:#6EC3BF;}
	.st122{clip-path:url(#SVGID_00000027567846144346773520000007555763277762712716_);fill:#2B2961;}
	.st123{clip-path:url(#SVGID_00000001651614475387942280000010674400419476091833_);fill:#2B2961;}
	.st124{clip-path:url(#SVGID_00000060029689720979881800000012922628790634011066_);fill:#2B2961;}
	.st125{clip-path:url(#SVGID_00000121976092491780376560000003216427584134930571_);fill:#2B2961;}
	.st126{clip-path:url(#SVGID_00000165915063607919078790000015307688960356926632_);}
	.st127{clip-path:url(#SVGID_00000155834560590794892060000012912895579242575271_);}
	.st128{clip-path:url(#SVGID_00000100382874533294352050000005510163928973101732_);fill:#FFFFFF;}
	.st129{clip-path:url(#SVGID_00000165933008613088893990000002511941402922487951_);fill:#2B2961;}
	.st130{clip-path:url(#SVGID_00000075860873075057214290000012739756110034987395_);fill:#2B2961;}
	.st131{clip-path:url(#SVGID_00000075860873075057214290000012739756110034987395_);fill:#6EC3BF;}
	.st132{clip-path:url(#SVGID_00000075860873075057214290000012739756110034987395_);fill:#FFFFFF;}
	.st133{clip-path:url(#SVGID_00000116197724916658035700000007896618624830317235_);fill:#2B2961;}
	.st134{clip-path:url(#SVGID_00000116197724916658035700000007896618624830317235_);fill:#6EC3BF;}
	.st135{clip-path:url(#SVGID_00000070805628236357332670000012086470750311738545_);fill:#2B2961;}
	.st136{clip-path:url(#SVGID_00000003796423901262363780000006204976282150954890_);fill:#6EC3BF;}
	.st137{clip-path:url(#SVGID_00000003796423901262363780000006204976282150954890_);fill:#FFFFFF;}
	.st138{clip-path:url(#SVGID_00000078764234079618243800000009701815803975132558_);fill:#2B2961;}
	.st139{clip-path:url(#SVGID_00000078764234079618243800000009701815803975132558_);fill:#6EC3BF;}
	.st140{clip-path:url(#SVGID_00000026858370529766470470000007788015196941605011_);fill:#2B2961;}
	.st141{clip-path:url(#SVGID_00000045600777876368779310000007051426451527598744_);fill:#2B2961;}
	.st142{clip-path:url(#SVGID_00000045600777876368779310000007051426451527598744_);fill:#FFFFFF;}
	.st143{clip-path:url(#SVGID_00000068660836113364577460000011861410402879435675_);fill:#2B2961;}
	.st144{clip-path:url(#SVGID_00000160907314766668723750000000430783780392585659_);fill:#FFFFFF;}
	.st145{clip-path:url(#SVGID_00000095319990328908176480000000379410812831784096_);fill:#2B2961;}
	.st146{clip-path:url(#SVGID_00000172404508065493225460000007205107015898400954_);fill:#2B2961;}
	.st147{clip-path:url(#SVGID_00000172404508065493225460000007205107015898400954_);fill:#FFFFFF;}
	.st148{clip-path:url(#SVGID_00000082329907875430392090000000179163589402160803_);fill:#2B2961;}
	.st149{clip-path:url(#SVGID_00000073001207376379418700000016046206720932501431_);fill:#2B2961;}
	.st150{clip-path:url(#SVGID_00000073001207376379418700000016046206720932501431_);fill:#FFFFFF;}
	.st151{clip-path:url(#SVGID_00000005250478256656836880000018093191792220539538_);fill:#2B2961;}
	.st152{clip-path:url(#SVGID_00000005250478256656836880000018093191792220539538_);fill:#6EC3BF;}
	.st153{clip-path:url(#SVGID_00000060012955044809861460000006984221614757426050_);fill:#1D1D1B;}
	.st154{clip-path:url(#SVGID_00000060012955044809861460000006984221614757426050_);fill:#2B2961;}
	.st155{clip-path:url(#SVGID_00000060012955044809861460000006984221614757426050_);fill:#FFFFFF;}
	.st156{clip-path:url(#SVGID_00000098187393614634653240000005917536316693481387_);fill:#2B2961;}
	.st157{clip-path:url(#SVGID_00000010991615574932818380000008007682742986259332_);fill:#2B2961;}
	.st158{clip-path:url(#SVGID_00000031901760051139622120000001808298042514295171_);fill:#2B2961;}
	.st159{clip-path:url(#SVGID_00000031901760051139622120000001808298042514295171_);fill:#FFFFFF;}
	.st160{clip-path:url(#SVGID_00000031901760051139622120000001808298042514295171_);fill:#6EC3BF;}
	.st161{clip-path:url(#SVGID_00000060023861481678120720000014240181046278819480_);fill:#2B2961;}
	.st162{clip-path:url(#SVGID_00000109008553050740950230000004335190770507125172_);fill:#2B2961;}
	.st163{clip-path:url(#SVGID_00000162328891005303354630000005991956419226959494_);fill:#2B2961;}
	.st164{clip-path:url(#SVGID_00000098932234215894553760000015589006156219349694_);fill:#2B2961;}
	.st165{clip-path:url(#SVGID_00000098932234215894553760000015589006156219349694_);fill:#FFFFFF;}
	.st166{clip-path:url(#SVGID_00000083059715963605564740000011574255940045906610_);fill:#2B2961;}
	.st167{clip-path:url(#SVGID_00000083059715963605564740000011574255940045906610_);fill:#FFFFFF;}
	.st168{clip-path:url(#SVGID_00000068670559259863010540000017248894948295799455_);fill:#2B2961;}
	.st169{clip-path:url(#SVGID_00000016047997348286649900000004018983663661392524_);fill:#2B2961;}
	.st170{clip-path:url(#SVGID_00000016047997348286649900000004018983663661392524_);fill:#FFFFFF;}
	.st171{clip-path:url(#SVGID_00000103254011661598172070000004823995990813719476_);fill:#2B2961;}
	.st172{clip-path:url(#SVGID_00000075159813119800199500000013418895655094945688_);fill:#FFFFFF;}
	.st173{clip-path:url(#SVGID_00000103963858720768227810000015152143810384205474_);fill:#2B2961;}
	.st174{clip-path:url(#SVGID_00000103963858720768227810000015152143810384205474_);fill:#6EC3BF;}
	.st175{clip-path:url(#SVGID_00000024000969660572294270000000718706250154438535_);fill:#2B2961;}
	.st176{clip-path:url(#SVGID_00000102527257165819766990000014647379302967736760_);fill:#2B2961;}
	.st177{clip-path:url(#SVGID_00000055690253218745580070000010769666306261431427_);fill:#FFFFFF;}
	.st178{clip-path:url(#SVGID_00000070812159204082899310000015650817411507893893_);fill:#6EC3BF;}
	.st179{clip-path:url(#SVGID_00000070812159204082899310000015650817411507893893_);fill:#2B2961;}
	.st180{clip-path:url(#SVGID_00000106115036852359599080000015688695810531670694_);fill:#6EC3BF;}
	.st181{clip-path:url(#SVGID_00000017505585003800667320000012743123540930624153_);fill:#2B2961;}
	.st182{clip-path:url(#SVGID_00000137828001056134736170000014404476419352015237_);fill:#6EC3BF;}
	.st183{clip-path:url(#SVGID_00000137828001056134736170000014404476419352015237_);fill:#2B2961;}
	.st184{clip-path:url(#SVGID_00000170270464507751640450000013548875785527564448_);fill:#2B2961;}
	.st185{clip-path:url(#SVGID_00000039838115906206261500000016631852511962049436_);fill:#2B2961;}
	.st186{clip-path:url(#SVGID_00000021822222278746717830000007402633403805599123_);fill:#2B2961;}
	.st187{clip-path:url(#SVGID_00000075137053592051963250000006151870331240778158_);fill:#2B2961;}
	.st188{clip-path:url(#SVGID_00000146486373277600561960000013722982566266918531_);fill:#2B2961;}
	.st189{clip-path:url(#SVGID_00000155119800835944549600000008331348610216779661_);fill:#6EC3BF;}
	.st190{clip-path:url(#SVGID_00000155119800835944549600000008331348610216779661_);fill:#2B2961;}
	.st191{clip-path:url(#SVGID_00000043421474629752978380000015360664147332554133_);fill:#6EC3BF;}
	.st192{clip-path:url(#SVGID_00000043421474629752978380000015360664147332554133_);fill:#2B2961;}
	.st193{clip-path:url(#SVGID_00000060004909779876718450000010169570766877835143_);fill:#2B2961;}
	.st194{clip-path:url(#SVGID_00000092427736521669202500000004178817317358049192_);fill:#2B2961;}
	.st195{clip-path:url(#SVGID_00000160169388934033918330000002879106436489820828_);fill:#2B2961;}
	.st196{clip-path:url(#SVGID_00000106115782918916133550000013332007620777788862_);fill:#FFFFFF;}
	.st197{clip-path:url(#SVGID_00000137816667921422836070000011939563235352234669_);fill:#2B2961;}
	.st198{clip-path:url(#SVGID_00000049222659483223296930000001923576324434730672_);fill:#2B2961;}
	.st199{clip-path:url(#SVGID_00000049222659483223296930000001923576324434730672_);fill:#6EC3BF;}
	.st200{clip-path:url(#SVGID_00000168088409909140870610000007481090840354027692_);fill:#2B2961;}
	.st201{clip-path:url(#SVGID_00000027570482220078455430000018076779016954089874_);fill:#2B2961;}
	.st202{clip-path:url(#SVGID_00000009578668852069346830000008379559736055134637_);fill:#6EC3BF;}
	.st203{clip-path:url(#SVGID_00000009578668852069346830000008379559736055134637_);fill:#2B2961;}
	.st204{clip-path:url(#SVGID_00000075850880136846955990000010024853075202768573_);fill:#6EC3BF;}
	.st205{clip-path:url(#SVGID_00000075850880136846955990000010024853075202768573_);fill:#2B2961;}
	.st206{clip-path:url(#SVGID_00000060011037979992690400000012053765652614993315_);fill:#2B2961;}
	.st207{clip-path:url(#SVGID_00000091718752442377932760000009900383168488136330_);fill:#2B2961;}
	.st208{clip-path:url(#SVGID_00000091718752442377932760000009900383168488136330_);fill:#6EC3BF;}
	.st209{clip-path:url(#SVGID_00000049943849481274890920000003032782174571542405_);fill:#2B2961;}
	.st210{clip-path:url(#SVGID_00000049943849481274890920000003032782174571542405_);fill:#6EC3BF;}
	.st211{clip-path:url(#SVGID_00000164512571937534067470000007574114352744537484_);fill:#2B2961;}
	.st212{clip-path:url(#SVGID_00000164512571937534067470000007574114352744537484_);fill:#6EC3BF;}
	.st213{clip-path:url(#SVGID_00000003078402242838292120000003986385048231203260_);fill:#2B2961;}
	.st214{clip-path:url(#SVGID_00000031202192251234905300000008827182149610800046_);fill:#6EC3BF;}
	.st215{clip-path:url(#SVGID_00000031202192251234905300000008827182149610800046_);fill:#2B2961;}
	.st216{clip-path:url(#SVGID_00000020369735798580502780000006269828744213565330_);fill:#6EC3BF;}
	.st217{clip-path:url(#SVGID_00000020369735798580502780000006269828744213565330_);fill:#2B2961;}
	.st218{clip-path:url(#SVGID_00000039122835758483943100000012517313670855556736_);fill:#FFFFFF;}
	.st219{clip-path:url(#SVGID_00000039122835758483943100000012517313670855556736_);fill:#2B2961;}
	.st220{clip-path:url(#SVGID_00000082342413140982153360000000064203511807276172_);fill:#FFFFFF;}
	.st221{clip-path:url(#SVGID_00000082342413140982153360000000064203511807276172_);fill:#2B2961;}
	.st222{clip-path:url(#SVGID_00000180325967989198552950000012251234225386805901_);fill:#FFFFFF;}
	.st223{clip-path:url(#SVGID_00000180325967989198552950000012251234225386805901_);fill:#2B2961;}
	.st224{clip-path:url(#SVGID_00000018217893511733470250000003775630365655785622_);fill:#6EC3BF;}
	.st225{clip-path:url(#SVGID_00000018217893511733470250000003775630365655785622_);fill:#2B2961;}
	.st226{clip-path:url(#SVGID_00000053507188085777674560000013304885010670737079_);fill:#2B2961;}
	.st227{clip-path:url(#SVGID_00000053507188085777674560000013304885010670737079_);fill:#6EC3BF;}
	.st228{clip-path:url(#SVGID_00000134231184798554526460000013388282475783269544_);fill:#2B2961;}
	.st229{clip-path:url(#SVGID_00000040546882585324771100000007975922818472292251_);fill:#6EC3BF;}
	.st230{clip-path:url(#SVGID_00000040546882585324771100000007975922818472292251_);fill:#2B2961;}
	.st231{clip-path:url(#SVGID_00000132794741902304123980000007623444984948762785_);fill:#2B2961;}
	.st232{clip-path:url(#SVGID_00000124144319774659606670000003171803716280346778_);fill:#2B2961;}
	.st233{clip-path:url(#SVGID_00000124144319774659606670000003171803716280346778_);fill:#6EC3BF;}
	.st234{clip-path:url(#SVGID_00000073689051144280445420000009134915510068143536_);fill:#2B2961;}
	.st235{clip-path:url(#SVGID_00000134226512245276746860000006710846023570236832_);fill:#FFFFFF;}
	.st236{clip-path:url(#SVGID_00000134226512245276746860000006710846023570236832_);fill:#2B2961;}
	.st237{fill:#2C265F;}
	.st238{clip-path:url(#SVGID_00000057833888018441491500000018055422941316886969_);fill:#2B2961;}
	.st239{clip-path:url(#SVGID_00000057833888018441491500000018055422941316886969_);fill:#6EC3BF;}
	.st240{fill:#61B87A;}
	.st241{clip-path:url(#SVGID_00000021830355150817842990000004808257071844327584_);fill:#2B2961;}
	.st242{clip-path:url(#SVGID_00000181796125572472176800000011877553347276586669_);fill:#2B2961;}
	.st243{clip-path:url(#SVGID_00000150808672308147812500000016362778036048334772_);fill:#2B2961;}
	.st244{clip-path:url(#SVGID_00000160151947252692008740000006522047080538229653_);fill:#2B2961;}
	.st245{clip-path:url(#SVGID_00000160151947252692008740000006522047080538229653_);fill:#61B87A;}
	.st246{clip-path:url(#SVGID_00000160151947252692008740000006522047080538229653_);fill:#FFFFFF;}
	.st247{clip-path:url(#SVGID_00000144324669339996049200000002358812062108889015_);fill:#2B2961;}
	.st248{clip-path:url(#SVGID_00000144324669339996049200000002358812062108889015_);fill:#61B87A;}
	.st249{clip-path:url(#SVGID_00000112634543568923415880000007505908784468212353_);fill:#2B2961;}
	.st250{clip-path:url(#SVGID_00000094588436979943129670000014887646785294709432_);fill:#6EC3BF;}
	.st251{clip-path:url(#SVGID_00000094588436979943129670000014887646785294709432_);fill:#2B2961;}
	.st252{clip-path:url(#SVGID_00000165206740053411129940000005211157430640732088_);fill:#2B2961;}
	.st253{clip-path:url(#SVGID_00000165206740053411129940000005211157430640732088_);fill:#6EC3BF;}
	.st254{clip-path:url(#SVGID_00000007413310479493406510000005844934752292319928_);fill:#2B2961;}
	.st255{clip-path:url(#SVGID_00000007413310479493406510000005844934752292319928_);fill:#6EC3BF;}
</style>
<g>
	<rect y="285.24" class="st2" width="48.48" height="203.47"/>
	<rect y="78.75" class="st2" width="48.48" height="82.48"/>
	<rect y="269.8" class="st2" width="509.94" height="48.48"/>
	<g>
		<defs>
			<rect id="SVGID_00000030488159379388058700000000107426130729685152_" y="21.87" width="512" height="468.27"/>
		</defs>
		<clipPath id="SVGID_00000149368704027587610710000003289312664710071187_">
			<use xlink:href="#SVGID_00000030488159379388058700000000107426130729685152_"  style="overflow:visible;"/>
		</clipPath>
		<path style="clip-path:url(#SVGID_00000149368704027587610710000003289312664710071187_);fill:#2B2961;" d="M285.59,230.45
			l-11.25-19.07l10.49-12.58h-7.51l-11.16,13.78v-13.78h-6.18v31.65h6.18v-9.51l4.09-4.89l8.14,14.4H285.59z M246.16,207.95
			c0,2.18-1.47,3.65-4.09,3.65h-6.05v-7.3h6.05C244.68,204.3,246.16,205.77,246.16,207.95 M246.6,221.02c0,2.13-1.34,3.92-4.14,3.92
			h-6.45v-7.79h6.45C245.26,217.15,246.6,218.89,246.6,221.02 M252.77,221.33c0-4.23-2.44-6.23-4.35-7.11
			c1.6-0.76,3.91-3.02,3.91-6.54c0-5.42-3.6-8.89-9.78-8.89h-12.71v31.65h13.25C248.73,230.45,252.77,227.25,252.77,221.33"/>
	</g>
	<rect x="1.03" y="22.89" class="st2" width="506.18" height="71.15"/>
	<g>
		<defs>
			<rect id="SVGID_00000026121091251319938950000012038434152826502544_" y="21.87" width="512" height="468.27"/>
		</defs>
		<clipPath id="SVGID_00000169559253843411722270000005996857897895692674_">
			<use xlink:href="#SVGID_00000026121091251319938950000012038434152826502544_"  style="overflow:visible;"/>
		</clipPath>
		<path style="clip-path:url(#SVGID_00000169559253843411722270000005996857897895692674_);fill:#2B2961;" d="M508.23,95.06H0v-73.2
			h508.23V95.06z M2.05,93.01h504.12V23.92H2.05V93.01z"/>
		<path style="clip-path:url(#SVGID_00000169559253843411722270000005996857897895692674_);fill:#FFFFFF;" d="M450.92,57.64h-8.8
			c0.04-1.03,0.18-1.65,0.53-2.49c0.62-1.38,1.91-2.4,3.87-2.4s3.25,1.02,3.87,2.4C450.75,56,450.88,56.62,450.92,57.64
			 M456.61,61.6v-2.58c0-6.36-3.65-11.07-10.09-11.07c-6,0-10.09,4.26-10.09,11.82c0,9.38,5.24,11.87,10.71,11.87
			c4.18,0,6.45-1.29,8.8-3.64l-3.51-3.42c-1.47,1.47-2.71,2.18-5.25,2.18c-3.25,0-5.07-2.18-5.07-5.16H456.61z M432.96,53.28v-4.4
			h-4.27v-2.54c0-1.34,0.62-2.09,2-2.09h2.27v-4.88h-3.29c-4.71,0-6.76,3.33-6.76,6.62v2.89h-2.4v4.4h2.4v18.1h5.78v-18.1H432.96z
			 M414.91,39.55H409v4.71h5.91V39.55z M414.86,48.22h-5.77v23.16h5.77V48.22z M397.16,57.64h-8.8c0.04-1.03,0.18-1.65,0.53-2.49
			c0.62-1.38,1.91-2.4,3.87-2.4c1.96,0,3.25,1.02,3.87,2.4C396.99,56,397.12,56.62,397.16,57.64 M402.86,61.6v-2.58
			c0-6.36-3.65-11.07-10.09-11.07c-6,0-10.09,4.26-10.09,11.82c0,9.38,5.24,11.87,10.71,11.87c4.18,0,6.45-1.29,8.8-3.64l-3.51-3.42
			c-1.47,1.47-2.71,2.18-5.25,2.18c-3.25,0-5.07-2.18-5.07-5.16H402.86z M381.02,50.13c-1.6-1.6-3.2-2.18-5.47-2.18
			c-2.49,0-4.71,1.15-5.83,2.49v-2.22h-5.64v23.16h5.77V57.42c0-2.93,1.96-4.27,3.74-4.27c1.42,0,2.18,0.49,3.07,1.38L381.02,50.13z
			 M358.57,71.38v-4.88h-2.22c-1.47,0-2.05-0.71-2.05-2.09V39.73h-5.77v25.03c0,3.29,2,6.62,6.75,6.62H358.57z M341.36,71.38V48.22
			h-5.77v14.01c0,3.16-2.05,4.22-3.87,4.22c-1.83,0-3.83-1.07-3.83-4.22V48.22h-5.77v14.81c0,2.53,0.49,4.71,2.35,6.58
			c1.29,1.29,3.15,2.04,5.47,2.04c2.14,0,4.27-0.8,5.79-2.4v2.13H341.36z M315.26,71.38V56.39c0-4.89-2.66-8.44-7.73-8.44
			c-2.05,0-4,0.8-5.56,2.4V39.73h-5.77v31.65h5.77V57.24c0-3.02,1.92-4.09,3.74-4.09c1.82,0,3.78,1.02,3.78,4.09v14.14H315.26z
			 M290.8,68.49l-3.91-3.87c-1.2,1.29-2.22,1.83-3.74,1.83c-1.38,0-2.45-0.49-3.29-1.52c-0.89-1.11-1.29-2.71-1.29-5.16
			c0-2.45,0.4-4.01,1.29-5.12c0.84-1.02,1.91-1.51,3.29-1.51c1.51,0,2.53,0.53,3.74,1.82l3.91-3.91c-2.05-2.13-4.45-3.11-7.65-3.11
			c-4.62,0-10.35,2.44-10.35,11.82c0,9.38,5.73,11.87,10.35,11.87C286.36,71.64,288.76,70.62,290.8,68.49 M268.22,64.09
			c0-3.91-2.31-6.36-6.89-6.8l-3.65-0.36c-2.05-0.18-2.4-1.16-2.4-2c0-1.16,0.98-2.22,3.29-2.22c2,0,4.05,0.36,5.38,1.56l3.56-3.6
			c-2.22-2.09-5.25-2.71-8.85-2.71c-4.71,0-8.94,2.58-8.94,7.37c0,4.27,2.58,6.1,6.76,6.5l3.65,0.36c1.82,0.18,2.45,0.98,2.45,2.13
			c0,1.74-2.09,2.4-4.09,2.4c-1.78,0-4.27-0.27-6.18-2.18l-3.78,3.78c2.93,2.93,6.23,3.33,9.87,3.33
			C263.86,71.64,268.22,69.2,268.22,64.09 M243.67,71.38V56.39c0-4.89-2.67-8.44-7.73-8.44c-2.05,0-4.01,0.8-5.56,2.4V39.73h-5.78
			v31.65h5.78V57.24c0-3.02,1.91-4.09,3.74-4.09c1.83,0,3.78,1.02,3.78,4.09v14.14H243.67z M219.22,68.49l-3.91-3.87
			c-1.2,1.29-2.22,1.83-3.74,1.83c-1.38,0-2.45-0.49-3.29-1.52c-0.89-1.11-1.29-2.71-1.29-5.16c0-2.45,0.4-4.01,1.29-5.12
			c0.84-1.02,1.91-1.51,3.29-1.51c1.51,0,2.53,0.53,3.74,1.82l3.91-3.91c-2.05-2.13-4.45-3.11-7.65-3.11
			c-4.62,0-10.36,2.44-10.36,11.82c0,9.38,5.73,11.87,10.36,11.87C214.77,71.64,217.17,70.62,219.22,68.49 M190.18,59.78
			c0,2.4-0.13,4.45-1.33,5.65c-0.67,0.67-1.56,1.03-2.72,1.03c-1.16,0-2-0.36-2.67-1.03c-1.2-1.2-1.33-3.25-1.33-5.65
			c0-2.4,0.13-4.41,1.33-5.61c0.67-0.67,1.51-1.02,2.67-1.02c1.16,0,2.05,0.36,2.72,1.02C190.05,55.37,190.18,57.37,190.18,59.78
			 M195.96,59.78c0-4.18-0.53-6.81-2.62-8.98c-1.42-1.51-3.78-2.84-7.2-2.84c-3.42,0-5.74,1.33-7.16,2.84
			c-2.09,2.18-2.62,4.8-2.62,8.98c0,4.22,0.53,6.85,2.62,9.03c1.42,1.51,3.74,2.84,7.16,2.84c3.43,0,5.78-1.33,7.2-2.84
			C195.43,66.63,195.96,64,195.96,59.78 M170.21,71.38V56.39c0-4.89-2.66-8.44-7.73-8.44c-2.05,0-4.01,0.8-5.56,2.4V39.73h-5.78
			v31.65h5.78V57.24c0-3.02,1.91-4.09,3.74-4.09c1.82,0,3.78,1.02,3.78,4.09v14.14H170.21z M144.02,71.38V56.39
			c0-4.89-2.66-8.44-7.73-8.44c-2.05,0-4.01,0.8-5.56,2.4V39.73h-5.77v31.65h5.77V57.24c0-3.02,1.91-4.09,3.74-4.09
			c1.82,0,3.78,1.02,3.78,4.09v14.14H144.02z M119.57,68.49l-3.91-3.87c-1.2,1.29-2.22,1.83-3.74,1.83c-1.38,0-2.45-0.49-3.29-1.52
			c-0.89-1.11-1.29-2.71-1.29-5.16c0-2.45,0.4-4.01,1.29-5.12c0.84-1.02,1.91-1.51,3.29-1.51c1.51,0,2.53,0.53,3.74,1.82l3.91-3.91
			c-2.05-2.13-4.45-3.11-7.65-3.11c-4.62,0-10.35,2.44-10.35,11.82c0,9.38,5.73,11.87,10.35,11.87
			C115.12,71.64,117.52,70.62,119.57,68.49 M89.83,62.84c0,1.43-0.22,2.36-0.84,2.94c-1.03,0.98-2.05,1.12-3.65,1.12
			c-2.27,0-3.34-1.07-3.34-2.67c0-1.65,1.16-2.63,3.25-2.63h4.58V62.84z M95.6,71.38V56.13c0-5.42-3.38-8.18-9.87-8.18
			c-3.87,0-6.09,0.71-8.36,3.2l3.69,3.6c1.2-1.38,2.22-1.92,4.45-1.92c3.07,0,4.32,1.11,4.32,3.65v1.16h-5.47
			c-5.38,0-7.91,3.02-7.91,6.71c0,2.05,0.67,3.91,1.91,5.2c1.38,1.38,3.29,2.04,5.91,2.04c2.67,0,4.14-0.67,5.7-2.22v2H95.6z
			 M73.72,45.23v-5.51H52.88v31.65h6.17V58.53h12.49v-5.51H59.05v-7.79H73.72z"/>
		<path style="clip-path:url(#SVGID_00000169559253843411722270000005996857897895692674_);fill:#2B2961;" d="M512,319.02H0V158.76
			h512V319.02z M2.05,316.97h507.9V160.81H2.05V316.97z"/>
	</g>
	<rect x="1.03" y="371.25" class="st2" width="509.95" height="117.86"/>
	<g>
		<defs>
			<rect id="SVGID_00000128469643503876005630000017139537062107094459_" y="21.87" width="512" height="468.27"/>
		</defs>
		<clipPath id="SVGID_00000155148857939247373930000012857861773787601839_">
			<use xlink:href="#SVGID_00000128469643503876005630000017139537062107094459_"  style="overflow:visible;"/>
		</clipPath>
		<path style="clip-path:url(#SVGID_00000155148857939247373930000012857861773787601839_);fill:#2B2961;" d="M512,490.13H0V370.22
			h512V490.13z M2.05,488.08h507.9V372.27H2.05V488.08z"/>
		<path style="clip-path:url(#SVGID_00000155148857939247373930000012857861773787601839_);fill:#2B2961;" d="M391.68,405.52h-8.8
			c0.04-1.03,0.18-1.65,0.53-2.49c0.62-1.38,1.91-2.4,3.87-2.4c1.96,0,3.25,1.02,3.87,2.4
			C391.51,403.87,391.64,404.49,391.68,405.52 M397.37,409.47v-2.58c0-6.36-3.65-11.07-10.09-11.07c-6,0-10.09,4.26-10.09,11.82
			c0,9.38,5.24,11.87,10.71,11.87c4.18,0,6.45-1.29,8.8-3.64l-3.51-3.42c-1.47,1.47-2.71,2.18-5.25,2.18
			c-3.25,0-5.07-2.18-5.07-5.16H397.37z M373.72,401.15v-4.4h-4.27v-2.54c0-1.34,0.62-2.09,2-2.09h2.27v-4.88h-3.29
			c-4.71,0-6.76,3.33-6.76,6.62v2.89h-2.4v4.4h2.4v18.1h5.78v-18.1H373.72z M355.67,387.42h-5.91v4.71h5.91V387.42z M355.62,396.09
			h-5.77v23.16h5.77V396.09z M337.92,405.52h-8.8c0.04-1.03,0.18-1.65,0.53-2.49c0.62-1.38,1.91-2.4,3.87-2.4
			c1.96,0,3.25,1.02,3.87,2.4C337.75,403.87,337.88,404.49,337.92,405.52 M343.62,409.47v-2.58c0-6.36-3.65-11.07-10.09-11.07
			c-6,0-10.09,4.26-10.09,11.82c0,9.38,5.24,11.87,10.71,11.87c4.18,0,6.45-1.29,8.8-3.64l-3.51-3.42
			c-1.47,1.47-2.71,2.18-5.25,2.18c-3.25,0-5.07-2.18-5.07-5.16H343.62z M311.56,397.29c0,2.45-1.78,4.18-4.49,4.18h-5.83v-8.37
			h5.83C309.78,393.1,311.56,394.84,311.56,397.29 M319.03,419.25l-7.06-13.65c3.06-1.11,5.77-3.86,5.77-8.31
			c0-5.29-3.82-9.69-10.27-9.69h-12.4v31.65h6.17v-12.63h4.45l6.18,12.63H319.03z M271.49,405.52h-8.8
			c0.04-1.03,0.18-1.65,0.53-2.49c0.62-1.38,1.91-2.4,3.87-2.4c1.96,0,3.25,1.02,3.87,2.4
			C271.31,403.87,271.45,404.49,271.49,405.52 M277.18,409.47v-2.58c0-6.36-3.65-11.07-10.09-11.07c-6,0-10.09,4.26-10.09,11.82
			c0,9.38,5.24,11.87,10.71,11.87c4.18,0,6.45-1.29,8.8-3.64l-3.51-3.42c-1.47,1.47-2.71,2.18-5.25,2.18
			c-3.25,0-5.07-2.18-5.07-5.16H277.18z M255.35,398c-1.6-1.6-3.2-2.18-5.47-2.18c-2.49,0-4.71,1.15-5.83,2.49v-2.22h-5.64v23.16
			h5.77v-13.96c0-2.93,1.96-4.27,3.74-4.27c1.42,0,2.18,0.49,3.07,1.38L255.35,398z M226.5,405.52h-8.8
			c0.04-1.03,0.18-1.65,0.53-2.49c0.62-1.38,1.91-2.4,3.87-2.4c1.96,0,3.25,1.02,3.87,2.4C226.32,403.87,226.45,404.49,226.5,405.52
			 M232.19,409.47v-2.58c0-6.36-3.65-11.07-10.09-11.07c-6,0-10.09,4.26-10.09,11.82c0,9.38,5.24,11.87,10.71,11.87
			c4.18,0,6.45-1.29,8.8-3.64l-3.51-3.42c-1.47,1.47-2.71,2.18-5.25,2.18c-3.25,0-5.07-2.18-5.07-5.16H232.19z M208.75,419.25v-4.88
			h-2.22c-1.47,0-2.05-0.71-2.05-2.09V387.6h-5.78v25.03c0,3.29,2,6.62,6.76,6.62H208.75z M192.79,419.25v-4.88h-2.09
			c-1.38,0-2-0.76-2-2.09v-11.12h4.09v-4.4h-4.09v-6.85h-5.78v6.85h-2.45v4.4h2.45v11.48c0,3.29,2,6.62,6.71,6.62H192.79z
			 M176.25,419.25v-4.88h-2.09c-1.38,0-2-0.76-2-2.09v-11.12h4.09v-4.4h-4.09v-6.85h-5.78v6.85h-2.45v4.4h2.45v11.48
			c0,3.29,2,6.62,6.71,6.62H176.25z M158.55,387.42h-5.91v4.71h5.91V387.42z M158.51,396.09h-5.77v23.16h5.77V396.09z M144.9,419.25
			V387.6h-6.08l-8.23,17.12l-8.27-17.12h-6.08v31.65h6.17V400.8l6.1,12h4.18l6.05-12v18.45H144.9z"/>
	</g>
	<polygon class="st3" points="16.22,328.58 32.26,328.58 24.24,320.56 	"/>
	<polygon class="st3" points="16.22,360.49 32.26,360.49 24.24,352.47 	"/>
	<polygon class="st3" points="16.22,344.54 32.26,344.54 24.24,336.51 	"/>
	<polygon class="st3" points="16.22,153.09 32.26,153.09 24.24,145.07 	"/>
	<polygon class="st3" points="16.22,102.83 32.26,102.83 24.24,94.81 	"/>
	<polygon class="st3" points="16.22,134.74 32.26,134.74 24.24,126.72 	"/>
	<polygon class="st3" points="16.22,118.79 32.26,118.79 24.24,110.77 	"/>
	<g>
		<defs>
			<rect id="SVGID_00000120546387698008230220000018138852307793265073_" y="21.87" width="512" height="468.27"/>
		</defs>
		<clipPath id="SVGID_00000078762720780107740700000010439388556393997479_">
			<use xlink:href="#SVGID_00000120546387698008230220000018138852307793265073_"  style="overflow:visible;"/>
		</clipPath>
		<path style="clip-path:url(#SVGID_00000078762720780107740700000010439388556393997479_);fill:#FFFFFF;" d="M405.23,294.63
			c0-2.71-1.2-4.34-3.07-5.17c1.69-0.83,2.74-2.34,2.74-4.68c0-3.63-2.64-6.12-6.37-6.12c-3.51,0-6.25,2.24-6.43,5.97h3.14
			c0.15-1.94,1.39-3.14,3.29-3.14c1.79,0,3.23,1.17,3.23,3.39c0,2-1.05,3.33-3.32,3.33h-0.52v2.73h0.52c2.46,0,3.66,1.39,3.66,3.61
			c0,2.31-1.54,3.64-3.57,3.64c-1.82,0-3.45-0.99-3.57-3.33h-3.14c0.12,4.28,3.2,6.15,6.71,6.15
			C402.18,301,405.23,298.84,405.23,294.63 M381.07,288.38h-8.99v2.92h8.99V288.38z M357.15,300.78v-21.91h-3.14l-4.28,3.69v3.48
			l4.28-3.76v18.5H357.15z M334.98,300.78v-2.98H324.3v-6.59h9.11v-2.95h-9.11v-6.41h10.68v-2.98h-14v21.91H334.98z M310.33,285.3
			c0,2.15-1.51,3.42-3.73,3.42h-4.93v-6.87h4.93C308.82,281.85,310.33,283.14,310.33,285.3 M314.33,300.78l-5.05-9.69
			c2.46-0.68,4.37-2.67,4.37-5.82c0-3.72-2.64-6.4-6.8-6.4h-8.49v21.91h3.32v-9.24h4.16l4.62,9.24H314.33z M290.16,300.78v-21.91
			h-3.32v9.36h-8.9v-9.36h-3.32v21.91h3.32v-9.57h8.9v9.57H290.16z M263.07,293.55h-6.74l3.42-9.73L263.07,293.55z M269.04,300.78
			l-8.03-21.91h-2.68l-8.03,21.91h3.54l1.51-4.4h8.65l1.51,4.4H269.04z M245.34,293.86v-14.99h-3.32v14.75
			c0,2.86-1.51,4.37-3.97,4.37c-1.6,0-2.34-0.55-3.11-1.32l-2.22,2.18c1.51,1.51,3.08,2.12,5.33,2.12
			C242.08,300.96,245.34,298.41,245.34,293.86 M222.87,276.59h-3.02l-8.77,26.47h3.02L222.87,276.59z M176.33,287.79h-3.35v9.2h-5.4
			v3.8h8.76V287.79z M183.46,300.48c0.99-0.21,1.75-0.56,2.27-1.08c0.52-0.51,0.88-1.22,1.08-2.14c0.19-0.91,0.29-2.08,0.29-3.49
			v-5.99h-3.39v7.39c0,0.73-0.21,1.21-0.62,1.45s-1.08,0.36-2.02,0.36h-4.75v3.8h3.25C181.17,300.78,182.47,300.68,183.46,300.48
			 M195.12,299.98c0.99-0.54,1.7-1.45,2.12-2.74c0.42-1.29,0.63-3.09,0.63-5.39c0-0.73-0.05-1.52-0.14-2.38
			c-0.09-0.86-0.21-1.7-0.34-2.53c-0.14-0.83-0.3-1.56-0.48-2.17l-3.35,0.51c0.29,1.19,0.52,2.35,0.68,3.49
			c0.16,1.14,0.24,2.22,0.24,3.25c0,1.03-0.03,1.94-0.09,2.74c-0.06,0.8-0.15,1.54-0.29,2.22h-4.38c-0.91,0-1.58-0.12-2-0.36
			c-0.42-0.24-0.63-0.73-0.63-1.45v-7.39h-3.39v5.99c0,1.41,0.1,2.58,0.31,3.49c0.21,0.91,0.56,1.62,1.08,2.14s1.25,0.87,2.21,1.08
			c0.96,0.21,2.2,0.31,3.73,0.31C192.77,300.78,194.13,300.52,195.12,299.98 M164.27,280.26c0.33-0.25,0.62-0.54,0.87-0.87
			c0.25-0.33,0.38-0.62,0.38-0.87c0-0.27-0.13-0.57-0.38-0.91c-0.25-0.33-0.54-0.62-0.86-0.86c-0.32-0.24-0.62-0.36-0.89-0.36
			s-0.58,0.12-0.91,0.36c-0.33,0.24-0.62,0.52-0.86,0.86c-0.24,0.33-0.36,0.63-0.36,0.91c0,0.25,0.12,0.55,0.36,0.89
			c0.24,0.34,0.53,0.63,0.87,0.87s0.64,0.36,0.89,0.36C163.65,280.64,163.94,280.51,164.27,280.26 M165.07,284.71h-3.35v12.28h-5.4
			v3.8h12.62v-3.8h-3.87V284.71z M149.02,307.25c0.88-1.05,1.65-2.16,2.33-3.33c0.67-1.17,1.2-2.35,1.57-3.54s0.56-2.32,0.56-3.39
			h-3.39c0,0.82-0.16,1.7-0.48,2.63c-0.32,0.93-0.76,1.87-1.32,2.82c-0.56,0.95-1.21,1.85-1.95,2.72c-0.74,0.87-1.54,1.64-2.38,2.33
			l2.15,2.57C147.17,309.23,148.14,308.3,149.02,307.25 M142.06,296.99v-7.11c0-0.71,0.12-1.17,0.36-1.4
			c0.24-0.23,0.68-0.34,1.32-0.34h6.36v7.25c0,0.62-0.11,1.04-0.32,1.27c-0.22,0.23-0.61,0.34-1.18,0.34H142.06z M151.77,300.78
			l1.71-3.8v-11.53c-1.19-0.41-2.34-0.7-3.45-0.87c-1.12-0.17-2.44-0.26-3.97-0.26c-1.44,0-2.65,0.13-3.63,0.38
			c-0.98,0.25-1.76,0.68-2.33,1.3c-0.57,0.62-0.98,1.45-1.23,2.5c-0.25,1.05-0.38,2.38-0.38,4c0,1.57,0.1,2.9,0.29,3.98
			c0.19,1.08,0.5,1.93,0.92,2.55c0.42,0.62,0.99,1.06,1.69,1.33c0.7,0.27,1.58,0.41,2.63,0.41H151.77z M152.11,300.78h5.58v-3.8
			h-5.58V300.78z M132.65,279.23h-3.35v21.55h3.35V279.23z M114.26,283.68c0.33-0.25,0.62-0.54,0.87-0.87
			c0.25-0.33,0.38-0.62,0.38-0.87c0-0.27-0.13-0.57-0.38-0.91c-0.25-0.33-0.54-0.62-0.86-0.86c-0.32-0.24-0.62-0.36-0.89-0.36
			c-0.27,0-0.57,0.12-0.91,0.36c-0.33,0.24-0.62,0.52-0.86,0.86c-0.24,0.33-0.36,0.63-0.36,0.91c0,0.25,0.12,0.55,0.36,0.89
			c0.24,0.34,0.53,0.63,0.87,0.87c0.34,0.24,0.64,0.36,0.89,0.36C113.64,284.06,113.93,283.93,114.26,283.68 M108.96,283.68
			c0.33-0.25,0.62-0.54,0.87-0.87c0.25-0.33,0.38-0.62,0.38-0.87c0-0.27-0.13-0.57-0.38-0.91c-0.25-0.33-0.54-0.62-0.86-0.86
			c-0.32-0.24-0.62-0.36-0.89-0.36s-0.57,0.12-0.91,0.36c-0.33,0.24-0.62,0.52-0.86,0.86c-0.24,0.33-0.36,0.63-0.36,0.91
			c0,0.25,0.12,0.55,0.36,0.89c0.24,0.34,0.53,0.63,0.87,0.87c0.34,0.24,0.64,0.36,0.89,0.36S108.63,283.93,108.96,283.68
			 M122.93,300.78v-16.08h-3.35v12.28h-17.89c-0.18-0.59-0.31-1.22-0.39-1.88s-0.12-1.43-0.12-2.29c0-0.75,0.07-1.55,0.21-2.38
			s0.34-1.69,0.62-2.58l-3.22-0.51c-0.3,0.84-0.54,1.83-0.72,2.96c-0.18,1.13-0.27,2.23-0.27,3.3c0,1.73,0.17,3.12,0.51,4.17
			c0.34,1.05,0.89,1.81,1.64,2.29c0.75,0.48,1.73,0.72,2.94,0.72H122.93z"/>
		<path style="clip-path:url(#SVGID_00000078762720780107740700000010439388556393997479_);fill:#FFFFFF;" d="M389.13,434.11
			c0.47-0.37,0.89-0.8,1.25-1.29c0.36-0.49,0.53-0.91,0.53-1.27c0-0.41-0.18-0.86-0.53-1.33c-0.36-0.47-0.77-0.89-1.22-1.25
			c-0.46-0.36-0.91-0.53-1.35-0.53c-0.36,0-0.78,0.18-1.27,0.53c-0.49,0.36-0.91,0.77-1.27,1.25c-0.36,0.48-0.53,0.92-0.53,1.33
			c0,0.36,0.18,0.79,0.53,1.29c0.36,0.51,0.78,0.93,1.27,1.29c0.49,0.36,0.93,0.53,1.31,0.53
			C388.22,434.66,388.66,434.48,389.13,434.11 M381.7,434.11c0.47-0.37,0.89-0.8,1.25-1.29c0.36-0.49,0.53-0.91,0.53-1.27
			c0-0.41-0.18-0.86-0.53-1.33c-0.36-0.47-0.77-0.89-1.22-1.25c-0.46-0.36-0.91-0.53-1.35-0.53c-0.36,0-0.78,0.18-1.27,0.53
			c-0.49,0.36-0.91,0.77-1.27,1.25c-0.36,0.48-0.53,0.92-0.53,1.33c0,0.36,0.18,0.79,0.53,1.29c0.36,0.51,0.78,0.93,1.27,1.29
			c0.49,0.36,0.93,0.53,1.31,0.53C380.8,434.66,381.23,434.48,381.7,434.11 M386.73,460.76v-20.9h-5.29v14.94h-6.89v5.96H386.73z
			 M344.53,460.76h7.29v-5.96h-7.29V460.76z M367.12,445.29c0,2.11-0.54,3.87-1.62,5.29c-1.08,1.42-2.75,2.48-5,3.18
			c-2.25,0.69-5.14,1.04-8.67,1.04v5.96c2.87,0,5.57-0.42,8.07-1.27c2.5-0.84,4.69-2.02,6.56-3.54c1.87-1.51,3.32-3.27,4.38-5.29
			c1.05-2.01,1.58-4.18,1.58-6.49c0-1.18-0.39-2.14-1.16-2.87c-0.77-0.73-2.03-1.24-3.78-1.54c-1.75-0.29-4.11-0.44-7.07-0.44
			c-2.91,0-5.23,0.15-6.98,0.44c-1.75,0.3-3.02,0.81-3.8,1.54c-0.79,0.73-1.18,1.68-1.18,2.87c0,2.31,0.52,4.47,1.58,6.47
			c1.05,2,2.52,3.76,4.4,5.27c1.88,1.51,4.07,2.7,6.56,3.56c2.49,0.86,5.16,1.29,8,1.29v-5.96c-3.5,0-6.38-0.35-8.63-1.04
			c-2.25-0.7-3.92-1.76-5-3.18s-1.62-3.18-1.62-5.29H367.12z M368.99,460.76h7.34v-5.96h-7.34V460.76z M341.6,432.75h-5.29v22.06
			h-6.89v5.96h16.9v-5.96h-4.71V432.75z M328.75,469.99c0.47-0.37,0.89-0.8,1.25-1.29c0.36-0.49,0.53-0.91,0.53-1.27
			c0-0.41-0.18-0.86-0.53-1.33c-0.36-0.48-0.76-0.89-1.22-1.25c-0.46-0.36-0.91-0.53-1.35-0.53c-0.36,0-0.78,0.18-1.27,0.53
			c-0.49,0.36-0.91,0.77-1.27,1.25c-0.36,0.48-0.53,0.92-0.53,1.33c0,0.36,0.18,0.79,0.53,1.29c0.36,0.5,0.78,0.93,1.27,1.29
			c0.49,0.36,0.93,0.53,1.31,0.53C327.84,470.54,328.27,470.36,328.75,469.99 M321.32,469.99c0.47-0.37,0.89-0.8,1.25-1.29
			c0.36-0.49,0.53-0.91,0.53-1.27c0-0.41-0.18-0.86-0.53-1.33c-0.36-0.48-0.76-0.89-1.22-1.25c-0.46-0.36-0.91-0.53-1.35-0.53
			c-0.36,0-0.78,0.18-1.27,0.53c-0.49,0.36-0.91,0.77-1.27,1.25c-0.36,0.48-0.53,0.92-0.53,1.33c0,0.36,0.18,0.79,0.53,1.29
			c0.36,0.5,0.78,0.93,1.27,1.29c0.49,0.36,0.93,0.53,1.31,0.53C320.41,470.54,320.84,470.36,321.32,469.99 M326.48,439.86h-5.29
			v14.94h-6.89v5.96h16.9v-5.96h-4.71V439.86z M296.86,457.47c-0.41-0.65-0.74-1.33-0.98-2.05c-0.24-0.71-0.4-1.49-0.49-2.36
			c-0.09-0.86-0.13-1.85-0.13-2.98c0-1.25,0.15-2.46,0.44-3.65c0.3-1.18,0.7-2.5,1.2-3.96l-5.34-1.25
			c-0.48,1.48-0.86,2.93-1.16,4.36c-0.3,1.42-0.44,2.92-0.44,4.49c0,1.84,0.14,3.51,0.42,5.02c0.28,1.51,0.87,2.77,1.76,3.78
			L296.86,457.47z M292.15,474.72c-0.48-1.84-0.81-3.36-1.02-4.56c-0.21-1.2-0.31-2.31-0.31-3.31c0-1.33,0.05-2.48,0.15-3.44
			c0.11-0.96,0.28-1.85,0.51-2.65h19.88v-14.67c0-1.63-0.3-2.94-0.89-3.93c-0.59-1-1.53-1.71-2.8-2.16
			c-1.28-0.44-2.95-0.67-5.02-0.67c-1.99,0-3.94,0.17-5.85,0.51c-1.91,0.34-3.65,0.81-5.22,1.4l2.09,5.16
			c1.39-0.38,2.81-0.67,4.24-0.84c1.44-0.18,2.81-0.27,4.11-0.27c1.78,0,3.13,0.11,4.05,0.31v9.2h-14.01
			c-1.54,0-2.79,0.37-3.76,1.11c-0.96,0.74-1.67,1.9-2.11,3.47c-0.44,1.57-0.67,3.65-0.67,6.23c0,1.16,0.06,2.33,0.18,3.51
			s0.28,2.33,0.49,3.42s0.46,2.12,0.76,3.07L292.15,474.72z M311.36,460.76h4.71v-5.96h-4.71V460.76z M256.93,457.47
			c-0.41-0.65-0.74-1.33-0.98-2.05c-0.24-0.71-0.4-1.49-0.49-2.36c-0.09-0.86-0.13-1.85-0.13-2.98c0-1.25,0.15-2.46,0.44-3.65
			c0.3-1.18,0.7-2.5,1.2-3.96l-5.34-1.25c-0.48,1.48-0.86,2.93-1.16,4.36c-0.3,1.42-0.44,2.92-0.44,4.49c0,1.84,0.14,3.51,0.42,5.02
			c0.28,1.51,0.87,2.77,1.75,3.78L256.93,457.47z M258.89,439.53c-1.3,0.13-2.57,0.34-3.8,0.62c-1.23,0.28-2.38,0.64-3.45,1.09
			l2.09,5.16c1.39-0.38,2.81-0.67,4.25-0.84c1.44-0.18,2.81-0.27,4.11-0.27c0.86,0,1.61,0.02,2.25,0.07
			c0.64,0.04,1.23,0.13,1.8,0.24v9.2h-21.88v5.96h27.17v-14.67c0-1.63-0.3-2.94-0.89-3.93c-0.59-1-1.53-1.71-2.8-2.16
			c-1.28-0.44-2.95-0.67-5.02-0.67C261.47,439.33,260.19,439.4,258.89,439.53 M243.73,434.11c0.48-0.37,0.89-0.8,1.25-1.29
			c0.36-0.49,0.53-0.91,0.53-1.27c0-0.41-0.18-0.86-0.53-1.33c-0.36-0.47-0.76-0.89-1.22-1.25c-0.46-0.36-0.91-0.53-1.36-0.53
			c-0.36,0-0.78,0.18-1.27,0.53c-0.49,0.36-0.91,0.77-1.27,1.25c-0.36,0.48-0.53,0.92-0.53,1.33c0,0.36,0.18,0.79,0.53,1.29
			c0.36,0.51,0.78,0.93,1.27,1.29c0.49,0.36,0.92,0.53,1.31,0.53S243.25,434.48,243.73,434.11 M236.3,434.11
			c0.48-0.37,0.89-0.8,1.25-1.29c0.36-0.49,0.53-0.91,0.53-1.27c0-0.41-0.18-0.86-0.53-1.33c-0.36-0.47-0.76-0.89-1.22-1.25
			c-0.46-0.36-0.91-0.53-1.36-0.53c-0.36,0-0.78,0.18-1.27,0.53c-0.49,0.36-0.91,0.77-1.27,1.25c-0.36,0.48-0.53,0.92-0.53,1.33
			c0,0.36,0.18,0.79,0.53,1.29c0.36,0.51,0.78,0.93,1.27,1.29c0.49,0.36,0.92,0.53,1.31,0.53S235.83,434.48,236.3,434.11
			 M241.33,439.86h-5.29v14.94h-6.89v5.96h16.9v-5.96h-4.71V439.86z M220.01,469.03c1.17-1.45,2.19-2.99,3.04-4.6
			c0.86-1.62,1.54-3.25,2.02-4.89c0.49-1.65,0.73-3.23,0.73-4.74h-5.34c0,1.16-0.19,2.37-0.58,3.65c-0.39,1.28-0.93,2.54-1.65,3.8
			c-0.71,1.26-1.54,2.47-2.49,3.62s-1.99,2.19-3.11,3.11l3.47,4C217.54,471.8,218.83,470.49,220.01,469.03 M211,454.8v-7.47
			c0-0.8,0.16-1.34,0.49-1.62c0.32-0.28,0.95-0.42,1.87-0.42h7.11v7.56c0,0.74-0.13,1.25-0.4,1.54c-0.27,0.28-0.76,0.42-1.47,0.42
			H211z M223.01,460.76l2.8-5.96v-13.92c-1.54-0.56-3.07-0.96-4.58-1.2c-1.51-0.24-3.32-0.36-5.42-0.36c-1.93,0-3.56,0.18-4.89,0.53
			c-1.33,0.36-2.4,0.94-3.2,1.76c-0.8,0.81-1.39,1.89-1.75,3.25c-0.37,1.35-0.56,3.02-0.56,5c0,2.02,0.15,3.73,0.44,5.14
			c0.3,1.41,0.76,2.53,1.38,3.38c0.62,0.84,1.45,1.45,2.49,1.82c1.04,0.37,2.3,0.55,3.78,0.55H223.01z M223.58,460.76h7.34v-5.96
			h-7.34V460.76z M169.74,443.86h-5.29v10.94h-6.89v5.96h12.18V443.86z M179.19,460.32c1.41-0.29,2.48-0.81,3.22-1.53
			c0.74-0.73,1.25-1.73,1.51-3.02c0.27-1.29,0.4-2.93,0.4-4.92v-6.98h-5.29v8.58c0,0.95-0.27,1.58-0.82,1.89
			c-0.55,0.31-1.4,0.47-2.56,0.47h-5.91v5.96h3.96C175.95,460.76,177.78,460.61,179.19,460.32 M194.77,459.72
			c1.45-0.7,2.51-1.89,3.16-3.58c0.65-1.69,0.98-4.05,0.98-7.07c0-0.98-0.04-2.01-0.13-3.09c-0.09-1.08-0.23-2.15-0.42-3.2
			c-0.19-1.05-0.42-2.01-0.69-2.87l-5.25,0.8c0.36,1.51,0.65,3,0.87,4.45c0.22,1.45,0.33,2.85,0.33,4.18c0,1.16-0.03,2.17-0.09,3.05
			c-0.06,0.87-0.18,1.68-0.36,2.42h-5.47c-1.13,0-1.97-0.15-2.53-0.47c-0.56-0.31-0.84-0.94-0.84-1.89v-8.58h-5.29v6.98
			c0,1.99,0.14,3.63,0.42,4.92c0.28,1.29,0.78,2.3,1.49,3.02c0.71,0.73,1.72,1.24,3.02,1.53c1.31,0.3,3,0.44,5.07,0.44
			C191.41,460.76,193.32,460.41,194.77,459.72 M154.62,460.76v-14.5c0-1.75-0.24-3.12-0.73-4.11c-0.49-1-1.33-1.7-2.51-2.11
			c-1.18-0.41-2.82-0.62-4.89-0.62c-2.19,0-4.21,0.3-6.05,0.89c-1.84,0.6-3.41,1.44-4.73,2.53c-1.32,1.1-2.31,2.42-2.96,3.96v-14.05
			h-5.29v24.1h5.29c0-3.85,0.95-6.73,2.85-8.63c1.9-1.89,4.76-2.85,8.58-2.85c2.4,0,4.12,0.16,5.16,0.49v14.9H154.62z
			 M122.34,460.76h32.28v-5.96h-32.28V460.76z M154.62,460.76h4.71v-5.96h-4.71V460.76z"/>
	</g>
</g>
</svg>
