<?xml version="1.0" encoding="UTF-8"?> <!-- Generator: Adobe Illustrator 24.2.1, SVG Export Plug-In . SVG Version: 6.00 Build 0) --> <svg xmlns="http://www.w3.org/2000/svg" xmlns:xlink="http://www.w3.org/1999/xlink" version="1.1" id="Ebene_1" x="0px" y="0px" viewBox="0 0 51.4 68.1" style="enable-background:new 0 0 51.4 68.1;" xml:space="preserve"> <style type="text/css"> .st0{fill:#62C6BF;} .st1{fill:none;stroke:#2A2C68;stroke-width:0.6;stroke-linejoin:round;} .st2{fill:#FFFFFF;} .st3{fill:none;stroke:#2A2C68;stroke-width:0.553;stroke-linejoin:round;} .st4{fill:none;stroke:#2A2C68;stroke-width:0.6;stroke-linecap:round;} </style> <g id="Layer-1_48_"> <path class="st0" d="M33.7,62H1.4V1.2h44v44.7L33.7,62z"></path> <path class="st1" d="M45,61.6H0.6V1.2H45V61.6z"></path> <path class="st2" d="M40.5,66.1H5.4V6h44.2v51.4L40.5,66.1z"></path> <path class="st1" d="M40.5,66.1H5.4V6h44.2v51.4L40.5,66.1z"></path> <path class="st0" d="M41.3,57.5l8.5-0.1l-8.5,8.3L41.3,57.5z"></path> <path class="st3" d="M40.8,57.7h8.8l-8.8,8.5V57.7z"></path> <path class="st4" d="M9.9,14H47"></path> <path class="st4" d="M17.3,16.3h19.9"></path> <path class="st4" d="M35.4,19.3h11.3"></path> <path class="st4" d="M15.3,19.3H9.8"></path> <path class="st4" d="M9.9,20.7h37.2"></path> <path class="st4" d="M12.6,23.5H9.9"></path> <path class="st4" d="M35.1,23.5h-2.7"></path> <path class="st4" d="M11.3,25.4H9.9"></path> <path class="st4" d="M33.8,25.4h-1.4"></path> <path class="st4" d="M9.9,27.9h14.5"></path> <path class="st4" d="M9.9,30h2.2"></path> <path class="st4" d="M32.4,30h2.2"></path> <path class="st4" d="M9.9,31.7h4.3"></path> <path class="st4" d="M32.4,31.7h4.3"></path> <path class="st4" d="M9.9,33.4h2.6"></path> <path class="st4" d="M32.4,33.4H35"></path> <path class="st4" d="M10,35.2h1.4"></path> <path class="st4" d="M32.5,35.2h1.4"></path> <path class="st4" d="M10,36.8h1.6"></path> <path class="st4" d="M32.5,36.8h1.6"></path> <path class="st4" d="M9.9,56.1h11.5"></path> <path class="st4" d="M9.8,61.3h22.3"></path> <path class="st4" d="M10,43.2h37.8"></path> <path class="st4" d="M10,44.6h37.8"></path> <path class="st4" d="M10,46h37.8"></path> <path class="st4" d="M10,47.4h37.8"></path> <path class="st4" d="M10,48.8h37.8"></path> <path class="st4" d="M10,50.2h37.8"></path> <path class="st4" d="M10,51.6h37.8"></path> </g> </svg> 