<?xml version="1.0" encoding="UTF-8"?><svg id="a" xmlns="http://www.w3.org/2000/svg" xmlns:xlink="http://www.w3.org/1999/xlink" viewBox="0 0 480.95 512"><defs><style>.e{fill:none;}.f{fill:#fff;}.g{fill:#97d1ce;}.h{fill:#6ec3bf;}.i{fill:#2b2961;}.j{clip-path:url(#c);}.k{clip-path:url(#b);}.l{clip-path:url(#d);}</style><clipPath id="b"><rect class="e" x="3.84" width="473.27" height="512"/></clipPath><clipPath id="c"><rect class="e" x="3.84" width="473.27" height="512"/></clipPath><clipPath id="d"><rect class="e" x="3.84" width="473.27" height="512"/></clipPath></defs><rect class="g" x="460.05" y="89.7" width="17.06" height="409.06"/><rect class="g" x="229.72" y="103.54" width="17.06" height="229.68"/><rect class="g" x="415.36" y="103.86" width="17.06" height="315.44"/><rect class="g" x="293.19" y="322.58" width="139.23" height="17.06"/><rect class="g" x="229.71" y="180.95" width="202.71" height="17.06"/><rect class="h" x="11.94" y="314.21" width="375.43" height="25.28"/><g class="k"><path class="i" d="M387.37,339.86H4.2c-.2,0-.36-.16-.36-.36v-25.28c0-.2,.16-.36,.36-.36H387.37c.2,0,.36,.16,.36,.36v25.28c0,.2-.16,.36-.36,.36Zm-382.81-.72H387.01v-24.56H4.56v24.56Z"/></g><g><path class="f" d="M73.07,331.53l-.66-1.97h-3.96l-.67,1.97h-2.27l4.05-11.14h1.71l4.07,11.14h-2.27Zm-2.6-7.86l-1.41,4.05h2.77l-1.36-4.05Z"/><path class="f" d="M79.17,331.53c-1.67,0-2.38-1.17-2.38-2.33v-8.81h2.03v8.69c0,.49,.2,.74,.72,.74h.78v1.72h-1.16Z"/><path class="f" d="M84.55,331.53c-1.67,0-2.38-1.17-2.38-2.33v-8.81h2.03v8.69c0,.49,.2,.74,.72,.74h.78v1.72h-1.16Z"/><path class="f" d="M90.47,334.61c-1.25,0-2.11-.25-2.96-1.07l1.27-1.28c.45,.44,.91,.63,1.6,.63,1.22,0,1.64-.86,1.64-1.69v-.83c-.53,.59-1.14,.81-1.94,.81s-1.49-.27-1.94-.72c-.77-.77-.83-1.82-.83-3.24s.06-2.46,.83-3.22c.45-.45,1.16-.72,1.96-.72,.86,0,1.42,.24,1.99,.86v-.77h1.97v7.86c0,1.96-1.39,3.38-3.58,3.38Zm.2-9.5c-1.2,0-1.33,1.03-1.33,2.11s.13,2.13,1.33,2.13,1.35-1.05,1.35-2.13-.14-2.11-1.35-2.11Z"/><path class="f" d="M98.25,328.09c0,1.05,.64,1.82,1.78,1.82,.89,0,1.33-.25,1.85-.77l1.24,1.2c-.83,.83-1.63,1.28-3.1,1.28-1.93,0-3.77-.88-3.77-4.18,0-2.66,1.44-4.16,3.55-4.16,2.27,0,3.55,1.66,3.55,3.9v.91h-5.1Zm2.91-2.27c-.22-.49-.67-.85-1.36-.85s-1.14,.36-1.36,.85c-.13,.3-.17,.52-.19,.88h3.1c-.02-.36-.06-.58-.19-.88Z"/><path class="f" d="M115.02,331.53v-4.93c0-1.11-.7-1.49-1.35-1.49s-1.36,.38-1.36,1.44v4.98h-2.03v-4.93c0-1.11-.7-1.49-1.35-1.49s-1.36,.38-1.36,1.49v4.93h-2.03v-8.15h1.99v.75c.53-.55,1.28-.85,2.03-.85,.91,0,1.64,.33,2.16,1.03,.69-.72,1.42-1.03,2.44-1.03,.81,0,1.55,.27,2,.72,.66,.66,.89,1.42,.89,2.32v5.21h-2.03Z"/><path class="f" d="M121.16,328.09c0,1.05,.64,1.82,1.78,1.82,.89,0,1.33-.25,1.85-.77l1.24,1.2c-.83,.83-1.63,1.28-3.1,1.28-1.93,0-3.77-.88-3.77-4.18,0-2.66,1.44-4.16,3.55-4.16,2.27,0,3.55,1.66,3.55,3.9v.91h-5.1Zm2.91-2.27c-.22-.49-.67-.85-1.36-.85s-1.14,.36-1.36,.85c-.13,.3-.17,.52-.19,.88h3.1c-.02-.36-.06-.58-.19-.88Z"/><path class="f" d="M128.42,321.98v-1.66h2.08v1.66h-2.08Zm.03,9.55v-8.15h2.03v8.15h-2.03Z"/><path class="f" d="M137.81,331.53v-4.93c0-1.11-.7-1.49-1.35-1.49s-1.36,.38-1.36,1.49v4.93h-2.03v-8.15h1.99v.75c.53-.56,1.28-.85,2.03-.85,.81,0,1.47,.27,1.93,.72,.66,.66,.83,1.42,.83,2.32v5.21h-2.03Z"/><path class="f" d="M143.93,328.09c0,1.05,.64,1.82,1.78,1.82,.89,0,1.33-.25,1.85-.77l1.24,1.2c-.83,.83-1.63,1.28-3.1,1.28-1.93,0-3.77-.88-3.77-4.18,0-2.66,1.44-4.16,3.55-4.16,2.27,0,3.55,1.66,3.55,3.9v.91h-5.1Zm2.91-2.27c-.22-.49-.67-.85-1.36-.85s-1.14,.36-1.36,.85c-.13,.3-.17,.52-.19,.88h3.1c-.02-.36-.06-.58-.19-.88Z"/><path class="f" d="M161.27,331.53v-4.66h-3.77v4.66h-2.18v-11.14h2.18v4.55h3.77v-4.55h2.18v11.14h-2.18Z"/><path class="f" d="M171.81,330.62c-.5,.53-1.33,1-2.54,1s-2.02-.47-2.52-1c-.74-.77-.92-1.69-.92-3.18s.19-2.39,.92-3.16c.5-.53,1.31-1,2.52-1s2.03,.47,2.54,1c.74,.77,.92,1.69,.92,3.16s-.19,2.41-.92,3.18Zm-1.58-5.15c-.23-.24-.55-.36-.95-.36s-.7,.12-.94,.36c-.42,.42-.47,1.13-.47,1.97s.05,1.57,.47,1.99c.23,.24,.53,.36,.94,.36s.72-.12,.95-.36c.42-.42,.47-1.14,.47-1.99s-.05-1.55-.47-1.97Z"/><path class="f" d="M178.21,331.62c-1.63,0-3.65-.88-3.65-4.18s2.02-4.16,3.65-4.16c1.13,0,1.97,.34,2.69,1.1l-1.38,1.38c-.42-.45-.78-.64-1.31-.64-.48,0-.86,.17-1.16,.53-.31,.39-.45,.94-.45,1.8s.14,1.42,.45,1.82c.3,.36,.67,.53,1.16,.53,.53,0,.89-.19,1.31-.64l1.38,1.36c-.72,.75-1.56,1.11-2.69,1.11Z"/><path class="f" d="M187.48,331.53v-4.98c0-1.08-.69-1.44-1.33-1.44s-1.31,.38-1.31,1.44v4.98h-2.03v-11.14h2.03v3.74c.55-.56,1.24-.85,1.96-.85,1.78,0,2.72,1.25,2.72,2.97v5.27h-2.03Z"/><path class="f" d="M194.69,331.62c-1.28,0-2.44-.14-3.47-1.17l1.33-1.33c.67,.67,1.55,.77,2.18,.77,.7,0,1.44-.23,1.44-.85,0-.41-.22-.69-.86-.75l-1.28-.12c-1.47-.14-2.38-.78-2.38-2.29,0-1.69,1.49-2.6,3.15-2.6,1.27,0,2.33,.22,3.11,.95l-1.25,1.27c-.47-.42-1.19-.55-1.89-.55-.81,0-1.16,.38-1.16,.78,0,.3,.13,.64,.85,.7l1.28,.13c1.61,.16,2.43,1.02,2.43,2.39,0,1.8-1.53,2.66-3.46,2.66Z"/><path class="f" d="M203.41,331.62c-1.63,0-3.65-.88-3.65-4.18s2.02-4.16,3.65-4.16c1.13,0,1.97,.34,2.69,1.1l-1.38,1.38c-.42-.45-.78-.64-1.31-.64-.48,0-.86,.17-1.16,.53-.31,.39-.45,.94-.45,1.8s.14,1.42,.45,1.82c.3,.36,.67,.53,1.16,.53,.53,0,.89-.19,1.31-.64l1.38,1.36c-.72,.75-1.56,1.11-2.69,1.11Z"/><path class="f" d="M212.66,331.53v-4.98c0-1.08-.69-1.44-1.33-1.44s-1.31,.38-1.31,1.44v4.98h-2.03v-11.14h2.03v3.74c.55-.56,1.24-.85,1.96-.85,1.78,0,2.72,1.25,2.72,2.97v5.27h-2.03Z"/><path class="f" d="M221.89,331.53v-.75c-.53,.56-1.28,.85-2.03,.85-.81,0-1.47-.27-1.93-.72-.66-.66-.83-1.42-.83-2.32v-5.21h2.03v4.93c0,1.11,.7,1.49,1.35,1.49s1.36-.38,1.36-1.49v-4.93h2.03v8.15h-1.99Z"/><path class="f" d="M228.78,331.53c-1.67,0-2.38-1.17-2.38-2.33v-8.81h2.03v8.69c0,.49,.2,.74,.72,.74h.78v1.72h-1.16Z"/><path class="f" d="M236.3,325.6c-.31-.31-.58-.49-1.08-.49-.63,0-1.31,.47-1.31,1.5v4.91h-2.03v-8.15h1.99v.78c.39-.47,1.17-.88,2.05-.88,.8,0,1.36,.2,1.93,.77l-1.53,1.55Z"/><path class="f" d="M240.44,328.09c0,1.05,.64,1.82,1.78,1.82,.89,0,1.33-.25,1.85-.77l1.24,1.2c-.83,.83-1.63,1.28-3.1,1.28-1.93,0-3.77-.88-3.77-4.18,0-2.66,1.44-4.16,3.55-4.16,2.27,0,3.55,1.66,3.55,3.9v.91h-5.1Zm2.91-2.27c-.22-.49-.67-.85-1.36-.85s-1.14,.36-1.36,.85c-.13,.3-.17,.52-.19,.88h3.1c-.02-.36-.06-.58-.19-.88Z"/><path class="f" d="M247.7,321.98v-1.66h2.08v1.66h-2.08Zm.03,9.55v-8.15h2.03v8.15h-2.03Z"/><path class="f" d="M254.63,325.16v6.37h-2.03v-6.37h-.85v-1.55h.85v-1.02c0-1.16,.72-2.33,2.38-2.33h1.16v1.72h-.8c-.48,0-.7,.27-.7,.74v.89h1.5v1.55h-1.5Z"/><path class="f" d="M259.34,328.09c0,1.05,.64,1.82,1.78,1.82,.89,0,1.33-.25,1.85-.77l1.24,1.2c-.83,.83-1.63,1.28-3.1,1.28-1.93,0-3.77-.88-3.77-4.18,0-2.66,1.44-4.16,3.55-4.16,2.27,0,3.55,1.66,3.55,3.9v.91h-5.1Zm2.91-2.27c-.22-.49-.67-.85-1.36-.85s-1.14,.36-1.36,.85c-.13,.3-.17,.52-.19,.88h3.1c-.02-.36-.06-.58-.19-.88Z"/><path class="f" d="M272.47,333c-.52-.52-1.02-1-1.38-1.61-.36-.63-.41-1.33-.41-2.02v-6.82c0-.69,.05-1.39,.41-2.02,.36-.61,.86-1.1,1.38-1.61l1.36,1.36c-.38,.38-.61,.59-.88,1.05-.16,.28-.24,.72-.24,1.32v6.64c0,.59,.08,1.03,.24,1.31,.27,.45,.5,.67,.88,1.05l-1.36,1.36Z"/><path class="f" d="M282.63,331.53l-.66-1.97h-3.96l-.67,1.97h-2.27l4.05-11.14h1.71l4.07,11.14h-2.27Zm-2.6-7.86l-1.41,4.05h2.77l-1.36-4.05Z"/><path class="f" d="M292.42,330.89c-.45,.45-1.19,.74-1.99,.74-.86,0-1.47-.24-2.03-.86v.77h-1.97v-11.14h2.03v3.71c.53-.59,1.14-.81,1.97-.81s1.53,.28,1.99,.74c.81,.81,.83,2.21,.83,3.43s-.02,2.63-.83,3.44Zm-2.58-5.77c-1.22,0-1.38,1-1.38,2.33s.16,2.35,1.38,2.35,1.38-1.02,1.38-2.35-.16-2.33-1.38-2.33Z"/><path class="f" d="M295.47,321.98v-1.66h2.08v1.66h-2.08Zm.03,9.55v-8.15h2.03v8.15h-2.03Z"/><path class="f" d="M302.67,331.53c-1.66,0-2.36-1.17-2.36-2.33v-4.04h-.86v-1.55h.86v-2.41h2.03v2.41h1.44v1.55h-1.44v3.91c0,.47,.22,.74,.7,.74h.74v1.72h-1.11Z"/><path class="f" d="M310.64,331.53v-.75c-.53,.56-1.28,.85-2.03,.85-.81,0-1.47-.27-1.93-.72-.66-.66-.83-1.42-.83-2.32v-5.21h2.03v4.93c0,1.11,.7,1.49,1.35,1.49s1.36-.38,1.36-1.49v-4.93h2.03v8.15h-1.99Z"/><path class="f" d="M319.65,325.6c-.31-.31-.58-.49-1.08-.49-.63,0-1.31,.47-1.31,1.5v4.91h-2.03v-8.15h1.99v.78c.39-.47,1.17-.88,2.05-.88,.8,0,1.36,.2,1.93,.77l-1.53,1.55Z"/><path class="f" d="M325.11,331.39c-.36,.61-.86,1.1-1.38,1.61l-1.38-1.38c.38-.38,.61-.58,.88-1.03,.16-.28,.23-.72,.23-1.31v-6.64c0-.59-.08-1.03-.23-1.32-.27-.45-.5-.66-.88-1.03l1.38-1.38c.52,.52,1.02,1,1.38,1.61,.36,.63,.41,1.33,.41,2.02v6.82c0,.69-.05,1.39-.41,2.02Z"/></g><rect class="h" x="56.28" y="400.6" width="375.78" height="25.28"/><path class="i" d="M432.06,426.24H48.53c-.2,0-.36-.16-.36-.36v-25.28c0-.2,.16-.36,.36-.36H432.06c.2,0,.36,.16,.36,.36v25.28c0,.2-.16,.36-.36,.36Zm-383.17-.72H431.7v-24.56H48.89v24.56Z"/><g><path class="f" d="M127.84,408.72v2.74h4.4v1.94h-4.4v4.52h-2.18v-11.14h7.34v1.94h-5.16Z"/><path class="f" d="M138.73,417.92v-.7c-.55,.55-1.06,.78-2,.78s-1.6-.24-2.08-.72c-.44-.45-.67-1.11-.67-1.83,0-1.3,.89-2.36,2.79-2.36h1.93v-.41c0-.89-.44-1.28-1.52-1.28-.78,0-1.14,.19-1.57,.67l-1.3-1.27c.8-.88,1.58-1.13,2.94-1.13,2.28,0,3.47,.97,3.47,2.88v5.37h-1.99Zm-.05-3.44h-1.61c-.74,0-1.14,.34-1.14,.92s.38,.94,1.17,.94c.56,0,.92-.05,1.28-.39,.22-.2,.3-.53,.3-1.03v-.44Z"/><path class="f" d="M146.45,418.01c-1.63,0-3.65-.88-3.65-4.18s2.02-4.16,3.65-4.16c1.13,0,1.97,.34,2.69,1.1l-1.38,1.38c-.42-.45-.78-.64-1.31-.64-.48,0-.86,.17-1.16,.53-.31,.39-.45,.94-.45,1.8s.14,1.42,.45,1.82c.3,.36,.67,.53,1.16,.53,.53,0,.89-.19,1.31-.64l1.38,1.36c-.72,.75-1.56,1.11-2.69,1.11Z"/><path class="f" d="M155.71,417.92v-4.98c0-1.08-.69-1.44-1.33-1.44s-1.31,.38-1.31,1.44v4.98h-2.03v-11.14h2.03v3.74c.55-.56,1.24-.85,1.96-.85,1.78,0,2.72,1.25,2.72,2.97v5.27h-2.03Z"/><path class="f" d="M163.07,421c-1.25,0-2.11-.25-2.96-1.07l1.27-1.28c.45,.44,.91,.63,1.6,.63,1.22,0,1.64-.86,1.64-1.69v-.83c-.53,.59-1.14,.81-1.94,.81s-1.49-.27-1.94-.72c-.77-.77-.83-1.82-.83-3.24s.06-2.46,.83-3.22c.45-.45,1.16-.72,1.96-.72,.86,0,1.42,.24,1.99,.86v-.77h1.97v7.86c0,1.96-1.39,3.38-3.58,3.38Zm.2-9.5c-1.2,0-1.33,1.03-1.33,2.11s.13,2.13,1.33,2.13,1.35-1.05,1.35-2.13-.14-2.11-1.35-2.11Z"/><path class="f" d="M170.83,414.48c0,1.05,.64,1.82,1.78,1.82,.89,0,1.33-.25,1.85-.77l1.24,1.2c-.83,.83-1.63,1.28-3.1,1.28-1.93,0-3.77-.88-3.77-4.18,0-2.66,1.44-4.16,3.55-4.16,2.27,0,3.55,1.66,3.55,3.9v.91h-5.1Zm2.91-2.27c-.22-.49-.67-.85-1.36-.85s-1.14,.36-1.36,.85c-.13,.3-.17,.52-.19,.88h3.1c-.02-.36-.06-.58-.19-.88Z"/><path class="f" d="M184.12,417.28c-.45,.45-1.19,.74-1.99,.74-.86,0-1.47-.24-2.03-.86v.77h-1.97v-11.14h2.03v3.71c.53-.59,1.14-.81,1.97-.81s1.53,.28,1.99,.74c.81,.81,.83,2.21,.83,3.43s-.02,2.63-.83,3.44Zm-2.58-5.77c-1.22,0-1.38,1-1.38,2.33s.16,2.35,1.38,2.35,1.38-1.02,1.38-2.35-.16-2.33-1.38-2.33Z"/><path class="f" d="M191.88,417.92v-.75c-.53,.56-1.28,.85-2.03,.85-.81,0-1.47-.27-1.93-.72-.66-.66-.83-1.42-.83-2.32v-5.21h2.03v4.93c0,1.11,.7,1.49,1.35,1.49s1.36-.38,1.36-1.49v-4.93h2.03v8.15h-1.99Z"/><path class="f" d="M201.19,417.92v-4.93c0-1.11-.7-1.49-1.35-1.49s-1.36,.38-1.36,1.49v4.93h-2.03v-8.15h1.99v.75c.53-.56,1.28-.85,2.03-.85,.81,0,1.47,.27,1.93,.72,.66,.66,.83,1.42,.83,2.32v5.21h-2.03Z"/><path class="f" d="M210.23,417.92v-.77c-.56,.63-1.16,.86-2.02,.86-.8,0-1.55-.28-2-.74-.81-.81-.83-2.22-.83-3.44s.02-2.61,.83-3.43c.45-.45,1.19-.74,1.99-.74s1.46,.22,1.99,.81v-3.71h2.03v11.14h-1.99Zm-1.44-6.42c-1.22,0-1.38,1-1.38,2.33s.16,2.35,1.38,2.35,1.39-1.02,1.39-2.35-.17-2.33-1.39-2.33Z"/><path class="f" d="M216.42,414.48c0,1.05,.64,1.82,1.78,1.82,.89,0,1.33-.25,1.85-.77l1.24,1.2c-.83,.83-1.63,1.28-3.1,1.28-1.93,0-3.77-.88-3.77-4.18,0-2.66,1.44-4.16,3.55-4.16,2.27,0,3.55,1.66,3.55,3.9v.91h-5.1Zm2.91-2.27c-.22-.49-.67-.85-1.36-.85s-1.14,.36-1.36,.85c-.13,.3-.17,.52-.19,.88h3.1c-.02-.36-.06-.58-.19-.88Z"/><path class="f" d="M228.45,417.92v-4.93c0-1.11-.7-1.49-1.35-1.49s-1.36,.38-1.36,1.49v4.93h-2.03v-8.15h1.99v.75c.53-.56,1.28-.85,2.03-.85,.81,0,1.47,.27,1.93,.72,.66,.66,.83,1.42,.83,2.32v5.21h-2.03Z"/><path class="f" d="M234.59,414.48c0,1.05,.64,1.82,1.78,1.82,.89,0,1.33-.25,1.85-.77l1.24,1.2c-.83,.83-1.63,1.28-3.1,1.28-1.93,0-3.77-.88-3.77-4.18,0-2.66,1.44-4.16,3.55-4.16,2.27,0,3.55,1.66,3.55,3.9v.91h-5.1Zm2.91-2.27c-.22-.49-.67-.85-1.36-.85s-1.14,.36-1.36,.85c-.13,.3-.17,.52-.19,.88h3.1c-.02-.36-.06-.58-.19-.88Z"/><path class="f" d="M251.91,417.92v-4.66h-3.77v4.66h-2.18v-11.14h2.18v4.55h3.77v-4.55h2.18v11.14h-2.18Z"/><path class="f" d="M262.47,417.01c-.5,.53-1.33,1-2.54,1s-2.02-.47-2.52-1c-.74-.77-.92-1.69-.92-3.18s.19-2.39,.92-3.16c.5-.53,1.31-1,2.52-1s2.03,.47,2.54,1c.74,.77,.92,1.69,.92,3.16s-.19,2.41-.92,3.18Zm-1.58-5.15c-.24-.24-.55-.36-.96-.36s-.7,.12-.94,.36c-.42,.42-.47,1.13-.47,1.97s.05,1.57,.47,1.99c.23,.24,.53,.36,.94,.36s.72-.12,.96-.36c.42-.42,.47-1.14,.47-1.99s-.05-1.55-.47-1.97Z"/><path class="f" d="M268.89,418.01c-1.63,0-3.65-.88-3.65-4.18s2.02-4.16,3.65-4.16c1.13,0,1.97,.34,2.69,1.1l-1.38,1.38c-.42-.45-.78-.64-1.31-.64-.48,0-.86,.17-1.16,.53-.31,.39-.45,.94-.45,1.8s.14,1.42,.45,1.82c.3,.36,.67,.53,1.16,.53,.53,0,.89-.19,1.31-.64l1.38,1.36c-.72,.75-1.57,1.11-2.69,1.11Z"/><path class="f" d="M278.14,417.92v-4.98c0-1.08-.69-1.44-1.33-1.44s-1.31,.38-1.31,1.44v4.98h-2.03v-11.14h2.03v3.74c.55-.56,1.24-.85,1.96-.85,1.78,0,2.72,1.25,2.72,2.97v5.27h-2.03Z"/><path class="f" d="M285.35,418.01c-1.28,0-2.44-.14-3.47-1.17l1.33-1.33c.67,.67,1.55,.77,2.18,.77,.7,0,1.44-.23,1.44-.85,0-.41-.22-.69-.86-.75l-1.28-.12c-1.47-.14-2.38-.78-2.38-2.29,0-1.69,1.49-2.6,3.15-2.6,1.27,0,2.33,.22,3.11,.95l-1.25,1.27c-.47-.42-1.19-.55-1.89-.55-.81,0-1.16,.38-1.16,.78,0,.3,.13,.64,.84,.7l1.28,.13c1.61,.16,2.43,1.02,2.43,2.39,0,1.8-1.53,2.66-3.46,2.66Z"/><path class="f" d="M294.07,418.01c-1.63,0-3.65-.88-3.65-4.18s2.02-4.16,3.65-4.16c1.13,0,1.97,.34,2.69,1.1l-1.38,1.38c-.42-.45-.78-.64-1.31-.64-.48,0-.86,.17-1.16,.53-.31,.39-.45,.94-.45,1.8s.14,1.42,.45,1.82c.3,.36,.67,.53,1.16,.53,.53,0,.89-.19,1.31-.64l1.38,1.36c-.72,.75-1.57,1.11-2.69,1.11Z"/><path class="f" d="M303.32,417.92v-4.98c0-1.08-.69-1.44-1.33-1.44s-1.31,.38-1.31,1.44v4.98h-2.03v-11.14h2.03v3.74c.55-.56,1.24-.85,1.96-.85,1.78,0,2.72,1.25,2.72,2.97v5.27h-2.03Z"/><path class="f" d="M312.55,417.92v-.75c-.53,.56-1.28,.85-2.03,.85-.81,0-1.47-.27-1.93-.72-.66-.66-.83-1.42-.83-2.32v-5.21h2.03v4.93c0,1.11,.7,1.49,1.35,1.49s1.36-.38,1.36-1.49v-4.93h2.03v8.15h-1.99Z"/><path class="f" d="M319.44,417.92c-1.67,0-2.38-1.17-2.38-2.33v-8.81h2.03v8.69c0,.49,.2,.74,.72,.74h.78v1.72h-1.16Z"/><path class="f" d="M326.96,411.99c-.31-.31-.58-.49-1.08-.49-.63,0-1.31,.47-1.31,1.5v4.91h-2.03v-8.15h1.99v.78c.39-.47,1.17-.88,2.05-.88,.8,0,1.36,.2,1.93,.77l-1.53,1.55Z"/><path class="f" d="M331.09,414.48c0,1.05,.64,1.82,1.78,1.82,.89,0,1.33-.25,1.85-.77l1.24,1.2c-.83,.83-1.63,1.28-3.1,1.28-1.93,0-3.77-.88-3.77-4.18,0-2.66,1.44-4.16,3.55-4.16,2.27,0,3.55,1.66,3.55,3.9v.91h-5.1Zm2.91-2.27c-.22-.49-.67-.85-1.36-.85s-1.14,.36-1.36,.85c-.13,.3-.17,.52-.19,.88h3.1c-.02-.36-.06-.58-.19-.88Z"/><path class="f" d="M338.36,408.37v-1.66h2.08v1.66h-2.08Zm.03,9.55v-8.15h2.03v8.15h-2.03Z"/><path class="f" d="M345.29,411.55v6.37h-2.03v-6.37h-.85v-1.55h.85v-1.02c0-1.16,.72-2.33,2.38-2.33h1.16v1.72h-.8c-.48,0-.7,.27-.7,.74v.89h1.5v1.55h-1.5Z"/><path class="f" d="M350,414.48c0,1.05,.64,1.82,1.78,1.82,.89,0,1.33-.25,1.85-.77l1.24,1.2c-.83,.83-1.63,1.28-3.1,1.28-1.93,0-3.77-.88-3.77-4.18,0-2.66,1.44-4.16,3.55-4.16,2.27,0,3.55,1.66,3.55,3.9v.91h-5.1Zm2.91-2.27c-.22-.49-.67-.85-1.36-.85s-1.14,.36-1.36,.85c-.13,.3-.17,.52-.19,.88h3.1c-.02-.36-.06-.58-.19-.88Z"/></g><rect class="h" x="100.62" y="486.36" width="376.13" height="25.28"/><g class="j"><path class="i" d="M476.75,512H92.86c-.2,0-.36-.16-.36-.36v-25.28c0-.2,.16-.36,.36-.36H476.75c.2,0,.36,.16,.36,.36v25.28c0,.2-.16,.36-.36,.36Zm-383.53-.72H476.39v-24.56H93.22v24.56Z"/></g><g><path class="f" d="M218.04,494.47v2.74h4.4v1.94h-4.4v4.52h-2.18v-11.14h7.34v1.94h-5.16Z"/><path class="f" d="M228.93,503.68v-.7c-.55,.55-1.06,.78-2,.78s-1.6-.24-2.08-.72c-.44-.45-.67-1.11-.67-1.83,0-1.3,.89-2.36,2.79-2.36h1.93v-.41c0-.89-.44-1.28-1.52-1.28-.78,0-1.14,.19-1.57,.67l-1.3-1.27c.8-.88,1.58-1.13,2.94-1.13,2.28,0,3.47,.97,3.47,2.88v5.37h-1.99Zm-.05-3.44h-1.61c-.74,0-1.14,.34-1.14,.92s.38,.94,1.17,.94c.56,0,.92-.05,1.28-.39,.22-.2,.3-.53,.3-1.03v-.44Z"/><path class="f" d="M236.65,503.77c-1.63,0-3.65-.88-3.65-4.18s2.02-4.16,3.65-4.16c1.13,0,1.97,.34,2.69,1.1l-1.38,1.38c-.42-.45-.78-.64-1.31-.64-.48,0-.86,.17-1.16,.53-.31,.39-.45,.94-.45,1.8s.14,1.42,.45,1.82c.3,.36,.67,.53,1.16,.53,.53,0,.89-.19,1.31-.64l1.38,1.36c-.72,.75-1.56,1.11-2.69,1.11Z"/><path class="f" d="M245.89,503.68v-4.98c0-1.08-.69-1.44-1.33-1.44s-1.31,.38-1.31,1.44v4.98h-2.03v-11.14h2.03v3.74c.55-.56,1.24-.85,1.96-.85,1.78,0,2.72,1.25,2.72,2.97v5.27h-2.03Z"/><path class="f" d="M255.11,503.68v-4.98c0-1.08-.69-1.44-1.33-1.44s-1.31,.38-1.31,1.44v4.98h-2.03v-11.14h2.03v3.74c.55-.56,1.24-.85,1.96-.85,1.78,0,2.72,1.25,2.72,2.97v5.27h-2.03Z"/><path class="f" d="M265.28,502.77c-.5,.53-1.33,1-2.54,1s-2.02-.47-2.52-1c-.74-.77-.92-1.69-.92-3.18s.19-2.39,.92-3.16c.5-.53,1.31-1,2.52-1s2.03,.47,2.54,1c.74,.77,.92,1.69,.92,3.16s-.19,2.41-.92,3.18Zm-1.58-5.15c-.24-.24-.55-.36-.96-.36s-.7,.12-.94,.36c-.42,.42-.47,1.13-.47,1.97s.05,1.57,.47,1.99c.23,.24,.53,.36,.94,.36s.72-.12,.96-.36c.42-.42,.47-1.14,.47-1.99s-.05-1.55-.47-1.97Z"/><path class="f" d="M271.68,503.77c-1.63,0-3.65-.88-3.65-4.18s2.02-4.16,3.65-4.16c1.13,0,1.97,.34,2.69,1.1l-1.38,1.38c-.42-.45-.78-.64-1.31-.64-.48,0-.86,.17-1.16,.53-.31,.39-.45,.94-.45,1.8s.14,1.42,.45,1.82c.3,.36,.67,.53,1.16,.53,.53,0,.89-.19,1.31-.64l1.38,1.36c-.72,.75-1.56,1.11-2.69,1.11Z"/><path class="f" d="M280.95,503.68v-4.98c0-1.08-.69-1.44-1.33-1.44s-1.31,.38-1.31,1.44v4.98h-2.03v-11.14h2.03v3.74c.55-.56,1.24-.85,1.96-.85,1.78,0,2.72,1.25,2.72,2.97v5.27h-2.03Z"/><path class="f" d="M288.16,503.77c-1.28,0-2.44-.14-3.47-1.17l1.33-1.33c.67,.67,1.55,.77,2.18,.77,.7,0,1.44-.23,1.44-.85,0-.41-.22-.69-.86-.75l-1.28-.12c-1.47-.14-2.38-.78-2.38-2.29,0-1.69,1.49-2.6,3.15-2.6,1.27,0,2.33,.22,3.11,.95l-1.25,1.27c-.47-.42-1.19-.55-1.89-.55-.81,0-1.16,.38-1.16,.78,0,.3,.13,.64,.85,.7l1.28,.13c1.61,.16,2.43,1.02,2.43,2.39,0,1.8-1.53,2.66-3.46,2.66Z"/><path class="f" d="M296.88,503.77c-1.63,0-3.65-.88-3.65-4.18s2.02-4.16,3.65-4.16c1.13,0,1.97,.34,2.69,1.1l-1.38,1.38c-.42-.45-.78-.64-1.31-.64-.48,0-.86,.17-1.16,.53-.31,.39-.45,.94-.45,1.8s.14,1.42,.45,1.82c.3,.36,.67,.53,1.16,.53,.53,0,.89-.19,1.31-.64l1.38,1.36c-.72,.75-1.56,1.11-2.69,1.11Z"/><path class="f" d="M306.13,503.68v-4.98c0-1.08-.69-1.44-1.33-1.44s-1.31,.38-1.31,1.44v4.98h-2.03v-11.14h2.03v3.74c.55-.56,1.24-.85,1.96-.85,1.78,0,2.72,1.25,2.72,2.97v5.27h-2.03Z"/><path class="f" d="M315.36,503.68v-.75c-.53,.56-1.28,.85-2.03,.85-.81,0-1.47-.27-1.93-.72-.66-.66-.83-1.42-.83-2.32v-5.21h2.03v4.93c0,1.11,.7,1.49,1.35,1.49s1.36-.38,1.36-1.49v-4.93h2.03v8.15h-1.99Z"/><path class="f" d="M322.23,503.68c-1.67,0-2.38-1.17-2.38-2.33v-8.81h2.03v8.69c0,.49,.2,.74,.72,.74h.78v1.72h-1.16Z"/><path class="f" d="M329.74,497.74c-.31-.31-.58-.49-1.08-.49-.63,0-1.31,.47-1.31,1.5v4.91h-2.03v-8.15h1.99v.78c.39-.47,1.17-.88,2.05-.88,.8,0,1.36,.2,1.93,.77l-1.53,1.55Z"/><path class="f" d="M333.86,500.23c0,1.05,.64,1.82,1.78,1.82,.89,0,1.33-.25,1.85-.77l1.24,1.2c-.83,.83-1.63,1.28-3.1,1.28-1.93,0-3.77-.88-3.77-4.18,0-2.66,1.44-4.16,3.55-4.16,2.27,0,3.55,1.66,3.55,3.9v.91h-5.1Zm2.91-2.27c-.22-.49-.67-.85-1.36-.85s-1.14,.36-1.36,.85c-.13,.3-.17,.52-.19,.88h3.1c-.02-.36-.06-.58-.19-.88Z"/><path class="f" d="M341.12,494.13v-1.66h2.08v1.66h-2.08Zm.03,9.55v-8.15h2.03v8.15h-2.03Z"/><path class="f" d="M348.05,497.31v6.37h-2.03v-6.37h-.85v-1.55h.85v-1.02c0-1.16,.72-2.33,2.38-2.33h1.16v1.72h-.8c-.48,0-.7,.27-.7,.74v.89h1.5v1.55h-1.5Z"/><path class="f" d="M352.76,500.23c0,1.05,.64,1.82,1.78,1.82,.89,0,1.33-.25,1.85-.77l1.24,1.2c-.83,.83-1.63,1.28-3.1,1.28-1.93,0-3.77-.88-3.77-4.18,0-2.66,1.44-4.16,3.55-4.16,2.27,0,3.55,1.66,3.55,3.9v.91h-5.1Zm2.91-2.27c-.22-.49-.67-.85-1.36-.85s-1.14,.36-1.36,.85c-.13,.3-.17,.52-.19,.88h3.1c-.02-.36-.06-.58-.19-.88Z"/></g><rect class="h" x="264.69" y=".36" width="212.07" height="146.51"/><rect class="h" x="41.18" y=".03" width="205.24" height="103.5"/><g class="l"><path class="f" d="M440.04,131.28v-6.82c0-.69-.05-1.39-.41-2.02-.36-.61-.86-1.1-1.38-1.61l-1.38,1.38c.38,.38,.61,.58,.88,1.03,.16,.28,.23,.72,.23,1.31v6.63c0,.59-.08,1.03-.23,1.31-.27,.45-.5,.66-.88,1.03l1.38,1.38c.52-.52,1.02-1,1.38-1.61,.36-.63,.41-1.33,.41-2.02m-7.06-2.67h-3.1c.05-1.1,.61-1.72,1.55-1.72s1.49,.61,1.55,1.72m2,1.39v-.91c0-2.36-1.39-3.9-3.55-3.9s-3.55,1.59-3.55,4.15c0,2.77,1.28,4.19,3.79,4.19,.64,0,1.21-.11,1.68-.3,.52-.22,.8-.41,1.41-.98l-1.24-1.21c-.36,.35-.53,.47-.83,.6-.27,.11-.61,.17-.94,.17-1.19,0-1.8-.6-1.86-1.82h5.1Zm-9.28,3.44v-8.15h-2.05l-2.87,4.85v-4.85h-2.05v8.15h2.05l2.87-4.98v4.98h2.05Zm-9.53,0v-8.15h-2.05v3.08h-2.61v-3.08h-2.05v8.15h2.05v-3.27h2.61v3.27h2.05Zm-10.89-4.83h-3.1c.05-1.1,.61-1.72,1.55-1.72s1.49,.61,1.55,1.72m2,1.39v-.91c0-2.36-1.39-3.9-3.55-3.9s-3.55,1.59-3.55,4.15c0,2.77,1.28,4.19,3.79,4.19,.64,0,1.21-.11,1.67-.3,.52-.22,.8-.41,1.41-.98l-1.24-1.21c-.36,.35-.53,.47-.83,.6-.27,.11-.61,.17-.94,.17-1.19,0-1.8-.6-1.86-1.82h5.1Zm-11.58,1.65h-2.49c.41-.83,.63-1.85,.63-3.49v-1.07h1.86v4.56Zm3.06,3.8v-3.8h-1.03v-6.35h-5.85v2.49c0,2.13-.38,3.12-.8,3.87h-.83v3.8h1.92v-2h4.66v2h1.92Zm-11.77-6.84h-3.1c.05-1.1,.61-1.72,1.55-1.72s1.49,.61,1.55,1.72m2,1.39v-.91c0-2.36-1.39-3.9-3.55-3.9s-3.55,1.59-3.55,4.15c0,2.77,1.28,4.19,3.79,4.19,.64,0,1.21-.11,1.67-.3,.52-.22,.8-.41,1.41-.98l-1.24-1.21c-.36,.35-.53,.47-.83,.6-.27,.11-.61,.17-.94,.17-1.19,0-1.8-.6-1.86-1.82h5.1Zm-10.98,.99c0,.58-.38,.96-1.02,.96h-1.61v-1.9h1.61c.64,0,1.02,.35,1.02,.94m-1.11-4.2c.64,0,.99,.31,.99,.86s-.34,.88-.99,.88h-1.52v-1.74h1.52Zm3.13,4.3c0-.88-.37-1.44-1.16-1.85,.7-.41,1.03-.95,1.03-1.72,0-1.36-.98-2.24-2.52-2.24h-4.02v8.15h4.16c1.53,0,2.5-.91,2.5-2.35m-11.19-1.1v.44c0,1.02-.42,1.43-1.47,1.43-.86,0-1.28-.31-1.28-.94,0-.59,.42-.92,1.14-.92h1.61Zm2.03,3.44v-5.37c0-1.91-1.17-2.88-3.52-2.88-.77,0-1.33,.09-1.8,.3-.41,.19-.63,.36-1.09,.83l1.3,1.27c.48-.53,.81-.67,1.53-.67,1.1,0,1.55,.38,1.55,1.29v.41h-1.93c-1.72,0-2.78,.91-2.78,2.38,0,1.6,1.02,2.53,2.75,2.53,.47,0,.85-.06,1.16-.19,.31-.13,.49-.25,.85-.59v.7h1.99Zm-8.44-2.41c0-.88-.5-1.56-1.24-1.88,.67-.31,1.11-.98,1.11-1.75,0-1.44-1.41-2.21-2.97-2.21-1.22,0-2.38,.22-3.3,.95l1.13,1.25c.53-.38,1.16-.56,1.77-.56,.83,0,1.38,.27,1.38,.83s-.42,.89-1.1,.89h-1.21v1.45h1.24c.72,0,1.17,.27,1.17,.88s-.7,.92-1.42,.92c-.77,0-1.49-.2-2.07-.72l-1.17,1.28c.97,.88,2.28,1.16,3.57,1.16,1.67,0,3.11-.98,3.11-2.5m-14.04-1.67c0,1.07-.06,2.35-1.43,2.35-.99,0-1.41-.66-1.41-2.22,0-1.05,.02-2.46,1.41-2.46s1.43,1.28,1.43,2.33m2.03-.03c0-1.58-.25-2.43-.92-3.13-.62-.66-1.5-1-2.54-1s-1.89,.34-2.52,1c-.67,.72-.92,1.55-.92,3.16s.23,2.46,.92,3.18c.63,.66,1.49,1,2.52,1s1.91-.34,2.54-1c.69-.72,.92-1.55,.92-3.21m-9.14,4.11v-8.15h-2.05v3.08h-2.61v-3.08h-2.05v8.15h2.05v-3.27h2.61v3.27h2.05Zm-12.31,.09c.97,0,1.83-.33,2.41-.94,.7-.73,1-1.64,1-3.27,0-1.39-.31-2.63-1.03-3.3-.45-.41-.99-.66-2-.66-.89,0-1.72,.41-2.04,.94,0-.99,.28-1.49,1.03-1.88,.92-.49,2.3-.39,3.33-.47v-1.75c-2.41,.02-3.88,.13-4.9,.91-1.03,.81-1.3,1.75-1.3,5.57,0,1.52,.17,2.82,.66,3.58,.55,.86,1.63,1.27,2.83,1.27m-.03-1.83c-.39,0-.74-.11-.97-.39-.3-.33-.45-.95-.45-1.96,0-.89,.16-1.52,.41-1.85,.25-.31,.61-.42,1.02-.42s.77,.13,1,.44c.27,.33,.41,.95,.41,1.85,0,.95-.16,1.6-.42,1.92-.25,.3-.59,.41-.99,.41m-7.43-3.1h-3.1c.05-1.1,.61-1.72,1.55-1.72s1.49,.61,1.55,1.72m2,1.39v-.91c0-2.36-1.39-3.9-3.55-3.9s-3.55,1.59-3.55,4.15c0,2.77,1.28,4.19,3.79,4.19,.64,0,1.21-.11,1.67-.3,.52-.22,.8-.41,1.41-.98l-1.24-1.21c-.36,.35-.53,.47-.83,.6-.27,.11-.61,.17-.94,.17-1.19,0-1.8-.6-1.86-1.82h5.1Zm-9.28,3.44v-8.15h-2.03v3.57c-.36,.05-.94,.14-1.47,.14-.63,0-1-.31-1-.99v-2.72h-2.03v3.29c0,1.41,.98,2.22,2.28,2.22,.94,0,1.69-.13,2.22-.22v2.86h2.03Zm-7.82-8.15h-2.14l-1.63,5.04-1.69-5.04h-2.14l2.79,7.57-.34,1c-.2,.58-.42,.74-1.02,.74h-.47v1.83h.8c1.24,0,1.92-.5,2.36-1.67l3.49-9.47Z"/><path class="f" d="M459.07,109.83h-3.1c.05-1.1,.61-1.72,1.55-1.72s1.49,.61,1.55,1.72m2,1.39v-.91c0-2.36-1.39-3.9-3.55-3.9s-3.55,1.6-3.55,4.15c0,2.77,1.28,4.19,3.79,4.19,.64,0,1.21-.11,1.68-.3,.52-.22,.8-.41,1.41-.98l-1.24-1.21c-.36,.34-.53,.47-.83,.59-.27,.11-.61,.17-.94,.17-1.19,0-1.8-.59-1.86-1.82h5.1Zm-9.29,3.44v-8.15h-2.03v6.35h-2.24v-6.35h-2.03v6.35h-2.24v-6.35h-2.05v8.15h10.59Zm-12.47-1.02l-1.38-1.36c-.49,.49-.78,.64-1.31,.64-1.06,0-1.61-.78-1.61-2.35s.55-2.33,1.61-2.33c.52,0,.85,.16,1.31,.64l1.38-1.38c-.49-.47-.72-.62-1.16-.81s-.95-.28-1.52-.28c-2.3,0-3.66,1.53-3.66,4.1,0,2.71,1.33,4.24,3.66,4.24,.56,0,1.06-.09,1.52-.3,.44-.19,.67-.34,1.16-.81m-8.51,1.02v-8.15h-2.05l-2.87,4.85v-4.85h-2.05v8.15h2.05l2.87-4.98v4.98h2.05Zm-11.24-2.46c0,.58-.38,.95-1.02,.95h-1.61v-1.89h1.61c.64,0,1.02,.34,1.02,.94m-1.11-4.2c.64,0,.99,.31,.99,.86s-.34,.88-.99,.88h-1.52v-1.74h1.52Zm3.13,4.3c0-.88-.38-1.44-1.16-1.85,.7-.41,1.03-.95,1.03-1.72,0-1.36-.98-2.24-2.52-2.24h-4.02v8.15h4.16c1.53,0,2.5-.91,2.5-2.35m-14.88-1.74c0,1.06-.06,2.35-1.43,2.35-.99,0-1.41-.66-1.41-2.22,0-1.05,.02-2.46,1.41-2.46s1.43,1.28,1.43,2.33m2.03-.03c0-1.58-.25-2.43-.92-3.13-.63-.66-1.5-1-2.54-1s-1.89,.34-2.52,1c-.67,.72-.92,1.55-.92,3.16s.23,2.46,.92,3.18c.62,.66,1.49,1,2.52,1s1.91-.34,2.54-1c.69-.72,.92-1.55,.92-3.21m-9.14,4.11v-8.15h-2.05v3.08h-2.62v-3.08h-2.05v8.15h2.05v-3.27h2.62v3.27h2.05Zm-11.23-3.44v.44c0,1.02-.42,1.43-1.47,1.43-.86,0-1.28-.31-1.28-.94s.42-.92,1.14-.92h1.61Zm2.03,3.44v-5.37c0-1.91-1.17-2.88-3.52-2.88-.77,0-1.33,.09-1.8,.3-.41,.19-.62,.36-1.09,.83l1.3,1.27c.49-.53,.81-.67,1.53-.67,1.1,0,1.55,.38,1.55,1.28v.41h-1.93c-1.72,0-2.78,.91-2.78,2.38,0,1.6,1.02,2.53,2.75,2.53,.47,0,.85-.06,1.16-.19s.49-.25,.85-.59v.7h1.99Zm-10.45-4.1c0,1.74-.36,2.36-1.38,2.36s-1.38-.63-1.38-2.22c0-1.05-.03-2.46,1.38-2.46,1.02,0,1.38,.61,1.38,2.32m-2.82-3.29v-.77h-1.97v11.14h2.03v-3.71c.58,.58,1.1,.81,1.94,.81s1.55-.27,2.02-.74c.61-.61,.83-1.5,.83-3.41,0-1.08-.03-1.49-.14-2.08-.11-.55-.36-1.05-.69-1.38-.47-.47-1.2-.74-2.02-.74-.89,0-1.38,.23-2,.86m-4.55,7.39v-8.15h-2.05l-2.87,4.85v-4.85h-2.05v8.15h2.05l2.87-4.98v4.98h2.05Zm-9.22-2.41c0-.88-.5-1.57-1.24-1.88,.67-.31,1.11-.99,1.11-1.75,0-1.44-1.41-2.21-2.97-2.21-1.22,0-2.38,.22-3.3,.95l1.13,1.25c.53-.38,1.16-.56,1.77-.56,.83,0,1.38,.27,1.38,.83s-.42,.89-1.1,.89h-1.21v1.45h1.24c.72,0,1.17,.27,1.17,.88s-.7,.92-1.42,.92c-.77,0-1.49-.2-2.07-.72l-1.17,1.28c.97,.88,2.28,1.16,3.57,1.16,1.67,0,3.11-.98,3.11-2.5m-8.39,2.41v-8.15h-2.05l-2.87,4.85v-4.85h-2.05v8.15h2.05l2.87-4.98v4.98h2.05Zm-9.55,0v-8.15h-5.96v3.3c0,2.93-.67,3.05-1.36,3.05h-.25v1.8h.97c1.66,0,2.61-.91,2.61-4.4v-1.96h1.96v6.35h2.03Zm-11.19-3.44v.44c0,1.02-.42,1.43-1.47,1.43-.86,0-1.28-.31-1.28-.94s.42-.92,1.14-.92h1.61Zm2.03,3.44v-5.37c0-1.91-1.17-2.88-3.52-2.88-.77,0-1.33,.09-1.8,.3-.41,.19-.62,.36-1.09,.83l1.3,1.27c.49-.53,.81-.67,1.53-.67,1.1,0,1.55,.38,1.55,1.28v.41h-1.93c-1.72,0-2.78,.91-2.78,2.38,0,1.6,1.02,2.53,2.75,2.53,.47,0,.85-.06,1.16-.19,.31-.13,.49-.25,.85-.59v.7h1.99Zm-8.75,0v-8.15h-2.05l-2.87,4.85v-4.85h-2.05v8.15h2.05l2.87-4.98v4.98h2.05Zm-8.76,2v-3.8h-1.1v-6.35h-2.05v6.35h-2.61v-6.35h-2.05v8.15h5.87v2h1.94Zm-11.99-6.84h-3.1c.05-1.1,.61-1.72,1.55-1.72s1.49,.61,1.55,1.72m2,1.39v-.91c0-2.36-1.39-3.9-3.55-3.9s-3.55,1.6-3.55,4.15c0,2.77,1.28,4.19,3.79,4.19,.64,0,1.21-.11,1.67-.3,.52-.22,.8-.41,1.41-.98l-1.24-1.21c-.36,.34-.53,.47-.83,.59-.27,.11-.61,.17-.94,.17-1.19,0-1.8-.59-1.86-1.82h5.1Zm-9.28,3.44v-8.15h-6.71v8.15h2.05v-6.35h2.62v6.35h2.05Zm-8.59-1.02l-1.38-1.36c-.49,.49-.78,.64-1.31,.64-1.06,0-1.61-.78-1.61-2.35s.55-2.33,1.61-2.33c.52,0,.85,.16,1.31,.64l1.38-1.38c-.49-.47-.72-.62-1.16-.81-.44-.19-.95-.28-1.52-.28-2.3,0-3.66,1.53-3.66,4.1,0,2.71,1.33,4.24,3.66,4.24,.56,0,1.06-.09,1.52-.3,.44-.19,.67-.34,1.16-.81m-8.25,1.13c-.38-.38-.61-.59-.88-1.05-.16-.28-.23-.72-.23-1.31v-6.63c0-.59,.08-1.03,.23-1.31,.27-.45,.5-.67,.88-1.05l-1.36-1.36c-.52,.52-1.02,1-1.38,1.61-.36,.63-.41,1.33-.41,2.02v6.82c0,.69,.05,1.39,.41,2.02,.36,.61,.86,1.1,1.38,1.61l1.36-1.36Z"/><path class="f" d="M441.48,95.88v-8.15h-2.05l-2.87,4.85v-4.85h-2.05v8.15h2.05l2.87-4.98v4.98h2.05Zm-13.55,0v-4.26l2.8,4.26h2.44l-3.07-4.35,2.88-3.8h-2.38l-2.68,3.86v-3.86h-2.05v8.15h2.05Zm-3.57-8.15h-2.14l-1.63,5.04-1.69-5.04h-2.14l2.79,7.57-.34,1c-.2,.58-.42,.74-1.02,.74h-.47v1.83h.8c1.24,0,1.92-.5,2.36-1.67l3.49-9.47Zm-11.06,4.71v.44c0,1.02-.42,1.43-1.47,1.43-.86,0-1.28-.31-1.28-.94s.42-.92,1.14-.92h1.61Zm2.03,3.44v-5.37c0-1.91-1.17-2.88-3.52-2.88-.77,0-1.33,.09-1.8,.3-.41,.19-.63,.36-1.09,.83l1.3,1.27c.49-.53,.81-.67,1.53-.67,1.1,0,1.55,.38,1.55,1.28v.41h-1.93c-1.72,0-2.78,.91-2.78,2.38,0,1.6,1.02,2.53,2.75,2.53,.47,0,.85-.06,1.16-.19,.31-.13,.49-.25,.85-.59v.7h1.99Zm-8.75,0v-8.15h-2.05v3.08h-2.62v-3.08h-2.05v8.15h2.05v-3.27h2.62v3.27h2.05Zm-13.22,0v-8.15h-2.05l-2.87,4.85v-4.85h-2.05v8.15h2.05l2.87-4.98v4.98h2.05Zm-9.53,0v-8.15h-2.05v3.08h-2.62v-3.08h-2.05v8.15h2.05v-3.27h2.62v3.27h2.05Zm-17.76,0l2.63-4.26v4.26h2.05v-4.26l2.64,4.26h2.38l-2.85-4.35,2.68-3.8h-2.33l-2.52,3.86v-3.86h-2.05v3.86l-2.5-3.86h-2.33l2.68,3.8-2.86,4.35h2.39Zm-5.13-4.08c0,1.06-.06,2.35-1.43,2.35-.99,0-1.41-.66-1.41-2.22,0-1.05,.02-2.46,1.41-2.46s1.43,1.28,1.43,2.33m2.03-.03c0-1.58-.25-2.43-.92-3.13-.62-.66-1.5-1-2.54-1s-1.89,.34-2.52,1c-.67,.72-.92,1.55-.92,3.16s.23,2.46,.92,3.18c.63,.66,1.49,1,2.52,1s1.91-.34,2.54-1c.69-.72,.92-1.55,.92-3.21m-9.15,4.11v-8.15h-5.96v3.3c0,2.93-.67,3.05-1.36,3.05h-.25v1.8h.97c1.66,0,2.61-.91,2.61-4.4v-1.96h1.96v6.35h2.03Zm-9.23,0v-8.15h-2.05l-2.87,4.85v-4.85h-2.05v8.15h2.05l2.87-4.98v4.98h2.05Zm-11.24-4.1c0,1.74-.36,2.36-1.38,2.36s-1.38-.63-1.38-2.22c0-1.05-.03-2.46,1.38-2.46,1.02,0,1.38,.61,1.38,2.32m-2.82-3.29v-.77h-1.97v11.14h2.03v-3.71c.58,.58,1.1,.81,1.94,.81s1.55-.27,2.02-.73c.61-.61,.83-1.5,.83-3.41,0-1.08-.03-1.49-.14-2.08-.11-.55-.36-1.05-.69-1.38-.47-.47-1.2-.73-2.02-.73-.89,0-1.38,.23-2,.86m-4.55,7.39v-8.15h-6.71v8.15h2.05v-6.35h2.61v6.35h2.05Zm-15.18-3.44v.44c0,1.02-.42,1.43-1.47,1.43-.86,0-1.28-.31-1.28-.94s.42-.92,1.14-.92h1.61Zm2.03,3.44v-5.37c0-1.91-1.17-2.88-3.52-2.88-.77,0-1.33,.09-1.8,.3-.41,.19-.62,.36-1.09,.83l1.3,1.27c.49-.53,.81-.67,1.53-.67,1.1,0,1.55,.38,1.55,1.28v.41h-1.93c-1.72,0-2.78,.91-2.78,2.38,0,1.6,1.02,2.53,2.75,2.53,.47,0,.85-.06,1.16-.19s.49-.25,.85-.59v.7h1.99Zm-8.44-2.41c0-.88-.5-1.56-1.24-1.88,.67-.31,1.11-.99,1.11-1.75,0-1.44-1.41-2.21-2.97-2.21-1.22,0-2.38,.22-3.3,.95l1.13,1.25c.53-.38,1.16-.56,1.77-.56,.83,0,1.38,.27,1.38,.83s-.42,.89-1.1,.89h-1.21v1.45h1.24c.72,0,1.17,.27,1.17,.88s-.7,.92-1.42,.92c-.77,0-1.49-.2-2.07-.72l-1.17,1.28c.97,.88,2.28,1.16,3.57,1.16,1.67,0,3.11-.98,3.11-2.5"/><path class="f" d="M462.76,72.27h-3.1c.05-1.1,.61-1.72,1.55-1.72s1.49,.61,1.55,1.72m2,1.39v-.91c0-2.36-1.39-3.9-3.55-3.9s-3.55,1.59-3.55,4.15c0,2.77,1.28,4.19,3.79,4.19,.64,0,1.21-.11,1.68-.3,.52-.22,.8-.41,1.41-.98l-1.24-1.2c-.36,.34-.53,.47-.83,.6-.27,.11-.61,.17-.94,.17-1.19,0-1.8-.6-1.86-1.82h5.1Zm-9.28,3.44v-8.15h-2.05l-2.87,4.85v-4.85h-2.05v8.15h2.05l2.87-4.98v4.98h2.05Zm-9.53,0v-8.15h-2.05v3.08h-2.61v-3.08h-2.05v8.15h2.05v-3.27h2.61v3.27h2.05Zm-10.89-4.83h-3.1c.05-1.1,.61-1.72,1.55-1.72s1.49,.61,1.55,1.72m2,1.39v-.91c0-2.36-1.39-3.9-3.55-3.9s-3.55,1.59-3.55,4.15c0,2.77,1.28,4.19,3.79,4.19,.64,0,1.21-.11,1.67-.3,.52-.22,.8-.41,1.41-.98l-1.24-1.2c-.36,.34-.53,.47-.83,.6-.27,.11-.61,.17-.94,.17-1.19,0-1.8-.6-1.86-1.82h5.1Zm-11.58,1.65h-2.49c.41-.83,.63-1.85,.63-3.49v-1.07h1.86v4.56Zm3.06,3.8v-3.8h-1.03v-6.35h-5.85v2.49c0,2.13-.38,3.12-.8,3.87h-.83v3.8h1.92v-2h4.66v2h1.92Zm-11.77-6.84h-3.1c.05-1.1,.61-1.72,1.55-1.72s1.49,.61,1.55,1.72m2,1.39v-.91c0-2.36-1.39-3.9-3.55-3.9s-3.55,1.59-3.55,4.15c0,2.77,1.28,4.19,3.79,4.19,.64,0,1.21-.11,1.67-.3,.52-.22,.8-.41,1.41-.98l-1.24-1.2c-.36,.34-.53,.47-.83,.6-.27,.11-.61,.17-.94,.17-1.19,0-1.8-.6-1.86-1.82h5.1Zm-10.98,.99c0,.58-.38,.96-1.02,.96h-1.61v-1.9h1.61c.64,0,1.02,.34,1.02,.94m-1.11-4.2c.64,0,.99,.31,.99,.86s-.34,.88-.99,.88h-1.52v-1.74h1.52Zm3.13,4.3c0-.88-.37-1.44-1.16-1.85,.7-.41,1.03-.95,1.03-1.72,0-1.36-.98-2.24-2.52-2.24h-4.02v8.15h4.16c1.53,0,2.5-.91,2.5-2.35m-11.19-1.1v.44c0,1.02-.42,1.43-1.47,1.43-.86,0-1.28-.31-1.28-.94s.42-.92,1.14-.92h1.61Zm2.03,3.44v-5.37c0-1.91-1.17-2.88-3.52-2.88-.77,0-1.33,.09-1.8,.3-.41,.19-.63,.36-1.09,.83l1.3,1.27c.48-.53,.81-.67,1.53-.67,1.1,0,1.55,.38,1.55,1.28v.41h-1.93c-1.72,0-2.78,.91-2.78,2.38,0,1.6,1.02,2.53,2.75,2.53,.47,0,.85-.06,1.16-.19,.31-.13,.49-.25,.85-.59v.7h1.99Zm-8.44-2.41c0-.88-.5-1.56-1.24-1.88,.67-.31,1.11-.99,1.11-1.75,0-1.44-1.41-2.21-2.97-2.21-1.22,0-2.38,.22-3.3,.95l1.13,1.25c.53-.38,1.16-.56,1.77-.56,.83,0,1.38,.27,1.38,.83s-.42,.89-1.1,.89h-1.21v1.45h1.24c.72,0,1.17,.27,1.17,.88s-.7,.92-1.42,.92c-.77,0-1.49-.2-2.07-.72l-1.17,1.28c.97,.88,2.28,1.16,3.57,1.16,1.67,0,3.11-.98,3.11-2.5m-14.04-1.67c0,1.06-.06,2.35-1.43,2.35-.99,0-1.41-.66-1.41-2.22,0-1.05,.02-2.46,1.41-2.46s1.43,1.28,1.43,2.33m2.03-.03c0-1.58-.25-2.43-.92-3.13-.62-.66-1.5-1-2.54-1s-1.89,.34-2.52,1c-.67,.72-.92,1.55-.92,3.16s.23,2.46,.92,3.18c.63,.66,1.49,1,2.52,1s1.91-.34,2.54-1c.69-.72,.92-1.55,.92-3.21m-9.14,4.11v-8.15h-2.05v3.08h-2.61v-3.08h-2.05v8.15h2.05v-3.27h2.61v3.27h2.05Zm-12.31,.09c.97,0,1.83-.33,2.41-.94,.7-.73,1-1.64,1-3.27,0-1.39-.31-2.63-1.03-3.3-.45-.41-.99-.66-2-.66-.89,0-1.72,.41-2.04,.94,0-.99,.28-1.49,1.03-1.88,.92-.49,2.3-.39,3.33-.47v-1.75c-2.41,.02-3.88,.13-4.9,.91-1.03,.81-1.3,1.75-1.3,5.57,0,1.52,.17,2.82,.66,3.58,.55,.86,1.63,1.27,2.83,1.27m-.03-1.83c-.39,0-.74-.11-.97-.39-.3-.33-.45-.96-.45-1.96,0-.89,.16-1.52,.41-1.85,.25-.31,.61-.42,1.02-.42s.77,.13,1,.44c.27,.33,.41,.95,.41,1.85,0,.95-.16,1.6-.42,1.93-.25,.3-.59,.41-.99,.41m-7.43-3.1h-3.1c.05-1.1,.61-1.72,1.55-1.72s1.49,.61,1.55,1.72m2,1.39v-.91c0-2.36-1.39-3.9-3.55-3.9s-3.55,1.59-3.55,4.15c0,2.77,1.28,4.19,3.79,4.19,.64,0,1.2-.11,1.67-.3,.52-.22,.8-.41,1.41-.98l-1.24-1.2c-.36,.34-.53,.47-.83,.6-.27,.11-.61,.17-.94,.17-1.19,0-1.8-.6-1.86-1.82h5.1Zm-9.28,3.44v-8.15h-2.03v3.57c-.36,.05-.94,.14-1.47,.14-.63,0-1-.31-1-.99v-2.72h-2.03v3.29c0,1.41,.98,2.22,2.28,2.22,.94,0,1.69-.13,2.22-.22v2.86h2.03Zm-7.82-8.15h-2.14l-1.63,5.04-1.69-5.04h-2.14l2.79,7.57-.34,1c-.2,.58-.42,.74-1.02,.74h-.47v1.83h.8c1.24,0,1.92-.5,2.36-1.67l3.49-9.47Zm-14.66,3.32h-3.1c.05-1.1,.61-1.72,1.55-1.72s1.49,.61,1.55,1.72m2,1.39v-.91c0-2.36-1.39-3.9-3.55-3.9s-3.55,1.59-3.55,4.15c0,2.77,1.28,4.19,3.79,4.19,.64,0,1.21-.11,1.68-.3,.52-.22,.8-.41,1.41-.98l-1.24-1.2c-.36,.34-.53,.47-.83,.6-.27,.11-.61,.17-.94,.17-1.19,0-1.8-.6-1.86-1.82h5.1Zm-9.29,3.44v-8.15h-2.03v6.35h-2.24v-6.35h-2.03v6.35h-2.24v-6.35h-2.05v8.15h10.59Zm-12.47-1.02l-1.38-1.36c-.49,.49-.78,.64-1.31,.64-1.06,0-1.61-.78-1.61-2.35s.55-2.33,1.61-2.33c.52,0,.85,.16,1.31,.64l1.38-1.38c-.49-.47-.72-.63-1.16-.81-.44-.19-.95-.28-1.52-.28-2.3,0-3.66,1.53-3.66,4.1,0,2.71,1.33,4.24,3.66,4.24,.56,0,1.06-.09,1.52-.3,.44-.19,.67-.34,1.16-.81m-8.51,1.02v-8.15h-2.05l-2.87,4.85v-4.85h-2.05v8.15h2.05l2.87-4.98v4.98h2.05Zm-15.23-1.94v-2.74h2.27c.89,0,1.46,.52,1.46,1.36s-.56,1.38-1.46,1.38h-2.27Zm0-4.69v-2.57h2.13c.89,0,1.44,.49,1.44,1.28s-.55,1.28-1.44,1.28h-2.13Zm4.37,.92c.92-.52,1.38-1.3,1.38-2.36,0-1.88-1.34-3.07-3.44-3.07h-4.48v11.14h4.66c2.1,0,3.41-1.24,3.41-3.19,0-.78-.2-1.41-.69-1.92-.23-.23-.41-.36-.84-.59"/><path class="i" d="M433.28,56.16v-6.82c0-.69-.05-1.39-.41-2.02-.36-.61-.86-1.1-1.38-1.61l-1.38,1.38c.38,.38,.61,.58,.88,1.03,.16,.28,.23,.72,.23,1.31v6.63c0,.59-.08,1.03-.23,1.31-.27,.45-.5,.66-.88,1.03l1.38,1.38c.52-.52,1.02-1,1.38-1.61,.36-.63,.41-1.33,.41-2.02m-7.06-2.67h-3.1c.02-.36,.06-.58,.19-.88,.22-.49,.67-.85,1.36-.85s1.14,.36,1.36,.85c.13,.3,.17,.52,.19,.88m2,1.39v-.91c0-2.24-1.28-3.9-3.55-3.9-2.11,0-3.55,1.5-3.55,4.16,0,3.3,1.84,4.18,3.77,4.18,1.47,0,2.27-.45,3.1-1.28l-1.24-1.21c-.52,.52-.95,.77-1.85,.77-1.14,0-1.78-.77-1.78-1.82h5.1Zm-8.25,3.44v-1.72h-.78c-.52,0-.72-.25-.72-.74v-8.69h-2.03v8.81c0,1.16,.7,2.33,2.38,2.33h1.16Zm-6.06,0v-8.15h-2.03v4.93c0,1.11-.72,1.49-1.36,1.49s-1.35-.38-1.35-1.49v-4.93h-2.03v5.21c0,.89,.17,1.66,.83,2.31,.45,.45,1.11,.72,1.92,.72,.75,0,1.5-.28,2.04-.84v.75h1.99Zm-9.19,0v-5.27c0-1.72-.94-2.97-2.72-2.97-.72,0-1.41,.28-1.96,.85v-3.74h-2.03v11.14h2.03v-4.98c0-1.06,.67-1.44,1.32-1.44s1.33,.36,1.33,1.44v4.98h2.03Zm-8.61-1.02l-1.38-1.36c-.42,.45-.78,.64-1.31,.64-.49,0-.86-.17-1.16-.53-.31-.39-.45-.95-.45-1.82s.14-1.41,.45-1.8c.3-.36,.67-.53,1.16-.53,.53,0,.89,.19,1.31,.64l1.38-1.38c-.72-.75-1.56-1.1-2.69-1.1-1.63,0-3.64,.86-3.64,4.16s2.02,4.18,3.64,4.18c1.13,0,1.97-.36,2.69-1.11m-7.95-1.55c0-1.38-.81-2.24-2.43-2.4l-1.28-.13c-.72-.06-.85-.41-.85-.7,0-.41,.34-.78,1.16-.78,.7,0,1.42,.13,1.89,.55l1.25-1.27c-.78-.74-1.85-.95-3.11-.95-1.66,0-3.15,.91-3.15,2.6,0,1.5,.91,2.15,2.38,2.29l1.28,.13c.64,.06,.86,.34,.86,.75,0,.61-.74,.85-1.44,.85-.63,0-1.5-.09-2.18-.77l-1.33,1.33c1.03,1.03,2.19,1.17,3.47,1.17,1.92,0,3.46-.86,3.46-2.66m-8.64,2.57v-5.27c0-1.72-.94-2.97-2.72-2.97-.72,0-1.41,.28-1.96,.85v-3.74h-2.03v11.14h2.03v-4.98c0-1.06,.67-1.44,1.32-1.44s1.33,.36,1.33,1.44v4.98h2.03Zm-8.61-1.02l-1.38-1.36c-.42,.45-.78,.64-1.31,.64-.49,0-.86-.17-1.16-.53-.31-.39-.45-.95-.45-1.82s.14-1.41,.45-1.8c.3-.36,.67-.53,1.16-.53,.53,0,.89,.19,1.31,.64l1.38-1.38c-.72-.75-1.56-1.1-2.69-1.1-1.63,0-3.65,.86-3.65,4.16s2.02,4.18,3.65,4.18c1.13,0,1.97-.36,2.69-1.11m-10.22-3.07c0,.85-.05,1.56-.47,1.99-.23,.23-.55,.36-.96,.36s-.7-.13-.94-.36c-.42-.42-.47-1.14-.47-1.99s.05-1.55,.47-1.97c.23-.23,.53-.36,.94-.36s.72,.13,.96,.36c.42,.42,.47,1.13,.47,1.97m2.03,0c0-1.47-.19-2.4-.92-3.16-.5-.53-1.33-1-2.54-1s-2.02,.47-2.52,1c-.73,.77-.92,1.69-.92,3.16s.19,2.41,.92,3.18c.5,.53,1.31,1,2.52,1s2.04-.47,2.54-1c.74-.77,.92-1.69,.92-3.18m-9.06,4.08v-5.27c0-1.72-.94-2.97-2.72-2.97-.72,0-1.41,.28-1.96,.85v-3.74h-2.03v11.14h2.03v-4.98c0-1.06,.67-1.44,1.32-1.44s1.33,.36,1.33,1.44v4.98h2.03Zm-9.22,0v-5.27c0-1.72-.94-2.97-2.72-2.97-.72,0-1.41,.28-1.96,.85v-3.74h-2.03v11.14h2.03v-4.98c0-1.06,.67-1.44,1.32-1.44s1.33,.36,1.33,1.44v4.98h2.03Zm-8.61-1.02l-1.38-1.36c-.42,.45-.78,.64-1.31,.64-.49,0-.86-.17-1.16-.53-.31-.39-.45-.95-.45-1.82s.14-1.41,.45-1.8c.3-.36,.67-.53,1.16-.53,.53,0,.89,.19,1.31,.64l1.38-1.38c-.72-.75-1.56-1.1-2.69-1.1-1.63,0-3.64,.86-3.64,4.16s2.02,4.18,3.64,4.18c1.13,0,1.97-.36,2.69-1.11m-10.47-1.99c0,.5-.08,.83-.3,1.03-.36,.34-.72,.39-1.28,.39-.8,0-1.17-.38-1.17-.94s.41-.92,1.14-.92h1.61v.44Zm2.03,3v-5.37c0-1.91-1.19-2.88-3.47-2.88-1.36,0-2.14,.25-2.94,1.13l1.3,1.27c.42-.49,.78-.67,1.57-.67,1.08,0,1.52,.39,1.52,1.28v.41h-1.93c-1.89,0-2.78,1.06-2.78,2.36,0,.72,.23,1.38,.67,1.83,.49,.48,1.16,.72,2.08,.72s1.46-.23,2-.78v.7h1.99Zm-7.7-9.2v-1.94h-7.34v11.14h2.17v-4.52h4.4v-1.94h-4.4v-2.74h5.16Zm-9.81,9.31c-.38-.38-.61-.59-.88-1.05-.16-.28-.23-.72-.23-1.31v-6.63c0-.59,.08-1.03,.23-1.31,.27-.45,.5-.67,.88-1.05l-1.36-1.36c-.52,.52-1.02,1-1.38,1.61-.36,.63-.41,1.33-.41,2.02v6.82c0,.69,.05,1.39,.41,2.02,.36,.61,.86,1.1,1.38,1.61l1.36-1.36Z"/><path class="i" d="M418.43,39.54v-1.72h-.74c-.49,0-.7-.27-.7-.74v-3.91h1.44v-1.55h-1.44v-2.41h-2.03v2.41h-.86v1.55h.86v4.04c0,1.16,.7,2.33,2.36,2.33h1.11Zm-5.54-6.37v-1.55h-1.5v-.89c0-.47,.22-.74,.7-.74h.8v-1.72h-1.16c-1.66,0-2.38,1.17-2.38,2.33v1.02h-.85v1.55h.85v6.37h2.03v-6.37h1.5Zm-8.32,3.37c0,.5-.08,.83-.3,1.03-.36,.34-.72,.39-1.28,.39-.8,0-1.17-.38-1.17-.94s.41-.92,1.14-.92h1.61v.44Zm2.03,3v-5.37c0-1.91-1.19-2.88-3.47-2.88-1.36,0-2.14,.25-2.94,1.13l1.3,1.27c.42-.49,.78-.67,1.56-.67,1.08,0,1.52,.39,1.52,1.29v.41h-1.93c-1.89,0-2.78,1.06-2.78,2.36,0,.72,.23,1.38,.67,1.83,.49,.49,1.16,.72,2.08,.72s1.46-.23,2-.78v.7h1.99Zm-8.67,0v-5.27c0-1.72-.94-2.97-2.72-2.97-.72,0-1.41,.28-1.96,.84v-3.74h-2.03v11.14h2.03v-4.98c0-1.06,.67-1.44,1.31-1.44s1.33,.36,1.33,1.44v4.98h2.03Zm-8.61-1.02l-1.38-1.36c-.42,.45-.78,.64-1.31,.64-.49,0-.86-.17-1.16-.53-.31-.39-.45-.95-.45-1.82s.14-1.41,.45-1.8c.3-.36,.67-.53,1.16-.53,.53,0,.89,.19,1.31,.64l1.38-1.38c-.72-.75-1.56-1.09-2.69-1.09-1.63,0-3.65,.86-3.65,4.16s2.02,4.18,3.65,4.18c1.13,0,1.97-.36,2.69-1.11m-7.95-1.55c0-1.38-.81-2.24-2.43-2.4l-1.28-.13c-.72-.06-.85-.41-.85-.7,0-.41,.34-.78,1.16-.78,.7,0,1.43,.13,1.89,.55l1.25-1.27c-.78-.73-1.85-.95-3.11-.95-1.66,0-3.15,.91-3.15,2.6,0,1.5,.91,2.14,2.38,2.28l1.28,.13c.64,.06,.86,.35,.86,.75,0,.61-.74,.85-1.44,.85-.63,0-1.5-.09-2.18-.77l-1.33,1.33c1.03,1.03,2.19,1.17,3.47,1.17,1.92,0,3.46-.86,3.46-2.66m-8.64,2.56v-5.21c0-.89-.17-1.66-.83-2.31-.45-.45-1.11-.72-1.92-.72-.75,0-1.5,.28-2.04,.84v-.75h-1.99v8.15h2.03v-4.93c0-1.11,.72-1.49,1.36-1.49s1.35,.38,1.35,1.49v4.93h2.03Zm-10.97-4.83h-3.1c.02-.36,.06-.58,.19-.88,.22-.49,.67-.85,1.36-.85s1.14,.36,1.36,.85c.13,.3,.17,.52,.19,.88m2,1.39v-.91c0-2.24-1.28-3.9-3.55-3.9-2.11,0-3.55,1.5-3.55,4.16,0,3.3,1.85,4.18,3.77,4.18,1.47,0,2.27-.45,3.1-1.28l-1.24-1.21c-.52,.52-.95,.77-1.85,.77-1.14,0-1.78-.77-1.78-1.82h5.1Zm-8.72,.88c0-1.38-.81-2.24-2.43-2.4l-1.28-.13c-.72-.06-.85-.41-.85-.7,0-.41,.34-.78,1.16-.78,.7,0,1.42,.13,1.89,.55l1.25-1.27c-.78-.73-1.85-.95-3.11-.95-1.66,0-3.15,.91-3.15,2.6,0,1.5,.91,2.14,2.38,2.28l1.28,.13c.64,.06,.86,.35,.86,.75,0,.61-.74,.85-1.44,.85-.63,0-1.5-.09-2.18-.77l-1.33,1.33c1.03,1.03,2.19,1.17,3.47,1.17,1.92,0,3.46-.86,3.46-2.66m-8.06,0c0-1.38-.81-2.24-2.43-2.4l-1.28-.13c-.72-.06-.85-.41-.85-.7,0-.41,.34-.78,1.16-.78,.7,0,1.42,.13,1.89,.55l1.25-1.27c-.78-.73-1.85-.95-3.11-.95-1.66,0-3.15,.91-3.15,2.6,0,1.5,.91,2.14,2.38,2.28l1.28,.13c.64,.06,.86,.35,.86,.75,0,.61-.74,.85-1.44,.85-.63,0-1.5-.09-2.18-.77l-1.33,1.33c1.03,1.03,2.19,1.17,3.47,1.17,1.92,0,3.46-.86,3.46-2.66m-8.7-8.64h-2.08v1.66h2.08v-1.66Zm-.02,3.05h-2.03v8.15h2.03v-8.15Zm-3.58-2.99h-2.27l-1.74,7.03-2.03-7.03h-1.63l-2.03,7.03-1.72-7.03h-2.27l2.97,11.14h1.82l2.05-6.76,2.05,6.76h1.82l2.99-11.14Z"/><path class="i" d="M470.3,15.93h-3.1c.02-.36,.06-.58,.19-.88,.22-.49,.67-.85,1.36-.85s1.14,.36,1.36,.85c.13,.3,.17,.52,.19,.88m2,1.39v-.91c0-2.24-1.28-3.9-3.55-3.9-2.11,0-3.55,1.5-3.55,4.16,0,3.3,1.84,4.18,3.77,4.18,1.47,0,2.27-.45,3.1-1.28l-1.24-1.21c-.52,.52-.95,.77-1.85,.77-1.14,0-1.78-.77-1.78-1.82h5.1Zm-8.81,3.44v-1.72h-.74c-.49,0-.7-.27-.7-.74v-3.91h1.44v-1.55h-1.44v-2.41h-2.03v2.41h-.86v1.55h.86v4.04c0,1.16,.7,2.33,2.36,2.33h1.11Zm-8.29-4.08c0,1.33-.17,2.35-1.39,2.35s-1.38-1.02-1.38-2.35,.16-2.33,1.38-2.33,1.39,1,1.39,2.33m2.03,4.08V9.62h-2.03v3.71c-.53-.59-1.16-.81-1.99-.81s-1.53,.28-1.99,.73c-.81,.81-.83,2.21-.83,3.43s.02,2.63,.83,3.44c.45,.45,1.2,.73,2,.73,.86,0,1.46-.23,2.02-.86v.77h1.99Zm-9,0v-5.21c0-.89-.17-1.66-.83-2.31-.45-.45-1.11-.72-1.92-.72-.75,0-1.5,.28-2.04,.84v-.75h-1.99v8.15h2.03v-4.93c0-1.11,.72-1.49,1.36-1.49s1.35,.38,1.35,1.49v4.93h2.03Zm-11.31-3c0,.5-.08,.83-.3,1.03-.36,.35-.72,.39-1.28,.39-.8,0-1.17-.38-1.17-.94s.41-.92,1.14-.92h1.61v.44Zm2.03,3v-5.37c0-1.91-1.19-2.88-3.47-2.88-1.36,0-2.14,.25-2.94,1.13l1.3,1.27c.42-.49,.78-.67,1.56-.67,1.08,0,1.52,.39,1.52,1.28v.41h-1.93c-1.89,0-2.78,1.06-2.78,2.36,0,.72,.23,1.38,.67,1.83,.49,.48,1.16,.72,2.08,.72s1.46-.23,2-.78v.7h1.99Zm-7.68-8.15h-2.14l-1.31,5.04-1.67-5.04h-1.49l-1.66,5.04-1.31-5.04h-2.16l2.5,8.15h1.67l1.71-5.12,1.71,5.12h1.67l2.49-8.15Zm-14.74,3.32h-3.1c.02-.36,.06-.58,.19-.88,.22-.49,.67-.85,1.36-.85s1.14,.36,1.36,.85c.13,.3,.17,.52,.19,.88m2,1.39v-.91c0-2.24-1.28-3.9-3.55-3.9-2.11,0-3.55,1.5-3.55,4.16,0,3.3,1.85,4.18,3.77,4.18,1.47,0,2.27-.45,3.1-1.28l-1.24-1.21c-.52,.52-.95,.77-1.85,.77-1.14,0-1.78-.77-1.78-1.82h5.1Zm-11.33-.86c0,1.08-.14,2.13-1.35,2.13s-1.33-1.05-1.33-2.13,.13-2.11,1.33-2.11,1.35,1.03,1.35,2.11m2.03,4.01v-7.85h-1.97v.77c-.56-.63-1.13-.86-1.99-.86-.8,0-1.5,.26-1.95,.72-.77,.77-.83,1.8-.83,3.22s.06,2.47,.83,3.24c.45,.45,1.14,.72,1.94,.72s1.41-.22,1.94-.81v.83c0,.83-.42,1.69-1.64,1.69-.69,0-1.14-.19-1.6-.63l-1.27,1.28c.85,.81,1.7,1.06,2.96,1.06,2.19,0,3.58-1.42,3.58-3.38m-8.9,.3v-5.21c0-.89-.17-1.66-.83-2.31-.45-.45-1.11-.72-1.92-.72-.75,0-1.5,.28-2.04,.84v-.75h-1.99v8.15h2.03v-4.93c0-1.11,.72-1.49,1.36-1.49s1.35,.38,1.35,1.49v4.93h2.03Zm-11.31-3c0,.5-.08,.83-.3,1.03-.36,.35-.72,.39-1.28,.39-.8,0-1.17-.38-1.17-.94s.41-.92,1.14-.92h1.61v.44Zm2.03,3v-5.37c0-1.91-1.19-2.88-3.47-2.88-1.36,0-2.15,.25-2.94,1.13l1.3,1.27c.42-.49,.78-.67,1.57-.67,1.08,0,1.52,.39,1.52,1.28v.41h-1.93c-1.89,0-2.78,1.06-2.78,2.36,0,.72,.23,1.38,.67,1.83,.48,.48,1.16,.72,2.08,.72s1.46-.23,2-.78v.7h1.99Zm-11.58-7.48c-.56-.56-1.13-.77-1.92-.77-.88,0-1.66,.41-2.05,.88v-.78h-1.99v8.15h2.03v-4.91c0-1.03,.69-1.5,1.31-1.5,.5,0,.77,.17,1.08,.49l1.53-1.55Zm-12.8-3.96h-1.74v1.95h1.74v-1.95Zm3.46,0h-1.74v1.95h1.74v-1.95Zm.78,11.44V12.61h-2.03v4.93c0,1.11-.72,1.49-1.36,1.49s-1.35-.38-1.35-1.49v-4.93h-2.03v5.21c0,.89,.17,1.66,.83,2.31,.45,.45,1.11,.72,1.92,.72,.75,0,1.5-.28,2.04-.84v.75h1.99Zm-8.56-6.37v-1.55h-1.5v-.89c0-.47,.22-.74,.7-.74h.8v-1.72h-1.16c-1.66,0-2.38,1.17-2.38,2.33v1.02h-.85v1.55h.85v6.37h2.03v-6.37h1.5Zm-11.92,1.54h-3.1c.02-.36,.06-.58,.19-.88,.22-.49,.67-.85,1.36-.85s1.14,.36,1.36,.85c.13,.3,.17,.52,.19,.88m2,1.39v-.91c0-2.24-1.28-3.9-3.55-3.9-2.11,0-3.55,1.5-3.55,4.16,0,3.3,1.84,4.18,3.77,4.18,1.47,0,2.27-.45,3.1-1.28l-1.24-1.21c-.52,.52-.95,.77-1.85,.77-1.14,0-1.78-.77-1.78-1.82h5.1Zm-8.25,3.44v-1.72h-.78c-.52,0-.72-.25-.72-.74V9.62h-2.03v8.81c0,1.16,.7,2.33,2.38,2.33h1.16Zm-6.06,0V12.61h-2.03v4.93c0,1.11-.72,1.49-1.36,1.49s-1.35-.38-1.35-1.49v-4.93h-2.03v5.21c0,.89,.17,1.66,.83,2.31,.45,.45,1.11,.72,1.92,.72,.75,0,1.5-.28,2.04-.84v.75h1.99Zm-9.19,0v-5.27c0-1.72-.94-2.97-2.72-2.97-.72,0-1.41,.28-1.96,.84v-3.74h-2.03v11.14h2.03v-4.98c0-1.06,.67-1.44,1.31-1.44s1.33,.36,1.33,1.44v4.98h2.03Zm-8.61-1.02l-1.38-1.36c-.42,.46-.78,.64-1.31,.64-.49,0-.86-.17-1.16-.53-.31-.39-.45-.95-.45-1.82s.14-1.41,.45-1.8c.3-.36,.67-.53,1.16-.53,.53,0,.89,.19,1.31,.64l1.38-1.38c-.72-.75-1.56-1.09-2.69-1.09-1.63,0-3.65,.86-3.65,4.16s2.02,4.18,3.65,4.18c1.13,0,1.97-.36,2.69-1.11m-7.95-1.55c0-1.38-.81-2.24-2.43-2.39l-1.28-.13c-.72-.06-.85-.41-.85-.7,0-.41,.34-.78,1.16-.78,.7,0,1.42,.13,1.89,.55l1.25-1.27c-.78-.74-1.85-.95-3.11-.95-1.66,0-3.15,.91-3.15,2.6,0,1.5,.91,2.15,2.38,2.29l1.28,.13c.64,.06,.86,.34,.86,.75,0,.61-.74,.85-1.44,.85-.63,0-1.5-.09-2.18-.77l-1.33,1.33c1.03,1.03,2.19,1.17,3.47,1.17,1.92,0,3.46-.86,3.46-2.66m-8.64,2.57v-5.27c0-1.72-.94-2.97-2.72-2.97-.72,0-1.41,.28-1.96,.84v-3.74h-2.03v11.14h2.03v-4.98c0-1.06,.67-1.44,1.32-1.44s1.33,.36,1.33,1.44v4.98h2.03Zm-8.61-1.02l-1.38-1.36c-.42,.46-.78,.64-1.31,.64-.49,0-.86-.17-1.16-.53-.31-.39-.45-.95-.45-1.82s.14-1.41,.45-1.8c.3-.36,.67-.53,1.16-.53,.53,0,.89,.19,1.31,.64l1.38-1.38c-.72-.75-1.56-1.09-2.69-1.09-1.63,0-3.64,.86-3.64,4.16s2.02,4.18,3.64,4.18c1.13,0,1.97-.36,2.69-1.11m-10.22-3.07c0,.85-.05,1.56-.47,1.99-.23,.24-.55,.36-.95,.36s-.71-.13-.94-.36c-.42-.42-.47-1.14-.47-1.99s.05-1.55,.47-1.97c.23-.23,.53-.36,.94-.36s.72,.13,.95,.36c.42,.42,.47,1.13,.47,1.97m2.03,0c0-1.47-.19-2.4-.92-3.16-.5-.53-1.33-1-2.54-1s-2.02,.47-2.52,1c-.74,.77-.92,1.69-.92,3.16s.19,2.41,.92,3.18c.5,.53,1.31,1,2.52,1s2.03-.47,2.54-1c.73-.77,.92-1.69,.92-3.18m-9.31,4.08V9.62h-2.17v4.55h-3.77v-4.55h-2.17v11.14h2.17v-4.66h3.77v4.66h2.17Z"/><path class="f" d="M185.95,57.71v-1.8h-6.79v1.8h2.39v6.35h2.05v-6.35h2.35Zm-10.01,1.52h-3.1c.05-1.1,.61-1.72,1.55-1.72s1.49,.61,1.55,1.72m2,1.39v-.91c0-2.36-1.39-3.9-3.55-3.9s-3.55,1.59-3.55,4.15c0,2.77,1.28,4.19,3.79,4.19,.64,0,1.21-.11,1.68-.3,.52-.22,.8-.41,1.41-.98l-1.24-1.21c-.36,.35-.53,.47-.83,.6-.27,.11-.61,.17-.94,.17-1.19,0-1.8-.6-1.86-1.82h5.1Zm-8.17-2.91v-1.8h-6.79v1.8h2.39v6.35h2.05v-6.35h2.35Zm-8.4,6.35v-8.15h-2.05l-2.87,4.85v-4.85h-2.05v8.15h2.05l2.87-4.98v4.98h2.05Zm-8.84-1.02l-1.38-1.36c-.49,.49-.78,.64-1.31,.64-1.06,0-1.61-.78-1.61-2.35s.55-2.33,1.61-2.33c.52,0,.85,.16,1.31,.64l1.38-1.38c-.49-.47-.72-.62-1.16-.81s-.95-.28-1.52-.28c-2.3,0-3.66,1.53-3.66,4.1,0,2.71,1.33,4.24,3.66,4.24,.56,0,1.06-.09,1.52-.3,.44-.19,.67-.34,1.16-.81m-10.22-3.08c0,1.74-.36,2.36-1.38,2.36s-1.38-.63-1.38-2.22c0-1.05-.03-2.46,1.38-2.46,1.02,0,1.38,.61,1.38,2.32m-2.82-3.29v-.77h-1.97v11.14h2.03v-3.71c.58,.58,1.1,.81,1.94,.81s1.55-.26,2.02-.73c.61-.61,.83-1.5,.83-3.41,0-1.08-.03-1.49-.14-2.08-.11-.55-.36-1.05-.69-1.38-.47-.47-1.2-.73-2.02-.73-.89,0-1.38,.23-2,.86m-6.16,2.55h-3.1c.05-1.1,.61-1.72,1.55-1.72s1.49,.61,1.55,1.72m2,1.39v-.91c0-2.36-1.39-3.9-3.55-3.9s-3.55,1.59-3.55,4.15c0,2.77,1.28,4.19,3.79,4.19,.64,0,1.21-.11,1.67-.3,.52-.22,.8-.41,1.41-.98l-1.24-1.21c-.36,.35-.53,.47-.83,.6-.27,.11-.61,.17-.94,.17-1.19,0-1.8-.6-1.86-1.82h5.1Zm-10.98,.99c0,.58-.38,.96-1.02,.96h-1.61v-1.9h1.61c.64,0,1.02,.35,1.02,.94m-1.11-4.2c.64,0,.99,.31,.99,.86s-.35,.88-.99,.88h-1.52v-1.74h1.52Zm3.13,4.3c0-.88-.38-1.44-1.16-1.85,.7-.41,1.03-.95,1.03-1.72,0-1.36-.98-2.24-2.52-2.24h-4.02v8.15h4.16c1.53,0,2.5-.91,2.5-2.35m-9.23,2.35v-8.15h-2.05l-2.87,4.85v-4.85h-2.05v8.15h2.05l2.87-4.98v4.98h2.05Zm-9.53,0v-8.15h-2.05v3.08h-2.62v-3.08h-2.05v8.15h2.05v-3.27h2.62v3.27h2.05Zm-7.75-11.14h-2.25l-2.11,5.37-2.33-5.37h-2.27l3.57,7.73-.33,.77c-.2,.45-.56,.7-1.16,.7h-.88v1.94h1.33c1.3,0,2.07-.88,2.49-1.88l3.94-9.26Z"/><path class="i" d="M179.08,45.28v-1.72h-.74c-.49,0-.7-.27-.7-.74v-3.91h1.44v-1.55h-1.44v-2.41h-2.03v2.41h-.86v1.55h.86v4.04c0,1.16,.7,2.33,2.36,2.33h1.11Zm-10.23-11.44h-1.74v1.95h1.74v-1.95Zm3.46,0h-1.74v1.95h1.74v-1.95Zm-1.42,8.43c0,.5-.08,.83-.3,1.03-.36,.34-.72,.39-1.28,.39-.8,0-1.17-.38-1.17-.94s.41-.92,1.14-.92h1.61v.44Zm2.03,3v-5.37c0-1.91-1.19-2.88-3.47-2.88-1.36,0-2.14,.25-2.94,1.13l1.3,1.27c.42-.49,.78-.67,1.56-.67,1.08,0,1.52,.39,1.52,1.29v.41h-1.93c-1.89,0-2.78,1.06-2.78,2.36,0,.72,.23,1.38,.67,1.83,.48,.49,1.16,.72,2.08,.72s1.46-.23,2-.78v.7h1.99Zm-8.28,0v-1.72h-.74c-.49,0-.7-.27-.7-.74v-3.91h1.44v-1.55h-1.44v-2.41h-2.03v2.41h-.86v1.55h.86v4.04c0,1.16,.7,2.33,2.36,2.33h1.11Zm-6.23-11.2h-2.08v1.66h2.08v-1.66Zm-.02,3.05h-2.03v8.15h2.03v-8.15Zm-4.05,5.59c0-1.38-.81-2.24-2.43-2.4l-1.28-.13c-.72-.06-.85-.41-.85-.7,0-.41,.34-.78,1.16-.78,.7,0,1.42,.13,1.89,.55l1.25-1.27c-.78-.73-1.85-.95-3.11-.95-1.66,0-3.15,.91-3.15,2.6,0,1.5,.91,2.14,2.38,2.28l1.28,.13c.64,.06,.86,.35,.86,.75,0,.61-.74,.85-1.44,.85-.63,0-1.5-.09-2.18-.77l-1.33,1.33c1.03,1.03,2.19,1.17,3.47,1.17,1.92,0,3.46-.86,3.46-2.66m-7.45-4.92c-.56-.56-1.13-.77-1.92-.77-.88,0-1.66,.41-2.05,.88v-.78h-1.99v8.15h2.03v-4.91c0-1.03,.69-1.5,1.31-1.5,.5,0,.77,.17,1.08,.49l1.53-1.55Zm-10.16,2.65h-3.1c.02-.36,.06-.58,.19-.88,.22-.49,.67-.85,1.36-.85s1.14,.36,1.36,.85c.13,.3,.17,.52,.19,.88m2,1.39v-.91c0-2.24-1.28-3.9-3.55-3.9-2.11,0-3.55,1.5-3.55,4.16,0,3.3,1.84,4.18,3.77,4.18,1.47,0,2.27-.45,3.1-1.28l-1.24-1.21c-.52,.52-.95,.77-1.85,.77-1.14,0-1.78-.77-1.78-1.82h5.1Zm-8.06-4.71h-2.14l-1.64,5.04-1.66-5.04h-2.14l3,8.15h1.6l2.99-8.15Zm-9.08-3.05h-2.08v1.66h2.08v-1.66Zm-.02,3.05h-2.03v8.15h2.03v-8.15Zm-4.54,8.15v-5.21c0-.89-.17-1.66-.83-2.31-.45-.45-1.11-.72-1.92-.72-.75,0-1.5,.28-2.04,.84v-.75h-1.99v8.15h2.03v-4.93c0-1.11,.72-1.49,1.36-1.49s1.35,.38,1.35,1.49v4.93h2.03Zm-9.36-3.82v-7.32h-2.16v7.25c0,1.28-.77,2.05-1.94,2.05s-1.93-.77-1.93-2.05v-7.25h-2.17v7.32c0,2.36,1.81,3.91,4.1,3.91s4.1-1.55,4.1-3.91"/><path class="i" d="M476.75,146.87H255.72c-.2,0-.36-.16-.36-.36V.36c0-.2,.16-.36,.36-.36h221.03c.2,0,.36,.16,.36,.36V146.51c0,.2-.16,.36-.36,.36Zm-220.67-.72h220.31V.72h-220.31V146.15Z"/><path class="i" d="M246.41,104.22H33.5c-.2,0-.36-.16-.36-.36V.36c0-.2,.16-.36,.36-.36H246.41c.2,0,.36,.16,.36,.36V103.86c0,.2-.16,.36-.36,.36Zm-212.55-.72H246.05V.72H33.86V103.5Z"/></g><polygon class="f" points="465.76 334.44 471.4 334.44 468.58 331.62 465.76 334.44"/><polygon class="f" points="465.76 368.13 471.4 368.13 468.58 365.31 465.76 368.13"/><polygon class="f" points="465.76 401.82 471.4 401.82 468.58 399 465.76 401.82"/><polygon class="f" points="465.76 435.51 471.4 435.51 468.58 432.69 465.76 435.51"/><polygon class="f" points="465.76 469.2 471.4 469.2 468.58 466.37 465.76 469.2"/><polygon class="f" points="465.76 351.28 471.4 351.28 468.58 348.46 465.76 351.28"/><polygon class="f" points="465.76 384.97 471.4 384.97 468.58 382.15 465.76 384.97"/><polygon class="f" points="465.76 418.66 471.4 418.66 468.58 415.84 465.76 418.66"/><polygon class="f" points="465.76 452.35 471.4 452.35 468.58 449.53 465.76 452.35"/><polygon class="f" points="465.76 340.05 471.4 340.05 468.58 337.23 465.76 340.05"/><polygon class="f" points="465.76 373.74 471.4 373.74 468.58 370.92 465.76 373.74"/><polygon class="f" points="465.76 407.43 471.4 407.43 468.58 404.61 465.76 407.43"/><polygon class="f" points="465.76 441.12 471.4 441.12 468.58 438.3 465.76 441.12"/><polygon class="f" points="465.76 474.81 471.4 474.81 468.58 471.99 465.76 474.81"/><polygon class="f" points="465.76 356.9 471.4 356.9 468.58 354.08 465.76 356.9"/><polygon class="f" points="465.76 390.59 471.4 390.59 468.58 387.77 465.76 390.59"/><polygon class="f" points="465.76 424.28 471.4 424.28 468.58 421.46 465.76 424.28"/><polygon class="f" points="465.76 457.97 471.4 457.97 468.58 455.14 465.76 457.97"/><polygon class="f" points="465.76 345.67 471.4 345.67 468.58 342.85 465.76 345.67"/><polygon class="f" points="465.76 379.36 471.4 379.36 468.58 376.54 465.76 379.36"/><polygon class="f" points="465.76 413.05 471.4 413.05 468.58 410.23 465.76 413.05"/><polygon class="f" points="465.76 446.74 471.4 446.74 468.58 443.91 465.76 446.74"/><polygon class="f" points="465.76 480.43 471.4 480.43 468.58 477.6 465.76 480.43"/><polygon class="f" points="465.76 317.59 471.4 317.59 468.58 314.77 465.76 317.59"/><polygon class="f" points="465.76 306.37 471.4 306.37 468.58 303.54 465.76 306.37"/><polygon class="f" points="465.76 323.21 471.4 323.21 468.58 320.39 465.76 323.21"/><polygon class="f" points="465.76 311.98 471.4 311.98 468.58 309.16 465.76 311.98"/><polygon class="f" points="465.76 328.82 471.4 328.82 468.58 326 465.76 328.82"/><polygon class="f" points="465.76 362.51 471.4 362.51 468.58 359.69 465.76 362.51"/><polygon class="f" points="465.76 396.2 471.4 396.2 468.58 393.38 465.76 396.2"/><polygon class="f" points="465.76 429.89 471.4 429.89 468.58 427.07 465.76 429.89"/><polygon class="f" points="465.76 463.58 471.4 463.58 468.58 460.76 465.76 463.58"/><polygon class="f" points="421.07 334.44 426.72 334.44 423.89 331.62 421.07 334.44"/><polygon class="f" points="421.07 368.13 426.72 368.13 423.89 365.31 421.07 368.13"/><polygon class="f" points="421.07 351.28 426.72 351.28 423.89 348.46 421.07 351.28"/><polygon class="f" points="421.07 384.97 426.72 384.97 423.89 382.15 421.07 384.97"/><polygon class="f" points="421.07 340.05 426.72 340.05 423.89 337.23 421.07 340.05"/><polygon class="f" points="421.07 373.74 426.72 373.74 423.89 370.92 421.07 373.74"/><polygon class="f" points="421.07 356.9 426.72 356.9 423.89 354.08 421.07 356.9"/><polygon class="f" points="421.07 390.59 426.72 390.59 423.89 387.77 421.07 390.59"/><polygon class="f" points="421.07 345.67 426.72 345.67 423.89 342.85 421.07 345.67"/><polygon class="f" points="421.07 379.36 426.72 379.36 423.89 376.54 421.07 379.36"/><polygon class="f" points="421.07 317.59 426.72 317.59 423.89 314.77 421.07 317.59"/><polygon class="f" points="421.07 306.37 426.72 306.37 423.89 303.54 421.07 306.37"/><polygon class="f" points="421.07 323.21 426.72 323.21 423.89 320.39 421.07 323.21"/><polygon class="f" points="421.07 311.98 426.72 311.98 423.89 309.16 421.07 311.98"/><polygon class="f" points="421.07 328.82 426.72 328.82 423.89 326 421.07 328.82"/><polygon class="f" points="421.07 362.51 426.72 362.51 423.89 359.69 421.07 362.51"/><polygon class="f" points="421.07 396.2 426.72 396.2 423.89 393.38 421.07 396.2"/><polygon class="f" points="234.65 306.37 240.3 306.37 237.47 303.54 234.65 306.37"/><polygon class="f" points="234.65 311.98 240.3 311.98 237.47 309.16 234.65 311.98"/><polygon class="f" points="465.76 160.4 471.4 160.4 468.58 157.58 465.76 160.4"/><polygon class="f" points="465.76 194.09 471.4 194.09 468.58 191.27 465.76 194.09"/><polygon class="f" points="465.76 227.78 471.4 227.78 468.58 224.95 465.76 227.78"/><polygon class="f" points="465.76 261.47 471.4 261.47 468.58 258.64 465.76 261.47"/><polygon class="f" points="465.76 295.16 471.4 295.16 468.58 292.33 465.76 295.16"/><polygon class="f" points="465.76 177.24 471.4 177.24 468.58 174.42 465.76 177.24"/><polygon class="f" points="465.76 210.93 471.4 210.93 468.58 208.11 465.76 210.93"/><polygon class="f" points="465.76 244.62 471.4 244.62 468.58 241.8 465.76 244.62"/><polygon class="f" points="465.76 278.31 471.4 278.31 468.58 275.49 465.76 278.31"/><polygon class="f" points="465.76 166.01 471.4 166.01 468.58 163.19 465.76 166.01"/><polygon class="f" points="465.76 199.7 471.4 199.7 468.58 196.88 465.76 199.7"/><polygon class="f" points="465.76 233.39 471.4 233.39 468.58 230.57 465.76 233.39"/><polygon class="f" points="465.76 267.08 471.4 267.08 468.58 264.26 465.76 267.08"/><polygon class="f" points="465.76 300.77 471.4 300.77 468.58 297.95 465.76 300.77"/><polygon class="f" points="465.76 182.86 471.4 182.86 468.58 180.04 465.76 182.86"/><polygon class="f" points="465.76 216.55 471.4 216.55 468.58 213.72 465.76 216.55"/><polygon class="f" points="465.76 250.24 471.4 250.24 468.58 247.41 465.76 250.24"/><polygon class="f" points="465.76 283.93 471.4 283.93 468.58 281.1 465.76 283.93"/><polygon class="f" points="465.76 171.63 471.4 171.63 468.58 168.81 465.76 171.63"/><polygon class="f" points="465.76 205.32 471.4 205.32 468.58 202.5 465.76 205.32"/><polygon class="f" points="465.76 239.01 471.4 239.01 468.58 236.18 465.76 239.01"/><polygon class="f" points="465.76 272.7 471.4 272.7 468.58 269.87 465.76 272.7"/><polygon class="f" points="465.76 154.78 471.4 154.78 468.58 151.96 465.76 154.78"/><polygon class="f" points="465.76 188.47 471.4 188.47 468.58 185.65 465.76 188.47"/><polygon class="f" points="465.76 222.16 471.4 222.16 468.58 219.34 465.76 222.16"/><polygon class="f" points="465.76 255.85 471.4 255.85 468.58 253.03 465.76 255.85"/><polygon class="f" points="465.76 289.54 471.4 289.54 468.58 286.72 465.76 289.54"/><polygon class="f" points="421.07 160.4 426.72 160.4 423.89 157.58 421.07 160.4"/><polygon class="f" points="421.07 194.09 426.72 194.09 423.89 191.27 421.07 194.09"/><polygon class="f" points="421.07 227.78 426.72 227.78 423.89 224.95 421.07 227.78"/><polygon class="f" points="421.07 261.47 426.72 261.47 423.89 258.64 421.07 261.47"/><polygon class="f" points="421.07 295.16 426.72 295.16 423.89 292.33 421.07 295.16"/><polygon class="f" points="421.07 177.24 426.72 177.24 423.89 174.42 421.07 177.24"/><polygon class="f" points="421.07 210.93 426.72 210.93 423.89 208.11 421.07 210.93"/><polygon class="f" points="421.07 244.62 426.72 244.62 423.89 241.8 421.07 244.62"/><polygon class="f" points="421.07 278.31 426.72 278.31 423.89 275.49 421.07 278.31"/><polygon class="f" points="421.07 166.01 426.72 166.01 423.89 163.19 421.07 166.01"/><polygon class="f" points="421.07 199.7 426.72 199.7 423.89 196.88 421.07 199.7"/><polygon class="f" points="421.07 233.39 426.72 233.39 423.89 230.57 421.07 233.39"/><polygon class="f" points="421.07 267.08 426.72 267.08 423.89 264.26 421.07 267.08"/><polygon class="f" points="421.07 300.77 426.72 300.77 423.89 297.95 421.07 300.77"/><polygon class="f" points="421.07 182.86 426.72 182.86 423.89 180.04 421.07 182.86"/><polygon class="f" points="421.07 216.55 426.72 216.55 423.89 213.72 421.07 216.55"/><polygon class="f" points="421.07 250.24 426.72 250.24 423.89 247.41 421.07 250.24"/><polygon class="f" points="421.07 283.93 426.72 283.93 423.89 281.1 421.07 283.93"/><polygon class="f" points="421.07 171.63 426.72 171.63 423.89 168.81 421.07 171.63"/><polygon class="f" points="421.07 205.32 426.72 205.32 423.89 202.5 421.07 205.32"/><polygon class="f" points="421.07 239.01 426.72 239.01 423.89 236.18 421.07 239.01"/><polygon class="f" points="421.07 272.7 426.72 272.7 423.89 269.87 421.07 272.7"/><polygon class="f" points="421.07 154.78 426.72 154.78 423.89 151.96 421.07 154.78"/><polygon class="f" points="421.07 188.47 426.72 188.47 423.89 185.65 421.07 188.47"/><polygon class="f" points="421.07 222.16 426.72 222.16 423.89 219.34 421.07 222.16"/><polygon class="f" points="421.07 255.85 426.72 255.85 423.89 253.03 421.07 255.85"/><polygon class="f" points="421.07 289.54 426.72 289.54 423.89 286.72 421.07 289.54"/><polygon class="f" points="234.65 160.4 240.3 160.4 237.47 157.58 234.65 160.4"/><polygon class="f" points="234.65 194.09 240.3 194.09 237.47 191.27 234.65 194.09"/><polygon class="f" points="234.65 227.78 240.3 227.78 237.47 224.95 234.65 227.78"/><polygon class="f" points="234.65 261.47 240.3 261.47 237.47 258.64 234.65 261.47"/><polygon class="f" points="234.65 295.16 240.3 295.16 237.47 292.33 234.65 295.16"/><polygon class="f" points="234.65 177.24 240.3 177.24 237.47 174.42 234.65 177.24"/><polygon class="f" points="234.65 210.93 240.3 210.93 237.47 208.11 234.65 210.93"/><polygon class="f" points="234.65 244.62 240.3 244.62 237.47 241.8 234.65 244.62"/><polygon class="f" points="234.65 278.31 240.3 278.31 237.47 275.49 234.65 278.31"/><polygon class="f" points="234.65 166.01 240.3 166.01 237.47 163.19 234.65 166.01"/><polygon class="f" points="234.65 199.7 240.3 199.7 237.47 196.88 234.65 199.7"/><polygon class="f" points="234.65 233.39 240.3 233.39 237.47 230.57 234.65 233.39"/><polygon class="f" points="234.65 267.08 240.3 267.08 237.47 264.26 234.65 267.08"/><polygon class="f" points="234.65 300.77 240.3 300.77 237.47 297.95 234.65 300.77"/><polygon class="f" points="234.65 182.86 240.3 182.86 237.47 180.04 234.65 182.86"/><polygon class="f" points="234.65 216.55 240.3 216.55 237.47 213.72 234.65 216.55"/><polygon class="f" points="234.65 250.24 240.3 250.24 237.47 247.41 234.65 250.24"/><polygon class="f" points="234.65 283.93 240.3 283.93 237.47 281.1 234.65 283.93"/><polygon class="f" points="234.65 171.63 240.3 171.63 237.47 168.81 234.65 171.63"/><polygon class="f" points="234.65 205.32 240.3 205.32 237.47 202.5 234.65 205.32"/><polygon class="f" points="234.65 239.01 240.3 239.01 237.47 236.18 234.65 239.01"/><polygon class="f" points="234.65 272.7 240.3 272.7 237.47 269.87 234.65 272.7"/><polygon class="f" points="234.65 143.55 240.3 143.55 237.47 140.73 234.65 143.55"/><polygon class="f" points="234.65 132.32 240.3 132.32 237.47 129.5 234.65 132.32"/><polygon class="f" points="234.65 149.17 240.3 149.17 237.47 146.35 234.65 149.17"/><polygon class="f" points="234.65 137.94 240.3 137.94 237.47 135.12 234.65 137.94"/><polygon class="f" points="234.65 154.78 240.3 154.78 237.47 151.96 234.65 154.78"/><polygon class="f" points="234.65 188.47 240.3 188.47 237.47 185.65 234.65 188.47"/><polygon class="f" points="234.65 222.16 240.3 222.16 237.47 219.34 234.65 222.16"/><polygon class="f" points="234.65 255.85 240.3 255.85 237.47 253.03 234.65 255.85"/><polygon class="f" points="234.65 289.54 240.3 289.54 237.47 286.72 234.65 289.54"/><polygon class="f" points="275.84 192.31 275.84 186.66 273.02 189.48 275.84 192.31"/><polygon class="f" points="309.53 192.31 309.53 186.66 306.71 189.48 309.53 192.31"/><polygon class="f" points="343.22 192.31 343.22 186.66 340.4 189.48 343.22 192.31"/><polygon class="f" points="376.91 192.31 376.91 186.66 374.09 189.48 376.91 192.31"/><polygon class="f" points="410.6 192.31 410.6 186.66 407.78 189.48 410.6 192.31"/><polygon class="f" points="292.69 192.31 292.69 186.66 289.86 189.48 292.69 192.31"/><polygon class="f" points="326.37 192.31 326.37 186.66 323.55 189.48 326.37 192.31"/><polygon class="f" points="360.06 192.31 360.06 186.66 357.24 189.48 360.06 192.31"/><polygon class="f" points="393.75 192.31 393.75 186.66 390.93 189.48 393.75 192.31"/><polygon class="f" points="281.46 192.31 281.46 186.66 278.63 189.48 281.46 192.31"/><polygon class="f" points="315.15 192.31 315.15 186.66 312.32 189.48 315.15 192.31"/><polygon class="f" points="348.83 192.31 348.83 186.66 346.01 189.48 348.83 192.31"/><polygon class="f" points="382.52 192.31 382.52 186.66 379.7 189.48 382.52 192.31"/><polygon class="f" points="416.21 192.31 416.21 186.66 413.39 189.48 416.21 192.31"/><polygon class="f" points="298.3 192.31 298.3 186.66 295.48 189.48 298.3 192.31"/><polygon class="f" points="331.99 192.31 331.99 186.66 329.17 189.48 331.99 192.31"/><polygon class="f" points="365.68 192.31 365.68 186.66 362.86 189.48 365.68 192.31"/><polygon class="f" points="399.37 192.31 399.37 186.66 396.55 189.48 399.37 192.31"/><polygon class="f" points="287.07 192.31 287.07 186.66 284.25 189.48 287.07 192.31"/><polygon class="f" points="320.76 192.31 320.76 186.66 317.94 189.48 320.76 192.31"/><polygon class="f" points="354.45 192.31 354.45 186.66 351.63 189.48 354.45 192.31"/><polygon class="f" points="388.14 192.31 388.14 186.66 385.32 189.48 388.14 192.31"/><polygon class="f" points="259 192.31 259 186.66 256.17 189.48 259 192.31"/><polygon class="f" points="247.77 192.31 247.77 186.66 244.94 189.48 247.77 192.31"/><polygon class="f" points="264.61 192.31 264.61 186.66 261.79 189.48 264.61 192.31"/><polygon class="f" points="253.38 192.31 253.38 186.66 250.56 189.48 253.38 192.31"/><polygon class="f" points="270.23 192.31 270.23 186.66 267.4 189.48 270.23 192.31"/><polygon class="f" points="303.92 192.31 303.92 186.66 301.09 189.48 303.92 192.31"/><polygon class="f" points="337.6 192.31 337.6 186.66 334.78 189.48 337.6 192.31"/><polygon class="f" points="371.29 192.31 371.29 186.66 368.47 189.48 371.29 192.31"/><polygon class="f" points="404.98 192.31 404.98 186.66 402.16 189.48 404.98 192.31"/><polygon class="f" points="395.69 328.82 395.69 334.47 398.52 331.65 395.69 328.82"/><polygon class="f" points="412.54 328.82 412.54 334.47 415.36 331.65 412.54 328.82"/><polygon class="f" points="406.92 328.82 406.92 334.47 409.75 331.65 406.92 328.82"/><polygon class="f" points="401.31 328.82 401.31 334.47 404.13 331.65 401.31 328.82"/><polygon class="f" points="234.65 126.76 240.3 126.76 237.47 123.93 234.65 126.76"/><polygon class="f" points="234.65 109.91 240.3 109.91 237.47 107.09 234.65 109.91"/><polygon class="f" points="234.65 115.53 240.3 115.53 237.47 112.7 234.65 115.53"/><polygon class="f" points="234.65 121.14 240.3 121.14 237.47 118.32 234.65 121.14"/></svg>