<?xml version="1.0" encoding="UTF-8"?><svg id="a" xmlns="http://www.w3.org/2000/svg" xmlns:xlink="http://www.w3.org/1999/xlink" viewBox="0 0 432.39 512"><defs><style>.e{fill:none;}.f{fill:#fff;}.g{fill:#87ccc8;}.h{fill:#2b2961;}.i{clip-path:url(#c);}.j{clip-path:url(#b);}.k{clip-path:url(#d);}</style><clipPath id="b"><rect class="e" x="4.44" width="423.52" height="512"/></clipPath><clipPath id="c"><rect class="e" x="4.44" width="423.52" height="512"/></clipPath><clipPath id="d"><rect class="e" x="4.44" width="423.52" height="512"/></clipPath></defs><rect class="g" x="4.44" y="233.9" width="40.1" height="168.31"/><rect class="g" x="5.28" y="305.04" width="421.82" height="206.11"/><g class="j"><path class="h" d="M427.95,512H4.44v-207.81H427.95v207.81Zm-421.82-1.7H426.26v-204.41H6.13v204.41Z"/><path class="f" d="M365.34,486.33v-16.03c0-1.62-.11-3.27-.96-4.74-.84-1.43-2.02-2.57-3.23-3.79l-3.23,3.24c.88,.88,1.43,1.36,2.06,2.43,.37,.66,.55,1.69,.55,3.09v15.59c0,1.4-.18,2.43-.55,3.09-.63,1.07-1.18,1.54-2.06,2.43l3.23,3.24c1.21-1.21,2.39-2.35,3.23-3.79,.85-1.47,.96-3.13,.96-4.74m-11.18,2.69l-3.24-3.2c-1.14,1.14-1.84,1.51-3.09,1.51-2.5,0-3.79-1.84-3.79-5.52s1.29-5.48,3.79-5.48c1.21,0,1.99,.37,3.09,1.51l3.24-3.23c-1.14-1.1-1.69-1.47-2.72-1.91-1.03-.44-2.24-.66-3.57-.66-5.4,0-8.6,3.6-8.6,9.64,0,6.36,3.12,9.96,8.6,9.96,1.32,0,2.5-.22,3.57-.7,1.03-.44,1.58-.81,2.72-1.91m-24.6-5.7v1.03c0,2.39-1,3.35-3.46,3.35-2.03,0-3.02-.74-3.02-2.21s.99-2.17,2.69-2.17h3.79Zm4.78,8.09v-12.61c0-4.49-2.76-6.77-8.27-6.77-1.81,0-3.13,.22-4.23,.7-.96,.44-1.47,.85-2.57,1.95l3.05,2.98c1.14-1.25,1.91-1.58,3.61-1.58,2.57,0,3.64,.88,3.64,3.02v.96h-4.53c-4.05,0-6.54,2.13-6.54,5.59,0,3.75,2.39,5.96,6.47,5.96,1.1,0,1.99-.15,2.72-.44,.74-.29,1.14-.59,1.99-1.39v1.65h4.67Zm-20.6,0v-19.16h-14.01v7.76c0,6.88-1.58,7.18-3.2,7.18h-.59v4.23h2.28c3.9,0,6.14-2.13,6.14-10.33v-4.6h4.6v14.93h4.78Zm-31.15,0v-10l6.58,10h5.74l-7.21-10.22,6.77-8.94h-5.59l-6.29,9.09v-9.09h-4.81v19.16h4.81Zm-20.16,0v-19.16h-4.81l-6.74,11.4v-11.4h-4.81v19.16h4.81l6.74-11.69v11.69h4.81Zm-20.15-14.93v-4.23h-15.96v4.23h5.63v14.93h4.82v-14.93h5.52Zm-17.8,2.21h-11.33v4.44h11.33v-4.44Zm-21.04,5.11c0,2.21-1.29,3.53-3.17,3.53s-3.2-1.32-3.2-3.53v-10.93c0-2.21,1.32-3.57,3.2-3.57s3.17,1.36,3.17,3.57v10.93Zm4.78,.04v-11.04c0-5-3.68-7.79-7.94-7.79s-7.98,2.79-7.98,7.79v11.04c0,5,3.71,7.79,7.98,7.79s7.94-2.79,7.94-7.79m-24.75,7.57v-26.19h-4.78l-5.33,4.63v5.15l5.33-4.63v21.04h4.78Zm-31.96-4.23h-5.85c.96-1.95,1.47-4.34,1.47-8.21v-2.5h4.38v10.71Zm7.21,8.94v-8.94h-2.43v-14.93h-13.75v5.85c0,5.01-.88,7.32-1.88,9.09h-1.95v8.94h4.52v-4.71h10.96v4.71h4.52Zm-27.65-16.07h-7.29c.11-2.58,1.43-4.05,3.64-4.05s3.49,1.43,3.64,4.05m4.7,3.27v-2.13c0-5.56-3.27-9.16-8.35-9.16s-8.35,3.75-8.35,9.75c0,6.51,3.01,9.85,8.9,9.85,1.51,0,2.83-.26,3.94-.7,1.21-.51,1.88-.95,3.31-2.31l-2.9-2.83c-.85,.81-1.25,1.1-1.95,1.4-.63,.26-1.43,.4-2.21,.4-2.8,0-4.23-1.4-4.38-4.27h11.99Zm-21.85,8.09v-19.16h-14.01v7.76c0,6.88-1.58,7.18-3.2,7.18h-.59v4.23h2.28c3.9,0,6.14-2.13,6.14-10.33v-4.6h4.6v14.93h4.78Zm-20.08-2.39l-3.24-3.2c-1.14,1.14-1.84,1.51-3.09,1.51-2.5,0-3.79-1.84-3.79-5.52s1.29-5.48,3.79-5.48c1.21,0,1.99,.37,3.09,1.51l3.24-3.23c-1.14-1.1-1.69-1.47-2.72-1.91-1.03-.44-2.24-.66-3.57-.66-5.4,0-8.6,3.6-8.6,9.64,0,6.36,3.12,9.96,8.6,9.96,1.32,0,2.5-.22,3.57-.7,1.03-.44,1.58-.81,2.72-1.91m-19.38,2.65c-.88-.88-1.43-1.4-2.06-2.46-.37-.66-.55-1.69-.55-3.09v-15.59c0-1.4,.18-2.43,.55-3.09,.63-1.07,1.18-1.58,2.06-2.46l-3.2-3.2c-1.21,1.21-2.39,2.35-3.23,3.79-.84,1.47-.95,3.13-.95,4.74v16.03c0,1.62,.11,3.27,.95,4.74,.85,1.43,2.02,2.57,3.23,3.79l3.2-3.2Z"/><path class="f" d="M391.35,435.91h-7.29c.11-2.58,1.43-4.05,3.64-4.05s3.49,1.44,3.64,4.05m4.71,3.27v-2.13c0-5.56-3.27-9.16-8.35-9.16s-8.35,3.75-8.35,9.74c0,6.51,3.01,9.85,8.9,9.85,1.51,0,2.83-.26,3.94-.7,1.21-.51,1.87-.95,3.31-2.31l-2.9-2.83c-.85,.81-1.25,1.1-1.95,1.4-.63,.26-1.43,.41-2.21,.41-2.8,0-4.23-1.4-4.38-4.27h11.99Zm-21.81,8.09v-19.16h-4.82l-6.73,11.4v-11.4h-4.82v19.16h4.82l6.73-11.69v11.69h4.82Zm-22.4,0v-19.16h-4.81v7.25h-6.15v-7.25h-4.81v19.16h4.81v-7.69h6.15v7.69h4.81Zm-26.4-8.09v1.03c0,2.39-1,3.35-3.46,3.35-2.03,0-3.02-.74-3.02-2.21s.99-2.17,2.69-2.17h3.79Zm4.78,8.09v-12.61c0-4.49-2.76-6.76-8.27-6.76-1.81,0-3.13,.22-4.23,.7-.95,.44-1.47,.85-2.57,1.95l3.05,2.98c1.14-1.25,1.91-1.58,3.61-1.58,2.57,0,3.64,.88,3.64,3.02v.96h-4.53c-4.04,0-6.54,2.13-6.54,5.59,0,3.75,2.39,5.96,6.47,5.96,1.11,0,1.99-.15,2.72-.44s1.14-.59,1.99-1.39v1.65h4.67Zm-24.56-5.77c0,1.36-.89,2.25-2.39,2.25h-3.79v-4.46h3.79c1.51,0,2.39,.81,2.39,2.21m-2.61-9.86c1.51,0,2.32,.74,2.32,2.03s-.81,2.06-2.32,2.06h-3.57v-4.09h3.57Zm7.35,10.12c0-2.06-.88-3.39-2.72-4.34,1.65-.96,2.42-2.24,2.42-4.05,0-3.2-2.31-5.26-5.92-5.26h-9.45v19.16h9.78c3.6,0,5.88-2.13,5.88-5.51m-25.7-4.08c0,2.5-.15,5.52-3.35,5.52-2.32,0-3.31-1.55-3.31-5.23,0-2.46,.04-5.78,3.31-5.78s3.35,3.02,3.35,5.48m4.78-.07c0-3.72-.59-5.7-2.17-7.36-1.47-1.54-3.53-2.35-5.96-2.35s-4.45,.81-5.92,2.35c-1.58,1.69-2.17,3.64-2.17,7.43s.55,5.78,2.17,7.47c1.47,1.54,3.49,2.35,5.92,2.35s4.49-.81,5.96-2.35c1.62-1.69,2.17-3.64,2.17-7.54m-20.74,4.01c0-2.06-1.17-3.68-2.9-4.41,1.58-.74,2.61-2.32,2.61-4.12,0-3.38-3.3-5.18-6.98-5.18-2.87,0-5.59,.51-7.76,2.24l2.65,2.94c1.25-.89,2.72-1.33,4.16-1.33,1.95,0,3.24,.63,3.24,1.95s-.99,2.1-2.57,2.1h-2.83v3.42h2.91c1.69,0,2.76,.63,2.76,2.06s-1.66,2.17-3.35,2.17c-1.8,0-3.49-.48-4.86-1.69l-2.76,3.02c2.28,2.06,5.37,2.72,8.39,2.72,3.93,0,7.31-2.31,7.31-5.88m-24.31-2.43v1.03c0,2.39-.99,3.35-3.46,3.35-2.02,0-3.02-.74-3.02-2.21s1-2.17,2.69-2.17h3.79Zm4.78,8.09v-12.61c0-4.49-2.76-6.76-8.27-6.76-1.8,0-3.13,.22-4.23,.7-.96,.44-1.47,.85-2.57,1.95l3.05,2.98c1.14-1.25,1.91-1.58,3.6-1.58,2.58,0,3.64,.88,3.64,3.02v.96h-4.53c-4.05,0-6.54,2.13-6.54,5.59,0,3.75,2.39,5.96,6.47,5.96,1.1,0,1.99-.15,2.72-.44,.74-.29,1.14-.59,1.99-1.39v1.65h4.67Zm-24.56-9.63c0,4.08-.85,5.56-3.24,5.56s-3.24-1.47-3.24-5.23c0-2.46-.07-5.78,3.24-5.78,2.39,0,3.24,1.43,3.24,5.45m-6.63-7.72v-1.8h-4.63v26.18h4.78v-8.71c1.36,1.36,2.58,1.91,4.57,1.91s3.64-.63,4.74-1.73c1.43-1.43,1.95-3.53,1.95-8.02,0-2.54-.07-3.5-.33-4.89-.25-1.29-.84-2.46-1.62-3.23-1.1-1.1-2.83-1.73-4.74-1.73-2.1,0-3.24,.55-4.71,2.02m-17.84,17.58c2.28,0,4.31-.77,5.66-2.2,1.66-1.73,2.35-3.86,2.35-7.69,0-3.27-.73-6.18-2.42-7.76-1.06-.96-2.31-1.54-4.71-1.54-2.1,0-4.05,.96-4.78,2.21,0-2.32,.66-3.49,2.43-4.41,2.17-1.14,5.41-.92,7.83-1.1v-4.11c-5.66,.04-9.12,.29-11.51,2.13-2.42,1.91-3.05,4.12-3.05,13.09,0,3.57,.4,6.62,1.54,8.42,1.28,2.02,3.82,2.98,6.65,2.98m-.07-4.3c-.92,0-1.73-.26-2.28-.92-.7-.78-1.07-2.25-1.07-4.6,0-2.1,.37-3.57,.96-4.34,.59-.74,1.43-.99,2.39-.99s1.81,.29,2.36,1.03c.63,.77,.96,2.24,.96,4.34,0,2.24-.37,3.75-.99,4.53-.59,.7-1.4,.96-2.32,.96m-17.69-5.52c0,2.5-.15,5.52-3.35,5.52-2.32,0-3.31-1.55-3.31-5.23,0-2.46,.04-5.78,3.31-5.78s3.35,3.02,3.35,5.48m4.78-.07c0-3.72-.59-5.7-2.17-7.36-1.47-1.54-3.53-2.35-5.96-2.35s-4.45,.81-5.92,2.35c-1.58,1.69-2.17,3.64-2.17,7.43s.55,5.78,2.17,7.47c1.47,1.54,3.49,2.35,5.92,2.35s4.49-.81,5.96-2.35c1.62-1.69,2.17-3.64,2.17-7.54m-34.76,.07c0,2.5-.15,5.52-3.35,5.52-2.32,0-3.31-1.55-3.31-5.23,0-2.46,.04-5.78,3.31-5.78s3.35,3.02,3.35,5.48m4.78-.07c0-3.72-.59-5.7-2.17-7.36-1.47-1.54-3.53-2.35-5.96-2.35s-4.45,.81-5.92,2.35c-1.58,1.69-2.17,3.64-2.17,7.43s.55,5.78,2.17,7.47c1.47,1.54,3.49,2.35,5.92,2.35s4.49-.81,5.96-2.35c1.62-1.69,2.17-3.64,2.17-7.54m-21.48,9.67v-19.16h-4.82v7.25h-6.15v-7.25h-4.82v19.16h4.82v-7.69h6.15v7.69h4.82Zm-27.22-4.22h-5.85c.96-1.95,1.47-4.34,1.47-8.21v-2.5h4.38v10.71Zm7.21,8.93v-8.93h-2.43v-14.93h-13.75v5.84c0,5.01-.88,7.32-1.88,9.09h-1.95v8.93h4.52v-4.71h10.96v4.71h4.52Zm-27.65-16.07h-7.29c.11-2.58,1.43-4.05,3.64-4.05s3.49,1.44,3.64,4.05m4.7,3.27v-2.13c0-5.56-3.27-9.16-8.35-9.16s-8.35,3.75-8.35,9.74c0,6.51,3.01,9.85,8.9,9.85,1.51,0,2.83-.26,3.94-.7,1.21-.51,1.88-.95,3.31-2.31l-2.9-2.83c-.85,.81-1.25,1.1-1.95,1.4-.63,.26-1.43,.41-2.21,.41-2.8,0-4.23-1.4-4.38-4.27h11.99Zm-25.81-1.54c0,4.08-.85,5.56-3.24,5.56s-3.24-1.47-3.24-5.23c0-2.46-.07-5.78,3.24-5.78,2.39,0,3.24,1.43,3.24,5.45m-6.63-7.72v-1.8h-4.63v26.18h4.78v-8.71c1.36,1.36,2.58,1.91,4.56,1.91s3.64-.63,4.74-1.73c1.43-1.43,1.95-3.53,1.95-8.02,0-2.54-.07-3.5-.33-4.89-.26-1.29-.85-2.46-1.62-3.23-1.1-1.1-2.83-1.73-4.74-1.73-2.1,0-3.24,.55-4.71,2.02m-9.09,14.97l-3.24-3.2c-1.14,1.14-1.84,1.51-3.09,1.51-2.5,0-3.79-1.84-3.79-5.52s1.29-5.48,3.79-5.48c1.21,0,1.99,.37,3.09,1.51l3.24-3.23c-1.14-1.1-1.69-1.47-2.72-1.91-1.03-.44-2.24-.66-3.57-.66-5.4,0-8.6,3.6-8.6,9.63,0,6.36,3.12,9.96,8.6,9.96,1.32,0,2.5-.22,3.57-.7,1.03-.44,1.58-.81,2.72-1.91"/><path class="f" d="M354.75,395.04v1.03c0,2.39-.99,3.35-3.46,3.35-2.03,0-3.02-.74-3.02-2.21s.99-2.17,2.69-2.17h3.79Zm4.78,8.09v-12.61c0-4.49-2.76-6.76-8.27-6.76-1.81,0-3.13,.22-4.23,.7-.96,.44-1.47,.85-2.57,1.95l3.05,2.98c1.14-1.25,1.91-1.58,3.61-1.58,2.58,0,3.64,.88,3.64,3.02v.96h-4.53c-4.05,0-6.54,2.13-6.54,5.59,0,3.75,2.39,5.96,6.47,5.96,1.1,0,1.99-.15,2.72-.44,.74-.29,1.14-.59,1.99-1.39v1.65h4.67Zm-20.56,0v-19.16h-4.81v7.25h-6.15v-7.25h-4.81v19.16h4.81v-7.69h6.15v7.69h4.81Zm-31.08,0v-19.16h-4.81v7.25h-6.15v-7.25h-4.81v19.16h4.81v-7.69h6.15v7.69h4.81Zm-25.59-11.36h-7.29c.11-2.58,1.44-4.05,3.64-4.05s3.5,1.44,3.64,4.05m4.7,3.27v-2.13c0-5.56-3.27-9.16-8.35-9.16s-8.35,3.75-8.35,9.74c0,6.51,3.01,9.85,8.9,9.85,1.51,0,2.83-.26,3.94-.7,1.21-.51,1.87-.95,3.31-2.31l-2.9-2.83c-.85,.81-1.25,1.1-1.95,1.4-.63,.26-1.43,.41-2.21,.41-2.8,0-4.23-1.4-4.38-4.27h11.99Zm-21.81,8.09v-19.16h-15.77v19.16h4.81v-14.93h6.15v14.93h4.81Zm-25.59-11.36h-7.29c.11-2.58,1.43-4.05,3.64-4.05s3.5,1.44,3.64,4.05m4.71,3.27v-2.13c0-5.56-3.27-9.16-8.35-9.16s-8.35,3.75-8.35,9.74c0,6.51,3.01,9.85,8.9,9.85,1.51,0,2.83-.26,3.94-.7,1.21-.51,1.87-.95,3.31-2.31l-2.9-2.83c-.85,.81-1.25,1.1-1.95,1.4-.63,.26-1.43,.41-2.21,.41-2.8,0-4.23-1.4-4.38-4.27h11.99Zm-19.2-6.84v-4.22h-15.96v4.22h5.63v14.93h4.82v-14.93h5.52Zm-17.77,12.55l-3.24-3.2c-1.14,1.14-1.84,1.51-3.09,1.51-2.5,0-3.79-1.84-3.79-5.52s1.29-5.48,3.79-5.48c1.21,0,1.99,.37,3.09,1.51l3.24-3.23c-1.14-1.1-1.69-1.47-2.72-1.91-1.03-.44-2.24-.66-3.57-.66-5.41,0-8.6,3.6-8.6,9.63,0,6.36,3.12,9.96,8.6,9.96,1.32,0,2.5-.22,3.57-.7,1.03-.44,1.58-.81,2.72-1.91m-33.87-5.7v1.03c0,2.39-.99,3.35-3.46,3.35-2.02,0-3.02-.74-3.02-2.21s.99-2.17,2.69-2.17h3.79Zm4.78,8.09v-12.61c0-4.49-2.76-6.76-8.28-6.76-1.8,0-3.13,.22-4.23,.7-.95,.44-1.47,.85-2.57,1.95l3.05,2.98c1.14-1.25,1.91-1.58,3.6-1.58,2.58,0,3.64,.88,3.64,3.02v.96h-4.53c-4.05,0-6.54,2.13-6.54,5.59,0,3.75,2.39,5.96,6.47,5.96,1.1,0,1.99-.15,2.72-.44s1.14-.59,1.99-1.39v1.65h4.67Zm-24.56-5.77c0,1.36-.89,2.25-2.39,2.25h-3.79v-4.46h3.79c1.51,0,2.39,.81,2.39,2.21m-2.61-9.86c1.51,0,2.32,.74,2.32,2.03s-.81,2.06-2.32,2.06h-3.57v-4.09h3.57Zm7.35,10.12c0-2.06-.88-3.39-2.72-4.34,1.65-.96,2.42-2.24,2.42-4.05,0-3.2-2.31-5.26-5.92-5.26h-9.45v19.16h9.78c3.6,0,5.88-2.13,5.88-5.51m-25.7-4.12c0,4.08-.85,5.56-3.24,5.56s-3.24-1.47-3.24-5.23c0-2.46-.07-5.78,3.24-5.78,2.39,0,3.24,1.43,3.24,5.45m-6.63-7.72v-1.8h-4.63v26.18h4.78v-8.71c1.36,1.36,2.58,1.91,4.56,1.91s3.64-.63,4.74-1.73c1.43-1.43,1.95-3.53,1.95-8.02,0-2.54-.07-3.5-.33-4.89-.26-1.29-.85-2.46-1.62-3.23-1.1-1.1-2.83-1.73-4.74-1.73-2.1,0-3.24,.55-4.71,2.02m-16.48,8.86c1.54,0,2.54,.92,2.54,2.36s-1,2.39-2.54,2.39h-3.68v-4.75h3.68Zm7.24,2.36c0-3.6-2.57-6.1-6.36-6.1h-4.42v-6.91h-9.3v4.22h4.49v14.93h9.23c3.79,0,6.36-2.54,6.36-6.14m-24.31,6.14v-26.18h-19.08v26.18h5.11v-21.63h8.87v21.63h5.11Z"/><path class="h" d="M328.43,347.63h-7.28c.04-.85,.15-1.36,.44-2.06,.51-1.14,1.58-1.99,3.2-1.99s2.69,.85,3.2,1.99c.29,.7,.4,1.21,.44,2.06m4.71,3.27v-2.13c0-5.26-3.02-9.16-8.35-9.16-4.97,0-8.35,3.53-8.35,9.78,0,7.76,4.34,9.82,8.86,9.82,3.46,0,5.33-1.07,7.28-3.01l-2.91-2.83c-1.21,1.21-2.24,1.81-4.34,1.81-2.69,0-4.19-1.81-4.19-4.27h11.99Zm-19.57-6.88v-3.64h-3.53v-2.1c0-1.11,.51-1.73,1.66-1.73h1.88v-4.04h-2.72c-3.9,0-5.59,2.76-5.59,5.48v2.39h-1.99v3.64h1.99v14.97h4.78v-14.97h3.53Zm-14.93-11.36h-4.89v3.89h4.89v-3.89Zm-.04,7.17h-4.78v19.16h4.78v-19.16Zm-14.64,7.8h-7.28c.04-.85,.15-1.36,.44-2.06,.51-1.14,1.58-1.99,3.2-1.99s2.69,.85,3.2,1.99c.29,.7,.4,1.21,.44,2.06m4.71,3.27v-2.13c0-5.26-3.02-9.16-8.35-9.16-4.96,0-8.34,3.53-8.34,9.78,0,7.76,4.33,9.82,8.86,9.82,3.46,0,5.33-1.07,7.28-3.01l-2.91-2.83c-1.21,1.21-2.24,1.81-4.34,1.81-2.69,0-4.19-1.81-4.19-4.27h11.99Zm-26.51-10.08c0,2.02-1.47,3.46-3.72,3.46h-4.82v-6.92h4.82c2.24,0,3.72,1.43,3.72,3.46m6.17,18.17l-5.84-11.29c2.54-.92,4.78-3.19,4.78-6.88,0-4.38-3.16-8.02-8.49-8.02h-10.26v26.18h5.11v-10.45h3.68l5.12,10.45h5.92Zm-39.32-11.36h-7.28c.04-.85,.15-1.36,.44-2.06,.51-1.14,1.58-1.99,3.2-1.99s2.69,.85,3.2,1.99c.29,.7,.4,1.21,.44,2.06m4.71,3.27v-2.13c0-5.26-3.02-9.16-8.35-9.16-4.96,0-8.34,3.53-8.34,9.78,0,7.76,4.33,9.82,8.86,9.82,3.46,0,5.33-1.07,7.28-3.01l-2.91-2.83c-1.21,1.21-2.24,1.81-4.34,1.81-2.69,0-4.19-1.81-4.19-4.27h11.99Zm-18.06-9.49c-1.32-1.32-2.65-1.8-4.52-1.8-2.06,0-3.9,.95-4.82,2.06v-1.84h-4.67v19.16h4.78v-11.55c0-2.43,1.62-3.53,3.09-3.53,1.18,0,1.8,.4,2.54,1.14l3.6-3.64Zm-23.87,6.22h-7.28c.04-.85,.15-1.36,.44-2.06,.51-1.14,1.58-1.99,3.2-1.99s2.69,.85,3.2,1.99c.29,.7,.4,1.21,.44,2.06m4.71,3.27v-2.13c0-5.26-3.02-9.16-8.35-9.16-4.97,0-8.35,3.53-8.35,9.78,0,7.76,4.34,9.82,8.86,9.82,3.46,0,5.33-1.07,7.28-3.01l-2.91-2.83c-1.21,1.21-2.24,1.81-4.34,1.81-2.69,0-4.19-1.81-4.19-4.27h11.99Zm-19.38,8.09v-4.04h-1.84c-1.21,0-1.69-.59-1.69-1.73v-20.41h-4.78v20.71c0,2.72,1.66,5.47,5.59,5.47h2.72Zm-13.2,0v-4.04h-1.73c-1.14,0-1.66-.63-1.66-1.73v-9.2h3.38v-3.64h-3.38v-5.66h-4.78v5.66h-2.02v3.64h2.02v9.49c0,2.72,1.66,5.48,5.55,5.48h2.61Zm-13.68,0v-4.04h-1.73c-1.14,0-1.66-.63-1.66-1.73v-9.2h3.38v-3.64h-3.38v-5.66h-4.78v5.66h-2.02v3.64h2.02v9.49c0,2.72,1.66,5.48,5.55,5.48h2.61Zm-14.64-26.33h-4.89v3.89h4.89v-3.89Zm-.04,7.17h-4.78v19.16h4.78v-19.16Zm-11.26,19.16v-26.18h-5.03l-6.81,14.16-6.84-14.16h-5.03v26.18h5.11v-15.26l5.04,9.93h3.46l5.01-9.93v15.26h5.11Z"/></g><polygon class="f" points="17.85 270.96 31.12 270.96 24.48 264.32 17.85 270.96"/><polygon class="f" points="17.85 297.35 31.12 297.35 24.48 290.71 17.85 297.35"/><polygon class="f" points="17.85 284.15 31.12 284.15 24.48 277.52 17.85 284.15"/><rect class="g" x="4.44" y="47.05" width="40.1" height="68.23"/><rect class="g" x="5.28" y=".85" width="421.65" height="58.85"/><g class="i"><path class="h" d="M427.78,60.55H4.44V0H427.78V60.55ZM6.13,58.85H426.09V1.7H6.13V58.85Z"/><path class="f" d="M340.21,29.6h-7.28c.04-.85,.15-1.36,.44-2.06,.51-1.14,1.58-1.99,3.2-1.99s2.69,.85,3.2,1.99c.29,.7,.4,1.21,.44,2.06m4.71,3.27v-2.13c0-5.26-3.02-9.16-8.35-9.16-4.96,0-8.34,3.53-8.34,9.78,0,7.76,4.33,9.82,8.86,9.82,3.46,0,5.33-1.07,7.28-3.01l-2.91-2.83c-1.21,1.21-2.24,1.81-4.34,1.81-2.69,0-4.19-1.81-4.19-4.27h11.99Zm-19.57-6.88v-3.64h-3.53v-2.1c0-1.11,.51-1.73,1.66-1.73h1.88v-4.04h-2.72c-3.9,0-5.59,2.76-5.59,5.48v2.39h-1.99v3.64h1.99v14.97h4.78v-14.97h3.53Zm-14.93-11.36h-4.89v3.89h4.89v-3.89Zm-.04,7.17h-4.78v19.16h4.78V21.8Zm-14.64,7.8h-7.28c.04-.85,.15-1.36,.44-2.06,.51-1.14,1.58-1.99,3.2-1.99s2.69,.85,3.2,1.99c.29,.7,.4,1.21,.44,2.06m4.71,3.27v-2.13c0-5.26-3.02-9.16-8.35-9.16-4.96,0-8.34,3.53-8.34,9.78,0,7.76,4.33,9.82,8.86,9.82,3.46,0,5.33-1.07,7.28-3.01l-2.91-2.83c-1.21,1.21-2.24,1.81-4.34,1.81-2.69,0-4.19-1.81-4.19-4.27h11.99Zm-18.06-9.49c-1.32-1.32-2.65-1.8-4.52-1.8-2.06,0-3.9,.95-4.82,2.06v-1.84h-4.67v19.16h4.78v-11.55c0-2.43,1.62-3.53,3.09-3.53,1.18,0,1.8,.4,2.54,1.14l3.6-3.64Zm-18.57,17.58v-4.04h-1.84c-1.21,0-1.69-.59-1.69-1.73V14.77h-4.78v20.71c0,2.72,1.65,5.47,5.59,5.47h2.72Zm-14.23,0V21.8h-4.78v11.59c0,2.61-1.69,3.49-3.2,3.49s-3.17-.88-3.17-3.49v-11.59h-4.78v12.25c0,2.1,.4,3.9,1.95,5.44,1.07,1.06,2.61,1.69,4.52,1.69,1.77,0,3.53-.66,4.78-1.98v1.76h4.67Zm-21.59,0v-12.4c0-4.04-2.21-6.98-6.4-6.98-1.69,0-3.31,.66-4.6,1.98V14.77h-4.78v26.18h4.78v-11.7c0-2.5,1.58-3.38,3.09-3.38s3.13,.85,3.13,3.38v11.7h4.78Zm-20.23-2.39l-3.24-3.2c-.99,1.07-1.84,1.51-3.09,1.51-1.14,0-2.02-.4-2.72-1.25-.74-.92-1.07-2.24-1.07-4.27s.33-3.31,1.07-4.23c.7-.85,1.58-1.25,2.72-1.25,1.25,0,2.1,.44,3.09,1.51l3.24-3.23c-1.69-1.77-3.68-2.57-6.33-2.57-3.83,0-8.57,2.02-8.57,9.78s4.74,9.82,8.57,9.82c2.65,0,4.63-.85,6.33-2.61m-18.68-3.64c0-3.24-1.91-5.26-5.7-5.63l-3.02-.3c-1.69-.15-1.99-.96-1.99-1.66,0-.96,.81-1.84,2.72-1.84,1.66,0,3.35,.29,4.45,1.29l2.94-2.98c-1.84-1.73-4.34-2.24-7.32-2.24-3.9,0-7.39,2.13-7.39,6.1,0,3.53,2.13,5.04,5.59,5.37l3.02,.29c1.51,.15,2.02,.81,2.02,1.77,0,1.44-1.73,1.99-3.38,1.99-1.47,0-3.53-.22-5.11-1.81l-3.13,3.13c2.43,2.42,5.15,2.76,8.17,2.76,4.52,0,8.13-2.02,8.13-6.25m-20.31,6.03v-12.4c0-4.04-2.2-6.98-6.4-6.98-1.69,0-3.31,.66-4.6,1.98V14.77h-4.78v26.18h4.78v-11.7c0-2.5,1.58-3.38,3.09-3.38s3.13,.85,3.13,3.38v11.7h4.78Zm-20.23-2.39l-3.24-3.2c-.99,1.07-1.84,1.51-3.09,1.51-1.14,0-2.02-.4-2.72-1.25-.74-.92-1.07-2.24-1.07-4.27s.33-3.31,1.07-4.23c.7-.85,1.58-1.25,2.72-1.25,1.25,0,2.1,.44,3.09,1.51l3.24-3.23c-1.69-1.77-3.68-2.57-6.33-2.57-3.83,0-8.56,2.02-8.56,9.78s4.74,9.82,8.56,9.82c2.65,0,4.63-.85,6.33-2.61m-24.01-7.21c0,1.99-.11,3.68-1.11,4.67-.55,.55-1.29,.85-2.24,.85s-1.66-.29-2.21-.85c-.99-.99-1.1-2.69-1.1-4.67s.11-3.64,1.1-4.64c.55-.55,1.25-.85,2.21-.85s1.69,.29,2.24,.85c1,.99,1.11,2.65,1.11,4.64m4.78,0c0-3.46-.44-5.63-2.17-7.43-1.18-1.25-3.13-2.35-5.96-2.35s-4.75,1.1-5.92,2.35c-1.73,1.8-2.17,3.97-2.17,7.43s.44,5.67,2.17,7.47c1.17,1.25,3.09,2.35,5.92,2.35s4.78-1.1,5.96-2.35c1.73-1.8,2.17-3.97,2.17-7.47m-21.88,9.6V14.77h-5.11v10.7h-8.87V14.77h-5.11v26.18h5.11v-10.96h8.87v10.96h5.11Z"/></g><polygon class="f" points="17.85 70.4 31.12 70.4 24.48 63.76 17.85 70.4"/><polygon class="f" points="17.85 96.79 31.12 96.79 24.48 90.16 17.85 96.79"/><polygon class="f" points="17.85 83.59 31.12 83.59 24.48 76.96 17.85 83.59"/><rect class="g" x="4.44" y="205.09" width="421.81" height="40.1"/><g class="k"><path class="h" d="M238.65,161.8v-3.82h-9.89v4.26h4.82v.99c0,1.44-.4,2.61-1.18,3.5-.92,1-2.13,1.47-3.64,1.47-1.4,0-2.5-.44-3.28-1.36-1.03-1.21-1.25-2.24-1.25-7.39s.29-6.14,1.25-7.36c.81-.92,1.91-1.4,3.28-1.4,2.54,0,4.08,1.29,4.71,3.83h5.15c-.7-4.56-3.9-8.38-9.85-8.38-2.8,0-5.15,.95-7.06,2.87-1.14,1.14-1.84,2.42-2.13,3.94-.29,1.47-.44,3.64-.44,6.51s.15,5.04,.44,6.51c.29,1.47,.99,2.8,2.13,3.94,1.91,1.91,4.26,2.87,7.06,2.87,2.94,0,5.37-.92,7.39-2.98,1.8-1.91,2.5-4.16,2.5-7.98m-30.08-7.87c0,1.8-1.22,3.02-3.39,3.02h-5.01v-6.04h5.01c2.17,0,3.39,1.21,3.39,3.02m.37,10.81c0,1.77-1.11,3.24-3.42,3.24h-5.34v-6.44h5.34c2.32,0,3.42,1.43,3.42,3.2m5.11,.26c0-3.5-2.02-5.15-3.6-5.89,1.32-.63,3.23-2.5,3.23-5.41,0-4.49-2.98-7.35-8.09-7.35h-10.52v26.18h10.96c4.67,0,8.02-2.65,8.02-7.54"/><path class="f" d="M337.43,233.34v-18.12h-2.52l-8.1,13.14v-13.14h-2.75v18.12h2.49l8.13-13.16v13.16h2.75Zm-19.86,0v-18.12h-2.77v7.77h-7.34v-7.77h-2.75v18.12h2.75v-7.92h7.34v7.92h2.77Zm-19.38,0v-18.12h-2.52l-8.1,13.14v-13.14h-2.75v18.12h2.49l8.13-13.16v13.16h2.75Zm-30.96-18.12v5.34c0,4.3-.64,7.87-2.22,10.32h-1.58v6.54h2.67v-4.07h11v4.07h2.7v-6.54h-2.14v-15.66h-10.44Zm2.65,2.46h5.04v13.2h-6.82c1.35-2.55,1.78-5.68,1.78-9.14v-4.05Zm-12.78,6.42c0,3.08,0,4.69-1.07,5.81-.69,.74-1.63,1.12-2.7,1.12s-1.96-.38-2.7-1.12c-.97-.97-1.04-2.67-1.04-4.53v-1.55c0-2.32,.03-4.1,1.04-5.17,.71-.74,1.68-1.12,2.7-1.12s1.99,.38,2.7,1.12c1.02,1.07,1.07,2.7,1.07,5.45m2.77-1.09c0-2.57-.36-4.58-1.75-6.01-1.25-1.25-2.9-1.93-4.79-1.93s-3.52,.68-4.76,1.93c-1.53,1.53-1.76,3.46-1.76,6.44v1.2c0,2.7,.03,5.17,1.76,6.93,1.24,1.27,2.87,1.93,4.76,1.93s3.54-.66,4.79-1.93c1.73-1.78,1.75-4.05,1.75-7.03v-1.53Zm-16.53-5.32v-2.46h-11.15v18.12h2.75v-15.66h8.4Zm-23.25-4.35h-2.5l-7.26,21.89h2.5l7.26-21.89Zm-20.96,20.01v-2.46h-8.84v-5.45h7.54v-2.44h-7.54v-5.3h8.84v-2.46h-11.58v18.12h11.58Zm-20.39-12.81c0,1.78-1.25,2.83-3.08,2.83h-4.07v-5.68h4.07c1.83,0,3.08,1.07,3.08,2.85m3.31,12.81l-4.17-8.02c2.03-.56,3.61-2.22,3.61-4.81,0-3.08-2.19-5.29-5.63-5.29h-7.03v18.12h2.75v-7.64h3.44l3.82,7.64h3.21Zm-19.99,0v-18.12h-2.75v7.74h-7.36v-7.74h-2.75v18.12h2.75v-7.92h7.36v7.92h2.75Zm-22.41-5.98h-5.58l2.83-8.05,2.75,8.05Zm4.94,5.98l-6.65-18.12h-2.22l-6.65,18.12h2.93l1.25-3.64h7.16l1.25,3.64h2.93Zm-19.61-5.72v-12.4h-2.75v12.2c0,2.37-1.25,3.62-3.28,3.62-1.32,0-1.94-.46-2.57-1.09l-1.83,1.81c1.25,1.25,2.55,1.75,4.41,1.75,3.34,0,6.03-2.11,6.03-5.88m-21.98,.63c0-2.24-.99-3.59-2.54-4.28,1.4-.69,2.26-1.94,2.26-3.87,0-3-2.19-5.06-5.27-5.06-2.9,0-5.17,1.86-5.32,4.94h2.6c.13-1.6,1.15-2.6,2.72-2.6,1.48,0,2.67,.97,2.67,2.8,0,1.66-.87,2.75-2.75,2.75h-.43v2.26h.43c2.04,0,3.03,1.15,3.03,2.98s-1.27,3.01-2.95,3.01c-1.5,0-2.85-.82-2.95-2.75h-2.6c.1,3.54,2.65,5.09,5.55,5.09s5.55-1.78,5.55-5.27"/><path class="h" d="M427.95,245.8H4.44V113.24H427.95V245.8Zm-421.82-1.7H426.26V114.94H6.13V244.11Z"/></g><polygon class="f" points="17.85 107.96 31.12 107.96 24.48 101.32 17.85 107.96"/><polygon class="f" points="17.85 257.67 31.12 257.67 24.48 251.03 17.85 257.67"/></svg>