<?xml version="1.0" encoding="utf-8"?>
<!-- Generator: Adobe Illustrator 26.2.1, SVG Export Plug-In . SVG Version: 6.00 Build 0)  -->
<svg version="1.1" id="Ebene_1" xmlns="http://www.w3.org/2000/svg" xmlns:xlink="http://www.w3.org/1999/xlink" x="0px" y="0px"
	 viewBox="0 0 512 512" style="enable-background:new 0 0 512 512;" xml:space="preserve">
<style type="text/css">
	.st0{fill:#6EC3BF;}
	.st1{fill:#A0D5D2;}
	.st2{fill:#87CCC8;}
	.st3{fill:#FFFFFF;}
	.st4{clip-path:url(#SVGID_00000104702666628493315800000000514452158745643957_);fill:#2B2961;}
	.st5{fill:#897DA2;}
	.st6{fill:#2B2961;}
	.st7{clip-path:url(#SVGID_00000103225791556886878030000004293252611078922126_);fill:#FFFFFF;}
	.st8{clip-path:url(#SVGID_00000103225791556886878030000004293252611078922126_);fill:#2B2961;}
	.st9{clip-path:url(#SVGID_00000063601147669986263670000004421908565958853820_);fill:#FFFFFF;}
	.st10{clip-path:url(#SVGID_00000063601147669986263670000004421908565958853820_);fill:#6EC3BF;}
	.st11{fill:#9D9D9C;}
	.st12{fill:#D0D0D0;}
	.st13{clip-path:url(#SVGID_00000132772895655351195800000009460521443166906043_);fill:#FFFFFF;}
	.st14{clip-path:url(#SVGID_00000145756559079440516570000016541982639501469867_);fill:#2B2961;}
	.st15{clip-path:url(#SVGID_00000145756559079440516570000016541982639501469867_);fill:#FFFFFF;}
	.st16{fill:#97D1CE;}
	.st17{clip-path:url(#SVGID_00000011021033062172401640000018051317938844475545_);fill:#2B2961;}
	.st18{clip-path:url(#SVGID_00000008845498042755493860000005152944367098621340_);fill:#2B2961;}
	.st19{clip-path:url(#SVGID_00000027593519453596130430000008990233322830867086_);fill:#FFFFFF;}
	.st20{clip-path:url(#SVGID_00000027593519453596130430000008990233322830867086_);fill:#2B2961;}
	.st21{clip-path:url(#SVGID_00000175294926167613008880000010233426278394303370_);fill:#2B2961;}
	.st22{clip-path:url(#SVGID_00000152952501312645160900000016035380305473528218_);fill:#2B2961;}
	.st23{clip-path:url(#SVGID_00000152952501312645160900000016035380305473528218_);fill:#FFFFFF;}
	.st24{clip-path:url(#SVGID_00000121251529730155026220000007009071058306209685_);fill:#FFFFFF;}
	.st25{clip-path:url(#SVGID_00000175299876560457739040000013569741482708000388_);fill:#6EC3BF;}
	.st26{clip-path:url(#SVGID_00000162330634242213264670000009402104017795459201_);fill:#2B2961;}
	.st27{clip-path:url(#SVGID_00000162330634242213264670000009402104017795459201_);fill:#1D1D1B;}
	.st28{clip-path:url(#SVGID_00000162330634242213264670000009402104017795459201_);fill:#FFFFFF;}
	.st29{clip-path:url(#SVGID_00000129922646003088990070000000054570495387363495_);fill:#2B2961;}
	.st30{clip-path:url(#SVGID_00000170975993883054949400000004354146447374726324_);fill:#2B2961;}
	.st31{clip-path:url(#SVGID_00000170975993883054949400000004354146447374726324_);fill:#FFFFFF;}
	.st32{clip-path:url(#SVGID_00000131342585202364363610000000957653062936748172_);fill:#2B2961;}
	.st33{clip-path:url(#SVGID_00000000180273130294569250000014013089393410186677_);fill:#2B2961;}
	.st34{clip-path:url(#SVGID_00000000180273130294569250000014013089393410186677_);fill:#6EC3BF;}
	.st35{clip-path:url(#SVGID_00000009561347832208227980000005907236685071070336_);fill:#2B2961;}
	.st36{clip-path:url(#SVGID_00000154419155432328008250000009429022378340878766_);fill:#2B2961;}
	.st37{clip-path:url(#SVGID_00000096038884408483686720000006786602674435137163_);fill:#2B2961;}
	.st38{clip-path:url(#SVGID_00000044171292694536977440000015694391210191367810_);fill:#2B2961;}
	.st39{clip-path:url(#SVGID_00000034802596098250119730000004142069300292632484_);fill:#6EC3BF;}
	.st40{clip-path:url(#SVGID_00000148625705963912948260000008223772265634567087_);fill:#6EC3BF;}
	.st41{clip-path:url(#SVGID_00000008145532871175021790000009155592967891111357_);fill:#6EC3BF;}
	.st42{clip-path:url(#SVGID_00000129203413333575704970000017770671965336983705_);fill:#6EC3BF;}
	.st43{clip-path:url(#SVGID_00000159441210845501585840000005100355545627646361_);fill:#2B2961;}
	.st44{clip-path:url(#SVGID_00000139254143646732073960000002340461836710205603_);fill:#2B2961;}
	.st45{clip-path:url(#SVGID_00000144321897374719102680000000311283713245808775_);fill:#2B2961;}
	.st46{clip-path:url(#SVGID_00000018224362228243863180000014277036969387846537_);fill:#2B2961;}
	.st47{clip-path:url(#SVGID_00000018224362228243863180000014277036969387846537_);fill:#FFFFFF;}
	.st48{clip-path:url(#SVGID_00000139988464099843981630000006773990174765794723_);fill:#FFFFFF;}
	.st49{clip-path:url(#SVGID_00000156556661995714624780000015045768832018900909_);fill:#2B2961;}
	.st50{clip-path:url(#SVGID_00000088829368613810070250000003351996659715565484_);fill:#2B2961;}
	.st51{clip-path:url(#SVGID_00000088829368613810070250000003351996659715565484_);fill:#FFFFFF;}
	.st52{clip-path:url(#SVGID_00000171717603626248987700000000212378314212478877_);fill:#2B2961;}
	.st53{clip-path:url(#SVGID_00000171717603626248987700000000212378314212478877_);fill:#2C265F;}
	.st54{clip-path:url(#SVGID_00000054968712347815412190000006873956920774495423_);fill:#FFFFFF;}
	.st55{clip-path:url(#SVGID_00000108278131113378573210000001226815201165093287_);fill:#2B2961;}
	.st56{clip-path:url(#SVGID_00000108277912438702720360000005300992775421256623_);fill:#FFFFFF;}
	.st57{clip-path:url(#SVGID_00000101091951740936300270000011679558968794268839_);fill:#2B2961;}
	.st58{clip-path:url(#SVGID_00000027580758409162103590000000912680850168765331_);fill:#FFFFFF;}
	.st59{clip-path:url(#SVGID_00000176734627153822078510000007690478351645362338_);fill:#2B2961;}
	.st60{clip-path:url(#SVGID_00000176734627153822078510000007690478351645362338_);fill:#FFFFFF;}
	.st61{clip-path:url(#SVGID_00000088118312968046109640000000948345568265608895_);fill:#2B2961;}
	.st62{clip-path:url(#SVGID_00000129921741279431056140000001183618361490258623_);fill:#FFFFFF;}
	.st63{clip-path:url(#SVGID_00000161627839847634347060000008300493377099791745_);fill:#2B2961;}
	.st64{clip-path:url(#SVGID_00000089549542956754087380000016222571624169632400_);fill:#FFFFFF;}
	.st65{clip-path:url(#SVGID_00000089549542956754087380000016222571624169632400_);fill:#2B2961;}
	.st66{clip-path:url(#SVGID_00000114777620198685012720000002844933490179980932_);fill:#2B2961;}
	.st67{clip-path:url(#SVGID_00000114777620198685012720000002844933490179980932_);fill:#6EC3BF;}
	.st68{clip-path:url(#SVGID_00000114777620198685012720000002844933490179980932_);fill:#FFFFFF;}
	.st69{clip-path:url(#SVGID_00000085946709232816274610000016284515055866851997_);fill:#2B2961;}
	.st70{clip-path:url(#SVGID_00000033347733257696287730000017532685450788751537_);fill:#2B2961;}
	.st71{clip-path:url(#SVGID_00000121978702770057714900000016279040031477968048_);fill:#2B2961;}
	.st72{clip-path:url(#SVGID_00000163765855147316115670000015025494016511020985_);fill:#2B2961;}
	.st73{clip-path:url(#SVGID_00000021117500072565614890000011960176194751209381_);fill:#2B2961;}
	.st74{clip-path:url(#SVGID_00000029038263445858719330000017212821830773167264_);fill:#FFFFFF;}
	.st75{clip-path:url(#SVGID_00000029038263445858719330000017212821830773167264_);fill:#6EC3BF;}
	.st76{clip-path:url(#SVGID_00000141443980468881431290000012294606021202869123_);fill:#2B2961;}
	.st77{clip-path:url(#SVGID_00000182507651434896411170000001325863456689507220_);fill:#2B2961;}
	.st78{clip-path:url(#SVGID_00000182507651434896411170000001325863456689507220_);fill:#FFFFFF;}
	.st79{clip-path:url(#SVGID_00000003102046339719545930000014081098350811354767_);fill:#2B2961;}
	.st80{clip-path:url(#SVGID_00000168825555468408406550000004806589682291678872_);fill:#FFFFFF;}
	.st81{clip-path:url(#SVGID_00000160188705662793989190000003678589586510820536_);fill:#2B2961;}
	.st82{clip-path:url(#SVGID_00000022550025533232139460000012466407563478295716_);fill:#2B2961;}
	.st83{clip-path:url(#SVGID_00000069393529330330373720000002811387756455949987_);fill:#2B2961;}
	.st84{clip-path:url(#SVGID_00000176018640656555609340000003316493001129970602_);fill:#FFFFFF;}
	.st85{clip-path:url(#SVGID_00000176020224338680914340000005803626401622913925_);fill:#FFFFFF;}
	.st86{clip-path:url(#SVGID_00000031186898751103295100000015831077625742124451_);fill:#2B2961;}
	.st87{clip-path:url(#SVGID_00000153682173954969124570000011931238323987211170_);fill:#2B2961;}
	.st88{clip-path:url(#SVGID_00000153682173954969124570000011931238323987211170_);fill:#FFFFFF;}
	.st89{clip-path:url(#SVGID_00000131327545480685691730000002768885924126255759_);fill:#2B2961;}
	.st90{clip-path:url(#SVGID_00000088132172210235197760000010621827651429927576_);fill:#FFFFFF;}
	.st91{clip-path:url(#SVGID_00000181085583720236861430000004716451562828920715_);fill:#6EC3BF;}
	.st92{clip-path:url(#SVGID_00000181085583720236861430000004716451562828920715_);fill:#2B2961;}
	.st93{clip-path:url(#SVGID_00000163066849909376775830000004402094624931563906_);fill:#6EC3BF;}
	.st94{clip-path:url(#SVGID_00000169532888160967176750000018011753860954374536_);fill:#2B2961;}
	.st95{clip-path:url(#SVGID_00000125565288794570599580000017859585653105967001_);fill:#2B2961;}
	.st96{clip-path:url(#SVGID_00000066498031884418052310000014099887158335926968_);fill:#2B2961;}
	.st97{clip-path:url(#SVGID_00000147178001867403150460000008567619766583460013_);fill:#2B2961;}
	.st98{clip-path:url(#SVGID_00000067957572402004437170000006429213705823715224_);fill:#2B2961;}
	.st99{clip-path:url(#SVGID_00000067957572402004437170000006429213705823715224_);fill:#6EC3BF;}
	.st100{clip-path:url(#SVGID_00000048479574832841949610000009022270443294959260_);fill:#2B2961;}
	.st101{clip-path:url(#SVGID_00000087412468386494601730000005209910344190178457_);fill:#2B2961;}
	.st102{clip-path:url(#SVGID_00000087412468386494601730000005209910344190178457_);fill:#6EC3BF;}
	.st103{clip-path:url(#SVGID_00000054234405764006524150000008465350565152065676_);fill:#2B2961;}
	.st104{clip-path:url(#SVGID_00000033351018929692381930000012745132359187478185_);fill:#FFFFFF;}
	.st105{clip-path:url(#SVGID_00000033351018929692381930000012745132359187478185_);fill:#2B2961;}
	.st106{clip-path:url(#SVGID_00000150085681633436682750000017584503602912857766_);fill:#6EC3BF;}
	.st107{clip-path:url(#SVGID_00000077310822040574956600000006362353937438669184_);fill:#2B2961;}
	.st108{clip-path:url(#SVGID_00000106867473106702884890000011523145529613989304_);fill:#2B2961;}
	.st109{clip-path:url(#SVGID_00000106867473106702884890000011523145529613989304_);fill:#FFFFFF;}
	.st110{clip-path:url(#SVGID_00000049204598320399216770000001689736138327085223_);fill:#6EC3BF;}
	.st111{clip-path:url(#SVGID_00000085224001694018210660000015878071261837277071_);fill:#2B2961;}
	.st112{clip-path:url(#SVGID_00000005247225203236000690000003163284305602484097_);fill:#2B2961;}
	.st113{clip-path:url(#SVGID_00000005247225203236000690000003163284305602484097_);fill:#6EC3BF;}
	.st114{clip-path:url(#SVGID_00000064337869704527804980000002689234405899724446_);fill:#2B2961;}
	.st115{clip-path:url(#SVGID_00000052793560449435575650000014958228483507386012_);fill:#6EC3BF;}
	.st116{clip-path:url(#SVGID_00000052793560449435575650000014958228483507386012_);fill:#2B2961;}
	.st117{clip-path:url(#SVGID_00000175285676644868210620000017888975821800397995_);fill:#2B2961;}
	.st118{clip-path:url(#SVGID_00000127043640435684470660000002259512277129286834_);fill:#FFFFFF;}
	.st119{clip-path:url(#SVGID_00000127043640435684470660000002259512277129286834_);}
	.st120{clip-path:url(#SVGID_00000018198102230925051240000008754635708074446725_);fill:#2B2961;}
	.st121{clip-path:url(#SVGID_00000127043640435684470660000002259512277129286834_);fill:#6EC3BF;}
	.st122{clip-path:url(#SVGID_00000034077000677539833050000013586672026215842688_);fill:#2B2961;}
	.st123{clip-path:url(#SVGID_00000127043640435684470660000002259512277129286834_);fill:#2B2961;}
	.st124{clip-path:url(#SVGID_00000143614210451728643310000000537552482799835823_);fill:#2B2961;}
	.st125{clip-path:url(#SVGID_00000013167123156358774730000003645058534705238177_);fill:#2B2961;}
	.st126{clip-path:url(#SVGID_00000103953305388426884290000012892464982390897794_);}
	.st127{clip-path:url(#SVGID_00000034064472942494809600000002727791569202811786_);}
	.st128{clip-path:url(#SVGID_00000168097339530191292050000014054161124348233615_);fill:#FFFFFF;}
	.st129{clip-path:url(#SVGID_00000124152250414458705380000007641945114857456055_);fill:#2B2961;}
	.st130{clip-path:url(#SVGID_00000173118870645436599710000011968649089232528310_);fill:#2B2961;}
	.st131{clip-path:url(#SVGID_00000173118870645436599710000011968649089232528310_);fill:#6EC3BF;}
	.st132{clip-path:url(#SVGID_00000173118870645436599710000011968649089232528310_);fill:#FFFFFF;}
	.st133{clip-path:url(#SVGID_00000034772654809316358120000015795493901005178246_);fill:#2B2961;}
	.st134{clip-path:url(#SVGID_00000034772654809316358120000015795493901005178246_);fill:#6EC3BF;}
	.st135{clip-path:url(#SVGID_00000157303979599803064250000016496679142205170843_);fill:#2B2961;}
	.st136{clip-path:url(#SVGID_00000141449217948719698100000017567270723556406964_);fill:#6EC3BF;}
	.st137{clip-path:url(#SVGID_00000141449217948719698100000017567270723556406964_);fill:#FFFFFF;}
	.st138{clip-path:url(#SVGID_00000121274329026382223960000006677864299677118390_);fill:#2B2961;}
	.st139{clip-path:url(#SVGID_00000121274329026382223960000006677864299677118390_);fill:#6EC3BF;}
	.st140{clip-path:url(#SVGID_00000032642844966281343890000012410865948878178183_);fill:#2B2961;}
	.st141{clip-path:url(#SVGID_00000092452845168356922880000012434900800273482892_);fill:#2B2961;}
	.st142{clip-path:url(#SVGID_00000092452845168356922880000012434900800273482892_);fill:#FFFFFF;}
	.st143{clip-path:url(#SVGID_00000181062904175468765420000017176986944487966880_);fill:#2B2961;}
	.st144{clip-path:url(#SVGID_00000139267079460904998090000017828397345247425176_);fill:#FFFFFF;}
	.st145{clip-path:url(#SVGID_00000078014805788751535730000011785020323874442655_);fill:#2B2961;}
	.st146{clip-path:url(#SVGID_00000047027483297160447450000018072595924460858276_);fill:#2B2961;}
	.st147{clip-path:url(#SVGID_00000047027483297160447450000018072595924460858276_);fill:#FFFFFF;}
	.st148{clip-path:url(#SVGID_00000145772279888068045230000004521217266014261425_);fill:#2B2961;}
	.st149{clip-path:url(#SVGID_00000169547797522569092780000007073536270696545435_);fill:#2B2961;}
	.st150{clip-path:url(#SVGID_00000169547797522569092780000007073536270696545435_);fill:#FFFFFF;}
	.st151{clip-path:url(#SVGID_00000054240871705624734730000003138365320532654768_);fill:#2B2961;}
	.st152{clip-path:url(#SVGID_00000054240871705624734730000003138365320532654768_);fill:#6EC3BF;}
	.st153{clip-path:url(#SVGID_00000170992181594443384190000008158784812561411995_);fill:#1D1D1B;}
	.st154{clip-path:url(#SVGID_00000170992181594443384190000008158784812561411995_);fill:#2B2961;}
	.st155{clip-path:url(#SVGID_00000170992181594443384190000008158784812561411995_);fill:#FFFFFF;}
	.st156{clip-path:url(#SVGID_00000070083711853454742520000000077246458666870670_);fill:#2B2961;}
	.st157{clip-path:url(#SVGID_00000175295191342194870260000004478640681075150985_);fill:#2B2961;}
	.st158{clip-path:url(#SVGID_00000021817690745680356680000014821865562560645781_);fill:#2B2961;}
	.st159{clip-path:url(#SVGID_00000021817690745680356680000014821865562560645781_);fill:#FFFFFF;}
	.st160{clip-path:url(#SVGID_00000021817690745680356680000014821865562560645781_);fill:#6EC3BF;}
	.st161{clip-path:url(#SVGID_00000129169332263886379940000002418351652866963373_);fill:#2B2961;}
	.st162{clip-path:url(#SVGID_00000029756557390330769960000006636346019174027172_);fill:#2B2961;}
	.st163{clip-path:url(#SVGID_00000141458062986913382070000004872460653525534641_);fill:#2B2961;}
	.st164{clip-path:url(#SVGID_00000029768181682652688050000005244090926095085471_);fill:#2B2961;}
	.st165{clip-path:url(#SVGID_00000029768181682652688050000005244090926095085471_);fill:#FFFFFF;}
	.st166{clip-path:url(#SVGID_00000028284261645803767080000017900735977251207592_);fill:#2B2961;}
	.st167{clip-path:url(#SVGID_00000028284261645803767080000017900735977251207592_);fill:#FFFFFF;}
	.st168{clip-path:url(#SVGID_00000053523151185973427960000007738569458259550362_);fill:#2B2961;}
	.st169{clip-path:url(#SVGID_00000124145577285381428990000012631103147702548155_);fill:#2B2961;}
	.st170{clip-path:url(#SVGID_00000124145577285381428990000012631103147702548155_);fill:#FFFFFF;}
	.st171{clip-path:url(#SVGID_00000179616527572617976230000013211578829102656128_);fill:#2B2961;}
	.st172{clip-path:url(#SVGID_00000171709974127045829660000012533414280372942254_);fill:#FFFFFF;}
	.st173{clip-path:url(#SVGID_00000070087248811992530270000018377626791259507612_);fill:#2B2961;}
	.st174{clip-path:url(#SVGID_00000070087248811992530270000018377626791259507612_);fill:#6EC3BF;}
	.st175{clip-path:url(#SVGID_00000083784832653613865130000002056396224885777059_);fill:#2B2961;}
	.st176{clip-path:url(#SVGID_00000134215289699779401790000003758547188726140290_);fill:#2B2961;}
	.st177{clip-path:url(#SVGID_00000074407962719892211910000005680826821425555128_);fill:#FFFFFF;}
	.st178{clip-path:url(#SVGID_00000121275159601269023600000010087770446315191936_);fill:#6EC3BF;}
	.st179{clip-path:url(#SVGID_00000121275159601269023600000010087770446315191936_);fill:#2B2961;}
	.st180{clip-path:url(#SVGID_00000071532781183417014240000013877510262804899764_);fill:#6EC3BF;}
	.st181{clip-path:url(#SVGID_00000089545948957206640140000006791797010345812869_);fill:#2B2961;}
	.st182{clip-path:url(#SVGID_00000044155048995510275720000003354925467405753017_);fill:#6EC3BF;}
	.st183{clip-path:url(#SVGID_00000044155048995510275720000003354925467405753017_);fill:#2B2961;}
	.st184{clip-path:url(#SVGID_00000015314376245514914060000004493004933891124147_);fill:#2B2961;}
	.st185{clip-path:url(#SVGID_00000060750821803840099060000014738084776181391036_);fill:#2B2961;}
	.st186{clip-path:url(#SVGID_00000137837335549184207670000011466727163691653540_);fill:#2B2961;}
	.st187{clip-path:url(#SVGID_00000114059575465608475310000002695780130236462735_);fill:#2B2961;}
	.st188{clip-path:url(#SVGID_00000079486876752090930500000003254433063751019166_);fill:#2B2961;}
	.st189{clip-path:url(#SVGID_00000168815729153581258040000012677846148448061854_);fill:#6EC3BF;}
	.st190{clip-path:url(#SVGID_00000168815729153581258040000012677846148448061854_);fill:#2B2961;}
	.st191{clip-path:url(#SVGID_00000152222142811145394500000018367646640125022128_);fill:#6EC3BF;}
	.st192{clip-path:url(#SVGID_00000152222142811145394500000018367646640125022128_);fill:#2B2961;}
	.st193{clip-path:url(#SVGID_00000077319522559697734860000007844467338850200983_);fill:#2B2961;}
	.st194{clip-path:url(#SVGID_00000176763255529470535740000003098996424090658743_);fill:#2B2961;}
	.st195{clip-path:url(#SVGID_00000120526010584909814970000011779870275029277859_);fill:#2B2961;}
	.st196{clip-path:url(#SVGID_00000090991430983245763800000013116815240509783728_);fill:#FFFFFF;}
	.st197{clip-path:url(#SVGID_00000121975776411593911590000002106573881810426295_);fill:#2B2961;}
	.st198{clip-path:url(#SVGID_00000047751681426559649210000002152990626385940142_);fill:#2B2961;}
	.st199{clip-path:url(#SVGID_00000047751681426559649210000002152990626385940142_);fill:#6EC3BF;}
	.st200{clip-path:url(#SVGID_00000056415426173675578910000006301284430879454377_);fill:#2B2961;}
	.st201{clip-path:url(#SVGID_00000041271771145010373320000014592576211109559997_);fill:#2B2961;}
	.st202{clip-path:url(#SVGID_00000016068987182877903650000011112126913749852323_);fill:#6EC3BF;}
	.st203{clip-path:url(#SVGID_00000016068987182877903650000011112126913749852323_);fill:#2B2961;}
	.st204{clip-path:url(#SVGID_00000055685254768682393690000005614163691227536285_);fill:#6EC3BF;}
	.st205{clip-path:url(#SVGID_00000055685254768682393690000005614163691227536285_);fill:#2B2961;}
	.st206{clip-path:url(#SVGID_00000164483358072209643960000008824519510372881062_);fill:#2B2961;}
	.st207{clip-path:url(#SVGID_00000093892238643283612570000016140398855781850759_);fill:#2B2961;}
	.st208{clip-path:url(#SVGID_00000093892238643283612570000016140398855781850759_);fill:#6EC3BF;}
	.st209{clip-path:url(#SVGID_00000052782611388245196080000004008808590049363620_);fill:#2B2961;}
	.st210{clip-path:url(#SVGID_00000052782611388245196080000004008808590049363620_);fill:#6EC3BF;}
	.st211{clip-path:url(#SVGID_00000139266956524784725330000007807697138625778818_);fill:#2B2961;}
	.st212{clip-path:url(#SVGID_00000139266956524784725330000007807697138625778818_);fill:#6EC3BF;}
	.st213{clip-path:url(#SVGID_00000143597479055599583860000006826645340080254864_);fill:#2B2961;}
	.st214{clip-path:url(#SVGID_00000038399154467067496430000010062942155257122693_);fill:#6EC3BF;}
	.st215{clip-path:url(#SVGID_00000038399154467067496430000010062942155257122693_);fill:#2B2961;}
	.st216{clip-path:url(#SVGID_00000168832133818679699550000001132262133120982702_);fill:#6EC3BF;}
	.st217{clip-path:url(#SVGID_00000168832133818679699550000001132262133120982702_);fill:#2B2961;}
	.st218{clip-path:url(#SVGID_00000091709420063618660490000009032536148589027466_);fill:#FFFFFF;}
	.st219{clip-path:url(#SVGID_00000091709420063618660490000009032536148589027466_);fill:#2B2961;}
	.st220{clip-path:url(#SVGID_00000132799154736122287160000008606003964372935858_);fill:#FFFFFF;}
	.st221{clip-path:url(#SVGID_00000132799154736122287160000008606003964372935858_);fill:#2B2961;}
	.st222{clip-path:url(#SVGID_00000126291681823226412200000002596083353105012663_);fill:#FFFFFF;}
	.st223{clip-path:url(#SVGID_00000126291681823226412200000002596083353105012663_);fill:#2B2961;}
	.st224{clip-path:url(#SVGID_00000145016369843502761270000004593518263364431770_);fill:#6EC3BF;}
	.st225{clip-path:url(#SVGID_00000145016369843502761270000004593518263364431770_);fill:#2B2961;}
	.st226{clip-path:url(#SVGID_00000000211566777480223370000006095300148376687759_);fill:#2B2961;}
	.st227{clip-path:url(#SVGID_00000000211566777480223370000006095300148376687759_);fill:#6EC3BF;}
	.st228{clip-path:url(#SVGID_00000121265603312550075230000016096016997383890066_);fill:#2B2961;}
	.st229{clip-path:url(#SVGID_00000160178853760615744700000007572563175755844501_);fill:#6EC3BF;}
	.st230{clip-path:url(#SVGID_00000160178853760615744700000007572563175755844501_);fill:#2B2961;}
	.st231{clip-path:url(#SVGID_00000044882167502211259990000000996924418491521970_);fill:#2B2961;}
	.st232{clip-path:url(#SVGID_00000079475107746443901490000009248856387231526054_);fill:#2B2961;}
	.st233{clip-path:url(#SVGID_00000079475107746443901490000009248856387231526054_);fill:#6EC3BF;}
	.st234{clip-path:url(#SVGID_00000158013215991645152400000005312691917056988553_);fill:#2B2961;}
	.st235{clip-path:url(#SVGID_00000049182277239313120500000007765863526538215871_);fill:#FFFFFF;}
	.st236{clip-path:url(#SVGID_00000049182277239313120500000007765863526538215871_);fill:#2B2961;}
	.st237{fill:#2C265F;}
	.st238{clip-path:url(#SVGID_00000183947786551981513760000002159640546971987111_);fill:#2B2961;}
	.st239{clip-path:url(#SVGID_00000183947786551981513760000002159640546971987111_);fill:#6EC3BF;}
	.st240{fill:#61B87A;}
	.st241{clip-path:url(#SVGID_00000083791340415092341340000005714703153004308614_);fill:#2B2961;}
	.st242{clip-path:url(#SVGID_00000002381636336149395490000013476119587469964702_);fill:#2B2961;}
	.st243{clip-path:url(#SVGID_00000012468314561693539260000002372497628800818585_);fill:#2B2961;}
	.st244{clip-path:url(#SVGID_00000073713903989576361410000007770798473101162422_);fill:#2B2961;}
	.st245{clip-path:url(#SVGID_00000073713903989576361410000007770798473101162422_);fill:#61B87A;}
	.st246{clip-path:url(#SVGID_00000073713903989576361410000007770798473101162422_);fill:#FFFFFF;}
	.st247{clip-path:url(#SVGID_00000097490932325873857630000014070035222971809159_);fill:#2B2961;}
	.st248{clip-path:url(#SVGID_00000097490932325873857630000014070035222971809159_);fill:#61B87A;}
	.st249{clip-path:url(#SVGID_00000108267544288868966920000008875954347380723391_);fill:#2B2961;}
	.st250{clip-path:url(#SVGID_00000004544505223492198420000013246325451150546337_);fill:#6EC3BF;}
	.st251{clip-path:url(#SVGID_00000004544505223492198420000013246325451150546337_);fill:#2B2961;}
	.st252{clip-path:url(#SVGID_00000118396528420206429250000015388466039909153175_);fill:#2B2961;}
	.st253{clip-path:url(#SVGID_00000118396528420206429250000015388466039909153175_);fill:#6EC3BF;}
	.st254{clip-path:url(#SVGID_00000047047851977961600600000010972647845692598968_);fill:#2B2961;}
	.st255{clip-path:url(#SVGID_00000047047851977961600600000010972647845692598968_);fill:#6EC3BF;}
</style>
<g>
	<rect x="3.46" y="284.97" class="st2" width="48.02" height="201.55"/>
	<rect x="3.46" y="80.42" class="st2" width="48.02" height="81.7"/>
	<rect x="3.46" y="269.67" class="st2" width="505.13" height="48.02"/>
	<g>
		<defs>
			<rect id="SVGID_00000136411883592249343810000014609603560409942174_" x="-27.03" y="24.08" width="566.06" height="463.85"/>
		</defs>
		<clipPath id="SVGID_00000091716284912526062820000007519840981272017280_">
			<use xlink:href="#SVGID_00000136411883592249343810000014609603560409942174_"  style="overflow:visible;"/>
		</clipPath>
		<path style="clip-path:url(#SVGID_00000091716284912526062820000007519840981272017280_);fill:#2B2961;" d="M314.35,208.93
			c0,2.43-1.76,4.14-4.45,4.14h-5.77v-8.29h5.77C312.59,204.79,314.35,206.51,314.35,208.93 M321.75,230.69l-7-13.52
			c3.04-1.1,5.72-3.83,5.72-8.24c0-5.24-3.78-9.6-10.17-9.6h-12.29v31.35h6.12v-12.51h4.41l6.12,12.51H321.75z M290.88,215.45
			h-13.57v5.32h13.57V215.45z M264.67,208.4c0,2.16-1.46,3.62-4.06,3.62h-5.99v-7.23h5.99C263.22,204.79,264.67,206.24,264.67,208.4
			 M265.11,221.35c0,2.12-1.32,3.88-4.1,3.88h-6.39v-7.71h6.39C263.79,217.52,265.11,219.24,265.11,221.35 M271.23,221.66
			c0-4.19-2.42-6.17-4.31-7.05c1.59-0.75,3.87-2.99,3.87-6.47c0-5.37-3.56-8.81-9.69-8.81h-12.59v31.35h13.12
			C267.22,230.69,271.23,227.52,271.23,221.66 M233.88,219.99h-7.8l3.96-11.41L233.88,219.99z M243.75,230.69l-11.45-31.35h-4.8
			l-11.41,31.35h6.39l1.89-5.55h11.14l1.85,5.55H243.75z M216.39,199.33h-6.39l-6.3,20.43l-6.3-20.43h-6.34l10.35,31.35H206
			L216.39,199.33z"/>
	</g>
	<rect x="4.48" y="25.09" class="st2" width="501.4" height="70.47"/>
	<g>
		<defs>
			<rect id="SVGID_00000005231587682632484730000009979630882283193484_" x="-27.03" y="24.08" width="566.06" height="463.85"/>
		</defs>
		<clipPath id="SVGID_00000142166588723871584230000015582696361778123402_">
			<use xlink:href="#SVGID_00000005231587682632484730000009979630882283193484_"  style="overflow:visible;"/>
		</clipPath>
		<path style="clip-path:url(#SVGID_00000142166588723871584230000015582696361778123402_);fill:#2B2961;" d="M506.9,96.58H3.46
			V24.08H506.9V96.58z M5.5,94.55h499.37V26.11H5.5V94.55z"/>
		<path style="clip-path:url(#SVGID_00000142166588723871584230000015582696361778123402_);fill:#FFFFFF;" d="M474.76,65.9
			c0-3.88-2.29-6.3-6.83-6.74l-3.61-0.36c-2.03-0.18-2.38-1.15-2.38-1.98c0-1.15,0.97-2.2,3.26-2.2c1.98,0,4.01,0.35,5.33,1.54
			l3.52-3.56c-2.2-2.07-5.2-2.68-8.77-2.68c-4.67,0-8.85,2.55-8.85,7.3c0,4.23,2.55,6.04,6.7,6.43l3.61,0.35
			c1.81,0.18,2.42,0.97,2.42,2.11c0,1.72-2.07,2.38-4.05,2.38c-1.76,0-4.23-0.26-6.12-2.16l-3.74,3.74c2.91,2.9,6.17,3.3,9.78,3.3
			C470.44,73.38,474.76,70.97,474.76,65.9 M452.07,65.9c0-3.88-2.29-6.3-6.83-6.74l-3.61-0.36c-2.03-0.18-2.38-1.15-2.38-1.98
			c0-1.15,0.97-2.2,3.26-2.2c1.98,0,4.01,0.35,5.33,1.54l3.52-3.56c-2.2-2.07-5.2-2.68-8.77-2.68c-4.67,0-8.85,2.55-8.85,7.3
			c0,4.23,2.55,6.04,6.7,6.43l3.61,0.35c1.81,0.18,2.42,0.97,2.42,2.11c0,1.72-2.07,2.38-4.05,2.38c-1.76,0-4.23-0.26-6.12-2.16
			l-3.74,3.74c2.91,2.9,6.17,3.3,9.78,3.3C447.76,73.38,452.07,70.97,452.07,65.9 M427.49,73.12V50.18h-5.72v13.87
			c0,3.13-2.03,4.18-3.83,4.18c-1.81,0-3.79-1.06-3.79-4.18V50.18h-5.72v14.67c0,2.51,0.48,4.67,2.33,6.52
			c1.27,1.27,3.12,2.02,5.41,2.02c2.12,0,4.23-0.79,5.73-2.38v2.11H427.49z M403.22,73.12v-4.84h-2.2c-1.45,0-2.03-0.7-2.03-2.07
			V41.77h-5.72v24.8c0,3.26,1.98,6.56,6.69,6.56H403.22z M386.44,73.12V58.28c0-4.84-2.64-8.36-7.66-8.36
			c-2.03,0-3.97,0.79-5.51,2.38V41.77h-5.72v31.35h5.72V59.11c0-3,1.89-4.05,3.7-4.05c1.81,0,3.75,1.01,3.75,4.05v14.01H386.44z
			 M362.22,70.26l-3.88-3.83c-1.19,1.28-2.2,1.81-3.7,1.81c-1.37,0-2.42-0.48-3.26-1.5c-0.88-1.1-1.28-2.69-1.28-5.11
			c0-2.42,0.4-3.97,1.28-5.07c0.84-1.01,1.89-1.5,3.26-1.5c1.5,0,2.51,0.53,3.7,1.81l3.88-3.87c-2.03-2.11-4.4-3.08-7.58-3.08
			c-4.58,0-10.26,2.42-10.26,11.71s5.68,11.76,10.26,11.76C357.81,73.38,360.19,72.37,362.22,70.26 M339.84,65.9
			c0-3.88-2.29-6.3-6.83-6.74l-3.61-0.36c-2.03-0.18-2.38-1.15-2.38-1.98c0-1.15,0.97-2.2,3.26-2.2c1.98,0,4.01,0.35,5.33,1.54
			l3.52-3.56c-2.2-2.07-5.2-2.68-8.77-2.68c-4.67,0-8.85,2.55-8.85,7.3c0,4.23,2.55,6.04,6.7,6.43l3.61,0.35
			c1.81,0.18,2.42,0.97,2.42,2.11c0,1.72-2.07,2.38-4.05,2.38c-1.76,0-4.23-0.26-6.12-2.16l-3.74,3.74c2.91,2.9,6.17,3.3,9.78,3.3
			C335.53,73.38,339.84,70.97,339.84,65.9 M310.51,61.63c0,3.74-0.44,6.61-3.88,6.61c-3.44,0-3.88-2.87-3.88-6.61
			c0-3.75,0.44-6.57,3.88-6.57C310.07,55.06,310.51,57.88,310.51,61.63 M316.23,61.63c0-3.44-0.04-7.36-2.33-9.65
			c-1.28-1.28-3.34-2.07-5.59-2.07c-2.33,0-4.05,0.61-5.55,2.29V41.77h-5.72v31.35h5.54v-2.15c1.59,1.76,3.31,2.42,5.73,2.42
			c2.25,0,4.32-0.79,5.59-2.07C316.19,69.03,316.23,65.06,316.23,61.63 M284.26,64.66c0,1.41-0.22,2.34-0.84,2.91
			c-1.01,0.97-2.03,1.1-3.62,1.1c-2.25,0-3.31-1.06-3.31-2.65c0-1.63,1.15-2.6,3.22-2.6h4.54V64.66z M289.98,73.12v-15.1
			c0-5.37-3.34-8.1-9.77-8.1c-3.84,0-6.03,0.7-8.28,3.17l3.65,3.57c1.19-1.37,2.2-1.9,4.4-1.9c3.04,0,4.28,1.1,4.28,3.62v1.15h-5.42
			c-5.33,0-7.84,2.99-7.84,6.65c0,2.03,0.66,3.88,1.89,5.15c1.37,1.36,3.26,2.02,5.86,2.02c2.64,0,4.1-0.66,5.64-2.2v1.98H289.98z
			 M267.16,73.12v-4.84h-2.2c-1.45,0-2.03-0.7-2.03-2.07V41.77h-5.72v24.8c0,3.26,1.98,6.56,6.69,6.56H267.16z M250.12,73.12V50.18
			h-5.72v13.87c0,3.13-2.03,4.18-3.84,4.18c-1.81,0-3.79-1.06-3.79-4.18V50.18h-5.72v14.67c0,2.51,0.48,4.67,2.33,6.52
			c1.28,1.27,3.12,2.02,5.42,2.02c2.11,0,4.23-0.79,5.73-2.38v2.11H250.12z M224.27,73.12V58.28c0-4.84-2.64-8.36-7.66-8.36
			c-2.03,0-3.97,0.79-5.51,2.38V41.77h-5.72v31.35h5.72V59.11c0-3,1.89-4.05,3.7-4.05c1.81,0,3.75,1.01,3.75,4.05v14.01H224.27z
			 M200.04,70.26l-3.88-3.83c-1.19,1.28-2.2,1.81-3.7,1.81c-1.37,0-2.42-0.48-3.26-1.5c-0.88-1.1-1.28-2.69-1.28-5.11
			c0-2.42,0.4-3.97,1.28-5.07c0.84-1.01,1.89-1.5,3.26-1.5c1.5,0,2.51,0.53,3.7,1.81l3.88-3.87c-2.03-2.11-4.4-3.08-7.58-3.08
			c-4.58,0-10.26,2.42-10.26,11.71s5.68,11.76,10.26,11.76C195.64,73.38,198.02,72.37,200.04,70.26 M177.67,65.9
			c0-3.88-2.29-6.3-6.83-6.74l-3.61-0.36c-2.03-0.18-2.38-1.15-2.38-1.98c0-1.15,0.97-2.2,3.26-2.2c1.98,0,4.01,0.35,5.33,1.54
			l3.52-3.56c-2.2-2.07-5.2-2.68-8.77-2.68c-4.67,0-8.85,2.55-8.85,7.3c0,4.23,2.55,6.04,6.7,6.43l3.61,0.35
			c1.81,0.18,2.42,0.97,2.42,2.11c0,1.72-2.07,2.38-4.05,2.38c-1.76,0-4.23-0.26-6.12-2.16l-3.74,3.74c2.91,2.9,6.17,3.3,9.78,3.3
			C173.35,73.38,177.67,70.97,177.67,65.9 M154.32,73.12v-4.84h-2.07c-1.37,0-1.98-0.75-1.98-2.07V55.19h4.05v-4.35h-4.05v-6.78
			h-5.72v6.78h-2.42v4.35h2.42v11.37c0,3.26,1.98,6.56,6.65,6.56H154.32z M131.95,61.63c0,3.74-0.44,6.61-3.88,6.61
			c-3.44,0-3.88-2.87-3.88-6.61c0-3.75,0.44-6.57,3.88-6.57C131.51,55.06,131.95,57.88,131.95,61.63 M137.67,61.63
			c0-3.44-0.04-7.36-2.33-9.65c-1.28-1.28-3.34-2.07-5.59-2.07c-2.42,0-4.14,0.66-5.73,2.42v-2.15h-5.54v31.35h5.72V71.1
			c1.5,1.67,3.22,2.29,5.55,2.29c2.25,0,4.32-0.79,5.59-2.07C137.63,69.03,137.67,65.06,137.67,61.63 M111.16,73.12V50.18h-5.72
			v13.87c0,3.13-2.03,4.18-3.84,4.18c-1.81,0-3.79-1.06-3.79-4.18V50.18h-5.72v14.67c0,2.51,0.48,4.67,2.33,6.52
			c1.28,1.27,3.12,2.02,5.41,2.02c2.12,0,4.23-0.79,5.73-2.38v2.11H111.16z M79.58,64.66c0,1.41-0.22,2.34-0.84,2.91
			c-1.01,0.97-2.03,1.1-3.61,1.1c-2.25,0-3.31-1.06-3.31-2.65c0-1.63,1.15-2.6,3.22-2.6h4.54V64.66z M85.3,73.12v-15.1
			c0-5.37-3.34-8.1-9.77-8.1c-3.84,0-6.03,0.7-8.28,3.17l3.65,3.57c1.19-1.37,2.2-1.9,4.41-1.9c3.04,0,4.28,1.1,4.28,3.62v1.15
			h-5.42c-5.33,0-7.83,2.99-7.83,6.65c0,2.03,0.66,3.88,1.89,5.15c1.37,1.36,3.26,2.02,5.85,2.02c2.65,0,4.1-0.66,5.64-2.2v1.98
			H85.3z M60.19,73.12V41.77h-6.12v12.82H43.46V41.77h-6.12v31.35h6.12V59.99h10.62v13.13H60.19z"/>
	</g>
	<path class="st6" d="M510.63,318.42H3.46V159.68h507.17V318.42z M5.5,316.39h503.1V161.71H5.5V316.39z"/>
	<rect x="4.48" y="370.16" class="st2" width="505.14" height="116.75"/>
	<g>
		<defs>
			<rect id="SVGID_00000083799007935300819910000012742980372109378723_" x="-27.03" y="24.08" width="566.06" height="463.85"/>
		</defs>
		<clipPath id="SVGID_00000167369818682094040020000017720506220802980226_">
			<use xlink:href="#SVGID_00000083799007935300819910000012742980372109378723_"  style="overflow:visible;"/>
		</clipPath>
		<path style="clip-path:url(#SVGID_00000167369818682094040020000017720506220802980226_);fill:#2B2961;" d="M510.63,487.92H3.46
			V369.14h507.17V487.92z M5.5,485.89h503.1V371.17H5.5V485.89z"/>
		<path style="clip-path:url(#SVGID_00000167369818682094040020000017720506220802980226_);fill:#2C265F;" d="M417.71,410.49
			c0-3.88-2.29-6.3-6.83-6.74l-3.61-0.35c-2.03-0.18-2.38-1.15-2.38-1.99c0-1.15,0.97-2.2,3.26-2.2c1.98,0,4.01,0.35,5.33,1.54
			l3.52-3.56c-2.2-2.07-5.2-2.68-8.77-2.68c-4.67,0-8.85,2.55-8.85,7.3c0,4.23,2.55,6.04,6.7,6.43l3.61,0.35
			c1.81,0.18,2.42,0.97,2.42,2.12c0,1.72-2.07,2.38-4.05,2.38c-1.76,0-4.23-0.26-6.12-2.16l-3.74,3.74c2.91,2.9,6.17,3.3,9.78,3.3
			C413.39,417.97,417.71,415.55,417.71,410.49 M395.02,410.49c0-3.88-2.29-6.3-6.83-6.74l-3.61-0.35c-2.03-0.18-2.38-1.15-2.38-1.99
			c0-1.15,0.97-2.2,3.26-2.2c1.98,0,4.01,0.35,5.33,1.54l3.52-3.56c-2.2-2.07-5.2-2.68-8.77-2.68c-4.67,0-8.85,2.55-8.85,7.3
			c0,4.23,2.55,6.04,6.7,6.43l3.61,0.35c1.81,0.18,2.42,0.97,2.42,2.12c0,1.72-2.07,2.38-4.05,2.38c-1.76,0-4.23-0.26-6.12-2.16
			l-3.74,3.74c2.91,2.9,6.17,3.3,9.78,3.3C390.71,417.97,395.02,415.55,395.02,410.49 M370.44,417.71v-22.94h-5.72v13.87
			c0,3.13-2.03,4.18-3.84,4.18c-1.81,0-3.79-1.06-3.79-4.18v-13.87h-5.72v14.67c0,2.51,0.48,4.67,2.33,6.52
			c1.28,1.27,3.12,2.02,5.41,2.02c2.12,0,4.23-0.79,5.73-2.38v2.11H370.44z M346.17,417.71v-4.84h-2.2c-1.45,0-2.03-0.7-2.03-2.07
			v-24.45h-5.72v24.8c0,3.26,1.98,6.56,6.69,6.56H346.17z M329.39,417.71v-14.84c0-4.84-2.64-8.36-7.66-8.36
			c-2.03,0-3.96,0.79-5.51,2.38v-10.52h-5.72v31.35h5.72V403.7c0-3,1.9-4.05,3.7-4.05s3.75,1.01,3.75,4.05v14.01H329.39z
			 M305.17,414.85l-3.88-3.83c-1.19,1.28-2.2,1.81-3.7,1.81c-1.37,0-2.42-0.48-3.26-1.5c-0.88-1.1-1.28-2.69-1.28-5.11
			s0.4-3.96,1.28-5.07c0.84-1.01,1.89-1.5,3.26-1.5c1.5,0,2.51,0.53,3.7,1.81l3.88-3.87c-2.03-2.11-4.4-3.08-7.58-3.08
			c-4.58,0-10.26,2.42-10.26,11.71c0,9.29,5.68,11.76,10.26,11.76C300.76,417.97,303.14,416.96,305.17,414.85 M282.79,410.49
			c0-3.88-2.29-6.3-6.83-6.74l-3.61-0.35c-2.03-0.18-2.38-1.15-2.38-1.99c0-1.15,0.97-2.2,3.26-2.2c1.98,0,4.01,0.35,5.33,1.54
			l3.52-3.56c-2.2-2.07-5.2-2.68-8.77-2.68c-4.67,0-8.85,2.55-8.85,7.3c0,4.23,2.55,6.04,6.7,6.43l3.61,0.35
			c1.81,0.18,2.42,0.97,2.42,2.12c0,1.72-2.07,2.38-4.05,2.38c-1.76,0-4.23-0.26-6.12-2.16l-3.74,3.74c2.91,2.9,6.17,3.3,9.78,3.3
			C278.48,417.97,282.79,415.55,282.79,410.49 M253.46,406.21c0,3.74-0.44,6.61-3.88,6.61c-3.44,0-3.88-2.87-3.88-6.61
			s0.44-6.57,3.88-6.57C253.02,399.65,253.46,402.47,253.46,406.21 M259.18,406.21c0-3.44-0.04-7.36-2.33-9.65
			c-1.28-1.27-3.34-2.07-5.59-2.07c-2.34,0-4.06,0.62-5.56,2.29v-10.44h-5.72v31.35h5.54v-2.15c1.59,1.76,3.31,2.42,5.73,2.42
			c2.25,0,4.31-0.79,5.59-2.07C259.14,413.62,259.18,409.65,259.18,406.21 M225.8,407.01H218l3.96-11.41L225.8,407.01z
			 M235.66,417.71l-11.45-31.35h-4.8L208,417.71h6.39l1.89-5.55h11.14l1.85,5.55H235.66z M188.09,404.1h-8.72
			c0.04-1.02,0.18-1.63,0.53-2.47c0.62-1.37,1.89-2.38,3.83-2.38s3.22,1.02,3.83,2.38C187.92,402.47,188.05,403.09,188.09,404.1
			 M193.73,408.02v-2.55c0-6.3-3.61-10.96-10-10.96c-5.95,0-10,4.22-10,11.71c0,9.29,5.19,11.76,10.61,11.76
			c4.14,0,6.39-1.27,8.72-3.61l-3.48-3.39c-1.45,1.46-2.69,2.16-5.2,2.16c-3.22,0-5.02-2.16-5.02-5.12H193.73z M167.83,417.71
			v-14.67c0-2.51-0.48-4.67-2.33-6.52c-1.27-1.27-3.12-2.02-5.41-2.02c-2.11,0-4.23,0.79-5.73,2.38v-2.11h-5.59v22.94h5.72v-13.87
			c0-3.13,2.03-4.18,3.84-4.18c1.81,0,3.79,1.06,3.79,4.18v13.87H167.83z M141.71,417.71v-14.84c0-4.84-2.64-8.36-7.66-8.36
			c-2.03,0-3.97,0.79-5.51,2.38v-10.52h-5.72v31.35h5.72V403.7c0-3,1.89-4.05,3.7-4.05c1.81,0,3.75,1.01,3.75,4.05v14.01H141.71z
			 M110.76,406.21c0,2.38-0.13,4.41-1.32,5.6c-0.66,0.66-1.54,1.01-2.69,1.01c-1.15,0-1.99-0.35-2.65-1.01
			c-1.19-1.19-1.32-3.22-1.32-5.6c0-2.38,0.13-4.36,1.32-5.55c0.66-0.66,1.5-1.01,2.65-1.01c1.15,0,2.03,0.35,2.69,1.01
			C110.62,401.85,110.76,403.84,110.76,406.21 M116.47,406.21c0-4.14-0.53-6.74-2.6-8.9c-1.41-1.5-3.74-2.82-7.14-2.82
			c-3.39,0-5.69,1.32-7.09,2.82c-2.07,2.15-2.6,4.75-2.6,8.9c0,4.19,0.53,6.79,2.6,8.94c1.41,1.5,3.7,2.82,7.09,2.82
			c3.39,0,5.73-1.32,7.14-2.82C115.95,413,116.47,410.4,116.47,406.21"/>
	</g>
	<polygon class="st3" points="19.53,327.9 35.42,327.9 27.47,319.95 	"/>
	<polygon class="st3" points="19.53,359.5 35.42,359.5 27.47,351.56 	"/>
	<polygon class="st3" points="19.53,343.7 35.42,343.7 27.47,335.76 	"/>
	<polygon class="st3" points="19.53,154.06 35.42,154.06 27.47,146.11 	"/>
	<polygon class="st3" points="19.53,104.28 35.42,104.28 27.47,96.33 	"/>
	<polygon class="st3" points="19.53,135.88 35.42,135.88 27.47,127.94 	"/>
	<polygon class="st3" points="19.53,120.08 35.42,120.08 27.47,112.14 	"/>
	<g>
		<defs>
			<rect id="SVGID_00000153699797467703108460000001764174785309438344_" x="-27.03" y="24.08" width="566.06" height="463.85"/>
		</defs>
		<clipPath id="SVGID_00000097459282548979622700000001025564989919240875_">
			<use xlink:href="#SVGID_00000153699797467703108460000001764174785309438344_"  style="overflow:visible;"/>
		</clipPath>
		<path style="clip-path:url(#SVGID_00000097459282548979622700000001025564989919240875_);fill:#FFFFFF;" d="M346.34,302.36v-21.7
			h-3.11l-4.24,3.66v3.45l4.24-3.72v18.32H346.34z M320.79,287.02c0,2.13-1.49,3.39-3.69,3.39h-4.88v-6.81h4.88
			C319.29,283.6,320.79,284.89,320.79,287.02 M324.75,302.36l-5-9.6c2.44-0.67,4.33-2.65,4.33-5.76c0-3.69-2.62-6.34-6.74-6.34
			h-8.41v21.7h3.29v-9.15h4.12l4.58,9.15H324.75z M300.81,302.36v-21.7h-3.29v9.27h-8.82v-9.27h-3.29v21.7h3.29v-9.48h8.82v9.48
			H300.81z M273.98,295.2h-6.68l3.38-9.64L273.98,295.2z M279.89,302.36l-7.96-21.7h-2.65l-7.96,21.7h3.51l1.49-4.36h8.57l1.49,4.36
			H279.89z M256.41,295.5v-14.85h-3.29v14.61c0,2.84-1.49,4.33-3.93,4.33c-1.59,0-2.32-0.55-3.08-1.31l-2.2,2.16
			c1.49,1.49,3.05,2.1,5.28,2.1C253.18,302.54,256.41,300.01,256.41,295.5 M234.15,278.4h-2.99l-8.69,26.22h2.99L234.15,278.4z
			 M201.27,289.89c0.59-0.04,1.24-0.07,1.97-0.07c0.86,0,1.74,0.06,2.64,0.19c0.9,0.13,1.85,0.31,2.85,0.56l0.54-3.52
			c-0.57-0.2-1.19-0.38-1.88-0.53c-0.69-0.15-1.4-0.26-2.12-0.34c-0.73-0.08-1.45-0.12-2.17-0.12c-1.38,0-2.51,0.13-3.39,0.39
			c-0.88,0.26-1.58,0.69-2.08,1.29c-0.51,0.6-0.86,1.42-1.07,2.46c-0.2,1.04-0.3,2.34-0.3,3.9c0,1.58,0.11,2.9,0.32,3.96
			c0.21,1.06,0.58,1.91,1.08,2.54c0.51,0.63,1.21,1.08,2.12,1.36c0.9,0.27,2.03,0.41,3.39,0.41h7.49v-3.76h-8.06
			c-0.97,0-1.69-0.17-2.17-0.51c-0.47-0.34-0.7-0.92-0.68-1.76v-6.2C200.17,290.02,200.68,289.94,201.27,289.89 M203.23,302.36
			l-2.81-3.76h-8.71v3.76H203.23z M193.07,302.36v-3.76h-3.86v-17.58h-3.32v21.35H193.07z M168.64,300.46
			c-0.36-0.52-0.64-1.08-0.83-1.69c-0.19-0.61-0.33-1.28-0.41-2c-0.08-0.72-0.12-1.5-0.12-2.34c0-0.99,0.12-1.98,0.36-2.95
			s0.55-2.02,0.93-3.15l-3.25-0.88c-0.41,1.13-0.74,2.26-0.98,3.41c-0.25,1.14-0.37,2.33-0.37,3.57c0,1.36,0.11,2.62,0.32,3.79
			s0.64,2.13,1.27,2.88L168.64,300.46z M165.08,313.1c-0.36-1.38-0.62-2.53-0.76-3.46c-0.15-0.92-0.22-1.77-0.22-2.54
			c0-1.04,0.04-1.93,0.12-2.68c0.08-0.75,0.21-1.43,0.39-2.07h15.01v-11.55c0-1.15-0.21-2.07-0.63-2.76s-1.1-1.19-2.05-1.51
			s-2.2-0.47-3.76-0.47c-1.45,0-2.86,0.13-4.24,0.37s-2.59,0.59-3.63,1.02l1.32,3.18c0.97-0.27,2.01-0.47,3.1-0.61s2.13-0.2,3.1-0.2
			c1.47,0,2.62,0.1,3.46,0.3v8.47h-11.05c-1.08,0-1.95,0.26-2.61,0.78c-0.65,0.52-1.14,1.35-1.44,2.47
			c-0.3,1.13-0.46,2.62-0.46,4.47c0,0.86,0.04,1.73,0.14,2.61s0.21,1.73,0.37,2.54c0.16,0.81,0.34,1.55,0.54,2.2L165.08,313.1z"/>
		<path style="clip-path:url(#SVGID_00000097459282548979622700000001025564989919240875_);fill:#FFFFFF;" d="M418.29,473.03
			c0.43-0.34,0.81-0.73,1.14-1.18c0.33-0.45,0.49-0.83,0.49-1.16c0-0.38-0.16-0.79-0.49-1.22c-0.33-0.43-0.7-0.81-1.12-1.14
			c-0.42-0.33-0.83-0.49-1.24-0.49c-0.33,0-0.71,0.16-1.16,0.49c-0.45,0.33-0.83,0.7-1.16,1.14c-0.33,0.43-0.49,0.84-0.49,1.22
			c0,0.33,0.16,0.72,0.49,1.18c0.33,0.46,0.71,0.85,1.16,1.18c0.45,0.33,0.85,0.49,1.2,0.49
			C417.46,473.54,417.85,473.37,418.29,473.03 M419.51,464.59v-19.11h-4.84v13.66h-6.3v5.45H419.51z M407.55,464.59v-4.23
			c-0.7-2.74-1.36-5.03-1.97-6.89c-0.61-1.86-1.24-3.37-1.89-4.53s-1.38-2.06-2.18-2.68c-0.8-0.62-1.73-1.05-2.81-1.28
			c-1.07-0.23-2.34-0.35-3.8-0.35c-0.87,0-1.77,0.05-2.7,0.16c-0.94,0.11-1.8,0.26-2.58,0.45l1.34,5.33
			c0.57-0.16,1.21-0.28,1.91-0.37c0.7-0.08,1.38-0.12,2.03-0.12c0.92,0,1.71,0.12,2.38,0.37c0.66,0.24,1.24,0.7,1.73,1.36
			c0.49,0.66,0.94,1.59,1.36,2.76s0.87,2.7,1.36,4.57h-12.77v5.45H407.55z M406.33,464.59h3.66v-5.45h-3.66V464.59z M379.4,472.15
			c1.07-1.33,2-2.73,2.79-4.21c0.79-1.48,1.4-2.97,1.85-4.47c0.45-1.5,0.67-2.95,0.67-4.33h-4.88c0,1.06-0.18,2.17-0.53,3.33
			s-0.85,2.32-1.5,3.48c-0.65,1.15-1.41,2.26-2.28,3.31c-0.87,1.06-1.82,2.01-2.85,2.85l3.17,3.66
			C377.14,474.69,378.33,473.48,379.4,472.15 M371.17,459.14v-6.83c0-0.73,0.15-1.23,0.45-1.48s0.87-0.39,1.71-0.39h6.51v6.91
			c0,0.68-0.12,1.15-0.37,1.4c-0.24,0.26-0.69,0.39-1.34,0.39H371.17z M382.14,464.59l2.56-5.45v-12.73
			c-1.41-0.52-2.81-0.88-4.19-1.1c-1.38-0.22-3.04-0.33-4.96-0.33c-1.76,0-3.25,0.16-4.47,0.49c-1.22,0.33-2.2,0.86-2.93,1.61
			c-0.73,0.75-1.27,1.73-1.61,2.97c-0.34,1.23-0.51,2.76-0.51,4.57c0,1.84,0.14,3.41,0.41,4.7s0.69,2.32,1.26,3.09
			c0.57,0.77,1.33,1.33,2.28,1.67c0.95,0.34,2.1,0.51,3.46,0.51H382.14z M350.43,440.22c0.43-0.34,0.81-0.73,1.14-1.18
			c0.33-0.45,0.49-0.83,0.49-1.16c0-0.38-0.16-0.79-0.49-1.22c-0.33-0.43-0.7-0.81-1.12-1.14c-0.42-0.33-0.83-0.49-1.24-0.49
			c-0.33,0-0.71,0.16-1.16,0.49c-0.45,0.33-0.83,0.7-1.16,1.14c-0.33,0.43-0.49,0.84-0.49,1.22c0,0.33,0.16,0.72,0.49,1.18
			c0.33,0.46,0.71,0.85,1.16,1.18c0.45,0.33,0.85,0.49,1.2,0.49C349.6,440.73,350,440.56,350.43,440.22 M343.5,466.6
			c-0.07-0.8-0.1-1.74-0.1-2.83c0-1.3,0.09-2.64,0.26-4c0.18-1.37,0.43-2.79,0.75-4.25l-4.55-0.77c-0.27,0.98-0.51,2.02-0.71,3.13
			c-0.2,1.11-0.35,2.25-0.45,3.42c-0.09,1.17-0.14,2.32-0.14,3.46c0,1.92,0.14,3.51,0.43,4.76s0.8,2.22,1.54,2.93
			c0.75,0.7,1.79,1.2,3.13,1.48s3.07,0.43,5.18,0.43c2.3,0,4.17-0.14,5.61-0.41c1.44-0.27,2.54-0.75,3.31-1.42s1.3-1.62,1.59-2.83
			c0.28-1.21,0.43-2.72,0.43-4.53v-19.68h-4.84v21.22c0,0.87-0.37,1.44-1.1,1.73c-0.73,0.28-1.94,0.43-3.62,0.43h-6.38
			C343.68,468.16,343.57,467.4,343.5,466.6 M309.2,433.02c0.43-0.34,0.81-0.73,1.14-1.18c0.33-0.45,0.49-0.83,0.49-1.16
			c0-0.38-0.16-0.79-0.49-1.22c-0.33-0.43-0.7-0.81-1.12-1.14c-0.42-0.33-0.83-0.49-1.24-0.49c-0.33,0-0.71,0.16-1.16,0.49
			c-0.45,0.33-0.83,0.7-1.16,1.14c-0.33,0.43-0.49,0.84-0.49,1.22c0,0.33,0.16,0.72,0.49,1.18c0.33,0.46,0.71,0.85,1.16,1.18
			c0.45,0.33,0.85,0.49,1.2,0.49S308.77,433.36,309.2,433.02 M312.62,440.22c0.43-0.34,0.81-0.73,1.14-1.18
			c0.33-0.45,0.49-0.83,0.49-1.16c0-0.38-0.16-0.79-0.49-1.22c-0.33-0.43-0.7-0.81-1.12-1.14s-0.83-0.49-1.24-0.49
			c-0.33,0-0.71,0.16-1.16,0.49c-0.45,0.33-0.83,0.7-1.16,1.14c-0.33,0.43-0.49,0.84-0.49,1.22c0,0.33,0.16,0.72,0.49,1.18
			c0.33,0.46,0.71,0.85,1.16,1.18c0.45,0.33,0.85,0.49,1.2,0.49C311.79,440.73,312.18,440.56,312.62,440.22 M305.83,440.22
			c0.43-0.34,0.81-0.73,1.14-1.18c0.33-0.45,0.49-0.83,0.49-1.16c0-0.38-0.16-0.79-0.49-1.22c-0.33-0.43-0.7-0.81-1.12-1.14
			s-0.83-0.49-1.24-0.49c-0.33,0-0.71,0.16-1.16,0.49c-0.45,0.33-0.83,0.7-1.16,1.14c-0.33,0.43-0.49,0.84-0.49,1.22
			c0,0.33,0.16,0.72,0.49,1.18c0.33,0.46,0.71,0.85,1.16,1.18c0.45,0.33,0.85,0.49,1.2,0.49C305,440.73,305.39,440.56,305.83,440.22
			 M296.88,449.14h-4.84v10h-6.3v5.45h11.14V449.14z M305.52,464.18c1.29-0.27,2.27-0.74,2.95-1.4c0.68-0.66,1.14-1.59,1.38-2.76
			c0.24-1.18,0.37-2.68,0.37-4.49v-6.38h-4.84v7.85c0,0.87-0.25,1.44-0.75,1.73c-0.5,0.28-1.28,0.43-2.34,0.43h-5.41v5.45h3.62
			C302.56,464.59,304.24,464.46,305.52,464.18 M319.77,463.64c1.33-0.64,2.29-1.73,2.89-3.27c0.6-1.54,0.89-3.7,0.89-6.46
			c0-0.89-0.04-1.84-0.12-2.83c-0.08-0.99-0.21-1.97-0.39-2.93c-0.18-0.96-0.39-1.84-0.63-2.62l-4.8,0.73
			c0.33,1.38,0.59,2.74,0.79,4.07c0.2,1.33,0.3,2.6,0.3,3.82c0,1.06-0.03,1.99-0.08,2.79c-0.05,0.8-0.16,1.54-0.33,2.22h-5
			c-1.03,0-1.8-0.14-2.32-0.43c-0.51-0.28-0.77-0.86-0.77-1.73v-7.85h-4.84v6.38c0,1.82,0.13,3.31,0.39,4.49s0.71,2.1,1.36,2.76
			c0.65,0.66,1.57,1.13,2.76,1.4s2.74,0.41,4.64,0.41C316.7,464.59,318.45,464.27,319.77,463.64 M270.29,460.16h-6.75v-3.98
			c0-0.49,0.14-0.84,0.43-1.06s0.71-0.33,1.28-0.33h5.04V460.16z M274.56,460.16c0-2.06-0.1-3.71-0.3-4.94
			c-0.2-1.23-0.58-2.16-1.14-2.79c-0.56-0.62-1.34-1.04-2.36-1.26c-1.02-0.22-2.32-0.33-3.92-0.33c-1.57,0-2.85,0.11-3.82,0.33
			c-0.98,0.22-1.73,0.64-2.28,1.26c-0.54,0.62-0.91,1.55-1.12,2.79c-0.2,1.23-0.3,2.88-0.3,4.94H274.56z M284.52,464.59v-4.23
			l-2.4-9.6c-0.6-2.47-1.52-4.4-2.76-5.81c-1.25-1.41-2.93-2.41-5.06-2.99c-2.13-0.58-4.85-0.87-8.15-0.87l-0.28,5.29
			c2.55,0,4.61,0.21,6.18,0.63s2.8,1.09,3.68,2.01c0.88,0.92,1.51,2.14,1.89,3.66l1.63,6.46h-24.15v5.45H284.52z M281.92,464.63
			h5.45v-5.49h-5.45V464.63z M256.71,464.59v-5.45h-4.31v-20.17h-4.84v25.61H256.71z M242.08,464.59v-4.23
			c-0.71-2.74-1.36-5.03-1.97-6.89c-0.61-1.86-1.24-3.37-1.89-4.53c-0.65-1.17-1.38-2.06-2.18-2.68c-0.8-0.62-1.74-1.05-2.81-1.28
			c-1.07-0.23-2.34-0.35-3.8-0.35c-0.87,0-1.77,0.05-2.7,0.16c-0.94,0.11-1.8,0.26-2.58,0.45l1.34,5.33
			c0.57-0.16,1.2-0.28,1.91-0.37c0.7-0.08,1.38-0.12,2.03-0.12c0.92,0,1.71,0.12,2.38,0.37c0.66,0.24,1.24,0.7,1.73,1.36
			s0.94,1.59,1.36,2.76c0.42,1.18,0.87,2.7,1.36,4.57H223.5v5.45H242.08z M214.84,440.22c0.43-0.34,0.81-0.73,1.14-1.18
			s0.49-0.83,0.49-1.16c0-0.38-0.16-0.79-0.49-1.22s-0.7-0.81-1.12-1.14c-0.42-0.33-0.83-0.49-1.24-0.49
			c-0.33,0-0.71,0.16-1.16,0.49c-0.45,0.33-0.83,0.7-1.16,1.14c-0.33,0.43-0.49,0.84-0.49,1.22c0,0.33,0.16,0.72,0.49,1.18
			c0.33,0.46,0.71,0.85,1.16,1.18c0.45,0.33,0.85,0.49,1.2,0.49C214.01,440.73,214.41,440.56,214.84,440.22 M208.05,440.22
			c0.43-0.34,0.81-0.73,1.14-1.18c0.33-0.45,0.49-0.83,0.49-1.16c0-0.38-0.16-0.79-0.49-1.22c-0.33-0.43-0.7-0.81-1.12-1.14
			c-0.42-0.33-0.83-0.49-1.24-0.49c-0.33,0-0.71,0.16-1.16,0.49s-0.83,0.7-1.16,1.14c-0.33,0.43-0.49,0.84-0.49,1.22
			c0,0.33,0.16,0.72,0.49,1.18c0.33,0.46,0.71,0.85,1.16,1.18c0.45,0.33,0.85,0.49,1.2,0.49
			C207.22,440.73,207.62,440.56,208.05,440.22 M214.35,459.14h-7.32c-0.73,0-1.28-0.14-1.63-0.43c-0.35-0.28-0.53-0.74-0.53-1.36
			v-4.64c0-0.62,0.18-1.08,0.53-1.36c0.35-0.28,0.89-0.43,1.63-0.43h7.32V459.14z M208.78,445.48c-1.85,0-3.36,0.13-4.55,0.39
			c-1.2,0.26-2.11,0.73-2.76,1.42c-0.65,0.69-1.1,1.66-1.34,2.91c-0.24,1.25-0.37,2.86-0.37,4.84c0,1.98,0.12,3.59,0.37,4.84
			s0.69,2.22,1.34,2.91c0.65,0.69,1.57,1.17,2.76,1.42c1.19,0.26,2.71,0.39,4.55,0.39h10.45v-19.11H208.78z M184.1,438.98h-4.84
			v25.61h4.84V438.98z M172.31,438.98h-4.84v20.17h-6.3v5.45h11.14V438.98z M160.68,440.22c0.43-0.34,0.81-0.73,1.14-1.18
			s0.49-0.83,0.49-1.16c0-0.38-0.16-0.79-0.49-1.22s-0.7-0.81-1.12-1.14s-0.83-0.49-1.24-0.49c-0.33,0-0.71,0.16-1.16,0.49
			s-0.83,0.7-1.16,1.14c-0.33,0.43-0.49,0.84-0.49,1.22c0,0.33,0.16,0.72,0.49,1.18c0.33,0.46,0.71,0.85,1.16,1.18
			c0.45,0.33,0.85,0.49,1.2,0.49S160.25,440.56,160.68,440.22 M153.89,440.22c0.43-0.34,0.81-0.73,1.14-1.18s0.49-0.83,0.49-1.16
			c0-0.38-0.16-0.79-0.49-1.22s-0.7-0.81-1.12-1.14c-0.42-0.33-0.83-0.49-1.24-0.49c-0.33,0-0.71,0.16-1.16,0.49
			c-0.45,0.33-0.83,0.7-1.16,1.14s-0.49,0.84-0.49,1.22c0,0.33,0.16,0.72,0.49,1.18c0.33,0.46,0.71,0.85,1.16,1.18
			c0.45,0.33,0.85,0.49,1.2,0.49C153.07,440.73,153.46,440.56,153.89,440.22 M158.49,445.48h-4.84v13.66h-6.3v5.45h15.45v-5.45
			h-4.31V445.48z M135.84,440.22c0.43-0.34,0.81-0.73,1.14-1.18s0.49-0.83,0.49-1.16c0-0.38-0.16-0.79-0.49-1.22
			s-0.7-0.81-1.12-1.14c-0.42-0.33-0.83-0.49-1.24-0.49c-0.33,0-0.71,0.16-1.16,0.49s-0.83,0.7-1.16,1.14s-0.49,0.84-0.49,1.22
			c0,0.33,0.16,0.72,0.49,1.18c0.33,0.46,0.71,0.85,1.16,1.18c0.45,0.33,0.85,0.49,1.2,0.49S135.41,440.56,135.84,440.22
			 M138.24,455.12c-0.41,0.76-0.91,1.44-1.5,2.03c-0.6,0.6-1.31,1.08-2.15,1.44c-0.84,0.37-1.82,0.55-2.93,0.55h-8.54v5.45h7.64
			c1.55,0,2.99-0.21,4.33-0.63c1.34-0.42,2.57-1.05,3.68-1.89s2.09-1.9,2.93-3.17c0.84-1.27,1.52-2.78,2.03-4.51l-4.51-1.63
			C138.97,453.57,138.65,454.36,138.24,455.12 M144.01,453.61c-0.73-2.03-1.64-3.68-2.72-4.94s-2.43-2.19-4.05-2.79
			s-3.58-0.89-5.92-0.89c-0.79,0-1.61,0.03-2.48,0.08c-0.87,0.05-1.78,0.14-2.72,0.24l0.73,5.37c0.81-0.11,1.58-0.18,2.3-0.2
			c0.72-0.03,1.4-0.04,2.05-0.04c1.63,0,2.97,0.17,4.03,0.51c1.06,0.34,1.94,0.89,2.64,1.65c0.7,0.76,1.3,1.76,1.79,3.01l2.56,6.71
			c0.3,0.79,0.7,1.36,1.2,1.73c0.5,0.37,1.19,0.55,2.05,0.55h3.5v-5.45h-2.93L144.01,453.61z M117.56,472.99
			c1.02-1.02,1.76-2.25,2.24-3.7c0.47-1.45,0.71-3.21,0.71-5.27v-18.54h-4.84v18.54c0,1.44-0.12,2.6-0.35,3.5
			c-0.23,0.89-0.64,1.63-1.22,2.2c-0.58,0.57-1.4,1.1-2.46,1.59l1.83,4.35C115.19,474.89,116.55,474,117.56,472.99 M120.43,464.59
			h4.31v-5.45h-4.31V464.59z M102.54,467.46c0.43-0.34,0.81-0.73,1.14-1.18c0.33-0.45,0.49-0.83,0.49-1.16
			c0-0.38-0.16-0.79-0.49-1.22c-0.33-0.43-0.7-0.81-1.12-1.14s-0.83-0.49-1.24-0.49c-0.33,0-0.71,0.16-1.16,0.49
			c-0.45,0.33-0.83,0.7-1.16,1.14c-0.33,0.43-0.49,0.84-0.49,1.22c0,0.33,0.16,0.72,0.49,1.18c0.33,0.46,0.71,0.85,1.16,1.18
			c0.45,0.33,0.85,0.49,1.2,0.49S102.11,467.8,102.54,467.46 M106.26,457.9c1.23,0.66,2.96,1,5.18,1v-4.84h-2.28
			c-0.76-2.14-1.73-3.88-2.91-5.2c-1.18-1.33-2.64-2.3-4.39-2.93c-1.75-0.62-3.86-0.94-6.32-0.94c-0.73,0-1.52,0.03-2.36,0.08
			c-0.84,0.05-1.79,0.14-2.85,0.24l0.73,5.37c0.7-0.11,1.36-0.18,1.97-0.2c0.61-0.03,1.2-0.04,1.77-0.04c2.22,0,4.03,0.33,5.43,1
			c1.4,0.66,2.46,1.7,3.19,3.11C104.09,456.12,105.03,457.24,106.26,457.9 M103.76,475.93c1.6-0.22,3.01-0.52,4.23-0.89l-0.61-5.16
			c-1.41,0.33-2.68,0.56-3.82,0.71c-1.14,0.15-2.3,0.22-3.5,0.22c-0.95,0-1.88-0.03-2.79-0.1c-0.91-0.07-1.67-0.14-2.3-0.22v-6.22
			c0-1.27,0.57-2.3,1.71-3.09c1.14-0.79,2.91-1.36,5.33-1.73c2.41-0.37,5.56-0.55,9.43-0.55l-2.28-4.84c-4.58,0-8.28,0.41-11.1,1.24
			c-2.82,0.83-4.86,2.14-6.12,3.94c-1.26,1.8-1.89,4.19-1.89,7.18c0,1.9,0.14,3.48,0.43,4.76c0.28,1.27,0.75,2.28,1.38,3.01
			c0.64,0.73,1.51,1.26,2.62,1.59c1.11,0.33,2.51,0.49,4.19,0.49C100.47,476.26,102.16,476.15,103.76,475.93"/>
	</g>
</g>
</svg>
