<?xml version="1.0" encoding="utf-8"?>
<!-- Generator: Adobe Illustrator 26.2.1, SVG Export Plug-In . SVG Version: 6.00 Build 0)  -->
<svg version="1.1" id="Ebene_1" xmlns="http://www.w3.org/2000/svg" xmlns:xlink="http://www.w3.org/1999/xlink" x="0px" y="0px"
	 viewBox="0 0 512 512" style="enable-background:new 0 0 512 512;" xml:space="preserve">
<style type="text/css">
	.st0{fill:#6EC3BF;}
	.st1{fill:#A0D5D2;}
	.st2{fill:#87CCC8;}
	.st3{fill:#FFFFFF;}
	.st4{clip-path:url(#SVGID_00000100370688077402612160000009540123936893534644_);fill:#2B2961;}
	.st5{fill:#897DA2;}
	.st6{fill:#2B2961;}
	.st7{clip-path:url(#SVGID_00000058548081891115898710000013452858414659365268_);fill:#FFFFFF;}
	.st8{clip-path:url(#SVGID_00000058548081891115898710000013452858414659365268_);fill:#2B2961;}
	.st9{clip-path:url(#SVGID_00000162344427988401086760000007652837162404345787_);fill:#FFFFFF;}
	.st10{clip-path:url(#SVGID_00000162344427988401086760000007652837162404345787_);fill:#6EC3BF;}
	.st11{fill:#9D9D9C;}
	.st12{fill:#D0D0D0;}
	.st13{clip-path:url(#SVGID_00000018942699113490587530000006950286179296018081_);fill:#FFFFFF;}
	.st14{clip-path:url(#SVGID_00000088838770830108566870000001902090696537453706_);fill:#2B2961;}
	.st15{clip-path:url(#SVGID_00000088838770830108566870000001902090696537453706_);fill:#FFFFFF;}
	.st16{fill:#97D1CE;}
	.st17{clip-path:url(#SVGID_00000150819119669785224880000002845678309009490102_);fill:#2B2961;}
	.st18{clip-path:url(#SVGID_00000082331267201753221570000012577891828964926112_);fill:#2B2961;}
	.st19{clip-path:url(#SVGID_00000178200494654738979090000003458665689610406834_);fill:#FFFFFF;}
	.st20{clip-path:url(#SVGID_00000178200494654738979090000003458665689610406834_);fill:#2B2961;}
	.st21{clip-path:url(#SVGID_00000042718015724595600190000001136960427556543420_);fill:#2B2961;}
	.st22{clip-path:url(#SVGID_00000147928770703987243300000002666283265991310988_);fill:#2B2961;}
	.st23{clip-path:url(#SVGID_00000147928770703987243300000002666283265991310988_);fill:#FFFFFF;}
	.st24{clip-path:url(#SVGID_00000062886368195875339710000000709741133441332143_);fill:#FFFFFF;}
	.st25{clip-path:url(#SVGID_00000019642504136944336330000009547762422533801129_);fill:#6EC3BF;}
	.st26{clip-path:url(#SVGID_00000163776564058581567800000003603470742595829145_);fill:#2B2961;}
	.st27{clip-path:url(#SVGID_00000163776564058581567800000003603470742595829145_);fill:#1D1D1B;}
	.st28{clip-path:url(#SVGID_00000163776564058581567800000003603470742595829145_);fill:#FFFFFF;}
	.st29{clip-path:url(#SVGID_00000120532541860561448400000005921923512124995241_);fill:#2B2961;}
	.st30{clip-path:url(#SVGID_00000065761532757058188250000002711497477494603186_);fill:#2B2961;}
	.st31{clip-path:url(#SVGID_00000065761532757058188250000002711497477494603186_);fill:#FFFFFF;}
	.st32{clip-path:url(#SVGID_00000172437312729690744440000000321692819628446080_);fill:#2B2961;}
	.st33{clip-path:url(#SVGID_00000143613298033017274900000007146167332672237999_);fill:#2B2961;}
	.st34{clip-path:url(#SVGID_00000143613298033017274900000007146167332672237999_);fill:#6EC3BF;}
	.st35{clip-path:url(#SVGID_00000158008766645090494930000011168675803399609985_);fill:#2B2961;}
	.st36{clip-path:url(#SVGID_00000121258293111802665230000017756939831486438840_);fill:#2B2961;}
	.st37{clip-path:url(#SVGID_00000003810353303291013410000007056126984758579853_);fill:#2B2961;}
	.st38{clip-path:url(#SVGID_00000005981604450390512300000016570218310291114919_);fill:#2B2961;}
	.st39{clip-path:url(#SVGID_00000134251473007601716930000008797841368377284781_);fill:#6EC3BF;}
	.st40{clip-path:url(#SVGID_00000168105187291117127870000003166802801624304259_);fill:#6EC3BF;}
	.st41{clip-path:url(#SVGID_00000119813971383953196710000017839648218403364527_);fill:#6EC3BF;}
	.st42{clip-path:url(#SVGID_00000146478171008426048940000013132631975176552885_);fill:#6EC3BF;}
	.st43{clip-path:url(#SVGID_00000180365927846035480610000001637626804511274419_);fill:#2B2961;}
	.st44{clip-path:url(#SVGID_00000175303595401967760570000015022923242473253507_);fill:#2B2961;}
	.st45{clip-path:url(#SVGID_00000090292040269526969860000001576242864340798123_);fill:#2B2961;}
	.st46{clip-path:url(#SVGID_00000121979936667390761640000017135626143421300143_);fill:#2B2961;}
	.st47{clip-path:url(#SVGID_00000121979936667390761640000017135626143421300143_);fill:#FFFFFF;}
	.st48{clip-path:url(#SVGID_00000107576841475460246800000006298721097687653551_);fill:#FFFFFF;}
	.st49{clip-path:url(#SVGID_00000105424490533615521000000012052780959691516547_);fill:#2B2961;}
	.st50{clip-path:url(#SVGID_00000137854135921507741510000011792783368107506818_);fill:#2B2961;}
	.st51{clip-path:url(#SVGID_00000137854135921507741510000011792783368107506818_);fill:#FFFFFF;}
	.st52{clip-path:url(#SVGID_00000064324409284523559300000016303025582030195384_);fill:#2B2961;}
	.st53{clip-path:url(#SVGID_00000064324409284523559300000016303025582030195384_);fill:#2C265F;}
	.st54{clip-path:url(#SVGID_00000016043519672979120060000012873123308151739534_);fill:#FFFFFF;}
	.st55{clip-path:url(#SVGID_00000168104693874565447420000012990416731125171893_);fill:#2B2961;}
	.st56{clip-path:url(#SVGID_00000018943210179258409440000013525467146868521873_);fill:#FFFFFF;}
	.st57{clip-path:url(#SVGID_00000026885176506145849120000007140196380168335028_);fill:#2B2961;}
	.st58{clip-path:url(#SVGID_00000106128944921940628070000005968785923924425353_);fill:#FFFFFF;}
	.st59{clip-path:url(#SVGID_00000116940899701667016740000008797475911602874532_);fill:#2B2961;}
	.st60{clip-path:url(#SVGID_00000116940899701667016740000008797475911602874532_);fill:#FFFFFF;}
	.st61{clip-path:url(#SVGID_00000056393068128789631360000002281620390746738051_);fill:#2B2961;}
	.st62{clip-path:url(#SVGID_00000144307459506462528420000006586932622790236042_);fill:#FFFFFF;}
	.st63{clip-path:url(#SVGID_00000152982339215785789690000005210209578012530352_);fill:#2B2961;}
	.st64{clip-path:url(#SVGID_00000054957119319460418080000009071964664560922796_);fill:#FFFFFF;}
	.st65{clip-path:url(#SVGID_00000054957119319460418080000009071964664560922796_);fill:#2B2961;}
	.st66{clip-path:url(#SVGID_00000083811020949232434480000015284596628740143541_);fill:#2B2961;}
	.st67{clip-path:url(#SVGID_00000083811020949232434480000015284596628740143541_);fill:#6EC3BF;}
	.st68{clip-path:url(#SVGID_00000083811020949232434480000015284596628740143541_);fill:#FFFFFF;}
	.st69{clip-path:url(#SVGID_00000114781154431662417380000014774513200488654496_);fill:#2B2961;}
	.st70{clip-path:url(#SVGID_00000154410241738034448550000015304814221756788664_);fill:#2B2961;}
	.st71{clip-path:url(#SVGID_00000042730070255734101610000002757104450482077611_);fill:#2B2961;}
	.st72{clip-path:url(#SVGID_00000031188948737478840360000003976204020140008326_);fill:#2B2961;}
	.st73{clip-path:url(#SVGID_00000183931220078940754610000000123645894466012055_);fill:#2B2961;}
	.st74{clip-path:url(#SVGID_00000023978662582198620150000000581119426318632090_);fill:#FFFFFF;}
	.st75{clip-path:url(#SVGID_00000023978662582198620150000000581119426318632090_);fill:#6EC3BF;}
	.st76{clip-path:url(#SVGID_00000044897150730918875520000011557278902303068085_);fill:#2B2961;}
	.st77{clip-path:url(#SVGID_00000034791020951899711990000007459310955922693783_);fill:#2B2961;}
	.st78{clip-path:url(#SVGID_00000034791020951899711990000007459310955922693783_);fill:#FFFFFF;}
	.st79{clip-path:url(#SVGID_00000029753899400401165330000013822870181329509298_);fill:#2B2961;}
	.st80{clip-path:url(#SVGID_00000100357945889215173000000009332255171628853135_);fill:#FFFFFF;}
	.st81{clip-path:url(#SVGID_00000041977055216959614690000007829739695032958636_);fill:#2B2961;}
	.st82{clip-path:url(#SVGID_00000011748568102857908700000012964230935274564766_);fill:#2B2961;}
	.st83{clip-path:url(#SVGID_00000061444265040793142710000000584243115633824679_);fill:#2B2961;}
	.st84{clip-path:url(#SVGID_00000036221173752935988670000004100509247774566566_);fill:#FFFFFF;}
	.st85{clip-path:url(#SVGID_00000098917019218820307690000001636936184228519870_);fill:#FFFFFF;}
	.st86{clip-path:url(#SVGID_00000181052078198543818200000005725496800854195362_);fill:#2B2961;}
	.st87{clip-path:url(#SVGID_00000113316026531524887270000015865575981135857575_);fill:#2B2961;}
	.st88{clip-path:url(#SVGID_00000113316026531524887270000015865575981135857575_);fill:#FFFFFF;}
	.st89{clip-path:url(#SVGID_00000107562004362839257180000001407027487418932116_);fill:#2B2961;}
	.st90{clip-path:url(#SVGID_00000005228843045210483720000017155053259544687021_);fill:#FFFFFF;}
	.st91{clip-path:url(#SVGID_00000178179005442489025380000005222400526015877527_);fill:#6EC3BF;}
	.st92{clip-path:url(#SVGID_00000178179005442489025380000005222400526015877527_);fill:#2B2961;}
	.st93{clip-path:url(#SVGID_00000088825557215858667290000009301142727665140899_);fill:#6EC3BF;}
	.st94{clip-path:url(#SVGID_00000137825341872513825500000003659526508284418726_);fill:#2B2961;}
	.st95{clip-path:url(#SVGID_00000050639411062078186430000015286121091536912537_);fill:#2B2961;}
	.st96{clip-path:url(#SVGID_00000151545493437726411940000010957956236294340513_);fill:#2B2961;}
	.st97{clip-path:url(#SVGID_00000026150324381988336470000013309282395598522257_);fill:#2B2961;}
	.st98{clip-path:url(#SVGID_00000116933309602384936570000017256929042801991077_);fill:#2B2961;}
	.st99{clip-path:url(#SVGID_00000116933309602384936570000017256929042801991077_);fill:#6EC3BF;}
	.st100{clip-path:url(#SVGID_00000002373558428753728890000005314568020348620175_);fill:#2B2961;}
	.st101{clip-path:url(#SVGID_00000029019331706477642620000013630169167052747149_);fill:#2B2961;}
	.st102{clip-path:url(#SVGID_00000029019331706477642620000013630169167052747149_);fill:#6EC3BF;}
	.st103{clip-path:url(#SVGID_00000150809958746532005450000006050901824414203271_);fill:#2B2961;}
	.st104{clip-path:url(#SVGID_00000166655271003119198550000014158769456486807181_);fill:#FFFFFF;}
	.st105{clip-path:url(#SVGID_00000166655271003119198550000014158769456486807181_);fill:#2B2961;}
	.st106{clip-path:url(#SVGID_00000183208578665249794200000016664088834333991615_);fill:#6EC3BF;}
	.st107{clip-path:url(#SVGID_00000032634226576833771360000006682808625266530738_);fill:#2B2961;}
	.st108{clip-path:url(#SVGID_00000015346231399893176480000010704521126398306188_);fill:#2B2961;}
	.st109{clip-path:url(#SVGID_00000015346231399893176480000010704521126398306188_);fill:#FFFFFF;}
	.st110{clip-path:url(#SVGID_00000175317888153431572540000011383860354007210687_);fill:#6EC3BF;}
	.st111{clip-path:url(#SVGID_00000140720363196243934850000005328036463031958707_);fill:#2B2961;}
	.st112{clip-path:url(#SVGID_00000107558211130161082760000007571489956210863774_);fill:#2B2961;}
	.st113{clip-path:url(#SVGID_00000107558211130161082760000007571489956210863774_);fill:#6EC3BF;}
	.st114{clip-path:url(#SVGID_00000150095940530368280210000001922078767144255166_);fill:#2B2961;}
	.st115{clip-path:url(#SVGID_00000015329399847569708940000013744445543211909526_);fill:#6EC3BF;}
	.st116{clip-path:url(#SVGID_00000015329399847569708940000013744445543211909526_);fill:#2B2961;}
	.st117{clip-path:url(#SVGID_00000101784448246341710330000003729668703324232874_);fill:#2B2961;}
	.st118{clip-path:url(#SVGID_00000129188846782377010820000000963104260139638409_);fill:#FFFFFF;}
	.st119{clip-path:url(#SVGID_00000129188846782377010820000000963104260139638409_);}
	.st120{clip-path:url(#SVGID_00000072965482248366955400000011426109026156364944_);fill:#2B2961;}
	.st121{clip-path:url(#SVGID_00000129188846782377010820000000963104260139638409_);fill:#6EC3BF;}
	.st122{clip-path:url(#SVGID_00000081635482253936933710000001369265404152670133_);fill:#2B2961;}
	.st123{clip-path:url(#SVGID_00000129188846782377010820000000963104260139638409_);fill:#2B2961;}
	.st124{clip-path:url(#SVGID_00000098934654992336311120000017929172010563936438_);fill:#2B2961;}
	.st125{clip-path:url(#SVGID_00000103259444244116611190000010461478009444861569_);fill:#2B2961;}
	.st126{clip-path:url(#SVGID_00000100352578287794477450000011451670922975745408_);}
	.st127{clip-path:url(#SVGID_00000166655602244860446900000006558844304306321852_);}
	.st128{clip-path:url(#SVGID_00000065795868311760231870000010360013191720600972_);fill:#FFFFFF;}
	.st129{clip-path:url(#SVGID_00000068657587729561401430000015830769135984525195_);fill:#2B2961;}
	.st130{clip-path:url(#SVGID_00000001624807305196189170000013376951597422492074_);fill:#2B2961;}
	.st131{clip-path:url(#SVGID_00000001624807305196189170000013376951597422492074_);fill:#6EC3BF;}
	.st132{clip-path:url(#SVGID_00000001624807305196189170000013376951597422492074_);fill:#FFFFFF;}
	.st133{clip-path:url(#SVGID_00000167362424795089860480000002755444763268653222_);fill:#2B2961;}
	.st134{clip-path:url(#SVGID_00000167362424795089860480000002755444763268653222_);fill:#6EC3BF;}
	.st135{clip-path:url(#SVGID_00000096019843962820019350000008655777886611974559_);fill:#2B2961;}
	.st136{clip-path:url(#SVGID_00000071548481059720584980000015586707331998828464_);fill:#6EC3BF;}
	.st137{clip-path:url(#SVGID_00000071548481059720584980000015586707331998828464_);fill:#FFFFFF;}
	.st138{clip-path:url(#SVGID_00000103981231821061914060000014540459903859269801_);fill:#2B2961;}
	.st139{clip-path:url(#SVGID_00000103981231821061914060000014540459903859269801_);fill:#6EC3BF;}
	.st140{clip-path:url(#SVGID_00000034773170105975016430000005780655950607487137_);fill:#2B2961;}
	.st141{clip-path:url(#SVGID_00000160871629329770306970000004111488214475518885_);fill:#2B2961;}
	.st142{clip-path:url(#SVGID_00000160871629329770306970000004111488214475518885_);fill:#FFFFFF;}
	.st143{clip-path:url(#SVGID_00000034088584518251803990000003848382313734386312_);fill:#2B2961;}
	.st144{clip-path:url(#SVGID_00000096781986180681158710000008838408463285825160_);fill:#FFFFFF;}
	.st145{clip-path:url(#SVGID_00000000213507224949866150000012574954640891872669_);fill:#2B2961;}
	.st146{clip-path:url(#SVGID_00000160875600734453473570000012276646279854125478_);fill:#2B2961;}
	.st147{clip-path:url(#SVGID_00000160875600734453473570000012276646279854125478_);fill:#FFFFFF;}
	.st148{clip-path:url(#SVGID_00000003819563538669675380000003233174946679533980_);fill:#2B2961;}
	.st149{clip-path:url(#SVGID_00000050646241902148381760000007038880279775717014_);fill:#2B2961;}
	.st150{clip-path:url(#SVGID_00000050646241902148381760000007038880279775717014_);fill:#FFFFFF;}
	.st151{clip-path:url(#SVGID_00000082338369536690162760000017030323133415399043_);fill:#2B2961;}
	.st152{clip-path:url(#SVGID_00000082338369536690162760000017030323133415399043_);fill:#6EC3BF;}
	.st153{clip-path:url(#SVGID_00000168078036360671554350000010711849614182907554_);fill:#1D1D1B;}
	.st154{clip-path:url(#SVGID_00000168078036360671554350000010711849614182907554_);fill:#2B2961;}
	.st155{clip-path:url(#SVGID_00000168078036360671554350000010711849614182907554_);fill:#FFFFFF;}
	.st156{clip-path:url(#SVGID_00000041266193666336372270000014385797371506676904_);fill:#2B2961;}
	.st157{clip-path:url(#SVGID_00000182492612670246716840000016415945277165200277_);fill:#2B2961;}
	.st158{clip-path:url(#SVGID_00000014626176206334927950000010090992544604924589_);fill:#2B2961;}
	.st159{clip-path:url(#SVGID_00000014626176206334927950000010090992544604924589_);fill:#FFFFFF;}
	.st160{clip-path:url(#SVGID_00000014626176206334927950000010090992544604924589_);fill:#6EC3BF;}
	.st161{clip-path:url(#SVGID_00000038408678711011780330000001836939330734053261_);fill:#2B2961;}
	.st162{clip-path:url(#SVGID_00000152262562849887315990000007842808853210944128_);fill:#2B2961;}
	.st163{clip-path:url(#SVGID_00000029036371163105731940000015771084211284707753_);fill:#2B2961;}
	.st164{clip-path:url(#SVGID_00000079487730674947146340000011536097888302786693_);fill:#2B2961;}
	.st165{clip-path:url(#SVGID_00000079487730674947146340000011536097888302786693_);fill:#FFFFFF;}
	.st166{clip-path:url(#SVGID_00000108301105719525397780000002014207664124831646_);fill:#2B2961;}
	.st167{clip-path:url(#SVGID_00000108301105719525397780000002014207664124831646_);fill:#FFFFFF;}
	.st168{clip-path:url(#SVGID_00000056423793602476169710000011916860464934674317_);fill:#2B2961;}
	.st169{clip-path:url(#SVGID_00000127036933275351745040000017902281080220998328_);fill:#2B2961;}
	.st170{clip-path:url(#SVGID_00000127036933275351745040000017902281080220998328_);fill:#FFFFFF;}
	.st171{clip-path:url(#SVGID_00000098188901526331417570000016996410810919083455_);fill:#2B2961;}
	.st172{clip-path:url(#SVGID_00000018200376378042973290000014392498873414443193_);fill:#FFFFFF;}
	.st173{clip-path:url(#SVGID_00000142870266264727209600000006246507075295345835_);fill:#2B2961;}
	.st174{clip-path:url(#SVGID_00000142870266264727209600000006246507075295345835_);fill:#6EC3BF;}
	.st175{clip-path:url(#SVGID_00000165202793769157355840000006885270819403669412_);fill:#2B2961;}
	.st176{clip-path:url(#SVGID_00000047740517421450934130000010907804583167097737_);fill:#2B2961;}
	.st177{clip-path:url(#SVGID_00000036221624020064636660000015866018144287571078_);fill:#FFFFFF;}
	.st178{clip-path:url(#SVGID_00000008148443636175250180000008080904509461600180_);fill:#6EC3BF;}
	.st179{clip-path:url(#SVGID_00000008148443636175250180000008080904509461600180_);fill:#2B2961;}
	.st180{clip-path:url(#SVGID_00000008859184574167929290000016164156555664052402_);fill:#6EC3BF;}
	.st181{clip-path:url(#SVGID_00000048480257499947689780000018145845011240376485_);fill:#2B2961;}
	.st182{clip-path:url(#SVGID_00000153698898605680370840000002129635194580134033_);fill:#6EC3BF;}
	.st183{clip-path:url(#SVGID_00000153698898605680370840000002129635194580134033_);fill:#2B2961;}
	.st184{clip-path:url(#SVGID_00000162314960071221720850000008305661211999014332_);fill:#2B2961;}
	.st185{clip-path:url(#SVGID_00000110438101130617430240000014771592723855620023_);fill:#2B2961;}
	.st186{clip-path:url(#SVGID_00000103228034800272044250000018413183678360509575_);fill:#2B2961;}
	.st187{clip-path:url(#SVGID_00000045619520309856595280000010208922158566368447_);fill:#2B2961;}
	.st188{clip-path:url(#SVGID_00000140727999051787854180000007156164140369484699_);fill:#2B2961;}
	.st189{clip-path:url(#SVGID_00000180367528686312853450000000860060215302426756_);fill:#6EC3BF;}
	.st190{clip-path:url(#SVGID_00000180367528686312853450000000860060215302426756_);fill:#2B2961;}
	.st191{clip-path:url(#SVGID_00000122678166418589597260000001936309105843238826_);fill:#6EC3BF;}
	.st192{clip-path:url(#SVGID_00000122678166418589597260000001936309105843238826_);fill:#2B2961;}
	.st193{clip-path:url(#SVGID_00000078006872035991159950000006288072177532022968_);fill:#2B2961;}
	.st194{clip-path:url(#SVGID_00000142886405284090071780000013446148590049689510_);fill:#2B2961;}
	.st195{clip-path:url(#SVGID_00000103238326458656926880000000971068954609066884_);fill:#2B2961;}
	.st196{clip-path:url(#SVGID_00000008854298083576829070000000906838062714056338_);fill:#FFFFFF;}
	.st197{clip-path:url(#SVGID_00000144300681333092692610000002815220471036106116_);fill:#2B2961;}
	.st198{clip-path:url(#SVGID_00000129909257353236182860000015193016567784896412_);fill:#2B2961;}
	.st199{clip-path:url(#SVGID_00000129909257353236182860000015193016567784896412_);fill:#6EC3BF;}
	.st200{clip-path:url(#SVGID_00000016768716496711007560000008656432058365634463_);fill:#2B2961;}
	.st201{clip-path:url(#SVGID_00000074406259824067321270000016132514904625904553_);fill:#2B2961;}
	.st202{clip-path:url(#SVGID_00000116922825870917336550000011494008479731139750_);fill:#6EC3BF;}
	.st203{clip-path:url(#SVGID_00000116922825870917336550000011494008479731139750_);fill:#2B2961;}
	.st204{clip-path:url(#SVGID_00000041993733508346204290000003449642757357962421_);fill:#6EC3BF;}
	.st205{clip-path:url(#SVGID_00000041993733508346204290000003449642757357962421_);fill:#2B2961;}
	.st206{clip-path:url(#SVGID_00000106860837794224816850000003431718679540768923_);fill:#2B2961;}
	.st207{clip-path:url(#SVGID_00000025437747309637128510000017758290478622563491_);fill:#2B2961;}
	.st208{clip-path:url(#SVGID_00000025437747309637128510000017758290478622563491_);fill:#6EC3BF;}
	.st209{clip-path:url(#SVGID_00000152247696678217259660000010124792946554953386_);fill:#2B2961;}
	.st210{clip-path:url(#SVGID_00000152247696678217259660000010124792946554953386_);fill:#6EC3BF;}
	.st211{clip-path:url(#SVGID_00000086658988718692563500000014304659978454331815_);fill:#2B2961;}
	.st212{clip-path:url(#SVGID_00000086658988718692563500000014304659978454331815_);fill:#6EC3BF;}
	.st213{clip-path:url(#SVGID_00000084512320865775832800000011437254509142691724_);fill:#2B2961;}
	.st214{clip-path:url(#SVGID_00000052787690591424031000000012125113291676341120_);fill:#6EC3BF;}
	.st215{clip-path:url(#SVGID_00000052787690591424031000000012125113291676341120_);fill:#2B2961;}
	.st216{clip-path:url(#SVGID_00000053536907168381565510000008671775039370210468_);fill:#6EC3BF;}
	.st217{clip-path:url(#SVGID_00000053536907168381565510000008671775039370210468_);fill:#2B2961;}
	.st218{clip-path:url(#SVGID_00000082329783191379993100000013329309541140878223_);fill:#FFFFFF;}
	.st219{clip-path:url(#SVGID_00000082329783191379993100000013329309541140878223_);fill:#2B2961;}
	.st220{clip-path:url(#SVGID_00000018197197810075123280000017784102299317506230_);fill:#FFFFFF;}
	.st221{clip-path:url(#SVGID_00000018197197810075123280000017784102299317506230_);fill:#2B2961;}
	.st222{clip-path:url(#SVGID_00000037678283937683801980000017206271108433866914_);fill:#FFFFFF;}
	.st223{clip-path:url(#SVGID_00000037678283937683801980000017206271108433866914_);fill:#2B2961;}
	.st224{clip-path:url(#SVGID_00000014613071920908028620000017420654424662146968_);fill:#6EC3BF;}
	.st225{clip-path:url(#SVGID_00000014613071920908028620000017420654424662146968_);fill:#2B2961;}
	.st226{clip-path:url(#SVGID_00000101820170694727939760000001792179530732653748_);fill:#2B2961;}
	.st227{clip-path:url(#SVGID_00000101820170694727939760000001792179530732653748_);fill:#6EC3BF;}
	.st228{clip-path:url(#SVGID_00000176005253948501535910000004352548562069609143_);fill:#2B2961;}
	.st229{clip-path:url(#SVGID_00000003818125378828295030000012696538319686504886_);fill:#6EC3BF;}
	.st230{clip-path:url(#SVGID_00000003818125378828295030000012696538319686504886_);fill:#2B2961;}
	.st231{clip-path:url(#SVGID_00000181047967721170750120000004414914173604801155_);fill:#2B2961;}
	.st232{clip-path:url(#SVGID_00000038415152457544853830000005829674055960691595_);fill:#2B2961;}
	.st233{clip-path:url(#SVGID_00000038415152457544853830000005829674055960691595_);fill:#6EC3BF;}
	.st234{clip-path:url(#SVGID_00000070813048539350851080000017058069722476783794_);fill:#2B2961;}
	.st235{clip-path:url(#SVGID_00000086661508951446484600000008896636018308648578_);fill:#FFFFFF;}
	.st236{clip-path:url(#SVGID_00000086661508951446484600000008896636018308648578_);fill:#2B2961;}
	.st237{fill:#2C265F;}
	.st238{clip-path:url(#SVGID_00000079478452717364975570000011571751468471011485_);fill:#2B2961;}
	.st239{clip-path:url(#SVGID_00000079478452717364975570000011571751468471011485_);fill:#6EC3BF;}
	.st240{fill:#61B87A;}
	.st241{clip-path:url(#SVGID_00000113339918450644405950000016400350347713967506_);fill:#2B2961;}
	.st242{clip-path:url(#SVGID_00000131333777461486346240000013084730460035952537_);fill:#2B2961;}
	.st243{clip-path:url(#SVGID_00000128458176772818994060000017742337097013058205_);fill:#2B2961;}
	.st244{clip-path:url(#SVGID_00000088109060054847646900000000553346801049498505_);fill:#2B2961;}
	.st245{clip-path:url(#SVGID_00000088109060054847646900000000553346801049498505_);fill:#61B87A;}
	.st246{clip-path:url(#SVGID_00000088109060054847646900000000553346801049498505_);fill:#FFFFFF;}
	.st247{clip-path:url(#SVGID_00000139989418163508058820000002397694395781005974_);fill:#2B2961;}
	.st248{clip-path:url(#SVGID_00000139989418163508058820000002397694395781005974_);fill:#61B87A;}
	.st249{clip-path:url(#SVGID_00000176017957146137162090000010762940085598456246_);fill:#2B2961;}
	.st250{clip-path:url(#SVGID_00000155136822017434632480000007546909816744365977_);fill:#6EC3BF;}
	.st251{clip-path:url(#SVGID_00000155136822017434632480000007546909816744365977_);fill:#2B2961;}
	.st252{clip-path:url(#SVGID_00000047028375693550574290000000081288144571953842_);fill:#2B2961;}
	.st253{clip-path:url(#SVGID_00000047028375693550574290000000081288144571953842_);fill:#6EC3BF;}
	.st254{clip-path:url(#SVGID_00000137853416679071579640000012488414548840587668_);fill:#2B2961;}
	.st255{clip-path:url(#SVGID_00000137853416679071579640000012488414548840587668_);fill:#6EC3BF;}
</style>
<g>
	<g>
		<defs>
			<rect id="SVGID_00000105386015662135771860000012919349474810072718_" y="64.89" width="512" height="382.22"/>
		</defs>
		<clipPath id="SVGID_00000047778174910858119430000001233576440812363139_">
			<use xlink:href="#SVGID_00000105386015662135771860000012919349474810072718_"  style="overflow:visible;"/>
		</clipPath>
		<path style="clip-path:url(#SVGID_00000047778174910858119430000001233576440812363139_);fill:#6EC3BF;" d="M468.93,204.42H64.61
			l49.47-115.11h305.38L468.93,204.42z M88.82,300.7c0-10.85,8.88-19.54,19.84-19.54c10.97,0,19.85,8.69,19.85,19.54
			c0,10.68-8.88,19.55-19.85,19.55C97.71,320.25,88.82,311.38,88.82,300.7 M169.76,281.16h189.48v39.09H169.76V281.16z
			 M406.54,300.7c0-10.85,8.88-19.54,19.85-19.54c10.96,0,19.84,8.69,19.84,19.54c0,10.68-8.88,19.55-19.84,19.55
			C415.42,320.25,406.54,311.38,406.54,300.7 M510.54,216.91v-21.9h-33.59L425.81,67.97H107.74L56.67,194.83H22.25v21.89h25.64
			l-0.09,0.19h-0.58v150.21h13.61v76.55h65.42v-76.55h282.56v76.55h65.42v-76.55h12.1V216.91h-0.58h-0.02H510.54z"/>
		<path style="clip-path:url(#SVGID_00000047778174910858119430000001233576440812363139_);fill:#6EC3BF;" d="M474.23,445.13h-65.42
			c-0.81,0-1.46-0.65-1.46-1.46v-75.09H127.7v75.09c0,0.81-0.65,1.46-1.46,1.46H60.83c-0.81,0-1.46-0.65-1.46-1.46v-75.09H47.22
			c-0.81,0-1.46-0.65-1.46-1.46V218.18H22.25c-0.81,0-1.46-0.65-1.46-1.46v-21.89c0-0.81,0.65-1.46,1.46-1.46h33.44l50.7-125.95
			c0.22-0.55,0.76-0.92,1.35-0.92h318.07c0.6,0,1.13,0.36,1.35,0.92l50.77,126.12h32.6c0.81,0,1.46,0.65,1.46,1.46v21.9
			c0,0.81-0.65,1.46-1.46,1.46h-22.75v148.76c0,0.81-0.65,1.46-1.46,1.46h-10.65v75.09C475.68,444.48,475.03,445.13,474.23,445.13z
			 M410.27,442.21h62.5v-75.09c0-0.81,0.65-1.46,1.46-1.46h10.65V218.09c-0.36-0.27-0.6-0.7-0.6-1.18c0-0.81,0.65-1.46,1.46-1.46
			h23.35v-18.99h-32.13c-0.6,0-1.13-0.36-1.35-0.92L424.83,69.43h-316.1l-50.7,125.95c-0.22,0.55-0.76,0.92-1.35,0.92H23.71v18.97
			h24.19c0.51,0,0.98,0.26,1.24,0.69c0.27,0.43,0.29,0.97,0.07,1.42c-0.11,0.23-0.3,0.45-0.52,0.63v147.66h12.15
			c0.81,0,1.46,0.65,1.46,1.46v75.09h62.5v-75.09c0-0.81,0.65-1.46,1.46-1.46h282.56c0.81,0,1.46,0.65,1.46,1.46V442.21z
			 M426.39,321.7c-11.75,0-21.31-9.43-21.31-21.01c0-11.58,9.56-21,21.31-21c11.74,0,21.3,9.42,21.3,21
			C447.69,312.28,438.14,321.7,426.39,321.7z M426.39,282.61c-10.14,0-18.39,8.11-18.39,18.08c0,9.98,8.25,18.09,18.39,18.09
			c10.13,0,18.38-8.12,18.38-18.09C444.77,290.72,436.53,282.61,426.39,282.61z M359.24,321.7H169.76c-0.81,0-1.46-0.65-1.46-1.46
			v-39.09c0-0.81,0.65-1.46,1.46-1.46h189.48c0.81,0,1.46,0.65,1.46,1.46v39.09C360.69,321.05,360.04,321.7,359.24,321.7z
			 M171.22,318.79h186.56v-36.17H171.22V318.79z M108.66,321.7c-11.74,0-21.3-9.43-21.3-21.01c0-11.58,9.55-21,21.3-21
			c11.75,0,21.31,9.42,21.31,21C129.97,312.28,120.41,321.7,108.66,321.7z M108.66,282.61c-10.13,0-18.38,8.11-18.38,18.08
			c0,9.98,8.25,18.09,18.38,18.09c10.14,0,18.39-8.12,18.39-18.09C127.06,290.72,118.8,282.61,108.66,282.61z M468.93,205.88H64.61
			c-0.49,0-0.95-0.25-1.22-0.66c-0.27-0.41-0.32-0.93-0.12-1.38l49.47-115.11c0.23-0.54,0.76-0.88,1.34-0.88h305.38
			c0.58,0,1.11,0.34,1.34,0.88l49.47,115.11c0.2,0.45,0.15,0.97-0.12,1.38C469.88,205.63,469.42,205.88,468.93,205.88z
			 M66.83,202.96h399.88L418.5,90.77H115.04L66.83,202.96z"/>
		<path style="clip-path:url(#SVGID_00000047778174910858119430000001233576440812363139_);fill:#2B2961;" d="M455.16,446.96h-65.37
			c-1.92,0-3.48-1.56-3.48-3.47V370.6H110.87v72.89c0,1.92-1.56,3.47-3.48,3.47H42.03c-1.92,0-3.48-1.56-3.48-3.47V370.6H28.42
			c-1.92,0-3.48-1.56-3.48-3.47V220.19H3.47c-1.92,0-3.48-1.56-3.48-3.47V195c0-1.92,1.56-3.47,3.48-3.47h32.05L85.68,66.85
			c0.53-1.32,1.8-2.18,3.22-2.18h317.88c1.42,0,2.69,0.86,3.22,2.17l50.22,124.69h31.22c1.92,0,3.48,1.56,3.48,3.47v21.9
			c0,1.92-1.56,3.47-3.48,3.47h-20.72v146.74c0,1.92-1.56,3.47-3.48,3.47h-8.62v72.89C458.64,445.4,457.08,446.96,455.16,446.96z
			 M393.26,440.01h58.42v-72.89c0-1.92,1.56-3.47,3.48-3.47h8.62v-144.8c-0.37-0.55-0.59-1.22-0.59-1.94c0-1.92,1.56-3.47,3.48-3.47
			c0.01,0,0.01,0,0.01,0h21.3v-14.96h-30.09c-1.42,0-2.69-0.86-3.22-2.17L404.43,71.62H91.25L41.09,196.3
			c-0.53,1.32-1.8,2.18-3.22,2.18H6.95v14.77h22.14c1.2,0,2.31,0.61,2.94,1.63c0.64,1.01,0.7,2.28,0.18,3.36
			c-0.09,0.19-0.2,0.37-0.32,0.54v144.88h10.13c1.92,0,3.48,1.56,3.48,3.47v72.89h58.42v-72.89c0-1.92,1.56-3.47,3.48-3.47h282.39
			c1.92,0,3.48,1.56,3.48,3.47V440.01z M407.35,323.54c-12.85,0-23.31-10.25-23.31-22.84c0-12.69,10.45-23.01,23.31-23.01
			c12.85,0,23.31,10.32,23.31,23.01C430.66,313.29,420.2,323.54,407.35,323.54z M407.35,284.63c-9.02,0-16.36,7.21-16.36,16.07
			c0,8.77,7.34,15.9,16.36,15.9c9.02,0,16.36-7.13,16.36-15.9C423.71,291.84,416.37,284.63,407.35,284.63z M340.25,323.54H150.89
			c-1.92,0-3.48-1.56-3.48-3.47v-38.91c0-1.92,1.56-3.47,3.48-3.47h189.36c1.92,0,3.48,1.56,3.48,3.47v38.91
			C343.73,321.98,342.17,323.54,340.25,323.54z M154.37,316.59h182.41v-31.96H154.37V316.59z M89.84,323.54
			c-12.86,0-23.32-10.25-23.32-22.84c0-12.69,10.46-23.01,23.32-23.01c12.85,0,23.3,10.32,23.3,23.01
			C113.14,313.29,102.69,323.54,89.84,323.54z M89.84,284.63c-9.03,0-16.37,7.21-16.37,16.07c0,8.77,7.34,15.9,16.37,15.9
			c9.02,0,16.35-7.13,16.35-15.9C106.19,291.84,98.86,284.63,89.84,284.63z M449.87,207.89H45.82c-1.17,0-2.26-0.59-2.9-1.56
			c-0.64-0.98-0.75-2.21-0.29-3.29L92.06,88.13c0.55-1.27,1.8-2.1,3.19-2.1h305.18c1.39,0,2.64,0.83,3.19,2.1l49.43,114.92
			c0.46,1.07,0.35,2.31-0.29,3.29C452.13,207.31,451.04,207.89,449.87,207.89z M51.09,200.95h393.5L398.15,92.97H97.54L51.09,200.95
			z"/>
	</g>
</g>
</svg>
