<?xml version="1.0" encoding="UTF-8"?> <!-- Generator: Adobe Illustrator 24.2.1, SVG Export Plug-In . SVG Version: 6.00 Build 0) --> <svg xmlns="http://www.w3.org/2000/svg" xmlns:xlink="http://www.w3.org/1999/xlink" version="1.1" id="Ebene_1" x="0px" y="0px" viewBox="0 0 338.1 629.4" style="enable-background:new 0 0 338.1 629.4;" xml:space="preserve"> <style type="text/css"> .st0{fill:#88D0CB;} .st1{fill:#62C6BF;} .st2{fill:#292C68;} .st3{font-family:'DINPro-Bold';} .st4{font-size:13px;} .st5{fill:#FFFFFF;} .st6{fill:none;stroke:#2A2C68;stroke-width:0.6;stroke-linejoin:round;} .st7{fill:#2A2C68;} .st8{font-family:'DINPro-Medium';} .st9{font-size:9.5px;} </style> <g id="Layer-1_5_"> <path class="st0" d="M59,615.3h279.1v14.2H59V615.3z"></path> </g> <g id="Layer-1_6_"> <path class="st0" d="M59,453.3h279.1v14.2H59V453.3z"></path> </g> <g id="Layer-1_7_"> <path class="st0" d="M21.1,290.9h317.1v14.2H21.1V290.9z"></path> </g> <g id="Layer-1_8_"> <path class="st0" d="M261.2,129.3h76.9v14.2h-76.9V129.3z"></path> </g> <g id="Layer-1_9_"> <path class="st1" d="M338,622.7h-54.2V33.1H338V622.7z"></path> </g> <g id="Layer-1_10_"> <text transform="matrix(0 -1 1 0 306.8149 497.6001)" class="st2 st3 st4">M</text> <text transform="matrix(0 -1 1 0 306.8149 486.7954)" class="st2 st3 st4">ö</text> <text transform="matrix(0 -1 1 0 306.8149 479.4771)" class="st2 st3 st4">g</text> <text transform="matrix(0 -1 1 0 306.8149 472.0024)" class="st2 st3 st4">l</text> <text transform="matrix(0 -1 1 0 306.8149 467.5181)" class="st2 st3 st4">i</text> <text transform="matrix(0 -1 1 0 306.8149 463.6821)" class="st2 st3 st4">c</text> <text transform="matrix(0 -1 1 0 306.8149 457.1821)" class="st2 st3 st4">h</text> <text transform="matrix(0 -1 1 0 306.8149 449.4731)" class="st2 st3 st4">k</text> <text transform="matrix(0 -1 1 0 306.8149 442.4673)" class="st2 st3 st4">e</text> <text transform="matrix(0 -1 1 0 306.8149 435.0825)" class="st2 st3 st4">i</text> <text transform="matrix(0 -1 1 0 306.8149 431.2466)" class="st2 st3 st4">t</text> <text transform="matrix(0 -1 1 0 306.8149 426.4771)" class="st2 st3 st4">e</text> <text transform="matrix(0 -1 1 0 306.8149 419.0923)" class="st2 st3 st4">n</text> <text transform="matrix(0 -1 1 0 306.8149 411.3833)" class="st2 st3 st4"> </text> <text transform="matrix(0 -1 1 0 306.8149 408.1079)" class="st2 st3 st4">n</text> <text transform="matrix(0 -1 1 0 306.8149 400.3989)" class="st2 st3 st4">a</text> <text transform="matrix(0 -1 1 0 306.8149 393.1958)" class="st2 st3 st4">c</text> <text transform="matrix(0 -1 1 0 306.8149 386.6958)" class="st2 st3 st4">h</text> <text transform="matrix(0 -1 1 0 306.8149 378.9868)" class="st2 st3 st4"> </text> <text transform="matrix(0 -1 1 0 306.8149 375.7114)" class="st2 st3 st4">d</text> <text transform="matrix(0 -1 1 0 306.8149 368.1587)" class="st2 st3 st4">e</text> <text transform="matrix(0 -1 1 0 306.8149 360.7739)" class="st2 st3 st4">r</text> <text transform="matrix(0 -1 1 0 306.8149 354.6001)" class="st2 st3 st4"> </text> <text transform="matrix(0 -1 1 0 306.8149 351.3228)" class="st2 st3 st4">F</text> <text transform="matrix(0 -1 1 0 306.8149 343.7837)" class="st2 st3 st4">a</text> <text transform="matrix(0 -1 1 0 306.8149 336.5806)" class="st2 st3 st4">c</text> <text transform="matrix(0 -1 1 0 306.8149 330.0806)" class="st2 st3 st4">h</text> <text transform="matrix(0 -1 1 0 306.8149 322.3716)" class="st2 st3 st4">s</text> <text transform="matrix(0 -1 1 0 306.8149 315.6001)" class="st2 st3 st4">c</text> <text transform="matrix(0 -1 1 0 306.8149 309.1001)" class="st2 st3 st4">h</text> <text transform="matrix(0 -1 1 0 306.8149 301.3911)" class="st2 st3 st4">u</text> <text transform="matrix(0 -1 1 0 306.8149 293.6821)" class="st2 st3 st4">l</text> <text transform="matrix(0 -1 1 0 306.8149 289.1958)" class="st2 st3 st4">r</text> <text transform="matrix(0 -1 1 0 306.8149 283.4106)" class="st2 st3 st4">e</text> <text transform="matrix(0 -1 1 0 306.8149 276.0278)" class="st2 st3 st4">i</text> <text transform="matrix(0 -1 1 0 306.8149 272.1919)" class="st2 st3 st4">f</text> <text transform="matrix(0 -1 1 0 306.8149 267.6821)" class="st2 st3 st4">e</text> <text transform="matrix(0 -1 1 0 306.8149 260.2974)" class="st2 st3 st4"> </text> <text transform="matrix(0 -1 1 0 306.8149 257.022)" class="st2 st3 st4">(</text> <text transform="matrix(0 -1 1 0 306.8149 252.3931)" class="st2 st3 st4">M</text> <text transform="matrix(0 -1 1 0 306.8149 241.5903)" class="st2 st3 st4">i</text> <text transform="matrix(0 -1 1 0 306.8149 237.7544)" class="st2 st3 st4">t</text> <text transform="matrix(0 -1 1 0 306.8149 232.9185)" class="st2 st3 st4">t</text> <text transform="matrix(0 -1 1 0 306.8149 228.0825)" class="st2 st3 st4">l</text> <text transform="matrix(0 -1 1 0 306.8149 223.729)" class="st2 st3 st4">e</text> <text transform="matrix(0 -1 1 0 306.8149 216.3442)" class="st2 st3 st4">r</text> <text transform="matrix(0 -1 1 0 306.8149 210.561)" class="st2 st3 st4">e</text> <text transform="matrix(0 -1 1 0 306.8149 203.1763)" class="st2 st3 st4"> </text> <text transform="matrix(0 -1 1 0 306.8149 199.9009)" class="st2 st3 st4">R</text> <text transform="matrix(0 -1 1 0 306.8149 191.5278)" class="st2 st3 st4">e</text> <text transform="matrix(0 -1 1 0 306.8149 184.145)" class="st2 st3 st4">i</text> <text transform="matrix(0 -1 1 0 306.8149 180.3091)" class="st2 st3 st4">f</text> <text transform="matrix(0 -1 1 0 306.8149 175.7993)" class="st2 st3 st4">e</text> <text transform="matrix(0 -1 1 0 306.8149 168.4146)" class="st2 st3 st4">)</text> </g> <g id="Layer-1_11_"> <text transform="matrix(0 -1 1 0 322.4149 531.3657)" class="st5 st3 st4">O</text> <text transform="matrix(0 -1 1 0 322.4149 522.7349)" class="st5 st3 st4">p</text> <text transform="matrix(0 -1 1 0 322.4149 515.1938)" class="st5 st3 st4">t</text> <text transform="matrix(0 -1 1 0 322.4149 510.3579)" class="st5 st3 st4">i</text> <text transform="matrix(0 -1 1 0 322.4149 506.5239)" class="st5 st3 st4">o</text> <text transform="matrix(0 -1 1 0 322.4149 499.2036)" class="st5 st3 st4">n</text> <text transform="matrix(0 -1 1 0 322.4149 491.4946)" class="st5 st3 st4">s</text> <text transform="matrix(0 -1 1 0 322.4149 484.7231)" class="st5 st3 st4"> </text> <text transform="matrix(0 -1 1 0 322.4149 481.4458)" class="st5 st3 st4">w</text> <text transform="matrix(0 -1 1 0 322.4149 471.3188)" class="st5 st3 st4">i</text> <text transform="matrix(0 -1 1 0 322.4149 467.4849)" class="st5 st3 st4">t</text> <text transform="matrix(0 -1 1 0 322.4149 462.6489)" class="st5 st3 st4">h</text> <text transform="matrix(0 -1 1 0 322.4149 454.9399)" class="st5 st3 st4"> </text> <text transform="matrix(0 -1 1 0 322.4149 451.6626)" class="st5 st3 st4">a</text> <text transform="matrix(0 -1 1 0 322.4149 444.4614)" class="st5 st3 st4">n</text> <text transform="matrix(0 -1 1 0 322.4149 436.7524)" class="st5 st3 st4"> </text> <text transform="matrix(0 -1 1 0 322.4149 433.4771)" class="st5 st3 st4">i</text> <text transform="matrix(0 -1 1 0 322.4149 429.6411)" class="st5 st3 st4">n</text> <text transform="matrix(0 -1 1 0 322.4149 421.9321)" class="st5 st3 st4">t</text> <text transform="matrix(0 -1 1 0 322.4149 417.1606)" class="st5 st3 st4">e</text> <text transform="matrix(0 -1 1 0 322.4149 409.7778)" class="st5 st3 st4">r</text> <text transform="matrix(0 -1 1 0 322.4149 403.6021)" class="st5 st3 st4">m</text> <text transform="matrix(0 -1 1 0 322.4149 391.9536)" class="st5 st3 st4">e</text> <text transform="matrix(0 -1 1 0 322.4149 384.5708)" class="st5 st3 st4">d</text> <text transform="matrix(0 -1 1 0 322.4149 377.0181)" class="st5 st3 st4">i</text> <text transform="matrix(0 -1 1 0 322.4149 373.1821)" class="st5 st3 st4">a</text> <text transform="matrix(0 -1 1 0 322.4149 365.981)" class="st5 st3 st4">t</text> <text transform="matrix(0 -1 1 0 322.4149 361.2095)" class="st5 st3 st4">e</text> <text transform="matrix(0 -1 1 0 322.4149 353.8247)" class="st5 st3 st4"> </text> <text transform="matrix(0 -1 1 0 322.4149 350.5493)" class="st5 st3 st4">s</text> <text transform="matrix(0 -1 1 0 322.4149 343.7759)" class="st5 st3 st4">e</text> <text transform="matrix(0 -1 1 0 322.4149 336.3931)" class="st5 st3 st4">c</text> <text transform="matrix(0 -1 1 0 322.4149 330.0884)" class="st5 st3 st4">o</text> <text transform="matrix(0 -1 1 0 322.4149 322.7681)" class="st5 st3 st4">n</text> <text transform="matrix(0 -1 1 0 322.4149 315.0591)" class="st5 st3 st4">d</text> <text transform="matrix(0 -1 1 0 322.4149 307.5063)" class="st5 st3 st4">a</text> <text transform="matrix(0 -1 1 0 322.4149 300.3052)" class="st5 st3 st4">r</text> <text transform="matrix(0 -1 1 0 322.4149 294.1294)" class="st5 st3 st4">y</text> <text transform="matrix(0 -1 1 0 322.4149 287.4478)" class="st5 st3 st4"> </text> <text transform="matrix(0 -1 1 0 322.4149 284.1724)" class="st5 st3 st4">s</text> <text transform="matrix(0 -1 1 0 322.4149 277.3989)" class="st5 st3 st4">c</text> <text transform="matrix(0 -1 1 0 322.4149 270.8989)" class="st5 st3 st4">h</text> <text transform="matrix(0 -1 1 0 322.4149 263.1899)" class="st5 st3 st4">o</text> <text transform="matrix(0 -1 1 0 322.4149 255.8696)" class="st5 st3 st4">o</text> <text transform="matrix(0 -1 1 0 322.4149 248.5513)" class="st5 st3 st4">l</text> <text transform="matrix(0 -1 1 0 322.4149 244.0669)" class="st5 st3 st4"> </text> <text transform="matrix(0 -1 1 0 322.4149 240.7896)" class="st5 st3 st4">l</text> <text transform="matrix(0 -1 1 0 322.4149 236.436)" class="st5 st3 st4">e</text> <text transform="matrix(0 -1 1 0 322.4149 229.0513)" class="st5 st3 st4">a</text> <text transform="matrix(0 -1 1 0 322.4149 221.8501)" class="st5 st3 st4">v</text> <text transform="matrix(0 -1 1 0 322.4149 215.1802)" class="st5 st3 st4">i</text> <text transform="matrix(0 -1 1 0 322.4149 211.3462)" class="st5 st3 st4">n</text> <text transform="matrix(0 -1 1 0 322.4149 203.6372)" class="st5 st3 st4">g</text> <text transform="matrix(0 -1 1 0 322.4149 196.1606)" class="st5 st3 st4"> </text> <text transform="matrix(0 -1 1 0 322.4149 192.8853)" class="st5 st3 st4">c</text> <text transform="matrix(0 -1 1 0 322.4149 186.5806)" class="st5 st3 st4">e</text> <text transform="matrix(0 -1 1 0 322.4149 179.1958)" class="st5 st3 st4">r</text> <text transform="matrix(0 -1 1 0 322.4149 173.022)" class="st5 st3 st4">t</text> <text transform="matrix(0 -1 1 0 322.4149 168.186)" class="st5 st3 st4">i</text> <text transform="matrix(0 -1 1 0 322.4149 164.3501)" class="st5 st3 st4">f</text> <text transform="matrix(0 -1 1 0 322.4149 159.645)" class="st5 st3 st4">i</text> <text transform="matrix(0 -1 1 0 322.4149 155.8091)" class="st5 st3 st4">c</text> <text transform="matrix(0 -1 1 0 322.4149 149.3735)" class="st5 st3 st4">a</text> <text transform="matrix(0 -1 1 0 322.4149 142.1724)" class="st5 st3 st4">t</text> <text transform="matrix(0 -1 1 0 322.4149 137.4009)" class="st5 st3 st4">e</text> </g> <path class="st6" d="M338.1,629.1h-54v-596h54V629.1z"></path> <g id="Layer-1_12_"> <path class="st1" d="M262,135.9H127.3V0H262V135.9z"></path> </g> <g id="Layer-1_13_"> <path class="st1" d="M262,297.4H33V161.5h229V297.4z"></path> </g> <g id="Layer-1_14_"> <path class="st1" d="M262.1,460.1H70.7V324.2h191.4V460.1z"></path> </g> <g id="Layer-1_15_"> <path class="st1" d="M262.1,622.1H172V486.2h90.1V622.1z"></path> </g> <g id="Layer-1_16_"> <path class="st1" d="M161.1,622.1H71V486.2h90.1V622.1z"></path> </g> <g id="Layer-1_17_"> <text transform="matrix(0 -0.96 1 0 150.9722 128.7915)" class="st2 st3 st4">D</text> <text transform="matrix(0 -0.96 1 0 150.9722 120.3169)" class="st2 st3 st4">u</text> <text transform="matrix(0 -0.96 1 0 150.9722 112.9165)" class="st2 st3 st4">a</text> <text transform="matrix(0 -0.96 1 0 150.9722 106.0024)" class="st2 st3 st4">l</text> <text transform="matrix(0 -0.96 1 0 150.9722 101.8208)" class="st2 st3 st4">e</text> <text transform="matrix(0 -0.96 1 0 150.9722 94.7329)" class="st2 st3 st4"> </text> <text transform="matrix(0 -0.96 1 0 150.9722 91.5884)" class="st2 st3 st4">/</text> <text transform="matrix(0 -0.96 1 0 150.9722 86.3091)" class="st2 st3 st4"> </text> <text transform="matrix(0 -0.96 1 0 150.9722 83.1646)" class="st2 st3 st4">b</text> <text transform="matrix(0 -0.96 1 0 150.9722 75.9263)" class="st2 st3 st4">e</text> <text transform="matrix(0 -0.96 1 0 150.9722 68.8364)" class="st2 st3 st4">t</text> <text transform="matrix(0 -0.96 1 0 150.9722 64.1958)" class="st2 st3 st4">r</text> <text transform="matrix(0 -0.96 1 0 150.9722 58.2661)" class="st2 st3 st4">i</text> <text transform="matrix(0 -0.96 1 0 150.9722 54.5845)" class="st2 st3 st4">e</text> <text transform="matrix(0 -0.96 1 0 150.9722 47.4966)" class="st2 st3 st4">b</text> <text transform="matrix(0 -0.96 1 0 150.9722 40.2583)" class="st2 st3 st4">l</text> <text transform="matrix(0 -0.96 1 0 150.9722 35.9536)" class="st2 st3 st4">i</text> <text transform="matrix(0 -0.96 1 0 150.9722 32.272)" class="st2 st3 st4">c</text> <text transform="matrix(0 -0.96 1 0 150.9722 26.0317)" class="st2 st3 st4">h</text> <text transform="matrix(0 -0.96 1 0 150.9722 18.6313)" class="st2 st3 st4">e</text> <text transform="matrix(0 -0.96 1 0 150.9722 11.7915)" class="st2 st3 st4"> </text> </g> <g id="Layer-1_18_"> <text transform="matrix(0 -0.96 1 0 166.5718 103.3892)" class="st2 st3 st4">A</text> <text transform="matrix(0 -0.96 1 0 166.5718 95.1763)" class="st2 st3 st4">u</text> <text transform="matrix(0 -0.96 1 0 166.5718 87.7759)" class="st2 st3 st4">s</text> <text transform="matrix(0 -0.96 1 0 166.5718 81.2739)" class="st2 st3 st4">b</text> <text transform="matrix(0 -0.96 1 0 166.5718 74.0356)" class="st2 st3 st4">i</text> <text transform="matrix(0 -0.96 1 0 166.5718 70.354)" class="st2 st3 st4">l</text> <text transform="matrix(0 -0.96 1 0 166.5718 66.1743)" class="st2 st3 st4">d</text> <text transform="matrix(0 -0.96 1 0 166.5718 58.9224)" class="st2 st3 st4">u</text> <text transform="matrix(0 -0.96 1 0 166.5718 51.522)" class="st2 st3 st4">n</text> <text transform="matrix(0 -0.96 1 0 166.5718 44.1216)" class="st2 st3 st4">g</text> </g> <g id="Layer-1_19_"> <text transform="matrix(0 -0.96 1 0 182.1714 119.6802)" class="st5 st3 st4">D</text> <text transform="matrix(0 -0.96 1 0 182.1714 111.2075)" class="st5 st3 st4">u</text> <text transform="matrix(0 -0.96 1 0 182.1714 103.8071)" class="st5 st3 st4">a</text> <text transform="matrix(0 -0.96 1 0 182.1714 96.8931)" class="st5 st3 st4">l</text> <text transform="matrix(0 -0.96 1 0 182.1714 92.5864)" class="st5 st3 st4"> </text> <text transform="matrix(0 -0.96 1 0 182.1714 89.4419)" class="st5 st3 st4">v</text> <text transform="matrix(0 -0.96 1 0 182.1714 83.1665)" class="st5 st3 st4">o</text> <text transform="matrix(0 -0.96 1 0 182.1714 76.1392)" class="st5 st3 st4">c</text> <text transform="matrix(0 -0.96 1 0 182.1714 69.9614)" class="st5 st3 st4">a</text> <text transform="matrix(0 -0.96 1 0 182.1714 63.0493)" class="st5 st3 st4">t</text> <text transform="matrix(0 -0.96 1 0 182.1714 58.4067)" class="st5 st3 st4">i</text> <text transform="matrix(0 -0.96 1 0 182.1714 54.7251)" class="st5 st3 st4">o</text> <text transform="matrix(0 -0.96 1 0 182.1714 47.6978)" class="st5 st3 st4">n</text> <text transform="matrix(0 -0.96 1 0 182.1714 40.2974)" class="st5 st3 st4">a</text> <text transform="matrix(0 -0.96 1 0 182.1714 33.3833)" class="st5 st3 st4">l</text> <text transform="matrix(0 -0.96 1 0 182.1714 29.0786)" class="st5 st3 st4"> </text> <text transform="matrix(0 -0.96 1 0 182.1714 25.9321)" class="st5 st3 st4">/</text> <text transform="matrix(0 -0.96 1 0 182.1714 20.9028)" class="st5 st3 st4"> </text> </g> <g id="Layer-1_20_"> <text transform="matrix(0 -0.96 1 0 197.772 129.5278)" class="st5 st3 st4">i</text> <text transform="matrix(0 -0.96 1 0 197.772 125.8462)" class="st5 st3 st4">n</text> <text transform="matrix(0 -0.96 1 0 197.772 118.4458)" class="st5 st3 st4">-</text> <text transform="matrix(0 -0.96 1 0 197.772 112.8794)" class="st5 st3 st4">c</text> <text transform="matrix(0 -0.96 1 0 197.772 106.8267)" class="st5 st3 st4">o</text> <text transform="matrix(0 -0.96 1 0 197.772 99.7993)" class="st5 st3 st4">m</text> <text transform="matrix(0 -0.96 1 0 197.772 88.6177)" class="st5 st3 st4">p</text> <text transform="matrix(0 -0.96 1 0 197.772 81.3794)" class="st5 st3 st4">a</text> <text transform="matrix(0 -0.96 1 0 197.772 74.4653)" class="st5 st3 st4">n</text> <text transform="matrix(0 -0.96 1 0 197.772 67.0649)" class="st5 st3 st4">y</text> <text transform="matrix(0 -0.96 1 0 197.772 60.6509)" class="st5 st3 st4"> </text> <text transform="matrix(0 -0.96 1 0 197.772 57.5063)" class="st5 st3 st4">t</text> <text transform="matrix(0 -0.96 1 0 197.772 52.8638)" class="st5 st3 st4">r</text> <text transform="matrix(0 -0.96 1 0 197.772 47.0591)" class="st5 st3 st4">a</text> <text transform="matrix(0 -0.96 1 0 197.772 40.147)" class="st5 st3 st4">i</text> <text transform="matrix(0 -0.96 1 0 197.772 36.4653)" class="st5 st3 st4">n</text> <text transform="matrix(0 -0.96 1 0 197.772 29.063)" class="st5 st3 st4">i</text> <text transform="matrix(0 -0.96 1 0 197.772 25.3813)" class="st5 st3 st4">n</text> <text transform="matrix(0 -0.96 1 0 197.772 17.981)" class="st5 st3 st4">g</text> </g> <g id="Layer-1_21_"> <text transform="matrix(0 -1 1 0 224.3715 125.9321)" class="st7 st8 st9">B</text> <text transform="matrix(0 -1 1 0 224.3715 119.5396)" class="st7 st8 st9">e</text> <text transform="matrix(0 -1 1 0 224.3715 114.3247)" class="st7 st8 st9">t</text> <text transform="matrix(0 -1 1 0 224.3715 110.979)" class="st7 st8 st9">r</text> <text transform="matrix(0 -1 1 0 224.3715 106.7153)" class="st7 st8 st9">i</text> <text transform="matrix(0 -1 1 0 224.3715 104.1118)" class="st7 st8 st9">e</text> <text transform="matrix(0 -1 1 0 224.3715 98.895)" class="st7 st8 st9">b</text> <text transform="matrix(0 -1 1 0 224.3715 93.5474)" class="st7 st8 st9"> </text> <text transform="matrix(0 -1 1 0 224.3715 91.1724)" class="st7 st8 st9">u</text> <text transform="matrix(0 -1 1 0 224.3715 85.6821)" class="st7 st8 st9">n</text> <text transform="matrix(0 -1 1 0 224.3715 80.1899)" class="st7 st8 st9">d</text> <text transform="matrix(0 -1 1 0 224.3715 74.8423)" class="st7 st8 st9"> </text> <text transform="matrix(0 -1 1 0 224.3715 72.4673)" class="st7 st8 st9">B</text> <text transform="matrix(0 -1 1 0 224.3715 66.0728)" class="st7 st8 st9">e</text> <text transform="matrix(0 -1 1 0 224.3715 60.8579)" class="st7 st8 st9">r</text> </g> <g id="Layer-1_22_"> <text transform="matrix(0 -1 1 0 224.3715 56.5942)" class="st7 st8 st9">u</text> <text transform="matrix(0 -1 1 0 224.3715 51.1021)" class="st7 st8 st9">f</text> <text transform="matrix(0 -1 1 0 224.3715 48.0337)" class="st7 st8 st9">s</text> <text transform="matrix(0 -1 1 0 224.3715 43.2466)" class="st7 st8 st9">s</text> <text transform="matrix(0 -1 1 0 224.3715 38.4106)" class="st7 st8 st9">c</text> <text transform="matrix(0 -1 1 0 224.3715 33.7075)" class="st7 st8 st9">h</text> <text transform="matrix(0 -1 1 0 224.3715 28.2173)" class="st7 st8 st9">u</text> <text transform="matrix(0 -1 1 0 224.3715 22.7251)" class="st7 st8 st9">l</text> <text transform="matrix(0 -1 1 0 224.3715 19.772)" class="st7 st8 st9">e</text> </g> <g id="Layer-1_23_"> <text transform="matrix(0 -0.95 1 0 235.3716 98.0532)" class="st5 st8 st9">C</text> <text transform="matrix(0 -0.95 1 0 235.3716 92.2954)" class="st5 st8 st9">o</text> <text transform="matrix(0 -0.95 1 0 235.3716 87.3579)" class="st5 st8 st9">m</text> <text transform="matrix(0 -0.95 1 0 235.3716 79.353)" class="st5 st8 st9">p</text> <text transform="matrix(0 -0.95 1 0 235.3716 74.272)" class="st5 st8 st9">a</text> <text transform="matrix(0 -0.95 1 0 235.3716 69.3989)" class="st5 st8 st9">n</text> <text transform="matrix(0 -0.95 1 0 235.3716 64.1821)" class="st5 st8 st9">y</text> <text transform="matrix(0 -0.95 1 0 235.3716 59.8687)" class="st5 st8 st9"> </text> <text transform="matrix(0 -0.95 1 0 235.3716 57.6118)" class="st5 st8 st9">a</text> <text transform="matrix(0 -0.95 1 0 235.3716 52.7388)" class="st5 st8 st9">n</text> <text transform="matrix(0 -0.95 1 0 235.3716 47.522)" class="st5 st8 st9">d</text> <text transform="matrix(0 -0.95 1 0 235.3716 42.5317)" class="st5 st8 st9"> </text> </g> <g id="Layer-1_24_"> <text transform="matrix(0 -0.95 1 0 246.3716 105.9272)" class="st5 st8 st9">v</text> <text transform="matrix(0 -0.95 1 0 246.3716 101.6763)" class="st5 st8 st9">o</text> <text transform="matrix(0 -0.95 1 0 246.3716 96.7397)" class="st5 st8 st9">c</text> <text transform="matrix(0 -0.95 1 0 246.3716 92.3169)" class="st5 st8 st9">a</text> <text transform="matrix(0 -0.95 1 0 246.3716 87.4438)" class="st5 st8 st9">t</text> <text transform="matrix(0 -0.95 1 0 246.3716 84.2671)" class="st5 st8 st9">i</text> <text transform="matrix(0 -0.95 1 0 246.3716 81.7944)" class="st5 st8 st9">o</text> <text transform="matrix(0 -0.95 1 0 246.3716 76.8579)" class="st5 st8 st9">n</text> <text transform="matrix(0 -0.95 1 0 246.3716 71.6411)" class="st5 st8 st9">a</text> <text transform="matrix(0 -0.95 1 0 246.3716 66.7681)" class="st5 st8 st9">l</text> <text transform="matrix(0 -0.95 1 0 246.3716 63.8706)" class="st5 st8 st9"> </text> <text transform="matrix(0 -0.95 1 0 246.3716 61.6147)" class="st5 st8 st9">s</text> <text transform="matrix(0 -0.95 1 0 246.3716 57.021)" class="st5 st8 st9">c</text> <text transform="matrix(0 -0.95 1 0 246.3716 52.5532)" class="st5 st8 st9">h</text> <text transform="matrix(0 -0.95 1 0 246.3716 47.3364)" class="st5 st8 st9">o</text> <text transform="matrix(0 -0.95 1 0 246.3716 42.3999)" class="st5 st8 st9">o</text> <text transform="matrix(0 -0.95 1 0 246.3716 37.4634)" class="st5 st8 st9">l</text> </g> <g id="Layer-1_25_"> <text transform="matrix(0 -1 1 0 98.4314 264.9302)" class="st2 st3 st4">B</text> <text transform="matrix(0 -1 1 0 98.4314 256.1157)" class="st2 st3 st4">e</text> <text transform="matrix(0 -1 1 0 98.4314 248.7329)" class="st2 st3 st4">r</text> <text transform="matrix(0 -1 1 0 98.4314 242.5571)" class="st2 st3 st4">u</text> <text transform="matrix(0 -1 1 0 98.4314 234.8481)" class="st2 st3 st4">f</text> <text transform="matrix(0 -1 1 0 98.4314 230.1431)" class="st2 st3 st4">l</text> <text transform="matrix(0 -1 1 0 98.4314 225.6567)" class="st2 st3 st4">i</text> <text transform="matrix(0 -1 1 0 98.4314 221.8228)" class="st2 st3 st4">c</text> <text transform="matrix(0 -1 1 0 98.4314 215.3228)" class="st2 st3 st4">h</text> <text transform="matrix(0 -1 1 0 98.4314 207.6138)" class="st2 st3 st4">e</text> </g> <g id="Layer-1_26_"> <text transform="matrix(0 -1 1 0 114.0314 266.3989)" class="st2 st3 st4">G</text> <text transform="matrix(0 -1 1 0 114.0314 257.7017)" class="st2 st3 st4">y</text> <text transform="matrix(0 -1 1 0 114.0314 251.02)" class="st2 st3 st4">m</text> <text transform="matrix(0 -1 1 0 114.0314 239.3716)" class="st2 st3 st4">n</text> <text transform="matrix(0 -1 1 0 114.0314 231.6626)" class="st2 st3 st4">a</text> <text transform="matrix(0 -1 1 0 114.0314 224.4614)" class="st2 st3 st4">s</text> <text transform="matrix(0 -1 1 0 114.0314 217.688)" class="st2 st3 st4">i</text> <text transform="matrix(0 -1 1 0 114.0314 213.854)" class="st2 st3 st4">e</text> <text transform="matrix(0 -1 1 0 114.0314 206.4692)" class="st2 st3 st4">n</text> </g> <g id="Layer-1_27_"> <text transform="matrix(0 -1 1 0 129.6314 264.397)" class="st5 st3 st4">V</text> <text transform="matrix(0 -1 1 0 129.6314 257.104)" class="st5 st3 st4">o</text> <text transform="matrix(0 -1 1 0 129.6314 249.7856)" class="st5 st3 st4">c</text> <text transform="matrix(0 -1 1 0 129.6314 243.3501)" class="st5 st3 st4">a</text> <text transform="matrix(0 -1 1 0 129.6314 236.1489)" class="st5 st3 st4">t</text> <text transform="matrix(0 -1 1 0 129.6314 231.313)" class="st5 st3 st4">i</text> <text transform="matrix(0 -1 1 0 129.6314 227.4771)" class="st5 st3 st4">o</text> <text transform="matrix(0 -1 1 0 129.6314 220.1587)" class="st5 st3 st4">n</text> <text transform="matrix(0 -1 1 0 129.6314 212.4497)" class="st5 st3 st4">a</text> <text transform="matrix(0 -1 1 0 129.6314 205.2466)" class="st5 st3 st4">l</text> <text transform="matrix(0 -1 1 0 129.6314 201.022)" class="st5 st3 st4"> </text> </g> <g id="Layer-1_28_"> <text transform="matrix(0 -1 1 0 145.2314 285.8208)" class="st5 st3 st4">s</text> <text transform="matrix(0 -1 1 0 145.2314 279.0474)" class="st5 st3 st4">e</text> <text transform="matrix(0 -1 1 0 145.2314 271.6646)" class="st5 st3 st4">c</text> <text transform="matrix(0 -1 1 0 145.2314 265.3599)" class="st5 st3 st4">o</text> <text transform="matrix(0 -1 1 0 145.2314 258.0396)" class="st5 st3 st4">n</text> <text transform="matrix(0 -1 1 0 145.2314 250.3306)" class="st5 st3 st4">d</text> <text transform="matrix(0 -1 1 0 145.2314 242.7778)" class="st5 st3 st4">a</text> <text transform="matrix(0 -1 1 0 145.2314 235.5767)" class="st5 st3 st4">r</text> <text transform="matrix(0 -1 1 0 145.2314 229.4009)" class="st5 st3 st4">y</text> <text transform="matrix(0 -1 1 0 145.2314 222.7192)" class="st5 st3 st4"> </text> <text transform="matrix(0 -1 1 0 145.2314 219.4438)" class="st5 st3 st4">s</text> <text transform="matrix(0 -1 1 0 145.2314 212.6704)" class="st5 st3 st4">c</text> <text transform="matrix(0 -1 1 0 145.2314 206.1704)" class="st5 st3 st4">h</text> <text transform="matrix(0 -1 1 0 145.2314 198.4614)" class="st5 st3 st4">o</text> <text transform="matrix(0 -1 1 0 145.2314 191.1411)" class="st5 st3 st4">o</text> <text transform="matrix(0 -1 1 0 145.2314 183.8228)" class="st5 st3 st4">l</text> </g> <g id="Layer-1_29_"> <text transform="matrix(0 -1 1 0 171.8314 263.2388)" class="st7 st8 st9">D</text> <text transform="matrix(0 -1 1 0 171.8314 256.8169)" class="st7 st8 st9">a</text> <text transform="matrix(0 -1 1 0 171.8314 251.686)" class="st7 st8 st9">u</text> <text transform="matrix(0 -1 1 0 171.8314 246.1958)" class="st7 st8 st9">e</text> <text transform="matrix(0 -1 1 0 171.8314 240.979)" class="st7 st8 st9">r</text> <text transform="matrix(0 -1 1 0 171.8314 236.7134)" class="st7 st8 st9"> </text> <text transform="matrix(0 -1 1 0 171.8314 234.3384)" class="st7 st8 st9">3</text> <text transform="matrix(0 -1 1 0 171.8314 229.1802)" class="st7 st8 st9"> </text> <text transform="matrix(0 -1 1 0 171.8314 226.8052)" class="st7 st8 st9">J</text> <text transform="matrix(0 -1 1 0 171.8314 221.9028)" class="st7 st8 st9">a</text> </g> <g id="Layer-1_30_"> <text transform="matrix(0 -1 1 0 171.8314 216.7739)" class="st7 st8 st9">h</text> <text transform="matrix(0 -1 1 0 171.8314 211.2837)" class="st7 st8 st9">r</text> <text transform="matrix(0 -1 1 0 171.8314 207.3032)" class="st7 st8 st9">e</text> <text transform="matrix(0 -1 1 0 171.8314 202.1821)" class="st7 st8 st9"> </text> </g> <g id="Layer-1_31_"> <text transform="matrix(0 -1 1 0 182.8314 271.1138)" class="st5 st8 st9"> </text> <text transform="matrix(0 -1 1 0 182.8314 268.7388)" class="st5 st8 st9">D</text> <text transform="matrix(0 -1 1 0 182.8314 262.3169)" class="st5 st8 st9">u</text> <text transform="matrix(0 -1 1 0 182.8314 256.8247)" class="st5 st8 st9">r</text> <text transform="matrix(0 -1 1 0 182.8314 252.6548)" class="st5 st8 st9">a</text> <text transform="matrix(0 -1 1 0 182.8314 247.5239)" class="st5 st8 st9">t</text> <text transform="matrix(0 -1 1 0 182.8314 244.1802)" class="st5 st8 st9">i</text> <text transform="matrix(0 -1 1 0 182.8314 241.5786)" class="st5 st8 st9">o</text> <text transform="matrix(0 -1 1 0 182.8314 236.3813)" class="st5 st8 st9">n</text> <text transform="matrix(0 -1 1 0 182.8314 230.8911)" class="st5 st8 st9">:</text> <text transform="matrix(0 -1 1 0 182.8314 227.9165)" class="st5 st8 st9"> </text> <text transform="matrix(0 -1 1 0 182.8314 225.5415)" class="st5 st8 st9">3</text> <text transform="matrix(0 -1 1 0 182.8314 220.3833)" class="st5 st8 st9"> </text> <text transform="matrix(0 -1 1 0 182.8314 218.0083)" class="st5 st8 st9">y</text> <text transform="matrix(0 -1 1 0 182.8314 213.563)" class="st5 st8 st9">e</text> <text transform="matrix(0 -1 1 0 182.8314 208.3462)" class="st5 st8 st9">a</text> <text transform="matrix(0 -1 1 0 182.8314 203.2173)" class="st5 st8 st9">r</text> <text transform="matrix(0 -1 1 0 182.8314 199.0454)" class="st5 st8 st9">s</text> </g> <g id="Layer-1_32_"> <text transform="matrix(0 -1 1 0 193.8314 287.5669)" class="st7 st8 st9">v</text> <text transform="matrix(0 -1 1 0 193.8314 283.0923)" class="st7 st8 st9">e</text> <text transform="matrix(0 -1 1 0 193.8314 277.8774)" class="st7 st8 st9">r</text> <text transform="matrix(0 -1 1 0 193.8314 273.7075)" class="st7 st8 st9">s</text> <text transform="matrix(0 -1 1 0 193.8314 268.8716)" class="st7 st8 st9">c</text> <text transform="matrix(0 -1 1 0 193.8314 264.1685)" class="st7 st8 st9">h</text> <text transform="matrix(0 -1 1 0 193.8314 258.6782)" class="st7 st8 st9">i</text> <text transform="matrix(0 -1 1 0 193.8314 256.0747)" class="st7 st8 st9">e</text> <text transform="matrix(0 -1 1 0 193.8314 250.8599)" class="st7 st8 st9">d</text> <text transform="matrix(0 -1 1 0 193.8314 245.5103)" class="st7 st8 st9">e</text> <text transform="matrix(0 -1 1 0 193.8314 240.2954)" class="st7 st8 st9">n</text> <text transform="matrix(0 -1 1 0 193.8314 234.8032)" class="st7 st8 st9">e</text> <text transform="matrix(0 -1 1 0 193.8314 229.5884)" class="st7 st8 st9"> </text> <text transform="matrix(0 -1 1 0 193.8314 227.2134)" class="st7 st8 st9">R</text> <text transform="matrix(0 -1 1 0 193.8314 220.895)" class="st7 st8 st9">i</text> <text transform="matrix(0 -1 1 0 193.8314 218.2935)" class="st7 st8 st9">c</text> <text transform="matrix(0 -1 1 0 193.8314 213.5903)" class="st7 st8 st9">h</text> <text transform="matrix(0 -1 1 0 193.8314 208.1001)" class="st7 st8 st9">t</text> <text transform="matrix(0 -1 1 0 193.8314 204.7563)" class="st7 st8 st9">u</text> <text transform="matrix(0 -1 1 0 193.8314 199.2642)" class="st7 st8 st9">n</text> <text transform="matrix(0 -1 1 0 193.8314 193.7739)" class="st7 st8 st9">g</text> <text transform="matrix(0 -1 1 0 193.8314 188.4634)" class="st7 st8 st9">e</text> <text transform="matrix(0 -1 1 0 193.8314 183.2466)" class="st7 st8 st9">n</text> </g> <g id="Layer-1_33_"> <text transform="matrix(0 -1 1 0 204.8314 273.4653)" class="st5 st8 st9">V</text> <text transform="matrix(0 -1 1 0 204.8314 268.3911)" class="st5 st8 st9">a</text> <text transform="matrix(0 -1 1 0 204.8314 263.2622)" class="st5 st8 st9">r</text> <text transform="matrix(0 -1 1 0 204.8314 258.9966)" class="st5 st8 st9">i</text> <text transform="matrix(0 -1 1 0 204.8314 256.3931)" class="st5 st8 st9">o</text> <text transform="matrix(0 -1 1 0 204.8314 251.1958)" class="st5 st8 st9">u</text> <text transform="matrix(0 -1 1 0 204.8314 245.7056)" class="st5 st8 st9">s</text> <text transform="matrix(0 -1 1 0 204.8314 240.8696)" class="st5 st8 st9"> </text> <text transform="matrix(0 -1 1 0 204.8314 238.4946)" class="st5 st8 st9">d</text> <text transform="matrix(0 -1 1 0 204.8314 233.147)" class="st5 st8 st9">i</text> <text transform="matrix(0 -1 1 0 204.8314 230.5435)" class="st5 st8 st9">s</text> <text transform="matrix(0 -1 1 0 204.8314 225.7075)" class="st5 st8 st9">c</text> <text transform="matrix(0 -1 1 0 204.8314 221.0063)" class="st5 st8 st9">i</text> <text transform="matrix(0 -1 1 0 204.8314 218.4028)" class="st5 st8 st9">p</text> <text transform="matrix(0 -1 1 0 204.8314 213.0532)" class="st5 st8 st9">l</text> <text transform="matrix(0 -1 1 0 204.8314 210.0044)" class="st5 st8 st9">i</text> <text transform="matrix(0 -1 1 0 204.8314 207.4009)" class="st5 st8 st9">n</text> <text transform="matrix(0 -1 1 0 204.8314 201.9106)" class="st5 st8 st9">e</text> <text transform="matrix(0 -1 1 0 204.8314 196.6958)" class="st5 st8 st9">s</text> </g> <g id="Layer-1_34_"> <text transform="matrix(0 -1 1 0 95.4716 414.9849)" class="st7 st8 st9">s</text> <text transform="matrix(0 -1 1 0 95.4716 410.1489)" class="st7 st8 st9">p</text> <text transform="matrix(0 -1 1 0 95.4716 404.8013)" class="st7 st8 st9">e</text> <text transform="matrix(0 -1 1 0 95.4716 399.5845)" class="st7 st8 st9">z</text> </g> <g id="Layer-1_35_"> <text transform="matrix(0 -1 1 0 95.4716 395.0356)" class="st7 st8 st9">i</text> <text transform="matrix(0 -1 1 0 95.4716 392.4321)" class="st7 st8 st9">e</text> <text transform="matrix(0 -1 1 0 95.4716 387.2153)" class="st7 st8 st9">l</text> <text transform="matrix(0 -1 1 0 95.4716 384.1665)" class="st7 st8 st9">l</text> <text transform="matrix(0 -1 1 0 95.4716 381.2114)" class="st7 st8 st9">e</text> </g> <g id="Layer-1_36_"> <text transform="matrix(0 -1 1 0 106.4716 411.3657)" class="st5 st8 st9">S</text> <text transform="matrix(0 -1 1 0 106.4716 405.6646)" class="st5 st8 st9">p</text> <text transform="matrix(0 -1 1 0 106.4716 400.3169)" class="st5 st8 st9">e</text> <text transform="matrix(0 -1 1 0 106.4716 395.1021)" class="st5 st8 st9">c</text> <text transform="matrix(0 -1 1 0 106.4716 390.3989)" class="st5 st8 st9">i</text> <text transform="matrix(0 -1 1 0 106.4716 387.7954)" class="st5 st8 st9">a</text> <text transform="matrix(0 -1 1 0 106.4716 382.6665)" class="st5 st8 st9">l</text> <text transform="matrix(0 -1 1 0 106.4716 379.7114)" class="st5 st8 st9"> </text> </g> <g id="Layer-1_37_"> <text transform="matrix(0 -1 1 0 137.6716 445.0942)" class="st2 st3 st4">2</text> <text transform="matrix(0 -1 1 0 137.6716 437.7739)" class="st2 st3 st4">-</text> <text transform="matrix(0 -1 1 0 137.6716 431.9771)" class="st2 st3 st4"> </text> <text transform="matrix(0 -1 1 0 137.6716 428.7017)" class="st2 st3 st4">u</text> <text transform="matrix(0 -1 1 0 137.6716 420.9927)" class="st2 st3 st4">n</text> <text transform="matrix(0 -1 1 0 137.6716 413.2837)" class="st2 st3 st4">d</text> <text transform="matrix(0 -1 1 0 137.6716 405.729)" class="st2 st3 st4"> </text> <text transform="matrix(0 -1 1 0 137.6716 402.4536)" class="st2 st3 st4">3</text> <text transform="matrix(0 -1 1 0 137.6716 395.1353)" class="st2 st3 st4">-</text> <text transform="matrix(0 -1 1 0 137.6716 389.3364)" class="st2 st3 st4">j</text> <text transform="matrix(0 -1 1 0 137.6716 385.5024)" class="st2 st3 st4">ä</text> <text transform="matrix(0 -1 1 0 137.6716 378.2993)" class="st2 st3 st4">h</text> <text transform="matrix(0 -1 1 0 137.6716 370.5903)" class="st2 st3 st4">r</text> <text transform="matrix(0 -1 1 0 137.6716 364.4165)" class="st2 st3 st4">i</text> <text transform="matrix(0 -1 1 0 137.6716 360.5806)" class="st2 st3 st4">g</text> <text transform="matrix(0 -1 1 0 137.6716 353.106)" class="st2 st3 st4">e</text> </g> <g id="Layer-1_38_"> <text transform="matrix(0 -1 1 0 153.2716 438.4907)" class="st2 st3 st4">B</text> <text transform="matrix(0 -1 1 0 153.2716 429.6763)" class="st2 st3 st4">e</text> <text transform="matrix(0 -1 1 0 153.2716 422.2915)" class="st2 st3 st4">r</text> <text transform="matrix(0 -1 1 0 153.2716 416.1177)" class="st2 st3 st4">u</text> <text transform="matrix(0 -1 1 0 153.2716 408.4087)" class="st2 st3 st4">f</text> <text transform="matrix(0 -1 1 0 153.2716 403.897)" class="st2 st3 st4">s</text> <text transform="matrix(0 -1 1 0 153.2716 397.1235)" class="st2 st3 st4">k</text> <text transform="matrix(0 -1 1 0 153.2716 390.1177)" class="st2 st3 st4">o</text> <text transform="matrix(0 -1 1 0 153.2716 382.7974)" class="st2 st3 st4">l</text> <text transform="matrix(0 -1 1 0 153.2716 378.313)" class="st2 st3 st4">l</text> <text transform="matrix(0 -1 1 0 153.2716 373.9575)" class="st2 st3 st4">e</text> <text transform="matrix(0 -1 1 0 153.2716 366.5747)" class="st2 st3 st4">g</text> <text transform="matrix(0 -1 1 0 153.2716 359.0981)" class="st2 st3 st4">s</text> </g> <g id="Layer-1_39_"> <text transform="matrix(0 -1 1 0 168.8716 433.7896)" class="st5 st3 st4">2</text> <text transform="matrix(0 -1 1 0 168.8716 426.4712)" class="st5 st3 st4"> </text> <text transform="matrix(0 -1 1 0 168.8716 423.1958)" class="st5 st3 st4">a</text> <text transform="matrix(0 -1 1 0 168.8716 415.9927)" class="st5 st3 st4">n</text> <text transform="matrix(0 -1 1 0 168.8716 408.2837)" class="st5 st3 st4">d</text> <text transform="matrix(0 -1 1 0 168.8716 400.731)" class="st5 st3 st4"> </text> <text transform="matrix(0 -1 1 0 168.8716 397.4556)" class="st5 st3 st4">3</text> <text transform="matrix(0 -1 1 0 168.8716 390.1372)" class="st5 st3 st4">-</text> <text transform="matrix(0 -1 1 0 168.8716 384.3384)" class="st5 st3 st4">y</text> <text transform="matrix(0 -1 1 0 168.8716 377.7856)" class="st5 st3 st4">e</text> <text transform="matrix(0 -1 1 0 168.8716 370.4028)" class="st5 st3 st4">a</text> <text transform="matrix(0 -1 1 0 168.8716 363.1997)" class="st5 st3 st4">r</text> <text transform="matrix(0 -1 1 0 168.8716 357.2856)" class="st5 st3 st4"> </text> </g> <g id="Layer-1_40_"> <text transform="matrix(0 -1 1 0 184.4716 424.1646)" class="st5 st3 st4">a</text> <text transform="matrix(0 -1 1 0 184.4716 416.9614)" class="st5 st3 st4">d</text> <text transform="matrix(0 -1 1 0 184.4716 409.4087)" class="st5 st3 st4">v</text> <text transform="matrix(0 -1 1 0 184.4716 402.8052)" class="st5 st3 st4">a</text> <text transform="matrix(0 -1 1 0 184.4716 395.604)" class="st5 st3 st4">n</text> <text transform="matrix(0 -1 1 0 184.4716 387.895)" class="st5 st3 st4">c</text> <text transform="matrix(0 -1 1 0 184.4716 381.5903)" class="st5 st3 st4">e</text> <text transform="matrix(0 -1 1 0 184.4716 374.2056)" class="st5 st3 st4">d</text> <text transform="matrix(0 -1 1 0 184.4716 366.9126)" class="st5 st3 st4"> </text> </g> <g id="Layer-1_41_"> <text transform="matrix(0 -1 1 0 200.0716 448.5396)" class="st5 st3 st4">v</text> <text transform="matrix(0 -1 1 0 200.0716 442.0005)" class="st5 st3 st4">o</text> <text transform="matrix(0 -1 1 0 200.0716 434.6802)" class="st5 st3 st4">c</text> <text transform="matrix(0 -1 1 0 200.0716 428.2466)" class="st5 st3 st4">a</text> <text transform="matrix(0 -1 1 0 200.0716 421.0435)" class="st5 st3 st4">t</text> <text transform="matrix(0 -1 1 0 200.0716 416.2075)" class="st5 st3 st4">i</text> <text transform="matrix(0 -1 1 0 200.0716 412.3735)" class="st5 st3 st4">o</text> <text transform="matrix(0 -1 1 0 200.0716 405.0532)" class="st5 st3 st4">n</text> <text transform="matrix(0 -1 1 0 200.0716 397.3442)" class="st5 st3 st4">a</text> <text transform="matrix(0 -1 1 0 200.0716 390.1431)" class="st5 st3 st4">l</text> <text transform="matrix(0 -1 1 0 200.0716 385.6587)" class="st5 st3 st4"> </text> <text transform="matrix(0 -1 1 0 200.0716 382.3813)" class="st5 st3 st4">s</text> <text transform="matrix(0 -1 1 0 200.0716 375.6099)" class="st5 st3 st4">c</text> <text transform="matrix(0 -1 1 0 200.0716 369.1099)" class="st5 st3 st4">h</text> <text transform="matrix(0 -1 1 0 200.0716 361.4009)" class="st5 st3 st4">o</text> <text transform="matrix(0 -1 1 0 200.0716 354.0806)" class="st5 st3 st4">o</text> <text transform="matrix(0 -1 1 0 200.0716 346.7622)" class="st5 st3 st4">l</text> </g> <g id="Layer-1_42_"> <text transform="matrix(0 -1 1 0 190.0097 602.4009)" class="st2 st3 st4">B</text> <text transform="matrix(0 -1 1 0 190.0097 593.5864)" class="st2 st3 st4">e</text> <text transform="matrix(0 -1 1 0 190.0097 586.2036)" class="st2 st3 st4">r</text> <text transform="matrix(0 -1 1 0 190.0097 580.0278)" class="st2 st3 st4">u</text> <text transform="matrix(0 -1 1 0 190.0097 572.3188)" class="st2 st3 st4">f</text> <text transform="matrix(0 -1 1 0 190.0097 567.8071)" class="st2 st3 st4">s</text> <text transform="matrix(0 -1 1 0 190.0097 561.0356)" class="st2 st3 st4">k</text> <text transform="matrix(0 -1 1 0 190.0097 554.0278)" class="st2 st3 st4">o</text> <text transform="matrix(0 -1 1 0 190.0097 546.7095)" class="st2 st3 st4">l</text> <text transform="matrix(0 -1 1 0 190.0097 542.2231)" class="st2 st3 st4">l</text> <text transform="matrix(0 -1 1 0 190.0097 537.8696)" class="st2 st3 st4">e</text> <text transform="matrix(0 -1 1 0 190.0097 530.4849)" class="st2 st3 st4">g</text> <text transform="matrix(0 -1 1 0 190.0097 523.0103)" class="st2 st3 st4"> </text> <text transform="matrix(0 -1 1 0 190.0097 519.7349)" class="st2 st3 st4">1</text> </g> <g id="Layer-1_43_"> <text transform="matrix(0 -1 1 0 205.6097 619.9185)" class="st5 st3 st4">A</text> <text transform="matrix(0 -1 1 0 205.6097 611.3638)" class="st5 st3 st4">d</text> <text transform="matrix(0 -1 1 0 205.6097 603.811)" class="st5 st3 st4">v</text> <text transform="matrix(0 -1 1 0 205.6097 597.2075)" class="st5 st3 st4">a</text> <text transform="matrix(0 -1 1 0 205.6097 590.0063)" class="st5 st3 st4">n</text> <text transform="matrix(0 -1 1 0 205.6097 582.2974)" class="st5 st3 st4">c</text> <text transform="matrix(0 -1 1 0 205.6097 575.9927)" class="st5 st3 st4">e</text> <text transform="matrix(0 -1 1 0 205.6097 568.6079)" class="st5 st3 st4">d</text> <text transform="matrix(0 -1 1 0 205.6097 561.0552)" class="st5 st3 st4"> </text> <text transform="matrix(0 -1 1 0 205.6097 557.7798)" class="st5 st3 st4">v</text> <text transform="matrix(0 -1 1 0 205.6097 551.2407)" class="st5 st3 st4">o</text> <text transform="matrix(0 -1 1 0 205.6097 543.9224)" class="st5 st3 st4">c</text> <text transform="matrix(0 -1 1 0 205.6097 537.4868)" class="st5 st3 st4">a</text> <text transform="matrix(0 -1 1 0 205.6097 530.2856)" class="st5 st3 st4">t</text> <text transform="matrix(0 -1 1 0 205.6097 525.4497)" class="st5 st3 st4">i</text> <text transform="matrix(0 -1 1 0 205.6097 521.6138)" class="st5 st3 st4">o</text> <text transform="matrix(0 -1 1 0 205.6097 514.2954)" class="st5 st3 st4">n</text> <text transform="matrix(0 -1 1 0 205.6097 506.5864)" class="st5 st3 st4">a</text> <text transform="matrix(0 -1 1 0 205.6097 499.3833)" class="st5 st3 st4">l</text> <text transform="matrix(0 -1 1 0 205.6097 495.1606)" class="st5 st3 st4"> </text> </g> <g id="Layer-1_44_"> <text transform="matrix(0 -1 1 0 222.6097 582.7583)" class="st5 st3 st4">s</text> <text transform="matrix(0 -1 1 0 222.6097 575.9849)" class="st5 st3 st4">c</text> <text transform="matrix(0 -1 1 0 222.6097 569.4849)" class="st5 st3 st4">h</text> <text transform="matrix(0 -1 1 0 222.6097 561.7759)" class="st5 st3 st4">o</text> <text transform="matrix(0 -1 1 0 222.6097 554.4575)" class="st5 st3 st4">o</text> <text transform="matrix(0 -1 1 0 222.6097 547.1392)" class="st5 st3 st4">l</text> <text transform="matrix(0 -1 1 0 222.6097 542.6528)" class="st5 st3 st4"> </text> <text transform="matrix(0 -1 1 0 222.6097 539.3774)" class="st5 st3 st4">1</text> </g> <g id="Layer-1_45_"> <text transform="matrix(0 -1 1 0 241.6097 571.1509)" class="st7 st8 st9">1</text> <text transform="matrix(0 -1 1 0 241.6097 565.9927)" class="st7 st8 st9"> </text> <text transform="matrix(0 -1 1 0 241.6097 563.6177)" class="st7 st8 st9">J</text> </g> <g id="Layer-1_46_"> <text transform="matrix(0 -1 1 0 241.6097 558.7173)" class="st7 st8 st9">a</text> <text transform="matrix(0 -1 1 0 241.6097 553.5864)" class="st7 st8 st9">h</text> <text transform="matrix(0 -1 1 0 241.6097 548.0962)" class="st7 st8 st9">r</text> </g> <g id="Layer-1_47_"> <text transform="matrix(0 -1 1 0 252.6097 570.7856)" class="st5 st8 st9">1</text> <text transform="matrix(0 -1 1 0 252.6097 565.6274)" class="st5 st8 st9"> </text> <text transform="matrix(0 -1 1 0 252.6097 563.2524)" class="st5 st8 st9">y</text> <text transform="matrix(0 -1 1 0 252.6097 558.8071)" class="st5 st8 st9">e</text> <text transform="matrix(0 -1 1 0 252.6097 553.5903)" class="st5 st8 st9">a</text> <text transform="matrix(0 -1 1 0 252.6097 548.4614)" class="st5 st8 st9">r</text> </g> <g id="Layer-1_48_"> <text transform="matrix(0 -1 1 0 85.4911 600.4946)" class="st2 st3 st4">B</text> <text transform="matrix(0 -1 1 0 85.4911 591.6821)" class="st2 st3 st4">e</text> <text transform="matrix(0 -1 1 0 85.4911 584.2974)" class="st2 st3 st4">r</text> <text transform="matrix(0 -1 1 0 85.4911 578.1216)" class="st2 st3 st4">u</text> <text transform="matrix(0 -1 1 0 85.4911 570.4126)" class="st2 st3 st4">f</text> <text transform="matrix(0 -1 1 0 85.4911 565.9028)" class="st2 st3 st4">s</text> <text transform="matrix(0 -1 1 0 85.4911 559.1294)" class="st2 st3 st4">k</text> <text transform="matrix(0 -1 1 0 85.4911 552.1216)" class="st2 st3 st4">o</text> <text transform="matrix(0 -1 1 0 85.4911 544.8032)" class="st2 st3 st4">l</text> <text transform="matrix(0 -1 1 0 85.4911 540.3188)" class="st2 st3 st4">l</text> <text transform="matrix(0 -1 1 0 85.4911 535.9634)" class="st2 st3 st4">e</text> <text transform="matrix(0 -1 1 0 85.4911 528.5786)" class="st2 st3 st4">g</text> <text transform="matrix(0 -1 1 0 85.4911 521.104)" class="st2 st3 st4"> </text> <text transform="matrix(0 -1 1 0 85.4911 517.8286)" class="st2 st3 st4">2</text> </g> <g id="Layer-1_49_"> <text transform="matrix(0 -1 1 0 101.0911 618.0122)" class="st5 st3 st4">A</text> <text transform="matrix(0 -1 1 0 101.0911 609.4595)" class="st5 st3 st4">d</text> <text transform="matrix(0 -1 1 0 101.0911 601.9067)" class="st5 st3 st4">v</text> <text transform="matrix(0 -1 1 0 101.0911 595.3013)" class="st5 st3 st4">a</text> <text transform="matrix(0 -1 1 0 101.0911 588.1001)" class="st5 st3 st4">n</text> <text transform="matrix(0 -1 1 0 101.0911 580.3911)" class="st5 st3 st4">c</text> <text transform="matrix(0 -1 1 0 101.0911 574.0864)" class="st5 st3 st4">e</text> <text transform="matrix(0 -1 1 0 101.0911 566.7036)" class="st5 st3 st4">d</text> <text transform="matrix(0 -1 1 0 101.0911 559.1509)" class="st5 st3 st4"> </text> <text transform="matrix(0 -1 1 0 101.0911 555.8735)" class="st5 st3 st4">v</text> <text transform="matrix(0 -1 1 0 101.0911 549.3345)" class="st5 st3 st4">o</text> <text transform="matrix(0 -1 1 0 101.0911 542.0161)" class="st5 st3 st4">c</text> <text transform="matrix(0 -1 1 0 101.0911 535.5806)" class="st5 st3 st4">a</text> <text transform="matrix(0 -1 1 0 101.0911 528.3794)" class="st5 st3 st4">t</text> <text transform="matrix(0 -1 1 0 101.0911 523.5435)" class="st5 st3 st4">i</text> <text transform="matrix(0 -1 1 0 101.0911 519.7075)" class="st5 st3 st4">o</text> <text transform="matrix(0 -1 1 0 101.0911 512.3892)" class="st5 st3 st4">n</text> <text transform="matrix(0 -1 1 0 101.0911 504.6802)" class="st5 st3 st4">a</text> <text transform="matrix(0 -1 1 0 101.0911 497.479)" class="st5 st3 st4">l</text> <text transform="matrix(0 -1 1 0 101.0911 493.2544)" class="st5 st3 st4"> </text> </g> <g id="Layer-1_50_"> <text transform="matrix(0 -1 1 0 116.6911 580.8521)" class="st5 st3 st4">s</text> <text transform="matrix(0 -1 1 0 116.6911 574.0806)" class="st5 st3 st4">c</text> <text transform="matrix(0 -1 1 0 116.6911 567.5806)" class="st5 st3 st4">h</text> <text transform="matrix(0 -1 1 0 116.6911 559.8716)" class="st5 st3 st4">o</text> <text transform="matrix(0 -1 1 0 116.6911 552.5513)" class="st5 st3 st4">o</text> <text transform="matrix(0 -1 1 0 116.6911 545.2329)" class="st5 st3 st4">l</text> <text transform="matrix(0 -1 1 0 116.6911 540.7485)" class="st5 st3 st4"> </text> <text transform="matrix(0 -1 1 0 116.6911 537.4712)" class="st5 st3 st4">2</text> </g> <g id="Layer-1_51_"> <text transform="matrix(0 -1 1 0 135.6911 589.1685)" class="st7 st8 st9">1</text> <text transform="matrix(0 -1 1 0 135.6911 584.0083)" class="st7 st8 st9"> </text> <text transform="matrix(0 -1 1 0 135.6911 581.6333)" class="st7 st8 st9">w</text> <text transform="matrix(0 -1 1 0 135.6911 574.5278)" class="st7 st8 st9">e</text> <text transform="matrix(0 -1 1 0 135.6911 569.313)" class="st7 st8 st9">i</text> <text transform="matrix(0 -1 1 0 135.6911 566.7095)" class="st7 st8 st9">t</text> <text transform="matrix(0 -1 1 0 135.6911 563.4126)" class="st7 st8 st9">e</text> <text transform="matrix(0 -1 1 0 135.6911 558.1978)" class="st7 st8 st9">r</text> <text transform="matrix(0 -1 1 0 135.6911 554.2173)" class="st7 st8 st9">e</text> </g> <g id="Layer-1_52_"> <text transform="matrix(0 -1 1 0 135.6911 549.0024)" class="st7 st8 st9">s</text> <text transform="matrix(0 -1 1 0 135.6911 544.1665)" class="st7 st8 st9"> </text> <text transform="matrix(0 -1 1 0 135.6911 541.7915)" class="st7 st8 st9">J</text> <text transform="matrix(0 -1 1 0 135.6911 536.8892)" class="st7 st8 st9">a</text> <text transform="matrix(0 -1 1 0 135.6911 531.7603)" class="st7 st8 st9">h</text> <text transform="matrix(0 -1 1 0 135.6911 526.2681)" class="st7 st8 st9">r</text> </g> <g id="Layer-1_53_"> <text transform="matrix(0 -1 1 0 146.6911 585.7095)" class="st5 st8 st9">1</text> <text transform="matrix(0 -1 1 0 146.6911 580.5513)" class="st5 st8 st9"> </text> <text transform="matrix(0 -1 1 0 146.6911 578.1763)" class="st5 st8 st9">f</text> <text transform="matrix(0 -1 1 0 146.6911 574.9653)" class="st5 st8 st9">u</text> <text transform="matrix(0 -1 1 0 146.6911 569.4731)" class="st5 st8 st9">r</text> <text transform="matrix(0 -1 1 0 146.6911 565.2095)" class="st5 st8 st9">t</text> <text transform="matrix(0 -1 1 0 146.6911 561.8638)" class="st5 st8 st9">h</text> <text transform="matrix(0 -1 1 0 146.6911 556.3735)" class="st5 st8 st9">e</text> <text transform="matrix(0 -1 1 0 146.6911 551.1587)" class="st5 st8 st9">r</text> <text transform="matrix(0 -1 1 0 146.6911 546.8931)" class="st5 st8 st9"> </text> <text transform="matrix(0 -1 1 0 146.6911 544.5181)" class="st5 st8 st9">y</text> <text transform="matrix(0 -1 1 0 146.6911 540.0708)" class="st5 st8 st9">e</text> <text transform="matrix(0 -1 1 0 146.6911 534.856)" class="st5 st8 st9">a</text> <text transform="matrix(0 -1 1 0 146.6911 529.7251)" class="st5 st8 st9">r</text> </g> <g id="Layer-1_54_"> <path class="st6" d="M261.7,143.1H127.6V0.3h134.2V143.1z"></path> </g> <g id="Layer-1_55_"> <path class="st6" d="M261.7,304.6H33.3V161.8h228.4V304.6z"></path> </g> <g id="Layer-1_56_"> <path class="st6" d="M261.8,467.3H70.9V324.5h190.9V467.3z"></path> </g> <g id="Layer-1_57_"> <path class="st6" d="M261.8,629.3h-89.5V486.5h89.5V629.3z"></path> </g> <g id="Layer-1_58_"> <path class="st6" d="M160.8,629.3H71.2V486.5h89.5V629.3z"></path> </g> <g id="Layer-1_59_"> <path class="st1" d="M0,298.4h21V64.5H0V298.4z"></path> </g> <g id="Layer-1_60_"> <path class="st1" d="M38,622.8h21V323H38V622.8z"></path> </g> <g id="Layer-1_61_"> <path class="st6" d="M0,304.8h21V64.5H0V304.8z"></path> </g> <g id="Layer-1_62_"> <path class="st6" d="M38,629.2h21V323H38V629.2z"></path> </g> <g id="Layer-1_63_"> <text transform="matrix(0 -0.99 1 0 13.9995 291.5552)" class="st5 st3 st4">A</text> <text transform="matrix(0 -0.99 1 0 13.9995 283.0864)" class="st5 st3 st4">l</text> <text transform="matrix(0 -0.99 1 0 13.9995 278.647)" class="st5 st3 st4">l</text> <text transform="matrix(0 -0.99 1 0 13.9995 274.3345)" class="st5 st3 st4">g</text> <text transform="matrix(0 -0.99 1 0 13.9995 266.9341)" class="st5 st3 st4">e</text> <text transform="matrix(0 -0.99 1 0 13.9995 259.6235)" class="st5 st3 st4">m</text> <text transform="matrix(0 -0.99 1 0 13.9995 248.0923)" class="st5 st3 st4">e</text> <text transform="matrix(0 -0.99 1 0 13.9995 240.7837)" class="st5 st3 st4">i</text> <text transform="matrix(0 -0.99 1 0 13.9995 236.9868)" class="st5 st3 st4">n</text> <text transform="matrix(0 -0.99 1 0 13.9995 229.354)" class="st5 st3 st4">e</text> <text transform="matrix(0 -0.99 1 0 13.9995 222.0435)" class="st5 st3 st4"> </text> <text transform="matrix(0 -0.99 1 0 13.9995 218.8013)" class="st5 st3 st4">H</text> <text transform="matrix(0 -0.99 1 0 13.9995 209.7271)" class="st5 st3 st4">o</text> <text transform="matrix(0 -0.99 1 0 13.9995 202.481)" class="st5 st3 st4">c</text> <text transform="matrix(0 -0.99 1 0 13.9995 196.0474)" class="st5 st3 st4">h</text> <text transform="matrix(0 -0.99 1 0 13.9995 188.4146)" class="st5 st3 st4">s</text> <text transform="matrix(0 -0.99 1 0 13.9995 181.7095)" class="st5 st3 st4">c</text> <text transform="matrix(0 -0.99 1 0 13.9995 175.2739)" class="st5 st3 st4">h</text> <text transform="matrix(0 -0.99 1 0 13.9995 167.6431)" class="st5 st3 st4">u</text> <text transform="matrix(0 -0.99 1 0 13.9995 160.0103)" class="st5 st3 st4">l</text> <text transform="matrix(0 -0.99 1 0 13.9995 155.5708)" class="st5 st3 st4">r</text> <text transform="matrix(0 -0.99 1 0 13.9995 149.8442)" class="st5 st3 st4">e</text> <text transform="matrix(0 -0.99 1 0 13.9995 142.5337)" class="st5 st3 st4">i</text> <text transform="matrix(0 -0.99 1 0 13.9995 138.7368)" class="st5 st3 st4">f</text> <text transform="matrix(0 -0.99 1 0 13.9995 134.272)" class="st5 st3 st4">e</text> <text transform="matrix(0 -0.99 1 0 13.9995 126.9614)" class="st5 st3 st4"> </text> <text transform="matrix(0 -0.99 1 0 13.9995 123.7192)" class="st5 st3 st4">(</text> <text transform="matrix(0 -0.99 1 0 13.9995 119.1372)" class="st5 st3 st4">A</text> <text transform="matrix(0 -0.99 1 0 13.9995 110.6685)" class="st5 st3 st4">b</text> <text transform="matrix(0 -0.99 1 0 13.9995 103.2036)" class="st5 st3 st4">i</text> <text transform="matrix(0 -0.99 1 0 13.9995 99.4067)" class="st5 st3 st4">t</text> <text transform="matrix(0 -0.99 1 0 13.9995 94.6196)" class="st5 st3 st4">u</text> <text transform="matrix(0 -0.99 1 0 13.9995 86.9868)" class="st5 st3 st4">r</text> <text transform="matrix(0 -0.99 1 0 13.9995 80.8735)" class="st5 st3 st4">)</text> </g> <g id="Layer-1_64_"> <text transform="matrix(0 -0.98 1 0 52.0318 617.3501)" class="st5 st3 st4">F</text> <text transform="matrix(0 -0.98 1 0 52.0318 609.9595)" class="st5 st3 st4">a</text> <text transform="matrix(0 -0.98 1 0 52.0318 602.9028)" class="st5 st3 st4">c</text> <text transform="matrix(0 -0.98 1 0 52.0318 596.5317)" class="st5 st3 st4">h</text> <text transform="matrix(0 -0.98 1 0 52.0318 588.9771)" class="st5 st3 st4">h</text> <text transform="matrix(0 -0.98 1 0 52.0318 581.4224)" class="st5 st3 st4">o</text> <text transform="matrix(0 -0.98 1 0 52.0318 574.2505)" class="st5 st3 st4">c</text> <text transform="matrix(0 -0.98 1 0 52.0318 567.8794)" class="st5 st3 st4">h</text> <text transform="matrix(0 -0.98 1 0 52.0318 560.3247)" class="st5 st3 st4">s</text> <text transform="matrix(0 -0.98 1 0 52.0318 553.688)" class="st5 st3 st4">c</text> <text transform="matrix(0 -0.98 1 0 52.0318 547.3169)" class="st5 st3 st4">h</text> <text transform="matrix(0 -0.98 1 0 52.0318 539.7622)" class="st5 st3 st4">u</text> <text transform="matrix(0 -0.98 1 0 52.0318 532.2075)" class="st5 st3 st4">l</text> <text transform="matrix(0 -0.98 1 0 52.0318 527.813)" class="st5 st3 st4">r</text> <text transform="matrix(0 -0.98 1 0 52.0318 522.1431)" class="st5 st3 st4">e</text> <text transform="matrix(0 -0.98 1 0 52.0318 514.9067)" class="st5 st3 st4">i</text> <text transform="matrix(0 -0.98 1 0 52.0318 511.1489)" class="st5 st3 st4">f</text> <text transform="matrix(0 -0.98 1 0 52.0318 506.729)" class="st5 st3 st4">e</text> <text transform="matrix(0 -0.98 1 0 52.0318 499.4927)" class="st5 st3 st4"> </text> <text transform="matrix(0 -0.98 1 0 52.0318 496.2817)" class="st5 st3 st4">u</text> <text transform="matrix(0 -0.98 1 0 52.0318 488.7271)" class="st5 st3 st4">n</text> <text transform="matrix(0 -0.98 1 0 52.0318 481.1724)" class="st5 st3 st4">d</text> <text transform="matrix(0 -0.98 1 0 52.0318 473.77)" class="st5 st3 st4"> </text> <text transform="matrix(0 -0.98 1 0 52.0318 470.561)" class="st5 st3 st4">/</text> <text transform="matrix(0 -0.98 1 0 52.0318 465.1704)" class="st5 st3 st4">o</text> <text transform="matrix(0 -0.98 1 0 52.0318 457.9985)" class="st5 st3 st4">d</text> <text transform="matrix(0 -0.98 1 0 52.0318 450.5962)" class="st5 st3 st4">e</text> <text transform="matrix(0 -0.98 1 0 52.0318 443.3599)" class="st5 st3 st4">r</text> <text transform="matrix(0 -0.98 1 0 52.0318 437.3091)" class="st5 st3 st4"> </text> <text transform="matrix(0 -0.98 1 0 52.0318 434.0981)" class="st5 st3 st4">B</text> <text transform="matrix(0 -0.98 1 0 52.0318 425.4614)" class="st5 st3 st4">e</text> <text transform="matrix(0 -0.98 1 0 52.0318 418.2251)" class="st5 st3 st4">r</text> <text transform="matrix(0 -0.98 1 0 52.0318 412.1724)" class="st5 st3 st4">u</text> <text transform="matrix(0 -0.98 1 0 52.0318 404.6177)" class="st5 st3 st4">f</text> <text transform="matrix(0 -0.98 1 0 52.0318 400.1978)" class="st5 st3 st4">s</text> <text transform="matrix(0 -0.98 1 0 52.0318 393.561)" class="st5 st3 st4">a</text> <text transform="matrix(0 -0.98 1 0 52.0318 386.5024)" class="st5 st3 st4">b</text> <text transform="matrix(0 -0.98 1 0 52.0318 379.1138)" class="st5 st3 st4">s</text> <text transform="matrix(0 -0.98 1 0 52.0318 372.4771)" class="st5 st3 st4">c</text> <text transform="matrix(0 -0.98 1 0 52.0318 366.106)" class="st5 st3 st4">h</text> <text transform="matrix(0 -0.98 1 0 52.0318 358.5513)" class="st5 st3 st4">l</text> <text transform="matrix(0 -0.98 1 0 52.0318 354.1567)" class="st5 st3 st4">u</text> <text transform="matrix(0 -0.98 1 0 52.0318 346.6021)" class="st5 st3 st4">s</text> <text transform="matrix(0 -0.98 1 0 52.0318 340.0278)" class="st5 st3 st4">s</text> </g> <g id="Layer-1_65_"> <path class="st5" d="M30.6,300.3v-4.7l-2.3,2.3L30.6,300.3z"></path> <path class="st5" d="M25.5,300.3v-4.7l-2.3,2.3L25.5,300.3z"></path> </g> <g id="Layer-1_66_"> <path class="st5" d="M68.6,462.7V458l-2.3,2.3L68.6,462.7z"></path> <path class="st5" d="M63.5,462.7V458l-2.3,2.3L63.5,462.7z"></path> </g> <g id="Layer-1_67_"> <path class="st5" d="M68.6,624.7V620l-2.3,2.3L68.6,624.7z"></path> <path class="st5" d="M63.5,624.7V620l-2.3,2.3L63.5,624.7z"></path> </g> <g id="Layer-1_68_"> <path class="st5" d="M169.7,624.7V620l-2.3,2.3L169.7,624.7z"></path> <path class="st5" d="M164.7,624.7V620l-2.3,2.3L164.7,624.7z"></path> </g> <g id="Layer-1_69_"> <path class="st5" d="M281.2,300.3v-4.7l-2.3,2.3L281.2,300.3z"></path> <path class="st5" d="M276.6,300.3v-4.7l-2.3,2.3L276.6,300.3z"></path> </g> <g id="Layer-1_70_"> <path class="st5" d="M271.7,300.3v-4.7l-2.3,2.3L271.7,300.3z"></path> </g> <g id="Layer-1_71_"> <path class="st5" d="M266.6,300.3v-4.7l-2.3,2.3L266.6,300.3z"></path> </g> <g id="Layer-1_72_"> <path class="st5" d="M281.2,138.7V134l-2.3,2.3L281.2,138.7z"></path> <path class="st5" d="M276.6,138.7V134l-2.3,2.3L276.6,138.7z"></path> </g> <g id="Layer-1_73_"> <path class="st5" d="M271.7,138.7V134l-2.3,2.3L271.7,138.7z"></path> </g> <g id="Layer-1_74_"> <path class="st5" d="M266.6,138.7V134l-2.3,2.3L266.6,138.7z"></path> </g> <g id="Layer-1_75_"> <path class="st5" d="M281.2,462.7V458l-2.3,2.3L281.2,462.7z"></path> <path class="st5" d="M276.6,462.7V458l-2.3,2.3L276.6,462.7z"></path> </g> <g id="Layer-1_76_"> <path class="st5" d="M271.7,462.7V458l-2.3,2.3L271.7,462.7z"></path> </g> <g id="Layer-1_77_"> <path class="st5" d="M266.6,462.7V458l-2.3,2.3L266.6,462.7z"></path> </g> <g id="Layer-1_78_"> <path class="st5" d="M281.2,624.7V620l-2.3,2.3L281.2,624.7z"></path> <path class="st5" d="M276.6,624.7V620l-2.3,2.3L276.6,624.7z"></path> </g> <g id="Layer-1_79_"> <path class="st5" d="M271.7,624.7V620l-2.3,2.3L271.7,624.7z"></path> </g> <g id="Layer-1_80_"> <path class="st5" d="M266.6,624.7V620l-2.3,2.3L266.6,624.7z"></path> </g> </svg> 