<?xml version="1.0" encoding="UTF-8" standalone="no"?> <svg xmlns="http://www.w3.org/2000/svg" xmlns:xlink="http://www.w3.org/1999/xlink" xmlns:serif="http://www.serif.com/" width="100%" height="100%" viewBox="0 0 647 603" version="1.1" xml:space="preserve" style="fill-rule:evenodd;clip-rule:evenodd;stroke-miterlimit:10;"> <g transform="matrix(-4.16667,0,0,4.16667,542.808,-1720.57)"> <rect x="113.386" y="492.651" width="14.173" height="59.488" style="fill:rgb(121,204,198);"></rect> </g> <g transform="matrix(-4.16667,0,0,4.16667,542.808,-2371.04)"> <rect x="113.386" y="588.395" width="14.173" height="24.114" style="fill:rgb(121,204,198);"></rect> </g> <g transform="matrix(-4.16667,0,0,4.16667,1104.95,-1947)"> <rect x="113.386" y="542.48" width="149.086" height="14.173" style="fill:rgb(121,204,198);"></rect> </g> <g transform="matrix(4.16667,0,0,4.16667,-461.129,-2520.93)"> <rect x="113.686" y="608.039" width="147.985" height="20.8" style="fill:rgb(121,204,198);stroke:rgb(42,44,104);stroke-width:0.6px;"></rect> </g> <g transform="matrix(4.16667,0,0,4.16667,-461.129,-875.15)"> <text x="168.749px" y="273.057px" style="font-family:'Arial-BoldMT', 'Arial', sans-serif;font-weight:700;font-size:13px;fill:rgb(42,44,104);">V<tspan x="176.367px 185.667px 194.968px 199.209px " y="273.057px 273.057px 273.057px 273.057px ">AB-R</tspan></text> <text x="154.049px" y="294.757px" style="font-family:'ArialMT', 'Arial', sans-serif;font-size:9px;fill:white;">1</text> <text x="162.356px" y="294.757px" style="font-family:'ArialMT', 'Arial', sans-serif;font-size:9px;fill:white;">J<tspan x="167.322px 173.791px 180.756px " y="294.757px 294.757px 294.757px ">AHR</tspan></text> <text x="190.499px" y="294.757px" style="font-family:'ArialMT', 'Arial', sans-serif;font-size:9px;fill:white;">/</text> <text x="197.429px" y="294.757px" style="font-family:'ArialMT', 'Arial', sans-serif;font-size:9px;fill:white;">Y<tspan x="203.898px 210.367px 216.836px " y="294.757px 294.757px 294.757px ">EAR</tspan></text> </g> <g transform="matrix(4.16667,0,0,4.16667,-461.129,-875.15)"> <text x="122.278px" y="226.552px" style="font-family:'Arial-BoldMT', 'Arial', sans-serif;font-weight:700;font-size:13px;fill:white;">H<tspan x="131.502px 138.568px 146.346px 154.123px 158.288px 165.354px 172.42px 180.198px 187.975px 191.423px 198.489px 206.266px 213.332px 220.398px 228.176px 231.624px 239.401px 246.467px " y="226.552px 226.552px 226.552px 226.552px 226.552px 226.552px 226.552px 226.552px 226.552px 226.552px 226.552px 226.552px 226.552px 226.552px 226.552px 226.552px 226.552px 226.552px ">auptschulabschluss</tspan></text> </g> <g transform="matrix(-4.16667,0,0,4.16667,1107.45,-2081.35)"> <rect x="113.686" y="542.563" width="149.088" height="46.253" style="fill:none;stroke:rgb(42,44,104);stroke-width:0.6px;"></rect> </g> <g transform="matrix(-4.16667,0,0,4.16667,1107.45,-1605.54)"> <rect x="113.686" y="490.19" width="149.088" height="36.804" style="fill:rgb(121,204,198);stroke:rgb(42,44,104);stroke-width:0.6px;"></rect> </g> <g transform="matrix(4.16667,0,0,4.16667,31.0669,375.175)"> <path d="M0,2.345L4.691,2.345L2.345,0L0,2.345Z" style="fill:white;fill-rule:nonzero;"></path> </g> <g transform="matrix(4.16667,0,0,4.16667,31.0669,414.043)"> <path d="M0,2.345L4.691,2.345L2.345,0L0,2.345Z" style="fill:white;fill-rule:nonzero;"></path> </g> <g transform="matrix(4.16667,0,0,4.16667,31.0669,394.608)"> <path d="M0,2.345L4.691,2.345L2.345,0L0,2.345Z" style="fill:white;fill-rule:nonzero;"></path> </g> <g transform="matrix(4.16667,0,0,4.16667,31.0669,161.395)"> <path d="M0,2.345L4.691,2.345L2.345,0L0,2.345Z" style="fill:white;fill-rule:nonzero;"></path> </g> <g transform="matrix(4.16667,0,0,4.16667,31.0669,100.175)"> <path d="M0,2.345L4.691,2.345L2.345,0L0,2.345Z" style="fill:white;fill-rule:nonzero;"></path> </g> <g transform="matrix(4.16667,0,0,4.16667,31.0669,139.043)"> <path d="M0,2.345L4.691,2.345L2.345,0L0,2.345Z" style="fill:white;fill-rule:nonzero;"></path> </g> <g transform="matrix(4.16667,0,0,4.16667,31.0669,119.608)"> <path d="M0,2.345L4.691,2.345L2.345,0L0,2.345Z" style="fill:white;fill-rule:nonzero;"></path> </g> <g transform="matrix(4.16667,0,0,4.16667,-461.129,-875.15)"> <text x="140.286px" y="328.255px" style="font-family:'Arial-BoldMT', 'Arial', sans-serif;font-weight:700;font-size:13px;fill:white;">o<tspan x="147.938px 155.59px 163.242px " y="328.255px 328.255px 328.255px ">hne</tspan></text> <text x="173.696px" y="328.255px" style="font-family:'Arial-BoldMT', 'Arial', sans-serif;font-weight:700;font-size:13px;fill:white;">A<tspan x="182.796px 190.448px 197.389px 204.33px 211.982px 215.305px 222.957px 229.898px " y="328.255px 328.255px 328.255px 328.255px 328.255px 328.255px 328.255px 328.255px ">bschluss</tspan></text> <text x="125.206px" y="343.855px" style="font-family:'Arial-BoldMT', 'Arial', sans-serif;font-weight:700;font-size:13px;fill:rgb(42,44,104);">with<tspan x="151.305px " y="343.855px ">o</tspan>ut</text> <text x="174.853px" y="343.855px" style="font-family:'Arial-BoldMT', 'Arial', sans-serif;font-weight:700;font-size:13px;fill:rgb(42,44,104);">qual<tspan x="201.682px " y="343.855px ">i</tspan>ﬁca<tspan x="227.8px " y="343.855px ">t</tspan>ion</text> </g> </svg> 