<?xml version="1.0" encoding="utf-8"?>
<!-- Generator: Adobe Illustrator 26.2.1, SVG Export Plug-In . SVG Version: 6.00 Build 0)  -->
<svg version="1.1" id="Ebene_1" xmlns="http://www.w3.org/2000/svg" xmlns:xlink="http://www.w3.org/1999/xlink" x="0px" y="0px"
	 viewBox="0 0 512 185.65" style="enable-background:new 0 0 512 185.65;" xml:space="preserve">
<style type="text/css">
	.st0{fill:#6EC3BF;}
	.st1{fill:#A0D5D2;}
	.st2{fill:#87CCC8;}
	.st3{fill:#FFFFFF;}
	.st4{clip-path:url(#SVGID_00000126296498297641624230000003456408797657322915_);fill:#2B2961;}
	.st5{fill:#897DA2;}
	.st6{fill:#2B2961;}
	.st7{clip-path:url(#SVGID_00000096037135668363317290000012666264750541313687_);fill:#FFFFFF;}
	.st8{clip-path:url(#SVGID_00000096037135668363317290000012666264750541313687_);fill:#2B2961;}
	.st9{clip-path:url(#SVGID_00000048473469195048387220000004395885349916737700_);fill:#FFFFFF;}
	.st10{clip-path:url(#SVGID_00000048473469195048387220000004395885349916737700_);fill:#6EC3BF;}
	.st11{fill:#9D9D9C;}
	.st12{fill:#D0D0D0;}
	.st13{clip-path:url(#SVGID_00000078756598601668924060000012977902582215550360_);fill:#FFFFFF;}
	.st14{clip-path:url(#SVGID_00000034051925238413420840000000636602940557885875_);fill:#2B2961;}
	.st15{clip-path:url(#SVGID_00000034051925238413420840000000636602940557885875_);fill:#FFFFFF;}
	.st16{fill:#97D1CE;}
	.st17{clip-path:url(#SVGID_00000100345941417532547170000008231491418604195241_);fill:#2B2961;}
	.st18{clip-path:url(#SVGID_00000005264153985575000340000018249062602134016670_);fill:#2B2961;}
	.st19{clip-path:url(#SVGID_00000153696130942388270130000013359895910701309844_);fill:#FFFFFF;}
	.st20{clip-path:url(#SVGID_00000153696130942388270130000013359895910701309844_);fill:#2B2961;}
	.st21{clip-path:url(#SVGID_00000150095783621249327320000007499691285833533866_);fill:#2B2961;}
	.st22{clip-path:url(#SVGID_00000153666852574047483600000001321357621551745165_);fill:#2B2961;}
	.st23{clip-path:url(#SVGID_00000153666852574047483600000001321357621551745165_);fill:#FFFFFF;}
	.st24{clip-path:url(#SVGID_00000123437202087484888130000016885694090315761320_);fill:#FFFFFF;}
	.st25{clip-path:url(#SVGID_00000150076206908028569900000008184545067673883777_);fill:#6EC3BF;}
	.st26{clip-path:url(#SVGID_00000075854517055885157470000003812861232689491076_);fill:#2B2961;}
	.st27{clip-path:url(#SVGID_00000075854517055885157470000003812861232689491076_);fill:#1D1D1B;}
	.st28{clip-path:url(#SVGID_00000075854517055885157470000003812861232689491076_);fill:#FFFFFF;}
	.st29{clip-path:url(#SVGID_00000168108595565541857080000015021162308511564476_);fill:#2B2961;}
	.st30{clip-path:url(#SVGID_00000009578323973253886930000006910593466231460283_);fill:#2B2961;}
	.st31{clip-path:url(#SVGID_00000009578323973253886930000006910593466231460283_);fill:#FFFFFF;}
	.st32{clip-path:url(#SVGID_00000109715405901580426190000001384898460168086403_);fill:#2B2961;}
	.st33{clip-path:url(#SVGID_00000056398711206493011380000016083223304860028805_);fill:#2B2961;}
	.st34{clip-path:url(#SVGID_00000056398711206493011380000016083223304860028805_);fill:#6EC3BF;}
	.st35{clip-path:url(#SVGID_00000058567180652482097640000003314949467696750990_);fill:#2B2961;}
	.st36{clip-path:url(#SVGID_00000155146060041372065110000008847312646225007535_);fill:#2B2961;}
	.st37{clip-path:url(#SVGID_00000005262943347102312000000008554409195308740536_);fill:#2B2961;}
	.st38{clip-path:url(#SVGID_00000046321465483235694490000010508154248117701764_);fill:#2B2961;}
	.st39{clip-path:url(#SVGID_00000098900260430184896830000000775289684284463247_);fill:#6EC3BF;}
	.st40{clip-path:url(#SVGID_00000103950486720397248350000001862771132962078620_);fill:#6EC3BF;}
	.st41{clip-path:url(#SVGID_00000063634466031760601810000012379695530492584079_);fill:#6EC3BF;}
	.st42{clip-path:url(#SVGID_00000083789528109037791590000005310120043265337010_);fill:#6EC3BF;}
	.st43{clip-path:url(#SVGID_00000165938629018842500050000017823974051826196663_);fill:#2B2961;}
	.st44{clip-path:url(#SVGID_00000021811592234838782880000010934370735732238482_);fill:#2B2961;}
	.st45{clip-path:url(#SVGID_00000119836848834026758690000013851293472799489976_);fill:#2B2961;}
	.st46{clip-path:url(#SVGID_00000102532011444928780150000009344445369443041980_);fill:#2B2961;}
	.st47{clip-path:url(#SVGID_00000102532011444928780150000009344445369443041980_);fill:#FFFFFF;}
	.st48{clip-path:url(#SVGID_00000156563555140944994390000003279340330404983179_);fill:#FFFFFF;}
	.st49{clip-path:url(#SVGID_00000004537260531757284100000003416835460907403926_);fill:#2B2961;}
	.st50{clip-path:url(#SVGID_00000110447008415071611300000008142855404207360398_);fill:#2B2961;}
	.st51{clip-path:url(#SVGID_00000110447008415071611300000008142855404207360398_);fill:#FFFFFF;}
	.st52{clip-path:url(#SVGID_00000180368623146539543690000013264946246299333267_);fill:#2B2961;}
	.st53{clip-path:url(#SVGID_00000180368623146539543690000013264946246299333267_);fill:#2C265F;}
	.st54{clip-path:url(#SVGID_00000017506436277374863310000012066693192271389331_);fill:#FFFFFF;}
	.st55{clip-path:url(#SVGID_00000130622558028541446510000000700257438476386189_);fill:#2B2961;}
	.st56{clip-path:url(#SVGID_00000094590173081133985840000008151315217692571553_);fill:#FFFFFF;}
	.st57{clip-path:url(#SVGID_00000008833101361226956880000004536029335270868663_);fill:#2B2961;}
	.st58{clip-path:url(#SVGID_00000005261845337729031260000014978203969567324059_);fill:#FFFFFF;}
	.st59{clip-path:url(#SVGID_00000066482613558492201400000010042831680397481138_);fill:#2B2961;}
	.st60{clip-path:url(#SVGID_00000066482613558492201400000010042831680397481138_);fill:#FFFFFF;}
	.st61{clip-path:url(#SVGID_00000136386010218496514020000009161080240377362079_);fill:#2B2961;}
	.st62{clip-path:url(#SVGID_00000052085772935996722400000004434272294260610432_);fill:#FFFFFF;}
	.st63{clip-path:url(#SVGID_00000057127409181835346210000003541828560122886308_);fill:#2B2961;}
	.st64{clip-path:url(#SVGID_00000087408026493919573280000011804268166460866700_);fill:#FFFFFF;}
	.st65{clip-path:url(#SVGID_00000087408026493919573280000011804268166460866700_);fill:#2B2961;}
	.st66{clip-path:url(#SVGID_00000033367527346259333960000007942031633265126060_);fill:#2B2961;}
	.st67{clip-path:url(#SVGID_00000033367527346259333960000007942031633265126060_);fill:#6EC3BF;}
	.st68{clip-path:url(#SVGID_00000033367527346259333960000007942031633265126060_);fill:#FFFFFF;}
	.st69{clip-path:url(#SVGID_00000103258748344713729470000000711631141080887168_);fill:#2B2961;}
	.st70{clip-path:url(#SVGID_00000051384608692675594160000012060427590773420937_);fill:#2B2961;}
	.st71{clip-path:url(#SVGID_00000138550768699285911310000005698194190122393229_);fill:#2B2961;}
	.st72{clip-path:url(#SVGID_00000177456389890018962910000013021021875334379196_);fill:#2B2961;}
	.st73{clip-path:url(#SVGID_00000145016445261664694990000014800464122689184400_);fill:#2B2961;}
	.st74{clip-path:url(#SVGID_00000028301358449768589120000006753961684015139480_);fill:#FFFFFF;}
	.st75{clip-path:url(#SVGID_00000028301358449768589120000006753961684015139480_);fill:#6EC3BF;}
	.st76{clip-path:url(#SVGID_00000177469762544657703580000003779059068644652732_);fill:#2B2961;}
	.st77{clip-path:url(#SVGID_00000013887938067885115680000012614076272478163376_);fill:#2B2961;}
	.st78{clip-path:url(#SVGID_00000013887938067885115680000012614076272478163376_);fill:#FFFFFF;}
	.st79{clip-path:url(#SVGID_00000177475401269245846980000006534588020577616271_);fill:#2B2961;}
	.st80{clip-path:url(#SVGID_00000039845500207493483200000006979229706948097691_);fill:#FFFFFF;}
	.st81{clip-path:url(#SVGID_00000070839159031936389390000017207160457135270322_);fill:#2B2961;}
	.st82{clip-path:url(#SVGID_00000167363318087259232830000016199425132747984827_);fill:#2B2961;}
	.st83{clip-path:url(#SVGID_00000152259526035938968240000015462953075070042258_);fill:#2B2961;}
	.st84{clip-path:url(#SVGID_00000072966200459521958170000006552164299578506914_);fill:#FFFFFF;}
	.st85{clip-path:url(#SVGID_00000142872990035825932940000002700265026282589359_);fill:#FFFFFF;}
	.st86{clip-path:url(#SVGID_00000062901552043974137880000017057323940020078996_);fill:#2B2961;}
	.st87{clip-path:url(#SVGID_00000038401884572716558590000013917302756745206427_);fill:#2B2961;}
	.st88{clip-path:url(#SVGID_00000038401884572716558590000013917302756745206427_);fill:#FFFFFF;}
	.st89{clip-path:url(#SVGID_00000165222486046005017070000012288116032421627312_);fill:#2B2961;}
	.st90{clip-path:url(#SVGID_00000169528971017466449970000010958744247592833170_);fill:#FFFFFF;}
	.st91{clip-path:url(#SVGID_00000045616644987547531120000015187196820846865848_);fill:#6EC3BF;}
	.st92{clip-path:url(#SVGID_00000045616644987547531120000015187196820846865848_);fill:#2B2961;}
	.st93{clip-path:url(#SVGID_00000116937044340249435900000003118921412479115660_);fill:#6EC3BF;}
	.st94{clip-path:url(#SVGID_00000011027697294804805590000006825927792450885248_);fill:#2B2961;}
	.st95{clip-path:url(#SVGID_00000165941500215829566740000006347040447586364055_);fill:#2B2961;}
	.st96{clip-path:url(#SVGID_00000174600273095703661800000015882457649334932661_);fill:#2B2961;}
	.st97{clip-path:url(#SVGID_00000005950069867789966930000011496825117663668406_);fill:#2B2961;}
	.st98{clip-path:url(#SVGID_00000101090329291639281830000017727913515193413555_);fill:#2B2961;}
	.st99{clip-path:url(#SVGID_00000101090329291639281830000017727913515193413555_);fill:#6EC3BF;}
	.st100{clip-path:url(#SVGID_00000137115164811933615050000015654868389853768346_);fill:#2B2961;}
	.st101{clip-path:url(#SVGID_00000038393594977928362910000010304402928426723988_);fill:#2B2961;}
	.st102{clip-path:url(#SVGID_00000038393594977928362910000010304402928426723988_);fill:#6EC3BF;}
	.st103{clip-path:url(#SVGID_00000090978843517514024540000008853714082099642542_);fill:#2B2961;}
	.st104{clip-path:url(#SVGID_00000058562089390328518940000009896451370975564215_);fill:#FFFFFF;}
	.st105{clip-path:url(#SVGID_00000058562089390328518940000009896451370975564215_);fill:#2B2961;}
	.st106{clip-path:url(#SVGID_00000121256345236355414250000018286189170375276945_);fill:#6EC3BF;}
	.st107{clip-path:url(#SVGID_00000177450616914419798340000013760154376422693030_);fill:#2B2961;}
	.st108{clip-path:url(#SVGID_00000181768737027563057160000009058221425633356941_);fill:#2B2961;}
	.st109{clip-path:url(#SVGID_00000181768737027563057160000009058221425633356941_);fill:#FFFFFF;}
	.st110{clip-path:url(#SVGID_00000029740496889643499140000007828985462299829891_);fill:#6EC3BF;}
	.st111{clip-path:url(#SVGID_00000008850642762673378740000010661662533675436453_);fill:#2B2961;}
	.st112{clip-path:url(#SVGID_00000119118247244742684920000006793828496669200782_);fill:#2B2961;}
	.st113{clip-path:url(#SVGID_00000119118247244742684920000006793828496669200782_);fill:#6EC3BF;}
	.st114{clip-path:url(#SVGID_00000077287689202638355710000003851471654247982219_);fill:#2B2961;}
	.st115{clip-path:url(#SVGID_00000030448000952034975740000002648850559796523662_);fill:#6EC3BF;}
	.st116{clip-path:url(#SVGID_00000030448000952034975740000002648850559796523662_);fill:#2B2961;}
	.st117{clip-path:url(#SVGID_00000121262229868553774620000009140030898641249702_);fill:#2B2961;}
	.st118{clip-path:url(#SVGID_00000086687439620111640640000009709790935728674983_);fill:#FFFFFF;}
	.st119{clip-path:url(#SVGID_00000086687439620111640640000009709790935728674983_);}
	.st120{clip-path:url(#SVGID_00000160192280400403473320000015528871368321115267_);fill:#2B2961;}
	.st121{clip-path:url(#SVGID_00000086687439620111640640000009709790935728674983_);fill:#6EC3BF;}
	.st122{clip-path:url(#SVGID_00000122000703731711988270000006695677451949454993_);fill:#2B2961;}
	.st123{clip-path:url(#SVGID_00000086687439620111640640000009709790935728674983_);fill:#2B2961;}
	.st124{clip-path:url(#SVGID_00000136374169364303012590000014322618431055210661_);fill:#2B2961;}
	.st125{clip-path:url(#SVGID_00000166676924687472558920000004041182876488324776_);fill:#2B2961;}
	.st126{clip-path:url(#SVGID_00000163787363121299871410000005486474151110047370_);}
	.st127{clip-path:url(#SVGID_00000168089622475122802550000014362658324864696505_);}
	.st128{clip-path:url(#SVGID_00000054949239740675541540000014244377229433409715_);fill:#FFFFFF;}
	.st129{clip-path:url(#SVGID_00000078740237006020868610000014560554131416140416_);fill:#2B2961;}
	.st130{clip-path:url(#SVGID_00000000932685502030660480000000645267143344250011_);fill:#2B2961;}
	.st131{clip-path:url(#SVGID_00000000932685502030660480000000645267143344250011_);fill:#6EC3BF;}
	.st132{clip-path:url(#SVGID_00000000932685502030660480000000645267143344250011_);fill:#FFFFFF;}
	.st133{clip-path:url(#SVGID_00000165200177216857642930000004074052138574491827_);fill:#2B2961;}
	.st134{clip-path:url(#SVGID_00000165200177216857642930000004074052138574491827_);fill:#6EC3BF;}
	.st135{clip-path:url(#SVGID_00000076585310487369327830000001142217300486130354_);fill:#2B2961;}
	.st136{clip-path:url(#SVGID_00000002349602189674039110000014305290091283709585_);fill:#6EC3BF;}
	.st137{clip-path:url(#SVGID_00000002349602189674039110000014305290091283709585_);fill:#FFFFFF;}
	.st138{clip-path:url(#SVGID_00000099632411339905338820000018127718368435823764_);fill:#2B2961;}
	.st139{clip-path:url(#SVGID_00000099632411339905338820000018127718368435823764_);fill:#6EC3BF;}
	.st140{clip-path:url(#SVGID_00000005956572373256150810000010211973349702661249_);fill:#2B2961;}
	.st141{clip-path:url(#SVGID_00000078741627839873554680000014242755542522148999_);fill:#2B2961;}
	.st142{clip-path:url(#SVGID_00000078741627839873554680000014242755542522148999_);fill:#FFFFFF;}
	.st143{clip-path:url(#SVGID_00000087405085081744974210000012549656387464403075_);fill:#2B2961;}
	.st144{clip-path:url(#SVGID_00000005951717340431708860000009656318194617311903_);fill:#FFFFFF;}
	.st145{clip-path:url(#SVGID_00000106145574069765183670000008057756247468586648_);fill:#2B2961;}
	.st146{clip-path:url(#SVGID_00000173124134304520834440000010214966317071865765_);fill:#2B2961;}
	.st147{clip-path:url(#SVGID_00000173124134304520834440000010214966317071865765_);fill:#FFFFFF;}
	.st148{clip-path:url(#SVGID_00000176747261683186070860000013830683809907522735_);fill:#2B2961;}
	.st149{clip-path:url(#SVGID_00000069380198309632311550000010012526829326267551_);fill:#2B2961;}
	.st150{clip-path:url(#SVGID_00000069380198309632311550000010012526829326267551_);fill:#FFFFFF;}
	.st151{clip-path:url(#SVGID_00000080194001778074693590000017324387961954003634_);fill:#2B2961;}
	.st152{clip-path:url(#SVGID_00000080194001778074693590000017324387961954003634_);fill:#6EC3BF;}
	.st153{clip-path:url(#SVGID_00000024696732897646982030000006111851918111267506_);fill:#1D1D1B;}
	.st154{clip-path:url(#SVGID_00000024696732897646982030000006111851918111267506_);fill:#2B2961;}
	.st155{clip-path:url(#SVGID_00000024696732897646982030000006111851918111267506_);fill:#FFFFFF;}
	.st156{clip-path:url(#SVGID_00000107588907432584264460000015955886279222197427_);fill:#2B2961;}
	.st157{clip-path:url(#SVGID_00000011745423398655238590000008340563858272894347_);fill:#2B2961;}
	.st158{clip-path:url(#SVGID_00000143610599620356457610000014484871744727774338_);fill:#2B2961;}
	.st159{clip-path:url(#SVGID_00000143610599620356457610000014484871744727774338_);fill:#FFFFFF;}
	.st160{clip-path:url(#SVGID_00000143610599620356457610000014484871744727774338_);fill:#6EC3BF;}
	.st161{clip-path:url(#SVGID_00000103968411309221523430000013007252146436141713_);fill:#2B2961;}
	.st162{clip-path:url(#SVGID_00000168831623555753439410000006692373954679242120_);fill:#2B2961;}
	.st163{clip-path:url(#SVGID_00000054238007131544045770000002935304382172358556_);fill:#2B2961;}
	.st164{clip-path:url(#SVGID_00000153696642171816820180000001105707888729369238_);fill:#2B2961;}
	.st165{clip-path:url(#SVGID_00000153696642171816820180000001105707888729369238_);fill:#FFFFFF;}
	.st166{clip-path:url(#SVGID_00000036250953732334297290000015538458328916029351_);fill:#2B2961;}
	.st167{clip-path:url(#SVGID_00000036250953732334297290000015538458328916029351_);fill:#FFFFFF;}
	.st168{clip-path:url(#SVGID_00000100379463569804206560000012421890940098952326_);fill:#2B2961;}
	.st169{clip-path:url(#SVGID_00000134235094318940082370000002351494171940146097_);fill:#2B2961;}
	.st170{clip-path:url(#SVGID_00000134235094318940082370000002351494171940146097_);fill:#FFFFFF;}
	.st171{clip-path:url(#SVGID_00000096753297443528476280000011198836240771208353_);fill:#2B2961;}
	.st172{clip-path:url(#SVGID_00000083056155326071152020000003823057543297626250_);fill:#FFFFFF;}
	.st173{clip-path:url(#SVGID_00000114058239158928792510000017051515048078932866_);fill:#2B2961;}
	.st174{clip-path:url(#SVGID_00000114058239158928792510000017051515048078932866_);fill:#6EC3BF;}
	.st175{clip-path:url(#SVGID_00000051344062810421065350000009613232743103921301_);fill:#2B2961;}
	.st176{clip-path:url(#SVGID_00000091706069735928998970000008036878776519808933_);fill:#2B2961;}
	.st177{clip-path:url(#SVGID_00000002358321146626764460000014740796977266185662_);fill:#FFFFFF;}
	.st178{clip-path:url(#SVGID_00000121276813770758454470000008855127192875654562_);fill:#6EC3BF;}
	.st179{clip-path:url(#SVGID_00000121276813770758454470000008855127192875654562_);fill:#2B2961;}
	.st180{clip-path:url(#SVGID_00000060730940727564925830000011614452510100989072_);fill:#6EC3BF;}
	.st181{clip-path:url(#SVGID_00000042722758563729601440000018249808940579725244_);fill:#2B2961;}
	.st182{clip-path:url(#SVGID_00000165234028379705328530000017781674422844819606_);fill:#6EC3BF;}
	.st183{clip-path:url(#SVGID_00000165234028379705328530000017781674422844819606_);fill:#2B2961;}
	.st184{clip-path:url(#SVGID_00000013887230317366269580000009714421451594568100_);fill:#2B2961;}
	.st185{clip-path:url(#SVGID_00000029734422694715891140000017780404552918691473_);fill:#2B2961;}
	.st186{clip-path:url(#SVGID_00000158028871329691962720000007414962485152455088_);fill:#2B2961;}
	.st187{clip-path:url(#SVGID_00000062909012475121218280000008984229747285126788_);fill:#2B2961;}
	.st188{clip-path:url(#SVGID_00000053532510848678220610000016736579570434724532_);fill:#2B2961;}
	.st189{clip-path:url(#SVGID_00000125568143284846779660000008506903421322533028_);fill:#6EC3BF;}
	.st190{clip-path:url(#SVGID_00000125568143284846779660000008506903421322533028_);fill:#2B2961;}
	.st191{clip-path:url(#SVGID_00000031910401604349453870000011756004033969305743_);fill:#6EC3BF;}
	.st192{clip-path:url(#SVGID_00000031910401604349453870000011756004033969305743_);fill:#2B2961;}
	.st193{clip-path:url(#SVGID_00000180354832893569032280000000438844966815683763_);fill:#2B2961;}
	.st194{clip-path:url(#SVGID_00000079462283340105412170000002548100016559255977_);fill:#2B2961;}
	.st195{clip-path:url(#SVGID_00000176764108031732642310000016580487379926911621_);fill:#2B2961;}
	.st196{clip-path:url(#SVGID_00000120524121364209871990000005822084982552588731_);fill:#FFFFFF;}
	.st197{clip-path:url(#SVGID_00000048461816140551297420000016815609651827519925_);fill:#2B2961;}
	.st198{clip-path:url(#SVGID_00000027575741423009249220000018277937187189301935_);fill:#2B2961;}
	.st199{clip-path:url(#SVGID_00000027575741423009249220000018277937187189301935_);fill:#6EC3BF;}
	.st200{clip-path:url(#SVGID_00000101816126751945703240000014154716628731591599_);fill:#2B2961;}
	.st201{clip-path:url(#SVGID_00000049209127679865285690000006579984696306302110_);fill:#2B2961;}
	.st202{clip-path:url(#SVGID_00000136379333375367917150000003909900525797543822_);fill:#6EC3BF;}
	.st203{clip-path:url(#SVGID_00000136379333375367917150000003909900525797543822_);fill:#2B2961;}
	.st204{clip-path:url(#SVGID_00000145044920431921474220000000082244960096980403_);fill:#6EC3BF;}
	.st205{clip-path:url(#SVGID_00000145044920431921474220000000082244960096980403_);fill:#2B2961;}
	.st206{clip-path:url(#SVGID_00000004540253193721659090000013996729968319218826_);fill:#2B2961;}
	.st207{clip-path:url(#SVGID_00000104682096746954496580000010965457529646625409_);fill:#2B2961;}
	.st208{clip-path:url(#SVGID_00000104682096746954496580000010965457529646625409_);fill:#6EC3BF;}
	.st209{clip-path:url(#SVGID_00000134947016366721333520000006893038376193936278_);fill:#2B2961;}
	.st210{clip-path:url(#SVGID_00000134947016366721333520000006893038376193936278_);fill:#6EC3BF;}
	.st211{clip-path:url(#SVGID_00000103953497034569844340000005203743956469412528_);fill:#2B2961;}
	.st212{clip-path:url(#SVGID_00000103953497034569844340000005203743956469412528_);fill:#6EC3BF;}
	.st213{clip-path:url(#SVGID_00000135661913191364204440000005374455821191729329_);fill:#2B2961;}
	.st214{clip-path:url(#SVGID_00000113351340164398301960000002663477966884286137_);fill:#6EC3BF;}
	.st215{clip-path:url(#SVGID_00000113351340164398301960000002663477966884286137_);fill:#2B2961;}
	.st216{clip-path:url(#SVGID_00000173131717038626001060000006680447540461385140_);fill:#6EC3BF;}
	.st217{clip-path:url(#SVGID_00000173131717038626001060000006680447540461385140_);fill:#2B2961;}
	.st218{clip-path:url(#SVGID_00000173866574322128518640000002450216029823976619_);fill:#FFFFFF;}
	.st219{clip-path:url(#SVGID_00000173866574322128518640000002450216029823976619_);fill:#2B2961;}
	.st220{clip-path:url(#SVGID_00000114777945799437821650000004958991065609643188_);fill:#FFFFFF;}
	.st221{clip-path:url(#SVGID_00000114777945799437821650000004958991065609643188_);fill:#2B2961;}
	.st222{clip-path:url(#SVGID_00000021091206941476785970000016088934635413057178_);fill:#FFFFFF;}
	.st223{clip-path:url(#SVGID_00000021091206941476785970000016088934635413057178_);fill:#2B2961;}
	.st224{clip-path:url(#SVGID_00000121960106627058726220000016305056927048662657_);fill:#6EC3BF;}
	.st225{clip-path:url(#SVGID_00000121960106627058726220000016305056927048662657_);fill:#2B2961;}
	.st226{clip-path:url(#SVGID_00000147937094610124362110000001182789047038542238_);fill:#2B2961;}
	.st227{clip-path:url(#SVGID_00000147937094610124362110000001182789047038542238_);fill:#6EC3BF;}
	.st228{clip-path:url(#SVGID_00000145757655982647282060000008033521123592560566_);fill:#2B2961;}
	.st229{clip-path:url(#SVGID_00000086652687237836099110000004534955960892451210_);fill:#6EC3BF;}
	.st230{clip-path:url(#SVGID_00000086652687237836099110000004534955960892451210_);fill:#2B2961;}
	.st231{clip-path:url(#SVGID_00000087394396824516913570000014656446476081643711_);fill:#2B2961;}
	.st232{clip-path:url(#SVGID_00000150098930181405925520000001200186125637482635_);fill:#2B2961;}
	.st233{clip-path:url(#SVGID_00000150098930181405925520000001200186125637482635_);fill:#6EC3BF;}
	.st234{clip-path:url(#SVGID_00000059283322033660048290000014496013548404781718_);fill:#2B2961;}
	.st235{clip-path:url(#SVGID_00000177485637247487264020000014709378027515016340_);fill:#FFFFFF;}
	.st236{clip-path:url(#SVGID_00000177485637247487264020000014709378027515016340_);fill:#2B2961;}
	.st237{fill:#2C265F;}
	.st238{clip-path:url(#SVGID_00000038415686464140787350000010910895150915136165_);fill:#2B2961;}
	.st239{clip-path:url(#SVGID_00000038415686464140787350000010910895150915136165_);fill:#6EC3BF;}
	.st240{fill:#61B87A;}
	.st241{clip-path:url(#SVGID_00000023265329544877840580000006495470020365618309_);fill:#2B2961;}
	.st242{clip-path:url(#SVGID_00000021810518766236116190000000518103840278516352_);fill:#2B2961;}
	.st243{clip-path:url(#SVGID_00000087386268259396598720000015708425533619979955_);fill:#2B2961;}
	.st244{clip-path:url(#SVGID_00000180355149983334332870000009704101107802225283_);fill:#2B2961;}
	.st245{clip-path:url(#SVGID_00000180355149983334332870000009704101107802225283_);fill:#61B87A;}
	.st246{clip-path:url(#SVGID_00000180355149983334332870000009704101107802225283_);fill:#FFFFFF;}
	.st247{clip-path:url(#SVGID_00000057831885641838725410000013465331212319579308_);fill:#2B2961;}
	.st248{clip-path:url(#SVGID_00000057831885641838725410000013465331212319579308_);fill:#61B87A;}
	.st249{clip-path:url(#SVGID_00000024681277887091456450000005451524799773653168_);fill:#2B2961;}
	.st250{clip-path:url(#SVGID_00000012465968821328475950000003670409682263820202_);fill:#6EC3BF;}
	.st251{clip-path:url(#SVGID_00000012465968821328475950000003670409682263820202_);fill:#2B2961;}
	.st252{clip-path:url(#SVGID_00000059989040027424595840000017946793059098677434_);fill:#2B2961;}
	.st253{clip-path:url(#SVGID_00000059989040027424595840000017946793059098677434_);fill:#6EC3BF;}
	.st254{clip-path:url(#SVGID_00000131348711695080420700000010339264097614126749_);fill:#2B2961;}
	.st255{clip-path:url(#SVGID_00000131348711695080420700000010339264097614126749_);fill:#6EC3BF;}
</style>
<g>
	<polygon class="st0" points="209.27,67.89 167.59,104.26 136.44,73.98 89.73,125.89 47.33,95.9 6.67,149.24 6.67,169.63 
		47.33,116.27 89.73,146.27 136.44,94.36 167.59,124.64 219.08,79.58 227.57,89.69 230.14,60.28 200.47,57.4 	"/>
	<path class="st0" d="M6.67,170.4c-0.08,0-0.17-0.01-0.24-0.04c-0.32-0.11-0.52-0.4-0.52-0.73v-20.39c0-0.17,0.05-0.33,0.15-0.47
		l40.67-53.35c0.26-0.33,0.72-0.4,1.06-0.16l41.83,29.6l46.26-51.4c0.14-0.16,0.34-0.25,0.55-0.25c0.01,0,0.02,0,0.02,0
		c0.2,0,0.39,0.08,0.54,0.22l30.64,29.79L208.2,67.8l-8.31-9.91c-0.2-0.24-0.24-0.58-0.09-0.85c0.14-0.27,0.42-0.43,0.75-0.41
		l29.66,2.88c0.42,0.04,0.73,0.41,0.7,0.83l-2.58,29.41c-0.03,0.31-0.24,0.57-0.54,0.67s-0.62,0-0.82-0.24L219,80.68l-50.9,44.54
		c-0.3,0.27-0.76,0.25-1.04-0.03l-30.58-29.72L90.3,146.79c-0.26,0.3-0.69,0.34-1.02,0.11L47.5,117.33L7.28,170.1
		C7.13,170.29,6.9,170.4,6.67,170.4z M7.44,149.5v17.85l39.28-51.55c0.26-0.33,0.72-0.4,1.06-0.16l41.83,29.6l46.26-51.4
		c0.14-0.16,0.34-0.25,0.55-0.25c0.01,0,0.02,0,0.02,0c0.2,0,0.39,0.08,0.54,0.22l30.64,29.78L218.58,79
		c0.16-0.14,0.4-0.2,0.57-0.19c0.21,0.02,0.4,0.11,0.53,0.27l7.28,8.69l2.34-26.8l-27.03-2.62l7.58,9.04
		c0.27,0.32,0.23,0.8-0.08,1.07l-41.68,36.38c-0.32,0.27-0.76,0.25-1.04-0.03l-30.58-29.73L90.3,126.41
		c-0.26,0.29-0.69,0.34-1.02,0.11L47.5,96.96L7.44,149.5z"/>
	<g>
		<defs>
			<rect id="SVGID_00000126301981095287226410000004540454292016022201_" y="10.63" width="512" height="164.39"/>
		</defs>
		<clipPath id="SVGID_00000160180801045785135030000017240883424980904630_">
			<use xlink:href="#SVGID_00000126301981095287226410000004540454292016022201_"  style="overflow:visible;"/>
		</clipPath>
		<path style="clip-path:url(#SVGID_00000160180801045785135030000017240883424980904630_);fill:#2B2961;" d="M272.53,175.02H1.83
			c-1.01,0-1.83-0.82-1.83-1.83V42.56c0-1.01,0.82-1.83,1.83-1.83s1.83,0.82,1.83,1.83v128.8h268.87c1.01,0,1.83,0.82,1.83,1.83
			S273.54,175.02,272.53,175.02z"/>
		<path style="clip-path:url(#SVGID_00000160180801045785135030000017240883424980904630_);fill:#2B2961;" d="M1.83,175.03
			c-0.2,0-0.39-0.03-0.58-0.1C0.5,174.68,0,173.98,0,173.2v-20.39c0-0.4,0.13-0.79,0.38-1.11l40.67-53.35
			c0.59-0.79,1.72-0.95,2.51-0.38l41.07,29.05l45.63-50.7c0.33-0.37,0.8-0.59,1.3-0.61c0.36-0.05,0.98,0.17,1.34,0.52l29.94,29.11
			l39.05-34.08l-7.64-9.11c-0.48-0.57-0.57-1.37-0.22-2.03c0.35-0.66,1.05-1.06,1.8-0.97l29.67,2.88c1,0.1,1.73,0.98,1.65,1.98
			l-2.58,29.41c-0.07,0.74-0.57,1.36-1.28,1.59c-0.7,0.22-1.48,0-1.95-0.57l-7.28-8.68l-50.08,43.83c-0.72,0.63-1.8,0.6-2.48-0.07
			l-29.79-28.95l-45.44,50.5c-0.62,0.7-1.68,0.8-2.41,0.27l-40.95-28.97l-39.6,51.95C2.93,174.77,2.39,175.03,1.83,175.03z
			 M3.66,153.43v14.35l37.38-49.04c0.6-0.78,1.72-0.95,2.51-0.38l41.07,29.06l45.63-50.7c0.33-0.37,0.8-0.59,1.3-0.61
			c0.36-0.07,0.98,0.17,1.34,0.52l29.94,29.1l50.22-43.94c0.36-0.32,0.82-0.5,1.35-0.45c0.49,0.04,0.94,0.27,1.26,0.65l5.65,6.72
			l2.03-23.2l-23.4-2.27l5.92,7.05c0.64,0.76,0.55,1.9-0.2,2.56l-41.68,36.38c-0.72,0.62-1.8,0.6-2.48-0.07l-29.79-28.96
			l-45.44,50.5c-0.62,0.69-1.68,0.8-2.41,0.27l-40.95-28.97L3.66,153.43z"/>
		<path style="clip-path:url(#SVGID_00000160180801045785135030000017240883424980904630_);fill:#FFFFFF;" d="M426.54,173.19
			c44.38,0,80.36-35.98,80.36-80.36c0-44.39-35.98-80.36-80.36-80.36s-80.36,35.97-80.36,80.36
			C346.17,137.21,382.15,173.19,426.54,173.19"/>
		<path style="clip-path:url(#SVGID_00000160180801045785135030000017240883424980904630_);fill:#2B2961;" d="M426.54,175.02
			c-45.32,0-82.19-36.87-82.19-82.2s36.87-82.2,82.19-82.2s82.19,36.87,82.19,82.2S471.86,175.02,426.54,175.02z M426.54,14.3
			c-43.3,0-78.53,35.23-78.53,78.53s35.23,78.53,78.53,78.53s78.53-35.23,78.53-78.53S469.84,14.3,426.54,14.3z"/>
		<path style="clip-path:url(#SVGID_00000160180801045785135030000017240883424980904630_);fill:#FFFFFF;" d="M426.54,149.83
			c31.49,0,57.01-25.52,57.01-57c0-31.49-25.52-57.01-57.01-57.01s-57.01,25.52-57.01,57.01
			C369.53,124.31,395.05,149.83,426.54,149.83"/>
		<path style="clip-path:url(#SVGID_00000160180801045785135030000017240883424980904630_);fill:#2B2961;" d="M426.54,151.66
			c-32.44,0-58.84-26.39-58.84-58.83c0-32.44,26.4-58.84,58.84-58.84s58.84,26.39,58.84,58.84
			C485.38,125.27,458.98,151.66,426.54,151.66z M426.54,37.65c-30.43,0-55.18,24.75-55.18,55.18c0,30.42,24.75,55.17,55.18,55.17
			s55.18-24.75,55.18-55.17C481.72,62.4,456.96,37.65,426.54,37.65z"/>
		<path style="clip-path:url(#SVGID_00000160180801045785135030000017240883424980904630_);fill:#6EC3BF;" d="M488.65,90.32
			c0,31.12-25.22,56.34-56.34,56.34c-31.11,0-56.34-25.22-56.34-56.34c0-31.11,25.22-56.34,56.34-56.34
			C463.42,33.99,488.65,59.21,488.65,90.32 M512,90.32c0-44.01-35.68-79.69-79.7-79.69c-44.01,0-79.69,35.68-79.69,79.69
			c0,44.02,35.68,79.7,79.69,79.7C476.32,170.02,512,134.34,512,90.32"/>
		<path style="clip-path:url(#SVGID_00000160180801045785135030000017240883424980904630_);fill:#2B2961;" d="M426.54,175.02
			c-45.32,0-82.19-36.87-82.19-82.2s36.87-82.2,82.19-82.2s82.19,36.87,82.19,82.2S471.86,175.02,426.54,175.02z M426.54,14.3
			c-43.3,0-78.53,35.23-78.53,78.53s35.23,78.53,78.53,78.53s78.53-35.23,78.53-78.53S469.84,14.3,426.54,14.3z"/>
		<path style="clip-path:url(#SVGID_00000160180801045785135030000017240883424980904630_);fill:#2B2961;" d="M426.54,151.66
			c-32.44,0-58.84-26.39-58.84-58.83c0-32.44,26.4-58.84,58.84-58.84s58.84,26.39,58.84,58.84
			C485.38,125.27,458.98,151.66,426.54,151.66z M426.54,37.65c-30.43,0-55.18,24.75-55.18,55.18c0,30.42,24.75,55.17,55.18,55.17
			s55.18-24.75,55.18-55.17C481.72,62.4,456.96,37.65,426.54,37.65z"/>
		<path style="clip-path:url(#SVGID_00000160180801045785135030000017240883424980904630_);fill:#6EC3BF;" d="M428.99,118.33
			c6.89,0,12.31-3.88,13.62-7.39c0.29-0.66,0.37-1.32,0.37-1.98c0-2.34-1.9-4.18-4.32-4.18c-1.47,0-2.86,0.73-4.18,2.34
			c-1.32,1.68-3.08,2.49-5.42,2.49c-2.78,0-4.76-1.25-5.71-4.18c-0.37-1.1-0.59-2.28-0.59-4.84c0-0.29,0.15-0.44,0.44-0.44h7.91
			c2.05,0,3.22-1.25,3.22-3c0-1.76-1.17-3-3.22-3h-7.91c-0.29,0-0.44-0.15-0.44-0.44v-2.5c0-0.29,0.15-0.44,0.44-0.44h10.84
			c2.05,0,3.22-1.25,3.22-3c0-1.76-1.17-3-3.22-3H423.2c-0.29,0-0.44-0.15-0.44-0.44c0-2.2,0.22-3.44,0.59-4.54
			c0.95-2.94,2.93-4.18,5.71-4.18c2.34,0,4.1,0.81,5.42,2.49c1.32,1.61,2.71,2.34,4.18,2.34c2.42,0,4.32-1.83,4.32-4.18
			c0-0.65-0.07-1.31-0.37-1.97c-1.32-3.52-6.74-7.4-13.62-7.4c-7.91,0-13.47,3.66-15.67,10.54c-0.59,1.98-0.95,4.18-0.95,6.89
			c0,0.29-0.15,0.44-0.44,0.44h-1.17c-2.13,0-3.3,1.25-3.3,3c0,1.75,1.17,3,3.3,3h1.17c0.29,0,0.44,0.15,0.44,0.44v2.5
			c0,0.29-0.15,0.44-0.44,0.44h-1.17c-2.13,0-3.3,1.25-3.3,3c0,1.75,1.17,3,3.3,3h1.17c0.29,0,0.44,0.15,0.44,0.44
			c0,3.08,0.37,5.21,0.95,7.18C415.51,114.66,421.07,118.33,428.99,118.33"/>
	</g>
</g>
</svg>
