<?xml version="1.0" encoding="UTF-8" standalone="no"?> <svg xmlns="http://www.w3.org/2000/svg" xmlns:xlink="http://www.w3.org/1999/xlink" xmlns:serif="http://www.serif.com/" width="100%" height="100%" viewBox="0 0 647 636" version="1.1" xml:space="preserve" style="fill-rule:evenodd;clip-rule:evenodd;stroke-miterlimit:10;"> <g transform="matrix(-4.16667,0,0,4.16667,542.408,-2296.24)"> <rect x="113.29" y="596.677" width="14.173" height="99.881" style="fill:rgb(121,204,198);"></rect> </g> <g transform="matrix(-4.16667,0,0,4.16667,1107.05,-2175.08)"> <rect x="113.59" y="592.741" width="149.088" height="78.673" style="fill:rgb(121,204,198);stroke:rgb(42,44,104);stroke-width:0.6px;"></rect> </g> <g transform="matrix(4.16667,0,0,4.16667,31.0682,234.709)"> <path d="M0,2.345L4.691,2.345L2.345,0L0,2.345Z" style="fill:white;fill-rule:nonzero;"></path> </g> <g transform="matrix(4.16667,0,0,4.16667,31.0682,273.578)"> <path d="M0,2.345L4.691,2.345L2.345,0L0,2.345Z" style="fill:white;fill-rule:nonzero;"></path> </g> <g transform="matrix(4.16667,0,0,4.16667,31.0682,254.144)"> <path d="M0,2.345L4.691,2.345L2.345,0L0,2.345Z" style="fill:white;fill-rule:nonzero;"></path> </g> <g transform="matrix(-4.16667,0,0,4.16667,1104.55,-2738.23)"> <rect x="113.29" y="692.569" width="149.086" height="14.173" style="fill:rgb(121,204,198);"></rect> </g> <g transform="matrix(4.16667,0,0,4.16667,-460.729,-415.638)"> <text x="133.652px" y="188.087px" style="font-family:'Arial-BoldMT', 'Arial', sans-serif;font-weight:700;font-size:13px;fill:rgb(41,44,104);">Be<tspan x="150.161px 155.166px 163.053px 167.327px 174.503px 181.679px 189.565px 196.741px 204.628px 208.185px 211.743px 219.629px 227.516px " y="188.087px 188.087px 188.087px 188.087px 188.087px 188.087px 188.087px 188.087px 188.087px 188.087px 188.087px 188.087px 188.087px ">rufsausbildun</tspan>g</text> <text x="131.26px" y="203.687px" style="font-family:'Arial-BoldMT', 'Arial', sans-serif;font-weight:700;font-size:13px;fill:rgb(41,44,104);">+</text> <text x="141.855px" y="203.687px" style="font-family:'Arial-BoldMT', 'Arial', sans-serif;font-weight:700;font-size:13px;fill:rgb(41,44,104);">B<tspan x="151.36px 158.708px 163.884px 171.942px 176.389px 183.736px 191.083px 196.26px 200.706px 208.054px 216.112px 221.288px 229.346px 237.405px " y="203.687px 203.687px 203.687px 203.687px 203.687px 203.687px 203.687px 203.687px 203.687px 203.687px 203.687px 203.687px 203.687px 203.687px ">erufserfahrung</tspan></text> <text x="125.189px" y="219.287px" style="font-family:'Arial-BoldMT', 'Arial', sans-serif;font-weight:700;font-size:13px;fill:white;">V<tspan x="132.886px 140.818px " y="219.287px 219.287px ">oc</tspan>ational</text> <text x="192.1px" y="219.287px" style="font-family:'Arial-BoldMT', 'Arial', sans-serif;font-weight:700;font-size:13px;fill:white;">training <tspan x="243.842px " y="219.287px ">+</tspan></text> <text x="127.6px" y="234.887px" style="font-family:'Arial-BoldMT', 'Arial', sans-serif;font-weight:700;font-size:13px;fill:white;">working exper<tspan x="215.844px " y="234.887px ">i</tspan>ence</text> </g> <g transform="matrix(4.16667,0,0,4.16667,-460.729,-415.638)"> <text x="180.36px" y="122.968px" style="font-family:'Arial-BoldMT', 'Arial', sans-serif;font-weight:700;font-size:13px;fill:rgb(42,44,104);">FS</text> <text x="140.04px" y="144.668px" style="font-family:'ArialMT', 'Arial', sans-serif;font-size:9px;fill:white;">1</text> <text x="148.257px" y="144.668px" style="font-family:'ArialMT', 'Arial', sans-serif;font-size:9px;fill:white;">-<tspan x="151.707px 155.098px 160.556px 163.947px 168.9px 175.356px 182.308px 189.261px " y="144.668px 144.668px 144.668px 144.668px 144.668px 144.668px 144.668px 144.668px "> 2 JAHRE</tspan></text> <text x="198.199px" y="144.668px" style="font-family:'ArialMT', 'Arial', sans-serif;font-size:9px;fill:white;">/</text> <text x="205.128px" y="144.668px" style="font-family:'ArialMT', 'Arial', sans-serif;font-size:9px;fill:white;">Y<tspan x="211.584px 218.04px 224.496px 231.448px " y="144.668px 144.668px 144.668px 144.668px ">EARS</tspan></text> </g> <g transform="matrix(-4.16667,0,0,4.16667,1107.05,-2874.39)"> <rect x="113.59" y="692.869" width="149.088" height="46.253" style="fill:none;stroke:rgb(42,44,104);stroke-width:0.6px;"></rect> </g> <g transform="matrix(4.16667,0,0,4.16667,31.0682,215.142)"> <path d="M0,2.345L4.691,2.345L2.345,0L0,2.345Z" style="fill:white;fill-rule:nonzero;"></path> </g> </svg> 