<?xml version="1.0" encoding="utf-8"?>
<!-- Generator: Adobe Illustrator 26.2.1, SVG Export Plug-In . SVG Version: 6.00 Build 0)  -->
<svg version="1.1" id="Ebene_1" xmlns="http://www.w3.org/2000/svg" xmlns:xlink="http://www.w3.org/1999/xlink" x="0px" y="0px"
	 viewBox="0 0 512 512" style="enable-background:new 0 0 512 512;" xml:space="preserve">
<style type="text/css">
	.st0{fill:#6EC3BF;}
	.st1{fill:#A0D5D2;}
	.st2{fill:#87CCC8;}
	.st3{fill:#FFFFFF;}
	.st4{clip-path:url(#SVGID_00000075127716075526629250000007059952052683203976_);fill:#2B2961;}
	.st5{fill:#897DA2;}
	.st6{fill:#2B2961;}
	.st7{clip-path:url(#SVGID_00000100366271746412119430000017794930522854901903_);fill:#FFFFFF;}
	.st8{clip-path:url(#SVGID_00000100366271746412119430000017794930522854901903_);fill:#2B2961;}
	.st9{clip-path:url(#SVGID_00000060751084879517849150000014175100871986745253_);fill:#FFFFFF;}
	.st10{clip-path:url(#SVGID_00000060751084879517849150000014175100871986745253_);fill:#6EC3BF;}
	.st11{fill:#9D9D9C;}
	.st12{fill:#D0D0D0;}
	.st13{clip-path:url(#SVGID_00000066482527129879331900000012677219810556491406_);fill:#FFFFFF;}
	.st14{clip-path:url(#SVGID_00000127039056775462034240000015758221165728152237_);fill:#2B2961;}
	.st15{clip-path:url(#SVGID_00000127039056775462034240000015758221165728152237_);fill:#FFFFFF;}
	.st16{fill:#97D1CE;}
	.st17{clip-path:url(#SVGID_00000099655941542380170020000014687686129025096321_);fill:#2B2961;}
	.st18{clip-path:url(#SVGID_00000013880049049179129910000009586114836097391754_);fill:#2B2961;}
	.st19{clip-path:url(#SVGID_00000042014727991065530880000009633647953165466018_);fill:#FFFFFF;}
	.st20{clip-path:url(#SVGID_00000042014727991065530880000009633647953165466018_);fill:#2B2961;}
	.st21{clip-path:url(#SVGID_00000054965309761022585040000007695840748523190203_);fill:#2B2961;}
	.st22{clip-path:url(#SVGID_00000183244067140659847780000004096008773461212066_);fill:#2B2961;}
	.st23{clip-path:url(#SVGID_00000183244067140659847780000004096008773461212066_);fill:#FFFFFF;}
	.st24{clip-path:url(#SVGID_00000109736982888051948620000004138159504862947000_);fill:#FFFFFF;}
	.st25{clip-path:url(#SVGID_00000005247279414981221460000010836498281268177832_);fill:#6EC3BF;}
	.st26{clip-path:url(#SVGID_00000062881401912408136410000008502221859298792633_);fill:#2B2961;}
	.st27{clip-path:url(#SVGID_00000062881401912408136410000008502221859298792633_);fill:#1D1D1B;}
	.st28{clip-path:url(#SVGID_00000062881401912408136410000008502221859298792633_);fill:#FFFFFF;}
	.st29{clip-path:url(#SVGID_00000100351324372165879250000009171433941319023273_);fill:#2B2961;}
	.st30{clip-path:url(#SVGID_00000068672476935482197510000003469127324745137069_);fill:#2B2961;}
	.st31{clip-path:url(#SVGID_00000068672476935482197510000003469127324745137069_);fill:#FFFFFF;}
	.st32{clip-path:url(#SVGID_00000048501625837265594680000017938007160223849360_);fill:#2B2961;}
	.st33{clip-path:url(#SVGID_00000058563771962179422650000012785085831873880489_);fill:#2B2961;}
	.st34{clip-path:url(#SVGID_00000058563771962179422650000012785085831873880489_);fill:#6EC3BF;}
	.st35{clip-path:url(#SVGID_00000118373884591941998800000017585434465190864573_);fill:#2B2961;}
	.st36{clip-path:url(#SVGID_00000093892460011910914780000016524460603937272232_);fill:#2B2961;}
	.st37{clip-path:url(#SVGID_00000159442446406590839950000009472501677233685663_);fill:#2B2961;}
	.st38{clip-path:url(#SVGID_00000001627129714222168030000005455344100220236462_);fill:#2B2961;}
	.st39{clip-path:url(#SVGID_00000145737125330660016090000016702251640789530241_);fill:#6EC3BF;}
	.st40{clip-path:url(#SVGID_00000116916659506757799200000002258746967249542289_);fill:#6EC3BF;}
	.st41{clip-path:url(#SVGID_00000168819663746304735400000007841401895767447207_);fill:#6EC3BF;}
	.st42{clip-path:url(#SVGID_00000013875816987980933340000007870221199093008282_);fill:#6EC3BF;}
	.st43{clip-path:url(#SVGID_00000047031733553703314340000016139187365192874882_);fill:#2B2961;}
	.st44{clip-path:url(#SVGID_00000121965030460841509760000014400783627899204515_);fill:#2B2961;}
	.st45{clip-path:url(#SVGID_00000017504568633236646640000010138200539653132465_);fill:#2B2961;}
	.st46{clip-path:url(#SVGID_00000010999339377756164990000014582729940361532581_);fill:#2B2961;}
	.st47{clip-path:url(#SVGID_00000010999339377756164990000014582729940361532581_);fill:#FFFFFF;}
	.st48{clip-path:url(#SVGID_00000163766648736370973210000007909349369322946694_);fill:#FFFFFF;}
	.st49{clip-path:url(#SVGID_00000052063092169917588220000006930494505043830975_);fill:#2B2961;}
	.st50{clip-path:url(#SVGID_00000044177733805577901910000015283362328668554939_);fill:#2B2961;}
	.st51{clip-path:url(#SVGID_00000044177733805577901910000015283362328668554939_);fill:#FFFFFF;}
	.st52{clip-path:url(#SVGID_00000125600431261855647130000007933398235360271005_);fill:#2B2961;}
	.st53{clip-path:url(#SVGID_00000125600431261855647130000007933398235360271005_);fill:#2C265F;}
	.st54{clip-path:url(#SVGID_00000162333731466673462020000010010547964886822813_);fill:#FFFFFF;}
	.st55{clip-path:url(#SVGID_00000150790834010840476610000015449902828396322737_);fill:#2B2961;}
	.st56{clip-path:url(#SVGID_00000139258883392674422410000002590056851928641698_);fill:#FFFFFF;}
	.st57{clip-path:url(#SVGID_00000133502327315423658830000005257272409746596526_);fill:#2B2961;}
	.st58{clip-path:url(#SVGID_00000174566342679823752310000006500040931606034080_);fill:#FFFFFF;}
	.st59{clip-path:url(#SVGID_00000181054282821528648700000010974648875347887788_);fill:#2B2961;}
	.st60{clip-path:url(#SVGID_00000181054282821528648700000010974648875347887788_);fill:#FFFFFF;}
	.st61{clip-path:url(#SVGID_00000010290890196348091320000015424178436287628428_);fill:#2B2961;}
	.st62{clip-path:url(#SVGID_00000160903581101557591910000014605004914373605272_);fill:#FFFFFF;}
	.st63{clip-path:url(#SVGID_00000052784290635017642010000014716044545116749756_);fill:#2B2961;}
	.st64{clip-path:url(#SVGID_00000116218578804351280710000004910745795707493250_);fill:#FFFFFF;}
	.st65{clip-path:url(#SVGID_00000116218578804351280710000004910745795707493250_);fill:#2B2961;}
	.st66{clip-path:url(#SVGID_00000112606817006305997390000004397498236741969536_);fill:#2B2961;}
	.st67{clip-path:url(#SVGID_00000112606817006305997390000004397498236741969536_);fill:#6EC3BF;}
	.st68{clip-path:url(#SVGID_00000112606817006305997390000004397498236741969536_);fill:#FFFFFF;}
	.st69{clip-path:url(#SVGID_00000070100800019960821290000004485832889537129384_);fill:#2B2961;}
	.st70{clip-path:url(#SVGID_00000176030844122684743520000008051995634993277853_);fill:#2B2961;}
	.st71{clip-path:url(#SVGID_00000096754873097410837100000009488959084955002302_);fill:#2B2961;}
	.st72{clip-path:url(#SVGID_00000157990850133784411930000011527832957762839484_);fill:#2B2961;}
	.st73{clip-path:url(#SVGID_00000029727604960666531470000000713953537579064987_);fill:#2B2961;}
	.st74{clip-path:url(#SVGID_00000087389817624866972190000011889040718284832391_);fill:#FFFFFF;}
	.st75{clip-path:url(#SVGID_00000087389817624866972190000011889040718284832391_);fill:#6EC3BF;}
	.st76{clip-path:url(#SVGID_00000141430955737418082270000010563556340523999376_);fill:#2B2961;}
	.st77{clip-path:url(#SVGID_00000145777458393591830050000008689905064981466515_);fill:#2B2961;}
	.st78{clip-path:url(#SVGID_00000145777458393591830050000008689905064981466515_);fill:#FFFFFF;}
	.st79{clip-path:url(#SVGID_00000088115507327969812990000005069018236870607251_);fill:#2B2961;}
	.st80{clip-path:url(#SVGID_00000025436363387689485410000009832816486759376268_);fill:#FFFFFF;}
	.st81{clip-path:url(#SVGID_00000160908924407000259830000012618445691755353785_);fill:#2B2961;}
	.st82{clip-path:url(#SVGID_00000111149231315111123330000002426627070609853858_);fill:#2B2961;}
	.st83{clip-path:url(#SVGID_00000036215745698086116340000003525608000882010793_);fill:#2B2961;}
	.st84{clip-path:url(#SVGID_00000049916925183998890220000009753947210909856441_);fill:#FFFFFF;}
	.st85{clip-path:url(#SVGID_00000126324714948516301670000014102275390575414166_);fill:#FFFFFF;}
	.st86{clip-path:url(#SVGID_00000167354102705303342470000009371256410282806457_);fill:#2B2961;}
	.st87{clip-path:url(#SVGID_00000134969793066609388510000016139900441133375416_);fill:#2B2961;}
	.st88{clip-path:url(#SVGID_00000134969793066609388510000016139900441133375416_);fill:#FFFFFF;}
	.st89{clip-path:url(#SVGID_00000016042905592493110970000010142440822033434006_);fill:#2B2961;}
	.st90{clip-path:url(#SVGID_00000017514658320780997830000014463677499722992314_);fill:#FFFFFF;}
	.st91{clip-path:url(#SVGID_00000076569818770972153760000011731001743763501724_);fill:#6EC3BF;}
	.st92{clip-path:url(#SVGID_00000076569818770972153760000011731001743763501724_);fill:#2B2961;}
	.st93{clip-path:url(#SVGID_00000057125515796683149570000013522614124887814846_);fill:#6EC3BF;}
	.st94{clip-path:url(#SVGID_00000008107232714139373550000018080847578358562206_);fill:#2B2961;}
	.st95{clip-path:url(#SVGID_00000158014614058164705330000018281884781642006925_);fill:#2B2961;}
	.st96{clip-path:url(#SVGID_00000170957461982515472540000015654467186839457439_);fill:#2B2961;}
	.st97{clip-path:url(#SVGID_00000037688543164634161100000006621262048188868491_);fill:#2B2961;}
	.st98{clip-path:url(#SVGID_00000105386524037088532560000012689365751529382805_);fill:#2B2961;}
	.st99{clip-path:url(#SVGID_00000105386524037088532560000012689365751529382805_);fill:#6EC3BF;}
	.st100{clip-path:url(#SVGID_00000116222874476775688970000003558653286413005202_);fill:#2B2961;}
	.st101{clip-path:url(#SVGID_00000040560530742931033840000009559311856542345644_);fill:#2B2961;}
	.st102{clip-path:url(#SVGID_00000040560530742931033840000009559311856542345644_);fill:#6EC3BF;}
	.st103{clip-path:url(#SVGID_00000104666420135602579580000005338510320076405380_);fill:#2B2961;}
	.st104{clip-path:url(#SVGID_00000004531266395922899410000010589170472275646377_);fill:#FFFFFF;}
	.st105{clip-path:url(#SVGID_00000004531266395922899410000010589170472275646377_);fill:#2B2961;}
	.st106{clip-path:url(#SVGID_00000027571523512294488910000003295494623936247743_);fill:#6EC3BF;}
	.st107{clip-path:url(#SVGID_00000145023172230643126100000005868264448757002647_);fill:#2B2961;}
	.st108{clip-path:url(#SVGID_00000000214986242223293550000005435465164986815891_);fill:#2B2961;}
	.st109{clip-path:url(#SVGID_00000000214986242223293550000005435465164986815891_);fill:#FFFFFF;}
	.st110{clip-path:url(#SVGID_00000039131488227951065660000015015535977280276661_);fill:#6EC3BF;}
	.st111{clip-path:url(#SVGID_00000121967326992903373960000015740458046834281386_);fill:#2B2961;}
	.st112{clip-path:url(#SVGID_00000031907649190353969200000010873186402705858721_);fill:#2B2961;}
	.st113{clip-path:url(#SVGID_00000031907649190353969200000010873186402705858721_);fill:#6EC3BF;}
	.st114{clip-path:url(#SVGID_00000098917180715804402000000003070428118589064355_);fill:#2B2961;}
	.st115{clip-path:url(#SVGID_00000128471251013893031640000012916042204902493089_);fill:#6EC3BF;}
	.st116{clip-path:url(#SVGID_00000128471251013893031640000012916042204902493089_);fill:#2B2961;}
	.st117{clip-path:url(#SVGID_00000132071306449297376220000014710231937136537474_);fill:#2B2961;}
	.st118{clip-path:url(#SVGID_00000008144442383755092460000001278625507340091045_);fill:#FFFFFF;}
	.st119{clip-path:url(#SVGID_00000008144442383755092460000001278625507340091045_);}
	.st120{clip-path:url(#SVGID_00000133516758053645203790000000516664831288749493_);fill:#2B2961;}
	.st121{clip-path:url(#SVGID_00000008144442383755092460000001278625507340091045_);fill:#6EC3BF;}
	.st122{clip-path:url(#SVGID_00000176763491681203295300000000910584228677076123_);fill:#2B2961;}
	.st123{clip-path:url(#SVGID_00000008144442383755092460000001278625507340091045_);fill:#2B2961;}
	.st124{clip-path:url(#SVGID_00000020400961476328171380000013060135349057945783_);fill:#2B2961;}
	.st125{clip-path:url(#SVGID_00000140734570721764129250000000827808844711944116_);fill:#2B2961;}
	.st126{clip-path:url(#SVGID_00000006676545613073498970000002771155440602770317_);}
	.st127{clip-path:url(#SVGID_00000041993520484012882990000001788517909944573584_);}
	.st128{clip-path:url(#SVGID_00000087394030047207372680000014783205301445729954_);fill:#FFFFFF;}
	.st129{clip-path:url(#SVGID_00000052789049276513637470000016942778384884747407_);fill:#2B2961;}
	.st130{clip-path:url(#SVGID_00000180345583180333396030000013745415043245846165_);fill:#2B2961;}
	.st131{clip-path:url(#SVGID_00000180345583180333396030000013745415043245846165_);fill:#6EC3BF;}
	.st132{clip-path:url(#SVGID_00000180345583180333396030000013745415043245846165_);fill:#FFFFFF;}
	.st133{clip-path:url(#SVGID_00000104688690439214736620000010642991350232013503_);fill:#2B2961;}
	.st134{clip-path:url(#SVGID_00000104688690439214736620000010642991350232013503_);fill:#6EC3BF;}
	.st135{clip-path:url(#SVGID_00000034787255156246671210000000482347650436616889_);fill:#2B2961;}
	.st136{clip-path:url(#SVGID_00000070814102216662799030000017675665479977236353_);fill:#6EC3BF;}
	.st137{clip-path:url(#SVGID_00000070814102216662799030000017675665479977236353_);fill:#FFFFFF;}
	.st138{clip-path:url(#SVGID_00000016065650040680915650000003040029029401496473_);fill:#2B2961;}
	.st139{clip-path:url(#SVGID_00000016065650040680915650000003040029029401496473_);fill:#6EC3BF;}
	.st140{clip-path:url(#SVGID_00000124843974613390684000000000225556979805958042_);fill:#2B2961;}
	.st141{clip-path:url(#SVGID_00000135685890144835568210000009962355884107560870_);fill:#2B2961;}
	.st142{clip-path:url(#SVGID_00000135685890144835568210000009962355884107560870_);fill:#FFFFFF;}
	.st143{clip-path:url(#SVGID_00000052801213907706017840000013438157760842242701_);fill:#2B2961;}
	.st144{clip-path:url(#SVGID_00000054975759937755152270000003340884938295488935_);fill:#FFFFFF;}
	.st145{clip-path:url(#SVGID_00000170274267947819808850000002905018249178628028_);fill:#2B2961;}
	.st146{clip-path:url(#SVGID_00000078014838538340064010000012458569212116592542_);fill:#2B2961;}
	.st147{clip-path:url(#SVGID_00000078014838538340064010000012458569212116592542_);fill:#FFFFFF;}
	.st148{clip-path:url(#SVGID_00000104673079266160535880000009345274233041073550_);fill:#2B2961;}
	.st149{clip-path:url(#SVGID_00000142166609565333101910000001559521147875693245_);fill:#2B2961;}
	.st150{clip-path:url(#SVGID_00000142166609565333101910000001559521147875693245_);fill:#FFFFFF;}
	.st151{clip-path:url(#SVGID_00000117663113152227997500000012102060342153881728_);fill:#2B2961;}
	.st152{clip-path:url(#SVGID_00000117663113152227997500000012102060342153881728_);fill:#6EC3BF;}
	.st153{clip-path:url(#SVGID_00000178190116885276621150000003476628546697246633_);fill:#1D1D1B;}
	.st154{clip-path:url(#SVGID_00000178190116885276621150000003476628546697246633_);fill:#2B2961;}
	.st155{clip-path:url(#SVGID_00000178190116885276621150000003476628546697246633_);fill:#FFFFFF;}
	.st156{clip-path:url(#SVGID_00000031203577290919672710000001492733236477241241_);fill:#2B2961;}
	.st157{clip-path:url(#SVGID_00000106837931649877981000000014629818716311751061_);fill:#2B2961;}
	.st158{clip-path:url(#SVGID_00000045615870453348597140000008612415587204606085_);fill:#2B2961;}
	.st159{clip-path:url(#SVGID_00000045615870453348597140000008612415587204606085_);fill:#FFFFFF;}
	.st160{clip-path:url(#SVGID_00000045615870453348597140000008612415587204606085_);fill:#6EC3BF;}
	.st161{clip-path:url(#SVGID_00000003070926812548437620000002794934822648371365_);fill:#2B2961;}
	.st162{clip-path:url(#SVGID_00000158739166806319383220000013138577392783127216_);fill:#2B2961;}
	.st163{clip-path:url(#SVGID_00000025409216757695803240000007649959809544598942_);fill:#2B2961;}
	.st164{clip-path:url(#SVGID_00000031169758502727408370000015113289947050157216_);fill:#2B2961;}
	.st165{clip-path:url(#SVGID_00000031169758502727408370000015113289947050157216_);fill:#FFFFFF;}
	.st166{clip-path:url(#SVGID_00000054229729215690828250000007369680677308540800_);fill:#2B2961;}
	.st167{clip-path:url(#SVGID_00000054229729215690828250000007369680677308540800_);fill:#FFFFFF;}
	.st168{clip-path:url(#SVGID_00000013889360531466833900000007697261462626448267_);fill:#2B2961;}
	.st169{clip-path:url(#SVGID_00000048458792684170019100000003436110682046669978_);fill:#2B2961;}
	.st170{clip-path:url(#SVGID_00000048458792684170019100000003436110682046669978_);fill:#FFFFFF;}
	.st171{clip-path:url(#SVGID_00000040563410582914890620000004222144785827633597_);fill:#2B2961;}
	.st172{clip-path:url(#SVGID_00000065068063067243467500000001029099977412959894_);fill:#FFFFFF;}
	.st173{clip-path:url(#SVGID_00000060751797778547501260000016678106705909633171_);fill:#2B2961;}
	.st174{clip-path:url(#SVGID_00000060751797778547501260000016678106705909633171_);fill:#6EC3BF;}
	.st175{clip-path:url(#SVGID_00000053511828933773894930000011347950613926842765_);fill:#2B2961;}
	.st176{clip-path:url(#SVGID_00000081625393761470972980000007602984453515882174_);fill:#2B2961;}
	.st177{clip-path:url(#SVGID_00000165924809639820791790000013065431370348950688_);fill:#FFFFFF;}
	.st178{clip-path:url(#SVGID_00000134241064548541375070000012402876323554851222_);fill:#6EC3BF;}
	.st179{clip-path:url(#SVGID_00000134241064548541375070000012402876323554851222_);fill:#2B2961;}
	.st180{clip-path:url(#SVGID_00000167355652382986903920000013516122930836832955_);fill:#6EC3BF;}
	.st181{clip-path:url(#SVGID_00000062188140933836705430000018092926671095468684_);fill:#2B2961;}
	.st182{clip-path:url(#SVGID_00000074404333819406261690000006208626788621806483_);fill:#6EC3BF;}
	.st183{clip-path:url(#SVGID_00000074404333819406261690000006208626788621806483_);fill:#2B2961;}
	.st184{clip-path:url(#SVGID_00000098933491470936852260000010634705331083224212_);fill:#2B2961;}
	.st185{clip-path:url(#SVGID_00000107587621285298456320000008577440195205901213_);fill:#2B2961;}
	.st186{clip-path:url(#SVGID_00000173867650441885551010000014790148445850116760_);fill:#2B2961;}
	.st187{clip-path:url(#SVGID_00000129169627641022839280000012724197278921573813_);fill:#2B2961;}
	.st188{clip-path:url(#SVGID_00000035526340861355629790000010911054023900115595_);fill:#2B2961;}
	.st189{clip-path:url(#SVGID_00000023980134647820762340000012093114495027741085_);fill:#6EC3BF;}
	.st190{clip-path:url(#SVGID_00000023980134647820762340000012093114495027741085_);fill:#2B2961;}
	.st191{clip-path:url(#SVGID_00000142163897353723507900000005380594022808917439_);fill:#6EC3BF;}
	.st192{clip-path:url(#SVGID_00000142163897353723507900000005380594022808917439_);fill:#2B2961;}
	.st193{clip-path:url(#SVGID_00000123404013493184760380000009905445883854446984_);fill:#2B2961;}
	.st194{clip-path:url(#SVGID_00000137846163374124326530000011541451595395318199_);fill:#2B2961;}
	.st195{clip-path:url(#SVGID_00000002348833421167719900000017651629869201662349_);fill:#2B2961;}
	.st196{clip-path:url(#SVGID_00000142169048390755693090000004375075261041987989_);fill:#FFFFFF;}
	.st197{clip-path:url(#SVGID_00000176031329083879594580000003324298853039583388_);fill:#2B2961;}
	.st198{clip-path:url(#SVGID_00000152958658814283515570000001602329264010642327_);fill:#2B2961;}
	.st199{clip-path:url(#SVGID_00000152958658814283515570000001602329264010642327_);fill:#6EC3BF;}
	.st200{clip-path:url(#SVGID_00000056388853996220077980000013468188826761118343_);fill:#2B2961;}
	.st201{clip-path:url(#SVGID_00000027606600054368406990000010550242925492751012_);fill:#2B2961;}
	.st202{clip-path:url(#SVGID_00000092420974114906766100000001006030480225984154_);fill:#6EC3BF;}
	.st203{clip-path:url(#SVGID_00000092420974114906766100000001006030480225984154_);fill:#2B2961;}
	.st204{clip-path:url(#SVGID_00000029005960254646498410000017629107627050767752_);fill:#6EC3BF;}
	.st205{clip-path:url(#SVGID_00000029005960254646498410000017629107627050767752_);fill:#2B2961;}
	.st206{clip-path:url(#SVGID_00000147929819694713125200000004177330465463059354_);fill:#2B2961;}
	.st207{clip-path:url(#SVGID_00000120545390183435291680000000810564005804360127_);fill:#2B2961;}
	.st208{clip-path:url(#SVGID_00000120545390183435291680000000810564005804360127_);fill:#6EC3BF;}
	.st209{clip-path:url(#SVGID_00000026152502127123781050000005563130779974943927_);fill:#2B2961;}
	.st210{clip-path:url(#SVGID_00000026152502127123781050000005563130779974943927_);fill:#6EC3BF;}
	.st211{clip-path:url(#SVGID_00000043457777689550437010000008960064469682063009_);fill:#2B2961;}
	.st212{clip-path:url(#SVGID_00000043457777689550437010000008960064469682063009_);fill:#6EC3BF;}
	.st213{clip-path:url(#SVGID_00000108309643025073398490000010332389365892561282_);fill:#2B2961;}
	.st214{clip-path:url(#SVGID_00000066508473284843489380000008228098909067750069_);fill:#6EC3BF;}
	.st215{clip-path:url(#SVGID_00000066508473284843489380000008228098909067750069_);fill:#2B2961;}
	.st216{clip-path:url(#SVGID_00000049899890172149952420000000985697427915341703_);fill:#6EC3BF;}
	.st217{clip-path:url(#SVGID_00000049899890172149952420000000985697427915341703_);fill:#2B2961;}
	.st218{clip-path:url(#SVGID_00000058587429761875754400000016579485617827221171_);fill:#FFFFFF;}
	.st219{clip-path:url(#SVGID_00000058587429761875754400000016579485617827221171_);fill:#2B2961;}
	.st220{clip-path:url(#SVGID_00000074413818031314846630000004467273641910059394_);fill:#FFFFFF;}
	.st221{clip-path:url(#SVGID_00000074413818031314846630000004467273641910059394_);fill:#2B2961;}
	.st222{clip-path:url(#SVGID_00000172439778911462052570000010834485385448348304_);fill:#FFFFFF;}
	.st223{clip-path:url(#SVGID_00000172439778911462052570000010834485385448348304_);fill:#2B2961;}
	.st224{clip-path:url(#SVGID_00000095337094446600604660000006300374654019417233_);fill:#6EC3BF;}
	.st225{clip-path:url(#SVGID_00000095337094446600604660000006300374654019417233_);fill:#2B2961;}
	.st226{clip-path:url(#SVGID_00000178196458017831565660000006926047196907429263_);fill:#2B2961;}
	.st227{clip-path:url(#SVGID_00000178196458017831565660000006926047196907429263_);fill:#6EC3BF;}
	.st228{clip-path:url(#SVGID_00000002349669304126051180000015645769862823081127_);fill:#2B2961;}
	.st229{clip-path:url(#SVGID_00000078003812207490718600000002743884406050849709_);fill:#6EC3BF;}
	.st230{clip-path:url(#SVGID_00000078003812207490718600000002743884406050849709_);fill:#2B2961;}
	.st231{clip-path:url(#SVGID_00000062898150033069767690000005297710415704340620_);fill:#2B2961;}
	.st232{clip-path:url(#SVGID_00000001630012610559420260000016803336597550082486_);fill:#2B2961;}
	.st233{clip-path:url(#SVGID_00000001630012610559420260000016803336597550082486_);fill:#6EC3BF;}
	.st234{clip-path:url(#SVGID_00000036209690828670542950000017822563572844369302_);fill:#2B2961;}
	.st235{clip-path:url(#SVGID_00000138572903756934901190000000671403155334997157_);fill:#FFFFFF;}
	.st236{clip-path:url(#SVGID_00000138572903756934901190000000671403155334997157_);fill:#2B2961;}
	.st237{fill:#2C265F;}
	.st238{clip-path:url(#SVGID_00000093174359298885479980000009480818517333967272_);fill:#2B2961;}
	.st239{clip-path:url(#SVGID_00000093174359298885479980000009480818517333967272_);fill:#6EC3BF;}
	.st240{fill:#61B87A;}
	.st241{clip-path:url(#SVGID_00000178181913643410512190000011597716233856133283_);fill:#2B2961;}
	.st242{clip-path:url(#SVGID_00000106851968240770909850000016754203113671367844_);fill:#2B2961;}
	.st243{clip-path:url(#SVGID_00000145028749467318975550000002458205566060852145_);fill:#2B2961;}
	.st244{clip-path:url(#SVGID_00000086667233110003636450000016451741559795142061_);fill:#2B2961;}
	.st245{clip-path:url(#SVGID_00000086667233110003636450000016451741559795142061_);fill:#61B87A;}
	.st246{clip-path:url(#SVGID_00000086667233110003636450000016451741559795142061_);fill:#FFFFFF;}
	.st247{clip-path:url(#SVGID_00000125594906530860772740000001981790851847952798_);fill:#2B2961;}
	.st248{clip-path:url(#SVGID_00000125594906530860772740000001981790851847952798_);fill:#61B87A;}
	.st249{clip-path:url(#SVGID_00000179624337964629570620000011914568940321835155_);fill:#2B2961;}
	.st250{clip-path:url(#SVGID_00000018936200204035584080000015868530007931615107_);fill:#6EC3BF;}
	.st251{clip-path:url(#SVGID_00000018936200204035584080000015868530007931615107_);fill:#2B2961;}
	.st252{clip-path:url(#SVGID_00000115472992877050051060000008910632231491625146_);fill:#2B2961;}
	.st253{clip-path:url(#SVGID_00000115472992877050051060000008910632231491625146_);fill:#6EC3BF;}
	.st254{clip-path:url(#SVGID_00000008858383830951055500000017207071648665964455_);fill:#2B2961;}
	.st255{clip-path:url(#SVGID_00000008858383830951055500000017207071648665964455_);fill:#6EC3BF;}
</style>
<g>
	<rect x="27.48" y="267.1" class="st2" width="43.27" height="181.63"/>
	<rect x="27.48" y="58.24" class="st2" width="43.27" height="73.63"/>
	<rect x="27.48" y="228.74" class="st2" width="455.2" height="43.27"/>
	<path class="st6" d="M279.78,165.35h-5.76l-5.68,18.41l-5.68-18.41h-5.72l9.33,28.26h4.13L279.78,165.35z M248.34,183.97h-7.03
		l3.57-10.28L248.34,183.97z M257.23,193.61l-10.32-28.26h-4.33l-10.28,28.26h5.76l1.71-5h10.04l1.67,5H257.23z"/>
	<rect x="28.4" y="8.38" class="st2" width="451.84" height="63.51"/>
	<g>
		<defs>
			<rect id="SVGID_00000133523465017614170050000013004511773078966703_" y="7.47" width="512" height="497.06"/>
		</defs>
		<clipPath id="SVGID_00000092445746798505375820000004138144409163340679_">
			<use xlink:href="#SVGID_00000133523465017614170050000013004511773078966703_"  style="overflow:visible;"/>
		</clipPath>
		<path style="clip-path:url(#SVGID_00000092445746798505375820000004138144409163340679_);fill:#2B2961;" d="M481.15,72.81H27.48
			V7.47h453.67V72.81z M29.31,70.98h450.01V9.3H29.31V70.98z"/>
		<path style="clip-path:url(#SVGID_00000092445746798505375820000004138144409163340679_);fill:#FFFFFF;" d="M452.19,45.16
			c0-3.49-2.06-5.68-6.15-6.07l-3.25-0.32c-1.83-0.16-2.14-1.03-2.14-1.79c0-1.03,0.87-1.98,2.94-1.98c1.79,0,3.61,0.32,4.8,1.39
			l3.18-3.21c-1.98-1.87-4.68-2.42-7.9-2.42c-4.21,0-7.98,2.3-7.98,6.58c0,3.81,2.3,5.44,6.03,5.8l3.25,0.32
			c1.63,0.16,2.18,0.87,2.18,1.91c0,1.55-1.87,2.15-3.65,2.15c-1.59,0-3.81-0.24-5.52-1.95l-3.37,3.37
			c2.62,2.62,5.56,2.97,8.81,2.97C448.3,51.9,452.19,49.72,452.19,45.16 M431.75,45.16c0-3.49-2.06-5.68-6.15-6.07l-3.25-0.32
			c-1.83-0.16-2.14-1.03-2.14-1.79c0-1.03,0.87-1.98,2.94-1.98c1.79,0,3.61,0.32,4.8,1.39l3.18-3.21c-1.98-1.87-4.68-2.42-7.9-2.42
			c-4.21,0-7.98,2.3-7.98,6.58c0,3.81,2.3,5.44,6.03,5.8l3.25,0.32c1.63,0.16,2.18,0.87,2.18,1.91c0,1.55-1.87,2.15-3.65,2.15
			c-1.59,0-3.81-0.24-5.52-1.95l-3.37,3.37c2.62,2.62,5.56,2.97,8.81,2.97C427.86,51.9,431.75,49.72,431.75,45.16 M409.6,51.66
			V30.99h-5.16v12.5c0,2.82-1.83,3.77-3.45,3.77c-1.63,0-3.42-0.95-3.42-3.77v-12.5h-5.16v13.22c0,2.26,0.44,4.2,2.1,5.87
			c1.15,1.15,2.82,1.82,4.88,1.82c1.91,0,3.81-0.71,5.16-2.14v1.9H409.6z M387.73,51.66V47.3h-1.98c-1.31,0-1.83-0.64-1.83-1.87
			V23.41h-5.15v22.35c0,2.93,1.78,5.91,6.03,5.91H387.73z M372.6,51.66V38.29c0-4.36-2.38-7.54-6.9-7.54
			c-1.83,0-3.58,0.71-4.96,2.14v-9.48h-5.15v28.26h5.15V39.04c0-2.7,1.71-3.65,3.34-3.65c1.63,0,3.38,0.91,3.38,3.65v12.62H372.6z
			 M350.77,49.09l-3.49-3.45c-1.07,1.15-1.98,1.63-3.33,1.63c-1.23,0-2.18-0.44-2.94-1.35c-0.79-0.99-1.15-2.42-1.15-4.6
			s0.36-3.58,1.15-4.57c0.75-0.91,1.71-1.35,2.94-1.35c1.35,0,2.26,0.48,3.33,1.63l3.49-3.49c-1.83-1.91-3.97-2.78-6.83-2.78
			c-4.13,0-9.24,2.18-9.24,10.56s5.11,10.59,9.24,10.59C346.8,51.9,348.95,50.99,350.77,49.09 M330.61,45.16
			c0-3.49-2.06-5.68-6.15-6.07l-3.25-0.32c-1.83-0.16-2.14-1.03-2.14-1.79c0-1.03,0.87-1.98,2.94-1.98c1.79,0,3.61,0.32,4.8,1.39
			l3.18-3.21c-1.98-1.87-4.68-2.42-7.9-2.42c-4.21,0-7.98,2.3-7.98,6.58c0,3.81,2.3,5.44,6.03,5.8l3.25,0.32
			c1.63,0.16,2.18,0.87,2.18,1.91c0,1.55-1.87,2.15-3.65,2.15c-1.59,0-3.81-0.24-5.52-1.95l-3.37,3.37
			c2.62,2.62,5.56,2.97,8.81,2.97C326.72,51.9,330.61,49.72,330.61,45.16 M304.18,41.31c0,3.37-0.4,5.96-3.5,5.96
			s-3.5-2.58-3.5-5.96c0-3.38,0.4-5.92,3.5-5.92S304.18,37.93,304.18,41.31 M309.33,41.31c0-3.1-0.04-6.63-2.1-8.69
			c-1.15-1.15-3.01-1.86-5.04-1.86c-2.1,0-3.65,0.55-5,2.06v-9.4h-5.15v28.26h5v-1.94c1.43,1.58,2.98,2.18,5.16,2.18
			c2.03,0,3.89-0.71,5.04-1.86C309.29,47.98,309.33,44.4,309.33,41.31 M280.52,44.04c0,1.27-0.2,2.11-0.75,2.62
			c-0.91,0.88-1.83,1-3.26,1c-2.02,0-2.98-0.96-2.98-2.38c0-1.47,1.04-2.34,2.9-2.34h4.09V44.04z M285.68,51.66V38.05
			c0-4.84-3.01-7.3-8.81-7.3c-3.46,0-5.44,0.63-7.46,2.85l3.29,3.22c1.07-1.23,1.98-1.71,3.97-1.71c2.74,0,3.85,0.99,3.85,3.26v1.04
			h-4.89c-4.8,0-7.06,2.69-7.06,5.99c0,1.83,0.6,3.49,1.7,4.64c1.23,1.23,2.93,1.82,5.28,1.82c2.38,0,3.69-0.6,5.08-1.98v1.78
			H285.68z M265.12,51.66V47.3h-1.98c-1.31,0-1.83-0.64-1.83-1.87V23.41h-5.15v22.35c0,2.93,1.78,5.91,6.03,5.91H265.12z
			 M249.75,51.66V30.99h-5.15v12.5c0,2.82-1.83,3.77-3.46,3.77c-1.63,0-3.42-0.95-3.42-3.77v-12.5h-5.15v13.22
			c0,2.26,0.44,4.2,2.1,5.87c1.15,1.15,2.82,1.82,4.88,1.82c1.91,0,3.81-0.71,5.16-2.14v1.9H249.75z M226.46,51.66V38.29
			c0-4.36-2.38-7.54-6.9-7.54c-1.83,0-3.58,0.71-4.96,2.14v-9.48h-5.16v28.26h5.16V39.04c0-2.7,1.71-3.65,3.33-3.65
			c1.63,0,3.38,0.91,3.38,3.65v12.62H226.46z M204.63,49.09l-3.49-3.45c-1.07,1.15-1.98,1.63-3.33,1.63c-1.23,0-2.18-0.44-2.94-1.35
			c-0.79-0.99-1.15-2.42-1.15-4.6s0.36-3.58,1.15-4.57c0.75-0.91,1.71-1.35,2.94-1.35c1.35,0,2.26,0.48,3.33,1.63l3.49-3.49
			c-1.83-1.91-3.97-2.78-6.83-2.78c-4.13,0-9.25,2.18-9.25,10.56s5.12,10.59,9.25,10.59C200.66,51.9,202.8,50.99,204.63,49.09
			 M184.47,45.16c0-3.49-2.06-5.68-6.15-6.07l-3.25-0.32c-1.83-0.16-2.14-1.03-2.14-1.79c0-1.03,0.87-1.98,2.94-1.98
			c1.79,0,3.61,0.32,4.8,1.39l3.18-3.21c-1.98-1.87-4.68-2.42-7.9-2.42c-4.21,0-7.98,2.3-7.98,6.58c0,3.81,2.3,5.44,6.03,5.8
			l3.25,0.32c1.63,0.16,2.18,0.87,2.18,1.91c0,1.55-1.87,2.15-3.65,2.15c-1.59,0-3.81-0.24-5.52-1.95l-3.37,3.37
			c2.62,2.62,5.56,2.97,8.81,2.97C180.58,51.9,184.47,49.72,184.47,45.16 M163.43,51.66V47.3h-1.87c-1.23,0-1.79-0.67-1.79-1.87
			v-9.93h3.65v-3.92h-3.65v-6.11h-5.16v6.11h-2.18v3.92h2.18v10.24c0,2.94,1.79,5.91,5.99,5.91H163.43z M143.27,41.31
			c0,3.37-0.4,5.96-3.5,5.96c-3.1,0-3.5-2.58-3.5-5.96c0-3.38,0.4-5.92,3.5-5.92C142.87,35.39,143.27,37.93,143.27,41.31
			 M148.42,41.31c0-3.1-0.04-6.63-2.1-8.69c-1.15-1.15-3.01-1.86-5.04-1.86c-2.18,0-3.73,0.59-5.16,2.18v-1.94h-5v28.26h5.15v-9.4
			c1.35,1.51,2.9,2.06,5,2.06c2.03,0,3.89-0.71,5.04-1.86C148.38,47.98,148.42,44.4,148.42,41.31 M124.53,51.66V30.99h-5.15v12.5
			c0,2.82-1.83,3.77-3.46,3.77c-1.63,0-3.42-0.95-3.42-3.77v-12.5h-5.15v13.22c0,2.26,0.43,4.2,2.1,5.87
			c1.15,1.15,2.82,1.82,4.88,1.82c1.91,0,3.81-0.71,5.17-2.14v1.9H124.53z M96.07,44.04c0,1.27-0.2,2.11-0.76,2.62
			c-0.91,0.88-1.83,1-3.25,1c-2.03,0-2.98-0.96-2.98-2.38c0-1.47,1.03-2.34,2.9-2.34h4.09V44.04z M101.23,51.66V38.05
			c0-4.84-3.01-7.3-8.81-7.3c-3.46,0-5.44,0.63-7.46,2.85l3.29,3.22c1.07-1.23,1.98-1.71,3.97-1.71c2.74,0,3.85,0.99,3.85,3.26v1.04
			h-4.89c-4.8,0-7.06,2.69-7.06,5.99c0,1.83,0.59,3.49,1.7,4.64c1.23,1.23,2.93,1.82,5.28,1.82c2.38,0,3.69-0.6,5.09-1.98v1.78
			H101.23z M78.6,51.66V23.41h-5.51v11.55h-9.57V23.41h-5.51v28.26h5.51V39.84h9.57v11.83H78.6z"/>
	</g>
	<path class="st6" d="M484.52,272.67H27.48V129.62h457.04V272.67z M29.31,270.84h453.38V131.45H29.31V270.84z"/>
	<rect x="28.4" y="343.88" class="st2" width="474.25" height="159.74"/>
	<g>
		<defs>
			<rect id="SVGID_00000023262918069048011270000012486565573152695697_" y="7.47" width="512" height="497.06"/>
		</defs>
		<clipPath id="SVGID_00000183217408611754509380000013866892078154842047_">
			<use xlink:href="#SVGID_00000023262918069048011270000012486565573152695697_"  style="overflow:visible;"/>
		</clipPath>
		<path style="clip-path:url(#SVGID_00000183217408611754509380000013866892078154842047_);fill:#2B2961;" d="M503.56,504.53H27.48
			V342.96h476.08V504.53z M29.31,502.7h472.42V344.79H29.31V502.7z"/>
		<path style="clip-path:url(#SVGID_00000183217408611754509380000013866892078154842047_);fill:#2B2961;" d="M497.56,380.22
			c0-3.49-2.06-5.68-6.15-6.07l-3.25-0.32c-1.83-0.16-2.14-1.03-2.14-1.79c0-1.03,0.87-1.98,2.94-1.98c1.79,0,3.61,0.32,4.8,1.39
			l3.18-3.21c-1.98-1.87-4.68-2.42-7.9-2.42c-4.21,0-7.98,2.3-7.98,6.58c0,3.81,2.3,5.44,6.03,5.8l3.25,0.32
			c1.63,0.16,2.18,0.87,2.18,1.91c0,1.55-1.87,2.15-3.65,2.15c-1.59,0-3.81-0.24-5.52-1.95l-3.37,3.37
			c2.62,2.62,5.56,2.97,8.81,2.97C493.67,386.97,497.56,384.79,497.56,380.22 M477.12,380.22c0-3.49-2.06-5.68-6.15-6.07l-3.25-0.32
			c-1.83-0.16-2.14-1.03-2.14-1.79c0-1.03,0.87-1.98,2.94-1.98c1.79,0,3.61,0.32,4.8,1.39l3.18-3.21c-1.98-1.87-4.68-2.42-7.9-2.42
			c-4.21,0-7.98,2.3-7.98,6.58c0,3.81,2.3,5.44,6.03,5.8l3.25,0.32c1.63,0.16,2.18,0.87,2.18,1.91c0,1.55-1.87,2.15-3.65,2.15
			c-1.59,0-3.81-0.24-5.52-1.95l-3.37,3.37c2.62,2.62,5.56,2.97,8.81,2.97C473.23,386.97,477.12,384.79,477.12,380.22
			 M454.97,386.73v-20.67h-5.15v12.5c0,2.82-1.83,3.77-3.46,3.77c-1.63,0-3.42-0.95-3.42-3.77v-12.5h-5.15v13.22
			c0,2.26,0.43,4.2,2.1,5.87c1.15,1.15,2.82,1.82,4.88,1.82c1.91,0,3.81-0.71,5.17-2.14v1.9H454.97z M433.1,386.73v-4.36h-1.98
			c-1.31,0-1.83-0.64-1.83-1.87v-22.03h-5.15v22.35c0,2.93,1.78,5.91,6.03,5.91H433.1z M417.97,386.73v-13.38
			c0-4.36-2.38-7.54-6.9-7.54c-1.83,0-3.57,0.71-4.96,2.14v-9.48h-5.15v28.26h5.15V374.1c0-2.7,1.71-3.65,3.34-3.65
			c1.63,0,3.38,0.91,3.38,3.65v12.62H417.97z M396.14,384.15l-3.49-3.45c-1.07,1.15-1.98,1.63-3.33,1.63
			c-1.23,0-2.18-0.44-2.94-1.35c-0.79-0.99-1.15-2.42-1.15-4.6c0-2.18,0.36-3.58,1.15-4.57c0.75-0.91,1.71-1.35,2.94-1.35
			c1.35,0,2.26,0.48,3.33,1.63l3.49-3.49c-1.83-1.91-3.97-2.78-6.83-2.78c-4.13,0-9.24,2.18-9.24,10.56
			c0,8.38,5.11,10.59,9.24,10.59C392.17,386.97,394.32,386.05,396.14,384.15 M375.98,380.22c0-3.49-2.06-5.68-6.15-6.07l-3.25-0.32
			c-1.83-0.16-2.14-1.03-2.14-1.79c0-1.03,0.87-1.98,2.94-1.98c1.79,0,3.61,0.32,4.8,1.39l3.18-3.21c-1.98-1.87-4.68-2.42-7.9-2.42
			c-4.21,0-7.98,2.3-7.98,6.58c0,3.81,2.3,5.44,6.03,5.8l3.25,0.32c1.63,0.16,2.18,0.87,2.18,1.91c0,1.55-1.87,2.15-3.65,2.15
			c-1.59,0-3.81-0.24-5.52-1.95l-3.37,3.37c2.62,2.62,5.56,2.97,8.81,2.97C372.09,386.97,375.98,384.79,375.98,380.22
			 M349.55,376.37c0,3.37-0.4,5.96-3.5,5.96c-3.1,0-3.5-2.58-3.5-5.96c0-3.38,0.4-5.92,3.5-5.92
			C349.15,370.45,349.55,372.99,349.55,376.37 M354.7,376.37c0-3.1-0.04-6.63-2.1-8.69c-1.15-1.15-3.01-1.86-5.04-1.86
			c-2.11,0-3.65,0.55-5.01,2.06v-9.4h-5.15v28.26h5v-1.94c1.43,1.58,2.98,2.18,5.17,2.18c2.02,0,3.89-0.71,5.04-1.86
			C354.66,383.04,354.7,379.47,354.7,376.37 M324.62,377.09h-7.03l3.57-10.28L324.62,377.09z M333.51,386.73l-10.32-28.26h-4.33
			l-10.28,28.26h5.76l1.71-5h10.04l1.67,5H333.51z M290.64,374.47h-7.86c0.04-0.92,0.16-1.47,0.48-2.23
			c0.56-1.23,1.71-2.15,3.45-2.15c1.75,0,2.9,0.91,3.45,2.15C290.48,373,290.6,373.55,290.64,374.47 M295.72,377.99v-2.3
			c0-5.68-3.25-9.88-9.01-9.88c-5.36,0-9.01,3.8-9.01,10.56c0,8.38,4.68,10.59,9.56,10.59c3.73,0,5.76-1.15,7.86-3.25l-3.14-3.06
			c-1.31,1.31-2.42,1.95-4.68,1.95c-2.9,0-4.52-1.95-4.52-4.61H295.72z M272.38,386.73v-13.22c0-2.26-0.44-4.21-2.1-5.87
			c-1.15-1.15-2.82-1.82-4.88-1.82c-1.91,0-3.81,0.71-5.16,2.14v-1.9h-5.04v20.67h5.16v-12.5c0-2.82,1.83-3.77,3.46-3.77
			c1.63,0,3.41,0.95,3.41,3.77v12.5H272.38z M248.84,386.73v-13.38c0-4.36-2.38-7.54-6.9-7.54c-1.83,0-3.58,0.71-4.96,2.14v-9.48
			h-5.15v28.26h5.15V374.1c0-2.7,1.71-3.65,3.34-3.65c1.63,0,3.38,0.91,3.38,3.65v12.62H248.84z M220.95,376.37
			c0,2.14-0.12,3.97-1.19,5.04c-0.6,0.6-1.39,0.92-2.42,0.92c-1.03,0-1.79-0.32-2.38-0.92c-1.07-1.07-1.19-2.9-1.19-5.04
			c0-2.14,0.12-3.93,1.19-5c0.6-0.6,1.35-0.91,2.38-0.91c1.03,0,1.83,0.32,2.42,0.91C220.83,372.44,220.95,374.23,220.95,376.37
			 M226.1,376.37c0-3.73-0.48-6.08-2.34-8.02c-1.27-1.35-3.37-2.54-6.43-2.54c-3.06,0-5.12,1.19-6.39,2.54
			c-1.86,1.94-2.34,4.28-2.34,8.02c0,3.77,0.48,6.12,2.34,8.06c1.27,1.35,3.33,2.54,6.39,2.54c3.06,0,5.16-1.19,6.43-2.54
			C225.62,382.49,226.1,380.14,226.1,376.37 M195.74,367.76c-1.43-1.43-2.86-1.94-4.88-1.94c-2.22,0-4.21,1.03-5.2,2.22v-1.98h-5.03
			v20.67h5.15v-12.46c0-2.62,1.75-3.81,3.33-3.81c1.27,0,1.94,0.44,2.74,1.23L195.74,367.76z M169.98,374.47h-7.86
			c0.04-0.92,0.16-1.47,0.48-2.23c0.56-1.23,1.71-2.15,3.45-2.15c1.75,0,2.9,0.91,3.45,2.15C169.82,373,169.94,373.55,169.98,374.47
			 M175.06,377.99v-2.3c0-5.68-3.25-9.88-9.01-9.88c-5.36,0-9,3.8-9,10.56c0,8.38,4.68,10.59,9.56,10.59c3.73,0,5.76-1.15,7.86-3.25
			l-3.14-3.06c-1.31,1.31-2.42,1.95-4.68,1.95c-2.9,0-4.52-1.95-4.52-4.61H175.06z M146.32,376.37c0,3.37-0.44,5.96-3.54,5.96
			c-3.1,0-3.49-2.58-3.49-5.96c0-3.38,0.4-5.92,3.49-5.92C145.89,370.45,146.32,372.99,146.32,376.37 M151.48,386.73v-28.26h-5.16
			v9.4c-1.35-1.51-2.94-2.06-5.04-2.06c-2.02,0-3.89,0.71-5.04,1.86c-2.06,2.06-2.1,5.59-2.1,8.69c0,3.1,0.04,6.67,2.1,8.73
			c1.15,1.15,3.05,1.86,5.08,1.86c2.19,0,3.69-0.6,5.12-2.18v1.94H151.48z M124.14,376.37c0,2.14-0.12,3.97-1.19,5.04
			c-0.6,0.6-1.39,0.92-2.42,0.92c-1.03,0-1.79-0.32-2.38-0.92c-1.07-1.07-1.19-2.9-1.19-5.04c0-2.14,0.12-3.93,1.19-5
			c0.6-0.6,1.35-0.91,2.38-0.91c1.04,0,1.83,0.32,2.42,0.91C124.02,372.44,124.14,374.23,124.14,376.37 M129.29,376.37
			c0-3.73-0.48-6.08-2.34-8.02c-1.27-1.35-3.37-2.54-6.43-2.54c-3.06,0-5.12,1.19-6.39,2.54c-1.86,1.94-2.34,4.28-2.34,8.02
			c0,3.77,0.48,6.12,2.34,8.06c1.27,1.35,3.33,2.54,6.39,2.54c3.06,0,5.16-1.19,6.43-2.54
			C128.82,382.49,129.29,380.14,129.29,376.37 M97.18,386.73v-4.36h-1.87c-1.23,0-1.79-0.67-1.79-1.87v-9.93h3.65v-3.92h-3.65v-6.11
			h-5.16v6.11h-2.18v3.92h2.18v10.24c0,2.94,1.79,5.91,5.99,5.91H97.18z M81.38,358.31h-5.27v4.2h5.27V358.31z M81.34,366.05h-5.15
			v20.67h5.15V366.05z M69.2,386.73v-28.26h-5.43l-7.35,15.28l-7.39-15.28H43.6v28.26h5.51v-16.47l5.44,10.71h3.73l5.4-10.71v16.47
			H69.2z"/>
	</g>
	<polygon class="st3" points="41.96,305.79 56.28,305.79 49.12,298.63 	"/>
	<polygon class="st3" points="41.96,334.28 56.28,334.28 49.12,327.12 	"/>
	<polygon class="st3" points="41.96,320.03 56.28,320.03 49.12,312.87 	"/>
	<polygon class="st3" points="41.96,149.14 56.28,149.14 49.12,141.98 	"/>
	<polygon class="st3" points="41.96,281.21 56.28,281.21 49.12,274.05 	"/>
	<polygon class="st3" points="41.96,295.45 56.28,295.45 49.12,288.29 	"/>
	<polygon class="st3" points="41.96,124.55 56.28,124.55 49.12,117.39 	"/>
	<polygon class="st3" points="41.96,79.74 56.28,79.74 49.12,72.58 	"/>
	<polygon class="st3" points="41.96,108.23 56.28,108.23 49.12,101.07 	"/>
	<polygon class="st3" points="41.96,93.98 56.28,93.98 49.12,86.82 	"/>
	<g>
		<defs>
			<rect id="SVGID_00000078031477851413777770000012400070899581792934_" y="7.47" width="512" height="497.06"/>
		</defs>
		<clipPath id="SVGID_00000044153719756585825630000015700245637346535832_">
			<use xlink:href="#SVGID_00000078031477851413777770000012400070899581792934_"  style="overflow:visible;"/>
		</clipPath>
		<path style="clip-path:url(#SVGID_00000044153719756585825630000015700245637346535832_);fill:#FFFFFF;" d="M338.11,259.7v-19.56
			h-2.8l-3.82,3.29v3.11l3.82-3.35v16.51H338.11z M315.08,245.89c0,1.92-1.35,3.05-3.33,3.05h-4.4v-6.13h4.4
			C313.74,242.8,315.08,243.96,315.08,245.89 M318.65,259.7l-4.5-8.65c2.2-0.6,3.9-2.39,3.9-5.19c0-3.33-2.36-5.71-6.07-5.71h-7.58
			v19.56h2.96v-8.24h3.71l4.12,8.24H318.65z M297.08,259.7v-19.56h-2.96v8.35h-7.94v-8.35h-2.96v19.56h2.96v-8.55h7.94v8.55H297.08z
			 M272.9,253.25h-6.02l3.05-8.68L272.9,253.25z M278.23,259.7l-7.17-19.56h-2.39l-7.17,19.56h3.16l1.35-3.93h7.72l1.35,3.93H278.23
			z M257.07,253.53v-13.38h-2.96v13.16c0,2.56-1.35,3.9-3.54,3.9c-1.43,0-2.09-0.49-2.78-1.18l-1.98,1.95
			c1.35,1.35,2.75,1.89,4.75,1.89C254.16,259.87,257.07,257.59,257.07,253.53 M237.01,238.11h-2.69l-7.83,23.63h2.69L237.01,238.11z
			 M207.38,248.47c0.53-0.04,1.12-0.06,1.77-0.06c0.77,0,1.57,0.05,2.38,0.17c0.81,0.11,1.67,0.28,2.56,0.5l0.49-3.18
			c-0.51-0.18-1.07-0.34-1.69-0.47c-0.62-0.13-1.26-0.24-1.91-0.31c-0.65-0.07-1.3-0.11-1.95-0.11c-1.24,0-2.26,0.12-3.05,0.35
			c-0.79,0.24-1.42,0.62-1.88,1.16c-0.46,0.54-0.78,1.28-0.96,2.21c-0.18,0.94-0.27,2.11-0.27,3.51c0,1.43,0.09,2.62,0.29,3.57
			c0.19,0.96,0.52,1.72,0.98,2.29c0.46,0.57,1.09,0.98,1.91,1.22c0.81,0.24,1.83,0.37,3.05,0.37h6.75v-3.39h-7.27
			c-0.88,0-1.53-0.15-1.95-0.46c-0.43-0.31-0.63-0.83-0.61-1.59v-5.59C206.39,248.58,206.84,248.51,207.38,248.47 M209.15,259.71
			l-2.53-3.39h-7.85v3.39H209.15z M199.99,259.71v-3.39h-3.48v-15.85h-2.99v19.24H199.99z M177.97,258
			c-0.33-0.47-0.57-0.98-0.75-1.53c-0.17-0.55-0.3-1.15-0.37-1.8c-0.07-0.65-0.11-1.35-0.11-2.11c0-0.89,0.11-1.78,0.32-2.66
			c0.21-0.88,0.49-1.82,0.84-2.84l-2.93-0.79c-0.37,1.02-0.66,2.04-0.89,3.07c-0.22,1.03-0.34,2.1-0.34,3.22
			c0,1.22,0.1,2.36,0.29,3.42c0.19,1.06,0.57,1.92,1.14,2.6L177.97,258z M174.77,269.39c-0.33-1.24-0.56-2.28-0.69-3.11
			c-0.13-0.83-0.2-1.6-0.2-2.29c0-0.94,0.04-1.74,0.11-2.41c0.07-0.67,0.19-1.29,0.35-1.86h13.53V249.3c0-1.04-0.19-1.87-0.56-2.49
			c-0.38-0.62-0.99-1.07-1.85-1.36c-0.85-0.28-1.98-0.43-3.39-0.43c-1.3,0-2.57,0.11-3.82,0.34c-1.24,0.22-2.33,0.53-3.27,0.92
			l1.19,2.87c0.88-0.24,1.81-0.43,2.79-0.55s1.92-0.18,2.79-0.18c1.32,0,2.36,0.09,3.11,0.27v7.63h-9.95c-0.98,0-1.76,0.24-2.35,0.7
			c-0.59,0.47-1.02,1.21-1.3,2.23c-0.27,1.02-0.41,2.36-0.41,4.03c0,0.77,0.04,1.56,0.12,2.35s0.19,1.56,0.34,2.29
			s0.31,1.4,0.49,1.98L174.77,269.39z"/>
		<path style="clip-path:url(#SVGID_00000044153719756585825630000015700245637346535832_);fill:#FFFFFF;" d="M439.8,426.69
			c-0.37-0.58-0.66-1.19-0.87-1.83c-0.21-0.64-0.36-1.34-0.44-2.1c-0.08-0.77-0.12-1.65-0.12-2.66c0-1.11,0.13-2.2,0.4-3.25
			c0.26-1.06,0.62-2.24,1.07-3.53l-4.76-1.11c-0.42,1.32-0.77,2.62-1.03,3.89c-0.27,1.27-0.4,2.61-0.4,4.01
			c0,1.64,0.13,3.14,0.38,4.49c0.25,1.35,0.78,2.47,1.57,3.37L439.8,426.69z M441.55,410.67c-1.17,0.12-2.3,0.31-3.4,0.56
			c-1.1,0.25-2.12,0.57-3.07,0.97l1.87,4.6c1.24-0.35,2.51-0.6,3.79-0.75c1.29-0.16,2.51-0.24,3.67-0.24c0.77,0,1.44,0.02,2,0.06
			c0.57,0.04,1.11,0.11,1.61,0.22v8.22h-19.53v5.32h24.25v-13.1c0-1.46-0.27-2.63-0.79-3.51c-0.53-0.89-1.36-1.53-2.5-1.92
			c-1.14-0.4-2.63-0.6-4.49-0.6C443.85,410.49,442.71,410.55,441.55,410.67 M421.86,415.81c0,1.91-0.49,3.51-1.49,4.82
			c-0.99,1.31-2.49,2.28-4.51,2.92c-1.22-0.37-2.27-0.88-3.15-1.53c-0.89-0.65-1.58-1.48-2.06-2.5c-0.49-1.02-0.74-2.25-0.74-3.71
			H421.86z M404.8,437.94c0.29,0.99,0.77,1.81,1.43,2.44s1.53,1.1,2.6,1.39c1.07,0.29,2.39,0.44,3.95,0.44
			c1.88,0,3.58-0.08,5.12-0.24s2.87-0.41,4.01-0.75l-0.64-5.24c-1.4,0.32-2.66,0.55-3.77,0.69c-1.11,0.15-2.23,0.22-3.37,0.22
			c-0.93,0-1.83-0.03-2.72-0.08c-0.89-0.05-1.64-0.13-2.24-0.24v-4.49c0-0.4,0.31-0.8,0.93-1.21c0.62-0.41,1.44-0.84,2.46-1.27
			c1.02-0.44,2.11-0.87,3.27-1.29c1.19,0.42,2.43,0.75,3.73,0.97c1.3,0.23,2.62,0.34,3.97,0.34h6.55v-5.32h-4.05
			c-0.64,0-1.26-0.02-1.88-0.06c-0.62-0.04-1.24-0.1-1.85-0.18c0.82-0.71,1.55-1.51,2.2-2.4c0.65-0.89,1.16-1.9,1.53-3.03
			c0.37-1.14,0.56-2.41,0.56-3.81c0-1.06-0.35-1.91-1.03-2.56c-0.69-0.65-1.81-1.11-3.37-1.37c-1.56-0.27-3.66-0.4-6.31-0.4
			c-2.59,0-4.67,0.13-6.23,0.4c-1.56,0.27-2.69,0.72-3.39,1.37c-0.7,0.65-1.05,1.5-1.05,2.56c0,2.14,0.5,4.13,1.51,5.97
			c1,1.84,2.37,3.41,4.09,4.71c-1.11,0.48-2.06,0.97-2.86,1.49c-0.79,0.52-1.46,1.1-1.98,1.75c-0.53,0.65-0.93,1.44-1.19,2.36
			c-0.27,0.93-0.4,2.02-0.4,3.29C404.36,435.77,404.51,436.95,404.8,437.94 M387.89,402.85c-0.24-0.12-0.36-0.39-0.36-0.81v-2.62
			c0.58-0.27,1.18-0.46,1.81-0.6c0.62-0.13,1.28-0.23,1.96-0.28v-2.74c-1.38,0.05-2.58,0.27-3.61,0.64s-1.84,0.95-2.42,1.75
			c-0.58,0.79-0.87,1.91-0.87,3.33c0,0.56,0.03,1.03,0.1,1.41c0.06,0.38,0.15,0.74,0.26,1.05l-1.59,0.44v2.3l9.21-2.46v-2.34
			l-3.25,0.87C388.53,402.95,388.12,402.97,387.89,402.85 M390.11,410.97h-4.72v18.66h4.72V410.97z M373.46,437.01
			c1.04-1.3,1.95-2.67,2.72-4.11c0.77-1.44,1.37-2.9,1.81-4.36c0.44-1.47,0.65-2.88,0.65-4.23h-4.76c0,1.03-0.17,2.12-0.52,3.25
			c-0.35,1.14-0.83,2.27-1.47,3.4c-0.64,1.12-1.38,2.2-2.22,3.23s-1.77,1.96-2.78,2.78l3.1,3.57
			C371.25,439.48,372.41,438.31,373.46,437.01 M365.42,424.31v-6.67c0-0.71,0.15-1.2,0.44-1.45c0.29-0.25,0.85-0.38,1.67-0.38h6.35
			v6.75c0,0.66-0.12,1.12-0.36,1.37c-0.24,0.25-0.67,0.38-1.31,0.38H365.42z M376.14,429.63l2.5-5.32v-12.42
			c-1.38-0.5-2.74-0.86-4.09-1.07c-1.35-0.21-2.96-0.32-4.84-0.32c-1.72,0-3.18,0.16-4.37,0.48c-1.19,0.32-2.14,0.84-2.86,1.57
			c-0.71,0.73-1.24,1.69-1.57,2.89c-0.33,1.21-0.5,2.69-0.5,4.47c0,1.8,0.13,3.33,0.4,4.58c0.27,1.26,0.67,2.26,1.23,3.02
			s1.3,1.3,2.22,1.63c0.93,0.33,2.05,0.5,3.37,0.5H376.14z M332.59,426.69c-0.37-0.58-0.66-1.19-0.87-1.83
			c-0.21-0.64-0.36-1.34-0.44-2.1c-0.08-0.77-0.12-1.65-0.12-2.66c0-1.11,0.13-2.2,0.4-3.25c0.27-1.06,0.62-2.24,1.07-3.53
			l-4.76-1.11c-0.42,1.32-0.77,2.62-1.03,3.89c-0.26,1.27-0.4,2.61-0.4,4.01c0,1.64,0.13,3.14,0.38,4.49
			c0.25,1.35,0.77,2.47,1.57,3.37L332.59,426.69z M334.34,410.67c-1.16,0.12-2.3,0.31-3.39,0.56c-1.1,0.25-2.13,0.57-3.08,0.97
			l1.87,4.6c1.25-0.35,2.51-0.6,3.79-0.75c1.28-0.16,2.51-0.24,3.67-0.24c0.77,0,1.44,0.02,2.01,0.06c0.57,0.04,1.11,0.11,1.61,0.22
			v8.22h-19.53v5.32h24.25v-13.1c0-1.46-0.26-2.63-0.79-3.51c-0.53-0.89-1.36-1.53-2.5-1.92c-1.14-0.4-2.63-0.6-4.49-0.6
			C336.64,410.49,335.51,410.55,334.34,410.67 M309.57,405.83c0.42-0.33,0.79-0.71,1.11-1.15c0.32-0.44,0.48-0.81,0.48-1.13
			c0-0.37-0.16-0.77-0.48-1.19c-0.32-0.42-0.68-0.79-1.09-1.11c-0.41-0.32-0.82-0.48-1.21-0.48c-0.32,0-0.69,0.16-1.13,0.48
			c-0.44,0.32-0.82,0.69-1.13,1.11c-0.32,0.42-0.48,0.82-0.48,1.19c0,0.32,0.16,0.7,0.48,1.15c0.32,0.45,0.7,0.83,1.13,1.15
			s0.83,0.48,1.17,0.48C308.77,406.33,309.15,406.16,309.57,405.83 M302.81,431.59c-0.07-0.78-0.1-1.7-0.1-2.76
			c0-1.27,0.09-2.57,0.26-3.91c0.17-1.34,0.42-2.72,0.73-4.15l-4.45-0.75c-0.26,0.95-0.49,1.97-0.69,3.06
			c-0.2,1.08-0.35,2.2-0.44,3.33c-0.09,1.14-0.14,2.26-0.14,3.37c0,1.88,0.14,3.43,0.42,4.64c0.28,1.22,0.78,2.17,1.51,2.86
			c0.73,0.69,1.75,1.17,3.06,1.45c1.31,0.28,3,0.42,5.06,0.42c2.25,0,4.08-0.13,5.48-0.4c1.4-0.27,2.48-0.73,3.24-1.39
			s1.27-1.58,1.55-2.76c0.28-1.18,0.42-2.65,0.42-4.43v-19.21h-4.72v20.72c0,0.85-0.36,1.41-1.07,1.69
			c-0.71,0.27-1.89,0.42-3.53,0.42h-6.23C302.98,433.11,302.87,432.37,302.81,431.59 M318.7,429.63h4.17v-5.32h-4.17V429.63z
			 M284.45,429.63v-4.13c-0.69-2.67-1.33-4.92-1.92-6.73c-0.6-1.81-1.21-3.29-1.85-4.42c-0.64-1.14-1.34-2.01-2.12-2.62
			c-0.78-0.61-1.69-1.03-2.74-1.25c-1.05-0.22-2.28-0.34-3.71-0.34c-0.85,0-1.73,0.05-2.64,0.16c-0.91,0.11-1.75,0.25-2.52,0.44
			l1.31,5.2c0.56-0.16,1.18-0.28,1.87-0.36c0.69-0.08,1.35-0.12,1.98-0.12c0.9,0,1.67,0.12,2.32,0.36c0.65,0.24,1.21,0.68,1.69,1.33
			c0.48,0.65,0.92,1.55,1.33,2.7c0.41,1.15,0.85,2.64,1.33,4.46h-12.46v5.32H284.45z M256.96,437.01c1.04-1.3,1.95-2.67,2.72-4.11
			c0.77-1.44,1.37-2.9,1.81-4.36c0.44-1.47,0.65-2.88,0.65-4.23h-4.76c0,1.03-0.17,2.12-0.52,3.25c-0.34,1.14-0.83,2.27-1.47,3.4
			c-0.64,1.12-1.37,2.2-2.22,3.23c-0.85,1.03-1.77,1.96-2.78,2.78l3.1,3.57C254.76,439.48,255.91,438.31,256.96,437.01
			 M248.92,424.31v-6.67c0-0.71,0.15-1.2,0.44-1.45c0.29-0.25,0.85-0.38,1.67-0.38h6.35v6.75c0,0.66-0.12,1.12-0.36,1.37
			c-0.24,0.25-0.67,0.38-1.31,0.38H248.92z M259.64,429.63l2.5-5.32v-12.42c-1.37-0.5-2.74-0.86-4.09-1.07
			c-1.35-0.21-2.96-0.32-4.84-0.32c-1.72,0-3.18,0.16-4.37,0.48c-1.19,0.32-2.14,0.84-2.86,1.57c-0.71,0.73-1.24,1.69-1.57,2.89
			c-0.33,1.21-0.5,2.69-0.5,4.47c0,1.8,0.13,3.33,0.4,4.58c0.27,1.26,0.67,2.26,1.23,3.02s1.3,1.3,2.22,1.63
			c0.93,0.33,2.05,0.5,3.37,0.5H259.64z M228.68,405.83c0.42-0.33,0.79-0.71,1.11-1.15c0.32-0.44,0.48-0.81,0.48-1.13
			c0-0.37-0.16-0.77-0.48-1.19c-0.32-0.42-0.68-0.79-1.09-1.11c-0.41-0.32-0.81-0.48-1.21-0.48c-0.32,0-0.7,0.16-1.13,0.48
			c-0.44,0.32-0.81,0.69-1.13,1.11c-0.32,0.42-0.48,0.82-0.48,1.19c0,0.32,0.16,0.7,0.48,1.15c0.32,0.45,0.69,0.83,1.13,1.15
			c0.44,0.32,0.83,0.48,1.17,0.48C227.87,406.33,228.26,406.16,228.68,405.83 M221.91,431.59c-0.07-0.78-0.1-1.7-0.1-2.76
			c0-1.27,0.09-2.57,0.26-3.91c0.17-1.34,0.42-2.72,0.74-4.15l-4.45-0.75c-0.27,0.95-0.5,1.97-0.7,3.06
			c-0.2,1.08-0.35,2.2-0.44,3.33c-0.09,1.14-0.14,2.26-0.14,3.37c0,1.88,0.14,3.43,0.42,4.64s0.78,2.17,1.51,2.86
			s1.75,1.17,3.06,1.45c1.31,0.28,3,0.42,5.06,0.42c2.25,0,4.07-0.13,5.48-0.4c1.4-0.27,2.48-0.73,3.23-1.39s1.27-1.58,1.55-2.76
			c0.28-1.18,0.42-2.65,0.42-4.43v-19.21h-4.72v20.72c0,0.85-0.36,1.41-1.07,1.69c-0.71,0.27-1.89,0.42-3.53,0.42h-6.23
			C222.09,433.11,221.98,432.37,221.91,431.59 M188.43,398.8c0.42-0.33,0.79-0.71,1.11-1.15c0.32-0.44,0.48-0.81,0.48-1.13
			c0-0.37-0.16-0.77-0.48-1.19c-0.32-0.42-0.68-0.79-1.09-1.11c-0.41-0.32-0.81-0.48-1.21-0.48c-0.32,0-0.7,0.16-1.13,0.48
			s-0.81,0.69-1.13,1.11c-0.32,0.42-0.48,0.82-0.48,1.19c0,0.32,0.16,0.7,0.48,1.15c0.32,0.45,0.69,0.83,1.13,1.15
			s0.83,0.48,1.17,0.48C187.62,399.3,188.01,399.14,188.43,398.8 M191.77,405.83c0.42-0.33,0.79-0.71,1.11-1.15
			c0.32-0.44,0.48-0.81,0.48-1.13c0-0.37-0.16-0.77-0.48-1.19c-0.32-0.42-0.68-0.79-1.09-1.11c-0.41-0.32-0.81-0.48-1.21-0.48
			c-0.32,0-0.7,0.16-1.13,0.48c-0.44,0.32-0.81,0.69-1.13,1.11c-0.32,0.42-0.48,0.82-0.48,1.19c0,0.32,0.16,0.7,0.48,1.15
			c0.32,0.45,0.69,0.83,1.13,1.15c0.44,0.32,0.83,0.48,1.17,0.48C190.96,406.33,191.34,406.16,191.77,405.83 M185.14,405.83
			c0.42-0.33,0.79-0.71,1.11-1.15c0.32-0.44,0.48-0.81,0.48-1.13c0-0.37-0.16-0.77-0.48-1.19c-0.32-0.42-0.68-0.79-1.09-1.11
			c-0.41-0.32-0.81-0.48-1.21-0.48c-0.32,0-0.7,0.16-1.13,0.48c-0.44,0.32-0.81,0.69-1.13,1.11c-0.32,0.42-0.48,0.82-0.48,1.19
			c0,0.32,0.16,0.7,0.48,1.15c0.32,0.45,0.69,0.83,1.13,1.15c0.44,0.32,0.83,0.48,1.17,0.48
			C184.33,406.33,184.71,406.16,185.14,405.83 M176.41,414.54h-4.72v9.76h-6.15v5.32h10.88V414.54z M184.84,429.23
			c1.26-0.27,2.22-0.72,2.88-1.37c0.66-0.65,1.11-1.55,1.35-2.7c0.24-1.15,0.36-2.61,0.36-4.38v-6.23h-4.72v7.66
			c0,0.85-0.25,1.41-0.74,1.69c-0.49,0.28-1.25,0.42-2.28,0.42h-5.28v5.32h3.53C181.95,429.63,183.58,429.49,184.84,429.23
			 M198.75,428.69c1.29-0.62,2.24-1.69,2.82-3.19c0.58-1.51,0.87-3.61,0.87-6.31c0-0.87-0.04-1.79-0.12-2.76
			c-0.08-0.96-0.21-1.92-0.38-2.85c-0.17-0.94-0.38-1.8-0.61-2.56l-4.68,0.71c0.32,1.35,0.57,2.67,0.77,3.97s0.3,2.54,0.3,3.73
			c0,1.03-0.03,1.94-0.08,2.72c-0.05,0.78-0.16,1.5-0.32,2.16h-4.88c-1.01,0-1.76-0.14-2.26-0.42c-0.5-0.27-0.75-0.84-0.75-1.69
			v-7.66h-4.72v6.23c0,1.77,0.13,3.23,0.38,4.38s0.7,2.05,1.33,2.7c0.64,0.65,1.53,1.11,2.7,1.37c1.16,0.27,2.67,0.4,4.52,0.4
			C195.75,429.63,197.46,429.31,198.75,428.69 M150.45,425.3h-6.59v-3.89c0-0.48,0.14-0.82,0.42-1.03c0.28-0.21,0.7-0.32,1.25-0.32
			h4.92V425.3z M154.61,425.3c0-2.01-0.1-3.62-0.3-4.82c-0.2-1.2-0.57-2.11-1.11-2.72c-0.54-0.61-1.31-1.02-2.3-1.23
			c-0.99-0.21-2.27-0.32-3.83-0.32c-1.54,0-2.78,0.11-3.73,0.32c-0.95,0.21-1.69,0.62-2.22,1.23c-0.53,0.61-0.89,1.51-1.09,2.72
			c-0.2,1.21-0.3,2.81-0.3,4.82H154.61z M164.34,429.63v-4.13l-2.34-9.37c-0.58-2.41-1.48-4.3-2.7-5.68
			c-1.22-1.38-2.86-2.35-4.94-2.92c-2.08-0.57-4.73-0.85-7.96-0.85l-0.28,5.16c2.49,0,4.5,0.2,6.03,0.62
			c1.53,0.41,2.73,1.06,3.59,1.96c0.86,0.9,1.47,2.09,1.85,3.57l1.59,6.31H135.6v5.32H164.34z M161.8,429.67h5.32v-5.36h-5.32
			V429.67z M137.19,429.63v-5.32h-4.21v-19.69h-4.72v25.01H137.19z M122.9,429.63v-4.13c-0.69-2.67-1.33-4.92-1.93-6.73
			c-0.6-1.81-1.21-3.29-1.84-4.42c-0.64-1.14-1.34-2.01-2.13-2.62c-0.78-0.61-1.69-1.03-2.74-1.25c-1.04-0.22-2.28-0.34-3.71-0.34
			c-0.85,0-1.73,0.05-2.64,0.16c-0.91,0.11-1.75,0.25-2.52,0.44l1.31,5.2c0.56-0.16,1.18-0.28,1.87-0.36
			c0.69-0.08,1.35-0.12,1.98-0.12c0.9,0,1.67,0.12,2.32,0.36c0.65,0.24,1.21,0.68,1.69,1.33c0.48,0.65,0.92,1.55,1.33,2.7
			c0.41,1.15,0.85,2.64,1.33,4.46h-12.46v5.32H122.9z M96.31,405.83c0.42-0.33,0.79-0.71,1.11-1.15s0.48-0.81,0.48-1.13
			c0-0.37-0.16-0.77-0.48-1.19s-0.68-0.79-1.09-1.11c-0.41-0.32-0.81-0.48-1.21-0.48c-0.32,0-0.69,0.16-1.13,0.48
			c-0.43,0.32-0.81,0.69-1.13,1.11c-0.32,0.42-0.48,0.82-0.48,1.19c0,0.32,0.16,0.7,0.48,1.15c0.32,0.45,0.7,0.83,1.13,1.15
			c0.44,0.32,0.83,0.48,1.17,0.48S95.88,406.16,96.31,405.83 M89.68,405.83c0.42-0.33,0.79-0.71,1.11-1.15
			c0.32-0.44,0.48-0.81,0.48-1.13c0-0.37-0.16-0.77-0.48-1.19c-0.32-0.42-0.68-0.79-1.09-1.11c-0.41-0.32-0.82-0.48-1.21-0.48
			c-0.32,0-0.7,0.16-1.13,0.48c-0.44,0.32-0.82,0.69-1.13,1.11s-0.48,0.82-0.48,1.19c0,0.32,0.16,0.7,0.48,1.15
			c0.32,0.45,0.7,0.83,1.13,1.15c0.43,0.32,0.82,0.48,1.17,0.48S89.25,406.16,89.68,405.83 M95.83,424.31h-7.14
			c-0.71,0-1.24-0.14-1.59-0.42c-0.35-0.27-0.52-0.72-0.52-1.33v-4.52c0-0.61,0.17-1.05,0.52-1.33c0.35-0.28,0.87-0.42,1.59-0.42
			h7.14V424.31z M90.39,410.97c-1.8,0-3.28,0.13-4.45,0.38c-1.16,0.25-2.06,0.71-2.7,1.39c-0.64,0.67-1.07,1.62-1.31,2.84
			s-0.36,2.79-0.36,4.72c0,1.93,0.12,3.51,0.36,4.72s0.67,2.16,1.31,2.84c0.64,0.68,1.54,1.14,2.7,1.39
			c1.16,0.25,2.65,0.38,4.45,0.38h10.2v-18.66H90.39z"/>
		<path style="clip-path:url(#SVGID_00000044153719756585825630000015700245637346535832_);fill:#FFFFFF;" d="M340.14,441.26h-4.72
			v25.01h4.72V441.26z M311.8,476.37c-0.24-0.12-0.36-0.39-0.36-0.82v-2.62c0.58-0.27,1.18-0.46,1.81-0.6
			c0.62-0.13,1.28-0.23,1.96-0.28v-2.74c-1.38,0.05-2.58,0.27-3.61,0.64c-1.03,0.37-1.84,0.95-2.42,1.75
			c-0.58,0.79-0.87,1.91-0.87,3.33c0,0.56,0.03,1.03,0.1,1.41c0.06,0.38,0.15,0.73,0.26,1.05l-1.59,0.44v2.3l9.21-2.46v-2.34
			l-3.25,0.87C312.44,476.47,312.03,476.49,311.8,476.37 M322.79,450.82l-10.08-8.26l-3.29,3.97l7.66,6.23L322.79,450.82z
			 M313.74,458.01l6.79-2.42l2.1,1.71c0.45,0.32,0.79,0.68,1.03,1.09c0.24,0.41,0.36,0.8,0.36,1.17c0,0.56-0.23,1.03-0.69,1.41
			c-0.46,0.38-1.22,0.57-2.28,0.57h-7.3V458.01z M314.18,452.49c-1.48,0.53-2.62,1.13-3.41,1.81s-1.34,1.48-1.63,2.42
			c-0.29,0.94-0.44,2.06-0.44,3.35c0,1.64,0.29,2.96,0.87,3.95c0.58,0.99,1.59,1.71,3.02,2.16c1.43,0.45,3.41,0.67,5.95,0.67
			c3.73,0,6.41-0.56,8.04-1.67c1.63-1.11,2.44-2.9,2.44-5.36c0-1.19-0.2-2.26-0.6-3.22c-0.4-0.95-1.1-1.94-2.1-2.98v-0.28
			c0.56-0.18,0.97-0.45,1.25-0.81c0.28-0.36,0.46-0.87,0.56-1.53c0.09-0.66,0.14-1.52,0.14-2.58v-7.18h-4.72v7.94L314.18,452.49z
			 M293.54,452.59c0.64-0.04,1.36-0.06,2.18-0.06c0.95,0,1.91,0.06,2.88,0.18c0.96,0.12,2.03,0.31,3.19,0.57l0.75-5.04
			c-0.74-0.24-1.51-0.44-2.32-0.6c-0.81-0.16-1.64-0.28-2.48-0.36c-0.85-0.08-1.71-0.12-2.58-0.12c-1.59,0-2.9,0.16-3.95,0.48
			c-1.05,0.32-1.88,0.84-2.5,1.57c-0.62,0.73-1.07,1.69-1.33,2.9c-0.27,1.2-0.4,2.71-0.4,4.5c0,1.83,0.14,3.36,0.42,4.6
			c0.28,1.25,0.73,2.23,1.37,2.96c0.64,0.73,1.5,1.25,2.58,1.59c1.08,0.33,2.43,0.49,4.05,0.49h8.93v-5.32h-9.57
			c-1,0-1.75-0.18-2.24-0.53c-0.49-0.36-0.72-0.96-0.7-1.81v-5.8C292.33,452.71,292.9,452.63,293.54,452.59 M295.6,466.26
			l-3.57-5.32h-10.2v5.32H295.6z M281.03,466.26v-4.13c-0.69-2.67-1.33-4.92-1.92-6.73c-0.6-1.81-1.21-3.29-1.85-4.43
			c-0.64-1.14-1.34-2.01-2.12-2.62c-0.78-0.61-1.69-1.03-2.74-1.25c-1.05-0.23-2.28-0.34-3.71-0.34c-0.85,0-1.73,0.05-2.64,0.16
			c-0.91,0.11-1.76,0.25-2.52,0.44l1.31,5.2c0.56-0.16,1.18-0.28,1.87-0.36c0.69-0.08,1.35-0.12,1.98-0.12
			c0.9,0,1.67,0.12,2.32,0.36c0.65,0.24,1.21,0.68,1.69,1.33c0.48,0.65,0.92,1.55,1.33,2.7c0.41,1.15,0.85,2.64,1.33,4.46h-12.46
			v5.32H281.03z M279.84,466.26h3.57v-5.32h-3.57V466.26z M258.69,441.26h-4.72v25.01h4.72V441.26z M248.6,466.26v-4.13
			c-0.69-2.67-1.33-4.92-1.92-6.73c-0.6-1.81-1.21-3.29-1.85-4.43c-0.64-1.14-1.34-2.01-2.12-2.62c-0.78-0.61-1.69-1.03-2.74-1.25
			c-1.05-0.23-2.28-0.34-3.71-0.34c-0.85,0-1.73,0.05-2.64,0.16c-0.91,0.11-1.75,0.25-2.52,0.44l1.31,5.2
			c0.56-0.16,1.18-0.28,1.87-0.36c0.69-0.08,1.35-0.12,1.98-0.12c0.9,0,1.67,0.12,2.32,0.36c0.65,0.24,1.21,0.68,1.69,1.33
			c0.48,0.65,0.92,1.55,1.33,2.7c0.41,1.15,0.85,2.64,1.33,4.46h-12.46v5.32H248.6z M225.94,473.99c0.42-0.33,0.79-0.71,1.11-1.15
			c0.32-0.44,0.48-0.82,0.48-1.13c0-0.37-0.16-0.77-0.48-1.19c-0.32-0.42-0.68-0.79-1.09-1.11c-0.41-0.32-0.82-0.48-1.21-0.48
			c-0.32,0-0.69,0.16-1.13,0.48c-0.44,0.32-0.82,0.69-1.13,1.11c-0.32,0.42-0.48,0.82-0.48,1.19c0,0.32,0.16,0.7,0.48,1.15
			c0.32,0.45,0.7,0.83,1.13,1.15c0.44,0.32,0.83,0.48,1.17,0.48C225.13,474.48,225.52,474.32,225.94,473.99 M219.31,473.99
			c0.42-0.33,0.79-0.71,1.11-1.15c0.32-0.44,0.48-0.82,0.48-1.13c0-0.37-0.16-0.77-0.48-1.19c-0.32-0.42-0.68-0.79-1.09-1.11
			c-0.41-0.32-0.82-0.48-1.21-0.48c-0.32,0-0.69,0.16-1.13,0.48c-0.44,0.32-0.82,0.69-1.13,1.11c-0.32,0.42-0.48,0.82-0.48,1.19
			c0,0.32,0.16,0.7,0.48,1.15c0.32,0.45,0.7,0.83,1.13,1.15c0.44,0.32,0.83,0.48,1.17,0.48
			C218.51,474.48,218.89,474.32,219.31,473.99 M226.26,466.26v-18.66h-4.72v13.34h-6.15v5.32H226.26z M208.52,442.47
			c0.42-0.33,0.8-0.71,1.11-1.15c0.32-0.44,0.48-0.82,0.48-1.13c0-0.37-0.16-0.77-0.48-1.19c-0.31-0.42-0.68-0.79-1.09-1.11
			c-0.41-0.32-0.81-0.48-1.21-0.48c-0.32,0-0.69,0.16-1.13,0.48c-0.44,0.32-0.81,0.69-1.13,1.11c-0.32,0.42-0.48,0.82-0.48,1.19
			c0,0.32,0.16,0.7,0.48,1.15c0.32,0.45,0.7,0.83,1.13,1.15c0.44,0.32,0.83,0.48,1.17,0.48
			C207.71,442.97,208.09,442.8,208.52,442.47 M201.89,442.47c0.42-0.33,0.79-0.71,1.11-1.15c0.31-0.44,0.47-0.82,0.47-1.13
			c0-0.37-0.16-0.77-0.47-1.19c-0.32-0.42-0.68-0.79-1.09-1.11c-0.41-0.32-0.82-0.48-1.21-0.48c-0.32,0-0.7,0.16-1.13,0.48
			c-0.44,0.32-0.82,0.69-1.13,1.11c-0.31,0.42-0.47,0.82-0.47,1.19c0,0.32,0.16,0.7,0.47,1.15c0.32,0.45,0.7,0.83,1.13,1.15
			c0.44,0.32,0.83,0.48,1.17,0.48C201.08,442.97,201.47,442.8,201.89,442.47 M208.24,460.95h-7.14c-0.71,0-1.24-0.14-1.59-0.42
			c-0.34-0.28-0.51-0.72-0.51-1.33v-4.52c0-0.61,0.17-1.05,0.51-1.33c0.35-0.28,0.88-0.42,1.59-0.42h7.14V460.95z M202.8,447.61
			c-1.8,0-3.28,0.13-4.45,0.38c-1.16,0.25-2.06,0.71-2.7,1.39c-0.64,0.67-1.07,1.62-1.31,2.84c-0.24,1.22-0.36,2.79-0.36,4.72
			c0,1.93,0.12,3.51,0.36,4.72c0.24,1.22,0.67,2.16,1.31,2.84c0.63,0.67,1.53,1.14,2.7,1.39c1.17,0.25,2.65,0.38,4.45,0.38H213
			v-18.66H202.8z M212.92,466.26h4.05v-5.32h-4.05V466.26z"/>
	</g>
</g>
</svg>
