<?xml version="1.0" encoding="utf-8"?>
<!-- Generator: Adobe Illustrator 26.2.1, SVG Export Plug-In . SVG Version: 6.00 Build 0)  -->
<svg version="1.1" id="Ebene_1" xmlns="http://www.w3.org/2000/svg" xmlns:xlink="http://www.w3.org/1999/xlink" x="0px" y="0px"
	 viewBox="0 0 512 512" style="enable-background:new 0 0 512 512;" xml:space="preserve">
<style type="text/css">
	.st0{fill:#6EC3BF;}
	.st1{fill:#A0D5D2;}
	.st2{fill:#87CCC8;}
	.st3{fill:#FFFFFF;}
	.st4{clip-path:url(#SVGID_00000134219807520414263960000011093972715112350882_);fill:#2B2961;}
	.st5{fill:#897DA2;}
	.st6{fill:#2B2961;}
	.st7{clip-path:url(#SVGID_00000087378313783831612550000015240823844972954814_);fill:#FFFFFF;}
	.st8{clip-path:url(#SVGID_00000087378313783831612550000015240823844972954814_);fill:#2B2961;}
	.st9{clip-path:url(#SVGID_00000065072356766095017320000005400762957363372422_);fill:#FFFFFF;}
	.st10{clip-path:url(#SVGID_00000065072356766095017320000005400762957363372422_);fill:#6EC3BF;}
	.st11{fill:#9D9D9C;}
	.st12{fill:#D0D0D0;}
	.st13{clip-path:url(#SVGID_00000098919873746864697760000005840909093538307249_);fill:#FFFFFF;}
	.st14{clip-path:url(#SVGID_00000072264941946758465940000009706232562417371052_);fill:#2B2961;}
	.st15{clip-path:url(#SVGID_00000072264941946758465940000009706232562417371052_);fill:#FFFFFF;}
	.st16{fill:#97D1CE;}
	.st17{clip-path:url(#SVGID_00000181077058466439622710000003285934510988748223_);fill:#2B2961;}
	.st18{clip-path:url(#SVGID_00000046340707759046804770000010984506234508761734_);fill:#2B2961;}
	.st19{clip-path:url(#SVGID_00000137815056666938134640000008807659752227947158_);fill:#FFFFFF;}
	.st20{clip-path:url(#SVGID_00000137815056666938134640000008807659752227947158_);fill:#2B2961;}
	.st21{clip-path:url(#SVGID_00000131366842670529053120000000486998960062843049_);fill:#2B2961;}
	.st22{clip-path:url(#SVGID_00000013884765598285625450000015768032738873944238_);fill:#2B2961;}
	.st23{clip-path:url(#SVGID_00000013884765598285625450000015768032738873944238_);fill:#FFFFFF;}
	.st24{clip-path:url(#SVGID_00000083799496466738105170000000413849177331718293_);fill:#FFFFFF;}
	.st25{clip-path:url(#SVGID_00000029761323573683395200000017491453512022313639_);fill:#6EC3BF;}
	.st26{clip-path:url(#SVGID_00000139295427125908383740000012992258308538621619_);fill:#2B2961;}
	.st27{clip-path:url(#SVGID_00000139295427125908383740000012992258308538621619_);fill:#1D1D1B;}
	.st28{clip-path:url(#SVGID_00000139295427125908383740000012992258308538621619_);fill:#FFFFFF;}
	.st29{clip-path:url(#SVGID_00000017480175069576567670000002831702222727060159_);fill:#2B2961;}
	.st30{clip-path:url(#SVGID_00000087390187018640395330000001182134509421416863_);fill:#2B2961;}
	.st31{clip-path:url(#SVGID_00000087390187018640395330000001182134509421416863_);fill:#FFFFFF;}
	.st32{clip-path:url(#SVGID_00000170970942687727395400000006960151688355473036_);fill:#2B2961;}
	.st33{clip-path:url(#SVGID_00000181805561679876786360000017652314317065739406_);fill:#2B2961;}
	.st34{clip-path:url(#SVGID_00000181805561679876786360000017652314317065739406_);fill:#6EC3BF;}
	.st35{clip-path:url(#SVGID_00000137119957349167808320000007857368933717908642_);fill:#2B2961;}
	.st36{clip-path:url(#SVGID_00000170239752356823693590000003104483521959585412_);fill:#2B2961;}
	.st37{clip-path:url(#SVGID_00000128478214991256700290000001466917989401793688_);fill:#2B2961;}
	.st38{clip-path:url(#SVGID_00000121276656523899272460000001099776460768485778_);fill:#2B2961;}
	.st39{clip-path:url(#SVGID_00000096046786327673532370000011187794435876014228_);fill:#6EC3BF;}
	.st40{clip-path:url(#SVGID_00000124862029871247511070000013655528908670471082_);fill:#6EC3BF;}
	.st41{clip-path:url(#SVGID_00000132774783136770052550000010032365875647043255_);fill:#6EC3BF;}
	.st42{clip-path:url(#SVGID_00000179630323699421090100000011500722900332137610_);fill:#6EC3BF;}
	.st43{clip-path:url(#SVGID_00000040568809039119705780000016495654017284427918_);fill:#2B2961;}
	.st44{clip-path:url(#SVGID_00000142142867900704713830000013121305587032754318_);fill:#2B2961;}
	.st45{clip-path:url(#SVGID_00000065060619874324613260000003281533933302720647_);fill:#2B2961;}
	.st46{clip-path:url(#SVGID_00000030465589029465808970000014389441461597536139_);fill:#2B2961;}
	.st47{clip-path:url(#SVGID_00000030465589029465808970000014389441461597536139_);fill:#FFFFFF;}
	.st48{clip-path:url(#SVGID_00000141437410091301607790000005191389569706461072_);fill:#FFFFFF;}
	.st49{clip-path:url(#SVGID_00000155842015769784848010000003448140705117039273_);fill:#2B2961;}
	.st50{clip-path:url(#SVGID_00000119824297466259782030000010963958321825868209_);fill:#2B2961;}
	.st51{clip-path:url(#SVGID_00000119824297466259782030000010963958321825868209_);fill:#FFFFFF;}
	.st52{clip-path:url(#SVGID_00000134929638607680841440000008774000719375670935_);fill:#2B2961;}
	.st53{clip-path:url(#SVGID_00000134929638607680841440000008774000719375670935_);fill:#2C265F;}
	.st54{clip-path:url(#SVGID_00000177482513899875590400000005973520114195132602_);fill:#FFFFFF;}
	.st55{clip-path:url(#SVGID_00000030446328298040367220000015408627366495025048_);fill:#2B2961;}
	.st56{clip-path:url(#SVGID_00000169551723222893933850000011464808634032157851_);fill:#FFFFFF;}
	.st57{clip-path:url(#SVGID_00000017481103734538933030000014689214355337766528_);fill:#2B2961;}
	.st58{clip-path:url(#SVGID_00000177455879306923174980000011933093784651139516_);fill:#FFFFFF;}
	.st59{clip-path:url(#SVGID_00000044144960198491786920000012041474555116770721_);fill:#2B2961;}
	.st60{clip-path:url(#SVGID_00000044144960198491786920000012041474555116770721_);fill:#FFFFFF;}
	.st61{clip-path:url(#SVGID_00000008110812795202874620000018186764266844728479_);fill:#2B2961;}
	.st62{clip-path:url(#SVGID_00000053524604940613822610000001192092687926543263_);fill:#FFFFFF;}
	.st63{clip-path:url(#SVGID_00000123398900991623098610000014480100920408904839_);fill:#2B2961;}
	.st64{clip-path:url(#SVGID_00000147197016851227127720000007375596537744203162_);fill:#FFFFFF;}
	.st65{clip-path:url(#SVGID_00000147197016851227127720000007375596537744203162_);fill:#2B2961;}
	.st66{clip-path:url(#SVGID_00000173139371588453177270000008153565494452778374_);fill:#2B2961;}
	.st67{clip-path:url(#SVGID_00000173139371588453177270000008153565494452778374_);fill:#6EC3BF;}
	.st68{clip-path:url(#SVGID_00000173139371588453177270000008153565494452778374_);fill:#FFFFFF;}
	.st69{clip-path:url(#SVGID_00000152951927965550957880000004865979334996517533_);fill:#2B2961;}
	.st70{clip-path:url(#SVGID_00000164479077416261451210000017808244735147937437_);fill:#2B2961;}
	.st71{clip-path:url(#SVGID_00000140713276028131419010000007798183182488518045_);fill:#2B2961;}
	.st72{clip-path:url(#SVGID_00000144296609931596134870000008810359679446777018_);fill:#2B2961;}
	.st73{clip-path:url(#SVGID_00000064355419449520849960000012431184824710129571_);fill:#2B2961;}
	.st74{clip-path:url(#SVGID_00000106110087294306681270000001472032185826316475_);fill:#FFFFFF;}
	.st75{clip-path:url(#SVGID_00000106110087294306681270000001472032185826316475_);fill:#6EC3BF;}
	.st76{clip-path:url(#SVGID_00000056413358059777573080000013598542943971361978_);fill:#2B2961;}
	.st77{clip-path:url(#SVGID_00000071556310017177431380000006124734284465197501_);fill:#2B2961;}
	.st78{clip-path:url(#SVGID_00000071556310017177431380000006124734284465197501_);fill:#FFFFFF;}
	.st79{clip-path:url(#SVGID_00000178181339421714988290000015213418589579178175_);fill:#2B2961;}
	.st80{clip-path:url(#SVGID_00000089533444490053603260000003473852717869421759_);fill:#FFFFFF;}
	.st81{clip-path:url(#SVGID_00000084526956882593435790000007512859232806612141_);fill:#2B2961;}
	.st82{clip-path:url(#SVGID_00000149350735588139413490000012691003032078475397_);fill:#2B2961;}
	.st83{clip-path:url(#SVGID_00000106868120640803170570000016889447326410457499_);fill:#2B2961;}
	.st84{clip-path:url(#SVGID_00000151512835123595072570000017507626431800841624_);fill:#FFFFFF;}
	.st85{clip-path:url(#SVGID_00000065068086832089162890000007766041988712205234_);fill:#FFFFFF;}
	.st86{clip-path:url(#SVGID_00000112610185497885068120000012716920651691850931_);fill:#2B2961;}
	.st87{clip-path:url(#SVGID_00000126317069757352412850000002494080043330280585_);fill:#2B2961;}
	.st88{clip-path:url(#SVGID_00000126317069757352412850000002494080043330280585_);fill:#FFFFFF;}
	.st89{clip-path:url(#SVGID_00000001635222389262955470000011774515536849591963_);fill:#2B2961;}
	.st90{clip-path:url(#SVGID_00000039818902281473507450000011765420000918098823_);fill:#FFFFFF;}
	.st91{clip-path:url(#SVGID_00000145027984701987108890000000879655149562605708_);fill:#6EC3BF;}
	.st92{clip-path:url(#SVGID_00000145027984701987108890000000879655149562605708_);fill:#2B2961;}
	.st93{clip-path:url(#SVGID_00000021840474839868390720000000006825495374365631_);fill:#6EC3BF;}
	.st94{clip-path:url(#SVGID_00000028290097078560464940000013576394575225892028_);fill:#2B2961;}
	.st95{clip-path:url(#SVGID_00000119796925944734404260000013146543737190718868_);fill:#2B2961;}
	.st96{clip-path:url(#SVGID_00000091731947210165415340000002119531907292394893_);fill:#2B2961;}
	.st97{clip-path:url(#SVGID_00000113342287182529971180000012242234897197613755_);fill:#2B2961;}
	.st98{clip-path:url(#SVGID_00000152981657066507036350000001857844155686030011_);fill:#2B2961;}
	.st99{clip-path:url(#SVGID_00000152981657066507036350000001857844155686030011_);fill:#6EC3BF;}
	.st100{clip-path:url(#SVGID_00000103987694782599675540000016398388567900289182_);fill:#2B2961;}
	.st101{clip-path:url(#SVGID_00000121256132597317062170000000678997759097555077_);fill:#2B2961;}
	.st102{clip-path:url(#SVGID_00000121256132597317062170000000678997759097555077_);fill:#6EC3BF;}
	.st103{clip-path:url(#SVGID_00000150815199668487531540000004794115699018242458_);fill:#2B2961;}
	.st104{clip-path:url(#SVGID_00000155863172706293406540000006818380323058530453_);fill:#FFFFFF;}
	.st105{clip-path:url(#SVGID_00000155863172706293406540000006818380323058530453_);fill:#2B2961;}
	.st106{clip-path:url(#SVGID_00000171691774388958595180000018129320717759384482_);fill:#6EC3BF;}
	.st107{clip-path:url(#SVGID_00000049190902664590276070000014482352930276812193_);fill:#2B2961;}
	.st108{clip-path:url(#SVGID_00000113321668211574018400000015816381953382834331_);fill:#2B2961;}
	.st109{clip-path:url(#SVGID_00000113321668211574018400000015816381953382834331_);fill:#FFFFFF;}
	.st110{clip-path:url(#SVGID_00000011009070204110895510000007508280864466150026_);fill:#6EC3BF;}
	.st111{clip-path:url(#SVGID_00000057852600855832410540000009771649309050627981_);fill:#2B2961;}
	.st112{clip-path:url(#SVGID_00000117642246506761967540000007616205533587104910_);fill:#2B2961;}
	.st113{clip-path:url(#SVGID_00000117642246506761967540000007616205533587104910_);fill:#6EC3BF;}
	.st114{clip-path:url(#SVGID_00000104696897839356919230000007380040374054828429_);fill:#2B2961;}
	.st115{clip-path:url(#SVGID_00000168095494251958398850000006508393137749864108_);fill:#6EC3BF;}
	.st116{clip-path:url(#SVGID_00000168095494251958398850000006508393137749864108_);fill:#2B2961;}
	.st117{clip-path:url(#SVGID_00000116950813935132799040000000841565892505999519_);fill:#2B2961;}
	.st118{clip-path:url(#SVGID_00000113346493481210266980000015279736866923097785_);fill:#FFFFFF;}
	.st119{clip-path:url(#SVGID_00000113346493481210266980000015279736866923097785_);}
	.st120{clip-path:url(#SVGID_00000175301104211819086780000013574723603582800824_);fill:#2B2961;}
	.st121{clip-path:url(#SVGID_00000113346493481210266980000015279736866923097785_);fill:#6EC3BF;}
	.st122{clip-path:url(#SVGID_00000158742532071514958440000004634781975590262696_);fill:#2B2961;}
	.st123{clip-path:url(#SVGID_00000113346493481210266980000015279736866923097785_);fill:#2B2961;}
	.st124{clip-path:url(#SVGID_00000057865676778382265300000014314026343495541927_);fill:#2B2961;}
	.st125{clip-path:url(#SVGID_00000072281894665407459760000003776042364591374741_);fill:#2B2961;}
	.st126{clip-path:url(#SVGID_00000134207546370742493290000004649232096191997824_);}
	.st127{clip-path:url(#SVGID_00000179638692708383561050000016970375150283074989_);}
	.st128{clip-path:url(#SVGID_00000078026005831836136780000000802628267876502950_);fill:#FFFFFF;}
	.st129{clip-path:url(#SVGID_00000075870833884708772060000007110044272412779649_);fill:#2B2961;}
	.st130{clip-path:url(#SVGID_00000072239087141364773350000001845036498393000865_);fill:#2B2961;}
	.st131{clip-path:url(#SVGID_00000072239087141364773350000001845036498393000865_);fill:#6EC3BF;}
	.st132{clip-path:url(#SVGID_00000072239087141364773350000001845036498393000865_);fill:#FFFFFF;}
	.st133{clip-path:url(#SVGID_00000135656115160426698440000007944810943869767815_);fill:#2B2961;}
	.st134{clip-path:url(#SVGID_00000135656115160426698440000007944810943869767815_);fill:#6EC3BF;}
	.st135{clip-path:url(#SVGID_00000105398446701640195400000007056650282931948733_);fill:#2B2961;}
	.st136{clip-path:url(#SVGID_00000131347562143033955890000004865499688900784819_);fill:#6EC3BF;}
	.st137{clip-path:url(#SVGID_00000131347562143033955890000004865499688900784819_);fill:#FFFFFF;}
	.st138{clip-path:url(#SVGID_00000114032031035287215270000015663674537090159241_);fill:#2B2961;}
	.st139{clip-path:url(#SVGID_00000114032031035287215270000015663674537090159241_);fill:#6EC3BF;}
	.st140{clip-path:url(#SVGID_00000152236500184718993130000012486888695632653739_);fill:#2B2961;}
	.st141{clip-path:url(#SVGID_00000006680279003410557290000009256932140905917075_);fill:#2B2961;}
	.st142{clip-path:url(#SVGID_00000006680279003410557290000009256932140905917075_);fill:#FFFFFF;}
	.st143{clip-path:url(#SVGID_00000024701978714673104280000015446765234258783410_);fill:#2B2961;}
	.st144{clip-path:url(#SVGID_00000146478907317876071690000017931512296217929148_);fill:#FFFFFF;}
	.st145{clip-path:url(#SVGID_00000138553638180945596060000011383704618370168469_);fill:#2B2961;}
	.st146{clip-path:url(#SVGID_00000003101441660512866460000002804801049247398847_);fill:#2B2961;}
	.st147{clip-path:url(#SVGID_00000003101441660512866460000002804801049247398847_);fill:#FFFFFF;}
	.st148{clip-path:url(#SVGID_00000032644799820458995540000010681620385066058114_);fill:#2B2961;}
	.st149{clip-path:url(#SVGID_00000079458338709081627910000010408726758224998791_);fill:#2B2961;}
	.st150{clip-path:url(#SVGID_00000079458338709081627910000010408726758224998791_);fill:#FFFFFF;}
	.st151{clip-path:url(#SVGID_00000039113545683366644260000004308615140968421820_);fill:#2B2961;}
	.st152{clip-path:url(#SVGID_00000039113545683366644260000004308615140968421820_);fill:#6EC3BF;}
	.st153{clip-path:url(#SVGID_00000170238297237280587850000007185267817185188278_);fill:#1D1D1B;}
	.st154{clip-path:url(#SVGID_00000170238297237280587850000007185267817185188278_);fill:#2B2961;}
	.st155{clip-path:url(#SVGID_00000170238297237280587850000007185267817185188278_);fill:#FFFFFF;}
	.st156{clip-path:url(#SVGID_00000127728558944921011700000017914305888511051940_);fill:#2B2961;}
	.st157{clip-path:url(#SVGID_00000151508996445156043170000010534716203954617023_);fill:#2B2961;}
	.st158{clip-path:url(#SVGID_00000177481697922448976940000008551744096435458985_);fill:#2B2961;}
	.st159{clip-path:url(#SVGID_00000177481697922448976940000008551744096435458985_);fill:#FFFFFF;}
	.st160{clip-path:url(#SVGID_00000177481697922448976940000008551744096435458985_);fill:#6EC3BF;}
	.st161{clip-path:url(#SVGID_00000132080345858894978410000011773685784569331095_);fill:#2B2961;}
	.st162{clip-path:url(#SVGID_00000095304215530818580790000014943598061124019620_);fill:#2B2961;}
	.st163{clip-path:url(#SVGID_00000125574079222610998260000007568394983829777854_);fill:#2B2961;}
	.st164{clip-path:url(#SVGID_00000145763552620993368910000001403957389937992074_);fill:#2B2961;}
	.st165{clip-path:url(#SVGID_00000145763552620993368910000001403957389937992074_);fill:#FFFFFF;}
	.st166{clip-path:url(#SVGID_00000070103781553241327600000017820709879579983491_);fill:#2B2961;}
	.st167{clip-path:url(#SVGID_00000070103781553241327600000017820709879579983491_);fill:#FFFFFF;}
	.st168{clip-path:url(#SVGID_00000088131981768237591820000011731519734077704077_);fill:#2B2961;}
	.st169{clip-path:url(#SVGID_00000021095380364168287690000015217254200042350263_);fill:#2B2961;}
	.st170{clip-path:url(#SVGID_00000021095380364168287690000015217254200042350263_);fill:#FFFFFF;}
	.st171{clip-path:url(#SVGID_00000015352143470561378280000007245530081961755535_);fill:#2B2961;}
	.st172{clip-path:url(#SVGID_00000021102955892132909220000016705026415651143852_);fill:#FFFFFF;}
	.st173{clip-path:url(#SVGID_00000103985898568864386720000015831011264707007881_);fill:#2B2961;}
	.st174{clip-path:url(#SVGID_00000103985898568864386720000015831011264707007881_);fill:#6EC3BF;}
	.st175{clip-path:url(#SVGID_00000124862633432470664270000016161047917252925598_);fill:#2B2961;}
	.st176{clip-path:url(#SVGID_00000050638703850999952000000013706776020561105795_);fill:#2B2961;}
	.st177{clip-path:url(#SVGID_00000030467029838811327530000013342075548468015274_);fill:#FFFFFF;}
	.st178{clip-path:url(#SVGID_00000070803908703816309730000011647895024624966540_);fill:#6EC3BF;}
	.st179{clip-path:url(#SVGID_00000070803908703816309730000011647895024624966540_);fill:#2B2961;}
	.st180{clip-path:url(#SVGID_00000134208973414578547830000005841020784589162665_);fill:#6EC3BF;}
	.st181{clip-path:url(#SVGID_00000096753383340778283110000005997513279826267536_);fill:#2B2961;}
	.st182{clip-path:url(#SVGID_00000121970501561031781030000007733546039815796633_);fill:#6EC3BF;}
	.st183{clip-path:url(#SVGID_00000121970501561031781030000007733546039815796633_);fill:#2B2961;}
	.st184{clip-path:url(#SVGID_00000096780170334301574440000005905820901401974182_);fill:#2B2961;}
	.st185{clip-path:url(#SVGID_00000050633708491701429440000004292090255597353361_);fill:#2B2961;}
	.st186{clip-path:url(#SVGID_00000110432346439844720960000013897463641753782149_);fill:#2B2961;}
	.st187{clip-path:url(#SVGID_00000073719883967645112980000001720534850634981513_);fill:#2B2961;}
	.st188{clip-path:url(#SVGID_00000105418373429043514540000000633649423728130973_);fill:#2B2961;}
	.st189{clip-path:url(#SVGID_00000104703752332490068210000006233412606881594000_);fill:#6EC3BF;}
	.st190{clip-path:url(#SVGID_00000104703752332490068210000006233412606881594000_);fill:#2B2961;}
	.st191{clip-path:url(#SVGID_00000165921752616739054300000018108634380272842687_);fill:#6EC3BF;}
	.st192{clip-path:url(#SVGID_00000165921752616739054300000018108634380272842687_);fill:#2B2961;}
	.st193{clip-path:url(#SVGID_00000032624662682383876800000016700230605649734036_);fill:#2B2961;}
	.st194{clip-path:url(#SVGID_00000050665395756925859200000014358655950809832353_);fill:#2B2961;}
	.st195{clip-path:url(#SVGID_00000098902875104039528410000015716951413799210155_);fill:#2B2961;}
	.st196{clip-path:url(#SVGID_00000047772542502427129160000011828222082683664520_);fill:#FFFFFF;}
	.st197{clip-path:url(#SVGID_00000094589188886139124210000000803546329856479112_);fill:#2B2961;}
	.st198{clip-path:url(#SVGID_00000015347789873174220300000009063490236805473445_);fill:#2B2961;}
	.st199{clip-path:url(#SVGID_00000015347789873174220300000009063490236805473445_);fill:#6EC3BF;}
	.st200{clip-path:url(#SVGID_00000055688444881776351180000016702735717485322652_);fill:#2B2961;}
	.st201{clip-path:url(#SVGID_00000103233104728693469190000008522246634315819413_);fill:#2B2961;}
	.st202{clip-path:url(#SVGID_00000164493542993180296630000008699699696965395584_);fill:#6EC3BF;}
	.st203{clip-path:url(#SVGID_00000164493542993180296630000008699699696965395584_);fill:#2B2961;}
	.st204{clip-path:url(#SVGID_00000108282068229709217340000003258050418640963723_);fill:#6EC3BF;}
	.st205{clip-path:url(#SVGID_00000108282068229709217340000003258050418640963723_);fill:#2B2961;}
	.st206{clip-path:url(#SVGID_00000082338949476015100940000015773510092979355034_);fill:#2B2961;}
	.st207{clip-path:url(#SVGID_00000005243204221478864680000012459958571325636241_);fill:#2B2961;}
	.st208{clip-path:url(#SVGID_00000005243204221478864680000012459958571325636241_);fill:#6EC3BF;}
	.st209{clip-path:url(#SVGID_00000006673930942977348220000011893891797739572650_);fill:#2B2961;}
	.st210{clip-path:url(#SVGID_00000006673930942977348220000011893891797739572650_);fill:#6EC3BF;}
	.st211{clip-path:url(#SVGID_00000160903612933329829830000006133620054507259572_);fill:#2B2961;}
	.st212{clip-path:url(#SVGID_00000160903612933329829830000006133620054507259572_);fill:#6EC3BF;}
	.st213{clip-path:url(#SVGID_00000154400937868068407390000016964146024336850566_);fill:#2B2961;}
	.st214{clip-path:url(#SVGID_00000132781312496128841420000010452011662254206653_);fill:#6EC3BF;}
	.st215{clip-path:url(#SVGID_00000132781312496128841420000010452011662254206653_);fill:#2B2961;}
	.st216{clip-path:url(#SVGID_00000142889611215999182780000017070126069325959610_);fill:#6EC3BF;}
	.st217{clip-path:url(#SVGID_00000142889611215999182780000017070126069325959610_);fill:#2B2961;}
	.st218{clip-path:url(#SVGID_00000042714052167168573110000002197238210362885541_);fill:#FFFFFF;}
	.st219{clip-path:url(#SVGID_00000042714052167168573110000002197238210362885541_);fill:#2B2961;}
	.st220{clip-path:url(#SVGID_00000114781647072747444980000010506245639117841043_);fill:#FFFFFF;}
	.st221{clip-path:url(#SVGID_00000114781647072747444980000010506245639117841043_);fill:#2B2961;}
	.st222{clip-path:url(#SVGID_00000138534621076039433950000006516576983629941693_);fill:#FFFFFF;}
	.st223{clip-path:url(#SVGID_00000138534621076039433950000006516576983629941693_);fill:#2B2961;}
	.st224{clip-path:url(#SVGID_00000164495485754845590250000006693630262015187642_);fill:#6EC3BF;}
	.st225{clip-path:url(#SVGID_00000164495485754845590250000006693630262015187642_);fill:#2B2961;}
	.st226{clip-path:url(#SVGID_00000142882319680456302500000008600078117582767497_);fill:#2B2961;}
	.st227{clip-path:url(#SVGID_00000142882319680456302500000008600078117582767497_);fill:#6EC3BF;}
	.st228{clip-path:url(#SVGID_00000173874092108932906390000015659079784397376427_);fill:#2B2961;}
	.st229{clip-path:url(#SVGID_00000116940039762288782480000016075955493617047464_);fill:#6EC3BF;}
	.st230{clip-path:url(#SVGID_00000116940039762288782480000016075955493617047464_);fill:#2B2961;}
	.st231{clip-path:url(#SVGID_00000113311607922280597130000006795681051369769891_);fill:#2B2961;}
	.st232{clip-path:url(#SVGID_00000000188228818702127610000001484060887393269149_);fill:#2B2961;}
	.st233{clip-path:url(#SVGID_00000000188228818702127610000001484060887393269149_);fill:#6EC3BF;}
	.st234{clip-path:url(#SVGID_00000109008344454263931860000013879176115230476447_);fill:#2B2961;}
	.st235{clip-path:url(#SVGID_00000165232862564979737460000005153626605187823780_);fill:#FFFFFF;}
	.st236{clip-path:url(#SVGID_00000165232862564979737460000005153626605187823780_);fill:#2B2961;}
	.st237{fill:#2C265F;}
	.st238{clip-path:url(#SVGID_00000169558005462433448470000015675211191915384209_);fill:#2B2961;}
	.st239{clip-path:url(#SVGID_00000169558005462433448470000015675211191915384209_);fill:#6EC3BF;}
	.st240{fill:#61B87A;}
	.st241{clip-path:url(#SVGID_00000124882754647608475880000005152098245275795110_);fill:#2B2961;}
	.st242{clip-path:url(#SVGID_00000029031041281081996790000012195549675383525782_);fill:#2B2961;}
	.st243{clip-path:url(#SVGID_00000002352306340275859420000001247876253376919952_);fill:#2B2961;}
	.st244{clip-path:url(#SVGID_00000121281017022706626610000017270373629274209449_);fill:#2B2961;}
	.st245{clip-path:url(#SVGID_00000121281017022706626610000017270373629274209449_);fill:#61B87A;}
	.st246{clip-path:url(#SVGID_00000121281017022706626610000017270373629274209449_);fill:#FFFFFF;}
	.st247{clip-path:url(#SVGID_00000109027603766953611290000006694239884699094938_);fill:#2B2961;}
	.st248{clip-path:url(#SVGID_00000109027603766953611290000006694239884699094938_);fill:#61B87A;}
	.st249{clip-path:url(#SVGID_00000147191835222441118050000017325093893441966756_);fill:#2B2961;}
	.st250{clip-path:url(#SVGID_00000094614115745528336810000000470789610197372819_);fill:#6EC3BF;}
	.st251{clip-path:url(#SVGID_00000094614115745528336810000000470789610197372819_);fill:#2B2961;}
	.st252{clip-path:url(#SVGID_00000059995256200771216790000013703759844603556277_);fill:#2B2961;}
	.st253{clip-path:url(#SVGID_00000059995256200771216790000013703759844603556277_);fill:#6EC3BF;}
	.st254{clip-path:url(#SVGID_00000067207595918229918660000005639167420699434408_);fill:#2B2961;}
	.st255{clip-path:url(#SVGID_00000067207595918229918660000005639167420699434408_);fill:#6EC3BF;}
</style>
<g>
	<path class="st237" d="M219.91,36.31c-1.6,0-2.73-0.44-3.81-1.52l1.58-1.56c0.55,0.54,1.08,0.94,2.22,0.94
		c1.76,0,2.84-1.08,2.84-3.12V20.52h2.38v10.72C225.12,34.49,222.79,36.31,219.91,36.31z"/>
	<path class="st237" d="M235.66,36.19v-1.12c-0.77,0.84-1.85,1.25-2.97,1.25c-1.14,0-2.09-0.37-2.75-1.01
		c-0.86-0.84-1.12-1.89-1.12-3.15v-7.13h2.24v6.81c0,1.74,0.99,2.48,2.24,2.48s2.31-0.76,2.31-2.48v-6.81h2.24v11.16H235.66z"/>
	<path class="st237" d="M244.61,36.19c-2.13,0-3.06-1.43-3.06-3.08V20.52h2.24v12.46c0,0.86,0.31,1.29,1.21,1.29H246v1.92H244.61z"
		/>
	<path class="st237" d="M248.6,22.83v-2.38h2.38v2.38H248.6z M248.67,36.19V25.03h2.24v11.16H248.67z"/>
	<rect x="28.45" y="44.71" class="st0" width="62.46" height="24.65"/>
	<rect x="28.45" y="138.19" class="st0" width="62.46" height="24.34"/>
	<rect x="28.45" y="230.55" class="st0" width="62.46" height="24.87"/>
	<rect x="28.45" y="416.71" class="st0" width="62.46" height="25"/>
	<rect x="28.45" y="324.05" class="st0" width="62.46" height="24.54"/>
	<rect x="94.28" y="44.72" class="st0" width="62.46" height="24.65"/>
	<rect x="94.28" y="138.19" class="st0" width="62.46" height="24.34"/>
	<rect x="94.28" y="230.55" class="st0" width="62.46" height="24.87"/>
	<rect x="94.28" y="416.71" class="st0" width="62.46" height="25"/>
	<rect x="94.28" y="324.05" class="st0" width="62.46" height="24.55"/>
	<rect x="160.09" y="44.72" class="st0" width="62.46" height="24.65"/>
	<rect x="160.09" y="138.19" class="st0" width="62.46" height="24.34"/>
	<rect x="160.09" y="230.55" class="st0" width="62.46" height="24.87"/>
	<rect x="160.09" y="416.71" class="st0" width="62.46" height="25"/>
	<rect x="160.09" y="324.05" class="st0" width="62.46" height="24.55"/>
	<rect x="225.91" y="44.72" class="st0" width="62.46" height="24.65"/>
	<rect x="225.91" y="138.19" class="st0" width="62.46" height="24.34"/>
	<rect x="225.91" y="230.55" class="st0" width="62.46" height="24.87"/>
	<rect x="225.91" y="416.71" class="st0" width="62.46" height="25"/>
	<rect x="225.91" y="324.05" class="st0" width="62.46" height="24.55"/>
	<rect x="292.14" y="44.72" class="st0" width="62.46" height="24.65"/>
	<rect x="292.14" y="138.19" class="st0" width="62.46" height="24.34"/>
	<rect x="292.14" y="230.55" class="st0" width="62.46" height="24.87"/>
	<rect x="292.14" y="416.71" class="st0" width="62.46" height="25"/>
	<rect x="292.14" y="324.05" class="st0" width="62.46" height="24.55"/>
	<rect x="357.55" y="44.72" class="st0" width="62.46" height="24.65"/>
	<rect x="357.55" y="138.19" class="st0" width="62.46" height="24.34"/>
	<rect x="357.55" y="230.55" class="st0" width="62.46" height="24.87"/>
	<rect x="357.55" y="416.71" class="st0" width="62.46" height="25"/>
	<rect x="357.55" y="324.05" class="st0" width="62.46" height="24.55"/>
	<rect x="423.74" y="44.71" class="st0" width="62.46" height="24.65"/>
	<rect x="423.74" y="138.19" class="st0" width="62.46" height="24.34"/>
	<rect x="423.74" y="230.55" class="st0" width="62.46" height="24.87"/>
	<rect x="423.74" y="416.71" class="st0" width="62.46" height="25"/>
	<rect x="423.74" y="324.05" class="st0" width="62.46" height="24.54"/>
	<g>
		<defs>
			<rect id="SVGID_00000014608377001136566390000006677823981415117960_" x="24.66" width="462.68" height="512"/>
		</defs>
		<clipPath id="SVGID_00000106840934661127166420000005227775035049687988_">
			<use xlink:href="#SVGID_00000014608377001136566390000006677823981415117960_"  style="overflow:visible;"/>
		</clipPath>
		<path style="clip-path:url(#SVGID_00000106840934661127166420000005227775035049687988_);fill:#2B2961;" d="M485.14,512H26.86
			c-1.21,0-2.19-0.98-2.19-2.19V2.2c0-1.21,0.98-2.19,2.19-2.19h458.28c1.21,0,2.19,0.98,2.19,2.19V509.8
			C487.34,511.02,486.35,512,485.14,512z M29.05,507.61h453.89V4.39H29.05V507.61z"/>
		
			<rect x="25.1" y="43.63" style="clip-path:url(#SVGID_00000106840934661127166420000005227775035049687988_);fill:#2B2961;" width="461.8" height="4.39"/>
		
			<rect x="25.1" y="68.96" style="clip-path:url(#SVGID_00000106840934661127166420000005227775035049687988_);fill:#2B2961;" width="461.8" height="2.93"/>
		
			<rect x="25.1" y="161.46" style="clip-path:url(#SVGID_00000106840934661127166420000005227775035049687988_);fill:#2B2961;" width="461.8" height="2.93"/>
		
			<rect x="25.1" y="253.57" style="clip-path:url(#SVGID_00000106840934661127166420000005227775035049687988_);fill:#2B2961;" width="461.8" height="2.93"/>
		
			<rect x="25.1" y="346.33" style="clip-path:url(#SVGID_00000106840934661127166420000005227775035049687988_);fill:#2B2961;" width="461.8" height="2.93"/>
		
			<rect x="25.1" y="439.09" style="clip-path:url(#SVGID_00000106840934661127166420000005227775035049687988_);fill:#2B2961;" width="461.8" height="2.93"/>
		
			<rect x="25.1" y="136.55" style="clip-path:url(#SVGID_00000106840934661127166420000005227775035049687988_);fill:#2B2961;" width="461.8" height="4.39"/>
		
			<rect x="25.1" y="228.85" style="clip-path:url(#SVGID_00000106840934661127166420000005227775035049687988_);fill:#2B2961;" width="461.8" height="4.39"/>
		
			<rect x="25.1" y="322.4" style="clip-path:url(#SVGID_00000106840934661127166420000005227775035049687988_);fill:#2B2961;" width="461.8" height="4.39"/>
		
			<rect x="25.1" y="414.03" style="clip-path:url(#SVGID_00000106840934661127166420000005227775035049687988_);fill:#2B2961;" width="461.8" height="4.39"/>
		
			<rect x="88.94" y="44.65" style="clip-path:url(#SVGID_00000106840934661127166420000005227775035049687988_);fill:#2B2961;" width="4.39" height="466.24"/>
		
			<rect x="154.34" y="44.65" style="clip-path:url(#SVGID_00000106840934661127166420000005227775035049687988_);fill:#2B2961;" width="4.39" height="466.24"/>
		
			<rect x="219.7" y="44.65" style="clip-path:url(#SVGID_00000106840934661127166420000005227775035049687988_);fill:#2B2961;" width="4.39" height="466.24"/>
		
			<rect x="285.06" y="44.65" style="clip-path:url(#SVGID_00000106840934661127166420000005227775035049687988_);fill:#2B2961;" width="4.39" height="466.24"/>
		
			<rect x="351.15" y="44.65" style="clip-path:url(#SVGID_00000106840934661127166420000005227775035049687988_);fill:#2B2961;" width="4.39" height="466.24"/>
		
			<rect x="416.51" y="44.65" style="clip-path:url(#SVGID_00000106840934661127166420000005227775035049687988_);fill:#2B2961;" width="4.39" height="466.24"/>
		<path style="clip-path:url(#SVGID_00000106840934661127166420000005227775035049687988_);fill:#6EC3BF;" d="M319.7,32.73
			c0.26-0.16,0.48-0.34,0.69-0.56c0.2-0.21,0.29-0.4,0.29-0.56c0-0.18-0.1-0.37-0.29-0.58c-0.2-0.21-0.42-0.4-0.68-0.55
			c-0.25-0.15-0.48-0.23-0.7-0.23c-0.22,0-0.45,0.08-0.72,0.23c-0.26,0.15-0.48,0.34-0.67,0.55s-0.29,0.4-0.29,0.58
			c0,0.16,0.1,0.35,0.29,0.57c0.19,0.22,0.42,0.41,0.69,0.56c0.27,0.15,0.51,0.23,0.7,0.23C319.21,32.97,319.43,32.89,319.7,32.73
			 M315.52,32.73c0.26-0.16,0.49-0.34,0.69-0.56c0.2-0.21,0.29-0.4,0.29-0.56c0-0.18-0.1-0.37-0.29-0.58
			c-0.2-0.21-0.42-0.4-0.67-0.55c-0.26-0.15-0.49-0.23-0.7-0.23c-0.22,0-0.45,0.08-0.72,0.23c-0.26,0.15-0.48,0.34-0.67,0.55
			c-0.19,0.21-0.28,0.4-0.28,0.58c0,0.16,0.09,0.35,0.28,0.57c0.19,0.22,0.42,0.41,0.69,0.56c0.27,0.15,0.51,0.23,0.7,0.23
			C315.03,32.97,315.25,32.89,315.52,32.73 M319.92,28.86V18.54h-2.64v7.88h-4.26v2.44H319.92z M307.27,33.01
			c0.69-0.67,1.3-1.38,1.83-2.14c0.53-0.75,0.94-1.52,1.24-2.28c0.29-0.76,0.44-1.49,0.44-2.17h-2.66c0,0.53-0.12,1.09-0.38,1.69
			c-0.25,0.6-0.59,1.21-1.03,1.82c-0.45,0.61-0.96,1.19-1.54,1.74c-0.59,0.56-1.21,1.05-1.87,1.49l1.7,1.65
			C305.82,34.29,306.57,33.69,307.27,33.01 M301.78,26.43v-4.57c0-0.45,0.1-0.75,0.29-0.9c0.19-0.15,0.53-0.22,1.04-0.22h5.01v4.66
			c0,0.4-0.09,0.67-0.26,0.81c-0.17,0.15-0.48,0.22-0.93,0.22H301.78z M309.43,28.86l1.35-2.44v-7.4c-0.93-0.26-1.84-0.45-2.72-0.56
			c-0.88-0.11-1.92-0.17-3.13-0.17c-1.13,0-2.08,0.08-2.85,0.24c-0.78,0.16-1.38,0.44-1.83,0.83c-0.45,0.4-0.78,0.93-0.97,1.6
			c-0.2,0.67-0.3,1.53-0.3,2.57c0,1.01,0.08,1.87,0.23,2.56c0.15,0.7,0.4,1.24,0.72,1.63c0.34,0.4,0.78,0.68,1.33,0.86
			c0.56,0.18,1.25,0.26,2.08,0.26H309.43z M309.7,28.86h4.39v-2.44h-4.39V28.86z M294.4,15.03h-2.64v11.4h-4.26v2.44h6.9V15.03z
			 M286.89,33.1c0.26-0.16,0.49-0.35,0.69-0.56c0.2-0.21,0.3-0.4,0.3-0.56c0-0.18-0.1-0.37-0.3-0.59c-0.2-0.21-0.42-0.4-0.67-0.55
			c-0.25-0.15-0.48-0.23-0.7-0.23c-0.21,0-0.45,0.07-0.71,0.23c-0.26,0.15-0.49,0.34-0.67,0.55c-0.19,0.21-0.29,0.41-0.29,0.59
			c0,0.16,0.1,0.35,0.29,0.57c0.18,0.22,0.42,0.4,0.69,0.56c0.26,0.15,0.5,0.23,0.7,0.23S286.63,33.26,286.89,33.1 M282.71,33.1
			c0.26-0.16,0.49-0.35,0.69-0.56c0.2-0.21,0.3-0.4,0.3-0.56c0-0.18-0.1-0.37-0.3-0.59s-0.42-0.4-0.67-0.55
			c-0.25-0.15-0.48-0.23-0.7-0.23c-0.21,0-0.45,0.07-0.71,0.23c-0.26,0.15-0.48,0.34-0.67,0.55c-0.19,0.21-0.29,0.41-0.29,0.59
			c0,0.16,0.1,0.35,0.29,0.57c0.19,0.22,0.42,0.4,0.69,0.56c0.27,0.15,0.5,0.23,0.7,0.23S282.45,33.26,282.71,33.1 M285.53,18.54
			h-2.64v7.88h-4.26v2.44h9.95v-2.44h-3.05V18.54z M272.87,33.01c0.7-0.67,1.3-1.38,1.84-2.14c0.53-0.75,0.94-1.52,1.24-2.28
			c0.29-0.76,0.45-1.49,0.45-2.17h-2.67c0,0.53-0.12,1.09-0.37,1.69c-0.26,0.6-0.6,1.21-1.04,1.82c-0.44,0.61-0.95,1.19-1.54,1.74
			c-0.59,0.56-1.21,1.05-1.87,1.49l1.7,1.65C271.42,34.29,272.18,33.69,272.87,33.01 M267.39,26.43v-4.57c0-0.45,0.1-0.75,0.28-0.9
			c0.19-0.15,0.53-0.22,1.04-0.22h5.01v4.66c0,0.4-0.09,0.67-0.26,0.81c-0.17,0.15-0.48,0.22-0.93,0.22H267.39z M275.04,28.86
			l1.35-2.44v-7.4c-0.94-0.26-1.84-0.45-2.72-0.56c-0.89-0.11-1.93-0.17-3.13-0.17c-1.13,0-2.09,0.08-2.86,0.24
			c-0.77,0.16-1.38,0.44-1.83,0.83c-0.45,0.4-0.78,0.93-0.97,1.6c-0.2,0.67-0.29,1.53-0.29,2.57c0,1.01,0.07,1.87,0.23,2.56
			s0.4,1.24,0.73,1.63c0.33,0.4,0.78,0.68,1.33,0.86c0.56,0.18,1.24,0.26,2.07,0.26H275.04z M275.31,28.86h4.39v-2.44h-4.39V28.86z"
			/>
	</g>
</g>
</svg>
