<?xml version="1.0" encoding="utf-8"?>
<!-- Generator: Adobe Illustrator 26.2.1, SVG Export Plug-In . SVG Version: 6.00 Build 0)  -->
<svg version="1.1" id="Ebene_1" xmlns="http://www.w3.org/2000/svg" xmlns:xlink="http://www.w3.org/1999/xlink" x="0px" y="0px"
	 viewBox="0 0 326.66 512" style="enable-background:new 0 0 326.66 512;" xml:space="preserve">
<style type="text/css">
	.st0{fill:#6EC3BF;}
	.st1{fill:#A0D5D2;}
	.st2{fill:#87CCC8;}
	.st3{fill:#FFFFFF;}
	.st4{clip-path:url(#SVGID_00000015314966018541240420000013719783573165864620_);fill:#2B2961;}
	.st5{fill:#897DA2;}
	.st6{fill:#2B2961;}
	.st7{clip-path:url(#SVGID_00000162323259339007001330000012420069379388153489_);fill:#FFFFFF;}
	.st8{clip-path:url(#SVGID_00000162323259339007001330000012420069379388153489_);fill:#2B2961;}
	.st9{clip-path:url(#SVGID_00000046302853227464808670000005075271184014611354_);fill:#FFFFFF;}
	.st10{clip-path:url(#SVGID_00000046302853227464808670000005075271184014611354_);fill:#6EC3BF;}
	.st11{fill:#9D9D9C;}
	.st12{fill:#D0D0D0;}
	.st13{clip-path:url(#SVGID_00000075161216318122950950000009198341673978947212_);fill:#FFFFFF;}
	.st14{clip-path:url(#SVGID_00000165933560693401799930000012110927014024638866_);fill:#2B2961;}
	.st15{clip-path:url(#SVGID_00000165933560693401799930000012110927014024638866_);fill:#FFFFFF;}
	.st16{fill:#97D1CE;}
	.st17{clip-path:url(#SVGID_00000174560318695988167460000007532096494681873794_);fill:#2B2961;}
	.st18{clip-path:url(#SVGID_00000163787299070832670620000002244797088495434882_);fill:#2B2961;}
	.st19{clip-path:url(#SVGID_00000178203448172036349260000014153857116630891929_);fill:#FFFFFF;}
	.st20{clip-path:url(#SVGID_00000178203448172036349260000014153857116630891929_);fill:#2B2961;}
	.st21{clip-path:url(#SVGID_00000018212916471104658810000012912679263274078127_);fill:#2B2961;}
	.st22{clip-path:url(#SVGID_00000031164979226690848980000014551525959644812680_);fill:#2B2961;}
	.st23{clip-path:url(#SVGID_00000031164979226690848980000014551525959644812680_);fill:#FFFFFF;}
	.st24{clip-path:url(#SVGID_00000044179245569785846350000001252999608792908724_);fill:#FFFFFF;}
	.st25{clip-path:url(#SVGID_00000034794587958557969730000009331694460338285237_);fill:#6EC3BF;}
	.st26{clip-path:url(#SVGID_00000057120277787137569570000006125480839964330424_);fill:#2B2961;}
	.st27{clip-path:url(#SVGID_00000057120277787137569570000006125480839964330424_);fill:#1D1D1B;}
	.st28{clip-path:url(#SVGID_00000057120277787137569570000006125480839964330424_);fill:#FFFFFF;}
	.st29{clip-path:url(#SVGID_00000011752254154174294870000005995579428310745272_);fill:#2B2961;}
	.st30{clip-path:url(#SVGID_00000042724588442105318980000000510466333791041691_);fill:#2B2961;}
	.st31{clip-path:url(#SVGID_00000042724588442105318980000000510466333791041691_);fill:#FFFFFF;}
	.st32{clip-path:url(#SVGID_00000165214279988321385540000005973901869702766515_);fill:#2B2961;}
	.st33{clip-path:url(#SVGID_00000182528902914675744250000008389138114640890539_);fill:#2B2961;}
	.st34{clip-path:url(#SVGID_00000182528902914675744250000008389138114640890539_);fill:#6EC3BF;}
	.st35{clip-path:url(#SVGID_00000042731791692666991290000014251476416315041723_);fill:#2B2961;}
	.st36{clip-path:url(#SVGID_00000178891364396245920020000004495752441030682261_);fill:#2B2961;}
	.st37{clip-path:url(#SVGID_00000021094043727289884570000012041242711407416243_);fill:#2B2961;}
	.st38{clip-path:url(#SVGID_00000000944375153676349330000005298076776800770466_);fill:#2B2961;}
	.st39{clip-path:url(#SVGID_00000100346185575304608640000010971457820491816349_);fill:#6EC3BF;}
	.st40{clip-path:url(#SVGID_00000042719815709078134600000003022471272808816278_);fill:#6EC3BF;}
	.st41{clip-path:url(#SVGID_00000010989210875835951290000009206530146898472322_);fill:#6EC3BF;}
	.st42{clip-path:url(#SVGID_00000065037667959776469570000002725124165346749872_);fill:#6EC3BF;}
	.st43{clip-path:url(#SVGID_00000043448610828481386160000012018156831491604360_);fill:#2B2961;}
	.st44{clip-path:url(#SVGID_00000083047159332633190820000002988018372321906828_);fill:#2B2961;}
	.st45{clip-path:url(#SVGID_00000165212583910682561490000001407352615750374051_);fill:#2B2961;}
	.st46{clip-path:url(#SVGID_00000135663103081659557940000005597346169903049390_);fill:#2B2961;}
	.st47{clip-path:url(#SVGID_00000135663103081659557940000005597346169903049390_);fill:#FFFFFF;}
	.st48{clip-path:url(#SVGID_00000058549857078291661010000010317491137534353845_);fill:#FFFFFF;}
	.st49{clip-path:url(#SVGID_00000062912639662875332810000009764030951221863615_);fill:#2B2961;}
	.st50{clip-path:url(#SVGID_00000080164154256671454630000007184327530468015012_);fill:#2B2961;}
	.st51{clip-path:url(#SVGID_00000080164154256671454630000007184327530468015012_);fill:#FFFFFF;}
	.st52{clip-path:url(#SVGID_00000101104043155317536280000015390261064250234271_);fill:#2B2961;}
	.st53{clip-path:url(#SVGID_00000101104043155317536280000015390261064250234271_);fill:#2C265F;}
	.st54{clip-path:url(#SVGID_00000145747510029859670710000015055127558301093054_);fill:#FFFFFF;}
	.st55{clip-path:url(#SVGID_00000071535496078020040450000003752939591561827214_);fill:#2B2961;}
	.st56{clip-path:url(#SVGID_00000119827915344071947010000006220500174570782601_);fill:#FFFFFF;}
	.st57{clip-path:url(#SVGID_00000148619262033262782860000010451571554973534101_);fill:#2B2961;}
	.st58{clip-path:url(#SVGID_00000103955088740460894570000017761415093179221653_);fill:#FFFFFF;}
	.st59{clip-path:url(#SVGID_00000083796872454170115030000003043920509998237362_);fill:#2B2961;}
	.st60{clip-path:url(#SVGID_00000083796872454170115030000003043920509998237362_);fill:#FFFFFF;}
	.st61{clip-path:url(#SVGID_00000148620039235441664360000017217628871426006927_);fill:#2B2961;}
	.st62{clip-path:url(#SVGID_00000013160619236900646320000008007933523291072181_);fill:#FFFFFF;}
	.st63{clip-path:url(#SVGID_00000002383681079498768730000011289798770456695726_);fill:#2B2961;}
	.st64{clip-path:url(#SVGID_00000111160054811746119330000006181144294672650134_);fill:#FFFFFF;}
	.st65{clip-path:url(#SVGID_00000111160054811746119330000006181144294672650134_);fill:#2B2961;}
	.st66{clip-path:url(#SVGID_00000113355386224494986540000013178643684707318447_);fill:#2B2961;}
	.st67{clip-path:url(#SVGID_00000113355386224494986540000013178643684707318447_);fill:#6EC3BF;}
	.st68{clip-path:url(#SVGID_00000113355386224494986540000013178643684707318447_);fill:#FFFFFF;}
	.st69{clip-path:url(#SVGID_00000168108588778022455440000013255172699259883688_);fill:#2B2961;}
	.st70{clip-path:url(#SVGID_00000083078404722840911440000003677913737045003703_);fill:#2B2961;}
	.st71{clip-path:url(#SVGID_00000121981020735885650350000004561774588800579216_);fill:#2B2961;}
	.st72{clip-path:url(#SVGID_00000100382155297151538840000011362856725010902164_);fill:#2B2961;}
	.st73{clip-path:url(#SVGID_00000111163761282977247370000007215378607371062170_);fill:#2B2961;}
	.st74{clip-path:url(#SVGID_00000109737326442514309250000002706532253232940726_);fill:#FFFFFF;}
	.st75{clip-path:url(#SVGID_00000109737326442514309250000002706532253232940726_);fill:#6EC3BF;}
	.st76{clip-path:url(#SVGID_00000122705834773592334390000007814138687452831366_);fill:#2B2961;}
	.st77{clip-path:url(#SVGID_00000045607795573272340160000001297040602293631412_);fill:#2B2961;}
	.st78{clip-path:url(#SVGID_00000045607795573272340160000001297040602293631412_);fill:#FFFFFF;}
	.st79{clip-path:url(#SVGID_00000168105085246361030760000003004378112066861987_);fill:#2B2961;}
	.st80{clip-path:url(#SVGID_00000106108948552516510550000000929001675760877713_);fill:#FFFFFF;}
	.st81{clip-path:url(#SVGID_00000084500596756651973920000007824023564152910981_);fill:#2B2961;}
	.st82{clip-path:url(#SVGID_00000168110976097045042630000003164830253649870467_);fill:#2B2961;}
	.st83{clip-path:url(#SVGID_00000076585526257930711350000003559588732474622627_);fill:#2B2961;}
	.st84{clip-path:url(#SVGID_00000006693803949575091130000001927595153936255670_);fill:#FFFFFF;}
	.st85{clip-path:url(#SVGID_00000104692631576608784250000014212463121049485747_);fill:#FFFFFF;}
	.st86{clip-path:url(#SVGID_00000102521297983598364510000005814871312718934941_);fill:#2B2961;}
	.st87{clip-path:url(#SVGID_00000178895737329801347110000015443613787027383979_);fill:#2B2961;}
	.st88{clip-path:url(#SVGID_00000178895737329801347110000015443613787027383979_);fill:#FFFFFF;}
	.st89{clip-path:url(#SVGID_00000082335782508203579050000003955068494802510984_);fill:#2B2961;}
	.st90{clip-path:url(#SVGID_00000124842762260777557390000009390196756015221120_);fill:#FFFFFF;}
	.st91{clip-path:url(#SVGID_00000139269220744832614230000004233547436398987944_);fill:#6EC3BF;}
	.st92{clip-path:url(#SVGID_00000139269220744832614230000004233547436398987944_);fill:#2B2961;}
	.st93{clip-path:url(#SVGID_00000155858362291006826720000005640517458013771171_);fill:#6EC3BF;}
	.st94{clip-path:url(#SVGID_00000171681345171295121620000017422568919483761563_);fill:#2B2961;}
	.st95{clip-path:url(#SVGID_00000129901253336627220660000014652617858232790943_);fill:#2B2961;}
	.st96{clip-path:url(#SVGID_00000010296263367136655940000011187049272891135674_);fill:#2B2961;}
	.st97{clip-path:url(#SVGID_00000029725077510152474510000017533957955723057049_);fill:#2B2961;}
	.st98{clip-path:url(#SVGID_00000008143214947491277910000007266941274674597001_);fill:#2B2961;}
	.st99{clip-path:url(#SVGID_00000008143214947491277910000007266941274674597001_);fill:#6EC3BF;}
	.st100{clip-path:url(#SVGID_00000003094127630725939350000017741150717708766355_);fill:#2B2961;}
	.st101{clip-path:url(#SVGID_00000160887928639206068260000014133094023064628908_);fill:#2B2961;}
	.st102{clip-path:url(#SVGID_00000160887928639206068260000014133094023064628908_);fill:#6EC3BF;}
	.st103{clip-path:url(#SVGID_00000013887296769864015680000004805219792433463955_);fill:#2B2961;}
	.st104{clip-path:url(#SVGID_00000010989219803346532330000004266404534100753817_);fill:#FFFFFF;}
	.st105{clip-path:url(#SVGID_00000010989219803346532330000004266404534100753817_);fill:#2B2961;}
	.st106{clip-path:url(#SVGID_00000145779190940402865750000005785838630925948040_);fill:#6EC3BF;}
	.st107{clip-path:url(#SVGID_00000046317720374768992850000000015834976506043043_);fill:#2B2961;}
	.st108{clip-path:url(#SVGID_00000121960270025912819240000017978334642616825747_);fill:#2B2961;}
	.st109{clip-path:url(#SVGID_00000121960270025912819240000017978334642616825747_);fill:#FFFFFF;}
	.st110{clip-path:url(#SVGID_00000052814621659244158250000011120075031452163768_);fill:#6EC3BF;}
	.st111{clip-path:url(#SVGID_00000135669876118318001430000011519938297607989403_);fill:#2B2961;}
	.st112{clip-path:url(#SVGID_00000056409393322831775860000014139178204825238719_);fill:#2B2961;}
	.st113{clip-path:url(#SVGID_00000056409393322831775860000014139178204825238719_);fill:#6EC3BF;}
	.st114{clip-path:url(#SVGID_00000039814438962766183800000010444066946383369118_);fill:#2B2961;}
	.st115{clip-path:url(#SVGID_00000002361074317575735380000015605328264980106413_);fill:#6EC3BF;}
	.st116{clip-path:url(#SVGID_00000002361074317575735380000015605328264980106413_);fill:#2B2961;}
	.st117{clip-path:url(#SVGID_00000062149988992122914990000010292045925582745479_);fill:#2B2961;}
	.st118{clip-path:url(#SVGID_00000150069076923514539710000007330065983081113785_);fill:#FFFFFF;}
	.st119{clip-path:url(#SVGID_00000150069076923514539710000007330065983081113785_);}
	.st120{clip-path:url(#SVGID_00000088100864822840249180000008924261226424238490_);fill:#2B2961;}
	.st121{clip-path:url(#SVGID_00000150069076923514539710000007330065983081113785_);fill:#6EC3BF;}
	.st122{clip-path:url(#SVGID_00000142149129321339487400000015796715446394714807_);fill:#2B2961;}
	.st123{clip-path:url(#SVGID_00000150069076923514539710000007330065983081113785_);fill:#2B2961;}
	.st124{clip-path:url(#SVGID_00000016762301672897964030000000227038684614996904_);fill:#2B2961;}
	.st125{clip-path:url(#SVGID_00000075158709454287612080000002139133412549356455_);fill:#2B2961;}
	.st126{clip-path:url(#SVGID_00000044147345121827767170000012048620177926860180_);}
	.st127{clip-path:url(#SVGID_00000077315120452276675570000008811705425094962345_);}
	.st128{clip-path:url(#SVGID_00000136403026232957348900000014560851096721020308_);fill:#FFFFFF;}
	.st129{clip-path:url(#SVGID_00000014620291986555956280000003259599074796804743_);fill:#2B2961;}
	.st130{clip-path:url(#SVGID_00000044874358900441776880000007042325388692263809_);fill:#2B2961;}
	.st131{clip-path:url(#SVGID_00000044874358900441776880000007042325388692263809_);fill:#6EC3BF;}
	.st132{clip-path:url(#SVGID_00000044874358900441776880000007042325388692263809_);fill:#FFFFFF;}
	.st133{clip-path:url(#SVGID_00000014606181483350511330000008626652901121699495_);fill:#2B2961;}
	.st134{clip-path:url(#SVGID_00000014606181483350511330000008626652901121699495_);fill:#6EC3BF;}
	.st135{clip-path:url(#SVGID_00000173127436646497973670000009707759754081427642_);fill:#2B2961;}
	.st136{clip-path:url(#SVGID_00000134244768448937298180000010670709392108279445_);fill:#6EC3BF;}
	.st137{clip-path:url(#SVGID_00000134244768448937298180000010670709392108279445_);fill:#FFFFFF;}
	.st138{clip-path:url(#SVGID_00000081625837489053284740000016699168266941576596_);fill:#2B2961;}
	.st139{clip-path:url(#SVGID_00000081625837489053284740000016699168266941576596_);fill:#6EC3BF;}
	.st140{clip-path:url(#SVGID_00000075161816050062517310000016286912526132814744_);fill:#2B2961;}
	.st141{clip-path:url(#SVGID_00000080894409699510138760000004935389680905880707_);fill:#2B2961;}
	.st142{clip-path:url(#SVGID_00000080894409699510138760000004935389680905880707_);fill:#FFFFFF;}
	.st143{clip-path:url(#SVGID_00000161614677679473080140000010651981901638247058_);fill:#2B2961;}
	.st144{clip-path:url(#SVGID_00000136397126848891154330000013982653814088775847_);fill:#FFFFFF;}
	.st145{clip-path:url(#SVGID_00000103951127861997798100000001224769419158748558_);fill:#2B2961;}
	.st146{clip-path:url(#SVGID_00000073684766123851988190000013953874447230478257_);fill:#2B2961;}
	.st147{clip-path:url(#SVGID_00000073684766123851988190000013953874447230478257_);fill:#FFFFFF;}
	.st148{clip-path:url(#SVGID_00000037682546353431708610000005421744936105332134_);fill:#2B2961;}
	.st149{clip-path:url(#SVGID_00000023998746810087420350000006533982730033366197_);fill:#2B2961;}
	.st150{clip-path:url(#SVGID_00000023998746810087420350000006533982730033366197_);fill:#FFFFFF;}
	.st151{clip-path:url(#SVGID_00000145777805489574261510000013902092484023007907_);fill:#2B2961;}
	.st152{clip-path:url(#SVGID_00000145777805489574261510000013902092484023007907_);fill:#6EC3BF;}
	.st153{clip-path:url(#SVGID_00000115509568718879863140000017464000642405265078_);fill:#1D1D1B;}
	.st154{clip-path:url(#SVGID_00000115509568718879863140000017464000642405265078_);fill:#2B2961;}
	.st155{clip-path:url(#SVGID_00000115509568718879863140000017464000642405265078_);fill:#FFFFFF;}
	.st156{clip-path:url(#SVGID_00000165953129790458781880000012571339185553954188_);fill:#2B2961;}
	.st157{clip-path:url(#SVGID_00000011017175378765456090000018057473153576454577_);fill:#2B2961;}
	.st158{clip-path:url(#SVGID_00000073722585922464815710000014498589930521500839_);fill:#2B2961;}
	.st159{clip-path:url(#SVGID_00000073722585922464815710000014498589930521500839_);fill:#FFFFFF;}
	.st160{clip-path:url(#SVGID_00000073722585922464815710000014498589930521500839_);fill:#6EC3BF;}
	.st161{clip-path:url(#SVGID_00000031204263920596483900000013168705270763476657_);fill:#2B2961;}
	.st162{clip-path:url(#SVGID_00000054974737884585612720000012525238062979493282_);fill:#2B2961;}
	.st163{clip-path:url(#SVGID_00000122720099673632761350000017522750940096264867_);fill:#2B2961;}
	.st164{clip-path:url(#SVGID_00000147929002154125558230000016388586970293071012_);fill:#2B2961;}
	.st165{clip-path:url(#SVGID_00000147929002154125558230000016388586970293071012_);fill:#FFFFFF;}
	.st166{clip-path:url(#SVGID_00000165194933290037967280000016547481164084470945_);fill:#2B2961;}
	.st167{clip-path:url(#SVGID_00000165194933290037967280000016547481164084470945_);fill:#FFFFFF;}
	.st168{clip-path:url(#SVGID_00000062150278579594296030000010921343867278446466_);fill:#2B2961;}
	.st169{clip-path:url(#SVGID_00000111882478269664722630000005098263252826923149_);fill:#2B2961;}
	.st170{clip-path:url(#SVGID_00000111882478269664722630000005098263252826923149_);fill:#FFFFFF;}
	.st171{clip-path:url(#SVGID_00000085930711879587293380000011773708973114039996_);fill:#2B2961;}
	.st172{clip-path:url(#SVGID_00000080916838300055865850000001387134602165851798_);fill:#FFFFFF;}
	.st173{clip-path:url(#SVGID_00000047023957313054871170000006408218384579588279_);fill:#2B2961;}
	.st174{clip-path:url(#SVGID_00000047023957313054871170000006408218384579588279_);fill:#6EC3BF;}
	.st175{clip-path:url(#SVGID_00000083800938292872302840000013271227116578695611_);fill:#2B2961;}
	.st176{clip-path:url(#SVGID_00000054261075045376671620000007924373243605591983_);fill:#2B2961;}
	.st177{clip-path:url(#SVGID_00000176748104753116199710000017301895075224243344_);fill:#FFFFFF;}
	.st178{clip-path:url(#SVGID_00000117678990431579271450000004495627866401178496_);fill:#6EC3BF;}
	.st179{clip-path:url(#SVGID_00000117678990431579271450000004495627866401178496_);fill:#2B2961;}
	.st180{clip-path:url(#SVGID_00000047745691308478943390000009669262511602454405_);fill:#6EC3BF;}
	.st181{clip-path:url(#SVGID_00000062174259088939566970000011127021416810993310_);fill:#2B2961;}
	.st182{clip-path:url(#SVGID_00000143598217673082096620000011448697030687954324_);fill:#6EC3BF;}
	.st183{clip-path:url(#SVGID_00000143598217673082096620000011448697030687954324_);fill:#2B2961;}
	.st184{clip-path:url(#SVGID_00000170972612374133701770000014692774728692998824_);fill:#2B2961;}
	.st185{clip-path:url(#SVGID_00000139289994308282688960000011686903076866487200_);fill:#2B2961;}
	.st186{clip-path:url(#SVGID_00000065064228630311286530000002653410083570426030_);fill:#2B2961;}
	.st187{clip-path:url(#SVGID_00000046303492094699987430000003822840785474690206_);fill:#2B2961;}
	.st188{clip-path:url(#SVGID_00000105426547622314934010000002762018312048288686_);fill:#2B2961;}
	.st189{clip-path:url(#SVGID_00000084513524391035837690000010896289388782492328_);fill:#6EC3BF;}
	.st190{clip-path:url(#SVGID_00000084513524391035837690000010896289388782492328_);fill:#2B2961;}
	.st191{clip-path:url(#SVGID_00000170239912968800073380000017077280661894339976_);fill:#6EC3BF;}
	.st192{clip-path:url(#SVGID_00000170239912968800073380000017077280661894339976_);fill:#2B2961;}
	.st193{clip-path:url(#SVGID_00000078731093339260975250000016933251842882918279_);fill:#2B2961;}
	.st194{clip-path:url(#SVGID_00000156546480720780070510000001122361395463158969_);fill:#2B2961;}
	.st195{clip-path:url(#SVGID_00000011017639310350303800000017649092089566899593_);fill:#2B2961;}
	.st196{clip-path:url(#SVGID_00000057146303346244363740000008280459320787497646_);fill:#FFFFFF;}
	.st197{clip-path:url(#SVGID_00000009586007546594551630000003474171164697003905_);fill:#2B2961;}
	.st198{clip-path:url(#SVGID_00000128449800719272051180000007542677378308127126_);fill:#2B2961;}
	.st199{clip-path:url(#SVGID_00000128449800719272051180000007542677378308127126_);fill:#6EC3BF;}
	.st200{clip-path:url(#SVGID_00000114052433830896672370000003013746538540784305_);fill:#2B2961;}
	.st201{clip-path:url(#SVGID_00000013873959431735751070000000900444337120649641_);fill:#2B2961;}
	.st202{clip-path:url(#SVGID_00000071546165431113093470000014058451909940956805_);fill:#6EC3BF;}
	.st203{clip-path:url(#SVGID_00000071546165431113093470000014058451909940956805_);fill:#2B2961;}
	.st204{clip-path:url(#SVGID_00000055692995015236712420000017147072677389268913_);fill:#6EC3BF;}
	.st205{clip-path:url(#SVGID_00000055692995015236712420000017147072677389268913_);fill:#2B2961;}
	.st206{clip-path:url(#SVGID_00000135663069990581958290000003603030428336697013_);fill:#2B2961;}
	.st207{clip-path:url(#SVGID_00000160903665616193632180000000285396585699444669_);fill:#2B2961;}
	.st208{clip-path:url(#SVGID_00000160903665616193632180000000285396585699444669_);fill:#6EC3BF;}
	.st209{clip-path:url(#SVGID_00000137098235153315091390000012249852146419262864_);fill:#2B2961;}
	.st210{clip-path:url(#SVGID_00000137098235153315091390000012249852146419262864_);fill:#6EC3BF;}
	.st211{clip-path:url(#SVGID_00000096057937406903807860000014432751140974561702_);fill:#2B2961;}
	.st212{clip-path:url(#SVGID_00000096057937406903807860000014432751140974561702_);fill:#6EC3BF;}
	.st213{clip-path:url(#SVGID_00000023271856225982506420000015847859118669371779_);fill:#2B2961;}
	.st214{clip-path:url(#SVGID_00000173877058398634537040000018436331429238273968_);fill:#6EC3BF;}
	.st215{clip-path:url(#SVGID_00000173877058398634537040000018436331429238273968_);fill:#2B2961;}
	.st216{clip-path:url(#SVGID_00000129206561969477285350000018240421037111442860_);fill:#6EC3BF;}
	.st217{clip-path:url(#SVGID_00000129206561969477285350000018240421037111442860_);fill:#2B2961;}
	.st218{clip-path:url(#SVGID_00000173125515262793902410000009912094250777901714_);fill:#FFFFFF;}
	.st219{clip-path:url(#SVGID_00000173125515262793902410000009912094250777901714_);fill:#2B2961;}
	.st220{clip-path:url(#SVGID_00000023270682628230909370000011077151523830161301_);fill:#FFFFFF;}
	.st221{clip-path:url(#SVGID_00000023270682628230909370000011077151523830161301_);fill:#2B2961;}
	.st222{clip-path:url(#SVGID_00000126300612782865523620000016905028902919843752_);fill:#FFFFFF;}
	.st223{clip-path:url(#SVGID_00000126300612782865523620000016905028902919843752_);fill:#2B2961;}
	.st224{clip-path:url(#SVGID_00000147201778675984231180000001984358344195451312_);fill:#6EC3BF;}
	.st225{clip-path:url(#SVGID_00000147201778675984231180000001984358344195451312_);fill:#2B2961;}
	.st226{clip-path:url(#SVGID_00000037682410643296379640000005910712226441585305_);fill:#2B2961;}
	.st227{clip-path:url(#SVGID_00000037682410643296379640000005910712226441585305_);fill:#6EC3BF;}
	.st228{clip-path:url(#SVGID_00000165203515763044180680000015983012334271586716_);fill:#2B2961;}
	.st229{clip-path:url(#SVGID_00000035488885144839242740000004696472752720461721_);fill:#6EC3BF;}
	.st230{clip-path:url(#SVGID_00000035488885144839242740000004696472752720461721_);fill:#2B2961;}
	.st231{clip-path:url(#SVGID_00000023985347120464479040000016649432890964333462_);fill:#2B2961;}
	.st232{clip-path:url(#SVGID_00000087399354030208455530000008015811670344684440_);fill:#2B2961;}
	.st233{clip-path:url(#SVGID_00000087399354030208455530000008015811670344684440_);fill:#6EC3BF;}
	.st234{clip-path:url(#SVGID_00000121260042858939110570000016660318428298035616_);fill:#2B2961;}
	.st235{clip-path:url(#SVGID_00000060726666195879556180000018022020224501553564_);fill:#FFFFFF;}
	.st236{clip-path:url(#SVGID_00000060726666195879556180000018022020224501553564_);fill:#2B2961;}
	.st237{fill:#2C265F;}
	.st238{clip-path:url(#SVGID_00000040548260177680905860000006650090549461465742_);fill:#2B2961;}
	.st239{clip-path:url(#SVGID_00000040548260177680905860000006650090549461465742_);fill:#6EC3BF;}
	.st240{fill:#61B87A;}
	.st241{clip-path:url(#SVGID_00000011720653623679656740000005802089867705039289_);fill:#2B2961;}
	.st242{clip-path:url(#SVGID_00000054965263771066373410000010847217252729907372_);fill:#2B2961;}
	.st243{clip-path:url(#SVGID_00000086672270532995911260000013780377688660229784_);fill:#2B2961;}
	.st244{clip-path:url(#SVGID_00000054234531098299762940000012547920929632886958_);fill:#2B2961;}
	.st245{clip-path:url(#SVGID_00000054234531098299762940000012547920929632886958_);fill:#61B87A;}
	.st246{clip-path:url(#SVGID_00000054234531098299762940000012547920929632886958_);fill:#FFFFFF;}
	.st247{clip-path:url(#SVGID_00000145038161550448863740000002720690303297420450_);fill:#2B2961;}
	.st248{clip-path:url(#SVGID_00000145038161550448863740000002720690303297420450_);fill:#61B87A;}
	.st249{clip-path:url(#SVGID_00000063629859375253332870000007401351015716785295_);fill:#2B2961;}
	.st250{clip-path:url(#SVGID_00000177480416848722468160000011101661995283716993_);fill:#6EC3BF;}
	.st251{clip-path:url(#SVGID_00000177480416848722468160000011101661995283716993_);fill:#2B2961;}
	.st252{clip-path:url(#SVGID_00000024695002741771606200000013998397848024596608_);fill:#2B2961;}
	.st253{clip-path:url(#SVGID_00000024695002741771606200000013998397848024596608_);fill:#6EC3BF;}
	.st254{clip-path:url(#SVGID_00000011003945706905914450000001530934074167661479_);fill:#2B2961;}
	.st255{clip-path:url(#SVGID_00000011003945706905914450000001530934074167661479_);fill:#6EC3BF;}
</style>
<g>
	<rect x="11.32" y="315.97" class="st2" width="28.79" height="120.82"/>
	<rect x="11.32" y="184.4" class="st2" width="28.79" height="44.95"/>
	<rect x="11.93" y="367.04" class="st2" width="302.61" height="144.35"/>
	<g>
		<defs>
			<rect id="SVGID_00000030467499571156532210000011505376257430164414_" x="-6.96" width="340.58" height="512"/>
		</defs>
		<clipPath id="SVGID_00000120519124321295306980000015522737043283906709_">
			<use xlink:href="#SVGID_00000030467499571156532210000011505376257430164414_"  style="overflow:visible;"/>
		</clipPath>
		<path style="clip-path:url(#SVGID_00000120519124321295306980000015522737043283906709_);fill:#2B2961;" d="M315.14,512H11.32
			V366.43h303.83V512z M12.54,510.78h301.39V367.65H12.54V510.78z"/>
		<path style="clip-path:url(#SVGID_00000120519124321295306980000015522737043283906709_);fill:#2B2961;" d="M295.4,427.22
			c0-2.32-1.37-3.78-4.09-4.04l-2.17-0.21c-1.21-0.11-1.43-0.69-1.43-1.19c0-0.69,0.58-1.32,1.95-1.32c1.19,0,2.4,0.21,3.19,0.92
			l2.11-2.14c-1.32-1.24-3.12-1.61-5.25-1.61c-2.8,0-5.31,1.53-5.31,4.38c0,2.54,1.53,3.62,4.01,3.86l2.17,0.21
			c1.08,0.11,1.45,0.58,1.45,1.27c0,1.03-1.24,1.43-2.43,1.43c-1.06,0-2.53-0.16-3.67-1.3l-2.24,2.24c1.74,1.74,3.7,1.98,5.86,1.98
			C292.81,431.7,295.4,430.25,295.4,427.22 M281.8,427.22c0-2.32-1.37-3.78-4.09-4.04l-2.17-0.21c-1.21-0.11-1.43-0.69-1.43-1.19
			c0-0.69,0.58-1.32,1.95-1.32c1.19,0,2.4,0.21,3.19,0.92l2.11-2.14c-1.32-1.24-3.12-1.61-5.25-1.61c-2.8,0-5.31,1.53-5.31,4.38
			c0,2.54,1.53,3.62,4.01,3.86l2.17,0.21c1.08,0.11,1.45,0.58,1.45,1.27c0,1.03-1.24,1.43-2.43,1.43c-1.06,0-2.53-0.16-3.67-1.3
			l-2.24,2.24c1.74,1.74,3.7,1.98,5.86,1.98C279.21,431.7,281.8,430.25,281.8,427.22 M267.07,431.55v-13.75h-3.43v8.32
			c0,1.87-1.21,2.51-2.3,2.51c-1.08,0-2.27-0.63-2.27-2.51v-8.32h-3.43v8.79c0,1.51,0.29,2.8,1.4,3.91
			c0.76,0.76,1.87,1.21,3.25,1.21c1.27,0,2.54-0.48,3.43-1.42v1.27H267.07z M252.52,431.55v-2.9h-1.32c-0.87,0-1.21-0.42-1.21-1.24
			v-14.65h-3.43v14.87c0,1.95,1.19,3.93,4.01,3.93H252.52z M242.46,431.55v-8.9c0-2.9-1.58-5.01-4.59-5.01
			c-1.21,0-2.38,0.47-3.3,1.42v-6.31h-3.43v18.8h3.43v-8.4c0-1.8,1.14-2.43,2.22-2.43c1.08,0,2.25,0.61,2.25,2.43v8.4H242.46z
			 M227.94,429.83l-2.32-2.3c-0.71,0.77-1.32,1.08-2.22,1.08c-0.82,0-1.45-0.29-1.95-0.9c-0.53-0.66-0.77-1.61-0.77-3.06
			c0-1.45,0.24-2.38,0.77-3.04c0.5-0.61,1.14-0.9,1.95-0.9c0.9,0,1.5,0.32,2.22,1.08l2.32-2.32c-1.21-1.27-2.64-1.85-4.54-1.85
			c-2.75,0-6.15,1.45-6.15,7.02c0,5.57,3.4,7.05,6.15,7.05C225.3,431.7,226.72,431.1,227.94,429.83 M214.52,427.22
			c0-2.32-1.37-3.78-4.09-4.04l-2.17-0.21c-1.21-0.11-1.43-0.69-1.43-1.19c0-0.69,0.58-1.32,1.95-1.32c1.19,0,2.4,0.21,3.19,0.92
			l2.11-2.14c-1.32-1.24-3.12-1.61-5.25-1.61c-2.8,0-5.31,1.53-5.31,4.38c0,2.54,1.53,3.62,4.01,3.86l2.17,0.21
			c1.08,0.11,1.45,0.58,1.45,1.27c0,1.03-1.24,1.43-2.43,1.43c-1.06,0-2.53-0.16-3.67-1.3l-2.24,2.24c1.74,1.74,3.7,1.98,5.86,1.98
			C211.94,431.7,214.52,430.25,214.52,427.22 M196.94,424.66c0,2.24-0.26,3.96-2.33,3.96s-2.33-1.72-2.33-3.96
			c0-2.25,0.26-3.94,2.33-3.94S196.94,422.41,196.94,424.66 M200.37,424.66c0-2.06-0.03-4.41-1.4-5.78c-0.77-0.77-2-1.24-3.35-1.24
			c-1.4,0-2.43,0.37-3.33,1.37v-6.26h-3.43v18.8h3.32v-1.29c0.95,1.05,1.98,1.45,3.43,1.45c1.35,0,2.59-0.48,3.35-1.24
			C200.34,429.09,200.37,426.72,200.37,424.66 M181.21,426.48c0,0.85-0.13,1.4-0.5,1.74c-0.61,0.58-1.22,0.66-2.17,0.66
			c-1.35,0-1.98-0.64-1.98-1.59c0-0.98,0.69-1.56,1.93-1.56h2.72V426.48z M184.63,431.55v-9.05c0-3.22-2-4.86-5.86-4.86
			c-2.3,0-3.62,0.42-4.96,1.9l2.19,2.14c0.71-0.82,1.32-1.14,2.64-1.14c1.82,0,2.56,0.66,2.56,2.17v0.69h-3.25
			c-3.19,0-4.7,1.79-4.7,3.98c0,1.21,0.4,2.32,1.13,3.09c0.82,0.82,1.95,1.21,3.51,1.21c1.58,0,2.46-0.4,3.38-1.32v1.19H184.63z
			 M170.96,431.55v-2.9h-1.32c-0.87,0-1.21-0.42-1.21-1.24v-14.65h-3.43v14.87c0,1.95,1.19,3.93,4.01,3.93H170.96z M160.74,431.55
			v-13.75h-3.43v8.32c0,1.87-1.21,2.51-2.3,2.51c-1.08,0-2.27-0.63-2.27-2.51v-8.32h-3.43v8.79c0,1.51,0.29,2.8,1.4,3.91
			c0.77,0.76,1.87,1.21,3.25,1.21c1.27,0,2.54-0.48,3.43-1.42v1.27H160.74z M145.24,431.55v-8.9c0-2.9-1.58-5.01-4.59-5.01
			c-1.22,0-2.38,0.47-3.3,1.42v-6.31h-3.43v18.8h3.43v-8.4c0-1.8,1.14-2.43,2.22-2.43c1.08,0,2.25,0.61,2.25,2.43v8.4H145.24z
			 M130.72,429.83l-2.32-2.3c-0.71,0.77-1.32,1.08-2.22,1.08c-0.82,0-1.45-0.29-1.95-0.9c-0.53-0.66-0.77-1.61-0.77-3.06
			c0-1.45,0.24-2.38,0.77-3.04c0.5-0.61,1.14-0.9,1.95-0.9c0.9,0,1.51,0.32,2.22,1.08l2.32-2.32c-1.21-1.27-2.64-1.85-4.54-1.85
			c-2.75,0-6.15,1.45-6.15,7.02c0,5.57,3.4,7.05,6.15,7.05C128.08,431.7,129.51,431.1,130.72,429.83 M117.31,427.22
			c0-2.32-1.37-3.78-4.09-4.04l-2.17-0.21c-1.21-0.11-1.43-0.69-1.43-1.19c0-0.69,0.58-1.32,1.95-1.32c1.19,0,2.4,0.21,3.19,0.92
			l2.11-2.14c-1.32-1.24-3.12-1.61-5.25-1.61c-2.8,0-5.31,1.53-5.31,4.38c0,2.54,1.53,3.62,4.01,3.86l2.17,0.21
			c1.08,0.11,1.45,0.58,1.45,1.27c0,1.03-1.24,1.43-2.43,1.43c-1.06,0-2.53-0.16-3.67-1.3l-2.24,2.24c1.74,1.74,3.7,1.98,5.86,1.98
			C114.72,431.7,117.31,430.25,117.31,427.22 M103.31,431.55v-2.9h-1.24c-0.82,0-1.19-0.45-1.19-1.24v-6.6h2.43v-2.61h-2.43v-4.07
			h-3.43v4.07H96v2.61h1.45v6.81c0,1.95,1.19,3.93,3.98,3.93H103.31z M89.9,424.66c0,2.24-0.27,3.96-2.33,3.96
			c-2.06,0-2.33-1.72-2.33-3.96c0-2.25,0.26-3.94,2.33-3.94C89.64,420.72,89.9,422.41,89.9,424.66 M93.33,424.66
			c0-2.06-0.03-4.41-1.4-5.78c-0.77-0.77-2-1.24-3.35-1.24c-1.45,0-2.48,0.39-3.43,1.45v-1.29h-3.32v18.8h3.43v-6.26
			c0.9,1,1.93,1.37,3.33,1.37c1.35,0,2.59-0.48,3.35-1.24C93.31,429.09,93.33,426.72,93.33,424.66 M77.44,431.55v-13.75h-3.43v8.32
			c0,1.87-1.22,2.51-2.3,2.51c-1.08,0-2.27-0.63-2.27-2.51v-8.32h-3.43v8.79c0,1.51,0.29,2.8,1.4,3.91
			c0.77,0.76,1.87,1.21,3.25,1.21c1.27,0,2.54-0.48,3.44-1.42v1.27H77.44z M58.51,426.48c0,0.85-0.13,1.4-0.5,1.74
			c-0.61,0.58-1.21,0.66-2.17,0.66c-1.35,0-1.98-0.64-1.98-1.59c0-0.98,0.69-1.56,1.93-1.56h2.72V426.48z M61.94,431.55v-9.05
			c0-3.22-2-4.86-5.86-4.86c-2.3,0-3.62,0.42-4.96,1.9l2.19,2.14c0.71-0.82,1.32-1.14,2.64-1.14c1.82,0,2.56,0.66,2.56,2.17v0.69
			h-3.25c-3.19,0-4.7,1.79-4.7,3.98c0,1.21,0.39,2.32,1.13,3.09c0.82,0.82,1.95,1.21,3.51,1.21c1.59,0,2.46-0.4,3.38-1.32v1.19
			H61.94z M46.89,431.55v-18.8h-3.67v7.68h-6.37v-7.68h-3.67v18.8h3.67v-7.87h6.37v7.87H46.89z"/>
		<path style="clip-path:url(#SVGID_00000120519124321295306980000015522737043283906709_);fill:#2B2961;" d="M235,395.53
			c0-2.32-1.37-3.78-4.09-4.04l-2.17-0.21c-1.21-0.11-1.43-0.69-1.43-1.19c0-0.69,0.58-1.32,1.95-1.32c1.19,0,2.4,0.21,3.19,0.92
			l2.11-2.14c-1.32-1.24-3.12-1.61-5.25-1.61c-2.8,0-5.31,1.53-5.31,4.38c0,2.54,1.53,3.62,4.01,3.86l2.17,0.21
			c1.08,0.11,1.45,0.58,1.45,1.27c0,1.03-1.24,1.43-2.43,1.43c-1.06,0-2.53-0.16-3.67-1.3l-2.24,2.24c1.74,1.74,3.7,1.98,5.86,1.98
			C232.41,400.02,235,398.57,235,395.53 M220.42,399.86v-8.79c0-1.51-0.29-2.8-1.4-3.91c-0.77-0.77-1.87-1.21-3.25-1.21
			c-1.27,0-2.54,0.47-3.44,1.42v-1.27h-3.35v13.75h3.43v-8.32c0-1.87,1.22-2.51,2.3-2.51c1.08,0,2.27,0.63,2.27,2.51v8.32H220.42z
			 M201.91,391.71h-5.23c0.03-0.61,0.11-0.98,0.32-1.48c0.37-0.82,1.14-1.43,2.3-1.43s1.93,0.61,2.3,1.43
			C201.81,390.73,201.89,391.1,201.91,391.71 M205.29,394.05v-1.53c0-3.78-2.17-6.57-5.99-6.57c-3.56,0-5.99,2.53-5.99,7.02
			c0,5.57,3.11,7.05,6.36,7.05c2.48,0,3.83-0.77,5.23-2.16l-2.09-2.03c-0.87,0.87-1.61,1.3-3.12,1.3c-1.93,0-3.01-1.3-3.01-3.07
			H205.29z M190.43,399.86v-2.9h-1.24c-0.82,0-1.19-0.45-1.19-1.24v-6.6h2.43v-2.61H188v-4.07h-3.43v4.07h-1.45v2.61h1.45v6.81
			c0,1.95,1.19,3.93,3.98,3.93H190.43z M181.11,395.53c0-2.32-1.37-3.78-4.09-4.04l-2.17-0.21c-1.21-0.11-1.43-0.69-1.43-1.19
			c0-0.69,0.58-1.32,1.95-1.32c1.19,0,2.4,0.21,3.19,0.92l2.11-2.14c-1.32-1.24-3.12-1.61-5.25-1.61c-2.8,0-5.31,1.53-5.31,4.38
			c0,2.54,1.53,3.62,4.01,3.86l2.17,0.21c1.08,0.11,1.45,0.58,1.45,1.27c0,1.03-1.24,1.43-2.43,1.43c-1.06,0-2.53-0.16-3.67-1.3
			l-2.24,2.24c1.74,1.74,3.7,1.98,5.86,1.98C178.52,400.02,181.11,398.57,181.11,395.53 M163.68,391.71h-5.23
			c0.03-0.61,0.11-0.98,0.32-1.48c0.37-0.82,1.14-1.43,2.3-1.43c1.16,0,1.93,0.61,2.3,1.43
			C163.58,390.73,163.66,391.1,163.68,391.71 M167.06,394.05v-1.53c0-3.78-2.17-6.57-5.99-6.57c-3.56,0-5.99,2.53-5.99,7.02
			c0,5.57,3.11,7.05,6.36,7.05c2.48,0,3.83-0.77,5.23-2.16l-2.09-2.03c-0.87,0.87-1.61,1.3-3.12,1.3c-1.93,0-3.01-1.3-3.01-3.07
			H167.06z M147.95,392.97c0,2.24-0.29,3.96-2.35,3.96c-2.06,0-2.33-1.72-2.33-3.96c0-2.25,0.26-3.94,2.33-3.94
			C147.66,389.04,147.95,390.73,147.95,392.97 M151.38,399.86v-18.8h-3.43v6.26c-0.9-1-1.95-1.37-3.36-1.37
			c-1.35,0-2.59,0.47-3.35,1.24c-1.37,1.37-1.4,3.72-1.4,5.78c0,2.06,0.03,4.44,1.4,5.81c0.76,0.76,2.03,1.24,3.38,1.24
			c1.45,0,2.46-0.4,3.41-1.45v1.29H151.38z M136.2,399.86v-8.79c0-1.51-0.29-2.8-1.4-3.91c-0.76-0.77-1.87-1.21-3.25-1.21
			c-1.27,0-2.54,0.47-3.43,1.42v-1.27h-3.35v13.75h3.43v-8.32c0-1.87,1.21-2.51,2.3-2.51c1.08,0,2.27,0.63,2.27,2.51v8.32H136.2z
			 M120.44,380.96h-3.51v2.79h3.51V380.96z M120.41,386.11h-3.43v13.75h3.43V386.11z M112.75,399.86v-8.79c0-1.51-0.4-2.8-1.5-3.91
			c-0.77-0.77-2-1.21-3.38-1.21c-1.72,0-2.96,0.53-4.12,1.74c-0.87-1.19-2.11-1.74-3.64-1.74c-1.27,0-2.54,0.5-3.43,1.42v-1.27
			h-3.35v13.75h3.43v-8.32c0-1.87,1.21-2.51,2.3-2.51c1.08,0,2.27,0.63,2.27,2.51v8.32h3.43v-8.4c0-1.8,1.24-2.43,2.3-2.43
			c1.08,0,2.27,0.63,2.27,2.51v8.32H112.75z"/>
	</g>
	<polygon class="st3" points="20.95,342.57 30.47,342.57 25.71,337.81 	"/>
	<polygon class="st3" points="20.95,361.52 30.47,361.52 25.71,356.75 	"/>
	<polygon class="st3" points="20.95,352.04 30.47,352.04 25.71,347.28 	"/>
	<polygon class="st3" points="20.95,202.46 30.47,202.46 25.71,197.69 	"/>
	<polygon class="st3" points="20.95,221.4 30.47,221.4 25.71,216.64 	"/>
	<polygon class="st3" points="20.95,211.93 30.47,211.93 25.71,207.17 	"/>
	<rect x="11.32" y="295.29" class="st2" width="302.8" height="28.79"/>
	<g>
		<defs>
			<rect id="SVGID_00000032618775638679117210000015492806690351294595_" x="-6.96" width="340.58" height="512"/>
		</defs>
		<clipPath id="SVGID_00000046325567885513366810000013782600813500858558_">
			<use xlink:href="#SVGID_00000032618775638679117210000015492806690351294595_"  style="overflow:visible;"/>
		</clipPath>
		<path style="clip-path:url(#SVGID_00000046325567885513366810000013782600813500858558_);fill:#2B2961;" d="M186.73,266.38
			c0-1.66-0.45-3.04-1.45-3.99c-0.79-0.74-1.87-1.21-3.59-1.45l-2.22-0.32c-0.77-0.11-1.38-0.4-1.74-0.74
			c-0.4-0.37-0.55-0.87-0.55-1.35c0-1.29,0.95-2.38,2.91-2.38c1.24,0,2.67,0.16,3.85,1.29l2.32-2.3c-1.61-1.56-3.48-2.19-6.07-2.19
			c-4.07,0-6.55,2.35-6.55,5.7c0,1.59,0.45,2.8,1.35,3.7c0.84,0.82,2.03,1.32,3.64,1.56l2.27,0.32c0.87,0.13,1.29,0.32,1.66,0.66
			c0.4,0.37,0.58,0.92,0.58,1.58c0,1.51-1.16,2.33-3.33,2.33c-1.74,0-3.36-0.4-4.54-1.58l-2.37,2.37c1.85,1.87,4.01,2.48,6.86,2.48
			C183.7,272.08,186.73,270.02,186.73,266.38 M171.13,256.39v-3.27h-12.38v18.8h3.67v-7.63h7.42v-3.27h-7.42v-4.62H171.13z
			 M150.54,258.56c0,1.29-0.87,2.17-2.43,2.17h-3.59v-4.33h3.59C149.67,256.39,150.54,257.27,150.54,258.56 M150.8,266.32
			c0,1.27-0.79,2.33-2.46,2.33h-3.83v-4.62h3.83C150.01,264.02,150.8,265.05,150.8,266.32 M154.47,266.51c0-2.51-1.45-3.7-2.59-4.22
			c0.95-0.45,2.32-1.79,2.32-3.88c0-3.22-2.14-5.28-5.81-5.28h-7.55v18.8h7.87C152.07,271.92,154.47,270.02,154.47,266.51"/>
		<path style="clip-path:url(#SVGID_00000046325567885513366810000013782600813500858558_);fill:#2B2961;" d="M227.03,66.22
			c0,1.82-0.24,3.59-2.27,3.59c-2.03,0-2.24-1.77-2.24-3.59c0-1.82,0.21-3.57,2.24-3.57C226.79,62.66,227.03,64.4,227.03,66.22
			 M230.46,72.98V59.73h-3.32v1.29c-0.95-1.06-1.9-1.45-3.36-1.45c-1.35,0-2.53,0.45-3.3,1.21c-1.29,1.29-1.4,3.03-1.4,5.44
			c0,2.4,0.11,4.17,1.4,5.47c0.77,0.76,1.93,1.21,3.27,1.21c1.35,0,2.38-0.37,3.28-1.37v1.4c0,1.4-0.71,2.86-2.77,2.86
			c-1.16,0-1.93-0.32-2.69-1.06l-2.14,2.17c1.42,1.37,2.88,1.79,4.99,1.79C228.11,78.68,230.46,76.28,230.46,72.98 M215.44,73.48
			v-8.79c0-1.51-0.29-2.8-1.4-3.91c-0.76-0.77-1.87-1.21-3.25-1.21c-1.27,0-2.54,0.47-3.43,1.42v-1.27h-3.35v13.75h3.43v-8.32
			c0-1.87,1.21-2.51,2.3-2.51c1.08,0,2.27,0.63,2.27,2.51v8.32H215.44z M199.62,73.48V59.73h-3.43v8.32c0,1.87-1.21,2.51-2.3,2.51
			c-1.08,0-2.27-0.63-2.27-2.51v-8.32h-3.43v8.79c0,1.5,0.29,2.8,1.4,3.91c0.76,0.76,1.87,1.21,3.25,1.21
			c1.27,0,2.54-0.48,3.43-1.42v1.27H199.62z M180.53,66.59c0,2.24-0.29,3.96-2.35,3.96c-2.06,0-2.33-1.72-2.33-3.96
			c0-2.25,0.26-3.94,2.33-3.94C180.24,62.66,180.53,64.35,180.53,66.59 M183.96,73.48v-18.8h-3.43v6.26c-0.9-1-1.95-1.37-3.36-1.37
			c-1.35,0-2.59,0.47-3.35,1.24c-1.37,1.37-1.4,3.72-1.4,5.78c0,2.06,0.03,4.44,1.4,5.81c0.76,0.76,2.03,1.24,3.38,1.24
			c1.45,0,2.46-0.4,3.41-1.45v1.29H183.96z M169.73,73.48v-2.9h-1.32c-0.87,0-1.21-0.42-1.21-1.24V54.69h-3.43v14.87
			c0,1.95,1.19,3.93,4.01,3.93H169.73z M159.57,54.58h-3.51v2.79h3.51V54.58z M159.54,59.73h-3.43v13.75h3.43V59.73z M148.87,66.59
			c0,2.24-0.26,3.96-2.32,3.96c-2.06,0-2.33-1.72-2.33-3.96c0-2.25,0.26-3.94,2.33-3.94C148.61,62.66,148.87,64.35,148.87,66.59
			 M152.31,66.59c0-2.06-0.03-4.41-1.4-5.78c-0.77-0.77-2.01-1.24-3.35-1.24c-1.4,0-2.43,0.37-3.33,1.37v-6.26h-3.43v18.8h3.32
			v-1.29c0.95,1.05,1.98,1.45,3.43,1.45c1.35,0,2.59-0.48,3.35-1.24C152.28,71.03,152.31,68.65,152.31,66.59 M137.39,69.15
			c0-2.32-1.37-3.78-4.09-4.04l-2.17-0.21c-1.21-0.11-1.43-0.69-1.43-1.19c0-0.69,0.58-1.32,1.95-1.32c1.19,0,2.4,0.21,3.19,0.92
			l2.11-2.14c-1.32-1.24-3.12-1.61-5.25-1.61c-2.8,0-5.31,1.53-5.31,4.38c0,2.54,1.53,3.62,4.01,3.86l2.17,0.21
			c1.08,0.11,1.45,0.58,1.45,1.27c0,1.03-1.24,1.43-2.43,1.43c-1.06,0-2.53-0.16-3.67-1.3l-2.24,2.24c1.74,1.74,3.7,1.98,5.86,1.98
			C134.8,73.64,137.39,72.19,137.39,69.15 M122.65,73.48V59.73h-3.43v8.32c0,1.87-1.22,2.51-2.3,2.51c-1.08,0-2.27-0.63-2.27-2.51
			v-8.32h-3.43v8.79c0,1.5,0.29,2.8,1.4,3.91c0.77,0.76,1.87,1.21,3.25,1.21c1.27,0,2.54-0.48,3.44-1.42v1.27H122.65z M102.88,67.07
			h-4.67l2.38-6.84L102.88,67.07z M108.79,73.48l-6.86-18.8h-2.88l-6.84,18.8h3.83l1.14-3.33h6.68l1.11,3.33H108.79z"/>
		<path style="clip-path:url(#SVGID_00000046325567885513366810000013782600813500858558_);fill:#2B2961;" d="M273.18,33.64h-5.23
			c0.03-0.61,0.11-0.98,0.32-1.48c0.37-0.82,1.14-1.43,2.3-1.43c1.16,0,1.93,0.61,2.3,1.43C273.07,32.66,273.15,33.03,273.18,33.64
			 M276.56,35.99v-1.53c0-3.78-2.17-6.57-5.99-6.57c-3.56,0-5.99,2.53-5.99,7.02c0,5.57,3.11,7.05,6.36,7.05
			c2.48,0,3.83-0.77,5.23-2.16l-2.09-2.03c-0.87,0.87-1.61,1.3-3.12,1.3c-1.93,0-3.01-1.3-3.01-3.07H276.56z M261.03,41.8v-8.9
			c0-2.9-1.58-5.01-4.59-5.01c-1.21,0-2.38,0.47-3.3,1.42V23h-3.43v18.8h3.43v-8.4c0-1.8,1.14-2.43,2.22-2.43
			c1.08,0,2.24,0.61,2.24,2.43v8.4H261.03z M246.51,40.08l-2.32-2.3c-0.71,0.77-1.32,1.08-2.22,1.08c-0.82,0-1.45-0.29-1.95-0.9
			c-0.53-0.66-0.77-1.61-0.77-3.06s0.24-2.38,0.77-3.04c0.5-0.61,1.14-0.9,1.95-0.9c0.9,0,1.51,0.32,2.22,1.08l2.32-2.32
			c-1.21-1.27-2.64-1.85-4.54-1.85c-2.75,0-6.15,1.45-6.15,7.02s3.4,7.05,6.15,7.05C243.87,41.96,245.3,41.35,246.51,40.08
			 M232.18,22.9h-3.51v2.79h3.51V22.9z M232.15,28.04h-3.43V41.8h3.43V28.04z M225.44,41.8v-2.9h-1.32c-0.87,0-1.21-0.42-1.21-1.24
			V23h-3.43v14.87c0,1.95,1.19,3.93,4.01,3.93H225.44z M212.38,34.91c0,2.24-0.26,3.96-2.33,3.96s-2.33-1.72-2.33-3.96
			c0-2.25,0.26-3.94,2.33-3.94S212.38,32.66,212.38,34.91 M215.81,34.91c0-2.06-0.03-4.41-1.4-5.78c-0.77-0.77-2-1.24-3.35-1.24
			c-1.4,0-2.43,0.37-3.33,1.37V23h-3.43v18.8h3.32v-1.29c0.95,1.05,1.98,1.45,3.43,1.45c1.35,0,2.59-0.48,3.35-1.24
			C215.78,39.34,215.81,36.97,215.81,34.91 M197.22,33.64h-5.23c0.03-0.61,0.11-0.98,0.32-1.48c0.37-0.82,1.14-1.43,2.3-1.43
			s1.93,0.61,2.3,1.43C197.11,32.66,197.19,33.03,197.22,33.64 M200.6,35.99v-1.53c0-3.78-2.17-6.57-5.99-6.57
			c-3.56,0-5.99,2.53-5.99,7.02c0,5.57,3.11,7.05,6.36,7.05c2.48,0,3.83-0.77,5.23-2.16l-2.09-2.03c-0.87,0.87-1.61,1.3-3.12,1.3
			c-1.93,0-3.01-1.3-3.01-3.07H200.6z M184.97,22.9h-3.51v2.79h3.51V22.9z M184.94,28.04h-3.43V41.8h3.43V28.04z M179.02,29.18
			c-0.95-0.95-1.9-1.29-3.25-1.29c-1.48,0-2.8,0.68-3.46,1.48v-1.32h-3.35V41.8h3.43v-8.29c0-1.74,1.16-2.53,2.22-2.53
			c0.84,0,1.29,0.29,1.82,0.82L179.02,29.18z M165.32,41.8v-2.9h-1.24c-0.82,0-1.19-0.45-1.19-1.24v-6.6h2.43v-2.61h-2.43v-4.07
			h-3.43v4.07h-1.45v2.61h1.45v6.81c0,1.95,1.19,3.93,3.98,3.93H165.32z M152.07,33.64h-5.23c0.03-0.61,0.11-0.98,0.32-1.48
			c0.37-0.82,1.14-1.43,2.3-1.43c1.16,0,1.93,0.61,2.3,1.43C151.96,32.66,152.04,33.03,152.07,33.64 M155.45,35.99v-1.53
			c0-3.78-2.17-6.57-5.99-6.57c-3.56,0-5.99,2.53-5.99,7.02c0,5.57,3.11,7.05,6.36,7.05c2.48,0,3.83-0.77,5.23-2.16l-2.09-2.03
			c-0.87,0.87-1.61,1.3-3.12,1.3c-1.93,0-3.01-1.3-3.01-3.07H155.45z M136.92,34.91c0,2.24-0.26,3.96-2.32,3.96
			c-2.06,0-2.33-1.72-2.33-3.96c0-2.25,0.26-3.94,2.33-3.94C136.65,30.97,136.92,32.66,136.92,34.91 M140.35,34.91
			c0-2.06-0.03-4.41-1.4-5.78c-0.76-0.77-2-1.24-3.35-1.24c-1.4,0-2.43,0.37-3.33,1.37V23h-3.43v18.8h3.32v-1.29
			c0.95,1.05,1.98,1.45,3.43,1.45c1.35,0,2.59-0.48,3.35-1.24C140.32,39.34,140.35,36.97,140.35,34.91 M126.48,21.05h-3.22
			l-7.53,22.7h3.22L126.48,21.05z M110.59,33.64h-5.23c0.03-0.61,0.11-0.98,0.32-1.48c0.37-0.82,1.14-1.43,2.3-1.43
			c1.16,0,1.93,0.61,2.3,1.43C110.48,32.66,110.56,33.03,110.59,33.64 M113.97,35.99v-1.53c0-3.78-2.17-6.57-5.99-6.57
			c-3.56,0-5.99,2.53-5.99,7.02c0,5.57,3.11,7.05,6.36,7.05c2.48,0,3.83-0.77,5.23-2.16l-2.09-2.03c-0.87,0.87-1.61,1.3-3.12,1.3
			c-1.93,0-3.01-1.3-3.01-3.07H113.97z M100.05,41.8v-2.9h-1.32c-0.87,0-1.21-0.42-1.21-1.24V23h-3.43v14.87
			c0,1.95,1.19,3.93,4.01,3.93H100.05z M86.56,36.73c0,0.85-0.13,1.4-0.5,1.74c-0.61,0.58-1.21,0.66-2.17,0.66
			c-1.35,0-1.98-0.64-1.98-1.59c0-0.98,0.69-1.56,1.93-1.56h2.72V36.73z M89.99,41.8v-9.05c0-3.22-2-4.86-5.86-4.86
			c-2.3,0-3.62,0.42-4.96,1.9l2.19,2.14c0.71-0.82,1.32-1.14,2.64-1.14c1.82,0,2.56,0.66,2.56,2.17v0.69h-3.25
			c-3.19,0-4.7,1.79-4.7,3.98c0,1.21,0.4,2.32,1.14,3.09c0.82,0.82,1.95,1.21,3.51,1.21c1.59,0,2.46-0.4,3.38-1.32v1.19H89.99z
			 M75.21,41.8V28.04h-3.43v8.32c0,1.87-1.21,2.51-2.3,2.51c-1.08,0-2.27-0.63-2.27-2.51v-8.32h-3.43v8.79c0,1.51,0.29,2.8,1.4,3.91
			c0.76,0.76,1.87,1.21,3.25,1.21c1.27,0,2.54-0.48,3.43-1.42v1.27H75.21z M56.12,34.91c0,2.24-0.29,3.96-2.35,3.96
			c-2.06,0-2.33-1.72-2.33-3.96c0-2.25,0.26-3.94,2.33-3.94C55.83,30.97,56.12,32.66,56.12,34.91 M59.55,41.8V23h-3.43v6.26
			c-0.9-1-1.96-1.37-3.36-1.37c-1.35,0-2.59,0.47-3.35,1.24c-1.37,1.37-1.4,3.72-1.4,5.78c0,2.06,0.03,4.44,1.4,5.81
			c0.77,0.76,2.03,1.24,3.38,1.24c1.45,0,2.46-0.4,3.41-1.45v1.29H59.55z"/>
	</g>
	<path class="st6" d="M315.34,324.51H11.32v-95.16h304.02V324.51z M12.54,323.3h301.59v-92.72H12.54V323.3z"/>
	<path class="st6" d="M315.34,184.4H11.32V0h304.02V184.4z M12.54,183.18h301.59V1.22H12.54V183.18z"/>
	<polygon class="st3" points="20.95,333.03 30.47,333.03 25.71,328.27 	"/>
	<polygon class="st3" points="20.95,192.92 30.47,192.92 25.71,188.15 	"/>
	<g>
		<defs>
			<rect id="SVGID_00000066513453771636772610000004504765224816732601_" x="-6.96" width="340.58" height="512"/>
		</defs>
		<clipPath id="SVGID_00000142172830342101469220000009911805940992945318_">
			<use xlink:href="#SVGID_00000066513453771636772610000004504765224816732601_"  style="overflow:visible;"/>
		</clipPath>
		<path style="clip-path:url(#SVGID_00000142172830342101469220000009911805940992945318_);fill:#FFFFFF;" d="M253.86,482.57h-3.14
			v16.63h3.14V482.57z M235.01,505.92c-0.16-0.08-0.24-0.26-0.24-0.54v-1.74c0.39-0.18,0.79-0.31,1.2-0.4
			c0.41-0.09,0.85-0.15,1.31-0.18v-1.82c-0.92,0.03-1.72,0.17-2.4,0.42c-0.69,0.25-1.22,0.63-1.61,1.16
			c-0.39,0.53-0.58,1.27-0.58,2.22c0,0.37,0.02,0.68,0.07,0.94c0.04,0.26,0.1,0.49,0.17,0.7l-1.06,0.29v1.53l6.13-1.64v-1.56
			l-2.17,0.58C235.44,505.99,235.17,506,235.01,505.92 M242.33,488.93l-6.71-5.49l-2.19,2.64l5.1,4.15L242.33,488.93z
			 M236.31,493.71l4.51-1.61l1.4,1.14c0.3,0.21,0.53,0.45,0.69,0.73c0.16,0.27,0.24,0.53,0.24,0.78c0,0.37-0.15,0.68-0.46,0.94
			c-0.31,0.26-0.81,0.38-1.52,0.38h-4.86V493.71z M236.6,490.04c-0.99,0.35-1.74,0.75-2.27,1.2c-0.53,0.45-0.89,0.99-1.08,1.61
			c-0.19,0.63-0.29,1.37-0.29,2.23c0,1.09,0.19,1.97,0.58,2.63c0.39,0.66,1.06,1.14,2.01,1.44c0.95,0.3,2.27,0.45,3.96,0.45
			c2.48,0,4.27-0.37,5.35-1.11c1.08-0.74,1.62-1.93,1.62-3.56c0-0.79-0.13-1.51-0.4-2.14c-0.26-0.63-0.73-1.29-1.4-1.98v-0.18
			c0.37-0.12,0.65-0.3,0.83-0.54s0.31-0.58,0.37-1.02c0.06-0.44,0.09-1.01,0.09-1.72v-4.78h-3.14v5.28L236.6,490.04z M222.87,490.1
			c0.42-0.03,0.91-0.04,1.45-0.04c0.63,0,1.27,0.04,1.92,0.12c0.64,0.08,1.35,0.21,2.12,0.38l0.5-3.35
			c-0.49-0.16-1.01-0.29-1.54-0.4c-0.54-0.11-1.09-0.18-1.65-0.24c-0.56-0.05-1.14-0.08-1.72-0.08c-1.06,0-1.93,0.11-2.63,0.32
			c-0.7,0.21-1.25,0.56-1.66,1.04c-0.41,0.49-0.71,1.13-0.89,1.93c-0.17,0.8-0.26,1.8-0.26,3c0,1.21,0.09,2.23,0.28,3.06
			c0.18,0.83,0.49,1.48,0.91,1.97c0.42,0.49,1,0.84,1.72,1.06c0.72,0.22,1.62,0.33,2.69,0.33h5.94v-3.54h-6.36
			c-0.67,0-1.17-0.12-1.49-0.36c-0.33-0.24-0.48-0.64-0.46-1.2v-3.85C222.07,490.18,222.44,490.13,222.87,490.1 M224.24,499.2
			l-2.38-3.54h-6.79v3.54H224.24z M214.55,499.2v-2.75c-0.46-1.78-0.88-3.27-1.28-4.48c-0.4-1.2-0.81-2.19-1.23-2.94
			c-0.42-0.76-0.89-1.34-1.41-1.74c-0.52-0.41-1.13-0.68-1.82-0.83c-0.7-0.15-1.52-0.22-2.47-0.22c-0.56,0-1.15,0.03-1.75,0.11
			c-0.61,0.07-1.17,0.17-1.68,0.29l0.87,3.46c0.37-0.11,0.78-0.18,1.24-0.24c0.46-0.05,0.9-0.08,1.32-0.08
			c0.6,0,1.11,0.08,1.55,0.24c0.43,0.16,0.8,0.45,1.12,0.88c0.32,0.43,0.61,1.03,0.89,1.8c0.27,0.77,0.57,1.76,0.88,2.97h-8.29v3.54
			H214.55z M213.76,499.2h2.38v-3.54h-2.38V499.2z M199.68,482.57h-3.14v16.63h3.14V482.57z M192.98,499.2v-2.75
			c-0.46-1.78-0.88-3.27-1.28-4.48c-0.4-1.2-0.81-2.19-1.23-2.94c-0.42-0.76-0.89-1.34-1.41-1.74c-0.52-0.41-1.13-0.68-1.82-0.83
			c-0.69-0.15-1.52-0.22-2.47-0.22c-0.56,0-1.15,0.03-1.75,0.11c-0.61,0.07-1.17,0.17-1.68,0.29l0.87,3.46
			c0.37-0.11,0.78-0.18,1.24-0.24c0.46-0.05,0.9-0.08,1.32-0.08c0.6,0,1.12,0.08,1.55,0.24c0.43,0.16,0.8,0.45,1.12,0.88
			c0.32,0.43,0.61,1.03,0.89,1.8s0.57,1.76,0.88,2.97h-8.29v3.54H192.98z M177.9,504.33c0.28-0.22,0.53-0.48,0.74-0.77
			c0.21-0.29,0.32-0.54,0.32-0.75c0-0.25-0.11-0.51-0.32-0.79c-0.21-0.28-0.45-0.53-0.73-0.74c-0.27-0.21-0.54-0.32-0.8-0.32
			c-0.21,0-0.46,0.11-0.75,0.32c-0.29,0.21-0.54,0.46-0.75,0.74c-0.21,0.28-0.32,0.54-0.32,0.79c0,0.21,0.11,0.47,0.32,0.77
			c0.21,0.3,0.46,0.55,0.75,0.77c0.29,0.21,0.55,0.32,0.78,0.32C177.37,504.67,177.62,504.55,177.9,504.33 M173.49,504.33
			c0.28-0.22,0.53-0.48,0.74-0.77s0.32-0.54,0.32-0.75c0-0.25-0.11-0.51-0.32-0.79c-0.21-0.28-0.45-0.53-0.73-0.74
			c-0.27-0.21-0.54-0.32-0.8-0.32c-0.21,0-0.46,0.11-0.75,0.32c-0.29,0.21-0.54,0.46-0.75,0.74c-0.21,0.28-0.32,0.54-0.32,0.79
			c0,0.21,0.11,0.47,0.32,0.77c0.21,0.3,0.46,0.55,0.75,0.77c0.29,0.21,0.55,0.32,0.78,0.32
			C172.96,504.67,173.21,504.55,173.49,504.33 M178.11,499.2v-12.41h-3.14v8.87h-4.09v3.54H178.11z M166.31,483.37
			c0.28-0.22,0.53-0.48,0.74-0.77c0.21-0.29,0.32-0.54,0.32-0.75c0-0.25-0.11-0.51-0.32-0.79c-0.21-0.28-0.45-0.53-0.73-0.74
			c-0.27-0.21-0.54-0.32-0.8-0.32c-0.21,0-0.46,0.11-0.75,0.32c-0.29,0.21-0.54,0.46-0.75,0.74c-0.21,0.28-0.32,0.54-0.32,0.79
			c0,0.21,0.11,0.47,0.32,0.77c0.21,0.3,0.46,0.55,0.75,0.77c0.29,0.21,0.55,0.32,0.78,0.32
			C165.77,483.7,166.03,483.59,166.31,483.37 M161.9,483.37c0.28-0.22,0.53-0.48,0.74-0.77c0.21-0.29,0.32-0.54,0.32-0.75
			c0-0.25-0.11-0.51-0.32-0.79c-0.21-0.28-0.45-0.53-0.73-0.74c-0.27-0.21-0.54-0.32-0.8-0.32c-0.21,0-0.46,0.11-0.75,0.32
			c-0.29,0.21-0.54,0.46-0.75,0.74c-0.21,0.28-0.32,0.54-0.32,0.79c0,0.21,0.11,0.47,0.32,0.77c0.21,0.3,0.46,0.55,0.75,0.77
			c0.29,0.21,0.55,0.32,0.78,0.32C161.36,483.7,161.62,483.59,161.9,483.37 M166.13,495.66h-4.75c-0.48,0-0.83-0.09-1.06-0.28
			c-0.23-0.18-0.34-0.48-0.34-0.88v-3.01c0-0.41,0.11-0.7,0.34-0.89c0.23-0.18,0.58-0.28,1.06-0.28h4.75V495.66z M162.51,486.79
			c-1.2,0-2.18,0.08-2.96,0.25c-0.78,0.17-1.37,0.48-1.8,0.92c-0.42,0.45-0.71,1.08-0.87,1.89c-0.16,0.81-0.24,1.86-0.24,3.14
			c0,1.28,0.08,2.33,0.24,3.14c0.16,0.81,0.45,1.44,0.87,1.89c0.42,0.45,1.02,0.76,1.8,0.92c0.77,0.17,1.76,0.25,2.96,0.25h6.79
			v-12.41H162.51z M169.24,499.2h2.69v-3.54h-2.69V499.2z M146.48,482.57h-3.14v16.63h3.14V482.57z M138.83,482.57h-3.14v13.1h-4.09
			v3.54h7.23V482.57z M113.77,499.2h4.33v-3.54h-4.33V499.2z M127.18,490.01c0,1.25-0.32,2.3-0.96,3.14
			c-0.64,0.84-1.63,1.47-2.97,1.89c-1.34,0.41-3.05,0.62-5.15,0.62v3.54c1.71,0,3.3-0.25,4.79-0.75c1.49-0.5,2.79-1.2,3.9-2.1
			c1.11-0.9,1.98-1.95,2.6-3.14c0.62-1.2,0.94-2.48,0.94-3.85c0-0.7-0.23-1.27-0.69-1.7c-0.46-0.43-1.21-0.74-2.24-0.91
			c-1.04-0.18-2.44-0.26-4.2-0.26c-1.72,0-3.11,0.09-4.15,0.26c-1.04,0.17-1.79,0.48-2.26,0.91c-0.47,0.43-0.7,1-0.7,1.7
			c0,1.37,0.31,2.65,0.94,3.84c0.62,1.19,1.49,2.23,2.61,3.13c1.12,0.9,2.42,1.6,3.9,2.11c1.48,0.51,3.06,0.77,4.75,0.77v-3.54
			c-2.08,0-3.78-0.21-5.12-0.62c-1.34-0.41-2.33-1.04-2.97-1.89c-0.64-0.84-0.96-1.89-0.96-3.14H127.18z M128.29,499.2h4.36v-3.54
			h-4.36V499.2z M114.83,499.2v-3.54h-2.8v-13.1h-3.14v16.63H114.83z M95.89,497.25c-0.25-0.39-0.44-0.79-0.58-1.21
			s-0.24-0.89-0.29-1.4c-0.05-0.51-0.08-1.1-0.08-1.77c0-0.74,0.09-1.46,0.26-2.17c0.18-0.7,0.41-1.49,0.71-2.35l-3.17-0.74
			c-0.28,0.88-0.51,1.74-0.69,2.59c-0.18,0.84-0.26,1.73-0.26,2.67c0,1.09,0.08,2.09,0.25,2.98c0.17,0.9,0.51,1.65,1.04,2.24
			L95.89,497.25z M97.06,486.59c-0.77,0.08-1.53,0.2-2.26,0.37c-0.73,0.17-1.41,0.38-2.05,0.65l1.24,3.06
			c0.83-0.23,1.67-0.4,2.52-0.5c0.85-0.11,1.67-0.16,2.44-0.16c0.51,0,0.95,0.01,1.33,0.04c0.38,0.03,0.73,0.08,1.07,0.15v5.47
			H88.37v3.54h16.13v-8.71c0-0.97-0.18-1.75-0.53-2.34c-0.35-0.59-0.91-1.02-1.66-1.28c-0.76-0.26-1.75-0.4-2.98-0.4
			C98.59,486.47,97.83,486.51,97.06,486.59 M83.8,483.37c0.28-0.22,0.53-0.48,0.74-0.77c0.21-0.29,0.32-0.54,0.32-0.75
			c0-0.25-0.11-0.51-0.32-0.79c-0.21-0.28-0.45-0.53-0.73-0.74c-0.27-0.21-0.54-0.32-0.81-0.32c-0.21,0-0.46,0.11-0.75,0.32
			c-0.29,0.21-0.54,0.46-0.75,0.74c-0.21,0.28-0.32,0.54-0.32,0.79c0,0.21,0.11,0.47,0.32,0.77c0.21,0.3,0.46,0.55,0.75,0.77
			c0.29,0.21,0.55,0.32,0.78,0.32C83.26,483.7,83.52,483.59,83.8,483.37 M79.39,483.37c0.28-0.22,0.53-0.48,0.74-0.77
			c0.21-0.29,0.32-0.54,0.32-0.75c0-0.25-0.11-0.51-0.32-0.79c-0.21-0.28-0.45-0.53-0.73-0.74c-0.27-0.21-0.54-0.32-0.81-0.32
			c-0.21,0-0.46,0.11-0.75,0.32c-0.29,0.21-0.54,0.46-0.75,0.74c-0.21,0.28-0.32,0.54-0.32,0.79c0,0.21,0.11,0.47,0.32,0.77
			c0.21,0.3,0.46,0.55,0.75,0.77c0.29,0.21,0.55,0.32,0.78,0.32C78.86,483.7,79.11,483.59,79.39,483.37 M83.62,495.66h-4.75
			c-0.48,0-0.83-0.09-1.06-0.28c-0.23-0.18-0.34-0.48-0.34-0.88v-3.01c0-0.41,0.12-0.7,0.34-0.89c0.23-0.18,0.58-0.28,1.06-0.28
			h4.75V495.66z M80,486.79c-1.2,0-2.18,0.08-2.96,0.25c-0.77,0.17-1.37,0.48-1.8,0.92c-0.42,0.45-0.71,1.08-0.87,1.89
			c-0.16,0.81-0.24,1.86-0.24,3.14c0,1.28,0.08,2.33,0.24,3.14c0.16,0.81,0.45,1.44,0.87,1.89s1.02,0.76,1.8,0.92
			c0.78,0.17,1.76,0.25,2.96,0.25h6.79v-12.41H80z M86.73,499.2h2.69v-3.54h-2.69V499.2z"/>
		<path style="clip-path:url(#SVGID_00000142172830342101469220000009911805940992945318_);fill:#FFFFFF;" d="M257.88,459.64
			c0.42-0.03,0.91-0.04,1.45-0.04c0.63,0,1.27,0.04,1.92,0.12c0.64,0.08,1.35,0.21,2.12,0.38l0.5-3.35
			c-0.49-0.16-1.01-0.29-1.54-0.4c-0.54-0.11-1.09-0.18-1.65-0.24c-0.56-0.05-1.14-0.08-1.72-0.08c-1.06,0-1.93,0.11-2.63,0.32
			c-0.7,0.21-1.25,0.56-1.66,1.04c-0.41,0.49-0.71,1.13-0.89,1.93c-0.18,0.8-0.26,1.8-0.26,3c0,1.21,0.09,2.24,0.28,3.06
			s0.49,1.48,0.91,1.97c0.42,0.49,1,0.84,1.72,1.06c0.72,0.22,1.62,0.33,2.69,0.33h5.94v-3.54h-6.36c-0.67,0-1.17-0.12-1.49-0.36
			c-0.33-0.24-0.48-0.64-0.46-1.2v-3.85C257.08,459.71,257.46,459.67,257.88,459.64 M259.25,468.73l-2.38-3.54h-6.79v3.54H259.25z
			 M248.35,452.1h-3.14v13.1h-4.09v3.54h10.03v-3.54h-2.8V452.1z M242.17,468.73v-3.54h-7.34c-0.7,0-1.43-0.06-2.17-0.17
			c-0.74-0.11-1.54-0.28-2.4-0.49l-0.5,3.35c0.84,0.26,1.79,0.47,2.84,0.62c1.05,0.15,2.04,0.23,2.97,0.23H242.17z M234.47,475.89
			c1.28-0.19,2.27-0.51,2.98-0.95c0.71-0.44,1.21-1.03,1.51-1.78c0.29-0.75,0.43-1.68,0.43-2.81v-1.61h-3.14v2.51
			c0,0.37-0.15,0.66-0.46,0.86c-0.31,0.2-0.83,0.34-1.56,0.42c-0.73,0.08-1.74,0.12-3.02,0.12h-7.45c-0.11-0.42-0.18-0.86-0.22-1.31
			c-0.04-0.45-0.07-0.98-0.07-1.6c0-0.7,0.08-1.43,0.23-2.18c0.15-0.75,0.33-1.52,0.54-2.31l-3.06-0.53
			c-0.17,0.55-0.33,1.14-0.46,1.78c-0.13,0.64-0.23,1.29-0.29,1.95c-0.06,0.66-0.09,1.32-0.09,1.97c0,1.18,0.15,2.15,0.44,2.9
			c0.29,0.76,0.77,1.34,1.45,1.75c0.68,0.41,1.62,0.7,2.83,0.86c1.2,0.16,2.73,0.24,4.58,0.24
			C231.58,476.18,233.19,476.08,234.47,475.89 M210.38,452.1h-3.14v16.63h3.14V452.1z M192.53,448.95
			c-0.16-0.08-0.24-0.26-0.24-0.54v-1.74c0.39-0.18,0.79-0.31,1.2-0.4c0.41-0.09,0.85-0.15,1.31-0.18v-1.82
			c-0.91,0.03-1.72,0.18-2.4,0.42c-0.69,0.25-1.22,0.63-1.61,1.16c-0.39,0.53-0.58,1.27-0.58,2.22c0,0.37,0.02,0.68,0.07,0.94
			c0.04,0.25,0.1,0.49,0.17,0.7l-1.06,0.29v1.53l6.13-1.64v-1.56l-2.17,0.58C192.96,449.01,192.69,449.02,192.53,448.95
			 M198.84,458.46l-6.71-5.49l-2.19,2.64l5.1,4.15L198.84,458.46z M192.82,463.24l4.52-1.61l1.4,1.14c0.3,0.21,0.53,0.45,0.69,0.73
			c0.16,0.27,0.24,0.53,0.24,0.78c0,0.37-0.15,0.68-0.46,0.94c-0.31,0.26-0.81,0.38-1.52,0.38h-4.86V463.24z M193.11,459.57
			c-0.99,0.35-1.74,0.75-2.27,1.2c-0.53,0.45-0.89,0.99-1.08,1.61c-0.19,0.63-0.29,1.37-0.29,2.23c0,1.09,0.19,1.97,0.58,2.63
			c0.39,0.66,1.06,1.14,2.01,1.44c0.95,0.3,2.27,0.45,3.96,0.45c2.48,0,4.27-0.37,5.35-1.11c1.08-0.74,1.62-1.93,1.62-3.56
			c0-0.79-0.13-1.51-0.4-2.14c-0.26-0.63-0.73-1.29-1.4-1.98v-0.18c0.37-0.12,0.65-0.3,0.83-0.54s0.31-0.57,0.37-1.02
			c0.06-0.44,0.09-1.01,0.09-1.72v-4.78h-3.14v5.28L193.11,459.57z M182.5,452.9c0.28-0.22,0.53-0.48,0.74-0.77
			c0.21-0.29,0.32-0.54,0.32-0.75c0-0.25-0.11-0.51-0.32-0.79c-0.21-0.28-0.45-0.53-0.73-0.74c-0.27-0.21-0.54-0.32-0.8-0.32
			c-0.21,0-0.46,0.11-0.75,0.32c-0.29,0.21-0.54,0.46-0.75,0.74c-0.21,0.28-0.32,0.55-0.32,0.79c0,0.21,0.11,0.47,0.32,0.77
			c0.21,0.3,0.46,0.55,0.75,0.77c0.29,0.21,0.55,0.32,0.78,0.32C181.96,453.23,182.22,453.13,182.5,452.9 M178.09,452.9
			c0.28-0.22,0.53-0.48,0.74-0.77s0.32-0.54,0.32-0.75c0-0.25-0.11-0.51-0.32-0.79s-0.45-0.53-0.73-0.74
			c-0.27-0.21-0.54-0.32-0.8-0.32c-0.21,0-0.46,0.11-0.75,0.32c-0.29,0.21-0.54,0.46-0.75,0.74s-0.32,0.55-0.32,0.79
			c0,0.21,0.11,0.47,0.32,0.77c0.21,0.3,0.46,0.55,0.75,0.77c0.29,0.21,0.55,0.32,0.78,0.32
			C177.55,453.23,177.81,453.13,178.09,452.9 M176.66,465.2v-4.41c0-0.48,0.08-0.8,0.24-0.96c0.16-0.17,0.46-0.25,0.9-0.25h4.49
			v4.46c0,0.44-0.08,0.74-0.24,0.91c-0.16,0.17-0.45,0.25-0.87,0.25H176.66z M169.72,468.73h15.71v-11.8
			c-1-0.34-1.95-0.57-2.85-0.71c-0.9-0.14-1.92-0.21-3.06-0.21c-1.16,0-2.14,0.1-2.93,0.29c-0.79,0.19-1.43,0.5-1.9,0.92
			c-0.48,0.42-0.82,0.97-1.03,1.65c-0.21,0.68-0.32,1.5-0.32,2.47c0,0.88,0.03,1.6,0.09,2.17c0.06,0.56,0.16,1.13,0.3,1.69h-4.01
			V468.73z M157.43,470.04c-0.04-0.52-0.06-1.13-0.06-1.83c0-0.84,0.06-1.71,0.17-2.6c0.11-0.89,0.28-1.81,0.49-2.76l-2.96-0.5
			c-0.18,0.63-0.33,1.31-0.46,2.03c-0.13,0.72-0.23,1.46-0.29,2.22s-0.09,1.51-0.09,2.24c0,1.25,0.09,2.28,0.28,3.09
			c0.18,0.81,0.52,1.44,1,1.9c0.48,0.46,1.16,0.78,2.03,0.96c0.87,0.18,1.99,0.28,3.37,0.28c1.49,0,2.71-0.09,3.64-0.26
			c0.93-0.18,1.65-0.48,2.15-0.92c0.5-0.44,0.84-1.05,1.03-1.83c0.18-0.78,0.28-1.76,0.28-2.95v-17.11h-3.14v18.11
			c0,0.56-0.24,0.94-0.71,1.12c-0.48,0.18-1.26,0.28-2.35,0.28h-4.15C157.55,471.05,157.47,470.56,157.43,470.04 M168,468.73h2.77
			v-3.54H168V468.73z M135.16,448.23c0.28-0.22,0.53-0.48,0.74-0.77c0.21-0.29,0.32-0.54,0.32-0.75c0-0.25-0.11-0.51-0.32-0.79
			c-0.21-0.28-0.45-0.53-0.73-0.74c-0.27-0.21-0.54-0.32-0.8-0.32c-0.21,0-0.46,0.11-0.75,0.32c-0.29,0.21-0.54,0.46-0.75,0.74
			c-0.21,0.28-0.32,0.55-0.32,0.79c0,0.21,0.11,0.47,0.32,0.77c0.21,0.3,0.46,0.55,0.75,0.77c0.29,0.21,0.55,0.32,0.78,0.32
			C134.62,448.56,134.87,448.45,135.16,448.23 M137.37,452.9c0.28-0.22,0.53-0.48,0.74-0.77c0.21-0.29,0.32-0.54,0.32-0.75
			c0-0.25-0.11-0.51-0.32-0.79c-0.21-0.28-0.45-0.53-0.73-0.74c-0.27-0.21-0.54-0.32-0.8-0.32c-0.21,0-0.46,0.11-0.75,0.32
			c-0.29,0.21-0.54,0.46-0.75,0.74c-0.21,0.28-0.32,0.55-0.32,0.79c0,0.21,0.11,0.47,0.32,0.77c0.21,0.3,0.46,0.55,0.75,0.77
			c0.29,0.21,0.55,0.32,0.78,0.32C136.84,453.23,137.09,453.13,137.37,452.9 M132.96,452.9c0.28-0.22,0.53-0.48,0.74-0.77
			s0.32-0.54,0.32-0.75c0-0.25-0.11-0.51-0.32-0.79s-0.45-0.53-0.73-0.74c-0.27-0.21-0.54-0.32-0.8-0.32
			c-0.21,0-0.46,0.11-0.75,0.32c-0.29,0.21-0.54,0.46-0.75,0.74c-0.21,0.28-0.32,0.55-0.32,0.79c0,0.21,0.11,0.47,0.32,0.77
			c0.21,0.3,0.46,0.55,0.75,0.77c0.29,0.21,0.55,0.32,0.78,0.32C132.43,453.23,132.68,453.13,132.96,452.9 M127.16,458.7h-3.14v6.5
			h-4.09v3.54h7.23V458.7z M132.77,468.47c0.84-0.18,1.47-0.48,1.92-0.91c0.44-0.43,0.74-1.03,0.9-1.8
			c0.16-0.77,0.24-1.74,0.24-2.92v-4.15h-3.14v5.1c0,0.56-0.16,0.94-0.49,1.12c-0.32,0.18-0.83,0.28-1.52,0.28h-3.51v3.54h2.35
			C130.84,468.73,131.93,468.65,132.77,468.47 M142.02,468.11c0.86-0.41,1.49-1.12,1.87-2.12c0.39-1,0.58-2.4,0.58-4.2
			c0-0.58-0.03-1.19-0.08-1.84c-0.05-0.64-0.14-1.28-0.25-1.9c-0.11-0.63-0.25-1.19-0.41-1.7l-3.12,0.48
			c0.21,0.9,0.38,1.78,0.51,2.64c0.13,0.86,0.2,1.69,0.2,2.48c0,0.69-0.02,1.29-0.05,1.81c-0.04,0.52-0.11,1-0.21,1.44h-3.25
			c-0.67,0-1.17-0.09-1.51-0.28c-0.34-0.18-0.5-0.56-0.5-1.12v-5.1h-3.14v4.15c0,1.18,0.08,2.15,0.25,2.92
			c0.17,0.77,0.46,1.36,0.89,1.8c0.42,0.43,1.02,0.74,1.8,0.91c0.77,0.18,1.78,0.26,3.01,0.26
			C140.02,468.73,141.16,468.53,142.02,468.11 M109.89,465.86h-4.38v-2.59c0-0.32,0.09-0.55,0.28-0.69
			c0.18-0.14,0.46-0.21,0.83-0.21h3.27V465.86z M112.66,465.86c0-1.34-0.07-2.41-0.2-3.21c-0.13-0.8-0.38-1.4-0.74-1.81
			c-0.36-0.4-0.87-0.68-1.53-0.82c-0.66-0.14-1.51-0.21-2.55-0.21c-1.02,0-1.85,0.07-2.48,0.21c-0.63,0.14-1.13,0.41-1.48,0.82
			c-0.35,0.4-0.6,1.01-0.73,1.81c-0.13,0.8-0.2,1.87-0.2,3.21H112.66z M119.13,468.73v-2.75l-1.56-6.23
			c-0.39-1.6-0.99-2.86-1.8-3.78c-0.81-0.92-1.91-1.56-3.29-1.94c-1.38-0.38-3.15-0.57-5.29-0.57l-0.18,3.43
			c1.65,0,2.99,0.14,4.01,0.41c1.02,0.27,1.82,0.71,2.39,1.31c0.57,0.6,0.98,1.39,1.23,2.38l1.06,4.2h-15.68v3.54H119.13z
			 M117.44,468.76h3.54v-3.56h-3.54V468.76z M101.07,468.73v-3.54h-2.8v-13.1h-3.14v16.63H101.07z M91.56,468.73v-2.75
			c-0.46-1.78-0.89-3.27-1.28-4.48c-0.4-1.2-0.8-2.19-1.23-2.94c-0.42-0.76-0.89-1.34-1.41-1.74c-0.52-0.4-1.13-0.68-1.82-0.83
			c-0.69-0.15-1.52-0.22-2.47-0.22c-0.56,0-1.15,0.03-1.76,0.11c-0.61,0.07-1.17,0.17-1.68,0.29l0.87,3.46
			c0.37-0.11,0.78-0.18,1.24-0.24c0.46-0.05,0.9-0.08,1.32-0.08c0.6,0,1.11,0.08,1.54,0.24c0.43,0.16,0.81,0.45,1.12,0.88
			c0.32,0.43,0.61,1.03,0.88,1.8c0.27,0.77,0.57,1.75,0.89,2.97H79.5v3.54H91.56z M73.87,452.9c0.28-0.22,0.53-0.48,0.74-0.77
			s0.32-0.54,0.32-0.75c0-0.25-0.11-0.51-0.32-0.79s-0.45-0.53-0.73-0.74c-0.27-0.21-0.54-0.32-0.81-0.32
			c-0.21,0-0.46,0.11-0.75,0.32c-0.29,0.21-0.54,0.46-0.75,0.74s-0.32,0.55-0.32,0.79c0,0.21,0.11,0.47,0.32,0.77
			c0.21,0.3,0.46,0.55,0.75,0.77c0.29,0.21,0.55,0.32,0.78,0.32C73.34,453.23,73.59,453.13,73.87,452.9 M69.46,452.9
			c0.28-0.22,0.53-0.48,0.74-0.77s0.32-0.54,0.32-0.75c0-0.25-0.11-0.51-0.32-0.79s-0.45-0.53-0.73-0.74
			c-0.27-0.21-0.54-0.32-0.81-0.32c-0.21,0-0.46,0.11-0.75,0.32c-0.29,0.21-0.54,0.46-0.75,0.74s-0.32,0.55-0.32,0.79
			c0,0.21,0.11,0.47,0.32,0.77c0.21,0.3,0.46,0.55,0.75,0.77c0.29,0.21,0.55,0.32,0.78,0.32S69.18,453.13,69.46,452.9 M73.56,465.2
			H68.8c-0.48,0-0.83-0.09-1.06-0.28c-0.23-0.18-0.34-0.48-0.34-0.88v-3.01c0-0.4,0.11-0.7,0.34-0.89c0.23-0.18,0.58-0.28,1.06-0.28
			h4.75V465.2z M69.94,456.32c-1.2,0-2.18,0.08-2.96,0.25c-0.77,0.17-1.37,0.48-1.8,0.92c-0.42,0.45-0.71,1.08-0.87,1.89
			c-0.16,0.81-0.24,1.86-0.24,3.14s0.08,2.33,0.24,3.14c0.16,0.81,0.45,1.44,0.87,1.89c0.42,0.45,1.02,0.76,1.8,0.92
			c0.77,0.17,1.76,0.25,2.96,0.25h6.79v-12.41H69.94z"/>
		<path style="clip-path:url(#SVGID_00000142172830342101469220000009911805940992945318_);fill:#6EC3BF;" d="M248.45,127.39h-3.14
			v16.63h3.14V127.39z M240.8,127.39h-3.14v13.1h-4.09v3.54h7.23V127.39z M233.24,128.19c0.28-0.22,0.53-0.48,0.74-0.77
			c0.21-0.29,0.32-0.54,0.32-0.75c0-0.25-0.11-0.51-0.32-0.79c-0.21-0.28-0.45-0.53-0.73-0.74c-0.27-0.21-0.54-0.32-0.8-0.32
			c-0.21,0-0.46,0.11-0.75,0.32c-0.29,0.21-0.54,0.46-0.75,0.74c-0.21,0.28-0.32,0.55-0.32,0.79c0,0.21,0.11,0.47,0.32,0.77
			c0.21,0.3,0.46,0.55,0.75,0.77c0.29,0.21,0.55,0.32,0.78,0.32C232.71,128.52,232.96,128.41,233.24,128.19 M228.84,128.19
			c0.28-0.22,0.53-0.48,0.74-0.77c0.21-0.29,0.32-0.54,0.32-0.75c0-0.25-0.11-0.51-0.32-0.79c-0.21-0.28-0.45-0.53-0.73-0.74
			c-0.27-0.21-0.54-0.32-0.8-0.32c-0.21,0-0.46,0.11-0.75,0.32c-0.29,0.21-0.54,0.46-0.75,0.74c-0.21,0.28-0.32,0.55-0.32,0.79
			c0,0.21,0.11,0.47,0.32,0.77c0.21,0.3,0.46,0.55,0.75,0.77c0.29,0.21,0.55,0.32,0.78,0.32
			C228.3,128.52,228.55,128.41,228.84,128.19 M231.82,131.61h-3.14v8.87h-4.09v3.54h10.03v-3.54h-2.8V131.61z M224.06,144.02v-2.75
			c-0.46-1.78-0.89-3.27-1.28-4.47c-0.4-1.21-0.8-2.19-1.23-2.95c-0.42-0.76-0.89-1.34-1.41-1.74c-0.52-0.4-1.13-0.68-1.82-0.83
			c-0.69-0.15-1.52-0.22-2.47-0.22c-0.56,0-1.15,0.03-1.76,0.11s-1.17,0.17-1.68,0.29l0.87,3.46c0.37-0.11,0.78-0.18,1.24-0.24
			c0.46-0.05,0.9-0.08,1.32-0.08c0.6,0,1.11,0.08,1.54,0.24c0.43,0.16,0.81,0.45,1.12,0.89c0.32,0.43,0.61,1.03,0.88,1.8
			c0.27,0.77,0.57,1.75,0.89,2.97h-8.29v3.54H224.06z M223.26,144.02h2.38v-3.54h-2.38V144.02z M207.3,149.47
			c0.66-0.66,1.15-1.46,1.45-2.4c0.31-0.94,0.46-2.08,0.46-3.42v-12.04h-3.14v12.04c0,0.93-0.08,1.69-0.23,2.27
			c-0.15,0.58-0.41,1.06-0.79,1.43c-0.38,0.37-0.91,0.71-1.6,1.03l1.19,2.83C205.76,150.71,206.64,150.13,207.3,149.47
			 M200.37,149.16c0.28-0.22,0.53-0.48,0.74-0.77c0.21-0.29,0.32-0.54,0.32-0.75c0-0.25-0.11-0.51-0.32-0.79
			c-0.21-0.28-0.45-0.53-0.73-0.74c-0.27-0.21-0.54-0.32-0.8-0.32c-0.21,0-0.46,0.11-0.75,0.32c-0.29,0.21-0.54,0.46-0.75,0.74
			c-0.21,0.28-0.32,0.55-0.32,0.79c0,0.21,0.11,0.47,0.32,0.77c0.21,0.3,0.46,0.55,0.75,0.77c0.29,0.21,0.55,0.32,0.78,0.32
			C199.83,149.49,200.09,149.38,200.37,149.16 M195.96,149.16c0.28-0.22,0.53-0.48,0.74-0.77c0.21-0.29,0.32-0.54,0.32-0.75
			c0-0.25-0.11-0.51-0.32-0.79c-0.21-0.28-0.45-0.53-0.73-0.74c-0.27-0.21-0.54-0.32-0.8-0.32c-0.21,0-0.46,0.11-0.75,0.32
			c-0.29,0.21-0.54,0.46-0.75,0.74c-0.21,0.28-0.32,0.55-0.32,0.79c0,0.21,0.11,0.47,0.32,0.77c0.21,0.3,0.46,0.55,0.75,0.77
			c0.29,0.21,0.55,0.32,0.78,0.32C195.42,149.49,195.68,149.38,195.96,149.16 M200.58,144.02v-12.41h-3.14v8.87h-4.09v3.54H200.58z
			 M182.63,149.63c0.28-0.22,0.53-0.48,0.74-0.77c0.21-0.29,0.32-0.54,0.32-0.75c0-0.25-0.11-0.51-0.32-0.79
			c-0.21-0.28-0.45-0.53-0.73-0.74c-0.27-0.21-0.54-0.32-0.81-0.32c-0.21,0-0.46,0.11-0.75,0.32c-0.29,0.21-0.54,0.46-0.75,0.74
			c-0.21,0.28-0.32,0.55-0.32,0.79c0,0.21,0.11,0.47,0.32,0.77s0.46,0.55,0.75,0.77c0.29,0.21,0.55,0.32,0.78,0.32
			C182.09,149.96,182.35,149.85,182.63,149.63 M191.61,144.02v-12.41h-3.14v8.87h-13.33c-0.14-0.42-0.24-0.87-0.3-1.33
			c-0.06-0.47-0.09-1.01-0.09-1.62c0-0.58,0.06-1.17,0.17-1.78c0.11-0.61,0.28-1.24,0.49-1.89l-3.01-0.5
			c-0.25,0.74-0.44,1.55-0.58,2.42c-0.14,0.87-0.21,1.74-0.21,2.6c0,1.34,0.15,2.43,0.44,3.26c0.29,0.83,0.74,1.44,1.36,1.82
			c0.62,0.38,1.42,0.57,2.4,0.57H191.61z M191.21,144.02h3.19v-3.54h-3.19V144.02z M161.77,127.39h-3.14v16.63h3.14V127.39z
			 M154.11,127.39h-3.14v13.1h-4.09v3.54h7.23V127.39z M136.53,142.07c-0.25-0.39-0.44-0.79-0.58-1.21
			c-0.14-0.42-0.24-0.89-0.29-1.4c-0.05-0.51-0.08-1.1-0.08-1.77c0-0.74,0.09-1.46,0.26-2.17c0.18-0.7,0.41-1.49,0.71-2.35
			l-3.17-0.74c-0.28,0.88-0.51,1.74-0.69,2.59c-0.17,0.84-0.26,1.73-0.26,2.67c0,1.09,0.08,2.09,0.25,2.98
			c0.17,0.9,0.51,1.65,1.04,2.24L136.53,142.07z M137.69,131.41c-0.77,0.08-1.53,0.2-2.26,0.37c-0.73,0.17-1.41,0.38-2.05,0.65
			l1.24,3.06c0.83-0.23,1.67-0.4,2.52-0.5c0.85-0.11,1.67-0.16,2.44-0.16c0.51,0,0.95,0.01,1.33,0.04c0.38,0.03,0.74,0.07,1.07,0.14
			v5.47H129v3.54h16.13v-8.71c0-0.97-0.17-1.75-0.53-2.34c-0.35-0.59-0.91-1.02-1.66-1.28c-0.76-0.26-1.75-0.4-2.98-0.4
			C139.22,131.29,138.47,131.33,137.69,131.41 M145.14,144.02h2.8v-3.54h-2.8V144.02z M118.97,141.14h-4.38v-2.59
			c0-0.32,0.09-0.55,0.28-0.69s0.46-0.21,0.83-0.21h3.27V141.14z M121.74,141.14c0-1.34-0.06-2.41-0.2-3.21
			c-0.13-0.8-0.38-1.4-0.74-1.81c-0.36-0.4-0.87-0.68-1.53-0.82c-0.66-0.14-1.51-0.21-2.55-0.21c-1.02,0-1.85,0.07-2.48,0.21
			c-0.63,0.14-1.13,0.41-1.48,0.82c-0.35,0.4-0.59,1.01-0.73,1.81c-0.13,0.8-0.2,1.87-0.2,3.21H121.74z M128.21,144.02v-2.75
			l-1.56-6.23c-0.39-1.6-0.99-2.86-1.8-3.78c-0.81-0.92-1.91-1.56-3.29-1.94c-1.38-0.38-3.15-0.57-5.29-0.57l-0.18,3.43
			c1.66,0,2.99,0.14,4.01,0.41c1.02,0.27,1.82,0.71,2.39,1.31c0.57,0.6,0.98,1.39,1.23,2.38l1.06,4.2H109.1v3.54H128.21z
			 M126.52,144.05h3.54v-3.56h-3.54V144.05z M106.56,128.19c0.28-0.22,0.53-0.48,0.74-0.77c0.21-0.29,0.32-0.54,0.32-0.75
			c0-0.25-0.11-0.51-0.32-0.79c-0.21-0.28-0.45-0.53-0.73-0.74c-0.27-0.21-0.54-0.32-0.81-0.32c-0.21,0-0.46,0.11-0.75,0.32
			c-0.29,0.21-0.54,0.46-0.75,0.74c-0.21,0.28-0.32,0.55-0.32,0.79c0,0.21,0.11,0.47,0.32,0.77c0.21,0.3,0.46,0.55,0.75,0.77
			c0.29,0.21,0.55,0.32,0.78,0.32C106.02,128.52,106.28,128.41,106.56,128.19 M107.35,131.61h-3.14v8.87h-4.09v3.54h10.03v-3.54
			h-2.8V131.61z M92.07,156.1c0.28-0.22,0.53-0.47,0.74-0.76c0.21-0.29,0.32-0.54,0.32-0.75c0-0.25-0.11-0.51-0.32-0.79
			c-0.21-0.28-0.45-0.53-0.73-0.74c-0.27-0.21-0.54-0.32-0.8-0.32c-0.21,0-0.46,0.11-0.75,0.32c-0.29,0.21-0.54,0.46-0.75,0.74
			c-0.21,0.28-0.32,0.55-0.32,0.79c0,0.21,0.11,0.47,0.32,0.77c0.21,0.3,0.46,0.55,0.75,0.77c0.29,0.21,0.55,0.32,0.78,0.32
			C91.53,156.43,91.78,156.32,92.07,156.1 M87.66,156.1c0.28-0.22,0.53-0.47,0.74-0.76c0.21-0.29,0.32-0.54,0.32-0.75
			c0-0.25-0.11-0.51-0.32-0.79c-0.21-0.28-0.45-0.53-0.73-0.74c-0.27-0.21-0.54-0.32-0.81-0.32c-0.21,0-0.46,0.11-0.75,0.32
			c-0.29,0.21-0.54,0.46-0.75,0.74c-0.21,0.28-0.32,0.55-0.32,0.79c0,0.21,0.11,0.47,0.32,0.77c0.21,0.3,0.46,0.55,0.75,0.77
			c0.29,0.21,0.55,0.32,0.78,0.32C87.12,156.43,87.38,156.32,87.66,156.1 M101.18,144.02v-3.54h-7.34c-0.7,0-1.43-0.06-2.17-0.17
			c-0.74-0.12-1.54-0.28-2.4-0.49l-0.5,3.35c0.84,0.26,1.79,0.47,2.84,0.62c1.05,0.15,2.04,0.22,2.97,0.22H101.18z M93.48,151.18
			c1.28-0.19,2.27-0.51,2.98-0.95c0.71-0.44,1.21-1.03,1.5-1.78c0.29-0.75,0.43-1.69,0.43-2.81v-1.61h-3.14v2.51
			c0,0.37-0.15,0.66-0.46,0.86c-0.31,0.2-0.83,0.34-1.56,0.42c-0.73,0.08-1.74,0.12-3.02,0.12h-7.45c-0.11-0.42-0.18-0.86-0.23-1.31
			c-0.04-0.45-0.07-0.98-0.07-1.6c0-0.7,0.07-1.43,0.22-2.18c0.15-0.75,0.33-1.52,0.54-2.31l-3.06-0.53
			c-0.17,0.55-0.33,1.14-0.46,1.78c-0.13,0.64-0.23,1.29-0.29,1.95c-0.06,0.66-0.09,1.32-0.09,1.97c0,1.18,0.15,2.15,0.44,2.9
			c0.29,0.76,0.77,1.34,1.45,1.76c0.68,0.41,1.62,0.7,2.83,0.86c1.21,0.16,2.73,0.24,4.58,0.24
			C90.59,151.47,92.2,151.37,93.48,151.18"/>
		<path style="clip-path:url(#SVGID_00000142172830342101469220000009911805940992945318_);fill:#6EC3BF;" d="M253.63,96.92h-3.14
			v16.63h3.14V96.92z M245.97,96.92h-3.14v13.1h-4.09v3.54h7.23V96.92z M236.2,97.73c0.28-0.22,0.53-0.48,0.74-0.77
			c0.21-0.29,0.32-0.54,0.32-0.75c0-0.25-0.11-0.51-0.32-0.79c-0.21-0.28-0.45-0.53-0.73-0.74c-0.27-0.21-0.54-0.32-0.8-0.32
			c-0.21,0-0.46,0.11-0.75,0.32c-0.29,0.21-0.54,0.46-0.75,0.74c-0.21,0.28-0.32,0.55-0.32,0.79c0,0.21,0.11,0.47,0.32,0.77
			c0.21,0.3,0.46,0.55,0.75,0.77c0.29,0.21,0.55,0.32,0.78,0.32C235.66,98.06,235.92,97.95,236.2,97.73 M236.99,101.15h-3.14v8.87
			h-4.09v3.54h10.03v-3.54h-2.8V101.15z M223.21,97.73c0.28-0.22,0.53-0.48,0.74-0.77c0.21-0.29,0.32-0.54,0.32-0.75
			c0-0.25-0.11-0.51-0.32-0.79c-0.21-0.28-0.45-0.53-0.73-0.74c-0.27-0.21-0.54-0.32-0.81-0.32c-0.21,0-0.46,0.11-0.75,0.32
			c-0.29,0.21-0.54,0.46-0.75,0.74c-0.21,0.28-0.32,0.55-0.32,0.79c0,0.21,0.11,0.47,0.32,0.77c0.21,0.3,0.46,0.55,0.75,0.77
			c0.29,0.21,0.55,0.32,0.78,0.32C222.67,98.06,222.93,97.95,223.21,97.73 M228.02,113.56v-8.61c0-1.04-0.14-1.85-0.43-2.44
			c-0.29-0.59-0.79-1.01-1.49-1.25c-0.7-0.25-1.67-0.37-2.9-0.37c-1.3,0-2.5,0.18-3.59,0.53c-1.09,0.35-2.03,0.85-2.81,1.51
			c-0.78,0.65-1.37,1.43-1.76,2.35v-8.34h-3.14v14.31h3.14c0-2.29,0.56-4,1.69-5.12c1.13-1.13,2.83-1.69,5.1-1.69
			c1.43,0,2.45,0.1,3.06,0.29v8.85H228.02z M207.79,113.56h23.02v-3.54h-23.02V113.56z M208.85,113.56v-3.54h-2.8v-13.1h-3.14v16.63
			H208.85z M189.86,111.6c-0.25-0.39-0.44-0.79-0.58-1.21c-0.14-0.42-0.24-0.89-0.29-1.4c-0.05-0.51-0.08-1.1-0.08-1.77
			c0-0.74,0.09-1.46,0.26-2.17c0.18-0.7,0.41-1.49,0.71-2.35l-3.17-0.74c-0.28,0.88-0.51,1.74-0.69,2.59
			c-0.17,0.84-0.26,1.73-0.26,2.67c0,1.09,0.08,2.09,0.25,2.98c0.17,0.9,0.51,1.65,1.04,2.24L189.86,111.6z M187.06,121.85
			c-0.28-1.09-0.48-1.99-0.61-2.71c-0.12-0.71-0.18-1.37-0.18-1.97c0-0.79,0.03-1.47,0.09-2.05c0.06-0.57,0.16-1.1,0.3-1.57h11.8
			v-8.71c0-0.97-0.17-1.75-0.53-2.34c-0.35-0.59-0.91-1.02-1.66-1.28c-0.76-0.26-1.75-0.4-2.98-0.4c-1.18,0-2.34,0.1-3.47,0.3
			c-1.14,0.2-2.17,0.48-3.1,0.83l1.24,3.06c0.83-0.23,1.67-0.4,2.52-0.5c0.85-0.11,1.67-0.16,2.44-0.16c1.06,0,1.86,0.06,2.4,0.18
			v5.47h-8.32c-0.91,0-1.66,0.22-2.23,0.66c-0.57,0.44-0.99,1.13-1.26,2.06c-0.26,0.93-0.4,2.17-0.4,3.7c0,0.69,0.04,1.38,0.11,2.09
			c0.07,0.7,0.17,1.38,0.29,2.03c0.12,0.65,0.27,1.26,0.45,1.82L187.06,121.85z M174.63,96.92h-3.14v16.63h3.14V96.92z
			 M166.97,96.92h-3.14v13.1h-4.09v3.54h7.23V96.92z M149.39,111.6c-0.25-0.39-0.44-0.79-0.58-1.21c-0.14-0.42-0.24-0.89-0.29-1.4
			c-0.05-0.51-0.08-1.1-0.08-1.77c0-0.74,0.09-1.46,0.26-2.17c0.17-0.7,0.41-1.49,0.71-2.35l-3.17-0.74
			c-0.28,0.88-0.51,1.74-0.69,2.59c-0.18,0.84-0.26,1.73-0.26,2.67c0,1.09,0.08,2.09,0.25,2.98c0.17,0.9,0.52,1.65,1.04,2.24
			L149.39,111.6z M150.55,100.95c-0.78,0.08-1.53,0.2-2.26,0.37c-0.73,0.17-1.41,0.38-2.05,0.65l1.24,3.06
			c0.83-0.23,1.67-0.4,2.52-0.5c0.85-0.11,1.67-0.16,2.44-0.16c0.51,0,0.95,0.01,1.33,0.04c0.38,0.03,0.74,0.07,1.07,0.14v5.47
			h-12.99v3.54H158v-8.71c0-0.97-0.18-1.75-0.53-2.34c-0.35-0.59-0.91-1.02-1.66-1.28c-0.76-0.26-1.75-0.4-2.98-0.4
			C152.08,100.83,151.32,100.87,150.55,100.95 M158,113.56h2.8v-3.54H158V113.56z M139.33,97.73c0.28-0.22,0.53-0.48,0.74-0.77
			c0.21-0.29,0.32-0.54,0.32-0.75c0-0.25-0.11-0.51-0.32-0.79c-0.21-0.28-0.45-0.53-0.73-0.74c-0.27-0.21-0.54-0.32-0.8-0.32
			c-0.21,0-0.46,0.11-0.75,0.32c-0.29,0.21-0.54,0.46-0.75,0.74c-0.21,0.28-0.32,0.55-0.32,0.79c0,0.21,0.11,0.47,0.32,0.77
			c0.21,0.3,0.46,0.55,0.75,0.77c0.29,0.21,0.55,0.32,0.78,0.32C138.79,98.06,139.05,97.95,139.33,97.73 M138.26,119.01
			c0.66-0.66,1.14-1.46,1.45-2.4c0.31-0.94,0.46-2.08,0.46-3.42v-12.04h-3.14v12.04c0,0.93-0.08,1.69-0.23,2.27
			c-0.15,0.58-0.41,1.06-0.79,1.43c-0.38,0.37-0.91,0.71-1.6,1.03l1.19,2.83C136.71,120.24,137.6,119.67,138.26,119.01
			 M140.12,113.56h2.8v-3.54h-2.8V113.56z M132.49,113.56v-2.75c-0.46-1.78-0.89-3.27-1.28-4.47c-0.4-1.21-0.8-2.19-1.23-2.95
			c-0.42-0.76-0.89-1.34-1.41-1.74c-0.52-0.4-1.13-0.68-1.82-0.83c-0.69-0.15-1.52-0.22-2.47-0.22c-0.56,0-1.15,0.03-1.76,0.11
			c-0.61,0.07-1.17,0.17-1.68,0.29l0.87,3.46c0.37-0.11,0.78-0.18,1.24-0.24c0.46-0.05,0.9-0.08,1.32-0.08
			c0.6,0,1.11,0.08,1.54,0.24c0.43,0.16,0.81,0.45,1.12,0.89c0.32,0.43,0.61,1.03,0.88,1.8c0.27,0.77,0.57,1.75,0.89,2.97h-8.29
			v3.54H132.49z M114.2,118.47c0.7-0.86,1.3-1.77,1.81-2.73c0.51-0.96,0.91-1.93,1.2-2.9c0.29-0.98,0.44-1.92,0.44-2.81h-3.17
			c0,0.69-0.12,1.41-0.34,2.17c-0.23,0.76-0.55,1.51-0.98,2.26c-0.42,0.75-0.92,1.46-1.48,2.15c-0.56,0.69-1.18,1.3-1.85,1.85
			l2.06,2.38C112.74,120.11,113.51,119.33,114.2,118.47 M108.86,110.02v-4.44c0-0.48,0.1-0.8,0.29-0.96
			c0.19-0.17,0.56-0.25,1.11-0.25h4.22v4.49c0,0.44-0.08,0.74-0.24,0.91c-0.16,0.17-0.45,0.25-0.87,0.25H108.86z M115.99,113.56
			l1.66-3.54v-8.26c-0.92-0.34-1.82-0.57-2.72-0.71c-0.9-0.14-1.97-0.21-3.22-0.21c-1.15,0-2.11,0.11-2.9,0.32
			c-0.79,0.21-1.43,0.56-1.9,1.04c-0.48,0.48-0.82,1.13-1.04,1.93c-0.22,0.8-0.33,1.79-0.33,2.97c0,1.2,0.09,2.21,0.26,3.05
			c0.17,0.83,0.45,1.5,0.82,2.01c0.37,0.5,0.86,0.86,1.48,1.08c0.62,0.22,1.36,0.33,2.24,0.33H115.99z M98.43,115.42
			c0.28-0.22,0.53-0.48,0.74-0.77c0.21-0.29,0.32-0.54,0.32-0.75c0-0.25-0.11-0.51-0.32-0.79c-0.21-0.28-0.45-0.53-0.73-0.74
			c-0.27-0.21-0.54-0.32-0.8-0.32c-0.21,0-0.46,0.11-0.75,0.32c-0.29,0.21-0.54,0.46-0.75,0.74c-0.21,0.28-0.32,0.55-0.32,0.79
			c0,0.21,0.11,0.47,0.32,0.77c0.21,0.3,0.46,0.55,0.75,0.77c0.29,0.21,0.55,0.32,0.78,0.32C97.89,115.75,98.15,115.64,98.43,115.42
			 M100.84,109.21c0.8,0.43,1.92,0.65,3.37,0.65v-3.14h-1.48c-0.49-1.39-1.12-2.52-1.89-3.38s-1.72-1.5-2.85-1.9
			c-1.14-0.4-2.5-0.61-4.1-0.61c-0.48,0-0.99,0.02-1.53,0.05c-0.55,0.03-1.16,0.09-1.85,0.16l0.48,3.49
			c0.46-0.07,0.88-0.11,1.28-0.13c0.4-0.02,0.78-0.03,1.15-0.03c1.44,0,2.62,0.22,3.52,0.65c0.91,0.43,1.6,1.1,2.07,2.02
			C99.43,108.06,100.04,108.78,100.84,109.21 M99.22,120.92c1.04-0.14,1.95-0.34,2.75-0.58l-0.4-3.35
			c-0.92,0.21-1.74,0.37-2.48,0.46c-0.74,0.1-1.5,0.14-2.27,0.14c-0.62,0-1.22-0.02-1.81-0.06c-0.59-0.04-1.09-0.09-1.49-0.15v-4.04
			c0-0.83,0.37-1.5,1.11-2.01c0.74-0.51,1.89-0.88,3.46-1.12c1.57-0.24,3.61-0.36,6.13-0.36l-1.48-3.14c-2.98,0-5.38,0.27-7.21,0.8
			c-1.83,0.54-3.16,1.39-3.97,2.56c-0.82,1.17-1.23,2.72-1.23,4.66c0,1.23,0.09,2.26,0.28,3.09c0.18,0.83,0.49,1.48,0.9,1.95
			c0.41,0.48,0.98,0.82,1.7,1.03c0.72,0.21,1.63,0.32,2.72,0.32C97.08,121.13,98.18,121.06,99.22,120.92 M83.12,96h-1.08
			c-0.3,0-0.53,0.04-0.69,0.13c-0.16,0.09-0.31,0.26-0.45,0.53l-8.45,17.95h1.08c0.3,0,0.53-0.04,0.7-0.13
			c0.17-0.09,0.31-0.26,0.43-0.53L83.12,96z"/>
		<path style="clip-path:url(#SVGID_00000142172830342101469220000009911805940992945318_);fill:#FFFFFF;" d="M216.85,315.89v-13.01
			h-1.86l-2.54,2.19v2.07l2.54-2.23v10.98H216.85z M201.54,306.69c0,1.28-0.9,2.03-2.21,2.03h-2.92v-4.08h2.92
			C200.64,304.64,201.54,305.41,201.54,306.69 M203.91,315.89l-3-5.76c1.46-0.4,2.59-1.59,2.59-3.45c0-2.21-1.57-3.8-4.04-3.8h-5.04
			v13.01h1.97v-5.48h2.47l2.74,5.48H203.91z M189.56,315.89v-13.01h-1.97v5.56h-5.28v-5.56h-1.97v13.01h1.97v-5.68h5.28v5.68H189.56
			z M173.48,311.6h-4l2.03-5.78L173.48,311.6z M177.02,315.89l-4.77-13.01h-1.59l-4.77,13.01h2.1l0.9-2.61h5.14l0.9,2.61H177.02z
			 M162.95,311.78v-8.9h-1.97v8.76c0,1.7-0.9,2.6-2.36,2.6c-0.95,0-1.39-0.33-1.85-0.79l-1.32,1.3c0.9,0.9,1.83,1.26,3.16,1.26
			C161.01,316,162.95,314.48,162.95,311.78 M149.6,301.52h-1.79l-5.21,15.72h1.79L149.6,301.52z M129.89,308.41
			c0.35-0.03,0.74-0.04,1.18-0.04c0.51,0,1.04,0.04,1.58,0.11c0.54,0.08,1.11,0.19,1.71,0.34l0.32-2.11
			c-0.34-0.12-0.71-0.23-1.13-0.31c-0.41-0.09-0.84-0.16-1.27-0.2c-0.43-0.05-0.87-0.07-1.3-0.07c-0.83,0-1.5,0.08-2.03,0.23
			c-0.53,0.16-0.94,0.41-1.25,0.77c-0.3,0.36-0.52,0.85-0.64,1.47c-0.12,0.62-0.18,1.4-0.18,2.34c0,0.95,0.06,1.74,0.19,2.38
			c0.13,0.64,0.35,1.14,0.65,1.52c0.3,0.38,0.73,0.65,1.27,0.81c0.54,0.16,1.22,0.24,2.03,0.24h4.49v-2.25h-4.83
			c-0.58,0-1.02-0.1-1.3-0.3c-0.28-0.2-0.42-0.55-0.41-1.06v-3.72C129.23,308.49,129.54,308.44,129.89,308.41 M131.07,315.89
			l-1.69-2.25h-5.22v2.25H131.07z M124.97,315.89v-2.25h-2.32v-10.54h-1.99v12.8H124.97z M110.33,314.75
			c-0.22-0.31-0.38-0.65-0.5-1.02s-0.2-0.77-0.24-1.2c-0.05-0.43-0.07-0.9-0.07-1.4c0-0.6,0.07-1.18,0.21-1.77
			c0.14-0.58,0.33-1.21,0.56-1.89l-1.95-0.53c-0.24,0.68-0.44,1.36-0.59,2.04c-0.15,0.68-0.22,1.4-0.22,2.14
			c0,0.81,0.06,1.57,0.19,2.27c0.13,0.7,0.38,1.28,0.76,1.73L110.33,314.75z M108.2,322.33c-0.22-0.83-0.37-1.52-0.46-2.07
			c-0.09-0.55-0.13-1.06-0.13-1.52c0-0.62,0.02-1.16,0.07-1.6c0.05-0.45,0.13-0.86,0.23-1.24h9v-6.93c0-0.69-0.13-1.24-0.38-1.66
			c-0.25-0.41-0.66-0.71-1.23-0.9c-0.57-0.19-1.32-0.28-2.25-0.28c-0.87,0-1.71,0.08-2.54,0.22c-0.83,0.15-1.55,0.35-2.17,0.61
			l0.79,1.91c0.58-0.16,1.2-0.28,1.86-0.37s1.28-0.12,1.86-0.12c0.88,0,1.57,0.06,2.07,0.18v5.08h-6.62c-0.65,0-1.17,0.16-1.56,0.47
			c-0.39,0.31-0.68,0.81-0.86,1.48c-0.18,0.68-0.27,1.57-0.27,2.68c0,0.51,0.03,1.04,0.08,1.56c0.05,0.53,0.13,1.04,0.22,1.52
			c0.1,0.49,0.2,0.93,0.32,1.32L108.2,322.33z"/>
	</g>
</g>
</svg>
