<?xml version="1.0" encoding="UTF-8" standalone="no"?> <svg xmlns="http://www.w3.org/2000/svg" xmlns:xlink="http://www.w3.org/1999/xlink" xmlns:serif="http://www.serif.com/" width="100%" height="100%" viewBox="0 0 673 828" version="1.1" xml:space="preserve" style="fill-rule:evenodd;clip-rule:evenodd;stroke-miterlimit:10;"> <g transform="matrix(-4.16667,0,0,4.16667,542.808,-1787.01)"> <rect x="113.386" y="516.631" width="14.173" height="59.488" style="fill:rgb(121,204,198);"></rect> </g> <g transform="matrix(-4.16667,0,0,4.16667,542.808,-2504.43)"> <rect x="113.386" y="620.409" width="14.173" height="24.114" style="fill:rgb(121,204,198);"></rect> </g> <g transform="matrix(-4.16667,0,0,4.16667,1104.95,-2080.53)"> <rect x="113.386" y="574.511" width="149.086" height="14.173" style="fill:rgb(121,204,198);"></rect> </g> <g transform="matrix(4.16667,0,0,4.16667,-461.129,-2654.33)"> <rect x="113.686" y="640.053" width="147.985" height="20.8" style="fill:rgb(121,204,198);stroke:rgb(42,44,104);stroke-width:0.6px;"></rect> </g> <g transform="matrix(4.16667,0,0,4.16667,-461.129,-741.758)"> <text x="180.436px" y="241.026px" style="font-family:'Arial-BoldMT', 'Arial', sans-serif;font-weight:700;font-size:13px;fill:rgb(42,44,104);">A<tspan x="188.47px " y="241.026px ">V</tspan></text> <text x="154.049px" y="262.726px" style="font-family:'ArialMT', 'Arial', sans-serif;font-size:9px;fill:white;">1</text> <text x="162.356px" y="262.726px" style="font-family:'ArialMT', 'Arial', sans-serif;font-size:9px;fill:white;">J<tspan x="167.322px 173.791px 180.756px " y="262.726px 262.726px 262.726px ">AHR</tspan></text> <text x="190.499px" y="262.726px" style="font-family:'ArialMT', 'Arial', sans-serif;font-size:9px;fill:white;">/</text> <text x="197.429px" y="262.726px" style="font-family:'ArialMT', 'Arial', sans-serif;font-size:9px;fill:white;">Y<tspan x="203.898px 210.367px 216.836px " y="262.726px 262.726px 262.726px ">EAR</tspan></text> </g> <g transform="matrix(4.16667,0,0,4.16667,-461.129,-741.758)"> <text x="122.278px" y="194.537px" style="font-family:'Arial-BoldMT', 'Arial', sans-serif;font-weight:700;font-size:13px;fill:white;">H<tspan x="131.502px 138.568px 146.346px 154.123px 158.288px 165.354px 172.42px 180.198px 187.975px 191.423px 198.489px 206.266px 213.332px 220.398px 228.176px 231.624px 239.401px 246.467px " y="194.537px 194.537px 194.537px 194.537px 194.537px 194.537px 194.537px 194.537px 194.537px 194.537px 194.537px 194.537px 194.537px 194.537px 194.537px 194.537px 194.537px 194.537px ">auptschulabschluss</tspan></text> </g> <g transform="matrix(-4.16667,0,0,4.16667,1107.45,-2214.89)"> <rect x="113.686" y="574.594" width="149.088" height="46.253" style="fill:none;stroke:rgb(42,44,104);stroke-width:0.6px;"></rect> </g> <g transform="matrix(-4.16667,0,0,4.16667,1133.44,-1480.4)"> <rect x="113.686" y="468.19" width="155.324" height="82.784" style="fill:rgb(121,204,198);stroke:rgb(42,44,104);stroke-width:0.6px;"></rect> </g> <g transform="matrix(4.16667,0,0,4.16667,-461.129,-741.758)"> <text x="117.527px" y="305.692px" style="font-family:'Arial-BoldMT', 'Arial', sans-serif;font-weight:700;font-size:13px;fill:rgb(42,44,104);">M<tspan x="128.225px 131.705px " y="305.692px 305.692px ">it</tspan></text> <text x="140.277px" y="305.692px" style="font-family:'Arial-BoldMT', 'Arial', sans-serif;font-weight:700;font-size:13px;fill:rgb(42,44,104);">o<tspan x="148.087px 155.896px 162.994px 167.921px 171.683px 179.492px 187.302px 195.111px 202.209px 205.488px 214.745px 222.554px 229.652px 236.75px 244.56px 248.04px 255.849px 262.947px " y="305.692px 305.692px 305.692px 305.692px 305.692px 305.692px 305.692px 305.692px 305.692px 305.692px 305.692px 305.692px 305.692px 305.692px 305.692px 305.692px 305.692px 305.692px ">der ohne Abschluss</tspan></text> <text x="141.129px" y="321.292px" style="font-family:'Arial-BoldMT', 'Arial', sans-serif;font-weight:700;font-size:13px;fill:white;">wi<tspan x="155.033px 159.452px 167.484px 171.271px " y="321.292px 321.292px 321.292px 321.292px ">th o</tspan>r</text> <text x="187.682px" y="321.292px" style="font-family:'Arial-BoldMT', 'Arial', sans-serif;font-weight:700;font-size:13px;fill:white;">wi<tspan x="201.586px 206.005px 214.037px 222.068px 230.099px " y="321.292px 321.292px 321.292px 321.292px 321.292px ">thout</tspan></text> <text x="237.329px" y="321.292px" style="font-family:'Arial-BoldMT', 'Arial', sans-serif;font-weight:700;font-size:13px;fill:white;">a</text> <text x="135.799px" y="336.892px" style="font-family:'Arial-BoldMT', 'Arial', sans-serif;font-weight:700;font-size:13px;fill:white;">general</text> <text x="186.758px" y="336.892px" style="font-family:'Arial-BoldMT', 'Arial', sans-serif;font-weight:700;font-size:13px;fill:white;">secondary</text> <text x="148.824px" y="352.492px" style="font-family:'Arial-BoldMT', 'Arial', sans-serif;font-weight:700;font-size:13px;fill:white;">s<tspan x="155.93px 163.036px 170.853px 178.67px 186.487px " y="352.492px 352.492px 352.492px 352.492px 352.492px ">chool</tspan></text> <text x="192.205px" y="352.492px" style="font-family:'Arial-BoldMT', 'Arial', sans-serif;font-weight:700;font-size:13px;fill:white;">l<tspan x="195.693px 202.799px 209.905px 217.011px 220.499px 228.316px " y="352.492px 352.492px 352.492px 352.492px 352.492px 352.492px ">eaving</tspan></text> <text x="161.395px" y="368.092px" style="font-family:'Arial-BoldMT', 'Arial', sans-serif;font-weight:700;font-size:13px;fill:white;">c<tspan x="168.755px 176.114px 181.303px 185.761px 189.502px 197.573px 204.932px 212.291px 216.75px " y="368.092px 368.092px 368.092px 368.092px 368.092px 368.092px 368.092px 368.092px 368.092px ">ertiﬁcate</tspan></text> </g> <g transform="matrix(4.16667,0,0,4.16667,31.0669,408.65)"> <path d="M0,2.345L4.691,2.345L2.345,0L0,2.345Z" style="fill:white;fill-rule:nonzero;"></path> </g> <g transform="matrix(4.16667,0,0,4.16667,31.0669,447.519)"> <path d="M0,2.345L4.691,2.345L2.345,0L0,2.345Z" style="fill:white;fill-rule:nonzero;"></path> </g> <g transform="matrix(4.16667,0,0,4.16667,31.0669,428.084)"> <path d="M0,2.345L4.691,2.345L2.345,0L0,2.345Z" style="fill:white;fill-rule:nonzero;"></path> </g> <g transform="matrix(4.16667,0,0,4.16667,31.0669,194.87)"> <path d="M0,2.345L4.691,2.345L2.345,0L0,2.345Z" style="fill:white;fill-rule:nonzero;"></path> </g> <g transform="matrix(4.16667,0,0,4.16667,31.0669,375.103)"> <path d="M0,2.345L4.691,2.345L2.345,0L0,2.345Z" style="fill:white;fill-rule:nonzero;"></path> </g> <g transform="matrix(4.16667,0,0,4.16667,31.0669,394.537)"> <path d="M0,2.345L4.691,2.345L2.345,0L0,2.345Z" style="fill:white;fill-rule:nonzero;"></path> </g> <g transform="matrix(4.16667,0,0,4.16667,31.0669,161.324)"> <path d="M0,2.345L4.691,2.345L2.345,0L0,2.345Z" style="fill:white;fill-rule:nonzero;"></path> </g> <g transform="matrix(4.16667,0,0,4.16667,31.0669,100.171)"> <path d="M0,2.345L4.691,2.345L2.345,0L0,2.345Z" style="fill:white;fill-rule:nonzero;"></path> </g> <g transform="matrix(4.16667,0,0,4.16667,31.0669,139.039)"> <path d="M0,2.345L4.691,2.345L2.345,0L0,2.345Z" style="fill:white;fill-rule:nonzero;"></path> </g> <g transform="matrix(4.16667,0,0,4.16667,31.0669,119.606)"> <path d="M0,2.345L4.691,2.345L2.345,0L0,2.345Z" style="fill:white;fill-rule:nonzero;"></path> </g> </svg> 