<?xml version="1.0" encoding="utf-8"?>
<!-- Generator: Adobe Illustrator 26.2.1, SVG Export Plug-In . SVG Version: 6.00 Build 0)  -->
<svg version="1.1" id="Ebene_1" xmlns="http://www.w3.org/2000/svg" xmlns:xlink="http://www.w3.org/1999/xlink" x="0px" y="0px"
	 viewBox="0 0 512 512" style="enable-background:new 0 0 512 512;" xml:space="preserve">
<style type="text/css">
	.st0{fill:#6EC3BF;}
	.st1{fill:#A0D5D2;}
	.st2{fill:#87CCC8;}
	.st3{fill:#FFFFFF;}
	.st4{clip-path:url(#SVGID_00000152982057407480286830000001346198608054781862_);fill:#2B2961;}
	.st5{fill:#897DA2;}
	.st6{fill:#2B2961;}
	.st7{clip-path:url(#SVGID_00000078741699447776630440000000549395332293397633_);fill:#FFFFFF;}
	.st8{clip-path:url(#SVGID_00000078741699447776630440000000549395332293397633_);fill:#2B2961;}
	.st9{clip-path:url(#SVGID_00000124154177877026563770000006956744252395243915_);fill:#FFFFFF;}
	.st10{clip-path:url(#SVGID_00000124154177877026563770000006956744252395243915_);fill:#6EC3BF;}
	.st11{fill:#9D9D9C;}
	.st12{fill:#D0D0D0;}
	.st13{clip-path:url(#SVGID_00000078036673830945443110000016760486952322812304_);fill:#FFFFFF;}
	.st14{clip-path:url(#SVGID_00000091707665513885883950000011201578330146362557_);fill:#2B2961;}
	.st15{clip-path:url(#SVGID_00000091707665513885883950000011201578330146362557_);fill:#FFFFFF;}
	.st16{fill:#97D1CE;}
	.st17{clip-path:url(#SVGID_00000034049068358020367850000007715322621763149496_);fill:#2B2961;}
	.st18{clip-path:url(#SVGID_00000064320457466201648300000001252048351616199862_);fill:#2B2961;}
	.st19{clip-path:url(#SVGID_00000074416693898389988260000012202111241221382815_);fill:#FFFFFF;}
	.st20{clip-path:url(#SVGID_00000074416693898389988260000012202111241221382815_);fill:#2B2961;}
	.st21{clip-path:url(#SVGID_00000137110191535844314210000013297488687801384104_);fill:#2B2961;}
	.st22{clip-path:url(#SVGID_00000064322698495188618150000001346422360389351576_);fill:#2B2961;}
	.st23{clip-path:url(#SVGID_00000064322698495188618150000001346422360389351576_);fill:#FFFFFF;}
	.st24{clip-path:url(#SVGID_00000108996519387161469420000011463019231121633949_);fill:#FFFFFF;}
	.st25{clip-path:url(#SVGID_00000100369070837845252180000006489790275532616619_);fill:#6EC3BF;}
	.st26{clip-path:url(#SVGID_00000026123196335121695930000012971309347274928026_);fill:#2B2961;}
	.st27{clip-path:url(#SVGID_00000026123196335121695930000012971309347274928026_);fill:#1D1D1B;}
	.st28{clip-path:url(#SVGID_00000026123196335121695930000012971309347274928026_);fill:#FFFFFF;}
	.st29{clip-path:url(#SVGID_00000131360613758141121380000012001327378351613318_);fill:#2B2961;}
	.st30{clip-path:url(#SVGID_00000142176808348905821300000010621441119296707241_);fill:#2B2961;}
	.st31{clip-path:url(#SVGID_00000142176808348905821300000010621441119296707241_);fill:#FFFFFF;}
	.st32{clip-path:url(#SVGID_00000101788261749202480020000012258606027127040183_);fill:#2B2961;}
	.st33{clip-path:url(#SVGID_00000083772099473736625160000006404996057067947169_);fill:#2B2961;}
	.st34{clip-path:url(#SVGID_00000083772099473736625160000006404996057067947169_);fill:#6EC3BF;}
	.st35{clip-path:url(#SVGID_00000057849318242077019310000000053242609486228868_);fill:#2B2961;}
	.st36{clip-path:url(#SVGID_00000091700192348373250680000002935303179385356476_);fill:#2B2961;}
	.st37{clip-path:url(#SVGID_00000035495424886568452510000014367980507600426634_);fill:#2B2961;}
	.st38{clip-path:url(#SVGID_00000114770790856768570820000016433456507154827167_);fill:#2B2961;}
	.st39{clip-path:url(#SVGID_00000145769708910043188130000015354892734215687609_);fill:#6EC3BF;}
	.st40{clip-path:url(#SVGID_00000044145045298566311820000005929526755271721649_);fill:#6EC3BF;}
	.st41{clip-path:url(#SVGID_00000049907061844484219420000015012533153007509906_);fill:#6EC3BF;}
	.st42{clip-path:url(#SVGID_00000147221413208403984810000006202534723680844204_);fill:#6EC3BF;}
	.st43{clip-path:url(#SVGID_00000103248240272102236590000006380712341668094363_);fill:#2B2961;}
	.st44{clip-path:url(#SVGID_00000111165279933400299100000001850952221160021683_);fill:#2B2961;}
	.st45{clip-path:url(#SVGID_00000113312914901460210220000006799935254726736522_);fill:#2B2961;}
	.st46{clip-path:url(#SVGID_00000183218627246575952230000017932938426902961033_);fill:#2B2961;}
	.st47{clip-path:url(#SVGID_00000183218627246575952230000017932938426902961033_);fill:#FFFFFF;}
	.st48{clip-path:url(#SVGID_00000031913841901992847320000010613308269186367649_);fill:#FFFFFF;}
	.st49{clip-path:url(#SVGID_00000026164251440020103210000010710346879836924343_);fill:#2B2961;}
	.st50{clip-path:url(#SVGID_00000028312983569711486360000002291486245732522402_);fill:#2B2961;}
	.st51{clip-path:url(#SVGID_00000028312983569711486360000002291486245732522402_);fill:#FFFFFF;}
	.st52{clip-path:url(#SVGID_00000158030285755685816730000011774167599845226384_);fill:#2B2961;}
	.st53{clip-path:url(#SVGID_00000158030285755685816730000011774167599845226384_);fill:#2C265F;}
	.st54{clip-path:url(#SVGID_00000056400696131388730460000018032456592487364526_);fill:#FFFFFF;}
	.st55{clip-path:url(#SVGID_00000038393251274671325860000002288510520097543341_);fill:#2B2961;}
	.st56{clip-path:url(#SVGID_00000109011966657193898140000016785901655879377793_);fill:#FFFFFF;}
	.st57{clip-path:url(#SVGID_00000009563368519756161330000004547756239749970825_);fill:#2B2961;}
	.st58{clip-path:url(#SVGID_00000116930654945646824770000000941079373252872109_);fill:#FFFFFF;}
	.st59{clip-path:url(#SVGID_00000097464035330070514980000011148495911353594274_);fill:#2B2961;}
	.st60{clip-path:url(#SVGID_00000097464035330070514980000011148495911353594274_);fill:#FFFFFF;}
	.st61{clip-path:url(#SVGID_00000019636536273973067230000006867274137368030119_);fill:#2B2961;}
	.st62{clip-path:url(#SVGID_00000140736957935401993630000000161210676519417274_);fill:#FFFFFF;}
	.st63{clip-path:url(#SVGID_00000127008286792889635980000013547243810547794106_);fill:#2B2961;}
	.st64{clip-path:url(#SVGID_00000050629823915502088180000011503937228408115383_);fill:#FFFFFF;}
	.st65{clip-path:url(#SVGID_00000050629823915502088180000011503937228408115383_);fill:#2B2961;}
	.st66{clip-path:url(#SVGID_00000168810381490309825110000001565892036021806506_);fill:#2B2961;}
	.st67{clip-path:url(#SVGID_00000168810381490309825110000001565892036021806506_);fill:#6EC3BF;}
	.st68{clip-path:url(#SVGID_00000168810381490309825110000001565892036021806506_);fill:#FFFFFF;}
	.st69{clip-path:url(#SVGID_00000065766348815099294840000005346893098883877806_);fill:#2B2961;}
	.st70{clip-path:url(#SVGID_00000132066101011834857300000004425192676703429820_);fill:#2B2961;}
	.st71{clip-path:url(#SVGID_00000127007133530886790180000010054884830739345552_);fill:#2B2961;}
	.st72{clip-path:url(#SVGID_00000169516955836108147590000014414362253202548380_);fill:#2B2961;}
	.st73{clip-path:url(#SVGID_00000121959517464064648260000008967443348292035511_);fill:#2B2961;}
	.st74{clip-path:url(#SVGID_00000155130041584985750390000014855895203292129689_);fill:#FFFFFF;}
	.st75{clip-path:url(#SVGID_00000155130041584985750390000014855895203292129689_);fill:#6EC3BF;}
	.st76{clip-path:url(#SVGID_00000097480041927933296280000001631787364362093723_);fill:#2B2961;}
	.st77{clip-path:url(#SVGID_00000124842250933606107630000010676164108271221937_);fill:#2B2961;}
	.st78{clip-path:url(#SVGID_00000124842250933606107630000010676164108271221937_);fill:#FFFFFF;}
	.st79{clip-path:url(#SVGID_00000060722865665874155910000006607479131516202430_);fill:#2B2961;}
	.st80{clip-path:url(#SVGID_00000001637077384116592380000005350799970431733436_);fill:#FFFFFF;}
	.st81{clip-path:url(#SVGID_00000166634972980703180890000006149977130838128534_);fill:#2B2961;}
	.st82{clip-path:url(#SVGID_00000023266016743442998170000016253209045911823543_);fill:#2B2961;}
	.st83{clip-path:url(#SVGID_00000035496336135730083840000005702031507448106431_);fill:#2B2961;}
	.st84{clip-path:url(#SVGID_00000135667366344988424570000000804833117827192755_);fill:#FFFFFF;}
	.st85{clip-path:url(#SVGID_00000109001519102103039010000014722218646521799341_);fill:#FFFFFF;}
	.st86{clip-path:url(#SVGID_00000068677134036166096730000003990037319888891780_);fill:#2B2961;}
	.st87{clip-path:url(#SVGID_00000031893441127712930920000013904018874326937742_);fill:#2B2961;}
	.st88{clip-path:url(#SVGID_00000031893441127712930920000013904018874326937742_);fill:#FFFFFF;}
	.st89{clip-path:url(#SVGID_00000139287895314870780370000004871305145685142443_);fill:#2B2961;}
	.st90{clip-path:url(#SVGID_00000055672131604266374390000011764752351730496697_);fill:#FFFFFF;}
	.st91{clip-path:url(#SVGID_00000174566859435131046770000007249114014663243153_);fill:#6EC3BF;}
	.st92{clip-path:url(#SVGID_00000174566859435131046770000007249114014663243153_);fill:#2B2961;}
	.st93{clip-path:url(#SVGID_00000143604315103620735620000000006598181818481308_);fill:#6EC3BF;}
	.st94{clip-path:url(#SVGID_00000165203386876782235930000001980189270386428851_);fill:#2B2961;}
	.st95{clip-path:url(#SVGID_00000163791047953355001550000014111901134082798995_);fill:#2B2961;}
	.st96{clip-path:url(#SVGID_00000062171930470372460470000015106264268184033699_);fill:#2B2961;}
	.st97{clip-path:url(#SVGID_00000036938071572168787040000009069508442685852545_);fill:#2B2961;}
	.st98{clip-path:url(#SVGID_00000118359799467849399750000008097117199876186004_);fill:#2B2961;}
	.st99{clip-path:url(#SVGID_00000118359799467849399750000008097117199876186004_);fill:#6EC3BF;}
	.st100{clip-path:url(#SVGID_00000157310686076986536240000017658054977745287082_);fill:#2B2961;}
	.st101{clip-path:url(#SVGID_00000163754247978289061090000013934489280443967371_);fill:#2B2961;}
	.st102{clip-path:url(#SVGID_00000163754247978289061090000013934489280443967371_);fill:#6EC3BF;}
	.st103{clip-path:url(#SVGID_00000066491872925113698880000015104482344882688670_);fill:#2B2961;}
	.st104{clip-path:url(#SVGID_00000030477221348435472490000010993322903862292669_);fill:#FFFFFF;}
	.st105{clip-path:url(#SVGID_00000030477221348435472490000010993322903862292669_);fill:#2B2961;}
	.st106{clip-path:url(#SVGID_00000085956178240154439110000011390508059402596277_);fill:#6EC3BF;}
	.st107{clip-path:url(#SVGID_00000138536595368317209830000004466166029387710624_);fill:#2B2961;}
	.st108{clip-path:url(#SVGID_00000047053544858407937190000012642340649713177502_);fill:#2B2961;}
	.st109{clip-path:url(#SVGID_00000047053544858407937190000012642340649713177502_);fill:#FFFFFF;}
	.st110{clip-path:url(#SVGID_00000072260691525320295400000002509962972594042765_);fill:#6EC3BF;}
	.st111{clip-path:url(#SVGID_00000159434460094923871370000013329962433454133165_);fill:#2B2961;}
	.st112{clip-path:url(#SVGID_00000139283181210811288470000010000755500417134215_);fill:#2B2961;}
	.st113{clip-path:url(#SVGID_00000139283181210811288470000010000755500417134215_);fill:#6EC3BF;}
	.st114{clip-path:url(#SVGID_00000182504713825683402870000016153224902033961131_);fill:#2B2961;}
	.st115{clip-path:url(#SVGID_00000066486335428461326810000003549682827493927589_);fill:#6EC3BF;}
	.st116{clip-path:url(#SVGID_00000066486335428461326810000003549682827493927589_);fill:#2B2961;}
	.st117{clip-path:url(#SVGID_00000103232375873526177240000012735767230730122154_);fill:#2B2961;}
	.st118{clip-path:url(#SVGID_00000138532017995811341320000009833216440998990757_);fill:#FFFFFF;}
	.st119{clip-path:url(#SVGID_00000138532017995811341320000009833216440998990757_);}
	.st120{clip-path:url(#SVGID_00000065035933656238729650000008759024556266683055_);fill:#2B2961;}
	.st121{clip-path:url(#SVGID_00000138532017995811341320000009833216440998990757_);fill:#6EC3BF;}
	.st122{clip-path:url(#SVGID_00000135673393169532370770000006071186508515261321_);fill:#2B2961;}
	.st123{clip-path:url(#SVGID_00000138532017995811341320000009833216440998990757_);fill:#2B2961;}
	.st124{clip-path:url(#SVGID_00000002380398665308151680000011720660418419781296_);fill:#2B2961;}
	.st125{clip-path:url(#SVGID_00000166646774458059708470000006219752948261560226_);fill:#2B2961;}
	.st126{clip-path:url(#SVGID_00000050642082260388860970000004635032399423587468_);}
	.st127{clip-path:url(#SVGID_00000008845393774579031290000013774700300563255972_);}
	.st128{clip-path:url(#SVGID_00000056405281174321232370000005605487630631552919_);fill:#FFFFFF;}
	.st129{clip-path:url(#SVGID_00000094617022989237411510000015578766265517000320_);fill:#2B2961;}
	.st130{clip-path:url(#SVGID_00000076567158009043553500000017996027099499770260_);fill:#2B2961;}
	.st131{clip-path:url(#SVGID_00000076567158009043553500000017996027099499770260_);fill:#6EC3BF;}
	.st132{clip-path:url(#SVGID_00000076567158009043553500000017996027099499770260_);fill:#FFFFFF;}
	.st133{clip-path:url(#SVGID_00000139282225108090066960000007316851021459901312_);fill:#2B2961;}
	.st134{clip-path:url(#SVGID_00000139282225108090066960000007316851021459901312_);fill:#6EC3BF;}
	.st135{clip-path:url(#SVGID_00000023974584174670045580000011139589631557871804_);fill:#2B2961;}
	.st136{clip-path:url(#SVGID_00000105387956629541369380000017983742520099197827_);fill:#6EC3BF;}
	.st137{clip-path:url(#SVGID_00000105387956629541369380000017983742520099197827_);fill:#FFFFFF;}
	.st138{clip-path:url(#SVGID_00000004524734455025263550000010252119248519291574_);fill:#2B2961;}
	.st139{clip-path:url(#SVGID_00000004524734455025263550000010252119248519291574_);fill:#6EC3BF;}
	.st140{clip-path:url(#SVGID_00000083791289254750161970000009835368936260136110_);fill:#2B2961;}
	.st141{clip-path:url(#SVGID_00000160174147632504303400000012883093791798487967_);fill:#2B2961;}
	.st142{clip-path:url(#SVGID_00000160174147632504303400000012883093791798487967_);fill:#FFFFFF;}
	.st143{clip-path:url(#SVGID_00000127015050948839906260000004856250038913123262_);fill:#2B2961;}
	.st144{clip-path:url(#SVGID_00000079467134690695310640000008754762752246543010_);fill:#FFFFFF;}
	.st145{clip-path:url(#SVGID_00000169545462907307870580000013650555496378515883_);fill:#2B2961;}
	.st146{clip-path:url(#SVGID_00000134241281531536308130000007546041614375273383_);fill:#2B2961;}
	.st147{clip-path:url(#SVGID_00000134241281531536308130000007546041614375273383_);fill:#FFFFFF;}
	.st148{clip-path:url(#SVGID_00000176744130419358070090000006782172846624090516_);fill:#2B2961;}
	.st149{clip-path:url(#SVGID_00000139981940961514323280000004386761419092250559_);fill:#2B2961;}
	.st150{clip-path:url(#SVGID_00000139981940961514323280000004386761419092250559_);fill:#FFFFFF;}
	.st151{clip-path:url(#SVGID_00000160894036474482181490000007387670512194344100_);fill:#2B2961;}
	.st152{clip-path:url(#SVGID_00000160894036474482181490000007387670512194344100_);fill:#6EC3BF;}
	.st153{clip-path:url(#SVGID_00000173859503047242081210000002478821481448124547_);fill:#1D1D1B;}
	.st154{clip-path:url(#SVGID_00000173859503047242081210000002478821481448124547_);fill:#2B2961;}
	.st155{clip-path:url(#SVGID_00000173859503047242081210000002478821481448124547_);fill:#FFFFFF;}
	.st156{clip-path:url(#SVGID_00000132779444084971454320000017190211994670167941_);fill:#2B2961;}
	.st157{clip-path:url(#SVGID_00000167371153722740344380000014333138005302142088_);fill:#2B2961;}
	.st158{clip-path:url(#SVGID_00000093887310683169795070000003292730448510369213_);fill:#2B2961;}
	.st159{clip-path:url(#SVGID_00000093887310683169795070000003292730448510369213_);fill:#FFFFFF;}
	.st160{clip-path:url(#SVGID_00000093887310683169795070000003292730448510369213_);fill:#6EC3BF;}
	.st161{clip-path:url(#SVGID_00000038378270923971214410000000581712858343474086_);fill:#2B2961;}
	.st162{clip-path:url(#SVGID_00000162319141934348005750000017449561643788734608_);fill:#2B2961;}
	.st163{clip-path:url(#SVGID_00000136403015200741362650000001058934645562276999_);fill:#2B2961;}
	.st164{clip-path:url(#SVGID_00000139975468142479419820000008462519575294833850_);fill:#2B2961;}
	.st165{clip-path:url(#SVGID_00000139975468142479419820000008462519575294833850_);fill:#FFFFFF;}
	.st166{clip-path:url(#SVGID_00000078735587162854953050000003362577245474326422_);fill:#2B2961;}
	.st167{clip-path:url(#SVGID_00000078735587162854953050000003362577245474326422_);fill:#FFFFFF;}
	.st168{clip-path:url(#SVGID_00000061439945311335978220000003727156607879220369_);fill:#2B2961;}
	.st169{clip-path:url(#SVGID_00000153691717808428509640000014149016130865079182_);fill:#2B2961;}
	.st170{clip-path:url(#SVGID_00000153691717808428509640000014149016130865079182_);fill:#FFFFFF;}
	.st171{clip-path:url(#SVGID_00000141415234879698488450000017329665595142133120_);fill:#2B2961;}
	.st172{clip-path:url(#SVGID_00000172432997254553993220000013716660457329595041_);fill:#FFFFFF;}
	.st173{clip-path:url(#SVGID_00000072970131101314502510000004095049269290413233_);fill:#2B2961;}
	.st174{clip-path:url(#SVGID_00000072970131101314502510000004095049269290413233_);fill:#6EC3BF;}
	.st175{clip-path:url(#SVGID_00000089554588969656543100000017407295940531048631_);fill:#2B2961;}
	.st176{clip-path:url(#SVGID_00000127756920736578308180000015361139507054765959_);fill:#2B2961;}
	.st177{clip-path:url(#SVGID_00000038388536394278964960000000018568761377507215_);fill:#FFFFFF;}
	.st178{clip-path:url(#SVGID_00000072968346153891502300000010986601635599876284_);fill:#6EC3BF;}
	.st179{clip-path:url(#SVGID_00000072968346153891502300000010986601635599876284_);fill:#2B2961;}
	.st180{clip-path:url(#SVGID_00000050634054346410033800000016532649424141042051_);fill:#6EC3BF;}
	.st181{clip-path:url(#SVGID_00000086689749286270079530000003256686884356802968_);fill:#2B2961;}
	.st182{clip-path:url(#SVGID_00000129895911181643773610000012640444313957963907_);fill:#6EC3BF;}
	.st183{clip-path:url(#SVGID_00000129895911181643773610000012640444313957963907_);fill:#2B2961;}
	.st184{clip-path:url(#SVGID_00000065066540717685039310000001142979402843767700_);fill:#2B2961;}
	.st185{clip-path:url(#SVGID_00000026148353904158767380000006767771086820362372_);fill:#2B2961;}
	.st186{clip-path:url(#SVGID_00000002369608535626032860000006115402882553010561_);fill:#2B2961;}
	.st187{clip-path:url(#SVGID_00000006696733575407746810000002745302699993493425_);fill:#2B2961;}
	.st188{clip-path:url(#SVGID_00000163768930389830801620000010670413062418001319_);fill:#2B2961;}
	.st189{clip-path:url(#SVGID_00000057852517176180117640000007904159945478553996_);fill:#6EC3BF;}
	.st190{clip-path:url(#SVGID_00000057852517176180117640000007904159945478553996_);fill:#2B2961;}
	.st191{clip-path:url(#SVGID_00000057839847244899991200000013155109293691563185_);fill:#6EC3BF;}
	.st192{clip-path:url(#SVGID_00000057839847244899991200000013155109293691563185_);fill:#2B2961;}
	.st193{clip-path:url(#SVGID_00000037661776222487334340000009759828834244692648_);fill:#2B2961;}
	.st194{clip-path:url(#SVGID_00000178886757365410338530000006166218963541531533_);fill:#2B2961;}
	.st195{clip-path:url(#SVGID_00000065059203073988039760000005418225620333548678_);fill:#2B2961;}
	.st196{clip-path:url(#SVGID_00000165227234959591398670000004976786628866485950_);fill:#FFFFFF;}
	.st197{clip-path:url(#SVGID_00000046300646513226069900000004867059076566796934_);fill:#2B2961;}
	.st198{clip-path:url(#SVGID_00000054966583415223654720000011718350960012527017_);fill:#2B2961;}
	.st199{clip-path:url(#SVGID_00000054966583415223654720000011718350960012527017_);fill:#6EC3BF;}
	.st200{clip-path:url(#SVGID_00000049940195561040108900000016953534876901961609_);fill:#2B2961;}
	.st201{clip-path:url(#SVGID_00000048479212523524201390000016614017953741129888_);fill:#2B2961;}
	.st202{clip-path:url(#SVGID_00000042705371437048901640000000351474121914325941_);fill:#6EC3BF;}
	.st203{clip-path:url(#SVGID_00000042705371437048901640000000351474121914325941_);fill:#2B2961;}
	.st204{clip-path:url(#SVGID_00000019636155983673138470000013397130832307243432_);fill:#6EC3BF;}
	.st205{clip-path:url(#SVGID_00000019636155983673138470000013397130832307243432_);fill:#2B2961;}
	.st206{clip-path:url(#SVGID_00000161595201579322380350000015368856532300699576_);fill:#2B2961;}
	.st207{clip-path:url(#SVGID_00000164494543741116113920000004613165455288775319_);fill:#2B2961;}
	.st208{clip-path:url(#SVGID_00000164494543741116113920000004613165455288775319_);fill:#6EC3BF;}
	.st209{clip-path:url(#SVGID_00000061440577181392817420000016848188809280513159_);fill:#2B2961;}
	.st210{clip-path:url(#SVGID_00000061440577181392817420000016848188809280513159_);fill:#6EC3BF;}
	.st211{clip-path:url(#SVGID_00000031893430676645740880000017788921372079503034_);fill:#2B2961;}
	.st212{clip-path:url(#SVGID_00000031893430676645740880000017788921372079503034_);fill:#6EC3BF;}
	.st213{clip-path:url(#SVGID_00000072263833644072865890000005818597617607840687_);fill:#2B2961;}
	.st214{clip-path:url(#SVGID_00000126302862068263563380000012182075508415737985_);fill:#6EC3BF;}
	.st215{clip-path:url(#SVGID_00000126302862068263563380000012182075508415737985_);fill:#2B2961;}
	.st216{clip-path:url(#SVGID_00000115490742473891255240000015248388072007139456_);fill:#6EC3BF;}
	.st217{clip-path:url(#SVGID_00000115490742473891255240000015248388072007139456_);fill:#2B2961;}
	.st218{clip-path:url(#SVGID_00000034801964214676209400000016211837353827500933_);fill:#FFFFFF;}
	.st219{clip-path:url(#SVGID_00000034801964214676209400000016211837353827500933_);fill:#2B2961;}
	.st220{clip-path:url(#SVGID_00000132784031051011186900000010277370127313793461_);fill:#FFFFFF;}
	.st221{clip-path:url(#SVGID_00000132784031051011186900000010277370127313793461_);fill:#2B2961;}
	.st222{clip-path:url(#SVGID_00000060011034075899437710000017173640659798050477_);fill:#FFFFFF;}
	.st223{clip-path:url(#SVGID_00000060011034075899437710000017173640659798050477_);fill:#2B2961;}
	.st224{clip-path:url(#SVGID_00000183222580730727186410000002876915703779463311_);fill:#6EC3BF;}
	.st225{clip-path:url(#SVGID_00000183222580730727186410000002876915703779463311_);fill:#2B2961;}
	.st226{clip-path:url(#SVGID_00000154385732658073085010000009565909891816344500_);fill:#2B2961;}
	.st227{clip-path:url(#SVGID_00000154385732658073085010000009565909891816344500_);fill:#6EC3BF;}
	.st228{clip-path:url(#SVGID_00000096047161520897541100000016054605524191594661_);fill:#2B2961;}
	.st229{clip-path:url(#SVGID_00000183957830069146251390000016580359503805424059_);fill:#6EC3BF;}
	.st230{clip-path:url(#SVGID_00000183957830069146251390000016580359503805424059_);fill:#2B2961;}
	.st231{clip-path:url(#SVGID_00000044890248829103597370000005155968457442366877_);fill:#2B2961;}
	.st232{clip-path:url(#SVGID_00000030449165497964414700000010687333059816589994_);fill:#2B2961;}
	.st233{clip-path:url(#SVGID_00000030449165497964414700000010687333059816589994_);fill:#6EC3BF;}
	.st234{clip-path:url(#SVGID_00000127764347596632439810000011882913955172045952_);fill:#2B2961;}
	.st235{clip-path:url(#SVGID_00000162345006534605446210000000792746108683465377_);fill:#FFFFFF;}
	.st236{clip-path:url(#SVGID_00000162345006534605446210000000792746108683465377_);fill:#2B2961;}
	.st237{fill:#2C265F;}
	.st238{clip-path:url(#SVGID_00000070808614667857203020000018386385311530039225_);fill:#2B2961;}
	.st239{clip-path:url(#SVGID_00000070808614667857203020000018386385311530039225_);fill:#6EC3BF;}
	.st240{fill:#61B87A;}
	.st241{clip-path:url(#SVGID_00000097458073034514863210000008930109385146708102_);fill:#2B2961;}
	.st242{clip-path:url(#SVGID_00000140725205616450591190000001268790462494229689_);fill:#2B2961;}
	.st243{clip-path:url(#SVGID_00000023962636464158778050000000559611337495023524_);fill:#2B2961;}
	.st244{clip-path:url(#SVGID_00000142885863551628839200000000884370191626317487_);fill:#2B2961;}
	.st245{clip-path:url(#SVGID_00000142885863551628839200000000884370191626317487_);fill:#61B87A;}
	.st246{clip-path:url(#SVGID_00000142885863551628839200000000884370191626317487_);fill:#FFFFFF;}
	.st247{clip-path:url(#SVGID_00000002376509235259396830000007145079591039780769_);fill:#2B2961;}
	.st248{clip-path:url(#SVGID_00000002376509235259396830000007145079591039780769_);fill:#61B87A;}
	.st249{clip-path:url(#SVGID_00000183957368426378795550000006729615275212880031_);fill:#2B2961;}
	.st250{clip-path:url(#SVGID_00000013880269154656675740000016175950277566991546_);fill:#6EC3BF;}
	.st251{clip-path:url(#SVGID_00000013880269154656675740000016175950277566991546_);fill:#2B2961;}
	.st252{clip-path:url(#SVGID_00000164501776296965696640000014294210486638569135_);fill:#2B2961;}
	.st253{clip-path:url(#SVGID_00000164501776296965696640000014294210486638569135_);fill:#6EC3BF;}
	.st254{clip-path:url(#SVGID_00000063607922188359924890000013498548179528571065_);fill:#2B2961;}
	.st255{clip-path:url(#SVGID_00000063607922188359924890000013498548179528571065_);fill:#6EC3BF;}
</style>
<g>
	<polygon class="st3" points="459.31,61.77 464,61.77 461.66,59.42 	"/>
</g>
<g>
	<polygon class="st3" points="459.31,66.43 464,66.43 461.66,64.09 	"/>
</g>
<g>
	<rect x="20.42" y="54.04" class="st0" width="30.86" height="123.6"/>
	<rect x="266.06" y="54.04" class="st0" width="30.87" height="123.6"/>
	<rect x="143.24" y="54.04" class="st0" width="30.87" height="123.6"/>
	<rect x="388.9" y="54.04" class="st0" width="30.86" height="123.6"/>
	<rect x="81.82" y="54.04" class="st0" width="30.87" height="123.6"/>
	<rect x="327.47" y="54.04" class="st0" width="30.87" height="123.6"/>
	<rect x="204.66" y="54.04" class="st0" width="30.86" height="123.6"/>
	<rect x="450.3" y="54.04" class="st0" width="30.87" height="123.6"/>
	<rect x="51.24" y="54.04" class="st0" width="30.86" height="123.6"/>
	<rect x="296.89" y="54.04" class="st0" width="30.87" height="123.6"/>
	<rect x="174.07" y="54.04" class="st0" width="30.86" height="123.6"/>
	<rect x="419.71" y="54.04" class="st0" width="30.87" height="123.6"/>
	<rect x="112.65" y="54.04" class="st0" width="30.87" height="123.6"/>
	<rect x="358.31" y="54.04" class="st0" width="30.86" height="123.6"/>
	<rect x="235.47" y="54.04" class="st0" width="30.87" height="123.6"/>
	<rect x="481.13" y="54.04" class="st0" width="30.87" height="123.6"/>
	<rect x="80.38" y="179.59" class="st0" width="69.7" height="33.03"/>
	<rect x="80.38" y="249.55" class="st0" width="69.7" height="33.03"/>
	<rect x="80.38" y="319.49" class="st0" width="69.7" height="33.23"/>
	<rect x="80.38" y="389.85" class="st0" width="69.7" height="33.03"/>
	<rect x="378.84" y="214.56" class="st0" width="69.7" height="33.23"/>
	<rect x="378.84" y="284.72" class="st0" width="69.7" height="33.03"/>
	<rect x="378.84" y="354.67" class="st0" width="69.7" height="33.03"/>
	<rect x="378.84" y="424.63" class="st0" width="69.7" height="33.23"/>
	<rect x="152.14" y="179.59" class="st0" width="146.24" height="33.03"/>
	<rect x="152.14" y="249.55" class="st0" width="146.24" height="33.03"/>
	<rect x="152.14" y="319.49" class="st0" width="146.24" height="33.23"/>
	<rect x="152.14" y="389.85" class="st0" width="146.24" height="33.03"/>
	<rect x="230.53" y="214.56" class="st0" width="146.24" height="33.23"/>
	<rect x="230.53" y="284.72" class="st0" width="146.24" height="33.03"/>
	<rect x="230.53" y="354.67" class="st0" width="146.24" height="33.03"/>
	<rect x="230.53" y="424.63" class="st0" width="146.23" height="33.23"/>
	<rect x="300.46" y="179.59" class="st0" width="149.85" height="33.03"/>
	<rect x="300.46" y="249.55" class="st0" width="149.85" height="33.03"/>
	<rect x="300.46" y="319.49" class="st0" width="149.85" height="33.23"/>
	<rect x="300.46" y="389.85" class="st0" width="149.85" height="33.03"/>
	<rect x="78.6" y="214.56" class="st0" width="149.85" height="33.23"/>
	<rect x="78.6" y="284.72" class="st0" width="149.85" height="33.03"/>
	<rect x="78.6" y="354.67" class="st0" width="149.85" height="33.03"/>
	<rect x="78.61" y="424.63" class="st0" width="149.84" height="33.23"/>
	<g>
		<defs>
			<rect id="SVGID_00000098178842714862750910000006424243974136761231_" y="51.81" width="511.99" height="408.38"/>
		</defs>
		<clipPath id="SVGID_00000150782828200359051970000013037052453645041083_">
			<use xlink:href="#SVGID_00000098178842714862750910000006424243974136761231_"  style="overflow:visible;"/>
		</clipPath>
		<path style="clip-path:url(#SVGID_00000150782828200359051970000013037052453645041083_);fill:#2B2961;" d="M32.11,180.01H3.73
			c-2.06,0-3.73-1.67-3.73-3.73V55.6c0-2.06,1.67-3.73,3.73-3.73h28.38c2.06,0,3.73,1.67,3.73,3.73v120.68
			C35.84,178.34,34.17,180.01,32.11,180.01z M7.46,172.55h20.92V59.33H7.46V172.55z"/>
		<path style="clip-path:url(#SVGID_00000150782828200359051970000013037052453645041083_);fill:#2B2961;" d="M277.76,180.01h-28.38
			c-2.06,0-3.73-1.67-3.73-3.73V55.6c0-2.06,1.67-3.73,3.73-3.73h28.38c2.06,0,3.73,1.67,3.73,3.73v120.68
			C281.49,178.34,279.82,180.01,277.76,180.01z M253.11,172.55h20.92V59.33h-20.92V172.55z"/>
		<path style="clip-path:url(#SVGID_00000150782828200359051970000013037052453645041083_);fill:#2B2961;" d="M154.94,180.01h-28.38
			c-2.06,0-3.73-1.67-3.73-3.73V55.6c0-2.06,1.67-3.73,3.73-3.73h28.38c2.06,0,3.73,1.67,3.73,3.73v120.68
			C158.67,178.34,157,180.01,154.94,180.01z M130.29,172.55h20.92V59.33h-20.92V172.55z"/>
		<path style="clip-path:url(#SVGID_00000150782828200359051970000013037052453645041083_);fill:#2B2961;" d="M400.59,180.01h-28.38
			c-2.06,0-3.73-1.67-3.73-3.73V55.6c0-2.06,1.67-3.73,3.73-3.73h28.38c2.06,0,3.73,1.67,3.73,3.73v120.68
			C404.32,178.34,402.65,180.01,400.59,180.01z M375.94,172.55h20.92V59.33h-20.92V172.55z"/>
		<path style="clip-path:url(#SVGID_00000150782828200359051970000013037052453645041083_);fill:#2B2961;" d="M93.52,180.01H65.14
			c-2.06,0-3.73-1.67-3.73-3.73V55.6c0-2.06,1.67-3.73,3.73-3.73h28.38c2.06,0,3.73,1.67,3.73,3.73v120.68
			C97.26,178.34,95.59,180.01,93.52,180.01z M68.88,172.55h20.92V59.33H68.88V172.55z"/>
		<path style="clip-path:url(#SVGID_00000150782828200359051970000013037052453645041083_);fill:#2B2961;" d="M339.18,180.01H310.8
			c-2.06,0-3.73-1.67-3.73-3.73V55.6c0-2.06,1.67-3.73,3.73-3.73h28.38c2.06,0,3.73,1.67,3.73,3.73v120.68
			C342.91,178.34,341.24,180.01,339.18,180.01z M314.53,172.55h20.92V59.33h-20.92V172.55z"/>
		<path style="clip-path:url(#SVGID_00000150782828200359051970000013037052453645041083_);fill:#2B2961;" d="M216.35,180.01h-28.38
			c-2.06,0-3.73-1.67-3.73-3.73V55.6c0-2.06,1.67-3.73,3.73-3.73h28.38c2.06,0,3.73,1.67,3.73,3.73v120.68
			C220.08,178.34,218.41,180.01,216.35,180.01z M191.7,172.55h20.92V59.33H191.7V172.55z"/>
		<path style="clip-path:url(#SVGID_00000150782828200359051970000013037052453645041083_);fill:#2B2961;" d="M462.01,180.01h-28.38
			c-2.06,0-3.73-1.67-3.73-3.73V55.6c0-2.06,1.67-3.73,3.73-3.73h28.38c2.06,0,3.73,1.67,3.73,3.73v120.68
			C465.74,178.34,464.07,180.01,462.01,180.01z M437.36,172.55h20.92V59.33h-20.92V172.55z"/>
		<path style="clip-path:url(#SVGID_00000150782828200359051970000013037052453645041083_);fill:#2B2961;" d="M62.93,180.01H34.55
			c-2.06,0-3.73-1.67-3.73-3.73V55.6c0-2.06,1.67-3.73,3.73-3.73h28.38c2.06,0,3.73,1.67,3.73,3.73v120.68
			C66.66,178.34,64.99,180.01,62.93,180.01z M38.28,172.55H59.2V59.33H38.28V172.55z"/>
		<path style="clip-path:url(#SVGID_00000150782828200359051970000013037052453645041083_);fill:#2B2961;" d="M308.58,180.01H280.2
			c-2.06,0-3.73-1.67-3.73-3.73V55.6c0-2.06,1.67-3.73,3.73-3.73h28.38c2.06,0,3.73,1.67,3.73,3.73v120.68
			C312.31,178.34,310.64,180.01,308.58,180.01z M283.93,172.55h20.92V59.33h-20.92V172.55z"/>
		<path style="clip-path:url(#SVGID_00000150782828200359051970000013037052453645041083_);fill:#2B2961;" d="M185.76,180.01h-28.38
			c-2.06,0-3.73-1.67-3.73-3.73V55.6c0-2.06,1.67-3.73,3.73-3.73h28.38c2.06,0,3.73,1.67,3.73,3.73v120.68
			C189.49,178.34,187.82,180.01,185.76,180.01z M161.11,172.55h20.92V59.33h-20.92V172.55z"/>
		<path style="clip-path:url(#SVGID_00000150782828200359051970000013037052453645041083_);fill:#2B2961;" d="M431.41,180.01h-28.38
			c-2.06,0-3.73-1.67-3.73-3.73V55.6c0-2.06,1.67-3.73,3.73-3.73h28.38c2.06,0,3.73,1.67,3.73,3.73v120.68
			C435.14,178.34,433.47,180.01,431.41,180.01z M406.76,172.55h20.92V59.33h-20.92V172.55z"/>
		<path style="clip-path:url(#SVGID_00000150782828200359051970000013037052453645041083_);fill:#2B2961;" d="M124.34,180.01H95.96
			c-2.06,0-3.73-1.67-3.73-3.73V55.6c0-2.06,1.67-3.73,3.73-3.73h28.38c2.06,0,3.73,1.67,3.73,3.73v120.68
			C128.07,178.34,126.4,180.01,124.34,180.01z M99.69,172.55h20.92V59.33H99.69V172.55z"/>
		<path style="clip-path:url(#SVGID_00000150782828200359051970000013037052453645041083_);fill:#2B2961;" d="M370,180.01h-28.38
			c-2.06,0-3.73-1.67-3.73-3.73V55.6c0-2.06,1.67-3.73,3.73-3.73H370c2.06,0,3.73,1.67,3.73,3.73v120.68
			C373.73,178.34,372.06,180.01,370,180.01z M345.35,172.55h20.92V59.33h-20.92V172.55z"/>
		<path style="clip-path:url(#SVGID_00000150782828200359051970000013037052453645041083_);fill:#2B2961;" d="M247.17,180.01h-28.38
			c-2.06,0-3.73-1.67-3.73-3.73V55.6c0-2.06,1.67-3.73,3.73-3.73h28.38c2.06,0,3.73,1.67,3.73,3.73v120.68
			C250.9,178.34,249.23,180.01,247.17,180.01z M222.52,172.55h20.92V59.33h-20.92V172.55z"/>
		<path style="clip-path:url(#SVGID_00000150782828200359051970000013037052453645041083_);fill:#2B2961;" d="M492.82,180.01h-28.38
			c-2.06,0-3.73-1.67-3.73-3.73V55.6c0-2.06,1.67-3.73,3.73-3.73h28.38c2.06,0,3.73,1.67,3.73,3.73v120.68
			C496.55,178.34,494.88,180.01,492.82,180.01z M468.17,172.55h20.92V59.33h-20.92V172.55z"/>
	</g>
	<path class="st6" d="M130.9,214.98H63.69c-2.06,0-3.73-1.67-3.73-3.73v-30.32c0-2.06,1.67-3.73,3.73-3.73h67.21
		c2.06,0,3.73,1.67,3.73,3.73v30.32C134.63,213.31,132.96,214.98,130.9,214.98z M67.42,207.52h59.75v-22.86H67.42V207.52z"/>
	<path class="st6" d="M130.9,284.94H63.69c-2.06,0-3.73-1.67-3.73-3.73v-30.32c0-2.06,1.67-3.73,3.73-3.73h67.21
		c2.06,0,3.73,1.67,3.73,3.73v30.32C134.63,283.27,132.96,284.94,130.9,284.94z M67.42,277.48h59.75v-22.86H67.42V277.48z"/>
	<path class="st6" d="M130.9,354.9H63.69c-2.06,0-3.73-1.67-3.73-3.73v-30.12c0-2.06,1.67-3.73,3.73-3.73h67.21
		c2.06,0,3.73,1.67,3.73,3.73v30.12C134.63,353.23,132.96,354.9,130.9,354.9z M67.42,347.44h59.75v-22.66H67.42V347.44z"/>
	<path class="st6" d="M130.9,425.25H63.69c-2.06,0-3.73-1.67-3.73-3.73V391.2c0-2.06,1.67-3.73,3.73-3.73h67.21
		c2.06,0,3.73,1.67,3.73,3.73v30.32C134.63,423.58,132.96,425.25,130.9,425.25z M67.42,417.79h59.75v-22.86H67.42V417.79z"/>
	<path class="st6" d="M429.37,249.97h-67.21c-2.06,0-3.73-1.67-3.73-3.73v-30.12c0-2.06,1.67-3.73,3.73-3.73h67.21
		c2.06,0,3.73,1.67,3.73,3.73v30.12C433.1,248.3,431.43,249.97,429.37,249.97z M365.89,242.51h59.75v-22.66h-59.75V242.51z"/>
	<path class="st6" d="M429.37,320.12h-67.21c-2.06,0-3.73-1.67-3.73-3.73v-30.32c0-2.06,1.67-3.73,3.73-3.73h67.21
		c2.06,0,3.73,1.67,3.73,3.73v30.32C433.1,318.45,431.43,320.12,429.37,320.12z M365.89,312.67h59.75V289.8h-59.75V312.67z"/>
	<path class="st6" d="M429.37,390.08h-67.21c-2.06,0-3.73-1.67-3.73-3.73v-30.32c0-2.06,1.67-3.73,3.73-3.73h67.21
		c2.06,0,3.73,1.67,3.73,3.73v30.32C433.1,388.41,431.43,390.08,429.37,390.08z M365.89,382.62h59.75v-22.86h-59.75V382.62z"/>
	<g>
		<defs>
			<rect id="SVGID_00000070105951586379204600000014056177441862541480_" y="51.81" width="511.99" height="408.38"/>
		</defs>
		<clipPath id="SVGID_00000084491796033495632590000007622804054837289912_">
			<use xlink:href="#SVGID_00000070105951586379204600000014056177441862541480_"  style="overflow:visible;"/>
		</clipPath>
		<path style="clip-path:url(#SVGID_00000084491796033495632590000007622804054837289912_);fill:#2B2961;" d="M429.37,460.04h-67.21
			c-2.06,0-3.73-1.67-3.73-3.73v-30.32c0-2.06,1.67-3.73,3.73-3.73h67.21c2.06,0,3.73,1.67,3.73,3.73v30.32
			C433.1,458.37,431.43,460.04,429.37,460.04z M365.89,452.58h59.75v-22.86h-59.75V452.58z"/>
	</g>
	<path class="st6" d="M279.22,214.98H135.46c-2.06,0-3.73-1.67-3.73-3.73v-30.32c0-2.06,1.67-3.73,3.73-3.73h143.76
		c2.06,0,3.73,1.67,3.73,3.73v30.32C282.95,213.31,281.28,214.98,279.22,214.98z M139.19,207.52h136.3v-22.86h-136.3V207.52z"/>
	<path class="st6" d="M279.22,284.94H135.46c-2.06,0-3.73-1.67-3.73-3.73v-30.32c0-2.06,1.67-3.73,3.73-3.73h143.76
		c2.06,0,3.73,1.67,3.73,3.73v30.32C282.95,283.27,281.28,284.94,279.22,284.94z M139.19,277.48h136.3v-22.86h-136.3V277.48z"/>
	<path class="st6" d="M279.22,354.9H135.46c-2.06,0-3.73-1.67-3.73-3.73v-30.12c0-2.06,1.67-3.73,3.73-3.73h143.76
		c2.06,0,3.73,1.67,3.73,3.73v30.12C282.95,353.23,281.28,354.9,279.22,354.9z M139.19,347.44h136.3v-22.66h-136.3V347.44z"/>
	<path class="st6" d="M279.22,425.25H135.46c-2.06,0-3.73-1.67-3.73-3.73V391.2c0-2.06,1.67-3.73,3.73-3.73h143.76
		c2.06,0,3.73,1.67,3.73,3.73v30.32C282.95,423.58,281.28,425.25,279.22,425.25z M139.19,417.79h136.3v-22.86h-136.3V417.79z"/>
	<path class="st6" d="M357.61,249.97H213.85c-2.06,0-3.73-1.67-3.73-3.73v-30.12c0-2.06,1.67-3.73,3.73-3.73h143.76
		c2.06,0,3.73,1.67,3.73,3.73v30.12C361.34,248.3,359.67,249.97,357.61,249.97z M217.58,242.51h136.3v-22.66h-136.3V242.51z"/>
	<path class="st6" d="M357.61,320.12H213.85c-2.06,0-3.73-1.67-3.73-3.73v-30.32c0-2.06,1.67-3.73,3.73-3.73h143.76
		c2.06,0,3.73,1.67,3.73,3.73v30.32C361.34,318.45,359.67,320.12,357.61,320.12z M217.58,312.67h136.3V289.8h-136.3V312.67z"/>
	<path class="st6" d="M357.61,390.08H213.85c-2.06,0-3.73-1.67-3.73-3.73v-30.32c0-2.06,1.67-3.73,3.73-3.73h143.76
		c2.06,0,3.73,1.67,3.73,3.73v30.32C361.34,388.41,359.67,390.08,357.61,390.08z M217.58,382.62h136.3v-22.86h-136.3V382.62z"/>
	<g>
		<defs>
			<rect id="SVGID_00000040543368662020705670000007475055980974144440_" y="51.81" width="511.99" height="408.38"/>
		</defs>
		<clipPath id="SVGID_00000047058231897257661240000014672737494236670880_">
			<use xlink:href="#SVGID_00000040543368662020705670000007475055980974144440_"  style="overflow:visible;"/>
		</clipPath>
		<path style="clip-path:url(#SVGID_00000047058231897257661240000014672737494236670880_);fill:#2B2961;" d="M357.61,460.04H213.85
			c-2.06,0-3.73-1.67-3.73-3.73v-30.32c0-2.06,1.67-3.73,3.73-3.73h143.76c2.06,0,3.73,1.67,3.73,3.73v30.32
			C361.34,458.37,359.67,460.04,357.61,460.04z M217.58,452.58h136.3v-22.86h-136.3V452.58z"/>
	</g>
	<path class="st6" d="M431.13,214.98H283.77c-2.06,0-3.73-1.67-3.73-3.73v-30.32c0-2.06,1.67-3.73,3.73-3.73h147.36
		c2.06,0,3.73,1.67,3.73,3.73v30.32C434.87,213.31,433.2,214.98,431.13,214.98z M287.5,207.52h139.9v-22.86H287.5V207.52z"/>
	<path class="st6" d="M431.13,284.94H283.77c-2.06,0-3.73-1.67-3.73-3.73v-30.32c0-2.06,1.67-3.73,3.73-3.73h147.36
		c2.06,0,3.73,1.67,3.73,3.73v30.32C434.87,283.27,433.2,284.94,431.13,284.94z M287.5,277.48h139.9v-22.86H287.5V277.48z"/>
	<path class="st6" d="M431.13,354.9H283.77c-2.06,0-3.73-1.67-3.73-3.73v-30.12c0-2.06,1.67-3.73,3.73-3.73h147.36
		c2.06,0,3.73,1.67,3.73,3.73v30.12C434.87,353.23,433.2,354.9,431.13,354.9z M287.5,347.44h139.9v-22.66H287.5V347.44z"/>
	<path class="st6" d="M431.13,425.25H283.77c-2.06,0-3.73-1.67-3.73-3.73V391.2c0-2.06,1.67-3.73,3.73-3.73h147.36
		c2.06,0,3.73,1.67,3.73,3.73v30.32C434.87,423.58,433.2,425.25,431.13,425.25z M287.5,417.79h139.9v-22.86H287.5V417.79z"/>
	<path class="st6" d="M209.29,249.97H61.92c-2.06,0-3.73-1.67-3.73-3.73v-30.12c0-2.06,1.67-3.73,3.73-3.73h147.37
		c2.06,0,3.73,1.67,3.73,3.73v30.12C213.02,248.3,211.35,249.97,209.29,249.97z M65.65,242.51h139.9v-22.66H65.65V242.51z"/>
	<path class="st6" d="M209.29,320.12H61.92c-2.06,0-3.73-1.67-3.73-3.73v-30.32c0-2.06,1.67-3.73,3.73-3.73h147.37
		c2.06,0,3.73,1.67,3.73,3.73v30.32C213.02,318.45,211.35,320.12,209.29,320.12z M65.65,312.67h139.9V289.8H65.65V312.67z"/>
	<path class="st6" d="M209.29,390.08H61.92c-2.06,0-3.73-1.67-3.73-3.73v-30.32c0-2.06,1.67-3.73,3.73-3.73h147.37
		c2.06,0,3.73,1.67,3.73,3.73v30.32C213.02,388.41,211.35,390.08,209.29,390.08z M65.65,382.62h139.9v-22.86H65.65V382.62z"/>
	<g>
		<defs>
			<rect id="SVGID_00000118377576589469314790000001070125002993724571_" y="51.81" width="511.99" height="408.38"/>
		</defs>
		<clipPath id="SVGID_00000125588373841187845960000007923439525290836919_">
			<use xlink:href="#SVGID_00000118377576589469314790000001070125002993724571_"  style="overflow:visible;"/>
		</clipPath>
		<path style="clip-path:url(#SVGID_00000125588373841187845960000007923439525290836919_);fill:#2B2961;" d="M209.29,460.04H61.92
			c-2.06,0-3.73-1.67-3.73-3.73v-30.32c0-2.06,1.67-3.73,3.73-3.73h147.37c2.06,0,3.73,1.67,3.73,3.73v30.32
			C213.02,458.37,211.35,460.04,209.29,460.04z M65.65,452.58h139.9v-22.86H65.65V452.58z"/>
	</g>
</g>
</svg>
