<?xml version="1.0" encoding="UTF-8"?> <!-- Generator: Adobe Illustrator 24.2.1, SVG Export Plug-In . SVG Version: 6.00 Build 0) --> <svg xmlns="http://www.w3.org/2000/svg" xmlns:xlink="http://www.w3.org/1999/xlink" version="1.1" id="Ebene_1" x="0px" y="0px" viewBox="0 0 469.1 348.3" style="enable-background:new 0 0 469.1 348.3;" xml:space="preserve"> <style type="text/css"> .st0{fill:#88D0CB;} .st1{fill:#62C6BF;} .st2{fill:none;stroke:#2A2C68;stroke-width:0.6;stroke-linejoin:round;} .st3{fill:#2A2C68;} .st4{font-family:'DINPro-Medium';} .st5{font-size:9.5px;} .st6{fill:#FFFFFF;} .st7{fill:#292C68;} .st8{font-family:'DINPro-Bold';} .st9{font-size:13px;} .st10{font-size:10px;} .st11{font-size:8px;} </style> <g id="Layer-1"> <path class="st0" d="M339,51.2v295.4h-14.2V51.2H339z"></path> </g> <g id="Layer-1_1_"> <path class="st0" d="M177,25.8v321.5h-14.2V25.8H177z"></path> </g> <g id="Layer-1_2_"> <path class="st0" d="M15,71.8v275.5H0.8l0-275.5H15z"></path> </g> <g id="Layer-1_3_"> <path class="st1" d="M1.6,347.3V255h142.7v92.3H1.6z"></path> </g> <g id="Layer-1_4_"> <path class="st1" d="M162.7,347.3V255h143.9v92.3L162.7,347.3z"></path> </g> <g id="Layer-1_5_"> <path class="st1" d="M325.5,347.3V255h142.7v92.3H325.5z"></path> </g> <g id="Layer-1_6_"> <path class="st2" d="M1.1,347v-91.7H144V347H1.1z"></path> </g> <g id="Layer-1_7_"> <path class="st2" d="M163.4,347v-91.7h142.8V347L163.4,347z"></path> </g> <g id="Layer-1_8_"> <path class="st2" d="M325.1,347v-91.7h142.8V347H325.1z"></path> </g> <g id="Layer-1_9_"> <text transform="matrix(1 0 0 1 363.0418 272.9587)" class="st3 st4 st5">V</text> <text transform="matrix(1 0 0 1 368.1141 272.9587)" class="st3 st4 st5">o</text> <text transform="matrix(1 0 0 1 373.3113 272.9587)" class="st3 st4 st5">r</text> <text transform="matrix(1 0 0 1 377.4813 272.9587)" class="st3 st4 st5">a</text> <text transform="matrix(1 0 0 1 382.6102 272.9587)" class="st3 st4 st5">u</text> <text transform="matrix(1 0 0 1 388.1024 272.9587)" class="st3 st4 st5">s</text> <text transform="matrix(1 0 0 1 392.8895 272.9587)" class="st3 st4 st5">s</text> <text transform="matrix(1 0 0 1 397.7254 272.9587)" class="st3 st4 st5">e</text> <text transform="matrix(1 0 0 1 402.9402 272.9587)" class="st3 st4 st5">t</text> <text transform="matrix(1 0 0 1 406.2859 272.9587)" class="st3 st4 st5">z</text> <text transform="matrix(1 0 0 1 410.8348 272.9587)" class="st3 st4 st5">u</text> <text transform="matrix(1 0 0 1 416.327 272.9587)" class="st3 st4 st5">n</text> <text transform="matrix(1 0 0 1 421.8172 272.9587)" class="st3 st4 st5">g</text> <text transform="matrix(1 0 0 1 427.1277 272.9587)" class="st3 st4 st5">:</text> </g> <g id="Layer-1_10_"> <text transform="matrix(1 0 0 1 357.9344 282.9587)" class="st3 st4 st5">B</text> <text transform="matrix(1 0 0 1 364.3289 282.9587)" class="st3 st4 st5">e</text> <text transform="matrix(1 0 0 1 369.5438 282.9587)" class="st3 st4 st5">r</text> <text transform="matrix(1 0 0 1 373.8094 282.9587)" class="st3 st4 st5">u</text> <text transform="matrix(1 0 0 1 379.2996 282.9587)" class="st3 st4 st5">f</text> <text transform="matrix(1 0 0 1 382.368 282.9587)" class="st3 st4 st5">s</text> <text transform="matrix(1 0 0 1 387.2039 282.9587)" class="st3 st4 st5">a</text> <text transform="matrix(1 0 0 1 392.3348 282.9587)" class="st3 st4 st5">u</text> <text transform="matrix(1 0 0 1 397.825 282.9587)" class="st3 st4 st5">s</text> <text transform="matrix(1 0 0 1 402.6609 282.9587)" class="st3 st4 st5">b</text> <text transform="matrix(1 0 0 1 408.0086 282.9587)" class="st3 st4 st5">i</text> <text transform="matrix(1 0 0 1 410.6121 282.9587)" class="st3 st4 st5">l</text> <text transform="matrix(1 0 0 1 413.5672 282.9587)" class="st3 st4 st5">d</text> <text transform="matrix(1 0 0 1 418.9149 282.9587)" class="st3 st4 st5">u</text> <text transform="matrix(1 0 0 1 424.407 282.9587)" class="st3 st4 st5">n</text> <text transform="matrix(1 0 0 1 429.8973 282.9587)" class="st3 st4 st5">g</text> </g> <g id="Layer-1_11_"> <text transform="matrix(1 0 0 1 356.3055 292.9587)" class="st3 st4 st5">+</text> <text transform="matrix(1 0 0 1 361.4637 292.9587)" class="st3 st4 st5"> </text> <text transform="matrix(1 0 0 1 363.8387 292.9587)" class="st3 st4 st5">B</text> <text transform="matrix(1 0 0 1 370.2332 292.9587)" class="st3 st4 st5">e</text> <text transform="matrix(1 0 0 1 375.4481 292.9587)" class="st3 st4 st5">r</text> <text transform="matrix(1 0 0 1 379.7137 292.9587)" class="st3 st4 st5">u</text> <text transform="matrix(1 0 0 1 385.2039 292.9587)" class="st3 st4 st5">f</text> <text transform="matrix(1 0 0 1 388.2723 292.9587)" class="st3 st4 st5">s</text> <text transform="matrix(1 0 0 1 393.1082 292.9587)" class="st3 st4 st5">e</text> <text transform="matrix(1 0 0 1 398.325 292.9587)" class="st3 st4 st5">r</text> <text transform="matrix(1 0 0 1 402.5906 292.9587)" class="st3 st4 st5">f</text> <text transform="matrix(1 0 0 1 405.659 292.9587)" class="st3 st4 st5">a</text> <text transform="matrix(1 0 0 1 410.7879 292.9587)" class="st3 st4 st5">h</text> <text transform="matrix(1 0 0 1 416.2801 292.9587)" class="st3 st4 st5">r</text> <text transform="matrix(1 0 0 1 420.5457 292.9587)" class="st3 st4 st5">u</text> <text transform="matrix(1 0 0 1 426.0359 292.9587)" class="st3 st4 st5">n</text> <text transform="matrix(1 0 0 1 431.5262 292.9587)" class="st3 st4 st5">g</text> </g> <g id="Layer-1_12_"> <text transform="matrix(1 0 0 1 365.7391 302.9587)" class="st6 st4 st5">P</text> <text transform="matrix(1 0 0 1 371.8094 302.9587)" class="st6 st4 st5">r</text> <text transform="matrix(1 0 0 1 375.7899 302.9587)" class="st6 st4 st5">e</text> <text transform="matrix(1 0 0 1 381.0047 302.9587)" class="st6 st4 st5">r</text> <text transform="matrix(1 0 0 1 384.9871 302.9587)" class="st6 st4 st5">e</text> <text transform="matrix(1 0 0 1 390.202 302.9587)" class="st6 st4 st5">q</text> <text transform="matrix(1 0 0 1 395.5496 302.9587)" class="st6 st4 st5">u</text> <text transform="matrix(1 0 0 1 401.0418 302.9587)" class="st6 st4 st5">i</text> <text transform="matrix(1 0 0 1 403.6434 302.9587)" class="st6 st4 st5">s</text> <text transform="matrix(1 0 0 1 408.4793 302.9587)" class="st6 st4 st5">i</text> <text transform="matrix(1 0 0 1 411.0828 302.9587)" class="st6 st4 st5">t</text> <text transform="matrix(1 0 0 1 414.3797 302.9587)" class="st6 st4 st5">e</text> <text transform="matrix(1 0 0 1 419.5945 302.9587)" class="st6 st4 st5">s</text> <text transform="matrix(1 0 0 1 424.4305 302.9587)" class="st6 st4 st5">:</text> </g> <g id="Layer-1_13_"> <text transform="matrix(1 0 0 1 355.8777 312.9587)" class="st6 st4 st5">V</text> <text transform="matrix(1 0 0 1 360.952 312.9587)" class="st6 st4 st5">o</text> <text transform="matrix(1 0 0 1 366.1473 312.9587)" class="st6 st4 st5">c</text> <text transform="matrix(1 0 0 1 370.8035 312.9587)" class="st6 st4 st5">a</text> <text transform="matrix(1 0 0 1 375.9324 312.9587)" class="st6 st4 st5">t</text> <text transform="matrix(1 0 0 1 379.2762 312.9587)" class="st6 st4 st5">i</text> <text transform="matrix(1 0 0 1 381.8797 312.9587)" class="st6 st4 st5">o</text> <text transform="matrix(1 0 0 1 387.077 312.9587)" class="st6 st4 st5">n</text> <text transform="matrix(1 0 0 1 392.5672 312.9587)" class="st6 st4 st5">a</text> <text transform="matrix(1 0 0 1 397.6981 312.9587)" class="st6 st4 st5">l</text> <text transform="matrix(1 0 0 1 400.7469 312.9587)" class="st6 st4 st5"> </text> <text transform="matrix(1 0 0 1 403.1219 312.9587)" class="st6 st4 st5">t</text> <text transform="matrix(1 0 0 1 406.4656 312.9587)" class="st6 st4 st5">r</text> <text transform="matrix(1 0 0 1 410.6356 312.9587)" class="st6 st4 st5">a</text> <text transform="matrix(1 0 0 1 415.7664 312.9587)" class="st6 st4 st5">i</text> <text transform="matrix(1 0 0 1 418.3699 312.9587)" class="st6 st4 st5">n</text> <text transform="matrix(1 0 0 1 423.8602 312.9587)" class="st6 st4 st5">i</text> <text transform="matrix(1 0 0 1 426.4637 312.9587)" class="st6 st4 st5">n</text> <text transform="matrix(1 0 0 1 431.9539 312.9587)" class="st6 st4 st5">g</text> </g> <g id="Layer-1_14_"> <text transform="matrix(1 0 0 1 356.7762 322.9587)" class="st6 st4 st5">+</text> <text transform="matrix(1 0 0 1 361.9344 322.9587)" class="st6 st4 st5"> </text> <text transform="matrix(1 0 0 1 364.3094 322.9587)" class="st6 st4 st5">w</text> <text transform="matrix(1 0 0 1 371.4149 322.9587)" class="st6 st4 st5">o</text> <text transform="matrix(1 0 0 1 376.6121 322.9587)" class="st6 st4 st5">r</text> <text transform="matrix(1 0 0 1 380.8777 322.9587)" class="st6 st4 st5">k</text> <text transform="matrix(1 0 0 1 386.1785 322.9587)" class="st6 st4 st5"> </text> <text transform="matrix(1 0 0 1 388.5535 322.9587)" class="st6 st4 st5">e</text> <text transform="matrix(1 0 0 1 393.5789 322.9587)" class="st6 st4 st5">x</text> <text transform="matrix(1 0 0 1 398.452 322.9587)" class="st6 st4 st5">p</text> <text transform="matrix(1 0 0 1 403.8016 322.9587)" class="st6 st4 st5">e</text> <text transform="matrix(1 0 0 1 409.0164 322.9587)" class="st6 st4 st5">r</text> <text transform="matrix(1 0 0 1 413.282 322.9587)" class="st6 st4 st5">i</text> <text transform="matrix(1 0 0 1 415.8856 322.9587)" class="st6 st4 st5">e</text> <text transform="matrix(1 0 0 1 421.1004 322.9587)" class="st6 st4 st5">n</text> <text transform="matrix(1 0 0 1 426.5926 322.9587)" class="st6 st4 st5">c</text> <text transform="matrix(1 0 0 1 431.1512 322.9587)" class="st6 st4 st5">e</text> </g> <g id="Layer-1_15_"> <text transform="matrix(1 0 0 1 201.0418 273.5779)" class="st3 st4 st5">V</text> <text transform="matrix(1 0 0 1 206.1141 273.5779)" class="st3 st4 st5">o</text> <text transform="matrix(1 0 0 1 211.3113 273.5779)" class="st3 st4 st5">r</text> <text transform="matrix(1 0 0 1 215.4813 273.5779)" class="st3 st4 st5">a</text> <text transform="matrix(1 0 0 1 220.6102 273.5779)" class="st3 st4 st5">u</text> <text transform="matrix(1 0 0 1 226.1024 273.5779)" class="st3 st4 st5">s</text> <text transform="matrix(1 0 0 1 230.8895 273.5779)" class="st3 st4 st5">s</text> <text transform="matrix(1 0 0 1 235.7254 273.5779)" class="st3 st4 st5">e</text> <text transform="matrix(1 0 0 1 240.9402 273.5779)" class="st3 st4 st5">t</text> <text transform="matrix(1 0 0 1 244.2859 273.5779)" class="st3 st4 st5">z</text> <text transform="matrix(1 0 0 1 248.8348 273.5779)" class="st3 st4 st5">u</text> <text transform="matrix(1 0 0 1 254.327 273.5779)" class="st3 st4 st5">n</text> <text transform="matrix(1 0 0 1 259.8172 273.5779)" class="st3 st4 st5">g</text> <text transform="matrix(1 0 0 1 265.1277 273.5779)" class="st3 st4 st5">:</text> </g> <g id="Layer-1_16_"> <text transform="matrix(1 0 0 1 205.0789 283.5779)" class="st3 st4 st5">M</text> <text transform="matrix(1 0 0 1 212.8973 283.5779)" class="st3 st4 st5">i</text> <text transform="matrix(1 0 0 1 215.5008 283.5779)" class="st3 st4 st5">t</text> <text transform="matrix(1 0 0 1 218.8445 283.5779)" class="st3 st4 st5">t</text> <text transform="matrix(1 0 0 1 222.1883 283.5779)" class="st3 st4 st5">l</text> <text transform="matrix(1 0 0 1 225.1434 283.5779)" class="st3 st4 st5">e</text> <text transform="matrix(1 0 0 1 230.3582 283.5779)" class="st3 st4 st5">r</text> <text transform="matrix(1 0 0 1 234.3387 283.5779)" class="st3 st4 st5">e</text> <text transform="matrix(1 0 0 1 239.5535 283.5779)" class="st3 st4 st5"> </text> <text transform="matrix(1 0 0 1 241.9285 283.5779)" class="st3 st4 st5">R</text> <text transform="matrix(1 0 0 1 247.9617 283.5779)" class="st3 st4 st5">e</text> <text transform="matrix(1 0 0 1 253.1766 283.5779)" class="st3 st4 st5">i</text> <text transform="matrix(1 0 0 1 255.7801 283.5779)" class="st3 st4 st5">f</text> <text transform="matrix(1 0 0 1 258.8484 283.5779)" class="st3 st4 st5">e</text> </g> <g id="Layer-1_17_"> <text transform="matrix(1 0 0 1 206.3524 293.5779)" class="st3 st4 st5">+</text> <text transform="matrix(1 0 0 1 211.5106 293.5779)" class="st3 st4 st5"> </text> <text transform="matrix(1 0 0 1 213.8856 293.5779)" class="st3 st4 st5">A</text> <text transform="matrix(1 0 0 1 219.9168 293.5779)" class="st3 st4 st5">u</text> <text transform="matrix(1 0 0 1 225.409 293.5779)" class="st3 st4 st5">s</text> <text transform="matrix(1 0 0 1 230.2449 293.5779)" class="st3 st4 st5">b</text> <text transform="matrix(1 0 0 1 235.5926 293.5779)" class="st3 st4 st5">i</text> <text transform="matrix(1 0 0 1 238.1961 293.5779)" class="st3 st4 st5">l</text> <text transform="matrix(1 0 0 1 241.1492 293.5779)" class="st3 st4 st5">d</text> <text transform="matrix(1 0 0 1 246.4988 293.5779)" class="st3 st4 st5">u</text> <text transform="matrix(1 0 0 1 251.9891 293.5779)" class="st3 st4 st5">n</text> <text transform="matrix(1 0 0 1 257.4813 293.5779)" class="st3 st4 st5">g</text> </g> <g id="Layer-1_18_"> <text transform="matrix(1 0 0 1 203.7391 303.5779)" class="st6 st4 st5">P</text> <text transform="matrix(1 0 0 1 209.8094 303.5779)" class="st6 st4 st5">r</text> <text transform="matrix(1 0 0 1 213.7899 303.5779)" class="st6 st4 st5">e</text> <text transform="matrix(1 0 0 1 219.0047 303.5779)" class="st6 st4 st5">r</text> <text transform="matrix(1 0 0 1 222.9852 303.5779)" class="st6 st4 st5">e</text> <text transform="matrix(1 0 0 1 228.202 303.5779)" class="st6 st4 st5">q</text> <text transform="matrix(1 0 0 1 233.5496 303.5779)" class="st6 st4 st5">u</text> <text transform="matrix(1 0 0 1 239.0418 303.5779)" class="st6 st4 st5">i</text> <text transform="matrix(1 0 0 1 241.6434 303.5779)" class="st6 st4 st5">s</text> <text transform="matrix(1 0 0 1 246.4793 303.5779)" class="st6 st4 st5">i</text> <text transform="matrix(1 0 0 1 249.0828 303.5779)" class="st6 st4 st5">t</text> <text transform="matrix(1 0 0 1 252.3797 303.5779)" class="st6 st4 st5">e</text> <text transform="matrix(1 0 0 1 257.5945 303.5779)" class="st6 st4 st5">s</text> <text transform="matrix(1 0 0 1 262.4305 303.5779)" class="st6 st4 st5">:</text> </g> <g id="Layer-1_19_"> <text transform="matrix(1 0 0 1 167.4725 313.5779)" class="st6 st4 st5">I</text> <text transform="matrix(1 0 0 1 170.3611 313.5779)" class="st6 st4 st5">n</text> <text transform="matrix(1 0 0 1 175.8514 313.5779)" class="st6 st4 st5">t</text> <text transform="matrix(1 0 0 1 179.1483 313.5779)" class="st6 st4 st5">e</text> <text transform="matrix(1 0 0 1 184.3631 313.5779)" class="st6 st4 st5">r</text> <text transform="matrix(1 0 0 1 188.6287 313.5779)" class="st6 st4 st5">m</text> <text transform="matrix(1 0 0 1 197.0574 313.5779)" class="st6 st4 st5">e</text> <text transform="matrix(1 0 0 1 202.2723 313.5779)" class="st6 st4 st5">d</text> <text transform="matrix(1 0 0 1 207.6199 313.5779)" class="st6 st4 st5">i</text> <text transform="matrix(1 0 0 1 210.2234 313.5779)" class="st6 st4 st5">a</text> <text transform="matrix(1 0 0 1 215.3543 313.5779)" class="st6 st4 st5">t</text> <text transform="matrix(1 0 0 1 218.6492 313.5779)" class="st6 st4 st5">e</text> <text transform="matrix(1 0 0 1 223.866 313.5779)" class="st6 st4 st5"> </text> <text transform="matrix(1 0 0 1 226.241 313.5779)" class="st6 st4 st5">s</text> <text transform="matrix(1 0 0 1 231.077 313.5779)" class="st6 st4 st5">e</text> <text transform="matrix(1 0 0 1 236.2918 313.5779)" class="st6 st4 st5">c</text> <text transform="matrix(1 0 0 1 240.8524 313.5779)" class="st6 st4 st5">o</text> <text transform="matrix(1 0 0 1 246.0477 313.5779)" class="st6 st4 st5">n</text> <text transform="matrix(1 0 0 1 251.5399 313.5779)" class="st6 st4 st5">d</text> <text transform="matrix(1 0 0 1 256.8875 313.5779)" class="st6 st4 st5">a</text> <text transform="matrix(1 0 0 1 262.0184 313.5779)" class="st6 st4 st5">r</text> <text transform="matrix(1 0 0 1 266.284 313.5779)" class="st6 st4 st5">y</text> <text transform="matrix(1 0 0 1 270.825 313.5779)" class="st6 st4 st5"> </text> <text transform="matrix(1 0 0 1 273.2 313.5779)" class="st6 st4 st5">s</text> <text transform="matrix(1 0 0 1 278.034 313.5779)" class="st6 st4 st5">c</text> <text transform="matrix(1 0 0 1 282.7371 313.5779)" class="st6 st4 st5">h</text> <text transform="matrix(1 0 0 1 288.2274 313.5779)" class="st6 st4 st5">o</text> <text transform="matrix(1 0 0 1 293.4246 313.5779)" class="st6 st4 st5">o</text> <text transform="matrix(1 0 0 1 298.6219 313.5779)" class="st6 st4 st5">l</text> <text transform="matrix(1 0 0 1 301.575 313.5779)" class="st6 st4 st5"> </text> </g> <g id="Layer-1_20_"> <text transform="matrix(1 0 0 1 195.6981 323.5779)" class="st6 st4 st5">l</text> <text transform="matrix(1 0 0 1 198.6512 323.5779)" class="st6 st4 st5">e</text> <text transform="matrix(1 0 0 1 203.868 323.5779)" class="st6 st4 st5">a</text> <text transform="matrix(1 0 0 1 208.9969 323.5779)" class="st6 st4 st5">v</text> <text transform="matrix(1 0 0 1 213.5672 323.5779)" class="st6 st4 st5">i</text> <text transform="matrix(1 0 0 1 216.1707 323.5779)" class="st6 st4 st5">n</text> <text transform="matrix(1 0 0 1 221.6609 323.5779)" class="st6 st4 st5">g</text> <text transform="matrix(1 0 0 1 226.9715 323.5779)" class="st6 st4 st5"> </text> <text transform="matrix(1 0 0 1 229.3465 323.5779)" class="st6 st4 st5">c</text> <text transform="matrix(1 0 0 1 233.907 323.5779)" class="st6 st4 st5">e</text> <text transform="matrix(1 0 0 1 239.1219 323.5779)" class="st6 st4 st5">r</text> <text transform="matrix(1 0 0 1 243.3875 323.5779)" class="st6 st4 st5">t</text> <text transform="matrix(1 0 0 1 246.7313 323.5779)" class="st6 st4 st5">i</text> <text transform="matrix(1 0 0 1 249.3348 323.5779)" class="st6 st4 st5">f</text> <text transform="matrix(1 0 0 1 252.5457 323.5779)" class="st6 st4 st5">i</text> <text transform="matrix(1 0 0 1 255.1492 323.5779)" class="st6 st4 st5">c</text> <text transform="matrix(1 0 0 1 259.8035 323.5779)" class="st6 st4 st5">a</text> <text transform="matrix(1 0 0 1 264.9344 323.5779)" class="st6 st4 st5">t</text> <text transform="matrix(1 0 0 1 268.2313 323.5779)" class="st6 st4 st5">e</text> </g> <g id="Layer-1_21_"> <text transform="matrix(1 0 0 1 198.5477 333.5779)" class="st6 st4 st5">+</text> <text transform="matrix(1 0 0 1 203.7059 333.5779)" class="st6 st4 st5"> </text> <text transform="matrix(1 0 0 1 206.0809 333.5779)" class="st6 st4 st5">a</text> <text transform="matrix(1 0 0 1 211.2117 333.5779)" class="st6 st4 st5">p</text> <text transform="matrix(1 0 0 1 216.5594 333.5779)" class="st6 st4 st5">p</text> <text transform="matrix(1 0 0 1 221.909 333.5779)" class="st6 st4 st5">r</text> <text transform="matrix(1 0 0 1 225.8895 333.5779)" class="st6 st4 st5">e</text> <text transform="matrix(1 0 0 1 231.1043 333.5779)" class="st6 st4 st5">n</text> <text transform="matrix(1 0 0 1 236.5945 333.5779)" class="st6 st4 st5">t</text> <text transform="matrix(1 0 0 1 239.9383 333.5779)" class="st6 st4 st5">i</text> <text transform="matrix(1 0 0 1 242.5418 333.5779)" class="st6 st4 st5">c</text> <text transform="matrix(1 0 0 1 247.1024 333.5779)" class="st6 st4 st5">e</text> <text transform="matrix(1 0 0 1 252.3172 333.5779)" class="st6 st4 st5">s</text> <text transform="matrix(1 0 0 1 257.1531 333.5779)" class="st6 st4 st5">h</text> <text transform="matrix(1 0 0 1 262.6434 333.5779)" class="st6 st4 st5">i</text> <text transform="matrix(1 0 0 1 265.2469 333.5779)" class="st6 st4 st5">p</text> </g> <g id="Layer-1_22_"> <text transform="matrix(1 0 0 1 39.0408 273.5779)" class="st3 st4 st5">V</text> <text transform="matrix(1 0 0 1 44.1131 273.5779)" class="st3 st4 st5">o</text> <text transform="matrix(1 0 0 1 49.3104 273.5779)" class="st3 st4 st5">r</text> <text transform="matrix(1 0 0 1 53.4803 273.5779)" class="st3 st4 st5">a</text> <text transform="matrix(1 0 0 1 58.6092 273.5779)" class="st3 st4 st5">u</text> <text transform="matrix(1 0 0 1 64.1014 273.5779)" class="st3 st4 st5">s</text> <text transform="matrix(1 0 0 1 68.8885 273.5779)" class="st3 st4 st5">s</text> <text transform="matrix(1 0 0 1 73.7244 273.5779)" class="st3 st4 st5">e</text> <text transform="matrix(1 0 0 1 78.9393 273.5779)" class="st3 st4 st5">t</text> <text transform="matrix(1 0 0 1 82.285 273.5779)" class="st3 st4 st5">z</text> <text transform="matrix(1 0 0 1 86.8338 273.5779)" class="st3 st4 st5">u</text> <text transform="matrix(1 0 0 1 92.326 273.5779)" class="st3 st4 st5">n</text> <text transform="matrix(1 0 0 1 97.8162 273.5779)" class="st3 st4 st5">g</text> <text transform="matrix(1 0 0 1 103.1268 273.5779)" class="st3 st4 st5">:</text> </g> <g id="Layer-1_23_"> <text transform="matrix(1 0 0 1 43.0779 283.5779)" class="st3 st4 st5">M</text> <text transform="matrix(1 0 0 1 50.8963 283.5779)" class="st3 st4 st5">i</text> <text transform="matrix(1 0 0 1 53.4998 283.5779)" class="st3 st4 st5">t</text> <text transform="matrix(1 0 0 1 56.8436 283.5779)" class="st3 st4 st5">t</text> <text transform="matrix(1 0 0 1 60.1873 283.5779)" class="st3 st4 st5">l</text> <text transform="matrix(1 0 0 1 63.1424 283.5779)" class="st3 st4 st5">e</text> <text transform="matrix(1 0 0 1 68.3572 283.5779)" class="st3 st4 st5">r</text> <text transform="matrix(1 0 0 1 72.3377 283.5779)" class="st3 st4 st5">e</text> <text transform="matrix(1 0 0 1 77.5526 283.5779)" class="st3 st4 st5"> </text> <text transform="matrix(1 0 0 1 79.9276 283.5779)" class="st3 st4 st5">R</text> <text transform="matrix(1 0 0 1 85.9608 283.5779)" class="st3 st4 st5">e</text> <text transform="matrix(1 0 0 1 91.1756 283.5779)" class="st3 st4 st5">i</text> <text transform="matrix(1 0 0 1 93.7791 283.5779)" class="st3 st4 st5">f</text> <text transform="matrix(1 0 0 1 96.8475 283.5779)" class="st3 st4 st5">e</text> </g> <g id="Layer-1_24_"> <text transform="matrix(1 0 0 1 44.3514 293.5779)" class="st3 st4 st5">+</text> <text transform="matrix(1 0 0 1 49.5096 293.5779)" class="st3 st4 st5"> </text> <text transform="matrix(1 0 0 1 51.8846 293.5779)" class="st3 st4 st5">A</text> <text transform="matrix(1 0 0 1 57.9158 293.5779)" class="st3 st4 st5">u</text> <text transform="matrix(1 0 0 1 63.408 293.5779)" class="st3 st4 st5">s</text> <text transform="matrix(1 0 0 1 68.244 293.5779)" class="st3 st4 st5">b</text> <text transform="matrix(1 0 0 1 73.5916 293.5779)" class="st3 st4 st5">i</text> <text transform="matrix(1 0 0 1 76.1951 293.5779)" class="st3 st4 st5">l</text> <text transform="matrix(1 0 0 1 79.1483 293.5779)" class="st3 st4 st5">d</text> <text transform="matrix(1 0 0 1 84.4979 293.5779)" class="st3 st4 st5">u</text> <text transform="matrix(1 0 0 1 89.9881 293.5779)" class="st3 st4 st5">n</text> <text transform="matrix(1 0 0 1 95.4803 293.5779)" class="st3 st4 st5">g</text> </g> <g id="Layer-1_25_"> <text transform="matrix(1 0 0 1 41.7381 303.5779)" class="st6 st4 st5">P</text> <text transform="matrix(1 0 0 1 47.8084 303.5779)" class="st6 st4 st5">r</text> <text transform="matrix(1 0 0 1 51.7889 303.5779)" class="st6 st4 st5">e</text> <text transform="matrix(1 0 0 1 57.0037 303.5779)" class="st6 st4 st5">r</text> <text transform="matrix(1 0 0 1 60.9842 303.5779)" class="st6 st4 st5">e</text> <text transform="matrix(1 0 0 1 66.201 303.5779)" class="st6 st4 st5">q</text> <text transform="matrix(1 0 0 1 71.5486 303.5779)" class="st6 st4 st5">u</text> <text transform="matrix(1 0 0 1 77.0408 303.5779)" class="st6 st4 st5">i</text> <text transform="matrix(1 0 0 1 79.6424 303.5779)" class="st6 st4 st5">s</text> <text transform="matrix(1 0 0 1 84.4783 303.5779)" class="st6 st4 st5">i</text> <text transform="matrix(1 0 0 1 87.0818 303.5779)" class="st6 st4 st5">t</text> <text transform="matrix(1 0 0 1 90.3787 303.5779)" class="st6 st4 st5">e</text> <text transform="matrix(1 0 0 1 95.5936 303.5779)" class="st6 st4 st5">s</text> <text transform="matrix(1 0 0 1 100.4295 303.5779)" class="st6 st4 st5">:</text> </g> <g id="Layer-1_26_"> <text transform="matrix(1 0 0 1 5.4725 313.5779)" class="st6 st4 st5">I</text> <text transform="matrix(1 0 0 1 8.3611 313.5779)" class="st6 st4 st5">n</text> <text transform="matrix(1 0 0 1 13.8514 313.5779)" class="st6 st4 st5">t</text> <text transform="matrix(1 0 0 1 17.1483 313.5779)" class="st6 st4 st5">e</text> <text transform="matrix(1 0 0 1 22.3631 313.5779)" class="st6 st4 st5">r</text> <text transform="matrix(1 0 0 1 26.6287 313.5779)" class="st6 st4 st5">m</text> <text transform="matrix(1 0 0 1 35.0565 313.5779)" class="st6 st4 st5">e</text> <text transform="matrix(1 0 0 1 40.2713 313.5779)" class="st6 st4 st5">d</text> <text transform="matrix(1 0 0 1 45.619 313.5779)" class="st6 st4 st5">i</text> <text transform="matrix(1 0 0 1 48.2225 313.5779)" class="st6 st4 st5">a</text> <text transform="matrix(1 0 0 1 53.3533 313.5779)" class="st6 st4 st5">t</text> <text transform="matrix(1 0 0 1 56.6483 313.5779)" class="st6 st4 st5">e</text> <text transform="matrix(1 0 0 1 61.8651 313.5779)" class="st6 st4 st5"> </text> <text transform="matrix(1 0 0 1 64.2401 313.5779)" class="st6 st4 st5">s</text> <text transform="matrix(1 0 0 1 69.074 313.5779)" class="st6 st4 st5">e</text> <text transform="matrix(1 0 0 1 74.2908 313.5779)" class="st6 st4 st5">c</text> <text transform="matrix(1 0 0 1 78.8514 313.5779)" class="st6 st4 st5">o</text> <text transform="matrix(1 0 0 1 84.0467 313.5779)" class="st6 st4 st5">n</text> <text transform="matrix(1 0 0 1 89.5389 313.5779)" class="st6 st4 st5">d</text> <text transform="matrix(1 0 0 1 94.8865 313.5779)" class="st6 st4 st5">a</text> <text transform="matrix(1 0 0 1 100.0174 313.5779)" class="st6 st4 st5">r</text> <text transform="matrix(1 0 0 1 104.283 313.5779)" class="st6 st4 st5">y</text> <text transform="matrix(1 0 0 1 108.8221 313.5779)" class="st6 st4 st5"> </text> <text transform="matrix(1 0 0 1 111.1971 313.5779)" class="st6 st4 st5">s</text> <text transform="matrix(1 0 0 1 116.033 313.5779)" class="st6 st4 st5">c</text> <text transform="matrix(1 0 0 1 120.7361 313.5779)" class="st6 st4 st5">h</text> <text transform="matrix(1 0 0 1 126.2264 313.5779)" class="st6 st4 st5">o</text> <text transform="matrix(1 0 0 1 131.4236 313.5779)" class="st6 st4 st5">o</text> <text transform="matrix(1 0 0 1 136.6209 313.5779)" class="st6 st4 st5">l</text> <text transform="matrix(1 0 0 1 139.574 313.5779)" class="st6 st4 st5"> </text> </g> <g id="Layer-1_27_"> <text transform="matrix(1 0 0 1 33.6971 323.5779)" class="st6 st4 st5">l</text> <text transform="matrix(1 0 0 1 36.6502 323.5779)" class="st6 st4 st5">e</text> <text transform="matrix(1 0 0 1 41.867 323.5779)" class="st6 st4 st5">a</text> <text transform="matrix(1 0 0 1 46.9959 323.5779)" class="st6 st4 st5">v</text> <text transform="matrix(1 0 0 1 51.5662 323.5779)" class="st6 st4 st5">i</text> <text transform="matrix(1 0 0 1 54.1697 323.5779)" class="st6 st4 st5">n</text> <text transform="matrix(1 0 0 1 59.66 323.5779)" class="st6 st4 st5">g</text> <text transform="matrix(1 0 0 1 64.9705 323.5779)" class="st6 st4 st5"> </text> <text transform="matrix(1 0 0 1 67.3455 323.5779)" class="st6 st4 st5">c</text> <text transform="matrix(1 0 0 1 71.9061 323.5779)" class="st6 st4 st5">e</text> <text transform="matrix(1 0 0 1 77.1209 323.5779)" class="st6 st4 st5">r</text> <text transform="matrix(1 0 0 1 81.3865 323.5779)" class="st6 st4 st5">t</text> <text transform="matrix(1 0 0 1 84.7303 323.5779)" class="st6 st4 st5">i</text> <text transform="matrix(1 0 0 1 87.3338 323.5779)" class="st6 st4 st5">f</text> <text transform="matrix(1 0 0 1 90.5447 323.5779)" class="st6 st4 st5">i</text> <text transform="matrix(1 0 0 1 93.1483 323.5779)" class="st6 st4 st5">c</text> <text transform="matrix(1 0 0 1 97.8026 323.5779)" class="st6 st4 st5">a</text> <text transform="matrix(1 0 0 1 102.9334 323.5779)" class="st6 st4 st5">t</text> <text transform="matrix(1 0 0 1 106.2303 323.5779)" class="st6 st4 st5">e</text> </g> <g id="Layer-1_28_"> <text transform="matrix(1 0 0 1 36.5467 333.5779)" class="st6 st4 st5">+</text> <text transform="matrix(1 0 0 1 41.7049 333.5779)" class="st6 st4 st5"> </text> <text transform="matrix(1 0 0 1 44.0799 333.5779)" class="st6 st4 st5">a</text> <text transform="matrix(1 0 0 1 49.2108 333.5779)" class="st6 st4 st5">p</text> <text transform="matrix(1 0 0 1 54.5584 333.5779)" class="st6 st4 st5">p</text> <text transform="matrix(1 0 0 1 59.9061 333.5779)" class="st6 st4 st5">r</text> <text transform="matrix(1 0 0 1 63.8865 333.5779)" class="st6 st4 st5">e</text> <text transform="matrix(1 0 0 1 69.1033 333.5779)" class="st6 st4 st5">n</text> <text transform="matrix(1 0 0 1 74.5936 333.5779)" class="st6 st4 st5">t</text> <text transform="matrix(1 0 0 1 77.9373 333.5779)" class="st6 st4 st5">i</text> <text transform="matrix(1 0 0 1 80.5408 333.5779)" class="st6 st4 st5">c</text> <text transform="matrix(1 0 0 1 85.1014 333.5779)" class="st6 st4 st5">e</text> <text transform="matrix(1 0 0 1 90.3162 333.5779)" class="st6 st4 st5">s</text> <text transform="matrix(1 0 0 1 95.1522 333.5779)" class="st6 st4 st5">h</text> <text transform="matrix(1 0 0 1 100.6424 333.5779)" class="st6 st4 st5">i</text> <text transform="matrix(1 0 0 1 103.2459 333.5779)" class="st6 st4 st5">p</text> </g> <g id="Layer-1_29_"> <path class="st1" d="M1.3,238.5V113.7h142.7v124.8H1.3z"></path> </g> <g id="Layer-1_30_"> <path class="st1" d="M162.8,237.8V113h143.4v124.8H162.8z"></path> </g> <g id="Layer-1_31_"> <path class="st1" d="M325.6,236.5V33h142.7v203.5H325.6z"></path> </g> <g id="Layer-1_32_"> <text transform="matrix(1 0 0 1 217.7215 144.7302)" class="st7 st8 st9">(</text> <text transform="matrix(1 0 0 1 222.3484 144.7302)" class="st7 st8 st9">B</text> <text transform="matrix(1 0 0 1 231.1629 144.7302)" class="st7 st8 st9">O</text> <text transform="matrix(1 0 0 1 239.7957 144.7302)" class="st7 st8 st9">S</text> <text transform="matrix(1 0 0 1 247.7391 144.7302)" class="st7 st8 st9">)</text> </g> <g id="Layer-1_33_"> <text transform="matrix(1 0 0 1 180.0018 160.3298)" class="st7 st8 st9">B</text> <text transform="matrix(1 0 0 1 188.8162 160.3298)" class="st7 st8 st9">e</text> <text transform="matrix(1 0 0 1 196.2 160.3298)" class="st7 st8 st9">r</text> <text transform="matrix(1 0 0 1 202.3758 160.3298)" class="st7 st8 st9">u</text> <text transform="matrix(1 0 0 1 210.0848 160.3298)" class="st7 st8 st9">f</text> <text transform="matrix(1 0 0 1 214.5945 160.3298)" class="st7 st8 st9">s</text> <text transform="matrix(1 0 0 1 221.368 160.3298)" class="st7 st8 st9">o</text> <text transform="matrix(1 0 0 1 228.6863 160.3298)" class="st7 st8 st9">b</text> <text transform="matrix(1 0 0 1 236.2274 160.3298)" class="st7 st8 st9">e</text> <text transform="matrix(1 0 0 1 243.6121 160.3298)" class="st7 st8 st9">r</text> <text transform="matrix(1 0 0 1 249.657 160.3298)" class="st7 st8 st9">s</text> <text transform="matrix(1 0 0 1 256.4285 160.3298)" class="st7 st8 st9">c</text> <text transform="matrix(1 0 0 1 262.9285 160.3298)" class="st7 st8 st9">h</text> <text transform="matrix(1 0 0 1 270.6375 160.3298)" class="st7 st8 st9">u</text> <text transform="matrix(1 0 0 1 278.3465 160.3298)" class="st7 st8 st9">l</text> <text transform="matrix(1 0 0 1 282.702 160.3298)" class="st7 st8 st9">e</text> </g> <g id="Layer-1_34_"> <text transform="matrix(0.97 0 0 1 174.5913 172.3288)" class="st6 st8 st10">V</text> <text transform="matrix(0.97 0 0 1 180.0327 172.3288)" class="st6 st8 st10">o</text> <text transform="matrix(0.97 0 0 1 185.4936 172.3288)" class="st6 st8 st10">c</text> <text transform="matrix(0.97 0 0 1 190.2944 172.3288)" class="st6 st8 st10">a</text> <text transform="matrix(0.97 0 0 1 195.6694 172.3288)" class="st6 st8 st10">t</text> <text transform="matrix(0.97 0 0 1 199.2768 172.3288)" class="st6 st8 st10">i</text> <text transform="matrix(0.97 0 0 1 202.1382 172.3288)" class="st6 st8 st10">o</text> <text transform="matrix(0.97 0 0 1 207.5991 172.3288)" class="st6 st8 st10">n</text> <text transform="matrix(0.97 0 0 1 213.3511 172.3288)" class="st6 st8 st10">a</text> <text transform="matrix(0.97 0 0 1 218.7261 172.3288)" class="st6 st8 st10">l</text> <text transform="matrix(0.97 0 0 1 222.0718 172.3288)" class="st6 st8 st10"> </text> <text transform="matrix(0.97 0 0 1 224.5171 172.3288)" class="st6 st8 st10">s</text> <text transform="matrix(0.97 0 0 1 229.5698 172.3288)" class="st6 st8 st10">c</text> <text transform="matrix(0.97 0 0 1 234.4214 172.3288)" class="st6 st8 st10">h</text> <text transform="matrix(0.97 0 0 1 240.1733 172.3288)" class="st6 st8 st10">o</text> <text transform="matrix(0.97 0 0 1 245.6343 172.3288)" class="st6 st8 st10">o</text> <text transform="matrix(0.97 0 0 1 251.0952 172.3288)" class="st6 st8 st10">l</text> <text transform="matrix(0.97 0 0 1 254.4409 172.3288)" class="st6 st8 st10"> </text> <text transform="matrix(0.97 0 0 1 256.8862 172.3288)" class="st6 st8 st10">a</text> <text transform="matrix(0.97 0 0 1 262.2593 172.3288)" class="st6 st8 st10">t</text> <text transform="matrix(0.97 0 0 1 265.8687 172.3288)" class="st6 st8 st10"> </text> <text transform="matrix(0.97 0 0 1 268.312 172.3288)" class="st6 st8 st10">u</text> <text transform="matrix(0.97 0 0 1 274.064 172.3288)" class="st6 st8 st10">p</text> <text transform="matrix(0.97 0 0 1 279.6909 172.3288)" class="st6 st8 st10">p</text> <text transform="matrix(0.97 0 0 1 285.3159 172.3288)" class="st6 st8 st10">e</text> <text transform="matrix(0.97 0 0 1 290.8257 172.3288)" class="st6 st8 st10">r</text> <text transform="matrix(0.97 0 0 1 295.2397 172.3288)" class="st6 st8 st10"> </text> </g> <g id="Layer-1_35_"> <text transform="matrix(0.97 0 0 1 199.0483 184.3288)" class="st6 st8 st10">s</text> <text transform="matrix(0.97 0 0 1 204.103 184.3288)" class="st6 st8 st10">e</text> <text transform="matrix(0.97 0 0 1 209.6128 184.3288)" class="st6 st8 st10">c</text> <text transform="matrix(0.97 0 0 1 214.3179 184.3288)" class="st6 st8 st10">o</text> <text transform="matrix(0.97 0 0 1 219.7788 184.3288)" class="st6 st8 st10">n</text> <text transform="matrix(0.97 0 0 1 225.5307 184.3288)" class="st6 st8 st10">d</text> <text transform="matrix(0.97 0 0 1 231.1655 184.3288)" class="st6 st8 st10">a</text> <text transform="matrix(0.97 0 0 1 236.5405 184.3288)" class="st6 st8 st10">r</text> <text transform="matrix(0.97 0 0 1 241.1479 184.3288)" class="st6 st8 st10">y</text> <text transform="matrix(0.97 0 0 1 246.1323 184.3288)" class="st6 st8 st10"> </text> <text transform="matrix(0.97 0 0 1 248.5776 184.3288)" class="st6 st8 st10">l</text> <text transform="matrix(0.97 0 0 1 251.8276 184.3288)" class="st6 st8 st10">e</text> <text transform="matrix(0.97 0 0 1 257.2397 184.3288)" class="st6 st8 st10">v</text> <text transform="matrix(0.97 0 0 1 262.1187 184.3288)" class="st6 st8 st10">e</text> <text transform="matrix(0.97 0 0 1 267.6284 184.3288)" class="st6 st8 st10">l</text> </g> <g id="Layer-1_36_"> <text transform="matrix(1 0 0 1 204.3856 214.3298)" class="st3 st4 st5">D</text> <text transform="matrix(1 0 0 1 210.8074 214.3298)" class="st3 st4 st5">a</text> <text transform="matrix(1 0 0 1 215.9383 214.3298)" class="st3 st4 st5">u</text> <text transform="matrix(1 0 0 1 221.4285 214.3298)" class="st3 st4 st5">e</text> <text transform="matrix(1 0 0 1 226.6453 214.3298)" class="st3 st4 st5">r</text> <text transform="matrix(1 0 0 1 230.909 214.3298)" class="st3 st4 st5"> </text> <text transform="matrix(1 0 0 1 233.284 214.3298)" class="st3 st4 st5">2</text> <text transform="matrix(1 0 0 1 238.4442 214.3298)" class="st3 st4 st5"> </text> <text transform="matrix(1 0 0 1 240.8192 214.3298)" class="st3 st4 st5">J</text> <text transform="matrix(1 0 0 1 245.7195 214.3298)" class="st3 st4 st5">a</text> <text transform="matrix(1 0 0 1 250.8504 214.3298)" class="st3 st4 st5">h</text> <text transform="matrix(1 0 0 1 256.3406 214.3298)" class="st3 st4 st5">r</text> <text transform="matrix(1 0 0 1 260.3211 214.3298)" class="st3 st4 st5">e</text> </g> <g id="Layer-1_37_"> <text transform="matrix(1 0 0 1 219.2957 224.3298)" class="st6 st4 st5">2</text> <text transform="matrix(1 0 0 1 224.4539 224.3298)" class="st6 st4 st5"> </text> <text transform="matrix(1 0 0 1 226.8289 224.3298)" class="st6 st4 st5">y</text> <text transform="matrix(1 0 0 1 231.2762 224.3298)" class="st6 st4 st5">e</text> <text transform="matrix(1 0 0 1 236.491 224.3298)" class="st6 st4 st5">a</text> <text transform="matrix(1 0 0 1 241.6219 224.3298)" class="st6 st4 st5">r</text> <text transform="matrix(1 0 0 1 245.7918 224.3298)" class="st6 st4 st5">s</text> </g> <path class="st2" d="M1.1,238.2V114h143.1v124.2H1.1z"></path> <g id="Layer-1_38_"> <path class="st2" d="M163.1,237.5V113.2H306v124.3H163.1z"></path> </g> <g id="Layer-1_39_"> <path class="st2" d="M325.1,236.5V32.7H468v203.8H325.1z"></path> </g> <g id="Layer-1_40_"> <path class="st1" d="M0.9,51.2v21h143.4v-21H0.9z"></path> </g> <g id="Layer-1_41_"> <path class="st1" d="M12,4.6v21h294.1v-21H12z"></path> </g> <g id="Layer-1_42_"> <path class="st2" d="M1.1,51.2v21h143.3v-21H1.1z"></path> </g> <g id="Layer-1_43_"> <path class="st2" d="M12.6,4.6v21h293.5v-21H12.6z"></path> </g> <g id="Layer-1_44_"> <text transform="matrix(1 0 0 1 13.3338 65.2185)" class="st6 st8 st9">F</text> <text transform="matrix(1 0 0 1 20.8748 65.2185)" class="st6 st8 st9">a</text> <text transform="matrix(1 0 0 1 28.076 65.2185)" class="st6 st8 st9">c</text> <text transform="matrix(1 0 0 1 34.576 65.2185)" class="st6 st8 st9">h</text> <text transform="matrix(1 0 0 1 42.285 65.2185)" class="st6 st8 st9">h</text> <text transform="matrix(1 0 0 1 49.994 65.2185)" class="st6 st8 st9">o</text> <text transform="matrix(1 0 0 1 57.3123 65.2185)" class="st6 st8 st9">c</text> <text transform="matrix(1 0 0 1 63.8123 65.2185)" class="st6 st8 st9">h</text> <text transform="matrix(1 0 0 1 71.5213 65.2185)" class="st6 st8 st9">s</text> <text transform="matrix(1 0 0 1 78.2947 65.2185)" class="st6 st8 st9">c</text> <text transform="matrix(1 0 0 1 84.7947 65.2185)" class="st6 st8 st9">h</text> <text transform="matrix(1 0 0 1 92.5037 65.2185)" class="st6 st8 st9">u</text> <text transform="matrix(1 0 0 1 100.2127 65.2185)" class="st6 st8 st9">l</text> <text transform="matrix(1 0 0 1 104.6971 65.2185)" class="st6 st8 st9">r</text> <text transform="matrix(1 0 0 1 110.4822 65.2185)" class="st6 st8 st9">e</text> <text transform="matrix(1 0 0 1 117.867 65.2185)" class="st6 st8 st9">i</text> <text transform="matrix(1 0 0 1 121.7029 65.2185)" class="st6 st8 st9">f</text> <text transform="matrix(1 0 0 1 126.2127 65.2185)" class="st6 st8 st9">e</text> </g> <g id="Layer-1_45_"> <text transform="matrix(1 0 0 1 20.2264 18.6052)" class="st6 st8 st9"> </text> <text transform="matrix(1 0 0 1 23.5018 18.6052)" class="st6 st8 st9">F</text> <text transform="matrix(1 0 0 1 31.0428 18.6052)" class="st6 st8 st9">a</text> <text transform="matrix(1 0 0 1 38.244 18.6052)" class="st6 st8 st9">c</text> <text transform="matrix(1 0 0 1 44.744 18.6052)" class="st6 st8 st9">h</text> <text transform="matrix(1 0 0 1 52.4529 18.6052)" class="st6 st8 st9">g</text> <text transform="matrix(1 0 0 1 59.9295 18.6052)" class="st6 st8 st9">e</text> <text transform="matrix(1 0 0 1 67.3123 18.6052)" class="st6 st8 st9">b</text> <text transform="matrix(1 0 0 1 74.8533 18.6052)" class="st6 st8 st9">u</text> <text transform="matrix(1 0 0 1 82.5623 18.6052)" class="st6 st8 st9">n</text> <text transform="matrix(1 0 0 1 90.2713 18.6052)" class="st6 st8 st9">d</text> <text transform="matrix(1 0 0 1 97.824 18.6052)" class="st6 st8 st9">e</text> <text transform="matrix(1 0 0 1 105.2068 18.6052)" class="st6 st8 st9">n</text> <text transform="matrix(1 0 0 1 112.9158 18.6052)" class="st6 st8 st9">e</text> <text transform="matrix(1 0 0 1 120.3006 18.6052)" class="st6 st8 st9">s</text> <text transform="matrix(1 0 0 1 127.074 18.6052)" class="st6 st8 st9"> </text> <text transform="matrix(1 0 0 1 130.3494 18.6052)" class="st6 st8 st9">A</text> <text transform="matrix(1 0 0 1 138.9041 18.6052)" class="st6 st8 st9">b</text> <text transform="matrix(1 0 0 1 146.4432 18.6052)" class="st6 st8 st9">i</text> <text transform="matrix(1 0 0 1 150.2791 18.6052)" class="st6 st8 st9">t</text> <text transform="matrix(1 0 0 1 155.1151 18.6052)" class="st6 st8 st9">u</text> <text transform="matrix(1 0 0 1 162.824 18.6052)" class="st6 st8 st9">r</text> <text transform="matrix(1 0 0 1 168.9979 18.6052)" class="st6 st8 st9"> </text> <text transform="matrix(1 0 0 1 172.2752 18.6052)" class="st6 st8 st9">/</text> <text transform="matrix(1 0 0 1 177.7733 18.6052)" class="st6 st8 st9"> </text> <text transform="matrix(1 0 0 1 181.0506 18.6052)" class="st6 st8 st9">A</text> <text transform="matrix(1 0 0 1 189.6043 18.6052)" class="st6 st8 st9">l</text> <text transform="matrix(1 0 0 1 194.0887 18.6052)" class="st6 st8 st9">l</text> <text transform="matrix(1 0 0 1 198.4442 18.6052)" class="st6 st8 st9">g</text> <text transform="matrix(1 0 0 1 205.9188 18.6052)" class="st6 st8 st9">e</text> <text transform="matrix(1 0 0 1 213.3035 18.6052)" class="st6 st8 st9">m</text> <text transform="matrix(1 0 0 1 224.952 18.6052)" class="st6 st8 st9">e</text> <text transform="matrix(1 0 0 1 232.3348 18.6052)" class="st6 st8 st9">i</text> <text transform="matrix(1 0 0 1 236.1707 18.6052)" class="st6 st8 st9">n</text> <text transform="matrix(1 0 0 1 243.8797 18.6052)" class="st6 st8 st9">e</text> <text transform="matrix(1 0 0 1 251.2645 18.6052)" class="st6 st8 st9">s</text> <text transform="matrix(1 0 0 1 258.0359 18.6052)" class="st6 st8 st9"> </text> <text transform="matrix(1 0 0 1 261.3133 18.6052)" class="st6 st8 st9">A</text> <text transform="matrix(1 0 0 1 269.866 18.6052)" class="st6 st8 st9">b</text> <text transform="matrix(1 0 0 1 277.407 18.6052)" class="st6 st8 st9">i</text> <text transform="matrix(1 0 0 1 281.241 18.6052)" class="st6 st8 st9">t</text> <text transform="matrix(1 0 0 1 286.077 18.6052)" class="st6 st8 st9">u</text> <text transform="matrix(1 0 0 1 293.7859 18.6052)" class="st6 st8 st9">r</text> </g> <g id="Layer-1_46_"> <path class="st6" d="M329.5,250.1h4.7l-2.3-2.3L329.5,250.1z"></path> <path class="st6" d="M329.5,245h4.7l-2.3-2.3L329.5,245z"></path> </g> <g id="Layer-1_47_"> <path class="st6" d="M167.5,250.1h4.7l-2.3-2.3L167.5,250.1z"></path> <path class="st6" d="M167.5,245h4.7l-2.3-2.3L167.5,245z"></path> </g> <g id="Layer-1_48_"> <path class="st6" d="M5.5,250.1h4.7l-2.3-2.3L5.5,250.1z"></path> <path class="st6" d="M5.5,245h4.7l-2.3-2.3L5.5,245z"></path> </g> <g id="Layer-1_49_"> <path class="st6" d="M167.5,32.6h4.7l-2.3-2.3L167.5,32.6z"></path> <path class="st6" d="M167.5,60.6h4.7l-2.3-2.3L167.5,60.6z"></path> <path class="st6" d="M167.5,88.5h4.7l-2.3-2.3L167.5,88.5z"></path> <path class="st6" d="M167.5,46.6h4.7l-2.3-2.3L167.5,46.6z"></path> <path class="st6" d="M167.5,74.5h4.7l-2.3-2.3L167.5,74.5z"></path> <path class="st6" d="M167.5,102.5h4.7l-2.3-2.3L167.5,102.5z"></path> <path class="st6" d="M167.5,37.2h4.7l-2.3-2.3L167.5,37.2z"></path> <path class="st6" d="M167.5,65.2h4.7l-2.3-2.3L167.5,65.2z"></path> <path class="st6" d="M167.5,93.2h4.7l-2.3-2.3L167.5,93.2z"></path> <path class="st6" d="M167.5,51.2h4.7l-2.3-2.3L167.5,51.2z"></path> <path class="st6" d="M167.5,79.2h4.7l-2.3-2.3L167.5,79.2z"></path> <path class="st6" d="M167.5,107.2h4.7l-2.3-2.3L167.5,107.2z"></path> <path class="st6" d="M167.5,41.9h4.7l-2.3-2.3L167.5,41.9z"></path> <path class="st6" d="M167.5,69.9h4.7l-2.3-2.3L167.5,69.9z"></path> <path class="st6" d="M167.5,97.9h4.7l-2.3-2.3L167.5,97.9z"></path> <path class="st6" d="M167.5,55.9h4.7l-2.3-2.3L167.5,55.9z"></path> <path class="st6" d="M167.5,83.9h4.7l-2.3-2.3L167.5,83.9z"></path> </g> <g id="Layer-1_50_"> <path class="st6" d="M5.5,88.5h4.7l-2.3-2.3L5.5,88.5z"></path> <path class="st6" d="M5.5,102.5h4.7l-2.3-2.3L5.5,102.5z"></path> <path class="st6" d="M5.5,93.2h4.7l-2.3-2.3L5.5,93.2z"></path> <path class="st6" d="M5.5,79.2h4.7l-2.3-2.3L5.5,79.2z"></path> <path class="st6" d="M5.5,107.2h4.7l-2.3-2.3L5.5,107.2z"></path> <path class="st6" d="M5.5,97.9h4.7l-2.3-2.3L5.5,97.9z"></path> <path class="st6" d="M5.5,83.9h4.7l-2.3-2.3L5.5,83.9z"></path> </g> <g id="Layer-1_53_"> <text transform="matrix(1 0 0 1 358.4988 53.5642)" class="st7 st8 st9">F</text> <text transform="matrix(1 0 0 1 366.0379 53.5642)" class="st7 st8 st9">a</text> <text transform="matrix(1 0 0 1 373.241 53.5642)" class="st7 st8 st9">c</text> <text transform="matrix(1 0 0 1 379.741 53.5642)" class="st7 st8 st9">h</text> <text transform="matrix(1 0 0 1 387.45 53.5642)" class="st7 st8 st9">s</text> <text transform="matrix(1 0 0 1 394.2234 53.5642)" class="st7 st8 st9">c</text> <text transform="matrix(1 0 0 1 400.7234 53.5642)" class="st7 st8 st9">h</text> <text transform="matrix(1 0 0 1 408.4324 53.5642)" class="st7 st8 st9">u</text> <text transform="matrix(1 0 0 1 416.1414 53.5642)" class="st7 st8 st9">l</text> <text transform="matrix(1 0 0 1 420.4949 53.5642)" class="st7 st8 st9">e</text> <text transform="matrix(1 0 0 1 427.8797 53.5642)" class="st7 st8 st9">n</text> </g> <g id="Layer-1_54_"> <text transform="matrix(1 0 0 1 343.784 69.1638)" class="st6 st8 st9">S</text> <text transform="matrix(1 0 0 1 351.7254 69.1638)" class="st6 st8 st9">e</text> <text transform="matrix(1 0 0 1 359.1102 69.1638)" class="st6 st8 st9">n</text> <text transform="matrix(1 0 0 1 366.8192 69.1638)" class="st6 st8 st9">i</text> <text transform="matrix(1 0 0 1 370.6551 69.1638)" class="st6 st8 st9">o</text> <text transform="matrix(1 0 0 1 377.9734 69.1638)" class="st6 st8 st9">r</text> <text transform="matrix(1 0 0 1 384.1473 69.1638)" class="st6 st8 st9"> </text> <text transform="matrix(1 0 0 1 387.4246 69.1638)" class="st6 st8 st9">v</text> <text transform="matrix(1 0 0 1 393.9637 69.1638)" class="st6 st8 st9">o</text> <text transform="matrix(1 0 0 1 401.282 69.1638)" class="st6 st8 st9">c</text> <text transform="matrix(1 0 0 1 407.7176 69.1638)" class="st6 st8 st9">a</text> <text transform="matrix(1 0 0 1 414.9188 69.1638)" class="st6 st8 st9">t</text> <text transform="matrix(1 0 0 1 419.7547 69.1638)" class="st6 st8 st9">i</text> <text transform="matrix(1 0 0 1 423.5906 69.1638)" class="st6 st8 st9">o</text> <text transform="matrix(1 0 0 1 430.909 69.1638)" class="st6 st8 st9">n</text> <text transform="matrix(1 0 0 1 438.618 69.1638)" class="st6 st8 st9">a</text> <text transform="matrix(1 0 0 1 445.8211 69.1638)" class="st6 st8 st9">l</text> <text transform="matrix(1 0 0 1 450.0457 69.1638)" class="st6 st8 st9"> </text> </g> <g id="Layer-1_55_"> <text transform="matrix(1 0 0 1 373.6043 84.7634)" class="st6 st8 st9">s</text> <text transform="matrix(1 0 0 1 380.3777 84.7634)" class="st6 st8 st9">c</text> <text transform="matrix(1 0 0 1 386.8777 84.7634)" class="st6 st8 st9">h</text> <text transform="matrix(1 0 0 1 394.5867 84.7634)" class="st6 st8 st9">o</text> <text transform="matrix(1 0 0 1 401.9051 84.7634)" class="st6 st8 st9">o</text> <text transform="matrix(1 0 0 1 409.2254 84.7634)" class="st6 st8 st9">l</text> <text transform="matrix(1 0 0 1 413.7098 84.7634)" class="st6 st8 st9">s</text> </g> <g id="Layer-1_56_"> <text transform="matrix(1 0 0 1 359.3602 109.363)" class="st3 st4 st5">D</text> <text transform="matrix(1 0 0 1 365.782 109.363)" class="st3 st4 st5">a</text> <text transform="matrix(1 0 0 1 370.9129 109.363)" class="st3 st4 st5">u</text> <text transform="matrix(1 0 0 1 376.4031 109.363)" class="st3 st4 st5">e</text> <text transform="matrix(1 0 0 1 381.6199 109.363)" class="st3 st4 st5">r</text> <text transform="matrix(1 0 0 1 385.8856 109.363)" class="st3 st4 st5"> </text> <text transform="matrix(1 0 0 1 388.2606 109.363)" class="st3 st4 st5">1</text> <text transform="matrix(1 0 0 1 393.4188 109.363)" class="st3 st4 st5"> </text> <text transform="matrix(1 0 0 1 395.7938 109.363)" class="st3 st4 st5">-</text> <text transform="matrix(1 0 0 1 399.9363 109.363)" class="st3 st4 st5"> </text> <text transform="matrix(1 0 0 1 402.3113 109.363)" class="st3 st4 st5">2</text> <text transform="matrix(1 0 0 1 407.4695 109.363)" class="st3 st4 st5"> </text> <text transform="matrix(1 0 0 1 409.8445 109.363)" class="st3 st4 st5">J</text> <text transform="matrix(1 0 0 1 414.7469 109.363)" class="st3 st4 st5">a</text> <text transform="matrix(1 0 0 1 419.8758 109.363)" class="st3 st4 st5">h</text> <text transform="matrix(1 0 0 1 425.366 109.363)" class="st3 st4 st5">r</text> <text transform="matrix(1 0 0 1 429.3484 109.363)" class="st3 st4 st5">e</text> </g> <g id="Layer-1_57_"> <text transform="matrix(1 0 0 1 374.2703 118.363)" class="st6 st4 st5">1</text> <text transform="matrix(1 0 0 1 379.4285 118.363)" class="st6 st4 st5"> </text> <text transform="matrix(1 0 0 1 381.8035 118.363)" class="st6 st4 st5">-</text> <text transform="matrix(1 0 0 1 385.9461 118.363)" class="st6 st4 st5"> </text> <text transform="matrix(1 0 0 1 388.3211 118.363)" class="st6 st4 st5">2</text> <text transform="matrix(1 0 0 1 393.4793 118.363)" class="st6 st4 st5"> </text> <text transform="matrix(1 0 0 1 395.8543 118.363)" class="st6 st4 st5">y</text> <text transform="matrix(1 0 0 1 400.3016 118.363)" class="st6 st4 st5">e</text> <text transform="matrix(1 0 0 1 405.5164 118.363)" class="st6 st4 st5">a</text> <text transform="matrix(1 0 0 1 410.6473 118.363)" class="st6 st4 st5">r</text> <text transform="matrix(1 0 0 1 414.8172 118.363)" class="st6 st4 st5">s</text> </g> <g id="Layer-1_58_"> <text transform="matrix(1 0 0 1 350.3875 137.363)" class="st3 st4 st5">T</text> <text transform="matrix(1 0 0 1 355.0438 137.363)" class="st3 st4 st5">e</text> <text transform="matrix(1 0 0 1 360.2586 137.363)" class="st3 st4 st5">c</text> <text transform="matrix(1 0 0 1 364.9617 137.363)" class="st3 st4 st5">h</text> <text transform="matrix(1 0 0 1 370.452 137.363)" class="st3 st4 st5">n</text> <text transform="matrix(1 0 0 1 375.9422 137.363)" class="st3 st4 st5">i</text> <text transform="matrix(1 0 0 1 378.5457 137.363)" class="st3 st4 st5">k</text> <text transform="matrix(1 0 0 1 383.4676 137.363)" class="st3 st4 st5">e</text> <text transform="matrix(1 0 0 1 388.6824 137.363)" class="st3 st4 st5">r</text> <text transform="matrix(1 0 0 1 392.8524 137.363)" class="st3 st4 st5">a</text> <text transform="matrix(1 0 0 1 397.9832 137.363)" class="st3 st4 st5">u</text> <text transform="matrix(1 0 0 1 403.4734 137.363)" class="st3 st4 st5">s</text> <text transform="matrix(1 0 0 1 408.3094 137.363)" class="st3 st4 st5">b</text> <text transform="matrix(1 0 0 1 413.659 137.363)" class="st3 st4 st5">i</text> <text transform="matrix(1 0 0 1 416.2606 137.363)" class="st3 st4 st5">l</text> <text transform="matrix(1 0 0 1 419.2156 137.363)" class="st3 st4 st5">d</text> <text transform="matrix(1 0 0 1 424.5652 137.363)" class="st3 st4 st5">u</text> <text transform="matrix(1 0 0 1 430.0555 137.363)" class="st3 st4 st5">n</text> <text transform="matrix(1 0 0 1 435.5457 137.363)" class="st3 st4 st5">g</text> <text transform="matrix(1 0 0 1 440.8563 137.363)" class="st3 st4 st5">,</text> </g> <g id="Layer-1_59_"> <text transform="matrix(1 0 0 1 332.1727 147.363)" class="st3 st4 st5">F</text> <text transform="matrix(1 0 0 1 337.5399 147.363)" class="st3 st4 st5">a</text> <text transform="matrix(1 0 0 1 342.6707 147.363)" class="st3 st4 st5">c</text> <text transform="matrix(1 0 0 1 347.3719 147.363)" class="st3 st4 st5">h</text> <text transform="matrix(1 0 0 1 352.8641 147.363)" class="st3 st4 st5">w</text> <text transform="matrix(1 0 0 1 360.0164 147.363)" class="st3 st4 st5">i</text> <text transform="matrix(1 0 0 1 362.6199 147.363)" class="st3 st4 st5">r</text> <text transform="matrix(1 0 0 1 366.8856 147.363)" class="st3 st4 st5">t</text> <text transform="matrix(1 0 0 1 370.2293 147.363)" class="st3 st4 st5">/</text> <text transform="matrix(1 0 0 1 373.9344 147.363)" class="st3 st4 st5">-</text> <text transform="matrix(1 0 0 1 378.077 147.363)" class="st3 st4 st5">i</text> <text transform="matrix(1 0 0 1 380.6785 147.363)" class="st3 st4 st5">n</text> <text transform="matrix(1 0 0 1 386.1707 147.363)" class="st3 st4 st5">,</text> <text transform="matrix(1 0 0 1 388.8504 147.363)" class="st3 st4 st5"> </text> <text transform="matrix(1 0 0 1 391.2254 147.363)" class="st3 st4 st5">B</text> <text transform="matrix(1 0 0 1 397.618 147.363)" class="st3 st4 st5">e</text> <text transform="matrix(1 0 0 1 402.8328 147.363)" class="st3 st4 st5">t</text> <text transform="matrix(1 0 0 1 406.1785 147.363)" class="st3 st4 st5">r</text> <text transform="matrix(1 0 0 1 410.4422 147.363)" class="st3 st4 st5">i</text> <text transform="matrix(1 0 0 1 413.0457 147.363)" class="st3 st4 st5">e</text> <text transform="matrix(1 0 0 1 418.2625 147.363)" class="st3 st4 st5">b</text> <text transform="matrix(1 0 0 1 423.6102 147.363)" class="st3 st4 st5">s</text> <text transform="matrix(1 0 0 1 428.4461 147.363)" class="st3 st4 st5">w</text> <text transform="matrix(1 0 0 1 435.5984 147.363)" class="st3 st4 st5">i</text> <text transform="matrix(1 0 0 1 438.202 147.363)" class="st3 st4 st5">r</text> <text transform="matrix(1 0 0 1 442.4676 147.363)" class="st3 st4 st5">t</text> <text transform="matrix(1 0 0 1 445.8113 147.363)" class="st3 st4 st5">/</text> <text transform="matrix(1 0 0 1 449.5164 147.363)" class="st3 st4 st5">-</text> <text transform="matrix(1 0 0 1 453.659 147.363)" class="st3 st4 st5">i</text> <text transform="matrix(1 0 0 1 456.2625 147.363)" class="st3 st4 st5">n</text> </g> <g id="Layer-1_60_"> <text transform="matrix(1 0 0 1 372.4129 157.363)" class="st3 st4 st5">M</text> <text transform="matrix(1 0 0 1 380.2313 157.363)" class="st3 st4 st5">e</text> <text transform="matrix(1 0 0 1 385.4481 157.363)" class="st3 st4 st5">i</text> <text transform="matrix(1 0 0 1 388.0496 157.363)" class="st3 st4 st5">s</text> <text transform="matrix(1 0 0 1 392.7918 157.363)" class="st3 st4 st5">t</text> <text transform="matrix(1 0 0 1 396.0867 157.363)" class="st3 st4 st5">e</text> <text transform="matrix(1 0 0 1 401.3035 157.363)" class="st3 st4 st5">r</text> <text transform="matrix(1 0 0 1 405.5692 157.363)" class="st3 st4 st5">/</text> <text transform="matrix(1 0 0 1 409.2742 157.363)" class="st3 st4 st5">-</text> <text transform="matrix(1 0 0 1 413.4149 157.363)" class="st3 st4 st5">i</text> <text transform="matrix(1 0 0 1 416.0184 157.363)" class="st3 st4 st5">n</text> </g> <g id="Layer-1_61_"> <text transform="matrix(1 0 0 1 344.327 167.363)" class="st6 st4 st5">T</text> <text transform="matrix(1 0 0 1 349.1727 167.363)" class="st6 st4 st5">r</text> <text transform="matrix(1 0 0 1 353.3426 167.363)" class="st6 st4 st5">a</text> <text transform="matrix(1 0 0 1 358.4734 167.363)" class="st6 st4 st5">i</text> <text transform="matrix(1 0 0 1 361.075 167.363)" class="st6 st4 st5">n</text> <text transform="matrix(1 0 0 1 366.5672 167.363)" class="st6 st4 st5">i</text> <text transform="matrix(1 0 0 1 369.1707 167.363)" class="st6 st4 st5">n</text> <text transform="matrix(1 0 0 1 374.6609 167.363)" class="st6 st4 st5">g</text> <text transform="matrix(1 0 0 1 379.9715 167.363)" class="st6 st4 st5"> </text> <text transform="matrix(1 0 0 1 382.3465 167.363)" class="st6 st4 st5">a</text> <text transform="matrix(1 0 0 1 387.4754 167.363)" class="st6 st4 st5">s</text> <text transform="matrix(1 0 0 1 392.3113 167.363)" class="st6 st4 st5"> </text> <text transform="matrix(1 0 0 1 394.6863 167.363)" class="st6 st4 st5">a</text> <text transform="matrix(1 0 0 1 399.8172 167.363)" class="st6 st4 st5"> </text> <text transform="matrix(1 0 0 1 402.1922 167.363)" class="st6 st4 st5">t</text> <text transform="matrix(1 0 0 1 405.4891 167.363)" class="st6 st4 st5">e</text> <text transform="matrix(1 0 0 1 410.7039 167.363)" class="st6 st4 st5">c</text> <text transform="matrix(1 0 0 1 415.407 167.363)" class="st6 st4 st5">h</text> <text transform="matrix(1 0 0 1 420.8973 167.363)" class="st6 st4 st5">n</text> <text transform="matrix(1 0 0 1 426.3875 167.363)" class="st6 st4 st5">i</text> <text transform="matrix(1 0 0 1 428.991 167.363)" class="st6 st4 st5">c</text> <text transform="matrix(1 0 0 1 433.6942 167.363)" class="st6 st4 st5">i</text> <text transform="matrix(1 0 0 1 436.2977 167.363)" class="st6 st4 st5">a</text> <text transform="matrix(1 0 0 1 441.4266 167.363)" class="st6 st4 st5">n</text> <text transform="matrix(1 0 0 1 446.9188 167.363)" class="st6 st4 st5">,</text> <text transform="matrix(1 0 0 1 449.5027 167.363)" class="st6 st4 st5"> </text> </g> <g id="Layer-1_62_"> <text transform="matrix(1 0 0 1 345.6375 177.363)" class="st6 st4 st5">b</text> <text transform="matrix(1 0 0 1 350.9871 177.363)" class="st6 st4 st5">u</text> <text transform="matrix(1 0 0 1 356.4774 177.363)" class="st6 st4 st5">s</text> <text transform="matrix(1 0 0 1 361.3133 177.363)" class="st6 st4 st5">i</text> <text transform="matrix(1 0 0 1 363.9168 177.363)" class="st6 st4 st5">n</text> <text transform="matrix(1 0 0 1 369.407 177.363)" class="st6 st4 st5">e</text> <text transform="matrix(1 0 0 1 374.6219 177.363)" class="st6 st4 st5">s</text> <text transform="matrix(1 0 0 1 379.4109 177.363)" class="st6 st4 st5">s</text> <text transform="matrix(1 0 0 1 384.2469 177.363)" class="st6 st4 st5"> </text> <text transform="matrix(1 0 0 1 386.6219 177.363)" class="st6 st4 st5">a</text> <text transform="matrix(1 0 0 1 391.7508 177.363)" class="st6 st4 st5">d</text> <text transform="matrix(1 0 0 1 397.1004 177.363)" class="st6 st4 st5">m</text> <text transform="matrix(1 0 0 1 405.5262 177.363)" class="st6 st4 st5">i</text> <text transform="matrix(1 0 0 1 408.1297 177.363)" class="st6 st4 st5">n</text> <text transform="matrix(1 0 0 1 413.6199 177.363)" class="st6 st4 st5">i</text> <text transform="matrix(1 0 0 1 416.2234 177.363)" class="st6 st4 st5">s</text> <text transform="matrix(1 0 0 1 420.9637 177.363)" class="st6 st4 st5">t</text> <text transform="matrix(1 0 0 1 424.3074 177.363)" class="st6 st4 st5">r</text> <text transform="matrix(1 0 0 1 428.4793 177.363)" class="st6 st4 st5">a</text> <text transform="matrix(1 0 0 1 433.6082 177.363)" class="st6 st4 st5">t</text> <text transform="matrix(1 0 0 1 436.9051 177.363)" class="st6 st4 st5">o</text> <text transform="matrix(1 0 0 1 442.1004 177.363)" class="st6 st4 st5">r</text> <text transform="matrix(1 0 0 1 445.6063 177.363)" class="st6 st4 st5">,</text> <text transform="matrix(1 0 0 1 448.1902 177.363)" class="st6 st4 st5"> </text> </g> <g id="Layer-1_63_"> <text transform="matrix(1 0 0 1 336.0203 187.363)" class="st6 st4 st5">b</text> <text transform="matrix(1 0 0 1 341.368 187.363)" class="st6 st4 st5">u</text> <text transform="matrix(1 0 0 1 346.8582 187.363)" class="st6 st4 st5">s</text> <text transform="matrix(1 0 0 1 351.6942 187.363)" class="st6 st4 st5">i</text> <text transform="matrix(1 0 0 1 354.2977 187.363)" class="st6 st4 st5">n</text> <text transform="matrix(1 0 0 1 359.7879 187.363)" class="st6 st4 st5">e</text> <text transform="matrix(1 0 0 1 365.0047 187.363)" class="st6 st4 st5">s</text> <text transform="matrix(1 0 0 1 369.7918 187.363)" class="st6 st4 st5">s</text> <text transform="matrix(1 0 0 1 374.6277 187.363)" class="st6 st4 st5"> </text> <text transform="matrix(1 0 0 1 377.0027 187.363)" class="st6 st4 st5">e</text> <text transform="matrix(1 0 0 1 382.2176 187.363)" class="st6 st4 st5">c</text> <text transform="matrix(1 0 0 1 386.7781 187.363)" class="st6 st4 st5">o</text> <text transform="matrix(1 0 0 1 391.9754 187.363)" class="st6 st4 st5">n</text> <text transform="matrix(1 0 0 1 397.4656 187.363)" class="st6 st4 st5">o</text> <text transform="matrix(1 0 0 1 402.6629 187.363)" class="st6 st4 st5">m</text> <text transform="matrix(1 0 0 1 411.0887 187.363)" class="st6 st4 st5">i</text> <text transform="matrix(1 0 0 1 413.6922 187.363)" class="st6 st4 st5">s</text> <text transform="matrix(1 0 0 1 418.4324 187.363)" class="st6 st4 st5">t</text> <text transform="matrix(1 0 0 1 421.7762 187.363)" class="st6 st4 st5">,</text> <text transform="matrix(1 0 0 1 424.4559 187.363)" class="st6 st4 st5"> </text> <text transform="matrix(1 0 0 1 426.8309 187.363)" class="st6 st4 st5">m</text> <text transform="matrix(1 0 0 1 435.2567 187.363)" class="st6 st4 st5">a</text> <text transform="matrix(1 0 0 1 440.3875 187.363)" class="st6 st4 st5">s</text> <text transform="matrix(1 0 0 1 445.1277 187.363)" class="st6 st4 st5">t</text> <text transform="matrix(1 0 0 1 448.4246 187.363)" class="st6 st4 st5">e</text> <text transform="matrix(1 0 0 1 453.6395 187.363)" class="st6 st4 st5">r</text> <text transform="matrix(1 0 0 1 457.8094 187.363)" class="st6 st4 st5"> </text> </g> <g id="Layer-1_64_"> <text transform="matrix(1 0 0 1 374.7645 197.363)" class="st6 st4 st5">c</text> <text transform="matrix(1 0 0 1 379.4676 197.363)" class="st6 st4 st5">r</text> <text transform="matrix(1 0 0 1 383.6375 197.363)" class="st6 st4 st5">a</text> <text transform="matrix(1 0 0 1 388.7684 197.363)" class="st6 st4 st5">f</text> <text transform="matrix(1 0 0 1 391.9793 197.363)" class="st6 st4 st5">t</text> <text transform="matrix(1 0 0 1 395.2742 197.363)" class="st6 st4 st5">s</text> <text transform="matrix(1 0 0 1 400.1102 197.363)" class="st6 st4 st5">m</text> <text transform="matrix(1 0 0 1 408.5379 197.363)" class="st6 st4 st5">a</text> <text transform="matrix(1 0 0 1 413.6668 197.363)" class="st6 st4 st5">n</text> </g> <g id="Layer-1_65_"> <text transform="matrix(1 0 0 1 21.1404 130.8083)" class="st7 st8 st9">B</text> <text transform="matrix(1 0 0 1 29.9549 130.8083)" class="st7 st8 st9">e</text> <text transform="matrix(1 0 0 1 37.3377 130.8083)" class="st7 st8 st9">r</text> <text transform="matrix(1 0 0 1 43.5135 130.8083)" class="st7 st8 st9">u</text> <text transform="matrix(1 0 0 1 51.2225 130.8083)" class="st7 st8 st9">f</text> <text transform="matrix(1 0 0 1 55.7342 130.8083)" class="st7 st8 st9">s</text> <text transform="matrix(1 0 0 1 62.5057 130.8083)" class="st7 st8 st9">k</text> <text transform="matrix(1 0 0 1 69.5135 130.8083)" class="st7 st8 st9">o</text> <text transform="matrix(1 0 0 1 76.8318 130.8083)" class="st7 st8 st9">l</text> <text transform="matrix(1 0 0 1 81.3182 130.8083)" class="st7 st8 st9">l</text> <text transform="matrix(1 0 0 1 85.6717 130.8083)" class="st7 st8 st9">e</text> <text transform="matrix(1 0 0 1 93.0565 130.8083)" class="st7 st8 st9">g</text> <text transform="matrix(1 0 0 1 100.5311 130.8083)" class="st7 st8 st9"> </text> <text transform="matrix(1 0 0 1 103.8084 130.8083)" class="st7 st8 st9">z</text> <text transform="matrix(1 0 0 1 110.2811 130.8083)" class="st7 st8 st9">u</text> <text transform="matrix(1 0 0 1 117.9901 130.8083)" class="st7 st8 st9">r</text> <text transform="matrix(1 0 0 1 123.9041 130.8083)" class="st7 st8 st9"> </text> </g> <g id="Layer-1_66_"> <text transform="matrix(1 0 0 1 12.5213 146.4079)" class="st7 st8 st9">F</text> <text transform="matrix(1 0 0 1 20.0623 146.4079)" class="st7 st8 st9">a</text> <text transform="matrix(1 0 0 1 27.2635 146.4079)" class="st7 st8 st9">c</text> <text transform="matrix(1 0 0 1 33.7635 146.4079)" class="st7 st8 st9">h</text> <text transform="matrix(1 0 0 1 41.4725 146.4079)" class="st7 st8 st9">h</text> <text transform="matrix(1 0 0 1 49.1815 146.4079)" class="st7 st8 st9">o</text> <text transform="matrix(1 0 0 1 56.4998 146.4079)" class="st7 st8 st9">c</text> <text transform="matrix(1 0 0 1 62.9998 146.4079)" class="st7 st8 st9">h</text> <text transform="matrix(1 0 0 1 70.7088 146.4079)" class="st7 st8 st9">s</text> <text transform="matrix(1 0 0 1 77.4822 146.4079)" class="st7 st8 st9">c</text> <text transform="matrix(1 0 0 1 83.9822 146.4079)" class="st7 st8 st9">h</text> <text transform="matrix(1 0 0 1 91.6912 146.4079)" class="st7 st8 st9">u</text> <text transform="matrix(1 0 0 1 99.4002 146.4079)" class="st7 st8 st9">l</text> <text transform="matrix(1 0 0 1 103.8846 146.4079)" class="st7 st8 st9">r</text> <text transform="matrix(1 0 0 1 109.6697 146.4079)" class="st7 st8 st9">e</text> <text transform="matrix(1 0 0 1 117.0545 146.4079)" class="st7 st8 st9">i</text> <text transform="matrix(1 0 0 1 120.8885 146.4079)" class="st7 st8 st9">f</text> <text transform="matrix(1 0 0 1 125.4002 146.4079)" class="st7 st8 st9">e</text> </g> <g id="Layer-1_67_"> <text transform="matrix(0.97 0 0 1 22.3413 156.407)" class="st6 st8 st11">A</text> <text transform="matrix(0.97 0 0 1 27.4468 156.407)" class="st6 st8 st11">d</text> <text transform="matrix(0.97 0 0 1 31.9546 156.407)" class="st6 st8 st11">v</text> <text transform="matrix(0.97 0 0 1 35.8979 156.407)" class="st6 st8 st11">a</text> <text transform="matrix(0.97 0 0 1 40.1968 156.407)" class="st6 st8 st11">n</text> <text transform="matrix(0.97 0 0 1 44.7983 156.407)" class="st6 st8 st11">c</text> <text transform="matrix(0.97 0 0 1 48.562 156.407)" class="st6 st8 st11">e</text> <text transform="matrix(0.97 0 0 1 52.9682 156.407)" class="st6 st8 st11">d</text> <text transform="matrix(0.97 0 0 1 57.478 156.407)" class="st6 st8 st11"> </text> <text transform="matrix(0.97 0 0 1 59.4331 156.407)" class="st6 st8 st11">v</text> <text transform="matrix(0.97 0 0 1 63.3354 156.407)" class="st6 st8 st11">o</text> <text transform="matrix(0.97 0 0 1 67.7046 156.407)" class="st6 st8 st11">c</text> <text transform="matrix(0.97 0 0 1 71.5464 156.407)" class="st6 st8 st11">a</text> <text transform="matrix(0.97 0 0 1 75.8452 156.407)" class="st6 st8 st11">t</text> <text transform="matrix(0.97 0 0 1 78.7319 156.407)" class="st6 st8 st11">i</text> <text transform="matrix(0.97 0 0 1 81.021 156.407)" class="st6 st8 st11">o</text> <text transform="matrix(0.97 0 0 1 85.3901 156.407)" class="st6 st8 st11">n</text> <text transform="matrix(0.97 0 0 1 89.9917 156.407)" class="st6 st8 st11">a</text> <text transform="matrix(0.97 0 0 1 94.2905 156.407)" class="st6 st8 st11">l</text> <text transform="matrix(0.97 0 0 1 96.9682 156.407)" class="st6 st8 st11"> </text> <text transform="matrix(0.97 0 0 1 98.9233 156.407)" class="st6 st8 st11">s</text> <text transform="matrix(0.97 0 0 1 102.9663 156.407)" class="st6 st8 st11">c</text> <text transform="matrix(0.97 0 0 1 106.8472 156.407)" class="st6 st8 st11">h</text> <text transform="matrix(0.97 0 0 1 111.4487 156.407)" class="st6 st8 st11">o</text> <text transform="matrix(0.97 0 0 1 115.8179 156.407)" class="st6 st8 st11">o</text> <text transform="matrix(0.97 0 0 1 120.185 156.407)" class="st6 st8 st11">l</text> <text transform="matrix(0.97 0 0 1 122.7085 156.407)" class="st6 st8 st11"> </text> </g> <g id="Layer-1_68_"> <text transform="matrix(0.97 0 0 1 6.3823 166.407)" class="st6 st8 st11">l</text> <text transform="matrix(0.97 0 0 1 8.9819 166.407)" class="st6 st8 st11">e</text> <text transform="matrix(0.97 0 0 1 13.3901 166.407)" class="st6 st8 st11">a</text> <text transform="matrix(0.97 0 0 1 17.6889 166.407)" class="st6 st8 st11">d</text> <text transform="matrix(0.97 0 0 1 22.1968 166.407)" class="st6 st8 st11">i</text> <text transform="matrix(0.97 0 0 1 24.4878 166.407)" class="st6 st8 st11">n</text> <text transform="matrix(0.97 0 0 1 29.0893 166.407)" class="st6 st8 st11">g</text> <text transform="matrix(0.97 0 0 1 33.5503 166.407)" class="st6 st8 st11"> </text> <text transform="matrix(0.97 0 0 1 35.5054 166.407)" class="st6 st8 st11">t</text> <text transform="matrix(0.97 0 0 1 38.353 166.407)" class="st6 st8 st11">o</text> <text transform="matrix(0.97 0 0 1 42.7222 166.407)" class="st6 st8 st11"> </text> <text transform="matrix(0.97 0 0 1 44.6792 166.407)" class="st6 st8 st11">t</text> <text transform="matrix(0.97 0 0 1 47.5659 166.407)" class="st6 st8 st11">h</text> <text transform="matrix(0.97 0 0 1 52.1675 166.407)" class="st6 st8 st11">e</text> <text transform="matrix(0.97 0 0 1 56.5737 166.407)" class="st6 st8 st11"> </text> <text transform="matrix(0.97 0 0 1 58.5307 166.407)" class="st6 st8 st11">e</text> <text transform="matrix(0.97 0 0 1 62.937 166.407)" class="st6 st8 st11">n</text> <text transform="matrix(0.97 0 0 1 67.5386 166.407)" class="st6 st8 st11">t</text> <text transform="matrix(0.97 0 0 1 70.4253 166.407)" class="st6 st8 st11">r</text> <text transform="matrix(0.97 0 0 1 74.0347 166.407)" class="st6 st8 st11">a</text> <text transform="matrix(0.97 0 0 1 78.3335 166.407)" class="st6 st8 st11">n</text> <text transform="matrix(0.97 0 0 1 82.935 166.407)" class="st6 st8 st11">c</text> <text transform="matrix(0.97 0 0 1 86.6987 166.407)" class="st6 st8 st11">e</text> <text transform="matrix(0.97 0 0 1 91.1069 166.407)" class="st6 st8 st11"> </text> <text transform="matrix(0.97 0 0 1 93.062 166.407)" class="st6 st8 st11">q</text> <text transform="matrix(0.97 0 0 1 97.5698 166.407)" class="st6 st8 st11">u</text> <text transform="matrix(0.97 0 0 1 102.1714 166.407)" class="st6 st8 st11">a</text> <text transform="matrix(0.97 0 0 1 106.4722 166.407)" class="st6 st8 st11">l</text> <text transform="matrix(0.97 0 0 1 109.1479 166.407)" class="st6 st8 st11">i</text> <text transform="matrix(0.97 0 0 1 111.437 166.407)" class="st6 st8 st11">f</text> <text transform="matrix(0.97 0 0 1 114.2475 166.407)" class="st6 st8 st11">i</text> <text transform="matrix(0.97 0 0 1 116.5366 166.407)" class="st6 st8 st11">c</text> <text transform="matrix(0.97 0 0 1 120.3764 166.407)" class="st6 st8 st11">a</text> <text transform="matrix(0.97 0 0 1 124.6772 166.407)" class="st6 st8 st11">t</text> <text transform="matrix(0.97 0 0 1 127.5639 166.407)" class="st6 st8 st11">i</text> <text transform="matrix(0.97 0 0 1 129.853 166.407)" class="st6 st8 st11">o</text> <text transform="matrix(0.97 0 0 1 134.2202 166.407)" class="st6 st8 st11">n</text> <text transform="matrix(0.97 0 0 1 138.6675 166.407)" class="st6 st8 st11"> </text> </g> <g id="Layer-1_69_"> <text transform="matrix(0.97 0 0 1 8.9819 176.407)" class="st6 st8 st11">f</text> <text transform="matrix(0.97 0 0 1 11.6753 176.407)" class="st6 st8 st11">o</text> <text transform="matrix(0.97 0 0 1 16.0444 176.407)" class="st6 st8 st11">r</text> <text transform="matrix(0.97 0 0 1 19.73 176.407)" class="st6 st8 st11"> </text> <text transform="matrix(0.97 0 0 1 21.685 176.407)" class="st6 st8 st11">a</text> <text transform="matrix(0.97 0 0 1 25.9839 176.407)" class="st6 st8 st11"> </text> <text transform="matrix(0.97 0 0 1 27.9409 176.407)" class="st6 st8 st11">u</text> <text transform="matrix(0.97 0 0 1 32.5425 176.407)" class="st6 st8 st11">n</text> <text transform="matrix(0.97 0 0 1 37.144 176.407)" class="st6 st8 st11">i</text> <text transform="matrix(0.97 0 0 1 39.4331 176.407)" class="st6 st8 st11">v</text> <text transform="matrix(0.97 0 0 1 43.3354 176.407)" class="st6 st8 st11">e</text> <text transform="matrix(0.97 0 0 1 47.7436 176.407)" class="st6 st8 st11">r</text> <text transform="matrix(0.97 0 0 1 51.353 176.407)" class="st6 st8 st11">s</text> <text transform="matrix(0.97 0 0 1 55.396 176.407)" class="st6 st8 st11">i</text> <text transform="matrix(0.97 0 0 1 57.685 176.407)" class="st6 st8 st11">t</text> <text transform="matrix(0.97 0 0 1 60.5718 176.407)" class="st6 st8 st11">y</text> <text transform="matrix(0.97 0 0 1 64.56 176.407)" class="st6 st8 st11"> </text> <text transform="matrix(0.97 0 0 1 66.5151 176.407)" class="st6 st8 st11">o</text> <text transform="matrix(0.97 0 0 1 70.8843 176.407)" class="st6 st8 st11">f</text> <text transform="matrix(0.97 0 0 1 73.6929 176.407)" class="st6 st8 st11"> </text> <text transform="matrix(0.97 0 0 1 75.6479 176.407)" class="st6 st8 st11">a</text> <text transform="matrix(0.97 0 0 1 79.9468 176.407)" class="st6 st8 st11">p</text> <text transform="matrix(0.97 0 0 1 84.4487 176.407)" class="st6 st8 st11">p</text> <text transform="matrix(0.97 0 0 1 88.9487 176.407)" class="st6 st8 st11">l</text> <text transform="matrix(0.97 0 0 1 91.6264 176.407)" class="st6 st8 st11">i</text> <text transform="matrix(0.97 0 0 1 93.9155 176.407)" class="st6 st8 st11">e</text> <text transform="matrix(0.97 0 0 1 98.3237 176.407)" class="st6 st8 st11">d</text> <text transform="matrix(0.97 0 0 1 102.8315 176.407)" class="st6 st8 st11"> </text> <text transform="matrix(0.97 0 0 1 104.7866 176.407)" class="st6 st8 st11">s</text> <text transform="matrix(0.97 0 0 1 108.8296 176.407)" class="st6 st8 st11">c</text> <text transform="matrix(0.97 0 0 1 112.7104 176.407)" class="st6 st8 st11">i</text> <text transform="matrix(0.97 0 0 1 114.9995 176.407)" class="st6 st8 st11">e</text> <text transform="matrix(0.97 0 0 1 119.4077 176.407)" class="st6 st8 st11">n</text> <text transform="matrix(0.97 0 0 1 124.0093 176.407)" class="st6 st8 st11">c</text> <text transform="matrix(0.97 0 0 1 127.7729 176.407)" class="st6 st8 st11">e</text> <text transform="matrix(0.97 0 0 1 132.1811 176.407)" class="st6 st8 st11">s</text> </g> <g id="Layer-1_70_"> <text transform="matrix(1 0 0 1 44.4608 198.4079)" class="st3 st4 st5">D</text> <text transform="matrix(1 0 0 1 50.8826 198.4079)" class="st3 st4 st5">a</text> <text transform="matrix(1 0 0 1 56.0115 198.4079)" class="st3 st4 st5">u</text> <text transform="matrix(1 0 0 1 61.5037 198.4079)" class="st3 st4 st5">e</text> <text transform="matrix(1 0 0 1 66.7186 198.4079)" class="st3 st4 st5">r</text> <text transform="matrix(1 0 0 1 70.9842 198.4079)" class="st3 st4 st5"> </text> <text transform="matrix(1 0 0 1 73.3592 198.4079)" class="st3 st4 st5">1</text> <text transform="matrix(1 0 0 1 78.5174 198.4079)" class="st3 st4 st5"> </text> <text transform="matrix(1 0 0 1 80.8924 198.4079)" class="st3 st4 st5">J</text> <text transform="matrix(1 0 0 1 85.7947 198.4079)" class="st3 st4 st5">a</text> <text transform="matrix(1 0 0 1 90.9236 198.4079)" class="st3 st4 st5">h</text> <text transform="matrix(1 0 0 1 96.4158 198.4079)" class="st3 st4 st5">r</text> </g> <g id="Layer-1_71_"> <text transform="matrix(1 0 0 1 59.2752 208.4079)" class="st6 st4 st5">1</text> <text transform="matrix(1 0 0 1 64.4334 208.4079)" class="st6 st4 st5"> </text> <text transform="matrix(1 0 0 1 66.8084 208.4079)" class="st6 st4 st5">y</text> <text transform="matrix(1 0 0 1 71.2537 208.4079)" class="st6 st4 st5">e</text> <text transform="matrix(1 0 0 1 76.4705 208.4079)" class="st6 st4 st5">a</text> <text transform="matrix(1 0 0 1 81.5994 208.4079)" class="st6 st4 st5">r</text> </g> </svg> 