<?xml version="1.0" encoding="utf-8"?>
<!-- Generator: Adobe Illustrator 26.2.1, SVG Export Plug-In . SVG Version: 6.00 Build 0)  -->
<svg version="1.1" id="Ebene_1" xmlns="http://www.w3.org/2000/svg" xmlns:xlink="http://www.w3.org/1999/xlink" x="0px" y="0px"
	 viewBox="0 0 512 512" style="enable-background:new 0 0 512 512;" xml:space="preserve">
<style type="text/css">
	.st0{fill:#6EC3BF;}
	.st1{fill:#A0D5D2;}
	.st2{fill:#87CCC8;}
	.st3{fill:#FFFFFF;}
	.st4{clip-path:url(#SVGID_00000126323063145211738480000011959991365055531161_);fill:#2B2961;}
	.st5{fill:#897DA2;}
	.st6{fill:#2B2961;}
	.st7{clip-path:url(#SVGID_00000038406786447132100420000000734319604826870666_);fill:#FFFFFF;}
	.st8{clip-path:url(#SVGID_00000038406786447132100420000000734319604826870666_);fill:#2B2961;}
	.st9{clip-path:url(#SVGID_00000109014399545036115480000004601548595610618282_);fill:#FFFFFF;}
	.st10{clip-path:url(#SVGID_00000109014399545036115480000004601548595610618282_);fill:#6EC3BF;}
	.st11{fill:#9D9D9C;}
	.st12{fill:#D0D0D0;}
	.st13{clip-path:url(#SVGID_00000056415744140159747850000002499360798761985463_);fill:#FFFFFF;}
	.st14{clip-path:url(#SVGID_00000183930076118371642740000012082106018988642237_);fill:#2B2961;}
	.st15{clip-path:url(#SVGID_00000183930076118371642740000012082106018988642237_);fill:#FFFFFF;}
	.st16{fill:#97D1CE;}
	.st17{clip-path:url(#SVGID_00000062175759437086617640000007695159091318887323_);fill:#2B2961;}
	.st18{clip-path:url(#SVGID_00000032644029352010712980000008511313042058929556_);fill:#2B2961;}
	.st19{clip-path:url(#SVGID_00000170266261488687854160000000650073344233738655_);fill:#FFFFFF;}
	.st20{clip-path:url(#SVGID_00000170266261488687854160000000650073344233738655_);fill:#2B2961;}
	.st21{clip-path:url(#SVGID_00000043447955849947485750000018385467487583042201_);fill:#2B2961;}
	.st22{clip-path:url(#SVGID_00000049194946960888095720000007672051522989382540_);fill:#2B2961;}
	.st23{clip-path:url(#SVGID_00000049194946960888095720000007672051522989382540_);fill:#FFFFFF;}
	.st24{clip-path:url(#SVGID_00000008124665821358627930000010265537286248680627_);fill:#FFFFFF;}
	.st25{clip-path:url(#SVGID_00000124879042607716975150000014269792155139518357_);fill:#6EC3BF;}
	.st26{clip-path:url(#SVGID_00000101822480003411865810000014502557999234378650_);fill:#2B2961;}
	.st27{clip-path:url(#SVGID_00000101822480003411865810000014502557999234378650_);fill:#1D1D1B;}
	.st28{clip-path:url(#SVGID_00000101822480003411865810000014502557999234378650_);fill:#FFFFFF;}
	.st29{clip-path:url(#SVGID_00000114788313800942439250000004395122907819766433_);fill:#2B2961;}
	.st30{clip-path:url(#SVGID_00000049940441063156981780000002187139365963399068_);fill:#2B2961;}
	.st31{clip-path:url(#SVGID_00000049940441063156981780000002187139365963399068_);fill:#FFFFFF;}
	.st32{clip-path:url(#SVGID_00000034796914809908735530000000857212124074479800_);fill:#2B2961;}
	.st33{clip-path:url(#SVGID_00000109722751299460013890000013470679085104180122_);fill:#2B2961;}
	.st34{clip-path:url(#SVGID_00000109722751299460013890000013470679085104180122_);fill:#6EC3BF;}
	.st35{clip-path:url(#SVGID_00000046314418993799502430000012732140588582760578_);fill:#2B2961;}
	.st36{clip-path:url(#SVGID_00000170265659243214599440000006340045671096636292_);fill:#2B2961;}
	.st37{clip-path:url(#SVGID_00000029736009177269028410000003401006572623051904_);fill:#2B2961;}
	.st38{clip-path:url(#SVGID_00000109018951793305832640000000638098431133201057_);fill:#2B2961;}
	.st39{clip-path:url(#SVGID_00000148648347090690527540000010580136996432881598_);fill:#6EC3BF;}
	.st40{clip-path:url(#SVGID_00000119820480824528517110000005516172432909066115_);fill:#6EC3BF;}
	.st41{clip-path:url(#SVGID_00000059303938588143849280000016136825389975886476_);fill:#6EC3BF;}
	.st42{clip-path:url(#SVGID_00000152981882918377758030000011611218249287208885_);fill:#6EC3BF;}
	.st43{clip-path:url(#SVGID_00000062171990254472468360000003914324593003234224_);fill:#2B2961;}
	.st44{clip-path:url(#SVGID_00000171001383148203374000000002803012871232958097_);fill:#2B2961;}
	.st45{clip-path:url(#SVGID_00000071553191344341891980000015253344830244227203_);fill:#2B2961;}
	.st46{clip-path:url(#SVGID_00000048469609484754434100000015370330217601759393_);fill:#2B2961;}
	.st47{clip-path:url(#SVGID_00000048469609484754434100000015370330217601759393_);fill:#FFFFFF;}
	.st48{clip-path:url(#SVGID_00000007399592629092730320000014579079752384984760_);fill:#FFFFFF;}
	.st49{clip-path:url(#SVGID_00000009565187827248926270000000513173629031602620_);fill:#2B2961;}
	.st50{clip-path:url(#SVGID_00000147907639772096113220000007187535431530325657_);fill:#2B2961;}
	.st51{clip-path:url(#SVGID_00000147907639772096113220000007187535431530325657_);fill:#FFFFFF;}
	.st52{clip-path:url(#SVGID_00000165196801016144056430000000543146432831701685_);fill:#2B2961;}
	.st53{clip-path:url(#SVGID_00000165196801016144056430000000543146432831701685_);fill:#2C265F;}
	.st54{clip-path:url(#SVGID_00000078756006236387781530000011002590880422989967_);fill:#FFFFFF;}
	.st55{clip-path:url(#SVGID_00000149361287437998372580000001206059918827819934_);fill:#2B2961;}
	.st56{clip-path:url(#SVGID_00000018237491759451332030000001730056562890378115_);fill:#FFFFFF;}
	.st57{clip-path:url(#SVGID_00000093858999825697685710000015783517371170773931_);fill:#2B2961;}
	.st58{clip-path:url(#SVGID_00000054973964547712587400000004807554611216638139_);fill:#FFFFFF;}
	.st59{clip-path:url(#SVGID_00000165926450525969730560000002532913554631967156_);fill:#2B2961;}
	.st60{clip-path:url(#SVGID_00000165926450525969730560000002532913554631967156_);fill:#FFFFFF;}
	.st61{clip-path:url(#SVGID_00000145769243373154600230000012453296326842736517_);fill:#2B2961;}
	.st62{clip-path:url(#SVGID_00000130617920416009338200000012002507545081782192_);fill:#FFFFFF;}
	.st63{clip-path:url(#SVGID_00000072969503231504231610000009267503260049090952_);fill:#2B2961;}
	.st64{clip-path:url(#SVGID_00000054236315144573032140000010608508152502948018_);fill:#FFFFFF;}
	.st65{clip-path:url(#SVGID_00000054236315144573032140000010608508152502948018_);fill:#2B2961;}
	.st66{clip-path:url(#SVGID_00000087379413190568527900000013845283094325953160_);fill:#2B2961;}
	.st67{clip-path:url(#SVGID_00000087379413190568527900000013845283094325953160_);fill:#6EC3BF;}
	.st68{clip-path:url(#SVGID_00000087379413190568527900000013845283094325953160_);fill:#FFFFFF;}
	.st69{clip-path:url(#SVGID_00000072996567452496377700000007976080061348417686_);fill:#2B2961;}
	.st70{clip-path:url(#SVGID_00000119816949751344711340000007828797220352066207_);fill:#2B2961;}
	.st71{clip-path:url(#SVGID_00000057130895405820817270000004602106557148551058_);fill:#2B2961;}
	.st72{clip-path:url(#SVGID_00000005235784919648487980000001817460043885066114_);fill:#2B2961;}
	.st73{clip-path:url(#SVGID_00000169529512159867874150000013806249163661751444_);fill:#2B2961;}
	.st74{clip-path:url(#SVGID_00000013178671606432142800000001208915686801471364_);fill:#FFFFFF;}
	.st75{clip-path:url(#SVGID_00000013178671606432142800000001208915686801471364_);fill:#6EC3BF;}
	.st76{clip-path:url(#SVGID_00000087401873147758202300000005026347477137545372_);fill:#2B2961;}
	.st77{clip-path:url(#SVGID_00000034062395541707724490000007295879017158950063_);fill:#2B2961;}
	.st78{clip-path:url(#SVGID_00000034062395541707724490000007295879017158950063_);fill:#FFFFFF;}
	.st79{clip-path:url(#SVGID_00000127027436074602814960000003804085870856831879_);fill:#2B2961;}
	.st80{clip-path:url(#SVGID_00000105389881484722839060000016016935078510749332_);fill:#FFFFFF;}
	.st81{clip-path:url(#SVGID_00000029761893531342443570000002632624686929679520_);fill:#2B2961;}
	.st82{clip-path:url(#SVGID_00000140708386153432392740000016618847368395290505_);fill:#2B2961;}
	.st83{clip-path:url(#SVGID_00000002360973086042544180000009544641997396923026_);fill:#2B2961;}
	.st84{clip-path:url(#SVGID_00000098918839152135078530000018012546686836101505_);fill:#FFFFFF;}
	.st85{clip-path:url(#SVGID_00000074400873899257081750000009049822244182259107_);fill:#FFFFFF;}
	.st86{clip-path:url(#SVGID_00000018197412490790851300000004928671030996837563_);fill:#2B2961;}
	.st87{clip-path:url(#SVGID_00000039816858262093685170000004911898920055376531_);fill:#2B2961;}
	.st88{clip-path:url(#SVGID_00000039816858262093685170000004911898920055376531_);fill:#FFFFFF;}
	.st89{clip-path:url(#SVGID_00000010306630268453871320000010912512875178266511_);fill:#2B2961;}
	.st90{clip-path:url(#SVGID_00000056392888679366368190000007720073780348529072_);fill:#FFFFFF;}
	.st91{clip-path:url(#SVGID_00000138561455179966059680000007688788731263028664_);fill:#6EC3BF;}
	.st92{clip-path:url(#SVGID_00000138561455179966059680000007688788731263028664_);fill:#2B2961;}
	.st93{clip-path:url(#SVGID_00000154394239798108701960000000915844300571026871_);fill:#6EC3BF;}
	.st94{clip-path:url(#SVGID_00000150794389768573211280000004790786639076871593_);fill:#2B2961;}
	.st95{clip-path:url(#SVGID_00000057118248182858649720000012989426321024608393_);fill:#2B2961;}
	.st96{clip-path:url(#SVGID_00000002354176871259512220000015377621040273689216_);fill:#2B2961;}
	.st97{clip-path:url(#SVGID_00000041979775948556771500000015912077281768738734_);fill:#2B2961;}
	.st98{clip-path:url(#SVGID_00000106830566322120334780000016709485294792862893_);fill:#2B2961;}
	.st99{clip-path:url(#SVGID_00000106830566322120334780000016709485294792862893_);fill:#6EC3BF;}
	.st100{clip-path:url(#SVGID_00000170973540729102029270000011152504512909937297_);fill:#2B2961;}
	.st101{clip-path:url(#SVGID_00000165951092029299379420000014105347440385480328_);fill:#2B2961;}
	.st102{clip-path:url(#SVGID_00000165951092029299379420000014105347440385480328_);fill:#6EC3BF;}
	.st103{clip-path:url(#SVGID_00000160180317955567634130000012883730628848258962_);fill:#2B2961;}
	.st104{clip-path:url(#SVGID_00000049187864017881580700000007268749024132755874_);fill:#FFFFFF;}
	.st105{clip-path:url(#SVGID_00000049187864017881580700000007268749024132755874_);fill:#2B2961;}
	.st106{clip-path:url(#SVGID_00000083062584598279457100000011072760731033485998_);fill:#6EC3BF;}
	.st107{clip-path:url(#SVGID_00000150809993079218877390000004111066526167058601_);fill:#2B2961;}
	.st108{clip-path:url(#SVGID_00000116916389472099613570000008614001015579555472_);fill:#2B2961;}
	.st109{clip-path:url(#SVGID_00000116916389472099613570000008614001015579555472_);fill:#FFFFFF;}
	.st110{clip-path:url(#SVGID_00000029044472202872637890000007061624024783550343_);fill:#6EC3BF;}
	.st111{clip-path:url(#SVGID_00000047060100727573176740000009527518997834914459_);fill:#2B2961;}
	.st112{clip-path:url(#SVGID_00000073709139340848209740000012597127448111509182_);fill:#2B2961;}
	.st113{clip-path:url(#SVGID_00000073709139340848209740000012597127448111509182_);fill:#6EC3BF;}
	.st114{clip-path:url(#SVGID_00000085226065667864026230000006472369725321373857_);fill:#2B2961;}
	.st115{clip-path:url(#SVGID_00000035488726597748608940000005642634683713693618_);fill:#6EC3BF;}
	.st116{clip-path:url(#SVGID_00000035488726597748608940000005642634683713693618_);fill:#2B2961;}
	.st117{clip-path:url(#SVGID_00000026150547688847972740000009897871975275237559_);fill:#2B2961;}
	.st118{clip-path:url(#SVGID_00000127019414622790111830000017827325280149239741_);fill:#FFFFFF;}
	.st119{clip-path:url(#SVGID_00000127019414622790111830000017827325280149239741_);}
	.st120{clip-path:url(#SVGID_00000143603675408949320130000002191099118790011051_);fill:#2B2961;}
	.st121{clip-path:url(#SVGID_00000127019414622790111830000017827325280149239741_);fill:#6EC3BF;}
	.st122{clip-path:url(#SVGID_00000003816836447186810480000003389892830084160905_);fill:#2B2961;}
	.st123{clip-path:url(#SVGID_00000127019414622790111830000017827325280149239741_);fill:#2B2961;}
	.st124{clip-path:url(#SVGID_00000011735166347801239260000012524364519861439395_);fill:#2B2961;}
	.st125{clip-path:url(#SVGID_00000117666306676130648020000014148953440084211120_);fill:#2B2961;}
	.st126{clip-path:url(#SVGID_00000070117327133221902690000005035827964317110694_);}
	.st127{clip-path:url(#SVGID_00000121967538297754675230000012474391993557347003_);}
	.st128{clip-path:url(#SVGID_00000147917368691418637930000007687953084520277408_);fill:#FFFFFF;}
	.st129{clip-path:url(#SVGID_00000049926967317370885870000009816419411478243713_);fill:#2B2961;}
	.st130{clip-path:url(#SVGID_00000129921384316925054990000012562804867971602621_);fill:#2B2961;}
	.st131{clip-path:url(#SVGID_00000129921384316925054990000012562804867971602621_);fill:#6EC3BF;}
	.st132{clip-path:url(#SVGID_00000129921384316925054990000012562804867971602621_);fill:#FFFFFF;}
	.st133{clip-path:url(#SVGID_00000134964787207230328650000008664535036003313825_);fill:#2B2961;}
	.st134{clip-path:url(#SVGID_00000134964787207230328650000008664535036003313825_);fill:#6EC3BF;}
	.st135{clip-path:url(#SVGID_00000094618283764265802860000015822829854118850488_);fill:#2B2961;}
	.st136{clip-path:url(#SVGID_00000087379718706138285310000002539017605997802140_);fill:#6EC3BF;}
	.st137{clip-path:url(#SVGID_00000087379718706138285310000002539017605997802140_);fill:#FFFFFF;}
	.st138{clip-path:url(#SVGID_00000080175030627861046990000017146982336333449118_);fill:#2B2961;}
	.st139{clip-path:url(#SVGID_00000080175030627861046990000017146982336333449118_);fill:#6EC3BF;}
	.st140{clip-path:url(#SVGID_00000167367607244537707870000007611065378332056961_);fill:#2B2961;}
	.st141{clip-path:url(#SVGID_00000057826607224107515600000016473135627915315901_);fill:#2B2961;}
	.st142{clip-path:url(#SVGID_00000057826607224107515600000016473135627915315901_);fill:#FFFFFF;}
	.st143{clip-path:url(#SVGID_00000077293798407598429210000000158993890444715693_);fill:#2B2961;}
	.st144{clip-path:url(#SVGID_00000060005749682092625180000011971555149245504155_);fill:#FFFFFF;}
	.st145{clip-path:url(#SVGID_00000043457871446021227850000012536657758078842267_);fill:#2B2961;}
	.st146{clip-path:url(#SVGID_00000101808842585950872800000000084288901825926564_);fill:#2B2961;}
	.st147{clip-path:url(#SVGID_00000101808842585950872800000000084288901825926564_);fill:#FFFFFF;}
	.st148{clip-path:url(#SVGID_00000134251369949060483960000003172447396992704184_);fill:#2B2961;}
	.st149{clip-path:url(#SVGID_00000129897701815676635740000017462044511148179633_);fill:#2B2961;}
	.st150{clip-path:url(#SVGID_00000129897701815676635740000017462044511148179633_);fill:#FFFFFF;}
	.st151{clip-path:url(#SVGID_00000069358058809515629500000010758112272238839998_);fill:#2B2961;}
	.st152{clip-path:url(#SVGID_00000069358058809515629500000010758112272238839998_);fill:#6EC3BF;}
	.st153{clip-path:url(#SVGID_00000051378120107465620550000016553926315077222558_);fill:#1D1D1B;}
	.st154{clip-path:url(#SVGID_00000051378120107465620550000016553926315077222558_);fill:#2B2961;}
	.st155{clip-path:url(#SVGID_00000051378120107465620550000016553926315077222558_);fill:#FFFFFF;}
	.st156{clip-path:url(#SVGID_00000005234592632075314370000013273328996007159721_);fill:#2B2961;}
	.st157{clip-path:url(#SVGID_00000005988639541148480430000009534141890281148856_);fill:#2B2961;}
	.st158{clip-path:url(#SVGID_00000142880418817898551580000003171004250023397032_);fill:#2B2961;}
	.st159{clip-path:url(#SVGID_00000142880418817898551580000003171004250023397032_);fill:#FFFFFF;}
	.st160{clip-path:url(#SVGID_00000142880418817898551580000003171004250023397032_);fill:#6EC3BF;}
	.st161{clip-path:url(#SVGID_00000151507156491060316750000011600252613372772241_);fill:#2B2961;}
	.st162{clip-path:url(#SVGID_00000112625591863306501020000000820726400167053957_);fill:#2B2961;}
	.st163{clip-path:url(#SVGID_00000081622676880349221340000008710982451558790790_);fill:#2B2961;}
	.st164{clip-path:url(#SVGID_00000141441303723316333720000011251786786218992017_);fill:#2B2961;}
	.st165{clip-path:url(#SVGID_00000141441303723316333720000011251786786218992017_);fill:#FFFFFF;}
	.st166{clip-path:url(#SVGID_00000008117523262027364290000013737878267398907287_);fill:#2B2961;}
	.st167{clip-path:url(#SVGID_00000008117523262027364290000013737878267398907287_);fill:#FFFFFF;}
	.st168{clip-path:url(#SVGID_00000149373986614025377550000007678737206176610693_);fill:#2B2961;}
	.st169{clip-path:url(#SVGID_00000166668139065890544110000003690846136627781304_);fill:#2B2961;}
	.st170{clip-path:url(#SVGID_00000166668139065890544110000003690846136627781304_);fill:#FFFFFF;}
	.st171{clip-path:url(#SVGID_00000111883091206450178470000002877853252043007621_);fill:#2B2961;}
	.st172{clip-path:url(#SVGID_00000067195304270765613200000011809628747635709372_);fill:#FFFFFF;}
	.st173{clip-path:url(#SVGID_00000024709615210956719530000009590288134477348225_);fill:#2B2961;}
	.st174{clip-path:url(#SVGID_00000024709615210956719530000009590288134477348225_);fill:#6EC3BF;}
	.st175{clip-path:url(#SVGID_00000093875230365899733840000012045676236637157268_);fill:#2B2961;}
	.st176{clip-path:url(#SVGID_00000117649818488693390200000009323921026697707960_);fill:#2B2961;}
	.st177{clip-path:url(#SVGID_00000138560894869090705540000014701066457048136833_);fill:#FFFFFF;}
	.st178{clip-path:url(#SVGID_00000008866266159624170700000001401826726388013735_);fill:#6EC3BF;}
	.st179{clip-path:url(#SVGID_00000008866266159624170700000001401826726388013735_);fill:#2B2961;}
	.st180{clip-path:url(#SVGID_00000039124486437109927090000009160363295045148801_);fill:#6EC3BF;}
	.st181{clip-path:url(#SVGID_00000043428948623133172060000006433175562459451284_);fill:#2B2961;}
	.st182{clip-path:url(#SVGID_00000107549439570604920150000015172163216339998616_);fill:#6EC3BF;}
	.st183{clip-path:url(#SVGID_00000107549439570604920150000015172163216339998616_);fill:#2B2961;}
	.st184{clip-path:url(#SVGID_00000064331798983588739160000002245009727636805256_);fill:#2B2961;}
	.st185{clip-path:url(#SVGID_00000176729586088092256480000001325542761014055592_);fill:#2B2961;}
	.st186{clip-path:url(#SVGID_00000057117496923417591480000011865498996710051212_);fill:#2B2961;}
	.st187{clip-path:url(#SVGID_00000145059974272959871850000007203731398614508728_);fill:#2B2961;}
	.st188{clip-path:url(#SVGID_00000040571006801936483220000017795826159111530923_);fill:#2B2961;}
	.st189{clip-path:url(#SVGID_00000166662249192378344150000001725872322994464941_);fill:#6EC3BF;}
	.st190{clip-path:url(#SVGID_00000166662249192378344150000001725872322994464941_);fill:#2B2961;}
	.st191{clip-path:url(#SVGID_00000037693323180107425440000000691162474919572887_);fill:#6EC3BF;}
	.st192{clip-path:url(#SVGID_00000037693323180107425440000000691162474919572887_);fill:#2B2961;}
	.st193{clip-path:url(#SVGID_00000106843341893103292310000004604374706724932515_);fill:#2B2961;}
	.st194{clip-path:url(#SVGID_00000065755318159825549810000000229947098917599891_);fill:#2B2961;}
	.st195{clip-path:url(#SVGID_00000115496008884847348330000005434439404900852354_);fill:#2B2961;}
	.st196{clip-path:url(#SVGID_00000110441192330620035720000014779862120140868235_);fill:#FFFFFF;}
	.st197{clip-path:url(#SVGID_00000150090557551956894470000004237006773445640339_);fill:#2B2961;}
	.st198{clip-path:url(#SVGID_00000175300738681191292840000003788987851150706343_);fill:#2B2961;}
	.st199{clip-path:url(#SVGID_00000175300738681191292840000003788987851150706343_);fill:#6EC3BF;}
	.st200{clip-path:url(#SVGID_00000013910017993747408420000017814690131172747431_);fill:#2B2961;}
	.st201{clip-path:url(#SVGID_00000030460552309765732390000002163808429710241710_);fill:#2B2961;}
	.st202{clip-path:url(#SVGID_00000116951512367228511890000005099651913425070758_);fill:#6EC3BF;}
	.st203{clip-path:url(#SVGID_00000116951512367228511890000005099651913425070758_);fill:#2B2961;}
	.st204{clip-path:url(#SVGID_00000016066114793656843370000017033890689695051933_);fill:#6EC3BF;}
	.st205{clip-path:url(#SVGID_00000016066114793656843370000017033890689695051933_);fill:#2B2961;}
	.st206{clip-path:url(#SVGID_00000178204038005048088840000010965381454474688134_);fill:#2B2961;}
	.st207{clip-path:url(#SVGID_00000183242222478109034410000011203452028707242634_);fill:#2B2961;}
	.st208{clip-path:url(#SVGID_00000183242222478109034410000011203452028707242634_);fill:#6EC3BF;}
	.st209{clip-path:url(#SVGID_00000044164303198508190920000008904381727709359756_);fill:#2B2961;}
	.st210{clip-path:url(#SVGID_00000044164303198508190920000008904381727709359756_);fill:#6EC3BF;}
	.st211{clip-path:url(#SVGID_00000124142850794457402620000006456482306408482181_);fill:#2B2961;}
	.st212{clip-path:url(#SVGID_00000124142850794457402620000006456482306408482181_);fill:#6EC3BF;}
	.st213{clip-path:url(#SVGID_00000060713692550960968900000001634991966825862543_);fill:#2B2961;}
	.st214{clip-path:url(#SVGID_00000114788932338065243420000012548715223498051232_);fill:#6EC3BF;}
	.st215{clip-path:url(#SVGID_00000114788932338065243420000012548715223498051232_);fill:#2B2961;}
	.st216{clip-path:url(#SVGID_00000002366417486931932360000002844147941274666892_);fill:#6EC3BF;}
	.st217{clip-path:url(#SVGID_00000002366417486931932360000002844147941274666892_);fill:#2B2961;}
	.st218{clip-path:url(#SVGID_00000151541334868553020860000017024399918231706288_);fill:#FFFFFF;}
	.st219{clip-path:url(#SVGID_00000151541334868553020860000017024399918231706288_);fill:#2B2961;}
	.st220{clip-path:url(#SVGID_00000181771901958657610270000001910158873334934157_);fill:#FFFFFF;}
	.st221{clip-path:url(#SVGID_00000181771901958657610270000001910158873334934157_);fill:#2B2961;}
	.st222{clip-path:url(#SVGID_00000130646533681555720990000012991281091956178350_);fill:#FFFFFF;}
	.st223{clip-path:url(#SVGID_00000130646533681555720990000012991281091956178350_);fill:#2B2961;}
	.st224{clip-path:url(#SVGID_00000133524591813066467000000000496871672784322743_);fill:#6EC3BF;}
	.st225{clip-path:url(#SVGID_00000133524591813066467000000000496871672784322743_);fill:#2B2961;}
	.st226{clip-path:url(#SVGID_00000142151559053000275670000015197116047611434907_);fill:#2B2961;}
	.st227{clip-path:url(#SVGID_00000142151559053000275670000015197116047611434907_);fill:#6EC3BF;}
	.st228{clip-path:url(#SVGID_00000153685690105697602400000010871556188074455176_);fill:#2B2961;}
	.st229{clip-path:url(#SVGID_00000044162903815902262240000005187482214821505921_);fill:#6EC3BF;}
	.st230{clip-path:url(#SVGID_00000044162903815902262240000005187482214821505921_);fill:#2B2961;}
	.st231{clip-path:url(#SVGID_00000141435198078852493070000000298045017312595117_);fill:#2B2961;}
	.st232{clip-path:url(#SVGID_00000068657992015996561930000003882807017306620067_);fill:#2B2961;}
	.st233{clip-path:url(#SVGID_00000068657992015996561930000003882807017306620067_);fill:#6EC3BF;}
	.st234{clip-path:url(#SVGID_00000141452939029994164190000004512301910604790411_);fill:#2B2961;}
	.st235{clip-path:url(#SVGID_00000087404822179525307590000001151700309846078621_);fill:#FFFFFF;}
	.st236{clip-path:url(#SVGID_00000087404822179525307590000001151700309846078621_);fill:#2B2961;}
	.st237{fill:#2C265F;}
	.st238{clip-path:url(#SVGID_00000036209268736180951950000006841518941408911760_);fill:#2B2961;}
	.st239{clip-path:url(#SVGID_00000036209268736180951950000006841518941408911760_);fill:#6EC3BF;}
	.st240{fill:#61B87A;}
	.st241{clip-path:url(#SVGID_00000017498739291458686210000015239014941430541491_);fill:#2B2961;}
	.st242{clip-path:url(#SVGID_00000047781494105961469300000001019866323299920307_);fill:#2B2961;}
	.st243{clip-path:url(#SVGID_00000080201849959768467480000011825299909682597544_);fill:#2B2961;}
	.st244{clip-path:url(#SVGID_00000129197103673285874950000005991853526961865129_);fill:#2B2961;}
	.st245{clip-path:url(#SVGID_00000129197103673285874950000005991853526961865129_);fill:#61B87A;}
	.st246{clip-path:url(#SVGID_00000129197103673285874950000005991853526961865129_);fill:#FFFFFF;}
	.st247{clip-path:url(#SVGID_00000139263451409158111810000000197511572892545163_);fill:#2B2961;}
	.st248{clip-path:url(#SVGID_00000139263451409158111810000000197511572892545163_);fill:#61B87A;}
	.st249{clip-path:url(#SVGID_00000125598545114441443650000011926714616065115270_);fill:#2B2961;}
	.st250{clip-path:url(#SVGID_00000082343778551397661230000004035390774789538717_);fill:#6EC3BF;}
	.st251{clip-path:url(#SVGID_00000082343778551397661230000004035390774789538717_);fill:#2B2961;}
	.st252{clip-path:url(#SVGID_00000106127083704482476370000003929342825169776783_);fill:#2B2961;}
	.st253{clip-path:url(#SVGID_00000106127083704482476370000003929342825169776783_);fill:#6EC3BF;}
	.st254{clip-path:url(#SVGID_00000036965993468628604430000010824977348352009117_);fill:#2B2961;}
	.st255{clip-path:url(#SVGID_00000036965993468628604430000010824977348352009117_);fill:#6EC3BF;}
</style>
<g>
	<rect y="288.42" class="st2" width="48.48" height="203.47"/>
	<rect x="1.03" y="374.42" class="st2" width="509.95" height="130.9"/>
	<g>
		<defs>
			<rect id="SVGID_00000141456917325069514210000000179897877184857256_" y="5.65" width="512" height="500.7"/>
		</defs>
		<clipPath id="SVGID_00000018925854327569120580000013028052703435485856_">
			<use xlink:href="#SVGID_00000141456917325069514210000000179897877184857256_"  style="overflow:visible;"/>
		</clipPath>
		<path style="clip-path:url(#SVGID_00000018925854327569120580000013028052703435485856_);fill:#2B2961;" d="M512,506.35H0V373.4
			h512V506.35z M2.05,504.3h507.9V375.45H2.05V504.3z"/>
		<path style="clip-path:url(#SVGID_00000018925854327569120580000013028052703435485856_);fill:#2B2961;" d="M391.68,401.42h-8.8
			c0.04-1.03,0.18-1.65,0.53-2.49c0.62-1.38,1.91-2.4,3.87-2.4c1.96,0,3.25,1.02,3.87,2.4
			C391.51,399.77,391.64,400.39,391.68,401.42 M397.37,405.37v-2.58c0-6.36-3.65-11.07-10.09-11.07c-6,0-10.09,4.26-10.09,11.82
			c0,9.38,5.24,11.87,10.71,11.87c4.18,0,6.45-1.29,8.8-3.64l-3.51-3.42c-1.47,1.47-2.71,2.18-5.25,2.18
			c-3.25,0-5.07-2.18-5.07-5.16H397.37z M373.72,397.06v-4.4h-4.27v-2.54c0-1.34,0.62-2.09,2-2.09h2.27v-4.88h-3.29
			c-4.71,0-6.76,3.33-6.76,6.62v2.89h-2.4v4.4h2.4v18.1h5.78v-18.1H373.72z M355.67,383.32h-5.91v4.71h5.91V383.32z M355.62,391.99
			h-5.77v23.16h5.77V391.99z M337.92,401.42h-8.8c0.04-1.03,0.18-1.65,0.53-2.49c0.62-1.38,1.91-2.4,3.87-2.4
			c1.96,0,3.25,1.02,3.87,2.4C337.75,399.77,337.88,400.39,337.92,401.42 M343.62,405.37v-2.58c0-6.36-3.65-11.07-10.09-11.07
			c-6,0-10.09,4.26-10.09,11.82c0,9.38,5.24,11.87,10.71,11.87c4.18,0,6.45-1.29,8.8-3.64l-3.51-3.42
			c-1.47,1.47-2.71,2.18-5.25,2.18c-3.25,0-5.07-2.18-5.07-5.16H343.62z M311.56,393.19c0,2.45-1.78,4.18-4.49,4.18h-5.83v-8.37
			h5.83C309.78,389.01,311.56,390.74,311.56,393.19 M319.03,415.15l-7.06-13.65c3.06-1.11,5.77-3.86,5.77-8.31
			c0-5.29-3.82-9.69-10.27-9.69h-12.4v31.65h6.17v-12.63h4.45l6.18,12.63H319.03z M271.49,401.42h-8.8
			c0.04-1.03,0.18-1.65,0.53-2.49c0.62-1.38,1.91-2.4,3.87-2.4c1.96,0,3.25,1.02,3.87,2.4
			C271.31,399.77,271.45,400.39,271.49,401.42 M277.18,405.37v-2.58c0-6.36-3.65-11.07-10.09-11.07c-6,0-10.09,4.26-10.09,11.82
			c0,9.38,5.24,11.87,10.71,11.87c4.18,0,6.45-1.29,8.8-3.64l-3.51-3.42c-1.47,1.47-2.71,2.18-5.25,2.18
			c-3.25,0-5.07-2.18-5.07-5.16H277.18z M255.35,393.9c-1.6-1.6-3.2-2.18-5.47-2.18c-2.49,0-4.71,1.15-5.83,2.49v-2.22h-5.64v23.16
			h5.77v-13.96c0-2.93,1.96-4.27,3.74-4.27c1.42,0,2.18,0.49,3.07,1.38L255.35,393.9z M226.5,401.42h-8.8
			c0.04-1.03,0.18-1.65,0.53-2.49c0.62-1.38,1.91-2.4,3.87-2.4c1.96,0,3.25,1.02,3.87,2.4C226.32,399.77,226.45,400.39,226.5,401.42
			 M232.19,405.37v-2.58c0-6.36-3.65-11.07-10.09-11.07c-6,0-10.09,4.26-10.09,11.82c0,9.38,5.24,11.87,10.71,11.87
			c4.18,0,6.45-1.29,8.8-3.64l-3.51-3.42c-1.47,1.47-2.71,2.18-5.25,2.18c-3.25,0-5.07-2.18-5.07-5.16H232.19z M208.75,415.15v-4.88
			h-2.22c-1.47,0-2.05-0.71-2.05-2.09V383.5h-5.78v25.03c0,3.29,2,6.62,6.76,6.62H208.75z M192.79,415.15v-4.88h-2.09
			c-1.38,0-2-0.76-2-2.09v-11.12h4.09v-4.4h-4.09v-6.85h-5.78v6.85h-2.45v4.4h2.45v11.48c0,3.29,2,6.62,6.71,6.62H192.79z
			 M176.25,415.15v-4.88h-2.09c-1.38,0-2-0.76-2-2.09v-11.12h4.09v-4.4h-4.09v-6.85h-5.78v6.85h-2.45v4.4h2.45v11.48
			c0,3.29,2,6.62,6.71,6.62H176.25z M158.55,383.32h-5.91v4.71h5.91V383.32z M158.51,391.99h-5.77v23.16h5.77V391.99z M144.9,415.15
			V383.5h-6.08l-8.23,17.12l-8.27-17.12h-6.08v31.65h6.17V396.7l6.1,12h4.18l6.05-12v18.45H144.9z"/>
	</g>
	<polygon class="st3" points="16.22,333.21 32.26,333.21 24.24,325.19 	"/>
	<polygon class="st3" points="16.22,365.12 32.26,365.12 24.24,357.1 	"/>
	<polygon class="st3" points="16.22,349.17 32.26,349.17 24.24,341.15 	"/>
	<rect y="62.53" class="st2" width="48.48" height="82.48"/>
	<rect x="1.03" y="6.67" class="st2" width="509.74" height="71.15"/>
	<g>
		<defs>
			<rect id="SVGID_00000049180515580769155520000005765651985684897670_" y="5.65" width="512" height="500.7"/>
		</defs>
		<clipPath id="SVGID_00000140703578054895115610000009272259833726731146_">
			<use xlink:href="#SVGID_00000049180515580769155520000005765651985684897670_"  style="overflow:visible;"/>
		</clipPath>
		<path style="clip-path:url(#SVGID_00000140703578054895115610000009272259833726731146_);fill:#2B2961;" d="M511.79,78.85H0V5.65
			h511.79V78.85z M2.05,76.8h507.69V7.7H2.05V76.8z"/>
		<path style="clip-path:url(#SVGID_00000140703578054895115610000009272259833726731146_);fill:#FFFFFF;" d="M405.93,41.43h-8.8
			c0.04-1.03,0.18-1.65,0.53-2.49c0.62-1.38,1.91-2.4,3.87-2.4c1.96,0,3.25,1.02,3.87,2.4C405.75,39.78,405.88,40.4,405.93,41.43
			 M411.62,45.38v-2.58c0-6.36-3.65-11.07-10.09-11.07c-6,0-10.09,4.26-10.09,11.82c0,9.38,5.24,11.87,10.71,11.87
			c4.18,0,6.45-1.29,8.8-3.64l-3.51-3.42c-1.47,1.47-2.71,2.18-5.25,2.18c-3.25,0-5.07-2.18-5.07-5.16H411.62z M387.96,37.07v-4.4
			h-4.27v-2.54c0-1.34,0.62-2.09,2-2.09h2.27v-4.88h-3.29c-4.71,0-6.75,3.33-6.75,6.62v2.89h-2.4v4.4h2.4v18.1h5.77v-18.1H387.96z
			 M369.91,23.33H364v4.71h5.91V23.33z M369.86,32h-5.77v23.16h5.77V32z M352.17,41.43h-8.8c0.04-1.03,0.18-1.65,0.53-2.49
			c0.62-1.38,1.91-2.4,3.87-2.4s3.25,1.02,3.87,2.4C351.99,39.78,352.12,40.4,352.17,41.43 M357.86,45.38v-2.58
			c0-6.36-3.65-11.07-10.09-11.07c-6,0-10.09,4.26-10.09,11.82c0,9.38,5.24,11.87,10.71,11.87c4.18,0,6.45-1.29,8.8-3.64l-3.51-3.42
			c-1.47,1.47-2.71,2.18-5.25,2.18c-3.25,0-5.07-2.18-5.07-5.16H357.86z M336.03,33.91c-1.6-1.6-3.2-2.18-5.47-2.18
			c-2.49,0-4.71,1.15-5.83,2.49V32h-5.64v23.16h5.77V41.2c0-2.93,1.96-4.27,3.74-4.27c1.42,0,2.18,0.49,3.07,1.38L336.03,33.91z
			 M313.57,55.16v-4.88h-2.22c-1.47,0-2.05-0.71-2.05-2.09V23.51h-5.77v25.03c0,3.29,2,6.62,6.75,6.62H313.57z M296.36,55.16V32
			h-5.77v14.01c0,3.16-2.05,4.22-3.87,4.22c-1.82,0-3.83-1.07-3.83-4.22V32h-5.77v14.81c0,2.53,0.49,4.71,2.35,6.58
			c1.29,1.29,3.15,2.04,5.47,2.04c2.13,0,4.27-0.8,5.78-2.4v2.13H296.36z M270.26,55.16V40.18c0-4.89-2.67-8.44-7.73-8.44
			c-2.05,0-4.01,0.8-5.56,2.4V23.51h-5.78v31.65h5.78V41.02c0-3.02,1.91-4.09,3.74-4.09c1.83,0,3.78,1.02,3.78,4.09v14.14H270.26z
			 M245.81,52.28l-3.91-3.87c-1.2,1.29-2.22,1.83-3.74,1.83c-1.38,0-2.45-0.49-3.29-1.52c-0.89-1.11-1.29-2.71-1.29-5.16
			s0.4-4.01,1.29-5.12c0.84-1.02,1.91-1.51,3.29-1.51c1.51,0,2.53,0.53,3.74,1.82l3.91-3.91c-2.05-2.13-4.45-3.11-7.65-3.11
			c-4.62,0-10.36,2.44-10.36,11.82s5.73,11.87,10.36,11.87C241.36,55.43,243.76,54.41,245.81,52.28 M223.22,47.87
			c0-3.91-2.31-6.36-6.89-6.8l-3.65-0.36c-2.05-0.18-2.4-1.16-2.4-2c0-1.16,0.98-2.22,3.29-2.22c2,0,4.05,0.36,5.38,1.56l3.56-3.6
			c-2.22-2.09-5.25-2.71-8.85-2.71c-4.71,0-8.94,2.58-8.94,7.37c0,4.27,2.58,6.1,6.76,6.5l3.65,0.36c1.82,0.18,2.45,0.98,2.45,2.13
			c0,1.74-2.09,2.4-4.09,2.4c-1.78,0-4.27-0.27-6.18-2.18l-3.78,3.78c2.93,2.93,6.23,3.33,9.87,3.33
			C218.87,55.43,223.22,52.99,223.22,47.87 M198.68,55.16V40.18c0-4.89-2.66-8.44-7.73-8.44c-2.05,0-4.01,0.8-5.56,2.4V23.51h-5.77
			v31.65h5.77V41.02c0-3.02,1.91-4.09,3.74-4.09c1.82,0,3.78,1.02,3.78,4.09v14.14H198.68z M174.22,52.28l-3.91-3.87
			c-1.2,1.29-2.22,1.83-3.74,1.83c-1.38,0-2.45-0.49-3.29-1.52c-0.89-1.11-1.29-2.71-1.29-5.16s0.4-4.01,1.29-5.12
			c0.84-1.02,1.91-1.51,3.29-1.51c1.51,0,2.53,0.53,3.74,1.82l3.91-3.91c-2.05-2.13-4.45-3.11-7.65-3.11
			c-4.62,0-10.35,2.44-10.35,11.82s5.73,11.87,10.35,11.87C169.77,55.43,172.17,54.41,174.22,52.28 M145.19,43.56
			c0,2.4-0.13,4.45-1.34,5.65c-0.67,0.67-1.56,1.03-2.71,1.03c-1.16,0-2-0.36-2.67-1.03c-1.2-1.2-1.33-3.25-1.33-5.65
			c0-2.4,0.13-4.41,1.33-5.61c0.67-0.67,1.52-1.02,2.67-1.02c1.16,0,2.05,0.36,2.71,1.02C145.06,39.16,145.19,41.16,145.19,43.56
			 M150.96,43.56c0-4.18-0.53-6.81-2.62-8.98c-1.42-1.51-3.78-2.84-7.2-2.84c-3.43,0-5.74,1.33-7.16,2.84
			c-2.09,2.18-2.62,4.8-2.62,8.98c0,4.22,0.53,6.85,2.62,9.03c1.42,1.51,3.73,2.84,7.16,2.84c3.42,0,5.78-1.33,7.2-2.84
			C150.43,50.41,150.96,47.79,150.96,43.56 M124.51,55.16V23.51h-6.17v12.94h-10.72V23.51h-6.17v31.65h6.17V41.91h10.72v13.25
			H124.51z"/>
	</g>
	<polygon class="st3" points="16.22,90.75 32.26,90.75 24.24,82.73 	"/>
	<polygon class="st3" points="16.22,122.66 32.26,122.66 24.24,114.64 	"/>
	<polygon class="st3" points="16.22,106.71 32.26,106.71 24.24,98.69 	"/>
	<rect y="253.58" class="st2" width="509.94" height="48.48"/>
	<g>
		<defs>
			<rect id="SVGID_00000145026490423856395080000015268712100664061074_" y="5.65" width="512" height="500.7"/>
		</defs>
		<clipPath id="SVGID_00000103242976316509253070000002765743861597091241_">
			<use xlink:href="#SVGID_00000145026490423856395080000015268712100664061074_"  style="overflow:visible;"/>
		</clipPath>
		<path style="clip-path:url(#SVGID_00000103242976316509253070000002765743861597091241_);fill:#2B2961;" d="M283.14,201.25v-4.62
			h-11.96v5.15h5.83v1.2c0,1.74-0.49,3.16-1.42,4.23c-1.11,1.2-2.58,1.78-4.4,1.78c-1.69,0-3.03-0.53-3.96-1.65
			c-1.25-1.47-1.51-2.71-1.51-8.94c0-6.27,0.36-7.43,1.51-8.9c0.98-1.11,2.31-1.69,3.96-1.69c3.07,0,4.94,1.56,5.69,4.63h6.22
			c-0.84-5.52-4.71-10.13-11.91-10.13c-3.38,0-6.23,1.15-8.54,3.46c-1.38,1.38-2.22,2.93-2.58,4.76c-0.36,1.78-0.53,4.4-0.53,7.87
			c0,3.46,0.18,6.09,0.53,7.87c0.36,1.78,1.2,3.38,2.58,4.76c2.31,2.31,5.15,3.46,8.54,3.46c3.56,0,6.49-1.11,8.94-3.6
			C282.3,208.59,283.14,205.88,283.14,201.25 M246.78,191.74c0,2.18-1.47,3.65-4.09,3.65h-6.05v-7.3h6.05
			C245.31,188.09,246.78,189.55,246.78,191.74 M247.22,204.81c0,2.13-1.34,3.92-4.14,3.92h-6.45v-7.79h6.45
			C245.89,200.94,247.22,202.67,247.22,204.81 M253.4,205.12c0-4.23-2.44-6.23-4.35-7.11c1.6-0.76,3.91-3.02,3.91-6.54
			c0-5.42-3.6-8.89-9.78-8.89h-12.71v31.65h13.25C249.35,214.23,253.4,211.03,253.4,205.12"/>
		<path style="clip-path:url(#SVGID_00000103242976316509253070000002765743861597091241_);fill:#2B2961;" d="M512,302.81H0V142.55
			h512V302.81z M2.05,300.75h507.9V144.6H2.05V300.75z"/>
	</g>
	<polygon class="st3" points="16.22,136.16 32.26,136.16 24.24,128.14 	"/>
	<polygon class="st3" points="16.22,317.15 32.26,317.15 24.24,309.13 	"/>
	<g>
		<defs>
			<rect id="SVGID_00000174603337775853965040000002667827271754381451_" y="5.65" width="512" height="500.7"/>
		</defs>
		<clipPath id="SVGID_00000127747947887865540480000013943822172860673453_">
			<use xlink:href="#SVGID_00000174603337775853965040000002667827271754381451_"  style="overflow:visible;"/>
		</clipPath>
		<path style="clip-path:url(#SVGID_00000127747947887865540480000013943822172860673453_);fill:#FFFFFF;" d="M389.13,455.51
			c0.47-0.37,0.89-0.8,1.25-1.29c0.36-0.49,0.53-0.91,0.53-1.27c0-0.42-0.18-0.86-0.53-1.33c-0.36-0.48-0.77-0.89-1.22-1.25
			c-0.46-0.36-0.91-0.53-1.35-0.53c-0.36,0-0.78,0.18-1.27,0.53c-0.49,0.36-0.91,0.77-1.27,1.25c-0.36,0.47-0.53,0.92-0.53,1.33
			c0,0.36,0.18,0.78,0.53,1.29c0.36,0.5,0.78,0.93,1.27,1.29c0.49,0.36,0.93,0.53,1.31,0.53
			C388.22,456.07,388.66,455.89,389.13,455.51 M381.7,455.51c0.47-0.37,0.89-0.8,1.25-1.29c0.36-0.49,0.53-0.91,0.53-1.27
			c0-0.42-0.18-0.86-0.53-1.33c-0.36-0.48-0.77-0.89-1.22-1.25c-0.46-0.36-0.91-0.53-1.35-0.53c-0.36,0-0.78,0.18-1.27,0.53
			c-0.49,0.36-0.91,0.77-1.27,1.25c-0.36,0.47-0.53,0.92-0.53,1.33c0,0.36,0.18,0.78,0.53,1.29c0.36,0.5,0.78,0.93,1.27,1.29
			c0.49,0.36,0.93,0.53,1.31,0.53C380.8,456.07,381.23,455.89,381.7,455.51 M386.73,482.17v-20.9h-5.29v14.94h-6.89v5.96H386.73z
			 M344.53,482.17h7.29v-5.96h-7.29V482.17z M367.12,466.7c0,2.1-0.54,3.87-1.62,5.29c-1.08,1.42-2.75,2.48-5,3.18
			c-2.25,0.7-5.14,1.05-8.67,1.05v5.96c2.87,0,5.57-0.42,8.07-1.27c2.5-0.84,4.69-2.02,6.56-3.53c1.87-1.51,3.32-3.28,4.38-5.29
			c1.05-2.02,1.58-4.18,1.58-6.49c0-1.19-0.39-2.14-1.16-2.87c-0.77-0.73-2.03-1.24-3.78-1.53c-1.75-0.3-4.11-0.44-7.07-0.44
			c-2.91,0-5.23,0.15-6.98,0.44c-1.75,0.29-3.02,0.81-3.8,1.53c-0.79,0.73-1.18,1.68-1.18,2.87c0,2.31,0.52,4.47,1.58,6.47
			c1.05,2,2.52,3.76,4.4,5.27c1.88,1.51,4.07,2.7,6.56,3.56c2.49,0.86,5.16,1.29,8,1.29v-5.96c-3.5,0-6.38-0.35-8.63-1.05
			c-2.25-0.69-3.92-1.75-5-3.18s-1.62-3.19-1.62-5.29H367.12z M368.99,482.17h7.34v-5.96h-7.34V482.17z M341.6,454.16h-5.29v22.06
			h-6.89v5.96h16.9v-5.96h-4.71V454.16z M328.75,491.4c0.47-0.37,0.89-0.8,1.25-1.29c0.36-0.49,0.53-0.91,0.53-1.27
			c0-0.42-0.18-0.86-0.53-1.33c-0.36-0.48-0.76-0.89-1.22-1.25c-0.46-0.36-0.91-0.53-1.35-0.53c-0.36,0-0.78,0.18-1.27,0.53
			c-0.49,0.36-0.91,0.77-1.27,1.25c-0.36,0.47-0.53,0.92-0.53,1.33c0,0.36,0.18,0.78,0.53,1.29c0.36,0.5,0.78,0.93,1.27,1.29
			c0.49,0.36,0.93,0.53,1.31,0.53C327.84,491.96,328.27,491.77,328.75,491.4 M321.32,491.4c0.47-0.37,0.89-0.8,1.25-1.29
			c0.36-0.49,0.53-0.91,0.53-1.27c0-0.42-0.18-0.86-0.53-1.33c-0.36-0.48-0.76-0.89-1.22-1.25c-0.46-0.36-0.91-0.53-1.35-0.53
			c-0.36,0-0.78,0.18-1.27,0.53c-0.49,0.36-0.91,0.77-1.27,1.25c-0.36,0.47-0.53,0.92-0.53,1.33c0,0.36,0.18,0.78,0.53,1.29
			c0.36,0.5,0.78,0.93,1.27,1.29c0.49,0.36,0.93,0.53,1.31,0.53C320.41,491.96,320.84,491.77,321.32,491.4 M326.48,461.27h-5.29
			v14.94h-6.89v5.96h16.9v-5.96h-4.71V461.27z M296.86,478.88c-0.41-0.65-0.74-1.33-0.98-2.05c-0.24-0.71-0.4-1.5-0.49-2.36
			c-0.09-0.86-0.13-1.85-0.13-2.98c0-1.25,0.15-2.46,0.44-3.65c0.3-1.19,0.7-2.51,1.2-3.96l-5.34-1.25
			c-0.48,1.48-0.86,2.93-1.16,4.36c-0.3,1.42-0.44,2.92-0.44,4.49c0,1.84,0.14,3.51,0.42,5.02c0.28,1.51,0.87,2.77,1.76,3.78
			L296.86,478.88z M292.15,496.14c-0.48-1.84-0.81-3.36-1.02-4.56c-0.21-1.2-0.31-2.31-0.31-3.31c0-1.33,0.05-2.48,0.15-3.45
			c0.11-0.96,0.28-1.84,0.51-2.64h19.88V467.5c0-1.63-0.3-2.94-0.89-3.94c-0.59-0.99-1.53-1.71-2.8-2.15
			c-1.28-0.44-2.95-0.67-5.02-0.67c-1.99,0-3.94,0.17-5.85,0.51c-1.91,0.34-3.65,0.81-5.22,1.4l2.09,5.16
			c1.39-0.39,2.81-0.67,4.24-0.84c1.44-0.18,2.81-0.27,4.11-0.27c1.78,0,3.13,0.1,4.05,0.31v9.2h-14.01c-1.54,0-2.79,0.37-3.76,1.11
			c-0.96,0.74-1.67,1.89-2.11,3.47c-0.44,1.57-0.67,3.65-0.67,6.23c0,1.16,0.06,2.33,0.18,3.51c0.12,1.18,0.28,2.33,0.49,3.42
			c0.21,1.09,0.46,2.12,0.76,3.07L292.15,496.14z M311.36,482.17h4.71v-5.96h-4.71V482.17z M256.93,478.88
			c-0.41-0.65-0.74-1.33-0.98-2.05c-0.24-0.71-0.4-1.5-0.49-2.36c-0.09-0.86-0.13-1.85-0.13-2.98c0-1.25,0.15-2.46,0.44-3.65
			c0.3-1.19,0.7-2.51,1.2-3.96l-5.34-1.25c-0.48,1.48-0.86,2.93-1.16,4.36c-0.3,1.42-0.44,2.92-0.44,4.49
			c0,1.84,0.14,3.51,0.42,5.02c0.28,1.51,0.87,2.77,1.75,3.78L256.93,478.88z M258.89,460.94c-1.3,0.13-2.57,0.34-3.8,0.62
			c-1.23,0.28-2.38,0.65-3.45,1.09l2.09,5.16c1.39-0.39,2.81-0.67,4.25-0.84c1.44-0.18,2.81-0.27,4.11-0.27
			c0.86,0,1.61,0.02,2.25,0.07c0.64,0.04,1.23,0.13,1.8,0.25v9.2h-21.88v5.96h27.17V467.5c0-1.63-0.3-2.94-0.89-3.94
			c-0.59-0.99-1.53-1.71-2.8-2.15c-1.28-0.44-2.95-0.67-5.02-0.67C261.47,460.74,260.19,460.81,258.89,460.94 M243.73,455.51
			c0.48-0.37,0.89-0.8,1.25-1.29c0.36-0.49,0.53-0.91,0.53-1.27c0-0.42-0.18-0.86-0.53-1.33c-0.36-0.48-0.76-0.89-1.22-1.25
			c-0.46-0.36-0.91-0.53-1.36-0.53c-0.36,0-0.78,0.18-1.27,0.53c-0.49,0.36-0.91,0.77-1.27,1.25c-0.36,0.47-0.53,0.92-0.53,1.33
			c0,0.36,0.18,0.78,0.53,1.29c0.36,0.5,0.78,0.93,1.27,1.29c0.49,0.36,0.92,0.53,1.31,0.53S243.25,455.89,243.73,455.51
			 M236.3,455.51c0.48-0.37,0.89-0.8,1.25-1.29c0.36-0.49,0.53-0.91,0.53-1.27c0-0.42-0.18-0.86-0.53-1.33
			c-0.36-0.48-0.76-0.89-1.22-1.25c-0.46-0.36-0.91-0.53-1.36-0.53c-0.36,0-0.78,0.18-1.27,0.53c-0.49,0.36-0.91,0.77-1.27,1.25
			c-0.36,0.47-0.53,0.92-0.53,1.33c0,0.36,0.18,0.78,0.53,1.29c0.36,0.5,0.78,0.93,1.27,1.29c0.49,0.36,0.92,0.53,1.31,0.53
			S235.83,455.89,236.3,455.51 M241.33,461.27h-5.29v14.94h-6.89v5.96h16.9v-5.96h-4.71V461.27z M220.01,490.44
			c1.17-1.45,2.19-2.99,3.04-4.6c0.86-1.61,1.54-3.25,2.02-4.89c0.49-1.65,0.73-3.22,0.73-4.73h-5.34c0,1.16-0.19,2.37-0.58,3.65
			c-0.39,1.27-0.93,2.54-1.65,3.8s-1.54,2.47-2.49,3.63s-1.99,2.19-3.11,3.11l3.47,4C217.54,493.21,218.83,491.89,220.01,490.44
			 M211,476.22v-7.47c0-0.8,0.16-1.34,0.49-1.62c0.32-0.28,0.95-0.42,1.87-0.42h7.11v7.56c0,0.74-0.13,1.25-0.4,1.53
			c-0.27,0.28-0.76,0.42-1.47,0.42H211z M223.01,482.17l2.8-5.96V462.3c-1.54-0.56-3.07-0.96-4.58-1.2
			c-1.51-0.24-3.32-0.36-5.42-0.36c-1.93,0-3.56,0.18-4.89,0.53c-1.33,0.36-2.4,0.94-3.2,1.75c-0.8,0.82-1.39,1.9-1.75,3.25
			c-0.37,1.35-0.56,3.02-0.56,5c0,2.01,0.15,3.73,0.44,5.13c0.3,1.41,0.76,2.53,1.38,3.38c0.62,0.84,1.45,1.45,2.49,1.82
			c1.04,0.37,2.3,0.56,3.78,0.56H223.01z M223.58,482.17h7.34v-5.96h-7.34V482.17z M169.74,465.28h-5.29v10.94h-6.89v5.96h12.18
			V465.28z M179.19,481.73c1.41-0.3,2.48-0.81,3.22-1.54c0.74-0.73,1.25-1.73,1.51-3.02c0.27-1.29,0.4-2.93,0.4-4.91v-6.98h-5.29
			v8.58c0,0.95-0.27,1.58-0.82,1.89c-0.55,0.31-1.4,0.47-2.56,0.47h-5.91v5.96h3.96C175.95,482.17,177.78,482.02,179.19,481.73
			 M194.77,481.13c1.45-0.69,2.51-1.89,3.16-3.58c0.65-1.69,0.98-4.05,0.98-7.07c0-0.98-0.04-2.01-0.13-3.09
			c-0.09-1.08-0.23-2.15-0.42-3.2c-0.19-1.05-0.42-2.01-0.69-2.87l-5.25,0.8c0.36,1.51,0.65,2.99,0.87,4.45
			c0.22,1.45,0.33,2.85,0.33,4.18c0,1.16-0.03,2.17-0.09,3.04c-0.06,0.88-0.18,1.68-0.36,2.43h-5.47c-1.13,0-1.97-0.16-2.53-0.47
			c-0.56-0.31-0.84-0.94-0.84-1.89v-8.58h-5.29v6.98c0,1.98,0.14,3.62,0.42,4.91c0.28,1.29,0.78,2.3,1.49,3.02
			c0.71,0.73,1.72,1.24,3.02,1.54c1.31,0.29,3,0.44,5.07,0.44C191.41,482.17,193.32,481.82,194.77,481.13 M154.62,482.17v-14.5
			c0-1.75-0.24-3.12-0.73-4.11c-0.49-0.99-1.33-1.7-2.51-2.11c-1.18-0.42-2.82-0.62-4.89-0.62c-2.19,0-4.21,0.29-6.05,0.89
			c-1.84,0.59-3.41,1.44-4.73,2.53c-1.32,1.09-2.31,2.41-2.96,3.96v-14.05h-5.29v24.1h5.29c0-3.85,0.95-6.73,2.85-8.63
			c1.9-1.9,4.76-2.85,8.58-2.85c2.4,0,4.12,0.16,5.16,0.49v14.9H154.62z M122.34,482.17h32.28v-5.96h-32.28V482.17z M154.62,482.17
			h4.71v-5.96h-4.71V482.17z"/>
		<path style="clip-path:url(#SVGID_00000127747947887865540480000013943822172860673453_);fill:#FFFFFF;" d="M386.78,283.21
			c0-2.71-1.2-4.34-3.08-5.17c1.69-0.83,2.74-2.34,2.74-4.68c0-3.63-2.64-6.12-6.37-6.12c-3.51,0-6.25,2.24-6.43,5.97h3.14
			c0.15-1.94,1.39-3.14,3.29-3.14c1.79,0,3.23,1.17,3.23,3.39c0,2-1.05,3.33-3.32,3.33h-0.52v2.73h0.52c2.46,0,3.66,1.39,3.66,3.61
			c0,2.31-1.54,3.64-3.57,3.64c-1.82,0-3.45-0.99-3.57-3.33h-3.14c0.12,4.28,3.2,6.15,6.71,6.15
			C383.73,289.58,386.78,287.43,386.78,283.21 M360.82,289.37v-2.98h-10.68v-6.59h9.11v-2.95h-9.11v-6.41h10.68v-2.98h-14v21.91
			H360.82z M336.17,273.89c0,2.15-1.51,3.42-3.73,3.42h-4.93v-6.87h4.93C334.66,270.43,336.17,271.73,336.17,273.89 M340.17,289.37
			l-5.05-9.69c2.46-0.68,4.37-2.67,4.37-5.82c0-3.72-2.64-6.4-6.8-6.4h-8.49v21.91h3.32v-9.24h4.16l4.62,9.24H340.17z M316,289.37
			v-21.91h-3.32v9.36h-8.9v-9.36h-3.32v21.91h3.32v-9.57h8.9v9.57H316z M288.91,282.14h-6.74l3.42-9.73L288.91,282.14z
			 M294.89,289.37l-8.03-21.91h-2.68l-8.03,21.91h3.54l1.51-4.4h8.65l1.51,4.4H294.89z M271.18,282.45v-14.99h-3.32v14.75
			c0,2.86-1.51,4.37-3.97,4.37c-1.6,0-2.34-0.55-3.11-1.32l-2.22,2.18c1.51,1.51,3.08,2.12,5.33,2.12
			C267.92,289.55,271.18,287,271.18,282.45 M248.71,265.18h-3.02l-8.77,26.47h3.02L248.71,265.18z M202.17,276.37h-3.35v9.2h-5.4
			v3.8h8.76V276.37z M209.3,289.06c0.99-0.21,1.75-0.56,2.27-1.08c0.52-0.51,0.88-1.22,1.08-2.14c0.19-0.91,0.29-2.08,0.29-3.49
			v-5.99h-3.39v7.39c0,0.73-0.21,1.21-0.62,1.45s-1.08,0.36-2.02,0.36h-4.75v3.8h3.25C207.01,289.37,208.31,289.27,209.3,289.06
			 M220.97,288.57c0.99-0.54,1.7-1.45,2.12-2.74c0.42-1.29,0.63-3.09,0.63-5.39c0-0.73-0.05-1.52-0.14-2.38
			c-0.09-0.86-0.21-1.7-0.34-2.53c-0.14-0.83-0.3-1.56-0.48-2.17l-3.35,0.51c0.29,1.19,0.52,2.35,0.68,3.49
			c0.16,1.14,0.24,2.22,0.24,3.25c0,1.03-0.03,1.94-0.09,2.74c-0.06,0.8-0.15,1.54-0.29,2.22h-4.38c-0.91,0-1.58-0.12-2-0.36
			c-0.42-0.24-0.63-0.73-0.63-1.45v-7.39h-3.39v5.99c0,1.41,0.1,2.58,0.31,3.49c0.21,0.91,0.56,1.62,1.08,2.14
			c0.51,0.51,1.25,0.87,2.21,1.08s2.2,0.31,3.73,0.31C218.61,289.37,219.97,289.1,220.97,288.57 M190.11,268.85
			c0.33-0.25,0.62-0.54,0.87-0.87c0.25-0.33,0.38-0.62,0.38-0.87c0-0.27-0.13-0.57-0.38-0.91c-0.25-0.33-0.54-0.62-0.86-0.86
			c-0.32-0.24-0.62-0.36-0.89-0.36c-0.27,0-0.58,0.12-0.91,0.36c-0.33,0.24-0.62,0.52-0.86,0.86c-0.24,0.33-0.36,0.63-0.36,0.91
			c0,0.25,0.12,0.55,0.36,0.89c0.24,0.34,0.53,0.63,0.87,0.87c0.34,0.24,0.64,0.36,0.89,0.36
			C189.49,269.22,189.78,269.1,190.11,268.85 M190.92,273.29h-3.35v12.28h-5.4v3.8h12.62v-3.8h-3.87V273.29z M174.86,295.83
			c0.88-1.05,1.65-2.16,2.33-3.33c0.67-1.17,1.2-2.35,1.57-3.54s0.56-2.32,0.56-3.39h-3.39c0,0.82-0.16,1.7-0.48,2.63
			c-0.32,0.93-0.76,1.87-1.32,2.82c-0.56,0.95-1.21,1.85-1.95,2.72c-0.74,0.87-1.54,1.64-2.38,2.33l2.15,2.57
			C173.01,297.82,173.98,296.88,174.86,295.83 M167.9,285.57v-7.11c0-0.71,0.12-1.17,0.36-1.4c0.24-0.23,0.68-0.34,1.32-0.34h6.36
			v7.25c0,0.62-0.11,1.04-0.32,1.27c-0.22,0.23-0.61,0.34-1.18,0.34H167.9z M177.61,289.37l1.71-3.8v-11.53
			c-1.19-0.41-2.34-0.7-3.45-0.87c-1.12-0.17-2.44-0.26-3.97-0.26c-1.44,0-2.65,0.13-3.63,0.38c-0.98,0.25-1.76,0.68-2.33,1.3
			c-0.57,0.62-0.98,1.45-1.23,2.5c-0.25,1.05-0.38,2.38-0.38,4c0,1.57,0.1,2.9,0.29,3.98c0.19,1.08,0.5,1.93,0.92,2.55
			c0.42,0.62,0.99,1.06,1.69,1.33c0.7,0.27,1.58,0.41,2.63,0.41H177.61z M177.95,289.37h5.58v-3.8h-5.58V289.37z M158.49,267.82
			h-3.35v21.55h3.35V267.82z M140.11,272.27c0.33-0.25,0.62-0.54,0.87-0.87c0.25-0.33,0.38-0.62,0.38-0.87
			c0-0.27-0.13-0.57-0.38-0.91s-0.54-0.62-0.86-0.86c-0.32-0.24-0.62-0.36-0.89-0.36s-0.57,0.12-0.91,0.36
			c-0.33,0.24-0.62,0.52-0.86,0.86c-0.24,0.33-0.36,0.63-0.36,0.91c0,0.25,0.12,0.55,0.36,0.89c0.24,0.34,0.53,0.63,0.87,0.87
			c0.34,0.24,0.64,0.36,0.89,0.36S139.77,272.52,140.11,272.27 M134.8,272.27c0.33-0.25,0.62-0.54,0.87-0.87
			c0.25-0.33,0.38-0.62,0.38-0.87c0-0.27-0.13-0.57-0.38-0.91s-0.54-0.62-0.86-0.86c-0.32-0.24-0.62-0.36-0.89-0.36
			c-0.27,0-0.57,0.12-0.91,0.36c-0.33,0.24-0.62,0.52-0.86,0.86c-0.24,0.33-0.36,0.63-0.36,0.91c0,0.25,0.12,0.55,0.36,0.89
			c0.24,0.34,0.53,0.63,0.87,0.87s0.64,0.36,0.89,0.36S134.47,272.52,134.8,272.27 M148.78,289.37v-16.08h-3.35v12.28h-17.89
			c-0.18-0.59-0.31-1.22-0.39-1.88s-0.12-1.43-0.12-2.29c0-0.75,0.07-1.55,0.21-2.38c0.14-0.83,0.34-1.69,0.62-2.58l-3.22-0.51
			c-0.3,0.84-0.54,1.83-0.72,2.96c-0.18,1.13-0.27,2.23-0.27,3.3c0,1.73,0.17,3.12,0.51,4.17c0.34,1.05,0.89,1.81,1.64,2.29
			c0.75,0.48,1.73,0.72,2.94,0.72H148.78z"/>
	</g>
</g>
</svg>
