<?xml version="1.0" encoding="UTF-8"?><svg id="a" xmlns="http://www.w3.org/2000/svg" xmlns:xlink="http://www.w3.org/1999/xlink" viewBox="0 0 362.58 512"><defs><style>.e{fill:none;}.f{fill:#fff;}.g{fill:#87ccc8;}.h{fill:#2b2961;}.i{clip-path:url(#c);}.j{clip-path:url(#b);}.k{clip-path:url(#d);}</style><clipPath id="b"><rect class="e" x="-17.42" width="397.43" height="512"/></clipPath><clipPath id="c"><rect class="e" x="-17.42" width="397.43" height="512"/></clipPath><clipPath id="d"><rect class="e" x="-17.42" width="397.43" height="512"/></clipPath></defs><rect class="g" x="3.91" y="327.43" width="33.59" height="140.99"/><rect class="g" x="3.91" y="182.46" width="33.59" height="57.33"/><rect class="g" x="3.91" y="39.41" width="33.59" height="57.15"/><rect class="g" x="3.91" y="316.73" width="353.34" height="33.59"/><rect class="g" x="3.91" y="171.76" width="353.34" height="33.59"/><g class="j"><path class="h" d="M221.29,278.49c0,4.22-.25,5.24-1.08,6.16-.62,.71-1.57,1.17-2.74,1.17s-2.16-.46-2.78-1.17c-.83-.92-1.05-1.94-1.05-6.16s.22-5.24,1.05-6.16c.62-.71,1.6-1.17,2.78-1.17s2.13,.46,2.74,1.17c.83,.92,1.08,1.94,1.08,6.16m4.28,0c0-3.79,.03-6.53-2.19-8.75-1.54-1.54-3.42-2.4-5.92-2.4s-4.41,.86-5.95,2.4c-2.22,2.22-2.16,4.96-2.16,8.75s-.06,6.53,2.16,8.75c1.54,1.54,3.45,2.4,5.95,2.4s4.38-.86,5.92-2.4c2.22-2.22,2.19-4.96,2.19-8.75m-20.46,.31h-9.49v3.72h9.49v-3.72Zm-18.33-4.93c0,1.51-1.02,2.53-2.84,2.53h-4.19v-5.06h4.19c1.82,0,2.84,1.02,2.84,2.53m.31,9.06c0,1.48-.93,2.71-2.87,2.71h-4.47v-5.4h4.47c1.94,0,2.87,1.2,2.87,2.68m4.28,.22c0-2.93-1.69-4.31-3.02-4.93,1.11-.52,2.71-2.09,2.71-4.53,0-3.76-2.49-6.16-6.78-6.16h-8.81v21.93h9.18c3.91,0,6.71-2.22,6.71-6.31m-26.13-1.17h-5.45l2.77-7.98,2.68,7.98Zm6.9,7.48l-8.01-21.93h-3.36l-7.98,21.93h4.47l1.32-3.88h7.8l1.29,3.88h4.47Zm-19.13-21.93h-4.47l-4.41,14.29-4.41-14.29h-4.44l7.24,21.93h3.2l7.27-21.93Z"/><path class="h" d="M260.58,122.55h-4.47l-4.41,14.29-4.41-14.29h-4.44l7.24,21.93h3.2l7.27-21.93Zm-24.4,14.45h-5.45l2.77-7.98,2.68,7.98Zm6.9,7.48l-8.01-21.93h-3.36l-7.98,21.93h4.47l1.32-3.88h7.8l1.29,3.88h4.47Zm-27.76-24.21h-3.76l-8.78,26.49h3.76l8.78-26.49Zm-27.08,8.99c0,1.7-1.23,2.9-3.11,2.9h-4.04v-5.8h4.04c1.88,0,3.11,1.2,3.11,2.9m5.17,15.22l-4.9-9.46c2.13-.77,4-2.68,4-5.76,0-3.67-2.65-6.71-7.11-6.71h-8.6v21.93h4.28v-8.75h3.08l4.28,8.75h4.96Zm-21.6-10.66h-9.49v3.72h9.49v-3.72Zm-18.33-4.93c0,1.51-1.02,2.53-2.84,2.53h-4.19v-5.06h4.19c1.82,0,2.84,1.02,2.84,2.53m.31,9.06c0,1.48-.93,2.71-2.87,2.71h-4.47v-5.4h4.47c1.94,0,2.87,1.2,2.87,2.68m4.28,.22c0-2.93-1.69-4.31-3.02-4.93,1.11-.52,2.71-2.09,2.71-4.53,0-3.76-2.49-6.16-6.78-6.16h-8.81v21.93h9.18c3.91,0,6.71-2.22,6.71-6.31m-26.13-1.17h-5.45l2.77-7.98,2.68,7.98Zm6.9,7.48l-8.01-21.93h-3.36l-7.98,21.93h4.47l1.32-3.88h7.8l1.29,3.88h4.47Zm-19.13-21.93h-4.47l-4.41,14.29-4.41-14.29h-4.44l7.24,21.93h3.2l7.27-21.93Z"/><path class="f" d="M272.34,335.39h-4.71l2.39-6.74,2.33,6.74Zm4.1,5.01l-5.55-15.18h-1.86l-5.57,15.18h2.43l1.07-3.05h5.99l1.07,3.05h2.41Zm-16.6,0v-15.18h-2.32v6.51h-6.15v-6.51h-2.3v15.18h2.3v-6.63h6.15v6.63h2.32Zm-16.23,0v-15.18h-2.11l-6.79,11v-11h-2.3v15.18h2.09l6.81-11.03v11.03h2.3Zm-25.94-15.18v4.48c0,3.61-.53,6.59-1.86,8.64h-1.32v5.48h2.24v-3.41h9.21v3.41h2.26v-5.48h-1.79v-13.12h-8.74Zm2.22,2.07h4.23v11.05h-5.72c1.13-2.13,1.49-4.76,1.49-7.66v-3.39Zm-10.71,5.38c0,2.58,0,3.92-.9,4.86-.58,.62-1.37,.94-2.26,.94s-1.64-.32-2.26-.94c-.81-.81-.87-2.24-.87-3.8v-1.3c0-1.94,.02-3.44,.87-4.33,.6-.62,1.41-.94,2.26-.94s1.66,.32,2.26,.94c.85,.9,.9,2.26,.9,4.57m2.32-.92c0-2.15-.3-3.84-1.47-5.03-1.05-1.04-2.43-1.62-4.01-1.62s-2.95,.58-3.99,1.62c-1.28,1.28-1.47,2.9-1.47,5.4v1c0,2.26,.02,4.33,1.47,5.8,1.04,1.06,2.41,1.62,3.99,1.62s2.96-.55,4.01-1.62c1.45-1.49,1.47-3.39,1.47-5.89v-1.28Zm-13.84-4.46v-2.07h-9.34v15.18h2.3v-13.12h7.04Zm-19.47-3.65h-2.09l-6.08,18.34h2.09l6.08-18.34Zm-20.07,6.04c0,1.49-1.05,2.37-2.58,2.37h-3.41v-4.76h3.41c1.54,0,2.58,.9,2.58,2.39m2.77,10.73l-3.5-6.72c1.7-.47,3.03-1.85,3.03-4.03,0-2.58-1.83-4.44-4.71-4.44h-5.88v15.18h2.3v-6.4h2.88l3.2,6.4h2.69Zm-16.74,0v-15.18h-2.3v6.48h-6.17v-6.48h-2.3v15.18h2.3v-6.63h6.17v6.63h2.3Zm-18.77-5.01h-4.67l2.37-6.74,2.3,6.74Zm4.14,5.01l-5.57-15.18h-1.86l-5.57,15.18h2.45l1.05-3.05h5.99l1.05,3.05h2.45Zm-16.42-4.8v-10.39h-2.3v10.22c0,1.98-1.05,3.03-2.75,3.03-1.11,0-1.62-.38-2.15-.92l-1.54,1.51c1.05,1.04,2.13,1.47,3.69,1.47,2.79,0,5.05-1.77,5.05-4.92m-21.03,4.8v-15.18h-2.17l-2.96,2.56v2.41l2.96-2.6v12.82h2.17Z"/><path class="f" d="M272.34,190.42h-4.71l2.39-6.74,2.33,6.74Zm4.1,5.01l-5.55-15.18h-1.86l-5.57,15.18h2.43l1.07-3.05h5.99l1.07,3.05h2.41Zm-16.6,0v-15.18h-2.32v6.51h-6.15v-6.51h-2.3v15.18h2.3v-6.63h6.15v6.63h2.32Zm-16.23,0v-15.18h-2.11l-6.79,11v-11h-2.3v15.18h2.09l6.81-11.03v11.03h2.3Zm-25.94-15.18v4.48c0,3.61-.53,6.59-1.86,8.64h-1.32v5.48h2.24v-3.41h9.21v3.41h2.26v-5.48h-1.79v-13.12h-8.74Zm2.22,2.07h4.23v11.05h-5.72c1.13-2.13,1.49-4.76,1.49-7.66v-3.39Zm-10.71,5.38c0,2.58,0,3.92-.9,4.86-.58,.62-1.37,.94-2.26,.94s-1.64-.32-2.26-.94c-.81-.81-.87-2.24-.87-3.8v-1.3c0-1.94,.02-3.44,.87-4.33,.6-.62,1.41-.94,2.26-.94s1.66,.32,2.26,.94c.85,.9,.9,2.26,.9,4.57m2.32-.92c0-2.15-.3-3.84-1.47-5.03-1.05-1.04-2.43-1.62-4.01-1.62s-2.95,.58-3.99,1.62c-1.28,1.28-1.47,2.9-1.47,5.4v1c0,2.26,.02,4.33,1.47,5.8,1.04,1.06,2.41,1.62,3.99,1.62s2.96-.55,4.01-1.62c1.45-1.49,1.47-3.39,1.47-5.89v-1.28Zm-13.84-4.46v-2.07h-9.34v15.18h2.3v-13.12h7.04Zm-19.47-3.65h-2.09l-6.08,18.34h2.09l6.08-18.34Zm-20.07,6.04c0,1.49-1.05,2.37-2.58,2.37h-3.41v-4.76h3.41c1.54,0,2.58,.9,2.58,2.39m2.77,10.73l-3.5-6.72c1.7-.47,3.03-1.85,3.03-4.03,0-2.58-1.83-4.44-4.71-4.44h-5.88v15.18h2.3v-6.4h2.88l3.2,6.4h2.69Zm-16.74,0v-15.18h-2.3v6.48h-6.17v-6.48h-2.3v15.18h2.3v-6.63h6.17v6.63h2.3Zm-18.77-5.01h-4.67l2.37-6.74,2.3,6.74Zm4.14,5.01l-5.57-15.18h-1.86l-5.57,15.18h2.45l1.05-3.05h5.99l1.05,3.05h2.45Zm-16.42-4.8v-10.39h-2.3v10.22c0,1.98-1.05,3.03-2.75,3.03-1.11,0-1.62-.38-2.15-.92l-1.54,1.51c1.05,1.04,2.13,1.47,3.69,1.47,2.79,0,5.05-1.77,5.05-4.92m-21.03,4.8v-15.18h-2.17l-2.96,2.56v2.41l2.96-2.6v12.82h2.17Z"/></g><rect class="g" x="4.62" y=".71" width="350.73" height="49.3"/><path class="h" d="M356.06,50.72H3.91V0H356.06V50.72ZM5.33,49.3H354.64V1.42H5.33V49.3Z"/><g class="i"><path class="f" d="M333.58,29.26c0-2.71-1.6-4.41-4.78-4.71l-2.53-.25c-1.42-.12-1.66-.8-1.66-1.39,0-.8,.68-1.54,2.28-1.54,1.39,0,2.8,.25,3.73,1.08l2.46-2.49c-1.54-1.45-3.64-1.88-6.13-1.88-3.27,0-6.19,1.78-6.19,5.11,0,2.96,1.79,4.22,4.68,4.5l2.53,.25c1.26,.12,1.69,.68,1.69,1.48,0,1.2-1.45,1.67-2.83,1.67-1.23,0-2.96-.18-4.28-1.51l-2.62,2.62c2.03,2.03,4.31,2.31,6.84,2.31,3.79,0,6.81-1.69,6.81-5.24m-15.87,0c0-2.71-1.6-4.41-4.78-4.71l-2.53-.25c-1.42-.12-1.66-.8-1.66-1.39,0-.8,.68-1.54,2.28-1.54,1.39,0,2.8,.25,3.73,1.08l2.46-2.49c-1.54-1.45-3.64-1.88-6.13-1.88-3.27,0-6.19,1.78-6.19,5.11,0,2.96,1.79,4.22,4.68,4.5l2.53,.25c1.26,.12,1.69,.68,1.69,1.48,0,1.2-1.45,1.67-2.83,1.67-1.23,0-2.96-.18-4.28-1.51l-2.62,2.62c2.03,2.03,4.31,2.31,6.84,2.31,3.79,0,6.81-1.69,6.81-5.24m-17.19,5.05V18.26h-4v9.71c0,2.19-1.42,2.93-2.68,2.93s-2.65-.74-2.65-2.93v-9.71h-4v10.26c0,1.76,.34,3.26,1.63,4.56,.89,.89,2.19,1.41,3.79,1.41,1.48,0,2.96-.55,4.01-1.66v1.48h3.91Zm-16.98,0v-3.38h-1.54c-1.02,0-1.42-.49-1.42-1.45V12.37h-4V29.72c0,2.28,1.38,4.59,4.68,4.59h2.28Zm-11.74,0v-10.38c0-3.39-1.85-5.85-5.36-5.85-1.42,0-2.78,.55-3.85,1.66v-7.36h-4v21.93h4v-9.8c0-2.1,1.32-2.83,2.59-2.83s2.62,.71,2.62,2.83v9.8h4Zm-16.95-2l-2.71-2.68c-.83,.9-1.54,1.27-2.59,1.27-.96,0-1.69-.34-2.28-1.05-.62-.77-.89-1.88-.89-3.57s.28-2.78,.89-3.55c.59-.71,1.32-1.05,2.28-1.05,1.05,0,1.76,.37,2.59,1.26l2.71-2.71c-1.42-1.48-3.08-2.15-5.3-2.15-3.2,0-7.17,1.69-7.17,8.19s3.97,8.22,7.17,8.22c2.22,0,3.88-.71,5.3-2.19m-15.65-3.05c0-2.71-1.6-4.41-4.78-4.71l-2.53-.25c-1.42-.12-1.66-.8-1.66-1.39,0-.8,.68-1.54,2.28-1.54,1.39,0,2.8,.25,3.73,1.08l2.46-2.49c-1.54-1.45-3.64-1.88-6.13-1.88-3.27,0-6.19,1.78-6.19,5.11,0,2.96,1.79,4.22,4.68,4.5l2.53,.25c1.26,.12,1.69,.68,1.69,1.48,0,1.2-1.45,1.67-2.83,1.67-1.23,0-2.96-.18-4.28-1.51l-2.62,2.62c2.03,2.03,4.31,2.31,6.84,2.31,3.79,0,6.81-1.69,6.81-5.24m-20.52-2.99c0,2.62-.31,4.62-2.71,4.62s-2.71-2.01-2.71-4.62,.31-4.59,2.71-4.59,2.71,1.97,2.71,4.59m4,0c0-2.41-.03-5.15-1.63-6.75-.89-.89-2.34-1.45-3.91-1.45s-2.83,.43-3.88,1.6v-7.3h-4v21.93h3.88v-1.51c1.11,1.23,2.31,1.69,4.01,1.69,1.57,0,3.02-.55,3.91-1.45,1.6-1.6,1.63-4.38,1.63-6.78m-22.36,2.12c0,.99-.15,1.64-.59,2.04-.71,.68-1.42,.77-2.53,.77-1.57,0-2.31-.74-2.31-1.85s.8-1.82,2.25-1.82h3.18v.86Zm4,5.92v-10.57c0-3.76-2.34-5.67-6.84-5.67-2.68,0-4.22,.49-5.79,2.22l2.55,2.5c.83-.96,1.54-1.33,3.08-1.33,2.13,0,2.99,.77,2.99,2.53v.8h-3.79c-3.73,0-5.48,2.09-5.48,4.65,0,1.42,.46,2.71,1.32,3.6,.96,.95,2.28,1.41,4.1,1.41s2.87-.46,3.95-1.54v1.38h3.91Zm-15.96,0v-3.38h-1.54c-1.02,0-1.42-.49-1.42-1.45V12.37h-4V29.72c0,2.28,1.38,4.59,4.68,4.59h2.28Zm-11.92,0V18.26h-4v9.71c0,2.19-1.42,2.93-2.68,2.93s-2.65-.74-2.65-2.93v-9.71h-4v10.26c0,1.76,.34,3.26,1.63,4.56,.89,.89,2.19,1.41,3.79,1.41,1.48,0,2.96-.55,4.01-1.66v1.48h3.91Zm-18.08,0v-10.38c0-3.39-1.85-5.85-5.36-5.85-1.42,0-2.78,.55-3.85,1.66v-7.36h-4v21.93h4v-9.8c0-2.1,1.32-2.83,2.59-2.83s2.62,.71,2.62,2.83v9.8h4Zm-16.95-2l-2.71-2.68c-.83,.9-1.54,1.27-2.59,1.27-.96,0-1.69-.34-2.28-1.05-.62-.77-.89-1.88-.89-3.57s.28-2.78,.89-3.55c.59-.71,1.32-1.05,2.28-1.05,1.05,0,1.76,.37,2.59,1.26l2.71-2.71c-1.42-1.48-3.08-2.15-5.3-2.15-3.2,0-7.18,1.69-7.18,8.19s3.97,8.22,7.18,8.22c2.22,0,3.88-.71,5.3-2.19m-15.65-3.05c0-2.71-1.6-4.41-4.78-4.71l-2.53-.25c-1.42-.12-1.66-.8-1.66-1.39,0-.8,.68-1.54,2.28-1.54,1.39,0,2.8,.25,3.73,1.08l2.46-2.49c-1.54-1.45-3.64-1.88-6.13-1.88-3.27,0-6.19,1.78-6.19,5.11,0,2.96,1.79,4.22,4.68,4.5l2.53,.25c1.26,.12,1.69,.68,1.69,1.48,0,1.2-1.45,1.67-2.83,1.67-1.23,0-2.96-.18-4.28-1.51l-2.62,2.62c2.03,2.03,4.31,2.31,6.84,2.31,3.79,0,6.81-1.69,6.81-5.24m-16.33,5.05v-3.38h-1.45c-.96,0-1.39-.52-1.39-1.45v-7.71h2.83v-3.05h-2.83v-4.74h-4v4.74h-1.69v3.05h1.69v7.95c0,2.28,1.39,4.59,4.65,4.59h2.19Zm-15.65-8.04c0,2.62-.31,4.62-2.71,4.62s-2.71-2.01-2.71-4.62,.31-4.59,2.71-4.59,2.71,1.97,2.71,4.59m4,0c0-2.41-.03-5.15-1.63-6.75-.89-.89-2.34-1.45-3.91-1.45-1.69,0-2.9,.46-4.01,1.69v-1.51h-3.88v21.93h4v-7.3c1.05,1.17,2.25,1.6,3.88,1.6s3.02-.55,3.91-1.45c1.6-1.6,1.63-4.38,1.63-6.78m-18.55,8.04V18.26h-4v9.71c0,2.19-1.42,2.93-2.68,2.93s-2.65-.74-2.65-2.93v-9.71h-4v10.26c0,1.76,.34,3.26,1.63,4.56,.89,.89,2.19,1.41,3.79,1.41,1.48,0,2.96-.55,4.01-1.66v1.48h3.91Zm-22.09-5.92c0,.99-.15,1.64-.59,2.04-.71,.68-1.42,.77-2.53,.77-1.57,0-2.31-.74-2.31-1.85s.8-1.82,2.25-1.82h3.18v.86Zm4,5.92v-10.57c0-3.76-2.34-5.67-6.84-5.67-2.68,0-4.22,.49-5.79,2.22l2.55,2.5c.83-.96,1.54-1.33,3.08-1.33,2.13,0,2.99,.77,2.99,2.53v.8h-3.79c-3.73,0-5.48,2.09-5.48,4.65,0,1.42,.46,2.71,1.32,3.6,.96,.95,2.28,1.41,4.1,1.41s2.87-.46,3.95-1.54v1.38h3.91Zm-17.56,0V12.37h-4.28v8.97h-7.43V12.37h-4.28v21.93h4.28v-9.18h7.43v9.18h4.28Z"/></g><path class="h" d="M358.68,350.83H3.91v-111.04H358.68v111.04Zm-353.35-1.42H357.25v-108.2H5.33v108.2Z"/><path class="h" d="M358.68,205.35H3.91V94.82H358.68v110.53Zm-353.35-1.42H357.25V96.24H5.33v107.69Z"/><rect class="g" x="4.62" y="387.02" width="353.35" height="124.27"/><g class="k"><path class="h" d="M358.68,512H3.91v-125.69H358.68v125.69Zm-353.35-1.42H357.25v-122.85H5.33v122.85Z"/><path class="f" d="M271.69,484.71h-6.11c.09-2.16,1.2-3.39,3.05-3.39s2.93,1.2,3.05,3.39m3.94,2.74v-1.78c0-4.65-2.74-7.67-6.99-7.67s-6.99,3.14-6.99,8.16c0,5.46,2.52,8.25,7.45,8.25,1.26,0,2.37-.22,3.3-.59,1.01-.43,1.57-.8,2.77-1.94l-2.43-2.37c-.71,.68-1.05,.93-1.63,1.17-.52,.22-1.2,.34-1.85,.34-2.34,0-3.55-1.17-3.67-3.58h10.04Zm-18.27,6.78v-16.05h-4.03l-5.64,9.55v-9.55h-4.03v16.05h4.03l5.64-9.8v9.8h4.03Zm-18.76,0v-16.05h-4.03v6.07h-5.15v-6.07h-4.03v16.05h4.03v-6.44h5.15v6.44h4.03Zm-22.12-6.78v.87c0,2-.83,2.81-2.9,2.81-1.69,0-2.53-.62-2.53-1.85s.83-1.82,2.25-1.82h3.18Zm4,6.78v-10.57c0-3.76-2.31-5.67-6.93-5.67-1.51,0-2.62,.18-3.54,.59-.8,.37-1.23,.71-2.15,1.63l2.55,2.5c.96-1.05,1.6-1.33,3.02-1.33,2.16,0,3.05,.74,3.05,2.53v.8h-3.79c-3.39,0-5.48,1.78-5.48,4.68,0,3.14,2,4.99,5.42,4.99,.92,0,1.66-.12,2.28-.37,.62-.25,.96-.49,1.66-1.17v1.38h3.91Zm-20.58-4.83c0,1.14-.74,1.88-2,1.88h-3.18v-3.73h3.18c1.26,0,2,.68,2,1.85m-2.19-8.26c1.26,0,1.94,.62,1.94,1.7s-.68,1.73-1.94,1.73h-2.99v-3.42h2.99Zm6.16,8.48c0-1.73-.74-2.83-2.28-3.64,1.38-.8,2.03-1.88,2.03-3.39,0-2.68-1.94-4.4-4.96-4.4h-7.92v16.05h8.2c3.02,0,4.93-1.78,4.93-4.62m-21.53-3.42c0,2.1-.12,4.62-2.81,4.62-1.94,0-2.77-1.29-2.77-4.38,0-2.06,.03-4.84,2.77-4.84s2.81,2.53,2.81,4.59m4-.06c0-3.11-.49-4.78-1.82-6.16-1.23-1.29-2.96-1.97-4.99-1.97s-3.73,.68-4.96,1.97c-1.32,1.41-1.82,3.05-1.82,6.22s.46,4.84,1.82,6.25c1.23,1.29,2.93,1.97,4.96,1.97s3.76-.68,4.99-1.97c1.36-1.41,1.82-3.05,1.82-6.32m-17.38,3.36c0-1.73-.99-3.08-2.43-3.7,1.32-.61,2.19-1.94,2.19-3.45,0-2.83-2.77-4.34-5.85-4.34-2.4,0-4.68,.43-6.5,1.88l2.22,2.46c1.05-.74,2.28-1.11,3.48-1.11,1.63,0,2.71,.52,2.71,1.64s-.83,1.76-2.16,1.76h-2.37v2.86h2.43c1.42,0,2.31,.52,2.31,1.73s-1.39,1.82-2.8,1.82c-1.51,0-2.93-.4-4.07-1.42l-2.31,2.53c1.91,1.72,4.5,2.28,7.02,2.28,3.3,0,6.13-1.94,6.13-4.93m-20.36-2.04v.87c0,2-.83,2.81-2.9,2.81-1.7,0-2.53-.62-2.53-1.85s.83-1.82,2.25-1.82h3.18Zm4,6.78v-10.57c0-3.76-2.31-5.67-6.93-5.67-1.51,0-2.62,.18-3.55,.59-.8,.37-1.23,.71-2.15,1.63l2.55,2.5c.96-1.05,1.6-1.33,3.02-1.33,2.16,0,3.05,.74,3.05,2.53v.8h-3.79c-3.39,0-5.48,1.78-5.48,4.68,0,3.14,2,4.99,5.42,4.99,.93,0,1.67-.12,2.28-.37,.62-.25,.96-.49,1.66-1.17v1.38h3.91Zm-20.58-8.07c0,3.42-.71,4.65-2.71,4.65s-2.71-1.23-2.71-4.38c0-2.06-.06-4.84,2.71-4.84,2,0,2.71,1.2,2.71,4.56m-5.55-6.47v-1.51h-3.88v21.93h4v-7.3c1.14,1.14,2.16,1.6,3.82,1.6s3.05-.52,3.97-1.45c1.2-1.2,1.63-2.96,1.63-6.72,0-2.13-.06-2.93-.28-4.1-.22-1.08-.71-2.06-1.35-2.71-.92-.92-2.37-1.45-3.97-1.45-1.76,0-2.71,.46-3.95,1.69m-14.94,14.73c1.91,0,3.6-.65,4.74-1.85,1.38-1.45,1.97-3.23,1.97-6.44,0-2.74-.62-5.18-2.03-6.5-.89-.8-1.94-1.3-3.94-1.3-1.76,0-3.39,.8-4.01,1.85,0-1.94,.55-2.93,2.03-3.7,1.82-.96,4.53-.77,6.57-.92v-3.45c-4.74,.03-7.64,.25-9.64,1.78-2.03,1.6-2.55,3.45-2.55,10.97,0,2.99,.34,5.55,1.29,7.06,1.08,1.69,3.2,2.49,5.58,2.49m-.06-3.6c-.77,0-1.45-.22-1.91-.77-.59-.65-.89-1.88-.89-3.85,0-1.76,.31-2.99,.8-3.64,.49-.62,1.2-.83,2.01-.83s1.51,.25,1.97,.86c.53,.65,.8,1.88,.8,3.64,0,1.88-.31,3.15-.83,3.79-.49,.59-1.17,.8-1.94,.8m-14.82-4.62c0,2.1-.12,4.62-2.81,4.62-1.94,0-2.78-1.29-2.78-4.38,0-2.06,.03-4.84,2.78-4.84s2.81,2.53,2.81,4.59m4-.06c0-3.11-.49-4.78-1.82-6.16-1.23-1.29-2.96-1.97-4.99-1.97s-3.73,.68-4.96,1.97c-1.32,1.41-1.82,3.05-1.82,6.22s.46,4.84,1.82,6.25c1.23,1.29,2.92,1.97,4.96,1.97s3.76-.68,4.99-1.97c1.35-1.41,1.82-3.05,1.82-6.32"/><path class="f" d="M289.3,449.22c0,2.1-.12,4.62-2.81,4.62-1.94,0-2.78-1.29-2.78-4.38,0-2.06,.03-4.84,2.78-4.84s2.81,2.53,2.81,4.59m4-.06c0-3.11-.49-4.78-1.82-6.16-1.23-1.29-2.96-1.97-4.99-1.97s-3.73,.68-4.96,1.97c-1.32,1.41-1.82,3.05-1.82,6.22s.46,4.84,1.82,6.25c1.23,1.29,2.92,1.97,4.96,1.97s3.76-.68,4.99-1.97c1.35-1.41,1.82-3.05,1.82-6.32m-15.81-4.41v-3.54h-13.37v3.54h4.71v12.51h4.03v-12.51h4.62Zm-16.55,12.51v-16.05h-4.03l-5.64,9.55v-9.55h-4.03v16.05h4.03l5.64-9.8v9.8h4.03Zm-24.74,.18c1.91,0,3.61-.65,4.74-1.85,1.39-1.45,1.97-3.23,1.97-6.44,0-2.74-.61-5.18-2.03-6.5-.89-.8-1.94-1.3-3.94-1.3-1.76,0-3.39,.8-4.01,1.85,0-1.94,.55-2.93,2.04-3.7,1.82-.96,4.53-.77,6.56-.92v-3.45c-4.74,.03-7.64,.25-9.64,1.78-2.03,1.6-2.55,3.45-2.55,10.97,0,2.99,.34,5.55,1.29,7.06,1.08,1.69,3.2,2.49,5.58,2.49m-.06-3.6c-.77,0-1.45-.22-1.91-.77-.59-.65-.9-1.88-.9-3.85,0-1.76,.31-2.99,.8-3.64,.49-.62,1.2-.83,2-.83s1.51,.25,1.97,.86c.52,.65,.8,1.88,.8,3.64,0,1.88-.31,3.15-.83,3.79-.49,.59-1.17,.8-1.94,.8m-14.82-4.62c0,2.1-.12,4.62-2.81,4.62-1.94,0-2.78-1.29-2.78-4.38,0-2.06,.03-4.84,2.78-4.84s2.81,2.53,2.81,4.59m4-.06c0-3.11-.49-4.78-1.82-6.16-1.23-1.29-2.96-1.97-4.99-1.97s-3.73,.68-4.96,1.97c-1.32,1.41-1.82,3.05-1.82,6.22s.46,4.84,1.82,6.25c1.23,1.29,2.93,1.97,4.96,1.97s3.76-.68,4.99-1.97c1.35-1.41,1.82-3.05,1.82-6.32m-22.52,4.56h-4.9c.8-1.63,1.23-3.64,1.23-6.87v-2.1h3.67v8.97Zm6.03,7.48v-7.48h-2.03v-12.51h-11.52v4.89c0,4.19-.74,6.14-1.57,7.62h-1.63v7.48h3.79v-3.94h9.18v3.94h3.79Zm-19.99-3.94v-16.05h-4.03l-5.64,9.55v-9.55h-4.03v16.05h4.03l5.64-9.8v9.8h4.03Zm-22.12-8.07c0,3.42-.71,4.65-2.71,4.65s-2.71-1.23-2.71-4.38c0-2.06-.06-4.84,2.71-4.84,2.01,0,2.71,1.2,2.71,4.56m-5.55-6.47v-1.51h-3.88v21.93h4v-7.3c1.14,1.14,2.16,1.6,3.82,1.6s3.05-.52,3.97-1.45c1.2-1.2,1.63-2.96,1.63-6.72,0-2.13-.06-2.93-.28-4.1-.22-1.08-.71-2.06-1.36-2.71-.92-.92-2.37-1.45-3.97-1.45-1.76,0-2.71,.46-3.95,1.69m-8.97,14.54v-16.05h-13.22v16.05h4.03v-12.51h5.15v12.51h4.03Zm-25.42-4.74c0-1.73-.99-3.08-2.43-3.7,1.32-.62,2.19-1.94,2.19-3.45,0-2.83-2.77-4.34-5.85-4.34-2.4,0-4.68,.43-6.5,1.88l2.22,2.46c1.05-.74,2.28-1.11,3.48-1.11,1.63,0,2.71,.52,2.71,1.64s-.83,1.76-2.16,1.76h-2.37v2.86h2.43c1.42,0,2.31,.52,2.31,1.73s-1.39,1.82-2.8,1.82c-1.51,0-2.93-.4-4.07-1.42l-2.31,2.53c1.91,1.72,4.5,2.28,7.02,2.28,3.29,0,6.13-1.94,6.13-4.93m-19.07-4.77h-6.11c.09-2.16,1.2-3.39,3.05-3.39s2.93,1.2,3.05,3.39m3.94,2.74v-1.78c0-4.65-2.74-7.67-6.99-7.67s-6.99,3.14-6.99,8.16c0,5.46,2.52,8.25,7.45,8.25,1.26,0,2.37-.22,3.3-.59,1.02-.43,1.57-.8,2.77-1.94l-2.43-2.37c-.71,.68-1.05,.93-1.63,1.17-.52,.22-1.2,.34-1.85,.34-2.34,0-3.55-1.17-3.67-3.58h10.04Zm-22.02-.06c0,1.82-1.14,3.02-3.05,3.02h-4.29v-6.04h4.29c1.91,0,3.05,1.23,3.05,3.02m4.28,0c0-4.01-2.71-6.84-7.11-6.84h-4.5v-4.44h10.23v-3.82h-14.51v21.93h8.78c4.44,0,7.11-2.83,7.11-6.84"/><path class="h" d="M293.67,415.23c0-2.71-1.6-4.41-4.78-4.72l-2.53-.25c-1.42-.12-1.66-.8-1.66-1.39,0-.8,.68-1.54,2.28-1.54,1.39,0,2.8,.25,3.73,1.08l2.46-2.49c-1.54-1.45-3.64-1.88-6.13-1.88-3.27,0-6.19,1.78-6.19,5.11,0,2.96,1.79,4.22,4.68,4.5l2.53,.25c1.26,.12,1.69,.68,1.69,1.48,0,1.2-1.45,1.66-2.83,1.66-1.23,0-2.96-.18-4.28-1.51l-2.62,2.62c2.03,2.03,4.31,2.31,6.84,2.31,3.79,0,6.81-1.69,6.81-5.23m-15.87,0c0-2.71-1.6-4.41-4.78-4.72l-2.53-.25c-1.42-.12-1.66-.8-1.66-1.39,0-.8,.68-1.54,2.28-1.54,1.39,0,2.8,.25,3.73,1.08l2.46-2.49c-1.54-1.45-3.64-1.88-6.13-1.88-3.27,0-6.19,1.78-6.19,5.11,0,2.96,1.79,4.22,4.68,4.5l2.53,.25c1.26,.12,1.69,.68,1.69,1.48,0,1.2-1.45,1.66-2.83,1.66-1.23,0-2.96-.18-4.28-1.51l-2.62,2.62c2.03,2.03,4.31,2.31,6.84,2.31,3.79,0,6.81-1.69,6.81-5.23m-17.19,5.05v-16.05h-4v9.71c0,2.19-1.42,2.93-2.68,2.93s-2.65-.74-2.65-2.93v-9.71h-4v10.26c0,1.76,.34,3.26,1.63,4.56,.89,.89,2.19,1.41,3.79,1.41,1.48,0,2.96-.55,4.01-1.66v1.48h3.91Zm-16.98,0v-3.38h-1.54c-1.02,0-1.42-.49-1.42-1.45v-17.1h-4v17.35c0,2.28,1.38,4.59,4.68,4.59h2.28Zm-11.74,0v-10.38c0-3.39-1.85-5.85-5.36-5.85-1.42,0-2.77,.55-3.85,1.66v-7.36h-4v21.93h4v-9.8c0-2.1,1.33-2.83,2.59-2.83s2.62,.71,2.62,2.83v9.8h4Zm-16.95-2l-2.71-2.68c-.83,.89-1.54,1.26-2.59,1.26-.96,0-1.69-.34-2.28-1.05-.62-.77-.89-1.88-.89-3.58s.28-2.77,.89-3.55c.59-.71,1.32-1.05,2.28-1.05,1.05,0,1.76,.37,2.59,1.26l2.71-2.71c-1.42-1.48-3.08-2.15-5.3-2.15-3.2,0-7.17,1.69-7.17,8.19s3.97,8.22,7.17,8.22c2.22,0,3.88-.71,5.3-2.19m-15.65-3.05c0-2.71-1.6-4.41-4.78-4.72l-2.53-.25c-1.42-.12-1.66-.8-1.66-1.39,0-.8,.68-1.54,2.28-1.54,1.39,0,2.8,.25,3.73,1.08l2.46-2.49c-1.54-1.45-3.64-1.88-6.13-1.88-3.27,0-6.19,1.78-6.19,5.11,0,2.96,1.79,4.22,4.68,4.5l2.53,.25c1.26,.12,1.69,.68,1.69,1.48,0,1.2-1.45,1.66-2.83,1.66-1.23,0-2.96-.18-4.28-1.51l-2.62,2.62c2.03,2.03,4.31,2.31,6.84,2.31,3.79,0,6.81-1.69,6.81-5.23m-20.52-2.99c0,2.62-.31,4.62-2.71,4.62s-2.71-2.01-2.71-4.62,.31-4.59,2.71-4.59,2.71,1.97,2.71,4.59m4,0c0-2.4-.03-5.15-1.63-6.75-.89-.89-2.34-1.45-3.91-1.45s-2.84,.43-3.89,1.6v-7.3h-4v21.93h3.88v-1.51c1.11,1.23,2.31,1.69,4.01,1.69,1.57,0,3.02-.55,3.91-1.45,1.6-1.6,1.63-4.38,1.63-6.78m-23.35,.56h-5.45l2.77-7.98,2.68,7.98Zm6.9,7.48l-8.01-21.93h-3.36l-7.98,21.93h4.47l1.32-3.88h7.8l1.29,3.88h4.47Zm-33.28-9.52h-6.1c.03-.71,.12-1.14,.37-1.73,.43-.96,1.32-1.67,2.68-1.67s2.25,.71,2.68,1.67c.25,.59,.34,1.02,.37,1.73m3.94,2.74v-1.78c0-4.41-2.53-7.67-6.99-7.67-4.16,0-6.99,2.95-6.99,8.19,0,6.5,3.63,8.22,7.42,8.22,2.9,0,4.47-.89,6.1-2.52l-2.43-2.37c-1.02,1.02-1.88,1.51-3.64,1.51-2.25,0-3.51-1.51-3.51-3.58h10.04Zm-18.12,6.78v-10.26c0-1.76-.34-3.26-1.63-4.56-.89-.89-2.19-1.41-3.79-1.41-1.48,0-2.96,.55-4.01,1.66v-1.48h-3.91v16.05h4v-9.71c0-2.19,1.42-2.93,2.68-2.93s2.65,.74,2.65,2.93v9.71h4Zm-18.27,0v-10.38c0-3.39-1.85-5.85-5.36-5.85-1.42,0-2.78,.55-3.85,1.66v-7.36h-4v21.93h4v-9.8c0-2.1,1.32-2.83,2.59-2.83s2.62,.71,2.62,2.83v9.8h4Zm-21.66-8.04c0,1.66-.09,3.08-.93,3.92-.46,.46-1.08,.71-1.88,.71s-1.39-.25-1.85-.71c-.83-.83-.92-2.25-.92-3.92s.09-3.05,.92-3.88c.46-.46,1.05-.71,1.85-.71s1.42,.25,1.88,.71c.83,.83,.93,2.22,.93,3.88m4,0c0-2.9-.37-4.72-1.82-6.22-.99-1.05-2.62-1.97-4.99-1.97s-3.98,.92-4.96,1.97c-1.45,1.51-1.82,3.33-1.82,6.22s.37,4.75,1.82,6.25c.98,1.05,2.59,1.97,4.96,1.97s4.01-.92,4.99-1.97c1.45-1.51,1.82-3.33,1.82-6.25"/></g><polygon class="f" points="15.14 357.46 26.26 357.46 20.7 351.9 15.14 357.46"/><polygon class="f" points="15.14 379.57 26.26 379.57 20.7 374.01 15.14 379.57"/><polygon class="f" points="15.14 368.51 26.26 368.51 20.7 362.96 15.14 368.51"/><polygon class="f" points="15.14 235.86 26.26 235.86 20.7 230.3 15.14 235.86"/><polygon class="f" points="15.14 212.49 26.26 212.49 20.7 206.93 15.14 212.49"/><polygon class="f" points="15.14 234.6 26.26 234.6 20.7 229.04 15.14 234.6"/><polygon class="f" points="15.14 223.54 26.26 223.54 20.7 217.98 15.14 223.54"/><polygon class="f" points="15.14 90.89 26.26 90.89 20.7 85.33 15.14 90.89"/><polygon class="f" points="15.14 56.1 26.26 56.1 20.7 50.54 15.14 56.1"/><polygon class="f" points="15.14 78.21 26.26 78.21 20.7 72.65 15.14 78.21"/><polygon class="f" points="15.14 67.16 26.26 67.16 20.7 61.6 15.14 67.16"/></svg>