<?xml version="1.0" encoding="UTF-8"?><svg id="a" xmlns="http://www.w3.org/2000/svg" xmlns:xlink="http://www.w3.org/1999/xlink" viewBox="0 0 401.57 512"><defs><style>.f{fill:none;}.g{fill:#fff;}.h{fill:#87ccc8;}.i{fill:#2b2961;}.j{clip-path:url(#c);}.k{clip-path:url(#b);}.l{clip-path:url(#e);}.m{clip-path:url(#d);}</style><clipPath id="b"><rect class="f" x="3.58" width="394.41" height="512"/></clipPath><clipPath id="c"><rect class="f" x="3.58" width="394.41" height="512"/></clipPath><clipPath id="d"><rect class="f" x="3.58" width="394.41" height="512"/></clipPath><clipPath id="e"><rect class="f" x="3.58" width="394.41" height="512"/></clipPath></defs><rect class="h" x="3.58" y="217.82" width="37.34" height="156.74"/><rect class="h" x="4.37" y="284.08" width="392.83" height="227.13"/><g class="k"><path class="i" d="M397.99,512H3.58v-228.71H397.99v228.71Zm-392.83-1.58H396.41v-225.55H5.16v225.55Z"/></g><polygon class="g" points="16.07 252.33 28.43 252.33 22.25 246.15 16.07 252.33"/><polygon class="g" points="16.07 276.91 28.43 276.91 22.25 270.73 16.07 276.91"/><polygon class="g" points="16.07 264.62 28.43 264.62 22.25 258.44 16.07 264.62"/><rect class="h" x="3.58" y="43.82" width="37.34" height="63.54"/><rect class="h" x="4.37" y=".79" width="392.67" height="54.81"/><g class="j"><path class="i" d="M397.83,56.39H3.58V0H397.83V56.39ZM5.16,54.81H396.25V1.58H5.16V54.81Z"/><path class="g" d="M316.28,27.56h-6.78c.03-.79,.14-1.27,.41-1.92,.48-1.06,1.47-1.85,2.98-1.85s2.5,.79,2.98,1.85c.27,.65,.38,1.13,.41,1.92m4.38,3.04v-1.98c0-4.9-2.81-8.53-7.78-8.53-4.62,0-7.77,3.28-7.77,9.11,0,7.23,4.04,9.14,8.25,9.14,3.22,0,4.97-.99,6.78-2.81l-2.71-2.64c-1.13,1.13-2.09,1.68-4.04,1.68-2.5,0-3.9-1.68-3.9-3.98h11.17Zm-18.22-6.41v-3.39h-3.29v-1.96c0-1.03,.48-1.61,1.54-1.61h1.75v-3.76h-2.53c-3.63,0-5.2,2.57-5.2,5.1v2.23h-1.85v3.39h1.85v13.94h4.45v-13.94h3.29Zm-13.91-10.58h-4.55v3.63h4.55v-3.63Zm-.03,6.68h-4.45v17.84h4.45V20.3Zm-13.63,7.26h-6.78c.03-.79,.14-1.27,.41-1.92,.48-1.06,1.47-1.85,2.98-1.85s2.5,.79,2.98,1.85c.27,.65,.38,1.13,.41,1.92m4.38,3.04v-1.98c0-4.9-2.81-8.53-7.78-8.53-4.62,0-7.77,3.28-7.77,9.11,0,7.23,4.04,9.14,8.25,9.14,3.22,0,4.97-.99,6.78-2.81l-2.71-2.64c-1.13,1.13-2.09,1.68-4.04,1.68-2.5,0-3.9-1.68-3.9-3.98h11.17Zm-16.82-8.83c-1.23-1.23-2.47-1.68-4.21-1.68-1.92,0-3.63,.89-4.49,1.92v-1.71h-4.34v17.84h4.45v-10.76c0-2.26,1.51-3.29,2.88-3.29,1.1,0,1.68,.38,2.36,1.06l3.36-3.39Zm-17.3,16.37v-3.76h-1.71c-1.13,0-1.58-.55-1.58-1.61V13.76h-4.45v19.28c0,2.53,1.54,5.1,5.2,5.1h2.53Zm-13.26,0V20.3h-4.45v10.79c0,2.43-1.58,3.25-2.98,3.25s-2.95-.82-2.95-3.25v-10.79h-4.45v11.41c0,1.95,.38,3.63,1.81,5.07,.99,.99,2.43,1.57,4.21,1.57,1.64,0,3.29-.62,4.46-1.85v1.64h4.34Zm-20.1,0v-11.54c0-3.77-2.06-6.5-5.96-6.5-1.58,0-3.09,.61-4.28,1.85V13.76h-4.45v24.38h4.45v-10.89c0-2.33,1.47-3.15,2.88-3.15s2.91,.79,2.91,3.15v10.89h4.45Zm-18.84-2.22l-3.01-2.98c-.92,1-1.71,1.41-2.88,1.41-1.06,0-1.88-.38-2.53-1.17-.69-.86-.99-2.09-.99-3.97s.31-3.09,.99-3.94c.65-.79,1.47-1.16,2.53-1.16,1.16,0,1.95,.41,2.88,1.4l3.01-3.01c-1.58-1.64-3.43-2.4-5.89-2.4-3.56,0-7.98,1.88-7.98,9.11s4.42,9.14,7.98,9.14c2.47,0,4.32-.79,5.89-2.43m-17.4-3.39c0-3.01-1.78-4.9-5.31-5.24l-2.81-.28c-1.58-.14-1.85-.89-1.85-1.54,0-.89,.75-1.71,2.53-1.71,1.54,0,3.12,.27,4.14,1.2l2.74-2.77c-1.71-1.61-4.04-2.09-6.82-2.09-3.63,0-6.88,1.98-6.88,5.68,0,3.29,1.99,4.7,5.21,5l2.81,.27c1.4,.14,1.88,.75,1.88,1.64,0,1.34-1.61,1.85-3.15,1.85-1.37,0-3.29-.21-4.76-1.68l-2.91,2.91c2.26,2.26,4.8,2.57,7.6,2.57,4.21,0,7.57-1.88,7.57-5.82m-18.91,5.61v-11.54c0-3.77-2.05-6.5-5.96-6.5-1.58,0-3.09,.61-4.28,1.85V13.76h-4.45v24.38h4.45v-10.89c0-2.33,1.47-3.15,2.88-3.15s2.91,.79,2.91,3.15v10.89h4.45Zm-18.84-2.22l-3.01-2.98c-.92,1-1.71,1.41-2.88,1.41-1.06,0-1.88-.38-2.53-1.17-.69-.86-.99-2.09-.99-3.97s.31-3.09,.99-3.94c.65-.79,1.47-1.16,2.53-1.16,1.16,0,1.95,.41,2.88,1.4l3.01-3.01c-1.58-1.64-3.43-2.4-5.89-2.4-3.56,0-7.98,1.88-7.98,9.11s4.41,9.14,7.98,9.14c2.47,0,4.32-.79,5.89-2.43m-22.36-6.71c0,1.85-.1,3.43-1.03,4.35-.51,.52-1.2,.79-2.09,.79s-1.54-.27-2.06-.79c-.92-.92-1.03-2.5-1.03-4.35s.1-3.39,1.03-4.32c.51-.51,1.17-.79,2.06-.79s1.58,.27,2.09,.79c.93,.92,1.03,2.47,1.03,4.32m4.45,0c0-3.22-.41-5.24-2.02-6.92-1.1-1.16-2.91-2.19-5.55-2.19s-4.42,1.02-5.51,2.19c-1.61,1.68-2.02,3.7-2.02,6.92s.41,5.28,2.02,6.95c1.09,1.16,2.87,2.19,5.51,2.19s4.45-1.03,5.55-2.19c1.61-1.68,2.02-3.7,2.02-6.95m-20.38,8.94V13.76h-4.76v9.97h-8.26V13.76h-4.76v24.38h4.76v-10.21h8.26v10.21h4.76Z"/></g><polygon class="g" points="16.07 65.56 28.43 65.56 22.25 59.38 16.07 65.56"/><polygon class="g" points="16.07 90.14 28.43 90.14 22.25 83.96 16.07 90.14"/><polygon class="g" points="16.07 77.85 28.43 77.85 22.25 71.67 16.07 77.85"/><rect class="h" x="3.58" y="190.99" width="392.82" height="37.34"/><g class="m"><path class="i" d="M221.7,150.68v-3.56h-9.21v3.97h4.49v.92c0,1.34-.38,2.43-1.1,3.26-.86,.93-1.99,1.37-3.39,1.37-1.3,0-2.33-.41-3.05-1.27-.96-1.13-1.16-2.09-1.16-6.88s.27-5.72,1.16-6.85c.75-.86,1.78-1.3,3.05-1.3,2.36,0,3.8,1.2,4.38,3.56h4.79c-.65-4.25-3.63-7.81-9.18-7.81-2.61,0-4.8,.89-6.58,2.67-1.06,1.06-1.71,2.26-1.99,3.67-.27,1.37-.41,3.39-.41,6.06s.14,4.69,.41,6.06c.27,1.37,.92,2.61,1.99,3.67,1.78,1.78,3.97,2.67,6.58,2.67,2.74,0,5-.86,6.88-2.77,1.68-1.78,2.33-3.87,2.33-7.44m-28.01-7.33c0,1.68-1.13,2.81-3.15,2.81h-4.66v-5.62h4.66c2.02,0,3.15,1.13,3.15,2.81m.34,10.07c0,1.64-1.03,3.02-3.19,3.02h-4.97v-6h4.97c2.16,0,3.19,1.34,3.19,2.98m4.76,.24c0-3.26-1.88-4.8-3.35-5.48,1.23-.58,3.01-2.33,3.01-5.04,0-4.18-2.77-6.85-7.53-6.85h-9.79v24.38h10.2c4.35,0,7.46-2.46,7.46-7.02"/><path class="g" d="M313.69,217.31v-16.88h-2.35l-7.54,12.23v-12.23h-2.56v16.88h2.32l7.57-12.26v12.26h2.56Zm-18.5,0v-16.88h-2.58v7.23h-6.83v-7.23h-2.56v16.88h2.56v-7.38h6.83v7.38h2.58Zm-18.05,0v-16.88h-2.35l-7.54,12.23v-12.23h-2.56v16.88h2.32l7.57-12.26v12.26h2.56Zm-28.83-16.88v4.98c0,4.01-.59,7.33-2.06,9.61h-1.47v6.09h2.49v-3.79h10.24v3.79h2.51v-6.09h-1.99v-14.58h-9.72Zm2.46,2.29h4.7v12.29h-6.36c1.25-2.37,1.66-5.29,1.66-8.52v-3.77Zm-11.9,5.98c0,2.87,0,4.36-1,5.41-.64,.69-1.52,1.05-2.51,1.05s-1.83-.36-2.52-1.05c-.9-.9-.97-2.49-.97-4.22v-1.45c0-2.16,.02-3.82,.97-4.81,.66-.69,1.57-1.05,2.52-1.05s1.85,.36,2.51,1.05c.95,1,1,2.51,1,5.07m2.58-1.02c0-2.4-.33-4.27-1.63-5.6-1.16-1.16-2.7-1.8-4.46-1.8s-3.28,.64-4.43,1.8c-1.42,1.42-1.64,3.23-1.64,6v1.11c0,2.51,.02,4.81,1.64,6.45,1.16,1.19,2.68,1.8,4.43,1.8s3.3-.61,4.46-1.8c1.61-1.66,1.63-3.77,1.63-6.55v-1.42Zm-15.39-4.96v-2.29h-10.38v16.88h2.56v-14.58h7.83Zm-21.65-4.05h-2.32l-6.76,20.39h2.32l6.76-20.39Zm-19.52,18.63v-2.29h-8.23v-5.08h7.02v-2.27h-7.02v-4.94h8.23v-2.29h-10.78v16.88h10.78Zm-18.99-11.93c0,1.66-1.16,2.63-2.87,2.63h-3.79v-5.29h3.79c1.71,0,2.87,1,2.87,2.66m3.08,11.93l-3.89-7.47c1.89-.52,3.36-2.06,3.36-4.48,0-2.87-2.04-4.93-5.24-4.93h-6.54v16.88h2.56v-7.11h3.2l3.56,7.11h2.99Zm-18.62,0v-16.88h-2.56v7.21h-6.86v-7.21h-2.56v16.88h2.56v-7.38h6.86v7.38h2.56Zm-20.87-5.57h-5.19l2.63-7.49,2.56,7.49Zm4.6,5.57l-6.19-16.88h-2.06l-6.19,16.88h2.73l1.16-3.39h6.66l1.16,3.39h2.73Zm-18.26-5.33v-11.55h-2.56v11.36c0,2.21-1.16,3.37-3.06,3.37-1.23,0-1.8-.43-2.4-1.02l-1.71,1.68c1.16,1.16,2.37,1.63,4.1,1.63,3.11,0,5.62-1.97,5.62-5.47m-22.91,.38c0,1.8-1.07,2.94-2.58,2.94s-2.56-1.14-2.56-2.94,1.04-2.92,2.56-2.92c1.61,0,2.58,1.26,2.58,2.92m2.42-.05c0-2.97-1.99-4.88-4.43-4.88-.52,0-1.05,.07-1.5,.26l3.63-7.25h-2.58l-3.84,7.82c-.74,1.47-1.26,2.77-1.26,4.15,0,3.13,2.08,5.05,5,5.05s4.98-2.03,4.98-5.14"/><path class="i" d="M397.99,228.91H3.58V105.46H397.99v123.45Zm-392.83-1.58H396.41V107.04H5.16v120.29Z"/></g><polygon class="g" points="16.07 100.54 28.43 100.54 22.25 94.36 16.07 100.54"/><polygon class="g" points="16.07 239.96 28.43 239.96 22.25 233.78 16.07 239.96"/><g class="l"><path class="g" d="M260.03,490.72l-3.01-2.98c-1.06,1.06-1.71,1.41-2.88,1.41-2.33,0-3.53-1.72-3.53-5.14s1.2-5.11,3.53-5.11c1.13,0,1.85,.34,2.88,1.4l3.01-3.01c-1.06-1.03-1.58-1.37-2.53-1.78-.96-.41-2.09-.61-3.32-.61-5.04,0-8.01,3.35-8.01,8.97,0,5.93,2.91,9.28,8.01,9.28,1.23,0,2.33-.21,3.32-.65,.96-.41,1.47-.75,2.53-1.78m-22.91-5.31v.96c0,2.23-.92,3.12-3.22,3.12-1.88,0-2.81-.69-2.81-2.06s.92-2.02,2.5-2.02h3.53Zm4.45,7.54v-11.75c0-4.18-2.57-6.3-7.71-6.3-1.68,0-2.91,.21-3.94,.65-.89,.41-1.37,.79-2.4,1.82l2.84,2.77c1.06-1.17,1.78-1.48,3.36-1.48,2.4,0,3.39,.82,3.39,2.81v.89h-4.22c-3.77,0-6.09,1.98-6.09,5.2,0,3.49,2.22,5.55,6.03,5.55,1.03,0,1.85-.14,2.54-.41,.69-.27,1.06-.55,1.85-1.3v1.54h4.35Zm-19.18,0v-17.84h-13.05v7.22c0,6.41-1.47,6.68-2.98,6.68h-.55v3.93h2.12c3.63,0,5.72-1.98,5.72-9.62v-4.28h4.28v13.91h4.45Zm-29.01,0v-9.31l6.13,9.31h5.34l-6.71-9.52,6.3-8.32h-5.21l-5.86,8.46v-8.46h-4.48v17.84h4.48Zm-18.77,0v-17.84h-4.48l-6.27,10.62v-10.62h-4.48v17.84h4.48l6.27-10.89v10.89h4.48Zm-18.77-13.91v-3.93h-14.86v3.93h5.24v13.91h4.48v-13.91h5.14Z"/><path class="g" d="M379.5,439.99h-10.55v4.14h10.55v-4.14Zm-19.59,4.76c0,2.06-1.2,3.29-2.95,3.29s-2.98-1.23-2.98-3.29v-10.18c0-2.06,1.23-3.32,2.98-3.32s2.95,1.27,2.95,3.32v10.18Zm4.45,.04v-10.28c0-4.66-3.42-7.26-7.4-7.26s-7.43,2.6-7.43,7.26v10.28c0,4.66,3.46,7.26,7.43,7.26s7.4-2.6,7.4-7.26m-23.05,7.05v-24.38h-4.45l-4.97,4.32v4.79l4.97-4.31v19.59h4.45Zm-29.76-3.93h-5.45c.89-1.82,1.37-4.04,1.37-7.64v-2.33h4.08v9.97Zm6.71,8.32v-8.32h-2.26v-13.91h-12.81v5.44c0,4.66-.82,6.82-1.75,8.47h-1.82v8.32h4.21v-4.38h10.21v4.38h4.21Zm-25.75-14.96h-6.79c.1-2.4,1.34-3.77,3.39-3.77s3.26,1.34,3.39,3.77m4.38,3.04v-1.98c0-5.17-3.05-8.53-7.77-8.53s-7.77,3.49-7.77,9.07c0,6.07,2.81,9.18,8.29,9.18,1.4,0,2.64-.24,3.67-.65,1.13-.48,1.75-.89,3.08-2.16l-2.7-2.64c-.79,.75-1.16,1.03-1.82,1.3-.58,.24-1.34,.38-2.06,.38-2.61,0-3.94-1.3-4.08-3.98h11.17Zm-20.35,7.54v-17.84h-13.05v7.22c0,6.41-1.47,6.68-2.98,6.68h-.55v3.93h2.12c3.63,0,5.72-1.98,5.72-9.62v-4.28h4.29v13.91h4.45Zm-18.7-2.22l-3.01-2.98c-1.06,1.06-1.71,1.4-2.88,1.4-2.33,0-3.53-1.71-3.53-5.14s1.2-5.11,3.53-5.11c1.13,0,1.85,.34,2.88,1.4l3.01-3.01c-1.06-1.03-1.58-1.37-2.53-1.78-.96-.41-2.09-.62-3.32-.62-5.03,0-8.01,3.35-8.01,8.97,0,5.93,2.91,9.28,8.01,9.28,1.23,0,2.33-.21,3.32-.65,.96-.41,1.47-.75,2.53-1.78m-30.79-8.36h-6.79c.1-2.4,1.34-3.77,3.39-3.77s3.26,1.34,3.39,3.77m4.38,3.04v-1.98c0-5.17-3.05-8.53-7.77-8.53s-7.77,3.49-7.77,9.07c0,6.07,2.81,9.18,8.29,9.18,1.4,0,2.64-.24,3.67-.65,1.13-.48,1.74-.89,3.08-2.16l-2.7-2.64c-.79,.75-1.16,1.03-1.81,1.3-.58,.24-1.34,.38-2.06,.38-2.6,0-3.94-1.3-4.08-3.98h11.17Zm-20.31,7.54v-17.84h-4.48l-6.27,10.62v-10.62h-4.48v17.84h4.48l6.27-10.89v10.89h4.48Zm-20.86,0v-17.84h-4.48v6.75h-5.73v-6.75h-4.48v17.84h4.48v-7.16h5.73v7.16h4.48Zm-24.59-7.54v.96c0,2.23-.92,3.12-3.22,3.12-1.88,0-2.81-.69-2.81-2.06s.93-2.02,2.5-2.02h3.53Zm4.45,7.54v-11.75c0-4.18-2.57-6.3-7.7-6.3-1.68,0-2.91,.21-3.94,.65-.89,.41-1.37,.79-2.4,1.81l2.84,2.77c1.06-1.17,1.78-1.48,3.36-1.48,2.4,0,3.39,.82,3.39,2.81v.89h-4.22c-3.77,0-6.09,1.98-6.09,5.2,0,3.49,2.22,5.55,6.03,5.55,1.03,0,1.85-.14,2.54-.41,.69-.27,1.06-.55,1.85-1.3v1.54h4.34Zm-22.88-5.38c0,1.27-.82,2.09-2.23,2.09h-3.53v-4.15h3.53c1.4,0,2.23,.75,2.23,2.06m-2.43-9.18c1.4,0,2.16,.69,2.16,1.89s-.75,1.92-2.16,1.92h-3.33v-3.81h3.33Zm6.85,9.42c0-1.92-.82-3.15-2.53-4.04,1.54-.89,2.26-2.09,2.26-3.77,0-2.98-2.16-4.9-5.51-4.9h-8.8v17.84h9.11c3.35,0,5.48-1.98,5.48-5.14m-23.94-3.8c0,2.33-.14,5.14-3.12,5.14-2.16,0-3.08-1.44-3.08-4.87,0-2.29,.03-5.38,3.08-5.38s3.12,2.81,3.12,5.11m4.45-.07c0-3.46-.55-5.31-2.02-6.85-1.37-1.44-3.29-2.19-5.55-2.19s-4.14,.75-5.51,2.19c-1.47,1.57-2.02,3.39-2.02,6.92s.51,5.38,2.02,6.95c1.37,1.44,3.25,2.19,5.51,2.19s4.18-.75,5.55-2.19c1.51-1.57,2.02-3.39,2.02-7.02m-19.32,3.73c0-1.92-1.1-3.43-2.7-4.11,1.47-.68,2.43-2.16,2.43-3.84,0-3.15-3.08-4.83-6.51-4.83-2.67,0-5.21,.48-7.23,2.09l2.47,2.74c1.16-.82,2.53-1.24,3.87-1.24,1.82,0,3.01,.58,3.01,1.82s-.92,1.96-2.4,1.96h-2.64v3.18h2.71c1.58,0,2.57,.58,2.57,1.92s-1.54,2.02-3.12,2.02c-1.68,0-3.25-.45-4.52-1.58l-2.57,2.81c2.12,1.92,5,2.53,7.81,2.53,3.67,0,6.81-2.16,6.81-5.48m-22.64-2.26v.96c0,2.23-.92,3.12-3.22,3.12-1.89,0-2.81-.69-2.81-2.06s.92-2.02,2.5-2.02h3.53Zm4.45,7.54v-11.75c0-4.18-2.57-6.3-7.7-6.3-1.68,0-2.91,.21-3.94,.65-.89,.41-1.37,.79-2.4,1.81l2.84,2.77c1.06-1.17,1.78-1.48,3.36-1.48,2.4,0,3.39,.82,3.39,2.81v.89h-4.22c-3.77,0-6.09,1.98-6.09,5.2,0,3.49,2.23,5.55,6.03,5.55,1.03,0,1.85-.14,2.54-.41,.69-.27,1.06-.55,1.85-1.3v1.54h4.35Zm-22.88-8.97c0,3.8-.79,5.17-3.01,5.17s-3.02-1.37-3.02-4.87c0-2.29-.07-5.38,3.02-5.38,2.23,0,3.01,1.34,3.01,5.07m-6.17-7.19v-1.68h-4.31v24.38h4.45v-8.12c1.27,1.26,2.4,1.78,4.25,1.78s3.39-.58,4.42-1.61c1.33-1.34,1.81-3.29,1.81-7.47,0-2.36-.07-3.25-.31-4.56-.24-1.2-.79-2.29-1.5-3.01-1.03-1.02-2.64-1.61-4.42-1.61-1.96,0-3.02,.51-4.39,1.88m-16.61,16.37c2.12,0,4.01-.72,5.28-2.05,1.54-1.61,2.19-3.59,2.19-7.16,0-3.05-.69-5.75-2.26-7.23-.99-.89-2.16-1.44-4.38-1.44-1.95,0-3.77,.89-4.46,2.06,0-2.16,.62-3.26,2.26-4.11,2.02-1.06,5.04-.86,7.3-1.03v-3.83c-5.28,.03-8.5,.27-10.72,1.98-2.26,1.78-2.84,3.83-2.84,12.19,0,3.32,.37,6.17,1.44,7.84,1.2,1.88,3.56,2.77,6.2,2.77m-.07-4c-.86,0-1.61-.24-2.13-.86-.65-.72-.99-2.09-.99-4.28,0-1.95,.34-3.32,.89-4.04,.55-.69,1.34-.92,2.23-.92s1.68,.27,2.19,.96c.58,.72,.89,2.09,.89,4.04,0,2.09-.34,3.5-.93,4.22-.55,.65-1.3,.89-2.16,.89m-16.47-5.14c0,2.33-.14,5.14-3.12,5.14-2.16,0-3.09-1.44-3.09-4.87,0-2.29,.03-5.38,3.09-5.38s3.12,2.81,3.12,5.11m4.45-.07c0-3.46-.55-5.31-2.02-6.85-1.37-1.44-3.29-2.19-5.55-2.19s-4.15,.75-5.51,2.19c-1.47,1.57-2.02,3.39-2.02,6.92s.51,5.38,2.02,6.95c1.37,1.44,3.25,2.19,5.51,2.19s4.18-.75,5.55-2.19c1.5-1.57,2.02-3.39,2.02-7.02"/><path class="g" d="M336.96,401.8c0,2.33-.14,5.14-3.12,5.14-2.16,0-3.09-1.44-3.09-4.87,0-2.29,.03-5.38,3.09-5.38s3.12,2.81,3.12,5.11m4.45-.07c0-3.46-.55-5.31-2.02-6.85-1.37-1.44-3.29-2.19-5.55-2.19s-4.15,.75-5.51,2.19c-1.47,1.57-2.02,3.39-2.02,6.92s.51,5.38,2.02,6.95c1.37,1.44,3.25,2.19,5.51,2.19s4.18-.75,5.55-2.19c1.5-1.57,2.02-3.39,2.02-7.02m-20,9.01v-17.84h-4.48v6.75h-5.73v-6.75h-4.48v17.84h4.48v-7.16h5.73v7.16h4.48Zm-25.34-3.93h-5.45c.89-1.82,1.37-4.04,1.37-7.64v-2.33h4.08v9.97Zm6.71,8.32v-8.32h-2.26v-13.91h-12.81v5.44c0,4.66-.82,6.82-1.75,8.47h-1.82v8.32h4.21v-4.38h10.2v4.38h4.21Zm-25.75-14.96h-6.79c.1-2.4,1.34-3.77,3.39-3.77s3.26,1.34,3.39,3.77m4.38,3.04v-1.98c0-5.17-3.04-8.53-7.77-8.53s-7.77,3.49-7.77,9.07c0,6.06,2.81,9.18,8.29,9.18,1.41,0,2.64-.24,3.67-.65,1.13-.48,1.74-.89,3.08-2.16l-2.7-2.64c-.79,.75-1.16,1.03-1.82,1.3-.58,.24-1.34,.38-2.06,.38-2.6,0-3.94-1.3-4.08-3.98h11.17Zm-24.04-1.44c0,3.8-.79,5.17-3.02,5.17s-3.02-1.37-3.02-4.87c0-2.29-.07-5.38,3.02-5.38,2.23,0,3.02,1.34,3.02,5.07m-6.17-7.19v-1.68h-4.31v24.38h4.45v-8.12c1.27,1.26,2.4,1.78,4.25,1.78s3.39-.58,4.42-1.61c1.34-1.34,1.81-3.29,1.81-7.47,0-2.37-.07-3.26-.31-4.56-.24-1.2-.79-2.29-1.51-3.01-1.03-1.03-2.63-1.61-4.42-1.61-1.96,0-3.02,.51-4.39,1.88m-8.46,13.94l-3.01-2.98c-1.06,1.06-1.71,1.41-2.88,1.41-2.33,0-3.53-1.72-3.53-5.14s1.2-5.11,3.53-5.11c1.13,0,1.85,.34,2.88,1.4l3.01-3.01c-1.06-1.03-1.58-1.37-2.53-1.78-.96-.41-2.09-.61-3.32-.61-5.03,0-8.01,3.35-8.01,8.97,0,5.93,2.91,9.28,8.01,9.28,1.23,0,2.33-.21,3.32-.65,.96-.41,1.47-.75,2.53-1.78m-31.54-5.31v.96c0,2.23-.92,3.12-3.22,3.12-1.88,0-2.81-.69-2.81-2.06s.92-2.02,2.5-2.02h3.53Zm4.45,7.54v-11.75c0-4.18-2.57-6.3-7.71-6.3-1.68,0-2.91,.21-3.94,.65-.89,.41-1.37,.79-2.4,1.82l2.84,2.77c1.06-1.17,1.78-1.48,3.36-1.48,2.4,0,3.39,.82,3.39,2.81v.89h-4.22c-3.77,0-6.09,1.98-6.09,5.2,0,3.49,2.22,5.55,6.03,5.55,1.03,0,1.85-.14,2.54-.41,.69-.27,1.06-.55,1.85-1.3v1.54h4.35Zm-19.15,0v-17.84h-4.48v6.75h-5.72v-6.75h-4.48v17.84h4.48v-7.16h5.72v7.16h4.48Zm-28.94,0v-17.84h-4.48v6.75h-5.72v-6.75h-4.48v17.84h4.48v-7.16h5.72v7.16h4.48Zm-23.84-10.58h-6.78c.1-2.4,1.34-3.77,3.39-3.77s3.25,1.34,3.39,3.77m4.38,3.04v-1.98c0-5.17-3.05-8.53-7.77-8.53s-7.78,3.49-7.78,9.07c0,6.06,2.81,9.18,8.29,9.18,1.4,0,2.64-.24,3.67-.65,1.13-.48,1.75-.89,3.08-2.16l-2.7-2.64c-.79,.75-1.16,1.03-1.82,1.3-.58,.24-1.34,.38-2.06,.38-2.61,0-3.94-1.3-4.08-3.98h11.17Zm-20.31,7.54v-17.84h-14.69v17.84h4.48v-13.91h5.72v13.91h4.48Zm-23.84-10.58h-6.79c.1-2.4,1.34-3.77,3.39-3.77s3.26,1.34,3.39,3.77m4.38,3.04v-1.98c0-5.17-3.05-8.53-7.77-8.53s-7.77,3.49-7.77,9.07c0,6.06,2.81,9.18,8.29,9.18,1.4,0,2.64-.24,3.67-.65,1.13-.48,1.75-.89,3.08-2.16l-2.7-2.64c-.79,.75-1.16,1.03-1.82,1.3-.58,.24-1.34,.38-2.06,.38-2.61,0-3.94-1.3-4.08-3.98h11.17Zm-17.88-6.37v-3.93h-14.86v3.93h5.24v13.91h4.48v-13.91h5.14Zm-16.54,11.68l-3.01-2.98c-1.06,1.06-1.71,1.41-2.88,1.41-2.33,0-3.53-1.72-3.53-5.14s1.2-5.11,3.53-5.11c1.13,0,1.85,.34,2.88,1.4l3.01-3.01c-1.06-1.03-1.58-1.37-2.53-1.78-.96-.41-2.09-.61-3.32-.61-5.03,0-8.01,3.35-8.01,8.97,0,5.93,2.91,9.28,8.01,9.28,1.23,0,2.33-.21,3.32-.65,.96-.41,1.47-.75,2.53-1.78"/><path class="g" d="M341.95,362.09v.96c0,2.23-.92,3.12-3.22,3.12-1.88,0-2.81-.69-2.81-2.06s.93-2.02,2.5-2.02h3.53Zm4.45,7.54v-11.75c0-4.18-2.57-6.3-7.7-6.3-1.68,0-2.91,.21-3.94,.65-.89,.41-1.37,.79-2.4,1.82l2.84,2.77c1.06-1.17,1.78-1.48,3.36-1.48,2.4,0,3.39,.82,3.39,2.81v.89h-4.22c-3.77,0-6.09,1.98-6.09,5.2,0,3.49,2.22,5.55,6.03,5.55,1.03,0,1.85-.14,2.53-.41,.69-.27,1.06-.55,1.85-1.3v1.54h4.34Zm-22.88-5.38c0,1.27-.82,2.09-2.23,2.09h-3.53v-4.15h3.53c1.41,0,2.23,.75,2.23,2.06m-2.43-9.18c1.41,0,2.16,.69,2.16,1.89s-.75,1.92-2.16,1.92h-3.33v-3.81h3.33Zm6.85,9.42c0-1.92-.82-3.15-2.53-4.04,1.54-.89,2.26-2.09,2.26-3.77,0-2.98-2.16-4.9-5.51-4.9h-8.8v17.84h9.11c3.35,0,5.48-1.98,5.48-5.14m-23.94-3.84c0,3.8-.79,5.17-3.02,5.17s-3.02-1.37-3.02-4.87c0-2.29-.07-5.38,3.02-5.38,2.23,0,3.02,1.34,3.02,5.07m-6.17-7.19v-1.68h-4.31v24.38h4.45v-8.12c1.27,1.26,2.4,1.78,4.25,1.78s3.39-.58,4.42-1.61c1.34-1.34,1.81-3.29,1.81-7.47,0-2.37-.07-3.26-.31-4.56-.24-1.2-.79-2.29-1.51-3.01-1.03-1.03-2.63-1.61-4.42-1.61-1.96,0-3.02,.51-4.39,1.88m-15.35,8.25c1.44,0,2.37,.86,2.37,2.19s-.92,2.23-2.37,2.23h-3.43v-4.42h3.43Zm6.75,2.19c0-3.36-2.4-5.68-5.92-5.68h-4.12v-6.44h-8.66v3.93h4.18v13.91h8.6c3.53,0,5.92-2.36,5.92-5.72m-22.26,5.72v-17.84h-14.69v17.84h4.48v-13.91h5.72v13.91h4.48Zm-33.22-7.54v.96c0,2.23-.92,3.12-3.22,3.12-1.88,0-2.81-.69-2.81-2.06s.92-2.02,2.5-2.02h3.53Zm4.45,7.54v-11.75c0-4.18-2.57-6.3-7.71-6.3-1.68,0-2.91,.21-3.94,.65-.89,.41-1.37,.79-2.4,1.82l2.84,2.77c1.06-1.17,1.78-1.48,3.36-1.48,2.4,0,3.39,.82,3.39,2.81v.89h-4.22c-3.77,0-6.09,1.98-6.09,5.2,0,3.49,2.22,5.55,6.03,5.55,1.03,0,1.85-.14,2.54-.41,.69-.27,1.06-.55,1.85-1.3v1.54h4.35Zm-19.15,0v-17.84h-4.48v6.75h-5.72v-6.75h-4.48v17.84h4.48v-7.16h5.72v7.16h4.48Zm-23.84-10.58h-6.78c.1-2.4,1.34-3.77,3.39-3.77s3.25,1.34,3.39,3.77m4.38,3.04v-1.98c0-5.17-3.05-8.53-7.77-8.53s-7.78,3.49-7.78,9.07c0,6.06,2.81,9.18,8.29,9.18,1.4,0,2.64-.24,3.67-.65,1.13-.48,1.74-.89,3.08-2.16l-2.7-2.64c-.79,.75-1.16,1.03-1.82,1.3-.58,.24-1.34,.38-2.06,.38-2.61,0-3.94-1.3-4.08-3.98h11.17Zm-20.35,7.54v-17.84h-4.45v13.91h-4.9v-13.91h-4.45v13.91h-4.9v-13.91h-4.48v17.84h23.18Zm-32.54-8.97c0,3.8-.79,5.17-3.02,5.17s-3.02-1.37-3.02-4.87c0-2.29-.07-5.38,3.02-5.38,2.23,0,3.02,1.34,3.02,5.07m-6.17-7.19v-1.68h-4.31v24.38h4.45v-8.12c1.27,1.26,2.4,1.78,4.25,1.78s3.39-.58,4.42-1.61c1.33-1.34,1.81-3.29,1.81-7.47,0-2.37-.07-3.26-.31-4.56-.24-1.2-.79-2.29-1.5-3.01-1.03-1.03-2.63-1.61-4.42-1.61-1.95,0-3.02,.51-4.39,1.88m-15.34,8.25c1.44,0,2.37,.86,2.37,2.19s-.93,2.23-2.37,2.23h-3.43v-4.42h3.43Zm6.75,2.19c0-3.36-2.4-5.68-5.92-5.68h-4.11v-6.44h-8.66v3.93h4.18v13.91h8.59c3.53,0,5.92-2.36,5.92-5.72m-25.99,.34c0,1.27-.82,2.09-2.23,2.09h-3.53v-4.15h3.53c1.41,0,2.23,.75,2.23,2.06m-2.43-9.18c1.41,0,2.16,.69,2.16,1.89s-.75,1.92-2.16,1.92h-3.33v-3.81h3.33Zm6.85,9.42c0-1.92-.82-3.15-2.53-4.04,1.54-.89,2.26-2.09,2.26-3.77,0-2.98-2.16-4.9-5.51-4.9h-8.8v17.84h9.11c3.36,0,5.48-1.98,5.48-5.14m-24.49-2.4v.96c0,2.23-.92,3.12-3.22,3.12-1.89,0-2.81-.69-2.81-2.06s.92-2.02,2.5-2.02h3.53Zm4.45,7.54v-11.75c0-4.18-2.57-6.3-7.7-6.3-1.68,0-2.91,.21-3.94,.65-.89,.41-1.37,.79-2.4,1.82l2.84,2.77c1.06-1.17,1.78-1.48,3.36-1.48,2.4,0,3.39,.82,3.39,2.81v.89h-4.22c-3.77,0-6.09,1.98-6.09,5.2,0,3.49,2.22,5.55,6.03,5.55,1.03,0,1.85-.14,2.53-.41,.69-.27,1.06-.55,1.85-1.3v1.54h4.34Zm-27.4,.21c5.04,0,8.7-2.84,8.7-7.26,0-2.67-1.37-4.59-3.53-5.55,1.92-1.03,3.18-2.88,3.18-5.24,0-4.11-3.49-6.75-8.25-6.75s-8.08,2.6-8.94,7.6h4.76c.48-1.96,1.78-3.53,4.14-3.53,2.16,0,3.53,1.13,3.53,3.02s-1.23,3.09-3.32,3.09h-3.19v3.9h3.15c2.47,0,3.7,1.23,3.7,3.29s-1.51,3.29-3.9,3.29-3.67-1.51-4.18-3.46h-4.73c.86,5,4.42,7.6,8.87,7.6"/><path class="i" d="M305.31,317.95h-6.78c.03-.79,.14-1.27,.41-1.92,.48-1.06,1.47-1.85,2.98-1.85s2.5,.79,2.98,1.85c.27,.65,.38,1.13,.41,1.92m4.38,3.04v-1.98c0-4.9-2.81-8.53-7.78-8.53-4.62,0-7.77,3.28-7.77,9.11,0,7.23,4.04,9.14,8.25,9.14,3.22,0,4.97-.99,6.78-2.81l-2.71-2.64c-1.13,1.13-2.09,1.68-4.04,1.68-2.5,0-3.9-1.68-3.9-3.98h11.17Zm-18.22-6.41v-3.39h-3.29v-1.96c0-1.03,.48-1.61,1.54-1.61h1.75v-3.76h-2.53c-3.63,0-5.2,2.57-5.2,5.1v2.23h-1.85v3.39h1.85v13.94h4.45v-13.94h3.29Zm-13.91-10.58h-4.55v3.63h4.55v-3.63Zm-.03,6.68h-4.45v17.84h4.45v-17.84Zm-13.63,7.26h-6.78c.03-.79,.14-1.27,.41-1.92,.48-1.06,1.47-1.85,2.98-1.85s2.5,.79,2.98,1.85c.27,.65,.38,1.13,.41,1.92m4.38,3.04v-1.98c0-4.9-2.81-8.53-7.78-8.53-4.62,0-7.77,3.28-7.77,9.11,0,7.23,4.04,9.14,8.25,9.14,3.22,0,4.97-.99,6.78-2.81l-2.71-2.64c-1.13,1.13-2.09,1.68-4.04,1.68-2.5,0-3.9-1.68-3.9-3.98h11.17Zm-24.69-9.38c0,1.88-1.37,3.22-3.46,3.22h-4.49v-6.44h4.49c2.09,0,3.46,1.34,3.46,3.22m5.75,16.92l-5.44-10.52c2.36-.85,4.45-2.97,4.45-6.4,0-4.08-2.94-7.46-7.91-7.46h-9.55v24.38h4.76v-9.73h3.43l4.76,9.73h5.51Zm-36.62-10.58h-6.78c.03-.79,.14-1.27,.41-1.92,.48-1.06,1.47-1.85,2.98-1.85s2.5,.79,2.98,1.85c.27,.65,.38,1.13,.41,1.92m4.38,3.04v-1.98c0-4.9-2.81-8.53-7.78-8.53-4.62,0-7.77,3.28-7.77,9.11,0,7.23,4.04,9.14,8.25,9.14,3.22,0,4.97-.99,6.78-2.81l-2.71-2.64c-1.13,1.13-2.09,1.68-4.04,1.68-2.5,0-3.9-1.68-3.9-3.98h11.17Zm-16.82-8.83c-1.23-1.23-2.47-1.68-4.21-1.68-1.92,0-3.63,.89-4.49,1.92v-1.71h-4.34v17.84h4.45v-10.76c0-2.26,1.51-3.29,2.88-3.29,1.1,0,1.68,.38,2.36,1.06l3.36-3.39Zm-22.23,5.79h-6.78c.03-.79,.14-1.27,.41-1.92,.48-1.06,1.47-1.85,2.98-1.85s2.5,.79,2.98,1.85c.27,.65,.38,1.13,.41,1.92m4.38,3.04v-1.98c0-4.9-2.81-8.53-7.78-8.53-4.62,0-7.77,3.28-7.77,9.11,0,7.23,4.04,9.14,8.25,9.14,3.22,0,4.97-.99,6.78-2.81l-2.71-2.64c-1.13,1.13-2.09,1.68-4.04,1.68-2.5,0-3.9-1.68-3.9-3.98h11.17Zm-18.05,7.54v-3.76h-1.71c-1.13,0-1.58-.55-1.58-1.61v-19.01h-4.45v19.28c0,2.53,1.54,5.1,5.2,5.1h2.53Zm-12.3,0v-3.76h-1.61c-1.06,0-1.54-.58-1.54-1.61v-8.57h3.15v-3.39h-3.15v-5.28h-4.45v5.28h-1.88v3.39h1.88v8.84c0,2.53,1.54,5.1,5.17,5.1h2.43Zm-12.74,0v-3.76h-1.61c-1.06,0-1.54-.58-1.54-1.61v-8.57h3.15v-3.39h-3.15v-5.28h-4.45v5.28h-1.88v3.39h1.88v8.84c0,2.53,1.54,5.1,5.17,5.1h2.43Zm-13.63-24.52h-4.55v3.63h4.55v-3.63Zm-.03,6.68h-4.45v17.84h4.45v-17.84Zm-10.48,17.84v-24.38h-4.69l-6.34,13.18-6.37-13.18h-4.69v24.38h4.76v-14.21l4.7,9.25h3.22l4.66-9.25v14.21h4.76Z"/></g></svg>