<?xml version="1.0" encoding="UTF-8" standalone="no"?> <svg xmlns="http://www.w3.org/2000/svg" xmlns:xlink="http://www.w3.org/1999/xlink" xmlns:serif="http://www.serif.com/" width="100%" height="100%" viewBox="0 0 647 848" version="1.1" xml:space="preserve" style="fill-rule:evenodd;clip-rule:evenodd;stroke-miterlimit:10;"> <g transform="matrix(-4.16667,0,0,4.16667,542.808,-1258.58)"> <rect x="113.386" y="442.924" width="14.173" height="59.488" style="fill:rgb(121,204,198);"></rect> </g> <g transform="matrix(-4.16667,0,0,4.16667,542.808,-1768.31)"> <rect x="113.386" y="504.092" width="14.173" height="59.488" style="fill:rgb(121,204,198);"></rect> </g> <g transform="matrix(-4.16667,0,0,4.16667,542.808,-2418.65)"> <rect x="113.386" y="599.82" width="14.173" height="24.114" style="fill:rgb(121,204,198);"></rect> </g> <g transform="matrix(-4.16667,0,0,4.16667,1104.95,-1485.01)"> <rect x="113.386" y="492.754" width="149.086" height="14.173" style="fill:rgb(121,204,198);"></rect> </g> <g transform="matrix(-4.16667,0,0,4.16667,1104.95,-1994.75)"> <rect x="113.386" y="553.922" width="149.086" height="14.173" style="fill:rgb(121,204,198);"></rect> </g> <g transform="matrix(4.16667,0,0,4.16667,-461.129,-2568.53)"> <rect x="113.686" y="619.463" width="147.985" height="20.8" style="fill:rgb(121,204,198);stroke:rgb(42,44,104);stroke-width:0.6px;"></rect> </g> <g transform="matrix(4.16667,0,0,4.16667,-461.129,-827.55)"> <text x="168.814px" y="322.783px" style="font-family:'Arial-BoldMT', 'Arial', sans-serif;font-weight:700;font-size:13px;fill:rgb(42,44,104);">V<tspan x="176.432px 185.732px 195.033px 199.274px " y="322.783px 322.783px 322.783px 322.783px ">AB-O</tspan></text> </g> <g transform="matrix(4.16667,0,0,4.16667,-461.129,-827.55)"> <text x="154.801px" y="261.615px" style="font-family:'Arial-BoldMT', 'Arial', sans-serif;font-weight:700;font-size:13px;fill:rgb(42,44,104);">V<tspan x="162.581px 172.043px 181.506px 185.909px " y="261.615px 261.615px 261.615px 261.615px ">AB-R</tspan></text> <text x="197.298px" y="261.615px" style="font-family:'Arial-BoldMT', 'Arial', sans-serif;font-weight:700;font-size:13px;fill:rgb(42,44,104);">/</text> <text x="206.274px" y="261.615px" style="font-family:'Arial-BoldMT', 'Arial', sans-serif;font-weight:700;font-size:13px;fill:rgb(42,44,104);">A<tspan x="214.772px " y="261.615px ">V</tspan></text> </g> <g transform="matrix(4.16667,0,0,4.16667,-461.129,-827.55)"> <text x="154.049px" y="344.484px" style="font-family:'ArialMT', 'Arial', sans-serif;font-size:9px;fill:white;">1</text> <text x="162.356px" y="344.484px" style="font-family:'ArialMT', 'Arial', sans-serif;font-size:9px;fill:white;">J<tspan x="167.322px 173.791px 180.756px " y="344.484px 344.484px 344.484px ">AHR</tspan></text> <text x="190.499px" y="344.484px" style="font-family:'ArialMT', 'Arial', sans-serif;font-size:9px;fill:white;">/</text> <text x="197.429px" y="344.484px" style="font-family:'ArialMT', 'Arial', sans-serif;font-size:9px;fill:white;">Y<tspan x="203.898px 210.367px 216.836px " y="344.484px 344.484px 344.484px ">EAR</tspan></text> </g> <g transform="matrix(4.16667,0,0,4.16667,-461.129,-827.55)"> <text x="154.049px" y="283.316px" style="font-family:'ArialMT', 'Arial', sans-serif;font-size:9px;fill:white;">1</text> <text x="162.356px" y="283.316px" style="font-family:'ArialMT', 'Arial', sans-serif;font-size:9px;fill:white;">J<tspan x="167.322px 173.791px 180.756px " y="283.316px 283.316px 283.316px ">AHR</tspan></text> <text x="190.499px" y="283.316px" style="font-family:'ArialMT', 'Arial', sans-serif;font-size:9px;fill:white;">/</text> <text x="197.429px" y="283.316px" style="font-family:'ArialMT', 'Arial', sans-serif;font-size:9px;fill:white;">Y<tspan x="203.898px 210.367px 216.836px " y="283.316px 283.316px 283.316px ">EAR</tspan></text> </g> <g transform="matrix(4.16667,0,0,4.16667,-461.129,-827.55)"> <text x="122.278px" y="215.127px" style="font-family:'Arial-BoldMT', 'Arial', sans-serif;font-weight:700;font-size:13px;fill:white;">H<tspan x="131.502px 138.568px 146.346px 154.123px 158.288px 165.354px 172.42px 180.198px 187.975px 191.423px 198.489px 206.266px 213.332px 220.398px 228.176px 231.624px 239.401px 246.467px " y="215.127px 215.127px 215.127px 215.127px 215.127px 215.127px 215.127px 215.127px 215.127px 215.127px 215.127px 215.127px 215.127px 215.127px 215.127px 215.127px 215.127px 215.127px ">auptschulabschluss</tspan></text> </g> <g transform="matrix(-4.16667,0,0,4.16667,1107.45,-1619.37)"> <rect x="113.686" y="492.837" width="149.088" height="46.253" style="fill:none;stroke:rgb(42,44,104);stroke-width:0.6px;"></rect> </g> <g transform="matrix(-4.16667,0,0,4.16667,1107.45,-2129.1)"> <rect x="113.686" y="554.005" width="149.088" height="46.253" style="fill:none;stroke:rgb(42,44,104);stroke-width:0.6px;"></rect> </g> <g transform="matrix(-4.16667,0,0,4.16667,1107.45,-1153.33)"> <rect x="113.686" y="442.81" width="149.088" height="34.458" style="fill:rgb(121,204,198);stroke:rgb(42,44,104);stroke-width:0.6px;"></rect> </g> <g transform="matrix(4.16667,0,0,4.16667,31.0669,629.968)"> <path d="M0,2.345L4.691,2.345L2.345,0L0,2.345Z" style="fill:white;fill-rule:nonzero;"></path> </g> <g transform="matrix(4.16667,0,0,4.16667,31.0669,668.837)"> <path d="M0,2.345L4.691,2.345L2.345,0L0,2.345Z" style="fill:white;fill-rule:nonzero;"></path> </g> <g transform="matrix(4.16667,0,0,4.16667,31.0669,649.402)"> <path d="M0,2.345L4.691,2.345L2.345,0L0,2.345Z" style="fill:white;fill-rule:nonzero;"></path> </g> <g transform="matrix(4.16667,0,0,4.16667,31.0669,416.189)"> <path d="M0,2.345L4.691,2.345L2.345,0L0,2.345Z" style="fill:white;fill-rule:nonzero;"></path> </g> <g transform="matrix(4.16667,0,0,4.16667,31.0669,375.102)"> <path d="M0,2.345L4.691,2.345L2.345,0L0,2.345Z" style="fill:white;fill-rule:nonzero;"></path> </g> <g transform="matrix(4.16667,0,0,4.16667,31.0669,413.97)"> <path d="M0,2.345L4.691,2.345L2.345,0L0,2.345Z" style="fill:white;fill-rule:nonzero;"></path> </g> <g transform="matrix(4.16667,0,0,4.16667,31.0669,394.537)"> <path d="M0,2.345L4.691,2.345L2.345,0L0,2.345Z" style="fill:white;fill-rule:nonzero;"></path> </g> <g transform="matrix(4.16667,0,0,4.16667,31.0669,161.322)"> <path d="M0,2.345L4.691,2.345L2.345,0L0,2.345Z" style="fill:white;fill-rule:nonzero;"></path> </g> <g transform="matrix(4.16667,0,0,4.16667,31.0669,100.169)"> <path d="M0,2.345L4.691,2.345L2.345,0L0,2.345Z" style="fill:white;fill-rule:nonzero;"></path> </g> <g transform="matrix(4.16667,0,0,4.16667,31.0669,139.039)"> <path d="M0,2.345L4.691,2.345L2.345,0L0,2.345Z" style="fill:white;fill-rule:nonzero;"></path> </g> <g transform="matrix(4.16667,0,0,4.16667,31.0669,119.605)"> <path d="M0,2.345L4.691,2.345L2.345,0L0,2.345Z" style="fill:white;fill-rule:nonzero;"></path> </g> <g transform="matrix(4.16667,0,0,4.16667,-461.129,-827.55)"> <text x="140.286px" y="377.981px" style="font-family:'Arial-BoldMT', 'Arial', sans-serif;font-weight:700;font-size:13px;fill:rgb(42,44,104);">o<tspan x="147.938px 155.59px 163.242px " y="377.981px 377.981px 377.981px ">hne</tspan></text> <text x="173.696px" y="377.981px" style="font-family:'Arial-BoldMT', 'Arial', sans-serif;font-weight:700;font-size:13px;fill:rgb(42,44,104);">A<tspan x="182.796px 190.448px 197.389px 204.33px 211.982px 215.305px 222.957px 229.898px " y="377.981px 377.981px 377.981px 377.981px 377.981px 377.981px 377.981px 377.981px ">bschluss</tspan></text> <text x="125.206px" y="393.581px" style="font-family:'Arial-BoldMT', 'Arial', sans-serif;font-weight:700;font-size:13px;fill:white;">with<tspan x="151.305px " y="393.581px ">o</tspan>ut</text> <text x="174.853px" y="393.581px" style="font-family:'Arial-BoldMT', 'Arial', sans-serif;font-weight:700;font-size:13px;fill:white;">qual<tspan x="201.682px " y="393.581px ">i</tspan>ﬁca<tspan x="227.8px " y="393.581px ">t</tspan>ion</text> </g> </svg> 