<?xml version="1.0" encoding="utf-8"?>
<!-- Generator: Adobe Illustrator 26.2.1, SVG Export Plug-In . SVG Version: 6.00 Build 0)  -->
<svg version="1.1" id="Ebene_1" xmlns="http://www.w3.org/2000/svg" xmlns:xlink="http://www.w3.org/1999/xlink" x="0px" y="0px"
	 viewBox="0 0 512 395.84" style="enable-background:new 0 0 512 395.84;" xml:space="preserve">
<style type="text/css">
	.st0{fill:#6EC3BF;}
	.st1{fill:#A0D5D2;}
	.st2{fill:#87CCC8;}
	.st3{fill:#FFFFFF;}
	.st4{clip-path:url(#SVGID_00000173157949659972290970000010392061062994027964_);fill:#2B2961;}
	.st5{fill:#897DA2;}
	.st6{fill:#2B2961;}
	.st7{clip-path:url(#SVGID_00000147930900654027051450000003932539892483072424_);fill:#FFFFFF;}
	.st8{clip-path:url(#SVGID_00000147930900654027051450000003932539892483072424_);fill:#2B2961;}
	.st9{clip-path:url(#SVGID_00000020383067472045068430000004098966619011643296_);fill:#FFFFFF;}
	.st10{clip-path:url(#SVGID_00000020383067472045068430000004098966619011643296_);fill:#6EC3BF;}
	.st11{fill:#9D9D9C;}
	.st12{fill:#D0D0D0;}
	.st13{clip-path:url(#SVGID_00000081630310039803088630000004746253047953550268_);fill:#FFFFFF;}
	.st14{clip-path:url(#SVGID_00000033334332109731830890000003756707390722300571_);fill:#2B2961;}
	.st15{clip-path:url(#SVGID_00000033334332109731830890000003756707390722300571_);fill:#FFFFFF;}
	.st16{fill:#97D1CE;}
	.st17{clip-path:url(#SVGID_00000179618093829872485600000015562569369695188118_);fill:#2B2961;}
	.st18{clip-path:url(#SVGID_00000080196188947357322200000000992108723691753128_);fill:#2B2961;}
	.st19{clip-path:url(#SVGID_00000061460962202802613870000003256919298598338954_);fill:#FFFFFF;}
	.st20{clip-path:url(#SVGID_00000061460962202802613870000003256919298598338954_);fill:#2B2961;}
	.st21{clip-path:url(#SVGID_00000025414082112523421190000001234513745478720433_);fill:#2B2961;}
	.st22{clip-path:url(#SVGID_00000119835975260599394260000008026145267800911776_);fill:#2B2961;}
	.st23{clip-path:url(#SVGID_00000119835975260599394260000008026145267800911776_);fill:#FFFFFF;}
	.st24{clip-path:url(#SVGID_00000035512723750116377940000005677138615989699742_);fill:#FFFFFF;}
	.st25{clip-path:url(#SVGID_00000134219414322558441860000012411640017343572396_);fill:#6EC3BF;}
	.st26{clip-path:url(#SVGID_00000153671476449082098530000011298216175352306069_);fill:#2B2961;}
	.st27{clip-path:url(#SVGID_00000153671476449082098530000011298216175352306069_);fill:#1D1D1B;}
	.st28{clip-path:url(#SVGID_00000153671476449082098530000011298216175352306069_);fill:#FFFFFF;}
	.st29{clip-path:url(#SVGID_00000173862396221335586510000010328246757187347345_);fill:#2B2961;}
	.st30{clip-path:url(#SVGID_00000155824668731082146250000006542680604722704289_);fill:#2B2961;}
	.st31{clip-path:url(#SVGID_00000155824668731082146250000006542680604722704289_);fill:#FFFFFF;}
	.st32{clip-path:url(#SVGID_00000114776127897266170250000010468021243811008930_);fill:#2B2961;}
	.st33{clip-path:url(#SVGID_00000036249594234516703210000017334873451508203660_);fill:#2B2961;}
	.st34{clip-path:url(#SVGID_00000036249594234516703210000017334873451508203660_);fill:#6EC3BF;}
	.st35{clip-path:url(#SVGID_00000081638282647117422640000007703653244118867104_);fill:#2B2961;}
	.st36{clip-path:url(#SVGID_00000137848175896504972040000006178063748382350258_);fill:#2B2961;}
	.st37{clip-path:url(#SVGID_00000054962504419281101990000009405896703646791094_);fill:#2B2961;}
	.st38{clip-path:url(#SVGID_00000119089770287866212160000010429048855578330781_);fill:#2B2961;}
	.st39{clip-path:url(#SVGID_00000143606014344935158630000004207616478749965186_);fill:#6EC3BF;}
	.st40{clip-path:url(#SVGID_00000000912965253032376310000004510018768166146457_);fill:#6EC3BF;}
	.st41{clip-path:url(#SVGID_00000093176014558385663070000004157858973247057050_);fill:#6EC3BF;}
	.st42{clip-path:url(#SVGID_00000165228805093824650030000001747613568839796898_);fill:#6EC3BF;}
	.st43{clip-path:url(#SVGID_00000003784981093677927500000008595232834946928037_);fill:#2B2961;}
	.st44{clip-path:url(#SVGID_00000029040976715850136000000004434005103369518781_);fill:#2B2961;}
	.st45{clip-path:url(#SVGID_00000115492914187256397100000016754581234637221265_);fill:#2B2961;}
	.st46{clip-path:url(#SVGID_00000150082048963669260100000003149523998784803241_);fill:#2B2961;}
	.st47{clip-path:url(#SVGID_00000150082048963669260100000003149523998784803241_);fill:#FFFFFF;}
	.st48{clip-path:url(#SVGID_00000065752853869514171880000010365337152553752450_);fill:#FFFFFF;}
	.st49{clip-path:url(#SVGID_00000111872174382994017230000016623824319932291712_);fill:#2B2961;}
	.st50{clip-path:url(#SVGID_00000147180877913572768800000012398701275439367591_);fill:#2B2961;}
	.st51{clip-path:url(#SVGID_00000147180877913572768800000012398701275439367591_);fill:#FFFFFF;}
	.st52{clip-path:url(#SVGID_00000119101316697307717640000015024743771177243284_);fill:#2B2961;}
	.st53{clip-path:url(#SVGID_00000119101316697307717640000015024743771177243284_);fill:#2C265F;}
	.st54{clip-path:url(#SVGID_00000017490869028945296980000016136762140556130981_);fill:#FFFFFF;}
	.st55{clip-path:url(#SVGID_00000131344484623966804800000011978281704452954006_);fill:#2B2961;}
	.st56{clip-path:url(#SVGID_00000018949276928850893200000012191348480852028076_);fill:#FFFFFF;}
	.st57{clip-path:url(#SVGID_00000179648396406071140860000011983564603125539005_);fill:#2B2961;}
	.st58{clip-path:url(#SVGID_00000161616891110473901510000000352683066550486947_);fill:#FFFFFF;}
	.st59{clip-path:url(#SVGID_00000060001475554950178000000014851139679196084642_);fill:#2B2961;}
	.st60{clip-path:url(#SVGID_00000060001475554950178000000014851139679196084642_);fill:#FFFFFF;}
	.st61{clip-path:url(#SVGID_00000146483840687866980800000012938351745025092229_);fill:#2B2961;}
	.st62{clip-path:url(#SVGID_00000094611439901847626860000004013557572936397720_);fill:#FFFFFF;}
	.st63{clip-path:url(#SVGID_00000150094223514798389700000003161615953168539809_);fill:#2B2961;}
	.st64{clip-path:url(#SVGID_00000147901005182826520170000010859209790448242328_);fill:#FFFFFF;}
	.st65{clip-path:url(#SVGID_00000147901005182826520170000010859209790448242328_);fill:#2B2961;}
	.st66{clip-path:url(#SVGID_00000010272433843202666570000007448683589876983712_);fill:#2B2961;}
	.st67{clip-path:url(#SVGID_00000010272433843202666570000007448683589876983712_);fill:#6EC3BF;}
	.st68{clip-path:url(#SVGID_00000010272433843202666570000007448683589876983712_);fill:#FFFFFF;}
	.st69{clip-path:url(#SVGID_00000054252661534863421700000018171296660556695182_);fill:#2B2961;}
	.st70{clip-path:url(#SVGID_00000176742798305527643250000013709157269535724680_);fill:#2B2961;}
	.st71{clip-path:url(#SVGID_00000114792787611929778310000013466240316328099729_);fill:#2B2961;}
	.st72{clip-path:url(#SVGID_00000058575645983033830660000006958194370036901265_);fill:#2B2961;}
	.st73{clip-path:url(#SVGID_00000059275583841267286430000010323030448451472273_);fill:#2B2961;}
	.st74{clip-path:url(#SVGID_00000158710057637001286020000011567440645357182909_);fill:#FFFFFF;}
	.st75{clip-path:url(#SVGID_00000158710057637001286020000011567440645357182909_);fill:#6EC3BF;}
	.st76{clip-path:url(#SVGID_00000059305579053226869590000012429102537751916675_);fill:#2B2961;}
	.st77{clip-path:url(#SVGID_00000057114231961228699150000000266954815967998389_);fill:#2B2961;}
	.st78{clip-path:url(#SVGID_00000057114231961228699150000000266954815967998389_);fill:#FFFFFF;}
	.st79{clip-path:url(#SVGID_00000047026394829772999100000015405877057010997896_);fill:#2B2961;}
	.st80{clip-path:url(#SVGID_00000068651391152402942210000016177364806106610091_);fill:#FFFFFF;}
	.st81{clip-path:url(#SVGID_00000075846957485752112790000000753444624272492934_);fill:#2B2961;}
	.st82{clip-path:url(#SVGID_00000061465054488487067830000007056873739500096900_);fill:#2B2961;}
	.st83{clip-path:url(#SVGID_00000135669648212112997570000014259733911043424907_);fill:#2B2961;}
	.st84{clip-path:url(#SVGID_00000070103987964615704940000015711238505942765247_);fill:#FFFFFF;}
	.st85{clip-path:url(#SVGID_00000016763042626420532580000008453151902130720643_);fill:#FFFFFF;}
	.st86{clip-path:url(#SVGID_00000036958478648111136850000003813573816284651704_);fill:#2B2961;}
	.st87{clip-path:url(#SVGID_00000034066433491993786700000016353254115145290404_);fill:#2B2961;}
	.st88{clip-path:url(#SVGID_00000034066433491993786700000016353254115145290404_);fill:#FFFFFF;}
	.st89{clip-path:url(#SVGID_00000091702836461861492950000014476375385160631193_);fill:#2B2961;}
	.st90{clip-path:url(#SVGID_00000072259290292470028420000002979513015784729735_);fill:#FFFFFF;}
	.st91{clip-path:url(#SVGID_00000011720190681599548310000017755112720951904395_);fill:#6EC3BF;}
	.st92{clip-path:url(#SVGID_00000011720190681599548310000017755112720951904395_);fill:#2B2961;}
	.st93{clip-path:url(#SVGID_00000156578442328081313170000005138329560351050674_);fill:#6EC3BF;}
	.st94{clip-path:url(#SVGID_00000132776977122625137770000014547437488488461989_);fill:#2B2961;}
	.st95{clip-path:url(#SVGID_00000160898937776284327220000008224175095090931111_);fill:#2B2961;}
	.st96{clip-path:url(#SVGID_00000060712606163713460530000008048372281532335769_);fill:#2B2961;}
	.st97{clip-path:url(#SVGID_00000008859485712341126610000005935848468398619807_);fill:#2B2961;}
	.st98{clip-path:url(#SVGID_00000087376842831431688240000016361366351295771559_);fill:#2B2961;}
	.st99{clip-path:url(#SVGID_00000087376842831431688240000016361366351295771559_);fill:#6EC3BF;}
	.st100{clip-path:url(#SVGID_00000093865235252312808220000003108755805202999193_);fill:#2B2961;}
	.st101{clip-path:url(#SVGID_00000032630480597855384840000018112963088868305578_);fill:#2B2961;}
	.st102{clip-path:url(#SVGID_00000032630480597855384840000018112963088868305578_);fill:#6EC3BF;}
	.st103{clip-path:url(#SVGID_00000098184449446702883410000010471730182295607182_);fill:#2B2961;}
	.st104{clip-path:url(#SVGID_00000059289714601987228420000005819601365969026698_);fill:#FFFFFF;}
	.st105{clip-path:url(#SVGID_00000059289714601987228420000005819601365969026698_);fill:#2B2961;}
	.st106{clip-path:url(#SVGID_00000134938555509575265420000009237586520495251881_);fill:#6EC3BF;}
	.st107{clip-path:url(#SVGID_00000073706763279380387990000003779627083560079508_);fill:#2B2961;}
	.st108{clip-path:url(#SVGID_00000054961429980495374710000013738767754961506494_);fill:#2B2961;}
	.st109{clip-path:url(#SVGID_00000054961429980495374710000013738767754961506494_);fill:#FFFFFF;}
	.st110{clip-path:url(#SVGID_00000178888887651799304140000002481407440186173874_);fill:#6EC3BF;}
	.st111{clip-path:url(#SVGID_00000149383039017628521860000004298148601152737923_);fill:#2B2961;}
	.st112{clip-path:url(#SVGID_00000034053662980146097650000006257851919832195494_);fill:#2B2961;}
	.st113{clip-path:url(#SVGID_00000034053662980146097650000006257851919832195494_);fill:#6EC3BF;}
	.st114{clip-path:url(#SVGID_00000120557228734901338720000009360248199921978807_);fill:#2B2961;}
	.st115{clip-path:url(#SVGID_00000124126980351228715280000016203681382732149943_);fill:#6EC3BF;}
	.st116{clip-path:url(#SVGID_00000124126980351228715280000016203681382732149943_);fill:#2B2961;}
	.st117{clip-path:url(#SVGID_00000091708058695129970750000001587934618959171723_);fill:#2B2961;}
	.st118{clip-path:url(#SVGID_00000068678739358636076030000010665864019841539732_);fill:#FFFFFF;}
	.st119{clip-path:url(#SVGID_00000068678739358636076030000010665864019841539732_);}
	.st120{clip-path:url(#SVGID_00000088838747209214857910000015688877228218077583_);fill:#2B2961;}
	.st121{clip-path:url(#SVGID_00000068678739358636076030000010665864019841539732_);fill:#6EC3BF;}
	.st122{clip-path:url(#SVGID_00000135669862337586037320000013969893896456354731_);fill:#2B2961;}
	.st123{clip-path:url(#SVGID_00000068678739358636076030000010665864019841539732_);fill:#2B2961;}
	.st124{clip-path:url(#SVGID_00000101092365301065335830000012101685455313782661_);fill:#2B2961;}
	.st125{clip-path:url(#SVGID_00000038371461168781881130000010992590159889482925_);fill:#2B2961;}
	.st126{clip-path:url(#SVGID_00000097479140661163579710000007207584691080173195_);}
	.st127{clip-path:url(#SVGID_00000065054631791441856840000002963238312157402779_);}
	.st128{clip-path:url(#SVGID_00000060016092950650562580000001050268887413065903_);fill:#FFFFFF;}
	.st129{clip-path:url(#SVGID_00000093140330184187247530000002403175084371178916_);fill:#2B2961;}
	.st130{clip-path:url(#SVGID_00000045613593609346319950000008035211658555160480_);fill:#2B2961;}
	.st131{clip-path:url(#SVGID_00000045613593609346319950000008035211658555160480_);fill:#6EC3BF;}
	.st132{clip-path:url(#SVGID_00000045613593609346319950000008035211658555160480_);fill:#FFFFFF;}
	.st133{clip-path:url(#SVGID_00000091006943294711402200000013850330294254619779_);fill:#2B2961;}
	.st134{clip-path:url(#SVGID_00000091006943294711402200000013850330294254619779_);fill:#6EC3BF;}
	.st135{clip-path:url(#SVGID_00000055690950636839593050000001647765240361289884_);fill:#2B2961;}
	.st136{clip-path:url(#SVGID_00000054239639409952526300000017444875998230007476_);fill:#6EC3BF;}
	.st137{clip-path:url(#SVGID_00000054239639409952526300000017444875998230007476_);fill:#FFFFFF;}
	.st138{clip-path:url(#SVGID_00000167358315440752116100000016479887532778020778_);fill:#2B2961;}
	.st139{clip-path:url(#SVGID_00000167358315440752116100000016479887532778020778_);fill:#6EC3BF;}
	.st140{clip-path:url(#SVGID_00000034062456404949108240000000135340126665988002_);fill:#2B2961;}
	.st141{clip-path:url(#SVGID_00000149352092096284671410000014759324395847675022_);fill:#2B2961;}
	.st142{clip-path:url(#SVGID_00000149352092096284671410000014759324395847675022_);fill:#FFFFFF;}
	.st143{clip-path:url(#SVGID_00000125600342164268277150000005860364729321237156_);fill:#2B2961;}
	.st144{clip-path:url(#SVGID_00000124849363149830726250000015270162532124159377_);fill:#FFFFFF;}
	.st145{clip-path:url(#SVGID_00000072999701206011484080000003310567217787633563_);fill:#2B2961;}
	.st146{clip-path:url(#SVGID_00000109001701274935833150000007224965455519991182_);fill:#2B2961;}
	.st147{clip-path:url(#SVGID_00000109001701274935833150000007224965455519991182_);fill:#FFFFFF;}
	.st148{clip-path:url(#SVGID_00000178192862969447882200000004747572328950567043_);fill:#2B2961;}
	.st149{clip-path:url(#SVGID_00000005968913593719701290000004392374643267648696_);fill:#2B2961;}
	.st150{clip-path:url(#SVGID_00000005968913593719701290000004392374643267648696_);fill:#FFFFFF;}
	.st151{clip-path:url(#SVGID_00000013898298376893615070000012321350052794364049_);fill:#2B2961;}
	.st152{clip-path:url(#SVGID_00000013898298376893615070000012321350052794364049_);fill:#6EC3BF;}
	.st153{clip-path:url(#SVGID_00000097467302747330514450000002905258056094577029_);fill:#1D1D1B;}
	.st154{clip-path:url(#SVGID_00000097467302747330514450000002905258056094577029_);fill:#2B2961;}
	.st155{clip-path:url(#SVGID_00000097467302747330514450000002905258056094577029_);fill:#FFFFFF;}
	.st156{clip-path:url(#SVGID_00000073706586839370836230000007095819582301368979_);fill:#2B2961;}
	.st157{clip-path:url(#SVGID_00000114758730465111936880000014485757012165704839_);fill:#2B2961;}
	.st158{clip-path:url(#SVGID_00000024694385286589641900000011763881799686490517_);fill:#2B2961;}
	.st159{clip-path:url(#SVGID_00000024694385286589641900000011763881799686490517_);fill:#FFFFFF;}
	.st160{clip-path:url(#SVGID_00000024694385286589641900000011763881799686490517_);fill:#6EC3BF;}
	.st161{clip-path:url(#SVGID_00000100371221679303156920000003004585568804086453_);fill:#2B2961;}
	.st162{clip-path:url(#SVGID_00000127723025179840734180000014015968542321267098_);fill:#2B2961;}
	.st163{clip-path:url(#SVGID_00000080174487959802464750000015406868328799133828_);fill:#2B2961;}
	.st164{clip-path:url(#SVGID_00000026877351749212364210000002190049983925123213_);fill:#2B2961;}
	.st165{clip-path:url(#SVGID_00000026877351749212364210000002190049983925123213_);fill:#FFFFFF;}
	.st166{clip-path:url(#SVGID_00000042707643003236063210000014119367687119099583_);fill:#2B2961;}
	.st167{clip-path:url(#SVGID_00000042707643003236063210000014119367687119099583_);fill:#FFFFFF;}
	.st168{clip-path:url(#SVGID_00000150803009219451596940000013606098001295588484_);fill:#2B2961;}
	.st169{clip-path:url(#SVGID_00000018926825832747179330000009867693739532548015_);fill:#2B2961;}
	.st170{clip-path:url(#SVGID_00000018926825832747179330000009867693739532548015_);fill:#FFFFFF;}
	.st171{clip-path:url(#SVGID_00000114767524567485146980000016981407639586005162_);fill:#2B2961;}
	.st172{clip-path:url(#SVGID_00000076599589388557228140000005783597604461004197_);fill:#FFFFFF;}
	.st173{clip-path:url(#SVGID_00000140701531707244846920000012348599707675564931_);fill:#2B2961;}
	.st174{clip-path:url(#SVGID_00000140701531707244846920000012348599707675564931_);fill:#6EC3BF;}
	.st175{clip-path:url(#SVGID_00000175301640525452884600000003724987826731849611_);fill:#2B2961;}
	.st176{clip-path:url(#SVGID_00000071553372554922111000000014520248312277773184_);fill:#2B2961;}
	.st177{clip-path:url(#SVGID_00000023279017329537599510000014638752763580697531_);fill:#FFFFFF;}
	.st178{clip-path:url(#SVGID_00000079488178615907525350000010345537627642949291_);fill:#6EC3BF;}
	.st179{clip-path:url(#SVGID_00000079488178615907525350000010345537627642949291_);fill:#2B2961;}
	.st180{clip-path:url(#SVGID_00000101788338763079205690000001471104424736665269_);fill:#6EC3BF;}
	.st181{clip-path:url(#SVGID_00000183235611720074002080000011457593693699251631_);fill:#2B2961;}
	.st182{clip-path:url(#SVGID_00000130609156675327539100000016234680664353867924_);fill:#6EC3BF;}
	.st183{clip-path:url(#SVGID_00000130609156675327539100000016234680664353867924_);fill:#2B2961;}
	.st184{clip-path:url(#SVGID_00000002350312404907626500000011502118939774368157_);fill:#2B2961;}
	.st185{clip-path:url(#SVGID_00000022532894552556577650000014935679086838788266_);fill:#2B2961;}
	.st186{clip-path:url(#SVGID_00000088835859213881079130000005190305320575669167_);fill:#2B2961;}
	.st187{clip-path:url(#SVGID_00000144331378127810107820000008403735285775255699_);fill:#2B2961;}
	.st188{clip-path:url(#SVGID_00000181795617413481217930000017765695132669223845_);fill:#2B2961;}
	.st189{clip-path:url(#SVGID_00000062877909572564194240000002124436228123742898_);fill:#6EC3BF;}
	.st190{clip-path:url(#SVGID_00000062877909572564194240000002124436228123742898_);fill:#2B2961;}
	.st191{clip-path:url(#SVGID_00000178168504259843248170000008824971822217377153_);fill:#6EC3BF;}
	.st192{clip-path:url(#SVGID_00000178168504259843248170000008824971822217377153_);fill:#2B2961;}
	.st193{clip-path:url(#SVGID_00000161602155767767344650000015857726556859057281_);fill:#2B2961;}
	.st194{clip-path:url(#SVGID_00000050631151214501698360000015287873628907110027_);fill:#2B2961;}
	.st195{clip-path:url(#SVGID_00000052798443078512668110000005612707995006927530_);fill:#2B2961;}
	.st196{clip-path:url(#SVGID_00000107572248642905120000000006451019853147169953_);fill:#FFFFFF;}
	.st197{clip-path:url(#SVGID_00000048494942584301366650000009221262848463330692_);fill:#2B2961;}
	.st198{clip-path:url(#SVGID_00000157305571158241468420000001080090164453314690_);fill:#2B2961;}
	.st199{clip-path:url(#SVGID_00000157305571158241468420000001080090164453314690_);fill:#6EC3BF;}
	.st200{clip-path:url(#SVGID_00000147913693640212311930000013095385663971692185_);fill:#2B2961;}
	.st201{clip-path:url(#SVGID_00000006665436549356157890000002295836759950644127_);fill:#2B2961;}
	.st202{clip-path:url(#SVGID_00000029732466629261781290000011111408937448082846_);fill:#6EC3BF;}
	.st203{clip-path:url(#SVGID_00000029732466629261781290000011111408937448082846_);fill:#2B2961;}
	.st204{clip-path:url(#SVGID_00000101071233099615002250000008141511086183404672_);fill:#6EC3BF;}
	.st205{clip-path:url(#SVGID_00000101071233099615002250000008141511086183404672_);fill:#2B2961;}
	.st206{clip-path:url(#SVGID_00000134948834949750067050000010215408300547547037_);fill:#2B2961;}
	.st207{clip-path:url(#SVGID_00000016066446738245252990000001872035503567373463_);fill:#2B2961;}
	.st208{clip-path:url(#SVGID_00000016066446738245252990000001872035503567373463_);fill:#6EC3BF;}
	.st209{clip-path:url(#SVGID_00000064344402628270219790000010772901827984500890_);fill:#2B2961;}
	.st210{clip-path:url(#SVGID_00000064344402628270219790000010772901827984500890_);fill:#6EC3BF;}
	.st211{clip-path:url(#SVGID_00000020364600186791967910000000364294165509489070_);fill:#2B2961;}
	.st212{clip-path:url(#SVGID_00000020364600186791967910000000364294165509489070_);fill:#6EC3BF;}
	.st213{clip-path:url(#SVGID_00000178921295877894931290000017946202005995745720_);fill:#2B2961;}
	.st214{clip-path:url(#SVGID_00000154395075464961923610000001803672984476935312_);fill:#6EC3BF;}
	.st215{clip-path:url(#SVGID_00000154395075464961923610000001803672984476935312_);fill:#2B2961;}
	.st216{clip-path:url(#SVGID_00000085234307617408649400000017716704926959966135_);fill:#6EC3BF;}
	.st217{clip-path:url(#SVGID_00000085234307617408649400000017716704926959966135_);fill:#2B2961;}
	.st218{clip-path:url(#SVGID_00000143598502772497894890000010612566501344512688_);fill:#FFFFFF;}
	.st219{clip-path:url(#SVGID_00000143598502772497894890000010612566501344512688_);fill:#2B2961;}
	.st220{clip-path:url(#SVGID_00000009549740130202004190000002866098223549340813_);fill:#FFFFFF;}
	.st221{clip-path:url(#SVGID_00000009549740130202004190000002866098223549340813_);fill:#2B2961;}
	.st222{clip-path:url(#SVGID_00000002354357452210886060000010336297298070228876_);fill:#FFFFFF;}
	.st223{clip-path:url(#SVGID_00000002354357452210886060000010336297298070228876_);fill:#2B2961;}
	.st224{clip-path:url(#SVGID_00000093894535825246955030000004680964658001127859_);fill:#6EC3BF;}
	.st225{clip-path:url(#SVGID_00000093894535825246955030000004680964658001127859_);fill:#2B2961;}
	.st226{clip-path:url(#SVGID_00000137832823330867979370000009022745228338146216_);fill:#2B2961;}
	.st227{clip-path:url(#SVGID_00000137832823330867979370000009022745228338146216_);fill:#6EC3BF;}
	.st228{clip-path:url(#SVGID_00000087409237226789377170000014952890569946586033_);fill:#2B2961;}
	.st229{clip-path:url(#SVGID_00000148641000933976845820000002804986655303671464_);fill:#6EC3BF;}
	.st230{clip-path:url(#SVGID_00000148641000933976845820000002804986655303671464_);fill:#2B2961;}
	.st231{clip-path:url(#SVGID_00000163771262895875133350000018394104307817888157_);fill:#2B2961;}
	.st232{clip-path:url(#SVGID_00000098206152508886999450000017446339346860571817_);fill:#2B2961;}
	.st233{clip-path:url(#SVGID_00000098206152508886999450000017446339346860571817_);fill:#6EC3BF;}
	.st234{clip-path:url(#SVGID_00000181087135961607733810000016955770252929696945_);fill:#2B2961;}
	.st235{clip-path:url(#SVGID_00000087387278403796132700000015205154778260529324_);fill:#FFFFFF;}
	.st236{clip-path:url(#SVGID_00000087387278403796132700000015205154778260529324_);fill:#2B2961;}
	.st237{fill:#2C265F;}
	.st238{clip-path:url(#SVGID_00000003814912160821747090000001063125051494995113_);fill:#2B2961;}
	.st239{clip-path:url(#SVGID_00000003814912160821747090000001063125051494995113_);fill:#6EC3BF;}
	.st240{fill:#61B87A;}
	.st241{clip-path:url(#SVGID_00000025422909571660880930000009417237046535183033_);fill:#2B2961;}
	.st242{clip-path:url(#SVGID_00000036213797897132620180000006824951313980295084_);fill:#2B2961;}
	.st243{clip-path:url(#SVGID_00000176029945017880013020000011071169065896689566_);fill:#2B2961;}
	.st244{clip-path:url(#SVGID_00000031209733520203273490000015599464084089819802_);fill:#2B2961;}
	.st245{clip-path:url(#SVGID_00000031209733520203273490000015599464084089819802_);fill:#61B87A;}
	.st246{clip-path:url(#SVGID_00000031209733520203273490000015599464084089819802_);fill:#FFFFFF;}
	.st247{clip-path:url(#SVGID_00000067212687811904354820000013252497299201348538_);fill:#2B2961;}
	.st248{clip-path:url(#SVGID_00000067212687811904354820000013252497299201348538_);fill:#61B87A;}
	.st249{clip-path:url(#SVGID_00000142892194873462669990000005355150657907241879_);fill:#2B2961;}
	.st250{clip-path:url(#SVGID_00000155839935358818317790000017446303681992107182_);fill:#6EC3BF;}
	.st251{clip-path:url(#SVGID_00000155839935358818317790000017446303681992107182_);fill:#2B2961;}
	.st252{clip-path:url(#SVGID_00000054952077674611631050000010157918789068997285_);fill:#2B2961;}
	.st253{clip-path:url(#SVGID_00000054952077674611631050000010157918789068997285_);fill:#6EC3BF;}
	.st254{clip-path:url(#SVGID_00000163035833367284274150000010670247800547648942_);fill:#2B2961;}
	.st255{clip-path:url(#SVGID_00000163035833367284274150000010670247800547648942_);fill:#6EC3BF;}
</style>
<g>
	<g>
		<defs>
			<rect id="SVGID_00000106847665884636644430000001160239542367357870_" x="0" y="17.15" width="512" height="361.55"/>
		</defs>
		<clipPath id="SVGID_00000020393092777132967000000014593083882459804307_">
			<use xlink:href="#SVGID_00000106847665884636644430000001160239542367357870_"  style="overflow:visible;"/>
		</clipPath>
		<path style="clip-path:url(#SVGID_00000020393092777132967000000014593083882459804307_);fill:#6EC3BF;" d="M511.09,66.46H296.81
			l-36.87,35.82l-52.66-35.82H7.13v302.84h233.54c4.46,5.19,11.06,8.49,18.44,8.49c7.37,0,13.98-3.3,18.44-8.49h233.54V66.46z"/>
		<path style="clip-path:url(#SVGID_00000020393092777132967000000014593083882459804307_);fill:#6EC3BF;" d="M259.11,378.69
			c-7.21,0-14.06-3.09-18.86-8.49H7.13c-0.5,0-0.91-0.41-0.91-0.91V66.46c0-0.5,0.41-0.91,0.91-0.91h200.14
			c0.18,0,0.36,0.05,0.51,0.16l52.05,35.41l36.34-35.31c0.17-0.16,0.39-0.26,0.63-0.26h214.28c0.5,0,0.91,0.41,0.91,0.91v302.84
			c0,0.5-0.41,0.91-0.91,0.91H277.96C273.16,375.61,266.32,378.69,259.11,378.69z M8.04,368.38h232.63c0.27,0,0.52,0.12,0.69,0.32
			c4.47,5.19,10.94,8.17,17.75,8.17c6.81,0,13.28-2.98,17.74-8.17c0.17-0.2,0.42-0.32,0.69-0.32h232.63V67.37h-213l-36.61,35.57
			c-0.31,0.3-0.78,0.34-1.15,0.1l-52.43-35.67H8.04V368.38z"/>
		<path style="clip-path:url(#SVGID_00000020393092777132967000000014593083882459804307_);fill:#2B2961;" d="M253.93,375.5
			c-7.37,0-14.37-3.08-19.36-8.48H2.08c-1.15,0-2.08-0.93-2.08-2.08V62.34c0-1.15,0.93-2.08,2.08-2.08h200.04
			c0.42,0,0.83,0.13,1.17,0.36l51.24,34.84l35.63-34.61c0.39-0.38,0.91-0.59,1.45-0.59h214.18c1.15,0,2.08,0.93,2.08,2.08v302.6
			c0,1.15-0.93,2.08-2.08,2.08H273.3C268.31,372.42,261.3,375.5,253.93,375.5z M4.16,362.85H235.5c0.6,0,1.18,0.27,1.58,0.73
			c4.24,4.93,10.38,7.76,16.85,7.76c6.48,0,12.62-2.83,16.85-7.76c0.4-0.46,0.97-0.73,1.58-0.73h231.34V64.42H292.46l-36.25,35.2
			c-0.7,0.69-1.8,0.78-2.62,0.23l-52.11-35.43H4.16V362.85z"/>
	</g>
	<rect x="17.23" y="77.13" class="st3" width="236.39" height="278.7"/>
	<path class="st6" d="M253.62,357.9H17.23c-1.15,0-2.08-0.93-2.08-2.08V77.13c0-1.15,0.93-2.08,2.08-2.08h236.4
		c1.15,0,2.08,0.93,2.08,2.08v278.7C255.7,356.97,254.77,357.9,253.62,357.9z M19.3,353.75h232.24V79.21H19.3V353.75z"/>
	<rect x="255.08" y="77.16" class="st3" width="236.39" height="278.7"/>
	<path class="st6" d="M491.47,357.93H255.08c-1.15,0-2.08-0.93-2.08-2.08V77.16c0-1.15,0.93-2.08,2.08-2.08h236.39
		c1.15,0,2.08,0.93,2.08,2.08v278.7C493.55,357,492.62,357.93,491.47,357.93z M257.16,353.77h232.24V79.23H257.16V353.77z"/>
	<g>
		<defs>
			<rect id="SVGID_00000121974834819412724810000014206790753817800071_" x="0" y="17.15" width="512" height="361.55"/>
		</defs>
		<clipPath id="SVGID_00000009577139901349070530000000717014481421080479_">
			<use xlink:href="#SVGID_00000121974834819412724810000014206790753817800071_"  style="overflow:visible;"/>
		</clipPath>
		<path style="clip-path:url(#SVGID_00000009577139901349070530000000717014481421080479_);fill:#FFFFFF;" d="M253.62,82.18
			c-18.54-20.69-54.64-37.67-97.67-43.39c-46.43-6.18-88.5,2.39-110.83,20.09v273.67c22.33-17.69,64.39-26.27,110.83-20.09
			c43.03,5.72,79.14,22.69,97.67,43.39V82.18z"/>
		<path style="clip-path:url(#SVGID_00000009577139901349070530000000717014481421080479_);fill:#2B2961;" d="M253.62,357.93
			c-0.58,0-1.15-0.25-1.55-0.69c-19.04-21.25-55.07-37.22-96.39-42.71c-44.61-5.94-86.47,1.59-109.26,19.65
			c-0.63,0.5-1.48,0.59-2.2,0.24c-0.72-0.35-1.17-1.07-1.17-1.87V58.89c0-0.64,0.29-1.23,0.79-1.63
			c23.64-18.74,66.7-26.6,112.39-20.52c42.28,5.63,79.27,22.1,98.95,44.06c0.34,0.38,0.53,0.88,0.53,1.39v273.66
			c0,0.86-0.53,1.64-1.34,1.94C254.12,357.88,253.87,357.93,253.62,357.93z M126.17,308.38c9.76,0,19.84,0.66,30.05,2.02
			c39.8,5.29,74.92,20.2,95.32,40.26V82.98c-19.17-20.96-54.92-36.68-95.86-42.12c-44.1-5.87-85.51,1.42-108.47,19.04v268.52
			C65.75,315.46,94.26,308.38,126.17,308.38z"/>
		<path style="clip-path:url(#SVGID_00000009577139901349070530000000717014481421080479_);fill:#FFFFFF;" d="M254.24,82.18
			c2.81-3.13,6.01-6.18,9.58-9.11c20.04-16.46,51.57-29.42,88.09-34.28c46.43-6.18,88.5,2.39,110.83,20.09v273.67
			c-22.33-17.69-64.39-26.27-110.83-20.09c-43.03,5.72-79.14,22.69-97.67,43.39V82.18z"/>
		<path style="clip-path:url(#SVGID_00000009577139901349070530000000717014481421080479_);fill:#2B2961;" d="M254.25,357.93
			c-0.25,0-0.5-0.05-0.74-0.14c-0.8-0.31-1.34-1.08-1.34-1.94V82.18c0-0.51,0.19-1.01,0.53-1.39c2.86-3.2,6.16-6.34,9.81-9.33
			c21.12-17.35,53.61-30.01,89.14-34.73c45.7-6.08,88.75,1.78,112.39,20.52c0.5,0.39,0.79,0.99,0.79,1.63v273.67
			c0,0.8-0.46,1.53-1.17,1.87c-0.72,0.35-1.57,0.26-2.2-0.24c-22.79-18.06-64.66-25.61-109.26-19.65
			c-41.32,5.49-77.36,21.46-96.39,42.71C255.39,357.68,254.83,357.93,254.25,357.93z M256.33,82.98v267.68
			c20.39-20.06,55.51-34.97,95.32-40.26c43.6-5.8,84.8,1.09,109.02,18.01V59.9c-22.95-17.62-64.38-24.92-108.47-19.04
			c-34.78,4.62-66.5,16.95-87.04,33.82C261.88,77.36,258.92,80.15,256.33,82.98z"/>
	</g>
	<polygon class="st3" points="260.34,243.41 254.13,228.61 247.92,243.41 247.92,75.36 260.34,75.36 	"/>
	<polygon class="st0" points="263.55,243.72 257.33,228.91 251.12,243.72 251.12,75.67 263.55,75.67 	"/>
	<path class="st6" d="M260.03,245.18c-0.84,0-1.61-0.51-1.93-1.31l-3.97-9.93l-3.97,9.93c-0.37,0.92-1.3,1.47-2.33,1.27
		c-0.98-0.19-1.69-1.05-1.69-2.04V75.67c0-1.15,0.93-2.08,2.08-2.08h11.81c1.15,0,2.08,0.93,2.08,2.08V243.1
		c0,1-0.71,1.85-1.69,2.04C260.29,245.17,260.16,245.18,260.03,245.18z M254.13,226.26c0.85,0,1.62,0.52,1.93,1.31l1.89,4.73V77.75
		h-7.64V232.3l1.89-4.73C252.51,226.78,253.28,226.26,254.13,226.26z"/>
	<g>
		<defs>
			<rect id="SVGID_00000078753245742667599380000009294969849608846477_" x="0" y="17.15" width="512" height="361.55"/>
		</defs>
		<clipPath id="SVGID_00000102542679304215382240000007784333342451690134_">
			<use xlink:href="#SVGID_00000078753245742667599380000009294969849608846477_"  style="overflow:visible;"/>
		</clipPath>
		<path style="clip-path:url(#SVGID_00000102542679304215382240000007784333342451690134_);fill:#FFFFFF;" d="M253.62,73.4
			c-18.54-20.69-54.64-37.67-97.67-43.39c-46.43-6.17-88.5,2.4-110.83,20.1v273.68c22.33-17.7,64.39-26.28,110.83-20.09
			c43.03,5.72,79.14,30.71,97.67,51.4V73.4z"/>
		<path style="clip-path:url(#SVGID_00000102542679304215382240000007784333342451690134_);fill:#2B2961;" d="M253.62,357.18
			c-0.58,0-1.15-0.25-1.55-0.69c-17.78-19.85-53.69-45.05-96.39-50.73c-44.6-5.95-86.47,1.59-109.26,19.66
			c-0.63,0.5-1.49,0.59-2.2,0.24c-0.72-0.35-1.18-1.07-1.18-1.87V50.1c0-0.64,0.29-1.23,0.79-1.63
			c23.63-18.74,66.71-26.6,112.39-20.53c42.28,5.63,79.27,22.11,98.95,44.07c0.34,0.38,0.53,0.88,0.53,1.39v281.7
			c0,0.86-0.53,1.64-1.34,1.94C254.12,357.13,253.87,357.18,253.62,357.18z M126.16,299.61c9.77,0,19.85,0.67,30.07,2.02
			c41.09,5.47,76.07,28.55,95.32,48.21V74.2c-19.17-20.95-54.92-36.68-95.86-42.13c-44.11-5.86-85.53,1.44-108.47,19.05v268.53
			C65.75,306.69,94.25,299.61,126.16,299.61z"/>
		<path style="clip-path:url(#SVGID_00000102542679304215382240000007784333342451690134_);fill:#FFFFFF;" d="M254.24,73.4
			c2.81-3.13,6.01-6.18,9.58-9.11c20.04-16.47,51.57-29.42,88.09-34.28c46.43-6.17,88.5,2.4,110.83,20.1v273.68
			c-22.33-17.7-64.39-26.28-110.83-20.09c-43.03,5.72-79.14,30.97-97.67,51.66V73.4z"/>
		<path style="clip-path:url(#SVGID_00000102542679304215382240000007784333342451690134_);fill:#2B2961;" d="M254.25,357.44
			c-0.25,0-0.5-0.05-0.74-0.14c-0.8-0.31-1.34-1.08-1.34-1.94V73.4c0-0.51,0.19-1.01,0.53-1.39c2.86-3.2,6.16-6.33,9.81-9.33
			c21.11-17.35,53.6-30.01,89.14-34.74c45.69-6.07,88.76,1.79,112.39,20.53c0.5,0.39,0.79,0.99,0.79,1.63v273.68
			c0,0.8-0.46,1.53-1.18,1.87c-0.71,0.35-1.57,0.26-2.2-0.24c-22.79-18.07-64.64-25.61-109.26-19.66
			c-42.5,5.65-78.49,31-96.39,50.99C255.39,357.2,254.83,357.44,254.25,357.44z M256.33,74.2v275.9
			c19.36-19.79,54.4-43.02,95.32-48.47c43.6-5.8,84.79,1.09,109.02,18.02V51.12C437.72,33.5,396.3,26.2,352.19,32.07
			c-34.79,4.63-66.52,16.96-87.04,33.83C261.88,68.57,258.92,71.37,256.33,74.2z"/>
	</g>
	<polygon class="st3" points="260.34,234.63 254.13,219.82 247.92,234.63 247.92,66.58 260.34,66.58 	"/>
	<polygon class="st0" points="263.55,234.93 257.33,220.13 251.12,234.93 251.12,66.88 263.55,66.88 	"/>
	<path class="st6" d="M260.03,236.4c-0.84,0-1.61-0.51-1.93-1.31l-3.97-9.93l-3.97,9.93c-0.37,0.92-1.3,1.47-2.33,1.27
		c-0.98-0.19-1.69-1.05-1.69-2.04V66.88c0-1.15,0.93-2.08,2.08-2.08h11.81c1.15,0,2.08,0.93,2.08,2.08v167.43
		c0,1-0.71,1.85-1.69,2.04C260.29,236.38,260.16,236.4,260.03,236.4z M254.13,217.48c0.85,0,1.62,0.52,1.93,1.31l1.89,4.73V68.97
		h-7.64v154.55l1.89-4.73C252.51,218,253.28,217.48,254.13,217.48z"/>
	<g>
		<defs>
			<rect id="SVGID_00000146472470142868588960000005291365928702267824_" x="0" y="17.15" width="512" height="361.55"/>
		</defs>
		<clipPath id="SVGID_00000069393788932524911480000009618089140919356326_">
			<use xlink:href="#SVGID_00000146472470142868588960000005291365928702267824_"  style="overflow:visible;"/>
		</clipPath>
		<path style="clip-path:url(#SVGID_00000069393788932524911480000009618089140919356326_);fill:#FFFFFF;" d="M253.62,64.62
			c-18.54-20.69-54.64-37.67-97.67-43.39c-46.43-6.18-88.5,2.4-110.83,20.1v273.7c22.33-17.7,64.39-26.28,110.83-20.1
			c43.03,5.73,79.14,38.69,97.67,59.39V64.62z"/>
		<path style="clip-path:url(#SVGID_00000069393788932524911480000009618089140919356326_);fill:#2B2961;" d="M253.62,356.39
			c-0.58,0-1.15-0.25-1.55-0.69c-17.42-19.45-53.11-52.95-96.39-58.71c-44.61-5.93-86.47,1.6-109.26,19.66
			c-0.63,0.5-1.49,0.6-2.2,0.24c-0.72-0.35-1.18-1.07-1.18-1.87V41.32c0-0.64,0.29-1.23,0.79-1.63
			c23.64-18.74,66.69-26.61,112.39-20.53c42.28,5.63,79.27,22.11,98.95,44.07c0.34,0.38,0.53,0.88,0.53,1.39v289.69
			c0,0.86-0.53,1.64-1.34,1.94C254.12,356.34,253.87,356.39,253.62,356.39z M126.18,290.84c9.76,0,19.84,0.66,30.05,2.02
			c41.77,5.56,76.46,35.93,95.32,56.1V65.42c-19.17-20.95-54.92-36.68-95.86-42.13c-44.11-5.87-85.51,1.43-108.47,19.05v268.54
			C65.76,297.92,94.26,290.84,126.18,290.84z"/>
		<path style="clip-path:url(#SVGID_00000069393788932524911480000009618089140919356326_);fill:#FFFFFF;" d="M254.24,64.62
			c2.81-3.13,6.01-6.18,9.58-9.11c20.04-16.47,51.57-29.42,88.09-34.28c46.43-6.18,88.5,2.4,110.83,20.1v273.7
			c-22.33-17.7-64.39-26.28-110.83-20.1c-43.03,5.73-79.14,39.05-97.67,59.75V64.62z"/>
		<path style="clip-path:url(#SVGID_00000069393788932524911480000009618089140919356326_);fill:#2B2961;" d="M254.25,356.75
			c-0.25,0-0.5-0.05-0.74-0.14c-0.8-0.31-1.34-1.08-1.34-1.94V64.62c0-0.51,0.19-1.01,0.53-1.39c2.86-3.2,6.16-6.34,9.81-9.33
			c21.11-17.35,53.6-30.01,89.14-34.74c45.69-6.07,88.75,1.79,112.39,20.53c0.5,0.39,0.79,0.99,0.79,1.63v273.7
			c0,0.8-0.46,1.53-1.18,1.87c-0.71,0.36-1.57,0.26-2.2-0.24c-22.79-18.06-64.65-25.6-109.26-19.66
			c-42.96,5.72-78.84,39.47-96.39,59.07C255.39,356.5,254.83,356.75,254.25,356.75z M256.33,65.42v283.89
			c18.99-20.32,53.83-50.93,95.32-56.46c43.6-5.79,84.8,1.1,109.02,18.02V42.33c-22.96-17.62-64.36-24.91-108.47-19.05
			c-34.79,4.63-66.52,16.96-87.04,33.83C261.88,59.79,258.92,62.58,256.33,65.42z"/>
	</g>
	<polygon class="st3" points="260.34,225.84 254.13,211.04 247.92,225.84 247.92,57.79 260.34,57.79 	"/>
	<polygon class="st0" points="263.36,225.96 257.33,211.18 251.31,225.96 251.31,58.29 263.36,58.29 	"/>
	<path class="st0" d="M263.36,226.87c-0.36,0-0.7-0.22-0.84-0.57l-5.18-12.71l-5.18,12.71c-0.16,0.4-0.6,0.62-1.02,0.55
		c-0.43-0.08-0.74-0.46-0.74-0.89V58.29c0-0.5,0.41-0.91,0.91-0.91h12.05c0.5,0,0.91,0.41,0.91,0.91v167.67
		c0,0.43-0.31,0.81-0.74,0.89C263.48,226.86,263.42,226.87,263.36,226.87z M257.33,210.27c0.37,0,0.7,0.22,0.84,0.57l4.27,10.48
		V59.2h-10.23v162.12l4.27-10.48C256.63,210.5,256.96,210.27,257.33,210.27z"/>
	<path class="st6" d="M260.03,227.62c-0.84,0-1.61-0.51-1.93-1.31l-3.97-9.93l-3.97,9.93c-0.37,0.93-1.3,1.46-2.33,1.27
		c-0.98-0.19-1.69-1.05-1.69-2.04V58.1c0-1.15,0.93-2.08,2.08-2.08h11.81c1.15,0,2.08,0.93,2.08,2.08v167.43
		c0,1-0.71,1.85-1.69,2.04C260.29,227.6,260.16,227.62,260.03,227.62z M254.13,208.69c0.85,0,1.62,0.52,1.93,1.31l1.89,4.73V60.18
		h-7.64v154.55l1.89-4.73C252.51,209.21,253.28,208.69,254.13,208.69z"/>
</g>
</svg>
