<?xml version="1.0" encoding="UTF-8" standalone="no"?> <svg xmlns="http://www.w3.org/2000/svg" xmlns:xlink="http://www.w3.org/1999/xlink" xmlns:serif="http://www.serif.com/" width="100%" height="100%" viewBox="0 0 647 741" version="1.1" xml:space="preserve" style="fill-rule:evenodd;clip-rule:evenodd;stroke-miterlimit:10;"> <g transform="matrix(-4.16667,0,0,4.16667,542.808,-1673.6)"> <rect x="113.386" y="487.048" width="14.173" height="59.488" style="fill:rgb(121,204,198);"></rect> </g> <g transform="matrix(-4.16667,0,0,4.16667,1107.45,-1444.07)"> <rect x="113.686" y="457.104" width="149.088" height="64.288" style="fill:rgb(121,204,198);stroke:rgb(42,44,104);stroke-width:0.6px;"></rect> </g> <g transform="matrix(4.16667,0,0,4.16667,31.0669,400.564)"> <path d="M0,2.345L4.691,2.345L2.345,0L0,2.345Z" style="fill:white;fill-rule:nonzero;"></path> </g> <g transform="matrix(4.16667,0,0,4.16667,31.0669,439.434)"> <path d="M0,2.345L4.691,2.345L2.345,0L0,2.345Z" style="fill:white;fill-rule:nonzero;"></path> </g> <g transform="matrix(4.16667,0,0,4.16667,31.0669,419.999)"> <path d="M0,2.345L4.691,2.345L2.345,0L0,2.345Z" style="fill:white;fill-rule:nonzero;"></path> </g> <g transform="matrix(-4.16667,0,0,4.16667,542.808,-2371.32)"> <rect x="113.386" y="588.461" width="14.173" height="24.114" style="fill:rgb(121,204,198);"></rect> </g> <g transform="matrix(4.16667,0,0,4.16667,-461.129,-2521.21)"> <rect x="113.686" y="608.105" width="149.028" height="20.8" style="fill:rgb(121,204,198);stroke:rgb(42,44,104);stroke-width:0.6px;"></rect> </g> <g transform="matrix(4.16667,0,0,4.16667,31.0669,105.21)"> <path d="M0,2.345L4.691,2.345L2.345,0L0,2.345Z" style="fill:white;fill-rule:nonzero;"></path> </g> <g transform="matrix(4.16667,0,0,4.16667,31.0669,144.079)"> <path d="M0,2.345L4.691,2.345L2.345,0L0,2.345Z" style="fill:white;fill-rule:nonzero;"></path> </g> <g transform="matrix(4.16667,0,0,4.16667,31.0669,124.645)"> <path d="M0,2.345L4.691,2.345L2.345,0L0,2.345Z" style="fill:white;fill-rule:nonzero;"></path> </g> <g transform="matrix(-4.16667,0,0,4.16667,1104.95,-1947.28)"> <rect x="113.386" y="542.547" width="149.086" height="14.173" style="fill:rgb(121,204,198);"></rect> </g> <g transform="matrix(4.16667,0,0,4.16667,-461.129,-874.875)"> <text x="122.879px" y="332.44px" style="font-family:'Arial-BoldMT', 'Arial', sans-serif;font-weight:700;font-size:13px;fill:rgb(41,44,104);">H<tspan x="132.104px 139.17px 146.947px 154.724px 158.889px 165.956px 173.022px 180.799px 188.576px 192.024px 199.09px 206.867px 213.934px 221px 228.777px 232.225px 240.002px 247.068px " y="332.44px 332.44px 332.44px 332.44px 332.44px 332.44px 332.44px 332.44px 332.44px 332.44px 332.44px 332.44px 332.44px 332.44px 332.44px 332.44px 332.44px 332.44px ">auptschulabschluss</tspan></text> <text x="130.719px" y="348.04px" style="font-family:'Arial-BoldMT', 'Arial', sans-serif;font-weight:700;font-size:13px;fill:white;">Ge<tspan x="147.942px 155.823px 162.994px 167.994px 175.165px 178.717px 182.847px 190.018px 197.188px 204.359px 212.241px 220.122px 228.004px 235.175px 240.175px " y="348.04px 348.04px 348.04px 348.04px 348.04px 348.04px 348.04px 348.04px 348.04px 348.04px 348.04px 348.04px 348.04px 348.04px 348.04px ">neral secondary</tspan></text> <text x="144.355px" y="363.64px" style="font-family:'Arial-BoldMT', 'Arial', sans-serif;font-weight:700;font-size:13px;fill:white;">s<tspan x="151.461px 158.567px 166.384px 174.201px 182.018px " y="363.64px 363.64px 363.64px 363.64px 363.64px ">chool</tspan></text> <text x="187.736px" y="363.64px" style="font-family:'Arial-BoldMT', 'Arial', sans-serif;font-weight:700;font-size:13px;fill:white;">l<tspan x="191.224px 198.33px 205.436px 212.542px 216.029px 223.846px " y="363.64px 363.64px 363.64px 363.64px 363.64px 363.64px ">eaving</tspan></text> <text x="156.926px" y="379.24px" style="font-family:'Arial-BoldMT', 'Arial', sans-serif;font-weight:700;font-size:13px;fill:white;">c<tspan x="164.286px 171.645px 176.833px 181.292px 185.033px 193.104px 200.463px 207.822px 212.281px " y="379.24px 379.24px 379.24px 379.24px 379.24px 379.24px 379.24px 379.24px 379.24px ">ertiﬁcate</tspan></text> </g> <g transform="matrix(4.16667,0,0,4.16667,-461.129,-874.875)"> <text x="146.29px" y="226.485px" style="font-family:'Arial-BoldMT', 'Arial', sans-serif;font-weight:700;font-size:13px;fill:white;">M<tspan x="157.33px 161.153px 165.693px 170.233px 174.055px 181.496px 186.766px " y="226.485px 226.485px 226.485px 226.485px 226.485px 226.485px 226.485px ">ittlere</tspan></text> <text x="198.784px" y="226.485px" style="font-family:'Arial-BoldMT', 'Arial', sans-serif;font-weight:700;font-size:13px;fill:white;">R<tspan x="208.383px 215.824px 219.647px 224.187px " y="226.485px 226.485px 226.485px 226.485px ">eife</tspan></text> </g> <g transform="matrix(4.16667,0,0,4.16667,-461.129,-874.875)"> <text x="176.049px" y="272.99px" style="font-family:'Arial-BoldMT', 'Arial', sans-serif;font-weight:700;font-size:13px;fill:rgb(42,44,104);">B<tspan x="185.112px 192.728px " y="272.99px 272.99px ">FS</tspan></text> <text x="147.871px" y="294.69px" style="font-family:'ArialMT', 'Arial', sans-serif;font-size:9px;fill:white;">2<tspan x="153.297px 156.237px 161.158px 167.582px 174.502px 181.423px 187.846px 190.786px 193.707px 197.489px 203.913px 210.336px 216.76px 223.681px " y="294.69px 294.69px 294.69px 294.69px 294.69px 294.69px 294.69px 294.69px 294.69px 294.69px 294.69px 294.69px 294.69px 294.69px "> JAHRE / YEARS</tspan></text> </g> <g transform="matrix(-4.16667,0,0,4.16667,1107.45,-2081.64)"> <rect x="113.686" y="542.63" width="149.088" height="46.253" style="fill:none;stroke:rgb(42,44,104);stroke-width:0.6px;"></rect> </g> <g transform="matrix(4.16667,0,0,4.16667,31.0669,160.526)"> <path d="M0,2.345L4.691,2.345L2.345,0L0,2.345Z" style="fill:white;fill-rule:nonzero;"></path> </g> <g transform="matrix(4.16667,0,0,4.16667,31.0669,380.998)"> <path d="M0,2.345L4.691,2.345L2.345,0L0,2.345Z" style="fill:white;fill-rule:nonzero;"></path> </g> </svg> 