<?xml version="1.0" encoding="UTF-8"?> <!-- Generator: Adobe Illustrator 24.2.1, SVG Export Plug-In . SVG Version: 6.00 Build 0) --> <svg xmlns="http://www.w3.org/2000/svg" xmlns:xlink="http://www.w3.org/1999/xlink" version="1.1" id="Ebene_1" x="0px" y="0px" viewBox="0 0 538.9 584.6" style="enable-background:new 0 0 538.9 584.6;" xml:space="preserve"> <style type="text/css"> .st0{fill:#88D0CB;} .st1{fill:#292C68;} .st2{font-family:'DINPro-Bold';} .st3{font-size:13px;} .st4{fill:#62C6BF;} .st5{fill:none;stroke:#2A2C68;stroke-width:0.6;stroke-linejoin:round;} .st6{fill:#FFFFFF;} .st7{fill:#2A2C68;} .st8{font-family:'DINPro-Medium';} .st9{font-size:9.5px;} </style> <g id="Layer-1"> <path class="st0" d="M282.8,469.6h-14.2v114.9h14.2V469.6z"></path> </g> <g id="Layer-1_1_"> <text transform="matrix(1 0 0 1 271.1174 14.9634)" class="st1 st2 st3">A</text> <text transform="matrix(1 0 0 1 279.6714 14.9634)" class="st1 st2 st3">b</text> <text transform="matrix(1 0 0 1 287.2114 14.9634)" class="st1 st2 st3">s</text> <text transform="matrix(1 0 0 1 293.9844 14.9634)" class="st1 st2 st3">c</text> <text transform="matrix(1 0 0 1 300.4844 14.9634)" class="st1 st2 st3">h</text> <text transform="matrix(1 0 0 1 308.1934 14.9634)" class="st1 st2 st3">l</text> <text transform="matrix(1 0 0 1 312.6784 14.9634)" class="st1 st2 st3">ü</text> <text transform="matrix(1 0 0 1 320.3874 14.9634)" class="st1 st2 st3">s</text> <text transform="matrix(1 0 0 1 327.0954 14.9634)" class="st1 st2 st3">s</text> <text transform="matrix(1 0 0 1 333.8684 14.9634)" class="st1 st2 st3">e</text> <text transform="matrix(1 0 0 1 341.2524 14.9634)" class="st1 st2 st3">:</text> </g> <g id="Layer-1_2_"> <text transform="matrix(1 0 0 1 271.1174 30.5635)" class="st4 st2 st3">Q</text> <text transform="matrix(1 0 0 1 279.7364 30.5635)" class="st4 st2 st3">u</text> <text transform="matrix(1 0 0 1 287.4454 30.5635)" class="st4 st2 st3">a</text> <text transform="matrix(1 0 0 1 294.6474 30.5635)" class="st4 st2 st3">l</text> <text transform="matrix(1 0 0 1 299.1324 30.5635)" class="st4 st2 st3">i</text> <text transform="matrix(1 0 0 1 302.9674 30.5635)" class="st4 st2 st3">f</text> <text transform="matrix(1 0 0 1 307.6734 30.5635)" class="st4 st2 st3">i</text> <text transform="matrix(1 0 0 1 311.5084 30.5635)" class="st4 st2 st3">c</text> <text transform="matrix(1 0 0 1 317.9434 30.5635)" class="st4 st2 st3">a</text> <text transform="matrix(1 0 0 1 325.1454 30.5635)" class="st4 st2 st3">t</text> <text transform="matrix(1 0 0 1 329.9814 30.5635)" class="st4 st2 st3">i</text> <text transform="matrix(1 0 0 1 333.8163 30.5635)" class="st4 st2 st3">o</text> <text transform="matrix(1 0 0 1 341.1353 30.5635)" class="st4 st2 st3">n</text> <text transform="matrix(1 0 0 1 348.8444 30.5635)" class="st4 st2 st3">s</text> <text transform="matrix(1 0 0 1 355.6174 30.5635)" class="st4 st2 st3">:</text> </g> <g id="Layer-1_3_"> <text transform="matrix(1 0 0 1 79.7788 14.9634)" class="st1 st2 st3">S</text> <text transform="matrix(1 0 0 1 87.7218 14.9634)" class="st1 st2 st3">c</text> <text transform="matrix(1 0 0 1 94.2218 14.9634)" class="st1 st2 st3">h</text> <text transform="matrix(1 0 0 1 101.9308 14.9634)" class="st1 st2 st3">u</text> <text transform="matrix(1 0 0 1 109.6398 14.9634)" class="st1 st2 st3">l</text> <text transform="matrix(1 0 0 1 114.1248 14.9634)" class="st1 st2 st3">a</text> <text transform="matrix(1 0 0 1 121.3268 14.9634)" class="st1 st2 st3">r</text> <text transform="matrix(1 0 0 1 127.5018 14.9634)" class="st1 st2 st3">t</text> <text transform="matrix(1 0 0 1 132.2728 14.9634)" class="st1 st2 st3">e</text> <text transform="matrix(1 0 0 1 139.6568 14.9634)" class="st1 st2 st3">n</text> <text transform="matrix(1 0 0 1 147.3658 14.9634)" class="st1 st2 st3">:</text> </g> <g id="Layer-1_4_"> <text transform="matrix(1 0 0 1 79.7788 30.5635)" class="st4 st2 st3">S</text> <text transform="matrix(1 0 0 1 87.7218 30.5635)" class="st4 st2 st3">c</text> <text transform="matrix(1 0 0 1 94.2218 30.5635)" class="st4 st2 st3">h</text> <text transform="matrix(1 0 0 1 101.9308 30.5635)" class="st4 st2 st3">o</text> <text transform="matrix(1 0 0 1 109.2498 30.5635)" class="st4 st2 st3">o</text> <text transform="matrix(1 0 0 1 116.5688 30.5635)" class="st4 st2 st3">l</text> <text transform="matrix(1 0 0 1 121.0538 30.5635)" class="st4 st2 st3"> </text> <text transform="matrix(1 0 0 1 124.3298 30.5635)" class="st4 st2 st3">t</text> <text transform="matrix(1 0 0 1 129.1658 30.5635)" class="st4 st2 st3">y</text> <text transform="matrix(1 0 0 1 135.8478 30.5635)" class="st4 st2 st3">p</text> <text transform="matrix(1 0 0 1 143.3878 30.5635)" class="st4 st2 st3">e</text> <text transform="matrix(1 0 0 1 150.7718 30.5635)" class="st4 st2 st3">s</text> <text transform="matrix(1 0 0 1 157.5448 30.5635)" class="st4 st2 st3">:</text> </g> <g id="Layer-1_5_"> <path class="st4" d="M257,149.8H6.8V53.4H257V149.8z"></path> </g> <g id="Layer-1_6_"> <path class="st4" d="M256.6,257.8H86.1v-86.4h170.5V257.8z"></path> </g> <g id="Layer-1_7_"> <path class="st4" d="M256.9,365.8H86.1v-86.4h170.8V365.8z"></path> </g> <g id="Layer-1_8_"> <path class="st4" d="M256.9,473.8H86.1v-86.4h170.8V473.8z"></path> </g> <g id="Layer-1_9_"> <path class="st4" d="M256.9,583.9H86.1v-86.4h170.8V583.9z"></path> </g> <g id="Layer-1_10_"> <path class="st5" d="M257,150H0V53.7h257V150z"></path> </g> <g id="Layer-1_11_"> <path class="st5" d="M256.8,258H79.9v-86.4h176.9V258z"></path> </g> <g id="Layer-1_12_"> <path class="st5" d="M256.9,366H79.8v-86.4h177.2V366z"></path> </g> <g id="Layer-1_13_"> <path class="st5" d="M256.9,474H79.8v-86.4h177.2V474z"></path> </g> <g id="Layer-1_14_"> <path class="st5" d="M256.9,584.2H79.8v-86.4h177.2V584.2z"></path> </g> <g id="Layer-1_15_"> <path class="st0" d="M257.3,149.8h114.9v-14.2H257.3V149.8z"></path> </g> <g id="Layer-1_16_"> <path class="st0" d="M359,149.8h14.2v-33.1H359V149.8z"></path> </g> <g id="Layer-1_17_"> <path class="st6" d="M348.5,145v-4.7l2.3,2.3L348.5,145z"></path> </g> <g id="Layer-1_18_"> <path class="st6" d="M343.9,145v-4.7l2.3,2.3L343.9,145z"></path> </g> <g id="Layer-1_19_"> <path class="st6" d="M353.2,145v-4.7l2.3,2.3L353.2,145z"></path> </g> <g id="Layer-1_20_"> <path class="st6" d="M334.5,145v-4.7l2.3,2.3L334.5,145z"></path> <path class="st6" d="M306.5,145v-4.7l2.3,2.3L306.5,145z"></path> <path class="st6" d="M278.6,145v-4.7l2.3,2.3L278.6,145z"></path> <path class="st6" d="M320.5,145v-4.7l2.3,2.3L320.5,145z"></path> <path class="st6" d="M292.5,145v-4.7l2.3,2.3L292.5,145z"></path> <path class="st6" d="M264.6,145v-4.7l2.3,2.3L264.6,145z"></path> <path class="st6" d="M329.9,145v-4.7l2.3,2.3L329.9,145z"></path> <path class="st6" d="M301.9,145v-4.7l2.3,2.3L301.9,145z"></path> <path class="st6" d="M273.9,145v-4.7l2.3,2.3L273.9,145z"></path> <path class="st6" d="M315.9,145v-4.7l2.3,2.3L315.9,145z"></path> <path class="st6" d="M287.9,145v-4.7l2.3,2.3L287.9,145z"></path> <path class="st6" d="M259.9,145v-4.7l2.3,2.3L259.9,145z"></path> <path class="st6" d="M325.2,145v-4.7l2.3,2.3L325.2,145z"></path> <path class="st6" d="M297.2,145v-4.7l2.3,2.3L297.2,145z"></path> <path class="st6" d="M269.2,145v-4.7l2.3,2.3L269.2,145z"></path> <path class="st6" d="M339.2,145v-4.7l2.3,2.3L339.2,145z"></path> <path class="st6" d="M311.2,145v-4.7l2.3,2.3L311.2,145z"></path> <path class="st6" d="M283.2,145v-4.7l2.3,2.3L283.2,145z"></path> </g> <g id="Layer-1_21_"> <path class="st6" d="M358.1,145v-4.7l2.3,2.3L358.1,145z"></path> </g> <g id="Layer-1_22_"> <path class="st6" d="M363.1,145v-4.7l2.3,2.3L363.1,145z"></path> </g> <g id="Layer-1_23_"> <path class="st6" d="M368.4,137.7h-4.7l2.3-2.3L368.4,137.7z"></path> <path class="st6" d="M368.4,133h-4.7l2.3-2.3L368.4,133z"></path> </g> <g id="Layer-1_24_"> <path class="st6" d="M368.4,128.1h-4.7l2.3-2.3L368.4,128.1z"></path> </g> <g id="Layer-1_25_"> <path class="st6" d="M368.4,123.1h-4.7l2.3-2.3L368.4,123.1z"></path> </g> <g id="Layer-1_26_"> <path class="st0" d="M257.3,257.8h114.9v-14.2H257.3V257.8z"></path> </g> <g id="Layer-1_27_"> <path class="st0" d="M359,257.8h14.2v-33.1H359V257.8z"></path> </g> <g id="Layer-1_28_"> <path class="st6" d="M348.5,253v-4.7l2.3,2.3L348.5,253z"></path> </g> <g id="Layer-1_29_"> <path class="st6" d="M343.9,253v-4.7l2.3,2.3L343.9,253z"></path> </g> <g id="Layer-1_30_"> <path class="st6" d="M353.2,253v-4.7l2.3,2.3L353.2,253z"></path> </g> <g id="Layer-1_31_"> <path class="st6" d="M334.5,253v-4.7l2.3,2.3L334.5,253z"></path> <path class="st6" d="M306.5,253v-4.7l2.3,2.3L306.5,253z"></path> <path class="st6" d="M278.6,253v-4.7l2.3,2.3L278.6,253z"></path> <path class="st6" d="M320.5,253v-4.7l2.3,2.3L320.5,253z"></path> <path class="st6" d="M292.5,253v-4.7l2.3,2.3L292.5,253z"></path> <path class="st6" d="M264.6,253v-4.7l2.3,2.3L264.6,253z"></path> <path class="st6" d="M329.9,253v-4.7l2.3,2.3L329.9,253z"></path> <path class="st6" d="M301.9,253v-4.7l2.3,2.3L301.9,253z"></path> <path class="st6" d="M273.9,253v-4.7l2.3,2.3L273.9,253z"></path> <path class="st6" d="M315.9,253v-4.7l2.3,2.3L315.9,253z"></path> <path class="st6" d="M287.9,253v-4.7l2.3,2.3L287.9,253z"></path> <path class="st6" d="M259.9,253v-4.7l2.3,2.3L259.9,253z"></path> <path class="st6" d="M325.2,253v-4.7l2.3,2.3L325.2,253z"></path> <path class="st6" d="M297.2,253v-4.7l2.3,2.3L297.2,253z"></path> <path class="st6" d="M269.2,253v-4.7l2.3,2.3L269.2,253z"></path> <path class="st6" d="M339.2,253v-4.7l2.3,2.3L339.2,253z"></path> <path class="st6" d="M311.2,253v-4.7l2.3,2.3L311.2,253z"></path> <path class="st6" d="M283.2,253v-4.7l2.3,2.3L283.2,253z"></path> </g> <g id="Layer-1_32_"> <path class="st6" d="M358.1,253v-4.7l2.3,2.3L358.1,253z"></path> </g> <g id="Layer-1_33_"> <path class="st6" d="M363.1,253v-4.7l2.3,2.3L363.1,253z"></path> </g> <g id="Layer-1_34_"> <path class="st6" d="M368.4,245.7h-4.7l2.3-2.3L368.4,245.7z"></path> <path class="st6" d="M368.4,241h-4.7l2.3-2.3L368.4,241z"></path> </g> <g id="Layer-1_35_"> <path class="st6" d="M368.4,236.1h-4.7l2.3-2.3L368.4,236.1z"></path> </g> <g id="Layer-1_36_"> <path class="st6" d="M368.4,231.1h-4.7l2.3-2.3L368.4,231.1z"></path> </g> <g id="Layer-1_37_"> <path class="st0" d="M257.3,365.8h114.9v-14.2H257.3V365.8z"></path> </g> <g id="Layer-1_38_"> <path class="st0" d="M359,365.8h14.2v-33.1H359V365.8z"></path> </g> <g id="Layer-1_39_"> <path class="st6" d="M348.5,361v-4.7l2.3,2.3L348.5,361z"></path> </g> <g id="Layer-1_40_"> <path class="st6" d="M343.9,361v-4.7l2.3,2.3L343.9,361z"></path> </g> <g id="Layer-1_41_"> <path class="st6" d="M353.2,361v-4.7l2.3,2.3L353.2,361z"></path> </g> <g id="Layer-1_42_"> <path class="st6" d="M334.5,361v-4.7l2.3,2.3L334.5,361z"></path> <path class="st6" d="M306.5,361v-4.7l2.3,2.3L306.5,361z"></path> <path class="st6" d="M278.6,361v-4.7l2.3,2.3L278.6,361z"></path> <path class="st6" d="M320.5,361v-4.7l2.3,2.3L320.5,361z"></path> <path class="st6" d="M292.5,361v-4.7l2.3,2.3L292.5,361z"></path> <path class="st6" d="M264.6,361v-4.7l2.3,2.3L264.6,361z"></path> <path class="st6" d="M329.9,361v-4.7l2.3,2.3L329.9,361z"></path> <path class="st6" d="M301.9,361v-4.7l2.3,2.3L301.9,361z"></path> <path class="st6" d="M273.9,361v-4.7l2.3,2.3L273.9,361z"></path> <path class="st6" d="M315.9,361v-4.7l2.3,2.3L315.9,361z"></path> <path class="st6" d="M287.9,361v-4.7l2.3,2.3L287.9,361z"></path> <path class="st6" d="M259.9,361v-4.7l2.3,2.3L259.9,361z"></path> <path class="st6" d="M325.2,361v-4.7l2.3,2.3L325.2,361z"></path> <path class="st6" d="M297.2,361v-4.7l2.3,2.3L297.2,361z"></path> <path class="st6" d="M269.2,361v-4.7l2.3,2.3L269.2,361z"></path> <path class="st6" d="M339.2,361v-4.7l2.3,2.3L339.2,361z"></path> <path class="st6" d="M311.2,361v-4.7l2.3,2.3L311.2,361z"></path> <path class="st6" d="M283.2,361v-4.7l2.3,2.3L283.2,361z"></path> </g> <g id="Layer-1_43_"> <path class="st6" d="M358.1,361v-4.7l2.3,2.3L358.1,361z"></path> </g> <g id="Layer-1_44_"> <path class="st6" d="M363.1,361v-4.7l2.3,2.3L363.1,361z"></path> </g> <g id="Layer-1_45_"> <path class="st6" d="M368.4,353.7h-4.7l2.3-2.3L368.4,353.7z"></path> <path class="st6" d="M368.4,349h-4.7l2.3-2.3L368.4,349z"></path> </g> <g id="Layer-1_46_"> <path class="st6" d="M368.4,344.1h-4.7l2.3-2.3L368.4,344.1z"></path> </g> <g id="Layer-1_47_"> <path class="st6" d="M368.4,339.1h-4.7l2.3-2.3L368.4,339.1z"></path> </g> <g id="Layer-1_48_"> <path class="st0" d="M257.3,473.8h114.9v-14.2H257.3V473.8z"></path> </g> <g id="Layer-1_49_"> <path class="st0" d="M359,473.8h14.2v-33.1H359V473.8z"></path> </g> <g id="Layer-1_50_"> <path class="st6" d="M348.5,469v-4.7l2.3,2.3L348.5,469z"></path> </g> <g id="Layer-1_51_"> <path class="st6" d="M343.9,469v-4.7l2.3,2.3L343.9,469z"></path> </g> <g id="Layer-1_52_"> <path class="st6" d="M353.2,469v-4.7l2.3,2.3L353.2,469z"></path> </g> <g id="Layer-1_53_"> <path class="st6" d="M334.5,469v-4.7l2.3,2.3L334.5,469z"></path> <path class="st6" d="M306.5,469v-4.7l2.3,2.3L306.5,469z"></path> <path class="st6" d="M278.6,469v-4.7l2.3,2.3L278.6,469z"></path> <path class="st6" d="M320.5,469v-4.7l2.3,2.3L320.5,469z"></path> <path class="st6" d="M292.5,469v-4.7l2.3,2.3L292.5,469z"></path> <path class="st6" d="M264.6,469v-4.7l2.3,2.3L264.6,469z"></path> <path class="st6" d="M329.9,469v-4.7l2.3,2.3L329.9,469z"></path> <path class="st6" d="M301.9,469v-4.7l2.3,2.3L301.9,469z"></path> <path class="st6" d="M273.9,469v-4.7l2.3,2.3L273.9,469z"></path> <path class="st6" d="M315.9,469v-4.7l2.3,2.3L315.9,469z"></path> <path class="st6" d="M287.9,469v-4.7l2.3,2.3L287.9,469z"></path> <path class="st6" d="M259.9,469v-4.7l2.3,2.3L259.9,469z"></path> <path class="st6" d="M325.2,469v-4.7l2.3,2.3L325.2,469z"></path> <path class="st6" d="M297.2,469v-4.7l2.3,2.3L297.2,469z"></path> <path class="st6" d="M269.2,469v-4.7l2.3,2.3L269.2,469z"></path> <path class="st6" d="M339.2,469v-4.7l2.3,2.3L339.2,469z"></path> <path class="st6" d="M311.2,469v-4.7l2.3,2.3L311.2,469z"></path> <path class="st6" d="M283.2,469v-4.7l2.3,2.3L283.2,469z"></path> </g> <g id="Layer-1_54_"> <path class="st6" d="M358.1,469v-4.7l2.3,2.3L358.1,469z"></path> </g> <g id="Layer-1_55_"> <path class="st6" d="M368.4,461.7h-4.7l2.3-2.3L368.4,461.7z"></path> <path class="st6" d="M368.4,457h-4.7l2.3-2.3L368.4,457z"></path> </g> <g id="Layer-1_56_"> <path class="st6" d="M368.4,452.1h-4.7l2.3-2.3L368.4,452.1z"></path> </g> <g id="Layer-1_57_"> <path class="st6" d="M368.4,447.1h-4.7l2.3-2.3L368.4,447.1z"></path> </g> <g id="Layer-1_58_"> <path class="st0" d="M257.3,584.6h114.9v-14.2H257.3V584.6z"></path> </g> <g id="Layer-1_59_"> <path class="st0" d="M359,584.5h14.2v-112H359V584.5z"></path> </g> <g id="Layer-1_60_"> <path class="st6" d="M348.5,580v-4.7l2.3,2.3L348.5,580z"></path> </g> <g id="Layer-1_61_"> <path class="st6" d="M343.9,580v-4.7l2.3,2.3L343.9,580z"></path> </g> <g id="Layer-1_62_"> <path class="st6" d="M353.2,580v-4.7l2.3,2.3L353.2,580z"></path> </g> <g id="Layer-1_63_"> <path class="st6" d="M334.5,580v-4.7l2.3,2.3L334.5,580z"></path> <path class="st6" d="M306.5,580v-4.7l2.3,2.3L306.5,580z"></path> <path class="st6" d="M278.6,580v-4.7l2.3,2.3L278.6,580z"></path> <path class="st6" d="M320.5,580v-4.7l2.3,2.3L320.5,580z"></path> <path class="st6" d="M292.5,580v-4.7l2.3,2.3L292.5,580z"></path> <path class="st6" d="M264.6,580v-4.7l2.3,2.3L264.6,580z"></path> <path class="st6" d="M329.9,580v-4.7l2.3,2.3L329.9,580z"></path> <path class="st6" d="M301.9,580v-4.7l2.3,2.3L301.9,580z"></path> <path class="st6" d="M273.9,580v-4.7l2.3,2.3L273.9,580z"></path> <path class="st6" d="M315.9,580v-4.7l2.3,2.3L315.9,580z"></path> <path class="st6" d="M287.9,580v-4.7l2.3,2.3L287.9,580z"></path> <path class="st6" d="M259.9,580v-4.7l2.3,2.3L259.9,580z"></path> <path class="st6" d="M325.2,580v-4.7l2.3,2.3L325.2,580z"></path> <path class="st6" d="M297.2,580v-4.7l2.3,2.3L297.2,580z"></path> <path class="st6" d="M269.2,580v-4.7l2.3,2.3L269.2,580z"></path> <path class="st6" d="M339.2,580v-4.7l2.3,2.3L339.2,580z"></path> <path class="st6" d="M311.2,580v-4.7l2.3,2.3L311.2,580z"></path> <path class="st6" d="M283.2,580v-4.7l2.3,2.3L283.2,580z"></path> </g> <g id="Layer-1_64_"> <path class="st6" d="M358.1,580v-4.7l2.3,2.3L358.1,580z"></path> </g> <g id="Layer-1_65_"> <path class="st6" d="M363.1,580v-4.7l2.3,2.3L363.1,580z"></path> </g> <g id="Layer-1_66_"> <path class="st6" d="M368.4,554h-4.7l2.3-2.3L368.4,554z"></path> <path class="st6" d="M368.4,549.3h-4.7l2.3-2.3L368.4,549.3z"></path> </g> <g id="Layer-1_67_"> <path class="st6" d="M368.4,544.4h-4.7l2.3-2.3L368.4,544.4z"></path> </g> <g id="Layer-1_68_"> <path class="st6" d="M368.4,539.4h-4.7l2.3-2.3L368.4,539.4z"></path> </g> <g id="Layer-1_69_"> <path class="st6" d="M368.4,533.7h-4.7l2.3-2.3L368.4,533.7z"></path> <path class="st6" d="M368.4,529h-4.7l2.3-2.3L368.4,529z"></path> </g> <g id="Layer-1_70_"> <path class="st6" d="M368.4,524.1h-4.7l2.3-2.3L368.4,524.1z"></path> </g> <g id="Layer-1_71_"> <path class="st6" d="M368.4,519h-4.7l2.3-2.3L368.4,519z"></path> </g> <g id="Layer-1_72_"> <path class="st6" d="M368.4,514.1h-4.7l2.3-2.3L368.4,514.1z"></path> <path class="st6" d="M368.4,509.4h-4.7l2.3-2.3L368.4,509.4z"></path> </g> <g id="Layer-1_73_"> <path class="st6" d="M368.4,504.5h-4.7l2.3-2.3L368.4,504.5z"></path> </g> <g id="Layer-1_74_"> <path class="st6" d="M368.4,499.5h-4.7l2.3-2.3L368.4,499.5z"></path> </g> <g id="Layer-1_75_"> <path class="st6" d="M368.4,494.5h-4.7l2.3-2.3L368.4,494.5z"></path> <path class="st6" d="M368.4,489.9h-4.7l2.3-2.3L368.4,489.9z"></path> </g> <g id="Layer-1_76_"> <path class="st6" d="M368.4,485h-4.7l2.3-2.3L368.4,485z"></path> </g> <g id="Layer-1_77_"> <path class="st6" d="M368.4,479.9h-4.7l2.3-2.3L368.4,479.9z"></path> </g> <g id="Layer-1_78_"> <path class="st6" d="M368.4,468.2h-4.7l2.3-2.3L368.4,468.2z"></path> </g> <g id="Layer-1_83_"> <path class="st4" d="M278,117.1h170.1v-21H278V117.1z"></path> </g> <g id="Layer-1_84_"> <path class="st4" d="M278,441.1h233.9v-21H278V441.1z"></path> </g> <g id="Layer-1_85_"> <path class="st4" d="M277.3,333.1h170.1v-21H277.3V333.1z"></path> </g> <g id="Layer-1_86_"> <path class="st4" d="M278,224.6h233.2v-21H278V224.6z"></path> </g> <g id="Layer-1_87_"> <path class="st5" d="M271.5,117.1h176.6v-21H271.5V117.1z"></path> </g> <g id="Layer-1_88_"> <path class="st5" d="M271.6,441.1h240.3v-21H271.6V441.1z"></path> </g> <g id="Layer-1_89_"> <path class="st5" d="M270.8,333.1h176.6v-21H270.8V333.1z"></path> </g> <g id="Layer-1_90_"> <path class="st5" d="M271.6,224.6h239.6v-21H271.6V224.6z"></path> </g> <g id="Layer-1_91_"> <text transform="matrix(1 0 0 1 295.0581 109.7762)" class="st6 st2 st3">H</text> <text transform="matrix(1 0 0 1 304.2231 109.7762)" class="st6 st2 st3">a</text> <text transform="matrix(1 0 0 1 311.4251 109.7762)" class="st6 st2 st3">u</text> <text transform="matrix(1 0 0 1 319.1341 109.7762)" class="st6 st2 st3">p</text> <text transform="matrix(1 0 0 1 326.6741 109.7762)" class="st6 st2 st3">t</text> <text transform="matrix(1 0 0 1 331.4451 109.7762)" class="st6 st2 st3">s</text> <text transform="matrix(1 0 0 1 338.2181 109.7762)" class="st6 st2 st3">c</text> <text transform="matrix(1 0 0 1 344.7181 109.7762)" class="st6 st2 st3">h</text> <text transform="matrix(1 0 0 1 352.4272 109.7762)" class="st6 st2 st3">u</text> <text transform="matrix(1 0 0 1 360.1362 109.7762)" class="st6 st2 st3">l</text> <text transform="matrix(1 0 0 1 364.6212 109.7762)" class="st6 st2 st3">a</text> <text transform="matrix(1 0 0 1 371.8232 109.7762)" class="st6 st2 st3">b</text> <text transform="matrix(1 0 0 1 379.3632 109.7762)" class="st6 st2 st3">s</text> <text transform="matrix(1 0 0 1 386.1362 109.7762)" class="st6 st2 st3">c</text> <text transform="matrix(1 0 0 1 392.6362 109.7762)" class="st6 st2 st3">h</text> <text transform="matrix(1 0 0 1 400.3452 109.7762)" class="st6 st2 st3">l</text> <text transform="matrix(1 0 0 1 404.8302 109.7762)" class="st6 st2 st3">u</text> <text transform="matrix(1 0 0 1 412.5392 109.7762)" class="st6 st2 st3">s</text> <text transform="matrix(1 0 0 1 419.2472 109.7762)" class="st6 st2 st3">s</text> </g> <g id="Layer-1_92_"> <text transform="matrix(1 0 0 1 283.7716 434.0676)" class="st6 st2 st3">A</text> <text transform="matrix(1 0 0 1 292.3256 434.0676)" class="st6 st2 st3">l</text> <text transform="matrix(1 0 0 1 296.8106 434.0676)" class="st6 st2 st3">l</text> <text transform="matrix(1 0 0 1 301.1656 434.0676)" class="st6 st2 st3">g</text> <text transform="matrix(1 0 0 1 308.6406 434.0676)" class="st6 st2 st3">e</text> <text transform="matrix(1 0 0 1 316.0246 434.0676)" class="st6 st2 st3">m</text> <text transform="matrix(1 0 0 1 327.6726 434.0676)" class="st6 st2 st3">e</text> <text transform="matrix(1 0 0 1 335.0566 434.0676)" class="st6 st2 st3">i</text> <text transform="matrix(1 0 0 1 338.8916 434.0676)" class="st6 st2 st3">n</text> <text transform="matrix(1 0 0 1 346.6006 434.0676)" class="st6 st2 st3">e</text> <text transform="matrix(1 0 0 1 353.9846 434.0676)" class="st6 st2 st3"> </text> <text transform="matrix(1 0 0 1 357.2606 434.0676)" class="st6 st2 st3">H</text> <text transform="matrix(1 0 0 1 366.4256 434.0676)" class="st6 st2 st3">o</text> <text transform="matrix(1 0 0 1 373.7446 434.0676)" class="st6 st2 st3">c</text> <text transform="matrix(1 0 0 1 380.2446 434.0676)" class="st6 st2 st3">h</text> <text transform="matrix(1 0 0 1 387.9536 434.0676)" class="st6 st2 st3">s</text> <text transform="matrix(1 0 0 1 394.7267 434.0676)" class="st6 st2 st3">c</text> <text transform="matrix(1 0 0 1 401.2267 434.0676)" class="st6 st2 st3">h</text> <text transform="matrix(1 0 0 1 408.9357 434.0676)" class="st6 st2 st3">u</text> <text transform="matrix(1 0 0 1 416.6447 434.0676)" class="st6 st2 st3">l</text> <text transform="matrix(1 0 0 1 421.1297 434.0676)" class="st6 st2 st3">r</text> <text transform="matrix(1 0 0 1 426.9147 434.0676)" class="st6 st2 st3">e</text> <text transform="matrix(1 0 0 1 434.2987 434.0676)" class="st6 st2 st3">i</text> <text transform="matrix(1 0 0 1 438.1337 434.0676)" class="st6 st2 st3">f</text> <text transform="matrix(1 0 0 1 442.6447 434.0676)" class="st6 st2 st3">e</text> <text transform="matrix(1 0 0 1 450.0287 434.0676)" class="st6 st2 st3"> </text> <text transform="matrix(1 0 0 1 453.3047 434.0676)" class="st6 st2 st3">(</text> <text transform="matrix(1 0 0 1 457.9326 434.0676)" class="st6 st2 st3">A</text> <text transform="matrix(1 0 0 1 466.4866 434.0676)" class="st6 st2 st3">b</text> <text transform="matrix(1 0 0 1 474.0266 434.0676)" class="st6 st2 st3">i</text> <text transform="matrix(1 0 0 1 477.8616 434.0676)" class="st6 st2 st3">t</text> <text transform="matrix(1 0 0 1 482.6976 434.0676)" class="st6 st2 st3">u</text> <text transform="matrix(1 0 0 1 490.4066 434.0676)" class="st6 st2 st3">r</text> <text transform="matrix(1 0 0 1 496.5816 434.0676)" class="st6 st2 st3">)</text> </g> <g id="Layer-1_93_"> <text transform="matrix(1 0 0 1 299.6991 325.7762)" class="st6 st2 st3">F</text> <text transform="matrix(1 0 0 1 307.2391 325.7762)" class="st6 st2 st3">a</text> <text transform="matrix(1 0 0 1 314.4411 325.7762)" class="st6 st2 st3">c</text> <text transform="matrix(1 0 0 1 320.9411 325.7762)" class="st6 st2 st3">h</text> <text transform="matrix(1 0 0 1 328.6501 325.7762)" class="st6 st2 st3">h</text> <text transform="matrix(1 0 0 1 336.3591 325.7762)" class="st6 st2 st3">o</text> <text transform="matrix(1 0 0 1 343.6781 325.7762)" class="st6 st2 st3">c</text> <text transform="matrix(1 0 0 1 350.1781 325.7762)" class="st6 st2 st3">h</text> <text transform="matrix(1 0 0 1 357.8871 325.7762)" class="st6 st2 st3">s</text> <text transform="matrix(1 0 0 1 364.6601 325.7762)" class="st6 st2 st3">c</text> <text transform="matrix(1 0 0 1 371.1601 325.7762)" class="st6 st2 st3">h</text> <text transform="matrix(1 0 0 1 378.8691 325.7762)" class="st6 st2 st3">u</text> <text transform="matrix(1 0 0 1 386.5782 325.7762)" class="st6 st2 st3">l</text> <text transform="matrix(1 0 0 1 391.0632 325.7762)" class="st6 st2 st3">r</text> <text transform="matrix(1 0 0 1 396.8481 325.7762)" class="st6 st2 st3">e</text> <text transform="matrix(1 0 0 1 404.2321 325.7762)" class="st6 st2 st3">i</text> <text transform="matrix(1 0 0 1 408.0671 325.7762)" class="st6 st2 st3">f</text> <text transform="matrix(1 0 0 1 412.5768 325.7762)" class="st6 st2 st3">e</text> </g> <g id="Layer-1_94_"> <text transform="matrix(1 0 0 1 298.3672 217.3391)" class="st6 st2 st3">F</text> <text transform="matrix(1 0 0 1 305.9072 217.3391)" class="st6 st2 st3">a</text> <text transform="matrix(1 0 0 1 313.1092 217.3391)" class="st6 st2 st3">c</text> <text transform="matrix(1 0 0 1 319.6092 217.3391)" class="st6 st2 st3">h</text> <text transform="matrix(1 0 0 1 327.3182 217.3391)" class="st6 st2 st3">s</text> <text transform="matrix(1 0 0 1 334.0912 217.3391)" class="st6 st2 st3">c</text> <text transform="matrix(1 0 0 1 340.5912 217.3391)" class="st6 st2 st3">h</text> <text transform="matrix(1 0 0 1 348.3002 217.3391)" class="st6 st2 st3">u</text> <text transform="matrix(1 0 0 1 356.0092 217.3391)" class="st6 st2 st3">l</text> <text transform="matrix(1 0 0 1 360.4943 217.3391)" class="st6 st2 st3">r</text> <text transform="matrix(1 0 0 1 366.2792 217.3391)" class="st6 st2 st3">e</text> <text transform="matrix(1 0 0 1 373.6632 217.3391)" class="st6 st2 st3">i</text> <text transform="matrix(1 0 0 1 377.4982 217.3391)" class="st6 st2 st3">f</text> <text transform="matrix(1 0 0 1 382.0092 217.3391)" class="st6 st2 st3">e</text> <text transform="matrix(1 0 0 1 389.3932 217.3391)" class="st6 st2 st3"> </text> <text transform="matrix(1 0 0 1 392.6692 217.3391)" class="st6 st2 st3">(</text> <text transform="matrix(1 0 0 1 397.2972 217.3391)" class="st6 st2 st3">M</text> <text transform="matrix(1 0 0 1 408.1002 217.3391)" class="st6 st2 st3">i</text> <text transform="matrix(1 0 0 1 411.9352 217.3391)" class="st6 st2 st3">t</text> <text transform="matrix(1 0 0 1 416.7712 217.3391)" class="st6 st2 st3">t</text> <text transform="matrix(1 0 0 1 421.6072 217.3391)" class="st6 st2 st3">l</text> <text transform="matrix(1 0 0 1 425.9622 217.3391)" class="st6 st2 st3">e</text> <text transform="matrix(1 0 0 1 433.3462 217.3391)" class="st6 st2 st3">r</text> <text transform="matrix(1 0 0 1 439.1312 217.3391)" class="st6 st2 st3">e</text> <text transform="matrix(1 0 0 1 446.5152 217.3391)" class="st6 st2 st3"> </text> <text transform="matrix(1 0 0 1 449.7912 217.3391)" class="st6 st2 st3">R</text> <text transform="matrix(1 0 0 1 458.1632 217.3391)" class="st6 st2 st3">e</text> <text transform="matrix(1 0 0 1 465.5472 217.3391)" class="st6 st2 st3">i</text> <text transform="matrix(1 0 0 1 469.3822 217.3391)" class="st6 st2 st3">f</text> <text transform="matrix(1 0 0 1 473.8932 217.3391)" class="st6 st2 st3">e</text> <text transform="matrix(1 0 0 1 481.2772 217.3391)" class="st6 st2 st3">)</text> </g> <g id="Layer-1_95_"> <text transform="matrix(1 0 0 1 156.1611 73.6523)" class="st1 st2 st3">V</text> <text transform="matrix(1 0 0 1 163.4541 73.6523)" class="st1 st2 st3">A</text> <text transform="matrix(1 0 0 1 172.0081 73.6523)" class="st1 st2 st3">B</text> </g> <g id="Layer-1_96_"> <text transform="matrix(1 0 0 1 119.9407 93.6523)" class="st7 st8 st9">V</text> <text transform="matrix(1 0 0 1 125.0137 93.6523)" class="st7 st8 st9">o</text> <text transform="matrix(1 0 0 1 130.2102 93.6523)" class="st7 st8 st9">r</text> <text transform="matrix(1 0 0 1 134.1907 93.6523)" class="st7 st8 st9">q</text> <text transform="matrix(1 0 0 1 139.5392 93.6523)" class="st7 st8 st9">u</text> <text transform="matrix(1 0 0 1 145.0302 93.6523)" class="st7 st8 st9">a</text> <text transform="matrix(1 0 0 1 150.1602 93.6523)" class="st7 st8 st9">l</text> <text transform="matrix(1 0 0 1 153.2097 93.6523)" class="st7 st8 st9">i</text> <text transform="matrix(1 0 0 1 155.8127 93.6523)" class="st7 st8 st9">f</text> <text transform="matrix(1 0 0 1 159.0237 93.6523)" class="st7 st8 st9">i</text> <text transform="matrix(1 0 0 1 161.6267 93.6523)" class="st7 st8 st9">z</text> <text transform="matrix(1 0 0 1 166.1772 93.6523)" class="st7 st8 st9">i</text> <text transform="matrix(1 0 0 1 168.7802 93.6523)" class="st7 st8 st9">e</text> <text transform="matrix(1 0 0 1 173.9957 93.6523)" class="st7 st8 st9">r</text> <text transform="matrix(1 0 0 1 178.2612 93.6523)" class="st7 st8 st9">u</text> <text transform="matrix(1 0 0 1 183.7522 93.6523)" class="st7 st8 st9">n</text> <text transform="matrix(1 0 0 1 189.2432 93.6523)" class="st7 st8 st9">g</text> <text transform="matrix(1 0 0 1 194.5537 93.6523)" class="st7 st8 st9">s</text> <text transform="matrix(1 0 0 1 199.3892 93.6523)" class="st7 st8 st9">j</text> <text transform="matrix(1 0 0 1 201.9922 93.6523)" class="st7 st8 st9">a</text> <text transform="matrix(1 0 0 1 207.1222 93.6523)" class="st7 st8 st9">h</text> <text transform="matrix(1 0 0 1 212.6132 93.6523)" class="st7 st8 st9">r</text> <text transform="matrix(1 0 0 1 216.7837 93.6523)" class="st7 st8 st9"> </text> </g> <g id="Layer-1_97_"> <text transform="matrix(1 0 0 1 132.1766 104.6523)" class="st7 st8 st9">A</text> <text transform="matrix(1 0 0 1 138.2091 104.6523)" class="st7 st8 st9">r</text> <text transform="matrix(1 0 0 1 142.4746 104.6523)" class="st7 st8 st9">b</text> <text transform="matrix(1 0 0 1 147.8231 104.6523)" class="st7 st8 st9">e</text> <text transform="matrix(1 0 0 1 153.0386 104.6523)" class="st7 st8 st9">i</text> <text transform="matrix(1 0 0 1 155.6416 104.6523)" class="st7 st8 st9">t</text> <text transform="matrix(1 0 0 1 158.9856 104.6523)" class="st7 st8 st9"> </text> <text transform="matrix(1 0 0 1 161.3606 104.6523)" class="st7 st8 st9">u</text> <text transform="matrix(1 0 0 1 166.8516 104.6523)" class="st7 st8 st9">n</text> <text transform="matrix(1 0 0 1 172.3426 104.6523)" class="st7 st8 st9">d</text> <text transform="matrix(1 0 0 1 177.6911 104.6523)" class="st7 st8 st9"> </text> <text transform="matrix(1 0 0 1 180.0661 104.6523)" class="st7 st8 st9">B</text> <text transform="matrix(1 0 0 1 186.4596 104.6523)" class="st7 st8 st9">e</text> <text transform="matrix(1 0 0 1 191.6751 104.6523)" class="st7 st8 st9">r</text> <text transform="matrix(1 0 0 1 195.9406 104.6523)" class="st7 st8 st9">u</text> <text transform="matrix(1 0 0 1 201.4316 104.6523)" class="st7 st8 st9">f</text> </g> <g id="Layer-1_98_"> <text transform="matrix(1 0 0 1 137.316 115.6523)" class="st6 st8 st9">P</text> <text transform="matrix(1 0 0 1 143.3865 115.6523)" class="st6 st8 st9">r</text> <text transform="matrix(1 0 0 1 147.367 115.6523)" class="st6 st8 st9">e</text> <text transform="matrix(1 0 0 1 152.5825 115.6523)" class="st6 st8 st9">-</text> <text transform="matrix(1 0 0 1 156.7245 115.6523)" class="st6 st8 st9">q</text> <text transform="matrix(1 0 0 1 162.073 115.6523)" class="st6 st8 st9">u</text> <text transform="matrix(1 0 0 1 167.564 115.6523)" class="st6 st8 st9">a</text> <text transform="matrix(1 0 0 1 172.694 115.6523)" class="st6 st8 st9">l</text> <text transform="matrix(1 0 0 1 175.7435 115.6523)" class="st6 st8 st9">i</text> <text transform="matrix(1 0 0 1 178.3465 115.6523)" class="st6 st8 st9">f</text> <text transform="matrix(1 0 0 1 181.5575 115.6523)" class="st6 st8 st9">y</text> <text transform="matrix(1 0 0 1 186.0985 115.6523)" class="st6 st8 st9">i</text> <text transform="matrix(1 0 0 1 188.7015 115.6523)" class="st6 st8 st9">n</text> <text transform="matrix(1 0 0 1 194.1925 115.6523)" class="st6 st8 st9">g</text> <text transform="matrix(1 0 0 1 199.408 115.6523)" class="st6 st8 st9"> </text> </g> <g id="Layer-1_99_"> <text transform="matrix(1 0 0 1 130.9273 126.6523)" class="st6 st8 st9">y</text> <text transform="matrix(1 0 0 1 135.3733 126.6523)" class="st6 st8 st9">e</text> <text transform="matrix(1 0 0 1 140.5888 126.6523)" class="st6 st8 st9">a</text> <text transform="matrix(1 0 0 1 145.7188 126.6523)" class="st6 st8 st9">r</text> <text transform="matrix(1 0 0 1 149.9843 126.6523)" class="st6 st8 st9"> </text> <text transform="matrix(1 0 0 1 152.3593 126.6523)" class="st6 st8 st9">w</text> <text transform="matrix(1 0 0 1 159.4653 126.6523)" class="st6 st8 st9">o</text> <text transform="matrix(1 0 0 1 164.6618 126.6523)" class="st6 st8 st9">r</text> <text transform="matrix(1 0 0 1 168.9273 126.6523)" class="st6 st8 st9">k</text> <text transform="matrix(1 0 0 1 174.2283 126.6523)" class="st6 st8 st9"> </text> <text transform="matrix(1 0 0 1 176.6033 126.6523)" class="st6 st8 st9">/</text> <text transform="matrix(1 0 0 1 180.3083 126.6523)" class="st6 st8 st9"> </text> <text transform="matrix(1 0 0 1 182.6833 126.6523)" class="st6 st8 st9">t</text> <text transform="matrix(1 0 0 1 186.0273 126.6523)" class="st6 st8 st9">r</text> <text transform="matrix(1 0 0 1 190.1978 126.6523)" class="st6 st8 st9">a</text> <text transform="matrix(1 0 0 1 195.3278 126.6523)" class="st6 st8 st9">d</text> <text transform="matrix(1 0 0 1 200.6763 126.6523)" class="st6 st8 st9">e</text> </g> <g id="Layer-1_100_"> <text transform="matrix(1 0 0 1 59.8395 73.6523)" class="st1 st2 st3">A</text> <text transform="matrix(1 0 0 1 67.8735 73.6523)" class="st1 st2 st3">V</text> </g> <g id="Layer-1_101_"> <text transform="matrix(1 0 0 1 38.739 93.6523)" class="st7 st8 st9">A</text> <text transform="matrix(1 0 0 1 44.7715 93.6523)" class="st7 st8 st9">u</text> <text transform="matrix(1 0 0 1 50.2625 93.6523)" class="st7 st8 st9">s</text> <text transform="matrix(1 0 0 1 55.098 93.6523)" class="st7 st8 st9">b</text> <text transform="matrix(1 0 0 1 60.4465 93.6523)" class="st7 st8 st9">i</text> <text transform="matrix(1 0 0 1 63.0495 93.6523)" class="st7 st8 st9">l</text> <text transform="matrix(1 0 0 1 66.004 93.6523)" class="st7 st8 st9">d</text> <text transform="matrix(1 0 0 1 71.3525 93.6523)" class="st7 st8 st9">u</text> <text transform="matrix(1 0 0 1 76.8435 93.6523)" class="st7 st8 st9">n</text> <text transform="matrix(1 0 0 1 82.3345 93.6523)" class="st7 st8 st9">g</text> <text transform="matrix(1 0 0 1 87.645 93.6523)" class="st7 st8 st9">s</text> <text transform="matrix(1 0 0 1 92.4805 93.6523)" class="st7 st8 st9">-</text> </g> <g id="Layer-1_102_"> <text transform="matrix(1 0 0 1 39.7129 104.6523)" class="st7 st8 st9">v</text> <text transform="matrix(1 0 0 1 44.1874 104.6523)" class="st7 st8 st9">o</text> <text transform="matrix(1 0 0 1 49.3839 104.6523)" class="st7 st8 st9">r</text> <text transform="matrix(1 0 0 1 53.6494 104.6523)" class="st7 st8 st9">b</text> <text transform="matrix(1 0 0 1 58.9979 104.6523)" class="st7 st8 st9">e</text> <text transform="matrix(1 0 0 1 64.2134 104.6523)" class="st7 st8 st9">r</text> <text transform="matrix(1 0 0 1 68.1939 104.6523)" class="st7 st8 st9">e</text> <text transform="matrix(1 0 0 1 73.4094 104.6523)" class="st7 st8 st9">i</text> <text transform="matrix(1 0 0 1 76.0124 104.6523)" class="st7 st8 st9">t</text> <text transform="matrix(1 0 0 1 79.3564 104.6523)" class="st7 st8 st9">u</text> <text transform="matrix(1 0 0 1 84.8474 104.6523)" class="st7 st8 st9">n</text> <text transform="matrix(1 0 0 1 90.3384 104.6523)" class="st7 st8 st9">g</text> </g> <g id="Layer-1_103_"> <text transform="matrix(1 0 0 1 34.3882 115.6523)" class="st6 st8 st9">P</text> <text transform="matrix(1 0 0 1 40.4587 115.6523)" class="st6 st8 st9">r</text> <text transform="matrix(1 0 0 1 44.4392 115.6523)" class="st6 st8 st9">e</text> <text transform="matrix(1 0 0 1 49.6547 115.6523)" class="st6 st8 st9">p</text> <text transform="matrix(1 0 0 1 55.0032 115.6523)" class="st6 st8 st9">a</text> <text transform="matrix(1 0 0 1 60.1332 115.6523)" class="st6 st8 st9">r</text> <text transform="matrix(1 0 0 1 64.3037 115.6523)" class="st6 st8 st9">a</text> <text transform="matrix(1 0 0 1 69.4337 115.6523)" class="st6 st8 st9">t</text> <text transform="matrix(1 0 0 1 72.7777 115.6523)" class="st6 st8 st9">i</text> <text transform="matrix(1 0 0 1 75.3807 115.6523)" class="st6 st8 st9">o</text> <text transform="matrix(1 0 0 1 80.5772 115.6523)" class="st6 st8 st9">n</text> <text transform="matrix(1 0 0 1 86.0682 115.6523)" class="st6 st8 st9"> </text> <text transform="matrix(1 0 0 1 88.4432 115.6523)" class="st6 st8 st9">f</text> <text transform="matrix(1 0 0 1 91.5117 115.6523)" class="st6 st8 st9">o</text> <text transform="matrix(1 0 0 1 96.7082 115.6523)" class="st6 st8 st9">r</text> <text transform="matrix(1 0 0 1 100.8787 115.6523)" class="st6 st8 st9"> </text> </g> <g id="Layer-1_104_"> <text transform="matrix(1 0 0 1 45.5458 126.6523)" class="st6 st8 st9">v</text> <text transform="matrix(1 0 0 1 50.0203 126.6523)" class="st6 st8 st9">o</text> <text transform="matrix(1 0 0 1 55.2168 126.6523)" class="st6 st8 st9">c</text> <text transform="matrix(1 0 0 1 59.8718 126.6523)" class="st6 st8 st9">a</text> <text transform="matrix(1 0 0 1 65.0018 126.6523)" class="st6 st8 st9">t</text> <text transform="matrix(1 0 0 1 68.3458 126.6523)" class="st6 st8 st9">i</text> <text transform="matrix(1 0 0 1 70.9488 126.6523)" class="st6 st8 st9">o</text> <text transform="matrix(1 0 0 1 76.1453 126.6523)" class="st6 st8 st9">n</text> <text transform="matrix(1 0 0 1 81.6363 126.6523)" class="st6 st8 st9">a</text> <text transform="matrix(1 0 0 1 86.7663 126.6523)" class="st6 st8 st9">l</text> <text transform="matrix(1 0 0 1 89.7208 126.6523)" class="st6 st8 st9"> </text> </g> <g id="Layer-1_105_"> <text transform="matrix(1 0 0 1 50.6091 137.6523)" class="st6 st8 st9">t</text> <text transform="matrix(1 0 0 1 53.9531 137.6523)" class="st6 st8 st9">r</text> <text transform="matrix(1 0 0 1 58.1236 137.6523)" class="st6 st8 st9">a</text> <text transform="matrix(1 0 0 1 63.2536 137.6523)" class="st6 st8 st9">i</text> <text transform="matrix(1 0 0 1 65.8566 137.6523)" class="st6 st8 st9">n</text> <text transform="matrix(1 0 0 1 71.3476 137.6523)" class="st6 st8 st9">i</text> <text transform="matrix(1 0 0 1 73.9506 137.6523)" class="st6 st8 st9">n</text> <text transform="matrix(1 0 0 1 79.4416 137.6523)" class="st6 st8 st9">g</text> </g> <g id="Layer-1_106_"> <text transform="matrix(1 0 0 1 108.2417 73.6523)" class="st1 st2 st3">/</text> </g> <g id="Layer-1_107_"> <text transform="matrix(1 0 0 1 140.1259 188.0513)" class="st1 st2 st3">2</text> <text transform="matrix(1 0 0 1 147.4449 188.0513)" class="st1 st2 st3">-</text> <text transform="matrix(1 0 0 1 153.2429 188.0513)" class="st1 st2 st3">j</text> <text transform="matrix(1 0 0 1 157.0779 188.0513)" class="st1 st2 st3">ä</text> <text transform="matrix(1 0 0 1 164.2799 188.0513)" class="st1 st2 st3">h</text> <text transform="matrix(1 0 0 1 171.9889 188.0513)" class="st1 st2 st3">r</text> <text transform="matrix(1 0 0 1 178.1639 188.0513)" class="st1 st2 st3">i</text> <text transform="matrix(1 0 0 1 181.9989 188.0513)" class="st1 st2 st3">g</text> <text transform="matrix(1 0 0 1 189.4739 188.0513)" class="st1 st2 st3">e</text> <text transform="matrix(1 0 0 1 196.5979 188.0513)" class="st1 st2 st3"> </text> </g> <g id="Layer-1_108_"> <text transform="matrix(1 0 0 1 110.7787 203.6514)" class="st1 st2 st3">B</text> <text transform="matrix(1 0 0 1 119.5927 203.6514)" class="st1 st2 st3">e</text> <text transform="matrix(1 0 0 1 126.9767 203.6514)" class="st1 st2 st3">r</text> <text transform="matrix(1 0 0 1 133.1517 203.6514)" class="st1 st2 st3">u</text> <text transform="matrix(1 0 0 1 140.8607 203.6514)" class="st1 st2 st3">f</text> <text transform="matrix(1 0 0 1 145.3717 203.6514)" class="st1 st2 st3">s</text> <text transform="matrix(1 0 0 1 152.1447 203.6514)" class="st1 st2 st3">f</text> <text transform="matrix(1 0 0 1 156.6557 203.6514)" class="st1 st2 st3">a</text> <text transform="matrix(1 0 0 1 163.8577 203.6514)" class="st1 st2 st3">c</text> <text transform="matrix(1 0 0 1 170.3577 203.6514)" class="st1 st2 st3">h</text> <text transform="matrix(1 0 0 1 178.0667 203.6514)" class="st1 st2 st3">s</text> <text transform="matrix(1 0 0 1 184.8397 203.6514)" class="st1 st2 st3">c</text> <text transform="matrix(1 0 0 1 191.3397 203.6514)" class="st1 st2 st3">h</text> <text transform="matrix(1 0 0 1 199.0487 203.6514)" class="st1 st2 st3">u</text> <text transform="matrix(1 0 0 1 206.7577 203.6514)" class="st1 st2 st3">l</text> <text transform="matrix(1 0 0 1 211.1127 203.6514)" class="st1 st2 st3">e</text> <text transform="matrix(1 0 0 1 218.4967 203.6514)" class="st1 st2 st3">n</text> </g> <g id="Layer-1_109_"> <text transform="matrix(1 0 0 1 119.1962 219.2513)" class="st6 st2 st3">2</text> <text transform="matrix(1 0 0 1 126.5152 219.2513)" class="st6 st2 st3">-</text> <text transform="matrix(1 0 0 1 132.3132 219.2513)" class="st6 st2 st3">y</text> <text transform="matrix(1 0 0 1 138.8652 219.2513)" class="st6 st2 st3">e</text> <text transform="matrix(1 0 0 1 146.2492 219.2513)" class="st6 st2 st3">a</text> <text transform="matrix(1 0 0 1 153.4512 219.2513)" class="st6 st2 st3">r</text> <text transform="matrix(1 0 0 1 159.6262 219.2513)" class="st6 st2 st3"> </text> <text transform="matrix(1 0 0 1 162.9022 219.2513)" class="st6 st2 st3">f</text> <text transform="matrix(1 0 0 1 167.6082 219.2513)" class="st6 st2 st3">u</text> <text transform="matrix(1 0 0 1 175.3172 219.2513)" class="st6 st2 st3">l</text> <text transform="matrix(1 0 0 1 179.8022 219.2513)" class="st6 st2 st3">l</text> <text transform="matrix(1 0 0 1 184.2872 219.2513)" class="st6 st2 st3">-</text> <text transform="matrix(1 0 0 1 190.0852 219.2513)" class="st6 st2 st3">t</text> <text transform="matrix(1 0 0 1 194.9212 219.2513)" class="st6 st2 st3">i</text> <text transform="matrix(1 0 0 1 198.7562 219.2513)" class="st6 st2 st3">m</text> <text transform="matrix(1 0 0 1 210.4042 219.2513)" class="st6 st2 st3">e</text> <text transform="matrix(1 0 0 1 217.5269 219.2513)" class="st6 st2 st3"> </text> </g> <g id="Layer-1_110_"> <text transform="matrix(1 0 0 1 111.9744 234.8513)" class="st6 st2 st3">v</text> <text transform="matrix(1 0 0 1 118.5134 234.8513)" class="st6 st2 st3">o</text> <text transform="matrix(1 0 0 1 125.8324 234.8513)" class="st6 st2 st3">c</text> <text transform="matrix(1 0 0 1 132.2674 234.8513)" class="st6 st2 st3">a</text> <text transform="matrix(1 0 0 1 139.4694 234.8513)" class="st6 st2 st3">t</text> <text transform="matrix(1 0 0 1 144.3054 234.8513)" class="st6 st2 st3">i</text> <text transform="matrix(1 0 0 1 148.1404 234.8513)" class="st6 st2 st3">o</text> <text transform="matrix(1 0 0 1 155.4594 234.8513)" class="st6 st2 st3">n</text> <text transform="matrix(1 0 0 1 163.1684 234.8513)" class="st6 st2 st3">a</text> <text transform="matrix(1 0 0 1 170.3704 234.8513)" class="st6 st2 st3">l</text> <text transform="matrix(1 0 0 1 174.8554 234.8513)" class="st6 st2 st3"> </text> <text transform="matrix(1 0 0 1 178.1314 234.8513)" class="st6 st2 st3">s</text> <text transform="matrix(1 0 0 1 184.9044 234.8513)" class="st6 st2 st3">c</text> <text transform="matrix(1 0 0 1 191.4044 234.8513)" class="st6 st2 st3">h</text> <text transform="matrix(1 0 0 1 199.1134 234.8513)" class="st6 st2 st3">o</text> <text transform="matrix(1 0 0 1 206.4324 234.8513)" class="st6 st2 st3">o</text> <text transform="matrix(1 0 0 1 213.7514 234.8513)" class="st6 st2 st3">l</text> <text transform="matrix(1 0 0 1 218.2364 234.8513)" class="st6 st2 st3">s</text> </g> <g id="Layer-1_111_"> <g id="Layer-2"> </g> <g id="Layer-2_1_"> </g> <text transform="matrix(1 0 0 1 132.7658 295.7679)" class="st1 st2 st3">2</text> <text transform="matrix(1 0 0 1 140.0848 295.7679)" class="st1 st2 st3">-</text> <text transform="matrix(1 0 0 1 145.8828 295.7679)" class="st1 st2 st3">3</text> <text transform="matrix(1 0 0 1 153.2018 295.7679)" class="st1 st2 st3"> </text> <text transform="matrix(1 0 0 1 154.0078 295.7679)" class="st1 st2 st3">-</text> <text transform="matrix(1 0 0 1 159.8058 295.7679)" class="st1 st2 st3"> </text> <text transform="matrix(1 0 0 1 160.6118 295.7679)" class="st1 st2 st3">j</text> <text transform="matrix(1 0 0 1 164.4468 295.7679)" class="st1 st2 st3">ä</text> <text transform="matrix(1 0 0 1 171.6488 295.7679)" class="st1 st2 st3">h</text> <text transform="matrix(1 0 0 1 179.3578 295.7679)" class="st1 st2 st3">r</text> <text transform="matrix(1 0 0 1 185.5328 295.7679)" class="st1 st2 st3">i</text> <text transform="matrix(1 0 0 1 189.3678 295.7679)" class="st1 st2 st3">g</text> <text transform="matrix(1 0 0 1 196.8428 295.7679)" class="st1 st2 st3">e</text> </g> <g id="Layer-1_112_"> <text transform="matrix(1 0 0 1 125.4101 311.3679)" class="st1 st2 st3">B</text> <text transform="matrix(1 0 0 1 134.2241 311.3679)" class="st1 st2 st3">e</text> <text transform="matrix(1 0 0 1 141.6081 311.3679)" class="st1 st2 st3">r</text> <text transform="matrix(1 0 0 1 147.7831 311.3679)" class="st1 st2 st3">u</text> <text transform="matrix(1 0 0 1 155.4921 311.3679)" class="st1 st2 st3">f</text> <text transform="matrix(1 0 0 1 160.0031 311.3679)" class="st1 st2 st3">s</text> <text transform="matrix(1 0 0 1 166.7761 311.3679)" class="st1 st2 st3">k</text> <text transform="matrix(1 0 0 1 173.7831 311.3679)" class="st1 st2 st3">o</text> <text transform="matrix(1 0 0 1 181.1021 311.3679)" class="st1 st2 st3">l</text> <text transform="matrix(1 0 0 1 185.5871 311.3679)" class="st1 st2 st3">l</text> <text transform="matrix(1 0 0 1 189.9421 311.3679)" class="st1 st2 st3">e</text> <text transform="matrix(1 0 0 1 197.3261 311.3679)" class="st1 st2 st3">g</text> <text transform="matrix(1 0 0 1 204.8011 311.3679)" class="st1 st2 st3">s</text> </g> <g id="Layer-1_113_"> <text transform="matrix(1 0 0 1 108.0487 326.9679)" class="st6 st2 st3">2</text> <text transform="matrix(1 0 0 1 115.3677 326.9679)" class="st6 st2 st3">-</text> <text transform="matrix(1 0 0 1 121.1657 326.9679)" class="st6 st2 st3">3</text> <text transform="matrix(1 0 0 1 128.4847 326.9679)" class="st6 st2 st3"> </text> <text transform="matrix(1 0 0 1 131.7607 326.9679)" class="st6 st2 st3">-</text> <text transform="matrix(1 0 0 1 137.5587 326.9679)" class="st6 st2 st3"> </text> <text transform="matrix(1 0 0 1 140.8347 326.9679)" class="st6 st2 st3">y</text> <text transform="matrix(1 0 0 1 147.3854 326.9679)" class="st6 st2 st3">e</text> <text transform="matrix(1 0 0 1 154.7694 326.9679)" class="st6 st2 st3">a</text> <text transform="matrix(1 0 0 1 161.9714 326.9679)" class="st6 st2 st3">r</text> <text transform="matrix(1 0 0 1 168.1464 326.9679)" class="st6 st2 st3"> </text> <text transform="matrix(1 0 0 1 171.4224 326.9679)" class="st6 st2 st3">a</text> <text transform="matrix(1 0 0 1 178.6244 326.9679)" class="st6 st2 st3">d</text> <text transform="matrix(1 0 0 1 186.1774 326.9679)" class="st6 st2 st3">v</text> <text transform="matrix(1 0 0 1 192.7814 326.9679)" class="st6 st2 st3">a</text> <text transform="matrix(1 0 0 1 199.9834 326.9679)" class="st6 st2 st3">n</text> <text transform="matrix(1 0 0 1 207.6924 326.9679)" class="st6 st2 st3">c</text> <text transform="matrix(1 0 0 1 213.9961 326.9679)" class="st6 st2 st3">e</text> <text transform="matrix(1 0 0 1 221.3801 326.9679)" class="st6 st2 st3">d</text> <text transform="matrix(1 0 0 1 228.6731 326.9679)" class="st6 st2 st3"> </text> </g> <g id="Layer-1_114_"> <text transform="matrix(1 0 0 1 111.9744 342.5678)" class="st6 st2 st3">v</text> <text transform="matrix(1 0 0 1 118.5134 342.5678)" class="st6 st2 st3">o</text> <text transform="matrix(1 0 0 1 125.8324 342.5678)" class="st6 st2 st3">c</text> <text transform="matrix(1 0 0 1 132.2674 342.5678)" class="st6 st2 st3">a</text> <text transform="matrix(1 0 0 1 139.4694 342.5678)" class="st6 st2 st3">t</text> <text transform="matrix(1 0 0 1 144.3054 342.5678)" class="st6 st2 st3">i</text> <text transform="matrix(1 0 0 1 148.1404 342.5678)" class="st6 st2 st3">o</text> <text transform="matrix(1 0 0 1 155.4594 342.5678)" class="st6 st2 st3">n</text> <text transform="matrix(1 0 0 1 163.1684 342.5678)" class="st6 st2 st3">a</text> <text transform="matrix(1 0 0 1 170.3704 342.5678)" class="st6 st2 st3">l</text> <text transform="matrix(1 0 0 1 174.8554 342.5678)" class="st6 st2 st3"> </text> <text transform="matrix(1 0 0 1 178.1314 342.5678)" class="st6 st2 st3">s</text> <text transform="matrix(1 0 0 1 184.9044 342.5678)" class="st6 st2 st3">c</text> <text transform="matrix(1 0 0 1 191.4044 342.5678)" class="st6 st2 st3">h</text> <text transform="matrix(1 0 0 1 199.1134 342.5678)" class="st6 st2 st3">o</text> <text transform="matrix(1 0 0 1 206.4324 342.5678)" class="st6 st2 st3">o</text> <text transform="matrix(1 0 0 1 213.7514 342.5678)" class="st6 st2 st3">l</text> <text transform="matrix(1 0 0 1 218.2364 342.5678)" class="st6 st2 st3">s</text> </g> <g id="Layer-1_115_"> <text transform="matrix(1 0 0 1 136.1415 411.3701)" class="st1 st2 st3">B</text> <text transform="matrix(1 0 0 1 144.9555 411.3701)" class="st1 st2 st3">e</text> <text transform="matrix(1 0 0 1 152.3395 411.3701)" class="st1 st2 st3">r</text> <text transform="matrix(1 0 0 1 158.5145 411.3701)" class="st1 st2 st3">u</text> <text transform="matrix(1 0 0 1 166.2235 411.3701)" class="st1 st2 st3">f</text> <text transform="matrix(1 0 0 1 170.9295 411.3701)" class="st1 st2 st3">l</text> <text transform="matrix(1 0 0 1 175.4145 411.3701)" class="st1 st2 st3">i</text> <text transform="matrix(1 0 0 1 179.2495 411.3701)" class="st1 st2 st3">c</text> <text transform="matrix(1 0 0 1 185.7495 411.3701)" class="st1 st2 st3">h</text> <text transform="matrix(1 0 0 1 193.4585 411.3701)" class="st1 st2 st3">e</text> <text transform="matrix(1 0 0 1 200.5825 411.3701)" class="st1 st2 st3"> </text> </g> <g id="Layer-1_116_"> <text transform="matrix(1 0 0 1 134.6725 426.9701)" class="st1 st2 st3">G</text> <text transform="matrix(1 0 0 1 143.3695 426.9701)" class="st1 st2 st3">y</text> <text transform="matrix(1 0 0 1 150.0515 426.9701)" class="st1 st2 st3">m</text> <text transform="matrix(1 0 0 1 161.6995 426.9701)" class="st1 st2 st3">n</text> <text transform="matrix(1 0 0 1 169.4085 426.9701)" class="st1 st2 st3">a</text> <text transform="matrix(1 0 0 1 176.6105 426.9701)" class="st1 st2 st3">s</text> <text transform="matrix(1 0 0 1 183.3835 426.9701)" class="st1 st2 st3">i</text> <text transform="matrix(1 0 0 1 187.2185 426.9701)" class="st1 st2 st3">e</text> <text transform="matrix(1 0 0 1 194.6025 426.9701)" class="st1 st2 st3">n</text> </g> <g id="Layer-1_117_"> <text transform="matrix(1 0 0 1 103.4856 442.5701)" class="st6 st2 st3">V</text> <text transform="matrix(1 0 0 1 110.7786 442.5701)" class="st6 st2 st3">o</text> <text transform="matrix(1 0 0 1 118.0976 442.5701)" class="st6 st2 st3">c</text> <text transform="matrix(1 0 0 1 124.5326 442.5701)" class="st6 st2 st3">a</text> <text transform="matrix(1 0 0 1 131.7346 442.5701)" class="st6 st2 st3">t</text> <text transform="matrix(1 0 0 1 136.5706 442.5701)" class="st6 st2 st3">i</text> <text transform="matrix(1 0 0 1 140.4056 442.5701)" class="st6 st2 st3">o</text> <text transform="matrix(1 0 0 1 147.7246 442.5701)" class="st6 st2 st3">n</text> <text transform="matrix(1 0 0 1 155.4336 442.5701)" class="st6 st2 st3">a</text> <text transform="matrix(1 0 0 1 162.6356 442.5701)" class="st6 st2 st3">l</text> <text transform="matrix(1 0 0 1 167.1206 442.5701)" class="st6 st2 st3"> </text> <text transform="matrix(1 0 0 1 170.3966 442.5701)" class="st6 st2 st3">s</text> <text transform="matrix(1 0 0 1 177.1696 442.5701)" class="st6 st2 st3">e</text> <text transform="matrix(1 0 0 1 184.5536 442.5701)" class="st6 st2 st3">c</text> <text transform="matrix(1 0 0 1 190.8586 442.5701)" class="st6 st2 st3">o</text> <text transform="matrix(1 0 0 1 198.1776 442.5701)" class="st6 st2 st3">n</text> <text transform="matrix(1 0 0 1 205.8866 442.5701)" class="st6 st2 st3">d</text> <text transform="matrix(1 0 0 1 213.4396 442.5701)" class="st6 st2 st3">a</text> <text transform="matrix(1 0 0 1 220.6416 442.5701)" class="st6 st2 st3">r</text> <text transform="matrix(1 0 0 1 226.8166 442.5701)" class="st6 st2 st3">y</text> <text transform="matrix(1 0 0 1 233.2386 442.5701)" class="st6 st2 st3"> </text> </g> <g id="Layer-1_118_"> <text transform="matrix(1 0 0 1 145.0527 458.17)" class="st6 st2 st3">s</text> <text transform="matrix(1 0 0 1 151.8257 458.17)" class="st6 st2 st3">c</text> <text transform="matrix(1 0 0 1 158.3257 458.17)" class="st6 st2 st3">h</text> <text transform="matrix(1 0 0 1 166.0347 458.17)" class="st6 st2 st3">o</text> <text transform="matrix(1 0 0 1 173.3537 458.17)" class="st6 st2 st3">o</text> <text transform="matrix(1 0 0 1 180.6727 458.17)" class="st6 st2 st3">l</text> <text transform="matrix(1 0 0 1 185.1577 458.17)" class="st6 st2 st3">s</text> </g> <g id="Layer-1_119_"> <text transform="matrix(1 0 0 1 151.1692 513.6523)" class="st1 st2 st3">(</text> <text transform="matrix(1 0 0 1 155.7972 513.6523)" class="st1 st2 st3">B</text> <text transform="matrix(1 0 0 1 164.6112 513.6523)" class="st1 st2 st3">O</text> <text transform="matrix(1 0 0 1 173.2432 513.6523)" class="st1 st2 st3">S</text> <text transform="matrix(1 0 0 1 181.1862 513.6523)" class="st1 st2 st3">)</text> </g> <g id="Layer-1_120_"> <text transform="matrix(1 0 0 1 113.4502 529.2524)" class="st1 st2 st3">B</text> <text transform="matrix(1 0 0 1 122.2642 529.2524)" class="st1 st2 st3">e</text> <text transform="matrix(1 0 0 1 129.6482 529.2524)" class="st1 st2 st3">r</text> <text transform="matrix(1 0 0 1 135.8232 529.2524)" class="st1 st2 st3">u</text> <text transform="matrix(1 0 0 1 143.5322 529.2524)" class="st1 st2 st3">f</text> <text transform="matrix(1 0 0 1 148.0432 529.2524)" class="st1 st2 st3">s</text> <text transform="matrix(1 0 0 1 154.8162 529.2524)" class="st1 st2 st3">o</text> <text transform="matrix(1 0 0 1 162.1352 529.2524)" class="st1 st2 st3">b</text> <text transform="matrix(1 0 0 1 169.6752 529.2524)" class="st1 st2 st3">e</text> <text transform="matrix(1 0 0 1 177.0592 529.2524)" class="st1 st2 st3">r</text> <text transform="matrix(1 0 0 1 183.1042 529.2524)" class="st1 st2 st3">s</text> <text transform="matrix(1 0 0 1 189.8772 529.2524)" class="st1 st2 st3">c</text> <text transform="matrix(1 0 0 1 196.3772 529.2524)" class="st1 st2 st3">h</text> <text transform="matrix(1 0 0 1 204.0862 529.2524)" class="st1 st2 st3">u</text> <text transform="matrix(1 0 0 1 211.7952 529.2524)" class="st1 st2 st3">l</text> <text transform="matrix(1 0 0 1 216.1502 529.2524)" class="st1 st2 st3">e</text> </g> <g id="Layer-1_121_"> <text transform="matrix(1 0 0 1 107.327 544.8524)" class="st6 st2 st3">V</text> <text transform="matrix(1 0 0 1 114.62 544.8524)" class="st6 st2 st3">o</text> <text transform="matrix(1 0 0 1 121.939 544.8524)" class="st6 st2 st3">c</text> <text transform="matrix(1 0 0 1 128.374 544.8524)" class="st6 st2 st3">a</text> <text transform="matrix(1 0 0 1 135.576 544.8524)" class="st6 st2 st3">t</text> <text transform="matrix(1 0 0 1 140.412 544.8524)" class="st6 st2 st3">i</text> <text transform="matrix(1 0 0 1 144.247 544.8524)" class="st6 st2 st3">o</text> <text transform="matrix(1 0 0 1 151.566 544.8524)" class="st6 st2 st3">n</text> <text transform="matrix(1 0 0 1 159.275 544.8524)" class="st6 st2 st3">a</text> <text transform="matrix(1 0 0 1 166.477 544.8524)" class="st6 st2 st3">l</text> <text transform="matrix(1 0 0 1 170.962 544.8524)" class="st6 st2 st3"> </text> <text transform="matrix(1 0 0 1 174.238 544.8524)" class="st6 st2 st3">s</text> <text transform="matrix(1 0 0 1 181.011 544.8524)" class="st6 st2 st3">c</text> <text transform="matrix(1 0 0 1 187.511 544.8524)" class="st6 st2 st3">h</text> <text transform="matrix(1 0 0 1 195.22 544.8524)" class="st6 st2 st3">o</text> <text transform="matrix(1 0 0 1 202.539 544.8524)" class="st6 st2 st3">o</text> <text transform="matrix(1 0 0 1 209.858 544.8524)" class="st6 st2 st3">l</text> <text transform="matrix(1 0 0 1 214.343 544.8524)" class="st6 st2 st3"> </text> <text transform="matrix(1 0 0 1 217.619 544.8524)" class="st6 st2 st3">a</text> <text transform="matrix(1 0 0 1 224.821 544.8524)" class="st6 st2 st3">t</text> <text transform="matrix(1 0 0 1 229.3957 544.8524)" class="st6 st2 st3"> </text> </g> <g id="Layer-1_122_"> <text transform="matrix(1 0 0 1 117.1292 560.4523)" class="st6 st2 st3">u</text> <text transform="matrix(1 0 0 1 124.8382 560.4523)" class="st6 st2 st3">p</text> <text transform="matrix(1 0 0 1 132.3782 560.4523)" class="st6 st2 st3">p</text> <text transform="matrix(1 0 0 1 139.9182 560.4523)" class="st6 st2 st3">e</text> <text transform="matrix(1 0 0 1 147.3022 560.4523)" class="st6 st2 st3">r</text> <text transform="matrix(1 0 0 1 153.4772 560.4523)" class="st6 st2 st3"> </text> <text transform="matrix(1 0 0 1 156.7532 560.4523)" class="st6 st2 st3">s</text> <text transform="matrix(1 0 0 1 163.5262 560.4523)" class="st6 st2 st3">e</text> <text transform="matrix(1 0 0 1 170.9102 560.4523)" class="st6 st2 st3">c</text> <text transform="matrix(1 0 0 1 177.2152 560.4523)" class="st6 st2 st3">o</text> <text transform="matrix(1 0 0 1 184.5342 560.4523)" class="st6 st2 st3">n</text> <text transform="matrix(1 0 0 1 192.2432 560.4523)" class="st6 st2 st3">d</text> <text transform="matrix(1 0 0 1 199.7962 560.4523)" class="st6 st2 st3">a</text> <text transform="matrix(1 0 0 1 206.9982 560.4523)" class="st6 st2 st3">r</text> <text transform="matrix(1 0 0 1 213.1732 560.4523)" class="st6 st2 st3">y</text> <text transform="matrix(1 0 0 1 219.5939 560.4523)" class="st6 st2 st3"> </text> </g> <g id="Layer-1_123_"> <text transform="matrix(1 0 0 1 153.4831 576.0524)" class="st6 st2 st3">l</text> <text transform="matrix(1 0 0 1 157.8381 576.0524)" class="st6 st2 st3">e</text> <text transform="matrix(1 0 0 1 165.0921 576.0524)" class="st6 st2 st3">v</text> <text transform="matrix(1 0 0 1 171.6311 576.0524)" class="st6 st2 st3">e</text> <text transform="matrix(1 0 0 1 179.0151 576.0524)" class="st6 st2 st3">l</text> </g> <g id="Layer-1_136_"> <path class="st6" d="M368.4,573.5h-4.7l2.3-2.3L368.4,573.5z"></path> <path class="st6" d="M368.4,568.8h-4.7l2.3-2.3L368.4,568.8z"></path> </g> <g id="Layer-1_137_"> <path class="st6" d="M368.4,563.9h-4.7l2.3-2.3L368.4,563.9z"></path> </g> <g id="Layer-1_138_"> <path class="st6" d="M368.4,558.9h-4.7l2.3-2.3L368.4,558.9z"></path> </g> <g id="Layer-1_139_"> <path class="st6" d="M355.1,519.4h29.4v-45.7h-29.4V519.4z"></path> </g> <g id="Layer-1_140_"> <path class="st4" d="M304.9,540.4h233.9v-21H304.9V540.4z"></path> </g> <g id="Layer-1_141_"> <path class="st5" d="M298.5,540.4h240.3v-21H298.5V540.4z"></path> </g> <g id="Layer-1_142_"> <text transform="matrix(1 0 0 1 324.5128 533.4374)" class="st6 st2 st3">f</text> <text transform="matrix(1 0 0 1 329.0238 533.4374)" class="st6 st2 st3">a</text> <text transform="matrix(1 0 0 1 336.2258 533.4374)" class="st6 st2 st3">c</text> <text transform="matrix(1 0 0 1 342.7258 533.4374)" class="st6 st2 st3">h</text> <text transform="matrix(1 0 0 1 350.4348 533.4374)" class="st6 st2 st3">g</text> <text transform="matrix(1 0 0 1 357.9098 533.4374)" class="st6 st2 st3">e</text> <text transform="matrix(1 0 0 1 365.2938 533.4374)" class="st6 st2 st3">b</text> <text transform="matrix(1 0 0 1 372.8338 533.4374)" class="st6 st2 st3">u</text> <text transform="matrix(1 0 0 1 380.5428 533.4374)" class="st6 st2 st3">n</text> <text transform="matrix(1 0 0 1 388.2519 533.4374)" class="st6 st2 st3">d</text> <text transform="matrix(1 0 0 1 395.8049 533.4374)" class="st6 st2 st3">e</text> <text transform="matrix(1 0 0 1 403.1889 533.4374)" class="st6 st2 st3">n</text> <text transform="matrix(1 0 0 1 410.8979 533.4374)" class="st6 st2 st3">e</text> <text transform="matrix(1 0 0 1 418.2819 533.4374)" class="st6 st2 st3"> </text> <text transform="matrix(1 0 0 1 421.5579 533.4374)" class="st6 st2 st3">H</text> <text transform="matrix(1 0 0 1 430.7229 533.4374)" class="st6 st2 st3">o</text> <text transform="matrix(1 0 0 1 438.0419 533.4374)" class="st6 st2 st3">c</text> <text transform="matrix(1 0 0 1 444.5419 533.4374)" class="st6 st2 st3">h</text> <text transform="matrix(1 0 0 1 452.2509 533.4374)" class="st6 st2 st3">s</text> <text transform="matrix(1 0 0 1 459.0239 533.4374)" class="st6 st2 st3">c</text> <text transform="matrix(1 0 0 1 465.5239 533.4374)" class="st6 st2 st3">h</text> <text transform="matrix(1 0 0 1 473.2329 533.4374)" class="st6 st2 st3">u</text> <text transform="matrix(1 0 0 1 480.942 533.4374)" class="st6 st2 st3">l</text> <text transform="matrix(1 0 0 1 485.4269 533.4374)" class="st6 st2 st3">r</text> <text transform="matrix(1 0 0 1 491.2119 533.4374)" class="st6 st2 st3">e</text> <text transform="matrix(1 0 0 1 498.5959 533.4374)" class="st6 st2 st3">i</text> <text transform="matrix(1 0 0 1 502.4309 533.4374)" class="st6 st2 st3">f</text> <text transform="matrix(1 0 0 1 506.9406 533.4374)" class="st6 st2 st3">e</text> </g> <g id="Layer-1_143_"> <path class="st6" d="M278,483.3h-4.7l2.3-2.3L278,483.3z"></path> </g> <g id="Layer-1_144_"> <path class="st6" d="M278,488h-4.7l2.3-2.3L278,488z"></path> </g> <g id="Layer-1_145_"> <path class="st6" d="M278,478.6h-4.7l2.3-2.3L278,478.6z"></path> </g> <g id="Layer-1_146_"> <path class="st6" d="M278,497.3h-4.7l2.3-2.3L278,497.3z"></path> <path class="st6" d="M278,525.3h-4.7l2.3-2.3L278,525.3z"></path> <path class="st6" d="M278,553.3h-4.7l2.3-2.3L278,553.3z"></path> <path class="st6" d="M278,511.3h-4.7l2.3-2.3L278,511.3z"></path> <path class="st6" d="M278,539.3h-4.7l2.3-2.3L278,539.3z"></path> <path class="st6" d="M278,567.3h-4.7l2.3-2.3L278,567.3z"></path> <path class="st6" d="M278,502h-4.7l2.3-2.3L278,502z"></path> <path class="st6" d="M278,530h-4.7l2.3-2.3L278,530z"></path> <path class="st6" d="M278,557.9h-4.7l2.3-2.3L278,557.9z"></path> <path class="st6" d="M278,516h-4.7l2.3-2.3L278,516z"></path> <path class="st6" d="M278,543.9h-4.7l2.3-2.3L278,543.9z"></path> <path class="st6" d="M278,571.9h-4.7l2.3-2.3L278,571.9z"></path> <path class="st6" d="M278,506.6h-4.7l2.3-2.3L278,506.6z"></path> <path class="st6" d="M278,534.6h-4.7l2.3-2.3L278,534.6z"></path> <path class="st6" d="M278,562.6h-4.7l2.3-2.3L278,562.6z"></path> <path class="st6" d="M278,492.6h-4.7l2.3-2.3L278,492.6z"></path> <path class="st6" d="M278,520.6h-4.7l2.3-2.3L278,520.6z"></path> <path class="st6" d="M278,548.6h-4.7l2.3-2.3L278,548.6z"></path> </g> <g id="Layer-1_147_"> <path class="st6" d="M278,473.7h-4.7l2.3-2.3L278,473.7z"></path> </g> </svg> 