<?xml version="1.0" encoding="utf-8"?>
<!-- Generator: Adobe Illustrator 26.2.1, SVG Export Plug-In . SVG Version: 6.00 Build 0)  -->
<svg version="1.1" id="Ebene_1" xmlns="http://www.w3.org/2000/svg" xmlns:xlink="http://www.w3.org/1999/xlink" x="0px" y="0px"
	 viewBox="0 0 512 202.25" style="enable-background:new 0 0 512 202.25;" xml:space="preserve">
<style type="text/css">
	.st0{fill:#6EC3BF;}
	.st1{fill:#A0D5D2;}
	.st2{fill:#87CCC8;}
	.st3{fill:#FFFFFF;}
	.st4{clip-path:url(#SVGID_00000132058717571557315030000011068907522347028631_);fill:#2B2961;}
	.st5{fill:#897DA2;}
	.st6{fill:#2B2961;}
	.st7{clip-path:url(#SVGID_00000149373864842337955580000000995501618426066867_);fill:#FFFFFF;}
	.st8{clip-path:url(#SVGID_00000149373864842337955580000000995501618426066867_);fill:#2B2961;}
	.st9{clip-path:url(#SVGID_00000008833592830992732070000013872587263459743399_);fill:#FFFFFF;}
	.st10{clip-path:url(#SVGID_00000008833592830992732070000013872587263459743399_);fill:#6EC3BF;}
	.st11{fill:#9D9D9C;}
	.st12{fill:#D0D0D0;}
	.st13{clip-path:url(#SVGID_00000047748806674416027450000018413453055415671965_);fill:#FFFFFF;}
	.st14{clip-path:url(#SVGID_00000086687959338750446950000005744826286980843925_);fill:#2B2961;}
	.st15{clip-path:url(#SVGID_00000086687959338750446950000005744826286980843925_);fill:#FFFFFF;}
	.st16{fill:#97D1CE;}
	.st17{clip-path:url(#SVGID_00000008836850644532705280000018224711869517766565_);fill:#2B2961;}
	.st18{clip-path:url(#SVGID_00000084495469648210551290000018079806126817273739_);fill:#2B2961;}
	.st19{clip-path:url(#SVGID_00000154384242311419231240000010498406081863143574_);fill:#FFFFFF;}
	.st20{clip-path:url(#SVGID_00000154384242311419231240000010498406081863143574_);fill:#2B2961;}
	.st21{clip-path:url(#SVGID_00000041979872518592754170000002763677474019458990_);fill:#2B2961;}
	.st22{clip-path:url(#SVGID_00000063616860157795462950000011808571665409973936_);fill:#2B2961;}
	.st23{clip-path:url(#SVGID_00000063616860157795462950000011808571665409973936_);fill:#FFFFFF;}
	.st24{clip-path:url(#SVGID_00000052101055388517914840000005665842210090831770_);fill:#FFFFFF;}
	.st25{clip-path:url(#SVGID_00000163053765506465078920000011107488521608507324_);fill:#6EC3BF;}
	.st26{clip-path:url(#SVGID_00000172420071458051818760000000155864465479859854_);fill:#2B2961;}
	.st27{clip-path:url(#SVGID_00000172420071458051818760000000155864465479859854_);fill:#1D1D1B;}
	.st28{clip-path:url(#SVGID_00000172420071458051818760000000155864465479859854_);fill:#FFFFFF;}
	.st29{clip-path:url(#SVGID_00000153676589227777593610000006345086901553583019_);fill:#2B2961;}
	.st30{clip-path:url(#SVGID_00000008118447705523093190000013914710166060508340_);fill:#2B2961;}
	.st31{clip-path:url(#SVGID_00000008118447705523093190000013914710166060508340_);fill:#FFFFFF;}
	.st32{clip-path:url(#SVGID_00000127018352039707807550000000342657277161575060_);fill:#2B2961;}
	.st33{clip-path:url(#SVGID_00000178917998794037777380000000141231291198974129_);fill:#2B2961;}
	.st34{clip-path:url(#SVGID_00000178917998794037777380000000141231291198974129_);fill:#6EC3BF;}
	.st35{clip-path:url(#SVGID_00000057828551550624295380000002248645760940451249_);fill:#2B2961;}
	.st36{clip-path:url(#SVGID_00000139287158086575262800000011182436809247883407_);fill:#2B2961;}
	.st37{clip-path:url(#SVGID_00000052064310287963945020000002436702148896345472_);fill:#2B2961;}
	.st38{clip-path:url(#SVGID_00000158023968861779909380000003389742934588450489_);fill:#2B2961;}
	.st39{clip-path:url(#SVGID_00000107589845570340424610000004559318382081012869_);fill:#6EC3BF;}
	.st40{clip-path:url(#SVGID_00000151539462363070767340000010596282558761431719_);fill:#6EC3BF;}
	.st41{clip-path:url(#SVGID_00000083776811857893161900000012428635842081185936_);fill:#6EC3BF;}
	.st42{clip-path:url(#SVGID_00000129924320585852670050000008879237313614196131_);fill:#6EC3BF;}
	.st43{clip-path:url(#SVGID_00000084510719343829831340000018201842120421217702_);fill:#2B2961;}
	.st44{clip-path:url(#SVGID_00000173840846153531752610000009485839616527706254_);fill:#2B2961;}
	.st45{clip-path:url(#SVGID_00000036231925593342611600000000653160800193467068_);fill:#2B2961;}
	.st46{clip-path:url(#SVGID_00000026138950031246665310000012594866583026979213_);fill:#2B2961;}
	.st47{clip-path:url(#SVGID_00000026138950031246665310000012594866583026979213_);fill:#FFFFFF;}
	.st48{clip-path:url(#SVGID_00000026132264482806941920000011468994062173943192_);fill:#FFFFFF;}
	.st49{clip-path:url(#SVGID_00000137834920674301848470000004898992823292734111_);fill:#2B2961;}
	.st50{clip-path:url(#SVGID_00000170238318999172966860000011437036037598298021_);fill:#2B2961;}
	.st51{clip-path:url(#SVGID_00000170238318999172966860000011437036037598298021_);fill:#FFFFFF;}
	.st52{clip-path:url(#SVGID_00000070806214302829423790000018156224071780210621_);fill:#2B2961;}
	.st53{clip-path:url(#SVGID_00000070806214302829423790000018156224071780210621_);fill:#2C265F;}
	.st54{clip-path:url(#SVGID_00000181775998476538363920000005440539032968190081_);fill:#FFFFFF;}
	.st55{clip-path:url(#SVGID_00000036942780170369250270000003644070174144528567_);fill:#2B2961;}
	.st56{clip-path:url(#SVGID_00000153702412648582849080000017503455633702802587_);fill:#FFFFFF;}
	.st57{clip-path:url(#SVGID_00000063594671183962066230000013493075648567713433_);fill:#2B2961;}
	.st58{clip-path:url(#SVGID_00000016761127615667945990000011660234616531881893_);fill:#FFFFFF;}
	.st59{clip-path:url(#SVGID_00000054980703806983558220000013835061182459418047_);fill:#2B2961;}
	.st60{clip-path:url(#SVGID_00000054980703806983558220000013835061182459418047_);fill:#FFFFFF;}
	.st61{clip-path:url(#SVGID_00000149378434275002500570000013594425992224885950_);fill:#2B2961;}
	.st62{clip-path:url(#SVGID_00000167394794677413382280000004313245192013719183_);fill:#FFFFFF;}
	.st63{clip-path:url(#SVGID_00000130649422093124224100000018099605758769559941_);fill:#2B2961;}
	.st64{clip-path:url(#SVGID_00000087388527240346947720000016753202650747981758_);fill:#FFFFFF;}
	.st65{clip-path:url(#SVGID_00000087388527240346947720000016753202650747981758_);fill:#2B2961;}
	.st66{clip-path:url(#SVGID_00000154399062206545351360000000675220069811961521_);fill:#2B2961;}
	.st67{clip-path:url(#SVGID_00000154399062206545351360000000675220069811961521_);fill:#6EC3BF;}
	.st68{clip-path:url(#SVGID_00000154399062206545351360000000675220069811961521_);fill:#FFFFFF;}
	.st69{clip-path:url(#SVGID_00000160909933992119582120000014062388509879407018_);fill:#2B2961;}
	.st70{clip-path:url(#SVGID_00000030475167884369796430000006716886636162858923_);fill:#2B2961;}
	.st71{clip-path:url(#SVGID_00000090278563054383205220000012100477981606538385_);fill:#2B2961;}
	.st72{clip-path:url(#SVGID_00000183930787733867452970000004215170969838269083_);fill:#2B2961;}
	.st73{clip-path:url(#SVGID_00000173844579610127463670000001615296537781127863_);fill:#2B2961;}
	.st74{clip-path:url(#SVGID_00000125578203766567485790000001536290035512126348_);fill:#FFFFFF;}
	.st75{clip-path:url(#SVGID_00000125578203766567485790000001536290035512126348_);fill:#6EC3BF;}
	.st76{clip-path:url(#SVGID_00000083781505106031138870000009909759534290145153_);fill:#2B2961;}
	.st77{clip-path:url(#SVGID_00000005235744990346786980000002575165642090841010_);fill:#2B2961;}
	.st78{clip-path:url(#SVGID_00000005235744990346786980000002575165642090841010_);fill:#FFFFFF;}
	.st79{clip-path:url(#SVGID_00000043439812301240215480000014093863495941125561_);fill:#2B2961;}
	.st80{clip-path:url(#SVGID_00000004529876940302221480000008507440423361447047_);fill:#FFFFFF;}
	.st81{clip-path:url(#SVGID_00000170274435269502669780000016785228805709798055_);fill:#2B2961;}
	.st82{clip-path:url(#SVGID_00000035511995803473763310000006355878775816707737_);fill:#2B2961;}
	.st83{clip-path:url(#SVGID_00000170976059638677194690000004793041195755110326_);fill:#2B2961;}
	.st84{clip-path:url(#SVGID_00000169555221264445898410000009353032820174485890_);fill:#FFFFFF;}
	.st85{clip-path:url(#SVGID_00000084520295116362585650000001565054883002933423_);fill:#FFFFFF;}
	.st86{clip-path:url(#SVGID_00000036233142269250283660000012372820410866448036_);fill:#2B2961;}
	.st87{clip-path:url(#SVGID_00000035494009969230432520000006221044442371090877_);fill:#2B2961;}
	.st88{clip-path:url(#SVGID_00000035494009969230432520000006221044442371090877_);fill:#FFFFFF;}
	.st89{clip-path:url(#SVGID_00000064319694470607877210000011110652986192347289_);fill:#2B2961;}
	.st90{clip-path:url(#SVGID_00000122712607140336228830000010408692591397101234_);fill:#FFFFFF;}
	.st91{clip-path:url(#SVGID_00000173145061468793048480000008960273121120843188_);fill:#6EC3BF;}
	.st92{clip-path:url(#SVGID_00000173145061468793048480000008960273121120843188_);fill:#2B2961;}
	.st93{clip-path:url(#SVGID_00000126284223432478731180000018317876681659691702_);fill:#6EC3BF;}
	.st94{clip-path:url(#SVGID_00000028322610127919853390000009868908266125195648_);fill:#2B2961;}
	.st95{clip-path:url(#SVGID_00000016039365917227793150000010791757785217062556_);fill:#2B2961;}
	.st96{clip-path:url(#SVGID_00000039121389052993951160000006701129556166926005_);fill:#2B2961;}
	.st97{clip-path:url(#SVGID_00000036967816545779280780000006654990870835250319_);fill:#2B2961;}
	.st98{clip-path:url(#SVGID_00000128472446361427309940000004976861875081345435_);fill:#2B2961;}
	.st99{clip-path:url(#SVGID_00000128472446361427309940000004976861875081345435_);fill:#6EC3BF;}
	.st100{clip-path:url(#SVGID_00000044858538994163940940000010309422395813536899_);fill:#2B2961;}
	.st101{clip-path:url(#SVGID_00000005964429416559785730000012090690149155880368_);fill:#2B2961;}
	.st102{clip-path:url(#SVGID_00000005964429416559785730000012090690149155880368_);fill:#6EC3BF;}
	.st103{clip-path:url(#SVGID_00000174571964873139306550000000665708558571680171_);fill:#2B2961;}
	.st104{clip-path:url(#SVGID_00000126303365323539918990000001350585480164056455_);fill:#FFFFFF;}
	.st105{clip-path:url(#SVGID_00000126303365323539918990000001350585480164056455_);fill:#2B2961;}
	.st106{clip-path:url(#SVGID_00000084504862895896051330000010740340898817609138_);fill:#6EC3BF;}
	.st107{clip-path:url(#SVGID_00000181766791692269662350000010695475877975817095_);fill:#2B2961;}
	.st108{clip-path:url(#SVGID_00000075883121746173168660000007440236408302470308_);fill:#2B2961;}
	.st109{clip-path:url(#SVGID_00000075883121746173168660000007440236408302470308_);fill:#FFFFFF;}
	.st110{clip-path:url(#SVGID_00000063598169150814260180000017423488827115553210_);fill:#6EC3BF;}
	.st111{clip-path:url(#SVGID_00000021830217457249450650000017078842036788401024_);fill:#2B2961;}
	.st112{clip-path:url(#SVGID_00000036936654622601643160000016529709463106556308_);fill:#2B2961;}
	.st113{clip-path:url(#SVGID_00000036936654622601643160000016529709463106556308_);fill:#6EC3BF;}
	.st114{clip-path:url(#SVGID_00000029027630394489710860000002541016673112439726_);fill:#2B2961;}
	.st115{clip-path:url(#SVGID_00000181071647096035198920000001871424754329183881_);fill:#6EC3BF;}
	.st116{clip-path:url(#SVGID_00000181071647096035198920000001871424754329183881_);fill:#2B2961;}
	.st117{clip-path:url(#SVGID_00000067928356790547591240000010006000837666678438_);fill:#2B2961;}
	.st118{clip-path:url(#SVGID_00000168810194978810572080000017809582393050656143_);fill:#FFFFFF;}
	.st119{clip-path:url(#SVGID_00000168810194978810572080000017809582393050656143_);}
	.st120{clip-path:url(#SVGID_00000018228549239983389540000000750778087400197768_);fill:#2B2961;}
	.st121{clip-path:url(#SVGID_00000168810194978810572080000017809582393050656143_);fill:#6EC3BF;}
	.st122{clip-path:url(#SVGID_00000028302505070871911850000013280404581124097724_);fill:#2B2961;}
	.st123{clip-path:url(#SVGID_00000168810194978810572080000017809582393050656143_);fill:#2B2961;}
	.st124{clip-path:url(#SVGID_00000117646330596468292740000012829057649781053825_);fill:#2B2961;}
	.st125{clip-path:url(#SVGID_00000178167079530625509780000013936075442328860347_);fill:#2B2961;}
	.st126{clip-path:url(#SVGID_00000178176765650870057670000014076670193736311955_);}
	.st127{clip-path:url(#SVGID_00000150821860178674336660000012857314563148987567_);}
	.st128{clip-path:url(#SVGID_00000087391989038175117540000002897169677771804591_);fill:#FFFFFF;}
	.st129{clip-path:url(#SVGID_00000080170441084197287870000004418627810119316882_);fill:#2B2961;}
	.st130{clip-path:url(#SVGID_00000181787759981273715290000017712537267236290229_);fill:#2B2961;}
	.st131{clip-path:url(#SVGID_00000181787759981273715290000017712537267236290229_);fill:#6EC3BF;}
	.st132{clip-path:url(#SVGID_00000181787759981273715290000017712537267236290229_);fill:#FFFFFF;}
	.st133{clip-path:url(#SVGID_00000150799357274352241350000014960176666813144464_);fill:#2B2961;}
	.st134{clip-path:url(#SVGID_00000150799357274352241350000014960176666813144464_);fill:#6EC3BF;}
	.st135{clip-path:url(#SVGID_00000117650676550391082920000006525450632607092408_);fill:#2B2961;}
	.st136{clip-path:url(#SVGID_00000034776977650177396610000010450487716092423333_);fill:#6EC3BF;}
	.st137{clip-path:url(#SVGID_00000034776977650177396610000010450487716092423333_);fill:#FFFFFF;}
	.st138{clip-path:url(#SVGID_00000010279043219830698270000012666719789214388611_);fill:#2B2961;}
	.st139{clip-path:url(#SVGID_00000010279043219830698270000012666719789214388611_);fill:#6EC3BF;}
	.st140{clip-path:url(#SVGID_00000180338659761636720150000002698072622154283158_);fill:#2B2961;}
	.st141{clip-path:url(#SVGID_00000113345296970347340900000005081206130355001474_);fill:#2B2961;}
	.st142{clip-path:url(#SVGID_00000113345296970347340900000005081206130355001474_);fill:#FFFFFF;}
	.st143{clip-path:url(#SVGID_00000039826568227610428660000002951555033701510576_);fill:#2B2961;}
	.st144{clip-path:url(#SVGID_00000141440300605024225860000010019394464460199824_);fill:#FFFFFF;}
	.st145{clip-path:url(#SVGID_00000003820226692904513460000015498376976799443621_);fill:#2B2961;}
	.st146{clip-path:url(#SVGID_00000052093898229004219890000002461543836621330816_);fill:#2B2961;}
	.st147{clip-path:url(#SVGID_00000052093898229004219890000002461543836621330816_);fill:#FFFFFF;}
	.st148{clip-path:url(#SVGID_00000126307806572233262810000005870927945049493653_);fill:#2B2961;}
	.st149{clip-path:url(#SVGID_00000176759680163766103950000017900851360161286542_);fill:#2B2961;}
	.st150{clip-path:url(#SVGID_00000176759680163766103950000017900851360161286542_);fill:#FFFFFF;}
	.st151{clip-path:url(#SVGID_00000122704187781868708340000011758620970967589566_);fill:#2B2961;}
	.st152{clip-path:url(#SVGID_00000122704187781868708340000011758620970967589566_);fill:#6EC3BF;}
	.st153{clip-path:url(#SVGID_00000127731527986107956400000006922439486197391530_);fill:#1D1D1B;}
	.st154{clip-path:url(#SVGID_00000127731527986107956400000006922439486197391530_);fill:#2B2961;}
	.st155{clip-path:url(#SVGID_00000127731527986107956400000006922439486197391530_);fill:#FFFFFF;}
	.st156{clip-path:url(#SVGID_00000142147262051407205210000008055423278672739747_);fill:#2B2961;}
	.st157{clip-path:url(#SVGID_00000060720964032224766700000006224859805994187648_);fill:#2B2961;}
	.st158{clip-path:url(#SVGID_00000075878350764082371320000004179641120444673690_);fill:#2B2961;}
	.st159{clip-path:url(#SVGID_00000075878350764082371320000004179641120444673690_);fill:#FFFFFF;}
	.st160{clip-path:url(#SVGID_00000075878350764082371320000004179641120444673690_);fill:#6EC3BF;}
	.st161{clip-path:url(#SVGID_00000021118108737697407570000000241352783978440081_);fill:#2B2961;}
	.st162{clip-path:url(#SVGID_00000056400116084401740340000013534352214881841055_);fill:#2B2961;}
	.st163{clip-path:url(#SVGID_00000139974981380583782590000008028943087393103025_);fill:#2B2961;}
	.st164{clip-path:url(#SVGID_00000042700837453122738230000012978905505017853852_);fill:#2B2961;}
	.st165{clip-path:url(#SVGID_00000042700837453122738230000012978905505017853852_);fill:#FFFFFF;}
	.st166{clip-path:url(#SVGID_00000095319984532982194150000013035757292666699404_);fill:#2B2961;}
	.st167{clip-path:url(#SVGID_00000095319984532982194150000013035757292666699404_);fill:#FFFFFF;}
	.st168{clip-path:url(#SVGID_00000088842068741914991660000016353188681714774957_);fill:#2B2961;}
	.st169{clip-path:url(#SVGID_00000025437331862596641950000000077928296117991576_);fill:#2B2961;}
	.st170{clip-path:url(#SVGID_00000025437331862596641950000000077928296117991576_);fill:#FFFFFF;}
	.st171{clip-path:url(#SVGID_00000010992065624240917630000006629684305367338156_);fill:#2B2961;}
	.st172{clip-path:url(#SVGID_00000049223052140878609550000008735810716630347955_);fill:#FFFFFF;}
	.st173{clip-path:url(#SVGID_00000155133329382473967000000000366501204086134159_);fill:#2B2961;}
	.st174{clip-path:url(#SVGID_00000155133329382473967000000000366501204086134159_);fill:#6EC3BF;}
	.st175{clip-path:url(#SVGID_00000127744404405998600560000002287230276063510447_);fill:#2B2961;}
	.st176{clip-path:url(#SVGID_00000139266441689908720850000004652600967117230746_);fill:#2B2961;}
	.st177{clip-path:url(#SVGID_00000090266542720990483850000009662406601672487607_);fill:#FFFFFF;}
	.st178{clip-path:url(#SVGID_00000134930007411387841510000002795611091475844001_);fill:#6EC3BF;}
	.st179{clip-path:url(#SVGID_00000134930007411387841510000002795611091475844001_);fill:#2B2961;}
	.st180{clip-path:url(#SVGID_00000168084669787509546650000009677070141255995557_);fill:#6EC3BF;}
	.st181{clip-path:url(#SVGID_00000030445646433882019220000000606323124980234932_);fill:#2B2961;}
	.st182{clip-path:url(#SVGID_00000047748682453919032200000016553660913306558098_);fill:#6EC3BF;}
	.st183{clip-path:url(#SVGID_00000047748682453919032200000016553660913306558098_);fill:#2B2961;}
	.st184{clip-path:url(#SVGID_00000052813609292889036780000009871809078477035438_);fill:#2B2961;}
	.st185{clip-path:url(#SVGID_00000104669035621405211370000006359523739087404220_);fill:#2B2961;}
	.st186{clip-path:url(#SVGID_00000139259662781077348090000012121940956916283051_);fill:#2B2961;}
	.st187{clip-path:url(#SVGID_00000127007954688588217010000006294763494014781599_);fill:#2B2961;}
	.st188{clip-path:url(#SVGID_00000063592070239603067930000006552014397705218696_);fill:#2B2961;}
	.st189{clip-path:url(#SVGID_00000144309969618892881710000005694672854577614771_);fill:#6EC3BF;}
	.st190{clip-path:url(#SVGID_00000144309969618892881710000005694672854577614771_);fill:#2B2961;}
	.st191{clip-path:url(#SVGID_00000009581142374839543660000008973628508491326626_);fill:#6EC3BF;}
	.st192{clip-path:url(#SVGID_00000009581142374839543660000008973628508491326626_);fill:#2B2961;}
	.st193{clip-path:url(#SVGID_00000173844145335974408950000003369932823129437827_);fill:#2B2961;}
	.st194{clip-path:url(#SVGID_00000041985228127189013400000001908111276140792715_);fill:#2B2961;}
	.st195{clip-path:url(#SVGID_00000051343388779755725180000011067149548877448579_);fill:#2B2961;}
	.st196{clip-path:url(#SVGID_00000125591190500637198040000005497687356431412379_);fill:#FFFFFF;}
	.st197{clip-path:url(#SVGID_00000044165476623946649630000014049962010616766374_);fill:#2B2961;}
	.st198{clip-path:url(#SVGID_00000131357403281620260440000008980818526118920088_);fill:#2B2961;}
	.st199{clip-path:url(#SVGID_00000131357403281620260440000008980818526118920088_);fill:#6EC3BF;}
	.st200{clip-path:url(#SVGID_00000036218087607863001190000012157195794608188857_);fill:#2B2961;}
	.st201{clip-path:url(#SVGID_00000021093406916122308200000003027317350876877961_);fill:#2B2961;}
	.st202{clip-path:url(#SVGID_00000178171407971591496790000016795660916997248178_);fill:#6EC3BF;}
	.st203{clip-path:url(#SVGID_00000178171407971591496790000016795660916997248178_);fill:#2B2961;}
	.st204{clip-path:url(#SVGID_00000095312930097390968230000013013456678934496160_);fill:#6EC3BF;}
	.st205{clip-path:url(#SVGID_00000095312930097390968230000013013456678934496160_);fill:#2B2961;}
	.st206{clip-path:url(#SVGID_00000008118753186486156970000012926424995137462153_);fill:#2B2961;}
	.st207{clip-path:url(#SVGID_00000048484556556233187430000012846200961756442300_);fill:#2B2961;}
	.st208{clip-path:url(#SVGID_00000048484556556233187430000012846200961756442300_);fill:#6EC3BF;}
	.st209{clip-path:url(#SVGID_00000155855970314902744500000007250973233568227738_);fill:#2B2961;}
	.st210{clip-path:url(#SVGID_00000155855970314902744500000007250973233568227738_);fill:#6EC3BF;}
	.st211{clip-path:url(#SVGID_00000085240556380966613740000015636528478394491814_);fill:#2B2961;}
	.st212{clip-path:url(#SVGID_00000085240556380966613740000015636528478394491814_);fill:#6EC3BF;}
	.st213{clip-path:url(#SVGID_00000057864967455273721720000017291363277633334182_);fill:#2B2961;}
	.st214{clip-path:url(#SVGID_00000147907916956878084370000000983568219874085042_);fill:#6EC3BF;}
	.st215{clip-path:url(#SVGID_00000147907916956878084370000000983568219874085042_);fill:#2B2961;}
	.st216{clip-path:url(#SVGID_00000022560090126042103630000001355176997957621654_);fill:#6EC3BF;}
	.st217{clip-path:url(#SVGID_00000022560090126042103630000001355176997957621654_);fill:#2B2961;}
	.st218{clip-path:url(#SVGID_00000065045884130176529990000004038529075131763365_);fill:#FFFFFF;}
	.st219{clip-path:url(#SVGID_00000065045884130176529990000004038529075131763365_);fill:#2B2961;}
	.st220{clip-path:url(#SVGID_00000167379664390582640560000009456952803178822586_);fill:#FFFFFF;}
	.st221{clip-path:url(#SVGID_00000167379664390582640560000009456952803178822586_);fill:#2B2961;}
	.st222{clip-path:url(#SVGID_00000128444574790971980300000013489708588255177889_);fill:#FFFFFF;}
	.st223{clip-path:url(#SVGID_00000128444574790971980300000013489708588255177889_);fill:#2B2961;}
	.st224{clip-path:url(#SVGID_00000168088724072041826900000006298216413936365497_);fill:#6EC3BF;}
	.st225{clip-path:url(#SVGID_00000168088724072041826900000006298216413936365497_);fill:#2B2961;}
	.st226{clip-path:url(#SVGID_00000025443009180917866550000007088911429358805139_);fill:#2B2961;}
	.st227{clip-path:url(#SVGID_00000025443009180917866550000007088911429358805139_);fill:#6EC3BF;}
	.st228{clip-path:url(#SVGID_00000171688509618519951730000006139653626720615862_);fill:#2B2961;}
	.st229{clip-path:url(#SVGID_00000012457395091122136250000000892857136909010829_);fill:#6EC3BF;}
	.st230{clip-path:url(#SVGID_00000012457395091122136250000000892857136909010829_);fill:#2B2961;}
	.st231{clip-path:url(#SVGID_00000074430924504006000930000010197266029577279382_);fill:#2B2961;}
	.st232{clip-path:url(#SVGID_00000063611685336568500850000015140992053848873376_);fill:#2B2961;}
	.st233{clip-path:url(#SVGID_00000063611685336568500850000015140992053848873376_);fill:#6EC3BF;}
	.st234{clip-path:url(#SVGID_00000100364386061721166990000017035359067750918317_);fill:#2B2961;}
	.st235{clip-path:url(#SVGID_00000040571447653107924500000010694657195608780419_);fill:#FFFFFF;}
	.st236{clip-path:url(#SVGID_00000040571447653107924500000010694657195608780419_);fill:#2B2961;}
	.st237{fill:#2C265F;}
	.st238{clip-path:url(#SVGID_00000147193331334130383400000016467348665080951228_);fill:#2B2961;}
	.st239{clip-path:url(#SVGID_00000147193331334130383400000016467348665080951228_);fill:#6EC3BF;}
	.st240{fill:#61B87A;}
	.st241{clip-path:url(#SVGID_00000169542930822904113510000003975548082586208670_);fill:#2B2961;}
	.st242{clip-path:url(#SVGID_00000054950599459744784000000013653212040056178583_);fill:#2B2961;}
	.st243{clip-path:url(#SVGID_00000178910633225709507160000012415380983720393650_);fill:#2B2961;}
	.st244{clip-path:url(#SVGID_00000130623231692492106050000013069689569509257122_);fill:#2B2961;}
	.st245{clip-path:url(#SVGID_00000130623231692492106050000013069689569509257122_);fill:#61B87A;}
	.st246{clip-path:url(#SVGID_00000130623231692492106050000013069689569509257122_);fill:#FFFFFF;}
	.st247{clip-path:url(#SVGID_00000174571917042745317450000004890084044374725519_);fill:#2B2961;}
	.st248{clip-path:url(#SVGID_00000174571917042745317450000004890084044374725519_);fill:#61B87A;}
	.st249{clip-path:url(#SVGID_00000175293237701621834680000006683850310442792374_);fill:#2B2961;}
	.st250{clip-path:url(#SVGID_00000047037967231369213680000001499054515645470620_);fill:#6EC3BF;}
	.st251{clip-path:url(#SVGID_00000047037967231369213680000001499054515645470620_);fill:#2B2961;}
	.st252{clip-path:url(#SVGID_00000075865084863370036640000002524473000953521796_);fill:#2B2961;}
	.st253{clip-path:url(#SVGID_00000075865084863370036640000002524473000953521796_);fill:#6EC3BF;}
	.st254{clip-path:url(#SVGID_00000067953744069484568130000015119489836696275385_);fill:#2B2961;}
	.st255{clip-path:url(#SVGID_00000067953744069484568130000015119489836696275385_);fill:#6EC3BF;}
</style>
<g>
	<g>
		<defs>
			<rect id="SVGID_00000050661150899526842880000002091144599707767479_" y="9.29" width="512" height="183.67"/>
		</defs>
		<clipPath id="SVGID_00000086680261386211647960000009815240635333261477_">
			<use xlink:href="#SVGID_00000050661150899526842880000002091144599707767479_"  style="overflow:visible;"/>
		</clipPath>
		<path style="clip-path:url(#SVGID_00000086680261386211647960000009815240635333261477_);fill:#6EC3BF;" d="M167.32,11.04
			c0,0-100.46,89.4-108.87,100.67c-8.41,11.27-15.49,25.63-13.27,33.24c2.21,7.69,19.92,14.37,32.3,13.52
			c12.39-0.86,18.59-5.36,18.59-5.36s-9.3-1.86-14.61-10.41c-5.31-8.54-3.1-12.12-3.1-12.12l33.19,12.12c0,0,10.18-6.68,20.8-21.05
			c10.62-14.45,17.26-32.39,17.26-32.39s-5.75,2.64-14.6,0.86c-8.85-1.78-14.16-8.08-14.16-8.08l33.63-8.54
			c0,0,7.08-13.44,10.18-27.42C167.76,32.16,167.32,11.04,167.32,11.04"/>
		<path style="clip-path:url(#SVGID_00000086680261386211647960000009815240635333261477_);fill:#2B2961;" d="M1.49,180.78
			c-0.41,0-0.82-0.17-1.11-0.5c-0.55-0.62-0.49-1.56,0.12-2.11l34.19-30.45c0.62-0.54,1.56-0.49,2.11,0.12
			c0.55,0.62,0.49,1.56-0.12,2.11L2.48,180.4C2.2,180.65,1.85,180.78,1.49,180.78z"/>
		<path style="clip-path:url(#SVGID_00000086680261386211647960000009815240635333261477_);fill:#2B2961;" d="M66.19,160.26
			c-12.57,0-29.36-6.61-31.71-14.66c-2.56-8.85,5.7-24.23,13.55-34.71c8.43-11.25,105.3-97.53,109.42-101.2
			c0.44-0.39,1.05-0.48,1.59-0.25c0.53,0.23,0.88,0.75,0.89,1.34c0.02,0.87,0.41,21.55-2.7,35.54
			c-3.11,14.02-10.05,27.31-10.35,27.87c-0.2,0.37-0.54,0.65-0.95,0.75l-31.16,7.89c2.17,1.88,6.19,4.75,11.55,5.82
			c8.24,1.73,13.67-0.72,13.72-0.74c0.55-0.25,1.19-0.15,1.64,0.26c0.44,0.41,0.6,1.05,0.39,1.61c-0.07,0.18-6.86,18.39-17.51,32.84
			c-10.69,14.5-20.82,21.28-21.24,21.57c-0.4,0.26-0.89,0.32-1.34,0.16l-31.74-11.62c-0.08,1.52,0.32,4.56,3.34,9.44
			c4.89,7.86,13.58,9.63,13.67,9.65c0.58,0.11,1.04,0.56,1.17,1.14c0.13,0.58-0.1,1.18-0.58,1.53c-0.27,0.19-6.71,4.76-19.41,5.72
			C67.7,160.24,66.95,160.26,66.19,160.26z M156.97,14.11c-15.51,13.84-99.03,88.52-106.55,98.56
			c-9.5,12.68-14.88,25.88-13.08,32.09c1.91,6.54,18.69,13.3,30.87,12.44c7.06-0.53,12.06-2.27,14.95-3.58
			c-3.41-1.36-8.57-4.22-12.12-9.91c-5.66-9.15-3.39-13.32-3.11-13.77c0.37-0.6,1.12-0.86,1.78-0.61l32.56,11.93
			c2.32-1.68,10.99-8.36,19.89-20.42c7.91-10.72,13.65-23.59,15.97-29.22c-2.71,0.62-7.01,1.09-12.41-0.04
			c-9.27-1.86-14.81-8.3-15.04-8.57c-0.33-0.39-0.44-0.93-0.28-1.42c0.16-0.49,0.56-0.86,1.05-0.99l33.09-8.38
			c1.37-2.73,7.11-14.54,9.78-26.54C156.64,35.26,156.96,20.59,156.97,14.11z"/>
		<path style="clip-path:url(#SVGID_00000086680261386211647960000009815240635333261477_);fill:#2B2961;" d="M90.57,186.39
			c-3.08,0-5.15-0.23-5.78-0.77c-2.46-2.14-0.95-4.32-0.05-5.62c1.01-1.47,1.82-2.63,0.62-4.7c-2.33-3.47-35.61,2.42-57.63,6.31
			c-5.46,0.97-10.88,1.92-16.02,2.8c-0.8,0.14-1.58-0.41-1.72-1.22c-0.14-0.81,0.41-1.58,1.22-1.72c5.14-0.87,10.54-1.83,16-2.79
			c39.15-6.92,57.9-9.67,60.72-4.88c2.16,3.71,0.35,6.34-0.74,7.9c-0.29,0.41-0.76,1.11-0.76,1.33l0,0c0,0,0.04,0.12,0.3,0.34
			c2.87,1.23,34.13-2.21,61.99-6.1c0.79-0.12,1.57,0.45,1.68,1.27c0.11,0.82-0.45,1.57-1.27,1.68
			C131.03,182.75,102.81,186.39,90.57,186.39z"/>
	</g>
	
		<rect x="314.08" y="42.99" transform="matrix(0.9398 -0.3416 0.3416 0.9398 4.7659 144.5277)" class="st0" width="197.36" height="31.49"/>
	<g>
		<defs>
			<rect id="SVGID_00000105409941694566451450000015684645829039863957_" y="9.29" width="512" height="183.67"/>
		</defs>
		<clipPath id="SVGID_00000091001559128175896030000012716836411652254874_">
			<use xlink:href="#SVGID_00000105409941694566451450000015684645829039863957_"  style="overflow:visible;"/>
		</clipPath>
		<path style="clip-path:url(#SVGID_00000091001559128175896030000012716836411652254874_);fill:#6EC3BF;" d="M314.63,119.32v36.35
			c0,20.04,16.25,36.28,36.3,36.28h124.77c20.05,0,36.3-16.23,36.3-36.28v-36.35H314.63z"/>
	</g>
	<path class="st6" d="M333.89,90.75c-0.19,0-0.39-0.04-0.58-0.12c-0.76-0.32-1.11-1.2-0.79-1.96l5.83-13.75
		c0.33-0.76,1.2-1.11,1.96-0.79s1.11,1.2,0.79,1.96l-5.83,13.75C335.03,90.41,334.47,90.75,333.89,90.75z"/>
	<path class="st6" d="M359.9,81.27c-0.19,0-0.39-0.04-0.58-0.12c-0.76-0.32-1.12-1.2-0.8-1.95l5.81-13.75
		c0.33-0.76,1.19-1.12,1.95-0.79c0.76,0.32,1.12,1.2,0.8,1.95l-5.81,13.75C361.03,80.93,360.48,81.27,359.9,81.27z"/>
	<path class="st6" d="M383.32,72.81c-0.19,0-0.39-0.04-0.58-0.12c-0.76-0.32-1.11-1.2-0.79-1.96l5.83-13.75
		c0.33-0.76,1.2-1.12,1.96-0.79c0.76,0.32,1.11,1.2,0.79,1.96l-5.83,13.75C384.45,72.47,383.89,72.81,383.32,72.81z"/>
	<path class="st6" d="M405.92,64.57c-0.19,0-0.39-0.04-0.58-0.12c-0.76-0.32-1.12-1.2-0.8-1.95l5.81-13.75
		c0.33-0.76,1.19-1.12,1.95-0.79c0.76,0.32,1.12,1.2,0.8,1.95l-5.81,13.75C407.05,64.23,406.5,64.57,405.92,64.57z"/>
	<path class="st6" d="M427.67,56.65c-0.19,0-0.39-0.04-0.58-0.12c-0.76-0.32-1.12-1.2-0.8-1.95l5.81-13.75
		c0.33-0.76,1.19-1.12,1.95-0.79c0.76,0.32,1.12,1.2,0.8,1.95l-5.81,13.75C428.8,56.31,428.25,56.65,427.67,56.65z"/>
	<path class="st6" d="M447.77,49.35c-0.19,0-0.39-0.04-0.58-0.12c-0.76-0.32-1.12-1.2-0.8-1.95l5.81-13.75
		c0.33-0.76,1.19-1.12,1.95-0.79c0.76,0.32,1.12,1.2,0.8,1.95l-5.81,13.75C448.9,49.01,448.35,49.35,447.77,49.35z"/>
	<path class="st6" d="M470.35,41.04c-0.19,0-0.39-0.04-0.59-0.12c-0.76-0.32-1.11-1.2-0.79-1.96l5.83-13.67
		c0.33-0.76,1.18-1.11,1.96-0.79c0.76,0.32,1.11,1.2,0.79,1.96l-5.83,13.67C471.49,40.7,470.93,41.04,470.35,41.04z"/>
	<g>
		<defs>
			<rect id="SVGID_00000043454250344497568930000004913826047892049069_" y="9.29" width="512" height="183.67"/>
		</defs>
		<clipPath id="SVGID_00000071542111189608829380000011180783795162986115_">
			<use xlink:href="#SVGID_00000043454250344497568930000004913826047892049069_"  style="overflow:visible;"/>
		</clipPath>
		<path style="clip-path:url(#SVGID_00000071542111189608829380000011180783795162986115_);fill:#2B2961;" d="M313.43,108.23
			c-0.61,0-1.18-0.38-1.4-0.98l-10.7-29.21c-0.14-0.37-0.12-0.78,0.05-1.14c0.17-0.36,0.47-0.64,0.84-0.77L486.63,9.32
			c0.78-0.28,1.63,0.12,1.91,0.89l10.72,29.29c0.14,0.37,0.12,0.78-0.05,1.14c-0.17,0.36-0.47,0.64-0.84,0.77l-184.43,66.73
			C313.77,108.2,313.6,108.23,313.43,108.23z M304.64,78.42l9.67,26.41l181.62-65.71l-9.69-26.48L304.64,78.42z"/>
		<path style="clip-path:url(#SVGID_00000071542111189608829380000011180783795162986115_);fill:#2B2961;" d="M463.22,192.9H338.46
			c-20.54,0-37.25-16.7-37.25-37.23v-35.81c0-0.82,0.67-1.49,1.49-1.49h196.27c0.83,0,1.49,0.67,1.49,1.49v35.81
			C500.47,176.2,483.76,192.9,463.22,192.9z M304.2,121.35v34.32c0,18.88,15.37,34.24,34.27,34.24h124.76
			c18.9,0,34.27-15.36,34.27-34.24v-34.32H304.2z"/>
	</g>
	<rect x="314.63" y="76.99" class="st0" width="197.37" height="31.46"/>
	<path class="st6" d="M498.98,109.39H302.71c-0.83,0-1.49-0.67-1.49-1.49V77.53c0-0.82,0.67-1.49,1.49-1.49h196.27
		c0.83,0,1.49,0.67,1.49,1.49v30.37C500.47,108.73,499.8,109.39,498.98,109.39z M304.2,106.41h193.29V79.02H304.2V106.41z"/>
	<path class="st6" d="M335.4,100.07c-0.38,0-0.76-0.15-1.05-0.44l-10.48-10.48c-0.58-0.58-0.58-1.53,0-2.11s1.52-0.58,2.11,0
		l10.48,10.48c0.58,0.58,0.58,1.53,0,2.11C336.16,99.92,335.78,100.07,335.4,100.07z"/>
	<path class="st6" d="M363.06,100.07c-0.38,0-0.76-0.15-1.05-0.44l-10.48-10.48c-0.58-0.58-0.58-1.53,0-2.11s1.52-0.58,2.11,0
		l10.48,10.48c0.58,0.58,0.58,1.53,0,2.11C363.82,99.92,363.45,100.07,363.06,100.07z"/>
	<path class="st6" d="M388,100.07c-0.38,0-0.76-0.15-1.05-0.44l-10.48-10.48c-0.58-0.58-0.58-1.53,0-2.11s1.52-0.58,2.11,0
		l10.48,10.48c0.58,0.58,0.58,1.53,0,2.11C388.76,99.92,388.38,100.07,388,100.07z"/>
	<path class="st6" d="M412.04,100.07c-0.38,0-0.76-0.15-1.05-0.44l-10.48-10.48c-0.58-0.58-0.58-1.53,0-2.11s1.52-0.58,2.11,0
		l10.48,10.48c0.58,0.58,0.58,1.53,0,2.11C412.81,99.92,412.43,100.07,412.04,100.07z"/>
	<path class="st6" d="M435.2,100.07c-0.38,0-0.76-0.15-1.05-0.44l-10.48-10.48c-0.58-0.58-0.58-1.53,0-2.11s1.52-0.58,2.11,0
		l10.48,10.48c0.58,0.58,0.58,1.53,0,2.11C435.96,99.92,435.58,100.07,435.2,100.07z"/>
	<path class="st6" d="M456.57,100.07c-0.38,0-0.76-0.15-1.05-0.44l-10.48-10.48c-0.58-0.58-0.58-1.53,0-2.11s1.52-0.58,2.11,0
		l10.48,10.48c0.58,0.58,0.58,1.53,0,2.11C457.33,99.92,456.95,100.07,456.57,100.07z"/>
	<path class="st6" d="M480.62,100.07c-0.38,0-0.76-0.15-1.05-0.44l-10.48-10.48c-0.58-0.58-0.58-1.53,0-2.11s1.52-0.58,2.11,0
		l10.48,10.48c0.58,0.58,0.58,1.53,0,2.11C481.38,99.92,481,100.07,480.62,100.07z"/>
</g>
</svg>
