<?xml version="1.0" encoding="UTF-8"?><svg id="a" xmlns="http://www.w3.org/2000/svg" xmlns:xlink="http://www.w3.org/1999/xlink" viewBox="0 0 473.19 512"><defs><style>.c{fill:none;}.d{fill:#6ec3bf;}.e{fill:#2b2961;}.f{fill:#2c265f;}.g{clip-path:url(#b);}</style><clipPath id="b"><rect class="c" x="5.26" width="462.68" height="512"/></clipPath></defs><g><path class="f" d="M183.63,36.31c-1.61,0-2.73-.44-3.81-1.52l1.59-1.56c.55,.54,1.08,.94,2.22,.94,1.76,0,2.84-1.08,2.84-3.12v-10.54h2.37v10.72c0,3.26-2.33,5.08-5.21,5.08Z"/><path class="f" d="M198.48,36.31c-3.2,0-5.61-2.17-5.61-5.41v-10.39h2.37v10.28c0,2.09,1.28,3.39,3.24,3.39s3.25-1.3,3.25-3.39v-10.28h2.38v10.39c0,3.24-2.44,5.41-5.63,5.41Z"/><path class="f" d="M208.35,36.18v-15.67h2.37v13.53h7.55v2.14h-9.92Z"/><path class="f" d="M221.37,36.18v-15.67h2.37v15.67h-2.37Z"/></g><path class="d" d="M233.83,37.81h-2.16l6.28-18.92h2.15l-6.27,18.92Z"/><g><path class="d" d="M262.74,34.65c-1.08,1.09-2.49,1.67-4.12,1.67s-3.04-.57-4.12-1.67c-1.29-1.32-1.49-2.87-1.54-5.3h-2.82v6.84h-2.37v-15.67h2.37v6.69h2.84c.06-2.37,.24-3.85,1.52-5.15,1.06-1.1,2.49-1.67,4.12-1.67s3.04,.57,4.12,1.67c1.21,1.23,1.52,2.84,1.52,4.9v1.39c0,3.1-.04,4.78-1.52,6.3Zm-.88-6.81c0-2.48-.18-3.56-.91-4.35-.59-.64-1.43-.97-2.33-.97s-1.76,.34-2.33,.97c-.79,.86-.93,2.16-.93,4.55v.88c0,2.55,.2,3.5,.93,4.27,.59,.64,1.41,.99,2.33,.99s1.74-.35,2.33-.99c.86-.9,.91-2.22,.91-4.53v-.81Z"/><path class="d" d="M276.43,36.18v-13.53h-4.51v4.95c0,6.58-1.59,8.58-4.73,8.58h-.99v-2.14h.42c1.74,0,2.99-1.09,2.99-6.78v-6.76h9.2v15.67h-2.37Z"/><path class="d" d="M292.26,36.18v-11.37l-7.02,11.37h-2.15v-15.67h2.37v11.36l7-11.36h2.18v15.67h-2.38Z"/></g><rect class="d" x="9.05" y="44.71" width="62.46" height="24.65"/><rect class="d" x="9.05" y="138.19" width="62.46" height="24.34"/><rect class="d" x="9.05" y="230.55" width="62.46" height="24.87"/><rect class="d" x="9.05" y="416.71" width="62.46" height="25"/><rect class="d" x="9.05" y="324.05" width="62.46" height="24.54"/><rect class="d" x="74.87" y="44.72" width="62.46" height="24.65"/><rect class="d" x="74.87" y="138.19" width="62.46" height="24.34"/><rect class="d" x="74.87" y="230.55" width="62.46" height="24.87"/><rect class="d" x="74.87" y="416.71" width="62.46" height="25"/><rect class="d" x="74.87" y="324.05" width="62.46" height="24.55"/><rect class="d" x="140.69" y="44.72" width="62.46" height="24.65"/><rect class="d" x="140.69" y="138.19" width="62.46" height="24.34"/><rect class="d" x="140.69" y="230.55" width="62.46" height="24.87"/><rect class="d" x="140.69" y="416.71" width="62.46" height="25"/><rect class="d" x="140.69" y="324.05" width="62.46" height="24.55"/><rect class="d" x="206.51" y="44.72" width="62.46" height="24.65"/><rect class="d" x="206.51" y="138.19" width="62.46" height="24.34"/><rect class="d" x="206.51" y="230.55" width="62.46" height="24.87"/><rect class="d" x="206.51" y="416.71" width="62.46" height="25"/><rect class="d" x="206.51" y="324.05" width="62.46" height="24.55"/><rect class="d" x="272.74" y="44.72" width="62.46" height="24.65"/><rect class="d" x="272.74" y="138.19" width="62.46" height="24.34"/><rect class="d" x="272.74" y="230.55" width="62.46" height="24.87"/><rect class="d" x="272.74" y="416.71" width="62.46" height="25"/><rect class="d" x="272.74" y="324.05" width="62.46" height="24.55"/><rect class="d" x="338.15" y="44.72" width="62.46" height="24.65"/><rect class="d" x="338.15" y="138.19" width="62.46" height="24.34"/><rect class="d" x="338.15" y="230.55" width="62.46" height="24.87"/><rect class="d" x="338.15" y="416.71" width="62.46" height="25"/><rect class="d" x="338.15" y="324.05" width="62.46" height="24.55"/><rect class="d" x="404.34" y="44.71" width="62.46" height="24.65"/><rect class="d" x="404.34" y="138.19" width="62.46" height="24.34"/><rect class="d" x="404.34" y="230.55" width="62.46" height="24.87"/><rect class="d" x="404.34" y="416.71" width="62.46" height="25"/><rect class="d" x="404.34" y="324.05" width="62.46" height="24.54"/><g class="g"><path class="e" d="M465.74,512H7.45c-1.21,0-2.19-.98-2.19-2.19V2.2C5.26,.98,6.24,0,7.45,0H465.74c1.21,0,2.19,.98,2.19,2.19V509.8c0,1.21-.98,2.19-2.19,2.19Zm-456.09-4.39H463.54V4.39H9.65V507.61Z"/><rect class="e" x="5.69" y="43.63" width="461.8" height="4.39"/><rect class="e" x="5.69" y="68.95" width="461.8" height="2.93"/><rect class="e" x="5.69" y="161.45" width="461.8" height="2.93"/><rect class="e" x="5.69" y="253.57" width="461.8" height="2.93"/><rect class="e" x="5.69" y="346.33" width="461.8" height="2.93"/><rect class="e" x="5.69" y="439.09" width="461.8" height="2.93"/><rect class="e" x="5.69" y="136.55" width="461.8" height="4.39"/><rect class="e" x="5.69" y="228.85" width="461.8" height="4.39"/><rect class="e" x="5.69" y="322.4" width="461.8" height="4.39"/><rect class="e" x="5.69" y="414.03" width="461.8" height="4.39"/><rect class="e" x="69.54" y="44.65" width="4.39" height="466.24"/><rect class="e" x="134.94" y="44.65" width="4.39" height="466.24"/><rect class="e" x="200.3" y="44.65" width="4.39" height="466.24"/><rect class="e" x="265.65" y="44.65" width="4.39" height="466.24"/><rect class="e" x="331.75" y="44.65" width="4.39" height="466.24"/><rect class="e" x="397.1" y="44.65" width="4.39" height="466.24"/></g></svg>