<?xml version="1.0" encoding="UTF-8"?> <svg xmlns="http://www.w3.org/2000/svg" xmlns:xlink="http://www.w3.org/1999/xlink" version="1.1" viewBox="0 0 56.8 63.5" xml:space="preserve"> <style type="text/css"> .st0{fill:#62C6BF;} .st1{clip-path:url(#l);} .st2{fill:#231F20;} .st3{fill:none;stroke:#2A2C68;stroke-width:0.592;stroke-linejoin:round;} .st4{fill:#FFFFFF;} .st5{fill:none;stroke:#2A2C68;stroke-width:0.6;stroke-linejoin:round;} .st6{clip-path:url(#j);} .st7{clip-path:url(#h);} .st8{fill:none;stroke:#2A2C68;stroke-width:0.9;stroke-linecap:round;stroke-linejoin:round;} .st9{fill:none;stroke:#2A2C68;stroke-width:1.043;stroke-linecap:round;stroke-linejoin:round;} .st10{clip-path:url(#f);} .st11{fill:none;stroke:#2A2C68;stroke-width:0.9;stroke-linejoin:round;} </style> <defs> <rect id="e" x="-112.6" y="-223.9" width="595.3" height="841.9"></rect> </defs> <clipPath> <use xlink:href="#e"></use> </clipPath> <defs> <rect id="d" x="-112.6" y="-223.9" width="595.3" height="841.9"></rect> </defs> <clipPath> <use xlink:href="#d"></use> </clipPath> <defs> <rect id="c" x="-112.6" y="-223.9" width="595.3" height="841.9"></rect> </defs> <clipPath> <use xlink:href="#c"></use> </clipPath> <defs> <rect id="b" x="-112.6" y="-223.9" width="595.3" height="841.9"></rect> </defs> <clipPath> <use xlink:href="#b"></use> </clipPath> <path class="st0" d="M29,58.8c14.7,0,26.7-11.9,26.7-26.7S43.7,5.5,29,5.5S2.3,17.4,2.3,32.1S14.3,58.8,29,58.8"></path> <defs> <path id="a" d="m28.2 3.8c-1.4 0-2.7 0.1-4.1 0.3-14.8 2.3-25 16.1-22.7 30.9 1.5 10 8.3 17.9 17.1 21.3h19.3c4.9-1.8 9-5 12-9v-32.7c-5-6.6-13-10.8-21.6-10.8"></path> </defs> <clipPath id="l"> <use xlink:href="#a"></use> </clipPath> <g class="st1"> <path class="st2" d="m25.1 1.6s0.2-0.1 0.2 0h-0.2"></path> <path class="st2" d="m31.4 0.8h-0.2 0.2"></path> <path class="st3" d="m25.9 1.7c-0.1 0.1-0.3 0.2-0.5 0.1 0 0 0.1-0.1 0.2-0.1 0 0 0.2-0.1 0.3 0-0.1 0.1-0.1-0.1 0 0z"></path> <path class="st2" d="M25,1.8c0,0.1-0.1,0.1-0.2,0.1C24.9,1.8,25,1.8,25,1.8"></path> <path class="st2" d="m29.1 1.2h-0.2 0.2"></path> <path class="st2" d="m22.3 2.3c-0.2 0-0.4 0.1-0.7 0.1 0.3 0 0.5-0.1 0.7-0.1 0 0-0.2 0 0 0"></path> <path class="st3" d="m25.3 1.9c-0.2 0.1-0.5 0.1-0.6 0.1 0.2-0.1 0.4-0.2 0.6-0.1-0.2 0.1-0.1-0.1 0 0z"></path> <path class="st2" d="m24.1 2.2c-0.1 0 0 0 0 0 0.1-0.1 0.4-0.2 0.6-0.1-0.3 0-0.5 0-0.6 0.1-0.1 0 0.1 0 0 0"></path> <path class="st2" d="m23.5 2.2c0 0.1-0.1 0-0.2 0h0.2"></path> <path class="st2" d="m24.9 2.1s-0.1 0.1-0.1 0h0.1"></path> <path class="st2" d="m34.6 0.8v0c0.2 0.1 0.7-0.1 0.8 0.1-0.4 0.1-0.7 0.2-1.1 0.3 0-0.1-0.1-0.2-0.1-0.3 0.2-0.1 0.3-0.1 0.4-0.1 0 0.1-0.1 0 0 0"></path> <path class="st2" d="m18.2 3.5h0.2c-0.1-0.1-0.2 0-0.2 0v0"></path> <path class="st2" d="M-8.6,7.9C-8.7,8-8.8,8-8.9,8C-8.9,7.9-8.7,7.9-8.6,7.9"></path> <path class="st2" d="m-4.6 7.3c0.1 0.1 0 0.1 0 0"></path> <path class="st2" d="m-4.3 7.3c0.1 0 0 0 0 0"></path> <path class="st3" d="m11.7 5.1h0.2c0 0.1 0 0.2 0.1 0.4h-0.2c0-0.2-0.1-0.3-0.1-0.4 0.1 0 0 0.1 0 0z"></path> <path class="st2" d="m7.5 5.7v0.2s-0.1-0.2 0-0.2"></path> <path class="st2" d="m43.7 0.5c0.1 0 0.1 0 0.1 0.1 0 0-0.1 0-0.1-0.1"></path> <path class="st2" d="m39 1.7c0 0.1-0.3 0.1-0.4 0.1 0-0.2 0.3-0.2 0.4-0.1"></path> <path class="st2" d="m45.7 0.8c0 0.1-0.2 0-0.2 0 0-0.1 0.2-0.1 0.2 0"></path> <path class="st2" d="m46.7 0.8c-0.2 0.1-0.6 0-0.9 0.1 0.1-0.1 0-0.1 0.1-0.2 0.3 0 0.6 0.1 0.8 0.1-0.2 0.2-0.2 0 0 0"></path> <path class="st2" d="m-6.7 9.1c-0.3 0-0.6 0.1-0.9 0.1 0-0.1 0-0.1-0.1-0.1 0.1-0.3 1-0.3 1 0-0.1 0.1 0-0.3 0 0"></path> <path class="st2" d="m29.3 3.5c-0.1 0-0.2 0.1-0.3 0.1v-0.1s0.2 0 0.3 0c-0.2 0.1-0.1 0 0 0"></path> <path class="st2" d="m-1.4 8.9s-0.1 0 0 0c-0.1 0 0-0.1 0 0"></path> <path class="st2" d="m9.9 7.1v0 0"></path> <path class="st2" d="m17.2 6.4c-0.1 0 0-0.1 0 0"></path> <path class="st2" d="m-7.9 10.3s-0.1 0-0.1 0.1l0.1-0.1"></path> <path class="st2" d="m24.8 5.5c0 0.2-0.4 0.3-0.5 0.1 0-0.2 0.4-0.1 0.5-0.1"></path> <path class="st2" d="m-7.6 10.4-0.1 0.1c0-0.1 0.1-0.1 0.1-0.1"></path> <path class="st2" d="m-8 10.5c-0.1 0.1-0.2 0.2-0.3 0.2 0.1-0.1 0.2-0.2 0.3-0.2"></path> <path class="st2" d="m-7.3 10.6c0.1 0.1 0 0.1 0 0-0.1 0.1-0.1 0 0 0"></path> <path class="st2" d="m-7.4 10.8c0 0.3-0.3 0.4-0.6 0.4 0.1-0.3 0.3-0.5 0.6-0.4 0 0.2-0.1-0.1 0 0"></path> <path class="st2" d="m15.6 7.3c-0.1 0 0-0.1 0 0"></path> <path class="st2" d="m-7 10.8c0 0.1-0.2 0.1-0.3 0.1 0-0.1 0.2-0.1 0.3-0.1"></path> <path class="st2" d="m-8.7 12.6c0 0.1-0.1 0.1-0.1 0h0.1"></path> <path class="st2" d="M-9,12.7c0,0.1-0.2,0.1-0.2,0H-9"></path> <path class="st2" d="m-7.2 12.7c0.1 0 0.1 0 0 0 0.1 0.1 0 0 0 0"></path> <path class="st2" d="m-5.8 12.8s0 0.1 0.1 0.1c0 0.1-0.1 0.1-0.2 0 0 0 0.1 0 0.1-0.1 0.1 0 0 0.1 0 0"></path> <path class="st2" d="m-6.8 13.4v0c-0.1 0.1 0 0 0 0"></path> <path class="st2" d="m18.8 10.2s-0.1 0 0 0c-0.1 0.1-0.2 0.1-0.2 0s0.1 0 0.2 0c0 0-0.1 0 0 0"></path> <path class="st2" d="m10.5 11.6c0 0.1-0.1 0.2-0.2 0.2v-0.1s0.1-0.1 0.2-0.1c0 0.1-0.1 0 0 0"></path> <path class="st2" d="m10.2 12v0 0.1-0.1 0"></path> <path class="st2" d="m10.6 12.6s0 0.1-0.1 0.1c0 0-0.1 0 0-0.1h0.1s-0.1 0 0 0"></path> <path class="st2" d="m16.8 11.9h-0.1 0.1"></path> <path class="st2" d="m11.1 13.1c-0.1 0 0 0 0 0"></path> <path class="st2" d="m-6.4 17.8c-0.3 0.1-0.5 0-0.7-0.1 0.3-0.1 0.5-0.1 0.7 0.1-0.1 0 0-0.1 0 0"></path> <path class="st2" d="m-7.3 18.8s0 0.1 0.1 0.1c0.2 0.1 0.4 0 0.5 0-0.1 0-0.1 0.2-0.2 0.2s-0.1-0.1-0.1-0.1c-0.2 0.1-0.3 0-0.3-0.2-0.1 0 0 0 0 0"></path> <path class="st2" d="m18.3 16.5c0 0.1-0.1 0-0.1 0.1-0.1-0.1 0-0.1 0.1-0.1"></path> <path class="st2" d="m20.9 17"></path> <path class="st2" d="m14.3 18.3h-0.1c0-0.1 0.1 0 0.1 0"></path> <path class="st2" d="m21.1 17.3"></path> <path class="st2" d="m13.5 18.8v0c-0.1 0 0 0 0 0"></path> <path class="st2" d="m21.5 17.8c0.1 0 0.1 0.1 0 0.1v-0.1"></path> <path class="st2" d="m19.7 18.1c0.1 0 0.1 0.1 0 0 0.1 0.1 0 0.1 0 0v0c0.1 0 0 0.1 0 0"></path> <path class="st2" d="m21.5 18.4s-0.1 0 0 0c-0.1 0 0 0 0 0"></path> <path class="st2" d="m22.4 18.5c0 0.1 0 0.1-0.1 0.2 0-0.1 0-0.2 0.1-0.2"></path> <path class="st2" d="m8.9 23.6s-0.1 0 0 0c-0.1 0-0.1 0 0 0"></path> <path class="st2" d="m30.8 21.4c0.1 0 0.1 0.1 0 0 0.1 0.1 0.1 0 0 0"></path> <path class="st2" d="m34.2 21.4s0.1 0 0 0c0.1 0 0.1 0.1 0.1 0.1h-0.1v-0.1 0"></path> <path class="st2" d="m45.1 20.8c0.1 0 0.1 0.1 0 0 0 0 0.1 0 0 0"></path> <path class="st2" d="m-8.7 30.6c0 0.2-0.3 0.2-0.5 0.2v-0.2h0.5c0 0.2-0.2 0 0 0"></path> <path class="st2" d="m-7.2 31.2c-0.1 0-0.1 0.1-0.1 0.1s0 0 0.1-0.1c-0.1 0 0-0.1 0 0v0"></path> <path class="st2" d="m28.2 26.1s-0.1 0 0 0c-0.1-0.1 0 0 0 0"></path> <path class="st2" d="m-7.2 31.5c0.1 0 0.1 0.1 0 0v0 0"></path> <path class="st2" d="m-7.1 31.8c0.1 0 0.1 0.1 0.1 0.1l-0.1-0.1"></path> <path class="st2" d="m48.7 24.2v0 0"></path> <path class="st2" d="m-7.9 33.4c0 0.1-0.1 0.1 0 0-0.1 0.1-0.1 0.1 0 0"></path> <path class="st2" d="m-6.9 33.4c0.1 0.2 0 0.3-0.2 0.3 0 0 0.1 0 0.1-0.1s0-0.1 0.1-0.2c-0.1 0-0.1 0 0 0 0.1 0.2-0.1 0 0 0"></path> <path class="st2" d="m46.8 25.2v0 0"></path> <path class="st2" d="m49.5 25.3c0.1 0 0.1 0.1 0 0v0"></path> <path class="st2" d="m47.6 26.6v0c0 0.1-0.1 0 0 0"></path> <path class="st2" d="m49.7 26.6c0.1 0 0.1 0 0 0 0.1 0 0 0 0 0"></path> <path class="st2" d="m18 32.5v0.2h-0.1c0-0.1 0-0.2 0.1-0.2 0 0.1-0.1 0 0 0"></path> <path class="st2" d="m17.4 34"></path> <path class="st2" d="m-2.3 37.1c-0.1 0-0.1 0 0 0"></path> <path class="st2" d="m49.7 29.2s0.1 0.1 0 0.2v-0.2"></path> <path class="st2" d="m49.9 29.6c0.1 0.1 0.1 0.2 0.2 0.3-0.1 0-0.3-0.2-0.2-0.3"></path> <path class="st2" d="m29.3 34.3c0.1 0 0.1 0 0 0 0 0 0.1 0.1 0 0 0.1 0.1 0 0.1 0 0 0.1 0 0 0.1 0 0"></path> <path class="st2" d="m29.2 34.7c0 0.1 0.1 0.1 0.1 0.2 0 0-0.1-0.1-0.1-0.2"></path> <path class="st2" d="m-5.4 55.5c0.1 0 0.1 0 0 0 0.1 0 0 0.1 0 0"></path> <path class="st4" d="m4.6 4.3c0.4-0.1 0.7-0.1 1.1-0.2 0.2 0 0.5 0 0.7-0.1 0.1 0 0 0.1 0.1 0h0.9c-0.7 0.4-1.8 0.4-2.5 0.7 0.5-0.1 1-0.3 1.6-0.3 0 0.1-0.4 0.1-0.4 0.2 0 0 1-0.4 1.1-0.3 0 0.2-0.5 0.2-0.5 0.4 0.9-0.3 1.6-0.7 2.5-0.6-0.1 0-0.3 0.1-0.5 0.2-0.2 0.2-0.7 0.1-0.9 0.2 0.1 0 0.3-0.1 0.4 0-0.1 0.1-0.3 0.1-0.5 0.2 0.1 0.1 0.2-0.1 0.3 0-0.1 0.1-0.3 0.1-0.5 0.1-0.1 0 0 0.1 0 0.1-0.1 0.1-0.1 0.2-0.3 0.2-0.1 0.1-0.2 0.3-0.3 0.4 0.2-0.1 0.4-0.2 0.6-0.1-0.1 0-0.2 0-0.3 0.1 1 0.8-0.4-0.4-0.5 0.4 0 0.1 0.1 0 0.1 0 0.1 0.1 0.3 0 0.5 0 0.2-0.1-0.6 0.9-0.3 0.4v0.1h0.1c0.1 0 0 0 0 0.1h0.2s-0.1 0.1-0.2 0.1c0 0-0.1 0 0 0-0.2 0-0.3 0.1-0.5 0.1h0.4c0 0.5-1.1 0-1.1 0.3h0.2c-0.2 0.1-0.4 0-0.4 0.1h0.1s-0.1 0-0.1 0.1c0.2 0.1 0.5 0.3 0.7 0.3v0.1s0.1-0.1 0.2 0c0.1 0.3 0 0.4-0.2 0.3-0.3 0.1-0.5 0.1-0.5-0.2-0.1 0-0.2-0.1-0.3-0.1 0.1 0.1-0.2 0.1-0.2 0.2 0.1 0 0.2-0.1 0.3 0-0.1 0.2-0.4 0.2-0.4 0.3 0.1 0 0 0.1 0 0.1 0.3 0 0.7-0.2 1-0.1-0.3 0.1-0.4 0.2-0.7 0.3 0.1-0.2-1.4 0.6-1.4 0.6-0.2 0.1-0.4 0.1-0.5 0 0.1 0.2-0.8 0.9-1 0.9-0.2 0.1-0.4 0.2-0.7 0.3 0-0.1 0.2-0.2 0.1-0.3-0.2 0.3-0.4 0.4-0.7 0.4 0 0.2-0.1 0.3-0.3 0.3 0.2 0.1 0.2 0.1 0 0.3v0.2c-0.2 0.1-0.3 0.3-0.5 0.4-0.1 0-0.2 0.1-0.2 0-0.1 0 0.1 0 0.1 0.1-0.1 0-0.3 0.5-0.3 0.7-0.1 0.1-0.1 0.1-0.1 0.2 0 0-0.6 0.3-0.6 0v0s-0.1 0-0.1 0c-0.1-0.2-0.2-0.2-0.3-0.1-0.1-0.1-0.2 0.1-0.4 0.1 0-0.1 0.1-0.1 0-0.2-0.1 0-0.1-0.1-0.2-0.1 0-0.1-0.1-0.1-0.1-0.3 0 0-0.1 0-0.1-0.1s0-0.1 0-0.2h-0.1c0-0.1-0.1-0.2 0-0.3 0.1 0 0.2-0.1 0.3-0.2-0.2-0.1-0.3 0-0.4 0.1 0-0.2 0.1-0.4-0.1-0.5l0.1-0.1c-0.2-0.1-0.2-0.2 0-0.3 0.1-0.1 0.2-0.1 0.2-0.1s-0.2 0.1-0.3 0c0-0.2 0.2-0.3 0.3-0.4 0-0.1 0.1-0.1 0.1-0.1 0.2-0.1 0.3-0.1 0.5-0.2 0-0.2 0.1-0.3 0.2-0.4 0 0-0.1 0.1-0.1 0s0.2 0 0.2-0.1c-0.1 0-0.8 0.3-0.9 0.1 0.1 0 1.4-0.5 0.4-0.3 0-0.1 0.2-0.1 0.2-0.2-0.1 0-0.1 0.1-0.2 0v-0.1c-0.2 0.2-0.4 0.2-0.6 0.2l0.3-0.3c0-0.1-0.1-0.1 0-0.1s0.2-0.1 0.2-0.1c0-0.1-0.1 0-0.1-0.1l0.1-0.1c-0.1 0-0.1-0.1-0.1-0.2s-0.1-0.1-0.1-0.1l0.1-0.1c-0.1-0.1-0.2-0.1-0.3-0.1v-0.1c-0.3-0.1-0.8-0.2-1.1 0-0.1 0-0.3 0.1-0.4 0.1-0.1-0.1-0.2 0-0.3 0 0 0.2-0.4 0.1-0.5 0h0.3c-0.3 0-0.5 0.1-0.6 0 0 0 1.2-0.3 1.2-0.4-0.2-0.1-0.4 0.1-0.6 0h-0.8c0.4-0.4 1.7-0.4 2.1-0.7 0-0.1 0.1-0.1 0.1-0.2-0.2 0-0.3 0.1-0.4 0 0.4-0.3 2.8-1.2 3.3-1 0.1 0.1-0.1 0.1-0.1 0.2 0.1 0 0.2-0.1 0.3-0.2 0.1 0 0.3 0 0.3 0.1 0 0 0.2-0.1 0.3-0.1 0-0.1-0.2 0-0.1-0.1 0.4-0.1 0.8-0.1 1.2-0.1-0.1-0.1-0.3 0-0.5-0.1 0.2-0.1 0.5 0 0.6-0.1 0-0.1-0.2 0-0.2-0.1h0.7c0 0.1 0.1 0 0.1 0s-1 0-0.9 0.1c0.1-0.1 3.2-0.9 1.8-0.3 0-0.1-0.2 0-0.2 0 0.3-0.1 0.5-0.1 0.8-0.2s-0.3 0.1 0 0m0.3 4c0 0.1 0.3 0 0.4-0.1-0.2 0-0.3 0-0.4 0.1 0 0 0.1-0.1 0 0m-5.3 4.2s-0.1 0.1 0 0m6.2-8.3c-0.1 0 0 0 0 0m0.2 0m-0.7 0.1c-0.1 0 0.1 0 0 0m-0.5 0.1s-0.1 0 0 0m-1.5 0.3h0.2c-0.1 0-0.2-0.1-0.2 0 0.1 0 0 0 0 0m-3.9 0.8c0.1 0 0 0 0 0m8-0.7c0.1 0 0.1 0 0 0 0.1-0.1-0.1-0.1 0 0m-2.3 2.8s-0.1-0.1-0.2 0c0.1 0 0.2 0.1 0.2 0m0.1 0.1c0.1 0 0 0 0 0m0.2 0c0.1 0-0.1 0 0 0m-6.3 1c-0.1 0.1 0 0.1 0 0m5.9-0.8-0.2 0.2h0.1c0-0.1 0.2-0.1 0.3-0.2-0.1 0-0.2 0.1-0.2 0v0m-5.9 1.5s-0.1 0.1 0 0c-0.1 0.1 0 0.1 0 0m-0.3 0.5c0-0.1-0.2 0-0.3 0h0.3c0.1 0 0.1 0.1 0.1 0s0-0.1-0.1 0c0.1-0.1-0.1-0.1 0 0 0-0.1-0.1-0.1 0 0m-0.1 1.3-0.1-0.1c0 0.1 0.1 0.1 0.1 0.1m2.3-0.3c-0.1 0.1 0 0 0 0m-1.2 1.7"></path> <path class="st3" d="m4.6 4.3c0.4-0.1 0.7-0.1 1.1-0.2 0.2 0 0.5 0 0.7-0.1 0.1 0 0 0.1 0.1 0h0.9c-0.7 0.4-1.8 0.4-2.5 0.7 0.5-0.1 1-0.3 1.6-0.3 0 0.1-0.4 0.1-0.4 0.2 0 0 1-0.4 1.1-0.3 0 0.2-0.5 0.2-0.5 0.4 0.9-0.3 1.6-0.7 2.5-0.6-0.1 0-0.3 0.1-0.5 0.2-0.2 0.2-0.7 0.1-0.9 0.2 0.1 0 0.3-0.1 0.4 0-0.1 0.1-0.3 0.1-0.5 0.2 0.1 0.1 0.2-0.1 0.3 0-0.1 0.1-0.3 0.1-0.5 0.1-0.1 0 0 0.1 0 0.1-0.1 0.1-0.1 0.2-0.3 0.2-0.1 0.1-0.2 0.3-0.3 0.4 0.2-0.1 0.4-0.2 0.6-0.1-0.1 0-0.2 0-0.3 0.1 1 0.8-0.4-0.4-0.5 0.4 0 0.1 0.1 0 0.1 0 0.1 0.1 0.3 0 0.5 0 0.2-0.1-0.6 0.9-0.3 0.4v0.1h0.1c0.1 0 0 0 0 0.1h0.2s-0.1 0.1-0.2 0.1c0 0-0.1 0 0 0-0.2 0-0.3 0.1-0.5 0.1h0.4c0 0.5-1.1 0-1.1 0.3h0.2c-0.2 0.1-0.4 0-0.4 0.1h0.1s-0.1 0-0.1 0.1c0.2 0.1 0.5 0.3 0.7 0.3v0.1s0.1-0.1 0.2 0c0.1 0.3 0 0.4-0.2 0.3-0.3 0.1-0.5 0.1-0.5-0.2-0.1 0-0.2-0.1-0.3-0.1 0.1 0.1-0.2 0.1-0.2 0.2 0.1 0 0.2-0.1 0.3 0-0.1 0.2-0.4 0.2-0.4 0.3 0.1 0 0 0.1 0 0.1 0.3 0 0.7-0.2 1-0.1-0.3 0.1-0.4 0.2-0.7 0.3 0.1-0.2-1.4 0.6-1.4 0.6-0.2 0.1-0.4 0.1-0.5 0 0.1 0.2-0.8 0.9-1 0.9-0.2 0.1-0.4 0.2-0.7 0.3 0-0.1 0.2-0.2 0.1-0.3-0.2 0.3-0.4 0.4-0.7 0.4 0 0.2-0.1 0.3-0.3 0.3 0.2 0.1 0.2 0.1 0 0.3v0.2c-0.2 0.1-0.3 0.3-0.5 0.4-0.1 0-0.2 0.1-0.2 0-0.1 0 0.1 0 0.1 0.1-0.1 0-0.3 0.5-0.3 0.7-0.1 0.1-0.1 0.1-0.1 0.2 0 0-0.6 0.3-0.6 0v0s-0.1 0-0.1 0c-0.1-0.2-0.2-0.2-0.3-0.1-0.1-0.1-0.2 0.1-0.4 0.1 0-0.1 0.1-0.1 0-0.2-0.1 0-0.1-0.1-0.2-0.1 0-0.1-0.1-0.1-0.1-0.3 0 0-0.1 0-0.1-0.1s0-0.1 0-0.2h-0.1c0-0.1-0.1-0.2 0-0.3 0.1 0 0.2-0.1 0.3-0.2-0.2-0.1-0.3 0-0.4 0.1 0-0.2 0.1-0.4-0.1-0.5l0.1-0.1c-0.2-0.1-0.2-0.2 0-0.3 0.1-0.1 0.2-0.1 0.2-0.1s-0.2 0.1-0.3 0c0-0.2 0.2-0.3 0.3-0.4 0-0.1 0.1-0.1 0.1-0.1 0.2-0.1 0.3-0.1 0.5-0.2 0-0.2 0.1-0.3 0.2-0.4 0 0-0.1 0.1-0.1 0s0.2 0 0.2-0.1c-0.1 0-0.8 0.3-0.9 0.1 0.1 0 1.4-0.5 0.4-0.3 0-0.1 0.2-0.1 0.2-0.2-0.1 0-0.1 0.1-0.2 0v-0.1c-0.2 0.2-0.4 0.2-0.6 0.2l0.3-0.3c0-0.1-0.1-0.1 0-0.1s0.2-0.1 0.2-0.1c0-0.1-0.1 0-0.1-0.1l0.1-0.1c-0.1 0-0.1-0.1-0.1-0.2s-0.1-0.1-0.1-0.1l0.1-0.1c-0.1-0.1-0.2-0.1-0.3-0.1v-0.1c-0.3-0.1-0.8-0.2-1.1 0-0.1 0-0.3 0.1-0.4 0.1-0.1-0.1-0.2 0-0.3 0 0 0.2-0.4 0.1-0.5 0h0.3c-0.3 0-0.5 0.1-0.6 0 0 0 1.2-0.3 1.2-0.4-0.2-0.1-0.4 0.1-0.6 0h-0.8c0.4-0.4 1.7-0.4 2.1-0.7 0-0.1 0.1-0.1 0.1-0.2-0.2 0-0.3 0.1-0.4 0 0.4-0.3 2.8-1.2 3.3-1 0.1 0.1-0.1 0.1-0.1 0.2 0.1 0 0.2-0.1 0.3-0.2 0.1 0 0.3 0 0.3 0.1 0 0 0.2-0.1 0.3-0.1 0-0.1-0.2 0-0.1-0.1 0.4-0.1 0.8-0.1 1.2-0.1-0.1-0.1-0.3 0-0.5-0.1 0.2-0.1 0.5 0 0.6-0.1 0-0.1-0.2 0-0.2-0.1h0.7c0 0.1 0.1 0 0.1 0s-1 0-0.9 0.1c0.1-0.1 3.2-0.9 1.8-0.3 0-0.1-0.2 0-0.2 0 0.3-0.1 0.5-0.1 0.8-0.2s-0.3 0.1 0 0zm0.3 4c0 0.1 0.3 0 0.4-0.1-0.2 0-0.3 0-0.4 0.1 0 0 0.1-0.1 0 0zm-5.3 4.2s-0.1 0.1 0 0zm6.2-8.3c-0.1 0 0 0 0 0zm0.2 0zm-0.7 0.1c-0.1 0 0.1 0 0 0zm-0.5 0.1s-0.1 0 0 0zm-1.5 0.3h0.2c-0.1 0-0.2-0.1-0.2 0 0.1 0 0 0 0 0zm-3.9 0.8c0.1 0 0 0 0 0zm8-0.7c0.1 0 0.1 0 0 0 0.1-0.1-0.1-0.1 0 0zm-2.3 2.8s-0.1-0.1-0.2 0c0.1 0 0.2 0.1 0.2 0zm0.1 0.1c0.1 0 0 0 0 0zm0.2 0c0.1 0-0.1 0 0 0zm-6.3 1c-0.1 0.1 0 0.1 0 0zm5.9-0.8-0.2 0.2h0.1c0-0.1 0.2-0.1 0.3-0.2-0.1 0-0.2 0.1-0.2 0v0zm-5.9 1.5s-0.1 0.1 0 0c-0.1 0.1 0 0.1 0 0zm-0.3 0.5c0-0.1-0.2 0-0.3 0h0.3c0.1 0 0.1 0.1 0.1 0s0-0.1-0.1 0c0.1-0.1-0.1-0.1 0 0 0-0.1-0.1-0.1 0 0zm-0.1 1.3-0.1-0.1c0 0.1 0.1 0.1 0.1 0.1zm2.3-0.3c-0.1 0.1 0 0 0 0zm-1.2 1.7z"></path> <path class="st2" d="m-2.4 5.9c0.1 0 0.3-0.1 0.5-0.1-0.6 0.2-2 0.5-2.6 0.9h0.2c0.7-0.7-1.1 0.4-1 0.3 0.2 0 0.4-0.1 0.5-0.1 0 0.1-0.2-0.1-0.3 0 0 0.1 0.2 0 0.2 0.1s-0.1 0-0.2 0.1h0.1c-0.1 0.1-0.2 0.1-0.3 0.1h0.1c-0.1 0.1-0.4 0.1-0.6 0.1v0.1c-0.2 0.1-0.6 0.2-0.8 0.2 0.2 0.1 0.2 0 0.4 0v0.1c0.1 0 0.2-0.1 0.2 0-0.3 0.2-0.6 0.3-0.9 0.4v-0.1h-0.2c-0.1 0.1-0.3 0-0.3 0.1h-0.2c-0.4 0.1-0.8 0.1-1.3 0.1 0 0-0.1 0.1-0.1 0s0.1-0.1 0.2-0.1c0.2-0.1 0.5-0.1 0.7-0.2l-0.1-0.1c0.1-0.1 0.3-0.1 0.4-0.1 0.1 0.2 0.3 0.1 0.5 0.1 0-0.1-0.2 0-0.2-0.1-0.1-0.2 0.6-0.2-0.1-0.1-0.1 0-0.1 0.1-0.2 0-0.1-0.2 1.3-0.4 1.4-0.4-0.1 0-0.4 0.1-0.5 0.1 0.1-0.2 0.1-0.3-0.2-0.3 0.3-0.3 0.6-0.3 1-0.1 0-0.1-0.1 0-0.1-0.1 0.3-0.1 0.6-0.1 0.8-0.2 0.2-0.2 0.4-0.2 0.6-0.2h-0.3s0-0.1-0.1-0.1c-0.2 0.2-0.6 0.2-0.9 0.3 0 0-0.1 0-0.1-0.1-0.1 0.1-0.4 0.2-0.6 0.2 0-0.1 0.1 0 0.1-0.1h-0.1c0.2 0.2-0.9 0.1-0.6 0.1h-0.2s0.1 0 0.1-0.1v-0.1h0.1s-0.2 0-0.3 0.1c0.1-0.1 1.7-0.6 2-0.4 0.2-0.1 0.4-0.2 0.5-0.2l0.1-0.1h0.2c0.2-0.2 0.6 0 0.9-0.1 0 0-0.1 0-0.2-0.1 0.7-0.1 1.4-0.2 2.2-0.3 0 0-0.1 0-0.1 0.1 0.1 0 0.9-0.2 1.2-0.1-0.6 0.2-1 0.3-1.5 0.5v0 0c0.1-0.1 0 0 0 0m-4.3 1.8s-0.1 0 0 0c0 0-0.1 0 0 0m-0.1 0s-0.1 0 0 0m0.5-1.4m-0.7 0.2c-0.1 0 0 0.1 0 0 0.1 0 0.1 0 0 0m4.4-0.6c-0.1 0-0.3 0.1-0.4 0.1 0.2 0 0.3-0.1 0.4-0.1s0.2 0 0 0c0.1 0 0 0 0 0m-4.2 0.7"></path> <path class="st2" d="m23.8 1.9c0.1 0 0.3-0.2 0.5-0.1h-0.1c-0.2 0.1-0.3 0.2-0.4 0.1 0.1 0 0.1 0.1 0 0"></path> <path class="st2" d="m-8.8 7.2s-0.2 0.1-0.4 0h0.2c0.1-0.1 0.3-0.2 0.4-0.2 0-0.1 0 0-0.1 0 0.1-0.1 0.3-0.1 0.5-0.2h-0.1c0.1-0.1 0.3-0.1 0.4 0s0.2 0.2 0.4 0.1v0.1c0.1 0 0.1-0.2 0.3-0.1 0 0.1 0 0.1-0.1 0.1h0.1s-0.1 0-0.1 0.1h0.3c-0.2 0.2-0.5 0.2-0.7 0.3h-0.1l-0.1 0.1c-0.1 0-0.1 0.1-0.3 0.1l-0.1-0.1v0.1c-0.2 0-0.5 0.2-0.6 0 0 0 0.1 0 0.1-0.1h-0.2c0-0.1 0.4-0.1 0.5-0.2-0.2 0-0.4 0.1-0.6 0.1 0-0.1 0.1 0 0.1-0.1h-0.2v-0.1c0.1 0 0.3 0.1 0.4 0 0 0-0.1 0.1 0 0"></path> <path class="st3" d="m32.5 0.9c-0.1 0-0.2 0-0.2 0.1-0.2 0.1-0.4 0-0.5 0h0.3-0.3c0-0.1 0.1-0.1 0.1-0.1s0 0-0.1 0c0.3-0.2 0.7-0.2 1-0.1v0.1c0.1 0.1 0.3 0 0.4 0.1 0.1 0 0.1-0.1 0.1-0.1h0.3c0.2 0 0.3 0.1 0.4 0.1-0.5 0.1-0.9 0.1-1.4 0.1h-0.3c0.1 0 0.2-0.1 0.2-0.2-0.1 0 0 0.1 0 0zm0.4-0.1c-0.2 0.1 0 0.1 0 0z"></path> <path class="st3" d="m22.9 2.2c-0.1 0.1-0.3 0.1-0.4 0.2s-0.3 0.1-0.4 0.1c0.2 0 0.2-0.1 0.4-0.1 0-0.2 0.3-0.2 0.4-0.2-0.1 0.1-0.1 0 0 0z"></path> <path class="st2" d="m19.1 2.9c-0.1 0.1-0.3 0.1 0 0-0.1 0-0.1 0 0 0"></path> <path class="st3" d="m16.4 3.8h0.1c-0.1 0-0.3 0-0.4 0.1 0 0.1 0 0.1-0.1 0.1v0.1c-0.2 0-0.2 0.2-0.3 0.3h-0.3v-0.1c-0.1 0-0.4 0.1-0.5-0.1 0.2 0 0.3-0.1 0.4-0.1-0.1 0-0.4 0.2-0.5 0 0.2 0 0.4-0.1 0.7-0.2 0-0.2-0.2 0.1-0.3 0-0.1 0-0.1 0.1-0.2 0-0.1 0 0 0 0 0.1-0.2 0.2-0.4 0.1-0.6 0 0 0 0.1 0 0.1-0.1s-0.2 0-0.3-0.1c0.1-0.1 0.6-0.2 0.6-0.2 0 0.1-0.2 0-0.2 0.1h0.3c0.1-0.3 0.4 0 0.6 0 0-0.1-0.2-0.1-0.1-0.3h0.3v0.1c0.1-0.1 0.2-0.1 0.3 0h0.6s0.1 0 0.1 0.1h0.1s0.1 0 0.1 0.1h0.2c0.1 0.1 0.2 0.1 0.4 0.1-0.2 0.2-0.3 0.3-0.5 0.3v-0.1c-0.1 0-0.2 0.1-0.3 0 0 0 0.1-0.1 0-0.1s-0.2 0-0.3-0.1c0.1 0 0.1 0.1 0 0zm-0.7 0.3h-0.1s0.1 0.1 0.1 0z"></path> <path class="st4" d="m32.2 4.9s-0.1 0.1 0 0c0.1 0.1 0.2 0 0.3 0-0.1 0-0.3 0.1-0.4-0.1 0-0.1 0-0.1 0.1-0.1-0.1-0.1-0.2-0.1-0.3-0.2-0.3-0.1-0.7 0-1 0.1-0.2-0.2-0.4-0.6-0.8-0.6v-0.1c0.1-0.1 0.2-0.1 0.3-0.2 0-0.1-0.1-0.1-0.2-0.2 0.1 0 0.2 0.1 0.3 0.2 0 0.2 0.1 0.1 0.2 0.3 0.3-0.1 0.6-0.1 0.9 0-0.1-0.2-0.6 0-0.8-0.2 0.1-0.1 0.3 0 0.5-0.1 0-0.1-0.2 0-0.2 0 0.4-0.1 0.9-0.1 1.3-0.1-0.1-0.2-0.6 0-0.7-0.3-0.1 0-0.2 0-0.2-0.1 0.5-0.1 0.9-0.2 1.4-0.4 0-0.1-0.2-0.1-0.3-0.1v-0.1h-0.2 0.1c0.1 0 0-0.2-0.1-0.1 0.3-0.2 0.8-0.3 1.2-0.4h-0.1c0.4 0.1 1-0.3 1.4-0.3h-0.2c0.1-0.1 0.4 0 0.4-0.1s-0.1 0-0.1-0.1c0-0.3 0.6-0.3 0.9-0.3 0 0.1-0.1 0.1-0.2 0.1 0.2 0 0.5-0.1 0.7 0v0.1c0.1 0.1 0.3 0 0.3-0.1 0.8-0.1 1.2-0.1 1.8 0.2 0 0.1-0.2 0.1-0.2 0.2-0.2 0-0.2 0.1-0.3 0.2h-0.1c0 0.2-0.3 0.1-0.3 0.3h-0.1v0.2c0.1 0 0.1-0.1 0.1-0.1 0.3 0 0.6-0.1 0.8-0.3-0.1 0-0.2 0.1-0.3 0v-0.1h0.3c0.1 0.1 0.4 0 0.5 0s0.1 0.1 0.2 0.1h0.1c0.3-0.3 0.7-0.4 1.2-0.2v0.1c0.4 0.1 0.9 0 1.3-0.1 0-0.1-0.1-0.1-0.2-0.1 0-0.1 0.1 0 0.1-0.1 0 0 0.7 0.1 0.8 0h0.6s0 0.1 0.1 0.1 0.1 0 0.1 0 0 0.1 0.1 0.1 0.2 0 0.3 0.1c-0.1 0.1-0.2 0-0.2 0.1 0.1 0 0.2 0.1 0.4 0v0.1c0.4-0.3 0.7-0.2 1-0.2 0-0.1-0.1-0.2-0.1-0.3 0.3 0 1.7 0.1 1.9-0.2 0-0.1-0.2 0-0.3-0.2-0.1 0-0.2 0.1-0.2 0s0.2-0.1 0.3-0.1c0-0.1-0.1 0-0.1-0.1 0.6-0.2 1.2-0.2 1.7 0h-0.2v0.1c0.1 0 0.1 0 0.2-0.1v-0.2c0.3-0.1 0.6-0.1 0.9 0h-0.1c0.4 0.7 3-0.7 3.6 0.1 0.7-0.1 1.3-0.2 2-0.2 0.1 0 0-0.1 0.1-0.1s0.4-0.1 0.4 0c-0.1 0.1-0.2 0-0.3 0 0.4 0.2 1.6 0.1 0.6-0.1l-0.1-0.1c0.5-0.1 2.1-0.3 2.5-0.1 0.5 0 1 0.1 1.5 0.1 0.4 0 0.8 0 1.1 0.1 0.1 0 0.4 0.1 0.5 0.2h0.2s0-0.1 0 0c0.1 0.2-0.2 0.1-0.3 0.1 0.3-0.3 1.3 0 1.7 0.1 0 0 0 0.1 0.1 0.1-0.3 0-0.3 0.1-0.1 0.2-0.1 0.2 0.1 0.2 0.2 0.2-0.1 0.2-2.2-0.2-2.5-0.1 0 0 0-0.1-0.1-0.1s-0.1 0.1-0.1 0v0.1c0.1 0.1 0.2 0.1 0.3 0.1 0 0.1 0.1 0.1 0.1 0.1 0 0.2-0.3 0.2-0.5 0.3 0.1 0.1 1.3 0.4 1.6 0.4v0.1c-0.2 0-0.8-0.1-0.9 0.3-0.2 0.1-0.3 0.2-0.2 0.4-0.2 0.1-0.2 0.2-0.2 0.2v0.2c-0.4-0.2-0.8-0.2-1.1 0v0.2c-0.4 0.1-0.2-0.4-0.4 0.1-0.1 0-0.3-0.1-0.4 0.1 0.2 0.1 0.3 0.1 0.3 0.2-0.1 0.6 0.5 0.2 0.7 0.4 0.1 0.4 0.5 0.2 0.7 0.5h-0.3c0.2 0.2 0.3 0.4 0.6 0.6-0.4 0.1-0.5 0.3 0 0.5-0.4 0 0 0.6 0 0.9-1.1-0.2-2-1.8-2.8-2.2 0.1 0 0.1-0.1 0.2-0.1 0.1-0.1 0.1-0.9 0-0.9 0-0.1 0.1-0.1 0.2-0.2 0-0.1-0.1-0.1-0.1-0.2-0.2-0.1-0.2-0.2-0.4-0.3 0.1-0.1 0.2-0.1 0.2-0.1-0.1 0-0.4-0.1-0.5 0.1l0.3 0.3c-0.2 0-0.3 0.2-0.2 0.4-0.1 0.1-0.2 0-0.2-0.1-0.1 0.1-0.1 0-0.3 0 0-0.1-0.1-0.2-0.2-0.2l-0.1 0.1c-0.6-0.3-0.9 0.6-0.5 0.9 0.1 0 0.3-0.1 0.4 0-0.2 0-0.4 0.1-0.6 0.2-0.2 0-0.3 0.2-0.5 0 0 0 0.2 0 0.2-0.1-0.2 0-0.3-0.1-0.5 0-0.1 0-0.3-0.1-0.5 0 0 0.1-0.1 0.1 0 0.1v-0.1l0.1 0.1h-0.7v0.1c-0.1 0-0.1 0-0.2-0.1-0.4 0.1-0.8 0-0.9 0.3 0 0.1 0 0.2-0.1 0.3 0 0.1 0 0.1 0.1 0.2-0.1 0.3-0.1 0.7-0.3 0.9v0.1c-0.2 0.3-0.1 0.3 0.5 0.2 0.1 0.2 0.3 0.3 0.5 0.1v0.1c0.1 0 0.2 0 0.2-0.1 0.1 0 0 0.1 0.1 0.1 0.1-0.1-0.1-0.2-0.1-0.3 0.4 0 0.8 0.1 1.1 0.3v0.1c0.3 0.1 0.8 0.8 0.9 1.1 0.2 0.1 0.2 0.3 0.4 0.5-0.4 0.6 0.6 2.4-0.8 2.3l-0.1-0.1h-0.1s0-0.1-0.1 0c-0.1 0 0 0.2 0 0.2-0.1 0-0.1 0.1-0.1 0.2-0.2 0.2-0.2 0.4 0.1 0.6-0.1 0.1-0.1 0.2-0.2 0.3-0.1 0-0.2 0.1-0.2 0.2s0.1 0.1 0.1 0.2c0.6 0.1 1 0.9 1.5 1.1 0.1 0.1 0.1 0.3 0 0.3h-0.2v0.1c-0.1 0-0.3 0.1-0.3 0.2-0.1 0 0-0.1-0.1 0l-0.1 0.1h-0.1c0-0.2-0.2-0.3-0.1-0.5l-0.3-0.3h-0.1c0-0.1 0.1-0.1 0.2-0.1-0.1-0.1-0.2-0.2-0.4-0.3-0.2 0-0.2-0.1-0.3 0.1-0.1-0.1-0.1-0.2-0.2-0.2 0 0-1.2-1.5-1.1-0.2-0.1 0-0.1 0.2-0.2 0.2 0-0.1 0.1-0.1 0.1-0.1 0-0.1-0.1-0.1-0.2-0.1 0.2-0.4 0.1-0.5-0.4-0.5-0.1 0.1-0.1 0.2-0.1 0.3-0.2 0.1-0.3 0.2-0.2 0.4h-0.4c-0.1 0.3 0.3 0.5 0.5 0.4 0.2 0 0.1 0.5 0.5 0.3 0.2-0.3 0.5-0.3 0.9-0.2v0.2c-0.2-0.1-0.5 0.2-0.4 0.4h-0.1v0.1c-0.2 0.8 0.6 0.5 0.9 1.2 0 0.1 0.1 0.1 0.2 0.1 0.1 0.1 0.2 0.1 0.3 0.2-0.3 0-0.3-0.1-0.5 0 0 0 0.1 0 0.1 0.1 0 0 0.1 0 0.1 0.1 0.2 0.1 0.4 0.1 0.5 0.3-0.2 0-0.2 0.2-0.3 0.3 0.2 0 0.4 0 0.5 0.1-0.1 0.1 0.1 0.1 0.1 0.2h-0.1c0 0.1 0.1 0.1 0.1 0.2h-0.1c0 0.1 0.1 0.1 0.1 0.1h-0.1c0 0.3-0.1 0.5-0.3 0.7 0 0.1 0.1 0.1 0.1 0.1s0.1 0.1 0 0.1c0 0.1 0.1 0.1 0 0.2 0 0 0 0.1 0.1 0.1 0 0.1-0.1 0-0.1 0-0.1 0 0 0.1 0 0.1h-0.1v0.2h-0.2c0 0.2-0.1 0.3-0.3 0.5 0 0.1 0 0.2-0.1 0.3l-0.5 0.2s0-0.1-0.1-0.1c-0.1 0.1-0.1 0.1-0.1 0.2-0.2 0-0.2-0.2-0.3-0.2-0.1 0.1 0.1 0.2 0.1 0.3 0 0-0.1 0-0.2 0.1 0 0.1-0.7 0.3-0.7 0.4v0.1c-0.2 0 0 0.1 0.1 0.2 0 0.1-0.1 0.1-0.2 0.1-0.1-0.1-0.2-0.3-0.2-0.5h-0.2c-0.1-0.1-0.2 0-0.3-0.1-0.1 0.2-0.3 0.2-0.3 0.3-0.1 0.1-0.2 0.1-0.2 0.3-0.1 0.4-0.4 0.6 0.3 0.9 0 0.3 0.7 0.5 0.8 0.6 0-0.3 0.7 1.1 0.6 0.8 0 0.1 0.1 0.3 0.1 0.4 0.1 0.2 0.1 0.4 0 0.6l-0.3 0.3c-0.1 0-0.1 0.1-0.2 0.2h-0.1s0 0.1-0.1 0.1c0.1 0.1 0 0.1 0 0.3h-0.1v0.1c-0.2 0.1-0.3 0.2-0.4 0.4-0.1-0.2 0-0.6-0.2-0.6-0.1-0.1-0.3-0.1-0.4-0.1v-0.2c-0.1 0 0 0.1-0.1 0.1-0.3-0.6-0.4-0.5-1-0.6 0-0.1 0-0.2-0.1-0.3s-0.4 0-0.3 0.2c-0.1 0.4-0.1 1.1 0.1 1.5h0.2c0.1 0.1 0.3 0.5 0.3 0.6s0 0-0.1 0v0.1h0.1c0 0.1 0.1 0.1 0.2 0.2 0.3-0.1 0.3 0.2 0.6 0.2 0.4 0.5 0.8 1.2 1 1.8-0.4 0-0.7-0.2-1.1-0.4-0.1-0.2-0.3-0.3-0.4-0.5v-0.2c-0.1 0-0.1-0.2-0.2-0.2 0-0.3-0.1-0.5-0.3-0.7l-0.3-0.3h-0.1c0-0.1 0-0.1-0.1-0.1s0 0.1 0 0.2c0-0.4-0.1-0.8-0.1-1.2 0-0.1-0.1-0.3 0-0.3 0 0-0.1 0-0.1-0.1 0.3 0-0.5-0.7-0.3-0.7 0-0.3-0.3-0.7-0.4-1-0.2-0.1-0.2-0.3-0.4-0.4-0.1 0.2-0.1 0.5-0.4 0.7h-0.3v-0.1c-0.1 0-0.1 0.1-0.1 0.1 0.1-0.5-0.1-0.9-0.4-1.2v0.1c-0.1 0-0.1 0-0.1-0.1 0 0 0.1 0 0.1-0.1-0.1-0.1-0.2-0.3-0.4-0.2 0-0.1-0.1-0.1-0.1-0.1h-0.1c0.2 0.1-0.9-1-0.8-0.8 0-0.1-0.3-0.1-0.2 0 0.1 0 0.3 0.2 0.1 0.3v-0.2c0 0.1 0 0.1-0.1 0.2 0 0-0.1-0.1-0.1 0 0 0 0 0.1-0.1 0.1s-0.1 0-0.2 0c0 0 0 0.1-0.1 0.1s0-0.1-0.1-0.1v0.1-0.1h-0.1c-0.1-0.1 0-0.2-0.1-0.2v0c0 0.2-0.5 0.2-0.3 0.6 0 0.1-0.1 0.2-0.1 0.3-0.1 0-0.1 0.1-0.2 0.1h-0.1c-0.1 0.1-0.8 1.3-0.8 1.4-0.1 0.1-0.2 0.1-0.3 0.2 0 0.1 0 0.2-0.1 0.2-0.4 0.2 0.1 1.9 0.1 2.2h-0.1c0 0.1-0.1 0.3-0.1 0.4s0.1 0 0.1 0.1c-1.4 0.5-0.3-0.2-1.6-0.9-0.3-0.3-1.5-2.1-1.4-2.6 0 0-0.1 0-0.1-0.1 0-0.3-0.2-0.6-0.3-0.9v-0.1c-0.1 0-0.1-0.1-0.1-0.2h-0.1c0 0.1-0.1 0.2 0 0.3v0.2c-0.3 0.1-1 0.3-1.1-0.3 0.2 0 0.4-0.1 0.4-0.3 0 0-0.1 0 0 0 0.1 0.1-1.2-0.2-1.1-0.2-0.1-0.1-0.1-0.2-0.2-0.3h-0.1c-0.2-0.4-0.8-0.2-1.1 0-0.1 0.1-0.5 0.1-0.6 0.2-0.2 0-0.4 0.1-0.5 0-0.3 0.1-0.7 0-1.1 0 0.1 0.1-1-0.9-0.7-0.3l0.1-0.1c0 0.1-0.1 0.1-0.2 0.1s-0.2 0.2-0.4 0.1c-0.2 0.1-0.4-0.1-0.6-0.2 0-0.1-0.2-0.1-0.2-0.2-0.3 0.1-0.3-0.3-0.5-0.4v-0.1h-0.1c0-0.2-0.2-0.2-0.3-0.4-0.1 0.1-0.2 0-0.3 0s0 0.1 0 0.1c-0.1 0-0.1 0.1-0.2 0.1v0.1s-0.1 0-0.1 0.1 0.1 0 0.1 0.1c0.1 0.2 0.3 0.4 0.4 0.6 0 0 0.1 0 0.1 0.1 0 0 0 0.1 0.1 0.1s0.2 0.1 0.3 0.1c0 0.1 0.1 0.1 0.1 0.2s0 0.1 0 0.1v0.1c0 0.1 0.1 0.2 0.2 0.2 0 0.1 0.1 0.2 0.2 0.2 0-0.1-0.1-0.4 0-0.5 0.2 0 0.1 0.3 0.2 0.4v0.3c0.1 0 0.2 0 0.2 0.1 0.2 0 0.7-0.2 0.9-0.3 0 0 0.4-0.9 0.5-0.9 0.4 0.9 1.1 0.6 1.5 1.3 0 0.2-0.2 0.7-0.3 0.9-0.1 0 0 0-0.1-0.1-0.1 0.1-0.1 0.4 0 0.6-0.1 0-0.7 0.6-0.8 0.7 0.1 0.6-1.1 0.2-0.9 1-0.7 0.6-1.6 1-2.3 1.5-0.2 0-0.3 0.1-0.5 0.1 0-0.1-0.4-0.9-0.5-1 0-0.3 0-0.6-0.3-0.7 0-0.3-2.6-3.1-2.6-3.1v-0.1c-0.2-0.2-0.4-0.5-0.7-0.7h-0.1v-0.5c-0.1 0 0 0.6-0.1 0.7-0.2-0.2-0.5-0.6-0.7-0.7-0.3 0.1 1.2 2.1 1.3 2.1 0 0.2 0.1 0.5 0.3 0.5 0.1 0.1 0.2 0.1 0.3 0.2 0 0.1 0.1 0.3 0.2 0.3 0.1 0.3 0.1 0.7 0.3 0.9 0.6 0 0.8 1 1.1 1.3 0.1 0 0-0.1 0-0.1 0.1 0 0.1 0.1 0.1 0.2h0.2c0.1 0.1 0.1 0.1 0.2 0.1 0.1 0.2 0.3 0.3 0.5 0.5l0.2 0.2c0.3 0.1 0.4 0.3 0.1 0.5 0 0 0.1 0 0 0 0.2-0.1 0.4 0 0.6 0.4 0.2-0.1 2.1-0.6 2.1-0.9h0.2c0 0.2 0.1 0.5 0.1 0.5s0 0 0.1 0h-0.1c0.5 1.9-2 3.9-2.5 5.4-0.1 0.1-0.1 0.2-0.2 0.3l-0.1 0.1c-0.1 0.2 0.1 0.7-0.2 0.8-0.2 0.4-0.1 0.8 0.2 0.9-0.1 0.1-0.1 0.3 0 0.4 0 0.2 0.2 0.9 0.4 0.9 1.5 1-0.7 3.7-1.5 4.1 0.1 0.2 0.3 0.7 0.3 0.9 0 0 0-0.1 0.1 0 0 0.2 0.1 0.5 0.1 0.7s-1.3 0.9-0.8 1.1c0 0.3 0 0.6-0.1 0.9-0.1 0.1-2.1 2.7-2.1 2.5-0.1 0-0.2 0-0.3 0.1-0.2 0-0.4-0.1-0.5 0.1-0.5 0-1 0.3-1.4 0.3 0 0 0-0.1-0.1-0.1s-0.1 0-0.1 0c0-0.2 0-0.4-0.2-0.5 0-0.1 0.1-0.1 0.1-0.1 0.2-2-4.3-5-3-7.2 0-0.2 0.1-0.4 0.2-0.6 0.3-0.4-0.5-1.3-0.2-1.5 0-0.5-0.3-0.6-0.5-0.9v-0.1s-0.1-0.1-0.1-0.1c0-0.2-0.1-0.3-0.2-0.3-0.3-0.3-0.6-0.6-0.9-0.8 0-0.1-0.2-0.2-0.2-0.3-0.1-0.1-0.1-0.2-0.2-0.3 0.1-0.1 0.1-0.2 0.1-0.4h0.1c0-0.1-0.1-0.1-0.1-0.1 0-0.1 0.1 0 0.1-0.1s-0.1-0.1-0.1-0.2c0-0.2-0.1-1-0.1-1.1h-0.2c0-0.1 0-0.1-0.1-0.2-0.1 0-0.1-0.1-0.2-0.1v0.1c-1 0.5-2-0.7-3.5 0.4-1.1 0.7-2.3 0.1-3.3 0-0.2-0.2-0.5-0.3-0.8-0.4 0.1-0.1-0.1-0.1-0.1-0.2h-0.1c0-0.2-0.1-0.4-0.2-0.5s-0.2-0.1-0.3-0.2c-0.2-0.3-0.3-0.3-0.3-0.4h-0.1c-0.1-0.1-0.3-0.2-0.2-0.3-0.1 0-0.1 0-0.1 0.1-0.1 0-0.1 0-0.2-0.1-0.1 0-0.1 0-0.2-0.1 0-0.2 0-0.9-0.4-0.9 0.7-0.5-0.1-1.6 0.2-2.1 0-0.2-0.2-0.3-0.3-0.5h-0.1c0.1-0.8 2.1-4.3 2.1-4.2-0.2-0.9 0.9-1.4 1.1-2.2 0.1 0 0.1 0 0.1-0.1-0.2-0.2-0.5-0.5-0.8-0.3h-0.3v-0.5c-0.1 0-0.2-0.1-0.2-0.1 0.3-0.7 0-1.1 0-1.7 0-0.1 0.2-0.1 0.3-0.2 0-0.1 0.2-0.2 0.3-0.1-0.6 0.2 3.5-0.9 2-1.1 0-0.1-0.1 0-0.1-0.1s0-0.1 0-0.1c-0.1-0.2-0.4-0.3-0.5-0.5-0.2 0-0.3-0.1-0.6-0.1h-0.1v-0.1s-0.1 0-0.1-0.1c0-0.2 0.3-0.1 0.4-0.2 0.1 0 0.1 0.1 0.2 0.1 0.1-0.1 0.2-0.1 0.4-0.1 0-0.1-0.1-0.3-0.1-0.4h0.2v0.1h0.4v-0.1c0.3-0.4 0.5-0.6 0.9-0.8 0-0.1 0.1-0.1 0.2-0.2 0 0 0.2-0.3 0.2-0.5 0.2-0.2 0.4-0.3 0.7-0.3h-0.1c0.1-0.2 0.3-0.2 0.4-0.1 0.1 0 0.1-0.2 0.2-0.2 0-0.1-0.1-0.1-0.1-0.2v-0.1l-0.1-0.1c0.1-0.1 0-0.2-0.1-0.3v-0.1c-0.1-0.1-0.1-0.2 0-0.2v-0.1c0.2-0.1 0.4-0.2 0.6-0.4 0.1 0.1-0.1 0.3 0.1 0.4h0.1c0 0.1 0 0.1-0.1 0.1 0 0.1-0.1 0.1-0.1 0.2h0.2v0.1c-0.1 0.1-0.2 0-0.3-0.1v0.1h0.1c0 0.1 0.1 0.1 0.1 0.2 0.1 0 0.2 0.1 0.3 0 0 0.1-0.1 0.1 0 0.1 0.2 0 0.3-0.1 0.5-0.2h0.1c0.1 0 0-0.1 0.1-0.1v0.1c0.1 0.3 1.3-0.4 1.4-0.4 0.1 0.2 0.5 0.2 0.5-0.1h0.3c0.1-0.1 0-0.2-0.1-0.3 0-0.5-0.2-0.5 0.2-0.8 0.1 0.1 0.5 0.3 0.6 0.1 0-0.2-0.1-0.3-0.1-0.4-0.2 0.1-0.3-0.1-0.4-0.2 0.1-0.4 1-0.3 1.2-0.3v-0.1c0.2-0.1 0.4-0.1 0.5-0.2-0.1-0.1-0.3 0-0.5-0.1 0 0-0.1-0.1 0-0.1-0.4 0.1-0.8 0.3-1.1 0.4-0.1 0-0.2 0.1-0.3 0.1l-0.1-0.1s-0.1 0-0.1 0.1c-0.1-0.2-0.2 0-0.4-0.2-0.1-0.3 0-0.7-0.1-0.9h0.1s0-0.1 0.1-0.1c0.3-0.1 0.3-0.5 0.6-0.6 0-0.1 0-0.1-0.1-0.2-0.3-0.2-1.3 0.2-0.9 0.5-0.2 0.1-0.4 0.5-0.7 0.6 0.1 0.1-0.1 0.1-0.1 0.2-0.1 0-0.1 0-0.1 0.1 0 0 0 0.1 0.1 0.1-0.1 0.9 0.1 0.3 0.6 0.8l-0.1 0.1v0.1c-0.1 0.1-0.3 0.2-0.4 0.3 0 0.4 0 0.6-0.1 0.9-0.2 0.1-0.4 0.1-0.5 0.2v0.1c-0.1 0-0.3 0.1-0.4 0.1 0-0.2-0.1-0.3-0.2-0.2 0.1 0 0-0.1 0.1-0.2-0.1-0.1-0.3-0.2-0.4-0.5-0.1-0.1-0.2-0.3-0.3-0.4-0.1 0-0.1-0.1-0.2-0.1 0 0.1-0.1 0.3-0.2 0.2-0.1 0.1-1 0.9-1.2 0.3 0.1-0.1 0.2-0.1 0.1-0.2-0.4 0.2-0.1-0.4-0.1-0.2v0.1c0.1 0 0.1-0.1 0.1-0.1l0.1-0.1c-0.1 0-0.1 0.1-0.1 0.1 0-0.1-0.1-0.1-0.1-0.1-0.1-0.1-0.1-0.3-0.1-0.4s-0.1 0 0-0.1 0.1-0.2 0.3-0.3v-0.1c0.1-0.1 0.2 0 0.3-0.1 0-0.1-0.1 0-0.1-0.1s0.1 0 0.2-0.1c0-0.1 0.4-0.2 0.4-0.3 0.2-0.1 0.3-0.5 0.5-0.4 0.1-0.1 0-0.1 0-0.2 0 0 0.1-0.1 0.2-0.1 0-0.2 0.2-0.3 0.2-0.5 0.1-0.1 0.1-0.1 0.1-0.2 0.1 0 0.2-0.1 0.2-0.2 0.1 0 0.1 0 0.1-0.1h-0.1c0-0.1 0.2-0.1 0.2-0.1s0 0-0.1 0c0-0.1 0.1 0 0.2 0 0.1-0.1 0-0.1 0-0.2-0.1 0-0.3 0.1-0.5 0.1 0.1-0.1 0.3-0.1 0.2-0.2h-0.2c0.2 0.1 0.2 0.2 0.3 0.1 0 0 0-0.2 0.1-0.1v0.1h0.1c0.1 0.1 0.4 0 0.3-0.2h-0.1c0-0.1 0.2-0.2 0.2-0.2 0.2-0.2 0.4-0.2 0.6-0.2v0.1s0.1-0.1 0.2-0.1 0.1 0 0.1 0c0-0.1-0.1 0-0.1-0.1 0.2 0 0.3 0 0.3-0.2 0 0-0.1 0.1-0.2 0.1 0-0.1 0.1 0 0.2-0.1-0.1 0.1-0.1 0.2 0 0 0.1 0.1 0.1-0.1 0.3 0 0.1 0 0-0.1 0.1-0.1s0.1 0 0.2 0v-0.1h0.1c0 0.1-0.1 0.1-0.1 0.2 0 0.3-0.2 0 0.3-0.2v0.1c0.1 0 0.1-0.1 0.1-0.2 0.1-0.1 0.2-0.1 0.3 0 0 0-0.1 0-0.1 0.1l0.1 0.1c0.2-0.1 0.4-0.3 0.7 0-0.2 0.1-0.3 0.1-0.5 0.1 0.1 0.2 0.8 0 0.8 0h0.2c0 0.1-0.2 0-0.2 0 0 0.1 0.3 0 0.4 0.1 0.7-0.3 1.2 0.2 1.8 0.1 0.1 0.1 0.2 0.1 0.3 0.1 0.4 1.2-1.5 0.3-2.1 0.5 0.1 0.2 0.3 0.1 0.4 0.2 0.1 0 0.2 0 0.3 0.1v0.2c0.1 0.1 0.2 0.1 0.2 0.3 0.1 0.1 0.4 0 0.5 0.1 0.2 0 0.4 0.1 0.4-0.1 0-0.1-0.1-0.1-0.1-0.1-0.2 0.1-0.3 0-0.4-0.1 0 0 0-0.1 0.1-0.1 0.3 0 0.7 0.2 1 0.1 0-0.2-0.2-0.2-0.3-0.3 0.3-0.4 0.5-0.4 0.9-0.4h0.1c0.1-0.3 0-0.4-0.2-0.4 0-0.3 0-0.3-0.2-0.4 0.3 0 0.7-0.1 0.8 0.1-0.1 0.1-0.3 0.1-0.3 0.2 0.2 0.1 0.4 0.1 0.4 0.2 0.2 0 0.4 0 0.5-0.1v-0.2c0.1 0 0.2-0.1 0.2-0.1 0.3-0.1 0.5-0.4 0.8-0.3v-0.1c0.1-0.1 0.2-0.1 0.4-0.2h-0.1c0 0.1 0.1 0.1 0 0.2 0.1 0 0.2-0.1 0.3 0 0.1-0.2 1-0.5 1.1-0.2h0.2v-0.1c0.3-0.1 0.2-0.3-0.1-0.3-0.2 0-0.4 0-0.5-0.1 0.2 0 0.4 0 0.6 0.1 0 0 0.1 0 0.1-0.1 0.2 0 2.3 0.2 2.3 0-0.1-0.1-0.3-0.1-0.4-0.2h-0.4v-0.1c-0.1-0.1-0.1-0.1-0.1-0.2h-0.1s0-0.1-0.1-0.1c0.1-0.1 0.2-0.1 0.3-0.2 0-0.1-0.1-0.3 0-0.4 0.4-0.1 1.2-0.2 1 0.3 0.4 0.3 0.7 0.7 1.1 0.8 0 0.1 0 0.2 0.1 0.2-0.1 0.1-0.1 0.2-0.1 0.3-0.2 0.1-0.4 0.2-0.6 0.2 0 0.2 1.1 0.1 0.9 0.1v-0.1c0.1-0.1 0.2-0.1 0.2-0.2v-0.1c0.2-0.2 0.1-0.3-0.2-0.4 0.1-0.1 0.2-0.1 0.4-0.2 0-0.1 0.2 0.1 0.4 0.2-0.1 0.1-0.1 0 0 0-0.1 0-0.1 0.1 0 0 0 0-0.1 0.1 0 0m-18.6 8.9h0.1c0-0.1 0-0.1-0.1 0 0.1-0.1 0.1-0.1 0 0 0 0 0.1-0.1 0 0 0.1 0 0 0 0 0m3-7.1h0.2c-0.2-0.1-0.2 0-0.2 0m30.9-5.6c0.1 0 0.2-0.1 0.3-0.1-0.1 0-0.3-0.1-0.3 0.1m-1.4 0.5c0.1-0.1 0-0.1 0 0m-28.4 4.6c0.1 0.1 0.1 0.1 0 0 0.2 0.1 0.1 0 0 0m-0.9 0.4m-0.4 0.5h0.1-0.1m43-5.3v0c0.1 0.1 0.2 0.1 0.2 0h-0.2s0.1 0 0 0m-44.3 7.1v0c0.1 0 0.1 0 0 0 0 0 0.1 0 0 0 0.1 0 0 0 0 0m-0.1 0.1c-0.1 0-0.2 0-0.2 0.1 0.1 0 0.2 0 0.2-0.1v0c-0.1 0 0 0 0 0m45.7-6.6c-0.1 0-0.1 0 0 0-0.1 0-0.1 0 0 0 0 0-0.1 0 0 0m-46.8 7.7c0.1 0 0.1 0 0 0v0 0m-0.2 0.3c0.1-0.1 0.1-0.1 0 0 0.1-0.1 0.1-0.1 0 0 0.1-0.1 0-0.1 0 0 0.1-0.1 0-0.1 0 0m1.2 1.1v0c0.1-0.1 0 0 0 0m44.6-6.6v0c0.1 0.1 0 0.1 0 0 0.1 0 0.1 0 0 0 0.1 0 0.1 0 0 0 0.1 0 0.1 0 0 0 0.1 0 0.1 0 0 0 0 0 0.1 0 0 0m-42.8 7.5h-0.2c0.1 0.1 0.3 0.1 0.2 0m7.7 1.5c-0.1 0.1-0.3 0.2-0.5 0.2-0.2 0.4 0.1 0.8 0.7 0.4v-0.3s0.1 0 0.1-0.1-0.2 0-0.2-0.2h0.1c0.1-0.1 0.3-0.1 0.3-0.3-0.2 0.2-0.3 0.3-0.5 0.3-0.2 0.1 0.2 0 0 0m-2.3 0.7-0.1 0.6c-0.1 0-0.1 0.1-0.2 0v0.1c-0.1 0.1 0 0.3 0 0.5h-0.1c0 0.1-0.1 0.1 0 0.3l-0.1 0.1 0.2 0.2c0.2 0.4 0.7 0.2 1.1 0.2 0.3-0.4 0.7-0.5 1.1-0.5 0.1 0.1 0.2 0.2 0.3 0.1 0.1 0.1 0.2 0.2 0.3 0.1 0.1 0 0.2 0.1 0.3 0.1 0.4 0.3 1.4-0.2 1-0.8-0.5-0.1-1.2-0.8-1.8-0.7v-0.1c-0.1 0-0.1 0.1-0.1 0.1-0.2 0.2-0.8 0.4-0.9 0.1-0.1 0-0.2-0.1-0.4-0.1 0.1-0.1 0.2-0.1 0.3-0.3-0.2 0.1-0.4 0-0.6-0.1h0.1c-0.1-0.1-0.3 0-0.5 0 0 0 0 0.1-0.1 0.2 0.3-0.2 0.2-0.2 0.2-0.1v0m-5.5 1.1c-0.1 0-0.1 0.1 0 0.2-0.2 0.3 0.3 0.4 0.5 0.5 0.1 0.3 0.3 0.5 0.6 0.5 0.1 0 0.3-0.1 0.4 0 0 0-0.1 0.1 0 0.1 0.4 0 0.7 0.2 0.9 0.5-0.1 0-0.1-0.1-0.1-0.1-0.3-0.1-0.4-0.1-0.4 0.3 0.3 0.1 0.3 0.2 0.1 0.4v0.1c-0.1 0.1-0.1 0.4-0.3 0.2 0 0.1 0 1-0.4 0.5-0.4 0.1-0.7-0.1-0.4-0.4 0.3 0.1 0.6-0.1 0.8-0.2 0.2-0.2-0.1-0.5-0.2-0.7-0.2 0-0.2-0.1-0.3-0.2-0.2 0.1-1.2-0.5-1.3-0.5-0.1-0.1-0.2-0.1-0.3-0.2 0-0.2-0.1-0.3-0.2-0.4-0.3 0-0.9 0-1.1 0.5-0.2 0.2-0.8-0.1-1.1 0.2 0 0.2-0.6 1.2-0.6 1.1-0.2 0.3-0.5 0.7-0.2 0.9-0.2 0.1-0.3 0.3-0.3 0.5 0.1 0-1.1 0.5-1.1 0.5-0.1 0.1-0.2 0.1-0.2 0.2-0.1 0.5 0.1 0.6 0.7 0.4 0 0 0-0.1 0.1-0.1 0 0 0 0.1 0.1 0.1 0.4-0.1 0.5-0.2 0.8-0.4h0.1c0.1-0.3 0.5-0.4 0.8-0.5 0.2-0.2 1.4-0.4 1.7-0.4 0.3-0.2 0.5-0.3 0.8-0.1 0.1 0 0.1-0.1 0.2-0.1 0 0.1-0.1 0.2-0.1 0.3 0.3 0.3 0.3 0.6 0 0.8 0 0.2 0.1 0.3 0.3 0.3 0-0.1-0.1-0.1 0-0.1 0 0.1 0.1 0.2 0.1 0.2 0.4 0.1 0.9 0.1 1.4 0.1 0.6 0.5 0.3 0.3 1.2 0.5 0.1 0.1 0.2 0.2 0.4 0.1 0.3-0.2-0.1-1.8 1.1-1.1 0 0.2 0.6 0.1 0.7 0.2 0 0.1 0.1 0.1 0.1 0.1 0.3-0.1 0.6-0.1 0.8 0 0.4 0 0.8 0 1.1-0.3 0 0 0-0.1 0.1-0.1s0.1 0 0.2 0c0 0.1 0.1 0.1 0.1 0.1h0.1 0.2c0.6 0.1 0.5-0.9 0.6-1.2v-0.1c0.1-0.1 0-0.4-0.1-0.6v-0.2c0-0.1 0.1-0.1 0.1-0.2h-0.1c-0.2 0-0.5 0.2-0.6 0.3s-0.2 0.1-0.3 0.1c-0.2-0.2-0.5-0.2-0.8-0.2v0.2c-0.2 0.1-0.4 0.1-0.5-0.1 0 0-0.4 0.1-0.5 0.1 0.1 0 0.2 0 0.2-0.1-0.1 0-0.2 0.1-0.3 0 0-0.1 0.1 0 0.1-0.1s-0.1 0-0.1-0.1v-0.1h-0.2c0.1-0.1 0.1 0 0.2 0 0-0.2-0.2-0.1-0.3-0.2v-0.1c0.1 0 0.1 0.1 0.2 0.1 0-0.1-0.1-0.1 0-0.2-0.1-0.1-0.1-0.2-0.1-0.3-0.1 0-0.1 0-0.2 0.1-0.1-0.1 0-0.2-0.1-0.3 0-0.1 0.1-0.1 0.1-0.1s-0.1 0-0.2 0c-0.2-0.2-0.6-0.1-0.8 0.1 0 0.1 0.1 0.1 0.1 0.1 0 0.1-0.2 0.1-0.1 0.1-0.1-0.1-0.2-0.1-0.3-0.1h0.1c-0.1 0.2 0.1 0.4 0.2 0.5h-0.1c0 0.1 0 0.1 0.1 0.1s0.2 0.1 0.4 0.1c0 0 0 0.1 0.1 0.1 0 0 0.1 0 0.1 0.1-0.1 0.1-0.1-0.2-0.3-0.1 0.1 0.1 0.1 0.1 0.1 0.2-0.1 0-0.2-0.1-0.3 0 0 0.1 0.1 0.1 0.1 0.2 0 0-0.1-0.1-0.2 0 0 0.1 0.2 0.2 0.1 0.3-0.1 0-0.1-0.1-0.1 0 0 0 0 0.1-0.1 0.1 0-0.1-0.1-0.2-0.2-0.1 0 0 0 0.1-0.1 0.1-0.1-0.1-0.1-0.1-0.1-0.3l-0.2-0.2 0.2-0.2s0.4 0.2 0.4 0c0.4 0.2-1-0.1-0.8-0.1 0-0.1 0.1 0 0.1-0.1-0.1 0 0 0-0.1 0.1l-0.5-0.5c-0.1-0.1-0.1-0.3-0.1-0.6h-0.1c-0.2-0.2-0.4-0.2-0.7-0.3v-0.1h-0.2 0.1c0-0.1-0.2-0.1-0.4-0.1v-0.1c-0.2-0.1-0.4-0.2-0.4-0.5 0 0-0.1-0.1 0 0 0.1 0 0-0.1-0.1 0 0 0 0 0.1-0.1 0.1 0-0.1 0.1-0.1 0-0.2-0.1 0-0.1 0.2-0.2 0.2-0.2 0-0.2-0.1-0.2-0.2-0.1 0-0.3 0.1-0.4 0.1-0.1 0.1 0.1 0 0 0m5.2 1.1c0 0.1-0.2 0.1-0.2 0.3h0.3v-0.1c0.1 0.1 0.2 0 0.4 0 0-0.1-0.1 0 0-0.1 0 0 0.1 0 0.1-0.1-0.1-0.2-0.4-0.1-0.6 0 0 0.1 0.2-0.1 0 0m-1.4 1c0.1 0 0.2 0.1 0.3 0.1v-0.1h-0.3c0.1 0 0.1 0 0 0 0.1 0 0.1 0 0 0 0 0 0.1 0 0 0 0.1 0 0 0 0 0 0.1 0.1 0 0 0 0m33.1-2.2v0c-0.1 0 0 0 0 0m-23.9 4.5c0.1 0 0.1-0.1 0 0 0.1-0.1 0-0.1 0 0 0.1 0 0 0 0 0m15.2 0.3s0.1 0 0 0c0.1 0 0.1 0 0 0m-24.8 15.8v0c-0.1-0.1-0.1 0 0 0-0.1 0-0.1-0.1 0 0 0 0-0.1-0.1 0 0-0.1 0-0.1 0 0 0"></path> <path class="st5" d="m32.2 4.9s-0.1 0.1 0 0c0.1 0.1 0.2 0 0.3 0-0.1 0-0.3 0.1-0.4-0.1 0-0.1 0-0.1 0.1-0.1-0.1-0.1-0.2-0.1-0.3-0.2-0.3-0.1-0.7 0-1 0.1-0.2-0.2-0.4-0.6-0.8-0.6v-0.1c0.1-0.1 0.2-0.1 0.3-0.2 0-0.1-0.1-0.1-0.2-0.2 0.1 0 0.2 0.1 0.3 0.2 0 0.2 0.1 0.1 0.2 0.3 0.3-0.1 0.6-0.1 0.9 0-0.1-0.2-0.6 0-0.8-0.2 0.1-0.1 0.3 0 0.5-0.1 0-0.1-0.2 0-0.2 0 0.4-0.1 0.9-0.1 1.3-0.1-0.1-0.2-0.6 0-0.7-0.3-0.1 0-0.2 0-0.2-0.1 0.5-0.1 0.9-0.2 1.4-0.4 0-0.1-0.2-0.1-0.3-0.1v-0.1h-0.2 0.1c0.1 0 0-0.2-0.1-0.1 0.3-0.2 0.8-0.3 1.2-0.4h-0.1c0.4 0.1 1-0.3 1.4-0.3h-0.2c0.1-0.1 0.4 0 0.4-0.1s-0.1 0-0.1-0.1c0-0.3 0.6-0.3 0.9-0.3 0 0.1-0.1 0.1-0.2 0.1 0.2 0 0.5-0.1 0.7 0v0.1c0.1 0.1 0.3 0 0.3-0.1 0.8-0.1 1.2-0.1 1.8 0.2 0 0.1-0.2 0.1-0.2 0.2-0.2 0-0.2 0.1-0.3 0.2h-0.1c0 0.2-0.3 0.1-0.3 0.3h-0.1v0.2c0.1 0 0.1-0.1 0.1-0.1 0.3 0 0.6-0.1 0.8-0.3-0.1 0-0.2 0.1-0.3 0v-0.1h0.3c0.1 0.1 0.4 0 0.5 0s0.1 0.1 0.2 0.1h0.1c0.3-0.3 0.7-0.4 1.2-0.2v0.1c0.4 0.1 0.9 0 1.3-0.1 0-0.1-0.1-0.1-0.2-0.1 0-0.1 0.1 0 0.1-0.1 0 0 0.7 0.1 0.8 0h0.6s0 0.1 0.1 0.1 0.1 0 0.1 0 0 0.1 0.1 0.1 0.2 0 0.3 0.1c-0.1 0.1-0.2 0-0.2 0.1 0.1 0 0.2 0.1 0.4 0v0.1c0.4-0.3 0.7-0.2 1-0.2 0-0.1-0.1-0.2-0.1-0.3 0.3 0 1.7 0.1 1.9-0.2 0-0.1-0.2 0-0.3-0.2-0.1 0-0.2 0.1-0.2 0s0.2-0.1 0.3-0.1c0-0.1-0.1 0-0.1-0.1 0.6-0.2 1.2-0.2 1.7 0h-0.2v0.1c0.1 0 0.1 0 0.2-0.1v-0.2c0.3-0.1 0.6-0.1 0.9 0h-0.1c0.4 0.7 3-0.7 3.6 0.1 0.7-0.1 1.3-0.2 2-0.2 0.1 0 0-0.1 0.1-0.1s0.4-0.1 0.4 0c-0.1 0.1-0.2 0-0.3 0 0.4 0.2 1.6 0.1 0.6-0.1l-0.1-0.1c0.5-0.1 2.1-0.3 2.5-0.1 0.5 0 1 0.1 1.5 0.1 0.4 0 0.8 0 1.1 0.1 0.1 0 0.4 0.1 0.5 0.2h0.2s0-0.1 0 0c0.1 0.2-0.2 0.1-0.3 0.1 0.3-0.3 1.3 0 1.7 0.1 0 0 0 0.1 0.1 0.1-0.3 0-0.3 0.1-0.1 0.2-0.1 0.2 0.1 0.2 0.2 0.2-0.1 0.2-2.2-0.2-2.5-0.1 0 0 0-0.1-0.1-0.1s-0.1 0.1-0.1 0v0.1c0.1 0.1 0.2 0.1 0.3 0.1 0 0.1 0.1 0.1 0.1 0.1 0 0.2-0.3 0.2-0.5 0.3 0.1 0.1 1.3 0.4 1.6 0.4v0.1c-0.2 0-0.8-0.1-0.9 0.3-0.2 0.1-0.3 0.2-0.2 0.4-0.2 0.1-0.2 0.2-0.2 0.2v0.2c-0.4-0.2-0.8-0.2-1.1 0v0.2c-0.4 0.1-0.2-0.4-0.4 0.1-0.1 0-0.3-0.1-0.4 0.1 0.2 0.1 0.3 0.1 0.3 0.2-0.1 0.6 0.5 0.2 0.7 0.4 0.1 0.4 0.5 0.2 0.7 0.5h-0.3c0.2 0.2 0.3 0.4 0.6 0.6-0.4 0.1-0.5 0.3 0 0.5-0.4 0 0 0.6 0 0.9-1.1-0.2-2-1.8-2.8-2.2 0.1 0 0.1-0.1 0.2-0.1 0.1-0.1 0.1-0.9 0-0.9 0-0.1 0.1-0.1 0.2-0.2 0-0.1-0.1-0.1-0.1-0.2-0.2-0.1-0.2-0.2-0.4-0.3 0.1-0.1 0.2-0.1 0.2-0.1-0.1 0-0.4-0.1-0.5 0.1l0.3 0.3c-0.2 0-0.3 0.2-0.2 0.4-0.1 0.1-0.2 0-0.2-0.1-0.1 0.1-0.1 0-0.3 0 0-0.1-0.1-0.2-0.2-0.2l-0.1 0.1c-0.6-0.3-0.9 0.6-0.5 0.9 0.1 0 0.3-0.1 0.4 0-0.2 0-0.4 0.1-0.6 0.2-0.2 0-0.3 0.2-0.5 0 0 0 0.2 0 0.2-0.1-0.2 0-0.3-0.1-0.5 0-0.1 0-0.3-0.1-0.5 0 0 0.1-0.1 0.1 0 0.1v-0.1l0.1 0.1h-0.7v0.1c-0.1 0-0.1 0-0.2-0.1-0.4 0.1-0.8 0-0.9 0.3 0 0.1 0 0.2-0.1 0.3 0 0.1 0 0.1 0.1 0.2-0.1 0.3-0.1 0.7-0.3 0.9v0.1c-0.2 0.3-0.1 0.3 0.5 0.2 0.1 0.2 0.3 0.3 0.5 0.1v0.1c0.1 0 0.2 0 0.2-0.1 0.1 0 0 0.1 0.1 0.1 0.1-0.1-0.1-0.2-0.1-0.3 0.4 0 0.8 0.1 1.1 0.3v0.1c0.3 0.1 0.8 0.8 0.9 1.1 0.2 0.1 0.2 0.3 0.4 0.5-0.4 0.6 0.6 2.4-0.8 2.3l-0.1-0.1h-0.1s0-0.1-0.1 0c-0.1 0 0 0.2 0 0.2-0.1 0-0.1 0.1-0.1 0.2-0.2 0.2-0.2 0.4 0.1 0.6-0.1 0.1-0.1 0.2-0.2 0.3-0.1 0-0.2 0.1-0.2 0.2s0.1 0.1 0.1 0.2c0.6 0.1 1 0.9 1.5 1.1 0.1 0.1 0.1 0.3 0 0.3h-0.2v0.1c-0.1 0-0.3 0.1-0.3 0.2-0.1 0 0-0.1-0.1 0l-0.1 0.1h-0.1c0-0.2-0.2-0.3-0.1-0.5l-0.3-0.3h-0.1c0-0.1 0.1-0.1 0.2-0.1-0.1-0.1-0.2-0.2-0.4-0.3-0.2 0-0.2-0.1-0.3 0.1-0.1-0.1-0.1-0.2-0.2-0.2 0 0-1.2-1.5-1.1-0.2-0.1 0-0.1 0.2-0.2 0.2 0-0.1 0.1-0.1 0.1-0.1 0-0.1-0.1-0.1-0.2-0.1 0.2-0.4 0.1-0.5-0.4-0.5-0.1 0.1-0.1 0.2-0.1 0.3-0.2 0.1-0.3 0.2-0.2 0.4h-0.4c-0.1 0.3 0.3 0.5 0.5 0.4 0.2 0 0.1 0.5 0.5 0.3 0.2-0.3 0.5-0.3 0.9-0.2v0.2c-0.2-0.1-0.5 0.2-0.4 0.4h-0.1v0.1c-0.2 0.8 0.6 0.5 0.9 1.2 0 0.1 0.1 0.1 0.2 0.1 0.1 0.1 0.2 0.1 0.3 0.2-0.3 0-0.3-0.1-0.5 0 0 0 0.1 0 0.1 0.1 0 0 0.1 0 0.1 0.1 0.2 0.1 0.4 0.1 0.5 0.3-0.2 0-0.2 0.2-0.3 0.3 0.2 0 0.4 0 0.5 0.1-0.1 0.1 0.1 0.1 0.1 0.2h-0.1c0 0.1 0.1 0.1 0.1 0.2h-0.1c0 0.1 0.1 0.1 0.1 0.1h-0.1c0 0.3-0.1 0.5-0.3 0.7 0 0.1 0.1 0.1 0.1 0.1s0.1 0.1 0 0.1c0 0.1 0.1 0.1 0 0.2 0 0 0 0.1 0.1 0.1 0 0.1-0.1 0-0.1 0-0.1 0 0 0.1 0 0.1h-0.1v0.2h-0.2c0 0.2-0.1 0.3-0.3 0.5 0 0.1 0 0.2-0.1 0.3l-0.5 0.2s0-0.1-0.1-0.1c-0.1 0.1-0.1 0.1-0.1 0.2-0.2 0-0.2-0.2-0.3-0.2-0.1 0.1 0.1 0.2 0.1 0.3 0 0-0.1 0-0.2 0.1 0 0.1-0.7 0.3-0.7 0.4v0.1c-0.2 0 0 0.1 0.1 0.2 0 0.1-0.1 0.1-0.2 0.1-0.1-0.1-0.2-0.3-0.2-0.5h-0.2c-0.1-0.1-0.2 0-0.3-0.1-0.1 0.2-0.3 0.2-0.3 0.3-0.1 0.1-0.2 0.1-0.2 0.3-0.1 0.4-0.4 0.6 0.3 0.9 0 0.3 0.7 0.5 0.8 0.6 0-0.3 0.7 1.1 0.6 0.8 0 0.1 0.1 0.3 0.1 0.4 0.1 0.2 0.1 0.4 0 0.6l-0.3 0.3c-0.1 0-0.1 0.1-0.2 0.2h-0.1s0 0.1-0.1 0.1c0.1 0.1 0 0.1 0 0.3h-0.1v0.1c-0.2 0.1-0.3 0.2-0.4 0.4-0.1-0.2 0-0.6-0.2-0.6-0.1-0.1-0.3-0.1-0.4-0.1v-0.2c-0.1 0 0 0.1-0.1 0.1-0.3-0.6-0.4-0.5-1-0.6 0-0.1 0-0.2-0.1-0.3s-0.4 0-0.3 0.2c-0.1 0.4-0.1 1.1 0.1 1.5h0.2c0.1 0.1 0.3 0.5 0.3 0.6s0 0-0.1 0v0.1h0.1c0 0.1 0.1 0.1 0.2 0.2 0.3-0.1 0.3 0.2 0.6 0.2 0.4 0.5 0.8 1.2 1 1.8-0.4 0-0.7-0.2-1.1-0.4-0.1-0.2-0.3-0.3-0.4-0.5v-0.2c-0.1 0-0.1-0.2-0.2-0.2 0-0.3-0.1-0.5-0.3-0.7l-0.3-0.3h-0.1c0-0.1 0-0.1-0.1-0.1s0 0.1 0 0.2c0-0.4-0.1-0.8-0.1-1.2 0-0.1-0.1-0.3 0-0.3 0 0-0.1 0-0.1-0.1 0.3 0-0.5-0.7-0.3-0.7 0-0.3-0.3-0.7-0.4-1-0.2-0.1-0.2-0.3-0.4-0.4-0.1 0.2-0.1 0.5-0.4 0.7h-0.3v-0.1c-0.1 0-0.1 0.1-0.1 0.1 0.1-0.5-0.1-0.9-0.4-1.2v0.1c-0.1 0-0.1 0-0.1-0.1 0 0 0.1 0 0.1-0.1-0.1-0.1-0.2-0.3-0.4-0.2 0-0.1-0.1-0.1-0.1-0.1h-0.1c0.2 0.1-0.9-1-0.8-0.8 0-0.1-0.3-0.1-0.2 0 0.1 0 0.3 0.2 0.1 0.3v-0.2c0 0.1 0 0.1-0.1 0.2 0 0-0.1-0.1-0.1 0 0 0 0 0.1-0.1 0.1s-0.1 0-0.2 0c0 0 0 0.1-0.1 0.1s0-0.1-0.1-0.1v0.1-0.1h-0.1c-0.1-0.1 0-0.2-0.1-0.2v0c0 0.2-0.5 0.2-0.3 0.6 0 0.1-0.1 0.2-0.1 0.3-0.1 0-0.1 0.1-0.2 0.1h-0.1c-0.1 0.1-0.8 1.3-0.8 1.4-0.1 0.1-0.2 0.1-0.3 0.2 0 0.1 0 0.2-0.1 0.2-0.4 0.2 0.1 1.9 0.1 2.2h-0.1c0 0.1-0.1 0.3-0.1 0.4s0.1 0 0.1 0.1c-1.4 0.5-0.3-0.2-1.6-0.9-0.3-0.3-1.5-2.1-1.4-2.6 0 0-0.1 0-0.1-0.1 0-0.3-0.2-0.6-0.3-0.9v-0.1c-0.1 0-0.1-0.1-0.1-0.2h-0.1c0 0.1-0.1 0.2 0 0.3v0.2c-0.3 0.1-1 0.3-1.1-0.3 0.2 0 0.4-0.1 0.4-0.3 0 0-0.1 0 0 0 0.1 0.1-1.2-0.2-1.1-0.2-0.1-0.1-0.1-0.2-0.2-0.3h-0.1c-0.2-0.4-0.8-0.2-1.1 0-0.1 0.1-0.5 0.1-0.6 0.2-0.2 0-0.4 0.1-0.5 0-0.3 0.1-0.7 0-1.1 0 0.1 0.1-1-0.9-0.7-0.3l0.1-0.1c0 0.1-0.1 0.1-0.2 0.1s-0.2 0.2-0.4 0.1c-0.2 0.1-0.4-0.1-0.6-0.2 0-0.1-0.2-0.1-0.2-0.2-0.3 0.1-0.3-0.3-0.5-0.4v-0.1h-0.1c0-0.2-0.2-0.2-0.3-0.4-0.1 0.1-0.2 0-0.3 0s0 0.1 0 0.1c-0.1 0-0.1 0.1-0.2 0.1v0.1s-0.1 0-0.1 0.1 0.1 0 0.1 0.1c0.1 0.2 0.3 0.4 0.4 0.6 0 0 0.1 0 0.1 0.1 0 0 0 0.1 0.1 0.1s0.2 0.1 0.3 0.1c0 0.1 0.1 0.1 0.1 0.2s0 0.1 0 0.1v0.1c0 0.1 0.1 0.2 0.2 0.2 0 0.1 0.1 0.2 0.2 0.2 0-0.1-0.1-0.4 0-0.5 0.2 0 0.1 0.3 0.2 0.4v0.3c0.1 0 0.2 0 0.2 0.1 0.2 0 0.7-0.2 0.9-0.3 0 0 0.4-0.9 0.5-0.9 0.4 0.9 1.1 0.6 1.5 1.3 0 0.2-0.2 0.7-0.3 0.9-0.1 0 0 0-0.1-0.1-0.1 0.1-0.1 0.4 0 0.6-0.1 0-0.7 0.6-0.8 0.7 0.1 0.6-1.1 0.2-0.9 1-0.7 0.6-1.6 1-2.3 1.5-0.2 0-0.3 0.1-0.5 0.1 0-0.1-0.4-0.9-0.5-1 0-0.3 0-0.6-0.3-0.7 0-0.3-2.6-3.1-2.6-3.1v-0.1c-0.2-0.2-0.4-0.5-0.7-0.7h-0.1v-0.5c-0.1 0 0 0.6-0.1 0.7-0.2-0.2-0.5-0.6-0.7-0.7-0.3 0.1 1.2 2.1 1.3 2.1 0 0.2 0.1 0.5 0.3 0.5 0.1 0.1 0.2 0.1 0.3 0.2 0 0.1 0.1 0.3 0.2 0.3 0.1 0.3 0.1 0.7 0.3 0.9 0.6 0 0.8 1 1.1 1.3 0.1 0 0-0.1 0-0.1 0.1 0 0.1 0.1 0.1 0.2h0.2c0.1 0.1 0.1 0.1 0.2 0.1 0.1 0.2 0.3 0.3 0.5 0.5l0.2 0.2c0.3 0.1 0.4 0.3 0.1 0.5 0 0 0.1 0 0 0 0.2-0.1 0.4 0 0.6 0.4 0.2-0.1 2.1-0.6 2.1-0.9h0.2c0 0.2 0.1 0.5 0.1 0.5s0 0 0.1 0h-0.1c0.5 1.9-2 3.9-2.5 5.4-0.1 0.1-0.1 0.2-0.2 0.3l-0.1 0.1c-0.1 0.2 0.1 0.7-0.2 0.8-0.2 0.4-0.1 0.8 0.2 0.9-0.1 0.1-0.1 0.3 0 0.4 0 0.2 0.2 0.9 0.4 0.9 1.5 1-0.7 3.7-1.5 4.1 0.1 0.2 0.3 0.7 0.3 0.9 0 0 0-0.1 0.1 0 0 0.2 0.1 0.5 0.1 0.7s-1.3 0.9-0.8 1.1c0 0.3 0 0.6-0.1 0.9-0.1 0.1-2.1 2.7-2.1 2.5-0.1 0-0.2 0-0.3 0.1-0.2 0-0.4-0.1-0.5 0.1-0.5 0-1 0.3-1.4 0.3 0 0 0-0.1-0.1-0.1s-0.1 0-0.1 0c0-0.2 0-0.4-0.2-0.5 0-0.1 0.1-0.1 0.1-0.1 0.2-2-4.3-5-3-7.2 0-0.2 0.1-0.4 0.2-0.6 0.3-0.4-0.5-1.3-0.2-1.5 0-0.5-0.3-0.6-0.5-0.9v-0.1s-0.1-0.1-0.1-0.1c0-0.2-0.1-0.3-0.2-0.3-0.3-0.3-0.6-0.6-0.9-0.8 0-0.1-0.2-0.2-0.2-0.3-0.1-0.1-0.1-0.2-0.2-0.3 0.1-0.1 0.1-0.2 0.1-0.4h0.1c0-0.1-0.1-0.1-0.1-0.1 0-0.1 0.1 0 0.1-0.1s-0.1-0.1-0.1-0.2c0-0.2-0.1-1-0.1-1.1h-0.2c0-0.1 0-0.1-0.1-0.2-0.1 0-0.1-0.1-0.2-0.1v0.1c-1 0.5-2-0.7-3.5 0.4-1.1 0.7-2.3 0.1-3.3 0-0.2-0.2-0.5-0.3-0.8-0.4 0.1-0.1-0.1-0.1-0.1-0.2h-0.1c0-0.2-0.1-0.4-0.2-0.5s-0.2-0.1-0.3-0.2c-0.2-0.3-0.3-0.3-0.3-0.4h-0.1c-0.1-0.1-0.3-0.2-0.2-0.3-0.1 0-0.1 0-0.1 0.1-0.1 0-0.1 0-0.2-0.1-0.1 0-0.1 0-0.2-0.1 0-0.2 0-0.9-0.4-0.9 0.7-0.5-0.1-1.6 0.2-2.1 0-0.2-0.2-0.3-0.3-0.5h-0.1c0.1-0.8 2.1-4.3 2.1-4.2-0.2-0.9 0.9-1.4 1.1-2.2 0.1 0 0.1 0 0.1-0.1-0.2-0.2-0.5-0.5-0.8-0.3h-0.3v-0.5c-0.1 0-0.2-0.1-0.2-0.1 0.3-0.7 0-1.1 0-1.7 0-0.1 0.2-0.1 0.3-0.2 0-0.1 0.2-0.2 0.3-0.1-0.6 0.2 3.5-0.9 2-1.1 0-0.1-0.1 0-0.1-0.1s0-0.1 0-0.1c-0.1-0.2-0.4-0.3-0.5-0.5-0.2 0-0.3-0.1-0.6-0.1h-0.1v-0.1s-0.1 0-0.1-0.1c0-0.2 0.3-0.1 0.4-0.2 0.1 0 0.1 0.1 0.2 0.1 0.1-0.1 0.2-0.1 0.4-0.1 0-0.1-0.1-0.3-0.1-0.4h0.2v0.1h0.4v-0.1c0.3-0.4 0.5-0.6 0.9-0.8 0-0.1 0.1-0.1 0.2-0.2 0 0 0.2-0.3 0.2-0.5 0.2-0.2 0.4-0.3 0.7-0.3h-0.1c0.1-0.2 0.3-0.2 0.4-0.1 0.1 0 0.1-0.2 0.2-0.2 0-0.1-0.1-0.1-0.1-0.2v-0.1l-0.1-0.1c0.1-0.1 0-0.2-0.1-0.3v-0.1c-0.1-0.1-0.1-0.2 0-0.2v-0.1c0.2-0.1 0.4-0.2 0.6-0.4 0.1 0.1-0.1 0.3 0.1 0.4h0.1c0 0.1 0 0.1-0.1 0.1 0 0.1-0.1 0.1-0.1 0.2h0.2v0.1c-0.1 0.1-0.2 0-0.3-0.1v0.1h0.1c0 0.1 0.1 0.1 0.1 0.2 0.1 0 0.2 0.1 0.3 0 0 0.1-0.1 0.1 0 0.1 0.2 0 0.3-0.1 0.5-0.2h0.1c0.1 0 0-0.1 0.1-0.1v0.1c0.1 0.3 1.3-0.4 1.4-0.4 0.1 0.2 0.5 0.2 0.5-0.1h0.3c0.1-0.1 0-0.2-0.1-0.3 0-0.5-0.2-0.5 0.2-0.8 0.1 0.1 0.5 0.3 0.6 0.1 0-0.2-0.1-0.3-0.1-0.4-0.2 0.1-0.3-0.1-0.4-0.2 0.1-0.4 1-0.3 1.2-0.3v-0.1c0.2-0.1 0.4-0.1 0.5-0.2-0.1-0.1-0.3 0-0.5-0.1 0 0-0.1-0.1 0-0.1-0.4 0.1-0.8 0.3-1.1 0.4-0.1 0-0.2 0.1-0.3 0.1l-0.1-0.1s-0.1 0-0.1 0.1c-0.1-0.2-0.2 0-0.4-0.2-0.1-0.3 0-0.7-0.1-0.9h0.1s0-0.1 0.1-0.1c0.3-0.1 0.3-0.5 0.6-0.6 0-0.1 0-0.1-0.1-0.2-0.3-0.2-1.3 0.2-0.9 0.5-0.2 0.1-0.4 0.5-0.7 0.6 0.1 0.1-0.1 0.1-0.1 0.2-0.1 0-0.1 0-0.1 0.1 0 0 0 0.1 0.1 0.1-0.1 0.9 0.1 0.3 0.6 0.8l-0.1 0.1v0.1c-0.1 0.1-0.3 0.2-0.4 0.3 0 0.4 0 0.6-0.1 0.9-0.2 0.1-0.4 0.1-0.5 0.2v0.1c-0.1 0-0.3 0.1-0.4 0.1 0-0.2-0.1-0.3-0.2-0.2 0.1 0 0-0.1 0.1-0.2-0.1-0.1-0.3-0.2-0.4-0.5-0.1-0.1-0.2-0.3-0.3-0.4-0.1 0-0.1-0.1-0.2-0.1 0 0.1-0.1 0.3-0.2 0.2-0.1 0.1-1 0.9-1.2 0.3 0.1-0.1 0.2-0.1 0.1-0.2-0.4 0.2-0.1-0.4-0.1-0.2v0.1c0.1 0 0.1-0.1 0.1-0.1l0.1-0.1c-0.1 0-0.1 0.1-0.1 0.1 0-0.1-0.1-0.1-0.1-0.1-0.1-0.1-0.1-0.3-0.1-0.4s-0.1 0 0-0.1 0.1-0.2 0.3-0.3v-0.1c0.1-0.1 0.2 0 0.3-0.1 0-0.1-0.1 0-0.1-0.1s0.1 0 0.2-0.1c0-0.1 0.4-0.2 0.4-0.3 0.2-0.1 0.3-0.5 0.5-0.4 0.1-0.1 0-0.1 0-0.2 0 0 0.1-0.1 0.2-0.1 0-0.2 0.2-0.3 0.2-0.5 0.1-0.1 0.1-0.1 0.1-0.2 0.1 0 0.2-0.1 0.2-0.2 0.1 0 0.1 0 0.1-0.1h-0.1c0-0.1 0.2-0.1 0.2-0.1s0 0-0.1 0c0-0.1 0.1 0 0.2 0 0.1-0.1 0-0.1 0-0.2-0.1 0-0.3 0.1-0.5 0.1 0.1-0.1 0.3-0.1 0.2-0.2h-0.2c0.2 0.1 0.2 0.2 0.3 0.1 0 0 0-0.2 0.1-0.1v0.1h0.1c0.1 0.1 0.4 0 0.3-0.2h-0.1c0-0.1 0.2-0.2 0.2-0.2 0.2-0.2 0.4-0.2 0.6-0.2v0.1s0.1-0.1 0.2-0.1 0.1 0 0.1 0c0-0.1-0.1 0-0.1-0.1 0.2 0 0.3 0 0.3-0.2 0 0-0.1 0.1-0.2 0.1 0-0.1 0.1 0 0.2-0.1-0.1 0.1-0.1 0.2 0 0 0.1 0.1 0.1-0.1 0.3 0 0.1 0 0-0.1 0.1-0.1s0.1 0 0.2 0v-0.1h0.1c0 0.1-0.1 0.1-0.1 0.2 0 0.3-0.2 0 0.3-0.2v0.1c0.1 0 0.1-0.1 0.1-0.2 0.1-0.1 0.2-0.1 0.3 0 0 0-0.1 0-0.1 0.1l0.1 0.1c0.2-0.1 0.4-0.3 0.7 0-0.2 0.1-0.3 0.1-0.5 0.1 0.1 0.2 0.8 0 0.8 0h0.2c0 0.1-0.2 0-0.2 0 0 0.1 0.3 0 0.4 0.1 0.7-0.3 1.2 0.2 1.8 0.1 0.1 0.1 0.2 0.1 0.3 0.1 0.4 1.2-1.5 0.3-2.1 0.5 0.1 0.2 0.3 0.1 0.4 0.2 0.1 0 0.2 0 0.3 0.1v0.2c0.1 0.1 0.2 0.1 0.2 0.3 0.1 0.1 0.4 0 0.5 0.1 0.2 0 0.4 0.1 0.4-0.1 0-0.1-0.1-0.1-0.1-0.1-0.2 0.1-0.3 0-0.4-0.1 0 0 0-0.1 0.1-0.1 0.3 0 0.7 0.2 1 0.1 0-0.2-0.2-0.2-0.3-0.3 0.3-0.4 0.5-0.4 0.9-0.4h0.1c0.1-0.3 0-0.4-0.2-0.4 0-0.3 0-0.3-0.2-0.4 0.3 0 0.7-0.1 0.8 0.1-0.1 0.1-0.3 0.1-0.3 0.2 0.2 0.1 0.4 0.1 0.4 0.2 0.2 0 0.4 0 0.5-0.1v-0.2c0.1 0 0.2-0.1 0.2-0.1 0.3-0.1 0.5-0.4 0.8-0.3v-0.1c0.1-0.1 0.2-0.1 0.4-0.2h-0.1c0 0.1 0.1 0.1 0 0.2 0.1 0 0.2-0.1 0.3 0 0.1-0.2 1-0.5 1.1-0.2h0.2v-0.1c0.3-0.1 0.2-0.3-0.1-0.3-0.2 0-0.4 0-0.5-0.1 0.2 0 0.4 0 0.6 0.1 0 0 0.1 0 0.1-0.1 0.2 0 2.3 0.2 2.3 0-0.1-0.1-0.3-0.1-0.4-0.2h-0.4v-0.1c-0.1-0.1-0.1-0.1-0.1-0.2h-0.1s0-0.1-0.1-0.1c0.1-0.1 0.2-0.1 0.3-0.2 0-0.1-0.1-0.3 0-0.4 0.4-0.1 1.2-0.2 1 0.3 0.4 0.3 0.7 0.7 1.1 0.8 0 0.1 0 0.2 0.1 0.2-0.1 0.1-0.1 0.2-0.1 0.3-0.2 0.1-0.4 0.2-0.6 0.2 0 0.2 1.1 0.1 0.9 0.1v-0.1c0.1-0.1 0.2-0.1 0.2-0.2v-0.1c0.2-0.2 0.1-0.3-0.2-0.4 0.1-0.1 0.2-0.1 0.4-0.2 0-0.1 0.2 0.1 0.4 0.2-0.1 0.1-0.1 0 0 0-0.1 0-0.1 0.1 0 0 0 0-0.1 0.1 0 0zm-18.6 8.9h0.1c0-0.1 0-0.1-0.1 0 0.1-0.1 0.1-0.1 0 0 0 0 0.1-0.1 0 0 0.1 0 0 0 0 0zm3-7.1h0.2c-0.2-0.1-0.2 0-0.2 0zm30.9-5.6c0.1 0 0.2-0.1 0.3-0.1-0.1 0-0.3-0.1-0.3 0.1zm-1.4 0.5c0.1-0.1 0-0.1 0 0zm-28.4 4.6c0.1 0.1 0.1 0.1 0 0 0.2 0.1 0.1 0 0 0zm-0.9 0.4zm-0.4 0.5h0.1-0.1zm43-5.3v0c0.1 0.1 0.2 0.1 0.2 0h-0.2s0.1 0 0 0zm-44.3 7.1v0c0.1 0 0.1 0 0 0 0 0 0.1 0 0 0 0.1 0 0 0 0 0zm-0.1 0.1c-0.1 0-0.2 0-0.2 0.1 0.1 0 0.2 0 0.2-0.1v0c-0.1 0 0 0 0 0zm45.7-6.6c-0.1 0-0.1 0 0 0-0.1 0-0.1 0 0 0 0 0-0.1 0 0 0zm-46.8 7.7c0.1 0 0.1 0 0 0v0 0zm-0.2 0.3c0.1-0.1 0.1-0.1 0 0 0.1-0.1 0.1-0.1 0 0 0.1-0.1 0-0.1 0 0 0.1-0.1 0-0.1 0 0zm1.2 1.1v0c0.1-0.1 0 0 0 0zm44.6-6.6v0c0.1 0.1 0 0.1 0 0 0.1 0 0.1 0 0 0 0.1 0 0.1 0 0 0 0.1 0 0.1 0 0 0 0.1 0 0.1 0 0 0 0 0 0.1 0 0 0zm-42.8 7.5h-0.2c0.1 0.1 0.3 0.1 0.2 0zm7.7 1.5c-0.1 0.1-0.3 0.2-0.5 0.2-0.2 0.4 0.1 0.8 0.7 0.4v-0.3s0.1 0 0.1-0.1-0.2 0-0.2-0.2h0.1c0.1-0.1 0.3-0.1 0.3-0.3-0.2 0.2-0.3 0.3-0.5 0.3-0.2 0.1 0.2 0 0 0zm-2.3 0.7-0.1 0.6c-0.1 0-0.1 0.1-0.2 0v0.1c-0.1 0.1 0 0.3 0 0.5h-0.1c0 0.1-0.1 0.1 0 0.3l-0.1 0.1 0.2 0.2c0.2 0.4 0.7 0.2 1.1 0.2 0.3-0.4 0.7-0.5 1.1-0.5 0.1 0.1 0.2 0.2 0.3 0.1 0.1 0.1 0.2 0.2 0.3 0.1 0.1 0 0.2 0.1 0.3 0.1 0.4 0.3 1.4-0.2 1-0.8-0.5-0.1-1.2-0.8-1.8-0.7v-0.1c-0.1 0-0.1 0.1-0.1 0.1-0.2 0.2-0.8 0.4-0.9 0.1-0.1 0-0.2-0.1-0.4-0.1 0.1-0.1 0.2-0.1 0.3-0.3-0.2 0.1-0.4 0-0.6-0.1h0.1c-0.1-0.1-0.3 0-0.5 0 0 0 0 0.1-0.1 0.2 0.3-0.2 0.2-0.2 0.2-0.1v0zm-5.5 1.1c-0.1 0-0.1 0.1 0 0.2-0.2 0.3 0.3 0.4 0.5 0.5 0.1 0.3 0.3 0.5 0.6 0.5 0.1 0 0.3-0.1 0.4 0 0 0-0.1 0.1 0 0.1 0.4 0 0.7 0.2 0.9 0.5-0.1 0-0.1-0.1-0.1-0.1-0.3-0.1-0.4-0.1-0.4 0.3 0.3 0.1 0.3 0.2 0.1 0.4v0.1c-0.1 0.1-0.1 0.4-0.3 0.2 0 0.1 0 1-0.4 0.5-0.4 0.1-0.7-0.1-0.4-0.4 0.3 0.1 0.6-0.1 0.8-0.2 0.2-0.2-0.1-0.5-0.2-0.7-0.2 0-0.2-0.1-0.3-0.2-0.2 0.1-1.2-0.5-1.3-0.5-0.1-0.1-0.2-0.1-0.3-0.2 0-0.2-0.1-0.3-0.2-0.4-0.3 0-0.9 0-1.1 0.5-0.2 0.2-0.8-0.1-1.1 0.2 0 0.2-0.6 1.2-0.6 1.1-0.2 0.3-0.5 0.7-0.2 0.9-0.2 0.1-0.3 0.3-0.3 0.5 0.1 0-1.1 0.5-1.1 0.5-0.1 0.1-0.2 0.1-0.2 0.2-0.1 0.5 0.1 0.6 0.7 0.4 0 0 0-0.1 0.1-0.1 0 0 0 0.1 0.1 0.1 0.4-0.1 0.5-0.2 0.8-0.4h0.1c0.1-0.3 0.5-0.4 0.8-0.5 0.2-0.2 1.4-0.4 1.7-0.4 0.3-0.2 0.5-0.3 0.8-0.1 0.1 0 0.1-0.1 0.2-0.1 0 0.1-0.1 0.2-0.1 0.3 0.3 0.3 0.3 0.6 0 0.8 0 0.2 0.1 0.3 0.3 0.3 0-0.1-0.1-0.1 0-0.1 0 0.1 0.1 0.2 0.1 0.2 0.4 0.1 0.9 0.1 1.4 0.1 0.6 0.5 0.3 0.3 1.2 0.5 0.1 0.1 0.2 0.2 0.4 0.1 0.3-0.2-0.1-1.8 1.1-1.1 0 0.2 0.6 0.1 0.7 0.2 0 0.1 0.1 0.1 0.1 0.1 0.3-0.1 0.6-0.1 0.8 0 0.4 0 0.8 0 1.1-0.3 0 0 0-0.1 0.1-0.1s0.1 0 0.2 0c0 0.1 0.1 0.1 0.1 0.1h0.1 0.2c0.6 0.1 0.5-0.9 0.6-1.2v-0.1c0.1-0.1 0-0.4-0.1-0.6v-0.2c0-0.1 0.1-0.1 0.1-0.2h-0.1c-0.2 0-0.5 0.2-0.6 0.3s-0.2 0.1-0.3 0.1c-0.2-0.2-0.5-0.2-0.8-0.2v0.2c-0.2 0.1-0.4 0.1-0.5-0.1 0 0-0.4 0.1-0.5 0.1 0.1 0 0.2 0 0.2-0.1-0.1 0-0.2 0.1-0.3 0 0-0.1 0.1 0 0.1-0.1s-0.1 0-0.1-0.1v-0.1h-0.2c0.1-0.1 0.1 0 0.2 0 0-0.2-0.2-0.1-0.3-0.2v-0.1c0.1 0 0.1 0.1 0.2 0.1 0-0.1-0.1-0.1 0-0.2-0.1-0.1-0.1-0.2-0.1-0.3-0.1 0-0.1 0-0.2 0.1-0.1-0.1 0-0.2-0.1-0.3 0-0.1 0.1-0.1 0.1-0.1s-0.1 0-0.2 0c-0.2-0.2-0.6-0.1-0.8 0.1 0 0.1 0.1 0.1 0.1 0.1 0 0.1-0.2 0.1-0.1 0.1-0.1-0.1-0.2-0.1-0.3-0.1h0.1c-0.1 0.2 0.1 0.4 0.2 0.5h-0.1c0 0.1 0 0.1 0.1 0.1s0.2 0.1 0.4 0.1c0 0 0 0.1 0.1 0.1 0 0 0.1 0 0.1 0.1-0.1 0.1-0.1-0.2-0.3-0.1 0.1 0.1 0.1 0.1 0.1 0.2-0.1 0-0.2-0.1-0.3 0 0 0.1 0.1 0.1 0.1 0.2 0 0-0.1-0.1-0.2 0 0 0.1 0.2 0.2 0.1 0.3-0.1 0-0.1-0.1-0.1 0 0 0 0 0.1-0.1 0.1 0-0.1-0.1-0.2-0.2-0.1 0 0 0 0.1-0.1 0.1-0.1-0.1-0.1-0.1-0.1-0.3l-0.2-0.2 0.2-0.2s0.4 0.2 0.4 0c0.4 0.2-1-0.1-0.8-0.1 0-0.1 0.1 0 0.1-0.1-0.1 0 0 0-0.1 0.1l-0.5-0.5c-0.1-0.1-0.1-0.3-0.1-0.6h-0.1c-0.2-0.2-0.4-0.2-0.7-0.3v-0.1h-0.2 0.1c0-0.1-0.2-0.1-0.4-0.1v-0.1c-0.2-0.1-0.4-0.2-0.4-0.5 0 0-0.1-0.1 0 0 0.1 0 0-0.1-0.1 0 0 0 0 0.1-0.1 0.1 0-0.1 0.1-0.1 0-0.2-0.1 0-0.1 0.2-0.2 0.2-0.2 0-0.2-0.1-0.2-0.2-0.1 0-0.3 0.1-0.4 0.1-0.1 0.1 0.1 0 0 0zm5.2 1.1c0 0.1-0.2 0.1-0.2 0.3h0.3v-0.1c0.1 0.1 0.2 0 0.4 0 0-0.1-0.1 0 0-0.1 0 0 0.1 0 0.1-0.1-0.1-0.2-0.4-0.1-0.6 0 0 0.1 0.2-0.1 0 0zm-1.4 1c0.1 0 0.2 0.1 0.3 0.1v-0.1h-0.3c0.1 0 0.1 0 0 0 0.1 0 0.1 0 0 0 0 0 0.1 0 0 0 0.1 0 0 0 0 0 0.1 0.1 0 0 0 0zm33.1-2.2v0c-0.1 0 0 0 0 0zm-23.9 4.5c0.1 0 0.1-0.1 0 0 0.1-0.1 0-0.1 0 0 0.1 0 0 0 0 0zm15.2 0.3s0.1 0 0 0c0.1 0 0.1 0 0 0zm-24.8 15.8v0c-0.1-0.1-0.1 0 0 0-0.1 0-0.1-0.1 0 0 0 0-0.1-0.1 0 0-0.1 0-0.1 0 0 0z"></path> <path class="st2" d="m14.5 9.1v0c0.1 0 0 0 0 0v0 0 0"></path> <path class="st2" d="m12.4 16.3v0 0"></path> <path class="st2" d="m-9.1 8.5v0.1c0.1 0 0-0.1 0.1-0.1h0.6c0.3-0.1 1.1-0.5 1.5-0.2 0 0.1-0.1 0.1-0.2 0.1h0.1c-0.3 0.1-0.6 0.3-0.9 0.2v-0.1c-0.4 0.2-0.8 0.3-1.3 0.3 0.2 0-0.7 0.2-0.7 0.2-0.1-0.2 0.1-0.2 0.2-0.4 0-0.1 0-0.1-0.1-0.2-0.3 0.2-0.5 0.2-0.7 0 0.1-0.2 0.5-0.1 0.7-0.1 0 0 0.1 0 0.1 0.1 0.2 0 0.4-0.2 0.6 0.1 0.1-0.1 0.1-0.1 0.2-0.1-0.1 0.1-0.4 0-0.4 0.2 0.1-0.1 0.2-0.1 0.2-0.1 0.1 0 0 0 0 0m-0.2-0.1v0c0 0.1 0.1 0 0 0 0.1 0 0.1 0 0 0 0 0 0.1 0 0 0"></path> <path class="st3" d="m25.1 4.7c0 0.1 0.1 0 0.1 0.1h-0.2l0.1-0.1c-0.2-0.1-0.4 0.1-0.5-0.1 0-0.1 0.3-0.1 0.2-0.3 0 0-0.1 0-0.1-0.1 0.1 0 0.1-0.1 0.1-0.1 0.1 0 0.2-0.1 0.3-0.2-0.1 0.1-0.1 0.2-0.2 0.1l0.3-0.3v-0.1h0.1v-0.1h-0.1 0.1c0.1 0 0.1-0.1 0.2-0.1 0.1-0.2 0.4-0.3 0.6-0.3l0.1-0.1c0.4 0 1.3-0.6 1.6-0.4-0.5 0.3-1 0.6-1.6 0.7v0.1c-0.1 0.1-0.2 0.1-0.3 0.1v0.1s-0.1 0-0.1 0.1c0.1 0.6-1.1 0.7 0.5 1-0.1 0.2-0.5 0-0.6 0.1h-0.4c0.1 0-0.1-0.1-0.2-0.1 0 0 0.1 0 0 0 0 0.1 0.1 0 0 0z"></path> <path class="st2" d="m-6.6 8.1c-0.1 0 0 0 0 0"></path> <path class="st4" d="m-10.3 11.3c0.2 0 0.3-0.4 0.5-0.4l0.1-0.1c0-0.1 0 0-0.1-0.1 0.1-0.3 0.5-0.2 0.8-0.3 0 0.1 0.1 0.1 0.2 0.1 0 0.1-0.1 0.1-0.1 0.1s0.1 0 0.1 0.1c-0.2 0.2-0.3 0.2-0.4 0.3-0.1 0.5-0.2 0.5-0.7 0.8-0.1 0-0.1-0.1-0.1-0.1-0.1 0 0 0.1 0 0.1h-0.2c0 0.1 0.1 0.1 0.2 0.2h-0.1c0-0.2-0.2-0.1-0.2-0.2-0.1 0-0.3 0-0.4 0.1 0 0.1 0.1 0 0.1 0.1-0.1 0.1-0.3 0.2-0.5 0.4v0.1c-0.1 0.1-0.4 0.2-0.5 0.4-0.4 0.1-0.7 0.2-1.1 0.3 0 0.1 0.1 0.1 0.2 0.1 0 0.2-0.3 0.2-0.5 0.3v0.1c-0.1 0-0.2 0-0.2 0.1-0.1 0-0.2 0.1-0.3 0.2-0.3 0.8-1.2 0.7-0.7 1.3 0 0.2 0 0.5-0.1 0.6 0.3-0.2 0.7-0.2 1-0.1 0.1 0.1 0.2 0.1 0.2 0.3 0.4 0.2 0.8 0.1 1.3 0.2 0.1 0.4-0.7 1.7 0.4 1.3 0.1 0 0.1 0.1 0.1 0.1s0.1 0 0 0v-0.2c0.1-0.1 0.2-0.2 0.2-0.3 0.1-0.3 0.1-0.6 0-0.9 1.5-0.8 0.7-1.4 1.4-2.1 0.1 0 0.1-0.1 0.1-0.1v-0.3s-0.1 0 0-0.1 0.2-0.2 0.2-0.3v-0.1c0.2-0.7 1.4-0.2 1.7-0.2-0.1 0.2 0 0.3 0.4 0.2 0.1 0 0.1-0.1 0.1-0.1 0 0.1-0.2 0.1-0.2 0.3 0 0-0.1 0.1-0.1 0.2l-0.1 0.1c0 0.1 0.1 0 0.1 0.1-0.1 0-0.1 0.1-0.1 0.1h0.2c0.1 0.4 0.5 0 0.6-0.1 0.2 0.1 0.3-0.2 0.4-0.3v-0.1c0.2-0.1 0.2-0.2 0.3-0.3 0 0.1 0.1 0.2 0 0.3 0.1 0.1 0.2 0.2 0.2 0.4l-0.1 0.1h0.2c0 0.1 0.1 0.1 0.1 0.3l-0.1 0.1c0.1 0.1 0 0.1 0.2 0.1 0 0.1-0.1 0.2-0.2 0.2 0 0 0 0.1-0.1 0.2h0.1c0 0.1 0.1 0.1 0.2 0.2v0.2c0.1 0 0.2 0.1 0.3 0 0 0 0 0.1 0.1 0.1s0.2 0 0.4 0c0 0.1-0.1 0.1-0.2 0.1 0 0.1 0.1 0 0.2 0 0.1 0.1 0 0.1 0 0.2 0.4 0.2 0.3-0.3 0.3 0.4l0.1 0.1c0 0.3-0.7 0.6-1 0.6-1.1 1-3.6 0.5-4.2 2.3l-0.1 0.1c0-0.4 1.8-1.5 2.2-1.1l-0.7 0.5s0.1 0 0.2 0.1c0.1 0 0.1-0.1 0.2-0.1 0 0.1-0.1 0.2-0.2 0.3h0.1c0 0.1 0 0.2 0.1 0.3h0.2v0.1c0.2 0.1 0.4 0.1 0.6 0 0.1 0 0.2 0.1 0.2-0.1 0.1-0.1 0.2-0.3 0.4-0.5v0.2s0.1 0 0.1 0.1c-0.1 0.2-0.3 0.3-0.5 0.4h0.1c-0.3 0.2-0.6 0.3-0.9 0.5-0.3-0.1-0.5 0.6-0.7 0.5 0-0.1-0.1-0.1-0.1-0.1s0.6-0.7 0.5-0.7c0-0.1 0.1-0.1 0.1-0.2s-0.1 0-0.1 0.1c-0.2 0.1-0.4 0.3-0.8 0.3v0.1c0.1 0-0.2 0.2-0.3 0.1-0.1 0.2-0.8 0.5-0.7 0.8l-0.1 0.1c0.1 0.1 0.1 0.1 0.1 0.2 0.1 0 0.1 0 0.1-0.1 0 0.2-0.3 0.1-0.3 0.2h-0.1s-0.8 0.4-0.8 0.4c0.1 0.1 0.3-0.1 0.5-0.1-0.2 0.2-0.4 0.2-0.7 0.3v0.1c0 0.2-0.2 0.4-0.4 0.6-0.1 0-0.1-0.1-0.2-0.1-0.2 0.4 0.1 0.5-0.3 0.9 0-0.1 0.2-0.2 0-0.4 0 0-0.1 0-0.1-0.1s0-0.1 0.1-0.2c-0.1 0.1-0.1 0.1 0-0.2-0.1 0.1-0.1 0.2-0.1 0.5-0.1 0-0.1-0.1-0.2 0 0 0.1 0.1 0.1 0.2 0.2 0 0.1-0.1 0.4 0 0.4v0.3c-0.1-0.1-0.2 0-0.2 0.1h0.2c0 0.1-0.1 0.2-0.3 0.2v0.1l-0.1 0.1h0.1c-0.1 0.3-1 0.5-1 0.8-0.7 0.8-0.3 0-0.9 1.1 0.1 0.2 0 0.6 0.2 0.9-0.1 0.3 0.1 1.1 0 1.4-0.1 0-0.1 0.1-0.2 0.1 0-0.2-0.1-0.3-0.2-0.3 0-0.1-0.1-0.2-0.1-0.3-0.1 0-0.1-0.1-0.2-0.2 0-0.1 0.1-0.1 0.1-0.2h-0.1c0-0.2 0.2-0.5-0.1-0.6-0.1-0.1-0.1-0.2-0.3-0.3-0.2 0-0.2 0.2-0.5 0.2v-0.1c0-0.1-0.5-0.2-0.6-0.1h0.1s-0.1 0.1-0.2 0.1l-0.1-0.1c-0.1 0 0 0.1-0.1 0.1-0.2 0.1-0.4 0-0.5 0.2 0 0.1 0.1 0 0.1 0 0 0.1-0.1 0.1-0.1 0.2s0.2 0 0.2 0.2c-0.2-0.2-0.3-0.2-0.4 0-0.1 0-0.2 0-0.2 0.1h-0.1c0-0.1-0.2-0.2-0.3-0.2v0.1c-0.3-0.1-0.6 0-0.9 0.2 0 0 0-0.1-0.1-0.1s0 0.1 0 0.2c-0.2 0.1-0.3 0.4-0.6 0.4v0.1c-0.1 0-0.1 0.1-0.1 0.1h-0.1c0 0.1 0 0.1-0.1 0.1v0.1c-0.1 0.1-0.2 0.4 0 0.6v-0.2c-0.1 0.5-0.2 1.1-0.3 1.6 0 0.2 0 0.5 0.1 0.6 0.1 0.4 0.4 1.1 0.9 1l0.1 0.1 0.8-0.3c0.1 0.1 0.4 0 0.3-0.1 0.3-0.4 0.1-0.5 0.4-0.9 0.8-1 0.9 0 1 0.3 0 0.1-0.1 0.1 0 0.2 0 0.2 0 0.4-0.1 0.5 0-0.1 0-0.1-0.1-0.2l-0.1 0.1c0 0.1 0 0 0.1 0.1 0 0.4-0.1 0.7-0.2 1 0.2 0 0.9-0.1 1-0.2 0.3 0 0.6-0.2 0.6 0.1 0.1 0.1 0.2 0 0.3 0.1-0.1 0.3 0 0.7 0 1h-0.1v0.1s-0.1 0.1 0 0.2c-0.1 0.3 0.3 0.7 0.5 0.8 0 0.1 0 0.1 0.1 0.1 0 0.1 0.1 0 0.2 0 0 0 0.1 0 0.1 0.1 0.3-0.1 0.5-0.3 0.6-0.4h0.1 0.1c0.3-0.1 0.6 0.3 0.8 0.5v-0.3c0.2-0.1 0.2-0.3 0.4-0.4-0.1-0.3 0-0.5 0.2-0.7h0.2s0-0.1 0.1-0.1c0.3-0.1 0.5-0.2 0.7-0.4 0.2 0 0.5-0.3 0.1 0.2 0 0.1 0.1 0.2 0.1 0.3 0.1-0.1 0.3-0.2 0.5-0.3 0-0.1-0.1-0.2 0-0.3 0 0 0.1 0.1 0.1 0.2h-0.1s0 0.1 0.1 0.1v-0.1s0 0.1 0.1 0.1c0.3 0 0.5 0.1 0.5 0.3 0.3 0 0.4-0.2 0.7-0.1 0.3 0.2 0.6 0.2 0.8-0.1 0-0.1-0.1 0-0.1 0 0.2 0 0.4-0.1 0.7-0.1-0.1 0.1-0.2 0.1-0.2 0.1 0 0.1 0.1 0.1 0.2 0.2 0.2-0.1 0.4 0 0.5 0.1 0 0.1-0.1 0.2-0.1 0.2h0.1c0.1 0 0.1 0.1 0.1 0.1 0.3-0.1 0.9 0.3 0.8 0.6 0.2 0.1 0.4 0 0.5 0.3 0.7 0.1 1.2 0.1 1.9 0.3 0 0 0 0.1 0.1 0.1h0.1c0.2 0.2 0.2 0.6 0.4 0.8h0.1v0.1c0.2 0 0.2 0.2 0.1 0.4h-0.1c0 0.1-0.1 0.1-0.1 0.2 0.1 0-0.3 0.4-0.2 0.4h0.1v0.2c-0.1 0.3-0.1-0.1 0.2 0 0-0.1 0-0.1-0.1-0.1 0-0.3 0.7-0.4 0.9-0.3 0.1 0.7-0.1 0.1-0.4 0.6h0.3v0.2c0.1-0.1 0.1-0.3 0.3-0.4 0.1-0.7 0.7-0.3 1.1-0.2v0.1c0.1 0 0-0.1 0.1-0.1 0.4 0.1 0.1 0.2 0.3 0.3 0 0.1-0.1 0.2 0 0.3 0.1 0 0-0.2 0.1-0.3v0.1c0.8 0 1.2-0.2 2.1 0.1 0.1 0.2 0.4 0.3 0.5 0.4 1.7 0 0.9 2.4 0.2 3.2 0 0 0-0.1-0.1-0.1-0.2 0.1 0.2 2 0.2 2-0.2 0.2-0.2 1.5-0.3 1.8-0.1 0.1-0.2 0.1-0.3 0.2v0.2c-0.3 0.1-0.3 0-0.6 0.1h-0.1s-0.1 0-0.1 0.1c-0.1-0.1-0.2 0-0.1 0.1-0.1 0-0.2 0.1-0.3 0.2 0 0.1 0.1 0 0 0.1-0.3 0-0.7 0.3-0.8 0.6v0.2h-0.1c0 0.2 0.1 0.6 0.2 0.8h0.1c-0.2 0.5-0.1 1.2-0.5 1.6 0.2-0.1 0.3-0.2 0.3-0.4h-0.1c-0.1 0-0.1-0.1-0.1-0.1 0.1 0.2 0.1 0.3-0.1 0.5 0 0.1-0.1 0.2 0 0.3 0.1 0 0.1-0.1 0.1-0.1 0 0.2-0.2 1-0.4 1.2s-0.4 0.2-0.6 0.2l-0.9-0.2s0-0.1 0.1 0c-0.1 0.1 0.7 0.8 0.9 0.8 0.1 0.2 0.1 0.4 0 0.6-0.4 0.5-0.9 0.7-1.5 0.6 0 0.2 0.2 0.2 0.2 0.3-0.1 0.1 0 0.3 0.1 0.4-0.3 0.1-0.6 0.2-0.9 0.2 0 0.2 0.3 0.5 0.5 0.5v0.1h0.1v-0.1c0.3 0.2 0.3 0.2 0 0.2-0.1 0-0.2 0-0.2 0.1s0.1 0.1 0.2 0.1c-0.2 0.2-0.1 0.4 0 0.6 0 0-0.1 0-0.1 0.1s0 0.1 0.1 0.1c-0.1 0-0.2 0-0.2 0.1h-0.1c-0.3 0.6 0.6 0.6 0.9 1-0.1 0.2-0.2 0.3-0.3 0.4 0 0.2 0.1 0.2 0.1 0.4-0.1 0.1-0.2 0.1-0.2 0.2 0.1 0.4 0.4 0.5 0.6 0.6-0.1 0.1-0.3 0-0.3 0.1 0.2 0.1 0.3 0 0.5 0.1v0.1l0.1 0.1c0.4 0.2 0.8 0.3 1.2 0.3-0.1 0.1-0.3 0.2-0.5 0.2 0 0.1 0 0.1 0.1 0.1h-0.4c0 0.1 0.1 0.1 0.2 0.2h-0.2s-0.1-0.1-0.2-0.1v0.1c-0.1 0-0.2 0-0.2-0.1v-0.1c-0.2 0.1-0.5-0.1-0.7 0 0-0.1 0.1-0.1 0.1-0.1-0.1 0-0.2 0-0.3-0.1v-0.1c0.1 0 0.2 0 0.4 0.1v-0.2c0.1 0 0.1 0.1 0.1 0.2l0.1 0.1c0.1-0.1 0.3 0 0.3-0.1-0.1 0-0.3 0-0.3-0.2 0-0.1 0.1-0.1 0.1-0.2-0.1 0-0.3 0.1-0.4 0 0.1-0.1 0-0.1 0-0.2h0.1c-0.1-0.1-0.2 0-0.3 0.1 0 0.1 0.1 0.3 0.2 0.4-0.2 0.1-0.6-0.2-0.4 0.1 0 0 0 0.1-0.1 0.1s0-0.1-0.1-0.1 0 0.1-0.1 0.1c0-0.1-0.1-0.1-0.2-0.1 0-0.1 0-0.1 0.1-0.1-0.1-0.1-0.1 0-0.2 0 0-0.1 0.1 0 0.2-0.1h-0.1l-0.1-0.1h-0.2v-0.1c0-0.1-0.1-0.1-0.1-0.1 0.1 0-0.4-0.5-0.4-0.5-0.1 0 0 0.1-0.1 0.1h-0.1c0.1-0.1 0-0.1 0.1-0.2 0 0-0.1 0-0.1-0.1 0 0 0-0.4-0.1-0.3 0 0.1 0.1 0.1 0.1 0.2h-0.1c-0.1 0 0 0 0 0h-0.2v-0.1s0-0.1-0.1-0.1v-0.1h-0.1l-0.1-0.1c0.1 0 0.1 0.1 0.2 0v-0.1h-0.2c0-0.1 0-0.1-0.1-0.2 0.1 0 0.1 0 0.1-0.1v0.1-0.1c-0.1 0 0 0 0 0.1h0.1c0.2 0 0.2 0.2 0.4 0.3v-0.1c0-0.1 0.1-0.1 0-0.1l-0.2-0.1v-0.1h-0.1v-0.2c-0.1-0.2-0.3 0-0.5-0.1-0.1 0-0.1 0.1-0.1 0.1-0.2 0 0-0.2 0-0.3s-0.1 0-0.1-0.1c0.1-0.1 0.1 0 0.2-0.1 0.1 0.1 0.2 0.1 0.3 0.2 0.1-0.1 0-0.1 0-0.3 0 0-0.1 0-0.1-0.1s0.1-0.1 0.1-0.1-0.1-0.2-0.2-0.3c0-0.1 0.1-0.1 0.1-0.2l-0.1-0.1c0-0.1 0-0.2-0.1-0.3 0-0.1 0-0.3-0.1-0.4h0.1c0-0.1 0-0.1-0.2-0.1-0.1-0.2-0.2-0.2-0.3 0 0 0.1 0.1 0.1 0.1 0.1-0.4 0.4-0.1 0.4-0.2 0.6h-0.2c0-0.2-0.2-0.4-0.2-0.5h0.1c-0.1-0.5-0.8-1.2-0.8-1.7h0.1c0-0.2 0-1.4-0.2-1.6 0-0.4-0.5-2.6-0.7-2.9 0.1-0.3-0.2-0.5-0.2-0.8-0.1 0-0.1-0.2 0-0.3-0.2-0.7-0.1-1.6-0.9-2v-0.1c-1.3-1.2-2.3-1.4-3.4-3.1-0.2-0.4-0.7-0.6-1-0.9 0-0.1 0-0.1 0.1-0.1 0-0.2 0.2-1.2 0.2-1.4-0.1 0-0.2 0.1-0.2 0.1-0.1 0-0.1-0.1-0.2-0.1 0.1-0.1 0-0.3-0.1-0.5 0.1-0.1 0.2-0.1 0.1-0.3 0.1-0.1 0.1-0.3 0.1-0.5 0.1-0.1 0.5-0.2 0.3-0.4 0 0 0.1 0 0.1-0.1-0.1-0.2 0.1-0.3 0.2-0.3 0-0.2 0.1-0.3 0.2-0.5 0 0-0.1 0-0.1-0.1 0-0.2 0-0.3-0.1-0.6 0 0 0.1 0 0.1-0.1 0-0.5-0.5-0.9-0.7-1.2-0.2 0.1-0.3 0.2-0.5 0.4 0 0.2 0.1 0.2 0.2 0.3-0.1 0.1-0.1 0.1-0.3 0.2 0-0.1 0-0.2-0.1-0.2 0 0 0 0.1-0.1 0.1-0.1-0.2-0.3-0.2-0.5-0.2v0.1c-0.1 0-0.1-0.2-0.2-0.2s0 0.1 0 0.1h-0.1c0.1-0.2-0.1-0.3-0.4-0.4 0-0.1-0.1-0.2-0.2-0.2 0 0.1 0.1 0 0.1 0.1v0.1c-0.1-0.1-0.4-0.3-0.3-0.5-0.1-0.2-0.6-0.5-0.7-0.7h0.1c0-0.2-0.2-0.2-0.2 0-0.7 0.3-1.7-0.6-2.1-0.9h-0.1c-0.5 0.4-1 0.1-1.5 0.2-0.3-0.1-0.6-0.2-0.9-0.3-0.1-0.1-0.2-0.1-0.3-0.2-0.5 0-1.1-0.3-1.3-0.8 0-0.1 0.1-0.1 0.1-0.1s0 0 0-0.1c0.1-0.3-0.1-0.7-0.3-0.9-0.1-0.3-0.3-0.4-0.5-0.5v-0.1c-0.1-0.1-0.2-0.1-0.2-0.1-0.4-0.1 0-0.5-0.3-0.5 0 0 0-0.1-0.1-0.1-0.2-0.2-0.1-0.2-0.3-0.3-0.1-0.1-0.2-0.2-0.3-0.4l-0.1 0.1c0-0.1 0-0.1 0.1-0.2 0.1 0.2-0.2-0.8-0.3-0.8 0-0.1-0.1-0.1-0.1-0.1-0.6-0.1-0.3 1.1 0.1 1.1 0 0.1 0.1 0.1 0.1 0.1 0.1 0.4 0.5 0.8 0.5 1.2 0 0 0.1 0 0.1 0.1-0.1 0.1-0.1 0.2 0 0.3h0.1c0.3 0.2 0.3 0.3 0.1 0.5 0-0.1-0.5-0.7-0.7-0.7 0.1-0.3 0.1-0.6-0.2-0.7h-0.2c-0.1-0.1-0.1-0.1-0.2-0.1 0-0.1-0.1-0.1-0.2-0.2 0 0 0.3-0.1 0.2 0 0-0.1-0.8-2.4-0.9-2.3 0 0 0-0.1-0.1-0.1s-0.1 0-0.2 0c-0.1-0.2-0.3-0.1-0.4-0.1-0.1-0.5-0.2-0.8-0.3-1.3-0.6-0.5 0-1.2 0.1-1.7-0.1-0.3 1-2.3 0.9-1.8h0.1v-0.1l0.1-0.1v-0.1c0.1-0.1 0-0.5 0.1-0.6 0.2 0.1 0.6-0.1 0.5 0.2h0.1s-0.1 0.1-0.1 0c0 0.1-0.1 0.1-0.1 0.2 0.1-0.1 0.1-0.2 0.1-0.3v-0.1s0 0.1 0.1 0v-0.1c0-0.1 0.1-0.1 0.1-0.1 0-0.1-0.1-0.1-0.1-0.2s0-0.1 0-0.2c-0.1 0-0.1 0.1-0.2 0v-0.1h-0.1c0-0.1 0-0.1 0.1-0.2-0.1-0.1-0.1 0-0.1 0 0 0.1-0.1 0.1-0.1 0.2s0 0.1 0 0.2c0 0 0.1 0 0.2 0.1 0 0.1 0 0.1 0.1 0.2 0 0.3-0.3 0.2-0.5 0.1v-0.1h-0.1v-0.1c-0.2-0.1-0.2-0.3-0.4-0.3 0-0.1 0-0.1-0.1-0.2 0.2-0.1 0.4 0 0.6 0v0c0.1 0 0.2 0.1 0.2 0-0.1 0-0.3 0.1-0.3-0.1h-0.2l-0.1-0.1c0-0.1 0.1-0.2 0-0.2 0 0 0-0.1 0.1-0.2h0.1c0.1-0.1 0-0.2 0-0.2h-0.1c-0.1 0-0.1-0.1-0.1-0.1h-0.1l0.3-0.3c-0.1-0.1-0.2 0-0.2 0.1-0.1 0 0-0.1-0.1-0.1s0 0.1 0 0.1c-0.1 0-0.1-0.1-0.1-0.1 0-0.1 0.1-0.1 0.1-0.2h0.1c0.1-0.1 0-0.1 0.1-0.3v-0.1s0.1 0 0.1-0.1h-0.2v-0.1h-0.1v-0.1 0c0.1 0 0.1 0 0.1-0.1h-0.1s0-0.1 0.1-0.1c0-0.1-0.1-0.1-0.1-0.2 0 0 0.1-0.1 0-0.1 0 0-0.1 0-0.1 0.1-0.1 0-0.2 0-0.3 0.2 0-0.1 0.1-0.2 0.1-0.3h0.1s0-0.1 0.1-0.1 0.1 0 0.2 0c0 0 0 0.1 0.1 0.1s0-0.1 0-0.1h-0.1c-0.3 0 0.4-0.4 0.2-0.2 0.1 0 0-0.1-0.1-0.2 0 0 0 0.2-0.1 0.1s-0.1 0.1-0.1 0.2c-0.1 0-0.2 0.1-0.2 0.1s0-0.1 0.1-0.1c0-0.1 0.1-0.2 0.2-0.3s0.2 0.1 0.1-0.3c-0.1 0-0.1 0.2-0.2 0.2 0.1 0 0 0 0 0.1 0 0 0-0.1-0.1-0.1 0-0.1-0.1-0.2-0.1-0.2s0.1 0.1 0 0.1c-0.1 0.3-0.6-0.2-0.7-0.2 0-0.1 0.1-0.1 0.1-0.1-0.1 0-0.3 0.1-0.4 0.1v-0.1c-0.2 0-0.5 0-0.7 0.1 0-0.1-0.1 0-0.2-0.1-0.1 0-0.1 0.1-0.2 0-0.1-0.3-0.5-0.1-0.5-0.1-0.1 0-0.1 0.1-0.2 0.2-0.1 0-0.1 0.1-0.2 0.1-0.1 0.1-0.3 0.1-0.5 0.1-0.3 0.2-0.6 0.3-0.9 0.4 0-0.1 0.1-0.1 0.2-0.1v-0.1c0.1-0.2 0.4-0.2 0.4-0.4 0.2-0.1 0.4-0.1 0.6-0.2 0 0 0-0.1-0.1-0.1-0.5 0.1-0.7 0.4-1.1 0.5-0.1 0.3-0.6 0.3-0.8 0.5h0.1c-0.1 0.5-1.6 0.8-2 1.2-0.2 0-0.2 0.1-0.3 0.1v0.1c-0.2 0.1-0.4 0.1-0.5 0.2-0.2 0-0.4 0.2-0.6 0.2v-0.1c-0.1 0-0.3 0.2-0.5 0.3v-0.1c0.2-0.1 0.4-0.3 0.7-0.4v0.1h0.1c0.4-0.6 1.6-0.8 2.1-1.4-0.1-0.1-0.3 0.1-0.4 0.1 0.1-0.2 0-0.1-0.3 0.1v-0.2h-0.2c-0.2 0.1-0.4 0.2-0.5 0.2 0.1-0.1 0.2-0.2 0.2-0.3 0.1 0 0.1-0.1 0.2-0.1 0-0.1 0.1-0.2 0.1-0.3-0.1 0.1-0.4 0.2-0.6 0.2 0.1-0.1 0-0.2 0-0.2 0.1-0.1 0.2-0.1 0.3-0.3h-0.1v-0.2s1.2-0.9 1.4-0.7c0.2 0 1-0.4 1.1-0.6v-0.1c0.1-0.1 0.3-0.1 0.3-0.2s-0.7 0.2-0.7 0.2c-0.3 0-0.5 0.1-0.8 0.1 0-0.1 0.1-0.1 0.1-0.2 0.1 0 0.1 0 0.2-0.1-0.1 0-0.2 0-0.3-0.1 0.1-0.1 1.3-0.6 1.5-0.6 0 0.1-0.1 0.1-0.1 0.2 0.3 0 0.5 0 0.8-0.2 0-0.1-0.1 0-0.1 0 0-0.1-0.1-0.2 0-0.2h-0.2c0.1-0.2 0.1-0.3-0.2-0.4 0.9-0.3 1.8-0.8 2.7-1.2 0.2-0.1 1.1-0.5 1.3-0.4 0 0.1-0.1 0.1-0.1 0.1 0.1 0 0.2-0.1 0.3-0.1v0.1c0.1 0 0.3-0.1 0.5-0.1v0.1h1c0.2 0 1.1-0.1 1.2-0.1 0.1 0.2 0.5 0 0.7 0.1 0.1 0.2 0.4 0.1 0.7 0.2v-0.1c0.1-0.2 0.4-0.2 0.6-0.3 0.1 0 0.1 0.1 0 0 0.1 0.1 1.2-0.4 1.4-0.5-0.2 0.1-0.5 0.2-0.6 0.3 0.1-0.1 0.3-0.2 0.5-0.2 0.2 0.1 0.3-0.1 0.5-0.2 0-0.1 0-0.1 0.1-0.1 0.4 0.3-0.2 0.3 0.5 0.1 0-0.1 0.1-0.1 0.2-0.1-0.1 0.1-0.1 0.2-0.2 0.2 0.4 0.1 0.5-0.6 1-0.1 0.1 0 1.2-0.1 1.3 0.1-0.1 0.1-0.4 0.1-0.5 0.3 0.4 0 1-0.1 1.3-0.2 0.1 0.1 0.2 0.1 0.2 0.1 0.1-0.1 0.2 0.1 0 0.2v0.1c0.1 0 0.1-0.1 0.2-0.1 0.1-0.1 0.1-0.2 0.1-0.3 0.2 0 0.7-0.1 0.2-0.2 0 0-0.2 0.2-0.2 0 0.3-0.2 0.6-0.3 0.9-0.3v0.1l0.1 0.1c0.4 0 1.1 0.1 1.4-0.1 0-0.1 0.1-0.1 0.2-0.2 0.2 0 0.2-0.1 0.3-0.1-0.1-0.1-0.2-0.1-0.4-0.1 0.2-0.3 0.6-0.3 0.9-0.2 0 0.1 0 0.1 0.1 0.2-0.2 0.1-0.4 0.2-0.5 0.2 0 0.1 0.1 0.1 0.2 0.1-0.1 0.1-0.2 0.2-0.2 0.3h0.2c0.1 0 0.1-0.1 0.1-0.2 0.1-0.2 0.8-0.2 0.8-0.5-0.1 0-0.1 0.1-0.2 0.1 0-0.1 0.2-0.1 0.2-0.2 0 0 0.1 0 0.1-0.1-0.1-0.1-0.3 0-0.4-0.1 0-0.1 0.1-0.2 0.2-0.2 0-0.2 0.2-0.3 0.4-0.3 0.1 0 0-0.1 0.1-0.1 0.5-0.2 0.3-0.6 0.7-0.8h0.1v-0.1c0.2-0.1 0.9-0.2 1.1-0.2-0.3 0.3-0.7 0.5-1.1 0.5 0 0.2-0.3 0.2-0.4 0.4 0.1 0 0.1 0.1 0.2 0.2-0.1 0.1-0.1 0.3 0.1 0.4h-0.2v0.1c-0.1 0-0.1 0-0.2 0.1 0 0.2 0.3-0.1 0.4 0.1-0.1 0-0.1 0.1-0.1 0.1s0 0 0 0.1-0.1 0.1-0.1 0.2c0.5-0.1 0.2-0.5 0.7-0.3 0 0.1 0 0.1-0.1 0.2-0.3 0-0.1 0.9 0.2 0.2-0.1-0.1 0-0.2 0.1-0.2h-0.5c0.1 0 0 0 0 0m8.2 47.8s0.1 0 0 0c0.1-0.1 0.1-0.1 0 0v0 0 0 0 0m0.5-0.2v0 0m0.1 0.1v0m-3.3-1.9v0m-21.3-37.3c0.1 0 0-0.1 0 0 0.1-0.1 0-0.1 0-0.1v0.1c0.1 0 0 0 0 0m-7.2-2.2v0c-0.1 0.1-0.1 0 0 0-0.1 0 0 0 0 0m11.9-5.2h-0.1c0 0.1 0.1 0.1 0.1 0m-0.2 0.1s-0.1 0 0 0c-0.1 0.1-0.1 0.1 0 0-0.1 0-0.1 0.1 0 0-0.1 0-0.1 0 0 0-0.1 0.1 0 0 0 0-0.1 0.1 0 0.1 0 0v0m-0.3 0.1v0 0m-0.2 0.2h0.1s0 0 0-0.1c-0.1 0-0.1 0-0.1 0.1v0m6.7-0.9c0.1 0 0.2 0 0.2-0.1 0 0-0.2 0-0.2 0.1m2.2-0.1c0-0.1-0.2 0-0.2 0.1 0 0 0.2 0 0.2-0.1m-17.1 2.9c-0.1-0.1-0.3 0.2-0.2 0v0.1c0-0.1-0.2 0 0 0.1 0.1 0 0.1-0.1 0-0.1 0.1 0 0.2-0.1 0.2-0.1m17.2-2.6s-0.1 0 0 0c-0.1 0 0 0 0 0-0.1 0 0 0 0 0m-17.2 2.8c0.1 0 0.2 0 0.2-0.1 0 0-0.3 0-0.2 0.1m18.7-2.5h0.4c-0.2 0-0.3-0.2-0.6-0.1 0 0 0.1 0.1 0.2 0.1 0 0-0.1 0 0 0m-22 5c0.1 0 0.1 0.1 0.2 0v-0.1c-0.1 0.1-0.2 0.1-0.2 0.1 0.1 0.1 0 0 0 0m26-3.2v0c0.1 0 0.1-0.1 0 0v0m-18.6 3.7v0 0c0.1 0.1 0.2 0 0.1-0.1 0 0 0 0.1-0.1 0.1 0 0 0.1 0 0 0m20.9-2.1c-0.1 0-0.2 0.1-0.1 0.1 0.2 0 0.4-0.2 0.4-0.3-0.1 0-0.1 0.1-0.3 0.2-0.1 0 0.2-0.1 0 0m-20.6 3.1s0.1 0 0 0c0.1 0 0.1 0 0 0 0.1 0 0.1 0 0 0 0.1 0 0 0 0 0m-0.1 0.4v0 0.1c0.1-0.1 0.1-0.1 0-0.1 0 0 0.1 0 0 0m19.6-0.2c0.1 0 0.1 0 0 0v0m-0.9 0.3h-0.2v0.1c0.1 0 0.2-0.1 0.2-0.1m-19.7 6.1c0-0.1 0.1-0.1 0-0.1s-0.1 0.1 0 0.1c0 0-0.1 0 0 0m14.9-2s0.1 0 0 0c0 0 0.1 0 0 0m-5 3.6h0.2c0-0.2-0.3-0.1-0.2 0m-1 0.2m-7.1 2m6.4 3.7v0c-0.1 0 0 0 0 0m7.2 1.1c0.1 0 0.1-0.1 0 0v0 0c0.1 0 0 0 0 0m1-0.1c-0.2 0.2-0.2 0.4 0 0.6 0.5 0 0.1-0.5 0-0.6 0 0.2 0.1 0.1 0 0m7.3 3.9h0.2c0-0.1-0.1-0.1-0.2 0v0 0m5 7.9v0s0.1 0 0 0m-3.9 5v0 0m-2.7 4.9c0.1 0 0.1 0 0 0 0.1 0 0.1-0.1 0 0v0c0.1 0 0 0 0 0m0.4 1.2h0.2c0-0.1-0.2-0.1-0.2 0m1.2 1.4c0.1 0 0.2 0 0 0 0.1-0.1 0-0.1 0 0m0.3 0.2c0 0.1 0.1 0.1 0 0h0.3c-0.1-0.1-0.2 0-0.3 0 0 0.1 0.1 0 0 0m0.3 0.2c0 0.1 0.4-0.1 0.2-0.2-0.1 0-0.2 0.2-0.2 0.2-0.1 0.1 0 0 0 0v0m1.8 0.4h-0.3c-0.2 0.1 0.2 0 0.3 0-0.1 0-0.1 0 0 0"></path> <path class="st3" d="m-10.3 11.3c0.2 0 0.3-0.4 0.5-0.4l0.1-0.1c0-0.1 0 0-0.1-0.1 0.1-0.3 0.5-0.2 0.8-0.3 0 0.1 0.1 0.1 0.2 0.1 0 0.1-0.1 0.1-0.1 0.1s0.1 0 0.1 0.1c-0.2 0.2-0.3 0.2-0.4 0.3-0.1 0.5-0.2 0.5-0.7 0.8-0.1 0-0.1-0.1-0.1-0.1-0.1 0 0 0.1 0 0.1h-0.2c0 0.1 0.1 0.1 0.2 0.2h-0.1c0-0.2-0.2-0.1-0.2-0.2-0.1 0-0.3 0-0.4 0.1 0 0.1 0.1 0 0.1 0.1-0.1 0.1-0.3 0.2-0.5 0.4v0.1c-0.1 0.1-0.4 0.2-0.5 0.4-0.4 0.1-0.7 0.2-1.1 0.3 0 0.1 0.1 0.1 0.2 0.1 0 0.2-0.3 0.2-0.5 0.3v0.1c-0.1 0-0.2 0-0.2 0.1-0.1 0-0.2 0.1-0.3 0.2-0.3 0.8-1.2 0.7-0.7 1.3 0 0.2 0 0.5-0.1 0.6 0.3-0.2 0.7-0.2 1-0.1 0.1 0.1 0.2 0.1 0.2 0.3 0.4 0.2 0.8 0.1 1.3 0.2 0.1 0.4-0.7 1.7 0.4 1.3 0.1 0 0.1 0.1 0.1 0.1s0.1 0 0 0v-0.2c0.1-0.1 0.2-0.2 0.2-0.3 0.1-0.3 0.1-0.6 0-0.9 1.5-0.8 0.7-1.4 1.4-2.1 0.1 0 0.1-0.1 0.1-0.1v-0.3s-0.1 0 0-0.1 0.2-0.2 0.2-0.3v-0.1c0.2-0.7 1.4-0.2 1.7-0.2-0.1 0.2 0 0.3 0.4 0.2 0.1 0 0.1-0.1 0.1-0.1 0 0.1-0.2 0.1-0.2 0.3 0 0-0.1 0.1-0.1 0.2l-0.1 0.1c0 0.1 0.1 0 0.1 0.1-0.1 0-0.1 0.1-0.1 0.1h0.2c0.1 0.4 0.5 0 0.6-0.1 0.2 0.1 0.3-0.2 0.4-0.3v-0.1c0.2-0.1 0.2-0.2 0.3-0.3 0 0.1 0.1 0.2 0 0.3 0.1 0.1 0.2 0.2 0.2 0.4l-0.1 0.1h0.2c0 0.1 0.1 0.1 0.1 0.3l-0.1 0.1c0.1 0.1 0 0.1 0.2 0.1 0 0.1-0.1 0.2-0.2 0.2 0 0 0 0.1-0.1 0.2h0.1c0 0.1 0.1 0.1 0.2 0.2v0.2c0.1 0 0.2 0.1 0.3 0 0 0 0 0.1 0.1 0.1s0.2 0 0.4 0c0 0.1-0.1 0.1-0.2 0.1 0 0.1 0.1 0 0.2 0 0.1 0.1 0 0.1 0 0.2 0.4 0.2 0.3-0.3 0.3 0.4l0.1 0.1c0 0.3-0.7 0.6-1 0.6-1.1 1-3.6 0.5-4.2 2.3l-0.1 0.1c0-0.4 1.8-1.5 2.2-1.1l-0.7 0.5s0.1 0 0.2 0.1c0.1 0 0.1-0.1 0.2-0.1 0 0.1-0.1 0.2-0.2 0.3h0.1c0 0.1 0 0.2 0.1 0.3h0.2v0.1c0.2 0.1 0.4 0.1 0.6 0 0.1 0 0.2 0.1 0.2-0.1 0.1-0.1 0.2-0.3 0.4-0.5v0.2s0.1 0 0.1 0.1c-0.1 0.2-0.3 0.3-0.5 0.4h0.1c-0.3 0.2-0.6 0.3-0.9 0.5-0.3-0.1-0.5 0.6-0.7 0.5 0-0.1-0.1-0.1-0.1-0.1s0.6-0.7 0.5-0.7c0-0.1 0.1-0.1 0.1-0.2s-0.1 0-0.1 0.1c-0.2 0.1-0.4 0.3-0.8 0.3v0.1c0.1 0-0.2 0.2-0.3 0.1-0.1 0.2-0.8 0.5-0.7 0.8l-0.1 0.1c0.1 0.1 0.1 0.1 0.1 0.2 0.1 0 0.1 0 0.1-0.1 0 0.2-0.3 0.1-0.3 0.2h-0.1s-0.8 0.4-0.8 0.4c0.1 0.1 0.3-0.1 0.5-0.1-0.2 0.2-0.4 0.2-0.7 0.3v0.1c0 0.2-0.2 0.4-0.4 0.6-0.1 0-0.1-0.1-0.2-0.1-0.2 0.4 0.1 0.5-0.3 0.9 0-0.1 0.2-0.2 0-0.4 0 0-0.1 0-0.1-0.1s0-0.1 0.1-0.2c-0.1 0.1-0.1 0.1 0-0.2-0.1 0.1-0.1 0.2-0.1 0.5-0.1 0-0.1-0.1-0.2 0 0 0.1 0.1 0.1 0.2 0.2 0 0.1-0.1 0.4 0 0.4v0.3c-0.1-0.1-0.2 0-0.2 0.1h0.2c0 0.1-0.1 0.2-0.3 0.2v0.1l-0.1 0.1h0.1c-0.1 0.3-1 0.5-1 0.8-0.7 0.8-0.3 0-0.9 1.1 0.1 0.2 0 0.6 0.2 0.9-0.1 0.3 0.1 1.1 0 1.4-0.1 0-0.1 0.1-0.2 0.1 0-0.2-0.1-0.3-0.2-0.3 0-0.1-0.1-0.2-0.1-0.3-0.1 0-0.1-0.1-0.2-0.2 0-0.1 0.1-0.1 0.1-0.2h-0.1c0-0.2 0.2-0.5-0.1-0.6-0.1-0.1-0.1-0.2-0.3-0.3-0.2 0-0.2 0.2-0.5 0.2v-0.1c0-0.1-0.5-0.2-0.6-0.1h0.1s-0.1 0.1-0.2 0.1l-0.1-0.1c-0.1 0 0 0.1-0.1 0.1-0.2 0.1-0.4 0-0.5 0.2 0 0.1 0.1 0 0.1 0 0 0.1-0.1 0.1-0.1 0.2s0.2 0 0.2 0.2c-0.2-0.2-0.3-0.2-0.4 0-0.1 0-0.2 0-0.2 0.1h-0.1c0-0.1-0.2-0.2-0.3-0.2v0.1c-0.3-0.1-0.6 0-0.9 0.2 0 0 0-0.1-0.1-0.1s0 0.1 0 0.2c-0.2 0.1-0.3 0.4-0.6 0.4v0.1c-0.1 0-0.1 0.1-0.1 0.1h-0.1c0 0.1 0 0.1-0.1 0.1v0.1c-0.1 0.1-0.2 0.4 0 0.6v-0.2c-0.1 0.5-0.2 1.1-0.3 1.6 0 0.2 0 0.5 0.1 0.6 0.1 0.4 0.4 1.1 0.9 1l0.1 0.1 0.8-0.3c0.1 0.1 0.4 0 0.3-0.1 0.3-0.4 0.1-0.5 0.4-0.9 0.8-1 0.9 0 1 0.3 0 0.1-0.1 0.1 0 0.2 0 0.2 0 0.4-0.1 0.5 0-0.1 0-0.1-0.1-0.2l-0.1 0.1c0 0.1 0 0 0.1 0.1 0 0.4-0.1 0.7-0.2 1 0.2 0 0.9-0.1 1-0.2 0.3 0 0.6-0.2 0.6 0.1 0.1 0.1 0.2 0 0.3 0.1-0.1 0.3 0 0.7 0 1h-0.1v0.1s-0.1 0.1 0 0.2c-0.1 0.3 0.3 0.7 0.5 0.8 0 0.1 0 0.1 0.1 0.1 0 0.1 0.1 0 0.2 0 0 0 0.1 0 0.1 0.1 0.3-0.1 0.5-0.3 0.6-0.4h0.1 0.1c0.3-0.1 0.6 0.3 0.8 0.5v-0.3c0.2-0.1 0.2-0.3 0.4-0.4-0.1-0.3 0-0.5 0.2-0.7h0.2s0-0.1 0.1-0.1c0.3-0.1 0.5-0.2 0.7-0.4 0.2 0 0.5-0.3 0.1 0.2 0 0.1 0.1 0.2 0.1 0.3 0.1-0.1 0.3-0.2 0.5-0.3 0-0.1-0.1-0.2 0-0.3 0 0 0.1 0.1 0.1 0.2h-0.1s0 0.1 0.1 0.1v-0.1s0 0.1 0.1 0.1c0.3 0 0.5 0.1 0.5 0.3 0.3 0 0.4-0.2 0.7-0.1 0.3 0.2 0.6 0.2 0.8-0.1 0-0.1-0.1 0-0.1 0 0.2 0 0.4-0.1 0.7-0.1-0.1 0.1-0.2 0.1-0.2 0.1 0 0.1 0.1 0.1 0.2 0.2 0.2-0.1 0.4 0 0.5 0.1 0 0.1-0.1 0.2-0.1 0.2h0.1c0.1 0 0.1 0.1 0.1 0.1 0.3-0.1 0.9 0.3 0.8 0.6 0.2 0.1 0.4 0 0.5 0.3 0.7 0.1 1.2 0.1 1.9 0.3 0 0 0 0.1 0.1 0.1h0.1c0.2 0.2 0.2 0.6 0.4 0.8h0.1v0.1c0.2 0 0.2 0.2 0.1 0.4h-0.1c0 0.1-0.1 0.1-0.1 0.2 0.1 0-0.3 0.4-0.2 0.4h0.1v0.2c-0.1 0.3-0.1-0.1 0.2 0 0-0.1 0-0.1-0.1-0.1 0-0.3 0.7-0.4 0.9-0.3 0.1 0.7-0.1 0.1-0.4 0.6h0.3v0.2c0.1-0.1 0.1-0.3 0.3-0.4 0.1-0.7 0.7-0.3 1.1-0.2v0.1c0.1 0 0-0.1 0.1-0.1 0.4 0.1 0.1 0.2 0.3 0.3 0 0.1-0.1 0.2 0 0.3 0.1 0 0-0.2 0.1-0.3v0.1c0.8 0 1.2-0.2 2.1 0.1 0.1 0.2 0.4 0.3 0.5 0.4 1.7 0 0.9 2.4 0.2 3.2 0 0 0-0.1-0.1-0.1-0.2 0.1 0.2 2 0.2 2-0.2 0.2-0.2 1.5-0.3 1.8-0.1 0.1-0.2 0.1-0.3 0.2v0.2c-0.3 0.1-0.3 0-0.6 0.1h-0.1s-0.1 0-0.1 0.1c-0.1-0.1-0.2 0-0.1 0.1-0.1 0-0.2 0.1-0.3 0.2 0 0.1 0.1 0 0 0.1-0.3 0-0.7 0.3-0.8 0.6v0.2h-0.1c0 0.2 0.1 0.6 0.2 0.8h0.1c-0.2 0.5-0.1 1.2-0.5 1.6 0.2-0.1 0.3-0.2 0.3-0.4h-0.1c-0.1 0-0.1-0.1-0.1-0.1 0.1 0.2 0.1 0.3-0.1 0.5 0 0.1-0.1 0.2 0 0.3 0.1 0 0.1-0.1 0.1-0.1 0 0.2-0.2 1-0.4 1.2s-0.4 0.2-0.6 0.2l-0.9-0.2s0-0.1 0.1 0c-0.1 0.1 0.7 0.8 0.9 0.8 0.1 0.2 0.1 0.4 0 0.6-0.4 0.5-0.9 0.7-1.5 0.6 0 0.2 0.2 0.2 0.2 0.3-0.1 0.1 0 0.3 0.1 0.4-0.3 0.1-0.6 0.2-0.9 0.2 0 0.2 0.3 0.5 0.5 0.5v0.1h0.1v-0.1c0.3 0.2 0.3 0.2 0 0.2-0.1 0-0.2 0-0.2 0.1s0.1 0.1 0.2 0.1c-0.2 0.2-0.1 0.4 0 0.6 0 0-0.1 0-0.1 0.1s0 0.1 0.1 0.1c-0.1 0-0.2 0-0.2 0.1h-0.1c-0.3 0.6 0.6 0.6 0.9 1-0.1 0.2-0.2 0.3-0.3 0.4 0 0.2 0.1 0.2 0.1 0.4-0.1 0.1-0.2 0.1-0.2 0.2 0.1 0.4 0.4 0.5 0.6 0.6-0.1 0.1-0.3 0-0.3 0.1 0.2 0.1 0.3 0 0.5 0.1v0.1l0.1 0.1c0.4 0.2 0.8 0.3 1.2 0.3-0.1 0.1-0.3 0.2-0.5 0.2 0 0.1 0 0.1 0.1 0.1h-0.4c0 0.1 0.1 0.1 0.2 0.2h-0.2s-0.1-0.1-0.2-0.1v0.1c-0.1 0-0.2 0-0.2-0.1v-0.1c-0.2 0.1-0.5-0.1-0.7 0 0-0.1 0.1-0.1 0.1-0.1-0.1 0-0.2 0-0.3-0.1v-0.1c0.1 0 0.2 0 0.4 0.1v-0.2c0.1 0 0.1 0.1 0.1 0.2l0.1 0.1c0.1-0.1 0.3 0 0.3-0.1-0.1 0-0.3 0-0.3-0.2 0-0.1 0.1-0.1 0.1-0.2-0.1 0-0.3 0.1-0.4 0 0.1-0.1 0-0.1 0-0.2h0.1c-0.1-0.1-0.2 0-0.3 0.1 0 0.1 0.1 0.3 0.2 0.4-0.2 0.1-0.6-0.2-0.4 0.1 0 0 0 0.1-0.1 0.1s0-0.1-0.1-0.1 0 0.1-0.1 0.1c0-0.1-0.1-0.1-0.2-0.1 0-0.1 0-0.1 0.1-0.1-0.1-0.1-0.1 0-0.2 0 0-0.1 0.1 0 0.2-0.1h-0.1l-0.1-0.1h-0.2v-0.1c0-0.1-0.1-0.1-0.1-0.1 0.1 0-0.4-0.5-0.4-0.5-0.1 0 0 0.1-0.1 0.1h-0.1c0.1-0.1 0-0.1 0.1-0.2 0 0-0.1 0-0.1-0.1 0 0 0-0.4-0.1-0.3 0 0.1 0.1 0.1 0.1 0.2h-0.1c-0.1 0 0 0 0 0h-0.2v-0.1s0-0.1-0.1-0.1v-0.1h-0.1l-0.1-0.1c0.1 0 0.1 0.1 0.2 0v-0.1h-0.2c0-0.1 0-0.1-0.1-0.2 0.1 0 0.1 0 0.1-0.1v0.1-0.1c-0.1 0 0 0 0 0.1h0.1c0.2 0 0.2 0.2 0.4 0.3v-0.1c0-0.1 0.1-0.1 0-0.1l-0.2-0.1v-0.1h-0.1v-0.2c-0.1-0.2-0.3 0-0.5-0.1-0.1 0-0.1 0.1-0.1 0.1-0.2 0 0-0.2 0-0.3s-0.1 0-0.1-0.1c0.1-0.1 0.1 0 0.2-0.1 0.1 0.1 0.2 0.1 0.3 0.2 0.1-0.1 0-0.1 0-0.3 0 0-0.1 0-0.1-0.1s0.1-0.1 0.1-0.1-0.1-0.2-0.2-0.3c0-0.1 0.1-0.1 0.1-0.2l-0.1-0.1c0-0.1 0-0.2-0.1-0.3 0-0.1 0-0.3-0.1-0.4h0.1c0-0.1 0-0.1-0.2-0.1-0.1-0.2-0.2-0.2-0.3 0 0 0.1 0.1 0.1 0.1 0.1-0.4 0.4-0.1 0.4-0.2 0.6h-0.2c0-0.2-0.2-0.4-0.2-0.5h0.1c-0.1-0.5-0.8-1.2-0.8-1.7h0.1c0-0.2 0-1.4-0.2-1.6 0-0.4-0.5-2.6-0.7-2.9 0.1-0.3-0.2-0.5-0.2-0.8-0.1 0-0.1-0.2 0-0.3-0.2-0.7-0.1-1.6-0.9-2v-0.1c-1.3-1.2-2.3-1.4-3.4-3.1-0.2-0.4-0.7-0.6-1-0.9 0-0.1 0-0.1 0.1-0.1 0-0.2 0.2-1.2 0.2-1.4-0.1 0-0.2 0.1-0.2 0.1-0.1 0-0.1-0.1-0.2-0.1 0.1-0.1 0-0.3-0.1-0.5 0.1-0.1 0.2-0.1 0.1-0.3 0.1-0.1 0.1-0.3 0.1-0.5 0.1-0.1 0.5-0.2 0.3-0.4 0 0 0.1 0 0.1-0.1-0.1-0.2 0.1-0.3 0.2-0.3 0-0.2 0.1-0.3 0.2-0.5 0 0-0.1 0-0.1-0.1 0-0.2 0-0.3-0.1-0.6 0 0 0.1 0 0.1-0.1 0-0.5-0.5-0.9-0.7-1.2-0.2 0.1-0.3 0.2-0.5 0.4 0 0.2 0.1 0.2 0.2 0.3-0.1 0.1-0.1 0.1-0.3 0.2 0-0.1 0-0.2-0.1-0.2 0 0 0 0.1-0.1 0.1-0.1-0.2-0.3-0.2-0.5-0.2v0.1c-0.1 0-0.1-0.2-0.2-0.2s0 0.1 0 0.1h-0.1c0.1-0.2-0.1-0.3-0.4-0.4 0-0.1-0.1-0.2-0.2-0.2 0 0.1 0.1 0 0.1 0.1v0.1c-0.1-0.1-0.4-0.3-0.3-0.5-0.1-0.2-0.6-0.5-0.7-0.7h0.1c0-0.2-0.2-0.2-0.2 0-0.7 0.3-1.7-0.6-2.1-0.9h-0.1c-0.5 0.4-1 0.1-1.5 0.2-0.3-0.1-0.6-0.2-0.9-0.3-0.1-0.1-0.2-0.1-0.3-0.2-0.5 0-1.1-0.3-1.3-0.8 0-0.1 0.1-0.1 0.1-0.1s0 0 0-0.1c0.1-0.3-0.1-0.7-0.3-0.9-0.1-0.3-0.3-0.4-0.5-0.5v-0.1c-0.1-0.1-0.2-0.1-0.2-0.1-0.4-0.1 0-0.5-0.3-0.5 0 0 0-0.1-0.1-0.1-0.2-0.2-0.1-0.2-0.3-0.3-0.1-0.1-0.2-0.2-0.3-0.4l-0.1 0.1c0-0.1 0-0.1 0.1-0.2 0.1 0.2-0.2-0.8-0.3-0.8 0-0.1-0.1-0.1-0.1-0.1-0.6-0.1-0.3 1.1 0.1 1.1 0 0.1 0.1 0.1 0.1 0.1 0.1 0.4 0.5 0.8 0.5 1.2 0 0 0.1 0 0.1 0.1-0.1 0.1-0.1 0.2 0 0.3h0.1c0.3 0.2 0.3 0.3 0.1 0.5 0-0.1-0.5-0.7-0.7-0.7 0.1-0.3 0.1-0.6-0.2-0.7h-0.2c-0.1-0.1-0.1-0.1-0.2-0.1 0-0.1-0.1-0.1-0.2-0.2 0 0 0.3-0.1 0.2 0 0-0.1-0.8-2.4-0.9-2.3 0 0 0-0.1-0.1-0.1s-0.1 0-0.2 0c-0.1-0.2-0.3-0.1-0.4-0.1-0.1-0.5-0.2-0.8-0.3-1.3-0.6-0.5 0-1.2 0.1-1.7-0.1-0.3 1-2.3 0.9-1.8h0.1v-0.1l0.1-0.1v-0.1c0.1-0.1 0-0.5 0.1-0.6 0.2 0.1 0.6-0.1 0.5 0.2h0.1s-0.1 0.1-0.1 0c0 0.1-0.1 0.1-0.1 0.2 0.1-0.1 0.1-0.2 0.1-0.3v-0.1s0 0.1 0.1 0v-0.1c0-0.1 0.1-0.1 0.1-0.1 0-0.1-0.1-0.1-0.1-0.2s0-0.1 0-0.2c-0.1 0-0.1 0.1-0.2 0v-0.1h-0.1c0-0.1 0-0.1 0.1-0.2-0.1-0.1-0.1 0-0.1 0 0 0.1-0.1 0.1-0.1 0.2s0 0.1 0 0.2c0 0 0.1 0 0.2 0.1 0 0.1 0 0.1 0.1 0.2 0 0.3-0.3 0.2-0.5 0.1v-0.1h-0.1v-0.1c-0.2-0.1-0.2-0.3-0.4-0.3 0-0.1 0-0.1-0.1-0.2 0.2-0.1 0.4 0 0.6 0v0c0.1 0 0.2 0.1 0.2 0-0.1 0-0.3 0.1-0.3-0.1h-0.2l-0.1-0.1c0-0.1 0.1-0.2 0-0.2 0 0 0-0.1 0.1-0.2h0.1c0.1-0.1 0-0.2 0-0.2h-0.1c-0.1 0-0.1-0.1-0.1-0.1h-0.1l0.3-0.3c-0.1-0.1-0.2 0-0.2 0.1-0.1 0 0-0.1-0.1-0.1s0 0.1 0 0.1c-0.1 0-0.1-0.1-0.1-0.1 0-0.1 0.1-0.1 0.1-0.2h0.1c0.1-0.1 0-0.1 0.1-0.3v-0.1s0.1 0 0.1-0.1h-0.2v-0.1h-0.1v-0.1 0c0.1 0 0.1 0 0.1-0.1h-0.1s0-0.1 0.1-0.1c0-0.1-0.1-0.1-0.1-0.2 0 0 0.1-0.1 0-0.1 0 0-0.1 0-0.1 0.1-0.1 0-0.2 0-0.3 0.2 0-0.1 0.1-0.2 0.1-0.3h0.1s0-0.1 0.1-0.1 0.1 0 0.2 0c0 0 0 0.1 0.1 0.1s0-0.1 0-0.1h-0.1c-0.3 0 0.4-0.4 0.2-0.2 0.1 0 0-0.1-0.1-0.2 0 0 0 0.2-0.1 0.1s-0.1 0.1-0.1 0.2c-0.1 0-0.2 0.1-0.2 0.1s0-0.1 0.1-0.1c0-0.1 0.1-0.2 0.2-0.3s0.2 0.1 0.1-0.3c-0.1 0-0.1 0.2-0.2 0.2 0.1 0 0 0 0 0.1 0 0 0-0.1-0.1-0.1 0-0.1-0.1-0.2-0.1-0.2s0.1 0.1 0 0.1c-0.1 0.3-0.6-0.2-0.7-0.2 0-0.1 0.1-0.1 0.1-0.1-0.1 0-0.3 0.1-0.4 0.1v-0.1c-0.2 0-0.5 0-0.7 0.1 0-0.1-0.1 0-0.2-0.1-0.1 0-0.1 0.1-0.2 0-0.1-0.3-0.5-0.1-0.5-0.1-0.1 0-0.1 0.1-0.2 0.2-0.1 0-0.1 0.1-0.2 0.1-0.1 0.1-0.3 0.1-0.5 0.1-0.3 0.2-0.6 0.3-0.9 0.4 0-0.1 0.1-0.1 0.2-0.1v-0.1c0.1-0.2 0.4-0.2 0.4-0.4 0.2-0.1 0.4-0.1 0.6-0.2 0 0 0-0.1-0.1-0.1-0.5 0.1-0.7 0.4-1.1 0.5-0.1 0.3-0.6 0.3-0.8 0.5h0.1c-0.1 0.5-1.6 0.8-2 1.2-0.2 0-0.2 0.1-0.3 0.1v0.1c-0.2 0.1-0.4 0.1-0.5 0.2-0.2 0-0.4 0.2-0.6 0.2v-0.1c-0.1 0-0.3 0.2-0.5 0.3v-0.1c0.2-0.1 0.4-0.3 0.7-0.4v0.1h0.1c0.4-0.6 1.6-0.8 2.1-1.4-0.1-0.1-0.3 0.1-0.4 0.1 0.1-0.2 0-0.1-0.3 0.1v-0.2h-0.2c-0.2 0.1-0.4 0.2-0.5 0.2 0.1-0.1 0.2-0.2 0.2-0.3 0.1 0 0.1-0.1 0.2-0.1 0-0.1 0.1-0.2 0.1-0.3-0.1 0.1-0.4 0.2-0.6 0.2 0.1-0.1 0-0.2 0-0.2 0.1-0.1 0.2-0.1 0.3-0.3h-0.1v-0.2s1.2-0.9 1.4-0.7c0.2 0 1-0.4 1.1-0.6v-0.1c0.1-0.1 0.3-0.1 0.3-0.2s-0.7 0.2-0.7 0.2c-0.3 0-0.5 0.1-0.8 0.1 0-0.1 0.1-0.1 0.1-0.2 0.1 0 0.1 0 0.2-0.1-0.1 0-0.2 0-0.3-0.1 0.1-0.1 1.3-0.6 1.5-0.6 0 0.1-0.1 0.1-0.1 0.2 0.3 0 0.5 0 0.8-0.2 0-0.1-0.1 0-0.1 0 0-0.1-0.1-0.2 0-0.2h-0.2c0.1-0.2 0.1-0.3-0.2-0.4 0.9-0.3 1.8-0.8 2.7-1.2 0.2-0.1 1.1-0.5 1.3-0.4 0 0.1-0.1 0.1-0.1 0.1 0.1 0 0.2-0.1 0.3-0.1v0.1c0.1 0 0.3-0.1 0.5-0.1v0.1h1c0.2 0 1.1-0.1 1.2-0.1 0.1 0.2 0.5 0 0.7 0.1 0.1 0.2 0.4 0.1 0.7 0.2v-0.1c0.1-0.2 0.4-0.2 0.6-0.3 0.1 0 0.1 0.1 0 0 0.1 0.1 1.2-0.4 1.4-0.5-0.2 0.1-0.5 0.2-0.6 0.3 0.1-0.1 0.3-0.2 0.5-0.2 0.2 0.1 0.3-0.1 0.5-0.2 0-0.1 0-0.1 0.1-0.1 0.4 0.3-0.2 0.3 0.5 0.1 0-0.1 0.1-0.1 0.2-0.1-0.1 0.1-0.1 0.2-0.2 0.2 0.4 0.1 0.5-0.6 1-0.1 0.1 0 1.2-0.1 1.3 0.1-0.1 0.1-0.4 0.1-0.5 0.3 0.4 0 1-0.1 1.3-0.2 0.1 0.1 0.2 0.1 0.2 0.1 0.1-0.1 0.2 0.1 0 0.2v0.1c0.1 0 0.1-0.1 0.2-0.1 0.1-0.1 0.1-0.2 0.1-0.3 0.2 0 0.7-0.1 0.2-0.2 0 0-0.2 0.2-0.2 0 0.3-0.2 0.6-0.3 0.9-0.3v0.1l0.1 0.1c0.4 0 1.1 0.1 1.4-0.1 0-0.1 0.1-0.1 0.2-0.2 0.2 0 0.2-0.1 0.3-0.1-0.1-0.1-0.2-0.1-0.4-0.1 0.2-0.3 0.6-0.3 0.9-0.2 0 0.1 0 0.1 0.1 0.2-0.2 0.1-0.4 0.2-0.5 0.2 0 0.1 0.1 0.1 0.2 0.1-0.1 0.1-0.2 0.2-0.2 0.3h0.2c0.1 0 0.1-0.1 0.1-0.2 0.1-0.2 0.8-0.2 0.8-0.5-0.1 0-0.1 0.1-0.2 0.1 0-0.1 0.2-0.1 0.2-0.2 0 0 0.1 0 0.1-0.1-0.1-0.1-0.3 0-0.4-0.1 0-0.1 0.1-0.2 0.2-0.2 0-0.2 0.2-0.3 0.4-0.3 0.1 0 0-0.1 0.1-0.1 0.5-0.2 0.3-0.6 0.7-0.8h0.1v-0.1c0.2-0.1 0.9-0.2 1.1-0.2-0.3 0.3-0.7 0.5-1.1 0.5 0 0.2-0.3 0.2-0.4 0.4 0.1 0 0.1 0.1 0.2 0.2-0.1 0.1-0.1 0.3 0.1 0.4h-0.2v0.1c-0.1 0-0.1 0-0.2 0.1 0 0.2 0.3-0.1 0.4 0.1-0.1 0-0.1 0.1-0.1 0.1s0 0 0 0.1-0.1 0.1-0.1 0.2c0.5-0.1 0.2-0.5 0.7-0.3 0 0.1 0 0.1-0.1 0.2-0.3 0-0.1 0.9 0.2 0.2-0.1-0.1 0-0.2 0.1-0.2h-0.5c0.1 0 0 0 0 0zm8.2 47.8s0.1 0 0 0c0.1-0.1 0.1-0.1 0 0v0 0 0 0 0zm0.5-0.2v0 0zm0.1 0.1v0zm-3.3-1.9v0zm-21.3-37.3c0.1 0 0-0.1 0 0 0.1-0.1 0-0.1 0-0.1v0.1c0.1 0 0 0 0 0zm-7.2-2.2v0c-0.1 0.1-0.1 0 0 0-0.1 0 0 0 0 0zm11.9-5.2h-0.1c0 0.1 0.1 0.1 0.1 0zm-0.2 0.1s-0.1 0 0 0c-0.1 0.1-0.1 0.1 0 0-0.1 0-0.1 0.1 0 0-0.1 0-0.1 0 0 0-0.1 0.1 0 0 0 0-0.1 0.1 0 0.1 0 0v0zm-0.3 0.1v0 0zm-0.2 0.2h0.1s0 0 0-0.1c-0.1 0-0.1 0-0.1 0.1v0zm6.7-0.9c0.1 0 0.2 0 0.2-0.1 0 0-0.2 0-0.2 0.1zm2.2-0.1c0-0.1-0.2 0-0.2 0.1 0 0 0.2 0 0.2-0.1zm-17.1 2.9c-0.1-0.1-0.3 0.2-0.2 0v0.1c0-0.1-0.2 0 0 0.1 0.1 0 0.1-0.1 0-0.1 0.1 0 0.2-0.1 0.2-0.1zm17.2-2.6s-0.1 0 0 0c-0.1 0 0 0 0 0-0.1 0 0 0 0 0zm-17.2 2.8c0.1 0 0.2 0 0.2-0.1 0 0-0.3 0-0.2 0.1zm18.7-2.5h0.4c-0.2 0-0.3-0.2-0.6-0.1 0 0 0.1 0.1 0.2 0.1 0 0-0.1 0 0 0zm-22 5c0.1 0 0.1 0.1 0.2 0v-0.1c-0.1 0.1-0.2 0.1-0.2 0.1 0.1 0.1 0 0 0 0zm26-3.2v0c0.1 0 0.1-0.1 0 0v0zm-18.6 3.7v0 0c0.1 0.1 0.2 0 0.1-0.1 0 0 0 0.1-0.1 0.1 0 0 0.1 0 0 0zm20.9-2.1c-0.1 0-0.2 0.1-0.1 0.1 0.2 0 0.4-0.2 0.4-0.3-0.1 0-0.1 0.1-0.3 0.2-0.1 0 0.2-0.1 0 0zm-20.6 3.1s0.1 0 0 0c0.1 0 0.1 0 0 0 0.1 0 0.1 0 0 0 0.1 0 0 0 0 0zm-0.1 0.4v0 0.1c0.1-0.1 0.1-0.1 0-0.1 0 0 0.1 0 0 0zm19.6-0.2c0.1 0 0.1 0 0 0v0zm-0.9 0.3h-0.2v0.1c0.1 0 0.2-0.1 0.2-0.1zm-19.7 6.1c0-0.1 0.1-0.1 0-0.1s-0.1 0.1 0 0.1c0 0-0.1 0 0 0zm14.9-2s0.1 0 0 0c0 0 0.1 0 0 0zm-5 3.6h0.2c0-0.2-0.3-0.1-0.2 0zm-1 0.2zm-7.1 2zm6.4 3.7v0c-0.1 0 0 0 0 0zm7.2 1.1c0.1 0 0.1-0.1 0 0v0 0c0.1 0 0 0 0 0zm1-0.1c-0.2 0.2-0.2 0.4 0 0.6 0.5 0 0.1-0.5 0-0.6 0 0.2 0.1 0.1 0 0zm7.3 3.9h0.2c0-0.1-0.1-0.1-0.2 0v0 0zm5 7.9v0s0.1 0 0 0zm-3.9 5v0 0zm-2.7 4.9c0.1 0 0.1 0 0 0 0.1 0 0.1-0.1 0 0v0c0.1 0 0 0 0 0zm0.4 1.2h0.2c0-0.1-0.2-0.1-0.2 0zm1.2 1.4c0.1 0 0.2 0 0 0 0.1-0.1 0-0.1 0 0zm0.3 0.2c0 0.1 0.1 0.1 0 0h0.3c-0.1-0.1-0.2 0-0.3 0 0 0.1 0.1 0 0 0zm0.3 0.2c0 0.1 0.4-0.1 0.2-0.2-0.1 0-0.2 0.2-0.2 0.2-0.1 0.1 0 0 0 0v0zm1.8 0.4h-0.3c-0.2 0.1 0.2 0 0.3 0-0.1 0-0.1 0 0 0z"></path> <path class="st2" d="m-8.7 9.3c0.3-0.1 0.6-0.3 0.9-0.3 0 0.1 0.1 0.2 0 0.3 0 0.1-0.2 0.2-0.2 0.3 0 0 0.5-0.2 0.4-0.2 0 0 0.1-0.1 0.1 0 0 0-0.1 0-0.1 0.1l0.1-0.1h0.1c0.2-0.3 0.6-0.2 0.8-0.2v0.1h0.1c-0.1 0.1-0.1 0.1 0 0.1 0.2 0.3 0.3-0.3 0.6 0 0 0.1-0.3 0.1-0.3 0.2 0.2 0.1 0.4 0 0.5-0.1 0.1 0.1 0.4 0 0.5 0.1 0 0.1-0.2 0.1-0.3 0.2h0.1v0.1c0.2 0 0.3-0.3 0.4 0-0.1 0-0.3 0.1-0.4 0.1 0.1 0.1 0.3-0.1 0.4 0.1-0.1 0.1-0.3 0-0.4 0.1l0.1 0.1c-0.1 0-0.1 0.1-0.2 0.1v0.1h0.3v0.1c0.1 0.1 0.2 0.1 0.4 0 0 0.1 0.1 0 0.2 0.1v0.1h0.2v0.1c0.1 0.1 0.4 0 0.4 0.1-0.1 0-0.3 0.2-0.3 0.3-0.5 0.1-0.1 0.2-0.5 0.5-0.1 0-0.4-0.1-0.4-0.3-0.1 0-0.2-0.1-0.3-0.2-0.1 0-0.1 0.1-0.1 0.1h-0.1c-0.1 0.1 0 0.1 0 0.2h-0.2c0 0.1 0.1 0.1 0.1 0.1 0 0.2 0.2 0.3 0.3 0.3v0.1h0.1v0.2c0 0.1 0.1 0.2 0 0.3v-0.1c-0.1 0.1 0 0.2 0 0.2h-0.1v0.1c-0.1-0.1-0.5-0.1-0.6-0.3v0.1c-0.1 0-0.2-0.1-0.3 0 0 0.1 0.1 0.1 0.1 0.2 0.2 0 0.3 0.2 0.4 0.3 0 0 0 0.1-0.1 0.1-0.2 0-0.5 0-0.7-0.1-0.1-0.2-0.5 0-0.6-0.2 0-0.1 0.1 0 0.1-0.1v-0.1h-0.2c-0.1-0.1-0.2-0.2-0.2-0.3h-0.1-0.2c-0.1 0-0.9 0.1-0.9 0.1 0-0.2 0.3-0.2 0.4-0.4 0.3 0 0.5 0 0.6-0.1 0.2 0 0.2-0.1 0.4-0.1 0-0.1-0.1-0.1-0.1-0.2 0.3-0.5 0.8-0.2 0.7-0.9h-0.1v-0.1s0 0-0.1 0.1c-0.1 0-0.1-0.1-0.2-0.1s-0.2 0.1-0.4 0.1c-0.1-0.4 0.6 0.2 0.1-0.3v-0.1h-0.1v-0.1h-0.1c-0.1-0.1-0.2-0.1-0.2 0s0.1 0 0.1 0.1-0.1 0.1-0.2 0.1c0 0.1-0.2 0.1-0.2 0.1h-0.1s0.2 0 0.2-0.1c-0.1-0.1-0.5-0.1-0.3 0.1h-0.5c0.3-0.1-1 0.2-1 0-0.1 0.1-0.4 0.1-0.4-0.1 0.1-0.1 0.4 0 0.5-0.1-0.1-0.1-0.4 0-0.5 0 0-0.1 0.1-0.1 0.1-0.2h0.1c0.5-0.6 1-0.8 1.6-0.8-0.3 0.1-0.5 0.2-0.7 0.4v0.1l-0.1 0.1c0 0.2 0.3 0.3 0.3 0.1h-0.1v-0.1c0-0.3 0.1-0.4 0.2-0.4 0-0.1-0.1 0-0.1-0.1s0.2-0.2 0.3-0.2c0 0-0.1 0 0 0m-0.6 0.7h0.1-0.1"></path> <path class="st3" d="m8.4 9.3v0.2c-0.1 0.1-0.2 0.2-0.4 0.3-0.8 0.1-1.2 0.6-2 0.5 0-0.1 0.2-0.1 0.2-0.2s-0.1-0.1-0.2-0.2c-0.1 0-0.3 0.1-0.4 0 0.2 0 0.4 0 0.5-0.1v-0.1l0.1-0.1c-0.2 0-0.4 0.2-0.6 0.1 0.1-0.2 0.3-0.3 0.5-0.2 0-0.1-0.1-0.1-0.1-0.1 0.1-0.1 0.3 0 0.4 0.1v0.2c0.1 0 0.1-0.1 0.1-0.1h0.1c0.1 0 0-0.2 0.1-0.2s0.1 0.1 0.2 0.1c0 0 0-0.1 0.1-0.1s0.1 0 0.1 0l0.1 0.1 0.1-0.1c0.1 0 0.2 0.1 0.3 0 0.1 0 0.2 0 0.2-0.1v-0.1c0-0.2 0.1-0.1 0.2 0 0.1 0 0.1-0.1 0.1 0 0 0 0.2 0.1 0.3 0.1 0 0.1-0.1 0 0 0zm-2.2 0.5zm1-0.4s0.1 0 0 0c0 0 0.1-0.1 0 0v0 0 0z"></path> <path class="st2" d="m14.9 9.1v0s-0.1 0 0 0v0"></path> <path class="st2" d="m11.4 11.3c-0.1-0.1 0 0 0 0"></path> <path class="st4" d="m11.6 14.1c-0.1 0.1-0.2 0.1-0.3 0h-0.1c-0.1-0.1-0.1 0-0.2 0 0 0-0.1 0-0.1-0.1 0.1-0.1 0.4-0.2 0.3-0.4h-0.1v-0.2c0.3 0.1 0.5 0 0.5-0.3-0.2 0-0.3-0.1-0.2-0.3l-0.5 0.1c0-0.1 0.2-0.3 0-0.4-0.1 0-0.1 0.1-0.1 0.1s0 0 0.1 0.1c-0.1 0-0.1 0-0.2 0.1 0.2-0.7 0.1-0.3-0.1-0.4-0.1-0.1 0.1-0.2 0.1-0.3 0 0-0.2 0-0.3-0.1 0 0 0.1 0 0.1-0.1 0 0 0 0.1 0.1 0.1 0.2 0 0-0.1 0.1-0.2 0 0 0.1 0 0.1-0.1s0.1-0.2 0.1-0.3c0.2 0 0.3-0.1 0.5-0.1 0 0.1-0.2 0.2-0.2 0.3v0.1c0.1 0 0.5-0.2 0.6-0.1-0.1 0.2-0.2 0.3-0.3 0.5v0.1c-0.1 0-0.1 0-0.1 0.1 0.3-0.1 0.5 0.1 0.6 0.4 0.1 0 0.6 0.4 0.4 0.6 0.1 0 0.1 0 0.1-0.1 0.4 0 0.5 0.2 0.1 0.6 0 0.1 0.2 0 0.2 0 0 0.3-0.7 0.2-0.8 0.4-0.2-0.1-0.6 0.2-0.7 0.2-0.2 0-0.4 0-0.4 0.2h-0.1l0.3-0.3v-0.1s0.1 0 0.1-0.1c0.1-0.1 0.2 0 0.3-0.1 0.2 0.1 0.2 0.1 0.1 0.1s0 0 0 0"></path> <path class="st3" d="m11.6 14.1c-0.1 0.1-0.2 0.1-0.3 0h-0.1c-0.1-0.1-0.1 0-0.2 0 0 0-0.1 0-0.1-0.1 0.1-0.1 0.4-0.2 0.3-0.4h-0.1v-0.2c0.3 0.1 0.5 0 0.5-0.3-0.2 0-0.3-0.1-0.2-0.3l-0.5 0.1c0-0.1 0.2-0.3 0-0.4-0.1 0-0.1 0.1-0.1 0.1s0 0 0.1 0.1c-0.1 0-0.1 0-0.2 0.1 0.2-0.7 0.1-0.3-0.1-0.4-0.1-0.1 0.1-0.2 0.1-0.3 0 0-0.2 0-0.3-0.1 0 0 0.1 0 0.1-0.1 0 0 0 0.1 0.1 0.1 0.2 0 0-0.1 0.1-0.2 0 0 0.1 0 0.1-0.1s0.1-0.2 0.1-0.3c0.2 0 0.3-0.1 0.5-0.1 0 0.1-0.2 0.2-0.2 0.3v0.1c0.1 0 0.5-0.2 0.6-0.1-0.1 0.2-0.2 0.3-0.3 0.5v0.1c-0.1 0-0.1 0-0.1 0.1 0.3-0.1 0.5 0.1 0.6 0.4 0.1 0 0.6 0.4 0.4 0.6 0.1 0 0.1 0 0.1-0.1 0.4 0 0.5 0.2 0.1 0.6 0 0.1 0.2 0 0.2 0 0 0.3-0.7 0.2-0.8 0.4-0.2-0.1-0.6 0.2-0.7 0.2-0.2 0-0.4 0-0.4 0.2h-0.1l0.3-0.3v-0.1s0.1 0 0.1-0.1c0.1-0.1 0.2 0 0.3-0.1 0.2 0.1 0.2 0.1 0.1 0.1s0 0 0 0z"></path> <path class="st3" d="m9.7 13.7c-0.1-0.1-0.2 0-0.3-0.1 0-0.1 0.1-0.1 0.1-0.2h-0.1v-0.1c0.2-0.1 0.5 0 0.5-0.2h-0.1c0.2-0.2 0.5-0.3 0.7-0.3 0 0.1 0.1 0.1 0.2 0.2 0 0.1-0.1 0.2-0.2 0.3 0.1 0.2 0.1 0.5 0 0.7-0.2 0-0.3 0.1-0.5 0.2-0.2 0.2-0.4 0.2-0.6 0.1v-0.1h-0.1c0.3-0.1 0.2-0.3 0.4-0.5-0.1 0-0.2 0.2 0 0z"></path> <path class="st2" d="m-2.6 36.9c0.1 0-0.1 0.1 0 0 0.1 0.2 0.1 0 0.2 0.1 0 0.1-0.1 0.2-0.2 0.1-0.1 0-0.1 0.1-0.2 0.2 0-0.1 0.1-0.1 0.1-0.1 0-0.2 0-0.3 0.1-0.3s-0.1 0 0 0"></path> <path class="st4" d="m33.5 38.1c-0.1 0-0.1-0.2-0.1-0.2-0.1 0 0 0.2 0.1 0.2 0.8 1.1-1.6 6.4-2 2.5l0.1-0.1c0.1-0.4 0.2-1.7 0-2 0.3 0 0.4-0.3 0.6-0.2 0-0.1 0.1-0.2 0.2-0.3 0.1 0 0.1 0.1 0.1 0s0-0.2 0.1-0.3v0.1c0.1 0 0.1-0.6 0.1-0.6s0 0.1 0.1 0.1c0.1-0.1 0.1-0.2 0.2-0.2 0 0 0-0.5 0.1-0.5 0.2 0.4 0.7 1.1 0.4 1.5 0 0 0.1 0 0 0"></path> <path class="st3" d="m33.5 38.1c-0.1 0-0.1-0.2-0.1-0.2-0.1 0 0 0.2 0.1 0.2 0.8 1.1-1.6 6.4-2 2.5l0.1-0.1c0.1-0.4 0.2-1.7 0-2 0.3 0 0.4-0.3 0.6-0.2 0-0.1 0.1-0.2 0.2-0.3 0.1 0 0.1 0.1 0.1 0s0-0.2 0.1-0.3v0.1c0.1 0 0.1-0.6 0.1-0.6s0 0.1 0.1 0.1c0.1-0.1 0.1-0.2 0.2-0.2 0 0 0-0.5 0.1-0.5 0.2 0.4 0.7 1.1 0.4 1.5 0 0 0.1 0 0 0z"></path> <path class="st2" d="m-5 56c-0.1 0-0.1 0 0 0-0.1 0-0.1 0 0 0"></path> <path class="st3" d="m24.3 1.9c-0.1 0.2-0.5 0.1-0.7 0.1h0.1-0.1c0.2 0 0.4-0.1 0.7-0.1-0.2 0.2-0.3 0 0 0zm-0.4 0.1v0z"></path> <path class="st3" d="m16.9 3.3c0.2-0.1 0.6-0.1 0.8-0.1 0 0.2-0.8 0.4-0.9 0.3-0.2 0-0.4 0.1-0.6 0 0.1-0.1 0.2-0.1 0.3-0.1-0.1-0.1-0.6 0.2-0.8 0 0.3 0 0.6-0.3 0.9-0.1v-0.1c0.2 0 0.3 0 0.3 0.1 0.3-0.1 0-0.1 0 0z"></path> <path class="st3" d="m-1.2 9.3c-0.2 0.1-0.3 0.2-0.6 0.2v-0.1h-0.2c0-0.1 0.1-0.1 0.1-0.2 0.3-0.1 0.5 0.1 0.7 0.1 0 0.1-0.2 0 0 0z"></path> <path class="st2" d="m17.9 9.8s-0.1 0 0 0c0 0.1-0.1 0.1-0.1 0.1-0.1-0.1 0-0.1 0.1-0.1 0 0-0.1 0 0 0"></path> <path class="st2" d="m21.6 17.6h-0.2c0.1-0.2 0.2-0.1 0.2 0"></path> <path class="st2" d="m-5.2 55.7c-0.1 0-0.1 0.1-0.2 0.1 0-0.1 0.2-0.1 0.2-0.1"></path> <path class="st4" d="m23.8 52.4c-3-0.8-7.6 0.3-10.4 1.7-1 0.5-2.5 1.3-4 2.3 4.8 2 10.3 2.8 15.9 2 3.7-0.6 7.2-1.8 10.2-3.6-1.2-0.4-2.5-0.7-3.9-0.8-3-0.2-5-0.9-7.8-1.6"></path> <path class="st3" d="m23.8 52.4c-3-0.8-7.6 0.3-10.4 1.7-1 0.5-2.5 1.3-4 2.3 4.8 2 10.3 2.8 15.9 2 3.7-0.6 7.2-1.8 10.2-3.6-1.2-0.4-2.5-0.7-3.9-0.8-3-0.2-5-0.9-7.8-1.6z"></path> </g> <defs> <path id="k" d="m24.1 4.1c-14.8 2.3-25 16.1-22.7 30.9 2.2 14.8 16.1 25 30.9 22.7 14.8-2.2 25-16.1 22.7-30.8-2-13.4-13.6-23-26.7-23-1.5-0.1-2.8 0-4.2 0.2"></path> </defs> <clipPath id="j"> <use xlink:href="#k"></use> </clipPath> <g class="st6"> <path class="st3" d="M-9.1-3h58.9v59.2H-9.1V-3z"></path> </g> <defs> <rect id="i" x="-112.6" y="-223.9" width="595.3" height="841.9"></rect> </defs> <clipPath id="h"> <use xlink:href="#i"></use> </clipPath> <g class="st7"> <path class="st5" d="m54.9 26.8c2.2 14.8-7.9 28.6-22.7 30.8-14.8 2.3-28.6-7.8-30.8-22.6-2.3-14.8 7.9-28.6 22.7-30.9 14.8-2.2 28.6 7.9 30.8 22.7z"></path> </g> <path class="st4" d="m33.7 7.4c0 2.7-2.2 5-4.9 5s-4.9-2.2-4.9-5 2.2-5 4.9-5 4.9 2.3 4.9 5"></path> <path class="st4" d="m37.6 23.6c0-5-4.1-9.5-8.9-9.4-4.9 0-8.8 4.4-8.8 9.4v32.2h17.6l0.1-32.2z"></path> <path class="st0" d="M37.5,56H21.3V39.1h16.2V56z"></path> <path class="st5" d="m19.9 39h17.8"></path> <path class="st8" d="m23.7 56.4v6.1m10.1-6.1v6.1"></path> <path class="st9" d="m23.8 23.5v8.3m9.9-8.3v8.3"></path> <defs> <rect id="g" x="-112.6" y="-223.9" width="595.3" height="841.9"></rect> </defs> <clipPath id="f"> <use xlink:href="#g"></use> </clipPath> <g class="st10"> <path class="st11" d="m37.6 23.7c0-5-4-9.4-8.8-9.4s-8.8 4.4-8.8 9.4v32.1h17.5l0.1-32.1z"></path> </g> <path class="st0" d="m33.7 6.1c-0.6-1.9-2.3-3.2-4.4-3.2s-3.8 1.4-4.4 3.2h8.8z"></path> <path class="st11" d="m33.6 7.4c0 2.7-2.2 4.9-4.9 4.9s-4.9-2.2-4.9-4.9 2.2-4.9 4.9-4.9c2.8 0 4.9 2.2 4.9 4.9z"></path> <path class="st5" d="m24 6.3h9.6"></path> </svg> 