<?xml version="1.0" encoding="utf-8"?>
<!-- Generator: Adobe Illustrator 26.2.1, SVG Export Plug-In . SVG Version: 6.00 Build 0)  -->
<svg version="1.1" id="Ebene_1" xmlns="http://www.w3.org/2000/svg" xmlns:xlink="http://www.w3.org/1999/xlink" x="0px" y="0px"
	 viewBox="0 0 407.24 512" style="enable-background:new 0 0 407.24 512;" xml:space="preserve">
<style type="text/css">
	.st0{fill:#6EC3BF;}
	.st1{fill:#A0D5D2;}
	.st2{fill:#87CCC8;}
	.st3{fill:#FFFFFF;}
	.st4{clip-path:url(#SVGID_00000015345675071765579890000002852035192745538690_);fill:#2B2961;}
	.st5{fill:#897DA2;}
	.st6{fill:#2B2961;}
	.st7{clip-path:url(#SVGID_00000179641557355011509750000003727799153149994674_);fill:#FFFFFF;}
	.st8{clip-path:url(#SVGID_00000179641557355011509750000003727799153149994674_);fill:#2B2961;}
	.st9{clip-path:url(#SVGID_00000156556368328766694610000012962050762022048394_);fill:#FFFFFF;}
	.st10{clip-path:url(#SVGID_00000156556368328766694610000012962050762022048394_);fill:#6EC3BF;}
	.st11{fill:#9D9D9C;}
	.st12{fill:#D0D0D0;}
	.st13{clip-path:url(#SVGID_00000080928292344290140820000013451203631381878442_);fill:#FFFFFF;}
	.st14{clip-path:url(#SVGID_00000086682655791451511870000008820814982951551643_);fill:#2B2961;}
	.st15{clip-path:url(#SVGID_00000086682655791451511870000008820814982951551643_);fill:#FFFFFF;}
	.st16{fill:#97D1CE;}
	.st17{clip-path:url(#SVGID_00000119816514162359310000000001527806550676604803_);fill:#2B2961;}
	.st18{clip-path:url(#SVGID_00000054954364525200622910000007951508549531118735_);fill:#2B2961;}
	.st19{clip-path:url(#SVGID_00000003063642980477972190000000506279784928759993_);fill:#FFFFFF;}
	.st20{clip-path:url(#SVGID_00000003063642980477972190000000506279784928759993_);fill:#2B2961;}
	.st21{clip-path:url(#SVGID_00000109715097977195164990000006110034710750856362_);fill:#2B2961;}
	.st22{clip-path:url(#SVGID_00000042002304516417333830000018383842588585159854_);fill:#2B2961;}
	.st23{clip-path:url(#SVGID_00000042002304516417333830000018383842588585159854_);fill:#FFFFFF;}
	.st24{clip-path:url(#SVGID_00000096780752925063789820000000025527023040271266_);fill:#FFFFFF;}
	.st25{clip-path:url(#SVGID_00000101100546270229463130000003299359939663793283_);fill:#6EC3BF;}
	.st26{clip-path:url(#SVGID_00000159453486972053775690000009411511849598626989_);fill:#2B2961;}
	.st27{clip-path:url(#SVGID_00000159453486972053775690000009411511849598626989_);fill:#1D1D1B;}
	.st28{clip-path:url(#SVGID_00000159453486972053775690000009411511849598626989_);fill:#FFFFFF;}
	.st29{clip-path:url(#SVGID_00000173847287262677726350000005240185470565333130_);fill:#2B2961;}
	.st30{clip-path:url(#SVGID_00000013150983825734826210000013295563888944432573_);fill:#2B2961;}
	.st31{clip-path:url(#SVGID_00000013150983825734826210000013295563888944432573_);fill:#FFFFFF;}
	.st32{clip-path:url(#SVGID_00000103968103330959889630000016561572932536980898_);fill:#2B2961;}
	.st33{clip-path:url(#SVGID_00000102523139746076629350000017927755929058674054_);fill:#2B2961;}
	.st34{clip-path:url(#SVGID_00000102523139746076629350000017927755929058674054_);fill:#6EC3BF;}
	.st35{clip-path:url(#SVGID_00000101077900321012999660000005229968092343887550_);fill:#2B2961;}
	.st36{clip-path:url(#SVGID_00000159463330527126770690000000170616913853358491_);fill:#2B2961;}
	.st37{clip-path:url(#SVGID_00000095297694149680830030000008345628914797801089_);fill:#2B2961;}
	.st38{clip-path:url(#SVGID_00000145742825506083198080000005086217271662345612_);fill:#2B2961;}
	.st39{clip-path:url(#SVGID_00000080911688034337920320000008404529279906169014_);fill:#6EC3BF;}
	.st40{clip-path:url(#SVGID_00000047756227502984199660000001458910138965430927_);fill:#6EC3BF;}
	.st41{clip-path:url(#SVGID_00000155842650742207317410000004407104748075634866_);fill:#6EC3BF;}
	.st42{clip-path:url(#SVGID_00000083056395345530961890000005770992241570154896_);fill:#6EC3BF;}
	.st43{clip-path:url(#SVGID_00000079462264042765556400000007500030586228627386_);fill:#2B2961;}
	.st44{clip-path:url(#SVGID_00000158016074411361497420000013485110465815671720_);fill:#2B2961;}
	.st45{clip-path:url(#SVGID_00000101099500121716435440000010436089920497576864_);fill:#2B2961;}
	.st46{clip-path:url(#SVGID_00000130607879992504425350000009033770585658672553_);fill:#2B2961;}
	.st47{clip-path:url(#SVGID_00000130607879992504425350000009033770585658672553_);fill:#FFFFFF;}
	.st48{clip-path:url(#SVGID_00000145037679904151489090000000488703614636952750_);fill:#FFFFFF;}
	.st49{clip-path:url(#SVGID_00000167379266665930602250000002630076454335523999_);fill:#2B2961;}
	.st50{clip-path:url(#SVGID_00000102540336969955858270000001756440624618926741_);fill:#2B2961;}
	.st51{clip-path:url(#SVGID_00000102540336969955858270000001756440624618926741_);fill:#FFFFFF;}
	.st52{clip-path:url(#SVGID_00000145048807494048779210000000246885825805859208_);fill:#2B2961;}
	.st53{clip-path:url(#SVGID_00000145048807494048779210000000246885825805859208_);fill:#2C265F;}
	.st54{clip-path:url(#SVGID_00000144301731012670959340000015633236416864000135_);fill:#FFFFFF;}
	.st55{clip-path:url(#SVGID_00000050621641174654038620000003623530595972143019_);fill:#2B2961;}
	.st56{clip-path:url(#SVGID_00000161595015691006004640000013480635434538350237_);fill:#FFFFFF;}
	.st57{clip-path:url(#SVGID_00000123414952433504895120000010963896575673537969_);fill:#2B2961;}
	.st58{clip-path:url(#SVGID_00000055673508172788178100000016836910428895446450_);fill:#FFFFFF;}
	.st59{clip-path:url(#SVGID_00000075141224239394833940000004766760505692820142_);fill:#2B2961;}
	.st60{clip-path:url(#SVGID_00000075141224239394833940000004766760505692820142_);fill:#FFFFFF;}
	.st61{clip-path:url(#SVGID_00000106828392495436839000000010425493145159447182_);fill:#2B2961;}
	.st62{clip-path:url(#SVGID_00000020389249598692468280000013326419282174218124_);fill:#FFFFFF;}
	.st63{clip-path:url(#SVGID_00000000193850570453653100000008033382968123357584_);fill:#2B2961;}
	.st64{clip-path:url(#SVGID_00000052082777621054492810000010607288893264213149_);fill:#FFFFFF;}
	.st65{clip-path:url(#SVGID_00000052082777621054492810000010607288893264213149_);fill:#2B2961;}
	.st66{clip-path:url(#SVGID_00000168078186717063510020000015753245343137302182_);fill:#2B2961;}
	.st67{clip-path:url(#SVGID_00000168078186717063510020000015753245343137302182_);fill:#6EC3BF;}
	.st68{clip-path:url(#SVGID_00000168078186717063510020000015753245343137302182_);fill:#FFFFFF;}
	.st69{clip-path:url(#SVGID_00000001641183063291975380000006146684157397861251_);fill:#2B2961;}
	.st70{clip-path:url(#SVGID_00000024002130022038739760000001786346198931323824_);fill:#2B2961;}
	.st71{clip-path:url(#SVGID_00000129195218408102629930000002756467829167996852_);fill:#2B2961;}
	.st72{clip-path:url(#SVGID_00000075126735775335394860000000407426287795954615_);fill:#2B2961;}
	.st73{clip-path:url(#SVGID_00000089576382462404377670000017853334619270138514_);fill:#2B2961;}
	.st74{clip-path:url(#SVGID_00000036228445811394531400000004463214336536364958_);fill:#FFFFFF;}
	.st75{clip-path:url(#SVGID_00000036228445811394531400000004463214336536364958_);fill:#6EC3BF;}
	.st76{clip-path:url(#SVGID_00000009577129403459028220000016852873902258839939_);fill:#2B2961;}
	.st77{clip-path:url(#SVGID_00000008870518506503385490000017027645539869821095_);fill:#2B2961;}
	.st78{clip-path:url(#SVGID_00000008870518506503385490000017027645539869821095_);fill:#FFFFFF;}
	.st79{clip-path:url(#SVGID_00000178172891848712822450000017645956105908892042_);fill:#2B2961;}
	.st80{clip-path:url(#SVGID_00000031165311552255311760000010200241313072720279_);fill:#FFFFFF;}
	.st81{clip-path:url(#SVGID_00000155144121392143321980000007838945494474111364_);fill:#2B2961;}
	.st82{clip-path:url(#SVGID_00000070091812979979266840000014702348600880790966_);fill:#2B2961;}
	.st83{clip-path:url(#SVGID_00000037679251516546910760000016275299012539861167_);fill:#2B2961;}
	.st84{clip-path:url(#SVGID_00000131343367961468786160000002353782049481160381_);fill:#FFFFFF;}
	.st85{clip-path:url(#SVGID_00000002384630396581309790000017430588239313117064_);fill:#FFFFFF;}
	.st86{clip-path:url(#SVGID_00000068641897348503395090000014864442598176553899_);fill:#2B2961;}
	.st87{clip-path:url(#SVGID_00000161604140572605201810000014026129221075539857_);fill:#2B2961;}
	.st88{clip-path:url(#SVGID_00000161604140572605201810000014026129221075539857_);fill:#FFFFFF;}
	.st89{clip-path:url(#SVGID_00000037664840536505717960000006558146232774967725_);fill:#2B2961;}
	.st90{clip-path:url(#SVGID_00000166663707757480270850000005262051189566165683_);fill:#FFFFFF;}
	.st91{clip-path:url(#SVGID_00000170983226709763481360000017461744926728707480_);fill:#6EC3BF;}
	.st92{clip-path:url(#SVGID_00000170983226709763481360000017461744926728707480_);fill:#2B2961;}
	.st93{clip-path:url(#SVGID_00000003092010786929422470000017875757191918272668_);fill:#6EC3BF;}
	.st94{clip-path:url(#SVGID_00000023275061646973083640000004050396681262541966_);fill:#2B2961;}
	.st95{clip-path:url(#SVGID_00000133498721354365419730000014586529103590208426_);fill:#2B2961;}
	.st96{clip-path:url(#SVGID_00000057869112781856712120000003841964482028165027_);fill:#2B2961;}
	.st97{clip-path:url(#SVGID_00000021799398566793804540000009067626266792681904_);fill:#2B2961;}
	.st98{clip-path:url(#SVGID_00000082356630402653220170000000135138841112125573_);fill:#2B2961;}
	.st99{clip-path:url(#SVGID_00000082356630402653220170000000135138841112125573_);fill:#6EC3BF;}
	.st100{clip-path:url(#SVGID_00000147928272376473384640000001243206748864521891_);fill:#2B2961;}
	.st101{clip-path:url(#SVGID_00000176764994768528830950000004706383351854491287_);fill:#2B2961;}
	.st102{clip-path:url(#SVGID_00000176764994768528830950000004706383351854491287_);fill:#6EC3BF;}
	.st103{clip-path:url(#SVGID_00000171696443027146793960000011439170480054968969_);fill:#2B2961;}
	.st104{clip-path:url(#SVGID_00000086668925514858896470000009570171718843901624_);fill:#FFFFFF;}
	.st105{clip-path:url(#SVGID_00000086668925514858896470000009570171718843901624_);fill:#2B2961;}
	.st106{clip-path:url(#SVGID_00000043450270499290241680000003110398621171527819_);fill:#6EC3BF;}
	.st107{clip-path:url(#SVGID_00000083796687593567439940000010302368491899256453_);fill:#2B2961;}
	.st108{clip-path:url(#SVGID_00000049910404626255323820000010614714492362915985_);fill:#2B2961;}
	.st109{clip-path:url(#SVGID_00000049910404626255323820000010614714492362915985_);fill:#FFFFFF;}
	.st110{clip-path:url(#SVGID_00000096759638785712404940000015422350164052893346_);fill:#6EC3BF;}
	.st111{clip-path:url(#SVGID_00000169556138420153105620000005485026718431275397_);fill:#2B2961;}
	.st112{clip-path:url(#SVGID_00000060023074174771969910000015920418481822037431_);fill:#2B2961;}
	.st113{clip-path:url(#SVGID_00000060023074174771969910000015920418481822037431_);fill:#6EC3BF;}
	.st114{clip-path:url(#SVGID_00000089534459420402343240000009392016783636287894_);fill:#2B2961;}
	.st115{clip-path:url(#SVGID_00000062191300235307678280000018179337731222740369_);fill:#6EC3BF;}
	.st116{clip-path:url(#SVGID_00000062191300235307678280000018179337731222740369_);fill:#2B2961;}
	.st117{clip-path:url(#SVGID_00000049933050919634493360000010898789169132306101_);fill:#2B2961;}
	.st118{clip-path:url(#SVGID_00000047776275408982001580000018011285477958077090_);fill:#FFFFFF;}
	.st119{clip-path:url(#SVGID_00000047776275408982001580000018011285477958077090_);}
	.st120{clip-path:url(#SVGID_00000127040565288801885540000002135316679791722426_);fill:#2B2961;}
	.st121{clip-path:url(#SVGID_00000047776275408982001580000018011285477958077090_);fill:#6EC3BF;}
	.st122{clip-path:url(#SVGID_00000076587218664871796460000010767882855368677045_);fill:#2B2961;}
	.st123{clip-path:url(#SVGID_00000047776275408982001580000018011285477958077090_);fill:#2B2961;}
	.st124{clip-path:url(#SVGID_00000023968161238414809950000009416976386462146202_);fill:#2B2961;}
	.st125{clip-path:url(#SVGID_00000020368757489614266590000003182592000304888766_);fill:#2B2961;}
	.st126{clip-path:url(#SVGID_00000086668074335151034120000005974528964450667402_);}
	.st127{clip-path:url(#SVGID_00000060007972643831664840000006004385527847983019_);}
	.st128{clip-path:url(#SVGID_00000088831818240360419580000005816172146493093035_);fill:#FFFFFF;}
	.st129{clip-path:url(#SVGID_00000139997823771190788510000011632696473496812197_);fill:#2B2961;}
	.st130{clip-path:url(#SVGID_00000090271666910438990880000001916904014898128020_);fill:#2B2961;}
	.st131{clip-path:url(#SVGID_00000090271666910438990880000001916904014898128020_);fill:#6EC3BF;}
	.st132{clip-path:url(#SVGID_00000090271666910438990880000001916904014898128020_);fill:#FFFFFF;}
	.st133{clip-path:url(#SVGID_00000078760914442540441220000011228086554446805168_);fill:#2B2961;}
	.st134{clip-path:url(#SVGID_00000078760914442540441220000011228086554446805168_);fill:#6EC3BF;}
	.st135{clip-path:url(#SVGID_00000005260654546151346430000002842771891483337143_);fill:#2B2961;}
	.st136{clip-path:url(#SVGID_00000109716198904269611880000003807279913669621419_);fill:#6EC3BF;}
	.st137{clip-path:url(#SVGID_00000109716198904269611880000003807279913669621419_);fill:#FFFFFF;}
	.st138{clip-path:url(#SVGID_00000107590928667453967080000018377816336690003343_);fill:#2B2961;}
	.st139{clip-path:url(#SVGID_00000107590928667453967080000018377816336690003343_);fill:#6EC3BF;}
	.st140{clip-path:url(#SVGID_00000133497665326529584040000005933467707923621517_);fill:#2B2961;}
	.st141{clip-path:url(#SVGID_00000072274591348709945640000002498273626859044750_);fill:#2B2961;}
	.st142{clip-path:url(#SVGID_00000072274591348709945640000002498273626859044750_);fill:#FFFFFF;}
	.st143{clip-path:url(#SVGID_00000069377057905084764780000009204684437098163089_);fill:#2B2961;}
	.st144{clip-path:url(#SVGID_00000120555393556756127610000009658586291220137110_);fill:#FFFFFF;}
	.st145{clip-path:url(#SVGID_00000019666375958997709760000010350490586841044159_);fill:#2B2961;}
	.st146{clip-path:url(#SVGID_00000167369300106717507610000014974571770513014200_);fill:#2B2961;}
	.st147{clip-path:url(#SVGID_00000167369300106717507610000014974571770513014200_);fill:#FFFFFF;}
	.st148{clip-path:url(#SVGID_00000067948868241146892650000006134301795956913824_);fill:#2B2961;}
	.st149{clip-path:url(#SVGID_00000095337002771626819990000015958876622375198349_);fill:#2B2961;}
	.st150{clip-path:url(#SVGID_00000095337002771626819990000015958876622375198349_);fill:#FFFFFF;}
	.st151{clip-path:url(#SVGID_00000091716140616822571020000015279358820655369878_);fill:#2B2961;}
	.st152{clip-path:url(#SVGID_00000091716140616822571020000015279358820655369878_);fill:#6EC3BF;}
	.st153{clip-path:url(#SVGID_00000000913741027301018230000005163854047088466833_);fill:#1D1D1B;}
	.st154{clip-path:url(#SVGID_00000000913741027301018230000005163854047088466833_);fill:#2B2961;}
	.st155{clip-path:url(#SVGID_00000000913741027301018230000005163854047088466833_);fill:#FFFFFF;}
	.st156{clip-path:url(#SVGID_00000173139118227661185640000007373575760063209097_);fill:#2B2961;}
	.st157{clip-path:url(#SVGID_00000067934582011241571380000000652325693551279548_);fill:#2B2961;}
	.st158{clip-path:url(#SVGID_00000142859488519952292620000013054491700417484170_);fill:#2B2961;}
	.st159{clip-path:url(#SVGID_00000142859488519952292620000013054491700417484170_);fill:#FFFFFF;}
	.st160{clip-path:url(#SVGID_00000142859488519952292620000013054491700417484170_);fill:#6EC3BF;}
	.st161{clip-path:url(#SVGID_00000005976565537609127570000006214785752995460012_);fill:#2B2961;}
	.st162{clip-path:url(#SVGID_00000103259617223742030430000010783247015511430832_);fill:#2B2961;}
	.st163{clip-path:url(#SVGID_00000020388486923289223770000005232087526175336630_);fill:#2B2961;}
	.st164{clip-path:url(#SVGID_00000093880037172334871070000006150950899195174793_);fill:#2B2961;}
	.st165{clip-path:url(#SVGID_00000093880037172334871070000006150950899195174793_);fill:#FFFFFF;}
	.st166{clip-path:url(#SVGID_00000057831226678920521930000013066091968523811985_);fill:#2B2961;}
	.st167{clip-path:url(#SVGID_00000057831226678920521930000013066091968523811985_);fill:#FFFFFF;}
	.st168{clip-path:url(#SVGID_00000119110197592374257640000000771609397248762540_);fill:#2B2961;}
	.st169{clip-path:url(#SVGID_00000088836937725074135800000007797869478104284044_);fill:#2B2961;}
	.st170{clip-path:url(#SVGID_00000088836937725074135800000007797869478104284044_);fill:#FFFFFF;}
	.st171{clip-path:url(#SVGID_00000183246656903439637240000008601390708031636118_);fill:#2B2961;}
	.st172{clip-path:url(#SVGID_00000081613548028885592470000018153767582767747507_);fill:#FFFFFF;}
	.st173{clip-path:url(#SVGID_00000052823842945521821470000005493462373574415791_);fill:#2B2961;}
	.st174{clip-path:url(#SVGID_00000052823842945521821470000005493462373574415791_);fill:#6EC3BF;}
	.st175{clip-path:url(#SVGID_00000174590449338239211060000003941068169817774526_);fill:#2B2961;}
	.st176{clip-path:url(#SVGID_00000144336634801223171770000011376361170135791244_);fill:#2B2961;}
	.st177{clip-path:url(#SVGID_00000026868606544031464600000004375202691216739229_);fill:#FFFFFF;}
	.st178{clip-path:url(#SVGID_00000031914403754076184880000014436246141241934247_);fill:#6EC3BF;}
	.st179{clip-path:url(#SVGID_00000031914403754076184880000014436246141241934247_);fill:#2B2961;}
	.st180{clip-path:url(#SVGID_00000040563295410227447180000011276578190993975683_);fill:#6EC3BF;}
	.st181{clip-path:url(#SVGID_00000121276518395609215970000009563019370248911488_);fill:#2B2961;}
	.st182{clip-path:url(#SVGID_00000113318102137796561470000015710023810290374528_);fill:#6EC3BF;}
	.st183{clip-path:url(#SVGID_00000113318102137796561470000015710023810290374528_);fill:#2B2961;}
	.st184{clip-path:url(#SVGID_00000031897542838940536200000004482470035857716626_);fill:#2B2961;}
	.st185{clip-path:url(#SVGID_00000157276525422220688230000010932996340646088335_);fill:#2B2961;}
	.st186{clip-path:url(#SVGID_00000178189933915972797330000014234496193564787349_);fill:#2B2961;}
	.st187{clip-path:url(#SVGID_00000142873329890979366530000012700932413255014541_);fill:#2B2961;}
	.st188{clip-path:url(#SVGID_00000127737178631296293560000008014829283311837590_);fill:#2B2961;}
	.st189{clip-path:url(#SVGID_00000145765711262211907510000004228210957376218527_);fill:#6EC3BF;}
	.st190{clip-path:url(#SVGID_00000145765711262211907510000004228210957376218527_);fill:#2B2961;}
	.st191{clip-path:url(#SVGID_00000172426109948279763300000001850498802248218028_);fill:#6EC3BF;}
	.st192{clip-path:url(#SVGID_00000172426109948279763300000001850498802248218028_);fill:#2B2961;}
	.st193{clip-path:url(#SVGID_00000050643751134072684660000017918269091079935652_);fill:#2B2961;}
	.st194{clip-path:url(#SVGID_00000019655971227495909180000009950339532151167921_);fill:#2B2961;}
	.st195{clip-path:url(#SVGID_00000113311646664937187040000017777245065942141331_);fill:#2B2961;}
	.st196{clip-path:url(#SVGID_00000091695721322770821010000017112804027883634091_);fill:#FFFFFF;}
	.st197{clip-path:url(#SVGID_00000039836496002417542300000017981026699201453498_);fill:#2B2961;}
	.st198{clip-path:url(#SVGID_00000017502953986991269840000006823333403233192078_);fill:#2B2961;}
	.st199{clip-path:url(#SVGID_00000017502953986991269840000006823333403233192078_);fill:#6EC3BF;}
	.st200{clip-path:url(#SVGID_00000078744592131489443450000007884028134675251356_);fill:#2B2961;}
	.st201{clip-path:url(#SVGID_00000152942646621071313130000013824737615703951245_);fill:#2B2961;}
	.st202{clip-path:url(#SVGID_00000031919339234054534120000008231310627785597579_);fill:#6EC3BF;}
	.st203{clip-path:url(#SVGID_00000031919339234054534120000008231310627785597579_);fill:#2B2961;}
	.st204{clip-path:url(#SVGID_00000018916431038834869410000000587287446679241657_);fill:#6EC3BF;}
	.st205{clip-path:url(#SVGID_00000018916431038834869410000000587287446679241657_);fill:#2B2961;}
	.st206{clip-path:url(#SVGID_00000058561005095484280130000002525648222678093721_);fill:#2B2961;}
	.st207{clip-path:url(#SVGID_00000143589927621495982880000012901122562086283444_);fill:#2B2961;}
	.st208{clip-path:url(#SVGID_00000143589927621495982880000012901122562086283444_);fill:#6EC3BF;}
	.st209{clip-path:url(#SVGID_00000014596990879251588590000004449195032336979092_);fill:#2B2961;}
	.st210{clip-path:url(#SVGID_00000014596990879251588590000004449195032336979092_);fill:#6EC3BF;}
	.st211{clip-path:url(#SVGID_00000004515787464015336540000004384858473679223457_);fill:#2B2961;}
	.st212{clip-path:url(#SVGID_00000004515787464015336540000004384858473679223457_);fill:#6EC3BF;}
	.st213{clip-path:url(#SVGID_00000071534434152973753970000013403965551942174383_);fill:#2B2961;}
	.st214{clip-path:url(#SVGID_00000051367593520904269750000008875743252573118874_);fill:#6EC3BF;}
	.st215{clip-path:url(#SVGID_00000051367593520904269750000008875743252573118874_);fill:#2B2961;}
	.st216{clip-path:url(#SVGID_00000094594893523205434330000005441157849754505918_);fill:#6EC3BF;}
	.st217{clip-path:url(#SVGID_00000094594893523205434330000005441157849754505918_);fill:#2B2961;}
	.st218{clip-path:url(#SVGID_00000010307209691333259780000007041905384889044126_);fill:#FFFFFF;}
	.st219{clip-path:url(#SVGID_00000010307209691333259780000007041905384889044126_);fill:#2B2961;}
	.st220{clip-path:url(#SVGID_00000168108697864547681740000018037869242109700777_);fill:#FFFFFF;}
	.st221{clip-path:url(#SVGID_00000168108697864547681740000018037869242109700777_);fill:#2B2961;}
	.st222{clip-path:url(#SVGID_00000168816465326695765790000010856688354476533941_);fill:#FFFFFF;}
	.st223{clip-path:url(#SVGID_00000168816465326695765790000010856688354476533941_);fill:#2B2961;}
	.st224{clip-path:url(#SVGID_00000056426199090753935290000007157082681142314370_);fill:#6EC3BF;}
	.st225{clip-path:url(#SVGID_00000056426199090753935290000007157082681142314370_);fill:#2B2961;}
	.st226{clip-path:url(#SVGID_00000118368705346510467960000005957164677954782885_);fill:#2B2961;}
	.st227{clip-path:url(#SVGID_00000118368705346510467960000005957164677954782885_);fill:#6EC3BF;}
	.st228{clip-path:url(#SVGID_00000052072836631366990010000018319942557937870480_);fill:#2B2961;}
	.st229{clip-path:url(#SVGID_00000103945364509628137170000006887437261292026795_);fill:#6EC3BF;}
	.st230{clip-path:url(#SVGID_00000103945364509628137170000006887437261292026795_);fill:#2B2961;}
	.st231{clip-path:url(#SVGID_00000001633190646065296310000016448073180544315544_);fill:#2B2961;}
	.st232{clip-path:url(#SVGID_00000121260292691883714820000015739788747533072531_);fill:#2B2961;}
	.st233{clip-path:url(#SVGID_00000121260292691883714820000015739788747533072531_);fill:#6EC3BF;}
	.st234{clip-path:url(#SVGID_00000176042346966053639130000003855970596526296760_);fill:#2B2961;}
	.st235{clip-path:url(#SVGID_00000152972744020794635620000002585868534502032574_);fill:#FFFFFF;}
	.st236{clip-path:url(#SVGID_00000152972744020794635620000002585868534502032574_);fill:#2B2961;}
	.st237{fill:#2C265F;}
	.st238{clip-path:url(#SVGID_00000114051215392782827510000004179305519702265743_);fill:#2B2961;}
	.st239{clip-path:url(#SVGID_00000114051215392782827510000004179305519702265743_);fill:#6EC3BF;}
	.st240{fill:#61B87A;}
	.st241{clip-path:url(#SVGID_00000014602314733673656040000001583869407886195873_);fill:#2B2961;}
	.st242{clip-path:url(#SVGID_00000118373123961176209950000008043488256032035457_);fill:#2B2961;}
	.st243{clip-path:url(#SVGID_00000131363450478490199310000011900786508253022876_);fill:#2B2961;}
	.st244{clip-path:url(#SVGID_00000063598387289113766010000011881129594977038779_);fill:#2B2961;}
	.st245{clip-path:url(#SVGID_00000063598387289113766010000011881129594977038779_);fill:#61B87A;}
	.st246{clip-path:url(#SVGID_00000063598387289113766010000011881129594977038779_);fill:#FFFFFF;}
	.st247{clip-path:url(#SVGID_00000108266985249520957730000015028560352134305671_);fill:#2B2961;}
	.st248{clip-path:url(#SVGID_00000108266985249520957730000015028560352134305671_);fill:#61B87A;}
	.st249{clip-path:url(#SVGID_00000006684746762141747700000013908917676290277541_);fill:#2B2961;}
	.st250{clip-path:url(#SVGID_00000178884657030035214000000011919196823750035588_);fill:#6EC3BF;}
	.st251{clip-path:url(#SVGID_00000178884657030035214000000011919196823750035588_);fill:#2B2961;}
	.st252{clip-path:url(#SVGID_00000043427089226020063580000012967542695714118556_);fill:#2B2961;}
	.st253{clip-path:url(#SVGID_00000043427089226020063580000012967542695714118556_);fill:#6EC3BF;}
	.st254{clip-path:url(#SVGID_00000098198569185794851640000000265472717973804707_);fill:#2B2961;}
	.st255{clip-path:url(#SVGID_00000098198569185794851640000000265472717973804707_);fill:#6EC3BF;}
</style>
<g>
	<rect x="10.14" y="357.14" class="st2" width="36.64" height="153.78"/>
	<rect x="10.14" y="199.01" class="st2" width="36.64" height="153.79"/>
	<rect x="10.14" y="42.99" class="st2" width="36.64" height="62.34"/>
	<rect x="10.14" y="345.47" class="st2" width="385.41" height="36.64"/>
	<rect x="10.14" y="187.34" class="st2" width="385.41" height="36.64"/>
	<g>
		<defs>
			<rect id="SVGID_00000097478288703966616800000002003643911723324078_" x="-13.13" y="0" width="433.5" height="512"/>
		</defs>
		<clipPath id="SVGID_00000101785242044477039450000013587757492072240059_">
			<use xlink:href="#SVGID_00000097478288703966616800000002003643911723324078_"  style="overflow:visible;"/>
		</clipPath>
		<path style="clip-path:url(#SVGID_00000101785242044477039450000013587757492072240059_);fill:#2B2961;" d="M247.25,303.77
			c0,4.61-0.27,5.72-1.18,6.72c-0.67,0.77-1.71,1.28-2.99,1.28c-1.28,0-2.36-0.5-3.03-1.28c-0.91-1.01-1.14-2.12-1.14-6.72
			c0-4.6,0.24-5.71,1.14-6.72c0.67-0.78,1.75-1.28,3.03-1.28c1.28,0,2.32,0.5,2.99,1.28C246.97,298.05,247.25,299.16,247.25,303.77
			 M251.91,303.77c0-4.13,0.03-7.13-2.38-9.54c-1.68-1.68-3.73-2.62-6.45-2.62c-2.72,0-4.81,0.94-6.49,2.62
			c-2.42,2.42-2.35,5.41-2.35,9.54c0,4.14-0.07,7.13,2.35,9.54c1.68,1.68,3.76,2.62,6.49,2.62c2.72,0,4.77-0.94,6.45-2.62
			C251.95,310.9,251.91,307.9,251.91,303.77 M229.6,304.11h-10.35v4.06h10.35V304.11z M209.61,298.73c0,1.65-1.11,2.76-3.09,2.76
			h-4.57v-5.52h4.57C208.49,295.97,209.61,297.08,209.61,298.73 M209.94,308.61c0,1.62-1.01,2.96-3.13,2.96h-4.88v-5.89h4.88
			C208.93,305.68,209.94,306.99,209.94,308.61 M214.61,308.84c0-3.2-1.85-4.71-3.29-5.38c1.21-0.57,2.95-2.28,2.95-4.94
			c0-4.1-2.72-6.72-7.39-6.72h-9.61v23.92h10.01C211.55,315.73,214.61,313.31,214.61,308.84 M186.11,307.57h-5.95l3.02-8.7
			L186.11,307.57z M193.64,315.73l-8.74-23.92h-3.66l-8.7,23.92h4.87l1.45-4.23h8.5l1.41,4.23H193.64z M172.77,291.81h-4.87
			l-4.81,15.59l-4.81-15.59h-4.84l7.9,23.92h3.5L172.77,291.81z"/>
		<path style="clip-path:url(#SVGID_00000101785242044477039450000013587757492072240059_);fill:#2B2961;" d="M290.11,133.68h-4.87
			l-4.81,15.59l-4.81-15.59h-4.84l7.9,23.92h3.5L290.11,133.68z M263.49,149.44h-5.95l3.02-8.7L263.49,149.44z M271.02,157.6
			l-8.74-23.92h-3.66l-8.7,23.92h4.87l1.45-4.23h8.5l1.41,4.23H271.02z M240.74,131.19h-4.1l-9.58,28.9h4.1L240.74,131.19z
			 M211.2,141c0,1.85-1.34,3.16-3.39,3.16h-4.41v-6.32h4.41C209.86,137.84,211.2,139.15,211.2,141 M216.84,157.6l-5.34-10.31
			c2.32-0.84,4.37-2.92,4.37-6.28c0-4-2.89-7.32-7.76-7.32h-9.38v23.92h4.67v-9.54h3.36l4.67,9.54H216.84z M193.29,145.98h-10.35
			v4.06h10.35V145.98z M173.29,140.6c0,1.65-1.11,2.76-3.09,2.76h-4.57v-5.52h4.57C172.18,137.84,173.29,138.95,173.29,140.6
			 M173.63,150.48c0,1.62-1.01,2.96-3.13,2.96h-4.88v-5.89h4.88C172.62,147.55,173.63,148.87,173.63,150.48 M178.3,150.71
			c0-3.2-1.85-4.7-3.29-5.38c1.21-0.57,2.95-2.28,2.95-4.94c0-4.1-2.72-6.72-7.39-6.72h-9.61v23.92h10.01
			C175.24,157.6,178.3,155.18,178.3,150.71 M149.8,149.44h-5.95l3.02-8.7L149.8,149.44z M157.33,157.6l-8.74-23.92h-3.66l-8.7,23.92
			h4.87l1.45-4.23h8.5l1.41,4.23H157.33z M136.46,133.68h-4.87l-4.81,15.59l-4.81-15.59h-4.84l7.9,23.92h3.5L136.46,133.68z"/>
	</g>
	<rect x="10.91" y="0.78" class="st2" width="382.56" height="53.77"/>
	<path class="st6" d="M394.25,55.32H10.14V0h384.12V55.32z M11.69,53.77H392.7V1.55H11.69V53.77z"/>
	<g>
		<defs>
			<rect id="SVGID_00000128462250809705509600000008107085400946968716_" x="-13.13" y="0" width="433.5" height="512"/>
		</defs>
		<clipPath id="SVGID_00000117654056160375910000000005855624325906985355_">
			<use xlink:href="#SVGID_00000128462250809705509600000008107085400946968716_"  style="overflow:visible;"/>
		</clipPath>
		<path style="clip-path:url(#SVGID_00000117654056160375910000000005855624325906985355_);fill:#FFFFFF;" d="M369.73,31.91
			c0-2.96-1.75-4.81-5.21-5.14l-2.76-0.27c-1.55-0.13-1.81-0.87-1.81-1.51c0-0.87,0.74-1.68,2.49-1.68c1.51,0,3.06,0.27,4.07,1.18
			l2.69-2.72c-1.68-1.58-3.97-2.05-6.69-2.05c-3.56,0-6.75,1.95-6.75,5.57c0,3.23,1.95,4.61,5.11,4.91l2.76,0.27
			c1.38,0.13,1.85,0.74,1.85,1.61c0,1.31-1.58,1.82-3.09,1.82c-1.34,0-3.23-0.2-4.67-1.65l-2.86,2.86c2.22,2.22,4.7,2.52,7.46,2.52
			C366.44,37.62,369.73,35.78,369.73,31.91 M352.42,31.91c0-2.96-1.75-4.81-5.21-5.14l-2.76-0.27c-1.55-0.13-1.81-0.87-1.81-1.51
			c0-0.87,0.74-1.68,2.49-1.68c1.51,0,3.06,0.27,4.07,1.18l2.69-2.72c-1.68-1.58-3.97-2.05-6.69-2.05c-3.56,0-6.76,1.95-6.76,5.57
			c0,3.23,1.95,4.61,5.11,4.91l2.76,0.27c1.38,0.13,1.85,0.74,1.85,1.61c0,1.31-1.58,1.82-3.09,1.82c-1.34,0-3.23-0.2-4.67-1.65
			l-2.86,2.86c2.22,2.22,4.7,2.52,7.46,2.52C349.13,37.62,352.42,35.78,352.42,31.91 M333.67,37.42v-17.5h-4.37V30.5
			c0,2.39-1.55,3.19-2.92,3.19c-1.38,0-2.89-0.81-2.89-3.19V19.92h-4.37v11.19c0,1.92,0.37,3.56,1.78,4.97
			c0.97,0.97,2.38,1.54,4.13,1.54c1.62,0,3.23-0.6,4.37-1.81v1.61H333.67z M315.15,37.42v-3.69h-1.68c-1.11,0-1.55-0.54-1.55-1.58
			V13.5h-4.36v18.92c0,2.48,1.51,5,5.1,5H315.15z M302.35,37.42V26.1c0-3.69-2.01-6.38-5.85-6.38c-1.55,0-3.03,0.6-4.2,1.81V13.5
			h-4.36v23.92h4.36V26.73c0-2.29,1.45-3.09,2.83-3.09c1.38,0,2.86,0.77,2.86,3.09v10.69H302.35z M283.86,35.24l-2.96-2.92
			c-0.91,0.98-1.68,1.38-2.82,1.38c-1.04,0-1.85-0.37-2.49-1.15c-0.67-0.84-0.97-2.05-0.97-3.9s0.3-3.03,0.97-3.87
			c0.64-0.77,1.45-1.14,2.49-1.14c1.14,0,1.92,0.4,2.82,1.38l2.96-2.95c-1.55-1.61-3.36-2.35-5.78-2.35c-3.5,0-7.83,1.85-7.83,8.94
			s4.33,8.97,7.83,8.97C280.5,37.62,282.32,36.85,283.86,35.24 M266.79,31.91c0-2.96-1.75-4.81-5.21-5.14l-2.76-0.27
			c-1.55-0.13-1.81-0.87-1.81-1.51c0-0.87,0.74-1.68,2.49-1.68c1.51,0,3.06,0.27,4.07,1.18l2.69-2.72
			c-1.68-1.58-3.97-2.05-6.69-2.05c-3.56,0-6.76,1.95-6.76,5.57c0,3.23,1.95,4.61,5.11,4.91l2.76,0.27
			c1.38,0.13,1.85,0.74,1.85,1.61c0,1.31-1.58,1.82-3.09,1.82c-1.34,0-3.23-0.2-4.67-1.65l-2.86,2.86c2.22,2.22,4.7,2.52,7.46,2.52
			C263.5,37.62,266.79,35.78,266.79,31.91 M244.41,28.65c0,2.86-0.34,5.04-2.96,5.04c-2.62,0-2.96-2.19-2.96-5.04
			c0-2.86,0.34-5.01,2.96-5.01C244.08,23.64,244.41,25.79,244.41,28.65 M248.78,28.65c0-2.62-0.03-5.61-1.78-7.36
			c-0.97-0.97-2.55-1.58-4.27-1.58c-1.78,0-3.09,0.47-4.24,1.74V13.5h-4.36v23.92h4.23v-1.64c1.21,1.34,2.52,1.85,4.37,1.85
			c1.72,0,3.29-0.6,4.27-1.58C248.74,34.3,248.78,31.27,248.78,28.65 M224.38,30.97c0,1.08-0.17,1.78-0.64,2.22
			c-0.77,0.74-1.55,0.84-2.76,0.84c-1.71,0-2.52-0.81-2.52-2.02c0-1.25,0.88-1.99,2.46-1.99h3.46V30.97z M228.75,37.42V25.9
			c0-4.1-2.55-6.18-7.46-6.18c-2.93,0-4.6,0.54-6.32,2.42l2.79,2.72c0.9-1.04,1.68-1.45,3.36-1.45c2.32,0,3.26,0.84,3.26,2.76v0.88
			h-4.14c-4.07,0-5.98,2.28-5.98,5.07c0,1.55,0.5,2.96,1.44,3.93c1.04,1.04,2.48,1.54,4.47,1.54c2.02,0,3.13-0.5,4.3-1.68v1.51
			H228.75z M211.34,37.42v-3.69h-1.68c-1.11,0-1.55-0.54-1.55-1.58V13.5h-4.36v18.92c0,2.48,1.51,5,5.1,5H211.34z M198.33,37.42
			v-17.5h-4.36V30.5c0,2.39-1.55,3.19-2.93,3.19c-1.38,0-2.89-0.81-2.89-3.19V19.92h-4.36v11.19c0,1.92,0.37,3.56,1.78,4.97
			c0.97,0.97,2.38,1.54,4.13,1.54c1.61,0,3.23-0.6,4.37-1.81v1.61H198.33z M178.61,37.42V26.1c0-3.69-2.02-6.38-5.85-6.38
			c-1.55,0-3.03,0.6-4.2,1.81V13.5h-4.37v23.92h4.37V26.73c0-2.29,1.45-3.09,2.82-3.09c1.38,0,2.86,0.77,2.86,3.09v10.69H178.61z
			 M160.12,35.24l-2.96-2.92c-0.91,0.98-1.68,1.38-2.82,1.38c-1.04,0-1.85-0.37-2.49-1.15c-0.67-0.84-0.97-2.05-0.97-3.9
			s0.3-3.03,0.97-3.87c0.64-0.77,1.45-1.14,2.49-1.14c1.14,0,1.92,0.4,2.82,1.38l2.96-2.95c-1.55-1.61-3.36-2.35-5.78-2.35
			c-3.5,0-7.83,1.85-7.83,8.94s4.33,8.97,7.83,8.97C156.76,37.62,158.58,36.85,160.12,35.24 M143.05,31.91
			c0-2.96-1.75-4.81-5.21-5.14l-2.76-0.27c-1.55-0.13-1.81-0.87-1.81-1.51c0-0.87,0.74-1.68,2.49-1.68c1.51,0,3.06,0.27,4.07,1.18
			l2.69-2.72c-1.68-1.58-3.97-2.05-6.69-2.05c-3.56,0-6.76,1.95-6.76,5.57c0,3.23,1.95,4.61,5.11,4.91l2.76,0.27
			c1.38,0.13,1.85,0.74,1.85,1.61c0,1.31-1.58,1.82-3.09,1.82c-1.34,0-3.23-0.2-4.67-1.65l-2.86,2.86c2.22,2.22,4.7,2.52,7.46,2.52
			C139.76,37.62,143.05,35.78,143.05,31.91 M125.24,37.42v-3.69h-1.58c-1.04,0-1.51-0.57-1.51-1.58v-8.4h3.09v-3.32h-3.09v-5.18
			h-4.37v5.18h-1.85v3.32h1.85v8.67c0,2.49,1.51,5,5.07,5H125.24z M108.17,28.65c0,2.86-0.34,5.04-2.96,5.04
			c-2.62,0-2.96-2.19-2.96-5.04c0-2.86,0.34-5.01,2.96-5.01C107.83,23.64,108.17,25.79,108.17,28.65 M112.54,28.65
			c0-2.62-0.03-5.61-1.78-7.36c-0.97-0.97-2.55-1.58-4.27-1.58c-1.85,0-3.16,0.5-4.37,1.85v-1.64h-4.23v23.92h4.36v-7.96
			c1.14,1.27,2.46,1.74,4.24,1.74c1.72,0,3.29-0.6,4.27-1.58C112.5,34.3,112.54,31.27,112.54,28.65 M92.31,37.42v-17.5h-4.36V30.5
			c0,2.39-1.55,3.19-2.93,3.19c-1.38,0-2.89-0.81-2.89-3.19V19.92h-4.36v11.19c0,1.92,0.37,3.56,1.78,4.97
			c0.97,0.97,2.38,1.54,4.13,1.54c1.62,0,3.23-0.6,4.37-1.81v1.61H92.31z M68.21,30.97c0,1.08-0.17,1.78-0.64,2.22
			c-0.77,0.74-1.55,0.84-2.76,0.84c-1.72,0-2.52-0.81-2.52-2.02c0-1.25,0.87-1.99,2.46-1.99h3.46V30.97z M72.58,37.42V25.9
			c0-4.1-2.55-6.18-7.46-6.18c-2.93,0-4.6,0.54-6.32,2.42l2.79,2.72c0.91-1.04,1.68-1.45,3.36-1.45c2.32,0,3.26,0.84,3.26,2.76v0.88
			h-4.14c-4.06,0-5.98,2.28-5.98,5.07c0,1.55,0.5,2.96,1.44,3.93c1.04,1.04,2.48,1.54,4.47,1.54c2.02,0,3.13-0.5,4.31-1.68v1.51
			H72.58z M53.42,37.42V13.5h-4.67v9.78h-8.1V13.5h-4.67v23.92h4.67V27.41h8.1v10.01H53.42z"/>
	</g>
	<path class="st6" d="M397.1,382.67H10.14V261.55H397.1V382.67z M11.69,381.12h383.86V263.1H11.69V381.12z"/>
	<path class="st6" d="M397.1,224.54H10.14V103.42H397.1V224.54z M11.69,222.99h383.86V104.97H11.69V222.99z"/>
	<rect x="10.91" y="422.15" class="st2" width="385.42" height="89.08"/>
	<g>
		<defs>
			<rect id="SVGID_00000121272391609825375050000017637566263608776638_" x="-13.13" y="0" width="433.5" height="512"/>
		</defs>
		<clipPath id="SVGID_00000133495415921857447050000013280078632065692295_">
			<use xlink:href="#SVGID_00000121272391609825375050000017637566263608776638_"  style="overflow:visible;"/>
		</clipPath>
		<path style="clip-path:url(#SVGID_00000133495415921857447050000013280078632065692295_);fill:#2B2961;" d="M397.1,512H10.14
			v-90.63H397.1V512z M11.69,510.45h383.86v-87.53H11.69V510.45z"/>
		<path style="clip-path:url(#SVGID_00000133495415921857447050000013280078632065692295_);fill:#2B2961;" d="M326.2,452.92
			c0-2.96-1.75-4.81-5.21-5.14l-2.76-0.27c-1.55-0.13-1.81-0.87-1.81-1.51c0-0.87,0.74-1.68,2.49-1.68c1.51,0,3.06,0.27,4.07,1.18
			l2.69-2.72c-1.68-1.58-3.97-2.05-6.69-2.05c-3.56,0-6.76,1.95-6.76,5.57c0,3.23,1.95,4.61,5.11,4.91l2.76,0.27
			c1.38,0.13,1.85,0.74,1.85,1.62c0,1.31-1.58,1.81-3.09,1.81c-1.34,0-3.23-0.2-4.67-1.65l-2.86,2.85c2.22,2.22,4.7,2.52,7.46,2.52
			C322.91,458.63,326.2,456.78,326.2,452.92 M308.89,452.92c0-2.96-1.75-4.81-5.21-5.14l-2.76-0.27c-1.55-0.13-1.81-0.87-1.81-1.51
			c0-0.87,0.74-1.68,2.49-1.68c1.51,0,3.06,0.27,4.07,1.18l2.69-2.72c-1.68-1.58-3.97-2.05-6.69-2.05c-3.56,0-6.76,1.95-6.76,5.57
			c0,3.23,1.95,4.61,5.11,4.91l2.76,0.27c1.38,0.13,1.85,0.74,1.85,1.62c0,1.31-1.58,1.81-3.09,1.81c-1.34,0-3.23-0.2-4.67-1.65
			l-2.86,2.85c2.22,2.22,4.7,2.52,7.46,2.52C305.6,458.63,308.89,456.78,308.89,452.92 M290.14,458.43v-17.5h-4.36v10.59
			c0,2.39-1.55,3.19-2.93,3.19c-1.38,0-2.89-0.81-2.89-3.19v-10.59h-4.36v11.19c0,1.92,0.37,3.56,1.78,4.97
			c0.97,0.97,2.38,1.54,4.13,1.54c1.62,0,3.23-0.6,4.37-1.81v1.61H290.14z M271.62,458.43v-3.69h-1.68c-1.11,0-1.55-0.54-1.55-1.58
			V434.5h-4.36v18.92c0,2.48,1.51,5,5.1,5H271.62z M258.82,458.43V447.1c0-3.69-2.01-6.38-5.85-6.38c-1.55,0-3.02,0.6-4.2,1.81
			v-8.03h-4.36v23.92h4.36v-10.69c0-2.29,1.45-3.09,2.83-3.09c1.38,0,2.86,0.77,2.86,3.09v10.69H258.82z M240.33,456.24l-2.96-2.92
			c-0.91,0.97-1.68,1.38-2.82,1.38c-1.04,0-1.85-0.37-2.49-1.14c-0.67-0.84-0.97-2.05-0.97-3.9c0-1.85,0.3-3.02,0.97-3.87
			c0.64-0.77,1.45-1.14,2.49-1.14c1.14,0,1.92,0.4,2.82,1.38l2.96-2.95c-1.55-1.61-3.36-2.35-5.78-2.35c-3.5,0-7.83,1.85-7.83,8.94
			c0,7.09,4.33,8.97,7.83,8.97C236.97,458.63,238.79,457.85,240.33,456.24 M223.26,452.92c0-2.96-1.75-4.81-5.21-5.14l-2.76-0.27
			c-1.55-0.13-1.81-0.87-1.81-1.51c0-0.87,0.74-1.68,2.49-1.68c1.51,0,3.06,0.27,4.07,1.18l2.69-2.72
			c-1.68-1.58-3.97-2.05-6.69-2.05c-3.56,0-6.76,1.95-6.76,5.57c0,3.23,1.95,4.61,5.11,4.91l2.76,0.27
			c1.38,0.13,1.85,0.74,1.85,1.62c0,1.31-1.58,1.81-3.09,1.81c-1.34,0-3.23-0.2-4.67-1.65l-2.86,2.85c2.22,2.22,4.7,2.52,7.46,2.52
			C219.97,458.63,223.26,456.78,223.26,452.92 M200.88,449.66c0,2.86-0.34,5.04-2.96,5.04s-2.96-2.19-2.96-5.04
			c0-2.86,0.34-5.01,2.96-5.01S200.88,446.8,200.88,449.66 M205.25,449.66c0-2.62-0.03-5.61-1.78-7.36
			c-0.97-0.97-2.55-1.58-4.27-1.58c-1.78,0-3.09,0.47-4.24,1.74v-7.96h-4.36v23.92h4.23v-1.64c1.21,1.34,2.52,1.85,4.37,1.85
			c1.71,0,3.29-0.6,4.27-1.58C205.21,455.31,205.25,452.28,205.25,449.66 M179.78,450.26h-5.95l3.02-8.7L179.78,450.26z
			 M187.3,458.43l-8.74-23.92h-3.66l-8.7,23.92h4.87l1.45-4.23h8.5l1.41,4.23H187.3z M151.01,448.05h-6.65
			c0.03-0.78,0.13-1.25,0.4-1.88c0.47-1.04,1.45-1.82,2.92-1.82c1.48,0,2.45,0.78,2.92,1.82
			C150.87,446.8,150.97,447.27,151.01,448.05 M155.31,451.03v-1.95c0-4.81-2.76-8.37-7.63-8.37c-4.54,0-7.63,3.22-7.63,8.94
			c0,7.09,3.96,8.97,8.1,8.97c3.16,0,4.87-0.97,6.65-2.75l-2.65-2.59c-1.11,1.11-2.05,1.65-3.97,1.65c-2.45,0-3.83-1.65-3.83-3.9
			H155.31z M135.55,458.43v-11.19c0-1.92-0.37-3.56-1.78-4.97c-0.97-0.97-2.38-1.54-4.13-1.54c-1.61,0-3.23,0.6-4.37,1.81v-1.61H121
			v17.5h4.37v-10.59c0-2.39,1.55-3.19,2.93-3.19c1.38,0,2.89,0.81,2.89,3.19v10.59H135.55z M115.62,458.43V447.1
			c0-3.69-2.01-6.38-5.85-6.38c-1.55,0-3.03,0.6-4.2,1.81v-8.03h-4.36v23.92h4.36v-10.69c0-2.29,1.45-3.09,2.83-3.09
			c1.38,0,2.86,0.77,2.86,3.09v10.69H115.62z M92,449.66c0,1.81-0.1,3.36-1.01,4.27c-0.5,0.5-1.18,0.77-2.05,0.77
			c-0.87,0-1.51-0.27-2.02-0.77c-0.91-0.91-1.01-2.46-1.01-4.27c0-1.81,0.1-3.33,1.01-4.24c0.5-0.5,1.15-0.77,2.02-0.77
			c0.87,0,1.55,0.27,2.05,0.77C91.9,446.33,92,447.84,92,449.66 M96.36,449.66c0-3.16-0.4-5.14-1.98-6.79
			c-1.08-1.14-2.86-2.15-5.44-2.15c-2.59,0-4.34,1.01-5.41,2.15c-1.58,1.64-1.98,3.63-1.98,6.79c0,3.2,0.4,5.18,1.98,6.82
			c1.07,1.14,2.82,2.15,5.41,2.15c2.59,0,4.37-1.01,5.44-2.15C95.96,454.83,96.36,452.85,96.36,449.66"/>
	</g>
	<polygon class="st3" points="22.39,389.9 34.52,389.9 28.46,383.84 	"/>
	<polygon class="st3" points="22.39,414.02 34.52,414.02 28.46,407.95 	"/>
	<polygon class="st3" points="22.39,401.96 34.52,401.96 28.46,395.9 	"/>
	<polygon class="st3" points="22.39,257.26 34.52,257.26 28.46,251.2 	"/>
	<polygon class="st3" points="22.39,231.77 34.52,231.77 28.46,225.71 	"/>
	<polygon class="st3" points="22.39,255.89 34.52,255.89 28.46,249.83 	"/>
	<polygon class="st3" points="22.39,243.83 34.52,243.83 28.46,237.77 	"/>
	<polygon class="st3" points="22.39,99.14 34.52,99.14 28.46,93.07 	"/>
	<polygon class="st3" points="22.39,61.19 34.52,61.19 28.46,55.13 	"/>
	<polygon class="st3" points="22.39,85.31 34.52,85.31 28.46,79.25 	"/>
	<polygon class="st3" points="22.39,73.25 34.52,73.25 28.46,67.19 	"/>
	<g>
		<defs>
			<rect id="SVGID_00000178183788952068241150000005175341444515736509_" x="-13.13" y="0" width="433.5" height="512"/>
		</defs>
		<clipPath id="SVGID_00000158021285931689301070000009519179159202161030_">
			<use xlink:href="#SVGID_00000178183788952068241150000005175341444515736509_"  style="overflow:visible;"/>
		</clipPath>
		<path style="clip-path:url(#SVGID_00000158021285931689301070000009519179159202161030_);fill:#FFFFFF;" d="M271.75,370.96V354.4
			h-2.37l-3.23,2.79v2.63l3.23-2.84v13.98H271.75z M252.25,359.26c0,1.63-1.14,2.59-2.82,2.59h-3.72v-5.19h3.72
			C251.11,356.66,252.25,357.64,252.25,359.26 M255.27,370.96l-3.81-7.33c1.86-0.51,3.3-2.02,3.3-4.4c0-2.82-2-4.84-5.14-4.84h-6.42
			v16.56h2.51v-6.98h3.14l3.49,6.98H255.27z M237.01,370.96V354.4h-2.51v7.07h-6.73v-7.07h-2.51v16.56h2.51v-7.24h6.73v7.24H237.01z
			 M216.54,365.5h-5.1l2.58-7.35L216.54,365.5z M221.05,370.96l-6.07-16.56h-2.02l-6.07,16.56h2.68l1.14-3.33h6.54l1.14,3.33H221.05
			z M203.13,365.73V354.4h-2.51v11.14c0,2.16-1.14,3.3-3,3.3c-1.21,0-1.77-0.42-2.35-1l-1.68,1.65c1.14,1.14,2.33,1.6,4.03,1.6
			C200.67,371.1,203.13,369.18,203.13,365.73 M186.15,352.68h-2.28l-6.63,20h2.28L186.15,352.68z M161.06,361.45
			c0.45-0.03,0.95-0.05,1.5-0.05c0.65,0,1.33,0.05,2.02,0.14c0.69,0.1,1.41,0.24,2.17,0.43l0.41-2.69c-0.43-0.16-0.91-0.29-1.43-0.4
			c-0.53-0.11-1.07-0.2-1.62-0.26c-0.55-0.06-1.1-0.09-1.65-0.09c-1.05,0-1.91,0.1-2.59,0.3c-0.67,0.2-1.2,0.52-1.59,0.98
			c-0.39,0.46-0.66,1.08-0.81,1.87c-0.16,0.79-0.23,1.78-0.23,2.97c0,1.21,0.08,2.22,0.25,3.02c0.16,0.81,0.44,1.46,0.83,1.94
			s0.93,0.83,1.62,1.03c0.69,0.21,1.55,0.31,2.59,0.31h5.71v-2.87h-6.15c-0.74,0-1.29-0.13-1.65-0.39s-0.54-0.71-0.52-1.34v-4.73
			C160.22,361.55,160.61,361.49,161.06,361.45 M162.56,370.97l-2.15-2.87h-6.64v2.87H162.56z M154.8,370.97v-2.87h-2.95v-13.42
			h-2.53v16.29H154.8z M136.16,369.52c-0.28-0.4-0.49-0.83-0.63-1.29c-0.15-0.47-0.25-0.97-0.31-1.53
			c-0.06-0.55-0.09-1.15-0.09-1.78c0-0.76,0.09-1.51,0.27-2.25c0.18-0.74,0.42-1.54,0.71-2.4l-2.48-0.67
			c-0.31,0.86-0.56,1.73-0.75,2.6c-0.19,0.87-0.28,1.78-0.28,2.73c0,1.03,0.08,2,0.25,2.9c0.16,0.9,0.49,1.63,0.97,2.2
			L136.16,369.52z M133.45,379.16c-0.28-1.05-0.47-1.93-0.58-2.64c-0.11-0.71-0.17-1.35-0.17-1.94c0-0.79,0.03-1.47,0.09-2.04
			s0.16-1.09,0.3-1.58h11.45v-8.82c0-0.88-0.16-1.58-0.48-2.11s-0.84-0.91-1.56-1.15c-0.72-0.24-1.68-0.36-2.87-0.36
			c-1.1,0-2.18,0.1-3.23,0.28s-1.97,0.45-2.77,0.78l1.01,2.43c0.74-0.21,1.53-0.36,2.37-0.47s1.62-0.16,2.37-0.16
			c1.12,0,2,0.08,2.64,0.23v6.46h-8.43c-0.83,0-1.49,0.2-1.99,0.59c-0.5,0.4-0.87,1.03-1.1,1.89c-0.23,0.86-0.35,2-0.35,3.41
			c0,0.65,0.03,1.32,0.1,1.99c0.07,0.67,0.16,1.32,0.28,1.94c0.12,0.62,0.26,1.18,0.41,1.68L133.45,379.16z"/>
		<path style="clip-path:url(#SVGID_00000158021285931689301070000009519179159202161030_);fill:#FFFFFF;" d="M271.75,212.84v-16.56
			h-2.37l-3.23,2.79v2.63l3.23-2.84v13.98H271.75z M252.25,201.14c0,1.63-1.14,2.59-2.82,2.59h-3.72v-5.19h3.72
			C251.11,198.53,252.25,199.51,252.25,201.14 M255.27,212.84l-3.81-7.33c1.86-0.51,3.3-2.02,3.3-4.4c0-2.82-2-4.84-5.14-4.84h-6.42
			v16.56h2.51v-6.98h3.14l3.49,6.98H255.27z M237.01,212.84v-16.56h-2.51v7.07h-6.73v-7.07h-2.51v16.56h2.51v-7.24h6.73v7.24H237.01
			z M216.54,207.37h-5.1l2.58-7.35L216.54,207.37z M221.05,212.84l-6.07-16.56h-2.02l-6.07,16.56h2.68l1.14-3.33h6.54l1.14,3.33
			H221.05z M203.13,207.61v-11.33h-2.51v11.14c0,2.16-1.14,3.3-3,3.3c-1.21,0-1.77-0.42-2.35-1l-1.68,1.65
			c1.14,1.14,2.33,1.6,4.03,1.6C200.67,212.98,203.13,211.05,203.13,207.61 M186.15,194.55h-2.28l-6.63,20h2.28L186.15,194.55z
			 M161.06,203.32c0.45-0.03,0.95-0.05,1.5-0.05c0.65,0,1.33,0.05,2.02,0.14c0.69,0.1,1.41,0.24,2.17,0.43l0.41-2.69
			c-0.43-0.16-0.91-0.29-1.43-0.4c-0.53-0.11-1.07-0.2-1.62-0.26c-0.55-0.06-1.1-0.09-1.65-0.09c-1.05,0-1.91,0.1-2.59,0.3
			c-0.67,0.2-1.2,0.52-1.59,0.98c-0.39,0.46-0.66,1.08-0.81,1.87c-0.16,0.79-0.23,1.78-0.23,2.97c0,1.21,0.08,2.22,0.25,3.02
			c0.16,0.81,0.44,1.46,0.83,1.94c0.39,0.48,0.93,0.83,1.62,1.03c0.69,0.21,1.55,0.31,2.59,0.31h5.71v-2.87h-6.15
			c-0.74,0-1.29-0.13-1.65-0.39s-0.54-0.71-0.52-1.34v-4.73C160.22,203.42,160.61,203.36,161.06,203.32 M162.56,212.84l-2.15-2.87
			h-6.64v2.87H162.56z M154.8,212.84v-2.87h-2.95v-13.42h-2.53v16.29H154.8z M136.16,211.39c-0.28-0.4-0.49-0.83-0.63-1.29
			s-0.25-0.97-0.31-1.53c-0.06-0.55-0.09-1.15-0.09-1.78c0-0.76,0.09-1.51,0.27-2.25c0.18-0.74,0.42-1.54,0.71-2.4l-2.48-0.67
			c-0.31,0.86-0.56,1.73-0.75,2.6s-0.28,1.78-0.28,2.73c0,1.03,0.08,2,0.25,2.9c0.16,0.9,0.49,1.63,0.97,2.2L136.16,211.39z
			 M133.45,221.03c-0.28-1.05-0.47-1.93-0.58-2.64c-0.11-0.71-0.17-1.35-0.17-1.94c0-0.79,0.03-1.47,0.09-2.04s0.16-1.09,0.3-1.58
			h11.45v-8.82c0-0.88-0.16-1.58-0.48-2.11c-0.32-0.52-0.84-0.91-1.56-1.15c-0.72-0.24-1.68-0.36-2.87-0.36
			c-1.1,0-2.18,0.1-3.23,0.28s-1.97,0.45-2.77,0.78l1.01,2.43c0.74-0.21,1.53-0.36,2.37-0.47c0.84-0.1,1.62-0.16,2.37-0.16
			c1.12,0,2,0.08,2.64,0.23v6.46h-8.43c-0.83,0-1.49,0.2-1.99,0.59c-0.5,0.4-0.87,1.03-1.1,1.89s-0.35,2-0.35,3.41
			c0,0.65,0.03,1.32,0.1,1.99s0.16,1.32,0.28,1.94c0.12,0.62,0.26,1.18,0.41,1.68L133.45,221.03z"/>
		<path style="clip-path:url(#SVGID_00000158021285931689301070000009519179159202161030_);fill:#FFFFFF;" d="M316.34,497.34
			c0.3-0.23,0.56-0.49,0.79-0.79c0.23-0.3,0.34-0.56,0.34-0.79c0-0.25-0.11-0.52-0.34-0.82c-0.23-0.3-0.49-0.56-0.78-0.78
			c-0.29-0.22-0.56-0.33-0.81-0.33c-0.25,0-0.52,0.11-0.82,0.33c-0.3,0.22-0.56,0.48-0.78,0.78c-0.22,0.3-0.33,0.57-0.33,0.82
			c0,0.23,0.11,0.5,0.33,0.81c0.22,0.31,0.48,0.57,0.79,0.79c0.31,0.22,0.58,0.33,0.81,0.33S316.04,497.57,316.34,497.34
			 M317.07,491.35v-14.58h-3.04v11.14h-4.9v3.44H317.07z M308.66,491.35v-2.67c-0.6-2.23-1.15-4.1-1.64-5.6
			c-0.5-1.5-0.99-2.71-1.49-3.65c-0.5-0.93-1.04-1.63-1.64-2.11c-0.6-0.48-1.3-0.8-2.09-0.96c-0.8-0.17-1.75-0.25-2.87-0.25
			c-0.52,0-1.09,0.04-1.71,0.11s-1.22,0.18-1.8,0.33l0.87,3.32c0.39-0.1,0.83-0.18,1.3-0.23c0.48-0.05,0.92-0.08,1.33-0.08
			c0.81,0,1.49,0.11,2.06,0.33c0.57,0.22,1.07,0.63,1.49,1.23c0.42,0.6,0.84,1.44,1.24,2.53c0.4,1.09,0.83,2.51,1.29,4.27h-10.27
			v3.44H308.66z M307.91,491.35h2.45v-3.44h-2.45V491.35z M287.18,497.22c0.8-0.95,1.5-1.96,2.11-3.02
			c0.61-1.07,1.09-2.14,1.43-3.21c0.34-1.08,0.51-2.1,0.51-3.07h-3.07c0,0.74-0.14,1.54-0.43,2.39c-0.29,0.85-0.69,1.7-1.19,2.56
			c-0.51,0.86-1.1,1.68-1.77,2.47s-1.39,1.49-2.16,2.11l1.95,2.33C285.51,499.02,286.38,498.17,287.18,497.22 M280.86,487.91v-6.45
			c0-0.64,0.11-1.07,0.33-1.27c0.22-0.21,0.62-0.31,1.19-0.31h5.77v6.58c0,0.56-0.1,0.94-0.29,1.15c-0.2,0.21-0.55,0.31-1.07,0.31
			H280.86z M289.67,491.35l1.55-3.44v-10.45c-1.08-0.37-2.12-0.64-3.13-0.79c-1.01-0.16-2.21-0.23-3.6-0.23
			c-1.3,0-2.4,0.11-3.29,0.34c-0.89,0.23-1.59,0.62-2.11,1.18c-0.52,0.56-0.89,1.31-1.12,2.26s-0.34,2.16-0.34,3.63
			c0,1.43,0.09,2.63,0.26,3.61c0.18,0.98,0.45,1.75,0.84,2.31c0.38,0.56,0.89,0.96,1.54,1.21s1.44,0.37,2.39,0.37H289.67z
			 M265.37,472.74c0.3-0.23,0.56-0.49,0.79-0.79c0.23-0.3,0.34-0.56,0.34-0.79c0-0.25-0.11-0.52-0.34-0.82
			c-0.23-0.3-0.49-0.56-0.78-0.78c-0.29-0.22-0.56-0.33-0.81-0.33c-0.25,0-0.52,0.11-0.82,0.33c-0.3,0.22-0.56,0.48-0.78,0.78
			c-0.22,0.3-0.33,0.57-0.33,0.82c0,0.23,0.11,0.5,0.33,0.81c0.22,0.31,0.48,0.57,0.79,0.79c0.31,0.22,0.58,0.33,0.81,0.33
			C264.8,473.08,265.07,472.97,265.37,472.74 M259.75,493.42c-0.05-0.67-0.08-1.46-0.08-2.37c0-0.99,0.06-2.04,0.19-3.15
			c0.12-1.11,0.32-2.25,0.59-3.43L257.6,484c-0.21,0.68-0.38,1.46-0.53,2.33c-0.14,0.87-0.25,1.76-0.33,2.67s-0.11,1.8-0.11,2.67
			c0,1.45,0.1,2.63,0.29,3.55s0.56,1.64,1.1,2.16c0.54,0.52,1.29,0.88,2.26,1.1c0.97,0.22,2.23,0.33,3.78,0.33
			c1.74,0,3.14-0.1,4.22-0.29c1.08-0.2,1.91-0.54,2.5-1.02c0.59-0.49,0.99-1.16,1.19-2.03c0.21-0.87,0.31-1.96,0.31-3.29v-15.39
			h-3.04v16.94c0,0.66-0.29,1.1-0.88,1.32c-0.59,0.22-1.61,0.33-3.06,0.33h-5.3C259.89,494.73,259.81,494.09,259.75,493.42
			 M234.25,467.71c0.3-0.23,0.56-0.49,0.79-0.79c0.23-0.3,0.34-0.56,0.34-0.79c0-0.25-0.11-0.52-0.34-0.82
			c-0.23-0.3-0.49-0.56-0.78-0.78c-0.29-0.22-0.56-0.33-0.81-0.33c-0.25,0-0.52,0.11-0.82,0.33c-0.3,0.22-0.56,0.48-0.78,0.78
			c-0.22,0.3-0.33,0.57-0.33,0.82c0,0.23,0.11,0.5,0.33,0.81c0.22,0.31,0.48,0.57,0.79,0.79c0.31,0.22,0.58,0.33,0.81,0.33
			C233.69,468.06,233.95,467.94,234.25,467.71 M236.64,472.74c0.3-0.23,0.56-0.49,0.79-0.79c0.23-0.3,0.34-0.56,0.34-0.79
			c0-0.25-0.11-0.52-0.34-0.82c-0.23-0.3-0.49-0.56-0.78-0.78c-0.29-0.22-0.56-0.33-0.81-0.33c-0.25,0-0.52,0.11-0.82,0.33
			c-0.3,0.22-0.56,0.48-0.78,0.78c-0.22,0.3-0.33,0.57-0.33,0.82c0,0.23,0.11,0.5,0.33,0.81c0.22,0.31,0.48,0.57,0.79,0.79
			c0.31,0.22,0.58,0.33,0.81,0.33S236.34,472.97,236.64,472.74 M231.83,472.74c0.3-0.23,0.56-0.49,0.79-0.79
			c0.23-0.3,0.34-0.56,0.34-0.79c0-0.25-0.11-0.52-0.34-0.82c-0.23-0.3-0.49-0.56-0.78-0.78c-0.29-0.22-0.56-0.33-0.81-0.33
			c-0.25,0-0.52,0.11-0.82,0.33c-0.3,0.22-0.56,0.48-0.78,0.78c-0.22,0.3-0.33,0.57-0.33,0.82c0,0.23,0.11,0.5,0.33,0.81
			s0.48,0.57,0.79,0.79c0.31,0.22,0.58,0.33,0.81,0.33S231.53,472.97,231.83,472.74 M224.96,479.56h-3.04v8.34h-4.9v3.44h7.94
			V479.56z M231.43,491.07c0.9-0.19,1.59-0.51,2.06-0.98c0.48-0.47,0.8-1.11,0.98-1.94c0.18-0.83,0.26-1.88,0.26-3.16v-5.43h-3.07
			v6.7c0,0.66-0.19,1.1-0.56,1.32c-0.37,0.22-0.98,0.33-1.83,0.33h-4.31v3.44h2.95C229.36,491.35,230.53,491.26,231.43,491.07
			 M242.01,490.62c0.9-0.49,1.54-1.31,1.92-2.48c0.38-1.17,0.57-2.8,0.57-4.89c0-0.66-0.04-1.38-0.12-2.16
			c-0.08-0.78-0.19-1.54-0.31-2.3c-0.12-0.75-0.27-1.41-0.43-1.97l-3.04,0.47c0.27,1.08,0.48,2.13,0.62,3.16
			c0.14,1.03,0.22,2.02,0.22,2.95s-0.03,1.76-0.08,2.48c-0.05,0.72-0.14,1.4-0.26,2.02h-3.97c-0.83,0-1.43-0.11-1.81-0.33
			c-0.38-0.22-0.57-0.66-0.57-1.32v-6.7h-3.07v5.43c0,1.28,0.09,2.34,0.28,3.16c0.19,0.83,0.51,1.47,0.98,1.94
			c0.47,0.47,1.13,0.79,2,0.98c0.87,0.19,2,0.28,3.38,0.28C239.87,491.35,241.11,491.11,242.01,490.62 M206.01,488.62h-5.93v-3.57
			c0-0.43,0.11-0.73,0.34-0.9c0.23-0.17,0.6-0.25,1.12-0.25h4.47V488.62z M208.68,488.62c0-1.61-0.07-2.9-0.2-3.86
			c-0.13-0.96-0.4-1.68-0.79-2.16c-0.39-0.48-0.97-0.79-1.74-0.95c-0.77-0.16-1.77-0.23-3.01-0.23c-1.18,0-2.14,0.08-2.87,0.23
			c-0.73,0.16-1.29,0.47-1.68,0.95c-0.38,0.48-0.64,1.19-0.78,2.16s-0.2,2.25-0.2,3.86H208.68z M216.09,491.35v-2.64l-1.89-7.51
			c-0.45-1.9-1.16-3.38-2.13-4.44c-0.96-1.05-2.23-1.79-3.8-2.22c-1.57-0.42-3.54-0.64-5.89-0.64l-0.19,3.32
			c1.88,0,3.43,0.16,4.65,0.48c1.22,0.32,2.19,0.86,2.92,1.61c0.72,0.75,1.26,1.78,1.61,3.09l1.4,5.49h-18.74v3.44H216.09z
			 M214.51,491.38h3.75v-3.44h-3.75V491.38z M195.27,491.35v-3.44h-3.54v-16.1h-3.04v19.54H195.27z M184.26,491.35v-2.67
			c-0.6-2.23-1.15-4.1-1.64-5.6s-0.99-2.71-1.49-3.65c-0.5-0.93-1.04-1.63-1.64-2.11c-0.6-0.48-1.3-0.8-2.09-0.96
			c-0.8-0.17-1.75-0.25-2.87-0.25c-0.52,0-1.09,0.04-1.71,0.11c-0.62,0.07-1.22,0.18-1.8,0.33l0.87,3.32
			c0.39-0.1,0.83-0.18,1.3-0.23c0.48-0.05,0.92-0.08,1.33-0.08c0.81,0,1.49,0.11,2.06,0.33c0.57,0.22,1.07,0.63,1.49,1.23
			c0.42,0.6,0.84,1.44,1.24,2.53s0.83,2.51,1.29,4.27h-10.27v3.44H184.26z M163.4,472.74c0.3-0.23,0.56-0.49,0.79-0.79
			c0.23-0.3,0.34-0.56,0.34-0.79c0-0.25-0.11-0.52-0.34-0.82c-0.23-0.3-0.49-0.56-0.78-0.78c-0.29-0.22-0.56-0.33-0.81-0.33
			c-0.25,0-0.52,0.11-0.82,0.33c-0.3,0.22-0.56,0.48-0.78,0.78c-0.22,0.3-0.33,0.57-0.33,0.82c0,0.23,0.11,0.5,0.33,0.81
			s0.48,0.57,0.79,0.79c0.31,0.22,0.58,0.33,0.81,0.33C162.84,473.08,163.1,472.97,163.4,472.74 M158.59,472.74
			c0.3-0.23,0.56-0.49,0.79-0.79c0.23-0.3,0.34-0.56,0.34-0.79c0-0.25-0.11-0.52-0.34-0.82c-0.23-0.3-0.49-0.56-0.78-0.78
			c-0.29-0.22-0.56-0.33-0.81-0.33c-0.25,0-0.52,0.11-0.82,0.33c-0.3,0.22-0.56,0.48-0.78,0.78c-0.22,0.3-0.33,0.57-0.33,0.82
			c0,0.23,0.11,0.5,0.33,0.81c0.22,0.31,0.48,0.57,0.79,0.79c0.31,0.22,0.58,0.33,0.81,0.33
			C158.03,473.08,158.29,472.97,158.59,472.74 M163.79,487.91h-6.14c-0.66,0-1.15-0.12-1.44-0.36c-0.3-0.24-0.45-0.64-0.45-1.19
			v-4.59c0-0.56,0.15-0.96,0.45-1.19c0.3-0.24,0.78-0.36,1.44-0.36h6.14V487.91z M159.07,476.77c-1.36,0-2.48,0.1-3.35,0.29
			c-0.87,0.2-1.54,0.55-2,1.07c-0.47,0.52-0.79,1.25-0.96,2.2c-0.18,0.95-0.26,2.19-0.26,3.72c0,1.53,0.09,2.77,0.26,3.72
			c0.17,0.95,0.5,1.69,0.96,2.2c0.47,0.52,1.13,0.87,2,1.07c0.87,0.2,1.99,0.29,3.35,0.29h7.76v-14.58H159.07z M141.44,472.74
			c0.3-0.23,0.56-0.49,0.79-0.79c0.23-0.3,0.34-0.56,0.34-0.79c0-0.25-0.11-0.52-0.34-0.82c-0.23-0.3-0.49-0.56-0.78-0.78
			c-0.29-0.22-0.56-0.33-0.81-0.33c-0.25,0-0.52,0.11-0.82,0.33c-0.3,0.22-0.56,0.48-0.78,0.78c-0.22,0.3-0.33,0.57-0.33,0.82
			c0,0.23,0.11,0.5,0.33,0.81s0.48,0.57,0.79,0.79c0.31,0.22,0.58,0.33,0.81,0.33S141.14,472.97,141.44,472.74 M136.63,472.74
			c0.3-0.23,0.56-0.49,0.79-0.79c0.23-0.3,0.34-0.56,0.34-0.79c0-0.25-0.11-0.52-0.34-0.82c-0.23-0.3-0.49-0.56-0.78-0.78
			c-0.29-0.22-0.56-0.33-0.81-0.33c-0.25,0-0.52,0.11-0.82,0.33c-0.3,0.22-0.56,0.48-0.78,0.78c-0.22,0.3-0.33,0.57-0.33,0.82
			c0,0.23,0.11,0.5,0.33,0.81c0.22,0.31,0.48,0.57,0.79,0.79c0.31,0.22,0.58,0.33,0.81,0.33
			C136.07,473.08,136.33,472.97,136.63,472.74 M139.75,491.35v-14.58h-3.04v11.14h-4.9v3.44H139.75z M122.92,472.74
			c0.3-0.23,0.56-0.49,0.79-0.79c0.23-0.3,0.34-0.56,0.34-0.79c0-0.25-0.11-0.52-0.34-0.82c-0.23-0.3-0.49-0.56-0.78-0.78
			c-0.29-0.22-0.56-0.33-0.81-0.33c-0.25,0-0.52,0.11-0.82,0.33c-0.3,0.22-0.56,0.48-0.78,0.78c-0.22,0.3-0.33,0.57-0.33,0.82
			c0,0.23,0.11,0.5,0.33,0.81c0.22,0.31,0.48,0.57,0.79,0.79c0.31,0.22,0.58,0.33,0.81,0.33
			C122.36,473.08,122.62,472.97,122.92,472.74 M125.51,484.59c-0.33,0.6-0.74,1.15-1.23,1.66s-1.06,0.91-1.72,1.21
			c-0.66,0.3-1.41,0.45-2.23,0.45h-6.61v3.44h5.74c1.24,0,2.37-0.17,3.38-0.51c1.01-0.34,1.92-0.84,2.73-1.49
			c0.81-0.65,1.51-1.44,2.11-2.36c0.6-0.92,1.1-1.97,1.49-3.15l-2.82-1.09C126.12,483.38,125.84,483.99,125.51,484.59
			 M129.17,482.98c-0.56-1.55-1.25-2.81-2.06-3.77c-0.82-0.96-1.83-1.66-3.04-2.11c-1.21-0.44-2.69-0.67-4.45-0.67
			c-0.54,0-1.11,0.02-1.71,0.06c-0.6,0.04-1.23,0.09-1.89,0.16l0.5,3.35c0.54-0.04,1.04-0.07,1.52-0.09
			c0.48-0.02,0.94-0.03,1.4-0.03c1.32,0,2.42,0.14,3.29,0.42c0.87,0.28,1.59,0.74,2.17,1.38s1.1,1.5,1.55,2.57l2.05,5.37
			c0.23,0.6,0.52,1.04,0.88,1.32s0.86,0.42,1.5,0.42h2.17v-3.44h-2.02L129.17,482.98z M109.39,497.62c0.73-0.74,1.27-1.64,1.6-2.7
			c0.33-1.05,0.5-2.31,0.5-3.75v-14.39h-3.04v14.39c0,1.08-0.09,1.96-0.28,2.67c-0.19,0.7-0.51,1.29-0.96,1.75
			c-0.45,0.47-1.1,0.89-1.92,1.29l1.24,2.7C107.7,499.02,108.66,498.36,109.39,497.62 M111.46,491.35h3.51v-3.44h-3.51V491.35z
			 M97.88,493.34c0.3-0.23,0.56-0.49,0.79-0.79c0.23-0.3,0.34-0.56,0.34-0.79c0-0.25-0.11-0.52-0.34-0.82
			c-0.23-0.3-0.49-0.56-0.78-0.78s-0.56-0.33-0.81-0.33s-0.52,0.11-0.82,0.33s-0.56,0.48-0.78,0.78c-0.22,0.3-0.33,0.57-0.33,0.82
			c0,0.23,0.11,0.5,0.33,0.81c0.22,0.31,0.48,0.57,0.79,0.79c0.31,0.22,0.58,0.33,0.81,0.33C97.32,493.68,97.58,493.57,97.88,493.34
			 M101.25,485.88c0.81,0.44,1.98,0.67,3.51,0.67v-3.04h-1.74c-0.6-1.68-1.35-3.03-2.26-4.08c-0.91-1.04-2.03-1.8-3.37-2.28
			c-1.33-0.48-2.94-0.71-4.82-0.71c-0.52,0-1.07,0.02-1.66,0.05c-0.59,0.03-1.24,0.09-1.94,0.17l0.5,3.35
			c0.45-0.04,0.9-0.07,1.33-0.09s0.89-0.03,1.36-0.03c1.84,0,3.35,0.29,4.51,0.88s2.06,1.51,2.68,2.78
			C99.81,484.65,100.44,485.43,101.25,485.88 M98.89,499.85c1.18-0.17,2.19-0.38,3.04-0.65l-0.4-3.26
			c-1.14,0.27-2.11,0.45-2.93,0.56c-0.82,0.1-1.64,0.16-2.47,0.16c-0.87,0-1.65-0.03-2.34-0.08c-0.69-0.05-1.3-0.11-1.81-0.17v-5.15
			c0-1.14,0.43-2.05,1.29-2.75c0.86-0.69,2.22-1.19,4.09-1.5c1.87-0.31,4.34-0.47,7.4-0.47l-1.74-3.04c-3.41,0-6.16,0.31-8.25,0.93
			c-2.09,0.62-3.6,1.61-4.54,2.98c-0.94,1.36-1.41,3.18-1.41,5.46c0,1.43,0.1,2.62,0.29,3.57s0.52,1.69,0.98,2.22
			c0.45,0.53,1.1,0.9,1.92,1.12c0.83,0.22,1.88,0.33,3.16,0.33C96.47,500.1,97.71,500.02,98.89,499.85"/>
	</g>
</g>
</svg>
