<?xml version="1.0" encoding="utf-8"?>
<!-- Generator: Adobe Illustrator 26.2.1, SVG Export Plug-In . SVG Version: 6.00 Build 0)  -->
<svg version="1.1" id="Ebene_1" xmlns="http://www.w3.org/2000/svg" xmlns:xlink="http://www.w3.org/1999/xlink" x="0px" y="0px"
	 viewBox="0 0 512 246.5" style="enable-background:new 0 0 512 246.5;" xml:space="preserve">
<style type="text/css">
	.st0{fill:#6EC3BF;}
	.st1{fill:#A0D5D2;}
	.st2{fill:#87CCC8;}
	.st3{fill:#FFFFFF;}
	.st4{clip-path:url(#SVGID_00000049214758105789893920000010146648879610963388_);fill:#2B2961;}
	.st5{fill:#897DA2;}
	.st6{fill:#2B2961;}
	.st7{clip-path:url(#SVGID_00000061456805888288854620000000374953773876418491_);fill:#FFFFFF;}
	.st8{clip-path:url(#SVGID_00000061456805888288854620000000374953773876418491_);fill:#2B2961;}
	.st9{clip-path:url(#SVGID_00000099627957436232071790000011369098813651182756_);fill:#FFFFFF;}
	.st10{clip-path:url(#SVGID_00000099627957436232071790000011369098813651182756_);fill:#6EC3BF;}
	.st11{fill:#9D9D9C;}
	.st12{fill:#D0D0D0;}
	.st13{clip-path:url(#SVGID_00000109015060966413833780000001245093318393874065_);fill:#FFFFFF;}
	.st14{clip-path:url(#SVGID_00000098189357010629005520000000102013443617021580_);fill:#2B2961;}
	.st15{clip-path:url(#SVGID_00000098189357010629005520000000102013443617021580_);fill:#FFFFFF;}
	.st16{fill:#97D1CE;}
	.st17{clip-path:url(#SVGID_00000093892401655150714110000004786290618624231070_);fill:#2B2961;}
	.st18{clip-path:url(#SVGID_00000145749422989293854290000011568651744945156765_);fill:#2B2961;}
	.st19{clip-path:url(#SVGID_00000011710278249829787660000008503339396619632529_);fill:#FFFFFF;}
	.st20{clip-path:url(#SVGID_00000011710278249829787660000008503339396619632529_);fill:#2B2961;}
	.st21{clip-path:url(#SVGID_00000153685967135598253300000001077994767109827206_);fill:#2B2961;}
	.st22{clip-path:url(#SVGID_00000160878372438796084380000014236101362355141259_);fill:#2B2961;}
	.st23{clip-path:url(#SVGID_00000160878372438796084380000014236101362355141259_);fill:#FFFFFF;}
	.st24{clip-path:url(#SVGID_00000052791340899880883530000006090073633389956765_);fill:#FFFFFF;}
	.st25{clip-path:url(#SVGID_00000129927245781829406150000009858765686205842831_);fill:#6EC3BF;}
	.st26{clip-path:url(#SVGID_00000007425845258433131570000011208280873242275737_);fill:#2B2961;}
	.st27{clip-path:url(#SVGID_00000007425845258433131570000011208280873242275737_);fill:#1D1D1B;}
	.st28{clip-path:url(#SVGID_00000007425845258433131570000011208280873242275737_);fill:#FFFFFF;}
	.st29{clip-path:url(#SVGID_00000103985807421550277000000009761413571458409900_);fill:#2B2961;}
	.st30{clip-path:url(#SVGID_00000025434274557138165790000012553992605765106843_);fill:#2B2961;}
	.st31{clip-path:url(#SVGID_00000025434274557138165790000012553992605765106843_);fill:#FFFFFF;}
	.st32{clip-path:url(#SVGID_00000000923403383975365900000005884559836291019163_);fill:#2B2961;}
	.st33{clip-path:url(#SVGID_00000165202568147106151520000014467609902063260570_);fill:#2B2961;}
	.st34{clip-path:url(#SVGID_00000165202568147106151520000014467609902063260570_);fill:#6EC3BF;}
	.st35{clip-path:url(#SVGID_00000014621599117928973770000008333346455162127777_);fill:#2B2961;}
	.st36{clip-path:url(#SVGID_00000000204426485531485560000009839065099106583985_);fill:#2B2961;}
	.st37{clip-path:url(#SVGID_00000158025998415538159750000002384442794390655901_);fill:#2B2961;}
	.st38{clip-path:url(#SVGID_00000147900679104350901690000003903179090395002268_);fill:#2B2961;}
	.st39{clip-path:url(#SVGID_00000106843786467295818410000017459784652706459553_);fill:#6EC3BF;}
	.st40{clip-path:url(#SVGID_00000097501531283150473380000011012614947479403684_);fill:#6EC3BF;}
	.st41{clip-path:url(#SVGID_00000088841021306623931770000011859926616849977518_);fill:#6EC3BF;}
	.st42{clip-path:url(#SVGID_00000171700888061944200980000008686416782827224240_);fill:#6EC3BF;}
	.st43{clip-path:url(#SVGID_00000078024181326858039280000017204611055639271043_);fill:#2B2961;}
	.st44{clip-path:url(#SVGID_00000176020574529038596460000005551089378551626628_);fill:#2B2961;}
	.st45{clip-path:url(#SVGID_00000084501362572876648420000012418656221042793371_);fill:#2B2961;}
	.st46{clip-path:url(#SVGID_00000102539849949964951210000004521527601163322518_);fill:#2B2961;}
	.st47{clip-path:url(#SVGID_00000102539849949964951210000004521527601163322518_);fill:#FFFFFF;}
	.st48{clip-path:url(#SVGID_00000030468158094497941600000001231403761332336287_);fill:#FFFFFF;}
	.st49{clip-path:url(#SVGID_00000173854589696430561040000016051300346172388513_);fill:#2B2961;}
	.st50{clip-path:url(#SVGID_00000043437659263306501820000007349894643455568273_);fill:#2B2961;}
	.st51{clip-path:url(#SVGID_00000043437659263306501820000007349894643455568273_);fill:#FFFFFF;}
	.st52{clip-path:url(#SVGID_00000016774309222978698070000000603701145247987856_);fill:#2B2961;}
	.st53{clip-path:url(#SVGID_00000016774309222978698070000000603701145247987856_);fill:#2C265F;}
	.st54{clip-path:url(#SVGID_00000095327610716506590390000013434439143675932860_);fill:#FFFFFF;}
	.st55{clip-path:url(#SVGID_00000070834938869823740700000016822522779745599678_);fill:#2B2961;}
	.st56{clip-path:url(#SVGID_00000049199700680028256240000016154554187079713155_);fill:#FFFFFF;}
	.st57{clip-path:url(#SVGID_00000080911935381891417090000017264135604084634295_);fill:#2B2961;}
	.st58{clip-path:url(#SVGID_00000040545718558259865910000016369458011999510454_);fill:#FFFFFF;}
	.st59{clip-path:url(#SVGID_00000062912211711427560130000005173629399094456755_);fill:#2B2961;}
	.st60{clip-path:url(#SVGID_00000062912211711427560130000005173629399094456755_);fill:#FFFFFF;}
	.st61{clip-path:url(#SVGID_00000120551688967001621840000018221061515103028354_);fill:#2B2961;}
	.st62{clip-path:url(#SVGID_00000026880294716046503340000000147765438743841193_);fill:#FFFFFF;}
	.st63{clip-path:url(#SVGID_00000171717976384447149530000013017975241440788660_);fill:#2B2961;}
	.st64{clip-path:url(#SVGID_00000058554741951929670800000013909654212776705698_);fill:#FFFFFF;}
	.st65{clip-path:url(#SVGID_00000058554741951929670800000013909654212776705698_);fill:#2B2961;}
	.st66{clip-path:url(#SVGID_00000013164091782493508830000001721890411380436668_);fill:#2B2961;}
	.st67{clip-path:url(#SVGID_00000013164091782493508830000001721890411380436668_);fill:#6EC3BF;}
	.st68{clip-path:url(#SVGID_00000013164091782493508830000001721890411380436668_);fill:#FFFFFF;}
	.st69{clip-path:url(#SVGID_00000070117750547129270060000007662721645302513339_);fill:#2B2961;}
	.st70{clip-path:url(#SVGID_00000127016542735285468600000002431713657142730143_);fill:#2B2961;}
	.st71{clip-path:url(#SVGID_00000083082362729219004930000015495479066540209571_);fill:#2B2961;}
	.st72{clip-path:url(#SVGID_00000101071720650585201220000014511887221245846401_);fill:#2B2961;}
	.st73{clip-path:url(#SVGID_00000098943709809729534100000011811673124782945722_);fill:#2B2961;}
	.st74{clip-path:url(#SVGID_00000077292536468040544890000017278115292764777359_);fill:#FFFFFF;}
	.st75{clip-path:url(#SVGID_00000077292536468040544890000017278115292764777359_);fill:#6EC3BF;}
	.st76{clip-path:url(#SVGID_00000173868952141589352710000008475427569474968965_);fill:#2B2961;}
	.st77{clip-path:url(#SVGID_00000035500570202689392370000009108928358842681489_);fill:#2B2961;}
	.st78{clip-path:url(#SVGID_00000035500570202689392370000009108928358842681489_);fill:#FFFFFF;}
	.st79{clip-path:url(#SVGID_00000038386017905502989840000012731805961854859175_);fill:#2B2961;}
	.st80{clip-path:url(#SVGID_00000102546673971307119500000005700810002918558117_);fill:#FFFFFF;}
	.st81{clip-path:url(#SVGID_00000006701775939464489000000011460877462964577936_);fill:#2B2961;}
	.st82{clip-path:url(#SVGID_00000030457369858090488480000003820383546888013956_);fill:#2B2961;}
	.st83{clip-path:url(#SVGID_00000158026891359120829140000012153844076931154098_);fill:#2B2961;}
	.st84{clip-path:url(#SVGID_00000104695413251090889130000009759307306232648620_);fill:#FFFFFF;}
	.st85{clip-path:url(#SVGID_00000165210602163655500140000006169984820014631094_);fill:#FFFFFF;}
	.st86{clip-path:url(#SVGID_00000181084308294996174550000000692172214929199265_);fill:#2B2961;}
	.st87{clip-path:url(#SVGID_00000124873666286845578700000015183174281467818625_);fill:#2B2961;}
	.st88{clip-path:url(#SVGID_00000124873666286845578700000015183174281467818625_);fill:#FFFFFF;}
	.st89{clip-path:url(#SVGID_00000176756735379122267260000009103478987466580911_);fill:#2B2961;}
	.st90{clip-path:url(#SVGID_00000030485056264981392730000014832254047324641463_);fill:#FFFFFF;}
	.st91{clip-path:url(#SVGID_00000136370448915882108140000016357232163719548600_);fill:#6EC3BF;}
	.st92{clip-path:url(#SVGID_00000136370448915882108140000016357232163719548600_);fill:#2B2961;}
	.st93{clip-path:url(#SVGID_00000141452080239596463590000002059275361591378360_);fill:#6EC3BF;}
	.st94{clip-path:url(#SVGID_00000181088248238711909210000001306443942013894019_);fill:#2B2961;}
	.st95{clip-path:url(#SVGID_00000176028753247506843670000003339919113422854805_);fill:#2B2961;}
	.st96{clip-path:url(#SVGID_00000006669197358031904960000017623824053315033994_);fill:#2B2961;}
	.st97{clip-path:url(#SVGID_00000138560028527120642000000007271938433508774533_);fill:#2B2961;}
	.st98{clip-path:url(#SVGID_00000081642265212464864490000015187930014141272750_);fill:#2B2961;}
	.st99{clip-path:url(#SVGID_00000081642265212464864490000015187930014141272750_);fill:#6EC3BF;}
	.st100{clip-path:url(#SVGID_00000103980645794452230110000007937395744972131254_);fill:#2B2961;}
	.st101{clip-path:url(#SVGID_00000016033729521065076560000007156129039544168333_);fill:#2B2961;}
	.st102{clip-path:url(#SVGID_00000016033729521065076560000007156129039544168333_);fill:#6EC3BF;}
	.st103{clip-path:url(#SVGID_00000008111840236239082260000006901385869487298186_);fill:#2B2961;}
	.st104{clip-path:url(#SVGID_00000047764204664793215250000008605090136932350094_);fill:#FFFFFF;}
	.st105{clip-path:url(#SVGID_00000047764204664793215250000008605090136932350094_);fill:#2B2961;}
	.st106{clip-path:url(#SVGID_00000070833925754087961220000015675735552233252279_);fill:#6EC3BF;}
	.st107{clip-path:url(#SVGID_00000015344508996709199560000000107613227882778273_);fill:#2B2961;}
	.st108{clip-path:url(#SVGID_00000020382212917244544900000001046713915263803294_);fill:#2B2961;}
	.st109{clip-path:url(#SVGID_00000020382212917244544900000001046713915263803294_);fill:#FFFFFF;}
	.st110{clip-path:url(#SVGID_00000018211719467042335980000007658967259839807888_);fill:#6EC3BF;}
	.st111{clip-path:url(#SVGID_00000046301333539907782630000000713104466854814895_);fill:#2B2961;}
	.st112{clip-path:url(#SVGID_00000075139344456876053840000011054015705224567217_);fill:#2B2961;}
	.st113{clip-path:url(#SVGID_00000075139344456876053840000011054015705224567217_);fill:#6EC3BF;}
	.st114{clip-path:url(#SVGID_00000173881854362251779650000001341739364283155091_);fill:#2B2961;}
	.st115{clip-path:url(#SVGID_00000010998443096325139370000009456977112659852163_);fill:#6EC3BF;}
	.st116{clip-path:url(#SVGID_00000010998443096325139370000009456977112659852163_);fill:#2B2961;}
	.st117{clip-path:url(#SVGID_00000075122056643338267430000004915058473081451906_);fill:#2B2961;}
	.st118{clip-path:url(#SVGID_00000178893552480609485960000013284822494867063731_);fill:#FFFFFF;}
	.st119{clip-path:url(#SVGID_00000178893552480609485960000013284822494867063731_);}
	.st120{clip-path:url(#SVGID_00000044175833469233388050000002871707037369473419_);fill:#2B2961;}
	.st121{clip-path:url(#SVGID_00000178893552480609485960000013284822494867063731_);fill:#6EC3BF;}
	.st122{clip-path:url(#SVGID_00000016783271303843576590000005102349013136931712_);fill:#2B2961;}
	.st123{clip-path:url(#SVGID_00000178893552480609485960000013284822494867063731_);fill:#2B2961;}
	.st124{clip-path:url(#SVGID_00000178201085422518838490000010527313389862788522_);fill:#2B2961;}
	.st125{clip-path:url(#SVGID_00000039124387281706640200000000218827211024549777_);fill:#2B2961;}
	.st126{clip-path:url(#SVGID_00000174589285351720538880000007414473650950665627_);}
	.st127{clip-path:url(#SVGID_00000129178963659927039150000006578790297672347042_);}
	.st128{clip-path:url(#SVGID_00000174570571464583295050000008561558907562630787_);fill:#FFFFFF;}
	.st129{clip-path:url(#SVGID_00000018923915501748465860000013893916727641287309_);fill:#2B2961;}
	.st130{clip-path:url(#SVGID_00000161610752526143672620000008794845352331472315_);fill:#2B2961;}
	.st131{clip-path:url(#SVGID_00000161610752526143672620000008794845352331472315_);fill:#6EC3BF;}
	.st132{clip-path:url(#SVGID_00000161610752526143672620000008794845352331472315_);fill:#FFFFFF;}
	.st133{clip-path:url(#SVGID_00000037682879681880249950000008911755975425426610_);fill:#2B2961;}
	.st134{clip-path:url(#SVGID_00000037682879681880249950000008911755975425426610_);fill:#6EC3BF;}
	.st135{clip-path:url(#SVGID_00000145045064006613475200000016717047754636185498_);fill:#2B2961;}
	.st136{clip-path:url(#SVGID_00000041279029499373089670000016757061609947324843_);fill:#6EC3BF;}
	.st137{clip-path:url(#SVGID_00000041279029499373089670000016757061609947324843_);fill:#FFFFFF;}
	.st138{clip-path:url(#SVGID_00000107553105590256732880000002259077295251489452_);fill:#2B2961;}
	.st139{clip-path:url(#SVGID_00000107553105590256732880000002259077295251489452_);fill:#6EC3BF;}
	.st140{clip-path:url(#SVGID_00000088102397349582771430000015345300534321940868_);fill:#2B2961;}
	.st141{clip-path:url(#SVGID_00000123429373352566840420000010548573929416106659_);fill:#2B2961;}
	.st142{clip-path:url(#SVGID_00000123429373352566840420000010548573929416106659_);fill:#FFFFFF;}
	.st143{clip-path:url(#SVGID_00000031912796983303789870000003761191697687366034_);fill:#2B2961;}
	.st144{clip-path:url(#SVGID_00000000196626817571594590000001075360236645380248_);fill:#FFFFFF;}
	.st145{clip-path:url(#SVGID_00000095321922373779770010000002384148577825314748_);fill:#2B2961;}
	.st146{clip-path:url(#SVGID_00000173145547011701908080000006631984561742385051_);fill:#2B2961;}
	.st147{clip-path:url(#SVGID_00000173145547011701908080000006631984561742385051_);fill:#FFFFFF;}
	.st148{clip-path:url(#SVGID_00000034060721753474577480000015615095390810510487_);fill:#2B2961;}
	.st149{clip-path:url(#SVGID_00000017499560997601348780000002969907685366346654_);fill:#2B2961;}
	.st150{clip-path:url(#SVGID_00000017499560997601348780000002969907685366346654_);fill:#FFFFFF;}
	.st151{clip-path:url(#SVGID_00000078031907754100026540000001622575109938851744_);fill:#2B2961;}
	.st152{clip-path:url(#SVGID_00000078031907754100026540000001622575109938851744_);fill:#6EC3BF;}
	.st153{clip-path:url(#SVGID_00000053527580286284982620000007584005762137427354_);fill:#1D1D1B;}
	.st154{clip-path:url(#SVGID_00000053527580286284982620000007584005762137427354_);fill:#2B2961;}
	.st155{clip-path:url(#SVGID_00000053527580286284982620000007584005762137427354_);fill:#FFFFFF;}
	.st156{clip-path:url(#SVGID_00000032644837840576445040000002611501705719948434_);fill:#2B2961;}
	.st157{clip-path:url(#SVGID_00000134248328846864172800000003851165362746389384_);fill:#2B2961;}
	.st158{clip-path:url(#SVGID_00000024685356999065204670000013635265507765869452_);fill:#2B2961;}
	.st159{clip-path:url(#SVGID_00000024685356999065204670000013635265507765869452_);fill:#FFFFFF;}
	.st160{clip-path:url(#SVGID_00000024685356999065204670000013635265507765869452_);fill:#6EC3BF;}
	.st161{clip-path:url(#SVGID_00000079467308355627021120000004647150035490570121_);fill:#2B2961;}
	.st162{clip-path:url(#SVGID_00000143608631623356439060000001518576123467398065_);fill:#2B2961;}
	.st163{clip-path:url(#SVGID_00000115489782335246128040000007293069534639825058_);fill:#2B2961;}
	.st164{clip-path:url(#SVGID_00000133487219821913307100000007543048386197462430_);fill:#2B2961;}
	.st165{clip-path:url(#SVGID_00000133487219821913307100000007543048386197462430_);fill:#FFFFFF;}
	.st166{clip-path:url(#SVGID_00000167366582897763311330000017159262144302360723_);fill:#2B2961;}
	.st167{clip-path:url(#SVGID_00000167366582897763311330000017159262144302360723_);fill:#FFFFFF;}
	.st168{clip-path:url(#SVGID_00000127043604133404582850000014220994366387760542_);fill:#2B2961;}
	.st169{clip-path:url(#SVGID_00000061446699461777559450000007078713440974063026_);fill:#2B2961;}
	.st170{clip-path:url(#SVGID_00000061446699461777559450000007078713440974063026_);fill:#FFFFFF;}
	.st171{clip-path:url(#SVGID_00000160885598470578343860000006284935755063060392_);fill:#2B2961;}
	.st172{clip-path:url(#SVGID_00000017482012062782859230000010642761977182558890_);fill:#FFFFFF;}
	.st173{clip-path:url(#SVGID_00000165229529635163720800000006399722184701954477_);fill:#2B2961;}
	.st174{clip-path:url(#SVGID_00000165229529635163720800000006399722184701954477_);fill:#6EC3BF;}
	.st175{clip-path:url(#SVGID_00000050640753043389328410000003337110135069569702_);fill:#2B2961;}
	.st176{clip-path:url(#SVGID_00000143583735846015404070000017905030535665097380_);fill:#2B2961;}
	.st177{clip-path:url(#SVGID_00000183247428902562022920000012490861624462172064_);fill:#FFFFFF;}
	.st178{clip-path:url(#SVGID_00000083054010185529797450000014197482202550225846_);fill:#6EC3BF;}
	.st179{clip-path:url(#SVGID_00000083054010185529797450000014197482202550225846_);fill:#2B2961;}
	.st180{clip-path:url(#SVGID_00000059999318612156646720000009872597849693766790_);fill:#6EC3BF;}
	.st181{clip-path:url(#SVGID_00000088099446148500235010000017356458383375216319_);fill:#2B2961;}
	.st182{clip-path:url(#SVGID_00000080889950460763126880000004273701005162295998_);fill:#6EC3BF;}
	.st183{clip-path:url(#SVGID_00000080889950460763126880000004273701005162295998_);fill:#2B2961;}
	.st184{clip-path:url(#SVGID_00000121243350618047208780000003137546049097447841_);fill:#2B2961;}
	.st185{clip-path:url(#SVGID_00000150100957726344675420000009769809343609722777_);fill:#2B2961;}
	.st186{clip-path:url(#SVGID_00000009574718132006618740000002234810374202622875_);fill:#2B2961;}
	.st187{clip-path:url(#SVGID_00000105424335885955095500000003673238127556217770_);fill:#2B2961;}
	.st188{clip-path:url(#SVGID_00000041983512653620251400000015983032216683185575_);fill:#2B2961;}
	.st189{clip-path:url(#SVGID_00000017511286467211978690000015057037646160735401_);fill:#6EC3BF;}
	.st190{clip-path:url(#SVGID_00000017511286467211978690000015057037646160735401_);fill:#2B2961;}
	.st191{clip-path:url(#SVGID_00000038401500432569136250000009740702545839197833_);fill:#6EC3BF;}
	.st192{clip-path:url(#SVGID_00000038401500432569136250000009740702545839197833_);fill:#2B2961;}
	.st193{clip-path:url(#SVGID_00000181802295509514791550000012395603130593476771_);fill:#2B2961;}
	.st194{clip-path:url(#SVGID_00000102514285634913501160000011071319521969272725_);fill:#2B2961;}
	.st195{clip-path:url(#SVGID_00000096034655770165869710000000545949701919260563_);fill:#2B2961;}
	.st196{clip-path:url(#SVGID_00000022520758116836076920000002824371819313840268_);fill:#FFFFFF;}
	.st197{clip-path:url(#SVGID_00000150079530558265132310000005247649587699703430_);fill:#2B2961;}
	.st198{clip-path:url(#SVGID_00000065761074743596783630000017277025762719890085_);fill:#2B2961;}
	.st199{clip-path:url(#SVGID_00000065761074743596783630000017277025762719890085_);fill:#6EC3BF;}
	.st200{clip-path:url(#SVGID_00000029046821717983369390000016759138137779679140_);fill:#2B2961;}
	.st201{clip-path:url(#SVGID_00000143599488481668957150000003850110663185855106_);fill:#2B2961;}
	.st202{clip-path:url(#SVGID_00000048462341187577052780000013584879405800856712_);fill:#6EC3BF;}
	.st203{clip-path:url(#SVGID_00000048462341187577052780000013584879405800856712_);fill:#2B2961;}
	.st204{clip-path:url(#SVGID_00000093179291065248622160000001463952597889322677_);fill:#6EC3BF;}
	.st205{clip-path:url(#SVGID_00000093179291065248622160000001463952597889322677_);fill:#2B2961;}
	.st206{clip-path:url(#SVGID_00000168079438690854330210000005718685676807182977_);fill:#2B2961;}
	.st207{clip-path:url(#SVGID_00000121278204429802641140000003977736201387172517_);fill:#2B2961;}
	.st208{clip-path:url(#SVGID_00000121278204429802641140000003977736201387172517_);fill:#6EC3BF;}
	.st209{clip-path:url(#SVGID_00000092451450373074056720000014292820909007243667_);fill:#2B2961;}
	.st210{clip-path:url(#SVGID_00000092451450373074056720000014292820909007243667_);fill:#6EC3BF;}
	.st211{clip-path:url(#SVGID_00000023959296722523176830000016305820479073629066_);fill:#2B2961;}
	.st212{clip-path:url(#SVGID_00000023959296722523176830000016305820479073629066_);fill:#6EC3BF;}
	.st213{clip-path:url(#SVGID_00000004541165092550738290000002359434120348594828_);fill:#2B2961;}
	.st214{clip-path:url(#SVGID_00000042012357760003099920000002492905079590889867_);fill:#6EC3BF;}
	.st215{clip-path:url(#SVGID_00000042012357760003099920000002492905079590889867_);fill:#2B2961;}
	.st216{clip-path:url(#SVGID_00000072981576726786172170000012316581356388680858_);fill:#6EC3BF;}
	.st217{clip-path:url(#SVGID_00000072981576726786172170000012316581356388680858_);fill:#2B2961;}
	.st218{clip-path:url(#SVGID_00000173859344475936818800000002083530917755962029_);fill:#FFFFFF;}
	.st219{clip-path:url(#SVGID_00000173859344475936818800000002083530917755962029_);fill:#2B2961;}
	.st220{clip-path:url(#SVGID_00000178927455033385793760000000758814140697311141_);fill:#FFFFFF;}
	.st221{clip-path:url(#SVGID_00000178927455033385793760000000758814140697311141_);fill:#2B2961;}
	.st222{clip-path:url(#SVGID_00000036942791455990956520000017159945092551269263_);fill:#FFFFFF;}
	.st223{clip-path:url(#SVGID_00000036942791455990956520000017159945092551269263_);fill:#2B2961;}
	.st224{clip-path:url(#SVGID_00000062885059935922955730000001011175922616556470_);fill:#6EC3BF;}
	.st225{clip-path:url(#SVGID_00000062885059935922955730000001011175922616556470_);fill:#2B2961;}
	.st226{clip-path:url(#SVGID_00000087406265791069821100000010070285403835827866_);fill:#2B2961;}
	.st227{clip-path:url(#SVGID_00000087406265791069821100000010070285403835827866_);fill:#6EC3BF;}
	.st228{clip-path:url(#SVGID_00000093142458354565154230000015724347069780807089_);fill:#2B2961;}
	.st229{clip-path:url(#SVGID_00000119113435409933193360000013348224862017765046_);fill:#6EC3BF;}
	.st230{clip-path:url(#SVGID_00000119113435409933193360000013348224862017765046_);fill:#2B2961;}
	.st231{clip-path:url(#SVGID_00000066510603605787698550000000846914528473106357_);fill:#2B2961;}
	.st232{clip-path:url(#SVGID_00000178910558740465616670000001929495894065712554_);fill:#2B2961;}
	.st233{clip-path:url(#SVGID_00000178910558740465616670000001929495894065712554_);fill:#6EC3BF;}
	.st234{clip-path:url(#SVGID_00000109731666749120945510000003694042137936461241_);fill:#2B2961;}
	.st235{clip-path:url(#SVGID_00000004504882413223015690000016081111060679016633_);fill:#FFFFFF;}
	.st236{clip-path:url(#SVGID_00000004504882413223015690000016081111060679016633_);fill:#2B2961;}
	.st237{fill:#2C265F;}
	.st238{clip-path:url(#SVGID_00000047039026330705610050000013710745251644109452_);fill:#2B2961;}
	.st239{clip-path:url(#SVGID_00000047039026330705610050000013710745251644109452_);fill:#6EC3BF;}
	.st240{fill:#61B87A;}
	.st241{clip-path:url(#SVGID_00000018206265746212447740000009793375301917707422_);fill:#2B2961;}
	.st242{clip-path:url(#SVGID_00000024690087190924048350000010189425629531508098_);fill:#2B2961;}
	.st243{clip-path:url(#SVGID_00000149383468732780566590000002465316540833976750_);fill:#2B2961;}
	.st244{clip-path:url(#SVGID_00000127026166871043784530000015155205527521773704_);fill:#2B2961;}
	.st245{clip-path:url(#SVGID_00000127026166871043784530000015155205527521773704_);fill:#61B87A;}
	.st246{clip-path:url(#SVGID_00000127026166871043784530000015155205527521773704_);fill:#FFFFFF;}
	.st247{clip-path:url(#SVGID_00000088818547788775343840000007440967238108148633_);fill:#2B2961;}
	.st248{clip-path:url(#SVGID_00000088818547788775343840000007440967238108148633_);fill:#61B87A;}
	.st249{clip-path:url(#SVGID_00000132798624677990977190000002495150335135267244_);fill:#2B2961;}
	.st250{clip-path:url(#SVGID_00000152962101929336657040000006863117187569709494_);fill:#6EC3BF;}
	.st251{clip-path:url(#SVGID_00000152962101929336657040000006863117187569709494_);fill:#2B2961;}
	.st252{clip-path:url(#SVGID_00000050637375760072755500000001566534502051747750_);fill:#2B2961;}
	.st253{clip-path:url(#SVGID_00000050637375760072755500000001566534502051747750_);fill:#6EC3BF;}
	.st254{clip-path:url(#SVGID_00000163750984694282521140000012509606298067258013_);fill:#2B2961;}
	.st255{clip-path:url(#SVGID_00000163750984694282521140000012509606298067258013_);fill:#6EC3BF;}
</style>
<g>
	<rect x="54.6" y="34.51" class="st0" width="237.62" height="111.39"/>
	<g>
		<defs>
			<rect id="SVGID_00000126296486242823576440000008342023205748882599_" y="11" width="512" height="224.5"/>
		</defs>
		<clipPath id="SVGID_00000052078520704466176140000002258016080277510031_">
			<use xlink:href="#SVGID_00000126296486242823576440000008342023205748882599_"  style="overflow:visible;"/>
		</clipPath>
		<path style="clip-path:url(#SVGID_00000052078520704466176140000002258016080277510031_);fill:#2B2961;" d="M327.59,215.07H1.89
			c-0.71,0-1.37-0.4-1.69-1.04c-0.33-0.64-0.26-1.4,0.17-1.98l31.08-41.82c0.36-0.48,0.92-0.76,1.52-0.76H290.3
			c0.54,0,1.05,0.23,1.41,0.63L329,211.92c0.5,0.56,0.62,1.35,0.31,2.03C329.01,214.63,328.34,215.07,327.59,215.07z M5.64,211.29
			h317.73l-33.92-38.04H33.92L5.64,211.29z"/>
		<path style="clip-path:url(#SVGID_00000052078520704466176140000002258016080277510031_);fill:#2B2961;" d="M287.85,165.85H34.21
			c-1.05,0-1.89-0.85-1.89-1.89V12.89c0-1.04,0.84-1.89,1.89-1.89h253.64c1.05,0,1.89,0.85,1.89,1.89v151.06
			C289.74,165,288.89,165.85,287.85,165.85z M36.1,162.07h249.86V14.78H36.1V162.07z"/>
	</g>
	<path class="st6" d="M275.48,148.36H44.12c-1.05,0-1.89-0.85-1.89-1.89V33.92c0-1.04,0.84-1.89,1.89-1.89h231.36
		c1.05,0,1.89,0.85,1.89,1.89v112.55C277.37,147.52,276.52,148.36,275.48,148.36z M46,144.58h227.58V35.81H46V144.58z"/>
	<g>
		<defs>
			<rect id="SVGID_00000084503443047758604510000006674439005179979393_" y="11" width="512" height="224.5"/>
		</defs>
		<clipPath id="SVGID_00000124134136486210196070000017876203563067019958_">
			<use xlink:href="#SVGID_00000084503443047758604510000006674439005179979393_"  style="overflow:visible;"/>
		</clipPath>
		<path style="clip-path:url(#SVGID_00000124134136486210196070000017876203563067019958_);fill:#2B2961;" d="M327.6,225.24H1.89
			c-1.05,0-1.89-0.85-1.89-1.89v-11.64c0-1.04,0.84-1.89,1.89-1.89s1.89,0.85,1.89,1.89v9.75h321.93v-9.75
			c0-1.04,0.84-1.89,1.89-1.89s1.89,0.85,1.89,1.89v11.64C329.49,224.4,328.64,225.24,327.6,225.24z"/>
	</g>
	<path class="st6" d="M276.85,187.8H40.25c-1.05,0-1.89-0.85-1.89-1.89c0-1.04,0.84-1.89,1.89-1.89h236.6
		c1.05,0,1.89,0.85,1.89,1.89C278.74,186.95,277.9,187.8,276.85,187.8z"/>
	<path class="st6" d="M289.09,197.91H29.26c-1.05,0-1.89-0.85-1.89-1.89c0-1.04,0.84-1.89,1.89-1.89h259.83
		c1.05,0,1.89,0.85,1.89,1.89C290.98,197.06,290.14,197.91,289.09,197.91z"/>
	<path class="st6" d="M309.97,196.28c-0.54,0-1.06-0.23-1.42-0.65l-16.01-18.29c-0.54-0.62-0.62-1.51-0.2-2.21
		c0.43-0.7,1.27-1.05,2.05-0.87l11.74,2.69c0.34,0.08,0.66,0.26,0.92,0.51l8.53,8.6c0.62,0.62,0.73,1.57,0.27,2.31l-4.26,6.99
		c-0.31,0.51-0.85,0.85-1.45,0.9C310.08,196.28,310.02,196.28,309.97,196.28z M299.23,179.25l10.47,11.96l2.15-3.53l-7.1-7.17
		L299.23,179.25z"/>
	<g>
		<defs>
			<rect id="SVGID_00000139294185074160174200000013954136922660752307_" y="11" width="512" height="224.5"/>
		</defs>
		<clipPath id="SVGID_00000014625180858617067920000014565982623647082930_">
			<use xlink:href="#SVGID_00000139294185074160174200000013954136922660752307_"  style="overflow:visible;"/>
		</clipPath>
		<path style="clip-path:url(#SVGID_00000014625180858617067920000014565982623647082930_);fill:#2B2961;" d="M379.45,235.49
			c-5.51,0-10.98-0.85-16.37-3.05c-8.27-3.37-11.86-6.19-11.99-9.45c-0.17-3.98,4.72-6.45,10.91-9.59
			c6.99-3.54,15.69-7.94,16.16-14.65c0.3-4.37-0.78-8.01-3.22-10.81c-4.88-5.6-13.69-6.25-13.77-6.26l-51.8,1.79
			c-0.02,0-0.05,0-0.07,0c-1.02,0-1.85-0.8-1.89-1.83c-0.04-1.04,0.78-1.92,1.82-1.95l51.99-1.78c0.61,0.03,10.61,0.74,16.55,7.52
			c3.14,3.59,4.53,8.15,4.15,13.58c-0.62,8.85-10.38,13.79-18.21,17.76c-3.76,1.9-8.91,4.51-8.85,6.06c0.01,0.37,0.55,2.4,9.64,6.1
			c13.91,5.67,29.1,1.45,43.79-2.62c17.45-4.84,35.46-9.84,51.57,1.56c0.85,0.6,1.05,1.78,0.45,2.63c-0.62,0.85-1.8,1.05-2.64,0.45
			c-14.63-10.37-31.02-5.82-48.38-1C399.47,232.7,389.4,235.49,379.45,235.49z"/>
	</g>
	<polygon class="st3" points="411.21,31.39 469.52,154.56 510.13,192.18 505.92,135.87 447.94,12.86 	"/>
	<g>
		<defs>
			<rect id="SVGID_00000019665461324766798220000009470652156433099938_" y="11" width="512" height="224.5"/>
		</defs>
		<clipPath id="SVGID_00000156561431849375901950000007479199869436334472_">
			<use xlink:href="#SVGID_00000019665461324766798220000009470652156433099938_"  style="overflow:visible;"/>
		</clipPath>
		<path style="clip-path:url(#SVGID_00000156561431849375901950000007479199869436334472_);fill:#2B2961;" d="M510.13,193.97
			c-0.44,0-0.88-0.16-1.22-0.48l-40.62-37.61c-0.17-0.16-0.3-0.34-0.4-0.55L409.58,32.15c-0.42-0.88-0.06-1.94,0.81-2.37
			l36.73-18.52c0.44-0.22,0.94-0.25,1.4-0.1c0.46,0.16,0.84,0.5,1.04,0.93l57.98,123.01c0.1,0.2,0.15,0.41,0.17,0.63l4.22,56.3
			c0.06,0.74-0.35,1.43-1.02,1.75C510.67,193.91,510.4,193.97,510.13,193.97z M470.99,153.48L508,187.74l-3.85-51.41L447.1,15.3
			l-33.52,16.9L470.99,153.48z"/>
		<path style="clip-path:url(#SVGID_00000156561431849375901950000007479199869436334472_);fill:#6EC3BF;" d="M430.27,35.07
			l51.37,108.84c1.59,3.36,5.58,4.74,8.91,3.06c3.33-1.68,4.74-5.77,3.15-9.14L442.34,29L430.27,35.07z"/>
		<path style="clip-path:url(#SVGID_00000156561431849375901950000007479199869436334472_);fill:#6EC3BF;" d="M487.58,148.48
			c-0.81,0-1.61-0.13-2.39-0.4c-1.89-0.65-3.4-2.01-4.26-3.83L429.56,35.41c-0.18-0.39-0.02-0.85,0.36-1.04l12.06-6.08
			c0.18-0.1,0.4-0.11,0.62-0.04c0.2,0.07,0.36,0.22,0.46,0.41l51.37,108.84c1.77,3.75,0.19,8.32-3.51,10.18
			C489.85,148.21,488.71,148.48,487.58,148.48z M431.31,35.43l51.04,108.15c0.68,1.43,1.86,2.5,3.34,3.01
			c1.49,0.51,3.09,0.4,4.5-0.32c2.95-1.48,4.2-5.12,2.79-8.1L441.97,30.06L431.31,35.43z"/>
		<path style="clip-path:url(#SVGID_00000156561431849375901950000007479199869436334472_);fill:#6EC3BF;" d="M499.56,167.08
			c-3.54,2.07-5.35,6.87-4.93,7.76l15.92,14.44l-1.8-23.38C508.76,165.9,505.86,163.41,499.56,167.08"/>
		<path style="clip-path:url(#SVGID_00000156561431849375901950000007479199869436334472_);fill:#6EC3BF;" d="M510.55,190.07
			c-0.19,0-0.38-0.07-0.53-0.2l-15.92-14.44c-0.07-0.07-0.14-0.15-0.18-0.24c-0.66-1.4,1.44-6.56,5.24-8.78h0.01
			c6.69-3.91,9.97-1.21,10.11-1.09c0.15,0.14,0.25,0.33,0.27,0.54l1.8,23.38c0.02,0.32-0.15,0.63-0.44,0.77
			C510.79,190.04,510.67,190.07,510.55,190.07z M495.35,174.43l14.27,12.93L508,166.34c-0.75-0.42-3.3-1.35-8.04,1.42l0,0
			C496.91,169.54,495.37,173.45,495.35,174.43z"/>
		<path style="clip-path:url(#SVGID_00000156561431849375901950000007479199869436334472_);fill:#2B2961;" d="M510.11,194.04
			c-0.47,0-0.93-0.17-1.29-0.5l-40.59-37.61c-0.18-0.16-0.32-0.36-0.42-0.58L409.53,32.22c-0.44-0.93-0.06-2.03,0.86-2.5
			l36.71-18.52c0.46-0.23,0.99-0.26,1.46-0.1c0.48,0.17,0.88,0.52,1.1,0.98l57.95,122.97c0.1,0.21,0.16,0.43,0.17,0.66l4.22,56.29
			c0.06,0.78-0.36,1.51-1.06,1.84C510.67,193.98,510.39,194.04,510.11,194.04z M471.07,153.41l36.8,34.09l-3.83-51.15l-56.97-120.9
			l-33.33,16.81L471.07,153.41z"/>
		<path style="clip-path:url(#SVGID_00000156561431849375901950000007479199869436334472_);fill:#2B2961;" d="M473.85,155.68
			c-0.86,0-1.72-0.14-2.55-0.43c-2-0.69-3.6-2.13-4.52-4.07l2.28-1.07c0.62,1.31,1.71,2.29,3.06,2.76c1.36,0.47,2.84,0.37,4.15-0.29
			c2.73-1.37,3.88-4.72,2.58-7.46l0.01,0c-0.07-0.12-0.13-0.25-0.19-0.38L427.83,37.18l-10.91,5.49l-1.13-2.25l36.44-18.32
			l1.13,2.25L442.12,30l50.9,107.58c0,0,0,0,0.01,0.01c0.62,1.31,1.71,2.29,3.07,2.76c1.35,0.47,2.83,0.37,4.14-0.29
			c2.72-1.37,3.88-4.72,2.58-7.47l2.28-1.07c1.88,3.98,0.2,8.82-3.73,10.8c-1.91,0.97-4.08,1.12-6.09,0.42
			c-0.55-0.19-1.06-0.43-1.54-0.72c-0.31,2.65-1.91,5.1-4.44,6.37c-1.92,0.97-4.09,1.12-6.09,0.42c-0.47-0.16-0.91-0.36-1.33-0.6
			c-0.24,2.74-1.86,5.31-4.47,6.63C476.28,155.39,475.07,155.68,473.85,155.68z M430.08,36.05l50.87,107.6
			c0.62,1.31,1.71,2.29,3.07,2.76c1.37,0.47,2.84,0.36,4.14-0.29c2.73-1.37,3.88-4.72,2.58-7.46L439.87,31.13L430.08,36.05z
			 M414.91,38.44l-1.13-2.25l36.44-18.32l1.13,2.25L414.91,38.44z"/>
	</g>
</g>
</svg>
