<?xml version="1.0" encoding="UTF-8"?><svg id="a" xmlns="http://www.w3.org/2000/svg" xmlns:xlink="http://www.w3.org/1999/xlink" viewBox="0 0 293.71 512"><defs><style>.e{fill:none;}.f{fill:#fff;}.g{fill:#87ccc8;}.h{fill:#2b2961;}.i{clip-path:url(#c);}.j{clip-path:url(#b);}.k{clip-path:url(#d);}</style><clipPath id="b"><rect class="e" x="-15.7" width="325.11" height="512"/></clipPath><clipPath id="c"><rect class="e" x="-15.7" width="325.11" height="512"/></clipPath><clipPath id="d"><rect class="e" x="-15.7" width="325.11" height="512"/></clipPath></defs><rect class="g" x="1.75" y="231.98" width="27.48" height="193.64"/><rect class="g" x="2.33" y="284.67" width="289.05" height="226.75"/><g class="j"><path class="h" d="M291.96,512H1.75v-227.91H291.96v227.91Zm-289.04-1.16H290.8v-225.58H2.91v225.58Z"/><path class="f" d="M199.42,495.36h-4.99c.08-1.77,.98-2.78,2.5-2.78s2.4,.98,2.5,2.78m3.22,2.24v-1.46c0-3.81-2.24-6.27-5.72-6.27s-5.72,2.57-5.72,6.68c0,4.46,2.06,6.75,6.1,6.75,1.04,0,1.94-.18,2.7-.48,.83-.35,1.28-.65,2.27-1.59l-1.99-1.94c-.58,.55-.86,.76-1.34,.96-.43,.18-.98,.28-1.51,.28-1.92,0-2.9-.96-3-2.93h8.22Zm-14.95,5.54v-13.13h-3.3l-4.62,7.81v-7.81h-3.3v13.13h3.3l4.62-8.01v8.01h3.3Zm-15.35,0v-13.13h-3.3v4.97h-4.21v-4.97h-3.3v13.13h3.3v-5.27h4.21v5.27h3.3Zm-17.54-7.78h-4.99c.08-1.77,.98-2.78,2.5-2.78s2.4,.98,2.5,2.78m3.22,2.24v-1.46c0-3.81-2.24-6.27-5.72-6.27s-5.72,2.57-5.72,6.68c0,4.46,2.06,6.75,6.1,6.75,1.03,0,1.94-.18,2.7-.48,.83-.35,1.28-.65,2.27-1.59l-1.99-1.94c-.58,.55-.86,.76-1.34,.96-.43,.18-.98,.28-1.51,.28-1.92,0-2.9-.96-3-2.93h8.22Zm-14.95,5.54v-13.13h-3.27v5.75c-.58,.08-1.51,.23-2.37,.23-1.01,0-1.61-.5-1.61-1.59v-4.39h-3.27v5.29c0,2.27,1.59,3.58,3.68,3.58,1.51,0,2.72-.2,3.58-.35v4.61h3.27Zm-12.6-13.13h-3.45l-2.62,8.12-2.72-8.12h-3.45l4.49,12.2-.55,1.61c-.33,.93-.68,1.18-1.64,1.18h-.76v2.94h1.29c1.99,0,3.1-.8,3.81-2.69l5.62-15.25Zm-19.31,13.28c1.56,0,2.95-.53,3.88-1.51,1.13-1.18,1.61-2.64,1.61-5.27,0-2.24-.5-4.23-1.66-5.32-.73-.66-1.59-1.06-3.23-1.06-1.44,0-2.77,.66-3.28,1.51,0-1.59,.45-2.4,1.66-3.03,1.49-.78,3.71-.63,5.37-.76v-2.82c-3.88,.03-6.25,.2-7.89,1.46-1.66,1.31-2.09,2.82-2.09,8.97,0,2.44,.28,4.54,1.06,5.77,.88,1.39,2.62,2.04,4.56,2.04m-.05-2.94c-.63,0-1.19-.18-1.56-.63-.48-.53-.73-1.54-.73-3.15,0-1.44,.25-2.44,.66-2.97,.4-.5,.98-.68,1.64-.68s1.23,.2,1.61,.71c.43,.53,.66,1.54,.66,2.97,0,1.54-.25,2.57-.68,3.1-.4,.48-.96,.66-1.59,.66m-12.12-3.78c0,1.71-.1,3.78-2.3,3.78-1.59,0-2.27-1.06-2.27-3.58,0-1.69,.03-3.96,2.27-3.96s2.3,2.07,2.3,3.76m3.27-.05c0-2.55-.4-3.91-1.49-5.04-1.01-1.06-2.42-1.61-4.08-1.61s-3.05,.55-4.06,1.61c-1.08,1.16-1.49,2.49-1.49,5.09s.38,3.96,1.49,5.12c1.01,1.06,2.39,1.61,4.06,1.61s3.07-.55,4.08-1.61c1.11-1.16,1.49-2.49,1.49-5.17"/><path class="f" d="M238.02,466.32c0,1.71-.1,3.78-2.3,3.78-1.59,0-2.27-1.06-2.27-3.58,0-1.69,.03-3.96,2.27-3.96s2.3,2.07,2.3,3.76m3.27-.05c0-2.55-.4-3.91-1.49-5.04-1.01-1.06-2.42-1.61-4.08-1.61s-3.05,.55-4.06,1.61c-1.08,1.16-1.49,2.49-1.49,5.09s.38,3.96,1.49,5.12c1.01,1.06,2.39,1.61,4.06,1.61s3.08-.55,4.08-1.61c1.11-1.16,1.49-2.5,1.49-5.17m-14.72,6.63v-13.13h-3.3v4.97h-4.21v-4.97h-3.3v13.13h3.3v-5.27h4.21v5.27h3.3Zm-14.97,0v-13.13h-9.6v5.32c0,4.72-1.08,4.92-2.19,4.92h-.4v2.89h1.56c2.67,0,4.21-1.46,4.21-7.08v-3.15h3.15v10.23h3.27Zm-18.02-5.54v.71c0,1.64-.68,2.3-2.37,2.3-1.39,0-2.07-.51-2.07-1.51s.68-1.49,1.84-1.49h2.6Zm3.27,5.54v-8.64c0-3.07-1.89-4.64-5.67-4.64-1.23,0-2.14,.15-2.9,.48-.66,.3-1.01,.58-1.76,1.34l2.09,2.04c.78-.86,1.31-1.09,2.47-1.09,1.77,0,2.5,.6,2.5,2.07v.66h-3.1c-2.77,0-4.48,1.46-4.48,3.83,0,2.57,1.64,4.08,4.43,4.08,.76,0,1.36-.1,1.87-.3,.5-.2,.78-.4,1.36-.96v1.13h3.2Zm-14.09,0v-13.13h-3.3v4.97h-4.21v-4.97h-3.3v13.13h3.3v-5.27h4.21v5.27h3.3Zm-17.69-6.58c0,1.71-.1,3.78-2.3,3.78-1.59,0-2.27-1.06-2.27-3.58,0-1.69,.03-3.96,2.27-3.96s2.3,2.07,2.3,3.76m3.27-.05c0-2.55-.4-3.91-1.49-5.04-1.01-1.06-2.42-1.61-4.08-1.61s-3.05,.55-4.06,1.61c-1.08,1.16-1.49,2.49-1.49,5.09s.38,3.96,1.49,5.12c1.01,1.06,2.39,1.61,4.06,1.61s3.08-.55,4.08-1.61c1.11-1.16,1.49-2.5,1.49-5.17m-14.72,6.63v-13.13h-3.3l-4.61,7.81v-7.81h-3.3v13.13h3.3l4.61-8.01v8.01h3.3Zm-14.24-1.64l-2.22-2.19c-.78,.78-1.26,1.04-2.12,1.04-1.71,0-2.6-1.26-2.6-3.78s.88-3.76,2.6-3.76c.83,0,1.36,.25,2.12,1.03l2.22-2.22c-.78-.76-1.16-1.01-1.87-1.31-.71-.3-1.54-.45-2.44-.45-3.7,0-5.9,2.47-5.9,6.6,0,4.36,2.14,6.83,5.9,6.83,.91,0,1.71-.15,2.44-.48,.71-.3,1.08-.55,1.87-1.31m-16.3-6.15h-4.99c.08-1.77,.98-2.78,2.5-2.78s2.39,.98,2.5,2.78m3.22,2.24v-1.46c0-3.81-2.24-6.27-5.72-6.27s-5.72,2.57-5.72,6.68c0,4.46,2.06,6.75,6.1,6.75,1.03,0,1.94-.18,2.7-.48,.83-.35,1.29-.65,2.27-1.59l-1.99-1.94c-.58,.55-.85,.76-1.34,.96-.43,.18-.98,.28-1.51,.28-1.92,0-2.9-.96-3-2.93h8.22Zm-23.86,2.75c-2.04-.05-3.13-1.31-3.13-3.83s1.03-3.68,3.13-3.71v7.54Zm6.3-3.83c0,2.52-1.09,3.78-3.13,3.83v-7.54c2.09,.03,3.13,1.18,3.13,3.71m3.3-.03c0-4.41-2.47-6.37-6.38-6.6v-4.69h-3.27v4.69c-3.91,.23-6.38,2.19-6.38,6.6s2.52,6.55,6.38,6.78v4.69h3.27v-4.69c3.86-.23,6.38-2.34,6.38-6.78m-22.23,.08c0,1.71-.1,3.78-2.3,3.78-1.59,0-2.27-1.06-2.27-3.58,0-1.69,.03-3.96,2.27-3.96s2.3,2.07,2.3,3.76m3.27-.05c0-2.55-.4-3.91-1.49-5.04-1.01-1.06-2.42-1.61-4.08-1.61s-3.05,.55-4.06,1.61c-1.08,1.16-1.49,2.49-1.49,5.09s.38,3.96,1.49,5.12c1.01,1.06,2.39,1.61,4.06,1.61s3.07-.55,4.08-1.61c1.11-1.16,1.49-2.5,1.49-5.17m-17.46,.03c0,2.8-.58,3.81-2.22,3.81s-2.22-1.01-2.22-3.58c0-1.69-.05-3.96,2.22-3.96,1.64,0,2.22,.98,2.22,3.73m-4.54-5.29v-1.23h-3.17v17.94h3.27v-5.97c.93,.93,1.77,1.31,3.13,1.31s2.5-.43,3.25-1.18c.98-.98,1.33-2.42,1.33-5.49,0-1.74-.05-2.4-.23-3.35-.18-.88-.58-1.69-1.11-2.22-.76-.76-1.94-1.18-3.25-1.18-1.44,0-2.22,.38-3.23,1.38m-7.33,11.89v-13.13h-10.81v13.13h3.3v-10.23h4.21v10.23h3.3Z"/><path class="f" d="M251.11,437.21v-3.07h-4.03v-4.03h-3.07v4.03h-4.06v3.07h4.06v4.03h3.07v-4.03h4.03Zm-19.99,3.81l-2.22-2.19c-.78,.78-1.26,1.04-2.12,1.04-1.71,0-2.6-1.26-2.6-3.78s.88-3.76,2.6-3.76c.83,0,1.36,.25,2.12,1.03l2.22-2.22c-.78-.76-1.16-1.01-1.87-1.31-.71-.3-1.54-.45-2.44-.45-3.7,0-5.89,2.47-5.89,6.6,0,4.36,2.14,6.83,5.89,6.83,.91,0,1.71-.15,2.44-.48,.71-.3,1.08-.55,1.87-1.31m-16.86-3.91v.71c0,1.64-.68,2.3-2.37,2.3-1.39,0-2.07-.51-2.07-1.51s.68-1.49,1.84-1.49h2.6Zm3.27,5.54v-8.64c0-3.07-1.89-4.64-5.67-4.64-1.24,0-2.14,.15-2.9,.48-.66,.3-1.01,.58-1.76,1.34l2.09,2.04c.78-.86,1.31-1.09,2.47-1.09,1.76,0,2.5,.6,2.5,2.07v.66h-3.1c-2.77,0-4.48,1.46-4.48,3.83,0,2.57,1.64,4.08,4.43,4.08,.76,0,1.36-.1,1.87-.3,.5-.2,.78-.4,1.36-.96v1.13h3.2Zm-14.11,0v-13.13h-9.6v5.32c0,4.72-1.08,4.92-2.19,4.92h-.4v2.89h1.56c2.67,0,4.21-1.46,4.21-7.08v-3.15h3.15v10.23h3.27Zm-21.35,0v-6.85l4.51,6.85h3.93l-4.94-7,4.64-6.12h-3.83l-4.31,6.22v-6.22h-3.3v13.13h3.3Zm-13.81,0v-13.13h-3.3l-4.62,7.81v-7.81h-3.3v13.13h3.3l4.62-8.01v8.01h3.3Zm-13.81-10.23v-2.89h-10.94v2.89h3.86v10.23h3.3v-10.23h3.78Zm-12.2,1.52h-7.76v3.05h7.76v-3.05Zm-14.41,3.5c0,1.51-.88,2.42-2.17,2.42s-2.19-.91-2.19-2.42v-7.49c0-1.51,.91-2.44,2.19-2.44s2.17,.93,2.17,2.44v7.49Zm3.27,.03v-7.56c0-3.43-2.52-5.34-5.44-5.34s-5.47,1.91-5.47,5.34v7.56c0,3.43,2.54,5.34,5.47,5.34s5.44-1.91,5.44-5.34m-16.96,5.19v-17.94h-3.27l-3.65,3.17v3.53l3.65-3.18v14.41h3.27Zm-21.9-2.89h-4.01c.66-1.34,1.01-2.98,1.01-5.62v-1.71h3v7.34Zm4.94,6.12v-6.12h-1.66v-10.23h-9.42v4c0,3.43-.6,5.02-1.29,6.23h-1.34v6.12h3.1v-3.23h7.51v3.23h3.1Zm-18.95-11.01h-4.99c.08-1.77,.98-2.78,2.5-2.78s2.4,.98,2.5,2.78m3.22,2.24v-1.46c0-3.81-2.24-6.27-5.72-6.27s-5.72,2.57-5.72,6.68c0,4.46,2.06,6.75,6.1,6.75,1.03,0,1.94-.18,2.7-.48,.83-.35,1.29-.65,2.27-1.59l-1.99-1.94c-.58,.55-.85,.76-1.34,.96-.43,.18-.98,.28-1.51,.28-1.92,0-2.9-.96-3-2.93h8.22Zm-14.97,5.54v-13.13h-9.6v5.32c0,4.72-1.08,4.92-2.19,4.92h-.4v2.89h1.56c2.67,0,4.21-1.46,4.21-7.08v-3.15h3.15v10.23h3.27Zm-13.76-1.64l-2.22-2.19c-.78,.78-1.26,1.04-2.12,1.04-1.71,0-2.6-1.26-2.6-3.78s.88-3.76,2.6-3.76c.83,0,1.36,.25,2.12,1.03l2.22-2.22c-.78-.76-1.16-1.01-1.87-1.31-.71-.3-1.54-.45-2.44-.45-3.7,0-5.89,2.47-5.89,6.6,0,4.36,2.14,6.83,5.89,6.83,.91,0,1.71-.15,2.44-.48,.71-.3,1.08-.55,1.87-1.31"/><path class="f" d="M266.88,404.63h-4.99c.08-1.77,.98-2.78,2.5-2.78s2.39,.98,2.5,2.78m3.22,2.24v-1.46c0-3.81-2.24-6.27-5.72-6.27s-5.72,2.57-5.72,6.68c0,4.46,2.06,6.75,6.1,6.75,1.03,0,1.94-.18,2.7-.48,.83-.35,1.28-.65,2.27-1.59l-1.99-1.94c-.58,.55-.86,.76-1.34,.96-.43,.18-.98,.28-1.51,.28-1.92,0-2.9-.96-3-2.93h8.22Zm-14.95,5.54v-13.13h-3.3l-4.61,7.81v-7.81h-3.3v13.13h3.3l4.61-8.01v8.01h3.3Zm-15.35,0v-13.13h-3.3v4.97h-4.21v-4.97h-3.3v13.13h3.3v-5.27h4.21v5.27h3.3Zm-18.09-5.54v.71c0,1.64-.68,2.3-2.37,2.3-1.39,0-2.07-.51-2.07-1.51s.68-1.49,1.84-1.49h2.6Zm3.27,5.54v-8.64c0-3.07-1.89-4.64-5.67-4.64-1.24,0-2.14,.15-2.9,.48-.65,.3-1.01,.58-1.76,1.34l2.09,2.04c.78-.86,1.31-1.09,2.47-1.09,1.76,0,2.5,.6,2.5,2.07v.66h-3.1c-2.77,0-4.48,1.46-4.48,3.83,0,2.57,1.64,4.08,4.43,4.08,.76,0,1.36-.1,1.87-.3,.5-.2,.78-.4,1.36-.96v1.13h3.2Zm-16.83-3.96c0,.93-.61,1.54-1.64,1.54h-2.6v-3.05h2.6c1.03,0,1.64,.55,1.64,1.51m-1.79-6.76c1.03,0,1.59,.5,1.59,1.39s-.56,1.41-1.59,1.41h-2.45v-2.8h2.45Zm5.04,6.93c0-1.41-.6-2.32-1.86-2.97,1.13-.66,1.66-1.54,1.66-2.77,0-2.19-1.59-3.6-4.06-3.6h-6.48v13.13h6.7c2.47,0,4.03-1.46,4.03-3.78m-17.61-2.8c0,1.71-.1,3.78-2.3,3.78-1.59,0-2.27-1.06-2.27-3.58,0-1.69,.03-3.96,2.27-3.96s2.3,2.07,2.3,3.76m3.27-.05c0-2.55-.4-3.91-1.49-5.04-1.01-1.06-2.42-1.61-4.08-1.61s-3.05,.55-4.06,1.61c-1.08,1.16-1.49,2.49-1.49,5.09s.38,3.96,1.49,5.12c1.01,1.06,2.39,1.61,4.06,1.61s3.07-.55,4.08-1.61c1.11-1.16,1.49-2.5,1.49-5.17m-14.21,2.75c0-1.41-.8-2.52-1.99-3.02,1.08-.5,1.79-1.59,1.79-2.82,0-2.32-2.26-3.55-4.78-3.55-1.97,0-3.83,.35-5.32,1.54l1.81,2.02c.86-.61,1.87-.91,2.85-.91,1.34,0,2.22,.43,2.22,1.34s-.68,1.44-1.76,1.44h-1.94v2.34h1.99c1.16,0,1.89,.43,1.89,1.41s-1.13,1.49-2.29,1.49c-1.23,0-2.39-.33-3.33-1.16l-1.89,2.07c1.56,1.41,3.68,1.86,5.75,1.86,2.69,0,5.01-1.59,5.01-4.03m-16.66-1.67v.71c0,1.64-.68,2.3-2.37,2.3-1.39,0-2.07-.51-2.07-1.51s.68-1.49,1.84-1.49h2.6Zm3.27,5.54v-8.64c0-3.07-1.89-4.64-5.67-4.64-1.23,0-2.14,.15-2.9,.48-.66,.3-1.01,.58-1.76,1.34l2.09,2.04c.78-.86,1.31-1.09,2.47-1.09,1.77,0,2.5,.6,2.5,2.07v.66h-3.1c-2.77,0-4.48,1.46-4.48,3.83,0,2.57,1.64,4.08,4.43,4.08,.76,0,1.36-.1,1.87-.3,.51-.2,.78-.4,1.36-.96v1.13h3.2Zm-16.83-6.6c0,2.8-.58,3.81-2.22,3.81s-2.22-1.01-2.22-3.58c0-1.69-.05-3.96,2.22-3.96,1.64,0,2.22,.98,2.22,3.73m-4.54-5.29v-1.23h-3.17v17.94h3.27v-5.97c.93,.93,1.77,1.31,3.13,1.31s2.49-.43,3.25-1.18c.98-.98,1.33-2.42,1.33-5.49,0-1.74-.05-2.4-.23-3.35-.17-.88-.58-1.69-1.11-2.22-.76-.76-1.94-1.18-3.25-1.18-1.44,0-2.22,.38-3.23,1.38m-12.22,12.05c1.56,0,2.95-.53,3.88-1.51,1.13-1.18,1.61-2.65,1.61-5.27,0-2.24-.5-4.23-1.66-5.32-.73-.66-1.59-1.06-3.22-1.06-1.44,0-2.77,.66-3.28,1.51,0-1.59,.45-2.39,1.66-3.02,1.49-.78,3.71-.63,5.37-.76v-2.82c-3.88,.03-6.25,.2-7.89,1.46-1.66,1.31-2.09,2.82-2.09,8.97,0,2.44,.28,4.54,1.06,5.77,.88,1.38,2.62,2.04,4.56,2.04m-.05-2.94c-.63,0-1.18-.18-1.56-.63-.48-.53-.73-1.54-.73-3.15,0-1.44,.25-2.44,.66-2.97,.4-.5,.98-.68,1.64-.68s1.24,.2,1.61,.71c.43,.53,.66,1.54,.66,2.97,0,1.54-.25,2.57-.68,3.1-.4,.48-.96,.66-1.59,.66m-12.12-3.78c0,1.71-.1,3.78-2.3,3.78-1.59,0-2.27-1.06-2.27-3.58,0-1.69,.03-3.96,2.27-3.96s2.3,2.07,2.3,3.76m3.27-.05c0-2.55-.4-3.91-1.49-5.04-1.01-1.06-2.42-1.61-4.08-1.61s-3.05,.55-4.06,1.61c-1.08,1.16-1.49,2.49-1.49,5.09s.38,3.96,1.49,5.12c1.01,1.06,2.39,1.61,4.06,1.61s3.08-.55,4.08-1.61c1.11-1.16,1.49-2.5,1.49-5.17m-23.82,.05c0,1.71-.1,3.78-2.3,3.78-1.59,0-2.27-1.06-2.27-3.58,0-1.69,.03-3.96,2.27-3.96s2.3,2.07,2.3,3.76m3.27-.05c0-2.55-.4-3.91-1.49-5.04-1.01-1.06-2.42-1.61-4.08-1.61s-3.05,.55-4.06,1.61c-1.08,1.16-1.49,2.49-1.49,5.09s.38,3.96,1.49,5.12c1.01,1.06,2.39,1.61,4.06,1.61s3.08-.55,4.08-1.61c1.11-1.16,1.49-2.5,1.49-5.17m-14.72,6.63v-13.13h-3.3v4.97h-4.21v-4.97h-3.3v13.13h3.3v-5.27h4.21v5.27h3.3Zm-18.65-2.89h-4.01c.66-1.34,1.01-2.98,1.01-5.62v-1.71h3v7.34Zm4.94,6.12v-6.12h-1.66v-10.23h-9.42v4c0,3.43-.6,5.02-1.29,6.23h-1.34v6.12h3.1v-3.23h7.51v3.23h3.1Zm-18.95-11.01h-4.99c.08-1.77,.98-2.78,2.5-2.78s2.39,.98,2.5,2.78m3.22,2.24v-1.46c0-3.81-2.24-6.27-5.72-6.27s-5.72,2.57-5.72,6.68c0,4.46,2.06,6.75,6.1,6.75,1.03,0,1.94-.18,2.7-.48,.83-.35,1.29-.65,2.27-1.59l-1.99-1.94c-.58,.55-.85,.76-1.34,.96-.43,.18-.98,.28-1.51,.28-1.92,0-2.9-.96-3-2.93h8.22Zm-17.69-1.06c0,2.8-.58,3.81-2.22,3.81s-2.22-1.01-2.22-3.58c0-1.69-.05-3.96,2.22-3.96,1.64,0,2.22,.98,2.22,3.73m-4.54-5.29v-1.23h-3.17v17.94h3.27v-5.97c.93,.93,1.77,1.31,3.13,1.31s2.5-.43,3.25-1.18c.98-.98,1.33-2.42,1.33-5.49,0-1.74-.05-2.4-.23-3.35-.18-.88-.58-1.69-1.11-2.22-.76-.76-1.94-1.18-3.25-1.18-1.44,0-2.22,.38-3.23,1.38m-6.23,10.26l-2.22-2.19c-.78,.78-1.26,1.04-2.12,1.04-1.71,0-2.6-1.26-2.6-3.78s.88-3.76,2.6-3.76c.83,0,1.36,.25,2.12,1.03l2.22-2.22c-.78-.76-1.16-1.01-1.87-1.31-.71-.3-1.54-.45-2.44-.45-3.7,0-5.89,2.47-5.89,6.6,0,4.36,2.14,6.83,5.89,6.83,.91,0,1.71-.15,2.44-.48,.71-.3,1.08-.55,1.87-1.31"/><path class="f" d="M241.8,376.62v.71c0,1.64-.68,2.3-2.37,2.3-1.39,0-2.07-.51-2.07-1.51s.68-1.49,1.84-1.49h2.6Zm3.27,5.54v-8.64c0-3.07-1.89-4.64-5.67-4.64-1.24,0-2.14,.15-2.9,.48-.66,.3-1.01,.58-1.76,1.34l2.09,2.04c.78-.86,1.31-1.09,2.47-1.09,1.77,0,2.5,.6,2.5,2.07v.66h-3.1c-2.77,0-4.48,1.46-4.48,3.83,0,2.57,1.64,4.08,4.43,4.08,.76,0,1.36-.1,1.87-.3,.51-.2,.78-.4,1.36-.96v1.13h3.2Zm-14.09,0v-13.13h-3.3v4.97h-4.21v-4.97h-3.3v13.13h3.3v-5.27h4.21v5.27h3.3Zm-21.3,0v-13.13h-3.3v4.97h-4.21v-4.97h-3.3v13.13h3.3v-5.27h4.21v5.27h3.3Zm-17.54-7.78h-4.99c.08-1.77,.98-2.78,2.5-2.78s2.4,.98,2.5,2.78m3.22,2.24v-1.46c0-3.81-2.24-6.27-5.72-6.27s-5.72,2.57-5.72,6.68c0,4.46,2.06,6.75,6.1,6.75,1.04,0,1.94-.18,2.7-.48,.83-.35,1.28-.65,2.27-1.59l-1.99-1.94c-.58,.55-.86,.76-1.34,.96-.43,.18-.98,.28-1.51,.28-1.92,0-2.9-.96-3-2.93h8.22Zm-14.95,5.54v-13.13h-10.81v13.13h3.3v-10.23h4.21v10.23h3.3Zm-17.54-7.78h-4.99c.08-1.77,.98-2.78,2.5-2.78s2.4,.98,2.5,2.78m3.22,2.24v-1.46c0-3.81-2.24-6.27-5.72-6.27s-5.72,2.57-5.72,6.68c0,4.46,2.06,6.75,6.1,6.75,1.03,0,1.94-.18,2.7-.48,.83-.35,1.28-.65,2.27-1.59l-1.99-1.94c-.58,.55-.86,.76-1.34,.96-.43,.18-.98,.28-1.51,.28-1.92,0-2.9-.96-3-2.93h8.22Zm-13.16-4.69v-2.89h-10.94v2.89h3.86v10.23h3.3v-10.23h3.78Zm-12.17,8.6l-2.22-2.19c-.78,.78-1.26,1.04-2.12,1.04-1.71,0-2.6-1.26-2.6-3.78s.88-3.76,2.6-3.76c.83,0,1.36,.25,2.12,1.03l2.22-2.22c-.78-.76-1.16-1.01-1.87-1.31-.71-.3-1.54-.45-2.44-.45-3.7,0-5.9,2.47-5.9,6.6,0,4.36,2.14,6.83,5.9,6.83,.91,0,1.71-.15,2.44-.48,.71-.3,1.08-.55,1.87-1.31m-23.21-3.91v.71c0,1.64-.68,2.3-2.37,2.3-1.39,0-2.07-.51-2.07-1.51s.68-1.49,1.84-1.49h2.6Zm3.27,5.54v-8.64c0-3.07-1.89-4.64-5.67-4.64-1.23,0-2.14,.15-2.9,.48-.65,.3-1.01,.58-1.76,1.34l2.09,2.04c.78-.86,1.31-1.09,2.47-1.09,1.77,0,2.5,.6,2.5,2.07v.66h-3.1c-2.77,0-4.48,1.46-4.48,3.83,0,2.57,1.64,4.08,4.43,4.08,.76,0,1.36-.1,1.87-.3,.5-.2,.78-.4,1.36-.96v1.13h3.2Zm-16.83-3.96c0,.93-.61,1.54-1.64,1.54h-2.6v-3.05h2.6c1.03,0,1.64,.55,1.64,1.51m-1.79-6.76c1.03,0,1.59,.5,1.59,1.39s-.55,1.41-1.59,1.41h-2.45v-2.8h2.45Zm5.04,6.93c0-1.41-.6-2.32-1.86-2.97,1.13-.66,1.66-1.54,1.66-2.77,0-2.19-1.59-3.6-4.06-3.6h-6.48v13.13h6.7c2.47,0,4.03-1.46,4.03-3.78m-17.61-2.82c0,2.8-.58,3.81-2.22,3.81s-2.22-1.01-2.22-3.58c0-1.69-.05-3.96,2.22-3.96,1.64,0,2.22,.98,2.22,3.73m-4.54-5.29v-1.23h-3.17v17.94h3.27v-5.97c.93,.93,1.77,1.31,3.13,1.31s2.5-.43,3.25-1.18c.98-.98,1.33-2.42,1.33-5.49,0-1.74-.05-2.4-.23-3.35-.18-.88-.58-1.69-1.11-2.22-.76-.76-1.94-1.18-3.25-1.18-1.44,0-2.22,.38-3.23,1.38m-11.29,6.07c1.06,0,1.74,.63,1.74,1.61s-.68,1.64-1.74,1.64h-2.52v-3.26h2.52Zm4.96,1.61c0-2.47-1.76-4.18-4.36-4.18h-3.03v-4.74h-6.37v2.89h3.07v10.23h6.32c2.6,0,4.36-1.74,4.36-4.21m-16.66,4.21v-17.94h-13.08v17.94h3.5v-14.82h6.08v14.82h3.5Z"/><path class="h" d="M218.98,344.99c0,1.74-.23,3.43-2.17,3.43s-2.14-1.69-2.14-3.43,.2-3.4,2.14-3.4,2.17,1.66,2.17,3.4m3.27,6.45v-12.65h-3.17v1.23c-.91-1.01-1.82-1.38-3.2-1.38-1.29,0-2.42,.43-3.15,1.16-1.23,1.23-1.33,2.9-1.33,5.19s.1,3.98,1.33,5.22c.73,.73,1.84,1.16,3.13,1.16s2.27-.35,3.13-1.31v1.33c0,1.34-.68,2.73-2.65,2.73-1.11,0-1.84-.3-2.57-1.01l-2.04,2.07c1.36,1.31,2.74,1.71,4.76,1.71,3.53,0,5.77-2.29,5.77-5.44m-14.34,.48v-8.39c0-1.44-.28-2.67-1.33-3.73-.73-.73-1.79-1.16-3.1-1.16-1.21,0-2.42,.45-3.28,1.36v-1.21h-3.2v13.13h3.27v-7.94c0-1.79,1.16-2.39,2.19-2.39s2.17,.6,2.17,2.39v7.94h3.27Zm-15.1,0v-13.13h-3.27v7.94c0,1.79-1.16,2.39-2.19,2.39s-2.17-.6-2.17-2.39v-7.94h-3.27v8.39c0,1.44,.28,2.67,1.33,3.73,.73,.73,1.79,1.16,3.1,1.16,1.21,0,2.42-.45,3.28-1.36v1.21h3.2Zm-18.22-6.58c0,2.14-.28,3.78-2.25,3.78s-2.22-1.64-2.22-3.78,.25-3.76,2.22-3.76,2.25,1.61,2.25,3.76m3.27,6.58v-17.94h-3.27v5.97c-.86-.96-1.87-1.31-3.2-1.31s-2.47,.45-3.2,1.18c-1.31,1.31-1.33,3.55-1.33,5.52s.03,4.23,1.33,5.54c.73,.73,1.94,1.18,3.23,1.18,1.39,0,2.35-.38,3.25-1.38v1.23h3.2Zm-13.58,0v-2.77h-1.26c-.83,0-1.16-.4-1.16-1.18v-13.99h-3.27v14.19c0,1.86,1.13,3.75,3.83,3.75h1.87Zm-9.7-18.04h-3.35v2.67h3.35v-2.67Zm-.03,4.91h-3.27v13.13h3.27v-13.13Zm-10.18,6.55c0,2.14-.25,3.78-2.22,3.78s-2.22-1.64-2.22-3.78,.25-3.76,2.22-3.76,2.22,1.61,2.22,3.76m3.27,0c0-1.97-.03-4.21-1.34-5.52-.73-.73-1.91-1.18-3.2-1.18s-2.32,.35-3.18,1.31v-5.97h-3.27v17.94h3.17v-1.23c.91,1.01,1.89,1.38,3.28,1.38,1.29,0,2.47-.45,3.2-1.18,1.31-1.31,1.34-3.58,1.34-5.54m-14.24,2.44c0-2.22-1.31-3.6-3.91-3.86l-2.07-.2c-1.16-.1-1.36-.66-1.36-1.13,0-.66,.55-1.26,1.87-1.26,1.13,0,2.29,.2,3.05,.88l2.02-2.04c-1.26-1.18-2.97-1.54-5.02-1.54-2.67,0-5.07,1.46-5.07,4.18,0,2.42,1.46,3.45,3.83,3.68l2.07,.2c1.03,.1,1.39,.55,1.39,1.21,0,.98-1.18,1.36-2.32,1.36-1.01,0-2.42-.15-3.5-1.24l-2.14,2.14c1.66,1.66,3.53,1.89,5.6,1.89,3.1,0,5.57-1.38,5.57-4.28m-14.07,4.13v-13.13h-3.27v7.94c0,1.79-1.16,2.39-2.19,2.39s-2.17-.6-2.17-2.39v-7.94h-3.27v8.39c0,1.44,.28,2.67,1.34,3.73,.73,.73,1.79,1.16,3.1,1.16,1.21,0,2.42-.45,3.28-1.36v1.21h3.2Zm-18.88-6.12h-4.46l2.27-6.53,2.19,6.53Zm5.65,6.12l-6.55-17.94h-2.75l-6.53,17.94h3.65l1.08-3.18h6.38l1.06,3.18h3.65Zm-24.07-5.44v-3.07h-4.03v-4.03h-3.07v4.03h-4.06v3.07h4.06v4.03h3.07v-4.03h4.03Z"/><path class="h" d="M223.76,313.89h-4.99c.03-.58,.1-.93,.3-1.41,.35-.78,1.08-1.36,2.19-1.36s1.84,.58,2.19,1.36c.2,.48,.28,.83,.3,1.41m3.23,2.24v-1.46c0-3.61-2.07-6.27-5.72-6.27-3.4,0-5.72,2.42-5.72,6.7,0,5.32,2.97,6.73,6.07,6.73,2.37,0,3.65-.73,4.99-2.06l-1.99-1.94c-.83,.83-1.54,1.24-2.97,1.24-1.84,0-2.87-1.24-2.87-2.93h8.22Zm-13.41-4.71v-2.49h-2.42v-1.44c0-.76,.35-1.19,1.13-1.19h1.29v-2.77h-1.87c-2.67,0-3.83,1.89-3.83,3.75v1.64h-1.36v2.49h1.36v10.26h3.27v-10.26h2.42Zm-10.23-7.78h-3.35v2.67h3.35v-2.67Zm-.03,4.91h-3.27v13.13h3.27v-13.13Zm-10.03,5.34h-4.99c.03-.58,.1-.93,.3-1.41,.35-.78,1.08-1.36,2.19-1.36s1.84,.58,2.19,1.36c.2,.48,.28,.83,.3,1.41m3.23,2.24v-1.46c0-3.61-2.07-6.27-5.72-6.27-3.4,0-5.72,2.42-5.72,6.7,0,5.32,2.97,6.73,6.07,6.73,2.37,0,3.65-.73,4.99-2.06l-1.99-1.94c-.83,.83-1.54,1.24-2.97,1.24-1.84,0-2.87-1.24-2.87-2.93h8.22Zm-18.17-6.9c0,1.39-1.01,2.37-2.55,2.37h-3.3v-4.74h3.3c1.54,0,2.55,.98,2.55,2.37m4.23,12.45l-4-7.74c1.74-.63,3.27-2.19,3.27-4.71,0-3-2.17-5.49-5.82-5.49h-7.03v17.94h3.5v-7.16h2.52l3.51,7.16h4.05Zm-26.94-7.78h-4.99c.03-.58,.1-.93,.3-1.41,.35-.78,1.08-1.36,2.19-1.36s1.84,.58,2.19,1.36c.2,.48,.28,.83,.3,1.41m3.23,2.24v-1.46c0-3.61-2.07-6.27-5.72-6.27-3.4,0-5.72,2.42-5.72,6.7,0,5.32,2.97,6.73,6.07,6.73,2.37,0,3.65-.73,4.99-2.06l-1.99-1.94c-.83,.83-1.54,1.24-2.97,1.24-1.84,0-2.87-1.24-2.87-2.93h8.22Zm-12.38-6.5c-.91-.91-1.81-1.23-3.1-1.23-1.41,0-2.67,.65-3.3,1.41v-1.26h-3.2v13.13h3.27v-7.91c0-1.66,1.11-2.42,2.12-2.42,.81,0,1.23,.28,1.74,.78l2.47-2.49Zm-16.36,4.26h-4.99c.03-.58,.1-.93,.3-1.41,.35-.78,1.08-1.36,2.19-1.36s1.84,.58,2.19,1.36c.2,.48,.28,.83,.3,1.41m3.23,2.24v-1.46c0-3.61-2.07-6.27-5.72-6.27-3.4,0-5.72,2.42-5.72,6.7,0,5.32,2.97,6.73,6.07,6.73,2.37,0,3.65-.73,4.99-2.06l-1.99-1.94c-.83,.83-1.54,1.24-2.97,1.24-1.84,0-2.87-1.24-2.87-2.93h8.22Zm-13.28,5.54v-2.77h-1.26c-.83,0-1.16-.4-1.16-1.18v-13.99h-3.27v14.19c0,1.86,1.13,3.75,3.83,3.75h1.87Zm-9.05,0v-2.77h-1.18c-.78,0-1.13-.43-1.13-1.19v-6.3h2.32v-2.49h-2.32v-3.88h-3.27v3.88h-1.39v2.49h1.39v6.5c0,1.87,1.13,3.75,3.8,3.75h1.79Zm-9.38,0v-2.77h-1.18c-.78,0-1.13-.43-1.13-1.19v-6.3h2.32v-2.49h-2.32v-3.88h-3.27v3.88h-1.39v2.49h1.39v6.5c0,1.87,1.13,3.75,3.8,3.75h1.79Zm-10.03-18.04h-3.35v2.67h3.35v-2.67Zm-.03,4.91h-3.27v13.13h3.27v-13.13Zm-7.71,13.13v-17.94h-3.45l-4.66,9.7-4.69-9.7h-3.45v17.94h3.5v-10.46l3.45,6.8h2.37l3.43-6.8v10.46h3.5Z"/></g><polygon class="f" points="10.94 257.37 20.04 257.37 15.49 252.82 10.94 257.37"/><polygon class="f" points="10.94 275.46 20.04 275.46 15.49 270.91 10.94 275.46"/><polygon class="f" points="10.94 266.41 20.04 266.41 15.49 261.87 10.94 266.41"/><rect class="g" x="1.75" y="103.94" width="27.48" height="46.75"/><rect class="g" x="2.33" y=".58" width="288.93" height="112.03"/><path class="h" d="M291.84,113.19H1.75V0H291.84V113.19ZM2.91,112.03H290.68V1.16H2.91V112.03Z"/><g class="i"><path class="f" d="M183.89,85.97c-.91-.91-1.81-1.23-3.1-1.23-1.41,0-2.67,.65-3.3,1.41v-1.26h-3.2v13.13h3.27v-7.91c0-1.66,1.11-2.42,2.12-2.42,.81,0,1.23,.28,1.74,.78l2.47-2.49Zm-13.79,12.05v-13.13h-3.27v7.94c0,1.79-1.16,2.39-2.19,2.39s-2.17-.6-2.17-2.39v-7.94h-3.27v8.39c0,1.44,.28,2.67,1.34,3.73,.73,.73,1.79,1.16,3.1,1.16,1.21,0,2.42-.45,3.28-1.36v1.21h3.2Zm-14.24,0v-2.77h-1.18c-.78,0-1.13-.43-1.13-1.19v-6.3h2.32v-2.49h-2.32v-3.88h-3.27v3.88h-1.39v2.49h1.39v6.5c0,1.87,1.13,3.75,3.8,3.75h1.79Zm-10.03-18.04h-3.35v2.67h3.35v-2.67Zm-.03,4.91h-3.27v13.13h3.27v-13.13Zm-10.18,6.55c0,2.14-.25,3.78-2.22,3.78s-2.22-1.64-2.22-3.78,.25-3.76,2.22-3.76,2.22,1.61,2.22,3.76m3.27,0c0-1.97-.03-4.21-1.33-5.52-.73-.73-1.91-1.18-3.2-1.18s-2.32,.35-3.18,1.31v-5.97h-3.27v17.94h3.17v-1.23c.91,1.01,1.89,1.38,3.28,1.38,1.29,0,2.47-.45,3.2-1.18,1.31-1.31,1.33-3.58,1.33-5.54m-19.1,.46h-4.46l2.27-6.53,2.19,6.53Zm5.65,6.12l-6.55-17.94h-2.75l-6.53,17.94h3.65l1.08-3.18h6.38l1.06,3.18h3.65Z"/><path class="f" d="M244.86,47.96h-3.07l-7.18,21.67h3.07l7.18-21.67Zm-21.53,12.02h-4.99c.03-.58,.1-.93,.3-1.41,.35-.78,1.08-1.36,2.19-1.36s1.84,.58,2.19,1.36c.2,.48,.28,.83,.3,1.41m3.23,2.24v-1.46c0-3.61-2.07-6.27-5.72-6.27-3.4,0-5.72,2.42-5.72,6.7,0,5.32,2.97,6.73,6.07,6.73,2.37,0,3.65-.73,4.99-2.06l-1.99-1.94c-.83,.83-1.54,1.24-2.97,1.24-1.84,0-2.87-1.24-2.87-2.93h8.22Zm-13.41-4.71v-2.49h-2.42v-1.44c0-.76,.35-1.19,1.13-1.19h1.29v-2.77h-1.87c-2.67,0-3.83,1.89-3.83,3.75v1.64h-1.36v2.49h1.36v10.26h3.27v-10.26h2.42Zm-10.23-7.78h-3.35v2.67h3.35v-2.67Zm-.03,4.91h-3.27v13.13h3.27v-13.13Zm-10.03,5.34h-4.99c.03-.58,.1-.93,.3-1.41,.35-.78,1.08-1.36,2.19-1.36s1.84,.58,2.19,1.36c.2,.48,.28,.83,.3,1.41m3.23,2.24v-1.46c0-3.61-2.07-6.27-5.72-6.27-3.4,0-5.72,2.42-5.72,6.7,0,5.32,2.97,6.73,6.07,6.73,2.37,0,3.65-.73,4.99-2.06l-1.99-1.94c-.83,.83-1.54,1.24-2.97,1.24-1.84,0-2.87-1.24-2.87-2.93h8.22Zm-12.38-6.5c-.91-.91-1.81-1.23-3.1-1.23-1.41,0-2.67,.65-3.3,1.41v-1.26h-3.2v13.13h3.27v-7.91c0-1.66,1.11-2.42,2.12-2.42,.81,0,1.23,.28,1.74,.78l2.47-2.49Zm-12.73,12.05v-2.77h-1.26c-.83,0-1.16-.4-1.16-1.18v-13.99h-3.27v14.19c0,1.86,1.13,3.75,3.83,3.75h1.87Zm-9.75,0v-13.13h-3.27v7.94c0,1.79-1.16,2.39-2.19,2.39s-2.17-.6-2.17-2.39v-7.94h-3.27v8.39c0,1.44,.28,2.67,1.33,3.73,.73,.73,1.79,1.16,3.1,1.16,1.21,0,2.42-.45,3.28-1.36v1.21h3.2Zm-14.79,0v-8.49c0-2.77-1.51-4.78-4.38-4.78-1.16,0-2.27,.45-3.15,1.36v-6.02h-3.27v17.94h3.27v-8.01c0-1.71,1.08-2.32,2.12-2.32s2.14,.58,2.14,2.32v8.01h3.27Zm-13.86-1.64l-2.22-2.19c-.68,.73-1.26,1.04-2.12,1.04-.78,0-1.39-.28-1.87-.86-.5-.63-.73-1.54-.73-2.92s.23-2.27,.73-2.9c.48-.58,1.08-.86,1.87-.86,.86,0,1.44,.3,2.12,1.03l2.22-2.22c-1.16-1.21-2.52-1.76-4.34-1.76-2.62,0-5.87,1.38-5.87,6.7s3.25,6.73,5.87,6.73c1.81,0,3.18-.58,4.34-1.79m-12.8-2.5c0-2.22-1.31-3.6-3.91-3.86l-2.07-.2c-1.16-.1-1.36-.66-1.36-1.13,0-.66,.55-1.26,1.87-1.26,1.13,0,2.29,.2,3.05,.88l2.02-2.04c-1.26-1.18-2.97-1.54-5.02-1.54-2.67,0-5.07,1.46-5.07,4.18,0,2.42,1.46,3.45,3.83,3.68l2.07,.2c1.03,.1,1.39,.55,1.39,1.21,0,.98-1.18,1.36-2.32,1.36-1.01,0-2.42-.15-3.5-1.24l-2.14,2.14c1.66,1.66,3.53,1.89,5.6,1.89,3.1,0,5.57-1.38,5.57-4.28m-13.91,4.13v-8.49c0-2.77-1.51-4.78-4.38-4.78-1.16,0-2.27,.45-3.15,1.36v-6.02h-3.27v17.94h3.27v-8.01c0-1.71,1.08-2.32,2.12-2.32s2.14,.58,2.14,2.32v8.01h3.27Zm-13.86-1.64l-2.22-2.19c-.68,.73-1.26,1.04-2.12,1.04-.78,0-1.39-.28-1.87-.86-.5-.63-.73-1.54-.73-2.92s.23-2.27,.73-2.9c.48-.58,1.08-.86,1.87-.86,.86,0,1.44,.3,2.12,1.03l2.22-2.22c-1.16-1.21-2.52-1.76-4.34-1.76-2.62,0-5.87,1.38-5.87,6.7s3.25,6.73,5.87,6.73c1.81,0,3.18-.58,4.34-1.79m-16.45-4.94c0,1.36-.08,2.52-.76,3.2-.38,.38-.88,.58-1.54,.58s-1.14-.2-1.51-.58c-.68-.68-.76-1.84-.76-3.2s.08-2.5,.76-3.18c.38-.38,.86-.58,1.51-.58s1.16,.2,1.54,.58c.68,.68,.76,1.82,.76,3.18m3.27,0c0-2.37-.3-3.86-1.49-5.09-.81-.86-2.14-1.61-4.08-1.61s-3.25,.75-4.06,1.61c-1.18,1.23-1.49,2.72-1.49,5.09s.3,3.88,1.49,5.12c.8,.86,2.12,1.61,4.06,1.61s3.28-.76,4.08-1.61c1.18-1.23,1.49-2.72,1.49-5.12m-15,6.58v-17.94h-3.5v7.33h-6.08v-7.33h-3.5v17.94h3.5v-7.51h6.08v7.51h3.5Z"/><path class="f" d="M235.78,29.74h-4.99c.03-.58,.1-.93,.3-1.41,.35-.78,1.08-1.36,2.19-1.36s1.84,.58,2.19,1.36c.2,.48,.28,.83,.3,1.41m3.23,2.24v-1.46c0-3.61-2.07-6.27-5.72-6.27-3.4,0-5.72,2.42-5.72,6.7,0,5.32,2.97,6.73,6.07,6.73,2.37,0,3.65-.73,4.99-2.06l-1.99-1.94c-.83,.83-1.54,1.24-2.97,1.24-1.84,0-2.87-1.24-2.87-2.93h8.22Zm-14.82,5.54v-8.39c0-1.44-.28-2.67-1.33-3.73-.73-.73-1.79-1.16-3.1-1.16-1.21,0-2.42,.45-3.28,1.36v-1.21h-3.2v13.13h3.27v-7.94c0-1.79,1.16-2.39,2.19-2.39s2.17,.6,2.17,2.39v7.94h3.27Zm-17.67-7.78h-4.99c.03-.58,.1-.93,.3-1.41,.35-.78,1.08-1.36,2.19-1.36s1.84,.58,2.19,1.36c.2,.48,.28,.83,.3,1.41m3.23,2.24v-1.46c0-3.61-2.07-6.27-5.72-6.27-3.4,0-5.72,2.42-5.72,6.7,0,5.32,2.97,6.73,6.07,6.73,2.37,0,3.65-.73,4.99-2.06l-1.99-1.94c-.83,.83-1.54,1.24-2.97,1.24-1.84,0-2.87-1.24-2.87-2.93h8.22Zm-18.24-1.03c0,2.14-.28,3.78-2.25,3.78s-2.22-1.64-2.22-3.78,.25-3.76,2.22-3.76,2.25,1.61,2.25,3.76m3.27,6.58V19.58h-3.27v5.97c-.86-.96-1.87-1.31-3.2-1.31s-2.47,.45-3.2,1.18c-1.31,1.31-1.33,3.55-1.33,5.52s.03,4.23,1.33,5.54c.73,.73,1.94,1.18,3.23,1.18,1.39,0,2.35-.38,3.25-1.38v1.23h3.2Zm-14.49,0v-8.39c0-1.44-.28-2.67-1.34-3.73-.73-.73-1.79-1.16-3.1-1.16-1.21,0-2.42,.45-3.28,1.36v-1.21h-3.2v13.13h3.27v-7.94c0-1.79,1.16-2.39,2.19-2.39s2.17,.6,2.17,2.39v7.94h3.27Zm-15.1,0v-13.13h-3.27v7.94c0,1.79-1.16,2.39-2.19,2.39s-2.17-.6-2.17-2.39v-7.94h-3.27v8.39c0,1.44,.28,2.67,1.33,3.73,.73,.73,1.79,1.16,3.1,1.16,1.21,0,2.42-.45,3.28-1.36v1.21h3.2Zm-17.67-6.58c0,2.14-.25,3.78-2.22,3.78s-2.22-1.64-2.22-3.78,.25-3.76,2.22-3.76,2.22,1.61,2.22,3.76m3.27,0c0-1.97-.03-4.21-1.34-5.52-.73-.73-1.91-1.18-3.2-1.18s-2.32,.35-3.18,1.31v-5.97h-3.27v17.94h3.17v-1.23c.91,1.01,1.89,1.38,3.28,1.38,1.29,0,2.47-.45,3.2-1.18,1.31-1.31,1.34-3.58,1.34-5.54m-17.74-1.21h-4.99c.03-.58,.1-.93,.3-1.41,.35-.78,1.08-1.36,2.19-1.36s1.84,.58,2.19,1.36c.2,.48,.28,.83,.3,1.41m3.23,2.24v-1.46c0-3.61-2.07-6.27-5.72-6.27-3.4,0-5.72,2.42-5.72,6.7,0,5.32,2.97,6.73,6.07,6.73,2.37,0,3.65-.73,4.99-2.06l-1.99-1.94c-.83,.83-1.54,1.24-2.97,1.24-1.84,0-2.87-1.24-2.87-2.93h8.22Zm-18.25-1.38c0,1.74-.23,3.43-2.17,3.43s-2.14-1.69-2.14-3.43,.2-3.4,2.14-3.4,2.17,1.66,2.17,3.4m3.27,6.45v-12.65h-3.17v1.23c-.91-1.01-1.81-1.38-3.2-1.38-1.29,0-2.42,.43-3.15,1.16-1.23,1.23-1.34,2.9-1.34,5.19s.1,3.98,1.34,5.22c.73,.73,1.84,1.16,3.12,1.16s2.27-.35,3.13-1.31v1.33c0,1.34-.68,2.73-2.65,2.73-1.11,0-1.84-.3-2.57-1.01l-2.04,2.07c1.36,1.31,2.75,1.71,4.76,1.71,3.53,0,5.77-2.29,5.77-5.44m-14.34,.48v-8.49c0-2.77-1.51-4.78-4.38-4.78-1.16,0-2.27,.45-3.15,1.36v-6.02h-3.27v17.94h3.27v-8.01c0-1.71,1.08-2.32,2.12-2.32s2.14,.58,2.14,2.32v8.01h3.27Zm-13.86-1.64l-2.22-2.19c-.68,.73-1.26,1.04-2.12,1.04-.78,0-1.39-.28-1.87-.86-.5-.63-.73-1.54-.73-2.92s.23-2.27,.73-2.9c.48-.58,1.08-.86,1.87-.86,.86,0,1.44,.3,2.12,1.03l2.22-2.22c-1.16-1.21-2.52-1.76-4.34-1.76-2.62,0-5.87,1.38-5.87,6.7s3.25,6.73,5.87,6.73c1.81,0,3.18-.58,4.34-1.79m-16.86-3.2c0,.81-.13,1.34-.48,1.67-.58,.56-1.16,.63-2.07,.63-1.29,0-1.89-.61-1.89-1.51s.66-1.49,1.84-1.49h2.6v.71Zm3.27,4.84v-8.64c0-3.07-1.91-4.64-5.59-4.64-2.19,0-3.45,.4-4.74,1.81l2.09,2.04c.68-.78,1.26-1.09,2.52-1.09,1.74,0,2.45,.63,2.45,2.07v.66h-3.1c-3.05,0-4.48,1.71-4.48,3.8,0,1.16,.38,2.22,1.08,2.95,.78,.78,1.86,1.16,3.35,1.16s2.34-.38,3.23-1.26v1.13h3.2Zm-12.4-14.82v-3.12h-11.82v17.94h3.5v-7.28h7.08v-3.12h-7.08v-4.41h8.32Z"/></g><polygon class="f" points="10.94 119.94 20.04 119.94 15.49 115.4 10.94 119.94"/><polygon class="f" points="10.94 138.03 20.04 138.03 15.49 133.48 10.94 138.03"/><polygon class="f" points="10.94 128.98 20.04 128.98 15.49 124.44 10.94 128.98"/><rect class="g" x="1.75" y="212.24" width="289.04" height="27.48"/><g class="k"><path class="h" d="M170,184.64c0-1.59-.43-2.9-1.39-3.81-.75-.71-1.79-1.16-3.43-1.39l-2.12-.3c-.73-.1-1.31-.38-1.66-.71-.38-.35-.53-.83-.53-1.29,0-1.23,.91-2.27,2.77-2.27,1.18,0,2.55,.15,3.68,1.23l2.22-2.19c-1.54-1.49-3.32-2.09-5.79-2.09-3.88,0-6.25,2.24-6.25,5.44,0,1.51,.43,2.67,1.29,3.53,.8,.78,1.94,1.26,3.48,1.49l2.17,.3c.83,.13,1.23,.3,1.59,.63,.38,.35,.55,.88,.55,1.51,0,1.44-1.11,2.22-3.18,2.22-1.67,0-3.2-.38-4.34-1.51l-2.27,2.27c1.76,1.79,3.83,2.37,6.55,2.37,3.76,0,6.65-1.96,6.65-5.44m-19.18-3.68c0,3.45-.2,4.29-.88,5.04-.5,.58-1.29,.96-2.24,.96s-1.77-.38-2.27-.96c-.68-.76-.86-1.59-.86-5.04s.18-4.29,.86-5.04c.5-.58,1.31-.96,2.27-.96s1.74,.38,2.24,.96c.68,.76,.88,1.59,.88,5.04m3.5,0c0-3.1,.03-5.35-1.79-7.16-1.26-1.26-2.8-1.96-4.84-1.96s-3.61,.7-4.86,1.96c-1.81,1.81-1.76,4.06-1.76,7.16s-.05,5.35,1.76,7.16c1.26,1.26,2.82,1.96,4.86,1.96s3.58-.7,4.84-1.96c1.81-1.81,1.79-4.06,1.79-7.16m-20.49-3.78c0,1.23-.83,2.07-2.32,2.07h-3.43v-4.14h3.43c1.49,0,2.32,.83,2.32,2.07m.25,7.41c0,1.21-.76,2.22-2.35,2.22h-3.66v-4.41h3.66c1.59,0,2.35,.98,2.35,2.19m3.5,.18c0-2.4-1.38-3.53-2.47-4.03,.91-.43,2.22-1.71,2.22-3.7,0-3.07-2.04-5.04-5.54-5.04h-7.21v17.94h7.51c3.2,0,5.49-1.81,5.49-5.16"/><path class="f" d="M229.93,231.6v-12.42h-1.73l-5.55,9v-9h-1.88v12.42h1.71l5.57-9.02v9.02h1.88Zm-13.61,0v-12.42h-1.9v5.32h-5.03v-5.32h-1.88v12.42h1.88v-5.43h5.03v5.43h1.9Zm-13.28,0v-12.42h-1.73l-5.55,9v-9h-1.88v12.42h1.71l5.57-9.02v9.02h1.88Zm-21.22-12.42v3.66c0,2.95-.44,5.39-1.52,7.07h-1.08v4.48h1.83v-2.79h7.54v2.79h1.85v-4.48h-1.47v-10.73h-7.15Zm1.81,1.69h3.46v9.04h-4.68c.92-1.74,1.22-3.89,1.22-6.27v-2.77Zm-8.76,4.4c0,2.11,0,3.21-.73,3.98-.47,.51-1.12,.77-1.85,.77s-1.35-.26-1.85-.77c-.66-.66-.72-1.83-.72-3.11v-1.06c0-1.59,.02-2.81,.72-3.54,.49-.51,1.15-.77,1.85-.77s1.36,.26,1.85,.77c.7,.73,.73,1.85,.73,3.74m1.9-.75c0-1.76-.24-3.14-1.2-4.12-.85-.85-1.99-1.32-3.28-1.32s-2.41,.47-3.26,1.32c-1.05,1.05-1.2,2.37-1.2,4.42v.82c0,1.85,.02,3.54,1.2,4.75,.85,.87,1.97,1.32,3.26,1.32s2.43-.45,3.28-1.32c1.18-1.22,1.2-2.77,1.2-4.82v-1.05Zm-11.32-3.65v-1.69h-7.64v12.42h1.88v-10.73h5.76Zm-15.93-2.98h-1.71l-4.97,15h1.71l4.97-15Zm-14.36,13.71v-1.69h-6.05v-3.74h5.16v-1.67h-5.16v-3.63h6.05v-1.69h-7.94v12.42h7.94Zm-13.97-8.77c0,1.22-.86,1.94-2.11,1.94h-2.79v-3.89h2.79c1.26,0,2.11,.73,2.11,1.96m2.27,8.77l-2.86-5.5c1.39-.38,2.48-1.52,2.48-3.3,0-2.11-1.5-3.63-3.86-3.63h-4.81v12.42h1.88v-5.23h2.36l2.62,5.23h2.2Zm-13.7,0v-12.42h-1.88v5.3h-5.04v-5.3h-1.88v12.42h1.88v-5.43h5.04v5.43h1.88Zm-15.35-4.1h-3.82l1.94-5.51,1.88,5.51Zm3.39,4.1l-4.55-12.42h-1.52l-4.55,12.42h2.01l.85-2.5h4.9l.85,2.5h2.01Zm-13.44-3.92v-8.5h-1.88v8.36c0,1.62-.85,2.48-2.25,2.48-.91,0-1.33-.31-1.76-.75l-1.26,1.24c.85,.85,1.74,1.2,3.02,1.2,2.29,0,4.13-1.45,4.13-4.03m-15.08,3.92v-1.59h-5.06l3.89-4.76c.77-.94,1.17-1.59,1.17-2.69,0-2.15-1.46-3.49-3.59-3.49s-3.61,1.39-3.61,3.51h1.78c0-1.4,.89-1.92,1.83-1.92,1.15,0,1.81,.77,1.81,1.88,0,.63-.19,1.08-.66,1.66l-4.78,5.81v1.59h7.22Z"/></g><path class="h" d="M291.96,240.13H1.75v-90.84H291.96v90.84ZM2.91,238.97H290.8v-88.51H2.91v88.51Z"/><polygon class="f" points="10.94 145.68 20.04 145.68 15.49 141.13 10.94 145.68"/><polygon class="f" points="10.94 248.27 20.04 248.27 15.49 243.72 10.94 248.27"/></svg>