<?xml version="1.0" encoding="UTF-8"?> <!-- Generator: Adobe Illustrator 24.2.1, SVG Export Plug-In . SVG Version: 6.00 Build 0) --> <svg xmlns="http://www.w3.org/2000/svg" xmlns:xlink="http://www.w3.org/1999/xlink" version="1.1" id="Ebene_1" x="0px" y="0px" viewBox="0 0 398.6 430.7" style="enable-background:new 0 0 398.6 430.7;" xml:space="preserve"> <style type="text/css"> .st0{fill:#88D0CB;} .st1{fill:#62C6BF;} .st2{fill:none;stroke:#2A2C68;stroke-width:0.6;stroke-linejoin:round;} .st3{fill:#FFFFFF;} .st4{font-family:'DINPro-Bold';} .st5{font-size:13px;} .st6{fill:#292C68;} </style> <g id="Layer-1"> <path class="st0" d="M398.9,420h-14.2V80.2h14.2V420z"></path> </g> <g id="Layer-1_1_"> <path class="st0" d="M207.6,282.5h-14.2V91.7h14.2V282.5z"></path> </g> <g id="Layer-1_2_"> <path class="st0" d="M361.8,354h-14.2V92h14.2V354z"></path> </g> <g id="Layer-1_3_"> <path class="st0" d="M361.8,287.8H246.1v-14.2h115.7V287.8z"></path> </g> <g id="Layer-1_4_"> <path class="st0" d="M361.8,170.2H193.4V156h168.4V170.2z"></path> </g> <g id="Layer-1_5_"> <path class="st1" d="M12.5,287.7h311.9v-21H12.5V287.7z"></path> </g> <g id="Layer-1_6_"> <path class="st2" d="M6,287.7h318.3v-21H6V287.7z"></path> </g> <g id="Layer-1_7_"> <text transform="matrix(1 0 0 1 56.9068 280.4091)" class="st3 st4 st5">A</text> <text transform="matrix(1 0 0 1 65.4608 280.4091)" class="st3 st4 st5">l</text> <text transform="matrix(1 0 0 1 69.9458 280.4091)" class="st3 st4 st5">l</text> <text transform="matrix(1 0 0 1 74.3008 280.4091)" class="st3 st4 st5">g</text> <text transform="matrix(1 0 0 1 81.7758 280.4091)" class="st3 st4 st5">e</text> <text transform="matrix(1 0 0 1 89.1598 280.4091)" class="st3 st4 st5">m</text> <text transform="matrix(1 0 0 1 100.8078 280.4091)" class="st3 st4 st5">e</text> <text transform="matrix(1 0 0 1 108.1918 280.4091)" class="st3 st4 st5">i</text> <text transform="matrix(1 0 0 1 112.0268 280.4091)" class="st3 st4 st5">n</text> <text transform="matrix(1 0 0 1 119.7358 280.4091)" class="st3 st4 st5">e</text> <text transform="matrix(1 0 0 1 127.1198 280.4091)" class="st3 st4 st5"> </text> <text transform="matrix(1 0 0 1 130.3958 280.4091)" class="st3 st4 st5">H</text> <text transform="matrix(1 0 0 1 139.5608 280.4091)" class="st3 st4 st5">o</text> <text transform="matrix(1 0 0 1 146.8798 280.4091)" class="st3 st4 st5">c</text> <text transform="matrix(1 0 0 1 153.3798 280.4091)" class="st3 st4 st5">h</text> <text transform="matrix(1 0 0 1 161.0888 280.4091)" class="st3 st4 st5">s</text> <text transform="matrix(1 0 0 1 167.8618 280.4091)" class="st3 st4 st5">c</text> <text transform="matrix(1 0 0 1 174.3618 280.4091)" class="st3 st4 st5">h</text> <text transform="matrix(1 0 0 1 182.0708 280.4091)" class="st3 st4 st5">u</text> <text transform="matrix(1 0 0 1 189.7798 280.4091)" class="st3 st4 st5">l</text> <text transform="matrix(1 0 0 1 194.2648 280.4091)" class="st3 st4 st5">r</text> <text transform="matrix(1 0 0 1 200.0498 280.4091)" class="st3 st4 st5">e</text> <text transform="matrix(1 0 0 1 207.4338 280.4091)" class="st3 st4 st5">i</text> <text transform="matrix(1 0 0 1 211.2688 280.4091)" class="st3 st4 st5">f</text> <text transform="matrix(1 0 0 1 215.7798 280.4091)" class="st3 st4 st5">e</text> <text transform="matrix(1 0 0 1 223.1638 280.4091)" class="st3 st4 st5"> </text> <text transform="matrix(1 0 0 1 226.4398 280.4091)" class="st3 st4 st5">(</text> <text transform="matrix(1 0 0 1 231.0678 280.4091)" class="st3 st4 st5">A</text> <text transform="matrix(1 0 0 1 239.6218 280.4091)" class="st3 st4 st5">b</text> <text transform="matrix(1 0 0 1 247.1618 280.4091)" class="st3 st4 st5">i</text> <text transform="matrix(1 0 0 1 250.9968 280.4091)" class="st3 st4 st5">t</text> <text transform="matrix(1 0 0 1 255.8328 280.4091)" class="st3 st4 st5">u</text> <text transform="matrix(1 0 0 1 263.5418 280.4091)" class="st3 st4 st5">r</text> <text transform="matrix(1 0 0 1 269.7168 280.4091)" class="st3 st4 st5">)</text> </g> <g id="Layer-1_8_"> <path class="st1" d="M49.3,359.5h312.2v-21H49.3V359.5z"></path> </g> <g id="Layer-1_9_"> <path class="st2" d="M42.9,359.5h318.6v-21H42.9V359.5z"></path> </g> <g id="Layer-1_10_"> <text transform="matrix(1 0 0 1 105.7553 352.1733)" class="st3 st4 st5">F</text> <text transform="matrix(1 0 0 1 113.2953 352.1733)" class="st3 st4 st5">a</text> <text transform="matrix(1 0 0 1 120.4973 352.1733)" class="st3 st4 st5">c</text> <text transform="matrix(1 0 0 1 126.9973 352.1733)" class="st3 st4 st5">h</text> <text transform="matrix(1 0 0 1 134.7063 352.1733)" class="st3 st4 st5">g</text> <text transform="matrix(1 0 0 1 142.1813 352.1733)" class="st3 st4 st5">e</text> <text transform="matrix(1 0 0 1 149.5653 352.1733)" class="st3 st4 st5">b</text> <text transform="matrix(1 0 0 1 157.1053 352.1733)" class="st3 st4 st5">u</text> <text transform="matrix(1 0 0 1 164.8143 352.1733)" class="st3 st4 st5">n</text> <text transform="matrix(1 0 0 1 172.5233 352.1733)" class="st3 st4 st5">d</text> <text transform="matrix(1 0 0 1 180.0763 352.1733)" class="st3 st4 st5">e</text> <text transform="matrix(1 0 0 1 187.4603 352.1733)" class="st3 st4 st5">n</text> <text transform="matrix(1 0 0 1 195.1693 352.1733)" class="st3 st4 st5">e</text> <text transform="matrix(1 0 0 1 202.5533 352.1733)" class="st3 st4 st5"> </text> <text transform="matrix(1 0 0 1 205.8293 352.1733)" class="st3 st4 st5">H</text> <text transform="matrix(1 0 0 1 214.9943 352.1733)" class="st3 st4 st5">o</text> <text transform="matrix(1 0 0 1 222.3133 352.1733)" class="st3 st4 st5">c</text> <text transform="matrix(1 0 0 1 228.8133 352.1733)" class="st3 st4 st5">h</text> <text transform="matrix(1 0 0 1 236.5223 352.1733)" class="st3 st4 st5">s</text> <text transform="matrix(1 0 0 1 243.2953 352.1733)" class="st3 st4 st5">c</text> <text transform="matrix(1 0 0 1 249.7953 352.1733)" class="st3 st4 st5">h</text> <text transform="matrix(1 0 0 1 257.5044 352.1733)" class="st3 st4 st5">u</text> <text transform="matrix(1 0 0 1 265.2134 352.1733)" class="st3 st4 st5">l</text> <text transform="matrix(1 0 0 1 269.6984 352.1733)" class="st3 st4 st5">r</text> <text transform="matrix(1 0 0 1 275.4833 352.1733)" class="st3 st4 st5">e</text> <text transform="matrix(1 0 0 1 282.8673 352.1733)" class="st3 st4 st5">i</text> <text transform="matrix(1 0 0 1 286.7023 352.1733)" class="st3 st4 st5">f</text> <text transform="matrix(1 0 0 1 291.212 352.1733)" class="st3 st4 st5">e</text> </g> <g id="Layer-1_11_"> <path class="st1" d="M86.1,430.7h312.5v-21H86.1V430.7z"></path> </g> <g id="Layer-1_12_"> <path class="st2" d="M79.7,430.7h318.9v-21H79.7V430.7z"></path> </g> <g id="Layer-1_13_"> <text transform="matrix(1 0 0 1 177.3932 423.4091)" class="st3 st4 st5"> </text> <text transform="matrix(1 0 0 1 180.6692 423.4091)" class="st3 st4 st5">F</text> <text transform="matrix(1 0 0 1 188.2092 423.4091)" class="st3 st4 st5">a</text> <text transform="matrix(1 0 0 1 195.4112 423.4091)" class="st3 st4 st5">c</text> <text transform="matrix(1 0 0 1 201.9112 423.4091)" class="st3 st4 st5">h</text> <text transform="matrix(1 0 0 1 209.6202 423.4091)" class="st3 st4 st5">h</text> <text transform="matrix(1 0 0 1 217.3292 423.4091)" class="st3 st4 st5">o</text> <text transform="matrix(1 0 0 1 224.6482 423.4091)" class="st3 st4 st5">c</text> <text transform="matrix(1 0 0 1 231.1482 423.4091)" class="st3 st4 st5">h</text> <text transform="matrix(1 0 0 1 238.8572 423.4091)" class="st3 st4 st5">s</text> <text transform="matrix(1 0 0 1 245.6302 423.4091)" class="st3 st4 st5">c</text> <text transform="matrix(1 0 0 1 252.1302 423.4091)" class="st3 st4 st5">h</text> <text transform="matrix(1 0 0 1 259.8392 423.4091)" class="st3 st4 st5">u</text> <text transform="matrix(1 0 0 1 267.5482 423.4091)" class="st3 st4 st5">l</text> <text transform="matrix(1 0 0 1 272.0333 423.4091)" class="st3 st4 st5">r</text> <text transform="matrix(1 0 0 1 277.8182 423.4091)" class="st3 st4 st5">e</text> <text transform="matrix(1 0 0 1 285.2022 423.4091)" class="st3 st4 st5">i</text> <text transform="matrix(1 0 0 1 289.0372 423.4091)" class="st3 st4 st5">f</text> <text transform="matrix(1 0 0 1 293.5469 423.4091)" class="st3 st4 st5">e</text> </g> <g id="Layer-1_14_"> <path class="st1" d="M398.6,127.7H222.4V6h176.2V127.7z"></path> </g> <g id="Layer-1_15_"> <path class="st1" d="M207.3,91.7H36.8v-86h170.5V91.7z"></path> </g> <g id="Layer-1_16_"> <text transform="matrix(1 0 0 1 225.2383 42.8072)" class="st6 st4 st5">H</text> <text transform="matrix(1 0 0 1 234.4033 42.8072)" class="st6 st4 st5">o</text> <text transform="matrix(1 0 0 1 241.7223 42.8072)" class="st6 st4 st5">c</text> <text transform="matrix(1 0 0 1 248.2223 42.8072)" class="st6 st4 st5">h</text> <text transform="matrix(1 0 0 1 255.9313 42.8072)" class="st6 st4 st5">s</text> <text transform="matrix(1 0 0 1 262.7043 42.8072)" class="st6 st4 st5">c</text> <text transform="matrix(1 0 0 1 269.2043 42.8072)" class="st6 st4 st5">h</text> <text transform="matrix(1 0 0 1 276.9134 42.8072)" class="st6 st4 st5">u</text> <text transform="matrix(1 0 0 1 284.6224 42.8072)" class="st6 st4 st5">l</text> <text transform="matrix(1 0 0 1 288.9774 42.8072)" class="st6 st4 st5">e</text> <text transform="matrix(1 0 0 1 296.3614 42.8072)" class="st6 st4 st5"> </text> <text transform="matrix(1 0 0 1 299.6374 42.8072)" class="st6 st4 st5">f</text> <text transform="matrix(1 0 0 1 304.3434 42.8072)" class="st6 st4 st5">ü</text> <text transform="matrix(1 0 0 1 312.0524 42.8072)" class="st6 st4 st5">r</text> <text transform="matrix(1 0 0 1 318.2274 42.8072)" class="st6 st4 st5"> </text> <text transform="matrix(1 0 0 1 321.5034 42.8072)" class="st6 st4 st5">a</text> <text transform="matrix(1 0 0 1 328.7054 42.8072)" class="st6 st4 st5">n</text> <text transform="matrix(1 0 0 1 336.4144 42.8072)" class="st6 st4 st5">g</text> <text transform="matrix(1 0 0 1 343.8894 42.8072)" class="st6 st4 st5">e</text> <text transform="matrix(1 0 0 1 351.2084 42.8072)" class="st6 st4 st5">w</text> <text transform="matrix(1 0 0 1 361.2704 42.8072)" class="st6 st4 st5">a</text> <text transform="matrix(1 0 0 1 368.4724 42.8072)" class="st6 st4 st5">n</text> <text transform="matrix(1 0 0 1 376.1814 42.8072)" class="st6 st4 st5">d</text> <text transform="matrix(1 0 0 1 383.7344 42.8072)" class="st6 st4 st5">t</text> <text transform="matrix(1 0 0 1 388.5054 42.8072)" class="st6 st4 st5">e</text> <text transform="matrix(1 0 0 1 395.6294 42.8072)" class="st6 st4 st5"> </text> </g> <g id="Layer-1_17_"> <text transform="matrix(1 0 0 1 269.1005 58.4073)" class="st6 st4 st5">W</text> <text transform="matrix(1 0 0 1 280.8915 58.4073)" class="st6 st4 st5">i</text> <text transform="matrix(1 0 0 1 284.7265 58.4073)" class="st6 st4 st5">s</text> <text transform="matrix(1 0 0 1 291.4345 58.4073)" class="st6 st4 st5">s</text> <text transform="matrix(1 0 0 1 298.2075 58.4073)" class="st6 st4 st5">e</text> <text transform="matrix(1 0 0 1 305.5915 58.4073)" class="st6 st4 st5">n</text> <text transform="matrix(1 0 0 1 313.3005 58.4073)" class="st6 st4 st5">s</text> <text transform="matrix(1 0 0 1 320.0735 58.4073)" class="st6 st4 st5">c</text> <text transform="matrix(1 0 0 1 326.5735 58.4073)" class="st6 st4 st5">h</text> <text transform="matrix(1 0 0 1 334.2825 58.4073)" class="st6 st4 st5">a</text> <text transform="matrix(1 0 0 1 341.4845 58.4073)" class="st6 st4 st5">f</text> <text transform="matrix(1 0 0 1 346.1905 58.4073)" class="st6 st4 st5">t</text> </g> <g id="Layer-1_18_"> <text transform="matrix(1 0 0 1 256.1264 74.0072)" class="st6 st4 st5">(</text> <text transform="matrix(1 0 0 1 260.7544 74.0072)" class="st6 st4 st5">F</text> <text transform="matrix(1 0 0 1 268.2944 74.0072)" class="st6 st4 st5">a</text> <text transform="matrix(1 0 0 1 275.4964 74.0072)" class="st6 st4 st5">c</text> <text transform="matrix(1 0 0 1 281.9964 74.0072)" class="st6 st4 st5">h</text> <text transform="matrix(1 0 0 1 289.7054 74.0072)" class="st6 st4 st5">h</text> <text transform="matrix(1 0 0 1 297.4144 74.0072)" class="st6 st4 st5">o</text> <text transform="matrix(1 0 0 1 304.7334 74.0072)" class="st6 st4 st5">c</text> <text transform="matrix(1 0 0 1 311.2334 74.0072)" class="st6 st4 st5">h</text> <text transform="matrix(1 0 0 1 318.9424 74.0072)" class="st6 st4 st5">s</text> <text transform="matrix(1 0 0 1 325.7154 74.0072)" class="st6 st4 st5">c</text> <text transform="matrix(1 0 0 1 332.2154 74.0072)" class="st6 st4 st5">h</text> <text transform="matrix(1 0 0 1 339.9244 74.0072)" class="st6 st4 st5">u</text> <text transform="matrix(1 0 0 1 347.6335 74.0072)" class="st6 st4 st5">l</text> <text transform="matrix(1 0 0 1 351.9885 74.0072)" class="st6 st4 st5">e</text> <text transform="matrix(1 0 0 1 359.3725 74.0072)" class="st6 st4 st5">)</text> </g> <g id="Layer-1_19_"> <text transform="matrix(1 0 0 1 246.7149 89.6072)" class="st3 st4 st5">U</text> <text transform="matrix(1 0 0 1 255.6589 89.6072)" class="st3 st4 st5">n</text> <text transform="matrix(1 0 0 1 263.3679 89.6072)" class="st3 st4 st5">i</text> <text transform="matrix(1 0 0 1 267.2029 89.6072)" class="st3 st4 st5">v</text> <text transform="matrix(1 0 0 1 273.7419 89.6072)" class="st3 st4 st5">e</text> <text transform="matrix(1 0 0 1 281.1259 89.6072)" class="st3 st4 st5">r</text> <text transform="matrix(1 0 0 1 287.1696 89.6072)" class="st3 st4 st5">s</text> <text transform="matrix(1 0 0 1 293.9426 89.6072)" class="st3 st4 st5">i</text> <text transform="matrix(1 0 0 1 297.7776 89.6072)" class="st3 st4 st5">t</text> <text transform="matrix(1 0 0 1 302.6136 89.6072)" class="st3 st4 st5">y</text> <text transform="matrix(1 0 0 1 309.2956 89.6072)" class="st3 st4 st5"> </text> <text transform="matrix(1 0 0 1 312.5716 89.6072)" class="st3 st4 st5">o</text> <text transform="matrix(1 0 0 1 319.8906 89.6072)" class="st3 st4 st5">f</text> <text transform="matrix(1 0 0 1 324.5966 89.6072)" class="st3 st4 st5"> </text> <text transform="matrix(1 0 0 1 327.8726 89.6072)" class="st3 st4 st5">a</text> <text transform="matrix(1 0 0 1 335.0746 89.6072)" class="st3 st4 st5">p</text> <text transform="matrix(1 0 0 1 342.6146 89.6072)" class="st3 st4 st5">p</text> <text transform="matrix(1 0 0 1 350.1546 89.6072)" class="st3 st4 st5">l</text> <text transform="matrix(1 0 0 1 354.6396 89.6072)" class="st3 st4 st5">i</text> <text transform="matrix(1 0 0 1 358.4746 89.6072)" class="st3 st4 st5">e</text> <text transform="matrix(1 0 0 1 365.8586 89.6072)" class="st3 st4 st5">d</text> <text transform="matrix(1 0 0 1 373.1516 89.6072)" class="st3 st4 st5"> </text> </g> <g id="Layer-1_20_"> <text transform="matrix(1 0 0 1 283.732 105.2073)" class="st3 st4 st5">s</text> <text transform="matrix(1 0 0 1 290.505 105.2073)" class="st3 st4 st5">c</text> <text transform="matrix(1 0 0 1 297.005 105.2073)" class="st3 st4 st5">i</text> <text transform="matrix(1 0 0 1 300.84 105.2073)" class="st3 st4 st5">e</text> <text transform="matrix(1 0 0 1 308.224 105.2073)" class="st3 st4 st5">n</text> <text transform="matrix(1 0 0 1 315.933 105.2073)" class="st3 st4 st5">c</text> <text transform="matrix(1 0 0 1 322.2367 105.2073)" class="st3 st4 st5">e</text> <text transform="matrix(1 0 0 1 329.6207 105.2073)" class="st3 st4 st5">s</text> </g> <g id="Layer-1_21_"> <text transform="matrix(1 0 0 1 84.2797 42.6254)" class="st6 st4 st5">U</text> <text transform="matrix(1 0 0 1 93.2237 42.6254)" class="st6 st4 st5">n</text> <text transform="matrix(1 0 0 1 100.9327 42.6254)" class="st6 st4 st5">i</text> <text transform="matrix(1 0 0 1 104.7677 42.6254)" class="st6 st4 st5">v</text> <text transform="matrix(1 0 0 1 111.3067 42.6254)" class="st6 st4 st5">e</text> <text transform="matrix(1 0 0 1 118.6907 42.6254)" class="st6 st4 st5">r</text> <text transform="matrix(1 0 0 1 124.7344 42.6254)" class="st6 st4 st5">s</text> <text transform="matrix(1 0 0 1 131.5074 42.6254)" class="st6 st4 st5">i</text> <text transform="matrix(1 0 0 1 135.3424 42.6254)" class="st6 st4 st5">t</text> <text transform="matrix(1 0 0 1 140.1134 42.6254)" class="st6 st4 st5">ä</text> <text transform="matrix(1 0 0 1 147.3154 42.6254)" class="st6 st4 st5">t</text> </g> <g id="Layer-1_22_"> <text transform="matrix(1 0 0 1 86.4252 58.2254)" class="st3 st4 st5">U</text> <text transform="matrix(1 0 0 1 95.3692 58.2254)" class="st3 st4 st5">n</text> <text transform="matrix(1 0 0 1 103.0782 58.2254)" class="st3 st4 st5">i</text> <text transform="matrix(1 0 0 1 106.9132 58.2254)" class="st3 st4 st5">v</text> <text transform="matrix(1 0 0 1 113.4522 58.2254)" class="st3 st4 st5">e</text> <text transform="matrix(1 0 0 1 120.8362 58.2254)" class="st3 st4 st5">r</text> <text transform="matrix(1 0 0 1 126.8799 58.2254)" class="st3 st4 st5">s</text> <text transform="matrix(1 0 0 1 133.6529 58.2254)" class="st3 st4 st5">i</text> <text transform="matrix(1 0 0 1 137.4879 58.2254)" class="st3 st4 st5">t</text> <text transform="matrix(1 0 0 1 142.3239 58.2254)" class="st3 st4 st5">y</text> </g> <g id="Layer-1_23_"> <path class="st2" d="M398.6,127.4H215V6h183.6V127.4z"></path> </g> <g id="Layer-1_24_"> <path class="st2" d="M207.3,92H30.4V6h176.9V92z"></path> </g> <g id="Layer-1_30_"> <path class="st3" d="M389.5,283.5h4.7l-2.3-2.3L389.5,283.5z"></path> </g> <g id="Layer-1_31_"> <path class="st3" d="M389.5,311.5h4.7l-2.3-2.3L389.5,311.5z"></path> </g> <g id="Layer-1_32_"> <path class="st3" d="M389.5,339.5h4.7l-2.3-2.3L389.5,339.5z"></path> </g> <g id="Layer-1_33_"> <path class="st3" d="M389.5,367.5h4.7l-2.3-2.3L389.5,367.5z"></path> </g> <g id="Layer-1_34_"> <path class="st3" d="M389.5,395.4h4.7l-2.3-2.3L389.5,395.4z"></path> </g> <g id="Layer-1_35_"> <path class="st3" d="M389.5,297.5h4.7l-2.3-2.3L389.5,297.5z"></path> </g> <g id="Layer-1_36_"> <path class="st3" d="M389.5,325.5h4.7l-2.3-2.3L389.5,325.5z"></path> </g> <g id="Layer-1_37_"> <path class="st3" d="M389.5,353.5h4.7l-2.3-2.3L389.5,353.5z"></path> </g> <g id="Layer-1_38_"> <path class="st3" d="M389.5,381.5h4.7l-2.3-2.3L389.5,381.5z"></path> </g> <g id="Layer-1_39_"> <path class="st3" d="M389.5,288.2h4.7l-2.3-2.3L389.5,288.2z"></path> </g> <g id="Layer-1_40_"> <path class="st3" d="M389.5,316.2h4.7l-2.3-2.3L389.5,316.2z"></path> </g> <g id="Layer-1_41_"> <path class="st3" d="M389.5,344.1h4.7l-2.3-2.3L389.5,344.1z"></path> </g> <g id="Layer-1_42_"> <path class="st3" d="M389.5,372.1h4.7l-2.3-2.3L389.5,372.1z"></path> </g> <g id="Layer-1_43_"> <path class="st3" d="M389.5,400.1h4.7l-2.3-2.3L389.5,400.1z"></path> </g> <g id="Layer-1_44_"> <path class="st3" d="M389.5,302.2h4.7l-2.3-2.3L389.5,302.2z"></path> </g> <g id="Layer-1_45_"> <path class="st3" d="M389.5,330.1h4.7l-2.3-2.3L389.5,330.1z"></path> </g> <g id="Layer-1_46_"> <path class="st3" d="M389.5,358.1h4.7l-2.3-2.3L389.5,358.1z"></path> </g> <g id="Layer-1_47_"> <path class="st3" d="M389.5,386.1h4.7l-2.3-2.3L389.5,386.1z"></path> </g> <g id="Layer-1_48_"> <path class="st3" d="M389.5,292.8h4.7l-2.3-2.3L389.5,292.8z"></path> </g> <g id="Layer-1_49_"> <path class="st3" d="M389.5,320.8h4.7l-2.3-2.3L389.5,320.8z"></path> </g> <g id="Layer-1_50_"> <path class="st3" d="M389.5,348.8h4.7l-2.3-2.3L389.5,348.8z"></path> </g> <g id="Layer-1_51_"> <path class="st3" d="M389.5,376.8h4.7l-2.3-2.3L389.5,376.8z"></path> </g> <g id="Layer-1_52_"> <path class="st3" d="M389.5,404.8h4.7l-2.3-2.3L389.5,404.8z"></path> </g> <g id="Layer-1_53_"> <path class="st3" d="M389.5,269.5h4.7l-2.3-2.3L389.5,269.5z"></path> <path class="st3" d="M389.5,260.2h4.7l-2.3-2.3L389.5,260.2z"></path> <path class="st3" d="M389.5,274.2h4.7l-2.3-2.3L389.5,274.2z"></path> <path class="st3" d="M389.5,264.8h4.7l-2.3-2.3L389.5,264.8z"></path> </g> <g id="Layer-1_54_"> <path class="st3" d="M389.5,278.8h4.7l-2.3-2.3L389.5,278.8z"></path> </g> <g id="Layer-1_55_"> <path class="st3" d="M389.5,306.8h4.7l-2.3-2.3L389.5,306.8z"></path> </g> <g id="Layer-1_56_"> <path class="st3" d="M389.5,334.8h4.7l-2.3-2.3L389.5,334.8z"></path> </g> <g id="Layer-1_57_"> <path class="st3" d="M389.5,362.8h4.7l-2.3-2.3L389.5,362.8z"></path> </g> <g id="Layer-1_58_"> <path class="st3" d="M389.5,390.8h4.7l-2.3-2.3L389.5,390.8z"></path> </g> <g id="Layer-1_59_"> <path class="st3" d="M352.3,283.5h4.7l-2.3-2.3L352.3,283.5z"></path> </g> <g id="Layer-1_60_"> <path class="st3" d="M352.3,311.5h4.7l-2.3-2.3L352.3,311.5z"></path> </g> <g id="Layer-1_61_"> <path class="st3" d="M352.3,297.5h4.7l-2.3-2.3L352.3,297.5z"></path> </g> <g id="Layer-1_62_"> <path class="st3" d="M352.3,325.5h4.7l-2.3-2.3L352.3,325.5z"></path> </g> <g id="Layer-1_63_"> <path class="st3" d="M352.3,288.2h4.7l-2.3-2.3L352.3,288.2z"></path> </g> <g id="Layer-1_64_"> <path class="st3" d="M352.3,316.2h4.7l-2.3-2.3L352.3,316.2z"></path> </g> <g id="Layer-1_65_"> <path class="st3" d="M352.3,302.2h4.7l-2.3-2.3L352.3,302.2z"></path> </g> <g id="Layer-1_66_"> <path class="st3" d="M352.3,330.1h4.7l-2.3-2.3L352.3,330.1z"></path> </g> <g id="Layer-1_67_"> <path class="st3" d="M352.3,292.8h4.7l-2.3-2.3L352.3,292.8z"></path> </g> <g id="Layer-1_68_"> <path class="st3" d="M352.3,320.8h4.7l-2.3-2.3L352.3,320.8z"></path> </g> <g id="Layer-1_69_"> <path class="st3" d="M352.3,269.5h4.7l-2.3-2.3L352.3,269.5z"></path> <path class="st3" d="M352.3,260.2h4.7l-2.3-2.3L352.3,260.2z"></path> <path class="st3" d="M352.3,274.2h4.7l-2.3-2.3L352.3,274.2z"></path> <path class="st3" d="M352.3,264.8h4.7l-2.3-2.3L352.3,264.8z"></path> </g> <g id="Layer-1_70_"> <path class="st3" d="M352.3,278.8h4.7l-2.3-2.3L352.3,278.8z"></path> </g> <g id="Layer-1_71_"> <path class="st3" d="M352.3,306.8h4.7l-2.3-2.3L352.3,306.8z"></path> </g> <g id="Layer-1_72_"> <path class="st3" d="M352.3,334.8h4.7l-2.3-2.3L352.3,334.8z"></path> </g> <g id="Layer-1_73_"> <path class="st3" d="M197.5,260.2h4.7l-2.3-2.3L197.5,260.2z"></path> <path class="st3" d="M197.5,264.8h4.7l-2.3-2.3L197.5,264.8z"></path> </g> <g id="Layer-1_74_"> <path class="st3" d="M389.5,138.9h4.7l-2.3-2.3L389.5,138.9z"></path> <path class="st3" d="M389.5,166.9h4.7l-2.3-2.3L389.5,166.9z"></path> <path class="st3" d="M389.5,194.9h4.7l-2.3-2.3L389.5,194.9z"></path> <path class="st3" d="M389.5,222.9h4.7l-2.3-2.3L389.5,222.9z"></path> <path class="st3" d="M389.5,250.9h4.7l-2.3-2.3L389.5,250.9z"></path> <path class="st3" d="M389.5,152.9h4.7l-2.3-2.3L389.5,152.9z"></path> <path class="st3" d="M389.5,180.9h4.7l-2.3-2.3L389.5,180.9z"></path> <path class="st3" d="M389.5,208.9h4.7l-2.3-2.3L389.5,208.9z"></path> <path class="st3" d="M389.5,236.9h4.7l-2.3-2.3L389.5,236.9z"></path> <path class="st3" d="M389.5,143.6h4.7l-2.3-2.3L389.5,143.6z"></path> <path class="st3" d="M389.5,171.6h4.7l-2.3-2.3L389.5,171.6z"></path> <path class="st3" d="M389.5,199.6h4.7l-2.3-2.3L389.5,199.6z"></path> <path class="st3" d="M389.5,227.5h4.7l-2.3-2.3L389.5,227.5z"></path> <path class="st3" d="M389.5,255.5h4.7l-2.3-2.3L389.5,255.5z"></path> <path class="st3" d="M389.5,157.6h4.7l-2.3-2.3L389.5,157.6z"></path> <path class="st3" d="M389.5,185.6h4.7l-2.3-2.3L389.5,185.6z"></path> <path class="st3" d="M389.5,213.6h4.7l-2.3-2.3L389.5,213.6z"></path> <path class="st3" d="M389.5,241.5h4.7l-2.3-2.3L389.5,241.5z"></path> <path class="st3" d="M389.5,148.3h4.7l-2.3-2.3L389.5,148.3z"></path> <path class="st3" d="M389.5,176.2h4.7l-2.3-2.3L389.5,176.2z"></path> <path class="st3" d="M389.5,204.2h4.7l-2.3-2.3L389.5,204.2z"></path> <path class="st3" d="M389.5,232.2h4.7l-2.3-2.3L389.5,232.2z"></path> <path class="st3" d="M389.5,134.3h4.7l-2.3-2.3L389.5,134.3z"></path> <path class="st3" d="M389.5,162.2h4.7l-2.3-2.3L389.5,162.2z"></path> <path class="st3" d="M389.5,190.2h4.7l-2.3-2.3L389.5,190.2z"></path> <path class="st3" d="M389.5,218.2h4.7l-2.3-2.3L389.5,218.2z"></path> <path class="st3" d="M389.5,246.2h4.7l-2.3-2.3L389.5,246.2z"></path> </g> <g id="Layer-1_75_"> <path class="st3" d="M352.3,138.9h4.7l-2.3-2.3L352.3,138.9z"></path> <path class="st3" d="M352.3,166.9h4.7l-2.3-2.3L352.3,166.9z"></path> <path class="st3" d="M352.3,194.9h4.7l-2.3-2.3L352.3,194.9z"></path> <path class="st3" d="M352.3,222.9h4.7l-2.3-2.3L352.3,222.9z"></path> <path class="st3" d="M352.3,250.9h4.7l-2.3-2.3L352.3,250.9z"></path> <path class="st3" d="M352.3,152.9h4.7l-2.3-2.3L352.3,152.9z"></path> <path class="st3" d="M352.3,180.9h4.7l-2.3-2.3L352.3,180.9z"></path> <path class="st3" d="M352.3,208.9h4.7l-2.3-2.3L352.3,208.9z"></path> <path class="st3" d="M352.3,236.9h4.7l-2.3-2.3L352.3,236.9z"></path> <path class="st3" d="M352.3,143.6h4.7l-2.3-2.3L352.3,143.6z"></path> <path class="st3" d="M352.3,171.6h4.7l-2.3-2.3L352.3,171.6z"></path> <path class="st3" d="M352.3,199.6h4.7l-2.3-2.3L352.3,199.6z"></path> <path class="st3" d="M352.3,227.5h4.7l-2.3-2.3L352.3,227.5z"></path> <path class="st3" d="M352.3,255.5h4.7l-2.3-2.3L352.3,255.5z"></path> <path class="st3" d="M352.3,157.6h4.7l-2.3-2.3L352.3,157.6z"></path> <path class="st3" d="M352.3,185.6h4.7l-2.3-2.3L352.3,185.6z"></path> <path class="st3" d="M352.3,213.6h4.7l-2.3-2.3L352.3,213.6z"></path> <path class="st3" d="M352.3,241.5h4.7l-2.3-2.3L352.3,241.5z"></path> <path class="st3" d="M352.3,148.3h4.7l-2.3-2.3L352.3,148.3z"></path> <path class="st3" d="M352.3,176.2h4.7l-2.3-2.3L352.3,176.2z"></path> <path class="st3" d="M352.3,204.2h4.7l-2.3-2.3L352.3,204.2z"></path> <path class="st3" d="M352.3,232.2h4.7l-2.3-2.3L352.3,232.2z"></path> <path class="st3" d="M352.3,134.3h4.7l-2.3-2.3L352.3,134.3z"></path> <path class="st3" d="M352.3,162.2h4.7l-2.3-2.3L352.3,162.2z"></path> <path class="st3" d="M352.3,190.2h4.7l-2.3-2.3L352.3,190.2z"></path> <path class="st3" d="M352.3,218.2h4.7l-2.3-2.3L352.3,218.2z"></path> <path class="st3" d="M352.3,246.2h4.7l-2.3-2.3L352.3,246.2z"></path> </g> <g id="Layer-1_76_"> <path class="st3" d="M197.5,138.9h4.7l-2.3-2.3L197.5,138.9z"></path> </g> <g id="Layer-1_77_"> <path class="st3" d="M197.5,166.9h4.7l-2.3-2.3L197.5,166.9z"></path> </g> <g id="Layer-1_78_"> <path class="st3" d="M197.5,194.9h4.7l-2.3-2.3L197.5,194.9z"></path> </g> <g id="Layer-1_79_"> <path class="st3" d="M197.5,222.9h4.7l-2.3-2.3L197.5,222.9z"></path> </g> <g id="Layer-1_80_"> <path class="st3" d="M197.5,250.9h4.7l-2.3-2.3L197.5,250.9z"></path> </g> <g id="Layer-1_81_"> <path class="st3" d="M197.5,152.9h4.7l-2.3-2.3L197.5,152.9z"></path> </g> <g id="Layer-1_82_"> <path class="st3" d="M197.5,180.9h4.7l-2.3-2.3L197.5,180.9z"></path> </g> <g id="Layer-1_83_"> <path class="st3" d="M197.5,208.9h4.7l-2.3-2.3L197.5,208.9z"></path> </g> <g id="Layer-1_84_"> <path class="st3" d="M197.5,236.9h4.7l-2.3-2.3L197.5,236.9z"></path> </g> <g id="Layer-1_85_"> <path class="st3" d="M197.5,143.6h4.7l-2.3-2.3L197.5,143.6z"></path> </g> <g id="Layer-1_86_"> <path class="st3" d="M197.5,171.6h4.7l-2.3-2.3L197.5,171.6z"></path> </g> <g id="Layer-1_87_"> <path class="st3" d="M197.5,199.6h4.7l-2.3-2.3L197.5,199.6z"></path> </g> <g id="Layer-1_88_"> <path class="st3" d="M197.5,227.5h4.7l-2.3-2.3L197.5,227.5z"></path> </g> <g id="Layer-1_89_"> <path class="st3" d="M197.5,255.5h4.7l-2.3-2.3L197.5,255.5z"></path> </g> <g id="Layer-1_90_"> <path class="st3" d="M197.5,157.6h4.7l-2.3-2.3L197.5,157.6z"></path> </g> <g id="Layer-1_91_"> <path class="st3" d="M197.5,185.6h4.7l-2.3-2.3L197.5,185.6z"></path> </g> <g id="Layer-1_92_"> <path class="st3" d="M197.5,213.6h4.7l-2.3-2.3L197.5,213.6z"></path> </g> <g id="Layer-1_93_"> <path class="st3" d="M197.5,241.5h4.7l-2.3-2.3L197.5,241.5z"></path> </g> <g id="Layer-1_94_"> <path class="st3" d="M197.5,148.3h4.7l-2.3-2.3L197.5,148.3z"></path> </g> <g id="Layer-1_95_"> <path class="st3" d="M197.5,176.2h4.7l-2.3-2.3L197.5,176.2z"></path> </g> <g id="Layer-1_96_"> <path class="st3" d="M197.5,204.2h4.7l-2.3-2.3L197.5,204.2z"></path> </g> <g id="Layer-1_97_"> <path class="st3" d="M197.5,232.2h4.7l-2.3-2.3L197.5,232.2z"></path> </g> <g id="Layer-1_98_"> <path class="st3" d="M197.5,124.9h4.7l-2.3-2.3L197.5,124.9z"></path> <path class="st3" d="M197.5,115.6h4.7l-2.3-2.3L197.5,115.6z"></path> <path class="st3" d="M197.5,129.6h4.7l-2.3-2.3L197.5,129.6z"></path> <path class="st3" d="M197.5,120.3h4.7l-2.3-2.3L197.5,120.3z"></path> </g> <g id="Layer-1_99_"> <path class="st3" d="M197.5,134.3h4.7l-2.3-2.3L197.5,134.3z"></path> </g> <g id="Layer-1_100_"> <path class="st3" d="M197.5,162.2h4.7l-2.3-2.3L197.5,162.2z"></path> </g> <g id="Layer-1_101_"> <path class="st3" d="M197.5,190.2h4.7l-2.3-2.3L197.5,190.2z"></path> </g> <g id="Layer-1_102_"> <path class="st3" d="M197.5,218.2h4.7l-2.3-2.3L197.5,218.2z"></path> </g> <g id="Layer-1_103_"> <path class="st3" d="M197.5,246.2h4.7l-2.3-2.3L197.5,246.2z"></path> </g> <g id="Layer-1_104_"> <path class="st3" d="M231.7,165.4v-4.7l-2.3,2.3L231.7,165.4z"></path> </g> <g id="Layer-1_105_"> <path class="st3" d="M259.7,165.4v-4.7l-2.3,2.3L259.7,165.4z"></path> </g> <g id="Layer-1_106_"> <path class="st3" d="M287.7,165.4v-4.7l-2.3,2.3L287.7,165.4z"></path> </g> <g id="Layer-1_107_"> <path class="st3" d="M315.7,165.4v-4.7l-2.3,2.3L315.7,165.4z"></path> </g> <g id="Layer-1_108_"> <path class="st3" d="M343.6,165.4v-4.7l-2.3,2.3L343.6,165.4z"></path> </g> <g id="Layer-1_109_"> <path class="st3" d="M245.7,165.4v-4.7l-2.3,2.3L245.7,165.4z"></path> </g> <g id="Layer-1_110_"> <path class="st3" d="M273.7,165.4v-4.7l-2.3,2.3L273.7,165.4z"></path> </g> <g id="Layer-1_111_"> <path class="st3" d="M301.7,165.4v-4.7l-2.3,2.3L301.7,165.4z"></path> </g> <g id="Layer-1_112_"> <path class="st3" d="M329.6,165.4v-4.7l-2.3,2.3L329.6,165.4z"></path> </g> <g id="Layer-1_113_"> <path class="st3" d="M236.4,165.4v-4.7l-2.3,2.3L236.4,165.4z"></path> </g> <g id="Layer-1_114_"> <path class="st3" d="M264.3,165.4v-4.7l-2.3,2.3L264.3,165.4z"></path> </g> <g id="Layer-1_115_"> <path class="st3" d="M292.3,165.4v-4.7l-2.3,2.3L292.3,165.4z"></path> </g> <g id="Layer-1_116_"> <path class="st3" d="M320.3,165.4v-4.7l-2.3,2.3L320.3,165.4z"></path> </g> <g id="Layer-1_117_"> <path class="st3" d="M348.3,165.4v-4.7l-2.3,2.3L348.3,165.4z"></path> </g> <g id="Layer-1_118_"> <path class="st3" d="M250.4,165.4v-4.7l-2.3,2.3L250.4,165.4z"></path> </g> <g id="Layer-1_119_"> <path class="st3" d="M278.3,165.4v-4.7l-2.3,2.3L278.3,165.4z"></path> </g> <g id="Layer-1_120_"> <path class="st3" d="M306.3,165.4v-4.7l-2.3,2.3L306.3,165.4z"></path> </g> <g id="Layer-1_121_"> <path class="st3" d="M334.3,165.4v-4.7l-2.3,2.3L334.3,165.4z"></path> </g> <g id="Layer-1_122_"> <path class="st3" d="M241,165.4v-4.7l-2.3,2.3L241,165.4z"></path> </g> <g id="Layer-1_123_"> <path class="st3" d="M269,165.4v-4.7l-2.3,2.3L269,165.4z"></path> </g> <g id="Layer-1_124_"> <path class="st3" d="M297,165.4v-4.7l-2.3,2.3L297,165.4z"></path> </g> <g id="Layer-1_125_"> <path class="st3" d="M325,165.4v-4.7l-2.3,2.3L325,165.4z"></path> </g> <g id="Layer-1_126_"> <path class="st3" d="M217.7,165.4v-4.7l-2.3,2.3L217.7,165.4z"></path> <path class="st3" d="M208.4,165.4v-4.7l-2.3,2.3L208.4,165.4z"></path> <path class="st3" d="M222.4,165.4v-4.7l-2.3,2.3L222.4,165.4z"></path> <path class="st3" d="M213,165.4v-4.7l-2.3,2.3L213,165.4z"></path> </g> <g id="Layer-1_127_"> <path class="st3" d="M227,165.4v-4.7l-2.3,2.3L227,165.4z"></path> </g> <g id="Layer-1_128_"> <path class="st3" d="M255,165.4v-4.7l-2.3,2.3L255,165.4z"></path> </g> <g id="Layer-1_129_"> <path class="st3" d="M283,165.4v-4.7l-2.3,2.3L283,165.4z"></path> </g> <g id="Layer-1_130_"> <path class="st3" d="M311,165.4v-4.7l-2.3,2.3L311,165.4z"></path> </g> <g id="Layer-1_131_"> <path class="st3" d="M339,165.4v-4.7l-2.3,2.3L339,165.4z"></path> </g> <g id="Layer-1_132_"> <path class="st3" d="M331.3,278.8v4.7l2.3-2.3L331.3,278.8z"></path> <path class="st3" d="M345.2,278.8v4.7l2.3-2.3L345.2,278.8z"></path> <path class="st3" d="M340.6,278.8v4.7l2.3-2.3L340.6,278.8z"></path> <path class="st3" d="M335.9,278.8v4.7l2.3-2.3L335.9,278.8z"></path> </g> <g id="Layer-1_133_"> <path class="st3" d="M197.5,111h4.7l-2.3-2.3L197.5,111z"></path> <path class="st3" d="M197.5,97h4.7l-2.3-2.3L197.5,97z"></path> <path class="st3" d="M197.5,101.7h4.7l-2.3-2.3L197.5,101.7z"></path> <path class="st3" d="M197.5,106.3h4.7l-2.3-2.3L197.5,106.3z"></path> </g> </svg> 