<?xml version="1.0" encoding="UTF-8"?><svg id="a" xmlns="http://www.w3.org/2000/svg" xmlns:xlink="http://www.w3.org/1999/xlink" viewBox="0 0 436.32 512"><defs><style>.e{fill:none;}.f{fill:#fff;}.g{fill:#87ccc8;}.h{fill:#2b2961;}.i{clip-path:url(#c);}.j{clip-path:url(#b);}.k{clip-path:url(#d);}</style><clipPath id="b"><rect class="e" x="-3.96" width="444.24" height="512"/></clipPath><clipPath id="c"><rect class="e" x="-3.96" width="444.24" height="512"/></clipPath><clipPath id="d"><rect class="e" x="-3.96" width="444.24" height="512"/></clipPath></defs><rect class="g" x="19.88" y="225.28" width="37.55" height="157.6"/><rect class="g" x="19.88" y="44.06" width="37.55" height="63.88"/><rect class="g" x="19.88" y="191.99" width="394.96" height="37.55"/><path class="h" d="M238.79,136.99h-4.99l-4.92,15.98-4.92-15.98h-4.96l8.09,24.52h3.58l8.13-24.52Zm-27.28,16.15h-6.1l3.1-8.92,3,8.92Zm7.71,8.36l-8.95-24.52h-3.75l-8.92,24.52h4.99l1.48-4.34h8.71l1.45,4.34h4.99Z"/><g class="j"><path class="f" d="M319.94,212.85h-5.27l2.67-7.53,2.6,7.53Zm4.58,5.6l-6.2-16.97h-2.07l-6.22,16.97h2.72l1.19-3.41h6.7l1.19,3.41h2.69Zm-18.55,0v-16.97h-2.6v7.27h-6.87v-7.27h-2.57v16.97h2.57v-7.42h6.87v7.42h2.6Zm-18.14,0v-16.97h-2.36l-7.58,12.3v-12.3h-2.57v16.97h2.33l7.61-12.32v12.32h2.57Zm-28.99-16.97v5c0,4.03-.6,7.37-2.07,9.66h-1.48v6.13h2.5v-3.81h10.3v3.81h2.53v-6.13h-2v-14.66h-9.77Zm2.48,2.31h4.72v12.35h-6.39c1.26-2.38,1.67-5.32,1.67-8.56v-3.79Zm-11.97,6.01c0,2.88,0,4.39-1,5.44-.64,.69-1.53,1.05-2.53,1.05s-1.84-.36-2.53-1.05c-.91-.91-.98-2.5-.98-4.24v-1.45c0-2.17,.02-3.84,.98-4.84,.67-.69,1.58-1.05,2.53-1.05s1.86,.36,2.53,1.05c.95,1,1,2.53,1,5.11m2.6-1.03c0-2.41-.33-4.29-1.64-5.63-1.17-1.17-2.72-1.81-4.48-1.81s-3.29,.64-4.46,1.81c-1.43,1.43-1.65,3.24-1.65,6.03v1.12c0,2.53,.02,4.84,1.65,6.49,1.17,1.19,2.69,1.81,4.46,1.81s3.31-.62,4.48-1.81c1.62-1.67,1.64-3.79,1.64-6.58v-1.43Zm-15.47-4.98v-2.31h-10.44v16.97h2.57v-14.66h7.87Zm-21.77-4.07h-2.34l-6.8,20.5h2.34l6.8-20.5Zm-22.43,6.75c0,1.67-1.17,2.65-2.89,2.65h-3.81v-5.32h3.81c1.72,0,2.89,1,2.89,2.67m3.1,11.99l-3.91-7.51c1.9-.52,3.38-2.07,3.38-4.5,0-2.89-2.05-4.96-5.27-4.96h-6.58v16.97h2.57v-7.15h3.22l3.58,7.15h3Zm-18.72,0v-16.97h-2.57v7.25h-6.89v-7.25h-2.57v16.97h2.57v-7.42h6.89v7.42h2.57Zm-20.98-5.6h-5.22l2.65-7.53,2.58,7.53Zm4.63,5.6l-6.22-16.97h-2.07l-6.22,16.97h2.74l1.17-3.41h6.7l1.17,3.41h2.74Zm-18.36-5.36v-11.61h-2.57v11.42c0,2.22-1.17,3.39-3.08,3.39-1.24,0-1.81-.43-2.41-1.03l-1.72,1.69c1.17,1.17,2.38,1.64,4.12,1.64,3.12,0,5.65-1.98,5.65-5.51m-23.51,5.36v-16.97h-2.43l-3.31,2.86v2.69l3.31-2.91v14.33h2.43Z"/></g><rect class="g" x="20.68" y=".79" width="392.05" height="55.1"/><g class="i"><path class="h" d="M413.52,56.69H19.88V0H413.52V56.69Zm-392.05-1.59H411.93V1.59H21.47V55.1Z"/><path class="f" d="M388.39,32.7c0-3.03-1.79-4.92-5.34-5.27l-2.82-.28c-1.58-.14-1.86-.9-1.86-1.55,0-.9,.76-1.72,2.55-1.72,1.55,0,3.13,.28,4.17,1.21l2.76-2.79c-1.72-1.62-4.06-2.1-6.85-2.1-3.65,0-6.92,1.99-6.92,5.71,0,3.31,2,4.72,5.23,5.03l2.82,.28c1.41,.14,1.89,.76,1.89,1.65,0,1.35-1.62,1.86-3.17,1.86-1.38,0-3.31-.21-4.79-1.69l-2.93,2.93c2.27,2.27,4.82,2.58,7.65,2.58,4.24,0,7.61-1.89,7.61-5.85m-17.74,0c0-3.03-1.79-4.92-5.34-5.27l-2.82-.28c-1.58-.14-1.86-.9-1.86-1.55,0-.9,.76-1.72,2.55-1.72,1.55,0,3.13,.28,4.17,1.21l2.76-2.79c-1.72-1.62-4.06-2.1-6.85-2.1-3.65,0-6.92,1.99-6.92,5.71,0,3.31,2,4.72,5.23,5.03l2.82,.28c1.41,.14,1.89,.76,1.89,1.65,0,1.35-1.62,1.86-3.17,1.86-1.38,0-3.31-.21-4.79-1.69l-2.93,2.93c2.27,2.27,4.82,2.58,7.65,2.58,4.24,0,7.61-1.89,7.61-5.85m-19.22,5.65V20.41h-4.47v10.85c0,2.45-1.58,3.27-3,3.27s-2.96-.83-2.96-3.27v-10.85h-4.47v11.47c0,1.96,.38,3.65,1.83,5.09,1,1,2.44,1.58,4.23,1.58,1.66,0,3.31-.62,4.48-1.86v1.65h4.37Zm-18.98,0v-3.78h-1.72c-1.14,0-1.58-.55-1.58-1.62V13.83h-4.47v19.39c0,2.55,1.55,5.13,5.23,5.13h2.55Zm-13.12,0v-11.61c0-3.79-2.06-6.54-5.99-6.54-1.58,0-3.1,.62-4.31,1.86V13.83h-4.47v24.52h4.47v-10.95c0-2.34,1.48-3.17,2.9-3.17s2.93,.79,2.93,3.17v10.95h4.47Zm-18.94-2.24l-3.03-3c-.93,1-1.72,1.41-2.89,1.41-1.07,0-1.89-.38-2.55-1.17-.69-.86-1-2.1-1-4s.31-3.1,1-3.96c.65-.79,1.48-1.17,2.55-1.17,1.17,0,1.96,.41,2.89,1.41l3.03-3.03c-1.58-1.65-3.44-2.41-5.92-2.41-3.58,0-8.02,1.89-8.02,9.16s4.44,9.19,8.02,9.19c2.48,0,4.34-.79,5.92-2.44m-17.49-3.41c0-3.03-1.79-4.92-5.34-5.27l-2.82-.28c-1.58-.14-1.86-.9-1.86-1.55,0-.9,.76-1.72,2.55-1.72,1.55,0,3.13,.28,4.17,1.21l2.76-2.79c-1.72-1.62-4.06-2.1-6.85-2.1-3.65,0-6.92,1.99-6.92,5.71,0,3.31,2,4.72,5.23,5.03l2.82,.28c1.41,.14,1.89,.76,1.89,1.65,0,1.35-1.62,1.86-3.17,1.86-1.38,0-3.31-.21-4.79-1.69l-2.93,2.93c2.27,2.27,4.82,2.58,7.65,2.58,4.24,0,7.61-1.89,7.61-5.85m-22.93-3.34c0,2.93-.34,5.17-3.03,5.17s-3.03-2.24-3.03-5.17,.34-5.13,3.03-5.13,3.03,2.2,3.03,5.13m4.47,0c0-2.69-.03-5.75-1.82-7.54-1-1-2.61-1.62-4.37-1.62s-3.17,.48-4.34,1.79V13.83h-4.47v24.52h4.33v-1.68c1.24,1.37,2.59,1.89,4.48,1.89,1.76,0,3.38-.62,4.37-1.62,1.79-1.79,1.82-4.89,1.82-7.58m-25,2.37c0,1.1-.17,1.83-.65,2.28-.79,.76-1.59,.86-2.83,.86-1.76,0-2.59-.83-2.59-2.07s.9-2.03,2.52-2.03h3.55v.96Zm4.47,6.61v-11.81c0-4.2-2.61-6.33-7.64-6.33-3,0-4.72,.55-6.47,2.48l2.86,2.79c.93-1.07,1.72-1.48,3.44-1.48,2.38,0,3.34,.86,3.34,2.83v.9h-4.24c-4.17,0-6.13,2.34-6.13,5.2,0,1.58,.52,3.03,1.48,4.03,1.07,1.06,2.55,1.58,4.58,1.58s3.21-.52,4.41-1.72v1.55h4.37Zm-17.84,0v-3.78h-1.72c-1.14,0-1.58-.55-1.58-1.62V13.83h-4.47v19.39c0,2.55,1.55,5.13,5.23,5.13h2.55Zm-13.33,0V20.41h-4.47v10.85c0,2.45-1.58,3.27-3,3.27s-2.96-.83-2.96-3.27v-10.85h-4.47v11.47c0,1.96,.38,3.65,1.82,5.09,1,1,2.44,1.58,4.24,1.58,1.65,0,3.31-.62,4.48-1.86v1.65h4.37Zm-20.21,0v-11.61c0-3.79-2.07-6.54-5.99-6.54-1.59,0-3.1,.62-4.31,1.86V13.83h-4.47v24.52h4.47v-10.95c0-2.34,1.48-3.17,2.89-3.17s2.93,.79,2.93,3.17v10.95h4.47Zm-18.94-2.24l-3.03-3c-.93,1-1.72,1.41-2.89,1.41-1.07,0-1.89-.38-2.55-1.17-.69-.86-1-2.1-1-4s.31-3.1,1-3.96c.65-.79,1.48-1.17,2.55-1.17,1.17,0,1.96,.41,2.89,1.41l3.03-3.03c-1.58-1.65-3.44-2.41-5.92-2.41-3.58,0-8.02,1.89-8.02,9.16s4.44,9.19,8.02,9.19c2.48,0,4.34-.79,5.92-2.44m-17.49-3.41c0-3.03-1.79-4.92-5.34-5.27l-2.82-.28c-1.58-.14-1.86-.9-1.86-1.55,0-.9,.76-1.72,2.55-1.72,1.55,0,3.13,.28,4.17,1.21l2.76-2.79c-1.72-1.62-4.06-2.1-6.85-2.1-3.65,0-6.92,1.99-6.92,5.71,0,3.31,2,4.72,5.23,5.03l2.82,.28c1.41,.14,1.89,.76,1.89,1.65,0,1.35-1.62,1.86-3.17,1.86-1.38,0-3.31-.21-4.79-1.69l-2.93,2.93c2.27,2.27,4.82,2.58,7.65,2.58,4.24,0,7.61-1.89,7.61-5.85m-18.26,5.65v-3.78h-1.62c-1.07,0-1.55-.59-1.55-1.62v-8.61h3.17v-3.4h-3.17v-5.3h-4.47v5.3h-1.89v3.4h1.89v8.89c0,2.55,1.55,5.13,5.2,5.13h2.45Zm-17.49-8.99c0,2.93-.35,5.17-3.03,5.17s-3.03-2.24-3.03-5.17,.34-5.13,3.03-5.13,3.03,2.2,3.03,5.13m4.47,0c0-2.69-.03-5.75-1.82-7.54-1-1-2.61-1.62-4.37-1.62-1.89,0-3.24,.51-4.48,1.89v-1.68h-4.33v24.52h4.47v-8.16c1.17,1.31,2.52,1.79,4.34,1.79s3.38-.62,4.37-1.62c1.79-1.79,1.82-4.89,1.82-7.58m-20.73,8.99V20.41h-4.47v10.85c0,2.45-1.59,3.27-3,3.27s-2.96-.83-2.96-3.27v-10.85h-4.47v11.47c0,1.96,.38,3.65,1.82,5.09,1,1,2.44,1.58,4.23,1.58,1.66,0,3.31-.62,4.48-1.86v1.65h4.37Zm-24.69-6.61c0,1.1-.17,1.83-.66,2.28-.79,.76-1.58,.86-2.82,.86-1.76,0-2.59-.83-2.59-2.07s.9-2.03,2.52-2.03h3.55v.96Zm4.47,6.61v-11.81c0-4.2-2.61-6.33-7.64-6.33-3,0-4.72,.55-6.47,2.48l2.86,2.79c.93-1.07,1.72-1.48,3.45-1.48,2.38,0,3.34,.86,3.34,2.83v.9h-4.24c-4.16,0-6.13,2.34-6.13,5.2,0,1.58,.51,3.03,1.48,4.03,1.07,1.06,2.55,1.58,4.58,1.58s3.21-.52,4.41-1.72v1.55h4.37Zm-19.63,0V13.83h-4.78v10.02h-8.31V13.83h-4.78v24.52h4.78v-10.26h8.31v10.26h4.78Z"/></g><path class="h" d="M416.44,230.11H19.88V105.99H416.44v124.12Zm-394.97-1.59H414.85V107.57H21.47v120.95Z"/><rect class="g" x="20.68" y="291.89" width="411.49" height="219.32"/><g class="k"><path class="h" d="M432.96,512H19.88v-220.9H432.96v220.9Zm-411.49-1.59H431.37v-217.73H21.47v217.73Z"/><path class="f" d="M356.95,493.38v-15.01c0-1.52-.1-3.07-.9-4.44-.79-1.34-1.89-2.41-3.03-3.55l-3.03,3.03c.83,.83,1.34,1.27,1.93,2.27,.34,.62,.52,1.58,.52,2.89v14.6c0,1.31-.17,2.27-.52,2.89-.59,1-1.1,1.45-1.93,2.27l3.03,3.03c1.14-1.14,2.24-2.2,3.03-3.55,.79-1.38,.9-2.93,.9-4.44m-10.47,2.52l-3.03-3c-1.07,1.07-1.72,1.41-2.89,1.41-2.34,0-3.55-1.72-3.55-5.17s1.21-5.13,3.55-5.13c1.14,0,1.86,.34,2.89,1.41l3.03-3.03c-1.07-1.03-1.58-1.37-2.55-1.79s-2.1-.62-3.34-.62c-5.06,0-8.05,3.37-8.05,9.02,0,5.96,2.92,9.33,8.05,9.33,1.24,0,2.34-.21,3.34-.65,.96-.41,1.48-.76,2.55-1.79m-23.04-5.34v.96c0,2.24-.93,3.14-3.24,3.14-1.9,0-2.83-.69-2.83-2.07s.93-2.03,2.52-2.03h3.55Zm4.47,7.58v-11.81c0-4.2-2.58-6.34-7.75-6.34-1.69,0-2.93,.21-3.96,.65-.9,.41-1.38,.79-2.41,1.82l2.86,2.79c1.07-1.17,1.79-1.48,3.38-1.48,2.41,0,3.41,.83,3.41,2.83v.9h-4.24c-3.79,0-6.13,1.99-6.13,5.23,0,3.51,2.24,5.58,6.06,5.58,1.03,0,1.86-.14,2.55-.41,.69-.28,1.07-.55,1.86-1.31v1.55h4.37Zm-19.29,0v-17.94h-13.12v7.26c0,6.44-1.48,6.72-3,6.72h-.55v3.96h2.14c3.65,0,5.75-1.99,5.75-9.67v-4.31h4.31v13.98h4.47Zm-29.17,0v-9.37l6.16,9.37h5.37l-6.75-9.57,6.34-8.37h-5.23l-5.89,8.51v-8.51h-4.51v17.94h4.51Zm-18.87,0v-17.94h-4.51l-6.31,10.68v-10.68h-4.51v17.94h4.51l6.31-10.95v10.95h4.51Zm-18.87-13.98v-3.96h-14.94v3.96h5.27v13.98h4.51v-13.98h5.17Zm-16.67,2.07h-10.61v4.16h10.61v-4.16Zm-19.46-5.2c0,2.27-1.34,3.58-3.17,3.58s-3.17-1.41-3.17-3.58c0-2.28,1.34-3.58,3.17-3.58s3.17,1.31,3.17,3.58m4.47-.03c0-4.86-3.3-7.58-7.65-7.58s-7.64,2.82-7.64,7.65c0,4.55,3.17,7.26,6.47,7.26,.59,0,1.24-.07,1.83-.31l-5.1,10.13h4.86l5.2-10.61c1.1-2.24,2.03-4.3,2.03-6.54m-33.96,13.19h-5.48c.9-1.83,1.38-4.06,1.38-7.68v-2.34h4.1v10.02Zm6.75,8.37v-8.37h-2.27v-13.98h-12.88v5.47c0,4.69-.83,6.86-1.76,8.51h-1.83v8.37h4.24v-4.41h10.26v4.41h4.24Zm-25.89-15.05h-6.82c.1-2.41,1.34-3.79,3.41-3.79s3.27,1.34,3.41,3.79m4.4,3.06v-1.99c0-5.2-3.06-8.58-7.82-8.58s-7.82,3.51-7.82,9.13c0,6.1,2.82,9.23,8.33,9.23,1.41,0,2.65-.24,3.69-.65,1.14-.48,1.76-.9,3.1-2.17l-2.72-2.65c-.79,.76-1.17,1.03-1.83,1.31-.59,.24-1.34,.38-2.07,.38-2.62,0-3.96-1.31-4.1-4h11.23Zm-20.46,7.58v-17.94h-13.12v7.26c0,6.44-1.48,6.72-3,6.72h-.55v3.96h2.14c3.65,0,5.75-1.99,5.75-9.67v-4.31h4.31v13.98h4.47Zm-18.8-2.24l-3.03-3c-1.07,1.07-1.72,1.41-2.89,1.41-2.34,0-3.55-1.72-3.55-5.17s1.21-5.13,3.55-5.13c1.14,0,1.86,.34,2.89,1.41l3.03-3.03c-1.07-1.03-1.58-1.37-2.55-1.79-.96-.41-2.1-.62-3.34-.62-5.06,0-8.05,3.37-8.05,9.02,0,5.96,2.92,9.33,8.05,9.33,1.24,0,2.34-.21,3.34-.65,.96-.41,1.48-.76,2.55-1.79m-18.15,2.48c-.83-.83-1.34-1.31-1.93-2.31-.34-.62-.52-1.58-.52-2.89v-14.6c0-1.31,.17-2.27,.52-2.89,.59-1,1.1-1.48,1.93-2.31l-3-3c-1.13,1.14-2.24,2.2-3.03,3.55-.79,1.38-.89,2.93-.89,4.44v15.01c0,1.52,.1,3.07,.89,4.44,.79,1.34,1.89,2.41,3.03,3.55l3-3Z"/><path class="f" d="M391,446.17h-6.82c.1-2.41,1.34-3.79,3.41-3.79s3.27,1.35,3.41,3.79m4.41,3.06v-1.99c0-5.2-3.06-8.57-7.82-8.57s-7.82,3.51-7.82,9.12c0,6.1,2.82,9.23,8.33,9.23,1.41,0,2.65-.24,3.69-.65,1.14-.48,1.75-.89,3.1-2.17l-2.72-2.65c-.79,.76-1.17,1.03-1.83,1.31-.59,.24-1.34,.38-2.07,.38-2.62,0-3.96-1.31-4.1-4h11.23Zm-20.42,7.58v-17.94h-4.51l-6.31,10.67v-10.67h-4.51v17.94h4.51l6.31-10.95v10.95h4.51Zm-20.97,0v-17.94h-4.51v6.78h-5.75v-6.78h-4.51v17.94h4.51v-7.2h5.75v7.2h4.51Zm-24.72-7.58v.96c0,2.24-.93,3.14-3.24,3.14-1.9,0-2.83-.69-2.83-2.07s.93-2.03,2.52-2.03h3.55Zm4.47,7.58v-11.81c0-4.2-2.58-6.33-7.75-6.33-1.69,0-2.93,.21-3.96,.65-.89,.41-1.37,.79-2.41,1.83l2.86,2.79c1.07-1.17,1.79-1.48,3.38-1.48,2.41,0,3.41,.83,3.41,2.83v.9h-4.24c-3.79,0-6.13,1.99-6.13,5.23,0,3.51,2.24,5.58,6.06,5.58,1.04,0,1.86-.14,2.55-.41,.69-.28,1.07-.55,1.86-1.31v1.55h4.37Zm-23-5.4c0,1.27-.83,2.1-2.24,2.1h-3.55v-4.17h3.55c1.41,0,2.24,.76,2.24,2.07m-2.45-9.23c1.41,0,2.17,.69,2.17,1.9s-.76,1.93-2.17,1.93h-3.34v-3.83h3.34Zm6.89,9.47c0-1.93-.83-3.17-2.55-4.06,1.55-.9,2.27-2.1,2.27-3.79,0-3-2.17-4.92-5.54-4.92h-8.85v17.94h9.16c3.38,0,5.51-1.99,5.51-5.16m-24.07-3.82c0,2.34-.14,5.17-3.14,5.17-2.17,0-3.1-1.45-3.1-4.89,0-2.31,.03-5.41,3.1-5.41s3.14,2.82,3.14,5.13m4.47-.07c0-3.48-.55-5.34-2.03-6.89-1.38-1.45-3.31-2.2-5.58-2.2s-4.17,.76-5.54,2.2c-1.48,1.58-2.03,3.41-2.03,6.96s.52,5.41,2.03,6.99c1.37,1.44,3.27,2.2,5.54,2.2s4.2-.76,5.58-2.2c1.51-1.58,2.03-3.41,2.03-7.06m-19.42,3.75c0-1.93-1.1-3.44-2.72-4.13,1.48-.69,2.44-2.17,2.44-3.86,0-3.17-3.1-4.85-6.54-4.85-2.69,0-5.23,.48-7.27,2.1l2.48,2.76c1.17-.83,2.55-1.24,3.89-1.24,1.83,0,3.03,.59,3.03,1.83s-.93,1.97-2.41,1.97h-2.65v3.2h2.72c1.58,0,2.58,.59,2.58,1.93s-1.55,2.03-3.13,2.03c-1.69,0-3.27-.45-4.55-1.59l-2.58,2.82c2.14,1.93,5.03,2.55,7.85,2.55,3.68,0,6.85-2.17,6.85-5.51m-22.76-2.28v.96c0,2.24-.93,3.14-3.24,3.14-1.89,0-2.83-.69-2.83-2.07s.93-2.03,2.52-2.03h3.55Zm4.47,7.58v-11.81c0-4.2-2.58-6.33-7.75-6.33-1.69,0-2.93,.21-3.96,.65-.9,.41-1.38,.79-2.41,1.83l2.86,2.79c1.06-1.17,1.79-1.48,3.38-1.48,2.41,0,3.41,.83,3.41,2.83v.9h-4.24c-3.79,0-6.13,1.99-6.13,5.23,0,3.51,2.24,5.58,6.06,5.58,1.03,0,1.86-.14,2.55-.41,.69-.28,1.07-.55,1.86-1.31v1.55h4.37Zm-23-9.02c0,3.82-.79,5.2-3.03,5.2s-3.03-1.38-3.03-4.89c0-2.31-.07-5.41,3.03-5.41,2.24,0,3.03,1.34,3.03,5.1m-6.2-7.23v-1.68h-4.33v24.52h4.47v-8.16c1.28,1.27,2.41,1.79,4.27,1.79s3.41-.59,4.44-1.62c1.34-1.34,1.82-3.31,1.82-7.51,0-2.38-.07-3.27-.31-4.58-.24-1.21-.79-2.3-1.51-3.03-1.03-1.03-2.65-1.62-4.44-1.62-1.96,0-3.03,.51-4.41,1.89m-16.7,16.46c2.14,0,4.03-.72,5.3-2.06,1.55-1.62,2.2-3.62,2.2-7.2,0-3.07-.69-5.79-2.27-7.27-1-.9-2.17-1.45-4.41-1.45-1.97,0-3.79,.9-4.48,2.07,0-2.17,.62-3.27,2.27-4.13,2.03-1.07,5.07-.86,7.34-1.03v-3.85c-5.3,.03-8.54,.28-10.78,1.99-2.27,1.79-2.86,3.85-2.86,12.26,0,3.34,.38,6.2,1.45,7.89,1.2,1.89,3.58,2.79,6.23,2.79m-.07-4.02c-.86,0-1.62-.24-2.14-.86-.65-.73-1-2.1-1-4.31,0-1.96,.35-3.34,.9-4.06,.55-.69,1.34-.93,2.24-.93s1.69,.28,2.21,.96c.59,.72,.9,2.1,.9,4.06,0,2.1-.34,3.51-.93,4.24-.55,.65-1.31,.9-2.17,.9m-16.56-5.17c0,2.34-.14,5.17-3.14,5.17-2.17,0-3.1-1.45-3.1-4.89,0-2.31,.03-5.41,3.1-5.41s3.14,2.82,3.14,5.13m4.47-.07c0-3.48-.55-5.34-2.03-6.89-1.37-1.45-3.3-2.2-5.58-2.2s-4.17,.76-5.54,2.2c-1.48,1.58-2.03,3.41-2.03,6.96s.52,5.41,2.03,6.99c1.38,1.44,3.27,2.2,5.54,2.2s4.2-.76,5.58-2.2c1.52-1.58,2.03-3.41,2.03-7.06m-32.54,.07c0,2.34-.14,5.17-3.14,5.17-2.17,0-3.1-1.45-3.1-4.89,0-2.31,.03-5.41,3.1-5.41s3.14,2.82,3.14,5.13m4.47-.07c0-3.48-.55-5.34-2.03-6.89-1.37-1.45-3.3-2.2-5.58-2.2s-4.17,.76-5.54,2.2c-1.48,1.58-2.03,3.41-2.03,6.96s.52,5.41,2.03,6.99c1.38,1.44,3.27,2.2,5.54,2.2s4.2-.76,5.58-2.2c1.52-1.58,2.03-3.41,2.03-7.06m-20.11,9.06v-17.94h-4.51v6.78h-5.75v-6.78h-4.51v17.94h4.51v-7.2h5.75v7.2h4.51Zm-25.48-3.96h-5.48c.9-1.83,1.38-4.07,1.38-7.69v-2.34h4.1v10.03Zm6.75,8.36v-8.36h-2.27v-13.98h-12.88v5.47c0,4.69-.83,6.86-1.76,8.51h-1.83v8.36h4.24v-4.41h10.26v4.41h4.24Zm-25.89-15.04h-6.82c.1-2.41,1.34-3.79,3.41-3.79s3.27,1.35,3.41,3.79m4.4,3.06v-1.99c0-5.2-3.06-8.57-7.82-8.57s-7.82,3.51-7.82,9.12c0,6.1,2.82,9.23,8.33,9.23,1.41,0,2.65-.24,3.69-.65,1.14-.48,1.76-.89,3.1-2.17l-2.72-2.65c-.79,.76-1.17,1.03-1.83,1.31-.59,.24-1.34,.38-2.07,.38-2.62,0-3.96-1.31-4.1-4h11.23Zm-24.17-1.44c0,3.82-.79,5.2-3.03,5.2s-3.03-1.38-3.03-4.89c0-2.31-.07-5.41,3.03-5.41,2.24,0,3.03,1.34,3.03,5.1m-6.2-7.23v-1.68h-4.33v24.52h4.47v-8.16c1.27,1.27,2.41,1.79,4.27,1.79s3.41-.59,4.44-1.62c1.34-1.34,1.82-3.31,1.82-7.51,0-2.38-.07-3.27-.31-4.58-.24-1.21-.79-2.3-1.51-3.03-1.03-1.03-2.65-1.62-4.44-1.62-1.96,0-3.03,.51-4.41,1.89m-8.51,14.02l-3.03-3c-1.07,1.07-1.72,1.41-2.89,1.41-2.34,0-3.55-1.72-3.55-5.17s1.21-5.13,3.55-5.13c1.14,0,1.86,.34,2.89,1.41l3.03-3.03c-1.07-1.03-1.58-1.38-2.55-1.79-.96-.41-2.1-.62-3.34-.62-5.06,0-8.05,3.37-8.05,9.02,0,5.96,2.92,9.33,8.05,9.33,1.24,0,2.34-.21,3.34-.65,.96-.41,1.48-.76,2.55-1.79"/><path class="f" d="M354.81,407.9v.96c0,2.24-.93,3.14-3.24,3.14-1.9,0-2.83-.69-2.83-2.07s.93-2.03,2.52-2.03h3.55Zm4.47,7.58v-11.81c0-4.2-2.58-6.33-7.75-6.33-1.69,0-2.93,.21-3.96,.65-.9,.41-1.38,.79-2.41,1.83l2.85,2.79c1.07-1.17,1.79-1.48,3.38-1.48,2.41,0,3.41,.83,3.41,2.83v.9h-4.24c-3.79,0-6.13,1.99-6.13,5.23,0,3.51,2.24,5.58,6.06,5.58,1.03,0,1.86-.14,2.55-.41,.69-.28,1.07-.55,1.86-1.31v1.55h4.37Zm-19.25,0v-17.94h-4.51v6.78h-5.76v-6.78h-4.51v17.94h4.51v-7.2h5.76v7.2h4.51Zm-29.1,0v-17.94h-4.51v6.78h-5.76v-6.78h-4.51v17.94h4.51v-7.2h5.76v7.2h4.51Zm-23.96-10.64h-6.82c.1-2.41,1.35-3.79,3.41-3.79s3.27,1.35,3.41,3.79m4.4,3.06v-1.99c0-5.2-3.06-8.57-7.82-8.57s-7.82,3.51-7.82,9.12c0,6.1,2.82,9.23,8.33,9.23,1.41,0,2.65-.24,3.69-.65,1.13-.48,1.75-.89,3.1-2.17l-2.72-2.65c-.79,.76-1.17,1.03-1.83,1.31-.59,.24-1.34,.38-2.07,.38-2.62,0-3.96-1.31-4.1-4h11.23Zm-20.42,7.58v-17.94h-14.77v17.94h4.51v-13.98h5.76v13.98h4.51Zm-23.96-10.64h-6.82c.1-2.41,1.34-3.79,3.41-3.79s3.27,1.35,3.41,3.79m4.41,3.06v-1.99c0-5.2-3.06-8.57-7.82-8.57s-7.82,3.51-7.82,9.12c0,6.1,2.82,9.23,8.33,9.23,1.41,0,2.65-.24,3.69-.65,1.14-.48,1.75-.89,3.1-2.17l-2.72-2.65c-.79,.76-1.17,1.03-1.83,1.31-.59,.24-1.34,.38-2.07,.38-2.62,0-3.96-1.31-4.1-4h11.23Zm-17.98-6.41v-3.96h-14.94v3.96h5.27v13.98h4.51v-13.98h5.17Zm-16.63,11.75l-3.03-3c-1.07,1.07-1.72,1.41-2.89,1.41-2.34,0-3.55-1.72-3.55-5.17s1.21-5.13,3.55-5.13c1.14,0,1.86,.34,2.89,1.41l3.03-3.03c-1.07-1.03-1.58-1.38-2.55-1.79-.96-.41-2.1-.62-3.34-.62-5.06,0-8.06,3.37-8.06,9.02,0,5.96,2.92,9.33,8.06,9.33,1.24,0,2.34-.21,3.34-.65,.96-.41,1.48-.76,2.55-1.79m-31.72-5.34v.96c0,2.24-.93,3.14-3.24,3.14-1.9,0-2.83-.69-2.83-2.07s.93-2.03,2.51-2.03h3.55Zm4.47,7.58v-11.81c0-4.2-2.58-6.33-7.75-6.33-1.69,0-2.93,.21-3.96,.65-.89,.41-1.37,.79-2.41,1.83l2.86,2.79c1.07-1.17,1.79-1.48,3.38-1.48,2.41,0,3.41,.83,3.41,2.83v.9h-4.24c-3.79,0-6.13,1.99-6.13,5.23,0,3.51,2.24,5.58,6.06,5.58,1.03,0,1.86-.14,2.55-.41,.69-.28,1.07-.55,1.86-1.31v1.55h4.37Zm-23-5.4c0,1.27-.83,2.1-2.24,2.1h-3.55v-4.17h3.55c1.41,0,2.24,.76,2.24,2.07m-2.45-9.23c1.41,0,2.17,.69,2.17,1.9s-.76,1.93-2.17,1.93h-3.34v-3.83h3.34Zm6.89,9.47c0-1.93-.83-3.17-2.55-4.06,1.55-.9,2.27-2.1,2.27-3.79,0-3-2.17-4.92-5.54-4.92h-8.85v17.94h9.16c3.38,0,5.51-1.99,5.51-5.16m-24.07-3.86c0,3.82-.79,5.2-3.03,5.2s-3.03-1.38-3.03-4.89c0-2.31-.07-5.41,3.03-5.41,2.24,0,3.03,1.34,3.03,5.1m-6.2-7.23v-1.68h-4.33v24.52h4.47v-8.16c1.27,1.27,2.41,1.79,4.27,1.79s3.41-.59,4.44-1.62c1.34-1.34,1.82-3.31,1.82-7.51,0-2.38-.07-3.27-.31-4.58-.24-1.21-.79-2.3-1.51-3.03-1.03-1.03-2.65-1.62-4.44-1.62-1.96,0-3.03,.51-4.41,1.89m-15.43,8.3c1.45,0,2.38,.86,2.38,2.21s-.93,2.24-2.38,2.24h-3.45v-4.45h3.45Zm6.78,2.21c0-3.38-2.41-5.71-5.96-5.71h-4.14v-6.47h-8.71v3.96h4.2v13.98h8.64c3.55,0,5.96-2.37,5.96-5.75m-22.39,5.75v-17.94h-14.77v17.94h4.51v-13.98h5.76v13.98h4.51Z"/><path class="f" d="M371.04,366.58v.96c0,2.24-.93,3.14-3.24,3.14-1.89,0-2.82-.69-2.82-2.07s.93-2.03,2.51-2.03h3.55Zm4.47,7.58v-11.81c0-4.2-2.58-6.34-7.75-6.34-1.69,0-2.93,.21-3.96,.65-.9,.41-1.37,.79-2.41,1.82l2.86,2.79c1.07-1.17,1.79-1.48,3.38-1.48,2.41,0,3.41,.83,3.41,2.83v.9h-4.24c-3.79,0-6.13,1.99-6.13,5.23,0,3.51,2.24,5.58,6.06,5.58,1.03,0,1.86-.14,2.55-.41,.69-.28,1.07-.55,1.86-1.31v1.55h4.37Zm-16.81-13.98v-3.96h-14.94v3.96h5.27v13.98h4.51v-13.98h5.17Zm-18.49,13.98v-17.94h-4.51l-6.31,10.67v-10.67h-4.51v17.94h4.51l6.31-10.95v10.95h4.51Zm-27.65,.21c2.14,0,4.03-.72,5.3-2.06,1.55-1.62,2.2-3.62,2.2-7.2,0-3.07-.69-5.79-2.27-7.27-1-.9-2.17-1.45-4.41-1.45-1.97,0-3.79,.9-4.48,2.07,0-2.17,.62-3.27,2.27-4.13,2.03-1.07,5.07-.86,7.34-1.03v-3.85c-5.3,.03-8.54,.28-10.78,2-2.27,1.79-2.85,3.85-2.85,12.26,0,3.34,.38,6.2,1.44,7.89,1.21,1.89,3.58,2.79,6.23,2.79m-.07-4.03c-.86,0-1.62-.24-2.14-.86-.65-.72-1-2.1-1-4.3,0-1.96,.34-3.34,.9-4.07,.55-.69,1.34-.93,2.24-.93s1.69,.28,2.2,.96c.59,.73,.9,2.1,.9,4.07,0,2.1-.35,3.51-.93,4.24-.55,.65-1.31,.9-2.17,.9m-16.56-5.17c0,2.34-.14,5.17-3.14,5.17-2.17,0-3.1-1.45-3.1-4.89,0-2.31,.03-5.41,3.1-5.41s3.14,2.82,3.14,5.13m4.47-.07c0-3.48-.55-5.34-2.03-6.89-1.38-1.44-3.31-2.2-5.58-2.2s-4.17,.76-5.54,2.2c-1.48,1.58-2.03,3.41-2.03,6.96s.51,5.41,2.03,6.99c1.37,1.44,3.27,2.2,5.54,2.2s4.2-.76,5.58-2.2c1.51-1.58,2.03-3.41,2.03-7.06m-25.17,5.1h-5.48c.89-1.83,1.37-4.06,1.37-7.68v-2.34h4.1v10.02Zm6.74,8.37v-8.37h-2.27v-13.98h-12.88v5.47c0,4.69-.83,6.86-1.76,8.51h-1.83v8.37h4.23v-4.41h10.26v4.41h4.23Zm-22.35-4.41v-17.94h-4.51l-6.31,10.67v-10.67h-4.51v17.94h4.51l6.31-10.95v10.95h4.51Zm-24.72-9.02c0,3.82-.79,5.2-3.03,5.2s-3.03-1.38-3.03-4.89c0-2.31-.07-5.41,3.03-5.41,2.24,0,3.03,1.34,3.03,5.1m-6.2-7.23v-1.69h-4.33v24.52h4.47v-8.16c1.28,1.27,2.41,1.79,4.27,1.79s3.41-.59,4.44-1.62c1.34-1.34,1.82-3.3,1.82-7.51,0-2.38-.07-3.27-.31-4.58-.24-1.21-.79-2.31-1.51-3.03-1.03-1.03-2.65-1.62-4.44-1.62-1.96,0-3.03,.52-4.41,1.89m-10.02,16.25v-17.94h-14.77v17.94h4.51v-13.98h5.76v13.98h4.51Zm-28.41-5.3c0-1.93-1.1-3.45-2.72-4.13,1.48-.69,2.44-2.17,2.44-3.86,0-3.17-3.1-4.85-6.54-4.85-2.69,0-5.23,.48-7.27,2.1l2.48,2.76c1.17-.83,2.55-1.24,3.89-1.24,1.83,0,3.03,.59,3.03,1.83s-.93,1.96-2.41,1.96h-2.65v3.2h2.72c1.58,0,2.58,.59,2.58,1.93s-1.55,2.03-3.13,2.03c-1.69,0-3.27-.45-4.55-1.58l-2.58,2.82c2.14,1.93,5.03,2.55,7.85,2.55,3.69,0,6.85-2.17,6.85-5.51m-21.32-5.34h-6.82c.1-2.41,1.34-3.79,3.41-3.79s3.27,1.34,3.41,3.79m4.41,3.06v-1.99c0-5.2-3.06-8.58-7.82-8.58s-7.82,3.51-7.82,9.12c0,6.1,2.82,9.23,8.33,9.23,1.41,0,2.65-.24,3.69-.65,1.13-.48,1.75-.9,3.1-2.17l-2.72-2.65c-.79,.76-1.17,1.03-1.83,1.31-.59,.24-1.34,.38-2.07,.38-2.62,0-3.96-1.31-4.1-4h11.23Zm-27.1,7.78c2.14,0,4.03-.72,5.3-2.06,1.55-1.62,2.2-3.62,2.2-7.2,0-3.07-.69-5.79-2.27-7.27-1-.9-2.17-1.45-4.41-1.45-1.97,0-3.79,.9-4.48,2.07,0-2.17,.62-3.27,2.27-4.13,2.03-1.07,5.07-.86,7.34-1.03v-3.85c-5.3,.03-8.54,.28-10.78,2-2.27,1.79-2.86,3.85-2.86,12.26,0,3.34,.38,6.2,1.45,7.89,1.2,1.89,3.58,2.79,6.23,2.79m-.07-4.03c-.86,0-1.62-.24-2.14-.86-.65-.72-1-2.1-1-4.3,0-1.96,.34-3.34,.9-4.07,.55-.69,1.34-.93,2.24-.93s1.69,.28,2.21,.96c.59,.73,.9,2.1,.9,4.07,0,2.1-.34,3.51-.93,4.24-.55,.65-1.31,.9-2.17,.9m-21.49,3.82v-17.94h-4.51l-6.31,10.67v-10.67h-4.51v17.94h4.51l6.31-10.95v10.95h4.51Zm-28.45-7.54h-4.86c-.48,1.96-1.72,3.48-4.13,3.48-1.31,0-2.38-.48-3.07-1.27-.93-1.03-1.21-2.2-1.21-6.92s.28-5.89,1.21-6.93c.69-.79,1.76-1.27,3.07-1.27,2.41,0,3.65,1.52,4.13,3.48h4.86c-.86-5.13-4.44-7.75-9.02-7.75-2.69,0-4.89,.96-6.61,2.68-2.48,2.48-2.41,5.54-2.41,9.78s-.07,7.3,2.41,9.78c1.72,1.72,3.92,2.68,6.61,2.68,4.55,0,8.16-2.61,9.02-7.75"/><path class="h" d="M424.75,327.18c0-3.03-1.79-4.92-5.34-5.27l-2.82-.28c-1.58-.14-1.86-.9-1.86-1.55,0-.9,.76-1.72,2.55-1.72,1.55,0,3.13,.28,4.17,1.21l2.76-2.79c-1.72-1.62-4.06-2.1-6.85-2.1-3.65,0-6.92,1.99-6.92,5.71,0,3.31,2,4.72,5.23,5.03l2.82,.28c1.41,.14,1.89,.76,1.89,1.65,0,1.35-1.62,1.86-3.17,1.86-1.38,0-3.31-.21-4.79-1.69l-2.93,2.93c2.27,2.27,4.82,2.58,7.65,2.58,4.24,0,7.61-1.89,7.61-5.85m-17.74,0c0-3.03-1.79-4.92-5.34-5.27l-2.82-.28c-1.58-.14-1.86-.9-1.86-1.55,0-.9,.76-1.72,2.55-1.72,1.55,0,3.13,.28,4.17,1.21l2.76-2.79c-1.72-1.62-4.06-2.1-6.85-2.1-3.65,0-6.92,1.99-6.92,5.71,0,3.31,2,4.72,5.23,5.03l2.82,.28c1.41,.14,1.89,.76,1.89,1.65,0,1.35-1.62,1.86-3.17,1.86-1.38,0-3.31-.21-4.79-1.69l-2.93,2.93c2.27,2.27,4.82,2.58,7.65,2.58,4.24,0,7.61-1.89,7.61-5.85m-19.22,5.65v-17.94h-4.47v10.85c0,2.45-1.59,3.27-3,3.27s-2.96-.83-2.96-3.27v-10.85h-4.47v11.47c0,1.96,.38,3.65,1.82,5.09,1,1,2.44,1.58,4.23,1.58,1.66,0,3.31-.62,4.48-1.86v1.65h4.37Zm-18.98,0v-3.78h-1.72c-1.14,0-1.58-.55-1.58-1.62v-19.11h-4.47v19.39c0,2.55,1.55,5.13,5.23,5.13h2.55Zm-13.12,0v-11.61c0-3.79-2.06-6.54-5.99-6.54-1.58,0-3.1,.62-4.31,1.86v-8.23h-4.47v24.52h4.47v-10.95c0-2.34,1.48-3.17,2.9-3.17s2.93,.79,2.93,3.17v10.95h4.47Zm-18.94-2.24l-3.03-3c-.93,1-1.72,1.41-2.89,1.41-1.07,0-1.89-.38-2.55-1.17-.69-.86-1-2.1-1-4s.31-3.1,1-3.96c.65-.79,1.48-1.17,2.55-1.17,1.17,0,1.96,.41,2.89,1.41l3.03-3.03c-1.58-1.65-3.44-2.41-5.92-2.41-3.58,0-8.02,1.89-8.02,9.16s4.44,9.19,8.02,9.19c2.48,0,4.34-.79,5.92-2.44m-17.49-3.41c0-3.03-1.79-4.92-5.34-5.27l-2.82-.28c-1.58-.14-1.86-.9-1.86-1.55,0-.9,.76-1.72,2.55-1.72,1.55,0,3.13,.28,4.17,1.21l2.76-2.79c-1.72-1.62-4.06-2.1-6.85-2.1-3.65,0-6.92,1.99-6.92,5.71,0,3.31,2,4.72,5.23,5.03l2.82,.28c1.41,.14,1.89,.76,1.89,1.65,0,1.35-1.62,1.86-3.17,1.86-1.38,0-3.31-.21-4.79-1.69l-2.93,2.93c2.27,2.27,4.82,2.58,7.65,2.58,4.24,0,7.61-1.89,7.61-5.85m-22.93-3.34c0,2.93-.34,5.17-3.03,5.17s-3.03-2.24-3.03-5.17,.35-5.13,3.03-5.13,3.03,2.2,3.03,5.13m4.47,0c0-2.69-.03-5.75-1.82-7.54-1-1-2.61-1.62-4.37-1.62s-3.17,.48-4.34,1.79v-8.16h-4.47v24.52h4.33v-1.68c1.24,1.37,2.59,1.89,4.48,1.89,1.76,0,3.37-.62,4.37-1.62,1.79-1.79,1.82-4.89,1.82-7.58m-26.1,.62h-6.1l3.1-8.92,3,8.92Zm7.71,8.36l-8.95-24.52h-3.75l-8.92,24.52h4.99l1.48-4.34h8.71l1.45,4.34h4.99Zm-37.2-10.64h-6.82c.03-.79,.14-1.28,.41-1.93,.48-1.07,1.48-1.86,3-1.86s2.51,.79,3,1.86c.28,.65,.38,1.14,.41,1.93m4.41,3.06v-1.99c0-4.93-2.82-8.57-7.82-8.57-4.65,0-7.82,3.3-7.82,9.16,0,7.27,4.06,9.19,8.3,9.19,3.24,0,4.99-1,6.82-2.82l-2.72-2.65c-1.14,1.14-2.1,1.69-4.06,1.69-2.51,0-3.93-1.69-3.93-4h11.23Zm-20.25,7.58v-11.47c0-1.96-.38-3.65-1.82-5.09-1-1-2.45-1.58-4.24-1.58-1.65,0-3.31,.62-4.48,1.86v-1.65h-4.37v17.94h4.47v-10.85c0-2.45,1.58-3.27,3-3.27s2.96,.83,2.96,3.27v10.85h4.47Zm-20.42,0v-11.61c0-3.79-2.06-6.54-5.99-6.54-1.58,0-3.1,.62-4.31,1.86v-8.23h-4.47v24.52h4.47v-10.95c0-2.34,1.48-3.17,2.9-3.17s2.93,.79,2.93,3.17v10.95h4.47Zm-24.21-8.99c0,1.86-.1,3.44-1.04,4.37-.52,.52-1.21,.79-2.1,.79s-1.55-.28-2.07-.79c-.93-.93-1.03-2.51-1.03-4.37s.1-3.41,1.03-4.34c.52-.52,1.17-.79,2.07-.79s1.58,.28,2.1,.79c.93,.93,1.04,2.48,1.04,4.34m4.47,0c0-3.24-.41-5.27-2.03-6.96-1.1-1.17-2.92-2.2-5.58-2.2s-4.44,1.03-5.54,2.2c-1.62,1.68-2.03,3.72-2.03,6.96s.41,5.31,2.03,6.99c1.1,1.17,2.89,2.2,5.54,2.2s4.48-1.03,5.58-2.2c1.62-1.68,2.03-3.72,2.03-6.99m-26.35-7.47c-1.24-1.24-2.48-1.68-4.24-1.68-1.93,0-3.65,.89-4.51,1.93v-1.72h-4.37v17.94h4.47v-10.81c0-2.27,1.52-3.31,2.89-3.31,1.1,0,1.69,.38,2.38,1.07l3.38-3.41Zm-22.35,5.82h-6.82c.03-.79,.14-1.28,.41-1.93,.48-1.07,1.48-1.86,3-1.86s2.51,.79,3,1.86c.28,.65,.38,1.14,.41,1.93m4.41,3.06v-1.99c0-4.93-2.82-8.57-7.82-8.57-4.65,0-7.81,3.3-7.81,9.16,0,7.27,4.06,9.19,8.29,9.19,3.24,0,4.99-1,6.82-2.82l-2.72-2.65c-1.14,1.14-2.1,1.69-4.06,1.69-2.51,0-3.93-1.69-3.93-4h11.23Zm-24.93-1.41c0,2.93-.38,5.17-3.07,5.17s-3.03-2.24-3.03-5.17,.34-5.13,3.03-5.13,3.07,2.2,3.07,5.13m4.47,8.99v-24.52h-4.47v8.16c-1.17-1.31-2.55-1.79-4.38-1.79s-3.38,.62-4.37,1.62c-1.79,1.79-1.83,4.85-1.83,7.54s.03,5.79,1.83,7.58c1,1,2.65,1.62,4.41,1.62,1.9,0,3.21-.52,4.45-1.89v1.68h4.37Zm-23.73-8.99c0,1.86-.1,3.44-1.03,4.37-.52,.52-1.21,.79-2.1,.79s-1.55-.28-2.07-.79c-.93-.93-1.03-2.51-1.03-4.37s.1-3.41,1.03-4.34c.52-.52,1.17-.79,2.07-.79s1.59,.28,2.1,.79c.93,.93,1.03,2.48,1.03,4.34m4.47,0c0-3.24-.41-5.27-2.03-6.96-1.1-1.17-2.92-2.2-5.58-2.2s-4.44,1.03-5.54,2.2c-1.62,1.68-2.03,3.72-2.03,6.96s.41,5.31,2.03,6.99c1.1,1.17,2.89,2.2,5.54,2.2s4.48-1.03,5.58-2.2c1.62-1.68,2.03-3.72,2.03-6.99m-27.86,8.99v-3.78h-1.62c-1.07,0-1.55-.59-1.55-1.62v-8.61h3.17v-3.4h-3.17v-5.3h-4.47v5.3h-1.89v3.4h1.89v8.89c0,2.55,1.55,5.13,5.2,5.13h2.45Zm-13.71-24.65h-4.58v3.65h4.58v-3.65Zm-.03,6.72h-4.47v17.94h4.47v-17.94Zm-10.54,17.94v-24.52h-4.71l-6.37,13.26-6.41-13.26h-4.71v24.52h4.78v-14.29l4.72,9.3h3.24l4.69-9.3v14.29h4.78Z"/></g><polygon class="f" points="32.44 258.85 44.87 258.85 38.66 252.63 32.44 258.85"/><polygon class="f" points="32.44 283.56 44.87 283.56 38.66 277.35 32.44 283.56"/><polygon class="f" points="32.44 271.2 44.87 271.2 38.66 264.99 32.44 271.2"/><polygon class="f" points="32.44 122.92 44.87 122.92 38.66 116.71 32.44 122.92"/><polygon class="f" points="32.44 237.52 44.87 237.52 38.66 231.31 32.44 237.52"/><polygon class="f" points="32.44 249.87 44.87 249.87 38.66 243.66 32.44 249.87"/><polygon class="f" points="32.44 101.59 44.87 101.59 38.66 95.38 32.44 101.59"/><polygon class="f" points="32.44 62.71 44.87 62.71 38.66 56.5 32.44 62.71"/><polygon class="f" points="32.44 87.43 44.87 87.43 38.66 81.21 32.44 87.43"/><polygon class="f" points="32.44 75.07 44.87 75.07 38.66 68.86 32.44 75.07"/></svg>