<?xml version="1.0" encoding="utf-8"?>
<!-- Generator: Adobe Illustrator 26.2.1, SVG Export Plug-In . SVG Version: 6.00 Build 0)  -->
<svg version="1.1" id="Ebene_1" xmlns="http://www.w3.org/2000/svg" xmlns:xlink="http://www.w3.org/1999/xlink" x="0px" y="0px"
	 viewBox="0 0 512 113.75" style="enable-background:new 0 0 512 113.75;" xml:space="preserve">
<style type="text/css">
	.st0{fill:#6EC3BF;}
	.st1{fill:#A0D5D2;}
	.st2{fill:#87CCC8;}
	.st3{fill:#FFFFFF;}
	.st4{clip-path:url(#SVGID_00000080897609532737594330000013429370615055013280_);fill:#2B2961;}
	.st5{fill:#897DA2;}
	.st6{fill:#2B2961;}
	.st7{clip-path:url(#SVGID_00000116949360837356037130000003452598747083040957_);fill:#FFFFFF;}
	.st8{clip-path:url(#SVGID_00000116949360837356037130000003452598747083040957_);fill:#2B2961;}
	.st9{clip-path:url(#SVGID_00000180331423379083096710000013539449346927121802_);fill:#FFFFFF;}
	.st10{clip-path:url(#SVGID_00000180331423379083096710000013539449346927121802_);fill:#6EC3BF;}
	.st11{fill:#9D9D9C;}
	.st12{fill:#D0D0D0;}
	.st13{clip-path:url(#SVGID_00000065773331164504640370000005205073969886221239_);fill:#FFFFFF;}
	.st14{clip-path:url(#SVGID_00000158009610224690154850000006751238396643498391_);fill:#2B2961;}
	.st15{clip-path:url(#SVGID_00000158009610224690154850000006751238396643498391_);fill:#FFFFFF;}
	.st16{fill:#97D1CE;}
	.st17{clip-path:url(#SVGID_00000161631101699990246460000016736624111644490165_);fill:#2B2961;}
	.st18{clip-path:url(#SVGID_00000026847153027379079060000006647773235536798598_);fill:#2B2961;}
	.st19{clip-path:url(#SVGID_00000060708838442597072610000015151245550820474497_);fill:#FFFFFF;}
	.st20{clip-path:url(#SVGID_00000060708838442597072610000015151245550820474497_);fill:#2B2961;}
	.st21{clip-path:url(#SVGID_00000045584756722755486550000015749735577505041583_);fill:#2B2961;}
	.st22{clip-path:url(#SVGID_00000116197106107867985160000017726308065088371612_);fill:#2B2961;}
	.st23{clip-path:url(#SVGID_00000116197106107867985160000017726308065088371612_);fill:#FFFFFF;}
	.st24{clip-path:url(#SVGID_00000160184298710345195610000012019642142601860241_);fill:#FFFFFF;}
	.st25{clip-path:url(#SVGID_00000139982569193469266620000005145798863624306364_);fill:#6EC3BF;}
	.st26{clip-path:url(#SVGID_00000061451542271544749520000016911073235371235995_);fill:#2B2961;}
	.st27{clip-path:url(#SVGID_00000061451542271544749520000016911073235371235995_);fill:#1D1D1B;}
	.st28{clip-path:url(#SVGID_00000061451542271544749520000016911073235371235995_);fill:#FFFFFF;}
	.st29{clip-path:url(#SVGID_00000065075603341404185580000012401375922910034573_);fill:#2B2961;}
	.st30{clip-path:url(#SVGID_00000046308656713625398950000018322226228229278398_);fill:#2B2961;}
	.st31{clip-path:url(#SVGID_00000046308656713625398950000018322226228229278398_);fill:#FFFFFF;}
	.st32{clip-path:url(#SVGID_00000097492410076466308300000008189720982166972291_);fill:#2B2961;}
	.st33{clip-path:url(#SVGID_00000055673012365391202360000012095557860008540830_);fill:#2B2961;}
	.st34{clip-path:url(#SVGID_00000055673012365391202360000012095557860008540830_);fill:#6EC3BF;}
	.st35{clip-path:url(#SVGID_00000052070278781862222110000002729873231586262965_);fill:#2B2961;}
	.st36{clip-path:url(#SVGID_00000007422031010696402840000015099277368026983569_);fill:#2B2961;}
	.st37{clip-path:url(#SVGID_00000057836238166979548940000016971830450111199930_);fill:#2B2961;}
	.st38{clip-path:url(#SVGID_00000010296972129502777620000015090944222968488380_);fill:#2B2961;}
	.st39{clip-path:url(#SVGID_00000171685691704562669280000012777783902872693153_);fill:#6EC3BF;}
	.st40{clip-path:url(#SVGID_00000114760135591632055130000004651569999545616540_);fill:#6EC3BF;}
	.st41{clip-path:url(#SVGID_00000116939696118739627290000016060911033161778869_);fill:#6EC3BF;}
	.st42{clip-path:url(#SVGID_00000054986308706377305420000007402640141143307147_);fill:#6EC3BF;}
	.st43{clip-path:url(#SVGID_00000110432437060928583940000009199530182100381321_);fill:#2B2961;}
	.st44{clip-path:url(#SVGID_00000075855194800988097160000012393121927707615880_);fill:#2B2961;}
	.st45{clip-path:url(#SVGID_00000065779820939038497630000008421273269201951395_);fill:#2B2961;}
	.st46{clip-path:url(#SVGID_00000140002937378410839200000007319371393145912991_);fill:#2B2961;}
	.st47{clip-path:url(#SVGID_00000140002937378410839200000007319371393145912991_);fill:#FFFFFF;}
	.st48{clip-path:url(#SVGID_00000170963925235373052560000011178214411298298007_);fill:#FFFFFF;}
	.st49{clip-path:url(#SVGID_00000013871680551788306830000003248833016951250074_);fill:#2B2961;}
	.st50{clip-path:url(#SVGID_00000029752967611752608870000008744174259688545962_);fill:#2B2961;}
	.st51{clip-path:url(#SVGID_00000029752967611752608870000008744174259688545962_);fill:#FFFFFF;}
	.st52{clip-path:url(#SVGID_00000154422489863191284750000013643263182102564002_);fill:#2B2961;}
	.st53{clip-path:url(#SVGID_00000154422489863191284750000013643263182102564002_);fill:#2C265F;}
	.st54{clip-path:url(#SVGID_00000039833293347607405400000017511770123176323718_);fill:#FFFFFF;}
	.st55{clip-path:url(#SVGID_00000171716941747560400720000015616428881058611114_);fill:#2B2961;}
	.st56{clip-path:url(#SVGID_00000085226237484780752230000011542736868697995909_);fill:#FFFFFF;}
	.st57{clip-path:url(#SVGID_00000065053643910707981710000012953226925980660157_);fill:#2B2961;}
	.st58{clip-path:url(#SVGID_00000181797310524942718810000004286029285640382899_);fill:#FFFFFF;}
	.st59{clip-path:url(#SVGID_00000162349060935791250190000010316743451636816268_);fill:#2B2961;}
	.st60{clip-path:url(#SVGID_00000162349060935791250190000010316743451636816268_);fill:#FFFFFF;}
	.st61{clip-path:url(#SVGID_00000036252623640980386290000004211321176398007427_);fill:#2B2961;}
	.st62{clip-path:url(#SVGID_00000029741586875311518450000017028053215149077173_);fill:#FFFFFF;}
	.st63{clip-path:url(#SVGID_00000134948303250749072770000012602558684346740907_);fill:#2B2961;}
	.st64{clip-path:url(#SVGID_00000124152877605900320610000007916269173861314443_);fill:#FFFFFF;}
	.st65{clip-path:url(#SVGID_00000124152877605900320610000007916269173861314443_);fill:#2B2961;}
	.st66{clip-path:url(#SVGID_00000094596782709315943700000013636794415506150079_);fill:#2B2961;}
	.st67{clip-path:url(#SVGID_00000094596782709315943700000013636794415506150079_);fill:#6EC3BF;}
	.st68{clip-path:url(#SVGID_00000094596782709315943700000013636794415506150079_);fill:#FFFFFF;}
	.st69{clip-path:url(#SVGID_00000062914225418995823280000006387953330231191212_);fill:#2B2961;}
	.st70{clip-path:url(#SVGID_00000137845432562511013400000016364159191543488128_);fill:#2B2961;}
	.st71{clip-path:url(#SVGID_00000154410278564999977960000013634680984774062001_);fill:#2B2961;}
	.st72{clip-path:url(#SVGID_00000089540593482159107350000004266603264338039943_);fill:#2B2961;}
	.st73{clip-path:url(#SVGID_00000023240106463642896930000003835408641809081277_);fill:#2B2961;}
	.st74{clip-path:url(#SVGID_00000051385623796050484950000018134417787481684886_);fill:#FFFFFF;}
	.st75{clip-path:url(#SVGID_00000051385623796050484950000018134417787481684886_);fill:#6EC3BF;}
	.st76{clip-path:url(#SVGID_00000169541613219449703330000005712734831558518684_);fill:#2B2961;}
	.st77{clip-path:url(#SVGID_00000166665724147856221760000016523377280677790359_);fill:#2B2961;}
	.st78{clip-path:url(#SVGID_00000166665724147856221760000016523377280677790359_);fill:#FFFFFF;}
	.st79{clip-path:url(#SVGID_00000116918404898612199520000016232786605256064665_);fill:#2B2961;}
	.st80{clip-path:url(#SVGID_00000093867819436024755970000016288989569076713886_);fill:#FFFFFF;}
	.st81{clip-path:url(#SVGID_00000143580360803195833750000012894857345372757684_);fill:#2B2961;}
	.st82{clip-path:url(#SVGID_00000092450682598097707290000009680952938547999402_);fill:#2B2961;}
	.st83{clip-path:url(#SVGID_00000134245656150239688050000017519854292137685433_);fill:#2B2961;}
	.st84{clip-path:url(#SVGID_00000171690393339900597840000016129605072582452131_);fill:#FFFFFF;}
	.st85{clip-path:url(#SVGID_00000044168120460727931670000001841934053587876259_);fill:#FFFFFF;}
	.st86{clip-path:url(#SVGID_00000143615066629318907850000011700993268734035856_);fill:#2B2961;}
	.st87{clip-path:url(#SVGID_00000165227129016456322760000009216846347682469526_);fill:#2B2961;}
	.st88{clip-path:url(#SVGID_00000165227129016456322760000009216846347682469526_);fill:#FFFFFF;}
	.st89{clip-path:url(#SVGID_00000159435384243596628160000002913747062629025160_);fill:#2B2961;}
	.st90{clip-path:url(#SVGID_00000087381705913903497630000017542230553434268046_);fill:#FFFFFF;}
	.st91{clip-path:url(#SVGID_00000130611757233186500020000014387369520567186857_);fill:#6EC3BF;}
	.st92{clip-path:url(#SVGID_00000130611757233186500020000014387369520567186857_);fill:#2B2961;}
	.st93{clip-path:url(#SVGID_00000031166457536003546060000011411769874629132445_);fill:#6EC3BF;}
	.st94{clip-path:url(#SVGID_00000048491578796073477740000011479261281507269545_);fill:#2B2961;}
	.st95{clip-path:url(#SVGID_00000116914577815832828070000002976977829933192878_);fill:#2B2961;}
	.st96{clip-path:url(#SVGID_00000026845115298392622470000012818714443892332986_);fill:#2B2961;}
	.st97{clip-path:url(#SVGID_00000013157784424660034140000010279997279637655221_);fill:#2B2961;}
	.st98{clip-path:url(#SVGID_00000121963455488278887450000010923671826449566877_);fill:#2B2961;}
	.st99{clip-path:url(#SVGID_00000121963455488278887450000010923671826449566877_);fill:#6EC3BF;}
	.st100{clip-path:url(#SVGID_00000039853940181902232070000011595593997334405808_);fill:#2B2961;}
	.st101{clip-path:url(#SVGID_00000130605741630861724070000016979365183660821636_);fill:#2B2961;}
	.st102{clip-path:url(#SVGID_00000130605741630861724070000016979365183660821636_);fill:#6EC3BF;}
	.st103{clip-path:url(#SVGID_00000165928737542776360400000007583355775202616758_);fill:#2B2961;}
	.st104{clip-path:url(#SVGID_00000000936948282158479980000000709747088524820108_);fill:#FFFFFF;}
	.st105{clip-path:url(#SVGID_00000000936948282158479980000000709747088524820108_);fill:#2B2961;}
	.st106{clip-path:url(#SVGID_00000028282660870659818460000009402610075307089576_);fill:#6EC3BF;}
	.st107{clip-path:url(#SVGID_00000163794220062486890610000007534682298390922427_);fill:#2B2961;}
	.st108{clip-path:url(#SVGID_00000014602277800893198960000005108851890589339014_);fill:#2B2961;}
	.st109{clip-path:url(#SVGID_00000014602277800893198960000005108851890589339014_);fill:#FFFFFF;}
	.st110{clip-path:url(#SVGID_00000181771684405353508660000016472469257258168969_);fill:#6EC3BF;}
	.st111{clip-path:url(#SVGID_00000119822797954566677110000012058601091050297222_);fill:#2B2961;}
	.st112{clip-path:url(#SVGID_00000126285853533999974840000006039396534797641914_);fill:#2B2961;}
	.st113{clip-path:url(#SVGID_00000126285853533999974840000006039396534797641914_);fill:#6EC3BF;}
	.st114{clip-path:url(#SVGID_00000029031438038252926110000011399288968212341177_);fill:#2B2961;}
	.st115{clip-path:url(#SVGID_00000036223629376785247360000004414491727365069725_);fill:#6EC3BF;}
	.st116{clip-path:url(#SVGID_00000036223629376785247360000004414491727365069725_);fill:#2B2961;}
	.st117{clip-path:url(#SVGID_00000147900679270821708750000005187732872424808631_);fill:#2B2961;}
	.st118{clip-path:url(#SVGID_00000029742325085497444390000000470902590456343743_);fill:#FFFFFF;}
	.st119{clip-path:url(#SVGID_00000029742325085497444390000000470902590456343743_);}
	.st120{clip-path:url(#SVGID_00000071519559608457062230000018120907522419668378_);fill:#2B2961;}
	.st121{clip-path:url(#SVGID_00000029742325085497444390000000470902590456343743_);fill:#6EC3BF;}
	.st122{clip-path:url(#SVGID_00000098904473767000202970000009483568395488625813_);fill:#2B2961;}
	.st123{clip-path:url(#SVGID_00000029742325085497444390000000470902590456343743_);fill:#2B2961;}
	.st124{clip-path:url(#SVGID_00000088130254214209335690000017412589037475176885_);fill:#2B2961;}
	.st125{clip-path:url(#SVGID_00000005985645042772716430000007406557348694127008_);fill:#2B2961;}
	.st126{clip-path:url(#SVGID_00000139289197128735755210000003085116837322719393_);}
	.st127{clip-path:url(#SVGID_00000014621138464331441820000014712391260439468165_);}
	.st128{clip-path:url(#SVGID_00000078040562813233975760000013891883965888768651_);fill:#FFFFFF;}
	.st129{clip-path:url(#SVGID_00000034776295257971245840000011509713899349873811_);fill:#2B2961;}
	.st130{clip-path:url(#SVGID_00000062891429935097969400000008783801210975235759_);fill:#2B2961;}
	.st131{clip-path:url(#SVGID_00000062891429935097969400000008783801210975235759_);fill:#6EC3BF;}
	.st132{clip-path:url(#SVGID_00000062891429935097969400000008783801210975235759_);fill:#FFFFFF;}
	.st133{clip-path:url(#SVGID_00000137132207204756068860000000446149828835178368_);fill:#2B2961;}
	.st134{clip-path:url(#SVGID_00000137132207204756068860000000446149828835178368_);fill:#6EC3BF;}
	.st135{clip-path:url(#SVGID_00000182525894151599612450000013863564008516897711_);fill:#2B2961;}
	.st136{clip-path:url(#SVGID_00000111161117479710163200000011684133955128806534_);fill:#6EC3BF;}
	.st137{clip-path:url(#SVGID_00000111161117479710163200000011684133955128806534_);fill:#FFFFFF;}
	.st138{clip-path:url(#SVGID_00000027566474565824206720000017867014015994564540_);fill:#2B2961;}
	.st139{clip-path:url(#SVGID_00000027566474565824206720000017867014015994564540_);fill:#6EC3BF;}
	.st140{clip-path:url(#SVGID_00000088125982498675210120000003619147767844463260_);fill:#2B2961;}
	.st141{clip-path:url(#SVGID_00000109738667140002714970000000038543174222658479_);fill:#2B2961;}
	.st142{clip-path:url(#SVGID_00000109738667140002714970000000038543174222658479_);fill:#FFFFFF;}
	.st143{clip-path:url(#SVGID_00000049921319303602470140000003160737603299821483_);fill:#2B2961;}
	.st144{clip-path:url(#SVGID_00000015339084685917340520000003632242533594559416_);fill:#FFFFFF;}
	.st145{clip-path:url(#SVGID_00000168109931459256767330000004636005004653165502_);fill:#2B2961;}
	.st146{clip-path:url(#SVGID_00000052808653980652593680000009310643803700566441_);fill:#2B2961;}
	.st147{clip-path:url(#SVGID_00000052808653980652593680000009310643803700566441_);fill:#FFFFFF;}
	.st148{clip-path:url(#SVGID_00000003798058787172643630000008094205471265472688_);fill:#2B2961;}
	.st149{clip-path:url(#SVGID_00000080174713215237587790000006562344473179562422_);fill:#2B2961;}
	.st150{clip-path:url(#SVGID_00000080174713215237587790000006562344473179562422_);fill:#FFFFFF;}
	.st151{clip-path:url(#SVGID_00000016764286543759870630000004520891889023543978_);fill:#2B2961;}
	.st152{clip-path:url(#SVGID_00000016764286543759870630000004520891889023543978_);fill:#6EC3BF;}
	.st153{clip-path:url(#SVGID_00000038396779319044478850000012161388240876666009_);fill:#1D1D1B;}
	.st154{clip-path:url(#SVGID_00000038396779319044478850000012161388240876666009_);fill:#2B2961;}
	.st155{clip-path:url(#SVGID_00000038396779319044478850000012161388240876666009_);fill:#FFFFFF;}
	.st156{clip-path:url(#SVGID_00000053543453836612629670000011307234375860846248_);fill:#2B2961;}
	.st157{clip-path:url(#SVGID_00000044175697244905973420000011615374467728995764_);fill:#2B2961;}
	.st158{clip-path:url(#SVGID_00000145031886965423253980000017805182153697772684_);fill:#2B2961;}
	.st159{clip-path:url(#SVGID_00000145031886965423253980000017805182153697772684_);fill:#FFFFFF;}
	.st160{clip-path:url(#SVGID_00000145031886965423253980000017805182153697772684_);fill:#6EC3BF;}
	.st161{clip-path:url(#SVGID_00000095305366491294745820000006424207110125396634_);fill:#2B2961;}
	.st162{clip-path:url(#SVGID_00000016053411483474626740000013708999346572150147_);fill:#2B2961;}
	.st163{clip-path:url(#SVGID_00000036968842286760432010000002878565870221456774_);fill:#2B2961;}
	.st164{clip-path:url(#SVGID_00000166637619808664388720000013863956210963241380_);fill:#2B2961;}
	.st165{clip-path:url(#SVGID_00000166637619808664388720000013863956210963241380_);fill:#FFFFFF;}
	.st166{clip-path:url(#SVGID_00000013178836253238840560000006741912429028814507_);fill:#2B2961;}
	.st167{clip-path:url(#SVGID_00000013178836253238840560000006741912429028814507_);fill:#FFFFFF;}
	.st168{clip-path:url(#SVGID_00000114768390168245232730000018365738663814399902_);fill:#2B2961;}
	.st169{clip-path:url(#SVGID_00000018227377492597003390000013800469311029372345_);fill:#2B2961;}
	.st170{clip-path:url(#SVGID_00000018227377492597003390000013800469311029372345_);fill:#FFFFFF;}
	.st171{clip-path:url(#SVGID_00000094576326444579325620000014504709730968247207_);fill:#2B2961;}
	.st172{clip-path:url(#SVGID_00000148622120755902616570000016995908962478245804_);fill:#FFFFFF;}
	.st173{clip-path:url(#SVGID_00000051385580195687046990000016149532049795888800_);fill:#2B2961;}
	.st174{clip-path:url(#SVGID_00000051385580195687046990000016149532049795888800_);fill:#6EC3BF;}
	.st175{clip-path:url(#SVGID_00000176001031049050202490000000032016947966935718_);fill:#2B2961;}
	.st176{clip-path:url(#SVGID_00000032623825464552315090000011495625512649557389_);fill:#2B2961;}
	.st177{clip-path:url(#SVGID_00000064333590179124571890000003852448524666786709_);fill:#FFFFFF;}
	.st178{clip-path:url(#SVGID_00000098214346532582174100000000654725725186813588_);fill:#6EC3BF;}
	.st179{clip-path:url(#SVGID_00000098214346532582174100000000654725725186813588_);fill:#2B2961;}
	.st180{clip-path:url(#SVGID_00000065785264113931747790000012939207665049411513_);fill:#6EC3BF;}
	.st181{clip-path:url(#SVGID_00000035499918268410242010000004569130287841309831_);fill:#2B2961;}
	.st182{clip-path:url(#SVGID_00000083047240721431002940000017706456111185264820_);fill:#6EC3BF;}
	.st183{clip-path:url(#SVGID_00000083047240721431002940000017706456111185264820_);fill:#2B2961;}
	.st184{clip-path:url(#SVGID_00000150818263898166115720000004298115579924579257_);fill:#2B2961;}
	.st185{clip-path:url(#SVGID_00000124873261366590902220000005164563808572524186_);fill:#2B2961;}
	.st186{clip-path:url(#SVGID_00000134962258872890519980000009128077949279673271_);fill:#2B2961;}
	.st187{clip-path:url(#SVGID_00000080183385576160656990000014007269442478685332_);fill:#2B2961;}
	.st188{clip-path:url(#SVGID_00000091004140216587923260000007930897967432433851_);fill:#2B2961;}
	.st189{clip-path:url(#SVGID_00000179606024249547998520000004633365468977145524_);fill:#6EC3BF;}
	.st190{clip-path:url(#SVGID_00000179606024249547998520000004633365468977145524_);fill:#2B2961;}
	.st191{clip-path:url(#SVGID_00000168092951396277409270000013570037820530734014_);fill:#6EC3BF;}
	.st192{clip-path:url(#SVGID_00000168092951396277409270000013570037820530734014_);fill:#2B2961;}
	.st193{clip-path:url(#SVGID_00000125565215269302004450000009216773749083832253_);fill:#2B2961;}
	.st194{clip-path:url(#SVGID_00000042736044488788791740000012203359807538768572_);fill:#2B2961;}
	.st195{clip-path:url(#SVGID_00000140732367714018833810000001653756024229904290_);fill:#2B2961;}
	.st196{clip-path:url(#SVGID_00000024722457810621879610000007777914336513952945_);fill:#FFFFFF;}
	.st197{clip-path:url(#SVGID_00000029761361580394482500000012243422049136954524_);fill:#2B2961;}
	.st198{clip-path:url(#SVGID_00000183957697802715392200000000771984222635797911_);fill:#2B2961;}
	.st199{clip-path:url(#SVGID_00000183957697802715392200000000771984222635797911_);fill:#6EC3BF;}
	.st200{clip-path:url(#SVGID_00000054231347224031286230000016887637207124462258_);fill:#2B2961;}
	.st201{clip-path:url(#SVGID_00000088118455341648173050000015047062635928136321_);fill:#2B2961;}
	.st202{clip-path:url(#SVGID_00000083781168977911183100000011139663250891903649_);fill:#6EC3BF;}
	.st203{clip-path:url(#SVGID_00000083781168977911183100000011139663250891903649_);fill:#2B2961;}
	.st204{clip-path:url(#SVGID_00000083796327020933672920000011280452345926978718_);fill:#6EC3BF;}
	.st205{clip-path:url(#SVGID_00000083796327020933672920000011280452345926978718_);fill:#2B2961;}
	.st206{clip-path:url(#SVGID_00000117654329021300608080000000640470642852955534_);fill:#2B2961;}
	.st207{clip-path:url(#SVGID_00000181769180884829079260000004091716982907820421_);fill:#2B2961;}
	.st208{clip-path:url(#SVGID_00000181769180884829079260000004091716982907820421_);fill:#6EC3BF;}
	.st209{clip-path:url(#SVGID_00000170255259738087667780000010844317680389219774_);fill:#2B2961;}
	.st210{clip-path:url(#SVGID_00000170255259738087667780000010844317680389219774_);fill:#6EC3BF;}
	.st211{clip-path:url(#SVGID_00000070094064671203233120000010306305787338611336_);fill:#2B2961;}
	.st212{clip-path:url(#SVGID_00000070094064671203233120000010306305787338611336_);fill:#6EC3BF;}
	.st213{clip-path:url(#SVGID_00000088131678378373164840000002078128147026206097_);fill:#2B2961;}
	.st214{clip-path:url(#SVGID_00000066505100665440859650000018152347119918532031_);fill:#6EC3BF;}
	.st215{clip-path:url(#SVGID_00000066505100665440859650000018152347119918532031_);fill:#2B2961;}
	.st216{clip-path:url(#SVGID_00000072282077854734571590000017480429810119364005_);fill:#6EC3BF;}
	.st217{clip-path:url(#SVGID_00000072282077854734571590000017480429810119364005_);fill:#2B2961;}
	.st218{clip-path:url(#SVGID_00000129908717105237857630000015273981744412035459_);fill:#FFFFFF;}
	.st219{clip-path:url(#SVGID_00000129908717105237857630000015273981744412035459_);fill:#2B2961;}
	.st220{clip-path:url(#SVGID_00000062179831680494645170000012649068217302255283_);fill:#FFFFFF;}
	.st221{clip-path:url(#SVGID_00000062179831680494645170000012649068217302255283_);fill:#2B2961;}
	.st222{clip-path:url(#SVGID_00000022556853236351208020000000481496053055743635_);fill:#FFFFFF;}
	.st223{clip-path:url(#SVGID_00000022556853236351208020000000481496053055743635_);fill:#2B2961;}
	.st224{clip-path:url(#SVGID_00000133493080643183344520000000879783127409772679_);fill:#6EC3BF;}
	.st225{clip-path:url(#SVGID_00000133493080643183344520000000879783127409772679_);fill:#2B2961;}
	.st226{clip-path:url(#SVGID_00000026850546757504564980000002130368872644505278_);fill:#2B2961;}
	.st227{clip-path:url(#SVGID_00000026850546757504564980000002130368872644505278_);fill:#6EC3BF;}
	.st228{clip-path:url(#SVGID_00000032617049508603252290000003574020611356683692_);fill:#2B2961;}
	.st229{clip-path:url(#SVGID_00000016755180653093201420000016593045344269903806_);fill:#6EC3BF;}
	.st230{clip-path:url(#SVGID_00000016755180653093201420000016593045344269903806_);fill:#2B2961;}
	.st231{clip-path:url(#SVGID_00000097485649745226579530000018309404144734537381_);fill:#2B2961;}
	.st232{clip-path:url(#SVGID_00000042739051268084827190000008439996849177482427_);fill:#2B2961;}
	.st233{clip-path:url(#SVGID_00000042739051268084827190000008439996849177482427_);fill:#6EC3BF;}
	.st234{clip-path:url(#SVGID_00000126303274466442608550000005847548369300833195_);fill:#2B2961;}
	.st235{clip-path:url(#SVGID_00000153697979805998033410000014738062746807267239_);fill:#FFFFFF;}
	.st236{clip-path:url(#SVGID_00000153697979805998033410000014738062746807267239_);fill:#2B2961;}
	.st237{fill:#2C265F;}
	.st238{clip-path:url(#SVGID_00000036229551882809768180000017096688662481281187_);fill:#2B2961;}
	.st239{clip-path:url(#SVGID_00000036229551882809768180000017096688662481281187_);fill:#6EC3BF;}
	.st240{fill:#61B87A;}
	.st241{clip-path:url(#SVGID_00000017475995676384161050000014845019062397614228_);fill:#2B2961;}
	.st242{clip-path:url(#SVGID_00000071541819347929478820000011368275090869104541_);fill:#2B2961;}
	.st243{clip-path:url(#SVGID_00000031892760820593390500000000932857873219508626_);fill:#2B2961;}
	.st244{clip-path:url(#SVGID_00000003081088048026688770000008699272511554458033_);fill:#2B2961;}
	.st245{clip-path:url(#SVGID_00000003081088048026688770000008699272511554458033_);fill:#61B87A;}
	.st246{clip-path:url(#SVGID_00000003081088048026688770000008699272511554458033_);fill:#FFFFFF;}
	.st247{clip-path:url(#SVGID_00000156560136768437544480000016034278991035779981_);fill:#2B2961;}
	.st248{clip-path:url(#SVGID_00000156560136768437544480000016034278991035779981_);fill:#61B87A;}
	.st249{clip-path:url(#SVGID_00000084503695622346035750000005848653571801103294_);fill:#2B2961;}
	.st250{clip-path:url(#SVGID_00000012432879480982237720000006006498016097199019_);fill:#6EC3BF;}
	.st251{clip-path:url(#SVGID_00000012432879480982237720000006006498016097199019_);fill:#2B2961;}
	.st252{clip-path:url(#SVGID_00000144336365314232264670000012654733276984568973_);fill:#2B2961;}
	.st253{clip-path:url(#SVGID_00000144336365314232264670000012654733276984568973_);fill:#6EC3BF;}
	.st254{clip-path:url(#SVGID_00000125569848971987556620000010079276912356354183_);fill:#2B2961;}
	.st255{clip-path:url(#SVGID_00000125569848971987556620000010079276912356354183_);fill:#6EC3BF;}
</style>
<g>
	<polygon class="st0" points="148.39,21.5 154.9,29.27 124.05,56.19 101,33.77 66.42,72.2 35.04,50 4.94,89.49 4.94,104.58 
		35.04,65.08 66.42,87.29 101,48.86 124.05,71.27 162.17,37.92 168.44,45.41 170.35,23.64 	"/>
	<path class="st0" d="M4.94,105.15c-0.06,0-0.12-0.01-0.18-0.03c-0.23-0.08-0.39-0.3-0.39-0.54V89.49c0-0.12,0.04-0.25,0.11-0.35
		l30.1-39.49c0.19-0.24,0.53-0.29,0.79-0.12l30.97,21.91l34.24-38.05c0.11-0.12,0.25-0.18,0.41-0.19c0.11-0.02,0.3,0.05,0.41,0.16
		l22.68,22.05l30.03-26.21l-6.15-7.33c-0.15-0.18-0.18-0.43-0.07-0.63c0.1-0.2,0.31-0.32,0.56-0.3l21.96,2.13
		c0.31,0.03,0.54,0.31,0.52,0.62l-1.91,21.77c-0.02,0.23-0.18,0.42-0.4,0.49c-0.22,0.07-0.46,0-0.61-0.18l-5.9-7.04L124.43,71.7
		c-0.23,0.2-0.56,0.18-0.77-0.02l-22.63-22L66.84,87.67c-0.19,0.22-0.51,0.25-0.75,0.08L35.15,65.86L5.39,104.92
		C5.28,105.07,5.11,105.15,4.94,105.15z M5.51,89.68v13.21l29.07-38.15c0.19-0.24,0.53-0.3,0.79-0.12l30.97,21.91l34.24-38.05
		c0.11-0.12,0.25-0.18,0.41-0.19c0.11-0.01,0.3,0.06,0.41,0.16l22.68,22.04l37.72-33c0.12-0.1,0.29-0.15,0.42-0.14
		c0.15,0.01,0.3,0.08,0.39,0.2l5.39,6.43l1.73-19.84l-20.01-1.94l5.61,6.69c0.2,0.24,0.17,0.59-0.06,0.8l-30.85,26.92
		c-0.24,0.2-0.56,0.18-0.77-0.02l-22.63-22L66.84,72.58c-0.19,0.22-0.51,0.25-0.75,0.08L35.15,50.78L5.51,89.68z"/>
	<g>
		<defs>
			<rect id="SVGID_00000053518579338854696630000003930598504019886494_" y="4.54" width="512" height="104.66"/>
		</defs>
		<clipPath id="SVGID_00000008858086171667205830000001684059347032137606_">
			<use xlink:href="#SVGID_00000053518579338854696630000003930598504019886494_"  style="overflow:visible;"/>
		</clipPath>
		<path style="clip-path:url(#SVGID_00000008858086171667205830000001684059347032137606_);fill:#2B2961;" d="M201.72,108.56H1.35
			c-0.75,0-1.35-0.61-1.35-1.36V10.51c0-0.75,0.6-1.36,1.35-1.36s1.35,0.61,1.35,1.36v95.34h199.02c0.75,0,1.35,0.61,1.35,1.36
			S202.48,108.56,201.72,108.56z"/>
		<path style="clip-path:url(#SVGID_00000008858086171667205830000001684059347032137606_);fill:#2B2961;" d="M1.35,108.57
			c-0.15,0-0.29-0.02-0.43-0.07c-0.55-0.19-0.92-0.7-0.92-1.28V92.12c0-0.3,0.1-0.59,0.28-0.82l30.1-39.49
			c0.44-0.58,1.27-0.7,1.86-0.28l30.4,21.5L96.41,35.5c0.25-0.27,0.59-0.44,0.96-0.45c0.29-0.04,0.72,0.13,0.99,0.38l22.16,21.55
			l28.91-25.23l-5.66-6.74c-0.36-0.42-0.42-1.02-0.16-1.5c0.26-0.49,0.79-0.77,1.33-0.72l21.96,2.13c0.74,0.07,1.28,0.73,1.22,1.47
			l-1.91,21.77c-0.05,0.55-0.42,1.01-0.94,1.17c-0.51,0.16-1.09,0-1.44-0.42l-5.39-6.42l-37.07,32.44
			c-0.53,0.46-1.33,0.44-1.84-0.05L97.48,53.45L63.84,90.83c-0.46,0.51-1.24,0.59-1.79,0.2L31.74,69.58L2.43,108.03
			C2.17,108.38,1.77,108.57,1.35,108.57z M2.71,92.58v10.62l27.67-36.3c0.44-0.58,1.27-0.7,1.86-0.28l30.4,21.51l33.77-37.53
			c0.25-0.27,0.59-0.44,0.96-0.45c0.29-0.05,0.72,0.13,0.99,0.38l22.16,21.54l37.17-32.53c0.27-0.24,0.6-0.37,1-0.33
			c0.36,0.03,0.7,0.2,0.93,0.48l4.18,4.98l1.5-17.17l-17.32-1.68l4.38,5.22c0.48,0.57,0.41,1.41-0.15,1.89l-30.85,26.92
			c-0.53,0.46-1.33,0.44-1.84-0.05L97.48,38.36L63.84,75.74c-0.46,0.51-1.24,0.59-1.79,0.2L31.74,54.5L2.71,92.58z"/>
		<path style="clip-path:url(#SVGID_00000008858086171667205830000001684059347032137606_);fill:#6EC3BF;" d="M326.87,31.15
			c0,0-5.09-16.42-10.51-21.1c-0.62-0.53-1.29-0.93-1.99-1.25c-5.41-3-21.83-3.53-21.83-3.53s5.09,16.43,10.52,21.11
			c0.61,0.53,1.29,0.93,1.99,1.25C310.45,30.62,326.87,31.15,326.87,31.15"/>
		<path style="clip-path:url(#SVGID_00000008858086171667205830000001684059347032137606_);fill:#6EC3BF;" d="M326.87,31.72
			c0,0-0.01,0-0.02,0c-0.68-0.02-16.62-0.57-22.08-3.6c-0.78-0.36-1.47-0.79-2.08-1.31C297.2,22.07,292.2,6.11,292,5.43
			c-0.06-0.18-0.02-0.37,0.09-0.51c0.11-0.15,0.33-0.22,0.47-0.22c0.68,0.02,16.62,0.57,22.09,3.6c0.79,0.36,1.48,0.8,2.08,1.32
			c5.48,4.73,10.48,20.68,10.69,21.36c0.06,0.18,0.02,0.37-0.09,0.51C327.21,31.64,327.04,31.72,326.87,31.72z M293.33,5.87
			c1.08,3.29,5.52,16.13,10.1,20.07c0.52,0.45,1.13,0.83,1.85,1.16c4.58,2.54,17.43,3.29,20.79,3.45
			c-1.08-3.29-5.52-16.12-10.09-20.07c-0.52-0.45-1.13-0.83-1.85-1.17C309.54,6.77,296.69,6.02,293.33,5.87z"/>
		<path style="clip-path:url(#SVGID_00000008858086171667205830000001684059347032137606_);fill:#6EC3BF;" d="M402.63,31.15
			c0,0-5.09-16.42-10.51-21.1c-0.62-0.53-1.29-0.93-1.99-1.25c-5.41-3-21.83-3.53-21.83-3.53s5.09,16.43,10.52,21.11
			c0.61,0.53,1.29,0.93,1.99,1.25C386.21,30.62,402.63,31.15,402.63,31.15"/>
		<path style="clip-path:url(#SVGID_00000008858086171667205830000001684059347032137606_);fill:#6EC3BF;" d="M402.63,31.72
			c0,0-0.01,0-0.02,0c-0.68-0.02-16.62-0.57-22.08-3.6c-0.78-0.36-1.47-0.79-2.08-1.31c-5.48-4.73-10.48-20.69-10.69-21.37
			c-0.06-0.18-0.02-0.37,0.09-0.51c0.11-0.14,0.28-0.22,0.45-0.22c0,0,0.01,0,0.02,0c0.68,0.02,16.63,0.57,22.09,3.6
			c0.79,0.36,1.48,0.8,2.08,1.32c5.48,4.73,10.48,20.68,10.69,21.36c0.06,0.18,0.02,0.37-0.09,0.51
			C402.98,31.64,402.81,31.72,402.63,31.72z M369.09,5.87c1.08,3.29,5.52,16.13,10.1,20.07c0.53,0.45,1.13,0.83,1.86,1.16
			c4.58,2.54,17.43,3.29,20.79,3.45c-1.08-3.29-5.52-16.12-10.09-20.07c-0.52-0.45-1.13-0.83-1.86-1.17
			C385.31,6.78,372.45,6.02,369.09,5.87z"/>
		<path style="clip-path:url(#SVGID_00000008858086171667205830000001684059347032137606_);fill:#6EC3BF;" d="M476.82,31.15
			c0,0-5.09-16.42-10.51-21.1c-0.62-0.53-1.29-0.93-1.99-1.25c-5.41-3-21.83-3.53-21.83-3.53s5.09,16.43,10.52,21.11
			c0.61,0.53,1.29,0.93,1.99,1.25C460.4,30.62,476.82,31.15,476.82,31.15"/>
		<path style="clip-path:url(#SVGID_00000008858086171667205830000001684059347032137606_);fill:#6EC3BF;" d="M476.82,31.72
			c0,0-0.01,0-0.02,0c-0.68-0.02-16.62-0.57-22.08-3.6c-0.78-0.36-1.47-0.79-2.08-1.31c-5.48-4.73-10.48-20.69-10.69-21.37
			c-0.06-0.18-0.02-0.37,0.09-0.51c0.11-0.14,0.28-0.22,0.45-0.22c0,0,0.01,0,0.02,0c0.68,0.02,16.62,0.57,22.08,3.6
			c0.79,0.36,1.48,0.8,2.08,1.32c5.48,4.73,10.48,20.68,10.69,21.36c0.06,0.18,0.02,0.37-0.09,0.51
			C477.17,31.64,477,31.72,476.82,31.72z M443.29,5.87c1.08,3.29,5.52,16.13,10.09,20.07c0.53,0.45,1.13,0.83,1.86,1.16
			c4.58,2.54,17.43,3.29,20.79,3.45c-1.08-3.29-5.52-16.12-10.09-20.07c-0.52-0.45-1.13-0.83-1.86-1.17
			C459.5,6.78,446.64,6.02,443.29,5.87z"/>
		<path style="clip-path:url(#SVGID_00000008858086171667205830000001684059347032137606_);fill:#6EC3BF;" d="M326.87,58.25
			c0,0-5.09-16.42-10.51-21.1c-0.62-0.53-1.29-0.93-1.99-1.25c-5.41-3-21.83-3.53-21.83-3.53s5.09,16.43,10.52,21.11
			c0.61,0.53,1.29,0.93,1.99,1.25C310.45,57.72,326.87,58.25,326.87,58.25"/>
		<path style="clip-path:url(#SVGID_00000008858086171667205830000001684059347032137606_);fill:#6EC3BF;" d="M326.87,58.82
			c0,0-0.01,0-0.02,0c-0.68-0.02-16.62-0.57-22.08-3.6c-0.78-0.36-1.47-0.79-2.08-1.31C297.2,49.17,292.2,33.21,292,32.53
			c-0.06-0.18-0.02-0.37,0.09-0.51c0.11-0.14,0.33-0.22,0.47-0.22c0.68,0.02,16.62,0.57,22.09,3.6c0.79,0.36,1.48,0.8,2.08,1.32
			c5.48,4.73,10.48,20.69,10.69,21.36c0.06,0.18,0.02,0.37-0.09,0.51C327.21,58.73,327.04,58.82,326.87,58.82z M293.33,32.96
			c1.08,3.29,5.52,16.13,10.1,20.07c0.52,0.45,1.13,0.83,1.85,1.16c4.58,2.54,17.43,3.29,20.79,3.45
			c-1.08-3.29-5.52-16.12-10.09-20.07c-0.52-0.45-1.13-0.83-1.85-1.17C309.54,33.87,296.69,33.12,293.33,32.96z"/>
		<path style="clip-path:url(#SVGID_00000008858086171667205830000001684059347032137606_);fill:#6EC3BF;" d="M402.63,58.25
			c0,0-5.09-16.42-10.51-21.1c-0.62-0.53-1.29-0.93-1.99-1.25c-5.41-3-21.83-3.53-21.83-3.53s5.09,16.43,10.52,21.11
			c0.61,0.53,1.29,0.93,1.99,1.25C386.21,57.71,402.63,58.25,402.63,58.25"/>
		<path style="clip-path:url(#SVGID_00000008858086171667205830000001684059347032137606_);fill:#6EC3BF;" d="M402.63,58.82
			c0,0-0.01,0-0.02,0c-0.68-0.02-16.62-0.57-22.08-3.6c-0.78-0.36-1.47-0.79-2.08-1.31c-5.48-4.73-10.48-20.69-10.69-21.37
			c-0.06-0.18-0.02-0.37,0.09-0.51c0.11-0.14,0.28-0.22,0.45-0.22c0,0,0.01,0,0.02,0c0.68,0.02,16.63,0.57,22.09,3.6
			c0.79,0.36,1.48,0.8,2.08,1.32c5.48,4.73,10.48,20.69,10.69,21.36c0.06,0.18,0.02,0.37-0.09,0.51
			C402.98,58.73,402.81,58.82,402.63,58.82z M369.09,32.96c1.08,3.29,5.52,16.13,10.1,20.07c0.53,0.45,1.13,0.83,1.86,1.16
			c4.58,2.54,17.43,3.29,20.79,3.45c-1.08-3.29-5.52-16.12-10.09-20.07c-0.52-0.45-1.13-0.83-1.86-1.17
			C385.31,33.87,372.45,33.12,369.09,32.96z"/>
		<path style="clip-path:url(#SVGID_00000008858086171667205830000001684059347032137606_);fill:#6EC3BF;" d="M476.82,58.25
			c0,0-5.09-16.42-10.51-21.1c-0.62-0.53-1.29-0.93-1.99-1.25c-5.41-3-21.83-3.53-21.83-3.53s5.09,16.43,10.52,21.11
			c0.61,0.53,1.29,0.93,1.99,1.25C460.4,57.72,476.82,58.25,476.82,58.25"/>
		<path style="clip-path:url(#SVGID_00000008858086171667205830000001684059347032137606_);fill:#6EC3BF;" d="M476.82,58.82
			c0,0-0.01,0-0.02,0c-0.68-0.02-16.62-0.57-22.08-3.6c-0.78-0.36-1.47-0.79-2.08-1.31c-5.49-4.73-10.48-20.69-10.69-21.37
			c-0.06-0.18-0.02-0.37,0.09-0.51c0.11-0.14,0.28-0.22,0.45-0.22c0,0,0.01,0,0.02,0c0.68,0.02,16.63,0.57,22.09,3.6
			c0.79,0.36,1.48,0.8,2.08,1.32c5.48,4.73,10.48,20.69,10.69,21.36c0.06,0.18,0.02,0.37-0.09,0.51
			C477.17,58.73,477,58.82,476.82,58.82z M443.28,32.96c1.08,3.29,5.52,16.13,10.1,20.07c0.53,0.45,1.13,0.83,1.86,1.16
			c4.58,2.54,17.43,3.29,20.79,3.45c-1.08-3.29-5.52-16.12-10.09-20.07c-0.52-0.45-1.13-0.83-1.86-1.17
			C459.5,33.87,446.64,33.12,443.28,32.96z"/>
		<path style="clip-path:url(#SVGID_00000008858086171667205830000001684059347032137606_);fill:#6EC3BF;" d="M326.87,84.93
			c0,0-5.09-16.42-10.51-21.1c-0.62-0.53-1.29-0.93-1.99-1.25c-5.41-3-21.83-3.53-21.83-3.53s5.09,16.43,10.52,21.11
			c0.61,0.53,1.29,0.93,1.99,1.25C310.45,84.39,326.87,84.93,326.87,84.93"/>
		<path style="clip-path:url(#SVGID_00000008858086171667205830000001684059347032137606_);fill:#6EC3BF;" d="M326.87,85.5
			c0,0-0.01,0-0.02,0c-0.68-0.02-16.62-0.57-22.08-3.6c-0.78-0.35-1.47-0.79-2.08-1.31C297.2,75.85,292.2,59.89,292,59.21
			c-0.06-0.18-0.02-0.37,0.09-0.51c0.11-0.15,0.33-0.22,0.47-0.22c0.68,0.02,16.62,0.57,22.09,3.61c0.79,0.36,1.48,0.8,2.08,1.32
			c5.48,4.73,10.48,20.69,10.69,21.36c0.06,0.18,0.02,0.37-0.09,0.51C327.21,85.41,327.04,85.5,326.87,85.5z M293.33,59.64
			c1.08,3.29,5.52,16.13,10.1,20.07c0.53,0.45,1.13,0.83,1.85,1.16c4.58,2.54,17.43,3.29,20.79,3.45
			c-1.08-3.29-5.52-16.12-10.09-20.07c-0.52-0.45-1.13-0.83-1.85-1.16C309.54,60.55,296.69,59.8,293.33,59.64z"/>
		<path style="clip-path:url(#SVGID_00000008858086171667205830000001684059347032137606_);fill:#6EC3BF;" d="M402.63,84.93
			c0,0-5.09-16.42-10.51-21.1c-0.62-0.53-1.29-0.93-1.99-1.25c-5.41-3-21.83-3.53-21.83-3.53s5.09,16.42,10.52,21.1
			c0.61,0.53,1.29,0.93,1.99,1.25C386.21,84.39,402.63,84.93,402.63,84.93"/>
		<path style="clip-path:url(#SVGID_00000008858086171667205830000001684059347032137606_);fill:#6EC3BF;" d="M402.63,85.5
			c0,0-0.01,0-0.02,0c-0.68-0.02-16.62-0.57-22.08-3.6c-0.78-0.36-1.47-0.79-2.08-1.31c-5.48-4.73-10.48-20.69-10.69-21.36
			c-0.06-0.18-0.02-0.37,0.09-0.51c0.11-0.14,0.28-0.22,0.45-0.22c0,0,0.01,0,0.02,0c0.68,0.02,16.62,0.57,22.09,3.6
			c0.79,0.36,1.48,0.8,2.08,1.32c5.48,4.73,10.48,20.68,10.69,21.36c0.06,0.18,0.02,0.37-0.09,0.51
			C402.98,85.41,402.81,85.5,402.63,85.5z M369.1,59.65c1.08,3.29,5.52,16.12,10.09,20.07c0.53,0.45,1.13,0.83,1.86,1.16
			c4.58,2.54,17.43,3.29,20.79,3.45c-1.08-3.29-5.52-16.12-10.09-20.07c-0.52-0.45-1.13-0.83-1.85-1.17
			C385.31,60.55,372.46,59.8,369.1,59.65z"/>
		<path style="clip-path:url(#SVGID_00000008858086171667205830000001684059347032137606_);fill:#6EC3BF;" d="M476.82,84.93
			c0,0-5.09-16.42-10.51-21.1c-0.62-0.53-1.29-0.93-1.99-1.25c-5.41-3-21.83-3.53-21.83-3.53s5.09,16.43,10.52,21.11
			c0.61,0.53,1.29,0.93,1.99,1.25C460.4,84.39,476.82,84.93,476.82,84.93"/>
		<path style="clip-path:url(#SVGID_00000008858086171667205830000001684059347032137606_);fill:#6EC3BF;" d="M476.82,85.5
			c0,0-0.01,0-0.02,0c-0.68-0.02-16.62-0.57-22.08-3.6c-0.78-0.35-1.47-0.79-2.08-1.31c-5.49-4.73-10.48-20.69-10.69-21.37
			c-0.06-0.18-0.02-0.37,0.09-0.51c0.11-0.14,0.28-0.22,0.45-0.22c0,0,0.01,0,0.02,0c0.68,0.02,16.63,0.57,22.09,3.61
			c0.79,0.36,1.48,0.8,2.08,1.32c5.48,4.73,10.48,20.69,10.69,21.36c0.06,0.18,0.02,0.37-0.09,0.51
			C477.17,85.41,477,85.5,476.82,85.5z M443.28,59.64c1.08,3.29,5.52,16.13,10.1,20.07c0.53,0.45,1.14,0.83,1.86,1.16
			c4.58,2.54,17.43,3.29,20.79,3.45c-1.08-3.29-5.52-16.12-10.09-20.07c-0.53-0.45-1.13-0.83-1.86-1.16
			C459.5,60.55,446.64,59.8,443.28,59.64z"/>
		<path style="clip-path:url(#SVGID_00000008858086171667205830000001684059347032137606_);fill:#6EC3BF;" d="M327.15,40.76
			c0,0,5.09-16.42,10.51-21.1c0.62-0.53,1.29-0.93,1.99-1.25c5.41-3,21.83-3.53,21.83-3.53s-5.09,16.43-10.52,21.11
			c-0.61,0.53-1.29,0.93-1.99,1.25C343.57,40.23,327.15,40.76,327.15,40.76"/>
		<path style="clip-path:url(#SVGID_00000008858086171667205830000001684059347032137606_);fill:#6EC3BF;" d="M327.15,41.33
			c-0.18,0-0.34-0.08-0.45-0.22c-0.11-0.15-0.15-0.34-0.09-0.51c0.21-0.68,5.2-16.63,10.69-21.36c0.6-0.52,1.3-0.96,2.12-1.34
			c5.43-3.01,21.37-3.56,22.05-3.59c0,0,0.01,0,0.02,0c0.18,0,0.34,0.08,0.45,0.22c0.11,0.15,0.15,0.34,0.09,0.51
			c-0.21,0.68-5.2,16.64-10.69,21.37c-0.6,0.52-1.29,0.95-2.12,1.33c-5.42,3.02-21.37,3.56-22.04,3.59
			C327.16,41.33,327.15,41.33,327.15,41.33z M360.68,15.48c-3.36,0.16-16.21,0.91-20.76,3.43c-0.76,0.35-1.37,0.73-1.89,1.19
			c-4.58,3.95-9.01,16.78-10.09,20.07c3.36-0.15,16.21-0.9,20.75-3.43c0.77-0.36,1.38-0.74,1.89-1.18
			C355.17,31.6,359.6,18.77,360.68,15.48z"/>
		<path style="clip-path:url(#SVGID_00000008858086171667205830000001684059347032137606_);fill:#6EC3BF;" d="M402.91,40.76
			c0,0,5.09-16.42,10.51-21.1c0.62-0.53,1.29-0.93,1.99-1.25c5.41-3,21.82-3.53,21.82-3.53s-5.09,16.43-10.51,21.11
			c-0.61,0.53-1.29,0.93-1.99,1.25C419.33,40.23,402.91,40.76,402.91,40.76"/>
		<path style="clip-path:url(#SVGID_00000008858086171667205830000001684059347032137606_);fill:#6EC3BF;" d="M402.91,41.33
			c-0.18,0-0.34-0.08-0.45-0.22c-0.11-0.15-0.15-0.34-0.09-0.51c0.21-0.68,5.2-16.63,10.69-21.36c0.6-0.52,1.3-0.96,2.12-1.34
			c5.42-3.01,21.37-3.56,22.04-3.59c0,0,0.01,0,0.02,0c0.18,0,0.34,0.08,0.45,0.22c0.11,0.15,0.15,0.34,0.09,0.51
			c-0.21,0.68-5.2,16.64-10.69,21.37c-0.6,0.52-1.29,0.95-2.12,1.33c-5.42,3.01-21.37,3.56-22.04,3.59
			C402.93,41.33,402.92,41.33,402.91,41.33z M436.45,15.48c-3.36,0.16-16.21,0.91-20.75,3.43c-0.77,0.36-1.38,0.74-1.9,1.19
			c-4.58,3.95-9.01,16.78-10.09,20.07c3.36-0.16,16.21-0.9,20.75-3.43c0.77-0.35,1.38-0.73,1.9-1.18
			C430.94,31.6,435.37,18.77,436.45,15.48z"/>
		<path style="clip-path:url(#SVGID_00000008858086171667205830000001684059347032137606_);fill:#6EC3BF;" d="M477.1,40.76
			c0,0,5.09-16.42,10.51-21.1c0.62-0.53,1.29-0.93,1.99-1.25c5.41-3,21.83-3.53,21.83-3.53s-5.09,16.43-10.52,21.11
			c-0.61,0.53-1.29,0.93-1.99,1.25C493.52,40.23,477.1,40.76,477.1,40.76"/>
		<path style="clip-path:url(#SVGID_00000008858086171667205830000001684059347032137606_);fill:#6EC3BF;" d="M477.1,41.33
			c-0.18,0-0.34-0.08-0.45-0.22c-0.11-0.15-0.15-0.34-0.09-0.51c0.21-0.68,5.2-16.63,10.69-21.36c0.6-0.52,1.3-0.96,2.12-1.34
			c5.42-3.01,21.37-3.56,22.05-3.59c0,0,0.01,0,0.02,0c0.18,0,0.34,0.08,0.45,0.22c0.11,0.15,0.15,0.34,0.09,0.51
			c-0.21,0.68-5.21,16.64-10.69,21.37c-0.61,0.52-1.31,0.96-2.12,1.33c-5.42,3.01-21.37,3.56-22.04,3.59
			C477.11,41.33,477.1,41.33,477.1,41.33z M510.64,15.48c-3.36,0.16-16.21,0.91-20.76,3.43c-0.77,0.36-1.38,0.74-1.9,1.19
			c-4.58,3.95-9.01,16.78-10.09,20.07c3.36-0.16,16.21-0.9,20.75-3.43c0.76-0.35,1.37-0.73,1.9-1.18
			C505.12,31.6,509.56,18.77,510.64,15.48z"/>
		<path style="clip-path:url(#SVGID_00000008858086171667205830000001684059347032137606_);fill:#6EC3BF;" d="M327.15,67.86
			c0,0,5.09-16.42,10.51-21.1c0.62-0.53,1.29-0.93,1.99-1.25c5.41-3,21.83-3.53,21.83-3.53s-5.09,16.43-10.52,21.11
			c-0.61,0.53-1.29,0.93-1.99,1.25C343.57,67.33,327.15,67.86,327.15,67.86"/>
		<path style="clip-path:url(#SVGID_00000008858086171667205830000001684059347032137606_);fill:#6EC3BF;" d="M327.15,68.43
			c-0.18,0-0.34-0.08-0.45-0.22c-0.11-0.15-0.15-0.34-0.09-0.51c0.21-0.68,5.2-16.63,10.68-21.36c0.61-0.52,1.31-0.96,2.12-1.34
			c5.43-3.01,21.37-3.56,22.05-3.59c0,0,0.01,0,0.02,0c0.18,0,0.34,0.08,0.45,0.22c0.11,0.15,0.15,0.34,0.09,0.51
			c-0.21,0.68-5.2,16.64-10.69,21.37c-0.6,0.52-1.29,0.95-2.12,1.33c-5.42,3.01-21.37,3.56-22.04,3.59
			C327.16,68.43,327.15,68.43,327.15,68.43z M360.68,42.58c-3.36,0.16-16.21,0.91-20.76,3.43c-0.76,0.35-1.37,0.73-1.9,1.19
			c-4.57,3.94-9.01,16.78-10.09,20.07c3.36-0.16,16.21-0.9,20.75-3.43c0.77-0.35,1.38-0.73,1.9-1.18
			C355.17,58.7,359.6,45.86,360.68,42.58z"/>
		<path style="clip-path:url(#SVGID_00000008858086171667205830000001684059347032137606_);fill:#6EC3BF;" d="M402.91,67.86
			c0,0,5.09-16.42,10.51-21.1c0.62-0.53,1.29-0.93,1.99-1.25c5.41-3,21.83-3.53,21.83-3.53s-5.09,16.43-10.52,21.11
			c-0.61,0.53-1.29,0.93-1.99,1.25C419.33,67.33,402.91,67.86,402.91,67.86"/>
		<path style="clip-path:url(#SVGID_00000008858086171667205830000001684059347032137606_);fill:#6EC3BF;" d="M402.91,68.43
			c-0.18,0-0.34-0.08-0.45-0.22c-0.11-0.15-0.15-0.34-0.09-0.51c0.21-0.68,5.2-16.63,10.69-21.36c0.6-0.52,1.29-0.96,2.12-1.34
			c5.42-3.01,21.37-3.56,22.05-3.59c0,0,0.01,0,0.02,0c0.18,0,0.34,0.08,0.45,0.22c0.11,0.15,0.15,0.34,0.09,0.51
			c-0.21,0.68-5.2,16.64-10.69,21.37c-0.6,0.52-1.3,0.96-2.12,1.33c-5.42,3.01-21.37,3.56-22.04,3.59
			C402.93,68.43,402.92,68.43,402.91,68.43z M436.45,42.58c-3.36,0.16-16.21,0.9-20.76,3.43c-0.77,0.36-1.38,0.74-1.9,1.18
			c-4.58,3.95-9.01,16.78-10.09,20.07c3.36-0.16,16.21-0.91,20.75-3.43c0.77-0.35,1.38-0.73,1.9-1.18
			C430.94,58.7,435.37,45.86,436.45,42.58z"/>
		<path style="clip-path:url(#SVGID_00000008858086171667205830000001684059347032137606_);fill:#6EC3BF;" d="M477.1,67.86
			c0,0,5.09-16.42,10.51-21.1c0.62-0.53,1.29-0.93,1.99-1.25c5.41-3,21.83-3.53,21.83-3.53s-5.09,16.43-10.52,21.11
			c-0.61,0.53-1.29,0.93-1.99,1.25C493.52,67.33,477.1,67.86,477.1,67.86"/>
		<path style="clip-path:url(#SVGID_00000008858086171667205830000001684059347032137606_);fill:#6EC3BF;" d="M477.1,68.43
			c-0.18,0-0.34-0.08-0.45-0.22c-0.11-0.15-0.15-0.34-0.09-0.51c0.21-0.68,5.2-16.63,10.69-21.36c0.6-0.52,1.29-0.96,2.12-1.34
			c5.42-3.01,21.37-3.56,22.05-3.59c0,0,0.01,0,0.02,0c0.18,0,0.34,0.08,0.45,0.22c0.11,0.15,0.15,0.34,0.09,0.51
			c-0.21,0.68-5.21,16.64-10.69,21.37c-0.61,0.52-1.31,0.96-2.12,1.33c-5.42,3.01-21.37,3.56-22.04,3.59
			C477.11,68.43,477.1,68.43,477.1,68.43z M510.64,42.58c-3.36,0.16-16.21,0.9-20.76,3.43c-0.77,0.36-1.38,0.74-1.9,1.18
			c-4.58,3.95-9.01,16.78-10.09,20.07c3.36-0.16,16.21-0.91,20.75-3.43c0.76-0.35,1.37-0.73,1.9-1.18
			C505.12,58.7,509.56,45.86,510.64,42.58z"/>
		<path style="clip-path:url(#SVGID_00000008858086171667205830000001684059347032137606_);fill:#6EC3BF;" d="M327.15,94.54
			c0,0,5.09-16.42,10.51-21.1c0.62-0.53,1.29-0.93,1.99-1.25c5.41-3,21.83-3.53,21.83-3.53s-5.09,16.43-10.52,21.1
			c-0.61,0.53-1.29,0.93-1.99,1.25C343.57,94.01,327.15,94.54,327.15,94.54"/>
		<path style="clip-path:url(#SVGID_00000008858086171667205830000001684059347032137606_);fill:#6EC3BF;" d="M327.15,95.11
			c-0.18,0-0.34-0.08-0.45-0.22c-0.11-0.15-0.15-0.34-0.09-0.51c0.21-0.68,5.2-16.63,10.68-21.36c0.61-0.52,1.3-0.96,2.12-1.34
			c5.43-3.01,21.37-3.56,22.05-3.59c0,0,0.01,0,0.02,0c0.18,0,0.34,0.08,0.45,0.22c0.11,0.15,0.15,0.34,0.09,0.51
			c-0.21,0.68-5.2,16.64-10.69,21.36c-0.6,0.52-1.29,0.96-2.12,1.34c-5.42,3.01-21.37,3.56-22.04,3.59
			C327.16,95.11,327.15,95.11,327.15,95.11z M360.68,69.26c-3.36,0.16-16.21,0.9-20.76,3.43c-0.76,0.35-1.37,0.73-1.9,1.19
			c-4.57,3.94-9.01,16.78-10.09,20.07c3.36-0.16,16.21-0.9,20.75-3.43c0.77-0.36,1.38-0.74,1.89-1.18
			C355.17,85.38,359.6,72.54,360.68,69.26z"/>
		<path style="clip-path:url(#SVGID_00000008858086171667205830000001684059347032137606_);fill:#6EC3BF;" d="M402.91,94.54
			c0,0,5.09-16.42,10.51-21.1c0.62-0.53,1.29-0.93,1.99-1.25c5.41-3,21.83-3.53,21.83-3.53s-5.09,16.43-10.52,21.11
			c-0.61,0.53-1.29,0.93-1.99,1.25C419.33,94.01,402.91,94.54,402.91,94.54"/>
		<path style="clip-path:url(#SVGID_00000008858086171667205830000001684059347032137606_);fill:#6EC3BF;" d="M402.91,95.11
			c-0.18,0-0.34-0.08-0.45-0.22c-0.11-0.15-0.15-0.34-0.09-0.51c0.21-0.68,5.2-16.63,10.69-21.36c0.6-0.52,1.29-0.96,2.12-1.34
			c5.42-3.01,21.37-3.56,22.05-3.59c0,0,0.01,0,0.02,0c0.18,0,0.34,0.08,0.45,0.22c0.11,0.15,0.15,0.34,0.09,0.51
			c-0.21,0.68-5.2,16.64-10.69,21.37c-0.6,0.52-1.29,0.95-2.12,1.33c-5.42,3.01-21.37,3.56-22.04,3.59
			C402.93,95.11,402.92,95.11,402.91,95.11z M436.45,69.26c-3.36,0.16-16.21,0.9-20.76,3.43c-0.77,0.36-1.38,0.74-1.9,1.18
			c-4.58,3.95-9.01,16.78-10.09,20.07c3.36-0.16,16.21-0.9,20.75-3.43c0.77-0.35,1.38-0.73,1.9-1.18
			C430.94,85.38,435.37,72.54,436.45,69.26z"/>
		<path style="clip-path:url(#SVGID_00000008858086171667205830000001684059347032137606_);fill:#6EC3BF;" d="M477.1,94.54
			c0,0,5.09-16.42,10.51-21.1c0.62-0.53,1.29-0.93,1.99-1.25c5.41-3,21.83-3.53,21.83-3.53s-5.09,16.43-10.52,21.11
			c-0.61,0.53-1.29,0.93-1.99,1.25C493.52,94.01,477.1,94.54,477.1,94.54"/>
		<path style="clip-path:url(#SVGID_00000008858086171667205830000001684059347032137606_);fill:#6EC3BF;" d="M477.1,95.11
			c-0.18,0-0.34-0.08-0.45-0.22c-0.11-0.15-0.15-0.34-0.09-0.51c0.21-0.68,5.2-16.63,10.69-21.36c0.6-0.52,1.29-0.96,2.12-1.34
			c5.42-3.01,21.37-3.56,22.05-3.59c0,0,0.01,0,0.02,0c0.18,0,0.34,0.08,0.45,0.22c0.11,0.15,0.15,0.34,0.09,0.51
			c-0.21,0.68-5.21,16.64-10.69,21.37c-0.61,0.52-1.3,0.96-2.12,1.33c-5.42,3.02-21.37,3.56-22.04,3.59
			C477.11,95.11,477.1,95.11,477.1,95.11z M510.64,69.26c-3.36,0.16-16.21,0.9-20.76,3.43c-0.77,0.36-1.38,0.74-1.9,1.18
			c-4.58,3.95-9.01,16.78-10.09,20.07c3.36-0.15,16.21-0.9,20.75-3.43c0.76-0.35,1.37-0.73,1.9-1.18
			C505.12,85.38,509.56,72.54,510.64,69.26z"/>
		<path style="clip-path:url(#SVGID_00000008858086171667205830000001684059347032137606_);fill:#2B2961;" d="M322.51,31.78
			c-0.01,0-0.03,0-0.04,0c-0.66-0.02-16.15-0.55-21.57-3.51c-0.75-0.34-1.49-0.79-2.14-1.34c-5.45-4.64-10.32-19.97-10.52-20.62
			c-0.13-0.42-0.05-0.88,0.21-1.23c0.26-0.35,0.56-0.56,1.13-0.54c0.66,0.02,16.16,0.54,21.57,3.51c0.77,0.34,1.5,0.8,2.14,1.34
			c5.44,4.62,10.31,19.97,10.51,20.62c0.13,0.42,0.05,0.88-0.21,1.23C323.33,31.58,322.93,31.78,322.51,31.78z M291.44,7.34
			c1.46,4.18,5.24,14.26,9.07,17.52c0.45,0.38,0.97,0.7,1.59,0.98c3.6,1.97,13.25,2.86,18.49,3.14c-1.45-4.18-5.24-14.27-9.07-17.52
			c-0.44-0.38-0.96-0.7-1.59-0.98C306.34,8.51,296.69,7.62,291.44,7.34z"/>
		<path style="clip-path:url(#SVGID_00000008858086171667205830000001684059347032137606_);fill:#2B2961;" d="M398.27,31.78
			c-0.01,0-0.03,0-0.04,0c-0.66-0.02-16.15-0.55-21.57-3.51c-0.75-0.33-1.48-0.79-2.14-1.33c-5.45-4.64-10.31-19.98-10.51-20.63
			c-0.13-0.42-0.05-0.88,0.21-1.23c0.26-0.35,0.66-0.56,1.13-0.54c0.66,0.02,16.15,0.54,21.57,3.51c0.77,0.34,1.5,0.8,2.14,1.34
			c5.44,4.62,10.31,19.97,10.51,20.62c0.13,0.42,0.05,0.88-0.21,1.23C399.1,31.58,398.7,31.78,398.27,31.78z M367.21,7.34
			c1.45,4.18,5.24,14.26,9.06,17.52c0.45,0.38,0.98,0.7,1.59,0.98c3.6,1.97,13.25,2.86,18.49,3.14c-1.45-4.18-5.24-14.27-9.07-17.52
			c-0.44-0.38-0.96-0.7-1.59-0.98C382.11,8.51,372.46,7.62,367.21,7.34z"/>
		<path style="clip-path:url(#SVGID_00000008858086171667205830000001684059347032137606_);fill:#2B2961;" d="M472.46,31.78
			c-0.01,0-0.03,0-0.04,0c-0.66-0.02-16.15-0.55-21.57-3.51c-0.76-0.34-1.49-0.79-2.14-1.34C443.27,22.29,438.4,6.96,438.2,6.3
			c-0.13-0.42-0.05-0.88,0.21-1.23c0.26-0.35,0.59-0.56,1.13-0.54c0.66,0.02,16.15,0.54,21.57,3.51c0.77,0.34,1.5,0.79,2.14,1.34
			c5.44,4.62,10.31,19.97,10.51,20.62c0.13,0.42,0.05,0.88-0.21,1.23C473.29,31.58,472.88,31.78,472.46,31.78z M441.4,7.34
			c1.45,4.18,5.24,14.26,9.06,17.52c0.45,0.38,0.97,0.7,1.59,0.98c3.6,1.97,13.25,2.86,18.49,3.14c-1.45-4.18-5.24-14.27-9.07-17.52
			c-0.45-0.38-0.96-0.7-1.59-0.98C456.29,8.51,446.64,7.62,441.4,7.34z"/>
		<path style="clip-path:url(#SVGID_00000008858086171667205830000001684059347032137606_);fill:#2B2961;" d="M322.51,58.88
			c-0.01,0-0.03,0-0.04,0c-0.66-0.02-16.15-0.54-21.57-3.51c-0.75-0.33-1.49-0.79-2.14-1.34c-5.45-4.63-10.31-19.97-10.51-20.62
			c-0.13-0.42-0.05-0.88,0.21-1.23c0.26-0.35,0.71-0.57,1.13-0.54c0.66,0.02,16.15,0.55,21.57,3.51c0.79,0.36,1.51,0.81,2.14,1.35
			c5.44,4.62,10.31,19.97,10.51,20.62c0.13,0.42,0.05,0.88-0.21,1.23C323.33,58.68,322.93,58.88,322.51,58.88z M291.45,34.43
			c1.45,4.18,5.24,14.26,9.07,17.52c0.45,0.38,0.97,0.7,1.59,0.98c3.6,1.97,13.25,2.86,18.49,3.14c-1.45-4.18-5.24-14.27-9.07-17.52
			c-0.44-0.38-0.95-0.69-1.6-0.99C306.34,35.61,296.69,34.72,291.45,34.43z"/>
		<path style="clip-path:url(#SVGID_00000008858086171667205830000001684059347032137606_);fill:#2B2961;" d="M398.27,58.88
			c-0.01,0-0.03,0-0.04,0c-0.66-0.02-16.15-0.54-21.57-3.51c-0.75-0.33-1.48-0.78-2.14-1.33c-5.45-4.64-10.31-19.97-10.51-20.63
			c-0.13-0.42-0.05-0.88,0.21-1.23c0.26-0.35,0.8-0.57,1.13-0.54c0.66,0.02,16.15,0.55,21.57,3.51c0.79,0.36,1.51,0.81,2.14,1.35
			c5.44,4.62,10.31,19.97,10.51,20.62c0.13,0.42,0.05,0.88-0.21,1.23C399.1,58.68,398.7,58.88,398.27,58.88z M367.21,34.43
			c1.45,4.18,5.24,14.26,9.06,17.52c0.45,0.38,0.98,0.7,1.59,0.98c3.6,1.97,13.25,2.86,18.49,3.14c-1.45-4.18-5.24-14.27-9.07-17.52
			c-0.44-0.38-0.95-0.69-1.6-0.99C382.11,35.61,372.46,34.72,367.21,34.43z"/>
		<path style="clip-path:url(#SVGID_00000008858086171667205830000001684059347032137606_);fill:#2B2961;" d="M472.46,58.88
			c-0.01,0-0.03,0-0.04,0c-0.66-0.02-16.15-0.54-21.57-3.51c-0.76-0.34-1.49-0.79-2.14-1.34c-5.44-4.63-10.31-19.97-10.51-20.62
			c-0.13-0.42-0.05-0.88,0.21-1.23c0.26-0.35,0.73-0.57,1.13-0.54c0.66,0.02,16.15,0.55,21.57,3.51c0.79,0.35,1.51,0.81,2.14,1.34
			c5.44,4.62,10.31,19.97,10.51,20.62c0.13,0.42,0.05,0.88-0.21,1.23C473.29,58.68,472.88,58.88,472.46,58.88z M441.4,34.44
			c1.45,4.18,5.24,14.26,9.06,17.52c0.45,0.38,0.97,0.7,1.59,0.98c3.6,1.97,13.26,2.86,18.5,3.14c-1.45-4.18-5.24-14.27-9.07-17.52
			c-0.43-0.37-0.95-0.69-1.59-0.98C456.29,35.61,446.64,34.72,441.4,34.44z"/>
		<path style="clip-path:url(#SVGID_00000008858086171667205830000001684059347032137606_);fill:#2B2961;" d="M322.51,85.56
			c-0.01,0-0.03,0-0.04,0c-0.66-0.02-16.15-0.54-21.57-3.51c-0.75-0.33-1.49-0.79-2.14-1.34c-5.45-4.63-10.31-19.97-10.51-20.62
			c-0.13-0.42-0.05-0.88,0.21-1.23c0.26-0.35,0.71-0.57,1.13-0.54c0.66,0.02,16.15,0.55,21.57,3.51c0.78,0.35,1.5,0.8,2.14,1.34
			c5.44,4.62,10.31,19.97,10.51,20.62c0.13,0.42,0.05,0.88-0.21,1.23C323.33,85.36,322.93,85.56,322.51,85.56z M291.45,61.11
			c1.45,4.18,5.24,14.26,9.07,17.52c0.45,0.38,0.97,0.7,1.59,0.98c3.6,1.97,13.25,2.86,18.49,3.14c-1.45-4.18-5.24-14.27-9.07-17.52
			c-0.44-0.38-0.96-0.7-1.59-0.98C306.34,62.29,296.69,61.4,291.45,61.11z"/>
		<path style="clip-path:url(#SVGID_00000008858086171667205830000001684059347032137606_);fill:#2B2961;" d="M398.27,85.56
			c-0.01,0-0.03,0-0.04,0c-0.66-0.02-16.15-0.54-21.57-3.51c-0.76-0.34-1.49-0.79-2.14-1.34c-5.44-4.63-10.31-19.97-10.51-20.62
			c-0.13-0.42-0.05-0.88,0.21-1.23c0.26-0.35,0.8-0.57,1.13-0.54c0.66,0.02,16.15,0.55,21.57,3.51c0.77,0.34,1.5,0.8,2.14,1.34
			c5.44,4.62,10.31,19.97,10.51,20.62c0.13,0.42,0.05,0.88-0.21,1.23C399.1,85.36,398.7,85.56,398.27,85.56z M367.21,61.12
			c1.45,4.18,5.24,14.26,9.06,17.52c0.45,0.38,0.97,0.7,1.59,0.98c3.6,1.97,13.26,2.86,18.5,3.14c-1.45-4.18-5.24-14.27-9.07-17.52
			c-0.44-0.38-0.96-0.7-1.59-0.98C382.11,62.29,372.46,61.4,367.21,61.12z"/>
		<path style="clip-path:url(#SVGID_00000008858086171667205830000001684059347032137606_);fill:#2B2961;" d="M472.46,85.56
			c-0.01,0-0.03,0-0.04,0c-0.66-0.02-16.15-0.54-21.57-3.51c-0.76-0.34-1.49-0.79-2.14-1.34c-5.44-4.63-10.31-19.97-10.51-20.62
			c-0.13-0.42-0.05-0.88,0.21-1.23c0.26-0.35,0.74-0.57,1.13-0.54c0.66,0.02,16.15,0.55,21.57,3.51c0.79,0.35,1.51,0.81,2.14,1.34
			c5.44,4.62,10.31,19.97,10.51,20.62c0.13,0.42,0.05,0.88-0.21,1.23C473.29,85.36,472.88,85.56,472.46,85.56z M441.4,61.12
			c1.45,4.18,5.24,14.26,9.07,17.52c0.45,0.38,0.97,0.7,1.59,0.98c3.6,1.97,13.26,2.86,18.5,3.14c-1.45-4.18-5.24-14.27-9.07-17.52
			c-0.43-0.37-0.95-0.69-1.59-0.98C456.29,62.29,446.64,61.4,441.4,61.12z"/>
		<path style="clip-path:url(#SVGID_00000008858086171667205830000001684059347032137606_);fill:#2B2961;" d="M324.14,41.03
			c-0.42,0-0.83-0.2-1.08-0.54c-0.26-0.35-0.34-0.81-0.21-1.23c0.2-0.65,5.07-15.99,10.51-20.62c0.64-0.54,1.37-1,2.24-1.39
			c5.32-2.92,20.82-3.45,21.48-3.47c0.53-0.07,0.86,0.19,1.13,0.54c0.26,0.35,0.34,0.81,0.21,1.23c-0.2,0.65-5.07,15.99-10.52,20.62
			c-0.65,0.55-1.38,1.01-2.23,1.39c-5.32,2.92-20.81,3.45-21.47,3.47C324.18,41.03,324.16,41.03,324.14,41.03z M355.21,16.59
			c-5.24,0.28-14.88,1.17-18.4,3.1c-0.73,0.33-1.25,0.65-1.69,1.03c-3.54,3.01-7.3,12.41-9.07,17.52c5.24-0.28,14.88-1.17,18.4-3.1
			c0.71-0.33,1.24-0.65,1.69-1.03C349.97,30.85,353.76,20.78,355.21,16.59z"/>
		<path style="clip-path:url(#SVGID_00000008858086171667205830000001684059347032137606_);fill:#2B2961;" d="M399.91,41.03
			c-0.42,0-0.83-0.2-1.08-0.54c-0.26-0.35-0.34-0.81-0.21-1.23c0.2-0.65,5.07-15.99,10.51-20.62c0.62-0.53,1.35-0.98,2.22-1.39
			c5.33-2.92,20.83-3.45,21.48-3.47c0.49-0.07,0.86,0.18,1.13,0.54c0.26,0.35,0.34,0.81,0.21,1.23c-0.2,0.65-5.07,15.99-10.51,20.62
			c-0.64,0.55-1.37,1-2.23,1.39c-5.32,2.92-20.82,3.45-21.48,3.47C399.94,41.03,399.92,41.03,399.91,41.03z M430.97,16.59
			c-5.24,0.28-14.88,1.17-18.4,3.09c-0.74,0.34-1.24,0.66-1.68,1.03c-3.83,3.26-7.62,13.34-9.07,17.52
			c5.24-0.28,14.88-1.17,18.4-3.1c0.72-0.33,1.24-0.65,1.69-1.03C425.73,30.85,429.52,20.78,430.97,16.59z"/>
		<path style="clip-path:url(#SVGID_00000008858086171667205830000001684059347032137606_);fill:#2B2961;" d="M474.1,41.03
			c-0.42,0-0.83-0.2-1.08-0.54c-0.26-0.35-0.34-0.81-0.21-1.23c0.2-0.65,5.07-15.99,10.51-20.62c0.61-0.53,1.34-0.98,2.22-1.39
			c5.33-2.92,20.83-3.45,21.49-3.47c0.41-0.07,0.86,0.18,1.13,0.54c0.26,0.35,0.34,0.81,0.21,1.23c-0.2,0.65-5.07,15.99-10.51,20.62
			c-0.64,0.55-1.37,1-2.23,1.39c-5.33,2.92-20.82,3.45-21.48,3.47C474.13,41.03,474.11,41.03,474.1,41.03z M505.16,16.59
			c-5.24,0.28-14.88,1.17-18.4,3.09c-0.74,0.35-1.24,0.66-1.68,1.03c-3.83,3.26-7.62,13.34-9.07,17.52
			c5.24-0.28,14.88-1.17,18.4-3.1c0.72-0.33,1.24-0.65,1.69-1.03C499.92,30.86,503.71,20.78,505.16,16.59z"/>
		<path style="clip-path:url(#SVGID_00000008858086171667205830000001684059347032137606_);fill:#2B2961;" d="M324.14,68.13
			c-0.42,0-0.83-0.2-1.08-0.54c-0.26-0.35-0.34-0.81-0.21-1.23c0.2-0.65,5.07-15.99,10.51-20.62c0.63-0.54,1.36-0.99,2.23-1.39
			c5.32-2.92,20.82-3.45,21.48-3.47c0.39-0.04,0.86,0.19,1.13,0.54c0.26,0.35,0.34,0.81,0.21,1.23c-0.2,0.65-5.07,15.99-10.51,20.62
			c-0.65,0.55-1.39,1.01-2.23,1.39c-5.32,2.92-20.81,3.44-21.47,3.46C324.18,68.13,324.16,68.13,324.14,68.13z M355.2,43.69
			c-5.24,0.28-14.88,1.17-18.4,3.1c-0.73,0.33-1.25,0.65-1.68,1.03c-3.83,3.26-7.62,13.34-9.07,17.52c5.24-0.28,14.88-1.17,18.4-3.1
			c0.71-0.32,1.23-0.65,1.69-1.03C349.97,57.95,353.75,47.87,355.2,43.69z"/>
		<path style="clip-path:url(#SVGID_00000008858086171667205830000001684059347032137606_);fill:#2B2961;" d="M399.91,68.13
			c-0.42,0-0.83-0.2-1.08-0.54c-0.26-0.35-0.34-0.81-0.21-1.23c0.2-0.65,5.07-15.99,10.51-20.62c0.63-0.54,1.36-0.99,2.23-1.39
			c5.33-2.92,20.82-3.45,21.48-3.47c0.34-0.04,0.86,0.19,1.13,0.54c0.26,0.35,0.34,0.81,0.21,1.23c-0.2,0.65-5.07,15.99-10.51,20.62
			c-0.65,0.55-1.38,1-2.23,1.39c-5.32,2.92-20.81,3.45-21.47,3.47C399.94,68.13,399.92,68.13,399.91,68.13z M430.97,43.69
			c-5.24,0.28-14.88,1.17-18.4,3.1c-0.73,0.33-1.25,0.65-1.68,1.02c-3.54,3.01-7.31,12.42-9.07,17.52c5.24-0.28,14.88-1.17,18.4-3.1
			c0.72-0.33,1.24-0.65,1.69-1.03C425.73,57.95,429.52,47.87,430.97,43.69z"/>
		<path style="clip-path:url(#SVGID_00000008858086171667205830000001684059347032137606_);fill:#2B2961;" d="M474.1,68.13
			c-0.42,0-0.83-0.2-1.08-0.54c-0.26-0.35-0.34-0.81-0.21-1.23c0.2-0.65,5.07-15.99,10.51-20.62c0.63-0.54,1.36-0.99,2.23-1.39
			c5.33-2.92,20.82-3.45,21.48-3.47c0.41-0.04,0.86,0.19,1.13,0.54c0.26,0.35,0.34,0.81,0.21,1.23c-0.2,0.65-5.07,15.99-10.51,20.62
			c-0.65,0.55-1.39,1.01-2.23,1.39c-5.32,2.92-20.81,3.44-21.47,3.46C474.13,68.13,474.11,68.13,474.1,68.13z M505.16,43.69
			c-5.24,0.28-14.88,1.17-18.4,3.1c-0.73,0.33-1.25,0.65-1.68,1.02c-3.54,3.01-7.31,12.42-9.07,17.52c5.24-0.28,14.88-1.17,18.4-3.1
			c0.71-0.32,1.23-0.64,1.69-1.03C499.92,57.95,503.71,47.87,505.16,43.69z"/>
		<path style="clip-path:url(#SVGID_00000008858086171667205830000001684059347032137606_);fill:#2B2961;" d="M324.14,94.81
			c-0.42,0-0.83-0.2-1.08-0.54c-0.26-0.35-0.34-0.81-0.21-1.23c0.2-0.65,5.07-15.99,10.51-20.62c0.64-0.54,1.37-1,2.23-1.39
			c5.32-2.92,20.81-3.45,21.47-3.47c0.39-0.04,0.86,0.19,1.13,0.54c0.26,0.35,0.34,0.81,0.21,1.23c-0.2,0.65-5.07,15.99-10.51,20.62
			c-0.65,0.55-1.38,1.01-2.23,1.39c-5.32,2.92-20.81,3.44-21.47,3.46C324.17,94.81,324.16,94.81,324.14,94.81z M355.2,70.37
			c-5.24,0.28-14.88,1.17-18.4,3.1c-0.72,0.33-1.24,0.65-1.68,1.03c-3.83,3.26-7.62,13.34-9.07,17.52c5.24-0.28,14.88-1.17,18.4-3.1
			c0.71-0.33,1.24-0.65,1.69-1.03C349.97,84.63,353.75,74.55,355.2,70.37z"/>
		<path style="clip-path:url(#SVGID_00000008858086171667205830000001684059347032137606_);fill:#2B2961;" d="M399.91,94.81
			c-0.42,0-0.83-0.2-1.08-0.54c-0.26-0.35-0.34-0.81-0.21-1.23c0.2-0.65,5.07-15.99,10.51-20.62c0.63-0.54,1.36-0.99,2.23-1.39
			c5.33-2.92,20.82-3.45,21.48-3.47c0.34-0.04,0.86,0.19,1.13,0.54c0.26,0.35,0.34,0.81,0.21,1.23c-0.2,0.65-5.07,15.99-10.51,20.62
			c-0.64,0.55-1.37,1-2.23,1.39c-5.32,2.92-20.81,3.45-21.47,3.47C399.94,94.81,399.92,94.81,399.91,94.81z M430.97,70.37
			c-5.24,0.28-14.88,1.17-18.4,3.1c-0.73,0.33-1.25,0.65-1.68,1.02c-3.54,3.01-7.31,12.42-9.07,17.52c5.24-0.28,14.88-1.17,18.4-3.1
			c0.72-0.33,1.24-0.65,1.69-1.03C425.73,84.63,429.52,74.55,430.97,70.37z"/>
		<path style="clip-path:url(#SVGID_00000008858086171667205830000001684059347032137606_);fill:#2B2961;" d="M474.1,94.81
			c-0.42,0-0.83-0.2-1.08-0.54c-0.26-0.35-0.34-0.81-0.21-1.23c0.2-0.65,5.07-15.99,10.51-20.62c0.62-0.53,1.35-0.99,2.23-1.38
			c5.33-2.92,20.82-3.45,21.48-3.47c0.41-0.04,0.86,0.19,1.13,0.54c0.26,0.35,0.34,0.81,0.21,1.23c-0.2,0.65-5.07,15.99-10.51,20.62
			c-0.64,0.55-1.37,1-2.23,1.39c-5.32,2.92-20.81,3.45-21.47,3.47C474.12,94.81,474.11,94.81,474.1,94.81z M505.16,70.37
			c-5.24,0.28-14.88,1.17-18.4,3.1c-0.73,0.34-1.25,0.66-1.68,1.02c-3.83,3.26-7.62,13.34-9.07,17.52c5.24-0.28,14.88-1.17,18.4-3.1
			c0.72-0.33,1.24-0.65,1.69-1.03C499.92,84.63,503.71,74.55,505.16,70.37z"/>
		<path style="clip-path:url(#SVGID_00000008858086171667205830000001684059347032137606_);fill:#2B2961;" d="M322.81,109.21
			c-0.75,0-1.35-0.61-1.35-1.36V25.87c0-0.75,0.6-1.36,1.35-1.36s1.35,0.61,1.35,1.36v81.98
			C324.16,108.6,323.56,109.21,322.81,109.21z"/>
		<path style="clip-path:url(#SVGID_00000008858086171667205830000001684059347032137606_);fill:#2B2961;" d="M398.45,109.21
			c-0.75,0-1.35-0.61-1.35-1.36V25.87c0-0.75,0.6-1.36,1.35-1.36s1.35,0.61,1.35,1.36v81.98C399.8,108.6,399.2,109.21,398.45,109.21
			z"/>
		<path style="clip-path:url(#SVGID_00000008858086171667205830000001684059347032137606_);fill:#2B2961;" d="M472.51,109.21
			c-0.75,0-1.35-0.61-1.35-1.36V25.87c0-0.75,0.6-1.36,1.35-1.36s1.35,0.61,1.35,1.36v81.98
			C473.87,108.6,473.26,109.21,472.51,109.21z"/>
	</g>
</g>
</svg>
