<?xml version="1.0" encoding="utf-8"?>
<!-- Generator: Adobe Illustrator 26.2.1, SVG Export Plug-In . SVG Version: 6.00 Build 0)  -->
<svg version="1.1" id="Ebene_1" xmlns="http://www.w3.org/2000/svg" xmlns:xlink="http://www.w3.org/1999/xlink" x="0px" y="0px"
	 viewBox="0 0 512 512" style="enable-background:new 0 0 512 512;" xml:space="preserve">
<style type="text/css">
	.st0{fill:#6EC3BF;}
	.st1{fill:#A0D5D2;}
	.st2{fill:#87CCC8;}
	.st3{fill:#FFFFFF;}
	.st4{clip-path:url(#SVGID_00000060724482901446039770000002430614900501497241_);fill:#2B2961;}
	.st5{fill:#897DA2;}
	.st6{fill:#2B2961;}
	.st7{clip-path:url(#SVGID_00000126319644848559406430000017307158831407454356_);fill:#FFFFFF;}
	.st8{clip-path:url(#SVGID_00000126319644848559406430000017307158831407454356_);fill:#2B2961;}
	.st9{clip-path:url(#SVGID_00000002347644228964714650000008933192513967254402_);fill:#FFFFFF;}
	.st10{clip-path:url(#SVGID_00000002347644228964714650000008933192513967254402_);fill:#6EC3BF;}
	.st11{fill:#9D9D9C;}
	.st12{fill:#D0D0D0;}
	.st13{clip-path:url(#SVGID_00000147183644826084028540000013986534438365716107_);fill:#FFFFFF;}
	.st14{clip-path:url(#SVGID_00000160904734294532670870000012369231664724822157_);fill:#2B2961;}
	.st15{clip-path:url(#SVGID_00000160904734294532670870000012369231664724822157_);fill:#FFFFFF;}
	.st16{fill:#97D1CE;}
	.st17{clip-path:url(#SVGID_00000149352005466026864660000007168646545576596392_);fill:#2B2961;}
	.st18{clip-path:url(#SVGID_00000113335437330839949700000002730670780011045301_);fill:#2B2961;}
	.st19{clip-path:url(#SVGID_00000015323254968207009210000005729516599710655410_);fill:#FFFFFF;}
	.st20{clip-path:url(#SVGID_00000015323254968207009210000005729516599710655410_);fill:#2B2961;}
	.st21{clip-path:url(#SVGID_00000015356572270692639320000009870276429416432282_);fill:#2B2961;}
	.st22{clip-path:url(#SVGID_00000135664007406897182340000010278973483054166915_);fill:#2B2961;}
	.st23{clip-path:url(#SVGID_00000135664007406897182340000010278973483054166915_);fill:#FFFFFF;}
	.st24{clip-path:url(#SVGID_00000048482628159842666760000000766712681162877864_);fill:#FFFFFF;}
	.st25{clip-path:url(#SVGID_00000023962139959739141560000006191539615478540215_);fill:#6EC3BF;}
	.st26{clip-path:url(#SVGID_00000001644761816828724630000009107656445313862042_);fill:#2B2961;}
	.st27{clip-path:url(#SVGID_00000001644761816828724630000009107656445313862042_);fill:#1D1D1B;}
	.st28{clip-path:url(#SVGID_00000001644761816828724630000009107656445313862042_);fill:#FFFFFF;}
	.st29{clip-path:url(#SVGID_00000126308655008027192070000009478085590138711185_);fill:#2B2961;}
	.st30{clip-path:url(#SVGID_00000123409124241381840570000013430368299831810464_);fill:#2B2961;}
	.st31{clip-path:url(#SVGID_00000123409124241381840570000013430368299831810464_);fill:#FFFFFF;}
	.st32{clip-path:url(#SVGID_00000058586354055422184450000007628149122779877521_);fill:#2B2961;}
	.st33{clip-path:url(#SVGID_00000183958968469527080480000018264941815001005503_);fill:#2B2961;}
	.st34{clip-path:url(#SVGID_00000183958968469527080480000018264941815001005503_);fill:#6EC3BF;}
	.st35{clip-path:url(#SVGID_00000016792002868576298890000001590905316533633440_);fill:#2B2961;}
	.st36{clip-path:url(#SVGID_00000176027823085736934240000003462913514058753667_);fill:#2B2961;}
	.st37{clip-path:url(#SVGID_00000020365714263569601520000008997633622875770783_);fill:#2B2961;}
	.st38{clip-path:url(#SVGID_00000037692587450552539380000003145638993228907707_);fill:#2B2961;}
	.st39{clip-path:url(#SVGID_00000074434422714328973740000007142277821691858093_);fill:#6EC3BF;}
	.st40{clip-path:url(#SVGID_00000160909152812445010450000003219342433938353557_);fill:#6EC3BF;}
	.st41{clip-path:url(#SVGID_00000181784086393861733760000004647192616577372602_);fill:#6EC3BF;}
	.st42{clip-path:url(#SVGID_00000166661544716825703500000018314695753774809276_);fill:#6EC3BF;}
	.st43{clip-path:url(#SVGID_00000131349297992522773000000014316530322544243383_);fill:#2B2961;}
	.st44{clip-path:url(#SVGID_00000006695781093251254440000016939873612205323955_);fill:#2B2961;}
	.st45{clip-path:url(#SVGID_00000045600604463014086360000000638978996070810516_);fill:#2B2961;}
	.st46{clip-path:url(#SVGID_00000010270022844795047210000008444005011585974150_);fill:#2B2961;}
	.st47{clip-path:url(#SVGID_00000010270022844795047210000008444005011585974150_);fill:#FFFFFF;}
	.st48{clip-path:url(#SVGID_00000077322401947154869850000006471000123260904637_);fill:#FFFFFF;}
	.st49{clip-path:url(#SVGID_00000029762318329246287460000014278901464834829719_);fill:#2B2961;}
	.st50{clip-path:url(#SVGID_00000062914594096287631980000010398456557096033971_);fill:#2B2961;}
	.st51{clip-path:url(#SVGID_00000062914594096287631980000010398456557096033971_);fill:#FFFFFF;}
	.st52{clip-path:url(#SVGID_00000053517781139931539050000010858375414922565044_);fill:#2B2961;}
	.st53{clip-path:url(#SVGID_00000053517781139931539050000010858375414922565044_);fill:#2C265F;}
	.st54{clip-path:url(#SVGID_00000085229420275677687410000012467294021431838378_);fill:#FFFFFF;}
	.st55{clip-path:url(#SVGID_00000003813311575273240330000006152875749848847260_);fill:#2B2961;}
	.st56{clip-path:url(#SVGID_00000087381480453798663620000007784020043109577614_);fill:#FFFFFF;}
	.st57{clip-path:url(#SVGID_00000004528957035600901820000007433809885854328248_);fill:#2B2961;}
	.st58{clip-path:url(#SVGID_00000136411443579618223150000004269120001831195071_);fill:#FFFFFF;}
	.st59{clip-path:url(#SVGID_00000065785779282491642710000015112386228903404417_);fill:#2B2961;}
	.st60{clip-path:url(#SVGID_00000065785779282491642710000015112386228903404417_);fill:#FFFFFF;}
	.st61{clip-path:url(#SVGID_00000173866258113872663520000017067450950917222540_);fill:#2B2961;}
	.st62{clip-path:url(#SVGID_00000003809016064878992750000014917893039035806362_);fill:#FFFFFF;}
	.st63{clip-path:url(#SVGID_00000106866381212249778200000006924976370713825466_);fill:#2B2961;}
	.st64{clip-path:url(#SVGID_00000052081190570481093200000009096763892177151364_);fill:#FFFFFF;}
	.st65{clip-path:url(#SVGID_00000052081190570481093200000009096763892177151364_);fill:#2B2961;}
	.st66{clip-path:url(#SVGID_00000086692089214806835810000005169274742437099917_);fill:#2B2961;}
	.st67{clip-path:url(#SVGID_00000086692089214806835810000005169274742437099917_);fill:#6EC3BF;}
	.st68{clip-path:url(#SVGID_00000086692089214806835810000005169274742437099917_);fill:#FFFFFF;}
	.st69{clip-path:url(#SVGID_00000046332469948295984370000013268943031506590904_);fill:#2B2961;}
	.st70{clip-path:url(#SVGID_00000165232764170317906210000008387268182950651270_);fill:#2B2961;}
	.st71{clip-path:url(#SVGID_00000046327092543949350930000004910957354428277923_);fill:#2B2961;}
	.st72{clip-path:url(#SVGID_00000160149876096848304520000011103368774940545188_);fill:#2B2961;}
	.st73{clip-path:url(#SVGID_00000057106632236625193020000010137893765639645879_);fill:#2B2961;}
	.st74{clip-path:url(#SVGID_00000034772930402892455840000018297196334720026554_);fill:#FFFFFF;}
	.st75{clip-path:url(#SVGID_00000034772930402892455840000018297196334720026554_);fill:#6EC3BF;}
	.st76{clip-path:url(#SVGID_00000119111282225107082240000004063293164691514549_);fill:#2B2961;}
	.st77{clip-path:url(#SVGID_00000137848303558674634540000010282099971373084086_);fill:#2B2961;}
	.st78{clip-path:url(#SVGID_00000137848303558674634540000010282099971373084086_);fill:#FFFFFF;}
	.st79{clip-path:url(#SVGID_00000098188491726555174070000016033954590782480551_);fill:#2B2961;}
	.st80{clip-path:url(#SVGID_00000169534084260880097540000004386795037190864307_);fill:#FFFFFF;}
	.st81{clip-path:url(#SVGID_00000041270973757486564400000010666054165553915068_);fill:#2B2961;}
	.st82{clip-path:url(#SVGID_00000072251952446731679620000011636996720517262227_);fill:#2B2961;}
	.st83{clip-path:url(#SVGID_00000011745056420691490140000002903834812125904537_);fill:#2B2961;}
	.st84{clip-path:url(#SVGID_00000031177927340433952540000005781459182375340950_);fill:#FFFFFF;}
	.st85{clip-path:url(#SVGID_00000031207344073212006710000015223901728732381874_);fill:#FFFFFF;}
	.st86{clip-path:url(#SVGID_00000152974316113831034420000015290864928065042092_);fill:#2B2961;}
	.st87{clip-path:url(#SVGID_00000040533816909628732150000013928788851173276596_);fill:#2B2961;}
	.st88{clip-path:url(#SVGID_00000040533816909628732150000013928788851173276596_);fill:#FFFFFF;}
	.st89{clip-path:url(#SVGID_00000159471849850430125040000001179848116473694602_);fill:#2B2961;}
	.st90{clip-path:url(#SVGID_00000173883100949092769930000003324982443348274610_);fill:#FFFFFF;}
	.st91{clip-path:url(#SVGID_00000116214996372721558540000006985552025311493005_);fill:#6EC3BF;}
	.st92{clip-path:url(#SVGID_00000116214996372721558540000006985552025311493005_);fill:#2B2961;}
	.st93{clip-path:url(#SVGID_00000058549659948643157730000004126123727637710983_);fill:#6EC3BF;}
	.st94{clip-path:url(#SVGID_00000049916857427295056580000008431309729451932859_);fill:#2B2961;}
	.st95{clip-path:url(#SVGID_00000137825337564612879140000007144659707141311662_);fill:#2B2961;}
	.st96{clip-path:url(#SVGID_00000018197255397068164870000015809416118823906186_);fill:#2B2961;}
	.st97{clip-path:url(#SVGID_00000057145090821403246640000017504363976528851355_);fill:#2B2961;}
	.st98{clip-path:url(#SVGID_00000074402294207019934010000018159524336403805104_);fill:#2B2961;}
	.st99{clip-path:url(#SVGID_00000074402294207019934010000018159524336403805104_);fill:#6EC3BF;}
	.st100{clip-path:url(#SVGID_00000048461030115310940580000006117861110667732097_);fill:#2B2961;}
	.st101{clip-path:url(#SVGID_00000110456787684647701600000018016218864082702736_);fill:#2B2961;}
	.st102{clip-path:url(#SVGID_00000110456787684647701600000018016218864082702736_);fill:#6EC3BF;}
	.st103{clip-path:url(#SVGID_00000090262186734874040950000014425750742210894472_);fill:#2B2961;}
	.st104{clip-path:url(#SVGID_00000178924037008118772110000000759070642402076050_);fill:#FFFFFF;}
	.st105{clip-path:url(#SVGID_00000178924037008118772110000000759070642402076050_);fill:#2B2961;}
	.st106{clip-path:url(#SVGID_00000013169420006811232070000003410129754115318144_);fill:#6EC3BF;}
	.st107{clip-path:url(#SVGID_00000093888558436952276780000006669034971757073066_);fill:#2B2961;}
	.st108{clip-path:url(#SVGID_00000048488649098935197100000013789392409099547572_);fill:#2B2961;}
	.st109{clip-path:url(#SVGID_00000048488649098935197100000013789392409099547572_);fill:#FFFFFF;}
	.st110{clip-path:url(#SVGID_00000022562646144840752340000010035386579438813591_);fill:#6EC3BF;}
	.st111{clip-path:url(#SVGID_00000034786098301437393570000016344750307750985647_);fill:#2B2961;}
	.st112{clip-path:url(#SVGID_00000102512753194526278210000002573703877483774372_);fill:#2B2961;}
	.st113{clip-path:url(#SVGID_00000102512753194526278210000002573703877483774372_);fill:#6EC3BF;}
	.st114{clip-path:url(#SVGID_00000108298919319218774510000018040708943161791668_);fill:#2B2961;}
	.st115{clip-path:url(#SVGID_00000040572814536500321610000016187550478948892842_);fill:#6EC3BF;}
	.st116{clip-path:url(#SVGID_00000040572814536500321610000016187550478948892842_);fill:#2B2961;}
	.st117{clip-path:url(#SVGID_00000026155683563351463480000016974004872536819608_);fill:#2B2961;}
	.st118{clip-path:url(#SVGID_00000178171984825293958400000007562345231131247496_);fill:#FFFFFF;}
	.st119{clip-path:url(#SVGID_00000178171984825293958400000007562345231131247496_);}
	.st120{clip-path:url(#SVGID_00000129167018086312435670000002751759894126785977_);fill:#2B2961;}
	.st121{clip-path:url(#SVGID_00000178171984825293958400000007562345231131247496_);fill:#6EC3BF;}
	.st122{clip-path:url(#SVGID_00000173862242470551490280000016047455784621949374_);fill:#2B2961;}
	.st123{clip-path:url(#SVGID_00000178171984825293958400000007562345231131247496_);fill:#2B2961;}
	.st124{clip-path:url(#SVGID_00000094578700956282927610000006970079758115773597_);fill:#2B2961;}
	.st125{clip-path:url(#SVGID_00000054238452202576340680000007077288133880212112_);fill:#2B2961;}
	.st126{clip-path:url(#SVGID_00000096743540774727181940000012854551918131530648_);}
	.st127{clip-path:url(#SVGID_00000160183578090385519890000004344698221117058723_);}
	.st128{clip-path:url(#SVGID_00000179640236565397354600000015782086716935778740_);fill:#FFFFFF;}
	.st129{clip-path:url(#SVGID_00000018929483076962863050000012640622856549376389_);fill:#2B2961;}
	.st130{clip-path:url(#SVGID_00000003077981396208703820000011082072561793100213_);fill:#2B2961;}
	.st131{clip-path:url(#SVGID_00000003077981396208703820000011082072561793100213_);fill:#6EC3BF;}
	.st132{clip-path:url(#SVGID_00000003077981396208703820000011082072561793100213_);fill:#FFFFFF;}
	.st133{clip-path:url(#SVGID_00000002347844042978199740000009923986235162834340_);fill:#2B2961;}
	.st134{clip-path:url(#SVGID_00000002347844042978199740000009923986235162834340_);fill:#6EC3BF;}
	.st135{clip-path:url(#SVGID_00000075144173624710643950000006338803734980879793_);fill:#2B2961;}
	.st136{clip-path:url(#SVGID_00000045590734824379091160000009867839232791094171_);fill:#6EC3BF;}
	.st137{clip-path:url(#SVGID_00000045590734824379091160000009867839232791094171_);fill:#FFFFFF;}
	.st138{clip-path:url(#SVGID_00000119817555354751118560000012638578413472532921_);fill:#2B2961;}
	.st139{clip-path:url(#SVGID_00000119817555354751118560000012638578413472532921_);fill:#6EC3BF;}
	.st140{clip-path:url(#SVGID_00000068664378730892821430000003980857548481314230_);fill:#2B2961;}
	.st141{clip-path:url(#SVGID_00000183930610126736390290000017716717856049187997_);fill:#2B2961;}
	.st142{clip-path:url(#SVGID_00000183930610126736390290000017716717856049187997_);fill:#FFFFFF;}
	.st143{clip-path:url(#SVGID_00000142170033929909571900000012595530197998416521_);fill:#2B2961;}
	.st144{clip-path:url(#SVGID_00000084530485457913363290000006658160759502632339_);fill:#FFFFFF;}
	.st145{clip-path:url(#SVGID_00000135678435340485148180000012242552952726551704_);fill:#2B2961;}
	.st146{clip-path:url(#SVGID_00000075870703389733245060000017236786878952529838_);fill:#2B2961;}
	.st147{clip-path:url(#SVGID_00000075870703389733245060000017236786878952529838_);fill:#FFFFFF;}
	.st148{clip-path:url(#SVGID_00000015336054533014632050000002341395464743920297_);fill:#2B2961;}
	.st149{clip-path:url(#SVGID_00000014592993808780036770000013793830136567226553_);fill:#2B2961;}
	.st150{clip-path:url(#SVGID_00000014592993808780036770000013793830136567226553_);fill:#FFFFFF;}
	.st151{clip-path:url(#SVGID_00000146479931857037863000000010007627866537626762_);fill:#2B2961;}
	.st152{clip-path:url(#SVGID_00000146479931857037863000000010007627866537626762_);fill:#6EC3BF;}
	.st153{clip-path:url(#SVGID_00000035491838468879454390000007745512563650877347_);fill:#1D1D1B;}
	.st154{clip-path:url(#SVGID_00000035491838468879454390000007745512563650877347_);fill:#2B2961;}
	.st155{clip-path:url(#SVGID_00000035491838468879454390000007745512563650877347_);fill:#FFFFFF;}
	.st156{clip-path:url(#SVGID_00000039819708215216902250000008100300540103260293_);fill:#2B2961;}
	.st157{clip-path:url(#SVGID_00000061471818675432623460000018049776297584308615_);fill:#2B2961;}
	.st158{clip-path:url(#SVGID_00000066517407314986971430000010554960493602543757_);fill:#2B2961;}
	.st159{clip-path:url(#SVGID_00000066517407314986971430000010554960493602543757_);fill:#FFFFFF;}
	.st160{clip-path:url(#SVGID_00000066517407314986971430000010554960493602543757_);fill:#6EC3BF;}
	.st161{clip-path:url(#SVGID_00000047738163516605489670000013221906004833213856_);fill:#2B2961;}
	.st162{clip-path:url(#SVGID_00000049201719263031367790000010273441527013495720_);fill:#2B2961;}
	.st163{clip-path:url(#SVGID_00000111892039198855672110000000873388421175700884_);fill:#2B2961;}
	.st164{clip-path:url(#SVGID_00000010994437433102987670000002314979351325798030_);fill:#2B2961;}
	.st165{clip-path:url(#SVGID_00000010994437433102987670000002314979351325798030_);fill:#FFFFFF;}
	.st166{clip-path:url(#SVGID_00000010310725179525658520000000518589669379929255_);fill:#2B2961;}
	.st167{clip-path:url(#SVGID_00000010310725179525658520000000518589669379929255_);fill:#FFFFFF;}
	.st168{clip-path:url(#SVGID_00000024709643358182863080000015752448184042984078_);fill:#2B2961;}
	.st169{clip-path:url(#SVGID_00000098936420927491882290000005338699167581393793_);fill:#2B2961;}
	.st170{clip-path:url(#SVGID_00000098936420927491882290000005338699167581393793_);fill:#FFFFFF;}
	.st171{clip-path:url(#SVGID_00000028321713197777140740000002841271993861200783_);fill:#2B2961;}
	.st172{clip-path:url(#SVGID_00000176734504202835967450000017414362546560574133_);fill:#FFFFFF;}
	.st173{clip-path:url(#SVGID_00000019644946850346505050000004091363496871226044_);fill:#2B2961;}
	.st174{clip-path:url(#SVGID_00000019644946850346505050000004091363496871226044_);fill:#6EC3BF;}
	.st175{clip-path:url(#SVGID_00000026844909412105622800000007418105660393277593_);fill:#2B2961;}
	.st176{clip-path:url(#SVGID_00000036954848775139472750000000652932612732120735_);fill:#2B2961;}
	.st177{clip-path:url(#SVGID_00000156583896895226685640000018049650147950458026_);fill:#FFFFFF;}
	.st178{clip-path:url(#SVGID_00000129164167200864651160000009200113521914280601_);fill:#6EC3BF;}
	.st179{clip-path:url(#SVGID_00000129164167200864651160000009200113521914280601_);fill:#2B2961;}
	.st180{clip-path:url(#SVGID_00000023242323538652688400000015318030951987307153_);fill:#6EC3BF;}
	.st181{clip-path:url(#SVGID_00000142151068954868149170000003747061750671291549_);fill:#2B2961;}
	.st182{clip-path:url(#SVGID_00000183960741241870511180000011262426059338697905_);fill:#6EC3BF;}
	.st183{clip-path:url(#SVGID_00000183960741241870511180000011262426059338697905_);fill:#2B2961;}
	.st184{clip-path:url(#SVGID_00000013885005871861606930000008315477335274647991_);fill:#2B2961;}
	.st185{clip-path:url(#SVGID_00000013905579645272692390000005879791486145838733_);fill:#2B2961;}
	.st186{clip-path:url(#SVGID_00000098208417735670791510000002043817465993713047_);fill:#2B2961;}
	.st187{clip-path:url(#SVGID_00000008846832329567943220000014629176093306165922_);fill:#2B2961;}
	.st188{clip-path:url(#SVGID_00000059993118403647284170000003327141177949535928_);fill:#2B2961;}
	.st189{clip-path:url(#SVGID_00000124163661804603429420000017750533596703748773_);fill:#6EC3BF;}
	.st190{clip-path:url(#SVGID_00000124163661804603429420000017750533596703748773_);fill:#2B2961;}
	.st191{clip-path:url(#SVGID_00000060728912557720491930000006869204032643365310_);fill:#6EC3BF;}
	.st192{clip-path:url(#SVGID_00000060728912557720491930000006869204032643365310_);fill:#2B2961;}
	.st193{clip-path:url(#SVGID_00000174565647851468016140000002054066332532406410_);fill:#2B2961;}
	.st194{clip-path:url(#SVGID_00000000931314432987668620000006462547057656009661_);fill:#2B2961;}
	.st195{clip-path:url(#SVGID_00000052824623998696628420000000883372794568134074_);fill:#2B2961;}
	.st196{clip-path:url(#SVGID_00000085215521132423457850000008737053093504213415_);fill:#FFFFFF;}
	.st197{clip-path:url(#SVGID_00000179615849997434900640000013194507712404328583_);fill:#2B2961;}
	.st198{clip-path:url(#SVGID_00000171677679059198211030000000985578359182273461_);fill:#2B2961;}
	.st199{clip-path:url(#SVGID_00000171677679059198211030000000985578359182273461_);fill:#6EC3BF;}
	.st200{clip-path:url(#SVGID_00000054252477916689972890000008579731193631527826_);fill:#2B2961;}
	.st201{clip-path:url(#SVGID_00000015344018334061001690000008753882191377734291_);fill:#2B2961;}
	.st202{clip-path:url(#SVGID_00000004506614328680071590000001158664563895068291_);fill:#6EC3BF;}
	.st203{clip-path:url(#SVGID_00000004506614328680071590000001158664563895068291_);fill:#2B2961;}
	.st204{clip-path:url(#SVGID_00000116211864532554081300000015486217337168819626_);fill:#6EC3BF;}
	.st205{clip-path:url(#SVGID_00000116211864532554081300000015486217337168819626_);fill:#2B2961;}
	.st206{clip-path:url(#SVGID_00000055669181843999655030000013642306910153531010_);fill:#2B2961;}
	.st207{clip-path:url(#SVGID_00000067207026870743639250000014170271961394519179_);fill:#2B2961;}
	.st208{clip-path:url(#SVGID_00000067207026870743639250000014170271961394519179_);fill:#6EC3BF;}
	.st209{clip-path:url(#SVGID_00000011023917670009708460000004760464550938839741_);fill:#2B2961;}
	.st210{clip-path:url(#SVGID_00000011023917670009708460000004760464550938839741_);fill:#6EC3BF;}
	.st211{clip-path:url(#SVGID_00000026148299460751612130000011402068570426038924_);fill:#2B2961;}
	.st212{clip-path:url(#SVGID_00000026148299460751612130000011402068570426038924_);fill:#6EC3BF;}
	.st213{clip-path:url(#SVGID_00000178176239742477748240000003843768391898641574_);fill:#2B2961;}
	.st214{clip-path:url(#SVGID_00000119091822866350975180000002414847302156826290_);fill:#6EC3BF;}
	.st215{clip-path:url(#SVGID_00000119091822866350975180000002414847302156826290_);fill:#2B2961;}
	.st216{clip-path:url(#SVGID_00000007403288719257885390000013568297857862708367_);fill:#6EC3BF;}
	.st217{clip-path:url(#SVGID_00000007403288719257885390000013568297857862708367_);fill:#2B2961;}
	.st218{clip-path:url(#SVGID_00000092446315466570699090000014154572241663783074_);fill:#FFFFFF;}
	.st219{clip-path:url(#SVGID_00000092446315466570699090000014154572241663783074_);fill:#2B2961;}
	.st220{clip-path:url(#SVGID_00000042701797601793906780000013067016878031201467_);fill:#FFFFFF;}
	.st221{clip-path:url(#SVGID_00000042701797601793906780000013067016878031201467_);fill:#2B2961;}
	.st222{clip-path:url(#SVGID_00000039831138387255207200000014329626225319272874_);fill:#FFFFFF;}
	.st223{clip-path:url(#SVGID_00000039831138387255207200000014329626225319272874_);fill:#2B2961;}
	.st224{clip-path:url(#SVGID_00000083797230941445034680000008375630722205039283_);fill:#6EC3BF;}
	.st225{clip-path:url(#SVGID_00000083797230941445034680000008375630722205039283_);fill:#2B2961;}
	.st226{clip-path:url(#SVGID_00000169538615272521308660000013954952275308546990_);fill:#2B2961;}
	.st227{clip-path:url(#SVGID_00000169538615272521308660000013954952275308546990_);fill:#6EC3BF;}
	.st228{clip-path:url(#SVGID_00000015335797920904634310000012342853604595490200_);fill:#2B2961;}
	.st229{clip-path:url(#SVGID_00000015356711737379582500000014610966699497113251_);fill:#6EC3BF;}
	.st230{clip-path:url(#SVGID_00000015356711737379582500000014610966699497113251_);fill:#2B2961;}
	.st231{clip-path:url(#SVGID_00000026154126386616517800000013954909117010561455_);fill:#2B2961;}
	.st232{clip-path:url(#SVGID_00000155142876608955163680000011709997565244332467_);fill:#2B2961;}
	.st233{clip-path:url(#SVGID_00000155142876608955163680000011709997565244332467_);fill:#6EC3BF;}
	.st234{clip-path:url(#SVGID_00000065042761764169541130000005399960831268251785_);fill:#2B2961;}
	.st235{clip-path:url(#SVGID_00000145751435453181853650000017211566032954719879_);fill:#FFFFFF;}
	.st236{clip-path:url(#SVGID_00000145751435453181853650000017211566032954719879_);fill:#2B2961;}
	.st237{fill:#2C265F;}
	.st238{clip-path:url(#SVGID_00000157988617746673506350000002419795473978428848_);fill:#2B2961;}
	.st239{clip-path:url(#SVGID_00000157988617746673506350000002419795473978428848_);fill:#6EC3BF;}
	.st240{fill:#61B87A;}
	.st241{clip-path:url(#SVGID_00000170980444137821051790000009187168233402027672_);fill:#2B2961;}
	.st242{clip-path:url(#SVGID_00000028287403860625327410000016106512283729250996_);fill:#2B2961;}
	.st243{clip-path:url(#SVGID_00000027591070629171099860000008976493141016974728_);fill:#2B2961;}
	.st244{clip-path:url(#SVGID_00000158002091497318824810000000237861161203199675_);fill:#2B2961;}
	.st245{clip-path:url(#SVGID_00000158002091497318824810000000237861161203199675_);fill:#61B87A;}
	.st246{clip-path:url(#SVGID_00000158002091497318824810000000237861161203199675_);fill:#FFFFFF;}
	.st247{clip-path:url(#SVGID_00000016768217570483565150000011744975790969674170_);fill:#2B2961;}
	.st248{clip-path:url(#SVGID_00000016768217570483565150000011744975790969674170_);fill:#61B87A;}
	.st249{clip-path:url(#SVGID_00000055666479837227572500000012655161665514191548_);fill:#2B2961;}
	.st250{clip-path:url(#SVGID_00000076573107537366394110000014813809107309223572_);fill:#6EC3BF;}
	.st251{clip-path:url(#SVGID_00000076573107537366394110000014813809107309223572_);fill:#2B2961;}
	.st252{clip-path:url(#SVGID_00000077321279186911460830000007369302422861128626_);fill:#2B2961;}
	.st253{clip-path:url(#SVGID_00000077321279186911460830000007369302422861128626_);fill:#6EC3BF;}
	.st254{clip-path:url(#SVGID_00000099652940273243514500000002047037964559246989_);fill:#2B2961;}
	.st255{clip-path:url(#SVGID_00000099652940273243514500000002047037964559246989_);fill:#6EC3BF;}
</style>
<g>
	<polygon class="st0" points="70.68,1.92 70.68,477.45 323.58,477.45 414.95,351.62 414.95,1.92 	"/>
	<g>
		<defs>
			<rect id="SVGID_00000140711253218095253150000013889186911823116162_" x="62.08" width="387.83" height="512"/>
		</defs>
		<clipPath id="SVGID_00000060024786281145772150000014724105094549549731_">
			<use xlink:href="#SVGID_00000140711253218095253150000013889186911823116162_"  style="overflow:visible;"/>
		</clipPath>
		<path style="clip-path:url(#SVGID_00000060024786281145772150000014724105094549549731_);fill:#2B2961;" d="M411.86,477.03H64.43
			c-1.3,0-2.35-1.05-2.35-2.35V2.35c0-1.3,1.05-2.35,2.35-2.35h347.43c1.3,0,2.35,1.05,2.35,2.35v472.33
			C414.2,475.98,413.15,477.03,411.86,477.03z M66.78,472.34h342.73V4.7H66.78V472.34z"/>
	</g>
	<polygon class="st3" points="101.78,39.53 101.78,509.66 376.62,509.66 447.58,441.49 447.58,39.53 	"/>
	<g>
		<defs>
			<rect id="SVGID_00000173128123241528597780000013495569835581053833_" x="62.08" width="387.83" height="512"/>
		</defs>
		<clipPath id="SVGID_00000046317032549434012910000018004439760006379178_">
			<use xlink:href="#SVGID_00000173128123241528597780000013495569835581053833_"  style="overflow:visible;"/>
		</clipPath>
		<path style="clip-path:url(#SVGID_00000046317032549434012910000018004439760006379178_);fill:#2B2961;" d="M376.62,512H101.77
			c-1.3,0-2.35-1.05-2.35-2.35V39.53c0-1.3,1.05-2.35,2.35-2.35h345.8c1.3,0,2.35,1.05,2.35,2.35v401.96c0,0.64-0.26,1.25-0.72,1.69
			l-70.96,68.17C377.8,511.77,377.22,512,376.62,512z M104.12,507.31h271.55l69.56-66.82V41.87H104.12V507.31z"/>
	</g>
	<polygon class="st0" points="382.58,442.61 382.31,506.61 449.03,442.1 	"/>
	<g>
		<defs>
			<rect id="SVGID_00000039104181791659927470000000401752266513054909_" x="62.08" width="387.83" height="512"/>
		</defs>
		<clipPath id="SVGID_00000168819539616484449980000006455517979293941394_">
			<use xlink:href="#SVGID_00000039104181791659927470000000401752266513054909_"  style="overflow:visible;"/>
		</clipPath>
		<path style="clip-path:url(#SVGID_00000168819539616484449980000006455517979293941394_);fill:#2B2961;" d="M378.73,511.94
			c-0.29,0-0.57-0.06-0.85-0.17c-0.8-0.34-1.32-1.12-1.32-1.99v-66.2c0-1.19,0.97-2.16,2.16-2.16h68.96c0.88,0,1.68,0.54,2.01,1.36
			c0.33,0.82,0.13,1.76-0.51,2.37l-68.96,66.2C379.82,511.73,379.28,511.94,378.73,511.94z M380.89,445.74v58.97l61.43-58.97H380.89
			z"/>
	</g>
	<path class="st6" d="M427.5,104.53H137.46c-1.3,0-2.35-1.05-2.35-2.35c0-1.3,1.05-2.35,2.35-2.35H427.5c1.3,0,2.35,1.05,2.35,2.35
		C429.84,103.48,428.79,104.53,427.5,104.53z"/>
	<path class="st6" d="M350.95,122.39h-155.6c-1.3,0-2.35-1.05-2.35-2.35c0-1.3,1.05-2.35,2.35-2.35h155.6c1.3,0,2.35,1.05,2.35,2.35
		C353.29,121.34,352.24,122.39,350.95,122.39z"/>
	<path class="st6" d="M424.7,145.77h-88.38c-1.3,0-2.35-1.05-2.35-2.35c0-1.3,1.05-2.35,2.35-2.35h88.38c1.3,0,2.35,1.05,2.35,2.35
		C427.05,144.72,426,145.77,424.7,145.77z"/>
	<path class="st6" d="M179.16,145.77h-42.63c-1.3,0-2.35-1.05-2.35-2.35c0-1.3,1.05-2.35,2.35-2.35h42.63c1.3,0,2.35,1.05,2.35,2.35
		C181.51,144.72,180.46,145.77,179.16,145.77z"/>
	<path class="st6" d="M428.44,157.21H137.46c-1.3,0-2.35-1.05-2.35-2.35c0-1.3,1.05-2.35,2.35-2.35h290.98
		c1.3,0,2.35,1.05,2.35,2.35C430.78,156.16,429.73,157.21,428.44,157.21z"/>
	<path class="st6" d="M158.62,178.64h-21.16c-1.3,0-2.35-1.05-2.35-2.35c0-1.3,1.05-2.35,2.35-2.35h21.16c1.3,0,2.35,1.05,2.35,2.35
		C160.97,177.59,159.92,178.64,158.62,178.64z"/>
	<path class="st6" d="M334.14,178.64h-21.16c-1.3,0-2.35-1.05-2.35-2.35c0-1.3,1.05-2.35,2.35-2.35h21.16c1.3,0,2.35,1.05,2.35,2.35
		C336.48,177.59,335.43,178.64,334.14,178.64z"/>
	<path class="st6" d="M148.35,193.82h-10.89c-1.3,0-2.35-1.05-2.35-2.35s1.05-2.35,2.35-2.35h10.89c1.3,0,2.35,1.05,2.35,2.35
		S149.65,193.82,148.35,193.82z"/>
	<path class="st6" d="M323.87,193.82h-10.89c-1.3,0-2.35-1.05-2.35-2.35s1.05-2.35,2.35-2.35h10.89c1.3,0,2.35,1.05,2.35,2.35
		S325.16,193.82,323.87,193.82z"/>
	<path class="st6" d="M251.05,213.29H137.46c-1.3,0-2.35-1.05-2.35-2.35c0-1.3,1.05-2.35,2.35-2.35h113.59
		c1.3,0,2.35,1.05,2.35,2.35C253.39,212.24,252.34,213.29,251.05,213.29z"/>
	<path class="st6" d="M154.88,229.54h-17.43c-1.3,0-2.35-1.05-2.35-2.35c0-1.3,1.05-2.35,2.35-2.35h17.43c1.3,0,2.35,1.05,2.35,2.35
		C157.23,228.49,156.18,229.54,154.88,229.54z"/>
	<path class="st6" d="M330.4,229.54h-17.43c-1.3,0-2.35-1.05-2.35-2.35c0-1.3,1.05-2.35,2.35-2.35h17.43c1.3,0,2.35,1.05,2.35,2.35
		C332.75,228.49,331.7,229.54,330.4,229.54z"/>
	<path class="st6" d="M170.75,242.94h-33.3c-1.3,0-2.35-1.05-2.35-2.35c0-1.3,1.05-2.35,2.35-2.35h33.3c1.3,0,2.35,1.05,2.35,2.35
		C173.1,241.89,172.05,242.94,170.75,242.94z"/>
	<path class="st6" d="M346.27,242.94h-33.3c-1.3,0-2.35-1.05-2.35-2.35c0-1.3,1.05-2.35,2.35-2.35h33.3c1.3,0,2.35,1.05,2.35,2.35
		C348.62,241.89,347.57,242.94,346.27,242.94z"/>
	<path class="st6" d="M157.69,256.15h-20.23c-1.3,0-2.35-1.05-2.35-2.35c0-1.3,1.05-2.35,2.35-2.35h20.23c1.3,0,2.35,1.05,2.35,2.35
		C160.04,255.1,158.99,256.15,157.69,256.15z"/>
	<path class="st6" d="M333.21,256.15h-20.23c-1.3,0-2.35-1.05-2.35-2.35c0-1.3,1.05-2.35,2.35-2.35h20.23c1.3,0,2.35,1.05,2.35,2.35
		C335.55,255.1,334.5,256.15,333.21,256.15z"/>
	<path class="st6" d="M149.28,270.44h-10.89c-1.3,0-2.35-1.05-2.35-2.35c0-1.3,1.05-2.35,2.35-2.35h10.89c1.3,0,2.35,1.05,2.35,2.35
		C151.63,269.39,150.58,270.44,149.28,270.44z"/>
	<path class="st6" d="M324.8,270.44h-10.89c-1.3,0-2.35-1.05-2.35-2.35c0-1.3,1.05-2.35,2.35-2.35h10.89c1.3,0,2.35,1.05,2.35,2.35
		C327.14,269.39,326.09,270.44,324.8,270.44z"/>
	<path class="st6" d="M151.15,283.11h-12.76c-1.3,0-2.35-1.05-2.35-2.35s1.05-2.35,2.35-2.35h12.76c1.3,0,2.35,1.05,2.35,2.35
		S152.45,283.11,151.15,283.11z"/>
	<path class="st6" d="M326.67,283.11h-12.76c-1.3,0-2.35-1.05-2.35-2.35s1.05-2.35,2.35-2.35h12.76c1.3,0,2.35,1.05,2.35,2.35
		S327.96,283.11,326.67,283.11z"/>
	<path class="st6" d="M227.71,434.06h-90.25c-1.3,0-2.35-1.05-2.35-2.35s1.05-2.35,2.35-2.35h90.25c1.3,0,2.35,1.05,2.35,2.35
		S229.01,434.06,227.71,434.06z"/>
	<path class="st6" d="M310.8,474.02H136.52c-1.3,0-2.35-1.05-2.35-2.35c0-1.3,1.05-2.35,2.35-2.35H310.8c1.3,0,2.35,1.05,2.35,2.35
		C313.15,472.97,312.1,474.02,310.8,474.02z"/>
	<path class="st6" d="M433.29,332.49H137.64c-1.3,0-2.35-1.05-2.35-2.35c0-1.3,1.05-2.35,2.35-2.35h295.65
		c1.3,0,2.35,1.05,2.35,2.35C435.64,331.44,434.59,332.49,433.29,332.49z"/>
	<path class="st6" d="M433.29,343.48H137.64c-1.3,0-2.35-1.05-2.35-2.35s1.05-2.35,2.35-2.35h295.65c1.3,0,2.35,1.05,2.35,2.35
		S434.59,343.48,433.29,343.48z"/>
	<path class="st6" d="M433.29,354.47H137.64c-1.3,0-2.35-1.05-2.35-2.35c0-1.3,1.05-2.35,2.35-2.35h295.65
		c1.3,0,2.35,1.05,2.35,2.35C435.64,353.42,434.59,354.47,433.29,354.47z"/>
	<path class="st6" d="M433.29,365.46H137.64c-1.3,0-2.35-1.05-2.35-2.35c0-1.3,1.05-2.35,2.35-2.35h295.65
		c1.3,0,2.35,1.05,2.35,2.35C435.64,364.41,434.59,365.46,433.29,365.46z"/>
	<path class="st6" d="M433.29,376.46H137.64c-1.3,0-2.35-1.05-2.35-2.35c0-1.3,1.05-2.35,2.35-2.35h295.65
		c1.3,0,2.35,1.05,2.35,2.35C435.64,375.41,434.59,376.46,433.29,376.46z"/>
	<path class="st6" d="M433.29,387.45H137.64c-1.3,0-2.35-1.05-2.35-2.35c0-1.3,1.05-2.35,2.35-2.35h295.65
		c1.3,0,2.35,1.05,2.35,2.35C435.64,386.4,434.59,387.45,433.29,387.45z"/>
	<path class="st6" d="M433.29,398.21H137.64c-1.3,0-2.35-1.05-2.35-2.35c0-1.3,1.05-2.35,2.35-2.35h295.65
		c1.3,0,2.35,1.05,2.35,2.35C435.64,397.16,434.59,398.21,433.29,398.21z"/>
	<polygon class="st0" points="186.34,275.01 184.17,276.81 184.17,278.5 186.34,276.67 186.34,285.7 187.94,285.7 187.94,275.01 	
		"/>
	<g>
		<defs>
			<rect id="SVGID_00000179625399075266697650000006493346631700896948_" x="62.08" width="387.83" height="512"/>
		</defs>
		<clipPath id="SVGID_00000085948185664117411600000007842396133335516584_">
			<use xlink:href="#SVGID_00000179625399075266697650000006493346631700896948_"  style="overflow:visible;"/>
		</clipPath>
		<path style="clip-path:url(#SVGID_00000085948185664117411600000007842396133335516584_);fill:#6EC3BF;" d="M189.84,268.18v-1.37
			h-4.53l3.48-4.1c0.38-0.45,0.63-0.82,0.78-1.11c0.18-0.36,0.27-0.77,0.27-1.2c0-0.91-0.3-1.64-0.89-2.19
			c-0.59-0.55-1.37-0.81-2.32-0.81c-0.95,0-1.72,0.27-2.33,0.82c-0.6,0.56-0.9,1.3-0.9,2.2h1.59c0-0.56,0.17-0.99,0.5-1.27
			c0.29-0.25,0.67-0.38,1.14-0.38c1.08,0,1.62,0.54,1.62,1.62c0,0.49-0.2,0.97-0.59,1.43l-4.28,5v1.37H189.84z"/>
		<path style="clip-path:url(#SVGID_00000085948185664117411600000007842396133335516584_);fill:#6EC3BF;" d="M189.85,247.66
			c0-1.24-0.52-2.08-1.56-2.53c0.93-0.44,1.39-1.2,1.39-2.28c0-0.88-0.3-1.6-0.91-2.16c-0.6-0.56-1.38-0.83-2.32-0.83
			c-0.91,0-1.66,0.26-2.27,0.78c-0.62,0.53-0.95,1.24-0.99,2.13h1.59c0.09-1.02,0.64-1.53,1.67-1.53c1.09,0,1.63,0.55,1.63,1.65
			c0,1.08-0.56,1.63-1.68,1.63h-0.27v1.34h0.27c1.24,0,1.85,0.58,1.85,1.75c0,1.18-0.6,1.77-1.81,1.77c-0.5,0-0.91-0.13-1.24-0.39
			c-0.35-0.28-0.55-0.69-0.58-1.24h-1.59c0.03,0.99,0.38,1.76,1.06,2.28c0.6,0.48,1.38,0.73,2.34,0.73c0.98,0,1.77-0.27,2.4-0.78
			C189.52,249.42,189.85,248.65,189.85,247.66"/>
		<path style="clip-path:url(#SVGID_00000085948185664117411600000007842396133335516584_);fill:#6EC3BF;" d="M189.84,233.14v-1.37
			h-4.53l3.48-4.1c0.38-0.45,0.63-0.82,0.78-1.11c0.18-0.36,0.27-0.77,0.27-1.2c0-0.91-0.3-1.64-0.89-2.19
			c-0.59-0.55-1.37-0.81-2.32-0.81c-0.95,0-1.72,0.27-2.33,0.82c-0.6,0.56-0.9,1.3-0.9,2.2h1.59c0-0.56,0.17-0.99,0.5-1.27
			c0.29-0.25,0.67-0.38,1.14-0.38c1.08,0,1.62,0.54,1.62,1.62c0,0.49-0.2,0.97-0.59,1.43l-4.28,5v1.37H189.84z"/>
	</g>
	<polygon class="st0" points="186.34,187.4 184.17,189.2 184.17,190.9 186.34,189.07 186.34,198.1 187.94,198.1 187.94,187.4 	"/>
	<g>
		<defs>
			<rect id="SVGID_00000183951016621857857560000012818127306742088839_" x="62.08" width="387.83" height="512"/>
		</defs>
		<clipPath id="SVGID_00000171692219990611718980000001584276283400971948_">
			<use xlink:href="#SVGID_00000183951016621857857560000012818127306742088839_"  style="overflow:visible;"/>
		</clipPath>
		<path style="clip-path:url(#SVGID_00000171692219990611718980000001584276283400971948_);fill:#6EC3BF;" d="M189.84,180.58v-1.37
			h-4.53l3.48-4.1c0.38-0.45,0.63-0.82,0.78-1.11c0.18-0.36,0.27-0.77,0.27-1.2c0-0.91-0.3-1.64-0.89-2.19
			c-0.59-0.55-1.37-0.81-2.32-0.81c-0.95,0-1.72,0.27-2.33,0.82c-0.6,0.56-0.9,1.3-0.9,2.2h1.59c0-0.56,0.17-0.99,0.5-1.27
			c0.29-0.25,0.67-0.38,1.14-0.38c1.08,0,1.62,0.54,1.62,1.62c0,0.49-0.2,0.97-0.59,1.43l-4.28,5v1.37H189.84z"/>
	</g>
	<polygon class="st0" points="365.59,275.01 363.43,276.81 363.43,278.5 365.59,276.67 365.59,285.7 367.19,285.7 367.19,275.01 	
		"/>
	<g>
		<defs>
			<rect id="SVGID_00000140737478495616443750000011347364751729588912_" x="62.08" width="387.83" height="512"/>
		</defs>
		<clipPath id="SVGID_00000111881021033150956680000011864263094569554321_">
			<use xlink:href="#SVGID_00000140737478495616443750000011347364751729588912_"  style="overflow:visible;"/>
		</clipPath>
		<path style="clip-path:url(#SVGID_00000111881021033150956680000011864263094569554321_);fill:#6EC3BF;" d="M369.09,268.18v-1.37
			h-4.53l3.48-4.1c0.38-0.45,0.63-0.82,0.78-1.11c0.18-0.36,0.27-0.77,0.27-1.2c0-0.91-0.3-1.64-0.89-2.19
			c-0.59-0.55-1.37-0.81-2.32-0.81c-0.95,0-1.72,0.27-2.33,0.82c-0.6,0.56-0.9,1.3-0.9,2.2h1.59c0-0.56,0.17-0.99,0.5-1.27
			c0.29-0.25,0.67-0.38,1.14-0.38c1.08,0,1.62,0.54,1.62,1.62c0,0.49-0.2,0.97-0.59,1.43l-4.28,5v1.37H369.09z"/>
		<path style="clip-path:url(#SVGID_00000111881021033150956680000011864263094569554321_);fill:#6EC3BF;" d="M369.11,247.66
			c0-1.24-0.52-2.08-1.56-2.53c0.93-0.44,1.39-1.2,1.39-2.28c0-0.88-0.3-1.6-0.91-2.16c-0.6-0.56-1.38-0.83-2.32-0.83
			c-0.91,0-1.66,0.26-2.27,0.78c-0.62,0.53-0.95,1.24-0.99,2.13h1.59c0.09-1.02,0.64-1.53,1.67-1.53c1.09,0,1.63,0.55,1.63,1.65
			c0,1.08-0.56,1.63-1.68,1.63h-0.27v1.34h0.27c1.24,0,1.85,0.58,1.85,1.75c0,1.18-0.6,1.77-1.81,1.77c-0.5,0-0.91-0.13-1.24-0.39
			c-0.35-0.28-0.55-0.69-0.58-1.24h-1.59c0.03,0.99,0.38,1.76,1.06,2.28c0.6,0.48,1.38,0.73,2.34,0.73c0.98,0,1.77-0.27,2.4-0.78
			C368.77,249.42,369.11,248.65,369.11,247.66"/>
		<path style="clip-path:url(#SVGID_00000111881021033150956680000011864263094569554321_);fill:#6EC3BF;" d="M369.09,233.14v-1.37
			h-4.53l3.48-4.1c0.38-0.45,0.63-0.82,0.78-1.11c0.18-0.36,0.27-0.77,0.27-1.2c0-0.91-0.3-1.64-0.89-2.19
			c-0.59-0.55-1.37-0.81-2.32-0.81c-0.95,0-1.72,0.27-2.33,0.82c-0.6,0.56-0.9,1.3-0.9,2.2h1.59c0-0.56,0.17-0.99,0.5-1.27
			c0.29-0.25,0.67-0.38,1.14-0.38c1.08,0,1.62,0.54,1.62,1.62c0,0.49-0.2,0.97-0.59,1.43l-4.28,5v1.37H369.09z"/>
	</g>
	<polygon class="st0" points="365.59,187.4 363.43,189.2 363.43,190.9 365.59,189.07 365.59,198.1 367.19,198.1 367.19,187.4 	"/>
	<g>
		<defs>
			<rect id="SVGID_00000039114253281482690050000015419921416021368471_" x="62.08" width="387.83" height="512"/>
		</defs>
		<clipPath id="SVGID_00000054237120564777655890000008261420377987326119_">
			<use xlink:href="#SVGID_00000039114253281482690050000015419921416021368471_"  style="overflow:visible;"/>
		</clipPath>
		<path style="clip-path:url(#SVGID_00000054237120564777655890000008261420377987326119_);fill:#6EC3BF;" d="M369.09,180.58v-1.37
			h-4.53l3.48-4.1c0.38-0.45,0.63-0.82,0.78-1.11c0.18-0.36,0.27-0.77,0.27-1.2c0-0.91-0.3-1.64-0.89-2.19
			c-0.59-0.55-1.37-0.81-2.32-0.81c-0.95,0-1.72,0.27-2.33,0.82c-0.6,0.56-0.9,1.3-0.9,2.2h1.59c0-0.56,0.17-0.99,0.5-1.27
			c0.29-0.25,0.67-0.38,1.14-0.38c1.08,0,1.62,0.54,1.62,1.62c0,0.49-0.2,0.97-0.59,1.43l-4.28,5v1.37H369.09z"/>
	</g>
</g>
</svg>
