<?xml version="1.0" encoding="UTF-8"?> <!-- Generator: Adobe Illustrator 24.2.1, SVG Export Plug-In . SVG Version: 6.00 Build 0) --> <svg xmlns="http://www.w3.org/2000/svg" xmlns:xlink="http://www.w3.org/1999/xlink" version="1.1" id="Ebene_1" x="0px" y="0px" viewBox="0 0 636.1 342.4" style="enable-background:new 0 0 636.1 342.4;" xml:space="preserve"> <style type="text/css"> .st0{fill:#88D0CB;} .st1{fill:#62C6BF;} .st2{fill:#292C68;} .st3{font-family:'DINPro-Bold';} .st4{font-size:13px;} .st5{fill:#FFFFFF;} .st6{fill:none;stroke:#2A2C68;stroke-width:0.6;stroke-linejoin:round;} .st7{fill:#2A2C68;} .st8{font-family:'DINPro-Medium';} .st9{font-size:9.5px;} </style> <g id="Layer-1_5_"> <path class="st0" d="M17.4,61v279.1H3.3V61H17.4z"></path> </g> <g id="Layer-1_6_"> <path class="st0" d="M179.4,61v279.1h-14.2V61H179.4z"></path> </g> <g id="Layer-1_7_"> <path class="st0" d="M341.8,23.1v317.1h-14.2V23.1H341.8z"></path> </g> <g id="Layer-1_8_"> <path class="st0" d="M503.4,263.2v76.9h-14.2v-76.9H503.4z"></path> </g> <g id="Layer-1_9_"> <path class="st1" d="M10,340v-54.2h589.6V340H10z"></path> </g> <g id="Layer-1_10_"> <text transform="matrix(1 0 0 1 135.0999 308.8153)" class="st2 st3 st4">M</text> <text transform="matrix(1 0 0 1 145.9046 308.8153)" class="st2 st3 st4">ö</text> <text transform="matrix(1 0 0 1 153.223 308.8153)" class="st2 st3 st4">g</text> <text transform="matrix(1 0 0 1 160.6976 308.8153)" class="st2 st3 st4">l</text> <text transform="matrix(1 0 0 1 165.182 308.8153)" class="st2 st3 st4">i</text> <text transform="matrix(1 0 0 1 169.0179 308.8153)" class="st2 st3 st4">c</text> <text transform="matrix(1 0 0 1 175.5179 308.8153)" class="st2 st3 st4">h</text> <text transform="matrix(1 0 0 1 183.2269 308.8153)" class="st2 st3 st4">k</text> <text transform="matrix(1 0 0 1 190.2327 308.8153)" class="st2 st3 st4">e</text> <text transform="matrix(1 0 0 1 197.6175 308.8153)" class="st2 st3 st4">i</text> <text transform="matrix(1 0 0 1 201.4534 308.8153)" class="st2 st3 st4">t</text> <text transform="matrix(1 0 0 1 206.223 308.8153)" class="st2 st3 st4">e</text> <text transform="matrix(1 0 0 1 213.6077 308.8153)" class="st2 st3 st4">n</text> <text transform="matrix(1 0 0 1 221.3167 308.8153)" class="st2 st3 st4"> </text> <text transform="matrix(1 0 0 1 224.5921 308.8153)" class="st2 st3 st4">n</text> <text transform="matrix(1 0 0 1 232.3011 308.8153)" class="st2 st3 st4">a</text> <text transform="matrix(1 0 0 1 239.5042 308.8153)" class="st2 st3 st4">c</text> <text transform="matrix(1 0 0 1 246.0042 308.8153)" class="st2 st3 st4">h</text> <text transform="matrix(1 0 0 1 253.7132 308.8153)" class="st2 st3 st4"> </text> <text transform="matrix(1 0 0 1 256.9886 308.8153)" class="st2 st3 st4">d</text> <text transform="matrix(1 0 0 1 264.5413 308.8153)" class="st2 st3 st4">e</text> <text transform="matrix(1 0 0 1 271.9261 308.8153)" class="st2 st3 st4">r</text> <text transform="matrix(1 0 0 1 278.0999 308.8153)" class="st2 st3 st4"> </text> <text transform="matrix(1 0 0 1 281.3773 308.8153)" class="st2 st3 st4">F</text> <text transform="matrix(1 0 0 1 288.9163 308.8153)" class="st2 st3 st4">a</text> <text transform="matrix(1 0 0 1 296.1194 308.8153)" class="st2 st3 st4">c</text> <text transform="matrix(1 0 0 1 302.6194 308.8153)" class="st2 st3 st4">h</text> <text transform="matrix(1 0 0 1 310.3284 308.8153)" class="st2 st3 st4">s</text> <text transform="matrix(1 0 0 1 317.0999 308.8153)" class="st2 st3 st4">c</text> <text transform="matrix(1 0 0 1 323.5999 308.8153)" class="st2 st3 st4">h</text> <text transform="matrix(1 0 0 1 331.3089 308.8153)" class="st2 st3 st4">u</text> <text transform="matrix(1 0 0 1 339.0179 308.8153)" class="st2 st3 st4">l</text> <text transform="matrix(1 0 0 1 343.5042 308.8153)" class="st2 st3 st4">r</text> <text transform="matrix(1 0 0 1 349.2894 308.8153)" class="st2 st3 st4">e</text> <text transform="matrix(1 0 0 1 356.6722 308.8153)" class="st2 st3 st4">i</text> <text transform="matrix(1 0 0 1 360.5081 308.8153)" class="st2 st3 st4">f</text> <text transform="matrix(1 0 0 1 365.0179 308.8153)" class="st2 st3 st4">e</text> <text transform="matrix(1 0 0 1 372.4026 308.8153)" class="st2 st3 st4"> </text> <text transform="matrix(1 0 0 1 375.678 308.8153)" class="st2 st3 st4">(</text> <text transform="matrix(1 0 0 1 380.3069 308.8153)" class="st2 st3 st4">M</text> <text transform="matrix(1 0 0 1 391.1097 308.8153)" class="st2 st3 st4">i</text> <text transform="matrix(1 0 0 1 394.9456 308.8153)" class="st2 st3 st4">t</text> <text transform="matrix(1 0 0 1 399.7816 308.8153)" class="st2 st3 st4">t</text> <text transform="matrix(1 0 0 1 404.6175 308.8153)" class="st2 st3 st4">l</text> <text transform="matrix(1 0 0 1 408.971 308.8153)" class="st2 st3 st4">e</text> <text transform="matrix(1 0 0 1 416.3558 308.8153)" class="st2 st3 st4">r</text> <text transform="matrix(1 0 0 1 422.139 308.8153)" class="st2 st3 st4">e</text> <text transform="matrix(1 0 0 1 429.5237 308.8153)" class="st2 st3 st4"> </text> <text transform="matrix(1 0 0 1 432.7991 308.8153)" class="st2 st3 st4">R</text> <text transform="matrix(1 0 0 1 441.1722 308.8153)" class="st2 st3 st4">e</text> <text transform="matrix(1 0 0 1 448.555 308.8153)" class="st2 st3 st4">i</text> <text transform="matrix(1 0 0 1 452.3909 308.8153)" class="st2 st3 st4">f</text> <text transform="matrix(1 0 0 1 456.9007 308.8153)" class="st2 st3 st4">e</text> <text transform="matrix(1 0 0 1 464.2855 308.8153)" class="st2 st3 st4">)</text> </g> <g id="Layer-1_11_"> <text transform="matrix(1 0 0 1 101.3343 324.4149)" class="st5 st3 st4">O</text> <text transform="matrix(1 0 0 1 109.9652 324.4149)" class="st5 st3 st4">p</text> <text transform="matrix(1 0 0 1 117.5062 324.4149)" class="st5 st3 st4">t</text> <text transform="matrix(1 0 0 1 122.3421 324.4149)" class="st5 st3 st4">i</text> <text transform="matrix(1 0 0 1 126.1761 324.4149)" class="st5 st3 st4">o</text> <text transform="matrix(1 0 0 1 133.4964 324.4149)" class="st5 st3 st4">n</text> <text transform="matrix(1 0 0 1 141.2054 324.4149)" class="st5 st3 st4">s</text> <text transform="matrix(1 0 0 1 147.9769 324.4149)" class="st5 st3 st4"> </text> <text transform="matrix(1 0 0 1 151.2542 324.4149)" class="st5 st3 st4">w</text> <text transform="matrix(1 0 0 1 161.3812 324.4149)" class="st5 st3 st4">i</text> <text transform="matrix(1 0 0 1 165.2152 324.4149)" class="st5 st3 st4">t</text> <text transform="matrix(1 0 0 1 170.0511 324.4149)" class="st5 st3 st4">h</text> <text transform="matrix(1 0 0 1 177.7601 324.4149)" class="st5 st3 st4"> </text> <text transform="matrix(1 0 0 1 181.0374 324.4149)" class="st5 st3 st4">a</text> <text transform="matrix(1 0 0 1 188.2386 324.4149)" class="st5 st3 st4">n</text> <text transform="matrix(1 0 0 1 195.9476 324.4149)" class="st5 st3 st4"> </text> <text transform="matrix(1 0 0 1 199.223 324.4149)" class="st5 st3 st4">i</text> <text transform="matrix(1 0 0 1 203.0589 324.4149)" class="st5 st3 st4">n</text> <text transform="matrix(1 0 0 1 210.7679 324.4149)" class="st5 st3 st4">t</text> <text transform="matrix(1 0 0 1 215.5394 324.4149)" class="st5 st3 st4">e</text> <text transform="matrix(1 0 0 1 222.9222 324.4149)" class="st5 st3 st4">r</text> <text transform="matrix(1 0 0 1 229.098 324.4149)" class="st5 st3 st4">m</text> <text transform="matrix(1 0 0 1 240.7464 324.4149)" class="st5 st3 st4">e</text> <text transform="matrix(1 0 0 1 248.1292 324.4149)" class="st5 st3 st4">d</text> <text transform="matrix(1 0 0 1 255.6819 324.4149)" class="st5 st3 st4">i</text> <text transform="matrix(1 0 0 1 259.5179 324.4149)" class="st5 st3 st4">a</text> <text transform="matrix(1 0 0 1 266.7191 324.4149)" class="st5 st3 st4">t</text> <text transform="matrix(1 0 0 1 271.4905 324.4149)" class="st5 st3 st4">e</text> <text transform="matrix(1 0 0 1 278.8753 324.4149)" class="st5 st3 st4"> </text> <text transform="matrix(1 0 0 1 282.1507 324.4149)" class="st5 st3 st4">s</text> <text transform="matrix(1 0 0 1 288.9241 324.4149)" class="st5 st3 st4">e</text> <text transform="matrix(1 0 0 1 296.3069 324.4149)" class="st5 st3 st4">c</text> <text transform="matrix(1 0 0 1 302.6116 324.4149)" class="st5 st3 st4">o</text> <text transform="matrix(1 0 0 1 309.9319 324.4149)" class="st5 st3 st4">n</text> <text transform="matrix(1 0 0 1 317.6409 324.4149)" class="st5 st3 st4">d</text> <text transform="matrix(1 0 0 1 325.1937 324.4149)" class="st5 st3 st4">a</text> <text transform="matrix(1 0 0 1 332.3948 324.4149)" class="st5 st3 st4">r</text> <text transform="matrix(1 0 0 1 338.5706 324.4149)" class="st5 st3 st4">y</text> <text transform="matrix(1 0 0 1 345.2523 324.4149)" class="st5 st3 st4"> </text> <text transform="matrix(1 0 0 1 348.5276 324.4149)" class="st5 st3 st4">s</text> <text transform="matrix(1 0 0 1 355.3011 324.4149)" class="st5 st3 st4">c</text> <text transform="matrix(1 0 0 1 361.8011 324.4149)" class="st5 st3 st4">h</text> <text transform="matrix(1 0 0 1 369.5101 324.4149)" class="st5 st3 st4">o</text> <text transform="matrix(1 0 0 1 376.8304 324.4149)" class="st5 st3 st4">o</text> <text transform="matrix(1 0 0 1 384.1487 324.4149)" class="st5 st3 st4">l</text> <text transform="matrix(1 0 0 1 388.6331 324.4149)" class="st5 st3 st4"> </text> <text transform="matrix(1 0 0 1 391.9105 324.4149)" class="st5 st3 st4">l</text> <text transform="matrix(1 0 0 1 396.264 324.4149)" class="st5 st3 st4">e</text> <text transform="matrix(1 0 0 1 403.6487 324.4149)" class="st5 st3 st4">a</text> <text transform="matrix(1 0 0 1 410.8499 324.4149)" class="st5 st3 st4">v</text> <text transform="matrix(1 0 0 1 417.5198 324.4149)" class="st5 st3 st4">i</text> <text transform="matrix(1 0 0 1 421.3538 324.4149)" class="st5 st3 st4">n</text> <text transform="matrix(1 0 0 1 429.0628 324.4149)" class="st5 st3 st4">g</text> <text transform="matrix(1 0 0 1 436.5394 324.4149)" class="st5 st3 st4"> </text> <text transform="matrix(1 0 0 1 439.8148 324.4149)" class="st5 st3 st4">c</text> <text transform="matrix(1 0 0 1 446.1194 324.4149)" class="st5 st3 st4">e</text> <text transform="matrix(1 0 0 1 453.5042 324.4149)" class="st5 st3 st4">r</text> <text transform="matrix(1 0 0 1 459.678 324.4149)" class="st5 st3 st4">t</text> <text transform="matrix(1 0 0 1 464.514 324.4149)" class="st5 st3 st4">i</text> <text transform="matrix(1 0 0 1 468.3499 324.4149)" class="st5 st3 st4">f</text> <text transform="matrix(1 0 0 1 473.055 324.4149)" class="st5 st3 st4">i</text> <text transform="matrix(1 0 0 1 476.8909 324.4149)" class="st5 st3 st4">c</text> <text transform="matrix(1 0 0 1 483.3265 324.4149)" class="st5 st3 st4">a</text> <text transform="matrix(1 0 0 1 490.5276 324.4149)" class="st5 st3 st4">t</text> <text transform="matrix(1 0 0 1 495.2991 324.4149)" class="st5 st3 st4">e</text> </g> <path class="st6" d="M3.6,340.1v-54h596v54H3.6z"></path> <g id="Layer-1_12_"> <path class="st1" d="M496.8,264V129.3h135.9V264H496.8z"></path> </g> <g id="Layer-1_13_"> <path class="st1" d="M335.3,264V35h135.9v229H335.3z"></path> </g> <g id="Layer-1_14_"> <path class="st1" d="M172.6,264.1V72.7h135.9v191.4H172.6z"></path> </g> <g id="Layer-1_15_"> <path class="st1" d="M10.6,264.1V174h135.9v90.1H10.6z"></path> </g> <g id="Layer-1_16_"> <path class="st1" d="M10.6,163.1V73h135.9v90.1H10.6z"></path> </g> <g id="Layer-1_17_"> <text transform="matrix(0.96 0 0 1 503.9082 152.9726)" class="st2 st3 st4">D</text> <text transform="matrix(0.96 0 0 1 512.3828 152.9726)" class="st2 st3 st4">u</text> <text transform="matrix(0.96 0 0 1 519.7832 152.9726)" class="st2 st3 st4">a</text> <text transform="matrix(0.96 0 0 1 526.6973 152.9726)" class="st2 st3 st4">l</text> <text transform="matrix(0.96 0 0 1 530.8789 152.9726)" class="st2 st3 st4">e</text> <text transform="matrix(0.96 0 0 1 537.9668 152.9726)" class="st2 st3 st4"> </text> <text transform="matrix(0.96 0 0 1 541.1113 152.9726)" class="st2 st3 st4">/</text> <text transform="matrix(0.96 0 0 1 546.3906 152.9726)" class="st2 st3 st4"> </text> <text transform="matrix(0.96 0 0 1 549.5352 152.9726)" class="st2 st3 st4">b</text> <text transform="matrix(0.96 0 0 1 556.7734 152.9726)" class="st2 st3 st4">e</text> <text transform="matrix(0.96 0 0 1 563.8633 152.9726)" class="st2 st3 st4">t</text> <text transform="matrix(0.96 0 0 1 568.5039 152.9726)" class="st2 st3 st4">r</text> <text transform="matrix(0.96 0 0 1 574.4336 152.9726)" class="st2 st3 st4">i</text> <text transform="matrix(0.96 0 0 1 578.1152 152.9726)" class="st2 st3 st4">e</text> <text transform="matrix(0.96 0 0 1 585.2031 152.9726)" class="st2 st3 st4">b</text> <text transform="matrix(0.96 0 0 1 592.4414 152.9726)" class="st2 st3 st4">l</text> <text transform="matrix(0.96 0 0 1 596.7461 152.9726)" class="st2 st3 st4">i</text> <text transform="matrix(0.96 0 0 1 600.4277 152.9726)" class="st2 st3 st4">c</text> <text transform="matrix(0.96 0 0 1 606.668 152.9726)" class="st2 st3 st4">h</text> <text transform="matrix(0.96 0 0 1 614.0684 152.9726)" class="st2 st3 st4">e</text> <text transform="matrix(0.96 0 0 1 620.9082 152.9726)" class="st2 st3 st4"> </text> </g> <g id="Layer-1_18_"> <text transform="matrix(0.96 0 0 1 529.3105 168.5722)" class="st2 st3 st4">A</text> <text transform="matrix(0.96 0 0 1 537.5234 168.5722)" class="st2 st3 st4">u</text> <text transform="matrix(0.96 0 0 1 544.9238 168.5722)" class="st2 st3 st4">s</text> <text transform="matrix(0.96 0 0 1 551.4258 168.5722)" class="st2 st3 st4">b</text> <text transform="matrix(0.96 0 0 1 558.6641 168.5722)" class="st2 st3 st4">i</text> <text transform="matrix(0.96 0 0 1 562.3457 168.5722)" class="st2 st3 st4">l</text> <text transform="matrix(0.96 0 0 1 566.5254 168.5722)" class="st2 st3 st4">d</text> <text transform="matrix(0.96 0 0 1 573.7773 168.5722)" class="st2 st3 st4">u</text> <text transform="matrix(0.96 0 0 1 581.1777 168.5722)" class="st2 st3 st4">n</text> <text transform="matrix(0.96 0 0 1 588.5781 168.5722)" class="st2 st3 st4">g</text> </g> <g id="Layer-1_19_"> <text transform="matrix(0.96 0 0 1 513.0195 184.1718)" class="st5 st3 st4">D</text> <text transform="matrix(0.96 0 0 1 521.4922 184.1718)" class="st5 st3 st4">u</text> <text transform="matrix(0.96 0 0 1 528.8926 184.1718)" class="st5 st3 st4">a</text> <text transform="matrix(0.96 0 0 1 535.8066 184.1718)" class="st5 st3 st4">l</text> <text transform="matrix(0.96 0 0 1 540.1133 184.1718)" class="st5 st3 st4"> </text> <text transform="matrix(0.96 0 0 1 543.2578 184.1718)" class="st5 st3 st4">v</text> <text transform="matrix(0.96 0 0 1 549.5332 184.1718)" class="st5 st3 st4">o</text> <text transform="matrix(0.96 0 0 1 556.5605 184.1718)" class="st5 st3 st4">c</text> <text transform="matrix(0.96 0 0 1 562.7383 184.1718)" class="st5 st3 st4">a</text> <text transform="matrix(0.96 0 0 1 569.6504 184.1718)" class="st5 st3 st4">t</text> <text transform="matrix(0.96 0 0 1 574.293 184.1718)" class="st5 st3 st4">i</text> <text transform="matrix(0.96 0 0 1 577.9746 184.1718)" class="st5 st3 st4">o</text> <text transform="matrix(0.96 0 0 1 585.002 184.1718)" class="st5 st3 st4">n</text> <text transform="matrix(0.96 0 0 1 592.4023 184.1718)" class="st5 st3 st4">a</text> <text transform="matrix(0.96 0 0 1 599.3164 184.1718)" class="st5 st3 st4">l</text> <text transform="matrix(0.96 0 0 1 603.6211 184.1718)" class="st5 st3 st4"> </text> <text transform="matrix(0.96 0 0 1 606.7676 184.1718)" class="st5 st3 st4">/</text> <text transform="matrix(0.96 0 0 1 611.7969 184.1718)" class="st5 st3 st4"> </text> </g> <g id="Layer-1_20_"> <text transform="matrix(0.96 0 0 1 503.1718 199.7724)" class="st5 st3 st4">i</text> <text transform="matrix(0.96 0 0 1 506.8535 199.7724)" class="st5 st3 st4">n</text> <text transform="matrix(0.96 0 0 1 514.2539 199.7724)" class="st5 st3 st4">-</text> <text transform="matrix(0.96 0 0 1 519.8203 199.7724)" class="st5 st3 st4">c</text> <text transform="matrix(0.96 0 0 1 525.873 199.7724)" class="st5 st3 st4">o</text> <text transform="matrix(0.96 0 0 1 532.9004 199.7724)" class="st5 st3 st4">m</text> <text transform="matrix(0.96 0 0 1 544.082 199.7724)" class="st5 st3 st4">p</text> <text transform="matrix(0.96 0 0 1 551.3203 199.7724)" class="st5 st3 st4">a</text> <text transform="matrix(0.96 0 0 1 558.2344 199.7724)" class="st5 st3 st4">n</text> <text transform="matrix(0.96 0 0 1 565.6348 199.7724)" class="st5 st3 st4">y</text> <text transform="matrix(0.96 0 0 1 572.0488 199.7724)" class="st5 st3 st4"> </text> <text transform="matrix(0.96 0 0 1 575.1934 199.7724)" class="st5 st3 st4">t</text> <text transform="matrix(0.96 0 0 1 579.8359 199.7724)" class="st5 st3 st4">r</text> <text transform="matrix(0.96 0 0 1 585.6406 199.7724)" class="st5 st3 st4">a</text> <text transform="matrix(0.96 0 0 1 592.5527 199.7724)" class="st5 st3 st4">i</text> <text transform="matrix(0.96 0 0 1 596.2344 199.7724)" class="st5 st3 st4">n</text> <text transform="matrix(0.96 0 0 1 603.6367 199.7724)" class="st5 st3 st4">i</text> <text transform="matrix(0.96 0 0 1 607.3184 199.7724)" class="st5 st3 st4">n</text> <text transform="matrix(0.96 0 0 1 614.7188 199.7724)" class="st5 st3 st4">g</text> </g> <g id="Layer-1_21_"> <text transform="matrix(1 0 0 1 506.7679 226.371)" class="st7 st8 st9">B</text> <text transform="matrix(1 0 0 1 513.1605 226.371)" class="st7 st8 st9">e</text> <text transform="matrix(1 0 0 1 518.3753 226.371)" class="st7 st8 st9">t</text> <text transform="matrix(1 0 0 1 521.721 226.371)" class="st7 st8 st9">r</text> <text transform="matrix(1 0 0 1 525.9847 226.371)" class="st7 st8 st9">i</text> <text transform="matrix(1 0 0 1 528.5882 226.371)" class="st7 st8 st9">e</text> <text transform="matrix(1 0 0 1 533.805 226.371)" class="st7 st8 st9">b</text> <text transform="matrix(1 0 0 1 539.1526 226.371)" class="st7 st8 st9"> </text> <text transform="matrix(1 0 0 1 541.5276 226.371)" class="st7 st8 st9">u</text> <text transform="matrix(1 0 0 1 547.0179 226.371)" class="st7 st8 st9">n</text> <text transform="matrix(1 0 0 1 552.5101 226.371)" class="st7 st8 st9">d</text> <text transform="matrix(1 0 0 1 557.8577 226.371)" class="st7 st8 st9"> </text> <text transform="matrix(1 0 0 1 560.2327 226.371)" class="st7 st8 st9">B</text> <text transform="matrix(1 0 0 1 566.6273 226.371)" class="st7 st8 st9">e</text> <text transform="matrix(1 0 0 1 571.8421 226.371)" class="st7 st8 st9">r</text> </g> <g id="Layer-1_22_"> <text transform="matrix(1 0 0 1 576.1058 226.371)" class="st7 st8 st9">u</text> <text transform="matrix(1 0 0 1 581.598 226.371)" class="st7 st8 st9">f</text> <text transform="matrix(1 0 0 1 584.6663 226.371)" class="st7 st8 st9">s</text> <text transform="matrix(1 0 0 1 589.4534 226.371)" class="st7 st8 st9">s</text> <text transform="matrix(1 0 0 1 594.2894 226.371)" class="st7 st8 st9">c</text> <text transform="matrix(1 0 0 1 598.9925 226.371)" class="st7 st8 st9">h</text> <text transform="matrix(1 0 0 1 604.4827 226.371)" class="st7 st8 st9">u</text> <text transform="matrix(1 0 0 1 609.9749 226.371)" class="st7 st8 st9">l</text> <text transform="matrix(1 0 0 1 612.928 226.371)" class="st7 st8 st9">e</text> </g> <g id="Layer-1_23_"> <text transform="matrix(0.95 0 0 1 534.6465 237.372)" class="st5 st8 st9">C</text> <text transform="matrix(0.95 0 0 1 540.4043 237.372)" class="st5 st8 st9">o</text> <text transform="matrix(0.95 0 0 1 545.3418 237.372)" class="st5 st8 st9">m</text> <text transform="matrix(0.95 0 0 1 553.3467 237.372)" class="st5 st8 st9">p</text> <text transform="matrix(0.95 0 0 1 558.4277 237.372)" class="st5 st8 st9">a</text> <text transform="matrix(0.95 0 0 1 563.3008 237.372)" class="st5 st8 st9">n</text> <text transform="matrix(0.95 0 0 1 568.5176 237.372)" class="st5 st8 st9">y</text> <text transform="matrix(0.95 0 0 1 572.8311 237.372)" class="st5 st8 st9"> </text> <text transform="matrix(0.95 0 0 1 575.0879 237.372)" class="st5 st8 st9">a</text> <text transform="matrix(0.95 0 0 1 579.9609 237.372)" class="st5 st8 st9">n</text> <text transform="matrix(0.95 0 0 1 585.1777 237.372)" class="st5 st8 st9">d</text> <text transform="matrix(0.95 0 0 1 590.168 237.372)" class="st5 st8 st9"> </text> </g> <g id="Layer-1_24_"> <text transform="matrix(0.95 0 0 1 526.7725 248.372)" class="st5 st8 st9">v</text> <text transform="matrix(0.95 0 0 1 531.0234 248.372)" class="st5 st8 st9">o</text> <text transform="matrix(0.95 0 0 1 535.96 248.372)" class="st5 st8 st9">c</text> <text transform="matrix(0.95 0 0 1 540.3828 248.372)" class="st5 st8 st9">a</text> <text transform="matrix(0.95 0 0 1 545.2559 248.372)" class="st5 st8 st9">t</text> <text transform="matrix(0.95 0 0 1 548.4326 248.372)" class="st5 st8 st9">i</text> <text transform="matrix(0.95 0 0 1 550.9053 248.372)" class="st5 st8 st9">o</text> <text transform="matrix(0.95 0 0 1 555.8418 248.372)" class="st5 st8 st9">n</text> <text transform="matrix(0.95 0 0 1 561.0586 248.372)" class="st5 st8 st9">a</text> <text transform="matrix(0.95 0 0 1 565.9316 248.372)" class="st5 st8 st9">l</text> <text transform="matrix(0.95 0 0 1 568.8291 248.372)" class="st5 st8 st9"> </text> <text transform="matrix(0.95 0 0 1 571.085 248.372)" class="st5 st8 st9">s</text> <text transform="matrix(0.95 0 0 1 575.6787 248.372)" class="st5 st8 st9">c</text> <text transform="matrix(0.95 0 0 1 580.1465 248.372)" class="st5 st8 st9">h</text> <text transform="matrix(0.95 0 0 1 585.3633 248.372)" class="st5 st8 st9">o</text> <text transform="matrix(0.95 0 0 1 590.2998 248.372)" class="st5 st8 st9">o</text> <text transform="matrix(0.95 0 0 1 595.2363 248.372)" class="st5 st8 st9">l</text> </g> <g id="Layer-1_25_"> <text transform="matrix(1 0 0 1 367.7698 100.4316)" class="st2 st3 st4">B</text> <text transform="matrix(1 0 0 1 376.5843 100.4316)" class="st2 st3 st4">e</text> <text transform="matrix(1 0 0 1 383.9671 100.4316)" class="st2 st3 st4">r</text> <text transform="matrix(1 0 0 1 390.1429 100.4316)" class="st2 st3 st4">u</text> <text transform="matrix(1 0 0 1 397.8519 100.4316)" class="st2 st3 st4">f</text> <text transform="matrix(1 0 0 1 402.5569 100.4316)" class="st2 st3 st4">l</text> <text transform="matrix(1 0 0 1 407.0433 100.4316)" class="st2 st3 st4">i</text> <text transform="matrix(1 0 0 1 410.8773 100.4316)" class="st2 st3 st4">c</text> <text transform="matrix(1 0 0 1 417.3773 100.4316)" class="st2 st3 st4">h</text> <text transform="matrix(1 0 0 1 425.0862 100.4316)" class="st2 st3 st4">e</text> </g> <g id="Layer-1_26_"> <text transform="matrix(1 0 0 1 366.3011 116.0312)" class="st2 st3 st4">G</text> <text transform="matrix(1 0 0 1 374.9984 116.0312)" class="st2 st3 st4">y</text> <text transform="matrix(1 0 0 1 381.68 116.0312)" class="st2 st3 st4">m</text> <text transform="matrix(1 0 0 1 393.3284 116.0312)" class="st2 st3 st4">n</text> <text transform="matrix(1 0 0 1 401.0374 116.0312)" class="st2 st3 st4">a</text> <text transform="matrix(1 0 0 1 408.2386 116.0312)" class="st2 st3 st4">s</text> <text transform="matrix(1 0 0 1 415.012 116.0312)" class="st2 st3 st4">i</text> <text transform="matrix(1 0 0 1 418.846 116.0312)" class="st2 st3 st4">e</text> <text transform="matrix(1 0 0 1 426.2308 116.0312)" class="st2 st3 st4">n</text> </g> <g id="Layer-1_27_"> <text transform="matrix(1 0 0 1 368.303 131.6308)" class="st5 st3 st4">V</text> <text transform="matrix(1 0 0 1 375.596 131.6308)" class="st5 st3 st4">o</text> <text transform="matrix(1 0 0 1 382.9144 131.6308)" class="st5 st3 st4">c</text> <text transform="matrix(1 0 0 1 389.3499 131.6308)" class="st5 st3 st4">a</text> <text transform="matrix(1 0 0 1 396.5511 131.6308)" class="st5 st3 st4">t</text> <text transform="matrix(1 0 0 1 401.387 131.6308)" class="st5 st3 st4">i</text> <text transform="matrix(1 0 0 1 405.223 131.6308)" class="st5 st3 st4">o</text> <text transform="matrix(1 0 0 1 412.5413 131.6308)" class="st5 st3 st4">n</text> <text transform="matrix(1 0 0 1 420.2503 131.6308)" class="st5 st3 st4">a</text> <text transform="matrix(1 0 0 1 427.4534 131.6308)" class="st5 st3 st4">l</text> <text transform="matrix(1 0 0 1 431.678 131.6308)" class="st5 st3 st4"> </text> </g> <g id="Layer-1_28_"> <text transform="matrix(1 0 0 1 346.8792 147.2323)" class="st5 st3 st4">s</text> <text transform="matrix(1 0 0 1 353.6526 147.2323)" class="st5 st3 st4">e</text> <text transform="matrix(1 0 0 1 361.0355 147.2323)" class="st5 st3 st4">c</text> <text transform="matrix(1 0 0 1 367.3401 147.2323)" class="st5 st3 st4">o</text> <text transform="matrix(1 0 0 1 374.6605 147.2323)" class="st5 st3 st4">n</text> <text transform="matrix(1 0 0 1 382.3694 147.2323)" class="st5 st3 st4">d</text> <text transform="matrix(1 0 0 1 389.9222 147.2323)" class="st5 st3 st4">a</text> <text transform="matrix(1 0 0 1 397.1234 147.2323)" class="st5 st3 st4">r</text> <text transform="matrix(1 0 0 1 403.2991 147.2323)" class="st5 st3 st4">y</text> <text transform="matrix(1 0 0 1 409.9808 147.2323)" class="st5 st3 st4"> </text> <text transform="matrix(1 0 0 1 413.2562 147.2323)" class="st5 st3 st4">s</text> <text transform="matrix(1 0 0 1 420.0296 147.2323)" class="st5 st3 st4">c</text> <text transform="matrix(1 0 0 1 426.5296 147.2323)" class="st5 st3 st4">h</text> <text transform="matrix(1 0 0 1 434.2386 147.2323)" class="st5 st3 st4">o</text> <text transform="matrix(1 0 0 1 441.5589 147.2323)" class="st5 st3 st4">o</text> <text transform="matrix(1 0 0 1 448.8773 147.2323)" class="st5 st3 st4">l</text> </g> <g id="Layer-1_29_"> <text transform="matrix(1 0 0 1 369.4612 173.832)" class="st7 st8 st9">D</text> <text transform="matrix(1 0 0 1 375.8831 173.832)" class="st7 st8 st9">a</text> <text transform="matrix(1 0 0 1 381.014 173.832)" class="st7 st8 st9">u</text> <text transform="matrix(1 0 0 1 386.5042 173.832)" class="st7 st8 st9">e</text> <text transform="matrix(1 0 0 1 391.721 173.832)" class="st7 st8 st9">r</text> <text transform="matrix(1 0 0 1 395.9866 173.832)" class="st7 st8 st9"> </text> <text transform="matrix(1 0 0 1 398.3616 173.832)" class="st7 st8 st9">3</text> <text transform="matrix(1 0 0 1 403.5198 173.832)" class="st7 st8 st9"> </text> <text transform="matrix(1 0 0 1 405.8948 173.832)" class="st7 st8 st9">J</text> <text transform="matrix(1 0 0 1 410.7972 173.832)" class="st7 st8 st9">a</text> </g> <g id="Layer-1_30_"> <text transform="matrix(1 0 0 1 415.9261 173.832)" class="st7 st8 st9">h</text> <text transform="matrix(1 0 0 1 421.4163 173.832)" class="st7 st8 st9">r</text> <text transform="matrix(1 0 0 1 425.3968 173.832)" class="st7 st8 st9">e</text> <text transform="matrix(1 0 0 1 430.5179 173.832)" class="st7 st8 st9"> </text> </g> <g id="Layer-1_31_"> <text transform="matrix(1 0 0 1 361.5862 184.832)" class="st5 st8 st9"> </text> <text transform="matrix(1 0 0 1 363.9612 184.832)" class="st5 st8 st9">D</text> <text transform="matrix(1 0 0 1 370.3831 184.832)" class="st5 st8 st9">u</text> <text transform="matrix(1 0 0 1 375.8753 184.832)" class="st5 st8 st9">r</text> <text transform="matrix(1 0 0 1 380.0452 184.832)" class="st5 st8 st9">a</text> <text transform="matrix(1 0 0 1 385.1761 184.832)" class="st5 st8 st9">t</text> <text transform="matrix(1 0 0 1 388.5198 184.832)" class="st5 st8 st9">i</text> <text transform="matrix(1 0 0 1 391.1214 184.832)" class="st5 st8 st9">o</text> <text transform="matrix(1 0 0 1 396.3187 184.832)" class="st5 st8 st9">n</text> <text transform="matrix(1 0 0 1 401.8089 184.832)" class="st5 st8 st9">:</text> <text transform="matrix(1 0 0 1 404.7835 184.832)" class="st5 st8 st9"> </text> <text transform="matrix(1 0 0 1 407.1585 184.832)" class="st5 st8 st9">3</text> <text transform="matrix(1 0 0 1 412.3167 184.832)" class="st5 st8 st9"> </text> <text transform="matrix(1 0 0 1 414.6917 184.832)" class="st5 st8 st9">y</text> <text transform="matrix(1 0 0 1 419.137 184.832)" class="st5 st8 st9">e</text> <text transform="matrix(1 0 0 1 424.3538 184.832)" class="st5 st8 st9">a</text> <text transform="matrix(1 0 0 1 429.4827 184.832)" class="st5 st8 st9">r</text> <text transform="matrix(1 0 0 1 433.6546 184.832)" class="st5 st8 st9">s</text> </g> <g id="Layer-1_32_"> <text transform="matrix(1 0 0 1 345.1331 195.832)" class="st7 st8 st9">v</text> <text transform="matrix(1 0 0 1 349.6077 195.832)" class="st7 st8 st9">e</text> <text transform="matrix(1 0 0 1 354.8226 195.832)" class="st7 st8 st9">r</text> <text transform="matrix(1 0 0 1 358.9925 195.832)" class="st7 st8 st9">s</text> <text transform="matrix(1 0 0 1 363.8284 195.832)" class="st7 st8 st9">c</text> <text transform="matrix(1 0 0 1 368.5316 195.832)" class="st7 st8 st9">h</text> <text transform="matrix(1 0 0 1 374.0218 195.832)" class="st7 st8 st9">i</text> <text transform="matrix(1 0 0 1 376.6253 195.832)" class="st7 st8 st9">e</text> <text transform="matrix(1 0 0 1 381.8401 195.832)" class="st7 st8 st9">d</text> <text transform="matrix(1 0 0 1 387.1898 195.832)" class="st7 st8 st9">e</text> <text transform="matrix(1 0 0 1 392.4046 195.832)" class="st7 st8 st9">n</text> <text transform="matrix(1 0 0 1 397.8968 195.832)" class="st7 st8 st9">e</text> <text transform="matrix(1 0 0 1 403.1116 195.832)" class="st7 st8 st9"> </text> <text transform="matrix(1 0 0 1 405.4866 195.832)" class="st7 st8 st9">R</text> <text transform="matrix(1 0 0 1 411.805 195.832)" class="st7 st8 st9">i</text> <text transform="matrix(1 0 0 1 414.4066 195.832)" class="st7 st8 st9">c</text> <text transform="matrix(1 0 0 1 419.1097 195.832)" class="st7 st8 st9">h</text> <text transform="matrix(1 0 0 1 424.5999 195.832)" class="st7 st8 st9">t</text> <text transform="matrix(1 0 0 1 427.9437 195.832)" class="st7 st8 st9">u</text> <text transform="matrix(1 0 0 1 433.4359 195.832)" class="st7 st8 st9">n</text> <text transform="matrix(1 0 0 1 438.9261 195.832)" class="st7 st8 st9">g</text> <text transform="matrix(1 0 0 1 444.2366 195.832)" class="st7 st8 st9">e</text> <text transform="matrix(1 0 0 1 449.4534 195.832)" class="st7 st8 st9">n</text> </g> <g id="Layer-1_33_"> <text transform="matrix(1 0 0 1 359.2347 206.832)" class="st5 st8 st9">V</text> <text transform="matrix(1 0 0 1 364.3089 206.832)" class="st5 st8 st9">a</text> <text transform="matrix(1 0 0 1 369.4378 206.832)" class="st5 st8 st9">r</text> <text transform="matrix(1 0 0 1 373.7034 206.832)" class="st5 st8 st9">i</text> <text transform="matrix(1 0 0 1 376.3069 206.832)" class="st5 st8 st9">o</text> <text transform="matrix(1 0 0 1 381.5042 206.832)" class="st5 st8 st9">u</text> <text transform="matrix(1 0 0 1 386.9944 206.832)" class="st5 st8 st9">s</text> <text transform="matrix(1 0 0 1 391.8304 206.832)" class="st5 st8 st9"> </text> <text transform="matrix(1 0 0 1 394.2054 206.832)" class="st5 st8 st9">d</text> <text transform="matrix(1 0 0 1 399.553 206.832)" class="st5 st8 st9">i</text> <text transform="matrix(1 0 0 1 402.1566 206.832)" class="st5 st8 st9">s</text> <text transform="matrix(1 0 0 1 406.9925 206.832)" class="st5 st8 st9">c</text> <text transform="matrix(1 0 0 1 411.6937 206.832)" class="st5 st8 st9">i</text> <text transform="matrix(1 0 0 1 414.2972 206.832)" class="st5 st8 st9">p</text> <text transform="matrix(1 0 0 1 419.6468 206.832)" class="st5 st8 st9">l</text> <text transform="matrix(1 0 0 1 422.6956 206.832)" class="st5 st8 st9">i</text> <text transform="matrix(1 0 0 1 425.2991 206.832)" class="st5 st8 st9">n</text> <text transform="matrix(1 0 0 1 430.7894 206.832)" class="st5 st8 st9">e</text> <text transform="matrix(1 0 0 1 436.0042 206.832)" class="st5 st8 st9">s</text> </g> <g id="Layer-1_34_"> <text transform="matrix(1 0 0 1 217.7151 97.4706)" class="st7 st8 st9">s</text> <text transform="matrix(1 0 0 1 222.5511 97.4706)" class="st7 st8 st9">p</text> <text transform="matrix(1 0 0 1 227.8987 97.4706)" class="st7 st8 st9">e</text> <text transform="matrix(1 0 0 1 233.1155 97.4706)" class="st7 st8 st9">z</text> </g> <g id="Layer-1_35_"> <text transform="matrix(1 0 0 1 237.6644 97.4706)" class="st7 st8 st9">i</text> <text transform="matrix(1 0 0 1 240.2679 97.4706)" class="st7 st8 st9">e</text> <text transform="matrix(1 0 0 1 245.4847 97.4706)" class="st7 st8 st9">l</text> <text transform="matrix(1 0 0 1 248.5335 97.4706)" class="st7 st8 st9">l</text> <text transform="matrix(1 0 0 1 251.4886 97.4706)" class="st7 st8 st9">e</text> </g> <g id="Layer-1_36_"> <text transform="matrix(1 0 0 1 221.3343 108.4706)" class="st5 st8 st9">S</text> <text transform="matrix(1 0 0 1 227.0355 108.4706)" class="st5 st8 st9">p</text> <text transform="matrix(1 0 0 1 232.3831 108.4706)" class="st5 st8 st9">e</text> <text transform="matrix(1 0 0 1 237.598 108.4706)" class="st5 st8 st9">c</text> <text transform="matrix(1 0 0 1 242.3011 108.4706)" class="st5 st8 st9">i</text> <text transform="matrix(1 0 0 1 244.9046 108.4706)" class="st5 st8 st9">a</text> <text transform="matrix(1 0 0 1 250.0335 108.4706)" class="st5 st8 st9">l</text> <text transform="matrix(1 0 0 1 252.9886 108.4706)" class="st5 st8 st9"> </text> </g> <g id="Layer-1_37_"> <text transform="matrix(1 0 0 1 187.6058 139.6718)" class="st2 st3 st4">2</text> <text transform="matrix(1 0 0 1 194.9261 139.6718)" class="st2 st3 st4">-</text> <text transform="matrix(1 0 0 1 200.723 139.6718)" class="st2 st3 st4"> </text> <text transform="matrix(1 0 0 1 203.9984 139.6718)" class="st2 st3 st4">u</text> <text transform="matrix(1 0 0 1 211.7073 139.6718)" class="st2 st3 st4">n</text> <text transform="matrix(1 0 0 1 219.4163 139.6718)" class="st2 st3 st4">d</text> <text transform="matrix(1 0 0 1 226.971 139.6718)" class="st2 st3 st4"> </text> <text transform="matrix(1 0 0 1 230.2464 139.6718)" class="st2 st3 st4">3</text> <text transform="matrix(1 0 0 1 237.5648 139.6718)" class="st2 st3 st4">-</text> <text transform="matrix(1 0 0 1 243.3636 139.6718)" class="st2 st3 st4">j</text> <text transform="matrix(1 0 0 1 247.1976 139.6718)" class="st2 st3 st4">ä</text> <text transform="matrix(1 0 0 1 254.4007 139.6718)" class="st2 st3 st4">h</text> <text transform="matrix(1 0 0 1 262.1097 139.6718)" class="st2 st3 st4">r</text> <text transform="matrix(1 0 0 1 268.2835 139.6718)" class="st2 st3 st4">i</text> <text transform="matrix(1 0 0 1 272.1194 139.6718)" class="st2 st3 st4">g</text> <text transform="matrix(1 0 0 1 279.5941 139.6718)" class="st2 st3 st4">e</text> </g> <g id="Layer-1_38_"> <text transform="matrix(1 0 0 1 194.2093 155.2714)" class="st2 st3 st4">B</text> <text transform="matrix(1 0 0 1 203.0237 155.2714)" class="st2 st3 st4">e</text> <text transform="matrix(1 0 0 1 210.4085 155.2714)" class="st2 st3 st4">r</text> <text transform="matrix(1 0 0 1 216.5823 155.2714)" class="st2 st3 st4">u</text> <text transform="matrix(1 0 0 1 224.2913 155.2714)" class="st2 st3 st4">f</text> <text transform="matrix(1 0 0 1 228.803 155.2714)" class="st2 st3 st4">s</text> <text transform="matrix(1 0 0 1 235.5765 155.2714)" class="st2 st3 st4">k</text> <text transform="matrix(1 0 0 1 242.5823 155.2714)" class="st2 st3 st4">o</text> <text transform="matrix(1 0 0 1 249.9026 155.2714)" class="st2 st3 st4">l</text> <text transform="matrix(1 0 0 1 254.387 155.2714)" class="st2 st3 st4">l</text> <text transform="matrix(1 0 0 1 258.7425 155.2714)" class="st2 st3 st4">e</text> <text transform="matrix(1 0 0 1 266.1253 155.2714)" class="st2 st3 st4">g</text> <text transform="matrix(1 0 0 1 273.6019 155.2714)" class="st2 st3 st4">s</text> </g> <g id="Layer-1_39_"> <text transform="matrix(1 0 0 1 198.9105 170.871)" class="st5 st3 st4">2</text> <text transform="matrix(1 0 0 1 206.2288 170.871)" class="st5 st3 st4"> </text> <text transform="matrix(1 0 0 1 209.5042 170.871)" class="st5 st3 st4">a</text> <text transform="matrix(1 0 0 1 216.7073 170.871)" class="st5 st3 st4">n</text> <text transform="matrix(1 0 0 1 224.4163 170.871)" class="st5 st3 st4">d</text> <text transform="matrix(1 0 0 1 231.9691 170.871)" class="st5 st3 st4"> </text> <text transform="matrix(1 0 0 1 235.2444 170.871)" class="st5 st3 st4">3</text> <text transform="matrix(1 0 0 1 242.5628 170.871)" class="st5 st3 st4">-</text> <text transform="matrix(1 0 0 1 248.3616 170.871)" class="st5 st3 st4">y</text> <text transform="matrix(1 0 0 1 254.9144 170.871)" class="st5 st3 st4">e</text> <text transform="matrix(1 0 0 1 262.2972 170.871)" class="st5 st3 st4">a</text> <text transform="matrix(1 0 0 1 269.5003 170.871)" class="st5 st3 st4">r</text> <text transform="matrix(1 0 0 1 275.4144 170.871)" class="st5 st3 st4"> </text> </g> <g id="Layer-1_40_"> <text transform="matrix(1 0 0 1 208.5355 186.4706)" class="st5 st3 st4">a</text> <text transform="matrix(1 0 0 1 215.7386 186.4706)" class="st5 st3 st4">d</text> <text transform="matrix(1 0 0 1 223.2913 186.4706)" class="st5 st3 st4">v</text> <text transform="matrix(1 0 0 1 229.8948 186.4706)" class="st5 st3 st4">a</text> <text transform="matrix(1 0 0 1 237.096 186.4706)" class="st5 st3 st4">n</text> <text transform="matrix(1 0 0 1 244.805 186.4706)" class="st5 st3 st4">c</text> <text transform="matrix(1 0 0 1 251.1097 186.4706)" class="st5 st3 st4">e</text> <text transform="matrix(1 0 0 1 258.4944 186.4706)" class="st5 st3 st4">d</text> <text transform="matrix(1 0 0 1 265.7874 186.4706)" class="st5 st3 st4"> </text> </g> <g id="Layer-1_41_"> <text transform="matrix(1 0 0 1 184.1605 202.0722)" class="st5 st3 st4">v</text> <text transform="matrix(1 0 0 1 190.6995 202.0722)" class="st5 st3 st4">o</text> <text transform="matrix(1 0 0 1 198.0198 202.0722)" class="st5 st3 st4">c</text> <text transform="matrix(1 0 0 1 204.4534 202.0722)" class="st5 st3 st4">a</text> <text transform="matrix(1 0 0 1 211.6566 202.0722)" class="st5 st3 st4">t</text> <text transform="matrix(1 0 0 1 216.4925 202.0722)" class="st5 st3 st4">i</text> <text transform="matrix(1 0 0 1 220.3265 202.0722)" class="st5 st3 st4">o</text> <text transform="matrix(1 0 0 1 227.6468 202.0722)" class="st5 st3 st4">n</text> <text transform="matrix(1 0 0 1 235.3558 202.0722)" class="st5 st3 st4">a</text> <text transform="matrix(1 0 0 1 242.5569 202.0722)" class="st5 st3 st4">l</text> <text transform="matrix(1 0 0 1 247.0413 202.0722)" class="st5 st3 st4"> </text> <text transform="matrix(1 0 0 1 250.3187 202.0722)" class="st5 st3 st4">s</text> <text transform="matrix(1 0 0 1 257.0901 202.0722)" class="st5 st3 st4">c</text> <text transform="matrix(1 0 0 1 263.5901 202.0722)" class="st5 st3 st4">h</text> <text transform="matrix(1 0 0 1 271.2991 202.0722)" class="st5 st3 st4">o</text> <text transform="matrix(1 0 0 1 278.6194 202.0722)" class="st5 st3 st4">o</text> <text transform="matrix(1 0 0 1 285.9378 202.0722)" class="st5 st3 st4">l</text> </g> <g id="Layer-1_42_"> <text transform="matrix(1 0 0 1 30.2991 192.0097)" class="st2 st3 st4">B</text> <text transform="matrix(1 0 0 1 39.1136 192.0097)" class="st2 st3 st4">e</text> <text transform="matrix(1 0 0 1 46.4964 192.0097)" class="st2 st3 st4">r</text> <text transform="matrix(1 0 0 1 52.6722 192.0097)" class="st2 st3 st4">u</text> <text transform="matrix(1 0 0 1 60.3812 192.0097)" class="st2 st3 st4">f</text> <text transform="matrix(1 0 0 1 64.8929 192.0097)" class="st2 st3 st4">s</text> <text transform="matrix(1 0 0 1 71.6644 192.0097)" class="st2 st3 st4">k</text> <text transform="matrix(1 0 0 1 78.6722 192.0097)" class="st2 st3 st4">o</text> <text transform="matrix(1 0 0 1 85.9905 192.0097)" class="st2 st3 st4">l</text> <text transform="matrix(1 0 0 1 90.4769 192.0097)" class="st2 st3 st4">l</text> <text transform="matrix(1 0 0 1 94.8304 192.0097)" class="st2 st3 st4">e</text> <text transform="matrix(1 0 0 1 102.2152 192.0097)" class="st2 st3 st4">g</text> <text transform="matrix(1 0 0 1 109.6898 192.0097)" class="st2 st3 st4"> </text> <text transform="matrix(1 0 0 1 112.9652 192.0097)" class="st2 st3 st4">1</text> </g> <g id="Layer-1_43_"> <text transform="matrix(1 0 0 1 12.7816 207.6093)" class="st5 st3 st4">A</text> <text transform="matrix(1 0 0 1 21.3363 207.6093)" class="st5 st3 st4">d</text> <text transform="matrix(1 0 0 1 28.889 207.6093)" class="st5 st3 st4">v</text> <text transform="matrix(1 0 0 1 35.4925 207.6093)" class="st5 st3 st4">a</text> <text transform="matrix(1 0 0 1 42.6937 207.6093)" class="st5 st3 st4">n</text> <text transform="matrix(1 0 0 1 50.4027 207.6093)" class="st5 st3 st4">c</text> <text transform="matrix(1 0 0 1 56.7073 207.6093)" class="st5 st3 st4">e</text> <text transform="matrix(1 0 0 1 64.0921 207.6093)" class="st5 st3 st4">d</text> <text transform="matrix(1 0 0 1 71.6448 207.6093)" class="st5 st3 st4"> </text> <text transform="matrix(1 0 0 1 74.9202 207.6093)" class="st5 st3 st4">v</text> <text transform="matrix(1 0 0 1 81.4593 207.6093)" class="st5 st3 st4">o</text> <text transform="matrix(1 0 0 1 88.7777 207.6093)" class="st5 st3 st4">c</text> <text transform="matrix(1 0 0 1 95.2132 207.6093)" class="st5 st3 st4">a</text> <text transform="matrix(1 0 0 1 102.4144 207.6093)" class="st5 st3 st4">t</text> <text transform="matrix(1 0 0 1 107.2503 207.6093)" class="st5 st3 st4">i</text> <text transform="matrix(1 0 0 1 111.0863 207.6093)" class="st5 st3 st4">o</text> <text transform="matrix(1 0 0 1 118.4046 207.6093)" class="st5 st3 st4">n</text> <text transform="matrix(1 0 0 1 126.1136 207.6093)" class="st5 st3 st4">a</text> <text transform="matrix(1 0 0 1 133.3167 207.6093)" class="st5 st3 st4">l</text> <text transform="matrix(1 0 0 1 137.5394 207.6093)" class="st5 st3 st4"> </text> </g> <g id="Layer-1_44_"> <text transform="matrix(1 0 0 1 49.9417 224.6093)" class="st5 st3 st4">s</text> <text transform="matrix(1 0 0 1 56.7152 224.6093)" class="st5 st3 st4">c</text> <text transform="matrix(1 0 0 1 63.2152 224.6093)" class="st5 st3 st4">h</text> <text transform="matrix(1 0 0 1 70.9241 224.6093)" class="st5 st3 st4">o</text> <text transform="matrix(1 0 0 1 78.2425 224.6093)" class="st5 st3 st4">o</text> <text transform="matrix(1 0 0 1 85.5609 224.6093)" class="st5 st3 st4">l</text> <text transform="matrix(1 0 0 1 90.0472 224.6093)" class="st5 st3 st4"> </text> <text transform="matrix(1 0 0 1 93.3226 224.6093)" class="st5 st3 st4">1</text> </g> <g id="Layer-1_45_"> <text transform="matrix(1 0 0 1 61.5491 243.6093)" class="st7 st8 st9">1</text> <text transform="matrix(1 0 0 1 66.7073 243.6093)" class="st7 st8 st9"> </text> <text transform="matrix(1 0 0 1 69.0823 243.6093)" class="st7 st8 st9">J</text> </g> <g id="Layer-1_46_"> <text transform="matrix(1 0 0 1 73.9827 243.6093)" class="st7 st8 st9">a</text> <text transform="matrix(1 0 0 1 79.1136 243.6093)" class="st7 st8 st9">h</text> <text transform="matrix(1 0 0 1 84.6038 243.6093)" class="st7 st8 st9">r</text> </g> <g id="Layer-1_47_"> <text transform="matrix(1 0 0 1 61.9144 254.6093)" class="st5 st8 st9">1</text> <text transform="matrix(1 0 0 1 67.0726 254.6093)" class="st5 st8 st9"> </text> <text transform="matrix(1 0 0 1 69.4476 254.6093)" class="st5 st8 st9">y</text> <text transform="matrix(1 0 0 1 73.8929 254.6093)" class="st5 st8 st9">e</text> <text transform="matrix(1 0 0 1 79.1097 254.6093)" class="st5 st8 st9">a</text> <text transform="matrix(1 0 0 1 84.2386 254.6093)" class="st5 st8 st9">r</text> </g> <g id="Layer-1_48_"> <text transform="matrix(1 0 0 1 32.2054 87.4902)" class="st2 st3 st4">B</text> <text transform="matrix(1 0 0 1 41.0179 87.4902)" class="st2 st3 st4">e</text> <text transform="matrix(1 0 0 1 48.4027 87.4902)" class="st2 st3 st4">r</text> <text transform="matrix(1 0 0 1 54.5784 87.4902)" class="st2 st3 st4">u</text> <text transform="matrix(1 0 0 1 62.2874 87.4902)" class="st2 st3 st4">f</text> <text transform="matrix(1 0 0 1 66.7972 87.4902)" class="st2 st3 st4">s</text> <text transform="matrix(1 0 0 1 73.5706 87.4902)" class="st2 st3 st4">k</text> <text transform="matrix(1 0 0 1 80.5784 87.4902)" class="st2 st3 st4">o</text> <text transform="matrix(1 0 0 1 87.8968 87.4902)" class="st2 st3 st4">l</text> <text transform="matrix(1 0 0 1 92.3812 87.4902)" class="st2 st3 st4">l</text> <text transform="matrix(1 0 0 1 96.7366 87.4902)" class="st2 st3 st4">e</text> <text transform="matrix(1 0 0 1 104.1214 87.4902)" class="st2 st3 st4">g</text> <text transform="matrix(1 0 0 1 111.596 87.4902)" class="st2 st3 st4"> </text> <text transform="matrix(1 0 0 1 114.8714 87.4902)" class="st2 st3 st4">2</text> </g> <g id="Layer-1_49_"> <text transform="matrix(1 0 0 1 14.6878 103.0917)" class="st5 st3 st4">A</text> <text transform="matrix(1 0 0 1 23.2405 103.0917)" class="st5 st3 st4">d</text> <text transform="matrix(1 0 0 1 30.7933 103.0917)" class="st5 st3 st4">v</text> <text transform="matrix(1 0 0 1 37.3988 103.0917)" class="st5 st3 st4">a</text> <text transform="matrix(1 0 0 1 44.5999 103.0917)" class="st5 st3 st4">n</text> <text transform="matrix(1 0 0 1 52.3089 103.0917)" class="st5 st3 st4">c</text> <text transform="matrix(1 0 0 1 58.6136 103.0917)" class="st5 st3 st4">e</text> <text transform="matrix(1 0 0 1 65.9964 103.0917)" class="st5 st3 st4">d</text> <text transform="matrix(1 0 0 1 73.5491 103.0917)" class="st5 st3 st4"> </text> <text transform="matrix(1 0 0 1 76.8265 103.0917)" class="st5 st3 st4">v</text> <text transform="matrix(1 0 0 1 83.3655 103.0917)" class="st5 st3 st4">o</text> <text transform="matrix(1 0 0 1 90.6839 103.0917)" class="st5 st3 st4">c</text> <text transform="matrix(1 0 0 1 97.1195 103.0917)" class="st5 st3 st4">a</text> <text transform="matrix(1 0 0 1 104.3206 103.0917)" class="st5 st3 st4">t</text> <text transform="matrix(1 0 0 1 109.1566 103.0917)" class="st5 st3 st4">i</text> <text transform="matrix(1 0 0 1 112.9925 103.0917)" class="st5 st3 st4">o</text> <text transform="matrix(1 0 0 1 120.3109 103.0917)" class="st5 st3 st4">n</text> <text transform="matrix(1 0 0 1 128.0199 103.0917)" class="st5 st3 st4">a</text> <text transform="matrix(1 0 0 1 135.221 103.0917)" class="st5 st3 st4">l</text> <text transform="matrix(1 0 0 1 139.4456 103.0917)" class="st5 st3 st4"> </text> </g> <g id="Layer-1_50_"> <text transform="matrix(1 0 0 1 51.848 118.6913)" class="st5 st3 st4">s</text> <text transform="matrix(1 0 0 1 58.6195 118.6913)" class="st5 st3 st4">c</text> <text transform="matrix(1 0 0 1 65.1195 118.6913)" class="st5 st3 st4">h</text> <text transform="matrix(1 0 0 1 72.8284 118.6913)" class="st5 st3 st4">o</text> <text transform="matrix(1 0 0 1 80.1488 118.6913)" class="st5 st3 st4">o</text> <text transform="matrix(1 0 0 1 87.4671 118.6913)" class="st5 st3 st4">l</text> <text transform="matrix(1 0 0 1 91.9515 118.6913)" class="st5 st3 st4"> </text> <text transform="matrix(1 0 0 1 95.2288 118.6913)" class="st5 st3 st4">2</text> </g> <g id="Layer-1_51_"> <text transform="matrix(1 0 0 1 43.5316 137.6913)" class="st7 st8 st9">1</text> <text transform="matrix(1 0 0 1 48.6917 137.6913)" class="st7 st8 st9"> </text> <text transform="matrix(1 0 0 1 51.0667 137.6913)" class="st7 st8 st9">w</text> <text transform="matrix(1 0 0 1 58.1722 137.6913)" class="st7 st8 st9">e</text> <text transform="matrix(1 0 0 1 63.387 137.6913)" class="st7 st8 st9">i</text> <text transform="matrix(1 0 0 1 65.9905 137.6913)" class="st7 st8 st9">t</text> <text transform="matrix(1 0 0 1 69.2874 137.6913)" class="st7 st8 st9">e</text> <text transform="matrix(1 0 0 1 74.5023 137.6913)" class="st7 st8 st9">r</text> <text transform="matrix(1 0 0 1 78.4827 137.6913)" class="st7 st8 st9">e</text> </g> <g id="Layer-1_52_"> <text transform="matrix(1 0 0 1 83.6976 137.6913)" class="st7 st8 st9">s</text> <text transform="matrix(1 0 0 1 88.5335 137.6913)" class="st7 st8 st9"> </text> <text transform="matrix(1 0 0 1 90.9085 137.6913)" class="st7 st8 st9">J</text> <text transform="matrix(1 0 0 1 95.8109 137.6913)" class="st7 st8 st9">a</text> <text transform="matrix(1 0 0 1 100.9398 137.6913)" class="st7 st8 st9">h</text> <text transform="matrix(1 0 0 1 106.432 137.6913)" class="st7 st8 st9">r</text> </g> <g id="Layer-1_53_"> <text transform="matrix(1 0 0 1 46.9906 148.6913)" class="st5 st8 st9">1</text> <text transform="matrix(1 0 0 1 52.1488 148.6913)" class="st5 st8 st9"> </text> <text transform="matrix(1 0 0 1 54.5238 148.6913)" class="st5 st8 st9">f</text> <text transform="matrix(1 0 0 1 57.7347 148.6913)" class="st5 st8 st9">u</text> <text transform="matrix(1 0 0 1 63.2269 148.6913)" class="st5 st8 st9">r</text> <text transform="matrix(1 0 0 1 67.4905 148.6913)" class="st5 st8 st9">t</text> <text transform="matrix(1 0 0 1 70.8363 148.6913)" class="st5 st8 st9">h</text> <text transform="matrix(1 0 0 1 76.3265 148.6913)" class="st5 st8 st9">e</text> <text transform="matrix(1 0 0 1 81.5413 148.6913)" class="st5 st8 st9">r</text> <text transform="matrix(1 0 0 1 85.807 148.6913)" class="st5 st8 st9"> </text> <text transform="matrix(1 0 0 1 88.182 148.6913)" class="st5 st8 st9">y</text> <text transform="matrix(1 0 0 1 92.6292 148.6913)" class="st5 st8 st9">e</text> <text transform="matrix(1 0 0 1 97.8441 148.6913)" class="st5 st8 st9">a</text> <text transform="matrix(1 0 0 1 102.9749 148.6913)" class="st5 st8 st9">r</text> </g> <g id="Layer-1_54_"> <path class="st6" d="M489.6,263.7V129.6h142.8v134.2H489.6z"></path> </g> <g id="Layer-1_55_"> <path class="st6" d="M328.1,263.7V35.3h142.8v228.4H328.1z"></path> </g> <g id="Layer-1_56_"> <path class="st6" d="M165.4,263.8V72.9h142.8v190.9H165.4z"></path> </g> <g id="Layer-1_57_"> <path class="st6" d="M3.4,263.8v-89.5h142.8v89.5H3.4z"></path> </g> <g id="Layer-1_58_"> <path class="st6" d="M3.4,162.8V73.2h142.8v89.5H3.4z"></path> </g> <g id="Layer-1_59_"> <path class="st1" d="M334.3,2v21h233.9V2H334.3z"></path> </g> <g id="Layer-1_60_"> <path class="st1" d="M9.9,40v21h299.8V40H9.9z"></path> </g> <g id="Layer-1_61_"> <path class="st6" d="M327.9,2v21h240.3V2H327.9z"></path> </g> <g id="Layer-1_62_"> <path class="st6" d="M3.5,40v21h306.3V40H3.5z"></path> </g> <g id="Layer-1_63_"> <text transform="matrix(0.99 0 0 1 341.1445 15.9999)" class="st5 st3 st4">A</text> <text transform="matrix(0.99 0 0 1 349.6133 15.9999)" class="st5 st3 st4">l</text> <text transform="matrix(0.99 0 0 1 354.0527 15.9999)" class="st5 st3 st4">l</text> <text transform="matrix(0.99 0 0 1 358.3652 15.9999)" class="st5 st3 st4">g</text> <text transform="matrix(0.99 0 0 1 365.7656 15.9999)" class="st5 st3 st4">e</text> <text transform="matrix(0.99 0 0 1 373.0761 15.9999)" class="st5 st3 st4">m</text> <text transform="matrix(0.99 0 0 1 384.6074 15.9999)" class="st5 st3 st4">e</text> <text transform="matrix(0.99 0 0 1 391.916 15.9999)" class="st5 st3 st4">i</text> <text transform="matrix(0.99 0 0 1 395.7129 15.9999)" class="st5 st3 st4">n</text> <text transform="matrix(0.99 0 0 1 403.3457 15.9999)" class="st5 st3 st4">e</text> <text transform="matrix(0.99 0 0 1 410.6562 15.9999)" class="st5 st3 st4"> </text> <text transform="matrix(0.99 0 0 1 413.8984 15.9999)" class="st5 st3 st4">H</text> <text transform="matrix(0.99 0 0 1 422.9726 15.9999)" class="st5 st3 st4">o</text> <text transform="matrix(0.99 0 0 1 430.2187 15.9999)" class="st5 st3 st4">c</text> <text transform="matrix(0.99 0 0 1 436.6523 15.9999)" class="st5 st3 st4">h</text> <text transform="matrix(0.99 0 0 1 444.2851 15.9999)" class="st5 st3 st4">s</text> <text transform="matrix(0.99 0 0 1 450.9902 15.9999)" class="st5 st3 st4">c</text> <text transform="matrix(0.99 0 0 1 457.4258 15.9999)" class="st5 st3 st4">h</text> <text transform="matrix(0.99 0 0 1 465.0566 15.9999)" class="st5 st3 st4">u</text> <text transform="matrix(0.99 0 0 1 472.6894 15.9999)" class="st5 st3 st4">l</text> <text transform="matrix(0.99 0 0 1 477.1289 15.9999)" class="st5 st3 st4">r</text> <text transform="matrix(0.99 0 0 1 482.8554 15.9999)" class="st5 st3 st4">e</text> <text transform="matrix(0.99 0 0 1 490.166 15.9999)" class="st5 st3 st4">i</text> <text transform="matrix(0.99 0 0 1 493.9629 15.9999)" class="st5 st3 st4">f</text> <text transform="matrix(0.99 0 0 1 498.4277 15.9999)" class="st5 st3 st4">e</text> <text transform="matrix(0.99 0 0 1 505.7383 15.9999)" class="st5 st3 st4"> </text> <text transform="matrix(0.99 0 0 1 508.9804 15.9999)" class="st5 st3 st4">(</text> <text transform="matrix(0.99 0 0 1 513.5625 15.9999)" class="st5 st3 st4">A</text> <text transform="matrix(0.99 0 0 1 522.0313 15.9999)" class="st5 st3 st4">b</text> <text transform="matrix(0.99 0 0 1 529.4961 15.9999)" class="st5 st3 st4">i</text> <text transform="matrix(0.99 0 0 1 533.293 15.9999)" class="st5 st3 st4">t</text> <text transform="matrix(0.99 0 0 1 538.0801 15.9999)" class="st5 st3 st4">u</text> <text transform="matrix(0.99 0 0 1 545.7129 15.9999)" class="st5 st3 st4">r</text> <text transform="matrix(0.99 0 0 1 551.8262 15.9999)" class="st5 st3 st4">)</text> </g> <g id="Layer-1_64_"> <text transform="matrix(0.98 0 0 1 15.3496 54.0321)" class="st5 st3 st4">F</text> <text transform="matrix(0.98 0 0 1 22.7402 54.0321)" class="st5 st3 st4">a</text> <text transform="matrix(0.98 0 0 1 29.7969 54.0321)" class="st5 st3 st4">c</text> <text transform="matrix(0.98 0 0 1 36.1679 54.0321)" class="st5 st3 st4">h</text> <text transform="matrix(0.98 0 0 1 43.7226 54.0321)" class="st5 st3 st4">h</text> <text transform="matrix(0.98 0 0 1 51.2773 54.0321)" class="st5 st3 st4">o</text> <text transform="matrix(0.98 0 0 1 58.4492 54.0321)" class="st5 st3 st4">c</text> <text transform="matrix(0.98 0 0 1 64.8203 54.0321)" class="st5 st3 st4">h</text> <text transform="matrix(0.98 0 0 1 72.375 54.0321)" class="st5 st3 st4">s</text> <text transform="matrix(0.98 0 0 1 79.0117 54.0321)" class="st5 st3 st4">c</text> <text transform="matrix(0.98 0 0 1 85.3828 54.0321)" class="st5 st3 st4">h</text> <text transform="matrix(0.98 0 0 1 92.9375 54.0321)" class="st5 st3 st4">u</text> <text transform="matrix(0.98 0 0 1 100.4922 54.0321)" class="st5 st3 st4">l</text> <text transform="matrix(0.98 0 0 1 104.8867 54.0321)" class="st5 st3 st4">r</text> <text transform="matrix(0.98 0 0 1 110.5566 54.0321)" class="st5 st3 st4">e</text> <text transform="matrix(0.98 0 0 1 117.7929 54.0321)" class="st5 st3 st4">i</text> <text transform="matrix(0.98 0 0 1 121.5508 54.0321)" class="st5 st3 st4">f</text> <text transform="matrix(0.98 0 0 1 125.9707 54.0321)" class="st5 st3 st4">e</text> <text transform="matrix(0.98 0 0 1 133.207 54.0321)" class="st5 st3 st4"> </text> <text transform="matrix(0.98 0 0 1 136.418 54.0321)" class="st5 st3 st4">u</text> <text transform="matrix(0.98 0 0 1 143.9726 54.0321)" class="st5 st3 st4">n</text> <text transform="matrix(0.98 0 0 1 151.5273 54.0321)" class="st5 st3 st4">d</text> <text transform="matrix(0.98 0 0 1 158.9297 54.0321)" class="st5 st3 st4"> </text> <text transform="matrix(0.98 0 0 1 162.1387 54.0321)" class="st5 st3 st4">/</text> <text transform="matrix(0.98 0 0 1 167.5293 54.0321)" class="st5 st3 st4">o</text> <text transform="matrix(0.98 0 0 1 174.7012 54.0321)" class="st5 st3 st4">d</text> <text transform="matrix(0.98 0 0 1 182.1035 54.0321)" class="st5 st3 st4">e</text> <text transform="matrix(0.98 0 0 1 189.3398 54.0321)" class="st5 st3 st4">r</text> <text transform="matrix(0.98 0 0 1 195.3906 54.0321)" class="st5 st3 st4"> </text> <text transform="matrix(0.98 0 0 1 198.6015 54.0321)" class="st5 st3 st4">B</text> <text transform="matrix(0.98 0 0 1 207.2383 54.0321)" class="st5 st3 st4">e</text> <text transform="matrix(0.98 0 0 1 214.4746 54.0321)" class="st5 st3 st4">r</text> <text transform="matrix(0.98 0 0 1 220.5273 54.0321)" class="st5 st3 st4">u</text> <text transform="matrix(0.98 0 0 1 228.082 54.0321)" class="st5 st3 st4">f</text> <text transform="matrix(0.98 0 0 1 232.5019 54.0321)" class="st5 st3 st4">s</text> <text transform="matrix(0.98 0 0 1 239.1387 54.0321)" class="st5 st3 st4">a</text> <text transform="matrix(0.98 0 0 1 246.1973 54.0321)" class="st5 st3 st4">b</text> <text transform="matrix(0.98 0 0 1 253.5859 54.0321)" class="st5 st3 st4">s</text> <text transform="matrix(0.98 0 0 1 260.2226 54.0321)" class="st5 st3 st4">c</text> <text transform="matrix(0.98 0 0 1 266.5937 54.0321)" class="st5 st3 st4">h</text> <text transform="matrix(0.98 0 0 1 274.1484 54.0321)" class="st5 st3 st4">l</text> <text transform="matrix(0.98 0 0 1 278.5429 54.0321)" class="st5 st3 st4">u</text> <text transform="matrix(0.98 0 0 1 286.0976 54.0321)" class="st5 st3 st4">s</text> <text transform="matrix(0.98 0 0 1 292.6718 54.0321)" class="st5 st3 st4">s</text> </g> <g id="Layer-1_65_"> <path class="st5" d="M332.4,32.6h4.7l-2.3-2.3L332.4,32.6z"></path> <path class="st5" d="M332.4,27.5h4.7l-2.3-2.3L332.4,27.5z"></path> </g> <g id="Layer-1_66_"> <path class="st5" d="M170,70.6h4.7l-2.3-2.3L170,70.6z"></path> <path class="st5" d="M170,65.5h4.7l-2.3-2.3L170,65.5z"></path> </g> <g id="Layer-1_67_"> <path class="st5" d="M8,70.6h4.7l-2.3-2.3L8,70.6z"></path> <path class="st5" d="M8,65.5h4.7l-2.3-2.3L8,65.5z"></path> </g> <g id="Layer-1_68_"> <path class="st5" d="M8,171.7h4.7l-2.3-2.3L8,171.7z"></path> <path class="st5" d="M8,166.7h4.7l-2.3-2.3L8,166.7z"></path> </g> <g id="Layer-1_69_"> <path class="st5" d="M332.4,283.2h4.7l-2.3-2.3L332.4,283.2z"></path> <path class="st5" d="M332.4,278.6h4.7l-2.3-2.3L332.4,278.6z"></path> </g> <g id="Layer-1_70_"> <path class="st5" d="M332.4,273.7h4.7l-2.3-2.3L332.4,273.7z"></path> </g> <g id="Layer-1_71_"> <path class="st5" d="M332.4,268.6h4.7l-2.3-2.3L332.4,268.6z"></path> </g> <g id="Layer-1_72_"> <path class="st5" d="M494,283.2h4.7l-2.3-2.3L494,283.2z"></path> <path class="st5" d="M494,278.6h4.7l-2.3-2.3L494,278.6z"></path> </g> <g id="Layer-1_73_"> <path class="st5" d="M494,273.7h4.7l-2.3-2.3L494,273.7z"></path> </g> <g id="Layer-1_74_"> <path class="st5" d="M494,268.6h4.7l-2.3-2.3L494,268.6z"></path> </g> <g id="Layer-1_75_"> <path class="st5" d="M170,283.2h4.7l-2.3-2.3L170,283.2z"></path> <path class="st5" d="M170,278.6h4.7l-2.3-2.3L170,278.6z"></path> </g> <g id="Layer-1_76_"> <path class="st5" d="M170,273.7h4.7l-2.3-2.3L170,273.7z"></path> </g> <g id="Layer-1_77_"> <path class="st5" d="M170,268.6h4.7l-2.3-2.3L170,268.6z"></path> </g> <g id="Layer-1_78_"> <path class="st5" d="M8,283.2h4.7l-2.3-2.3L8,283.2z"></path> <path class="st5" d="M8,278.6h4.7l-2.3-2.3L8,278.6z"></path> </g> <g id="Layer-1_79_"> <path class="st5" d="M8,273.7h4.7l-2.3-2.3L8,273.7z"></path> </g> <g id="Layer-1_80_"> <path class="st5" d="M8,268.6h4.7l-2.3-2.3L8,268.6z"></path> </g> </svg> 