<?xml version="1.0" encoding="UTF-8"?><svg id="a" xmlns="http://www.w3.org/2000/svg" xmlns:xlink="http://www.w3.org/1999/xlink" viewBox="0 0 451.85 512"><defs><style>.e{fill:none;}.f{fill:#fff;}.g{fill:#87ccc8;}.h{fill:#2b2961;}.i{clip-path:url(#c);}.j{clip-path:url(#b);}.k{clip-path:url(#d);}</style><clipPath id="b"><rect class="e" x="-22.7" width="497.24" height="512"/></clipPath><clipPath id="c"><rect class="e" x="-22.7" width="497.24" height="512"/></clipPath><clipPath id="d"><rect class="e" x="-22.7" width="497.24" height="512"/></clipPath></defs><rect class="g" x="3.99" y="228.32" width="42.03" height="176.4"/><rect class="g" x="3.99" y="49.31" width="42.03" height="71.5"/><rect class="g" x="3.99" y="214.94" width="442.08" height="42.03"/><g class="j"><path class="h" d="M251.57,180.82l-9.75-16.53,9.1-10.91h-6.51l-9.68,11.95v-11.95h-5.36v27.44h5.36v-8.25l3.55-4.24,7.05,12.49h6.24Zm-34.19-19.5c0,1.89-1.28,3.16-3.55,3.16h-5.25v-6.33h5.25c2.27,0,3.55,1.27,3.55,3.16m.39,11.33c0,1.85-1.16,3.4-3.59,3.4h-5.59v-6.75h5.59c2.43,0,3.59,1.5,3.59,3.36m5.35,.27c0-3.67-2.12-5.4-3.77-6.17,1.39-.66,3.39-2.62,3.39-5.67,0-4.7-3.12-7.71-8.48-7.71h-11.02v27.44h11.48c4.9,0,8.4-2.77,8.4-7.9"/><path class="f" d="M375.92,244.55v-19h-2.64l-8.49,13.77v-13.77h-2.88v19h2.61l8.52-13.79v13.79h2.88Zm-20.82,0v-19h-2.91v8.14h-7.69v-8.14h-2.88v19h2.88v-8.3h7.69v8.3h2.91Zm-20.31,0v-19h-2.64l-8.49,13.77v-13.77h-2.88v19h2.61l8.52-13.79v13.79h2.88Zm-32.45-19v5.6c0,4.51-.67,8.25-2.32,10.81h-1.65v6.86h2.8v-4.27h11.53v4.27h2.83v-6.86h-2.24v-16.41h-10.94Zm2.77,2.59h5.29v13.83h-7.15c1.41-2.67,1.87-5.95,1.87-9.58v-4.24Zm-13.39,6.73c0,3.23,0,4.91-1.12,6.08-.72,.77-1.71,1.17-2.83,1.17s-2.05-.4-2.83-1.17c-1.01-1.01-1.09-2.8-1.09-4.75v-1.63c0-2.43,.03-4.3,1.09-5.42,.75-.77,1.76-1.17,2.83-1.17s2.08,.4,2.83,1.17c1.07,1.12,1.12,2.83,1.12,5.71m2.91-1.15c0-2.7-.37-4.8-1.84-6.3-1.31-1.3-3.04-2.03-5.02-2.03s-3.68,.72-4.99,2.03c-1.6,1.6-1.84,3.63-1.84,6.75v1.25c0,2.83,.03,5.42,1.84,7.26,1.31,1.33,3.02,2.03,4.99,2.03s3.71-.69,5.02-2.03c1.81-1.87,1.84-4.24,1.84-7.37v-1.6Zm-17.32-5.58v-2.59h-11.69v19h2.88v-16.41h8.81Zm-24.36-4.56h-2.62l-7.61,22.95h2.62l7.61-22.95Zm-21.97,20.97v-2.59h-9.26v-5.71h7.9v-2.56h-7.9v-5.55h9.26v-2.59h-12.14v19h12.14Zm-21.37-13.42c0,1.87-1.31,2.96-3.23,2.96h-4.27v-5.95h4.27c1.92,0,3.23,1.12,3.23,2.99m3.47,13.42l-4.37-8.41c2.13-.59,3.79-2.32,3.79-5.04,0-3.23-2.29-5.55-5.89-5.55h-7.37v19h2.88v-8.01h3.61l4,8.01h3.36Zm-20.95,0v-19h-2.88v8.11h-7.72v-8.11h-2.88v19h2.88v-8.3h7.72v8.3h2.88Zm-23.48-6.27h-5.84l2.96-8.43,2.88,8.43Zm5.18,6.27l-6.97-19h-2.32l-6.97,19h3.07l1.31-3.82h7.5l1.31,3.82h3.07Zm-20.55-6v-13h-2.88v12.78c0,2.48-1.31,3.79-3.44,3.79-1.39,0-2.03-.48-2.7-1.15l-1.92,1.89c1.31,1.3,2.67,1.84,4.62,1.84,3.5,0,6.32-2.21,6.32-6.16m-23.03,.67c0-2.35-1.04-3.77-2.67-4.48,1.46-.72,2.37-2.03,2.37-4.06,0-3.15-2.29-5.31-5.52-5.31-3.04,0-5.42,1.95-5.58,5.18h2.72c.13-1.68,1.2-2.73,2.86-2.73,1.55,0,2.8,1.01,2.8,2.94,0,1.73-.91,2.88-2.88,2.88h-.45v2.37h.45c2.13,0,3.18,1.2,3.18,3.13s-1.33,3.15-3.1,3.15c-1.57,0-2.99-.85-3.1-2.88h-2.72c.11,3.71,2.78,5.33,5.82,5.33s5.81-1.87,5.81-5.52m-24.69-3.34h-7.79v2.53h7.79v-2.53Zm-24.47,8.67v-19h-2.72l-3.71,3.2v3.02l3.71-3.26v16.04h2.72Z"/></g><rect class="g" x="4.88" y=".89" width="438.81" height="61.68"/><g class="i"><path class="h" d="M444.58,63.46H3.99V0H444.58V63.46ZM5.77,61.68H442.8V1.78H5.77V61.68Z"/><path class="f" d="M394.9,31.02h-7.63c.04-.89,.15-1.43,.46-2.16,.54-1.2,1.66-2.08,3.35-2.08s2.81,.89,3.35,2.08c.31,.73,.42,1.27,.46,2.16m4.93,3.42v-2.23c0-5.52-3.16-9.6-8.75-9.6-5.2,0-8.75,3.69-8.75,10.25,0,8.13,4.55,10.29,9.29,10.29,3.62,0,5.59-1.12,7.63-3.16l-3.05-2.97c-1.27,1.27-2.35,1.89-4.55,1.89-2.81,0-4.39-1.89-4.39-4.48h12.57Zm-20.51-7.21v-3.81h-3.7v-2.2c0-1.16,.54-1.81,1.73-1.81h1.97v-4.23h-2.85c-4.08,0-5.86,2.89-5.86,5.74v2.51h-2.08v3.81h2.08v15.69h5.01v-15.69h3.7Zm-15.65-11.91h-5.12v4.08h5.12v-4.08Zm-.04,7.52h-5.01v20.08h5.01V22.85Zm-15.34,8.17h-7.63c.04-.89,.15-1.43,.46-2.16,.54-1.2,1.66-2.08,3.35-2.08s2.81,.89,3.35,2.08c.31,.73,.42,1.27,.46,2.16m4.93,3.42v-2.23c0-5.52-3.16-9.6-8.75-9.6-5.2,0-8.75,3.69-8.75,10.25,0,8.13,4.55,10.29,9.29,10.29,3.62,0,5.59-1.12,7.63-3.16l-3.05-2.97c-1.27,1.27-2.35,1.89-4.55,1.89-2.81,0-4.39-1.89-4.39-4.48h12.57Zm-18.93-9.94c-1.39-1.39-2.78-1.89-4.74-1.89-2.16,0-4.09,1-5.05,2.16v-1.92h-4.89v20.08h5.01v-12.1c0-2.54,1.7-3.7,3.24-3.7,1.23,0,1.89,.42,2.66,1.19l3.78-3.81Zm-19.47,18.42v-4.23h-1.93c-1.27,0-1.77-.62-1.77-1.81V15.48h-5.01v21.7c0,2.85,1.73,5.74,5.85,5.74h2.85Zm-14.92,0V22.85h-5.01v12.14c0,2.74-1.78,3.66-3.36,3.66s-3.32-.93-3.32-3.66v-12.14h-5.01v12.84c0,2.2,.42,4.08,2.04,5.7,1.12,1.11,2.73,1.77,4.74,1.77,1.85,0,3.7-.69,5.02-2.08v1.85h4.89Zm-22.63,0v-12.99c0-4.24-2.31-7.32-6.7-7.32-1.77,0-3.47,.69-4.82,2.08V15.48h-5.01v27.44h5.01v-12.26c0-2.62,1.66-3.55,3.24-3.55s3.28,.89,3.28,3.55v12.26h5.01Zm-21.2-2.5l-3.39-3.35c-1.04,1.12-1.93,1.58-3.24,1.58-1.19,0-2.12-.42-2.85-1.31-.77-.96-1.12-2.35-1.12-4.47s.35-3.47,1.12-4.44c.73-.89,1.66-1.31,2.85-1.31,1.31,0,2.2,.46,3.24,1.58l3.39-3.39c-1.77-1.85-3.85-2.7-6.63-2.7-4.01,0-8.98,2.12-8.98,10.25s4.97,10.29,8.98,10.29c2.78,0,4.86-.89,6.63-2.73m-19.58-3.82c0-3.39-2-5.51-5.97-5.9l-3.16-.31c-1.77-.15-2.08-1-2.08-1.73,0-1,.85-1.93,2.85-1.93,1.73,0,3.51,.31,4.66,1.35l3.08-3.12c-1.93-1.81-4.55-2.35-7.67-2.35-4.09,0-7.75,2.23-7.75,6.39,0,3.7,2.24,5.28,5.86,5.63l3.16,.31c1.58,.15,2.12,.85,2.12,1.85,0,1.51-1.81,2.08-3.55,2.08-1.54,0-3.7-.23-5.36-1.89l-3.28,3.28c2.54,2.54,5.4,2.89,8.56,2.89,4.74,0,8.52-2.12,8.52-6.55m-21.28,6.32v-12.99c0-4.24-2.31-7.32-6.7-7.32-1.78,0-3.47,.69-4.82,2.08V15.48h-5.01v27.44h5.01v-12.26c0-2.62,1.66-3.55,3.24-3.55s3.28,.89,3.28,3.55v12.26h5.01Zm-21.2-2.5l-3.39-3.35c-1.04,1.12-1.93,1.58-3.24,1.58-1.19,0-2.12-.42-2.85-1.31-.77-.96-1.12-2.35-1.12-4.47s.35-3.47,1.12-4.44c.73-.89,1.66-1.31,2.85-1.31,1.31,0,2.2,.46,3.24,1.58l3.39-3.39c-1.77-1.85-3.85-2.7-6.63-2.7-4.01,0-8.98,2.12-8.98,10.25s4.97,10.29,8.98,10.29c2.78,0,4.86-.89,6.63-2.73m-25.17-7.56c0,2.08-.12,3.85-1.16,4.9-.58,.58-1.35,.89-2.35,.89s-1.73-.31-2.31-.89c-1.04-1.04-1.16-2.81-1.16-4.9s.12-3.82,1.16-4.86c.58-.58,1.31-.89,2.31-.89s1.78,.31,2.35,.89c1.04,1.04,1.16,2.78,1.16,4.86m5.01,0c0-3.63-.46-5.9-2.27-7.79-1.23-1.31-3.27-2.46-6.24-2.46s-4.97,1.15-6.21,2.46c-1.81,1.89-2.27,4.16-2.27,7.79s.46,5.94,2.27,7.83c1.23,1.31,3.24,2.46,6.21,2.46s5.01-1.16,6.24-2.46c1.81-1.89,2.27-4.16,2.27-7.83m-22.32,10.06v-12.99c0-4.24-2.31-7.32-6.7-7.32-1.77,0-3.47,.69-4.82,2.08V15.48h-5.01v27.44h5.01v-12.26c0-2.62,1.66-3.55,3.24-3.55s3.28,.89,3.28,3.55v12.26h5.01Zm-22.7,0v-12.99c0-4.24-2.31-7.32-6.7-7.32-1.77,0-3.47,.69-4.82,2.08V15.48h-5.01v27.44h5.01v-12.26c0-2.62,1.66-3.55,3.24-3.55s3.28,.89,3.28,3.55v12.26h5.01Zm-21.2-2.5l-3.39-3.35c-1.04,1.12-1.93,1.58-3.24,1.58-1.19,0-2.12-.42-2.85-1.31-.77-.96-1.12-2.35-1.12-4.47s.35-3.47,1.12-4.44c.73-.89,1.66-1.31,2.85-1.31,1.31,0,2.2,.46,3.24,1.58l3.39-3.39c-1.77-1.85-3.85-2.7-6.63-2.7-4.01,0-8.98,2.12-8.98,10.25s4.97,10.29,8.98,10.29c2.78,0,4.86-.89,6.63-2.73m-25.78-4.9c0,1.24-.19,2.05-.73,2.55-.89,.85-1.78,.97-3.16,.97-1.97,0-2.89-.93-2.89-2.32s1-2.28,2.82-2.28h3.97v1.08Zm5.01,7.4v-13.22c0-4.7-2.93-7.09-8.55-7.09-3.36,0-5.28,.61-7.25,2.77l3.2,3.12c1.04-1.2,1.93-1.66,3.86-1.66,2.66,0,3.74,.96,3.74,3.16v1.01h-4.74c-4.66,0-6.86,2.62-6.86,5.82,0,1.77,.58,3.39,1.65,4.51,1.19,1.19,2.85,1.77,5.13,1.77s3.58-.58,4.94-1.92v1.73h4.89Zm-18.97-22.67v-4.77h-18.07v27.44h5.35v-11.14h10.83v-4.77h-10.83v-6.75h12.72Z"/></g><path class="h" d="M447.85,257.61H3.99V118.68H447.85v138.93Zm-442.08-1.78H446.07V120.46H5.77V255.83Z"/><rect class="g" x="4.88" y="303.42" width="442.09" height="207.69"/><g class="k"><path class="h" d="M447.85,512H3.99v-209.47H447.85v209.47Zm-442.08-1.78H446.07v-205.91H5.77v205.91Z"/><path class="f" d="M370.51,493.58l-3.39-3.35c-1.19,1.2-1.93,1.58-3.24,1.58-2.62,0-3.97-1.93-3.97-5.79s1.35-5.75,3.97-5.75c1.27,0,2.08,.39,3.24,1.58l3.39-3.39c-1.19-1.16-1.77-1.54-2.85-2-1.08-.46-2.35-.69-3.74-.69-5.66,0-9.01,3.77-9.01,10.1,0,6.67,3.27,10.44,9.01,10.44,1.39,0,2.62-.23,3.74-.73,1.08-.46,1.66-.85,2.85-2m-25.78-5.98v1.08c0,2.51-1.04,3.51-3.63,3.51-2.12,0-3.16-.77-3.16-2.32s1.04-2.28,2.82-2.28h3.97Zm5.01,8.48v-13.22c0-4.7-2.89-7.09-8.67-7.09-1.89,0-3.28,.23-4.43,.73-1,.46-1.54,.89-2.7,2.04l3.2,3.12c1.19-1.31,2-1.66,3.78-1.66,2.7,0,3.82,.93,3.82,3.16v1.01h-4.74c-4.24,0-6.86,2.23-6.86,5.86,0,3.93,2.5,6.24,6.78,6.24,1.16,0,2.08-.15,2.85-.46,.77-.31,1.2-.62,2.08-1.46v1.73h4.89Zm-21.59,0v-20.08h-14.68v8.13c0,7.21-1.66,7.52-3.35,7.52h-.62v4.43h2.39c4.08,0,6.43-2.23,6.43-10.83v-4.82h4.82v15.65h5.01Zm-32.65,0v-10.48l6.9,10.48h6.01l-7.56-10.71,7.09-9.36h-5.86l-6.59,9.52v-9.52h-5.04v20.08h5.04Zm-21.12,0v-20.08h-5.04l-7.06,11.95v-11.95h-5.04v20.08h5.04l7.06-12.26v12.26h5.04Zm-21.12-15.65v-4.43h-16.73v4.43h5.9v15.65h5.05v-15.65h5.78Zm-18.66,2.32h-11.87v4.66h11.87v-4.66Zm-22.05,5.36c0,2.32-1.35,3.7-3.32,3.7s-3.35-1.39-3.35-3.7v-11.45c0-2.31,1.39-3.74,3.35-3.74s3.32,1.43,3.32,3.74v11.45Zm5.01,.04v-11.57c0-5.24-3.85-8.17-8.33-8.17s-8.36,2.93-8.36,8.17v11.57c0,5.24,3.89,8.17,8.36,8.17s8.33-2.93,8.33-8.17m-25.94,7.94v-27.44h-5.01l-5.59,4.85v5.4l5.59-4.86v22.05h5.01Zm-33.5-4.43h-6.13c1-2.05,1.54-4.55,1.54-8.6v-2.62h4.59v11.22Zm7.55,9.36v-9.36h-2.54v-15.65h-14.41v6.12c0,5.25-.93,7.67-1.97,9.53h-2.04v9.36h4.74v-4.93h11.48v4.93h4.74Zm-28.98-16.84h-7.64c.12-2.7,1.5-4.25,3.82-4.25s3.66,1.51,3.82,4.25m4.93,3.42v-2.23c0-5.82-3.43-9.6-8.75-9.6s-8.75,3.93-8.75,10.21c0,6.82,3.16,10.33,9.33,10.33,1.58,0,2.97-.27,4.12-.73,1.27-.54,1.97-1,3.47-2.43l-3.04-2.97c-.89,.85-1.31,1.16-2.04,1.46-.66,.27-1.5,.43-2.31,.43-2.93,0-4.44-1.47-4.59-4.48h12.57Zm-22.9,8.48v-20.08h-14.68v8.13c0,7.21-1.66,7.52-3.35,7.52h-.62v4.43h2.39c4.08,0,6.43-2.23,6.43-10.83v-4.82h4.82v15.65h5.01Zm-21.05-2.5l-3.39-3.35c-1.19,1.2-1.93,1.58-3.24,1.58-2.62,0-3.97-1.93-3.97-5.79s1.35-5.75,3.97-5.75c1.27,0,2.08,.39,3.24,1.58l3.39-3.39c-1.19-1.16-1.77-1.54-2.85-2-1.08-.46-2.35-.69-3.74-.69-5.66,0-9.01,3.77-9.01,10.1,0,6.67,3.27,10.44,9.01,10.44,1.39,0,2.62-.23,3.74-.73,1.08-.46,1.66-.85,2.85-2"/><path class="f" d="M409.49,437.92h-7.64c.12-2.7,1.5-4.25,3.82-4.25s3.66,1.51,3.82,4.25m4.93,3.42v-2.23c0-5.82-3.43-9.6-8.75-9.6s-8.75,3.93-8.75,10.21c0,6.82,3.16,10.33,9.33,10.33,1.58,0,2.97-.27,4.12-.73,1.27-.54,1.96-1,3.47-2.43l-3.04-2.97c-.89,.85-1.31,1.16-2.04,1.46-.66,.27-1.5,.43-2.31,.43-2.93,0-4.44-1.47-4.59-4.48h12.57Zm-22.86,8.48v-20.08h-5.05l-7.06,11.95v-11.95h-5.05v20.08h5.05l7.06-12.26v12.26h5.05Zm-23.48,0v-20.08h-5.04v7.59h-6.44v-7.59h-5.04v20.08h5.04v-8.06h6.44v8.06h5.04Zm-27.67-8.48v1.08c0,2.51-1.04,3.51-3.63,3.51-2.12,0-3.16-.77-3.16-2.32s1.04-2.28,2.82-2.28h3.97Zm5.01,8.48v-13.22c0-4.7-2.89-7.09-8.67-7.09-1.89,0-3.28,.23-4.44,.73-1,.46-1.54,.89-2.7,2.04l3.2,3.12c1.19-1.31,2-1.66,3.78-1.66,2.7,0,3.82,.93,3.82,3.16v1.01h-4.75c-4.24,0-6.86,2.23-6.86,5.86,0,3.93,2.5,6.24,6.78,6.24,1.16,0,2.08-.15,2.86-.46,.77-.31,1.19-.62,2.08-1.46v1.73h4.89Zm-25.74-6.05c0,1.43-.93,2.35-2.51,2.35h-3.97v-4.67h3.97c1.58,0,2.51,.85,2.51,2.32m-2.74-10.33c1.58,0,2.43,.77,2.43,2.12s-.85,2.16-2.43,2.16h-3.74v-4.28h3.74Zm7.71,10.6c0-2.16-.93-3.55-2.85-4.55,1.73-1,2.54-2.35,2.54-4.24,0-3.35-2.43-5.51-6.2-5.51h-9.9v20.08h10.25c3.78,0,6.16-2.23,6.16-5.78m-26.94-4.28c0,2.62-.15,5.79-3.51,5.79-2.43,0-3.47-1.62-3.47-5.48,0-2.58,.04-6.06,3.47-6.06s3.51,3.16,3.51,5.75m5.01-.08c0-3.9-.62-5.98-2.27-7.71-1.54-1.62-3.7-2.46-6.24-2.46s-4.67,.85-6.21,2.46c-1.65,1.77-2.27,3.81-2.27,7.79s.58,6.06,2.27,7.83c1.54,1.62,3.66,2.46,6.21,2.46s4.7-.85,6.24-2.46c1.69-1.77,2.27-3.82,2.27-7.9m-21.74,4.2c0-2.16-1.23-3.85-3.04-4.63,1.66-.77,2.73-2.43,2.73-4.32,0-3.55-3.46-5.43-7.32-5.43-3.01,0-5.86,.54-8.13,2.35l2.78,3.08c1.31-.93,2.85-1.39,4.36-1.39,2.04,0,3.39,.66,3.39,2.05s-1.04,2.2-2.7,2.2h-2.97v3.58h3.05c1.77,0,2.89,.66,2.89,2.16s-1.73,2.28-3.51,2.28c-1.89,0-3.66-.5-5.09-1.78l-2.89,3.16c2.39,2.16,5.63,2.85,8.79,2.85,4.12,0,7.67-2.43,7.67-6.16m-25.47-2.55v1.08c0,2.51-1.04,3.51-3.63,3.51-2.12,0-3.16-.77-3.16-2.32s1.04-2.28,2.82-2.28h3.97Zm5.01,8.48v-13.22c0-4.7-2.89-7.09-8.67-7.09-1.89,0-3.28,.23-4.43,.73-1,.46-1.54,.89-2.7,2.04l3.2,3.12c1.19-1.31,2-1.66,3.78-1.66,2.7,0,3.82,.93,3.82,3.16v1.01h-4.74c-4.24,0-6.86,2.23-6.86,5.86,0,3.93,2.5,6.24,6.78,6.24,1.16,0,2.08-.15,2.85-.46,.77-.31,1.2-.62,2.08-1.46v1.73h4.89Zm-25.74-10.1c0,4.28-.89,5.82-3.4,5.82s-3.4-1.54-3.4-5.48c0-2.58-.08-6.06,3.4-6.06,2.51,0,3.4,1.5,3.4,5.71m-6.94-8.1v-1.89h-4.85v27.44h5.01v-9.13c1.43,1.42,2.7,2,4.79,2s3.81-.66,4.97-1.81c1.5-1.5,2.04-3.7,2.04-8.4,0-2.66-.08-3.67-.35-5.13-.27-1.35-.88-2.58-1.69-3.39-1.16-1.16-2.97-1.81-4.97-1.81-2.2,0-3.4,.58-4.94,2.12m-18.69,18.42c2.39,0,4.51-.81,5.94-2.31,1.73-1.81,2.46-4.05,2.46-8.06,0-3.43-.77-6.48-2.54-8.14-1.11-1-2.43-1.62-4.93-1.62-2.2,0-4.24,1-5.01,2.31,0-2.43,.69-3.66,2.54-4.63,2.27-1.19,5.67-.96,8.21-1.16v-4.31c-5.94,.04-9.56,.31-12.07,2.23-2.54,2-3.2,4.31-3.2,13.72,0,3.74,.42,6.94,1.62,8.83,1.35,2.12,4.01,3.12,6.97,3.12m-.08-4.5c-.96,0-1.81-.27-2.39-.96-.73-.81-1.12-2.35-1.12-4.82,0-2.2,.39-3.74,1.01-4.55,.62-.77,1.5-1.04,2.51-1.04s1.89,.31,2.47,1.08c.66,.81,1,2.35,1,4.55,0,2.35-.39,3.93-1.04,4.74-.62,.73-1.46,1-2.43,1m-18.54-5.79c0,2.62-.15,5.79-3.51,5.79-2.43,0-3.47-1.62-3.47-5.48,0-2.58,.04-6.06,3.47-6.06s3.51,3.16,3.51,5.75m5.01-.08c0-3.9-.62-5.98-2.27-7.71-1.54-1.62-3.7-2.46-6.24-2.46s-4.66,.85-6.21,2.46c-1.65,1.77-2.27,3.81-2.27,7.79s.58,6.06,2.27,7.83c1.54,1.62,3.66,2.46,6.21,2.46s4.71-.85,6.24-2.46c1.7-1.77,2.27-3.82,2.27-7.9m-36.43,.08c0,2.62-.15,5.79-3.51,5.79-2.43,0-3.47-1.62-3.47-5.48,0-2.58,.04-6.06,3.47-6.06s3.51,3.16,3.51,5.75m5.01-.08c0-3.9-.62-5.98-2.27-7.71-1.54-1.62-3.7-2.46-6.24-2.46s-4.66,.85-6.21,2.46c-1.65,1.77-2.27,3.81-2.27,7.79s.58,6.06,2.27,7.83c1.54,1.62,3.66,2.46,6.21,2.46s4.71-.85,6.24-2.46c1.7-1.77,2.27-3.82,2.27-7.9m-22.51,10.14v-20.08h-5.05v7.59h-6.44v-7.59h-5.05v20.08h5.05v-8.06h6.44v8.06h5.05Zm-28.52-4.43h-6.13c1-2.05,1.54-4.55,1.54-8.6v-2.62h4.59v11.22Zm7.55,9.36v-9.36h-2.54v-15.65h-14.41v6.12c0,5.25-.93,7.67-1.97,9.53h-2.04v9.36h4.74v-4.93h11.48v4.93h4.74Zm-28.98-16.84h-7.64c.12-2.7,1.5-4.25,3.82-4.25s3.66,1.51,3.82,4.25m4.93,3.42v-2.23c0-5.82-3.43-9.6-8.75-9.6s-8.75,3.93-8.75,10.21c0,6.82,3.16,10.33,9.33,10.33,1.58,0,2.97-.27,4.12-.73,1.27-.54,1.97-1,3.47-2.43l-3.04-2.97c-.89,.85-1.31,1.16-2.04,1.46-.66,.27-1.5,.43-2.31,.43-2.93,0-4.44-1.47-4.59-4.48h12.57Zm-27.05-1.62c0,4.28-.89,5.82-3.4,5.82s-3.4-1.54-3.4-5.48c0-2.58-.08-6.06,3.4-6.06,2.51,0,3.4,1.5,3.4,5.71m-6.94-8.1v-1.89h-4.85v27.44h5.01v-9.13c1.43,1.42,2.7,2,4.78,2s3.82-.66,4.97-1.81c1.5-1.5,2.04-3.7,2.04-8.4,0-2.66-.08-3.67-.35-5.13-.27-1.35-.89-2.58-1.69-3.39-1.16-1.16-2.97-1.81-4.97-1.81-2.2,0-3.4,.58-4.94,2.12m-9.52,15.69l-3.39-3.35c-1.19,1.2-1.93,1.58-3.24,1.58-2.62,0-3.97-1.93-3.97-5.79s1.35-5.75,3.97-5.75c1.27,0,2.08,.39,3.24,1.58l3.39-3.39c-1.19-1.16-1.77-1.54-2.85-2-1.08-.46-2.35-.69-3.74-.69-5.66,0-9.01,3.77-9.01,10.1,0,6.67,3.27,10.44,9.01,10.44,1.39,0,2.62-.23,3.74-.73,1.08-.46,1.66-.85,2.85-2"/><path class="f" d="M371.14,395.09v1.08c0,2.51-1.04,3.51-3.63,3.51-2.12,0-3.16-.77-3.16-2.32s1.04-2.28,2.82-2.28h3.97Zm5.01,8.48v-13.22c0-4.7-2.89-7.09-8.67-7.09-1.89,0-3.28,.23-4.43,.73-1,.46-1.54,.89-2.7,2.04l3.19,3.12c1.19-1.31,2-1.66,3.78-1.66,2.7,0,3.82,.93,3.82,3.16v1.01h-4.74c-4.24,0-6.86,2.23-6.86,5.86,0,3.93,2.5,6.24,6.78,6.24,1.16,0,2.08-.15,2.85-.46,.77-.31,1.2-.62,2.08-1.46v1.73h4.89Zm-21.55,0v-20.08h-5.04v7.59h-6.44v-7.59h-5.04v20.08h5.04v-8.06h6.44v8.06h5.04Zm-32.57,0v-20.08h-5.04v7.59h-6.44v-7.59h-5.04v20.08h5.04v-8.06h6.44v8.06h5.04Zm-26.82-11.91h-7.64c.12-2.7,1.51-4.25,3.82-4.25s3.67,1.51,3.82,4.25m4.93,3.42v-2.23c0-5.82-3.42-9.6-8.75-9.6s-8.75,3.93-8.75,10.21c0,6.82,3.16,10.33,9.33,10.33,1.58,0,2.97-.27,4.13-.73,1.27-.54,1.96-1,3.47-2.43l-3.04-2.97c-.89,.85-1.31,1.16-2.04,1.46-.66,.27-1.5,.43-2.32,.43-2.93,0-4.44-1.47-4.59-4.48h12.57Zm-22.86,8.48v-20.08h-16.53v20.08h5.04v-15.65h6.44v15.65h5.04Zm-26.82-11.91h-7.64c.12-2.7,1.5-4.25,3.82-4.25s3.67,1.51,3.82,4.25m4.93,3.42v-2.23c0-5.82-3.43-9.6-8.75-9.6s-8.75,3.93-8.75,10.21c0,6.82,3.16,10.33,9.33,10.33,1.58,0,2.97-.27,4.12-.73,1.27-.54,1.96-1,3.47-2.43l-3.04-2.97c-.89,.85-1.31,1.16-2.04,1.46-.66,.27-1.5,.43-2.31,.43-2.93,0-4.44-1.47-4.59-4.48h12.57Zm-20.12-7.17v-4.43h-16.73v4.43h5.9v15.65h5.05v-15.65h5.78Zm-18.62,13.15l-3.39-3.35c-1.19,1.2-1.93,1.58-3.24,1.58-2.62,0-3.97-1.93-3.97-5.79s1.35-5.75,3.97-5.75c1.27,0,2.08,.39,3.24,1.58l3.39-3.39c-1.19-1.16-1.77-1.54-2.85-2-1.08-.46-2.35-.69-3.74-.69-5.67,0-9.02,3.77-9.02,10.1,0,6.67,3.27,10.44,9.02,10.44,1.39,0,2.62-.23,3.74-.73,1.08-.46,1.66-.85,2.85-2m-35.5-5.98v1.08c0,2.51-1.04,3.51-3.63,3.51-2.12,0-3.16-.77-3.16-2.32s1.04-2.28,2.81-2.28h3.97Zm5.01,8.48v-13.22c0-4.7-2.89-7.09-8.67-7.09-1.89,0-3.28,.23-4.43,.73-1,.46-1.54,.89-2.7,2.04l3.2,3.12c1.19-1.31,2-1.66,3.78-1.66,2.7,0,3.82,.93,3.82,3.16v1.01h-4.74c-4.24,0-6.86,2.23-6.86,5.86,0,3.93,2.51,6.24,6.78,6.24,1.16,0,2.08-.15,2.86-.46,.77-.31,1.19-.62,2.08-1.46v1.73h4.89Zm-25.74-6.05c0,1.43-.93,2.35-2.51,2.35h-3.97v-4.67h3.97c1.58,0,2.51,.85,2.51,2.32m-2.74-10.33c1.58,0,2.43,.77,2.43,2.12s-.85,2.16-2.43,2.16h-3.74v-4.28h3.74Zm7.71,10.6c0-2.16-.93-3.55-2.85-4.55,1.73-1,2.54-2.35,2.54-4.24,0-3.35-2.43-5.51-6.2-5.51h-9.9v20.08h10.25c3.78,0,6.16-2.23,6.16-5.78m-26.94-4.32c0,4.28-.89,5.82-3.4,5.82s-3.4-1.54-3.4-5.48c0-2.58-.08-6.06,3.4-6.06,2.51,0,3.4,1.5,3.4,5.71m-6.94-8.1v-1.89h-4.85v27.44h5.01v-9.13c1.43,1.42,2.7,2,4.78,2s3.82-.66,4.97-1.81c1.5-1.5,2.04-3.7,2.04-8.4,0-2.66-.08-3.67-.35-5.13-.27-1.35-.89-2.58-1.69-3.39-1.16-1.16-2.97-1.81-4.97-1.81-2.2,0-3.4,.58-4.94,2.12m-17.27,9.29c1.62,0,2.66,.96,2.66,2.47s-1.04,2.51-2.66,2.51h-3.86v-4.98h3.86Zm7.59,2.47c0-3.78-2.7-6.4-6.67-6.4h-4.63v-7.25h-9.75v4.43h4.7v15.65h9.67c3.97,0,6.67-2.66,6.67-6.43m-25.48,6.43v-27.44h-20v27.44h5.35v-22.67h9.3v22.67h5.35Z"/><path class="h" d="M343.55,345.4h-7.63c.04-.89,.15-1.43,.46-2.16,.54-1.2,1.66-2.08,3.35-2.08s2.81,.89,3.35,2.08c.31,.73,.42,1.27,.46,2.16m4.93,3.42v-2.23c0-5.52-3.16-9.6-8.75-9.6-5.2,0-8.75,3.69-8.75,10.25,0,8.13,4.55,10.29,9.29,10.29,3.62,0,5.59-1.12,7.63-3.16l-3.05-2.97c-1.27,1.27-2.35,1.89-4.55,1.89-2.81,0-4.39-1.89-4.39-4.48h12.57Zm-20.51-7.21v-3.81h-3.7v-2.2c0-1.16,.54-1.81,1.73-1.81h1.97v-4.23h-2.85c-4.08,0-5.86,2.89-5.86,5.74v2.51h-2.08v3.81h2.08v15.69h5.01v-15.69h3.7Zm-15.65-11.91h-5.12v4.08h5.12v-4.08Zm-.04,7.52h-5.01v20.08h5.01v-20.08Zm-15.34,8.17h-7.63c.04-.89,.15-1.43,.46-2.16,.54-1.2,1.66-2.08,3.35-2.08s2.81,.89,3.35,2.08c.31,.73,.42,1.27,.46,2.16m4.93,3.42v-2.23c0-5.52-3.16-9.6-8.75-9.6-5.2,0-8.74,3.69-8.74,10.25,0,8.13,4.54,10.29,9.28,10.29,3.62,0,5.59-1.12,7.63-3.16l-3.05-2.97c-1.27,1.27-2.35,1.89-4.55,1.89-2.81,0-4.39-1.89-4.39-4.48h12.57Zm-27.79-10.56c0,2.12-1.54,3.63-3.9,3.63h-5.05v-7.25h5.05c2.35,0,3.9,1.5,3.9,3.63m6.47,19.04l-6.12-11.83c2.66-.96,5.01-3.35,5.01-7.21,0-4.59-3.31-8.4-8.9-8.4h-10.75v27.44h5.35v-10.95h3.86l5.36,10.95h6.2Zm-41.21-11.91h-7.63c.04-.89,.15-1.43,.46-2.16,.54-1.2,1.66-2.08,3.35-2.08s2.81,.89,3.35,2.08c.31,.73,.42,1.27,.46,2.16m4.93,3.42v-2.23c0-5.52-3.16-9.6-8.75-9.6-5.2,0-8.74,3.69-8.74,10.25,0,8.13,4.54,10.29,9.28,10.29,3.62,0,5.59-1.12,7.63-3.16l-3.05-2.97c-1.27,1.27-2.35,1.89-4.55,1.89-2.81,0-4.39-1.89-4.39-4.48h12.57Zm-18.93-9.94c-1.39-1.39-2.78-1.89-4.74-1.89-2.16,0-4.09,1-5.05,2.16v-1.92h-4.89v20.08h5.01v-12.1c0-2.54,1.7-3.7,3.24-3.7,1.23,0,1.89,.42,2.66,1.19l3.78-3.81Zm-25.01,6.52h-7.63c.04-.89,.15-1.43,.46-2.16,.54-1.2,1.66-2.08,3.35-2.08s2.81,.89,3.35,2.08c.31,.73,.42,1.27,.46,2.16m4.93,3.42v-2.23c0-5.52-3.16-9.6-8.75-9.6-5.2,0-8.75,3.69-8.75,10.25,0,8.13,4.55,10.29,9.29,10.29,3.62,0,5.59-1.12,7.63-3.16l-3.05-2.97c-1.27,1.27-2.35,1.89-4.55,1.89-2.81,0-4.39-1.89-4.39-4.48h12.57Zm-20.31,8.48v-4.23h-1.93c-1.27,0-1.77-.62-1.77-1.81v-21.39h-5.01v21.7c0,2.85,1.73,5.74,5.86,5.74h2.85Zm-13.84,0v-4.23h-1.81c-1.19,0-1.73-.66-1.73-1.81v-9.64h3.55v-3.81h-3.55v-5.94h-5.01v5.94h-2.12v3.81h2.12v9.95c0,2.85,1.73,5.74,5.82,5.74h2.74Zm-14.34,0v-4.23h-1.81c-1.19,0-1.73-.66-1.73-1.81v-9.64h3.55v-3.81h-3.55v-5.94h-5.01v5.94h-2.12v3.81h2.12v9.95c0,2.85,1.73,5.74,5.82,5.74h2.74Zm-15.34-27.59h-5.12v4.08h5.12v-4.08Zm-.04,7.52h-5.01v20.08h5.01v-20.08Zm-11.8,20.08v-27.44h-5.28l-7.13,14.84-7.17-14.84h-5.28v27.44h5.35v-15.99l5.28,10.41h3.62l5.25-10.41v15.99h5.35Z"/></g><polygon class="f" points="18.05 265.9 31.96 265.9 25 258.95 18.05 265.9"/><polygon class="f" points="18.05 293.56 31.96 293.56 25 286.61 18.05 293.56"/><polygon class="f" points="18.05 279.73 31.96 279.73 25 272.78 18.05 279.73"/><polygon class="f" points="18.05 113.76 31.96 113.76 25 106.81 18.05 113.76"/><polygon class="f" points="18.05 70.19 31.96 70.19 25 63.24 18.05 70.19"/><polygon class="f" points="18.05 97.85 31.96 97.85 25 90.9 18.05 97.85"/><polygon class="f" points="18.05 84.02 31.96 84.02 25 77.07 18.05 84.02"/></svg>