<?xml version="1.0" encoding="UTF-8"?> <!-- Generator: Adobe Illustrator 24.2.1, SVG Export Plug-In . SVG Version: 6.00 Build 0) --> <svg xmlns="http://www.w3.org/2000/svg" xmlns:xlink="http://www.w3.org/1999/xlink" version="1.1" id="Ebene_1" x="0px" y="0px" viewBox="0 0 425.2 505.1" style="enable-background:new 0 0 425.2 505.1;" xml:space="preserve"> <style type="text/css"> .st0{fill:#88D0CB;} .st1{fill:#FFFFFF;} .st2{fill:#62C6BF;} .st3{fill:none;stroke:#2A2C68;stroke-width:0.6;stroke-linejoin:round;} .st4{font-family:'DINPro-Bold';} .st5{font-size:13px;} .st6{fill:#2A2C68;} .st7{font-family:'DINPro-Medium';} .st8{font-size:9.5px;} .st9{fill:#292C68;} .st10{font-size:12px;} </style> <g id="Layer-1"> <path class="st0" d="M70.8,55.3H56.6v-45h14.2V55.3z"></path> </g> <g id="Layer-1_1_"> <path class="st0" d="M134.1,21.3H56.6V7.1h77.5V21.3z"></path> </g> <g id="Layer-1_2_"> <path class="st1" d="M61.3,32H66l-2.3-2.3L61.3,32z"></path> </g> <g id="Layer-1_3_"> <path class="st1" d="M61.3,46H66l-2.3-2.3L61.3,46z"></path> </g> <g id="Layer-1_4_"> <path class="st1" d="M61.3,36.7H66l-2.3-2.3L61.3,36.7z"></path> </g> <g id="Layer-1_5_"> <path class="st1" d="M61.3,50.7H66l-2.3-2.3L61.3,50.7z"></path> </g> <g id="Layer-1_6_"> <path class="st1" d="M61.3,41.4H66L63.7,39L61.3,41.4z"></path> </g> <g id="Layer-1_7_"> <path class="st1" d="M61.3,18H66l-2.3-2.3L61.3,18z"></path> <path class="st1" d="M61.3,22.7H66l-2.3-2.3L61.3,22.7z"></path> <path class="st1" d="M61.3,13.4H66L63.7,11L61.3,13.4z"></path> </g> <g id="Layer-1_8_"> <path class="st1" d="M61.3,27.4H66L63.7,25L61.3,27.4z"></path> </g> <g id="Layer-1_9_"> <path class="st0" d="M425.2,484.1H411v-341h14.2V484.1z"></path> </g> <g id="Layer-1_10_"> <path class="st0" d="M70.8,505.1H56.6V404.3h14.2V505.1z"></path> </g> <g id="Layer-1_11_"> <path class="st0" d="M70.8,330.1H56.6V116h14.2V330.1z"></path> </g> <g id="Layer-1_12_"> <path class="st0" d="M295.8,296.4h-14.2V21h14.2V296.4z"></path> </g> <g id="Layer-1_17_"> <path class="st2" d="M425.3,505.4H56.6v-54.2h368.7V505.4z"></path> </g> <g id="Layer-1_18_"> <path class="st3" d="M424.9,505.4h-368v-54h368V505.4z"></path> </g> <g id="Layer-1_19_"> <path class="st2" d="M425.1,296.4H281.7V143.2h143.4V296.4z"></path> </g> <g id="Layer-1_20_"> <path class="st2" d="M200,297.1H56.6v-154H200V297.1z"></path> </g> <g id="Layer-1_21_"> <path class="st3" d="M424.8,296.8H282V143.5h142.8V296.8z"></path> </g> <g id="Layer-1_22_"> <path class="st3" d="M199.7,296.8H56.9V143.4h142.8V296.8z"></path> </g> <g id="Layer-1_23_"> <path class="st2" d="M128.6,21H425V0H128.6V21z"></path> </g> <g id="Layer-1_24_"> <path class="st3" d="M128.7,21h296V0h-296V21z"></path> </g> <g id="Layer-1_25_"> <text transform="matrix(1 0 0 1 183.2549 13.7088)" class="st1 st4 st5">F</text> <text transform="matrix(1 0 0 1 190.7948 13.7088)" class="st1 st4 st5">a</text> <text transform="matrix(1 0 0 1 197.9968 13.7088)" class="st1 st4 st5">c</text> <text transform="matrix(1 0 0 1 204.4969 13.7088)" class="st1 st4 st5">h</text> <text transform="matrix(1 0 0 1 212.2059 13.7088)" class="st1 st4 st5">s</text> <text transform="matrix(1 0 0 1 218.9789 13.7088)" class="st1 st4 st5">c</text> <text transform="matrix(1 0 0 1 225.4789 13.7088)" class="st1 st4 st5">h</text> <text transform="matrix(1 0 0 1 233.1879 13.7088)" class="st1 st4 st5">u</text> <text transform="matrix(1 0 0 1 240.8969 13.7088)" class="st1 st4 st5">l</text> <text transform="matrix(1 0 0 1 245.3819 13.7088)" class="st1 st4 st5">r</text> <text transform="matrix(1 0 0 1 251.1669 13.7088)" class="st1 st4 st5">e</text> <text transform="matrix(1 0 0 1 258.5509 13.7088)" class="st1 st4 st5">i</text> <text transform="matrix(1 0 0 1 262.3859 13.7088)" class="st1 st4 st5">f</text> <text transform="matrix(1 0 0 1 266.8969 13.7088)" class="st1 st4 st5">e</text> <text transform="matrix(1 0 0 1 274.2809 13.7088)" class="st1 st4 st5"> </text> <text transform="matrix(1 0 0 1 277.5569 13.7088)" class="st1 st4 st5">(</text> <text transform="matrix(1 0 0 1 282.1849 13.7088)" class="st1 st4 st5">M</text> <text transform="matrix(1 0 0 1 292.9879 13.7088)" class="st1 st4 st5">i</text> <text transform="matrix(1 0 0 1 296.8229 13.7088)" class="st1 st4 st5">t</text> <text transform="matrix(1 0 0 1 301.6589 13.7088)" class="st1 st4 st5">t</text> <text transform="matrix(1 0 0 1 306.4949 13.7088)" class="st1 st4 st5">l</text> <text transform="matrix(1 0 0 1 310.8499 13.7088)" class="st1 st4 st5">e</text> <text transform="matrix(1 0 0 1 318.2339 13.7088)" class="st1 st4 st5">r</text> <text transform="matrix(1 0 0 1 324.0189 13.7088)" class="st1 st4 st5">e</text> <text transform="matrix(1 0 0 1 331.4029 13.7088)" class="st1 st4 st5"> </text> <text transform="matrix(1 0 0 1 334.6789 13.7088)" class="st1 st4 st5">R</text> <text transform="matrix(1 0 0 1 343.0508 13.7088)" class="st1 st4 st5">e</text> <text transform="matrix(1 0 0 1 350.4348 13.7088)" class="st1 st4 st5">i</text> <text transform="matrix(1 0 0 1 354.2698 13.7088)" class="st1 st4 st5">f</text> <text transform="matrix(1 0 0 1 358.7808 13.7088)" class="st1 st4 st5">e</text> <text transform="matrix(1 0 0 1 366.1648 13.7088)" class="st1 st4 st5">)</text> </g> <g id="Layer-1_26_"> <text transform="matrix(1 0 0 1 7.5207 352.2833)" class="st6 st7 st8">1</text> <text transform="matrix(1 0 0 1 12.6793 352.2833)" class="st6 st7 st8">.</text> <text transform="matrix(1 0 0 1 15.4152 352.2833)" class="st6 st7 st8"> </text> <text transform="matrix(1 0 0 1 17.7902 352.2833)" class="st6 st7 st8">A</text> <text transform="matrix(1 0 0 1 23.8228 352.2833)" class="st6 st7 st8">u</text> <text transform="matrix(1 0 0 1 29.3137 352.2833)" class="st6 st7 st8">s</text> <text transform="matrix(1 0 0 1 34.1493 352.2833)" class="st6 st7 st8">b</text> <text transform="matrix(1 0 0 1 39.4978 352.2833)" class="st6 st7 st8">i</text> <text transform="matrix(1 0 0 1 42.1007 352.2833)" class="st6 st7 st8">l</text> <text transform="matrix(1 0 0 1 45.0552 352.2833)" class="st6 st7 st8">d</text> <text transform="matrix(1 0 0 1 50.4037 352.2833)" class="st6 st7 st8">u</text> <text transform="matrix(1 0 0 1 55.8947 352.2833)" class="st6 st7 st8">n</text> <text transform="matrix(1 0 0 1 61.3857 352.2833)" class="st6 st7 st8">g</text> <text transform="matrix(1 0 0 1 66.6963 352.2833)" class="st6 st7 st8">s</text> <text transform="matrix(1 0 0 1 71.5318 352.2833)" class="st6 st7 st8">j</text> <text transform="matrix(1 0 0 1 74.1348 352.2833)" class="st6 st7 st8">a</text> <text transform="matrix(1 0 0 1 79.2648 352.2833)" class="st6 st7 st8">h</text> <text transform="matrix(1 0 0 1 84.7558 352.2833)" class="st6 st7 st8">r</text> <text transform="matrix(1 0 0 1 88.9263 352.2833)" class="st6 st7 st8"> </text> </g> <g id="Layer-1_27_"> <text transform="matrix(1 0 0 1 7.5207 363.2833)" class="st6 st7 st8">m</text> <text transform="matrix(1 0 0 1 15.9472 363.2833)" class="st6 st7 st8">a</text> <text transform="matrix(1 0 0 1 21.0772 363.2833)" class="st6 st7 st8">n</text> <text transform="matrix(1 0 0 1 26.5682 363.2833)" class="st6 st7 st8">c</text> <text transform="matrix(1 0 0 1 31.2707 363.2833)" class="st6 st7 st8">h</text> <text transform="matrix(1 0 0 1 36.7617 363.2833)" class="st6 st7 st8">m</text> <text transform="matrix(1 0 0 1 45.1882 363.2833)" class="st6 st7 st8">a</text> <text transform="matrix(1 0 0 1 50.3182 363.2833)" class="st6 st7 st8">l</text> <text transform="matrix(1 0 0 1 53.3677 363.2833)" class="st6 st7 st8"> </text> <text transform="matrix(1 0 0 1 55.7427 363.2833)" class="st6 st7 st8">i</text> <text transform="matrix(1 0 0 1 58.3457 363.2833)" class="st6 st7 st8">n</text> <text transform="matrix(1 0 0 1 63.8367 363.2833)" class="st6 st7 st8"> </text> <text transform="matrix(1 0 0 1 66.2117 363.2833)" class="st6 st7 st8">e</text> <text transform="matrix(1 0 0 1 71.4272 363.2833)" class="st6 st7 st8">i</text> <text transform="matrix(1 0 0 1 74.0302 363.2833)" class="st6 st7 st8">n</text> <text transform="matrix(1 0 0 1 79.5212 363.2833)" class="st6 st7 st8">e</text> <text transform="matrix(1 0 0 1 84.7367 363.2833)" class="st6 st7 st8">r</text> <text transform="matrix(1 0 0 1 89.0022 363.2833)" class="st6 st7 st8"> </text> <text transform="matrix(1 0 0 1 91.3772 363.2833)" class="st6 st7 st8">1</text> <text transform="matrix(1 0 0 1 96.5357 363.2833)" class="st6 st7 st8">-</text> <text transform="matrix(1 0 0 1 100.6777 363.2833)" class="st6 st7 st8">j</text> <text transform="matrix(1 0 0 1 103.2807 363.2833)" class="st6 st7 st8">ä</text> <text transform="matrix(1 0 0 1 108.4107 363.2833)" class="st6 st7 st8">h</text> <text transform="matrix(1 0 0 1 113.9017 363.2833)" class="st6 st7 st8">r</text> <text transform="matrix(1 0 0 1 118.1672 363.2833)" class="st6 st7 st8">i</text> <text transform="matrix(1 0 0 1 120.7702 363.2833)" class="st6 st7 st8">g</text> <text transform="matrix(1 0 0 1 126.0807 363.2833)" class="st6 st7 st8">e</text> <text transform="matrix(1 0 0 1 131.2962 363.2833)" class="st6 st7 st8">n</text> <text transform="matrix(1 0 0 1 136.6913 363.2833)" class="st6 st7 st8"> </text> </g> <g id="Layer-1_28_"> <text transform="matrix(1 0 0 1 7.5207 374.2833)" class="st6 st7 st8">B</text> <text transform="matrix(1 0 0 1 13.9142 374.2833)" class="st6 st7 st8">e</text> <text transform="matrix(1 0 0 1 19.1298 374.2833)" class="st6 st7 st8">r</text> <text transform="matrix(1 0 0 1 23.3953 374.2833)" class="st6 st7 st8">u</text> <text transform="matrix(1 0 0 1 28.8863 374.2833)" class="st6 st7 st8">f</text> <text transform="matrix(1 0 0 1 31.9547 374.2833)" class="st6 st7 st8">s</text> <text transform="matrix(1 0 0 1 36.7902 374.2833)" class="st6 st7 st8">f</text> <text transform="matrix(1 0 0 1 39.8587 374.2833)" class="st6 st7 st8">a</text> <text transform="matrix(1 0 0 1 44.9887 374.2833)" class="st6 st7 st8">c</text> <text transform="matrix(1 0 0 1 49.6912 374.2833)" class="st6 st7 st8">h</text> <text transform="matrix(1 0 0 1 55.1822 374.2833)" class="st6 st7 st8">s</text> <text transform="matrix(1 0 0 1 60.0177 374.2833)" class="st6 st7 st8">c</text> <text transform="matrix(1 0 0 1 64.7202 374.2833)" class="st6 st7 st8">h</text> <text transform="matrix(1 0 0 1 70.2112 374.2833)" class="st6 st7 st8">u</text> <text transform="matrix(1 0 0 1 75.7022 374.2833)" class="st6 st7 st8">l</text> <text transform="matrix(1 0 0 1 78.6567 374.2833)" class="st6 st7 st8">e</text> </g> <g id="Layer-1_29_"> <text transform="matrix(1 0 0 1 7.5207 385.2833)" class="st2 st7 st8">1</text> <text transform="matrix(1 0 0 1 12.6793 385.2833)" class="st2 st7 st8">s</text> <text transform="matrix(1 0 0 1 17.4198 385.2833)" class="st2 st7 st8">t</text> <text transform="matrix(1 0 0 1 20.7638 385.2833)" class="st2 st7 st8"> </text> <text transform="matrix(1 0 0 1 23.1388 385.2833)" class="st2 st7 st8">y</text> <text transform="matrix(1 0 0 1 27.5847 385.2833)" class="st2 st7 st8">e</text> <text transform="matrix(1 0 0 1 32.8003 385.2833)" class="st2 st7 st8">a</text> <text transform="matrix(1 0 0 1 37.9302 385.2833)" class="st2 st7 st8">r</text> <text transform="matrix(1 0 0 1 42.1958 385.2833)" class="st2 st7 st8"> </text> <text transform="matrix(1 0 0 1 44.5708 385.2833)" class="st2 st7 st8">o</text> <text transform="matrix(1 0 0 1 49.7673 385.2833)" class="st2 st7 st8">f</text> <text transform="matrix(1 0 0 1 52.9783 385.2833)" class="st2 st7 st8"> </text> <text transform="matrix(1 0 0 1 55.3533 385.2833)" class="st2 st7 st8">t</text> <text transform="matrix(1 0 0 1 58.6973 385.2833)" class="st2 st7 st8">r</text> <text transform="matrix(1 0 0 1 62.8678 385.2833)" class="st2 st7 st8">a</text> <text transform="matrix(1 0 0 1 67.9978 385.2833)" class="st2 st7 st8">i</text> <text transform="matrix(1 0 0 1 70.6008 385.2833)" class="st2 st7 st8">n</text> <text transform="matrix(1 0 0 1 76.0918 385.2833)" class="st2 st7 st8">i</text> <text transform="matrix(1 0 0 1 78.6947 385.2833)" class="st2 st7 st8">n</text> <text transform="matrix(1 0 0 1 84.1857 385.2833)" class="st2 st7 st8">g</text> <text transform="matrix(1 0 0 1 89.4962 385.2833)" class="st2 st7 st8"> </text> <text transform="matrix(1 0 0 1 91.8712 385.2833)" class="st2 st7 st8">s</text> <text transform="matrix(1 0 0 1 96.7067 385.2833)" class="st2 st7 st8">o</text> <text transform="matrix(1 0 0 1 101.9032 385.2833)" class="st2 st7 st8">m</text> <text transform="matrix(1 0 0 1 110.3297 385.2833)" class="st2 st7 st8">e</text> <text transform="matrix(1 0 0 1 115.5452 385.2833)" class="st2 st7 st8">t</text> <text transform="matrix(1 0 0 1 118.8892 385.2833)" class="st2 st7 st8">i</text> <text transform="matrix(1 0 0 1 121.4922 385.2833)" class="st2 st7 st8">m</text> <text transform="matrix(1 0 0 1 129.9187 385.2833)" class="st2 st7 st8">e</text> <text transform="matrix(1 0 0 1 135.1342 385.2833)" class="st2 st7 st8">s</text> <text transform="matrix(1 0 0 1 139.9697 385.2833)" class="st2 st7 st8"> </text> <text transform="matrix(1 0 0 1 142.3447 385.2833)" class="st2 st7 st8">i</text> <text transform="matrix(1 0 0 1 144.9477 385.2833)" class="st2 st7 st8">n</text> <text transform="matrix(1 0 0 1 150.4387 385.2833)" class="st2 st7 st8"> </text> <text transform="matrix(1 0 0 1 152.8137 385.2833)" class="st2 st7 st8">a</text> <text transform="matrix(1 0 0 1 157.8487 385.2833)" class="st2 st7 st8"> </text> </g> <g id="Layer-1_30_"> <text transform="matrix(1 0 0 1 7.5207 396.2833)" class="st2 st7 st8">1</text> <text transform="matrix(1 0 0 1 12.6793 396.2833)" class="st2 st7 st8">-</text> <text transform="matrix(1 0 0 1 16.8213 396.2833)" class="st2 st7 st8">y</text> <text transform="matrix(1 0 0 1 21.2672 396.2833)" class="st2 st7 st8">e</text> <text transform="matrix(1 0 0 1 26.4828 396.2833)" class="st2 st7 st8">a</text> <text transform="matrix(1 0 0 1 31.6127 396.2833)" class="st2 st7 st8">r</text> <text transform="matrix(1 0 0 1 35.8782 396.2833)" class="st2 st7 st8"> </text> <text transform="matrix(1 0 0 1 38.2532 396.2833)" class="st2 st7 st8">f</text> <text transform="matrix(1 0 0 1 41.4642 396.2833)" class="st2 st7 st8">u</text> <text transform="matrix(1 0 0 1 46.9552 396.2833)" class="st2 st7 st8">l</text> <text transform="matrix(1 0 0 1 50.0047 396.2833)" class="st2 st7 st8">l</text> <text transform="matrix(1 0 0 1 53.0542 396.2833)" class="st2 st7 st8">-</text> <text transform="matrix(1 0 0 1 57.1962 396.2833)" class="st2 st7 st8">t</text> <text transform="matrix(1 0 0 1 60.5402 396.2833)" class="st2 st7 st8">i</text> <text transform="matrix(1 0 0 1 63.1432 396.2833)" class="st2 st7 st8">m</text> <text transform="matrix(1 0 0 1 71.5697 396.2833)" class="st2 st7 st8">e</text> <text transform="matrix(1 0 0 1 76.7852 396.2833)" class="st2 st7 st8"> </text> <text transform="matrix(1 0 0 1 79.1602 396.2833)" class="st2 st7 st8">v</text> <text transform="matrix(1 0 0 1 83.6348 396.2833)" class="st2 st7 st8">o</text> <text transform="matrix(1 0 0 1 88.8313 396.2833)" class="st2 st7 st8">c</text> <text transform="matrix(1 0 0 1 93.4872 396.2833)" class="st2 st7 st8">a</text> <text transform="matrix(1 0 0 1 98.6172 396.2833)" class="st2 st7 st8">t</text> <text transform="matrix(1 0 0 1 101.9612 396.2833)" class="st2 st7 st8">i</text> <text transform="matrix(1 0 0 1 104.5642 396.2833)" class="st2 st7 st8">o</text> <text transform="matrix(1 0 0 1 109.7607 396.2833)" class="st2 st7 st8">n</text> <text transform="matrix(1 0 0 1 115.2517 396.2833)" class="st2 st7 st8">a</text> <text transform="matrix(1 0 0 1 120.3817 396.2833)" class="st2 st7 st8">l</text> <text transform="matrix(1 0 0 1 123.4312 396.2833)" class="st2 st7 st8"> </text> <text transform="matrix(1 0 0 1 125.8062 396.2833)" class="st2 st7 st8">s</text> <text transform="matrix(1 0 0 1 130.6417 396.2833)" class="st2 st7 st8">c</text> <text transform="matrix(1 0 0 1 135.3442 396.2833)" class="st2 st7 st8">h</text> <text transform="matrix(1 0 0 1 140.8352 396.2833)" class="st2 st7 st8">o</text> <text transform="matrix(1 0 0 1 146.0317 396.2833)" class="st2 st7 st8">o</text> <text transform="matrix(1 0 0 1 151.2282 396.2833)" class="st2 st7 st8">l</text> </g> <g id="Layer-1_31_"> <text transform="matrix(1 0 0 1 7.5207 66.2832)" class="st6 st7 st8">B</text> <text transform="matrix(1 0 0 1 13.9142 66.2832)" class="st6 st7 st8">e</text> <text transform="matrix(1 0 0 1 19.1298 66.2832)" class="st6 st7 st8">i</text> <text transform="matrix(1 0 0 1 21.7328 66.2832)" class="st6 st7 st8"> </text> <text transform="matrix(1 0 0 1 24.1078 66.2832)" class="st6 st7 st8">b</text> <text transform="matrix(1 0 0 1 29.4562 66.2832)" class="st6 st7 st8">e</text> <text transform="matrix(1 0 0 1 34.6717 66.2832)" class="st6 st7 st8">s</text> <text transform="matrix(1 0 0 1 39.5073 66.2832)" class="st6 st7 st8">o</text> <text transform="matrix(1 0 0 1 44.7038 66.2832)" class="st6 st7 st8">n</text> <text transform="matrix(1 0 0 1 50.1948 66.2832)" class="st6 st7 st8">d</text> <text transform="matrix(1 0 0 1 55.5433 66.2832)" class="st6 st7 st8">e</text> <text transform="matrix(1 0 0 1 60.7588 66.2832)" class="st6 st7 st8">r</text> <text transform="matrix(1 0 0 1 64.7393 66.2832)" class="st6 st7 st8">e</text> <text transform="matrix(1 0 0 1 69.9548 66.2832)" class="st6 st7 st8">n</text> <text transform="matrix(1 0 0 1 75.4458 66.2832)" class="st6 st7 st8"> </text> <text transform="matrix(1 0 0 1 77.8208 66.2832)" class="st6 st7 st8">N</text> <text transform="matrix(1 0 0 1 84.7747 66.2832)" class="st6 st7 st8">o</text> <text transform="matrix(1 0 0 1 89.9713 66.2832)" class="st6 st7 st8">t</text> <text transform="matrix(1 0 0 1 93.2677 66.2832)" class="st6 st7 st8">e</text> <text transform="matrix(1 0 0 1 98.4832 66.2832)" class="st6 st7 st8">n</text> <text transform="matrix(1 0 0 1 103.9742 66.2832)" class="st6 st7 st8"> </text> <text transform="matrix(1 0 0 1 106.3492 66.2832)" class="st6 st7 st8">A</text> <text transform="matrix(1 0 0 1 112.3817 66.2832)" class="st6 st7 st8">n</text> <text transform="matrix(1 0 0 1 117.8727 66.2832)" class="st6 st7 st8">e</text> <text transform="matrix(1 0 0 1 123.0882 66.2832)" class="st6 st7 st8">r</text> <text transform="matrix(1 0 0 1 127.3537 66.2832)" class="st6 st7 st8">k</text> <text transform="matrix(1 0 0 1 132.2747 66.2832)" class="st6 st7 st8">e</text> <text transform="matrix(1 0 0 1 137.4902 66.2832)" class="st6 st7 st8">n</text> <text transform="matrix(1 0 0 1 142.9812 66.2832)" class="st6 st7 st8">n</text> <text transform="matrix(1 0 0 1 148.4722 66.2832)" class="st6 st7 st8">u</text> <text transform="matrix(1 0 0 1 153.9632 66.2832)" class="st6 st7 st8">n</text> <text transform="matrix(1 0 0 1 159.4542 66.2832)" class="st6 st7 st8">g</text> <text transform="matrix(1 0 0 1 164.6697 66.2832)" class="st6 st7 st8"> </text> </g> <g id="Layer-1_32_"> <text transform="matrix(1 0 0 1 7.5207 77.2832)" class="st6 st7 st8">M</text> <text transform="matrix(1 0 0 1 15.3392 77.2832)" class="st6 st7 st8">i</text> <text transform="matrix(1 0 0 1 17.9422 77.2832)" class="st6 st7 st8">t</text> <text transform="matrix(1 0 0 1 21.2863 77.2832)" class="st6 st7 st8">t</text> <text transform="matrix(1 0 0 1 24.6302 77.2832)" class="st6 st7 st8">l</text> <text transform="matrix(1 0 0 1 27.5847 77.2832)" class="st6 st7 st8">e</text> <text transform="matrix(1 0 0 1 32.8002 77.2832)" class="st6 st7 st8">r</text> <text transform="matrix(1 0 0 1 36.7807 77.2832)" class="st6 st7 st8">e</text> <text transform="matrix(1 0 0 1 41.9962 77.2832)" class="st6 st7 st8"> </text> <text transform="matrix(1 0 0 1 44.3712 77.2832)" class="st6 st7 st8">R</text> <text transform="matrix(1 0 0 1 50.4037 77.2832)" class="st6 st7 st8">e</text> <text transform="matrix(1 0 0 1 55.6192 77.2832)" class="st6 st7 st8">i</text> <text transform="matrix(1 0 0 1 58.2222 77.2832)" class="st6 st7 st8">f</text> <text transform="matrix(1 0 0 1 61.2907 77.2832)" class="st6 st7 st8">e</text> <text transform="matrix(1 0 0 1 66.5062 77.2832)" class="st6 st7 st8"> </text> <text transform="matrix(1 0 0 1 68.8812 77.2832)" class="st6 st7 st8">m</text> <text transform="matrix(1 0 0 1 77.3077 77.2832)" class="st6 st7 st8">ö</text> <text transform="matrix(1 0 0 1 82.5042 77.2832)" class="st6 st7 st8">g</text> <text transform="matrix(1 0 0 1 87.8147 77.2832)" class="st6 st7 st8">l</text> <text transform="matrix(1 0 0 1 90.8642 77.2832)" class="st6 st7 st8">i</text> <text transform="matrix(1 0 0 1 93.4672 77.2832)" class="st6 st7 st8">c</text> <text transform="matrix(1 0 0 1 98.1697 77.2832)" class="st6 st7 st8">h</text> </g> <g id="Layer-1_33_"> <text transform="matrix(1.06 0 0 1 7.52 88.283)" class="st2 st7 st8">R</text> <text transform="matrix(1.06 0 0 1 13.9146 88.283)" class="st2 st7 st8">e</text> <text transform="matrix(1.06 0 0 1 19.4429 88.283)" class="st2 st7 st8">c</text> <text transform="matrix(1.06 0 0 1 24.2769 88.283)" class="st2 st7 st8">o</text> <text transform="matrix(1.06 0 0 1 29.7857 88.283)" class="st2 st7 st8">g</text> <text transform="matrix(1.06 0 0 1 35.4146 88.283)" class="st2 st7 st8">n</text> <text transform="matrix(1.06 0 0 1 41.2349 88.283)" class="st2 st7 st8">i</text> <text transform="matrix(1.06 0 0 1 43.9937 88.283)" class="st2 st7 st8">t</text> <text transform="matrix(1.06 0 0 1 47.5386 88.283)" class="st2 st7 st8">i</text> <text transform="matrix(1.06 0 0 1 50.2974 88.283)" class="st2 st7 st8">o</text> <text transform="matrix(1.06 0 0 1 55.8062 88.283)" class="st2 st7 st8">n</text> <text transform="matrix(1.06 0 0 1 61.6265 88.283)" class="st2 st7 st8"> </text> <text transform="matrix(1.06 0 0 1 64.1441 88.283)" class="st2 st7 st8">o</text> <text transform="matrix(1.06 0 0 1 69.6529 88.283)" class="st2 st7 st8">f</text> <text transform="matrix(1.06 0 0 1 73.0562 88.283)" class="st2 st7 st8"> </text> <text transform="matrix(1.06 0 0 1 75.5738 88.283)" class="st2 st7 st8">i</text> <text transform="matrix(1.06 0 0 1 78.3326 88.283)" class="st2 st7 st8">n</text> <text transform="matrix(1.06 0 0 1 84.1529 88.283)" class="st2 st7 st8">t</text> <text transform="matrix(1.06 0 0 1 87.647 88.283)" class="st2 st7 st8">e</text> <text transform="matrix(1.06 0 0 1 93.1763 88.283)" class="st2 st7 st8">r</text> <text transform="matrix(1.06 0 0 1 97.6978 88.283)" class="st2 st7 st8">m</text> <text transform="matrix(1.06 0 0 1 106.6294 88.283)" class="st2 st7 st8">e</text> <text transform="matrix(1.06 0 0 1 112.1577 88.283)" class="st2 st7 st8">d</text> <text transform="matrix(1.06 0 0 1 117.8277 88.283)" class="st2 st7 st8">i</text> <text transform="matrix(1.06 0 0 1 120.5865 88.283)" class="st2 st7 st8">a</text> <text transform="matrix(1.06 0 0 1 126.024 88.283)" class="st2 st7 st8">t</text> <text transform="matrix(1.06 0 0 1 129.5191 88.283)" class="st2 st7 st8">e</text> <text transform="matrix(1.06 0 0 1 135.0484 88.283)" class="st2 st7 st8"> </text> <text transform="matrix(1.06 0 0 1 137.5659 88.283)" class="st2 st7 st8">s</text> <text transform="matrix(1.06 0 0 1 142.6909 88.283)" class="st2 st7 st8">e</text> <text transform="matrix(1.06 0 0 1 148.2193 88.283)" class="st2 st7 st8">c</text> <text transform="matrix(1.06 0 0 1 153.0533 88.283)" class="st2 st7 st8">o</text> <text transform="matrix(1.06 0 0 1 158.5611 88.283)" class="st2 st7 st8">n</text> <text transform="matrix(1.06 0 0 1 164.3824 88.283)" class="st2 st7 st8">d</text> <text transform="matrix(1.06 0 0 1 170.0513 88.283)" class="st2 st7 st8">a</text> <text transform="matrix(1.06 0 0 1 175.4888 88.283)" class="st2 st7 st8">r</text> <text transform="matrix(1.06 0 0 1 180.0103 88.283)" class="st2 st7 st8">y</text> <text transform="matrix(1.06 0 0 1 184.7232 88.283)" class="st2 st7 st8"> </text> </g> <g id="Layer-1_34_"> <text transform="matrix(1.06 0 0 1 7.52 99.283)" class="st2 st7 st8">s</text> <text transform="matrix(1.06 0 0 1 12.646 99.283)" class="st2 st7 st8">c</text> <text transform="matrix(1.06 0 0 1 17.6304 99.283)" class="st2 st7 st8">h</text> <text transform="matrix(1.06 0 0 1 23.4517 99.283)" class="st2 st7 st8">o</text> <text transform="matrix(1.06 0 0 1 28.9595 99.283)" class="st2 st7 st8">o</text> <text transform="matrix(1.06 0 0 1 34.4683 99.283)" class="st2 st7 st8">l</text> <text transform="matrix(1.06 0 0 1 37.7007 99.283)" class="st2 st7 st8"> </text> <text transform="matrix(1.06 0 0 1 40.2173 99.283)" class="st2 st7 st8">l</text> <text transform="matrix(1.06 0 0 1 43.3491 99.283)" class="st2 st7 st8">e</text> <text transform="matrix(1.06 0 0 1 48.8784 99.283)" class="st2 st7 st8">a</text> <text transform="matrix(1.06 0 0 1 54.3159 99.283)" class="st2 st7 st8">v</text> <text transform="matrix(1.06 0 0 1 59.1597 99.283)" class="st2 st7 st8">i</text> <text transform="matrix(1.06 0 0 1 61.9185 99.283)" class="st2 st7 st8">n</text> <text transform="matrix(1.06 0 0 1 67.7388 99.283)" class="st2 st7 st8">g</text> <text transform="matrix(1.06 0 0 1 73.3687 99.283)" class="st2 st7 st8"> </text> <text transform="matrix(1.06 0 0 1 75.8853 99.283)" class="st2 st7 st8">c</text> <text transform="matrix(1.06 0 0 1 80.7193 99.283)" class="st2 st7 st8">e</text> <text transform="matrix(1.06 0 0 1 86.2476 99.283)" class="st2 st7 st8">r</text> <text transform="matrix(1.06 0 0 1 90.7691 99.283)" class="st2 st7 st8">t</text> <text transform="matrix(1.06 0 0 1 94.314 99.283)" class="st2 st7 st8">i</text> <text transform="matrix(1.06 0 0 1 97.0728 99.283)" class="st2 st7 st8">f</text> <text transform="matrix(1.06 0 0 1 100.4771 99.283)" class="st2 st7 st8">i</text> <text transform="matrix(1.06 0 0 1 103.2359 99.283)" class="st2 st7 st8">c</text> <text transform="matrix(1.06 0 0 1 108.1704 99.283)" class="st2 st7 st8">a</text> <text transform="matrix(1.06 0 0 1 113.6079 99.283)" class="st2 st7 st8">t</text> <text transform="matrix(1.06 0 0 1 117.1021 99.283)" class="st2 st7 st8">e</text> <text transform="matrix(1.06 0 0 1 122.6304 99.283)" class="st2 st7 st8"> </text> <text transform="matrix(1.06 0 0 1 125.148 99.283)" class="st2 st7 st8">i</text> <text transform="matrix(1.06 0 0 1 127.9077 99.283)" class="st2 st7 st8">f</text> <text transform="matrix(1.06 0 0 1 131.3111 99.283)" class="st2 st7 st8"> </text> <text transform="matrix(1.06 0 0 1 133.8286 99.283)" class="st2 st7 st8">s</text> <text transform="matrix(1.06 0 0 1 138.8531 99.283)" class="st2 st7 st8">t</text> <text transform="matrix(1.06 0 0 1 142.398 99.283)" class="st2 st7 st8">u</text> <text transform="matrix(1.06 0 0 1 148.2183 99.283)" class="st2 st7 st8">d</text> <text transform="matrix(1.06 0 0 1 153.8882 99.283)" class="st2 st7 st8">e</text> <text transform="matrix(1.06 0 0 1 159.4165 99.283)" class="st2 st7 st8">n</text> <text transform="matrix(1.06 0 0 1 165.2368 99.283)" class="st2 st7 st8">t</text> <text transform="matrix(1.06 0 0 1 168.731 99.283)" class="st2 st7 st8">s</text> <text transform="matrix(1.06 0 0 1 173.857 99.283)" class="st2 st7 st8"> </text> <text transform="matrix(1.06 0 0 1 176.3745 99.283)" class="st2 st7 st8">h</text> <text transform="matrix(1.06 0 0 1 182.1949 99.283)" class="st2 st7 st8">a</text> <text transform="matrix(1.06 0 0 1 187.6324 99.283)" class="st2 st7 st8">v</text> <text transform="matrix(1.06 0 0 1 192.3755 99.283)" class="st2 st7 st8">e</text> <text transform="matrix(1.06 0 0 1 197.8033 99.283)" class="st2 st7 st8"> </text> </g> <g id="Layer-1_35_"> <text transform="matrix(1.06 0 0 1 7.52 110.283)" class="st2 st7 st8">p</text> <text transform="matrix(1.06 0 0 1 13.19 110.283)" class="st2 st7 st8">a</text> <text transform="matrix(1.06 0 0 1 18.6275 110.283)" class="st2 st7 st8">r</text> <text transform="matrix(1.06 0 0 1 23.149 110.283)" class="st2 st7 st8">t</text> <text transform="matrix(1.06 0 0 1 26.6939 110.283)" class="st2 st7 st8">i</text> <text transform="matrix(1.06 0 0 1 29.4527 110.283)" class="st2 st7 st8">c</text> <text transform="matrix(1.06 0 0 1 34.438 110.283)" class="st2 st7 st8">u</text> <text transform="matrix(1.06 0 0 1 40.2583 110.283)" class="st2 st7 st8">l</text> <text transform="matrix(1.06 0 0 1 43.4907 110.283)" class="st2 st7 st8">a</text> <text transform="matrix(1.06 0 0 1 48.9282 110.283)" class="st2 st7 st8">r</text> <text transform="matrix(1.06 0 0 1 53.4497 110.283)" class="st2 st7 st8">l</text> <text transform="matrix(1.06 0 0 1 56.3804 110.283)" class="st2 st7 st8">y</text> <text transform="matrix(1.06 0 0 1 61.1939 110.283)" class="st2 st7 st8"> </text> <text transform="matrix(1.06 0 0 1 63.7115 110.283)" class="st2 st7 st8">g</text> <text transform="matrix(1.06 0 0 1 69.3404 110.283)" class="st2 st7 st8">o</text> <text transform="matrix(1.06 0 0 1 74.8482 110.283)" class="st2 st7 st8">o</text> <text transform="matrix(1.06 0 0 1 80.357 110.283)" class="st2 st7 st8">d</text> <text transform="matrix(1.06 0 0 1 86.0259 110.283)" class="st2 st7 st8"> </text> <text transform="matrix(1.06 0 0 1 88.5435 110.283)" class="st2 st7 st8">g</text> <text transform="matrix(1.06 0 0 1 94.1724 110.283)" class="st2 st7 st8">r</text> <text transform="matrix(1.06 0 0 1 98.5933 110.283)" class="st2 st7 st8">a</text> <text transform="matrix(1.06 0 0 1 104.0318 110.283)" class="st2 st7 st8">d</text> <text transform="matrix(1.06 0 0 1 109.7007 110.283)" class="st2 st7 st8">e</text> <text transform="matrix(1.06 0 0 1 115.229 110.283)" class="st2 st7 st8">s</text> </g> <g id="Layer-1_36_"> <path class="st1" d="M415.8,326.3h4.7l-2.3-2.3L415.8,326.3z"></path> </g> <g id="Layer-1_37_"> <path class="st1" d="M415.8,354.3h4.7l-2.3-2.3L415.8,354.3z"></path> </g> <g id="Layer-1_38_"> <path class="st1" d="M415.8,382.3h4.7l-2.3-2.3L415.8,382.3z"></path> </g> <g id="Layer-1_39_"> <path class="st1" d="M415.8,410.3h4.7l-2.3-2.3L415.8,410.3z"></path> </g> <g id="Layer-1_40_"> <path class="st1" d="M415.8,438.3h4.7l-2.3-2.3L415.8,438.3z"></path> </g> <g id="Layer-1_41_"> <path class="st1" d="M415.8,340.3h4.7l-2.3-2.3L415.8,340.3z"></path> </g> <g id="Layer-1_42_"> <path class="st1" d="M415.8,368.3h4.7l-2.3-2.3L415.8,368.3z"></path> </g> <g id="Layer-1_43_"> <path class="st1" d="M415.8,396.3h4.7l-2.3-2.3L415.8,396.3z"></path> </g> <g id="Layer-1_44_"> <path class="st1" d="M415.8,424.3h4.7l-2.3-2.3L415.8,424.3z"></path> </g> <g id="Layer-1_45_"> <path class="st1" d="M415.8,331h4.7l-2.3-2.3L415.8,331z"></path> </g> <g id="Layer-1_46_"> <path class="st1" d="M415.8,359h4.7l-2.3-2.3L415.8,359z"></path> </g> <g id="Layer-1_47_"> <path class="st1" d="M415.8,387h4.7l-2.3-2.3L415.8,387z"></path> </g> <g id="Layer-1_48_"> <path class="st1" d="M415.8,415h4.7l-2.3-2.3L415.8,415z"></path> </g> <g id="Layer-1_49_"> <path class="st1" d="M415.8,442.9h4.7l-2.3-2.3L415.8,442.9z"></path> </g> <g id="Layer-1_50_"> <path class="st1" d="M415.8,345h4.7l-2.3-2.3L415.8,345z"></path> </g> <g id="Layer-1_51_"> <path class="st1" d="M415.8,373h4.7l-2.3-2.3L415.8,373z"></path> </g> <g id="Layer-1_52_"> <path class="st1" d="M415.8,401h4.7l-2.3-2.3L415.8,401z"></path> </g> <g id="Layer-1_53_"> <path class="st1" d="M415.8,429h4.7l-2.3-2.3L415.8,429z"></path> </g> <g id="Layer-1_54_"> <path class="st1" d="M415.8,335.7h4.7l-2.3-2.3L415.8,335.7z"></path> </g> <g id="Layer-1_55_"> <path class="st1" d="M415.8,363.7h4.7l-2.3-2.3L415.8,363.7z"></path> </g> <g id="Layer-1_56_"> <path class="st1" d="M415.8,391.6h4.7l-2.3-2.3L415.8,391.6z"></path> </g> <g id="Layer-1_57_"> <path class="st1" d="M415.8,419.6h4.7l-2.3-2.3L415.8,419.6z"></path> </g> <g id="Layer-1_58_"> <path class="st1" d="M415.8,447.6h4.7l-2.3-2.3L415.8,447.6z"></path> </g> <g id="Layer-1_59_"> <path class="st1" d="M415.8,312.3h4.7l-2.3-2.3L415.8,312.3z"></path> <path class="st1" d="M415.8,303h4.7l-2.3-2.3L415.8,303z"></path> <path class="st1" d="M415.8,317h4.7l-2.3-2.3L415.8,317z"></path> <path class="st1" d="M415.8,307.7h4.7l-2.3-2.3L415.8,307.7z"></path> </g> <g id="Layer-1_60_"> <path class="st1" d="M415.8,321.7h4.7l-2.3-2.3L415.8,321.7z"></path> </g> <g id="Layer-1_61_"> <path class="st1" d="M415.8,349.7h4.7l-2.3-2.3L415.8,349.7z"></path> </g> <g id="Layer-1_62_"> <path class="st1" d="M415.8,377.6h4.7l-2.3-2.3L415.8,377.6z"></path> </g> <g id="Layer-1_63_"> <path class="st1" d="M415.8,405.6h4.7l-2.3-2.3L415.8,405.6z"></path> </g> <g id="Layer-1_64_"> <path class="st1" d="M415.8,433.6h4.7l-2.3-2.3L415.8,433.6z"></path> </g> <g id="Layer-1_65_"> <path class="st1" d="M286.4,46.3h4.7l-2.3-2.3L286.4,46.3z"></path> <path class="st1" d="M286.4,74.3h4.7l-2.3-2.3L286.4,74.3z"></path> <path class="st1" d="M286.4,102.3h4.7l-2.3-2.3L286.4,102.3z"></path> <path class="st1" d="M286.4,130.3h4.7l-2.3-2.3L286.4,130.3z"></path> <path class="st1" d="M286.4,32.3h4.7l-2.3-2.3L286.4,32.3z"></path> <path class="st1" d="M286.4,60.3h4.7l-2.3-2.3L286.4,60.3z"></path> <path class="st1" d="M286.4,88.3h4.7l-2.3-2.3L286.4,88.3z"></path> <path class="st1" d="M286.4,116.3h4.7l-2.3-2.3L286.4,116.3z"></path> <path class="st1" d="M286.4,51h4.7l-2.3-2.3L286.4,51z"></path> <path class="st1" d="M286.4,79h4.7l-2.3-2.3L286.4,79z"></path> <path class="st1" d="M286.4,106.9h4.7l-2.3-2.3L286.4,106.9z"></path> <path class="st1" d="M286.4,134.9h4.7l-2.3-2.3L286.4,134.9z"></path> <path class="st1" d="M286.4,37h4.7l-2.3-2.3L286.4,37z"></path> <path class="st1" d="M286.4,65h4.7l-2.3-2.3L286.4,65z"></path> <path class="st1" d="M286.4,93h4.7l-2.3-2.3L286.4,93z"></path> <path class="st1" d="M286.4,120.9h4.7l-2.3-2.3L286.4,120.9z"></path> <path class="st1" d="M286.4,27.7h4.7l-2.3-2.3L286.4,27.7z"></path> <path class="st1" d="M286.4,55.6h4.7l-2.3-2.3L286.4,55.6z"></path> <path class="st1" d="M286.4,83.6h4.7l-2.3-2.3L286.4,83.6z"></path> <path class="st1" d="M286.4,111.6h4.7l-2.3-2.3L286.4,111.6z"></path> <path class="st1" d="M286.4,139.6h4.7l-2.3-2.3L286.4,139.6z"></path> <path class="st1" d="M286.4,41.6h4.7l-2.3-2.3L286.4,41.6z"></path> <path class="st1" d="M286.4,69.6h4.7l-2.3-2.3L286.4,69.6z"></path> <path class="st1" d="M286.4,97.6h4.7l-2.3-2.3L286.4,97.6z"></path> <path class="st1" d="M286.4,125.6h4.7l-2.3-2.3L286.4,125.6z"></path> </g> <g id="Layer-1_66_"> <path class="st1" d="M61.3,307.9H66l-2.3-2.3L61.3,307.9z"></path> <path class="st1" d="M61.3,321.9H66l-2.3-2.3L61.3,321.9z"></path> <path class="st1" d="M61.3,312.5H66l-2.3-2.3L61.3,312.5z"></path> <path class="st1" d="M61.3,326.5H66l-2.3-2.3L61.3,326.5z"></path> <path class="st1" d="M61.3,317.2H66l-2.3-2.3L61.3,317.2z"></path> <path class="st1" d="M61.3,303.2H66l-2.3-2.3L61.3,303.2z"></path> </g> <g id="Layer-1_67_"> <path class="st1" d="M61.3,438.3H66l-2.3-2.3L61.3,438.3z"></path> <path class="st1" d="M61.3,442.9H66l-2.3-2.3L61.3,442.9z"></path> <path class="st1" d="M61.3,429H66l-2.3-2.3L61.3,429z"></path> <path class="st1" d="M61.3,447.6H66l-2.3-2.3L61.3,447.6z"></path> <path class="st1" d="M61.3,433.6H66l-2.3-2.3L61.3,433.6z"></path> </g> <g id="Layer-1_68_"> <path class="st1" d="M61.3,414.6H66l-2.3-2.3L61.3,414.6z"></path> <path class="st1" d="M61.3,419.3H66l-2.3-2.3L61.3,419.3z"></path> <path class="st1" d="M61.3,423.9H66l-2.3-2.3L61.3,423.9z"></path> <path class="st1" d="M61.3,409.9H66l-2.3-2.3L61.3,409.9z"></path> </g> <g id="Layer-1_69_"> <path class="st1" d="M80.1,11.9v4.7l2.3-2.3L80.1,11.9z"></path> <path class="st1" d="M75.4,11.9v4.7l2.3-2.3L75.4,11.9z"></path> <path class="st1" d="M70.8,11.9v4.7l2.3-2.3L70.8,11.9z"></path> <path class="st1" d="M84.8,11.9v4.7l2.3-2.3L84.8,11.9z"></path> </g> <g id="Layer-1_70_"> <path class="st1" d="M122,11.9v4.7l2.3-2.3L122,11.9z"></path> <path class="st1" d="M117.4,11.9v4.7l2.3-2.3L117.4,11.9z"></path> <path class="st1" d="M112.7,11.9v4.7l2.3-2.3L112.7,11.9z"></path> </g> <g id="Layer-1_71_"> <path class="st1" d="M94.1,11.9v4.7l2.3-2.3L94.1,11.9z"></path> <path class="st1" d="M108.1,11.9v4.7l2.3-2.3L108.1,11.9z"></path> <path class="st1" d="M89.4,11.9v4.7l2.3-2.3L89.4,11.9z"></path> <path class="st1" d="M103.4,11.9v4.7l2.3-2.3L103.4,11.9z"></path> <path class="st1" d="M98.7,11.9v4.7l2.3-2.3L98.7,11.9z"></path> </g> <g id="Layer-1_72_"> <path class="st1" d="M271.4,287.7v4.7l2.3-2.3L271.4,287.7z"></path> <path class="st1" d="M266.8,287.7v4.7l2.3-2.3L266.8,287.7z"></path> <path class="st1" d="M262.1,287.7v4.7l2.3-2.3L262.1,287.7z"></path> <path class="st1" d="M276.1,287.7v4.7l2.3-2.3L276.1,287.7z"></path> </g> <g id="Layer-1_73_"> <path class="st1" d="M61.3,130.3H66l-2.3-2.3L61.3,130.3z"></path> <path class="st1" d="M61.3,134.9H66l-2.3-2.3L61.3,134.9z"></path> <path class="st1" d="M61.3,120.9H66l-2.3-2.3L61.3,120.9z"></path> <path class="st1" d="M61.3,139.6H66l-2.3-2.3L61.3,139.6z"></path> <path class="st1" d="M61.3,125.6H66l-2.3-2.3L61.3,125.6z"></path> </g> <g id="Layer-1_74_"> <text transform="matrix(1 0 0 1 110.7726 474.108)" class="st9 st4 st10">M</text> <text transform="matrix(1 0 0 1 120.7446 474.108)" class="st9 st4 st10">ö</text> <text transform="matrix(1 0 0 1 127.5005 474.108)" class="st9 st4 st10">g</text> <text transform="matrix(1 0 0 1 134.4005 474.108)" class="st9 st4 st10">l</text> <text transform="matrix(1 0 0 1 138.5405 474.108)" class="st9 st4 st10">i</text> <text transform="matrix(1 0 0 1 142.0805 474.108)" class="st9 st4 st10">c</text> <text transform="matrix(1 0 0 1 148.0805 474.108)" class="st9 st4 st10">h</text> <text transform="matrix(1 0 0 1 155.1965 474.108)" class="st9 st4 st10">k</text> <text transform="matrix(1 0 0 1 161.6645 474.108)" class="st9 st4 st10">e</text> <text transform="matrix(1 0 0 1 168.4805 474.108)" class="st9 st4 st10">i</text> <text transform="matrix(1 0 0 1 172.0205 474.108)" class="st9 st4 st10">t</text> <text transform="matrix(1 0 0 1 176.4245 474.108)" class="st9 st4 st10">e</text> <text transform="matrix(1 0 0 1 183.2405 474.108)" class="st9 st4 st10">n</text> <text transform="matrix(1 0 0 1 190.3565 474.108)" class="st9 st4 st10"> </text> <text transform="matrix(1 0 0 1 193.3805 474.108)" class="st9 st4 st10">n</text> <text transform="matrix(1 0 0 1 200.4965 474.108)" class="st9 st4 st10">a</text> <text transform="matrix(1 0 0 1 207.1445 474.108)" class="st9 st4 st10">c</text> <text transform="matrix(1 0 0 1 213.1445 474.108)" class="st9 st4 st10">h</text> <text transform="matrix(1 0 0 1 220.2605 474.108)" class="st9 st4 st10"> </text> <text transform="matrix(1 0 0 1 223.2845 474.108)" class="st9 st4 st10">d</text> <text transform="matrix(1 0 0 1 230.2565 474.108)" class="st9 st4 st10">e</text> <text transform="matrix(1 0 0 1 237.0725 474.108)" class="st9 st4 st10">m</text> <text transform="matrix(1 0 0 1 247.8245 474.108)" class="st9 st4 st10"> </text> <text transform="matrix(1 0 0 1 250.8485 474.108)" class="st9 st4 st10">H</text> <text transform="matrix(1 0 0 1 259.3085 474.108)" class="st9 st4 st10">a</text> <text transform="matrix(1 0 0 1 265.9565 474.108)" class="st9 st4 st10">u</text> <text transform="matrix(1 0 0 1 273.0725 474.108)" class="st9 st4 st10">p</text> <text transform="matrix(1 0 0 1 280.0325 474.108)" class="st9 st4 st10">t</text> <text transform="matrix(1 0 0 1 284.4353 474.108)" class="st9 st4 st10">s</text> <text transform="matrix(1 0 0 1 290.6873 474.108)" class="st9 st4 st10">c</text> <text transform="matrix(1 0 0 1 296.6873 474.108)" class="st9 st4 st10">h</text> <text transform="matrix(1 0 0 1 303.8033 474.108)" class="st9 st4 st10">u</text> <text transform="matrix(1 0 0 1 310.9193 474.108)" class="st9 st4 st10">l</text> <text transform="matrix(1 0 0 1 315.0593 474.108)" class="st9 st4 st10">a</text> <text transform="matrix(1 0 0 1 321.7073 474.108)" class="st9 st4 st10">b</text> <text transform="matrix(1 0 0 1 328.6673 474.108)" class="st9 st4 st10">s</text> <text transform="matrix(1 0 0 1 334.9193 474.108)" class="st9 st4 st10">c</text> <text transform="matrix(1 0 0 1 340.9193 474.108)" class="st9 st4 st10">h</text> <text transform="matrix(1 0 0 1 348.0353 474.108)" class="st9 st4 st10">l</text> <text transform="matrix(1 0 0 1 352.1754 474.108)" class="st9 st4 st10">u</text> <text transform="matrix(1 0 0 1 359.2914 474.108)" class="st9 st4 st10">s</text> <text transform="matrix(1 0 0 1 365.4822 474.108)" class="st9 st4 st10">s</text> <text transform="matrix(1 0 0 1 371.4942 474.108)" class="st9 st4 st10"> </text> </g> <g id="Layer-1_75_"> <text transform="matrix(1 0 0 1 74.3295 488.508)" class="st1 st4 st10">O</text> <text transform="matrix(1 0 0 1 82.2975 488.508)" class="st1 st4 st10">p</text> <text transform="matrix(1 0 0 1 89.2575 488.508)" class="st1 st4 st10">t</text> <text transform="matrix(1 0 0 1 93.7215 488.508)" class="st1 st4 st10">i</text> <text transform="matrix(1 0 0 1 97.2615 488.508)" class="st1 st4 st10">o</text> <text transform="matrix(1 0 0 1 104.0175 488.508)" class="st1 st4 st10">n</text> <text transform="matrix(1 0 0 1 111.1335 488.508)" class="st1 st4 st10">s</text> <text transform="matrix(1 0 0 1 117.3855 488.508)" class="st1 st4 st10"> </text> <text transform="matrix(1 0 0 1 120.4095 488.508)" class="st1 st4 st10">w</text> <text transform="matrix(1 0 0 1 129.7575 488.508)" class="st1 st4 st10">i</text> <text transform="matrix(1 0 0 1 133.2975 488.508)" class="st1 st4 st10">t</text> <text transform="matrix(1 0 0 1 137.7615 488.508)" class="st1 st4 st10">h</text> <text transform="matrix(1 0 0 1 144.8775 488.508)" class="st1 st4 st10"> </text> <text transform="matrix(1 0 0 1 147.9015 488.508)" class="st1 st4 st10">a</text> <text transform="matrix(1 0 0 1 154.5495 488.508)" class="st1 st4 st10"> </text> <text transform="matrix(1 0 0 1 157.5735 488.508)" class="st1 st4 st10">g</text> <text transform="matrix(1 0 0 1 164.4734 488.508)" class="st1 st4 st10">e</text> <text transform="matrix(1 0 0 1 171.2894 488.508)" class="st1 st4 st10">n</text> <text transform="matrix(1 0 0 1 178.4054 488.508)" class="st1 st4 st10">e</text> <text transform="matrix(1 0 0 1 185.2214 488.508)" class="st1 st4 st10">r</text> <text transform="matrix(1 0 0 1 190.8014 488.508)" class="st1 st4 st10">a</text> <text transform="matrix(1 0 0 1 197.4494 488.508)" class="st1 st4 st10">l</text> <text transform="matrix(1 0 0 1 201.5894 488.508)" class="st1 st4 st10"> </text> <text transform="matrix(1 0 0 1 204.6134 488.508)" class="st1 st4 st10">s</text> <text transform="matrix(1 0 0 1 210.8654 488.508)" class="st1 st4 st10">e</text> <text transform="matrix(1 0 0 1 217.6815 488.508)" class="st1 st4 st10">c</text> <text transform="matrix(1 0 0 1 223.5015 488.508)" class="st1 st4 st10">o</text> <text transform="matrix(1 0 0 1 230.2575 488.508)" class="st1 st4 st10">n</text> <text transform="matrix(1 0 0 1 237.3735 488.508)" class="st1 st4 st10">d</text> <text transform="matrix(1 0 0 1 244.3455 488.508)" class="st1 st4 st10">a</text> <text transform="matrix(1 0 0 1 250.9935 488.508)" class="st1 st4 st10">r</text> <text transform="matrix(1 0 0 1 256.6935 488.508)" class="st1 st4 st10">y</text> <text transform="matrix(1 0 0 1 262.8615 488.508)" class="st1 st4 st10"> </text> <text transform="matrix(1 0 0 1 265.8855 488.508)" class="st1 st4 st10">s</text> <text transform="matrix(1 0 0 1 272.1375 488.508)" class="st1 st4 st10">c</text> <text transform="matrix(1 0 0 1 278.1375 488.508)" class="st1 st4 st10">h</text> <text transform="matrix(1 0 0 1 285.2535 488.508)" class="st1 st4 st10">o</text> <text transform="matrix(1 0 0 1 292.0095 488.508)" class="st1 st4 st10">o</text> <text transform="matrix(1 0 0 1 298.7655 488.508)" class="st1 st4 st10">l</text> <text transform="matrix(1 0 0 1 302.9055 488.508)" class="st1 st4 st10"> </text> <text transform="matrix(1 0 0 1 305.9295 488.508)" class="st1 st4 st10">l</text> <text transform="matrix(1 0 0 1 309.9496 488.508)" class="st1 st4 st10">e</text> <text transform="matrix(1 0 0 1 316.7656 488.508)" class="st1 st4 st10">a</text> <text transform="matrix(1 0 0 1 323.4136 488.508)" class="st1 st4 st10">v</text> <text transform="matrix(1 0 0 1 329.5696 488.508)" class="st1 st4 st10">i</text> <text transform="matrix(1 0 0 1 333.1096 488.508)" class="st1 st4 st10">n</text> <text transform="matrix(1 0 0 1 340.2256 488.508)" class="st1 st4 st10">g</text> <text transform="matrix(1 0 0 1 347.1256 488.508)" class="st1 st4 st10"> </text> <text transform="matrix(1 0 0 1 350.1496 488.508)" class="st1 st4 st10">c</text> <text transform="matrix(1 0 0 1 355.9696 488.508)" class="st1 st4 st10">e</text> <text transform="matrix(1 0 0 1 362.7856 488.508)" class="st1 st4 st10">r</text> <text transform="matrix(1 0 0 1 368.4856 488.508)" class="st1 st4 st10">t</text> <text transform="matrix(1 0 0 1 372.9496 488.508)" class="st1 st4 st10">i</text> <text transform="matrix(1 0 0 1 376.4896 488.508)" class="st1 st4 st10">f</text> <text transform="matrix(1 0 0 1 380.8336 488.508)" class="st1 st4 st10">i</text> <text transform="matrix(1 0 0 1 384.3736 488.508)" class="st1 st4 st10">c</text> <text transform="matrix(1 0 0 1 390.3124 488.508)" class="st1 st4 st10">a</text> <text transform="matrix(1 0 0 1 396.9604 488.508)" class="st1 st4 st10">t</text> <text transform="matrix(1 0 0 1 401.3644 488.508)" class="st1 st4 st10">e</text> </g> <g id="Layer-1_76_"> <text transform="matrix(1 0 0 1 66.9967 163.5391)" class="st9 st4 st5">D</text> <text transform="matrix(1 0 0 1 75.8237 163.5391)" class="st9 st4 st5">u</text> <text transform="matrix(1 0 0 1 83.5327 163.5391)" class="st9 st4 st5">a</text> <text transform="matrix(1 0 0 1 90.7347 163.5391)" class="st9 st4 st5">l</text> <text transform="matrix(1 0 0 1 95.0897 163.5391)" class="st9 st4 st5">e</text> <text transform="matrix(1 0 0 1 102.4737 163.5391)" class="st9 st4 st5"> </text> <text transform="matrix(1 0 0 1 105.7497 163.5391)" class="st9 st4 st5">/</text> <text transform="matrix(1 0 0 1 111.2487 163.5391)" class="st9 st4 st5"> </text> <text transform="matrix(1 0 0 1 114.5247 163.5391)" class="st9 st4 st5">b</text> <text transform="matrix(1 0 0 1 122.0647 163.5391)" class="st9 st4 st5">e</text> <text transform="matrix(1 0 0 1 129.4487 163.5391)" class="st9 st4 st5">t</text> <text transform="matrix(1 0 0 1 134.2847 163.5391)" class="st9 st4 st5">r</text> <text transform="matrix(1 0 0 1 140.4597 163.5391)" class="st9 st4 st5">i</text> <text transform="matrix(1 0 0 1 144.2948 163.5391)" class="st9 st4 st5">e</text> <text transform="matrix(1 0 0 1 151.6788 163.5391)" class="st9 st4 st5">b</text> <text transform="matrix(1 0 0 1 159.2188 163.5391)" class="st9 st4 st5">l</text> <text transform="matrix(1 0 0 1 163.7038 163.5391)" class="st9 st4 st5">i</text> <text transform="matrix(1 0 0 1 167.5388 163.5391)" class="st9 st4 st5">c</text> <text transform="matrix(1 0 0 1 174.0388 163.5391)" class="st9 st4 st5">h</text> <text transform="matrix(1 0 0 1 181.7478 163.5391)" class="st9 st4 st5">e</text> <text transform="matrix(1 0 0 1 188.8718 163.5391)" class="st9 st4 st5"> </text> </g> <g id="Layer-1_77_"> <text transform="matrix(1 0 0 1 93.4579 179.1391)" class="st9 st4 st5">A</text> <text transform="matrix(1 0 0 1 102.0119 179.1391)" class="st9 st4 st5">u</text> <text transform="matrix(1 0 0 1 109.7209 179.1391)" class="st9 st4 st5">s</text> <text transform="matrix(1 0 0 1 116.4939 179.1391)" class="st9 st4 st5">b</text> <text transform="matrix(1 0 0 1 124.0338 179.1391)" class="st9 st4 st5">i</text> <text transform="matrix(1 0 0 1 127.8689 179.1391)" class="st9 st4 st5">l</text> <text transform="matrix(1 0 0 1 132.2225 179.1391)" class="st9 st4 st5">d</text> <text transform="matrix(1 0 0 1 139.7755 179.1391)" class="st9 st4 st5">u</text> <text transform="matrix(1 0 0 1 147.4845 179.1391)" class="st9 st4 st5">n</text> <text transform="matrix(1 0 0 1 155.1935 179.1391)" class="st9 st4 st5">g</text> </g> <g id="Layer-1_78_"> <text transform="matrix(1 0 0 1 76.4863 194.7391)" class="st1 st4 st5">D</text> <text transform="matrix(1 0 0 1 85.3132 194.7391)" class="st1 st4 st5">u</text> <text transform="matrix(1 0 0 1 93.0222 194.7391)" class="st1 st4 st5">a</text> <text transform="matrix(1 0 0 1 100.2242 194.7391)" class="st1 st4 st5">l</text> <text transform="matrix(1 0 0 1 104.7092 194.7391)" class="st1 st4 st5"> </text> <text transform="matrix(1 0 0 1 107.9852 194.7391)" class="st1 st4 st5">v</text> <text transform="matrix(1 0 0 1 114.5229 194.7391)" class="st1 st4 st5">o</text> <text transform="matrix(1 0 0 1 121.8419 194.7391)" class="st1 st4 st5">c</text> <text transform="matrix(1 0 0 1 128.2769 194.7391)" class="st1 st4 st5">a</text> <text transform="matrix(1 0 0 1 135.4789 194.7391)" class="st1 st4 st5">t</text> <text transform="matrix(1 0 0 1 140.3149 194.7391)" class="st1 st4 st5">i</text> <text transform="matrix(1 0 0 1 144.1499 194.7391)" class="st1 st4 st5">o</text> <text transform="matrix(1 0 0 1 151.4689 194.7391)" class="st1 st4 st5">n</text> <text transform="matrix(1 0 0 1 159.1779 194.7391)" class="st1 st4 st5">a</text> <text transform="matrix(1 0 0 1 166.3799 194.7391)" class="st1 st4 st5">l</text> <text transform="matrix(1 0 0 1 170.8649 194.7391)" class="st1 st4 st5"> </text> <text transform="matrix(1 0 0 1 174.1409 194.7391)" class="st1 st4 st5">/</text> <text transform="matrix(1 0 0 1 179.38 194.7391)" class="st1 st4 st5"> </text> </g> <g id="Layer-1_79_"> <text transform="matrix(1 0 0 1 66.2296 210.3391)" class="st1 st4 st5">i</text> <text transform="matrix(1 0 0 1 70.0647 210.3391)" class="st1 st4 st5">n</text> <text transform="matrix(1 0 0 1 77.7737 210.3391)" class="st1 st4 st5">-</text> <text transform="matrix(1 0 0 1 83.5717 210.3391)" class="st1 st4 st5">c</text> <text transform="matrix(1 0 0 1 89.8766 210.3391)" class="st1 st4 st5">o</text> <text transform="matrix(1 0 0 1 97.1956 210.3391)" class="st1 st4 st5">m</text> <text transform="matrix(1 0 0 1 108.8436 210.3391)" class="st1 st4 st5">p</text> <text transform="matrix(1 0 0 1 116.3836 210.3391)" class="st1 st4 st5">a</text> <text transform="matrix(1 0 0 1 123.5856 210.3391)" class="st1 st4 st5">n</text> <text transform="matrix(1 0 0 1 131.2946 210.3391)" class="st1 st4 st5">y</text> <text transform="matrix(1 0 0 1 137.9766 210.3391)" class="st1 st4 st5"> </text> <text transform="matrix(1 0 0 1 141.2526 210.3391)" class="st1 st4 st5">t</text> <text transform="matrix(1 0 0 1 146.0886 210.3391)" class="st1 st4 st5">r</text> <text transform="matrix(1 0 0 1 152.1336 210.3391)" class="st1 st4 st5">a</text> <text transform="matrix(1 0 0 1 159.3356 210.3391)" class="st1 st4 st5">i</text> <text transform="matrix(1 0 0 1 163.1706 210.3391)" class="st1 st4 st5">n</text> <text transform="matrix(1 0 0 1 170.8796 210.3391)" class="st1 st4 st5">i</text> <text transform="matrix(1 0 0 1 174.7146 210.3391)" class="st1 st4 st5">n</text> <text transform="matrix(1 0 0 1 182.4236 210.3391)" class="st1 st4 st5">g</text> </g> <g id="Layer-1_80_"> <text transform="matrix(1 0 0 1 72.293 242.2832)" class="st6 st7 st8">B</text> <text transform="matrix(1 0 0 1 78.6864 242.2832)" class="st6 st7 st8">e</text> <text transform="matrix(1 0 0 1 83.9019 242.2832)" class="st6 st7 st8">t</text> <text transform="matrix(1 0 0 1 87.2459 242.2832)" class="st6 st7 st8">r</text> <text transform="matrix(1 0 0 1 91.5114 242.2832)" class="st6 st7 st8">i</text> <text transform="matrix(1 0 0 1 94.1144 242.2832)" class="st6 st7 st8">e</text> <text transform="matrix(1 0 0 1 99.3299 242.2832)" class="st6 st7 st8">b</text> <text transform="matrix(1 0 0 1 104.6784 242.2832)" class="st6 st7 st8"> </text> <text transform="matrix(1 0 0 1 107.0534 242.2832)" class="st6 st7 st8">u</text> <text transform="matrix(1 0 0 1 112.5444 242.2832)" class="st6 st7 st8">n</text> <text transform="matrix(1 0 0 1 118.0354 242.2832)" class="st6 st7 st8">d</text> <text transform="matrix(1 0 0 1 123.3839 242.2832)" class="st6 st7 st8"> </text> <text transform="matrix(1 0 0 1 125.7589 242.2832)" class="st6 st7 st8">B</text> <text transform="matrix(1 0 0 1 132.1524 242.2832)" class="st6 st7 st8">e</text> <text transform="matrix(1 0 0 1 137.3679 242.2832)" class="st6 st7 st8">r</text> <text transform="matrix(1 0 0 1 141.6334 242.2832)" class="st6 st7 st8">u</text> <text transform="matrix(1 0 0 1 147.1244 242.2832)" class="st6 st7 st8">f</text> <text transform="matrix(1 0 0 1 150.192 242.2832)" class="st6 st7 st8">s</text> <text transform="matrix(1 0 0 1 154.9809 242.2832)" class="st6 st7 st8">s</text> <text transform="matrix(1 0 0 1 159.8164 242.2832)" class="st6 st7 st8">c</text> <text transform="matrix(1 0 0 1 164.5189 242.2832)" class="st6 st7 st8">h</text> <text transform="matrix(1 0 0 1 170.0099 242.2832)" class="st6 st7 st8">u</text> <text transform="matrix(1 0 0 1 175.5009 242.2832)" class="st6 st7 st8">l</text> <text transform="matrix(1 0 0 1 178.4563 242.2832)" class="st6 st7 st8">e</text> </g> <g id="Layer-1_81_"> <text transform="matrix(1 0 0 1 98.7119 253.2832)" class="st1 st7 st8">C</text> <text transform="matrix(1 0 0 1 104.7729 253.2832)" class="st1 st7 st8">o</text> <text transform="matrix(1 0 0 1 109.9694 253.2832)" class="st1 st7 st8">m</text> <text transform="matrix(1 0 0 1 118.3959 253.2832)" class="st1 st7 st8">p</text> <text transform="matrix(1 0 0 1 123.7444 253.2832)" class="st1 st7 st8">a</text> <text transform="matrix(1 0 0 1 128.8744 253.2832)" class="st1 st7 st8">n</text> <text transform="matrix(1 0 0 1 134.3654 253.2832)" class="st1 st7 st8">y</text> <text transform="matrix(1 0 0 1 138.9064 253.2832)" class="st1 st7 st8"> </text> <text transform="matrix(1 0 0 1 141.2814 253.2832)" class="st1 st7 st8">a</text> <text transform="matrix(1 0 0 1 146.4114 253.2832)" class="st1 st7 st8">n</text> <text transform="matrix(1 0 0 1 151.9024 253.2832)" class="st1 st7 st8">d</text> <text transform="matrix(1 0 0 1 157.1559 253.2832)" class="st1 st7 st8"> </text> </g> <g id="Layer-1_82_"> <text transform="matrix(1 0 0 1 90.4234 264.2832)" class="st1 st7 st8">v</text> <text transform="matrix(1 0 0 1 94.8979 264.2832)" class="st1 st7 st8">o</text> <text transform="matrix(1 0 0 1 100.0945 264.2832)" class="st1 st7 st8">c</text> <text transform="matrix(1 0 0 1 104.7495 264.2832)" class="st1 st7 st8">a</text> <text transform="matrix(1 0 0 1 109.8795 264.2832)" class="st1 st7 st8">t</text> <text transform="matrix(1 0 0 1 113.2234 264.2832)" class="st1 st7 st8">i</text> <text transform="matrix(1 0 0 1 115.8264 264.2832)" class="st1 st7 st8">o</text> <text transform="matrix(1 0 0 1 121.0229 264.2832)" class="st1 st7 st8">n</text> <text transform="matrix(1 0 0 1 126.5139 264.2832)" class="st1 st7 st8">a</text> <text transform="matrix(1 0 0 1 131.644 264.2832)" class="st1 st7 st8">l</text> <text transform="matrix(1 0 0 1 134.6935 264.2832)" class="st1 st7 st8"> </text> <text transform="matrix(1 0 0 1 137.0685 264.2832)" class="st1 st7 st8">s</text> <text transform="matrix(1 0 0 1 141.9039 264.2832)" class="st1 st7 st8">c</text> <text transform="matrix(1 0 0 1 146.6064 264.2832)" class="st1 st7 st8">h</text> <text transform="matrix(1 0 0 1 152.0974 264.2832)" class="st1 st7 st8">o</text> <text transform="matrix(1 0 0 1 157.2939 264.2832)" class="st1 st7 st8">o</text> <text transform="matrix(1 0 0 1 162.4904 264.2832)" class="st1 st7 st8">l</text> </g> <g id="Layer-1_83_"> <text transform="matrix(1 0 0 1 325.1996 163.5391)" class="st9 st4 st5">2</text> <text transform="matrix(1 0 0 1 332.5186 163.5391)" class="st9 st4 st5">-</text> <text transform="matrix(1 0 0 1 338.3166 163.5391)" class="st9 st4 st5">j</text> <text transform="matrix(1 0 0 1 342.1516 163.5391)" class="st9 st4 st5">ä</text> <text transform="matrix(1 0 0 1 349.3535 163.5391)" class="st9 st4 st5">h</text> <text transform="matrix(1 0 0 1 357.0626 163.5391)" class="st9 st4 st5">r</text> <text transform="matrix(1 0 0 1 363.2375 163.5391)" class="st9 st4 st5">i</text> <text transform="matrix(1 0 0 1 367.0725 163.5391)" class="st9 st4 st5">g</text> <text transform="matrix(1 0 0 1 374.5475 163.5391)" class="st9 st4 st5">e</text> <text transform="matrix(1 0 0 1 381.6715 163.5391)" class="st9 st4 st5"> </text> </g> <g id="Layer-1_84_"> <text transform="matrix(1 0 0 1 295.8523 179.1391)" class="st9 st4 st5">B</text> <text transform="matrix(1 0 0 1 304.6663 179.1391)" class="st9 st4 st5">e</text> <text transform="matrix(1 0 0 1 312.0503 179.1391)" class="st9 st4 st5">r</text> <text transform="matrix(1 0 0 1 318.2253 179.1391)" class="st9 st4 st5">u</text> <text transform="matrix(1 0 0 1 325.9343 179.1391)" class="st9 st4 st5">f</text> <text transform="matrix(1 0 0 1 330.4453 179.1391)" class="st9 st4 st5">s</text> <text transform="matrix(1 0 0 1 337.2183 179.1391)" class="st9 st4 st5">f</text> <text transform="matrix(1 0 0 1 341.7292 179.1391)" class="st9 st4 st5">a</text> <text transform="matrix(1 0 0 1 348.9312 179.1391)" class="st9 st4 st5">c</text> <text transform="matrix(1 0 0 1 355.4312 179.1391)" class="st9 st4 st5">h</text> <text transform="matrix(1 0 0 1 363.1403 179.1391)" class="st9 st4 st5">s</text> <text transform="matrix(1 0 0 1 369.9133 179.1391)" class="st9 st4 st5">c</text> <text transform="matrix(1 0 0 1 376.4133 179.1391)" class="st9 st4 st5">h</text> <text transform="matrix(1 0 0 1 384.1223 179.1391)" class="st9 st4 st5">u</text> <text transform="matrix(1 0 0 1 391.8313 179.1391)" class="st9 st4 st5">l</text> <text transform="matrix(1 0 0 1 396.1863 179.1391)" class="st9 st4 st5">e</text> <text transform="matrix(1 0 0 1 403.5703 179.1391)" class="st9 st4 st5">n</text> </g> <g id="Layer-1_85_"> <text transform="matrix(1 0 0 1 304.2698 194.7391)" class="st1 st4 st5">2</text> <text transform="matrix(1 0 0 1 311.5888 194.7391)" class="st1 st4 st5">-</text> <text transform="matrix(1 0 0 1 317.3868 194.7391)" class="st1 st4 st5">y</text> <text transform="matrix(1 0 0 1 323.9388 194.7391)" class="st1 st4 st5">e</text> <text transform="matrix(1 0 0 1 331.3228 194.7391)" class="st1 st4 st5">a</text> <text transform="matrix(1 0 0 1 338.5248 194.7391)" class="st1 st4 st5">r</text> <text transform="matrix(1 0 0 1 344.6998 194.7391)" class="st1 st4 st5"> </text> <text transform="matrix(1 0 0 1 347.9758 194.7391)" class="st1 st4 st5">f</text> <text transform="matrix(1 0 0 1 352.6818 194.7391)" class="st1 st4 st5">u</text> <text transform="matrix(1 0 0 1 360.3908 194.7391)" class="st1 st4 st5">l</text> <text transform="matrix(1 0 0 1 364.8758 194.7391)" class="st1 st4 st5">l</text> <text transform="matrix(1 0 0 1 369.3608 194.7391)" class="st1 st4 st5">-</text> <text transform="matrix(1 0 0 1 375.1588 194.7391)" class="st1 st4 st5">t</text> <text transform="matrix(1 0 0 1 379.9948 194.7391)" class="st1 st4 st5">i</text> <text transform="matrix(1 0 0 1 383.8298 194.7391)" class="st1 st4 st5">m</text> <text transform="matrix(1 0 0 1 395.4778 194.7391)" class="st1 st4 st5">e</text> <text transform="matrix(1 0 0 1 402.6005 194.7391)" class="st1 st4 st5"> </text> </g> <g id="Layer-1_86_"> <text transform="matrix(1 0 0 1 300.4345 210.3391)" class="st1 st4 st5">v</text> <text transform="matrix(1 0 0 1 306.9735 210.3391)" class="st1 st4 st5">o</text> <text transform="matrix(1 0 0 1 314.2925 210.3391)" class="st1 st4 st5">c</text> <text transform="matrix(1 0 0 1 320.7275 210.3391)" class="st1 st4 st5">a</text> <text transform="matrix(1 0 0 1 327.9295 210.3391)" class="st1 st4 st5">t</text> <text transform="matrix(1 0 0 1 332.7655 210.3391)" class="st1 st4 st5">i</text> <text transform="matrix(1 0 0 1 336.6005 210.3391)" class="st1 st4 st5">o</text> <text transform="matrix(1 0 0 1 343.9195 210.3391)" class="st1 st4 st5">n</text> <text transform="matrix(1 0 0 1 351.6285 210.3391)" class="st1 st4 st5">a</text> <text transform="matrix(1 0 0 1 358.8305 210.3391)" class="st1 st4 st5">l</text> <text transform="matrix(1 0 0 1 363.3155 210.3391)" class="st1 st4 st5"> </text> <text transform="matrix(1 0 0 1 366.5915 210.3391)" class="st1 st4 st5">s</text> <text transform="matrix(1 0 0 1 373.3645 210.3391)" class="st1 st4 st5">c</text> <text transform="matrix(1 0 0 1 379.8645 210.3391)" class="st1 st4 st5">h</text> <text transform="matrix(1 0 0 1 387.5735 210.3391)" class="st1 st4 st5">o</text> <text transform="matrix(1 0 0 1 394.8925 210.3391)" class="st1 st4 st5">o</text> <text transform="matrix(1 0 0 1 402.2115 210.3391)" class="st1 st4 st5">l</text> </g> <g id="Layer-1_87_"> <text transform="matrix(1 0 0 1 301.0104 242.2832)" class="st6 st7 st8">v</text> <text transform="matrix(1 0 0 1 305.4849 242.2832)" class="st6 st7 st8">e</text> <text transform="matrix(1 0 0 1 310.7004 242.2832)" class="st6 st7 st8">r</text> <text transform="matrix(1 0 0 1 314.8709 242.2832)" class="st6 st7 st8">s</text> <text transform="matrix(1 0 0 1 319.7065 242.2832)" class="st6 st7 st8">c</text> <text transform="matrix(1 0 0 1 324.409 242.2832)" class="st6 st7 st8">h</text> <text transform="matrix(1 0 0 1 329.9 242.2832)" class="st6 st7 st8">i</text> <text transform="matrix(1 0 0 1 332.503 242.2832)" class="st6 st7 st8">e</text> <text transform="matrix(1 0 0 1 337.7185 242.2832)" class="st6 st7 st8">d</text> <text transform="matrix(1 0 0 1 343.067 242.2832)" class="st6 st7 st8">e</text> <text transform="matrix(1 0 0 1 348.2825 242.2832)" class="st6 st7 st8">n</text> <text transform="matrix(1 0 0 1 353.7735 242.2832)" class="st6 st7 st8">e</text> <text transform="matrix(1 0 0 1 358.989 242.2832)" class="st6 st7 st8"> </text> <text transform="matrix(1 0 0 1 361.364 242.2832)" class="st6 st7 st8">b</text> <text transform="matrix(1 0 0 1 366.7125 242.2832)" class="st6 st7 st8">e</text> <text transform="matrix(1 0 0 1 371.928 242.2832)" class="st6 st7 st8">r</text> <text transform="matrix(1 0 0 1 376.1935 242.2832)" class="st6 st7 st8">u</text> <text transform="matrix(1 0 0 1 381.6845 242.2832)" class="st6 st7 st8">f</text> <text transform="matrix(1 0 0 1 384.8955 242.2832)" class="st6 st7 st8">l</text> <text transform="matrix(1 0 0 1 387.945 242.2832)" class="st6 st7 st8">i</text> <text transform="matrix(1 0 0 1 390.548 242.2832)" class="st6 st7 st8">c</text> <text transform="matrix(1 0 0 1 395.2505 242.2832)" class="st6 st7 st8">h</text> <text transform="matrix(1 0 0 1 400.7415 242.2832)" class="st6 st7 st8">e</text> <text transform="matrix(1 0 0 1 405.8621 242.2832)" class="st6 st7 st8"> </text> </g> <g id="Layer-1_88_"> <text transform="matrix(1 0 0 1 328.7545 253.2832)" class="st6 st7 st8">R</text> <text transform="matrix(1 0 0 1 335.0721 253.2832)" class="st6 st7 st8">i</text> <text transform="matrix(1 0 0 1 337.675 253.2832)" class="st6 st7 st8">c</text> <text transform="matrix(1 0 0 1 342.3776 253.2832)" class="st6 st7 st8">h</text> <text transform="matrix(1 0 0 1 347.8686 253.2832)" class="st6 st7 st8">t</text> <text transform="matrix(1 0 0 1 351.2126 253.2832)" class="st6 st7 st8">u</text> <text transform="matrix(1 0 0 1 356.7036 253.2832)" class="st6 st7 st8">n</text> <text transform="matrix(1 0 0 1 362.1945 253.2832)" class="st6 st7 st8">g</text> <text transform="matrix(1 0 0 1 367.505 253.2832)" class="st6 st7 st8">e</text> <text transform="matrix(1 0 0 1 372.7206 253.2832)" class="st6 st7 st8">n</text> </g> <g id="Layer-1_89_"> <text transform="matrix(1 0 0 1 308.5056 264.2832)" class="st1 st7 st8">V</text> <text transform="matrix(1 0 0 1 313.5786 264.2832)" class="st1 st7 st8">a</text> <text transform="matrix(1 0 0 1 318.7086 264.2832)" class="st1 st7 st8">r</text> <text transform="matrix(1 0 0 1 322.9741 264.2832)" class="st1 st7 st8">i</text> <text transform="matrix(1 0 0 1 325.5771 264.2832)" class="st1 st7 st8">o</text> <text transform="matrix(1 0 0 1 330.7736 264.2832)" class="st1 st7 st8">u</text> <text transform="matrix(1 0 0 1 336.2646 264.2832)" class="st1 st7 st8">s</text> <text transform="matrix(1 0 0 1 341.1001 264.2832)" class="st1 st7 st8"> </text> <text transform="matrix(1 0 0 1 343.4751 264.2832)" class="st1 st7 st8">c</text> <text transform="matrix(1 0 0 1 348.1301 264.2832)" class="st1 st7 st8">a</text> <text transform="matrix(1 0 0 1 353.2601 264.2832)" class="st1 st7 st8">r</text> <text transform="matrix(1 0 0 1 357.2406 264.2832)" class="st1 st7 st8">e</text> <text transform="matrix(1 0 0 1 362.4561 264.2832)" class="st1 st7 st8">e</text> <text transform="matrix(1 0 0 1 367.6716 264.2832)" class="st1 st7 st8">r</text> <text transform="matrix(1 0 0 1 371.9371 264.2832)" class="st1 st7 st8"> </text> <text transform="matrix(1 0 0 1 374.3121 264.2832)" class="st1 st7 st8">p</text> <text transform="matrix(1 0 0 1 379.6606 264.2832)" class="st1 st7 st8">a</text> <text transform="matrix(1 0 0 1 384.7906 264.2832)" class="st1 st7 st8">t</text> <text transform="matrix(1 0 0 1 388.1346 264.2832)" class="st1 st7 st8">h</text> <text transform="matrix(1 0 0 1 393.6256 264.2832)" class="st1 st7 st8">s</text> </g> </svg> 