<?xml version="1.0" encoding="utf-8"?>
<!-- Generator: Adobe Illustrator 26.2.1, SVG Export Plug-In . SVG Version: 6.00 Build 0)  -->
<svg version="1.1" id="Ebene_1" xmlns="http://www.w3.org/2000/svg" xmlns:xlink="http://www.w3.org/1999/xlink" x="0px" y="0px"
	 viewBox="0 0 512 512" style="enable-background:new 0 0 512 512;" xml:space="preserve">
<style type="text/css">
	.st0{fill:#6EC3BF;}
	.st1{fill:#A0D5D2;}
	.st2{fill:#87CCC8;}
	.st3{fill:#FFFFFF;}
	.st4{clip-path:url(#SVGID_00000001622472420159007290000002946685834600801455_);fill:#2B2961;}
	.st5{fill:#897DA2;}
	.st6{fill:#2B2961;}
	.st7{clip-path:url(#SVGID_00000042702423660361829980000011060297209353692559_);fill:#FFFFFF;}
	.st8{clip-path:url(#SVGID_00000042702423660361829980000011060297209353692559_);fill:#2B2961;}
	.st9{clip-path:url(#SVGID_00000018951768455380211020000016093752470038046879_);fill:#FFFFFF;}
	.st10{clip-path:url(#SVGID_00000018951768455380211020000016093752470038046879_);fill:#6EC3BF;}
	.st11{fill:#9D9D9C;}
	.st12{fill:#D0D0D0;}
	.st13{clip-path:url(#SVGID_00000097470914135980081570000005752634475185723280_);fill:#FFFFFF;}
	.st14{clip-path:url(#SVGID_00000145752933657462314860000009991701328718344123_);fill:#2B2961;}
	.st15{clip-path:url(#SVGID_00000145752933657462314860000009991701328718344123_);fill:#FFFFFF;}
	.st16{fill:#97D1CE;}
	.st17{clip-path:url(#SVGID_00000029749794238760172260000015577688611248970381_);fill:#2B2961;}
	.st18{clip-path:url(#SVGID_00000152256066732525072710000000047831482185159592_);fill:#2B2961;}
	.st19{clip-path:url(#SVGID_00000134949457577866772480000014602542513532022952_);fill:#FFFFFF;}
	.st20{clip-path:url(#SVGID_00000134949457577866772480000014602542513532022952_);fill:#2B2961;}
	.st21{clip-path:url(#SVGID_00000105412215891296362920000008651965299220137862_);fill:#2B2961;}
	.st22{clip-path:url(#SVGID_00000056385179180649268670000014541677318862988425_);fill:#2B2961;}
	.st23{clip-path:url(#SVGID_00000056385179180649268670000014541677318862988425_);fill:#FFFFFF;}
	.st24{clip-path:url(#SVGID_00000150790143698942168770000009607278831684506291_);fill:#FFFFFF;}
	.st25{clip-path:url(#SVGID_00000097461966829862638420000005222304393181715072_);fill:#6EC3BF;}
	.st26{clip-path:url(#SVGID_00000027596508676781068510000016658404906751292337_);fill:#2B2961;}
	.st27{clip-path:url(#SVGID_00000027596508676781068510000016658404906751292337_);fill:#1D1D1B;}
	.st28{clip-path:url(#SVGID_00000027596508676781068510000016658404906751292337_);fill:#FFFFFF;}
	.st29{clip-path:url(#SVGID_00000113327336100320455610000014192583540989692324_);fill:#2B2961;}
	.st30{clip-path:url(#SVGID_00000116940525632775691470000005420567954451168191_);fill:#2B2961;}
	.st31{clip-path:url(#SVGID_00000116940525632775691470000005420567954451168191_);fill:#FFFFFF;}
	.st32{clip-path:url(#SVGID_00000181054795925062458510000001338342660153093772_);fill:#2B2961;}
	.st33{clip-path:url(#SVGID_00000063628874825640023080000004895103902844735653_);fill:#2B2961;}
	.st34{clip-path:url(#SVGID_00000063628874825640023080000004895103902844735653_);fill:#6EC3BF;}
	.st35{clip-path:url(#SVGID_00000123419173099140701810000000427703679837393593_);fill:#2B2961;}
	.st36{clip-path:url(#SVGID_00000023996268299522110360000015663231530214329766_);fill:#2B2961;}
	.st37{clip-path:url(#SVGID_00000159466270860290436480000002800412931234943638_);fill:#2B2961;}
	.st38{clip-path:url(#SVGID_00000049904247532608438710000005203445506672057218_);fill:#2B2961;}
	.st39{clip-path:url(#SVGID_00000018945342544959719350000011922658985273317258_);fill:#6EC3BF;}
	.st40{clip-path:url(#SVGID_00000018919995326340645270000002002869719440129174_);fill:#6EC3BF;}
	.st41{clip-path:url(#SVGID_00000158726658969232633790000012118797191007902858_);fill:#6EC3BF;}
	.st42{clip-path:url(#SVGID_00000072962040530329895120000007229873053595010983_);fill:#6EC3BF;}
	.st43{clip-path:url(#SVGID_00000152242115174492387250000016512175489011247796_);fill:#2B2961;}
	.st44{clip-path:url(#SVGID_00000134221731867252328540000010934925337114630557_);fill:#2B2961;}
	.st45{clip-path:url(#SVGID_00000167379603389205150470000007813113974570604479_);fill:#2B2961;}
	.st46{clip-path:url(#SVGID_00000170963560304697764410000000457712827762965909_);fill:#2B2961;}
	.st47{clip-path:url(#SVGID_00000170963560304697764410000000457712827762965909_);fill:#FFFFFF;}
	.st48{clip-path:url(#SVGID_00000091717919657825074300000005754079197352507832_);fill:#FFFFFF;}
	.st49{clip-path:url(#SVGID_00000028301381306870797690000001749307583367055770_);fill:#2B2961;}
	.st50{clip-path:url(#SVGID_00000065767857262193576330000012092461030588877503_);fill:#2B2961;}
	.st51{clip-path:url(#SVGID_00000065767857262193576330000012092461030588877503_);fill:#FFFFFF;}
	.st52{clip-path:url(#SVGID_00000137113876839084838960000003098037493693404582_);fill:#2B2961;}
	.st53{clip-path:url(#SVGID_00000137113876839084838960000003098037493693404582_);fill:#2C265F;}
	.st54{clip-path:url(#SVGID_00000008141673674865315180000008790657969336883609_);fill:#FFFFFF;}
	.st55{clip-path:url(#SVGID_00000075844076704007974260000000854078898951131323_);fill:#2B2961;}
	.st56{clip-path:url(#SVGID_00000011738790923831027960000000698568346403735966_);fill:#FFFFFF;}
	.st57{clip-path:url(#SVGID_00000145749497193135618300000015308167924360708999_);fill:#2B2961;}
	.st58{clip-path:url(#SVGID_00000045610705852020568450000012768205644257425049_);fill:#FFFFFF;}
	.st59{clip-path:url(#SVGID_00000096020444769362735860000016434309794428921737_);fill:#2B2961;}
	.st60{clip-path:url(#SVGID_00000096020444769362735860000016434309794428921737_);fill:#FFFFFF;}
	.st61{clip-path:url(#SVGID_00000074400077860864209240000010177982055090345653_);fill:#2B2961;}
	.st62{clip-path:url(#SVGID_00000021078963991973305400000007042211341963606190_);fill:#FFFFFF;}
	.st63{clip-path:url(#SVGID_00000079467929324031454580000016386623375641453205_);fill:#2B2961;}
	.st64{clip-path:url(#SVGID_00000047782767323371838490000017871212396655968697_);fill:#FFFFFF;}
	.st65{clip-path:url(#SVGID_00000047782767323371838490000017871212396655968697_);fill:#2B2961;}
	.st66{clip-path:url(#SVGID_00000168112348680661011020000014751026068672394372_);fill:#2B2961;}
	.st67{clip-path:url(#SVGID_00000168112348680661011020000014751026068672394372_);fill:#6EC3BF;}
	.st68{clip-path:url(#SVGID_00000168112348680661011020000014751026068672394372_);fill:#FFFFFF;}
	.st69{clip-path:url(#SVGID_00000125571005931292129240000005150288022711167414_);fill:#2B2961;}
	.st70{clip-path:url(#SVGID_00000112603265669091399460000017350638668103944095_);fill:#2B2961;}
	.st71{clip-path:url(#SVGID_00000015331809653058658100000011655954399845762710_);fill:#2B2961;}
	.st72{clip-path:url(#SVGID_00000147927791103064035870000001087071366212619164_);fill:#2B2961;}
	.st73{clip-path:url(#SVGID_00000047022329409643853730000003200024548183450810_);fill:#2B2961;}
	.st74{clip-path:url(#SVGID_00000116201843175664023400000001354559875913440389_);fill:#FFFFFF;}
	.st75{clip-path:url(#SVGID_00000116201843175664023400000001354559875913440389_);fill:#6EC3BF;}
	.st76{clip-path:url(#SVGID_00000081649654391143747040000010263543850087767717_);fill:#2B2961;}
	.st77{clip-path:url(#SVGID_00000150061913519983347780000008848260513917175966_);fill:#2B2961;}
	.st78{clip-path:url(#SVGID_00000150061913519983347780000008848260513917175966_);fill:#FFFFFF;}
	.st79{clip-path:url(#SVGID_00000043450194262018462970000001524315000567133338_);fill:#2B2961;}
	.st80{clip-path:url(#SVGID_00000021821717222437047560000016339555053161125052_);fill:#FFFFFF;}
	.st81{clip-path:url(#SVGID_00000009568535357188476990000001372671978395874706_);fill:#2B2961;}
	.st82{clip-path:url(#SVGID_00000114033633200942129860000013036246826126574218_);fill:#2B2961;}
	.st83{clip-path:url(#SVGID_00000169559707063545194440000002827639146725999289_);fill:#2B2961;}
	.st84{clip-path:url(#SVGID_00000142871264849067559400000008407451848164485543_);fill:#FFFFFF;}
	.st85{clip-path:url(#SVGID_00000017483492775411340120000008850527069361730453_);fill:#FFFFFF;}
	.st86{clip-path:url(#SVGID_00000137090973282590276780000015280912602787123597_);fill:#2B2961;}
	.st87{clip-path:url(#SVGID_00000038380209577252381710000001987829117668776889_);fill:#2B2961;}
	.st88{clip-path:url(#SVGID_00000038380209577252381710000001987829117668776889_);fill:#FFFFFF;}
	.st89{clip-path:url(#SVGID_00000037681391020200454870000005600980077007284118_);fill:#2B2961;}
	.st90{clip-path:url(#SVGID_00000063595662478452284220000010809058516537253551_);fill:#FFFFFF;}
	.st91{clip-path:url(#SVGID_00000125602209318535634970000001936128469794615444_);fill:#6EC3BF;}
	.st92{clip-path:url(#SVGID_00000125602209318535634970000001936128469794615444_);fill:#2B2961;}
	.st93{clip-path:url(#SVGID_00000173162995271717605130000010442615332360602290_);fill:#6EC3BF;}
	.st94{clip-path:url(#SVGID_00000006705432275081872270000009345188968087501463_);fill:#2B2961;}
	.st95{clip-path:url(#SVGID_00000142878851611058180150000016872305607648858042_);fill:#2B2961;}
	.st96{clip-path:url(#SVGID_00000053526198763826976770000014905898149691887278_);fill:#2B2961;}
	.st97{clip-path:url(#SVGID_00000163765521251487763030000002266205204544988833_);fill:#2B2961;}
	.st98{clip-path:url(#SVGID_00000016789460891298138780000011694707201716947130_);fill:#2B2961;}
	.st99{clip-path:url(#SVGID_00000016789460891298138780000011694707201716947130_);fill:#6EC3BF;}
	.st100{clip-path:url(#SVGID_00000034793988666984206250000015677642393506261405_);fill:#2B2961;}
	.st101{clip-path:url(#SVGID_00000034780778562755906660000016071679194161429439_);fill:#2B2961;}
	.st102{clip-path:url(#SVGID_00000034780778562755906660000016071679194161429439_);fill:#6EC3BF;}
	.st103{clip-path:url(#SVGID_00000078764015337082904510000013275382834785416082_);fill:#2B2961;}
	.st104{clip-path:url(#SVGID_00000096739661583015235130000015055316958253425818_);fill:#FFFFFF;}
	.st105{clip-path:url(#SVGID_00000096739661583015235130000015055316958253425818_);fill:#2B2961;}
	.st106{clip-path:url(#SVGID_00000042007841875510708120000002120231014175003065_);fill:#6EC3BF;}
	.st107{clip-path:url(#SVGID_00000124856675469359206990000006702409901902490028_);fill:#2B2961;}
	.st108{clip-path:url(#SVGID_00000143612157862607726150000002267905126182101409_);fill:#2B2961;}
	.st109{clip-path:url(#SVGID_00000143612157862607726150000002267905126182101409_);fill:#FFFFFF;}
	.st110{clip-path:url(#SVGID_00000066513970908309296050000000979716184137334434_);fill:#6EC3BF;}
	.st111{clip-path:url(#SVGID_00000175324649685339990990000012509636786675653055_);fill:#2B2961;}
	.st112{clip-path:url(#SVGID_00000092436467289841808340000005006636718377145520_);fill:#2B2961;}
	.st113{clip-path:url(#SVGID_00000092436467289841808340000005006636718377145520_);fill:#6EC3BF;}
	.st114{clip-path:url(#SVGID_00000155831967558537350280000009555453452026388615_);fill:#2B2961;}
	.st115{clip-path:url(#SVGID_00000037654770083769551600000007341708090806018484_);fill:#6EC3BF;}
	.st116{clip-path:url(#SVGID_00000037654770083769551600000007341708090806018484_);fill:#2B2961;}
	.st117{clip-path:url(#SVGID_00000030455978557324401450000008549017700523265947_);fill:#2B2961;}
	.st118{clip-path:url(#SVGID_00000151506040810002430830000007680702874221876648_);fill:#FFFFFF;}
	.st119{clip-path:url(#SVGID_00000151506040810002430830000007680702874221876648_);}
	.st120{clip-path:url(#SVGID_00000072969211966518249960000010758074494034808968_);fill:#2B2961;}
	.st121{clip-path:url(#SVGID_00000151506040810002430830000007680702874221876648_);fill:#6EC3BF;}
	.st122{clip-path:url(#SVGID_00000127023091355856784390000018433862152268639631_);fill:#2B2961;}
	.st123{clip-path:url(#SVGID_00000151506040810002430830000007680702874221876648_);fill:#2B2961;}
	.st124{clip-path:url(#SVGID_00000163768332024101746350000002932187104689477290_);fill:#2B2961;}
	.st125{clip-path:url(#SVGID_00000098912619548171049050000004350851613448405410_);fill:#2B2961;}
	.st126{clip-path:url(#SVGID_00000137822611578835597030000015359511988361031855_);}
	.st127{clip-path:url(#SVGID_00000015330865420588577870000000415125312805003151_);}
	.st128{clip-path:url(#SVGID_00000148627798807929516200000005106567029147046299_);fill:#FFFFFF;}
	.st129{clip-path:url(#SVGID_00000093890883645491641880000013157077232641539986_);fill:#2B2961;}
	.st130{clip-path:url(#SVGID_00000064319202331948587890000006378390620290566314_);fill:#2B2961;}
	.st131{clip-path:url(#SVGID_00000064319202331948587890000006378390620290566314_);fill:#6EC3BF;}
	.st132{clip-path:url(#SVGID_00000064319202331948587890000006378390620290566314_);fill:#FFFFFF;}
	.st133{clip-path:url(#SVGID_00000119108235614164874590000011762997628764330669_);fill:#2B2961;}
	.st134{clip-path:url(#SVGID_00000119108235614164874590000011762997628764330669_);fill:#6EC3BF;}
	.st135{clip-path:url(#SVGID_00000147184418722220775760000017454938834516686256_);fill:#2B2961;}
	.st136{clip-path:url(#SVGID_00000021809974687497612810000001866507671162474640_);fill:#6EC3BF;}
	.st137{clip-path:url(#SVGID_00000021809974687497612810000001866507671162474640_);fill:#FFFFFF;}
	.st138{clip-path:url(#SVGID_00000074409561984463672520000008655523304451562137_);fill:#2B2961;}
	.st139{clip-path:url(#SVGID_00000074409561984463672520000008655523304451562137_);fill:#6EC3BF;}
	.st140{clip-path:url(#SVGID_00000167354672203645267070000005714955684038608032_);fill:#2B2961;}
	.st141{clip-path:url(#SVGID_00000038373202107219645050000009754890355553051325_);fill:#2B2961;}
	.st142{clip-path:url(#SVGID_00000038373202107219645050000009754890355553051325_);fill:#FFFFFF;}
	.st143{clip-path:url(#SVGID_00000032627159466574655100000004613397975584475030_);fill:#2B2961;}
	.st144{clip-path:url(#SVGID_00000047776574407836614750000014191232209954808219_);fill:#FFFFFF;}
	.st145{clip-path:url(#SVGID_00000019647978021817500840000007789886644047284615_);fill:#2B2961;}
	.st146{clip-path:url(#SVGID_00000171677326092807329820000014105946815920941472_);fill:#2B2961;}
	.st147{clip-path:url(#SVGID_00000171677326092807329820000014105946815920941472_);fill:#FFFFFF;}
	.st148{clip-path:url(#SVGID_00000138574706542293992830000017572282792784729735_);fill:#2B2961;}
	.st149{clip-path:url(#SVGID_00000073684950762316549400000002625961517199647932_);fill:#2B2961;}
	.st150{clip-path:url(#SVGID_00000073684950762316549400000002625961517199647932_);fill:#FFFFFF;}
	.st151{clip-path:url(#SVGID_00000183232469043243106870000004722622411934078119_);fill:#2B2961;}
	.st152{clip-path:url(#SVGID_00000183232469043243106870000004722622411934078119_);fill:#6EC3BF;}
	.st153{clip-path:url(#SVGID_00000044171247464193111900000006406466018410577585_);fill:#1D1D1B;}
	.st154{clip-path:url(#SVGID_00000044171247464193111900000006406466018410577585_);fill:#2B2961;}
	.st155{clip-path:url(#SVGID_00000044171247464193111900000006406466018410577585_);fill:#FFFFFF;}
	.st156{clip-path:url(#SVGID_00000101802652961758603510000010843568604969456281_);fill:#2B2961;}
	.st157{clip-path:url(#SVGID_00000170972763585210072300000007349672109476029104_);fill:#2B2961;}
	.st158{clip-path:url(#SVGID_00000052793943615963346630000009795528311114740611_);fill:#2B2961;}
	.st159{clip-path:url(#SVGID_00000052793943615963346630000009795528311114740611_);fill:#FFFFFF;}
	.st160{clip-path:url(#SVGID_00000052793943615963346630000009795528311114740611_);fill:#6EC3BF;}
	.st161{clip-path:url(#SVGID_00000159433945990129889760000014557970616587521924_);fill:#2B2961;}
	.st162{clip-path:url(#SVGID_00000043448189695298328410000010645854667426675077_);fill:#2B2961;}
	.st163{clip-path:url(#SVGID_00000050653292025610165360000014285319184652486307_);fill:#2B2961;}
	.st164{clip-path:url(#SVGID_00000147191134958239091230000003649890873446385557_);fill:#2B2961;}
	.st165{clip-path:url(#SVGID_00000147191134958239091230000003649890873446385557_);fill:#FFFFFF;}
	.st166{clip-path:url(#SVGID_00000070822498830753491820000011895439467129971627_);fill:#2B2961;}
	.st167{clip-path:url(#SVGID_00000070822498830753491820000011895439467129971627_);fill:#FFFFFF;}
	.st168{clip-path:url(#SVGID_00000102531672912069700750000002254386792072416427_);fill:#2B2961;}
	.st169{clip-path:url(#SVGID_00000006694103281353423210000014561182716496425861_);fill:#2B2961;}
	.st170{clip-path:url(#SVGID_00000006694103281353423210000014561182716496425861_);fill:#FFFFFF;}
	.st171{clip-path:url(#SVGID_00000096040489519633872280000007235995810792589196_);fill:#2B2961;}
	.st172{clip-path:url(#SVGID_00000111880669556210264300000008334937105841622461_);fill:#FFFFFF;}
	.st173{clip-path:url(#SVGID_00000096029533705355418280000008720685276943328157_);fill:#2B2961;}
	.st174{clip-path:url(#SVGID_00000096029533705355418280000008720685276943328157_);fill:#6EC3BF;}
	.st175{clip-path:url(#SVGID_00000147910061884394703950000016171080195015847577_);fill:#2B2961;}
	.st176{clip-path:url(#SVGID_00000093173822055685701860000009465303070471412409_);fill:#2B2961;}
	.st177{clip-path:url(#SVGID_00000175309872245971521980000008253046283358433680_);fill:#FFFFFF;}
	.st178{clip-path:url(#SVGID_00000178883743108211172940000012601769869221008524_);fill:#6EC3BF;}
	.st179{clip-path:url(#SVGID_00000178883743108211172940000012601769869221008524_);fill:#2B2961;}
	.st180{clip-path:url(#SVGID_00000102525782510888377830000005833096316286157741_);fill:#6EC3BF;}
	.st181{clip-path:url(#SVGID_00000181051986822720558100000000302801858805368745_);fill:#2B2961;}
	.st182{clip-path:url(#SVGID_00000042017889133062718160000006903073989813925259_);fill:#6EC3BF;}
	.st183{clip-path:url(#SVGID_00000042017889133062718160000006903073989813925259_);fill:#2B2961;}
	.st184{clip-path:url(#SVGID_00000135664935064842422620000013869036542489906859_);fill:#2B2961;}
	.st185{clip-path:url(#SVGID_00000100351037099071699380000001363728454631352723_);fill:#2B2961;}
	.st186{clip-path:url(#SVGID_00000114055424208014203330000014487604902827249583_);fill:#2B2961;}
	.st187{clip-path:url(#SVGID_00000132084947595301429670000006950874180168442756_);fill:#2B2961;}
	.st188{clip-path:url(#SVGID_00000131356928610571749280000006334890566447820929_);fill:#2B2961;}
	.st189{clip-path:url(#SVGID_00000047038835293010420080000012276914228173704584_);fill:#6EC3BF;}
	.st190{clip-path:url(#SVGID_00000047038835293010420080000012276914228173704584_);fill:#2B2961;}
	.st191{clip-path:url(#SVGID_00000019662349522449889440000018029076212172086672_);fill:#6EC3BF;}
	.st192{clip-path:url(#SVGID_00000019662349522449889440000018029076212172086672_);fill:#2B2961;}
	.st193{clip-path:url(#SVGID_00000152264660851937298030000001764976555287458961_);fill:#2B2961;}
	.st194{clip-path:url(#SVGID_00000062879162817692477890000005600953083419768255_);fill:#2B2961;}
	.st195{clip-path:url(#SVGID_00000004519720391395083860000003686374352644520065_);fill:#2B2961;}
	.st196{clip-path:url(#SVGID_00000068669883207942277660000009044558719378664108_);fill:#FFFFFF;}
	.st197{clip-path:url(#SVGID_00000037678449371287103440000011617674677874300292_);fill:#2B2961;}
	.st198{clip-path:url(#SVGID_00000062875654732545143210000000675918809646927548_);fill:#2B2961;}
	.st199{clip-path:url(#SVGID_00000062875654732545143210000000675918809646927548_);fill:#6EC3BF;}
	.st200{clip-path:url(#SVGID_00000012472661642217214220000014957669321803752601_);fill:#2B2961;}
	.st201{clip-path:url(#SVGID_00000128454286868333126000000015060800373644490641_);fill:#2B2961;}
	.st202{clip-path:url(#SVGID_00000052795341572579632580000008703251379023465857_);fill:#6EC3BF;}
	.st203{clip-path:url(#SVGID_00000052795341572579632580000008703251379023465857_);fill:#2B2961;}
	.st204{clip-path:url(#SVGID_00000176009236097011019220000012281986368920302267_);fill:#6EC3BF;}
	.st205{clip-path:url(#SVGID_00000176009236097011019220000012281986368920302267_);fill:#2B2961;}
	.st206{clip-path:url(#SVGID_00000031206698245962337160000005966674974766644118_);fill:#2B2961;}
	.st207{clip-path:url(#SVGID_00000044889683974996372230000005468122370498749882_);fill:#2B2961;}
	.st208{clip-path:url(#SVGID_00000044889683974996372230000005468122370498749882_);fill:#6EC3BF;}
	.st209{clip-path:url(#SVGID_00000149349793531204442890000018391027089510194343_);fill:#2B2961;}
	.st210{clip-path:url(#SVGID_00000149349793531204442890000018391027089510194343_);fill:#6EC3BF;}
	.st211{clip-path:url(#SVGID_00000150060919582370775820000007817595955568345513_);fill:#2B2961;}
	.st212{clip-path:url(#SVGID_00000150060919582370775820000007817595955568345513_);fill:#6EC3BF;}
	.st213{clip-path:url(#SVGID_00000093882604053420911190000017081541666826747801_);fill:#2B2961;}
	.st214{clip-path:url(#SVGID_00000138548282400179761450000009862197167129100472_);fill:#6EC3BF;}
	.st215{clip-path:url(#SVGID_00000138548282400179761450000009862197167129100472_);fill:#2B2961;}
	.st216{clip-path:url(#SVGID_00000160903012304164109840000014343270491774311101_);fill:#6EC3BF;}
	.st217{clip-path:url(#SVGID_00000160903012304164109840000014343270491774311101_);fill:#2B2961;}
	.st218{clip-path:url(#SVGID_00000181790733521458373030000007779902392062482817_);fill:#FFFFFF;}
	.st219{clip-path:url(#SVGID_00000181790733521458373030000007779902392062482817_);fill:#2B2961;}
	.st220{clip-path:url(#SVGID_00000022541788248016676070000005295109008793058206_);fill:#FFFFFF;}
	.st221{clip-path:url(#SVGID_00000022541788248016676070000005295109008793058206_);fill:#2B2961;}
	.st222{clip-path:url(#SVGID_00000072995103172920400370000017062299592059011258_);fill:#FFFFFF;}
	.st223{clip-path:url(#SVGID_00000072995103172920400370000017062299592059011258_);fill:#2B2961;}
	.st224{clip-path:url(#SVGID_00000084489822173757498030000008556612262907157180_);fill:#6EC3BF;}
	.st225{clip-path:url(#SVGID_00000084489822173757498030000008556612262907157180_);fill:#2B2961;}
	.st226{clip-path:url(#SVGID_00000070806122588508072370000005134557425383699644_);fill:#2B2961;}
	.st227{clip-path:url(#SVGID_00000070806122588508072370000005134557425383699644_);fill:#6EC3BF;}
	.st228{clip-path:url(#SVGID_00000150072471967123203270000004686685005088794289_);fill:#2B2961;}
	.st229{clip-path:url(#SVGID_00000085234635042187711070000015988723225095624604_);fill:#6EC3BF;}
	.st230{clip-path:url(#SVGID_00000085234635042187711070000015988723225095624604_);fill:#2B2961;}
	.st231{clip-path:url(#SVGID_00000180328725739492752870000006354562133017896591_);fill:#2B2961;}
	.st232{clip-path:url(#SVGID_00000016041159104447801970000010135443129506960037_);fill:#2B2961;}
	.st233{clip-path:url(#SVGID_00000016041159104447801970000010135443129506960037_);fill:#6EC3BF;}
	.st234{clip-path:url(#SVGID_00000126324085531039734800000007444286550859460783_);fill:#2B2961;}
	.st235{clip-path:url(#SVGID_00000150819918301726419100000016715337615618882961_);fill:#FFFFFF;}
	.st236{clip-path:url(#SVGID_00000150819918301726419100000016715337615618882961_);fill:#2B2961;}
	.st237{fill:#2C265F;}
	.st238{clip-path:url(#SVGID_00000059295406112830288790000007889508370133691290_);fill:#2B2961;}
	.st239{clip-path:url(#SVGID_00000059295406112830288790000007889508370133691290_);fill:#6EC3BF;}
	.st240{fill:#61B87A;}
	.st241{clip-path:url(#SVGID_00000100347853454265517260000010425936047793000109_);fill:#2B2961;}
	.st242{clip-path:url(#SVGID_00000088821912287540920030000014299411837825315257_);fill:#2B2961;}
	.st243{clip-path:url(#SVGID_00000034812823286362391800000012922942784199378829_);fill:#2B2961;}
	.st244{clip-path:url(#SVGID_00000105403540741625993370000011336095863179837598_);fill:#2B2961;}
	.st245{clip-path:url(#SVGID_00000105403540741625993370000011336095863179837598_);fill:#61B87A;}
	.st246{clip-path:url(#SVGID_00000105403540741625993370000011336095863179837598_);fill:#FFFFFF;}
	.st247{clip-path:url(#SVGID_00000100354487052811481330000001993101102810864029_);fill:#2B2961;}
	.st248{clip-path:url(#SVGID_00000100354487052811481330000001993101102810864029_);fill:#61B87A;}
	.st249{clip-path:url(#SVGID_00000071521299814936786400000018024094668443259009_);fill:#2B2961;}
	.st250{clip-path:url(#SVGID_00000124840617724198205240000003913287594388114319_);fill:#6EC3BF;}
	.st251{clip-path:url(#SVGID_00000124840617724198205240000003913287594388114319_);fill:#2B2961;}
	.st252{clip-path:url(#SVGID_00000078015133375723969300000015025901397183345048_);fill:#2B2961;}
	.st253{clip-path:url(#SVGID_00000078015133375723969300000015025901397183345048_);fill:#6EC3BF;}
	.st254{clip-path:url(#SVGID_00000147919297963128186970000008566155024014683057_);fill:#2B2961;}
	.st255{clip-path:url(#SVGID_00000147919297963128186970000008566155024014683057_);fill:#6EC3BF;}
</style>
<g>
	<g>
		<defs>
			<rect id="SVGID_00000101781698330779103420000016294969913911740080_" y="15.26" width="512" height="481.48"/>
		</defs>
		<clipPath id="SVGID_00000120522955493524490190000017483578523146984833_">
			<use xlink:href="#SVGID_00000101781698330779103420000016294969913911740080_"  style="overflow:visible;"/>
		</clipPath>
		<path style="clip-path:url(#SVGID_00000120522955493524490190000017483578523146984833_);fill:#6EC3BF;" d="M273.79,171.22
			c48.21,0,87.14,38.94,87.26,87.27c0,47.98-39.04,87.04-87.16,87.14c-48.21-0.22-87.14-39.16-87.26-87.26
			C186.75,210.28,225.8,171.22,273.79,171.22 M448.66,219.1c-4.64-20.93-13.13-40.75-24.44-58.18l44.48-44.48L413.34,61.1
			l-45.04,45.04c-16.75-10.42-35.31-18.11-55.23-22.63V19.45l-78.43,0.12v64.05c-20.6,4.53-39.96,12.79-57.17,23.89l-44.71-44.71
			L77.3,118.25l44.82,44.82c-10.63,16.98-18.67,35.87-22.98,56.02h-61.8l0.23,78.55l61.46-0.12c4.53,19.92,12.23,38.48,22.64,55.24
			L79,395.44l55.36,55.34l42.1-42.1c17.43,11.31,37.23,19.8,58.18,24.44v59.31l78.43-0.12l0.1-59.2
			c20.04-4.4,38.94-12.44,55.92-23.08l42.43,42.43L467,397.02l-42.22-42.22c11.08-17.2,19.24-36.67,23.88-57.15l61.69,0.12
			l-0.12-78.67H448.66z"/>
		<path style="clip-path:url(#SVGID_00000120522955493524490190000017483578523146984833_);fill:#6EC3BF;" d="M234.64,494.26
			c-0.48,0-0.95-0.19-1.29-0.53c-0.34-0.35-0.53-0.81-0.53-1.29v-57.86c-19.63-4.52-38.97-12.64-56.11-23.56l-41.06,41.06
			c-0.71,0.72-1.87,0.72-2.58,0l-55.36-55.35c-0.34-0.34-0.53-0.81-0.53-1.29c0-0.48,0.19-0.95,0.53-1.29l41.66-41.64
			c-10.01-16.39-17.33-34.25-21.78-53.15l-60,0.11h0c-1,0-1.82-0.81-1.83-1.82l-0.23-78.55c0-0.49,0.19-0.95,0.53-1.29
			c0.34-0.35,0.81-0.54,1.29-0.54h60.33c4.17-18.7,11.61-36.83,22.13-53.92l-43.8-43.81c-0.71-0.71-0.71-1.87,0-2.57l55.46-55.46
			c0.71-0.72,1.87-0.72,2.58,0l43.67,43.67c17.1-10.83,35.62-18.57,55.09-23.03V19.56c0-1,0.82-1.83,1.82-1.83l78.43-0.11
			c0,0,0,0,0,0c0.48,0,0.95,0.19,1.29,0.53c0.34,0.35,0.53,0.81,0.53,1.29v62.61c18.89,4.44,36.75,11.76,53.13,21.77l44.02-44.01
			c0.71-0.72,1.87-0.72,2.58,0l55.36,55.33c0.34,0.35,0.53,0.81,0.53,1.29s-0.19,0.95-0.53,1.29l-43.44,43.43
			c10.92,17.14,19.04,36.47,23.57,56.11h60.11c1.01,0,1.83,0.81,1.83,1.83l0.12,78.67c0,0.48-0.19,0.95-0.53,1.29
			c-0.34,0.34-0.81,0.53-1.29,0.53h0l-60.23-0.12c-4.63,19.76-12.36,38.27-23,55.08l41.18,41.18c0.34,0.34,0.53,0.81,0.53,1.29
			c0,0.48-0.19,0.95-0.53,1.29l-55.47,55.46c-0.71,0.71-1.87,0.71-2.58-0.01l-41.41-41.4c-17.01,10.47-35.1,17.94-53.83,22.23
			l-0.1,57.73c0,1.01-0.82,1.83-1.82,1.83L234.64,494.26L234.64,494.26z M176.45,406.85c0.34,0,0.69,0.1,0.99,0.3
			c17.5,11.36,37.41,19.72,57.58,24.19c0.84,0.18,1.43,0.93,1.43,1.78v57.49l74.79-0.12l0.1-57.37c0-0.86,0.6-1.6,1.43-1.78
			c19.28-4.24,37.91-11.92,55.35-22.84c0.73-0.44,1.66-0.34,2.26,0.26l41.14,41.13l52.89-52.87l-40.92-40.93
			c-0.61-0.6-0.71-1.56-0.24-2.28c11.07-17.18,19.02-36.21,23.63-56.57c0.19-0.83,0.93-1.42,1.78-1.42h0l59.86,0.11l-0.11-75.01
			h-59.75c-0.86,0-1.6-0.59-1.78-1.43c-4.47-20.18-12.84-40.1-24.19-57.59c-0.47-0.72-0.37-1.67,0.24-2.28l43.19-43.19l-52.78-52.76
			l-43.75,43.75c-0.6,0.59-1.53,0.71-2.26,0.26c-16.78-10.44-35.17-17.97-54.66-22.4c-0.83-0.19-1.42-0.93-1.42-1.78V21.28
			l-74.78,0.11v62.22c0,0.86-0.59,1.6-1.43,1.78c-20.04,4.41-39.08,12.37-56.57,23.64c-0.72,0.47-1.67,0.37-2.28-0.25l-43.42-43.41
			l-52.88,52.88l43.53,43.54c0.6,0.6,0.71,1.54,0.25,2.26c-10.98,17.54-18.63,36.18-22.74,55.43c-0.18,0.84-0.92,1.44-1.79,1.44
			H39.18l0.22,74.89l59.63-0.11h0c0.85,0,1.59,0.59,1.78,1.42c4.44,19.5,11.98,37.9,22.41,54.68c0.45,0.72,0.34,1.66-0.26,2.26
			l-41.39,41.37l52.78,52.76l40.81-40.81C175.52,407.04,175.98,406.85,176.45,406.85z M273.9,347.45
			c-49.01-0.21-88.97-40.17-89.09-89.08c0.12-49.07,40.03-88.98,88.98-88.98c49,0,88.97,39.97,89.08,89.09
			C362.88,307.44,322.96,347.36,273.9,347.45z M273.79,173.05c-46.94,0-85.22,38.28-85.33,85.33c0.11,46.89,38.44,85.22,85.44,85.42
			c47.04-0.1,85.32-38.37,85.32-85.31C359.12,211.38,320.79,173.05,273.79,173.05z"/>
		<path style="clip-path:url(#SVGID_00000120522955493524490190000017483578523146984833_);fill:#2B2961;" d="M201.58,496.78
			c-1.15,0-2.26-0.45-3.07-1.27c-0.82-0.81-1.28-1.92-1.28-3.08v-55.86c-18.58-4.51-36.85-12.18-53.22-22.35l-39.64,39.64
			c-1.7,1.7-4.45,1.7-6.15,0l-55.36-55.35c-0.81-0.81-1.27-1.92-1.27-3.07c0-1.15,0.46-2.26,1.27-3.08l40.26-40.24
			c-9.28-15.58-16.2-32.45-20.59-50.23l-58.01,0.11c0,0,0,0-0.01,0c-2.39,0-4.34-1.93-4.35-4.33l-0.23-78.55
			c0-1.15,0.45-2.26,1.27-3.08c0.81-0.81,1.92-1.27,3.08-1.27h58.32c4.16-17.67,11.2-34.8,20.96-51.02l-42.4-42.41
			c-1.7-1.7-1.7-4.45,0-6.14l55.46-55.46c1.7-1.7,4.45-1.7,6.15,0l42.26,42.25c16.28-10.06,33.81-17.39,52.2-21.82V19.56
			c0-2.4,1.94-4.34,4.34-4.34l78.44-0.11c0,0,0,0,0.01,0c1.15,0,2.26,0.45,3.07,1.27c0.82,0.81,1.28,1.92,1.28,3.08v60.62
			c17.78,4.38,34.64,11.29,50.22,20.58l42.63-42.62c1.7-1.7,4.45-1.69,6.15-0.01l55.35,55.34c0.81,0.82,1.27,1.92,1.27,3.08
			s-0.46,2.26-1.27,3.07l-42.01,42.01c10.17,16.38,17.84,34.64,22.36,53.23h58.12c2.4,0,4.34,1.94,4.35,4.34l0.11,78.67
			c0,1.15-0.46,2.26-1.27,3.08c-0.82,0.81-1.92,1.27-3.07,1.27c0,0-0.01,0-0.01,0L419.05,302c-4.58,18.63-11.89,36.16-21.79,52.19
			l39.76,39.76c0.81,0.81,1.27,1.92,1.27,3.07c0,1.15-0.46,2.26-1.27,3.08l-55.47,55.45c-1.7,1.69-4.45,1.69-6.15-0.01l-40.01-40
			c-16.15,9.72-33.25,16.78-50.93,21.04l-0.1,55.74c0,2.4-1.95,4.34-4.34,4.34L201.58,496.78
			C201.59,496.78,201.59,496.78,201.58,496.78z M143.4,404.34c0.82,0,1.64,0.23,2.37,0.7c17.24,11.2,36.87,19.44,56.75,23.84
			c1.99,0.44,3.41,2.21,3.41,4.24v54.96l69.75-0.11l0.1-54.87c0-2.04,1.43-3.8,3.41-4.24c19-4.17,37.35-11.75,54.55-22.52
			c1.71-1.08,3.94-0.83,5.38,0.62l39.36,39.35l49.32-49.31l-39.14-39.15c-1.45-1.44-1.69-3.71-0.58-5.43
			c10.91-16.93,18.75-35.69,23.29-55.76c0.45-1.98,2.21-3.38,4.24-3.38c0,0,0.01,0,0.01,0l57.32,0.11l-0.1-69.97h-57.23
			c-2.04,0-3.8-1.41-4.24-3.4c-4.4-19.89-12.65-39.52-23.84-56.75c-1.12-1.73-0.88-3.99,0.57-5.44l41.4-41.4l-49.21-49.19
			l-41.97,41.96c-1.43,1.44-3.66,1.68-5.37,0.62c-16.54-10.29-34.67-17.72-53.89-22.08c-1.98-0.45-3.38-2.21-3.38-4.24V23.8
			l-69.74,0.11v59.7c0,2.04-1.42,3.81-3.41,4.24c-19.75,4.35-38.5,12.19-55.74,23.29c-1.72,1.11-3.98,0.88-5.43-0.58L99.71,68.94
			L50.4,118.25l41.75,41.76c1.43,1.43,1.68,3.66,0.61,5.38C81.94,182.66,74.4,201.04,70.35,220c-0.43,2.01-2.2,3.44-4.25,3.44H8.65
			l0.21,69.85l57.11-0.1c0,0,0,0,0.01,0c2.03,0,3.79,1.4,4.24,3.38c4.38,19.22,11.81,37.36,22.1,53.91
			c1.06,1.71,0.81,3.94-0.62,5.37l-39.61,39.59l49.21,49.2l39.03-39.03C141.17,404.77,142.28,404.34,143.4,404.34z M240.86,349.97
			c-50.41-0.22-91.49-41.3-91.62-91.59c0.12-50.47,41.17-91.5,91.5-91.5c50.39,0,91.48,41.09,91.6,91.61
			C332.35,308.83,291.31,349.87,240.86,349.97z M240.75,175.57c-45.55,0-82.7,37.15-82.81,82.81c0.11,45.51,37.32,82.7,82.93,82.91
			c45.64-0.1,82.79-37.24,82.79-82.79C323.55,212.77,286.35,175.57,240.75,175.57z"/>
	</g>
</g>
</svg>
