<?xml version="1.0" encoding="UTF-8" standalone="no"?> <svg xmlns="http://www.w3.org/2000/svg" xmlns:xlink="http://www.w3.org/1999/xlink" xmlns:serif="http://www.serif.com/" width="100%" height="100%" viewBox="0 0 647 741" version="1.1" xml:space="preserve" style="fill-rule:evenodd;clip-rule:evenodd;stroke-miterlimit:10;"> <g transform="matrix(-4.16667,0,0,4.16667,542.808,-1719.43)"> <rect x="113.386" y="498.048" width="14.173" height="59.488" style="fill:rgb(121,204,198);"></rect> </g> <g transform="matrix(-4.16667,0,0,4.16667,1107.45,-1490.26)"> <rect x="113.686" y="468.19" width="149.088" height="64.202" style="fill:rgb(121,204,198);stroke:rgb(42,44,104);stroke-width:0.6px;"></rect> </g> <g transform="matrix(4.16667,0,0,4.16667,31.0669,400.564)"> <path d="M0,2.345L4.691,2.345L2.345,0L0,2.345Z" style="fill:white;fill-rule:nonzero;"></path> </g> <g transform="matrix(4.16667,0,0,4.16667,31.0669,439.434)"> <path d="M0,2.345L4.691,2.345L2.345,0L0,2.345Z" style="fill:white;fill-rule:nonzero;"></path> </g> <g transform="matrix(4.16667,0,0,4.16667,31.0669,419.999)"> <path d="M0,2.345L4.691,2.345L2.345,0L0,2.345Z" style="fill:white;fill-rule:nonzero;"></path> </g> <g transform="matrix(-4.16667,0,0,4.16667,542.808,-2417.15)"> <rect x="113.386" y="599.461" width="14.173" height="24.114" style="fill:rgb(121,204,198);"></rect> </g> <g transform="matrix(4.16667,0,0,4.16667,-461.129,-2567.04)"> <rect x="113.686" y="619.105" width="149.028" height="20.8" style="fill:rgb(121,204,198);stroke:rgb(42,44,104);stroke-width:0.6px;"></rect> </g> <g transform="matrix(4.16667,0,0,4.16667,31.0669,105.21)"> <path d="M0,2.345L4.691,2.345L2.345,0L0,2.345Z" style="fill:white;fill-rule:nonzero;"></path> </g> <g transform="matrix(4.16667,0,0,4.16667,31.0669,144.079)"> <path d="M0,2.345L4.691,2.345L2.345,0L0,2.345Z" style="fill:white;fill-rule:nonzero;"></path> </g> <g transform="matrix(4.16667,0,0,4.16667,31.0669,124.645)"> <path d="M0,2.345L4.691,2.345L2.345,0L0,2.345Z" style="fill:white;fill-rule:nonzero;"></path> </g> <g transform="matrix(-4.16667,0,0,4.16667,1104.95,-1993.11)"> <rect x="113.386" y="553.547" width="149.086" height="14.173" style="fill:rgb(121,204,198);"></rect> </g> <g transform="matrix(4.16667,0,0,4.16667,-461.129,-829.042)"> <text x="141.896px" y="215.485px" style="font-family:'Arial-BoldMT', 'Arial', sans-serif;font-weight:700;font-size:13px;fill:white;">Ho<tspan x="159.025px 166.155px 173.996px 181.126px 188.256px 196.097px 203.938px 207.45px 212.409px 219.539px 223.051px " y="215.485px 215.485px 215.485px 215.485px 215.485px 215.485px 215.485px 215.485px 215.485px 215.485px 215.485px ">chschulreif</tspan>e</text> </g> <g transform="matrix(4.16667,0,0,4.16667,-461.129,-829.042)"> <text x="179.604px" y="261.99px" style="font-family:'Arial-BoldMT', 'Arial', sans-serif;font-weight:700;font-size:13px;fill:rgb(42,44,104);">B<tspan x="188.418px " y="261.99px ">G</tspan></text> <text x="147.871px" y="283.69px" style="font-family:'ArialMT', 'Arial', sans-serif;font-size:9px;fill:white;">6<tspan x="153.297px 156.237px 161.158px 167.582px 174.502px 181.423px 187.846px 190.786px 193.707px 197.489px 203.913px 210.336px 216.76px 223.681px " y="283.69px 283.69px 283.69px 283.69px 283.69px 283.69px 283.69px 283.69px 283.69px 283.69px 283.69px 283.69px 283.69px 283.69px "> JAHRE / YEARS</tspan></text> </g> <g transform="matrix(4.16667,0,0,4.16667,-461.129,-829.042)"> <text x="146.371px" y="320.731px" style="font-family:'Arial-BoldMT', 'Arial', sans-serif;font-weight:700;font-size:13px;fill:rgb(41,44,104);">M<tspan x="157.41px 161.233px 165.773px 170.313px 174.135px 181.576px 186.846px " y="320.731px 320.731px 320.731px 320.731px 320.731px 320.731px 320.731px ">ittlere</tspan></text> <text x="198.865px" y="320.731px" style="font-family:'Arial-BoldMT', 'Arial', sans-serif;font-weight:700;font-size:13px;fill:rgb(41,44,104);">R<tspan x="208.463px 215.904px 219.727px 224.267px " y="320.731px 320.731px 320.731px 320.731px ">eife</tspan></text> <text x="115.151px" y="336.331px" style="font-family:'Arial-BoldMT', 'Arial', sans-serif;font-weight:700;font-size:13px;fill:white;">In<tspan x="126.84px 131.237px 138.535px 143.662px 155.289px 162.586px 170.595px 174.275px 181.573px " y="336.331px 336.331px 336.331px 336.331px 336.331px 336.331px 336.331px 336.331px 336.331px ">termediat</tspan>e</text> <text x="198.468px" y="336.331px" style="font-family:'Arial-BoldMT', 'Arial', sans-serif;font-weight:700;font-size:13px;fill:white;">se<tspan x="213.064px 220.362px 228.371px 236.379px 244.388px 251.686px 256.813px " y="336.331px 336.331px 336.331px 336.331px 336.331px 336.331px 336.331px ">condary</tspan></text> <text x="144.355px" y="351.931px" style="font-family:'Arial-BoldMT', 'Arial', sans-serif;font-weight:700;font-size:13px;fill:white;">s<tspan x="151.461px 158.567px 166.384px 174.201px 182.018px " y="351.931px 351.931px 351.931px 351.931px 351.931px ">chool</tspan></text> <text x="187.736px" y="351.931px" style="font-family:'Arial-BoldMT', 'Arial', sans-serif;font-weight:700;font-size:13px;fill:white;">l<tspan x="191.224px 198.33px 205.436px 212.542px 216.029px 223.846px " y="351.931px 351.931px 351.931px 351.931px 351.931px 351.931px ">eaving</tspan></text> <text x="156.926px" y="367.531px" style="font-family:'Arial-BoldMT', 'Arial', sans-serif;font-weight:700;font-size:13px;fill:white;">c<tspan x="164.286px 171.645px 176.833px 181.292px 185.033px 193.104px 200.463px 207.822px 212.281px " y="367.531px 367.531px 367.531px 367.531px 367.531px 367.531px 367.531px 367.531px 367.531px ">ertiﬁcate</tspan></text> </g> <g transform="matrix(-4.16667,0,0,4.16667,1107.45,-2127.47)"> <rect x="113.686" y="553.63" width="149.088" height="46.253" style="fill:none;stroke:rgb(42,44,104);stroke-width:0.6px;"></rect> </g> <g transform="matrix(4.16667,0,0,4.16667,31.0669,160.526)"> <path d="M0,2.345L4.691,2.345L2.345,0L0,2.345Z" style="fill:white;fill-rule:nonzero;"></path> </g> <g transform="matrix(4.16667,0,0,4.16667,31.0669,380.998)"> <path d="M0,2.345L4.691,2.345L2.345,0L0,2.345Z" style="fill:white;fill-rule:nonzero;"></path> </g> </svg> 