<?xml version="1.0" encoding="utf-8"?>
<!-- Generator: Adobe Illustrator 26.2.1, SVG Export Plug-In . SVG Version: 6.00 Build 0)  -->
<svg version="1.1" id="Ebene_1" xmlns="http://www.w3.org/2000/svg" xmlns:xlink="http://www.w3.org/1999/xlink" x="0px" y="0px"
	 viewBox="0 0 1000 825.44" style="enable-background:new 0 0 1000 825.44;" xml:space="preserve">
<style type="text/css">
	.st0{fill:#A2B9E1;}
	.st1{fill:#6796CF;}
	.st2{clip-path:url(#SVGID_00000087400178484675342850000002976194074369092784_);}
	.st3{fill:#2B2961;}
	.st4{fill:#FFFFFF;}
	.st5{clip-path:url(#SVGID_00000163779922864847035940000008230089438004390834_);}
	.st6{clip-path:url(#SVGID_00000041296878358559453190000000560027530739282599_);}
	.st7{clip-path:url(#SVGID_00000010289181053708413220000009125616954952095134_);}
	.st8{clip-path:url(#SVGID_00000101061378075152010910000001112540048734462889_);}
	.st9{clip-path:url(#SVGID_00000134208390198565316150000000546320449828775355_);}
	.st10{opacity:0.52;clip-path:url(#SVGID_00000077305310616716138490000005205943881040443033_);}
	.st11{clip-path:url(#SVGID_00000163757171045690395600000016510946466468369542_);}
	.st12{clip-path:url(#SVGID_00000014608330526137997340000001507573504975500211_);}
	.st13{clip-path:url(#SVGID_00000003100810645472792250000006017373708790059650_);}
	.st14{clip-path:url(#SVGID_00000162350912923069784690000006508524463390858932_);}
	.st15{clip-path:url(#SVGID_00000170274725304499016100000014740253375409685417_);}
	.st16{clip-path:url(#SVGID_00000060008715890189117070000001250772553529286281_);}
	.st17{clip-path:url(#SVGID_00000084516884419404658810000009151085217666362272_);}
	.st18{clip-path:url(#SVGID_00000076596352060844632680000004780724361453089939_);}
	.st19{clip-path:url(#SVGID_00000088837396434008905020000017331455614598396553_);}
	.st20{clip-path:url(#SVGID_00000163775190286615112360000002952226160819579558_);}
	.st21{clip-path:url(#SVGID_00000102529858500198482370000009018193792120343434_);}
	.st22{clip-path:url(#SVGID_00000039122020412165735600000000304635972575153802_);}
	.st23{fill:none;stroke:#2B2961;stroke-width:0.374;stroke-linejoin:round;stroke-miterlimit:10;}
	.st24{fill:none;stroke:#2B2961;stroke-width:0.4;stroke-miterlimit:10;}
	.st25{clip-path:url(#SVGID_00000079480748301188021570000011484116069536661162_);}
	.st26{clip-path:url(#SVGID_00000042005920410160408960000005615388374636265907_);}
	.st27{clip-path:url(#SVGID_00000096030528801492919840000008169802423066003616_);}
	.st28{clip-path:url(#SVGID_00000086691667658260051550000002774257932142550149_);}
	.st29{clip-path:url(#SVGID_00000047053786105995636230000000272977579243814325_);}
	.st30{clip-path:url(#SVGID_00000158723733257292995580000006224828499852030374_);}
	.st31{clip-path:url(#SVGID_00000121990973489897244170000006352746756530678420_);}
	.st32{clip-path:url(#SVGID_00000160890175826556800340000001696070717872263318_);}
	.st33{clip-path:url(#SVGID_00000177472044439551628180000002683934010989037478_);}
	.st34{clip-path:url(#SVGID_00000007401819475036830680000008785553413743757477_);}
	.st35{clip-path:url(#SVGID_00000030470780656778598570000017566513503013336511_);}
	.st36{clip-path:url(#SVGID_00000075865562201075512000000004945013207716830854_);}
	.st37{clip-path:url(#SVGID_00000157998096479034527710000000561349617641004423_);}
	.st38{clip-path:url(#SVGID_00000026846411557682781210000009149306062704487588_);}
	.st39{clip-path:url(#SVGID_00000163044675404803163080000001705152571222492305_);}
	.st40{clip-path:url(#SVGID_00000087378067420103385770000001820625037947079858_);}
	.st41{clip-path:url(#SVGID_00000157990016182286006670000009092320609188422294_);}
	.st42{clip-path:url(#SVGID_00000065797237926397741440000009045922172143156114_);}
	.st43{clip-path:url(#SVGID_00000034787646174483876090000008991768010687317641_);}
	.st44{clip-path:url(#SVGID_00000057840020877182148380000014865213570033191341_);}
	.st45{clip-path:url(#SVGID_00000088134651539794763950000008000491503645931175_);}
	.st46{clip-path:url(#SVGID_00000029011553144452697180000009531648628372466318_);}
	.st47{clip-path:url(#SVGID_00000116950651449138455360000002457095600167582871_);}
	.st48{clip-path:url(#SVGID_00000003093910902391193660000001017622923523302833_);}
	.st49{clip-path:url(#SVGID_00000019648000203017660720000001946801294363864753_);}
	.st50{clip-path:url(#SVGID_00000048462464724764035070000009734508640343646106_);}
	.st51{clip-path:url(#SVGID_00000058585525126213487530000005411659677738965903_);}
	.st52{clip-path:url(#SVGID_00000015351925544982115070000004954672913088776116_);}
	.st53{clip-path:url(#SVGID_00000098201593775178512690000003996060191769373319_);}
	.st54{clip-path:url(#SVGID_00000139978963648229447270000011685153581661305994_);}
	.st55{clip-path:url(#SVGID_00000021836418696070465440000003305999888594787750_);}
	.st56{clip-path:url(#SVGID_00000156584431192072499300000008848277896840703387_);}
	.st57{clip-path:url(#SVGID_00000121246391599375015430000004634454238037726633_);}
	.st58{clip-path:url(#SVGID_00000164485495193584861100000011298874012177812387_);}
	.st59{clip-path:url(#SVGID_00000106116993091610971840000002329086501175623600_);}
	.st60{clip-path:url(#SVGID_00000119078422646911389000000013770224635596674746_);}
	.st61{clip-path:url(#SVGID_00000045621015467537624180000011393872317941524889_);}
	.st62{fill:#9AB4DE;}
	.st63{clip-path:url(#SVGID_00000119081802987823709470000013334196322419654795_);}
	.st64{clip-path:url(#SVGID_00000042724715579930927140000017686210126902147243_);}
	.st65{clip-path:url(#SVGID_00000109750084407386264700000011584201328524227973_);}
	.st66{fill:#B9C9E9;}
	.st67{clip-path:url(#SVGID_00000163050920865292670530000011194996392936986524_);}
	.st68{clip-path:url(#SVGID_00000021089328799918509660000002739183949723449220_);}
	.st69{clip-path:url(#SVGID_00000020392989604639316980000010705883226095058857_);}
	.st70{clip-path:url(#SVGID_00000064323866012391938750000013164297193829511298_);}
	.st71{clip-path:url(#SVGID_00000111162003198578016250000007765672013113353910_);}
	.st72{clip-path:url(#SVGID_00000056405941638967918690000015107759187208768918_);}
	.st73{clip-path:url(#SVGID_00000010272901495530218630000008450021128238213282_);}
	.st74{clip-path:url(#SVGID_00000060738456596390197840000011197265174901590700_);}
	.st75{clip-path:url(#SVGID_00000096044491389345481560000017050046572706038949_);}
	.st76{clip-path:url(#SVGID_00000178925958537904320730000005417796060251538816_);}
	.st77{clip-path:url(#SVGID_00000169530074099353809100000008590823806916305560_);}
	.st78{clip-path:url(#SVGID_00000135686426316808898690000006612750124780585906_);}
	.st79{clip-path:url(#SVGID_00000059281025727039088690000007878084460196719005_);}
	.st80{clip-path:url(#SVGID_00000162328129643494277560000005860174243872969630_);}
	.st81{clip-path:url(#SVGID_00000140702911453356834310000012247671811891636624_);}
	.st82{clip-path:url(#SVGID_00000155846882421270346050000008876086763957846183_);}
	.st83{clip-path:url(#SVGID_00000093151643011744475290000009577552752572024985_);}
	.st84{clip-path:url(#SVGID_00000018216712755492762110000005873067632664018876_);}
	.st85{clip-path:url(#SVGID_00000088848968727705266440000002685325178739703458_);}
	.st86{clip-path:url(#SVGID_00000062884473212484853120000000655192503406177198_);}
	.st87{clip-path:url(#SVGID_00000076580871155143725710000000283612906849464479_);}
	.st88{clip-path:url(#SVGID_00000026880129153906766110000008031512842903903904_);}
	.st89{clip-path:url(#SVGID_00000172403665393313950850000000682744779135861145_);}
	.st90{clip-path:url(#SVGID_00000057138556888513106530000013787015698030269870_);}
	.st91{clip-path:url(#SVGID_00000041989848869047307380000004806356067710141081_);}
	.st92{clip-path:url(#SVGID_00000111891866170459248920000013657704368815281830_);}
	.st93{clip-path:url(#SVGID_00000103949103172998986560000003576890052611350165_);}
	.st94{clip-path:url(#SVGID_00000022559395615262116990000001058236837627617468_);}
	.st95{clip-path:url(#SVGID_00000134230552586771292590000003882611408632586133_);}
	.st96{clip-path:url(#SVGID_00000139985105276169811400000003062236312635099277_);}
	.st97{clip-path:url(#SVGID_00000101092723839616025610000009335744134737371288_);}
	.st98{clip-path:url(#SVGID_00000000905870684746190780000006433860928374696585_);}
	.st99{clip-path:url(#SVGID_00000089538157046564186710000016562781035300672433_);}
	.st100{clip-path:url(#SVGID_00000052083746833661938830000008287066221318603180_);}
	.st101{clip-path:url(#SVGID_00000135660001775372653140000002015486626359128987_);}
	.st102{clip-path:url(#SVGID_00000016754955714426974440000004407629196738327961_);}
	.st103{clip-path:url(#SVGID_00000117661988660411395610000012026392737989098941_);}
	.st104{clip-path:url(#SVGID_00000010308963112173508220000007120901290802904249_);}
	.st105{clip-path:url(#SVGID_00000126304375788868642000000007602361881267874994_);}
	.st106{clip-path:url(#SVGID_00000124129558193534667720000007679725791379575736_);}
	.st107{clip-path:url(#SVGID_00000079477118106588335300000007504085987372572078_);}
	.st108{clip-path:url(#SVGID_00000043417654705891572110000015695054078254852507_);}
	.st109{clip-path:url(#SVGID_00000099654095069654619680000004309105491579491208_);}
	.st110{clip-path:url(#SVGID_00000172442308537562891510000011423901809965626262_);}
	.st111{clip-path:url(#SVGID_00000070104970150073443490000000606380433606752918_);}
	.st112{clip-path:url(#SVGID_00000067929716687917852570000010063424088021672833_);}
	.st113{clip-path:url(#SVGID_00000163765273064233986380000010421504339680042887_);}
	.st114{clip-path:url(#SVGID_00000017507944137490757970000002623023461203591067_);}
	.st115{clip-path:url(#SVGID_00000157310246472155687510000011150141425659649201_);}
	.st116{clip-path:url(#SVGID_00000152225777522452014150000013848152556282115502_);}
	.st117{clip-path:url(#SVGID_00000060008021144858429670000005242522477018794162_);}
	.st118{clip-path:url(#SVGID_00000070086537251442539520000014827806723512719267_);}
	.st119{clip-path:url(#SVGID_00000168075242761392243270000011035581406003508137_);}
	.st120{clip-path:url(#SVGID_00000013878175835461192300000015580809707135424429_);}
	.st121{clip-path:url(#SVGID_00000002363841180877332300000014553790354795490746_);}
	.st122{clip-path:url(#SVGID_00000053503142475063106600000017691650305620315314_);}
	.st123{clip-path:url(#SVGID_00000119818756992028361560000002292211771376268956_);}
	.st124{clip-path:url(#SVGID_00000037650851312562863330000005738619959290867889_);}
	.st125{clip-path:url(#SVGID_00000008140918280092404680000010635808387999812267_);}
	.st126{clip-path:url(#SVGID_00000096040117088741211700000007440180296679067531_);}
	.st127{clip-path:url(#SVGID_00000071528886271000520580000009916750288506071978_);}
	.st128{clip-path:url(#SVGID_00000052814784626667366550000015023741447964762027_);}
	.st129{clip-path:url(#SVGID_00000132050181707715028180000003288171735604662969_);}
	.st130{clip-path:url(#SVGID_00000013188990484179836090000000289909851181828282_);}
	.st131{clip-path:url(#SVGID_00000159455849389730947150000000928825088115680664_);}
	.st132{clip-path:url(#SVGID_00000035517360807876701960000007794000849001946263_);}
	.st133{clip-path:url(#SVGID_00000137133383560531702680000003184499940971716789_);}
	.st134{clip-path:url(#SVGID_00000040533669200318060720000005088560642804681344_);}
	.st135{clip-path:url(#SVGID_00000048499703533931263640000002589264114846959248_);}
	.st136{clip-path:url(#SVGID_00000052783214700709964270000001415262659043925396_);}
	.st137{clip-path:url(#SVGID_00000078038345969299472650000008717980576672214950_);}
	.st138{clip-path:url(#SVGID_00000147188623044203013740000007341624919108946565_);}
	.st139{clip-path:url(#SVGID_00000176749962718450931770000003435987523791842451_);}
	.st140{clip-path:url(#SVGID_00000016776081957821739620000000573020324723342989_);}
	.st141{clip-path:url(#SVGID_00000030455100966988265510000006905732535139667135_);}
	.st142{clip-path:url(#SVGID_00000072268570913560388110000016475140961985431938_);}
	.st143{clip-path:url(#SVGID_00000115487101737610792340000006474727288543059332_);}
	.st144{clip-path:url(#SVGID_00000103976741907775730300000000782775849201110913_);}
	.st145{clip-path:url(#SVGID_00000015315916230806711960000006497073681995770764_);}
	.st146{clip-path:url(#SVGID_00000117660406147540911760000011632225146381317024_);}
	.st147{clip-path:url(#SVGID_00000066486577789609157830000000557717638421989521_);}
	.st148{clip-path:url(#SVGID_00000163055747252258848200000008001402446791791278_);}
	.st149{clip-path:url(#SVGID_00000127752562505324558520000014506672540756355765_);}
	.st150{clip-path:url(#SVGID_00000137850149027521825840000016438129302942513573_);}
	.st151{clip-path:url(#SVGID_00000008136926562858134800000003892178699139340945_);}
	.st152{clip-path:url(#SVGID_00000178905504594894001920000010309915481006191028_);}
	.st153{clip-path:url(#SVGID_00000176020776665092975810000005483371550672090025_);}
	.st154{clip-path:url(#SVGID_00000077311009489472481160000010638974120672201092_);}
	.st155{clip-path:url(#SVGID_00000132799296382965343620000002137890112814526906_);}
	.st156{clip-path:url(#SVGID_00000094615666771723343920000006869229528736839042_);}
	.st157{clip-path:url(#SVGID_00000017489134509513457120000012799977089009574313_);}
	.st158{clip-path:url(#SVGID_00000011032390942539683240000004015425448283525020_);}
	.st159{clip-path:url(#SVGID_00000104694592097034567120000003261283686533714860_);}
	.st160{clip-path:url(#SVGID_00000118357452090726293920000016319108326230557072_);}
	.st161{clip-path:url(#SVGID_00000056400350593871171170000015953394656115010451_);}
	.st162{clip-path:url(#SVGID_00000096060917208300015770000014110677682484364186_);}
	.st163{clip-path:url(#SVGID_00000112620868206781934290000007363832130795681202_);}
	.st164{clip-path:url(#SVGID_00000023267187404578359380000014443996125508696723_);}
	.st165{clip-path:url(#SVGID_00000096035650643173161790000013174034739289347721_);}
	.st166{clip-path:url(#SVGID_00000145738851961411742080000006513591093941446289_);}
	.st167{clip-path:url(#SVGID_00000056415644183678857300000009589699733343165341_);}
	.st168{clip-path:url(#SVGID_00000050655878962144354530000010915435426596016013_);}
	.st169{clip-path:url(#SVGID_00000158709354335616962370000012264208517932650169_);}
	.st170{clip-path:url(#SVGID_00000100385114481231506130000002792857387495857060_);}
	.st171{clip-path:url(#SVGID_00000034083343883137027590000001680157362636954543_);}
	.st172{clip-path:url(#SVGID_00000129206962766235383790000001444093048979272881_);}
	.st173{clip-path:url(#SVGID_00000087399674629397981720000018412671188137973640_);}
	.st174{clip-path:url(#SVGID_00000138572238307917143140000003720982075961609865_);}
	.st175{clip-path:url(#SVGID_00000083066843451816442810000008882660272832981175_);}
	.st176{clip-path:url(#SVGID_00000106138520339356242060000015894043273525393820_);}
	.st177{clip-path:url(#SVGID_00000173850895164236153330000008775959170608845703_);}
	.st178{clip-path:url(#SVGID_00000035520233670488977450000002202997995218566785_);}
	.st179{clip-path:url(#SVGID_00000114069095644188443130000006426705295936665999_);}
	.st180{clip-path:url(#SVGID_00000158731427969232497700000010716979881038858686_);}
	.st181{clip-path:url(#SVGID_00000104678775709260451450000012648626303936930237_);}
	.st182{clip-path:url(#SVGID_00000111177614566053693080000013223234425120110485_);}
	.st183{clip-path:url(#SVGID_00000176722431002894622670000007972522138926952330_);}
	.st184{clip-path:url(#SVGID_00000026164081712196218660000014835362270297974415_);}
	.st185{clip-path:url(#SVGID_00000178916327738332923380000009136034165835212461_);}
	.st186{clip-path:url(#SVGID_00000041986475269104301820000010467725954826891149_);}
	.st187{clip-path:url(#SVGID_00000003799841595279569700000002751698796574491017_);}
	.st188{clip-path:url(#SVGID_00000087404635519464039430000017516316679840776322_);}
	.st189{clip-path:url(#SVGID_00000057838987865282216890000011039093945211210631_);}
	.st190{clip-path:url(#SVGID_00000165936699197096123730000017908558145924926895_);}
	.st191{clip-path:url(#SVGID_00000024702882265157970510000006995903706282130616_);}
	.st192{clip-path:url(#SVGID_00000062173233892491320960000013992980698722803883_);}
	.st193{clip-path:url(#SVGID_00000134239277974998577350000007614131223503366309_);}
	.st194{clip-path:url(#SVGID_00000073681080626024757450000008830527599476927151_);}
	.st195{clip-path:url(#SVGID_00000067949663675481209150000017938208614052360589_);}
	.st196{clip-path:url(#SVGID_00000183941162363992967310000006536710993279583884_);}
	.st197{clip-path:url(#SVGID_00000178902552672646444770000010115463795830769538_);}
	.st198{clip-path:url(#SVGID_00000021116279152704938780000010664159455877100458_);}
	.st199{clip-path:url(#SVGID_00000034068407063684643310000010758926510244762264_);}
	.st200{clip-path:url(#SVGID_00000152265035842773583250000006641911093889786259_);}
	.st201{clip-path:url(#SVGID_00000047050446547198197930000011864931718709862796_);}
	.st202{clip-path:url(#SVGID_00000155834893078567275560000016755654972410352283_);}
	.st203{clip-path:url(#SVGID_00000138540732938119608170000011958889158503340180_);}
	.st204{clip-path:url(#SVGID_00000090984722924559229740000014736268355042476730_);}
	.st205{clip-path:url(#SVGID_00000181084958711356723230000011024989423187746460_);}
	.st206{clip-path:url(#SVGID_00000043423313028393189770000016020929256961757333_);}
	.st207{clip-path:url(#SVGID_00000134217357728735479710000015513207514719764669_);}
	.st208{clip-path:url(#SVGID_00000106853810176379680290000001016914820534376345_);}
	.st209{clip-path:url(#SVGID_00000031928637748036493390000003541451226720807042_);}
	.st210{clip-path:url(#SVGID_00000026156097865330161310000001707004051955777933_);}
	.st211{clip-path:url(#SVGID_00000042002300897740057090000016367841859250103944_);}
	.st212{clip-path:url(#SVGID_00000062879248745231673980000008253580278369772713_);}
	.st213{clip-path:url(#SVGID_00000158742902780176170440000006101825901462393988_);}
	.st214{clip-path:url(#SVGID_00000093152807263557103220000012005698948783566522_);}
	.st215{clip-path:url(#SVGID_00000016056034028556827780000015841206908970408591_);}
	.st216{clip-path:url(#SVGID_00000151521622724346060770000015089601933459361679_);}
	.st217{clip-path:url(#SVGID_00000010310506110211351310000006160248908501576347_);}
	.st218{clip-path:url(#SVGID_00000178170483035264014300000011849350714325601935_);}
	.st219{clip-path:url(#SVGID_00000000917541146553089460000006496369031358559149_);}
	.st220{clip-path:url(#SVGID_00000085225060404437671770000002434520641402848405_);}
	.st221{clip-path:url(#SVGID_00000009554658159650678880000012116427012926609312_);}
	.st222{clip-path:url(#SVGID_00000061448133468069807890000004285123010193241493_);}
	.st223{clip-path:url(#SVGID_00000003080051156124624510000016162169178321501579_);}
	.st224{clip-path:url(#SVGID_00000032609684166731727610000004813294682898415541_);}
	.st225{clip-path:url(#SVGID_00000142873308262730447790000002111474843190980501_);}
	.st226{clip-path:url(#SVGID_00000054946255442875908450000007771925923662073735_);}
	.st227{clip-path:url(#SVGID_00000091008275324507915760000015791561011084341174_);}
	.st228{clip-path:url(#SVGID_00000052090751791693333540000014135184345133947327_);}
	.st229{clip-path:url(#SVGID_00000011002278846170680510000011125933570390258621_);}
	.st230{clip-path:url(#SVGID_00000078037666538499741260000015353784643880814727_);}
	.st231{clip-path:url(#SVGID_00000165228372382862847510000011400022030128148617_);}
	.st232{clip-path:url(#SVGID_00000053519865194921847300000000601554555605854340_);}
	.st233{clip-path:url(#SVGID_00000037668282720735709230000014458923615718205084_);}
	.st234{clip-path:url(#SVGID_00000154416882475824981570000010752721733406594434_);}
	.st235{clip-path:url(#SVGID_00000073697439362770704530000002849103349375845546_);}
	.st236{clip-path:url(#SVGID_00000070089240698836926260000003469579580968643772_);}
	.st237{clip-path:url(#SVGID_00000035490679596662101660000007680091510680280238_);}
	.st238{clip-path:url(#SVGID_00000170241517979310117710000005355855431715750022_);}
	.st239{clip-path:url(#SVGID_00000152976181313658622840000017914734611850125731_);}
	.st240{clip-path:url(#SVGID_00000059295996545402902050000014961765936758419133_);}
	.st241{clip-path:url(#SVGID_00000023973796118656962690000013100288339312340413_);}
	.st242{clip-path:url(#SVGID_00000073723054046979315340000002195923758266476682_);}
	.st243{clip-path:url(#SVGID_00000178185091169397882990000011528930442430211713_);}
	.st244{clip-path:url(#SVGID_00000108289864501005365800000005380794432464307126_);}
	.st245{clip-path:url(#SVGID_00000013909236180950369750000007182806598403512981_);}
	.st246{clip-path:url(#SVGID_00000165951114360218796210000009239504598528292501_);}
	.st247{clip-path:url(#SVGID_00000156573068807027678020000002499898504870704314_);}
	.st248{clip-path:url(#SVGID_00000008857571814384722290000014394657852094698891_);}
	.st249{clip-path:url(#SVGID_00000132773764208468251280000012985592373628450482_);}
	.st250{clip-path:url(#SVGID_00000032637326573782117910000008187659873814517394_);}
	.st251{clip-path:url(#SVGID_00000100376323174228188710000008958104923994160292_);}
	.st252{clip-path:url(#SVGID_00000084516132050394461230000002664349343377948544_);}
	.st253{clip-path:url(#SVGID_00000098925077635608587850000016640540295989067447_);}
	.st254{clip-path:url(#SVGID_00000093141466290572064560000002606614244233266586_);}
	.st255{clip-path:url(#SVGID_00000125598612392470457410000005064621614356708024_);}
	.st256{clip-path:url(#SVGID_00000013168082811219692160000004082187933802197901_);}
	.st257{clip-path:url(#SVGID_00000098216698892939017070000013363371157823194503_);}
	.st258{clip-path:url(#SVGID_00000066476726860762882700000012398712726068146879_);}
	.st259{clip-path:url(#SVGID_00000036217920534385514860000000965867885432808876_);}
	.st260{clip-path:url(#SVGID_00000149348428856776762620000005083212729548263084_);}
	.st261{clip-path:url(#SVGID_00000072963196575513591950000009632258767396376713_);}
	.st262{clip-path:url(#SVGID_00000009561240240152754070000002881948102067505024_);}
	.st263{clip-path:url(#SVGID_00000144308240919029540580000015354343689398501019_);}
	.st264{clip-path:url(#SVGID_00000044896889925431536920000005110589289889469579_);}
	.st265{clip-path:url(#SVGID_00000183965726225658924130000012740461092581624220_);}
	.st266{clip-path:url(#SVGID_00000048479348098805760250000014450262854061354934_);}
	.st267{clip-path:url(#SVGID_00000145032098812360669410000007197826794624147072_);}
	.st268{clip-path:url(#SVGID_00000097482287691240369710000000074733210358205572_);}
	.st269{clip-path:url(#SVGID_00000084519810031285778650000008842771318875258762_);}
	.st270{clip-path:url(#SVGID_00000142887546982969753470000015020621443076067498_);}
	.st271{clip-path:url(#SVGID_00000168830702386224716730000015379797495686185860_);}
	.st272{clip-path:url(#SVGID_00000161623852568358584850000008472293109760341635_);}
	.st273{clip-path:url(#SVGID_00000173122313836586055200000011409879944318733451_);}
	.st274{clip-path:url(#SVGID_00000040562134749473997720000010584410729019204532_);}
	.st275{clip-path:url(#SVGID_00000023257724104766378590000010532087560016368800_);}
	.st276{clip-path:url(#SVGID_00000150808376281820627750000011999704530541284755_);}
	.st277{clip-path:url(#SVGID_00000004521822685832954620000009855076801434832274_);}
	.st278{clip-path:url(#SVGID_00000065057164004665959460000001213950734463165106_);}
	.st279{clip-path:url(#SVGID_00000037676752156833161330000009084059203948385685_);}
	.st280{clip-path:url(#SVGID_00000003095057321246209660000013165944166778399369_);}
	.st281{clip-path:url(#SVGID_00000169546105873402193120000003108601680834238610_);}
	.st282{clip-path:url(#SVGID_00000091734830465183680150000017642803081800795543_);}
	.st283{clip-path:url(#SVGID_00000057148727091775843600000006567228008549355699_);}
	.st284{clip-path:url(#SVGID_00000066479295027087708630000000614156200398819255_);}
	.st285{clip-path:url(#SVGID_00000174570255288769479620000016941128774314788245_);}
	.st286{clip-path:url(#SVGID_00000092458366730833673200000016685731752767338662_);}
	.st287{clip-path:url(#SVGID_00000093859698796338751250000008060932604559993234_);}
	.st288{clip-path:url(#SVGID_00000001639899102798774460000004760840191504432062_);}
	.st289{clip-path:url(#SVGID_00000111171932581689389180000000339653529846246792_);}
	.st290{clip-path:url(#SVGID_00000004504158269692084540000015878916016289885856_);}
	.st291{clip-path:url(#SVGID_00000093155489877984720590000012623924519906923905_);}
	.st292{clip-path:url(#SVGID_00000157297587157340778510000014108859536189223079_);}
	.st293{clip-path:url(#SVGID_00000103975045845394411140000005047039628233102507_);}
	.st294{clip-path:url(#SVGID_00000096765020723853230850000002812967029798218424_);}
	.st295{clip-path:url(#SVGID_00000024719765995519413460000018352004985275504792_);}
	.st296{clip-path:url(#SVGID_00000127740725549791503300000016046522232589855372_);}
	.st297{clip-path:url(#SVGID_00000145042432587223791200000016471375473692179076_);}
	.st298{clip-path:url(#SVGID_00000038410730755916975320000007643610600912217752_);}
	.st299{clip-path:url(#SVGID_00000077291592203684685070000001682825604491600318_);}
	.st300{clip-path:url(#SVGID_00000023282571655355644240000015297737265213232293_);}
	.st301{clip-path:url(#SVGID_00000057845994670945506480000001763197829970877616_);}
	.st302{clip-path:url(#SVGID_00000103987228455836379950000001275206018414207377_);}
	.st303{clip-path:url(#SVGID_00000060000878228079560360000012312733933562987906_);}
	.st304{clip-path:url(#SVGID_00000036934355471962493130000014823552847696785069_);}
	.st305{clip-path:url(#SVGID_00000127025944006958088170000003668449268067451275_);}
	.st306{clip-path:url(#SVGID_00000074427254430148478670000009057625557563221150_);}
	.st307{clip-path:url(#SVGID_00000020357165657647670450000004574195559670373019_);}
	.st308{clip-path:url(#SVGID_00000143592210786352344080000006923667104579581090_);}
	.st309{clip-path:url(#SVGID_00000088121581436239921720000000811028675826088338_);}
	.st310{clip-path:url(#SVGID_00000123404639071911224010000016271035202237922221_);}
	.st311{clip-path:url(#SVGID_00000044880616617873387240000005952956600470078125_);}
	.st312{clip-path:url(#SVGID_00000079446605717497891290000014754857716346963116_);}
	.st313{clip-path:url(#SVGID_00000075145385684334586220000009177340228578591369_);}
	.st314{clip-path:url(#SVGID_00000155826125226488442170000016788901775604071089_);}
	.st315{clip-path:url(#SVGID_00000001648391273425113910000000592262979262411904_);}
	.st316{clip-path:url(#SVGID_00000013176704750367116520000005072035627803608193_);}
	.st317{clip-path:url(#SVGID_00000015340087077547874180000014484945645229080196_);}
	.st318{clip-path:url(#SVGID_00000098208490567210136840000010913295495739636622_);}
	.st319{clip-path:url(#SVGID_00000007413988618885288160000006043338030939990432_);}
	.st320{clip-path:url(#SVGID_00000106133247384815351930000016016911844110318491_);}
	.st321{clip-path:url(#SVGID_00000016033001937823925580000002618191585116465047_);}
	.st322{clip-path:url(#SVGID_00000176736877213488053690000008197877854685708939_);}
	.st323{clip-path:url(#SVGID_00000029026744821401047510000009495834362365060998_);}
	.st324{clip-path:url(#SVGID_00000116235069005197718310000001822193886509649075_);}
	.st325{clip-path:url(#SVGID_00000143580348830512944750000009958005562061254021_);}
	.st326{clip-path:url(#SVGID_00000042722382486042209790000004232946686456316818_);}
	.st327{clip-path:url(#SVGID_00000087374447045937370870000007039357114558406074_);}
	.st328{clip-path:url(#SVGID_00000155849746908842109410000002439354469041555852_);}
	.st329{clip-path:url(#SVGID_00000048492055990544057960000007029893462923813295_);}
	.st330{clip-path:url(#SVGID_00000043422239821775570100000009833602085019202493_);}
	.st331{clip-path:url(#SVGID_00000010296215248950619080000013110854363413195443_);}
	.st332{clip-path:url(#SVGID_00000076604489869554102100000006862716612294938799_);}
	.st333{clip-path:url(#SVGID_00000178202777027492886990000000108701337578605185_);}
	.st334{clip-path:url(#SVGID_00000160902170030234546850000007944810603357202575_);}
	.st335{clip-path:url(#SVGID_00000039855205565483555640000009986270664993907865_);}
	.st336{clip-path:url(#SVGID_00000102526826920253892480000006106221322992202918_);}
	.st337{clip-path:url(#SVGID_00000029747515090875519740000010967311707543954335_);}
	.st338{clip-path:url(#SVGID_00000040547201509814760940000015472698968250751421_);}
	.st339{clip-path:url(#SVGID_00000166656903008649270840000010089015168515277235_);}
	.st340{clip-path:url(#SVGID_00000053533766833214447230000009766441789486965396_);}
	.st341{clip-path:url(#SVGID_00000047781565613334823730000000301376494940308878_);}
	.st342{clip-path:url(#SVGID_00000036947063711807210130000006276917667157618094_);}
	.st343{clip-path:url(#SVGID_00000081610945592124286390000002124508980773861806_);}
	.st344{clip-path:url(#SVGID_00000108308296187923179840000017198868941080840633_);}
	.st345{clip-path:url(#SVGID_00000032616857686452638350000015660280419546503333_);}
	.st346{clip-path:url(#SVGID_00000060000744027790049190000003692675904972388518_);}
	.st347{clip-path:url(#SVGID_00000080179890564994019610000015404096945414367126_);}
	.st348{clip-path:url(#SVGID_00000103245908508246067550000017605955134977304754_);}
	.st349{clip-path:url(#SVGID_00000019639033590672622620000002239576223603470990_);}
	.st350{clip-path:url(#SVGID_00000131360820554175169520000013158485326526662054_);}
	.st351{clip-path:url(#SVGID_00000008850812200890070380000005422521337423628945_);}
	.st352{clip-path:url(#SVGID_00000145022895669593137660000005188719897773745810_);}
	.st353{clip-path:url(#SVGID_00000121963585522585056610000000095630707855533240_);}
	.st354{clip-path:url(#SVGID_00000068637734744237778610000013649709792504423297_);}
	.st355{clip-path:url(#SVGID_00000054240928750599074360000010586655502887929995_);}
	.st356{clip-path:url(#SVGID_00000153692098590520022540000000794906159108407452_);}
	.st357{clip-path:url(#SVGID_00000092445728317221658970000004047459096256185267_);}
	.st358{clip-path:url(#SVGID_00000044882279280605954630000002350240259579652797_);}
	.st359{clip-path:url(#SVGID_00000034082217869682136890000017088488124686593207_);}
	.st360{clip-path:url(#SVGID_00000153673302893595765190000001984863198551005597_);}
	.st361{clip-path:url(#SVGID_00000165938743374764754640000015788551887977710761_);}
	.st362{clip-path:url(#SVGID_00000138542314434690863240000007400476756349770941_);}
	.st363{clip-path:url(#SVGID_00000127028413432795800510000009818330103160255656_);}
	.st364{clip-path:url(#SVGID_00000120516714160562296440000012065380281936693156_);}
	.st365{clip-path:url(#SVGID_00000050635080294664142800000012753593335518521236_);}
	.st366{clip-path:url(#SVGID_00000118393928091074042410000018129927416318611601_);}
	.st367{clip-path:url(#SVGID_00000080169981570141329490000000419497138593339790_);}
	.st368{clip-path:url(#SVGID_00000128457334809727778880000000240499212996876699_);}
	.st369{clip-path:url(#SVGID_00000102519060078354974330000011771477055744729497_);}
	.st370{clip-path:url(#SVGID_00000054970216554118166980000012645958028644842398_);}
	.st371{clip-path:url(#SVGID_00000175287800189013122060000004507129892747396241_);}
	.st372{clip-path:url(#SVGID_00000096020341897294936220000013468020502896697246_);}
	.st373{clip-path:url(#SVGID_00000152966298945397592800000014326220852659558045_);}
	.st374{clip-path:url(#SVGID_00000097492292872397425110000007878560781574222506_);}
	.st375{clip-path:url(#SVGID_00000008126406978988924890000014523853119492533639_);}
</style>
<g>
	<g>
		<g>
			<rect x="4.49" y="122.5" class="st0" width="48.54" height="692.84"/>
		</g>
	</g>
	<g>
		<g>
			<rect x="4.49" y="0" class="st1" width="992.7" height="116.88"/>
		</g>
	</g>
	<g>
		<g>
			<path class="st3" d="M997.19,819.82H1.68c-0.93,0-1.68-0.75-1.68-1.68V2.81c0-0.93,0.75-1.68,1.68-1.68h995.51
				c0.93,0,1.68,0.75,1.68,1.68v815.33C998.88,819.07,998.12,819.82,997.19,819.82z M3.37,816.45h992.14V4.5H3.37V816.45z"/>
		</g>
	</g>
	<g>
		<g>
			<rect x="4.49" y="118" class="st3" width="995.51" height="3.37"/>
		</g>
	</g>
	<g>
		<g>
			<rect x="3.09" y="348.95" class="st3" width="992.7" height="3.37"/>
		</g>
	</g>
	<g>
		<g>
			<rect x="3.09" y="232.07" class="st3" width="992.7" height="3.37"/>
		</g>
	</g>
	<g>
		<g>
			<rect x="3.09" y="463.01" class="st3" width="992.7" height="3.37"/>
		</g>
	</g>
	<g>
		<g>
			<rect x="3.09" y="585.51" class="st3" width="992.7" height="3.37"/>
		</g>
	</g>
	<g>
		<g>
			<rect x="3.09" y="702.39" class="st3" width="992.7" height="3.37"/>
		</g>
	</g>
	<g>
		<g>
			<polygon class="st4" points="20.73,755.15 36.8,755.15 28.77,744.52 			"/>
		</g>
	</g>
	<g>
		<g>
			<polygon class="st4" points="20.73,776.29 36.8,776.29 28.77,765.66 			"/>
		</g>
	</g>
	<g>
		<g>
			<polygon class="st4" points="20.73,797.42 36.8,797.42 28.77,786.79 			"/>
		</g>
	</g>
	<g>
		<g>
			<polygon class="st4" points="20.73,734.02 36.8,734.02 28.77,723.39 			"/>
		</g>
	</g>
	<g>
		<g>
			<polygon class="st4" points="20.73,639.68 36.8,639.68 28.77,629.05 			"/>
		</g>
	</g>
	<g>
		<g>
			<polygon class="st4" points="20.73,660.81 36.8,660.81 28.77,650.19 			"/>
		</g>
	</g>
	<g>
		<g>
			<polygon class="st4" points="20.73,681.95 36.8,681.95 28.77,671.32 			"/>
		</g>
	</g>
	<g>
		<g>
			<polygon class="st4" points="20.73,618.54 36.8,618.54 28.77,607.91 			"/>
		</g>
	</g>
	<g>
		<g>
			<polygon class="st4" points="20.73,519.99 36.8,519.99 28.77,509.36 			"/>
		</g>
	</g>
	<g>
		<g>
			<polygon class="st4" points="20.73,541.12 36.8,541.12 28.77,530.5 			"/>
		</g>
	</g>
	<g>
		<g>
			<polygon class="st4" points="20.73,562.26 36.8,562.26 28.77,551.63 			"/>
		</g>
	</g>
	<g>
		<g>
			<polygon class="st4" points="20.73,498.85 36.8,498.85 28.77,488.23 			"/>
		</g>
	</g>
	<g>
		<g>
			<polygon class="st4" points="20.73,401.71 36.8,401.71 28.77,391.08 			"/>
		</g>
	</g>
	<g>
		<g>
			<polygon class="st4" points="20.73,422.84 36.8,422.84 28.77,412.21 			"/>
		</g>
	</g>
	<g>
		<g>
			<polygon class="st4" points="20.73,443.98 36.8,443.98 28.77,433.35 			"/>
		</g>
	</g>
	<g>
		<g>
			<polygon class="st4" points="20.73,380.57 36.8,380.57 28.77,369.94 			"/>
		</g>
	</g>
	<g>
		<g>
			<polygon class="st4" points="20.73,286.24 36.8,286.24 28.77,275.61 			"/>
		</g>
	</g>
	<g>
		<g>
			<polygon class="st4" points="20.73,307.37 36.8,307.37 28.77,296.74 			"/>
		</g>
	</g>
	<g>
		<g>
			<polygon class="st4" points="20.73,328.51 36.8,328.51 28.77,317.88 			"/>
		</g>
	</g>
	<g>
		<g>
			<polygon class="st4" points="20.73,265.1 36.8,265.1 28.77,254.47 			"/>
		</g>
	</g>
	<g>
		<g>
			<polygon class="st4" points="20.73,169.36 36.8,169.36 28.77,158.73 			"/>
		</g>
	</g>
	<g>
		<g>
			<polygon class="st4" points="20.73,190.49 36.8,190.49 28.77,179.87 			"/>
		</g>
	</g>
	<g>
		<g>
			<polygon class="st4" points="20.73,211.63 36.8,211.63 28.77,201 			"/>
		</g>
	</g>
	<g>
		<g>
			<polygon class="st4" points="20.73,148.22 36.8,148.22 28.77,137.6 			"/>
		</g>
	</g>
	<g>
		<defs>
			<rect id="SVGID_00000048465988876176708850000011966491818684914867_" x="3.37" y="1.13" width="993.82" height="824.32"/>
		</defs>
		<clipPath id="SVGID_00000091725001396746927680000013385098265883010689_">
			<use xlink:href="#SVGID_00000048465988876176708850000011966491818684914867_"  style="overflow:visible;"/>
		</clipPath>
		<g style="clip-path:url(#SVGID_00000091725001396746927680000013385098265883010689_);">
			<g>
				<path class="st4" d="M835.44,73.12c0-6.43-3.8-10.45-11.32-11.18l-5.99-0.59c-3.36-0.29-3.94-1.9-3.94-3.29
					c0-1.9,1.61-3.65,5.41-3.65c3.29,0,6.65,0.58,8.84,2.56l5.84-5.91c-3.65-3.43-8.62-4.45-14.54-4.45
					c-7.74,0-14.68,4.23-14.68,12.11c0,7.02,4.24,10.01,11.1,10.67l5.99,0.58c3,0.29,4.02,1.61,4.02,3.51
					c0,2.85-3.43,3.95-6.72,3.95c-2.92,0-7.01-0.44-10.15-3.58l-6.21,6.21c4.82,4.82,10.23,5.47,16.22,5.47
					C828.28,85.53,835.44,81.52,835.44,73.12 M797.83,73.12c0-6.43-3.8-10.45-11.32-11.18l-5.99-0.59c-3.36-0.29-3.94-1.9-3.94-3.29
					c0-1.9,1.61-3.65,5.41-3.65c3.29,0,6.65,0.58,8.84,2.56l5.84-5.91c-3.65-3.43-8.62-4.45-14.54-4.45
					c-7.74,0-14.68,4.23-14.68,12.11c0,7.02,4.24,10.01,11.1,10.67l5.99,0.58c2.99,0.29,4.02,1.61,4.02,3.51
					c0,2.85-3.43,3.95-6.72,3.95c-2.92,0-7.01-0.44-10.15-3.58l-6.21,6.21c4.82,4.82,10.23,5.47,16.22,5.47
					C790.67,85.53,797.83,81.52,797.83,73.12 M757.06,85.09V47.04h-9.49v23.01c0,5.19-3.36,6.94-6.36,6.94c-3,0-6.29-1.75-6.29-6.94
					V47.04h-9.49v24.33c0,4.16,0.8,7.74,3.87,10.81c2.11,2.11,5.18,3.35,8.98,3.35c3.51,0,7.02-1.31,9.5-3.94v3.5H757.06z
					 M716.81,85.09v-8.02h-3.65c-2.41,0-3.36-1.17-3.36-3.43V33.09h-9.49v41.13c0,5.4,3.29,10.87,11.1,10.87H716.81z M688.98,85.09
					V60.47c0-8.03-4.38-13.87-12.7-13.87c-3.36,0-6.58,1.31-9.14,3.94V33.09h-9.49v52h9.49V61.86c0-4.97,3.14-6.72,6.14-6.72
					c2.99,0,6.21,1.68,6.21,6.72v23.23H688.98z M648.8,80.35l-6.43-6.36c-1.97,2.12-3.65,3-6.14,3c-2.26,0-4.02-0.8-5.41-2.49
					c-1.46-1.83-2.12-4.46-2.12-8.47c0-4.02,0.66-6.58,2.12-8.41c1.39-1.68,3.14-2.48,5.41-2.48c2.48,0,4.16,0.88,6.14,3l6.43-6.42
					c-3.36-3.51-7.3-5.11-12.56-5.11c-7.6,0-17.01,4.01-17.01,19.43s9.41,19.5,17.01,19.5C641.5,85.53,645.44,83.85,648.8,80.35
					 M611.7,73.12c0-6.43-3.8-10.45-11.32-11.18l-5.99-0.59c-3.36-0.29-3.94-1.9-3.94-3.29c0-1.9,1.61-3.65,5.41-3.65
					c3.29,0,6.65,0.58,8.84,2.56l5.84-5.91c-3.65-3.43-8.62-4.45-14.54-4.45c-7.74,0-14.68,4.23-14.68,12.11
					c0,7.02,4.24,10.01,11.1,10.67l5.99,0.58c2.99,0.29,4.02,1.61,4.02,3.51c0,2.85-3.43,3.95-6.72,3.95
					c-2.92,0-7.01-0.44-10.15-3.58l-6.21,6.21c4.82,4.82,10.23,5.47,16.22,5.47C604.54,85.53,611.7,81.52,611.7,73.12 M563.05,66.03
					c0,6.21-0.73,10.96-6.43,10.96s-6.43-4.75-6.43-10.96c0-6.21,0.73-10.89,6.43-10.89S563.05,59.82,563.05,66.03 M572.54,66.03
					c0-5.7-0.07-12.2-3.87-16c-2.12-2.12-5.55-3.43-9.28-3.43c-3.87,0-6.72,1.02-9.21,3.79V33.09h-9.48v52h9.19v-3.57
					c2.64,2.92,5.48,4.01,9.5,4.01c3.73,0,7.16-1.31,9.28-3.43C572.47,78.3,572.54,71.73,572.54,66.03 M519.52,71.06
					c0,2.34-0.37,3.88-1.39,4.83c-1.69,1.61-3.37,1.83-6,1.83c-3.73,0-5.48-1.76-5.48-4.39c0-2.71,1.9-4.32,5.34-4.32h7.53V71.06z
					 M529,85.09V60.04c0-8.91-5.55-13.44-16.21-13.44c-6.36,0-10.01,1.16-13.73,5.25l6.06,5.92c1.97-2.27,3.65-3.15,7.3-3.15
					c5.05,0,7.09,1.83,7.09,6v1.9h-8.99c-8.84,0-13,4.96-13,11.02c0,3.36,1.1,6.43,3.14,8.55c2.26,2.26,5.4,3.35,9.72,3.35
					c4.38,0,6.8-1.1,9.36-3.65v3.28H529z M491.16,85.09v-8.02h-3.65c-2.41,0-3.36-1.17-3.36-3.43V33.09h-9.48v41.13
					c0,5.4,3.28,10.87,11.09,10.87H491.16z M462.89,85.09V47.04h-9.48v23.01c0,5.19-3.37,6.94-6.36,6.94
					c-2.99,0-6.29-1.75-6.29-6.94V47.04h-9.49v24.33c0,4.16,0.8,7.74,3.87,10.81c2.12,2.11,5.18,3.35,8.98,3.35
					c3.51,0,7.02-1.31,9.5-3.94v3.5H462.89z M420.02,85.09V60.47c0-8.03-4.38-13.87-12.7-13.87c-3.37,0-6.58,1.31-9.14,3.94V33.09
					h-9.49v52h9.49V61.86c0-4.97,3.14-6.72,6.14-6.72c3,0,6.21,1.68,6.21,6.72v23.23H420.02z M379.84,80.35l-6.43-6.36
					c-1.97,2.12-3.65,3-6.14,3c-2.26,0-4.02-0.8-5.41-2.49c-1.46-1.83-2.12-4.46-2.12-8.47c0-4.02,0.66-6.58,2.12-8.41
					c1.39-1.68,3.14-2.48,5.41-2.48c2.48,0,4.16,0.88,6.14,3l6.43-6.42c-3.36-3.51-7.3-5.11-12.56-5.11
					c-7.6,0-17.01,4.01-17.01,19.43s9.42,19.5,17.01,19.5C372.54,85.53,376.48,83.85,379.84,80.35 M342.74,73.12
					c0-6.43-3.8-10.45-11.32-11.18l-5.99-0.59c-3.36-0.29-3.94-1.9-3.94-3.29c0-1.9,1.61-3.65,5.41-3.65c3.29,0,6.65,0.58,8.84,2.56
					l5.84-5.91c-3.65-3.43-8.62-4.45-14.54-4.45c-7.74,0-14.68,4.23-14.68,12.11c0,7.02,4.24,10.01,11.1,10.67l5.99,0.58
					c2.99,0.29,4.02,1.61,4.02,3.51c0,2.85-3.43,3.95-6.72,3.95c-2.92,0-7.01-0.44-10.15-3.58l-6.21,6.21
					c4.82,4.82,10.23,5.47,16.22,5.47C335.58,85.53,342.74,81.52,342.74,73.12 M305.04,85.09v-8.02h-3.65
					c-2.41,0-3.36-1.17-3.36-3.43V33.09h-9.49v41.13c0,5.4,3.29,10.87,11.1,10.87H305.04z M267.72,71.06c0,2.34-0.37,3.88-1.39,4.83
					c-1.68,1.61-3.36,1.83-6,1.83c-3.73,0-5.48-1.76-5.48-4.39c0-2.71,1.9-4.32,5.33-4.32h7.53V71.06z M277.21,85.09V60.04
					c0-8.91-5.55-13.44-16.21-13.44c-6.36,0-10.01,1.16-13.73,5.25l6.06,5.92c1.97-2.27,3.65-3.15,7.3-3.15c5.05,0,7.09,1.83,7.09,6
					v1.9h-8.99c-8.83,0-13,4.96-13,11.02c0,3.36,1.1,6.43,3.14,8.55c2.26,2.26,5.4,3.35,9.71,3.35c4.39,0,6.8-1.1,9.36-3.65v3.28
					H277.21z M228.85,62.53h-14.46c0.07-1.69,0.29-2.71,0.88-4.1c1.02-2.27,3.14-3.95,6.36-3.95c3.21,0,5.33,1.68,6.36,3.95
					C228.56,59.82,228.78,60.84,228.85,62.53 M238.2,69.02v-4.23c0-10.45-5.99-18.18-16.58-18.18c-9.86,0-16.57,7-16.57,19.43
					c0,15.41,8.61,19.5,17.59,19.5c6.87,0,10.59-2.12,14.46-5.98l-5.77-5.62c-2.41,2.41-4.46,3.58-8.62,3.58
					c-5.33,0-8.33-3.58-8.33-8.48H238.2z M185.55,49.01c0,4.02-2.93,6.87-7.38,6.87h-9.57V42.14h9.57
					C182.62,42.14,185.55,44.99,185.55,49.01 M197.81,85.09l-11.6-22.43c5.03-1.82,9.49-6.34,9.49-13.65
					c0-8.7-6.28-15.92-16.87-15.92h-20.37v52h10.14V64.34h7.31l10.16,20.75H197.81z"/>
			</g>
		</g>
		<g style="clip-path:url(#SVGID_00000091725001396746927680000013385098265883010689_);">
			<g>
				<path class="st3" d="M707.18,293.74c0,4.11-2.4,6.57-5.82,6.57c-3.64,0-5.77-2.83-5.77-6.57c0-4.06,2.35-6.62,5.77-6.62
					C704.78,287.12,707.18,289.69,707.18,293.74 M712.62,293.64c0-7.05-4.69-11.37-11.26-11.37c-6.57,0-11.21,4.59-11.21,11.58
					c0,6.68,4.43,10.99,9.92,10.99c1.18,0,2.41-0.16,3.42-0.58l-8.18,16.33h5.83l8.65-17.62
					C711.45,299.67,712.62,296.73,712.62,293.64 M665,304.85h-12.17c0.05-1.66,0.16-2.46,0.69-3.69c0.85-2.03,2.83-3.42,5.39-3.42
					c2.56,0,4.48,1.39,5.34,3.42C664.79,302.39,664.95,303.19,665,304.85 M670.39,308.63v-2.4c0-7.69-4.21-13.02-11.47-13.02
					c-6.94,0-11.47,5.06-11.47,13.82c0,10.31,5.39,13.88,12.17,13.88c4.75,0,7.37-1.44,10.14-4.21l-3.47-3.25
					c-1.92,1.92-3.52,2.78-6.57,2.78c-4.43,0-6.88-2.94-6.88-7.59H670.39z M641.68,312.32c0-4.8-2.99-7.21-8.06-7.64l-4.27-0.37
					c-2.88-0.27-3.74-1.49-3.74-3.1c0-2.03,1.66-3.47,4.91-3.47c2.56,0,4.97,0.53,6.68,1.98l3.42-3.47
					c-2.51-2.19-5.98-3.03-10.04-3.03c-5.66,0-10.2,2.98-10.2,8.27c0,4.75,2.94,7.05,8.01,7.48l4.33,0.37
					c2.61,0.21,3.63,1.39,3.63,3.2c0,2.57-2.62,3.74-5.93,3.74c-2.67,0-5.6-0.59-7.79-2.83l-3.57,3.57
					c3.2,3.15,6.94,3.89,11.37,3.89C636.88,320.91,641.68,317.98,641.68,312.32 M614.83,312.32c0-4.8-2.99-7.21-8.06-7.64
					l-4.27-0.37c-2.88-0.27-3.74-1.49-3.74-3.1c0-2.03,1.65-3.47,4.91-3.47c2.56,0,4.96,0.53,6.67,1.98l3.42-3.47
					c-2.51-2.19-5.98-3.03-10.04-3.03c-5.66,0-10.19,2.98-10.19,8.27c0,4.75,2.93,7.05,8.01,7.48l4.32,0.37
					c2.62,0.21,3.63,1.39,3.63,3.2c0,2.57-2.61,3.74-5.92,3.74c-2.67,0-5.61-0.59-7.79-2.83l-3.58,3.57
					c3.2,3.15,6.94,3.89,11.37,3.89C610.02,320.91,614.83,317.98,614.83,312.32 M580.45,310.82c0,1.92-0.38,3.2-1.17,4.01
					c-1.44,1.39-2.99,1.55-5.07,1.55c-3.42,0-4.97-1.39-4.97-3.85c0-2.46,1.65-3.9,4.86-3.9h6.36V310.82z M585.89,320.59V302.5
					c0-6.14-3.73-9.28-11.15-9.28c-4.49,0-7.15,0.9-9.72,3.89l3.57,3.37c1.49-1.92,2.94-2.62,5.93-2.62c4.22,0,5.93,1.66,5.93,5.07
					v1.93h-7.16c-6.19,0-9.34,3.25-9.34,7.79c0,2.3,0.75,4.38,2.14,5.82c1.65,1.65,3.89,2.45,7.26,2.45s5.23-0.8,7.21-2.77v2.45
					H585.89z M559.47,320.59v-4.64h-2.4c-2.19,0-2.94-1.07-2.94-3.15v-30.21h-5.43v30.53c0,4,2.24,7.47,7.41,7.47H559.47z
					 M543.45,320.59l-13.61-23.11l12.33-14.89h-7.05l-15.53,19.11v-19.11h-5.76v38h5.76v-11.05l6.41-7.69l10.68,18.73H543.45z
					 M495.68,278.64h-5.23l-15.22,45.9h5.23L495.68,278.64z M456.13,285.19h-5.51v35.4h5.51V285.19z M440.17,285.19h-5.51v29.17
					h-8.88v6.24h14.38V285.19z M421.69,316.66v-15.4c0-1.94-0.29-3.47-0.87-4.58c-0.58-1.1-1.56-1.89-2.92-2.36
					c-1.37-0.47-3.25-0.7-5.65-0.7c-2.96,0-5.66,0.4-8.12,1.21c-2.46,0.81-4.54,1.97-6.27,3.49c-1.73,1.51-2.99,3.34-3.82,5.47v-9.6
					h-5.51v22.48h5.51c0-5.7,1.3-9.92,3.91-12.68c2.6-2.75,6.55-4.13,11.83-4.13c2.96,0,5.1,0.21,6.41,0.62v16.19H421.69z
					 M379.66,320.6h48.38v-6.24h-48.38V320.6z M366.37,286.88c0.55-0.42,1.02-0.89,1.43-1.44c0.41-0.54,0.62-1.02,0.62-1.43
					c0-0.44-0.21-0.94-0.62-1.49c-0.41-0.54-0.88-1.01-1.4-1.4c-0.52-0.39-1.01-0.59-1.46-0.59c-0.45,0-0.94,0.2-1.49,0.59
					c-0.55,0.39-1.01,0.87-1.4,1.4c-0.39,0.55-0.59,1.05-0.59,1.49c0,0.42,0.2,0.9,0.59,1.47c0.39,0.56,0.87,1.03,1.43,1.43
					c0.56,0.39,1.05,0.6,1.46,0.6C365.34,287.5,365.82,287.29,366.37,286.88 M356.84,314.36v-11.58c0-1.13,0.18-1.89,0.53-2.28
					c0.35-0.4,1-0.6,1.94-0.6h10.73v11.8c0,1.01-0.19,1.71-0.56,2.08c-0.38,0.38-1.03,0.57-1.97,0.57H356.84z M375.55,320.6v-25.18
					c-2.21-0.67-4.23-1.15-6.07-1.43c-1.84-0.28-3.86-0.42-6.07-0.42c-2.43,0-4.46,0.2-6.07,0.62c-1.61,0.41-2.88,1.06-3.82,1.96
					c-0.94,0.9-1.6,2.11-1.99,3.62c-0.39,1.52-0.59,3.42-0.59,5.7c0,2.14,0.06,3.88,0.17,5.23c0.11,1.35,0.3,2.57,0.56,3.66h-16.63
					c-0.3-0.98-0.52-2.01-0.65-3.1c-0.13-1.08-0.2-2.34-0.2-3.76c0-1.24,0.11-2.53,0.34-3.91c0.22-1.37,0.56-2.78,1.01-4.24
					l-5.28-0.85c-0.49,1.39-0.88,3.01-1.18,4.86c-0.3,1.86-0.45,3.66-0.45,5.42c0,2.85,0.28,5.14,0.84,6.86
					c0.56,1.73,1.46,2.98,2.7,3.76c1.24,0.79,2.85,1.19,4.83,1.19H375.55z M375.55,320.6h6.35v-6.24h-6.35V320.6z M302.73,293.74
					c0,4.11-2.4,6.57-5.82,6.57c-3.63,0-5.77-2.83-5.77-6.57c0-4.06,2.35-6.62,5.77-6.62S302.73,289.69,302.73,293.74
					 M308.16,293.64c0-7.05-4.69-11.37-11.26-11.37s-11.2,4.59-11.2,11.58c0,6.68,4.42,10.99,9.92,10.99c1.17,0,2.4-0.16,3.42-0.58
					l-8.17,16.33h5.82l8.65-17.62C306.99,299.67,308.16,296.73,308.16,293.64"/>
			</g>
		</g>
		<g style="clip-path:url(#SVGID_00000091725001396746927680000013385098265883010689_);">
			<g>
				<path class="st3" d="M735.9,190.2c0,3.69-2.08,6.2-5.56,6.2c-3.47,0-5.5-2.51-5.5-6.2v-16.55c0-3.69,2.03-6.19,5.5-6.19
					c3.47,0,5.56,2.51,5.56,6.19V190.2z M741.34,190.36v-16.87c0-6.78-4.96-10.88-11-10.88c-6.03,0-10.94,4.11-10.94,10.88v16.87
					c0,6.78,4.91,10.88,10.94,10.88C736.38,201.25,741.34,197.14,741.34,190.36 M706.11,200.93v-38h-5.44l-7.42,6.41v6.03l7.42-6.51
					v32.07H706.11z M665,185.19h-12.17c0.06-1.66,0.16-2.46,0.7-3.69c0.85-2.03,2.83-3.42,5.39-3.42s4.48,1.39,5.34,3.42
					C664.79,182.73,664.95,183.53,665,185.19 M670.4,188.97v-2.4c0-7.69-4.22-13.02-11.48-13.02c-6.94,0-11.47,5.06-11.47,13.82
					c0,10.31,5.38,13.88,12.17,13.88c4.75,0,7.37-1.44,10.14-4.21l-3.47-3.26c-1.92,1.92-3.52,2.78-6.56,2.78
					c-4.43,0-6.89-2.94-6.89-7.59H670.4z M641.68,192.65c0-4.8-2.99-7.21-8.06-7.64l-4.27-0.37c-2.88-0.27-3.74-1.49-3.74-3.1
					c0-2.03,1.65-3.47,4.91-3.47c2.56,0,4.96,0.53,6.67,1.98l3.42-3.47c-2.51-2.19-5.98-3.03-10.04-3.03
					c-5.66,0-10.19,2.98-10.19,8.27c0,4.75,2.93,7.05,8.01,7.48l4.32,0.37c2.62,0.21,3.63,1.39,3.63,3.2c0,2.57-2.61,3.74-5.92,3.74
					c-2.67,0-5.61-0.59-7.79-2.83l-3.58,3.57c3.2,3.15,6.94,3.89,11.37,3.89C636.87,201.25,641.68,198.31,641.68,192.65
					 M614.83,192.65c0-4.8-2.99-7.21-8.06-7.64l-4.27-0.37c-2.88-0.27-3.74-1.49-3.74-3.1c0-2.03,1.66-3.47,4.91-3.47
					c2.56,0,4.97,0.53,6.68,1.98l3.42-3.47c-2.51-2.19-5.98-3.03-10.04-3.03c-5.66,0-10.2,2.98-10.2,8.27
					c0,4.75,2.94,7.05,8.01,7.48l4.33,0.37c2.61,0.21,3.63,1.39,3.63,3.2c0,2.57-2.62,3.74-5.93,3.74c-2.67,0-5.6-0.59-7.79-2.83
					l-3.57,3.57c3.2,3.15,6.94,3.89,11.37,3.89C610.03,201.25,614.83,198.31,614.83,192.65 M580.45,191.16
					c0,1.92-0.37,3.2-1.17,4.01c-1.44,1.39-2.99,1.55-5.07,1.55c-3.42,0-4.97-1.39-4.97-3.85c0-2.46,1.66-3.9,4.86-3.9h6.36V191.16z
					 M585.89,200.93v-18.09c0-6.14-3.73-9.28-11.15-9.28c-4.48,0-7.15,0.9-9.71,3.89l3.57,3.37c1.49-1.92,2.94-2.62,5.93-2.62
					c4.22,0,5.93,1.66,5.93,5.07v1.93h-7.15c-6.19,0-9.34,3.25-9.34,7.79c0,2.3,0.75,4.38,2.13,5.82c1.66,1.65,3.89,2.45,7.26,2.45
					c3.37,0,5.24-0.8,7.21-2.77v2.45H585.89z M559.47,200.93v-4.64h-2.4c-2.19,0-2.93-1.07-2.93-3.15v-30.21h-5.44v30.53
					c0,4,2.24,7.47,7.41,7.47H559.47z M543.46,200.93l-13.62-23.11l12.33-14.89h-7.05l-15.54,19.11v-19.11h-5.75v38h5.75v-11.05
					l6.41-7.69l10.68,18.73H543.46z M495.68,158.97h-5.23l-15.21,45.9h5.23L495.68,158.97z M456.13,165.53h-5.51v35.4h5.51V165.53z
					 M440.17,165.53h-5.51v29.16h-8.88v6.24h14.38V165.53z M421.68,197v-15.4c0-1.95-0.29-3.48-0.87-4.58
					c-0.58-1.11-1.55-1.89-2.92-2.36c-1.37-0.47-3.25-0.7-5.65-0.7c-2.96,0-5.66,0.4-8.12,1.21c-2.45,0.8-4.54,1.97-6.27,3.48
					c-1.72,1.52-2.99,3.34-3.82,5.48v-9.61h-5.51V197h5.51c0-5.7,1.3-9.92,3.91-12.67c2.61-2.75,6.55-4.13,11.83-4.13
					c2.96,0,5.1,0.2,6.41,0.62V197H421.68z M379.65,200.93h48.38v-6.24h-48.38V200.93z M366.37,167.22
					c0.55-0.42,1.02-0.89,1.43-1.43c0.42-0.55,0.62-1.02,0.62-1.43c0-0.45-0.2-0.95-0.62-1.49c-0.41-0.55-0.88-1.01-1.4-1.4
					c-0.52-0.39-1.01-0.59-1.46-0.59c-0.45,0-0.94,0.2-1.49,0.59c-0.54,0.39-1.01,0.86-1.4,1.4c-0.39,0.54-0.59,1.04-0.59,1.49
					c0,0.41,0.2,0.9,0.59,1.46c0.39,0.56,0.87,1.04,1.43,1.43c0.56,0.39,1.05,0.59,1.46,0.59
					C365.35,167.84,365.83,167.63,366.37,167.22 M356.84,194.69v-11.58c0-1.12,0.18-1.88,0.53-2.28c0.36-0.39,1.01-0.59,1.94-0.59
					h10.73v11.8c0,1.01-0.19,1.7-0.56,2.08c-0.37,0.37-1.03,0.56-1.97,0.56H356.84z M375.55,200.93v-25.17
					c-2.21-0.67-4.23-1.15-6.07-1.43c-1.83-0.28-3.85-0.42-6.07-0.42c-2.43,0-4.46,0.2-6.07,0.62c-1.61,0.41-2.88,1.07-3.82,1.97
					c-0.93,0.9-1.6,2.11-1.99,3.62c-0.39,1.52-0.59,3.42-0.59,5.7c0,2.14,0.06,3.88,0.17,5.23c0.11,1.35,0.3,2.56,0.56,3.65h-16.63
					c-0.3-0.98-0.51-2.01-0.65-3.09c-0.13-1.09-0.2-2.34-0.2-3.76c0-1.24,0.11-2.54,0.34-3.91c0.22-1.37,0.56-2.78,1.01-4.24
					l-5.28-0.84c-0.48,1.38-0.88,3.01-1.18,4.86c-0.3,1.85-0.45,3.66-0.45,5.42c0,2.84,0.28,5.13,0.84,6.86
					c0.56,1.72,1.46,2.98,2.7,3.76c1.24,0.79,2.85,1.18,4.83,1.18H375.55z M375.55,200.93h6.35v-6.24h-6.35V200.93z M302.46,190.2
					c0,3.69-2.08,6.2-5.55,6.2c-3.47,0-5.51-2.51-5.51-6.2v-16.55c0-3.69,2.03-6.19,5.51-6.19c3.47,0,5.55,2.51,5.55,6.19V190.2z
					 M307.9,190.36v-16.87c0-6.78-4.96-10.88-10.99-10.88c-6.03,0-10.94,4.11-10.94,10.88v16.87c0,6.78,4.91,10.88,10.94,10.88
					C302.94,201.25,307.9,197.14,307.9,190.36 M272.67,200.93v-38h-5.44l-7.42,6.41v6.03l7.42-6.51v32.07H272.67z"/>
			</g>
		</g>
		<g style="clip-path:url(#SVGID_00000091725001396746927680000013385098265883010689_);">
			<g>
				<path class="st3" d="M707.02,405.06c0,3.37-2.35,5.77-5.66,5.77s-5.61-2.4-5.61-5.77c0-3.31,2.3-5.82,5.61-5.82
					S707.02,401.75,707.02,405.06 M707.61,421.88c0,3.52-2.73,6.3-6.25,6.3c-3.52,0-6.25-2.78-6.25-6.3c0-3.52,2.73-6.36,6.25-6.36
					C704.88,415.52,707.61,418.36,707.61,421.88 M713.1,421.99c0-4.54-2.56-7.32-5.22-8.91c2.45-1.49,4.59-4.16,4.59-8.17
					c0-6.36-4.91-10.51-11.1-10.51c-6.19,0-11.05,4.16-11.05,10.51c0,4.01,2.14,6.68,4.59,8.17c-2.66,1.6-5.23,4.37-5.23,8.91
					c0,6.89,5.18,11.05,11.69,11.05C707.88,433.03,713.1,428.88,713.1,421.99 M665,416.97h-12.17c0.06-1.66,0.16-2.46,0.7-3.69
					c0.85-2.03,2.83-3.42,5.39-3.42s4.48,1.39,5.34,3.42C664.79,414.51,664.95,415.32,665,416.97 M670.4,420.76v-2.4
					c0-7.69-4.22-13.02-11.48-13.02c-6.94,0-11.47,5.06-11.47,13.82c0,10.31,5.38,13.88,12.17,13.88c4.75,0,7.37-1.44,10.14-4.21
					l-3.47-3.25c-1.92,1.92-3.52,2.78-6.56,2.78c-4.43,0-6.89-2.94-6.89-7.59H670.4z M641.68,424.44c0-4.8-2.99-7.21-8.06-7.64
					l-4.27-0.37c-2.88-0.27-3.74-1.49-3.74-3.1c0-2.03,1.65-3.47,4.91-3.47c2.56,0,4.96,0.53,6.67,1.98l3.42-3.47
					c-2.51-2.19-5.98-3.03-10.04-3.03c-5.66,0-10.19,2.98-10.19,8.27c0,4.75,2.93,7.05,8.01,7.48l4.32,0.37
					c2.62,0.21,3.63,1.39,3.63,3.2c0,2.57-2.61,3.74-5.92,3.74c-2.67,0-5.61-0.59-7.79-2.83l-3.58,3.57
					c3.2,3.15,6.94,3.89,11.37,3.89C636.87,433.03,641.68,430.1,641.68,424.44 M614.83,424.44c0-4.8-2.99-7.21-8.06-7.64l-4.27-0.37
					c-2.88-0.27-3.74-1.49-3.74-3.1c0-2.03,1.66-3.47,4.91-3.47c2.56,0,4.97,0.53,6.68,1.98l3.42-3.47
					c-2.51-2.19-5.98-3.03-10.04-3.03c-5.66,0-10.2,2.98-10.2,8.27c0,4.75,2.94,7.05,8.01,7.48l4.33,0.37
					c2.61,0.21,3.63,1.39,3.63,3.2c0,2.57-2.62,3.74-5.93,3.74c-2.67,0-5.6-0.59-7.79-2.83l-3.57,3.57
					c3.2,3.15,6.94,3.89,11.37,3.89C610.02,433.03,614.83,430.1,614.83,424.44 M580.45,422.95c0,1.92-0.37,3.2-1.17,4.01
					c-1.44,1.39-2.99,1.55-5.07,1.55c-3.42,0-4.97-1.39-4.97-3.85c0-2.46,1.66-3.9,4.86-3.9h6.36V422.95z M585.89,432.71v-18.09
					c0-6.14-3.73-9.28-11.15-9.28c-4.48,0-7.15,0.9-9.71,3.89l3.57,3.37c1.49-1.92,2.94-2.62,5.93-2.62c4.22,0,5.93,1.66,5.93,5.07
					v1.93h-7.15c-6.19,0-9.34,3.25-9.34,7.79c0,2.3,0.75,4.38,2.13,5.82c1.66,1.65,3.89,2.45,7.26,2.45s5.24-0.8,7.21-2.77v2.45
					H585.89z M559.47,432.71v-4.64h-2.4c-2.19,0-2.93-1.07-2.93-3.15v-30.21h-5.44v30.53c0,4,2.24,7.47,7.41,7.47H559.47z
					 M543.46,432.71l-13.62-23.11l12.33-14.89h-7.05l-15.54,19.11v-19.11h-5.75v38h5.75v-11.05l6.41-7.69l10.68,18.73H543.46z
					 M495.68,390.76h-5.23l-15.21,45.9h5.23L495.68,390.76z M456.13,397.31h-5.51v35.4h5.51V397.31z M440.17,397.31h-5.51v29.16
					h-8.88v6.24h14.38V397.31z M421.68,428.78v-15.4c0-1.94-0.29-3.47-0.87-4.58c-0.58-1.1-1.55-1.89-2.92-2.36
					c-1.37-0.47-3.25-0.7-5.65-0.7c-2.96,0-5.66,0.4-8.12,1.21c-2.45,0.81-4.54,1.97-6.27,3.48c-1.72,1.52-2.99,3.34-3.82,5.48
					v-9.61h-5.51v22.48h5.51c0-5.69,1.3-9.92,3.91-12.67c2.61-2.75,6.55-4.13,11.83-4.13c2.96,0,5.1,0.21,6.41,0.62v16.18H421.68z
					 M379.65,432.71h48.38v-6.24h-48.38V432.71z M366.36,399c0.55-0.41,1.02-0.89,1.43-1.43c0.42-0.54,0.62-1.02,0.62-1.43
					c0-0.45-0.2-0.94-0.62-1.49c-0.41-0.54-0.88-1.01-1.4-1.4c-0.52-0.39-1.01-0.59-1.46-0.59c-0.45,0-0.94,0.2-1.49,0.59
					c-0.54,0.39-1.01,0.87-1.4,1.4c-0.39,0.55-0.59,1.04-0.59,1.49c0,0.42,0.2,0.9,0.59,1.46s0.87,1.04,1.43,1.43
					s1.05,0.59,1.46,0.59C365.35,399.62,365.83,399.41,366.36,399 M356.84,426.48V414.9c0-1.12,0.18-1.88,0.53-2.28
					c0.36-0.39,1.01-0.59,1.94-0.59h10.73v11.8c0,1.01-0.19,1.71-0.56,2.08c-0.37,0.38-1.03,0.56-1.97,0.56H356.84z M375.55,432.71
					v-25.17c-2.21-0.67-4.23-1.15-6.07-1.43c-1.83-0.28-3.85-0.42-6.07-0.42c-2.43,0-4.46,0.21-6.07,0.62
					c-1.61,0.42-2.88,1.07-3.82,1.97c-0.93,0.9-1.6,2.11-1.99,3.62c-0.39,1.52-0.59,3.42-0.59,5.7c0,2.14,0.06,3.88,0.17,5.23
					c0.11,1.35,0.3,2.57,0.56,3.65h-16.63c-0.3-0.97-0.51-2-0.65-3.09c-0.13-1.08-0.2-2.34-0.2-3.76c0-1.24,0.11-2.53,0.34-3.91
					c0.22-1.37,0.56-2.78,1.01-4.24l-5.28-0.84c-0.48,1.39-0.88,3.01-1.18,4.86c-0.3,1.85-0.45,3.66-0.45,5.42
					c0,2.85,0.28,5.14,0.84,6.86c0.56,1.73,1.46,2.98,2.7,3.76c1.24,0.79,2.85,1.18,4.83,1.18H375.55z M375.55,432.71h6.35v-6.24
					h-6.35V432.71z M302.57,405.06c0,3.37-2.35,5.77-5.66,5.77c-3.32,0-5.61-2.4-5.61-5.77c0-3.31,2.3-5.82,5.61-5.82
					C300.22,399.24,302.57,401.75,302.57,405.06 M303.16,421.88c0,3.52-2.73,6.3-6.25,6.3c-3.53,0-6.25-2.78-6.25-6.3
					c0-3.52,2.72-6.36,6.25-6.36C300.43,415.52,303.16,418.36,303.16,421.88 M308.65,421.99c0-4.54-2.56-7.32-5.23-8.91
					c2.46-1.49,4.59-4.16,4.59-8.17c0-6.36-4.91-10.51-11.1-10.51c-6.2,0-11.05,4.16-11.05,10.51c0,4.01,2.13,6.68,4.59,8.17
					c-2.67,1.6-5.23,4.37-5.23,8.91c0,6.89,5.17,11.05,11.69,11.05C303.42,433.03,308.65,428.88,308.65,421.99"/>
			</g>
		</g>
		<g style="clip-path:url(#SVGID_00000091725001396746927680000013385098265883010689_);">
			<g>
				<path class="st3" d="M707.18,661.23c0,4.06-2.4,6.62-5.82,6.62c-3.42,0-5.77-2.57-5.77-6.62c0-4.11,2.35-6.57,5.77-6.57
					C704.99,654.66,707.18,657.49,707.18,661.23 M712.62,661.12c0-6.68-4.48-10.99-9.97-10.99c-1.17,0-2.35,0.16-3.37,0.58
					l8.17-16.33h-5.82L692.98,652c-1.65,3.3-2.83,6.24-2.83,9.34c0,7.05,4.69,11.37,11.26,11.37
					C707.98,672.7,712.62,668.12,712.62,661.12 M665,656.64h-12.17c0.05-1.66,0.16-2.46,0.69-3.69c0.85-2.03,2.83-3.42,5.39-3.42
					c2.56,0,4.48,1.39,5.34,3.42C664.79,654.18,664.95,654.99,665,656.64 M670.39,660.43v-2.4c0-7.69-4.21-13.02-11.47-13.02
					c-6.94,0-11.47,5.06-11.47,13.82c0,10.31,5.39,13.88,12.17,13.88c4.75,0,7.37-1.44,10.14-4.21l-3.47-3.25
					c-1.92,1.92-3.52,2.78-6.57,2.78c-4.43,0-6.88-2.94-6.88-7.59H670.39z M641.68,664.11c0-4.8-2.99-7.21-8.06-7.64l-4.27-0.37
					c-2.88-0.27-3.74-1.49-3.74-3.1c0-2.03,1.66-3.47,4.91-3.47c2.56,0,4.97,0.53,6.68,1.98l3.42-3.47
					c-2.51-2.19-5.98-3.03-10.04-3.03c-5.66,0-10.2,2.98-10.2,8.27c0,4.75,2.94,7.05,8.01,7.48l4.33,0.37
					c2.61,0.21,3.63,1.39,3.63,3.2c0,2.57-2.62,3.74-5.93,3.74c-2.67,0-5.6-0.59-7.79-2.83l-3.57,3.57
					c3.2,3.15,6.94,3.89,11.37,3.89C636.88,672.7,641.68,669.77,641.68,664.11 M614.83,664.11c0-4.8-2.99-7.21-8.06-7.64l-4.27-0.37
					c-2.88-0.27-3.74-1.49-3.74-3.1c0-2.03,1.65-3.47,4.91-3.47c2.56,0,4.96,0.53,6.67,1.98l3.42-3.47
					c-2.51-2.19-5.98-3.03-10.04-3.03c-5.66,0-10.19,2.98-10.19,8.27c0,4.75,2.93,7.05,8.01,7.48l4.32,0.37
					c2.62,0.21,3.63,1.39,3.63,3.2c0,2.57-2.61,3.74-5.92,3.74c-2.67,0-5.61-0.59-7.79-2.83l-3.58,3.57
					c3.2,3.15,6.94,3.89,11.37,3.89C610.02,672.7,614.83,669.77,614.83,664.11 M580.45,662.62c0,1.92-0.38,3.2-1.17,4.01
					c-1.44,1.39-2.99,1.55-5.07,1.55c-3.42,0-4.97-1.39-4.97-3.85c0-2.46,1.65-3.9,4.86-3.9h6.36V662.62z M585.89,672.38v-18.09
					c0-6.14-3.73-9.28-11.15-9.28c-4.49,0-7.15,0.9-9.72,3.89l3.57,3.37c1.49-1.92,2.94-2.62,5.93-2.62c4.22,0,5.93,1.66,5.93,5.07
					v1.93h-7.16c-6.19,0-9.34,3.25-9.34,7.79c0,2.3,0.75,4.38,2.14,5.82c1.65,1.65,3.89,2.45,7.26,2.45s5.23-0.8,7.21-2.77v2.45
					H585.89z M559.47,672.38v-4.64h-2.4c-2.19,0-2.94-1.07-2.94-3.15v-30.21h-5.43v30.53c0,4,2.24,7.47,7.41,7.47H559.47z
					 M543.45,672.38l-13.61-23.11l12.33-14.89h-7.05l-15.53,19.11v-19.11h-5.76v38h5.76v-11.05l6.41-7.69l10.68,18.73H543.45z
					 M495.68,630.43h-5.23l-15.22,45.9h5.23L495.68,630.43z M456.13,636.99h-5.51v35.4h5.51V636.99z M440.17,636.99h-5.51v29.16
					h-8.88v6.24h14.38V636.99z M421.69,668.46v-15.4c0-1.95-0.29-3.48-0.87-4.58c-0.58-1.11-1.56-1.89-2.92-2.36
					c-1.37-0.47-3.25-0.7-5.65-0.7c-2.96,0-5.66,0.4-8.12,1.21c-2.46,0.8-4.54,1.97-6.27,3.48c-1.73,1.52-2.99,3.34-3.82,5.48v-9.61
					h-5.51v22.48h5.51c0-5.7,1.3-9.92,3.91-12.67s6.55-4.13,11.83-4.13c2.96,0,5.1,0.2,6.41,0.62v16.18H421.69z M379.66,672.39
					h48.38v-6.24h-48.38V672.39z M366.37,638.67c0.55-0.42,1.02-0.89,1.43-1.43c0.41-0.55,0.62-1.02,0.62-1.43
					c0-0.45-0.21-0.95-0.62-1.49c-0.41-0.55-0.88-1.01-1.4-1.4c-0.52-0.39-1.01-0.59-1.46-0.59c-0.45,0-0.94,0.2-1.49,0.59
					c-0.55,0.39-1.01,0.86-1.4,1.4c-0.39,0.54-0.59,1.04-0.59,1.49c0,0.41,0.2,0.9,0.59,1.46c0.39,0.56,0.87,1.04,1.43,1.43
					c0.56,0.39,1.05,0.59,1.46,0.59C365.34,639.29,365.82,639.09,366.37,638.67 M356.84,666.15v-11.58c0-1.12,0.18-1.88,0.53-2.28
					c0.35-0.39,1-0.59,1.94-0.59h10.73v11.8c0,1.01-0.19,1.7-0.56,2.08c-0.38,0.37-1.03,0.56-1.97,0.56H356.84z M375.55,672.39
					v-25.17c-2.21-0.67-4.23-1.15-6.07-1.43c-1.84-0.28-3.86-0.42-6.07-0.42c-2.43,0-4.46,0.2-6.07,0.62
					c-1.61,0.41-2.88,1.07-3.82,1.97c-0.94,0.9-1.6,2.11-1.99,3.62s-0.59,3.42-0.59,5.7c0,2.14,0.06,3.88,0.17,5.23
					c0.11,1.35,0.3,2.56,0.56,3.65h-16.63c-0.3-0.98-0.52-2.01-0.65-3.09c-0.13-1.09-0.2-2.34-0.2-3.76c0-1.24,0.11-2.54,0.34-3.91
					c0.22-1.37,0.56-2.78,1.01-4.24l-5.28-0.84c-0.49,1.38-0.88,3.01-1.18,4.86c-0.3,1.85-0.45,3.66-0.45,5.42
					c0,2.84,0.28,5.13,0.84,6.86c0.56,1.72,1.46,2.98,2.7,3.76c1.24,0.79,2.85,1.18,4.83,1.18H375.55z M375.55,672.39h6.35v-6.24
					h-6.35V672.39z M302.73,661.23c0,4.06-2.4,6.62-5.82,6.62s-5.77-2.57-5.77-6.62c0-4.11,2.35-6.57,5.77-6.57
					C300.53,654.66,302.73,657.49,302.73,661.23 M308.16,661.12c0-6.68-4.48-10.99-9.98-10.99c-1.17,0-2.35,0.16-3.37,0.58
					l8.18-16.33h-5.82L288.53,652c-1.66,3.3-2.83,6.24-2.83,9.34c0,7.05,4.69,11.37,11.26,11.37
					C303.53,672.7,308.16,668.12,308.16,661.12"/>
			</g>
		</g>
		<g style="clip-path:url(#SVGID_00000091725001396746927680000013385098265883010689_);">
			<g>
				<path class="st3" d="M713.15,518.75v-4.85h-22.63v10.83h5.23v-5.98h11.59l-12.76,33.15h5.87L713.15,518.75z M665,536.16h-12.17
					c0.06-1.66,0.16-2.46,0.7-3.69c0.85-2.03,2.83-3.42,5.39-3.42c2.56,0,4.48,1.39,5.34,3.42C664.79,533.7,664.95,534.5,665,536.16
					 M670.4,539.94v-2.39c0-7.69-4.22-13.03-11.48-13.03c-6.94,0-11.47,5.07-11.47,13.82c0,10.31,5.38,13.87,12.17,13.87
					c4.75,0,7.37-1.44,10.14-4.21l-3.47-3.26c-1.92,1.93-3.52,2.78-6.56,2.78c-4.43,0-6.89-2.94-6.89-7.59H670.4z M641.68,543.63
					c0-4.8-2.99-7.21-8.06-7.64l-4.27-0.38c-2.88-0.26-3.74-1.49-3.74-3.1c0-2.03,1.65-3.47,4.91-3.47c2.56,0,4.96,0.53,6.67,1.97
					l3.42-3.47c-2.51-2.19-5.98-3.04-10.04-3.04c-5.66,0-10.19,2.98-10.19,8.27c0,4.75,2.93,7.05,8.01,7.47l4.32,0.38
					c2.62,0.21,3.63,1.39,3.63,3.2c0,2.56-2.61,3.74-5.92,3.74c-2.67,0-5.61-0.58-7.79-2.83l-3.58,3.57
					c3.2,3.15,6.94,3.89,11.37,3.89C636.87,552.22,641.68,549.29,641.68,543.63 M614.83,543.63c0-4.8-2.99-7.21-8.06-7.64
					l-4.27-0.38c-2.88-0.26-3.74-1.49-3.74-3.1c0-2.03,1.66-3.47,4.91-3.47c2.56,0,4.97,0.53,6.68,1.97l3.42-3.47
					c-2.51-2.19-5.98-3.04-10.04-3.04c-5.66,0-10.2,2.98-10.2,8.27c0,4.75,2.94,7.05,8.01,7.47l4.33,0.38
					c2.61,0.21,3.63,1.39,3.63,3.2c0,2.56-2.62,3.74-5.93,3.74c-2.67,0-5.6-0.58-7.79-2.83l-3.57,3.57
					c3.2,3.15,6.94,3.89,11.37,3.89C610.03,552.22,614.83,549.29,614.83,543.63 M580.45,542.13c0,1.93-0.37,3.21-1.17,4.01
					c-1.44,1.39-2.99,1.55-5.07,1.55c-3.42,0-4.97-1.39-4.97-3.84c0-2.46,1.66-3.91,4.86-3.91h6.36V542.13z M585.89,551.9v-18.09
					c0-6.14-3.73-9.29-11.15-9.29c-4.48,0-7.15,0.9-9.71,3.89l3.57,3.36c1.49-1.92,2.94-2.61,5.93-2.61c4.22,0,5.93,1.65,5.93,5.07
					v1.92h-7.15c-6.19,0-9.34,3.25-9.34,7.79c0,2.29,0.75,4.38,2.13,5.82c1.66,1.65,3.89,2.45,7.26,2.45c3.37,0,5.24-0.8,7.21-2.77
					v2.46H585.89z M559.47,551.9v-4.64h-2.4c-2.19,0-2.93-1.07-2.93-3.15V513.9h-5.44v30.53c0,4,2.24,7.47,7.41,7.47H559.47z
					 M543.46,551.9l-13.62-23.11l12.33-14.89h-7.05l-15.54,19.1v-19.1h-5.75v38h5.75v-11.05l6.41-7.68l10.68,18.73H543.46z
					 M495.68,509.95h-5.23l-15.21,45.9h5.23L495.68,509.95z M456.13,516.5h-5.51v35.4h5.51V516.5z M440.17,516.5h-5.51v29.16h-8.88
					v6.24h14.38V516.5z M421.68,547.97v-15.4c0-1.94-0.29-3.47-0.87-4.58c-0.58-1.1-1.55-1.89-2.92-2.36
					c-1.37-0.47-3.25-0.7-5.65-0.7c-2.96,0-5.66,0.4-8.12,1.21c-2.45,0.81-4.54,1.97-6.27,3.48c-1.72,1.52-2.99,3.34-3.82,5.48
					v-9.61h-5.51v22.48h5.51c0-5.69,1.3-9.92,3.91-12.67c2.61-2.75,6.55-4.13,11.83-4.13c2.96,0,5.1,0.21,6.41,0.62v16.18H421.68z
					 M379.65,551.9h48.38v-6.24h-48.38V551.9z M366.37,518.19c0.55-0.41,1.02-0.89,1.43-1.43c0.42-0.54,0.62-1.02,0.62-1.43
					c0-0.45-0.2-0.94-0.62-1.49c-0.41-0.54-0.88-1.01-1.4-1.4c-0.52-0.39-1.01-0.59-1.46-0.59c-0.45,0-0.94,0.2-1.49,0.59
					c-0.54,0.39-1.01,0.87-1.4,1.4c-0.39,0.55-0.59,1.04-0.59,1.49c0,0.42,0.2,0.9,0.59,1.46c0.39,0.56,0.87,1.04,1.43,1.43
					c0.56,0.39,1.05,0.59,1.46,0.59C365.35,518.81,365.83,518.61,366.37,518.19 M356.84,545.67v-11.58c0-1.12,0.18-1.88,0.53-2.28
					c0.36-0.39,1.01-0.59,1.94-0.59h10.73v11.8c0,1.01-0.19,1.71-0.56,2.08c-0.37,0.38-1.03,0.56-1.97,0.56H356.84z M375.55,551.9
					v-25.17c-2.21-0.67-4.23-1.15-6.07-1.43c-1.83-0.28-3.85-0.42-6.07-0.42c-2.43,0-4.46,0.21-6.07,0.62
					c-1.61,0.42-2.88,1.07-3.82,1.97c-0.93,0.9-1.6,2.11-1.99,3.62s-0.59,3.42-0.59,5.7c0,2.14,0.06,3.88,0.17,5.23
					c0.11,1.35,0.3,2.57,0.56,3.65h-16.63c-0.3-0.97-0.51-2-0.65-3.09c-0.13-1.08-0.2-2.34-0.2-3.76c0-1.24,0.11-2.53,0.34-3.91
					c0.22-1.37,0.56-2.78,1.01-4.24l-5.28-0.84c-0.48,1.39-0.88,3.01-1.18,4.86c-0.3,1.85-0.45,3.66-0.45,5.42
					c0,2.85,0.28,5.14,0.84,6.86c0.56,1.73,1.46,2.98,2.7,3.76s2.85,1.18,4.83,1.18H375.55z M375.55,551.9h6.35v-6.24h-6.35V551.9z
					 M308.7,518.75v-4.85h-22.63v10.83h5.23v-5.98h11.59l-12.76,33.15H296L308.7,518.75z"/>
			</g>
		</g>
		<g style="clip-path:url(#SVGID_00000091725001396746927680000013385098265883010689_);">
			<g>
				<path class="st3" d="M712.72,778.87c0-3.58-0.42-7.27-3.3-10.14c-1.55-1.55-3.84-2.45-6.83-2.45c-2.78,0-5.02,0.85-6.3,2.19
					v-10.04h15.59v-4.85h-20.49v20.76h4.96c0.58-1.87,2.3-3.42,5.39-3.42c4.38,0,5.56,3.42,5.56,7.96c0,2.56-0.21,5.07-1.82,6.68
					c-0.96,0.96-2.35,1.49-3.95,1.49c-3.42,0-5.13-1.92-5.56-5.29h-5.43c0.21,2.73,0.85,5.24,2.88,7.26
					c1.65,1.65,4.48,2.93,8.11,2.93c3.69,0,6.3-1.28,8.01-2.98C712.3,786.19,712.72,782.93,712.72,778.87 M665,775.83h-12.17
					c0.05-1.66,0.16-2.46,0.69-3.69c0.85-2.03,2.83-3.42,5.39-3.42c2.56,0,4.48,1.39,5.34,3.42
					C664.79,773.38,664.95,774.17,665,775.83 M670.39,779.61v-2.39c0-7.69-4.21-13.03-11.47-13.03c-6.94,0-11.47,5.06-11.47,13.82
					c0,10.31,5.39,13.87,12.17,13.87c4.75,0,7.37-1.44,10.14-4.21l-3.47-3.26c-1.92,1.92-3.52,2.78-6.57,2.78
					c-4.43,0-6.88-2.94-6.88-7.59H670.39z M641.68,783.3c0-4.8-2.99-7.21-8.06-7.64l-4.27-0.38c-2.88-0.26-3.74-1.49-3.74-3.1
					c0-2.03,1.66-3.47,4.91-3.47c2.56,0,4.97,0.53,6.68,1.98l3.42-3.47c-2.51-2.19-5.98-3.04-10.04-3.04
					c-5.66,0-10.2,2.98-10.2,8.27c0,4.75,2.94,7.05,8.01,7.47l4.33,0.38c2.61,0.21,3.63,1.39,3.63,3.2c0,2.56-2.62,3.74-5.93,3.74
					c-2.67,0-5.6-0.58-7.79-2.83l-3.57,3.58c3.2,3.15,6.94,3.89,11.37,3.89C636.88,791.89,641.68,788.96,641.68,783.3 M614.83,783.3
					c0-4.8-2.99-7.21-8.06-7.64l-4.27-0.38c-2.88-0.26-3.74-1.49-3.74-3.1c0-2.03,1.65-3.47,4.91-3.47c2.56,0,4.96,0.53,6.67,1.98
					l3.42-3.47c-2.51-2.19-5.98-3.04-10.04-3.04c-5.66,0-10.19,2.98-10.19,8.27c0,4.75,2.93,7.05,8.01,7.47l4.32,0.38
					c2.62,0.21,3.63,1.39,3.63,3.2c0,2.56-2.61,3.74-5.92,3.74c-2.67,0-5.61-0.58-7.79-2.83l-3.58,3.58
					c3.2,3.15,6.94,3.89,11.37,3.89C610.02,791.89,614.83,788.96,614.83,783.3 M580.45,781.8c0,1.93-0.38,3.21-1.17,4.01
					c-1.44,1.39-2.99,1.55-5.07,1.55c-3.42,0-4.97-1.39-4.97-3.84c0-2.46,1.65-3.91,4.86-3.91h6.36V781.8z M585.89,791.57v-18.09
					c0-6.14-3.73-9.29-11.15-9.29c-4.49,0-7.15,0.9-9.72,3.89l3.57,3.36c1.49-1.92,2.94-2.62,5.93-2.62c4.22,0,5.93,1.66,5.93,5.08
					v1.92h-7.16c-6.19,0-9.34,3.25-9.34,7.79c0,2.29,0.75,4.38,2.14,5.82c1.65,1.65,3.89,2.45,7.26,2.45s5.23-0.8,7.21-2.77v2.45
					H585.89z M559.47,791.57v-4.64h-2.4c-2.19,0-2.94-1.07-2.94-3.15v-30.21h-5.43v30.53c0,4,2.24,7.46,7.41,7.46H559.47z
					 M543.45,791.57l-13.61-23.11l12.33-14.89h-7.05l-15.53,19.1v-19.1h-5.76v38h5.76v-11.05l6.41-7.68l10.68,18.73H543.45z
					 M495.68,749.62h-5.23l-15.22,45.9h5.23L495.68,749.62z M456.13,756.18h-5.51v35.4h5.51V756.18z M440.17,756.18h-5.51v29.16
					h-8.88v6.24h14.38V756.18z M421.69,787.64v-15.4c0-1.95-0.29-3.47-0.87-4.58c-0.58-1.11-1.56-1.89-2.92-2.36
					c-1.37-0.47-3.25-0.7-5.65-0.7c-2.96,0-5.67,0.4-8.12,1.21c-2.46,0.8-4.54,1.97-6.27,3.48c-1.73,1.52-3,3.34-3.82,5.48v-9.61
					h-5.51v22.48h5.51c0-5.69,1.3-9.92,3.91-12.67c2.6-2.75,6.55-4.13,11.83-4.13c2.96,0,5.1,0.21,6.41,0.62v16.18H421.69z
					 M379.66,791.58h48.38v-6.24h-48.38V791.58z M366.37,757.86c0.55-0.41,1.02-0.89,1.43-1.43c0.41-0.55,0.62-1.02,0.62-1.43
					c0-0.45-0.21-0.94-0.62-1.49c-0.41-0.55-0.88-1.01-1.4-1.4c-0.52-0.39-1.01-0.59-1.46-0.59c-0.45,0-0.94,0.2-1.49,0.59
					c-0.55,0.39-1.01,0.86-1.4,1.4c-0.39,0.55-0.59,1.04-0.59,1.49c0,0.41,0.2,0.9,0.59,1.46c0.39,0.56,0.87,1.04,1.43,1.43
					c0.56,0.39,1.05,0.59,1.46,0.59C365.34,758.48,365.82,758.27,366.37,757.86 M356.84,785.34v-11.58c0-1.12,0.18-1.88,0.53-2.28
					c0.35-0.39,1-0.59,1.94-0.59h10.73v11.8c0,1.01-0.19,1.7-0.56,2.08c-0.38,0.38-1.03,0.56-1.97,0.56H356.84z M375.55,791.58
					V766.4c-2.21-0.67-4.23-1.15-6.07-1.43c-1.84-0.28-3.86-0.42-6.07-0.42c-2.43,0-4.46,0.21-6.07,0.62
					c-1.61,0.41-2.88,1.07-3.82,1.97s-1.6,2.11-1.99,3.62s-0.59,3.42-0.59,5.7c0,2.14,0.06,3.88,0.17,5.23
					c0.11,1.35,0.3,2.57,0.56,3.65h-16.63c-0.3-0.97-0.52-2.01-0.65-3.09c-0.13-1.08-0.2-2.34-0.2-3.76c0-1.24,0.11-2.54,0.34-3.91
					c0.22-1.37,0.56-2.78,1.01-4.24l-5.28-0.84c-0.49,1.39-0.88,3.01-1.18,4.86s-0.45,3.66-0.45,5.42c0,2.85,0.28,5.13,0.84,6.86
					s1.46,2.98,2.7,3.76s2.85,1.18,4.83,1.18H375.55z M375.55,791.58h6.35v-6.24h-6.35V791.58z M308.27,778.87
					c0-3.58-0.43-7.27-3.3-10.14c-1.55-1.55-3.84-2.45-6.83-2.45c-2.78,0-5.02,0.85-6.3,2.19v-10.04h15.59v-4.85h-20.49v20.76h4.96
					c0.59-1.87,2.3-3.42,5.4-3.42c4.38,0,5.55,3.42,5.55,7.96c0,2.56-0.21,5.07-1.81,6.68c-0.96,0.96-2.35,1.49-3.95,1.49
					c-3.42,0-5.13-1.92-5.56-5.29h-5.44c0.21,2.73,0.85,5.24,2.88,7.26c1.65,1.65,4.48,2.93,8.11,2.93c3.68,0,6.3-1.28,8.01-2.98
					C307.84,786.19,308.27,782.93,308.27,778.87"/>
			</g>
		</g>
	</g>
</g>
</svg>
