<?xml version="1.0" encoding="utf-8"?>
<!-- Generator: Adobe Illustrator 26.2.1, SVG Export Plug-In . SVG Version: 6.00 Build 0)  -->
<svg version="1.1" id="Ebene_1" xmlns="http://www.w3.org/2000/svg" xmlns:xlink="http://www.w3.org/1999/xlink" x="0px" y="0px"
	 viewBox="0 0 1000 819.82" style="enable-background:new 0 0 1000 819.82;" xml:space="preserve">
<style type="text/css">
	.st0{fill:#A2B9E1;}
	.st1{fill:#6796CF;}
	.st2{clip-path:url(#SVGID_00000094581058488929253870000015380584678124217245_);}
	.st3{fill:#2B2961;}
	.st4{fill:#FFFFFF;}
	.st5{clip-path:url(#SVGID_00000026846452726303083040000013765853659022856072_);}
	.st6{clip-path:url(#SVGID_00000140716282601494382500000001846404639979553429_);}
	.st7{clip-path:url(#SVGID_00000175319518271494820660000004924522477329302696_);}
	.st8{clip-path:url(#SVGID_00000083051588401638419830000016624690685719671975_);}
	.st9{clip-path:url(#SVGID_00000178175037088569251130000009048540986994445468_);}
	.st10{opacity:0.52;clip-path:url(#SVGID_00000142147438055129498620000004834409878167622822_);}
	.st11{clip-path:url(#SVGID_00000047749119291006797610000018213273210652350108_);}
	.st12{clip-path:url(#SVGID_00000073694380042870837930000005171443453318850722_);}
	.st13{clip-path:url(#SVGID_00000059291126705026455020000015994347672981178259_);}
	.st14{clip-path:url(#SVGID_00000143612687923027185880000002224428432326405001_);}
	.st15{clip-path:url(#SVGID_00000093134677377470604750000016068441974891529151_);}
	.st16{clip-path:url(#SVGID_00000053506240773021089950000002563424125531280776_);}
	.st17{clip-path:url(#SVGID_00000163794376075225701140000008710394882186506915_);}
	.st18{clip-path:url(#SVGID_00000170979298019664565980000005288877657079465126_);}
	.st19{clip-path:url(#SVGID_00000084530689081521018820000005593419572195501243_);}
	.st20{clip-path:url(#SVGID_00000125566472275532464340000012188910110667859900_);}
	.st21{clip-path:url(#SVGID_00000051360688259053518450000016560192456903985553_);}
	.st22{clip-path:url(#SVGID_00000121280590393742302210000006917338317687550125_);}
	.st23{fill:none;stroke:#2B2961;stroke-width:0.374;stroke-linejoin:round;stroke-miterlimit:10;}
	.st24{fill:none;stroke:#2B2961;stroke-width:0.4;stroke-miterlimit:10;}
	.st25{clip-path:url(#SVGID_00000021092451895324558900000004778665998205023423_);}
	.st26{clip-path:url(#SVGID_00000067939168709773284070000009806492513107137668_);}
	.st27{clip-path:url(#SVGID_00000041982937233832733000000017761698720142985859_);}
	.st28{clip-path:url(#SVGID_00000059290997186100897490000000102143975907789974_);}
	.st29{clip-path:url(#SVGID_00000165951212677366412360000014700836579369626759_);}
	.st30{clip-path:url(#SVGID_00000090261412233429840020000014792393303858427566_);}
	.st31{clip-path:url(#SVGID_00000034053460301577149620000011185279267659994042_);}
	.st32{clip-path:url(#SVGID_00000183207921717961573220000014224055839326697114_);}
	.st33{clip-path:url(#SVGID_00000160910263374960936540000018007103826322295426_);}
	.st34{clip-path:url(#SVGID_00000082360216370319126480000001458336160508623011_);}
	.st35{clip-path:url(#SVGID_00000091713345563844787970000016124024782334807975_);}
	.st36{clip-path:url(#SVGID_00000154403733117537796340000004987987621487209863_);}
	.st37{clip-path:url(#SVGID_00000124873131287565836370000003055197654382539705_);}
	.st38{clip-path:url(#SVGID_00000122697316686296240370000012959213052815983535_);}
	.st39{clip-path:url(#SVGID_00000058556368141678551220000002510013817619799712_);}
	.st40{clip-path:url(#SVGID_00000120549581363717075710000000774986483059449532_);}
	.st41{clip-path:url(#SVGID_00000040562654597348969960000011174064352609690515_);}
	.st42{clip-path:url(#SVGID_00000063608188745791245650000000558968183160492424_);}
	.st43{clip-path:url(#SVGID_00000158717997838091288370000017500595344248193157_);}
	.st44{clip-path:url(#SVGID_00000170981110319403632230000005794573374613779332_);}
	.st45{clip-path:url(#SVGID_00000069375437180724905680000011336036558628160699_);}
	.st46{clip-path:url(#SVGID_00000078729277404277732870000013660977312416326808_);}
	.st47{clip-path:url(#SVGID_00000174563626298573315040000015238291694022049201_);}
	.st48{clip-path:url(#SVGID_00000134954674683173507820000018415638457438236088_);}
	.st49{clip-path:url(#SVGID_00000100366654876906561920000003843665980745369766_);}
	.st50{clip-path:url(#SVGID_00000150806345202069551670000000803704333746788521_);}
	.st51{clip-path:url(#SVGID_00000025421190776346777540000015328772576738447232_);}
	.st52{clip-path:url(#SVGID_00000079458839751433379300000005803308584480804526_);}
	.st53{clip-path:url(#SVGID_00000141430256264968230470000010140793190768631957_);}
	.st54{clip-path:url(#SVGID_00000155119414077047470260000003688496766135145649_);}
	.st55{clip-path:url(#SVGID_00000084516537613589781800000010873532173356419218_);}
	.st56{clip-path:url(#SVGID_00000020363783493614498980000007416733750989795509_);}
	.st57{clip-path:url(#SVGID_00000160895240764038408830000016087500530485418681_);}
	.st58{clip-path:url(#SVGID_00000127026474039367635350000003513191256133923457_);}
	.st59{clip-path:url(#SVGID_00000132797624424520513540000002182923949944593281_);}
	.st60{clip-path:url(#SVGID_00000109735934049138284300000007099393153918591888_);}
	.st61{clip-path:url(#SVGID_00000021827741072801480940000003614171273888202907_);}
	.st62{fill:#9AB4DE;}
	.st63{clip-path:url(#SVGID_00000154417974117043361430000015480314812200983214_);}
	.st64{clip-path:url(#SVGID_00000120535924740822134420000010399675148773117108_);}
	.st65{clip-path:url(#SVGID_00000170966726732579759990000004184452198088447422_);}
	.st66{fill:#B9C9E9;}
	.st67{clip-path:url(#SVGID_00000062163334329534265050000010538988267702013358_);}
	.st68{clip-path:url(#SVGID_00000003068872816228768150000011981134894663213232_);}
	.st69{clip-path:url(#SVGID_00000096056706223751789560000011690514943586979500_);}
	.st70{clip-path:url(#SVGID_00000125577818742481078380000011175264935099839873_);}
	.st71{clip-path:url(#SVGID_00000064311584209515541720000007428456063789922476_);}
	.st72{clip-path:url(#SVGID_00000183960377424172759990000011132761029251641023_);}
	.st73{clip-path:url(#SVGID_00000044877767899854256060000008227603202031604355_);}
	.st74{clip-path:url(#SVGID_00000029011268257448152560000005432522032009162166_);}
	.st75{clip-path:url(#SVGID_00000153694913532546135850000010044361434711122366_);}
	.st76{clip-path:url(#SVGID_00000068654142329518790750000006118697458898124464_);}
	.st77{clip-path:url(#SVGID_00000005228974397097571770000000410114240376090038_);}
	.st78{clip-path:url(#SVGID_00000124139520139291745880000003354585124512075196_);}
	.st79{clip-path:url(#SVGID_00000039836148982801023390000003235576431102149565_);}
	.st80{clip-path:url(#SVGID_00000157309539255930381620000003861116999566146467_);}
	.st81{clip-path:url(#SVGID_00000069356853543642004240000012092841546992631946_);}
	.st82{clip-path:url(#SVGID_00000080892392192031498840000003148198318549342102_);}
	.st83{clip-path:url(#SVGID_00000136402935143478810230000018309818318952335513_);}
	.st84{clip-path:url(#SVGID_00000176031696919265428410000012944923337649563824_);}
	.st85{clip-path:url(#SVGID_00000111192200501235105600000013574000279255324326_);}
	.st86{clip-path:url(#SVGID_00000122714672740244881860000013212834216125237905_);}
	.st87{clip-path:url(#SVGID_00000013160506730175548590000002426179718689236882_);}
	.st88{clip-path:url(#SVGID_00000002368047975465416480000008255097859261897088_);}
	.st89{clip-path:url(#SVGID_00000091715735361837481090000000149035312344279172_);}
	.st90{clip-path:url(#SVGID_00000087369999200922561410000006880247510468049579_);}
	.st91{clip-path:url(#SVGID_00000111885145829854761380000017698996746773920666_);}
	.st92{clip-path:url(#SVGID_00000002362382150088329160000009072608123015596714_);}
	.st93{clip-path:url(#SVGID_00000129197338833686698460000010162811359754240408_);}
	.st94{clip-path:url(#SVGID_00000074416365688009152660000016675433824298782900_);}
	.st95{clip-path:url(#SVGID_00000156564292125631997860000011699357933915810491_);}
	.st96{clip-path:url(#SVGID_00000116921303806505303550000013272236390572476312_);}
	.st97{clip-path:url(#SVGID_00000071537775996135689940000001604830503067336835_);}
	.st98{clip-path:url(#SVGID_00000071534937244074831120000001483092801700571550_);}
	.st99{clip-path:url(#SVGID_00000066492480338324238000000016006785199797630102_);}
	.st100{clip-path:url(#SVGID_00000143589174897724541890000006959899604449735324_);}
	.st101{clip-path:url(#SVGID_00000073709735048664454880000000568917284791280769_);}
	.st102{clip-path:url(#SVGID_00000105417638715070108720000011319759668078397315_);}
	.st103{clip-path:url(#SVGID_00000152945925418136842490000000971472918438693301_);}
	.st104{clip-path:url(#SVGID_00000151523414039997507130000016474332978113154702_);}
	.st105{clip-path:url(#SVGID_00000009567224341708355210000018048296474845683606_);}
	.st106{clip-path:url(#SVGID_00000049932723129382952620000004946433373995247804_);}
	.st107{clip-path:url(#SVGID_00000022552727123950989960000005268083648903984062_);}
	.st108{clip-path:url(#SVGID_00000046297560591115946440000012352906473695606414_);}
	.st109{clip-path:url(#SVGID_00000176740431239422014430000017807864785478305691_);}
	.st110{clip-path:url(#SVGID_00000030487351264053538390000010628813032511216512_);}
	.st111{clip-path:url(#SVGID_00000008842717776777563380000011427559793225060232_);}
	.st112{clip-path:url(#SVGID_00000176006091182546432340000015620810119040414618_);}
	.st113{clip-path:url(#SVGID_00000028324374016975466760000007616639275172601755_);}
	.st114{clip-path:url(#SVGID_00000055686416682001358160000003769135024873830832_);}
	.st115{clip-path:url(#SVGID_00000086669653793948460100000010119272304410722740_);}
	.st116{clip-path:url(#SVGID_00000108304569728587158550000015099077814517731473_);}
	.st117{clip-path:url(#SVGID_00000013895003444898136900000011559122259186851252_);}
	.st118{clip-path:url(#SVGID_00000095339913265708074330000007179937377343139508_);}
	.st119{clip-path:url(#SVGID_00000020370755409039650370000011787772694855305894_);}
	.st120{clip-path:url(#SVGID_00000152973651444285837790000013857634354516714163_);}
	.st121{clip-path:url(#SVGID_00000150794617925549890550000000665081650795669657_);}
	.st122{clip-path:url(#SVGID_00000172432706834602453250000011336607087642430120_);}
	.st123{clip-path:url(#SVGID_00000135651352081820564920000006499848921077516958_);}
	.st124{clip-path:url(#SVGID_00000020377054679818889810000018378870173469676177_);}
	.st125{clip-path:url(#SVGID_00000177468070060340838760000003502300989037770148_);}
	.st126{clip-path:url(#SVGID_00000160901390058174280680000000199182545865000336_);}
	.st127{clip-path:url(#SVGID_00000030479993744229593090000003100966074637885091_);}
	.st128{clip-path:url(#SVGID_00000177446713433511739860000008793039710848520342_);}
	.st129{clip-path:url(#SVGID_00000042000804773619387570000011905422241375596962_);}
	.st130{clip-path:url(#SVGID_00000159459584796719193820000011905662142839617702_);}
	.st131{clip-path:url(#SVGID_00000160188456379485896380000016964653236905930636_);}
	.st132{clip-path:url(#SVGID_00000056399097082448766530000007171151187172104324_);}
	.st133{clip-path:url(#SVGID_00000098180158070843495520000014303048622632741034_);}
	.st134{clip-path:url(#SVGID_00000050634840415342675810000012706090853820501647_);}
	.st135{clip-path:url(#SVGID_00000157299457088899270940000000445909726491953328_);}
	.st136{clip-path:url(#SVGID_00000017500571741568728210000006626675723371047102_);}
	.st137{clip-path:url(#SVGID_00000101096908055697361310000008038804699369748925_);}
	.st138{clip-path:url(#SVGID_00000096773911441194089420000003743232660522766469_);}
	.st139{clip-path:url(#SVGID_00000096028083196629748270000014447751127234139019_);}
	.st140{clip-path:url(#SVGID_00000139972878852348699150000016777811405471581870_);}
	.st141{clip-path:url(#SVGID_00000124126975526750389930000006165594914591495322_);}
	.st142{clip-path:url(#SVGID_00000036939625936412644140000002695975430816638893_);}
	.st143{clip-path:url(#SVGID_00000121973810264654553480000008707438342779300765_);}
	.st144{clip-path:url(#SVGID_00000054266396033326141360000006801111722144108470_);}
	.st145{clip-path:url(#SVGID_00000027587023478780211540000007022514669400122300_);}
	.st146{clip-path:url(#SVGID_00000067931827652399498640000003185866242574294925_);}
	.st147{clip-path:url(#SVGID_00000103961968658619234450000005652073759060019372_);}
	.st148{clip-path:url(#SVGID_00000088815356921131712900000013754863390349892249_);}
	.st149{clip-path:url(#SVGID_00000123425712586706559730000013359744942337384591_);}
	.st150{clip-path:url(#SVGID_00000072993834444616843070000011483938974136669325_);}
	.st151{clip-path:url(#SVGID_00000180349943610043128970000011088859082570065316_);}
	.st152{clip-path:url(#SVGID_00000141448592752484465620000004479384965941115287_);}
	.st153{clip-path:url(#SVGID_00000163761253546389449340000010576857301346616717_);}
	.st154{clip-path:url(#SVGID_00000034068196344730549020000001818598862539696517_);}
	.st155{clip-path:url(#SVGID_00000150091228613449780270000007779938650431332245_);}
	.st156{clip-path:url(#SVGID_00000145049364012457499880000017591141357763937950_);}
	.st157{clip-path:url(#SVGID_00000067952973492986566240000018307861227568793507_);}
	.st158{clip-path:url(#SVGID_00000067935227313751684650000007040639351329374398_);}
	.st159{clip-path:url(#SVGID_00000020386032469641090610000001380918936610476940_);}
	.st160{clip-path:url(#SVGID_00000031180098124961584740000013221152626495434942_);}
	.st161{clip-path:url(#SVGID_00000131356346054410591090000006942176299282172033_);}
	.st162{clip-path:url(#SVGID_00000037683851888542744050000002717278177117284243_);}
	.st163{clip-path:url(#SVGID_00000128445851502832968600000007115780358301537669_);}
	.st164{clip-path:url(#SVGID_00000183948948187839741740000002685189555174065585_);}
	.st165{clip-path:url(#SVGID_00000126285984199000231470000001046928838139032760_);}
	.st166{clip-path:url(#SVGID_00000139285325234661521250000006583982425347996034_);}
	.st167{clip-path:url(#SVGID_00000001636934403265342890000017676547831052199556_);}
	.st168{clip-path:url(#SVGID_00000009554963457994933140000016699904428863569817_);}
	.st169{clip-path:url(#SVGID_00000026864916932233318160000011859096817340666242_);}
	.st170{clip-path:url(#SVGID_00000142872951343434553510000011602779057872716979_);}
	.st171{clip-path:url(#SVGID_00000003795007443635575600000016179629208090157965_);}
	.st172{clip-path:url(#SVGID_00000059281324655280123280000006932036578138139307_);}
	.st173{clip-path:url(#SVGID_00000165232209091910430250000009621695186096719535_);}
	.st174{clip-path:url(#SVGID_00000180356108297941466640000001430657126983936681_);}
	.st175{clip-path:url(#SVGID_00000061471822973188460500000004312608377392717974_);}
	.st176{clip-path:url(#SVGID_00000152942879603235769230000015066320451431879817_);}
	.st177{clip-path:url(#SVGID_00000031916273965574428600000002910216665989076106_);}
	.st178{clip-path:url(#SVGID_00000023244990587532963210000003062159595477573038_);}
	.st179{clip-path:url(#SVGID_00000023979946176376756750000004572347959619766705_);}
	.st180{clip-path:url(#SVGID_00000013191797156341508180000009685199647282592166_);}
	.st181{clip-path:url(#SVGID_00000051353249198599556860000009255194129367138955_);}
	.st182{clip-path:url(#SVGID_00000165213845396459424150000003648635734306904993_);}
	.st183{clip-path:url(#SVGID_00000148655966731860792310000002587843605104737426_);}
	.st184{clip-path:url(#SVGID_00000039112462714661015840000001006464102520258478_);}
	.st185{clip-path:url(#SVGID_00000143610490750907749180000017852624974206471565_);}
	.st186{clip-path:url(#SVGID_00000087400292094213863290000009498978986489985437_);}
	.st187{clip-path:url(#SVGID_00000096766699675513051600000009441317241891014545_);}
	.st188{clip-path:url(#SVGID_00000074429891563955554070000013239027519397392548_);}
	.st189{clip-path:url(#SVGID_00000044874315750059690270000001572075811673635741_);}
	.st190{clip-path:url(#SVGID_00000088855521394967593750000008265545371117907873_);}
	.st191{clip-path:url(#SVGID_00000168795355422323587370000008557710043362835330_);}
	.st192{clip-path:url(#SVGID_00000102515851969508946360000001682871685182936710_);}
	.st193{clip-path:url(#SVGID_00000000196871772407109630000017243165500436327074_);}
	.st194{clip-path:url(#SVGID_00000178183798340059881380000003139301717305723052_);}
	.st195{clip-path:url(#SVGID_00000078745287992835560190000017760279072921900178_);}
	.st196{clip-path:url(#SVGID_00000072243218018531308000000013795392057624811663_);}
	.st197{clip-path:url(#SVGID_00000049909501232148423870000006609362578682653108_);}
	.st198{clip-path:url(#SVGID_00000095320003687491818020000002878535158817630388_);}
	.st199{clip-path:url(#SVGID_00000183956497784252070660000014798151756132197525_);}
	.st200{clip-path:url(#SVGID_00000060004437126693511200000017981727493521396135_);}
	.st201{clip-path:url(#SVGID_00000003103642839978237610000004720654117104838825_);}
	.st202{clip-path:url(#SVGID_00000175312346957690065360000006139388862394467474_);}
	.st203{clip-path:url(#SVGID_00000150789935063425863890000000993945116651703958_);}
	.st204{clip-path:url(#SVGID_00000106118197403861963680000000578564871003621038_);}
	.st205{clip-path:url(#SVGID_00000072246715499460614100000000278721234297802907_);}
	.st206{clip-path:url(#SVGID_00000175323233863856683600000011960506026547611782_);}
	.st207{clip-path:url(#SVGID_00000093134519515428391520000017726827174845597862_);}
	.st208{clip-path:url(#SVGID_00000139260560853547964800000003998584043578629507_);}
	.st209{clip-path:url(#SVGID_00000104698262597988623020000001985067317061807806_);}
	.st210{clip-path:url(#SVGID_00000179639962791126144860000017884815035356636333_);}
	.st211{clip-path:url(#SVGID_00000041264436077070403790000006722813882521304993_);}
	.st212{clip-path:url(#SVGID_00000170269506530803103620000014634323262397617577_);}
	.st213{clip-path:url(#SVGID_00000167393151622652760910000017874179309883713430_);}
	.st214{clip-path:url(#SVGID_00000021085800886672736370000017474108806577397402_);}
	.st215{clip-path:url(#SVGID_00000031901208344611540150000006501696816247703172_);}
	.st216{clip-path:url(#SVGID_00000033329348109332023790000004651303034228437174_);}
	.st217{clip-path:url(#SVGID_00000018223664066680713910000002284457474378837637_);}
	.st218{clip-path:url(#SVGID_00000056425130704426800930000008492534774755424700_);}
	.st219{clip-path:url(#SVGID_00000029016324898052033110000007610877873005529242_);}
	.st220{clip-path:url(#SVGID_00000084522276794522534640000014760744455128939192_);}
	.st221{clip-path:url(#SVGID_00000044176191194348085410000015669014265866306185_);}
	.st222{clip-path:url(#SVGID_00000036949014431354603910000010268885796319137428_);}
	.st223{clip-path:url(#SVGID_00000155126068154236698760000000717668003251687301_);}
	.st224{clip-path:url(#SVGID_00000087391089118744155870000012413558065357200022_);}
	.st225{clip-path:url(#SVGID_00000060711505819481389730000012940817487469831851_);}
	.st226{clip-path:url(#SVGID_00000082357841093869711040000006125312111699344318_);}
	.st227{clip-path:url(#SVGID_00000153690766289161181520000012411535300870678676_);}
	.st228{clip-path:url(#SVGID_00000147919473142353517470000002996580158242569147_);}
	.st229{clip-path:url(#SVGID_00000054983178181552840450000012164237846795896745_);}
	.st230{clip-path:url(#SVGID_00000011005360718261034150000007130004749615263899_);}
	.st231{clip-path:url(#SVGID_00000112610633048739969020000005308808965233316997_);}
	.st232{clip-path:url(#SVGID_00000009567167335420169060000002126935026053713803_);}
	.st233{clip-path:url(#SVGID_00000019670651448817839890000008955448113584338348_);}
	.st234{clip-path:url(#SVGID_00000013908921240608843720000005220773836743852425_);}
	.st235{clip-path:url(#SVGID_00000136384816703613437170000015659802602762808723_);}
	.st236{clip-path:url(#SVGID_00000090972940594835881670000005561946185060075936_);}
	.st237{clip-path:url(#SVGID_00000103222789222131270190000015887043033687789715_);}
	.st238{clip-path:url(#SVGID_00000148634611395125342320000013555652004672269451_);}
	.st239{clip-path:url(#SVGID_00000080912124050906141720000009169380296002185395_);}
	.st240{clip-path:url(#SVGID_00000178885037469020838160000011079186650407329672_);}
	.st241{clip-path:url(#SVGID_00000012461904812425336630000007641930459778765748_);}
	.st242{clip-path:url(#SVGID_00000143617250831290051850000002898890221094330808_);}
	.st243{clip-path:url(#SVGID_00000061438327693828787260000010365121896663815084_);}
	.st244{clip-path:url(#SVGID_00000169522212640283058140000014891920508127656599_);}
	.st245{clip-path:url(#SVGID_00000103251029386923688970000014728984700855698869_);}
	.st246{clip-path:url(#SVGID_00000044881284991579415060000006067576765405861761_);}
	.st247{clip-path:url(#SVGID_00000110452168125200374150000013576445860673973909_);}
	.st248{clip-path:url(#SVGID_00000172403903704526102570000015790925174199379091_);}
	.st249{clip-path:url(#SVGID_00000116935497116316541410000008519128207644160921_);}
	.st250{clip-path:url(#SVGID_00000142173869988679694180000005068307072998974636_);}
	.st251{clip-path:url(#SVGID_00000072992502501647719070000013508528202487472301_);}
	.st252{clip-path:url(#SVGID_00000173874983058490763860000001001144076298775177_);}
	.st253{clip-path:url(#SVGID_00000144327889308628517000000016124607625603308954_);}
	.st254{clip-path:url(#SVGID_00000073709072204730393890000008412818152023623584_);}
	.st255{clip-path:url(#SVGID_00000090253982892735526370000012274991931408766080_);}
	.st256{clip-path:url(#SVGID_00000052814611667642057010000012299034890920605057_);}
	.st257{clip-path:url(#SVGID_00000033334854107660946310000004124503588892308616_);}
	.st258{clip-path:url(#SVGID_00000139253163022342678240000001980355818590321577_);}
	.st259{clip-path:url(#SVGID_00000129197440304444806490000016184425416470127524_);}
	.st260{clip-path:url(#SVGID_00000097475667958369493110000012196802510627186824_);}
	.st261{clip-path:url(#SVGID_00000012457620880964281090000005192900285239494565_);}
	.st262{clip-path:url(#SVGID_00000051354207851121645870000014334406176942946459_);}
	.st263{clip-path:url(#SVGID_00000158723074273140913120000004053782129323593129_);}
	.st264{clip-path:url(#SVGID_00000085934247751774092730000006229461589610762898_);}
	.st265{clip-path:url(#SVGID_00000040550342232371724610000016136370618210822554_);}
	.st266{clip-path:url(#SVGID_00000026158182362218725810000012383836206618523535_);}
	.st267{clip-path:url(#SVGID_00000111905730772019570150000002152818739120651701_);}
	.st268{clip-path:url(#SVGID_00000163761734098827884210000009847837050018417080_);}
	.st269{clip-path:url(#SVGID_00000009590921708364589210000001963071669196592307_);}
	.st270{clip-path:url(#SVGID_00000008134122088428051980000001247098774385979544_);}
	.st271{clip-path:url(#SVGID_00000161599935659083838950000013165178233895474077_);}
	.st272{clip-path:url(#SVGID_00000094578301652908707390000011851565151984123790_);}
	.st273{clip-path:url(#SVGID_00000163776490064018526850000001931116574883589293_);}
	.st274{clip-path:url(#SVGID_00000142156964702125535400000006040061095776825481_);}
	.st275{clip-path:url(#SVGID_00000098913130343248002570000011583687094850664076_);}
	.st276{clip-path:url(#SVGID_00000063627545614248614820000009878757000057283235_);}
	.st277{clip-path:url(#SVGID_00000166640154529839635470000010457435857103118208_);}
	.st278{clip-path:url(#SVGID_00000035496942238510135710000015874458057432453305_);}
	.st279{clip-path:url(#SVGID_00000046318756413930253610000013413834513921910206_);}
	.st280{clip-path:url(#SVGID_00000152952354862294658640000002564763232611173031_);}
	.st281{clip-path:url(#SVGID_00000087405909040212661070000014784238880772598957_);}
	.st282{clip-path:url(#SVGID_00000178177534691730708660000012666840365901269932_);}
	.st283{clip-path:url(#SVGID_00000072262551666642934870000013424985807442424989_);}
	.st284{clip-path:url(#SVGID_00000042009330846509395620000006962290023552237223_);}
	.st285{clip-path:url(#SVGID_00000044168807159567856710000010792413866405546133_);}
	.st286{clip-path:url(#SVGID_00000056406485457696427910000013218809973529931149_);}
	.st287{clip-path:url(#SVGID_00000001632883513934438640000000041236281714753455_);}
	.st288{clip-path:url(#SVGID_00000017501189444587583690000016857085850790064573_);}
	.st289{clip-path:url(#SVGID_00000012432681541473797700000007933105111666996645_);}
	.st290{clip-path:url(#SVGID_00000008847171000595994010000002588307705668219783_);}
	.st291{clip-path:url(#SVGID_00000084499074806847595640000012041166066319864473_);}
	.st292{clip-path:url(#SVGID_00000012457516819265058590000004334904690339281034_);}
	.st293{clip-path:url(#SVGID_00000150096109122061098330000001782761012664730025_);}
	.st294{clip-path:url(#SVGID_00000116195154515507378510000010862748010689435071_);}
	.st295{clip-path:url(#SVGID_00000034084829480494691630000015144900899641413299_);}
	.st296{clip-path:url(#SVGID_00000091715802459005922090000004492944030493524119_);}
	.st297{clip-path:url(#SVGID_00000099659050475174347160000014661237239725566081_);}
	.st298{clip-path:url(#SVGID_00000031894663793554492140000015331832278960356279_);}
	.st299{clip-path:url(#SVGID_00000003083916159374681970000014243475946333499563_);}
	.st300{clip-path:url(#SVGID_00000027600462909562608860000016619444547948040577_);}
	.st301{clip-path:url(#SVGID_00000142856109519237320590000012856698478373694127_);}
	.st302{clip-path:url(#SVGID_00000131343892540741871860000000662653580884426630_);}
	.st303{clip-path:url(#SVGID_00000013906283312533159780000016265051731763625865_);}
	.st304{clip-path:url(#SVGID_00000109740810370097169200000010796720324292014465_);}
	.st305{clip-path:url(#SVGID_00000036252834500180927270000007968324032975699610_);}
	.st306{clip-path:url(#SVGID_00000182498819346749332160000015948321666170564794_);}
	.st307{clip-path:url(#SVGID_00000081637897145278408210000014943244133113969795_);}
	.st308{clip-path:url(#SVGID_00000155134323633385557190000000632981597284520585_);}
	.st309{clip-path:url(#SVGID_00000173846375673859422790000006912039026113142921_);}
	.st310{clip-path:url(#SVGID_00000160186614149575620300000010030881159847689389_);}
	.st311{clip-path:url(#SVGID_00000147909546964645129250000010514627573380873385_);}
	.st312{clip-path:url(#SVGID_00000150076914099843919230000000625791800188303262_);}
	.st313{clip-path:url(#SVGID_00000024723427207874632910000015430781128650050703_);}
	.st314{clip-path:url(#SVGID_00000057147244437820401190000013364455723042569355_);}
	.st315{clip-path:url(#SVGID_00000177459691348385227820000010867918765039972784_);}
	.st316{clip-path:url(#SVGID_00000157280424219419211940000006304285742309698200_);}
	.st317{clip-path:url(#SVGID_00000048499940501145261370000005414714576488645812_);}
	.st318{clip-path:url(#SVGID_00000160158163748912278960000017752233204068920474_);}
	.st319{clip-path:url(#SVGID_00000175289625834848480260000002972509688642219412_);}
	.st320{clip-path:url(#SVGID_00000183944046879904544890000017320070134504541347_);}
	.st321{clip-path:url(#SVGID_00000114788277210746039470000000087735241056119426_);}
	.st322{clip-path:url(#SVGID_00000088104491385633006240000012031872725246422410_);}
	.st323{clip-path:url(#SVGID_00000091695220419414036160000005781200253986471615_);}
	.st324{clip-path:url(#SVGID_00000120534911969642608840000014660527529946589118_);}
	.st325{clip-path:url(#SVGID_00000064335828960803980520000018038464329292799895_);}
	.st326{clip-path:url(#SVGID_00000173138078151079822360000009171911179752948639_);}
	.st327{clip-path:url(#SVGID_00000072277849099746140090000001880186601060024483_);}
	.st328{clip-path:url(#SVGID_00000083049910926820266850000015061598003702631555_);}
	.st329{clip-path:url(#SVGID_00000007411495049701687040000010293908744527132578_);}
	.st330{clip-path:url(#SVGID_00000166641278141145681950000017895507188977705868_);}
	.st331{clip-path:url(#SVGID_00000078762416739415063380000009397789238527363246_);}
	.st332{clip-path:url(#SVGID_00000144299805008246220440000016483903976488901546_);}
	.st333{clip-path:url(#SVGID_00000075139207765887206110000009719769655964165780_);}
	.st334{clip-path:url(#SVGID_00000042729869348836045360000004216346831789379257_);}
	.st335{clip-path:url(#SVGID_00000001664963321701937990000012321509088525720761_);}
	.st336{clip-path:url(#SVGID_00000147938131121406403570000016837657287074357651_);}
	.st337{clip-path:url(#SVGID_00000170276128671826250200000009587531420539381665_);}
	.st338{clip-path:url(#SVGID_00000139287326469418758620000011001854129395943103_);}
	.st339{clip-path:url(#SVGID_00000168097602098128817010000016168310955080487870_);}
	.st340{clip-path:url(#SVGID_00000098195063402723059920000016285012999211451035_);}
	.st341{clip-path:url(#SVGID_00000033347792165353197870000006479176763509409212_);}
	.st342{clip-path:url(#SVGID_00000161615042390860492740000002985209763817226927_);}
	.st343{clip-path:url(#SVGID_00000147932222957957595900000009096922686304742573_);}
	.st344{clip-path:url(#SVGID_00000110433316066370216680000004944096015673340854_);}
	.st345{clip-path:url(#SVGID_00000085250930576488223990000004336948886151241128_);}
	.st346{clip-path:url(#SVGID_00000088823130352353812470000003342670940925430144_);}
	.st347{clip-path:url(#SVGID_00000160896871496666191090000012161260164588741815_);}
	.st348{clip-path:url(#SVGID_00000005982506849125389290000012664462765586841522_);}
	.st349{clip-path:url(#SVGID_00000114075903726246890070000015444264266289820816_);}
	.st350{clip-path:url(#SVGID_00000048502355581825875080000012713276873780955275_);}
	.st351{clip-path:url(#SVGID_00000159453600060785205510000010413832750835789501_);}
	.st352{clip-path:url(#SVGID_00000144296892742326987390000010686166129429564857_);}
	.st353{clip-path:url(#SVGID_00000016042707711309918030000009611088724559356299_);}
	.st354{clip-path:url(#SVGID_00000029019230016345598400000012849333474719564988_);}
	.st355{clip-path:url(#SVGID_00000010268616558223830260000011909905746613287849_);}
	.st356{clip-path:url(#SVGID_00000124870896968201154070000007637228596177798581_);}
	.st357{clip-path:url(#SVGID_00000142860792122401962640000000537643556904255420_);}
	.st358{clip-path:url(#SVGID_00000128487246185300062270000009448114238558623381_);}
	.st359{clip-path:url(#SVGID_00000103227139122451028120000009155579742755912629_);}
	.st360{clip-path:url(#SVGID_00000050639346168457426430000002087354303793379481_);}
	.st361{clip-path:url(#SVGID_00000132766133454139183900000015130746716087803783_);}
	.st362{clip-path:url(#SVGID_00000183216806291912904390000008884518985502597280_);}
	.st363{clip-path:url(#SVGID_00000093149733166694933970000011742321008228493479_);}
	.st364{clip-path:url(#SVGID_00000042695084560347648410000016470513878509702803_);}
	.st365{clip-path:url(#SVGID_00000134938766639492495010000010102371754166378133_);}
	.st366{clip-path:url(#SVGID_00000119832057698019325700000013699176835222615472_);}
	.st367{clip-path:url(#SVGID_00000166678018596650351020000012542255913820755083_);}
	.st368{clip-path:url(#SVGID_00000036250309215426354440000005566754938837729205_);}
	.st369{clip-path:url(#SVGID_00000034061558147545091610000006647531499424823454_);}
	.st370{clip-path:url(#SVGID_00000097460816384485885650000002296662317863302836_);}
	.st371{clip-path:url(#SVGID_00000166646124932489877870000017920084502157060030_);}
	.st372{clip-path:url(#SVGID_00000106832679567568954530000003031225587250142092_);}
	.st373{clip-path:url(#SVGID_00000163789868198792942200000002191393111756767379_);}
	.st374{clip-path:url(#SVGID_00000020390075650495618250000002351170440192571054_);}
	.st375{clip-path:url(#SVGID_00000137129737489658206420000014128781415142728079_);}
</style>
<g>
	<g>
		<rect x="4.5" y="122.5" class="st0" width="48.54" height="692.84"/>
	</g>
	<g>
		<rect x="4.5" y="0" class="st1" width="992.7" height="116.88"/>
	</g>
	<g>
		<defs>
			<rect id="SVGID_00000074402433553016255770000007737745947129257143_" y="0" width="1000" height="819.82"/>
		</defs>
		<clipPath id="SVGID_00000137096774763099190990000015002123672886641538_">
			<use xlink:href="#SVGID_00000074402433553016255770000007737745947129257143_"  style="overflow:visible;"/>
		</clipPath>
		<g style="clip-path:url(#SVGID_00000137096774763099190990000015002123672886641538_);">
			<path class="st3" d="M997.19,819.82H1.69c-0.93,0-1.68-0.75-1.68-1.68V2.81c0-0.93,0.75-1.68,1.68-1.68h995.51
				c0.93,0,1.68,0.75,1.68,1.68v815.33C998.88,819.07,998.12,819.82,997.19,819.82z M3.37,816.46h992.14V4.49H3.37V816.46z"/>
		</g>
		<g style="clip-path:url(#SVGID_00000137096774763099190990000015002123672886641538_);">
			<rect x="4.5" y="118" class="st3" width="995.5" height="3.37"/>
		</g>
		<g style="clip-path:url(#SVGID_00000137096774763099190990000015002123672886641538_);">
			<path class="st4" d="M925.42,67.68c0-6.43-3.8-10.45-11.32-11.18l-5.99-0.58c-3.36-0.29-3.94-1.9-3.94-3.29
				c0-1.9,1.61-3.66,5.41-3.66c3.29,0,6.65,0.58,8.84,2.56l5.84-5.92c-3.65-3.43-8.62-4.45-14.54-4.45
				c-7.74,0-14.68,4.23-14.68,12.12c0,7.01,4.24,10.01,11.1,10.67l5.99,0.58c3,0.3,4.02,1.61,4.02,3.51c0,2.85-3.43,3.94-6.72,3.94
				c-2.92,0-7.01-0.44-10.15-3.58l-6.21,6.2c4.82,4.82,10.23,5.47,16.22,5.47C918.26,80.09,925.42,76.08,925.42,67.68 M887.8,67.68
				c0-6.43-3.8-10.45-11.32-11.18l-5.99-0.58c-3.36-0.29-3.94-1.9-3.94-3.29c0-1.9,1.61-3.66,5.41-3.66c3.29,0,6.65,0.58,8.84,2.56
				l5.84-5.92c-3.65-3.43-8.62-4.45-14.54-4.45c-7.74,0-14.68,4.23-14.68,12.12c0,7.01,4.24,10.01,11.1,10.67l5.99,0.58
				c2.99,0.3,4.02,1.61,4.02,3.51c0,2.85-3.43,3.94-6.72,3.94c-2.92,0-7.01-0.44-10.15-3.58l-6.21,6.2
				c4.82,4.82,10.23,5.47,16.22,5.47C880.64,80.09,887.8,76.08,887.8,67.68 M847.04,79.65V41.6h-9.49v23.01
				c0,5.19-3.36,6.94-6.36,6.94c-2.99,0-6.28-1.75-6.28-6.94V41.6h-9.49v24.32c0,4.16,0.8,7.74,3.87,10.81
				c2.11,2.12,5.18,3.35,8.98,3.35c3.51,0,7.02-1.31,9.5-3.94v3.5H847.04z M806.79,79.65v-8.02h-3.65c-2.41,0-3.36-1.17-3.36-3.43
				V27.65h-9.49v41.13c0,5.4,3.29,10.87,11.1,10.87H806.79z M778.96,79.65V55.03c0-8.03-4.38-13.87-12.7-13.87
				c-3.36,0-6.58,1.31-9.14,3.94V27.65h-9.49v52h9.49V56.42c0-4.97,3.14-6.72,6.14-6.72c2.99,0,6.21,1.68,6.21,6.72v23.23H778.96z
				 M738.78,74.91l-6.43-6.35c-1.97,2.12-3.65,2.99-6.14,2.99c-2.26,0-4.02-0.8-5.41-2.48c-1.46-1.83-2.12-4.46-2.12-8.48
				s0.66-6.57,2.12-8.4c1.39-1.69,3.14-2.49,5.41-2.49c2.48,0,4.16,0.88,6.14,3l6.43-6.43c-3.36-3.5-7.3-5.11-12.56-5.11
				c-7.6,0-17.01,4.01-17.01,19.43s9.42,19.5,17.01,19.5C731.48,80.09,735.42,78.41,738.78,74.91 M701.68,67.68
				c0-6.43-3.8-10.45-11.32-11.18l-5.99-0.58c-3.36-0.29-3.94-1.9-3.94-3.29c0-1.9,1.61-3.66,5.41-3.66c3.29,0,6.65,0.58,8.84,2.56
				l5.84-5.92c-3.65-3.43-8.62-4.45-14.54-4.45c-7.74,0-14.68,4.23-14.68,12.12c0,7.01,4.24,10.01,11.1,10.67l5.99,0.58
				c2.99,0.3,4.02,1.61,4.02,3.51c0,2.85-3.43,3.94-6.72,3.94c-2.92,0-7.01-0.44-10.15-3.58l-6.21,6.2
				c4.82,4.82,10.23,5.47,16.22,5.47C694.52,80.09,701.68,76.08,701.68,67.68 M653.04,60.59c0,6.21-0.73,10.96-6.43,10.96
				s-6.43-4.75-6.43-10.96c0-6.21,0.73-10.89,6.43-10.89S653.04,54.38,653.04,60.59 M662.52,60.59c0-5.7-0.07-12.2-3.87-16
				c-2.12-2.11-5.55-3.43-9.28-3.43c-3.87,0-6.73,1.02-9.21,3.79V27.65h-9.48v52h9.19v-3.57c2.63,2.92,5.48,4.01,9.5,4.01
				c3.73,0,7.16-1.31,9.28-3.43C662.45,72.87,662.52,66.29,662.52,60.59 M609.5,65.63c0,2.34-0.37,3.87-1.39,4.83
				c-1.69,1.61-3.37,1.83-6,1.83c-3.73,0-5.48-1.75-5.48-4.39c0-2.7,1.9-4.32,5.34-4.32h7.53V65.63z M618.98,79.65V54.6
				c0-8.91-5.55-13.44-16.21-13.44c-6.36,0-10.01,1.17-13.73,5.25l6.06,5.92c1.97-2.26,3.65-3.15,7.31-3.15c5.04,0,7.09,1.83,7.09,6
				v1.9h-8.99c-8.84,0-13,4.96-13,11.02c0,3.37,1.09,6.43,3.14,8.55c2.26,2.26,5.4,3.35,9.72,3.35c4.38,0,6.79-1.09,9.36-3.65v3.28
				H618.98z M581.15,79.65v-8.02h-3.65c-2.41,0-3.36-1.17-3.36-3.43V27.65h-9.49v41.13c0,5.4,3.28,10.87,11.09,10.87H581.15z
				 M552.88,79.65V41.6h-9.49v23.01c0,5.19-3.37,6.94-6.36,6.94c-2.99,0-6.29-1.75-6.29-6.94V41.6h-9.49v24.32
				c0,4.16,0.8,7.74,3.87,10.81c2.12,2.12,5.18,3.35,8.98,3.35c3.51,0,7.01-1.31,9.5-3.94v3.5H552.88z M510,79.65V55.03
				c0-8.03-4.38-13.87-12.7-13.87c-3.36,0-6.57,1.31-9.14,3.94V27.65h-9.49v52h9.49V56.42c0-4.97,3.15-6.72,6.14-6.72
				c2.99,0,6.21,1.68,6.21,6.72v23.23H510z M469.82,74.91l-6.43-6.35c-1.97,2.12-3.65,2.99-6.14,2.99c-2.26,0-4.02-0.8-5.41-2.48
				c-1.46-1.83-2.12-4.46-2.12-8.48s0.66-6.57,2.12-8.4c1.39-1.69,3.14-2.49,5.41-2.49c2.48,0,4.16,0.88,6.14,3l6.43-6.43
				c-3.36-3.5-7.3-5.11-12.56-5.11c-7.6,0-17.01,4.01-17.01,19.43s9.41,19.5,17.01,19.5C462.52,80.09,466.46,78.41,469.82,74.91
				 M432.72,67.68c0-6.43-3.8-10.45-11.32-11.18l-5.99-0.58c-3.36-0.29-3.94-1.9-3.94-3.29c0-1.9,1.61-3.66,5.41-3.66
				c3.29,0,6.65,0.58,8.84,2.56l5.84-5.92c-3.65-3.43-8.62-4.45-14.54-4.45c-7.74,0-14.68,4.23-14.68,12.12
				c0,7.01,4.24,10.01,11.1,10.67l5.99,0.58c2.99,0.3,4.02,1.61,4.02,3.51c0,2.85-3.43,3.94-6.72,3.94c-2.92,0-7.01-0.44-10.15-3.58
				l-6.21,6.2c4.82,4.82,10.23,5.47,16.22,5.47C425.56,80.09,432.72,76.08,432.72,67.68 M395.02,79.65v-8.02h-3.66
				c-2.41,0-3.35-1.17-3.35-3.43V27.65h-9.49v41.13c0,5.4,3.29,10.87,11.09,10.87H395.02z M357.7,65.63c0,2.34-0.37,3.87-1.39,4.83
				c-1.68,1.61-3.36,1.83-6,1.83c-3.73,0-5.48-1.75-5.48-4.39c0-2.7,1.9-4.32,5.33-4.32h7.53V65.63z M367.19,79.65V54.6
				c0-8.91-5.55-13.44-16.22-13.44c-6.36,0-10.01,1.17-13.73,5.25l6.06,5.92c1.97-2.26,3.65-3.15,7.3-3.15c5.05,0,7.09,1.83,7.09,6
				v1.9h-8.99c-8.84,0-13,4.96-13,11.02c0,3.37,1.1,6.43,3.14,8.55c2.26,2.26,5.4,3.35,9.71,3.35c4.39,0,6.8-1.09,9.36-3.65v3.28
				H367.19z M318.84,57.09h-14.46c0.07-1.68,0.29-2.71,0.88-4.1c1.02-2.26,3.14-3.95,6.36-3.95s5.33,1.69,6.36,3.95
				C318.54,54.38,318.76,55.41,318.84,57.09 M328.19,63.58v-4.23c0-10.45-5.99-18.18-16.58-18.18c-9.86,0-16.58,7.01-16.58,19.43
				c0,15.41,8.61,19.5,17.6,19.5c6.87,0,10.59-2.11,14.46-5.98l-5.77-5.63c-2.41,2.42-4.46,3.58-8.62,3.58
				c-5.33,0-8.33-3.58-8.33-8.48H328.19z M292.32,44.74c-2.63-2.62-5.26-3.57-8.98-3.57c-4.09,0-7.74,1.9-9.57,4.09V41.6h-9.27
				v38.05h9.49V56.71c0-4.82,3.21-7.01,6.14-7.01c2.34,0,3.58,0.8,5.04,2.26L292.32,44.74z M256.82,79.65l-14.61-22.71L255.8,41.6
				h-11.47l-12.64,15.55V27.65h-9.49v52h9.49V68.33l4.02-4.53l9.35,15.85H256.82z M215.33,44.74c-2.63-2.62-5.26-3.57-8.98-3.57
				c-4.09,0-7.74,1.9-9.57,4.09V41.6h-9.27v38.05h9.49V56.71c0-4.82,3.21-7.01,6.14-7.01c2.34,0,3.58,0.8,5.04,2.26L215.33,44.74z
				 M167.92,57.09h-14.46c0.07-1.68,0.29-2.71,0.88-4.1c1.02-2.26,3.14-3.95,6.36-3.95c3.21,0,5.33,1.69,6.36,3.95
				C167.63,54.38,167.85,55.41,167.92,57.09 M177.27,63.58v-4.23c0-10.45-5.99-18.18-16.58-18.18c-9.86,0-16.57,7.01-16.57,19.43
				c0,15.41,8.61,19.5,17.59,19.5c6.87,0,10.59-2.11,14.46-5.98l-5.77-5.63c-2.41,2.42-4.46,3.58-8.62,3.58
				c-5.33,0-8.33-3.58-8.33-8.48H177.27z M141.7,27.65h-10.59L123,60.44l-9.5-32.79h-7.6l-9.5,32.79l-8.04-32.79H77.78l13.88,52
				h8.47l9.57-31.55l9.57,31.55h8.47L141.7,27.65z"/>
		</g>
		<g style="clip-path:url(#SVGID_00000137096774763099190990000015002123672886641538_);">
			<rect x="3.09" y="348.94" class="st3" width="992.7" height="3.37"/>
		</g>
		<g style="clip-path:url(#SVGID_00000137096774763099190990000015002123672886641538_);">
			<rect x="3.09" y="232.07" class="st3" width="992.7" height="3.37"/>
		</g>
		<g style="clip-path:url(#SVGID_00000137096774763099190990000015002123672886641538_);">
			<rect x="3.09" y="463.01" class="st3" width="992.7" height="3.37"/>
		</g>
		<g style="clip-path:url(#SVGID_00000137096774763099190990000015002123672886641538_);">
			<rect x="3.09" y="585.51" class="st3" width="992.7" height="3.37"/>
		</g>
		<g style="clip-path:url(#SVGID_00000137096774763099190990000015002123672886641538_);">
			<rect x="3.09" y="702.38" class="st3" width="992.7" height="3.37"/>
		</g>
		<g style="clip-path:url(#SVGID_00000137096774763099190990000015002123672886641538_);">
			<path class="st3" d="M720.97,661.25c0,4.06-2.4,6.62-5.82,6.62c-3.42,0-5.77-2.57-5.77-6.62c0-4.11,2.35-6.57,5.77-6.57
				C718.78,654.69,720.97,657.52,720.97,661.25 M726.41,661.15c0-6.68-4.48-10.99-9.98-10.99c-1.17,0-2.35,0.16-3.37,0.58
				l8.17-16.33h-5.82l-8.65,17.62c-1.65,3.3-2.83,6.24-2.83,9.34c0,7.05,4.69,11.37,11.26,11.37
				C721.77,672.73,726.41,668.14,726.41,661.15 M678.8,656.67h-12.17c0.05-1.66,0.16-2.46,0.69-3.69c0.85-2.03,2.83-3.42,5.39-3.42
				c2.56,0,4.48,1.39,5.34,3.42C678.58,654.21,678.74,655.01,678.8,656.67 M684.18,660.45v-2.4c0-7.69-4.21-13.02-11.47-13.02
				c-6.94,0-11.47,5.06-11.47,13.82c0,10.31,5.39,13.88,12.17,13.88c4.75,0,7.37-1.44,10.14-4.21l-3.47-3.26
				c-1.92,1.92-3.52,2.78-6.57,2.78c-4.43,0-6.88-2.94-6.88-7.59H684.18z M655.47,664.14c0-4.8-2.99-7.21-8.06-7.64l-4.27-0.37
				c-2.88-0.27-3.74-1.49-3.74-3.1c0-2.03,1.66-3.47,4.91-3.47c2.56,0,4.97,0.53,6.68,1.98l3.42-3.47
				c-2.51-2.19-5.98-3.03-10.04-3.03c-5.66,0-10.2,2.98-10.2,8.27c0,4.75,2.94,7.05,8.01,7.48l4.33,0.37
				c2.61,0.21,3.63,1.39,3.63,3.2c0,2.57-2.62,3.74-5.93,3.74c-2.67,0-5.6-0.59-7.79-2.83l-3.57,3.57c3.2,3.15,6.94,3.89,11.37,3.89
				C650.67,672.73,655.47,669.8,655.47,664.14 M628.62,664.14c0-4.8-2.99-7.21-8.06-7.64l-4.27-0.37c-2.88-0.27-3.74-1.49-3.74-3.1
				c0-2.03,1.65-3.47,4.91-3.47c2.56,0,4.96,0.53,6.67,1.98l3.42-3.47c-2.51-2.19-5.98-3.03-10.04-3.03
				c-5.66,0-10.19,2.98-10.19,8.27c0,4.75,2.93,7.05,8.01,7.48l4.32,0.37c2.62,0.21,3.63,1.39,3.63,3.2c0,2.57-2.61,3.74-5.92,3.74
				c-2.67,0-5.61-0.59-7.79-2.83l-3.58,3.57c3.2,3.15,6.94,3.89,11.37,3.89C623.81,672.73,628.62,669.8,628.62,664.14
				 M594.25,662.64c0,1.92-0.37,3.2-1.17,4.01c-1.44,1.39-2.99,1.55-5.07,1.55c-3.42,0-4.97-1.39-4.97-3.85
				c0-2.46,1.66-3.9,4.86-3.9h6.36V662.64z M599.68,672.41v-18.09c0-6.14-3.73-9.28-11.15-9.28c-4.49,0-7.15,0.9-9.72,3.89
				l3.57,3.37c1.49-1.92,2.94-2.62,5.93-2.62c4.22,0,5.93,1.66,5.93,5.07v1.93h-7.16c-6.19,0-9.33,3.25-9.33,7.79
				c0,2.3,0.74,4.38,2.13,5.82c1.65,1.65,3.89,2.45,7.26,2.45s5.23-0.8,7.21-2.77v2.45H599.68z M573.26,672.41v-4.64h-2.4
				c-2.19,0-2.94-1.07-2.94-3.15v-30.21h-5.43v30.53c0,4,2.24,7.47,7.41,7.47H573.26z M555.06,661.04h-5.82
				c-0.91,3.85-3.52,6.52-7.74,6.52c-2.24,0-4.27-0.85-5.6-2.3c-1.87-2.03-2.3-4.22-2.3-11.85c0-7.64,0.43-9.83,2.3-11.86
				c1.33-1.44,3.36-2.3,5.6-2.3c4.22,0,6.78,2.67,7.69,6.52h5.87c-1.33-7.58-6.56-11.69-13.56-11.69c-3.95,0-7.37,1.44-9.98,4.05
				c-3.73,3.74-3.68,7.96-3.68,15.27c0,7.31-0.05,11.53,3.68,15.27c2.61,2.61,6.03,4.05,9.98,4.05
				C548.39,672.73,553.78,668.62,555.06,661.04 M510.54,630.46h-5.23l-15.22,45.9h5.23L510.54,630.46z M467.79,661.25
				c0,4.06-2.4,6.62-5.82,6.62s-5.77-2.57-5.77-6.62c0-4.11,2.35-6.57,5.77-6.57C465.6,654.69,467.79,657.52,467.79,661.25
				 M473.23,661.15c0-6.68-4.48-10.99-9.98-10.99c-1.17,0-2.35,0.16-3.37,0.58l8.18-16.33h-5.82l-8.65,17.62
				c-1.66,3.3-2.83,6.24-2.83,9.34c0,7.05,4.69,11.37,11.26,11.37C468.59,672.73,473.23,668.14,473.23,661.15 M425.61,656.67h-12.17
				c0.06-1.66,0.16-2.46,0.7-3.69c0.85-2.03,2.83-3.42,5.39-3.42c2.56,0,4.48,1.39,5.34,3.42
				C425.4,654.21,425.56,655.01,425.61,656.67 M431.01,660.45v-2.4c0-7.69-4.22-13.02-11.48-13.02c-6.94,0-11.47,5.06-11.47,13.82
				c0,10.31,5.38,13.88,12.17,13.88c4.75,0,7.37-1.44,10.14-4.21l-3.47-3.26c-1.92,1.92-3.52,2.78-6.56,2.78
				c-4.43,0-6.89-2.94-6.89-7.59H431.01z M402.29,664.14c0-4.8-2.99-7.21-8.06-7.64l-4.27-0.37c-2.88-0.27-3.74-1.49-3.74-3.1
				c0-2.03,1.65-3.47,4.91-3.47c2.56,0,4.96,0.53,6.67,1.98l3.42-3.47c-2.51-2.19-5.98-3.03-10.04-3.03
				c-5.66,0-10.19,2.98-10.19,8.27c0,4.75,2.93,7.05,8.01,7.48l4.32,0.37c2.62,0.21,3.63,1.39,3.63,3.2c0,2.57-2.61,3.74-5.92,3.74
				c-2.67,0-5.61-0.59-7.79-2.83l-3.58,3.57c3.2,3.15,6.94,3.89,11.37,3.89C397.48,672.73,402.29,669.8,402.29,664.14
				 M375.44,664.14c0-4.8-2.99-7.21-8.06-7.64l-4.27-0.37c-2.88-0.27-3.74-1.49-3.74-3.1c0-2.03,1.66-3.47,4.91-3.47
				c2.56,0,4.97,0.53,6.68,1.98l3.42-3.47c-2.51-2.19-5.98-3.03-10.04-3.03c-5.66,0-10.2,2.98-10.2,8.27c0,4.75,2.94,7.05,8.01,7.48
				l4.33,0.37c2.61,0.21,3.63,1.39,3.63,3.2c0,2.57-2.62,3.74-5.93,3.74c-2.67,0-5.6-0.59-7.79-2.83l-3.57,3.57
				c3.2,3.15,6.94,3.89,11.37,3.89C370.63,672.73,375.44,669.8,375.44,664.14 M341.06,662.64c0,1.92-0.37,3.2-1.17,4.01
				c-1.44,1.39-2.99,1.55-5.07,1.55c-3.42,0-4.97-1.39-4.97-3.85c0-2.46,1.66-3.9,4.86-3.9h6.36V662.64z M346.5,672.41v-18.09
				c0-6.14-3.73-9.28-11.15-9.28c-4.48,0-7.15,0.9-9.71,3.89l3.57,3.37c1.49-1.92,2.94-2.62,5.93-2.62c4.22,0,5.93,1.66,5.93,5.07
				v1.93h-7.15c-6.19,0-9.34,3.25-9.34,7.79c0,2.3,0.75,4.38,2.14,5.82c1.65,1.65,3.89,2.45,7.25,2.45c3.37,0,5.24-0.8,7.21-2.77
				v2.45H346.5z M320.08,672.41v-4.64h-2.4c-2.19,0-2.93-1.07-2.93-3.15v-30.21h-5.44v30.53c0,4,2.24,7.47,7.41,7.47H320.08z
				 M304.06,672.41l-13.62-23.11l12.33-14.89h-7.05l-15.54,19.11v-19.11h-5.75v38h5.75v-11.05l6.41-7.69l10.68,18.73H304.06z"/>
		</g>
		<g style="clip-path:url(#SVGID_00000137096774763099190990000015002123672886641538_);">
			<path class="st3" d="M726.95,516.77v-4.85h-22.63v10.83h5.23v-5.98h11.59l-12.76,33.15h5.87L726.95,516.77z M678.8,534.17h-12.17
				c0.05-1.66,0.16-2.46,0.69-3.69c0.85-2.03,2.83-3.42,5.39-3.42c2.56,0,4.48,1.39,5.34,3.42
				C678.58,531.71,678.74,532.52,678.8,534.17 M684.18,537.95v-2.4c0-7.69-4.21-13.02-11.47-13.02c-6.94,0-11.47,5.06-11.47,13.82
				c0,10.3,5.39,13.87,12.17,13.87c4.75,0,7.37-1.44,10.14-4.21l-3.47-3.26c-1.92,1.92-3.52,2.78-6.57,2.78
				c-4.43,0-6.88-2.94-6.88-7.59H684.18z M655.47,541.64c0-4.8-2.99-7.21-8.06-7.64l-4.27-0.37c-2.88-0.27-3.74-1.49-3.74-3.1
				c0-2.03,1.66-3.47,4.91-3.47c2.56,0,4.97,0.53,6.68,1.98l3.42-3.47c-2.51-2.19-5.98-3.03-10.04-3.03c-5.66,0-10.2,2.98-10.2,8.27
				c0,4.75,2.94,7.05,8.01,7.48l4.33,0.37c2.61,0.21,3.63,1.39,3.63,3.2c0,2.57-2.62,3.74-5.93,3.74c-2.67,0-5.6-0.59-7.79-2.83
				l-3.57,3.58c3.2,3.14,6.94,3.89,11.37,3.89C650.67,550.23,655.47,547.3,655.47,541.64 M628.62,541.64c0-4.8-2.99-7.21-8.06-7.64
				l-4.27-0.37c-2.88-0.27-3.74-1.49-3.74-3.1c0-2.03,1.65-3.47,4.91-3.47c2.56,0,4.96,0.53,6.67,1.98l3.42-3.47
				c-2.51-2.19-5.98-3.03-10.04-3.03c-5.66,0-10.19,2.98-10.19,8.27c0,4.75,2.93,7.05,8.01,7.48l4.32,0.37
				c2.62,0.21,3.63,1.39,3.63,3.2c0,2.57-2.61,3.74-5.92,3.74c-2.67,0-5.61-0.59-7.79-2.83l-3.58,3.58
				c3.2,3.14,6.94,3.89,11.37,3.89C623.81,550.23,628.62,547.3,628.62,541.64 M594.25,540.15c0,1.92-0.37,3.2-1.17,4.01
				c-1.44,1.39-2.99,1.55-5.07,1.55c-3.42,0-4.97-1.39-4.97-3.85c0-2.46,1.66-3.9,4.86-3.9h6.36V540.15z M599.68,549.91v-18.09
				c0-6.14-3.73-9.28-11.15-9.28c-4.49,0-7.15,0.9-9.72,3.89l3.57,3.37c1.49-1.92,2.94-2.62,5.93-2.62c4.22,0,5.93,1.66,5.93,5.07
				v1.93h-7.16c-6.19,0-9.33,3.25-9.33,7.79c0,2.3,0.74,4.38,2.13,5.82c1.65,1.65,3.89,2.45,7.26,2.45s5.23-0.8,7.21-2.77v2.45
				H599.68z M573.26,549.91v-4.64h-2.4c-2.19,0-2.94-1.07-2.94-3.15v-30.21h-5.43v30.53c0,4,2.24,7.47,7.41,7.47H573.26z
				 M555.06,538.54h-5.82c-0.91,3.85-3.52,6.52-7.74,6.52c-2.24,0-4.27-0.85-5.6-2.3c-1.87-2.03-2.3-4.22-2.3-11.85
				c0-7.64,0.43-9.83,2.3-11.86c1.33-1.44,3.36-2.29,5.6-2.29c4.22,0,6.78,2.67,7.69,6.51h5.87c-1.33-7.58-6.56-11.69-13.56-11.69
				c-3.95,0-7.37,1.44-9.98,4.05c-3.73,3.74-3.68,7.96-3.68,15.27c0,7.31-0.05,11.53,3.68,15.27c2.61,2.61,6.03,4.05,9.98,4.05
				C548.39,550.23,553.78,546.12,555.06,538.54 M510.54,507.96h-5.23l-15.22,45.9h5.23L510.54,507.96z M473.77,516.77v-4.85h-22.63
				v10.83h5.23v-5.98h11.58l-12.76,33.15h5.87L473.77,516.77z M425.61,534.17h-12.17c0.06-1.66,0.16-2.46,0.7-3.69
				c0.85-2.03,2.83-3.42,5.39-3.42c2.56,0,4.48,1.39,5.34,3.42C425.4,531.71,425.56,532.52,425.61,534.17 M431.01,537.95v-2.4
				c0-7.69-4.22-13.02-11.48-13.02c-6.94,0-11.47,5.06-11.47,13.82c0,10.3,5.38,13.87,12.17,13.87c4.75,0,7.37-1.44,10.14-4.21
				l-3.47-3.26c-1.92,1.92-3.52,2.78-6.56,2.78c-4.43,0-6.89-2.94-6.89-7.59H431.01z M402.29,541.64c0-4.8-2.99-7.21-8.06-7.64
				l-4.27-0.37c-2.88-0.27-3.74-1.49-3.74-3.1c0-2.03,1.65-3.47,4.91-3.47c2.56,0,4.96,0.53,6.67,1.98l3.42-3.47
				c-2.51-2.19-5.98-3.03-10.04-3.03c-5.66,0-10.19,2.98-10.19,8.27c0,4.75,2.93,7.05,8.01,7.48l4.32,0.37
				c2.62,0.21,3.63,1.39,3.63,3.2c0,2.57-2.61,3.74-5.92,3.74c-2.67,0-5.61-0.59-7.79-2.83l-3.58,3.58
				c3.2,3.14,6.94,3.89,11.37,3.89C397.48,550.23,402.29,547.3,402.29,541.64 M375.44,541.64c0-4.8-2.99-7.21-8.06-7.64l-4.27-0.37
				c-2.88-0.27-3.74-1.49-3.74-3.1c0-2.03,1.66-3.47,4.91-3.47c2.56,0,4.97,0.53,6.68,1.98l3.42-3.47
				c-2.51-2.19-5.98-3.03-10.04-3.03c-5.66,0-10.2,2.98-10.2,8.27c0,4.75,2.94,7.05,8.01,7.48l4.33,0.37
				c2.61,0.21,3.63,1.39,3.63,3.2c0,2.57-2.62,3.74-5.93,3.74c-2.67,0-5.6-0.59-7.79-2.83l-3.57,3.58c3.2,3.14,6.94,3.89,11.37,3.89
				C370.63,550.23,375.44,547.3,375.44,541.64 M341.06,540.15c0,1.92-0.37,3.2-1.17,4.01c-1.44,1.39-2.99,1.55-5.07,1.55
				c-3.42,0-4.97-1.39-4.97-3.85c0-2.46,1.66-3.9,4.86-3.9h6.36V540.15z M346.5,549.91v-18.09c0-6.14-3.73-9.28-11.15-9.28
				c-4.48,0-7.15,0.9-9.71,3.89l3.57,3.37c1.49-1.92,2.94-2.62,5.93-2.62c4.22,0,5.93,1.66,5.93,5.07v1.93h-7.15
				c-6.19,0-9.34,3.25-9.34,7.79c0,2.3,0.75,4.38,2.14,5.82c1.65,1.65,3.89,2.45,7.25,2.45c3.37,0,5.24-0.8,7.21-2.77v2.45H346.5z
				 M320.08,549.91v-4.64h-2.4c-2.19,0-2.93-1.07-2.93-3.15v-30.21h-5.44v30.53c0,4,2.24,7.47,7.41,7.47H320.08z M304.06,549.91
				l-13.62-23.11l12.33-14.89h-7.05l-15.54,19.11v-19.11h-5.75v38h5.75v-11.05l6.41-7.69l10.68,18.73H304.06z"/>
		</g>
		<g style="clip-path:url(#SVGID_00000137096774763099190990000015002123672886641538_);">
			<path class="st3" d="M720.81,405.39c0,3.36-2.35,5.77-5.66,5.77c-3.32,0-5.61-2.4-5.61-5.77c0-3.32,2.29-5.82,5.61-5.82
				C718.46,399.57,720.81,402.07,720.81,405.39 M721.4,422.2c0,3.52-2.73,6.3-6.25,6.3c-3.53,0-6.25-2.78-6.25-6.3
				c0-3.52,2.72-6.36,6.25-6.36C718.67,415.85,721.4,418.68,721.4,422.2 M726.89,422.31c0-4.54-2.56-7.32-5.23-8.91
				c2.46-1.49,4.59-4.16,4.59-8.17c0-6.36-4.91-10.51-11.1-10.51c-6.2,0-11.05,4.16-11.05,10.51c0,4.01,2.13,6.68,4.59,8.17
				c-2.67,1.6-5.23,4.37-5.23,8.91c0,6.89,5.17,11.05,11.69,11.05C721.66,433.36,726.89,429.2,726.89,422.31 M678.8,417.3h-12.17
				c0.05-1.66,0.16-2.46,0.69-3.69c0.85-2.03,2.83-3.42,5.39-3.42c2.56,0,4.48,1.39,5.34,3.42
				C678.58,414.83,678.74,415.64,678.8,417.3 M684.18,421.08v-2.4c0-7.69-4.21-13.02-11.47-13.02c-6.94,0-11.47,5.06-11.47,13.82
				c0,10.3,5.39,13.87,12.17,13.87c4.75,0,7.37-1.44,10.14-4.21l-3.47-3.26c-1.92,1.92-3.52,2.78-6.57,2.78
				c-4.43,0-6.88-2.94-6.88-7.59H684.18z M655.47,424.76c0-4.8-2.99-7.21-8.06-7.64l-4.27-0.37c-2.88-0.27-3.74-1.49-3.74-3.1
				c0-2.03,1.66-3.47,4.91-3.47c2.56,0,4.97,0.53,6.68,1.98l3.42-3.47c-2.51-2.19-5.98-3.03-10.04-3.03c-5.66,0-10.2,2.98-10.2,8.27
				c0,4.75,2.94,7.05,8.01,7.48l4.33,0.37c2.61,0.21,3.63,1.39,3.63,3.2c0,2.57-2.62,3.74-5.93,3.74c-2.67,0-5.6-0.59-7.79-2.83
				l-3.57,3.58c3.2,3.14,6.94,3.89,11.37,3.89C650.67,433.36,655.47,430.42,655.47,424.76 M628.62,424.76c0-4.8-2.99-7.21-8.06-7.64
				l-4.27-0.37c-2.88-0.27-3.74-1.49-3.74-3.1c0-2.03,1.65-3.47,4.91-3.47c2.56,0,4.96,0.53,6.67,1.98l3.42-3.47
				c-2.51-2.19-5.98-3.03-10.04-3.03c-5.66,0-10.19,2.98-10.19,8.27c0,4.75,2.93,7.05,8.01,7.48l4.32,0.37
				c2.62,0.21,3.63,1.39,3.63,3.2c0,2.57-2.61,3.74-5.92,3.74c-2.67,0-5.61-0.59-7.79-2.83l-3.58,3.58
				c3.2,3.14,6.94,3.89,11.37,3.89C623.81,433.36,628.62,430.42,628.62,424.76 M594.25,423.27c0,1.92-0.37,3.2-1.17,4.01
				c-1.44,1.39-2.99,1.55-5.07,1.55c-3.42,0-4.97-1.39-4.97-3.85s1.66-3.9,4.86-3.9h6.36V423.27z M599.68,433.04v-18.09
				c0-6.14-3.73-9.28-11.15-9.28c-4.49,0-7.15,0.9-9.72,3.89l3.57,3.37c1.49-1.92,2.94-2.62,5.93-2.62c4.22,0,5.93,1.66,5.93,5.07
				v1.93h-7.16c-6.19,0-9.33,3.25-9.33,7.79c0,2.3,0.74,4.38,2.13,5.82c1.65,1.65,3.89,2.45,7.26,2.45s5.23-0.8,7.21-2.77v2.45
				H599.68z M573.26,433.04v-4.64h-2.4c-2.19,0-2.94-1.07-2.94-3.15v-30.21h-5.43v30.53c0,4,2.24,7.47,7.41,7.47H573.26z
				 M555.06,421.67h-5.82c-0.91,3.85-3.52,6.52-7.74,6.52c-2.24,0-4.27-0.85-5.6-2.3c-1.87-2.03-2.3-4.22-2.3-11.85
				c0-7.64,0.43-9.83,2.3-11.86c1.33-1.44,3.36-2.29,5.6-2.29c4.22,0,6.78,2.67,7.69,6.51h5.87c-1.33-7.58-6.56-11.69-13.56-11.69
				c-3.95,0-7.37,1.44-9.98,4.05c-3.73,3.74-3.68,7.96-3.68,15.27c0,7.31-0.05,11.53,3.68,15.27c2.61,2.61,6.03,4.05,9.98,4.05
				C548.39,433.36,553.78,429.25,555.06,421.67 M510.54,391.08h-5.23l-15.22,45.9h5.23L510.54,391.08z M467.63,405.39
				c0,3.36-2.35,5.77-5.66,5.77c-3.31,0-5.61-2.4-5.61-5.77c0-3.32,2.3-5.82,5.61-5.82C465.28,399.57,467.63,402.07,467.63,405.39
				 M468.22,422.2c0,3.52-2.73,6.3-6.25,6.3s-6.25-2.78-6.25-6.3c0-3.52,2.73-6.36,6.25-6.36S468.22,418.68,468.22,422.2
				 M473.7,422.31c0-4.54-2.56-7.32-5.22-8.91c2.45-1.49,4.59-4.16,4.59-8.17c0-6.36-4.91-10.51-11.1-10.51
				c-6.19,0-11.05,4.16-11.05,10.51c0,4.01,2.14,6.68,4.59,8.17c-2.66,1.6-5.23,4.37-5.23,8.91c0,6.89,5.18,11.05,11.69,11.05
				C468.48,433.36,473.7,429.2,473.7,422.31 M425.61,417.3h-12.17c0.06-1.66,0.16-2.46,0.7-3.69c0.85-2.03,2.83-3.42,5.39-3.42
				c2.56,0,4.48,1.39,5.34,3.42C425.4,414.83,425.56,415.64,425.61,417.3 M431.01,421.08v-2.4c0-7.69-4.22-13.02-11.48-13.02
				c-6.94,0-11.47,5.06-11.47,13.82c0,10.3,5.38,13.87,12.17,13.87c4.75,0,7.37-1.44,10.14-4.21l-3.47-3.26
				c-1.92,1.92-3.52,2.78-6.56,2.78c-4.43,0-6.89-2.94-6.89-7.59H431.01z M402.29,424.76c0-4.8-2.99-7.21-8.06-7.64l-4.27-0.37
				c-2.88-0.27-3.74-1.49-3.74-3.1c0-2.03,1.65-3.47,4.91-3.47c2.56,0,4.96,0.53,6.67,1.98l3.42-3.47
				c-2.51-2.19-5.98-3.03-10.04-3.03c-5.66,0-10.19,2.98-10.19,8.27c0,4.75,2.93,7.05,8.01,7.48l4.32,0.37
				c2.62,0.21,3.63,1.39,3.63,3.2c0,2.57-2.61,3.74-5.92,3.74c-2.67,0-5.61-0.59-7.79-2.83l-3.58,3.58
				c3.2,3.14,6.94,3.89,11.37,3.89C397.48,433.36,402.29,430.42,402.29,424.76 M375.44,424.76c0-4.8-2.99-7.21-8.06-7.64l-4.27-0.37
				c-2.88-0.27-3.74-1.49-3.74-3.1c0-2.03,1.66-3.47,4.91-3.47c2.56,0,4.97,0.53,6.68,1.98l3.42-3.47
				c-2.51-2.19-5.98-3.03-10.04-3.03c-5.66,0-10.2,2.98-10.2,8.27c0,4.75,2.94,7.05,8.01,7.48l4.33,0.37
				c2.61,0.21,3.63,1.39,3.63,3.2c0,2.57-2.62,3.74-5.93,3.74c-2.67,0-5.6-0.59-7.79-2.83l-3.57,3.58c3.2,3.14,6.94,3.89,11.37,3.89
				C370.63,433.36,375.44,430.42,375.44,424.76 M341.06,423.27c0,1.92-0.37,3.2-1.17,4.01c-1.44,1.39-2.99,1.55-5.07,1.55
				c-3.42,0-4.97-1.39-4.97-3.85s1.66-3.9,4.86-3.9h6.36V423.27z M346.5,433.04v-18.09c0-6.14-3.73-9.28-11.15-9.28
				c-4.48,0-7.15,0.9-9.71,3.89l3.57,3.37c1.49-1.92,2.94-2.62,5.93-2.62c4.22,0,5.93,1.66,5.93,5.07v1.93h-7.15
				c-6.19,0-9.34,3.25-9.34,7.79c0,2.3,0.75,4.38,2.14,5.82c1.65,1.65,3.89,2.45,7.25,2.45c3.37,0,5.24-0.8,7.21-2.77v2.45H346.5z
				 M320.08,433.04v-4.64h-2.4c-2.19,0-2.93-1.07-2.93-3.15v-30.21h-5.44v30.53c0,4,2.24,7.47,7.41,7.47H320.08z M304.06,433.04
				l-13.62-23.11l12.33-14.89h-7.05l-15.54,19.11v-19.11h-5.75v38h5.75v-11.05l6.41-7.69l10.68,18.73H304.06z"/>
		</g>
		<g style="clip-path:url(#SVGID_00000137096774763099190990000015002123672886641538_);">
			<path class="st3" d="M720.97,289.31c0,4.11-2.4,6.57-5.82,6.57c-3.64,0-5.77-2.83-5.77-6.57c0-4.06,2.35-6.62,5.77-6.62
				C718.57,282.69,720.97,285.25,720.97,289.31 M726.41,289.2c0-7.05-4.69-11.37-11.26-11.37s-11.21,4.59-11.21,11.58
				c0,6.68,4.43,11,9.92,11c1.18,0,2.4-0.16,3.42-0.59l-8.17,16.33h5.82l8.65-17.62C725.24,295.24,726.41,292.3,726.41,289.2
				 M678.8,300.42h-12.17c0.05-1.66,0.16-2.46,0.69-3.69c0.85-2.03,2.83-3.42,5.39-3.42c2.56,0,4.48,1.39,5.34,3.42
				C678.58,297.96,678.74,298.76,678.8,300.42 M684.18,304.2v-2.4c0-7.69-4.21-13.02-11.47-13.02c-6.94,0-11.47,5.06-11.47,13.82
				c0,10.3,5.39,13.87,12.17,13.87c4.75,0,7.37-1.44,10.14-4.21l-3.47-3.26c-1.92,1.92-3.52,2.78-6.57,2.78
				c-4.43,0-6.88-2.94-6.88-7.59H684.18z M655.47,307.89c0-4.8-2.99-7.21-8.06-7.64l-4.27-0.37c-2.88-0.27-3.74-1.49-3.74-3.1
				c0-2.03,1.66-3.47,4.91-3.47c2.56,0,4.97,0.53,6.68,1.98l3.42-3.47c-2.51-2.19-5.98-3.03-10.04-3.03c-5.66,0-10.2,2.98-10.2,8.27
				c0,4.75,2.94,7.05,8.01,7.48l4.33,0.37c2.61,0.21,3.63,1.39,3.63,3.2c0,2.57-2.62,3.74-5.93,3.74c-2.67,0-5.6-0.59-7.79-2.83
				l-3.57,3.58c3.2,3.14,6.94,3.89,11.37,3.89C650.67,316.48,655.47,313.55,655.47,307.89 M628.62,307.89c0-4.8-2.99-7.21-8.06-7.64
				l-4.27-0.37c-2.88-0.27-3.74-1.49-3.74-3.1c0-2.03,1.65-3.47,4.91-3.47c2.56,0,4.96,0.53,6.67,1.98l3.42-3.47
				c-2.51-2.19-5.98-3.03-10.04-3.03c-5.66,0-10.19,2.98-10.19,8.27c0,4.75,2.93,7.05,8.01,7.48l4.32,0.37
				c2.62,0.21,3.63,1.39,3.63,3.2c0,2.57-2.61,3.74-5.92,3.74c-2.67,0-5.61-0.59-7.79-2.83l-3.58,3.58
				c3.2,3.14,6.94,3.89,11.37,3.89C623.81,316.48,628.62,313.55,628.62,307.89 M594.25,306.39c0,1.92-0.37,3.2-1.17,4.01
				c-1.44,1.39-2.99,1.55-5.07,1.55c-3.42,0-4.97-1.39-4.97-3.85c0-2.46,1.66-3.9,4.86-3.9h6.36V306.39z M599.68,316.16v-18.09
				c0-6.14-3.73-9.28-11.15-9.28c-4.49,0-7.15,0.9-9.72,3.89l3.57,3.37c1.49-1.92,2.94-2.62,5.93-2.62c4.22,0,5.93,1.66,5.93,5.07
				v1.93h-7.16c-6.19,0-9.33,3.25-9.33,7.79c0,2.3,0.74,4.38,2.13,5.82c1.65,1.65,3.89,2.45,7.26,2.45s5.23-0.8,7.21-2.77v2.45
				H599.68z M573.26,316.16v-4.64h-2.4c-2.19,0-2.94-1.07-2.94-3.15v-30.21h-5.43v30.53c0,4,2.24,7.47,7.41,7.47H573.26z
				 M555.06,304.79h-5.82c-0.91,3.85-3.52,6.52-7.74,6.52c-2.24,0-4.27-0.85-5.6-2.3c-1.87-2.03-2.3-4.22-2.3-11.85
				c0-7.64,0.43-9.83,2.3-11.86c1.33-1.44,3.36-2.29,5.6-2.29c4.22,0,6.78,2.67,7.69,6.51h5.87c-1.33-7.58-6.56-11.69-13.56-11.69
				c-3.95,0-7.37,1.44-9.98,4.05c-3.73,3.74-3.68,7.96-3.68,15.27c0,7.31-0.05,11.53,3.68,15.27c2.61,2.61,6.03,4.05,9.98,4.05
				C548.39,316.48,553.78,312.37,555.06,304.79 M510.54,274.21h-5.23l-15.22,45.9h5.23L510.54,274.21z M467.79,289.31
				c0,4.11-2.4,6.57-5.82,6.57c-3.63,0-5.77-2.83-5.77-6.57c0-4.06,2.35-6.62,5.77-6.62S467.79,285.25,467.79,289.31 M473.23,289.2
				c0-7.05-4.69-11.37-11.26-11.37c-6.57,0-11.2,4.59-11.2,11.58c0,6.68,4.42,11,9.92,11c1.17,0,2.4-0.16,3.42-0.59l-8.17,16.33
				h5.82l8.65-17.62C472.05,295.24,473.23,292.3,473.23,289.2 M425.61,300.42h-12.17c0.06-1.66,0.16-2.46,0.7-3.69
				c0.85-2.03,2.83-3.42,5.39-3.42c2.56,0,4.48,1.39,5.34,3.42C425.4,297.96,425.56,298.76,425.61,300.42 M431.01,304.2v-2.4
				c0-7.69-4.22-13.02-11.48-13.02c-6.94,0-11.47,5.06-11.47,13.82c0,10.3,5.38,13.87,12.17,13.87c4.75,0,7.37-1.44,10.14-4.21
				l-3.47-3.26c-1.92,1.92-3.52,2.78-6.56,2.78c-4.43,0-6.89-2.94-6.89-7.59H431.01z M402.29,307.89c0-4.8-2.99-7.21-8.06-7.64
				l-4.27-0.37c-2.88-0.27-3.74-1.49-3.74-3.1c0-2.03,1.65-3.47,4.91-3.47c2.56,0,4.96,0.53,6.67,1.98l3.42-3.47
				c-2.51-2.19-5.98-3.03-10.04-3.03c-5.66,0-10.19,2.98-10.19,8.27c0,4.75,2.93,7.05,8.01,7.48l4.32,0.37
				c2.62,0.21,3.63,1.39,3.63,3.2c0,2.57-2.61,3.74-5.92,3.74c-2.67,0-5.61-0.59-7.79-2.83l-3.58,3.58
				c3.2,3.14,6.94,3.89,11.37,3.89C397.48,316.48,402.29,313.55,402.29,307.89 M375.44,307.89c0-4.8-2.99-7.21-8.06-7.64l-4.27-0.37
				c-2.88-0.27-3.74-1.49-3.74-3.1c0-2.03,1.66-3.47,4.91-3.47c2.56,0,4.97,0.53,6.68,1.98l3.42-3.47
				c-2.51-2.19-5.98-3.03-10.04-3.03c-5.66,0-10.2,2.98-10.2,8.27c0,4.75,2.94,7.05,8.01,7.48l4.33,0.37
				c2.61,0.21,3.63,1.39,3.63,3.2c0,2.57-2.62,3.74-5.93,3.74c-2.67,0-5.6-0.59-7.79-2.83l-3.57,3.58c3.2,3.14,6.94,3.89,11.37,3.89
				C370.63,316.48,375.44,313.55,375.44,307.89 M341.06,306.39c0,1.92-0.37,3.2-1.17,4.01c-1.44,1.39-2.99,1.55-5.07,1.55
				c-3.42,0-4.97-1.39-4.97-3.85c0-2.46,1.66-3.9,4.86-3.9h6.36V306.39z M346.5,316.16v-18.09c0-6.14-3.73-9.28-11.15-9.28
				c-4.48,0-7.15,0.9-9.71,3.89l3.57,3.37c1.49-1.92,2.94-2.62,5.93-2.62c4.22,0,5.93,1.66,5.93,5.07v1.93h-7.15
				c-6.19,0-9.34,3.25-9.34,7.79c0,2.3,0.75,4.38,2.14,5.82c1.65,1.65,3.89,2.45,7.25,2.45c3.37,0,5.24-0.8,7.21-2.77v2.45H346.5z
				 M320.08,316.16v-4.64h-2.4c-2.19,0-2.93-1.07-2.93-3.15v-30.21h-5.44v30.53c0,4,2.24,7.47,7.41,7.47H320.08z M304.06,316.16
				l-13.62-23.11l12.33-14.89h-7.05l-15.54,19.11v-19.11h-5.75v38h5.75v-11.05l6.41-7.69l10.68,18.73H304.06z"/>
		</g>
		<g style="clip-path:url(#SVGID_00000137096774763099190990000015002123672886641538_);">
			<path class="st3" d="M749.69,188.55c0,3.69-2.08,6.2-5.56,6.2c-3.47,0-5.5-2.51-5.5-6.2v-16.55c0-3.69,2.03-6.19,5.5-6.19
				c3.47,0,5.56,2.51,5.56,6.19V188.55z M755.13,188.72v-16.87c0-6.78-4.96-10.88-11-10.88s-10.93,4.11-10.93,10.88v16.87
				c0,6.78,4.9,10.88,10.93,10.88S755.13,195.5,755.13,188.72 M719.9,199.28v-38h-5.44l-7.42,6.41v6.03l7.42-6.51v32.07H719.9z
				 M678.79,183.54h-12.17c0.06-1.66,0.16-2.46,0.7-3.69c0.85-2.03,2.83-3.42,5.39-3.42s4.48,1.39,5.34,3.42
				C678.58,181.08,678.74,181.88,678.79,183.54 M684.19,187.32v-2.4c0-7.69-4.22-13.02-11.48-13.02c-6.94,0-11.47,5.06-11.47,13.82
				c0,10.3,5.38,13.87,12.17,13.87c4.75,0,7.37-1.44,10.14-4.21l-3.47-3.26c-1.92,1.92-3.52,2.78-6.56,2.78
				c-4.43,0-6.89-2.94-6.89-7.59H684.19z M655.47,191.01c0-4.8-2.99-7.21-8.06-7.64l-4.27-0.37c-2.88-0.27-3.74-1.49-3.74-3.1
				c0-2.03,1.65-3.47,4.91-3.47c2.56,0,4.96,0.53,6.67,1.98l3.42-3.47c-2.51-2.19-5.98-3.03-10.04-3.03
				c-5.66,0-10.19,2.98-10.19,8.27c0,4.75,2.93,7.05,8.01,7.48l4.32,0.37c2.62,0.21,3.63,1.39,3.63,3.2c0,2.57-2.61,3.74-5.92,3.74
				c-2.67,0-5.61-0.59-7.79-2.83l-3.58,3.58c3.2,3.14,6.94,3.89,11.37,3.89C650.66,199.6,655.47,196.67,655.47,191.01
				 M628.62,191.01c0-4.8-2.99-7.21-8.06-7.64l-4.27-0.37c-2.88-0.27-3.74-1.49-3.74-3.1c0-2.03,1.66-3.47,4.91-3.47
				c2.56,0,4.97,0.53,6.68,1.98l3.42-3.47c-2.51-2.19-5.98-3.03-10.04-3.03c-5.66,0-10.2,2.98-10.2,8.27c0,4.75,2.94,7.05,8.01,7.48
				l4.33,0.37c2.61,0.21,3.63,1.39,3.63,3.2c0,2.57-2.62,3.74-5.93,3.74c-2.67,0-5.6-0.59-7.79-2.83l-3.57,3.58
				c3.2,3.14,6.94,3.89,11.37,3.89C623.82,199.6,628.62,196.67,628.62,191.01 M594.24,189.52c0,1.92-0.37,3.2-1.17,4.01
				c-1.44,1.39-2.99,1.55-5.07,1.55c-3.42,0-4.97-1.39-4.97-3.85c0-2.46,1.66-3.9,4.86-3.9h6.36V189.52z M599.68,199.28v-18.09
				c0-6.14-3.73-9.28-11.15-9.28c-4.48,0-7.15,0.9-9.71,3.89l3.57,3.37c1.49-1.92,2.94-2.62,5.93-2.62c4.22,0,5.93,1.66,5.93,5.07
				v1.93h-7.15c-6.19,0-9.34,3.25-9.34,7.79c0,2.3,0.75,4.38,2.13,5.82c1.66,1.65,3.89,2.45,7.26,2.45c3.37,0,5.24-0.8,7.21-2.77
				v2.45H599.68z M573.26,199.28v-4.64h-2.4c-2.19,0-2.93-1.07-2.93-3.15v-30.21h-5.44v30.53c0,4,2.24,7.47,7.41,7.47H573.26z
				 M555.06,187.91h-5.82c-0.91,3.85-3.52,6.52-7.74,6.52c-2.24,0-4.27-0.85-5.6-2.3c-1.87-2.03-2.3-4.22-2.3-11.85
				c0-7.64,0.43-9.83,2.3-11.86c1.33-1.44,3.36-2.29,5.6-2.29c4.22,0,6.78,2.67,7.69,6.51h5.87c-1.33-7.58-6.56-11.69-13.56-11.69
				c-3.95,0-7.37,1.44-9.98,4.05c-3.73,3.74-3.67,7.96-3.67,15.27c0,7.31-0.06,11.53,3.67,15.27c2.61,2.61,6.03,4.05,9.98,4.05
				C548.39,199.6,553.77,195.49,555.06,187.91 M510.54,157.33h-5.23l-15.21,45.9h5.23L510.54,157.33z M467.52,188.55
				c0,3.69-2.08,6.2-5.56,6.2c-3.47,0-5.5-2.51-5.5-6.2v-16.55c0-3.69,2.03-6.19,5.5-6.19c3.47,0,5.56,2.51,5.56,6.19V188.55z
				 M472.96,188.72v-16.87c0-6.78-4.96-10.88-11-10.88c-6.03,0-10.93,4.11-10.93,10.88v16.87c0,6.78,4.9,10.88,10.93,10.88
				C468,199.6,472.96,195.5,472.96,188.72 M437.73,199.28v-38h-5.44l-7.42,6.41v6.03l7.42-6.51v32.07H437.73z M396.63,183.54h-12.17
				c0.06-1.66,0.16-2.46,0.7-3.69c0.85-2.03,2.83-3.42,5.39-3.42c2.56,0,4.48,1.39,5.34,3.42
				C396.41,181.08,396.58,181.88,396.63,183.54 M402.02,187.32v-2.4c0-7.69-4.22-13.02-11.48-13.02c-6.94,0-11.47,5.06-11.47,13.82
				c0,10.3,5.38,13.87,12.17,13.87c4.75,0,7.37-1.44,10.14-4.21l-3.47-3.26c-1.92,1.92-3.52,2.78-6.56,2.78
				c-4.43,0-6.89-2.94-6.89-7.59H402.02z M373.3,191.01c0-4.8-2.99-7.21-8.06-7.64l-4.27-0.37c-2.88-0.27-3.74-1.49-3.74-3.1
				c0-2.03,1.65-3.47,4.91-3.47c2.56,0,4.96,0.53,6.67,1.98l3.42-3.47c-2.51-2.19-5.98-3.03-10.04-3.03
				c-5.66,0-10.19,2.98-10.19,8.27c0,4.75,2.93,7.05,8.01,7.48l4.32,0.37c2.62,0.21,3.63,1.39,3.63,3.2c0,2.57-2.61,3.74-5.92,3.74
				c-2.67,0-5.61-0.59-7.79-2.83l-3.58,3.58c3.2,3.14,6.94,3.89,11.37,3.89C368.5,199.6,373.3,196.67,373.3,191.01 M346.45,191.01
				c0-4.8-2.99-7.21-8.06-7.64l-4.27-0.37c-2.88-0.27-3.74-1.49-3.74-3.1c0-2.03,1.66-3.47,4.91-3.47c2.56,0,4.97,0.53,6.68,1.98
				l3.42-3.47c-2.51-2.19-5.98-3.03-10.04-3.03c-5.66,0-10.2,2.98-10.2,8.27c0,4.75,2.94,7.05,8.01,7.48l4.33,0.37
				c2.61,0.21,3.63,1.39,3.63,3.2c0,2.57-2.62,3.74-5.93,3.74c-2.67,0-5.6-0.59-7.79-2.83l-3.57,3.58c3.2,3.14,6.94,3.89,11.37,3.89
				C341.65,199.6,346.45,196.67,346.45,191.01 M312.08,189.52c0,1.92-0.37,3.2-1.17,4.01c-1.44,1.39-2.99,1.55-5.07,1.55
				c-3.42,0-4.97-1.39-4.97-3.85c0-2.46,1.66-3.9,4.86-3.9h6.36V189.52z M317.51,199.28v-18.09c0-6.14-3.73-9.28-11.15-9.28
				c-4.48,0-7.15,0.9-9.71,3.89l3.57,3.37c1.49-1.92,2.94-2.62,5.93-2.62c4.22,0,5.93,1.66,5.93,5.07v1.93h-7.15
				c-6.19,0-9.34,3.25-9.34,7.79c0,2.3,0.75,4.38,2.14,5.82c1.65,1.65,3.89,2.45,7.25,2.45c3.37,0,5.24-0.8,7.21-2.77v2.45H317.51z
				 M291.09,199.28v-4.64h-2.4c-2.19,0-2.93-1.07-2.93-3.15v-30.21h-5.44v30.53c0,4,2.24,7.47,7.41,7.47H291.09z M275.08,199.28
				l-13.62-23.11l12.33-14.89h-7.05l-15.54,19.11v-19.11h-5.75v38h5.75v-11.05l6.41-7.69l10.68,18.73H275.08z"/>
		</g>
		<g style="clip-path:url(#SVGID_00000137096774763099190990000015002123672886641538_);">
			<path class="st3" d="M726.52,770.97c0-3.58-0.43-7.27-3.31-10.14c-1.55-1.55-3.84-2.46-6.83-2.46c-2.78,0-5.02,0.85-6.3,2.19
				v-10.04h15.59v-4.85h-20.49v20.76h4.96c0.59-1.87,2.3-3.42,5.39-3.42c4.38,0,5.56,3.42,5.56,7.96c0,2.56-0.21,5.07-1.81,6.68
				c-0.97,0.96-2.35,1.49-3.96,1.49c-3.42,0-5.12-1.92-5.55-5.29h-5.44c0.21,2.72,0.85,5.23,2.88,7.26
				c1.65,1.65,4.48,2.93,8.11,2.93c3.69,0,6.3-1.28,8.01-2.98C726.09,778.28,726.52,775.02,726.52,770.97 M678.8,767.93h-12.17
				c0.05-1.66,0.16-2.46,0.69-3.69c0.85-2.03,2.83-3.42,5.39-3.42c2.56,0,4.48,1.39,5.34,3.42
				C678.58,765.47,678.74,766.27,678.8,767.93 M684.18,771.71v-2.4c0-7.69-4.21-13.02-11.47-13.02c-6.94,0-11.47,5.06-11.47,13.82
				c0,10.31,5.39,13.88,12.17,13.88c4.75,0,7.37-1.44,10.14-4.21l-3.47-3.26c-1.92,1.92-3.52,2.78-6.57,2.78
				c-4.43,0-6.88-2.94-6.88-7.59H684.18z M655.47,775.39c0-4.8-2.99-7.21-8.06-7.64l-4.27-0.37c-2.88-0.27-3.74-1.49-3.74-3.1
				c0-2.03,1.66-3.47,4.91-3.47c2.56,0,4.97,0.53,6.68,1.98l3.42-3.47c-2.51-2.19-5.98-3.03-10.04-3.03c-5.66,0-10.2,2.98-10.2,8.27
				c0,4.75,2.94,7.05,8.01,7.48l4.33,0.37c2.61,0.21,3.63,1.39,3.63,3.2c0,2.57-2.62,3.74-5.93,3.74c-2.67,0-5.6-0.59-7.79-2.83
				l-3.57,3.57c3.2,3.15,6.94,3.89,11.37,3.89C650.67,783.99,655.47,781.05,655.47,775.39 M628.62,775.39c0-4.8-2.99-7.21-8.06-7.64
				l-4.27-0.37c-2.88-0.27-3.74-1.49-3.74-3.1c0-2.03,1.65-3.47,4.91-3.47c2.56,0,4.96,0.53,6.67,1.98l3.42-3.47
				c-2.51-2.19-5.98-3.03-10.04-3.03c-5.66,0-10.19,2.98-10.19,8.27c0,4.75,2.93,7.05,8.01,7.48l4.32,0.37
				c2.62,0.21,3.63,1.39,3.63,3.2c0,2.57-2.61,3.74-5.92,3.74c-2.67,0-5.61-0.59-7.79-2.83l-3.58,3.57
				c3.2,3.15,6.94,3.89,11.37,3.89C623.81,783.99,628.62,781.05,628.62,775.39 M594.25,773.9c0,1.92-0.37,3.2-1.17,4.01
				c-1.44,1.39-2.99,1.55-5.07,1.55c-3.42,0-4.97-1.39-4.97-3.85c0-2.46,1.66-3.9,4.86-3.9h6.36V773.9z M599.68,783.67v-18.09
				c0-6.14-3.73-9.28-11.15-9.28c-4.49,0-7.15,0.9-9.72,3.89l3.57,3.37c1.49-1.92,2.94-2.62,5.93-2.62c4.22,0,5.93,1.66,5.93,5.07
				v1.93h-7.16c-6.19,0-9.33,3.25-9.33,7.79c0,2.3,0.74,4.38,2.13,5.82c1.65,1.65,3.89,2.45,7.26,2.45s5.23-0.8,7.21-2.77v2.45
				H599.68z M573.26,783.67v-4.64h-2.4c-2.19,0-2.94-1.07-2.94-3.15v-30.21h-5.43v30.53c0,4,2.24,7.47,7.41,7.47H573.26z
				 M555.06,772.3h-5.82c-0.91,3.85-3.52,6.52-7.74,6.52c-2.24,0-4.27-0.85-5.6-2.3c-1.87-2.03-2.3-4.22-2.3-11.85
				c0-7.64,0.43-9.83,2.3-11.86c1.33-1.44,3.36-2.3,5.6-2.3c4.22,0,6.78,2.67,7.69,6.52h5.87c-1.33-7.58-6.56-11.69-13.56-11.69
				c-3.95,0-7.37,1.44-9.98,4.05c-3.73,3.74-3.68,7.96-3.68,15.27c0,7.31-0.05,11.53,3.68,15.27c2.61,2.61,6.03,4.05,9.98,4.05
				C548.39,783.99,553.78,779.88,555.06,772.3 M510.54,741.71h-5.23l-15.22,45.9h5.23L510.54,741.71z M473.33,770.97
				c0-3.58-0.43-7.27-3.3-10.14c-1.55-1.55-3.84-2.46-6.83-2.46c-2.78,0-5.02,0.85-6.3,2.19v-10.04h15.59v-4.85h-20.49v20.76h4.96
				c0.59-1.87,2.3-3.42,5.4-3.42c4.38,0,5.55,3.42,5.55,7.96c0,2.56-0.21,5.07-1.81,6.68c-0.96,0.96-2.35,1.49-3.95,1.49
				c-3.42,0-5.13-1.92-5.56-5.29h-5.44c0.21,2.72,0.85,5.23,2.88,7.26c1.65,1.65,4.48,2.93,8.11,2.93c3.68,0,6.3-1.28,8.01-2.98
				C472.91,778.28,473.33,775.02,473.33,770.97 M425.61,767.93h-12.17c0.06-1.66,0.16-2.46,0.7-3.69c0.85-2.03,2.83-3.42,5.39-3.42
				c2.56,0,4.48,1.39,5.34,3.42C425.4,765.47,425.56,766.27,425.61,767.93 M431.01,771.71v-2.4c0-7.69-4.22-13.02-11.48-13.02
				c-6.94,0-11.47,5.06-11.47,13.82c0,10.31,5.38,13.88,12.17,13.88c4.75,0,7.37-1.44,10.14-4.21l-3.47-3.26
				c-1.92,1.92-3.52,2.78-6.56,2.78c-4.43,0-6.89-2.94-6.89-7.59H431.01z M402.29,775.39c0-4.8-2.99-7.21-8.06-7.64l-4.27-0.37
				c-2.88-0.27-3.74-1.49-3.74-3.1c0-2.03,1.65-3.47,4.91-3.47c2.56,0,4.96,0.53,6.67,1.98l3.42-3.47
				c-2.51-2.19-5.98-3.03-10.04-3.03c-5.66,0-10.19,2.98-10.19,8.27c0,4.75,2.93,7.05,8.01,7.48l4.32,0.37
				c2.62,0.21,3.63,1.39,3.63,3.2c0,2.57-2.61,3.74-5.92,3.74c-2.67,0-5.61-0.59-7.79-2.83l-3.58,3.57
				c3.2,3.15,6.94,3.89,11.37,3.89C397.48,783.99,402.29,781.05,402.29,775.39 M375.44,775.39c0-4.8-2.99-7.21-8.06-7.64l-4.27-0.37
				c-2.88-0.27-3.74-1.49-3.74-3.1c0-2.03,1.66-3.47,4.91-3.47c2.56,0,4.97,0.53,6.68,1.98l3.42-3.47
				c-2.51-2.19-5.98-3.03-10.04-3.03c-5.66,0-10.2,2.98-10.2,8.27c0,4.75,2.94,7.05,8.01,7.48l4.33,0.37
				c2.61,0.21,3.63,1.39,3.63,3.2c0,2.57-2.62,3.74-5.93,3.74c-2.67,0-5.6-0.59-7.79-2.83l-3.57,3.57c3.2,3.15,6.94,3.89,11.37,3.89
				C370.63,783.99,375.44,781.05,375.44,775.39 M341.06,773.9c0,1.92-0.37,3.2-1.17,4.01c-1.44,1.39-2.99,1.55-5.07,1.55
				c-3.42,0-4.97-1.39-4.97-3.85c0-2.46,1.66-3.9,4.86-3.9h6.36V773.9z M346.5,783.67v-18.09c0-6.14-3.73-9.28-11.15-9.28
				c-4.48,0-7.15,0.9-9.71,3.89l3.57,3.37c1.49-1.92,2.94-2.62,5.93-2.62c4.22,0,5.93,1.66,5.93,5.07v1.93h-7.15
				c-6.19,0-9.34,3.25-9.34,7.79c0,2.3,0.75,4.38,2.14,5.82c1.65,1.65,3.89,2.45,7.25,2.45c3.37,0,5.24-0.8,7.21-2.77v2.45H346.5z
				 M320.08,783.67v-4.64h-2.4c-2.19,0-2.93-1.07-2.93-3.15v-30.21h-5.44v30.53c0,4,2.24,7.47,7.41,7.47H320.08z M304.06,783.67
				l-13.62-23.11l12.33-14.89h-7.05l-15.54,19.11v-19.11h-5.75v38h5.75v-11.05l6.41-7.69l10.68,18.73H304.06z"/>
		</g>
	</g>
	<g>
		<polygon class="st4" points="20.73,755.85 36.8,755.85 28.77,745.23 		"/>
	</g>
	<g>
		<polygon class="st4" points="20.73,776.99 36.8,776.99 28.77,766.36 		"/>
	</g>
	<g>
		<polygon class="st4" points="20.73,798.12 36.8,798.12 28.77,787.5 		"/>
	</g>
	<g>
		<polygon class="st4" points="20.73,734.72 36.8,734.72 28.77,724.09 		"/>
	</g>
	<g>
		<polygon class="st4" points="20.73,640.38 36.8,640.38 28.77,629.75 		"/>
	</g>
	<g>
		<polygon class="st4" points="20.73,661.51 36.8,661.51 28.77,650.89 		"/>
	</g>
	<g>
		<polygon class="st4" points="20.73,682.65 36.8,682.65 28.77,672.02 		"/>
	</g>
	<g>
		<polygon class="st4" points="20.73,619.24 36.8,619.24 28.77,608.62 		"/>
	</g>
	<g>
		<polygon class="st4" points="20.73,520.69 36.8,520.69 28.77,510.07 		"/>
	</g>
	<g>
		<polygon class="st4" points="20.73,541.83 36.8,541.83 28.77,531.2 		"/>
	</g>
	<g>
		<polygon class="st4" points="20.73,562.96 36.8,562.96 28.77,552.34 		"/>
	</g>
	<g>
		<polygon class="st4" points="20.73,499.56 36.8,499.56 28.77,488.93 		"/>
	</g>
	<g>
		<polygon class="st4" points="20.73,402.41 36.8,402.41 28.77,391.78 		"/>
	</g>
	<g>
		<polygon class="st4" points="20.73,423.54 36.8,423.54 28.77,412.92 		"/>
	</g>
	<g>
		<polygon class="st4" points="20.73,444.68 36.8,444.68 28.77,434.05 		"/>
	</g>
	<g>
		<polygon class="st4" points="20.73,381.27 36.8,381.27 28.77,370.65 		"/>
	</g>
	<g>
		<polygon class="st4" points="20.73,286.94 36.8,286.94 28.77,276.31 		"/>
	</g>
	<g>
		<polygon class="st4" points="20.73,308.07 36.8,308.07 28.77,297.45 		"/>
	</g>
	<g>
		<polygon class="st4" points="20.73,329.21 36.8,329.21 28.77,318.58 		"/>
	</g>
	<g>
		<polygon class="st4" points="20.73,265.8 36.8,265.8 28.77,255.18 		"/>
	</g>
	<g>
		<polygon class="st4" points="20.73,170.06 36.8,170.06 28.77,159.44 		"/>
	</g>
	<g>
		<polygon class="st4" points="20.73,191.2 36.8,191.2 28.77,180.57 		"/>
	</g>
	<g>
		<polygon class="st4" points="20.73,212.33 36.8,212.33 28.77,201.71 		"/>
	</g>
	<g>
		<polygon class="st4" points="20.73,148.93 36.8,148.93 28.77,138.3 		"/>
	</g>
</g>
</svg>
