<?xml version="1.0" encoding="utf-8"?>
<!-- Generator: Adobe Illustrator 26.2.1, SVG Export Plug-In . SVG Version: 6.00 Build 0)  -->
<svg version="1.1" id="Ebene_1" xmlns="http://www.w3.org/2000/svg" xmlns:xlink="http://www.w3.org/1999/xlink" x="0px" y="0px"
	 viewBox="0 0 1000 825.44" style="enable-background:new 0 0 1000 825.44;" xml:space="preserve">
<style type="text/css">
	.st0{fill:#A2B9E1;}
	.st1{fill:#6796CF;}
	.st2{clip-path:url(#SVGID_00000065795343148088853970000000348875733889246638_);}
	.st3{fill:#2B2961;}
	.st4{fill:#FFFFFF;}
	.st5{clip-path:url(#SVGID_00000152948096234381421400000000003106890852219834_);}
	.st6{clip-path:url(#SVGID_00000005266704356814346810000006910641101930162049_);}
	.st7{clip-path:url(#SVGID_00000001663386360611332530000002637067630951930008_);}
	.st8{clip-path:url(#SVGID_00000080180634952356907360000017715701482553354119_);}
	.st9{clip-path:url(#SVGID_00000106859092923869983960000004218482870910365117_);}
	.st10{opacity:0.52;clip-path:url(#SVGID_00000122707506226192987730000000171011188390327172_);}
	.st11{clip-path:url(#SVGID_00000169527551666856660730000005048940754030712704_);}
	.st12{clip-path:url(#SVGID_00000056409967750384412640000009130848015026034621_);}
	.st13{clip-path:url(#SVGID_00000097459647706166868980000008032836844223266192_);}
	.st14{clip-path:url(#SVGID_00000009576478880270947710000011236520415063442838_);}
	.st15{clip-path:url(#SVGID_00000036971847403534211080000013648653651148885944_);}
	.st16{clip-path:url(#SVGID_00000096060446546298471210000005456668774986153358_);}
	.st17{clip-path:url(#SVGID_00000064313694559651594400000006574959929133564051_);}
	.st18{clip-path:url(#SVGID_00000081624494523722214130000016776652610308685718_);}
	.st19{clip-path:url(#SVGID_00000073698127607109874800000012145104548005914506_);}
	.st20{clip-path:url(#SVGID_00000005979165329998489870000010287492047237505702_);}
	.st21{clip-path:url(#SVGID_00000164502011354780476850000000198279526297749932_);}
	.st22{clip-path:url(#SVGID_00000120544110994477680790000003755033194996271240_);}
	.st23{fill:none;stroke:#2B2961;stroke-width:0.374;stroke-linejoin:round;stroke-miterlimit:10;}
	.st24{fill:none;stroke:#2B2961;stroke-width:0.4;stroke-miterlimit:10;}
	.st25{clip-path:url(#SVGID_00000094579267320891822560000009874006265353746610_);}
	.st26{clip-path:url(#SVGID_00000150075404560278031210000002625204829907296400_);}
	.st27{clip-path:url(#SVGID_00000121266987650085929980000011705588614000807076_);}
	.st28{clip-path:url(#SVGID_00000124125350843500647390000000296709856716926642_);}
	.st29{clip-path:url(#SVGID_00000058548327900685808230000014643741969105383829_);}
	.st30{clip-path:url(#SVGID_00000171677277825685110980000017262943646299116215_);}
	.st31{clip-path:url(#SVGID_00000124850276462423873390000001270337789824098481_);}
	.st32{clip-path:url(#SVGID_00000147911317080575899180000010235788693333871279_);}
	.st33{clip-path:url(#SVGID_00000153677593480002691440000014832249113002532502_);}
	.st34{clip-path:url(#SVGID_00000049927770303108548120000005493300548992452031_);}
	.st35{clip-path:url(#SVGID_00000007386070730511525890000014122071538111940768_);}
	.st36{clip-path:url(#SVGID_00000051354289228774549240000000235095272812432280_);}
	.st37{clip-path:url(#SVGID_00000176736335717078808050000008060875010968455344_);}
	.st38{clip-path:url(#SVGID_00000057855328872589632790000014407057742763639986_);}
	.st39{clip-path:url(#SVGID_00000148654179790501453670000004003878392135653284_);}
	.st40{clip-path:url(#SVGID_00000160167543526350942420000004120243282181195666_);}
	.st41{clip-path:url(#SVGID_00000066481433650077431760000011668922747394575285_);}
	.st42{clip-path:url(#SVGID_00000098190461310134332980000013642005945248698556_);}
	.st43{clip-path:url(#SVGID_00000083798847801015951410000004454304277635782786_);}
	.st44{clip-path:url(#SVGID_00000155113270185974469530000008710945469462792880_);}
	.st45{clip-path:url(#SVGID_00000000193281977583139080000001415621985498953137_);}
	.st46{clip-path:url(#SVGID_00000090988538821977720950000017671231758066134148_);}
	.st47{clip-path:url(#SVGID_00000172416193287256088430000012917215232317237937_);}
	.st48{clip-path:url(#SVGID_00000067212717394661819660000007726632784950793118_);}
	.st49{clip-path:url(#SVGID_00000060727665496860316450000015347887304723934631_);}
	.st50{clip-path:url(#SVGID_00000134234304237074423620000001449633292652887946_);}
	.st51{clip-path:url(#SVGID_00000118376981911608189170000007186244368258322872_);}
	.st52{clip-path:url(#SVGID_00000150811684785444903210000012163286192834116515_);}
	.st53{clip-path:url(#SVGID_00000066506883351202057700000002274726842623243943_);}
	.st54{clip-path:url(#SVGID_00000136379354522527487990000001249495425129455807_);}
	.st55{clip-path:url(#SVGID_00000147199442559554168710000006946232978963782286_);}
	.st56{clip-path:url(#SVGID_00000067952047037674488630000011070373091469439402_);}
	.st57{clip-path:url(#SVGID_00000004539715744049962590000012899500903810423729_);}
	.st58{clip-path:url(#SVGID_00000059272431008998744320000015815234441147737503_);}
	.st59{clip-path:url(#SVGID_00000042015925307895808210000014029827563645775023_);}
	.st60{clip-path:url(#SVGID_00000180335212997043698420000008293290597796218810_);}
	.st61{clip-path:url(#SVGID_00000145738115556853776260000007947666667587809975_);}
	.st62{fill:#9AB4DE;}
	.st63{clip-path:url(#SVGID_00000060710388847575129910000013820298109745022639_);}
	.st64{clip-path:url(#SVGID_00000023244940234099333950000012127427870252408499_);}
	.st65{clip-path:url(#SVGID_00000175315640007978107640000008847703461633271735_);}
	.st66{fill:#B9C9E9;}
	.st67{clip-path:url(#SVGID_00000016047477595723825210000000254148202642052015_);}
	.st68{clip-path:url(#SVGID_00000114070511754684110690000005772227900865736114_);}
	.st69{clip-path:url(#SVGID_00000135654325941914324850000001878516248931052475_);}
	.st70{clip-path:url(#SVGID_00000097475789759234209450000000897404325378016176_);}
	.st71{clip-path:url(#SVGID_00000142881049754290431130000015800008657632401831_);}
	.st72{clip-path:url(#SVGID_00000061454389106543833360000011481931911989362082_);}
	.st73{clip-path:url(#SVGID_00000019657879185525206530000010200155904031012797_);}
	.st74{clip-path:url(#SVGID_00000108294968466647844030000003603006823555819904_);}
	.st75{clip-path:url(#SVGID_00000009569169327370063710000015773338058099998641_);}
	.st76{clip-path:url(#SVGID_00000031911349994048306970000014089823505440508038_);}
	.st77{clip-path:url(#SVGID_00000011740790915310761130000007797588424553514173_);}
	.st78{clip-path:url(#SVGID_00000132089664911180167910000006371433283275437503_);}
	.st79{clip-path:url(#SVGID_00000089546543062765370030000014023962168225187247_);}
	.st80{clip-path:url(#SVGID_00000083062794870282670100000011335549884701931408_);}
	.st81{clip-path:url(#SVGID_00000107589960399753047540000011590370772010364841_);}
	.st82{clip-path:url(#SVGID_00000022556983307049978480000016488734377852354478_);}
	.st83{clip-path:url(#SVGID_00000177485585503939596990000009775028149313420674_);}
	.st84{clip-path:url(#SVGID_00000120542339612046319010000008961296228839923861_);}
	.st85{clip-path:url(#SVGID_00000142894102689396840310000001230086784146033071_);}
	.st86{clip-path:url(#SVGID_00000004539756571555435010000000423273451050607763_);}
	.st87{clip-path:url(#SVGID_00000095334127079800698730000013383075274317034421_);}
	.st88{clip-path:url(#SVGID_00000075846165049391426910000010689589948114471062_);}
	.st89{clip-path:url(#SVGID_00000114774254105760578160000011463399472638393479_);}
	.st90{clip-path:url(#SVGID_00000009557809136574632750000003457391424842378163_);}
	.st91{clip-path:url(#SVGID_00000086687144415131951390000017128977394207784330_);}
	.st92{clip-path:url(#SVGID_00000152953882453068616260000017569502570287919784_);}
	.st93{clip-path:url(#SVGID_00000067212686561286257590000011400897127538948506_);}
	.st94{clip-path:url(#SVGID_00000139261846724828856570000005335854466301333900_);}
	.st95{clip-path:url(#SVGID_00000089569280376949073380000005084894883909149631_);}
	.st96{clip-path:url(#SVGID_00000108278797971169114600000002949414699443320993_);}
	.st97{clip-path:url(#SVGID_00000124875795797289392990000003631209076515798164_);}
	.st98{clip-path:url(#SVGID_00000067205064097149610540000017601623026593933973_);}
	.st99{clip-path:url(#SVGID_00000096763988318840272870000004737523150337244083_);}
	.st100{clip-path:url(#SVGID_00000006673935691764047360000016190015513996015787_);}
	.st101{clip-path:url(#SVGID_00000132772104813370506540000017680124741581173693_);}
	.st102{clip-path:url(#SVGID_00000011750590754356205220000018186564485754642867_);}
	.st103{clip-path:url(#SVGID_00000082330661336551897450000000353219079657272740_);}
	.st104{clip-path:url(#SVGID_00000054970021129985057330000008370406565450811071_);}
	.st105{clip-path:url(#SVGID_00000149352109371966606550000015239096041441870266_);}
	.st106{clip-path:url(#SVGID_00000176009331047513558770000016915003952549385608_);}
	.st107{clip-path:url(#SVGID_00000108283547228809377740000011287287776734730640_);}
	.st108{clip-path:url(#SVGID_00000150824229881940504540000014666069105529234334_);}
	.st109{clip-path:url(#SVGID_00000109727373512137468560000017155010095542722181_);}
	.st110{clip-path:url(#SVGID_00000174579826743649054380000000529885668490563768_);}
	.st111{clip-path:url(#SVGID_00000165229906517644169840000017894132428002735263_);}
	.st112{clip-path:url(#SVGID_00000059284930868588084880000006898207335280910764_);}
	.st113{clip-path:url(#SVGID_00000011715224321227941310000009322827460195031691_);}
	.st114{clip-path:url(#SVGID_00000052797025033043794380000007217062528896289964_);}
	.st115{clip-path:url(#SVGID_00000031914518402792219770000003503721255213047185_);}
	.st116{clip-path:url(#SVGID_00000149370537450911342350000011480011954451996812_);}
	.st117{clip-path:url(#SVGID_00000078762882323408641950000009154584507786862262_);}
	.st118{clip-path:url(#SVGID_00000057855200078403028970000010606310426962803359_);}
	.st119{clip-path:url(#SVGID_00000085957213717882095540000014903186937656560516_);}
	.st120{clip-path:url(#SVGID_00000129173641526366683480000016973798900883378325_);}
	.st121{clip-path:url(#SVGID_00000114051374882608774050000013131286802709971127_);}
	.st122{clip-path:url(#SVGID_00000062150818771960166470000002656398500723736478_);}
	.st123{clip-path:url(#SVGID_00000003101177639964394760000011195054831388535984_);}
	.st124{clip-path:url(#SVGID_00000160910356405497067240000015026474944265708705_);}
	.st125{clip-path:url(#SVGID_00000052799584786244446400000016102216403150605202_);}
	.st126{clip-path:url(#SVGID_00000143610159177839041910000006219987720093317285_);}
	.st127{clip-path:url(#SVGID_00000178207056996106324830000012415461486028515205_);}
	.st128{clip-path:url(#SVGID_00000053525835309524166860000007400875829382294438_);}
	.st129{clip-path:url(#SVGID_00000012431918550427922670000006487002438651917701_);}
	.st130{clip-path:url(#SVGID_00000074416140187802261750000001231760123900411325_);}
	.st131{clip-path:url(#SVGID_00000092426811704581660970000013435506659513007035_);}
	.st132{clip-path:url(#SVGID_00000137824938486364484380000011759362437363097252_);}
	.st133{clip-path:url(#SVGID_00000041983498985630529870000011880749639301484221_);}
	.st134{clip-path:url(#SVGID_00000066483190791214451270000003235806703135414196_);}
	.st135{clip-path:url(#SVGID_00000075846152825223007680000014180735803119114425_);}
	.st136{clip-path:url(#SVGID_00000084506926410220183630000001436971771073547181_);}
	.st137{clip-path:url(#SVGID_00000024717882186219356810000010936526129695266986_);}
	.st138{clip-path:url(#SVGID_00000093857056393450213730000017619108460002897818_);}
	.st139{clip-path:url(#SVGID_00000031181215653219103170000014759198964215223954_);}
	.st140{clip-path:url(#SVGID_00000141438448697179782910000008600657363010207674_);}
	.st141{clip-path:url(#SVGID_00000106830188889239511180000018381071864327735185_);}
	.st142{clip-path:url(#SVGID_00000167358396387006436720000014431863070245448841_);}
	.st143{clip-path:url(#SVGID_00000160880382281327155120000013908047194099668124_);}
	.st144{clip-path:url(#SVGID_00000088838457739088094500000011476671791007183533_);}
	.st145{clip-path:url(#SVGID_00000139292943680011341380000013145593934235987125_);}
	.st146{clip-path:url(#SVGID_00000081646129739175839550000008924361276418151856_);}
	.st147{clip-path:url(#SVGID_00000175321124931156954750000003211117973752119480_);}
	.st148{clip-path:url(#SVGID_00000044179704744805568480000001398470826959295119_);}
	.st149{clip-path:url(#SVGID_00000023275787010427560580000004208580611012728767_);}
	.st150{clip-path:url(#SVGID_00000113352651700985258340000003639428300077461147_);}
	.st151{clip-path:url(#SVGID_00000034084001010182833210000009952069478310376578_);}
	.st152{clip-path:url(#SVGID_00000116210052169953609790000006134242798165008268_);}
	.st153{clip-path:url(#SVGID_00000093176803004247460160000015885925682561656716_);}
	.st154{clip-path:url(#SVGID_00000145045403498954603050000018176483304859771777_);}
	.st155{clip-path:url(#SVGID_00000076593014291705991390000003728852205199140520_);}
	.st156{clip-path:url(#SVGID_00000079464740425852274280000015712286962646906779_);}
	.st157{clip-path:url(#SVGID_00000132049359218144438600000013368606107463945882_);}
	.st158{clip-path:url(#SVGID_00000083807870364791771870000000816770076838025115_);}
	.st159{clip-path:url(#SVGID_00000088103631776262879230000007528919272352346496_);}
	.st160{clip-path:url(#SVGID_00000151541856470566256140000006701073775323263624_);}
	.st161{clip-path:url(#SVGID_00000063601751662686142530000005351050160499026822_);}
	.st162{clip-path:url(#SVGID_00000021088082941947398680000009365544325608893106_);}
	.st163{clip-path:url(#SVGID_00000139994203101479799190000004943629961033950097_);}
	.st164{clip-path:url(#SVGID_00000127027340830373452710000004041371025122195633_);}
	.st165{clip-path:url(#SVGID_00000018233809705335642900000011626038586439856050_);}
	.st166{clip-path:url(#SVGID_00000004544534617410590220000007871472262184515245_);}
	.st167{clip-path:url(#SVGID_00000095320832628369691250000006285957788272413863_);}
	.st168{clip-path:url(#SVGID_00000107559970063307552840000002322121610964383921_);}
	.st169{clip-path:url(#SVGID_00000048491947719877444400000013948835979963628694_);}
	.st170{clip-path:url(#SVGID_00000057835687365563719060000013955585686091955381_);}
	.st171{clip-path:url(#SVGID_00000124853779549105988420000002301052440240125097_);}
	.st172{clip-path:url(#SVGID_00000065071569536482686160000016487811786873226125_);}
	.st173{clip-path:url(#SVGID_00000067199812312837717560000017302344572033983144_);}
	.st174{clip-path:url(#SVGID_00000013884203490052728420000007514992316331543461_);}
	.st175{clip-path:url(#SVGID_00000093859955074323585750000005143182836746378395_);}
	.st176{clip-path:url(#SVGID_00000076597081973273950120000000090522911110241455_);}
	.st177{clip-path:url(#SVGID_00000181785128799858238190000003974513034027893385_);}
	.st178{clip-path:url(#SVGID_00000093888478502933245340000011107640927864484285_);}
	.st179{clip-path:url(#SVGID_00000106110784718422069840000008560049172455387276_);}
	.st180{clip-path:url(#SVGID_00000179624533060708023670000003917505815621434767_);}
	.st181{clip-path:url(#SVGID_00000142878949548940012560000004928131205666564510_);}
	.st182{clip-path:url(#SVGID_00000019647335236776711080000007261644498626747015_);}
	.st183{clip-path:url(#SVGID_00000066479269813710124830000010472934060430132608_);}
	.st184{clip-path:url(#SVGID_00000034771027854400011750000009816325526001923256_);}
	.st185{clip-path:url(#SVGID_00000168834022843553834170000004639337855501211562_);}
	.st186{clip-path:url(#SVGID_00000114074987186478382970000012719160922293803669_);}
	.st187{clip-path:url(#SVGID_00000183970476619952653880000007845775792421295274_);}
	.st188{clip-path:url(#SVGID_00000045612662968846778650000010417936351635862668_);}
	.st189{clip-path:url(#SVGID_00000018951626026942343360000017889232058588429740_);}
	.st190{clip-path:url(#SVGID_00000151521290088736395200000017417543826412977852_);}
	.st191{clip-path:url(#SVGID_00000092417925980891498860000007307966814590711729_);}
	.st192{clip-path:url(#SVGID_00000158748759597696137650000012264869376233646487_);}
	.st193{clip-path:url(#SVGID_00000029005740311693088060000014518315264817885318_);}
	.st194{clip-path:url(#SVGID_00000156579696559662233230000011876783336724697488_);}
	.st195{clip-path:url(#SVGID_00000096739073127293776610000011323407885392401838_);}
	.st196{clip-path:url(#SVGID_00000156589626663498258730000010578056507340289164_);}
	.st197{clip-path:url(#SVGID_00000183940962038529444790000013310003162487530392_);}
	.st198{clip-path:url(#SVGID_00000115481272775073710610000008169581424445314972_);}
	.st199{clip-path:url(#SVGID_00000083068911471239214140000009446469898451538585_);}
	.st200{clip-path:url(#SVGID_00000003817541991427861550000005697247998203387808_);}
	.st201{clip-path:url(#SVGID_00000041257292929902209730000002773317773290752898_);}
	.st202{clip-path:url(#SVGID_00000080887142569287077380000000146327759333331897_);}
	.st203{clip-path:url(#SVGID_00000150811743449067367540000016396665648073697927_);}
	.st204{clip-path:url(#SVGID_00000034795437697094989100000014264057615079154618_);}
	.st205{clip-path:url(#SVGID_00000057119058565072954280000008630216859581590440_);}
	.st206{clip-path:url(#SVGID_00000038394032043591938780000015343970440623952002_);}
	.st207{clip-path:url(#SVGID_00000128451915822234524140000005454675170416747417_);}
	.st208{clip-path:url(#SVGID_00000034802653409813620890000013884999172903968899_);}
	.st209{clip-path:url(#SVGID_00000052073235735674038270000017360423765845662109_);}
	.st210{clip-path:url(#SVGID_00000006680494986350501220000008335571366831622563_);}
	.st211{clip-path:url(#SVGID_00000051354766399941847780000006056583439602752406_);}
	.st212{clip-path:url(#SVGID_00000065069294738891878630000009805347314238758817_);}
	.st213{clip-path:url(#SVGID_00000051344229391566434580000002836982369584031886_);}
	.st214{clip-path:url(#SVGID_00000083781125799913755990000004625689871230371737_);}
	.st215{clip-path:url(#SVGID_00000127743683526123504970000005271082424651263158_);}
	.st216{clip-path:url(#SVGID_00000114767172708798626040000002039769424791306154_);}
	.st217{clip-path:url(#SVGID_00000116943108690465024480000006032734468788646299_);}
	.st218{clip-path:url(#SVGID_00000137110400751131010050000008688925195898473603_);}
	.st219{clip-path:url(#SVGID_00000157296430961734418630000003883854022960670653_);}
	.st220{clip-path:url(#SVGID_00000047055666998194337540000018140902495853419446_);}
	.st221{clip-path:url(#SVGID_00000152264741487846391190000012622284069381350028_);}
	.st222{clip-path:url(#SVGID_00000165913028544421957980000017158559876171386756_);}
	.st223{clip-path:url(#SVGID_00000105397845441378358390000006832971469411780241_);}
	.st224{clip-path:url(#SVGID_00000183964052860025576350000016958472024114775451_);}
	.st225{clip-path:url(#SVGID_00000151504806354950461670000005696493062953563564_);}
	.st226{clip-path:url(#SVGID_00000034084985790496181680000009797594108114449054_);}
	.st227{clip-path:url(#SVGID_00000046312679325106000650000001865088303428942752_);}
	.st228{clip-path:url(#SVGID_00000111912398687615724110000002082858762849475751_);}
	.st229{clip-path:url(#SVGID_00000085248097541305921240000006856545319150522815_);}
	.st230{clip-path:url(#SVGID_00000065044072177149696780000016834476553761308606_);}
	.st231{clip-path:url(#SVGID_00000017480235770680188570000002742214161520885153_);}
	.st232{clip-path:url(#SVGID_00000016786076612530896190000012915968242933225407_);}
	.st233{clip-path:url(#SVGID_00000089565341362102185550000013920811214061143184_);}
	.st234{clip-path:url(#SVGID_00000026136933796472796560000005924673411376055974_);}
	.st235{clip-path:url(#SVGID_00000017515511242826801580000007641503537037988736_);}
	.st236{clip-path:url(#SVGID_00000183212302319444993500000007669328486816419208_);}
	.st237{clip-path:url(#SVGID_00000108287104134657807220000017666849204157880497_);}
	.st238{clip-path:url(#SVGID_00000110439260970726211580000013562147980052559501_);}
	.st239{clip-path:url(#SVGID_00000119075681425747345070000013584219692699220924_);}
	.st240{clip-path:url(#SVGID_00000151541425503001366650000016814851639552775308_);}
	.st241{clip-path:url(#SVGID_00000124869468043919545910000014818448423754064047_);}
	.st242{clip-path:url(#SVGID_00000005224578245961487700000008327820267776394903_);}
	.st243{clip-path:url(#SVGID_00000111896629350658482100000002094481490344852622_);}
	.st244{clip-path:url(#SVGID_00000061462063609964415550000011616457825217030790_);}
	.st245{clip-path:url(#SVGID_00000005947819007574978020000006706526238853579907_);}
	.st246{clip-path:url(#SVGID_00000059282667873185137030000007749047716208961695_);}
	.st247{clip-path:url(#SVGID_00000093862545302553692680000009392757393137032576_);}
	.st248{clip-path:url(#SVGID_00000072245715196055430460000008178059914874715780_);}
	.st249{clip-path:url(#SVGID_00000034089017068917434700000017872880869047765633_);}
	.st250{clip-path:url(#SVGID_00000131368895144013260480000003261077698043079860_);}
	.st251{clip-path:url(#SVGID_00000159459817558216964680000005074408815057783688_);}
	.st252{clip-path:url(#SVGID_00000150083538154172371690000000909073705587390878_);}
	.st253{clip-path:url(#SVGID_00000100352819874687324500000016440073175600327319_);}
	.st254{clip-path:url(#SVGID_00000137831711536789704650000008018300349090042780_);}
	.st255{clip-path:url(#SVGID_00000172410078941599059630000006843547677202437307_);}
	.st256{clip-path:url(#SVGID_00000062185648542263212590000017089593334628950656_);}
	.st257{clip-path:url(#SVGID_00000129887211902529681310000017070127816189700780_);}
	.st258{clip-path:url(#SVGID_00000145024497541808663310000006636002891408847007_);}
	.st259{clip-path:url(#SVGID_00000047741871248626370710000005632046296619548833_);}
	.st260{clip-path:url(#SVGID_00000019638472062088738220000000308757798527659918_);}
	.st261{clip-path:url(#SVGID_00000000916862326457136650000010035868852053808015_);}
	.st262{clip-path:url(#SVGID_00000173853950386839449310000017727142896759853482_);}
	.st263{clip-path:url(#SVGID_00000070836758349283705520000009111228051767455121_);}
	.st264{clip-path:url(#SVGID_00000111892030072350174720000008331750422048026759_);}
	.st265{clip-path:url(#SVGID_00000110470096837487974590000015354414232179103109_);}
	.st266{clip-path:url(#SVGID_00000082349937474896858990000015286699156159627937_);}
	.st267{clip-path:url(#SVGID_00000093158182321564639900000008992821670101225899_);}
	.st268{clip-path:url(#SVGID_00000070079947207457536440000012374718466259574680_);}
	.st269{clip-path:url(#SVGID_00000023254133273602033080000015196757186956999829_);}
	.st270{clip-path:url(#SVGID_00000151524376023174019340000010789467877171793548_);}
	.st271{clip-path:url(#SVGID_00000002375631380367732420000018317392680241811098_);}
	.st272{clip-path:url(#SVGID_00000132070390101891748790000017324799164045113778_);}
	.st273{clip-path:url(#SVGID_00000093883473646782379650000002650490011306052785_);}
	.st274{clip-path:url(#SVGID_00000082359234189663151800000013782939689735813506_);}
	.st275{clip-path:url(#SVGID_00000111876841218774483690000010934934492055985036_);}
	.st276{clip-path:url(#SVGID_00000122710561523699841610000014269988317482282148_);}
	.st277{clip-path:url(#SVGID_00000111151113633511396890000017457771445538775950_);}
	.st278{clip-path:url(#SVGID_00000054259180885551651720000010115334535524257466_);}
	.st279{clip-path:url(#SVGID_00000151501961689549989120000007418436025218026913_);}
	.st280{clip-path:url(#SVGID_00000055698111853573219100000001251130670057366921_);}
	.st281{clip-path:url(#SVGID_00000016794052723960991490000009357294436215089552_);}
	.st282{clip-path:url(#SVGID_00000133525690542646475920000009850100522224920232_);}
	.st283{clip-path:url(#SVGID_00000103968657963572176480000009755781387602227078_);}
	.st284{clip-path:url(#SVGID_00000134964901572123694700000016206574763578749350_);}
	.st285{clip-path:url(#SVGID_00000002358767187407111930000013991981558326299327_);}
	.st286{clip-path:url(#SVGID_00000022543382060279537210000013179983495011193761_);}
	.st287{clip-path:url(#SVGID_00000150802180254615238070000016034499252933424797_);}
	.st288{clip-path:url(#SVGID_00000088125892335638833110000015229968266665509804_);}
	.st289{clip-path:url(#SVGID_00000182529272287122869440000012674703531126798773_);}
	.st290{clip-path:url(#SVGID_00000105386066701278097840000004657088865765856437_);}
	.st291{clip-path:url(#SVGID_00000078726243916358783580000017522473596192774812_);}
	.st292{clip-path:url(#SVGID_00000057136479878608724690000015526953831400736686_);}
	.st293{clip-path:url(#SVGID_00000144307235753734157020000005722354491592589994_);}
	.st294{clip-path:url(#SVGID_00000149376404110790956100000017524909530619740585_);}
	.st295{clip-path:url(#SVGID_00000063595010893952018020000014512213169006769314_);}
	.st296{clip-path:url(#SVGID_00000128445751999720051950000014143574603859620781_);}
	.st297{clip-path:url(#SVGID_00000132776975044203898750000000857377192833379006_);}
	.st298{clip-path:url(#SVGID_00000002351899686660529770000015841360363889702022_);}
	.st299{clip-path:url(#SVGID_00000161610932391170325800000016779149525658923675_);}
	.st300{clip-path:url(#SVGID_00000056429660543625911050000005249444689311345852_);}
	.st301{clip-path:url(#SVGID_00000068635718746018395220000011154330553869369528_);}
	.st302{clip-path:url(#SVGID_00000090987205078159226400000007615040100538615738_);}
	.st303{clip-path:url(#SVGID_00000154415886234548621340000001266535165161057966_);}
	.st304{clip-path:url(#SVGID_00000169518622427908834510000008759231593062520753_);}
	.st305{clip-path:url(#SVGID_00000114065808815138570870000015817834868949797029_);}
	.st306{clip-path:url(#SVGID_00000176744539267551468070000009217423095749650593_);}
	.st307{clip-path:url(#SVGID_00000125568992269925507460000004191568097773760128_);}
	.st308{clip-path:url(#SVGID_00000040554557968328547000000006700699605140805821_);}
	.st309{clip-path:url(#SVGID_00000055683992309530460240000004923183695263776410_);}
	.st310{clip-path:url(#SVGID_00000089557659671949147900000009221970979129578400_);}
	.st311{clip-path:url(#SVGID_00000116924690478835687500000012567610542580904111_);}
	.st312{clip-path:url(#SVGID_00000172428495154502409670000009815790564339479982_);}
	.st313{clip-path:url(#SVGID_00000114039782576594287490000001690787368911928977_);}
	.st314{clip-path:url(#SVGID_00000046305739884052049020000001049780879300634536_);}
	.st315{clip-path:url(#SVGID_00000114045963229189902530000012543518043103629718_);}
	.st316{clip-path:url(#SVGID_00000026150450244077625620000016621232595639504571_);}
	.st317{clip-path:url(#SVGID_00000088834482346528004000000011197713785752172207_);}
	.st318{clip-path:url(#SVGID_00000181061352040958919490000014394629645630474396_);}
	.st319{clip-path:url(#SVGID_00000170238215935880753610000016909464815499095190_);}
	.st320{clip-path:url(#SVGID_00000000913267225736980290000009316269953618138033_);}
	.st321{clip-path:url(#SVGID_00000018933729486347692010000014487536842841926332_);}
	.st322{clip-path:url(#SVGID_00000121277269370192628010000014004537000070377395_);}
	.st323{clip-path:url(#SVGID_00000129202953632885239460000006246061589491290505_);}
	.st324{clip-path:url(#SVGID_00000034773601913498737340000012042187764466743478_);}
	.st325{clip-path:url(#SVGID_00000178183330929305693400000010683362569582399641_);}
	.st326{clip-path:url(#SVGID_00000006678798690981298620000005492443215568899218_);}
	.st327{clip-path:url(#SVGID_00000075840698554837800940000003545847315746414230_);}
	.st328{clip-path:url(#SVGID_00000017480390195580697930000008250091037746735005_);}
	.st329{clip-path:url(#SVGID_00000005252183331043477550000014821948457491516090_);}
	.st330{clip-path:url(#SVGID_00000091705507908598392300000010624597181617213316_);}
	.st331{clip-path:url(#SVGID_00000119813738595855577760000002156692698720084925_);}
	.st332{clip-path:url(#SVGID_00000183934219091624499290000007827542888428512415_);}
	.st333{clip-path:url(#SVGID_00000086650729499556845570000009100570796352606367_);}
	.st334{clip-path:url(#SVGID_00000005986340728473688720000004547929941356880778_);}
	.st335{clip-path:url(#SVGID_00000075133255340184143580000005516862228251738517_);}
	.st336{clip-path:url(#SVGID_00000013188165239437873740000008134439321963819166_);}
	.st337{clip-path:url(#SVGID_00000071550276522381623440000010046469133722161556_);}
	.st338{clip-path:url(#SVGID_00000077303758884921823660000001805527830791369373_);}
	.st339{clip-path:url(#SVGID_00000020367508918348223290000006056411398266177450_);}
	.st340{clip-path:url(#SVGID_00000085248030267374404320000012324490022770205357_);}
	.st341{clip-path:url(#SVGID_00000121994164122035475680000017816526271950723254_);}
	.st342{clip-path:url(#SVGID_00000152249661416260625820000013269071345527269296_);}
	.st343{clip-path:url(#SVGID_00000129918820615335010870000006653779668073964735_);}
	.st344{clip-path:url(#SVGID_00000000189012360352360950000005113038852126215084_);}
	.st345{clip-path:url(#SVGID_00000104685021580982481150000003093956387832662161_);}
	.st346{clip-path:url(#SVGID_00000079445195857314547040000008213510689256642198_);}
	.st347{clip-path:url(#SVGID_00000029741094348397370540000003243315647333936281_);}
	.st348{clip-path:url(#SVGID_00000064319527032150599200000016219793567755593652_);}
	.st349{clip-path:url(#SVGID_00000060030567074709971560000000543113254157924531_);}
	.st350{clip-path:url(#SVGID_00000106834024988479986770000004795310845945740426_);}
	.st351{clip-path:url(#SVGID_00000096018279506619163060000006131367647986921916_);}
	.st352{clip-path:url(#SVGID_00000047745256579968808370000004002383839483853964_);}
	.st353{clip-path:url(#SVGID_00000032618045842790394260000008236976001971595672_);}
	.st354{clip-path:url(#SVGID_00000127723458495218410700000012169809696279340221_);}
	.st355{clip-path:url(#SVGID_00000179634857677139588630000005015328372652066980_);}
	.st356{clip-path:url(#SVGID_00000138566267028963735880000016611846977387357354_);}
	.st357{clip-path:url(#SVGID_00000046316064203341708610000003117825975112418439_);}
	.st358{clip-path:url(#SVGID_00000052090380629587189030000012185146435359660174_);}
	.st359{clip-path:url(#SVGID_00000133497490786831724110000012393214516050138752_);}
	.st360{clip-path:url(#SVGID_00000115501501618715002600000003123248416232555663_);}
	.st361{clip-path:url(#SVGID_00000118356018953427734030000009189068908436415929_);}
	.st362{clip-path:url(#SVGID_00000048460945101804399610000007803556131697308292_);}
	.st363{clip-path:url(#SVGID_00000064318908100962220930000010257132387232650368_);}
	.st364{clip-path:url(#SVGID_00000035515821350924820870000012756644487479538086_);}
	.st365{clip-path:url(#SVGID_00000015326823473200586280000009418658995598233492_);}
	.st366{clip-path:url(#SVGID_00000025411249504932824880000002305207993528696229_);}
	.st367{clip-path:url(#SVGID_00000062176438080812822350000001155938558950395828_);}
	.st368{clip-path:url(#SVGID_00000168102201832004907030000013755535551151867044_);}
	.st369{clip-path:url(#SVGID_00000077292560439056778570000012986428333214944928_);}
	.st370{clip-path:url(#SVGID_00000029733999701983805060000017786284314604604289_);}
	.st371{clip-path:url(#SVGID_00000142871889924407734230000018089194809716602028_);}
	.st372{clip-path:url(#SVGID_00000101097621294910131950000004040413949176652418_);}
	.st373{clip-path:url(#SVGID_00000034050367187477421650000014937790018877065360_);}
	.st374{clip-path:url(#SVGID_00000132068415757740646750000000012838942058972093_);}
	.st375{clip-path:url(#SVGID_00000070806057874494692690000016744159604799251871_);}
</style>
<g>
	<g>
		<rect x="6.86" y="126.22" class="st0" width="48.43" height="691.19"/>
	</g>
	<g>
		<rect x="6.86" y="4.01" class="st1" width="990.34" height="116.6"/>
	</g>
	<g>
		<path class="st3" d="M997.2,821.89H4.06c-0.93,0-1.68-0.75-1.68-1.68V6.82c0-0.93,0.75-1.68,1.68-1.68H997.2
			c0.93,0,1.68,0.75,1.68,1.68v813.39C998.88,821.14,998.13,821.89,997.2,821.89z M5.74,818.53h989.78V8.5H5.74V818.53z"/>
	</g>
	<g>
		<rect x="6.86" y="121.73" class="st3" width="993.14" height="3.36"/>
	</g>
	<g>
		<rect x="5.46" y="352.13" class="st3" width="990.34" height="3.36"/>
	</g>
	<g>
		<rect x="5.46" y="235.53" class="st3" width="990.34" height="3.36"/>
	</g>
	<g>
		<rect x="5.46" y="465.92" class="st3" width="990.34" height="3.36"/>
	</g>
	<g>
		<rect x="5.46" y="588.13" class="st3" width="990.34" height="3.36"/>
	</g>
	<g>
		<rect x="5.46" y="704.73" class="st3" width="990.34" height="3.36"/>
	</g>
	<g>
		<defs>
			<polygon id="SVGID_00000153693818287628004320000004074695469241967262_" points="6.78,829.94 997.34,829.94 990.56,16.5 0,16.5 
							"/>
		</defs>
		<clipPath id="SVGID_00000034051652329115037390000003777714632417775796_">
			<use xlink:href="#SVGID_00000153693818287628004320000004074695469241967262_"  style="overflow:visible;"/>
		</clipPath>
		<g style="clip-path:url(#SVGID_00000034051652329115037390000003777714632417775796_);">
			<path class="st3" d="M721.63,663.7c0,4.05-2.4,6.61-5.81,6.61c-3.41,0-5.76-2.56-5.76-6.61c0-4.1,2.34-6.55,5.76-6.55
				C719.45,657.14,721.63,659.97,721.63,663.7 M727.06,663.59c0-6.66-4.47-10.96-9.96-10.96c-1.17,0-2.34,0.16-3.36,0.58l8.15-16.3
				h-5.81l-8.63,17.57c-1.65,3.3-2.82,6.23-2.82,9.32c0,7.04,4.68,11.34,11.23,11.34S727.06,670.57,727.06,663.59 M679.56,659.12
				h-12.14c0.05-1.65,0.16-2.46,0.69-3.68c0.85-2.03,2.83-3.41,5.38-3.41c2.56,0,4.47,1.38,5.33,3.41
				C679.35,656.67,679.5,657.47,679.56,659.12 M684.93,662.89v-2.39c0-7.67-4.2-12.99-11.45-12.99c-6.92,0-11.45,5.05-11.45,13.79
				c0,10.28,5.38,13.84,12.14,13.84c4.74,0,7.35-1.44,10.12-4.2l-3.46-3.25c-1.92,1.92-3.51,2.77-6.55,2.77
				c-4.42,0-6.87-2.93-6.87-7.57H684.93z M656.29,666.57c0-4.79-2.98-7.19-8.04-7.62l-4.26-0.37c-2.88-0.27-3.73-1.49-3.73-3.09
				c0-2.02,1.65-3.46,4.9-3.46c2.56,0,4.96,0.53,6.66,1.97l3.41-3.46c-2.51-2.18-5.96-3.03-10.01-3.03
				c-5.64,0-10.17,2.98-10.17,8.25c0,4.74,2.93,7.04,7.99,7.46l4.32,0.37c2.61,0.21,3.62,1.38,3.62,3.2c0,2.56-2.61,3.73-5.91,3.73
				c-2.66,0-5.59-0.59-7.78-2.83l-3.57,3.57c3.2,3.13,6.92,3.88,11.34,3.88C651.5,675.14,656.29,672.22,656.29,666.57 M629.5,666.57
				c0-4.79-2.98-7.19-8.04-7.62l-4.26-0.37c-2.88-0.27-3.73-1.49-3.73-3.09c0-2.02,1.65-3.46,4.9-3.46c2.56,0,4.95,0.53,6.65,1.97
				l3.41-3.46c-2.5-2.18-5.96-3.03-10.01-3.03c-5.65,0-10.17,2.98-10.17,8.25c0,4.74,2.93,7.04,7.99,7.46l4.31,0.37
				c2.61,0.21,3.62,1.38,3.62,3.2c0,2.56-2.61,3.73-5.91,3.73c-2.66,0-5.59-0.59-7.78-2.83l-3.57,3.57
				c3.2,3.13,6.92,3.88,11.35,3.88C624.71,675.14,629.5,672.22,629.5,666.57 M595.21,665.08c0,1.92-0.37,3.2-1.17,4
				c-1.44,1.38-2.98,1.55-5.06,1.55c-3.41,0-4.96-1.39-4.96-3.84s1.65-3.89,4.85-3.89h6.34V665.08z M600.64,674.82v-18.05
				c0-6.13-3.72-9.26-11.13-9.26c-4.48,0-7.14,0.9-9.69,3.88l3.57,3.36c1.49-1.92,2.93-2.61,5.91-2.61c4.21,0,5.91,1.65,5.91,5.06
				v1.92h-7.14c-6.18,0-9.31,3.24-9.31,7.77c0,2.29,0.74,4.37,2.12,5.81c1.65,1.65,3.88,2.44,7.24,2.44c3.36,0,5.22-0.8,7.19-2.76
				v2.44H600.64z M574.27,674.82v-4.62h-2.39c-2.19,0-2.93-1.07-2.93-3.14v-30.14h-5.42v30.46c0,3.99,2.23,7.45,7.39,7.45H574.27z
				 M556.11,663.48h-5.8c-0.91,3.84-3.51,6.5-7.72,6.5c-2.24,0-4.26-0.85-5.59-2.29c-1.87-2.02-2.29-4.21-2.29-11.82
				c0-7.62,0.43-9.8,2.29-11.83c1.33-1.44,3.35-2.29,5.59-2.29c4.21,0,6.77,2.66,7.67,6.5h5.86c-1.33-7.56-6.55-11.66-13.53-11.66
				c-3.94,0-7.35,1.44-9.96,4.04c-3.72,3.73-3.67,7.94-3.67,15.24c0,7.29-0.05,11.5,3.67,15.23c2.61,2.61,6.01,4.04,9.96,4.04
				C549.46,675.14,554.84,671.04,556.11,663.48 M511.71,632.97h-5.22l-15.18,45.79h5.22L511.71,632.97z M469.05,663.7
				c0,4.05-2.4,6.61-5.81,6.61s-5.76-2.56-5.76-6.61c0-4.1,2.35-6.55,5.76-6.55C466.87,657.14,469.05,659.97,469.05,663.7
				 M474.48,663.59c0-6.66-4.47-10.96-9.96-10.96c-1.17,0-2.34,0.16-3.36,0.58l8.16-16.3h-5.81l-8.63,17.57
				c-1.65,3.3-2.82,6.23-2.82,9.32c0,7.04,4.68,11.34,11.23,11.34C469.85,675.14,474.48,670.57,474.48,663.59 M426.98,659.12h-12.14
				c0.06-1.65,0.16-2.46,0.7-3.68c0.85-2.03,2.82-3.41,5.38-3.41c2.56,0,4.47,1.38,5.33,3.41
				C426.76,656.67,426.92,657.47,426.98,659.12 M432.36,662.89v-2.39c0-7.67-4.21-12.99-11.45-12.99c-6.92,0-11.44,5.05-11.44,13.79
				c0,10.28,5.37,13.84,12.14,13.84c4.74,0,7.35-1.44,10.12-4.2l-3.46-3.25c-1.92,1.92-3.51,2.77-6.55,2.77
				c-4.42,0-6.87-2.93-6.87-7.57H432.36z M403.71,666.57c0-4.79-2.98-7.19-8.04-7.62l-4.26-0.37c-2.88-0.27-3.73-1.49-3.73-3.09
				c0-2.02,1.65-3.46,4.9-3.46c2.56,0,4.95,0.53,6.65,1.97l3.41-3.46c-2.5-2.18-5.96-3.03-10.01-3.03c-5.64,0-10.17,2.98-10.17,8.25
				c0,4.74,2.93,7.04,7.99,7.46l4.31,0.37c2.61,0.21,3.62,1.38,3.62,3.2c0,2.56-2.61,3.73-5.91,3.73c-2.66,0-5.59-0.59-7.78-2.83
				l-3.57,3.57c3.2,3.13,6.92,3.88,11.35,3.88C398.91,675.14,403.71,672.22,403.71,666.57 M376.92,666.57
				c0-4.79-2.98-7.19-8.04-7.62l-4.26-0.37c-2.88-0.27-3.73-1.49-3.73-3.09c0-2.02,1.65-3.46,4.9-3.46c2.56,0,4.96,0.53,6.66,1.97
				l3.41-3.46c-2.51-2.18-5.96-3.03-10.01-3.03c-5.64,0-10.17,2.98-10.17,8.25c0,4.74,2.93,7.04,7.99,7.46l4.32,0.37
				c2.61,0.21,3.62,1.38,3.62,3.2c0,2.56-2.61,3.73-5.91,3.73c-2.66,0-5.59-0.59-7.78-2.83l-3.57,3.57
				c3.2,3.13,6.92,3.88,11.34,3.88C372.13,675.14,376.92,672.22,376.92,666.57 M342.63,665.08c0,1.92-0.37,3.2-1.17,4
				c-1.44,1.38-2.98,1.55-5.06,1.55c-3.41,0-4.96-1.39-4.96-3.84s1.65-3.89,4.85-3.89h6.34V665.08z M348.05,674.82v-18.05
				c0-6.13-3.72-9.26-11.13-9.26c-4.47,0-7.14,0.9-9.69,3.88l3.56,3.36c1.49-1.92,2.93-2.61,5.91-2.61c4.21,0,5.91,1.65,5.91,5.06
				v1.92h-7.14c-6.18,0-9.32,3.24-9.32,7.77c0,2.29,0.75,4.37,2.13,5.81c1.65,1.65,3.88,2.44,7.24,2.44c3.36,0,5.22-0.8,7.19-2.76
				v2.44H348.05z M321.69,674.82v-4.62h-2.4c-2.18,0-2.93-1.07-2.93-3.14v-30.14h-5.43v30.46c0,3.99,2.24,7.45,7.39,7.45H321.69z
				 M305.72,674.82l-13.58-23.06l12.3-14.86h-7.03l-15.49,19.07v-19.07h-5.75v37.91h5.75V663.8l6.39-7.67l10.65,18.69H305.72z"/>
		</g>
		<g style="clip-path:url(#SVGID_00000034051652329115037390000003777714632417775796_);">
			<path class="st3" d="M727.59,519.55v-4.84h-22.58v10.81h5.22v-5.96h11.56l-12.73,33.07h5.86L727.59,519.55z M679.56,536.92
				h-12.14c0.05-1.65,0.16-2.46,0.69-3.68c0.85-2.03,2.83-3.41,5.38-3.41c2.56,0,4.47,1.38,5.33,3.41
				C679.35,534.46,679.5,535.26,679.56,536.92 M684.93,540.69v-2.39c0-7.67-4.2-12.99-11.45-12.99c-6.92,0-11.45,5.05-11.45,13.79
				c0,10.28,5.38,13.84,12.14,13.84c4.74,0,7.35-1.44,10.12-4.2l-3.46-3.25c-1.92,1.92-3.51,2.77-6.55,2.77
				c-4.42,0-6.87-2.93-6.87-7.57H684.93z M656.29,544.37c0-4.79-2.98-7.19-8.04-7.62l-4.26-0.37c-2.88-0.27-3.73-1.49-3.73-3.09
				c0-2.02,1.65-3.46,4.9-3.46c2.56,0,4.96,0.53,6.66,1.97l3.41-3.46c-2.51-2.18-5.96-3.03-10.01-3.03
				c-5.64,0-10.17,2.98-10.17,8.25c0,4.74,2.93,7.04,7.99,7.46l4.32,0.37c2.61,0.21,3.62,1.38,3.62,3.2c0,2.56-2.61,3.73-5.91,3.73
				c-2.66,0-5.59-0.59-7.78-2.83l-3.57,3.57c3.2,3.13,6.92,3.88,11.34,3.88C651.5,552.94,656.29,550.01,656.29,544.37 M629.5,544.37
				c0-4.79-2.98-7.19-8.04-7.62l-4.26-0.37c-2.88-0.27-3.73-1.49-3.73-3.09c0-2.02,1.65-3.46,4.9-3.46c2.56,0,4.95,0.53,6.65,1.97
				l3.41-3.46c-2.5-2.18-5.96-3.03-10.01-3.03c-5.65,0-10.17,2.98-10.17,8.25c0,4.74,2.93,7.04,7.99,7.46l4.31,0.37
				c2.61,0.21,3.62,1.38,3.62,3.2c0,2.56-2.61,3.73-5.91,3.73c-2.66,0-5.59-0.59-7.78-2.83l-3.57,3.57
				c3.2,3.13,6.92,3.88,11.35,3.88C624.71,552.94,629.5,550.01,629.5,544.37 M595.21,542.88c0,1.92-0.37,3.2-1.17,4
				c-1.44,1.38-2.98,1.55-5.06,1.55c-3.41,0-4.96-1.39-4.96-3.84s1.65-3.89,4.85-3.89h6.34V542.88z M600.64,552.62v-18.05
				c0-6.13-3.72-9.26-11.13-9.26c-4.48,0-7.14,0.9-9.69,3.88l3.57,3.36c1.49-1.92,2.93-2.61,5.91-2.61c4.21,0,5.91,1.65,5.91,5.06
				v1.92h-7.14c-6.18,0-9.31,3.24-9.31,7.77c0,2.29,0.74,4.37,2.12,5.81c1.65,1.65,3.88,2.44,7.24,2.44c3.36,0,5.22-0.8,7.19-2.76
				v2.44H600.64z M574.27,552.62v-4.62h-2.39c-2.19,0-2.93-1.07-2.93-3.14v-30.14h-5.42v30.46c0,3.99,2.23,7.45,7.39,7.45H574.27z
				 M556.11,541.28h-5.8c-0.91,3.84-3.51,6.5-7.72,6.5c-2.24,0-4.26-0.85-5.59-2.29c-1.87-2.02-2.29-4.21-2.29-11.82
				c0-7.62,0.43-9.8,2.29-11.83c1.33-1.44,3.35-2.29,5.59-2.29c4.21,0,6.77,2.66,7.67,6.5h5.86c-1.33-7.56-6.55-11.66-13.53-11.66
				c-3.94,0-7.35,1.44-9.96,4.04c-3.72,3.73-3.67,7.94-3.67,15.24c0,7.29-0.05,11.5,3.67,15.23c2.61,2.61,6.01,4.04,9.96,4.04
				C549.46,552.94,554.84,548.84,556.11,541.28 M511.71,510.77h-5.22l-15.18,45.79h5.22L511.71,510.77z M475.02,519.55v-4.84h-22.58
				v10.81h5.22v-5.96h11.55l-12.72,33.07h5.86L475.02,519.55z M426.98,536.92h-12.14c0.06-1.65,0.16-2.46,0.7-3.68
				c0.85-2.03,2.82-3.41,5.38-3.41c2.56,0,4.47,1.38,5.33,3.41C426.76,534.46,426.92,535.26,426.98,536.92 M432.36,540.69v-2.39
				c0-7.67-4.21-12.99-11.45-12.99c-6.92,0-11.44,5.05-11.44,13.79c0,10.28,5.37,13.84,12.14,13.84c4.74,0,7.35-1.44,10.12-4.2
				l-3.46-3.25c-1.92,1.92-3.51,2.77-6.55,2.77c-4.42,0-6.87-2.93-6.87-7.57H432.36z M403.71,544.37c0-4.79-2.98-7.19-8.04-7.62
				l-4.26-0.37c-2.88-0.27-3.73-1.49-3.73-3.09c0-2.02,1.65-3.46,4.9-3.46c2.56,0,4.95,0.53,6.65,1.97l3.41-3.46
				c-2.5-2.18-5.96-3.03-10.01-3.03c-5.64,0-10.17,2.98-10.17,8.25c0,4.74,2.93,7.04,7.99,7.46l4.31,0.37
				c2.61,0.21,3.62,1.38,3.62,3.2c0,2.56-2.61,3.73-5.91,3.73c-2.66,0-5.59-0.59-7.78-2.83l-3.57,3.57
				c3.2,3.13,6.92,3.88,11.35,3.88C398.91,552.94,403.71,550.01,403.71,544.37 M376.92,544.37c0-4.79-2.98-7.19-8.04-7.62
				l-4.26-0.37c-2.88-0.27-3.73-1.49-3.73-3.09c0-2.02,1.65-3.46,4.9-3.46c2.56,0,4.96,0.53,6.66,1.97l3.41-3.46
				c-2.51-2.18-5.96-3.03-10.01-3.03c-5.64,0-10.17,2.98-10.17,8.25c0,4.74,2.93,7.04,7.99,7.46l4.32,0.37
				c2.61,0.21,3.62,1.38,3.62,3.2c0,2.56-2.61,3.73-5.91,3.73c-2.66,0-5.59-0.59-7.78-2.83l-3.57,3.57
				c3.2,3.13,6.92,3.88,11.34,3.88C372.13,552.94,376.92,550.01,376.92,544.37 M342.63,542.88c0,1.92-0.37,3.2-1.17,4
				c-1.44,1.38-2.98,1.55-5.06,1.55c-3.41,0-4.96-1.39-4.96-3.84s1.65-3.89,4.85-3.89h6.34V542.88z M348.05,552.62v-18.05
				c0-6.13-3.72-9.26-11.13-9.26c-4.47,0-7.14,0.9-9.69,3.88l3.56,3.36c1.49-1.92,2.93-2.61,5.91-2.61c4.21,0,5.91,1.65,5.91,5.06
				v1.92h-7.14c-6.18,0-9.32,3.24-9.32,7.77c0,2.29,0.75,4.37,2.13,5.81c1.65,1.65,3.88,2.44,7.24,2.44c3.36,0,5.22-0.8,7.19-2.76
				v2.44H348.05z M321.69,552.62v-4.62h-2.4c-2.18,0-2.93-1.07-2.93-3.14v-30.14h-5.43v30.46c0,3.99,2.24,7.45,7.39,7.45H321.69z
				 M305.72,552.62l-13.58-23.06l12.3-14.86h-7.03l-15.49,19.07v-19.07h-5.75v37.91h5.75V541.6l6.39-7.67l10.65,18.69H305.72z"/>
		</g>
		<g style="clip-path:url(#SVGID_00000034051652329115037390000003777714632417775796_);">
			<path class="st3" d="M721.47,408.44c0,3.35-2.34,5.75-5.65,5.75c-3.31,0-5.59-2.4-5.59-5.75c0-3.31,2.29-5.81,5.59-5.81
				C719.13,402.63,721.47,405.13,721.47,408.44 M722.06,425.21c0,3.51-2.72,6.29-6.23,6.29c-3.52,0-6.23-2.77-6.23-6.29
				s2.71-6.34,6.23-6.34C719.34,418.87,722.06,421.7,722.06,425.21 M727.54,425.32c0-4.53-2.55-7.3-5.21-8.89
				c2.45-1.49,4.57-4.15,4.57-8.15c0-6.34-4.89-10.49-11.07-10.49c-6.18,0-11.02,4.15-11.02,10.49c0,4,2.12,6.66,4.57,8.15
				c-2.66,1.59-5.21,4.36-5.21,8.89c0,6.87,5.16,11.02,11.66,11.02C722.32,436.34,727.54,432.19,727.54,425.32 M679.56,420.32
				h-12.14c0.05-1.65,0.16-2.46,0.69-3.68c0.85-2.03,2.83-3.41,5.38-3.41c2.56,0,4.47,1.38,5.33,3.41
				C679.35,417.86,679.5,418.66,679.56,420.32 M684.93,424.09v-2.39c0-7.67-4.2-12.99-11.45-12.99c-6.92,0-11.45,5.05-11.45,13.79
				c0,10.28,5.38,13.84,12.14,13.84c4.74,0,7.35-1.44,10.12-4.2l-3.46-3.25c-1.92,1.92-3.51,2.77-6.55,2.77
				c-4.42,0-6.87-2.93-6.87-7.57H684.93z M656.29,427.77c0-4.79-2.98-7.19-8.04-7.62l-4.26-0.37c-2.88-0.27-3.73-1.49-3.73-3.09
				c0-2.02,1.65-3.46,4.9-3.46c2.56,0,4.96,0.53,6.66,1.97l3.41-3.46c-2.51-2.18-5.96-3.03-10.01-3.03
				c-5.64,0-10.17,2.98-10.17,8.25c0,4.74,2.93,7.04,7.99,7.46l4.32,0.37c2.61,0.21,3.62,1.38,3.62,3.2c0,2.56-2.61,3.73-5.91,3.73
				c-2.66,0-5.59-0.59-7.78-2.83l-3.57,3.57c3.2,3.13,6.92,3.88,11.34,3.88C651.5,436.34,656.29,433.41,656.29,427.77 M629.5,427.77
				c0-4.79-2.98-7.19-8.04-7.62l-4.26-0.37c-2.88-0.27-3.73-1.49-3.73-3.09c0-2.02,1.65-3.46,4.9-3.46c2.56,0,4.95,0.53,6.65,1.97
				l3.41-3.46c-2.5-2.18-5.96-3.03-10.01-3.03c-5.65,0-10.17,2.98-10.17,8.25c0,4.74,2.93,7.04,7.99,7.46l4.31,0.37
				c2.61,0.21,3.62,1.38,3.62,3.2c0,2.56-2.61,3.73-5.91,3.73c-2.66,0-5.59-0.59-7.78-2.83l-3.57,3.57
				c3.2,3.13,6.92,3.88,11.35,3.88C624.71,436.34,629.5,433.41,629.5,427.77 M595.21,426.28c0,1.92-0.37,3.2-1.17,4
				c-1.44,1.38-2.98,1.55-5.06,1.55c-3.41,0-4.96-1.39-4.96-3.84c0-2.45,1.65-3.89,4.85-3.89h6.34V426.28z M600.64,436.02v-18.05
				c0-6.13-3.72-9.26-11.13-9.26c-4.48,0-7.14,0.9-9.69,3.88l3.57,3.36c1.49-1.92,2.93-2.61,5.91-2.61c4.21,0,5.91,1.65,5.91,5.06
				v1.92h-7.14c-6.18,0-9.31,3.24-9.31,7.77c0,2.29,0.74,4.37,2.12,5.81c1.65,1.65,3.88,2.44,7.24,2.44c3.36,0,5.22-0.8,7.19-2.76
				v2.44H600.64z M574.27,436.02v-4.62h-2.39c-2.19,0-2.93-1.07-2.93-3.14v-30.14h-5.42v30.46c0,3.99,2.23,7.45,7.39,7.45H574.27z
				 M556.11,424.68h-5.8c-0.91,3.84-3.51,6.5-7.72,6.5c-2.24,0-4.26-0.85-5.59-2.29c-1.87-2.02-2.29-4.21-2.29-11.82
				c0-7.62,0.43-9.8,2.29-11.83c1.33-1.44,3.35-2.29,5.59-2.29c4.21,0,6.77,2.66,7.67,6.5h5.86c-1.33-7.56-6.55-11.66-13.53-11.66
				c-3.94,0-7.35,1.44-9.96,4.04c-3.72,3.73-3.67,7.94-3.67,15.24c0,7.29-0.05,11.5,3.67,15.23c2.61,2.61,6.01,4.04,9.96,4.04
				C549.46,436.34,554.84,432.24,556.11,424.68 M511.71,394.17h-5.22l-15.18,45.79h5.22L511.71,394.17z M468.89,408.44
				c0,3.35-2.35,5.75-5.65,5.75c-3.3,0-5.59-2.4-5.59-5.75c0-3.31,2.29-5.81,5.59-5.81C466.55,402.63,468.89,405.13,468.89,408.44
				 M469.48,425.21c0,3.51-2.72,6.29-6.23,6.29c-3.51,0-6.23-2.77-6.23-6.29s2.72-6.34,6.23-6.34
				C466.76,418.87,469.48,421.7,469.48,425.21 M474.95,425.32c0-4.53-2.55-7.3-5.21-8.89c2.44-1.49,4.57-4.15,4.57-8.15
				c0-6.34-4.89-10.49-11.08-10.49c-6.18,0-11.02,4.15-11.02,10.49c0,4,2.13,6.66,4.57,8.15c-2.66,1.59-5.21,4.36-5.21,8.89
				c0,6.87,5.16,11.02,11.66,11.02C469.75,436.34,474.95,432.19,474.95,425.32 M426.98,420.32h-12.14c0.06-1.65,0.16-2.46,0.7-3.68
				c0.85-2.03,2.82-3.41,5.38-3.41c2.56,0,4.47,1.38,5.33,3.41C426.76,417.86,426.92,418.66,426.98,420.32 M432.36,424.09v-2.39
				c0-7.67-4.21-12.99-11.45-12.99c-6.92,0-11.44,5.05-11.44,13.79c0,10.28,5.37,13.84,12.14,13.84c4.74,0,7.35-1.44,10.12-4.2
				l-3.46-3.25c-1.92,1.92-3.51,2.77-6.55,2.77c-4.42,0-6.87-2.93-6.87-7.57H432.36z M403.71,427.77c0-4.79-2.98-7.19-8.04-7.62
				l-4.26-0.37c-2.88-0.27-3.73-1.49-3.73-3.09c0-2.02,1.65-3.46,4.9-3.46c2.56,0,4.95,0.53,6.65,1.97l3.41-3.46
				c-2.5-2.18-5.96-3.03-10.01-3.03c-5.64,0-10.17,2.98-10.17,8.25c0,4.74,2.93,7.04,7.99,7.46l4.31,0.37
				c2.61,0.21,3.62,1.38,3.62,3.2c0,2.56-2.61,3.73-5.91,3.73c-2.66,0-5.59-0.59-7.78-2.83l-3.57,3.57
				c3.2,3.13,6.92,3.88,11.35,3.88C398.91,436.34,403.71,433.41,403.71,427.77 M376.92,427.77c0-4.79-2.98-7.19-8.04-7.62
				l-4.26-0.37c-2.88-0.27-3.73-1.49-3.73-3.09c0-2.02,1.65-3.46,4.9-3.46c2.56,0,4.96,0.53,6.66,1.97l3.41-3.46
				c-2.51-2.18-5.96-3.03-10.01-3.03c-5.64,0-10.17,2.98-10.17,8.25c0,4.74,2.93,7.04,7.99,7.46l4.32,0.37
				c2.61,0.21,3.62,1.38,3.62,3.2c0,2.56-2.61,3.73-5.91,3.73c-2.66,0-5.59-0.59-7.78-2.83l-3.57,3.57
				c3.2,3.13,6.92,3.88,11.34,3.88C372.13,436.34,376.92,433.41,376.92,427.77 M342.63,426.28c0,1.92-0.37,3.2-1.17,4
				c-1.44,1.38-2.98,1.55-5.06,1.55c-3.41,0-4.96-1.39-4.96-3.84c0-2.45,1.65-3.89,4.85-3.89h6.34V426.28z M348.05,436.02v-18.05
				c0-6.13-3.72-9.26-11.13-9.26c-4.47,0-7.14,0.9-9.69,3.88l3.56,3.36c1.49-1.92,2.93-2.61,5.91-2.61c4.21,0,5.91,1.65,5.91,5.06
				v1.92h-7.14c-6.18,0-9.32,3.24-9.32,7.77c0,2.29,0.75,4.37,2.13,5.81c1.65,1.65,3.88,2.44,7.24,2.44c3.36,0,5.22-0.8,7.19-2.76
				v2.44H348.05z M321.69,436.02v-4.62h-2.4c-2.18,0-2.93-1.07-2.93-3.14v-30.14h-5.43v30.46c0,3.99,2.24,7.45,7.39,7.45H321.69z
				 M305.72,436.02l-13.58-23.06l12.3-14.86h-7.03l-15.49,19.07v-19.07h-5.75v37.91h5.75V425l6.39-7.67l10.65,18.69H305.72z"/>
		</g>
		<g style="clip-path:url(#SVGID_00000034051652329115037390000003777714632417775796_);">
			<path class="st3" d="M721.63,292.64c0,4.1-2.4,6.55-5.81,6.55c-3.63,0-5.76-2.83-5.76-6.55c0-4.05,2.34-6.6,5.76-6.6
				C719.24,286.03,721.63,288.59,721.63,292.64 M727.06,292.53c0-7.03-4.68-11.34-11.23-11.34c-6.55,0-11.18,4.57-11.18,11.55
				c0,6.66,4.42,10.97,9.9,10.97c1.18,0,2.4-0.16,3.41-0.59l-8.15,16.3h5.81l8.63-17.57C725.89,298.55,727.06,295.62,727.06,292.53
				 M679.56,303.72h-12.14c0.05-1.65,0.16-2.46,0.69-3.68c0.85-2.03,2.83-3.41,5.38-3.41c2.56,0,4.47,1.38,5.33,3.41
				C679.35,301.26,679.5,302.06,679.56,303.72 M684.93,307.49v-2.39c0-7.67-4.2-12.99-11.45-12.99c-6.92,0-11.45,5.05-11.45,13.79
				c0,10.28,5.38,13.84,12.14,13.84c4.74,0,7.35-1.44,10.12-4.2l-3.46-3.25c-1.92,1.92-3.51,2.77-6.55,2.77
				c-4.42,0-6.87-2.93-6.87-7.57H684.93z M656.29,311.17c0-4.79-2.98-7.19-8.04-7.62l-4.26-0.37c-2.88-0.27-3.73-1.49-3.73-3.09
				c0-2.02,1.65-3.46,4.9-3.46c2.56,0,4.96,0.53,6.66,1.97l3.41-3.46c-2.51-2.18-5.96-3.03-10.01-3.03
				c-5.64,0-10.17,2.98-10.17,8.25c0,4.74,2.93,7.04,7.99,7.46l4.32,0.37c2.61,0.21,3.62,1.38,3.62,3.2c0,2.56-2.61,3.73-5.91,3.73
				c-2.66,0-5.59-0.59-7.78-2.83l-3.57,3.57c3.2,3.13,6.92,3.88,11.34,3.88C651.5,319.74,656.29,316.81,656.29,311.17 M629.5,311.17
				c0-4.79-2.98-7.19-8.04-7.62l-4.26-0.37c-2.88-0.27-3.73-1.49-3.73-3.09c0-2.02,1.65-3.46,4.9-3.46c2.56,0,4.95,0.53,6.65,1.97
				l3.41-3.46c-2.5-2.18-5.96-3.03-10.01-3.03c-5.65,0-10.17,2.98-10.17,8.25c0,4.74,2.93,7.04,7.99,7.46l4.31,0.37
				c2.61,0.21,3.62,1.38,3.62,3.2c0,2.56-2.61,3.73-5.91,3.73c-2.66,0-5.59-0.59-7.78-2.83l-3.57,3.57
				c3.2,3.13,6.92,3.88,11.35,3.88C624.71,319.74,629.5,316.81,629.5,311.17 M595.21,309.68c0,1.92-0.37,3.2-1.17,4
				c-1.44,1.38-2.98,1.55-5.06,1.55c-3.41,0-4.96-1.39-4.96-3.84c0-2.45,1.65-3.89,4.85-3.89h6.34V309.68z M600.64,319.42v-18.05
				c0-6.13-3.72-9.26-11.13-9.26c-4.48,0-7.14,0.9-9.69,3.88l3.57,3.36c1.49-1.92,2.93-2.61,5.91-2.61c4.21,0,5.91,1.65,5.91,5.06
				v1.92h-7.14c-6.18,0-9.31,3.24-9.31,7.77c0,2.29,0.74,4.37,2.12,5.81c1.65,1.65,3.88,2.44,7.24,2.44c3.36,0,5.22-0.8,7.19-2.76
				v2.44H600.64z M574.27,319.42v-4.62h-2.39c-2.19,0-2.93-1.07-2.93-3.14v-30.14h-5.42v30.46c0,3.99,2.23,7.45,7.39,7.45H574.27z
				 M556.11,308.08h-5.8c-0.91,3.84-3.51,6.5-7.72,6.5c-2.24,0-4.26-0.85-5.59-2.29c-1.87-2.02-2.29-4.21-2.29-11.82
				c0-7.62,0.43-9.8,2.29-11.83c1.33-1.44,3.35-2.29,5.59-2.29c4.21,0,6.77,2.66,7.67,6.5h5.86c-1.33-7.56-6.55-11.66-13.53-11.66
				c-3.94,0-7.35,1.44-9.96,4.04c-3.72,3.73-3.67,7.94-3.67,15.24c0,7.29-0.05,11.5,3.67,15.23c2.61,2.61,6.01,4.04,9.96,4.04
				C549.46,319.74,554.84,315.64,556.11,308.08 M511.71,277.57h-5.22l-15.18,45.79h5.22L511.71,277.57z M469.05,292.64
				c0,4.1-2.4,6.55-5.81,6.55c-3.62,0-5.76-2.83-5.76-6.55c0-4.05,2.35-6.6,5.76-6.6S469.05,288.59,469.05,292.64 M474.48,292.53
				c0-7.03-4.68-11.34-11.23-11.34c-6.55,0-11.18,4.57-11.18,11.55c0,6.66,4.41,10.97,9.9,10.97c1.17,0,2.4-0.16,3.41-0.59
				l-8.15,16.3h5.81l8.63-17.57C473.31,298.55,474.48,295.62,474.48,292.53 M426.98,303.72h-12.14c0.06-1.65,0.16-2.46,0.7-3.68
				c0.85-2.03,2.82-3.41,5.38-3.41c2.56,0,4.47,1.38,5.33,3.41C426.76,301.26,426.92,302.06,426.98,303.72 M432.36,307.49v-2.39
				c0-7.67-4.21-12.99-11.45-12.99c-6.92,0-11.44,5.05-11.44,13.79c0,10.28,5.37,13.84,12.14,13.84c4.74,0,7.35-1.44,10.12-4.2
				l-3.46-3.25c-1.92,1.92-3.51,2.77-6.55,2.77c-4.42,0-6.87-2.93-6.87-7.57H432.36z M403.71,311.17c0-4.79-2.98-7.19-8.04-7.62
				l-4.26-0.37c-2.88-0.27-3.73-1.49-3.73-3.09c0-2.02,1.65-3.46,4.9-3.46c2.56,0,4.95,0.53,6.65,1.97l3.41-3.46
				c-2.5-2.18-5.96-3.03-10.01-3.03c-5.64,0-10.17,2.98-10.17,8.25c0,4.74,2.93,7.04,7.99,7.46l4.31,0.37
				c2.61,0.21,3.62,1.38,3.62,3.2c0,2.56-2.61,3.73-5.91,3.73c-2.66,0-5.59-0.59-7.78-2.83l-3.57,3.57
				c3.2,3.13,6.92,3.88,11.35,3.88C398.91,319.74,403.71,316.81,403.71,311.17 M376.92,311.17c0-4.79-2.98-7.19-8.04-7.62
				l-4.26-0.37c-2.88-0.27-3.73-1.49-3.73-3.09c0-2.02,1.65-3.46,4.9-3.46c2.56,0,4.96,0.53,6.66,1.97l3.41-3.46
				c-2.51-2.18-5.96-3.03-10.01-3.03c-5.64,0-10.17,2.98-10.17,8.25c0,4.74,2.93,7.04,7.99,7.46l4.32,0.37
				c2.61,0.21,3.62,1.38,3.62,3.2c0,2.56-2.61,3.73-5.91,3.73c-2.66,0-5.59-0.59-7.78-2.83l-3.57,3.57
				c3.2,3.13,6.92,3.88,11.34,3.88C372.13,319.74,376.92,316.81,376.92,311.17 M342.63,309.68c0,1.92-0.37,3.2-1.17,4
				c-1.44,1.38-2.98,1.55-5.06,1.55c-3.41,0-4.96-1.39-4.96-3.84c0-2.45,1.65-3.89,4.85-3.89h6.34V309.68z M348.05,319.42v-18.05
				c0-6.13-3.72-9.26-11.13-9.26c-4.47,0-7.14,0.9-9.69,3.88l3.56,3.36c1.49-1.92,2.93-2.61,5.91-2.61c4.21,0,5.91,1.65,5.91,5.06
				v1.92h-7.14c-6.18,0-9.32,3.24-9.32,7.77c0,2.29,0.75,4.37,2.13,5.81c1.65,1.65,3.88,2.44,7.24,2.44c3.36,0,5.22-0.8,7.19-2.76
				v2.44H348.05z M321.69,319.42v-4.62h-2.4c-2.18,0-2.93-1.07-2.93-3.14v-30.14h-5.43v30.46c0,3.99,2.24,7.45,7.39,7.45H321.69z
				 M305.72,319.42l-13.58-23.06l12.3-14.86h-7.03l-15.49,19.07v-19.07h-5.75v37.91h5.75V308.4l6.39-7.67l10.65,18.69H305.72z"/>
		</g>
		<g style="clip-path:url(#SVGID_00000034051652329115037390000003777714632417775796_);">
			<path class="st3" d="M750.28,192.12c0,3.68-2.08,6.18-5.54,6.18c-3.46,0-5.49-2.51-5.49-6.18v-16.51c0-3.68,2.03-6.18,5.49-6.18
				c3.46,0,5.54,2.5,5.54,6.18V192.12z M755.71,192.28v-16.83c0-6.76-4.95-10.86-10.97-10.86c-6.02,0-10.91,4.1-10.91,10.86v16.83
				c0,6.77,4.89,10.86,10.91,10.86C750.76,203.14,755.71,199.05,755.71,192.28 M720.56,202.82v-37.91h-5.43l-7.4,6.39v6.01l7.4-6.49
				v32H720.56z M679.56,187.12h-12.14c0.06-1.65,0.16-2.46,0.7-3.68c0.85-2.03,2.82-3.41,5.38-3.41c2.56,0,4.47,1.38,5.33,3.41
				C679.34,184.66,679.51,185.47,679.56,187.12 M684.94,190.89v-2.39c0-7.67-4.21-12.99-11.45-12.99c-6.92,0-11.44,5.05-11.44,13.79
				c0,10.28,5.37,13.84,12.14,13.84c4.74,0,7.35-1.44,10.12-4.2l-3.46-3.25c-1.92,1.92-3.51,2.77-6.55,2.77
				c-4.42,0-6.87-2.93-6.87-7.57H684.94z M656.29,194.57c0-4.79-2.98-7.19-8.04-7.62l-4.26-0.37c-2.88-0.27-3.73-1.49-3.73-3.09
				c0-2.02,1.65-3.46,4.9-3.46c2.56,0,4.95,0.53,6.65,1.97l3.41-3.46c-2.5-2.18-5.96-3.03-10.01-3.03c-5.65,0-10.17,2.98-10.17,8.25
				c0,4.74,2.93,7.04,7.99,7.46l4.31,0.37c2.61,0.21,3.62,1.38,3.62,3.2c0,2.56-2.61,3.73-5.91,3.73c-2.66,0-5.59-0.59-7.78-2.83
				l-3.57,3.57c3.2,3.13,6.92,3.88,11.35,3.88C651.49,203.14,656.29,200.21,656.29,194.57 M629.5,194.57c0-4.79-2.98-7.19-8.04-7.62
				l-4.26-0.37c-2.88-0.27-3.73-1.49-3.73-3.09c0-2.02,1.65-3.46,4.9-3.46c2.56,0,4.96,0.53,6.66,1.97l3.41-3.46
				c-2.51-2.18-5.96-3.03-10.01-3.03c-5.64,0-10.17,2.98-10.17,8.25c0,4.74,2.93,7.04,7.99,7.46l4.32,0.37
				c2.61,0.21,3.62,1.38,3.62,3.2c0,2.56-2.61,3.73-5.91,3.73c-2.66,0-5.59-0.59-7.78-2.83l-3.57,3.57
				c3.2,3.13,6.92,3.88,11.34,3.88C624.71,203.14,629.5,200.21,629.5,194.57 M595.21,193.08c0,1.92-0.37,3.2-1.17,4
				c-1.44,1.38-2.98,1.55-5.06,1.55c-3.41,0-4.96-1.39-4.96-3.84c0-2.45,1.65-3.89,4.85-3.89h6.34V193.08z M600.63,202.82v-18.05
				c0-6.13-3.72-9.26-11.13-9.26c-4.47,0-7.14,0.9-9.69,3.88l3.56,3.36c1.49-1.92,2.93-2.61,5.91-2.61c4.21,0,5.91,1.65,5.91,5.06
				v1.92h-7.14c-6.18,0-9.32,3.24-9.32,7.77c0,2.29,0.75,4.37,2.12,5.81c1.65,1.65,3.88,2.44,7.24,2.44c3.36,0,5.22-0.8,7.19-2.76
				v2.44H600.63z M574.27,202.82v-4.62h-2.4c-2.18,0-2.93-1.07-2.93-3.14v-30.14h-5.43v30.46c0,3.99,2.24,7.45,7.39,7.45H574.27z
				 M556.11,191.48h-5.8c-0.91,3.84-3.51,6.5-7.72,6.5c-2.24,0-4.26-0.85-5.59-2.29c-1.87-2.02-2.29-4.21-2.29-11.82
				c0-7.62,0.43-9.8,2.29-11.83c1.33-1.44,3.35-2.29,5.59-2.29c4.21,0,6.77,2.66,7.67,6.5h5.86c-1.33-7.56-6.55-11.66-13.53-11.66
				c-3.94,0-7.35,1.44-9.96,4.04c-3.72,3.73-3.67,7.94-3.67,15.24c0,7.29-0.06,11.5,3.67,15.23c2.61,2.61,6.01,4.04,9.96,4.04
				C549.46,203.14,554.83,199.04,556.11,191.48 M511.7,160.97h-5.22l-15.17,45.79h5.22L511.7,160.97z M468.79,192.12
				c0,3.68-2.08,6.18-5.54,6.18c-3.46,0-5.49-2.51-5.49-6.18v-16.51c0-3.68,2.03-6.18,5.49-6.18c3.46,0,5.54,2.5,5.54,6.18V192.12z
				 M474.21,192.28v-16.83c0-6.76-4.95-10.86-10.97-10.86c-6.02,0-10.91,4.1-10.91,10.86v16.83c0,6.77,4.89,10.86,10.91,10.86
				C469.26,203.14,474.21,199.05,474.21,192.28 M439.06,202.82v-37.91h-5.43l-7.4,6.39v6.01l7.4-6.49v32H439.06z M398.06,187.12
				h-12.14c0.06-1.65,0.16-2.46,0.7-3.68c0.85-2.03,2.82-3.41,5.38-3.41c2.56,0,4.47,1.38,5.33,3.41
				C397.85,184.66,398.01,185.47,398.06,187.12 M403.44,190.89v-2.39c0-7.67-4.21-12.99-11.45-12.99c-6.92,0-11.44,5.05-11.44,13.79
				c0,10.28,5.37,13.84,12.14,13.84c4.74,0,7.35-1.44,10.12-4.2l-3.46-3.25c-1.92,1.92-3.51,2.77-6.55,2.77
				c-4.42,0-6.87-2.93-6.87-7.57H403.44z M374.79,194.57c0-4.79-2.98-7.19-8.04-7.62l-4.26-0.37c-2.88-0.27-3.73-1.49-3.73-3.09
				c0-2.02,1.65-3.46,4.9-3.46c2.56,0,4.95,0.53,6.65,1.97l3.41-3.46c-2.5-2.18-5.96-3.03-10.01-3.03c-5.64,0-10.17,2.98-10.17,8.25
				c0,4.74,2.93,7.04,7.99,7.46l4.31,0.37c2.61,0.21,3.62,1.38,3.62,3.2c0,2.56-2.61,3.73-5.91,3.73c-2.66,0-5.59-0.59-7.78-2.83
				l-3.57,3.57c3.2,3.13,6.92,3.88,11.35,3.88C370,203.14,374.79,200.21,374.79,194.57 M348,194.57c0-4.79-2.98-7.19-8.04-7.62
				l-4.26-0.37c-2.88-0.27-3.73-1.49-3.73-3.09c0-2.02,1.65-3.46,4.9-3.46c2.56,0,4.96,0.53,6.66,1.97l3.41-3.46
				c-2.51-2.18-5.96-3.03-10.01-3.03c-5.64,0-10.17,2.98-10.17,8.25c0,4.74,2.93,7.04,7.99,7.46l4.32,0.37
				c2.61,0.21,3.62,1.38,3.62,3.2c0,2.56-2.61,3.73-5.91,3.73c-2.66,0-5.59-0.59-7.78-2.83l-3.57,3.57
				c3.2,3.13,6.92,3.88,11.34,3.88C343.21,203.14,348,200.21,348,194.57 M313.71,193.08c0,1.92-0.37,3.2-1.17,4
				c-1.44,1.38-2.98,1.55-5.06,1.55c-3.41,0-4.96-1.39-4.96-3.84c0-2.45,1.65-3.89,4.85-3.89h6.34V193.08z M319.14,202.82v-18.05
				c0-6.13-3.72-9.26-11.13-9.26c-4.47,0-7.14,0.9-9.69,3.88l3.56,3.36c1.49-1.92,2.93-2.61,5.91-2.61c4.21,0,5.91,1.65,5.91,5.06
				v1.92h-7.14c-6.18,0-9.32,3.24-9.32,7.77c0,2.29,0.75,4.37,2.13,5.81c1.65,1.65,3.88,2.44,7.24,2.44c3.36,0,5.22-0.8,7.19-2.76
				v2.44H319.14z M292.78,202.82v-4.62h-2.4c-2.18,0-2.93-1.07-2.93-3.14v-30.14h-5.43v30.46c0,3.99,2.24,7.45,7.39,7.45H292.78z
				 M276.8,202.82l-13.58-23.06l12.3-14.86h-7.03L253,183.97v-19.07h-5.75v37.91H253V191.8l6.39-7.67l10.65,18.69H276.8z"/>
		</g>
		<g style="clip-path:url(#SVGID_00000034051652329115037390000003777714632417775796_);">
			<path class="st3" d="M727.17,773.15c0-3.57-0.43-7.25-3.3-10.12c-1.54-1.55-3.83-2.45-6.82-2.45c-2.77,0-5.01,0.85-6.28,2.18
				v-10.02h15.55v-4.84h-20.44v20.71h4.94c0.59-1.87,2.29-3.41,5.38-3.41c4.37,0,5.54,3.41,5.54,7.94c0,2.56-0.21,5.06-1.81,6.66
				c-0.96,0.96-2.35,1.49-3.95,1.49c-3.41,0-5.11-1.92-5.54-5.28h-5.43c0.21,2.72,0.85,5.22,2.87,7.24
				c1.65,1.65,4.47,2.92,8.09,2.92c3.68,0,6.29-1.27,7.99-2.98C726.74,780.45,727.17,777.2,727.17,773.15 M679.56,770.11h-12.14
				c0.05-1.65,0.16-2.46,0.69-3.68c0.85-2.03,2.83-3.41,5.38-3.41c2.56,0,4.47,1.38,5.33,3.41
				C679.35,767.66,679.5,768.46,679.56,770.11 M684.93,773.89v-2.39c0-7.67-4.2-12.99-11.45-12.99c-6.92,0-11.45,5.05-11.45,13.78
				c0,10.28,5.38,13.85,12.14,13.85c4.74,0,7.35-1.44,10.12-4.2l-3.46-3.25c-1.92,1.92-3.51,2.77-6.55,2.77
				c-4.42,0-6.87-2.93-6.87-7.57H684.93z M656.29,777.57c0-4.79-2.98-7.19-8.04-7.62l-4.26-0.37c-2.88-0.27-3.73-1.49-3.73-3.09
				c0-2.02,1.65-3.46,4.9-3.46c2.56,0,4.96,0.53,6.66,1.97l3.41-3.46c-2.51-2.18-5.96-3.03-10.01-3.03
				c-5.64,0-10.17,2.98-10.17,8.25c0,4.74,2.93,7.04,7.99,7.46l4.32,0.37c2.61,0.21,3.62,1.38,3.62,3.2c0,2.56-2.61,3.73-5.91,3.73
				c-2.66,0-5.59-0.59-7.78-2.83l-3.57,3.57c3.2,3.13,6.92,3.88,11.34,3.88C651.5,786.14,656.29,783.21,656.29,777.57 M629.5,777.57
				c0-4.79-2.98-7.19-8.04-7.62l-4.26-0.37c-2.88-0.27-3.73-1.49-3.73-3.09c0-2.02,1.65-3.46,4.9-3.46c2.56,0,4.95,0.53,6.65,1.97
				l3.41-3.46c-2.5-2.18-5.96-3.03-10.01-3.03c-5.65,0-10.17,2.98-10.17,8.25c0,4.74,2.93,7.04,7.99,7.46l4.31,0.37
				c2.61,0.21,3.62,1.38,3.62,3.2c0,2.56-2.61,3.73-5.91,3.73c-2.66,0-5.59-0.59-7.78-2.83l-3.57,3.57
				c3.2,3.13,6.92,3.88,11.35,3.88C624.71,786.14,629.5,783.21,629.5,777.57 M595.21,776.07c0,1.92-0.37,3.2-1.17,4
				c-1.44,1.38-2.98,1.55-5.06,1.55c-3.41,0-4.96-1.39-4.96-3.84s1.65-3.89,4.85-3.89h6.34V776.07z M600.64,785.82v-18.05
				c0-6.13-3.72-9.26-11.13-9.26c-4.48,0-7.14,0.9-9.69,3.88l3.57,3.36c1.49-1.92,2.93-2.61,5.91-2.61c4.21,0,5.91,1.65,5.91,5.06
				v1.92h-7.14c-6.18,0-9.31,3.24-9.31,7.77c0,2.29,0.74,4.37,2.12,5.81c1.65,1.65,3.88,2.44,7.24,2.44c3.36,0,5.22-0.8,7.19-2.76
				v2.44H600.64z M574.27,785.82v-4.62h-2.39c-2.19,0-2.93-1.07-2.93-3.14v-30.14h-5.42v30.46c0,3.99,2.23,7.45,7.39,7.45H574.27z
				 M556.11,774.48h-5.8c-0.91,3.84-3.51,6.5-7.72,6.5c-2.24,0-4.26-0.85-5.59-2.29c-1.87-2.02-2.29-4.21-2.29-11.82
				c0-7.62,0.43-9.8,2.29-11.83c1.33-1.44,3.35-2.29,5.59-2.29c4.21,0,6.77,2.67,7.67,6.5h5.86c-1.33-7.56-6.55-11.66-13.53-11.66
				c-3.94,0-7.35,1.44-9.96,4.04c-3.72,3.73-3.67,7.94-3.67,15.24c0,7.29-0.05,11.5,3.67,15.23c2.61,2.61,6.01,4.04,9.96,4.04
				C549.46,786.14,554.84,782.04,556.11,774.48 M511.71,743.96h-5.22l-15.18,45.79h5.22L511.71,743.96z M474.58,773.15
				c0-3.57-0.43-7.25-3.3-10.12c-1.54-1.55-3.83-2.45-6.82-2.45c-2.77,0-5.01,0.85-6.29,2.18v-10.02h15.55v-4.84h-20.44v20.71h4.94
				c0.59-1.87,2.29-3.41,5.39-3.41c4.37,0,5.54,3.41,5.54,7.94c0,2.56-0.21,5.06-1.81,6.66c-0.96,0.96-2.34,1.49-3.94,1.49
				c-3.41,0-5.12-1.92-5.54-5.28h-5.43c0.21,2.72,0.85,5.22,2.88,7.24c1.65,1.65,4.47,2.92,8.09,2.92c3.67,0,6.28-1.27,7.99-2.98
				C474.16,780.45,474.58,777.2,474.58,773.15 M426.98,770.11h-12.14c0.06-1.65,0.16-2.46,0.7-3.68c0.85-2.03,2.82-3.41,5.38-3.41
				c2.56,0,4.47,1.38,5.33,3.41C426.76,767.66,426.92,768.46,426.98,770.11 M432.36,773.89v-2.39c0-7.67-4.21-12.99-11.45-12.99
				c-6.92,0-11.44,5.05-11.44,13.78c0,10.28,5.37,13.85,12.14,13.85c4.74,0,7.35-1.44,10.12-4.2l-3.46-3.25
				c-1.92,1.92-3.51,2.77-6.55,2.77c-4.42,0-6.87-2.93-6.87-7.57H432.36z M403.71,777.57c0-4.79-2.98-7.19-8.04-7.62l-4.26-0.37
				c-2.88-0.27-3.73-1.49-3.73-3.09c0-2.02,1.65-3.46,4.9-3.46c2.56,0,4.95,0.53,6.65,1.97l3.41-3.46
				c-2.5-2.18-5.96-3.03-10.01-3.03c-5.64,0-10.17,2.98-10.17,8.25c0,4.74,2.93,7.04,7.99,7.46l4.31,0.37
				c2.61,0.21,3.62,1.38,3.62,3.2c0,2.56-2.61,3.73-5.91,3.73c-2.66,0-5.59-0.59-7.78-2.83l-3.57,3.57
				c3.2,3.13,6.92,3.88,11.35,3.88C398.91,786.14,403.71,783.21,403.71,777.57 M376.92,777.57c0-4.79-2.98-7.19-8.04-7.62
				l-4.26-0.37c-2.88-0.27-3.73-1.49-3.73-3.09c0-2.02,1.65-3.46,4.9-3.46c2.56,0,4.96,0.53,6.66,1.97l3.41-3.46
				c-2.51-2.18-5.96-3.03-10.01-3.03c-5.64,0-10.17,2.98-10.17,8.25c0,4.74,2.93,7.04,7.99,7.46l4.32,0.37
				c2.61,0.21,3.62,1.38,3.62,3.2c0,2.56-2.61,3.73-5.91,3.73c-2.66,0-5.59-0.59-7.78-2.83l-3.57,3.57
				c3.2,3.13,6.92,3.88,11.34,3.88C372.13,786.14,376.92,783.21,376.92,777.57 M342.63,776.07c0,1.92-0.37,3.2-1.17,4
				c-1.44,1.38-2.98,1.55-5.06,1.55c-3.41,0-4.96-1.39-4.96-3.84s1.65-3.89,4.85-3.89h6.34V776.07z M348.05,785.82v-18.05
				c0-6.13-3.72-9.26-11.13-9.26c-4.47,0-7.14,0.9-9.69,3.88l3.56,3.36c1.49-1.92,2.93-2.61,5.91-2.61c4.21,0,5.91,1.65,5.91,5.06
				v1.92h-7.14c-6.18,0-9.32,3.24-9.32,7.77c0,2.29,0.75,4.37,2.13,5.81c1.65,1.65,3.88,2.44,7.24,2.44c3.36,0,5.22-0.8,7.19-2.76
				v2.44H348.05z M321.69,785.82v-4.62h-2.4c-2.18,0-2.93-1.07-2.93-3.14v-30.14h-5.43v30.46c0,3.99,2.24,7.45,7.39,7.45H321.69z
				 M305.72,785.82l-13.58-23.06l12.3-14.86h-7.03l-15.49,19.07v-19.07h-5.75v37.91h5.75V774.8l6.39-7.67l10.65,18.69H305.72z"/>
		</g>
	</g>
	<g>
		<polygon class="st4" points="23.06,757.37 39.09,757.37 31.08,746.77 		"/>
	</g>
	<g>
		<polygon class="st4" points="23.06,778.45 39.09,778.45 31.08,767.85 		"/>
	</g>
	<g>
		<polygon class="st4" points="23.06,799.54 39.09,799.54 31.08,788.94 		"/>
	</g>
	<g>
		<polygon class="st4" points="23.06,736.28 39.09,736.28 31.08,725.68 		"/>
	</g>
	<g>
		<polygon class="st4" points="23.06,642.17 39.09,642.17 31.08,631.57 		"/>
	</g>
	<g>
		<polygon class="st4" points="23.06,663.25 39.09,663.25 31.08,652.65 		"/>
	</g>
	<g>
		<polygon class="st4" points="23.06,684.34 39.09,684.34 31.08,673.74 		"/>
	</g>
	<g>
		<polygon class="st4" points="23.06,621.08 39.09,621.08 31.08,610.48 		"/>
	</g>
	<g>
		<polygon class="st4" points="23.06,522.77 39.09,522.77 31.08,512.17 		"/>
	</g>
	<g>
		<polygon class="st4" points="23.06,543.85 39.09,543.85 31.08,533.25 		"/>
	</g>
	<g>
		<polygon class="st4" points="23.06,564.94 39.09,564.94 31.08,554.34 		"/>
	</g>
	<g>
		<polygon class="st4" points="23.06,501.68 39.09,501.68 31.08,491.08 		"/>
	</g>
	<g>
		<polygon class="st4" points="23.06,404.76 39.09,404.76 31.08,394.16 		"/>
	</g>
	<g>
		<polygon class="st4" points="23.06,425.85 39.09,425.85 31.08,415.25 		"/>
	</g>
	<g>
		<polygon class="st4" points="23.06,446.93 39.09,446.93 31.08,436.33 		"/>
	</g>
	<g>
		<polygon class="st4" points="23.06,383.68 39.09,383.68 31.08,373.08 		"/>
	</g>
	<g>
		<polygon class="st4" points="23.06,289.57 39.09,289.57 31.08,278.97 		"/>
	</g>
	<g>
		<polygon class="st4" points="23.06,310.65 39.09,310.65 31.08,300.05 		"/>
	</g>
	<g>
		<polygon class="st4" points="23.06,331.74 39.09,331.74 31.08,321.14 		"/>
	</g>
	<g>
		<polygon class="st4" points="23.06,268.48 39.09,268.48 31.08,257.88 		"/>
	</g>
	<g>
		<polygon class="st4" points="23.06,172.97 39.09,172.97 31.08,162.37 		"/>
	</g>
	<g>
		<polygon class="st4" points="23.06,194.05 39.09,194.05 31.08,183.45 		"/>
	</g>
	<g>
		<polygon class="st4" points="23.06,215.14 39.09,215.14 31.08,204.54 		"/>
	</g>
	<g>
		<polygon class="st4" points="23.06,151.88 39.09,151.88 31.08,141.28 		"/>
	</g>
	<g>
		<defs>
			<polygon id="SVGID_00000016761310890245934170000008460139337291019946_" points="6.78,829.94 997.34,829.94 990.56,16.5 0,16.5 
							"/>
		</defs>
		<clipPath id="SVGID_00000078732585703268875540000013216222666430972594_">
			<use xlink:href="#SVGID_00000016761310890245934170000008460139337291019946_"  style="overflow:visible;"/>
		</clipPath>
		<g style="clip-path:url(#SVGID_00000078732585703268875540000013216222666430972594_);">
			<path class="st4" d="M835.83,76.95c0-6.41-3.79-10.42-11.3-11.15l-5.98-0.59c-3.35-0.29-3.94-1.89-3.94-3.28
				c0-1.89,1.6-3.64,5.39-3.64c3.28,0,6.63,0.58,8.82,2.55l5.83-5.9c-3.64-3.43-8.6-4.44-14.5-4.44c-7.72,0-14.65,4.22-14.65,12.09
				c0,7,4.23,9.99,11.08,10.65l5.98,0.58c2.99,0.29,4.01,1.6,4.01,3.5c0,2.85-3.43,3.94-6.7,3.94c-2.91,0-7-0.44-10.13-3.58
				l-6.19,6.19c4.81,4.8,10.2,5.46,16.18,5.46C828.69,89.34,835.83,85.33,835.83,76.95 M798.31,76.95c0-6.41-3.79-10.42-11.3-11.15
				l-5.98-0.59c-3.35-0.29-3.94-1.89-3.94-3.28c0-1.89,1.6-3.64,5.39-3.64c3.28,0,6.63,0.58,8.82,2.55l5.83-5.9
				c-3.64-3.43-8.6-4.44-14.5-4.44c-7.72,0-14.65,4.22-14.65,12.09c0,7,4.23,9.99,11.08,10.65l5.98,0.58
				c2.99,0.29,4.01,1.6,4.01,3.5c0,2.85-3.43,3.94-6.7,3.94c-2.91,0-7-0.44-10.13-3.58l-6.19,6.19c4.81,4.8,10.2,5.46,16.18,5.46
				C791.16,89.34,798.31,85.33,798.31,76.95 M757.64,88.9V50.94h-9.47V73.9c0,5.17-3.35,6.92-6.34,6.92c-2.99,0-6.27-1.75-6.27-6.92
				V50.94h-9.47v24.27c0,4.15,0.8,7.72,3.86,10.78c2.11,2.11,5.17,3.35,8.96,3.35c3.5,0,7-1.31,9.48-3.93v3.49H757.64z M717.48,88.9
				v-8h-3.64c-2.4,0-3.35-1.17-3.35-3.43V37.02h-9.47v41.03c0,5.39,3.28,10.85,11.07,10.85H717.48z M689.72,88.9V64.34
				c0-8.01-4.37-13.83-12.67-13.83c-3.35,0-6.56,1.31-9.11,3.93V37.02h-9.46V88.9h9.46V65.73c0-4.96,3.13-6.7,6.13-6.7
				c2.99,0,6.2,1.68,6.2,6.7V88.9H689.72z M649.64,84.17l-6.41-6.34c-1.97,2.12-3.64,2.99-6.12,2.99c-2.26,0-4.01-0.8-5.39-2.48
				c-1.46-1.82-2.11-4.45-2.11-8.45s0.66-6.56,2.11-8.39c1.38-1.68,3.13-2.48,5.39-2.48c2.48,0,4.15,0.87,6.12,2.99l6.41-6.41
				c-3.35-3.5-7.29-5.1-12.53-5.1c-7.58,0-16.97,4-16.97,19.38s9.39,19.45,16.97,19.45C642.35,89.34,646.28,87.66,649.64,84.17
				 M612.62,76.95c0-6.41-3.79-10.42-11.3-11.15l-5.98-0.59c-3.35-0.29-3.94-1.89-3.94-3.28c0-1.89,1.6-3.64,5.39-3.64
				c3.28,0,6.63,0.58,8.82,2.55l5.83-5.9c-3.64-3.43-8.6-4.44-14.5-4.44c-7.72,0-14.65,4.22-14.65,12.09c0,7,4.23,9.99,11.08,10.65
				l5.98,0.58c2.99,0.29,4.01,1.6,4.01,3.5c0,2.85-3.43,3.94-6.7,3.94c-2.92,0-7-0.44-10.13-3.58l-6.19,6.19
				c4.81,4.8,10.2,5.46,16.18,5.46C605.48,89.34,612.62,85.33,612.62,76.95 M564.09,69.89c0,6.19-0.73,10.94-6.42,10.94
				s-6.42-4.74-6.42-10.94c0-6.2,0.73-10.86,6.42-10.86S564.09,63.69,564.09,69.89 M573.55,69.89c0-5.69-0.07-12.18-3.86-15.96
				c-2.11-2.11-5.53-3.42-9.26-3.42c-3.86,0-6.7,1.01-9.19,3.78V37.02h-9.46V88.9h9.17v-3.57c2.63,2.91,5.47,4,9.48,4
				c3.72,0,7.14-1.31,9.26-3.42C573.48,82.13,573.55,75.57,573.55,69.89 M520.66,74.91c0,2.34-0.36,3.87-1.38,4.82
				c-1.68,1.61-3.36,1.83-5.98,1.83c-3.72,0-5.47-1.75-5.47-4.38c0-2.7,1.89-4.31,5.33-4.31h7.51V74.91z M530.12,88.9V63.91
				c0-8.89-5.53-13.4-16.17-13.4c-6.35,0-9.98,1.16-13.69,5.24l6.04,5.9c1.96-2.26,3.64-3.14,7.29-3.14c5.03,0,7.07,1.82,7.07,5.98
				v1.9h-8.97c-8.82,0-12.97,4.94-12.97,11c0,3.35,1.09,6.41,3.13,8.53c2.26,2.25,5.39,3.35,9.69,3.35c4.37,0,6.78-1.09,9.33-3.64
				v3.27H530.12z M492.37,88.9v-8h-3.64c-2.4,0-3.35-1.17-3.35-3.43V37.02h-9.46v41.03c0,5.39,3.27,10.85,11.07,10.85H492.37z
				 M464.17,88.9V50.94h-9.46V73.9c0,5.17-3.36,6.92-6.35,6.92c-2.99,0-6.27-1.75-6.27-6.92V50.94h-9.46v24.27
				c0,4.15,0.8,7.72,3.86,10.78c2.11,2.11,5.17,3.35,8.96,3.35c3.5,0,7-1.31,9.48-3.93v3.49H464.17z M421.4,88.9V64.34
				c0-8.01-4.37-13.83-12.67-13.83c-3.36,0-6.56,1.31-9.11,3.93V37.02h-9.47V88.9h9.47V65.73c0-4.96,3.13-6.7,6.12-6.7
				c2.99,0,6.2,1.68,6.2,6.7V88.9H421.4z M381.32,84.17l-6.41-6.34c-1.97,2.12-3.64,2.99-6.12,2.99c-2.26,0-4.01-0.8-5.39-2.48
				c-1.46-1.82-2.11-4.45-2.11-8.45s0.66-6.56,2.11-8.39c1.38-1.68,3.13-2.48,5.39-2.48c2.48,0,4.15,0.87,6.12,2.99l6.41-6.41
				c-3.35-3.5-7.29-5.1-12.53-5.1c-7.58,0-16.97,4-16.97,19.38s9.4,19.45,16.97,19.45C374.03,89.34,377.97,87.66,381.32,84.17
				 M344.3,76.95c0-6.41-3.79-10.42-11.3-11.15l-5.98-0.59c-3.35-0.29-3.94-1.89-3.94-3.28c0-1.89,1.6-3.64,5.39-3.64
				c3.28,0,6.63,0.58,8.82,2.55l5.83-5.9c-3.64-3.43-8.6-4.44-14.5-4.44c-7.72,0-14.65,4.22-14.65,12.09c0,7,4.23,9.99,11.08,10.65
				l5.98,0.58c2.99,0.29,4.01,1.6,4.01,3.5c0,2.85-3.43,3.94-6.7,3.94c-2.92,0-7-0.44-10.13-3.58l-6.19,6.19
				c4.81,4.8,10.2,5.46,16.18,5.46C337.16,89.34,344.3,85.33,344.3,76.95 M306.69,88.9v-8h-3.64c-2.4,0-3.35-1.17-3.35-3.43V37.02
				h-9.47v41.03c0,5.39,3.28,10.85,11.07,10.85H306.69z M269.46,74.91c0,2.34-0.36,3.87-1.38,4.82c-1.68,1.61-3.35,1.83-5.98,1.83
				c-3.72,0-5.47-1.75-5.47-4.38c0-2.7,1.89-4.31,5.32-4.31h7.51V74.91z M278.93,88.9V63.91c0-8.89-5.53-13.4-16.17-13.4
				c-6.35,0-9.99,1.16-13.7,5.24l6.04,5.9c1.97-2.26,3.64-3.14,7.29-3.14c5.03,0,7.07,1.82,7.07,5.98v1.9h-8.97
				c-8.81,0-12.97,4.94-12.97,11c0,3.35,1.09,6.41,3.13,8.53c2.25,2.25,5.39,3.35,9.69,3.35c4.38,0,6.78-1.09,9.33-3.64v3.27H278.93
				z M230.69,66.39h-14.43c0.07-1.68,0.29-2.7,0.87-4.09c1.02-2.26,3.13-3.94,6.34-3.94s5.32,1.68,6.34,3.94
				C230.39,63.69,230.61,64.71,230.69,66.39 M240.01,72.87v-4.22c0-10.43-5.98-18.14-16.54-18.14c-9.84,0-16.53,6.98-16.53,19.38
				c0,15.38,8.59,19.45,17.55,19.45c6.85,0,10.57-2.11,14.43-5.97l-5.76-5.61c-2.4,2.4-4.45,3.58-8.6,3.58
				c-5.32,0-8.31-3.58-8.31-8.46H240.01z M187.48,52.91c0,4.01-2.92,6.86-7.37,6.86h-9.55V46.05h9.55
				C184.56,46.05,187.48,48.89,187.48,52.91 M199.71,88.9l-11.58-22.37c5.02-1.82,9.46-6.33,9.46-13.62
				c0-8.68-6.26-15.88-16.83-15.88h-20.33V88.9h10.12V68.2h7.29l10.14,20.7H199.71z"/>
		</g>
	</g>
</g>
</svg>
