<?xml version="1.0" encoding="utf-8"?>
<!-- Generator: Adobe Illustrator 26.2.1, SVG Export Plug-In . SVG Version: 6.00 Build 0)  -->
<svg version="1.1" id="Ebene_1" xmlns="http://www.w3.org/2000/svg" xmlns:xlink="http://www.w3.org/1999/xlink" x="0px" y="0px"
	 viewBox="0 0 1000 819.82" style="enable-background:new 0 0 1000 819.82;" xml:space="preserve">
<style type="text/css">
	.st0{fill:#A2B9E1;}
	.st1{fill:#6796CF;}
	.st2{clip-path:url(#SVGID_00000000218312287157272370000007644802490741750203_);}
	.st3{fill:#2B2961;}
	.st4{fill:#FFFFFF;}
	.st5{clip-path:url(#SVGID_00000003807535830753863370000008516992178443118215_);}
	.st6{clip-path:url(#SVGID_00000088093607966069499510000008582253526408788893_);}
	.st7{clip-path:url(#SVGID_00000099630199592236644100000013512945982179717248_);}
	.st8{clip-path:url(#SVGID_00000124138024294460976060000003865171211684753330_);}
	.st9{clip-path:url(#SVGID_00000057120329927577200620000008069593534094178203_);}
	.st10{opacity:0.52;clip-path:url(#SVGID_00000042725054724572869180000018433120351134133395_);}
	.st11{clip-path:url(#SVGID_00000104674737568250624240000006943610688251235735_);}
	.st12{clip-path:url(#SVGID_00000003795800664465856430000018172180955096941195_);}
	.st13{clip-path:url(#SVGID_00000163048851681739562420000017356703409806719368_);}
	.st14{clip-path:url(#SVGID_00000135687229492027866150000015789195552475912345_);}
	.st15{clip-path:url(#SVGID_00000155848532797220767970000007911305468557881535_);}
	.st16{clip-path:url(#SVGID_00000025430551147548844840000017183193211860884360_);}
	.st17{clip-path:url(#SVGID_00000177452247260895287870000004620010933324175018_);}
	.st18{clip-path:url(#SVGID_00000090976959077454853260000017668699359547965593_);}
	.st19{clip-path:url(#SVGID_00000060728538547304502100000008636489548196889257_);}
	.st20{clip-path:url(#SVGID_00000150074638244892228760000000522757984441169030_);}
	.st21{clip-path:url(#SVGID_00000041975277158512272370000010853542604876528048_);}
	.st22{clip-path:url(#SVGID_00000089532830422200205490000005670944656777931965_);}
	.st23{fill:none;stroke:#2B2961;stroke-width:0.374;stroke-linejoin:round;stroke-miterlimit:10;}
	.st24{fill:none;stroke:#2B2961;stroke-width:0.4;stroke-miterlimit:10;}
	.st25{clip-path:url(#SVGID_00000025423173513499623870000000957364690497079479_);}
	.st26{clip-path:url(#SVGID_00000160172895639074251030000013365998380734446265_);}
	.st27{clip-path:url(#SVGID_00000041992873375127924630000004413707476562846856_);}
	.st28{clip-path:url(#SVGID_00000175283883721221172240000015768713816564729277_);}
	.st29{clip-path:url(#SVGID_00000023981338820662927310000006326413030555267243_);}
	.st30{clip-path:url(#SVGID_00000020362040859729290500000017333184545473489295_);}
	.st31{clip-path:url(#SVGID_00000053510091344623202140000002376761058814322060_);}
	.st32{clip-path:url(#SVGID_00000172435960350537869440000001720170376915331515_);}
	.st33{clip-path:url(#SVGID_00000001631222211701797320000006050112122761474720_);}
	.st34{clip-path:url(#SVGID_00000117663044484590145160000007824558249904239288_);}
	.st35{clip-path:url(#SVGID_00000101090689201010078030000014359355394607915145_);}
	.st36{clip-path:url(#SVGID_00000000183596833467988830000017015595289457037201_);}
	.st37{clip-path:url(#SVGID_00000130615005869924247460000015426175158954876840_);}
	.st38{clip-path:url(#SVGID_00000125566123129555892110000011338600258757279670_);}
	.st39{clip-path:url(#SVGID_00000070080063126250458410000000920984182866560184_);}
	.st40{clip-path:url(#SVGID_00000054977095767648330940000003565613779204860848_);}
	.st41{clip-path:url(#SVGID_00000095302311708659961390000006194085643434954915_);}
	.st42{clip-path:url(#SVGID_00000147940210149010209470000006240021829203485112_);}
	.st43{clip-path:url(#SVGID_00000096746057399775254060000008768830045347977657_);}
	.st44{clip-path:url(#SVGID_00000094608821003067105130000011941468417638580609_);}
	.st45{clip-path:url(#SVGID_00000109716131732827390950000010121051408424812700_);}
	.st46{clip-path:url(#SVGID_00000070808341319746036090000004042278877415722158_);}
	.st47{clip-path:url(#SVGID_00000008853881402651188310000007663521285692084106_);}
	.st48{clip-path:url(#SVGID_00000160882497134348415390000010890328702902902202_);}
	.st49{clip-path:url(#SVGID_00000165200951933770684310000008629835589653691321_);}
	.st50{clip-path:url(#SVGID_00000033367543716831385850000009002356475989150082_);}
	.st51{clip-path:url(#SVGID_00000001656112417497050000000008093397703196138137_);}
	.st52{clip-path:url(#SVGID_00000180349918950662420540000009184081507465554110_);}
	.st53{clip-path:url(#SVGID_00000043442085565073370980000001545792425295178379_);}
	.st54{clip-path:url(#SVGID_00000169530393672710996110000001700283577974112911_);}
	.st55{clip-path:url(#SVGID_00000039131971568334055520000016767675754443832246_);}
	.st56{clip-path:url(#SVGID_00000041255721147486294790000016736485834026600369_);}
	.st57{clip-path:url(#SVGID_00000102539231168038517550000009345071462785863040_);}
	.st58{clip-path:url(#SVGID_00000111888866902589015750000005828149085741896850_);}
	.st59{clip-path:url(#SVGID_00000013169193264502644260000017450512247143510947_);}
	.st60{clip-path:url(#SVGID_00000072244779702115862650000008372032549016768910_);}
	.st61{clip-path:url(#SVGID_00000160153049472466994740000006516695633078176690_);}
	.st62{fill:#9AB4DE;}
	.st63{clip-path:url(#SVGID_00000039099185412190185000000002013101668413394356_);}
	.st64{clip-path:url(#SVGID_00000040567207599741389890000004521490831952001693_);}
	.st65{clip-path:url(#SVGID_00000070800871068116086460000004214104353983095436_);}
	.st66{fill:#B9C9E9;}
	.st67{clip-path:url(#SVGID_00000174579745088244162200000002195750739313594790_);}
	.st68{clip-path:url(#SVGID_00000003821588613316402210000011560623918345345690_);}
	.st69{clip-path:url(#SVGID_00000124140165026743712750000012395234537741088697_);}
	.st70{clip-path:url(#SVGID_00000106845147945382012330000010898826483227867313_);}
	.st71{clip-path:url(#SVGID_00000122697374928999633370000004160216959832248227_);}
	.st72{clip-path:url(#SVGID_00000122697150083514642400000003875870497153931190_);}
	.st73{clip-path:url(#SVGID_00000093896223147496609090000011174772525529724295_);}
	.st74{clip-path:url(#SVGID_00000063599300925350358490000009756610251081008278_);}
	.st75{clip-path:url(#SVGID_00000116950701634268036440000016007511043615998602_);}
	.st76{clip-path:url(#SVGID_00000107550178637589895190000017767009775543742346_);}
	.st77{clip-path:url(#SVGID_00000101103765960613993840000006197786890853641624_);}
	.st78{clip-path:url(#SVGID_00000109719505295334186230000004389017947469286074_);}
	.st79{clip-path:url(#SVGID_00000168077888831649443850000006097512725599362707_);}
	.st80{clip-path:url(#SVGID_00000096032516460594125450000011707624561217478315_);}
	.st81{clip-path:url(#SVGID_00000168117418923956104420000014899291993709982136_);}
	.st82{clip-path:url(#SVGID_00000013883377720719719190000018102515187332401315_);}
	.st83{clip-path:url(#SVGID_00000092421271574964470860000006800363705278146708_);}
	.st84{clip-path:url(#SVGID_00000067946754450618332190000013185307093331230127_);}
	.st85{clip-path:url(#SVGID_00000173852241142960802520000001584466590991708804_);}
	.st86{clip-path:url(#SVGID_00000150099418023678632050000011942142900296621218_);}
	.st87{clip-path:url(#SVGID_00000109748559704255946280000014060194191329926554_);}
	.st88{clip-path:url(#SVGID_00000108291149476361052530000003746398697242398355_);}
	.st89{clip-path:url(#SVGID_00000095308513078489745870000011498659399409348796_);}
	.st90{clip-path:url(#SVGID_00000125590057414204577640000010120045492278604166_);}
	.st91{clip-path:url(#SVGID_00000101068777283360243450000003427964473382297235_);}
	.st92{clip-path:url(#SVGID_00000155837204354548727490000012429601481251951003_);}
	.st93{clip-path:url(#SVGID_00000178182338897698347200000006860764935238789774_);}
	.st94{clip-path:url(#SVGID_00000168079375308135923970000000176650838443160233_);}
	.st95{clip-path:url(#SVGID_00000126289498259204551890000013045140818986538402_);}
	.st96{clip-path:url(#SVGID_00000129172785844944463720000003596032122080355990_);}
	.st97{clip-path:url(#SVGID_00000117662341699265917260000011383728574336047525_);}
	.st98{clip-path:url(#SVGID_00000176757719121750481950000008217188693687180676_);}
	.st99{clip-path:url(#SVGID_00000109751168364959880000000006603816515578545061_);}
	.st100{clip-path:url(#SVGID_00000012432106457305384730000000060549004596465050_);}
	.st101{clip-path:url(#SVGID_00000088855840003789531980000004362967365004073863_);}
	.st102{clip-path:url(#SVGID_00000155122172452329333510000013553343327825172876_);}
	.st103{clip-path:url(#SVGID_00000142159777901881880860000009341902170431173807_);}
	.st104{clip-path:url(#SVGID_00000126321219016887442380000012764539365053516430_);}
	.st105{clip-path:url(#SVGID_00000176759028065749030830000001138414286862250393_);}
	.st106{clip-path:url(#SVGID_00000044890821690021041140000003096349385317841050_);}
	.st107{clip-path:url(#SVGID_00000070094324451681192430000004687703982713999276_);}
	.st108{clip-path:url(#SVGID_00000090999606740915147920000011981283664281353353_);}
	.st109{clip-path:url(#SVGID_00000042703988939529919310000010686119822519713960_);}
	.st110{clip-path:url(#SVGID_00000147920555847158819930000003163513988749774243_);}
	.st111{clip-path:url(#SVGID_00000177476246522023142850000015462514119619860156_);}
	.st112{clip-path:url(#SVGID_00000078761293300178093130000000873916406707587998_);}
	.st113{clip-path:url(#SVGID_00000047059768869591567380000000037591987312455606_);}
	.st114{clip-path:url(#SVGID_00000124121516664120810910000009102958584356733862_);}
	.st115{clip-path:url(#SVGID_00000086672722476445672280000014431469519738168735_);}
	.st116{clip-path:url(#SVGID_00000010307778389903732320000010690413114971236241_);}
	.st117{clip-path:url(#SVGID_00000078761728129273989490000005208255902058705848_);}
	.st118{clip-path:url(#SVGID_00000060031905603469002500000005771510352096464567_);}
	.st119{clip-path:url(#SVGID_00000161608840864814157540000004499962823000534160_);}
	.st120{clip-path:url(#SVGID_00000164502047896804023990000006490405199699892362_);}
	.st121{clip-path:url(#SVGID_00000080913466226949768740000012669929968338575785_);}
	.st122{clip-path:url(#SVGID_00000108291379581463986880000001180108601052098747_);}
	.st123{clip-path:url(#SVGID_00000172430210694673905970000007764994535030520767_);}
	.st124{clip-path:url(#SVGID_00000048484370496689975210000009182424970466030495_);}
	.st125{clip-path:url(#SVGID_00000171717365998915241560000012761871832960704669_);}
	.st126{clip-path:url(#SVGID_00000174603982646299644210000003450422497850397840_);}
	.st127{clip-path:url(#SVGID_00000165217296664020606840000000459046151288541599_);}
	.st128{clip-path:url(#SVGID_00000006688359566292682900000016117469216143159720_);}
	.st129{clip-path:url(#SVGID_00000013160550849172845800000005676137335363677599_);}
	.st130{clip-path:url(#SVGID_00000114052036479808849580000014211567909296500379_);}
	.st131{clip-path:url(#SVGID_00000157279385392120016430000001150525010896087436_);}
	.st132{clip-path:url(#SVGID_00000109724860601952608510000008464581199913377962_);}
	.st133{clip-path:url(#SVGID_00000154396660938511196610000006183600116630984352_);}
	.st134{clip-path:url(#SVGID_00000114045365295896547030000012997118652941440651_);}
	.st135{clip-path:url(#SVGID_00000026872089216169066670000001803021948010165919_);}
	.st136{clip-path:url(#SVGID_00000114043161514101661810000003201152000290873251_);}
	.st137{clip-path:url(#SVGID_00000000200469238230226160000012224685796626727313_);}
	.st138{clip-path:url(#SVGID_00000065755292123695084600000000101998871580425628_);}
	.st139{clip-path:url(#SVGID_00000057133036633066142070000013803214129679263401_);}
	.st140{clip-path:url(#SVGID_00000082355911094762718500000012336175268030271902_);}
	.st141{clip-path:url(#SVGID_00000154384453162608676670000017689831988752264123_);}
	.st142{clip-path:url(#SVGID_00000085935274258138199650000000722726149210407041_);}
	.st143{clip-path:url(#SVGID_00000013188174386996414780000007119115259517475218_);}
	.st144{clip-path:url(#SVGID_00000050642714436155896640000003394069184069489056_);}
	.st145{clip-path:url(#SVGID_00000161615666766603880130000009832091028747108742_);}
	.st146{clip-path:url(#SVGID_00000118362633768201125830000018242724614816002210_);}
	.st147{clip-path:url(#SVGID_00000165938427537842426010000003784476032313988508_);}
	.st148{clip-path:url(#SVGID_00000010287488385478067470000000953340216141616831_);}
	.st149{clip-path:url(#SVGID_00000123407107641198416600000006746896711369488046_);}
	.st150{clip-path:url(#SVGID_00000135675818888118766200000009327152577358184603_);}
	.st151{clip-path:url(#SVGID_00000135666696539020428800000014676832037953337243_);}
	.st152{clip-path:url(#SVGID_00000062173536397223882150000007688731524943306667_);}
	.st153{clip-path:url(#SVGID_00000093874498033950880640000006802890555749665212_);}
	.st154{clip-path:url(#SVGID_00000127029849632371685690000008337901492196698283_);}
	.st155{clip-path:url(#SVGID_00000050658047013325115670000010665708043514315399_);}
	.st156{clip-path:url(#SVGID_00000065063497745448064650000013160761283763452597_);}
	.st157{clip-path:url(#SVGID_00000018951971485853215770000008912196923113840544_);}
	.st158{clip-path:url(#SVGID_00000108289281463544224560000007817727664439928474_);}
	.st159{clip-path:url(#SVGID_00000160190570266860816530000014574965693732987776_);}
	.st160{clip-path:url(#SVGID_00000073684991986616051860000001050915477976797342_);}
	.st161{clip-path:url(#SVGID_00000182490828400256160080000002900485132064637372_);}
	.st162{clip-path:url(#SVGID_00000072961989253495232480000001983289083927134336_);}
	.st163{clip-path:url(#SVGID_00000023966049209929098280000001886985795014869378_);}
	.st164{clip-path:url(#SVGID_00000088849985335620484860000003639673315643226547_);}
	.st165{clip-path:url(#SVGID_00000126311087164872330100000003916584581090480822_);}
	.st166{clip-path:url(#SVGID_00000164488461173555563180000005553713214843677330_);}
	.st167{clip-path:url(#SVGID_00000058558327019920564330000011472529109882476711_);}
	.st168{clip-path:url(#SVGID_00000124141853175450214570000010815579896594661797_);}
	.st169{clip-path:url(#SVGID_00000134946997350576294450000010673489614039274685_);}
	.st170{clip-path:url(#SVGID_00000150798193222984765690000009442174858173608382_);}
	.st171{clip-path:url(#SVGID_00000165210786939920358340000012920232534826519446_);}
	.st172{clip-path:url(#SVGID_00000150782861340585783450000014947798375538236293_);}
	.st173{clip-path:url(#SVGID_00000042004295695128157430000016931739603020448139_);}
	.st174{clip-path:url(#SVGID_00000154416571812525741810000000167628424084288424_);}
	.st175{clip-path:url(#SVGID_00000157996407357515671960000003907582918000094099_);}
	.st176{clip-path:url(#SVGID_00000159469294013362731510000016070132418375875230_);}
	.st177{clip-path:url(#SVGID_00000103979067950448911870000000356893768389932720_);}
	.st178{clip-path:url(#SVGID_00000040562822820155026010000014145122480364459449_);}
	.st179{clip-path:url(#SVGID_00000182488675407989135330000013694688420585566104_);}
	.st180{clip-path:url(#SVGID_00000098907300834347142350000001162795972389788073_);}
	.st181{clip-path:url(#SVGID_00000173157062722601773180000003401482543390792866_);}
	.st182{clip-path:url(#SVGID_00000181768510379286375930000016774943119402875296_);}
	.st183{clip-path:url(#SVGID_00000067922677533527559820000017855558107815838115_);}
	.st184{clip-path:url(#SVGID_00000096756928412850423750000008973280045072221587_);}
	.st185{clip-path:url(#SVGID_00000027576103602050608580000011768125184484403893_);}
	.st186{clip-path:url(#SVGID_00000084521060853912687090000007734522548817600681_);}
	.st187{clip-path:url(#SVGID_00000137811165730505952790000013483475064184587710_);}
	.st188{clip-path:url(#SVGID_00000047059999434713438520000010725096185287127739_);}
	.st189{clip-path:url(#SVGID_00000119813218400545854010000015926953891850325662_);}
	.st190{clip-path:url(#SVGID_00000033335951779856104770000007523941241673712804_);}
	.st191{clip-path:url(#SVGID_00000067207096965826687170000015493752458130783659_);}
	.st192{clip-path:url(#SVGID_00000128448742974612868240000000965489555478847674_);}
	.st193{clip-path:url(#SVGID_00000067930264672036109890000015124326232539506333_);}
	.st194{clip-path:url(#SVGID_00000085956007083188847160000014050720271088737699_);}
	.st195{clip-path:url(#SVGID_00000140702272529748778390000014526473059543956876_);}
	.st196{clip-path:url(#SVGID_00000037659444913878455800000012071882754528050066_);}
	.st197{clip-path:url(#SVGID_00000137134105093934710740000012892021290286871224_);}
	.st198{clip-path:url(#SVGID_00000170266952177051592640000000845794628355553723_);}
	.st199{clip-path:url(#SVGID_00000003064570840145230510000013897764325855379377_);}
	.st200{clip-path:url(#SVGID_00000082358690146388019770000001712654902913836182_);}
	.st201{clip-path:url(#SVGID_00000175324078758951285220000004608478839865579947_);}
	.st202{clip-path:url(#SVGID_00000155108974165475536340000012014203394892536479_);}
	.st203{clip-path:url(#SVGID_00000090288064692441163940000014376141983985505200_);}
	.st204{clip-path:url(#SVGID_00000093163841640314602160000007577067876771265672_);}
	.st205{clip-path:url(#SVGID_00000130647877406958546040000000835574024137545614_);}
	.st206{clip-path:url(#SVGID_00000179605825504717059080000010007571829886423699_);}
	.st207{clip-path:url(#SVGID_00000170998989153297463570000013313249924620185785_);}
	.st208{clip-path:url(#SVGID_00000065036950190353974140000010168230424731263641_);}
	.st209{clip-path:url(#SVGID_00000062166290746533736620000007565034085002283196_);}
	.st210{clip-path:url(#SVGID_00000147208491074076681640000009369413578744779400_);}
	.st211{clip-path:url(#SVGID_00000147218491064995066480000008374070494436571549_);}
	.st212{clip-path:url(#SVGID_00000067942914190645584300000010813781928364300204_);}
	.st213{clip-path:url(#SVGID_00000106147718088132538900000010339528202162417577_);}
	.st214{clip-path:url(#SVGID_00000166677289714745203660000006485983527859456385_);}
	.st215{clip-path:url(#SVGID_00000086693900242607262350000000076688782347729310_);}
	.st216{clip-path:url(#SVGID_00000005255829936162807700000009494290314147527587_);}
	.st217{clip-path:url(#SVGID_00000177482245756157369060000005087550071183459730_);}
	.st218{clip-path:url(#SVGID_00000019678327727446933140000010609246985635859888_);}
	.st219{clip-path:url(#SVGID_00000089557667255728041560000001561272283116749726_);}
	.st220{clip-path:url(#SVGID_00000165228308520045074610000001462450461073323421_);}
	.st221{clip-path:url(#SVGID_00000174599789595934424000000005583582128019279275_);}
	.st222{clip-path:url(#SVGID_00000156556778932043932220000012967366073512740541_);}
	.st223{clip-path:url(#SVGID_00000026151392539596202270000001392211534802960806_);}
	.st224{clip-path:url(#SVGID_00000015337323636835316270000006318837051871218598_);}
	.st225{clip-path:url(#SVGID_00000049931270870563772710000009616234477334502540_);}
	.st226{clip-path:url(#SVGID_00000010278673532536233750000005784618908789765767_);}
	.st227{clip-path:url(#SVGID_00000098192476887366391020000009365555004882085531_);}
	.st228{clip-path:url(#SVGID_00000034067728451521870000000008936209636123080614_);}
	.st229{clip-path:url(#SVGID_00000122001722127756726770000001010880354520499100_);}
	.st230{clip-path:url(#SVGID_00000152236730818074068130000000199106444987672748_);}
	.st231{clip-path:url(#SVGID_00000034796385150195912700000008925206313482555269_);}
	.st232{clip-path:url(#SVGID_00000062175216176764221300000015267387085684259474_);}
	.st233{clip-path:url(#SVGID_00000049193647549281639310000005563955104312133039_);}
	.st234{clip-path:url(#SVGID_00000110442339185158088990000008899728303787009449_);}
	.st235{clip-path:url(#SVGID_00000179634533362226118100000012089228873426952612_);}
	.st236{clip-path:url(#SVGID_00000042731512998261886800000015380239374706410624_);}
	.st237{clip-path:url(#SVGID_00000019639738546423486770000012215075101275016090_);}
	.st238{clip-path:url(#SVGID_00000030467306176767616620000004584799646652880829_);}
	.st239{clip-path:url(#SVGID_00000171707506597107502500000004653248159942098069_);}
	.st240{clip-path:url(#SVGID_00000043440916792894783990000005950133018074755518_);}
	.st241{clip-path:url(#SVGID_00000094576242349008872310000015364912597045866140_);}
	.st242{clip-path:url(#SVGID_00000081634304631226019330000004215890032760251306_);}
	.st243{clip-path:url(#SVGID_00000019669646282537609670000013459631703017153979_);}
	.st244{clip-path:url(#SVGID_00000052102329009438158310000015659794364713029023_);}
	.st245{clip-path:url(#SVGID_00000003818746394724807910000015952564161664288386_);}
	.st246{clip-path:url(#SVGID_00000140006803959954372790000010688030619823710889_);}
	.st247{clip-path:url(#SVGID_00000168093285932393676080000000221203840557146045_);}
	.st248{clip-path:url(#SVGID_00000136391361691898241000000011947999852479638972_);}
	.st249{clip-path:url(#SVGID_00000054260723098600031250000013374434268147572141_);}
	.st250{clip-path:url(#SVGID_00000138545279249020673590000014791437456609793952_);}
	.st251{clip-path:url(#SVGID_00000014617363700358964380000008840405461541800614_);}
	.st252{clip-path:url(#SVGID_00000168114180102765126070000005625736373345743293_);}
	.st253{clip-path:url(#SVGID_00000164507075087244367800000002961686091475336613_);}
	.st254{clip-path:url(#SVGID_00000146481798922370790930000003530506074237803667_);}
	.st255{clip-path:url(#SVGID_00000156555098318628236430000011842675257481007269_);}
	.st256{clip-path:url(#SVGID_00000051345444666261387420000017801094057234471083_);}
	.st257{clip-path:url(#SVGID_00000121274913969736622600000013323084049895670435_);}
	.st258{clip-path:url(#SVGID_00000057837894900940568000000018307757115100224684_);}
	.st259{clip-path:url(#SVGID_00000024723031525307268120000013467673381282441344_);}
	.st260{clip-path:url(#SVGID_00000020369886874678730220000000896758454009823646_);}
	.st261{clip-path:url(#SVGID_00000025432839133144563690000009061878185636088492_);}
	.st262{clip-path:url(#SVGID_00000071550652175850382350000010094986931850919592_);}
	.st263{clip-path:url(#SVGID_00000090258904745000318320000008836762648218666370_);}
	.st264{clip-path:url(#SVGID_00000163070206026553506820000003481911954210272664_);}
	.st265{clip-path:url(#SVGID_00000023986947250126401880000001856887644210907057_);}
	.st266{clip-path:url(#SVGID_00000152226344302842208510000011602523981643107200_);}
	.st267{clip-path:url(#SVGID_00000119819876199489721760000017436708815168058002_);}
	.st268{clip-path:url(#SVGID_00000133494180835995119020000011534536936104529846_);}
	.st269{clip-path:url(#SVGID_00000088820801641888900360000004674223255852374414_);}
	.st270{clip-path:url(#SVGID_00000160888824810229651880000010626327989481626261_);}
	.st271{clip-path:url(#SVGID_00000080178246742255753260000006826665573243811256_);}
	.st272{clip-path:url(#SVGID_00000103953483731995671340000008146754270397307046_);}
	.st273{clip-path:url(#SVGID_00000106126110636201515770000017583809858148547977_);}
	.st274{clip-path:url(#SVGID_00000071524527624567264990000010341980970504130744_);}
	.st275{clip-path:url(#SVGID_00000105387947352843542040000015581951387107111355_);}
	.st276{clip-path:url(#SVGID_00000089564250793674671220000005970703220764580757_);}
	.st277{clip-path:url(#SVGID_00000171706191935420469940000004245728129767992195_);}
	.st278{clip-path:url(#SVGID_00000019661001017619126090000011402016686940099752_);}
	.st279{clip-path:url(#SVGID_00000093886207707577201910000014978313654472320697_);}
	.st280{clip-path:url(#SVGID_00000042016083297238580700000008863439009031836854_);}
	.st281{clip-path:url(#SVGID_00000041281449570384775700000001021015680493365392_);}
	.st282{clip-path:url(#SVGID_00000016777842894359991100000008821868008978393248_);}
	.st283{clip-path:url(#SVGID_00000073710012395504141880000002798403849292650687_);}
	.st284{clip-path:url(#SVGID_00000048495506752078175750000010443827232377978551_);}
	.st285{clip-path:url(#SVGID_00000110470131456127775300000001489636470579124408_);}
	.st286{clip-path:url(#SVGID_00000072254781082120436420000010734319112498202043_);}
	.st287{clip-path:url(#SVGID_00000026148816383111466480000016846288263640992947_);}
	.st288{clip-path:url(#SVGID_00000009592094218905353360000002440825827370040759_);}
	.st289{clip-path:url(#SVGID_00000101795978550362144940000012629704490008696747_);}
	.st290{clip-path:url(#SVGID_00000163774635653601142050000016762175553376181129_);}
	.st291{clip-path:url(#SVGID_00000009551914687232957140000008962840600652191407_);}
	.st292{clip-path:url(#SVGID_00000049218329061820190510000008615015035829202595_);}
	.st293{clip-path:url(#SVGID_00000159452885856249618570000012618368099495405988_);}
	.st294{clip-path:url(#SVGID_00000111168659246007004710000000164041291768881051_);}
	.st295{clip-path:url(#SVGID_00000153687402899313603920000006001991016306153901_);}
	.st296{clip-path:url(#SVGID_00000183243630006839892460000006377188775494514839_);}
	.st297{clip-path:url(#SVGID_00000023974922124424412330000004441266008751541434_);}
	.st298{clip-path:url(#SVGID_00000032616896704569901770000009248553524303734443_);}
	.st299{clip-path:url(#SVGID_00000086692581997712566050000006239119852119676318_);}
	.st300{clip-path:url(#SVGID_00000011000188040290157630000015964232464754236587_);}
	.st301{clip-path:url(#SVGID_00000078741543163919525520000012203149096108304540_);}
	.st302{clip-path:url(#SVGID_00000177466126663094292760000006848260110847252633_);}
	.st303{clip-path:url(#SVGID_00000001638495775542224270000009146067095533269384_);}
	.st304{clip-path:url(#SVGID_00000033368060601841589260000016478699995784275336_);}
	.st305{clip-path:url(#SVGID_00000034066331452923455190000006714543995209234851_);}
	.st306{clip-path:url(#SVGID_00000062879957071406150030000015638716841627587476_);}
	.st307{clip-path:url(#SVGID_00000085210164772383055980000011947725972542035361_);}
	.st308{clip-path:url(#SVGID_00000182514139594198656380000005308675510999861390_);}
	.st309{clip-path:url(#SVGID_00000177473801225668623760000018391685578265254843_);}
	.st310{clip-path:url(#SVGID_00000084489159822972155950000004923430557446695357_);}
	.st311{clip-path:url(#SVGID_00000168833954963776766170000007604598847852192153_);}
	.st312{clip-path:url(#SVGID_00000098181443952387311900000018043314945558010812_);}
	.st313{clip-path:url(#SVGID_00000029008148720010615270000016007913488811051157_);}
	.st314{clip-path:url(#SVGID_00000093155583677690935660000002141004941436380559_);}
	.st315{clip-path:url(#SVGID_00000114034954425175612350000002866706566463455114_);}
	.st316{clip-path:url(#SVGID_00000132792180308593000470000004745112943469814708_);}
	.st317{clip-path:url(#SVGID_00000065756209676587443000000014788858751845830079_);}
	.st318{clip-path:url(#SVGID_00000174593619831222750680000012857232021499474058_);}
	.st319{clip-path:url(#SVGID_00000138567912379183395290000014799098091092902784_);}
	.st320{clip-path:url(#SVGID_00000040533453771716528780000009786526758486865841_);}
	.st321{clip-path:url(#SVGID_00000159443427887241785580000014768860914920274842_);}
	.st322{clip-path:url(#SVGID_00000021100747744077277240000010764758272506030760_);}
	.st323{clip-path:url(#SVGID_00000000937979990101270990000013933404224264785849_);}
	.st324{clip-path:url(#SVGID_00000072256758817795183330000005091747540441654684_);}
	.st325{clip-path:url(#SVGID_00000140694865464639850220000012719796197320509570_);}
	.st326{clip-path:url(#SVGID_00000018202356992188523110000003739934848572884400_);}
	.st327{clip-path:url(#SVGID_00000127025062935009027030000015666510629918543769_);}
	.st328{clip-path:url(#SVGID_00000037654440253451754160000008444416413880629686_);}
	.st329{clip-path:url(#SVGID_00000135668321707239012870000005839650023217996931_);}
	.st330{clip-path:url(#SVGID_00000089538833832103258830000015946069443175137212_);}
	.st331{clip-path:url(#SVGID_00000170987409991477973810000002166667508332695483_);}
	.st332{clip-path:url(#SVGID_00000178890090035909364740000013678490445947243694_);}
	.st333{clip-path:url(#SVGID_00000133504374114730848720000014362886036523147680_);}
	.st334{clip-path:url(#SVGID_00000008828715333441748690000001822156320964765588_);}
	.st335{clip-path:url(#SVGID_00000183936263166206609860000001464510171825832871_);}
	.st336{clip-path:url(#SVGID_00000035512924916560603040000013090438507170694785_);}
	.st337{clip-path:url(#SVGID_00000101816607026663414670000005619637474683433900_);}
	.st338{clip-path:url(#SVGID_00000154416685593437446490000011264631515391964585_);}
	.st339{clip-path:url(#SVGID_00000024711986450599793980000015937121300407918517_);}
	.st340{clip-path:url(#SVGID_00000163058529190289679880000006036624159704110987_);}
	.st341{clip-path:url(#SVGID_00000088834581745419887780000012177461262914837951_);}
	.st342{clip-path:url(#SVGID_00000080915733910270035960000007890504627459162004_);}
	.st343{clip-path:url(#SVGID_00000016785258711931597170000017844238507871775665_);}
	.st344{clip-path:url(#SVGID_00000077290894241718055750000006334434520948787645_);}
	.st345{clip-path:url(#SVGID_00000164479990500356170050000006553718725476841622_);}
	.st346{clip-path:url(#SVGID_00000176727654237940661240000010088847975582204311_);}
	.st347{clip-path:url(#SVGID_00000150788785653025045570000012155846136632303540_);}
	.st348{clip-path:url(#SVGID_00000155864599523106863380000018239833550635966347_);}
	.st349{clip-path:url(#SVGID_00000144305748336592316510000011632785167717243793_);}
	.st350{clip-path:url(#SVGID_00000073703971291928060950000013784513094697232001_);}
	.st351{clip-path:url(#SVGID_00000068651484734747583240000015954726887379181730_);}
	.st352{clip-path:url(#SVGID_00000036238263937544761130000006930157900582592920_);}
	.st353{clip-path:url(#SVGID_00000139256010176583829340000007497206759674617748_);}
	.st354{clip-path:url(#SVGID_00000093158630888409007620000010421012203101287100_);}
	.st355{clip-path:url(#SVGID_00000102518008942501988380000015735628915554324375_);}
	.st356{clip-path:url(#SVGID_00000173879902998152557990000008747938153560926386_);}
	.st357{clip-path:url(#SVGID_00000106830986608985046110000007859948084088393368_);}
	.st358{clip-path:url(#SVGID_00000140734929552790748620000013332938354387876279_);}
	.st359{clip-path:url(#SVGID_00000132084518197100829810000000477972057737767350_);}
	.st360{clip-path:url(#SVGID_00000046340504414083442660000008413743261567649695_);}
	.st361{clip-path:url(#SVGID_00000135654276935904866840000008647631585020351163_);}
	.st362{clip-path:url(#SVGID_00000021114263324784856130000016150580025349108355_);}
	.st363{clip-path:url(#SVGID_00000042715588271630802450000003583489384219829902_);}
	.st364{clip-path:url(#SVGID_00000174602398695440624540000007179676062008694966_);}
	.st365{clip-path:url(#SVGID_00000074415710533045623920000017536737682257409720_);}
	.st366{clip-path:url(#SVGID_00000036967039918949510650000008888409711914067358_);}
	.st367{clip-path:url(#SVGID_00000090983275581973292190000011392590934627343762_);}
	.st368{clip-path:url(#SVGID_00000111184770033034636340000012805502125558842557_);}
	.st369{clip-path:url(#SVGID_00000038390158427012869450000016234309809756811689_);}
	.st370{clip-path:url(#SVGID_00000023268911327997704900000010452191397944088714_);}
	.st371{clip-path:url(#SVGID_00000103261735962160500690000002782944812062200722_);}
	.st372{clip-path:url(#SVGID_00000111898624769501510260000015163041578034688921_);}
	.st373{clip-path:url(#SVGID_00000111891267433892389190000008541103621560196790_);}
	.st374{clip-path:url(#SVGID_00000124871152130347728130000015051147037439933885_);}
	.st375{clip-path:url(#SVGID_00000098186410900799451380000000192582526956203181_);}
</style>
<g>
	<g>
		<rect x="4.5" y="122.5" class="st0" width="48.54" height="692.84"/>
	</g>
	<g>
		<rect x="4.5" y="0" class="st1" width="992.7" height="116.88"/>
	</g>
	<g>
		<defs>
			<rect id="SVGID_00000150787960131784439540000015276387113176568218_" y="0" width="1000" height="819.82"/>
		</defs>
		<clipPath id="SVGID_00000158709062955375285580000003040050971966923397_">
			<use xlink:href="#SVGID_00000150787960131784439540000015276387113176568218_"  style="overflow:visible;"/>
		</clipPath>
		<g style="clip-path:url(#SVGID_00000158709062955375285580000003040050971966923397_);">
			<path class="st3" d="M997.19,819.82H1.69c-0.93,0-1.69-0.75-1.69-1.68V2.81c0-0.93,0.75-1.68,1.69-1.68h995.5
				c0.93,0,1.69,0.75,1.69,1.68v815.33C998.88,819.07,998.12,819.82,997.19,819.82z M3.37,816.45h992.13V4.49H3.37V816.45z"/>
		</g>
		<g style="clip-path:url(#SVGID_00000158709062955375285580000003040050971966923397_);">
			<rect x="4.5" y="118" class="st3" width="995.5" height="3.37"/>
		</g>
		<g style="clip-path:url(#SVGID_00000158709062955375285580000003040050971966923397_);">
			<path class="st4" d="M925.42,67.68c0-6.43-3.8-10.45-11.32-11.18l-5.99-0.58c-3.36-0.29-3.94-1.9-3.94-3.29
				c0-1.9,1.61-3.66,5.41-3.66c3.29,0,6.65,0.58,8.84,2.56l5.84-5.92c-3.65-3.43-8.62-4.45-14.54-4.45
				c-7.74,0-14.68,4.23-14.68,12.12c0,7.01,4.24,10.01,11.1,10.67l5.99,0.58c3,0.3,4.02,1.61,4.02,3.51c0,2.85-3.43,3.94-6.72,3.94
				c-2.92,0-7.01-0.44-10.15-3.58l-6.21,6.2c4.82,4.82,10.23,5.47,16.22,5.47C918.26,80.09,925.42,76.08,925.42,67.68 M887.8,67.68
				c0-6.43-3.8-10.45-11.32-11.18l-5.99-0.58c-3.36-0.29-3.94-1.9-3.94-3.29c0-1.9,1.61-3.66,5.41-3.66c3.29,0,6.65,0.58,8.84,2.56
				l5.84-5.92c-3.65-3.43-8.62-4.45-14.54-4.45c-7.74,0-14.68,4.23-14.68,12.12c0,7.01,4.24,10.01,11.1,10.67l5.99,0.58
				c2.99,0.3,4.02,1.61,4.02,3.51c0,2.85-3.43,3.94-6.72,3.94c-2.92,0-7.01-0.44-10.15-3.58l-6.21,6.2
				c4.82,4.82,10.23,5.47,16.22,5.47C880.64,80.09,887.8,76.08,887.8,67.68 M847.04,79.65V41.6h-9.49v23.01
				c0,5.19-3.36,6.94-6.36,6.94c-2.99,0-6.28-1.75-6.28-6.94V41.6h-9.49v24.32c0,4.16,0.8,7.74,3.87,10.81
				c2.11,2.12,5.18,3.35,8.98,3.35c3.51,0,7.02-1.31,9.5-3.94v3.5H847.04z M806.79,79.65v-8.02h-3.65c-2.41,0-3.36-1.17-3.36-3.43
				V27.65h-9.49v41.13c0,5.4,3.29,10.87,11.1,10.87H806.79z M778.96,79.65V55.03c0-8.03-4.38-13.87-12.7-13.87
				c-3.36,0-6.58,1.31-9.14,3.94V27.65h-9.49v52h9.49V56.42c0-4.97,3.14-6.72,6.14-6.72c2.99,0,6.21,1.68,6.21,6.72v23.23H778.96z
				 M738.78,74.91l-6.43-6.35c-1.97,2.12-3.65,2.99-6.14,2.99c-2.26,0-4.02-0.8-5.41-2.48c-1.46-1.83-2.12-4.46-2.12-8.48
				s0.66-6.57,2.12-8.4c1.39-1.69,3.14-2.49,5.41-2.49c2.48,0,4.16,0.88,6.14,3l6.43-6.43c-3.36-3.5-7.3-5.11-12.56-5.11
				c-7.6,0-17.01,4.01-17.01,19.43s9.42,19.5,17.01,19.5C731.48,80.09,735.42,78.41,738.78,74.91 M701.68,67.68
				c0-6.43-3.8-10.45-11.32-11.18l-5.99-0.58c-3.36-0.29-3.94-1.9-3.94-3.29c0-1.9,1.61-3.66,5.41-3.66c3.29,0,6.65,0.58,8.84,2.56
				l5.84-5.92c-3.65-3.43-8.62-4.45-14.54-4.45c-7.74,0-14.68,4.23-14.68,12.12c0,7.01,4.24,10.01,11.1,10.67l5.99,0.58
				c2.99,0.3,4.02,1.61,4.02,3.51c0,2.85-3.43,3.94-6.72,3.94c-2.92,0-7.01-0.44-10.15-3.58l-6.21,6.2
				c4.82,4.82,10.23,5.47,16.22,5.47C694.52,80.09,701.68,76.08,701.68,67.68 M653.04,60.59c0,6.21-0.73,10.96-6.43,10.96
				s-6.43-4.75-6.43-10.96c0-6.21,0.73-10.89,6.43-10.89S653.04,54.38,653.04,60.59 M662.52,60.59c0-5.7-0.07-12.2-3.87-16
				c-2.12-2.11-5.55-3.43-9.28-3.43c-3.87,0-6.73,1.02-9.21,3.79V27.65h-9.48v52h9.19v-3.57c2.63,2.92,5.48,4.01,9.5,4.01
				c3.73,0,7.16-1.31,9.28-3.43C662.45,72.87,662.52,66.29,662.52,60.59 M609.5,65.63c0,2.34-0.37,3.87-1.39,4.83
				c-1.69,1.61-3.37,1.83-6,1.83c-3.73,0-5.48-1.75-5.48-4.39c0-2.7,1.9-4.32,5.34-4.32h7.53V65.63z M618.98,79.65V54.6
				c0-8.91-5.55-13.44-16.21-13.44c-6.36,0-10.01,1.17-13.73,5.25l6.06,5.92c1.97-2.26,3.65-3.15,7.31-3.15c5.04,0,7.09,1.83,7.09,6
				v1.9h-8.99c-8.84,0-13,4.96-13,11.02c0,3.37,1.09,6.43,3.14,8.55c2.26,2.26,5.4,3.35,9.72,3.35c4.38,0,6.79-1.09,9.36-3.65v3.28
				H618.98z M581.15,79.65v-8.02h-3.65c-2.41,0-3.36-1.17-3.36-3.43V27.65h-9.49v41.13c0,5.4,3.28,10.87,11.09,10.87H581.15z
				 M552.88,79.65V41.6h-9.49v23.01c0,5.19-3.37,6.94-6.36,6.94c-2.99,0-6.29-1.75-6.29-6.94V41.6h-9.49v24.32
				c0,4.16,0.8,7.74,3.87,10.81c2.12,2.12,5.18,3.35,8.98,3.35c3.51,0,7.01-1.31,9.5-3.94v3.5H552.88z M510,79.65V55.03
				c0-8.03-4.38-13.87-12.7-13.87c-3.36,0-6.57,1.31-9.14,3.94V27.65h-9.49v52h9.49V56.42c0-4.97,3.15-6.72,6.14-6.72
				c2.99,0,6.21,1.68,6.21,6.72v23.23H510z M469.82,74.91l-6.43-6.35c-1.97,2.12-3.65,2.99-6.14,2.99c-2.26,0-4.02-0.8-5.41-2.48
				c-1.46-1.83-2.12-4.46-2.12-8.48s0.66-6.57,2.12-8.4c1.39-1.69,3.14-2.49,5.41-2.49c2.48,0,4.16,0.88,6.14,3l6.43-6.43
				c-3.36-3.5-7.3-5.11-12.56-5.11c-7.6,0-17.01,4.01-17.01,19.43s9.41,19.5,17.01,19.5C462.52,80.09,466.46,78.41,469.82,74.91
				 M432.72,67.68c0-6.43-3.8-10.45-11.32-11.18l-5.99-0.58c-3.36-0.29-3.94-1.9-3.94-3.29c0-1.9,1.61-3.66,5.41-3.66
				c3.29,0,6.65,0.58,8.84,2.56l5.84-5.92c-3.65-3.43-8.62-4.45-14.54-4.45c-7.74,0-14.68,4.23-14.68,12.12
				c0,7.01,4.24,10.01,11.1,10.67l5.99,0.58c2.99,0.3,4.02,1.61,4.02,3.51c0,2.85-3.43,3.94-6.72,3.94c-2.92,0-7.01-0.44-10.15-3.58
				l-6.21,6.2c4.82,4.82,10.23,5.47,16.22,5.47C425.56,80.09,432.72,76.08,432.72,67.68 M395.02,79.65v-8.02h-3.66
				c-2.41,0-3.35-1.17-3.35-3.43V27.65h-9.49v41.13c0,5.4,3.29,10.87,11.09,10.87H395.02z M357.7,65.63c0,2.34-0.37,3.87-1.39,4.83
				c-1.68,1.61-3.36,1.83-6,1.83c-3.73,0-5.48-1.75-5.48-4.39c0-2.7,1.9-4.32,5.33-4.32h7.53V65.63z M367.19,79.65V54.6
				c0-8.91-5.55-13.44-16.22-13.44c-6.36,0-10.01,1.17-13.73,5.25l6.06,5.92c1.97-2.26,3.65-3.15,7.3-3.15c5.05,0,7.09,1.83,7.09,6
				v1.9h-8.99c-8.84,0-13,4.96-13,11.02c0,3.37,1.1,6.43,3.14,8.55c2.26,2.26,5.4,3.35,9.71,3.35c4.39,0,6.8-1.09,9.36-3.65v3.28
				H367.19z M318.84,57.09h-14.46c0.07-1.68,0.29-2.71,0.88-4.1c1.02-2.26,3.14-3.95,6.36-3.95s5.33,1.69,6.36,3.95
				C318.54,54.38,318.76,55.41,318.84,57.09 M328.19,63.58v-4.23c0-10.45-5.99-18.18-16.58-18.18c-9.86,0-16.58,7.01-16.58,19.43
				c0,15.41,8.61,19.5,17.6,19.5c6.87,0,10.59-2.11,14.46-5.98l-5.77-5.63c-2.41,2.42-4.46,3.58-8.62,3.58
				c-5.33,0-8.33-3.58-8.33-8.48H328.19z M292.32,44.74c-2.63-2.62-5.26-3.57-8.98-3.57c-4.09,0-7.74,1.9-9.57,4.09V41.6h-9.27
				v38.05h9.49V56.71c0-4.82,3.21-7.01,6.14-7.01c2.34,0,3.58,0.8,5.04,2.26L292.32,44.74z M256.82,79.65l-14.61-22.71L255.8,41.6
				h-11.47l-12.64,15.55V27.65h-9.49v52h9.49V68.33l4.02-4.53l9.35,15.85H256.82z M215.33,44.74c-2.63-2.62-5.26-3.57-8.98-3.57
				c-4.09,0-7.74,1.9-9.57,4.09V41.6h-9.27v38.05h9.49V56.71c0-4.82,3.21-7.01,6.14-7.01c2.34,0,3.58,0.8,5.04,2.26L215.33,44.74z
				 M167.92,57.09h-14.46c0.07-1.68,0.29-2.71,0.88-4.1c1.02-2.26,3.14-3.95,6.36-3.95c3.21,0,5.33,1.69,6.36,3.95
				C167.63,54.38,167.85,55.41,167.92,57.09 M177.27,63.58v-4.23c0-10.45-5.99-18.18-16.58-18.18c-9.86,0-16.57,7.01-16.57,19.43
				c0,15.41,8.61,19.5,17.59,19.5c6.87,0,10.59-2.11,14.46-5.98l-5.77-5.63c-2.41,2.42-4.46,3.58-8.62,3.58
				c-5.33,0-8.33-3.58-8.33-8.48H177.27z M141.7,27.65h-10.59L123,60.44l-9.5-32.79h-7.6l-9.5,32.79l-8.04-32.79H77.78l13.88,52
				h8.47l9.57-31.55l9.57,31.55h8.47L141.7,27.65z"/>
		</g>
		<g style="clip-path:url(#SVGID_00000158709062955375285580000003040050971966923397_);">
			<rect x="3.09" y="348.94" class="st3" width="992.7" height="3.37"/>
		</g>
		<g style="clip-path:url(#SVGID_00000158709062955375285580000003040050971966923397_);">
			<rect x="3.09" y="232.07" class="st3" width="992.7" height="3.37"/>
		</g>
		<g style="clip-path:url(#SVGID_00000158709062955375285580000003040050971966923397_);">
			<rect x="3.09" y="463.01" class="st3" width="992.7" height="3.37"/>
		</g>
		<g style="clip-path:url(#SVGID_00000158709062955375285580000003040050971966923397_);">
			<rect x="3.09" y="585.51" class="st3" width="992.7" height="3.37"/>
		</g>
		<g style="clip-path:url(#SVGID_00000158709062955375285580000003040050971966923397_);">
			<rect x="3.09" y="702.39" class="st3" width="992.7" height="3.37"/>
		</g>
		<g style="clip-path:url(#SVGID_00000158709062955375285580000003040050971966923397_);">
			<path class="st3" d="M693,661.25c0,4.06-2.4,6.62-5.82,6.62c-3.42,0-5.77-2.57-5.77-6.62c0-4.11,2.35-6.57,5.77-6.57
				C690.81,654.69,693,657.52,693,661.25 M698.44,661.15c0-6.68-4.48-10.99-9.98-10.99c-1.17,0-2.35,0.16-3.37,0.58l8.17-16.33
				h-5.82l-8.65,17.62c-1.65,3.3-2.83,6.24-2.83,9.34c0,7.05,4.69,11.37,11.26,11.37C693.8,672.73,698.44,668.14,698.44,661.15
				 M658.99,647.59c-1.87-1.87-3.84-2.56-6.46-2.56c-3.05,0-5.82,1.33-7.21,3.25v-2.93h-5.33v27.06h5.43v-16.44
				c0-3.74,2.46-6.09,5.39-6.09c1.87,0,2.83,0.58,4.06,1.82L658.99,647.59z M625.63,662.64c0,1.92-0.37,3.2-1.17,4.01
				c-1.44,1.39-2.99,1.55-5.07,1.55c-3.42,0-4.97-1.39-4.97-3.85c0-2.46,1.66-3.9,4.86-3.9h6.36V662.64z M631.07,672.41v-18.09
				c0-6.14-3.73-9.28-11.15-9.28c-4.48,0-7.15,0.9-9.72,3.89l3.57,3.37c1.49-1.92,2.94-2.62,5.93-2.62c4.22,0,5.93,1.66,5.93,5.07
				v1.93h-7.16c-6.19,0-9.33,3.25-9.33,7.79c0,2.3,0.74,4.38,2.13,5.82c1.65,1.65,3.89,2.45,7.26,2.45c3.37,0,5.23-0.8,7.21-2.77
				v2.45H631.07z M598.03,656.67h-12.17c0.05-1.66,0.16-2.46,0.69-3.69c0.85-2.03,2.83-3.42,5.39-3.42c2.56,0,4.48,1.39,5.34,3.42
				C597.82,654.21,597.98,655.01,598.03,656.67 M603.42,660.45v-2.4c0-7.69-4.21-13.02-11.47-13.02c-6.94,0-11.47,5.06-11.47,13.82
				c0,10.31,5.39,13.88,12.17,13.88c4.75,0,7.37-1.44,10.14-4.21l-3.47-3.26c-1.92,1.92-3.52,2.78-6.57,2.78
				c-4.43,0-6.88-2.94-6.88-7.59H603.42z M581,634.41h-6.3l-7.95,16.71l-7.95-16.71h-6.3l11.37,22.36v15.64h5.76v-15.64L581,634.41z
				 M538.51,630.46h-5.23l-15.22,45.9h5.23L538.51,630.46z M495.76,661.25c0,4.06-2.4,6.62-5.82,6.62s-5.77-2.57-5.77-6.62
				c0-4.11,2.35-6.57,5.77-6.57C493.57,654.69,495.76,657.52,495.76,661.25 M501.2,661.15c0-6.68-4.48-10.99-9.98-10.99
				c-1.17,0-2.35,0.16-3.37,0.58l8.18-16.33h-5.82l-8.65,17.62c-1.66,3.3-2.83,6.24-2.83,9.34c0,7.05,4.69,11.37,11.26,11.37
				C496.56,672.73,501.2,668.14,501.2,661.15 M453.58,656.67h-12.17c0.06-1.66,0.16-2.46,0.7-3.69c0.85-2.03,2.83-3.42,5.39-3.42
				c2.56,0,4.48,1.39,5.34,3.42C453.37,654.21,453.53,655.01,453.58,656.67 M458.98,660.45v-2.4c0-7.69-4.22-13.02-11.48-13.02
				c-6.94,0-11.47,5.06-11.47,13.82c0,10.31,5.38,13.88,12.17,13.88c4.75,0,7.37-1.44,10.14-4.21l-3.47-3.26
				c-1.92,1.92-3.52,2.78-6.56,2.78c-4.43,0-6.89-2.94-6.89-7.59H458.98z M430.26,664.14c0-4.8-2.99-7.21-8.06-7.64l-4.27-0.37
				c-2.88-0.27-3.74-1.49-3.74-3.1c0-2.03,1.65-3.47,4.91-3.47c2.56,0,4.96,0.53,6.67,1.98l3.42-3.47
				c-2.51-2.19-5.98-3.03-10.04-3.03c-5.66,0-10.19,2.98-10.19,8.27c0,4.75,2.93,7.05,8.01,7.48l4.32,0.37
				c2.62,0.21,3.63,1.39,3.63,3.2c0,2.57-2.61,3.74-5.92,3.74c-2.67,0-5.61-0.59-7.79-2.83l-3.58,3.57
				c3.2,3.15,6.94,3.89,11.37,3.89C425.45,672.73,430.26,669.8,430.26,664.14 M403.41,664.14c0-4.8-2.99-7.21-8.06-7.64l-4.27-0.37
				c-2.88-0.27-3.74-1.49-3.74-3.1c0-2.03,1.66-3.47,4.91-3.47c2.56,0,4.97,0.53,6.68,1.98l3.42-3.47
				c-2.51-2.19-5.98-3.03-10.04-3.03c-5.66,0-10.2,2.98-10.2,8.27c0,4.75,2.94,7.05,8.01,7.48l4.33,0.37
				c2.61,0.21,3.63,1.39,3.63,3.2c0,2.57-2.62,3.74-5.93,3.74c-2.67,0-5.6-0.59-7.79-2.83l-3.57,3.57c3.2,3.15,6.94,3.89,11.37,3.89
				C398.6,672.73,403.41,669.8,403.41,664.14 M369.03,662.64c0,1.92-0.37,3.2-1.17,4.01c-1.44,1.39-2.99,1.55-5.07,1.55
				c-3.42,0-4.97-1.39-4.97-3.85c0-2.46,1.66-3.9,4.86-3.9h6.36V662.64z M374.47,672.41v-18.09c0-6.14-3.73-9.28-11.15-9.28
				c-4.48,0-7.15,0.9-9.71,3.89l3.57,3.37c1.49-1.92,2.94-2.62,5.93-2.62c4.22,0,5.93,1.66,5.93,5.07v1.93h-7.15
				c-6.19,0-9.34,3.25-9.34,7.79c0,2.3,0.75,4.38,2.14,5.82c1.65,1.65,3.89,2.45,7.25,2.45c3.37,0,5.24-0.8,7.21-2.77v2.45H374.47z
				 M348.05,672.41v-4.64h-2.4c-2.19,0-2.93-1.07-2.93-3.15v-30.21h-5.44v30.53c0,4,2.24,7.47,7.41,7.47H348.05z M332.04,672.41
				l-13.62-23.11l12.33-14.89h-7.05l-15.54,19.11v-19.11h-5.75v38h5.75v-11.05l6.41-7.69l10.68,18.73H332.04z"/>
		</g>
		<g style="clip-path:url(#SVGID_00000158709062955375285580000003040050971966923397_);">
			<path class="st3" d="M698.97,516.77v-4.85h-22.63v10.83h5.23v-5.98h11.59l-12.76,33.15h5.87L698.97,516.77z M658.99,525.09
				c-1.87-1.87-3.84-2.56-6.46-2.56c-3.05,0-5.82,1.33-7.21,3.25v-2.93h-5.33v27.06h5.43v-16.44c0-3.74,2.46-6.09,5.39-6.09
				c1.87,0,2.83,0.59,4.06,1.81L658.99,525.09z M625.63,540.15c0,1.92-0.37,3.2-1.17,4.01c-1.44,1.39-2.99,1.55-5.07,1.55
				c-3.42,0-4.97-1.39-4.97-3.85c0-2.46,1.66-3.9,4.86-3.9h6.36V540.15z M631.07,549.91v-18.09c0-6.14-3.73-9.28-11.15-9.28
				c-4.48,0-7.15,0.9-9.72,3.89l3.57,3.37c1.49-1.92,2.94-2.62,5.93-2.62c4.22,0,5.93,1.66,5.93,5.07v1.93h-7.16
				c-6.19,0-9.33,3.25-9.33,7.79c0,2.3,0.74,4.38,2.13,5.82c1.65,1.65,3.89,2.45,7.26,2.45c3.37,0,5.23-0.8,7.21-2.77v2.45H631.07z
				 M598.03,534.17h-12.17c0.05-1.66,0.16-2.46,0.69-3.69c0.85-2.03,2.83-3.42,5.39-3.42c2.56,0,4.48,1.39,5.34,3.42
				C597.82,531.71,597.98,532.52,598.03,534.17 M603.42,537.95v-2.4c0-7.69-4.21-13.02-11.47-13.02c-6.94,0-11.47,5.06-11.47,13.82
				c0,10.3,5.39,13.87,12.17,13.87c4.75,0,7.37-1.44,10.14-4.21l-3.47-3.26c-1.92,1.92-3.52,2.78-6.57,2.78
				c-4.43,0-6.88-2.94-6.88-7.59H603.42z M581,511.91h-6.3l-7.95,16.71l-7.95-16.71h-6.3l11.37,22.36v15.64h5.76v-15.64L581,511.91z
				 M538.51,507.96h-5.23l-15.22,45.9h5.23L538.51,507.96z M501.74,516.77v-4.85H479.1v10.83h5.23v-5.98h11.58l-12.76,33.15h5.87
				L501.74,516.77z M453.58,534.17h-12.17c0.06-1.66,0.16-2.46,0.7-3.69c0.85-2.03,2.83-3.42,5.39-3.42c2.56,0,4.48,1.39,5.34,3.42
				C453.37,531.71,453.53,532.52,453.58,534.17 M458.98,537.95v-2.4c0-7.69-4.22-13.02-11.48-13.02c-6.94,0-11.47,5.06-11.47,13.82
				c0,10.3,5.38,13.87,12.17,13.87c4.75,0,7.37-1.44,10.14-4.21l-3.47-3.26c-1.92,1.92-3.52,2.78-6.56,2.78
				c-4.43,0-6.89-2.94-6.89-7.59H458.98z M430.26,541.64c0-4.8-2.99-7.21-8.06-7.64l-4.27-0.37c-2.88-0.27-3.74-1.49-3.74-3.1
				c0-2.03,1.65-3.47,4.91-3.47c2.56,0,4.96,0.53,6.67,1.98l3.42-3.47c-2.51-2.19-5.98-3.03-10.04-3.03
				c-5.66,0-10.19,2.98-10.19,8.27c0,4.75,2.93,7.05,8.01,7.48l4.32,0.37c2.62,0.21,3.63,1.39,3.63,3.2c0,2.57-2.61,3.74-5.92,3.74
				c-2.67,0-5.61-0.59-7.79-2.83l-3.58,3.58c3.2,3.14,6.94,3.89,11.37,3.89C425.45,550.23,430.26,547.3,430.26,541.64
				 M403.41,541.64c0-4.8-2.99-7.21-8.06-7.64l-4.27-0.37c-2.88-0.27-3.74-1.49-3.74-3.1c0-2.03,1.66-3.47,4.91-3.47
				c2.56,0,4.97,0.53,6.68,1.98l3.42-3.47c-2.51-2.19-5.98-3.03-10.04-3.03c-5.66,0-10.2,2.98-10.2,8.27c0,4.75,2.94,7.05,8.01,7.48
				l4.33,0.37c2.61,0.21,3.63,1.39,3.63,3.2c0,2.57-2.62,3.74-5.93,3.74c-2.67,0-5.6-0.59-7.79-2.83l-3.57,3.58
				c3.2,3.14,6.94,3.89,11.37,3.89C398.6,550.23,403.41,547.3,403.41,541.64 M369.03,540.15c0,1.92-0.37,3.2-1.17,4.01
				c-1.44,1.39-2.99,1.55-5.07,1.55c-3.42,0-4.97-1.39-4.97-3.85c0-2.46,1.66-3.9,4.86-3.9h6.36V540.15z M374.47,549.91v-18.09
				c0-6.14-3.73-9.28-11.15-9.28c-4.48,0-7.15,0.9-9.71,3.89l3.57,3.37c1.49-1.92,2.94-2.62,5.93-2.62c4.22,0,5.93,1.66,5.93,5.07
				v1.93h-7.15c-6.19,0-9.34,3.25-9.34,7.79c0,2.3,0.75,4.38,2.14,5.82c1.65,1.65,3.89,2.45,7.25,2.45c3.37,0,5.24-0.8,7.21-2.77
				v2.45H374.47z M348.05,549.91v-4.64h-2.4c-2.19,0-2.93-1.07-2.93-3.15v-30.21h-5.44v30.53c0,4,2.24,7.47,7.41,7.47H348.05z
				 M332.04,549.91l-13.62-23.11l12.33-14.89h-7.05l-15.54,19.11v-19.11h-5.75v38h5.75v-11.05l6.41-7.69l10.68,18.73H332.04z"/>
		</g>
		<g style="clip-path:url(#SVGID_00000158709062955375285580000003040050971966923397_);">
			<path class="st3" d="M692.84,405.39c0,3.36-2.35,5.77-5.66,5.77c-3.31,0-5.61-2.4-5.61-5.77c0-3.32,2.3-5.82,5.61-5.82
				C690.49,399.57,692.84,402.07,692.84,405.39 M693.43,422.2c0,3.52-2.73,6.3-6.25,6.3c-3.52,0-6.25-2.78-6.25-6.3
				c0-3.52,2.73-6.36,6.25-6.36C690.7,415.85,693.43,418.68,693.43,422.2 M698.92,422.31c0-4.54-2.56-7.32-5.23-8.91
				c2.46-1.49,4.59-4.16,4.59-8.17c0-6.36-4.91-10.51-11.1-10.51c-6.2,0-11.05,4.16-11.05,10.51c0,4.01,2.14,6.68,4.59,8.17
				c-2.66,1.6-5.23,4.37-5.23,8.91c0,6.89,5.18,11.05,11.69,11.05C693.69,433.36,698.92,429.2,698.92,422.31 M658.99,408.22
				c-1.87-1.87-3.84-2.56-6.46-2.56c-3.05,0-5.82,1.33-7.21,3.25v-2.93h-5.33v27.06h5.43v-16.44c0-3.74,2.46-6.09,5.39-6.09
				c1.87,0,2.83,0.59,4.06,1.82L658.99,408.22z M625.63,423.27c0,1.92-0.37,3.2-1.17,4.01c-1.44,1.39-2.99,1.55-5.07,1.55
				c-3.42,0-4.97-1.39-4.97-3.85s1.66-3.9,4.86-3.9h6.36V423.27z M631.07,433.04v-18.09c0-6.14-3.73-9.28-11.15-9.28
				c-4.48,0-7.15,0.9-9.72,3.89l3.57,3.37c1.49-1.92,2.94-2.62,5.93-2.62c4.22,0,5.93,1.66,5.93,5.07v1.93h-7.16
				c-6.19,0-9.33,3.25-9.33,7.79c0,2.3,0.74,4.38,2.13,5.82c1.65,1.65,3.89,2.45,7.26,2.45c3.37,0,5.23-0.8,7.21-2.77v2.45H631.07z
				 M598.03,417.3h-12.17c0.05-1.66,0.16-2.46,0.69-3.69c0.85-2.03,2.83-3.42,5.39-3.42c2.56,0,4.48,1.39,5.34,3.42
				C597.82,414.83,597.98,415.64,598.03,417.3 M603.42,421.08v-2.4c0-7.69-4.21-13.02-11.47-13.02c-6.94,0-11.47,5.06-11.47,13.82
				c0,10.3,5.39,13.87,12.17,13.87c4.75,0,7.37-1.44,10.14-4.21l-3.47-3.26c-1.92,1.92-3.52,2.78-6.57,2.78
				c-4.43,0-6.88-2.94-6.88-7.59H603.42z M581,395.03h-6.3l-7.95,16.71l-7.95-16.71h-6.3l11.37,22.36v15.64h5.76V417.4L581,395.03z
				 M538.51,391.08h-5.23l-15.22,45.9h5.23L538.51,391.08z M495.6,405.39c0,3.36-2.35,5.77-5.66,5.77c-3.31,0-5.61-2.4-5.61-5.77
				c0-3.32,2.3-5.82,5.61-5.82C493.25,399.57,495.6,402.07,495.6,405.39 M496.19,422.2c0,3.52-2.73,6.3-6.25,6.3
				c-3.52,0-6.25-2.78-6.25-6.3c0-3.52,2.73-6.36,6.25-6.36C493.46,415.85,496.19,418.68,496.19,422.2 M501.68,422.31
				c0-4.54-2.56-7.32-5.22-8.91c2.45-1.49,4.59-4.16,4.59-8.17c0-6.36-4.91-10.51-11.1-10.51c-6.19,0-11.05,4.16-11.05,10.51
				c0,4.01,2.14,6.68,4.59,8.17c-2.66,1.6-5.23,4.37-5.23,8.91c0,6.89,5.18,11.05,11.69,11.05
				C496.46,433.36,501.68,429.2,501.68,422.31 M453.58,417.3h-12.17c0.06-1.66,0.16-2.46,0.7-3.69c0.85-2.03,2.83-3.42,5.39-3.42
				c2.56,0,4.48,1.39,5.34,3.42C453.37,414.83,453.53,415.64,453.58,417.3 M458.98,421.08v-2.4c0-7.69-4.22-13.02-11.48-13.02
				c-6.94,0-11.47,5.06-11.47,13.82c0,10.3,5.38,13.87,12.17,13.87c4.75,0,7.37-1.44,10.14-4.21l-3.47-3.26
				c-1.92,1.92-3.52,2.78-6.56,2.78c-4.43,0-6.89-2.94-6.89-7.59H458.98z M430.26,424.76c0-4.8-2.99-7.21-8.06-7.64l-4.27-0.37
				c-2.88-0.27-3.74-1.49-3.74-3.1c0-2.03,1.65-3.47,4.91-3.47c2.56,0,4.96,0.53,6.67,1.98l3.42-3.47
				c-2.51-2.19-5.98-3.03-10.04-3.03c-5.66,0-10.19,2.98-10.19,8.27c0,4.75,2.93,7.05,8.01,7.48l4.32,0.37
				c2.62,0.21,3.63,1.39,3.63,3.2c0,2.57-2.61,3.74-5.92,3.74c-2.67,0-5.61-0.59-7.79-2.83l-3.58,3.58
				c3.2,3.14,6.94,3.89,11.37,3.89C425.45,433.36,430.26,430.42,430.26,424.76 M403.41,424.76c0-4.8-2.99-7.21-8.06-7.64l-4.27-0.37
				c-2.88-0.27-3.74-1.49-3.74-3.1c0-2.03,1.66-3.47,4.91-3.47c2.56,0,4.97,0.53,6.68,1.98l3.42-3.47
				c-2.51-2.19-5.98-3.03-10.04-3.03c-5.66,0-10.2,2.98-10.2,8.27c0,4.75,2.94,7.05,8.01,7.48l4.33,0.37
				c2.61,0.21,3.63,1.39,3.63,3.2c0,2.57-2.62,3.74-5.93,3.74c-2.67,0-5.6-0.59-7.79-2.83l-3.57,3.58c3.2,3.14,6.94,3.89,11.37,3.89
				C398.6,433.36,403.41,430.42,403.41,424.76 M369.03,423.27c0,1.92-0.37,3.2-1.17,4.01c-1.44,1.39-2.99,1.55-5.07,1.55
				c-3.42,0-4.97-1.39-4.97-3.85s1.66-3.9,4.86-3.9h6.36V423.27z M374.47,433.04v-18.09c0-6.14-3.73-9.28-11.15-9.28
				c-4.48,0-7.15,0.9-9.71,3.89l3.57,3.37c1.49-1.92,2.94-2.62,5.93-2.62c4.22,0,5.93,1.66,5.93,5.07v1.93h-7.15
				c-6.19,0-9.34,3.25-9.34,7.79c0,2.3,0.75,4.38,2.14,5.82c1.65,1.65,3.89,2.45,7.25,2.45c3.37,0,5.24-0.8,7.21-2.77v2.45H374.47z
				 M348.05,433.04v-4.64h-2.4c-2.19,0-2.93-1.07-2.93-3.15v-30.21h-5.44v30.53c0,4,2.24,7.47,7.41,7.47H348.05z M332.04,433.04
				l-13.62-23.11l12.33-14.89h-7.05l-15.54,19.11v-19.11h-5.75v38h5.75v-11.05l6.41-7.69l10.68,18.73H332.04z"/>
		</g>
		<g style="clip-path:url(#SVGID_00000158709062955375285580000003040050971966923397_);">
			<path class="st3" d="M693,289.31c0,4.11-2.4,6.57-5.82,6.57c-3.63,0-5.77-2.83-5.77-6.57c0-4.06,2.35-6.62,5.77-6.62
				C690.59,282.69,693,285.25,693,289.31 M698.44,289.2c0-7.05-4.69-11.37-11.26-11.37c-6.57,0-11.21,4.59-11.21,11.58
				c0,6.68,4.43,11,9.93,11c1.17,0,2.4-0.16,3.42-0.59l-8.17,16.33h5.82l8.65-17.62C697.26,295.24,698.44,292.3,698.44,289.2
				 M658.99,291.34c-1.87-1.87-3.84-2.56-6.46-2.56c-3.05,0-5.82,1.33-7.21,3.25v-2.93h-5.33v27.06h5.43v-16.44
				c0-3.74,2.46-6.09,5.39-6.09c1.87,0,2.83,0.59,4.06,1.81L658.99,291.34z M625.63,306.39c0,1.92-0.37,3.2-1.17,4.01
				c-1.44,1.39-2.99,1.55-5.07,1.55c-3.42,0-4.97-1.39-4.97-3.85c0-2.46,1.66-3.9,4.86-3.9h6.36V306.39z M631.07,316.16v-18.09
				c0-6.14-3.73-9.28-11.15-9.28c-4.48,0-7.15,0.9-9.72,3.89l3.57,3.37c1.49-1.92,2.94-2.62,5.93-2.62c4.22,0,5.93,1.66,5.93,5.07
				v1.93h-7.16c-6.19,0-9.33,3.25-9.33,7.79c0,2.3,0.74,4.38,2.13,5.82c1.65,1.65,3.89,2.45,7.26,2.45c3.37,0,5.23-0.8,7.21-2.77
				v2.45H631.07z M598.03,300.42h-12.17c0.05-1.66,0.16-2.46,0.69-3.69c0.85-2.03,2.83-3.42,5.39-3.42c2.56,0,4.48,1.39,5.34,3.42
				C597.82,297.96,597.98,298.76,598.03,300.42 M603.42,304.2v-2.4c0-7.69-4.21-13.02-11.47-13.02c-6.94,0-11.47,5.06-11.47,13.82
				c0,10.3,5.39,13.87,12.17,13.87c4.75,0,7.37-1.44,10.14-4.21l-3.47-3.26c-1.92,1.92-3.52,2.78-6.57,2.78
				c-4.43,0-6.88-2.94-6.88-7.59H603.42z M581,278.16h-6.3l-7.95,16.71l-7.95-16.71h-6.3l11.37,22.36v15.64h5.76v-15.64L581,278.16z
				 M538.51,274.21h-5.23l-15.22,45.9h5.23L538.51,274.21z M495.76,289.31c0,4.11-2.4,6.57-5.82,6.57c-3.63,0-5.77-2.83-5.77-6.57
				c0-4.06,2.35-6.62,5.77-6.62S495.76,285.25,495.76,289.31 M501.2,289.2c0-7.05-4.69-11.37-11.26-11.37s-11.2,4.59-11.2,11.58
				c0,6.68,4.42,11,9.92,11c1.17,0,2.4-0.16,3.42-0.59l-8.17,16.33h5.82l8.65-17.62C500.02,295.24,501.2,292.3,501.2,289.2
				 M453.58,300.42h-12.17c0.06-1.66,0.16-2.46,0.7-3.69c0.85-2.03,2.83-3.42,5.39-3.42c2.56,0,4.48,1.39,5.34,3.42
				C453.37,297.96,453.53,298.76,453.58,300.42 M458.98,304.2v-2.4c0-7.69-4.22-13.02-11.48-13.02c-6.94,0-11.47,5.06-11.47,13.82
				c0,10.3,5.38,13.87,12.17,13.87c4.75,0,7.37-1.44,10.14-4.21l-3.47-3.26c-1.92,1.92-3.52,2.78-6.56,2.78
				c-4.43,0-6.89-2.94-6.89-7.59H458.98z M430.26,307.89c0-4.8-2.99-7.21-8.06-7.64l-4.27-0.37c-2.88-0.27-3.74-1.49-3.74-3.1
				c0-2.03,1.65-3.47,4.91-3.47c2.56,0,4.96,0.53,6.67,1.98l3.42-3.47c-2.51-2.19-5.98-3.03-10.04-3.03
				c-5.66,0-10.19,2.98-10.19,8.27c0,4.75,2.93,7.05,8.01,7.48l4.32,0.37c2.62,0.21,3.63,1.39,3.63,3.2c0,2.57-2.61,3.74-5.92,3.74
				c-2.67,0-5.61-0.59-7.79-2.83l-3.58,3.58c3.2,3.14,6.94,3.89,11.37,3.89C425.45,316.48,430.26,313.55,430.26,307.89
				 M403.41,307.89c0-4.8-2.99-7.21-8.06-7.64l-4.27-0.37c-2.88-0.27-3.74-1.49-3.74-3.1c0-2.03,1.66-3.47,4.91-3.47
				c2.56,0,4.97,0.53,6.68,1.98l3.42-3.47c-2.51-2.19-5.98-3.03-10.04-3.03c-5.66,0-10.2,2.98-10.2,8.27c0,4.75,2.94,7.05,8.01,7.48
				l4.33,0.37c2.61,0.21,3.63,1.39,3.63,3.2c0,2.57-2.62,3.74-5.93,3.74c-2.67,0-5.6-0.59-7.79-2.83l-3.57,3.58
				c3.2,3.14,6.94,3.89,11.37,3.89C398.6,316.48,403.41,313.55,403.41,307.89 M369.03,306.39c0,1.92-0.37,3.2-1.17,4.01
				c-1.44,1.39-2.99,1.55-5.07,1.55c-3.42,0-4.97-1.39-4.97-3.85c0-2.46,1.66-3.9,4.86-3.9h6.36V306.39z M374.47,316.16v-18.09
				c0-6.14-3.73-9.28-11.15-9.28c-4.48,0-7.15,0.9-9.71,3.89l3.57,3.37c1.49-1.92,2.94-2.62,5.93-2.62c4.22,0,5.93,1.66,5.93,5.07
				v1.93h-7.15c-6.19,0-9.34,3.25-9.34,7.79c0,2.3,0.75,4.38,2.14,5.82c1.65,1.65,3.89,2.45,7.25,2.45c3.37,0,5.24-0.8,7.21-2.77
				v2.45H374.47z M348.05,316.16v-4.64h-2.4c-2.19,0-2.93-1.07-2.93-3.15v-30.21h-5.44v30.53c0,4,2.24,7.47,7.41,7.47H348.05z
				 M332.04,316.16l-13.62-23.11l12.33-14.89h-7.05l-15.54,19.11v-19.11h-5.75v38h5.75v-11.05l6.41-7.69l10.68,18.73H332.04z"/>
		</g>
		<g style="clip-path:url(#SVGID_00000158709062955375285580000003040050971966923397_);">
			<path class="st3" d="M721.72,188.55c0,3.69-2.08,6.2-5.55,6.2c-3.47,0-5.5-2.51-5.5-6.2v-16.55c0-3.69,2.03-6.19,5.5-6.19
				c3.47,0,5.55,2.51,5.55,6.19V188.55z M727.16,188.72v-16.87c0-6.78-4.96-10.88-10.99-10.88s-10.94,4.11-10.94,10.88v16.87
				c0,6.78,4.91,10.88,10.94,10.88S727.16,195.5,727.16,188.72 M691.92,199.28v-38h-5.44l-7.42,6.41v6.03l7.42-6.51v32.07H691.92z
				 M658.99,174.46c-1.87-1.87-3.84-2.56-6.46-2.56c-3.04,0-5.82,1.33-7.2,3.25v-2.93h-5.33v27.06h5.44v-16.44
				c0-3.74,2.46-6.09,5.39-6.09c1.87,0,2.83,0.59,4.06,1.82L658.99,174.46z M625.64,189.52c0,1.92-0.38,3.2-1.18,4.01
				c-1.44,1.39-2.99,1.55-5.07,1.55c-3.42,0-4.97-1.39-4.97-3.85c0-2.46,1.66-3.9,4.86-3.9h6.36V189.52z M631.07,199.28v-18.09
				c0-6.14-3.73-9.28-11.15-9.28c-4.48,0-7.15,0.9-9.71,3.89l3.57,3.37c1.49-1.92,2.93-2.62,5.92-2.62c4.22,0,5.93,1.66,5.93,5.07
				v1.93h-7.16c-6.19,0-9.34,3.25-9.34,7.79c0,2.3,0.75,4.38,2.14,5.82c1.65,1.65,3.89,2.45,7.25,2.45c3.37,0,5.24-0.8,7.21-2.77
				v2.45H631.07z M598.03,183.54h-12.17c0.06-1.66,0.16-2.46,0.7-3.69c0.85-2.03,2.83-3.42,5.39-3.42s4.48,1.39,5.34,3.42
				C597.82,181.08,597.98,181.88,598.03,183.54 M603.42,187.32v-2.4c0-7.69-4.22-13.02-11.48-13.02c-6.94,0-11.47,5.06-11.47,13.82
				c0,10.3,5.38,13.87,12.16,13.87c4.75,0,7.37-1.44,10.15-4.21l-3.47-3.26c-1.92,1.92-3.52,2.78-6.56,2.78
				c-4.43,0-6.89-2.94-6.89-7.59H603.42z M581,161.28h-6.3l-7.95,16.71l-7.95-16.71h-6.3l11.37,22.36v15.64h5.76v-15.64L581,161.28z
				 M538.51,157.33h-5.23l-15.21,45.9h5.23L538.51,157.33z M495.49,188.55c0,3.69-2.08,6.2-5.56,6.2c-3.47,0-5.5-2.51-5.5-6.2
				v-16.55c0-3.69,2.03-6.19,5.5-6.19c3.47,0,5.56,2.51,5.56,6.19V188.55z M500.93,188.72v-16.87c0-6.78-4.96-10.88-11-10.88
				c-6.03,0-10.93,4.11-10.93,10.88v16.87c0,6.78,4.9,10.88,10.93,10.88C495.97,199.6,500.93,195.5,500.93,188.72 M465.7,199.28v-38
				h-5.44l-7.42,6.41v6.03l7.42-6.51v32.07H465.7z M424.6,183.54h-12.17c0.06-1.66,0.16-2.46,0.7-3.69
				c0.85-2.03,2.83-3.42,5.39-3.42s4.48,1.39,5.34,3.42C424.38,181.08,424.55,181.88,424.6,183.54 M429.99,187.32v-2.4
				c0-7.69-4.22-13.02-11.48-13.02c-6.94,0-11.47,5.06-11.47,13.82c0,10.3,5.38,13.87,12.17,13.87c4.75,0,7.37-1.44,10.14-4.21
				l-3.47-3.26c-1.92,1.92-3.52,2.78-6.56,2.78c-4.43,0-6.89-2.94-6.89-7.59H429.99z M401.27,191.01c0-4.8-2.99-7.21-8.06-7.64
				l-4.27-0.37c-2.88-0.27-3.74-1.49-3.74-3.1c0-2.03,1.65-3.47,4.91-3.47c2.56,0,4.96,0.53,6.67,1.98l3.42-3.47
				c-2.51-2.19-5.98-3.03-10.04-3.03c-5.66,0-10.19,2.98-10.19,8.27c0,4.75,2.93,7.05,8.01,7.48l4.32,0.37
				c2.62,0.21,3.63,1.39,3.63,3.2c0,2.57-2.61,3.74-5.92,3.74c-2.67,0-5.61-0.59-7.79-2.83l-3.58,3.58
				c3.2,3.14,6.94,3.89,11.37,3.89C396.47,199.6,401.27,196.67,401.27,191.01 M374.42,191.01c0-4.8-2.99-7.21-8.06-7.64l-4.27-0.37
				c-2.88-0.27-3.74-1.49-3.74-3.1c0-2.03,1.66-3.47,4.91-3.47c2.56,0,4.97,0.53,6.68,1.98l3.42-3.47
				c-2.51-2.19-5.98-3.03-10.04-3.03c-5.66,0-10.2,2.98-10.2,8.27c0,4.75,2.94,7.05,8.01,7.48l4.33,0.37
				c2.61,0.21,3.63,1.39,3.63,3.2c0,2.57-2.62,3.74-5.93,3.74c-2.67,0-5.6-0.59-7.79-2.83l-3.57,3.58c3.2,3.14,6.94,3.89,11.37,3.89
				C369.62,199.6,374.42,196.67,374.42,191.01 M340.05,189.52c0,1.92-0.37,3.2-1.17,4.01c-1.44,1.39-2.99,1.55-5.07,1.55
				c-3.42,0-4.97-1.39-4.97-3.85c0-2.46,1.66-3.9,4.86-3.9h6.36V189.52z M345.49,199.28v-18.09c0-6.14-3.73-9.28-11.15-9.28
				c-4.48,0-7.15,0.9-9.71,3.89l3.57,3.37c1.49-1.92,2.94-2.62,5.93-2.62c4.22,0,5.93,1.66,5.93,5.07v1.93h-7.15
				c-6.19,0-9.34,3.25-9.34,7.79c0,2.3,0.75,4.38,2.14,5.82c1.65,1.65,3.89,2.45,7.25,2.45c3.37,0,5.24-0.8,7.21-2.77v2.45H345.49z
				 M319.06,199.28v-4.64h-2.4c-2.19,0-2.93-1.07-2.93-3.15v-30.21h-5.44v30.53c0,4,2.24,7.47,7.41,7.47H319.06z M303.05,199.28
				l-13.62-23.11l12.33-14.89h-7.05l-15.54,19.11v-19.11h-5.75v38h5.75v-11.05l6.41-7.69l10.68,18.73H303.05z"/>
		</g>
		<g style="clip-path:url(#SVGID_00000158709062955375285580000003040050971966923397_);">
			<path class="st3" d="M698.55,770.97c0-3.58-0.43-7.27-3.3-10.14c-1.55-1.55-3.84-2.46-6.84-2.46c-2.78,0-5.02,0.85-6.3,2.19
				v-10.04h15.59v-4.85H677.2v20.76h4.96c0.59-1.87,2.3-3.42,5.39-3.42c4.38,0,5.56,3.42,5.56,7.96c0,2.56-0.21,5.07-1.81,6.68
				c-0.96,0.96-2.35,1.49-3.96,1.49c-3.42,0-5.12-1.92-5.55-5.29h-5.44c0.21,2.72,0.85,5.23,2.88,7.26
				c1.65,1.65,4.48,2.93,8.11,2.93c3.69,0,6.3-1.28,8.01-2.98C698.12,778.28,698.55,775.02,698.55,770.97 M658.99,758.85
				c-1.87-1.87-3.84-2.56-6.46-2.56c-3.05,0-5.82,1.33-7.21,3.25v-2.93h-5.33v27.06h5.43v-16.44c0-3.74,2.46-6.09,5.39-6.09
				c1.87,0,2.83,0.58,4.06,1.81L658.99,758.85z M625.63,773.9c0,1.92-0.37,3.2-1.17,4.01c-1.44,1.39-2.99,1.55-5.07,1.55
				c-3.42,0-4.97-1.39-4.97-3.85c0-2.46,1.66-3.9,4.86-3.9h6.36V773.9z M631.07,783.67v-18.09c0-6.14-3.73-9.28-11.15-9.28
				c-4.48,0-7.15,0.9-9.72,3.89l3.57,3.37c1.49-1.92,2.94-2.62,5.93-2.62c4.22,0,5.93,1.66,5.93,5.07v1.93h-7.16
				c-6.19,0-9.33,3.25-9.33,7.79c0,2.3,0.74,4.38,2.13,5.82c1.65,1.65,3.89,2.45,7.26,2.45c3.37,0,5.23-0.8,7.21-2.77v2.45H631.07z
				 M598.03,767.93h-12.17c0.05-1.66,0.16-2.46,0.69-3.69c0.85-2.03,2.83-3.42,5.39-3.42c2.56,0,4.48,1.39,5.34,3.42
				C597.82,765.47,597.98,766.27,598.03,767.93 M603.42,771.71v-2.4c0-7.69-4.21-13.02-11.47-13.02c-6.94,0-11.47,5.06-11.47,13.82
				c0,10.31,5.39,13.88,12.17,13.88c4.75,0,7.37-1.44,10.14-4.21l-3.47-3.26c-1.92,1.92-3.52,2.78-6.57,2.78
				c-4.43,0-6.88-2.94-6.88-7.59H603.42z M581,745.66h-6.3l-7.95,16.71l-7.95-16.71h-6.3l11.37,22.36v15.64h5.76v-15.64L581,745.66z
				 M538.51,741.71h-5.23l-15.22,45.9h5.23L538.51,741.71z M501.3,770.97c0-3.58-0.43-7.27-3.3-10.14
				c-1.55-1.55-3.84-2.46-6.83-2.46c-2.78,0-5.02,0.85-6.3,2.19v-10.04h15.59v-4.85h-20.49v20.76h4.96c0.59-1.87,2.3-3.42,5.4-3.42
				c4.38,0,5.55,3.42,5.55,7.96c0,2.56-0.21,5.07-1.81,6.68c-0.96,0.96-2.35,1.49-3.95,1.49c-3.42,0-5.13-1.92-5.56-5.29h-5.44
				c0.21,2.72,0.85,5.23,2.88,7.26c1.65,1.65,4.48,2.93,8.11,2.93c3.68,0,6.3-1.28,8.01-2.98
				C500.88,778.28,501.3,775.02,501.3,770.97 M453.58,767.93h-12.17c0.06-1.66,0.16-2.46,0.7-3.69c0.85-2.03,2.83-3.42,5.39-3.42
				c2.56,0,4.48,1.39,5.34,3.42C453.37,765.47,453.53,766.27,453.58,767.93 M458.98,771.71v-2.4c0-7.69-4.22-13.02-11.48-13.02
				c-6.94,0-11.47,5.06-11.47,13.82c0,10.31,5.38,13.88,12.17,13.88c4.75,0,7.37-1.44,10.14-4.21l-3.47-3.26
				c-1.92,1.92-3.52,2.78-6.56,2.78c-4.43,0-6.89-2.94-6.89-7.59H458.98z M430.26,775.39c0-4.8-2.99-7.21-8.06-7.64l-4.27-0.37
				c-2.88-0.27-3.74-1.49-3.74-3.1c0-2.03,1.65-3.47,4.91-3.47c2.56,0,4.96,0.53,6.67,1.98l3.42-3.47
				c-2.51-2.19-5.98-3.03-10.04-3.03c-5.66,0-10.19,2.98-10.19,8.27c0,4.75,2.93,7.05,8.01,7.48l4.32,0.37
				c2.62,0.21,3.63,1.39,3.63,3.2c0,2.57-2.61,3.74-5.92,3.74c-2.67,0-5.61-0.59-7.79-2.83l-3.58,3.57
				c3.2,3.15,6.94,3.89,11.37,3.89C425.45,783.99,430.26,781.05,430.26,775.39 M403.41,775.39c0-4.8-2.99-7.21-8.06-7.64l-4.27-0.37
				c-2.88-0.27-3.74-1.49-3.74-3.1c0-2.03,1.66-3.47,4.91-3.47c2.56,0,4.97,0.53,6.68,1.98l3.42-3.47
				c-2.51-2.19-5.98-3.03-10.04-3.03c-5.66,0-10.2,2.98-10.2,8.27c0,4.75,2.94,7.05,8.01,7.48l4.33,0.37
				c2.61,0.21,3.63,1.39,3.63,3.2c0,2.57-2.62,3.74-5.93,3.74c-2.67,0-5.6-0.59-7.79-2.83l-3.57,3.57c3.2,3.15,6.94,3.89,11.37,3.89
				C398.6,783.99,403.41,781.05,403.41,775.39 M369.03,773.9c0,1.92-0.37,3.2-1.17,4.01c-1.44,1.39-2.99,1.55-5.07,1.55
				c-3.42,0-4.97-1.39-4.97-3.85c0-2.46,1.66-3.9,4.86-3.9h6.36V773.9z M374.47,783.67v-18.09c0-6.14-3.73-9.28-11.15-9.28
				c-4.48,0-7.15,0.9-9.71,3.89l3.57,3.37c1.49-1.92,2.94-2.62,5.93-2.62c4.22,0,5.93,1.66,5.93,5.07v1.93h-7.15
				c-6.19,0-9.34,3.25-9.34,7.79c0,2.3,0.75,4.38,2.14,5.82c1.65,1.65,3.89,2.45,7.25,2.45c3.37,0,5.24-0.8,7.21-2.77v2.45H374.47z
				 M348.05,783.67v-4.64h-2.4c-2.19,0-2.93-1.07-2.93-3.15v-30.21h-5.44v30.53c0,4,2.24,7.47,7.41,7.47H348.05z M332.04,783.67
				l-13.62-23.11l12.33-14.89h-7.05l-15.54,19.11v-19.11h-5.75v38h5.75v-11.05l6.41-7.69l10.68,18.73H332.04z"/>
		</g>
	</g>
	<g>
		<polygon class="st4" points="20.73,755.85 36.8,755.85 28.77,745.23 		"/>
	</g>
	<g>
		<polygon class="st4" points="20.73,776.99 36.8,776.99 28.77,766.36 		"/>
	</g>
	<g>
		<polygon class="st4" points="20.73,798.12 36.8,798.12 28.77,787.5 		"/>
	</g>
	<g>
		<polygon class="st4" points="20.73,734.72 36.8,734.72 28.77,724.09 		"/>
	</g>
	<g>
		<polygon class="st4" points="20.73,640.38 36.8,640.38 28.77,629.75 		"/>
	</g>
	<g>
		<polygon class="st4" points="20.73,661.51 36.8,661.51 28.77,650.89 		"/>
	</g>
	<g>
		<polygon class="st4" points="20.73,682.65 36.8,682.65 28.77,672.02 		"/>
	</g>
	<g>
		<polygon class="st4" points="20.73,619.24 36.8,619.24 28.77,608.62 		"/>
	</g>
	<g>
		<polygon class="st4" points="20.73,520.69 36.8,520.69 28.77,510.07 		"/>
	</g>
	<g>
		<polygon class="st4" points="20.73,541.83 36.8,541.83 28.77,531.2 		"/>
	</g>
	<g>
		<polygon class="st4" points="20.73,562.96 36.8,562.96 28.77,552.34 		"/>
	</g>
	<g>
		<polygon class="st4" points="20.73,499.56 36.8,499.56 28.77,488.93 		"/>
	</g>
	<g>
		<polygon class="st4" points="20.73,402.41 36.8,402.41 28.77,391.78 		"/>
	</g>
	<g>
		<polygon class="st4" points="20.73,423.54 36.8,423.54 28.77,412.92 		"/>
	</g>
	<g>
		<polygon class="st4" points="20.73,444.68 36.8,444.68 28.77,434.05 		"/>
	</g>
	<g>
		<polygon class="st4" points="20.73,381.27 36.8,381.27 28.77,370.65 		"/>
	</g>
	<g>
		<polygon class="st4" points="20.73,286.94 36.8,286.94 28.77,276.31 		"/>
	</g>
	<g>
		<polygon class="st4" points="20.73,308.07 36.8,308.07 28.77,297.45 		"/>
	</g>
	<g>
		<polygon class="st4" points="20.73,329.21 36.8,329.21 28.77,318.58 		"/>
	</g>
	<g>
		<polygon class="st4" points="20.73,265.8 36.8,265.8 28.77,255.18 		"/>
	</g>
	<g>
		<polygon class="st4" points="20.73,170.06 36.8,170.06 28.77,159.44 		"/>
	</g>
	<g>
		<polygon class="st4" points="20.73,191.2 36.8,191.2 28.77,180.57 		"/>
	</g>
	<g>
		<polygon class="st4" points="20.73,212.33 36.8,212.33 28.77,201.71 		"/>
	</g>
	<g>
		<polygon class="st4" points="20.73,148.93 36.8,148.93 28.77,138.3 		"/>
	</g>
</g>
</svg>
