<?xml version="1.0" encoding="utf-8"?>
<!-- Generator: Adobe Illustrator 26.2.1, SVG Export Plug-In . SVG Version: 6.00 Build 0)  -->
<svg version="1.1" id="Ebene_1" xmlns="http://www.w3.org/2000/svg" xmlns:xlink="http://www.w3.org/1999/xlink" x="0px" y="0px"
	 viewBox="0 0 1000 702.95" style="enable-background:new 0 0 1000 702.95;" xml:space="preserve">
<style type="text/css">
	.st0{fill:#A2B9E1;}
	.st1{fill:#6796CF;}
	.st2{clip-path:url(#SVGID_00000005947464409753180290000012516256758622722726_);}
	.st3{fill:#2B2961;}
	.st4{fill:#FFFFFF;}
	.st5{clip-path:url(#SVGID_00000155105613308112280840000003023610047369960368_);}
	.st6{clip-path:url(#SVGID_00000151503360262724002340000013857633532887134382_);}
	.st7{clip-path:url(#SVGID_00000157309254038848839270000004426026963446941346_);}
	.st8{clip-path:url(#SVGID_00000004508982047940107980000010266256251889317818_);}
	.st9{clip-path:url(#SVGID_00000099663701422581929450000005522593516000839350_);}
	.st10{opacity:0.52;clip-path:url(#SVGID_00000057867104851846091270000008363129298081628315_);}
	.st11{clip-path:url(#SVGID_00000095324866056060596880000017469587368066142596_);}
	.st12{clip-path:url(#SVGID_00000115509354882729126410000009700787121690977953_);}
	.st13{clip-path:url(#SVGID_00000088094956355656061440000000430246317466635416_);}
	.st14{clip-path:url(#SVGID_00000049207309266860677290000009607901919528309401_);}
	.st15{clip-path:url(#SVGID_00000140715572970975722530000012012252281319015325_);}
	.st16{clip-path:url(#SVGID_00000136404250835086959720000014620438587982603680_);}
	.st17{clip-path:url(#SVGID_00000061462545251176013710000001162649251779378100_);}
	.st18{clip-path:url(#SVGID_00000102520485587875190990000002967617297528889246_);}
	.st19{clip-path:url(#SVGID_00000042013315331027083070000004797032267848709048_);}
	.st20{clip-path:url(#SVGID_00000173140511086688027960000014223187735866440633_);}
	.st21{clip-path:url(#SVGID_00000052819781280968038350000005195845341030738816_);}
	.st22{clip-path:url(#SVGID_00000029765649156246964230000001106664371808966322_);}
	.st23{fill:none;stroke:#2B2961;stroke-width:0.374;stroke-linejoin:round;stroke-miterlimit:10;}
	.st24{fill:none;stroke:#2B2961;stroke-width:0.4;stroke-miterlimit:10;}
	.st25{clip-path:url(#SVGID_00000048477188356044685060000016163246806288255138_);}
	.st26{clip-path:url(#SVGID_00000009571540938184815820000012254995162887018379_);}
	.st27{clip-path:url(#SVGID_00000037665688777701944660000017551035527865035915_);}
	.st28{clip-path:url(#SVGID_00000019672489819172911910000006215601060188162990_);}
	.st29{clip-path:url(#SVGID_00000005249056126561887780000014093830526287962534_);}
	.st30{clip-path:url(#SVGID_00000179642364461624460220000001060617834501197185_);}
	.st31{clip-path:url(#SVGID_00000132773090100395811320000012488221777432477112_);}
	.st32{clip-path:url(#SVGID_00000098902197558440914090000015662592617611487384_);}
	.st33{clip-path:url(#SVGID_00000061446939994531314960000010668079319995123086_);}
	.st34{clip-path:url(#SVGID_00000000191134075281725370000017805308520601749120_);}
	.st35{clip-path:url(#SVGID_00000005951911113317857880000012780019702743720352_);}
	.st36{clip-path:url(#SVGID_00000117664535821225238410000016829035903688102554_);}
	.st37{clip-path:url(#SVGID_00000051354736265516771770000016908165421138001848_);}
	.st38{clip-path:url(#SVGID_00000038392689823701679260000001626828838429828017_);}
	.st39{clip-path:url(#SVGID_00000019637614602965935950000008062635130809867409_);}
	.st40{clip-path:url(#SVGID_00000108992148979340004510000013060211915986767001_);}
	.st41{clip-path:url(#SVGID_00000088098928978142787680000010788160536526255760_);}
	.st42{clip-path:url(#SVGID_00000006681784191340323050000016237320502648198825_);}
	.st43{clip-path:url(#SVGID_00000015341127551578968690000006174635604781668739_);}
	.st44{clip-path:url(#SVGID_00000102543878266129114290000003514295235568478851_);}
	.st45{clip-path:url(#SVGID_00000024679753713279987670000013619781753267824555_);}
	.st46{clip-path:url(#SVGID_00000093858406338688866890000004486450139221232263_);}
	.st47{clip-path:url(#SVGID_00000137853240169576188440000003616745872431864704_);}
	.st48{clip-path:url(#SVGID_00000113342851456147784560000005807188150471196595_);}
	.st49{clip-path:url(#SVGID_00000169555493771386832400000016783501347962901891_);}
	.st50{clip-path:url(#SVGID_00000133521516107844011870000018062641879077710760_);}
	.st51{clip-path:url(#SVGID_00000020367647475196337430000017385857083451262086_);}
	.st52{clip-path:url(#SVGID_00000022549944888305592020000009782312643573597876_);}
	.st53{clip-path:url(#SVGID_00000152947548334079883840000003640592897551473069_);}
	.st54{clip-path:url(#SVGID_00000144324521412787115910000014719012272786981253_);}
	.st55{clip-path:url(#SVGID_00000086682740229810566720000006244996627232446100_);}
	.st56{clip-path:url(#SVGID_00000043449260754660243890000011813089393407019396_);}
	.st57{clip-path:url(#SVGID_00000093876737773100934520000012011903600535794839_);}
	.st58{clip-path:url(#SVGID_00000008855522743268061770000000959040389908447387_);}
	.st59{clip-path:url(#SVGID_00000121245144722243065980000016954362159478399928_);}
	.st60{clip-path:url(#SVGID_00000139989096542929028260000009546593015217138832_);}
	.st61{clip-path:url(#SVGID_00000170280885677746171630000008862708224180082603_);}
	.st62{fill:#9AB4DE;}
	.st63{clip-path:url(#SVGID_00000072258711655206652940000010627817460415193996_);}
	.st64{clip-path:url(#SVGID_00000068663544430991903850000007705711075426252696_);}
	.st65{clip-path:url(#SVGID_00000183965698342578388730000010153770608077996721_);}
	.st66{fill:#B9C9E9;}
	.st67{clip-path:url(#SVGID_00000120549044740364407310000005399517377568190862_);}
	.st68{clip-path:url(#SVGID_00000116229192546297342540000001408205021865988527_);}
	.st69{clip-path:url(#SVGID_00000092427617075705491420000012930104381242175633_);}
	.st70{clip-path:url(#SVGID_00000024722907375827184050000008625347980707935408_);}
	.st71{clip-path:url(#SVGID_00000035491209913870059020000006301380002996367247_);}
	.st72{clip-path:url(#SVGID_00000087379354417959375450000006062528217805209001_);}
	.st73{clip-path:url(#SVGID_00000073693844566163342650000013168118252241263761_);}
	.st74{clip-path:url(#SVGID_00000123436375992854948280000002437406875121405059_);}
	.st75{clip-path:url(#SVGID_00000088111747228573514850000004008384003626568120_);}
	.st76{clip-path:url(#SVGID_00000145053434295070699330000017737240256649543347_);}
	.st77{clip-path:url(#SVGID_00000096031884407529724660000018119147669757560476_);}
	.st78{clip-path:url(#SVGID_00000030476372718875981040000005657675877502663820_);}
	.st79{clip-path:url(#SVGID_00000075867511307271081140000006147353312699684517_);}
	.st80{clip-path:url(#SVGID_00000048481587164962021360000014050877291230175639_);}
	.st81{clip-path:url(#SVGID_00000040532840843022347620000011097228293740742581_);}
	.st82{clip-path:url(#SVGID_00000172428872720834452800000013100309735274440362_);}
	.st83{clip-path:url(#SVGID_00000089573563097913549670000002302031041253128069_);}
	.st84{clip-path:url(#SVGID_00000034089006576711080470000016390716908469978795_);}
	.st85{clip-path:url(#SVGID_00000173881755541902338760000012602237565310240701_);}
	.st86{clip-path:url(#SVGID_00000066483236282897989380000010047504058350754980_);}
	.st87{clip-path:url(#SVGID_00000175322377575972532970000011824736599669953708_);}
	.st88{clip-path:url(#SVGID_00000094603929942914503720000014153964293670745271_);}
	.st89{clip-path:url(#SVGID_00000147183580573080222920000014065914035501368194_);}
	.st90{clip-path:url(#SVGID_00000039096804532294950580000017897295753478952358_);}
	.st91{clip-path:url(#SVGID_00000144313268146041527180000009948766958899902338_);}
	.st92{clip-path:url(#SVGID_00000174571121574610523530000007542372746550627242_);}
	.st93{clip-path:url(#SVGID_00000054258275961338814520000009499171295028033416_);}
	.st94{clip-path:url(#SVGID_00000086656031258995389930000002919406923484938394_);}
	.st95{clip-path:url(#SVGID_00000138560220146675086640000017626628559506645634_);}
	.st96{clip-path:url(#SVGID_00000043436065508258083750000004034735147953109905_);}
	.st97{clip-path:url(#SVGID_00000154395504229560523990000000401109453360490153_);}
	.st98{clip-path:url(#SVGID_00000111192504866487778690000004145022564130635702_);}
	.st99{clip-path:url(#SVGID_00000091701095213673059540000008094168536044608185_);}
	.st100{clip-path:url(#SVGID_00000109007183423062356480000001303442062947530654_);}
	.st101{clip-path:url(#SVGID_00000120526050358588970910000010762827084201032359_);}
	.st102{clip-path:url(#SVGID_00000080898174415881540730000007886227227710519970_);}
	.st103{clip-path:url(#SVGID_00000060736161281879413910000004829440330738055856_);}
	.st104{clip-path:url(#SVGID_00000114060860357049792390000004590606911118295200_);}
	.st105{clip-path:url(#SVGID_00000183937556146314096670000016221698784957937554_);}
	.st106{clip-path:url(#SVGID_00000081633668329134842790000017460880083651473325_);}
	.st107{clip-path:url(#SVGID_00000030481979975645063930000001622987520775558305_);}
	.st108{clip-path:url(#SVGID_00000047019266669811122150000008479721673474755497_);}
	.st109{clip-path:url(#SVGID_00000038383638152287021950000017909845623603760276_);}
	.st110{clip-path:url(#SVGID_00000081640514478615128540000007956600799229159345_);}
	.st111{clip-path:url(#SVGID_00000124155036837349881180000006684477500863156097_);}
	.st112{clip-path:url(#SVGID_00000082367096524118791520000006626512685974186894_);}
	.st113{clip-path:url(#SVGID_00000113334067221217414320000013318524495240808117_);}
	.st114{clip-path:url(#SVGID_00000029761945621767106160000015359092361034847149_);}
	.st115{clip-path:url(#SVGID_00000008139894916198917400000012443365138713356473_);}
	.st116{clip-path:url(#SVGID_00000127019373985989082940000013239699177529557145_);}
	.st117{clip-path:url(#SVGID_00000088096062227289390390000014753016005680294304_);}
	.st118{clip-path:url(#SVGID_00000100379960156936995160000011892271500782996645_);}
	.st119{clip-path:url(#SVGID_00000078022848234686083250000014090585432020072893_);}
	.st120{clip-path:url(#SVGID_00000108295145143597633430000018236924003748970167_);}
	.st121{clip-path:url(#SVGID_00000016047953026765575730000010948570910997732278_);}
	.st122{clip-path:url(#SVGID_00000004528520995078925250000013126920796084857018_);}
	.st123{clip-path:url(#SVGID_00000057833030049379910750000015195558216406712995_);}
	.st124{clip-path:url(#SVGID_00000042707530741436878570000013910105078600958649_);}
	.st125{clip-path:url(#SVGID_00000086655952745069297890000014511606651281461159_);}
	.st126{clip-path:url(#SVGID_00000063597153650019204120000003558975500933169564_);}
	.st127{clip-path:url(#SVGID_00000007406806723005092230000012110472418498972572_);}
	.st128{clip-path:url(#SVGID_00000182496992184354194350000012981627267953682578_);}
	.st129{clip-path:url(#SVGID_00000163790608245132950650000008091311961149493670_);}
	.st130{clip-path:url(#SVGID_00000002378120023933302920000018307018663009366432_);}
	.st131{clip-path:url(#SVGID_00000033356466335868224670000009635684142486564758_);}
	.st132{clip-path:url(#SVGID_00000129893711445761941270000017388506260337620361_);}
	.st133{clip-path:url(#SVGID_00000158728317353458232790000011136693752736998028_);}
	.st134{clip-path:url(#SVGID_00000062891794784719881050000015085682676382024838_);}
	.st135{clip-path:url(#SVGID_00000015329377723810929650000005989535513155776937_);}
	.st136{clip-path:url(#SVGID_00000134963553440498824340000009060739975689380265_);}
	.st137{clip-path:url(#SVGID_00000091727298693916147740000012992098788130308256_);}
	.st138{clip-path:url(#SVGID_00000021815006823134053090000015570619766875728515_);}
	.st139{clip-path:url(#SVGID_00000101098920426684514950000013887910074453246631_);}
	.st140{clip-path:url(#SVGID_00000129197405105832538930000013874345412879983037_);}
	.st141{clip-path:url(#SVGID_00000088855872094364104730000010148616674488791939_);}
	.st142{clip-path:url(#SVGID_00000081641807524344052540000015210726427601904258_);}
	.st143{clip-path:url(#SVGID_00000114763034177646867380000004565188923493825438_);}
	.st144{clip-path:url(#SVGID_00000006700865487205799930000012564697194947094409_);}
	.st145{clip-path:url(#SVGID_00000183236200266374890830000002889423588223563934_);}
	.st146{clip-path:url(#SVGID_00000086674015936261549210000016497642942986495640_);}
	.st147{clip-path:url(#SVGID_00000114066782436652293130000001979145508266611870_);}
	.st148{clip-path:url(#SVGID_00000013174219410625041250000011559304366012884110_);}
	.st149{clip-path:url(#SVGID_00000088841121532208522860000010850265093223796354_);}
	.st150{clip-path:url(#SVGID_00000106118884330069706690000005621729138347699329_);}
	.st151{clip-path:url(#SVGID_00000176024371451534561070000007277298300488395684_);}
	.st152{clip-path:url(#SVGID_00000149370228998401540600000008128744032395208074_);}
	.st153{clip-path:url(#SVGID_00000042710937118213027780000008345159245990844290_);}
	.st154{clip-path:url(#SVGID_00000044860203735272576890000008334845299829993620_);}
	.st155{clip-path:url(#SVGID_00000053518663609361075100000009425723146985986218_);}
	.st156{clip-path:url(#SVGID_00000062166950025796781720000011811590704646129832_);}
	.st157{clip-path:url(#SVGID_00000171700286725908374460000002885646060031555749_);}
	.st158{clip-path:url(#SVGID_00000160149852539410496470000001183764246191687331_);}
	.st159{clip-path:url(#SVGID_00000167379781619105050640000004211757291765565883_);}
	.st160{clip-path:url(#SVGID_00000054251686071114635050000006807348838685462659_);}
	.st161{clip-path:url(#SVGID_00000018214253540655127740000001918263488968267929_);}
	.st162{clip-path:url(#SVGID_00000041287285574249083090000007905681254587151234_);}
	.st163{clip-path:url(#SVGID_00000168829791216021903850000011899625306512856742_);}
	.st164{clip-path:url(#SVGID_00000115504695701728165960000000453708480967139499_);}
	.st165{clip-path:url(#SVGID_00000095325910979520290820000013560855050044583837_);}
	.st166{clip-path:url(#SVGID_00000116237286459913028960000000676473944629611957_);}
	.st167{clip-path:url(#SVGID_00000127759632082080343610000005675230755094865060_);}
	.st168{clip-path:url(#SVGID_00000128480092009719917340000006554350625820714921_);}
	.st169{clip-path:url(#SVGID_00000170998960963718286210000015273463883247312040_);}
	.st170{clip-path:url(#SVGID_00000043454331648207531760000004460980053640622724_);}
	.st171{clip-path:url(#SVGID_00000047745167751380476860000017435414598871961526_);}
	.st172{clip-path:url(#SVGID_00000078747504468755799120000003902977000530521502_);}
	.st173{clip-path:url(#SVGID_00000053514678267147299820000007222310358586872756_);}
	.st174{clip-path:url(#SVGID_00000029018274224509337720000006749941810309805476_);}
	.st175{clip-path:url(#SVGID_00000165933066869442099270000004446167914616271026_);}
	.st176{clip-path:url(#SVGID_00000000901127526790812130000002211233699008349595_);}
	.st177{clip-path:url(#SVGID_00000097484696491588415430000002047549200860620477_);}
	.st178{clip-path:url(#SVGID_00000157278255683882856620000015603614838196738962_);}
	.st179{clip-path:url(#SVGID_00000181048462525375463360000000895214932043745720_);}
	.st180{clip-path:url(#SVGID_00000138568075189001310960000006500056277712275342_);}
	.st181{clip-path:url(#SVGID_00000030454112249646161330000005363512046683040911_);}
	.st182{clip-path:url(#SVGID_00000017518548829578656330000017807830492772626874_);}
	.st183{clip-path:url(#SVGID_00000137810982318678001540000011212342532808074396_);}
	.st184{clip-path:url(#SVGID_00000123418914041129431880000014553001437089672115_);}
	.st185{clip-path:url(#SVGID_00000141449859453142580390000014848731828580876712_);}
	.st186{clip-path:url(#SVGID_00000070105588630705896140000003591941518614975360_);}
	.st187{clip-path:url(#SVGID_00000127724656283866377050000003650526696197619135_);}
	.st188{clip-path:url(#SVGID_00000178915342951433925780000006459927067082467977_);}
	.st189{clip-path:url(#SVGID_00000178905245154284473510000000361381648393879170_);}
	.st190{clip-path:url(#SVGID_00000018943599091153224240000011743013815296313525_);}
	.st191{clip-path:url(#SVGID_00000058556245286180739330000016326519498835356076_);}
	.st192{clip-path:url(#SVGID_00000095340861881384483680000007532109497383861167_);}
	.st193{clip-path:url(#SVGID_00000067200569608975818580000010420068753561277362_);}
	.st194{clip-path:url(#SVGID_00000111898629635380544330000003793072351013828507_);}
	.st195{clip-path:url(#SVGID_00000041992844189433460450000000187946065358181271_);}
	.st196{clip-path:url(#SVGID_00000051366424316302679500000015204695523480182161_);}
	.st197{clip-path:url(#SVGID_00000156555677180213380760000009510189828336672430_);}
	.st198{clip-path:url(#SVGID_00000157991375522745104840000011876556863561466806_);}
	.st199{clip-path:url(#SVGID_00000000906907791662864540000015127538178846094998_);}
	.st200{clip-path:url(#SVGID_00000132074900091208528220000013839441393176932737_);}
	.st201{clip-path:url(#SVGID_00000137832665484154594120000016748178047879936898_);}
	.st202{clip-path:url(#SVGID_00000100369022777933336850000007389269764385330051_);}
	.st203{clip-path:url(#SVGID_00000176761633048814688680000001093423539446750626_);}
	.st204{clip-path:url(#SVGID_00000050663741641967770960000018065905555659746180_);}
	.st205{clip-path:url(#SVGID_00000142869598590694673290000002097522464831150474_);}
	.st206{clip-path:url(#SVGID_00000141437740464706472460000016146350096373158569_);}
	.st207{clip-path:url(#SVGID_00000065762061285529471810000009691305003750969997_);}
	.st208{clip-path:url(#SVGID_00000050627201889672880770000012634767671642449821_);}
	.st209{clip-path:url(#SVGID_00000077304411858411075860000013729282578272846782_);}
	.st210{clip-path:url(#SVGID_00000124853544814760068830000001456119214029303431_);}
	.st211{clip-path:url(#SVGID_00000158707956454804568840000005912521187240524175_);}
	.st212{clip-path:url(#SVGID_00000116957746629130626840000006482933961232988347_);}
	.st213{clip-path:url(#SVGID_00000138566023774781091780000002086541601883991953_);}
	.st214{clip-path:url(#SVGID_00000178888114556275766360000010441173040051950498_);}
	.st215{clip-path:url(#SVGID_00000112602832175818658710000011782309661142510756_);}
	.st216{clip-path:url(#SVGID_00000174603878398471156240000014938686197626225330_);}
	.st217{clip-path:url(#SVGID_00000022537683182817420100000012129823863263401378_);}
	.st218{clip-path:url(#SVGID_00000047746924300067150790000004055842156791981218_);}
	.st219{clip-path:url(#SVGID_00000015344956702541134620000008290456966627431305_);}
	.st220{clip-path:url(#SVGID_00000124119262283608804500000011943694844342834341_);}
	.st221{clip-path:url(#SVGID_00000175320523936197150890000007638238205334379192_);}
	.st222{clip-path:url(#SVGID_00000067941974952348770180000012165019190707484296_);}
	.st223{clip-path:url(#SVGID_00000078765436176325162590000008117886323773982890_);}
	.st224{clip-path:url(#SVGID_00000098180038367150827960000000690813355311935678_);}
	.st225{clip-path:url(#SVGID_00000117653246788293073270000010549715019275468441_);}
	.st226{clip-path:url(#SVGID_00000072983969733900085370000017043975617398390965_);}
	.st227{clip-path:url(#SVGID_00000163779609550076992530000004911714929952477059_);}
	.st228{clip-path:url(#SVGID_00000109023169577326384520000002997849173950628540_);}
	.st229{clip-path:url(#SVGID_00000163787968138248669300000006977675844715547811_);}
	.st230{clip-path:url(#SVGID_00000099626026407919467570000011460530944181180323_);}
	.st231{clip-path:url(#SVGID_00000021797988907785024010000006383131918851910318_);}
	.st232{clip-path:url(#SVGID_00000177442724628605624700000010415516462290473903_);}
	.st233{clip-path:url(#SVGID_00000020379416881803115310000015015215049158783876_);}
	.st234{clip-path:url(#SVGID_00000173123037350207971780000015061407994735208339_);}
	.st235{clip-path:url(#SVGID_00000129925013426427152020000010889769932013623967_);}
	.st236{clip-path:url(#SVGID_00000150078648391656895770000002981568143347580560_);}
	.st237{clip-path:url(#SVGID_00000076582157274964327170000004723843421166657716_);}
	.st238{clip-path:url(#SVGID_00000120532440258089810870000016049716790516133256_);}
	.st239{clip-path:url(#SVGID_00000083796212529043159890000003714683277980288160_);}
	.st240{clip-path:url(#SVGID_00000095316163489351395420000015453695001524116911_);}
	.st241{clip-path:url(#SVGID_00000072984174434556286200000008951221195170293664_);}
	.st242{clip-path:url(#SVGID_00000072974871987461984680000008207885633719691954_);}
	.st243{clip-path:url(#SVGID_00000085961483347228967790000009059354891212436376_);}
	.st244{clip-path:url(#SVGID_00000180331287122419023650000014257871935545542033_);}
	.st245{clip-path:url(#SVGID_00000001643454150790327590000004221107011349014941_);}
	.st246{clip-path:url(#SVGID_00000072277084795609061180000009062347915914478240_);}
	.st247{clip-path:url(#SVGID_00000181056348759299110680000008060328621255675319_);}
	.st248{clip-path:url(#SVGID_00000108307621589341543060000012906190330274024110_);}
	.st249{clip-path:url(#SVGID_00000155833024508039734810000006623169382265451442_);}
	.st250{clip-path:url(#SVGID_00000086670950344267252340000010264589124258314168_);}
	.st251{clip-path:url(#SVGID_00000110436112427352400420000000253242093191820472_);}
	.st252{clip-path:url(#SVGID_00000034801396227208607850000018130026790088960158_);}
	.st253{clip-path:url(#SVGID_00000057126354182880292390000007625034031300379283_);}
	.st254{clip-path:url(#SVGID_00000178889893686296972560000000224804245294578616_);}
	.st255{clip-path:url(#SVGID_00000045602817055130221710000000524757317442226866_);}
	.st256{clip-path:url(#SVGID_00000054245360664627795440000008602762124907233432_);}
	.st257{clip-path:url(#SVGID_00000092445591810313616820000007546932908409947312_);}
	.st258{clip-path:url(#SVGID_00000069358166951484122120000008562286617992911769_);}
	.st259{clip-path:url(#SVGID_00000117635266212114152630000008141191261812460418_);}
	.st260{clip-path:url(#SVGID_00000108280718019015550080000017276926301218129320_);}
	.st261{clip-path:url(#SVGID_00000020375975277365706740000017731981511435507599_);}
	.st262{clip-path:url(#SVGID_00000047023652414953496580000009288363709534111365_);}
	.st263{clip-path:url(#SVGID_00000101080819040364732700000017641545665814982559_);}
	.st264{clip-path:url(#SVGID_00000102517608967534038790000006277177317193149607_);}
	.st265{clip-path:url(#SVGID_00000177471718532171324970000012026467003491756954_);}
	.st266{clip-path:url(#SVGID_00000131358950010716409540000009393694632934018954_);}
	.st267{clip-path:url(#SVGID_00000176730991967552845270000002500958008476070784_);}
	.st268{clip-path:url(#SVGID_00000173842373585386211690000017241574476446180286_);}
	.st269{clip-path:url(#SVGID_00000182499806878338181130000004801452149296854954_);}
	.st270{clip-path:url(#SVGID_00000111893200264683641650000004645115979429276598_);}
	.st271{clip-path:url(#SVGID_00000095322095772272711720000008780248965525388688_);}
	.st272{clip-path:url(#SVGID_00000100361380960823798620000004085500506529479863_);}
	.st273{clip-path:url(#SVGID_00000007419830188495730020000012125420503810756257_);}
	.st274{clip-path:url(#SVGID_00000138556553165736422230000004612170378262804129_);}
	.st275{clip-path:url(#SVGID_00000183234696657260659400000012095592057393374884_);}
	.st276{clip-path:url(#SVGID_00000173879793228823799410000005051643742945824915_);}
	.st277{clip-path:url(#SVGID_00000067234641526487672780000010067656210454033297_);}
	.st278{clip-path:url(#SVGID_00000180350696530900280450000002880132156440447631_);}
	.st279{clip-path:url(#SVGID_00000002342807030610084910000003490375856704161161_);}
	.st280{clip-path:url(#SVGID_00000069381524184225893220000009567586250771205536_);}
	.st281{clip-path:url(#SVGID_00000096739399713543270350000005819788306002721975_);}
	.st282{clip-path:url(#SVGID_00000140730633724327922860000005438341354905020809_);}
	.st283{clip-path:url(#SVGID_00000065042664073409587420000006907562330597449899_);}
	.st284{clip-path:url(#SVGID_00000029039282485319470160000001511019810398363304_);}
	.st285{clip-path:url(#SVGID_00000006672009561948865000000003337017658210965646_);}
	.st286{clip-path:url(#SVGID_00000007387518909249995480000000833227634006799267_);}
	.st287{clip-path:url(#SVGID_00000065782808852860121950000010467549327785183648_);}
	.st288{clip-path:url(#SVGID_00000031886827668221767730000015371279635119788936_);}
	.st289{clip-path:url(#SVGID_00000142148517291577786440000012843803409647808943_);}
	.st290{clip-path:url(#SVGID_00000039115004044682173020000001308342729358660503_);}
	.st291{clip-path:url(#SVGID_00000086662916623612503860000004978372858798502586_);}
	.st292{clip-path:url(#SVGID_00000168096391284411607550000009494586725431678142_);}
	.st293{clip-path:url(#SVGID_00000047759921194332038440000009998457685037582258_);}
	.st294{clip-path:url(#SVGID_00000119798583244360227640000009050254124993198510_);}
	.st295{clip-path:url(#SVGID_00000011009987550140606960000007263566657776081812_);}
	.st296{clip-path:url(#SVGID_00000102504185158582174910000008946498677570301840_);}
	.st297{clip-path:url(#SVGID_00000026885897957608168910000016713831211037753739_);}
	.st298{clip-path:url(#SVGID_00000054262236689113365700000001839978949917841828_);}
	.st299{clip-path:url(#SVGID_00000049182683803926661920000008193895748604576653_);}
	.st300{clip-path:url(#SVGID_00000161594051660151424200000009447214890033380491_);}
	.st301{clip-path:url(#SVGID_00000027579752642118415910000010740089111773168798_);}
	.st302{clip-path:url(#SVGID_00000142889318797243235810000014089506221067013002_);}
	.st303{clip-path:url(#SVGID_00000158002250336863561400000013444587581781381509_);}
	.st304{clip-path:url(#SVGID_00000176023915708386673980000015396856882230711953_);}
	.st305{clip-path:url(#SVGID_00000026879560430504800170000004084230986616962484_);}
	.st306{clip-path:url(#SVGID_00000002358098928996657500000000301223240693583003_);}
	.st307{clip-path:url(#SVGID_00000078043799428017144780000007227010703739468183_);}
	.st308{clip-path:url(#SVGID_00000032646354407542043230000008865531435443630000_);}
	.st309{clip-path:url(#SVGID_00000096029945676519311310000003696868024223007674_);}
	.st310{clip-path:url(#SVGID_00000108997967333686752180000016653133964934872763_);}
	.st311{clip-path:url(#SVGID_00000119821682459212351750000006742246680429724056_);}
	.st312{clip-path:url(#SVGID_00000153681569184252947300000003026621329271515012_);}
	.st313{clip-path:url(#SVGID_00000017480170146113365670000004906526553956667792_);}
	.st314{clip-path:url(#SVGID_00000041270963130939944790000010874011574271901574_);}
	.st315{clip-path:url(#SVGID_00000012460418224209171270000018386759238531871150_);}
	.st316{clip-path:url(#SVGID_00000024694158356354839450000003260689425236044175_);}
	.st317{clip-path:url(#SVGID_00000023964119150177138610000016099923761583085706_);}
	.st318{clip-path:url(#SVGID_00000110448999132642358200000017483441281739444882_);}
	.st319{clip-path:url(#SVGID_00000132795506678496666990000001809541583546016692_);}
	.st320{clip-path:url(#SVGID_00000000926832920641101370000018020550188109481872_);}
	.st321{clip-path:url(#SVGID_00000124149542757245667620000008803363768233768380_);}
	.st322{clip-path:url(#SVGID_00000093856289417916763090000015002086390895791270_);}
	.st323{clip-path:url(#SVGID_00000170969768475773022180000015028804875362957745_);}
	.st324{clip-path:url(#SVGID_00000154412542767892222120000001467553854858658688_);}
	.st325{clip-path:url(#SVGID_00000057144290905612181600000008138023845888883876_);}
	.st326{clip-path:url(#SVGID_00000065064462216480491590000007594480723420140213_);}
	.st327{clip-path:url(#SVGID_00000117675523763722959250000006299121148175545258_);}
	.st328{clip-path:url(#SVGID_00000150782220038358329600000017150563975757705098_);}
	.st329{clip-path:url(#SVGID_00000023258385646908511740000016744377061862712986_);}
	.st330{clip-path:url(#SVGID_00000127730651292955346400000008481762573408194956_);}
	.st331{clip-path:url(#SVGID_00000070836382047053950460000003021149167023080860_);}
	.st332{clip-path:url(#SVGID_00000025424380303157675570000018439722711717044111_);}
	.st333{clip-path:url(#SVGID_00000077325592610133675710000014208209222314385842_);}
	.st334{clip-path:url(#SVGID_00000067221743694454482370000001016773659964416955_);}
	.st335{clip-path:url(#SVGID_00000125567596583657898090000016056848839441134979_);}
	.st336{clip-path:url(#SVGID_00000118359585059761187480000016658029504856912006_);}
	.st337{clip-path:url(#SVGID_00000006690665545749818150000014195133481740956035_);}
	.st338{clip-path:url(#SVGID_00000162314099514261381540000000189803274599238047_);}
	.st339{clip-path:url(#SVGID_00000141435106822503832860000004881253721104747157_);}
	.st340{clip-path:url(#SVGID_00000137124549449613841990000015586244318054090931_);}
	.st341{clip-path:url(#SVGID_00000121961745361217507430000011831472986042745745_);}
	.st342{clip-path:url(#SVGID_00000181775775482372349520000016169087101545139133_);}
	.st343{clip-path:url(#SVGID_00000110464276096019887000000010084253633786303885_);}
	.st344{clip-path:url(#SVGID_00000063606945551641560830000006039385292206035584_);}
	.st345{clip-path:url(#SVGID_00000163772573446767975430000002814630190213147836_);}
	.st346{clip-path:url(#SVGID_00000054226688173902622620000006497178031743248032_);}
	.st347{clip-path:url(#SVGID_00000180324811717255488550000008786503476088670614_);}
	.st348{clip-path:url(#SVGID_00000088819022772914431980000010097751480801894584_);}
	.st349{clip-path:url(#SVGID_00000178205128536107489690000009104273285269090459_);}
	.st350{clip-path:url(#SVGID_00000073695343432378873320000005330434803795652506_);}
	.st351{clip-path:url(#SVGID_00000127010233286739648140000010144705770348012983_);}
	.st352{clip-path:url(#SVGID_00000008862440672758252020000012538437410877908375_);}
	.st353{clip-path:url(#SVGID_00000150085996005923752850000001180266262429383048_);}
	.st354{clip-path:url(#SVGID_00000161621983794167419490000005441198738220539777_);}
	.st355{clip-path:url(#SVGID_00000147929549318990616320000006539937634588129714_);}
	.st356{clip-path:url(#SVGID_00000029762120342492742650000009826600804802614198_);}
	.st357{clip-path:url(#SVGID_00000045617241691030880770000004806894342768679574_);}
	.st358{clip-path:url(#SVGID_00000065045207349382667360000014590959274737045651_);}
	.st359{clip-path:url(#SVGID_00000000223171280550086490000016014929605693143208_);}
	.st360{clip-path:url(#SVGID_00000110467958578846981890000015573163608493131962_);}
	.st361{clip-path:url(#SVGID_00000091736487789794644690000010532171541820802479_);}
	.st362{clip-path:url(#SVGID_00000129171628166318081980000015918191147055874182_);}
	.st363{clip-path:url(#SVGID_00000169549686808615128590000003043678226240455591_);}
	.st364{clip-path:url(#SVGID_00000018935991622583027640000016186564631624210071_);}
	.st365{clip-path:url(#SVGID_00000109724814823252860110000011933173858719453861_);}
	.st366{clip-path:url(#SVGID_00000007386524402033774260000013776404336902075791_);}
	.st367{clip-path:url(#SVGID_00000055698773214136488290000008569247672989081246_);}
	.st368{clip-path:url(#SVGID_00000109710290452653822150000002305736051373024700_);}
	.st369{clip-path:url(#SVGID_00000176755150654742185230000009345537572624445573_);}
	.st370{clip-path:url(#SVGID_00000023984400506468008390000008480931246487242394_);}
	.st371{clip-path:url(#SVGID_00000138544607816723564280000001291338191598016651_);}
	.st372{clip-path:url(#SVGID_00000101060792096282973450000004136253370401974696_);}
	.st373{clip-path:url(#SVGID_00000047060520075928831850000008837394743280775075_);}
	.st374{clip-path:url(#SVGID_00000095318003318379727350000000609378855081004448_);}
	.st375{clip-path:url(#SVGID_00000172418229674635956020000000272015508968558760_);}
</style>
<g>
	<g>
		<rect x="5.68" y="109.98" class="st0" width="48.54" height="588.48"/>
	</g>
	<g>
		<rect x="5.68" y="0" class="st1" width="992.64" height="116.88"/>
	</g>
	<g>
		<defs>
			<rect id="SVGID_00000059279397685654234140000006581213340400388516_" y="0" width="1000" height="702.95"/>
		</defs>
		<clipPath id="SVGID_00000068644465365361546870000017022682175612218272_">
			<use xlink:href="#SVGID_00000059279397685654234140000006581213340400388516_"  style="overflow:visible;"/>
		</clipPath>
		<g style="clip-path:url(#SVGID_00000068644465365361546870000017022682175612218272_);">
			<path class="st3" d="M998.31,702.94H2.81c-0.93,0-1.69-0.75-1.69-1.68V2.81c0-0.93,0.75-1.68,1.69-1.68h995.5
				c0.93,0,1.69,0.75,1.69,1.68v698.45C1000,702.19,999.25,702.94,998.31,702.94z M4.5,699.57h992.13V4.49H4.5V699.57z"/>
		</g>
		<g style="clip-path:url(#SVGID_00000068644465365361546870000017022682175612218272_);">
			<rect x="0" y="115.19" class="st3" width="995.5" height="3.37"/>
		</g>
		<g style="clip-path:url(#SVGID_00000068644465365361546870000017022682175612218272_);">
			<path class="st4" d="M845.81,69.08c0-6.43-3.8-10.45-11.32-11.18l-5.99-0.59c-3.36-0.29-3.94-1.9-3.94-3.29
				c0-1.9,1.61-3.65,5.41-3.65c3.29,0,6.65,0.58,8.84,2.56l5.84-5.91c-3.65-3.43-8.62-4.45-14.54-4.45
				c-7.74,0-14.68,4.23-14.68,12.11c0,7.02,4.24,10.01,11.1,10.67l5.99,0.58c2.99,0.29,4.02,1.61,4.02,3.51
				c0,2.85-3.43,3.95-6.72,3.95c-2.92,0-7.01-0.44-10.15-3.58l-6.21,6.21c4.82,4.82,10.23,5.47,16.22,5.47
				C838.65,81.5,845.81,77.48,845.81,69.08 M808.19,69.08c0-6.43-3.8-10.45-11.32-11.18l-5.99-0.59c-3.36-0.29-3.94-1.9-3.94-3.29
				c0-1.9,1.61-3.65,5.41-3.65c3.29,0,6.65,0.58,8.84,2.56l5.84-5.91c-3.65-3.43-8.62-4.45-14.54-4.45
				c-7.74,0-14.68,4.23-14.68,12.11c0,7.02,4.24,10.01,11.1,10.67l5.99,0.58c2.99,0.29,4.02,1.61,4.02,3.51
				c0,2.85-3.43,3.95-6.72,3.95c-2.92,0-7.01-0.44-10.15-3.58l-6.21,6.21c4.82,4.82,10.23,5.47,16.22,5.47
				C801.03,81.5,808.19,77.48,808.19,69.08 M767.42,81.06V43.01h-9.49v23.01c0,5.19-3.36,6.94-6.36,6.94c-3,0-6.29-1.75-6.29-6.94
				V43.01h-9.49v24.33c0,4.16,0.8,7.74,3.87,10.81c2.11,2.11,5.18,3.35,8.98,3.35c3.51,0,7.02-1.31,9.5-3.94v3.5H767.42z
				 M727.17,81.06v-8.02h-3.65c-2.41,0-3.36-1.17-3.36-3.43V29.06h-9.49v41.13c0,5.4,3.28,10.87,11.09,10.87H727.17z M699.34,81.06
				V56.44c0-8.04-4.38-13.87-12.7-13.87c-3.36,0-6.58,1.31-9.14,3.94V29.06h-9.48v52h9.48V57.83c0-4.97,3.14-6.72,6.14-6.72
				c2.99,0,6.21,1.68,6.21,6.72v23.23H699.34z M659.16,76.32l-6.43-6.36c-1.97,2.12-3.65,3-6.14,3c-2.26,0-4.02-0.8-5.41-2.49
				c-1.46-1.83-2.12-4.46-2.12-8.47c0-4.02,0.66-6.58,2.12-8.41c1.39-1.68,3.14-2.48,5.41-2.48c2.48,0,4.16,0.88,6.14,2.99
				l6.43-6.42c-3.36-3.51-7.3-5.11-12.56-5.11c-7.6,0-17.01,4.01-17.01,19.43c0,15.41,9.41,19.5,17.01,19.5
				C651.86,81.5,655.8,79.82,659.16,76.32 M622.06,69.08c0-6.43-3.8-10.45-11.32-11.18l-5.99-0.59c-3.36-0.29-3.94-1.9-3.94-3.29
				c0-1.9,1.61-3.65,5.41-3.65c3.29,0,6.65,0.58,8.84,2.56l5.84-5.91c-3.65-3.43-8.62-4.45-14.54-4.45
				c-7.74,0-14.68,4.23-14.68,12.11c0,7.02,4.24,10.01,11.1,10.67l5.99,0.58c2.99,0.29,4.02,1.61,4.02,3.51
				c0,2.85-3.43,3.95-6.72,3.95c-2.92,0-7.01-0.44-10.15-3.58l-6.21,6.21c4.82,4.82,10.23,5.47,16.22,5.47
				C614.9,81.5,622.06,77.48,622.06,69.08 M573.41,62c0,6.21-0.73,10.96-6.43,10.96s-6.43-4.75-6.43-10.96
				c0-6.21,0.73-10.89,6.43-10.89S573.41,55.78,573.41,62 M582.9,62c0-5.7-0.07-12.2-3.87-16c-2.12-2.12-5.55-3.43-9.28-3.43
				c-3.87,0-6.72,1.02-9.21,3.79V29.06h-9.48v52h9.19v-3.57c2.64,2.92,5.48,4.01,9.5,4.01c3.73,0,7.16-1.31,9.28-3.43
				C582.83,74.27,582.9,67.7,582.9,62 M529.88,67.03c0,2.34-0.37,3.88-1.39,4.83c-1.68,1.61-3.37,1.83-6,1.83
				c-3.73,0-5.48-1.76-5.48-4.39c0-2.71,1.9-4.32,5.34-4.32h7.53V67.03z M539.36,81.06V56.01c0-8.91-5.55-13.44-16.21-13.44
				c-6.36,0-10.01,1.16-13.73,5.25l6.06,5.92c1.97-2.27,3.65-3.15,7.3-3.15c5.05,0,7.09,1.83,7.09,6v1.9h-8.99
				c-8.84,0-13,4.96-13,11.02c0,3.36,1.1,6.43,3.14,8.55c2.26,2.26,5.4,3.35,9.72,3.35c4.38,0,6.8-1.1,9.36-3.65v3.28H539.36z
				 M501.52,81.06v-8.02h-3.65c-2.41,0-3.36-1.17-3.36-3.43V29.06h-9.48v41.13c0,5.4,3.28,10.87,11.09,10.87H501.52z M473.25,81.06
				V43.01h-9.49v23.01c0,5.19-3.36,6.94-6.36,6.94c-2.99,0-6.29-1.75-6.29-6.94V43.01h-9.48v24.33c0,4.16,0.8,7.74,3.87,10.81
				c2.12,2.11,5.18,3.35,8.98,3.35c3.51,0,7.02-1.31,9.5-3.94v3.5H473.25z M430.38,81.06V56.44c0-8.04-4.38-13.87-12.7-13.87
				c-3.37,0-6.58,1.31-9.14,3.94V29.06h-9.49v52h9.49V57.83c0-4.97,3.14-6.72,6.14-6.72c3,0,6.21,1.68,6.21,6.72v23.23H430.38z
				 M390.2,76.32l-6.43-6.36c-1.97,2.12-3.65,3-6.14,3c-2.26,0-4.02-0.8-5.41-2.49c-1.46-1.83-2.12-4.46-2.12-8.47
				c0-4.02,0.66-6.58,2.12-8.41c1.39-1.68,3.14-2.48,5.41-2.48c2.48,0,4.16,0.88,6.14,2.99l6.43-6.42
				c-3.36-3.51-7.3-5.11-12.56-5.11c-7.6,0-17.01,4.01-17.01,19.43c0,15.41,9.42,19.5,17.01,19.5
				C382.9,81.5,386.84,79.82,390.2,76.32 M353.1,69.08c0-6.43-3.8-10.45-11.32-11.18l-5.99-0.59c-3.36-0.29-3.94-1.9-3.94-3.29
				c0-1.9,1.61-3.65,5.41-3.65c3.29,0,6.65,0.58,8.84,2.56l5.84-5.91c-3.65-3.43-8.62-4.45-14.54-4.45
				c-7.74,0-14.68,4.23-14.68,12.11c0,7.02,4.24,10.01,11.1,10.67l5.99,0.58c2.99,0.29,4.02,1.61,4.02,3.51
				c0,2.85-3.43,3.95-6.72,3.95c-2.92,0-7.01-0.44-10.15-3.58l-6.21,6.21c4.82,4.82,10.23,5.47,16.22,5.47
				C345.94,81.5,353.1,77.48,353.1,69.08 M314.38,81.06v-8.02h-3.43c-2.26,0-3.29-1.24-3.29-3.44V51.33h6.72v-7.22h-6.72V32.86
				h-9.49v11.25h-4.02v7.22h4.02v18.85c0,5.41,3.29,10.88,11.02,10.88H314.38z M277.28,62c0,6.21-0.74,10.96-6.43,10.96
				c-5.7,0-6.43-4.75-6.43-10.96c0-6.21,0.73-10.89,6.43-10.89C276.55,51.11,277.28,55.78,277.28,62 M286.77,62
				c0-5.7-0.07-12.2-3.87-16c-2.12-2.12-5.55-3.43-9.28-3.43c-4.02,0-6.87,1.09-9.5,4.01v-3.57h-9.19v52h9.49V77.7
				c2.48,2.77,5.34,3.79,9.21,3.79c3.73,0,7.16-1.31,9.28-3.43C286.7,74.27,286.77,67.7,286.77,62 M242.79,81.06V43.01h-9.49v23.01
				c0,5.19-3.37,6.94-6.36,6.94c-3,0-6.29-1.75-6.29-6.94V43.01h-9.49v24.33c0,4.16,0.8,7.74,3.87,10.81
				c2.12,2.11,5.18,3.35,8.98,3.35c3.51,0,7.02-1.31,9.51-3.94v3.5H242.79z M190.43,67.03c0,2.34-0.37,3.88-1.39,4.83
				c-1.68,1.61-3.36,1.83-5.99,1.83c-3.73,0-5.48-1.76-5.48-4.39c0-2.71,1.9-4.32,5.34-4.32h7.53V67.03z M199.91,81.06V56.01
				c0-8.91-5.55-13.44-16.21-13.44c-6.36,0-10.01,1.16-13.73,5.25l6.06,5.92c1.97-2.27,3.65-3.15,7.31-3.15c5.04,0,7.09,1.83,7.09,6
				v1.9h-9c-8.83,0-12.99,4.96-12.99,11.02c0,3.36,1.09,6.43,3.14,8.55c2.26,2.26,5.4,3.35,9.71,3.35c4.39,0,6.8-1.1,9.36-3.65v3.28
				H199.91z M158.28,81.06v-52h-10.14v21.26h-17.62V29.06h-10.14v52h10.14V59.29h17.62v21.77H158.28z"/>
		</g>
		<g style="clip-path:url(#SVGID_00000068644465365361546870000017022682175612218272_);">
			<rect x="2.81" y="232.07" class="st3" width="992.7" height="3.37"/>
		</g>
		<g style="clip-path:url(#SVGID_00000068644465365361546870000017022682175612218272_);">
			<rect x="2.81" y="346.14" class="st3" width="992.7" height="3.37"/>
		</g>
		<g style="clip-path:url(#SVGID_00000068644465365361546870000017022682175612218272_);">
			<rect x="2.81" y="468.63" class="st3" width="992.7" height="3.37"/>
		</g>
		<g style="clip-path:url(#SVGID_00000068644465365361546870000017022682175612218272_);">
			<rect x="2.81" y="585.51" class="st3" width="992.7" height="3.37"/>
		</g>
		<g style="clip-path:url(#SVGID_00000068644465365361546870000017022682175612218272_);">
			<path class="st3" d="M704.21,654.09c0-3.58-0.43-7.27-3.3-10.14c-1.55-1.55-3.84-2.46-6.83-2.46c-2.78,0-5.02,0.85-6.3,2.19
				v-10.04h15.59v-4.85h-20.49v20.76h4.96c0.58-1.87,2.3-3.42,5.39-3.42c4.38,0,5.55,3.42,5.55,7.96c0,2.56-0.21,5.07-1.81,6.68
				c-0.96,0.96-2.35,1.49-3.95,1.49c-3.42,0-5.13-1.92-5.56-5.29h-5.44c0.21,2.72,0.85,5.23,2.88,7.26
				c1.65,1.65,4.48,2.93,8.11,2.93c3.69,0,6.3-1.28,8.01-2.98C703.79,661.41,704.21,658.15,704.21,654.09 M662.79,663.27l-3.68-3.63
				c-1.66,1.66-2.78,2.62-5.23,2.62c-4.38,0-6.62-3.05-6.62-9.02c0-5.88,2.24-8.97,6.62-8.97c2.4,0,3.63,0.96,5.23,2.56l3.68-3.57
				c-1.71-1.71-2.56-2.29-4-2.93c-1.39-0.58-2.99-0.9-4.86-0.9c-7.57,0-12.11,5.17-12.11,13.72c0,8.81,4.48,13.98,12.11,13.98
				c1.87,0,3.42-0.26,4.86-0.9C660.23,665.56,661.08,664.98,662.79,663.27 M628.9,657.02c0,3.95-1.71,5.56-5.93,5.56
				c-3.69,0-5.34-1.23-5.34-3.85c0-2.56,1.65-3.84,4.86-3.84h6.41V657.02z M634.29,666.79V648.7c0-6.14-3.79-9.28-11.32-9.28
				c-2.56,0-4.48,0.32-6.03,1.06c-1.33,0.59-2.02,1.23-3.52,2.83l3.57,3.37c0.8-1.02,1.39-1.55,2.19-1.92
				c0.96-0.48,2.08-0.7,3.64-0.7c4.27,0,6.09,1.49,6.09,5.02v1.98h-7.27c-5.77,0-9.28,2.93-9.28,7.84c0,5.23,3.36,8.16,9.39,8.16
				c3.21,0,4.97-0.48,7.21-2.72v2.45H634.29z M605.14,666.79v-27.06h-18.52v11.26c0,10.47-2.78,11-5.12,11h-0.85v4.8h2.56
				c5.28,0,8.64-2.98,8.64-14.46v-7.85h7.86v22.31H605.14z M556.89,666.79v-19.85l15.32,19.85h7.32l-15.96-20.07l14.63-17.94h-7.1
				l-14.2,18.04v-18.04h-5.76v38H556.89z M532.28,624.84h-5.23l-15.22,45.9h5.23L532.28,624.84z M495.07,654.09
				c0-3.58-0.43-7.27-3.3-10.14c-1.55-1.55-3.84-2.46-6.83-2.46c-2.78,0-5.02,0.85-6.3,2.19v-10.04h15.59v-4.85h-20.49v20.76h4.96
				c0.59-1.87,2.3-3.42,5.4-3.42c4.38,0,5.55,3.42,5.55,7.96c0,2.56-0.21,5.07-1.81,6.68c-0.96,0.96-2.35,1.49-3.95,1.49
				c-3.42,0-5.13-1.92-5.56-5.29h-5.44c0.21,2.72,0.85,5.23,2.88,7.26c1.65,1.65,4.48,2.93,8.11,2.93c3.68,0,6.3-1.28,8.01-2.98
				C494.64,661.41,495.07,658.15,495.07,654.09 M447.35,651.05h-12.17c0.06-1.66,0.16-2.46,0.7-3.69c0.85-2.03,2.83-3.42,5.39-3.42
				c2.56,0,4.48,1.39,5.34,3.42C447.14,648.59,447.3,649.39,447.35,651.05 M452.74,654.83v-2.4c0-7.69-4.22-13.02-11.48-13.02
				c-6.94,0-11.47,5.06-11.47,13.82c0,10.31,5.38,13.88,12.17,13.88c4.75,0,7.37-1.44,10.14-4.21l-3.47-3.26
				c-1.92,1.92-3.52,2.78-6.56,2.78c-4.43,0-6.89-2.94-6.89-7.59H452.74z M424.02,658.52c0-4.8-2.99-7.21-8.06-7.64l-4.27-0.37
				c-2.88-0.27-3.74-1.49-3.74-3.1c0-2.03,1.65-3.47,4.91-3.47c2.56,0,4.96,0.53,6.67,1.98l3.42-3.47
				c-2.51-2.19-5.98-3.03-10.04-3.03c-5.66,0-10.19,2.98-10.19,8.27c0,4.75,2.93,7.05,8.01,7.48l4.32,0.37
				c2.62,0.21,3.63,1.39,3.63,3.2c0,2.57-2.61,3.74-5.92,3.74c-2.67,0-5.61-0.59-7.79-2.83l-3.58,3.57
				c3.2,3.15,6.94,3.89,11.37,3.89C419.22,667.11,424.02,664.18,424.02,658.52 M397.18,658.52c0-4.8-2.99-7.21-8.06-7.64l-4.27-0.37
				c-2.88-0.27-3.74-1.49-3.74-3.1c0-2.03,1.66-3.47,4.91-3.47c2.56,0,4.97,0.53,6.68,1.98l3.42-3.47
				c-2.51-2.19-5.98-3.03-10.04-3.03c-5.66,0-10.2,2.98-10.2,8.27c0,4.75,2.94,7.05,8.01,7.48l4.33,0.37
				c2.61,0.21,3.63,1.39,3.63,3.2c0,2.57-2.62,3.74-5.93,3.74c-2.67,0-5.6-0.59-7.79-2.83l-3.57,3.57c3.2,3.15,6.94,3.89,11.37,3.89
				C392.37,667.11,397.18,664.18,397.18,658.52 M362.8,657.02c0,1.92-0.37,3.2-1.17,4.01c-1.44,1.39-2.99,1.55-5.07,1.55
				c-3.42,0-4.97-1.39-4.97-3.85c0-2.46,1.66-3.9,4.86-3.9h6.36V657.02z M368.24,666.79V648.7c0-6.14-3.73-9.28-11.15-9.28
				c-4.48,0-7.15,0.9-9.71,3.89l3.57,3.37c1.49-1.92,2.94-2.62,5.93-2.62c4.22,0,5.93,1.66,5.93,5.07v1.93h-7.15
				c-6.19,0-9.34,3.25-9.34,7.79c0,2.3,0.75,4.38,2.14,5.82c1.65,1.65,3.89,2.45,7.25,2.45c3.37,0,5.24-0.8,7.21-2.77v2.45H368.24z
				 M341.82,666.79v-4.64h-2.4c-2.19,0-2.93-1.07-2.93-3.15v-30.21h-5.44v30.53c0,4,2.24,7.47,7.41,7.47H341.82z M325.8,666.79
				l-13.62-23.11l12.33-14.89h-7.05l-15.53,19.11v-19.11h-5.76v38h5.76v-11.05l6.41-7.69l10.68,18.73H325.8z"/>
		</g>
		<g style="clip-path:url(#SVGID_00000068644465365361546870000017022682175612218272_);">
			<path class="st3" d="M698.67,544.38c0,4.06-2.4,6.62-5.82,6.62c-3.42,0-5.77-2.57-5.77-6.62c0-4.11,2.35-6.57,5.77-6.57
				C696.48,537.81,698.67,540.64,698.67,544.38 M704.11,544.27c0-6.68-4.48-10.99-9.98-10.99c-1.17,0-2.35,0.16-3.36,0.58
				l8.17-16.33h-5.82l-8.65,17.62c-1.65,3.3-2.83,6.24-2.83,9.34c0,7.05,4.69,11.37,11.26,11.37
				C699.47,555.85,704.11,551.27,704.11,544.27 M662.79,552.01l-3.68-3.63c-1.66,1.66-2.78,2.62-5.23,2.62
				c-4.38,0-6.62-3.05-6.62-9.02c0-5.88,2.24-8.97,6.62-8.97c2.4,0,3.63,0.96,5.23,2.56l3.68-3.57c-1.71-1.71-2.56-2.29-4-2.93
				c-1.39-0.58-2.99-0.9-4.86-0.9c-7.57,0-12.11,5.17-12.11,13.72c0,8.81,4.48,13.98,12.11,13.98c1.87,0,3.42-0.26,4.86-0.9
				C660.23,554.31,661.08,553.72,662.79,552.01 M628.9,545.77c0,3.95-1.71,5.56-5.93,5.56c-3.69,0-5.34-1.23-5.34-3.85
				c0-2.56,1.65-3.85,4.86-3.85h6.41V545.77z M634.29,555.53v-18.09c0-6.14-3.79-9.28-11.32-9.28c-2.56,0-4.48,0.32-6.03,1.06
				c-1.33,0.59-2.02,1.23-3.52,2.83l3.57,3.37c0.8-1.02,1.39-1.55,2.19-1.92c0.96-0.48,2.08-0.7,3.64-0.7
				c4.27,0,6.09,1.49,6.09,5.02v1.98h-7.27c-5.77,0-9.28,2.93-9.28,7.84c0,5.23,3.36,8.16,9.39,8.16c3.21,0,4.97-0.48,7.21-2.71
				v2.45H634.29z M605.14,555.53v-27.06h-18.52v11.26c0,10.47-2.78,11-5.12,11h-0.85v4.8h2.56c5.28,0,8.64-2.98,8.64-14.46v-7.85
				h7.86v22.31H605.14z M556.89,555.53v-19.85l15.32,19.85h7.32l-15.96-20.07l14.63-17.94h-7.1l-14.2,18.04v-18.04h-5.76v38H556.89z
				 M532.28,513.58h-5.23l-15.22,45.9h5.23L532.28,513.58z M489.53,544.38c0,4.06-2.4,6.62-5.82,6.62c-3.42,0-5.77-2.57-5.77-6.62
				c0-4.11,2.35-6.57,5.77-6.57C487.33,537.81,489.53,540.64,489.53,544.38 M494.97,544.27c0-6.68-4.48-10.99-9.98-10.99
				c-1.17,0-2.35,0.16-3.37,0.58l8.18-16.33h-5.82l-8.65,17.62c-1.66,3.3-2.83,6.24-2.83,9.34c0,7.05,4.69,11.37,11.26,11.37
				C490.32,555.85,494.97,551.27,494.97,544.27 M447.35,539.79h-12.17c0.06-1.66,0.16-2.46,0.7-3.69c0.85-2.03,2.83-3.42,5.39-3.42
				c2.56,0,4.48,1.39,5.34,3.42C447.14,537.33,447.3,538.13,447.35,539.79 M452.74,543.57v-2.4c0-7.69-4.22-13.02-11.48-13.02
				c-6.94,0-11.47,5.06-11.47,13.82c0,10.31,5.38,13.88,12.17,13.88c4.75,0,7.37-1.44,10.14-4.21l-3.47-3.26
				c-1.92,1.92-3.52,2.78-6.56,2.78c-4.43,0-6.89-2.94-6.89-7.59H452.74z M424.02,547.26c0-4.8-2.99-7.21-8.06-7.64l-4.27-0.37
				c-2.88-0.27-3.74-1.49-3.74-3.1c0-2.03,1.65-3.47,4.91-3.47c2.56,0,4.96,0.53,6.67,1.98l3.42-3.47
				c-2.51-2.19-5.98-3.03-10.04-3.03c-5.66,0-10.19,2.98-10.19,8.27c0,4.75,2.93,7.05,8.01,7.48l4.32,0.37
				c2.62,0.21,3.63,1.39,3.63,3.2c0,2.57-2.61,3.74-5.92,3.74c-2.67,0-5.61-0.59-7.79-2.83l-3.58,3.57
				c3.2,3.15,6.94,3.89,11.37,3.89C419.22,555.85,424.02,552.92,424.02,547.26 M397.18,547.26c0-4.8-2.99-7.21-8.06-7.64l-4.27-0.37
				c-2.88-0.27-3.74-1.49-3.74-3.1c0-2.03,1.66-3.47,4.91-3.47c2.56,0,4.97,0.53,6.68,1.98l3.42-3.47
				c-2.51-2.19-5.98-3.03-10.04-3.03c-5.66,0-10.2,2.98-10.2,8.27c0,4.75,2.94,7.05,8.01,7.48l4.33,0.37
				c2.61,0.21,3.63,1.39,3.63,3.2c0,2.57-2.62,3.74-5.93,3.74c-2.67,0-5.6-0.59-7.79-2.83l-3.57,3.57c3.2,3.15,6.94,3.89,11.37,3.89
				C392.37,555.85,397.18,552.92,397.18,547.26 M362.8,545.77c0,1.92-0.37,3.2-1.17,4.01c-1.44,1.39-2.99,1.55-5.07,1.55
				c-3.42,0-4.97-1.39-4.97-3.85c0-2.46,1.66-3.9,4.86-3.9h6.36V545.77z M368.24,555.53v-18.09c0-6.14-3.73-9.28-11.15-9.28
				c-4.48,0-7.15,0.9-9.71,3.89l3.57,3.37c1.49-1.92,2.94-2.62,5.93-2.62c4.22,0,5.93,1.66,5.93,5.07v1.93h-7.15
				c-6.19,0-9.34,3.25-9.34,7.79c0,2.3,0.75,4.38,2.14,5.82c1.65,1.65,3.89,2.45,7.25,2.45c3.37,0,5.24-0.8,7.21-2.77v2.45H368.24z
				 M341.82,555.53v-4.64h-2.4c-2.19,0-2.93-1.07-2.93-3.15v-30.21h-5.44v30.53c0,4,2.24,7.47,7.41,7.47H341.82z M325.8,555.53
				l-13.62-23.11l12.33-14.89h-7.05l-15.53,19.11v-19.11h-5.76v38h5.76v-11.05l6.41-7.69l10.68,18.73H325.8z"/>
		</g>
		<g style="clip-path:url(#SVGID_00000068644465365361546870000017022682175612218272_);">
			<path class="st3" d="M704.65,399.89v-4.85h-22.63v10.83h5.23v-5.98h11.58l-12.76,33.15h5.87L704.65,399.89z M662.79,429.52
				l-3.68-3.63c-1.66,1.66-2.78,2.62-5.23,2.62c-4.38,0-6.62-3.05-6.62-9.02c0-5.88,2.24-8.97,6.62-8.97c2.4,0,3.63,0.96,5.23,2.56
				l3.68-3.57c-1.71-1.71-2.56-2.29-4-2.93c-1.39-0.58-2.99-0.9-4.86-0.9c-7.57,0-12.11,5.17-12.11,13.72
				c0,8.81,4.48,13.98,12.11,13.98c1.87,0,3.42-0.26,4.86-0.9C660.23,431.81,661.08,431.23,662.79,429.52 M628.9,423.27
				c0,3.95-1.71,5.56-5.93,5.56c-3.69,0-5.34-1.23-5.34-3.85c0-2.56,1.65-3.84,4.86-3.84h6.41V423.27z M634.29,433.04v-18.09
				c0-6.14-3.79-9.28-11.32-9.28c-2.56,0-4.48,0.32-6.03,1.06c-1.33,0.59-2.02,1.23-3.52,2.83l3.57,3.37
				c0.8-1.02,1.39-1.55,2.19-1.92c0.96-0.48,2.08-0.7,3.64-0.7c4.27,0,6.09,1.49,6.09,5.02v1.98h-7.27c-5.77,0-9.28,2.93-9.28,7.84
				c0,5.23,3.36,8.16,9.39,8.16c3.21,0,4.97-0.48,7.21-2.72v2.45H634.29z M605.14,433.04v-27.06h-18.52v11.26
				c0,10.47-2.78,11-5.12,11h-0.85v4.8h2.56c5.28,0,8.64-2.98,8.64-14.46v-7.85h7.86v22.31H605.14z M556.89,433.04v-19.85
				l15.32,19.85h7.32l-15.96-20.07l14.63-17.94h-7.1l-14.2,18.04v-18.04h-5.76v38H556.89z M532.28,391.08h-5.23l-15.22,45.9h5.23
				L532.28,391.08z M495.5,399.89v-4.85h-22.63v10.83h5.23v-5.98h11.58l-12.76,33.15h5.87L495.5,399.89z M447.35,417.3h-12.17
				c0.06-1.66,0.16-2.46,0.7-3.69c0.85-2.03,2.83-3.42,5.39-3.42c2.56,0,4.48,1.39,5.34,3.42
				C447.14,414.83,447.3,415.64,447.35,417.3 M452.74,421.08v-2.4c0-7.69-4.22-13.02-11.48-13.02c-6.94,0-11.47,5.06-11.47,13.82
				c0,10.3,5.38,13.87,12.17,13.87c4.75,0,7.37-1.44,10.14-4.21l-3.47-3.26c-1.92,1.92-3.52,2.78-6.56,2.78
				c-4.43,0-6.89-2.94-6.89-7.59H452.74z M424.02,424.76c0-4.8-2.99-7.21-8.06-7.64l-4.27-0.37c-2.88-0.27-3.74-1.49-3.74-3.1
				c0-2.03,1.65-3.47,4.91-3.47c2.56,0,4.96,0.53,6.67,1.98l3.42-3.47c-2.51-2.19-5.98-3.03-10.04-3.03
				c-5.66,0-10.19,2.98-10.19,8.27c0,4.75,2.93,7.05,8.01,7.48l4.32,0.37c2.62,0.21,3.63,1.39,3.63,3.2c0,2.57-2.61,3.74-5.92,3.74
				c-2.67,0-5.61-0.59-7.79-2.83l-3.58,3.58c3.2,3.14,6.94,3.89,11.37,3.89C419.22,433.36,424.02,430.42,424.02,424.76
				 M397.18,424.76c0-4.8-2.99-7.21-8.06-7.64l-4.27-0.37c-2.88-0.27-3.74-1.49-3.74-3.1c0-2.03,1.66-3.47,4.91-3.47
				c2.56,0,4.97,0.53,6.68,1.98l3.42-3.47c-2.51-2.19-5.98-3.03-10.04-3.03c-5.66,0-10.2,2.98-10.2,8.27c0,4.75,2.94,7.05,8.01,7.48
				l4.33,0.37c2.61,0.21,3.63,1.39,3.63,3.2c0,2.57-2.62,3.74-5.93,3.74c-2.67,0-5.6-0.59-7.79-2.83l-3.57,3.58
				c3.2,3.14,6.94,3.89,11.37,3.89C392.37,433.36,397.18,430.42,397.18,424.76 M362.8,423.27c0,1.92-0.37,3.2-1.17,4.01
				c-1.44,1.39-2.99,1.55-5.07,1.55c-3.42,0-4.97-1.39-4.97-3.85s1.66-3.9,4.86-3.9h6.36V423.27z M368.24,433.04v-18.09
				c0-6.14-3.73-9.28-11.15-9.28c-4.48,0-7.15,0.9-9.71,3.89l3.57,3.37c1.49-1.92,2.94-2.62,5.93-2.62c4.22,0,5.93,1.66,5.93,5.07
				v1.93h-7.15c-6.19,0-9.34,3.25-9.34,7.79c0,2.3,0.75,4.38,2.14,5.82c1.65,1.65,3.89,2.45,7.25,2.45c3.37,0,5.24-0.8,7.21-2.77
				v2.45H368.24z M341.82,433.04v-4.64h-2.4c-2.19,0-2.93-1.07-2.93-3.15v-30.21h-5.44v30.53c0,4,2.24,7.47,7.41,7.47H341.82z
				 M325.8,433.04l-13.62-23.11l12.33-14.89h-7.05l-15.53,19.11v-19.11h-5.76v38h5.76v-11.05l6.41-7.69l10.68,18.73H325.8z"/>
		</g>
		<g style="clip-path:url(#SVGID_00000068644465365361546870000017022682175612218272_);">
			<path class="st3" d="M698.51,289.92c0,3.36-2.35,5.77-5.66,5.77c-3.31,0-5.61-2.4-5.61-5.77c0-3.32,2.3-5.82,5.61-5.82
				C696.16,284.1,698.51,286.6,698.51,289.92 M699.1,306.73c0,3.52-2.72,6.3-6.25,6.3c-3.52,0-6.25-2.78-6.25-6.3
				c0-3.52,2.73-6.36,6.25-6.36C696.38,300.37,699.1,303.21,699.1,306.73 M704.59,306.84c0-4.54-2.56-7.32-5.23-8.91
				c2.45-1.49,4.59-4.16,4.59-8.17c0-6.36-4.91-10.51-11.1-10.51c-6.19,0-11.05,4.16-11.05,10.51c0,4.01,2.14,6.68,4.59,8.17
				c-2.66,1.6-5.23,4.37-5.23,8.91c0,6.89,5.18,11.05,11.69,11.05C699.37,317.88,704.59,313.73,704.59,306.84 M662.79,314.05
				l-3.68-3.63c-1.66,1.66-2.78,2.62-5.23,2.62c-4.38,0-6.62-3.05-6.62-9.02c0-5.88,2.24-8.97,6.62-8.97c2.4,0,3.63,0.96,5.23,2.56
				l3.68-3.57c-1.71-1.71-2.56-2.29-4-2.93c-1.39-0.58-2.99-0.9-4.86-0.9c-7.57,0-12.11,5.17-12.11,13.72
				c0,8.81,4.48,13.98,12.11,13.98c1.87,0,3.42-0.26,4.86-0.9C660.23,316.34,661.08,315.75,662.79,314.05 M628.9,307.8
				c0,3.95-1.71,5.56-5.93,5.56c-3.69,0-5.34-1.23-5.34-3.85c0-2.56,1.65-3.84,4.86-3.84h6.41V307.8z M634.29,317.56v-18.09
				c0-6.14-3.79-9.28-11.32-9.28c-2.56,0-4.48,0.32-6.03,1.06c-1.33,0.59-2.02,1.23-3.52,2.83l3.57,3.37
				c0.8-1.02,1.39-1.55,2.19-1.92c0.96-0.48,2.08-0.7,3.64-0.7c4.27,0,6.09,1.49,6.09,5.02v1.98h-7.27c-5.77,0-9.28,2.93-9.28,7.84
				c0,5.23,3.36,8.16,9.39,8.16c3.21,0,4.97-0.48,7.21-2.72v2.45H634.29z M605.14,317.56v-27.06h-18.52v11.26
				c0,10.47-2.78,11-5.12,11h-0.85v4.8h2.56c5.28,0,8.64-2.98,8.64-14.46v-7.85h7.86v22.31H605.14z M556.89,317.56v-19.85
				l15.32,19.85h7.32l-15.96-20.07l14.63-17.94h-7.1l-14.2,18.04v-18.04h-5.76v38H556.89z M532.28,275.61h-5.23l-15.22,45.9h5.23
				L532.28,275.61z M489.37,289.92c0,3.36-2.35,5.77-5.66,5.77c-3.31,0-5.61-2.4-5.61-5.77c0-3.32,2.3-5.82,5.61-5.82
				C487.01,284.1,489.37,286.6,489.37,289.92 M489.95,306.73c0,3.52-2.73,6.3-6.25,6.3c-3.52,0-6.25-2.78-6.25-6.3
				c0-3.52,2.73-6.36,6.25-6.36C487.23,300.37,489.95,303.21,489.95,306.73 M495.44,306.84c0-4.54-2.56-7.32-5.22-8.91
				c2.45-1.49,4.59-4.16,4.59-8.17c0-6.36-4.91-10.51-11.1-10.51c-6.19,0-11.05,4.16-11.05,10.51c0,4.01,2.14,6.68,4.59,8.17
				c-2.66,1.6-5.23,4.37-5.23,8.91c0,6.89,5.18,11.05,11.69,11.05C490.22,317.88,495.44,313.73,495.44,306.84 M447.35,301.82h-12.17
				c0.06-1.66,0.16-2.46,0.7-3.69c0.85-2.03,2.83-3.42,5.39-3.42c2.56,0,4.48,1.39,5.34,3.42
				C447.14,299.36,447.3,300.17,447.35,301.82 M452.74,305.61v-2.4c0-7.69-4.22-13.02-11.48-13.02c-6.94,0-11.47,5.06-11.47,13.82
				c0,10.3,5.38,13.87,12.17,13.87c4.75,0,7.37-1.44,10.14-4.21l-3.47-3.26c-1.92,1.92-3.52,2.78-6.56,2.78
				c-4.43,0-6.89-2.94-6.89-7.59H452.74z M424.02,309.29c0-4.8-2.99-7.21-8.06-7.64l-4.27-0.37c-2.88-0.27-3.74-1.49-3.74-3.1
				c0-2.03,1.65-3.47,4.91-3.47c2.56,0,4.96,0.53,6.67,1.98l3.42-3.47c-2.51-2.19-5.98-3.03-10.04-3.03
				c-5.66,0-10.19,2.98-10.19,8.27c0,4.75,2.93,7.05,8.01,7.48l4.32,0.37c2.62,0.21,3.63,1.39,3.63,3.2c0,2.57-2.61,3.74-5.92,3.74
				c-2.67,0-5.61-0.59-7.79-2.83l-3.58,3.58c3.2,3.14,6.94,3.89,11.37,3.89C419.22,317.88,424.02,314.95,424.02,309.29
				 M397.18,309.29c0-4.8-2.99-7.21-8.06-7.64l-4.27-0.37c-2.88-0.27-3.74-1.49-3.74-3.1c0-2.03,1.66-3.47,4.91-3.47
				c2.56,0,4.97,0.53,6.68,1.98l3.42-3.47c-2.51-2.19-5.98-3.03-10.04-3.03c-5.66,0-10.2,2.98-10.2,8.27c0,4.75,2.94,7.05,8.01,7.48
				l4.33,0.37c2.61,0.21,3.63,1.39,3.63,3.2c0,2.57-2.62,3.74-5.93,3.74c-2.67,0-5.6-0.59-7.79-2.83l-3.57,3.58
				c3.2,3.14,6.94,3.89,11.37,3.89C392.37,317.88,397.18,314.95,397.18,309.29 M362.8,307.8c0,1.92-0.37,3.2-1.17,4.01
				c-1.44,1.39-2.99,1.55-5.07,1.55c-3.42,0-4.97-1.39-4.97-3.85s1.66-3.9,4.86-3.9h6.36V307.8z M368.24,317.56v-18.09
				c0-6.14-3.73-9.28-11.15-9.28c-4.48,0-7.15,0.9-9.71,3.89l3.57,3.37c1.49-1.92,2.94-2.62,5.93-2.62c4.22,0,5.93,1.66,5.93,5.07
				v1.93h-7.15c-6.19,0-9.34,3.25-9.34,7.79c0,2.3,0.75,4.38,2.14,5.82c1.65,1.65,3.89,2.45,7.25,2.45c3.37,0,5.24-0.8,7.21-2.77
				v2.45H368.24z M341.82,317.56v-4.64h-2.4c-2.19,0-2.93-1.07-2.93-3.15v-30.21h-5.44v30.53c0,4,2.24,7.47,7.41,7.47H341.82z
				 M325.8,317.56l-13.62-23.11l12.33-14.89h-7.05l-15.53,19.11v-19.11h-5.76v38h5.76v-11.05l6.41-7.69l10.68,18.73H325.8z"/>
		</g>
		<g style="clip-path:url(#SVGID_00000068644465365361546870000017022682175612218272_);">
			<path class="st3" d="M698.67,175.24c0,4.11-2.4,6.57-5.82,6.57c-3.63,0-5.77-2.83-5.77-6.57c0-4.06,2.35-6.62,5.77-6.62
				C696.27,168.62,698.67,171.19,698.67,175.24 M704.11,175.14c0-7.05-4.69-11.37-11.26-11.37c-6.57,0-11.2,4.59-11.2,11.58
				c0,6.68,4.42,11,9.92,11c1.17,0,2.4-0.16,3.42-0.59l-8.18,16.33h5.82l8.65-17.62C702.94,181.17,704.11,178.23,704.11,175.14
				 M662.79,198.57l-3.68-3.63c-1.66,1.66-2.78,2.62-5.23,2.62c-4.38,0-6.62-3.05-6.62-9.02c0-5.88,2.24-8.97,6.62-8.97
				c2.4,0,3.63,0.96,5.23,2.56l3.68-3.57c-1.71-1.71-2.56-2.29-4-2.93c-1.39-0.58-2.99-0.9-4.86-0.9c-7.57,0-12.11,5.17-12.11,13.72
				c0,8.81,4.48,13.98,12.11,13.98c1.87,0,3.42-0.26,4.86-0.9C660.23,200.87,661.08,200.28,662.79,198.57 M628.9,192.32
				c0,3.95-1.71,5.56-5.93,5.56c-3.69,0-5.34-1.23-5.34-3.85c0-2.56,1.65-3.84,4.86-3.84h6.41V192.32z M634.29,202.09V184
				c0-6.14-3.79-9.28-11.32-9.28c-2.56,0-4.48,0.32-6.03,1.06c-1.33,0.59-2.02,1.23-3.52,2.83l3.57,3.37
				c0.8-1.02,1.39-1.55,2.19-1.92c0.96-0.48,2.08-0.7,3.64-0.7c4.27,0,6.09,1.49,6.09,5.02v1.98h-7.27c-5.77,0-9.28,2.93-9.28,7.84
				c0,5.23,3.36,8.16,9.39,8.16c3.21,0,4.97-0.48,7.21-2.72v2.45H634.29z M605.14,202.09v-27.06h-18.52v11.26
				c0,10.47-2.78,11-5.12,11h-0.85v4.8h2.56c5.28,0,8.64-2.98,8.64-14.46v-7.85h7.86v22.31H605.14z M556.89,202.09v-19.85
				l15.32,19.85h7.32l-15.96-20.07l14.63-17.94h-7.1l-14.2,18.04v-18.04h-5.76v38H556.89z M532.28,160.14h-5.23l-15.22,45.9h5.23
				L532.28,160.14z M489.53,175.24c0,4.11-2.4,6.57-5.82,6.57c-3.63,0-5.77-2.83-5.77-6.57c0-4.06,2.35-6.62,5.77-6.62
				C487.12,168.62,489.53,171.19,489.53,175.24 M494.97,175.14c0-7.05-4.69-11.37-11.26-11.37s-11.2,4.59-11.2,11.58
				c0,6.68,4.42,11,9.92,11c1.17,0,2.4-0.16,3.42-0.59l-8.17,16.33h5.82l8.65-17.62C493.79,181.17,494.97,178.23,494.97,175.14
				 M447.35,186.35h-12.17c0.06-1.66,0.16-2.46,0.7-3.69c0.85-2.03,2.83-3.42,5.39-3.42c2.56,0,4.48,1.39,5.34,3.42
				C447.14,183.89,447.3,184.69,447.35,186.35 M452.74,190.13v-2.4c0-7.69-4.22-13.02-11.48-13.02c-6.94,0-11.47,5.06-11.47,13.82
				c0,10.3,5.38,13.87,12.17,13.87c4.75,0,7.37-1.44,10.14-4.21l-3.47-3.26c-1.92,1.92-3.52,2.78-6.56,2.78
				c-4.43,0-6.89-2.94-6.89-7.59H452.74z M424.02,193.82c0-4.8-2.99-7.21-8.06-7.64l-4.27-0.37c-2.88-0.27-3.74-1.49-3.74-3.1
				c0-2.03,1.65-3.47,4.91-3.47c2.56,0,4.96,0.53,6.67,1.98l3.42-3.47c-2.51-2.19-5.98-3.03-10.04-3.03
				c-5.66,0-10.19,2.98-10.19,8.27c0,4.75,2.93,7.05,8.01,7.48l4.32,0.37c2.62,0.21,3.63,1.39,3.63,3.2c0,2.57-2.61,3.74-5.92,3.74
				c-2.67,0-5.61-0.59-7.79-2.83l-3.58,3.58c3.2,3.14,6.94,3.89,11.37,3.89C419.22,202.41,424.02,199.48,424.02,193.82
				 M397.18,193.82c0-4.8-2.99-7.21-8.06-7.64l-4.27-0.37c-2.88-0.27-3.74-1.49-3.74-3.1c0-2.03,1.66-3.47,4.91-3.47
				c2.56,0,4.97,0.53,6.68,1.98l3.42-3.47c-2.51-2.19-5.98-3.03-10.04-3.03c-5.66,0-10.2,2.98-10.2,8.27c0,4.75,2.94,7.05,8.01,7.48
				l4.33,0.37c2.61,0.21,3.63,1.39,3.63,3.2c0,2.57-2.62,3.74-5.93,3.74c-2.67,0-5.6-0.59-7.79-2.83l-3.57,3.58
				c3.2,3.14,6.94,3.89,11.37,3.89C392.37,202.41,397.18,199.48,397.18,193.82 M362.8,192.32c0,1.92-0.37,3.2-1.17,4.01
				c-1.44,1.39-2.99,1.55-5.07,1.55c-3.42,0-4.97-1.39-4.97-3.85c0-2.46,1.66-3.9,4.86-3.9h6.36V192.32z M368.24,202.09V184
				c0-6.14-3.73-9.28-11.15-9.28c-4.48,0-7.15,0.9-9.71,3.89l3.57,3.37c1.49-1.92,2.94-2.62,5.93-2.62c4.22,0,5.93,1.66,5.93,5.07
				v1.93h-7.15c-6.19,0-9.34,3.25-9.34,7.79c0,2.3,0.75,4.38,2.14,5.82c1.65,1.65,3.89,2.45,7.25,2.45c3.37,0,5.24-0.8,7.21-2.77
				v2.45H368.24z M341.82,202.09v-4.64h-2.4c-2.19,0-2.93-1.07-2.93-3.15v-30.21h-5.44v30.53c0,4,2.24,7.47,7.41,7.47H341.82z
				 M325.8,202.09l-13.62-23.11l12.33-14.89h-7.05l-15.53,19.11v-19.11h-5.76v38h5.76v-11.05l6.41-7.69l10.68,18.73H325.8z"/>
		</g>
	</g>
	<g>
		<polygon class="st4" points="21.91,638.98 37.98,638.98 29.95,628.35 		"/>
	</g>
	<g>
		<polygon class="st4" points="21.91,660.11 37.98,660.11 29.95,649.49 		"/>
	</g>
	<g>
		<polygon class="st4" points="21.91,681.25 37.98,681.25 29.95,670.62 		"/>
	</g>
	<g>
		<polygon class="st4" points="21.91,617.84 37.98,617.84 29.95,607.22 		"/>
	</g>
	<g>
		<polygon class="st4" points="21.91,523.5 37.98,523.5 29.95,512.88 		"/>
	</g>
	<g>
		<polygon class="st4" points="21.91,544.64 37.98,544.64 29.95,534.01 		"/>
	</g>
	<g>
		<polygon class="st4" points="21.91,565.77 37.98,565.77 29.95,555.15 		"/>
	</g>
	<g>
		<polygon class="st4" points="21.91,502.37 37.98,502.37 29.95,491.74 		"/>
	</g>
	<g>
		<polygon class="st4" points="21.91,403.82 37.98,403.82 29.95,393.19 		"/>
	</g>
	<g>
		<polygon class="st4" points="21.91,424.95 37.98,424.95 29.95,414.32 		"/>
	</g>
	<g>
		<polygon class="st4" points="21.91,446.09 37.98,446.09 29.95,435.46 		"/>
	</g>
	<g>
		<polygon class="st4" points="21.91,382.68 37.98,382.68 29.95,372.05 		"/>
	</g>
	<g>
		<polygon class="st4" points="21.91,285.53 37.98,285.53 29.95,274.91 		"/>
	</g>
	<g>
		<polygon class="st4" points="21.91,306.67 37.98,306.67 29.95,296.04 		"/>
	</g>
	<g>
		<polygon class="st4" points="21.91,327.8 37.98,327.8 29.95,317.18 		"/>
	</g>
	<g>
		<polygon class="st4" points="21.91,264.4 37.98,264.4 29.95,253.77 		"/>
	</g>
	<g>
		<polygon class="st4" points="21.91,170.06 37.98,170.06 29.95,159.44 		"/>
	</g>
	<g>
		<polygon class="st4" points="21.91,191.2 37.98,191.2 29.95,180.57 		"/>
	</g>
	<g>
		<polygon class="st4" points="21.91,212.33 37.98,212.33 29.95,201.71 		"/>
	</g>
	<g>
		<polygon class="st4" points="21.91,148.93 37.98,148.93 29.95,138.3 		"/>
	</g>
</g>
</svg>
