<?xml version="1.0" encoding="utf-8"?>
<!-- Generator: Adobe Illustrator 26.2.1, SVG Export Plug-In . SVG Version: 6.00 Build 0)  -->
<svg version="1.1" id="Ebene_1" xmlns="http://www.w3.org/2000/svg" xmlns:xlink="http://www.w3.org/1999/xlink" x="0px" y="0px"
	 viewBox="0 0 1000 819.82" style="enable-background:new 0 0 1000 819.82;" xml:space="preserve">
<style type="text/css">
	.st0{fill:#A2B9E1;}
	.st1{fill:#6796CF;}
	.st2{clip-path:url(#SVGID_00000162343518354786612130000013125180035984017032_);}
	.st3{fill:#2B2961;}
	.st4{fill:#FFFFFF;}
	.st5{clip-path:url(#SVGID_00000108276177322448120480000000477122818486301373_);}
	.st6{clip-path:url(#SVGID_00000136403340891372193180000014182542505332662703_);}
	.st7{clip-path:url(#SVGID_00000129923855677357851770000007745937811468432830_);}
	.st8{clip-path:url(#SVGID_00000165229664779410827490000010157809993131731078_);}
	.st9{clip-path:url(#SVGID_00000094589854655850058230000013620777383550306222_);}
	.st10{opacity:0.52;clip-path:url(#SVGID_00000048478773934576457120000000111011782994040511_);}
	.st11{clip-path:url(#SVGID_00000021823224105924825430000018189505160260039816_);}
	.st12{clip-path:url(#SVGID_00000010304460520054859980000007924894455581452928_);}
	.st13{clip-path:url(#SVGID_00000049908096395197901130000003579874075274551435_);}
	.st14{clip-path:url(#SVGID_00000062889149011149862250000013624625402032348581_);}
	.st15{clip-path:url(#SVGID_00000003818373705759542980000013173829056545584817_);}
	.st16{clip-path:url(#SVGID_00000079456379918351929680000018273611698856913281_);}
	.st17{clip-path:url(#SVGID_00000103230025533783461020000012361940001764115591_);}
	.st18{clip-path:url(#SVGID_00000070088022782354749550000002547706444844710545_);}
	.st19{clip-path:url(#SVGID_00000141456739387433547550000017302334756159531416_);}
	.st20{clip-path:url(#SVGID_00000145030717028109873820000005583203973298574985_);}
	.st21{clip-path:url(#SVGID_00000122705797107126438300000013572176338337850802_);}
	.st22{clip-path:url(#SVGID_00000119119876182670880230000011297189783820692112_);}
	.st23{fill:none;stroke:#2B2961;stroke-width:0.374;stroke-linejoin:round;stroke-miterlimit:10;}
	.st24{fill:none;stroke:#2B2961;stroke-width:0.4;stroke-miterlimit:10;}
	.st25{clip-path:url(#SVGID_00000165226691067078883100000000513964963542808766_);}
	.st26{clip-path:url(#SVGID_00000092425293216460513470000018019148135408092812_);}
	.st27{clip-path:url(#SVGID_00000028289428310981127760000011845812223946737075_);}
	.st28{clip-path:url(#SVGID_00000148627843358687468700000011626239990518634894_);}
	.st29{clip-path:url(#SVGID_00000051346794132607244880000014715789896160745649_);}
	.st30{clip-path:url(#SVGID_00000043458981378924674040000015253426281407422615_);}
	.st31{clip-path:url(#SVGID_00000072987602619150642210000014923457312379793798_);}
	.st32{clip-path:url(#SVGID_00000004539572006811725650000006811614048965739437_);}
	.st33{clip-path:url(#SVGID_00000071544045094593977820000004657173381091254714_);}
	.st34{clip-path:url(#SVGID_00000111898949005033097350000017666123240650873261_);}
	.st35{clip-path:url(#SVGID_00000054955551784538083660000004793758381104022957_);}
	.st36{clip-path:url(#SVGID_00000095338523679159957950000006686211012724189056_);}
	.st37{clip-path:url(#SVGID_00000038397280093141690420000000607793370932818873_);}
	.st38{clip-path:url(#SVGID_00000178900093790219761610000017832605226743821499_);}
	.st39{clip-path:url(#SVGID_00000106145903875850503150000017249298921269105831_);}
	.st40{clip-path:url(#SVGID_00000067938499820254915000000006029083755743751557_);}
	.st41{clip-path:url(#SVGID_00000057123640644536217460000001870123683931393982_);}
	.st42{clip-path:url(#SVGID_00000065793489720548526960000008422037136332358279_);}
	.st43{clip-path:url(#SVGID_00000046319729602571186400000002174096922360190861_);}
	.st44{clip-path:url(#SVGID_00000089565353670335383300000003088308650354883758_);}
	.st45{clip-path:url(#SVGID_00000126287483595943801000000009747734857536381612_);}
	.st46{clip-path:url(#SVGID_00000059279297711556705630000006121338143411029664_);}
	.st47{clip-path:url(#SVGID_00000080892643830224854550000009380475942611644039_);}
	.st48{clip-path:url(#SVGID_00000152966961451584066590000008861113564020111243_);}
	.st49{clip-path:url(#SVGID_00000142866313904099552000000002543166265793071511_);}
	.st50{clip-path:url(#SVGID_00000088113258437193194970000011401964729309427847_);}
	.st51{clip-path:url(#SVGID_00000093173916299280639410000008613524393152138671_);}
	.st52{clip-path:url(#SVGID_00000077299582291463556660000005789764782562490521_);}
	.st53{clip-path:url(#SVGID_00000160178858041941334930000016309310385671042998_);}
	.st54{clip-path:url(#SVGID_00000083775940028640696200000003035062260941731473_);}
	.st55{clip-path:url(#SVGID_00000072997833874890055800000012922161164606940819_);}
	.st56{clip-path:url(#SVGID_00000036215159633795116060000006882824004360331147_);}
	.st57{clip-path:url(#SVGID_00000181769214395198588480000005992737446513581707_);}
	.st58{clip-path:url(#SVGID_00000021097255452450719830000007581961102440500633_);}
	.st59{clip-path:url(#SVGID_00000155827258690263567530000018256396221802926769_);}
	.st60{clip-path:url(#SVGID_00000082368047164872606260000016422464188750728626_);}
	.st61{clip-path:url(#SVGID_00000028322662748984355080000002157539974753418158_);}
	.st62{fill:#9AB4DE;}
	.st63{clip-path:url(#SVGID_00000088836038089408899860000016497312520182527389_);}
	.st64{clip-path:url(#SVGID_00000080199519512393471610000016200620625837541509_);}
	.st65{clip-path:url(#SVGID_00000070116594868978380270000010626295091939352752_);}
	.st66{fill:#B9C9E9;}
	.st67{clip-path:url(#SVGID_00000164503921725197667520000007089758495022579348_);}
	.st68{clip-path:url(#SVGID_00000105388034737378588720000003598430006847073433_);}
	.st69{clip-path:url(#SVGID_00000097483608258527725330000016857614627882793387_);}
	.st70{clip-path:url(#SVGID_00000130639375922410668940000010222320499967231419_);}
	.st71{clip-path:url(#SVGID_00000058550450366510572430000005378220672868885945_);}
	.st72{clip-path:url(#SVGID_00000115487778848064242150000009668664569446112696_);}
	.st73{clip-path:url(#SVGID_00000178913859681755280020000014535242445548903567_);}
	.st74{clip-path:url(#SVGID_00000120542733887914108390000013243561900002922383_);}
	.st75{clip-path:url(#SVGID_00000139279181478912717700000005189217182089176705_);}
	.st76{clip-path:url(#SVGID_00000182498922875189744740000010235017868728466615_);}
	.st77{clip-path:url(#SVGID_00000019666570414456150170000004941376992192121735_);}
	.st78{clip-path:url(#SVGID_00000074403569981800685860000001730232021017625230_);}
	.st79{clip-path:url(#SVGID_00000165207713072231080190000016788460148413845950_);}
	.st80{clip-path:url(#SVGID_00000087404451782890447670000006997196073193113528_);}
	.st81{clip-path:url(#SVGID_00000034056317723985020650000005653176628229919922_);}
	.st82{clip-path:url(#SVGID_00000003824486241914055400000002094421527542873984_);}
	.st83{clip-path:url(#SVGID_00000025400691327629278260000015119600464634152600_);}
	.st84{clip-path:url(#SVGID_00000136388003297951094350000013035504546030028189_);}
	.st85{clip-path:url(#SVGID_00000106835683746604261230000009988713239336927923_);}
	.st86{clip-path:url(#SVGID_00000062891657005219516350000006321035368689570228_);}
	.st87{clip-path:url(#SVGID_00000018955431075439738520000003123211164660794790_);}
	.st88{clip-path:url(#SVGID_00000079476847157098035680000016721286324429888165_);}
	.st89{clip-path:url(#SVGID_00000088843175951291410150000011689570010970809516_);}
	.st90{clip-path:url(#SVGID_00000062870832366491460580000015705203051529120925_);}
	.st91{clip-path:url(#SVGID_00000121957619128597175470000011911397916176999095_);}
	.st92{clip-path:url(#SVGID_00000002383196333520972120000005232626209434541716_);}
	.st93{clip-path:url(#SVGID_00000149372545624982786830000004786414534555748262_);}
	.st94{clip-path:url(#SVGID_00000136397531449226707930000016836761021281745336_);}
	.st95{clip-path:url(#SVGID_00000131353775364028738910000002519927857095450010_);}
	.st96{clip-path:url(#SVGID_00000047035482618099457480000002463960647184686771_);}
	.st97{clip-path:url(#SVGID_00000023978599554529130750000003331811944174946984_);}
	.st98{clip-path:url(#SVGID_00000039839254319553936230000000581344761691271831_);}
	.st99{clip-path:url(#SVGID_00000021798501603583363290000004335059250340887486_);}
	.st100{clip-path:url(#SVGID_00000173128565361987409550000003266317363686822067_);}
	.st101{clip-path:url(#SVGID_00000021120464377389373760000013975198748032551084_);}
	.st102{clip-path:url(#SVGID_00000101088391103455413030000009389215187697689257_);}
	.st103{clip-path:url(#SVGID_00000080185178359070693980000013381571855977176199_);}
	.st104{clip-path:url(#SVGID_00000156582834761775945300000015687029751372047011_);}
	.st105{clip-path:url(#SVGID_00000181784949558851367970000000811378265386877866_);}
	.st106{clip-path:url(#SVGID_00000138561774553473495310000011614822407007977099_);}
	.st107{clip-path:url(#SVGID_00000096766276719268962680000005233859065619518370_);}
	.st108{clip-path:url(#SVGID_00000016038581635695452610000017095745077186899622_);}
	.st109{clip-path:url(#SVGID_00000108306391434265678970000018408815761412789141_);}
	.st110{clip-path:url(#SVGID_00000121996524302905772420000005115014573910805684_);}
	.st111{clip-path:url(#SVGID_00000149353959445417883520000017688506958330643082_);}
	.st112{clip-path:url(#SVGID_00000121276695750060185660000008660448230747242888_);}
	.st113{clip-path:url(#SVGID_00000176027254384198429790000011673879815509024145_);}
	.st114{clip-path:url(#SVGID_00000107576263064787612940000001972422894558327473_);}
	.st115{clip-path:url(#SVGID_00000117643122678400141480000006817251532859734946_);}
	.st116{clip-path:url(#SVGID_00000008143792643568852780000008826659330931447945_);}
	.st117{clip-path:url(#SVGID_00000175325038912614489370000003254774107354579342_);}
	.st118{clip-path:url(#SVGID_00000055677658651685105180000015548896840452921998_);}
	.st119{clip-path:url(#SVGID_00000033351275416426745660000013106786077637019573_);}
	.st120{clip-path:url(#SVGID_00000060021961154377089690000000778433493386671771_);}
	.st121{clip-path:url(#SVGID_00000018222318891466056920000000436584332184319910_);}
	.st122{clip-path:url(#SVGID_00000139978743973812313960000017229303297007288489_);}
	.st123{clip-path:url(#SVGID_00000003084533828636773300000014428527398384355766_);}
	.st124{clip-path:url(#SVGID_00000096059050962142915170000000311145590711624321_);}
	.st125{clip-path:url(#SVGID_00000083070325531909554470000003120041283434645402_);}
	.st126{clip-path:url(#SVGID_00000170999809548335700800000013727345789607503763_);}
	.st127{clip-path:url(#SVGID_00000176024913866527937280000005493697865645656962_);}
	.st128{clip-path:url(#SVGID_00000178184386707821003390000001797132468820226741_);}
	.st129{clip-path:url(#SVGID_00000178913814565702096490000014139930439997027973_);}
	.st130{clip-path:url(#SVGID_00000168101389979385197090000006483944013448865945_);}
	.st131{clip-path:url(#SVGID_00000025416092827325631370000006532519674582402220_);}
	.st132{clip-path:url(#SVGID_00000022561532666568583550000011497828952897329569_);}
	.st133{clip-path:url(#SVGID_00000157296512508171862270000010439008555021350031_);}
	.st134{clip-path:url(#SVGID_00000018916492586108382870000007096837697693825706_);}
	.st135{clip-path:url(#SVGID_00000114064516454496769240000000468610551390059942_);}
	.st136{clip-path:url(#SVGID_00000079448332635139681530000008195967437691800192_);}
	.st137{clip-path:url(#SVGID_00000048497364832621606440000001080728340364773814_);}
	.st138{clip-path:url(#SVGID_00000166669828728302312100000013924344164450147471_);}
	.st139{clip-path:url(#SVGID_00000183950281472050585120000007154087180415072182_);}
	.st140{clip-path:url(#SVGID_00000170270268081166474870000010176850246917277604_);}
	.st141{clip-path:url(#SVGID_00000004516040174389938700000001722851823945170598_);}
	.st142{clip-path:url(#SVGID_00000124879358705176038940000003307188310100662702_);}
	.st143{clip-path:url(#SVGID_00000181068424688054875260000013212173917787148165_);}
	.st144{clip-path:url(#SVGID_00000118368560475844198360000008265753421872505484_);}
	.st145{clip-path:url(#SVGID_00000020356808482135780640000010719851061541085090_);}
	.st146{clip-path:url(#SVGID_00000048487267681942665900000018229957978888009386_);}
	.st147{clip-path:url(#SVGID_00000121996025899846867820000016162353195176187836_);}
	.st148{clip-path:url(#SVGID_00000040572846150432210610000014708010769474655921_);}
	.st149{clip-path:url(#SVGID_00000029043220477023417880000014920729644910790078_);}
	.st150{clip-path:url(#SVGID_00000130609584031990729310000017436266191397741215_);}
	.st151{clip-path:url(#SVGID_00000140693772906689942880000016461021019044578453_);}
	.st152{clip-path:url(#SVGID_00000042697412807273311170000001012865526288709504_);}
	.st153{clip-path:url(#SVGID_00000049196565299614095040000007026166278666341276_);}
	.st154{clip-path:url(#SVGID_00000054973377931677552740000010743039873913440395_);}
	.st155{clip-path:url(#SVGID_00000052096915275670664010000009710089237295595189_);}
	.st156{clip-path:url(#SVGID_00000105414324357981358710000000439029103574604941_);}
	.st157{clip-path:url(#SVGID_00000124874694406748897590000004255387811470100870_);}
	.st158{clip-path:url(#SVGID_00000041981115292414737000000009483756431215132556_);}
	.st159{clip-path:url(#SVGID_00000002376138561135004830000003726271374331310507_);}
	.st160{clip-path:url(#SVGID_00000173150939810129859550000013707921037628242608_);}
	.st161{clip-path:url(#SVGID_00000150808199910704545990000010388223620173304981_);}
	.st162{clip-path:url(#SVGID_00000070090305721817267970000008643746618079351978_);}
	.st163{clip-path:url(#SVGID_00000014606379548328136990000010879057945464138388_);}
	.st164{clip-path:url(#SVGID_00000145050666614830025350000000798692687302934166_);}
	.st165{clip-path:url(#SVGID_00000005984694416379316930000015004597062970694273_);}
	.st166{clip-path:url(#SVGID_00000131329280312461376030000006512195315106901677_);}
	.st167{clip-path:url(#SVGID_00000014616125475394543870000014295773817058354351_);}
	.st168{clip-path:url(#SVGID_00000021111213351943967090000012698153129588262825_);}
	.st169{clip-path:url(#SVGID_00000056415027113570544520000018232795484897929122_);}
	.st170{clip-path:url(#SVGID_00000126289345489545343480000012626634207845814462_);}
	.st171{clip-path:url(#SVGID_00000144327970034061340910000017985181123780568767_);}
	.st172{clip-path:url(#SVGID_00000163757035645646193300000017968456234811456412_);}
	.st173{clip-path:url(#SVGID_00000157309680950467117480000004746590971207578547_);}
	.st174{clip-path:url(#SVGID_00000093148948127283515060000004408919346164765340_);}
	.st175{clip-path:url(#SVGID_00000131365995272751373140000002393319316667122102_);}
	.st176{clip-path:url(#SVGID_00000036232770168553815710000006561369031542291353_);}
	.st177{clip-path:url(#SVGID_00000031188995668925967930000014372485893070200222_);}
	.st178{clip-path:url(#SVGID_00000156572961606307690200000009142314668368894096_);}
	.st179{clip-path:url(#SVGID_00000109024182326879572430000007788650375177028014_);}
	.st180{clip-path:url(#SVGID_00000009576936574784717880000002915364603685888655_);}
	.st181{clip-path:url(#SVGID_00000049196872296820922030000013128079806071535505_);}
	.st182{clip-path:url(#SVGID_00000038395050092442704150000014503675324856036739_);}
	.st183{clip-path:url(#SVGID_00000094592708960108157780000003860300592443576973_);}
	.st184{clip-path:url(#SVGID_00000034791107668064842170000003873298593265350281_);}
	.st185{clip-path:url(#SVGID_00000059994585599436028840000015010487000815637936_);}
	.st186{clip-path:url(#SVGID_00000116200678076295778230000014615694155147387528_);}
	.st187{clip-path:url(#SVGID_00000008845399440218443210000001575859627279654019_);}
	.st188{clip-path:url(#SVGID_00000031913888808442411520000010113920859992599231_);}
	.st189{clip-path:url(#SVGID_00000098918942881692218360000007008944209571797409_);}
	.st190{clip-path:url(#SVGID_00000068643350421421695340000013479831649399168928_);}
	.st191{clip-path:url(#SVGID_00000114760292226539628280000013618702690714020797_);}
	.st192{clip-path:url(#SVGID_00000183240196134757865350000001932321113880148656_);}
	.st193{clip-path:url(#SVGID_00000029752677513593013570000007008416004500822418_);}
	.st194{clip-path:url(#SVGID_00000141421262007659979050000013055273511958404781_);}
	.st195{clip-path:url(#SVGID_00000034784299328158818080000001079714856314355119_);}
	.st196{clip-path:url(#SVGID_00000155839154375422059360000017163716328470818213_);}
	.st197{clip-path:url(#SVGID_00000116940104167523236190000011316816100977718431_);}
	.st198{clip-path:url(#SVGID_00000027585936589840266090000016151771536218074530_);}
	.st199{clip-path:url(#SVGID_00000139270069786910626110000015793487971882566058_);}
	.st200{clip-path:url(#SVGID_00000119820104738517090490000012915509001637215901_);}
	.st201{clip-path:url(#SVGID_00000016788129023785721690000008920368217100971415_);}
	.st202{clip-path:url(#SVGID_00000005227090880307507960000014425576752501246888_);}
	.st203{clip-path:url(#SVGID_00000098195210794772597550000012970433753401213109_);}
	.st204{clip-path:url(#SVGID_00000064316513225691377500000017205739700570556580_);}
	.st205{clip-path:url(#SVGID_00000028299254561656739510000006019334472380464023_);}
	.st206{clip-path:url(#SVGID_00000152973815823637266420000012653369008218979762_);}
	.st207{clip-path:url(#SVGID_00000047775538554516410180000014664633287883771281_);}
	.st208{clip-path:url(#SVGID_00000049196470920285555770000001965279580000478338_);}
	.st209{clip-path:url(#SVGID_00000052798785231045789600000013562253909108826760_);}
	.st210{clip-path:url(#SVGID_00000001625415122065034150000002759464083268259984_);}
	.st211{clip-path:url(#SVGID_00000004544895370285066050000001664037159822991802_);}
	.st212{clip-path:url(#SVGID_00000183930268863291008340000000550602272630650292_);}
	.st213{clip-path:url(#SVGID_00000150077305628603787400000002086165325725514395_);}
	.st214{clip-path:url(#SVGID_00000018228208052185757150000017764115636948555179_);}
	.st215{clip-path:url(#SVGID_00000026144060460526713490000012178696502312535693_);}
	.st216{clip-path:url(#SVGID_00000151535453935882975850000012883015476628517542_);}
	.st217{clip-path:url(#SVGID_00000057143924120782294550000000682274879091335552_);}
	.st218{clip-path:url(#SVGID_00000003787134701841911850000006731111271537338041_);}
	.st219{clip-path:url(#SVGID_00000086678008248468391920000016685390251462233273_);}
	.st220{clip-path:url(#SVGID_00000021120747620439322230000002863671728105931439_);}
	.st221{clip-path:url(#SVGID_00000026849317258713901960000002261440052029072009_);}
	.st222{clip-path:url(#SVGID_00000066490866503915462840000009384800713036350898_);}
	.st223{clip-path:url(#SVGID_00000114764163877575116710000003821674711823912356_);}
	.st224{clip-path:url(#SVGID_00000114033586112915291670000008108218443262098061_);}
	.st225{clip-path:url(#SVGID_00000064321515989744848660000000303073648433876624_);}
	.st226{clip-path:url(#SVGID_00000084523510153366909770000005126589503309556621_);}
	.st227{clip-path:url(#SVGID_00000059309901906300918680000004218507064448841630_);}
	.st228{clip-path:url(#SVGID_00000055676362570864958240000013923471098370505897_);}
	.st229{clip-path:url(#SVGID_00000039834329683567902320000011414773322929159840_);}
	.st230{clip-path:url(#SVGID_00000041256926711566671510000018021199547588969611_);}
	.st231{clip-path:url(#SVGID_00000130606711746349278870000003016023725938671755_);}
	.st232{clip-path:url(#SVGID_00000106141892449323961450000010285125227625341608_);}
	.st233{clip-path:url(#SVGID_00000076591060750749011170000004701097859272036744_);}
	.st234{clip-path:url(#SVGID_00000164476947164842970580000015326811432163342217_);}
	.st235{clip-path:url(#SVGID_00000077310481818818820120000003584281180302606483_);}
	.st236{clip-path:url(#SVGID_00000016753634837315566890000009274879099417513142_);}
	.st237{clip-path:url(#SVGID_00000160181935706092489910000002835741689843802240_);}
	.st238{clip-path:url(#SVGID_00000083792728885058804870000011340674154267419545_);}
	.st239{clip-path:url(#SVGID_00000034048771659055762330000007151574952901112198_);}
	.st240{clip-path:url(#SVGID_00000115473003985871766360000006409544998056393386_);}
	.st241{clip-path:url(#SVGID_00000154397443069899027840000006022898229830776757_);}
	.st242{clip-path:url(#SVGID_00000173161999082811368830000004506128233561963948_);}
	.st243{clip-path:url(#SVGID_00000018198659657267319280000008114665965565311134_);}
	.st244{clip-path:url(#SVGID_00000158718840571291265540000008259455322786855076_);}
	.st245{clip-path:url(#SVGID_00000052082030713598258480000012021599685052131983_);}
	.st246{clip-path:url(#SVGID_00000153700740851958493160000007214684537488770974_);}
	.st247{clip-path:url(#SVGID_00000083064514500212460880000014477142355132451459_);}
	.st248{clip-path:url(#SVGID_00000036223209296242718170000013312150512727578801_);}
	.st249{clip-path:url(#SVGID_00000134225380013148467510000012358079662688090521_);}
	.st250{clip-path:url(#SVGID_00000031185996165304640860000012191790304728847238_);}
	.st251{clip-path:url(#SVGID_00000104687392368377892060000016518379948652986283_);}
	.st252{clip-path:url(#SVGID_00000116229292118433994040000016819881923089233536_);}
	.st253{clip-path:url(#SVGID_00000117636325057506103090000016492858547479374257_);}
	.st254{clip-path:url(#SVGID_00000030448820180632671610000003120423149495314317_);}
	.st255{clip-path:url(#SVGID_00000103232032212422673550000017811747100711884217_);}
	.st256{clip-path:url(#SVGID_00000135671929531209235220000002594172699381744056_);}
	.st257{clip-path:url(#SVGID_00000044163064709937131750000015190006935762990510_);}
	.st258{clip-path:url(#SVGID_00000178203219451287539600000004234466271052199064_);}
	.st259{clip-path:url(#SVGID_00000063606210641098484710000017705001993319078030_);}
	.st260{clip-path:url(#SVGID_00000021835159809075068590000017658967279241775024_);}
	.st261{clip-path:url(#SVGID_00000108304206958830616140000004910763096786439809_);}
	.st262{clip-path:url(#SVGID_00000162334659516737360890000002524368752775459217_);}
	.st263{clip-path:url(#SVGID_00000041257068172141355240000017981755793677247901_);}
	.st264{clip-path:url(#SVGID_00000066503276189944034180000010332590566848994467_);}
	.st265{clip-path:url(#SVGID_00000116235395079069339400000001626785477751217574_);}
	.st266{clip-path:url(#SVGID_00000147910501381252770870000016765829674588599192_);}
	.st267{clip-path:url(#SVGID_00000167391966838516714690000004803051955465740722_);}
	.st268{clip-path:url(#SVGID_00000028293453198831180540000000140620278428004791_);}
	.st269{clip-path:url(#SVGID_00000155844391720323999610000007907037989163690938_);}
	.st270{clip-path:url(#SVGID_00000149346260971346132630000009947979458149850545_);}
	.st271{clip-path:url(#SVGID_00000032634344134105898760000001860835962601095092_);}
	.st272{clip-path:url(#SVGID_00000065757622333687538420000012517671710050413981_);}
	.st273{clip-path:url(#SVGID_00000065065963968754181060000001598613594208107664_);}
	.st274{clip-path:url(#SVGID_00000046341839361246676750000016428137914784425144_);}
	.st275{clip-path:url(#SVGID_00000128486104274752898810000007406102663335734414_);}
	.st276{clip-path:url(#SVGID_00000145775811336675294670000003314198707747276960_);}
	.st277{clip-path:url(#SVGID_00000046302024512302900030000010324277870120813229_);}
	.st278{clip-path:url(#SVGID_00000016048709812850396430000014120303272025899406_);}
	.st279{clip-path:url(#SVGID_00000097501791340973049640000015970609768758245024_);}
	.st280{clip-path:url(#SVGID_00000041997239102609876290000009587880453048123308_);}
	.st281{clip-path:url(#SVGID_00000117643120510411829850000001009646956326489742_);}
	.st282{clip-path:url(#SVGID_00000065767090993982149020000010876442593720076712_);}
	.st283{clip-path:url(#SVGID_00000018940838830734615770000014794731028930563512_);}
	.st284{clip-path:url(#SVGID_00000116215755297300501080000006619672917066258092_);}
	.st285{clip-path:url(#SVGID_00000010991808167920581100000000817517627477168010_);}
	.st286{clip-path:url(#SVGID_00000155141522353556669150000000851444250677618612_);}
	.st287{clip-path:url(#SVGID_00000141419368893085087050000012751870733237600956_);}
	.st288{clip-path:url(#SVGID_00000119816747479466308490000009502844142301077422_);}
	.st289{clip-path:url(#SVGID_00000019673951484610543990000005911821987858304921_);}
	.st290{clip-path:url(#SVGID_00000140693875736211442940000002346917567679618716_);}
	.st291{clip-path:url(#SVGID_00000022531827381247689930000017481545523464943791_);}
	.st292{clip-path:url(#SVGID_00000153690305112226169260000008770543965808873366_);}
	.st293{clip-path:url(#SVGID_00000163074048823051739600000005034539387216952984_);}
	.st294{clip-path:url(#SVGID_00000152232200691861012020000003612297164495974580_);}
	.st295{clip-path:url(#SVGID_00000017501567251943479890000008600033073912768411_);}
	.st296{clip-path:url(#SVGID_00000135651212681734528490000002246924139907267754_);}
	.st297{clip-path:url(#SVGID_00000152243181801151261710000011862841002984473474_);}
	.st298{clip-path:url(#SVGID_00000151546111765344222720000009645115063487391920_);}
	.st299{clip-path:url(#SVGID_00000179629336925058876100000003754654570674501553_);}
	.st300{clip-path:url(#SVGID_00000155849697899927866340000017669295149990846626_);}
	.st301{clip-path:url(#SVGID_00000005224919596712748230000009615533170106287528_);}
	.st302{clip-path:url(#SVGID_00000136390976800812467690000017611534382103813504_);}
	.st303{clip-path:url(#SVGID_00000174566361517262183110000017250350025050626976_);}
	.st304{clip-path:url(#SVGID_00000103974527874453979720000016541241143291359394_);}
	.st305{clip-path:url(#SVGID_00000121989198038246515380000001021939621070849691_);}
	.st306{clip-path:url(#SVGID_00000072975318547284212900000010572567702165842358_);}
	.st307{clip-path:url(#SVGID_00000072961989035345754820000005990059973264157067_);}
	.st308{clip-path:url(#SVGID_00000095327152308068682630000017993159372247584931_);}
	.st309{clip-path:url(#SVGID_00000081633448517781473360000013899013749235184569_);}
	.st310{clip-path:url(#SVGID_00000176763358693447793520000009669193670293024692_);}
	.st311{clip-path:url(#SVGID_00000155863650298163087880000009675793757958155392_);}
	.st312{clip-path:url(#SVGID_00000155109195415774946400000012972461978544848518_);}
	.st313{clip-path:url(#SVGID_00000065781458501592620490000004489231951631463322_);}
	.st314{clip-path:url(#SVGID_00000008861817701102786070000013170365480818577808_);}
	.st315{clip-path:url(#SVGID_00000034049374963249491330000001867402661669622681_);}
	.st316{clip-path:url(#SVGID_00000004533678281866982000000007771974412551513237_);}
	.st317{clip-path:url(#SVGID_00000057827539595140454760000006124041338373909942_);}
	.st318{clip-path:url(#SVGID_00000178925291867518207250000016080167396858577584_);}
	.st319{clip-path:url(#SVGID_00000030465223141850854740000015408231856477784761_);}
	.st320{clip-path:url(#SVGID_00000006671359327004893170000016702693597939704971_);}
	.st321{clip-path:url(#SVGID_00000020399342237434118000000014439110074459981716_);}
	.st322{clip-path:url(#SVGID_00000026158178761765949070000002679108930243706267_);}
	.st323{clip-path:url(#SVGID_00000071560893067232966170000013899671023649808546_);}
	.st324{clip-path:url(#SVGID_00000080892636223564158770000009073468293625512892_);}
	.st325{clip-path:url(#SVGID_00000137854384407631972230000001015270603905816745_);}
	.st326{clip-path:url(#SVGID_00000103247812659100581040000014329053485447696286_);}
	.st327{clip-path:url(#SVGID_00000015348096384162766880000013231070384258981026_);}
	.st328{clip-path:url(#SVGID_00000132073983447445006480000008168355158096528304_);}
	.st329{clip-path:url(#SVGID_00000053545943901301518220000017067520382660746644_);}
	.st330{clip-path:url(#SVGID_00000114064781006022169960000016203020538825991808_);}
	.st331{clip-path:url(#SVGID_00000107588988831651491330000009424322525886288572_);}
	.st332{clip-path:url(#SVGID_00000086683117318213037430000013675834445427392154_);}
	.st333{clip-path:url(#SVGID_00000120522115703706464790000002909814865819710103_);}
	.st334{clip-path:url(#SVGID_00000160157067225565712860000014349097628403061143_);}
	.st335{clip-path:url(#SVGID_00000139983995907521646940000017210590302191041451_);}
	.st336{clip-path:url(#SVGID_00000008870607905808588350000002422487531006453120_);}
	.st337{clip-path:url(#SVGID_00000019648554118426441710000012598223557261920402_);}
	.st338{clip-path:url(#SVGID_00000040543269090612917280000005305953144156818570_);}
	.st339{clip-path:url(#SVGID_00000023278395820717564860000000424476764116715393_);}
	.st340{clip-path:url(#SVGID_00000175281815276289284440000014016964514778538685_);}
	.st341{clip-path:url(#SVGID_00000161590596463262266020000002113597515342592942_);}
	.st342{clip-path:url(#SVGID_00000089557459675978291650000003038170118313300100_);}
	.st343{clip-path:url(#SVGID_00000168834547142777637230000017079893168387807898_);}
	.st344{clip-path:url(#SVGID_00000005227373534748327200000003120856381708334527_);}
	.st345{clip-path:url(#SVGID_00000029755731099772851460000011171491517610121910_);}
	.st346{clip-path:url(#SVGID_00000146468266014731499270000007412188620123504046_);}
	.st347{clip-path:url(#SVGID_00000132780846289524119820000007756570847557244050_);}
	.st348{clip-path:url(#SVGID_00000062876728358004062460000011157778790506377889_);}
	.st349{clip-path:url(#SVGID_00000152232271784907773780000005301951200449146300_);}
	.st350{clip-path:url(#SVGID_00000096746524099429317890000013483340873836824488_);}
	.st351{clip-path:url(#SVGID_00000121272126064136000470000005151686853390211215_);}
	.st352{clip-path:url(#SVGID_00000066510789829498566890000017210496922244254127_);}
	.st353{clip-path:url(#SVGID_00000079457882793688946440000008992516594220563619_);}
	.st354{clip-path:url(#SVGID_00000109023241985322456580000001222572347641960881_);}
	.st355{clip-path:url(#SVGID_00000098933500463002591980000007680829120720178571_);}
	.st356{clip-path:url(#SVGID_00000085929794858183680390000004187254372772807576_);}
	.st357{clip-path:url(#SVGID_00000078751266060905793460000002120815472101211575_);}
	.st358{clip-path:url(#SVGID_00000152954210448438022480000005479608453290335139_);}
	.st359{clip-path:url(#SVGID_00000088115631565962826770000011888223178151309209_);}
	.st360{clip-path:url(#SVGID_00000147220562254469877190000009859691056032022664_);}
	.st361{clip-path:url(#SVGID_00000172431765560464480300000015965066307024954793_);}
	.st362{clip-path:url(#SVGID_00000110445235404069158600000015461873274057916070_);}
	.st363{clip-path:url(#SVGID_00000013185662401028236310000013162758235489767555_);}
	.st364{clip-path:url(#SVGID_00000077317815615571513870000015480003895742382476_);}
	.st365{clip-path:url(#SVGID_00000005958058760292591690000014542297199679504317_);}
	.st366{clip-path:url(#SVGID_00000096756643741283829830000010099292694066071205_);}
	.st367{clip-path:url(#SVGID_00000039848761018479016860000018405510513016981901_);}
	.st368{clip-path:url(#SVGID_00000155144576760139960370000002494614025993729706_);}
	.st369{clip-path:url(#SVGID_00000169539142175221411620000001501300900032993158_);}
	.st370{clip-path:url(#SVGID_00000117670226962816411170000010853393272607522447_);}
	.st371{clip-path:url(#SVGID_00000103255481256732004640000015950512669711311791_);}
	.st372{clip-path:url(#SVGID_00000124122073141112649340000015335571151052769978_);}
	.st373{clip-path:url(#SVGID_00000111886997779915526840000008456980183471790518_);}
	.st374{clip-path:url(#SVGID_00000062875128348121476710000013271569758984837050_);}
	.st375{clip-path:url(#SVGID_00000128444076250120031390000001758811270856681112_);}
</style>
<g>
	<g>
		<rect x="4.5" y="122.5" class="st0" width="48.54" height="692.84"/>
	</g>
	<g>
		<rect x="4.5" y="0" class="st1" width="992.7" height="116.88"/>
	</g>
	<g>
		<defs>
			<rect id="SVGID_00000005971019571253957550000003525343093547283105_" y="0" width="1000" height="819.82"/>
		</defs>
		<clipPath id="SVGID_00000000909734016917967460000007235518897804284329_">
			<use xlink:href="#SVGID_00000005971019571253957550000003525343093547283105_"  style="overflow:visible;"/>
		</clipPath>
		<g style="clip-path:url(#SVGID_00000000909734016917967460000007235518897804284329_);">
			<path class="st3" d="M997.19,819.82H1.69c-0.93,0-1.68-0.75-1.68-1.68V2.81c0-0.93,0.75-1.68,1.68-1.68h995.5
				c0.93,0,1.68,0.75,1.68,1.68v815.33C998.88,819.07,998.12,819.82,997.19,819.82z M3.37,816.46h992.14V4.49H3.37V816.46z"/>
		</g>
		<g style="clip-path:url(#SVGID_00000000909734016917967460000007235518897804284329_);">
			<rect x="4.5" y="118" class="st3" width="995.5" height="3.37"/>
		</g>
		<g style="clip-path:url(#SVGID_00000000909734016917967460000007235518897804284329_);">
			<path class="st4" d="M925.42,67.68c0-6.43-3.8-10.45-11.32-11.18l-5.99-0.58c-3.36-0.29-3.94-1.9-3.94-3.29
				c0-1.9,1.61-3.66,5.41-3.66c3.29,0,6.65,0.58,8.84,2.56l5.84-5.92c-3.65-3.43-8.62-4.45-14.54-4.45
				c-7.74,0-14.68,4.23-14.68,12.12c0,7.01,4.24,10.01,11.1,10.67l5.99,0.58c3,0.3,4.02,1.61,4.02,3.51c0,2.85-3.43,3.94-6.72,3.94
				c-2.92,0-7.01-0.44-10.15-3.58l-6.21,6.2c4.82,4.82,10.23,5.47,16.22,5.47C918.26,80.09,925.42,76.08,925.42,67.68 M887.8,67.68
				c0-6.43-3.8-10.45-11.32-11.18l-5.99-0.58c-3.36-0.29-3.94-1.9-3.94-3.29c0-1.9,1.61-3.66,5.41-3.66c3.29,0,6.65,0.58,8.84,2.56
				l5.84-5.92c-3.65-3.43-8.62-4.45-14.54-4.45c-7.74,0-14.68,4.23-14.68,12.12c0,7.01,4.24,10.01,11.1,10.67l5.99,0.58
				c2.99,0.3,4.02,1.61,4.02,3.51c0,2.85-3.43,3.94-6.72,3.94c-2.92,0-7.01-0.44-10.15-3.58l-6.21,6.2
				c4.82,4.82,10.23,5.47,16.22,5.47C880.64,80.09,887.8,76.08,887.8,67.68 M847.04,79.65V41.6h-9.49v23.01
				c0,5.19-3.36,6.94-6.36,6.94c-2.99,0-6.28-1.75-6.28-6.94V41.6h-9.49v24.32c0,4.16,0.8,7.74,3.87,10.81
				c2.11,2.12,5.18,3.35,8.98,3.35c3.51,0,7.02-1.31,9.5-3.94v3.5H847.04z M806.79,79.65v-8.02h-3.65c-2.41,0-3.36-1.17-3.36-3.43
				V27.65h-9.49v41.13c0,5.4,3.29,10.87,11.1,10.87H806.79z M778.96,79.65V55.03c0-8.03-4.38-13.87-12.7-13.87
				c-3.36,0-6.58,1.31-9.14,3.94V27.65h-9.49v52h9.49V56.42c0-4.97,3.14-6.72,6.14-6.72c2.99,0,6.21,1.68,6.21,6.72v23.23H778.96z
				 M738.78,74.91l-6.43-6.35c-1.97,2.12-3.65,2.99-6.14,2.99c-2.26,0-4.02-0.8-5.41-2.48c-1.46-1.83-2.12-4.46-2.12-8.48
				s0.66-6.57,2.12-8.4c1.39-1.69,3.14-2.49,5.41-2.49c2.48,0,4.16,0.88,6.14,3l6.43-6.43c-3.36-3.5-7.3-5.11-12.56-5.11
				c-7.6,0-17.01,4.01-17.01,19.43s9.42,19.5,17.01,19.5C731.48,80.09,735.42,78.41,738.78,74.91 M701.68,67.68
				c0-6.43-3.8-10.45-11.32-11.18l-5.99-0.58c-3.36-0.29-3.94-1.9-3.94-3.29c0-1.9,1.61-3.66,5.41-3.66c3.29,0,6.65,0.58,8.84,2.56
				l5.84-5.92c-3.65-3.43-8.62-4.45-14.54-4.45c-7.74,0-14.68,4.23-14.68,12.12c0,7.01,4.24,10.01,11.1,10.67l5.99,0.58
				c2.99,0.3,4.02,1.61,4.02,3.51c0,2.85-3.43,3.94-6.72,3.94c-2.92,0-7.01-0.44-10.15-3.58l-6.21,6.2
				c4.82,4.82,10.23,5.47,16.22,5.47C694.52,80.09,701.68,76.08,701.68,67.68 M653.04,60.59c0,6.21-0.73,10.96-6.43,10.96
				s-6.43-4.75-6.43-10.96c0-6.21,0.73-10.89,6.43-10.89S653.04,54.38,653.04,60.59 M662.52,60.59c0-5.7-0.07-12.2-3.87-16
				c-2.12-2.11-5.55-3.43-9.28-3.43c-3.87,0-6.73,1.02-9.21,3.79V27.65h-9.48v52h9.19v-3.57c2.63,2.92,5.48,4.01,9.5,4.01
				c3.73,0,7.16-1.31,9.28-3.43C662.45,72.87,662.52,66.29,662.52,60.59 M609.5,65.63c0,2.34-0.37,3.87-1.39,4.83
				c-1.69,1.61-3.37,1.83-6,1.83c-3.73,0-5.48-1.75-5.48-4.39c0-2.7,1.9-4.32,5.34-4.32h7.53V65.63z M618.98,79.65V54.6
				c0-8.91-5.55-13.44-16.21-13.44c-6.36,0-10.01,1.17-13.73,5.25l6.06,5.92c1.97-2.26,3.65-3.15,7.31-3.15c5.04,0,7.09,1.83,7.09,6
				v1.9h-8.99c-8.84,0-13,4.96-13,11.02c0,3.37,1.09,6.43,3.14,8.55c2.26,2.26,5.4,3.35,9.72,3.35c4.38,0,6.79-1.09,9.36-3.65v3.28
				H618.98z M581.15,79.65v-8.02h-3.65c-2.41,0-3.36-1.17-3.36-3.43V27.65h-9.49v41.13c0,5.4,3.28,10.87,11.09,10.87H581.15z
				 M552.88,79.65V41.6h-9.49v23.01c0,5.19-3.37,6.94-6.36,6.94c-2.99,0-6.29-1.75-6.29-6.94V41.6h-9.49v24.32
				c0,4.16,0.8,7.74,3.87,10.81c2.12,2.12,5.18,3.35,8.98,3.35c3.51,0,7.01-1.31,9.5-3.94v3.5H552.88z M510,79.65V55.03
				c0-8.03-4.38-13.87-12.7-13.87c-3.36,0-6.57,1.31-9.14,3.94V27.65h-9.49v52h9.49V56.42c0-4.97,3.15-6.72,6.14-6.72
				c2.99,0,6.21,1.68,6.21,6.72v23.23H510z M469.82,74.91l-6.43-6.35c-1.97,2.12-3.65,2.99-6.14,2.99c-2.26,0-4.02-0.8-5.41-2.48
				c-1.46-1.83-2.12-4.46-2.12-8.48s0.66-6.57,2.12-8.4c1.39-1.69,3.14-2.49,5.41-2.49c2.48,0,4.16,0.88,6.14,3l6.43-6.43
				c-3.36-3.5-7.3-5.11-12.56-5.11c-7.6,0-17.01,4.01-17.01,19.43s9.41,19.5,17.01,19.5C462.52,80.09,466.46,78.41,469.82,74.91
				 M432.72,67.68c0-6.43-3.8-10.45-11.32-11.18l-5.99-0.58c-3.36-0.29-3.94-1.9-3.94-3.29c0-1.9,1.61-3.66,5.41-3.66
				c3.29,0,6.65,0.58,8.84,2.56l5.84-5.92c-3.65-3.43-8.62-4.45-14.54-4.45c-7.74,0-14.68,4.23-14.68,12.12
				c0,7.01,4.24,10.01,11.1,10.67l5.99,0.58c2.99,0.3,4.02,1.61,4.02,3.51c0,2.85-3.43,3.94-6.72,3.94c-2.92,0-7.01-0.44-10.15-3.58
				l-6.21,6.2c4.82,4.82,10.23,5.47,16.22,5.47C425.56,80.09,432.72,76.08,432.72,67.68 M395.02,79.65v-8.02h-3.66
				c-2.41,0-3.35-1.17-3.35-3.43V27.65h-9.49v41.13c0,5.4,3.29,10.87,11.09,10.87H395.02z M357.7,65.63c0,2.34-0.37,3.87-1.39,4.83
				c-1.68,1.61-3.36,1.83-6,1.83c-3.73,0-5.48-1.75-5.48-4.39c0-2.7,1.9-4.32,5.33-4.32h7.53V65.63z M367.19,79.65V54.6
				c0-8.91-5.55-13.44-16.22-13.44c-6.36,0-10.01,1.17-13.73,5.25l6.06,5.92c1.97-2.26,3.65-3.15,7.3-3.15c5.05,0,7.09,1.83,7.09,6
				v1.9h-8.99c-8.84,0-13,4.96-13,11.02c0,3.37,1.1,6.43,3.14,8.55c2.26,2.26,5.4,3.35,9.71,3.35c4.39,0,6.8-1.09,9.36-3.65v3.28
				H367.19z M318.84,57.09h-14.46c0.07-1.68,0.29-2.71,0.88-4.1c1.02-2.26,3.14-3.95,6.36-3.95s5.33,1.69,6.36,3.95
				C318.54,54.38,318.76,55.41,318.84,57.09 M328.19,63.58v-4.23c0-10.45-5.99-18.18-16.58-18.18c-9.86,0-16.58,7.01-16.58,19.43
				c0,15.41,8.61,19.5,17.6,19.5c6.87,0,10.59-2.11,14.46-5.98l-5.77-5.63c-2.41,2.42-4.46,3.58-8.62,3.58
				c-5.33,0-8.33-3.58-8.33-8.48H328.19z M292.32,44.74c-2.63-2.62-5.26-3.57-8.98-3.57c-4.09,0-7.74,1.9-9.57,4.09V41.6h-9.27
				v38.05h9.49V56.71c0-4.82,3.21-7.01,6.14-7.01c2.34,0,3.58,0.8,5.04,2.26L292.32,44.74z M256.82,79.65l-14.61-22.71L255.8,41.6
				h-11.47l-12.64,15.55V27.65h-9.49v52h9.49V68.33l4.02-4.53l9.35,15.85H256.82z M215.33,44.74c-2.63-2.62-5.26-3.57-8.98-3.57
				c-4.09,0-7.74,1.9-9.57,4.09V41.6h-9.27v38.05h9.49V56.71c0-4.82,3.21-7.01,6.14-7.01c2.34,0,3.58,0.8,5.04,2.26L215.33,44.74z
				 M167.92,57.09h-14.46c0.07-1.68,0.29-2.71,0.88-4.1c1.02-2.26,3.14-3.95,6.36-3.95c3.21,0,5.33,1.69,6.36,3.95
				C167.63,54.38,167.85,55.41,167.92,57.09 M177.27,63.58v-4.23c0-10.45-5.99-18.18-16.58-18.18c-9.86,0-16.57,7.01-16.57,19.43
				c0,15.41,8.61,19.5,17.59,19.5c6.87,0,10.59-2.11,14.46-5.98l-5.77-5.63c-2.41,2.42-4.46,3.58-8.62,3.58
				c-5.33,0-8.33-3.58-8.33-8.48H177.27z M141.7,27.65h-10.59L123,60.44l-9.5-32.79h-7.6l-9.5,32.79l-8.04-32.79H77.78l13.88,52
				h8.47l9.57-31.55l9.57,31.55h8.47L141.7,27.65z"/>
		</g>
		<g style="clip-path:url(#SVGID_00000000909734016917967460000007235518897804284329_);">
			<rect x="3.09" y="348.94" class="st3" width="992.7" height="3.37"/>
		</g>
		<g style="clip-path:url(#SVGID_00000000909734016917967460000007235518897804284329_);">
			<rect x="3.09" y="232.07" class="st3" width="992.7" height="3.37"/>
		</g>
		<g style="clip-path:url(#SVGID_00000000909734016917967460000007235518897804284329_);">
			<rect x="3.09" y="463.01" class="st3" width="992.7" height="3.37"/>
		</g>
		<g style="clip-path:url(#SVGID_00000000909734016917967460000007235518897804284329_);">
			<rect x="3.09" y="585.51" class="st3" width="992.7" height="3.37"/>
		</g>
		<g style="clip-path:url(#SVGID_00000000909734016917967460000007235518897804284329_);">
			<rect x="3.09" y="702.39" class="st3" width="992.7" height="3.37"/>
		</g>
		<g style="clip-path:url(#SVGID_00000000909734016917967460000007235518897804284329_);">
			<path class="st3" d="M711.9,661.25c0,4.06-2.4,6.62-5.82,6.62c-3.42,0-5.77-2.57-5.77-6.62c0-4.11,2.35-6.57,5.77-6.57
				C709.71,654.69,711.9,657.52,711.9,661.25 M717.34,661.15c0-6.68-4.48-10.99-9.98-10.99c-1.17,0-2.35,0.16-3.37,0.58l8.17-16.33
				h-5.82l-8.65,17.62c-1.65,3.3-2.83,6.24-2.83,9.34c0,7.05,4.69,11.37,11.26,11.37C712.7,672.73,717.34,668.14,717.34,661.15
				 M676.02,668.89l-3.69-3.63c-1.65,1.66-2.78,2.62-5.23,2.62c-4.38,0-6.62-3.05-6.62-9.02c0-5.88,2.24-8.97,6.62-8.97
				c2.41,0,3.63,0.96,5.23,2.56l3.69-3.57c-1.71-1.71-2.56-2.29-4.01-2.93c-1.39-0.58-2.99-0.9-4.85-0.9
				c-7.58,0-12.11,5.17-12.11,13.72c0,8.81,4.48,13.98,12.11,13.98c1.87,0,3.42-0.26,4.85-0.9
				C673.46,671.18,674.31,670.6,676.02,668.89 M650.13,668.89l-3.68-3.63c-1.66,1.66-2.78,2.62-5.23,2.62
				c-4.38,0-6.62-3.05-6.62-9.02c0-5.88,2.24-8.97,6.62-8.97c2.4,0,3.63,0.96,5.23,2.56l3.68-3.57c-1.71-1.71-2.56-2.29-4-2.93
				c-1.39-0.58-2.99-0.9-4.86-0.9c-7.57,0-12.11,5.17-12.11,13.72c0,8.81,4.48,13.98,12.11,13.98c1.87,0,3.42-0.26,4.86-0.9
				C647.56,671.18,648.42,670.6,650.13,668.89 M616.24,662.64c0,3.95-1.71,5.56-5.93,5.56c-3.69,0-5.34-1.23-5.34-3.85
				c0-2.56,1.65-3.85,4.86-3.85h6.41V662.64z M621.63,672.41v-18.09c0-6.14-3.79-9.28-11.32-9.28c-2.56,0-4.48,0.32-6.03,1.06
				c-1.33,0.59-2.02,1.23-3.52,2.83l3.57,3.37c0.8-1.02,1.39-1.55,2.19-1.92c0.96-0.48,2.08-0.7,3.64-0.7
				c4.27,0,6.09,1.49,6.09,5.02v1.98h-7.27c-5.77,0-9.28,2.93-9.28,7.84c0,5.23,3.36,8.16,9.39,8.16c3.21,0,4.97-0.48,7.21-2.71
				v2.45H621.63z M592.48,672.41v-27.06h-18.52v11.26c0,10.47-2.78,11-5.12,11h-0.85v4.8h2.56c5.28,0,8.64-2.98,8.64-14.46v-7.85
				h7.86v22.31H592.48z M544.22,672.41v-19.85l15.32,19.85h7.32l-15.96-20.07l14.63-17.94h-7.1l-14.2,18.04v-18.04h-5.76v38H544.22z
				 M519.62,630.46h-5.23l-15.22,45.9h5.23L519.62,630.46z M476.86,661.25c0,4.06-2.4,6.62-5.82,6.62s-5.77-2.57-5.77-6.62
				c0-4.11,2.35-6.57,5.77-6.57C474.67,654.69,476.86,657.52,476.86,661.25 M482.3,661.15c0-6.68-4.48-10.99-9.98-10.99
				c-1.17,0-2.35,0.16-3.37,0.58l8.18-16.33h-5.82l-8.65,17.62c-1.66,3.3-2.83,6.24-2.83,9.34c0,7.05,4.69,11.37,11.26,11.37
				C477.66,672.73,482.3,668.14,482.3,661.15 M434.69,656.67h-12.17c0.06-1.66,0.16-2.46,0.7-3.69c0.85-2.03,2.83-3.42,5.39-3.42
				c2.56,0,4.48,1.39,5.34,3.42C434.47,654.21,434.63,655.01,434.69,656.67 M440.08,660.45v-2.4c0-7.69-4.22-13.02-11.48-13.02
				c-6.94,0-11.47,5.06-11.47,13.82c0,10.31,5.38,13.88,12.17,13.88c4.75,0,7.37-1.44,10.14-4.21l-3.47-3.26
				c-1.92,1.92-3.52,2.78-6.56,2.78c-4.43,0-6.89-2.94-6.89-7.59H440.08z M411.36,664.14c0-4.8-2.99-7.21-8.06-7.64l-4.27-0.37
				c-2.88-0.27-3.74-1.49-3.74-3.1c0-2.03,1.65-3.47,4.91-3.47c2.56,0,4.96,0.53,6.67,1.98l3.42-3.47
				c-2.51-2.19-5.98-3.03-10.04-3.03c-5.66,0-10.19,2.98-10.19,8.27c0,4.75,2.93,7.05,8.01,7.48l4.32,0.37
				c2.62,0.21,3.63,1.39,3.63,3.2c0,2.57-2.61,3.74-5.92,3.74c-2.67,0-5.61-0.59-7.79-2.83l-3.58,3.57
				c3.2,3.15,6.94,3.89,11.37,3.89C406.56,672.73,411.36,669.8,411.36,664.14 M384.51,664.14c0-4.8-2.99-7.21-8.06-7.64l-4.27-0.37
				c-2.88-0.27-3.74-1.49-3.74-3.1c0-2.03,1.66-3.47,4.91-3.47c2.56,0,4.97,0.53,6.68,1.98l3.42-3.47
				c-2.51-2.19-5.98-3.03-10.04-3.03c-5.66,0-10.2,2.98-10.2,8.27c0,4.75,2.94,7.05,8.01,7.48l4.33,0.37
				c2.61,0.21,3.63,1.39,3.63,3.2c0,2.57-2.62,3.74-5.93,3.74c-2.67,0-5.6-0.59-7.79-2.83l-3.57,3.57c3.2,3.15,6.94,3.89,11.37,3.89
				C379.71,672.73,384.51,669.8,384.51,664.14 M350.14,662.64c0,1.92-0.37,3.2-1.17,4.01c-1.44,1.39-2.99,1.55-5.07,1.55
				c-3.42,0-4.97-1.39-4.97-3.85c0-2.46,1.66-3.9,4.86-3.9h6.36V662.64z M355.57,672.41v-18.09c0-6.14-3.73-9.28-11.15-9.28
				c-4.48,0-7.15,0.9-9.71,3.89l3.57,3.37c1.49-1.92,2.94-2.62,5.93-2.62c4.22,0,5.93,1.66,5.93,5.07v1.93h-7.15
				c-6.19,0-9.34,3.25-9.34,7.79c0,2.3,0.75,4.38,2.14,5.82c1.65,1.65,3.89,2.45,7.25,2.45c3.37,0,5.24-0.8,7.21-2.77v2.45H355.57z
				 M329.15,672.41v-4.64h-2.4c-2.19,0-2.93-1.07-2.93-3.15v-30.21h-5.44v30.53c0,4,2.24,7.47,7.41,7.47H329.15z M313.14,672.41
				l-13.62-23.11l12.33-14.89h-7.05l-15.54,19.11v-19.11h-5.75v38h5.75v-11.05l6.41-7.69l10.68,18.73H313.14z"/>
		</g>
		<g style="clip-path:url(#SVGID_00000000909734016917967460000007235518897804284329_);">
			<path class="st3" d="M717.87,516.77v-4.85h-22.63v10.83h5.23v-5.98h11.59l-12.76,33.15h5.87L717.87,516.77z M676.02,546.39
				l-3.69-3.63c-1.65,1.66-2.78,2.62-5.23,2.62c-4.38,0-6.62-3.05-6.62-9.02c0-5.88,2.24-8.97,6.62-8.97c2.41,0,3.63,0.96,5.23,2.56
				l3.69-3.57c-1.71-1.71-2.56-2.29-4.01-2.93c-1.39-0.58-2.99-0.9-4.85-0.9c-7.58,0-12.11,5.17-12.11,13.72
				c0,8.81,4.48,13.98,12.11,13.98c1.87,0,3.42-0.26,4.85-0.9C673.46,548.69,674.31,548.1,676.02,546.39 M650.13,546.39l-3.68-3.63
				c-1.66,1.66-2.78,2.62-5.23,2.62c-4.38,0-6.62-3.05-6.62-9.02c0-5.88,2.24-8.97,6.62-8.97c2.4,0,3.63,0.96,5.23,2.56l3.68-3.57
				c-1.71-1.71-2.56-2.29-4-2.93c-1.39-0.58-2.99-0.9-4.86-0.9c-7.57,0-12.11,5.17-12.11,13.72c0,8.81,4.48,13.98,12.11,13.98
				c1.87,0,3.42-0.26,4.86-0.9C647.56,548.69,648.42,548.1,650.13,546.39 M616.24,540.15c0,3.95-1.71,5.56-5.93,5.56
				c-3.69,0-5.34-1.23-5.34-3.85c0-2.56,1.65-3.84,4.86-3.84h6.41V540.15z M621.63,549.91v-18.09c0-6.14-3.79-9.28-11.32-9.28
				c-2.56,0-4.48,0.32-6.03,1.06c-1.33,0.59-2.02,1.23-3.52,2.83l3.57,3.37c0.8-1.02,1.39-1.55,2.19-1.92
				c0.96-0.48,2.08-0.7,3.64-0.7c4.27,0,6.09,1.49,6.09,5.02v1.98h-7.27c-5.77,0-9.28,2.93-9.28,7.84c0,5.23,3.36,8.16,9.39,8.16
				c3.21,0,4.97-0.48,7.21-2.72v2.45H621.63z M592.48,549.91v-27.06h-18.52v11.26c0,10.47-2.78,11-5.12,11h-0.85v4.8h2.56
				c5.28,0,8.64-2.98,8.64-14.46v-7.85h7.86v22.31H592.48z M544.22,549.91v-19.85l15.32,19.85h7.32l-15.96-20.07l14.63-17.94h-7.1
				l-14.2,18.04v-18.04h-5.76v38H544.22z M519.62,507.96h-5.23l-15.22,45.9h5.23L519.62,507.96z M482.84,516.77v-4.85h-22.63v10.83
				h5.23v-5.98h11.58l-12.76,33.15h5.87L482.84,516.77z M434.69,534.17h-12.17c0.06-1.66,0.16-2.46,0.7-3.69
				c0.85-2.03,2.83-3.42,5.39-3.42c2.56,0,4.48,1.39,5.34,3.42C434.47,531.71,434.63,532.52,434.69,534.17 M440.08,537.95v-2.4
				c0-7.69-4.22-13.02-11.48-13.02c-6.94,0-11.47,5.06-11.47,13.82c0,10.3,5.38,13.87,12.17,13.87c4.75,0,7.37-1.44,10.14-4.21
				l-3.47-3.26c-1.92,1.92-3.52,2.78-6.56,2.78c-4.43,0-6.89-2.94-6.89-7.59H440.08z M411.36,541.64c0-4.8-2.99-7.21-8.06-7.64
				l-4.27-0.37c-2.88-0.27-3.74-1.49-3.74-3.1c0-2.03,1.65-3.47,4.91-3.47c2.56,0,4.96,0.53,6.67,1.98l3.42-3.47
				c-2.51-2.19-5.98-3.03-10.04-3.03c-5.66,0-10.19,2.98-10.19,8.27c0,4.75,2.93,7.05,8.01,7.48l4.32,0.37
				c2.62,0.21,3.63,1.39,3.63,3.2c0,2.57-2.61,3.74-5.92,3.74c-2.67,0-5.61-0.59-7.79-2.83l-3.58,3.58
				c3.2,3.14,6.94,3.89,11.37,3.89C406.56,550.23,411.36,547.3,411.36,541.64 M384.51,541.64c0-4.8-2.99-7.21-8.06-7.64l-4.27-0.37
				c-2.88-0.27-3.74-1.49-3.74-3.1c0-2.03,1.66-3.47,4.91-3.47c2.56,0,4.97,0.53,6.68,1.98l3.42-3.47
				c-2.51-2.19-5.98-3.03-10.04-3.03c-5.66,0-10.2,2.98-10.2,8.27c0,4.75,2.94,7.05,8.01,7.48l4.33,0.37
				c2.61,0.21,3.63,1.39,3.63,3.2c0,2.57-2.62,3.74-5.93,3.74c-2.67,0-5.6-0.59-7.79-2.83l-3.57,3.58c3.2,3.14,6.94,3.89,11.37,3.89
				C379.71,550.23,384.51,547.3,384.51,541.64 M350.14,540.15c0,1.92-0.37,3.2-1.17,4.01c-1.44,1.39-2.99,1.55-5.07,1.55
				c-3.42,0-4.97-1.39-4.97-3.85c0-2.46,1.66-3.9,4.86-3.9h6.36V540.15z M355.57,549.91v-18.09c0-6.14-3.73-9.28-11.15-9.28
				c-4.48,0-7.15,0.9-9.71,3.89l3.57,3.37c1.49-1.92,2.94-2.62,5.93-2.62c4.22,0,5.93,1.66,5.93,5.07v1.93h-7.15
				c-6.19,0-9.34,3.25-9.34,7.79c0,2.3,0.75,4.38,2.14,5.82c1.65,1.65,3.89,2.45,7.25,2.45c3.37,0,5.24-0.8,7.21-2.77v2.45H355.57z
				 M329.15,549.91v-4.64h-2.4c-2.19,0-2.93-1.07-2.93-3.15v-30.21h-5.44v30.53c0,4,2.24,7.47,7.41,7.47H329.15z M313.14,549.91
				l-13.62-23.11l12.33-14.89h-7.05l-15.54,19.11v-19.11h-5.75v38h5.75v-11.05l6.41-7.69l10.68,18.73H313.14z"/>
		</g>
		<g style="clip-path:url(#SVGID_00000000909734016917967460000007235518897804284329_);">
			<path class="st3" d="M711.73,405.39c0,3.36-2.35,5.77-5.66,5.77c-3.32,0-5.61-2.4-5.61-5.77c0-3.32,2.29-5.82,5.61-5.82
				C709.39,399.57,711.73,402.07,711.73,405.39 M712.32,422.2c0,3.52-2.73,6.3-6.25,6.3c-3.53,0-6.25-2.78-6.25-6.3
				c0-3.52,2.72-6.36,6.25-6.36C709.6,415.85,712.32,418.68,712.32,422.2 M717.81,422.31c0-4.54-2.56-7.32-5.23-8.91
				c2.46-1.49,4.59-4.16,4.59-8.17c0-6.36-4.91-10.51-11.1-10.51c-6.2,0-11.05,4.16-11.05,10.51c0,4.01,2.13,6.68,4.59,8.17
				c-2.67,1.6-5.23,4.37-5.23,8.91c0,6.89,5.17,11.05,11.69,11.05C712.59,433.36,717.81,429.2,717.81,422.31 M676.02,429.52
				l-3.69-3.63c-1.65,1.66-2.78,2.62-5.23,2.62c-4.38,0-6.62-3.05-6.62-9.02c0-5.88,2.24-8.97,6.62-8.97c2.41,0,3.63,0.96,5.23,2.56
				l3.69-3.57c-1.71-1.71-2.56-2.29-4.01-2.93c-1.39-0.58-2.99-0.9-4.85-0.9c-7.58,0-12.11,5.17-12.11,13.72
				c0,8.81,4.48,13.98,12.11,13.98c1.87,0,3.42-0.26,4.85-0.9C673.46,431.81,674.31,431.23,676.02,429.52 M650.13,429.52l-3.68-3.63
				c-1.66,1.66-2.78,2.62-5.23,2.62c-4.38,0-6.62-3.05-6.62-9.02c0-5.88,2.24-8.97,6.62-8.97c2.4,0,3.63,0.96,5.23,2.56l3.68-3.57
				c-1.71-1.71-2.56-2.29-4-2.93c-1.39-0.58-2.99-0.9-4.86-0.9c-7.57,0-12.11,5.17-12.11,13.72c0,8.81,4.48,13.98,12.11,13.98
				c1.87,0,3.42-0.26,4.86-0.9C647.56,431.81,648.42,431.23,650.13,429.52 M616.24,423.27c0,3.95-1.71,5.56-5.93,5.56
				c-3.69,0-5.34-1.23-5.34-3.85c0-2.56,1.65-3.84,4.86-3.84h6.41V423.27z M621.63,433.04v-18.09c0-6.14-3.79-9.28-11.32-9.28
				c-2.56,0-4.48,0.32-6.03,1.06c-1.33,0.59-2.02,1.23-3.52,2.83l3.57,3.37c0.8-1.02,1.39-1.55,2.19-1.92
				c0.96-0.48,2.08-0.7,3.64-0.7c4.27,0,6.09,1.49,6.09,5.02v1.98h-7.27c-5.77,0-9.28,2.93-9.28,7.84c0,5.23,3.36,8.16,9.39,8.16
				c3.21,0,4.97-0.48,7.21-2.72v2.45H621.63z M592.48,433.04v-27.06h-18.52v11.26c0,10.47-2.78,11-5.12,11h-0.85v4.8h2.56
				c5.28,0,8.64-2.98,8.64-14.46v-7.85h7.86v22.31H592.48z M544.22,433.04v-19.85l15.32,19.85h7.32l-15.96-20.07l14.63-17.94h-7.1
				l-14.2,18.04v-18.04h-5.76v38H544.22z M519.62,391.08h-5.23l-15.22,45.9h5.23L519.62,391.08z M476.7,405.39
				c0,3.36-2.35,5.77-5.66,5.77c-3.31,0-5.61-2.4-5.61-5.77c0-3.32,2.3-5.82,5.61-5.82C474.35,399.57,476.7,402.07,476.7,405.39
				 M477.29,422.2c0,3.52-2.73,6.3-6.25,6.3s-6.25-2.78-6.25-6.3c0-3.52,2.73-6.36,6.25-6.36S477.29,418.68,477.29,422.2
				 M482.78,422.31c0-4.54-2.56-7.32-5.22-8.91c2.45-1.49,4.59-4.16,4.59-8.17c0-6.36-4.91-10.51-11.1-10.51
				c-6.19,0-11.05,4.16-11.05,10.51c0,4.01,2.14,6.68,4.59,8.17c-2.66,1.6-5.23,4.37-5.23,8.91c0,6.89,5.18,11.05,11.69,11.05
				C477.56,433.36,482.78,429.2,482.78,422.31 M434.69,417.3h-12.17c0.06-1.66,0.16-2.46,0.7-3.69c0.85-2.03,2.83-3.42,5.39-3.42
				c2.56,0,4.48,1.39,5.34,3.42C434.47,414.83,434.63,415.64,434.69,417.3 M440.08,421.08v-2.4c0-7.69-4.22-13.02-11.48-13.02
				c-6.94,0-11.47,5.06-11.47,13.82c0,10.3,5.38,13.87,12.17,13.87c4.75,0,7.37-1.44,10.14-4.21l-3.47-3.26
				c-1.92,1.92-3.52,2.78-6.56,2.78c-4.43,0-6.89-2.94-6.89-7.59H440.08z M411.36,424.76c0-4.8-2.99-7.21-8.06-7.64l-4.27-0.37
				c-2.88-0.27-3.74-1.49-3.74-3.1c0-2.03,1.65-3.47,4.91-3.47c2.56,0,4.96,0.53,6.67,1.98l3.42-3.47
				c-2.51-2.19-5.98-3.03-10.04-3.03c-5.66,0-10.19,2.98-10.19,8.27c0,4.75,2.93,7.05,8.01,7.48l4.32,0.37
				c2.62,0.21,3.63,1.39,3.63,3.2c0,2.57-2.61,3.74-5.92,3.74c-2.67,0-5.61-0.59-7.79-2.83l-3.58,3.58
				c3.2,3.14,6.94,3.89,11.37,3.89C406.56,433.36,411.36,430.42,411.36,424.76 M384.51,424.76c0-4.8-2.99-7.21-8.06-7.64l-4.27-0.37
				c-2.88-0.27-3.74-1.49-3.74-3.1c0-2.03,1.66-3.47,4.91-3.47c2.56,0,4.97,0.53,6.68,1.98l3.42-3.47
				c-2.51-2.19-5.98-3.03-10.04-3.03c-5.66,0-10.2,2.98-10.2,8.27c0,4.75,2.94,7.05,8.01,7.48l4.33,0.37
				c2.61,0.21,3.63,1.39,3.63,3.2c0,2.57-2.62,3.74-5.93,3.74c-2.67,0-5.6-0.59-7.79-2.83l-3.57,3.58c3.2,3.14,6.94,3.89,11.37,3.89
				C379.71,433.36,384.51,430.42,384.51,424.76 M350.14,423.27c0,1.92-0.37,3.2-1.17,4.01c-1.44,1.39-2.99,1.55-5.07,1.55
				c-3.42,0-4.97-1.39-4.97-3.85s1.66-3.9,4.86-3.9h6.36V423.27z M355.57,433.04v-18.09c0-6.14-3.73-9.28-11.15-9.28
				c-4.48,0-7.15,0.9-9.71,3.89l3.57,3.37c1.49-1.92,2.94-2.62,5.93-2.62c4.22,0,5.93,1.66,5.93,5.07v1.93h-7.15
				c-6.19,0-9.34,3.25-9.34,7.79c0,2.3,0.75,4.38,2.14,5.82c1.65,1.65,3.89,2.45,7.25,2.45c3.37,0,5.24-0.8,7.21-2.77v2.45H355.57z
				 M329.15,433.04v-4.64h-2.4c-2.19,0-2.93-1.07-2.93-3.15v-30.21h-5.44v30.53c0,4,2.24,7.47,7.41,7.47H329.15z M313.14,433.04
				l-13.62-23.11l12.33-14.89h-7.05l-15.54,19.11v-19.11h-5.75v38h5.75v-11.05l6.41-7.69l10.68,18.73H313.14z"/>
		</g>
		<g style="clip-path:url(#SVGID_00000000909734016917967460000007235518897804284329_);">
			<path class="st3" d="M711.9,289.31c0,4.11-2.4,6.57-5.82,6.57c-3.64,0-5.77-2.83-5.77-6.57c0-4.06,2.35-6.62,5.77-6.62
				C709.49,282.69,711.9,285.25,711.9,289.31 M717.34,289.2c0-7.05-4.69-11.37-11.26-11.37s-11.21,4.59-11.21,11.58
				c0,6.68,4.43,11,9.93,11c1.17,0,2.4-0.16,3.42-0.59l-8.17,16.33h5.82l8.65-17.62C716.16,295.24,717.34,292.3,717.34,289.2
				 M676.02,312.64l-3.69-3.63c-1.65,1.66-2.78,2.62-5.23,2.62c-4.38,0-6.62-3.05-6.62-9.02c0-5.88,2.24-8.97,6.62-8.97
				c2.41,0,3.63,0.96,5.23,2.56l3.69-3.57c-1.71-1.71-2.56-2.29-4.01-2.93c-1.39-0.58-2.99-0.9-4.85-0.9
				c-7.58,0-12.11,5.17-12.11,13.72c0,8.81,4.48,13.98,12.11,13.98c1.87,0,3.42-0.26,4.85-0.9
				C673.46,314.93,674.31,314.35,676.02,312.64 M650.13,312.64l-3.68-3.63c-1.66,1.66-2.78,2.62-5.23,2.62
				c-4.38,0-6.62-3.05-6.62-9.02c0-5.88,2.24-8.97,6.62-8.97c2.4,0,3.63,0.96,5.23,2.56l3.68-3.57c-1.71-1.71-2.56-2.29-4-2.93
				c-1.39-0.58-2.99-0.9-4.86-0.9c-7.57,0-12.11,5.17-12.11,13.72c0,8.81,4.48,13.98,12.11,13.98c1.87,0,3.42-0.26,4.86-0.9
				C647.56,314.93,648.42,314.35,650.13,312.64 M616.24,306.39c0,3.95-1.71,5.56-5.93,5.56c-3.69,0-5.34-1.23-5.34-3.85
				c0-2.56,1.65-3.84,4.86-3.84h6.41V306.39z M621.63,316.16v-18.09c0-6.14-3.79-9.28-11.32-9.28c-2.56,0-4.48,0.32-6.03,1.06
				c-1.33,0.59-2.02,1.23-3.52,2.83l3.57,3.37c0.8-1.02,1.39-1.55,2.19-1.92c0.96-0.48,2.08-0.7,3.64-0.7
				c4.27,0,6.09,1.49,6.09,5.02v1.98h-7.27c-5.77,0-9.28,2.93-9.28,7.84c0,5.23,3.36,8.16,9.39,8.16c3.21,0,4.97-0.48,7.21-2.72
				v2.45H621.63z M592.48,316.16V289.1h-18.52v11.26c0,10.47-2.78,11-5.12,11h-0.85v4.8h2.56c5.28,0,8.64-2.98,8.64-14.46v-7.85
				h7.86v22.31H592.48z M544.22,316.16v-19.85l15.32,19.85h7.32l-15.96-20.07l14.63-17.94h-7.1l-14.2,18.04v-18.04h-5.76v38H544.22z
				 M519.62,274.21h-5.23l-15.22,45.9h5.23L519.62,274.21z M476.86,289.31c0,4.11-2.4,6.57-5.82,6.57c-3.63,0-5.77-2.83-5.77-6.57
				c0-4.06,2.35-6.62,5.77-6.62S476.86,285.25,476.86,289.31 M482.3,289.2c0-7.05-4.69-11.37-11.26-11.37
				c-6.57,0-11.2,4.59-11.2,11.58c0,6.68,4.42,11,9.92,11c1.17,0,2.4-0.16,3.42-0.59l-8.17,16.33h5.82l8.65-17.62
				C481.13,295.24,482.3,292.3,482.3,289.2 M434.69,300.42h-12.17c0.06-1.66,0.16-2.46,0.7-3.69c0.85-2.03,2.83-3.42,5.39-3.42
				c2.56,0,4.48,1.39,5.34,3.42C434.47,297.96,434.63,298.76,434.69,300.42 M440.08,304.2v-2.4c0-7.69-4.22-13.02-11.48-13.02
				c-6.94,0-11.47,5.06-11.47,13.82c0,10.3,5.38,13.87,12.17,13.87c4.75,0,7.37-1.44,10.14-4.21l-3.47-3.26
				c-1.92,1.92-3.52,2.78-6.56,2.78c-4.43,0-6.89-2.94-6.89-7.59H440.08z M411.36,307.89c0-4.8-2.99-7.21-8.06-7.64l-4.27-0.37
				c-2.88-0.27-3.74-1.49-3.74-3.1c0-2.03,1.65-3.47,4.91-3.47c2.56,0,4.96,0.53,6.67,1.98l3.42-3.47
				c-2.51-2.19-5.98-3.03-10.04-3.03c-5.66,0-10.19,2.98-10.19,8.27c0,4.75,2.93,7.05,8.01,7.48l4.32,0.37
				c2.62,0.21,3.63,1.39,3.63,3.2c0,2.57-2.61,3.74-5.92,3.74c-2.67,0-5.61-0.59-7.79-2.83l-3.58,3.58
				c3.2,3.14,6.94,3.89,11.37,3.89C406.56,316.48,411.36,313.55,411.36,307.89 M384.51,307.89c0-4.8-2.99-7.21-8.06-7.64l-4.27-0.37
				c-2.88-0.27-3.74-1.49-3.74-3.1c0-2.03,1.66-3.47,4.91-3.47c2.56,0,4.97,0.53,6.68,1.98l3.42-3.47
				c-2.51-2.19-5.98-3.03-10.04-3.03c-5.66,0-10.2,2.98-10.2,8.27c0,4.75,2.94,7.05,8.01,7.48l4.33,0.37
				c2.61,0.21,3.63,1.39,3.63,3.2c0,2.57-2.62,3.74-5.93,3.74c-2.67,0-5.6-0.59-7.79-2.83l-3.57,3.58c3.2,3.14,6.94,3.89,11.37,3.89
				C379.71,316.48,384.51,313.55,384.51,307.89 M350.14,306.39c0,1.92-0.37,3.2-1.17,4.01c-1.44,1.39-2.99,1.55-5.07,1.55
				c-3.42,0-4.97-1.39-4.97-3.85c0-2.46,1.66-3.9,4.86-3.9h6.36V306.39z M355.57,316.16v-18.09c0-6.14-3.73-9.28-11.15-9.28
				c-4.48,0-7.15,0.9-9.71,3.89l3.57,3.37c1.49-1.92,2.94-2.62,5.93-2.62c4.22,0,5.93,1.66,5.93,5.07v1.93h-7.15
				c-6.19,0-9.34,3.25-9.34,7.79c0,2.3,0.75,4.38,2.14,5.82c1.65,1.65,3.89,2.45,7.25,2.45c3.37,0,5.24-0.8,7.21-2.77v2.45H355.57z
				 M329.15,316.16v-4.64h-2.4c-2.19,0-2.93-1.07-2.93-3.15v-30.21h-5.44v30.53c0,4,2.24,7.47,7.41,7.47H329.15z M313.14,316.16
				l-13.62-23.11l12.33-14.89h-7.05l-15.54,19.11v-19.11h-5.75v38h5.75v-11.05l6.41-7.69l10.68,18.73H313.14z"/>
		</g>
		<g style="clip-path:url(#SVGID_00000000909734016917967460000007235518897804284329_);">
			<path class="st3" d="M740.61,188.55c0,3.69-2.08,6.2-5.55,6.2c-3.47,0-5.51-2.51-5.51-6.2v-16.55c0-3.69,2.03-6.19,5.51-6.19
				c3.47,0,5.55,2.51,5.55,6.19V188.55z M746.05,188.72v-16.87c0-6.78-4.96-10.88-10.99-10.88c-6.03,0-10.94,4.11-10.94,10.88v16.87
				c0,6.78,4.91,10.88,10.94,10.88C741.1,199.6,746.05,195.5,746.05,188.72 M710.82,199.28v-38h-5.44l-7.42,6.41v6.03l7.42-6.51
				v32.07H710.82z M676.02,195.76l-3.68-3.63c-1.66,1.66-2.78,2.62-5.23,2.62c-4.38,0-6.62-3.05-6.62-9.02
				c0-5.88,2.24-8.97,6.62-8.97c2.4,0,3.63,0.96,5.23,2.56l3.68-3.57c-1.71-1.71-2.56-2.29-4-2.93c-1.39-0.58-2.99-0.9-4.86-0.9
				c-7.57,0-12.11,5.17-12.11,13.72c0,8.81,4.48,13.98,12.11,13.98c1.87,0,3.42-0.26,4.86-0.9
				C673.45,198.06,674.31,197.47,676.02,195.76 M650.13,195.76l-3.69-3.63c-1.65,1.66-2.78,2.62-5.23,2.62
				c-4.38,0-6.62-3.05-6.62-9.02c0-5.88,2.24-8.97,6.62-8.97c2.4,0,3.63,0.96,5.23,2.56l3.69-3.57c-1.71-1.71-2.56-2.29-4.01-2.93
				c-1.39-0.58-2.99-0.9-4.85-0.9c-7.58,0-12.11,5.17-12.11,13.72c0,8.81,4.48,13.98,12.11,13.98c1.87,0,3.42-0.26,4.85-0.9
				C647.57,198.06,648.42,197.47,650.13,195.76 M616.24,189.52c0,3.95-1.71,5.56-5.93,5.56c-3.68,0-5.34-1.23-5.34-3.85
				c0-2.56,1.66-3.84,4.86-3.84h6.41V189.52z M621.62,199.28v-18.09c0-6.14-3.79-9.28-11.32-9.28c-2.56,0-4.48,0.32-6.03,1.06
				c-1.34,0.59-2.03,1.23-3.52,2.83l3.57,3.37c0.8-1.02,1.39-1.55,2.19-1.92c0.96-0.48,2.08-0.7,3.63-0.7
				c4.27,0,6.09,1.49,6.09,5.02v1.98h-7.27c-5.77,0-9.28,2.93-9.28,7.84c0,5.23,3.35,8.16,9.39,8.16c3.2,0,4.97-0.48,7.21-2.72v2.45
				H621.62z M592.48,199.28v-27.06h-18.51v11.26c0,10.47-2.78,11-5.12,11h-0.85v4.8h2.56c5.28,0,8.64-2.98,8.64-14.46v-7.85h7.86
				v22.31H592.48z M544.22,199.28v-19.85l15.32,19.85h7.32l-15.96-20.07l14.63-17.94h-7.1l-14.2,18.04v-18.04h-5.76v38H544.22z
				 M519.62,157.33h-5.23l-15.21,45.9h5.23L519.62,157.33z M476.6,188.55c0,3.69-2.08,6.2-5.56,6.2c-3.47,0-5.5-2.51-5.5-6.2v-16.55
				c0-3.69,2.03-6.19,5.5-6.19c3.47,0,5.56,2.51,5.56,6.19V188.55z M482.04,188.72v-16.87c0-6.78-4.96-10.88-11-10.88
				c-6.03,0-10.93,4.11-10.93,10.88v16.87c0,6.78,4.9,10.88,10.93,10.88C477.07,199.6,482.04,195.5,482.04,188.72 M446.8,199.28v-38
				h-5.44l-7.42,6.41v6.03l7.42-6.51v32.07H446.8z M405.7,183.54h-12.17c0.06-1.66,0.16-2.46,0.7-3.69
				c0.85-2.03,2.83-3.42,5.39-3.42c2.56,0,4.48,1.39,5.34,3.42C405.49,181.08,405.65,181.88,405.7,183.54 M411.09,187.32v-2.4
				c0-7.69-4.22-13.02-11.48-13.02c-6.94,0-11.47,5.06-11.47,13.82c0,10.3,5.38,13.87,12.17,13.87c4.75,0,7.37-1.44,10.14-4.21
				l-3.47-3.26c-1.92,1.92-3.52,2.78-6.56,2.78c-4.43,0-6.89-2.94-6.89-7.59H411.09z M382.38,191.01c0-4.8-2.99-7.21-8.06-7.64
				l-4.27-0.37c-2.88-0.27-3.74-1.49-3.74-3.1c0-2.03,1.65-3.47,4.91-3.47c2.56,0,4.96,0.53,6.67,1.98l3.42-3.47
				c-2.51-2.19-5.98-3.03-10.04-3.03c-5.66,0-10.19,2.98-10.19,8.27c0,4.75,2.93,7.05,8.01,7.48l4.32,0.37
				c2.62,0.21,3.63,1.39,3.63,3.2c0,2.57-2.61,3.74-5.92,3.74c-2.67,0-5.61-0.59-7.79-2.83l-3.58,3.58
				c3.2,3.14,6.94,3.89,11.37,3.89C377.57,199.6,382.38,196.67,382.38,191.01 M355.53,191.01c0-4.8-2.99-7.21-8.06-7.64l-4.27-0.37
				c-2.88-0.27-3.74-1.49-3.74-3.1c0-2.03,1.66-3.47,4.91-3.47c2.56,0,4.97,0.53,6.68,1.98l3.42-3.47
				c-2.51-2.19-5.98-3.03-10.04-3.03c-5.66,0-10.2,2.98-10.2,8.27c0,4.75,2.94,7.05,8.01,7.48l4.33,0.37
				c2.61,0.21,3.63,1.39,3.63,3.2c0,2.57-2.62,3.74-5.93,3.74c-2.67,0-5.6-0.59-7.79-2.83l-3.57,3.58c3.2,3.14,6.94,3.89,11.37,3.89
				C350.72,199.6,355.53,196.67,355.53,191.01 M321.15,189.52c0,1.92-0.37,3.2-1.17,4.01c-1.44,1.39-2.99,1.55-5.07,1.55
				c-3.42,0-4.97-1.39-4.97-3.85c0-2.46,1.66-3.9,4.86-3.9h6.36V189.52z M326.59,199.28v-18.09c0-6.14-3.73-9.28-11.15-9.28
				c-4.48,0-7.15,0.9-9.71,3.89l3.57,3.37c1.49-1.92,2.94-2.62,5.93-2.62c4.22,0,5.93,1.66,5.93,5.07v1.93H314
				c-6.19,0-9.34,3.25-9.34,7.79c0,2.3,0.75,4.38,2.14,5.82c1.65,1.65,3.89,2.45,7.25,2.45s5.24-0.8,7.21-2.77v2.45H326.59z
				 M300.17,199.28v-4.64h-2.4c-2.19,0-2.93-1.07-2.93-3.15v-30.21h-5.44v30.53c0,4,2.24,7.47,7.41,7.47H300.17z M284.15,199.28
				l-13.62-23.11l12.33-14.89h-7.05l-15.54,19.11v-19.11h-5.75v38h5.75v-11.05l6.41-7.69l10.68,18.73H284.15z"/>
		</g>
		<g style="clip-path:url(#SVGID_00000000909734016917967460000007235518897804284329_);">
			<path class="st3" d="M717.44,770.97c0-3.58-0.43-7.27-3.31-10.14c-1.55-1.55-3.84-2.46-6.83-2.46c-2.78,0-5.02,0.85-6.3,2.19
				v-10.04h15.59v-4.85H696.1v20.76h4.96c0.59-1.87,2.3-3.42,5.39-3.42c4.38,0,5.56,3.42,5.56,7.96c0,2.56-0.21,5.07-1.81,6.68
				c-0.96,0.96-2.35,1.49-3.96,1.49c-3.42,0-5.12-1.92-5.55-5.29h-5.44c0.21,2.72,0.85,5.23,2.88,7.26
				c1.65,1.65,4.48,2.93,8.11,2.93c3.69,0,6.3-1.28,8.01-2.98C717.02,778.28,717.44,775.02,717.44,770.97 M676.02,780.15l-3.69-3.63
				c-1.65,1.66-2.78,2.62-5.23,2.62c-4.38,0-6.62-3.05-6.62-9.02c0-5.88,2.24-8.97,6.62-8.97c2.41,0,3.63,0.96,5.23,2.56l3.69-3.57
				c-1.71-1.71-2.56-2.29-4.01-2.93c-1.39-0.58-2.99-0.9-4.85-0.9c-7.58,0-12.11,5.17-12.11,13.72c0,8.81,4.48,13.98,12.11,13.98
				c1.87,0,3.42-0.26,4.85-0.9C673.46,782.44,674.31,781.86,676.02,780.15 M650.13,780.15l-3.68-3.63
				c-1.66,1.66-2.78,2.62-5.23,2.62c-4.38,0-6.62-3.05-6.62-9.02c0-5.88,2.24-8.97,6.62-8.97c2.4,0,3.63,0.96,5.23,2.56l3.68-3.57
				c-1.71-1.71-2.56-2.29-4-2.93c-1.39-0.58-2.99-0.9-4.86-0.9c-7.57,0-12.11,5.17-12.11,13.72c0,8.81,4.48,13.98,12.11,13.98
				c1.87,0,3.42-0.26,4.86-0.9C647.56,782.44,648.42,781.86,650.13,780.15 M616.24,773.9c0,3.95-1.71,5.56-5.93,5.56
				c-3.69,0-5.34-1.23-5.34-3.85c0-2.56,1.65-3.84,4.86-3.84h6.41V773.9z M621.63,783.67v-18.09c0-6.14-3.79-9.28-11.32-9.28
				c-2.56,0-4.48,0.32-6.03,1.06c-1.33,0.59-2.02,1.23-3.52,2.83l3.57,3.37c0.8-1.02,1.39-1.55,2.19-1.92
				c0.96-0.48,2.08-0.7,3.64-0.7c4.27,0,6.09,1.49,6.09,5.02v1.98h-7.27c-5.77,0-9.28,2.93-9.28,7.84c0,5.23,3.36,8.16,9.39,8.16
				c3.21,0,4.97-0.48,7.21-2.72v2.45H621.63z M592.48,783.67v-27.06h-18.52v11.26c0,10.47-2.78,11-5.12,11h-0.85v4.8h2.56
				c5.28,0,8.64-2.98,8.64-14.46v-7.85h7.86v22.31H592.48z M544.22,783.67v-19.85l15.32,19.85h7.32l-15.96-20.07l14.63-17.94h-7.1
				l-14.2,18.04v-18.04h-5.76v38H544.22z M519.62,741.71h-5.23l-15.22,45.9h5.23L519.62,741.71z M482.41,770.97
				c0-3.58-0.43-7.27-3.3-10.14c-1.55-1.55-3.84-2.46-6.83-2.46c-2.78,0-5.02,0.85-6.3,2.19v-10.04h15.59v-4.85h-20.49v20.76h4.96
				c0.59-1.87,2.3-3.42,5.4-3.42c4.38,0,5.55,3.42,5.55,7.96c0,2.56-0.21,5.07-1.81,6.68c-0.96,0.96-2.35,1.49-3.95,1.49
				c-3.42,0-5.13-1.92-5.56-5.29h-5.44c0.21,2.72,0.85,5.23,2.88,7.26c1.65,1.65,4.48,2.93,8.11,2.93c3.68,0,6.3-1.28,8.01-2.98
				C481.98,778.28,482.41,775.02,482.41,770.97 M434.69,767.93h-12.17c0.06-1.66,0.16-2.46,0.7-3.69c0.85-2.03,2.83-3.42,5.39-3.42
				c2.56,0,4.48,1.39,5.34,3.42C434.47,765.47,434.63,766.27,434.69,767.93 M440.08,771.71v-2.4c0-7.69-4.22-13.02-11.48-13.02
				c-6.94,0-11.47,5.06-11.47,13.82c0,10.31,5.38,13.88,12.17,13.88c4.75,0,7.37-1.44,10.14-4.21l-3.47-3.26
				c-1.92,1.92-3.52,2.78-6.56,2.78c-4.43,0-6.89-2.94-6.89-7.59H440.08z M411.36,775.39c0-4.8-2.99-7.21-8.06-7.64l-4.27-0.37
				c-2.88-0.27-3.74-1.49-3.74-3.1c0-2.03,1.65-3.47,4.91-3.47c2.56,0,4.96,0.53,6.67,1.98l3.42-3.47
				c-2.51-2.19-5.98-3.03-10.04-3.03c-5.66,0-10.19,2.98-10.19,8.27c0,4.75,2.93,7.05,8.01,7.48l4.32,0.37
				c2.62,0.21,3.63,1.39,3.63,3.2c0,2.57-2.61,3.74-5.92,3.74c-2.67,0-5.61-0.59-7.79-2.83l-3.58,3.57
				c3.2,3.15,6.94,3.89,11.37,3.89C406.56,783.99,411.36,781.05,411.36,775.39 M384.51,775.39c0-4.8-2.99-7.21-8.06-7.64l-4.27-0.37
				c-2.88-0.27-3.74-1.49-3.74-3.1c0-2.03,1.66-3.47,4.91-3.47c2.56,0,4.97,0.53,6.68,1.98l3.42-3.47
				c-2.51-2.19-5.98-3.03-10.04-3.03c-5.66,0-10.2,2.98-10.2,8.27c0,4.75,2.94,7.05,8.01,7.48l4.33,0.37
				c2.61,0.21,3.63,1.39,3.63,3.2c0,2.57-2.62,3.74-5.93,3.74c-2.67,0-5.6-0.59-7.79-2.83l-3.57,3.57c3.2,3.15,6.94,3.89,11.37,3.89
				C379.71,783.99,384.51,781.05,384.51,775.39 M350.14,773.9c0,1.92-0.37,3.2-1.17,4.01c-1.44,1.39-2.99,1.55-5.07,1.55
				c-3.42,0-4.97-1.39-4.97-3.85c0-2.46,1.66-3.9,4.86-3.9h6.36V773.9z M355.57,783.67v-18.09c0-6.14-3.73-9.28-11.15-9.28
				c-4.48,0-7.15,0.9-9.71,3.89l3.57,3.37c1.49-1.92,2.94-2.62,5.93-2.62c4.22,0,5.93,1.66,5.93,5.07v1.93h-7.15
				c-6.19,0-9.34,3.25-9.34,7.79c0,2.3,0.75,4.38,2.14,5.82c1.65,1.65,3.89,2.45,7.25,2.45c3.37,0,5.24-0.8,7.21-2.77v2.45H355.57z
				 M329.15,783.67v-4.64h-2.4c-2.19,0-2.93-1.07-2.93-3.15v-30.21h-5.44v30.53c0,4,2.24,7.47,7.41,7.47H329.15z M313.14,783.67
				l-13.62-23.11l12.33-14.89h-7.05l-15.54,19.11v-19.11h-5.75v38h5.75v-11.05l6.41-7.69l10.68,18.73H313.14z"/>
		</g>
	</g>
	<g>
		<polygon class="st4" points="20.73,755.85 36.8,755.85 28.77,745.23 		"/>
	</g>
	<g>
		<polygon class="st4" points="20.73,776.99 36.8,776.99 28.77,766.36 		"/>
	</g>
	<g>
		<polygon class="st4" points="20.73,798.12 36.8,798.12 28.77,787.5 		"/>
	</g>
	<g>
		<polygon class="st4" points="20.73,734.72 36.8,734.72 28.77,724.09 		"/>
	</g>
	<g>
		<polygon class="st4" points="20.73,640.38 36.8,640.38 28.77,629.75 		"/>
	</g>
	<g>
		<polygon class="st4" points="20.73,661.51 36.8,661.51 28.77,650.89 		"/>
	</g>
	<g>
		<polygon class="st4" points="20.73,682.65 36.8,682.65 28.77,672.02 		"/>
	</g>
	<g>
		<polygon class="st4" points="20.73,619.24 36.8,619.24 28.77,608.62 		"/>
	</g>
	<g>
		<polygon class="st4" points="20.73,520.69 36.8,520.69 28.77,510.07 		"/>
	</g>
	<g>
		<polygon class="st4" points="20.73,541.83 36.8,541.83 28.77,531.2 		"/>
	</g>
	<g>
		<polygon class="st4" points="20.73,562.96 36.8,562.96 28.77,552.34 		"/>
	</g>
	<g>
		<polygon class="st4" points="20.73,499.56 36.8,499.56 28.77,488.93 		"/>
	</g>
	<g>
		<polygon class="st4" points="20.73,402.41 36.8,402.41 28.77,391.78 		"/>
	</g>
	<g>
		<polygon class="st4" points="20.73,423.54 36.8,423.54 28.77,412.92 		"/>
	</g>
	<g>
		<polygon class="st4" points="20.73,444.68 36.8,444.68 28.77,434.05 		"/>
	</g>
	<g>
		<polygon class="st4" points="20.73,381.27 36.8,381.27 28.77,370.65 		"/>
	</g>
	<g>
		<polygon class="st4" points="20.73,286.94 36.8,286.94 28.77,276.31 		"/>
	</g>
	<g>
		<polygon class="st4" points="20.73,308.07 36.8,308.07 28.77,297.45 		"/>
	</g>
	<g>
		<polygon class="st4" points="20.73,329.21 36.8,329.21 28.77,318.58 		"/>
	</g>
	<g>
		<polygon class="st4" points="20.73,265.8 36.8,265.8 28.77,255.18 		"/>
	</g>
	<g>
		<polygon class="st4" points="20.73,170.06 36.8,170.06 28.77,159.44 		"/>
	</g>
	<g>
		<polygon class="st4" points="20.73,191.2 36.8,191.2 28.77,180.57 		"/>
	</g>
	<g>
		<polygon class="st4" points="20.73,212.33 36.8,212.33 28.77,201.71 		"/>
	</g>
	<g>
		<polygon class="st4" points="20.73,148.93 36.8,148.93 28.77,138.3 		"/>
	</g>
</g>
</svg>
