<?xml version="1.0" encoding="utf-8"?>
<!-- Generator: Adobe Illustrator 26.2.1, SVG Export Plug-In . SVG Version: 6.00 Build 0)  -->
<svg version="1.1" id="Ebene_1" xmlns="http://www.w3.org/2000/svg" xmlns:xlink="http://www.w3.org/1999/xlink" x="0px" y="0px"
	 viewBox="0 0 954.01 1000" style="enable-background:new 0 0 954.01 1000;" xml:space="preserve">
<style type="text/css">
	.st0{fill:#A2B9E1;}
	.st1{fill:#6796CF;}
	.st2{clip-path:url(#SVGID_00000026158545186236521190000007499113570718119611_);}
	.st3{fill:#2B2961;}
	.st4{fill:#FFFFFF;}
	.st5{clip-path:url(#SVGID_00000049185158331765555310000000496884785034332093_);}
	.st6{clip-path:url(#SVGID_00000142863230760764704100000000870758731386838444_);}
	.st7{clip-path:url(#SVGID_00000183219606451103968950000007380774965424194471_);}
	.st8{clip-path:url(#SVGID_00000119105008453924101030000016690056431968585913_);}
	.st9{clip-path:url(#SVGID_00000000919437102825957440000013111363145945596068_);}
	.st10{opacity:0.52;clip-path:url(#SVGID_00000033327990806307204600000010878478872441038003_);}
	.st11{clip-path:url(#SVGID_00000072267882476346346070000004278107969526690707_);}
	.st12{clip-path:url(#SVGID_00000152953777720371353290000012828201776665425836_);}
	.st13{clip-path:url(#SVGID_00000163786261373004055620000018358436160672301963_);}
	.st14{clip-path:url(#SVGID_00000154397545749486212720000018031647786274678407_);}
	.st15{clip-path:url(#SVGID_00000155137012123724947370000001101289895230413973_);}
	.st16{clip-path:url(#SVGID_00000079445515710481118110000004619542477141879682_);}
	.st17{clip-path:url(#SVGID_00000166669863718213026960000007334697612840430757_);}
	.st18{clip-path:url(#SVGID_00000071560879475191299800000000809707841137701553_);}
	.st19{clip-path:url(#SVGID_00000088837674671900009270000004632906083906532237_);}
	.st20{clip-path:url(#SVGID_00000178207358995662722830000004645736850610204324_);}
	.st21{clip-path:url(#SVGID_00000172410855808319061700000009321967451012663962_);}
	.st22{clip-path:url(#SVGID_00000062150607520647656420000001500401310529551782_);}
	.st23{fill:none;stroke:#2B2961;stroke-width:0.374;stroke-linejoin:round;stroke-miterlimit:10;}
	.st24{fill:none;stroke:#2B2961;stroke-width:0.4;stroke-miterlimit:10;}
	.st25{clip-path:url(#SVGID_00000072267887133466216300000006856964194140550538_);}
	.st26{clip-path:url(#SVGID_00000070094061407204377450000018263713952616427150_);}
	.st27{clip-path:url(#SVGID_00000168112926429459798710000017122486013176637107_);}
	.st28{clip-path:url(#SVGID_00000083802916533859959170000003441819933254247572_);}
	.st29{clip-path:url(#SVGID_00000067915323998995212650000017224080180658409350_);}
	.st30{clip-path:url(#SVGID_00000029011390231174678700000002296162727285246908_);}
	.st31{clip-path:url(#SVGID_00000017514604107773353510000015053595058122805632_);}
	.st32{clip-path:url(#SVGID_00000134948217417782541330000016649837741547991964_);}
	.st33{clip-path:url(#SVGID_00000173125926478215910240000001027408917195714484_);}
	.st34{clip-path:url(#SVGID_00000067213688058585483110000004868582409025943981_);}
	.st35{clip-path:url(#SVGID_00000102543443422886633850000000450420643412416389_);}
	.st36{clip-path:url(#SVGID_00000155858359553593667200000011307160926348377251_);}
	.st37{clip-path:url(#SVGID_00000108996590219649110460000000035096523194165905_);}
	.st38{clip-path:url(#SVGID_00000151530919787025443310000001424274927576969356_);}
	.st39{clip-path:url(#SVGID_00000140715134579292039890000008967849517073944735_);}
	.st40{clip-path:url(#SVGID_00000054972419826993064160000008835860370494929568_);}
	.st41{clip-path:url(#SVGID_00000150072417224306310490000017619305605887789752_);}
	.st42{clip-path:url(#SVGID_00000042710803412421924080000010174664821883912849_);}
	.st43{clip-path:url(#SVGID_00000059989200933094510420000018186284946069902742_);}
	.st44{clip-path:url(#SVGID_00000098928790189406058050000002527324849442293385_);}
	.st45{clip-path:url(#SVGID_00000139262439560799601370000010622214073017012625_);}
	.st46{clip-path:url(#SVGID_00000047757716711152056080000018091764786662320279_);}
	.st47{clip-path:url(#SVGID_00000121978965462003344290000006042102357020300442_);}
	.st48{clip-path:url(#SVGID_00000005963337872169820410000004369958691977741755_);}
	.st49{clip-path:url(#SVGID_00000031165656146784974940000015185313401249768323_);}
	.st50{clip-path:url(#SVGID_00000139296336096244654870000003680079872430532741_);}
	.st51{clip-path:url(#SVGID_00000160181102772537703300000008074571520684058771_);}
	.st52{clip-path:url(#SVGID_00000012432379457650884740000016917510744757048964_);}
	.st53{clip-path:url(#SVGID_00000139982159579089161000000017077895639345990553_);}
	.st54{clip-path:url(#SVGID_00000155826738339800108290000001712379472013986717_);}
	.st55{clip-path:url(#SVGID_00000024694197254847022110000010080136265550770357_);}
	.st56{clip-path:url(#SVGID_00000054964825934585619500000018001753402296145823_);}
	.st57{clip-path:url(#SVGID_00000008113023555419143290000006873312551331131016_);}
	.st58{clip-path:url(#SVGID_00000067929826986598514750000003468249927188012441_);}
	.st59{clip-path:url(#SVGID_00000119828799103798941050000012268736901056928924_);}
	.st60{clip-path:url(#SVGID_00000105421631165210607320000004469474067626551199_);}
	.st61{clip-path:url(#SVGID_00000045603681305232699830000000295578261491628724_);}
	.st62{fill:#9AB4DE;}
	.st63{clip-path:url(#SVGID_00000172407645704990600730000014998911179831824524_);}
	.st64{clip-path:url(#SVGID_00000062182311681985103600000016641328767344803468_);}
	.st65{clip-path:url(#SVGID_00000114765720703891466790000008123782519541522073_);}
	.st66{fill:#B9C9E9;}
	.st67{clip-path:url(#SVGID_00000064341957758981213910000016128201668610621075_);}
	.st68{clip-path:url(#SVGID_00000147213583712595832030000004714241798093681804_);}
	.st69{clip-path:url(#SVGID_00000115499949226225723530000010589389348821156024_);}
	.st70{clip-path:url(#SVGID_00000120518375073981965920000007525869639819924369_);}
	.st71{clip-path:url(#SVGID_00000108290679893158157100000005627984763418865536_);}
	.st72{clip-path:url(#SVGID_00000103986584770780189180000004238117034882670222_);}
	.st73{clip-path:url(#SVGID_00000089555877860584009940000006214884135809342901_);}
	.st74{clip-path:url(#SVGID_00000093162116226192735200000000017423674418421693_);}
	.st75{clip-path:url(#SVGID_00000087407148107435942930000003458082178541105555_);}
	.st76{clip-path:url(#SVGID_00000174576374508236587620000008551382363521258943_);}
	.st77{clip-path:url(#SVGID_00000110446112630338257240000011670321073034928012_);}
	.st78{clip-path:url(#SVGID_00000151530525575349873650000000610353890645527726_);}
	.st79{clip-path:url(#SVGID_00000001634217937869667090000008552217980090706590_);}
	.st80{clip-path:url(#SVGID_00000138531056132966907090000000783733101497783687_);}
	.st81{clip-path:url(#SVGID_00000180356105700519852170000014480651837444085644_);}
	.st82{clip-path:url(#SVGID_00000165945996354293292970000008342255351765962662_);}
	.st83{clip-path:url(#SVGID_00000058570629038175515230000014662744432624081831_);}
	.st84{clip-path:url(#SVGID_00000110452684973746101210000016712039853752033920_);}
	.st85{clip-path:url(#SVGID_00000040555465306736947200000015815513202670854063_);}
	.st86{clip-path:url(#SVGID_00000026153105852237898640000016171851965591655828_);}
	.st87{clip-path:url(#SVGID_00000174570114099596872160000006480070429361855140_);}
	.st88{clip-path:url(#SVGID_00000103265371876439551740000010076447612249883071_);}
	.st89{clip-path:url(#SVGID_00000150098178311049810810000008553469859914139302_);}
	.st90{clip-path:url(#SVGID_00000042716632229965110300000016499727728047757754_);}
	.st91{clip-path:url(#SVGID_00000167367301733103874250000009553487804720027539_);}
	.st92{clip-path:url(#SVGID_00000165205870163285349560000009363566902006445461_);}
	.st93{clip-path:url(#SVGID_00000006685258201466854010000001013051425974683569_);}
	.st94{clip-path:url(#SVGID_00000065782430660889532060000011130928487702295731_);}
	.st95{clip-path:url(#SVGID_00000040552624771081788470000005388692646213395881_);}
	.st96{clip-path:url(#SVGID_00000169555321683432804060000014263005682406827174_);}
	.st97{clip-path:url(#SVGID_00000106859662377355677340000017288333789105267840_);}
	.st98{clip-path:url(#SVGID_00000103242531268823068010000005842833463937919150_);}
	.st99{clip-path:url(#SVGID_00000005265567321491909590000009557626170585184953_);}
	.st100{clip-path:url(#SVGID_00000068660496867783060040000017792058836715124650_);}
	.st101{clip-path:url(#SVGID_00000089545530015422225710000012152086402833016464_);}
	.st102{clip-path:url(#SVGID_00000111898185021839688960000002993521336607709582_);}
	.st103{clip-path:url(#SVGID_00000067224841969726269630000002934352403814875580_);}
	.st104{clip-path:url(#SVGID_00000111874661604272579160000003918869500980430769_);}
	.st105{clip-path:url(#SVGID_00000021082884978740702310000015123740531054309004_);}
	.st106{clip-path:url(#SVGID_00000039819811317238005570000014361312390453914292_);}
	.st107{clip-path:url(#SVGID_00000071540028104458214340000009549638525881301137_);}
	.st108{clip-path:url(#SVGID_00000121974477583795626730000012060683313283746476_);}
	.st109{clip-path:url(#SVGID_00000002383515732716147340000008172158373296216716_);}
	.st110{clip-path:url(#SVGID_00000106830247887138767630000013885591723904998300_);}
	.st111{clip-path:url(#SVGID_00000129891545558876364250000008478696284897407161_);}
	.st112{clip-path:url(#SVGID_00000098202695673884853120000011638377430916379265_);}
	.st113{clip-path:url(#SVGID_00000026133607997221059310000001084222231075646353_);}
	.st114{clip-path:url(#SVGID_00000042737033882606946860000007202415762847970491_);}
	.st115{clip-path:url(#SVGID_00000134964173396704565630000016004070099042212514_);}
	.st116{clip-path:url(#SVGID_00000032644181275529722750000015926672164987259560_);}
	.st117{clip-path:url(#SVGID_00000176026562888241972080000017458889747009652106_);}
	.st118{clip-path:url(#SVGID_00000150825399896016237200000003724219849196657805_);}
	.st119{clip-path:url(#SVGID_00000154390869111651945880000004937926326285541810_);}
	.st120{clip-path:url(#SVGID_00000023239396823899904240000014406151922027132816_);}
	.st121{clip-path:url(#SVGID_00000003066747445922396740000010956894605166052513_);}
	.st122{clip-path:url(#SVGID_00000088839977933321432600000014605530303613588634_);}
	.st123{clip-path:url(#SVGID_00000170998054655095139050000012624712176010073490_);}
	.st124{clip-path:url(#SVGID_00000124153970315368045570000001216337708078415014_);}
	.st125{clip-path:url(#SVGID_00000095298695509787482350000000965082280547838394_);}
	.st126{clip-path:url(#SVGID_00000060708607272587913900000005720314769178076820_);}
	.st127{clip-path:url(#SVGID_00000126321537872170952320000005057300226660948397_);}
	.st128{clip-path:url(#SVGID_00000092442686592066065730000009832065758487063716_);}
	.st129{clip-path:url(#SVGID_00000112632160643210514060000004249689217773196182_);}
	.st130{clip-path:url(#SVGID_00000093160876666287319380000016644235320621931175_);}
	.st131{clip-path:url(#SVGID_00000110442220778341056130000008902961559888618390_);}
	.st132{clip-path:url(#SVGID_00000162329655638401872840000016563332878790528403_);}
	.st133{clip-path:url(#SVGID_00000051351123950498433860000016553249027300308098_);}
	.st134{clip-path:url(#SVGID_00000169546535141447680590000008993350294441280902_);}
	.st135{clip-path:url(#SVGID_00000096054834237926648860000006270809551299725747_);}
	.st136{clip-path:url(#SVGID_00000165218589758652504890000009693227995433283226_);}
	.st137{clip-path:url(#SVGID_00000083051258146638168230000004658621346598502018_);}
	.st138{clip-path:url(#SVGID_00000133521592618771611810000009613869135862833055_);}
	.st139{clip-path:url(#SVGID_00000095298176558380554910000008519665274538227330_);}
	.st140{clip-path:url(#SVGID_00000052825175253325824090000017553235562178872454_);}
	.st141{clip-path:url(#SVGID_00000155854131243480191300000017295977787138071487_);}
	.st142{clip-path:url(#SVGID_00000101101982263512860410000010162612348751974804_);}
	.st143{clip-path:url(#SVGID_00000069391569105341869880000016043760024000992698_);}
	.st144{clip-path:url(#SVGID_00000070805656762032086030000000042133579777868949_);}
	.st145{clip-path:url(#SVGID_00000099662369854151674030000012730875000929247619_);}
	.st146{clip-path:url(#SVGID_00000113319713085776462380000005808493581671558819_);}
	.st147{clip-path:url(#SVGID_00000039091327340269370850000010481641686830584962_);}
	.st148{clip-path:url(#SVGID_00000155849123814588804910000015815941225727637132_);}
	.st149{clip-path:url(#SVGID_00000129914824266427201070000007853763060452320133_);}
	.st150{clip-path:url(#SVGID_00000081621540914673171240000013739818701463945607_);}
	.st151{clip-path:url(#SVGID_00000007402895656798735840000000840201326821719690_);}
	.st152{clip-path:url(#SVGID_00000020399244691571139820000011777469468509471136_);}
	.st153{clip-path:url(#SVGID_00000152241646496500107680000006136296128738447252_);}
	.st154{clip-path:url(#SVGID_00000157266074158289642300000007881797020540151469_);}
	.st155{clip-path:url(#SVGID_00000005967172830271278750000011558995711559476640_);}
	.st156{clip-path:url(#SVGID_00000021121673429901006890000006283014417322482572_);}
	.st157{clip-path:url(#SVGID_00000115491468193033648310000011398132900080944053_);}
	.st158{clip-path:url(#SVGID_00000001655039032204518010000002027429933837374349_);}
	.st159{clip-path:url(#SVGID_00000090286935601354995220000006316728908098559647_);}
	.st160{clip-path:url(#SVGID_00000057845327284812296430000014588204414073061006_);}
	.st161{clip-path:url(#SVGID_00000112617915342290971200000000751668926074385591_);}
	.st162{clip-path:url(#SVGID_00000116927163235306678590000012977004518571159175_);}
	.st163{clip-path:url(#SVGID_00000151503923452019732030000016714093073049532856_);}
	.st164{clip-path:url(#SVGID_00000165922991942438999020000013283417507687641495_);}
	.st165{clip-path:url(#SVGID_00000126284228907841125870000008712734689746088102_);}
	.st166{clip-path:url(#SVGID_00000027588907104309957840000018143793997190384023_);}
	.st167{clip-path:url(#SVGID_00000124123970084050826490000013134805609944460451_);}
	.st168{clip-path:url(#SVGID_00000138554283925295784310000010880987208168052667_);}
	.st169{clip-path:url(#SVGID_00000134928479243286676160000009191433056861671074_);}
	.st170{clip-path:url(#SVGID_00000063619601397279664930000017534019345227040139_);}
	.st171{clip-path:url(#SVGID_00000171692131063950338820000003310986210499824315_);}
	.st172{clip-path:url(#SVGID_00000006706940556238947570000011912609720575908273_);}
	.st173{clip-path:url(#SVGID_00000032613438029939567330000000642565032356271548_);}
	.st174{clip-path:url(#SVGID_00000038376660385397159560000007917440939502458016_);}
	.st175{clip-path:url(#SVGID_00000059284327098091080030000010072006264615397797_);}
	.st176{clip-path:url(#SVGID_00000065770150007973087080000005304027372202207678_);}
	.st177{clip-path:url(#SVGID_00000176041842086742957830000003975374922545380794_);}
	.st178{clip-path:url(#SVGID_00000025412808048589856900000009497906038945474468_);}
	.st179{clip-path:url(#SVGID_00000149376670578126095720000016991656891312499589_);}
	.st180{clip-path:url(#SVGID_00000045609337829076187720000018204209050173943435_);}
	.st181{clip-path:url(#SVGID_00000014616152211860874430000013125238837282512522_);}
	.st182{clip-path:url(#SVGID_00000119817414800241239890000004635218580175723916_);}
	.st183{clip-path:url(#SVGID_00000093866759102777067750000000508658620611152782_);}
	.st184{clip-path:url(#SVGID_00000075842145471461193820000008217417044634118065_);}
	.st185{clip-path:url(#SVGID_00000172398661978841667650000000686317683507184554_);}
	.st186{clip-path:url(#SVGID_00000143576751338902809900000011077676085210665641_);}
	.st187{clip-path:url(#SVGID_00000154422768503456050670000011887517015224820414_);}
	.st188{clip-path:url(#SVGID_00000163792378066339453640000018340657546116996027_);}
	.st189{clip-path:url(#SVGID_00000117637020658427266110000017299511549950223265_);}
	.st190{clip-path:url(#SVGID_00000114775639945065709030000009637201868460502682_);}
	.st191{clip-path:url(#SVGID_00000032645754457756521350000017283041663918438065_);}
	.st192{clip-path:url(#SVGID_00000049179571446082702600000009294463832471898295_);}
	.st193{clip-path:url(#SVGID_00000167389212095985428570000002556600958718004141_);}
	.st194{clip-path:url(#SVGID_00000163050986330617878100000014587294181627365509_);}
	.st195{clip-path:url(#SVGID_00000099628782953938817710000004603185274859992496_);}
	.st196{clip-path:url(#SVGID_00000040553280255500691140000000401773422530136231_);}
	.st197{clip-path:url(#SVGID_00000064353454091440595680000000143768345024732335_);}
	.st198{clip-path:url(#SVGID_00000183240680149893338720000014204654995063567250_);}
	.st199{clip-path:url(#SVGID_00000080906264593250745410000016951763055489564602_);}
	.st200{clip-path:url(#SVGID_00000046321328808957265500000001787318681496575371_);}
	.st201{clip-path:url(#SVGID_00000005959321035443489760000017536804855924821405_);}
	.st202{clip-path:url(#SVGID_00000172440225500147131340000014333133269207469727_);}
	.st203{clip-path:url(#SVGID_00000026853184842929471170000010287716070185701263_);}
	.st204{clip-path:url(#SVGID_00000049903438026546120280000007029640801583020200_);}
	.st205{clip-path:url(#SVGID_00000038383263076545980070000013196111677779585924_);}
	.st206{clip-path:url(#SVGID_00000150807433773825877890000007947266510189702332_);}
	.st207{clip-path:url(#SVGID_00000033367081662659318410000007903537455027768222_);}
	.st208{clip-path:url(#SVGID_00000030484087198642134410000015781289658284619915_);}
	.st209{clip-path:url(#SVGID_00000161619118587720135490000005380413465699569079_);}
	.st210{clip-path:url(#SVGID_00000057830524892192850340000006877793101473054141_);}
	.st211{clip-path:url(#SVGID_00000011004729038681882500000007816398015477285527_);}
	.st212{clip-path:url(#SVGID_00000079452507768194302070000004748008415064182458_);}
	.st213{clip-path:url(#SVGID_00000129177203964995830310000000673067373198337977_);}
	.st214{clip-path:url(#SVGID_00000085243106928329858820000012524662545807553959_);}
	.st215{clip-path:url(#SVGID_00000052785768857276998990000010214591560245216189_);}
	.st216{clip-path:url(#SVGID_00000167355305780119533000000015122552049770254466_);}
	.st217{clip-path:url(#SVGID_00000060742801071058874790000004351292797274583217_);}
	.st218{clip-path:url(#SVGID_00000096771376344652241330000003665506006469416340_);}
	.st219{clip-path:url(#SVGID_00000059267501532154051350000013795952154928917640_);}
	.st220{clip-path:url(#SVGID_00000100350550121033912830000003851957089665088150_);}
	.st221{clip-path:url(#SVGID_00000129171941569602065870000004696275802501074602_);}
	.st222{clip-path:url(#SVGID_00000103982538493931398660000012005269186863359368_);}
	.st223{clip-path:url(#SVGID_00000114754537564433229610000009598728997863073181_);}
	.st224{clip-path:url(#SVGID_00000173861481132677792490000002276121771887412910_);}
	.st225{clip-path:url(#SVGID_00000101071593816574353540000008473737051129220006_);}
	.st226{clip-path:url(#SVGID_00000175292525974651449400000017979898315952912517_);}
	.st227{clip-path:url(#SVGID_00000048470540305399035260000009177356507727197091_);}
	.st228{clip-path:url(#SVGID_00000132807450355450929810000012615618198313133233_);}
	.st229{clip-path:url(#SVGID_00000057850313073728258450000015040647875401709980_);}
	.st230{clip-path:url(#SVGID_00000096749510649045305180000007198219983285871502_);}
	.st231{clip-path:url(#SVGID_00000038391374596932835980000012113941595556289446_);}
	.st232{clip-path:url(#SVGID_00000121968836676126961930000005726124924203931522_);}
	.st233{clip-path:url(#SVGID_00000177478135323161649490000013418057964100409492_);}
	.st234{clip-path:url(#SVGID_00000067194839497370268740000003868379134354634674_);}
	.st235{clip-path:url(#SVGID_00000158015064705134222730000010204486501863288706_);}
	.st236{clip-path:url(#SVGID_00000067922093193405112620000003685587760387647111_);}
	.st237{clip-path:url(#SVGID_00000027564937545989074630000016225472840087676837_);}
	.st238{clip-path:url(#SVGID_00000107556766234571073830000010581719211371187622_);}
	.st239{clip-path:url(#SVGID_00000042707489664439801770000006698056442510875070_);}
	.st240{clip-path:url(#SVGID_00000022520161166427342770000011617061631924120731_);}
	.st241{clip-path:url(#SVGID_00000070086668717929630270000001574092893838243259_);}
	.st242{clip-path:url(#SVGID_00000000182769766312134500000000049778849571020163_);}
	.st243{clip-path:url(#SVGID_00000088837558026466444320000011637518274630360997_);}
	.st244{clip-path:url(#SVGID_00000034067405687184946480000012736951088252931715_);}
	.st245{clip-path:url(#SVGID_00000155136040128222815990000018265595516142141577_);}
	.st246{clip-path:url(#SVGID_00000120561100809141669230000007542734659449600651_);}
	.st247{clip-path:url(#SVGID_00000041295277003521884870000016156009209849312641_);}
	.st248{clip-path:url(#SVGID_00000047019173926192537300000018359862435266417802_);}
	.st249{clip-path:url(#SVGID_00000145779805110754399380000003432275528114701975_);}
	.st250{clip-path:url(#SVGID_00000072268584035862879570000003254768254675101112_);}
	.st251{clip-path:url(#SVGID_00000126292869655584875780000008141224726096940446_);}
	.st252{clip-path:url(#SVGID_00000009580833594259598270000004178334204766109356_);}
	.st253{clip-path:url(#SVGID_00000177472732711337243860000010150707840433690277_);}
	.st254{clip-path:url(#SVGID_00000037650417150485488740000009382754342519235766_);}
	.st255{clip-path:url(#SVGID_00000015323532002631576110000006935810716570928569_);}
	.st256{clip-path:url(#SVGID_00000031170973898202019870000015523039232690205375_);}
	.st257{clip-path:url(#SVGID_00000124883549398039122620000014345511721110867632_);}
	.st258{clip-path:url(#SVGID_00000172419028072419812940000017308861999696452239_);}
	.st259{clip-path:url(#SVGID_00000029734330059445392760000006918245575047501450_);}
	.st260{clip-path:url(#SVGID_00000041975026037160018820000003380456316523391642_);}
	.st261{clip-path:url(#SVGID_00000142881779050952919980000012774457021383497657_);}
	.st262{clip-path:url(#SVGID_00000169553818895765456350000012495211830114350517_);}
	.st263{clip-path:url(#SVGID_00000140700959164287842090000006592610958840584368_);}
	.st264{clip-path:url(#SVGID_00000167385583879489275010000008778509114836444575_);}
	.st265{clip-path:url(#SVGID_00000004523500000199456920000003823582176706881945_);}
	.st266{clip-path:url(#SVGID_00000141454575016941029890000017259791942771956661_);}
	.st267{clip-path:url(#SVGID_00000136381809297483554020000002131820602574982539_);}
	.st268{clip-path:url(#SVGID_00000157997614117146047580000001849878413794068130_);}
	.st269{clip-path:url(#SVGID_00000097472799042783248740000001290031351474237591_);}
	.st270{clip-path:url(#SVGID_00000142873312728313441320000015247876200598863510_);}
	.st271{clip-path:url(#SVGID_00000010305786170272733310000007022414910806030776_);}
	.st272{clip-path:url(#SVGID_00000093879204352007089030000005734920223728631995_);}
	.st273{clip-path:url(#SVGID_00000060711914627926101730000000988099986555860629_);}
	.st274{clip-path:url(#SVGID_00000064333424779989896340000013552462229676120991_);}
	.st275{clip-path:url(#SVGID_00000051360299385613186770000008936420910686006199_);}
	.st276{clip-path:url(#SVGID_00000039116501927186974920000008347743729386814639_);}
	.st277{clip-path:url(#SVGID_00000039098986206736627480000013953467603748554159_);}
	.st278{clip-path:url(#SVGID_00000005267105157002966440000001251162302931125679_);}
	.st279{clip-path:url(#SVGID_00000067212318072942320360000016163442535948538296_);}
	.st280{clip-path:url(#SVGID_00000127026122886200853730000018121521534448135613_);}
	.st281{clip-path:url(#SVGID_00000112597279270440748970000014467551674893403067_);}
	.st282{clip-path:url(#SVGID_00000165951359880902395880000004894449610539553189_);}
	.st283{clip-path:url(#SVGID_00000060019889280003134510000000741852991108234650_);}
	.st284{clip-path:url(#SVGID_00000090289470831159938520000012691547048612357026_);}
	.st285{clip-path:url(#SVGID_00000143610402859666233190000002206427789070152107_);}
	.st286{clip-path:url(#SVGID_00000125584619740616110150000010778468322912502206_);}
	.st287{clip-path:url(#SVGID_00000003089863615548563160000017774539094309191581_);}
	.st288{clip-path:url(#SVGID_00000024715422132716297700000014875159379598209189_);}
	.st289{clip-path:url(#SVGID_00000093135828381880847530000005806503407676422809_);}
	.st290{clip-path:url(#SVGID_00000142876263780347971130000007810198583366001282_);}
	.st291{clip-path:url(#SVGID_00000067226009792276798580000002355165307935445942_);}
	.st292{clip-path:url(#SVGID_00000157267557124565374440000016014648144725134504_);}
	.st293{clip-path:url(#SVGID_00000055672021369561459790000016693651048879901878_);}
	.st294{clip-path:url(#SVGID_00000078039555781664644320000012567066089919497613_);}
	.st295{clip-path:url(#SVGID_00000107588681443294470470000009419491365418601389_);}
	.st296{clip-path:url(#SVGID_00000033371593546382453500000003173954389110470039_);}
	.st297{clip-path:url(#SVGID_00000111873365331636347730000017711825108560217242_);}
	.st298{clip-path:url(#SVGID_00000005230417603853354870000002551469303605197990_);}
	.st299{clip-path:url(#SVGID_00000120520862005889739250000016709882507999032505_);}
	.st300{clip-path:url(#SVGID_00000091007098639351313880000003765458675403293372_);}
	.st301{clip-path:url(#SVGID_00000034801689692190914760000015727204315511114665_);}
	.st302{clip-path:url(#SVGID_00000133502775306994946790000005687955307198915492_);}
	.st303{clip-path:url(#SVGID_00000018225580947696402990000010811762484132725917_);}
	.st304{clip-path:url(#SVGID_00000106846823452127974160000001384181598146719372_);}
	.st305{clip-path:url(#SVGID_00000042729715859056750860000006238607922564544392_);}
	.st306{clip-path:url(#SVGID_00000167370047609236472550000011258266926664639923_);}
	.st307{clip-path:url(#SVGID_00000183210006740011725760000014461115506399207300_);}
	.st308{clip-path:url(#SVGID_00000183220235189762298320000009119241735325030578_);}
	.st309{clip-path:url(#SVGID_00000137822464894815498850000007291717645325048983_);}
	.st310{clip-path:url(#SVGID_00000021803166885282402000000004434835741044527533_);}
	.st311{clip-path:url(#SVGID_00000000198864725023541960000013060238595314993579_);}
	.st312{clip-path:url(#SVGID_00000118358311610584195980000008193907453989745314_);}
	.st313{clip-path:url(#SVGID_00000048501055003673859410000012711081521977662615_);}
	.st314{clip-path:url(#SVGID_00000121999797802145293440000008587456233317717660_);}
	.st315{clip-path:url(#SVGID_00000090265915732453959750000004664073533301821347_);}
	.st316{clip-path:url(#SVGID_00000090263234123275114330000012522373303124338874_);}
	.st317{clip-path:url(#SVGID_00000105389097358505161440000016755667402905984182_);}
	.st318{clip-path:url(#SVGID_00000161616869591275809290000013901288484518117047_);}
	.st319{clip-path:url(#SVGID_00000020396435114751402420000010479465608091307920_);}
	.st320{clip-path:url(#SVGID_00000054947353878505710560000004925119951981483453_);}
	.st321{clip-path:url(#SVGID_00000074418329529099403870000008646143916769453218_);}
	.st322{clip-path:url(#SVGID_00000029009048116391882170000014364770839551021480_);}
	.st323{clip-path:url(#SVGID_00000104665973671896706240000006884580433945187217_);}
	.st324{clip-path:url(#SVGID_00000150784811743551944680000017261502065296447396_);}
	.st325{clip-path:url(#SVGID_00000118394310805417209400000000767046202698470588_);}
	.st326{clip-path:url(#SVGID_00000132063256958665533730000006423243920855448251_);}
	.st327{clip-path:url(#SVGID_00000160905610474493802930000007851204297856160407_);}
	.st328{clip-path:url(#SVGID_00000018201177192206069560000007795296430770055833_);}
	.st329{clip-path:url(#SVGID_00000178169254383695519670000001602108532018551214_);}
	.st330{clip-path:url(#SVGID_00000103264706990696460230000003834643258076223153_);}
	.st331{clip-path:url(#SVGID_00000119832944563799224350000017775061223993526952_);}
	.st332{clip-path:url(#SVGID_00000021120690939225427040000006791970937355210173_);}
	.st333{clip-path:url(#SVGID_00000084489326021336155400000006774083040032135098_);}
	.st334{clip-path:url(#SVGID_00000114761781645836402760000000576003336724910726_);}
	.st335{clip-path:url(#SVGID_00000100365985676924740130000013115576133273051829_);}
	.st336{clip-path:url(#SVGID_00000033362647741024892320000011534959929316797081_);}
	.st337{clip-path:url(#SVGID_00000082327801399230506200000001153950876612451721_);}
	.st338{clip-path:url(#SVGID_00000141449884792613009070000015381949392908375431_);}
	.st339{clip-path:url(#SVGID_00000140699027414145914380000001482696477757614976_);}
	.st340{clip-path:url(#SVGID_00000044874817101511515280000016069725985614718129_);}
	.st341{clip-path:url(#SVGID_00000041288479974165619020000002726617126361538450_);}
	.st342{clip-path:url(#SVGID_00000024685702216857070980000000735009948382649782_);}
	.st343{clip-path:url(#SVGID_00000165922914266775856200000008699959330476987834_);}
	.st344{clip-path:url(#SVGID_00000106861153744413971680000018307450792693388940_);}
	.st345{clip-path:url(#SVGID_00000133492883092216158160000015339421086811562644_);}
	.st346{clip-path:url(#SVGID_00000077308313895667259190000009912917119821698718_);}
	.st347{clip-path:url(#SVGID_00000123429408707161350910000015898521353138971298_);}
	.st348{clip-path:url(#SVGID_00000029737368213106920450000014150137468544508832_);}
	.st349{clip-path:url(#SVGID_00000078752813568910472820000013617514117002319755_);}
	.st350{clip-path:url(#SVGID_00000013176555145961992920000008281598386449320327_);}
	.st351{clip-path:url(#SVGID_00000080164894831926061830000008609397623970777782_);}
	.st352{clip-path:url(#SVGID_00000030483663420825411960000005770030311246931889_);}
	.st353{clip-path:url(#SVGID_00000111166592490899694640000012341405119383135413_);}
	.st354{clip-path:url(#SVGID_00000017507860591157418570000010336758129129335476_);}
	.st355{clip-path:url(#SVGID_00000120519691620782299110000006988310797939261881_);}
	.st356{clip-path:url(#SVGID_00000135656617998332166250000009856771488707143048_);}
	.st357{clip-path:url(#SVGID_00000168816481594916523260000002713039116754875568_);}
	.st358{clip-path:url(#SVGID_00000029032072421581473100000008057172797956204989_);}
	.st359{clip-path:url(#SVGID_00000041290561854324090220000014504555987057522070_);}
	.st360{clip-path:url(#SVGID_00000090984771279330173150000004723507594758160281_);}
	.st361{clip-path:url(#SVGID_00000039825265741585088030000009734166794388147883_);}
	.st362{clip-path:url(#SVGID_00000045600645153933793380000004195654538022391939_);}
	.st363{clip-path:url(#SVGID_00000144332879478438716750000001965479317313993856_);}
	.st364{clip-path:url(#SVGID_00000010286465141539191040000004877590464015262093_);}
	.st365{clip-path:url(#SVGID_00000057134458607808073030000000078035174960342683_);}
	.st366{clip-path:url(#SVGID_00000016032940450414025980000009557551591630429355_);}
	.st367{clip-path:url(#SVGID_00000152969342466742758220000013964828195060770973_);}
	.st368{clip-path:url(#SVGID_00000168821929898418886850000007219766383484776583_);}
	.st369{clip-path:url(#SVGID_00000099629128303150055460000005845998726298369674_);}
	.st370{clip-path:url(#SVGID_00000180334652778521664610000017795635589113658032_);}
	.st371{clip-path:url(#SVGID_00000059274153308794089820000010775968937466823315_);}
	.st372{clip-path:url(#SVGID_00000110441221216845675360000008995285047521548964_);}
	.st373{clip-path:url(#SVGID_00000161613662981799527620000001165181622242425260_);}
	.st374{clip-path:url(#SVGID_00000074421001393546132030000004757690973356564667_);}
	.st375{clip-path:url(#SVGID_00000044887864820992499920000011102563629419595687_);}
</style>
<g>
	<g>
		<rect x="4.29" y="111.63" class="st0" width="46.36" height="884.07"/>
	</g>
	<g>
		<rect x="4" class="st1" width="948.1" height="119.22"/>
	</g>
	<g>
		<defs>
			<rect id="SVGID_00000083795450627209802600000003985081393682846619_" y="0.01" width="954.01" height="999.99"/>
		</defs>
		<clipPath id="SVGID_00000137099315465744039570000004805783870529469868_">
			<use xlink:href="#SVGID_00000083795450627209802600000003985081393682846619_"  style="overflow:visible;"/>
		</clipPath>
		<g style="clip-path:url(#SVGID_00000137099315465744039570000004805783870529469868_);">
			<path class="st3" d="M952.4,1000H1.61c-0.89,0-1.61-0.72-1.61-1.61V1.62c0-0.89,0.72-1.61,1.61-1.61H952.4
				c0.89,0,1.61,0.72,1.61,1.61v996.77C954.01,999.28,953.29,1000,952.4,1000z M3.22,996.78h947.57V3.23H3.22V996.78z"/>
		</g>
		<g style="clip-path:url(#SVGID_00000137099315465744039570000004805783870529469868_);">
			<path class="st4" d="M859.31,69.89V39.48c0-3.07-0.21-6.21-1.81-9c-1.6-2.72-3.84-4.88-6.13-7.18l-6.14,6.13
				c1.67,1.67,2.72,2.58,3.91,4.6c0.7,1.26,1.05,3.21,1.05,5.86v29.58c0,2.65-0.35,4.6-1.05,5.86c-1.19,2.02-2.23,2.93-3.91,4.6
				l6.14,6.14c2.3-2.3,4.53-4.47,6.13-7.19C859.1,76.1,859.31,72.96,859.31,69.89 M839.99,46.17c-2.51-2.51-5.02-3.41-8.58-3.41
				c-3.91,0-7.4,1.81-9.14,3.9v-3.48h-8.85v36.34h9.06V57.61c0-4.6,3.07-6.7,5.86-6.7c2.23,0,3.42,0.77,4.81,2.16L839.99,46.17z
				 M801.83,79.52V43.18h-9.06v21.98c0,4.95-3.21,6.63-6.08,6.63c-2.86,0-6.01-1.67-6.01-6.63V43.18h-9.06v23.23
				c0,3.98,0.77,7.39,3.69,10.32c2.02,2.02,4.95,3.2,8.58,3.2c3.35,0,6.7-1.26,9.08-3.76v3.34H801.83z M762.41,79.52v-7.66h-3.28
				c-2.16,0-3.14-1.19-3.14-3.28V51.12h6.42v-6.9h-6.42V33.48h-9.06v10.74h-3.84v6.9h3.84v18.01c0,5.16,3.14,10.39,10.53,10.39
				H762.41z M734.65,29.57h-9.27v7.38h9.27V29.57z M734.58,43.18h-9.06v36.34h9.06V43.18z M706.4,61.31c0,5.93-0.7,10.47-6.14,10.47
				c-5.44,0-6.14-4.54-6.14-10.47c0-5.94,0.7-10.4,6.14-10.4C705.7,50.91,706.4,55.38,706.4,61.31 M715.46,61.31
				c0-5.45-0.07-11.66-3.7-15.28c-2.02-2.02-5.3-3.27-8.85-3.27c-3.7,0-6.42,0.97-8.8,3.62V29.85h-9.06v49.66h8.79V76.1
				c2.51,2.79,5.23,3.83,9.08,3.83c3.56,0,6.84-1.26,8.85-3.27C715.39,73.03,715.46,66.75,715.46,61.31 M662.58,62.57h-12.35
				l6.28-18.07L662.58,62.57z M678.21,79.52l-18.14-49.66h-7.6L634.4,79.52h10.12l3-8.79h17.65l2.93,8.79H678.21z M628.81,80
				c-1.67-1.67-2.72-2.65-3.91-4.67c-0.7-1.26-1.05-3.21-1.05-5.86V39.89c0-2.65,0.35-4.6,1.05-5.86c1.19-2.02,2.23-3,3.91-4.67
				l-6.07-6.06c-2.3,2.3-4.53,4.46-6.13,7.18c-1.6,2.79-1.81,5.93-1.81,9v30.41c0,3.07,0.21,6.21,1.81,9
				c1.6,2.72,3.83,4.88,6.13,7.19L628.81,80z M578.02,57.97h-13.81c0.07-1.61,0.28-2.59,0.84-3.91c0.98-2.17,3-3.77,6.07-3.77
				c3.07,0,5.09,1.6,6.07,3.77C577.74,55.38,577.95,56.36,578.02,57.97 M586.95,64.17v-4.04c0-9.98-5.72-17.37-15.84-17.37
				c-9.41,0-15.83,6.69-15.83,18.55c0,14.72,8.22,18.62,16.8,18.62c6.56,0,10.12-2.02,13.81-5.72l-5.51-5.37
				c-2.3,2.3-4.26,3.42-8.23,3.42c-5.09,0-7.95-3.42-7.95-8.1H586.95z M549.83,51.12v-6.9h-6.7v-3.98c0-2.1,0.98-3.28,3.14-3.28
				h3.56v-7.66h-5.16c-7.39,0-10.59,5.23-10.59,10.39v4.54h-3.77v6.9h3.77v28.4h9.06v-28.4H549.83z M521.51,29.57h-9.27v7.38h9.27
				V29.57z M521.44,43.18h-9.06v36.34h9.06V43.18z M493.67,57.97h-13.81c0.07-1.61,0.28-2.59,0.84-3.91c0.98-2.17,3-3.77,6.07-3.77
				c3.07,0,5.09,1.6,6.07,3.77C493.39,55.38,493.6,56.36,493.67,57.97 M502.6,64.17v-4.04c0-9.98-5.72-17.37-15.84-17.37
				c-9.41,0-15.83,6.69-15.83,18.55c0,14.72,8.22,18.62,16.8,18.62c6.56,0,10.12-2.02,13.81-5.72l-5.51-5.37
				c-2.3,2.3-4.26,3.42-8.23,3.42c-5.09,0-7.95-3.42-7.95-8.1H502.6z M468.35,46.17c-2.51-2.51-5.02-3.41-8.58-3.41
				c-3.91,0-7.4,1.81-9.14,3.9v-3.48h-8.85v36.34h9.06V57.61c0-4.6,3.07-6.7,5.86-6.7c2.23,0,3.42,0.77,4.81,2.16L468.35,46.17z
				 M433.11,79.52v-7.66h-3.49c-2.3,0-3.21-1.12-3.21-3.28V29.85h-9.06v39.28c0,5.16,3.13,10.38,10.59,10.38H433.11z M406.11,79.52
				V43.18h-9.06v21.98c0,4.95-3.21,6.63-6.08,6.63c-2.86,0-6.01-1.67-6.01-6.63V43.18h-9.06v23.23c0,3.98,0.77,7.39,3.69,10.32
				c2.02,2.02,4.95,3.2,8.58,3.2c3.35,0,6.7-1.26,9.08-3.76v3.34H406.11z M365.17,79.52V56c0-7.67-4.19-13.24-12.13-13.24
				c-3.21,0-6.28,1.25-8.73,3.76V29.85h-9.06v49.66h9.06V57.33c0-4.74,3-6.42,5.86-6.42c2.87,0,5.94,1.6,5.94,6.42v22.19H365.17z
				 M326.79,74.99l-6.14-6.07c-1.88,2.03-3.49,2.87-5.86,2.87c-2.16,0-3.84-0.77-5.16-2.38c-1.4-1.74-2.02-4.26-2.02-8.09
				s0.63-6.28,2.02-8.03c1.33-1.6,3-2.37,5.16-2.37c2.37,0,3.98,0.84,5.86,2.86l6.14-6.13c-3.21-3.35-6.98-4.88-12-4.88
				c-7.26,0-16.25,3.83-16.25,18.55s8.99,18.62,16.25,18.62C319.82,79.93,323.59,78.33,326.79,74.99 M291.36,68.08
				c0-6.14-3.63-9.98-10.81-10.67l-5.72-0.56c-3.21-0.28-3.77-1.81-3.77-3.14c0-1.81,1.53-3.49,5.16-3.49
				c3.14,0,6.35,0.56,8.44,2.44l5.58-5.65c-3.49-3.28-8.23-4.25-13.88-4.25c-7.4,0-14.02,4.04-14.02,11.57
				c0,6.7,4.05,9.56,10.6,10.19l5.72,0.56c2.86,0.28,3.84,1.53,3.84,3.35c0,2.73-3.28,3.77-6.42,3.77c-2.79,0-6.7-0.42-9.7-3.42
				l-5.93,5.93c4.6,4.6,9.77,5.23,15.49,5.23C284.52,79.93,291.36,76.1,291.36,68.08 M252.84,79.52V56
				c0-7.67-4.18-13.24-12.13-13.24c-3.21,0-6.28,1.25-8.73,3.76V29.85h-9.06v49.66h9.06V57.33c0-4.74,3-6.42,5.87-6.42
				c2.86,0,5.94,1.6,5.94,6.42v22.19H252.84z M214.47,74.99l-6.14-6.07c-1.88,2.03-3.49,2.87-5.86,2.87c-2.16,0-3.84-0.77-5.16-2.38
				c-1.4-1.74-2.02-4.26-2.02-8.09s0.63-6.28,2.02-8.03c1.33-1.6,3-2.37,5.16-2.37c2.37,0,3.98,0.84,5.86,2.86l6.14-6.13
				c-3.21-3.35-6.98-4.88-12-4.88c-7.26,0-16.24,3.83-16.24,18.55s8.99,18.62,16.24,18.62C207.49,79.93,211.26,78.33,214.47,74.99
				 M168.92,61.31c0,3.77-0.21,6.98-2.1,8.86c-1.05,1.05-2.44,1.61-4.26,1.61c-1.81,0-3.14-0.56-4.19-1.61
				c-1.88-1.88-2.09-5.09-2.09-8.86s0.21-6.91,2.09-8.8c1.05-1.05,2.38-1.6,4.19-1.6c1.81,0,3.21,0.56,4.26,1.6
				C168.71,54.4,168.92,57.54,168.92,61.31 M177.98,61.31c0-6.56-0.84-10.68-4.11-14.09c-2.23-2.37-5.93-4.46-11.3-4.46
				c-5.38,0-9.01,2.09-11.23,4.46c-3.28,3.41-4.11,7.53-4.11,14.09c0,6.63,0.83,10.75,4.11,14.16c2.23,2.37,5.86,4.46,11.23,4.46
				c5.37,0,9.07-2.09,11.3-4.46C177.14,72.06,177.98,67.94,177.98,61.31 M136.47,79.52V29.85h-9.69v20.3h-16.82v-20.3h-9.69v49.66
				h9.69V58.73h16.82v20.79H136.47z"/>
		</g>
		<g style="clip-path:url(#SVGID_00000137099315465744039570000004805783870529469868_);">
			<rect x="2.95" y="333.5" class="st3" width="948.1" height="3.22"/>
		</g>
		<g style="clip-path:url(#SVGID_00000137099315465744039570000004805783870529469868_);">
			<rect x="2.95" y="221.88" class="st3" width="948.1" height="3.22"/>
		</g>
		<g style="clip-path:url(#SVGID_00000137099315465744039570000004805783870529469868_);">
			<rect x="2.95" y="115.62" class="st3" width="948.1" height="3.22"/>
		</g>
		<g style="clip-path:url(#SVGID_00000137099315465744039570000004805783870529469868_);">
			<rect x="2.95" y="442.45" class="st3" width="948.1" height="3.22"/>
		</g>
		<g style="clip-path:url(#SVGID_00000137099315465744039570000004805783870529469868_);">
			<rect x="2.95" y="559.44" class="st3" width="948.1" height="3.22"/>
		</g>
		<g style="clip-path:url(#SVGID_00000137099315465744039570000004805783870529469868_);">
			<rect x="2.95" y="671.07" class="st3" width="948.1" height="3.22"/>
		</g>
		<g style="clip-path:url(#SVGID_00000137099315465744039570000004805783870529469868_);">
			<rect x="2.95" y="773.52" class="st3" width="948.1" height="3.22"/>
		</g>
		<g style="clip-path:url(#SVGID_00000137099315465744039570000004805783870529469868_);">
			<rect x="2.95" y="887.39" class="st3" width="948.1" height="3.22"/>
		</g>
		<g style="clip-path:url(#SVGID_00000137099315465744039570000004805783870529469868_);">
			<rect x="2.95" y="996.78" class="st3" width="948.1" height="3.22"/>
		</g>
		<g style="clip-path:url(#SVGID_00000137099315465744039570000004805783870529469868_);">
			<path class="st3" d="M679.76,616.03c0,3.21-2.24,5.51-5.4,5.51c-3.17,0-5.36-2.3-5.36-5.51c0-3.17,2.19-5.56,5.36-5.56
				C677.52,610.47,679.76,612.87,679.76,616.03 M680.33,632.09c0,3.36-2.6,6.02-5.97,6.02c-3.37,0-5.97-2.66-5.97-6.02
				c0-3.36,2.6-6.07,5.97-6.07C677.72,626.02,680.33,628.73,680.33,632.09 M685.57,632.19c0-4.34-2.44-6.99-4.99-8.51
				c2.35-1.43,4.38-3.98,4.38-7.8c0-6.07-4.69-10.04-10.6-10.04c-5.92,0-10.55,3.97-10.55,10.04c0,3.83,2.03,6.38,4.38,7.8
				c-2.55,1.52-4.99,4.18-4.99,8.51c0,6.58,4.94,10.55,11.16,10.55C680.58,642.74,685.57,638.77,685.57,632.19 M645.65,639.08
				l-3.52-3.47c-1.58,1.58-2.65,2.5-5,2.5c-4.18,0-6.32-2.91-6.32-8.62c0-5.61,2.14-8.57,6.32-8.57c2.3,0,3.47,0.92,5,2.45
				l3.52-3.41c-1.63-1.63-2.45-2.19-3.83-2.8c-1.33-0.56-2.86-0.86-4.64-0.86c-7.24,0-11.57,4.94-11.57,13.1
				c0,8.41,4.28,13.35,11.57,13.35c1.78,0,3.26-0.25,4.64-0.86C643.21,641.27,644.02,640.71,645.65,639.08 M620.92,639.08
				l-3.52-3.47c-1.58,1.58-2.65,2.5-5,2.5c-4.18,0-6.32-2.91-6.32-8.62c0-5.61,2.14-8.57,6.32-8.57c2.29,0,3.47,0.92,5,2.45
				l3.52-3.41c-1.63-1.63-2.45-2.19-3.82-2.8c-1.33-0.56-2.86-0.86-4.64-0.86c-7.23,0-11.57,4.94-11.57,13.1
				c0,8.41,4.28,13.35,11.57,13.35c1.79,0,3.26-0.25,4.64-0.86C618.48,641.27,619.29,640.71,620.92,639.08 M588.56,633.11
				c0,3.77-1.63,5.31-5.66,5.31c-3.52,0-5.1-1.18-5.1-3.68c0-2.45,1.58-3.67,4.64-3.67h6.12V633.11z M593.7,642.44v-17.28
				c0-5.87-3.62-8.87-10.81-8.87c-2.45,0-4.28,0.31-5.76,1.01c-1.27,0.56-1.93,1.18-3.36,2.7l3.41,3.21
				c0.76-0.97,1.33-1.48,2.09-1.84c0.92-0.46,1.99-0.67,3.47-0.67c4.08,0,5.81,1.43,5.81,4.8v1.89h-6.94c-5.51,0-8.87,2.8-8.87,7.49
				c0,5,3.21,7.8,8.97,7.8c3.06,0,4.74-0.46,6.89-2.6v2.34H593.7z M565.87,642.44V616.6h-17.69v10.75c0,10-2.65,10.51-4.89,10.51
				h-0.82v4.58h2.45c5.04,0,8.25-2.85,8.25-13.81v-7.5h7.5v21.31H565.87z M519.78,642.44v-18.96l14.63,18.96h6.99l-15.25-19.16
				l13.97-17.13h-6.78l-13.56,17.23v-17.23h-5.5v36.29H519.78z M496.28,602.37h-5l-14.53,43.84h5L496.28,602.37z M455.29,616.03
				c0,3.21-2.25,5.51-5.41,5.51c-3.16,0-5.36-2.3-5.36-5.51c0-3.17,2.2-5.56,5.36-5.56C453.04,610.47,455.29,612.87,455.29,616.03
				 M455.85,632.09c0,3.36-2.6,6.02-5.97,6.02s-5.97-2.66-5.97-6.02c0-3.36,2.6-6.07,5.97-6.07S455.85,628.73,455.85,632.09
				 M461.09,632.19c0-4.34-2.44-6.99-4.99-8.51c2.34-1.43,4.38-3.98,4.38-7.8c0-6.07-4.69-10.04-10.6-10.04
				c-5.91,0-10.55,3.97-10.55,10.04c0,3.83,2.04,6.38,4.38,7.8c-2.54,1.52-4.99,4.18-4.99,8.51c0,6.58,4.94,10.55,11.16,10.55
				C456.11,642.74,461.09,638.77,461.09,632.19 M415.16,627.41h-11.62c0.05-1.58,0.16-2.35,0.67-3.52c0.82-1.94,2.7-3.27,5.15-3.27
				c2.45,0,4.28,1.33,5.1,3.27C414.96,625.06,415.11,625.82,415.16,627.41 M420.31,631.02v-2.29c0-7.34-4.03-12.43-10.96-12.43
				c-6.63,0-10.95,4.84-10.95,13.2c0,9.84,5.14,13.25,11.62,13.25c4.53,0,7.04-1.37,9.69-4.02l-3.32-3.11
				c-1.84,1.84-3.36,2.65-6.27,2.65c-4.23,0-6.58-2.81-6.58-7.25H420.31z M392.88,634.54c0-4.59-2.86-6.89-7.7-7.29l-4.08-0.35
				c-2.75-0.26-3.57-1.43-3.57-2.96c0-1.94,1.58-3.32,4.69-3.32c2.45,0,4.74,0.51,6.37,1.89l3.26-3.32c-2.39-2.09-5.71-2.9-9.58-2.9
				c-5.4,0-9.74,2.85-9.74,7.89c0,4.54,2.8,6.74,7.65,7.14l4.13,0.35c2.5,0.2,3.47,1.33,3.47,3.06c0,2.45-2.5,3.57-5.66,3.57
				c-2.55,0-5.36-0.56-7.44-2.7l-3.42,3.42c3.06,3,6.63,3.71,10.86,3.71C388.29,642.74,392.88,639.94,392.88,634.54 M367.24,634.54
				c0-4.59-2.86-6.89-7.7-7.29l-4.08-0.35c-2.75-0.26-3.57-1.43-3.57-2.96c0-1.94,1.58-3.32,4.69-3.32c2.45,0,4.74,0.51,6.38,1.89
				l3.26-3.32c-2.4-2.09-5.71-2.9-9.58-2.9c-5.4,0-9.74,2.85-9.74,7.89c0,4.54,2.81,6.74,7.65,7.14l4.13,0.35
				c2.5,0.2,3.47,1.33,3.47,3.06c0,2.45-2.5,3.57-5.66,3.57c-2.55,0-5.35-0.56-7.44-2.7l-3.41,3.42c3.06,3,6.63,3.71,10.86,3.71
				C362.65,642.74,367.24,639.94,367.24,634.54 M334.41,633.11c0,1.84-0.35,3.06-1.12,3.83c-1.37,1.33-2.86,1.48-4.85,1.48
				c-3.26,0-4.74-1.33-4.74-3.68c0-2.35,1.58-3.72,4.64-3.72h6.07V633.11z M339.6,642.44v-17.28c0-5.87-3.56-8.87-10.65-8.87
				c-4.28,0-6.83,0.86-9.27,3.71l3.41,3.21c1.43-1.84,2.81-2.5,5.66-2.5c4.03,0,5.66,1.58,5.66,4.85v1.84h-6.83
				c-5.91,0-8.92,3.1-8.92,7.44c0,2.19,0.71,4.19,2.04,5.56c1.58,1.58,3.71,2.34,6.93,2.34s5-0.76,6.89-2.65v2.34H339.6z
				 M314.37,642.44v-4.43h-2.3c-2.09,0-2.8-1.02-2.8-3.01v-28.86h-5.19v29.16c0,3.82,2.14,7.13,7.08,7.13H314.37z M299.07,642.44
				l-13-22.07l11.78-14.22h-6.73l-14.83,18.25v-18.25h-5.5v36.29h5.5v-10.55l6.12-7.34l10.2,17.89H299.07z"/>
		</g>
		<g style="clip-path:url(#SVGID_00000137099315465744039570000004805783870529469868_);">
			<path class="st3" d="M679.92,845.87c0,3.87-2.3,6.33-5.56,6.33c-3.27,0-5.51-2.45-5.51-6.33c0-3.93,2.24-6.27,5.51-6.27
				C677.83,839.6,679.92,842.3,679.92,845.87 M685.11,845.77c0-6.38-4.28-10.5-9.53-10.5c-1.12,0-2.24,0.15-3.21,0.56l7.8-15.6
				h-5.56l-8.26,16.82c-1.58,3.16-2.7,5.96-2.7,8.92c0,6.74,4.48,10.86,10.75,10.86C680.68,856.83,685.11,852.45,685.11,845.77
				 M645.65,853.16l-3.52-3.47c-1.58,1.58-2.65,2.5-5,2.5c-4.18,0-6.32-2.91-6.32-8.62c0-5.61,2.14-8.57,6.32-8.57
				c2.3,0,3.47,0.92,5,2.45l3.52-3.41c-1.63-1.63-2.45-2.19-3.83-2.8c-1.33-0.56-2.86-0.86-4.64-0.86c-7.24,0-11.57,4.94-11.57,13.1
				c0,8.41,4.28,13.35,11.57,13.35c1.78,0,3.26-0.25,4.64-0.86C643.21,855.35,644.02,854.79,645.65,853.16 M620.92,853.16
				l-3.52-3.47c-1.58,1.58-2.65,2.5-5,2.5c-4.18,0-6.32-2.91-6.32-8.62c0-5.61,2.14-8.57,6.32-8.57c2.29,0,3.47,0.92,5,2.45
				l3.52-3.41c-1.63-1.63-2.45-2.19-3.82-2.8c-1.33-0.56-2.86-0.86-4.64-0.86c-7.23,0-11.57,4.94-11.57,13.1
				c0,8.41,4.28,13.35,11.57,13.35c1.79,0,3.26-0.25,4.64-0.86C618.48,855.35,619.29,854.79,620.92,853.16 M588.56,847.2
				c0,3.77-1.63,5.31-5.66,5.31c-3.52,0-5.1-1.18-5.1-3.68c0-2.45,1.58-3.68,4.64-3.68h6.12V847.2z M593.7,856.52v-17.28
				c0-5.87-3.62-8.87-10.81-8.87c-2.45,0-4.28,0.31-5.76,1.01c-1.27,0.56-1.93,1.18-3.36,2.7l3.41,3.21
				c0.76-0.97,1.33-1.48,2.09-1.84c0.92-0.46,1.99-0.67,3.47-0.67c4.08,0,5.81,1.43,5.81,4.8v1.89h-6.94c-5.51,0-8.87,2.8-8.87,7.49
				c0,5,3.21,7.79,8.97,7.79c3.06,0,4.74-0.46,6.89-2.59v2.34H593.7z M565.87,856.52v-25.84h-17.69v10.75
				c0,10-2.65,10.51-4.89,10.51h-0.82v4.58h2.45c5.04,0,8.25-2.85,8.25-13.81v-7.5h7.5v21.31H565.87z M519.78,856.52v-18.96
				l14.63,18.96h6.99l-15.25-19.16l13.97-17.13h-6.78l-13.56,17.23v-17.23h-5.5v36.29H519.78z M496.28,816.45h-5l-14.53,43.84h5
				L496.28,816.45z M455.44,845.87c0,3.87-2.3,6.33-5.56,6.33s-5.51-2.45-5.51-6.33c0-3.93,2.25-6.27,5.51-6.27
				C453.35,839.6,455.44,842.3,455.44,845.87 M460.64,845.77c0-6.38-4.28-10.5-9.53-10.5c-1.12,0-2.24,0.15-3.21,0.56l7.81-15.6
				h-5.56l-8.26,16.82c-1.58,3.16-2.7,5.96-2.7,8.92c0,6.74,4.48,10.86,10.75,10.86C456.2,856.83,460.64,852.45,460.64,845.77
				 M415.16,841.49h-11.62c0.05-1.58,0.16-2.35,0.67-3.52c0.82-1.94,2.7-3.27,5.15-3.27c2.45,0,4.28,1.33,5.1,3.27
				C414.96,839.14,415.11,839.91,415.16,841.49 M420.31,845.1v-2.29c0-7.34-4.03-12.43-10.96-12.43c-6.63,0-10.95,4.84-10.95,13.2
				c0,9.84,5.14,13.26,11.62,13.26c4.53,0,7.04-1.37,9.69-4.02l-3.32-3.11c-1.84,1.84-3.36,2.65-6.27,2.65
				c-4.23,0-6.58-2.81-6.58-7.24H420.31z M392.88,848.62c0-4.59-2.86-6.89-7.7-7.29l-4.08-0.35c-2.75-0.26-3.57-1.43-3.57-2.96
				c0-1.94,1.58-3.32,4.69-3.32c2.45,0,4.74,0.51,6.37,1.89l3.26-3.32c-2.39-2.09-5.71-2.9-9.58-2.9c-5.4,0-9.74,2.85-9.74,7.89
				c0,4.54,2.8,6.74,7.65,7.14l4.13,0.35c2.5,0.2,3.47,1.33,3.47,3.06c0,2.45-2.5,3.57-5.66,3.57c-2.55,0-5.36-0.56-7.44-2.7
				l-3.42,3.41c3.06,3.01,6.63,3.72,10.86,3.72C388.29,856.83,392.88,854.03,392.88,848.62 M367.24,848.62
				c0-4.59-2.86-6.89-7.7-7.29l-4.08-0.35c-2.75-0.26-3.57-1.43-3.57-2.96c0-1.94,1.58-3.32,4.69-3.32c2.45,0,4.74,0.51,6.38,1.89
				l3.26-3.32c-2.4-2.09-5.71-2.9-9.58-2.9c-5.4,0-9.74,2.85-9.74,7.89c0,4.54,2.81,6.74,7.65,7.14l4.13,0.35
				c2.5,0.2,3.47,1.33,3.47,3.06c0,2.45-2.5,3.57-5.66,3.57c-2.55,0-5.35-0.56-7.44-2.7l-3.41,3.41c3.06,3.01,6.63,3.72,10.86,3.72
				C362.65,856.83,367.24,854.03,367.24,848.62 M334.41,847.2c0,1.84-0.35,3.06-1.12,3.83c-1.37,1.33-2.86,1.48-4.85,1.48
				c-3.26,0-4.74-1.33-4.74-3.68c0-2.35,1.58-3.72,4.64-3.72h6.07V847.2z M339.6,856.52v-17.28c0-5.87-3.56-8.87-10.65-8.87
				c-4.28,0-6.83,0.86-9.27,3.71l3.41,3.21c1.43-1.84,2.81-2.5,5.66-2.5c4.03,0,5.66,1.58,5.66,4.85v1.84h-6.83
				c-5.91,0-8.92,3.1-8.92,7.44c0,2.2,0.71,4.19,2.04,5.56c1.58,1.58,3.71,2.34,6.93,2.34s5-0.76,6.89-2.65v2.34H339.6z
				 M314.37,856.52v-4.43h-2.3c-2.09,0-2.8-1.02-2.8-3.01v-28.86h-5.19v29.16c0,3.82,2.14,7.13,7.08,7.13H314.37z M299.07,856.52
				l-13-22.07l11.78-14.22h-6.73l-14.83,18.25v-18.25h-5.5v36.29h5.5v-10.55l6.12-7.34l10.2,17.89H299.07z"/>
		</g>
		<g style="clip-path:url(#SVGID_00000137099315465744039570000004805783870529469868_);">
			<path class="st3" d="M685.22,950.65c0-3.42-0.41-6.94-3.16-9.69c-1.48-1.48-3.67-2.35-6.53-2.35c-2.65,0-4.79,0.82-6.02,2.09
				v-9.59h14.89v-4.63h-19.57v19.83h4.73c0.56-1.79,2.2-3.27,5.15-3.27c4.19,0,5.31,3.27,5.31,7.6c0,2.45-0.2,4.84-1.73,6.38
				c-0.92,0.92-2.25,1.43-3.78,1.43c-3.26,0-4.89-1.84-5.3-5.05h-5.19c0.2,2.6,0.82,5,2.75,6.93c1.58,1.58,4.28,2.8,7.75,2.8
				c3.52,0,6.02-1.22,7.65-2.85C684.81,957.64,685.22,954.53,685.22,950.65 M645.65,959.42l-3.52-3.47c-1.58,1.58-2.65,2.5-5,2.5
				c-4.18,0-6.32-2.91-6.32-8.62c0-5.61,2.14-8.57,6.32-8.57c2.3,0,3.47,0.92,5,2.45l3.52-3.41c-1.63-1.63-2.45-2.19-3.83-2.8
				c-1.33-0.56-2.86-0.86-4.64-0.86c-7.24,0-11.57,4.94-11.57,13.1c0,8.41,4.28,13.35,11.57,13.35c1.78,0,3.26-0.25,4.64-0.86
				C643.21,961.61,644.02,961.05,645.65,959.42 M620.92,959.42l-3.52-3.47c-1.58,1.58-2.65,2.5-5,2.5c-4.18,0-6.32-2.91-6.32-8.62
				c0-5.61,2.14-8.57,6.32-8.57c2.29,0,3.47,0.92,5,2.45l3.52-3.41c-1.63-1.63-2.45-2.19-3.82-2.8c-1.33-0.56-2.86-0.86-4.64-0.86
				c-7.23,0-11.57,4.94-11.57,13.1c0,8.41,4.28,13.35,11.57,13.35c1.79,0,3.26-0.25,4.64-0.86
				C618.48,961.61,619.29,961.05,620.92,959.42 M588.56,953.46c0,3.77-1.63,5.31-5.66,5.31c-3.52,0-5.1-1.18-5.1-3.68
				c0-2.45,1.58-3.67,4.64-3.67h6.12V953.46z M593.7,962.78V945.5c0-5.87-3.62-8.87-10.81-8.87c-2.45,0-4.28,0.31-5.76,1.01
				c-1.27,0.56-1.93,1.18-3.36,2.7l3.41,3.21c0.76-0.97,1.33-1.48,2.09-1.84c0.92-0.46,1.99-0.67,3.47-0.67
				c4.08,0,5.81,1.43,5.81,4.8v1.89h-6.94c-5.51,0-8.87,2.8-8.87,7.49c0,5,3.21,7.8,8.97,7.8c3.06,0,4.74-0.46,6.89-2.6v2.34H593.7z
				 M565.87,962.78v-25.84h-17.69v10.75c0,10-2.65,10.51-4.89,10.51h-0.82v4.58h2.45c5.04,0,8.25-2.85,8.25-13.81v-7.5h7.5v21.31
				H565.87z M519.78,962.78v-18.96l14.63,18.96h6.99l-15.25-19.16l13.97-17.13h-6.78l-13.56,17.23v-17.23h-5.5v36.29H519.78z
				 M496.28,922.72h-5l-14.53,43.84h5L496.28,922.72z M460.74,950.65c0-3.42-0.41-6.94-3.16-9.69c-1.48-1.48-3.67-2.35-6.53-2.35
				c-2.66,0-4.8,0.82-6.02,2.09v-9.59h14.89v-4.63h-19.57v19.83h4.73c0.56-1.79,2.19-3.27,5.16-3.27c4.18,0,5.3,3.27,5.3,7.6
				c0,2.45-0.2,4.84-1.73,6.38c-0.92,0.92-2.24,1.43-3.77,1.43c-3.27,0-4.9-1.84-5.31-5.05h-5.19c0.2,2.6,0.82,5,2.75,6.93
				c1.58,1.58,4.28,2.8,7.75,2.8c3.52,0,6.02-1.22,7.65-2.85C460.33,957.64,460.74,954.53,460.74,950.65 M415.16,947.75h-11.62
				c0.05-1.58,0.16-2.35,0.67-3.52c0.82-1.94,2.7-3.27,5.15-3.27c2.45,0,4.28,1.33,5.1,3.27
				C414.96,945.4,415.11,946.17,415.16,947.75 M420.31,951.36v-2.29c0-7.34-4.03-12.43-10.96-12.43c-6.63,0-10.95,4.84-10.95,13.2
				c0,9.84,5.14,13.26,11.62,13.26c4.53,0,7.04-1.37,9.69-4.02l-3.32-3.11c-1.84,1.84-3.36,2.65-6.27,2.65
				c-4.23,0-6.58-2.81-6.58-7.25H420.31z M392.88,954.88c0-4.59-2.86-6.89-7.7-7.29l-4.08-0.35c-2.75-0.26-3.57-1.43-3.57-2.96
				c0-1.94,1.58-3.32,4.69-3.32c2.45,0,4.74,0.51,6.37,1.89l3.26-3.32c-2.39-2.09-5.71-2.9-9.58-2.9c-5.4,0-9.74,2.85-9.74,7.89
				c0,4.54,2.8,6.74,7.65,7.14l4.13,0.35c2.5,0.2,3.47,1.33,3.47,3.06c0,2.45-2.5,3.57-5.66,3.57c-2.55,0-5.36-0.56-7.44-2.7
				l-3.42,3.41c3.06,3.01,6.63,3.72,10.86,3.72C388.29,963.09,392.88,960.29,392.88,954.88 M367.24,954.88
				c0-4.59-2.86-6.89-7.7-7.29l-4.08-0.35c-2.75-0.26-3.57-1.43-3.57-2.96c0-1.94,1.58-3.32,4.69-3.32c2.45,0,4.74,0.51,6.38,1.89
				l3.26-3.32c-2.4-2.09-5.71-2.9-9.58-2.9c-5.4,0-9.74,2.85-9.74,7.89c0,4.54,2.81,6.74,7.65,7.14l4.13,0.35
				c2.5,0.2,3.47,1.33,3.47,3.06c0,2.45-2.5,3.57-5.66,3.57c-2.55,0-5.35-0.56-7.44-2.7l-3.41,3.41c3.06,3.01,6.63,3.72,10.86,3.72
				C362.65,963.09,367.24,960.29,367.24,954.88 M334.41,953.46c0,1.84-0.35,3.06-1.12,3.83c-1.37,1.33-2.86,1.48-4.85,1.48
				c-3.26,0-4.74-1.33-4.74-3.68c0-2.35,1.58-3.72,4.64-3.72h6.07V953.46z M339.6,962.78V945.5c0-5.87-3.56-8.87-10.65-8.87
				c-4.28,0-6.83,0.86-9.27,3.71l3.41,3.21c1.43-1.84,2.81-2.5,5.66-2.5c4.03,0,5.66,1.58,5.66,4.85v1.84h-6.83
				c-5.91,0-8.92,3.1-8.92,7.44c0,2.19,0.71,4.19,2.04,5.56c1.58,1.58,3.71,2.34,6.93,2.34s5-0.76,6.89-2.65v2.34H339.6z
				 M314.37,962.78v-4.43h-2.3c-2.09,0-2.8-1.02-2.8-3.01v-28.86h-5.19v29.16c0,3.82,2.14,7.13,7.08,7.13H314.37z M299.07,962.78
				l-13-22.07l11.78-14.22h-6.73l-14.83,18.25v-18.25h-5.5v36.29h5.5v-10.55l6.12-7.34l10.2,17.89H299.07z"/>
		</g>
		<g style="clip-path:url(#SVGID_00000137099315465744039570000004805783870529469868_);">
			<path class="st3" d="M679.92,499.8c0,3.93-2.3,6.27-5.56,6.27c-3.47,0-5.51-2.7-5.51-6.27c0-3.87,2.24-6.32,5.51-6.32
				C677.62,493.48,679.92,495.93,679.92,499.8 M685.11,499.7c0-6.73-4.48-10.86-10.75-10.86c-6.27,0-10.71,4.38-10.71,11.06
				c0,6.38,4.23,10.5,9.48,10.5c1.12,0,2.29-0.16,3.26-0.56l-7.8,15.6h5.56l8.26-16.82C683.99,505.46,685.11,502.66,685.11,499.7
				 M645.65,522.09l-3.52-3.47c-1.58,1.58-2.65,2.5-5,2.5c-4.18,0-6.32-2.91-6.32-8.62c0-5.61,2.14-8.57,6.32-8.57
				c2.3,0,3.47,0.92,5,2.45l3.52-3.41c-1.63-1.63-2.45-2.19-3.83-2.8c-1.33-0.56-2.86-0.86-4.64-0.86c-7.24,0-11.57,4.94-11.57,13.1
				c0,8.41,4.28,13.35,11.57,13.35c1.78,0,3.26-0.25,4.64-0.86C643.21,524.28,644.02,523.72,645.65,522.09 M620.92,522.09
				l-3.52-3.47c-1.58,1.58-2.65,2.5-5,2.5c-4.18,0-6.32-2.91-6.32-8.62c0-5.61,2.14-8.57,6.32-8.57c2.29,0,3.47,0.92,5,2.45
				l3.52-3.41c-1.63-1.63-2.45-2.19-3.82-2.8c-1.33-0.56-2.86-0.86-4.64-0.86c-7.23,0-11.57,4.94-11.57,13.1
				c0,8.41,4.28,13.35,11.57,13.35c1.79,0,3.26-0.25,4.64-0.86C618.48,524.28,619.29,523.72,620.92,522.09 M588.56,516.12
				c0,3.77-1.63,5.31-5.66,5.31c-3.52,0-5.1-1.18-5.1-3.68c0-2.45,1.58-3.67,4.64-3.67h6.12V516.12z M593.7,525.45v-17.28
				c0-5.87-3.62-8.87-10.81-8.87c-2.45,0-4.28,0.31-5.76,1.01c-1.27,0.56-1.93,1.18-3.36,2.7l3.41,3.21
				c0.76-0.97,1.33-1.48,2.09-1.84c0.92-0.46,1.99-0.67,3.47-0.67c4.08,0,5.81,1.43,5.81,4.8v1.89h-6.94c-5.51,0-8.87,2.8-8.87,7.49
				c0,5,3.21,7.8,8.97,7.8c3.06,0,4.74-0.46,6.89-2.6v2.34H593.7z M565.87,525.45V499.6h-17.69v10.75c0,10-2.65,10.51-4.89,10.51
				h-0.82v4.58h2.45c5.04,0,8.25-2.85,8.25-13.81v-7.5h7.5v21.31H565.87z M519.78,525.45v-18.96l14.63,18.96h6.99l-15.25-19.16
				l13.97-17.13h-6.78l-13.56,17.23v-17.23h-5.5v36.29H519.78z M496.28,485.38h-5l-14.53,43.84h5L496.28,485.38z M455.44,499.8
				c0,3.93-2.3,6.27-5.56,6.27c-3.47,0-5.51-2.7-5.51-6.27c0-3.87,2.25-6.32,5.51-6.32S455.44,495.93,455.44,499.8 M460.64,499.7
				c0-6.73-4.48-10.86-10.75-10.86c-6.27,0-10.7,4.38-10.7,11.06c0,6.38,4.22,10.5,9.48,10.5c1.12,0,2.3-0.16,3.26-0.56l-7.8,15.6
				h5.56l8.26-16.82C459.52,505.46,460.64,502.66,460.64,499.7 M415.16,510.41h-11.62c0.05-1.58,0.16-2.35,0.67-3.52
				c0.82-1.94,2.7-3.27,5.15-3.27c2.45,0,4.28,1.33,5.1,3.27C414.96,508.06,415.11,508.83,415.16,510.41 M420.31,514.02v-2.29
				c0-7.34-4.03-12.43-10.96-12.43c-6.63,0-10.95,4.84-10.95,13.2c0,9.84,5.14,13.25,11.62,13.25c4.53,0,7.04-1.37,9.69-4.02
				l-3.32-3.11c-1.84,1.84-3.36,2.65-6.27,2.65c-4.23,0-6.58-2.81-6.58-7.24H420.31z M392.88,517.55c0-4.59-2.86-6.89-7.7-7.29
				l-4.08-0.35c-2.75-0.26-3.57-1.43-3.57-2.96c0-1.94,1.58-3.32,4.69-3.32c2.45,0,4.74,0.51,6.37,1.89l3.26-3.32
				c-2.39-2.09-5.71-2.9-9.58-2.9c-5.4,0-9.74,2.85-9.74,7.89c0,4.54,2.8,6.74,7.65,7.14l4.13,0.35c2.5,0.2,3.47,1.33,3.47,3.06
				c0,2.45-2.5,3.57-5.66,3.57c-2.55,0-5.36-0.56-7.44-2.7l-3.42,3.42c3.06,3,6.63,3.71,10.86,3.71
				C388.29,525.75,392.88,522.95,392.88,517.55 M367.24,517.55c0-4.59-2.86-6.89-7.7-7.29l-4.08-0.35
				c-2.75-0.26-3.57-1.43-3.57-2.96c0-1.94,1.58-3.32,4.69-3.32c2.45,0,4.74,0.51,6.38,1.89l3.26-3.32c-2.4-2.09-5.71-2.9-9.58-2.9
				c-5.4,0-9.74,2.85-9.74,7.89c0,4.54,2.81,6.74,7.65,7.14l4.13,0.35c2.5,0.2,3.47,1.33,3.47,3.06c0,2.45-2.5,3.57-5.66,3.57
				c-2.55,0-5.35-0.56-7.44-2.7l-3.41,3.42c3.06,3,6.63,3.71,10.86,3.71C362.65,525.75,367.24,522.95,367.24,517.55 M334.41,516.12
				c0,1.84-0.35,3.06-1.12,3.83c-1.37,1.33-2.86,1.48-4.85,1.48c-3.26,0-4.74-1.33-4.74-3.68c0-2.35,1.58-3.72,4.64-3.72h6.07
				V516.12z M339.6,525.45v-17.28c0-5.87-3.56-8.87-10.65-8.87c-4.28,0-6.83,0.86-9.27,3.71l3.41,3.21c1.43-1.84,2.81-2.5,5.66-2.5
				c4.03,0,5.66,1.58,5.66,4.85v1.84h-6.83c-5.91,0-8.92,3.1-8.92,7.44c0,2.2,0.71,4.19,2.04,5.56c1.58,1.58,3.71,2.34,6.93,2.34
				s5-0.76,6.89-2.65v2.34H339.6z M314.37,525.45v-4.43h-2.3c-2.09,0-2.8-1.02-2.8-3.01v-28.86h-5.19v29.16
				c0,3.82,2.14,7.13,7.08,7.13H314.37z M299.07,525.45l-13-22.07l11.78-14.22h-6.73l-14.83,18.25v-18.25h-5.5v36.29h5.5v-10.55
				l6.12-7.34l10.2,17.89H299.07z"/>
		</g>
		<g style="clip-path:url(#SVGID_00000137099315465744039570000004805783870529469868_);">
			<path class="st3" d="M707.35,403.57c0,3.52-1.99,5.92-5.3,5.92c-3.32,0-5.26-2.4-5.26-5.92v-15.8c0-3.52,1.94-5.91,5.26-5.91
				c3.31,0,5.3,2.39,5.3,5.91V403.57z M712.54,403.73v-16.12c0-6.47-4.73-10.4-10.5-10.4s-10.45,3.92-10.45,10.4v16.12
				c0,6.48,4.68,10.4,10.45,10.4S712.54,410.21,712.54,403.73 M678.89,413.82v-36.29h-5.2l-7.08,6.12v5.76l7.08-6.21v30.63H678.89z
				 M645.65,410.46l-3.52-3.47c-1.58,1.58-2.65,2.5-5,2.5c-4.18,0-6.32-2.91-6.32-8.62c0-5.61,2.14-8.57,6.32-8.57
				c2.29,0,3.47,0.92,5,2.45l3.52-3.41c-1.63-1.63-2.45-2.19-3.82-2.8c-1.33-0.56-2.86-0.86-4.64-0.86
				c-7.23,0-11.57,4.94-11.57,13.1c0,8.41,4.28,13.35,11.57,13.35c1.79,0,3.26-0.25,4.64-0.86
				C643.2,412.65,644.02,412.09,645.65,410.46 M620.93,410.46l-3.52-3.47c-1.58,1.58-2.65,2.5-5,2.5c-4.18,0-6.32-2.91-6.32-8.62
				c0-5.61,2.14-8.57,6.32-8.57c2.3,0,3.47,0.92,5,2.45l3.52-3.41c-1.63-1.63-2.45-2.19-3.83-2.8c-1.33-0.56-2.86-0.86-4.64-0.86
				c-7.24,0-11.57,4.94-11.57,13.1c0,8.41,4.28,13.35,11.57,13.35c1.78,0,3.26-0.25,4.64-0.86
				C618.48,412.65,619.3,412.09,620.93,410.46 M588.56,404.49c0,3.77-1.64,5.31-5.67,5.31c-3.52,0-5.1-1.18-5.1-3.68
				c0-2.45,1.58-3.67,4.64-3.67h6.12V404.49z M593.7,413.82v-17.28c0-5.87-3.62-8.87-10.81-8.87c-2.45,0-4.28,0.31-5.76,1.01
				c-1.28,0.56-1.94,1.18-3.36,2.7l3.41,3.21c0.76-0.97,1.33-1.48,2.09-1.84c0.92-0.46,1.99-0.67,3.47-0.67
				c4.08,0,5.82,1.43,5.82,4.8v1.89h-6.94c-5.51,0-8.87,2.8-8.87,7.49c0,5,3.2,7.8,8.97,7.8c3.06,0,4.74-0.46,6.89-2.6v2.34H593.7z
				 M565.86,413.82v-25.84h-17.68v10.75c0,10-2.65,10.51-4.89,10.51h-0.82v4.58h2.45c5.04,0,8.25-2.85,8.25-13.81v-7.5h7.5v21.31
				H565.86z M519.78,413.82v-18.96l14.63,18.96h6.99l-15.25-19.16l13.97-17.13h-6.78l-13.56,17.23v-17.23h-5.5v36.29H519.78z
				 M496.28,373.75h-5l-14.53,43.84h5L496.28,373.75z M455.19,403.57c0,3.52-1.99,5.92-5.31,5.92c-3.31,0-5.25-2.4-5.25-5.92v-15.8
				c0-3.52,1.94-5.91,5.25-5.91c3.32,0,5.31,2.39,5.31,5.91V403.57z M460.38,403.73v-16.12c0-6.47-4.74-10.4-10.5-10.4
				c-5.76,0-10.44,3.92-10.44,10.4v16.12c0,6.48,4.68,10.4,10.44,10.4C455.64,414.12,460.38,410.21,460.38,403.73 M426.73,413.82
				v-36.29h-5.19l-7.08,6.12v5.76l7.08-6.21v30.63H426.73z M387.48,398.79h-11.62c0.05-1.58,0.16-2.35,0.67-3.52
				c0.82-1.94,2.7-3.27,5.15-3.27c2.45,0,4.28,1.33,5.1,3.27C387.27,396.44,387.43,397.2,387.48,398.79 M392.63,402.4v-2.29
				c0-7.34-4.03-12.43-10.96-12.43c-6.63,0-10.95,4.84-10.95,13.2c0,9.84,5.14,13.25,11.62,13.25c4.53,0,7.04-1.37,9.69-4.02
				l-3.32-3.11c-1.84,1.84-3.36,2.65-6.27,2.65c-4.23,0-6.58-2.81-6.58-7.25H392.63z M365.2,405.92c0-4.59-2.86-6.89-7.7-7.29
				l-4.08-0.35c-2.75-0.26-3.57-1.43-3.57-2.96c0-1.94,1.58-3.32,4.69-3.32c2.45,0,4.74,0.51,6.37,1.89l3.26-3.32
				c-2.39-2.09-5.71-2.9-9.58-2.9c-5.4,0-9.74,2.85-9.74,7.89c0,4.54,2.8,6.74,7.65,7.14l4.13,0.35c2.5,0.2,3.47,1.33,3.47,3.06
				c0,2.45-2.5,3.57-5.66,3.57c-2.55,0-5.36-0.56-7.44-2.7l-3.42,3.42c3.06,3,6.63,3.71,10.86,3.71
				C360.61,414.12,365.2,411.32,365.2,405.92 M339.56,405.92c0-4.59-2.86-6.89-7.7-7.29l-4.08-0.35c-2.75-0.26-3.57-1.43-3.57-2.96
				c0-1.94,1.58-3.32,4.69-3.32c2.45,0,4.74,0.51,6.38,1.89l3.26-3.32c-2.4-2.09-5.71-2.9-9.58-2.9c-5.4,0-9.74,2.85-9.74,7.89
				c0,4.54,2.81,6.74,7.65,7.14l4.13,0.35c2.5,0.2,3.47,1.33,3.47,3.06c0,2.45-2.5,3.57-5.66,3.57c-2.55,0-5.35-0.56-7.44-2.7
				l-3.41,3.42c3.06,3,6.63,3.71,10.86,3.71C334.97,414.12,339.56,411.32,339.56,405.92 M306.72,404.49c0,1.84-0.35,3.06-1.12,3.83
				c-1.37,1.33-2.86,1.48-4.85,1.48c-3.26,0-4.74-1.33-4.74-3.68c0-2.35,1.58-3.72,4.64-3.72h6.07V404.49z M311.92,413.82v-17.28
				c0-5.87-3.56-8.87-10.65-8.87c-4.28,0-6.83,0.86-9.27,3.71l3.41,3.21c1.43-1.84,2.81-2.5,5.66-2.5c4.03,0,5.66,1.58,5.66,4.85
				v1.84h-6.83c-5.91,0-8.92,3.1-8.92,7.44c0,2.19,0.71,4.19,2.04,5.56c1.58,1.58,3.71,2.34,6.93,2.34c3.21,0,5-0.76,6.89-2.65v2.34
				H311.92z M286.68,413.82v-4.43h-2.3c-2.09,0-2.8-1.02-2.8-3.01v-28.86h-5.19v29.16c0,3.82,2.14,7.13,7.08,7.13H286.68z
				 M271.39,413.82l-13-22.07l11.78-14.22h-6.73l-14.83,18.25v-18.25h-5.5v36.29h5.5v-10.55l6.12-7.34l10.2,17.89H271.39z"/>
		</g>
		<g style="clip-path:url(#SVGID_00000137099315465744039570000004805783870529469868_);">
			<path class="st3" d="M706.57,302.19V265.9h-5.19l-7.09,6.12v5.76l7.09-6.21v30.63H706.57z M678.89,302.19V265.9h-5.2l-7.08,6.12
				v5.76l7.08-6.21v30.63H678.89z M645.65,298.83l-3.52-3.47c-1.58,1.58-2.65,2.5-5,2.5c-4.18,0-6.32-2.91-6.32-8.62
				c0-5.61,2.14-8.57,6.32-8.57c2.29,0,3.47,0.92,5,2.45l3.52-3.41c-1.63-1.63-2.45-2.19-3.82-2.8c-1.33-0.56-2.86-0.86-4.64-0.86
				c-7.23,0-11.57,4.94-11.57,13.1c0,8.41,4.28,13.35,11.57,13.35c1.79,0,3.26-0.25,4.64-0.86
				C643.2,301.02,644.02,300.46,645.65,298.83 M620.93,298.83l-3.52-3.47c-1.58,1.58-2.65,2.5-5,2.5c-4.18,0-6.32-2.91-6.32-8.62
				c0-5.61,2.14-8.57,6.32-8.57c2.3,0,3.47,0.92,5,2.45l3.52-3.41c-1.63-1.63-2.45-2.19-3.83-2.8c-1.33-0.56-2.86-0.86-4.64-0.86
				c-7.24,0-11.57,4.94-11.57,13.1c0,8.41,4.28,13.35,11.57,13.35c1.78,0,3.26-0.25,4.64-0.86
				C618.48,301.02,619.3,300.46,620.93,298.83 M588.56,292.86c0,3.77-1.64,5.31-5.67,5.31c-3.52,0-5.1-1.18-5.1-3.68
				c0-2.45,1.58-3.67,4.64-3.67h6.12V292.86z M593.7,302.19v-17.28c0-5.87-3.62-8.87-10.81-8.87c-2.45,0-4.28,0.31-5.76,1.01
				c-1.28,0.56-1.94,1.18-3.36,2.7l3.41,3.21c0.76-0.97,1.33-1.48,2.09-1.84c0.92-0.46,1.99-0.67,3.47-0.67
				c4.08,0,5.82,1.43,5.82,4.8v1.89h-6.94c-5.51,0-8.87,2.8-8.87,7.49c0,5,3.2,7.8,8.97,7.8c3.06,0,4.74-0.46,6.89-2.6v2.34H593.7z
				 M565.86,302.19v-25.84h-17.68v10.75c0,10-2.65,10.51-4.89,10.51h-0.82v4.58h2.45c5.04,0,8.25-2.85,8.25-13.81v-7.5h7.5v21.31
				H565.86z M519.78,302.19v-18.96l14.63,18.96h6.99l-15.25-19.16l13.97-17.13h-6.78l-13.56,17.23V265.9h-5.5v36.29H519.78z
				 M496.28,262.12h-5l-14.53,43.84h5L496.28,262.12z M454.41,302.19V265.9h-5.19l-7.09,6.12v5.76l7.09-6.21v30.63H454.41z
				 M426.73,302.19V265.9h-5.19l-7.08,6.12v5.76l7.08-6.21v30.63H426.73z M387.48,287.16h-11.62c0.05-1.58,0.16-2.35,0.67-3.52
				c0.82-1.94,2.7-3.27,5.15-3.27c2.45,0,4.28,1.33,5.1,3.27C387.27,284.81,387.43,285.58,387.48,287.16 M392.63,290.77v-2.29
				c0-7.34-4.03-12.43-10.96-12.43c-6.63,0-10.95,4.84-10.95,13.2c0,9.84,5.14,13.26,11.62,13.26c4.53,0,7.04-1.37,9.69-4.02
				l-3.32-3.11c-1.84,1.84-3.36,2.65-6.27,2.65c-4.23,0-6.58-2.81-6.58-7.25H392.63z M365.2,294.29c0-4.59-2.86-6.89-7.7-7.29
				l-4.08-0.35c-2.75-0.26-3.57-1.43-3.57-2.96c0-1.94,1.58-3.32,4.69-3.32c2.45,0,4.74,0.51,6.37,1.89l3.26-3.32
				c-2.39-2.09-5.71-2.9-9.58-2.9c-5.4,0-9.74,2.85-9.74,7.89c0,4.54,2.8,6.74,7.65,7.14l4.13,0.35c2.5,0.2,3.47,1.33,3.47,3.06
				c0,2.45-2.5,3.57-5.66,3.57c-2.55,0-5.36-0.56-7.44-2.7l-3.42,3.41c3.06,3.01,6.63,3.72,10.86,3.72
				C360.61,302.5,365.2,299.7,365.2,294.29 M339.56,294.29c0-4.59-2.86-6.89-7.7-7.29l-4.08-0.35c-2.75-0.26-3.57-1.43-3.57-2.96
				c0-1.94,1.58-3.32,4.69-3.32c2.45,0,4.74,0.51,6.38,1.89l3.26-3.32c-2.4-2.09-5.71-2.9-9.58-2.9c-5.4,0-9.74,2.85-9.74,7.89
				c0,4.54,2.81,6.74,7.65,7.14l4.13,0.35c2.5,0.2,3.47,1.33,3.47,3.06c0,2.45-2.5,3.57-5.66,3.57c-2.55,0-5.35-0.56-7.44-2.7
				l-3.41,3.41c3.06,3.01,6.63,3.72,10.86,3.72C334.97,302.5,339.56,299.7,339.56,294.29 M306.72,292.86c0,1.84-0.35,3.06-1.12,3.83
				c-1.37,1.33-2.86,1.48-4.85,1.48c-3.26,0-4.74-1.33-4.74-3.68c0-2.35,1.58-3.72,4.64-3.72h6.07V292.86z M311.92,302.19v-17.28
				c0-5.87-3.56-8.87-10.65-8.87c-4.28,0-6.83,0.86-9.27,3.71l3.41,3.21c1.43-1.84,2.81-2.5,5.66-2.5c4.03,0,5.66,1.58,5.66,4.85
				v1.84h-6.83c-5.91,0-8.92,3.1-8.92,7.44c0,2.19,0.71,4.19,2.04,5.56c1.58,1.58,3.71,2.34,6.93,2.34c3.21,0,5-0.76,6.89-2.65v2.34
				H311.92z M286.68,302.19v-4.43h-2.3c-2.09,0-2.8-1.02-2.8-3.01V265.9h-5.19v29.16c0,3.82,2.14,7.13,7.08,7.13H286.68z
				 M271.39,302.19l-13-22.07l11.78-14.22h-6.73l-14.83,18.25V265.9h-5.5v36.29h5.5v-10.55l6.12-7.34l10.2,17.89H271.39z"/>
		</g>
		<g style="clip-path:url(#SVGID_00000137099315465744039570000004805783870529469868_);">
			<path class="st3" d="M712.79,190.56v-4.63h-14.77l11.37-13.92c2.24-2.76,3.41-4.64,3.41-7.86c0-6.27-4.28-10.19-10.49-10.19
				c-6.17,0-10.56,4.07-10.56,10.25h5.2c0-4.08,2.6-5.61,5.36-5.61c3.36,0,5.3,2.25,5.3,5.51c0,1.84-0.56,3.16-1.94,4.84
				l-13.97,16.99v4.63H712.79z M678.89,190.56v-36.29h-5.2l-7.08,6.12v5.76l7.08-6.21v30.63H678.89z M645.65,187.2l-3.52-3.47
				c-1.58,1.58-2.65,2.5-5,2.5c-4.18,0-6.32-2.91-6.32-8.62c0-5.61,2.14-8.57,6.32-8.57c2.29,0,3.47,0.92,5,2.45l3.52-3.41
				c-1.63-1.63-2.45-2.19-3.82-2.8c-1.33-0.56-2.86-0.86-4.64-0.86c-7.23,0-11.57,4.94-11.57,13.1c0,8.41,4.28,13.35,11.57,13.35
				c1.79,0,3.26-0.25,4.64-0.86C643.2,189.39,644.02,188.84,645.65,187.2 M620.93,187.2l-3.52-3.47c-1.58,1.58-2.65,2.5-5,2.5
				c-4.18,0-6.32-2.91-6.32-8.62c0-5.61,2.14-8.57,6.32-8.57c2.3,0,3.47,0.92,5,2.45l3.52-3.41c-1.63-1.63-2.45-2.19-3.83-2.8
				c-1.33-0.56-2.86-0.86-4.64-0.86c-7.24,0-11.57,4.94-11.57,13.1c0,8.41,4.28,13.35,11.57,13.35c1.78,0,3.26-0.25,4.64-0.86
				C618.48,189.39,619.3,188.84,620.93,187.2 M588.56,181.24c0,3.77-1.64,5.31-5.67,5.31c-3.52,0-5.1-1.18-5.1-3.68
				c0-2.45,1.58-3.67,4.64-3.67h6.12V181.24z M593.7,190.56v-17.28c0-5.87-3.62-8.87-10.81-8.87c-2.45,0-4.28,0.31-5.76,1.01
				c-1.28,0.56-1.94,1.18-3.36,2.7l3.41,3.21c0.76-0.97,1.33-1.48,2.09-1.84c0.92-0.46,1.99-0.67,3.47-0.67
				c4.08,0,5.82,1.43,5.82,4.8v1.89h-6.94c-5.51,0-8.87,2.8-8.87,7.49c0,5,3.2,7.8,8.97,7.8c3.06,0,4.74-0.46,6.89-2.6v2.34H593.7z
				 M565.86,190.56v-25.84h-17.68v10.75c0,10-2.65,10.51-4.89,10.51h-0.82v4.58h2.45c5.04,0,8.25-2.85,8.25-13.81v-7.5h7.5v21.31
				H565.86z M519.78,190.56V171.6l14.63,18.96h6.99l-15.25-19.16l13.97-17.13h-6.78l-13.56,17.23v-17.23h-5.5v36.29H519.78z
				 M496.28,150.5h-5l-14.53,43.84h5L496.28,150.5z M460.63,190.56v-4.63h-14.77l11.37-13.92c2.24-2.76,3.41-4.64,3.41-7.86
				c0-6.27-4.28-10.19-10.49-10.19c-6.17,0-10.56,4.07-10.56,10.25h5.2c0-4.08,2.6-5.61,5.36-5.61c3.36,0,5.3,2.25,5.3,5.51
				c0,1.84-0.56,3.16-1.94,4.84l-13.97,16.99v4.63H460.63z M426.73,190.56v-36.29h-5.19l-7.08,6.12v5.76l7.08-6.21v30.63H426.73z
				 M387.48,175.53h-11.62c0.05-1.58,0.16-2.35,0.67-3.52c0.82-1.94,2.7-3.27,5.15-3.27c2.45,0,4.28,1.33,5.1,3.27
				C387.27,173.18,387.43,173.95,387.48,175.53 M392.63,179.14v-2.29c0-7.34-4.03-12.43-10.96-12.43c-6.63,0-10.95,4.84-10.95,13.2
				c0,9.84,5.14,13.26,11.62,13.26c4.53,0,7.04-1.37,9.69-4.02l-3.32-3.11c-1.84,1.84-3.36,2.65-6.27,2.65
				c-4.23,0-6.58-2.81-6.58-7.25H392.63z M365.2,182.66c0-4.59-2.86-6.89-7.7-7.29l-4.08-0.35c-2.75-0.26-3.57-1.43-3.57-2.96
				c0-1.94,1.58-3.32,4.69-3.32c2.45,0,4.74,0.51,6.37,1.89l3.26-3.32c-2.39-2.09-5.71-2.9-9.58-2.9c-5.4,0-9.74,2.85-9.74,7.89
				c0,4.54,2.8,6.74,7.65,7.14l4.13,0.35c2.5,0.2,3.47,1.33,3.47,3.06c0,2.45-2.5,3.57-5.66,3.57c-2.55,0-5.36-0.56-7.44-2.7
				l-3.42,3.41c3.06,3.01,6.63,3.72,10.86,3.72C360.61,190.87,365.2,188.07,365.2,182.66 M339.56,182.66c0-4.59-2.86-6.89-7.7-7.29
				l-4.08-0.35c-2.75-0.26-3.57-1.43-3.57-2.96c0-1.94,1.58-3.32,4.69-3.32c2.45,0,4.74,0.51,6.38,1.89l3.26-3.32
				c-2.4-2.09-5.71-2.9-9.58-2.9c-5.4,0-9.74,2.85-9.74,7.89c0,4.54,2.81,6.74,7.65,7.14l4.13,0.35c2.5,0.2,3.47,1.33,3.47,3.06
				c0,2.45-2.5,3.57-5.66,3.57c-2.55,0-5.35-0.56-7.44-2.7l-3.41,3.41c3.06,3.01,6.63,3.72,10.86,3.72
				C334.97,190.87,339.56,188.07,339.56,182.66 M306.72,181.24c0,1.84-0.35,3.06-1.12,3.83c-1.37,1.33-2.86,1.48-4.85,1.48
				c-3.26,0-4.74-1.33-4.74-3.68c0-2.35,1.58-3.72,4.64-3.72h6.07V181.24z M311.92,190.56v-17.28c0-5.87-3.56-8.87-10.65-8.87
				c-4.28,0-6.83,0.86-9.27,3.71l3.41,3.21c1.43-1.84,2.81-2.5,5.66-2.5c4.03,0,5.66,1.58,5.66,4.85v1.84h-6.83
				c-5.91,0-8.92,3.1-8.92,7.44c0,2.19,0.71,4.19,2.04,5.56c1.58,1.58,3.71,2.34,6.93,2.34c3.21,0,5-0.76,6.89-2.65v2.34H311.92z
				 M286.68,190.56v-4.43h-2.3c-2.09,0-2.8-1.02-2.8-3.01v-28.86h-5.19v29.16c0,3.82,2.14,7.13,7.08,7.13H286.68z M271.39,190.56
				l-13-22.07l11.78-14.22h-6.73l-14.83,18.25v-18.25h-5.5v36.29h5.5v-10.55l6.12-7.34l10.2,17.89H271.39z"/>
		</g>
		<g style="clip-path:url(#SVGID_00000137099315465744039570000004805783870529469868_);">
			<path class="st3" d="M685.62,717.04v-4.64h-21.62v10.35h5v-5.71h11.07l-12.19,31.66h5.61L685.62,717.04z M645.65,745.34
				l-3.52-3.47c-1.58,1.58-2.65,2.5-5,2.5c-4.18,0-6.32-2.91-6.32-8.62c0-5.61,2.14-8.57,6.32-8.57c2.3,0,3.47,0.92,5,2.45
				l3.52-3.41c-1.63-1.63-2.45-2.19-3.83-2.8c-1.33-0.56-2.86-0.86-4.64-0.86c-7.24,0-11.57,4.94-11.57,13.1
				c0,8.41,4.28,13.35,11.57,13.35c1.78,0,3.26-0.25,4.64-0.86C643.21,747.53,644.02,746.97,645.65,745.34 M620.92,745.34
				l-3.52-3.47c-1.58,1.58-2.65,2.5-5,2.5c-4.18,0-6.32-2.91-6.32-8.62c0-5.61,2.14-8.57,6.32-8.57c2.29,0,3.47,0.92,5,2.45
				l3.52-3.41c-1.63-1.63-2.45-2.19-3.82-2.8c-1.33-0.56-2.86-0.86-4.64-0.86c-7.23,0-11.57,4.94-11.57,13.1
				c0,8.41,4.28,13.35,11.57,13.35c1.79,0,3.26-0.25,4.64-0.86C618.48,747.53,619.29,746.97,620.92,745.34 M588.56,739.37
				c0,3.77-1.63,5.31-5.66,5.31c-3.52,0-5.1-1.18-5.1-3.68c0-2.45,1.58-3.67,4.64-3.67h6.12V739.37z M593.7,748.7v-17.28
				c0-5.87-3.62-8.87-10.81-8.87c-2.45,0-4.28,0.31-5.76,1.01c-1.27,0.56-1.93,1.18-3.36,2.7l3.41,3.21
				c0.76-0.97,1.33-1.48,2.09-1.84c0.92-0.46,1.99-0.67,3.47-0.67c4.08,0,5.81,1.43,5.81,4.8v1.89h-6.94c-5.51,0-8.87,2.8-8.87,7.49
				c0,5,3.21,7.8,8.97,7.8c3.06,0,4.74-0.46,6.89-2.6v2.34H593.7z M565.87,748.7v-25.84h-17.69v10.75c0,10-2.65,10.51-4.89,10.51
				h-0.82v4.58h2.45c5.04,0,8.25-2.85,8.25-13.81v-7.5h7.5v21.31H565.87z M519.78,748.7v-18.96l14.63,18.96h6.99l-15.25-19.16
				l13.97-17.13h-6.78l-13.56,17.23V712.4h-5.5v36.29H519.78z M496.28,708.63h-5l-14.53,43.84h5L496.28,708.63z M461.15,717.04
				v-4.64h-21.62v10.35h5v-5.71h11.06l-12.18,31.66h5.61L461.15,717.04z M415.16,733.67h-11.62c0.05-1.58,0.16-2.35,0.67-3.52
				c0.82-1.94,2.7-3.27,5.15-3.27c2.45,0,4.28,1.33,5.1,3.27C414.96,731.32,415.11,732.08,415.16,733.67 M420.31,737.28v-2.29
				c0-7.34-4.03-12.43-10.96-12.43c-6.63,0-10.95,4.84-10.95,13.2c0,9.84,5.14,13.25,11.62,13.25c4.53,0,7.04-1.37,9.69-4.02
				l-3.32-3.11c-1.84,1.84-3.36,2.65-6.27,2.65c-4.23,0-6.58-2.81-6.58-7.24H420.31z M392.88,740.8c0-4.59-2.86-6.89-7.7-7.29
				l-4.08-0.35c-2.75-0.26-3.57-1.43-3.57-2.96c0-1.94,1.58-3.32,4.69-3.32c2.45,0,4.74,0.51,6.37,1.89l3.26-3.32
				c-2.39-2.09-5.71-2.9-9.58-2.9c-5.4,0-9.74,2.85-9.74,7.89c0,4.54,2.8,6.74,7.65,7.14l4.13,0.35c2.5,0.2,3.47,1.33,3.47,3.06
				c0,2.45-2.5,3.57-5.66,3.57c-2.55,0-5.36-0.56-7.44-2.7l-3.42,3.42c3.06,3,6.63,3.71,10.86,3.71
				C388.29,749,392.88,746.2,392.88,740.8 M367.24,740.8c0-4.59-2.86-6.89-7.7-7.29l-4.08-0.35c-2.75-0.26-3.57-1.43-3.57-2.96
				c0-1.94,1.58-3.32,4.69-3.32c2.45,0,4.74,0.51,6.38,1.89l3.26-3.32c-2.4-2.09-5.71-2.9-9.58-2.9c-5.4,0-9.74,2.85-9.74,7.89
				c0,4.54,2.81,6.74,7.65,7.14l4.13,0.35c2.5,0.2,3.47,1.33,3.47,3.06c0,2.45-2.5,3.57-5.66,3.57c-2.55,0-5.35-0.56-7.44-2.7
				l-3.41,3.42c3.06,3,6.63,3.71,10.86,3.71C362.65,749,367.24,746.2,367.24,740.8 M334.41,739.37c0,1.84-0.35,3.06-1.12,3.83
				c-1.37,1.33-2.86,1.48-4.85,1.48c-3.26,0-4.74-1.33-4.74-3.68c0-2.35,1.58-3.72,4.64-3.72h6.07V739.37z M339.6,748.7v-17.28
				c0-5.87-3.56-8.87-10.65-8.87c-4.28,0-6.83,0.86-9.27,3.71l3.41,3.21c1.43-1.84,2.81-2.5,5.66-2.5c4.03,0,5.66,1.58,5.66,4.85
				v1.84h-6.83c-5.91,0-8.92,3.1-8.92,7.44c0,2.2,0.71,4.19,2.04,5.56c1.58,1.58,3.71,2.34,6.93,2.34s5-0.76,6.89-2.65v2.34H339.6z
				 M314.37,748.7v-4.43h-2.3c-2.09,0-2.8-1.02-2.8-3.01V712.4h-5.19v29.16c0,3.82,2.14,7.13,7.08,7.13H314.37z M299.07,748.7
				l-13-22.07l11.78-14.22h-6.73l-14.83,18.25V712.4h-5.5v36.29h5.5v-10.55l6.12-7.34l10.2,17.89H299.07z"/>
		</g>
	</g>
	<g>
		<polygon class="st4" points="19.8,718.33 35.15,718.33 27.48,708.18 		"/>
	</g>
	<g>
		<polygon class="st4" points="19.8,738.52 35.15,738.52 27.48,728.37 		"/>
	</g>
	<g>
		<polygon class="st4" points="19.8,758.7 35.15,758.7 27.48,748.55 		"/>
	</g>
	<g>
		<polygon class="st4" points="19.8,698.15 35.15,698.15 27.48,688 		"/>
	</g>
	<g>
		<polygon class="st4" points="19.8,823.11 35.15,823.11 27.48,812.96 		"/>
	</g>
	<g>
		<polygon class="st4" points="19.8,843.29 35.15,843.29 27.48,833.14 		"/>
	</g>
	<g>
		<polygon class="st4" points="19.8,863.48 35.15,863.48 27.48,853.33 		"/>
	</g>
	<g>
		<polygon class="st4" points="19.8,802.92 35.15,802.92 27.48,792.77 		"/>
	</g>
	<g>
		<polygon class="st4" points="19.8,940.24 35.15,940.24 27.48,930.09 		"/>
	</g>
	<g>
		<polygon class="st4" points="19.8,960.43 35.15,960.43 27.48,950.28 		"/>
	</g>
	<g>
		<polygon class="st4" points="19.8,980.61 35.15,980.61 27.48,970.47 		"/>
	</g>
	<g>
		<polygon class="st4" points="19.8,920.06 35.15,920.06 27.48,909.91 		"/>
	</g>
	<g>
		<polygon class="st4" points="19.8,611.85 35.15,611.85 27.48,601.7 		"/>
	</g>
	<g>
		<polygon class="st4" points="19.8,632.03 35.15,632.03 27.48,621.89 		"/>
	</g>
	<g>
		<polygon class="st4" points="19.8,652.22 35.15,652.22 27.48,642.07 		"/>
	</g>
	<g>
		<polygon class="st4" points="19.8,591.66 35.15,591.66 27.48,581.51 		"/>
	</g>
	<g>
		<polygon class="st4" points="19.8,497.54 35.15,497.54 27.48,487.39 		"/>
	</g>
	<g>
		<polygon class="st4" points="19.8,517.72 35.15,517.72 27.48,507.58 		"/>
	</g>
	<g>
		<polygon class="st4" points="19.8,537.91 35.15,537.91 27.48,527.76 		"/>
	</g>
	<g>
		<polygon class="st4" points="19.8,477.35 35.15,477.35 27.48,467.2 		"/>
	</g>
	<g>
		<polygon class="st4" points="19.8,384.57 35.15,384.57 27.48,374.42 		"/>
	</g>
	<g>
		<polygon class="st4" points="19.8,404.75 35.15,404.75 27.48,394.6 		"/>
	</g>
	<g>
		<polygon class="st4" points="19.8,424.94 35.15,424.94 27.48,414.79 		"/>
	</g>
	<g>
		<polygon class="st4" points="19.8,364.38 35.15,364.38 27.48,354.23 		"/>
	</g>
	<g>
		<polygon class="st4" points="19.8,274.28 35.15,274.28 27.48,264.14 		"/>
	</g>
	<g>
		<polygon class="st4" points="19.8,294.47 35.15,294.47 27.48,284.32 		"/>
	</g>
	<g>
		<polygon class="st4" points="19.8,314.66 35.15,314.66 27.48,304.51 		"/>
	</g>
	<g>
		<polygon class="st4" points="19.8,254.1 35.15,254.1 27.48,243.95 		"/>
	</g>
	<g>
		<polygon class="st4" points="19.8,162.66 35.15,162.66 27.48,152.51 		"/>
	</g>
	<g>
		<polygon class="st4" points="19.8,182.84 35.15,182.84 27.48,172.69 		"/>
	</g>
	<g>
		<polygon class="st4" points="19.8,203.03 35.15,203.03 27.48,192.88 		"/>
	</g>
	<g>
		<polygon class="st4" points="19.8,142.47 35.15,142.47 27.48,132.32 		"/>
	</g>
</g>
</svg>
