<?xml version="1.0" encoding="utf-8"?>
<!-- Generator: Adobe Illustrator 26.2.1, SVG Export Plug-In . SVG Version: 6.00 Build 0)  -->
<svg version="1.1" id="Ebene_1" xmlns="http://www.w3.org/2000/svg" xmlns:xlink="http://www.w3.org/1999/xlink" x="0px" y="0px"
	 viewBox="0 0 1000 702.95" style="enable-background:new 0 0 1000 702.95;" xml:space="preserve">
<style type="text/css">
	.st0{fill:#A2B9E1;}
	.st1{fill:#6796CF;}
	.st2{clip-path:url(#SVGID_00000075148477034744580470000015995163762112394935_);}
	.st3{fill:#2B2961;}
	.st4{fill:#FFFFFF;}
	.st5{clip-path:url(#SVGID_00000165216005128337501780000014342281060087232930_);}
	.st6{clip-path:url(#SVGID_00000023263175796502976870000006194057210573507485_);}
	.st7{clip-path:url(#SVGID_00000099659980609425331590000006018104264780502709_);}
	.st8{clip-path:url(#SVGID_00000032649705392994415450000005030303528930960306_);}
	.st9{clip-path:url(#SVGID_00000016785316399325756070000009240923230312783534_);}
	.st10{opacity:0.52;clip-path:url(#SVGID_00000025436618659174659510000010414108027510853274_);}
	.st11{clip-path:url(#SVGID_00000099625753385635801420000001327842180962767799_);}
	.st12{clip-path:url(#SVGID_00000018917965792261801330000012862683275414995114_);}
	.st13{clip-path:url(#SVGID_00000054968716795790201210000006898047835362661546_);}
	.st14{clip-path:url(#SVGID_00000132062779644611927290000006955920935050273960_);}
	.st15{clip-path:url(#SVGID_00000021820320812530285730000017197642642680895126_);}
	.st16{clip-path:url(#SVGID_00000114040067121612719090000003112655555441924521_);}
	.st17{clip-path:url(#SVGID_00000037653307780248161580000014287062595299797173_);}
	.st18{clip-path:url(#SVGID_00000030477610090889095560000015735332162953348767_);}
	.st19{clip-path:url(#SVGID_00000029036649712674706880000013919655398617799297_);}
	.st20{clip-path:url(#SVGID_00000073707820579803593390000008127879537647534779_);}
	.st21{clip-path:url(#SVGID_00000155835265525637034020000018419625603097244806_);}
	.st22{clip-path:url(#SVGID_00000023248525440293479450000001414615219034337172_);}
	.st23{fill:none;stroke:#2B2961;stroke-width:0.374;stroke-linejoin:round;stroke-miterlimit:10;}
	.st24{fill:none;stroke:#2B2961;stroke-width:0.4;stroke-miterlimit:10;}
	.st25{clip-path:url(#SVGID_00000096021842246515036250000001655886510863586454_);}
	.st26{clip-path:url(#SVGID_00000041258777209769151910000016681182206941463998_);}
	.st27{clip-path:url(#SVGID_00000031207834403169010650000010200812727074865537_);}
	.st28{clip-path:url(#SVGID_00000053531477684131766390000013209213135764012729_);}
	.st29{clip-path:url(#SVGID_00000017487054005177884050000002449227197033478318_);}
	.st30{clip-path:url(#SVGID_00000054233838005167108990000002914670271902260105_);}
	.st31{clip-path:url(#SVGID_00000011751425085817774020000011268528983435102399_);}
	.st32{clip-path:url(#SVGID_00000011742608076000405260000008460630555750846372_);}
	.st33{clip-path:url(#SVGID_00000098179738927705249960000005301422511214035351_);}
	.st34{clip-path:url(#SVGID_00000057131879933772287800000002949964121555870887_);}
	.st35{clip-path:url(#SVGID_00000146500772929656319230000000195822775758141372_);}
	.st36{clip-path:url(#SVGID_00000145045654719164071500000001441121693128805561_);}
	.st37{clip-path:url(#SVGID_00000169549760899504368850000006585055847801843610_);}
	.st38{clip-path:url(#SVGID_00000074417201728916945310000017353537293127567799_);}
	.st39{clip-path:url(#SVGID_00000049219731701100695120000007705943741586530482_);}
	.st40{clip-path:url(#SVGID_00000039841255627090082420000016322898095681154709_);}
	.st41{clip-path:url(#SVGID_00000106865509900709421870000015265827658711070866_);}
	.st42{clip-path:url(#SVGID_00000099630740664205332610000014349593199265173397_);}
	.st43{clip-path:url(#SVGID_00000007408353715517381380000015457316986108410243_);}
	.st44{clip-path:url(#SVGID_00000121278607728104805050000011483325297988030099_);}
	.st45{clip-path:url(#SVGID_00000122678995326483781550000002567258113260272813_);}
	.st46{clip-path:url(#SVGID_00000094596090792964523140000016104579198893574832_);}
	.st47{clip-path:url(#SVGID_00000047054409108570969180000006583881540220196534_);}
	.st48{clip-path:url(#SVGID_00000031896095177907598380000008848195605405395098_);}
	.st49{clip-path:url(#SVGID_00000147197731410795086750000014425003565796820650_);}
	.st50{clip-path:url(#SVGID_00000003785992957332394840000009221725267424653493_);}
	.st51{clip-path:url(#SVGID_00000039853714624467334870000014920699178293728922_);}
	.st52{clip-path:url(#SVGID_00000155125767565160704750000012932405009955369385_);}
	.st53{clip-path:url(#SVGID_00000041984904588959274140000000409815279912936356_);}
	.st54{clip-path:url(#SVGID_00000118397719290088775210000010455173153925238671_);}
	.st55{clip-path:url(#SVGID_00000039098463469740401280000012650923810101589659_);}
	.st56{clip-path:url(#SVGID_00000004514394665110981200000007047341568605694140_);}
	.st57{clip-path:url(#SVGID_00000152964807264756194960000013618124666407567767_);}
	.st58{clip-path:url(#SVGID_00000009584690656328306130000016554250025718459015_);}
	.st59{clip-path:url(#SVGID_00000023989469397032087420000000286417450021138345_);}
	.st60{clip-path:url(#SVGID_00000018939347263784120250000016303038230623686788_);}
	.st61{clip-path:url(#SVGID_00000011712852240716883060000004934039913351320200_);}
	.st62{fill:#9AB4DE;}
	.st63{clip-path:url(#SVGID_00000000937452878814702490000005598118731315739802_);}
	.st64{clip-path:url(#SVGID_00000035523438686679082460000003080948460344700847_);}
	.st65{clip-path:url(#SVGID_00000003805625476526531960000001016722767796691902_);}
	.st66{fill:#B9C9E9;}
	.st67{clip-path:url(#SVGID_00000142161954900973414590000005895360359642223488_);}
	.st68{clip-path:url(#SVGID_00000060746075474693091760000008486029772605319561_);}
	.st69{clip-path:url(#SVGID_00000015346663114472687560000013056719325833340039_);}
	.st70{clip-path:url(#SVGID_00000137115190151433233360000015182846589363241359_);}
	.st71{clip-path:url(#SVGID_00000120517163145084202580000004917794850792314003_);}
	.st72{clip-path:url(#SVGID_00000129927906895154596400000014968895536511605383_);}
	.st73{clip-path:url(#SVGID_00000017487309531988898640000004724321020051977345_);}
	.st74{clip-path:url(#SVGID_00000134955708465398965660000017462215946950095491_);}
	.st75{clip-path:url(#SVGID_00000142869561130898245150000009724823986950519224_);}
	.st76{clip-path:url(#SVGID_00000151524158750622832010000014178577115224182659_);}
	.st77{clip-path:url(#SVGID_00000149361380344283600090000005166373374066727317_);}
	.st78{clip-path:url(#SVGID_00000150782931688417624500000005327418023653445519_);}
	.st79{clip-path:url(#SVGID_00000115477533654100663430000014766225996033240494_);}
	.st80{clip-path:url(#SVGID_00000181774538690628789210000012223196818807821738_);}
	.st81{clip-path:url(#SVGID_00000157299629312214154840000003015120040693139864_);}
	.st82{clip-path:url(#SVGID_00000155128507471888698570000010920984794232902280_);}
	.st83{clip-path:url(#SVGID_00000013890588634920040460000009853154036873889958_);}
	.st84{clip-path:url(#SVGID_00000010276488700072006570000003526884510475466911_);}
	.st85{clip-path:url(#SVGID_00000078739507111499503820000015332271315519047566_);}
	.st86{clip-path:url(#SVGID_00000049928172049187072910000005657608129588315566_);}
	.st87{clip-path:url(#SVGID_00000135690322021026016710000007760813667009971118_);}
	.st88{clip-path:url(#SVGID_00000054246961340396910210000007206022564374867605_);}
	.st89{clip-path:url(#SVGID_00000157269853264752816640000012112293846866952322_);}
	.st90{clip-path:url(#SVGID_00000172412359184811425530000003837440389069163139_);}
	.st91{clip-path:url(#SVGID_00000131363780427549709120000012276966934560990399_);}
	.st92{clip-path:url(#SVGID_00000018944019079913165180000015602637415201409714_);}
	.st93{clip-path:url(#SVGID_00000142867648501281296230000006863071859322759042_);}
	.st94{clip-path:url(#SVGID_00000000942130675849865250000005653730471153773746_);}
	.st95{clip-path:url(#SVGID_00000002368689612085713740000000963251726330436512_);}
	.st96{clip-path:url(#SVGID_00000009551326286670897670000003012118413074236069_);}
	.st97{clip-path:url(#SVGID_00000125591003676308405670000004187807664526498714_);}
	.st98{clip-path:url(#SVGID_00000052818487938019595350000014828980432231139468_);}
	.st99{clip-path:url(#SVGID_00000175280552274394686900000012419977395691403182_);}
	.st100{clip-path:url(#SVGID_00000178176495928487463780000017735026582942858915_);}
	.st101{clip-path:url(#SVGID_00000042714194079177884220000014280665714157484471_);}
	.st102{clip-path:url(#SVGID_00000163772268541878227770000012572222470171641790_);}
	.st103{clip-path:url(#SVGID_00000079448801625462498170000004345098734660229808_);}
	.st104{clip-path:url(#SVGID_00000128445724286676427900000001386129465274761918_);}
	.st105{clip-path:url(#SVGID_00000016793853258875544970000008105499009796342145_);}
	.st106{clip-path:url(#SVGID_00000049223192726887284670000007420418277765852064_);}
	.st107{clip-path:url(#SVGID_00000024685139266964294390000007998102871625197478_);}
	.st108{clip-path:url(#SVGID_00000157289666826628751740000006387523953198160305_);}
	.st109{clip-path:url(#SVGID_00000076561917802121421140000013103965611249939889_);}
	.st110{clip-path:url(#SVGID_00000059271760150795617630000010714059499746644922_);}
	.st111{clip-path:url(#SVGID_00000127027420681212540430000002591613144708878230_);}
	.st112{clip-path:url(#SVGID_00000119838893280568573550000009038446173235553694_);}
	.st113{clip-path:url(#SVGID_00000052076204358253402880000000706518795353268637_);}
	.st114{clip-path:url(#SVGID_00000109717997503756705180000017810011825393571982_);}
	.st115{clip-path:url(#SVGID_00000071537315855894468460000015978967447000071820_);}
	.st116{clip-path:url(#SVGID_00000181059393214137250460000007209371326525060753_);}
	.st117{clip-path:url(#SVGID_00000134211809591263675610000018377894324581622667_);}
	.st118{clip-path:url(#SVGID_00000094613474468318459430000007883169657415103624_);}
	.st119{clip-path:url(#SVGID_00000158734638263617901160000004442980927611153318_);}
	.st120{clip-path:url(#SVGID_00000038411596879985821470000016070995369316982434_);}
	.st121{clip-path:url(#SVGID_00000134219818240530169130000010408909027448487842_);}
	.st122{clip-path:url(#SVGID_00000178185667291679955330000002423457035046979214_);}
	.st123{clip-path:url(#SVGID_00000108299107087884682920000010101256596562389384_);}
	.st124{clip-path:url(#SVGID_00000039133979889021797730000017217843404711065256_);}
	.st125{clip-path:url(#SVGID_00000158742746378583811480000011882988925378150805_);}
	.st126{clip-path:url(#SVGID_00000136392324276064890470000014311304153026635940_);}
	.st127{clip-path:url(#SVGID_00000145038936225649074530000008806202033535534499_);}
	.st128{clip-path:url(#SVGID_00000129192893326308577510000010035625048483686050_);}
	.st129{clip-path:url(#SVGID_00000027573467074562549610000010588503134246346939_);}
	.st130{clip-path:url(#SVGID_00000062170813692086697220000016708912762635660963_);}
	.st131{clip-path:url(#SVGID_00000065793978608183882420000013549942213893783942_);}
	.st132{clip-path:url(#SVGID_00000173864815474734793310000002804433285916960683_);}
	.st133{clip-path:url(#SVGID_00000114785982452917600650000010218967504727474609_);}
	.st134{clip-path:url(#SVGID_00000174579967926078219150000009589718368339626678_);}
	.st135{clip-path:url(#SVGID_00000154418092829832350840000001183344540599462050_);}
	.st136{clip-path:url(#SVGID_00000052813082239186418730000012832084228175291286_);}
	.st137{clip-path:url(#SVGID_00000150100420342686918380000018401938709094725304_);}
	.st138{clip-path:url(#SVGID_00000018210859356516572840000009790931623188849551_);}
	.st139{clip-path:url(#SVGID_00000117674753588228655600000013540698771146821272_);}
	.st140{clip-path:url(#SVGID_00000041284461662130348550000014574869881595052416_);}
	.st141{clip-path:url(#SVGID_00000089566438908253843430000016001215290836858507_);}
	.st142{clip-path:url(#SVGID_00000028295846026392990370000005309918863795774105_);}
	.st143{clip-path:url(#SVGID_00000127019131783768310060000007519109874076034688_);}
	.st144{clip-path:url(#SVGID_00000003067105238734401370000006329883031813675907_);}
	.st145{clip-path:url(#SVGID_00000146493232801110079650000009813013376810481306_);}
	.st146{clip-path:url(#SVGID_00000110436196598706712070000000290231081703745970_);}
	.st147{clip-path:url(#SVGID_00000138547530940201703860000016265913549638880950_);}
	.st148{clip-path:url(#SVGID_00000158713722240299036140000014872901756304473766_);}
	.st149{clip-path:url(#SVGID_00000088111416810521960230000009932161315040514452_);}
	.st150{clip-path:url(#SVGID_00000020359539084941574650000011155123118612798887_);}
	.st151{clip-path:url(#SVGID_00000130644425769855632230000004843072064356954809_);}
	.st152{clip-path:url(#SVGID_00000120555294744015565330000016272155965035283608_);}
	.st153{clip-path:url(#SVGID_00000124884417530930113700000003869075838227909040_);}
	.st154{clip-path:url(#SVGID_00000000943570163742766870000016053267174183619508_);}
	.st155{clip-path:url(#SVGID_00000074412817051200322750000012239869763405351067_);}
	.st156{clip-path:url(#SVGID_00000074433613764088028090000007924321508968164539_);}
	.st157{clip-path:url(#SVGID_00000173864955867998572660000001863048110254821260_);}
	.st158{clip-path:url(#SVGID_00000105401457284245320120000005723868624349440398_);}
	.st159{clip-path:url(#SVGID_00000053507428404025559790000015432689637846130561_);}
	.st160{clip-path:url(#SVGID_00000011733731975611607050000016511465671662304920_);}
	.st161{clip-path:url(#SVGID_00000043456508276941447120000005340154734001158070_);}
	.st162{clip-path:url(#SVGID_00000089565006288184406750000013233554811376647337_);}
	.st163{clip-path:url(#SVGID_00000099636350638160486470000005428369622858054297_);}
	.st164{clip-path:url(#SVGID_00000011712772314546873050000009243335749275692222_);}
	.st165{clip-path:url(#SVGID_00000121977896897430337120000016881858814800044205_);}
	.st166{clip-path:url(#SVGID_00000178925078607749153580000016190015657094792381_);}
	.st167{clip-path:url(#SVGID_00000169535439961478019170000002436939658168368302_);}
	.st168{clip-path:url(#SVGID_00000001633551965241264960000008364513349147192990_);}
	.st169{clip-path:url(#SVGID_00000053511214278168821360000011440895257831452863_);}
	.st170{clip-path:url(#SVGID_00000021079462858810838320000009022958657880878765_);}
	.st171{clip-path:url(#SVGID_00000056390850369935821840000007116655463007626391_);}
	.st172{clip-path:url(#SVGID_00000057847942653280686840000010375127630955929732_);}
	.st173{clip-path:url(#SVGID_00000146468045789012397630000007526303020846993336_);}
	.st174{clip-path:url(#SVGID_00000133489760521240834290000006164820680853391756_);}
	.st175{clip-path:url(#SVGID_00000041999659962607122560000007709513520405796004_);}
	.st176{clip-path:url(#SVGID_00000147932859289886864170000013773989679729874348_);}
	.st177{clip-path:url(#SVGID_00000125564545070237459880000018246778632247190917_);}
	.st178{clip-path:url(#SVGID_00000122000712949841714920000004126538164358071429_);}
	.st179{clip-path:url(#SVGID_00000151509864022525126640000010710611717774441391_);}
	.st180{clip-path:url(#SVGID_00000046301658466665833190000012672883050602234754_);}
	.st181{clip-path:url(#SVGID_00000133516665028920044660000004221244261381677697_);}
	.st182{clip-path:url(#SVGID_00000118393641155118040000000011658777472969565371_);}
	.st183{clip-path:url(#SVGID_00000000928277257956158620000000368036903594133691_);}
	.st184{clip-path:url(#SVGID_00000083769540033264994040000006545814474213365928_);}
	.st185{clip-path:url(#SVGID_00000018927813510774499100000013681490984070797752_);}
	.st186{clip-path:url(#SVGID_00000138564551197776312910000018304184783623542403_);}
	.st187{clip-path:url(#SVGID_00000133529404322873916630000004225511162631999668_);}
	.st188{clip-path:url(#SVGID_00000034081841195420398920000005101303658139639711_);}
	.st189{clip-path:url(#SVGID_00000150820026789389674100000001166062642603251378_);}
	.st190{clip-path:url(#SVGID_00000129887399044181374710000008050511527530041485_);}
	.st191{clip-path:url(#SVGID_00000015340078892554837380000007518215306153951634_);}
	.st192{clip-path:url(#SVGID_00000143583600310776337540000001373977177348392369_);}
	.st193{clip-path:url(#SVGID_00000023971574903498045660000013920063177986661559_);}
	.st194{clip-path:url(#SVGID_00000099647406231074526290000001682064987576640700_);}
	.st195{clip-path:url(#SVGID_00000013915716273855266790000013163106818682981008_);}
	.st196{clip-path:url(#SVGID_00000029737940669797816460000015112602406355022006_);}
	.st197{clip-path:url(#SVGID_00000143590449686419145530000001326521771218292662_);}
	.st198{clip-path:url(#SVGID_00000010284734516338766370000010667865548222011826_);}
	.st199{clip-path:url(#SVGID_00000135666976639252807360000003392316946096864929_);}
	.st200{clip-path:url(#SVGID_00000020393497795136093080000003833627149051511735_);}
	.st201{clip-path:url(#SVGID_00000068670266861133231280000009447707054355986326_);}
	.st202{clip-path:url(#SVGID_00000183221428789359548490000005902042071059932563_);}
	.st203{clip-path:url(#SVGID_00000098222730278155673540000016096471494807431299_);}
	.st204{clip-path:url(#SVGID_00000019672531538757528040000009683146499005494954_);}
	.st205{clip-path:url(#SVGID_00000160158063910682975590000004292847011954916756_);}
	.st206{clip-path:url(#SVGID_00000005265399038540746190000009871093745235497363_);}
	.st207{clip-path:url(#SVGID_00000054231843802734896520000000326260288978798982_);}
	.st208{clip-path:url(#SVGID_00000165199814886209721140000015113172266272434827_);}
	.st209{clip-path:url(#SVGID_00000052097591747788657510000015237834052770618760_);}
	.st210{clip-path:url(#SVGID_00000029005582106657265930000009157869120032365241_);}
	.st211{clip-path:url(#SVGID_00000121276999684131712980000002526296552712395697_);}
	.st212{clip-path:url(#SVGID_00000098204709036069125200000012517278401021973411_);}
	.st213{clip-path:url(#SVGID_00000008109675448168163960000000315529285603292341_);}
	.st214{clip-path:url(#SVGID_00000034072582644303309990000006607786609088909964_);}
	.st215{clip-path:url(#SVGID_00000068655127615814577600000000257782780991672742_);}
	.st216{clip-path:url(#SVGID_00000132796154157187313000000013551738668859620262_);}
	.st217{clip-path:url(#SVGID_00000000196893738516285070000007192877709010411699_);}
	.st218{clip-path:url(#SVGID_00000182500496045917596420000015654119539771547574_);}
	.st219{clip-path:url(#SVGID_00000039091819481846640710000012861128243369610882_);}
	.st220{clip-path:url(#SVGID_00000175282549513480718850000012970406159058573238_);}
	.st221{clip-path:url(#SVGID_00000157290591949376097340000012770127430685592219_);}
	.st222{clip-path:url(#SVGID_00000173852131328543281200000006329973478589912502_);}
	.st223{clip-path:url(#SVGID_00000137813758173366664580000016119956618959645620_);}
	.st224{clip-path:url(#SVGID_00000124874207434093278180000010771260484887207859_);}
	.st225{clip-path:url(#SVGID_00000072268726629810691360000000944958527892248722_);}
	.st226{clip-path:url(#SVGID_00000047772764866803380490000011551661420377588128_);}
	.st227{clip-path:url(#SVGID_00000038406789908019233170000015873400948161010099_);}
	.st228{clip-path:url(#SVGID_00000016070308505707569510000013854241642336393371_);}
	.st229{clip-path:url(#SVGID_00000016756505761743038140000006625437651628311177_);}
	.st230{clip-path:url(#SVGID_00000066473161885301293010000017756503636927955353_);}
	.st231{clip-path:url(#SVGID_00000031889976515117389550000011061114919630769292_);}
	.st232{clip-path:url(#SVGID_00000049190733599453977240000013649505142289361060_);}
	.st233{clip-path:url(#SVGID_00000109708261483583206410000003566398470491608242_);}
	.st234{clip-path:url(#SVGID_00000157293823527292643190000006811548534534413983_);}
	.st235{clip-path:url(#SVGID_00000129918707600216091380000005479256279664584352_);}
	.st236{clip-path:url(#SVGID_00000050645815208588190960000001291446402650672282_);}
	.st237{clip-path:url(#SVGID_00000174563815088549156890000008215105436227720382_);}
	.st238{clip-path:url(#SVGID_00000162317916682496974400000006138545852419871668_);}
	.st239{clip-path:url(#SVGID_00000037685369771333725900000007101960142434339007_);}
	.st240{clip-path:url(#SVGID_00000116207180402493565600000008173504950546958763_);}
	.st241{clip-path:url(#SVGID_00000085941915827613636690000010078020965697344904_);}
	.st242{clip-path:url(#SVGID_00000153691331044264982980000003710743271489724324_);}
	.st243{clip-path:url(#SVGID_00000143594298741903056510000004218771321739339662_);}
	.st244{clip-path:url(#SVGID_00000138537270906674571670000010188460108671374224_);}
	.st245{clip-path:url(#SVGID_00000013166212339450179690000014745164032087277207_);}
	.st246{clip-path:url(#SVGID_00000096749007221195591320000015989011540737533374_);}
	.st247{clip-path:url(#SVGID_00000153701706073122599260000000902673435329461911_);}
	.st248{clip-path:url(#SVGID_00000041273009145487985590000009693915669241855635_);}
	.st249{clip-path:url(#SVGID_00000025435607437409623260000012039353570154634114_);}
	.st250{clip-path:url(#SVGID_00000092440275010416808840000016189752303057724590_);}
	.st251{clip-path:url(#SVGID_00000072958942963551635240000008943372069189198525_);}
	.st252{clip-path:url(#SVGID_00000121277387839144930790000015490819176076022451_);}
	.st253{clip-path:url(#SVGID_00000119832052907824002930000014505898571862963847_);}
	.st254{clip-path:url(#SVGID_00000074420573991799151680000010662999071062812302_);}
	.st255{clip-path:url(#SVGID_00000130640574038955819990000000838944727362269362_);}
	.st256{clip-path:url(#SVGID_00000161615808432406696490000005851275559221159854_);}
	.st257{clip-path:url(#SVGID_00000016787432014088681250000001372741919080821654_);}
	.st258{clip-path:url(#SVGID_00000114032253440921241740000012985870995328986758_);}
	.st259{clip-path:url(#SVGID_00000040543264557402895350000002808036769248363652_);}
	.st260{clip-path:url(#SVGID_00000034085557498610467740000007561997810043182485_);}
	.st261{clip-path:url(#SVGID_00000160878343123966592800000017109734710797712783_);}
	.st262{clip-path:url(#SVGID_00000133504517564191206050000000616122268198846130_);}
	.st263{clip-path:url(#SVGID_00000114790382296277185000000002475732308193890473_);}
	.st264{clip-path:url(#SVGID_00000054969341186882304900000005565171894554335919_);}
	.st265{clip-path:url(#SVGID_00000098901780705684001600000007266710489560673157_);}
	.st266{clip-path:url(#SVGID_00000055674807059736838910000005301947680113932460_);}
	.st267{clip-path:url(#SVGID_00000110435303028580097480000010516337096412047503_);}
	.st268{clip-path:url(#SVGID_00000144302651976716635400000001983891711840971431_);}
	.st269{clip-path:url(#SVGID_00000181782276479128899300000011662395947644315013_);}
	.st270{clip-path:url(#SVGID_00000067198989169869245960000014185674141197835411_);}
	.st271{clip-path:url(#SVGID_00000018206389558874247270000002036476667968032702_);}
	.st272{clip-path:url(#SVGID_00000079456044039340339310000003446226477563106705_);}
	.st273{clip-path:url(#SVGID_00000160912300728939108520000012313074104783370628_);}
	.st274{clip-path:url(#SVGID_00000000911271309580973960000014530562975058598537_);}
	.st275{clip-path:url(#SVGID_00000014633006087498103430000006789868169735364481_);}
	.st276{clip-path:url(#SVGID_00000036212936896031911310000007547659726304734349_);}
	.st277{clip-path:url(#SVGID_00000005252475841641453000000000343643115419286193_);}
	.st278{clip-path:url(#SVGID_00000080164340607936668990000009348192876085621433_);}
	.st279{clip-path:url(#SVGID_00000013884163234767507070000006924006693058205849_);}
	.st280{clip-path:url(#SVGID_00000070805229833587754440000003108869526804940970_);}
	.st281{clip-path:url(#SVGID_00000099663627508825254940000001562877713419582100_);}
	.st282{clip-path:url(#SVGID_00000061458235123988961160000002368440041003850641_);}
	.st283{clip-path:url(#SVGID_00000008134940167676431190000010507143037648232636_);}
	.st284{clip-path:url(#SVGID_00000127726259539597215990000002730191053045414039_);}
	.st285{clip-path:url(#SVGID_00000098214324234151935350000015457498140507577236_);}
	.st286{clip-path:url(#SVGID_00000124867813691512285360000003015279403766684544_);}
	.st287{clip-path:url(#SVGID_00000052798571957030234630000013867912947086433194_);}
	.st288{clip-path:url(#SVGID_00000116927163262532902030000013205747728000004285_);}
	.st289{clip-path:url(#SVGID_00000071543678921941285580000007485295051350854787_);}
	.st290{clip-path:url(#SVGID_00000115508700993540457610000004579224400091073948_);}
	.st291{clip-path:url(#SVGID_00000174584048948461164450000007158323023969525413_);}
	.st292{clip-path:url(#SVGID_00000045609110466361490270000011667559178065608871_);}
	.st293{clip-path:url(#SVGID_00000078045542465107891740000004486200290274961085_);}
	.st294{clip-path:url(#SVGID_00000005977079671599047670000005195801386337622693_);}
	.st295{clip-path:url(#SVGID_00000123414234335549344850000014369540929336277159_);}
	.st296{clip-path:url(#SVGID_00000136373714571579032390000007560577941920115127_);}
	.st297{clip-path:url(#SVGID_00000170268539280859519350000016121936604078914991_);}
	.st298{clip-path:url(#SVGID_00000165221958229752763000000004965608703089837989_);}
	.st299{clip-path:url(#SVGID_00000152231121980741419680000001311003256133340036_);}
	.st300{clip-path:url(#SVGID_00000091711520417193950030000015383848669455828873_);}
	.st301{clip-path:url(#SVGID_00000026873981519142335170000008832233598640892332_);}
	.st302{clip-path:url(#SVGID_00000036956206264650110710000012919111844698663570_);}
	.st303{clip-path:url(#SVGID_00000081631741528487150650000009711128374381782694_);}
	.st304{clip-path:url(#SVGID_00000128470670557528356740000011047582206132262581_);}
	.st305{clip-path:url(#SVGID_00000076592192659187617800000016558457438667864213_);}
	.st306{clip-path:url(#SVGID_00000129197504999850840730000004066352609251775137_);}
	.st307{clip-path:url(#SVGID_00000049222114969805119680000004325567362718590099_);}
	.st308{clip-path:url(#SVGID_00000039834861909223236930000017084605866700263347_);}
	.st309{clip-path:url(#SVGID_00000070111955536915070900000008226992763114214819_);}
	.st310{clip-path:url(#SVGID_00000067232252771333170090000011480422377726784128_);}
	.st311{clip-path:url(#SVGID_00000010284261622161039520000014466312050196130733_);}
	.st312{clip-path:url(#SVGID_00000147926224363459785790000008601159304175529379_);}
	.st313{clip-path:url(#SVGID_00000046316435333777091580000015865853034348413313_);}
	.st314{clip-path:url(#SVGID_00000170250719444369204490000017207039535057351328_);}
	.st315{clip-path:url(#SVGID_00000099623348491079402390000009502101469932031386_);}
	.st316{clip-path:url(#SVGID_00000143608518571336555780000007706852978308825476_);}
	.st317{clip-path:url(#SVGID_00000122701256403055545500000005258527064382849202_);}
	.st318{clip-path:url(#SVGID_00000043449762106343099940000009073591075667551412_);}
	.st319{clip-path:url(#SVGID_00000069365284493286191300000006728568921021439104_);}
	.st320{clip-path:url(#SVGID_00000120540113416985265670000001367259687689029795_);}
	.st321{clip-path:url(#SVGID_00000134942717542672710840000015508867603268369556_);}
	.st322{clip-path:url(#SVGID_00000089572784651528125090000008741259186828867977_);}
	.st323{clip-path:url(#SVGID_00000152985670434487426260000013901060085916887975_);}
	.st324{clip-path:url(#SVGID_00000152973281686382283360000005361252593206825611_);}
	.st325{clip-path:url(#SVGID_00000003787463941644587670000007447967693734729385_);}
	.st326{clip-path:url(#SVGID_00000121996310190426276770000011955527040922376607_);}
	.st327{clip-path:url(#SVGID_00000157297628811756640490000006791577081086134435_);}
	.st328{clip-path:url(#SVGID_00000075155531353373198140000001835541045539228837_);}
	.st329{clip-path:url(#SVGID_00000132090349034933671720000012703867086045596348_);}
	.st330{clip-path:url(#SVGID_00000134969229338428317440000007695842280356800700_);}
	.st331{clip-path:url(#SVGID_00000161631923445154104350000011903524868080147643_);}
	.st332{clip-path:url(#SVGID_00000050660555011020563030000009527405869304606654_);}
	.st333{clip-path:url(#SVGID_00000136389314851088451340000012673484964308472974_);}
	.st334{clip-path:url(#SVGID_00000044896486728176989400000004060512795665554110_);}
	.st335{clip-path:url(#SVGID_00000164501426103095728890000006625545641663505323_);}
	.st336{clip-path:url(#SVGID_00000020393237933259627820000013496019841824600761_);}
	.st337{clip-path:url(#SVGID_00000036230650997982530750000009059933445695138704_);}
	.st338{clip-path:url(#SVGID_00000065034731178691064810000000442598596841213336_);}
	.st339{clip-path:url(#SVGID_00000147191817123984972180000012863885864086587314_);}
	.st340{clip-path:url(#SVGID_00000088094348135987601060000000066087085806482875_);}
	.st341{clip-path:url(#SVGID_00000060752794909130760550000012841734813330521497_);}
	.st342{clip-path:url(#SVGID_00000047755606635804978140000011684210297706504366_);}
	.st343{clip-path:url(#SVGID_00000016769441204402867260000008197070424137699200_);}
	.st344{clip-path:url(#SVGID_00000160877075393193210460000007864421024331980441_);}
	.st345{clip-path:url(#SVGID_00000149359071828475677840000007263968752070794927_);}
	.st346{clip-path:url(#SVGID_00000156557592171528401380000015445245417014444726_);}
	.st347{clip-path:url(#SVGID_00000066481893028756671180000007487688474717010338_);}
	.st348{clip-path:url(#SVGID_00000031188089768315690260000014369995764080822405_);}
	.st349{clip-path:url(#SVGID_00000031898493464321201410000016984242049705321097_);}
	.st350{clip-path:url(#SVGID_00000152223345829734177400000007204023941473848210_);}
	.st351{clip-path:url(#SVGID_00000044148848999698208000000009160345841825022850_);}
	.st352{clip-path:url(#SVGID_00000049222701930665928840000002574098755893297817_);}
	.st353{clip-path:url(#SVGID_00000077294715498325176700000015430832191552011960_);}
	.st354{clip-path:url(#SVGID_00000127009228098232858980000005918478795993177240_);}
	.st355{clip-path:url(#SVGID_00000143588718227563597340000003927234836791917993_);}
	.st356{clip-path:url(#SVGID_00000119840521647195664820000015262308871560258474_);}
	.st357{clip-path:url(#SVGID_00000079480095058946969350000011092362937749368474_);}
	.st358{clip-path:url(#SVGID_00000082340681627653189360000006288516483732637061_);}
	.st359{clip-path:url(#SVGID_00000080208221992953152520000003416074514836585646_);}
	.st360{clip-path:url(#SVGID_00000023972372185378904640000000599011858440175249_);}
	.st361{clip-path:url(#SVGID_00000003067291045529233860000005762407931305358721_);}
	.st362{clip-path:url(#SVGID_00000166663814925928814200000012126298835951688377_);}
	.st363{clip-path:url(#SVGID_00000006688287490175311640000014339286698619663019_);}
	.st364{clip-path:url(#SVGID_00000023971730283077014590000017927815533334932630_);}
	.st365{clip-path:url(#SVGID_00000047041038562167856050000011337014166152718509_);}
	.st366{clip-path:url(#SVGID_00000087371803664007459670000017157275715333430163_);}
	.st367{clip-path:url(#SVGID_00000043439050004988666050000017424666707610010256_);}
	.st368{clip-path:url(#SVGID_00000119828886727933434940000008673161031582454201_);}
	.st369{clip-path:url(#SVGID_00000013159666720653866470000005380817397528356017_);}
	.st370{clip-path:url(#SVGID_00000006680375411399611280000014245154238643128758_);}
	.st371{clip-path:url(#SVGID_00000067950519458015461530000014763474790856984456_);}
	.st372{clip-path:url(#SVGID_00000010996373521316796050000008850181581111922064_);}
	.st373{clip-path:url(#SVGID_00000124861979236358182450000017493377849409629089_);}
	.st374{clip-path:url(#SVGID_00000088834813086446028230000015334469966422000817_);}
	.st375{clip-path:url(#SVGID_00000057865672118361442500000009620055219303417780_);}
</style>
<g>
	<g>
		<rect x="5.68" y="109.98" class="st0" width="48.54" height="588.48"/>
	</g>
	<g>
		<rect x="5.68" y="0" class="st1" width="992.64" height="116.88"/>
	</g>
	<g>
		<defs>
			<rect id="SVGID_00000113339423194035293550000012488961128332233112_" y="0" width="1000" height="702.95"/>
		</defs>
		<clipPath id="SVGID_00000157278379642249047290000000832685974770642829_">
			<use xlink:href="#SVGID_00000113339423194035293550000012488961128332233112_"  style="overflow:visible;"/>
		</clipPath>
		<g style="clip-path:url(#SVGID_00000157278379642249047290000000832685974770642829_);">
			<path class="st3" d="M998.31,702.94H2.81c-0.93,0-1.68-0.75-1.68-1.68V2.81c0-0.93,0.75-1.68,1.68-1.68h995.51
				c0.93,0,1.68,0.75,1.68,1.68v698.45C1000,702.19,999.25,702.94,998.31,702.94z M4.49,699.58h992.14V4.49H4.49V699.58z"/>
		</g>
		<g style="clip-path:url(#SVGID_00000157278379642249047290000000832685974770642829_);">
			<rect x="0" y="115.19" class="st3" width="995.5" height="3.37"/>
		</g>
		<g style="clip-path:url(#SVGID_00000157278379642249047290000000832685974770642829_);">
			<path class="st4" d="M845.81,69.08c0-6.43-3.8-10.45-11.32-11.18l-5.99-0.59c-3.36-0.29-3.94-1.9-3.94-3.29
				c0-1.9,1.61-3.65,5.41-3.65c3.29,0,6.65,0.58,8.84,2.56l5.84-5.91c-3.65-3.43-8.62-4.45-14.54-4.45
				c-7.74,0-14.68,4.23-14.68,12.11c0,7.02,4.24,10.01,11.1,10.67l5.99,0.58c2.99,0.29,4.02,1.61,4.02,3.51
				c0,2.85-3.43,3.95-6.72,3.95c-2.92,0-7.01-0.44-10.15-3.58l-6.21,6.21c4.82,4.82,10.23,5.47,16.22,5.47
				C838.65,81.5,845.81,77.48,845.81,69.08 M808.19,69.08c0-6.43-3.8-10.45-11.32-11.18l-5.99-0.59c-3.36-0.29-3.94-1.9-3.94-3.29
				c0-1.9,1.61-3.65,5.41-3.65c3.29,0,6.65,0.58,8.84,2.56l5.84-5.91c-3.65-3.43-8.62-4.45-14.54-4.45
				c-7.74,0-14.68,4.23-14.68,12.11c0,7.02,4.24,10.01,11.1,10.67l5.99,0.58c2.99,0.29,4.02,1.61,4.02,3.51
				c0,2.85-3.43,3.95-6.72,3.95c-2.92,0-7.01-0.44-10.15-3.58l-6.21,6.21c4.82,4.82,10.23,5.47,16.22,5.47
				C801.03,81.5,808.19,77.48,808.19,69.08 M767.42,81.06V43.01h-9.49v23.01c0,5.19-3.36,6.94-6.36,6.94c-3,0-6.29-1.75-6.29-6.94
				V43.01h-9.49v24.33c0,4.16,0.8,7.74,3.87,10.81c2.11,2.11,5.18,3.35,8.98,3.35c3.51,0,7.02-1.31,9.5-3.94v3.5H767.42z
				 M727.17,81.06v-8.02h-3.65c-2.41,0-3.36-1.17-3.36-3.43V29.06h-9.49v41.13c0,5.4,3.28,10.87,11.09,10.87H727.17z M699.34,81.06
				V56.44c0-8.04-4.38-13.87-12.7-13.87c-3.36,0-6.58,1.31-9.14,3.94V29.06h-9.48v52h9.48V57.83c0-4.97,3.14-6.72,6.14-6.72
				c2.99,0,6.21,1.68,6.21,6.72v23.23H699.34z M659.16,76.32l-6.43-6.36c-1.97,2.12-3.65,3-6.14,3c-2.26,0-4.02-0.8-5.41-2.49
				c-1.46-1.83-2.12-4.46-2.12-8.47c0-4.02,0.66-6.58,2.12-8.41c1.39-1.68,3.14-2.48,5.41-2.48c2.48,0,4.16,0.88,6.14,2.99
				l6.43-6.42c-3.36-3.51-7.3-5.11-12.56-5.11c-7.6,0-17.01,4.01-17.01,19.43c0,15.41,9.41,19.5,17.01,19.5
				C651.86,81.5,655.8,79.82,659.16,76.32 M622.06,69.08c0-6.43-3.8-10.45-11.32-11.18l-5.99-0.59c-3.36-0.29-3.94-1.9-3.94-3.29
				c0-1.9,1.61-3.65,5.41-3.65c3.29,0,6.65,0.58,8.84,2.56l5.84-5.91c-3.65-3.43-8.62-4.45-14.54-4.45
				c-7.74,0-14.68,4.23-14.68,12.11c0,7.02,4.24,10.01,11.1,10.67l5.99,0.58c2.99,0.29,4.02,1.61,4.02,3.51
				c0,2.85-3.43,3.95-6.72,3.95c-2.92,0-7.01-0.44-10.15-3.58l-6.21,6.21c4.82,4.82,10.23,5.47,16.22,5.47
				C614.9,81.5,622.06,77.48,622.06,69.08 M573.41,62c0,6.21-0.73,10.96-6.43,10.96s-6.43-4.75-6.43-10.96
				c0-6.21,0.73-10.89,6.43-10.89S573.41,55.78,573.41,62 M582.9,62c0-5.7-0.07-12.2-3.87-16c-2.12-2.12-5.55-3.43-9.28-3.43
				c-3.87,0-6.72,1.02-9.21,3.79V29.06h-9.48v52h9.19v-3.57c2.64,2.92,5.48,4.01,9.5,4.01c3.73,0,7.16-1.31,9.28-3.43
				C582.83,74.27,582.9,67.7,582.9,62 M529.88,67.03c0,2.34-0.37,3.88-1.39,4.83c-1.68,1.61-3.37,1.83-6,1.83
				c-3.73,0-5.48-1.76-5.48-4.39c0-2.71,1.9-4.32,5.34-4.32h7.53V67.03z M539.36,81.06V56.01c0-8.91-5.55-13.44-16.21-13.44
				c-6.36,0-10.01,1.16-13.73,5.25l6.06,5.92c1.97-2.27,3.65-3.15,7.3-3.15c5.05,0,7.09,1.83,7.09,6v1.9h-8.99
				c-8.84,0-13,4.96-13,11.02c0,3.36,1.1,6.43,3.14,8.55c2.26,2.26,5.4,3.35,9.72,3.35c4.38,0,6.8-1.1,9.36-3.65v3.28H539.36z
				 M501.52,81.06v-8.02h-3.65c-2.41,0-3.36-1.17-3.36-3.43V29.06h-9.48v41.13c0,5.4,3.28,10.87,11.09,10.87H501.52z M473.25,81.06
				V43.01h-9.49v23.01c0,5.19-3.36,6.94-6.36,6.94c-2.99,0-6.29-1.75-6.29-6.94V43.01h-9.48v24.33c0,4.16,0.8,7.74,3.87,10.81
				c2.12,2.11,5.18,3.35,8.98,3.35c3.51,0,7.02-1.31,9.5-3.94v3.5H473.25z M430.38,81.06V56.44c0-8.04-4.38-13.87-12.7-13.87
				c-3.37,0-6.58,1.31-9.14,3.94V29.06h-9.49v52h9.49V57.83c0-4.97,3.14-6.72,6.14-6.72c3,0,6.21,1.68,6.21,6.72v23.23H430.38z
				 M390.2,76.32l-6.43-6.36c-1.97,2.12-3.65,3-6.14,3c-2.26,0-4.02-0.8-5.41-2.49c-1.46-1.83-2.12-4.46-2.12-8.47
				c0-4.02,0.66-6.58,2.12-8.41c1.39-1.68,3.14-2.48,5.41-2.48c2.48,0,4.16,0.88,6.14,2.99l6.43-6.42
				c-3.36-3.51-7.3-5.11-12.56-5.11c-7.6,0-17.01,4.01-17.01,19.43c0,15.41,9.42,19.5,17.01,19.5
				C382.9,81.5,386.84,79.82,390.2,76.32 M353.1,69.08c0-6.43-3.8-10.45-11.32-11.18l-5.99-0.59c-3.36-0.29-3.94-1.9-3.94-3.29
				c0-1.9,1.61-3.65,5.41-3.65c3.29,0,6.65,0.58,8.84,2.56l5.84-5.91c-3.65-3.43-8.62-4.45-14.54-4.45
				c-7.74,0-14.68,4.23-14.68,12.11c0,7.02,4.24,10.01,11.1,10.67l5.99,0.58c2.99,0.29,4.02,1.61,4.02,3.51
				c0,2.85-3.43,3.95-6.72,3.95c-2.92,0-7.01-0.44-10.15-3.58l-6.21,6.21c4.82,4.82,10.23,5.47,16.22,5.47
				C345.94,81.5,353.1,77.48,353.1,69.08 M314.38,81.06v-8.02h-3.43c-2.26,0-3.29-1.24-3.29-3.44V51.33h6.72v-7.22h-6.72V32.86
				h-9.49v11.25h-4.02v7.22h4.02v18.85c0,5.41,3.29,10.88,11.02,10.88H314.38z M277.28,62c0,6.21-0.74,10.96-6.43,10.96
				c-5.7,0-6.43-4.75-6.43-10.96c0-6.21,0.73-10.89,6.43-10.89C276.55,51.11,277.28,55.78,277.28,62 M286.77,62
				c0-5.7-0.07-12.2-3.87-16c-2.12-2.12-5.55-3.43-9.28-3.43c-4.02,0-6.87,1.09-9.5,4.01v-3.57h-9.19v52h9.49V77.7
				c2.48,2.77,5.34,3.79,9.21,3.79c3.73,0,7.16-1.31,9.28-3.43C286.7,74.27,286.77,67.7,286.77,62 M242.79,81.06V43.01h-9.49v23.01
				c0,5.19-3.37,6.94-6.36,6.94c-3,0-6.29-1.75-6.29-6.94V43.01h-9.49v24.33c0,4.16,0.8,7.74,3.87,10.81
				c2.12,2.11,5.18,3.35,8.98,3.35c3.51,0,7.02-1.31,9.51-3.94v3.5H242.79z M190.43,67.03c0,2.34-0.37,3.88-1.39,4.83
				c-1.68,1.61-3.36,1.83-5.99,1.83c-3.73,0-5.48-1.76-5.48-4.39c0-2.71,1.9-4.32,5.34-4.32h7.53V67.03z M199.91,81.06V56.01
				c0-8.91-5.55-13.44-16.21-13.44c-6.36,0-10.01,1.16-13.73,5.25l6.06,5.92c1.97-2.27,3.65-3.15,7.31-3.15c5.04,0,7.09,1.83,7.09,6
				v1.9h-9c-8.83,0-12.99,4.96-12.99,11.02c0,3.36,1.09,6.43,3.14,8.55c2.26,2.26,5.4,3.35,9.71,3.35c4.39,0,6.8-1.1,9.36-3.65v3.28
				H199.91z M158.28,81.06v-52h-10.14v21.26h-17.62V29.06h-10.14v52h10.14V59.29h17.62v21.77H158.28z"/>
		</g>
		<g style="clip-path:url(#SVGID_00000157278379642249047290000000832685974770642829_);">
			<rect x="2.81" y="232.07" class="st3" width="992.7" height="3.37"/>
		</g>
		<g style="clip-path:url(#SVGID_00000157278379642249047290000000832685974770642829_);">
			<rect x="2.81" y="346.14" class="st3" width="992.7" height="3.37"/>
		</g>
		<g style="clip-path:url(#SVGID_00000157278379642249047290000000832685974770642829_);">
			<rect x="2.81" y="468.63" class="st3" width="992.7" height="3.37"/>
		</g>
		<g style="clip-path:url(#SVGID_00000157278379642249047290000000832685974770642829_);">
			<rect x="2.81" y="585.51" class="st3" width="992.7" height="3.37"/>
		</g>
		<g style="clip-path:url(#SVGID_00000157278379642249047290000000832685974770642829_);">
			<path class="st3" d="M699.65,654.09c0-3.58-0.43-7.27-3.31-10.14c-1.55-1.55-3.84-2.46-6.83-2.46c-2.78,0-5.02,0.85-6.3,2.19
				v-10.04h15.59v-4.85h-20.49v20.76h4.96c0.59-1.87,2.3-3.42,5.39-3.42c4.38,0,5.56,3.42,5.56,7.96c0,2.56-0.21,5.07-1.81,6.68
				c-0.97,0.96-2.35,1.49-3.96,1.49c-3.42,0-5.12-1.92-5.55-5.29h-5.44c0.21,2.72,0.85,5.23,2.88,7.26
				c1.65,1.65,4.48,2.93,8.11,2.93c3.69,0,6.3-1.28,8.01-2.98C699.23,661.41,699.65,658.15,699.65,654.09 M658.71,644.43v-4.16
				h-5.39v-3.93c0-1.99,0.96-3.17,2.99-3.17h2.4v-4.64h-3.42c-5.07,0-7.41,3.62-7.41,7.54v4.2h-3.1v4.16h3.1v22.36h5.44v-22.36
				H658.71z M637.84,639.73h-5.44v27.06h5.44V639.73z M623.48,666.79v-17.3c0-3.05-0.63-5.6-2.71-7.63
				c-1.6-1.55-3.89-2.45-6.68-2.45c-2.73,0-5.34,1.01-7.21,3.03v-2.71h-5.33v27.06h5.44V650.3c0-4.17,2.56-6.03,5.61-6.03
				c3.05,0,5.45,1.81,5.45,6.03v16.5H623.48z M592.36,639.73h-5.44v27.06h5.44V639.73z M579.28,655.96c0-3.25-1.02-5.98-3.1-7.79
				c-1.6-1.44-3.57-2.29-7.1-2.83l-4.33-0.65c-1.76-0.26-3.31-0.9-4.27-1.76c-1.02-0.91-1.44-2.14-1.44-3.52
				c0-3.37,2.46-5.93,6.95-5.93c3.2,0,5.93,0.7,8.28,2.94l3.67-3.63c-3.25-3.04-6.77-4.32-11.79-4.32c-7.9,0-12.7,4.53-12.7,11.15
				c0,3.1,0.9,5.5,2.77,7.26c1.65,1.55,4.11,2.62,7.2,3.05l4.49,0.64c2.24,0.32,3.2,0.69,4.16,1.6c1.02,0.9,1.49,2.29,1.49,3.95
				c0,3.69-2.88,5.82-7.85,5.82c-3.9,0-6.94-0.85-9.72-3.63l-3.84,3.79c3.62,3.68,7.73,5.01,13.45,5.01
				C573.57,667.11,579.28,662.95,579.28,655.96 M536.85,624.84h-5.23l-15.22,45.9h5.23L536.85,624.84z M499.64,654.09
				c0-3.58-0.43-7.27-3.3-10.14c-1.55-1.55-3.84-2.46-6.83-2.46c-2.78,0-5.02,0.85-6.3,2.19v-10.04h15.59v-4.85h-20.49v20.76h4.96
				c0.59-1.87,2.3-3.42,5.4-3.42c4.38,0,5.55,3.42,5.55,7.96c0,2.56-0.21,5.07-1.81,6.68c-0.96,0.96-2.35,1.49-3.95,1.49
				c-3.42,0-5.13-1.92-5.56-5.29h-5.44c0.21,2.72,0.85,5.23,2.88,7.26c1.65,1.65,4.48,2.93,8.11,2.93c3.68,0,6.3-1.28,8.01-2.98
				C499.21,661.41,499.64,658.15,499.64,654.09 M451.91,651.05h-12.17c0.06-1.66,0.16-2.46,0.7-3.69c0.85-2.03,2.83-3.42,5.39-3.42
				c2.56,0,4.48,1.39,5.34,3.42C451.7,648.59,451.86,649.39,451.91,651.05 M457.31,654.83v-2.4c0-7.69-4.22-13.02-11.48-13.02
				c-6.94,0-11.47,5.06-11.47,13.82c0,10.31,5.38,13.88,12.17,13.88c4.75,0,7.37-1.44,10.14-4.21l-3.47-3.26
				c-1.92,1.92-3.52,2.78-6.56,2.78c-4.43,0-6.89-2.94-6.89-7.59H457.31z M428.59,658.52c0-4.8-2.99-7.21-8.06-7.64l-4.27-0.37
				c-2.88-0.27-3.74-1.49-3.74-3.1c0-2.03,1.65-3.47,4.91-3.47c2.56,0,4.96,0.53,6.67,1.98l3.42-3.47
				c-2.51-2.19-5.98-3.03-10.04-3.03c-5.66,0-10.19,2.98-10.19,8.27c0,4.75,2.93,7.05,8.01,7.48l4.32,0.37
				c2.62,0.21,3.63,1.39,3.63,3.2c0,2.57-2.61,3.74-5.92,3.74c-2.67,0-5.61-0.59-7.79-2.83l-3.58,3.57
				c3.2,3.15,6.94,3.89,11.37,3.89C423.78,667.11,428.59,664.18,428.59,658.52 M401.74,658.52c0-4.8-2.99-7.21-8.06-7.64l-4.27-0.37
				c-2.88-0.27-3.74-1.49-3.74-3.1c0-2.03,1.66-3.47,4.91-3.47c2.56,0,4.97,0.53,6.68,1.98l3.42-3.47
				c-2.51-2.19-5.98-3.03-10.04-3.03c-5.66,0-10.2,2.98-10.2,8.27c0,4.75,2.94,7.05,8.01,7.48l4.33,0.37
				c2.61,0.21,3.63,1.39,3.63,3.2c0,2.57-2.62,3.74-5.93,3.74c-2.67,0-5.6-0.59-7.79-2.83l-3.57,3.57c3.2,3.15,6.94,3.89,11.37,3.89
				C396.94,667.11,401.74,664.18,401.74,658.52 M367.36,657.02c0,1.92-0.37,3.2-1.17,4.01c-1.44,1.39-2.99,1.55-5.07,1.55
				c-3.42,0-4.97-1.39-4.97-3.85c0-2.46,1.66-3.9,4.86-3.9h6.36V657.02z M372.8,666.79V648.7c0-6.14-3.73-9.28-11.15-9.28
				c-4.48,0-7.15,0.9-9.71,3.89l3.57,3.37c1.49-1.92,2.94-2.62,5.93-2.62c4.22,0,5.93,1.66,5.93,5.07v1.93h-7.15
				c-6.19,0-9.34,3.25-9.34,7.79c0,2.3,0.75,4.38,2.14,5.82c1.65,1.65,3.89,2.45,7.25,2.45c3.37,0,5.24-0.8,7.21-2.77v2.45H372.8z
				 M346.38,666.79v-4.64h-2.4c-2.19,0-2.93-1.07-2.93-3.15v-30.21h-5.44v30.53c0,4,2.24,7.47,7.41,7.47H346.38z M330.37,666.79
				l-13.62-23.11l12.33-14.89h-7.05l-15.53,19.11v-19.11h-5.76v38h5.76v-11.05l6.41-7.69l10.68,18.73H330.37z"/>
		</g>
		<g style="clip-path:url(#SVGID_00000157278379642249047290000000832685974770642829_);">
			<path class="st3" d="M694.11,544.38c0,4.06-2.4,6.62-5.82,6.62c-3.42,0-5.77-2.57-5.77-6.62c0-4.11,2.35-6.57,5.77-6.57
				C691.92,537.81,694.11,540.64,694.11,544.38 M699.55,544.27c0-6.68-4.48-10.99-9.98-10.99c-1.17,0-2.35,0.16-3.37,0.58
				l8.17-16.33h-5.82l-8.65,17.62c-1.65,3.3-2.83,6.24-2.83,9.34c0,7.05,4.69,11.37,11.26,11.37S699.55,551.27,699.55,544.27
				 M658.71,533.16v-4.15h-5.39v-3.93c0-1.99,0.96-3.17,2.99-3.17h2.4v-4.64h-3.42c-5.07,0-7.41,3.62-7.41,7.54v4.2h-3.1v4.15h3.1
				v22.37h5.44v-22.37H658.71z M637.84,528.48h-5.44v27.06h5.44V528.48z M623.48,555.53v-17.3c0-3.05-0.63-5.6-2.71-7.63
				c-1.6-1.55-3.89-2.45-6.68-2.45c-2.73,0-5.34,1.01-7.21,3.03v-2.71h-5.33v27.06h5.44v-16.49c0-4.17,2.56-6.03,5.61-6.03
				c3.05,0,5.45,1.82,5.45,6.03v16.5H623.48z M592.36,528.48h-5.44v27.06h5.44V528.48z M579.28,544.7c0-3.25-1.02-5.98-3.1-7.79
				c-1.6-1.44-3.57-2.29-7.1-2.83l-4.33-0.65c-1.76-0.26-3.31-0.9-4.27-1.76c-1.02-0.91-1.44-2.14-1.44-3.52
				c0-3.37,2.46-5.93,6.95-5.93c3.2,0,5.93,0.7,8.28,2.94l3.67-3.63c-3.25-3.04-6.77-4.32-11.79-4.32c-7.9,0-12.7,4.53-12.7,11.15
				c0,3.1,0.9,5.5,2.77,7.26c1.65,1.55,4.11,2.62,7.2,3.05l4.49,0.64c2.24,0.32,3.2,0.69,4.16,1.6c1.02,0.9,1.49,2.29,1.49,3.95
				c0,3.69-2.88,5.82-7.85,5.82c-3.9,0-6.94-0.85-9.72-3.63l-3.84,3.79c3.62,3.68,7.73,5.01,13.45,5.01
				C573.57,555.85,579.28,551.69,579.28,544.7 M536.85,513.58h-5.23l-15.22,45.9h5.23L536.85,513.58z M494.09,544.38
				c0,4.06-2.4,6.62-5.82,6.62c-3.42,0-5.77-2.57-5.77-6.62c0-4.11,2.35-6.57,5.77-6.57C491.9,537.81,494.09,540.64,494.09,544.38
				 M499.53,544.27c0-6.68-4.48-10.99-9.98-10.99c-1.17,0-2.35,0.16-3.37,0.58l8.18-16.33h-5.82l-8.65,17.62
				c-1.66,3.3-2.83,6.24-2.83,9.34c0,7.05,4.69,11.37,11.26,11.37C494.89,555.85,499.53,551.27,499.53,544.27 M451.91,539.79h-12.17
				c0.06-1.66,0.16-2.46,0.7-3.69c0.85-2.03,2.83-3.42,5.39-3.42c2.56,0,4.48,1.39,5.34,3.42
				C451.7,537.33,451.86,538.13,451.91,539.79 M457.31,543.57v-2.4c0-7.69-4.22-13.02-11.48-13.02c-6.94,0-11.47,5.06-11.47,13.82
				c0,10.31,5.38,13.88,12.17,13.88c4.75,0,7.37-1.44,10.14-4.21l-3.47-3.26c-1.92,1.92-3.52,2.78-6.56,2.78
				c-4.43,0-6.89-2.94-6.89-7.59H457.31z M428.59,547.26c0-4.8-2.99-7.21-8.06-7.64l-4.27-0.37c-2.88-0.27-3.74-1.49-3.74-3.1
				c0-2.03,1.65-3.47,4.91-3.47c2.56,0,4.96,0.53,6.67,1.98l3.42-3.47c-2.51-2.19-5.98-3.03-10.04-3.03
				c-5.66,0-10.19,2.98-10.19,8.27c0,4.75,2.93,7.05,8.01,7.48l4.32,0.37c2.62,0.21,3.63,1.39,3.63,3.2c0,2.57-2.61,3.74-5.92,3.74
				c-2.67,0-5.61-0.59-7.79-2.83l-3.58,3.57c3.2,3.15,6.94,3.89,11.37,3.89C423.78,555.85,428.59,552.92,428.59,547.26
				 M401.74,547.26c0-4.8-2.99-7.21-8.06-7.64l-4.27-0.37c-2.88-0.27-3.74-1.49-3.74-3.1c0-2.03,1.66-3.47,4.91-3.47
				c2.56,0,4.97,0.53,6.68,1.98l3.42-3.47c-2.51-2.19-5.98-3.03-10.04-3.03c-5.66,0-10.2,2.98-10.2,8.27c0,4.75,2.94,7.05,8.01,7.48
				l4.33,0.37c2.61,0.21,3.63,1.39,3.63,3.2c0,2.57-2.62,3.74-5.93,3.74c-2.67,0-5.6-0.59-7.79-2.83l-3.57,3.57
				c3.2,3.15,6.94,3.89,11.37,3.89C396.94,555.85,401.74,552.92,401.74,547.26 M367.36,545.77c0,1.92-0.37,3.2-1.17,4.01
				c-1.44,1.39-2.99,1.55-5.07,1.55c-3.42,0-4.97-1.39-4.97-3.85c0-2.46,1.66-3.9,4.86-3.9h6.36V545.77z M372.8,555.53v-18.09
				c0-6.14-3.73-9.28-11.15-9.28c-4.48,0-7.15,0.9-9.71,3.89l3.57,3.37c1.49-1.92,2.94-2.62,5.93-2.62c4.22,0,5.93,1.66,5.93,5.07
				v1.93h-7.15c-6.19,0-9.34,3.25-9.34,7.79c0,2.3,0.75,4.38,2.14,5.82c1.65,1.65,3.89,2.45,7.25,2.45c3.37,0,5.24-0.8,7.21-2.77
				v2.45H372.8z M346.38,555.53v-4.64h-2.4c-2.19,0-2.93-1.07-2.93-3.15v-30.21h-5.44v30.53c0,4,2.24,7.47,7.41,7.47H346.38z
				 M330.37,555.53l-13.62-23.11l12.33-14.89h-7.05l-15.53,19.11v-19.11h-5.76v38h5.76v-11.05l6.41-7.69l10.68,18.73H330.37z"/>
		</g>
		<g style="clip-path:url(#SVGID_00000157278379642249047290000000832685974770642829_);">
			<path class="st3" d="M700.08,399.89v-4.85h-22.63v10.83h5.23v-5.98h11.59l-12.76,33.15h5.87L700.08,399.89z M658.71,410.67v-4.16
				h-5.39v-3.93c0-1.99,0.96-3.17,2.99-3.17h2.4v-4.64h-3.42c-5.07,0-7.41,3.62-7.41,7.54v4.2h-3.1v4.16h3.1v22.36h5.44v-22.36
				H658.71z M637.84,405.98h-5.44v27.06h5.44V405.98z M623.48,433.04v-17.3c0-3.04-0.63-5.6-2.71-7.63
				c-1.6-1.55-3.89-2.45-6.68-2.45c-2.73,0-5.34,1.01-7.21,3.03v-2.71h-5.33v27.06h5.44v-16.49c0-4.16,2.56-6.03,5.61-6.03
				c3.05,0,5.45,1.81,5.45,6.03v16.49H623.48z M592.36,405.98h-5.44v27.06h5.44V405.98z M579.28,422.2c0-3.25-1.02-5.98-3.1-7.79
				c-1.6-1.44-3.57-2.29-7.1-2.83l-4.33-0.65c-1.76-0.26-3.31-0.9-4.27-1.76c-1.02-0.91-1.44-2.14-1.44-3.52
				c0-3.37,2.46-5.93,6.95-5.93c3.2,0,5.93,0.7,8.28,2.94l3.67-3.63c-3.25-3.04-6.77-4.32-11.79-4.32c-7.9,0-12.7,4.53-12.7,11.15
				c0,3.1,0.9,5.5,2.77,7.26c1.65,1.55,4.11,2.62,7.2,3.05l4.49,0.64c2.24,0.32,3.2,0.69,4.16,1.6c1.02,0.9,1.49,2.29,1.49,3.95
				c0,3.69-2.88,5.82-7.85,5.82c-3.9,0-6.94-0.85-9.72-3.63l-3.84,3.79c3.62,3.68,7.73,5.01,13.45,5.01
				C573.57,433.36,579.28,429.2,579.28,422.2 M536.85,391.08h-5.23l-15.22,45.9h5.23L536.85,391.08z M500.07,399.89v-4.85h-22.63
				v10.83h5.23v-5.98h11.58l-12.76,33.15h5.87L500.07,399.89z M451.91,417.3h-12.17c0.06-1.66,0.16-2.46,0.7-3.69
				c0.85-2.03,2.83-3.42,5.39-3.42c2.56,0,4.48,1.39,5.34,3.42C451.7,414.83,451.86,415.64,451.91,417.3 M457.31,421.08v-2.4
				c0-7.69-4.22-13.02-11.48-13.02c-6.94,0-11.47,5.06-11.47,13.82c0,10.3,5.38,13.87,12.17,13.87c4.75,0,7.37-1.44,10.14-4.21
				l-3.47-3.26c-1.92,1.92-3.52,2.78-6.56,2.78c-4.43,0-6.89-2.94-6.89-7.59H457.31z M428.59,424.76c0-4.8-2.99-7.21-8.06-7.64
				l-4.27-0.37c-2.88-0.27-3.74-1.49-3.74-3.1c0-2.03,1.65-3.47,4.91-3.47c2.56,0,4.96,0.53,6.67,1.98l3.42-3.47
				c-2.51-2.19-5.98-3.03-10.04-3.03c-5.66,0-10.19,2.98-10.19,8.27c0,4.75,2.93,7.05,8.01,7.48l4.32,0.37
				c2.62,0.21,3.63,1.39,3.63,3.2c0,2.57-2.61,3.74-5.92,3.74c-2.67,0-5.61-0.59-7.79-2.83l-3.58,3.58
				c3.2,3.14,6.94,3.89,11.37,3.89C423.78,433.36,428.59,430.42,428.59,424.76 M401.74,424.76c0-4.8-2.99-7.21-8.06-7.64l-4.27-0.37
				c-2.88-0.27-3.74-1.49-3.74-3.1c0-2.03,1.66-3.47,4.91-3.47c2.56,0,4.97,0.53,6.68,1.98l3.42-3.47
				c-2.51-2.19-5.98-3.03-10.04-3.03c-5.66,0-10.2,2.98-10.2,8.27c0,4.75,2.94,7.05,8.01,7.48l4.33,0.37
				c2.61,0.21,3.63,1.39,3.63,3.2c0,2.57-2.62,3.74-5.93,3.74c-2.67,0-5.6-0.59-7.79-2.83l-3.57,3.58c3.2,3.14,6.94,3.89,11.37,3.89
				C396.94,433.36,401.74,430.42,401.74,424.76 M367.36,423.27c0,1.92-0.37,3.2-1.17,4.01c-1.44,1.39-2.99,1.55-5.07,1.55
				c-3.42,0-4.97-1.39-4.97-3.85s1.66-3.9,4.86-3.9h6.36V423.27z M372.8,433.04v-18.09c0-6.14-3.73-9.28-11.15-9.28
				c-4.48,0-7.15,0.9-9.71,3.89l3.57,3.37c1.49-1.92,2.94-2.62,5.93-2.62c4.22,0,5.93,1.66,5.93,5.07v1.93h-7.15
				c-6.19,0-9.34,3.25-9.34,7.79c0,2.3,0.75,4.38,2.14,5.82c1.65,1.65,3.89,2.45,7.25,2.45c3.37,0,5.24-0.8,7.21-2.77v2.45H372.8z
				 M346.38,433.04v-4.64h-2.4c-2.19,0-2.93-1.07-2.93-3.15v-30.21h-5.44v30.53c0,4,2.24,7.47,7.41,7.47H346.38z M330.37,433.04
				l-13.62-23.11l12.33-14.89h-7.05l-15.53,19.11v-19.11h-5.76v38h5.76v-11.05l6.41-7.69l10.68,18.73H330.37z"/>
		</g>
		<g style="clip-path:url(#SVGID_00000157278379642249047290000000832685974770642829_);">
			<path class="st3" d="M693.94,289.92c0,3.36-2.35,5.77-5.66,5.77c-3.32,0-5.61-2.4-5.61-5.77c0-3.32,2.29-5.82,5.61-5.82
				C691.6,284.1,693.94,286.6,693.94,289.92 M694.53,306.73c0,3.52-2.73,6.3-6.25,6.3c-3.53,0-6.25-2.78-6.25-6.3
				c0-3.52,2.72-6.36,6.25-6.36C691.81,300.37,694.53,303.21,694.53,306.73 M700.02,306.84c0-4.54-2.56-7.32-5.23-8.91
				c2.46-1.49,4.59-4.16,4.59-8.17c0-6.36-4.91-10.51-11.1-10.51c-6.2,0-11.05,4.16-11.05,10.51c0,4.01,2.13,6.68,4.59,8.17
				c-2.67,1.6-5.23,4.37-5.23,8.91c0,6.89,5.17,11.05,11.69,11.05C694.8,317.88,700.02,313.73,700.02,306.84 M658.71,295.2v-4.16
				h-5.39v-3.93c0-1.99,0.96-3.17,2.99-3.17h2.4v-4.64h-3.42c-5.07,0-7.41,3.62-7.41,7.54v4.2h-3.1v4.16h3.1v22.36h5.44V295.2
				H658.71z M637.84,290.51h-5.44v27.06h5.44V290.51z M623.48,317.56v-17.3c0-3.04-0.63-5.6-2.71-7.63
				c-1.6-1.55-3.89-2.45-6.68-2.45c-2.73,0-5.34,1.01-7.21,3.03v-2.71h-5.33v27.06h5.44v-16.49c0-4.16,2.56-6.03,5.61-6.03
				c3.05,0,5.45,1.82,5.45,6.03v16.5H623.48z M592.36,290.51h-5.44v27.06h5.44V290.51z M579.28,306.73c0-3.25-1.02-5.98-3.1-7.79
				c-1.6-1.44-3.57-2.29-7.1-2.83l-4.33-0.65c-1.76-0.26-3.31-0.9-4.27-1.76c-1.02-0.91-1.44-2.14-1.44-3.52
				c0-3.37,2.46-5.93,6.95-5.93c3.2,0,5.93,0.7,8.28,2.94l3.67-3.63c-3.25-3.04-6.77-4.32-11.79-4.32c-7.9,0-12.7,4.53-12.7,11.15
				c0,3.1,0.9,5.5,2.77,7.26c1.65,1.55,4.11,2.62,7.2,3.05l4.49,0.64c2.24,0.32,3.2,0.69,4.16,1.6c1.02,0.9,1.49,2.29,1.49,3.95
				c0,3.69-2.88,5.82-7.85,5.82c-3.9,0-6.94-0.85-9.72-3.63l-3.84,3.79c3.62,3.68,7.73,5.01,13.45,5.01
				C573.57,317.88,579.28,313.73,579.28,306.73 M536.85,275.61h-5.23l-15.22,45.9h5.23L536.85,275.61z M493.93,289.92
				c0,3.36-2.35,5.77-5.66,5.77c-3.31,0-5.61-2.4-5.61-5.77c0-3.32,2.3-5.82,5.61-5.82C491.58,284.1,493.93,286.6,493.93,289.92
				 M494.52,306.73c0,3.52-2.73,6.3-6.25,6.3c-3.52,0-6.25-2.78-6.25-6.3c0-3.52,2.73-6.36,6.25-6.36
				C491.79,300.37,494.52,303.21,494.52,306.73 M500.01,306.84c0-4.54-2.56-7.32-5.22-8.91c2.45-1.49,4.59-4.16,4.59-8.17
				c0-6.36-4.91-10.51-11.1-10.51c-6.19,0-11.05,4.16-11.05,10.51c0,4.01,2.14,6.68,4.59,8.17c-2.66,1.6-5.23,4.37-5.23,8.91
				c0,6.89,5.18,11.05,11.69,11.05C494.79,317.88,500.01,313.73,500.01,306.84 M451.91,301.82h-12.17c0.06-1.66,0.16-2.46,0.7-3.69
				c0.85-2.03,2.83-3.42,5.39-3.42c2.56,0,4.48,1.39,5.34,3.42C451.7,299.36,451.86,300.17,451.91,301.82 M457.31,305.61v-2.4
				c0-7.69-4.22-13.02-11.48-13.02c-6.94,0-11.47,5.06-11.47,13.82c0,10.3,5.38,13.87,12.17,13.87c4.75,0,7.37-1.44,10.14-4.21
				l-3.47-3.26c-1.92,1.92-3.52,2.78-6.56,2.78c-4.43,0-6.89-2.94-6.89-7.59H457.31z M428.59,309.29c0-4.8-2.99-7.21-8.06-7.64
				l-4.27-0.37c-2.88-0.27-3.74-1.49-3.74-3.1c0-2.03,1.65-3.47,4.91-3.47c2.56,0,4.96,0.53,6.67,1.98l3.42-3.47
				c-2.51-2.19-5.98-3.03-10.04-3.03c-5.66,0-10.19,2.98-10.19,8.27c0,4.75,2.93,7.05,8.01,7.48l4.32,0.37
				c2.62,0.21,3.63,1.39,3.63,3.2c0,2.57-2.61,3.74-5.92,3.74c-2.67,0-5.61-0.59-7.79-2.83l-3.58,3.58
				c3.2,3.14,6.94,3.89,11.37,3.89C423.78,317.88,428.59,314.95,428.59,309.29 M401.74,309.29c0-4.8-2.99-7.21-8.06-7.64l-4.27-0.37
				c-2.88-0.27-3.74-1.49-3.74-3.1c0-2.03,1.66-3.47,4.91-3.47c2.56,0,4.97,0.53,6.68,1.98l3.42-3.47
				c-2.51-2.19-5.98-3.03-10.04-3.03c-5.66,0-10.2,2.98-10.2,8.27c0,4.75,2.94,7.05,8.01,7.48l4.33,0.37
				c2.61,0.21,3.63,1.39,3.63,3.2c0,2.57-2.62,3.74-5.93,3.74c-2.67,0-5.6-0.59-7.79-2.83l-3.57,3.58c3.2,3.14,6.94,3.89,11.37,3.89
				C396.94,317.88,401.74,314.95,401.74,309.29 M367.36,307.8c0,1.92-0.37,3.2-1.17,4.01c-1.44,1.39-2.99,1.55-5.07,1.55
				c-3.42,0-4.97-1.39-4.97-3.85s1.66-3.9,4.86-3.9h6.36V307.8z M372.8,317.56v-18.09c0-6.14-3.73-9.28-11.15-9.28
				c-4.48,0-7.15,0.9-9.71,3.89l3.57,3.37c1.49-1.92,2.94-2.62,5.93-2.62c4.22,0,5.93,1.66,5.93,5.07v1.93h-7.15
				c-6.19,0-9.34,3.25-9.34,7.79c0,2.3,0.75,4.38,2.14,5.82c1.65,1.65,3.89,2.45,7.25,2.45c3.37,0,5.24-0.8,7.21-2.77v2.45H372.8z
				 M346.38,317.56v-4.64h-2.4c-2.19,0-2.93-1.07-2.93-3.15v-30.21h-5.44v30.53c0,4,2.24,7.47,7.41,7.47H346.38z M330.37,317.56
				l-13.62-23.11l12.33-14.89h-7.05l-15.53,19.11v-19.11h-5.76v38h5.76v-11.05l6.41-7.69l10.68,18.73H330.37z"/>
		</g>
		<g style="clip-path:url(#SVGID_00000157278379642249047290000000832685974770642829_);">
			<path class="st3" d="M694.11,175.24c0,4.11-2.4,6.57-5.82,6.57c-3.64,0-5.77-2.83-5.77-6.57c0-4.06,2.35-6.62,5.77-6.62
				C691.7,168.62,694.11,171.19,694.11,175.24 M699.55,175.14c0-7.05-4.69-11.37-11.26-11.37c-6.57,0-11.21,4.59-11.21,11.58
				c0,6.68,4.43,11,9.93,11c1.17,0,2.4-0.16,3.42-0.59l-8.17,16.33h5.82l8.65-17.62C698.37,181.17,699.55,178.23,699.55,175.14
				 M658.71,179.73v-4.16h-5.39v-3.93c0-1.99,0.96-3.17,2.99-3.17h2.4v-4.64h-3.42c-5.07,0-7.41,3.62-7.41,7.54v4.2h-3.1v4.16h3.1
				v22.36h5.44v-22.36H658.71z M637.84,175.03h-5.44v27.06h5.44V175.03z M623.48,202.09v-17.3c0-3.04-0.63-5.6-2.71-7.63
				c-1.6-1.55-3.89-2.45-6.68-2.45c-2.73,0-5.34,1.01-7.21,3.03v-2.71h-5.33v27.06h5.44V185.6c0-4.16,2.56-6.03,5.61-6.03
				c3.05,0,5.45,1.82,5.45,6.03v16.5H623.48z M592.36,175.03h-5.44v27.06h5.44V175.03z M579.28,191.26c0-3.25-1.02-5.98-3.1-7.79
				c-1.6-1.44-3.57-2.29-7.1-2.83l-4.33-0.65c-1.76-0.26-3.31-0.9-4.27-1.76c-1.02-0.91-1.44-2.14-1.44-3.52
				c0-3.37,2.46-5.93,6.95-5.93c3.2,0,5.93,0.7,8.28,2.94l3.67-3.63c-3.25-3.04-6.77-4.32-11.79-4.32c-7.9,0-12.7,4.53-12.7,11.15
				c0,3.1,0.9,5.5,2.77,7.26c1.65,1.55,4.11,2.62,7.2,3.05l4.49,0.64c2.24,0.32,3.2,0.69,4.16,1.6c1.02,0.9,1.49,2.29,1.49,3.95
				c0,3.69-2.88,5.82-7.85,5.82c-3.9,0-6.94-0.85-9.72-3.63l-3.84,3.79c3.62,3.68,7.73,5.01,13.45,5.01
				C573.57,202.41,579.28,198.25,579.28,191.26 M536.85,160.14h-5.23l-15.22,45.9h5.23L536.85,160.14z M494.09,175.24
				c0,4.11-2.4,6.57-5.82,6.57c-3.63,0-5.77-2.83-5.77-6.57c0-4.06,2.35-6.62,5.77-6.62C491.69,168.62,494.09,171.19,494.09,175.24
				 M499.53,175.14c0-7.05-4.69-11.37-11.26-11.37s-11.2,4.59-11.2,11.58c0,6.68,4.42,11,9.92,11c1.17,0,2.4-0.16,3.42-0.59
				l-8.17,16.33h5.82l8.65-17.62C498.36,181.17,499.53,178.23,499.53,175.14 M451.91,186.35h-12.17c0.06-1.66,0.16-2.46,0.7-3.69
				c0.85-2.03,2.83-3.42,5.39-3.42c2.56,0,4.48,1.39,5.34,3.42C451.7,183.89,451.86,184.69,451.91,186.35 M457.31,190.13v-2.4
				c0-7.69-4.22-13.02-11.48-13.02c-6.94,0-11.47,5.06-11.47,13.82c0,10.3,5.38,13.87,12.17,13.87c4.75,0,7.37-1.44,10.14-4.21
				l-3.47-3.26c-1.92,1.92-3.52,2.78-6.56,2.78c-4.43,0-6.89-2.94-6.89-7.59H457.31z M428.59,193.82c0-4.8-2.99-7.21-8.06-7.64
				l-4.27-0.37c-2.88-0.27-3.74-1.49-3.74-3.1c0-2.03,1.65-3.47,4.91-3.47c2.56,0,4.96,0.53,6.67,1.98l3.42-3.47
				c-2.51-2.19-5.98-3.03-10.04-3.03c-5.66,0-10.19,2.98-10.19,8.27c0,4.75,2.93,7.05,8.01,7.48l4.32,0.37
				c2.62,0.21,3.63,1.39,3.63,3.2c0,2.57-2.61,3.74-5.92,3.74c-2.67,0-5.61-0.59-7.79-2.83l-3.58,3.58
				c3.2,3.14,6.94,3.89,11.37,3.89C423.78,202.41,428.59,199.48,428.59,193.82 M401.74,193.82c0-4.8-2.99-7.21-8.06-7.64l-4.27-0.37
				c-2.88-0.27-3.74-1.49-3.74-3.1c0-2.03,1.66-3.47,4.91-3.47c2.56,0,4.97,0.53,6.68,1.98l3.42-3.47
				c-2.51-2.19-5.98-3.03-10.04-3.03c-5.66,0-10.2,2.98-10.2,8.27c0,4.75,2.94,7.05,8.01,7.48l4.33,0.37
				c2.61,0.21,3.63,1.39,3.63,3.2c0,2.57-2.62,3.74-5.93,3.74c-2.67,0-5.6-0.59-7.79-2.83l-3.57,3.58c3.2,3.14,6.94,3.89,11.37,3.89
				C396.94,202.41,401.74,199.48,401.74,193.82 M367.36,192.32c0,1.92-0.37,3.2-1.17,4.01c-1.44,1.39-2.99,1.55-5.07,1.55
				c-3.42,0-4.97-1.39-4.97-3.85c0-2.46,1.66-3.9,4.86-3.9h6.36V192.32z M372.8,202.09V184c0-6.14-3.73-9.28-11.15-9.28
				c-4.48,0-7.15,0.9-9.71,3.89l3.57,3.37c1.49-1.92,2.94-2.62,5.93-2.62c4.22,0,5.93,1.66,5.93,5.07v1.93h-7.15
				c-6.19,0-9.34,3.25-9.34,7.79c0,2.3,0.75,4.38,2.14,5.82c1.65,1.65,3.89,2.45,7.25,2.45c3.37,0,5.24-0.8,7.21-2.77v2.45H372.8z
				 M346.38,202.09v-4.64h-2.4c-2.19,0-2.93-1.07-2.93-3.15v-30.21h-5.44v30.53c0,4,2.24,7.47,7.41,7.47H346.38z M330.37,202.09
				l-13.62-23.11l12.33-14.89h-7.05l-15.53,19.11v-19.11h-5.76v38h5.76v-11.05l6.41-7.69l10.68,18.73H330.37z"/>
		</g>
	</g>
	<g>
		<polygon class="st4" points="21.91,638.98 37.98,638.98 29.95,628.35 		"/>
	</g>
	<g>
		<polygon class="st4" points="21.91,660.11 37.98,660.11 29.95,649.49 		"/>
	</g>
	<g>
		<polygon class="st4" points="21.91,681.25 37.98,681.25 29.95,670.62 		"/>
	</g>
	<g>
		<polygon class="st4" points="21.91,617.84 37.98,617.84 29.95,607.22 		"/>
	</g>
	<g>
		<polygon class="st4" points="21.91,523.5 37.98,523.5 29.95,512.88 		"/>
	</g>
	<g>
		<polygon class="st4" points="21.91,544.64 37.98,544.64 29.95,534.01 		"/>
	</g>
	<g>
		<polygon class="st4" points="21.91,565.77 37.98,565.77 29.95,555.15 		"/>
	</g>
	<g>
		<polygon class="st4" points="21.91,502.37 37.98,502.37 29.95,491.74 		"/>
	</g>
	<g>
		<polygon class="st4" points="21.91,403.82 37.98,403.82 29.95,393.19 		"/>
	</g>
	<g>
		<polygon class="st4" points="21.91,424.95 37.98,424.95 29.95,414.32 		"/>
	</g>
	<g>
		<polygon class="st4" points="21.91,446.09 37.98,446.09 29.95,435.46 		"/>
	</g>
	<g>
		<polygon class="st4" points="21.91,382.68 37.98,382.68 29.95,372.05 		"/>
	</g>
	<g>
		<polygon class="st4" points="21.91,285.53 37.98,285.53 29.95,274.91 		"/>
	</g>
	<g>
		<polygon class="st4" points="21.91,306.67 37.98,306.67 29.95,296.04 		"/>
	</g>
	<g>
		<polygon class="st4" points="21.91,327.8 37.98,327.8 29.95,317.18 		"/>
	</g>
	<g>
		<polygon class="st4" points="21.91,264.4 37.98,264.4 29.95,253.77 		"/>
	</g>
	<g>
		<polygon class="st4" points="21.91,170.06 37.98,170.06 29.95,159.44 		"/>
	</g>
	<g>
		<polygon class="st4" points="21.91,191.2 37.98,191.2 29.95,180.57 		"/>
	</g>
	<g>
		<polygon class="st4" points="21.91,212.33 37.98,212.33 29.95,201.71 		"/>
	</g>
	<g>
		<polygon class="st4" points="21.91,148.93 37.98,148.93 29.95,138.3 		"/>
	</g>
</g>
</svg>
