<?xml version="1.0" encoding="utf-8"?>
<!-- Generator: Adobe Illustrator 26.2.1, SVG Export Plug-In . SVG Version: 6.00 Build 0)  -->
<svg version="1.1" id="Ebene_1" xmlns="http://www.w3.org/2000/svg" xmlns:xlink="http://www.w3.org/1999/xlink" x="0px" y="0px"
	 viewBox="0 0 1000 597.1" style="enable-background:new 0 0 1000 597.1;" xml:space="preserve">
<style type="text/css">
	.st0{fill:#A2B9E1;}
	.st1{fill:#6796CF;}
	.st2{clip-path:url(#SVGID_00000019666005763109304070000003083750344183730364_);}
	.st3{fill:#2B2961;}
	.st4{fill:#FFFFFF;}
	.st5{clip-path:url(#SVGID_00000156574018445681500270000009952273669823358387_);}
	.st6{clip-path:url(#SVGID_00000029044734680197083040000002485748933333100471_);}
	.st7{clip-path:url(#SVGID_00000021081322953352136410000002471976638908931465_);}
	.st8{clip-path:url(#SVGID_00000153666078579479386870000000379699245428565899_);}
	.st9{clip-path:url(#SVGID_00000093877349416719871100000011179474067086837133_);}
	.st10{opacity:0.52;clip-path:url(#SVGID_00000065052873486767048270000007702620071384825244_);}
	.st11{clip-path:url(#SVGID_00000044869056600594883160000000989424068992254130_);}
	.st12{clip-path:url(#SVGID_00000024724321992994984540000000174225378940008850_);}
	.st13{clip-path:url(#SVGID_00000125586002045500209960000002421352968445630117_);}
	.st14{clip-path:url(#SVGID_00000095303522976255088630000007875678295852668055_);}
	.st15{clip-path:url(#SVGID_00000106857536076356609840000001047750040939526318_);}
	.st16{clip-path:url(#SVGID_00000134241534335738243060000009106560259500518328_);}
	.st17{clip-path:url(#SVGID_00000149372066982355234090000005842991306020263609_);}
	.st18{clip-path:url(#SVGID_00000012436041323573208950000009290368099710746535_);}
	.st19{clip-path:url(#SVGID_00000008148666540211028000000018105289943658141858_);}
	.st20{clip-path:url(#SVGID_00000058563521228395626030000000845491552650259609_);}
	.st21{clip-path:url(#SVGID_00000161619425012441314280000000520845725923357101_);}
	.st22{clip-path:url(#SVGID_00000148640782910579865950000016171385214080746118_);}
	.st23{fill:none;stroke:#2B2961;stroke-width:0.374;stroke-linejoin:round;stroke-miterlimit:10;}
	.st24{fill:none;stroke:#2B2961;stroke-width:0.4;stroke-miterlimit:10;}
	.st25{clip-path:url(#SVGID_00000068637949539986744110000006599347079929629352_);}
	.st26{clip-path:url(#SVGID_00000028325940202206224310000014408321743508201092_);}
	.st27{clip-path:url(#SVGID_00000045607170950802902600000014840738395866664068_);}
	.st28{clip-path:url(#SVGID_00000090281028118379457110000011677364218728548016_);}
	.st29{clip-path:url(#SVGID_00000031183130793525633880000006918406183093920154_);}
	.st30{clip-path:url(#SVGID_00000089532293693818283650000003651121391139964831_);}
	.st31{clip-path:url(#SVGID_00000008836763204641947210000001301040337728874173_);}
	.st32{clip-path:url(#SVGID_00000142859727521728458350000002850819510353433229_);}
	.st33{clip-path:url(#SVGID_00000102537977635489317310000005985336602478055561_);}
	.st34{clip-path:url(#SVGID_00000113345585609004244410000018411369738329641887_);}
	.st35{clip-path:url(#SVGID_00000139253952779824102980000006052933030702511275_);}
	.st36{clip-path:url(#SVGID_00000064324136365160585300000006776531333700898707_);}
	.st37{clip-path:url(#SVGID_00000046327069960442271320000000770724303715324812_);}
	.st38{clip-path:url(#SVGID_00000090281799349923928420000013772469308987758493_);}
	.st39{clip-path:url(#SVGID_00000175315361310870606310000005413834992993706893_);}
	.st40{clip-path:url(#SVGID_00000124145540708506975610000009523920283735265211_);}
	.st41{clip-path:url(#SVGID_00000021111342512318587230000005050390871504005302_);}
	.st42{clip-path:url(#SVGID_00000064316851823340822160000012056965491306657430_);}
	.st43{clip-path:url(#SVGID_00000111162475651376499910000009498094560131532432_);}
	.st44{clip-path:url(#SVGID_00000027599159827950083500000011928712275190079369_);}
	.st45{clip-path:url(#SVGID_00000129178474947120839980000001143355133117169583_);}
	.st46{clip-path:url(#SVGID_00000106867205716031098230000002148110761969513642_);}
	.st47{clip-path:url(#SVGID_00000125582851081016296600000003269181701911236226_);}
	.st48{clip-path:url(#SVGID_00000030463551402442406140000008363035347051546783_);}
	.st49{clip-path:url(#SVGID_00000074422730851899324250000017560142583908020406_);}
	.st50{clip-path:url(#SVGID_00000151517131089753585220000003153528353291584688_);}
	.st51{clip-path:url(#SVGID_00000009563007415405374960000016567721121962827664_);}
	.st52{clip-path:url(#SVGID_00000000216595905849782250000016858415998598607033_);}
	.st53{clip-path:url(#SVGID_00000132049474328497029780000017278995821034712985_);}
	.st54{clip-path:url(#SVGID_00000100379125412135040630000007106271018281475462_);}
	.st55{clip-path:url(#SVGID_00000026880048405724333510000003662853944898660741_);}
	.st56{clip-path:url(#SVGID_00000057107866216460251070000010168312182270366083_);}
	.st57{clip-path:url(#SVGID_00000065044768587869800120000007569295903374371242_);}
	.st58{clip-path:url(#SVGID_00000014621544512408248750000007885353830732679862_);}
	.st59{clip-path:url(#SVGID_00000047741979748587036220000010063150115596721070_);}
	.st60{clip-path:url(#SVGID_00000116224974993338398190000013103923093635807894_);}
	.st61{clip-path:url(#SVGID_00000011725373619023407300000009480601689574570906_);}
	.st62{fill:#9AB4DE;}
	.st63{clip-path:url(#SVGID_00000079473828311352407180000008408590037883502218_);}
	.st64{clip-path:url(#SVGID_00000088130687907319902740000000367849133946489494_);}
	.st65{clip-path:url(#SVGID_00000082347121952601447100000011824617615942159517_);}
	.st66{fill:#B9C9E9;}
	.st67{clip-path:url(#SVGID_00000147923013820566370800000012181993288450388131_);}
	.st68{clip-path:url(#SVGID_00000056393362106748124910000016018801481157841840_);}
	.st69{clip-path:url(#SVGID_00000023242109851870622220000014396993547028035976_);}
	.st70{clip-path:url(#SVGID_00000088827539464378729460000009256436584191589003_);}
	.st71{clip-path:url(#SVGID_00000034057245411323816190000008889843847923912328_);}
	.st72{clip-path:url(#SVGID_00000136395702935407006190000014811569343578815660_);}
	.st73{clip-path:url(#SVGID_00000016061540513203502850000015800869547334729375_);}
	.st74{clip-path:url(#SVGID_00000041974077244891344250000015650675581883189670_);}
	.st75{clip-path:url(#SVGID_00000096779193220337688560000010566380603012771256_);}
	.st76{clip-path:url(#SVGID_00000091002508375296093010000018442568203999547294_);}
	.st77{clip-path:url(#SVGID_00000036967928603281206660000015697672900488207491_);}
	.st78{clip-path:url(#SVGID_00000079454868263111091430000014494993363157985701_);}
	.st79{clip-path:url(#SVGID_00000156579428005818295180000010554206507189291937_);}
	.st80{clip-path:url(#SVGID_00000023245325215115642040000008779656542480104089_);}
	.st81{clip-path:url(#SVGID_00000028294994086403020130000009862405484856169114_);}
	.st82{clip-path:url(#SVGID_00000101084499592737713950000015723222948072893839_);}
	.st83{clip-path:url(#SVGID_00000082362169295791808890000000462703037332520109_);}
	.st84{clip-path:url(#SVGID_00000020375428715223861870000015949081429835814076_);}
	.st85{clip-path:url(#SVGID_00000022527593606511404250000017322364222111390599_);}
	.st86{clip-path:url(#SVGID_00000095316112216103373940000015531582705708308661_);}
	.st87{clip-path:url(#SVGID_00000111184097659234919790000014987461074031732384_);}
	.st88{clip-path:url(#SVGID_00000125602988203944712400000012006939918142666909_);}
	.st89{clip-path:url(#SVGID_00000036223339959491562720000003137357668286239662_);}
	.st90{clip-path:url(#SVGID_00000038393190582774801710000010295076512182327448_);}
	.st91{clip-path:url(#SVGID_00000016038289594410596340000017748707494462884786_);}
	.st92{clip-path:url(#SVGID_00000157270677749098689750000001327193851716792712_);}
	.st93{clip-path:url(#SVGID_00000132791005384906702640000009810746870581281690_);}
	.st94{clip-path:url(#SVGID_00000096041478561726563840000004224182063088979088_);}
	.st95{clip-path:url(#SVGID_00000013876268773762467700000002857290710099653051_);}
	.st96{clip-path:url(#SVGID_00000097476484569742352060000012511367352637158528_);}
	.st97{clip-path:url(#SVGID_00000152244684503132996880000001185113095128605344_);}
	.st98{clip-path:url(#SVGID_00000110445952381424928130000004514360217043039382_);}
	.st99{clip-path:url(#SVGID_00000075142882699763904330000003368606926509173385_);}
	.st100{clip-path:url(#SVGID_00000051366550322126338650000012804979051798438840_);}
	.st101{clip-path:url(#SVGID_00000157308445465567658540000003613950781032334490_);}
	.st102{clip-path:url(#SVGID_00000084526669672114651260000010040346800222526353_);}
	.st103{clip-path:url(#SVGID_00000085228250687749479790000006019299890989384362_);}
	.st104{clip-path:url(#SVGID_00000054245869934522377290000004582383950133021329_);}
	.st105{clip-path:url(#SVGID_00000023980560891032383590000002076189441494775424_);}
</style>
<g>
	<g>
		<g>
			<g>
				<g>
					<g>
						<g>
							<g>
								<g>
									<rect x="611.3" y="177.97" class="st0" width="109.57" height="305.12"/>
								</g>
							</g>
						</g>
					</g>
				</g>
			</g>
		</g>
	</g>
	<g>
		<g>
			<g>
				<g>
					<g>
						<g>
							<g>
								<g>
									<rect x="70.47" y="330.19" class="st0" width="109.57" height="152.91"/>
								</g>
							</g>
						</g>
					</g>
				</g>
			</g>
		</g>
	</g>
	<g>
		<g>
			<g>
				<g>
					<g>
						<g>
							<g>
								<g>
									<rect x="4.3" y="11.54" class="st1" width="588.4" height="358.81"/>
								</g>
							</g>
						</g>
					</g>
				</g>
			</g>
		</g>
	</g>
	<g>
		<g>
			<g>
				<g>
					<g>
						<g>
							<g>
								<g>
									<rect x="611.3" y="69.11" class="st1" width="387.01" height="108.86"/>
								</g>
							</g>
						</g>
					</g>
				</g>
			</g>
		</g>
	</g>
	<g>
		<defs>
			<rect id="SVGID_00000105411271293298646460000001586468711054395042_" x="0" y="11.54" width="1000" height="574.03"/>
		</defs>
		<clipPath id="SVGID_00000155112152969295498660000009404198090419723706_">
			<use xlink:href="#SVGID_00000105411271293298646460000001586468711054395042_"  style="overflow:visible;"/>
		</clipPath>
		<g style="clip-path:url(#SVGID_00000155112152969295498660000009404198090419723706_);">
			<g>
				<g>
					<g>
						<g>
							<g>
								<g>
									<g>
										<path class="st3" d="M591.13,370.35H1.57c-0.87,0-1.57-0.7-1.57-1.57V13.11c0-0.87,0.7-1.57,1.57-1.57h589.56
											c0.87,0,1.57,0.7,1.57,1.57v355.67C592.7,369.64,591.99,370.35,591.13,370.35z M3.14,367.21h586.42V14.68H3.14V367.21z"/>
									</g>
								</g>
							</g>
						</g>
					</g>
				</g>
			</g>
		</g>
	</g>
	<g>
		<g>
			<g>
				<g>
					<g>
						<g>
							<g>
								<g>
									<path class="st3" d="M997.38,176.93H608.42c-0.87,0-1.57-0.7-1.57-1.57V71.73c0-0.87,0.7-1.57,1.57-1.57h388.96
										c0.87,0,1.57,0.7,1.57,1.57v103.63C998.95,176.23,998.25,176.93,997.38,176.93z M609.99,173.79h385.83V73.3H609.99V173.79z
										"/>
								</g>
							</g>
						</g>
					</g>
				</g>
			</g>
		</g>
	</g>
	<g>
		<defs>
			<rect id="SVGID_00000031175621044001698120000012260282292328350627_" x="0" y="11.54" width="1000" height="574.03"/>
		</defs>
		<clipPath id="SVGID_00000074433462604207359760000007423843338927079601_">
			<use xlink:href="#SVGID_00000031175621044001698120000012260282292328350627_"  style="overflow:visible;"/>
		</clipPath>
		<g style="clip-path:url(#SVGID_00000074433462604207359760000007423843338927079601_);">
			<g>
				<g>
					<g>
						<g>
							<g>
								<g>
									<g>
										<path class="st4" d="M573.51,321.86V292.2c0-2.99-0.2-6.06-1.77-8.78c-1.56-2.65-3.74-4.76-5.98-7.01l-5.99,5.99
											c1.63,1.63,2.65,2.52,3.81,4.49c0.68,1.22,1.02,3.13,1.02,5.72v28.84c0,2.59-0.34,4.49-1.02,5.72
											c-1.16,1.97-2.18,2.86-3.81,4.49l5.99,5.99c2.25-2.25,4.42-4.35,5.98-7.01C573.3,327.92,573.51,324.86,573.51,321.86
											 M542.82,310.23h-13.47c0.07-1.56,0.27-2.52,0.82-3.81c0.95-2.11,2.93-3.68,5.92-3.68c2.99,0,4.97,1.56,5.92,3.68
											C542.55,307.71,542.75,308.67,542.82,310.23 M551.53,316.28v-3.94c0-9.73-5.58-16.94-15.44-16.94
											c-9.19,0-15.43,6.53-15.43,18.1c0,14.36,8.02,18.16,16.39,18.16c6.4,0,9.87-1.97,13.47-5.57l-5.38-5.24
											c-2.25,2.25-4.15,3.33-8.03,3.33c-4.97,0-7.76-3.33-7.76-7.9H551.53z M515.67,331.25v-7.48h-3.4
											c-2.25,0-3.13-1.09-3.13-3.2v-37.76h-8.83v38.31c0,5.03,3.06,10.13,10.33,10.13H515.67z M489.34,331.25v-35.44h-8.83
											v21.43c0,4.83-3.14,6.46-5.92,6.46c-2.79,0-5.86-1.63-5.86-6.46v-21.43h-8.83v22.66c0,3.88,0.74,7.21,3.6,10.06
											c1.97,1.97,4.83,3.13,8.36,3.13c3.27,0,6.54-1.22,8.86-3.67v3.26H489.34z M449.4,331.25v-22.93
											c0-7.48-4.08-12.92-11.83-12.92c-3.13,0-6.12,1.22-8.51,3.67v-16.26h-8.83v48.44h8.83v-21.64c0-4.63,2.93-6.26,5.72-6.26
											c2.79,0,5.79,1.56,5.79,6.26v21.64H449.4z M411.98,326.83l-5.99-5.92c-1.84,1.97-3.4,2.79-5.72,2.79
											c-2.11,0-3.74-0.75-5.03-2.31c-1.36-1.7-1.97-4.15-1.97-7.89c0-3.75,0.61-6.13,1.97-7.83c1.29-1.56,2.93-2.31,5.03-2.31
											c2.31,0,3.88,0.82,5.72,2.79l5.99-5.99c-3.13-3.26-6.8-4.76-11.7-4.76c-7.08,0-15.84,3.74-15.84,18.1
											c0,14.36,8.77,18.16,15.84,18.16C405.18,331.66,408.85,330.09,411.98,326.83 M377.42,320.1c0-5.99-3.54-9.73-10.55-10.42
											l-5.58-0.54c-3.13-0.27-3.67-1.77-3.67-3.06c0-1.77,1.5-3.4,5.03-3.4c3.06,0,6.19,0.54,8.23,2.38l5.44-5.51
											c-3.4-3.2-8.03-4.15-13.54-4.15c-7.21,0-13.68,3.95-13.68,11.29c0,6.54,3.95,9.33,10.34,9.94l5.58,0.54
											c2.79,0.27,3.74,1.5,3.74,3.27c0,2.65-3.2,3.67-6.26,3.67c-2.72,0-6.53-0.41-9.46-3.33l-5.78,5.78
											c4.49,4.49,9.53,5.1,15.1,5.1C370.76,331.66,377.42,327.92,377.42,320.1 M339.87,331.25v-22.93
											c0-7.48-4.08-12.92-11.83-12.92c-3.14,0-6.13,1.22-8.51,3.67v-16.26h-8.84v48.44h8.84v-21.64c0-4.63,2.93-6.26,5.72-6.26
											c2.79,0,5.79,1.56,5.79,6.26v21.64H339.87z M302.44,326.83l-5.99-5.92c-1.84,1.97-3.4,2.79-5.72,2.79
											c-2.11,0-3.74-0.75-5.03-2.31c-1.36-1.7-1.97-4.15-1.97-7.89c0-3.75,0.61-6.13,1.97-7.83c1.29-1.56,2.93-2.31,5.03-2.31
											c2.31,0,3.88,0.82,5.72,2.79l5.99-5.99c-3.13-3.26-6.8-4.76-11.7-4.76c-7.08,0-15.85,3.74-15.85,18.1
											c0,14.36,8.77,18.16,15.85,18.16C295.64,331.66,299.31,330.09,302.44,326.83 M258.02,313.5c0,3.67-0.2,6.8-2.04,8.64
											c-1.02,1.02-2.38,1.56-4.16,1.56c-1.77,0-3.06-0.54-4.08-1.56c-1.84-1.84-2.04-4.97-2.04-8.64c0-3.68,0.2-6.74,2.04-8.58
											c1.02-1.02,2.31-1.56,4.08-1.56c1.77,0,3.14,0.54,4.16,1.56C257.82,306.76,258.02,309.82,258.02,313.5 M266.86,313.5
											c0-6.4-0.82-10.42-4.01-13.74c-2.17-2.31-5.78-4.35-11.02-4.35c-5.24,0-8.78,2.04-10.95,4.35
											c-3.19,3.33-4.01,7.34-4.01,13.74c0,6.46,0.82,10.48,4.01,13.81c2.18,2.31,5.72,4.35,10.95,4.35
											c5.24,0,8.85-2.04,11.02-4.35C266.04,323.98,266.86,319.96,266.86,313.5 M227.47,331.25v-22.93
											c0-7.48-4.08-12.92-11.83-12.92c-3.13,0-6.13,1.22-8.51,3.67v-16.26h-8.84v48.44h8.84v-21.64c0-4.63,2.93-6.26,5.72-6.26
											c2.79,0,5.78,1.56,5.78,6.26v21.64H227.47z M187.39,331.25v-22.93c0-7.48-4.08-12.92-11.83-12.92
											c-3.13,0-6.13,1.22-8.51,3.67v-16.26h-8.83v48.44h8.83v-21.64c0-4.63,2.93-6.26,5.72-6.26c2.79,0,5.79,1.56,5.79,6.26
											v21.64H187.39z M149.97,326.83l-5.99-5.92c-1.84,1.97-3.4,2.79-5.72,2.79c-2.11,0-3.74-0.75-5.03-2.31
											c-1.36-1.7-1.97-4.15-1.97-7.89c0-3.75,0.61-6.13,1.97-7.83c1.29-1.56,2.93-2.31,5.03-2.31c2.31,0,3.88,0.82,5.72,2.79
											l5.99-5.99c-3.13-3.26-6.8-4.76-11.7-4.76c-7.08,0-15.84,3.74-15.84,18.1c0,14.36,8.77,18.16,15.84,18.16
											C143.16,331.66,146.84,330.09,149.97,326.83 M104.46,318.19c0,2.18-0.34,3.61-1.29,4.5c-1.57,1.5-3.14,1.7-5.58,1.7
											c-3.48,0-5.11-1.63-5.11-4.08c0-2.52,1.77-4.02,4.97-4.02h7.01V318.19z M113.3,331.25v-23.33c0-8.3-5.17-12.52-15.1-12.52
											c-5.92,0-9.32,1.09-12.79,4.89l5.64,5.51c1.84-2.11,3.4-2.93,6.81-2.93c4.69,0,6.61,1.7,6.61,5.58v1.77h-8.37
											c-8.23,0-12.11,4.62-12.11,10.27c0,3.13,1.02,5.99,2.92,7.96c2.11,2.1,5.03,3.12,9.05,3.12c4.08,0,6.33-1.02,8.71-3.4
											v3.06H113.3z M79.82,291.24v-8.43h-31.9v48.44h9.45v-19.66h19.12v-8.43H57.37v-11.91H79.82z M37.16,331.73
											c-1.63-1.63-2.65-2.59-3.81-4.56c-0.68-1.22-1.02-3.13-1.02-5.72v-28.84c0-2.59,0.34-4.49,1.02-5.72
											c1.16-1.97,2.18-2.93,3.81-4.56l-5.92-5.92c-2.24,2.25-4.42,4.35-5.98,7.01c-1.56,2.72-1.76,5.78-1.76,8.78v29.66
											c0,2.99,0.2,6.06,1.76,8.78c1.56,2.65,3.74,4.76,5.98,7.01L37.16,331.73z"/>
									</g>
								</g>
							</g>
						</g>
					</g>
				</g>
			</g>
		</g>
		<g style="clip-path:url(#SVGID_00000074433462604207359760000007423843338927079601_);">
			<g>
				<g>
					<g>
						<g>
							<g>
								<g>
									<g>
										<path class="st4" d="M546.87,249.6v-22.66c0-3.88-0.75-7.21-3.6-10.06c-1.97-1.97-4.83-3.12-8.37-3.12
											c-3.27,0-6.54,1.22-8.85,3.67v-3.26h-8.63v35.44h8.83v-21.43c0-4.83,3.13-6.46,5.92-6.46c2.79,0,5.86,1.63,5.86,6.46
											v21.43H546.87z M499.17,228.59H485.7c0.07-1.56,0.27-2.52,0.82-3.82c0.95-2.11,2.93-3.68,5.92-3.68
											c2.99,0,4.97,1.57,5.92,3.68C498.9,226.06,499.11,227.02,499.17,228.59 M507.88,234.63v-3.94
											c0-9.73-5.58-16.94-15.44-16.94c-9.18,0-15.43,6.53-15.43,18.09c0,14.36,8.02,18.16,16.39,18.16
											c6.4,0,9.87-1.97,13.47-5.57l-5.38-5.24c-2.25,2.25-4.15,3.34-8.03,3.34c-4.97,0-7.76-3.34-7.76-7.9H507.88z
											 M469.58,249.6v-7.47h-3.2c-2.11,0-3.06-1.16-3.06-3.2v-17.02h6.26v-6.73h-6.26v-10.48h-8.83v10.48h-3.74v6.73h3.74v17.56
											c0,5.03,3.06,10.13,10.26,10.13H469.58z M445.49,221.91v-6.73h-6.53v-3.88c0-2.04,0.95-3.2,3.06-3.2h3.47v-7.47h-5.03
											c-7.21,0-10.33,5.1-10.33,10.13v4.43h-3.67v6.73h3.67v27.69h8.83v-27.69H445.49z M409.3,236.54c0,2.18-0.34,3.61-1.29,4.5
											c-1.56,1.5-3.14,1.7-5.58,1.7c-3.47,0-5.11-1.63-5.11-4.09c0-2.52,1.77-4.02,4.97-4.02h7.01V236.54z M418.14,249.6v-23.33
											c0-8.3-5.17-12.51-15.1-12.51c-5.92,0-9.32,1.09-12.79,4.89l5.64,5.51c1.83-2.11,3.4-2.93,6.8-2.93
											c4.7,0,6.61,1.71,6.61,5.59v1.77h-8.37c-8.23,0-12.11,4.62-12.11,10.27c0,3.14,1.02,5.99,2.92,7.96
											c2.11,2.11,5.03,3.12,9.05,3.12c4.08,0,6.33-1.02,8.71-3.4v3.06H418.14z M380.45,249.6v-22.93
											c0-7.48-4.08-12.92-11.83-12.92c-3.14,0-6.13,1.22-8.51,3.67v-16.26h-8.84v48.43h8.84v-21.64c0-4.63,2.93-6.26,5.72-6.26
											c2.79,0,5.79,1.56,5.79,6.26v21.64H380.45z M343.03,245.18l-5.99-5.91c-1.84,1.97-3.4,2.79-5.72,2.79
											c-2.11,0-3.74-0.75-5.03-2.31c-1.36-1.7-1.97-4.16-1.97-7.9c0-3.74,0.61-6.12,1.97-7.82c1.29-1.57,2.93-2.32,5.03-2.32
											c2.31,0,3.88,0.82,5.72,2.79l5.99-5.99c-3.13-3.26-6.8-4.76-11.7-4.76c-7.08,0-15.85,3.74-15.85,18.09
											c0,14.36,8.77,18.16,15.85,18.16C336.22,250.01,339.9,248.45,343.03,245.18 M308.47,238.45c0-5.99-3.54-9.73-10.55-10.42
											l-5.58-0.54c-3.13-0.27-3.68-1.77-3.68-3.06c0-1.77,1.5-3.41,5.04-3.41c3.06,0,6.19,0.54,8.23,2.39l5.44-5.51
											c-3.4-3.19-8.03-4.15-13.54-4.15c-7.22,0-13.68,3.94-13.68,11.29c0,6.53,3.95,9.32,10.34,9.93l5.58,0.54
											c2.79,0.27,3.74,1.5,3.74,3.27c0,2.65-3.2,3.67-6.26,3.67c-2.73,0-6.53-0.41-9.46-3.33l-5.78,5.78
											c4.49,4.49,9.53,5.1,15.1,5.1C301.8,250.01,308.47,246.27,308.47,238.45 M270.91,249.6v-22.66
											c0-3.88-0.75-7.21-3.61-10.06c-1.97-1.97-4.83-3.12-8.36-3.12c-3.27,0-6.54,1.22-8.85,3.67v-3.26h-8.64v35.44h8.84v-21.43
											c0-4.83,3.13-6.46,5.92-6.46c2.79,0,5.85,1.63,5.85,6.46v21.43H270.91z M223.21,228.59h-13.47
											c0.07-1.56,0.27-2.52,0.82-3.82c0.95-2.11,2.93-3.68,5.92-3.68c2.99,0,4.97,1.57,5.92,3.68
											C222.94,226.06,223.14,227.02,223.21,228.59 M231.92,234.63v-3.94c0-9.73-5.58-16.94-15.44-16.94
											c-9.19,0-15.44,6.53-15.44,18.09c0,14.36,8.02,18.16,16.39,18.16c6.4,0,9.87-1.97,13.47-5.57l-5.38-5.24
											c-2.25,2.25-4.15,3.34-8.03,3.34c-4.97,0-7.76-3.34-7.76-7.9H231.92z M194.03,238.45c0-5.99-3.54-9.73-10.55-10.42
											l-5.58-0.54c-3.13-0.27-3.67-1.77-3.67-3.06c0-1.77,1.5-3.41,5.03-3.41c3.06,0,6.19,0.54,8.23,2.39l5.44-5.51
											c-3.4-3.19-8.03-4.15-13.54-4.15c-7.21,0-13.68,3.94-13.68,11.29c0,6.53,3.95,9.32,10.34,9.93l5.58,0.54
											c2.79,0.27,3.74,1.5,3.74,3.27c0,2.65-3.2,3.67-6.26,3.67c-2.72,0-6.53-0.41-9.46-3.33l-5.78,5.78
											c4.49,4.49,9.53,5.1,15.1,5.1C187.36,250.01,194.03,246.27,194.03,238.45 M158.99,238.45c0-5.99-3.54-9.73-10.55-10.42
											l-5.58-0.54c-3.13-0.27-3.67-1.77-3.67-3.06c0-1.77,1.5-3.41,5.03-3.41c3.06,0,6.19,0.54,8.23,2.39l5.44-5.51
											c-3.4-3.19-8.03-4.15-13.54-4.15c-7.21,0-13.68,3.94-13.68,11.29c0,6.53,3.95,9.32,10.34,9.93l5.58,0.54
											c2.79,0.27,3.74,1.5,3.74,3.27c0,2.65-3.2,3.67-6.26,3.67c-2.72,0-6.53-0.41-9.46-3.33l-5.78,5.78
											c4.49,4.49,9.53,5.1,15.1,5.1C152.32,250.01,158.99,246.27,158.99,238.45 M121.15,200.9h-9.04v7.2h9.04V200.9z
											 M121.08,214.16h-8.83v35.44h8.83V214.16z M105.51,201.17h-9.87l-7.55,30.54l-8.85-30.54h-7.08l-8.85,30.54l-7.48-30.54
											h-9.87L58.9,249.6h7.89l8.91-29.39l8.91,29.39h7.89L105.51,201.17z"/>
									</g>
								</g>
							</g>
						</g>
					</g>
				</g>
			</g>
		</g>
		<g style="clip-path:url(#SVGID_00000074433462604207359760000007423843338927079601_);">
			<g>
				<g>
					<g>
						<g>
							<g>
								<g>
									<g>
										<path class="st4" d="M546.5,146.94h-13.47c0.07-1.57,0.27-2.52,0.82-3.82c0.95-2.11,2.93-3.68,5.92-3.68
											c2.99,0,4.97,1.56,5.92,3.68C546.22,144.42,546.43,145.37,546.5,146.94 M555.21,152.99v-3.94
											c0-9.73-5.58-16.94-15.44-16.94c-9.18,0-15.43,6.52-15.43,18.09c0,14.36,8.02,18.16,16.39,18.16
											c6.4,0,9.87-1.97,13.47-5.57l-5.38-5.24c-2.25,2.25-4.15,3.34-8.03,3.34c-4.97,0-7.76-3.34-7.76-7.9H555.21z
											 M516.9,167.96v-7.47h-3.2c-2.11,0-3.06-1.16-3.06-3.2v-17.02h6.26v-6.73h-6.26v-10.48h-8.83v10.48h-3.74v6.73h3.74v17.56
											c0,5.03,3.06,10.13,10.26,10.13H516.9z M480.85,150.2c0,5.78-0.75,10.21-6.06,10.21c-5.31,0-5.99-4.43-5.99-10.21
											c0-5.79,0.68-10.14,5.99-10.14C480.1,140.06,480.85,144.41,480.85,150.2 M489.68,167.96v-48.43h-8.83v16.12
											c-2.31-2.59-5.04-3.53-8.65-3.53c-3.48,0-6.67,1.22-8.64,3.19c-3.53,3.53-3.6,9.59-3.6,14.9c0,5.31,0.07,11.43,3.6,14.97
											c1.97,1.97,5.23,3.19,8.71,3.19c3.74,0,6.33-1.02,8.78-3.74v3.33H489.68z M450.56,167.96V145.3
											c0-3.88-0.75-7.21-3.6-10.06c-1.97-1.97-4.83-3.12-8.37-3.12c-3.27,0-6.54,1.22-8.85,3.67v-3.26h-8.63v35.44h8.83v-21.43
											c0-4.83,3.14-6.46,5.92-6.46c2.79,0,5.86,1.63,5.86,6.46v21.43H450.56z M401.38,154.89c0,2.18-0.34,3.61-1.29,4.5
											c-1.56,1.5-3.14,1.71-5.58,1.71c-3.48,0-5.11-1.64-5.11-4.09c0-2.52,1.77-4.02,4.97-4.02h7.01V154.89z M410.21,167.96
											v-23.33c0-8.3-5.17-12.51-15.1-12.51c-5.92,0-9.32,1.08-12.79,4.89l5.64,5.51c1.83-2.11,3.4-2.93,6.8-2.93
											c4.7,0,6.61,1.7,6.61,5.58v1.77H393c-8.23,0-12.11,4.62-12.11,10.27c0,3.13,1.02,5.99,2.92,7.96
											c2.11,2.1,5.03,3.12,9.05,3.12c4.08,0,6.33-1.02,8.71-3.4v3.06H410.21z M376.81,132.52h-9.32l-5.72,21.9l-7.28-21.9h-6.46
											l-7.21,21.9l-5.72-21.9h-9.39l10.89,35.44h7.28l7.42-22.24l7.42,22.24h7.28L376.81,132.52z M312.72,146.94h-13.47
											c0.07-1.57,0.27-2.52,0.82-3.82c0.95-2.11,2.92-3.68,5.92-3.68c2.99,0,4.97,1.56,5.92,3.68
											C312.45,144.42,312.65,145.37,312.72,146.94 M321.43,152.99v-3.94c0-9.73-5.58-16.94-15.44-16.94
											c-9.19,0-15.44,6.52-15.44,18.09c0,14.36,8.02,18.16,16.39,18.16c6.4,0,9.87-1.97,13.48-5.57l-5.38-5.24
											c-2.25,2.25-4.15,3.34-8.03,3.34c-4.96,0-7.75-3.34-7.75-7.9H321.43z M272.17,149.25c0,4.69-0.61,9.26-5.86,9.26
											c-5.24,0-5.78-4.56-5.78-9.26c0-4.7,0.54-9.19,5.78-9.19C271.56,140.06,272.17,144.55,272.17,149.25 M281.01,166.66
											v-34.15h-8.57v3.33c-2.45-2.72-4.9-3.74-8.65-3.74c-3.47,0-6.53,1.15-8.5,3.12c-3.33,3.33-3.61,7.82-3.61,14.02
											c0,6.19,0.27,10.75,3.61,14.08c1.97,1.97,4.96,3.12,8.43,3.12c3.48,0,6.13-0.95,8.44-3.53v3.6c0,3.61-1.84,7.36-7.15,7.36
											c-2.99,0-4.97-0.82-6.94-2.73l-5.51,5.58c3.67,3.53,7.41,4.62,12.85,4.62C274.96,181.36,281.01,175.17,281.01,166.66
											 M242.3,167.96V145.3c0-3.88-0.75-7.21-3.61-10.06c-1.97-1.97-4.83-3.12-8.36-3.12c-3.27,0-6.54,1.22-8.85,3.67v-3.26
											h-8.64v35.44h8.84v-21.43c0-4.83,3.13-6.46,5.92-6.46c2.79,0,5.86,1.63,5.86,6.46v21.43H242.3z M193.11,154.89
											c0,2.18-0.34,3.61-1.29,4.5c-1.56,1.5-3.13,1.71-5.58,1.71c-3.47,0-5.1-1.64-5.1-4.09c0-2.52,1.77-4.02,4.97-4.02h7.01
											V154.89z M201.95,167.96v-23.33c0-8.3-5.17-12.51-15.1-12.51c-5.92,0-9.32,1.08-12.79,4.89l5.64,5.51
											c1.84-2.11,3.4-2.93,6.8-2.93c4.7,0,6.61,1.7,6.61,5.58v1.77h-8.37c-8.23,0-12.11,4.62-12.11,10.27
											c0,3.13,1.02,5.99,2.93,7.96c2.1,2.1,5.03,3.12,9.04,3.12c4.09,0,6.33-1.02,8.71-3.4v3.06H201.95z M151.6,135.44
											c-2.45-2.45-4.9-3.33-8.37-3.33c-3.81,0-7.21,1.76-8.91,3.8v-3.4h-8.63v35.44h8.83v-21.36c0-4.49,2.99-6.53,5.72-6.53
											c2.18,0,3.33,0.75,4.69,2.11L151.6,135.44z M95.95,118.23H88.4v8.49h7.55V118.23z M110.99,118.23h-7.55v8.49h7.55V118.23z
											 M114.38,167.96v-35.44h-8.83v21.43c0,4.83-3.14,6.46-5.92,6.46c-2.79,0-5.86-1.63-5.86-6.46v-21.43h-8.83v22.66
											c0,3.88,0.74,7.21,3.6,10.06c1.97,1.97,4.83,3.12,8.36,3.12c3.27,0,6.54-1.22,8.86-3.67v3.26H114.38z M77.17,140.26v-6.73
											h-6.53v-3.88c0-2.05,0.95-3.2,3.06-3.2h3.47v-7.47h-5.03c-7.21,0-10.33,5.1-10.33,10.13v4.43h-3.67v6.73h3.67v27.69h8.83
											v-27.69H77.17z"/>
									</g>
								</g>
							</g>
						</g>
					</g>
				</g>
			</g>
		</g>
		<g style="clip-path:url(#SVGID_00000074433462604207359760000007423843338927079601_);">
			<g>
				<g>
					<g>
						<g>
							<g>
								<g>
									<g>
										<path class="st4" d="M471.24,65.29h-13.47c0.07-1.57,0.27-2.52,0.82-3.82c0.95-2.11,2.93-3.68,5.92-3.68
											c2.99,0,4.97,1.56,5.92,3.68C470.97,62.77,471.18,63.72,471.24,65.29 M479.95,71.34V67.4c0-9.73-5.58-16.94-15.44-16.94
											c-9.18,0-15.43,6.52-15.43,18.09c0,14.36,8.02,18.16,16.39,18.16c6.4,0,9.87-1.97,13.47-5.57l-5.38-5.24
											c-2.25,2.25-4.15,3.34-8.03,3.34c-4.97,0-7.76-3.34-7.76-7.9H479.95z M444.1,86.31v-7.47h-3.4c-2.25,0-3.13-1.09-3.13-3.2
											V37.87h-8.83v38.31c0,5.03,3.06,10.13,10.33,10.13H444.1z M417.77,86.31V50.87h-8.83V72.3c0,4.83-3.13,6.46-5.92,6.46
											c-2.79,0-5.86-1.63-5.86-6.46V50.87h-8.83v22.66c0,3.88,0.75,7.21,3.6,10.06c1.97,1.97,4.83,3.12,8.37,3.12
											c3.27,0,6.54-1.22,8.85-3.67v3.26H417.77z M377.83,86.31V63.38c0-7.48-4.08-12.92-11.83-12.92
											c-3.14,0-6.13,1.22-8.51,3.67V37.87h-8.84v48.43h8.84V64.67c0-4.63,2.93-6.26,5.72-6.26c2.79,0,5.79,1.56,5.79,6.26v21.64
											H377.83z M340.41,81.89l-5.99-5.92c-1.84,1.98-3.4,2.79-5.72,2.79c-2.11,0-3.74-0.75-5.03-2.32
											c-1.36-1.7-1.97-4.15-1.97-7.89c0-3.74,0.61-6.13,1.97-7.83c1.29-1.56,2.93-2.31,5.03-2.31c2.31,0,3.88,0.82,5.72,2.79
											l5.99-5.98c-3.13-3.27-6.8-4.76-11.7-4.76c-7.08,0-15.85,3.74-15.85,18.09c0,14.36,8.77,18.16,15.85,18.16
											C333.61,86.72,337.28,85.15,340.41,81.89 M305.85,75.16c0-5.99-3.54-9.73-10.55-10.41l-5.58-0.55
											c-3.13-0.27-3.67-1.77-3.67-3.06c0-1.77,1.5-3.4,5.03-3.4c3.06,0,6.19,0.54,8.23,2.38l5.44-5.51
											c-3.4-3.2-8.03-4.15-13.54-4.15c-7.21,0-13.68,3.94-13.68,11.28c0,6.54,3.95,9.33,10.34,9.94l5.58,0.54
											c2.79,0.27,3.74,1.5,3.74,3.27c0,2.66-3.2,3.68-6.26,3.68c-2.72,0-6.53-0.41-9.46-3.34l-5.78,5.78
											c4.49,4.49,9.53,5.1,15.1,5.1C299.18,86.72,305.85,82.98,305.85,75.16 M268.29,86.31V63.38c0-7.48-4.08-12.92-11.83-12.92
											c-3.13,0-6.13,1.22-8.51,3.67V37.87h-8.83v48.43h8.83V64.67c0-4.63,2.93-6.26,5.72-6.26c2.79,0,5.79,1.56,5.79,6.26v21.64
											H268.29z M230.87,81.89l-5.99-5.92c-1.84,1.98-3.4,2.79-5.72,2.79c-2.11,0-3.74-0.75-5.03-2.32
											c-1.36-1.7-1.97-4.15-1.97-7.89c0-3.74,0.61-6.13,1.97-7.83c1.29-1.56,2.93-2.31,5.03-2.31c2.31,0,3.88,0.82,5.72,2.79
											l5.99-5.98c-3.13-3.27-6.8-4.76-11.7-4.76c-7.08,0-15.84,3.74-15.84,18.09c0,14.36,8.77,18.16,15.84,18.16
											C224.06,86.72,227.74,85.15,230.87,81.89 M186.45,68.56c0,3.67-0.2,6.8-2.05,8.64c-1.02,1.03-2.38,1.57-4.15,1.57
											s-3.07-0.54-4.09-1.57c-1.84-1.84-2.04-4.97-2.04-8.64c0-3.67,0.2-6.74,2.04-8.58c1.02-1.02,2.32-1.56,4.09-1.56
											s3.13,0.54,4.15,1.56C186.24,61.81,186.45,64.88,186.45,68.56 M195.28,68.56c0-6.4-0.82-10.42-4.01-13.74
											c-2.18-2.31-5.78-4.35-11.02-4.35c-5.24,0-8.78,2.04-10.95,4.35c-3.2,3.33-4.01,7.34-4.01,13.74
											c0,6.46,0.81,10.48,4.01,13.81c2.17,2.31,5.71,4.35,10.95,4.35c5.24,0,8.85-2.04,11.02-4.35
											C194.47,79.04,195.28,75.02,195.28,68.56 M154.8,86.31V37.87h-9.45v19.8h-16.41v-19.8h-9.45v48.43h9.45V66.03h16.41v20.28
											H154.8z"/>
									</g>
								</g>
							</g>
						</g>
					</g>
				</g>
			</g>
		</g>
		<g style="clip-path:url(#SVGID_00000074433462604207359760000007423843338927079601_);">
			<g>
				<g>
					<g>
						<g>
							<g>
								<g>
									<g>
										<path class="st4" d="M977.36,143.3v-7.47h-3.2c-2.11,0-3.06-1.16-3.06-3.2v-17.02h6.26v-6.73h-6.26V98.4h-8.83v10.48
											h-3.74v6.73h3.74v17.56c0,5.03,3.06,10.13,10.26,10.13H977.36z M932.87,93.57h-7.55v8.49h7.55V93.57z M947.9,93.57h-7.55
											v8.49h7.55V93.57z M941.72,130.24c0,2.18-0.34,3.61-1.29,4.5c-1.56,1.5-3.14,1.7-5.58,1.7c-3.47,0-5.11-1.63-5.11-4.09
											c0-2.52,1.77-4.02,4.97-4.02h7.01V130.24z M950.55,143.3v-23.33c0-8.3-5.17-12.51-15.1-12.51
											c-5.92,0-9.32,1.09-12.79,4.89l5.64,5.51c1.84-2.11,3.4-2.93,6.8-2.93c4.7,0,6.61,1.71,6.61,5.59v1.77h-8.37
											c-8.23,0-12.11,4.62-12.11,10.27c0,3.14,1.02,5.99,2.93,7.96c2.1,2.11,5.03,3.12,9.04,3.12c4.08,0,6.33-1.02,8.71-3.4
											v3.06H950.55z M914.56,143.3v-7.47h-3.2c-2.11,0-3.06-1.16-3.06-3.2v-17.02h6.26v-6.73h-6.26V98.4h-8.83v10.48h-3.74v6.73
											h3.74v17.56c0,5.03,3.06,10.13,10.26,10.13H914.56z M887.48,94.59h-9.04v7.2h9.04V94.59z M887.42,107.86h-8.83v35.44h8.83
											V107.86z M869.79,132.15c0-5.99-3.54-9.73-10.55-10.42l-5.58-0.54c-3.13-0.27-3.67-1.77-3.67-3.06
											c0-1.77,1.5-3.41,5.03-3.41c3.06,0,6.19,0.54,8.23,2.39l5.44-5.51c-3.4-3.19-8.03-4.15-13.54-4.15
											c-7.21,0-13.68,3.94-13.68,11.29c0,6.53,3.95,9.32,10.34,9.93l5.58,0.54c2.79,0.27,3.74,1.5,3.74,3.27
											c0,2.65-3.2,3.67-6.26,3.67c-2.72,0-6.53-0.41-9.46-3.33l-5.78,5.78c4.49,4.49,9.53,5.1,15.1,5.1
											C863.13,143.71,869.79,139.97,869.79,132.15 M837.41,110.78c-2.45-2.44-4.9-3.33-8.37-3.33c-3.81,0-7.21,1.77-8.91,3.8
											v-3.4h-8.64v35.44h8.84v-21.36c0-4.49,2.99-6.53,5.72-6.53c2.18,0,3.33,0.75,4.69,2.11L837.41,110.78z M793.25,122.29
											h-13.47c0.07-1.56,0.27-2.52,0.82-3.82c0.95-2.11,2.93-3.68,5.92-3.68s4.97,1.57,5.92,3.68
											C792.98,119.76,793.18,120.72,793.25,122.29 M801.96,128.33v-3.94c0-9.73-5.58-16.94-15.44-16.94
											c-9.19,0-15.43,6.53-15.43,18.09c0,14.36,8.02,18.16,16.39,18.16c6.4,0,9.87-1.97,13.47-5.57l-5.38-5.24
											c-2.25,2.25-4.15,3.34-8.03,3.34c-4.97,0-7.76-3.34-7.76-7.9H801.96z M766.92,107.86h-9.32l-7.14,21.9l-7.21-21.9h-9.32
											l13.06,35.44h6.94L766.92,107.86z M727.46,94.59h-9.04v7.2h9.04V94.59z M727.39,107.86h-8.83v35.44h8.83V107.86z
											 M707.66,143.3v-22.66c0-3.88-0.75-7.21-3.6-10.06c-1.97-1.97-4.83-3.12-8.37-3.12c-3.27,0-6.54,1.22-8.85,3.67v-3.26
											h-8.63v35.44h8.83v-21.43c0-4.83,3.13-6.46,5.92-6.46c2.79,0,5.86,1.63,5.86,6.46v21.43H707.66z M666.97,126.71V94.87
											h-9.38v31.5c0,5.58-3.34,8.91-8.44,8.91c-5.11,0-8.37-3.33-8.37-8.91v-31.5h-9.45v31.84c0,10.27,7.88,17,17.82,17
											C659.08,143.71,666.97,136.98,666.97,126.71"/>
									</g>
								</g>
							</g>
						</g>
					</g>
				</g>
			</g>
		</g>
	</g>
	<g>
		<g>
			<g>
				<g>
					<g>
						<g>
							<g>
								<g>
									<polygon class="st4" points="633.78,443.65 698.39,443.65 666.08,400.91 									"/>
								</g>
							</g>
						</g>
					</g>
				</g>
			</g>
		</g>
	</g>
	<g>
		<g>
			<g>
				<g>
					<g>
						<g>
							<g>
								<g>
									<polygon class="st4" points="633.78,343.23 698.39,343.23 666.08,300.49 									"/>
								</g>
							</g>
						</g>
					</g>
				</g>
			</g>
		</g>
	</g>
	<g>
		<g>
			<g>
				<g>
					<g>
						<g>
							<g>
								<g>
									<polygon class="st4" points="92.95,443.65 157.56,443.65 125.25,400.91 									"/>
								</g>
							</g>
						</g>
					</g>
				</g>
			</g>
		</g>
	</g>
	<g>
		<g>
			<g>
				<g>
					<g>
						<g>
							<g>
								<g>
									<rect x="73.8" y="476.7" class="st1" width="924.63" height="108.86"/>
								</g>
							</g>
						</g>
					</g>
				</g>
			</g>
		</g>
	</g>
	<g>
		<defs>
			<rect id="SVGID_00000147197807887982475020000002418260000614647737_" x="0" y="11.54" width="1000" height="574.03"/>
		</defs>
		<clipPath id="SVGID_00000183234829805467496400000004009171932819348896_">
			<use xlink:href="#SVGID_00000147197807887982475020000002418260000614647737_"  style="overflow:visible;"/>
		</clipPath>
		<g style="clip-path:url(#SVGID_00000183234829805467496400000004009171932819348896_);">
			<g>
				<g>
					<g>
						<g>
							<g>
								<g>
									<g>
										<path class="st3" d="M998.43,584.52H71.18c-0.87,0-1.57-0.7-1.57-1.57V479.32c0-0.87,0.7-1.57,1.57-1.57h927.25
											c0.87,0,1.57,0.7,1.57,1.57v103.63C1000,583.82,999.3,584.52,998.43,584.52z M72.75,581.38h924.11V480.89H72.75V581.38z"
											/>
									</g>
								</g>
							</g>
						</g>
					</g>
				</g>
			</g>
		</g>
		<g style="clip-path:url(#SVGID_00000183234829805467496400000004009171932819348896_);">
			<g>
				<g>
					<g>
						<g>
							<g>
								<g>
									<g>
										<path class="st4" d="M913.11,541.5v-29.66c0-2.99-0.2-6.06-1.76-8.78c-1.56-2.65-3.74-4.76-5.98-7l-5.99,5.98
											c1.63,1.63,2.65,2.52,3.81,4.49c0.68,1.22,1.02,3.13,1.02,5.72v28.84c0,2.59-0.34,4.49-1.02,5.72
											c-1.16,1.97-2.18,2.86-3.81,4.49l5.99,5.99c2.24-2.25,4.42-4.35,5.98-7.01C912.91,547.56,913.11,544.5,913.11,541.5
											 M894.27,518.38c-2.45-2.45-4.9-3.33-8.37-3.33c-3.81,0-7.21,1.76-8.91,3.8v-3.4h-8.63v35.44h8.83v-21.36
											c0-4.49,2.99-6.53,5.72-6.53c2.18,0,3.33,0.75,4.69,2.11L894.27,518.38z M857.05,550.89v-35.44h-8.83v21.43
											c0,4.83-3.13,6.46-5.92,6.46c-2.79,0-5.86-1.63-5.86-6.46v-21.43h-8.83v22.66c0,3.88,0.75,7.21,3.6,10.06
											c1.97,1.97,4.83,3.12,8.37,3.12c3.27,0,6.54-1.22,8.85-3.67v3.26H857.05z M818.61,550.89v-7.47h-3.2
											c-2.11,0-3.06-1.16-3.06-3.2V523.2h6.26v-6.73h-6.26V506h-8.84v10.48h-3.74v6.73h3.74v17.56
											c0,5.03,3.06,10.13,10.27,10.13H818.61z M791.53,502.19h-9.04v7.2h9.04V502.19z M791.47,515.46h-8.83v35.44h8.83V515.46z
											 M763.98,533.14c0,5.78-0.68,10.21-5.99,10.21c-5.31,0-5.99-4.43-5.99-10.21c0-5.79,0.68-10.14,5.99-10.14
											C763.3,523,763.98,527.35,763.98,533.14 M772.82,533.14c0-5.31-0.07-11.37-3.61-14.9c-1.97-1.97-5.17-3.19-8.64-3.19
											c-3.61,0-6.26,0.95-8.58,3.53v-16.12h-8.84v48.43h8.57v-3.33c2.45,2.72,5.1,3.74,8.85,3.74c3.47,0,6.67-1.22,8.64-3.19
											C772.76,544.57,772.82,538.45,772.82,533.14 M721.25,534.37h-12.04l6.12-17.62L721.25,534.37z M736.5,550.89l-17.69-48.43
											h-7.42l-17.62,48.43h9.87l2.93-8.57h17.21l2.86,8.57H736.5z M688.32,551.37c-1.63-1.63-2.65-2.59-3.81-4.56
											c-0.68-1.22-1.02-3.13-1.02-5.72v-28.84c0-2.59,0.34-4.49,1.02-5.72c1.16-1.97,2.18-2.93,3.81-4.56l-5.92-5.91
											c-2.25,2.25-4.42,4.35-5.98,7c-1.56,2.72-1.77,5.78-1.77,8.78v29.66c0,2.99,0.2,6.06,1.77,8.78
											c1.56,2.65,3.74,4.76,5.98,7.01L688.32,551.37z M638.79,529.88h-13.47c0.07-1.57,0.27-2.52,0.82-3.82
											c0.95-2.11,2.93-3.68,5.92-3.68s4.97,1.56,5.92,3.68C638.51,527.36,638.72,528.31,638.79,529.88 M647.49,535.93v-3.94
											c0-9.73-5.58-16.94-15.44-16.94c-9.18,0-15.43,6.52-15.43,18.09c0,14.36,8.02,18.16,16.39,18.16
											c6.4,0,9.87-1.97,13.47-5.57l-5.38-5.24c-2.25,2.25-4.15,3.34-8.03,3.34c-4.97,0-7.76-3.34-7.76-7.9H647.49z M611.3,523.2
											v-6.73h-6.53v-3.88c0-2.05,0.95-3.2,3.06-3.2h3.47v-7.47h-5.03c-7.21,0-10.33,5.1-10.33,10.13v4.43h-3.67v6.73h3.67v27.69
											h8.83V523.2H611.3z M583.67,502.19h-9.04v7.2h9.04V502.19z M583.61,515.46h-8.83v35.44h8.83V515.46z M556.53,529.88
											h-13.47c0.07-1.57,0.27-2.52,0.82-3.82c0.95-2.11,2.93-3.68,5.92-3.68c2.99,0,4.97,1.56,5.92,3.68
											C556.25,527.36,556.46,528.31,556.53,529.88 M565.24,535.93v-3.94c0-9.73-5.58-16.94-15.44-16.94
											c-9.18,0-15.43,6.52-15.43,18.09c0,14.36,8.02,18.16,16.39,18.16c6.4,0,9.87-1.97,13.47-5.57l-5.38-5.24
											c-2.25,2.25-4.15,3.34-8.03,3.34c-4.97,0-7.76-3.34-7.76-7.9H565.24z M531.83,518.38c-2.45-2.45-4.9-3.33-8.37-3.33
											c-3.81,0-7.21,1.76-8.91,3.8v-3.4h-8.63v35.44h8.83v-21.36c0-4.49,2.99-6.53,5.72-6.53c2.18,0,3.33,0.75,4.69,2.11
											L531.83,518.38z M497.47,550.89v-7.47h-3.4c-2.25,0-3.13-1.09-3.13-3.2v-37.76h-8.83v38.31c0,5.03,3.06,10.13,10.33,10.13
											H497.47z M471.14,550.89v-35.44h-8.83v21.43c0,4.83-3.13,6.46-5.92,6.46c-2.79,0-5.86-1.63-5.86-6.46v-21.43h-8.83v22.66
											c0,3.88,0.75,7.21,3.6,10.06c1.97,1.97,4.83,3.12,8.37,3.12c3.27,0,6.54-1.22,8.85-3.67v3.26H471.14z M431.2,550.89
											v-22.93c0-7.48-4.08-12.92-11.83-12.92c-3.14,0-6.13,1.22-8.51,3.67v-16.26h-8.84v48.43h8.84v-21.64
											c0-4.63,2.93-6.26,5.72-6.26c2.79,0,5.79,1.56,5.79,6.26v21.64H431.2z M393.78,546.48l-5.99-5.92
											c-1.84,1.98-3.4,2.79-5.72,2.79c-2.11,0-3.74-0.75-5.03-2.32c-1.36-1.7-1.97-4.15-1.97-7.89c0-3.74,0.61-6.13,1.97-7.83
											c1.29-1.56,2.93-2.31,5.03-2.31c2.31,0,3.88,0.82,5.72,2.79l5.99-5.98c-3.13-3.27-6.8-4.76-11.7-4.76
											c-7.08,0-15.85,3.74-15.85,18.09c0,14.36,8.77,18.16,15.85,18.16C386.98,551.3,390.65,549.74,393.78,546.48
											 M359.22,539.74c0-5.99-3.54-9.73-10.55-10.41l-5.58-0.55c-3.13-0.27-3.67-1.77-3.67-3.06c0-1.77,1.5-3.4,5.03-3.4
											c3.06,0,6.19,0.54,8.23,2.38l5.44-5.51c-3.4-3.2-8.03-4.15-13.54-4.15c-7.21,0-13.68,3.94-13.68,11.28
											c0,6.54,3.95,9.33,10.34,9.94l5.58,0.54c2.79,0.27,3.74,1.5,3.74,3.27c0,2.66-3.2,3.68-6.26,3.68
											c-2.72,0-6.53-0.41-9.46-3.34l-5.78,5.78c4.49,4.49,9.53,5.1,15.1,5.1C352.55,551.3,359.22,547.57,359.22,539.74
											 M321.66,550.89v-22.93c0-7.48-4.08-12.92-11.83-12.92c-3.13,0-6.13,1.22-8.51,3.67v-16.26h-8.83v48.43h8.83v-21.64
											c0-4.63,2.93-6.26,5.72-6.26c2.79,0,5.79,1.56,5.79,6.26v21.64H321.66z M284.24,546.48l-5.99-5.92
											c-1.84,1.98-3.4,2.79-5.72,2.79c-2.11,0-3.74-0.75-5.03-2.32c-1.36-1.7-1.97-4.15-1.97-7.89c0-3.74,0.61-6.13,1.97-7.83
											c1.29-1.56,2.93-2.31,5.03-2.31c2.31,0,3.88,0.82,5.72,2.79l5.99-5.98c-3.13-3.27-6.8-4.76-11.7-4.76
											c-7.08,0-15.84,3.74-15.84,18.09c0,14.36,8.77,18.16,15.84,18.16C277.43,551.3,281.11,549.74,284.24,546.48
											 M239.82,533.14c0,3.67-0.2,6.8-2.05,8.65c-1.02,1.02-2.38,1.56-4.15,1.56c-1.77,0-3.07-0.54-4.09-1.56
											c-1.84-1.84-2.04-4.97-2.04-8.65c0-3.67,0.2-6.74,2.04-8.58c1.02-1.02,2.32-1.56,4.09-1.56c1.77,0,3.13,0.54,4.15,1.56
											C239.61,526.4,239.82,529.47,239.82,533.14 M248.65,533.14c0-6.4-0.82-10.42-4.01-13.74c-2.18-2.31-5.78-4.35-11.02-4.35
											c-5.24,0-8.78,2.04-10.95,4.35c-3.2,3.33-4.01,7.34-4.01,13.74c0,6.46,0.81,10.48,4.01,13.81
											c2.17,2.31,5.71,4.35,10.95,4.35c5.24,0,8.85-2.04,11.02-4.35C247.84,543.62,248.65,539.6,248.65,533.14 M208.17,550.89
											v-48.43h-9.45v19.8h-16.41v-19.8h-9.45v48.43h9.45v-20.28h16.41v20.28H208.17z"/>
									</g>
								</g>
							</g>
						</g>
					</g>
				</g>
			</g>
		</g>
	</g>
	<g>
		<g>
			<g>
				<g>
					<g>
						<g>
							<g>
								<g>
									<polygon class="st4" points="633.78,494.61 698.39,494.61 666.08,451.87 									"/>
								</g>
							</g>
						</g>
					</g>
				</g>
			</g>
		</g>
	</g>
	<g>
		<g>
			<g>
				<g>
					<g>
						<g>
							<g>
								<g>
									<polygon class="st4" points="92.95,494.61 157.56,494.61 125.25,451.87 									"/>
								</g>
							</g>
						</g>
					</g>
				</g>
			</g>
		</g>
	</g>
	<g>
		<g>
			<g>
				<g>
					<g>
						<g>
							<g>
								<g>
									<polygon class="st4" points="633.78,392.69 698.39,392.69 666.08,349.95 									"/>
								</g>
							</g>
						</g>
					</g>
				</g>
			</g>
		</g>
	</g>
	<g>
		<g>
			<g>
				<g>
					<g>
						<g>
							<g>
								<g>
									<polygon class="st4" points="633.78,292.27 698.39,292.27 666.08,249.53 									"/>
								</g>
							</g>
						</g>
					</g>
				</g>
			</g>
		</g>
	</g>
	<g>
		<g>
			<g>
				<g>
					<g>
						<g>
							<g>
								<g>
									<polygon class="st4" points="633.78,244.38 698.39,244.38 666.08,201.64 									"/>
								</g>
							</g>
						</g>
					</g>
				</g>
			</g>
		</g>
	</g>
	<g>
		<g>
			<g>
				<g>
					<g>
						<g>
							<g>
								<g>
									<polygon class="st4" points="633.78,196.49 698.39,196.49 666.08,153.75 									"/>
								</g>
							</g>
						</g>
					</g>
				</g>
			</g>
		</g>
	</g>
	<g>
		<g>
			<g>
				<g>
					<g>
						<g>
							<g>
								<g>
									<polygon class="st4" points="92.95,392.69 157.56,392.69 125.25,349.95 									"/>
								</g>
							</g>
						</g>
					</g>
				</g>
			</g>
		</g>
	</g>
</g>
</svg>
