<?xml version="1.0" encoding="utf-8"?>
<!-- Generator: Adobe Illustrator 26.2.1, SVG Export Plug-In . SVG Version: 6.00 Build 0)  -->
<svg version="1.1" id="Ebene_1" xmlns="http://www.w3.org/2000/svg" xmlns:xlink="http://www.w3.org/1999/xlink" x="0px" y="0px"
	 viewBox="0 0 1000 935.58" style="enable-background:new 0 0 1000 935.58;" xml:space="preserve">
<style type="text/css">
	.st0{fill:#A2B9E1;}
	.st1{fill:#6796CF;}
	.st2{clip-path:url(#SVGID_00000130606808518752805850000001790626873653256617_);}
	.st3{fill:#2B2961;}
	.st4{fill:#FFFFFF;}
	.st5{clip-path:url(#SVGID_00000134222181832831536520000014734462350369161901_);}
	.st6{clip-path:url(#SVGID_00000030468276411709960630000012382174144123238786_);}
	.st7{clip-path:url(#SVGID_00000072253593578983742500000014737953709869634487_);}
	.st8{clip-path:url(#SVGID_00000042696167555582912450000009231207775254684061_);}
	.st9{clip-path:url(#SVGID_00000083782688934278075470000006867099058401262474_);}
	.st10{opacity:0.52;clip-path:url(#SVGID_00000058575205748941318700000007590233299596904098_);}
	.st11{clip-path:url(#SVGID_00000003789082400454779930000010998041641378332585_);}
	.st12{clip-path:url(#SVGID_00000127016314062857758930000003101686285343072916_);}
	.st13{clip-path:url(#SVGID_00000093857674106076651620000014440092703102413973_);}
	.st14{clip-path:url(#SVGID_00000142884801426942520970000010946117779941297539_);}
	.st15{clip-path:url(#SVGID_00000069400293384070379930000017484203307947560833_);}
	.st16{clip-path:url(#SVGID_00000048486070809799640170000000048832673708348832_);}
	.st17{clip-path:url(#SVGID_00000123426139352339393310000000025434938369644220_);}
	.st18{clip-path:url(#SVGID_00000173869122833351253970000009196140823244104598_);}
	.st19{clip-path:url(#SVGID_00000046329423744871178690000012303908958351090588_);}
	.st20{clip-path:url(#SVGID_00000066515722391678517760000001950701452465153410_);}
	.st21{clip-path:url(#SVGID_00000143596047071504792190000007963285460043552415_);}
	.st22{clip-path:url(#SVGID_00000034783967399197356540000001031584695584212124_);}
	.st23{fill:none;stroke:#2B2961;stroke-width:0.374;stroke-linejoin:round;stroke-miterlimit:10;}
	.st24{fill:none;stroke:#2B2961;stroke-width:0.4;stroke-miterlimit:10;}
	.st25{clip-path:url(#SVGID_00000124850722304851626970000015304368540656665261_);}
	.st26{clip-path:url(#SVGID_00000124135005385698126650000017313947446284288927_);}
	.st27{clip-path:url(#SVGID_00000008865198633871695000000015191730833154289833_);}
	.st28{clip-path:url(#SVGID_00000105422662509715311550000005498691860393092260_);}
	.st29{clip-path:url(#SVGID_00000150823598873801577850000009305681081259591051_);}
	.st30{clip-path:url(#SVGID_00000049927533470639198370000006044825599302950557_);}
	.st31{clip-path:url(#SVGID_00000165915463950265986440000014189490478907422648_);}
	.st32{clip-path:url(#SVGID_00000095332323439126207850000016591629698696870828_);}
	.st33{clip-path:url(#SVGID_00000075127887093468461020000005525531386401658285_);}
	.st34{clip-path:url(#SVGID_00000123443626715209013860000009968902150483710382_);}
	.st35{clip-path:url(#SVGID_00000006677046489917387180000009533353880410202004_);}
	.st36{clip-path:url(#SVGID_00000100383818655043869060000004388114747915546274_);}
	.st37{clip-path:url(#SVGID_00000016050224837586862990000001513219641432479408_);}
	.st38{clip-path:url(#SVGID_00000134971057989857217780000018186675271083991682_);}
	.st39{clip-path:url(#SVGID_00000158744786847808846270000001214954070825050761_);}
	.st40{clip-path:url(#SVGID_00000075880765584171343090000014797481496868023997_);}
	.st41{clip-path:url(#SVGID_00000051355305806425912510000001115092965829474462_);}
	.st42{clip-path:url(#SVGID_00000124858533384636315170000008417585100604393907_);}
	.st43{clip-path:url(#SVGID_00000150811632600902833950000018158598635416645292_);}
	.st44{clip-path:url(#SVGID_00000060014130094569468570000002347165321132508806_);}
	.st45{clip-path:url(#SVGID_00000127040731832500318900000011489001108102632594_);}
	.st46{clip-path:url(#SVGID_00000050649122887083009520000017247180382738272935_);}
	.st47{clip-path:url(#SVGID_00000119796292009683741320000017700733903464268712_);}
	.st48{clip-path:url(#SVGID_00000031177267246439437970000002056275369486198663_);}
	.st49{clip-path:url(#SVGID_00000057870275311504296180000007042652195919072162_);}
	.st50{clip-path:url(#SVGID_00000148629669844909436980000018159253782484548995_);}
	.st51{clip-path:url(#SVGID_00000073717289312041554500000010783756286160504201_);}
	.st52{clip-path:url(#SVGID_00000160878660623070734360000006138613143980396452_);}
	.st53{clip-path:url(#SVGID_00000088817013970703246120000014856958265927256228_);}
	.st54{clip-path:url(#SVGID_00000178177358292876895170000013658430942935627711_);}
	.st55{clip-path:url(#SVGID_00000039819279557111495050000016084689310122253740_);}
	.st56{clip-path:url(#SVGID_00000004514534410910076600000009285523217895105713_);}
	.st57{clip-path:url(#SVGID_00000029029407122882428200000007459678243546340030_);}
	.st58{clip-path:url(#SVGID_00000161601715996930289230000014640734910426488255_);}
	.st59{clip-path:url(#SVGID_00000006705130907893177880000013605161507606765746_);}
	.st60{clip-path:url(#SVGID_00000113320530958368612050000000596601092550884752_);}
	.st61{clip-path:url(#SVGID_00000133503475211985392710000004262590492570301862_);}
	.st62{fill:#9AB4DE;}
	.st63{clip-path:url(#SVGID_00000137854974653925883780000009956304489324604300_);}
	.st64{clip-path:url(#SVGID_00000127004127327044147830000001715174975217887146_);}
	.st65{clip-path:url(#SVGID_00000177452762731639514920000018166182027983378355_);}
	.st66{fill:#B9C9E9;}
	.st67{clip-path:url(#SVGID_00000085221459628770123360000001357077969477619368_);}
	.st68{clip-path:url(#SVGID_00000042718405766319151620000009196350265927452326_);}
	.st69{clip-path:url(#SVGID_00000071540074047753923750000002931769230728457104_);}
	.st70{clip-path:url(#SVGID_00000160874966299507064970000003948918305115729557_);}
	.st71{clip-path:url(#SVGID_00000015346668009489557120000004449317128992022692_);}
	.st72{clip-path:url(#SVGID_00000029742827057753249640000011873957281470960792_);}
	.st73{clip-path:url(#SVGID_00000003824685482275652500000013857840864887223207_);}
	.st74{clip-path:url(#SVGID_00000083769471356191863170000012852258848513336966_);}
	.st75{clip-path:url(#SVGID_00000034073695992425633730000003934443083953081236_);}
	.st76{clip-path:url(#SVGID_00000113345859266703226850000012868211725040839069_);}
	.st77{clip-path:url(#SVGID_00000095320399103743642620000012297874003592270513_);}
	.st78{clip-path:url(#SVGID_00000146470966507456531730000005357491545294051499_);}
	.st79{clip-path:url(#SVGID_00000031895270744032644860000006456296388301103745_);}
	.st80{clip-path:url(#SVGID_00000123407743628118800170000011813819681485428907_);}
	.st81{clip-path:url(#SVGID_00000175286402402909665390000004817616724615087250_);}
	.st82{clip-path:url(#SVGID_00000052821511628276858070000004399698578458302344_);}
	.st83{clip-path:url(#SVGID_00000056398119656586468430000002653013277210100121_);}
	.st84{clip-path:url(#SVGID_00000008836782460298660800000001144755993491317932_);}
	.st85{clip-path:url(#SVGID_00000160883491571652961080000018132282675541531576_);}
	.st86{clip-path:url(#SVGID_00000119091651153290977370000010207181892841628558_);}
	.st87{clip-path:url(#SVGID_00000112615694876578394660000011424825028515302042_);}
	.st88{clip-path:url(#SVGID_00000035494521426025447650000001115900692159385535_);}
	.st89{clip-path:url(#SVGID_00000054241077034668769890000016723630996269711250_);}
	.st90{clip-path:url(#SVGID_00000124843631740988096270000000456876523988926623_);}
	.st91{clip-path:url(#SVGID_00000017475358630048824000000003014373530640966273_);}
	.st92{clip-path:url(#SVGID_00000149373042372485929670000017731926537132691356_);}
	.st93{clip-path:url(#SVGID_00000159460807537224379530000017886666349950709636_);}
	.st94{clip-path:url(#SVGID_00000047037764536243049130000010300669091311884695_);}
	.st95{clip-path:url(#SVGID_00000026858879837584337740000017862339758682417805_);}
	.st96{clip-path:url(#SVGID_00000060749732188587387450000011632986162766546872_);}
	.st97{clip-path:url(#SVGID_00000148659405602566630210000013082043850603669642_);}
	.st98{clip-path:url(#SVGID_00000098200228344524212060000000536596726242172853_);}
	.st99{clip-path:url(#SVGID_00000132799200579841907700000003430882390687443363_);}
	.st100{clip-path:url(#SVGID_00000150789398836448999480000012013684919775552922_);}
	.st101{clip-path:url(#SVGID_00000124147207613434336650000014094297794628599178_);}
	.st102{clip-path:url(#SVGID_00000119105364926582389290000004878464364630094768_);}
	.st103{clip-path:url(#SVGID_00000060005389754323993990000006702273685143159428_);}
	.st104{clip-path:url(#SVGID_00000117669209764932843250000004323809834038123684_);}
	.st105{clip-path:url(#SVGID_00000041279295379543685710000016773246862758029448_);}
	.st106{clip-path:url(#SVGID_00000163774623144611226690000000427397154101551030_);}
	.st107{clip-path:url(#SVGID_00000154390917012804574030000014214509363388660397_);}
	.st108{clip-path:url(#SVGID_00000118374807189554015080000002374722307998639525_);}
	.st109{clip-path:url(#SVGID_00000088844044185296222810000003982982460522432956_);}
	.st110{clip-path:url(#SVGID_00000054987692754744496300000013016308540956557233_);}
	.st111{clip-path:url(#SVGID_00000009554377569039060470000013253327466049141142_);}
	.st112{clip-path:url(#SVGID_00000028287444437097344480000009531176272801921172_);}
	.st113{clip-path:url(#SVGID_00000142883975557597639110000006649932511980524707_);}
	.st114{clip-path:url(#SVGID_00000114757670001289777990000006296563643638408895_);}
	.st115{clip-path:url(#SVGID_00000069369506880952724260000000482333065293831843_);}
	.st116{clip-path:url(#SVGID_00000117677963350115960360000003987291711884738449_);}
	.st117{clip-path:url(#SVGID_00000078762868068308771380000000922506642492480155_);}
	.st118{clip-path:url(#SVGID_00000007406671658026672640000001280784574061851291_);}
	.st119{clip-path:url(#SVGID_00000108285354511336516360000014903247693047995028_);}
	.st120{clip-path:url(#SVGID_00000103247667551895115150000008492720459374461368_);}
	.st121{clip-path:url(#SVGID_00000090297020943124050020000006265889862250734516_);}
	.st122{clip-path:url(#SVGID_00000155866666096202084340000008132460790767673229_);}
	.st123{clip-path:url(#SVGID_00000162330063077319702970000003627787907034132141_);}
	.st124{clip-path:url(#SVGID_00000021832785381241667480000004505436639314471059_);}
	.st125{clip-path:url(#SVGID_00000005243663627257996560000017402538616233908927_);}
	.st126{clip-path:url(#SVGID_00000041991921610821689560000010583161585778634172_);}
	.st127{clip-path:url(#SVGID_00000007428158845940783530000000405050746969832628_);}
	.st128{clip-path:url(#SVGID_00000072968958525419114740000008919569522126613683_);}
	.st129{clip-path:url(#SVGID_00000108272203780433940720000001758465493332367034_);}
	.st130{clip-path:url(#SVGID_00000021092209810394231520000003968703048514528419_);}
	.st131{clip-path:url(#SVGID_00000064318866821103548170000017691390037311691413_);}
	.st132{clip-path:url(#SVGID_00000111166359205594892500000014100065029345051539_);}
	.st133{clip-path:url(#SVGID_00000013911015761673620870000013906381317485556622_);}
	.st134{clip-path:url(#SVGID_00000101073156866304019070000002588096004480027033_);}
	.st135{clip-path:url(#SVGID_00000121968419368783543870000010426417535288883084_);}
	.st136{clip-path:url(#SVGID_00000134243788471155794070000009149821139178703276_);}
	.st137{clip-path:url(#SVGID_00000054978125492654227800000010697872678949965210_);}
	.st138{clip-path:url(#SVGID_00000160891684529450068130000010270330060076665223_);}
	.st139{clip-path:url(#SVGID_00000106119372497234934150000005081268454152240821_);}
	.st140{clip-path:url(#SVGID_00000008129640144289161060000018223721159519994499_);}
	.st141{clip-path:url(#SVGID_00000159469831841422141800000002590540573814106003_);}
	.st142{clip-path:url(#SVGID_00000038372005923859349750000011830643421065106571_);}
	.st143{clip-path:url(#SVGID_00000129899465239963527660000008847143180670798782_);}
	.st144{clip-path:url(#SVGID_00000107569736959454863120000008794241284329286811_);}
	.st145{clip-path:url(#SVGID_00000127043836423363540340000009851059848710892463_);}
	.st146{clip-path:url(#SVGID_00000176042338496920433760000005856245456633977756_);}
	.st147{clip-path:url(#SVGID_00000018212037135923219390000010757649837965759619_);}
	.st148{clip-path:url(#SVGID_00000096752208211353029510000004070941408880948395_);}
	.st149{clip-path:url(#SVGID_00000059307197284274261500000010757188813468008880_);}
	.st150{clip-path:url(#SVGID_00000088116831050953975720000007119258682257970325_);}
	.st151{clip-path:url(#SVGID_00000072263280326698961520000000696321168100682113_);}
	.st152{clip-path:url(#SVGID_00000036245027773118839630000000645544998237230257_);}
	.st153{clip-path:url(#SVGID_00000066482835267417343590000009063499841818552754_);}
	.st154{clip-path:url(#SVGID_00000131338151408231437030000013189310921377430926_);}
	.st155{clip-path:url(#SVGID_00000041296665295990187210000007853391190866607028_);}
	.st156{clip-path:url(#SVGID_00000055707703727058014990000005217321334228049854_);}
	.st157{clip-path:url(#SVGID_00000091715478009605874710000007208166257508047766_);}
	.st158{clip-path:url(#SVGID_00000130637597112573304850000009930327174863932339_);}
	.st159{clip-path:url(#SVGID_00000174578862895973475510000006137640281268789147_);}
	.st160{clip-path:url(#SVGID_00000000224675028481598590000015845544725616369305_);}
	.st161{clip-path:url(#SVGID_00000016072389151504630790000004355125369183863197_);}
	.st162{clip-path:url(#SVGID_00000123405250328276955920000010476953327790622376_);}
	.st163{clip-path:url(#SVGID_00000032640088605772853020000012315219988367376314_);}
	.st164{clip-path:url(#SVGID_00000154415725843437000130000010755501217085843584_);}
	.st165{clip-path:url(#SVGID_00000065061664145454352410000005390378144961145222_);}
	.st166{clip-path:url(#SVGID_00000079462678253810738980000013558214265593469885_);}
	.st167{clip-path:url(#SVGID_00000170975312713708592870000018409221733569540229_);}
	.st168{clip-path:url(#SVGID_00000045620651442127333500000006414916427591128464_);}
	.st169{clip-path:url(#SVGID_00000083781743198282004750000001939453434864074912_);}
	.st170{clip-path:url(#SVGID_00000164497844855085986870000015183228691260909973_);}
	.st171{clip-path:url(#SVGID_00000164504776957687222850000008470787000437822124_);}
	.st172{clip-path:url(#SVGID_00000156552750148677336940000017607854314529329075_);}
	.st173{clip-path:url(#SVGID_00000132075915331690407890000017075402530147150998_);}
	.st174{clip-path:url(#SVGID_00000147211597002096943600000008106168667565416867_);}
	.st175{clip-path:url(#SVGID_00000146493584561248999300000007716962149970269622_);}
	.st176{clip-path:url(#SVGID_00000020399435892630929110000005039192471858288521_);}
	.st177{clip-path:url(#SVGID_00000145748196426043957230000011296446058077620904_);}
	.st178{clip-path:url(#SVGID_00000142163365648826684880000017089476049926679190_);}
	.st179{clip-path:url(#SVGID_00000023247877506596939600000007705744781657038738_);}
	.st180{clip-path:url(#SVGID_00000120556945126254832420000017832672511501190284_);}
	.st181{clip-path:url(#SVGID_00000166662339027129859480000001337856101054429107_);}
	.st182{clip-path:url(#SVGID_00000110471506189824223490000007699069354886150017_);}
	.st183{clip-path:url(#SVGID_00000057142394908683762080000004722776689221169811_);}
	.st184{clip-path:url(#SVGID_00000179624618413605672870000003569635667949497246_);}
	.st185{clip-path:url(#SVGID_00000070808701336100631080000007015676279123400852_);}
	.st186{clip-path:url(#SVGID_00000137823413332761115480000012645346671507215747_);}
	.st187{clip-path:url(#SVGID_00000006685859064036595190000010764660262011521666_);}
	.st188{clip-path:url(#SVGID_00000085952866752377298560000017683950142270134205_);}
	.st189{clip-path:url(#SVGID_00000102512199960581674920000009813994039021168319_);}
	.st190{clip-path:url(#SVGID_00000156590158416501523600000004082973669046823063_);}
	.st191{clip-path:url(#SVGID_00000130626461382758450250000002256929985040341921_);}
	.st192{clip-path:url(#SVGID_00000099656122566738190590000012548128349097739183_);}
	.st193{clip-path:url(#SVGID_00000069394617078193841840000014418961746639180970_);}
	.st194{clip-path:url(#SVGID_00000095317247422240925230000017602182825276885916_);}
	.st195{clip-path:url(#SVGID_00000066516138385544981400000017288059582765322122_);}
	.st196{clip-path:url(#SVGID_00000170265345649240757610000000383690072537175735_);}
	.st197{clip-path:url(#SVGID_00000166677390861144224340000015804279942182358443_);}
	.st198{clip-path:url(#SVGID_00000101068227996904707260000002994194136031153538_);}
	.st199{clip-path:url(#SVGID_00000092431648320730330130000009132193787418033553_);}
	.st200{clip-path:url(#SVGID_00000047753169549425599800000001449012339911921289_);}
	.st201{clip-path:url(#SVGID_00000039108370843481193340000006016383226136460214_);}
	.st202{clip-path:url(#SVGID_00000157284983504485773110000005340743475317330069_);}
	.st203{clip-path:url(#SVGID_00000029767912512468421940000012186563294295433116_);}
	.st204{clip-path:url(#SVGID_00000112603043769480353350000011102756740078614185_);}
	.st205{clip-path:url(#SVGID_00000075144300913209266200000017334578843815585420_);}
	.st206{clip-path:url(#SVGID_00000178913549930748391720000015698931751648081843_);}
	.st207{clip-path:url(#SVGID_00000090283156279310197900000015380116577782208683_);}
	.st208{clip-path:url(#SVGID_00000170966155586047365260000007420582356968229762_);}
	.st209{clip-path:url(#SVGID_00000005249494057344478470000011289015292803882650_);}
	.st210{clip-path:url(#SVGID_00000037669836787202035520000012868240223052819335_);}
	.st211{clip-path:url(#SVGID_00000005981661361234808470000000903019318884547216_);}
	.st212{clip-path:url(#SVGID_00000119797505416720580080000004147087520252786353_);}
	.st213{clip-path:url(#SVGID_00000098203739170258820620000012026791639896088999_);}
	.st214{clip-path:url(#SVGID_00000001649972271540170270000008775535256883845008_);}
	.st215{clip-path:url(#SVGID_00000145742507580237195590000010832241530084431765_);}
	.st216{clip-path:url(#SVGID_00000139263400653097057230000006516465114371647132_);}
	.st217{clip-path:url(#SVGID_00000043430893368463517990000003580262928596592006_);}
	.st218{clip-path:url(#SVGID_00000084502708642888773430000004792249006575205772_);}
	.st219{clip-path:url(#SVGID_00000077288519757339345200000002395429545783681168_);}
	.st220{clip-path:url(#SVGID_00000093154613185787403710000003569648216421790871_);}
	.st221{clip-path:url(#SVGID_00000111898321580431223270000004941346860447784591_);}
	.st222{clip-path:url(#SVGID_00000030458817726019131850000004541121657712679850_);}
	.st223{clip-path:url(#SVGID_00000181801951002163470630000012848260801154494135_);}
	.st224{clip-path:url(#SVGID_00000006697005311833645550000018172889683166201270_);}
	.st225{clip-path:url(#SVGID_00000153705426467362991820000004833780876044269994_);}
	.st226{clip-path:url(#SVGID_00000146497429468070228480000014791960762637855123_);}
	.st227{clip-path:url(#SVGID_00000101800189523417497930000006267698927106612628_);}
	.st228{clip-path:url(#SVGID_00000036969949159465276490000018058372039733268127_);}
	.st229{clip-path:url(#SVGID_00000119835598679528506160000007076557175716653489_);}
	.st230{clip-path:url(#SVGID_00000015351698394652108920000014234969333553862306_);}
	.st231{clip-path:url(#SVGID_00000036212662850213223640000010974870208590851752_);}
	.st232{clip-path:url(#SVGID_00000175282458125776246330000008126250784491084417_);}
	.st233{clip-path:url(#SVGID_00000054262131171552082770000000718005097243988618_);}
	.st234{clip-path:url(#SVGID_00000002357474237721840010000007019308267480465825_);}
	.st235{clip-path:url(#SVGID_00000162330215797824102390000010174806363173905590_);}
	.st236{clip-path:url(#SVGID_00000000935858892892966850000006016374220781921963_);}
	.st237{clip-path:url(#SVGID_00000112619209124538177840000012477429861604791979_);}
	.st238{clip-path:url(#SVGID_00000021820213188467886900000007045898248391237530_);}
	.st239{clip-path:url(#SVGID_00000117676561815721265460000007275160811937304204_);}
	.st240{clip-path:url(#SVGID_00000096058914217795064180000012201523919763999648_);}
	.st241{clip-path:url(#SVGID_00000054245937349216920450000007057635676092469388_);}
	.st242{clip-path:url(#SVGID_00000150081098184497176340000001850568139626682528_);}
	.st243{clip-path:url(#SVGID_00000116217515070607562080000000523595867938523282_);}
	.st244{clip-path:url(#SVGID_00000076592261946870720890000011105932220530420649_);}
	.st245{clip-path:url(#SVGID_00000026124038643914943330000016395534668276158112_);}
	.st246{clip-path:url(#SVGID_00000152227088047354693250000012312015530575365520_);}
	.st247{clip-path:url(#SVGID_00000009552819503982721030000005474222337474265224_);}
	.st248{clip-path:url(#SVGID_00000047019826139366787220000018166374928958601862_);}
	.st249{clip-path:url(#SVGID_00000121968481221097156390000016364303244143401913_);}
	.st250{clip-path:url(#SVGID_00000146494767881054641000000015824425477284529585_);}
	.st251{clip-path:url(#SVGID_00000159456357686432469960000017049610645558913198_);}
	.st252{clip-path:url(#SVGID_00000002357735361757511410000017637691831633840003_);}
	.st253{clip-path:url(#SVGID_00000146478807025190112320000017689329952248561087_);}
	.st254{clip-path:url(#SVGID_00000020376624540060021360000000184962997999665315_);}
	.st255{clip-path:url(#SVGID_00000064353579282988046990000009615749447455178674_);}
	.st256{clip-path:url(#SVGID_00000115484510486086516500000014257938061074207150_);}
	.st257{clip-path:url(#SVGID_00000062185501630321049370000007815618155651874458_);}
	.st258{clip-path:url(#SVGID_00000124136699164443877180000014970339333926749630_);}
	.st259{clip-path:url(#SVGID_00000066484616643736327940000009518756692365732495_);}
	.st260{clip-path:url(#SVGID_00000157987327098108577120000017227229985854628794_);}
	.st261{clip-path:url(#SVGID_00000147179385044434560720000009081935789597852317_);}
	.st262{clip-path:url(#SVGID_00000103956409675501759400000003601906631374694785_);}
	.st263{clip-path:url(#SVGID_00000165236973220850065750000013181647138672060336_);}
	.st264{clip-path:url(#SVGID_00000093138236799283077650000005388374635857894037_);}
	.st265{clip-path:url(#SVGID_00000077315150972250401940000018214269612134553236_);}
	.st266{clip-path:url(#SVGID_00000152231691207973622390000012279984042611804315_);}
	.st267{clip-path:url(#SVGID_00000082347428379814383540000006299049802498184379_);}
	.st268{clip-path:url(#SVGID_00000156553019695389967040000011029968898026296218_);}
	.st269{clip-path:url(#SVGID_00000079444359912891295390000005431017280211286429_);}
	.st270{clip-path:url(#SVGID_00000143603681969363881580000001888923377073968798_);}
	.st271{clip-path:url(#SVGID_00000011744911731770572970000013567513102427567239_);}
	.st272{clip-path:url(#SVGID_00000109716315658286179790000006470880984370954417_);}
	.st273{clip-path:url(#SVGID_00000065784327253451606850000002434887426410128808_);}
	.st274{clip-path:url(#SVGID_00000116234557051702272880000006517749311291553181_);}
	.st275{clip-path:url(#SVGID_00000008135837303611555730000005573679677402273698_);}
	.st276{clip-path:url(#SVGID_00000082359882080470517550000002843124171158338964_);}
	.st277{clip-path:url(#SVGID_00000074423027594898840520000004737601513676364965_);}
	.st278{clip-path:url(#SVGID_00000016043971959869495770000008746783526460223366_);}
	.st279{clip-path:url(#SVGID_00000037654255499502792840000006386708856790444717_);}
	.st280{clip-path:url(#SVGID_00000106867902144693184250000016192619438513887644_);}
	.st281{clip-path:url(#SVGID_00000074413793911267833890000014977754132367382156_);}
	.st282{clip-path:url(#SVGID_00000068655945994924810430000018446626145813867419_);}
	.st283{clip-path:url(#SVGID_00000181773725261630823870000003461376294007699600_);}
	.st284{clip-path:url(#SVGID_00000013882812928566555780000005355918105538101384_);}
	.st285{clip-path:url(#SVGID_00000132085960560532810030000017417370215133988008_);}
	.st286{clip-path:url(#SVGID_00000160167930323929564770000015687000322389769655_);}
	.st287{clip-path:url(#SVGID_00000115501269410942141450000012488017037693314444_);}
	.st288{clip-path:url(#SVGID_00000133502445661284132970000003574409081717444490_);}
	.st289{clip-path:url(#SVGID_00000098198216481899900910000004047930223308579990_);}
	.st290{clip-path:url(#SVGID_00000060003195377469816970000017810468061537991608_);}
	.st291{clip-path:url(#SVGID_00000005251594008226610000000007252112175066526880_);}
	.st292{clip-path:url(#SVGID_00000119825482626147964990000000507060927230020245_);}
	.st293{clip-path:url(#SVGID_00000023239068369226208510000018374928482952850861_);}
	.st294{clip-path:url(#SVGID_00000035493823433555723700000003916646631582935433_);}
	.st295{clip-path:url(#SVGID_00000093863370885363344240000003532991298781978043_);}
	.st296{clip-path:url(#SVGID_00000070097333211588673780000010813156167952754063_);}
	.st297{clip-path:url(#SVGID_00000130648089575560784550000013035109728619493529_);}
	.st298{clip-path:url(#SVGID_00000085215655815734080220000010212804490994899845_);}
	.st299{clip-path:url(#SVGID_00000082340852499407501330000001695586098951327628_);}
	.st300{clip-path:url(#SVGID_00000147220948295881907210000001081952540264187327_);}
	.st301{clip-path:url(#SVGID_00000165214519550957753080000017026298964982560437_);}
	.st302{clip-path:url(#SVGID_00000051352676317202792010000013152040449890225291_);}
	.st303{clip-path:url(#SVGID_00000067234806833233840040000017162912104214405289_);}
	.st304{clip-path:url(#SVGID_00000042724995290606125020000011324499687262285493_);}
	.st305{clip-path:url(#SVGID_00000121280473728075938190000008699077826282511283_);}
	.st306{clip-path:url(#SVGID_00000093884345576403032130000016403027485761805756_);}
	.st307{clip-path:url(#SVGID_00000005947368380511480270000013922162745607196828_);}
	.st308{clip-path:url(#SVGID_00000103238591952108166540000004672862798097034655_);}
	.st309{clip-path:url(#SVGID_00000008134251858097174130000010458719957845901482_);}
	.st310{clip-path:url(#SVGID_00000024684278825455024940000010935726703965222553_);}
	.st311{clip-path:url(#SVGID_00000030463228407493024350000008314781394751174834_);}
	.st312{clip-path:url(#SVGID_00000121270564657210287560000004482855228795490971_);}
	.st313{clip-path:url(#SVGID_00000038413414188915002590000013230085131636689313_);}
	.st314{clip-path:url(#SVGID_00000154421976163659842220000008911260296085173181_);}
	.st315{clip-path:url(#SVGID_00000146458849795807172140000001054279745985906855_);}
	.st316{clip-path:url(#SVGID_00000146499685845223722570000017772503125161650877_);}
	.st317{clip-path:url(#SVGID_00000048497316354122549810000007352842152052731301_);}
	.st318{clip-path:url(#SVGID_00000132797992521732801430000012250376982069767319_);}
	.st319{clip-path:url(#SVGID_00000024699755196670187390000013376886860801059736_);}
	.st320{clip-path:url(#SVGID_00000153678551382190396140000004154566158996938660_);}
	.st321{clip-path:url(#SVGID_00000072242895446674727870000007231059199478818746_);}
	.st322{clip-path:url(#SVGID_00000065797364145511487010000017278854136409344678_);}
	.st323{clip-path:url(#SVGID_00000139999286984492971450000017867967628672164236_);}
	.st324{clip-path:url(#SVGID_00000179621982615862686660000013957704204663943332_);}
	.st325{clip-path:url(#SVGID_00000016071173960191705440000018273162948971943608_);}
	.st326{clip-path:url(#SVGID_00000035533063607678158250000011644618987176767926_);}
	.st327{clip-path:url(#SVGID_00000000219210989755534770000016339545717230448296_);}
	.st328{clip-path:url(#SVGID_00000025427543605145290100000015917688627429112254_);}
	.st329{clip-path:url(#SVGID_00000179635006032555682940000004560400719374690447_);}
	.st330{clip-path:url(#SVGID_00000158724574657937661050000002554317919991105707_);}
	.st331{clip-path:url(#SVGID_00000136401259046328010300000002557290909360448680_);}
	.st332{clip-path:url(#SVGID_00000025434942971107762530000009940268208099134361_);}
	.st333{clip-path:url(#SVGID_00000096053377800914567500000013887469387168091313_);}
	.st334{clip-path:url(#SVGID_00000016761668671612931350000016060637195942462627_);}
	.st335{clip-path:url(#SVGID_00000089565656122818255440000003026706856873369738_);}
	.st336{clip-path:url(#SVGID_00000103944800351022053660000015582751108516056457_);}
	.st337{clip-path:url(#SVGID_00000137112353235733276050000017083901577651351950_);}
	.st338{clip-path:url(#SVGID_00000149370495968440339450000013514512034600764850_);}
	.st339{clip-path:url(#SVGID_00000049912255551901513950000009518203919811124398_);}
	.st340{clip-path:url(#SVGID_00000042714355861554517610000018349003475216914575_);}
	.st341{clip-path:url(#SVGID_00000003070272726964232120000014745043447733945737_);}
	.st342{clip-path:url(#SVGID_00000057870907443401379430000018189851577723146382_);}
	.st343{clip-path:url(#SVGID_00000080927637068734303590000006969401131771700370_);}
	.st344{clip-path:url(#SVGID_00000127754886832836349120000015250883608693351855_);}
	.st345{clip-path:url(#SVGID_00000061458170224438112160000018404900422266385072_);}
	.st346{clip-path:url(#SVGID_00000116196510300432688860000005249161836445620141_);}
	.st347{clip-path:url(#SVGID_00000091727067970541754940000004748362042376565946_);}
	.st348{clip-path:url(#SVGID_00000117672411370935471050000006232476458563847347_);}
	.st349{clip-path:url(#SVGID_00000103224415439041634280000018116050663918534280_);}
	.st350{clip-path:url(#SVGID_00000101077885957294249830000013503865561966171565_);}
	.st351{clip-path:url(#SVGID_00000144321959251196247200000012022050380771812260_);}
	.st352{clip-path:url(#SVGID_00000004504489258313754680000002399579332916274061_);}
	.st353{clip-path:url(#SVGID_00000160165508149814154290000009962439221954883762_);}
	.st354{clip-path:url(#SVGID_00000181769638974867460860000014305180396270762159_);}
	.st355{clip-path:url(#SVGID_00000074420269569697241200000003162828575124888226_);}
	.st356{clip-path:url(#SVGID_00000054247562344121362110000016630887864460180661_);}
	.st357{clip-path:url(#SVGID_00000020365037468027573830000012648451787823714973_);}
	.st358{clip-path:url(#SVGID_00000021098566149816644190000014046208576613160623_);}
	.st359{clip-path:url(#SVGID_00000179608318038516352340000013254451566326111634_);}
	.st360{clip-path:url(#SVGID_00000057867442890300169250000000397429934747392930_);}
	.st361{clip-path:url(#SVGID_00000098216949842871859250000018337711871690327741_);}
	.st362{clip-path:url(#SVGID_00000092447220529234652530000002561466236681318280_);}
	.st363{clip-path:url(#SVGID_00000056412035021149379850000002519641852323412608_);}
	.st364{clip-path:url(#SVGID_00000130649027815867280220000004231377863736084613_);}
	.st365{clip-path:url(#SVGID_00000172412086326933035660000014806757774090704259_);}
	.st366{clip-path:url(#SVGID_00000124870130397699251520000009509233494909903005_);}
	.st367{clip-path:url(#SVGID_00000061455508059758022880000008554232795196509577_);}
	.st368{clip-path:url(#SVGID_00000163066726437290241210000000016517111819720590_);}
	.st369{clip-path:url(#SVGID_00000073712595935437490290000008284262023974415527_);}
	.st370{clip-path:url(#SVGID_00000166667269344396256810000001205384236618221707_);}
	.st371{clip-path:url(#SVGID_00000180331693518804238920000003441810870200980355_);}
	.st372{clip-path:url(#SVGID_00000158021294396937781340000017604344491422366112_);}
	.st373{clip-path:url(#SVGID_00000175281307652209858300000013634715158574217619_);}
	.st374{clip-path:url(#SVGID_00000109031616405786399370000014165290248059797430_);}
	.st375{clip-path:url(#SVGID_00000047747113915657286020000005940260388320032389_);}
</style>
<g>
	<g>
		<rect x="2.85" y="135.31" class="st0" width="48.54" height="795.77"/>
	</g>
	<g>
		<rect x="1.26" y="2.16" class="st1" width="997.9" height="134.44"/>
	</g>
	<g>
		<defs>
			<rect id="SVGID_00000177466352088452648610000000267775367882950531_" width="1000" height="935.58"/>
		</defs>
		<clipPath id="SVGID_00000039832650010457058820000009086379591790411434_">
			<use xlink:href="#SVGID_00000177466352088452648610000000267775367882950531_"  style="overflow:visible;"/>
		</clipPath>
		<g style="clip-path:url(#SVGID_00000039832650010457058820000009086379591790411434_);">
			<path class="st3" d="M997.19,935.58H1.68c-0.93,0-1.68-0.75-1.68-1.68V1.68C0,0.75,0.75,0,1.68,0h995.51
				c0.93,0,1.68,0.75,1.68,1.68v932.21C998.87,934.83,998.12,935.58,997.19,935.58z M3.37,932.21H995.5V3.37H3.37V932.21z"/>
		</g>
		<g style="clip-path:url(#SVGID_00000039832650010457058820000009086379591790411434_);">
			<rect x="2.06" y="133.63" class="st3" width="997.94" height="3.37"/>
		</g>
		<g style="clip-path:url(#SVGID_00000039832650010457058820000009086379591790411434_);">
			<path class="st4" d="M825.85,68.02h-14.46c0.07-1.69,0.29-2.71,0.88-4.1c1.02-2.27,3.14-3.95,6.36-3.95
				c3.21,0,5.33,1.68,6.36,3.95C825.55,65.31,825.77,66.33,825.85,68.02 M835.2,74.51v-4.23c0-10.45-5.99-18.18-16.58-18.18
				c-9.86,0-16.58,7-16.58,19.43c0,15.41,8.61,19.5,17.6,19.5c6.87,0,10.59-2.12,14.46-5.98l-5.77-5.62
				c-2.41,2.41-4.46,3.58-8.62,3.58c-5.33,0-8.33-3.58-8.33-8.48H835.2z M796.33,60.85v-7.22h-7.01v-4.17c0-2.2,1.02-3.44,3.29-3.44
				h3.73v-8.02h-5.41c-7.74,0-11.1,5.47-11.1,10.88v4.75h-3.94v7.22h3.94v29.73h9.49V60.85H796.33z M766.68,38.29h-9.7v7.73h9.7
				V38.29z M766.6,52.53h-9.49v38.05h9.49V52.53z M737.53,68.02h-14.46c0.07-1.69,0.29-2.71,0.88-4.1c1.02-2.27,3.14-3.95,6.36-3.95
				c3.21,0,5.33,1.68,6.36,3.95C737.24,65.31,737.46,66.33,737.53,68.02 M746.88,74.51v-4.23c0-10.45-5.99-18.18-16.58-18.18
				c-9.86,0-16.58,7-16.58,19.43c0,15.41,8.61,19.5,17.6,19.5c6.87,0,10.59-2.12,14.46-5.98l-5.77-5.62
				c-2.41,2.41-4.46,3.58-8.62,3.58c-5.33,0-8.33-3.58-8.33-8.48H746.88z M711.01,55.66c-2.63-2.63-5.26-3.57-8.98-3.57
				c-4.09,0-7.74,1.89-9.57,4.09v-3.65h-9.27v38.05h9.49V67.64c0-4.82,3.21-7.01,6.14-7.01c2.34,0,3.58,0.8,5.04,2.26L711.01,55.66z
				 M674.12,90.58v-8.02h-3.65c-2.41,0-3.36-1.17-3.36-3.43V38.58h-9.48V79.7c0,5.4,3.28,10.87,11.09,10.87H674.12z M645.86,90.58
				V52.53h-9.48v23.01c0,5.19-3.37,6.94-6.36,6.94c-3,0-6.29-1.75-6.29-6.94V52.53h-9.48v24.32c0,4.16,0.8,7.74,3.87,10.81
				c2.12,2.11,5.18,3.35,8.98,3.35c3.51,0,7.02-1.31,9.51-3.94v3.5H645.86z M602.98,90.58V65.96c0-8.03-4.38-13.87-12.7-13.87
				c-3.36,0-6.57,1.31-9.14,3.94V38.58h-9.49v52h9.49V67.35c0-4.97,3.15-6.72,6.14-6.72c2.99,0,6.21,1.68,6.21,6.72v23.23H602.98z
				 M562.8,85.83l-6.43-6.36c-1.97,2.12-3.65,3-6.14,3c-2.26,0-4.02-0.8-5.41-2.49c-1.46-1.83-2.12-4.46-2.12-8.47
				s0.66-6.58,2.12-8.41c1.39-1.68,3.14-2.48,5.41-2.48c2.48,0,4.16,0.88,6.14,2.99l6.43-6.42c-3.36-3.51-7.3-5.11-12.56-5.11
				c-7.6,0-17.01,4.01-17.01,19.43s9.41,19.5,17.01,19.5C555.49,91.01,559.44,89.33,562.8,85.83 M525.7,78.6
				c0-6.43-3.8-10.45-11.32-11.18l-5.99-0.59c-3.36-0.29-3.94-1.9-3.94-3.29c0-1.9,1.61-3.65,5.41-3.65c3.29,0,6.65,0.58,8.84,2.56
				l5.84-5.91c-3.65-3.43-8.62-4.45-14.54-4.45c-7.74,0-14.68,4.23-14.68,12.11c0,7.02,4.24,10.01,11.1,10.67l5.99,0.58
				c2.99,0.29,4.02,1.61,4.02,3.51c0,2.85-3.43,3.95-6.72,3.95c-2.92,0-7.01-0.44-10.15-3.58l-6.21,6.21
				c4.82,4.82,10.23,5.47,16.22,5.47C518.54,91.01,525.7,87,525.7,78.6 M485.37,90.58V65.96c0-8.03-4.38-13.87-12.7-13.87
				c-3.37,0-6.58,1.31-9.14,3.94V38.58h-9.49v52h9.49V67.35c0-4.97,3.14-6.72,6.14-6.72c3,0,6.21,1.68,6.21,6.72v23.23H485.37z
				 M445.2,85.83l-6.43-6.36c-1.97,2.12-3.65,3-6.14,3c-2.26,0-4.02-0.8-5.41-2.49c-1.46-1.83-2.12-4.46-2.12-8.47
				s0.66-6.58,2.12-8.41c1.39-1.68,3.14-2.48,5.41-2.48c2.48,0,4.16,0.88,6.14,2.99l6.43-6.42c-3.36-3.51-7.3-5.11-12.56-5.11
				c-7.6,0-17.01,4.01-17.01,19.43s9.42,19.5,17.01,19.5C437.89,91.01,441.84,89.33,445.2,85.83 M397.5,71.52
				c0,3.94-0.22,7.3-2.19,9.28c-1.1,1.1-2.56,1.69-4.46,1.69c-1.9,0-3.29-0.58-4.38-1.69c-1.97-1.97-2.19-5.33-2.19-9.28
				s0.22-7.24,2.19-9.21c1.1-1.1,2.48-1.68,4.38-1.68c1.9,0,3.37,0.58,4.46,1.68C397.28,64.28,397.5,67.57,397.5,71.52
				 M406.99,71.52c0-6.87-0.88-11.18-4.31-14.76c-2.33-2.48-6.2-4.67-11.83-4.67c-5.62,0-9.42,2.19-11.76,4.67
				c-3.43,3.57-4.3,7.88-4.3,14.76c0,6.94,0.88,11.26,4.3,14.83c2.34,2.48,6.14,4.67,11.76,4.67c5.63,0,9.5-2.19,11.83-4.67
				C406.12,82.77,406.99,78.46,406.99,71.52 M364.7,90.58V65.96c0-8.03-4.38-13.87-12.7-13.87c-3.36,0-6.58,1.31-9.14,3.94V38.58
				h-9.49v52h9.49V67.35c0-4.97,3.14-6.72,6.14-6.72c2.99,0,6.21,1.68,6.21,6.72v23.23H364.7z M321.67,90.58V65.96
				c0-8.03-4.38-13.87-12.7-13.87c-3.36,0-6.58,1.31-9.14,3.94V38.58h-9.49v52h9.49V67.35c0-4.97,3.14-6.72,6.14-6.72
				c2.99,0,6.21,1.68,6.21,6.72v23.23H321.67z M281.5,85.83l-6.43-6.36c-1.97,2.12-3.65,3-6.14,3c-2.26,0-4.02-0.8-5.41-2.49
				c-1.46-1.83-2.12-4.46-2.12-8.47s0.66-6.58,2.12-8.41c1.39-1.68,3.14-2.48,5.41-2.48c2.48,0,4.16,0.88,6.14,2.99l6.43-6.42
				c-3.36-3.51-7.3-5.11-12.56-5.11c-7.6,0-17.01,4.01-17.01,19.43s9.41,19.5,17.01,19.5C274.19,91.01,278.14,89.33,281.5,85.83
				 M232.64,76.55c0,2.34-0.37,3.88-1.39,4.83c-1.69,1.61-3.37,1.83-6,1.83c-3.73,0-5.48-1.76-5.48-4.39c0-2.71,1.9-4.32,5.34-4.32
				h7.53V76.55z M242.12,90.58V65.53c0-8.91-5.55-13.44-16.21-13.44c-6.36,0-10.01,1.16-13.73,5.25l6.06,5.92
				c1.97-2.27,3.65-3.15,7.31-3.15c5.04,0,7.09,1.83,7.09,6v1.9h-8.99c-8.84,0-13,4.96-13,11.02c0,3.36,1.1,6.43,3.14,8.55
				c2.26,2.26,5.4,3.35,9.72,3.35c4.38,0,6.79-1.1,9.36-3.65v3.28H242.12z M206.18,47.62v-9.05h-34.25v52h10.14V69.47h20.53v-9.05
				h-20.53V47.62H206.18z"/>
		</g>
		<g style="clip-path:url(#SVGID_00000039832650010457058820000009086379591790411434_);">
			<rect x="3.09" y="464.7" class="st3" width="992.7" height="3.37"/>
		</g>
		<g style="clip-path:url(#SVGID_00000039832650010457058820000009086379591790411434_);">
			<rect x="3.09" y="347.82" class="st3" width="992.7" height="3.37"/>
		</g>
		<g style="clip-path:url(#SVGID_00000039832650010457058820000009086379591790411434_);">
			<rect x="3.09" y="236.56" class="st3" width="992.7" height="3.37"/>
		</g>
		<g style="clip-path:url(#SVGID_00000039832650010457058820000009086379591790411434_);">
			<rect x="3.09" y="578.77" class="st3" width="992.7" height="3.37"/>
		</g>
		<g style="clip-path:url(#SVGID_00000039832650010457058820000009086379591790411434_);">
			<rect x="3.09" y="701.26" class="st3" width="992.7" height="3.37"/>
		</g>
		<g style="clip-path:url(#SVGID_00000039832650010457058820000009086379591790411434_);">
			<rect x="3.09" y="818.14" class="st3" width="992.7" height="3.37"/>
		</g>
		<g style="clip-path:url(#SVGID_00000039832650010457058820000009086379591790411434_);">
			<path class="st3" d="M720.97,777.01c0,4.06-2.4,6.62-5.82,6.62c-3.42,0-5.77-2.57-5.77-6.62c0-4.11,2.35-6.57,5.77-6.57
				C718.78,770.44,720.97,773.27,720.97,777.01 M726.41,776.9c0-6.68-4.48-10.99-9.98-10.99c-1.17,0-2.35,0.16-3.37,0.58l8.17-16.33
				h-5.82l-8.65,17.62c-1.65,3.3-2.83,6.24-2.83,9.34c0,7.05,4.69,11.37,11.26,11.37C721.77,788.48,726.41,783.9,726.41,776.9
				 M678.8,772.42h-12.17c0.05-1.66,0.16-2.46,0.69-3.69c0.85-2.03,2.83-3.42,5.39-3.42c2.56,0,4.48,1.39,5.34,3.42
				C678.58,769.96,678.74,770.76,678.8,772.42 M684.18,776.2v-2.4c0-7.69-4.21-13.02-11.47-13.02c-6.94,0-11.47,5.06-11.47,13.82
				c0,10.3,5.39,13.87,12.17,13.87c4.75,0,7.37-1.44,10.14-4.21l-3.47-3.26c-1.92,1.92-3.52,2.78-6.57,2.78
				c-4.43,0-6.88-2.94-6.88-7.59H684.18z M655.47,779.89c0-4.8-2.99-7.21-8.06-7.64l-4.27-0.37c-2.88-0.27-3.74-1.49-3.74-3.1
				c0-2.03,1.66-3.47,4.91-3.47c2.56,0,4.97,0.53,6.68,1.98l3.42-3.47c-2.51-2.19-5.98-3.03-10.04-3.03c-5.66,0-10.2,2.98-10.2,8.27
				c0,4.75,2.94,7.05,8.01,7.48l4.33,0.37c2.61,0.21,3.63,1.39,3.63,3.2c0,2.57-2.62,3.74-5.93,3.74c-2.67,0-5.6-0.59-7.79-2.83
				l-3.57,3.58c3.2,3.14,6.94,3.89,11.37,3.89C650.67,788.48,655.47,785.55,655.47,779.89 M628.62,779.89c0-4.8-2.99-7.21-8.06-7.64
				l-4.27-0.37c-2.88-0.27-3.74-1.49-3.74-3.1c0-2.03,1.65-3.47,4.91-3.47c2.56,0,4.96,0.53,6.67,1.98l3.42-3.47
				c-2.51-2.19-5.98-3.03-10.04-3.03c-5.66,0-10.19,2.98-10.19,8.27c0,4.75,2.93,7.05,8.01,7.48l4.32,0.37
				c2.62,0.21,3.63,1.39,3.63,3.2c0,2.57-2.61,3.74-5.92,3.74c-2.67,0-5.61-0.59-7.79-2.83l-3.58,3.58
				c3.2,3.14,6.94,3.89,11.37,3.89C623.81,788.48,628.62,785.55,628.62,779.89 M594.25,778.4c0,1.92-0.37,3.2-1.17,4.01
				c-1.44,1.39-2.99,1.55-5.07,1.55c-3.42,0-4.97-1.39-4.97-3.85c0-2.46,1.66-3.9,4.86-3.9h6.36V778.4z M599.68,788.16v-18.09
				c0-6.14-3.73-9.28-11.15-9.28c-4.49,0-7.15,0.9-9.72,3.89l3.57,3.37c1.49-1.92,2.94-2.62,5.93-2.62c4.22,0,5.93,1.66,5.93,5.07
				v1.93h-7.16c-6.19,0-9.33,3.25-9.33,7.79c0,2.3,0.74,4.38,2.13,5.82c1.65,1.65,3.89,2.45,7.26,2.45s5.23-0.8,7.21-2.77v2.45
				H599.68z M573.26,788.16v-4.64h-2.4c-2.19,0-2.94-1.07-2.94-3.15v-30.21h-5.43v30.53c0,4,2.24,7.47,7.41,7.47H573.26z
				 M555.06,776.79h-5.82c-0.91,3.85-3.52,6.52-7.74,6.52c-2.24,0-4.27-0.85-5.6-2.3c-1.87-2.03-2.3-4.22-2.3-11.85
				c0-7.64,0.43-9.83,2.3-11.86c1.33-1.44,3.36-2.29,5.6-2.29c4.22,0,6.78,2.67,7.69,6.51h5.87c-1.33-7.58-6.56-11.69-13.56-11.69
				c-3.95,0-7.37,1.44-9.98,4.05c-3.73,3.74-3.68,7.96-3.68,15.27c0,7.31-0.05,11.53,3.68,15.27c2.61,2.61,6.03,4.05,9.98,4.05
				C548.39,788.48,553.78,784.37,555.06,776.79 M510.54,746.21h-5.23l-15.22,45.9h5.23L510.54,746.21z M467.79,777.01
				c0,4.06-2.4,6.62-5.82,6.62s-5.77-2.57-5.77-6.62c0-4.11,2.35-6.57,5.77-6.57C465.6,770.44,467.79,773.27,467.79,777.01
				 M473.23,776.9c0-6.68-4.48-10.99-9.98-10.99c-1.17,0-2.35,0.16-3.37,0.58l8.18-16.33h-5.82l-8.65,17.62
				c-1.66,3.3-2.83,6.24-2.83,9.34c0,7.05,4.69,11.37,11.26,11.37C468.59,788.48,473.23,783.9,473.23,776.9 M425.61,772.42h-12.17
				c0.06-1.66,0.16-2.46,0.7-3.69c0.85-2.03,2.83-3.42,5.39-3.42c2.56,0,4.48,1.39,5.34,3.42
				C425.4,769.96,425.56,770.76,425.61,772.42 M431.01,776.2v-2.4c0-7.69-4.22-13.02-11.48-13.02c-6.94,0-11.47,5.06-11.47,13.82
				c0,10.3,5.38,13.87,12.17,13.87c4.75,0,7.37-1.44,10.14-4.21l-3.47-3.26c-1.92,1.92-3.52,2.78-6.56,2.78
				c-4.43,0-6.89-2.94-6.89-7.59H431.01z M402.29,779.89c0-4.8-2.99-7.21-8.06-7.64l-4.27-0.37c-2.88-0.27-3.74-1.49-3.74-3.1
				c0-2.03,1.65-3.47,4.91-3.47c2.56,0,4.96,0.53,6.67,1.98l3.42-3.47c-2.51-2.19-5.98-3.03-10.04-3.03
				c-5.66,0-10.19,2.98-10.19,8.27c0,4.75,2.93,7.05,8.01,7.48l4.32,0.37c2.62,0.21,3.63,1.39,3.63,3.2c0,2.57-2.61,3.74-5.92,3.74
				c-2.67,0-5.61-0.59-7.79-2.83l-3.58,3.58c3.2,3.14,6.94,3.89,11.37,3.89C397.48,788.48,402.29,785.55,402.29,779.89
				 M375.44,779.89c0-4.8-2.99-7.21-8.06-7.64l-4.27-0.37c-2.88-0.27-3.74-1.49-3.74-3.1c0-2.03,1.66-3.47,4.91-3.47
				c2.56,0,4.97,0.53,6.68,1.98l3.42-3.47c-2.51-2.19-5.98-3.03-10.04-3.03c-5.66,0-10.2,2.98-10.2,8.27c0,4.75,2.94,7.05,8.01,7.48
				l4.33,0.37c2.61,0.21,3.63,1.39,3.63,3.2c0,2.57-2.62,3.74-5.93,3.74c-2.67,0-5.6-0.59-7.79-2.83l-3.57,3.58
				c3.2,3.14,6.94,3.89,11.37,3.89C370.63,788.48,375.44,785.55,375.44,779.89 M341.06,778.4c0,1.92-0.37,3.2-1.17,4.01
				c-1.44,1.39-2.99,1.55-5.07,1.55c-3.42,0-4.97-1.39-4.97-3.85c0-2.46,1.66-3.9,4.86-3.9h6.36V778.4z M346.5,788.16v-18.09
				c0-6.14-3.73-9.28-11.15-9.28c-4.48,0-7.15,0.9-9.71,3.89l3.57,3.37c1.49-1.92,2.94-2.62,5.93-2.62c4.22,0,5.93,1.66,5.93,5.07
				v1.93h-7.15c-6.19,0-9.34,3.25-9.34,7.79c0,2.3,0.75,4.38,2.14,5.82c1.65,1.65,3.89,2.45,7.25,2.45c3.37,0,5.24-0.8,7.21-2.77
				v2.45H346.5z M320.08,788.16v-4.64h-2.4c-2.19,0-2.93-1.07-2.93-3.15v-30.21h-5.44v30.53c0,4,2.24,7.47,7.41,7.47H320.08z
				 M304.06,788.16l-13.62-23.11l12.33-14.89h-7.05l-15.54,19.11v-19.11h-5.75v38h5.75v-11.05l6.41-7.69l10.68,18.73H304.06z"/>
		</g>
		<g style="clip-path:url(#SVGID_00000039832650010457058820000009086379591790411434_);">
			<path class="st3" d="M726.95,632.52v-4.85h-22.63v10.83h5.23v-5.98h11.59l-12.76,33.15h5.87L726.95,632.52z M678.8,649.93h-12.17
				c0.05-1.66,0.16-2.46,0.69-3.69c0.85-2.03,2.83-3.42,5.39-3.42c2.56,0,4.48,1.39,5.34,3.42
				C678.58,647.46,678.74,648.27,678.8,649.93 M684.18,653.71v-2.4c0-7.69-4.21-13.02-11.47-13.02c-6.94,0-11.47,5.06-11.47,13.82
				c0,10.3,5.39,13.87,12.17,13.87c4.75,0,7.37-1.44,10.14-4.21l-3.47-3.26c-1.92,1.92-3.52,2.78-6.57,2.78
				c-4.43,0-6.88-2.94-6.88-7.59H684.18z M655.47,657.39c0-4.8-2.99-7.21-8.06-7.64l-4.27-0.37c-2.88-0.27-3.74-1.49-3.74-3.1
				c0-2.03,1.66-3.47,4.91-3.47c2.56,0,4.97,0.53,6.68,1.98l3.42-3.47c-2.51-2.19-5.98-3.03-10.04-3.03c-5.66,0-10.2,2.98-10.2,8.27
				c0,4.75,2.94,7.05,8.01,7.48l4.33,0.37c2.61,0.21,3.63,1.39,3.63,3.2c0,2.57-2.62,3.74-5.93,3.74c-2.67,0-5.6-0.59-7.79-2.83
				l-3.57,3.58c3.2,3.14,6.94,3.89,11.37,3.89C650.67,665.99,655.47,663.05,655.47,657.39 M628.62,657.39c0-4.8-2.99-7.21-8.06-7.64
				l-4.27-0.37c-2.88-0.27-3.74-1.49-3.74-3.1c0-2.03,1.65-3.47,4.91-3.47c2.56,0,4.96,0.53,6.67,1.98l3.42-3.47
				c-2.51-2.19-5.98-3.03-10.04-3.03c-5.66,0-10.19,2.98-10.19,8.27c0,4.75,2.93,7.05,8.01,7.48l4.32,0.37
				c2.62,0.21,3.63,1.39,3.63,3.2c0,2.57-2.61,3.74-5.92,3.74c-2.67,0-5.61-0.59-7.79-2.83l-3.58,3.58
				c3.2,3.14,6.94,3.89,11.37,3.89C623.81,665.99,628.62,663.05,628.62,657.39 M594.25,655.9c0,1.92-0.37,3.2-1.17,4.01
				c-1.44,1.39-2.99,1.55-5.07,1.55c-3.42,0-4.97-1.39-4.97-3.85c0-2.46,1.66-3.9,4.86-3.9h6.36V655.9z M599.68,665.67v-18.09
				c0-6.14-3.73-9.28-11.15-9.28c-4.49,0-7.15,0.9-9.72,3.89l3.57,3.37c1.49-1.92,2.94-2.62,5.93-2.62c4.22,0,5.93,1.66,5.93,5.07
				v1.93h-7.16c-6.19,0-9.33,3.25-9.33,7.79c0,2.3,0.74,4.38,2.13,5.82c1.65,1.65,3.89,2.45,7.26,2.45s5.23-0.8,7.21-2.77v2.45
				H599.68z M573.26,665.67v-4.64h-2.4c-2.19,0-2.94-1.07-2.94-3.15v-30.21h-5.43v30.53c0,4,2.24,7.47,7.41,7.47H573.26z
				 M555.06,654.3h-5.82c-0.91,3.85-3.52,6.52-7.74,6.52c-2.24,0-4.27-0.85-5.6-2.3c-1.87-2.03-2.3-4.22-2.3-11.85
				c0-7.64,0.43-9.83,2.3-11.86c1.33-1.44,3.36-2.29,5.6-2.29c4.22,0,6.78,2.67,7.69,6.51h5.87c-1.33-7.58-6.56-11.69-13.56-11.69
				c-3.95,0-7.37,1.44-9.98,4.05c-3.73,3.74-3.68,7.96-3.68,15.27c0,7.31-0.05,11.53,3.68,15.27c2.61,2.61,6.03,4.05,9.98,4.05
				C548.39,665.99,553.78,661.88,555.06,654.3 M510.54,623.71h-5.23l-15.22,45.9h5.23L510.54,623.71z M473.77,632.52v-4.85h-22.63
				v10.83h5.23v-5.98h11.58l-12.76,33.15h5.87L473.77,632.52z M425.61,649.93h-12.17c0.06-1.66,0.16-2.46,0.7-3.69
				c0.85-2.03,2.83-3.42,5.39-3.42c2.56,0,4.48,1.39,5.34,3.42C425.4,647.46,425.56,648.27,425.61,649.93 M431.01,653.71v-2.4
				c0-7.69-4.22-13.02-11.48-13.02c-6.94,0-11.47,5.06-11.47,13.82c0,10.3,5.38,13.87,12.17,13.87c4.75,0,7.37-1.44,10.14-4.21
				l-3.47-3.26c-1.92,1.92-3.52,2.78-6.56,2.78c-4.43,0-6.89-2.94-6.89-7.59H431.01z M402.29,657.39c0-4.8-2.99-7.21-8.06-7.64
				l-4.27-0.37c-2.88-0.27-3.74-1.49-3.74-3.1c0-2.03,1.65-3.47,4.91-3.47c2.56,0,4.96,0.53,6.67,1.98l3.42-3.47
				c-2.51-2.19-5.98-3.03-10.04-3.03c-5.66,0-10.19,2.98-10.19,8.27c0,4.75,2.93,7.05,8.01,7.48l4.32,0.37
				c2.62,0.21,3.63,1.39,3.63,3.2c0,2.57-2.61,3.74-5.92,3.74c-2.67,0-5.61-0.59-7.79-2.83l-3.58,3.58
				c3.2,3.14,6.94,3.89,11.37,3.89C397.48,665.99,402.29,663.05,402.29,657.39 M375.44,657.39c0-4.8-2.99-7.21-8.06-7.64l-4.27-0.37
				c-2.88-0.27-3.74-1.49-3.74-3.1c0-2.03,1.66-3.47,4.91-3.47c2.56,0,4.97,0.53,6.68,1.98l3.42-3.47
				c-2.51-2.19-5.98-3.03-10.04-3.03c-5.66,0-10.2,2.98-10.2,8.27c0,4.75,2.94,7.05,8.01,7.48l4.33,0.37
				c2.61,0.21,3.63,1.39,3.63,3.2c0,2.57-2.62,3.74-5.93,3.74c-2.67,0-5.6-0.59-7.79-2.83l-3.57,3.58c3.2,3.14,6.94,3.89,11.37,3.89
				C370.63,665.99,375.44,663.05,375.44,657.39 M341.06,655.9c0,1.92-0.37,3.2-1.17,4.01c-1.44,1.39-2.99,1.55-5.07,1.55
				c-3.42,0-4.97-1.39-4.97-3.85c0-2.46,1.66-3.9,4.86-3.9h6.36V655.9z M346.5,665.67v-18.09c0-6.14-3.73-9.28-11.15-9.28
				c-4.48,0-7.15,0.9-9.71,3.89l3.57,3.37c1.49-1.92,2.94-2.62,5.93-2.62c4.22,0,5.93,1.66,5.93,5.07v1.93h-7.15
				c-6.19,0-9.34,3.25-9.34,7.79c0,2.3,0.75,4.38,2.14,5.82c1.65,1.65,3.89,2.45,7.25,2.45c3.37,0,5.24-0.8,7.21-2.77v2.45H346.5z
				 M320.08,665.67v-4.64h-2.4c-2.19,0-2.93-1.07-2.93-3.15v-30.21h-5.44v30.53c0,4,2.24,7.47,7.41,7.47H320.08z M304.06,665.67
				l-13.62-23.11l12.33-14.89h-7.05l-15.54,19.11v-19.11h-5.75v38h5.75v-11.05l6.41-7.69l10.68,18.73H304.06z"/>
		</g>
		<g style="clip-path:url(#SVGID_00000039832650010457058820000009086379591790411434_);">
			<path class="st3" d="M720.81,521.14c0,3.36-2.35,5.77-5.66,5.77c-3.32,0-5.61-2.41-5.61-5.77c0-3.32,2.29-5.82,5.61-5.82
				C718.46,515.32,720.81,517.83,720.81,521.14 M721.4,537.95c0,3.52-2.73,6.3-6.25,6.3c-3.53,0-6.25-2.78-6.25-6.3
				c0-3.52,2.72-6.36,6.25-6.36C718.67,531.6,721.4,534.43,721.4,537.95 M726.89,538.06c0-4.54-2.56-7.32-5.23-8.91
				c2.46-1.49,4.59-4.16,4.59-8.17c0-6.36-4.91-10.51-11.1-10.51c-6.2,0-11.05,4.16-11.05,10.51c0,4.01,2.13,6.68,4.59,8.17
				c-2.67,1.6-5.23,4.37-5.23,8.91c0,6.89,5.17,11.05,11.69,11.05C721.66,549.11,726.89,544.95,726.89,538.06 M678.8,533.05h-12.17
				c0.05-1.66,0.16-2.46,0.69-3.69c0.85-2.03,2.83-3.42,5.39-3.42c2.56,0,4.48,1.39,5.34,3.42
				C678.58,530.59,678.74,531.39,678.8,533.05 M684.18,536.83v-2.4c0-7.69-4.21-13.02-11.47-13.02c-6.94,0-11.47,5.06-11.47,13.82
				c0,10.3,5.39,13.87,12.17,13.87c4.75,0,7.37-1.44,10.14-4.21l-3.47-3.26c-1.92,1.92-3.52,2.78-6.57,2.78
				c-4.43,0-6.88-2.94-6.88-7.59H684.18z M655.47,540.52c0-4.8-2.99-7.21-8.06-7.64l-4.27-0.37c-2.88-0.27-3.74-1.49-3.74-3.1
				c0-2.03,1.66-3.47,4.91-3.47c2.56,0,4.97,0.53,6.68,1.98l3.42-3.47c-2.51-2.19-5.98-3.03-10.04-3.03c-5.66,0-10.2,2.98-10.2,8.27
				c0,4.75,2.94,7.05,8.01,7.48l4.33,0.37c2.61,0.21,3.63,1.39,3.63,3.2c0,2.57-2.62,3.74-5.93,3.74c-2.67,0-5.6-0.59-7.79-2.83
				l-3.57,3.58c3.2,3.14,6.94,3.89,11.37,3.89C650.67,549.11,655.47,546.18,655.47,540.52 M628.62,540.52c0-4.8-2.99-7.21-8.06-7.64
				l-4.27-0.37c-2.88-0.27-3.74-1.49-3.74-3.1c0-2.03,1.65-3.47,4.91-3.47c2.56,0,4.96,0.53,6.67,1.98l3.42-3.47
				c-2.51-2.19-5.98-3.03-10.04-3.03c-5.66,0-10.19,2.98-10.19,8.27c0,4.75,2.93,7.05,8.01,7.48l4.32,0.37
				c2.62,0.21,3.63,1.39,3.63,3.2c0,2.57-2.61,3.74-5.92,3.74c-2.67,0-5.61-0.59-7.79-2.83l-3.58,3.58
				c3.2,3.14,6.94,3.89,11.37,3.89C623.81,549.11,628.62,546.18,628.62,540.52 M594.25,539.02c0,1.92-0.37,3.2-1.17,4.01
				c-1.44,1.39-2.99,1.55-5.07,1.55c-3.42,0-4.97-1.39-4.97-3.85c0-2.46,1.66-3.9,4.86-3.9h6.36V539.02z M599.68,548.79v-18.09
				c0-6.14-3.73-9.28-11.15-9.28c-4.49,0-7.15,0.9-9.72,3.89l3.57,3.37c1.49-1.92,2.94-2.62,5.93-2.62c4.22,0,5.93,1.66,5.93,5.07
				v1.93h-7.16c-6.19,0-9.33,3.25-9.33,7.79c0,2.3,0.74,4.38,2.13,5.82c1.65,1.65,3.89,2.45,7.26,2.45s5.23-0.8,7.21-2.77v2.45
				H599.68z M573.26,548.79v-4.64h-2.4c-2.19,0-2.94-1.07-2.94-3.15v-30.21h-5.43v30.53c0,4,2.24,7.47,7.41,7.47H573.26z
				 M555.06,537.42h-5.82c-0.91,3.85-3.52,6.52-7.74,6.52c-2.24,0-4.27-0.85-5.6-2.3c-1.87-2.03-2.3-4.22-2.3-11.85
				c0-7.64,0.43-9.83,2.3-11.86c1.33-1.44,3.36-2.29,5.6-2.29c4.22,0,6.78,2.67,7.69,6.51h5.87c-1.33-7.58-6.56-11.69-13.56-11.69
				c-3.95,0-7.37,1.44-9.98,4.05c-3.73,3.74-3.68,7.96-3.68,15.27c0,7.31-0.05,11.53,3.68,15.27c2.61,2.61,6.03,4.05,9.98,4.05
				C548.39,549.11,553.78,545,555.06,537.42 M510.54,506.84h-5.23l-15.22,45.9h5.23L510.54,506.84z M467.63,521.14
				c0,3.36-2.35,5.77-5.66,5.77c-3.31,0-5.61-2.41-5.61-5.77c0-3.32,2.3-5.82,5.61-5.82C465.28,515.32,467.63,517.83,467.63,521.14
				 M468.22,537.95c0,3.52-2.73,6.3-6.25,6.3s-6.25-2.78-6.25-6.3c0-3.52,2.73-6.36,6.25-6.36S468.22,534.43,468.22,537.95
				 M473.7,538.06c0-4.54-2.56-7.32-5.22-8.91c2.45-1.49,4.59-4.16,4.59-8.17c0-6.36-4.91-10.51-11.1-10.51
				c-6.19,0-11.05,4.16-11.05,10.51c0,4.01,2.14,6.68,4.59,8.17c-2.66,1.6-5.23,4.37-5.23,8.91c0,6.89,5.18,11.05,11.69,11.05
				C468.48,549.11,473.7,544.95,473.7,538.06 M425.61,533.05h-12.17c0.06-1.66,0.16-2.46,0.7-3.69c0.85-2.03,2.83-3.42,5.39-3.42
				c2.56,0,4.48,1.39,5.34,3.42C425.4,530.59,425.56,531.39,425.61,533.05 M431.01,536.83v-2.4c0-7.69-4.22-13.02-11.48-13.02
				c-6.94,0-11.47,5.06-11.47,13.82c0,10.3,5.38,13.87,12.17,13.87c4.75,0,7.37-1.44,10.14-4.21l-3.47-3.26
				c-1.92,1.92-3.52,2.78-6.56,2.78c-4.43,0-6.89-2.94-6.89-7.59H431.01z M402.29,540.52c0-4.8-2.99-7.21-8.06-7.64l-4.27-0.37
				c-2.88-0.27-3.74-1.49-3.74-3.1c0-2.03,1.65-3.47,4.91-3.47c2.56,0,4.96,0.53,6.67,1.98l3.42-3.47
				c-2.51-2.19-5.98-3.03-10.04-3.03c-5.66,0-10.19,2.98-10.19,8.27c0,4.75,2.93,7.05,8.01,7.48l4.32,0.37
				c2.62,0.21,3.63,1.39,3.63,3.2c0,2.57-2.61,3.74-5.92,3.74c-2.67,0-5.61-0.59-7.79-2.83l-3.58,3.58
				c3.2,3.14,6.94,3.89,11.37,3.89C397.48,549.11,402.29,546.18,402.29,540.52 M375.44,540.52c0-4.8-2.99-7.21-8.06-7.64l-4.27-0.37
				c-2.88-0.27-3.74-1.49-3.74-3.1c0-2.03,1.66-3.47,4.91-3.47c2.56,0,4.97,0.53,6.68,1.98l3.42-3.47
				c-2.51-2.19-5.98-3.03-10.04-3.03c-5.66,0-10.2,2.98-10.2,8.27c0,4.75,2.94,7.05,8.01,7.48l4.33,0.37
				c2.61,0.21,3.63,1.39,3.63,3.2c0,2.57-2.62,3.74-5.93,3.74c-2.67,0-5.6-0.59-7.79-2.83l-3.57,3.58c3.2,3.14,6.94,3.89,11.37,3.89
				C370.63,549.11,375.44,546.18,375.44,540.52 M341.06,539.02c0,1.92-0.37,3.2-1.17,4.01c-1.44,1.39-2.99,1.55-5.07,1.55
				c-3.42,0-4.97-1.39-4.97-3.85c0-2.46,1.66-3.9,4.86-3.9h6.36V539.02z M346.5,548.79v-18.09c0-6.14-3.73-9.28-11.15-9.28
				c-4.48,0-7.15,0.9-9.71,3.89l3.57,3.37c1.49-1.92,2.94-2.62,5.93-2.62c4.22,0,5.93,1.66,5.93,5.07v1.93h-7.15
				c-6.19,0-9.34,3.25-9.34,7.79c0,2.3,0.75,4.38,2.14,5.82c1.65,1.65,3.89,2.45,7.25,2.45c3.37,0,5.24-0.8,7.21-2.77v2.45H346.5z
				 M320.08,548.79v-4.64h-2.4c-2.19,0-2.93-1.07-2.93-3.15v-30.21h-5.44v30.53c0,4,2.24,7.47,7.41,7.47H320.08z M304.06,548.79
				l-13.62-23.11l12.33-14.89h-7.05L280.2,529.9v-19.11h-5.75v38h5.75v-11.05l6.41-7.69l10.68,18.73H304.06z"/>
		</g>
		<g style="clip-path:url(#SVGID_00000039832650010457058820000009086379591790411434_);">
			<path class="st3" d="M720.97,405.06c0,4.11-2.4,6.57-5.82,6.57c-3.64,0-5.77-2.83-5.77-6.57c0-4.06,2.35-6.62,5.77-6.62
				C718.57,398.44,720.97,401.01,720.97,405.06 M726.41,404.96c0-7.05-4.69-11.37-11.26-11.37s-11.21,4.59-11.21,11.58
				c0,6.68,4.43,11,9.92,11c1.18,0,2.4-0.16,3.42-0.59l-8.17,16.33h5.82l8.65-17.62C725.24,410.99,726.41,408.05,726.41,404.96
				 M678.8,416.17h-12.17c0.05-1.66,0.16-2.46,0.69-3.69c0.85-2.03,2.83-3.42,5.39-3.42c2.56,0,4.48,1.39,5.34,3.42
				C678.58,413.71,678.74,414.51,678.8,416.17 M684.18,419.95v-2.4c0-7.69-4.21-13.02-11.47-13.02c-6.94,0-11.47,5.06-11.47,13.82
				c0,10.3,5.39,13.87,12.17,13.87c4.75,0,7.37-1.44,10.14-4.21l-3.47-3.26c-1.92,1.92-3.52,2.78-6.57,2.78
				c-4.43,0-6.88-2.94-6.88-7.59H684.18z M655.47,423.64c0-4.8-2.99-7.21-8.06-7.64l-4.27-0.37c-2.88-0.27-3.74-1.49-3.74-3.1
				c0-2.03,1.66-3.47,4.91-3.47c2.56,0,4.97,0.53,6.68,1.98l3.42-3.47c-2.51-2.19-5.98-3.03-10.04-3.03c-5.66,0-10.2,2.98-10.2,8.27
				c0,4.75,2.94,7.05,8.01,7.48l4.33,0.37c2.61,0.21,3.63,1.39,3.63,3.2c0,2.57-2.62,3.74-5.93,3.74c-2.67,0-5.6-0.59-7.79-2.83
				l-3.57,3.58c3.2,3.14,6.94,3.89,11.37,3.89C650.67,432.23,655.47,429.3,655.47,423.64 M628.62,423.64c0-4.8-2.99-7.21-8.06-7.64
				l-4.27-0.37c-2.88-0.27-3.74-1.49-3.74-3.1c0-2.03,1.65-3.47,4.91-3.47c2.56,0,4.96,0.53,6.67,1.98l3.42-3.47
				c-2.51-2.19-5.98-3.03-10.04-3.03c-5.66,0-10.19,2.98-10.19,8.27c0,4.75,2.93,7.05,8.01,7.48l4.32,0.37
				c2.62,0.21,3.63,1.39,3.63,3.2c0,2.57-2.61,3.74-5.92,3.74c-2.67,0-5.61-0.59-7.79-2.83l-3.58,3.58
				c3.2,3.14,6.94,3.89,11.37,3.89C623.81,432.23,628.62,429.3,628.62,423.64 M594.25,422.15c0,1.92-0.37,3.2-1.17,4.01
				c-1.44,1.39-2.99,1.55-5.07,1.55c-3.42,0-4.97-1.39-4.97-3.85c0-2.46,1.66-3.9,4.86-3.9h6.36V422.15z M599.68,431.91v-18.09
				c0-6.14-3.73-9.28-11.15-9.28c-4.49,0-7.15,0.9-9.72,3.89l3.57,3.37c1.49-1.92,2.94-2.62,5.93-2.62c4.22,0,5.93,1.66,5.93,5.07
				v1.93h-7.16c-6.19,0-9.33,3.25-9.33,7.79c0,2.3,0.74,4.38,2.13,5.82c1.65,1.65,3.89,2.45,7.26,2.45s5.23-0.8,7.21-2.77v2.45
				H599.68z M573.26,431.91v-4.64h-2.4c-2.19,0-2.94-1.07-2.94-3.15v-30.21h-5.43v30.53c0,4,2.24,7.47,7.41,7.47H573.26z
				 M555.06,420.54h-5.82c-0.91,3.85-3.52,6.52-7.74,6.52c-2.24,0-4.27-0.85-5.6-2.3c-1.87-2.03-2.3-4.22-2.3-11.85
				c0-7.64,0.43-9.83,2.3-11.86c1.33-1.44,3.36-2.29,5.6-2.29c4.22,0,6.78,2.67,7.69,6.51h5.87c-1.33-7.58-6.56-11.69-13.56-11.69
				c-3.95,0-7.37,1.44-9.98,4.05c-3.73,3.74-3.68,7.96-3.68,15.27c0,7.31-0.05,11.53,3.68,15.27c2.61,2.61,6.03,4.05,9.98,4.05
				C548.39,432.23,553.78,428.12,555.06,420.54 M510.54,389.96h-5.23l-15.22,45.9h5.23L510.54,389.96z M467.79,405.06
				c0,4.11-2.4,6.57-5.82,6.57c-3.63,0-5.77-2.83-5.77-6.57c0-4.06,2.35-6.62,5.77-6.62S467.79,401.01,467.79,405.06 M473.23,404.96
				c0-7.05-4.69-11.37-11.26-11.37c-6.57,0-11.2,4.59-11.2,11.58c0,6.68,4.42,11,9.92,11c1.17,0,2.4-0.16,3.42-0.59l-8.17,16.33
				h5.82l8.65-17.62C472.05,410.99,473.23,408.05,473.23,404.96 M425.61,416.17h-12.17c0.06-1.66,0.16-2.46,0.7-3.69
				c0.85-2.03,2.83-3.42,5.39-3.42c2.56,0,4.48,1.39,5.34,3.42C425.4,413.71,425.56,414.51,425.61,416.17 M431.01,419.95v-2.4
				c0-7.69-4.22-13.02-11.48-13.02c-6.94,0-11.47,5.06-11.47,13.82c0,10.3,5.38,13.87,12.17,13.87c4.75,0,7.37-1.44,10.14-4.21
				l-3.47-3.26c-1.92,1.92-3.52,2.78-6.56,2.78c-4.43,0-6.89-2.94-6.89-7.59H431.01z M402.29,423.64c0-4.8-2.99-7.21-8.06-7.64
				l-4.27-0.37c-2.88-0.27-3.74-1.49-3.74-3.1c0-2.03,1.65-3.47,4.91-3.47c2.56,0,4.96,0.53,6.67,1.98l3.42-3.47
				c-2.51-2.19-5.98-3.03-10.04-3.03c-5.66,0-10.19,2.98-10.19,8.27c0,4.75,2.93,7.05,8.01,7.48l4.32,0.37
				c2.62,0.21,3.63,1.39,3.63,3.2c0,2.57-2.61,3.74-5.92,3.74c-2.67,0-5.61-0.59-7.79-2.83l-3.58,3.58
				c3.2,3.14,6.94,3.89,11.37,3.89C397.48,432.23,402.29,429.3,402.29,423.64 M375.44,423.64c0-4.8-2.99-7.21-8.06-7.64l-4.27-0.37
				c-2.88-0.27-3.74-1.49-3.74-3.1c0-2.03,1.66-3.47,4.91-3.47c2.56,0,4.97,0.53,6.68,1.98l3.42-3.47
				c-2.51-2.19-5.98-3.03-10.04-3.03c-5.66,0-10.2,2.98-10.2,8.27c0,4.75,2.94,7.05,8.01,7.48l4.33,0.37
				c2.61,0.21,3.63,1.39,3.63,3.2c0,2.57-2.62,3.74-5.93,3.74c-2.67,0-5.6-0.59-7.79-2.83l-3.57,3.58c3.2,3.14,6.94,3.89,11.37,3.89
				C370.63,432.23,375.44,429.3,375.44,423.64 M341.06,422.15c0,1.92-0.37,3.2-1.17,4.01c-1.44,1.39-2.99,1.55-5.07,1.55
				c-3.42,0-4.97-1.39-4.97-3.85c0-2.46,1.66-3.9,4.86-3.9h6.36V422.15z M346.5,431.91v-18.09c0-6.14-3.73-9.28-11.15-9.28
				c-4.48,0-7.15,0.9-9.71,3.89l3.57,3.37c1.49-1.92,2.94-2.62,5.93-2.62c4.22,0,5.93,1.66,5.93,5.07v1.93h-7.15
				c-6.19,0-9.34,3.25-9.34,7.79c0,2.3,0.75,4.38,2.14,5.82c1.65,1.65,3.89,2.45,7.25,2.45c3.37,0,5.24-0.8,7.21-2.77v2.45H346.5z
				 M320.08,431.91v-4.64h-2.4c-2.19,0-2.93-1.07-2.93-3.15v-30.21h-5.44v30.53c0,4,2.24,7.47,7.41,7.47H320.08z M304.06,431.91
				l-13.62-23.11l12.33-14.89h-7.05l-15.54,19.11v-19.11h-5.75v38h5.75v-11.05l6.41-7.69l10.68,18.73H304.06z"/>
		</g>
		<g style="clip-path:url(#SVGID_00000039832650010457058820000009086379591790411434_);">
			<path class="st3" d="M749.69,304.31c0,3.69-2.08,6.2-5.56,6.2c-3.47,0-5.5-2.51-5.5-6.2v-16.55c0-3.69,2.03-6.19,5.5-6.19
				c3.47,0,5.56,2.51,5.56,6.19V304.31z M755.13,304.47V287.6c0-6.78-4.96-10.88-11-10.88s-10.93,4.11-10.93,10.88v16.87
				c0,6.78,4.9,10.88,10.93,10.88S755.13,311.25,755.13,304.47 M719.9,315.03v-38h-5.44l-7.42,6.41v6.03l7.42-6.51v32.07H719.9z
				 M678.79,299.3h-12.17c0.06-1.66,0.16-2.46,0.7-3.69c0.85-2.03,2.83-3.42,5.39-3.42s4.48,1.39,5.34,3.42
				C678.58,296.83,678.74,297.64,678.79,299.3 M684.19,303.08v-2.4c0-7.69-4.22-13.02-11.48-13.02c-6.94,0-11.47,5.06-11.47,13.82
				c0,10.31,5.38,13.88,12.17,13.88c4.75,0,7.37-1.44,10.14-4.21l-3.47-3.26c-1.92,1.92-3.52,2.78-6.56,2.78
				c-4.43,0-6.89-2.94-6.89-7.59H684.19z M655.47,306.76c0-4.8-2.99-7.21-8.06-7.64l-4.27-0.37c-2.88-0.27-3.74-1.49-3.74-3.1
				c0-2.03,1.65-3.47,4.91-3.47c2.56,0,4.96,0.53,6.67,1.98l3.42-3.47c-2.51-2.19-5.98-3.03-10.04-3.03
				c-5.66,0-10.19,2.98-10.19,8.27c0,4.75,2.93,7.05,8.01,7.48l4.32,0.37c2.62,0.21,3.63,1.39,3.63,3.2c0,2.57-2.61,3.74-5.92,3.74
				c-2.67,0-5.61-0.59-7.79-2.83l-3.58,3.57c3.2,3.15,6.94,3.89,11.37,3.89C650.66,315.35,655.47,312.42,655.47,306.76
				 M628.62,306.76c0-4.8-2.99-7.21-8.06-7.64l-4.27-0.37c-2.88-0.27-3.74-1.49-3.74-3.1c0-2.03,1.66-3.47,4.91-3.47
				c2.56,0,4.97,0.53,6.68,1.98l3.42-3.47c-2.51-2.19-5.98-3.03-10.04-3.03c-5.66,0-10.2,2.98-10.2,8.27c0,4.75,2.94,7.05,8.01,7.48
				l4.33,0.37c2.61,0.21,3.63,1.39,3.63,3.2c0,2.57-2.62,3.74-5.93,3.74c-2.67,0-5.6-0.59-7.79-2.83l-3.57,3.57
				c3.2,3.15,6.94,3.89,11.37,3.89C623.82,315.35,628.62,312.42,628.62,306.76 M594.24,305.27c0,1.92-0.37,3.2-1.17,4.01
				c-1.44,1.39-2.99,1.55-5.07,1.55c-3.42,0-4.97-1.39-4.97-3.85c0-2.46,1.66-3.9,4.86-3.9h6.36V305.27z M599.68,315.03v-18.09
				c0-6.14-3.73-9.28-11.15-9.28c-4.48,0-7.15,0.9-9.71,3.89l3.57,3.37c1.49-1.92,2.94-2.62,5.93-2.62c4.22,0,5.93,1.66,5.93,5.07
				v1.93h-7.15c-6.19,0-9.34,3.25-9.34,7.79c0,2.3,0.75,4.38,2.13,5.82c1.66,1.65,3.89,2.45,7.26,2.45c3.37,0,5.24-0.8,7.21-2.77
				v2.45H599.68z M573.26,315.03v-4.64h-2.4c-2.19,0-2.93-1.07-2.93-3.15v-30.21h-5.44v30.53c0,4,2.24,7.47,7.41,7.47H573.26z
				 M555.06,303.67h-5.82c-0.91,3.85-3.52,6.52-7.74,6.52c-2.24,0-4.27-0.85-5.6-2.3c-1.87-2.03-2.3-4.22-2.3-11.85
				c0-7.64,0.43-9.83,2.3-11.86c1.33-1.44,3.36-2.3,5.6-2.3c4.22,0,6.78,2.67,7.69,6.52h5.87c-1.33-7.58-6.56-11.69-13.56-11.69
				c-3.95,0-7.37,1.44-9.98,4.05c-3.73,3.74-3.67,7.96-3.67,15.27c0,7.31-0.06,11.53,3.67,15.27c2.61,2.61,6.03,4.05,9.98,4.05
				C548.39,315.35,553.77,311.25,555.06,303.67 M510.54,273.08h-5.23l-15.21,45.9h5.23L510.54,273.08z M467.52,304.31
				c0,3.69-2.08,6.2-5.56,6.2c-3.47,0-5.5-2.51-5.5-6.2v-16.55c0-3.69,2.03-6.19,5.5-6.19c3.47,0,5.56,2.51,5.56,6.19V304.31z
				 M472.96,304.47V287.6c0-6.78-4.96-10.88-11-10.88c-6.03,0-10.93,4.11-10.93,10.88v16.87c0,6.78,4.9,10.88,10.93,10.88
				C468,315.35,472.96,311.25,472.96,304.47 M437.73,315.03v-38h-5.44l-7.42,6.41v6.03l7.42-6.51v32.07H437.73z M396.63,299.3
				h-12.17c0.06-1.66,0.16-2.46,0.7-3.69c0.85-2.03,2.83-3.42,5.39-3.42c2.56,0,4.48,1.39,5.34,3.42
				C396.41,296.83,396.58,297.64,396.63,299.3 M402.02,303.08v-2.4c0-7.69-4.22-13.02-11.48-13.02c-6.94,0-11.47,5.06-11.47,13.82
				c0,10.31,5.38,13.88,12.17,13.88c4.75,0,7.37-1.44,10.14-4.21l-3.47-3.26c-1.92,1.92-3.52,2.78-6.56,2.78
				c-4.43,0-6.89-2.94-6.89-7.59H402.02z M373.3,306.76c0-4.8-2.99-7.21-8.06-7.64l-4.27-0.37c-2.88-0.27-3.74-1.49-3.74-3.1
				c0-2.03,1.65-3.47,4.91-3.47c2.56,0,4.96,0.53,6.67,1.98l3.42-3.47c-2.51-2.19-5.98-3.03-10.04-3.03
				c-5.66,0-10.19,2.98-10.19,8.27c0,4.75,2.93,7.05,8.01,7.48l4.32,0.37c2.62,0.21,3.63,1.39,3.63,3.2c0,2.57-2.61,3.74-5.92,3.74
				c-2.67,0-5.61-0.59-7.79-2.83l-3.58,3.57c3.2,3.15,6.94,3.89,11.37,3.89C368.5,315.35,373.3,312.42,373.3,306.76 M346.45,306.76
				c0-4.8-2.99-7.21-8.06-7.64l-4.27-0.37c-2.88-0.27-3.74-1.49-3.74-3.1c0-2.03,1.66-3.47,4.91-3.47c2.56,0,4.97,0.53,6.68,1.98
				l3.42-3.47c-2.51-2.19-5.98-3.03-10.04-3.03c-5.66,0-10.2,2.98-10.2,8.27c0,4.75,2.94,7.05,8.01,7.48l4.33,0.37
				c2.61,0.21,3.63,1.39,3.63,3.2c0,2.57-2.62,3.74-5.93,3.74c-2.67,0-5.6-0.59-7.79-2.83l-3.57,3.57c3.2,3.15,6.94,3.89,11.37,3.89
				C341.65,315.35,346.45,312.42,346.45,306.76 M312.08,305.27c0,1.92-0.37,3.2-1.17,4.01c-1.44,1.39-2.99,1.55-5.07,1.55
				c-3.42,0-4.97-1.39-4.97-3.85c0-2.46,1.66-3.9,4.86-3.9h6.36V305.27z M317.51,315.03v-18.09c0-6.14-3.73-9.28-11.15-9.28
				c-4.48,0-7.15,0.9-9.71,3.89l3.57,3.37c1.49-1.92,2.94-2.62,5.93-2.62c4.22,0,5.93,1.66,5.93,5.07v1.93h-7.15
				c-6.19,0-9.34,3.25-9.34,7.79c0,2.3,0.75,4.38,2.14,5.82c1.65,1.65,3.89,2.45,7.25,2.45c3.37,0,5.24-0.8,7.21-2.77v2.45H317.51z
				 M291.09,315.03v-4.64h-2.4c-2.19,0-2.93-1.07-2.93-3.15v-30.21h-5.44v30.53c0,4,2.24,7.47,7.41,7.47H291.09z M275.08,315.03
				l-13.62-23.11l12.33-14.89h-7.05l-15.54,19.11v-19.11h-5.75v38h5.75v-11.05l6.41-7.69l10.68,18.73H275.08z"/>
		</g>
		<g style="clip-path:url(#SVGID_00000039832650010457058820000009086379591790411434_);">
			<path class="st3" d="M748.88,206.12v-38h-5.43l-7.42,6.41v6.03l7.42-6.51v32.07H748.88z M719.9,206.12v-38h-5.44l-7.42,6.41v6.03
				l7.42-6.51v32.07H719.9z M678.79,190.38h-12.17c0.06-1.66,0.16-2.46,0.7-3.69c0.85-2.03,2.83-3.42,5.39-3.42s4.48,1.39,5.34,3.42
				C678.58,187.92,678.74,188.72,678.79,190.38 M684.19,194.16v-2.4c0-7.69-4.22-13.02-11.48-13.02c-6.94,0-11.47,5.06-11.47,13.82
				c0,10.31,5.38,13.88,12.17,13.88c4.75,0,7.37-1.44,10.14-4.21l-3.47-3.26c-1.92,1.92-3.52,2.78-6.56,2.78
				c-4.43,0-6.89-2.94-6.89-7.59H684.19z M655.47,197.85c0-4.8-2.99-7.21-8.06-7.64l-4.27-0.37c-2.88-0.27-3.74-1.49-3.74-3.1
				c0-2.03,1.65-3.47,4.91-3.47c2.56,0,4.96,0.53,6.67,1.98l3.42-3.47c-2.51-2.19-5.98-3.03-10.04-3.03
				c-5.66,0-10.19,2.98-10.19,8.27c0,4.75,2.93,7.05,8.01,7.48l4.32,0.37c2.62,0.21,3.63,1.39,3.63,3.2c0,2.57-2.61,3.74-5.92,3.74
				c-2.67,0-5.61-0.59-7.79-2.83l-3.58,3.57c3.2,3.15,6.94,3.89,11.37,3.89C650.66,206.44,655.47,203.51,655.47,197.85
				 M628.62,197.85c0-4.8-2.99-7.21-8.06-7.64l-4.27-0.37c-2.88-0.27-3.74-1.49-3.74-3.1c0-2.03,1.66-3.47,4.91-3.47
				c2.56,0,4.97,0.53,6.68,1.98l3.42-3.47c-2.51-2.19-5.98-3.03-10.04-3.03c-5.66,0-10.2,2.98-10.2,8.27c0,4.75,2.94,7.05,8.01,7.48
				l4.33,0.37c2.61,0.21,3.63,1.39,3.63,3.2c0,2.57-2.62,3.74-5.93,3.74c-2.67,0-5.6-0.59-7.79-2.83l-3.57,3.57
				c3.2,3.15,6.94,3.89,11.37,3.89C623.82,206.44,628.62,203.51,628.62,197.85 M594.24,196.36c0,1.92-0.37,3.2-1.17,4.01
				c-1.44,1.39-2.99,1.55-5.07,1.55c-3.42,0-4.97-1.39-4.97-3.85c0-2.46,1.66-3.9,4.86-3.9h6.36V196.36z M599.68,206.12v-18.09
				c0-6.14-3.73-9.28-11.15-9.28c-4.48,0-7.15,0.9-9.71,3.89l3.57,3.37c1.49-1.92,2.94-2.62,5.93-2.62c4.22,0,5.93,1.66,5.93,5.07
				v1.93h-7.15c-6.19,0-9.34,3.25-9.34,7.79c0,2.3,0.75,4.38,2.13,5.82c1.66,1.65,3.89,2.45,7.26,2.45c3.37,0,5.24-0.8,7.21-2.77
				v2.45H599.68z M573.26,206.12v-4.64h-2.4c-2.19,0-2.93-1.07-2.93-3.15v-30.21h-5.44v30.53c0,4,2.24,7.47,7.41,7.47H573.26z
				 M555.06,194.75h-5.82c-0.91,3.85-3.52,6.52-7.74,6.52c-2.24,0-4.27-0.85-5.6-2.3c-1.87-2.03-2.3-4.22-2.3-11.85
				c0-7.64,0.43-9.83,2.3-11.86c1.33-1.44,3.36-2.3,5.6-2.3c4.22,0,6.78,2.67,7.69,6.52h5.87c-1.33-7.58-6.56-11.69-13.56-11.69
				c-3.95,0-7.37,1.44-9.98,4.05c-3.73,3.74-3.67,7.96-3.67,15.27c0,7.31-0.06,11.53,3.67,15.27c2.61,2.61,6.03,4.05,9.98,4.05
				C548.39,206.44,553.77,202.33,555.06,194.75 M510.54,164.17h-5.23l-15.21,45.9h5.23L510.54,164.17z M466.71,206.12v-38h-5.43
				l-7.42,6.41v6.03l7.42-6.51v32.07H466.71z M437.73,206.12v-38h-5.44l-7.42,6.41v6.03l7.42-6.51v32.07H437.73z M396.63,190.38
				h-12.17c0.06-1.66,0.16-2.46,0.7-3.69c0.85-2.03,2.83-3.42,5.39-3.42c2.56,0,4.48,1.39,5.34,3.42
				C396.41,187.92,396.58,188.72,396.63,190.38 M402.02,194.16v-2.4c0-7.69-4.22-13.02-11.48-13.02c-6.94,0-11.47,5.06-11.47,13.82
				c0,10.31,5.38,13.88,12.17,13.88c4.75,0,7.37-1.44,10.14-4.21l-3.47-3.26c-1.92,1.92-3.52,2.78-6.56,2.78
				c-4.43,0-6.89-2.94-6.89-7.59H402.02z M373.3,197.85c0-4.8-2.99-7.21-8.06-7.64l-4.27-0.37c-2.88-0.27-3.74-1.49-3.74-3.1
				c0-2.03,1.65-3.47,4.91-3.47c2.56,0,4.96,0.53,6.67,1.98l3.42-3.47c-2.51-2.19-5.98-3.03-10.04-3.03
				c-5.66,0-10.19,2.98-10.19,8.27c0,4.75,2.93,7.05,8.01,7.48l4.32,0.37c2.62,0.21,3.63,1.39,3.63,3.2c0,2.57-2.61,3.74-5.92,3.74
				c-2.67,0-5.61-0.59-7.79-2.83l-3.58,3.57c3.2,3.15,6.94,3.89,11.37,3.89C368.5,206.44,373.3,203.51,373.3,197.85 M346.45,197.85
				c0-4.8-2.99-7.21-8.06-7.64l-4.27-0.37c-2.88-0.27-3.74-1.49-3.74-3.1c0-2.03,1.66-3.47,4.91-3.47c2.56,0,4.97,0.53,6.68,1.98
				l3.42-3.47c-2.51-2.19-5.98-3.03-10.04-3.03c-5.66,0-10.2,2.98-10.2,8.27c0,4.75,2.94,7.05,8.01,7.48l4.33,0.37
				c2.61,0.21,3.63,1.39,3.63,3.2c0,2.57-2.62,3.74-5.93,3.74c-2.67,0-5.6-0.59-7.79-2.83l-3.57,3.57c3.2,3.15,6.94,3.89,11.37,3.89
				C341.65,206.44,346.45,203.51,346.45,197.85 M312.08,196.36c0,1.92-0.37,3.2-1.17,4.01c-1.44,1.39-2.99,1.55-5.07,1.55
				c-3.42,0-4.97-1.39-4.97-3.85c0-2.46,1.66-3.9,4.86-3.9h6.36V196.36z M317.51,206.12v-18.09c0-6.14-3.73-9.28-11.15-9.28
				c-4.48,0-7.15,0.9-9.71,3.89l3.57,3.37c1.49-1.92,2.94-2.62,5.93-2.62c4.22,0,5.93,1.66,5.93,5.07v1.93h-7.15
				c-6.19,0-9.34,3.25-9.34,7.79c0,2.3,0.75,4.38,2.14,5.82c1.65,1.65,3.89,2.45,7.25,2.45c3.37,0,5.24-0.8,7.21-2.77v2.45H317.51z
				 M291.09,206.12v-4.64h-2.4c-2.19,0-2.93-1.07-2.93-3.15v-30.21h-5.44v30.53c0,4,2.24,7.47,7.41,7.47H291.09z M275.08,206.12
				l-13.62-23.11l12.33-14.89h-7.05l-15.54,19.11v-19.11h-5.75v38h5.75v-11.05l6.41-7.69l10.68,18.73H275.08z"/>
		</g>
		<g style="clip-path:url(#SVGID_00000039832650010457058820000009086379591790411434_);">
			<path class="st3" d="M726.52,886.72c0-3.58-0.43-7.27-3.31-10.14c-1.55-1.55-3.84-2.46-6.83-2.46c-2.78,0-5.02,0.85-6.3,2.19
				v-10.04h15.59v-4.85h-20.49v20.76h4.96c0.59-1.87,2.3-3.42,5.39-3.42c4.38,0,5.56,3.42,5.56,7.96c0,2.56-0.21,5.07-1.81,6.68
				c-0.97,0.96-2.35,1.49-3.96,1.49c-3.42,0-5.12-1.92-5.55-5.29h-5.44c0.21,2.73,0.85,5.23,2.88,7.26
				c1.65,1.65,4.48,2.93,8.11,2.93c3.69,0,6.3-1.28,8.01-2.98C726.09,894.04,726.52,890.78,726.52,886.72 M678.8,883.68h-12.17
				c0.05-1.66,0.16-2.46,0.69-3.69c0.85-2.03,2.83-3.42,5.39-3.42c2.56,0,4.48,1.39,5.34,3.42
				C678.58,881.22,678.74,882.02,678.8,883.68 M684.18,887.46v-2.4c0-7.69-4.21-13.02-11.47-13.02c-6.94,0-11.47,5.06-11.47,13.82
				c0,10.31,5.39,13.88,12.17,13.88c4.75,0,7.37-1.44,10.14-4.21l-3.47-3.26c-1.92,1.92-3.52,2.78-6.57,2.78
				c-4.43,0-6.88-2.94-6.88-7.59H684.18z M655.47,891.15c0-4.8-2.99-7.21-8.06-7.64l-4.27-0.37c-2.88-0.27-3.74-1.49-3.74-3.1
				c0-2.03,1.66-3.47,4.91-3.47c2.56,0,4.97,0.53,6.68,1.98l3.42-3.47c-2.51-2.19-5.98-3.03-10.04-3.03c-5.66,0-10.2,2.98-10.2,8.27
				c0,4.75,2.94,7.05,8.01,7.48l4.33,0.37c2.61,0.21,3.63,1.39,3.63,3.2c0,2.57-2.62,3.74-5.93,3.74c-2.67,0-5.6-0.59-7.79-2.83
				l-3.57,3.58c3.2,3.14,6.94,3.89,11.37,3.89C650.67,899.74,655.47,896.81,655.47,891.15 M628.62,891.15c0-4.8-2.99-7.21-8.06-7.64
				l-4.27-0.37c-2.88-0.27-3.74-1.49-3.74-3.1c0-2.03,1.65-3.47,4.91-3.47c2.56,0,4.96,0.53,6.67,1.98l3.42-3.47
				c-2.51-2.19-5.98-3.03-10.04-3.03c-5.66,0-10.19,2.98-10.19,8.27c0,4.75,2.93,7.05,8.01,7.48l4.32,0.37
				c2.62,0.21,3.63,1.39,3.63,3.2c0,2.57-2.61,3.74-5.92,3.74c-2.67,0-5.61-0.59-7.79-2.83l-3.58,3.58
				c3.2,3.14,6.94,3.89,11.37,3.89C623.81,899.74,628.62,896.81,628.62,891.15 M594.25,889.65c0,1.92-0.37,3.2-1.17,4.01
				c-1.44,1.39-2.99,1.55-5.07,1.55c-3.42,0-4.97-1.39-4.97-3.85c0-2.46,1.66-3.9,4.86-3.9h6.36V889.65z M599.68,899.42v-18.09
				c0-6.14-3.73-9.28-11.15-9.28c-4.49,0-7.15,0.9-9.72,3.89l3.57,3.37c1.49-1.92,2.94-2.62,5.93-2.62c4.22,0,5.93,1.66,5.93,5.07
				v1.93h-7.16c-6.19,0-9.33,3.25-9.33,7.79c0,2.3,0.74,4.38,2.13,5.82c1.65,1.65,3.89,2.45,7.26,2.45s5.23-0.8,7.21-2.77v2.45
				H599.68z M573.26,899.42v-4.64h-2.4c-2.19,0-2.94-1.07-2.94-3.15v-30.21h-5.43v30.53c0,4,2.24,7.47,7.41,7.47H573.26z
				 M555.06,888.05h-5.82c-0.91,3.85-3.52,6.52-7.74,6.52c-2.24,0-4.27-0.85-5.6-2.3c-1.87-2.03-2.3-4.22-2.3-11.85
				c0-7.64,0.43-9.83,2.3-11.86c1.33-1.44,3.36-2.3,5.6-2.3c4.22,0,6.78,2.67,7.69,6.52h5.87c-1.33-7.58-6.56-11.69-13.56-11.69
				c-3.95,0-7.37,1.44-9.98,4.05c-3.73,3.74-3.68,7.96-3.68,15.27c0,7.31-0.05,11.53,3.68,15.27c2.61,2.61,6.03,4.05,9.98,4.05
				C548.39,899.74,553.78,895.63,555.06,888.05 M510.54,857.47h-5.23l-15.22,45.9h5.23L510.54,857.47z M473.33,886.72
				c0-3.58-0.43-7.27-3.3-10.14c-1.55-1.55-3.84-2.46-6.83-2.46c-2.78,0-5.02,0.85-6.3,2.19v-10.04h15.59v-4.85h-20.49v20.76h4.96
				c0.59-1.87,2.3-3.42,5.4-3.42c4.38,0,5.55,3.42,5.55,7.96c0,2.56-0.21,5.07-1.81,6.68c-0.96,0.96-2.35,1.49-3.95,1.49
				c-3.42,0-5.13-1.92-5.56-5.29h-5.44c0.21,2.73,0.85,5.23,2.88,7.26c1.65,1.65,4.48,2.93,8.11,2.93c3.68,0,6.3-1.28,8.01-2.98
				C472.91,894.04,473.33,890.78,473.33,886.72 M425.61,883.68h-12.17c0.06-1.66,0.16-2.46,0.7-3.69c0.85-2.03,2.83-3.42,5.39-3.42
				c2.56,0,4.48,1.39,5.34,3.42C425.4,881.22,425.56,882.02,425.61,883.68 M431.01,887.46v-2.4c0-7.69-4.22-13.02-11.48-13.02
				c-6.94,0-11.47,5.06-11.47,13.82c0,10.31,5.38,13.88,12.17,13.88c4.75,0,7.37-1.44,10.14-4.21l-3.47-3.26
				c-1.92,1.92-3.52,2.78-6.56,2.78c-4.43,0-6.89-2.94-6.89-7.59H431.01z M402.29,891.15c0-4.8-2.99-7.21-8.06-7.64l-4.27-0.37
				c-2.88-0.27-3.74-1.49-3.74-3.1c0-2.03,1.65-3.47,4.91-3.47c2.56,0,4.96,0.53,6.67,1.98l3.42-3.47
				c-2.51-2.19-5.98-3.03-10.04-3.03c-5.66,0-10.19,2.98-10.19,8.27c0,4.75,2.93,7.05,8.01,7.48l4.32,0.37
				c2.62,0.21,3.63,1.39,3.63,3.2c0,2.57-2.61,3.74-5.92,3.74c-2.67,0-5.61-0.59-7.79-2.83l-3.58,3.58
				c3.2,3.14,6.94,3.89,11.37,3.89C397.48,899.74,402.29,896.81,402.29,891.15 M375.44,891.15c0-4.8-2.99-7.21-8.06-7.64l-4.27-0.37
				c-2.88-0.27-3.74-1.49-3.74-3.1c0-2.03,1.66-3.47,4.91-3.47c2.56,0,4.97,0.53,6.68,1.98l3.42-3.47
				c-2.51-2.19-5.98-3.03-10.04-3.03c-5.66,0-10.2,2.98-10.2,8.27c0,4.75,2.94,7.05,8.01,7.48l4.33,0.37
				c2.61,0.21,3.63,1.39,3.63,3.2c0,2.57-2.62,3.74-5.93,3.74c-2.67,0-5.6-0.59-7.79-2.83l-3.57,3.58c3.2,3.14,6.94,3.89,11.37,3.89
				C370.63,899.74,375.44,896.81,375.44,891.15 M341.06,889.65c0,1.92-0.37,3.2-1.17,4.01c-1.44,1.39-2.99,1.55-5.07,1.55
				c-3.42,0-4.97-1.39-4.97-3.85c0-2.46,1.66-3.9,4.86-3.9h6.36V889.65z M346.5,899.42v-18.09c0-6.14-3.73-9.28-11.15-9.28
				c-4.48,0-7.15,0.9-9.71,3.89l3.57,3.37c1.49-1.92,2.94-2.62,5.93-2.62c4.22,0,5.93,1.66,5.93,5.07v1.93h-7.15
				c-6.19,0-9.34,3.25-9.34,7.79c0,2.3,0.75,4.38,2.14,5.82c1.65,1.65,3.89,2.45,7.25,2.45c3.37,0,5.24-0.8,7.21-2.77v2.45H346.5z
				 M320.08,899.42v-4.64h-2.4c-2.19,0-2.93-1.07-2.93-3.15v-30.21h-5.44v30.53c0,4,2.24,7.47,7.41,7.47H320.08z M304.06,899.42
				l-13.62-23.11l12.33-14.89h-7.05l-15.54,19.11v-19.11h-5.75v38h5.75v-11.05l6.41-7.69l10.68,18.73H304.06z"/>
		</g>
	</g>
	<g>
		<polygon class="st4" points="19.1,871.61 35.16,871.61 27.13,860.98 		"/>
	</g>
	<g>
		<polygon class="st4" points="19.1,892.74 35.16,892.74 27.13,882.12 		"/>
	</g>
	<g>
		<polygon class="st4" points="19.1,913.88 35.16,913.88 27.13,903.25 		"/>
	</g>
	<g>
		<polygon class="st4" points="19.1,850.47 35.16,850.47 27.13,839.85 		"/>
	</g>
	<g>
		<polygon class="st4" points="19.1,756.13 35.16,756.13 27.13,745.51 		"/>
	</g>
	<g>
		<polygon class="st4" points="19.1,777.27 35.16,777.27 27.13,766.64 		"/>
	</g>
	<g>
		<polygon class="st4" points="19.1,798.4 35.16,798.4 27.13,787.78 		"/>
	</g>
	<g>
		<polygon class="st4" points="19.1,735 35.16,735 27.13,724.37 		"/>
	</g>
	<g>
		<polygon class="st4" points="19.1,636.45 35.16,636.45 27.13,625.82 		"/>
	</g>
	<g>
		<polygon class="st4" points="19.1,657.58 35.16,657.58 27.13,646.95 		"/>
	</g>
	<g>
		<polygon class="st4" points="19.1,678.72 35.16,678.72 27.13,668.09 		"/>
	</g>
	<g>
		<polygon class="st4" points="19.1,615.31 35.16,615.31 27.13,604.68 		"/>
	</g>
	<g>
		<polygon class="st4" points="19.1,518.16 35.16,518.16 27.13,507.54 		"/>
	</g>
	<g>
		<polygon class="st4" points="19.1,539.3 35.16,539.3 27.13,528.67 		"/>
	</g>
	<g>
		<polygon class="st4" points="19.1,560.43 35.16,560.43 27.13,549.81 		"/>
	</g>
	<g>
		<polygon class="st4" points="19.1,497.03 35.16,497.03 27.13,486.4 		"/>
	</g>
	<g>
		<polygon class="st4" points="19.1,402.69 35.16,402.69 27.13,392.07 		"/>
	</g>
	<g>
		<polygon class="st4" points="19.1,423.83 35.16,423.83 27.13,413.2 		"/>
	</g>
	<g>
		<polygon class="st4" points="19.1,444.96 35.16,444.96 27.13,434.34 		"/>
	</g>
	<g>
		<polygon class="st4" points="19.1,381.56 35.16,381.56 27.13,370.93 		"/>
	</g>
	<g>
		<polygon class="st4" points="19.1,285.81 35.16,285.81 27.13,275.19 		"/>
	</g>
	<g>
		<polygon class="st4" points="19.1,306.95 35.16,306.95 27.13,296.32 		"/>
	</g>
	<g>
		<polygon class="st4" points="19.1,328.08 35.16,328.08 27.13,317.46 		"/>
	</g>
	<g>
		<polygon class="st4" points="19.1,264.68 35.16,264.68 27.13,254.05 		"/>
	</g>
	<g>
		<polygon class="st4" points="19.1,178.94 35.16,178.94 27.13,168.31 		"/>
	</g>
	<g>
		<polygon class="st4" points="19.1,200.07 35.16,200.07 27.13,189.45 		"/>
	</g>
	<g>
		<polygon class="st4" points="19.1,221.21 35.16,221.21 27.13,210.58 		"/>
	</g>
	<g>
		<polygon class="st4" points="19.1,157.8 35.16,157.8 27.13,147.18 		"/>
	</g>
</g>
</svg>
