<?xml version="1.0" encoding="UTF-8"?> <svg xmlns="http://www.w3.org/2000/svg" xmlns:xlink="http://www.w3.org/1999/xlink" version="1.1" id="Ebene_1" x="0px" y="0px" viewBox="0 0 181 151" style="enable-background:new 0 0 181 151;" xml:space="preserve"> <style type="text/css"> .st0{fill:#93B1DD;} .st1{fill:#6093CD;} .st2{fill:none;stroke:#2A2C68;stroke-width:0.6;stroke-linejoin:round;} .st3{fill:none;stroke:#2A2C68;stroke-width:0.6;} .st4{fill:#FFFFFF;} .st5{font-family:'DINPro-Bold';} .st6{font-size:13px;} .st7{fill:#2A2C68;} .st8{font-family:'DINPro-Medium';} .st9{font-size:9.5px;} </style> <g id="Layer-1_3_"> <path class="st0" d="M2.3,146.7h8.6V23.4H2.3V146.7z"></path> </g> <g id="Layer-1_10_"> <path class="st1" d="M2.3,22.4H179V1.6H2.3V22.4z"></path> </g> <g id="Layer-1_12_"> <path class="st2" d="M1.8,147.2H179V2.1H1.8V147.2z"></path> </g> <g id="Layer-1_14_"> <path class="st3" d="M2.3,22.9h177.2"></path> </g> <g id="Layer-1_15_"> <text transform="matrix(1 0 0 1 15.254 15.1164)" class="st4 st5 st6">W</text> <text transform="matrix(1 0 0 1 26.525 15.1164)" class="st4 st5 st6">e</text> <text transform="matrix(1 0 0 1 33.909 15.1164)" class="st4 st5 st6">r</text> <text transform="matrix(1 0 0 1 40.084 15.1164)" class="st4 st5 st6">k</text> <text transform="matrix(1 0 0 1 47.611 15.1164)" class="st4 st5 st6">r</text> <text transform="matrix(1 0 0 1 53.3947 15.1164)" class="st4 st5 st6">e</text> <text transform="matrix(1 0 0 1 60.7787 15.1164)" class="st4 st5 st6">a</text> <text transform="matrix(1 0 0 1 67.9807 15.1164)" class="st4 st5 st6">l</text> <text transform="matrix(1 0 0 1 72.4657 15.1164)" class="st4 st5 st6">s</text> <text transform="matrix(1 0 0 1 79.2387 15.1164)" class="st4 st5 st6">c</text> <text transform="matrix(1 0 0 1 85.7387 15.1164)" class="st4 st5 st6">h</text> <text transform="matrix(1 0 0 1 93.4477 15.1164)" class="st4 st5 st6">u</text> <text transform="matrix(1 0 0 1 101.1567 15.1164)" class="st4 st5 st6">l</text> <text transform="matrix(1 0 0 1 105.6417 15.1164)" class="st4 st5 st6">a</text> <text transform="matrix(1 0 0 1 112.8437 15.1164)" class="st4 st5 st6">b</text> <text transform="matrix(1 0 0 1 120.3837 15.1164)" class="st4 st5 st6">s</text> <text transform="matrix(1 0 0 1 127.1567 15.1164)" class="st4 st5 st6">c</text> <text transform="matrix(1 0 0 1 133.6567 15.1164)" class="st4 st5 st6">h</text> <text transform="matrix(1 0 0 1 141.3658 15.1164)" class="st4 st5 st6">l</text> <text transform="matrix(1 0 0 1 145.8508 15.1164)" class="st4 st5 st6">u</text> <text transform="matrix(1 0 0 1 153.5598 15.1164)" class="st4 st5 st6">s</text> <text transform="matrix(1 0 0 1 160.2678 15.1164)" class="st4 st5 st6">s</text> </g> <g id="Layer-1_18_"> <path class="st2" d="M2,64h176.7"></path> </g> <g id="Layer-1_19_"> <path class="st2" d="M2,43.2h176.7"></path> </g> <g id="Layer-1_21_"> <path class="st2" d="M2,84.3h176.7"></path> </g> <g id="Layer-1_23_"> <path class="st2" d="M2,106.1h176.7"></path> </g> <g id="Layer-1_25_"> <path class="st2" d="M2,126.9h176.7"></path> </g> <g id="Layer-1_28_"> <text transform="matrix(1 0 0 1 54.3487 120.788)" class="st7 st8 st9">K</text> <text transform="matrix(1 0 0 1 60.6947 120.788)" class="st7 st8 st9">l</text> <text transform="matrix(1 0 0 1 63.7442 120.788)" class="st7 st8 st9">a</text> <text transform="matrix(1 0 0 1 68.8742 120.788)" class="st7 st8 st9">s</text> <text transform="matrix(1 0 0 1 73.6622 120.788)" class="st7 st8 st9">s</text> <text transform="matrix(1 0 0 1 78.4977 120.788)" class="st7 st8 st9">e</text> <text transform="matrix(1 0 0 1 83.7133 120.788)" class="st7 st8 st9"> </text> <text transform="matrix(1 0 0 1 86.0883 120.788)" class="st7 st8 st9">6</text> <text transform="matrix(1 0 0 1 91.2468 120.788)" class="st7 st8 st9"> </text> <text transform="matrix(1 0 0 1 93.6218 120.788)" class="st7 st8 st9">/</text> <text transform="matrix(1 0 0 1 97.3268 120.788)" class="st7 st8 st9"> </text> <text transform="matrix(1 0 0 1 99.7018 120.788)" class="st7 st8 st9">Y</text> <text transform="matrix(1 0 0 1 104.3473 120.788)" class="st7 st8 st9">e</text> <text transform="matrix(1 0 0 1 109.5628 120.788)" class="st7 st8 st9">a</text> <text transform="matrix(1 0 0 1 114.6928 120.788)" class="st7 st8 st9">r</text> <text transform="matrix(1 0 0 1 118.9583 120.788)" class="st7 st8 st9"> </text> <text transform="matrix(1 0 0 1 121.3333 120.788)" class="st7 st8 st9">6</text> </g> <g id="Layer-1_29_"> <text transform="matrix(1 0 0 1 54.3487 98.988)" class="st7 st8 st9">K</text> <text transform="matrix(1 0 0 1 60.6947 98.988)" class="st7 st8 st9">l</text> <text transform="matrix(1 0 0 1 63.7442 98.988)" class="st7 st8 st9">a</text> <text transform="matrix(1 0 0 1 68.8742 98.988)" class="st7 st8 st9">s</text> <text transform="matrix(1 0 0 1 73.6622 98.988)" class="st7 st8 st9">s</text> <text transform="matrix(1 0 0 1 78.4977 98.988)" class="st7 st8 st9">e</text> <text transform="matrix(1 0 0 1 83.7133 98.988)" class="st7 st8 st9"> </text> <text transform="matrix(1 0 0 1 86.0883 98.988)" class="st7 st8 st9">7</text> <text transform="matrix(1 0 0 1 91.2468 98.988)" class="st7 st8 st9"> </text> <text transform="matrix(1 0 0 1 93.6218 98.988)" class="st7 st8 st9">/</text> <text transform="matrix(1 0 0 1 97.3268 98.988)" class="st7 st8 st9"> </text> <text transform="matrix(1 0 0 1 99.7018 98.988)" class="st7 st8 st9">Y</text> <text transform="matrix(1 0 0 1 104.3473 98.988)" class="st7 st8 st9">e</text> <text transform="matrix(1 0 0 1 109.5628 98.988)" class="st7 st8 st9">a</text> <text transform="matrix(1 0 0 1 114.6928 98.988)" class="st7 st8 st9">r</text> <text transform="matrix(1 0 0 1 118.9583 98.988)" class="st7 st8 st9"> </text> <text transform="matrix(1 0 0 1 121.3333 98.988)" class="st7 st8 st9">7</text> </g> <g id="Layer-1_30_"> <text transform="matrix(1 0 0 1 54.3487 78.188)" class="st7 st8 st9">K</text> <text transform="matrix(1 0 0 1 60.6947 78.188)" class="st7 st8 st9">l</text> <text transform="matrix(1 0 0 1 63.7442 78.188)" class="st7 st8 st9">a</text> <text transform="matrix(1 0 0 1 68.8742 78.188)" class="st7 st8 st9">s</text> <text transform="matrix(1 0 0 1 73.6622 78.188)" class="st7 st8 st9">s</text> <text transform="matrix(1 0 0 1 78.4977 78.188)" class="st7 st8 st9">e</text> <text transform="matrix(1 0 0 1 83.7133 78.188)" class="st7 st8 st9"> </text> <text transform="matrix(1 0 0 1 86.0883 78.188)" class="st7 st8 st9">8</text> <text transform="matrix(1 0 0 1 91.2468 78.188)" class="st7 st8 st9"> </text> <text transform="matrix(1 0 0 1 93.6218 78.188)" class="st7 st8 st9">/</text> <text transform="matrix(1 0 0 1 97.3268 78.188)" class="st7 st8 st9"> </text> <text transform="matrix(1 0 0 1 99.7018 78.188)" class="st7 st8 st9">Y</text> <text transform="matrix(1 0 0 1 104.3473 78.188)" class="st7 st8 st9">e</text> <text transform="matrix(1 0 0 1 109.5628 78.188)" class="st7 st8 st9">a</text> <text transform="matrix(1 0 0 1 114.6928 78.188)" class="st7 st8 st9">r</text> <text transform="matrix(1 0 0 1 118.9583 78.188)" class="st7 st8 st9"> </text> <text transform="matrix(1 0 0 1 121.3333 78.188)" class="st7 st8 st9">8</text> </g> <g id="Layer-1_31_"> <text transform="matrix(1 0 0 1 54.3487 57.3879)" class="st7 st8 st9">K</text> <text transform="matrix(1 0 0 1 60.6947 57.3879)" class="st7 st8 st9">l</text> <text transform="matrix(1 0 0 1 63.7442 57.3879)" class="st7 st8 st9">a</text> <text transform="matrix(1 0 0 1 68.8742 57.3879)" class="st7 st8 st9">s</text> <text transform="matrix(1 0 0 1 73.6622 57.3879)" class="st7 st8 st9">s</text> <text transform="matrix(1 0 0 1 78.4977 57.3879)" class="st7 st8 st9">e</text> <text transform="matrix(1 0 0 1 83.7133 57.3879)" class="st7 st8 st9"> </text> <text transform="matrix(1 0 0 1 86.0883 57.3879)" class="st7 st8 st9">9</text> <text transform="matrix(1 0 0 1 91.2468 57.3879)" class="st7 st8 st9"> </text> <text transform="matrix(1 0 0 1 93.6218 57.3879)" class="st7 st8 st9">/</text> <text transform="matrix(1 0 0 1 97.3268 57.3879)" class="st7 st8 st9"> </text> <text transform="matrix(1 0 0 1 99.7018 57.3879)" class="st7 st8 st9">Y</text> <text transform="matrix(1 0 0 1 104.3473 57.3879)" class="st7 st8 st9">e</text> <text transform="matrix(1 0 0 1 109.5628 57.3879)" class="st7 st8 st9">a</text> <text transform="matrix(1 0 0 1 114.6928 57.3879)" class="st7 st8 st9">r</text> <text transform="matrix(1 0 0 1 118.9583 57.3879)" class="st7 st8 st9"> </text> <text transform="matrix(1 0 0 1 121.3333 57.3879)" class="st7 st8 st9">9</text> </g> <g id="Layer-1_32_"> <text transform="matrix(1 0 0 1 49.1903 36.5879)" class="st7 st8 st9">K</text> <text transform="matrix(1 0 0 1 55.5363 36.5879)" class="st7 st8 st9">l</text> <text transform="matrix(1 0 0 1 58.5858 36.5879)" class="st7 st8 st9">a</text> <text transform="matrix(1 0 0 1 63.7158 36.5879)" class="st7 st8 st9">s</text> <text transform="matrix(1 0 0 1 68.5038 36.5879)" class="st7 st8 st9">s</text> <text transform="matrix(1 0 0 1 73.3394 36.5879)" class="st7 st8 st9">e</text> <text transform="matrix(1 0 0 1 78.5549 36.5879)" class="st7 st8 st9"> </text> <text transform="matrix(1 0 0 1 80.9299 36.5879)" class="st7 st8 st9">1</text> <text transform="matrix(1 0 0 1 86.0884 36.5879)" class="st7 st8 st9">0</text> <text transform="matrix(1 0 0 1 91.2469 36.5879)" class="st7 st8 st9"> </text> <text transform="matrix(1 0 0 1 93.6219 36.5879)" class="st7 st8 st9">/</text> <text transform="matrix(1 0 0 1 97.3269 36.5879)" class="st7 st8 st9"> </text> <text transform="matrix(1 0 0 1 99.7019 36.5879)" class="st7 st8 st9">Y</text> <text transform="matrix(1 0 0 1 104.3474 36.5879)" class="st7 st8 st9">e</text> <text transform="matrix(1 0 0 1 109.5629 36.5879)" class="st7 st8 st9">a</text> <text transform="matrix(1 0 0 1 114.6929 36.5879)" class="st7 st8 st9">r</text> <text transform="matrix(1 0 0 1 118.9584 36.5879)" class="st7 st8 st9"> </text> <text transform="matrix(1 0 0 1 121.3334 36.5879)" class="st7 st8 st9">1</text> <text transform="matrix(1 0 0 1 126.4919 36.5879)" class="st7 st8 st9">0</text> </g> <g id="Layer-1_36_"> <text transform="matrix(1 0 0 1 54.3487 140.5879)" class="st7 st8 st9">K</text> <text transform="matrix(1 0 0 1 60.6947 140.5879)" class="st7 st8 st9">l</text> <text transform="matrix(1 0 0 1 63.7442 140.5879)" class="st7 st8 st9">a</text> <text transform="matrix(1 0 0 1 68.8742 140.5879)" class="st7 st8 st9">s</text> <text transform="matrix(1 0 0 1 73.6622 140.5879)" class="st7 st8 st9">s</text> <text transform="matrix(1 0 0 1 78.4977 140.5879)" class="st7 st8 st9">e</text> <text transform="matrix(1 0 0 1 83.7133 140.5879)" class="st7 st8 st9"> </text> <text transform="matrix(1 0 0 1 86.0883 140.5879)" class="st7 st8 st9">5</text> <text transform="matrix(1 0 0 1 91.2468 140.5879)" class="st7 st8 st9"> </text> <text transform="matrix(1 0 0 1 93.6218 140.5879)" class="st7 st8 st9">/</text> <text transform="matrix(1 0 0 1 97.3268 140.5879)" class="st7 st8 st9"> </text> <text transform="matrix(1 0 0 1 99.7018 140.5879)" class="st7 st8 st9">Y</text> <text transform="matrix(1 0 0 1 104.3473 140.5879)" class="st7 st8 st9">e</text> <text transform="matrix(1 0 0 1 109.5628 140.5879)" class="st7 st8 st9">a</text> <text transform="matrix(1 0 0 1 114.6928 140.5879)" class="st7 st8 st9">r</text> <text transform="matrix(1 0 0 1 118.9583 140.5879)" class="st7 st8 st9"> </text> <text transform="matrix(1 0 0 1 121.3333 140.5879)" class="st7 st8 st9">5</text> </g> <g id="Layer-1_38_"> <path class="st4" d="M5.2,136.1H8l-1.4-1.9L5.2,136.1z"></path> <path class="st4" d="M5.2,139.9H8L6.6,138L5.2,139.9z"></path> <path class="st4" d="M5.2,143.7H8l-1.4-1.9L5.2,143.7z"></path> <path class="st4" d="M5.2,132.4H8l-1.4-1.9L5.2,132.4z"></path> </g> <g id="Layer-1_40_"> <path class="st4" d="M5.2,115.6H8l-1.4-1.9L5.2,115.6z"></path> <path class="st4" d="M5.2,119.3H8l-1.4-1.9L5.2,119.3z"></path> <path class="st4" d="M5.2,123.1H8l-1.4-1.9L5.2,123.1z"></path> <path class="st4" d="M5.2,111.8H8l-1.4-1.9L5.2,111.8z"></path> </g> <g id="Layer-1_42_"> <path class="st4" d="M5.2,94.3H8l-1.4-1.9L5.2,94.3z"></path> <path class="st4" d="M5.2,98H8l-1.4-1.9L5.2,98z"></path> <path class="st4" d="M5.2,101.8H8l-1.4-1.9L5.2,101.8z"></path> <path class="st4" d="M5.2,90.5H8l-1.4-1.9L5.2,90.5z"></path> </g> <g id="Layer-1_44_"> <path class="st4" d="M5.2,73.2H8l-1.4-1.9L5.2,73.2z"></path> <path class="st4" d="M5.2,77H8l-1.4-1.9L5.2,77z"></path> <path class="st4" d="M5.2,80.8H8l-1.4-1.9L5.2,80.8z"></path> <path class="st4" d="M5.2,69.5H8l-1.4-1.9L5.2,69.5z"></path> </g> <g id="Layer-1_46_"> <path class="st4" d="M5.2,52.7H8l-1.4-1.9L5.2,52.7z"></path> <path class="st4" d="M5.2,56.4H8l-1.4-1.9L5.2,56.4z"></path> <path class="st4" d="M5.2,60.2H8l-1.4-1.9L5.2,60.2z"></path> <path class="st4" d="M5.2,48.9H8L6.6,47L5.2,48.9z"></path> </g> <g id="Layer-1_47_"> <path class="st4" d="M5.2,31.9H8L6.6,30L5.2,31.9z"></path> <path class="st4" d="M5.2,35.6H8l-1.4-1.9L5.2,35.6z"></path> <path class="st4" d="M5.2,39.4H8l-1.4-1.9L5.2,39.4z"></path> <path class="st4" d="M5.2,28.1H8l-1.4-1.9L5.2,28.1z"></path> </g> </svg> 