<?xml version="1.0" encoding="UTF-8"?> <svg xmlns="http://www.w3.org/2000/svg" xmlns:xlink="http://www.w3.org/1999/xlink" version="1.1" id="Ebene_1" x="0px" y="0px" viewBox="0 0 186 174" style="enable-background:new 0 0 186 174;" xml:space="preserve"> <style type="text/css"> .st0{fill:#93B1DD;} .st1{fill:#6093CD;} .st2{fill:none;stroke:#2A2C68;stroke-width:0.6;stroke-linejoin:round;} .st3{fill:none;stroke:#2A2C68;stroke-width:0.6;} .st4{fill:#FFFFFF;} .st5{font-family:'DINPro-Bold';} .st6{font-size:13px;} .st7{fill:#2A2C68;} .st8{font-family:'DINPro-Medium';} .st9{font-size:9.5px;} </style> <g id="Layer-1_3_"> <path class="st0" d="M3.4,167.6H12V26H3.4V167.6z"></path> </g> <g id="Layer-1_6_"> <path class="st1" d="M3.1,26.2h177.6V2.3H3.1V26.2z"></path> </g> <g id="Layer-1_8_"> <path class="st2" d="M3.1,168.1h177.2V2.2H3.1V168.1z"></path> </g> <g id="Layer-1_11_"> <path class="st3" d="M3.2,26h177.6"></path> </g> <g id="Layer-1_13_"> <text transform="matrix(1 0 0 1 32.2296 17.3828)" class="st4 st5 st6">F</text> <text transform="matrix(1 0 0 1 39.7696 17.3828)" class="st4 st5 st6">a</text> <text transform="matrix(1 0 0 1 46.9716 17.3828)" class="st4 st5 st6">c</text> <text transform="matrix(1 0 0 1 53.4716 17.3828)" class="st4 st5 st6">h</text> <text transform="matrix(1 0 0 1 61.1806 17.3828)" class="st4 st5 st6">h</text> <text transform="matrix(1 0 0 1 68.8896 17.3828)" class="st4 st5 st6">o</text> <text transform="matrix(1 0 0 1 76.2086 17.3828)" class="st4 st5 st6">c</text> <text transform="matrix(1 0 0 1 82.7086 17.3828)" class="st4 st5 st6">h</text> <text transform="matrix(1 0 0 1 90.4176 17.3828)" class="st4 st5 st6">s</text> <text transform="matrix(1 0 0 1 97.1907 17.3828)" class="st4 st5 st6">c</text> <text transform="matrix(1 0 0 1 103.6907 17.3828)" class="st4 st5 st6">h</text> <text transform="matrix(1 0 0 1 111.3997 17.3828)" class="st4 st5 st6">u</text> <text transform="matrix(1 0 0 1 119.1087 17.3828)" class="st4 st5 st6">l</text> <text transform="matrix(1 0 0 1 123.5937 17.3828)" class="st4 st5 st6">r</text> <text transform="matrix(1 0 0 1 129.3787 17.3828)" class="st4 st5 st6">e</text> <text transform="matrix(1 0 0 1 136.7627 17.3828)" class="st4 st5 st6">i</text> <text transform="matrix(1 0 0 1 140.5977 17.3828)" class="st4 st5 st6">f</text> <text transform="matrix(1 0 0 1 145.1074 17.3828)" class="st4 st5 st6">e</text> </g> <g id="Layer-1_16_"> <path class="st2" d="M3.4,84.9h176.7"></path> </g> <g id="Layer-1_19_"> <path class="st2" d="M3.4,64.1h176.7"></path> </g> <g id="Layer-1_21_"> <path class="st2" d="M3.4,44.3h176.7"></path> </g> <g id="Layer-1_24_"> <path class="st2" d="M3.4,105.2h176.7"></path> </g> <g id="Layer-1_27_"> <path class="st2" d="M3.4,127h176.7"></path> </g> <g id="Layer-1_30_"> <path class="st2" d="M3.4,147.8h176.7"></path> </g> <g id="Layer-1_36_"> <text transform="matrix(1 0 0 1 55.7072 141.7104)" class="st7 st8 st9">K</text> <text transform="matrix(1 0 0 1 62.0532 141.7104)" class="st7 st8 st9">l</text> <text transform="matrix(1 0 0 1 65.1027 141.7104)" class="st7 st8 st9">a</text> <text transform="matrix(1 0 0 1 70.2327 141.7104)" class="st7 st8 st9">s</text> <text transform="matrix(1 0 0 1 75.0208 141.7104)" class="st7 st8 st9">s</text> <text transform="matrix(1 0 0 1 79.8563 141.7104)" class="st7 st8 st9">e</text> <text transform="matrix(1 0 0 1 85.0718 141.7104)" class="st7 st8 st9"> </text> <text transform="matrix(1 0 0 1 87.4468 141.7104)" class="st7 st8 st9">6</text> <text transform="matrix(1 0 0 1 92.6053 141.7104)" class="st7 st8 st9"> </text> <text transform="matrix(1 0 0 1 94.9803 141.7104)" class="st7 st8 st9">/</text> <text transform="matrix(1 0 0 1 98.6853 141.7104)" class="st7 st8 st9"> </text> <text transform="matrix(1 0 0 1 101.0603 141.7104)" class="st7 st8 st9">Y</text> <text transform="matrix(1 0 0 1 105.7058 141.7104)" class="st7 st8 st9">e</text> <text transform="matrix(1 0 0 1 110.9213 141.7104)" class="st7 st8 st9">a</text> <text transform="matrix(1 0 0 1 116.0513 141.7104)" class="st7 st8 st9">r</text> <text transform="matrix(1 0 0 1 120.3168 141.7104)" class="st7 st8 st9"> </text> <text transform="matrix(1 0 0 1 122.6918 141.7104)" class="st7 st8 st9">6</text> </g> <g id="Layer-1_41_"> <text transform="matrix(1 0 0 1 55.7072 119.9104)" class="st7 st8 st9">K</text> <text transform="matrix(1 0 0 1 62.0532 119.9104)" class="st7 st8 st9">l</text> <text transform="matrix(1 0 0 1 65.1027 119.9104)" class="st7 st8 st9">a</text> <text transform="matrix(1 0 0 1 70.2327 119.9104)" class="st7 st8 st9">s</text> <text transform="matrix(1 0 0 1 75.0208 119.9104)" class="st7 st8 st9">s</text> <text transform="matrix(1 0 0 1 79.8563 119.9104)" class="st7 st8 st9">e</text> <text transform="matrix(1 0 0 1 85.0718 119.9104)" class="st7 st8 st9"> </text> <text transform="matrix(1 0 0 1 87.4468 119.9104)" class="st7 st8 st9">7</text> <text transform="matrix(1 0 0 1 92.6053 119.9104)" class="st7 st8 st9"> </text> <text transform="matrix(1 0 0 1 94.9803 119.9104)" class="st7 st8 st9">/</text> <text transform="matrix(1 0 0 1 98.6853 119.9104)" class="st7 st8 st9"> </text> <text transform="matrix(1 0 0 1 101.0603 119.9104)" class="st7 st8 st9">Y</text> <text transform="matrix(1 0 0 1 105.7058 119.9104)" class="st7 st8 st9">e</text> <text transform="matrix(1 0 0 1 110.9213 119.9104)" class="st7 st8 st9">a</text> <text transform="matrix(1 0 0 1 116.0513 119.9104)" class="st7 st8 st9">r</text> <text transform="matrix(1 0 0 1 120.3168 119.9104)" class="st7 st8 st9"> </text> <text transform="matrix(1 0 0 1 122.6918 119.9104)" class="st7 st8 st9">7</text> </g> <g id="Layer-1_44_"> <text transform="matrix(1 0 0 1 55.7072 99.1104)" class="st7 st8 st9">K</text> <text transform="matrix(1 0 0 1 62.0532 99.1104)" class="st7 st8 st9">l</text> <text transform="matrix(1 0 0 1 65.1027 99.1104)" class="st7 st8 st9">a</text> <text transform="matrix(1 0 0 1 70.2327 99.1104)" class="st7 st8 st9">s</text> <text transform="matrix(1 0 0 1 75.0208 99.1104)" class="st7 st8 st9">s</text> <text transform="matrix(1 0 0 1 79.8563 99.1104)" class="st7 st8 st9">e</text> <text transform="matrix(1 0 0 1 85.0718 99.1104)" class="st7 st8 st9"> </text> <text transform="matrix(1 0 0 1 87.4468 99.1104)" class="st7 st8 st9">8</text> <text transform="matrix(1 0 0 1 92.6053 99.1104)" class="st7 st8 st9"> </text> <text transform="matrix(1 0 0 1 94.9803 99.1104)" class="st7 st8 st9">/</text> <text transform="matrix(1 0 0 1 98.6853 99.1104)" class="st7 st8 st9"> </text> <text transform="matrix(1 0 0 1 101.0603 99.1104)" class="st7 st8 st9">Y</text> <text transform="matrix(1 0 0 1 105.7058 99.1104)" class="st7 st8 st9">e</text> <text transform="matrix(1 0 0 1 110.9213 99.1104)" class="st7 st8 st9">a</text> <text transform="matrix(1 0 0 1 116.0513 99.1104)" class="st7 st8 st9">r</text> <text transform="matrix(1 0 0 1 120.3168 99.1104)" class="st7 st8 st9"> </text> <text transform="matrix(1 0 0 1 122.6918 99.1104)" class="st7 st8 st9">8</text> </g> <g id="Layer-1_47_"> <text transform="matrix(1 0 0 1 55.7072 78.3104)" class="st7 st8 st9">K</text> <text transform="matrix(1 0 0 1 62.0532 78.3104)" class="st7 st8 st9">l</text> <text transform="matrix(1 0 0 1 65.1027 78.3104)" class="st7 st8 st9">a</text> <text transform="matrix(1 0 0 1 70.2327 78.3104)" class="st7 st8 st9">s</text> <text transform="matrix(1 0 0 1 75.0208 78.3104)" class="st7 st8 st9">s</text> <text transform="matrix(1 0 0 1 79.8563 78.3104)" class="st7 st8 st9">e</text> <text transform="matrix(1 0 0 1 85.0718 78.3104)" class="st7 st8 st9"> </text> <text transform="matrix(1 0 0 1 87.4468 78.3104)" class="st7 st8 st9">9</text> <text transform="matrix(1 0 0 1 92.6053 78.3104)" class="st7 st8 st9"> </text> <text transform="matrix(1 0 0 1 94.9803 78.3104)" class="st7 st8 st9">/</text> <text transform="matrix(1 0 0 1 98.6853 78.3104)" class="st7 st8 st9"> </text> <text transform="matrix(1 0 0 1 101.0603 78.3104)" class="st7 st8 st9">Y</text> <text transform="matrix(1 0 0 1 105.7058 78.3104)" class="st7 st8 st9">e</text> <text transform="matrix(1 0 0 1 110.9213 78.3104)" class="st7 st8 st9">a</text> <text transform="matrix(1 0 0 1 116.0513 78.3104)" class="st7 st8 st9">r</text> <text transform="matrix(1 0 0 1 120.3168 78.3104)" class="st7 st8 st9"> </text> <text transform="matrix(1 0 0 1 122.6918 78.3104)" class="st7 st8 st9">9</text> </g> <g id="Layer-1_50_"> <text transform="matrix(1 0 0 1 50.5488 57.5104)" class="st7 st8 st9">K</text> <text transform="matrix(1 0 0 1 56.8949 57.5104)" class="st7 st8 st9">l</text> <text transform="matrix(1 0 0 1 59.9444 57.5104)" class="st7 st8 st9">a</text> <text transform="matrix(1 0 0 1 65.0744 57.5104)" class="st7 st8 st9">s</text> <text transform="matrix(1 0 0 1 69.8624 57.5104)" class="st7 st8 st9">s</text> <text transform="matrix(1 0 0 1 74.6979 57.5104)" class="st7 st8 st9">e</text> <text transform="matrix(1 0 0 1 79.9134 57.5104)" class="st7 st8 st9"> </text> <text transform="matrix(1 0 0 1 82.2884 57.5104)" class="st7 st8 st9">1</text> <text transform="matrix(1 0 0 1 87.4469 57.5104)" class="st7 st8 st9">0</text> <text transform="matrix(1 0 0 1 92.6054 57.5104)" class="st7 st8 st9"> </text> <text transform="matrix(1 0 0 1 94.9804 57.5104)" class="st7 st8 st9">/</text> <text transform="matrix(1 0 0 1 98.6854 57.5104)" class="st7 st8 st9"> </text> <text transform="matrix(1 0 0 1 101.0604 57.5104)" class="st7 st8 st9">Y</text> <text transform="matrix(1 0 0 1 105.7059 57.5104)" class="st7 st8 st9">e</text> <text transform="matrix(1 0 0 1 110.9214 57.5104)" class="st7 st8 st9">a</text> <text transform="matrix(1 0 0 1 116.0514 57.5104)" class="st7 st8 st9">r</text> <text transform="matrix(1 0 0 1 120.3169 57.5104)" class="st7 st8 st9"> </text> <text transform="matrix(1 0 0 1 122.6919 57.5104)" class="st7 st8 st9">1</text> <text transform="matrix(1 0 0 1 127.8504 57.5104)" class="st7 st8 st9">0</text> </g> <g id="Layer-1_52_"> <text transform="matrix(1 0 0 1 50.5488 38.1277)" class="st7 st8 st9">K</text> <text transform="matrix(1 0 0 1 56.8949 38.1277)" class="st7 st8 st9">l</text> <text transform="matrix(1 0 0 1 59.9444 38.1277)" class="st7 st8 st9">a</text> <text transform="matrix(1 0 0 1 65.0744 38.1277)" class="st7 st8 st9">s</text> <text transform="matrix(1 0 0 1 69.8624 38.1277)" class="st7 st8 st9">s</text> <text transform="matrix(1 0 0 1 74.6979 38.1277)" class="st7 st8 st9">e</text> <text transform="matrix(1 0 0 1 79.9134 38.1277)" class="st7 st8 st9"> </text> <text transform="matrix(1 0 0 1 82.2884 38.1277)" class="st7 st8 st9">1</text> <text transform="matrix(1 0 0 1 87.4469 38.1277)" class="st7 st8 st9">1</text> <text transform="matrix(1 0 0 1 92.6054 38.1277)" class="st7 st8 st9"> </text> <text transform="matrix(1 0 0 1 94.9804 38.1277)" class="st7 st8 st9">/</text> <text transform="matrix(1 0 0 1 98.6854 38.1277)" class="st7 st8 st9"> </text> <text transform="matrix(1 0 0 1 101.0604 38.1277)" class="st7 st8 st9">Y</text> <text transform="matrix(1 0 0 1 105.7059 38.1277)" class="st7 st8 st9">e</text> <text transform="matrix(1 0 0 1 110.9214 38.1277)" class="st7 st8 st9">a</text> <text transform="matrix(1 0 0 1 116.0514 38.1277)" class="st7 st8 st9">r</text> <text transform="matrix(1 0 0 1 120.3169 38.1277)" class="st7 st8 st9"> </text> <text transform="matrix(1 0 0 1 122.6919 38.1277)" class="st7 st8 st9">1</text> <text transform="matrix(1 0 0 1 127.8504 38.1277)" class="st7 st8 st9">1</text> </g> <g id="Layer-1_54_"> <text transform="matrix(1 0 0 1 55.7072 161.5104)" class="st7 st8 st9">K</text> <text transform="matrix(1 0 0 1 62.0532 161.5104)" class="st7 st8 st9">l</text> <text transform="matrix(1 0 0 1 65.1027 161.5104)" class="st7 st8 st9">a</text> <text transform="matrix(1 0 0 1 70.2327 161.5104)" class="st7 st8 st9">s</text> <text transform="matrix(1 0 0 1 75.0208 161.5104)" class="st7 st8 st9">s</text> <text transform="matrix(1 0 0 1 79.8563 161.5104)" class="st7 st8 st9">e</text> <text transform="matrix(1 0 0 1 85.0718 161.5104)" class="st7 st8 st9"> </text> <text transform="matrix(1 0 0 1 87.4468 161.5104)" class="st7 st8 st9">5</text> <text transform="matrix(1 0 0 1 92.6053 161.5104)" class="st7 st8 st9"> </text> <text transform="matrix(1 0 0 1 94.9803 161.5104)" class="st7 st8 st9">/</text> <text transform="matrix(1 0 0 1 98.6853 161.5104)" class="st7 st8 st9"> </text> <text transform="matrix(1 0 0 1 101.0603 161.5104)" class="st7 st8 st9">Y</text> <text transform="matrix(1 0 0 1 105.7058 161.5104)" class="st7 st8 st9">e</text> <text transform="matrix(1 0 0 1 110.9213 161.5104)" class="st7 st8 st9">a</text> <text transform="matrix(1 0 0 1 116.0513 161.5104)" class="st7 st8 st9">r</text> <text transform="matrix(1 0 0 1 120.3168 161.5104)" class="st7 st8 st9"> </text> <text transform="matrix(1 0 0 1 122.6918 161.5104)" class="st7 st8 st9">5</text> </g> <g id="Layer-1_57_"> <path class="st4" d="M6.2,157.1h2.9l-1.4-1.9L6.2,157.1z"></path> <path class="st4" d="M6.2,160.8h2.9l-1.4-1.9L6.2,160.8z"></path> <path class="st4" d="M6.2,164.6h2.9l-1.4-1.9L6.2,164.6z"></path> <path class="st4" d="M6.2,153.3h2.9l-1.4-1.9L6.2,153.3z"></path> </g> <g id="Layer-1_62_"> <path class="st4" d="M6.2,136.5h2.9l-1.4-1.9L6.2,136.5z"></path> <path class="st4" d="M6.2,140.3h2.9l-1.4-1.9L6.2,140.3z"></path> <path class="st4" d="M6.2,144h2.9l-1.4-1.9L6.2,144z"></path> <path class="st4" d="M6.2,132.7h2.9l-1.4-1.9L6.2,132.7z"></path> </g> <g id="Layer-1_65_"> <path class="st4" d="M6.2,115.2h2.9l-1.4-1.9L6.2,115.2z"></path> <path class="st4" d="M6.2,119h2.9l-1.4-1.9L6.2,119z"></path> <path class="st4" d="M6.2,122.7h2.9l-1.4-1.9L6.2,122.7z"></path> <path class="st4" d="M6.2,111.4h2.9l-1.4-1.9L6.2,111.4z"></path> </g> <g id="Layer-1_68_"> <path class="st4" d="M6.2,94.2h2.9l-1.4-1.9L6.2,94.2z"></path> <path class="st4" d="M6.2,97.9h2.9L7.7,96L6.2,97.9z"></path> <path class="st4" d="M6.2,101.7h2.9l-1.4-1.9L6.2,101.7z"></path> <path class="st4" d="M6.2,90.4h2.9l-1.4-1.9L6.2,90.4z"></path> </g> <g id="Layer-1_71_"> <path class="st4" d="M6.2,73.6h2.9l-1.4-1.9L6.2,73.6z"></path> <path class="st4" d="M6.2,77.4h2.9l-1.4-1.9L6.2,77.4z"></path> <path class="st4" d="M6.2,81.1h2.9l-1.4-1.9L6.2,81.1z"></path> <path class="st4" d="M6.2,69.8h2.9L7.7,68L6.2,69.8z"></path> </g> <g id="Layer-1_74_"> <path class="st4" d="M6.2,52.8h2.9l-1.4-1.9L6.2,52.8z"></path> <path class="st4" d="M6.2,56.6h2.9l-1.4-1.9L6.2,56.6z"></path> <path class="st4" d="M6.2,60.3h2.9l-1.4-1.9L6.2,60.3z"></path> <path class="st4" d="M6.2,49h2.9l-1.4-1.9L6.2,49z"></path> </g> <g id="Layer-1_76_"> <path class="st4" d="M6.2,33.8h2.9l-1.4-1.9L6.2,33.8z"></path> <path class="st4" d="M6.2,37.5h2.9l-1.4-1.9L6.2,37.5z"></path> <path class="st4" d="M6.2,41.3h2.9l-1.4-1.9L6.2,41.3z"></path> <path class="st4" d="M6.2,30h2.9l-1.4-1.9L6.2,30z"></path> </g> </svg> 