<?xml version="1.0" encoding="utf-8"?>
<!-- Generator: Adobe Illustrator 26.2.1, SVG Export Plug-In . SVG Version: 6.00 Build 0)  -->
<svg version="1.1" id="Ebene_1" xmlns="http://www.w3.org/2000/svg" xmlns:xlink="http://www.w3.org/1999/xlink" x="0px" y="0px"
	 viewBox="0 0 1000 702.95" style="enable-background:new 0 0 1000 702.95;" xml:space="preserve">
<style type="text/css">
	.st0{fill:#A2B9E1;}
	.st1{fill:#6796CF;}
	.st2{clip-path:url(#SVGID_00000053513068066956477290000015777140506931803059_);}
	.st3{fill:#2B2961;}
	.st4{fill:#FFFFFF;}
	.st5{clip-path:url(#SVGID_00000026123688684676134820000010520857927544506262_);}
	.st6{clip-path:url(#SVGID_00000115489648421123941230000011986280590918950803_);}
	.st7{clip-path:url(#SVGID_00000061450372592974973040000012359342729169499046_);}
	.st8{clip-path:url(#SVGID_00000137119490614234826130000009864517428009571713_);}
	.st9{clip-path:url(#SVGID_00000123412653278603852390000010556768539045547939_);}
	.st10{opacity:0.52;clip-path:url(#SVGID_00000178190385295845486180000013832209140470582972_);}
	.st11{clip-path:url(#SVGID_00000173141228019907926300000008012235406965888661_);}
	.st12{clip-path:url(#SVGID_00000138546469076677852480000005609427154687426177_);}
	.st13{clip-path:url(#SVGID_00000135664651991581400110000013749965624646456733_);}
	.st14{clip-path:url(#SVGID_00000106842197764655304670000010684195576498055065_);}
	.st15{clip-path:url(#SVGID_00000124858162582880865840000010929132638473699763_);}
	.st16{clip-path:url(#SVGID_00000101823433306472910570000011983500022445850281_);}
	.st17{clip-path:url(#SVGID_00000073705455425858224760000008367019331126643881_);}
	.st18{clip-path:url(#SVGID_00000168825548428979127260000015875641375780245153_);}
	.st19{clip-path:url(#SVGID_00000134964854343358686680000014480916975522385042_);}
	.st20{clip-path:url(#SVGID_00000111178268880499395410000005399895102640874380_);}
	.st21{clip-path:url(#SVGID_00000022546183503238793050000013807951851132755375_);}
	.st22{clip-path:url(#SVGID_00000098917290600422867030000003038533652142708884_);}
	.st23{fill:none;stroke:#2B2961;stroke-width:0.374;stroke-linejoin:round;stroke-miterlimit:10;}
	.st24{fill:none;stroke:#2B2961;stroke-width:0.4;stroke-miterlimit:10;}
	.st25{clip-path:url(#SVGID_00000102544510156373259770000009209934956439438228_);}
	.st26{clip-path:url(#SVGID_00000168809505662197195850000011058477597189989293_);}
	.st27{clip-path:url(#SVGID_00000047783104935617454710000001005806942639756734_);}
	.st28{clip-path:url(#SVGID_00000125570201943657019760000016158108536641906085_);}
	.st29{clip-path:url(#SVGID_00000068648379746146708600000018055744691856618913_);}
	.st30{clip-path:url(#SVGID_00000027602818816075389540000004545793274512255900_);}
	.st31{clip-path:url(#SVGID_00000099627011138638239340000011642017218706880671_);}
	.st32{clip-path:url(#SVGID_00000082326930269205736780000014831453352352094102_);}
	.st33{clip-path:url(#SVGID_00000085928896363795745960000010606701756322066859_);}
	.st34{clip-path:url(#SVGID_00000177480264985558172260000001589119407924594088_);}
	.st35{clip-path:url(#SVGID_00000086650316388763914310000000657604544075377322_);}
	.st36{clip-path:url(#SVGID_00000122692799024223702110000012201111419494173076_);}
	.st37{clip-path:url(#SVGID_00000161602382033503017020000014127571851102226856_);}
	.st38{clip-path:url(#SVGID_00000060008863289489247590000007537510459981402546_);}
	.st39{clip-path:url(#SVGID_00000147926790692498779970000016700845848765692823_);}
	.st40{clip-path:url(#SVGID_00000128444724319120710470000007669281986627560077_);}
	.st41{clip-path:url(#SVGID_00000051343895965147023450000008910514958400000437_);}
	.st42{clip-path:url(#SVGID_00000003816739141904830330000010251668606195037105_);}
	.st43{clip-path:url(#SVGID_00000070809991245529781530000017325739497043965827_);}
	.st44{clip-path:url(#SVGID_00000098914931307409149020000008779700796036384436_);}
	.st45{clip-path:url(#SVGID_00000154389652979595262100000013622877195829740673_);}
	.st46{clip-path:url(#SVGID_00000085965244886061728910000009379035863542586772_);}
	.st47{clip-path:url(#SVGID_00000079454484540334275590000010897069580076102808_);}
	.st48{clip-path:url(#SVGID_00000108273685964247652630000013261929961310616719_);}
	.st49{clip-path:url(#SVGID_00000130626006143998424450000003624142655451179906_);}
	.st50{clip-path:url(#SVGID_00000109745017627637425640000015326915587152413087_);}
	.st51{clip-path:url(#SVGID_00000117652833765968370390000008462425973445620387_);}
	.st52{clip-path:url(#SVGID_00000129891454308335040450000010295594617991263372_);}
	.st53{clip-path:url(#SVGID_00000118370195442215816790000010508414703754915742_);}
	.st54{clip-path:url(#SVGID_00000007392748449114609300000001665168008010194606_);}
	.st55{clip-path:url(#SVGID_00000080927045252077549130000003874274250246839696_);}
	.st56{clip-path:url(#SVGID_00000160870455619310915430000007567718375550074511_);}
	.st57{clip-path:url(#SVGID_00000003793577809430274960000009616939915405559709_);}
	.st58{clip-path:url(#SVGID_00000080165941318969188740000006240980140739169190_);}
	.st59{clip-path:url(#SVGID_00000085245089053116592110000007275134571236428726_);}
	.st60{clip-path:url(#SVGID_00000100363922378126645940000009473613489619179416_);}
	.st61{clip-path:url(#SVGID_00000001628939248489147000000003276475083868886662_);}
	.st62{fill:#9AB4DE;}
	.st63{clip-path:url(#SVGID_00000067196022974962701390000001777119002755420827_);}
	.st64{clip-path:url(#SVGID_00000032641227175382551700000011076373854073385131_);}
	.st65{clip-path:url(#SVGID_00000115487085372993814620000016327690001750007225_);}
	.st66{fill:#B9C9E9;}
	.st67{clip-path:url(#SVGID_00000078035291534104675500000009350737661233895318_);}
	.st68{clip-path:url(#SVGID_00000180354358183314881850000016761906396266012351_);}
	.st69{clip-path:url(#SVGID_00000135654626567875583100000008719845498990304444_);}
	.st70{clip-path:url(#SVGID_00000025439695540580711900000015590309549560799381_);}
	.st71{clip-path:url(#SVGID_00000005249401438162465300000003281939030560919984_);}
	.st72{clip-path:url(#SVGID_00000009551792926775085630000013413088162957906596_);}
	.st73{clip-path:url(#SVGID_00000048467778790981352370000017664400120533774254_);}
	.st74{clip-path:url(#SVGID_00000039851580948163194770000003031445891207840959_);}
	.st75{clip-path:url(#SVGID_00000173142336696372702140000013968676388802329260_);}
	.st76{clip-path:url(#SVGID_00000036966692847969923190000016028818616488952254_);}
	.st77{clip-path:url(#SVGID_00000075136328834524574610000002566614305930829706_);}
	.st78{clip-path:url(#SVGID_00000079468841390228102680000011584503485289183907_);}
	.st79{clip-path:url(#SVGID_00000010268247640305149070000009136874092401004429_);}
	.st80{clip-path:url(#SVGID_00000147939327657882837840000006735313717748935598_);}
	.st81{clip-path:url(#SVGID_00000074444030220120977260000014984782508296184471_);}
	.st82{clip-path:url(#SVGID_00000073683129671040674300000015365432630747240340_);}
	.st83{clip-path:url(#SVGID_00000083787487838554006880000012155234335428514206_);}
	.st84{clip-path:url(#SVGID_00000116213143469038462770000006845258085636971190_);}
	.st85{clip-path:url(#SVGID_00000183226803076152186250000009320541718157886853_);}
	.st86{clip-path:url(#SVGID_00000144300778062773743850000010441405889258396862_);}
	.st87{clip-path:url(#SVGID_00000108287816456583391420000000009411763132643739_);}
	.st88{clip-path:url(#SVGID_00000157309351199772219840000001432350090110550178_);}
	.st89{clip-path:url(#SVGID_00000165207253676961031450000005785747677675199361_);}
	.st90{clip-path:url(#SVGID_00000046299202709315095180000002326165707097741208_);}
	.st91{clip-path:url(#SVGID_00000081632818700569652200000007580021341626568838_);}
	.st92{clip-path:url(#SVGID_00000140001436570793576200000008765170927474101166_);}
	.st93{clip-path:url(#SVGID_00000165213236885554204640000007607291343782239417_);}
	.st94{clip-path:url(#SVGID_00000054226311002197721570000010119557075828785294_);}
	.st95{clip-path:url(#SVGID_00000139256437853157356830000006422359293867507636_);}
	.st96{clip-path:url(#SVGID_00000094609014467062925150000009108210227446145683_);}
	.st97{clip-path:url(#SVGID_00000128476129215575457310000002135388684177523844_);}
	.st98{clip-path:url(#SVGID_00000096023624271351009980000011923652396860265100_);}
	.st99{clip-path:url(#SVGID_00000166650409713993363360000017677309557666742919_);}
	.st100{clip-path:url(#SVGID_00000110436257373033592780000010115898563884809365_);}
	.st101{clip-path:url(#SVGID_00000039100700534270317410000009655584462953988019_);}
	.st102{clip-path:url(#SVGID_00000034071665948514406850000008975427302212999346_);}
	.st103{clip-path:url(#SVGID_00000057849994105709038260000001888914579151702422_);}
	.st104{clip-path:url(#SVGID_00000003824902765161318860000002238914080227464856_);}
	.st105{clip-path:url(#SVGID_00000128486469105451045180000012217444507050930108_);}
	.st106{clip-path:url(#SVGID_00000038409260018342716210000000660777157451815078_);}
	.st107{clip-path:url(#SVGID_00000031908180694176290000000009221913564135566992_);}
	.st108{clip-path:url(#SVGID_00000111896231064172691310000005066430197953853320_);}
	.st109{clip-path:url(#SVGID_00000085962006700540589320000006037176788763700368_);}
	.st110{clip-path:url(#SVGID_00000085942952864747740350000001625023171392175494_);}
	.st111{clip-path:url(#SVGID_00000022530465867585386610000017641848438689532552_);}
	.st112{clip-path:url(#SVGID_00000085947113565009834210000014388407304964763524_);}
	.st113{clip-path:url(#SVGID_00000096781419388234347840000013134586156667847592_);}
	.st114{clip-path:url(#SVGID_00000070808836105263740950000000683536016925890236_);}
	.st115{clip-path:url(#SVGID_00000029036811001926328490000010303789814581696385_);}
	.st116{clip-path:url(#SVGID_00000018931822021665942160000009304246249205190792_);}
	.st117{clip-path:url(#SVGID_00000132767897938413440170000011165176228662013107_);}
	.st118{clip-path:url(#SVGID_00000142887899529931198400000012354420582518573204_);}
	.st119{clip-path:url(#SVGID_00000164498531839392772430000000683490924510695602_);}
	.st120{clip-path:url(#SVGID_00000109016556512431368520000016401216086214186113_);}
	.st121{clip-path:url(#SVGID_00000160174607181777415770000015727248121501840570_);}
	.st122{clip-path:url(#SVGID_00000160182021719258350390000017382628827375657128_);}
	.st123{clip-path:url(#SVGID_00000161630223093796576720000002735494798417913738_);}
	.st124{clip-path:url(#SVGID_00000083810347911809066620000016762081443779204487_);}
	.st125{clip-path:url(#SVGID_00000091002265397564552560000003332140881096485305_);}
	.st126{clip-path:url(#SVGID_00000153681933424712275050000000019526287941153691_);}
	.st127{clip-path:url(#SVGID_00000005262131690234394770000000681346150013720232_);}
	.st128{clip-path:url(#SVGID_00000072274145215734641520000011203319840318908312_);}
	.st129{clip-path:url(#SVGID_00000077316097071660586090000001781913307182313360_);}
	.st130{clip-path:url(#SVGID_00000158026670053455901880000012429033314356419496_);}
	.st131{clip-path:url(#SVGID_00000031193835929233766560000002807561621738087094_);}
	.st132{clip-path:url(#SVGID_00000170247480201463662910000015925267581476474517_);}
	.st133{clip-path:url(#SVGID_00000037674734241759928550000018125323440772229308_);}
	.st134{clip-path:url(#SVGID_00000099632940708082364710000013693476861930341001_);}
	.st135{clip-path:url(#SVGID_00000177470958400365145940000013516511208747150769_);}
	.st136{clip-path:url(#SVGID_00000167390689817139014880000002799027517482319037_);}
	.st137{clip-path:url(#SVGID_00000140699216537123702010000011393730152847846030_);}
	.st138{clip-path:url(#SVGID_00000183950535696976367820000018124153086606691731_);}
	.st139{clip-path:url(#SVGID_00000128454470317491532960000015853424409302514594_);}
	.st140{clip-path:url(#SVGID_00000024705072932507335250000002567547285258827964_);}
	.st141{clip-path:url(#SVGID_00000052797924718802585610000006764401270650034096_);}
	.st142{clip-path:url(#SVGID_00000086681039355035687060000005000634125838196877_);}
	.st143{clip-path:url(#SVGID_00000113319748278912369930000016581924169859553417_);}
	.st144{clip-path:url(#SVGID_00000139982363253428166260000005086676532525231013_);}
	.st145{clip-path:url(#SVGID_00000005240434731584423120000011865267109434665887_);}
	.st146{clip-path:url(#SVGID_00000018208789745213574420000012798063082517540766_);}
	.st147{clip-path:url(#SVGID_00000114050616504784143450000017694063039874433667_);}
	.st148{clip-path:url(#SVGID_00000181776778145527722150000006196164068505387924_);}
	.st149{clip-path:url(#SVGID_00000008145883717793859650000010252003909787957407_);}
	.st150{clip-path:url(#SVGID_00000003106787078822631120000010506319174265750443_);}
	.st151{clip-path:url(#SVGID_00000056390099667516329880000017714350688267474581_);}
	.st152{clip-path:url(#SVGID_00000001636559238394509220000009380736868324259490_);}
	.st153{clip-path:url(#SVGID_00000117676734335424624060000013126366486812514983_);}
	.st154{clip-path:url(#SVGID_00000031198957953524257370000013853874048102422681_);}
	.st155{clip-path:url(#SVGID_00000044137133794425843060000015478984742636790968_);}
	.st156{clip-path:url(#SVGID_00000003814374731183900240000008659924312284336536_);}
	.st157{clip-path:url(#SVGID_00000042731021769715195920000006508834775828047520_);}
	.st158{clip-path:url(#SVGID_00000106830795022050532520000005018659226889652148_);}
	.st159{clip-path:url(#SVGID_00000175302324713370586790000005525010394355562426_);}
	.st160{clip-path:url(#SVGID_00000126302250045881205650000018274305510415597733_);}
	.st161{clip-path:url(#SVGID_00000040548085230276287170000018020200430017245372_);}
	.st162{clip-path:url(#SVGID_00000068673031621058310270000001920031555054317212_);}
	.st163{clip-path:url(#SVGID_00000073684047466326527170000010641067356535206794_);}
	.st164{clip-path:url(#SVGID_00000171717842457975776300000002130855458057344677_);}
	.st165{clip-path:url(#SVGID_00000171704289463989653180000011496403845551813505_);}
	.st166{clip-path:url(#SVGID_00000147205827408387326350000012098543300620419987_);}
	.st167{clip-path:url(#SVGID_00000178179059661749573100000005456121094061799595_);}
	.st168{clip-path:url(#SVGID_00000126316692794249788190000001054720320705053619_);}
	.st169{clip-path:url(#SVGID_00000054965289424770741880000004632689276698906807_);}
	.st170{clip-path:url(#SVGID_00000070823887006920273820000009921341068553469573_);}
	.st171{clip-path:url(#SVGID_00000170991942464938439870000015621675602995187114_);}
	.st172{clip-path:url(#SVGID_00000114057382592645055310000014669403168618499488_);}
	.st173{clip-path:url(#SVGID_00000048488228654591785860000012872788584777061540_);}
	.st174{clip-path:url(#SVGID_00000181070913449251865170000001394439634820317628_);}
	.st175{clip-path:url(#SVGID_00000081622911074533705840000016755949588599073176_);}
	.st176{clip-path:url(#SVGID_00000003094389619704260570000009360664828180470172_);}
	.st177{clip-path:url(#SVGID_00000010313224888796420020000000206586488183259543_);}
	.st178{clip-path:url(#SVGID_00000145754186928552153450000012027429881389994632_);}
	.st179{clip-path:url(#SVGID_00000027579022250415043540000017101442703384938912_);}
	.st180{clip-path:url(#SVGID_00000151515102506311979260000001116540337255405997_);}
	.st181{clip-path:url(#SVGID_00000114031720501300297150000002368935179931110818_);}
	.st182{clip-path:url(#SVGID_00000060742581574645195470000002054376221355807918_);}
	.st183{clip-path:url(#SVGID_00000093166209025681517630000011938497682974583992_);}
	.st184{clip-path:url(#SVGID_00000029742711109583214790000001669989974258036626_);}
	.st185{clip-path:url(#SVGID_00000026149066599878048070000002889380904453775760_);}
	.st186{clip-path:url(#SVGID_00000147915525673328464850000018076251719746353565_);}
	.st187{clip-path:url(#SVGID_00000042009989151236735950000003181506738394106547_);}
	.st188{clip-path:url(#SVGID_00000019655664469762923270000013016178879840914048_);}
	.st189{clip-path:url(#SVGID_00000005979531647208035610000015257869928366579081_);}
	.st190{clip-path:url(#SVGID_00000095307527862080449500000002801573773419752105_);}
	.st191{clip-path:url(#SVGID_00000126290244567714591290000017416378655831611327_);}
	.st192{clip-path:url(#SVGID_00000155105988004361476630000005556854186572868750_);}
	.st193{clip-path:url(#SVGID_00000133490796046850452550000005753170231203815050_);}
	.st194{clip-path:url(#SVGID_00000134944092893781782700000006241175866493602475_);}
	.st195{clip-path:url(#SVGID_00000049943043109947587340000013043460891534141349_);}
	.st196{clip-path:url(#SVGID_00000088845845261107908400000012673244817061466292_);}
	.st197{clip-path:url(#SVGID_00000098909983055268372670000002207642663933408669_);}
	.st198{clip-path:url(#SVGID_00000173853634349687938210000016970912788905706124_);}
	.st199{clip-path:url(#SVGID_00000050655855517852680930000009791204314422178217_);}
	.st200{clip-path:url(#SVGID_00000155105172157745408340000008656910458923295108_);}
	.st201{clip-path:url(#SVGID_00000004524363799800320590000014441092908575251126_);}
	.st202{clip-path:url(#SVGID_00000003796590205051170200000017592326122758330280_);}
	.st203{clip-path:url(#SVGID_00000103232982773620531770000009979919706621830836_);}
	.st204{clip-path:url(#SVGID_00000112606993021170178560000015806335909852993673_);}
	.st205{clip-path:url(#SVGID_00000112601352721594042970000011697847261321727931_);}
	.st206{clip-path:url(#SVGID_00000067921386618726654410000013311316856540064959_);}
	.st207{clip-path:url(#SVGID_00000134956537358201366320000008679727346926121130_);}
	.st208{clip-path:url(#SVGID_00000119814296291662189960000017756926452965553546_);}
	.st209{clip-path:url(#SVGID_00000110453859781038865180000009172422147838773695_);}
	.st210{clip-path:url(#SVGID_00000000209335816848390980000000038414838480316807_);}
	.st211{clip-path:url(#SVGID_00000153705273251251564500000000870464948827300252_);}
	.st212{clip-path:url(#SVGID_00000060016733750312279590000016699084951536780711_);}
	.st213{clip-path:url(#SVGID_00000123422611847903077920000012672321606214734764_);}
	.st214{clip-path:url(#SVGID_00000158750144716963880690000016342008564800265130_);}
	.st215{clip-path:url(#SVGID_00000065769582898024001130000008023561032019084446_);}
	.st216{clip-path:url(#SVGID_00000080188170050381939750000005156774373038811022_);}
	.st217{clip-path:url(#SVGID_00000019658591519365867420000003001266170487203981_);}
	.st218{clip-path:url(#SVGID_00000160894537739930691520000008915064372597290396_);}
	.st219{clip-path:url(#SVGID_00000018916202229454273990000016737880221120879232_);}
	.st220{clip-path:url(#SVGID_00000028303349875360348310000009691822480866230671_);}
	.st221{clip-path:url(#SVGID_00000101790350004868172100000001141449891578269357_);}
	.st222{clip-path:url(#SVGID_00000076588332634009765440000007310230967657316999_);}
	.st223{clip-path:url(#SVGID_00000001657246137702954580000005854649529574261658_);}
	.st224{clip-path:url(#SVGID_00000116222013738156316240000007444776374812118940_);}
	.st225{clip-path:url(#SVGID_00000107577361415932899990000011607708518087499672_);}
	.st226{clip-path:url(#SVGID_00000146479652069100226300000014191260487157401499_);}
	.st227{clip-path:url(#SVGID_00000007403135515118704780000015789602004536376999_);}
	.st228{clip-path:url(#SVGID_00000059292784383009615660000007790258013594759348_);}
	.st229{clip-path:url(#SVGID_00000162309815151635573670000015212478749404111030_);}
	.st230{clip-path:url(#SVGID_00000097488284040779944730000016340535416925801660_);}
	.st231{clip-path:url(#SVGID_00000182508853909465238350000011945740822977555359_);}
	.st232{clip-path:url(#SVGID_00000144304503246462680520000008008012519044049038_);}
	.st233{clip-path:url(#SVGID_00000039094201686593218260000012329884485869090965_);}
	.st234{clip-path:url(#SVGID_00000070092555500981408980000006935783200287123124_);}
	.st235{clip-path:url(#SVGID_00000137829861003626022770000001803046537430553489_);}
	.st236{clip-path:url(#SVGID_00000071524978585433454940000011308553805544555183_);}
	.st237{clip-path:url(#SVGID_00000013188557076807505420000017309688437723452070_);}
	.st238{clip-path:url(#SVGID_00000040559296722119732790000007652924596741152407_);}
	.st239{clip-path:url(#SVGID_00000079485527511948445210000010061759229059143069_);}
	.st240{clip-path:url(#SVGID_00000183215617465276163610000014695701970279240381_);}
	.st241{clip-path:url(#SVGID_00000055668802456860352990000004679533435769894064_);}
	.st242{clip-path:url(#SVGID_00000062883159447930547220000018175530156037559701_);}
	.st243{clip-path:url(#SVGID_00000004527025220128087210000001325980014785755819_);}
	.st244{clip-path:url(#SVGID_00000168838521531848886380000003226778894890945439_);}
	.st245{clip-path:url(#SVGID_00000021834502525282112170000016882810083975680132_);}
	.st246{clip-path:url(#SVGID_00000013184328801118504850000002273545624994051480_);}
	.st247{clip-path:url(#SVGID_00000181790217491447447850000009854389651833424271_);}
	.st248{clip-path:url(#SVGID_00000032613103236602732330000012743081288642920833_);}
	.st249{clip-path:url(#SVGID_00000018200870918280188670000012771764810760627112_);}
	.st250{clip-path:url(#SVGID_00000034073600458429499730000011821318373476563616_);}
	.st251{clip-path:url(#SVGID_00000090278317474225343580000018319988530731653782_);}
	.st252{clip-path:url(#SVGID_00000035494042986229092510000018409648079868116138_);}
	.st253{clip-path:url(#SVGID_00000010989051090502716870000012763138633415209124_);}
	.st254{clip-path:url(#SVGID_00000165956165781482634470000006416816662693634447_);}
	.st255{clip-path:url(#SVGID_00000091722848835722824820000006516037054030572966_);}
	.st256{clip-path:url(#SVGID_00000031189455277759324230000003584271516387459729_);}
	.st257{clip-path:url(#SVGID_00000134245578631545744750000002891770961816897685_);}
	.st258{clip-path:url(#SVGID_00000147916124138571898940000004040012942006931350_);}
	.st259{clip-path:url(#SVGID_00000092419957713926621490000002041298299278126248_);}
	.st260{clip-path:url(#SVGID_00000083058368033520971060000012085463712000029628_);}
	.st261{clip-path:url(#SVGID_00000098926896849567202190000010435073897954361253_);}
	.st262{clip-path:url(#SVGID_00000013167455984649067200000011079751605115227539_);}
	.st263{clip-path:url(#SVGID_00000003822006372576279730000016195919134076934813_);}
	.st264{clip-path:url(#SVGID_00000088832990079176202240000005654032484077659060_);}
	.st265{clip-path:url(#SVGID_00000142138045246636932440000014278731844141470596_);}
	.st266{clip-path:url(#SVGID_00000165938741956278034240000013488399484738489500_);}
	.st267{clip-path:url(#SVGID_00000022534610137292767730000000057846517923996082_);}
	.st268{clip-path:url(#SVGID_00000135682954818508317150000000758549271850790803_);}
	.st269{clip-path:url(#SVGID_00000057870784314527982310000002004215776910600609_);}
	.st270{clip-path:url(#SVGID_00000091715682738002795170000013582696037436244890_);}
	.st271{clip-path:url(#SVGID_00000119812671088914466190000001359502211791817865_);}
	.st272{clip-path:url(#SVGID_00000023245789728518878580000010748108554955743403_);}
	.st273{clip-path:url(#SVGID_00000063630050394347815480000005464914786214035626_);}
	.st274{clip-path:url(#SVGID_00000026853271523050814030000013542636713078736561_);}
	.st275{clip-path:url(#SVGID_00000057857009888941551370000016282633373635169930_);}
	.st276{clip-path:url(#SVGID_00000129896446507624823540000016080274528360407973_);}
	.st277{clip-path:url(#SVGID_00000122701920709878012860000003739031370091545765_);}
	.st278{clip-path:url(#SVGID_00000158749502227468510720000005461727382296834222_);}
	.st279{clip-path:url(#SVGID_00000093147246316540590520000002490331743017152434_);}
	.st280{clip-path:url(#SVGID_00000003079180986988214640000010660790238750215844_);}
	.st281{clip-path:url(#SVGID_00000040547119231124817310000012060884690824876688_);}
	.st282{clip-path:url(#SVGID_00000090973159590679672610000004471564961490687387_);}
	.st283{clip-path:url(#SVGID_00000083785554172747369590000010005715527207907990_);}
	.st284{clip-path:url(#SVGID_00000060019809616925481090000005003520042789217465_);}
	.st285{clip-path:url(#SVGID_00000016779516905679762290000013427733726112887221_);}
	.st286{clip-path:url(#SVGID_00000108989539140466097200000016379105359303697299_);}
	.st287{clip-path:url(#SVGID_00000083789445620742553160000006341436111753232286_);}
	.st288{clip-path:url(#SVGID_00000076562739118890084700000010464850852616955818_);}
	.st289{clip-path:url(#SVGID_00000101794335761783962080000018122839547179130548_);}
	.st290{clip-path:url(#SVGID_00000071558296922509547000000013807883412372502436_);}
	.st291{clip-path:url(#SVGID_00000176009130316041269890000017169637739973191562_);}
	.st292{clip-path:url(#SVGID_00000127746720025697798650000006157881334071449223_);}
	.st293{clip-path:url(#SVGID_00000181059322723794945180000015448874392968800681_);}
	.st294{clip-path:url(#SVGID_00000041269926959358566480000013330614374122887349_);}
	.st295{clip-path:url(#SVGID_00000170973317234903377170000003308448321815701415_);}
	.st296{clip-path:url(#SVGID_00000011717002702252029150000015036960666416025732_);}
	.st297{clip-path:url(#SVGID_00000056403923373308045480000014022356984020172200_);}
	.st298{clip-path:url(#SVGID_00000139280032210629847890000003960288487583616394_);}
	.st299{clip-path:url(#SVGID_00000156558106811082147480000000642120345221499314_);}
	.st300{clip-path:url(#SVGID_00000086663286217884006000000001997638995515349687_);}
	.st301{clip-path:url(#SVGID_00000173872686631940857230000005120182236504432564_);}
	.st302{clip-path:url(#SVGID_00000127044539145903518760000001488230063152771259_);}
	.st303{clip-path:url(#SVGID_00000113342408285591533170000012626017530075012270_);}
	.st304{clip-path:url(#SVGID_00000167361185292101816140000015575239994002275995_);}
	.st305{clip-path:url(#SVGID_00000163786421554896606890000003927815638084932516_);}
	.st306{clip-path:url(#SVGID_00000044163352970593689060000005348644091526713248_);}
	.st307{clip-path:url(#SVGID_00000150798677213234099900000005033256438594137261_);}
	.st308{clip-path:url(#SVGID_00000158729761486091207170000009834516785212435629_);}
	.st309{clip-path:url(#SVGID_00000046307454426989605030000016328737303442656677_);}
	.st310{clip-path:url(#SVGID_00000110454171201314600100000005152913416802035120_);}
	.st311{clip-path:url(#SVGID_00000081621581857216254560000010921270988351005588_);}
	.st312{clip-path:url(#SVGID_00000077310169683131231070000003265369486441787069_);}
	.st313{clip-path:url(#SVGID_00000142862447391138502710000004093437583013411222_);}
	.st314{clip-path:url(#SVGID_00000072282622215394172130000017601849766665239954_);}
	.st315{clip-path:url(#SVGID_00000114059177971605073590000010737266769757201287_);}
	.st316{clip-path:url(#SVGID_00000004514116958366644250000014288367203549381796_);}
	.st317{clip-path:url(#SVGID_00000072262356028946378950000001461479675848198306_);}
	.st318{clip-path:url(#SVGID_00000114058428750232268870000018283039458065897637_);}
	.st319{clip-path:url(#SVGID_00000134943122831279088310000004797811845826129321_);}
	.st320{clip-path:url(#SVGID_00000027587343599406372830000016514254660905944217_);}
	.st321{clip-path:url(#SVGID_00000053547038591145272710000003128626959302207645_);}
	.st322{clip-path:url(#SVGID_00000120534346903544501430000012381649375691006902_);}
	.st323{clip-path:url(#SVGID_00000165922804292430602840000003469922200994276497_);}
	.st324{clip-path:url(#SVGID_00000103261046893854409000000017311755954347803532_);}
	.st325{clip-path:url(#SVGID_00000093154985041637625400000000949099890896461720_);}
	.st326{clip-path:url(#SVGID_00000042003481046663942920000011494987504610839938_);}
	.st327{clip-path:url(#SVGID_00000024696705167836919330000004721836398527981961_);}
	.st328{clip-path:url(#SVGID_00000052073336481250629850000010860475622534611083_);}
	.st329{clip-path:url(#SVGID_00000159454603534293643950000007107897404290390203_);}
	.st330{clip-path:url(#SVGID_00000018952763853588395820000005032839501987402882_);}
	.st331{clip-path:url(#SVGID_00000093161107604694682300000016916592165950648741_);}
	.st332{clip-path:url(#SVGID_00000108285791794205623040000003013591035366587543_);}
	.st333{clip-path:url(#SVGID_00000122678349977416260240000006842965379192926343_);}
	.st334{clip-path:url(#SVGID_00000049223696996998600500000008972684551175152277_);}
	.st335{clip-path:url(#SVGID_00000065074050629820879710000010820120155841491376_);}
	.st336{clip-path:url(#SVGID_00000172441582895363593120000003363843210855285384_);}
	.st337{clip-path:url(#SVGID_00000155868629012654374910000014698178980417155505_);}
	.st338{clip-path:url(#SVGID_00000005237341019587805240000011210273335127219586_);}
	.st339{clip-path:url(#SVGID_00000069383109488530659820000008454967835674540986_);}
	.st340{clip-path:url(#SVGID_00000059284441108445119780000007317442361384198058_);}
	.st341{clip-path:url(#SVGID_00000101068003529446758470000014259019755087417223_);}
	.st342{clip-path:url(#SVGID_00000098211362961644669760000001148910699789115040_);}
	.st343{clip-path:url(#SVGID_00000152259778472236620560000009599791005236638888_);}
	.st344{clip-path:url(#SVGID_00000101074931900470376220000001746128096417855414_);}
	.st345{clip-path:url(#SVGID_00000144309068694913916710000004439633432563910586_);}
	.st346{clip-path:url(#SVGID_00000120560436078939131240000008578856265949554864_);}
	.st347{clip-path:url(#SVGID_00000120516995192215116510000014067398550431389345_);}
	.st348{clip-path:url(#SVGID_00000013876894202461103230000009446019826613873576_);}
	.st349{clip-path:url(#SVGID_00000127758963571626574070000017061592835630402947_);}
	.st350{clip-path:url(#SVGID_00000029030719659621559100000018019662367242042518_);}
	.st351{clip-path:url(#SVGID_00000119109298319108029660000000337192985318274980_);}
	.st352{clip-path:url(#SVGID_00000076603225378540700340000004094687990719611556_);}
	.st353{clip-path:url(#SVGID_00000088852262891618994930000008135780280235679626_);}
	.st354{clip-path:url(#SVGID_00000013874855938883358030000005767662597786646969_);}
	.st355{clip-path:url(#SVGID_00000114050973464483335920000014527926070395067795_);}
	.st356{clip-path:url(#SVGID_00000178188359624088025280000012660800528732281239_);}
	.st357{clip-path:url(#SVGID_00000016046405886552003040000005647736418917375111_);}
	.st358{clip-path:url(#SVGID_00000046305041363059715960000011685770996203114685_);}
	.st359{clip-path:url(#SVGID_00000032633493085827624380000015214916176464066956_);}
	.st360{clip-path:url(#SVGID_00000035518218702074038630000017837343991675468937_);}
	.st361{clip-path:url(#SVGID_00000170259006741510231350000005862395607905918635_);}
	.st362{clip-path:url(#SVGID_00000014631231694733521290000014457455629217560233_);}
	.st363{clip-path:url(#SVGID_00000180354550928057337650000011502891748750849410_);}
	.st364{clip-path:url(#SVGID_00000132790087241701165190000008407027573902728861_);}
	.st365{clip-path:url(#SVGID_00000085216644944380756160000010006647175836064129_);}
	.st366{clip-path:url(#SVGID_00000111184678050528868130000013724426784899111840_);}
	.st367{clip-path:url(#SVGID_00000158723064670096128000000002635553225149661583_);}
	.st368{clip-path:url(#SVGID_00000043437941149087529040000009493139774927760571_);}
	.st369{clip-path:url(#SVGID_00000137810640251214284460000005415892729396527777_);}
	.st370{clip-path:url(#SVGID_00000104664308842091483630000015555072215223367054_);}
	.st371{clip-path:url(#SVGID_00000062187379383000518490000013544343306685657993_);}
	.st372{clip-path:url(#SVGID_00000171704168932079539360000001751425189496782010_);}
	.st373{clip-path:url(#SVGID_00000021089305625803601600000014102820508774109626_);}
	.st374{clip-path:url(#SVGID_00000044888674132995724770000005138712973006358676_);}
	.st375{clip-path:url(#SVGID_00000002369976645115045110000004794631734646006953_);}
</style>
<g>
	<g>
		<g>
			<rect x="5.68" y="109.98" class="st0" width="48.54" height="588.48"/>
		</g>
	</g>
	<g>
		<g>
			<rect x="5.68" class="st1" width="992.64" height="116.88"/>
		</g>
	</g>
	<g>
		<defs>
			<rect id="SVGID_1_" y="0" width="1000" height="702.95"/>
		</defs>
		<clipPath id="SVGID_00000088122907515347463930000011264904710946750361_">
			<use xlink:href="#SVGID_1_"  style="overflow:visible;"/>
		</clipPath>
		<g style="clip-path:url(#SVGID_00000088122907515347463930000011264904710946750361_);">
			<g>
				<path class="st3" d="M998.31,702.95H2.81c-0.93,0-1.69-0.75-1.69-1.68V2.81c0-0.93,0.75-1.68,1.69-1.68h995.5
					c0.93,0,1.69,0.75,1.69,1.68v698.45C1000,702.19,999.25,702.95,998.31,702.95z M4.5,699.58h992.13V4.49H4.5V699.58z"/>
			</g>
		</g>
		<g style="clip-path:url(#SVGID_00000088122907515347463930000011264904710946750361_);">
			<g>
				<rect x="0" y="115.19" class="st3" width="995.5" height="3.37"/>
			</g>
		</g>
		<g style="clip-path:url(#SVGID_00000088122907515347463930000011264904710946750361_);">
			<g>
				<path class="st4" d="M845.81,69.08c0-6.43-3.8-10.45-11.32-11.18l-5.99-0.59c-3.36-0.29-3.94-1.9-3.94-3.29
					c0-1.9,1.61-3.65,5.41-3.65c3.29,0,6.65,0.58,8.84,2.56l5.84-5.91c-3.65-3.43-8.62-4.45-14.54-4.45
					c-7.74,0-14.68,4.23-14.68,12.11c0,7.02,4.24,10.01,11.1,10.67l5.99,0.58c2.99,0.29,4.02,1.61,4.02,3.51
					c0,2.85-3.43,3.95-6.72,3.95c-2.92,0-7.01-0.44-10.15-3.58l-6.21,6.21c4.82,4.82,10.23,5.47,16.22,5.47
					C838.65,81.5,845.81,77.48,845.81,69.08 M808.19,69.08c0-6.43-3.8-10.45-11.32-11.18l-5.99-0.59c-3.36-0.29-3.94-1.9-3.94-3.29
					c0-1.9,1.61-3.65,5.41-3.65c3.29,0,6.65,0.58,8.84,2.56l5.84-5.91c-3.65-3.43-8.62-4.45-14.54-4.45
					c-7.74,0-14.68,4.23-14.68,12.11c0,7.02,4.24,10.01,11.1,10.67l5.99,0.58c2.99,0.29,4.02,1.61,4.02,3.51
					c0,2.85-3.43,3.95-6.72,3.95c-2.92,0-7.01-0.44-10.15-3.58l-6.21,6.21c4.82,4.82,10.23,5.47,16.22,5.47
					C801.03,81.5,808.19,77.48,808.19,69.08 M767.42,81.06V43.01h-9.49v23.01c0,5.19-3.36,6.94-6.36,6.94c-3,0-6.29-1.75-6.29-6.94
					V43.01h-9.49v24.33c0,4.16,0.8,7.74,3.87,10.81c2.11,2.11,5.18,3.35,8.98,3.35c3.51,0,7.02-1.31,9.5-3.94v3.5H767.42z
					 M727.17,81.06v-8.02h-3.65c-2.41,0-3.36-1.17-3.36-3.43V29.06h-9.49v41.13c0,5.4,3.28,10.87,11.09,10.87H727.17z M699.34,81.06
					V56.44c0-8.04-4.38-13.87-12.7-13.87c-3.36,0-6.58,1.31-9.14,3.94V29.06h-9.48v52h9.48V57.83c0-4.97,3.14-6.72,6.14-6.72
					c2.99,0,6.21,1.68,6.21,6.72v23.23H699.34z M659.16,76.32l-6.43-6.36c-1.97,2.12-3.65,3-6.14,3c-2.26,0-4.02-0.8-5.41-2.49
					c-1.46-1.83-2.12-4.46-2.12-8.47c0-4.02,0.66-6.58,2.12-8.41c1.39-1.68,3.14-2.48,5.41-2.48c2.48,0,4.16,0.88,6.14,2.99
					l6.43-6.42c-3.36-3.51-7.3-5.11-12.56-5.11c-7.6,0-17.01,4.01-17.01,19.43c0,15.41,9.41,19.5,17.01,19.5
					C651.86,81.5,655.8,79.82,659.16,76.32 M622.06,69.08c0-6.43-3.8-10.45-11.32-11.18l-5.99-0.59c-3.36-0.29-3.94-1.9-3.94-3.29
					c0-1.9,1.61-3.65,5.41-3.65c3.29,0,6.65,0.58,8.84,2.56l5.84-5.91c-3.65-3.43-8.62-4.45-14.54-4.45
					c-7.74,0-14.68,4.23-14.68,12.11c0,7.02,4.24,10.01,11.1,10.67l5.99,0.58c2.99,0.29,4.02,1.61,4.02,3.51
					c0,2.85-3.43,3.95-6.72,3.95c-2.92,0-7.01-0.44-10.15-3.58l-6.21,6.21c4.82,4.82,10.23,5.47,16.22,5.47
					C614.9,81.5,622.06,77.48,622.06,69.08 M573.41,62c0,6.21-0.73,10.96-6.43,10.96s-6.43-4.75-6.43-10.96
					c0-6.21,0.73-10.89,6.43-10.89S573.41,55.78,573.41,62 M582.9,62c0-5.7-0.07-12.2-3.87-16c-2.12-2.12-5.55-3.43-9.28-3.43
					c-3.87,0-6.72,1.02-9.21,3.79V29.06h-9.48v52h9.19v-3.57c2.64,2.92,5.48,4.01,9.5,4.01c3.73,0,7.16-1.31,9.28-3.43
					C582.83,74.27,582.9,67.7,582.9,62 M529.88,67.03c0,2.34-0.37,3.88-1.39,4.83c-1.68,1.61-3.37,1.83-6,1.83
					c-3.73,0-5.48-1.76-5.48-4.39c0-2.71,1.9-4.32,5.34-4.32h7.53V67.03z M539.36,81.06V56.01c0-8.91-5.55-13.44-16.21-13.44
					c-6.36,0-10.01,1.16-13.73,5.25l6.06,5.92c1.97-2.27,3.65-3.15,7.3-3.15c5.05,0,7.09,1.83,7.09,6v1.9h-8.99
					c-8.84,0-13,4.96-13,11.02c0,3.36,1.1,6.43,3.14,8.55c2.26,2.26,5.4,3.35,9.72,3.35c4.38,0,6.8-1.1,9.36-3.65v3.28H539.36z
					 M501.52,81.06v-8.02h-3.65c-2.41,0-3.36-1.17-3.36-3.43V29.06h-9.48v41.13c0,5.4,3.28,10.87,11.09,10.87H501.52z M473.25,81.06
					V43.01h-9.49v23.01c0,5.19-3.36,6.94-6.36,6.94c-2.99,0-6.29-1.75-6.29-6.94V43.01h-9.48v24.33c0,4.16,0.8,7.74,3.87,10.81
					c2.12,2.11,5.18,3.35,8.98,3.35c3.51,0,7.02-1.31,9.5-3.94v3.5H473.25z M430.38,81.06V56.44c0-8.04-4.38-13.87-12.7-13.87
					c-3.37,0-6.58,1.31-9.14,3.94V29.06h-9.49v52h9.49V57.83c0-4.97,3.14-6.72,6.14-6.72c3,0,6.21,1.68,6.21,6.72v23.23H430.38z
					 M390.2,76.32l-6.43-6.36c-1.97,2.12-3.65,3-6.14,3c-2.26,0-4.02-0.8-5.41-2.49c-1.46-1.83-2.12-4.46-2.12-8.47
					c0-4.02,0.66-6.58,2.12-8.41c1.39-1.68,3.14-2.48,5.41-2.48c2.48,0,4.16,0.88,6.14,2.99l6.43-6.42
					c-3.36-3.51-7.3-5.11-12.56-5.11c-7.6,0-17.01,4.01-17.01,19.43c0,15.41,9.42,19.5,17.01,19.5
					C382.9,81.5,386.84,79.82,390.2,76.32 M353.1,69.08c0-6.43-3.8-10.45-11.32-11.18l-5.99-0.59c-3.36-0.29-3.94-1.9-3.94-3.29
					c0-1.9,1.61-3.65,5.41-3.65c3.29,0,6.65,0.58,8.84,2.56l5.84-5.91c-3.65-3.43-8.62-4.45-14.54-4.45
					c-7.74,0-14.68,4.23-14.68,12.11c0,7.02,4.24,10.01,11.1,10.67l5.99,0.58c2.99,0.29,4.02,1.61,4.02,3.51
					c0,2.85-3.43,3.95-6.72,3.95c-2.92,0-7.01-0.44-10.15-3.58l-6.21,6.21c4.82,4.82,10.23,5.47,16.22,5.47
					C345.94,81.5,353.1,77.48,353.1,69.08 M314.38,81.06v-8.02h-3.43c-2.26,0-3.29-1.24-3.29-3.44V51.33h6.72v-7.22h-6.72V32.86
					h-9.49v11.25h-4.02v7.22h4.02v18.85c0,5.41,3.29,10.88,11.02,10.88H314.38z M277.28,62c0,6.21-0.74,10.96-6.43,10.96
					c-5.7,0-6.43-4.75-6.43-10.96c0-6.21,0.73-10.89,6.43-10.89C276.55,51.11,277.28,55.78,277.28,62 M286.77,62
					c0-5.7-0.07-12.2-3.87-16c-2.12-2.12-5.55-3.43-9.28-3.43c-4.02,0-6.87,1.09-9.5,4.01v-3.57h-9.19v52h9.49V77.7
					c2.48,2.77,5.34,3.79,9.21,3.79c3.73,0,7.16-1.31,9.28-3.43C286.7,74.27,286.77,67.7,286.77,62 M242.79,81.06V43.01h-9.49v23.01
					c0,5.19-3.37,6.94-6.36,6.94c-3,0-6.29-1.75-6.29-6.94V43.01h-9.49v24.33c0,4.16,0.8,7.74,3.87,10.81
					c2.12,2.11,5.18,3.35,8.98,3.35c3.51,0,7.02-1.31,9.51-3.94v3.5H242.79z M190.43,67.03c0,2.34-0.37,3.88-1.39,4.83
					c-1.68,1.61-3.36,1.83-5.99,1.83c-3.73,0-5.48-1.76-5.48-4.39c0-2.71,1.9-4.32,5.34-4.32h7.53V67.03z M199.91,81.06V56.01
					c0-8.91-5.55-13.44-16.21-13.44c-6.36,0-10.01,1.16-13.73,5.25l6.06,5.92c1.97-2.27,3.65-3.15,7.31-3.15
					c5.04,0,7.09,1.83,7.09,6v1.9h-9c-8.83,0-12.99,4.96-12.99,11.02c0,3.36,1.09,6.43,3.14,8.55c2.26,2.26,5.4,3.35,9.71,3.35
					c4.39,0,6.8-1.1,9.36-3.65v3.28H199.91z M158.28,81.06v-52h-10.14v21.26h-17.62V29.06h-10.14v52h10.14V59.29h17.62v21.77H158.28
					z"/>
			</g>
		</g>
		<g style="clip-path:url(#SVGID_00000088122907515347463930000011264904710946750361_);">
			<g>
				<rect x="2.81" y="232.07" class="st3" width="992.69" height="3.37"/>
			</g>
		</g>
		<g style="clip-path:url(#SVGID_00000088122907515347463930000011264904710946750361_);">
			<g>
				<rect x="2.81" y="346.13" class="st3" width="992.69" height="3.37"/>
			</g>
		</g>
		<g style="clip-path:url(#SVGID_00000088122907515347463930000011264904710946750361_);">
			<g>
				<rect x="2.81" y="468.63" class="st3" width="992.69" height="3.37"/>
			</g>
		</g>
		<g style="clip-path:url(#SVGID_00000088122907515347463930000011264904710946750361_);">
			<g>
				<rect x="2.81" y="585.51" class="st3" width="992.69" height="3.37"/>
			</g>
		</g>
	</g>
	<g>
		<g>
			<polygon class="st4" points="21.91,638.98 37.98,638.98 29.95,628.35 			"/>
		</g>
	</g>
	<g>
		<g>
			<polygon class="st4" points="21.91,660.11 37.98,660.11 29.95,649.49 			"/>
		</g>
	</g>
	<g>
		<g>
			<polygon class="st4" points="21.91,681.25 37.98,681.25 29.95,670.62 			"/>
		</g>
	</g>
	<g>
		<g>
			<polygon class="st4" points="21.91,617.84 37.98,617.84 29.95,607.22 			"/>
		</g>
	</g>
	<g>
		<g>
			<polygon class="st4" points="21.91,523.5 37.98,523.5 29.95,512.88 			"/>
		</g>
	</g>
	<g>
		<g>
			<polygon class="st4" points="21.91,544.64 37.98,544.64 29.95,534.01 			"/>
		</g>
	</g>
	<g>
		<g>
			<polygon class="st4" points="21.91,565.77 37.98,565.77 29.95,555.15 			"/>
		</g>
	</g>
	<g>
		<g>
			<polygon class="st4" points="21.91,502.37 37.98,502.37 29.95,491.74 			"/>
		</g>
	</g>
	<g>
		<g>
			<polygon class="st4" points="21.91,403.82 37.98,403.82 29.95,393.19 			"/>
		</g>
	</g>
	<g>
		<g>
			<polygon class="st4" points="21.91,424.95 37.98,424.95 29.95,414.32 			"/>
		</g>
	</g>
	<g>
		<g>
			<polygon class="st4" points="21.91,446.09 37.98,446.09 29.95,435.46 			"/>
		</g>
	</g>
	<g>
		<g>
			<polygon class="st4" points="21.91,382.68 37.98,382.68 29.95,372.05 			"/>
		</g>
	</g>
	<g>
		<g>
			<polygon class="st4" points="21.91,285.53 37.98,285.53 29.95,274.91 			"/>
		</g>
	</g>
	<g>
		<g>
			<polygon class="st4" points="21.91,306.67 37.98,306.67 29.95,296.04 			"/>
		</g>
	</g>
	<g>
		<g>
			<polygon class="st4" points="21.91,327.8 37.98,327.8 29.95,317.18 			"/>
		</g>
	</g>
	<g>
		<g>
			<polygon class="st4" points="21.91,264.4 37.98,264.4 29.95,253.77 			"/>
		</g>
	</g>
	<g>
		<g>
			<polygon class="st4" points="21.91,170.06 37.98,170.06 29.95,159.44 			"/>
		</g>
	</g>
	<g>
		<g>
			<polygon class="st4" points="21.91,191.2 37.98,191.2 29.95,180.57 			"/>
		</g>
	</g>
	<g>
		<g>
			<polygon class="st4" points="21.91,212.33 37.98,212.33 29.95,201.71 			"/>
		</g>
	</g>
	<g>
		<g>
			<polygon class="st4" points="21.91,148.93 37.98,148.93 29.95,138.3 			"/>
		</g>
	</g>
	<g>
		<defs>
			<rect id="SVGID_00000169538232462075654040000010770328666793830795_" y="0" width="1000" height="702.95"/>
		</defs>
		<clipPath id="SVGID_00000101817292319985214680000003856786704032224952_">
			<use xlink:href="#SVGID_00000169538232462075654040000010770328666793830795_"  style="overflow:visible;"/>
		</clipPath>
		<g style="clip-path:url(#SVGID_00000101817292319985214680000003856786704032224952_);">
			<g>
				<path class="st3" d="M711.68,174c0,4.11-2.4,6.57-5.82,6.57c-3.64,0-5.77-2.83-5.77-6.57c0-4.06,2.35-6.62,5.77-6.62
					C709.27,167.37,711.68,169.94,711.68,174 M717.11,173.89c0-7.05-4.69-11.37-11.26-11.37c-6.57,0-11.21,4.59-11.21,11.58
					c0,6.68,4.43,10.99,9.92,10.99c1.18,0,2.4-0.16,3.42-0.58l-8.18,16.33h5.83l8.65-17.62
					C715.94,179.93,717.11,176.99,717.11,173.89 M669.5,185.11h-12.17c0.05-1.66,0.16-2.46,0.69-3.69c0.85-2.03,2.83-3.42,5.39-3.42
					c2.56,0,4.48,1.39,5.34,3.42C669.29,182.64,669.44,183.45,669.5,185.11 M674.89,188.89v-2.4c0-7.69-4.21-13.02-11.47-13.02
					c-6.94,0-11.47,5.06-11.47,13.82c0,10.31,5.39,13.88,12.17,13.88c4.75,0,7.37-1.44,10.14-4.21l-3.47-3.25
					c-1.92,1.92-3.52,2.78-6.57,2.78c-4.43,0-6.88-2.94-6.88-7.59H674.89z M646.18,192.57c0-4.8-2.99-7.21-8.06-7.64l-4.27-0.37
					c-2.88-0.27-3.74-1.49-3.74-3.1c0-2.03,1.66-3.47,4.91-3.47c2.56,0,4.97,0.53,6.68,1.98l3.42-3.47
					c-2.51-2.19-5.98-3.03-10.04-3.03c-5.66,0-10.2,2.98-10.2,8.27c0,4.75,2.94,7.05,8.01,7.48l4.33,0.37
					c2.61,0.21,3.63,1.39,3.63,3.2c0,2.57-2.62,3.74-5.93,3.74c-2.67,0-5.6-0.59-7.79-2.83l-3.57,3.57
					c3.2,3.15,6.94,3.89,11.37,3.89C641.37,201.17,646.18,198.23,646.18,192.57 M619.32,192.57c0-4.8-2.99-7.21-8.06-7.64
					l-4.27-0.37c-2.88-0.27-3.74-1.49-3.74-3.1c0-2.03,1.65-3.47,4.91-3.47c2.56,0,4.96,0.53,6.67,1.98l3.42-3.47
					c-2.51-2.19-5.98-3.03-10.04-3.03c-5.66,0-10.19,2.98-10.19,8.27c0,4.75,2.93,7.05,8.01,7.48l4.32,0.37
					c2.62,0.21,3.63,1.39,3.63,3.2c0,2.57-2.61,3.74-5.92,3.74c-2.67,0-5.61-0.59-7.79-2.83l-3.58,3.57
					c3.2,3.15,6.94,3.89,11.37,3.89C614.52,201.17,619.32,198.23,619.32,192.57 M584.95,191.08c0,1.92-0.38,3.2-1.17,4.01
					c-1.44,1.39-2.99,1.55-5.07,1.55c-3.42,0-4.97-1.39-4.97-3.85c0-2.46,1.65-3.9,4.86-3.9h6.36V191.08z M590.39,200.85v-18.09
					c0-6.14-3.73-9.28-11.15-9.28c-4.49,0-7.15,0.9-9.72,3.89l3.57,3.37c1.49-1.92,2.94-2.62,5.93-2.62c4.22,0,5.93,1.66,5.93,5.07
					v1.93h-7.16c-6.19,0-9.34,3.25-9.34,7.79c0,2.3,0.75,4.38,2.14,5.82c1.65,1.65,3.89,2.45,7.26,2.45s5.23-0.8,7.21-2.77v2.45
					H590.39z M563.96,200.85v-4.64h-2.4c-2.19,0-2.94-1.07-2.94-3.15v-30.21h-5.43v30.53c0,4,2.24,7.47,7.41,7.47H563.96z
					 M547.95,200.85l-13.61-23.11l12.33-14.89h-7.05l-15.53,19.11v-19.11h-5.76v38h5.76V189.8l6.41-7.69l10.68,18.73H547.95z
					 M500.18,158.89h-5.23l-15.22,45.9h5.23L500.18,158.89z M460.63,165.44h-5.51v35.4h5.51V165.44z M444.67,165.44h-5.51v29.17
					h-8.88v6.24h14.38V165.44z M426.18,196.92v-15.4c0-1.94-0.29-3.47-0.87-4.58c-0.58-1.1-1.56-1.89-2.92-2.36
					c-1.37-0.47-3.25-0.7-5.65-0.7c-2.96,0-5.66,0.4-8.12,1.21c-2.46,0.81-4.54,1.97-6.27,3.49c-1.73,1.51-2.99,3.34-3.82,5.47v-9.6
					h-5.51v22.48h5.51c0-5.7,1.3-9.92,3.91-12.68c2.6-2.75,6.55-4.13,11.83-4.13c2.96,0,5.1,0.21,6.41,0.62v16.19H426.18z
					 M384.15,200.85h48.38v-6.24h-48.38V200.85z M370.86,167.14c0.55-0.42,1.02-0.89,1.43-1.44c0.41-0.54,0.62-1.02,0.62-1.43
					c0-0.44-0.21-0.94-0.62-1.49c-0.41-0.54-0.88-1.01-1.4-1.4c-0.52-0.39-1.01-0.59-1.46-0.59c-0.45,0-0.94,0.2-1.49,0.59
					c-0.55,0.39-1.01,0.87-1.4,1.4c-0.39,0.55-0.59,1.05-0.59,1.49c0,0.42,0.2,0.9,0.59,1.47c0.39,0.56,0.87,1.03,1.43,1.43
					c0.56,0.39,1.05,0.6,1.46,0.6C369.84,167.75,370.32,167.55,370.86,167.14 M361.34,194.61v-11.58c0-1.13,0.18-1.89,0.53-2.28
					c0.35-0.4,1-0.6,1.94-0.6h10.73v11.8c0,1.01-0.19,1.71-0.56,2.08c-0.38,0.38-1.03,0.57-1.97,0.57H361.34z M380.05,200.85v-25.18
					c-2.21-0.67-4.23-1.15-6.07-1.43c-1.84-0.28-3.86-0.42-6.07-0.42c-2.43,0-4.46,0.2-6.07,0.62c-1.61,0.41-2.88,1.06-3.82,1.96
					c-0.94,0.9-1.6,2.11-1.99,3.62c-0.39,1.52-0.59,3.42-0.59,5.7c0,2.14,0.06,3.88,0.17,5.23c0.11,1.35,0.3,2.57,0.56,3.66h-16.63
					c-0.3-0.98-0.52-2.01-0.65-3.1c-0.13-1.08-0.2-2.34-0.2-3.76c0-1.24,0.11-2.53,0.34-3.91c0.22-1.37,0.56-2.78,1.01-4.24
					l-5.28-0.85c-0.49,1.39-0.88,3.01-1.18,4.86c-0.3,1.86-0.45,3.66-0.45,5.42c0,2.85,0.28,5.14,0.84,6.86
					c0.56,1.73,1.46,2.98,2.7,3.76s2.85,1.19,4.83,1.19H380.05z M380.05,200.85h6.35v-6.24h-6.35V200.85z M307.22,174
					c0,4.11-2.4,6.57-5.82,6.57c-3.63,0-5.77-2.83-5.77-6.57c0-4.06,2.35-6.62,5.77-6.62C304.82,167.37,307.22,169.94,307.22,174
					 M312.66,173.89c0-7.05-4.69-11.37-11.26-11.37c-6.57,0-11.2,4.59-11.2,11.58c0,6.68,4.42,10.99,9.92,10.99
					c1.17,0,2.4-0.16,3.42-0.58l-8.17,16.33h5.82l8.65-17.62C311.49,179.93,312.66,176.99,312.66,173.89"/>
			</g>
		</g>
		<g style="clip-path:url(#SVGID_00000101817292319985214680000003856786704032224952_);">
			<g>
				<path class="st3" d="M711.52,285.32c0,3.37-2.35,5.77-5.66,5.77c-3.31,0-5.61-2.4-5.61-5.77c0-3.31,2.3-5.82,5.61-5.82
					C709.16,279.49,711.52,282.01,711.52,285.32 M712.1,302.13c0,3.52-2.73,6.3-6.25,6.3c-3.52,0-6.25-2.78-6.25-6.3
					c0-3.52,2.73-6.36,6.25-6.36C709.38,295.78,712.1,298.61,712.1,302.13 M717.59,302.24c0-4.54-2.56-7.32-5.22-8.91
					c2.45-1.49,4.59-4.16,4.59-8.17c0-6.36-4.91-10.51-11.1-10.51c-6.19,0-11.05,4.16-11.05,10.51c0,4.01,2.14,6.68,4.59,8.17
					c-2.66,1.6-5.23,4.37-5.23,8.91c0,6.89,5.18,11.05,11.69,11.05C712.37,313.29,717.59,309.13,717.59,302.24 M669.5,297.23h-12.17
					c0.06-1.66,0.16-2.46,0.7-3.69c0.85-2.03,2.83-3.42,5.39-3.42s4.48,1.39,5.34,3.42C669.28,294.77,669.45,295.57,669.5,297.23
					 M674.89,301.01v-2.4c0-7.69-4.22-13.02-11.48-13.02c-6.94,0-11.47,5.06-11.47,13.82c0,10.31,5.38,13.88,12.17,13.88
					c4.75,0,7.37-1.44,10.14-4.21l-3.47-3.25c-1.92,1.92-3.52,2.78-6.56,2.78c-4.43,0-6.89-2.94-6.89-7.59H674.89z M646.17,304.7
					c0-4.8-2.99-7.21-8.06-7.64l-4.27-0.37c-2.88-0.27-3.74-1.49-3.74-3.1c0-2.03,1.65-3.47,4.91-3.47c2.56,0,4.96,0.53,6.67,1.98
					l3.42-3.47c-2.51-2.19-5.98-3.03-10.04-3.03c-5.66,0-10.19,2.98-10.19,8.27c0,4.75,2.93,7.05,8.01,7.48l4.32,0.37
					c2.62,0.21,3.63,1.39,3.63,3.2c0,2.57-2.61,3.74-5.92,3.74c-2.67,0-5.61-0.59-7.79-2.83l-3.58,3.57
					c3.2,3.15,6.94,3.89,11.37,3.89C641.37,313.29,646.17,310.35,646.17,304.7 M619.33,304.7c0-4.8-2.99-7.21-8.06-7.64l-4.27-0.37
					c-2.88-0.27-3.74-1.49-3.74-3.1c0-2.03,1.66-3.47,4.91-3.47c2.56,0,4.97,0.53,6.68,1.98l3.42-3.47
					c-2.51-2.19-5.98-3.03-10.04-3.03c-5.66,0-10.2,2.98-10.2,8.27c0,4.75,2.94,7.05,8.01,7.48l4.33,0.37
					c2.61,0.21,3.63,1.39,3.63,3.2c0,2.57-2.62,3.74-5.93,3.74c-2.67,0-5.6-0.59-7.79-2.83l-3.57,3.57
					c3.2,3.15,6.94,3.89,11.37,3.89C614.52,313.29,619.33,310.35,619.33,304.7 M584.95,303.2c0,1.92-0.37,3.2-1.17,4.01
					c-1.44,1.39-2.99,1.55-5.07,1.55c-3.42,0-4.97-1.39-4.97-3.85s1.66-3.9,4.86-3.9h6.36V303.2z M590.39,312.97v-18.09
					c0-6.14-3.73-9.28-11.15-9.28c-4.48,0-7.15,0.9-9.71,3.89l3.57,3.37c1.49-1.92,2.94-2.62,5.93-2.62c4.22,0,5.93,1.66,5.93,5.07
					v1.93h-7.15c-6.19,0-9.34,3.25-9.34,7.79c0,2.3,0.75,4.38,2.13,5.82c1.66,1.65,3.89,2.45,7.26,2.45c3.37,0,5.24-0.8,7.21-2.77
					v2.45H590.39z M563.97,312.97v-4.64h-2.4c-2.19,0-2.93-1.07-2.93-3.15v-30.21h-5.44v30.53c0,4,2.24,7.47,7.41,7.47H563.97z
					 M547.95,312.97l-13.61-23.11l12.33-14.89h-7.05l-15.54,19.11v-19.11h-5.75v38h5.75v-11.05l6.41-7.69l10.68,18.73H547.95z
					 M500.18,271.02h-5.23l-15.21,45.9h5.23L500.18,271.02z M460.63,277.57h-5.51v35.4h5.51V277.57z M444.67,277.57h-5.51v29.16
					h-8.88v6.24h14.38V277.57z M426.18,309.04v-15.4c0-1.94-0.29-3.47-0.87-4.58c-0.58-1.1-1.55-1.89-2.92-2.36
					c-1.37-0.47-3.25-0.7-5.65-0.7c-2.96,0-5.66,0.4-8.12,1.21c-2.45,0.81-4.54,1.97-6.27,3.49c-1.72,1.51-2.99,3.34-3.82,5.47v-9.6
					h-5.51v22.48h5.51c0-5.7,1.3-9.92,3.91-12.68c2.61-2.75,6.55-4.13,11.83-4.13c2.96,0,5.1,0.21,6.41,0.62v16.19H426.18z
					 M384.15,312.97h48.38v-6.24h-48.38V312.97z M370.86,279.26c0.55-0.42,1.02-0.89,1.43-1.44c0.42-0.54,0.62-1.02,0.62-1.43
					c0-0.44-0.2-0.94-0.62-1.49c-0.41-0.54-0.88-1.01-1.4-1.4c-0.52-0.39-1.01-0.59-1.46-0.59c-0.45,0-0.94,0.2-1.49,0.59
					c-0.54,0.39-1.01,0.87-1.4,1.4c-0.39,0.55-0.59,1.05-0.59,1.49c0,0.42,0.2,0.9,0.59,1.47c0.39,0.56,0.87,1.03,1.43,1.43
					s1.05,0.6,1.46,0.6C369.84,279.88,370.32,279.67,370.86,279.26 M361.34,306.73v-11.57c0-1.13,0.18-1.89,0.53-2.28
					c0.36-0.4,1.01-0.6,1.94-0.6h10.73v11.8c0,1.01-0.19,1.71-0.56,2.08c-0.37,0.38-1.03,0.56-1.97,0.56H361.34z M380.05,312.97
					v-25.18c-2.21-0.67-4.23-1.15-6.07-1.43c-1.83-0.28-3.85-0.42-6.07-0.42c-2.43,0-4.46,0.2-6.07,0.62
					c-1.61,0.41-2.88,1.06-3.82,1.96c-0.93,0.9-1.6,2.11-1.99,3.62c-0.39,1.52-0.59,3.42-0.59,5.7c0,2.14,0.06,3.88,0.17,5.23
					c0.11,1.35,0.3,2.57,0.56,3.65h-16.63c-0.3-0.97-0.51-2-0.65-3.09c-0.13-1.08-0.2-2.34-0.2-3.76c0-1.24,0.11-2.53,0.34-3.91
					c0.22-1.37,0.56-2.78,1.01-4.24l-5.28-0.85c-0.48,1.39-0.88,3.01-1.18,4.86c-0.3,1.85-0.45,3.66-0.45,5.42
					c0,2.85,0.28,5.14,0.84,6.86c0.56,1.73,1.46,2.98,2.7,3.76c1.24,0.79,2.85,1.19,4.83,1.19H380.05z M380.05,312.97h6.35v-6.24
					h-6.35V312.97z M307.06,285.32c0,3.37-2.35,5.77-5.66,5.77c-3.32,0-5.61-2.4-5.61-5.77c0-3.31,2.3-5.82,5.61-5.82
					C304.71,279.49,307.06,282.01,307.06,285.32 M307.65,302.13c0,3.52-2.73,6.3-6.25,6.3c-3.53,0-6.25-2.78-6.25-6.3
					c0-3.52,2.72-6.36,6.25-6.36C304.93,295.78,307.65,298.61,307.65,302.13 M313.14,302.24c0-4.54-2.56-7.32-5.23-8.91
					c2.46-1.49,4.59-4.16,4.59-8.17c0-6.36-4.91-10.51-11.1-10.51c-6.2,0-11.05,4.16-11.05,10.51c0,4.01,2.13,6.68,4.59,8.17
					c-2.67,1.6-5.23,4.37-5.23,8.91c0,6.89,5.17,11.05,11.69,11.05C307.92,313.29,313.14,309.13,313.14,302.24"/>
			</g>
		</g>
		<g style="clip-path:url(#SVGID_00000101817292319985214680000003856786704032224952_);">
			<g>
				<path class="st3" d="M711.68,541.48c0,4.06-2.4,6.62-5.82,6.62c-3.42,0-5.77-2.57-5.77-6.62c0-4.11,2.35-6.57,5.77-6.57
					C709.49,534.92,711.68,537.75,711.68,541.48 M717.11,541.38c0-6.68-4.48-10.99-9.97-10.99c-1.17,0-2.35,0.16-3.37,0.58
					l8.17-16.33h-5.82l-8.65,17.62c-1.65,3.3-2.83,6.24-2.83,9.34c0,7.05,4.69,11.37,11.26,11.37S717.11,548.37,717.11,541.38
					 M669.5,536.9h-12.17c0.05-1.66,0.16-2.46,0.69-3.69c0.85-2.03,2.83-3.42,5.39-3.42c2.56,0,4.48,1.39,5.34,3.42
					C669.29,534.44,669.44,535.24,669.5,536.9 M674.89,540.68v-2.4c0-7.69-4.21-13.02-11.47-13.02c-6.94,0-11.47,5.06-11.47,13.82
					c0,10.31,5.39,13.88,12.17,13.88c4.75,0,7.37-1.44,10.14-4.21l-3.47-3.25c-1.92,1.92-3.52,2.78-6.57,2.78
					c-4.43,0-6.88-2.94-6.88-7.59H674.89z M646.18,544.37c0-4.8-2.99-7.21-8.06-7.64l-4.27-0.37c-2.88-0.27-3.74-1.49-3.74-3.1
					c0-2.03,1.66-3.47,4.91-3.47c2.56,0,4.97,0.53,6.68,1.98l3.42-3.47c-2.51-2.19-5.98-3.03-10.04-3.03
					c-5.66,0-10.2,2.98-10.2,8.27c0,4.75,2.94,7.05,8.01,7.48l4.33,0.37c2.61,0.21,3.63,1.39,3.63,3.2c0,2.57-2.62,3.74-5.93,3.74
					c-2.67,0-5.6-0.59-7.79-2.83l-3.57,3.57c3.2,3.15,6.94,3.89,11.37,3.89C641.37,552.96,646.18,550.03,646.18,544.37
					 M619.32,544.37c0-4.8-2.99-7.21-8.06-7.64l-4.27-0.37c-2.88-0.27-3.74-1.49-3.74-3.1c0-2.03,1.65-3.47,4.91-3.47
					c2.56,0,4.96,0.53,6.67,1.98l3.42-3.47c-2.51-2.19-5.98-3.03-10.04-3.03c-5.66,0-10.19,2.98-10.19,8.27
					c0,4.75,2.93,7.05,8.01,7.48l4.32,0.37c2.62,0.21,3.63,1.39,3.63,3.2c0,2.57-2.61,3.74-5.92,3.74c-2.67,0-5.61-0.59-7.79-2.83
					l-3.58,3.57c3.2,3.15,6.94,3.89,11.37,3.89C614.52,552.96,619.32,550.03,619.32,544.37 M584.95,542.87
					c0,1.92-0.38,3.2-1.17,4.01c-1.44,1.39-2.99,1.55-5.07,1.55c-3.42,0-4.97-1.39-4.97-3.85c0-2.46,1.65-3.9,4.86-3.9h6.36V542.87z
					 M590.39,552.64v-18.09c0-6.14-3.73-9.28-11.15-9.28c-4.49,0-7.15,0.9-9.72,3.89l3.57,3.37c1.49-1.92,2.94-2.62,5.93-2.62
					c4.22,0,5.93,1.66,5.93,5.07v1.93h-7.16c-6.19,0-9.34,3.25-9.34,7.79c0,2.3,0.75,4.38,2.14,5.82c1.65,1.65,3.89,2.45,7.26,2.45
					s5.23-0.8,7.21-2.77v2.45H590.39z M563.96,552.64V548h-2.4c-2.19,0-2.94-1.07-2.94-3.15v-30.21h-5.43v30.53
					c0,4,2.24,7.47,7.41,7.47H563.96z M547.95,552.64l-13.61-23.11l12.33-14.89h-7.05l-15.53,19.11v-19.11h-5.76v38h5.76v-11.05
					l6.41-7.69l10.68,18.73H547.95z M500.18,510.69h-5.23l-15.22,45.9h5.23L500.18,510.69z M460.63,517.24h-5.51v35.4h5.51V517.24z
					 M444.67,517.24h-5.51v29.16h-8.88v6.24h14.38V517.24z M426.18,548.71v-15.4c0-1.95-0.29-3.48-0.87-4.58
					c-0.58-1.11-1.56-1.89-2.92-2.36c-1.37-0.47-3.25-0.7-5.65-0.7c-2.96,0-5.66,0.4-8.12,1.21c-2.46,0.8-4.54,1.97-6.27,3.48
					c-1.73,1.52-2.99,3.34-3.82,5.48v-9.61h-5.51v22.48h5.51c0-5.7,1.3-9.92,3.91-12.67c2.6-2.75,6.55-4.13,11.83-4.13
					c2.96,0,5.1,0.2,6.41,0.62v16.18H426.18z M384.15,552.64h48.38v-6.24h-48.38V552.64z M370.86,518.93
					c0.55-0.42,1.02-0.89,1.43-1.43c0.41-0.55,0.62-1.02,0.62-1.43c0-0.45-0.21-0.95-0.62-1.49c-0.41-0.55-0.88-1.01-1.4-1.4
					c-0.52-0.39-1.01-0.59-1.46-0.59c-0.45,0-0.94,0.2-1.49,0.59s-1.01,0.86-1.4,1.4c-0.39,0.54-0.59,1.04-0.59,1.49
					c0,0.41,0.2,0.9,0.59,1.46c0.39,0.56,0.87,1.04,1.43,1.43c0.56,0.39,1.05,0.59,1.46,0.59
					C369.84,519.55,370.32,519.34,370.86,518.93 M361.34,546.41v-11.58c0-1.12,0.18-1.88,0.53-2.28c0.35-0.39,1-0.59,1.94-0.59
					h10.73v11.8c0,1.01-0.19,1.7-0.56,2.08c-0.38,0.37-1.03,0.56-1.97,0.56H361.34z M380.05,552.64v-25.17
					c-2.21-0.67-4.23-1.15-6.07-1.43c-1.84-0.28-3.86-0.42-6.07-0.42c-2.43,0-4.46,0.2-6.07,0.62c-1.61,0.41-2.88,1.07-3.82,1.97
					c-0.94,0.9-1.6,2.11-1.99,3.62c-0.39,1.52-0.59,3.42-0.59,5.7c0,2.14,0.06,3.88,0.17,5.23c0.11,1.35,0.3,2.56,0.56,3.65h-16.63
					c-0.3-0.98-0.52-2.01-0.65-3.09c-0.13-1.09-0.2-2.34-0.2-3.76c0-1.24,0.11-2.54,0.34-3.91c0.22-1.37,0.56-2.78,1.01-4.24
					l-5.28-0.84c-0.49,1.38-0.88,3.01-1.18,4.86c-0.3,1.85-0.45,3.66-0.45,5.42c0,2.84,0.28,5.13,0.84,6.86
					c0.56,1.72,1.46,2.98,2.7,3.76c1.24,0.79,2.85,1.18,4.83,1.18H380.05z M380.05,552.64h6.35v-6.24h-6.35V552.64z M307.22,541.48
					c0,4.06-2.4,6.62-5.82,6.62c-3.42,0-5.77-2.57-5.77-6.62c0-4.11,2.35-6.57,5.77-6.57C305.03,534.92,307.22,537.75,307.22,541.48
					 M312.66,541.38c0-6.68-4.48-10.99-9.98-10.99c-1.17,0-2.35,0.16-3.37,0.58l8.18-16.33h-5.82l-8.65,17.62
					c-1.66,3.3-2.83,6.24-2.83,9.34c0,7.05,4.69,11.37,11.26,11.37C308.03,552.96,312.66,548.37,312.66,541.38"/>
			</g>
		</g>
		<g style="clip-path:url(#SVGID_00000101817292319985214680000003856786704032224952_);">
			<g>
				<path class="st3" d="M717.65,399.01v-4.85h-22.63v10.83h5.23v-5.98h11.59l-12.76,33.15h5.87L717.65,399.01z M669.5,416.41
					h-12.17c0.06-1.66,0.16-2.46,0.7-3.69c0.85-2.03,2.83-3.42,5.39-3.42s4.48,1.39,5.34,3.42
					C669.28,413.96,669.45,414.76,669.5,416.41 M674.89,420.2v-2.39c0-7.69-4.22-13.03-11.48-13.03c-6.94,0-11.47,5.07-11.47,13.82
					c0,10.31,5.38,13.87,12.17,13.87c4.75,0,7.37-1.44,10.14-4.21l-3.47-3.26c-1.92,1.93-3.52,2.78-6.56,2.78
					c-4.43,0-6.89-2.94-6.89-7.59H674.89z M646.17,423.89c0-4.8-2.99-7.21-8.06-7.64l-4.27-0.38c-2.88-0.26-3.74-1.49-3.74-3.1
					c0-2.03,1.65-3.47,4.91-3.47c2.56,0,4.96,0.53,6.67,1.97l3.42-3.47c-2.51-2.19-5.98-3.04-10.04-3.04
					c-5.66,0-10.19,2.98-10.19,8.27c0,4.75,2.93,7.05,8.01,7.47l4.32,0.38c2.62,0.21,3.63,1.39,3.63,3.2c0,2.56-2.61,3.74-5.92,3.74
					c-2.67,0-5.61-0.58-7.79-2.83l-3.58,3.57c3.2,3.15,6.94,3.89,11.37,3.89C641.37,432.47,646.17,429.55,646.17,423.89
					 M619.33,423.89c0-4.8-2.99-7.21-8.06-7.64l-4.27-0.38c-2.88-0.26-3.74-1.49-3.74-3.1c0-2.03,1.66-3.47,4.91-3.47
					c2.56,0,4.97,0.53,6.68,1.97l3.42-3.47c-2.51-2.19-5.98-3.04-10.04-3.04c-5.66,0-10.2,2.98-10.2,8.27
					c0,4.75,2.94,7.05,8.01,7.47l4.33,0.38c2.61,0.21,3.63,1.39,3.63,3.2c0,2.56-2.62,3.74-5.93,3.74c-2.67,0-5.6-0.58-7.79-2.83
					l-3.57,3.57c3.2,3.15,6.94,3.89,11.37,3.89C614.52,432.47,619.33,429.55,619.33,423.89 M584.95,422.39
					c0,1.93-0.37,3.21-1.17,4.01c-1.44,1.39-2.99,1.55-5.07,1.55c-3.42,0-4.97-1.39-4.97-3.84c0-2.46,1.66-3.91,4.86-3.91h6.36
					V422.39z M590.39,432.16v-18.09c0-6.14-3.73-9.29-11.15-9.29c-4.48,0-7.15,0.9-9.71,3.89l3.57,3.36
					c1.49-1.92,2.94-2.61,5.93-2.61c4.22,0,5.93,1.65,5.93,5.07v1.92h-7.15c-6.19,0-9.34,3.25-9.34,7.79c0,2.29,0.75,4.38,2.13,5.82
					c1.66,1.65,3.89,2.45,7.26,2.45c3.37,0,5.24-0.8,7.21-2.77v2.46H590.39z M563.97,432.16v-4.64h-2.4c-2.19,0-2.93-1.07-2.93-3.15
					v-30.21h-5.44v30.53c0,4,2.24,7.47,7.41,7.47H563.97z M547.95,432.16l-13.61-23.11l12.33-14.89h-7.05l-15.54,19.1v-19.1h-5.75
					v38h5.75v-11.05l6.41-7.68l10.68,18.73H547.95z M500.18,390.21h-5.23l-15.21,45.9h5.23L500.18,390.21z M460.63,396.76h-5.51
					v35.4h5.51V396.76z M444.67,396.76h-5.51v29.16h-8.88v6.24h14.38V396.76z M426.18,428.23v-15.4c0-1.94-0.29-3.47-0.87-4.58
					c-0.58-1.1-1.55-1.89-2.92-2.36c-1.37-0.47-3.25-0.7-5.65-0.7c-2.96,0-5.66,0.4-8.12,1.21c-2.45,0.81-4.54,1.97-6.27,3.48
					c-1.72,1.52-3,3.34-3.82,5.48v-9.61h-5.51v22.48h5.51c0-5.69,1.3-9.92,3.91-12.67c2.61-2.75,6.55-4.13,11.83-4.13
					c2.96,0,5.1,0.21,6.41,0.62v16.18H426.18z M384.15,432.16h48.38v-6.24h-48.38V432.16z M370.86,398.44
					c0.55-0.41,1.02-0.89,1.43-1.43c0.42-0.54,0.62-1.02,0.62-1.43c0-0.45-0.2-0.94-0.62-1.49c-0.41-0.54-0.88-1.01-1.4-1.4
					c-0.52-0.39-1.01-0.59-1.46-0.59c-0.45,0-0.94,0.2-1.49,0.59c-0.54,0.39-1.01,0.87-1.4,1.4c-0.39,0.55-0.59,1.04-0.59,1.49
					c0,0.42,0.2,0.9,0.59,1.46c0.39,0.56,0.87,1.04,1.43,1.43c0.56,0.39,1.05,0.59,1.46,0.59
					C369.84,399.06,370.32,398.86,370.86,398.44 M361.34,425.92v-11.58c0-1.12,0.18-1.88,0.53-2.28c0.36-0.39,1.01-0.59,1.94-0.59
					h10.73v11.8c0,1.01-0.19,1.71-0.56,2.08c-0.37,0.38-1.03,0.56-1.97,0.56H361.34z M380.05,432.16v-25.17
					c-2.21-0.67-4.23-1.15-6.07-1.43c-1.83-0.28-3.85-0.42-6.07-0.42c-2.43,0-4.46,0.21-6.07,0.62c-1.61,0.42-2.88,1.07-3.82,1.97
					c-0.93,0.9-1.6,2.11-1.99,3.62c-0.39,1.52-0.59,3.42-0.59,5.7c0,2.14,0.06,3.88,0.17,5.23c0.11,1.35,0.3,2.57,0.56,3.65h-16.63
					c-0.3-0.97-0.51-2-0.65-3.09c-0.13-1.08-0.2-2.34-0.2-3.76c0-1.24,0.11-2.53,0.34-3.91c0.22-1.37,0.56-2.78,1.01-4.24
					l-5.28-0.84c-0.48,1.39-0.88,3.01-1.18,4.86c-0.3,1.85-0.45,3.66-0.45,5.42c0,2.85,0.28,5.14,0.84,6.86
					c0.56,1.73,1.46,2.98,2.7,3.76c1.24,0.79,2.85,1.18,4.83,1.18H380.05z M380.05,432.16h6.35v-6.24h-6.35V432.16z M313.2,399.01
					v-4.85h-22.63v10.83h5.23v-5.98h11.59l-12.76,33.15h5.87L313.2,399.01z"/>
			</g>
		</g>
		<g style="clip-path:url(#SVGID_00000101817292319985214680000003856786704032224952_);">
			<g>
				<path class="st3" d="M717.22,659.13c0-3.58-0.42-7.27-3.3-10.14c-1.55-1.55-3.84-2.45-6.83-2.45c-2.78,0-5.02,0.85-6.3,2.19
					v-10.04h15.59v-4.85h-20.49v20.76h4.96c0.58-1.87,2.3-3.42,5.39-3.42c4.38,0,5.56,3.42,5.56,7.96c0,2.56-0.21,5.07-1.82,6.68
					c-0.96,0.96-2.35,1.49-3.95,1.49c-3.42,0-5.13-1.92-5.56-5.29h-5.43c0.21,2.73,0.85,5.24,2.88,7.26
					c1.65,1.65,4.48,2.93,8.11,2.93c3.69,0,6.3-1.28,8.01-2.98C716.8,666.44,717.22,663.18,717.22,659.13 M669.5,656.09h-12.17
					c0.05-1.66,0.16-2.46,0.69-3.69c0.85-2.03,2.83-3.42,5.39-3.42c2.56,0,4.48,1.39,5.34,3.42
					C669.29,653.63,669.44,654.43,669.5,656.09 M674.89,659.87v-2.39c0-7.69-4.21-13.03-11.47-13.03c-6.94,0-11.47,5.06-11.47,13.82
					c0,10.31,5.39,13.87,12.17,13.87c4.75,0,7.37-1.44,10.14-4.21l-3.47-3.26c-1.92,1.92-3.52,2.78-6.57,2.78
					c-4.43,0-6.88-2.94-6.88-7.59H674.89z M646.18,663.56c0-4.8-2.99-7.21-8.06-7.64l-4.27-0.38c-2.88-0.26-3.74-1.49-3.74-3.1
					c0-2.03,1.66-3.47,4.91-3.47c2.56,0,4.97,0.53,6.68,1.98l3.42-3.47c-2.51-2.19-5.98-3.04-10.04-3.04
					c-5.66,0-10.2,2.98-10.2,8.27c0,4.75,2.94,7.05,8.01,7.47l4.33,0.38c2.61,0.21,3.63,1.39,3.63,3.2c0,2.56-2.62,3.74-5.93,3.74
					c-2.67,0-5.6-0.58-7.79-2.83l-3.57,3.58c3.2,3.15,6.94,3.89,11.37,3.89C641.37,672.14,646.18,669.22,646.18,663.56
					 M619.32,663.56c0-4.8-2.99-7.21-8.06-7.64l-4.27-0.38c-2.88-0.26-3.74-1.49-3.74-3.1c0-2.03,1.65-3.47,4.91-3.47
					c2.56,0,4.96,0.53,6.67,1.98l3.42-3.47c-2.51-2.19-5.98-3.04-10.04-3.04c-5.66,0-10.19,2.98-10.19,8.27
					c0,4.75,2.93,7.05,8.01,7.47l4.32,0.38c2.62,0.21,3.63,1.39,3.63,3.2c0,2.56-2.61,3.74-5.92,3.74c-2.67,0-5.61-0.58-7.79-2.83
					l-3.58,3.58c3.2,3.15,6.94,3.89,11.37,3.89C614.52,672.14,619.32,669.22,619.32,663.56 M584.95,662.06
					c0,1.93-0.38,3.21-1.17,4.01c-1.44,1.39-2.99,1.55-5.07,1.55c-3.42,0-4.97-1.39-4.97-3.84c0-2.46,1.65-3.91,4.86-3.91h6.36
					V662.06z M590.39,671.82v-18.09c0-6.14-3.73-9.29-11.15-9.29c-4.49,0-7.15,0.9-9.72,3.89l3.57,3.36
					c1.49-1.92,2.94-2.62,5.93-2.62c4.22,0,5.93,1.66,5.93,5.08v1.92h-7.16c-6.19,0-9.34,3.25-9.34,7.79c0,2.29,0.75,4.38,2.14,5.82
					c1.65,1.65,3.89,2.45,7.26,2.45s5.23-0.8,7.21-2.77v2.45H590.39z M563.96,671.82v-4.64h-2.4c-2.19,0-2.94-1.07-2.94-3.15v-30.21
					h-5.43v30.53c0,4,2.24,7.46,7.41,7.46H563.96z M547.95,671.82l-13.61-23.11l12.33-14.89h-7.05l-15.53,19.1v-19.1h-5.76v38h5.76
					v-11.05l6.41-7.68l10.68,18.73H547.95z M500.18,629.88h-5.23l-15.22,45.9h5.23L500.18,629.88z M460.63,636.43h-5.51v35.4h5.51
					V636.43z M444.67,636.43h-5.51v29.16h-8.88v6.24h14.38V636.43z M426.18,667.9v-15.4c0-1.95-0.29-3.47-0.87-4.58
					c-0.58-1.11-1.56-1.89-2.92-2.36c-1.37-0.47-3.25-0.7-5.65-0.7c-2.96,0-5.67,0.4-8.12,1.21c-2.46,0.8-4.54,1.97-6.27,3.48
					c-1.73,1.52-3,3.34-3.82,5.48v-9.61h-5.51v22.48h5.51c0-5.69,1.3-9.92,3.91-12.67c2.6-2.75,6.55-4.13,11.83-4.13
					c2.96,0,5.1,0.21,6.41,0.62v16.18H426.18z M384.15,671.83h48.38v-6.24h-48.38V671.83z M370.86,638.12
					c0.55-0.41,1.02-0.89,1.43-1.43c0.41-0.55,0.62-1.02,0.62-1.43c0-0.45-0.21-0.94-0.62-1.49c-0.41-0.55-0.88-1.01-1.4-1.4
					c-0.52-0.39-1.01-0.59-1.46-0.59c-0.45,0-0.94,0.2-1.49,0.59c-0.55,0.39-1.01,0.86-1.4,1.4c-0.39,0.55-0.59,1.04-0.59,1.49
					c0,0.41,0.2,0.9,0.59,1.46c0.39,0.56,0.87,1.04,1.43,1.43c0.56,0.39,1.05,0.59,1.46,0.59
					C369.84,638.73,370.32,638.53,370.86,638.12 M361.34,665.59v-11.58c0-1.12,0.18-1.88,0.53-2.28c0.35-0.39,1-0.59,1.94-0.59
					h10.73v11.8c0,1.01-0.19,1.7-0.56,2.08c-0.38,0.38-1.03,0.56-1.97,0.56H361.34z M380.05,671.83v-25.17
					c-2.21-0.67-4.23-1.15-6.07-1.43c-1.84-0.28-3.86-0.42-6.07-0.42c-2.43,0-4.46,0.21-6.07,0.62c-1.61,0.41-2.88,1.07-3.82,1.97
					s-1.6,2.11-1.99,3.62c-0.39,1.52-0.59,3.42-0.59,5.7c0,2.14,0.06,3.88,0.17,5.23c0.11,1.35,0.3,2.57,0.56,3.65h-16.63
					c-0.3-0.97-0.52-2.01-0.65-3.09c-0.13-1.08-0.2-2.34-0.2-3.76c0-1.24,0.11-2.54,0.34-3.91c0.22-1.37,0.56-2.78,1.01-4.24
					l-5.28-0.84c-0.49,1.39-0.88,3.01-1.18,4.86c-0.3,1.85-0.45,3.66-0.45,5.42c0,2.85,0.28,5.13,0.84,6.86
					c0.56,1.73,1.46,2.98,2.7,3.76s2.85,1.18,4.83,1.18H380.05z M380.05,671.83h6.35v-6.24h-6.35V671.83z M312.77,659.13
					c0-3.58-0.43-7.27-3.3-10.14c-1.55-1.55-3.84-2.45-6.83-2.45c-2.78,0-5.02,0.85-6.3,2.19v-10.04h15.59v-4.85h-20.49v20.76h4.96
					c0.59-1.87,2.3-3.42,5.4-3.42c4.38,0,5.55,3.42,5.55,7.96c0,2.56-0.21,5.07-1.81,6.68c-0.96,0.96-2.35,1.49-3.95,1.49
					c-3.42,0-5.13-1.92-5.56-5.29h-5.44c0.21,2.73,0.85,5.24,2.88,7.26c1.65,1.65,4.48,2.93,8.11,2.93c3.68,0,6.3-1.28,8.01-2.98
					C312.34,666.44,312.77,663.18,312.77,659.13"/>
			</g>
		</g>
	</g>
</g>
</svg>
