<?xml version="1.0" encoding="UTF-8"?> <svg xmlns="http://www.w3.org/2000/svg" xmlns:xlink="http://www.w3.org/1999/xlink" version="1.1" id="Ebene_1" x="0px" y="0px" viewBox="0 0 181 151" style="enable-background:new 0 0 181 151;" xml:space="preserve"> <style type="text/css"> .st0{fill:#93B1DD;} .st1{fill:#6093CD;} .st2{fill:none;stroke:#2A2C68;stroke-width:0.6;stroke-linejoin:round;} .st3{fill:none;stroke:#2A2C68;stroke-width:0.6;} .st4{fill:#FFFFFF;} .st5{font-family:'DINPro-Bold';} .st6{font-size:13px;} .st7{fill:#2A2C68;} .st8{font-family:'DINPro-Medium';} .st9{font-size:9.5px;} </style> <g id="Layer-1_9_"> <path class="st0" d="M1,147.1h8.6V22.8H1V147.1z"></path> </g> <g id="Layer-1_10_"> <path class="st1" d="M0.6,22.8h177.3V2H0.6V22.8z"></path> </g> <g id="Layer-1_11_"> <path class="st2" d="M0.9,147.1h177.2V2H0.9V147.1z"></path> </g> <g id="Layer-1_12_"> <path class="st3" d="M0.8,22.8h177.2"></path> </g> <g id="Layer-1_13_"> <text transform="matrix(1 0 0 1 29.0935 16.3643)" class="st4 st5 st6">R</text> <text transform="matrix(1 0 0 1 37.4655 16.3643)" class="st4 st5 st6">e</text> <text transform="matrix(1 0 0 1 44.8495 16.3643)" class="st4 st5 st6">a</text> <text transform="matrix(1 0 0 1 52.0515 16.3643)" class="st4 st5 st6">l</text> <text transform="matrix(1 0 0 1 56.5365 16.3643)" class="st4 st5 st6">s</text> <text transform="matrix(1 0 0 1 63.3095 16.3643)" class="st4 st5 st6">c</text> <text transform="matrix(1 0 0 1 69.8095 16.3643)" class="st4 st5 st6">h</text> <text transform="matrix(1 0 0 1 77.5185 16.3643)" class="st4 st5 st6">u</text> <text transform="matrix(1 0 0 1 85.2275 16.3643)" class="st4 st5 st6">l</text> <text transform="matrix(1 0 0 1 89.7125 16.3643)" class="st4 st5 st6">a</text> <text transform="matrix(1 0 0 1 96.9145 16.3643)" class="st4 st5 st6">b</text> <text transform="matrix(1 0 0 1 104.4545 16.3643)" class="st4 st5 st6">s</text> <text transform="matrix(1 0 0 1 111.2275 16.3643)" class="st4 st5 st6">c</text> <text transform="matrix(1 0 0 1 117.7275 16.3643)" class="st4 st5 st6">h</text> <text transform="matrix(1 0 0 1 125.4365 16.3643)" class="st4 st5 st6">l</text> <text transform="matrix(1 0 0 1 129.9216 16.3643)" class="st4 st5 st6">u</text> <text transform="matrix(1 0 0 1 137.6306 16.3643)" class="st4 st5 st6">s</text> <text transform="matrix(1 0 0 1 144.3386 16.3643)" class="st4 st5 st6">s</text> </g> <g id="Layer-1_14_"> <path class="st2" d="M1.1,63.9h176.7"></path> </g> <g id="Layer-1_15_"> <path class="st2" d="M1.1,43.1h176.7"></path> </g> <g id="Layer-1_16_"> <path class="st2" d="M1.1,84.2h176.7"></path> </g> <g id="Layer-1_17_"> <path class="st2" d="M1.1,106h176.7"></path> </g> <g id="Layer-1_18_"> <path class="st2" d="M1.1,126.8h176.7"></path> </g> <g id="Layer-1_19_"> <text transform="matrix(1 0 0 1 53.4487 120.6879)" class="st7 st8 st9">K</text> <text transform="matrix(1 0 0 1 59.7947 120.6879)" class="st7 st8 st9">l</text> <text transform="matrix(1 0 0 1 62.8442 120.6879)" class="st7 st8 st9">a</text> <text transform="matrix(1 0 0 1 67.9742 120.6879)" class="st7 st8 st9">s</text> <text transform="matrix(1 0 0 1 72.7623 120.6879)" class="st7 st8 st9">s</text> <text transform="matrix(1 0 0 1 77.5978 120.6879)" class="st7 st8 st9">e</text> <text transform="matrix(1 0 0 1 82.8133 120.6879)" class="st7 st8 st9"> </text> <text transform="matrix(1 0 0 1 85.1883 120.6879)" class="st7 st8 st9">6</text> <text transform="matrix(1 0 0 1 90.3468 120.6879)" class="st7 st8 st9"> </text> <text transform="matrix(1 0 0 1 92.7218 120.6879)" class="st7 st8 st9">/</text> <text transform="matrix(1 0 0 1 96.4268 120.6879)" class="st7 st8 st9"> </text> <text transform="matrix(1 0 0 1 98.8018 120.6879)" class="st7 st8 st9">Y</text> <text transform="matrix(1 0 0 1 103.4473 120.6879)" class="st7 st8 st9">e</text> <text transform="matrix(1 0 0 1 108.6628 120.6879)" class="st7 st8 st9">a</text> <text transform="matrix(1 0 0 1 113.7928 120.6879)" class="st7 st8 st9">r</text> <text transform="matrix(1 0 0 1 118.0583 120.6879)" class="st7 st8 st9"> </text> <text transform="matrix(1 0 0 1 120.4333 120.6879)" class="st7 st8 st9">6</text> </g> <g id="Layer-1_20_"> <text transform="matrix(1 0 0 1 53.4487 98.8881)" class="st7 st8 st9">K</text> <text transform="matrix(1 0 0 1 59.7947 98.8881)" class="st7 st8 st9">l</text> <text transform="matrix(1 0 0 1 62.8442 98.8881)" class="st7 st8 st9">a</text> <text transform="matrix(1 0 0 1 67.9742 98.8881)" class="st7 st8 st9">s</text> <text transform="matrix(1 0 0 1 72.7623 98.8881)" class="st7 st8 st9">s</text> <text transform="matrix(1 0 0 1 77.5978 98.8881)" class="st7 st8 st9">e</text> <text transform="matrix(1 0 0 1 82.8133 98.8881)" class="st7 st8 st9"> </text> <text transform="matrix(1 0 0 1 85.1883 98.8881)" class="st7 st8 st9">7</text> <text transform="matrix(1 0 0 1 90.3468 98.8881)" class="st7 st8 st9"> </text> <text transform="matrix(1 0 0 1 92.7218 98.8881)" class="st7 st8 st9">/</text> <text transform="matrix(1 0 0 1 96.4268 98.8881)" class="st7 st8 st9"> </text> <text transform="matrix(1 0 0 1 98.8018 98.8881)" class="st7 st8 st9">Y</text> <text transform="matrix(1 0 0 1 103.4473 98.8881)" class="st7 st8 st9">e</text> <text transform="matrix(1 0 0 1 108.6628 98.8881)" class="st7 st8 st9">a</text> <text transform="matrix(1 0 0 1 113.7928 98.8881)" class="st7 st8 st9">r</text> <text transform="matrix(1 0 0 1 118.0583 98.8881)" class="st7 st8 st9"> </text> <text transform="matrix(1 0 0 1 120.4333 98.8881)" class="st7 st8 st9">7</text> </g> <g id="Layer-1_21_"> <text transform="matrix(1 0 0 1 53.4487 78.088)" class="st7 st8 st9">K</text> <text transform="matrix(1 0 0 1 59.7947 78.088)" class="st7 st8 st9">l</text> <text transform="matrix(1 0 0 1 62.8442 78.088)" class="st7 st8 st9">a</text> <text transform="matrix(1 0 0 1 67.9742 78.088)" class="st7 st8 st9">s</text> <text transform="matrix(1 0 0 1 72.7623 78.088)" class="st7 st8 st9">s</text> <text transform="matrix(1 0 0 1 77.5978 78.088)" class="st7 st8 st9">e</text> <text transform="matrix(1 0 0 1 82.8133 78.088)" class="st7 st8 st9"> </text> <text transform="matrix(1 0 0 1 85.1883 78.088)" class="st7 st8 st9">8</text> <text transform="matrix(1 0 0 1 90.3468 78.088)" class="st7 st8 st9"> </text> <text transform="matrix(1 0 0 1 92.7218 78.088)" class="st7 st8 st9">/</text> <text transform="matrix(1 0 0 1 96.4268 78.088)" class="st7 st8 st9"> </text> <text transform="matrix(1 0 0 1 98.8018 78.088)" class="st7 st8 st9">Y</text> <text transform="matrix(1 0 0 1 103.4473 78.088)" class="st7 st8 st9">e</text> <text transform="matrix(1 0 0 1 108.6628 78.088)" class="st7 st8 st9">a</text> <text transform="matrix(1 0 0 1 113.7928 78.088)" class="st7 st8 st9">r</text> <text transform="matrix(1 0 0 1 118.0583 78.088)" class="st7 st8 st9"> </text> <text transform="matrix(1 0 0 1 120.4333 78.088)" class="st7 st8 st9">8</text> </g> <g id="Layer-1_22_"> <text transform="matrix(1 0 0 1 53.4487 57.288)" class="st7 st8 st9">K</text> <text transform="matrix(1 0 0 1 59.7947 57.288)" class="st7 st8 st9">l</text> <text transform="matrix(1 0 0 1 62.8442 57.288)" class="st7 st8 st9">a</text> <text transform="matrix(1 0 0 1 67.9742 57.288)" class="st7 st8 st9">s</text> <text transform="matrix(1 0 0 1 72.7623 57.288)" class="st7 st8 st9">s</text> <text transform="matrix(1 0 0 1 77.5978 57.288)" class="st7 st8 st9">e</text> <text transform="matrix(1 0 0 1 82.8133 57.288)" class="st7 st8 st9"> </text> <text transform="matrix(1 0 0 1 85.1883 57.288)" class="st7 st8 st9">9</text> <text transform="matrix(1 0 0 1 90.3468 57.288)" class="st7 st8 st9"> </text> <text transform="matrix(1 0 0 1 92.7218 57.288)" class="st7 st8 st9">/</text> <text transform="matrix(1 0 0 1 96.4268 57.288)" class="st7 st8 st9"> </text> <text transform="matrix(1 0 0 1 98.8018 57.288)" class="st7 st8 st9">Y</text> <text transform="matrix(1 0 0 1 103.4473 57.288)" class="st7 st8 st9">e</text> <text transform="matrix(1 0 0 1 108.6628 57.288)" class="st7 st8 st9">a</text> <text transform="matrix(1 0 0 1 113.7928 57.288)" class="st7 st8 st9">r</text> <text transform="matrix(1 0 0 1 118.0583 57.288)" class="st7 st8 st9"> </text> <text transform="matrix(1 0 0 1 120.4333 57.288)" class="st7 st8 st9">9</text> </g> <g id="Layer-1_23_"> <text transform="matrix(1 0 0 1 48.2902 36.4879)" class="st7 st8 st9">K</text> <text transform="matrix(1 0 0 1 54.6362 36.4879)" class="st7 st8 st9">l</text> <text transform="matrix(1 0 0 1 57.6857 36.4879)" class="st7 st8 st9">a</text> <text transform="matrix(1 0 0 1 62.8157 36.4879)" class="st7 st8 st9">s</text> <text transform="matrix(1 0 0 1 67.6038 36.4879)" class="st7 st8 st9">s</text> <text transform="matrix(1 0 0 1 72.4393 36.4879)" class="st7 st8 st9">e</text> <text transform="matrix(1 0 0 1 77.6548 36.4879)" class="st7 st8 st9"> </text> <text transform="matrix(1 0 0 1 80.0298 36.4879)" class="st7 st8 st9">1</text> <text transform="matrix(1 0 0 1 85.1883 36.4879)" class="st7 st8 st9">0</text> <text transform="matrix(1 0 0 1 90.3468 36.4879)" class="st7 st8 st9"> </text> <text transform="matrix(1 0 0 1 92.7218 36.4879)" class="st7 st8 st9">/</text> <text transform="matrix(1 0 0 1 96.4268 36.4879)" class="st7 st8 st9"> </text> <text transform="matrix(1 0 0 1 98.8018 36.4879)" class="st7 st8 st9">Y</text> <text transform="matrix(1 0 0 1 103.4473 36.4879)" class="st7 st8 st9">e</text> <text transform="matrix(1 0 0 1 108.6628 36.4879)" class="st7 st8 st9">a</text> <text transform="matrix(1 0 0 1 113.7928 36.4879)" class="st7 st8 st9">r</text> <text transform="matrix(1 0 0 1 118.0583 36.4879)" class="st7 st8 st9"> </text> <text transform="matrix(1 0 0 1 120.4333 36.4879)" class="st7 st8 st9">1</text> <text transform="matrix(1 0 0 1 125.5918 36.4879)" class="st7 st8 st9">0</text> </g> <g id="Layer-1_24_"> <text transform="matrix(1 0 0 1 53.4487 140.4879)" class="st7 st8 st9">K</text> <text transform="matrix(1 0 0 1 59.7947 140.4879)" class="st7 st8 st9">l</text> <text transform="matrix(1 0 0 1 62.8442 140.4879)" class="st7 st8 st9">a</text> <text transform="matrix(1 0 0 1 67.9742 140.4879)" class="st7 st8 st9">s</text> <text transform="matrix(1 0 0 1 72.7623 140.4879)" class="st7 st8 st9">s</text> <text transform="matrix(1 0 0 1 77.5978 140.4879)" class="st7 st8 st9">e</text> <text transform="matrix(1 0 0 1 82.8133 140.4879)" class="st7 st8 st9"> </text> <text transform="matrix(1 0 0 1 85.1883 140.4879)" class="st7 st8 st9">5</text> <text transform="matrix(1 0 0 1 90.3468 140.4879)" class="st7 st8 st9"> </text> <text transform="matrix(1 0 0 1 92.7218 140.4879)" class="st7 st8 st9">/</text> <text transform="matrix(1 0 0 1 96.4268 140.4879)" class="st7 st8 st9"> </text> <text transform="matrix(1 0 0 1 98.8018 140.4879)" class="st7 st8 st9">Y</text> <text transform="matrix(1 0 0 1 103.4473 140.4879)" class="st7 st8 st9">e</text> <text transform="matrix(1 0 0 1 108.6628 140.4879)" class="st7 st8 st9">a</text> <text transform="matrix(1 0 0 1 113.7928 140.4879)" class="st7 st8 st9">r</text> <text transform="matrix(1 0 0 1 118.0583 140.4879)" class="st7 st8 st9"> </text> <text transform="matrix(1 0 0 1 120.4333 140.4879)" class="st7 st8 st9">5</text> </g> <g id="Layer-1_25_"> <path class="st4" d="M3.9,136h2.9l-1.4-1.9L3.9,136z"></path> <path class="st4" d="M3.9,139.8h2.9l-1.4-1.9L3.9,139.8z"></path> <path class="st4" d="M3.9,143.6h2.9l-1.4-1.9L3.9,143.6z"></path> <path class="st4" d="M3.9,132.3h2.9l-1.4-1.9L3.9,132.3z"></path> </g> <g id="Layer-1_26_"> <path class="st4" d="M3.9,115.5h2.9l-1.4-1.9L3.9,115.5z"></path> <path class="st4" d="M3.9,119.2h2.9l-1.4-1.9L3.9,119.2z"></path> <path class="st4" d="M3.9,123h2.9l-1.4-1.9L3.9,123z"></path> <path class="st4" d="M3.9,111.7h2.9l-1.4-1.9L3.9,111.7z"></path> </g> <g id="Layer-1_27_"> <path class="st4" d="M3.9,94.2h2.9l-1.4-1.9L3.9,94.2z"></path> <path class="st4" d="M3.9,97.9h2.9l-1.4-1.9L3.9,97.9z"></path> <path class="st4" d="M3.9,101.7h2.9l-1.4-1.9L3.9,101.7z"></path> <path class="st4" d="M3.9,90.4h2.9l-1.4-1.9L3.9,90.4z"></path> </g> <g id="Layer-1_28_"> <path class="st4" d="M3.9,73.1h2.9l-1.4-1.9L3.9,73.1z"></path> <path class="st4" d="M3.9,76.9h2.9L5.3,75L3.9,76.9z"></path> <path class="st4" d="M3.9,80.7h2.9l-1.4-1.9L3.9,80.7z"></path> <path class="st4" d="M3.9,69.4h2.9l-1.4-1.9L3.9,69.4z"></path> </g> <g id="Layer-1_29_"> <path class="st4" d="M3.9,52.6h2.9l-1.4-1.9L3.9,52.6z"></path> <path class="st4" d="M3.9,56.3h2.9l-1.4-1.9L3.9,56.3z"></path> <path class="st4" d="M3.9,60.1h2.9l-1.4-1.9L3.9,60.1z"></path> <path class="st4" d="M3.9,48.8h2.9l-1.4-1.9L3.9,48.8z"></path> </g> <g id="Layer-1_30_"> <path class="st4" d="M3.9,31.8h2.9l-1.4-1.9L3.9,31.8z"></path> <path class="st4" d="M3.9,35.5h2.9l-1.4-1.9L3.9,35.5z"></path> <path class="st4" d="M3.9,39.3h2.9l-1.4-1.9L3.9,39.3z"></path> <path class="st4" d="M3.9,28h2.9l-1.4-1.9L3.9,28z"></path> </g> </svg> 