<?xml version="1.0" encoding="utf-8"?>
<!-- Generator: Adobe Illustrator 26.2.1, SVG Export Plug-In . SVG Version: 6.00 Build 0)  -->
<svg version="1.1" id="Ebene_1" xmlns="http://www.w3.org/2000/svg" xmlns:xlink="http://www.w3.org/1999/xlink" x="0px" y="0px"
	 viewBox="0 0 1000 702.95" style="enable-background:new 0 0 1000 702.95;" xml:space="preserve">
<style type="text/css">
	.st0{fill:#A2B9E1;}
	.st1{fill:#6796CF;}
	.st2{clip-path:url(#SVGID_00000122682868957888189540000005171696119192298885_);}
	.st3{fill:#2B2961;}
	.st4{fill:#FFFFFF;}
	.st5{clip-path:url(#SVGID_00000062171145021572062130000013080799292289390011_);}
	.st6{clip-path:url(#SVGID_00000036964690883390607400000006146057118162496923_);}
	.st7{clip-path:url(#SVGID_00000030481018795367686820000013473781806315040167_);}
	.st8{clip-path:url(#SVGID_00000071522310999003828310000012413318865200563362_);}
	.st9{clip-path:url(#SVGID_00000043438829999559449980000001776535302392456850_);}
	.st10{opacity:0.52;clip-path:url(#SVGID_00000101804751628534163400000011847178935624962195_);}
	.st11{clip-path:url(#SVGID_00000070081421282625741650000006939289945834463895_);}
	.st12{clip-path:url(#SVGID_00000010269847546705434960000001182955892001861296_);}
	.st13{clip-path:url(#SVGID_00000050651049481963900020000010828620509526943130_);}
	.st14{clip-path:url(#SVGID_00000077305541048687350980000017875122519765640886_);}
	.st15{clip-path:url(#SVGID_00000034789098849801248360000016859663299881346689_);}
	.st16{clip-path:url(#SVGID_00000101820114870340995910000010733352674096551068_);}
	.st17{clip-path:url(#SVGID_00000062162028139278109970000007478786114412314498_);}
	.st18{clip-path:url(#SVGID_00000008113840825676504270000004675357641521472644_);}
	.st19{clip-path:url(#SVGID_00000113318789316298177320000006840520995174337183_);}
	.st20{clip-path:url(#SVGID_00000161618956765614525620000013686160863174595769_);}
	.st21{clip-path:url(#SVGID_00000092425933999295971700000004308085877205297343_);}
	.st22{clip-path:url(#SVGID_00000013162105419805130260000017616412108308997279_);}
	.st23{fill:none;stroke:#2B2961;stroke-width:0.374;stroke-linejoin:round;stroke-miterlimit:10;}
	.st24{fill:none;stroke:#2B2961;stroke-width:0.4;stroke-miterlimit:10;}
	.st25{clip-path:url(#SVGID_00000134241041370264353040000015831863720443711678_);}
	.st26{clip-path:url(#SVGID_00000132051595027253563470000018024812600283387019_);}
	.st27{clip-path:url(#SVGID_00000099621036935196761910000009989288860472091055_);}
	.st28{clip-path:url(#SVGID_00000163788071207413468290000001479567666886896789_);}
	.st29{clip-path:url(#SVGID_00000138568283679057411570000012949094914505831054_);}
	.st30{clip-path:url(#SVGID_00000114764141779601709150000010850829588768246702_);}
	.st31{clip-path:url(#SVGID_00000036939660738326901900000017245416518116781701_);}
	.st32{clip-path:url(#SVGID_00000126305962219665639210000003721837396735407003_);}
	.st33{clip-path:url(#SVGID_00000126315154557865027110000007814858795916517292_);}
	.st34{clip-path:url(#SVGID_00000080896422320866250870000011258940468439083699_);}
	.st35{clip-path:url(#SVGID_00000055673269672102734990000016515953347730495914_);}
	.st36{clip-path:url(#SVGID_00000132778007004002017770000008302008343274736319_);}
	.st37{clip-path:url(#SVGID_00000068649736977165347800000013602987492447431566_);}
	.st38{clip-path:url(#SVGID_00000016782087908808647490000017706871480524804777_);}
	.st39{clip-path:url(#SVGID_00000094604319728411294270000010239604554990363282_);}
	.st40{clip-path:url(#SVGID_00000105391280104916508880000000485487791215894685_);}
	.st41{clip-path:url(#SVGID_00000106849196912533006020000011984738645764110483_);}
	.st42{clip-path:url(#SVGID_00000105409315117414244110000009420454783330033595_);}
	.st43{clip-path:url(#SVGID_00000116223045003626172720000006100515029660492198_);}
	.st44{clip-path:url(#SVGID_00000104694332823278467770000004033824157948108987_);}
	.st45{clip-path:url(#SVGID_00000042000860166804040850000001029373979964676014_);}
	.st46{clip-path:url(#SVGID_00000135664061290714317490000004888628480635250611_);}
	.st47{clip-path:url(#SVGID_00000096770062166705472750000009575771708820797856_);}
	.st48{clip-path:url(#SVGID_00000127749846445647988040000002161126044159134867_);}
	.st49{clip-path:url(#SVGID_00000017485406723803878060000013620921725291198137_);}
	.st50{clip-path:url(#SVGID_00000075854826207957029920000016453826040254353840_);}
	.st51{clip-path:url(#SVGID_00000028299532687354193200000015950119748212166806_);}
	.st52{clip-path:url(#SVGID_00000008835368263743022800000000819537070550859183_);}
	.st53{clip-path:url(#SVGID_00000088128368826134130110000011553311668893338262_);}
	.st54{clip-path:url(#SVGID_00000067954086491159844400000017086002428189445794_);}
	.st55{clip-path:url(#SVGID_00000007416519581574954270000000551549366354270381_);}
	.st56{clip-path:url(#SVGID_00000160904173462473905990000016350174600570207646_);}
	.st57{clip-path:url(#SVGID_00000111169368893134647990000010254040821288715425_);}
	.st58{clip-path:url(#SVGID_00000144300966167133239270000003455763494407784075_);}
	.st59{clip-path:url(#SVGID_00000065035690107943185100000015971326746115432635_);}
	.st60{clip-path:url(#SVGID_00000104693575284328123890000014677081589509509553_);}
	.st61{clip-path:url(#SVGID_00000094618343873903152020000014330708393188570536_);}
	.st62{fill:#9AB4DE;}
	.st63{clip-path:url(#SVGID_00000020373359143425458800000004033874016757704116_);}
	.st64{clip-path:url(#SVGID_00000140703755344947536580000007657988080986023325_);}
	.st65{clip-path:url(#SVGID_00000096018325357136851700000005785024097511969447_);}
	.st66{fill:#B9C9E9;}
	.st67{clip-path:url(#SVGID_00000110454974513050013700000017436276782483167632_);}
	.st68{clip-path:url(#SVGID_00000083046783467422306630000011908258724867880853_);}
	.st69{clip-path:url(#SVGID_00000125563591038890920320000013684337724538857385_);}
	.st70{clip-path:url(#SVGID_00000051366952606147110080000000208635773520853645_);}
	.st71{clip-path:url(#SVGID_00000109013269362879519920000001641669032013228730_);}
	.st72{clip-path:url(#SVGID_00000095339438847573231180000012754787867973002886_);}
	.st73{clip-path:url(#SVGID_00000127741842121018414360000008574549366631803071_);}
	.st74{clip-path:url(#SVGID_00000124158526045676095640000007828092342882553487_);}
	.st75{clip-path:url(#SVGID_00000165948043339002893830000008672198400651671487_);}
	.st76{clip-path:url(#SVGID_00000142151658947662556070000002134583617226481827_);}
	.st77{clip-path:url(#SVGID_00000026161358612036457880000011197857705986858393_);}
	.st78{clip-path:url(#SVGID_00000050621433854532370230000002722490259670718094_);}
	.st79{clip-path:url(#SVGID_00000183948683390667349230000013192642187731103129_);}
	.st80{clip-path:url(#SVGID_00000033337257890924681160000015082314552126773427_);}
	.st81{clip-path:url(#SVGID_00000014599791080953606650000017364413674039810219_);}
	.st82{clip-path:url(#SVGID_00000126299755605263905590000018084168613296883356_);}
	.st83{clip-path:url(#SVGID_00000037664284317336308800000011050599306292098216_);}
	.st84{clip-path:url(#SVGID_00000117675341185183577070000014433147752057167243_);}
	.st85{clip-path:url(#SVGID_00000057112794382310159750000000107235505372230797_);}
	.st86{clip-path:url(#SVGID_00000182496285538426430650000014907846885731156114_);}
	.st87{clip-path:url(#SVGID_00000074403830637692914990000015440580097536072064_);}
	.st88{clip-path:url(#SVGID_00000176009764101669101760000006997456959739336372_);}
	.st89{clip-path:url(#SVGID_00000031206172946736669880000011585824624001386121_);}
	.st90{clip-path:url(#SVGID_00000166672412006776688380000009152316616622731171_);}
	.st91{clip-path:url(#SVGID_00000060739061632914422750000012240435995855172748_);}
	.st92{clip-path:url(#SVGID_00000010997594748605277790000002191344835264271493_);}
	.st93{clip-path:url(#SVGID_00000077291689984126904600000001257503618507104914_);}
	.st94{clip-path:url(#SVGID_00000114043867353568788650000013288595408996250790_);}
	.st95{clip-path:url(#SVGID_00000028323956115973521330000007772239172029032101_);}
	.st96{clip-path:url(#SVGID_00000111875157387812855190000002196201760425081265_);}
	.st97{clip-path:url(#SVGID_00000047741964580893710180000012942338793584701324_);}
	.st98{clip-path:url(#SVGID_00000105398008170012261730000018129807412626002562_);}
	.st99{clip-path:url(#SVGID_00000021826646925372070280000003926860912060558211_);}
	.st100{clip-path:url(#SVGID_00000041260092771869892200000002971222915275191171_);}
	.st101{clip-path:url(#SVGID_00000085246439143398959340000010679748682524882050_);}
	.st102{clip-path:url(#SVGID_00000067229224378776439070000000982518444566890400_);}
	.st103{clip-path:url(#SVGID_00000096016951264592311810000005123561299022074273_);}
	.st104{clip-path:url(#SVGID_00000119797188823135601010000004593456323863653820_);}
	.st105{clip-path:url(#SVGID_00000049199465042063853730000013133234406252159145_);}
	.st106{clip-path:url(#SVGID_00000094581512805709554780000000621608292873930134_);}
	.st107{clip-path:url(#SVGID_00000164503333697865797140000007392531731477852555_);}
	.st108{clip-path:url(#SVGID_00000039827692297525198680000011242325348908688544_);}
	.st109{clip-path:url(#SVGID_00000010269424171874884880000001266078281944276371_);}
	.st110{clip-path:url(#SVGID_00000013889504939019687800000006294575271386217657_);}
	.st111{clip-path:url(#SVGID_00000088824515182956871310000002204171862446776470_);}
	.st112{clip-path:url(#SVGID_00000107570125166692460860000014467520264953650346_);}
	.st113{clip-path:url(#SVGID_00000068637550131799814930000012012022126319553931_);}
	.st114{clip-path:url(#SVGID_00000176752180802037081650000011862478579565909180_);}
	.st115{clip-path:url(#SVGID_00000179614336491368458090000011091473008665460133_);}
	.st116{clip-path:url(#SVGID_00000000908634788253921780000011984092369300561041_);}
	.st117{clip-path:url(#SVGID_00000141447672854794998070000016198250927879539124_);}
	.st118{clip-path:url(#SVGID_00000044155210746298455190000006474772261943820722_);}
	.st119{clip-path:url(#SVGID_00000047751756753651482160000006110895669439571861_);}
	.st120{clip-path:url(#SVGID_00000065044285492684450830000004278484305217443205_);}
	.st121{clip-path:url(#SVGID_00000046306017890196654850000005528517442602361522_);}
	.st122{clip-path:url(#SVGID_00000109010593828778582870000005790583030460209289_);}
	.st123{clip-path:url(#SVGID_00000149348659239968483450000005010821360727278505_);}
	.st124{clip-path:url(#SVGID_00000046319815585382082120000000942627585126223509_);}
	.st125{clip-path:url(#SVGID_00000116217475557314344890000004539631493406504892_);}
	.st126{clip-path:url(#SVGID_00000145028239100744676060000005530005669171306391_);}
	.st127{clip-path:url(#SVGID_00000114787550842583930250000009460334164093774781_);}
	.st128{clip-path:url(#SVGID_00000005956317779648137630000017597298046488763066_);}
	.st129{clip-path:url(#SVGID_00000181788644635584777290000014431491569742440376_);}
	.st130{clip-path:url(#SVGID_00000064353764085138514240000003883387355099419578_);}
	.st131{clip-path:url(#SVGID_00000016783283628935465770000002894948199288300450_);}
	.st132{clip-path:url(#SVGID_00000143611067691795589450000013548290682362625468_);}
	.st133{clip-path:url(#SVGID_00000103228214184553770450000007528776438414486441_);}
	.st134{clip-path:url(#SVGID_00000103267274214245907800000004176868418906872455_);}
	.st135{clip-path:url(#SVGID_00000143614948655544535110000012354949285934644923_);}
	.st136{clip-path:url(#SVGID_00000040562366564545194090000001052273692890021796_);}
	.st137{clip-path:url(#SVGID_00000144322888204327980250000016475438569547737264_);}
	.st138{clip-path:url(#SVGID_00000181063847227877160040000013379992845615037825_);}
	.st139{clip-path:url(#SVGID_00000026130197829645482260000006890147684070199983_);}
	.st140{clip-path:url(#SVGID_00000163778813753768044320000009845527820457140142_);}
	.st141{clip-path:url(#SVGID_00000052069609665340995290000014045140419881540263_);}
	.st142{clip-path:url(#SVGID_00000103263299634345172690000011923313637667205552_);}
	.st143{clip-path:url(#SVGID_00000091699159657865020020000017146661962789423792_);}
	.st144{clip-path:url(#SVGID_00000022530020335924913710000005790208899404331164_);}
	.st145{clip-path:url(#SVGID_00000042013782776702609370000000268904992871780745_);}
	.st146{clip-path:url(#SVGID_00000065056165373687116280000016724753510433058495_);}
	.st147{clip-path:url(#SVGID_00000042722838330972741070000001236332411546224532_);}
	.st148{clip-path:url(#SVGID_00000143595015985821582780000015227039559717747842_);}
	.st149{clip-path:url(#SVGID_00000067227715615643278290000005607630460726416533_);}
	.st150{clip-path:url(#SVGID_00000049185870614535153000000015659913219775221154_);}
	.st151{clip-path:url(#SVGID_00000156576278375617779010000018144943771748595112_);}
	.st152{clip-path:url(#SVGID_00000072255239255707843060000006239551254106235525_);}
	.st153{clip-path:url(#SVGID_00000119825320936410044670000001611210054841375623_);}
	.st154{clip-path:url(#SVGID_00000098929017634726880660000016292075409124816782_);}
	.st155{clip-path:url(#SVGID_00000136402278411253424730000008764481085681359526_);}
	.st156{clip-path:url(#SVGID_00000129205064672155386150000011319338265247027135_);}
	.st157{clip-path:url(#SVGID_00000176761450503492922600000000360925537193693315_);}
	.st158{clip-path:url(#SVGID_00000009571495348917184050000014743047408263132309_);}
	.st159{clip-path:url(#SVGID_00000065066719808409512020000012511545504706147518_);}
	.st160{clip-path:url(#SVGID_00000090267394773284720910000014490591170247523970_);}
	.st161{clip-path:url(#SVGID_00000181789869947085529130000011002909717540679600_);}
	.st162{clip-path:url(#SVGID_00000018948220447019430750000012083135085562883239_);}
	.st163{clip-path:url(#SVGID_00000067930891657404289960000006395426804208628668_);}
	.st164{clip-path:url(#SVGID_00000167395162421844051390000005813932370444804755_);}
	.st165{clip-path:url(#SVGID_00000109003144742672857670000016182294120956825781_);}
	.st166{clip-path:url(#SVGID_00000017486668656990681060000010807365217553355444_);}
	.st167{clip-path:url(#SVGID_00000173147700608744507490000010565160624455851667_);}
	.st168{clip-path:url(#SVGID_00000141441288349045834610000010430023612928782728_);}
	.st169{clip-path:url(#SVGID_00000036952539084731450750000013661809942197089708_);}
	.st170{clip-path:url(#SVGID_00000080206362969721364080000005479826436732314779_);}
	.st171{clip-path:url(#SVGID_00000110464624151985472870000007853894283218964638_);}
	.st172{clip-path:url(#SVGID_00000093162807412689553030000009004244040135379128_);}
	.st173{clip-path:url(#SVGID_00000146473780038725698720000003077452303501751473_);}
	.st174{clip-path:url(#SVGID_00000126316430387493949650000009427217391302633918_);}
	.st175{clip-path:url(#SVGID_00000170265200586687524630000016225087739341523629_);}
	.st176{clip-path:url(#SVGID_00000065795313211890708640000009191402689901604238_);}
	.st177{clip-path:url(#SVGID_00000019636783979652930600000017407753167871669946_);}
	.st178{clip-path:url(#SVGID_00000129917271727123312860000018303339812585506694_);}
	.st179{clip-path:url(#SVGID_00000054242243861631267210000017324834161831587466_);}
	.st180{clip-path:url(#SVGID_00000150077961193123469450000006080523442864565637_);}
	.st181{clip-path:url(#SVGID_00000099647148066100023470000005570758852910055602_);}
	.st182{clip-path:url(#SVGID_00000026858186140942655090000007926380234681055384_);}
	.st183{clip-path:url(#SVGID_00000139985608045015678400000004446790927187441055_);}
	.st184{clip-path:url(#SVGID_00000023249614058650299790000013601068595500907453_);}
	.st185{clip-path:url(#SVGID_00000182486904023742842960000014812788837423496120_);}
	.st186{clip-path:url(#SVGID_00000110436187015669041980000013247162635132666499_);}
	.st187{clip-path:url(#SVGID_00000061464970183979295790000003905038441743995576_);}
	.st188{clip-path:url(#SVGID_00000099623247203499512070000005502455400878744470_);}
	.st189{clip-path:url(#SVGID_00000107562002300876289290000002309160897176151998_);}
	.st190{clip-path:url(#SVGID_00000017503248967251859220000005867904256658635139_);}
	.st191{clip-path:url(#SVGID_00000114764368444690493320000002489345527358240664_);}
	.st192{clip-path:url(#SVGID_00000178203226686188048350000013852684416574700725_);}
	.st193{clip-path:url(#SVGID_00000088830939013179993280000012546113211671841974_);}
	.st194{clip-path:url(#SVGID_00000164480116679471557520000000708347917821180343_);}
	.st195{clip-path:url(#SVGID_00000093158569016754074310000011441455701257614208_);}
	.st196{clip-path:url(#SVGID_00000010289447402506697540000017708326033971485374_);}
	.st197{clip-path:url(#SVGID_00000072263445286632178010000012887882314726625158_);}
	.st198{clip-path:url(#SVGID_00000048477275156997750110000009288054123392291470_);}
	.st199{clip-path:url(#SVGID_00000069365422190810559790000012108735654761200279_);}
	.st200{clip-path:url(#SVGID_00000070819550475087497470000002818224216310282157_);}
	.st201{clip-path:url(#SVGID_00000008125318741254031870000011479297768545546900_);}
	.st202{clip-path:url(#SVGID_00000116234884339273150300000018303221916606120126_);}
	.st203{clip-path:url(#SVGID_00000121970995509297053650000017452455182245339811_);}
	.st204{clip-path:url(#SVGID_00000078006447809027514180000007185704285504272050_);}
	.st205{clip-path:url(#SVGID_00000136381784026044862000000004942839611475671937_);}
	.st206{clip-path:url(#SVGID_00000042695768249267476970000002383242504877125293_);}
	.st207{clip-path:url(#SVGID_00000053541273245362296830000005528240822149862543_);}
	.st208{clip-path:url(#SVGID_00000160900977715240142040000017314286245114430389_);}
	.st209{clip-path:url(#SVGID_00000060726639704924839720000006709232150252714121_);}
	.st210{clip-path:url(#SVGID_00000109026057609489490980000015017264157122870937_);}
	.st211{clip-path:url(#SVGID_00000095330990546682002310000003232290041534070932_);}
	.st212{clip-path:url(#SVGID_00000173874027576405205960000013690075498787551166_);}
	.st213{clip-path:url(#SVGID_00000003068781598304426990000010952492432092862633_);}
	.st214{clip-path:url(#SVGID_00000177474026820693814510000013945466912018810765_);}
	.st215{clip-path:url(#SVGID_00000002355020962831539000000016075684695080248492_);}
	.st216{clip-path:url(#SVGID_00000159443762403337189120000005099741007262574764_);}
	.st217{clip-path:url(#SVGID_00000104692015829483961570000017833079106636991645_);}
	.st218{clip-path:url(#SVGID_00000158747449231170847620000014559910881992388514_);}
	.st219{clip-path:url(#SVGID_00000091719939715999769830000010522408240530267834_);}
	.st220{clip-path:url(#SVGID_00000178196040663073988170000009132955099566790832_);}
	.st221{clip-path:url(#SVGID_00000086651014222419810440000000543169595414297996_);}
	.st222{clip-path:url(#SVGID_00000121279801607896538200000008916192578972974990_);}
	.st223{clip-path:url(#SVGID_00000062165323947967464760000014986307315077088182_);}
	.st224{clip-path:url(#SVGID_00000180354273128170501960000003197724238780568509_);}
	.st225{clip-path:url(#SVGID_00000108275115441314527930000010304398015925383813_);}
	.st226{clip-path:url(#SVGID_00000120540446137739416710000005444757783924565148_);}
	.st227{clip-path:url(#SVGID_00000018198800866814832650000014029782087016985500_);}
	.st228{clip-path:url(#SVGID_00000003804042737323681540000013657848041495558022_);}
	.st229{clip-path:url(#SVGID_00000017488272943087845040000002964885831601119125_);}
	.st230{clip-path:url(#SVGID_00000144313737200361883300000018040235492637885097_);}
	.st231{clip-path:url(#SVGID_00000058570102961057689640000004636680102341621409_);}
	.st232{clip-path:url(#SVGID_00000120526641047425039630000015139060616127319214_);}
	.st233{clip-path:url(#SVGID_00000130637166658459116160000009137165034937632384_);}
	.st234{clip-path:url(#SVGID_00000131327018654818627970000002713148138442922406_);}
	.st235{clip-path:url(#SVGID_00000124856752227535745270000000231255300855486099_);}
	.st236{clip-path:url(#SVGID_00000050634881328184608760000013715397361533299637_);}
	.st237{clip-path:url(#SVGID_00000054260168779027569780000012812016216380274087_);}
	.st238{clip-path:url(#SVGID_00000049944675773688131560000000851109379152608409_);}
	.st239{clip-path:url(#SVGID_00000051366969443680384600000017800693130378780849_);}
	.st240{clip-path:url(#SVGID_00000022541537648701401010000016995666643263396245_);}
	.st241{clip-path:url(#SVGID_00000027584596173156793540000016293979954732922808_);}
	.st242{clip-path:url(#SVGID_00000106128900427464158240000012354454819741633452_);}
	.st243{clip-path:url(#SVGID_00000125580280232169440590000011776347690789893015_);}
	.st244{clip-path:url(#SVGID_00000064338036334580148140000005769217515929162421_);}
	.st245{clip-path:url(#SVGID_00000170958052428620896690000007856841722498250418_);}
	.st246{clip-path:url(#SVGID_00000136400583955696785170000000685971253851353512_);}
	.st247{clip-path:url(#SVGID_00000119090067152227026470000001858938615088410756_);}
	.st248{clip-path:url(#SVGID_00000106119535432616184430000015238895116818031499_);}
	.st249{clip-path:url(#SVGID_00000047039127235283885830000007559603975010642306_);}
	.st250{clip-path:url(#SVGID_00000041297558689399387850000007552588625857687719_);}
	.st251{clip-path:url(#SVGID_00000080913078302564636800000005617016610781228478_);}
	.st252{clip-path:url(#SVGID_00000125597466058085579990000018233847468432061583_);}
	.st253{clip-path:url(#SVGID_00000022536276937672442340000014361254818643966136_);}
	.st254{clip-path:url(#SVGID_00000069393108257773419560000016418939458823357614_);}
	.st255{clip-path:url(#SVGID_00000036971052445579145090000014636622069184508074_);}
	.st256{clip-path:url(#SVGID_00000081612993014649218000000008875160735728406433_);}
	.st257{clip-path:url(#SVGID_00000047038249404361837690000014587789395558175423_);}
	.st258{clip-path:url(#SVGID_00000002359701194241794960000001194654663159631537_);}
	.st259{clip-path:url(#SVGID_00000096739283868995655200000018157756129514573707_);}
	.st260{clip-path:url(#SVGID_00000116206260608462055830000010191923196665821070_);}
	.st261{clip-path:url(#SVGID_00000163774982913781723500000002323406854988991632_);}
	.st262{clip-path:url(#SVGID_00000072994336462078058900000010109289157755944882_);}
	.st263{clip-path:url(#SVGID_00000039842433177845776010000017526311296127824799_);}
	.st264{clip-path:url(#SVGID_00000123419767812966006380000017378935103317128616_);}
	.st265{clip-path:url(#SVGID_00000043415944215616768870000014688396130567817346_);}
	.st266{clip-path:url(#SVGID_00000169539207204169969850000018228426523592458655_);}
	.st267{clip-path:url(#SVGID_00000019657915293568307390000000604501822225695154_);}
	.st268{clip-path:url(#SVGID_00000076583863333711365500000013399752347172894083_);}
	.st269{clip-path:url(#SVGID_00000045620533255686370440000009839440430951821748_);}
	.st270{clip-path:url(#SVGID_00000100373702533642703260000017327181091697351055_);}
	.st271{clip-path:url(#SVGID_00000084530550434589717660000007254065855331777937_);}
	.st272{clip-path:url(#SVGID_00000009571887711516614820000002066314720521232296_);}
	.st273{clip-path:url(#SVGID_00000106865739970900875290000004334925260556447626_);}
	.st274{clip-path:url(#SVGID_00000172399230366104933620000013751862277117969283_);}
	.st275{clip-path:url(#SVGID_00000145023653021854531680000016249878235136533927_);}
	.st276{clip-path:url(#SVGID_00000094599088121308061620000016437221385496417176_);}
	.st277{clip-path:url(#SVGID_00000019674633089932697990000010233365705980683409_);}
	.st278{clip-path:url(#SVGID_00000063606759650346608280000018066746925120675470_);}
	.st279{clip-path:url(#SVGID_00000080209103075284471890000005697196428751701910_);}
	.st280{clip-path:url(#SVGID_00000103223989399788975330000012504210891984038043_);}
	.st281{clip-path:url(#SVGID_00000151543404936334533550000002791049713808535213_);}
	.st282{clip-path:url(#SVGID_00000055698468800112987190000008102783164096409013_);}
	.st283{clip-path:url(#SVGID_00000137112745553428484420000013209047785422829227_);}
	.st284{clip-path:url(#SVGID_00000092432939787730712110000015648304063398151333_);}
	.st285{clip-path:url(#SVGID_00000154416123346447850280000015348569013373620666_);}
	.st286{clip-path:url(#SVGID_00000140005639488542686680000011557691243541727672_);}
	.st287{clip-path:url(#SVGID_00000155830469859070922940000006680331688635010190_);}
	.st288{clip-path:url(#SVGID_00000042703135119085161610000012273171540470858372_);}
	.st289{clip-path:url(#SVGID_00000077319635973696656820000012223991354334754213_);}
	.st290{clip-path:url(#SVGID_00000082341318156825217250000018103417520201717646_);}
	.st291{clip-path:url(#SVGID_00000159438408054695875040000010022217313045424547_);}
	.st292{clip-path:url(#SVGID_00000102534358629163506580000015661277086337951670_);}
	.st293{clip-path:url(#SVGID_00000023258910289475099420000007976848507165396113_);}
	.st294{clip-path:url(#SVGID_00000147219863675577446170000006222341437569359032_);}
	.st295{clip-path:url(#SVGID_00000167355351295704011330000000604285088523060636_);}
	.st296{clip-path:url(#SVGID_00000112617233203852704610000015960790195244699560_);}
	.st297{clip-path:url(#SVGID_00000173841311370361688260000001942804443132553635_);}
	.st298{clip-path:url(#SVGID_00000036969024389664247540000006926202623703602875_);}
	.st299{clip-path:url(#SVGID_00000097476792860482033350000004228551951128489117_);}
	.st300{clip-path:url(#SVGID_00000127033412824737124440000000058226879778660247_);}
	.st301{clip-path:url(#SVGID_00000036941560512319758610000007841406500777398406_);}
	.st302{clip-path:url(#SVGID_00000060710477824288746880000007120096143866236573_);}
	.st303{clip-path:url(#SVGID_00000027585211141436104990000001519821051590515609_);}
	.st304{clip-path:url(#SVGID_00000108278120956494009510000007919796845564483509_);}
	.st305{clip-path:url(#SVGID_00000140729562879467621010000013541854092107318162_);}
	.st306{clip-path:url(#SVGID_00000119112715159954217410000015528863677057196964_);}
	.st307{clip-path:url(#SVGID_00000017506301447435285830000002886930967493952158_);}
	.st308{clip-path:url(#SVGID_00000041262430425264946930000002649433481414422715_);}
	.st309{clip-path:url(#SVGID_00000123413016402493191240000002219357967684851635_);}
	.st310{clip-path:url(#SVGID_00000041977794492396901020000018195657794359566220_);}
	.st311{clip-path:url(#SVGID_00000000925789648446018580000009018348499639733679_);}
	.st312{clip-path:url(#SVGID_00000173163251858887927110000005489625253492019847_);}
	.st313{clip-path:url(#SVGID_00000132088266592316473460000009405151915866394009_);}
	.st314{clip-path:url(#SVGID_00000118358949511298884460000016874939998202261633_);}
	.st315{clip-path:url(#SVGID_00000085953858649484705090000010670093241072255115_);}
	.st316{clip-path:url(#SVGID_00000081615565846368982540000004722595855204448906_);}
	.st317{clip-path:url(#SVGID_00000130623499570190195790000001368175683478712968_);}
	.st318{clip-path:url(#SVGID_00000022560027455202019040000014524755839943866277_);}
	.st319{clip-path:url(#SVGID_00000075852026521913339420000014980428887858530688_);}
	.st320{clip-path:url(#SVGID_00000020372131244711465020000014780562562675067064_);}
	.st321{clip-path:url(#SVGID_00000129893021983437130550000009767309190059154571_);}
	.st322{clip-path:url(#SVGID_00000041277318440894629210000004796194922488678300_);}
	.st323{clip-path:url(#SVGID_00000086691694806981172080000008876801744172945048_);}
	.st324{clip-path:url(#SVGID_00000177460228066618369960000009381387571651715488_);}
	.st325{clip-path:url(#SVGID_00000168804259326335456800000003909221357042413222_);}
	.st326{clip-path:url(#SVGID_00000168824052962908315870000017310855745202161084_);}
	.st327{clip-path:url(#SVGID_00000131330863701611904250000011294393652824484284_);}
	.st328{clip-path:url(#SVGID_00000170961353477614744660000015043674085965527211_);}
	.st329{clip-path:url(#SVGID_00000060005836808334534440000012106028658758699418_);}
	.st330{clip-path:url(#SVGID_00000157998671640653815980000001874130155126124170_);}
	.st331{clip-path:url(#SVGID_00000141452066267607131590000016585745233258439343_);}
	.st332{clip-path:url(#SVGID_00000129194275747317240970000006563881195585984149_);}
	.st333{clip-path:url(#SVGID_00000090258621967302007480000000731901693535457698_);}
	.st334{clip-path:url(#SVGID_00000038389789420095207920000003897557248468107137_);}
	.st335{clip-path:url(#SVGID_00000164479090640141811080000016885552880985236365_);}
	.st336{clip-path:url(#SVGID_00000109002436506002820940000000078996638435401635_);}
	.st337{clip-path:url(#SVGID_00000096047887433076941090000004293940182414431369_);}
	.st338{clip-path:url(#SVGID_00000151513464647523236780000011383147746590490755_);}
	.st339{clip-path:url(#SVGID_00000040555569157725215540000015835781908160890757_);}
	.st340{clip-path:url(#SVGID_00000007401460652870894890000009271685905723616660_);}
	.st341{clip-path:url(#SVGID_00000076570791822084445710000004716096759739784606_);}
	.st342{clip-path:url(#SVGID_00000080174966344881177760000002217122447741200800_);}
	.st343{clip-path:url(#SVGID_00000109730526490120342330000005813407471448081336_);}
	.st344{clip-path:url(#SVGID_00000089569292487017773600000000814075563993653412_);}
	.st345{clip-path:url(#SVGID_00000155108114183177023880000003761493155878648972_);}
	.st346{clip-path:url(#SVGID_00000031198054862078299510000009070569418357237135_);}
	.st347{clip-path:url(#SVGID_00000177449767106871667680000001899448421048590498_);}
	.st348{clip-path:url(#SVGID_00000157296487976719615850000006614705379248286848_);}
	.st349{clip-path:url(#SVGID_00000109717794593187174320000010660982658681127331_);}
	.st350{clip-path:url(#SVGID_00000024709486799185993380000013630594567293597358_);}
	.st351{clip-path:url(#SVGID_00000021083388034351604970000006284838629499366798_);}
	.st352{clip-path:url(#SVGID_00000028318965013184163800000008544747140937803694_);}
	.st353{clip-path:url(#SVGID_00000084497652598950567910000007170489797493086903_);}
	.st354{clip-path:url(#SVGID_00000011010792980545880820000000339578982675033478_);}
	.st355{clip-path:url(#SVGID_00000035508976613014350370000007631199251422153919_);}
	.st356{clip-path:url(#SVGID_00000182516770151398175160000003532405115444142764_);}
	.st357{clip-path:url(#SVGID_00000007415094762076463210000004058596350292641719_);}
	.st358{clip-path:url(#SVGID_00000089546206963116219770000017529206286392451205_);}
	.st359{clip-path:url(#SVGID_00000131335772133191291240000011904441993714328752_);}
	.st360{clip-path:url(#SVGID_00000014614831031311254210000010884389882073943739_);}
	.st361{clip-path:url(#SVGID_00000163759126580841908000000004500235715877740177_);}
	.st362{clip-path:url(#SVGID_00000134946960955610609830000016700107916885439635_);}
	.st363{clip-path:url(#SVGID_00000103987436266434318630000005053623153739211409_);}
	.st364{clip-path:url(#SVGID_00000175322544720591173340000002954523261339952303_);}
	.st365{clip-path:url(#SVGID_00000137818512054365206700000000812284081850911652_);}
	.st366{clip-path:url(#SVGID_00000174570618763535016010000008398848521415597741_);}
	.st367{clip-path:url(#SVGID_00000129889040770334761030000006646480965539869868_);}
	.st368{clip-path:url(#SVGID_00000146471087623107266800000011467379265813854340_);}
	.st369{clip-path:url(#SVGID_00000179609341569665597690000016222682716795280801_);}
	.st370{clip-path:url(#SVGID_00000145761970552630301890000015376804066632206015_);}
	.st371{clip-path:url(#SVGID_00000121986370880119787200000012568813302426088850_);}
	.st372{clip-path:url(#SVGID_00000178919591377329022970000009812357051088596107_);}
	.st373{clip-path:url(#SVGID_00000178901279831316791780000007391412660304140726_);}
	.st374{clip-path:url(#SVGID_00000005231492785952952720000005417747300775041682_);}
	.st375{clip-path:url(#SVGID_00000131334955766322211670000006704024512344897711_);}
</style>
<g>
	<g>
		<rect x="5.68" y="109.98" class="st0" width="48.54" height="588.48"/>
	</g>
	<g>
		<rect x="5.68" class="st1" width="992.64" height="116.88"/>
	</g>
	<g>
		<defs>
			<rect id="SVGID_00000164499445038710548880000014182144405419749548_" y="0" width="1000" height="702.95"/>
		</defs>
		<clipPath id="SVGID_00000163036012758392534410000004584753516449064590_">
			<use xlink:href="#SVGID_00000164499445038710548880000014182144405419749548_"  style="overflow:visible;"/>
		</clipPath>
		<g style="clip-path:url(#SVGID_00000163036012758392534410000004584753516449064590_);">
			<path class="st3" d="M998.32,702.95H2.81c-0.93,0-1.68-0.75-1.68-1.68V2.81c0-0.93,0.75-1.68,1.68-1.68h995.5
				c0.93,0,1.68,0.75,1.68,1.68v698.45C1000,702.19,999.25,702.95,998.32,702.95z M4.5,699.58h992.14V4.49H4.5V699.58z"/>
		</g>
		<g style="clip-path:url(#SVGID_00000163036012758392534410000004584753516449064590_);">
			<rect x="0" y="115.19" class="st3" width="995.5" height="3.37"/>
		</g>
		<g style="clip-path:url(#SVGID_00000163036012758392534410000004584753516449064590_);">
			<path class="st4" d="M845.81,69.08c0-6.43-3.8-10.45-11.32-11.18l-5.99-0.59c-3.36-0.29-3.94-1.9-3.94-3.29
				c0-1.9,1.61-3.65,5.41-3.65c3.29,0,6.65,0.58,8.84,2.56l5.84-5.91c-3.65-3.43-8.62-4.45-14.54-4.45
				c-7.74,0-14.68,4.23-14.68,12.11c0,7.02,4.24,10.01,11.1,10.67l5.99,0.58c2.99,0.29,4.02,1.61,4.02,3.51
				c0,2.85-3.43,3.95-6.72,3.95c-2.92,0-7.01-0.44-10.15-3.58l-6.21,6.21c4.82,4.82,10.23,5.47,16.22,5.47
				C838.65,81.5,845.81,77.48,845.81,69.08 M808.19,69.08c0-6.43-3.8-10.45-11.32-11.18l-5.99-0.59c-3.36-0.29-3.94-1.9-3.94-3.29
				c0-1.9,1.61-3.65,5.41-3.65c3.29,0,6.65,0.58,8.84,2.56l5.84-5.91c-3.65-3.43-8.62-4.45-14.54-4.45
				c-7.74,0-14.68,4.23-14.68,12.11c0,7.02,4.24,10.01,11.1,10.67l5.99,0.58c2.99,0.29,4.02,1.61,4.02,3.51
				c0,2.85-3.43,3.95-6.72,3.95c-2.92,0-7.01-0.44-10.15-3.58l-6.21,6.21c4.82,4.82,10.23,5.47,16.22,5.47
				C801.03,81.5,808.19,77.48,808.19,69.08 M767.42,81.06V43.01h-9.49v23.01c0,5.19-3.36,6.94-6.36,6.94c-3,0-6.29-1.75-6.29-6.94
				V43.01h-9.49v24.33c0,4.16,0.8,7.74,3.87,10.81c2.11,2.11,5.18,3.35,8.98,3.35c3.51,0,7.02-1.31,9.5-3.94v3.5H767.42z
				 M727.17,81.06v-8.02h-3.65c-2.41,0-3.36-1.17-3.36-3.43V29.06h-9.49v41.13c0,5.4,3.28,10.87,11.09,10.87H727.17z M699.34,81.06
				V56.44c0-8.04-4.38-13.87-12.7-13.87c-3.36,0-6.58,1.31-9.14,3.94V29.06h-9.48v52h9.48V57.83c0-4.97,3.14-6.72,6.14-6.72
				c2.99,0,6.21,1.68,6.21,6.72v23.23H699.34z M659.16,76.32l-6.43-6.36c-1.97,2.12-3.65,3-6.14,3c-2.26,0-4.02-0.8-5.41-2.49
				c-1.46-1.83-2.12-4.46-2.12-8.47c0-4.02,0.66-6.58,2.12-8.41c1.39-1.68,3.14-2.48,5.41-2.48c2.48,0,4.16,0.88,6.14,2.99
				l6.43-6.42c-3.36-3.51-7.3-5.11-12.56-5.11c-7.6,0-17.01,4.01-17.01,19.43c0,15.41,9.41,19.5,17.01,19.5
				C651.86,81.5,655.8,79.82,659.16,76.32 M622.06,69.08c0-6.43-3.8-10.45-11.32-11.18l-5.99-0.59c-3.36-0.29-3.94-1.9-3.94-3.29
				c0-1.9,1.61-3.65,5.41-3.65c3.29,0,6.65,0.58,8.84,2.56l5.84-5.91c-3.65-3.43-8.62-4.45-14.54-4.45
				c-7.74,0-14.68,4.23-14.68,12.11c0,7.02,4.24,10.01,11.1,10.67l5.99,0.58c2.99,0.29,4.02,1.61,4.02,3.51
				c0,2.85-3.43,3.95-6.72,3.95c-2.92,0-7.01-0.44-10.15-3.58l-6.21,6.21c4.82,4.82,10.23,5.47,16.22,5.47
				C614.9,81.5,622.06,77.48,622.06,69.08 M573.41,62c0,6.21-0.73,10.96-6.43,10.96s-6.43-4.75-6.43-10.96
				c0-6.21,0.73-10.89,6.43-10.89S573.41,55.78,573.41,62 M582.9,62c0-5.7-0.07-12.2-3.87-16c-2.12-2.12-5.55-3.43-9.28-3.43
				c-3.87,0-6.72,1.02-9.21,3.79V29.06h-9.48v52h9.19v-3.57c2.64,2.92,5.48,4.01,9.5,4.01c3.73,0,7.16-1.31,9.28-3.43
				C582.83,74.27,582.9,67.7,582.9,62 M529.88,67.03c0,2.34-0.37,3.88-1.39,4.83c-1.68,1.61-3.37,1.83-6,1.83
				c-3.73,0-5.48-1.76-5.48-4.39c0-2.71,1.9-4.32,5.34-4.32h7.53V67.03z M539.36,81.06V56.01c0-8.91-5.55-13.44-16.21-13.44
				c-6.36,0-10.01,1.16-13.73,5.25l6.06,5.92c1.97-2.27,3.65-3.15,7.3-3.15c5.05,0,7.09,1.83,7.09,6v1.9h-8.99
				c-8.84,0-13,4.96-13,11.02c0,3.36,1.1,6.43,3.14,8.55c2.26,2.26,5.4,3.35,9.72,3.35c4.38,0,6.8-1.1,9.36-3.65v3.28H539.36z
				 M501.52,81.06v-8.02h-3.65c-2.41,0-3.36-1.17-3.36-3.43V29.06h-9.48v41.13c0,5.4,3.28,10.87,11.09,10.87H501.52z M473.25,81.06
				V43.01h-9.49v23.01c0,5.19-3.36,6.94-6.36,6.94c-2.99,0-6.29-1.75-6.29-6.94V43.01h-9.48v24.33c0,4.16,0.8,7.74,3.87,10.81
				c2.12,2.11,5.18,3.35,8.98,3.35c3.51,0,7.02-1.31,9.5-3.94v3.5H473.25z M430.38,81.06V56.44c0-8.04-4.38-13.87-12.7-13.87
				c-3.37,0-6.58,1.31-9.14,3.94V29.06h-9.49v52h9.49V57.83c0-4.97,3.14-6.72,6.14-6.72c3,0,6.21,1.68,6.21,6.72v23.23H430.38z
				 M390.2,76.32l-6.43-6.36c-1.97,2.12-3.65,3-6.14,3c-2.26,0-4.02-0.8-5.41-2.49c-1.46-1.83-2.12-4.46-2.12-8.47
				c0-4.02,0.66-6.58,2.12-8.41c1.39-1.68,3.14-2.48,5.41-2.48c2.48,0,4.16,0.88,6.14,2.99l6.43-6.42
				c-3.36-3.51-7.3-5.11-12.56-5.11c-7.6,0-17.01,4.01-17.01,19.43c0,15.41,9.42,19.5,17.01,19.5
				C382.9,81.5,386.84,79.82,390.2,76.32 M353.1,69.08c0-6.43-3.8-10.45-11.32-11.18l-5.99-0.59c-3.36-0.29-3.94-1.9-3.94-3.29
				c0-1.9,1.61-3.65,5.41-3.65c3.29,0,6.65,0.58,8.84,2.56l5.84-5.91c-3.65-3.43-8.62-4.45-14.54-4.45
				c-7.74,0-14.68,4.23-14.68,12.11c0,7.02,4.24,10.01,11.1,10.67l5.99,0.58c2.99,0.29,4.02,1.61,4.02,3.51
				c0,2.85-3.43,3.95-6.72,3.95c-2.92,0-7.01-0.44-10.15-3.58l-6.21,6.21c4.82,4.82,10.23,5.47,16.22,5.47
				C345.94,81.5,353.1,77.48,353.1,69.08 M314.38,81.06v-8.02h-3.43c-2.26,0-3.29-1.24-3.29-3.44V51.33h6.72v-7.22h-6.72V32.86
				h-9.49v11.25h-4.02v7.22h4.02v18.85c0,5.41,3.29,10.88,11.02,10.88H314.38z M277.28,62c0,6.21-0.74,10.96-6.43,10.96
				c-5.7,0-6.43-4.75-6.43-10.96c0-6.21,0.73-10.89,6.43-10.89C276.55,51.11,277.28,55.78,277.28,62 M286.77,62
				c0-5.7-0.07-12.2-3.87-16c-2.12-2.12-5.55-3.43-9.28-3.43c-4.02,0-6.87,1.09-9.5,4.01v-3.57h-9.19v52h9.49V77.7
				c2.48,2.77,5.34,3.79,9.21,3.79c3.73,0,7.16-1.31,9.28-3.43C286.7,74.27,286.77,67.7,286.77,62 M242.79,81.06V43.01h-9.49v23.01
				c0,5.19-3.37,6.94-6.36,6.94c-3,0-6.29-1.75-6.29-6.94V43.01h-9.49v24.33c0,4.16,0.8,7.74,3.87,10.81
				c2.12,2.11,5.18,3.35,8.98,3.35c3.51,0,7.02-1.31,9.51-3.94v3.5H242.79z M190.43,67.03c0,2.34-0.37,3.88-1.39,4.83
				c-1.68,1.61-3.36,1.83-5.99,1.83c-3.73,0-5.48-1.76-5.48-4.39c0-2.71,1.9-4.32,5.34-4.32h7.53V67.03z M199.91,81.06V56.01
				c0-8.91-5.55-13.44-16.21-13.44c-6.36,0-10.01,1.16-13.73,5.25l6.06,5.92c1.97-2.27,3.65-3.15,7.31-3.15c5.04,0,7.09,1.83,7.09,6
				v1.9h-9c-8.83,0-12.99,4.96-12.99,11.02c0,3.36,1.09,6.43,3.14,8.55c2.26,2.26,5.4,3.35,9.71,3.35c4.39,0,6.8-1.1,9.36-3.65v3.28
				H199.91z M158.28,81.06v-52h-10.14v21.26h-17.62V29.06h-10.14v52h10.14V59.29h17.62v21.77H158.28z"/>
		</g>
		<g style="clip-path:url(#SVGID_00000163036012758392534410000004584753516449064590_);">
			<rect x="2.81" y="232.07" class="st3" width="992.7" height="3.37"/>
		</g>
		<g style="clip-path:url(#SVGID_00000163036012758392534410000004584753516449064590_);">
			<rect x="2.81" y="346.13" class="st3" width="992.7" height="3.37"/>
		</g>
		<g style="clip-path:url(#SVGID_00000163036012758392534410000004584753516449064590_);">
			<rect x="2.81" y="468.63" class="st3" width="992.7" height="3.37"/>
		</g>
		<g style="clip-path:url(#SVGID_00000163036012758392534410000004584753516449064590_);">
			<rect x="2.81" y="585.51" class="st3" width="992.7" height="3.37"/>
		</g>
		<g style="clip-path:url(#SVGID_00000163036012758392534410000004584753516449064590_);">
			<path class="st3" d="M717.16,654.09c0-3.58-0.43-7.27-3.31-10.14c-1.55-1.55-3.84-2.46-6.83-2.46c-2.78,0-5.02,0.85-6.3,2.19
				v-10.04h15.59v-4.85h-20.49v20.76h4.96c0.59-1.87,2.3-3.42,5.39-3.42c4.38,0,5.56,3.42,5.56,7.96c0,2.56-0.21,5.07-1.81,6.68
				c-0.96,0.96-2.35,1.49-3.96,1.49c-3.42,0-5.12-1.92-5.55-5.29h-5.44c0.21,2.72,0.85,5.23,2.88,7.26
				c1.65,1.65,4.48,2.93,8.11,2.93c3.69,0,6.3-1.28,8.01-2.98C716.74,661.41,717.16,658.15,717.16,654.09 M675.74,663.27l-3.69-3.63
				c-1.65,1.66-2.78,2.62-5.23,2.62c-4.38,0-6.62-3.05-6.62-9.02c0-5.88,2.24-8.97,6.62-8.97c2.41,0,3.63,0.96,5.23,2.56l3.69-3.57
				c-1.71-1.71-2.56-2.29-4.01-2.93c-1.39-0.58-2.99-0.9-4.85-0.9c-7.58,0-12.11,5.17-12.11,13.72c0,8.81,4.48,13.98,12.11,13.98
				c1.87,0,3.42-0.26,4.85-0.9C673.18,665.56,674.03,664.98,675.74,663.27 M649.85,663.27l-3.68-3.63
				c-1.66,1.66-2.78,2.62-5.23,2.62c-4.38,0-6.62-3.05-6.62-9.02c0-5.88,2.24-8.97,6.62-8.97c2.4,0,3.63,0.96,5.23,2.56l3.68-3.57
				c-1.71-1.71-2.56-2.29-4-2.93c-1.39-0.58-2.99-0.9-4.86-0.9c-7.57,0-12.11,5.17-12.11,13.72c0,8.81,4.48,13.98,12.11,13.98
				c1.87,0,3.42-0.26,4.86-0.9C647.28,665.56,648.14,664.98,649.85,663.27 M615.96,657.02c0,3.95-1.71,5.56-5.93,5.56
				c-3.69,0-5.34-1.23-5.34-3.85c0-2.56,1.65-3.84,4.86-3.84h6.41V657.02z M621.35,666.79V648.7c0-6.14-3.79-9.28-11.32-9.28
				c-2.56,0-4.48,0.32-6.03,1.06c-1.33,0.59-2.02,1.23-3.52,2.83l3.57,3.37c0.8-1.02,1.39-1.55,2.19-1.92
				c0.96-0.48,2.08-0.7,3.64-0.7c4.27,0,6.09,1.49,6.09,5.02v1.98h-7.27c-5.77,0-9.28,2.93-9.28,7.84c0,5.23,3.36,8.16,9.39,8.16
				c3.21,0,4.97-0.48,7.21-2.72v2.45H621.35z M592.2,666.79v-27.06h-18.52v11.26c0,10.47-2.78,11-5.12,11h-0.85v4.8h2.56
				c5.28,0,8.64-2.98,8.64-14.46v-7.85h7.86v22.31H592.2z M543.94,666.79v-19.85l15.32,19.85h7.32l-15.96-20.07l14.63-17.94h-7.1
				l-14.2,18.04v-18.04h-5.76v38H543.94z M519.34,624.84h-5.23l-15.22,45.9h5.23L519.34,624.84z M482.13,654.09
				c0-3.58-0.43-7.27-3.3-10.14c-1.55-1.55-3.84-2.46-6.83-2.46c-2.78,0-5.02,0.85-6.3,2.19v-10.04h15.59v-4.85h-20.49v20.76h4.96
				c0.59-1.87,2.3-3.42,5.4-3.42c4.38,0,5.55,3.42,5.55,7.96c0,2.56-0.21,5.07-1.81,6.68c-0.96,0.96-2.35,1.49-3.95,1.49
				c-3.42,0-5.13-1.92-5.56-5.29h-5.44c0.21,2.72,0.85,5.23,2.88,7.26c1.65,1.65,4.48,2.93,8.11,2.93c3.68,0,6.3-1.28,8.01-2.98
				C481.7,661.41,482.13,658.15,482.13,654.09 M434.4,651.05h-12.17c0.06-1.66,0.16-2.46,0.7-3.69c0.85-2.03,2.83-3.42,5.39-3.42
				s4.48,1.39,5.34,3.42C434.19,648.59,434.35,649.39,434.4,651.05 M439.8,654.83v-2.4c0-7.69-4.22-13.02-11.48-13.02
				c-6.94,0-11.47,5.06-11.47,13.82c0,10.31,5.38,13.88,12.17,13.88c4.75,0,7.37-1.44,10.14-4.21l-3.47-3.26
				c-1.92,1.92-3.52,2.78-6.56,2.78c-4.43,0-6.89-2.94-6.89-7.59H439.8z M411.08,658.52c0-4.8-2.99-7.21-8.06-7.64l-4.27-0.37
				c-2.88-0.27-3.74-1.49-3.74-3.1c0-2.03,1.65-3.47,4.91-3.47c2.56,0,4.96,0.53,6.67,1.98l3.42-3.47
				c-2.51-2.19-5.98-3.03-10.04-3.03c-5.66,0-10.19,2.98-10.19,8.27c0,4.75,2.93,7.05,8.01,7.48l4.32,0.37
				c2.62,0.21,3.63,1.39,3.63,3.2c0,2.57-2.61,3.74-5.92,3.74c-2.67,0-5.61-0.59-7.79-2.83l-3.58,3.57
				c3.2,3.15,6.94,3.89,11.37,3.89C406.28,667.11,411.08,664.18,411.08,658.52 M384.23,658.52c0-4.8-2.99-7.21-8.06-7.64l-4.27-0.37
				c-2.88-0.27-3.74-1.49-3.74-3.1c0-2.03,1.66-3.47,4.91-3.47c2.56,0,4.97,0.53,6.68,1.98l3.42-3.47
				c-2.51-2.19-5.98-3.03-10.04-3.03c-5.66,0-10.2,2.98-10.2,8.27c0,4.75,2.94,7.05,8.01,7.48l4.33,0.37
				c2.61,0.21,3.63,1.39,3.63,3.2c0,2.57-2.62,3.74-5.93,3.74c-2.67,0-5.6-0.59-7.79-2.83l-3.57,3.57c3.2,3.15,6.94,3.89,11.37,3.89
				C379.43,667.11,384.23,664.18,384.23,658.52 M349.85,657.02c0,1.92-0.37,3.2-1.17,4.01c-1.44,1.39-2.99,1.55-5.07,1.55
				c-3.42,0-4.97-1.39-4.97-3.85c0-2.46,1.66-3.9,4.86-3.9h6.36V657.02z M355.29,666.79V648.7c0-6.14-3.73-9.28-11.15-9.28
				c-4.48,0-7.15,0.9-9.71,3.89l3.57,3.37c1.49-1.92,2.94-2.62,5.93-2.62c4.22,0,5.93,1.66,5.93,5.07v1.93h-7.15
				c-6.19,0-9.34,3.25-9.34,7.79c0,2.3,0.75,4.38,2.14,5.82c1.65,1.65,3.89,2.45,7.25,2.45c3.37,0,5.24-0.8,7.21-2.77v2.45H355.29z
				 M328.87,666.79v-4.64h-2.4c-2.19,0-2.93-1.07-2.93-3.15v-30.21h-5.44v30.53c0,4,2.24,7.47,7.41,7.47H328.87z M312.86,666.79
				l-13.62-23.11l12.33-14.89h-7.05L289,647.9v-19.11h-5.76v38H289v-11.05l6.41-7.69l10.68,18.73H312.86z"/>
		</g>
		<g style="clip-path:url(#SVGID_00000163036012758392534410000004584753516449064590_);">
			<path class="st3" d="M711.62,544.38c0,4.06-2.4,6.62-5.82,6.62c-3.42,0-5.77-2.57-5.77-6.62c0-4.11,2.35-6.57,5.77-6.57
				C709.42,537.81,711.62,540.64,711.62,544.38 M717.06,544.27c0-6.68-4.48-10.99-9.98-10.99c-1.17,0-2.35,0.16-3.37,0.58
				l8.17-16.33h-5.82l-8.65,17.62c-1.65,3.3-2.83,6.24-2.83,9.34c0,7.05,4.69,11.37,11.26,11.37
				C712.41,555.85,717.06,551.27,717.06,544.27 M675.74,552.01l-3.69-3.63c-1.65,1.66-2.78,2.62-5.23,2.62
				c-4.38,0-6.62-3.05-6.62-9.02c0-5.88,2.24-8.97,6.62-8.97c2.41,0,3.63,0.96,5.23,2.56l3.69-3.57c-1.71-1.71-2.56-2.29-4.01-2.93
				c-1.39-0.58-2.99-0.9-4.85-0.9c-7.58,0-12.11,5.17-12.11,13.72c0,8.81,4.48,13.98,12.11,13.98c1.87,0,3.42-0.26,4.85-0.9
				C673.18,554.31,674.03,553.72,675.74,552.01 M649.85,552.01l-3.68-3.63c-1.66,1.66-2.78,2.62-5.23,2.62
				c-4.38,0-6.62-3.05-6.62-9.02c0-5.88,2.24-8.97,6.62-8.97c2.4,0,3.63,0.96,5.23,2.56l3.68-3.57c-1.71-1.71-2.56-2.29-4-2.93
				c-1.39-0.58-2.99-0.9-4.86-0.9c-7.57,0-12.11,5.17-12.11,13.72c0,8.81,4.48,13.98,12.11,13.98c1.87,0,3.42-0.26,4.86-0.9
				C647.28,554.31,648.14,553.72,649.85,552.01 M615.96,545.77c0,3.95-1.71,5.56-5.93,5.56c-3.69,0-5.34-1.23-5.34-3.85
				c0-2.56,1.65-3.85,4.86-3.85h6.41V545.77z M621.35,555.53v-18.09c0-6.14-3.79-9.28-11.32-9.28c-2.56,0-4.48,0.32-6.03,1.06
				c-1.33,0.59-2.02,1.23-3.52,2.83l3.57,3.37c0.8-1.02,1.39-1.55,2.19-1.92c0.96-0.48,2.08-0.7,3.64-0.7
				c4.27,0,6.09,1.49,6.09,5.02v1.98h-7.27c-5.77,0-9.28,2.93-9.28,7.84c0,5.23,3.36,8.16,9.39,8.16c3.21,0,4.97-0.48,7.21-2.71
				v2.45H621.35z M592.2,555.53v-27.06h-18.52v11.26c0,10.47-2.78,11-5.12,11h-0.85v4.8h2.56c5.28,0,8.64-2.98,8.64-14.46v-7.85
				h7.86v22.31H592.2z M543.94,555.53v-19.85l15.32,19.85h7.32l-15.96-20.07l14.63-17.94h-7.1l-14.2,18.04v-18.04h-5.76v38H543.94z
				 M519.34,513.58h-5.23l-15.22,45.9h5.23L519.34,513.58z M476.58,544.38c0,4.06-2.4,6.62-5.82,6.62c-3.42,0-5.77-2.57-5.77-6.62
				c0-4.11,2.35-6.57,5.77-6.57C474.39,537.81,476.58,540.64,476.58,544.38 M482.02,544.27c0-6.68-4.48-10.99-9.98-10.99
				c-1.17,0-2.35,0.16-3.37,0.58l8.18-16.33h-5.82l-8.65,17.62c-1.66,3.3-2.83,6.24-2.83,9.34c0,7.05,4.69,11.37,11.26,11.37
				C477.38,555.85,482.02,551.27,482.02,544.27 M434.4,539.79h-12.17c0.06-1.66,0.16-2.46,0.7-3.69c0.85-2.03,2.83-3.42,5.39-3.42
				s4.48,1.39,5.34,3.42C434.19,537.33,434.35,538.13,434.4,539.79 M439.8,543.57v-2.4c0-7.69-4.22-13.02-11.48-13.02
				c-6.94,0-11.47,5.06-11.47,13.82c0,10.31,5.38,13.88,12.17,13.88c4.75,0,7.37-1.44,10.14-4.21l-3.47-3.26
				c-1.92,1.92-3.52,2.78-6.56,2.78c-4.43,0-6.89-2.94-6.89-7.59H439.8z M411.08,547.26c0-4.8-2.99-7.21-8.06-7.64l-4.27-0.37
				c-2.88-0.27-3.74-1.49-3.74-3.1c0-2.03,1.65-3.47,4.91-3.47c2.56,0,4.96,0.53,6.67,1.98l3.42-3.47
				c-2.51-2.19-5.98-3.03-10.04-3.03c-5.66,0-10.19,2.98-10.19,8.27c0,4.75,2.93,7.05,8.01,7.48l4.32,0.37
				c2.62,0.21,3.63,1.39,3.63,3.2c0,2.57-2.61,3.74-5.92,3.74c-2.67,0-5.61-0.59-7.79-2.83l-3.58,3.57
				c3.2,3.15,6.94,3.89,11.37,3.89C406.28,555.85,411.08,552.92,411.08,547.26 M384.23,547.26c0-4.8-2.99-7.21-8.06-7.64l-4.27-0.37
				c-2.88-0.27-3.74-1.49-3.74-3.1c0-2.03,1.66-3.47,4.91-3.47c2.56,0,4.97,0.53,6.68,1.98l3.42-3.47
				c-2.51-2.19-5.98-3.03-10.04-3.03c-5.66,0-10.2,2.98-10.2,8.27c0,4.75,2.94,7.05,8.01,7.48l4.33,0.37
				c2.61,0.21,3.63,1.39,3.63,3.2c0,2.57-2.62,3.74-5.93,3.74c-2.67,0-5.6-0.59-7.79-2.83l-3.57,3.57c3.2,3.15,6.94,3.89,11.37,3.89
				C379.43,555.85,384.23,552.92,384.23,547.26 M349.85,545.77c0,1.92-0.37,3.2-1.17,4.01c-1.44,1.39-2.99,1.55-5.07,1.55
				c-3.42,0-4.97-1.39-4.97-3.85c0-2.46,1.66-3.9,4.86-3.9h6.36V545.77z M355.29,555.53v-18.09c0-6.14-3.73-9.28-11.15-9.28
				c-4.48,0-7.15,0.9-9.71,3.89l3.57,3.37c1.49-1.92,2.94-2.62,5.93-2.62c4.22,0,5.93,1.66,5.93,5.07v1.93h-7.15
				c-6.19,0-9.34,3.25-9.34,7.79c0,2.3,0.75,4.38,2.14,5.82c1.65,1.65,3.89,2.45,7.25,2.45c3.37,0,5.24-0.8,7.21-2.77v2.45H355.29z
				 M328.87,555.53v-4.64h-2.4c-2.19,0-2.93-1.07-2.93-3.15v-30.21h-5.44v30.53c0,4,2.24,7.47,7.41,7.47H328.87z M312.86,555.53
				l-13.62-23.11l12.33-14.89h-7.05L289,536.64v-19.11h-5.76v38H289v-11.05l6.41-7.69l10.68,18.73H312.86z"/>
		</g>
		<g style="clip-path:url(#SVGID_00000163036012758392534410000004584753516449064590_);">
			<path class="st3" d="M717.59,399.89v-4.85h-22.63v10.83h5.23v-5.98h11.59l-12.76,33.15h5.87L717.59,399.89z M675.74,429.52
				l-3.69-3.63c-1.65,1.66-2.78,2.62-5.23,2.62c-4.38,0-6.62-3.05-6.62-9.02c0-5.88,2.24-8.97,6.62-8.97c2.41,0,3.63,0.96,5.23,2.56
				l3.69-3.57c-1.71-1.71-2.56-2.29-4.01-2.93c-1.39-0.58-2.99-0.9-4.85-0.9c-7.58,0-12.11,5.17-12.11,13.72
				c0,8.81,4.48,13.98,12.11,13.98c1.87,0,3.42-0.26,4.85-0.9C673.18,431.81,674.03,431.23,675.74,429.52 M649.85,429.52l-3.68-3.63
				c-1.66,1.66-2.78,2.62-5.23,2.62c-4.38,0-6.62-3.05-6.62-9.02c0-5.88,2.24-8.97,6.62-8.97c2.4,0,3.63,0.96,5.23,2.56l3.68-3.57
				c-1.71-1.71-2.56-2.29-4-2.93c-1.39-0.58-2.99-0.9-4.86-0.9c-7.57,0-12.11,5.17-12.11,13.72c0,8.81,4.48,13.98,12.11,13.98
				c1.87,0,3.42-0.26,4.86-0.9C647.28,431.81,648.14,431.23,649.85,429.52 M615.96,423.27c0,3.95-1.71,5.56-5.93,5.56
				c-3.69,0-5.34-1.23-5.34-3.85c0-2.56,1.65-3.84,4.86-3.84h6.41V423.27z M621.35,433.04v-18.09c0-6.14-3.79-9.28-11.32-9.28
				c-2.56,0-4.48,0.32-6.03,1.06c-1.33,0.59-2.02,1.23-3.52,2.83l3.57,3.37c0.8-1.02,1.39-1.55,2.19-1.92
				c0.96-0.48,2.08-0.7,3.64-0.7c4.27,0,6.09,1.49,6.09,5.02v1.98h-7.27c-5.77,0-9.28,2.93-9.28,7.84c0,5.23,3.36,8.16,9.39,8.16
				c3.21,0,4.97-0.48,7.21-2.72v2.45H621.35z M592.2,433.04v-27.06h-18.52v11.26c0,10.47-2.78,11-5.12,11h-0.85v4.8h2.56
				c5.28,0,8.64-2.98,8.64-14.46v-7.85h7.86v22.31H592.2z M543.94,433.04v-19.85l15.32,19.85h7.32l-15.96-20.07l14.63-17.94h-7.1
				l-14.2,18.04v-18.04h-5.76v38H543.94z M519.34,391.08h-5.23l-15.22,45.9h5.23L519.34,391.08z M482.56,399.89v-4.85h-22.63v10.83
				h5.23v-5.98h11.58l-12.76,33.15h5.87L482.56,399.89z M434.4,417.3h-12.17c0.06-1.66,0.16-2.46,0.7-3.69
				c0.85-2.03,2.83-3.42,5.39-3.42s4.48,1.39,5.34,3.42C434.19,414.83,434.35,415.64,434.4,417.3 M439.8,421.08v-2.4
				c0-7.69-4.22-13.02-11.48-13.02c-6.94,0-11.47,5.06-11.47,13.82c0,10.3,5.38,13.87,12.17,13.87c4.75,0,7.37-1.44,10.14-4.21
				l-3.47-3.26c-1.92,1.92-3.52,2.78-6.56,2.78c-4.43,0-6.89-2.94-6.89-7.59H439.8z M411.08,424.76c0-4.8-2.99-7.21-8.06-7.64
				l-4.27-0.37c-2.88-0.27-3.74-1.49-3.74-3.1c0-2.03,1.65-3.47,4.91-3.47c2.56,0,4.96,0.53,6.67,1.98l3.42-3.47
				c-2.51-2.19-5.98-3.03-10.04-3.03c-5.66,0-10.19,2.98-10.19,8.27c0,4.75,2.93,7.05,8.01,7.48l4.32,0.37
				c2.62,0.21,3.63,1.39,3.63,3.2c0,2.57-2.61,3.74-5.92,3.74c-2.67,0-5.61-0.59-7.79-2.83l-3.58,3.58
				c3.2,3.14,6.94,3.89,11.37,3.89C406.28,433.36,411.08,430.42,411.08,424.76 M384.23,424.76c0-4.8-2.99-7.21-8.06-7.64l-4.27-0.37
				c-2.88-0.27-3.74-1.49-3.74-3.1c0-2.03,1.66-3.47,4.91-3.47c2.56,0,4.97,0.53,6.68,1.98l3.42-3.47
				c-2.51-2.19-5.98-3.03-10.04-3.03c-5.66,0-10.2,2.98-10.2,8.27c0,4.75,2.94,7.05,8.01,7.48l4.33,0.37
				c2.61,0.21,3.63,1.39,3.63,3.2c0,2.57-2.62,3.74-5.93,3.74c-2.67,0-5.6-0.59-7.79-2.83l-3.57,3.58c3.2,3.14,6.94,3.89,11.37,3.89
				C379.43,433.36,384.23,430.42,384.23,424.76 M349.85,423.27c0,1.92-0.37,3.2-1.17,4.01c-1.44,1.39-2.99,1.55-5.07,1.55
				c-3.42,0-4.97-1.39-4.97-3.85s1.66-3.9,4.86-3.9h6.36V423.27z M355.29,433.04v-18.09c0-6.14-3.73-9.28-11.15-9.28
				c-4.48,0-7.15,0.9-9.71,3.89l3.57,3.37c1.49-1.92,2.94-2.62,5.93-2.62c4.22,0,5.93,1.66,5.93,5.07v1.93h-7.15
				c-6.19,0-9.34,3.25-9.34,7.79c0,2.3,0.75,4.38,2.14,5.82c1.65,1.65,3.89,2.45,7.25,2.45c3.37,0,5.24-0.8,7.21-2.77v2.45H355.29z
				 M328.87,433.04v-4.64h-2.4c-2.19,0-2.93-1.07-2.93-3.15v-30.21h-5.44v30.53c0,4,2.24,7.47,7.41,7.47H328.87z M312.86,433.04
				l-13.62-23.11l12.33-14.89h-7.05L289,414.14v-19.11h-5.76v38H289v-11.05l6.41-7.69l10.68,18.73H312.86z"/>
		</g>
		<g style="clip-path:url(#SVGID_00000163036012758392534410000004584753516449064590_);">
			<path class="st3" d="M711.45,289.92c0,3.36-2.35,5.77-5.66,5.77c-3.32,0-5.61-2.4-5.61-5.77c0-3.32,2.29-5.82,5.61-5.82
				C709.1,284.1,711.45,286.6,711.45,289.92 M712.04,306.73c0,3.52-2.73,6.3-6.25,6.3c-3.53,0-6.25-2.78-6.25-6.3
				c0-3.52,2.72-6.36,6.25-6.36C709.32,300.37,712.04,303.21,712.04,306.73 M717.53,306.84c0-4.54-2.56-7.32-5.23-8.91
				c2.46-1.49,4.59-4.16,4.59-8.17c0-6.36-4.91-10.51-11.1-10.51c-6.2,0-11.05,4.16-11.05,10.51c0,4.01,2.13,6.68,4.59,8.17
				c-2.67,1.6-5.23,4.37-5.23,8.91c0,6.89,5.17,11.05,11.69,11.05C712.31,317.88,717.53,313.73,717.53,306.84 M675.74,314.05
				l-3.69-3.63c-1.65,1.66-2.78,2.62-5.23,2.62c-4.38,0-6.62-3.05-6.62-9.02c0-5.88,2.24-8.97,6.62-8.97c2.41,0,3.63,0.96,5.23,2.56
				l3.69-3.57c-1.71-1.71-2.56-2.29-4.01-2.93c-1.39-0.58-2.99-0.9-4.85-0.9c-7.58,0-12.11,5.17-12.11,13.72
				c0,8.81,4.48,13.98,12.11,13.98c1.87,0,3.42-0.26,4.85-0.9C673.18,316.34,674.03,315.75,675.74,314.05 M649.85,314.05l-3.68-3.63
				c-1.66,1.66-2.78,2.62-5.23,2.62c-4.38,0-6.62-3.05-6.62-9.02c0-5.88,2.24-8.97,6.62-8.97c2.4,0,3.63,0.96,5.23,2.56l3.68-3.57
				c-1.71-1.71-2.56-2.29-4-2.93c-1.39-0.58-2.99-0.9-4.86-0.9c-7.57,0-12.11,5.17-12.11,13.72c0,8.81,4.48,13.98,12.11,13.98
				c1.87,0,3.42-0.26,4.86-0.9C647.28,316.34,648.14,315.75,649.85,314.05 M615.96,307.8c0,3.95-1.71,5.56-5.93,5.56
				c-3.69,0-5.34-1.23-5.34-3.85c0-2.56,1.65-3.84,4.86-3.84h6.41V307.8z M621.35,317.56v-18.09c0-6.14-3.79-9.28-11.32-9.28
				c-2.56,0-4.48,0.32-6.03,1.06c-1.33,0.59-2.02,1.23-3.52,2.83l3.57,3.37c0.8-1.02,1.39-1.55,2.19-1.92
				c0.96-0.48,2.08-0.7,3.64-0.7c4.27,0,6.09,1.49,6.09,5.02v1.98h-7.27c-5.77,0-9.28,2.93-9.28,7.84c0,5.23,3.36,8.16,9.39,8.16
				c3.21,0,4.97-0.48,7.21-2.72v2.45H621.35z M592.2,317.56v-27.06h-18.52v11.26c0,10.47-2.78,11-5.12,11h-0.85v4.8h2.56
				c5.28,0,8.64-2.98,8.64-14.46v-7.85h7.86v22.31H592.2z M543.94,317.56v-19.85l15.32,19.85h7.32l-15.96-20.07l14.63-17.94h-7.1
				l-14.2,18.04v-18.04h-5.76v38H543.94z M519.34,275.61h-5.23l-15.22,45.9h5.23L519.34,275.61z M476.42,289.92
				c0,3.36-2.35,5.77-5.66,5.77c-3.31,0-5.61-2.4-5.61-5.77c0-3.32,2.3-5.82,5.61-5.82C474.07,284.1,476.42,286.6,476.42,289.92
				 M477.01,306.73c0,3.52-2.73,6.3-6.25,6.3c-3.52,0-6.25-2.78-6.25-6.3c0-3.52,2.73-6.36,6.25-6.36
				C474.28,300.37,477.01,303.21,477.01,306.73 M482.5,306.84c0-4.54-2.56-7.32-5.22-8.91c2.45-1.49,4.59-4.16,4.59-8.17
				c0-6.36-4.91-10.51-11.1-10.51c-6.19,0-11.05,4.16-11.05,10.51c0,4.01,2.14,6.68,4.59,8.17c-2.66,1.6-5.23,4.37-5.23,8.91
				c0,6.89,5.18,11.05,11.69,11.05C477.28,317.88,482.5,313.73,482.5,306.84 M434.4,301.82h-12.17c0.06-1.66,0.16-2.46,0.7-3.69
				c0.85-2.03,2.83-3.42,5.39-3.42s4.48,1.39,5.34,3.42C434.19,299.36,434.35,300.17,434.4,301.82 M439.8,305.61v-2.4
				c0-7.69-4.22-13.02-11.48-13.02c-6.94,0-11.47,5.06-11.47,13.82c0,10.3,5.38,13.87,12.17,13.87c4.75,0,7.37-1.44,10.14-4.21
				l-3.47-3.26c-1.92,1.92-3.52,2.78-6.56,2.78c-4.43,0-6.89-2.94-6.89-7.59H439.8z M411.08,309.29c0-4.8-2.99-7.21-8.06-7.64
				l-4.27-0.37c-2.88-0.27-3.74-1.49-3.74-3.1c0-2.03,1.65-3.47,4.91-3.47c2.56,0,4.96,0.53,6.67,1.98l3.42-3.47
				c-2.51-2.19-5.98-3.03-10.04-3.03c-5.66,0-10.19,2.98-10.19,8.27c0,4.75,2.93,7.05,8.01,7.48l4.32,0.37
				c2.62,0.21,3.63,1.39,3.63,3.2c0,2.57-2.61,3.74-5.92,3.74c-2.67,0-5.61-0.59-7.79-2.83l-3.58,3.58
				c3.2,3.14,6.94,3.89,11.37,3.89C406.28,317.88,411.08,314.95,411.08,309.29 M384.23,309.29c0-4.8-2.99-7.21-8.06-7.64l-4.27-0.37
				c-2.88-0.27-3.74-1.49-3.74-3.1c0-2.03,1.66-3.47,4.91-3.47c2.56,0,4.97,0.53,6.68,1.98l3.42-3.47
				c-2.51-2.19-5.98-3.03-10.04-3.03c-5.66,0-10.2,2.98-10.2,8.27c0,4.75,2.94,7.05,8.01,7.48l4.33,0.37
				c2.61,0.21,3.63,1.39,3.63,3.2c0,2.57-2.62,3.74-5.93,3.74c-2.67,0-5.6-0.59-7.79-2.83l-3.57,3.58c3.2,3.14,6.94,3.89,11.37,3.89
				C379.43,317.88,384.23,314.95,384.23,309.29 M349.85,307.8c0,1.92-0.37,3.2-1.17,4.01c-1.44,1.39-2.99,1.55-5.07,1.55
				c-3.42,0-4.97-1.39-4.97-3.85s1.66-3.9,4.86-3.9h6.36V307.8z M355.29,317.56v-18.09c0-6.14-3.73-9.28-11.15-9.28
				c-4.48,0-7.15,0.9-9.71,3.89l3.57,3.37c1.49-1.92,2.94-2.62,5.93-2.62c4.22,0,5.93,1.66,5.93,5.07v1.93h-7.15
				c-6.19,0-9.34,3.25-9.34,7.79c0,2.3,0.75,4.38,2.14,5.82c1.65,1.65,3.89,2.45,7.25,2.45c3.37,0,5.24-0.8,7.21-2.77v2.45H355.29z
				 M328.87,317.56v-4.64h-2.4c-2.19,0-2.93-1.07-2.93-3.15v-30.21h-5.44v30.53c0,4,2.24,7.47,7.41,7.47H328.87z M312.86,317.56
				l-13.62-23.11l12.33-14.89h-7.05L289,298.67v-19.11h-5.76v38H289v-11.05l6.41-7.69l10.68,18.73H312.86z"/>
		</g>
		<g style="clip-path:url(#SVGID_00000163036012758392534410000004584753516449064590_);">
			<path class="st3" d="M711.62,175.24c0,4.11-2.4,6.57-5.82,6.57c-3.64,0-5.77-2.83-5.77-6.57c0-4.06,2.35-6.62,5.77-6.62
				C709.21,168.62,711.62,171.19,711.62,175.24 M717.06,175.14c0-7.05-4.69-11.37-11.26-11.37c-6.57,0-11.21,4.59-11.21,11.58
				c0,6.68,4.43,11,9.93,11c1.17,0,2.4-0.16,3.42-0.59l-8.17,16.33h5.82l8.65-17.62C715.88,181.17,717.06,178.23,717.06,175.14
				 M675.74,198.57l-3.69-3.63c-1.65,1.66-2.78,2.62-5.23,2.62c-4.38,0-6.62-3.05-6.62-9.02c0-5.88,2.24-8.97,6.62-8.97
				c2.41,0,3.63,0.96,5.23,2.56l3.69-3.57c-1.71-1.71-2.56-2.29-4.01-2.93c-1.39-0.58-2.99-0.9-4.85-0.9
				c-7.58,0-12.11,5.17-12.11,13.72c0,8.81,4.48,13.98,12.11,13.98c1.87,0,3.42-0.26,4.85-0.9
				C673.18,200.87,674.03,200.28,675.74,198.57 M649.85,198.57l-3.68-3.63c-1.66,1.66-2.78,2.62-5.23,2.62
				c-4.38,0-6.62-3.05-6.62-9.02c0-5.88,2.24-8.97,6.62-8.97c2.4,0,3.63,0.96,5.23,2.56l3.68-3.57c-1.71-1.71-2.56-2.29-4-2.93
				c-1.39-0.58-2.99-0.9-4.86-0.9c-7.57,0-12.11,5.17-12.11,13.72c0,8.81,4.48,13.98,12.11,13.98c1.87,0,3.42-0.26,4.86-0.9
				C647.28,200.87,648.14,200.28,649.85,198.57 M615.96,192.32c0,3.95-1.71,5.56-5.93,5.56c-3.69,0-5.34-1.23-5.34-3.85
				c0-2.56,1.65-3.84,4.86-3.84h6.41V192.32z M621.35,202.09V184c0-6.14-3.79-9.28-11.32-9.28c-2.56,0-4.48,0.32-6.03,1.06
				c-1.33,0.59-2.02,1.23-3.52,2.83l3.57,3.37c0.8-1.02,1.39-1.55,2.19-1.92c0.96-0.48,2.08-0.7,3.64-0.7
				c4.27,0,6.09,1.49,6.09,5.02v1.98h-7.27c-5.77,0-9.28,2.93-9.28,7.84c0,5.23,3.36,8.16,9.39,8.16c3.21,0,4.97-0.48,7.21-2.72
				v2.45H621.35z M592.2,202.09v-27.06h-18.52v11.26c0,10.47-2.78,11-5.12,11h-0.85v4.8h2.56c5.28,0,8.64-2.98,8.64-14.46v-7.85
				h7.86v22.31H592.2z M543.94,202.09v-19.85l15.32,19.85h7.32l-15.96-20.07l14.63-17.94h-7.1l-14.2,18.04v-18.04h-5.76v38H543.94z
				 M519.34,160.14h-5.23l-15.22,45.9h5.23L519.34,160.14z M476.58,175.24c0,4.11-2.4,6.57-5.82,6.57c-3.63,0-5.77-2.83-5.77-6.57
				c0-4.06,2.35-6.62,5.77-6.62C474.18,168.62,476.58,171.19,476.58,175.24 M482.02,175.14c0-7.05-4.69-11.37-11.26-11.37
				c-6.57,0-11.2,4.59-11.2,11.58c0,6.68,4.42,11,9.92,11c1.17,0,2.4-0.16,3.42-0.59l-8.17,16.33h5.82l8.65-17.62
				C480.85,181.17,482.02,178.23,482.02,175.14 M434.4,186.35h-12.17c0.06-1.66,0.16-2.46,0.7-3.69c0.85-2.03,2.83-3.42,5.39-3.42
				s4.48,1.39,5.34,3.42C434.19,183.89,434.35,184.69,434.4,186.35 M439.8,190.13v-2.4c0-7.69-4.22-13.02-11.48-13.02
				c-6.94,0-11.47,5.06-11.47,13.82c0,10.3,5.38,13.87,12.17,13.87c4.75,0,7.37-1.44,10.14-4.21l-3.47-3.26
				c-1.92,1.92-3.52,2.78-6.56,2.78c-4.43,0-6.89-2.94-6.89-7.59H439.8z M411.08,193.82c0-4.8-2.99-7.21-8.06-7.64l-4.27-0.37
				c-2.88-0.27-3.74-1.49-3.74-3.1c0-2.03,1.65-3.47,4.91-3.47c2.56,0,4.96,0.53,6.67,1.98l3.42-3.47
				c-2.51-2.19-5.98-3.03-10.04-3.03c-5.66,0-10.19,2.98-10.19,8.27c0,4.75,2.93,7.05,8.01,7.48l4.32,0.37
				c2.62,0.21,3.63,1.39,3.63,3.2c0,2.57-2.61,3.74-5.92,3.74c-2.67,0-5.61-0.59-7.79-2.83l-3.58,3.58
				c3.2,3.14,6.94,3.89,11.37,3.89C406.28,202.41,411.08,199.48,411.08,193.82 M384.23,193.82c0-4.8-2.99-7.21-8.06-7.64l-4.27-0.37
				c-2.88-0.27-3.74-1.49-3.74-3.1c0-2.03,1.66-3.47,4.91-3.47c2.56,0,4.97,0.53,6.68,1.98l3.42-3.47
				c-2.51-2.19-5.98-3.03-10.04-3.03c-5.66,0-10.2,2.98-10.2,8.27c0,4.75,2.94,7.05,8.01,7.48l4.33,0.37
				c2.61,0.21,3.63,1.39,3.63,3.2c0,2.57-2.62,3.74-5.93,3.74c-2.67,0-5.6-0.59-7.79-2.83l-3.57,3.58c3.2,3.14,6.94,3.89,11.37,3.89
				C379.43,202.41,384.23,199.48,384.23,193.82 M349.85,192.32c0,1.92-0.37,3.2-1.17,4.01c-1.44,1.39-2.99,1.55-5.07,1.55
				c-3.42,0-4.97-1.39-4.97-3.85c0-2.46,1.66-3.9,4.86-3.9h6.36V192.32z M355.29,202.09V184c0-6.14-3.73-9.28-11.15-9.28
				c-4.48,0-7.15,0.9-9.71,3.89l3.57,3.37c1.49-1.92,2.94-2.62,5.93-2.62c4.22,0,5.93,1.66,5.93,5.07v1.93h-7.15
				c-6.19,0-9.34,3.25-9.34,7.79c0,2.3,0.75,4.38,2.14,5.82c1.65,1.65,3.89,2.45,7.25,2.45c3.37,0,5.24-0.8,7.21-2.77v2.45H355.29z
				 M328.87,202.09v-4.64h-2.4c-2.19,0-2.93-1.07-2.93-3.15v-30.21h-5.44v30.53c0,4,2.24,7.47,7.41,7.47H328.87z M312.86,202.09
				l-13.62-23.11l12.33-14.89h-7.05L289,183.2v-19.11h-5.76v38H289v-11.05l6.41-7.69l10.68,18.73H312.86z"/>
		</g>
	</g>
	<g>
		<polygon class="st4" points="21.91,638.98 37.98,638.98 29.95,628.35 		"/>
	</g>
	<g>
		<polygon class="st4" points="21.91,660.11 37.98,660.11 29.95,649.49 		"/>
	</g>
	<g>
		<polygon class="st4" points="21.91,681.25 37.98,681.25 29.95,670.62 		"/>
	</g>
	<g>
		<polygon class="st4" points="21.91,617.84 37.98,617.84 29.95,607.22 		"/>
	</g>
	<g>
		<polygon class="st4" points="21.91,523.5 37.98,523.5 29.95,512.88 		"/>
	</g>
	<g>
		<polygon class="st4" points="21.91,544.64 37.98,544.64 29.95,534.01 		"/>
	</g>
	<g>
		<polygon class="st4" points="21.91,565.77 37.98,565.77 29.95,555.15 		"/>
	</g>
	<g>
		<polygon class="st4" points="21.91,502.37 37.98,502.37 29.95,491.74 		"/>
	</g>
	<g>
		<polygon class="st4" points="21.91,403.82 37.98,403.82 29.95,393.19 		"/>
	</g>
	<g>
		<polygon class="st4" points="21.91,424.95 37.98,424.95 29.95,414.32 		"/>
	</g>
	<g>
		<polygon class="st4" points="21.91,446.09 37.98,446.09 29.95,435.46 		"/>
	</g>
	<g>
		<polygon class="st4" points="21.91,382.68 37.98,382.68 29.95,372.05 		"/>
	</g>
	<g>
		<polygon class="st4" points="21.91,285.53 37.98,285.53 29.95,274.91 		"/>
	</g>
	<g>
		<polygon class="st4" points="21.91,306.67 37.98,306.67 29.95,296.04 		"/>
	</g>
	<g>
		<polygon class="st4" points="21.91,327.8 37.98,327.8 29.95,317.18 		"/>
	</g>
	<g>
		<polygon class="st4" points="21.91,264.4 37.98,264.4 29.95,253.77 		"/>
	</g>
	<g>
		<polygon class="st4" points="21.91,170.06 37.98,170.06 29.95,159.44 		"/>
	</g>
	<g>
		<polygon class="st4" points="21.91,191.2 37.98,191.2 29.95,180.57 		"/>
	</g>
	<g>
		<polygon class="st4" points="21.91,212.33 37.98,212.33 29.95,201.71 		"/>
	</g>
	<g>
		<polygon class="st4" points="21.91,148.93 37.98,148.93 29.95,138.3 		"/>
	</g>
</g>
</svg>
