<?xml version="1.0" encoding="utf-8"?>
<!-- Generator: Adobe Illustrator 26.2.1, SVG Export Plug-In . SVG Version: 6.00 Build 0)  -->
<svg version="1.1" id="Ebene_1" xmlns="http://www.w3.org/2000/svg" xmlns:xlink="http://www.w3.org/1999/xlink" x="0px" y="0px"
	 viewBox="0 0 1000 825.44" style="enable-background:new 0 0 1000 825.44;" xml:space="preserve">
<style type="text/css">
	.st0{fill:#A2B9E1;}
	.st1{fill:#6796CF;}
	.st2{clip-path:url(#SVGID_00000096025428550919382000000010892296032743185578_);}
	.st3{fill:#2B2961;}
	.st4{fill:#FFFFFF;}
	.st5{clip-path:url(#SVGID_00000178205345792665696650000008237931490806545596_);}
	.st6{clip-path:url(#SVGID_00000084524256603060118740000011345622421759914142_);}
	.st7{clip-path:url(#SVGID_00000142883256932740368160000007416185902905322900_);}
	.st8{clip-path:url(#SVGID_00000132801377471519866070000002838531578112129980_);}
	.st9{clip-path:url(#SVGID_00000158726827977737549030000015226433322616608395_);}
	.st10{opacity:0.52;clip-path:url(#SVGID_00000132048631061118147240000010357449095014034054_);}
	.st11{clip-path:url(#SVGID_00000021798999872280088990000011333925936679715771_);}
	.st12{clip-path:url(#SVGID_00000152262967145971104950000015428044734606256538_);}
	.st13{clip-path:url(#SVGID_00000057148503218996716780000000062902277399539608_);}
	.st14{clip-path:url(#SVGID_00000090984197716932183000000003744534078195398060_);}
	.st15{clip-path:url(#SVGID_00000064336616968414591940000001691790646412272779_);}
	.st16{clip-path:url(#SVGID_00000029755959573550222950000006017187759159640725_);}
	.st17{clip-path:url(#SVGID_00000137091216337438228680000018342729519662955434_);}
	.st18{clip-path:url(#SVGID_00000155115822750444920600000013260219657091017390_);}
	.st19{clip-path:url(#SVGID_00000160151840759025663900000005058855329385808556_);}
	.st20{clip-path:url(#SVGID_00000117660465390038394890000012030792868581361835_);}
	.st21{clip-path:url(#SVGID_00000005254898611649682430000001332674942370461846_);}
	.st22{clip-path:url(#SVGID_00000155840916276082387270000000259321966593049229_);}
	.st23{fill:none;stroke:#2B2961;stroke-width:0.374;stroke-linejoin:round;stroke-miterlimit:10;}
	.st24{fill:none;stroke:#2B2961;stroke-width:0.4;stroke-miterlimit:10;}
	.st25{clip-path:url(#SVGID_00000134949811659506172970000012942587825534611108_);}
	.st26{clip-path:url(#SVGID_00000160876297050453639590000006528265970912227752_);}
	.st27{clip-path:url(#SVGID_00000137104099488938001790000006237736670285412522_);}
	.st28{clip-path:url(#SVGID_00000016060811833243730440000000809347031981198229_);}
	.st29{clip-path:url(#SVGID_00000087399344176160019120000005111375556108656264_);}
	.st30{clip-path:url(#SVGID_00000134961670515510529200000009925654672278706816_);}
	.st31{clip-path:url(#SVGID_00000139255774552536125150000004843042485606817720_);}
	.st32{clip-path:url(#SVGID_00000027569238515050661430000000885658409597804424_);}
	.st33{clip-path:url(#SVGID_00000059990707661543461120000010028860594488560031_);}
	.st34{clip-path:url(#SVGID_00000160164026689118754890000001569751927357670826_);}
	.st35{clip-path:url(#SVGID_00000181065332714561876100000008965135062285783942_);}
	.st36{clip-path:url(#SVGID_00000034048994772815491030000004492992473033626029_);}
	.st37{clip-path:url(#SVGID_00000041258529041976537610000006107866518668120999_);}
	.st38{clip-path:url(#SVGID_00000047776239524309704840000015382734009706221713_);}
	.st39{clip-path:url(#SVGID_00000005226011770772864780000015763239998476881303_);}
	.st40{clip-path:url(#SVGID_00000174593989678848414450000018400155756873615243_);}
	.st41{clip-path:url(#SVGID_00000168804472638482650520000012084747413165491089_);}
	.st42{clip-path:url(#SVGID_00000018237543635609109230000017678359098201230226_);}
	.st43{clip-path:url(#SVGID_00000169516150803230961680000000377247663440349583_);}
	.st44{clip-path:url(#SVGID_00000111878456873713172040000005813724889516570534_);}
	.st45{clip-path:url(#SVGID_00000134956765252475713700000002417313844733767571_);}
	.st46{clip-path:url(#SVGID_00000181060612197445404220000014918210810262960293_);}
	.st47{clip-path:url(#SVGID_00000165919651578547162040000006105590326514354865_);}
	.st48{clip-path:url(#SVGID_00000165934908371259102540000002992497543405143436_);}
	.st49{clip-path:url(#SVGID_00000042000985240427261620000005594717142963606682_);}
	.st50{clip-path:url(#SVGID_00000169559860108165163800000010429298483155147941_);}
	.st51{clip-path:url(#SVGID_00000028308854161790697900000014769481367695042224_);}
	.st52{clip-path:url(#SVGID_00000116952186847688383400000012152701545316767930_);}
	.st53{clip-path:url(#SVGID_00000171717872050848786630000006208750127898231722_);}
	.st54{clip-path:url(#SVGID_00000009574195713340965230000018335478485514699698_);}
	.st55{clip-path:url(#SVGID_00000155108862189962167320000008641283257186995361_);}
	.st56{clip-path:url(#SVGID_00000085943662380285022180000006072547192750892724_);}
	.st57{clip-path:url(#SVGID_00000151501535901665695150000015633492474608259485_);}
	.st58{clip-path:url(#SVGID_00000116924659525330015610000017875893618768757689_);}
	.st59{clip-path:url(#SVGID_00000158015977230676776780000015326067511779678085_);}
	.st60{clip-path:url(#SVGID_00000160879088041104680390000018132864863150605982_);}
	.st61{clip-path:url(#SVGID_00000048489881358898663960000010249912474815452808_);}
	.st62{fill:#9AB4DE;}
	.st63{clip-path:url(#SVGID_00000036217308986940178330000015055342317429573031_);}
	.st64{clip-path:url(#SVGID_00000018953966953413380070000011200016053978642842_);}
	.st65{clip-path:url(#SVGID_00000045604747189403978900000013885270436869598887_);}
	.st66{fill:#B9C9E9;}
	.st67{clip-path:url(#SVGID_00000166668507754747107430000012879057290601529270_);}
	.st68{clip-path:url(#SVGID_00000181803095976504258540000001047027355413009811_);}
	.st69{clip-path:url(#SVGID_00000004521438387321476250000009201160557429966732_);}
	.st70{clip-path:url(#SVGID_00000049928012861507967240000000882820911330663041_);}
	.st71{clip-path:url(#SVGID_00000026125123573587623800000001304920946720420747_);}
	.st72{clip-path:url(#SVGID_00000053503057286188082970000008455181181824144288_);}
	.st73{clip-path:url(#SVGID_00000116942858563852667600000012116324240876405942_);}
	.st74{clip-path:url(#SVGID_00000114752160126286311050000018014595428178041015_);}
	.st75{clip-path:url(#SVGID_00000090288648629712011490000007813036418072529557_);}
	.st76{clip-path:url(#SVGID_00000178914382702969681900000015541394783769102225_);}
	.st77{clip-path:url(#SVGID_00000003801026293210066120000009987654363509348529_);}
	.st78{clip-path:url(#SVGID_00000106118456090933232570000001781591717361964451_);}
	.st79{clip-path:url(#SVGID_00000084531266623797050650000013789029678717721249_);}
	.st80{clip-path:url(#SVGID_00000158018616504035816960000010175969910248333735_);}
	.st81{clip-path:url(#SVGID_00000131369603854938081380000010423195143420370100_);}
	.st82{clip-path:url(#SVGID_00000090281073403011339280000007068622169480775042_);}
	.st83{clip-path:url(#SVGID_00000099664605491036513970000000806774587141358010_);}
	.st84{clip-path:url(#SVGID_00000041265262154478632140000006488703594153414570_);}
	.st85{clip-path:url(#SVGID_00000181773796221006003480000010705913175574019739_);}
	.st86{clip-path:url(#SVGID_00000180355737100110372410000011586221581389262470_);}
	.st87{clip-path:url(#SVGID_00000119081142139582131090000000199110003396793002_);}
	.st88{clip-path:url(#SVGID_00000105420918069251517850000007502060111317789834_);}
	.st89{clip-path:url(#SVGID_00000101816811911077083700000005309679584082996404_);}
	.st90{clip-path:url(#SVGID_00000031916328536792004070000004410788563748877720_);}
	.st91{clip-path:url(#SVGID_00000053524655404780214820000008174692316718957988_);}
	.st92{clip-path:url(#SVGID_00000154390893153006786490000000575665520007813054_);}
	.st93{clip-path:url(#SVGID_00000175317976457560644120000008283774600971525539_);}
	.st94{clip-path:url(#SVGID_00000173144955774235847930000010976898392880210076_);}
	.st95{clip-path:url(#SVGID_00000025400805255369996390000001099632997559723154_);}
	.st96{clip-path:url(#SVGID_00000114773193819782009080000016440790707581889458_);}
	.st97{clip-path:url(#SVGID_00000067229608808560560280000015772604631147883393_);}
	.st98{clip-path:url(#SVGID_00000144299246009115998310000011586580588667254193_);}
	.st99{clip-path:url(#SVGID_00000128454518158447223510000004078184587754740864_);}
	.st100{clip-path:url(#SVGID_00000134955342419994579500000015970182489117776261_);}
	.st101{clip-path:url(#SVGID_00000144301889487176351930000013220317280058633601_);}
	.st102{clip-path:url(#SVGID_00000104673861678879451920000017611927225805947551_);}
	.st103{clip-path:url(#SVGID_00000098917440785580898540000006216949648423027092_);}
	.st104{clip-path:url(#SVGID_00000098909569845603419640000016523810218621504172_);}
	.st105{clip-path:url(#SVGID_00000148638998773806273070000004798821013463334814_);}
	.st106{clip-path:url(#SVGID_00000021841688804401788320000016403087114850996403_);}
	.st107{clip-path:url(#SVGID_00000015331521095183490090000010494019837817094786_);}
	.st108{clip-path:url(#SVGID_00000003813354384257942300000010065403652044786309_);}
	.st109{clip-path:url(#SVGID_00000035523040268902351840000003867582602524677793_);}
	.st110{clip-path:url(#SVGID_00000144323132991172571710000017664528360001813897_);}
	.st111{clip-path:url(#SVGID_00000100374548898390827270000016814453802302339985_);}
	.st112{clip-path:url(#SVGID_00000179614119619910745590000006109457794367981499_);}
	.st113{clip-path:url(#SVGID_00000058579609163452663850000015629364179140790163_);}
	.st114{clip-path:url(#SVGID_00000056422288190637057700000015273762425029455244_);}
	.st115{clip-path:url(#SVGID_00000131364900528110189440000000672963101676129161_);}
	.st116{clip-path:url(#SVGID_00000004523910183895004410000017397674091525950378_);}
	.st117{clip-path:url(#SVGID_00000134215260244320482160000013434679180081236922_);}
	.st118{clip-path:url(#SVGID_00000167353798585214243570000005418630268367635621_);}
	.st119{clip-path:url(#SVGID_00000061431592076977166050000005325479203962940806_);}
	.st120{clip-path:url(#SVGID_00000110456333417351822550000011048940507825209494_);}
	.st121{clip-path:url(#SVGID_00000097488143300125471290000000256120499748183940_);}
	.st122{clip-path:url(#SVGID_00000087379181755972898860000007260604055213531027_);}
	.st123{clip-path:url(#SVGID_00000061446571813419100420000007025439409438324111_);}
	.st124{clip-path:url(#SVGID_00000145766118099501018000000011779850948389388684_);}
	.st125{clip-path:url(#SVGID_00000037689301584272708160000000927287438366476210_);}
	.st126{clip-path:url(#SVGID_00000142146473591341057950000008374524597470490521_);}
	.st127{clip-path:url(#SVGID_00000111151550601216960070000014133181330000933539_);}
	.st128{clip-path:url(#SVGID_00000161613004809926298770000012986089921701704885_);}
	.st129{clip-path:url(#SVGID_00000160186073687425631510000012317408231058595482_);}
	.st130{clip-path:url(#SVGID_00000007427816797422396270000001102752398773557409_);}
	.st131{clip-path:url(#SVGID_00000078758875609128589590000010425452033082569128_);}
	.st132{clip-path:url(#SVGID_00000075844034106570146130000001556741209787240624_);}
	.st133{clip-path:url(#SVGID_00000019651333139356977330000017339550564605571217_);}
	.st134{clip-path:url(#SVGID_00000096779200146669142890000002374835737259436731_);}
	.st135{clip-path:url(#SVGID_00000038410544553985345780000017387935890978993555_);}
	.st136{clip-path:url(#SVGID_00000003804193437773894330000010565799942987401396_);}
	.st137{clip-path:url(#SVGID_00000152235466815361625330000000162992624792410284_);}
	.st138{clip-path:url(#SVGID_00000121998706065529686360000007026066560559563149_);}
	.st139{clip-path:url(#SVGID_00000034771415049739391990000013486268625154577537_);}
	.st140{clip-path:url(#SVGID_00000093868133921799013330000011093851483752062652_);}
	.st141{clip-path:url(#SVGID_00000016770174625311817310000011692607936182145946_);}
	.st142{clip-path:url(#SVGID_00000100371127573595940490000015300792977047264169_);}
	.st143{clip-path:url(#SVGID_00000067225672254730013080000004081902338156499854_);}
	.st144{clip-path:url(#SVGID_00000069364547358619987520000013466099192694416801_);}
	.st145{clip-path:url(#SVGID_00000159441925966378497450000016289126545602163132_);}
	.st146{clip-path:url(#SVGID_00000146462022800930262170000002766076706672906389_);}
	.st147{clip-path:url(#SVGID_00000018938421124175978770000011478918289380640924_);}
	.st148{clip-path:url(#SVGID_00000008126265077806827860000003375107662770657211_);}
	.st149{clip-path:url(#SVGID_00000022520842188489360880000011146862072009747105_);}
	.st150{clip-path:url(#SVGID_00000050654437068312810770000016543769214433272234_);}
	.st151{clip-path:url(#SVGID_00000063602155841561676230000004109518273573472702_);}
	.st152{clip-path:url(#SVGID_00000020356735091198724390000004517451021234023853_);}
	.st153{clip-path:url(#SVGID_00000018958942279062736930000014036821729566620576_);}
	.st154{clip-path:url(#SVGID_00000166637681331185275570000011100557844342841001_);}
	.st155{clip-path:url(#SVGID_00000037687745497360604640000011812372202803877019_);}
	.st156{clip-path:url(#SVGID_00000006684402939768663780000011899693363846157232_);}
	.st157{clip-path:url(#SVGID_00000116222508192387950640000005780102602967119756_);}
	.st158{clip-path:url(#SVGID_00000038381161760222878100000013366377468674806699_);}
	.st159{clip-path:url(#SVGID_00000007429288105669112140000017707381705228950407_);}
	.st160{clip-path:url(#SVGID_00000106852139789348268150000008101219254801801662_);}
	.st161{clip-path:url(#SVGID_00000144298669983093547480000009000697573399694209_);}
	.st162{clip-path:url(#SVGID_00000136392625832789859990000002145281688478720183_);}
	.st163{clip-path:url(#SVGID_00000064338059785356585380000005275521140736140703_);}
	.st164{clip-path:url(#SVGID_00000150803019466170987930000004651679735364387252_);}
	.st165{clip-path:url(#SVGID_00000147179655531537397120000001551560714940444292_);}
	.st166{clip-path:url(#SVGID_00000147200262521045308550000014342309886597382535_);}
	.st167{clip-path:url(#SVGID_00000142147186686077741780000014488394255773277884_);}
	.st168{clip-path:url(#SVGID_00000003824977497230047100000015426107726468645795_);}
	.st169{clip-path:url(#SVGID_00000123428664817164733530000010439158571511847561_);}
	.st170{clip-path:url(#SVGID_00000141413317151992454120000014233555777780557753_);}
	.st171{clip-path:url(#SVGID_00000148628380443273135560000017320445280459852477_);}
	.st172{clip-path:url(#SVGID_00000005977070435535889320000016784839881289099419_);}
	.st173{clip-path:url(#SVGID_00000039119727545935557530000008013171668804511919_);}
	.st174{clip-path:url(#SVGID_00000067926832173621962000000001642795473951372220_);}
	.st175{clip-path:url(#SVGID_00000139287130798178036200000014750471538712625798_);}
	.st176{clip-path:url(#SVGID_00000001645445208915871650000016271151732251006647_);}
	.st177{clip-path:url(#SVGID_00000049188914479103497830000009735370758281104820_);}
	.st178{clip-path:url(#SVGID_00000068659793244874469840000010765039563314960011_);}
	.st179{clip-path:url(#SVGID_00000066504637676713920460000001574843288664397746_);}
	.st180{clip-path:url(#SVGID_00000108988036592900290440000008993367349610133175_);}
	.st181{clip-path:url(#SVGID_00000111872959857181256250000009649575933491389842_);}
	.st182{clip-path:url(#SVGID_00000149359968359356951420000003728233489897182907_);}
	.st183{clip-path:url(#SVGID_00000102521524941428946530000003554111782438228648_);}
	.st184{clip-path:url(#SVGID_00000157276566956548870480000011017225329415861407_);}
	.st185{clip-path:url(#SVGID_00000119111087772047752880000008341170644945702043_);}
	.st186{clip-path:url(#SVGID_00000057149099434336198010000002170689326495037845_);}
	.st187{clip-path:url(#SVGID_00000130639472894248339180000009099347284058697902_);}
	.st188{clip-path:url(#SVGID_00000093163478006495653850000014163148042024460978_);}
	.st189{clip-path:url(#SVGID_00000034807076353462506560000000244166727092334527_);}
	.st190{clip-path:url(#SVGID_00000057842951298340860700000003960032741216202644_);}
	.st191{clip-path:url(#SVGID_00000115516780308360319840000015097148375234593970_);}
	.st192{clip-path:url(#SVGID_00000054261694806828239730000012138602677416752262_);}
	.st193{clip-path:url(#SVGID_00000041261942298174878950000000696177674846896266_);}
	.st194{clip-path:url(#SVGID_00000049221948322982496310000012545163879972334470_);}
	.st195{clip-path:url(#SVGID_00000083768540963467990680000011629286421159273657_);}
	.st196{clip-path:url(#SVGID_00000153677561680337736240000011492148176813092534_);}
	.st197{clip-path:url(#SVGID_00000022551629952088123950000006398296753469647015_);}
	.st198{clip-path:url(#SVGID_00000051375404044065202520000014766681774397134750_);}
	.st199{clip-path:url(#SVGID_00000107573683884886098280000013500355024302968448_);}
	.st200{clip-path:url(#SVGID_00000016781013644761935570000006758209971557389203_);}
	.st201{clip-path:url(#SVGID_00000072244009221740765440000015173442821050658208_);}
	.st202{clip-path:url(#SVGID_00000046336164591825542610000002340368865167856290_);}
	.st203{clip-path:url(#SVGID_00000163030353198003426400000008162959161116860052_);}
	.st204{clip-path:url(#SVGID_00000165926873806284324940000001421313192491178679_);}
	.st205{clip-path:url(#SVGID_00000096022816686083691310000006738747786384476564_);}
	.st206{clip-path:url(#SVGID_00000120561081006148782910000007313513301565825182_);}
	.st207{clip-path:url(#SVGID_00000053535638639154631110000006054006601370038913_);}
	.st208{clip-path:url(#SVGID_00000039129408668722064220000002806130285012547996_);}
	.st209{clip-path:url(#SVGID_00000092427558859729683690000016544190647183140254_);}
	.st210{clip-path:url(#SVGID_00000111902111544479183740000017383161089357720726_);}
	.st211{clip-path:url(#SVGID_00000150788458173507102220000008725734326081955491_);}
	.st212{clip-path:url(#SVGID_00000160869921700066671960000010941550466839641237_);}
	.st213{clip-path:url(#SVGID_00000024724220628993009360000003315357258801715614_);}
	.st214{clip-path:url(#SVGID_00000071542328600429546220000008428348789989968049_);}
	.st215{clip-path:url(#SVGID_00000111904280611947299400000016934823638318653345_);}
	.st216{clip-path:url(#SVGID_00000153686714739755958810000006105557375402068397_);}
	.st217{clip-path:url(#SVGID_00000096777812141420941390000010891283908724339855_);}
	.st218{clip-path:url(#SVGID_00000046311834490169450930000008790531417305657736_);}
	.st219{clip-path:url(#SVGID_00000054948416556828600000000004615405741997968312_);}
	.st220{clip-path:url(#SVGID_00000057114035623400367010000007207416972236646810_);}
	.st221{clip-path:url(#SVGID_00000007394211199700173800000013068787509753780359_);}
	.st222{clip-path:url(#SVGID_00000044899348320773099690000004047453315905799604_);}
	.st223{clip-path:url(#SVGID_00000057830865170804915240000003129693783746751895_);}
	.st224{clip-path:url(#SVGID_00000147930979898288147890000000891280143223426457_);}
	.st225{clip-path:url(#SVGID_00000047059941677943892560000000466791944314584469_);}
	.st226{clip-path:url(#SVGID_00000104706494586265007750000018236212891923537553_);}
	.st227{clip-path:url(#SVGID_00000152955049054525424160000013042870175554657707_);}
	.st228{clip-path:url(#SVGID_00000000920831701696230250000005312779725379030702_);}
	.st229{clip-path:url(#SVGID_00000016065728577264270610000010243558234996949951_);}
	.st230{clip-path:url(#SVGID_00000113349671818832848930000003758111716351906725_);}
	.st231{clip-path:url(#SVGID_00000146502026807190594000000004689039807972664960_);}
	.st232{clip-path:url(#SVGID_00000097469021304055283450000002964202390540944565_);}
	.st233{clip-path:url(#SVGID_00000087405205641501157190000004730738411858513539_);}
	.st234{clip-path:url(#SVGID_00000178896452684573342420000002575664662333540517_);}
	.st235{clip-path:url(#SVGID_00000072964877422497793310000000577522040222232488_);}
	.st236{clip-path:url(#SVGID_00000112609332283680473670000009612547183119129219_);}
	.st237{clip-path:url(#SVGID_00000129205605456079873100000012038872848228417689_);}
	.st238{clip-path:url(#SVGID_00000150070082793402434070000007945923443531534484_);}
	.st239{clip-path:url(#SVGID_00000144300601789501677640000009632834353595321746_);}
	.st240{clip-path:url(#SVGID_00000106145966829209319330000008159891224307340172_);}
	.st241{clip-path:url(#SVGID_00000028327463693130658540000014300764821610326203_);}
	.st242{clip-path:url(#SVGID_00000016042496729630038490000006322460543608277135_);}
	.st243{clip-path:url(#SVGID_00000072973410571956561630000002769882533860862355_);}
	.st244{clip-path:url(#SVGID_00000134233497210620724940000018289325903094655631_);}
	.st245{clip-path:url(#SVGID_00000112619014992785549460000012962491298976776123_);}
	.st246{clip-path:url(#SVGID_00000106131179433867782790000000115567564045515169_);}
	.st247{clip-path:url(#SVGID_00000049905562503366280910000010864164196050043265_);}
	.st248{clip-path:url(#SVGID_00000071548883711510601150000002163243940976084655_);}
	.st249{clip-path:url(#SVGID_00000018936448252890989730000008545669222808713636_);}
	.st250{clip-path:url(#SVGID_00000040575938500326771910000001369088805208995237_);}
	.st251{clip-path:url(#SVGID_00000067923900390625245210000001445797967470812848_);}
	.st252{clip-path:url(#SVGID_00000048460655533434665970000010050973125435152517_);}
	.st253{clip-path:url(#SVGID_00000145021840438614166200000007834275980712727981_);}
	.st254{clip-path:url(#SVGID_00000165215788935958794390000007529781926067107968_);}
	.st255{clip-path:url(#SVGID_00000048473354708844720340000012923227976730656417_);}
	.st256{clip-path:url(#SVGID_00000122694711903770555080000003480056821703911580_);}
	.st257{clip-path:url(#SVGID_00000117654938801705751540000007076551443989368241_);}
	.st258{clip-path:url(#SVGID_00000115511156095084875810000011942964331761494952_);}
	.st259{clip-path:url(#SVGID_00000113315243442937098750000007562291887986373768_);}
	.st260{clip-path:url(#SVGID_00000121258049210974550430000018196387762707272833_);}
	.st261{clip-path:url(#SVGID_00000041979622119440283360000015614364525037372307_);}
	.st262{clip-path:url(#SVGID_00000173852446820334843320000001660900396506100617_);}
	.st263{clip-path:url(#SVGID_00000162332315939769193190000016398636163975540106_);}
	.st264{clip-path:url(#SVGID_00000111895078450802230590000008841569391845469345_);}
	.st265{clip-path:url(#SVGID_00000101786450615067760560000018243235919012117120_);}
	.st266{clip-path:url(#SVGID_00000055684892201570614580000000618698957909799604_);}
	.st267{clip-path:url(#SVGID_00000025402901978020257950000002021276127677013133_);}
	.st268{clip-path:url(#SVGID_00000110442745469337583480000015346333373613189250_);}
	.st269{clip-path:url(#SVGID_00000134954170375551593800000011715322465407771556_);}
	.st270{clip-path:url(#SVGID_00000145024298211142439280000015337933045365802151_);}
	.st271{clip-path:url(#SVGID_00000088135162446976396860000002978011579804779139_);}
	.st272{clip-path:url(#SVGID_00000122701405269042257540000008231659247635275947_);}
	.st273{clip-path:url(#SVGID_00000065754197740490280920000004987633956007998614_);}
	.st274{clip-path:url(#SVGID_00000028326061605405754030000007575784354243243676_);}
	.st275{clip-path:url(#SVGID_00000173144570421823208080000017201765111568146613_);}
	.st276{clip-path:url(#SVGID_00000058552314814200823800000006416961224151377031_);}
	.st277{clip-path:url(#SVGID_00000146481684927346769280000007147002111977223093_);}
	.st278{clip-path:url(#SVGID_00000166637672600203551920000011758784439272083851_);}
	.st279{clip-path:url(#SVGID_00000114769015500650811760000005352246197983271301_);}
	.st280{clip-path:url(#SVGID_00000158015171745325783000000000287327773379619492_);}
	.st281{clip-path:url(#SVGID_00000122697666129303523370000012535586612361262771_);}
	.st282{clip-path:url(#SVGID_00000124155591851007525850000010561664195909013138_);}
	.st283{clip-path:url(#SVGID_00000141456726066836774720000009420892107542702512_);}
	.st284{clip-path:url(#SVGID_00000031184058831468459020000016469581741802117806_);}
	.st285{clip-path:url(#SVGID_00000152986942360335106010000002579013105116669093_);}
	.st286{clip-path:url(#SVGID_00000120535171764677647520000008673653422282759359_);}
	.st287{clip-path:url(#SVGID_00000028320706494329183150000002048357838331370632_);}
	.st288{clip-path:url(#SVGID_00000165202766503751481230000014255366890163126449_);}
	.st289{clip-path:url(#SVGID_00000174584188221015220760000017937763412223936189_);}
	.st290{clip-path:url(#SVGID_00000125565181924934996830000016165311128501564070_);}
	.st291{clip-path:url(#SVGID_00000060015112912852199880000010379375333515811459_);}
	.st292{clip-path:url(#SVGID_00000157267668927474844420000000132101794552665253_);}
	.st293{clip-path:url(#SVGID_00000005967344212548093220000018115477607786455719_);}
	.st294{clip-path:url(#SVGID_00000026142560815755540730000002438466879717136056_);}
	.st295{clip-path:url(#SVGID_00000154404197248445739270000017740587322798511755_);}
	.st296{clip-path:url(#SVGID_00000158710369472489496690000009003021066613301928_);}
	.st297{clip-path:url(#SVGID_00000103959090447846077350000005134937829170730113_);}
	.st298{clip-path:url(#SVGID_00000000910027649048305330000010190904628304835234_);}
	.st299{clip-path:url(#SVGID_00000112617225605255355420000003556663219064664228_);}
	.st300{clip-path:url(#SVGID_00000002353913483998417590000007392923062771871375_);}
	.st301{clip-path:url(#SVGID_00000008148204905234067110000001604149339412151443_);}
	.st302{clip-path:url(#SVGID_00000091011653217920986830000000912123684910630789_);}
	.st303{clip-path:url(#SVGID_00000049200248648587407710000018039268718805399977_);}
	.st304{clip-path:url(#SVGID_00000119819339033503519180000001150799981454134200_);}
	.st305{clip-path:url(#SVGID_00000178927895435937185520000017352968032313000622_);}
	.st306{clip-path:url(#SVGID_00000181766498512360626680000001442154101611659965_);}
	.st307{clip-path:url(#SVGID_00000049944214836228007410000018005758170056067721_);}
	.st308{clip-path:url(#SVGID_00000103980301296119088610000014767371208857015987_);}
	.st309{clip-path:url(#SVGID_00000115482777935586933800000011710648472089310879_);}
	.st310{clip-path:url(#SVGID_00000014606749869736259220000006319059252118116753_);}
	.st311{clip-path:url(#SVGID_00000057121436924490356680000007955379945635647151_);}
	.st312{clip-path:url(#SVGID_00000073703451346570708300000004988082076955243960_);}
	.st313{clip-path:url(#SVGID_00000003824154668530151080000004141558284063875774_);}
	.st314{clip-path:url(#SVGID_00000020378920321629998870000006291352406123747749_);}
	.st315{clip-path:url(#SVGID_00000121239677933585315970000015791794069328698264_);}
	.st316{clip-path:url(#SVGID_00000180347437658178536990000006463705137287537806_);}
	.st317{clip-path:url(#SVGID_00000111874370551509827900000002264047257148576924_);}
	.st318{clip-path:url(#SVGID_00000101079927259106025200000013080573665946196147_);}
	.st319{clip-path:url(#SVGID_00000130638394393550912110000003999315720935758741_);}
	.st320{clip-path:url(#SVGID_00000067938849057941420870000001549824171300454299_);}
	.st321{clip-path:url(#SVGID_00000044858439620720801190000010645708542772063166_);}
	.st322{clip-path:url(#SVGID_00000031907220948010161760000017468955512081629112_);}
	.st323{clip-path:url(#SVGID_00000138542438394565929890000001857981494177288353_);}
	.st324{clip-path:url(#SVGID_00000102539193819805994590000016823605623622676398_);}
	.st325{clip-path:url(#SVGID_00000044167694201127020970000001149208754499199366_);}
	.st326{clip-path:url(#SVGID_00000163052829160605211460000011976470604900166590_);}
	.st327{clip-path:url(#SVGID_00000145023822708309502480000007269466806580673923_);}
	.st328{clip-path:url(#SVGID_00000029737586062638459220000006601289134567945117_);}
	.st329{clip-path:url(#SVGID_00000127735455148048216240000015059091489985892503_);}
	.st330{clip-path:url(#SVGID_00000118390727347857379820000002110467639229316280_);}
	.st331{clip-path:url(#SVGID_00000169544121828786340530000018016951709250927250_);}
	.st332{clip-path:url(#SVGID_00000072998501140894770410000002211814229711286932_);}
	.st333{clip-path:url(#SVGID_00000076602099963602297730000017997112889136939665_);}
	.st334{clip-path:url(#SVGID_00000052066106793598526010000016795391596275988375_);}
	.st335{clip-path:url(#SVGID_00000083048193342818513730000012919747137651872420_);}
	.st336{clip-path:url(#SVGID_00000137123996243224223130000017881484542407325360_);}
	.st337{clip-path:url(#SVGID_00000114771674063734918480000012447041604024560826_);}
	.st338{clip-path:url(#SVGID_00000136369971262988016530000004381862151920373123_);}
	.st339{clip-path:url(#SVGID_00000107589538578609224140000005774695906909800578_);}
	.st340{clip-path:url(#SVGID_00000047782280477239866060000009932664053381185930_);}
	.st341{clip-path:url(#SVGID_00000066503586551648435390000001266227261271788469_);}
	.st342{clip-path:url(#SVGID_00000173133511155690248990000013220037742061511811_);}
	.st343{clip-path:url(#SVGID_00000082336798601208386590000003465513489644199587_);}
	.st344{clip-path:url(#SVGID_00000032621685732071737500000016748862730104757148_);}
	.st345{clip-path:url(#SVGID_00000164507181302344890960000001189543569306850436_);}
	.st346{clip-path:url(#SVGID_00000047032135032605323010000017055547134018868650_);}
	.st347{clip-path:url(#SVGID_00000176033906089199924220000002711008611097886376_);}
	.st348{clip-path:url(#SVGID_00000122720277278748817090000004077511138787765905_);}
	.st349{clip-path:url(#SVGID_00000154412333214279416750000014564763910788580516_);}
	.st350{clip-path:url(#SVGID_00000095296918664128425350000004158512520518002093_);}
	.st351{clip-path:url(#SVGID_00000139254665596875393420000000476234339518433689_);}
	.st352{clip-path:url(#SVGID_00000000932248194401927020000011142489573581602693_);}
	.st353{clip-path:url(#SVGID_00000011712999878625399280000002363738624126667652_);}
	.st354{clip-path:url(#SVGID_00000155829746623261113120000001940738441142141093_);}
	.st355{clip-path:url(#SVGID_00000068647204708381799880000007573085642443426239_);}
	.st356{clip-path:url(#SVGID_00000042014038235702943240000004131957882427556493_);}
	.st357{clip-path:url(#SVGID_00000105426410830265319390000016621693286778789036_);}
	.st358{clip-path:url(#SVGID_00000163031362986909514600000015242918045791509169_);}
	.st359{clip-path:url(#SVGID_00000138544404876108219440000006587378563412910014_);}
	.st360{clip-path:url(#SVGID_00000003797801506344226920000015330490215579873676_);}
	.st361{clip-path:url(#SVGID_00000169531061273198216430000002721169267587157419_);}
	.st362{clip-path:url(#SVGID_00000020383952187743241530000001183228504589800598_);}
	.st363{clip-path:url(#SVGID_00000016777305332630999130000002335501816357988020_);}
	.st364{clip-path:url(#SVGID_00000139258735354718095290000007270179445697631414_);}
	.st365{clip-path:url(#SVGID_00000042713390079990237420000017779113031633865611_);}
	.st366{clip-path:url(#SVGID_00000103948763131367598150000016151925629207966908_);}
	.st367{clip-path:url(#SVGID_00000134938022829570631570000015903779952205238166_);}
	.st368{clip-path:url(#SVGID_00000020375064846623319610000012589088427253367941_);}
	.st369{clip-path:url(#SVGID_00000176041732213760474510000016076773578026845072_);}
	.st370{clip-path:url(#SVGID_00000098914878446156480340000005194042484021718684_);}
	.st371{clip-path:url(#SVGID_00000145029471372396975210000012929775339909688495_);}
	.st372{clip-path:url(#SVGID_00000098900245359053423220000001502936739609961092_);}
	.st373{clip-path:url(#SVGID_00000111869910673899561220000013785095778644929195_);}
	.st374{clip-path:url(#SVGID_00000057134108937785082350000006948897215609023919_);}
	.st375{clip-path:url(#SVGID_00000020356633849712516920000001065000918731649705_);}
</style>
<g>
	<g>
		<rect x="2.28" y="121.72" class="st0" width="48.6" height="698.91"/>
	</g>
	<g>
		<rect x="0.2" y="4.52" class="st1" width="997.31" height="117.01"/>
	</g>
	<g>
		<path class="st3" d="M998.31,822.56H1.69c-0.93,0-1.69-0.75-1.69-1.69V4.62c0-0.93,0.75-1.69,1.69-1.69h996.63
			c0.93,0,1.69,0.75,1.69,1.69v816.25C1000,821.8,999.25,822.56,998.31,822.56z M3.37,819.18h993.25V6.31H3.37V819.18z"/>
	</g>
	<g>
		<rect x="1" y="119.94" class="st3" width="996.63" height="3.37"/>
	</g>
	<g>
		<defs>
			<rect id="SVGID_00000000942341777229693380000008029420740911110327_" x="1.45" y="7.71" width="995.92" height="820.47"/>
		</defs>
		<clipPath id="SVGID_00000038379543816466784300000018077642979002571407_">
			<use xlink:href="#SVGID_00000000942341777229693380000008029420740911110327_"  style="overflow:visible;"/>
		</clipPath>
		<g style="clip-path:url(#SVGID_00000038379543816466784300000018077642979002571407_);">
			<path class="st4" d="M843.41,77.14c0-6.44-3.8-10.46-11.34-11.19l-6-0.59c-3.36-0.29-3.95-1.9-3.95-3.29
				c0-1.9,1.61-3.66,5.41-3.66c3.29,0,6.65,0.59,8.85,2.56l5.85-5.92c-3.66-3.44-8.63-4.46-14.55-4.46c-7.75,0-14.7,4.24-14.7,12.13
				c0,7.03,4.24,10.02,11.12,10.68l6,0.59c3,0.29,4.02,1.61,4.02,3.51c0,2.86-3.44,3.95-6.73,3.95c-2.93,0-7.02-0.44-10.17-3.59
				l-6.22,6.22c4.83,4.82,10.24,5.48,16.23,5.48C836.24,89.57,843.41,85.55,843.41,77.14 M805.76,77.14
				c0-6.44-3.8-10.46-11.34-11.19l-6-0.59c-3.36-0.29-3.95-1.9-3.95-3.29c0-1.9,1.61-3.66,5.41-3.66c3.29,0,6.65,0.59,8.85,2.56
				l5.85-5.92c-3.66-3.44-8.63-4.46-14.55-4.46c-7.75,0-14.7,4.24-14.7,12.13c0,7.03,4.24,10.02,11.12,10.68l6,0.59
				c3,0.29,4.02,1.61,4.02,3.51c0,2.86-3.44,3.95-6.73,3.95c-2.93,0-7.02-0.44-10.17-3.59l-6.22,6.22
				c4.83,4.82,10.24,5.48,16.23,5.48C798.59,89.57,805.76,85.55,805.76,77.14 M764.94,89.13V51.04h-9.5v23.04
				c0,5.19-3.36,6.95-6.36,6.95c-3,0-6.29-1.76-6.29-6.95V51.04h-9.5v24.35c0,4.17,0.8,7.75,3.88,10.82
				c2.12,2.12,5.19,3.36,8.99,3.36c3.52,0,7.03-1.32,9.51-3.94v3.5H764.94z M724.65,89.13V81.1h-3.66c-2.41,0-3.36-1.17-3.36-3.44
				V37.07h-9.5v41.17c0,5.41,3.29,10.89,11.11,10.89H724.65z M696.79,89.13V64.49c0-8.04-4.38-13.88-12.72-13.88
				c-3.36,0-6.59,1.31-9.15,3.94V37.07h-9.5v52.06h9.5V65.88c0-4.97,3.14-6.73,6.15-6.73c3,0,6.22,1.68,6.22,6.73v23.26H696.79z
				 M656.56,84.38l-6.44-6.36c-1.97,2.13-3.66,3-6.14,3c-2.27,0-4.02-0.8-5.41-2.49c-1.46-1.83-2.12-4.46-2.12-8.48
				s0.66-6.59,2.12-8.42c1.39-1.68,3.14-2.49,5.41-2.49c2.49,0,4.17,0.88,6.14,3l6.44-6.43c-3.36-3.51-7.31-5.11-12.58-5.11
				c-7.61,0-17.03,4.02-17.03,19.45s9.42,19.52,17.03,19.52C649.25,89.57,653.2,87.89,656.56,84.38 M619.42,77.14
				c0-6.44-3.8-10.46-11.34-11.19l-6-0.59c-3.36-0.29-3.95-1.9-3.95-3.29c0-1.9,1.61-3.66,5.41-3.66c3.29,0,6.65,0.59,8.85,2.56
				l5.85-5.92c-3.66-3.44-8.63-4.46-14.55-4.46c-7.75,0-14.7,4.24-14.7,12.13c0,7.03,4.24,10.02,11.12,10.68l6,0.59
				c3,0.29,4.02,1.61,4.02,3.51c0,2.86-3.44,3.95-6.73,3.95c-2.93,0-7.02-0.44-10.17-3.59l-6.22,6.22
				c4.83,4.82,10.24,5.48,16.23,5.48C612.25,89.57,619.42,85.55,619.42,77.14 M570.72,70.05c0,6.22-0.73,10.98-6.44,10.98
				c-5.71,0-6.44-4.76-6.44-10.98c0-6.22,0.73-10.9,6.44-10.9C569.99,59.15,570.72,63.83,570.72,70.05 M580.22,70.05
				c0-5.71-0.07-12.22-3.87-16.02c-2.12-2.12-5.55-3.43-9.29-3.43c-3.88,0-6.73,1.02-9.22,3.8V37.07h-9.5v52.06h9.2v-3.58
				c2.64,2.92,5.49,4.02,9.51,4.02c3.74,0,7.17-1.32,9.29-3.43C580.14,82.34,580.22,75.75,580.22,70.05 M527.13,75.09
				c0,2.35-0.37,3.88-1.39,4.83c-1.69,1.61-3.37,1.83-6,1.83c-3.74,0-5.49-1.76-5.49-4.39c0-2.71,1.9-4.32,5.34-4.32h7.54V75.09z
				 M536.63,89.13V64.05c0-8.92-5.55-13.45-16.23-13.45c-6.37,0-10.02,1.16-13.74,5.26l6.06,5.92c1.97-2.27,3.66-3.15,7.31-3.15
				c5.05,0,7.1,1.83,7.1,6v1.91h-9c-8.85,0-13.01,4.96-13.01,11.04c0,3.36,1.1,6.44,3.14,8.56c2.27,2.26,5.41,3.36,9.73,3.36
				c4.39,0,6.81-1.1,9.37-3.65v3.29H536.63z M498.75,89.13V81.1h-3.66c-2.41,0-3.36-1.17-3.36-3.44V37.07h-9.5v41.17
				c0,5.41,3.29,10.89,11.1,10.89H498.75z M470.45,89.13V51.04h-9.5v23.04c0,5.19-3.37,6.95-6.37,6.95s-6.29-1.76-6.29-6.95V51.04
				h-9.5v24.35c0,4.17,0.8,7.75,3.87,10.82c2.12,2.12,5.19,3.36,9,3.36c3.51,0,7.03-1.32,9.51-3.94v3.5H470.45z M427.52,89.13V64.49
				c0-8.04-4.39-13.88-12.72-13.88c-3.37,0-6.59,1.31-9.15,3.94V37.07h-9.5v52.06h9.5V65.88c0-4.97,3.14-6.73,6.14-6.73
				c3,0,6.22,1.68,6.22,6.73v23.26H427.52z M387.3,84.38l-6.44-6.36c-1.97,2.13-3.66,3-6.14,3c-2.27,0-4.02-0.8-5.41-2.49
				c-1.46-1.83-2.12-4.46-2.12-8.48s0.66-6.59,2.12-8.42c1.39-1.68,3.14-2.49,5.41-2.49c2.49,0,4.17,0.88,6.14,3l6.44-6.43
				c-3.36-3.51-7.31-5.11-12.58-5.11c-7.61,0-17.03,4.02-17.03,19.45s9.43,19.52,17.03,19.52C379.99,89.57,383.94,87.89,387.3,84.38
				 M350.15,77.14c0-6.44-3.8-10.46-11.34-11.19l-6-0.59c-3.36-0.29-3.95-1.9-3.95-3.29c0-1.9,1.61-3.66,5.41-3.66
				c3.29,0,6.65,0.59,8.85,2.56l5.85-5.92c-3.66-3.44-8.63-4.46-14.55-4.46c-7.75,0-14.7,4.24-14.7,12.13
				c0,7.03,4.24,10.02,11.12,10.68l6,0.59c3,0.29,4.02,1.61,4.02,3.51c0,2.86-3.44,3.95-6.73,3.95c-2.93,0-7.02-0.44-10.17-3.59
				l-6.22,6.22c4.83,4.82,10.24,5.48,16.23,5.48C342.99,89.57,350.15,85.55,350.15,77.14 M312.42,89.13V81.1h-3.66
				c-2.41,0-3.36-1.17-3.36-3.44V37.07h-9.5v41.17c0,5.41,3.29,10.89,11.11,10.89H312.42z M275.05,75.09c0,2.35-0.37,3.88-1.39,4.83
				c-1.68,1.61-3.36,1.83-6,1.83c-3.73,0-5.48-1.76-5.48-4.39c0-2.71,1.9-4.32,5.34-4.32h7.54V75.09z M284.55,89.13V64.05
				c0-8.92-5.55-13.45-16.23-13.45c-6.37,0-10.02,1.16-13.75,5.26l6.06,5.92c1.97-2.27,3.66-3.15,7.31-3.15c5.05,0,7.1,1.83,7.1,6
				v1.91h-9c-8.84,0-13.01,4.96-13.01,11.04c0,3.36,1.1,6.44,3.14,8.56c2.26,2.26,5.41,3.36,9.72,3.36c4.39,0,6.81-1.1,9.37-3.65
				v3.29H284.55z M236.14,66.55h-14.48c0.07-1.69,0.29-2.71,0.88-4.1c1.02-2.27,3.14-3.95,6.36-3.95c3.22,0,5.34,1.68,6.36,3.95
				C235.85,63.83,236.07,64.86,236.14,66.55 M245.5,73.04v-4.24c0-10.46-6-18.2-16.6-18.2c-9.87,0-16.59,7.01-16.59,19.45
				c0,15.43,8.62,19.52,17.61,19.52c6.87,0,10.6-2.12,14.48-5.99l-5.78-5.63c-2.41,2.41-4.46,3.59-8.63,3.59
				c-5.34,0-8.34-3.59-8.34-8.49H245.5z M192.79,53.01c0,4.02-2.93,6.88-7.39,6.88h-9.59V46.13h9.59
				C189.86,46.13,192.79,48.98,192.79,53.01 M205.06,89.13l-11.62-22.45c5.04-1.82,9.5-6.35,9.5-13.67
				c0-8.71-6.28-15.94-16.89-15.94h-20.4v52.06h10.15V68.36h7.32l10.17,20.77H205.06z"/>
		</g>
	</g>
	<g>
		<rect x="3.09" y="351.14" class="st3" width="993.81" height="3.37"/>
	</g>
	<g>
		<rect x="3.09" y="234.13" class="st3" width="993.81" height="3.37"/>
	</g>
	<g>
		<rect x="3.09" y="465.34" class="st3" width="993.81" height="3.37"/>
	</g>
	<g>
		<rect x="3.09" y="587.98" class="st3" width="993.81" height="3.37"/>
	</g>
	<g>
		<rect x="3.09" y="704.98" class="st3" width="993.81" height="3.37"/>
	</g>
	<g>
		<defs>
			<rect id="SVGID_00000143601709876714749710000009432189611133925260_" x="1.45" y="7.71" width="995.92" height="820.47"/>
		</defs>
		<clipPath id="SVGID_00000177479445945929762370000003322148200260271778_">
			<use xlink:href="#SVGID_00000143601709876714749710000009432189611133925260_"  style="overflow:visible;"/>
		</clipPath>
		<g style="clip-path:url(#SVGID_00000177479445945929762370000003322148200260271778_);">
			<path class="st3" d="M721.78,663.81c0,4.06-2.41,6.63-5.83,6.63c-3.43,0-5.78-2.57-5.78-6.63c0-4.12,2.35-6.58,5.78-6.58
				C719.59,657.23,721.78,660.07,721.78,663.81 M727.23,663.7c0-6.68-4.48-11-9.99-11c-1.18,0-2.35,0.16-3.37,0.59l8.18-16.35h-5.83
				l-8.66,17.64c-1.65,3.31-2.83,6.25-2.83,9.35c0,7.06,4.7,11.38,11.27,11.38C722.58,675.29,727.23,670.7,727.23,663.7
				 M679.56,659.22h-12.18c0.05-1.66,0.16-2.46,0.69-3.69c0.86-2.04,2.84-3.43,5.4-3.43c2.57,0,4.49,1.39,5.34,3.43
				C679.35,656.75,679.5,657.56,679.56,659.22 M684.95,663v-2.4c0-7.7-4.22-13.03-11.49-13.03c-6.95,0-11.49,5.07-11.49,13.83
				c0,10.32,5.39,13.89,12.18,13.89c4.76,0,7.37-1.44,10.15-4.21l-3.47-3.26c-1.92,1.92-3.53,2.78-6.58,2.78
				c-4.43,0-6.89-2.94-6.89-7.59H684.95z M656.21,666.69c0-4.81-2.99-7.22-8.07-7.64l-4.28-0.37c-2.89-0.27-3.74-1.5-3.74-3.1
				c0-2.03,1.66-3.48,4.92-3.48c2.57,0,4.97,0.53,6.68,1.98l3.42-3.48c-2.51-2.19-5.99-3.04-10.05-3.04
				c-5.66,0-10.21,2.99-10.21,8.27c0,4.76,2.94,7.06,8.02,7.49l4.33,0.37c2.62,0.21,3.63,1.39,3.63,3.21c0,2.57-2.62,3.75-5.93,3.75
				c-2.67,0-5.61-0.59-7.8-2.84l-3.58,3.58c3.21,3.14,6.95,3.89,11.38,3.89C651.4,675.29,656.21,672.36,656.21,666.69
				 M629.32,666.69c0-4.81-2.99-7.22-8.07-7.64l-4.28-0.37c-2.89-0.27-3.74-1.5-3.74-3.1c0-2.03,1.65-3.48,4.92-3.48
				c2.57,0,4.97,0.53,6.68,1.98l3.42-3.48c-2.51-2.19-5.99-3.04-10.05-3.04c-5.66,0-10.2,2.99-10.2,8.27c0,4.76,2.94,7.06,8.02,7.49
				l4.33,0.37c2.62,0.21,3.63,1.39,3.63,3.21c0,2.57-2.62,3.75-5.93,3.75c-2.67,0-5.61-0.59-7.8-2.84l-3.58,3.58
				c3.21,3.14,6.95,3.89,11.39,3.89C624.51,675.29,629.32,672.36,629.32,666.69 M594.91,665.2c0,1.92-0.37,3.21-1.18,4.01
				c-1.45,1.39-2.99,1.55-5.08,1.55c-3.42,0-4.97-1.4-4.97-3.85s1.66-3.9,4.87-3.9h6.36V665.2z M600.36,674.97v-18.11
				c0-6.15-3.74-9.29-11.17-9.29c-4.49,0-7.16,0.91-9.73,3.89l3.58,3.37c1.5-1.92,2.94-2.62,5.93-2.62c4.22,0,5.93,1.66,5.93,5.08
				v1.93h-7.17c-6.2,0-9.34,3.25-9.34,7.8c0,2.3,0.74,4.39,2.13,5.83c1.65,1.65,3.9,2.45,7.27,2.45s5.24-0.8,7.22-2.77v2.45H600.36z
				 M573.9,674.97v-4.64h-2.4c-2.19,0-2.94-1.07-2.94-3.16v-30.25h-5.44v30.57c0,4.01,2.24,7.48,7.42,7.48H573.9z M555.68,663.59
				h-5.82c-0.91,3.85-3.53,6.53-7.75,6.53c-2.24,0-4.28-0.86-5.61-2.3c-1.87-2.03-2.3-4.22-2.3-11.86c0-7.64,0.43-9.84,2.3-11.87
				c1.33-1.44,3.36-2.3,5.61-2.3c4.22,0,6.79,2.68,7.7,6.53h5.88c-1.33-7.59-6.57-11.7-13.57-11.7c-3.95,0-7.37,1.44-9.99,4.06
				c-3.74,3.74-3.68,7.97-3.68,15.29c0,7.32-0.05,11.54,3.68,15.28c2.62,2.62,6.04,4.06,9.99,4.06
				C549,675.29,554.4,671.18,555.68,663.59 M511.12,632.97h-5.24l-15.23,45.95h5.24L511.12,632.97z M468.31,663.81
				c0,4.06-2.41,6.63-5.83,6.63c-3.42,0-5.78-2.57-5.78-6.63c0-4.12,2.36-6.58,5.78-6.58C466.12,657.23,468.31,660.07,468.31,663.81
				 M473.76,663.7c0-6.68-4.48-11-9.99-11c-1.18,0-2.35,0.16-3.37,0.59l8.18-16.35h-5.83l-8.66,17.64
				c-1.66,3.31-2.83,6.25-2.83,9.35c0,7.06,4.7,11.38,11.27,11.38C469.11,675.29,473.76,670.7,473.76,663.7 M426.09,659.22H413.9
				c0.06-1.66,0.16-2.46,0.7-3.69c0.86-2.04,2.83-3.43,5.39-3.43c2.57,0,4.49,1.39,5.34,3.43
				C425.88,656.75,426.04,657.56,426.09,659.22 M431.49,663v-2.4c0-7.7-4.22-13.03-11.49-13.03c-6.95,0-11.48,5.07-11.48,13.83
				c0,10.32,5.39,13.89,12.18,13.89c4.75,0,7.37-1.44,10.15-4.21l-3.48-3.26c-1.92,1.92-3.53,2.78-6.57,2.78
				c-4.44,0-6.9-2.94-6.9-7.59H431.49z M402.74,666.69c0-4.81-2.99-7.22-8.07-7.64l-4.28-0.37c-2.89-0.27-3.74-1.5-3.74-3.1
				c0-2.03,1.65-3.48,4.92-3.48c2.57,0,4.97,0.53,6.68,1.98l3.42-3.48c-2.51-2.19-5.99-3.04-10.05-3.04c-5.66,0-10.2,2.99-10.2,8.27
				c0,4.76,2.94,7.06,8.02,7.49l4.33,0.37c2.62,0.21,3.63,1.39,3.63,3.21c0,2.57-2.62,3.75-5.93,3.75c-2.67,0-5.61-0.59-7.8-2.84
				l-3.58,3.58c3.21,3.14,6.95,3.89,11.39,3.89C397.93,675.29,402.74,672.36,402.74,666.69 M375.86,666.69
				c0-4.81-2.99-7.22-8.07-7.64l-4.28-0.37c-2.89-0.27-3.74-1.5-3.74-3.1c0-2.03,1.66-3.48,4.92-3.48c2.57,0,4.97,0.53,6.68,1.98
				l3.42-3.48c-2.51-2.19-5.99-3.04-10.05-3.04c-5.66,0-10.21,2.99-10.21,8.27c0,4.76,2.94,7.06,8.02,7.49l4.33,0.37
				c2.62,0.21,3.63,1.39,3.63,3.21c0,2.57-2.62,3.75-5.93,3.75c-2.67,0-5.61-0.59-7.8-2.84l-3.58,3.58
				c3.21,3.14,6.95,3.89,11.38,3.89C371.05,675.29,375.86,672.36,375.86,666.69 M341.44,665.2c0,1.92-0.37,3.21-1.18,4.01
				c-1.44,1.39-2.99,1.55-5.08,1.55c-3.42,0-4.97-1.4-4.97-3.85s1.66-3.9,4.87-3.9h6.36V665.2z M346.89,674.97v-18.11
				c0-6.15-3.74-9.29-11.17-9.29c-4.49,0-7.16,0.91-9.72,3.89l3.57,3.37c1.5-1.92,2.94-2.62,5.93-2.62c4.22,0,5.93,1.66,5.93,5.08
				v1.93h-7.16c-6.2,0-9.35,3.25-9.35,7.8c0,2.3,0.75,4.39,2.14,5.83c1.65,1.65,3.89,2.45,7.26,2.45s5.24-0.8,7.22-2.77v2.45H346.89
				z M320.44,674.97v-4.64h-2.41c-2.19,0-2.94-1.07-2.94-3.16v-30.25h-5.45v30.57c0,4.01,2.24,7.48,7.42,7.48H320.44z
				 M304.41,674.97l-13.63-23.14l12.35-14.91h-7.05l-15.55,19.13v-19.13h-5.77v38.04h5.77v-11.06l6.41-7.7l10.69,18.76H304.41z"/>
		</g>
		<g style="clip-path:url(#SVGID_00000177479445945929762370000003322148200260271778_);">
			<path class="st3" d="M727.76,519.15v-4.85H705.1v10.85h5.24v-5.99h11.6l-12.78,33.19h5.88L727.76,519.15z M679.56,536.58h-12.18
				c0.05-1.66,0.16-2.46,0.69-3.69c0.86-2.04,2.84-3.43,5.4-3.43c2.57,0,4.49,1.39,5.34,3.43
				C679.35,534.12,679.5,534.92,679.56,536.58 M684.95,540.37v-2.4c0-7.7-4.22-13.03-11.49-13.03c-6.95,0-11.49,5.07-11.49,13.83
				c0,10.32,5.39,13.89,12.18,13.89c4.76,0,7.37-1.44,10.15-4.21l-3.47-3.26c-1.92,1.92-3.53,2.78-6.58,2.78
				c-4.43,0-6.89-2.94-6.89-7.59H684.95z M656.21,544.06c0-4.81-2.99-7.22-8.07-7.64l-4.28-0.37c-2.89-0.27-3.74-1.5-3.74-3.1
				c0-2.03,1.66-3.48,4.92-3.48c2.57,0,4.97,0.53,6.68,1.98l3.42-3.48c-2.51-2.19-5.99-3.04-10.05-3.04
				c-5.66,0-10.21,2.99-10.21,8.28c0,4.76,2.94,7.06,8.02,7.49l4.33,0.37c2.62,0.21,3.63,1.39,3.63,3.21c0,2.57-2.62,3.75-5.93,3.75
				c-2.67,0-5.61-0.59-7.8-2.84l-3.58,3.58c3.21,3.15,6.95,3.9,11.38,3.9C651.4,552.66,656.21,549.72,656.21,544.06 M629.32,544.06
				c0-4.81-2.99-7.22-8.07-7.64l-4.28-0.37c-2.89-0.27-3.74-1.5-3.74-3.1c0-2.03,1.65-3.48,4.92-3.48c2.57,0,4.97,0.53,6.68,1.98
				l3.42-3.48c-2.51-2.19-5.99-3.04-10.05-3.04c-5.66,0-10.2,2.99-10.2,8.28c0,4.76,2.94,7.06,8.02,7.49l4.33,0.37
				c2.62,0.21,3.63,1.39,3.63,3.21c0,2.57-2.62,3.75-5.93,3.75c-2.67,0-5.61-0.59-7.8-2.84l-3.58,3.58c3.21,3.15,6.95,3.9,11.39,3.9
				C624.51,552.66,629.32,549.72,629.32,544.06 M594.91,542.56c0,1.92-0.37,3.21-1.18,4.01c-1.45,1.39-2.99,1.55-5.08,1.55
				c-3.42,0-4.97-1.4-4.97-3.85s1.66-3.9,4.87-3.9h6.36V542.56z M600.36,552.34v-18.11c0-6.15-3.74-9.29-11.17-9.29
				c-4.49,0-7.16,0.91-9.73,3.89l3.58,3.37c1.5-1.92,2.94-2.62,5.93-2.62c4.22,0,5.93,1.66,5.93,5.08v1.93h-7.17
				c-6.2,0-9.34,3.25-9.34,7.8c0,2.3,0.74,4.39,2.13,5.83c1.65,1.65,3.9,2.45,7.27,2.45s5.24-0.8,7.22-2.77v2.45H600.36z
				 M573.9,552.34v-4.64h-2.4c-2.19,0-2.94-1.07-2.94-3.16v-30.25h-5.44v30.57c0,4.01,2.24,7.48,7.42,7.48H573.9z M555.68,540.96
				h-5.82c-0.91,3.85-3.53,6.53-7.75,6.53c-2.24,0-4.28-0.86-5.61-2.3c-1.87-2.03-2.3-4.22-2.3-11.86c0-7.64,0.43-9.84,2.3-11.87
				c1.33-1.44,3.36-2.3,5.61-2.3c4.22,0,6.79,2.68,7.7,6.53h5.88c-1.33-7.59-6.57-11.7-13.57-11.7c-3.95,0-7.37,1.44-9.99,4.06
				c-3.74,3.74-3.68,7.97-3.68,15.29c0,7.32-0.05,11.54,3.68,15.28c2.62,2.62,6.04,4.06,9.99,4.06
				C549,552.66,554.4,548.55,555.68,540.96 M511.12,510.34h-5.24l-15.23,45.95h5.24L511.12,510.34z M474.3,519.15v-4.85h-22.66
				v10.85h5.24v-5.99h11.59l-12.77,33.19h5.88L474.3,519.15z M426.09,536.58H413.9c0.06-1.66,0.16-2.46,0.7-3.69
				c0.86-2.04,2.83-3.43,5.39-3.43c2.57,0,4.49,1.39,5.34,3.43C425.88,534.12,426.04,534.92,426.09,536.58 M431.49,540.37v-2.4
				c0-7.7-4.22-13.03-11.49-13.03c-6.95,0-11.48,5.07-11.48,13.83c0,10.32,5.39,13.89,12.18,13.89c4.75,0,7.37-1.44,10.15-4.21
				l-3.48-3.26c-1.92,1.92-3.53,2.78-6.57,2.78c-4.44,0-6.9-2.94-6.9-7.59H431.49z M402.74,544.06c0-4.81-2.99-7.22-8.07-7.64
				l-4.28-0.37c-2.89-0.27-3.74-1.5-3.74-3.1c0-2.03,1.65-3.48,4.92-3.48c2.57,0,4.97,0.53,6.68,1.98l3.42-3.48
				c-2.51-2.19-5.99-3.04-10.05-3.04c-5.66,0-10.2,2.99-10.2,8.28c0,4.76,2.94,7.06,8.02,7.49l4.33,0.37
				c2.62,0.21,3.63,1.39,3.63,3.21c0,2.57-2.62,3.75-5.93,3.75c-2.67,0-5.61-0.59-7.8-2.84l-3.58,3.58c3.21,3.15,6.95,3.9,11.39,3.9
				C397.93,552.66,402.74,549.72,402.74,544.06 M375.86,544.06c0-4.81-2.99-7.22-8.07-7.64l-4.28-0.37c-2.89-0.27-3.74-1.5-3.74-3.1
				c0-2.03,1.66-3.48,4.92-3.48c2.57,0,4.97,0.53,6.68,1.98l3.42-3.48c-2.51-2.19-5.99-3.04-10.05-3.04
				c-5.66,0-10.21,2.99-10.21,8.28c0,4.76,2.94,7.06,8.02,7.49l4.33,0.37c2.62,0.21,3.63,1.39,3.63,3.21c0,2.57-2.62,3.75-5.93,3.75
				c-2.67,0-5.61-0.59-7.8-2.84l-3.58,3.58c3.21,3.15,6.95,3.9,11.38,3.9C371.05,552.66,375.86,549.72,375.86,544.06 M341.44,542.56
				c0,1.92-0.37,3.21-1.18,4.01c-1.44,1.39-2.99,1.55-5.08,1.55c-3.42,0-4.97-1.4-4.97-3.85s1.66-3.9,4.87-3.9h6.36V542.56z
				 M346.89,552.34v-18.11c0-6.15-3.74-9.29-11.17-9.29c-4.49,0-7.16,0.91-9.72,3.89l3.57,3.37c1.5-1.92,2.94-2.62,5.93-2.62
				c4.22,0,5.93,1.66,5.93,5.08v1.93h-7.16c-6.2,0-9.35,3.25-9.35,7.8c0,2.3,0.75,4.39,2.14,5.83c1.65,1.65,3.89,2.45,7.26,2.45
				s5.24-0.8,7.22-2.77v2.45H346.89z M320.44,552.34v-4.64h-2.41c-2.19,0-2.94-1.07-2.94-3.16v-30.25h-5.45v30.57
				c0,4.01,2.24,7.48,7.42,7.48H320.44z M304.41,552.34l-13.63-23.14l12.35-14.91h-7.05l-15.55,19.13v-19.13h-5.77v38.04h5.77
				v-11.06l6.41-7.7l10.69,18.76H304.41z"/>
		</g>
		<g style="clip-path:url(#SVGID_00000177479445945929762370000003322148200260271778_);">
			<path class="st3" d="M721.62,407.65c0,3.36-2.35,5.77-5.66,5.77c-3.32,0-5.61-2.41-5.61-5.77c0-3.32,2.3-5.83,5.61-5.83
				C719.27,401.83,721.62,404.33,721.62,407.65 M722.21,424.49c0,3.53-2.73,6.31-6.26,6.31c-3.53,0-6.26-2.78-6.26-6.31
				c0-3.53,2.72-6.36,6.26-6.36C719.48,418.12,722.21,420.96,722.21,424.49 M727.71,424.59c0-4.55-2.56-7.32-5.23-8.92
				c2.46-1.5,4.59-4.17,4.59-8.18c0-6.36-4.91-10.53-11.11-10.53c-6.2,0-11.06,4.16-11.06,10.53c0,4.01,2.13,6.68,4.59,8.18
				c-2.67,1.6-5.23,4.38-5.23,8.92c0,6.9,5.18,11.06,11.7,11.06C722.48,435.65,727.71,431.49,727.71,424.59 M679.56,419.57h-12.18
				c0.05-1.66,0.16-2.46,0.69-3.69c0.86-2.04,2.84-3.43,5.4-3.43c2.57,0,4.49,1.39,5.34,3.43
				C679.35,417.11,679.5,417.91,679.56,419.57 M684.95,423.36v-2.4c0-7.7-4.22-13.03-11.49-13.03c-6.95,0-11.49,5.07-11.49,13.83
				c0,10.32,5.39,13.89,12.18,13.89c4.76,0,7.37-1.44,10.15-4.21l-3.47-3.26c-1.92,1.92-3.53,2.78-6.58,2.78
				c-4.43,0-6.89-2.94-6.89-7.59H684.95z M656.21,427.05c0-4.81-2.99-7.22-8.07-7.64l-4.28-0.37c-2.89-0.27-3.74-1.5-3.74-3.1
				c0-2.03,1.66-3.48,4.92-3.48c2.57,0,4.97,0.53,6.68,1.98l3.42-3.48c-2.51-2.19-5.99-3.04-10.05-3.04
				c-5.66,0-10.21,2.99-10.21,8.27c0,4.76,2.94,7.06,8.02,7.49l4.33,0.37c2.62,0.21,3.63,1.39,3.63,3.21c0,2.57-2.62,3.75-5.93,3.75
				c-2.67,0-5.61-0.59-7.8-2.84l-3.58,3.58c3.21,3.15,6.95,3.9,11.38,3.9C651.4,435.65,656.21,432.72,656.21,427.05 M629.32,427.05
				c0-4.81-2.99-7.22-8.07-7.64l-4.28-0.37c-2.89-0.27-3.74-1.5-3.74-3.1c0-2.03,1.65-3.48,4.92-3.48c2.57,0,4.97,0.53,6.68,1.98
				l3.42-3.48c-2.51-2.19-5.99-3.04-10.05-3.04c-5.66,0-10.2,2.99-10.2,8.27c0,4.76,2.94,7.06,8.02,7.49l4.33,0.37
				c2.62,0.21,3.63,1.39,3.63,3.21c0,2.57-2.62,3.75-5.93,3.75c-2.67,0-5.61-0.59-7.8-2.84l-3.58,3.58c3.21,3.15,6.95,3.9,11.39,3.9
				C624.51,435.65,629.32,432.72,629.32,427.05 M594.91,425.55c0,1.92-0.37,3.21-1.18,4.01c-1.45,1.39-2.99,1.55-5.08,1.55
				c-3.42,0-4.97-1.4-4.97-3.85c0-2.46,1.66-3.9,4.87-3.9h6.36V425.55z M600.36,435.33v-18.11c0-6.15-3.74-9.29-11.17-9.29
				c-4.49,0-7.16,0.91-9.73,3.89l3.58,3.37c1.5-1.92,2.94-2.62,5.93-2.62c4.22,0,5.93,1.66,5.93,5.08v1.93h-7.17
				c-6.2,0-9.34,3.25-9.34,7.8c0,2.3,0.74,4.39,2.13,5.83c1.65,1.65,3.9,2.45,7.27,2.45s5.24-0.8,7.22-2.77v2.45H600.36z
				 M573.9,435.33v-4.64h-2.4c-2.19,0-2.94-1.07-2.94-3.16v-30.25h-5.44v30.57c0,4.01,2.24,7.48,7.42,7.48H573.9z M555.68,423.95
				h-5.82c-0.91,3.85-3.53,6.53-7.75,6.53c-2.24,0-4.28-0.86-5.61-2.3c-1.87-2.03-2.3-4.22-2.3-11.86c0-7.64,0.43-9.84,2.3-11.87
				c1.33-1.44,3.36-2.3,5.61-2.3c4.22,0,6.79,2.68,7.7,6.53h5.88c-1.33-7.59-6.57-11.7-13.57-11.7c-3.95,0-7.37,1.44-9.99,4.06
				c-3.74,3.74-3.68,7.97-3.68,15.29c0,7.32-0.05,11.54,3.68,15.28c2.62,2.62,6.04,4.06,9.99,4.06
				C549,435.65,554.4,431.54,555.68,423.95 M511.12,393.33h-5.24l-15.23,45.95h5.24L511.12,393.33z M468.16,407.65
				c0,3.36-2.36,5.77-5.67,5.77c-3.31,0-5.61-2.41-5.61-5.77c0-3.32,2.3-5.83,5.61-5.83C465.8,401.83,468.16,404.33,468.16,407.65
				 M468.74,424.49c0,3.53-2.73,6.31-6.26,6.31s-6.26-2.78-6.26-6.31c0-3.53,2.73-6.36,6.26-6.36S468.74,420.96,468.74,424.49
				 M474.24,424.59c0-4.55-2.56-7.32-5.23-8.92c2.45-1.5,4.59-4.17,4.59-8.18c0-6.36-4.91-10.53-11.12-10.53
				c-6.2,0-11.06,4.16-11.06,10.53c0,4.01,2.14,6.68,4.59,8.18c-2.67,1.6-5.23,4.38-5.23,8.92c0,6.9,5.18,11.06,11.7,11.06
				C469.01,435.65,474.24,431.49,474.24,424.59 M426.09,419.57H413.9c0.06-1.66,0.16-2.46,0.7-3.69c0.86-2.04,2.83-3.43,5.39-3.43
				c2.57,0,4.49,1.39,5.34,3.43C425.88,417.11,426.04,417.91,426.09,419.57 M431.49,423.36v-2.4c0-7.7-4.22-13.03-11.49-13.03
				c-6.95,0-11.48,5.07-11.48,13.83c0,10.32,5.39,13.89,12.18,13.89c4.75,0,7.37-1.44,10.15-4.21l-3.48-3.26
				c-1.92,1.92-3.53,2.78-6.57,2.78c-4.44,0-6.9-2.94-6.9-7.59H431.49z M402.74,427.05c0-4.81-2.99-7.22-8.07-7.64l-4.28-0.37
				c-2.89-0.27-3.74-1.5-3.74-3.1c0-2.03,1.65-3.48,4.92-3.48c2.57,0,4.97,0.53,6.68,1.98l3.42-3.48
				c-2.51-2.19-5.99-3.04-10.05-3.04c-5.66,0-10.2,2.99-10.2,8.27c0,4.76,2.94,7.06,8.02,7.49l4.33,0.37
				c2.62,0.21,3.63,1.39,3.63,3.21c0,2.57-2.62,3.75-5.93,3.75c-2.67,0-5.61-0.59-7.8-2.84l-3.58,3.58c3.21,3.15,6.95,3.9,11.39,3.9
				C397.93,435.65,402.74,432.72,402.74,427.05 M375.86,427.05c0-4.81-2.99-7.22-8.07-7.64l-4.28-0.37c-2.89-0.27-3.74-1.5-3.74-3.1
				c0-2.03,1.66-3.48,4.92-3.48c2.57,0,4.97,0.53,6.68,1.98l3.42-3.48c-2.51-2.19-5.99-3.04-10.05-3.04
				c-5.66,0-10.21,2.99-10.21,8.27c0,4.76,2.94,7.06,8.02,7.49l4.33,0.37c2.62,0.21,3.63,1.39,3.63,3.21c0,2.57-2.62,3.75-5.93,3.75
				c-2.67,0-5.61-0.59-7.8-2.84l-3.58,3.58c3.21,3.15,6.95,3.9,11.38,3.9C371.05,435.65,375.86,432.72,375.86,427.05 M341.44,425.55
				c0,1.92-0.37,3.21-1.18,4.01c-1.44,1.39-2.99,1.55-5.08,1.55c-3.42,0-4.97-1.4-4.97-3.85c0-2.46,1.66-3.9,4.87-3.9h6.36V425.55z
				 M346.89,435.33v-18.11c0-6.15-3.74-9.29-11.17-9.29c-4.49,0-7.16,0.91-9.72,3.89l3.57,3.37c1.5-1.92,2.94-2.62,5.93-2.62
				c4.22,0,5.93,1.66,5.93,5.08v1.93h-7.16c-6.2,0-9.35,3.25-9.35,7.8c0,2.3,0.75,4.39,2.14,5.83c1.65,1.65,3.89,2.45,7.26,2.45
				s5.24-0.8,7.22-2.77v2.45H346.89z M320.44,435.33v-4.64h-2.41c-2.19,0-2.94-1.07-2.94-3.16v-30.25h-5.45v30.57
				c0,4.01,2.24,7.48,7.42,7.48H320.44z M304.41,435.33l-13.63-23.14l12.35-14.91h-7.05l-15.55,19.13v-19.13h-5.77v38.04h5.77
				v-11.06l6.41-7.7l10.69,18.76H304.41z"/>
		</g>
		<g style="clip-path:url(#SVGID_00000177479445945929762370000003322148200260271778_);">
			<path class="st3" d="M721.78,291.44c0,4.12-2.41,6.58-5.83,6.58c-3.64,0-5.78-2.84-5.78-6.58c0-4.06,2.35-6.63,5.78-6.63
				C719.38,284.82,721.78,287.38,721.78,291.44 M727.23,291.34c0-7.05-4.7-11.38-11.27-11.38s-11.22,4.59-11.22,11.59
				c0,6.68,4.43,11,9.93,11c1.18,0,2.41-0.16,3.43-0.59l-8.18,16.35h5.83l8.66-17.64C726.05,297.38,727.23,294.44,727.23,291.34
				 M679.56,302.57h-12.18c0.05-1.66,0.16-2.46,0.69-3.69c0.86-2.04,2.84-3.43,5.4-3.43c2.57,0,4.49,1.39,5.34,3.43
				C679.35,300.1,679.5,300.91,679.56,302.57 M684.95,306.35v-2.4c0-7.7-4.22-13.03-11.49-13.03c-6.95,0-11.49,5.07-11.49,13.83
				c0,10.32,5.39,13.89,12.18,13.89c4.76,0,7.37-1.44,10.15-4.21l-3.47-3.26c-1.92,1.92-3.53,2.78-6.58,2.78
				c-4.43,0-6.89-2.94-6.89-7.59H684.95z M656.21,310.04c0-4.81-2.99-7.22-8.07-7.64l-4.28-0.37c-2.89-0.27-3.74-1.5-3.74-3.1
				c0-2.03,1.66-3.48,4.92-3.48c2.57,0,4.97,0.53,6.68,1.98l3.42-3.48c-2.51-2.19-5.99-3.04-10.05-3.04
				c-5.66,0-10.21,2.99-10.21,8.27c0,4.76,2.94,7.06,8.02,7.49l4.33,0.37c2.62,0.21,3.63,1.39,3.63,3.21c0,2.57-2.62,3.75-5.93,3.75
				c-2.67,0-5.61-0.59-7.8-2.84l-3.58,3.58c3.21,3.15,6.95,3.9,11.38,3.9C651.4,318.64,656.21,315.71,656.21,310.04 M629.32,310.04
				c0-4.81-2.99-7.22-8.07-7.64l-4.28-0.37c-2.89-0.27-3.74-1.5-3.74-3.1c0-2.03,1.65-3.48,4.92-3.48c2.57,0,4.97,0.53,6.68,1.98
				l3.42-3.48c-2.51-2.19-5.99-3.04-10.05-3.04c-5.66,0-10.2,2.99-10.2,8.27c0,4.76,2.94,7.06,8.02,7.49l4.33,0.37
				c2.62,0.21,3.63,1.39,3.63,3.21c0,2.57-2.62,3.75-5.93,3.75c-2.67,0-5.61-0.59-7.8-2.84l-3.58,3.58c3.21,3.15,6.95,3.9,11.39,3.9
				C624.51,318.64,629.32,315.71,629.32,310.04 M594.91,308.55c0,1.92-0.37,3.21-1.18,4.01c-1.45,1.39-2.99,1.55-5.08,1.55
				c-3.42,0-4.97-1.4-4.97-3.85c0-2.46,1.66-3.9,4.87-3.9h6.36V308.55z M600.36,318.32v-18.11c0-6.15-3.74-9.29-11.17-9.29
				c-4.49,0-7.16,0.91-9.73,3.89l3.58,3.37c1.5-1.92,2.94-2.62,5.93-2.62c4.22,0,5.93,1.66,5.93,5.08v1.93h-7.17
				c-6.2,0-9.34,3.25-9.34,7.8c0,2.3,0.74,4.39,2.13,5.83c1.65,1.65,3.9,2.45,7.27,2.45s5.24-0.8,7.22-2.77v2.45H600.36z
				 M573.9,318.32v-4.64h-2.4c-2.19,0-2.94-1.07-2.94-3.16v-30.25h-5.44v30.57c0,4.01,2.24,7.48,7.42,7.48H573.9z M555.68,306.94
				h-5.82c-0.91,3.85-3.53,6.53-7.75,6.53c-2.24,0-4.28-0.86-5.61-2.3c-1.87-2.03-2.3-4.22-2.3-11.86c0-7.64,0.43-9.84,2.3-11.87
				c1.33-1.44,3.36-2.3,5.61-2.3c4.22,0,6.79,2.68,7.7,6.53h5.88c-1.33-7.59-6.57-11.7-13.57-11.7c-3.95,0-7.37,1.44-9.99,4.06
				c-3.74,3.74-3.68,7.97-3.68,15.29c0,7.32-0.05,11.54,3.68,15.28c2.62,2.62,6.04,4.06,9.99,4.06
				C549,318.64,554.4,314.53,555.68,306.94 M511.12,276.32h-5.24l-15.23,45.95h5.24L511.12,276.32z M468.31,291.44
				c0,4.12-2.41,6.58-5.83,6.58c-3.63,0-5.78-2.84-5.78-6.58c0-4.06,2.36-6.63,5.78-6.63C465.91,284.82,468.31,287.38,468.31,291.44
				 M473.76,291.34c0-7.05-4.7-11.38-11.27-11.38c-6.58,0-11.22,4.59-11.22,11.59c0,6.68,4.43,11,9.93,11
				c1.18,0,2.41-0.16,3.42-0.59l-8.18,16.35h5.83l8.66-17.64C472.58,297.38,473.76,294.44,473.76,291.34 M426.09,302.57H413.9
				c0.06-1.66,0.16-2.46,0.7-3.69c0.86-2.04,2.83-3.43,5.39-3.43c2.57,0,4.49,1.39,5.34,3.43
				C425.88,300.1,426.04,300.91,426.09,302.57 M431.49,306.35v-2.4c0-7.7-4.22-13.03-11.49-13.03c-6.95,0-11.48,5.07-11.48,13.83
				c0,10.32,5.39,13.89,12.18,13.89c4.75,0,7.37-1.44,10.15-4.21l-3.48-3.26c-1.92,1.92-3.53,2.78-6.57,2.78
				c-4.44,0-6.9-2.94-6.9-7.59H431.49z M402.74,310.04c0-4.81-2.99-7.22-8.07-7.64l-4.28-0.37c-2.89-0.27-3.74-1.5-3.74-3.1
				c0-2.03,1.65-3.48,4.92-3.48c2.57,0,4.97,0.53,6.68,1.98l3.42-3.48c-2.51-2.19-5.99-3.04-10.05-3.04c-5.66,0-10.2,2.99-10.2,8.27
				c0,4.76,2.94,7.06,8.02,7.49l4.33,0.37c2.62,0.21,3.63,1.39,3.63,3.21c0,2.57-2.62,3.75-5.93,3.75c-2.67,0-5.61-0.59-7.8-2.84
				l-3.58,3.58c3.21,3.15,6.95,3.9,11.39,3.9C397.93,318.64,402.74,315.71,402.74,310.04 M375.86,310.04c0-4.81-2.99-7.22-8.07-7.64
				l-4.28-0.37c-2.89-0.27-3.74-1.5-3.74-3.1c0-2.03,1.66-3.48,4.92-3.48c2.57,0,4.97,0.53,6.68,1.98l3.42-3.48
				c-2.51-2.19-5.99-3.04-10.05-3.04c-5.66,0-10.21,2.99-10.21,8.27c0,4.76,2.94,7.06,8.02,7.49l4.33,0.37
				c2.62,0.21,3.63,1.39,3.63,3.21c0,2.57-2.62,3.75-5.93,3.75c-2.67,0-5.61-0.59-7.8-2.84l-3.58,3.58c3.21,3.15,6.95,3.9,11.38,3.9
				C371.05,318.64,375.86,315.71,375.86,310.04 M341.44,308.55c0,1.92-0.37,3.21-1.18,4.01c-1.44,1.39-2.99,1.55-5.08,1.55
				c-3.42,0-4.97-1.4-4.97-3.85c0-2.46,1.66-3.9,4.87-3.9h6.36V308.55z M346.89,318.32v-18.11c0-6.15-3.74-9.29-11.17-9.29
				c-4.49,0-7.16,0.91-9.72,3.89l3.57,3.37c1.5-1.92,2.94-2.62,5.93-2.62c4.22,0,5.93,1.66,5.93,5.08v1.93h-7.16
				c-6.2,0-9.35,3.25-9.35,7.8c0,2.3,0.75,4.39,2.14,5.83c1.65,1.65,3.89,2.45,7.26,2.45s5.24-0.8,7.22-2.77v2.45H346.89z
				 M320.44,318.32v-4.64h-2.41c-2.19,0-2.94-1.07-2.94-3.16v-30.25h-5.45v30.57c0,4.01,2.24,7.48,7.42,7.48H320.44z M304.41,318.32
				l-13.63-23.14l12.35-14.91h-7.05l-15.55,19.13v-19.13h-5.77v38.04h5.77v-11.06l6.41-7.7l10.69,18.76H304.41z"/>
		</g>
		<g style="clip-path:url(#SVGID_00000177479445945929762370000003322148200260271778_);">
			<path class="st3" d="M750.53,190.57c0,3.69-2.09,6.2-5.56,6.2c-3.47,0-5.51-2.51-5.51-6.2v-16.57c0-3.69,2.04-6.2,5.51-6.2
				c3.48,0,5.56,2.51,5.56,6.2V190.57z M755.98,190.74v-16.89c0-6.78-4.97-10.9-11.01-10.9s-10.95,4.11-10.95,10.9v16.89
				c0,6.79,4.91,10.9,10.95,10.9S755.98,197.53,755.98,190.74 M720.71,201.31v-38.04h-5.45l-7.43,6.41v6.04l7.43-6.51v32.11H720.71z
				 M679.56,185.56h-12.18c0.06-1.66,0.16-2.46,0.7-3.69c0.86-2.04,2.83-3.43,5.39-3.43c2.57,0,4.49,1.39,5.34,3.43
				C679.34,183.09,679.51,183.9,679.56,185.56 M684.96,189.34v-2.4c0-7.7-4.22-13.03-11.49-13.03c-6.95,0-11.48,5.07-11.48,13.83
				c0,10.32,5.39,13.89,12.18,13.89c4.75,0,7.37-1.44,10.15-4.21l-3.48-3.26c-1.92,1.92-3.53,2.78-6.57,2.78
				c-4.44,0-6.9-2.94-6.9-7.59H684.96z M656.21,193.03c0-4.81-2.99-7.22-8.07-7.64l-4.28-0.37c-2.89-0.27-3.74-1.5-3.74-3.1
				c0-2.03,1.65-3.48,4.92-3.48c2.57,0,4.97,0.53,6.68,1.98l3.42-3.48c-2.51-2.19-5.99-3.04-10.05-3.04c-5.66,0-10.2,2.99-10.2,8.27
				c0,4.76,2.94,7.06,8.02,7.49l4.33,0.37c2.62,0.21,3.63,1.39,3.63,3.21c0,2.57-2.62,3.75-5.93,3.75c-2.67,0-5.61-0.59-7.8-2.84
				l-3.58,3.58c3.21,3.15,6.95,3.9,11.39,3.9C651.4,201.63,656.21,198.7,656.21,193.03 M629.33,193.03c0-4.81-2.99-7.22-8.07-7.64
				l-4.28-0.37c-2.89-0.27-3.74-1.5-3.74-3.1c0-2.03,1.66-3.48,4.92-3.48c2.57,0,4.97,0.53,6.68,1.98l3.42-3.48
				c-2.51-2.19-5.99-3.04-10.05-3.04c-5.66,0-10.21,2.99-10.21,8.27c0,4.76,2.94,7.06,8.02,7.49l4.33,0.37
				c2.62,0.21,3.63,1.39,3.63,3.21c0,2.57-2.62,3.75-5.93,3.75c-2.67,0-5.61-0.59-7.8-2.84l-3.58,3.58c3.21,3.15,6.95,3.9,11.38,3.9
				C624.52,201.63,629.33,198.7,629.33,193.03 M594.91,191.54c0,1.92-0.37,3.21-1.18,4.01c-1.44,1.39-2.99,1.55-5.08,1.55
				c-3.42,0-4.97-1.4-4.97-3.85c0-2.46,1.66-3.9,4.87-3.9h6.36V191.54z M600.36,201.31V183.2c0-6.15-3.74-9.29-11.17-9.29
				c-4.49,0-7.16,0.91-9.72,3.89l3.57,3.37c1.5-1.92,2.94-2.62,5.93-2.62c4.22,0,5.93,1.66,5.93,5.08v1.93h-7.16
				c-6.2,0-9.35,3.25-9.35,7.8c0,2.3,0.75,4.39,2.13,5.83c1.66,1.65,3.9,2.45,7.27,2.45c3.37,0,5.24-0.8,7.22-2.77v2.45H600.36z
				 M573.91,201.31v-4.64h-2.41c-2.19,0-2.94-1.07-2.94-3.16v-30.25h-5.45v30.57c0,4.01,2.24,7.48,7.42,7.48H573.91z M555.68,189.93
				h-5.82c-0.91,3.85-3.53,6.53-7.75,6.53c-2.24,0-4.28-0.86-5.61-2.3c-1.87-2.03-2.3-4.22-2.3-11.86c0-7.64,0.43-9.84,2.3-11.87
				c1.33-1.44,3.36-2.3,5.61-2.3c4.22,0,6.79,2.68,7.7,6.53h5.88c-1.33-7.59-6.57-11.7-13.57-11.7c-3.95,0-7.37,1.44-9.99,4.06
				c-3.74,3.74-3.68,7.97-3.68,15.29c0,7.32-0.06,11.54,3.68,15.28c2.62,2.62,6.04,4.06,9.99,4.06
				C549,201.63,554.4,197.52,555.68,189.93 M511.11,159.31h-5.24l-15.23,45.95h5.24L511.11,159.31z M468.05,190.57
				c0,3.69-2.09,6.2-5.56,6.2c-3.47,0-5.51-2.51-5.51-6.2v-16.57c0-3.69,2.04-6.2,5.51-6.2c3.48,0,5.56,2.51,5.56,6.2V190.57z
				 M473.49,190.74v-16.89c0-6.78-4.97-10.9-11.01-10.9c-6.04,0-10.95,4.11-10.95,10.9v16.89c0,6.79,4.91,10.9,10.95,10.9
				C468.52,201.63,473.49,197.53,473.49,190.74 M438.22,201.31v-38.04h-5.45l-7.43,6.41v6.04l7.43-6.51v32.11H438.22z
				 M397.07,185.56h-12.18c0.06-1.66,0.16-2.46,0.7-3.69c0.86-2.04,2.83-3.43,5.39-3.43c2.57,0,4.49,1.39,5.34,3.43
				C396.86,183.09,397.02,183.9,397.07,185.56 M402.47,189.34v-2.4c0-7.7-4.22-13.03-11.49-13.03c-6.95,0-11.48,5.07-11.48,13.83
				c0,10.32,5.39,13.89,12.18,13.89c4.75,0,7.37-1.44,10.15-4.21l-3.48-3.26c-1.92,1.92-3.53,2.78-6.57,2.78
				c-4.44,0-6.9-2.94-6.9-7.59H402.47z M373.72,193.03c0-4.81-2.99-7.22-8.07-7.64l-4.28-0.37c-2.89-0.27-3.74-1.5-3.74-3.1
				c0-2.03,1.65-3.48,4.92-3.48c2.57,0,4.97,0.53,6.68,1.98l3.42-3.48c-2.51-2.19-5.99-3.04-10.05-3.04c-5.66,0-10.2,2.99-10.2,8.27
				c0,4.76,2.94,7.06,8.02,7.49l4.33,0.37c2.62,0.21,3.63,1.39,3.63,3.21c0,2.57-2.62,3.75-5.93,3.75c-2.67,0-5.61-0.59-7.8-2.84
				l-3.58,3.58c3.21,3.15,6.95,3.9,11.39,3.9C368.91,201.63,373.72,198.7,373.72,193.03 M346.84,193.03c0-4.81-2.99-7.22-8.07-7.64
				l-4.28-0.37c-2.89-0.27-3.74-1.5-3.74-3.1c0-2.03,1.66-3.48,4.92-3.48c2.57,0,4.97,0.53,6.68,1.98l3.42-3.48
				c-2.51-2.19-5.99-3.04-10.05-3.04c-5.66,0-10.21,2.99-10.21,8.27c0,4.76,2.94,7.06,8.02,7.49l4.33,0.37
				c2.62,0.21,3.63,1.39,3.63,3.21c0,2.57-2.62,3.75-5.93,3.75c-2.67,0-5.61-0.59-7.8-2.84l-3.58,3.58c3.21,3.15,6.95,3.9,11.38,3.9
				C342.03,201.63,346.84,198.7,346.84,193.03 M312.43,191.54c0,1.92-0.37,3.21-1.18,4.01c-1.44,1.39-2.99,1.55-5.08,1.55
				c-3.42,0-4.97-1.4-4.97-3.85c0-2.46,1.66-3.9,4.87-3.9h6.36V191.54z M317.87,201.31V183.2c0-6.15-3.74-9.29-11.17-9.29
				c-4.49,0-7.16,0.91-9.72,3.89l3.57,3.37c1.5-1.92,2.94-2.62,5.93-2.62c4.22,0,5.93,1.66,5.93,5.08v1.93h-7.16
				c-6.2,0-9.35,3.25-9.35,7.8c0,2.3,0.75,4.39,2.14,5.83c1.65,1.65,3.89,2.45,7.26,2.45s5.24-0.8,7.22-2.77v2.45H317.87z
				 M291.42,201.31v-4.64h-2.41c-2.19,0-2.94-1.07-2.94-3.16v-30.25h-5.45v30.57c0,4.01,2.24,7.48,7.42,7.48H291.42z M275.39,201.31
				l-13.63-23.14l12.35-14.91h-7.05L251.5,182.4v-19.13h-5.77v38.04h5.77v-11.06l6.41-7.7l10.69,18.76H275.39z"/>
		</g>
		<g style="clip-path:url(#SVGID_00000177479445945929762370000003322148200260271778_);">
			<path class="st3" d="M727.34,773.64c0-3.58-0.43-7.27-3.31-10.15c-1.55-1.55-3.84-2.46-6.84-2.46c-2.78,0-5.02,0.86-6.31,2.19
				v-10.05h15.6v-4.85h-20.52v20.79h4.96c0.59-1.87,2.3-3.42,5.4-3.42c4.39,0,5.56,3.42,5.56,7.97c0,2.57-0.21,5.07-1.82,6.68
				c-0.97,0.96-2.36,1.5-3.96,1.5c-3.42,0-5.13-1.92-5.56-5.29h-5.45c0.21,2.73,0.86,5.24,2.88,7.27c1.65,1.65,4.49,2.93,8.12,2.93
				c3.69,0,6.31-1.28,8.02-2.99C726.91,780.97,727.34,777.7,727.34,773.64 M679.56,770.6h-12.18c0.05-1.66,0.16-2.46,0.69-3.69
				c0.86-2.04,2.84-3.43,5.4-3.43c2.57,0,4.49,1.39,5.34,3.43C679.35,768.14,679.5,768.94,679.56,770.6 M684.95,774.39v-2.4
				c0-7.7-4.22-13.03-11.49-13.03c-6.95,0-11.49,5.07-11.49,13.83c0,10.32,5.39,13.89,12.18,13.89c4.76,0,7.37-1.44,10.15-4.21
				l-3.47-3.26c-1.92,1.92-3.53,2.78-6.58,2.78c-4.43,0-6.89-2.94-6.89-7.59H684.95z M656.21,778.08c0-4.81-2.99-7.22-8.07-7.64
				l-4.28-0.37c-2.89-0.27-3.74-1.5-3.74-3.1c0-2.03,1.66-3.48,4.92-3.48c2.57,0,4.97,0.53,6.68,1.98l3.42-3.48
				c-2.51-2.19-5.99-3.04-10.05-3.04c-5.66,0-10.21,2.99-10.21,8.27c0,4.76,2.94,7.06,8.02,7.49l4.33,0.37
				c2.62,0.21,3.63,1.39,3.63,3.21c0,2.57-2.62,3.75-5.93,3.75c-2.67,0-5.61-0.59-7.8-2.84l-3.58,3.58
				c3.21,3.14,6.95,3.89,11.38,3.89C651.4,786.68,656.21,783.74,656.21,778.08 M629.32,778.08c0-4.81-2.99-7.22-8.07-7.64
				l-4.28-0.37c-2.89-0.27-3.74-1.5-3.74-3.1c0-2.03,1.65-3.48,4.92-3.48c2.57,0,4.97,0.53,6.68,1.98l3.42-3.48
				c-2.51-2.19-5.99-3.04-10.05-3.04c-5.66,0-10.2,2.99-10.2,8.27c0,4.76,2.94,7.06,8.02,7.49l4.33,0.37
				c2.62,0.21,3.63,1.39,3.63,3.21c0,2.57-2.62,3.75-5.93,3.75c-2.67,0-5.61-0.59-7.8-2.84l-3.58,3.58
				c3.21,3.14,6.95,3.89,11.39,3.89C624.51,786.68,629.32,783.74,629.32,778.08 M594.91,776.58c0,1.92-0.37,3.21-1.18,4.01
				c-1.45,1.39-2.99,1.55-5.08,1.55c-3.42,0-4.97-1.4-4.97-3.85s1.66-3.9,4.87-3.9h6.36V776.58z M600.36,786.36v-18.11
				c0-6.15-3.74-9.29-11.17-9.29c-4.49,0-7.16,0.91-9.73,3.89l3.58,3.37c1.5-1.92,2.94-2.62,5.93-2.62c4.22,0,5.93,1.66,5.93,5.08
				v1.93h-7.17c-6.2,0-9.34,3.25-9.34,7.8c0,2.3,0.74,4.39,2.13,5.83c1.65,1.65,3.9,2.45,7.27,2.45s5.24-0.8,7.22-2.77v2.45H600.36z
				 M573.9,786.36v-4.64h-2.4c-2.19,0-2.94-1.07-2.94-3.16v-30.25h-5.44v30.57c0,4.01,2.24,7.48,7.42,7.48H573.9z M555.68,774.98
				h-5.82c-0.91,3.85-3.53,6.53-7.75,6.53c-2.24,0-4.28-0.86-5.61-2.3c-1.87-2.03-2.3-4.22-2.3-11.86c0-7.64,0.43-9.84,2.3-11.87
				c1.33-1.44,3.36-2.3,5.61-2.3c4.22,0,6.79,2.68,7.7,6.53h5.88c-1.33-7.59-6.57-11.7-13.57-11.7c-3.95,0-7.37,1.44-9.99,4.06
				c-3.74,3.74-3.68,7.97-3.68,15.29c0,7.32-0.05,11.54,3.68,15.28c2.62,2.62,6.04,4.06,9.99,4.06
				C549,786.68,554.4,782.57,555.68,774.98 M511.12,744.36h-5.24l-15.23,45.95h5.24L511.12,744.36z M473.87,773.64
				c0-3.58-0.43-7.27-3.31-10.15c-1.55-1.55-3.85-2.46-6.84-2.46c-2.78,0-5.03,0.86-6.31,2.19v-10.05h15.6v-4.85h-20.52v20.79h4.96
				c0.59-1.87,2.3-3.42,5.41-3.42c4.38,0,5.56,3.42,5.56,7.97c0,2.57-0.21,5.07-1.82,6.68c-0.96,0.96-2.35,1.5-3.95,1.5
				c-3.43,0-5.14-1.92-5.56-5.29h-5.45c0.21,2.73,0.86,5.24,2.89,7.27c1.65,1.65,4.48,2.93,8.12,2.93c3.68,0,6.31-1.28,8.02-2.99
				C473.44,780.97,473.87,777.7,473.87,773.64 M426.09,770.6H413.9c0.06-1.66,0.16-2.46,0.7-3.69c0.86-2.04,2.83-3.43,5.39-3.43
				c2.57,0,4.49,1.39,5.34,3.43C425.88,768.14,426.04,768.94,426.09,770.6 M431.49,774.39v-2.4c0-7.7-4.22-13.03-11.49-13.03
				c-6.95,0-11.48,5.07-11.48,13.83c0,10.32,5.39,13.89,12.18,13.89c4.75,0,7.37-1.44,10.15-4.21l-3.48-3.26
				c-1.92,1.92-3.53,2.78-6.57,2.78c-4.44,0-6.9-2.94-6.9-7.59H431.49z M402.74,778.08c0-4.81-2.99-7.22-8.07-7.64l-4.28-0.37
				c-2.89-0.27-3.74-1.5-3.74-3.1c0-2.03,1.65-3.48,4.92-3.48c2.57,0,4.97,0.53,6.68,1.98l3.42-3.48
				c-2.51-2.19-5.99-3.04-10.05-3.04c-5.66,0-10.2,2.99-10.2,8.27c0,4.76,2.94,7.06,8.02,7.49l4.33,0.37
				c2.62,0.21,3.63,1.39,3.63,3.21c0,2.57-2.62,3.75-5.93,3.75c-2.67,0-5.61-0.59-7.8-2.84l-3.58,3.58
				c3.21,3.14,6.95,3.89,11.39,3.89C397.93,786.68,402.74,783.74,402.74,778.08 M375.86,778.08c0-4.81-2.99-7.22-8.07-7.64
				l-4.28-0.37c-2.89-0.27-3.74-1.5-3.74-3.1c0-2.03,1.66-3.48,4.92-3.48c2.57,0,4.97,0.53,6.68,1.98l3.42-3.48
				c-2.51-2.19-5.99-3.04-10.05-3.04c-5.66,0-10.21,2.99-10.21,8.27c0,4.76,2.94,7.06,8.02,7.49l4.33,0.37
				c2.62,0.21,3.63,1.39,3.63,3.21c0,2.57-2.62,3.75-5.93,3.75c-2.67,0-5.61-0.59-7.8-2.84l-3.58,3.58
				c3.21,3.14,6.95,3.89,11.38,3.89C371.05,786.68,375.86,783.74,375.86,778.08 M341.44,776.58c0,1.92-0.37,3.21-1.18,4.01
				c-1.44,1.39-2.99,1.55-5.08,1.55c-3.42,0-4.97-1.4-4.97-3.85s1.66-3.9,4.87-3.9h6.36V776.58z M346.89,786.36v-18.11
				c0-6.15-3.74-9.29-11.17-9.29c-4.49,0-7.16,0.91-9.72,3.89l3.57,3.37c1.5-1.92,2.94-2.62,5.93-2.62c4.22,0,5.93,1.66,5.93,5.08
				v1.93h-7.16c-6.2,0-9.35,3.25-9.35,7.8c0,2.3,0.75,4.39,2.14,5.83c1.65,1.65,3.89,2.45,7.26,2.45s5.24-0.8,7.22-2.77v2.45H346.89
				z M320.44,786.36v-4.64h-2.41c-2.19,0-2.94-1.07-2.94-3.16v-30.25h-5.45v30.57c0,4.01,2.24,7.48,7.42,7.48H320.44z
				 M304.41,786.36l-13.63-23.14l12.35-14.91h-7.05l-15.55,19.13v-19.13h-5.77v38.04h5.77V775.3l6.41-7.7l10.69,18.76H304.41z"/>
		</g>
	</g>
	<g>
		<polygon class="st4" points="18.53,758.51 34.61,758.51 26.58,747.88 		"/>
	</g>
	<g>
		<polygon class="st4" points="18.53,779.67 34.61,779.67 26.58,769.03 		"/>
	</g>
	<g>
		<polygon class="st4" points="18.53,800.83 34.61,800.83 26.58,790.19 		"/>
	</g>
	<g>
		<polygon class="st4" points="18.53,737.35 34.61,737.35 26.58,726.72 		"/>
	</g>
	<g>
		<polygon class="st4" points="18.53,642.91 34.61,642.91 26.58,632.27 		"/>
	</g>
	<g>
		<polygon class="st4" points="18.53,664.07 34.61,664.07 26.58,653.43 		"/>
	</g>
	<g>
		<polygon class="st4" points="18.53,685.23 34.61,685.23 26.58,674.59 		"/>
	</g>
	<g>
		<polygon class="st4" points="18.53,621.75 34.61,621.75 26.58,611.11 		"/>
	</g>
	<g>
		<polygon class="st4" points="18.53,523.09 34.61,523.09 26.58,512.45 		"/>
	</g>
	<g>
		<polygon class="st4" points="18.53,544.25 34.61,544.25 26.58,533.61 		"/>
	</g>
	<g>
		<polygon class="st4" points="18.53,565.4 34.61,565.4 26.58,554.77 		"/>
	</g>
	<g>
		<polygon class="st4" points="18.53,501.93 34.61,501.93 26.58,491.29 		"/>
	</g>
	<g>
		<polygon class="st4" points="18.53,404.67 34.61,404.67 26.58,394.03 		"/>
	</g>
	<g>
		<polygon class="st4" points="18.53,425.83 34.61,425.83 26.58,415.19 		"/>
	</g>
	<g>
		<polygon class="st4" points="18.53,446.99 34.61,446.99 26.58,436.35 		"/>
	</g>
	<g>
		<polygon class="st4" points="18.53,383.51 34.61,383.51 26.58,372.87 		"/>
	</g>
	<g>
		<polygon class="st4" points="18.53,289.07 34.61,289.07 26.58,278.43 		"/>
	</g>
	<g>
		<polygon class="st4" points="18.53,310.23 34.61,310.23 26.58,299.59 		"/>
	</g>
	<g>
		<polygon class="st4" points="18.53,331.39 34.61,331.39 26.58,320.75 		"/>
	</g>
	<g>
		<polygon class="st4" points="18.53,267.91 34.61,267.91 26.58,257.27 		"/>
	</g>
	<g>
		<polygon class="st4" points="18.53,172.06 34.61,172.06 26.58,161.42 		"/>
	</g>
	<g>
		<polygon class="st4" points="18.53,193.22 34.61,193.22 26.58,182.58 		"/>
	</g>
	<g>
		<polygon class="st4" points="18.53,214.38 34.61,214.38 26.58,203.74 		"/>
	</g>
	<g>
		<polygon class="st4" points="18.53,150.9 34.61,150.9 26.58,140.26 		"/>
	</g>
</g>
</svg>
