<?xml version="1.0" encoding="utf-8"?>
<!-- Generator: Adobe Illustrator 26.2.1, SVG Export Plug-In . SVG Version: 6.00 Build 0)  -->
<svg version="1.1" id="Ebene_1" xmlns="http://www.w3.org/2000/svg" xmlns:xlink="http://www.w3.org/1999/xlink" x="0px" y="0px"
	 viewBox="0 0 1000 935.58" style="enable-background:new 0 0 1000 935.58;" xml:space="preserve">
<style type="text/css">
	.st0{fill:#A2B9E1;}
	.st1{fill:#6796CF;}
	.st2{clip-path:url(#SVGID_00000021097045945028946790000012669294843846918802_);}
	.st3{fill:#2B2961;}
	.st4{fill:#FFFFFF;}
	.st5{clip-path:url(#SVGID_00000116218786985577453290000005128033895586752435_);}
	.st6{clip-path:url(#SVGID_00000149349808980314079960000005734455719155973560_);}
	.st7{clip-path:url(#SVGID_00000072274881189515407830000011180802314765113729_);}
	.st8{clip-path:url(#SVGID_00000026132850855436060350000010727072263274344609_);}
	.st9{clip-path:url(#SVGID_00000072239820656252778390000010224199266724910240_);}
	.st10{opacity:0.52;clip-path:url(#SVGID_00000123423345798917556600000016934995828050660773_);}
	.st11{clip-path:url(#SVGID_00000034085927979155115810000017378548167440811143_);}
	.st12{clip-path:url(#SVGID_00000122686243317800655410000014613794393456810903_);}
	.st13{clip-path:url(#SVGID_00000158723423178458854590000018234554778047608477_);}
	.st14{clip-path:url(#SVGID_00000036251459215909768030000000390445575254172081_);}
	.st15{clip-path:url(#SVGID_00000119082212774211663340000009422938749400707761_);}
	.st16{clip-path:url(#SVGID_00000009586758380538965040000016286755875574339752_);}
	.st17{clip-path:url(#SVGID_00000088115564582763331110000009208794241670983610_);}
	.st18{clip-path:url(#SVGID_00000052816940212909400110000016813465351890479270_);}
	.st19{clip-path:url(#SVGID_00000147220014874017546340000012800322121086392244_);}
	.st20{clip-path:url(#SVGID_00000055671006801196661700000008107198149001759882_);}
	.st21{clip-path:url(#SVGID_00000164475903512337145760000001909571731928710816_);}
	.st22{clip-path:url(#SVGID_00000081608672337770763050000009315364616993484959_);}
	.st23{fill:none;stroke:#2B2961;stroke-width:0.374;stroke-linejoin:round;stroke-miterlimit:10;}
	.st24{fill:none;stroke:#2B2961;stroke-width:0.4;stroke-miterlimit:10;}
	.st25{clip-path:url(#SVGID_00000080923974712503761190000005127324659981690808_);}
	.st26{clip-path:url(#SVGID_00000159449339827164136320000008150214917694854279_);}
	.st27{clip-path:url(#SVGID_00000114061634018256763610000011363219152038711193_);}
	.st28{clip-path:url(#SVGID_00000182487689750389516980000001614057959559504543_);}
	.st29{clip-path:url(#SVGID_00000026148133398521554590000004785633587967026843_);}
	.st30{clip-path:url(#SVGID_00000096765380502132628610000016586038649019654330_);}
	.st31{clip-path:url(#SVGID_00000054952765049915110240000003887024945355959456_);}
	.st32{clip-path:url(#SVGID_00000178914015140627271620000009426670840357533628_);}
	.st33{clip-path:url(#SVGID_00000089549425411753252000000007914071541184193413_);}
	.st34{clip-path:url(#SVGID_00000031193869209728620570000007921378928996280979_);}
	.st35{clip-path:url(#SVGID_00000097467203808646815360000017719077538558441618_);}
	.st36{clip-path:url(#SVGID_00000027598036051396190000000001145671190614204078_);}
	.st37{clip-path:url(#SVGID_00000074443266891698635150000009348114918753308806_);}
	.st38{clip-path:url(#SVGID_00000139999585247184276900000016507057752524972985_);}
	.st39{clip-path:url(#SVGID_00000129895900971047909770000014928494568875496624_);}
	.st40{clip-path:url(#SVGID_00000056400770696639677160000005475219151474529677_);}
	.st41{clip-path:url(#SVGID_00000087392776661315700240000001677857686174375049_);}
	.st42{clip-path:url(#SVGID_00000150815428679421264290000010923822785985535389_);}
	.st43{clip-path:url(#SVGID_00000011712166835245243990000007306383225001563521_);}
	.st44{clip-path:url(#SVGID_00000034049816263655960180000013781300096454501762_);}
	.st45{clip-path:url(#SVGID_00000089562912996181429240000010743716683035448456_);}
	.st46{clip-path:url(#SVGID_00000080916567368271606290000013563564464651183523_);}
	.st47{clip-path:url(#SVGID_00000079447150894653671210000003949953193110519473_);}
	.st48{clip-path:url(#SVGID_00000075156926750563891460000009293828589213095862_);}
	.st49{clip-path:url(#SVGID_00000160895775001854353450000002396611824347892143_);}
	.st50{clip-path:url(#SVGID_00000097474167222838918130000014097594772719047588_);}
	.st51{clip-path:url(#SVGID_00000161606879539880353710000015622640975557712264_);}
	.st52{clip-path:url(#SVGID_00000163792598208966005680000013049203095342191524_);}
	.st53{clip-path:url(#SVGID_00000043432260301346065780000010528630269508849545_);}
	.st54{clip-path:url(#SVGID_00000155868738653816150760000015184648607188513933_);}
	.st55{clip-path:url(#SVGID_00000129921584021309517810000004491329956277578392_);}
	.st56{clip-path:url(#SVGID_00000000938134470741075870000012673341392550393269_);}
	.st57{clip-path:url(#SVGID_00000007390022992135340310000007731577348086255015_);}
	.st58{clip-path:url(#SVGID_00000174582683871441955330000000910333140259805338_);}
	.st59{clip-path:url(#SVGID_00000123403341319088481470000000070816288798602132_);}
	.st60{clip-path:url(#SVGID_00000112610790959252840630000011102089183027466895_);}
	.st61{clip-path:url(#SVGID_00000119807324562196767980000016256977249464460219_);}
	.st62{fill:#9AB4DE;}
	.st63{clip-path:url(#SVGID_00000114766352250088866970000014588741192599701931_);}
	.st64{clip-path:url(#SVGID_00000142854428183806411140000016654710691820213148_);}
	.st65{clip-path:url(#SVGID_00000040545879292157913100000013388920960505841320_);}
	.st66{fill:#B9C9E9;}
	.st67{clip-path:url(#SVGID_00000005966824206532241090000016282739980329634983_);}
	.st68{clip-path:url(#SVGID_00000069363548452720275240000005784748205640060290_);}
	.st69{clip-path:url(#SVGID_00000072259142898674299420000003790537440646798509_);}
	.st70{clip-path:url(#SVGID_00000055686507041994181930000014347088734495086768_);}
	.st71{clip-path:url(#SVGID_00000020376511229041270060000016478697461664900788_);}
	.st72{clip-path:url(#SVGID_00000096752002195532343340000013765585277851602343_);}
	.st73{clip-path:url(#SVGID_00000067946683015787023940000010956246610616268987_);}
	.st74{clip-path:url(#SVGID_00000026841573652922218450000010012034375619873721_);}
	.st75{clip-path:url(#SVGID_00000173854406781510766040000010120004407535246752_);}
	.st76{clip-path:url(#SVGID_00000103958223502927240410000011515768203314413476_);}
	.st77{clip-path:url(#SVGID_00000054956790748991487680000002468501912753427118_);}
	.st78{clip-path:url(#SVGID_00000087381811085792474810000008063115201302391688_);}
	.st79{clip-path:url(#SVGID_00000170270578789222357180000011357169379257882294_);}
	.st80{clip-path:url(#SVGID_00000146462387626304867780000000619808991397511332_);}
	.st81{clip-path:url(#SVGID_00000071534622067226656410000014642897746629728677_);}
	.st82{clip-path:url(#SVGID_00000082339383155908491860000006438504224994109325_);}
	.st83{clip-path:url(#SVGID_00000144327246478007335820000017273839889342550673_);}
	.st84{clip-path:url(#SVGID_00000090270541455471038380000006873899953193241523_);}
	.st85{clip-path:url(#SVGID_00000125575407310863977620000007956144843828486556_);}
	.st86{clip-path:url(#SVGID_00000066515126269686264610000017862456516149156014_);}
	.st87{clip-path:url(#SVGID_00000150093007886263009490000009838045490096625049_);}
	.st88{clip-path:url(#SVGID_00000058555739971184257740000003463518772519427456_);}
	.st89{clip-path:url(#SVGID_00000163763597550148719700000011962022887795820699_);}
	.st90{clip-path:url(#SVGID_00000032626851472573383420000003394787849472309401_);}
	.st91{clip-path:url(#SVGID_00000148652333866205670090000005337526814712185789_);}
	.st92{clip-path:url(#SVGID_00000067204390383296607890000005694877842867709834_);}
	.st93{clip-path:url(#SVGID_00000029759405547722837300000000766073644022453674_);}
	.st94{clip-path:url(#SVGID_00000166633486648528942680000000767735879061912510_);}
	.st95{clip-path:url(#SVGID_00000031171662127273149390000003050885931466372275_);}
	.st96{clip-path:url(#SVGID_00000072994358273567466880000014705823839330218153_);}
	.st97{clip-path:url(#SVGID_00000114767116798025049760000009785869414253584259_);}
	.st98{clip-path:url(#SVGID_00000183955317741532327420000017160597422080824197_);}
	.st99{clip-path:url(#SVGID_00000036229319950493882280000015501913682032288658_);}
	.st100{clip-path:url(#SVGID_00000105390653957910916050000014579476251989111196_);}
	.st101{clip-path:url(#SVGID_00000005973599798123522490000007749985389570067587_);}
	.st102{clip-path:url(#SVGID_00000104703427595618400640000008374277266974270090_);}
	.st103{clip-path:url(#SVGID_00000174583580172171450870000018263508516998780560_);}
	.st104{clip-path:url(#SVGID_00000061429231785456292080000015122265490597700277_);}
	.st105{clip-path:url(#SVGID_00000141418008402579391040000016819083880960602038_);}
	.st106{clip-path:url(#SVGID_00000134964632829005542250000000831411105878511248_);}
	.st107{clip-path:url(#SVGID_00000177478541924058319950000004715591817240899717_);}
	.st108{clip-path:url(#SVGID_00000032627048354636322010000003269918724624415149_);}
	.st109{clip-path:url(#SVGID_00000152945197760409602480000016549860496453514399_);}
	.st110{clip-path:url(#SVGID_00000112601938264453750120000004696831246711701950_);}
	.st111{clip-path:url(#SVGID_00000100347151952363967200000005735082735976766607_);}
	.st112{clip-path:url(#SVGID_00000047030803351156321530000000194826892447455617_);}
	.st113{clip-path:url(#SVGID_00000004546492531384983930000001819341125146935424_);}
	.st114{clip-path:url(#SVGID_00000025416388136489813870000016661022984647293878_);}
	.st115{clip-path:url(#SVGID_00000096057899408091890400000001761753225064887450_);}
	.st116{clip-path:url(#SVGID_00000092458212943419501610000007280451444645740199_);}
	.st117{clip-path:url(#SVGID_00000165203705603400533990000010594533326005542314_);}
	.st118{clip-path:url(#SVGID_00000009554812785031665660000005568723832094621852_);}
	.st119{clip-path:url(#SVGID_00000030458058155901196440000003470902667747088810_);}
	.st120{clip-path:url(#SVGID_00000173850088098461304170000009800880289205729947_);}
	.st121{clip-path:url(#SVGID_00000081645105377178574420000001759971611581445288_);}
	.st122{clip-path:url(#SVGID_00000141436016431895227310000006812087828394799010_);}
	.st123{clip-path:url(#SVGID_00000067226686032839464890000017257869084493078716_);}
	.st124{clip-path:url(#SVGID_00000015324256271238058000000001610743663719945662_);}
	.st125{clip-path:url(#SVGID_00000011730929599571123080000008715227484813938330_);}
	.st126{clip-path:url(#SVGID_00000133529382534127914570000015289297420725182895_);}
	.st127{clip-path:url(#SVGID_00000117649599784973816850000002570541681547388070_);}
	.st128{clip-path:url(#SVGID_00000132800268830318432530000003876709174491706543_);}
	.st129{clip-path:url(#SVGID_00000103249976699296928750000006685617303569832089_);}
	.st130{clip-path:url(#SVGID_00000174586682034069601000000011575504209026638232_);}
	.st131{clip-path:url(#SVGID_00000077291800691595300560000003047873319554150536_);}
	.st132{clip-path:url(#SVGID_00000091728517270500783360000014576108851383251382_);}
	.st133{clip-path:url(#SVGID_00000091015027222768723870000017316111985901617556_);}
	.st134{clip-path:url(#SVGID_00000010289430437430438470000013177107229933060789_);}
	.st135{clip-path:url(#SVGID_00000106829966853728474930000002081199357047237029_);}
	.st136{clip-path:url(#SVGID_00000070094484153255043790000014065524486998690203_);}
	.st137{clip-path:url(#SVGID_00000178165834852790332710000005645190600430469255_);}
	.st138{clip-path:url(#SVGID_00000180368961900720027690000003901704759817001145_);}
	.st139{clip-path:url(#SVGID_00000014609214115062429830000009068504437023720064_);}
	.st140{clip-path:url(#SVGID_00000107564968426397016130000012435217305834063284_);}
	.st141{clip-path:url(#SVGID_00000052092701403401964530000006260631356731119760_);}
	.st142{clip-path:url(#SVGID_00000000211308822503076400000015664237011286153629_);}
	.st143{clip-path:url(#SVGID_00000101791498657762030730000001516095186712777113_);}
	.st144{clip-path:url(#SVGID_00000132046173969858928460000005870026427070047381_);}
	.st145{clip-path:url(#SVGID_00000098184378953597642140000008006585787784753069_);}
	.st146{clip-path:url(#SVGID_00000101095845142262379100000007246268642815030407_);}
	.st147{clip-path:url(#SVGID_00000093149604594986629110000003027363497586276028_);}
	.st148{clip-path:url(#SVGID_00000177451218711333530910000012669311002796518539_);}
	.st149{clip-path:url(#SVGID_00000159450434950244993130000002160862002047197865_);}
	.st150{clip-path:url(#SVGID_00000011714876463141289020000002189455113354862469_);}
	.st151{clip-path:url(#SVGID_00000117667343758513453770000014899798052668791459_);}
	.st152{clip-path:url(#SVGID_00000103984108672248640190000002858349505724445857_);}
	.st153{clip-path:url(#SVGID_00000027604983546559165930000014883028245222031763_);}
	.st154{clip-path:url(#SVGID_00000134248613722898478520000007756399727600423068_);}
	.st155{clip-path:url(#SVGID_00000173842157228348734050000012630580130196477618_);}
	.st156{clip-path:url(#SVGID_00000013887717150050180040000003063723110561841053_);}
	.st157{clip-path:url(#SVGID_00000031906654524129672490000016343398341108795058_);}
	.st158{clip-path:url(#SVGID_00000036250661748876421620000014053902999285804938_);}
	.st159{clip-path:url(#SVGID_00000000925438413892867070000004200264791645761193_);}
	.st160{clip-path:url(#SVGID_00000118355612866833700000000009557176226913101191_);}
	.st161{clip-path:url(#SVGID_00000073704777257946480470000008341691108357570711_);}
	.st162{clip-path:url(#SVGID_00000152953629122865157340000012071416894630568106_);}
	.st163{clip-path:url(#SVGID_00000096781517499545255040000016865333583587711661_);}
	.st164{clip-path:url(#SVGID_00000060025753620068049610000004034114282263890610_);}
	.st165{clip-path:url(#SVGID_00000120518424947619806340000014578911088293163185_);}
	.st166{clip-path:url(#SVGID_00000174560691908798268170000017350325978715048325_);}
	.st167{clip-path:url(#SVGID_00000028310545333822421500000005106929351472937905_);}
	.st168{clip-path:url(#SVGID_00000179626261730623737880000018400905884074442145_);}
	.st169{clip-path:url(#SVGID_00000168796313329797695570000016230278405704514699_);}
	.st170{clip-path:url(#SVGID_00000178890779006656232170000010662397690876539522_);}
	.st171{clip-path:url(#SVGID_00000182502878979678805510000010182836329815259576_);}
	.st172{clip-path:url(#SVGID_00000006700250486343764410000015778666096311126162_);}
	.st173{clip-path:url(#SVGID_00000157299679528817868610000015657418173173021373_);}
	.st174{clip-path:url(#SVGID_00000026882568648841071820000003096751000644059036_);}
	.st175{clip-path:url(#SVGID_00000019664826229328751410000005449107737697941925_);}
	.st176{clip-path:url(#SVGID_00000109023718408043494170000004645762951052101041_);}
	.st177{clip-path:url(#SVGID_00000062880763058954500500000003252022943839405696_);}
	.st178{clip-path:url(#SVGID_00000051359408527208353360000004107042270880082623_);}
	.st179{clip-path:url(#SVGID_00000067232158322587323720000002144677499645689263_);}
	.st180{clip-path:url(#SVGID_00000036966543915382552950000011138540035982156956_);}
	.st181{clip-path:url(#SVGID_00000092444906816307165990000018298957789932236216_);}
	.st182{clip-path:url(#SVGID_00000178182170948293057410000006112039043068394914_);}
	.st183{clip-path:url(#SVGID_00000126315492420888561120000006730553363897039786_);}
	.st184{clip-path:url(#SVGID_00000053517953188176023730000012819087376144376738_);}
	.st185{clip-path:url(#SVGID_00000062887413479035089190000014863410064135442343_);}
	.st186{clip-path:url(#SVGID_00000086653094777918125600000016465869621201634954_);}
	.st187{clip-path:url(#SVGID_00000103254400075064719380000010323323343732335752_);}
	.st188{clip-path:url(#SVGID_00000041983223845008613350000014475562869249555645_);}
	.st189{clip-path:url(#SVGID_00000079444106879168312430000001579448538235644048_);}
	.st190{clip-path:url(#SVGID_00000137839847925352504210000017163779418167711163_);}
	.st191{clip-path:url(#SVGID_00000154392310741364679080000003793918452735560097_);}
	.st192{clip-path:url(#SVGID_00000142166224737086226670000017249827716569587859_);}
	.st193{clip-path:url(#SVGID_00000168078325219089397980000012222225126308541085_);}
	.st194{clip-path:url(#SVGID_00000097491142008166597100000005564489096178047912_);}
	.st195{clip-path:url(#SVGID_00000019662618249692603230000016235296819692581040_);}
	.st196{clip-path:url(#SVGID_00000088104003330711372360000015481947342326848934_);}
	.st197{clip-path:url(#SVGID_00000124870339534138823230000007613750322678817192_);}
	.st198{clip-path:url(#SVGID_00000183234208888698703700000013997408180471222699_);}
	.st199{clip-path:url(#SVGID_00000172404498995985234750000017730080444779274396_);}
	.st200{clip-path:url(#SVGID_00000061451173755912225360000003558783156664197771_);}
	.st201{clip-path:url(#SVGID_00000166659180649966281100000001929855305747427473_);}
	.st202{clip-path:url(#SVGID_00000096020574141612213580000008389780201286704810_);}
	.st203{clip-path:url(#SVGID_00000038389043145116665790000017149510611903424435_);}
	.st204{clip-path:url(#SVGID_00000052068156028142688240000011800002772593808534_);}
	.st205{clip-path:url(#SVGID_00000039109092721597210800000007753616515676806288_);}
	.st206{clip-path:url(#SVGID_00000083066693030475513350000004199619480974596744_);}
	.st207{clip-path:url(#SVGID_00000041277237918192541230000001906626105148911546_);}
	.st208{clip-path:url(#SVGID_00000023972980940796295440000010589068610265988752_);}
	.st209{clip-path:url(#SVGID_00000000211679800106716590000004032171260132994464_);}
	.st210{clip-path:url(#SVGID_00000140736207240955969890000002631092080082762675_);}
	.st211{clip-path:url(#SVGID_00000013873699629689806290000004579922935951438761_);}
	.st212{clip-path:url(#SVGID_00000169527734720443626180000007600525582171961473_);}
	.st213{clip-path:url(#SVGID_00000127030656047889585770000003842166074703727529_);}
	.st214{clip-path:url(#SVGID_00000099630536983849817360000002748149618423887008_);}
	.st215{clip-path:url(#SVGID_00000150796573141824202560000002028779988428053158_);}
	.st216{clip-path:url(#SVGID_00000074429560120808624030000006528151446569845122_);}
	.st217{clip-path:url(#SVGID_00000146494095004792175000000014124002281978924930_);}
	.st218{clip-path:url(#SVGID_00000146494723940752599110000006744915740699026357_);}
	.st219{clip-path:url(#SVGID_00000107578275505858632170000013014024135590594439_);}
	.st220{clip-path:url(#SVGID_00000157294033940493615320000006506635598078174642_);}
	.st221{clip-path:url(#SVGID_00000005248123000517396620000008544613730712602778_);}
	.st222{clip-path:url(#SVGID_00000094583041438266773630000013296471962024509314_);}
	.st223{clip-path:url(#SVGID_00000143608633374938041880000013514084703137559959_);}
	.st224{clip-path:url(#SVGID_00000143594755628068791460000017858670097843681421_);}
	.st225{clip-path:url(#SVGID_00000093135531373163790890000016749109573239090111_);}
	.st226{clip-path:url(#SVGID_00000019675713872549089130000014643979751848827819_);}
	.st227{clip-path:url(#SVGID_00000168107053791707135390000008873912491583976628_);}
	.st228{clip-path:url(#SVGID_00000168108491238623781070000008306562311077488032_);}
	.st229{clip-path:url(#SVGID_00000010289726466572587670000015845180379702389684_);}
	.st230{clip-path:url(#SVGID_00000096037159060612970430000013308071397182397107_);}
	.st231{clip-path:url(#SVGID_00000066495763677236670160000015635226337905571204_);}
	.st232{clip-path:url(#SVGID_00000173863025121237449110000002372525239688296117_);}
	.st233{clip-path:url(#SVGID_00000116226495923855325890000004175276410172913329_);}
	.st234{clip-path:url(#SVGID_00000094583734360788180130000008080378912699347880_);}
	.st235{clip-path:url(#SVGID_00000047040201346448031240000013042670881141009582_);}
	.st236{clip-path:url(#SVGID_00000072982319194858843190000005297859301713651108_);}
	.st237{clip-path:url(#SVGID_00000063635075876726983060000003546170743679436443_);}
	.st238{clip-path:url(#SVGID_00000041261198909408219690000003775955986254187706_);}
	.st239{clip-path:url(#SVGID_00000005989529341579552400000006502128298885989514_);}
	.st240{clip-path:url(#SVGID_00000003099643846178505490000015509102597481189518_);}
	.st241{clip-path:url(#SVGID_00000108999141994211934510000012170696646604849027_);}
	.st242{clip-path:url(#SVGID_00000102517577903131583100000013509171417268480440_);}
	.st243{clip-path:url(#SVGID_00000054979868380572899800000015579628721522350497_);}
	.st244{clip-path:url(#SVGID_00000011731583026368494100000012332462600504210586_);}
	.st245{clip-path:url(#SVGID_00000048475145287978373760000017494232771202433706_);}
	.st246{clip-path:url(#SVGID_00000004521798742885624190000007849436711586514343_);}
	.st247{clip-path:url(#SVGID_00000101068748161322760870000005145600306328073912_);}
	.st248{clip-path:url(#SVGID_00000021816446925867756820000003619319110722713267_);}
	.st249{clip-path:url(#SVGID_00000104670396881151929900000004887154382242572221_);}
	.st250{clip-path:url(#SVGID_00000078039512985332394910000011903967729145905080_);}
	.st251{clip-path:url(#SVGID_00000120518072893196071610000007122376663611962788_);}
	.st252{clip-path:url(#SVGID_00000055696840759535781600000009839065425020735916_);}
	.st253{clip-path:url(#SVGID_00000155840319767193557240000014423519025292005515_);}
	.st254{clip-path:url(#SVGID_00000181049133099622457210000012524984889394084499_);}
	.st255{clip-path:url(#SVGID_00000076600782880934175710000004739728056721197221_);}
	.st256{clip-path:url(#SVGID_00000134223903799750301350000000917495595047919257_);}
	.st257{clip-path:url(#SVGID_00000042016655030272952600000007382434879266837645_);}
	.st258{clip-path:url(#SVGID_00000162340846199351759580000015527307837151771311_);}
	.st259{clip-path:url(#SVGID_00000026159966931198992680000001864764721644867000_);}
	.st260{clip-path:url(#SVGID_00000055680374115848029580000004632129265080329118_);}
	.st261{clip-path:url(#SVGID_00000101807461070067980410000001617628486222089392_);}
	.st262{clip-path:url(#SVGID_00000000922247533761325940000012311633904492324525_);}
	.st263{clip-path:url(#SVGID_00000126286642692527934630000005976966562589536931_);}
	.st264{clip-path:url(#SVGID_00000063634937940667107250000016021834817748528519_);}
	.st265{clip-path:url(#SVGID_00000006677768036679634560000005570299213843397803_);}
	.st266{clip-path:url(#SVGID_00000159447364363280357620000000860791885081714064_);}
	.st267{clip-path:url(#SVGID_00000116199032963367954990000011786569633129093510_);}
	.st268{clip-path:url(#SVGID_00000140704334218635522100000001588119268253765792_);}
	.st269{clip-path:url(#SVGID_00000070811443855525849840000003615835047445852856_);}
	.st270{clip-path:url(#SVGID_00000048477796164605325850000015258970614696157609_);}
	.st271{clip-path:url(#SVGID_00000014596649609251037180000001022824147805744317_);}
	.st272{clip-path:url(#SVGID_00000054952837621132934870000008755816234258684817_);}
	.st273{clip-path:url(#SVGID_00000100377830196459153780000009634936735664789401_);}
	.st274{clip-path:url(#SVGID_00000083055295521977090760000006258327327105354399_);}
	.st275{clip-path:url(#SVGID_00000025441040387080733420000010575480148850264713_);}
	.st276{clip-path:url(#SVGID_00000006673439406276720470000012327152346908489088_);}
	.st277{clip-path:url(#SVGID_00000145766428775086165640000016703800961239889301_);}
	.st278{clip-path:url(#SVGID_00000011716225781554911500000018405373308378122407_);}
	.st279{clip-path:url(#SVGID_00000160869844206733058700000010864122102586858681_);}
	.st280{clip-path:url(#SVGID_00000008138978953047270680000003130507278796588990_);}
	.st281{clip-path:url(#SVGID_00000167387138646741700530000006287081123674170519_);}
	.st282{clip-path:url(#SVGID_00000109015902804373195040000010087920977262213813_);}
	.st283{clip-path:url(#SVGID_00000003090470132024290120000018005874000093902010_);}
	.st284{clip-path:url(#SVGID_00000121983375922689348290000007732503764090961540_);}
	.st285{clip-path:url(#SVGID_00000044145164194105058560000006267926504315350168_);}
	.st286{clip-path:url(#SVGID_00000054237400162582273850000017059639247651429769_);}
	.st287{clip-path:url(#SVGID_00000033362695701713202590000013651075459584137385_);}
	.st288{clip-path:url(#SVGID_00000068668348767507261160000013836502239349820862_);}
	.st289{clip-path:url(#SVGID_00000159462109092872262990000004430905426417770898_);}
	.st290{clip-path:url(#SVGID_00000065790979065006572600000000420294722637185427_);}
	.st291{clip-path:url(#SVGID_00000183207502089853944970000002548779329543739567_);}
	.st292{clip-path:url(#SVGID_00000012458370810796948570000007921880208236997538_);}
	.st293{clip-path:url(#SVGID_00000140736951925571748280000010339960311093964980_);}
	.st294{clip-path:url(#SVGID_00000013873390745828120930000001211906247674180255_);}
	.st295{clip-path:url(#SVGID_00000173875213256349045640000005224414492371182471_);}
	.st296{clip-path:url(#SVGID_00000064317623576468104410000009739843768998469008_);}
	.st297{clip-path:url(#SVGID_00000001640126009767756840000014886705687518354820_);}
	.st298{clip-path:url(#SVGID_00000046306636040488068920000012592942473598392706_);}
	.st299{clip-path:url(#SVGID_00000093876813468598450800000001477598376640112304_);}
	.st300{clip-path:url(#SVGID_00000068642571678880326430000002898112409039611793_);}
	.st301{clip-path:url(#SVGID_00000019676120009266251730000000642557943630337978_);}
	.st302{clip-path:url(#SVGID_00000161592134977029478290000003221129285012017301_);}
	.st303{clip-path:url(#SVGID_00000131365609673209077200000017781944025503544226_);}
	.st304{clip-path:url(#SVGID_00000017504310399986858950000014139939593671791539_);}
	.st305{clip-path:url(#SVGID_00000136401760749642736230000006036793539864290719_);}
	.st306{clip-path:url(#SVGID_00000086656157639437538600000007779327471442758281_);}
	.st307{clip-path:url(#SVGID_00000088111989843095067630000015992979067254926747_);}
	.st308{clip-path:url(#SVGID_00000067228318662204146950000005399328964265955719_);}
	.st309{clip-path:url(#SVGID_00000016770797414648341720000012440824475269410695_);}
	.st310{clip-path:url(#SVGID_00000148639930446426534800000015782671890228422823_);}
	.st311{clip-path:url(#SVGID_00000049911861261991761390000009419372979654768056_);}
	.st312{clip-path:url(#SVGID_00000073680537350902229340000015722260564645627542_);}
	.st313{clip-path:url(#SVGID_00000149340246937342407270000017188524906939411880_);}
	.st314{clip-path:url(#SVGID_00000134929172646471275490000010980457896856161433_);}
	.st315{clip-path:url(#SVGID_00000119108303530859659670000007212070860332125841_);}
	.st316{clip-path:url(#SVGID_00000122720836027885618930000001899918908414633621_);}
	.st317{clip-path:url(#SVGID_00000097475277605946364080000016472676296095882153_);}
	.st318{clip-path:url(#SVGID_00000140731560834385038190000005279708003109920414_);}
	.st319{clip-path:url(#SVGID_00000149359021293260944440000013807702901733910940_);}
	.st320{clip-path:url(#SVGID_00000003063313114778455620000013555604281686861191_);}
	.st321{clip-path:url(#SVGID_00000106110335431667931840000012027199437003811244_);}
	.st322{clip-path:url(#SVGID_00000024717332149231656360000002129810801457197966_);}
	.st323{clip-path:url(#SVGID_00000029044760519562216180000016440652006400900998_);}
	.st324{clip-path:url(#SVGID_00000150069750554711348490000005440698451858594738_);}
	.st325{clip-path:url(#SVGID_00000085209702233097130130000015424682918536159883_);}
	.st326{clip-path:url(#SVGID_00000037691248876679181600000016827746252243554460_);}
	.st327{clip-path:url(#SVGID_00000069397121353243929410000004071586100446295959_);}
	.st328{clip-path:url(#SVGID_00000065768669253350810770000011937407840663432326_);}
	.st329{clip-path:url(#SVGID_00000170987553907178882270000001112107688508622777_);}
	.st330{clip-path:url(#SVGID_00000173123147090507529950000013385895663168223422_);}
	.st331{clip-path:url(#SVGID_00000096761791690323494310000018300892957030184863_);}
	.st332{clip-path:url(#SVGID_00000024701268581704195410000015230326181278274988_);}
	.st333{clip-path:url(#SVGID_00000119108014525020337610000015435762421313577655_);}
	.st334{clip-path:url(#SVGID_00000155856459563819890030000017230972542173863053_);}
	.st335{clip-path:url(#SVGID_00000127722860343704612040000011292020381186284682_);}
	.st336{clip-path:url(#SVGID_00000087386222350160465760000016922757816589688976_);}
	.st337{clip-path:url(#SVGID_00000145768252503539804630000005696986353837501066_);}
	.st338{clip-path:url(#SVGID_00000145060654555956588420000018410771533098385066_);}
	.st339{clip-path:url(#SVGID_00000078758257134248714660000013322965912275172261_);}
	.st340{clip-path:url(#SVGID_00000013906303657314259720000014292635257478620037_);}
	.st341{clip-path:url(#SVGID_00000177446513282112964890000006848307609678115200_);}
	.st342{clip-path:url(#SVGID_00000082346126543532383250000003279389933179550625_);}
	.st343{clip-path:url(#SVGID_00000112621543072019882960000001894547187782631305_);}
	.st344{clip-path:url(#SVGID_00000005985925109262429350000012214171641736410032_);}
	.st345{clip-path:url(#SVGID_00000160873868855466360620000009518226917226601349_);}
	.st346{clip-path:url(#SVGID_00000086663798476396512120000015711374827331583152_);}
	.st347{clip-path:url(#SVGID_00000053540408832109173880000000569060985159222400_);}
	.st348{clip-path:url(#SVGID_00000055664968866011395780000000365865700338206881_);}
	.st349{clip-path:url(#SVGID_00000164509795556155866380000000413039308972729262_);}
	.st350{clip-path:url(#SVGID_00000041984505774646451650000006775823865781530790_);}
	.st351{clip-path:url(#SVGID_00000139274014661368767390000010712566313169528704_);}
	.st352{clip-path:url(#SVGID_00000013178753101675601460000015941210816106187659_);}
	.st353{clip-path:url(#SVGID_00000114764568008927327780000012601941934430145927_);}
	.st354{clip-path:url(#SVGID_00000034795164315439368370000011398891825781639349_);}
	.st355{clip-path:url(#SVGID_00000099622958722770830650000010741915812913891484_);}
	.st356{clip-path:url(#SVGID_00000169542241724875093090000003278353039687760314_);}
	.st357{clip-path:url(#SVGID_00000088851395726257490070000002105880235562071730_);}
	.st358{clip-path:url(#SVGID_00000076586472134217637630000010505314539338960562_);}
	.st359{clip-path:url(#SVGID_00000026136805606202729370000002283289920365087919_);}
	.st360{clip-path:url(#SVGID_00000022549347650192279860000017633327618068901302_);}
	.st361{clip-path:url(#SVGID_00000141422778006360022310000017759761145062753724_);}
	.st362{clip-path:url(#SVGID_00000017477090602705820520000015123817190790949527_);}
	.st363{clip-path:url(#SVGID_00000030461941407145393910000013039329189629993647_);}
	.st364{clip-path:url(#SVGID_00000034086666100736276080000016979282618110829196_);}
	.st365{clip-path:url(#SVGID_00000021116252752874510550000004862561120301936286_);}
	.st366{clip-path:url(#SVGID_00000130620326005841589130000005950252303331740563_);}
	.st367{clip-path:url(#SVGID_00000119808766564085663490000016364888959277226407_);}
	.st368{clip-path:url(#SVGID_00000061447112935026376570000000892128010560230033_);}
	.st369{clip-path:url(#SVGID_00000036963975152043821870000001282816925397472409_);}
	.st370{clip-path:url(#SVGID_00000051354591007661572690000009409950471226547873_);}
	.st371{clip-path:url(#SVGID_00000124876065481481269020000010036377346250300591_);}
	.st372{clip-path:url(#SVGID_00000160178192215325630780000013470347318785846188_);}
	.st373{clip-path:url(#SVGID_00000145767995292175814550000017178311298108086191_);}
	.st374{clip-path:url(#SVGID_00000102514142589782245920000012070644870702405304_);}
	.st375{clip-path:url(#SVGID_00000049940397097190979860000007233124833223609743_);}
</style>
<g>
	<g>
		<rect x="2.85" y="135.31" class="st0" width="48.54" height="795.77"/>
	</g>
	<g>
		<rect x="1.26" y="2.16" class="st1" width="997.9" height="134.44"/>
	</g>
	<g>
		<defs>
			<rect id="SVGID_00000146479489988600998450000002273201198921697420_" y="0" width="1000" height="935.58"/>
		</defs>
		<clipPath id="SVGID_00000047745959836375606200000006871179269242746014_">
			<use xlink:href="#SVGID_00000146479489988600998450000002273201198921697420_"  style="overflow:visible;"/>
		</clipPath>
		<g style="clip-path:url(#SVGID_00000047745959836375606200000006871179269242746014_);">
			<path class="st3" d="M997.19,935.58H1.68c-0.93,0-1.68-0.75-1.68-1.68V1.69C0,0.76,0.75,0,1.68,0h995.51
				c0.93,0,1.68,0.75,1.68,1.68v932.21C998.87,934.82,998.12,935.58,997.19,935.58z M3.37,932.21H995.5V3.37H3.37V932.21z"/>
		</g>
		<g style="clip-path:url(#SVGID_00000047745959836375606200000006871179269242746014_);">
			<rect x="2.06" y="133.63" class="st3" width="997.94" height="3.37"/>
		</g>
		<g style="clip-path:url(#SVGID_00000047745959836375606200000006871179269242746014_);">
			<path class="st4" d="M825.85,68.02h-14.46c0.07-1.69,0.29-2.71,0.88-4.1c1.02-2.27,3.14-3.95,6.36-3.95
				c3.21,0,5.33,1.68,6.36,3.95C825.55,65.31,825.77,66.33,825.85,68.02 M835.2,74.51v-4.23c0-10.45-5.99-18.18-16.58-18.18
				c-9.86,0-16.58,7-16.58,19.43c0,15.41,8.61,19.5,17.6,19.5c6.87,0,10.59-2.12,14.46-5.98l-5.77-5.62
				c-2.41,2.41-4.46,3.58-8.62,3.58c-5.33,0-8.33-3.58-8.33-8.48H835.2z M796.33,60.85v-7.22h-7.01v-4.17c0-2.2,1.02-3.44,3.29-3.44
				h3.73v-8.02h-5.41c-7.74,0-11.1,5.47-11.1,10.88v4.75h-3.94v7.22h3.94v29.73h9.49V60.85H796.33z M766.68,38.29h-9.7v7.73h9.7
				V38.29z M766.6,52.53h-9.49v38.05h9.49V52.53z M737.53,68.02h-14.46c0.07-1.69,0.29-2.71,0.88-4.1c1.02-2.27,3.14-3.95,6.36-3.95
				c3.21,0,5.33,1.68,6.36,3.95C737.24,65.31,737.46,66.33,737.53,68.02 M746.88,74.51v-4.23c0-10.45-5.99-18.18-16.58-18.18
				c-9.86,0-16.58,7-16.58,19.43c0,15.41,8.61,19.5,17.6,19.5c6.87,0,10.59-2.12,14.46-5.98l-5.77-5.62
				c-2.41,2.41-4.46,3.58-8.62,3.58c-5.33,0-8.33-3.58-8.33-8.48H746.88z M711.01,55.66c-2.63-2.63-5.26-3.57-8.98-3.57
				c-4.09,0-7.74,1.89-9.57,4.09v-3.65h-9.27v38.05h9.49V67.64c0-4.82,3.21-7.01,6.14-7.01c2.34,0,3.58,0.8,5.04,2.26L711.01,55.66z
				 M674.12,90.58v-8.02h-3.65c-2.41,0-3.36-1.17-3.36-3.43V38.58h-9.48V79.7c0,5.4,3.28,10.87,11.09,10.87H674.12z M645.86,90.58
				V52.53h-9.48v23.01c0,5.19-3.37,6.94-6.36,6.94c-3,0-6.29-1.75-6.29-6.94V52.53h-9.48v24.32c0,4.16,0.8,7.74,3.87,10.81
				c2.12,2.11,5.18,3.35,8.98,3.35c3.51,0,7.02-1.31,9.51-3.94v3.5H645.86z M602.98,90.58V65.96c0-8.03-4.38-13.87-12.7-13.87
				c-3.36,0-6.57,1.31-9.14,3.94V38.58h-9.49v52h9.49V67.35c0-4.97,3.15-6.72,6.14-6.72c2.99,0,6.21,1.68,6.21,6.72v23.23H602.98z
				 M562.8,85.83l-6.43-6.36c-1.97,2.12-3.65,3-6.14,3c-2.26,0-4.02-0.8-5.41-2.49c-1.46-1.83-2.12-4.46-2.12-8.47
				s0.66-6.58,2.12-8.41c1.39-1.68,3.14-2.48,5.41-2.48c2.48,0,4.16,0.88,6.14,2.99l6.43-6.42c-3.36-3.51-7.3-5.11-12.56-5.11
				c-7.6,0-17.01,4.01-17.01,19.43s9.41,19.5,17.01,19.5C555.49,91.01,559.44,89.33,562.8,85.83 M525.7,78.6
				c0-6.43-3.8-10.45-11.32-11.18l-5.99-0.59c-3.36-0.29-3.94-1.9-3.94-3.29c0-1.9,1.61-3.65,5.41-3.65c3.29,0,6.65,0.58,8.84,2.56
				l5.84-5.91c-3.65-3.43-8.62-4.45-14.54-4.45c-7.74,0-14.68,4.23-14.68,12.11c0,7.02,4.24,10.01,11.1,10.67l5.99,0.58
				c2.99,0.29,4.02,1.61,4.02,3.51c0,2.85-3.43,3.95-6.72,3.95c-2.92,0-7.01-0.44-10.15-3.58l-6.21,6.21
				c4.82,4.82,10.23,5.47,16.22,5.47C518.54,91.01,525.7,87,525.7,78.6 M485.37,90.58V65.96c0-8.03-4.38-13.87-12.7-13.87
				c-3.37,0-6.58,1.31-9.14,3.94V38.58h-9.49v52h9.49V67.35c0-4.97,3.14-6.72,6.14-6.72c3,0,6.21,1.68,6.21,6.72v23.23H485.37z
				 M445.2,85.83l-6.43-6.36c-1.97,2.12-3.65,3-6.14,3c-2.26,0-4.02-0.8-5.41-2.49c-1.46-1.83-2.12-4.46-2.12-8.47
				s0.66-6.58,2.12-8.41c1.39-1.68,3.14-2.48,5.41-2.48c2.48,0,4.16,0.88,6.14,2.99l6.43-6.42c-3.36-3.51-7.3-5.11-12.56-5.11
				c-7.6,0-17.01,4.01-17.01,19.43s9.42,19.5,17.01,19.5C437.89,91.01,441.84,89.33,445.2,85.83 M397.5,71.52
				c0,3.94-0.22,7.3-2.19,9.28c-1.1,1.1-2.56,1.69-4.46,1.69c-1.9,0-3.29-0.58-4.38-1.69c-1.97-1.97-2.19-5.33-2.19-9.28
				s0.22-7.24,2.19-9.21c1.1-1.1,2.48-1.68,4.38-1.68c1.9,0,3.37,0.58,4.46,1.68C397.28,64.28,397.5,67.57,397.5,71.52
				 M406.99,71.52c0-6.87-0.88-11.18-4.31-14.76c-2.33-2.48-6.2-4.67-11.83-4.67c-5.62,0-9.42,2.19-11.76,4.67
				c-3.43,3.57-4.3,7.88-4.3,14.76c0,6.94,0.88,11.26,4.3,14.83c2.34,2.48,6.14,4.67,11.76,4.67c5.63,0,9.5-2.19,11.83-4.67
				C406.12,82.77,406.99,78.46,406.99,71.52 M364.7,90.58V65.96c0-8.03-4.38-13.87-12.7-13.87c-3.36,0-6.58,1.31-9.14,3.94V38.58
				h-9.49v52h9.49V67.35c0-4.97,3.14-6.72,6.14-6.72c2.99,0,6.21,1.68,6.21,6.72v23.23H364.7z M321.67,90.58V65.96
				c0-8.03-4.38-13.87-12.7-13.87c-3.36,0-6.58,1.31-9.14,3.94V38.58h-9.49v52h9.49V67.35c0-4.97,3.14-6.72,6.14-6.72
				c2.99,0,6.21,1.68,6.21,6.72v23.23H321.67z M281.5,85.83l-6.43-6.36c-1.97,2.12-3.65,3-6.14,3c-2.26,0-4.02-0.8-5.41-2.49
				c-1.46-1.83-2.12-4.46-2.12-8.47s0.66-6.58,2.12-8.41c1.39-1.68,3.14-2.48,5.41-2.48c2.48,0,4.16,0.88,6.14,2.99l6.43-6.42
				c-3.36-3.51-7.3-5.11-12.56-5.11c-7.6,0-17.01,4.01-17.01,19.43s9.41,19.5,17.01,19.5C274.19,91.01,278.14,89.33,281.5,85.83
				 M232.64,76.55c0,2.34-0.37,3.88-1.39,4.83c-1.69,1.61-3.37,1.83-6,1.83c-3.73,0-5.48-1.76-5.48-4.39c0-2.71,1.9-4.32,5.34-4.32
				h7.53V76.55z M242.12,90.58V65.53c0-8.91-5.55-13.44-16.21-13.44c-6.36,0-10.01,1.16-13.73,5.25l6.06,5.92
				c1.97-2.27,3.65-3.15,7.31-3.15c5.04,0,7.09,1.83,7.09,6v1.9h-8.99c-8.84,0-13,4.96-13,11.02c0,3.36,1.1,6.43,3.14,8.55
				c2.26,2.26,5.4,3.35,9.72,3.35c4.38,0,6.79-1.1,9.36-3.65v3.28H242.12z M206.18,47.62v-9.05h-34.25v52h10.14V69.47h20.53v-9.05
				h-20.53V47.62H206.18z"/>
		</g>
		<g style="clip-path:url(#SVGID_00000047745959836375606200000006871179269242746014_);">
			<rect x="3.09" y="464.7" class="st3" width="992.7" height="3.37"/>
		</g>
		<g style="clip-path:url(#SVGID_00000047745959836375606200000006871179269242746014_);">
			<rect x="3.09" y="347.82" class="st3" width="992.7" height="3.37"/>
		</g>
		<g style="clip-path:url(#SVGID_00000047745959836375606200000006871179269242746014_);">
			<rect x="3.09" y="236.56" class="st3" width="992.7" height="3.37"/>
		</g>
		<g style="clip-path:url(#SVGID_00000047745959836375606200000006871179269242746014_);">
			<rect x="3.09" y="578.76" class="st3" width="992.7" height="3.37"/>
		</g>
		<g style="clip-path:url(#SVGID_00000047745959836375606200000006871179269242746014_);">
			<rect x="3.09" y="701.26" class="st3" width="992.7" height="3.37"/>
		</g>
		<g style="clip-path:url(#SVGID_00000047745959836375606200000006871179269242746014_);">
			<rect x="3.09" y="818.14" class="st3" width="992.7" height="3.37"/>
		</g>
		<g style="clip-path:url(#SVGID_00000047745959836375606200000006871179269242746014_);">
			<path class="st3" d="M694.39,777.01c0,4.06-2.4,6.62-5.82,6.62c-3.42,0-5.77-2.57-5.77-6.62c0-4.11,2.35-6.57,5.77-6.57
				C692.2,770.44,694.39,773.27,694.39,777.01 M699.83,776.9c0-6.68-4.48-10.99-9.98-10.99c-1.17,0-2.35,0.16-3.37,0.58l8.17-16.33
				h-5.82l-8.65,17.62c-1.65,3.3-2.83,6.24-2.83,9.34c0,7.05,4.69,11.37,11.26,11.37C695.19,788.48,699.83,783.9,699.83,776.9
				 M658.99,765.8v-4.16h-5.39v-3.93c0-1.99,0.96-3.17,2.99-3.17h2.4v-4.64h-3.42c-5.07,0-7.41,3.62-7.41,7.54v4.2h-3.1v4.16h3.1
				v22.36h5.44V765.8H658.99z M638.12,761.11h-5.44v27.06h5.44V761.11z M623.76,788.16v-17.3c0-3.04-0.63-5.6-2.71-7.63
				c-1.6-1.55-3.89-2.45-6.68-2.45c-2.73,0-5.34,1.01-7.21,3.03v-2.71h-5.33v27.06h5.44v-16.49c0-4.16,2.56-6.03,5.61-6.03
				c3.05,0,5.45,1.81,5.45,6.03v16.5H623.76z M592.64,761.11h-5.44v27.06h5.44V761.11z M579.56,777.33c0-3.25-1.02-5.98-3.1-7.79
				c-1.6-1.44-3.57-2.29-7.1-2.83l-4.33-0.65c-1.76-0.26-3.31-0.9-4.27-1.76c-1.02-0.91-1.44-2.14-1.44-3.52
				c0-3.37,2.46-5.93,6.95-5.93c3.2,0,5.93,0.7,8.28,2.94l3.67-3.63c-3.25-3.04-6.77-4.32-11.79-4.32c-7.9,0-12.7,4.53-12.7,11.15
				c0,3.1,0.9,5.5,2.77,7.26c1.65,1.55,4.11,2.62,7.2,3.05l4.49,0.64c2.24,0.32,3.2,0.69,4.16,1.6c1.02,0.9,1.49,2.29,1.49,3.95
				c0,3.69-2.88,5.82-7.85,5.82c-3.9,0-6.94-0.85-9.72-3.63l-3.84,3.79c3.62,3.68,7.73,5.01,13.45,5.01
				C573.85,788.48,579.56,784.32,579.56,777.33 M537.13,746.21h-5.23l-15.22,45.9h5.23L537.13,746.21z M494.37,777.01
				c0,4.06-2.4,6.62-5.82,6.62c-3.42,0-5.77-2.57-5.77-6.62c0-4.11,2.35-6.57,5.77-6.57C492.18,770.44,494.37,773.27,494.37,777.01
				 M499.81,776.9c0-6.68-4.48-10.99-9.98-10.99c-1.17,0-2.35,0.16-3.37,0.58l8.18-16.33h-5.82l-8.65,17.62
				c-1.66,3.3-2.83,6.24-2.83,9.34c0,7.05,4.69,11.37,11.26,11.37C495.17,788.48,499.81,783.9,499.81,776.9 M452.19,772.42h-12.17
				c0.06-1.66,0.16-2.46,0.7-3.69c0.85-2.03,2.83-3.42,5.39-3.42s4.48,1.39,5.34,3.42C451.98,769.96,452.14,770.76,452.19,772.42
				 M457.59,776.2v-2.4c0-7.69-4.22-13.02-11.48-13.02c-6.94,0-11.47,5.06-11.47,13.82c0,10.3,5.38,13.87,12.17,13.87
				c4.75,0,7.37-1.44,10.14-4.21l-3.47-3.26c-1.92,1.92-3.52,2.78-6.56,2.78c-4.43,0-6.89-2.94-6.89-7.59H457.59z M428.87,779.89
				c0-4.8-2.99-7.21-8.06-7.64l-4.27-0.37c-2.88-0.27-3.74-1.49-3.74-3.1c0-2.03,1.65-3.47,4.91-3.47c2.56,0,4.96,0.53,6.67,1.98
				l3.42-3.47c-2.51-2.19-5.98-3.03-10.04-3.03c-5.66,0-10.19,2.98-10.19,8.27c0,4.75,2.93,7.05,8.01,7.48l4.32,0.37
				c2.62,0.21,3.63,1.39,3.63,3.2c0,2.57-2.61,3.74-5.92,3.74c-2.67,0-5.61-0.59-7.79-2.83l-3.58,3.58
				c3.2,3.14,6.94,3.89,11.37,3.89C424.07,788.48,428.87,785.55,428.87,779.89 M402.02,779.89c0-4.8-2.99-7.21-8.06-7.64l-4.27-0.37
				c-2.88-0.27-3.74-1.49-3.74-3.1c0-2.03,1.66-3.47,4.91-3.47c2.56,0,4.97,0.53,6.68,1.98l3.42-3.47
				c-2.51-2.19-5.98-3.03-10.04-3.03c-5.66,0-10.2,2.98-10.2,8.27c0,4.75,2.94,7.05,8.01,7.48l4.33,0.37
				c2.61,0.21,3.63,1.39,3.63,3.2c0,2.57-2.62,3.74-5.93,3.74c-2.67,0-5.6-0.59-7.79-2.83l-3.57,3.58c3.2,3.14,6.94,3.89,11.37,3.89
				C397.22,788.48,402.02,785.55,402.02,779.89 M367.64,778.4c0,1.92-0.37,3.2-1.17,4.01c-1.44,1.39-2.99,1.55-5.07,1.55
				c-3.42,0-4.97-1.39-4.97-3.85c0-2.46,1.66-3.9,4.86-3.9h6.36V778.4z M373.08,788.16v-18.09c0-6.14-3.73-9.28-11.15-9.28
				c-4.48,0-7.15,0.9-9.71,3.89l3.57,3.37c1.49-1.92,2.94-2.62,5.93-2.62c4.22,0,5.93,1.66,5.93,5.07v1.93h-7.15
				c-6.19,0-9.34,3.25-9.34,7.79c0,2.3,0.75,4.38,2.14,5.82c1.65,1.65,3.89,2.45,7.25,2.45c3.37,0,5.24-0.8,7.21-2.77v2.45H373.08z
				 M346.66,788.16v-4.64h-2.4c-2.19,0-2.93-1.07-2.93-3.15v-30.21h-5.44v30.53c0,4,2.24,7.47,7.41,7.47H346.66z M330.65,788.16
				l-13.62-23.11l12.33-14.89h-7.05l-15.54,19.11v-19.11h-5.75v38h5.75v-11.05l6.41-7.69l10.68,18.73H330.65z"/>
		</g>
		<g style="clip-path:url(#SVGID_00000047745959836375606200000006871179269242746014_);">
			<path class="st3" d="M700.36,632.52v-4.85h-22.63v10.83h5.23v-5.98h11.59l-12.76,33.15h5.87L700.36,632.52z M658.99,643.3v-4.16
				h-5.39v-3.93c0-1.99,0.96-3.17,2.99-3.17h2.4v-4.64h-3.42c-5.07,0-7.41,3.62-7.41,7.54v4.2h-3.1v4.16h3.1v22.36h5.44V643.3
				H658.99z M638.12,638.61h-5.44v27.06h5.44V638.61z M623.76,665.67v-17.3c0-3.04-0.63-5.6-2.71-7.63
				c-1.6-1.55-3.89-2.45-6.68-2.45c-2.73,0-5.34,1.01-7.21,3.03v-2.71h-5.33v27.06h5.44v-16.49c0-4.16,2.56-6.03,5.61-6.03
				c3.05,0,5.45,1.82,5.45,6.03v16.49H623.76z M592.64,638.61h-5.44v27.06h5.44V638.61z M579.56,654.83c0-3.25-1.02-5.98-3.1-7.79
				c-1.6-1.44-3.57-2.29-7.1-2.83l-4.33-0.65c-1.76-0.26-3.31-0.9-4.27-1.76c-1.02-0.91-1.44-2.14-1.44-3.52
				c0-3.37,2.46-5.93,6.95-5.93c3.2,0,5.93,0.7,8.28,2.94l3.67-3.63c-3.25-3.04-6.77-4.32-11.79-4.32c-7.9,0-12.7,4.53-12.7,11.15
				c0,3.1,0.9,5.5,2.77,7.26c1.65,1.55,4.11,2.62,7.2,3.05l4.49,0.64c2.24,0.32,3.2,0.69,4.16,1.6c1.02,0.9,1.49,2.29,1.49,3.95
				c0,3.69-2.88,5.82-7.85,5.82c-3.9,0-6.94-0.85-9.72-3.63l-3.84,3.79c3.62,3.68,7.73,5.01,13.45,5.01
				C573.85,665.99,579.56,661.83,579.56,654.83 M537.13,623.71h-5.23l-15.22,45.9h5.23L537.13,623.71z M500.35,632.52v-4.85h-22.63
				v10.83h5.23v-5.98h11.58l-12.76,33.15h5.87L500.35,632.52z M452.19,649.93h-12.17c0.06-1.66,0.16-2.46,0.7-3.69
				c0.85-2.03,2.83-3.42,5.39-3.42s4.48,1.39,5.34,3.42C451.98,647.46,452.14,648.27,452.19,649.93 M457.59,653.71v-2.4
				c0-7.69-4.22-13.02-11.48-13.02c-6.94,0-11.47,5.06-11.47,13.82c0,10.3,5.38,13.87,12.17,13.87c4.75,0,7.37-1.44,10.14-4.21
				l-3.47-3.26c-1.92,1.92-3.52,2.78-6.56,2.78c-4.43,0-6.89-2.94-6.89-7.59H457.59z M428.87,657.39c0-4.8-2.99-7.21-8.06-7.64
				l-4.27-0.37c-2.88-0.27-3.74-1.49-3.74-3.1c0-2.03,1.65-3.47,4.91-3.47c2.56,0,4.96,0.53,6.67,1.98l3.42-3.47
				c-2.51-2.19-5.98-3.03-10.04-3.03c-5.66,0-10.19,2.98-10.19,8.27c0,4.75,2.93,7.05,8.01,7.48l4.32,0.37
				c2.62,0.21,3.63,1.39,3.63,3.2c0,2.57-2.61,3.74-5.92,3.74c-2.67,0-5.61-0.59-7.79-2.83l-3.58,3.58
				c3.2,3.14,6.94,3.89,11.37,3.89C424.07,665.99,428.87,663.05,428.87,657.39 M402.02,657.39c0-4.8-2.99-7.21-8.06-7.64l-4.27-0.37
				c-2.88-0.27-3.74-1.49-3.74-3.1c0-2.03,1.66-3.47,4.91-3.47c2.56,0,4.97,0.53,6.68,1.98l3.42-3.47
				c-2.51-2.19-5.98-3.03-10.04-3.03c-5.66,0-10.2,2.98-10.2,8.27c0,4.75,2.94,7.05,8.01,7.48l4.33,0.37
				c2.61,0.21,3.63,1.39,3.63,3.2c0,2.57-2.62,3.74-5.93,3.74c-2.67,0-5.6-0.59-7.79-2.83l-3.57,3.58c3.2,3.14,6.94,3.89,11.37,3.89
				C397.22,665.99,402.02,663.05,402.02,657.39 M367.64,655.9c0,1.92-0.37,3.2-1.17,4.01c-1.44,1.39-2.99,1.55-5.07,1.55
				c-3.42,0-4.97-1.39-4.97-3.85c0-2.46,1.66-3.9,4.86-3.9h6.36V655.9z M373.08,665.67v-18.09c0-6.14-3.73-9.28-11.15-9.28
				c-4.48,0-7.15,0.9-9.71,3.89l3.57,3.37c1.49-1.92,2.94-2.62,5.93-2.62c4.22,0,5.93,1.66,5.93,5.07v1.93h-7.15
				c-6.19,0-9.34,3.25-9.34,7.79c0,2.3,0.75,4.38,2.14,5.82c1.65,1.65,3.89,2.45,7.25,2.45c3.37,0,5.24-0.8,7.21-2.77v2.45H373.08z
				 M346.66,665.67v-4.64h-2.4c-2.19,0-2.93-1.07-2.93-3.15v-30.21h-5.44v30.53c0,4,2.24,7.47,7.41,7.47H346.66z M330.65,665.67
				l-13.62-23.11l12.33-14.89h-7.05l-15.54,19.11v-19.11h-5.75v38h5.75v-11.05l6.41-7.69l10.68,18.73H330.65z"/>
		</g>
		<g style="clip-path:url(#SVGID_00000047745959836375606200000006871179269242746014_);">
			<path class="st3" d="M694.23,521.14c0,3.36-2.35,5.77-5.66,5.77c-3.32,0-5.61-2.41-5.61-5.77c0-3.32,2.29-5.82,5.61-5.82
				C691.88,515.32,694.23,517.83,694.23,521.14 M694.82,537.95c0,3.52-2.73,6.3-6.25,6.3c-3.53,0-6.25-2.78-6.25-6.3
				c0-3.52,2.72-6.36,6.25-6.36C692.09,531.6,694.82,534.43,694.82,537.95 M700.31,538.06c0-4.54-2.56-7.32-5.23-8.91
				c2.46-1.49,4.59-4.16,4.59-8.17c0-6.36-4.91-10.51-11.1-10.51c-6.2,0-11.05,4.16-11.05,10.51c0,4.01,2.13,6.68,4.59,8.17
				c-2.67,1.6-5.23,4.37-5.23,8.91c0,6.89,5.17,11.05,11.69,11.05C695.08,549.11,700.31,544.95,700.31,538.06 M658.99,526.42v-4.16
				h-5.39v-3.93c0-1.99,0.96-3.17,2.99-3.17h2.4v-4.64h-3.42c-5.07,0-7.41,3.62-7.41,7.54v4.2h-3.1v4.16h3.1v22.36h5.44v-22.36
				H658.99z M638.12,521.73h-5.44v27.06h5.44V521.73z M623.76,548.79v-17.3c0-3.04-0.63-5.6-2.71-7.63
				c-1.6-1.55-3.89-2.45-6.68-2.45c-2.73,0-5.34,1.01-7.21,3.03v-2.71h-5.33v27.06h5.44V532.3c0-4.16,2.56-6.03,5.61-6.03
				c3.05,0,5.45,1.82,5.45,6.03v16.5H623.76z M592.64,521.73h-5.44v27.06h5.44V521.73z M579.56,537.95c0-3.25-1.02-5.98-3.1-7.79
				c-1.6-1.44-3.57-2.29-7.1-2.83l-4.33-0.65c-1.76-0.26-3.31-0.9-4.27-1.76c-1.02-0.91-1.44-2.14-1.44-3.52
				c0-3.37,2.46-5.93,6.95-5.93c3.2,0,5.93,0.7,8.28,2.94l3.67-3.63c-3.25-3.04-6.77-4.32-11.79-4.32c-7.9,0-12.7,4.53-12.7,11.15
				c0,3.1,0.9,5.5,2.77,7.26c1.65,1.55,4.11,2.62,7.2,3.05l4.49,0.64c2.24,0.32,3.2,0.69,4.16,1.6c1.02,0.9,1.49,2.29,1.49,3.95
				c0,3.69-2.88,5.82-7.85,5.82c-3.9,0-6.94-0.85-9.72-3.63l-3.84,3.79c3.62,3.68,7.73,5.01,13.45,5.01
				C573.85,549.11,579.56,544.95,579.56,537.95 M537.13,506.84h-5.23l-15.22,45.9h5.23L537.13,506.84z M494.21,521.14
				c0,3.36-2.35,5.77-5.66,5.77c-3.31,0-5.61-2.41-5.61-5.77c0-3.32,2.3-5.82,5.61-5.82C491.86,515.32,494.21,517.83,494.21,521.14
				 M494.8,537.95c0,3.52-2.73,6.3-6.25,6.3s-6.25-2.78-6.25-6.3c0-3.52,2.73-6.36,6.25-6.36S494.8,534.43,494.8,537.95
				 M500.29,538.06c0-4.54-2.56-7.32-5.22-8.91c2.45-1.49,4.59-4.16,4.59-8.17c0-6.36-4.91-10.51-11.1-10.51
				c-6.19,0-11.05,4.16-11.05,10.51c0,4.01,2.14,6.68,4.59,8.17c-2.66,1.6-5.23,4.37-5.23,8.91c0,6.89,5.18,11.05,11.69,11.05
				C495.07,549.11,500.29,544.95,500.29,538.06 M452.19,533.05h-12.17c0.06-1.66,0.16-2.46,0.7-3.69c0.85-2.03,2.83-3.42,5.39-3.42
				s4.48,1.39,5.34,3.42C451.98,530.59,452.14,531.39,452.19,533.05 M457.59,536.83v-2.4c0-7.69-4.22-13.02-11.48-13.02
				c-6.94,0-11.47,5.06-11.47,13.82c0,10.3,5.38,13.87,12.17,13.87c4.75,0,7.37-1.44,10.14-4.21l-3.47-3.26
				c-1.92,1.92-3.52,2.78-6.56,2.78c-4.43,0-6.89-2.94-6.89-7.59H457.59z M428.87,540.52c0-4.8-2.99-7.21-8.06-7.64l-4.27-0.37
				c-2.88-0.27-3.74-1.49-3.74-3.1c0-2.03,1.65-3.47,4.91-3.47c2.56,0,4.96,0.53,6.67,1.98l3.42-3.47
				c-2.51-2.19-5.98-3.03-10.04-3.03c-5.66,0-10.19,2.98-10.19,8.27c0,4.75,2.93,7.05,8.01,7.48l4.32,0.37
				c2.62,0.21,3.63,1.39,3.63,3.2c0,2.57-2.61,3.74-5.92,3.74c-2.67,0-5.61-0.59-7.79-2.83l-3.58,3.58
				c3.2,3.14,6.94,3.89,11.37,3.89C424.07,549.11,428.87,546.18,428.87,540.52 M402.02,540.52c0-4.8-2.99-7.21-8.06-7.64l-4.27-0.37
				c-2.88-0.27-3.74-1.49-3.74-3.1c0-2.03,1.66-3.47,4.91-3.47c2.56,0,4.97,0.53,6.68,1.98l3.42-3.47
				c-2.51-2.19-5.98-3.03-10.04-3.03c-5.66,0-10.2,2.98-10.2,8.27c0,4.75,2.94,7.05,8.01,7.48l4.33,0.37
				c2.61,0.21,3.63,1.39,3.63,3.2c0,2.57-2.62,3.74-5.93,3.74c-2.67,0-5.6-0.59-7.79-2.83l-3.57,3.58c3.2,3.14,6.94,3.89,11.37,3.89
				C397.22,549.11,402.02,546.18,402.02,540.52 M367.64,539.02c0,1.92-0.37,3.2-1.17,4.01c-1.44,1.39-2.99,1.55-5.07,1.55
				c-3.42,0-4.97-1.39-4.97-3.85c0-2.46,1.66-3.9,4.86-3.9h6.36V539.02z M373.08,548.79v-18.09c0-6.14-3.73-9.28-11.15-9.28
				c-4.48,0-7.15,0.9-9.71,3.89l3.57,3.37c1.49-1.92,2.94-2.62,5.93-2.62c4.22,0,5.93,1.66,5.93,5.07v1.93h-7.15
				c-6.19,0-9.34,3.25-9.34,7.79c0,2.3,0.75,4.38,2.14,5.82c1.65,1.65,3.89,2.45,7.25,2.45c3.37,0,5.24-0.8,7.21-2.77v2.45H373.08z
				 M346.66,548.79v-4.64h-2.4c-2.19,0-2.93-1.07-2.93-3.15v-30.21h-5.44v30.53c0,4,2.24,7.47,7.41,7.47H346.66z M330.65,548.79
				l-13.62-23.11l12.33-14.89h-7.05l-15.54,19.11v-19.11h-5.75v38h5.75v-11.05l6.41-7.69l10.68,18.73H330.65z"/>
		</g>
		<g style="clip-path:url(#SVGID_00000047745959836375606200000006871179269242746014_);">
			<path class="st3" d="M694.39,405.06c0,4.11-2.4,6.57-5.82,6.57c-3.64,0-5.77-2.83-5.77-6.57c0-4.06,2.35-6.62,5.77-6.62
				C691.98,398.44,694.39,401.01,694.39,405.06 M699.83,404.96c0-7.05-4.69-11.37-11.26-11.37c-6.57,0-11.21,4.59-11.21,11.58
				c0,6.68,4.43,11,9.93,11c1.17,0,2.4-0.16,3.42-0.59l-8.17,16.33h5.82L697,414.3C698.65,410.99,699.83,408.05,699.83,404.96
				 M658.99,409.55v-4.16h-5.39v-3.93c0-1.99,0.96-3.17,2.99-3.17h2.4v-4.64h-3.42c-5.07,0-7.41,3.62-7.41,7.54v4.2h-3.1v4.16h3.1
				v22.36h5.44v-22.36H658.99z M638.12,404.86h-5.44v27.06h5.44V404.86z M623.76,431.91v-17.3c0-3.04-0.63-5.6-2.71-7.63
				c-1.6-1.55-3.89-2.45-6.68-2.45c-2.73,0-5.34,1.01-7.21,3.03v-2.71h-5.33v27.06h5.44v-16.49c0-4.16,2.56-6.03,5.61-6.03
				c3.05,0,5.45,1.82,5.45,6.03v16.5H623.76z M592.64,404.86h-5.44v27.06h5.44V404.86z M579.56,421.08c0-3.25-1.02-5.98-3.1-7.79
				c-1.6-1.44-3.57-2.29-7.1-2.83l-4.33-0.65c-1.76-0.26-3.31-0.9-4.27-1.76c-1.02-0.91-1.44-2.14-1.44-3.52
				c0-3.37,2.46-5.93,6.95-5.93c3.2,0,5.93,0.7,8.28,2.94l3.67-3.63c-3.25-3.04-6.77-4.32-11.79-4.32c-7.9,0-12.7,4.53-12.7,11.15
				c0,3.1,0.9,5.5,2.77,7.26c1.65,1.55,4.11,2.62,7.2,3.05l4.49,0.64c2.24,0.32,3.2,0.69,4.16,1.6c1.02,0.9,1.49,2.29,1.49,3.95
				c0,3.69-2.88,5.82-7.85,5.82c-3.9,0-6.94-0.85-9.72-3.63l-3.84,3.79c3.62,3.68,7.73,5.01,13.45,5.01
				C573.85,432.23,579.56,428.07,579.56,421.08 M537.13,389.96h-5.23l-15.22,45.9h5.23L537.13,389.96z M494.37,405.06
				c0,4.11-2.4,6.57-5.82,6.57c-3.63,0-5.77-2.83-5.77-6.57c0-4.06,2.35-6.62,5.77-6.62C491.97,398.44,494.37,401.01,494.37,405.06
				 M499.81,404.96c0-7.05-4.69-11.37-11.26-11.37s-11.2,4.59-11.2,11.58c0,6.68,4.42,11,9.92,11c1.17,0,2.4-0.16,3.42-0.59
				l-8.17,16.33h5.82l8.65-17.62C498.64,410.99,499.81,408.05,499.81,404.96 M452.19,416.17h-12.17c0.06-1.66,0.16-2.46,0.7-3.69
				c0.85-2.03,2.83-3.42,5.39-3.42s4.48,1.39,5.34,3.42C451.98,413.71,452.14,414.51,452.19,416.17 M457.59,419.95v-2.4
				c0-7.69-4.22-13.02-11.48-13.02c-6.94,0-11.47,5.06-11.47,13.82c0,10.3,5.38,13.87,12.17,13.87c4.75,0,7.37-1.44,10.14-4.21
				l-3.47-3.26c-1.92,1.92-3.52,2.78-6.56,2.78c-4.43,0-6.89-2.94-6.89-7.59H457.59z M428.87,423.64c0-4.8-2.99-7.21-8.06-7.64
				l-4.27-0.37c-2.88-0.27-3.74-1.49-3.74-3.1c0-2.03,1.65-3.47,4.91-3.47c2.56,0,4.96,0.53,6.67,1.98l3.42-3.47
				c-2.51-2.19-5.98-3.03-10.04-3.03c-5.66,0-10.19,2.98-10.19,8.27c0,4.75,2.93,7.05,8.01,7.48l4.32,0.37
				c2.62,0.21,3.63,1.39,3.63,3.2c0,2.57-2.61,3.74-5.92,3.74c-2.67,0-5.61-0.59-7.79-2.83l-3.58,3.58
				c3.2,3.14,6.94,3.89,11.37,3.89C424.07,432.23,428.87,429.3,428.87,423.64 M402.02,423.64c0-4.8-2.99-7.21-8.06-7.64l-4.27-0.37
				c-2.88-0.27-3.74-1.49-3.74-3.1c0-2.03,1.66-3.47,4.91-3.47c2.56,0,4.97,0.53,6.68,1.98l3.42-3.47
				c-2.51-2.19-5.98-3.03-10.04-3.03c-5.66,0-10.2,2.98-10.2,8.27c0,4.75,2.94,7.05,8.01,7.48l4.33,0.37
				c2.61,0.21,3.63,1.39,3.63,3.2c0,2.57-2.62,3.74-5.93,3.74c-2.67,0-5.6-0.59-7.79-2.83l-3.57,3.58c3.2,3.14,6.94,3.89,11.37,3.89
				C397.22,432.23,402.02,429.3,402.02,423.64 M367.64,422.15c0,1.92-0.37,3.2-1.17,4.01c-1.44,1.39-2.99,1.55-5.07,1.55
				c-3.42,0-4.97-1.39-4.97-3.85c0-2.46,1.66-3.9,4.86-3.9h6.36V422.15z M373.08,431.91v-18.09c0-6.14-3.73-9.28-11.15-9.28
				c-4.48,0-7.15,0.9-9.71,3.89l3.57,3.37c1.49-1.92,2.94-2.62,5.93-2.62c4.22,0,5.93,1.66,5.93,5.07v1.93h-7.15
				c-6.19,0-9.34,3.25-9.34,7.79c0,2.3,0.75,4.38,2.14,5.82c1.65,1.65,3.89,2.45,7.25,2.45c3.37,0,5.24-0.8,7.21-2.77v2.45H373.08z
				 M346.66,431.91v-4.64h-2.4c-2.19,0-2.93-1.07-2.93-3.15v-30.21h-5.44v30.53c0,4,2.24,7.47,7.41,7.47H346.66z M330.65,431.91
				l-13.62-23.11l12.33-14.89h-7.05l-15.54,19.11v-19.11h-5.75v38h5.75v-11.05l6.41-7.69l10.68,18.73H330.65z"/>
		</g>
		<g style="clip-path:url(#SVGID_00000047745959836375606200000006871179269242746014_);">
			<path class="st3" d="M723.11,304.31c0,3.69-2.08,6.2-5.56,6.2c-3.47,0-5.5-2.51-5.5-6.2v-16.55c0-3.69,2.03-6.19,5.5-6.19
				c3.47,0,5.56,2.51,5.56,6.19V304.31z M728.54,304.47V287.6c0-6.78-4.96-10.88-11-10.88c-6.03,0-10.93,4.11-10.93,10.88v16.87
				c0,6.78,4.91,10.88,10.93,10.88C723.58,315.35,728.54,311.25,728.54,304.47 M693.31,315.03v-38h-5.44l-7.42,6.41v6.03l7.42-6.51
				v32.07H693.31z M658.99,292.67v-4.16h-5.39v-3.93c0-1.99,0.96-3.17,2.99-3.17h2.4v-4.64h-3.42c-5.07,0-7.42,3.62-7.42,7.54v4.2
				h-3.1v4.16h3.1v22.36h5.44v-22.36H658.99z M638.12,287.98h-5.44v27.06h5.44V287.98z M623.76,315.03v-17.3
				c0-3.05-0.64-5.6-2.72-7.63c-1.6-1.55-3.89-2.45-6.67-2.45c-2.73,0-5.34,1.01-7.21,3.03v-2.71h-5.33v27.06h5.43v-16.49
				c0-4.16,2.57-6.03,5.61-6.03c3.05,0,5.45,1.82,5.45,6.03v16.5H623.76z M592.64,287.98h-5.44v27.06h5.44V287.98z M579.56,304.2
				c0-3.25-1.01-5.98-3.09-7.79c-1.6-1.44-3.57-2.29-7.1-2.83l-4.33-0.65c-1.76-0.26-3.31-0.9-4.27-1.76
				c-1.01-0.91-1.44-2.14-1.44-3.52c0-3.37,2.46-5.93,6.95-5.93c3.2,0,5.93,0.7,8.28,2.94l3.68-3.63
				c-3.25-3.04-6.78-4.32-11.79-4.32c-7.91,0-12.7,4.53-12.7,11.15c0,3.1,0.9,5.5,2.78,7.26c1.65,1.55,4.11,2.62,7.2,3.05l4.48,0.64
				c2.24,0.32,3.2,0.69,4.17,1.6c1.01,0.9,1.49,2.29,1.49,3.95c0,3.69-2.89,5.82-7.85,5.82c-3.9,0-6.95-0.85-9.72-3.63l-3.84,3.79
				c3.63,3.68,7.74,5.01,13.45,5.01C573.86,315.35,579.56,311.2,579.56,304.2 M537.12,273.08h-5.23l-15.21,45.9h5.23L537.12,273.08z
				 M494.11,304.31c0,3.69-2.08,6.2-5.56,6.2c-3.47,0-5.5-2.51-5.5-6.2v-16.55c0-3.69,2.03-6.19,5.5-6.19
				c3.47,0,5.56,2.51,5.56,6.19V304.31z M499.54,304.47V287.6c0-6.78-4.96-10.88-11-10.88c-6.03,0-10.93,4.11-10.93,10.88v16.87
				c0,6.78,4.9,10.88,10.93,10.88C494.58,315.35,499.54,311.25,499.54,304.47 M464.31,315.03v-38h-5.44l-7.42,6.41v6.03l7.42-6.51
				v32.07H464.31z M423.21,299.3h-12.17c0.06-1.66,0.16-2.46,0.7-3.69c0.85-2.03,2.83-3.42,5.39-3.42s4.48,1.39,5.34,3.42
				C423,296.83,423.16,297.64,423.21,299.3 M428.6,303.08v-2.4c0-7.69-4.22-13.02-11.48-13.02c-6.94,0-11.47,5.06-11.47,13.82
				c0,10.31,5.38,13.88,12.17,13.88c4.75,0,7.37-1.44,10.14-4.21l-3.47-3.26c-1.92,1.92-3.52,2.78-6.56,2.78
				c-4.43,0-6.89-2.94-6.89-7.59H428.6z M399.88,306.76c0-4.8-2.99-7.21-8.06-7.64l-4.27-0.37c-2.88-0.27-3.74-1.49-3.74-3.1
				c0-2.03,1.65-3.47,4.91-3.47c2.56,0,4.96,0.53,6.67,1.98l3.42-3.47c-2.51-2.19-5.98-3.03-10.04-3.03
				c-5.66,0-10.19,2.98-10.19,8.27c0,4.75,2.93,7.05,8.01,7.48l4.32,0.37c2.62,0.21,3.63,1.39,3.63,3.2c0,2.57-2.61,3.74-5.92,3.74
				c-2.67,0-5.61-0.59-7.79-2.83l-3.58,3.57c3.2,3.15,6.94,3.89,11.37,3.89C395.08,315.35,399.88,312.42,399.88,306.76
				 M373.04,306.76c0-4.8-2.99-7.21-8.06-7.64l-4.27-0.37c-2.88-0.27-3.74-1.49-3.74-3.1c0-2.03,1.66-3.47,4.91-3.47
				c2.56,0,4.97,0.53,6.68,1.98l3.42-3.47c-2.51-2.19-5.98-3.03-10.04-3.03c-5.66,0-10.2,2.98-10.2,8.27c0,4.75,2.94,7.05,8.01,7.48
				l4.33,0.37c2.61,0.21,3.63,1.39,3.63,3.2c0,2.57-2.62,3.74-5.93,3.74c-2.67,0-5.6-0.59-7.79-2.83l-3.57,3.57
				c3.2,3.15,6.94,3.89,11.37,3.89C368.23,315.35,373.04,312.42,373.04,306.76 M338.66,305.27c0,1.92-0.37,3.2-1.17,4.01
				c-1.44,1.39-2.99,1.55-5.07,1.55c-3.42,0-4.97-1.39-4.97-3.85c0-2.46,1.66-3.9,4.86-3.9h6.36V305.27z M344.1,315.03v-18.09
				c0-6.14-3.73-9.28-11.15-9.28c-4.48,0-7.15,0.9-9.71,3.89l3.57,3.37c1.49-1.92,2.94-2.62,5.93-2.62c4.22,0,5.93,1.66,5.93,5.07
				v1.93h-7.15c-6.19,0-9.34,3.25-9.34,7.79c0,2.3,0.75,4.38,2.14,5.82c1.65,1.65,3.89,2.45,7.25,2.45c3.37,0,5.24-0.8,7.21-2.77
				v2.45H344.1z M317.68,315.03v-4.64h-2.4c-2.19,0-2.93-1.07-2.93-3.15v-30.21h-5.44v30.53c0,4,2.24,7.47,7.41,7.47H317.68z
				 M301.66,315.03l-13.62-23.11l12.33-14.89h-7.05l-15.54,19.11v-19.11h-5.75v38h5.75v-11.05l6.41-7.69l10.68,18.73H301.66z"/>
		</g>
		<g style="clip-path:url(#SVGID_00000047745959836375606200000006871179269242746014_);">
			<path class="st3" d="M722.3,206.12v-38h-5.43l-7.42,6.41v6.03l7.42-6.51v32.07H722.3z M693.31,206.12v-38h-5.44l-7.42,6.41v6.03
				l7.42-6.51v32.07H693.31z M658.99,183.76v-4.16h-5.39v-3.93c0-1.99,0.96-3.17,2.99-3.17h2.4v-4.64h-3.42
				c-5.07,0-7.42,3.62-7.42,7.54v4.2h-3.1v4.16h3.1v22.36h5.44v-22.36H658.99z M638.12,179.07h-5.44v27.06h5.44V179.07z
				 M623.76,206.12v-17.3c0-3.05-0.64-5.6-2.72-7.63c-1.6-1.55-3.89-2.45-6.67-2.45c-2.73,0-5.34,1.01-7.21,3.03v-2.71h-5.33v27.06
				h5.43v-16.49c0-4.17,2.57-6.03,5.61-6.03c3.05,0,5.45,1.81,5.45,6.03v16.5H623.76z M592.64,179.07h-5.44v27.06h5.44V179.07z
				 M579.56,195.29c0-3.25-1.01-5.98-3.09-7.79c-1.6-1.44-3.57-2.29-7.1-2.83l-4.33-0.65c-1.76-0.26-3.31-0.9-4.27-1.76
				c-1.01-0.91-1.44-2.14-1.44-3.52c0-3.37,2.46-5.93,6.95-5.93c3.2,0,5.93,0.7,8.28,2.94l3.68-3.63
				c-3.25-3.04-6.78-4.32-11.79-4.32c-7.91,0-12.7,4.53-12.7,11.15c0,3.1,0.9,5.5,2.78,7.26c1.65,1.55,4.11,2.62,7.2,3.05l4.48,0.64
				c2.24,0.32,3.2,0.69,4.17,1.6c1.01,0.9,1.49,2.29,1.49,3.95c0,3.69-2.89,5.82-7.85,5.82c-3.9,0-6.95-0.85-9.72-3.63l-3.84,3.79
				c3.63,3.68,7.74,5.01,13.45,5.01C573.86,206.44,579.56,202.28,579.56,195.29 M537.12,164.17h-5.23l-15.21,45.9h5.23
				L537.12,164.17z M493.3,206.12v-38h-5.43l-7.42,6.41v6.03l7.42-6.51v32.07H493.3z M464.31,206.12v-38h-5.44l-7.42,6.41v6.03
				l7.42-6.51v32.07H464.31z M423.21,190.38h-12.17c0.06-1.66,0.16-2.46,0.7-3.69c0.85-2.03,2.83-3.42,5.39-3.42
				s4.48,1.39,5.34,3.42C423,187.92,423.16,188.72,423.21,190.38 M428.6,194.16v-2.4c0-7.69-4.22-13.02-11.48-13.02
				c-6.94,0-11.47,5.06-11.47,13.82c0,10.31,5.38,13.88,12.17,13.88c4.75,0,7.37-1.44,10.14-4.21l-3.47-3.26
				c-1.92,1.92-3.52,2.78-6.56,2.78c-4.43,0-6.89-2.94-6.89-7.59H428.6z M399.88,197.85c0-4.8-2.99-7.21-8.06-7.64l-4.27-0.37
				c-2.88-0.27-3.74-1.49-3.74-3.1c0-2.03,1.65-3.47,4.91-3.47c2.56,0,4.96,0.53,6.67,1.98l3.42-3.47
				c-2.51-2.19-5.98-3.03-10.04-3.03c-5.66,0-10.19,2.98-10.19,8.27c0,4.75,2.93,7.05,8.01,7.48l4.32,0.37
				c2.62,0.21,3.63,1.39,3.63,3.2c0,2.57-2.61,3.74-5.92,3.74c-2.67,0-5.61-0.59-7.79-2.83l-3.58,3.57
				c3.2,3.15,6.94,3.89,11.37,3.89C395.08,206.44,399.88,203.51,399.88,197.85 M373.04,197.85c0-4.8-2.99-7.21-8.06-7.64l-4.27-0.37
				c-2.88-0.27-3.74-1.49-3.74-3.1c0-2.03,1.66-3.47,4.91-3.47c2.56,0,4.97,0.53,6.68,1.98l3.42-3.47
				c-2.51-2.19-5.98-3.03-10.04-3.03c-5.66,0-10.2,2.98-10.2,8.27c0,4.75,2.94,7.05,8.01,7.48l4.33,0.37
				c2.61,0.21,3.63,1.39,3.63,3.2c0,2.57-2.62,3.74-5.93,3.74c-2.67,0-5.6-0.59-7.79-2.83l-3.57,3.57c3.2,3.15,6.94,3.89,11.37,3.89
				C368.23,206.44,373.04,203.51,373.04,197.85 M338.66,196.36c0,1.92-0.37,3.2-1.17,4.01c-1.44,1.39-2.99,1.55-5.07,1.55
				c-3.42,0-4.97-1.39-4.97-3.85c0-2.46,1.66-3.9,4.86-3.9h6.36V196.36z M344.1,206.12v-18.09c0-6.14-3.73-9.28-11.15-9.28
				c-4.48,0-7.15,0.9-9.71,3.89l3.57,3.37c1.49-1.92,2.94-2.62,5.93-2.62c4.22,0,5.93,1.66,5.93,5.07v1.93h-7.15
				c-6.19,0-9.34,3.25-9.34,7.79c0,2.3,0.75,4.38,2.14,5.82c1.65,1.65,3.89,2.45,7.25,2.45c3.37,0,5.24-0.8,7.21-2.77v2.45H344.1z
				 M317.68,206.12v-4.64h-2.4c-2.19,0-2.93-1.07-2.93-3.15v-30.21h-5.44v30.53c0,4,2.24,7.47,7.41,7.47H317.68z M301.66,206.12
				l-13.62-23.11l12.33-14.89h-7.05l-15.54,19.11v-19.11h-5.75v38h5.75v-11.05l6.41-7.69l10.68,18.73H301.66z"/>
		</g>
		<g style="clip-path:url(#SVGID_00000047745959836375606200000006871179269242746014_);">
			<path class="st3" d="M699.93,886.72c0-3.58-0.43-7.27-3.31-10.14c-1.55-1.55-3.84-2.46-6.83-2.46c-2.78,0-5.02,0.85-6.3,2.19
				v-10.04h15.59v-4.85h-20.49v20.76h4.96c0.59-1.87,2.3-3.42,5.39-3.42c4.38,0,5.56,3.42,5.56,7.96c0,2.56-0.21,5.07-1.82,6.68
				c-0.97,0.96-2.35,1.49-3.96,1.49c-3.42,0-5.12-1.92-5.55-5.29h-5.44c0.21,2.73,0.85,5.23,2.88,7.26
				c1.65,1.65,4.48,2.93,8.11,2.93c3.69,0,6.3-1.28,8.01-2.98C699.51,894.04,699.93,890.78,699.93,886.72 M658.99,877.06v-4.16
				h-5.39v-3.93c0-1.99,0.96-3.17,2.99-3.17h2.4v-4.64h-3.42c-5.07,0-7.41,3.62-7.41,7.54v4.2h-3.1v4.16h3.1v22.36h5.44v-22.36
				H658.99z M638.12,872.36h-5.44v27.06h5.44V872.36z M623.76,899.42v-17.3c0-3.04-0.63-5.6-2.71-7.63
				c-1.6-1.55-3.89-2.45-6.68-2.45c-2.73,0-5.34,1.01-7.21,3.03v-2.71h-5.33v27.06h5.44v-16.49c0-4.16,2.56-6.03,5.61-6.03
				c3.05,0,5.45,1.82,5.45,6.03v16.5H623.76z M592.64,872.36h-5.44v27.06h5.44V872.36z M579.56,888.59c0-3.25-1.02-5.98-3.1-7.79
				c-1.6-1.44-3.57-2.29-7.1-2.83l-4.33-0.65c-1.76-0.26-3.31-0.9-4.27-1.76c-1.02-0.91-1.44-2.14-1.44-3.52
				c0-3.37,2.46-5.93,6.95-5.93c3.2,0,5.93,0.7,8.28,2.94l3.67-3.63c-3.25-3.04-6.77-4.32-11.79-4.32c-7.9,0-12.7,4.53-12.7,11.15
				c0,3.1,0.9,5.5,2.77,7.26c1.65,1.55,4.11,2.62,7.2,3.05l4.49,0.64c2.24,0.32,3.2,0.69,4.16,1.6c1.02,0.9,1.49,2.29,1.49,3.95
				c0,3.69-2.88,5.82-7.85,5.82c-3.9,0-6.94-0.85-9.72-3.63l-3.84,3.79c3.62,3.68,7.73,5.01,13.45,5.01
				C573.85,899.74,579.56,895.58,579.56,888.59 M537.13,857.47h-5.23l-15.22,45.9h5.23L537.13,857.47z M499.92,886.72
				c0-3.58-0.43-7.27-3.3-10.14c-1.55-1.55-3.84-2.46-6.83-2.46c-2.78,0-5.02,0.85-6.3,2.19v-10.04h15.59v-4.85h-20.49v20.76h4.96
				c0.59-1.87,2.3-3.42,5.4-3.42c4.38,0,5.55,3.42,5.55,7.96c0,2.56-0.21,5.07-1.81,6.68c-0.96,0.96-2.35,1.49-3.95,1.49
				c-3.42,0-5.13-1.92-5.56-5.29h-5.44c0.21,2.73,0.85,5.23,2.88,7.26c1.65,1.65,4.48,2.93,8.11,2.93c3.68,0,6.3-1.28,8.01-2.98
				C499.49,894.04,499.92,890.78,499.92,886.72 M452.19,883.68h-12.17c0.06-1.66,0.16-2.46,0.7-3.69c0.85-2.03,2.83-3.42,5.39-3.42
				s4.48,1.39,5.34,3.42C451.98,881.22,452.14,882.02,452.19,883.68 M457.59,887.46v-2.4c0-7.69-4.22-13.02-11.48-13.02
				c-6.94,0-11.47,5.06-11.47,13.82c0,10.31,5.38,13.88,12.17,13.88c4.75,0,7.37-1.44,10.14-4.21l-3.47-3.26
				c-1.92,1.92-3.52,2.78-6.56,2.78c-4.43,0-6.89-2.94-6.89-7.59H457.59z M428.87,891.15c0-4.8-2.99-7.21-8.06-7.64l-4.27-0.37
				c-2.88-0.27-3.74-1.49-3.74-3.1c0-2.03,1.65-3.47,4.91-3.47c2.56,0,4.96,0.53,6.67,1.98l3.42-3.47
				c-2.51-2.19-5.98-3.03-10.04-3.03c-5.66,0-10.19,2.98-10.19,8.27c0,4.75,2.93,7.05,8.01,7.48l4.32,0.37
				c2.62,0.21,3.63,1.39,3.63,3.2c0,2.57-2.61,3.74-5.92,3.74c-2.67,0-5.61-0.59-7.79-2.83l-3.58,3.58
				c3.2,3.14,6.94,3.89,11.37,3.89C424.07,899.74,428.87,896.81,428.87,891.15 M402.02,891.15c0-4.8-2.99-7.21-8.06-7.64l-4.27-0.37
				c-2.88-0.27-3.74-1.49-3.74-3.1c0-2.03,1.66-3.47,4.91-3.47c2.56,0,4.97,0.53,6.68,1.98l3.42-3.47
				c-2.51-2.19-5.98-3.03-10.04-3.03c-5.66,0-10.2,2.98-10.2,8.27c0,4.75,2.94,7.05,8.01,7.48l4.33,0.37
				c2.61,0.21,3.63,1.39,3.63,3.2c0,2.57-2.62,3.74-5.93,3.74c-2.67,0-5.6-0.59-7.79-2.83l-3.57,3.58c3.2,3.14,6.94,3.89,11.37,3.89
				C397.22,899.74,402.02,896.81,402.02,891.15 M367.64,889.65c0,1.92-0.37,3.2-1.17,4.01c-1.44,1.39-2.99,1.55-5.07,1.55
				c-3.42,0-4.97-1.39-4.97-3.85c0-2.46,1.66-3.9,4.86-3.9h6.36V889.65z M373.08,899.42v-18.09c0-6.14-3.73-9.28-11.15-9.28
				c-4.48,0-7.15,0.9-9.71,3.89l3.57,3.37c1.49-1.92,2.94-2.62,5.93-2.62c4.22,0,5.93,1.66,5.93,5.07v1.93h-7.15
				c-6.19,0-9.34,3.25-9.34,7.79c0,2.3,0.75,4.38,2.14,5.82c1.65,1.65,3.89,2.45,7.25,2.45c3.37,0,5.24-0.8,7.21-2.77v2.45H373.08z
				 M346.66,899.42v-4.64h-2.4c-2.19,0-2.93-1.07-2.93-3.15v-30.21h-5.44v30.53c0,4,2.24,7.47,7.41,7.47H346.66z M330.65,899.42
				l-13.62-23.11l12.33-14.89h-7.05l-15.54,19.11v-19.11h-5.75v38h5.75v-11.05l6.41-7.69l10.68,18.73H330.65z"/>
		</g>
	</g>
	<g>
		<polygon class="st4" points="19.1,871.61 35.16,871.61 27.13,860.98 		"/>
	</g>
	<g>
		<polygon class="st4" points="19.1,892.74 35.16,892.74 27.13,882.12 		"/>
	</g>
	<g>
		<polygon class="st4" points="19.1,913.88 35.16,913.88 27.13,903.25 		"/>
	</g>
	<g>
		<polygon class="st4" points="19.1,850.47 35.16,850.47 27.13,839.85 		"/>
	</g>
	<g>
		<polygon class="st4" points="19.1,756.13 35.16,756.13 27.13,745.51 		"/>
	</g>
	<g>
		<polygon class="st4" points="19.1,777.27 35.16,777.27 27.13,766.64 		"/>
	</g>
	<g>
		<polygon class="st4" points="19.1,798.4 35.16,798.4 27.13,787.78 		"/>
	</g>
	<g>
		<polygon class="st4" points="19.1,735 35.16,735 27.13,724.37 		"/>
	</g>
	<g>
		<polygon class="st4" points="19.1,636.45 35.16,636.45 27.13,625.82 		"/>
	</g>
	<g>
		<polygon class="st4" points="19.1,657.58 35.16,657.58 27.13,646.95 		"/>
	</g>
	<g>
		<polygon class="st4" points="19.1,678.72 35.16,678.72 27.13,668.09 		"/>
	</g>
	<g>
		<polygon class="st4" points="19.1,615.31 35.16,615.31 27.13,604.68 		"/>
	</g>
	<g>
		<polygon class="st4" points="19.1,518.16 35.16,518.16 27.13,507.54 		"/>
	</g>
	<g>
		<polygon class="st4" points="19.1,539.3 35.16,539.3 27.13,528.67 		"/>
	</g>
	<g>
		<polygon class="st4" points="19.1,560.43 35.16,560.43 27.13,549.81 		"/>
	</g>
	<g>
		<polygon class="st4" points="19.1,497.03 35.16,497.03 27.13,486.4 		"/>
	</g>
	<g>
		<polygon class="st4" points="19.1,402.69 35.16,402.69 27.13,392.07 		"/>
	</g>
	<g>
		<polygon class="st4" points="19.1,423.83 35.16,423.83 27.13,413.2 		"/>
	</g>
	<g>
		<polygon class="st4" points="19.1,444.96 35.16,444.96 27.13,434.34 		"/>
	</g>
	<g>
		<polygon class="st4" points="19.1,381.56 35.16,381.56 27.13,370.93 		"/>
	</g>
	<g>
		<polygon class="st4" points="19.1,285.81 35.16,285.81 27.13,275.19 		"/>
	</g>
	<g>
		<polygon class="st4" points="19.1,306.95 35.16,306.95 27.13,296.32 		"/>
	</g>
	<g>
		<polygon class="st4" points="19.1,328.08 35.16,328.08 27.13,317.46 		"/>
	</g>
	<g>
		<polygon class="st4" points="19.1,264.68 35.16,264.68 27.13,254.05 		"/>
	</g>
	<g>
		<polygon class="st4" points="19.1,178.94 35.16,178.94 27.13,168.31 		"/>
	</g>
	<g>
		<polygon class="st4" points="19.1,200.07 35.16,200.07 27.13,189.45 		"/>
	</g>
	<g>
		<polygon class="st4" points="19.1,221.21 35.16,221.21 27.13,210.58 		"/>
	</g>
	<g>
		<polygon class="st4" points="19.1,157.8 35.16,157.8 27.13,147.18 		"/>
	</g>
</g>
</svg>
