<?xml version="1.0" encoding="utf-8"?>
<!-- Generator: Adobe Illustrator 26.2.1, SVG Export Plug-In . SVG Version: 6.00 Build 0)  -->
<svg version="1.1" id="Ebene_1" xmlns="http://www.w3.org/2000/svg" xmlns:xlink="http://www.w3.org/1999/xlink" x="0px" y="0px"
	 viewBox="0 0 1000 935.58" style="enable-background:new 0 0 1000 935.58;" xml:space="preserve">
<style type="text/css">
	.st0{fill:#A2B9E1;}
	.st1{fill:#6796CF;}
	.st2{clip-path:url(#SVGID_00000147902043667001878610000001432996983488083368_);}
	.st3{fill:#2B2961;}
	.st4{fill:#FFFFFF;}
	.st5{clip-path:url(#SVGID_00000158030744657670463630000003093744756968040124_);}
	.st6{clip-path:url(#SVGID_00000164473063104910279050000005717040013317537452_);}
	.st7{clip-path:url(#SVGID_00000130617515089787372000000016504723184192415654_);}
	.st8{clip-path:url(#SVGID_00000096041381099076726930000003395037674422116273_);}
	.st9{clip-path:url(#SVGID_00000181785219467420546680000002424649994054254759_);}
	.st10{opacity:0.52;clip-path:url(#SVGID_00000085235486336637432030000011428675984569424782_);}
	.st11{clip-path:url(#SVGID_00000183249293735249974670000012976498161141594779_);}
	.st12{clip-path:url(#SVGID_00000111903221585892618170000016464479107923934103_);}
	.st13{clip-path:url(#SVGID_00000173160024562080953440000016586259922228827835_);}
	.st14{clip-path:url(#SVGID_00000143598286956357057940000009054365308219529381_);}
	.st15{clip-path:url(#SVGID_00000109025515552945861170000016814299095827643308_);}
	.st16{clip-path:url(#SVGID_00000180343158012101123780000005514006682391595694_);}
	.st17{clip-path:url(#SVGID_00000053540708558796891760000004415276869751817892_);}
	.st18{clip-path:url(#SVGID_00000140735945187687574620000007444349181901958786_);}
	.st19{clip-path:url(#SVGID_00000044168492976489487720000017986215772162700217_);}
	.st20{clip-path:url(#SVGID_00000052808614595257811580000008973322512221713045_);}
	.st21{clip-path:url(#SVGID_00000157286076013451590960000014240273831774182568_);}
	.st22{clip-path:url(#SVGID_00000176725634700422097420000013933673279262799243_);}
	.st23{fill:none;stroke:#2B2961;stroke-width:0.374;stroke-linejoin:round;stroke-miterlimit:10;}
	.st24{fill:none;stroke:#2B2961;stroke-width:0.4;stroke-miterlimit:10;}
	.st25{clip-path:url(#SVGID_00000073714482469788256640000014699255257348118419_);}
	.st26{clip-path:url(#SVGID_00000154405156360245671550000000338587977634647207_);}
	.st27{clip-path:url(#SVGID_00000109718644360643565860000016090989474517800596_);}
	.st28{clip-path:url(#SVGID_00000139254331687531489000000012772969024260539298_);}
	.st29{clip-path:url(#SVGID_00000044177899784213494290000013791001627649233823_);}
	.st30{clip-path:url(#SVGID_00000170996086322548239340000010496361666125250978_);}
	.st31{clip-path:url(#SVGID_00000063634781461139584840000014583045852334709633_);}
	.st32{clip-path:url(#SVGID_00000151508721763224737220000015884476062710869173_);}
	.st33{clip-path:url(#SVGID_00000097477676459191142690000015426439853435992975_);}
	.st34{clip-path:url(#SVGID_00000146470961339558805360000006874456404159417221_);}
	.st35{clip-path:url(#SVGID_00000101817165356160860800000013470818711054040990_);}
	.st36{clip-path:url(#SVGID_00000099628438759344339410000014655451530506520756_);}
	.st37{clip-path:url(#SVGID_00000114768254663877612890000011950221138149312191_);}
	.st38{clip-path:url(#SVGID_00000104706321880332163770000011453439504521313452_);}
	.st39{clip-path:url(#SVGID_00000173160211812876765320000017202459985872325261_);}
	.st40{clip-path:url(#SVGID_00000029726270099604429490000016046188354506663059_);}
	.st41{clip-path:url(#SVGID_00000102535258261265913770000014965340595173486005_);}
	.st42{clip-path:url(#SVGID_00000164486032699319005090000014919144883611304832_);}
	.st43{clip-path:url(#SVGID_00000100378222048684695020000001808239661512525187_);}
	.st44{clip-path:url(#SVGID_00000138567354161900649850000011059915280390461597_);}
	.st45{clip-path:url(#SVGID_00000021116429978307159820000014792006004486552485_);}
	.st46{clip-path:url(#SVGID_00000164501106358803542840000000004983476966860446_);}
	.st47{clip-path:url(#SVGID_00000124119603254701927040000000522239051362708374_);}
	.st48{clip-path:url(#SVGID_00000023988694066827546790000014547891331816237465_);}
	.st49{clip-path:url(#SVGID_00000069359266234808985400000000021800921535823548_);}
	.st50{clip-path:url(#SVGID_00000173870332255970511600000018357296746591222942_);}
	.st51{clip-path:url(#SVGID_00000183959638921889380820000018189442583596567943_);}
	.st52{clip-path:url(#SVGID_00000135691012403871678310000000643758730034012328_);}
	.st53{clip-path:url(#SVGID_00000086652998135434688550000018318847059237477017_);}
	.st54{clip-path:url(#SVGID_00000098927530230917010140000008328433704145922975_);}
	.st55{clip-path:url(#SVGID_00000093175224912517059340000012913128971152015016_);}
	.st56{clip-path:url(#SVGID_00000176763050187092905360000006158615435299645846_);}
	.st57{clip-path:url(#SVGID_00000121959206008920546400000015669867109914133170_);}
	.st58{clip-path:url(#SVGID_00000068650005513801853510000004655169963263383173_);}
	.st59{clip-path:url(#SVGID_00000153693031508884980690000012904900873464268964_);}
	.st60{clip-path:url(#SVGID_00000172416722331106544830000000064863699088359075_);}
	.st61{clip-path:url(#SVGID_00000050644408120789731620000016243254272491076759_);}
	.st62{fill:#9AB4DE;}
	.st63{clip-path:url(#SVGID_00000052821350973823602860000001335382287167497393_);}
	.st64{clip-path:url(#SVGID_00000125592902751113999870000011118659451912634008_);}
	.st65{clip-path:url(#SVGID_00000009547711346036085350000014458232061442095268_);}
	.st66{fill:#B9C9E9;}
	.st67{clip-path:url(#SVGID_00000050663743084660830890000004799463221737045135_);}
	.st68{clip-path:url(#SVGID_00000109011373553710509440000010420927578676855482_);}
	.st69{clip-path:url(#SVGID_00000133518482222915661480000006071906297690770870_);}
	.st70{clip-path:url(#SVGID_00000135682746766183199580000014126526068036130449_);}
	.st71{clip-path:url(#SVGID_00000092426864881144485570000006483648926243923113_);}
	.st72{clip-path:url(#SVGID_00000003805211030672985120000003892837079233487267_);}
	.st73{clip-path:url(#SVGID_00000162311079415740404980000012371544843345644676_);}
	.st74{clip-path:url(#SVGID_00000001634208730059520070000012871552067017333943_);}
	.st75{clip-path:url(#SVGID_00000079458474422363260620000003185275906272746887_);}
	.st76{clip-path:url(#SVGID_00000083775308054689712850000017635806524107523756_);}
	.st77{clip-path:url(#SVGID_00000044173598078229053500000003699550718650285188_);}
	.st78{clip-path:url(#SVGID_00000052099941383758971040000016051547958952700068_);}
	.st79{clip-path:url(#SVGID_00000040537378910358544850000007830476001945159045_);}
	.st80{clip-path:url(#SVGID_00000036959316726502100150000018412713342127540662_);}
	.st81{clip-path:url(#SVGID_00000047038229386356609840000005551926928491538817_);}
	.st82{clip-path:url(#SVGID_00000144327225752439286590000007194917762693786768_);}
	.st83{clip-path:url(#SVGID_00000057865146500481727230000006383436006989103284_);}
	.st84{clip-path:url(#SVGID_00000018238112884676223720000007184624460457840297_);}
	.st85{clip-path:url(#SVGID_00000109723545183657178330000010135283723848169361_);}
	.st86{clip-path:url(#SVGID_00000173128412544763010210000000187565834993643440_);}
	.st87{clip-path:url(#SVGID_00000043458856498845094280000011720181298593755553_);}
	.st88{clip-path:url(#SVGID_00000001639463522261363180000007311317970724916123_);}
	.st89{clip-path:url(#SVGID_00000115505146387297195840000008977448433724387474_);}
	.st90{clip-path:url(#SVGID_00000111880772733416694750000010903247716588197519_);}
	.st91{clip-path:url(#SVGID_00000059309927167546299550000009043480727585792138_);}
	.st92{clip-path:url(#SVGID_00000075145936834603919360000012135382245268998326_);}
	.st93{clip-path:url(#SVGID_00000074428250059239666540000017088333405222409385_);}
	.st94{clip-path:url(#SVGID_00000163059498966448858680000012165010174223409809_);}
	.st95{clip-path:url(#SVGID_00000181802497946521562940000008911865438017626501_);}
	.st96{clip-path:url(#SVGID_00000183239509556163282010000007807285656440560800_);}
	.st97{clip-path:url(#SVGID_00000033355892123704832350000002183770166613010866_);}
	.st98{clip-path:url(#SVGID_00000065061830007675850310000001184214718562068404_);}
	.st99{clip-path:url(#SVGID_00000039847393817110655470000016393070942318435232_);}
	.st100{clip-path:url(#SVGID_00000165222338205356377810000011644310722511583136_);}
	.st101{clip-path:url(#SVGID_00000019670124662345932650000011805987111260930477_);}
	.st102{clip-path:url(#SVGID_00000123438517534301401090000016063347252876383912_);}
	.st103{clip-path:url(#SVGID_00000069360525884219171400000006444515951082187145_);}
	.st104{clip-path:url(#SVGID_00000019636020434600991490000011856353558189001657_);}
	.st105{clip-path:url(#SVGID_00000178194363360671045240000001737833312683744902_);}
	.st106{clip-path:url(#SVGID_00000119813737312476457500000006720856856861933486_);}
	.st107{clip-path:url(#SVGID_00000028297304161658640350000002762411139096473257_);}
	.st108{clip-path:url(#SVGID_00000003788996978696551300000008126834043169967291_);}
	.st109{clip-path:url(#SVGID_00000096050402607606017610000006292188856077211016_);}
	.st110{clip-path:url(#SVGID_00000008865908680144962450000017559933932284877465_);}
	.st111{clip-path:url(#SVGID_00000027566840475210908060000003207872848753266365_);}
	.st112{clip-path:url(#SVGID_00000041289267650373543930000004478945938232208002_);}
	.st113{clip-path:url(#SVGID_00000121990607898296582390000011748612275031684745_);}
	.st114{clip-path:url(#SVGID_00000129205189377913743470000014166082568689310100_);}
	.st115{clip-path:url(#SVGID_00000116203454062713823500000003596121607204188839_);}
	.st116{clip-path:url(#SVGID_00000016797205369876282880000004422862894193861266_);}
	.st117{clip-path:url(#SVGID_00000106839919892074201300000007309282679763726989_);}
	.st118{clip-path:url(#SVGID_00000028321580694483246920000010936677064807724676_);}
	.st119{clip-path:url(#SVGID_00000002386441279612569530000011033627420249916065_);}
	.st120{clip-path:url(#SVGID_00000181775170270721807810000004580283146608410253_);}
	.st121{clip-path:url(#SVGID_00000091698197677219773050000006126955967945083061_);}
	.st122{clip-path:url(#SVGID_00000057841301691723007700000011469084526971748009_);}
	.st123{clip-path:url(#SVGID_00000097470196006635991290000004478321670601992625_);}
	.st124{clip-path:url(#SVGID_00000112601750566343582190000010146634470584042388_);}
	.st125{clip-path:url(#SVGID_00000018924890226717682700000013457610963622959773_);}
	.st126{clip-path:url(#SVGID_00000058581163403166130370000011013183091239236994_);}
	.st127{clip-path:url(#SVGID_00000160913569728604901650000012922730651315173806_);}
	.st128{clip-path:url(#SVGID_00000144315040710831190630000016311462140987447174_);}
	.st129{clip-path:url(#SVGID_00000163050106215559952340000004458521439164904605_);}
	.st130{clip-path:url(#SVGID_00000003813379485410866910000001189126947023815081_);}
	.st131{clip-path:url(#SVGID_00000127023230731717722620000006913992041204312978_);}
	.st132{clip-path:url(#SVGID_00000079487641348295099590000006798135302825876882_);}
	.st133{clip-path:url(#SVGID_00000114047275123346612340000011815150557132343485_);}
	.st134{clip-path:url(#SVGID_00000047052309825968309050000007448900859478027427_);}
	.st135{clip-path:url(#SVGID_00000002362067328207976310000012801503526591370116_);}
	.st136{clip-path:url(#SVGID_00000096027152435059725710000008064759344370734732_);}
	.st137{clip-path:url(#SVGID_00000020388754369437180030000009983480112467813800_);}
	.st138{clip-path:url(#SVGID_00000174604320218074596410000014144351814285842072_);}
	.st139{clip-path:url(#SVGID_00000146472564852162868410000000987762211858827919_);}
	.st140{clip-path:url(#SVGID_00000152236529416490190000000017180744147429527467_);}
	.st141{clip-path:url(#SVGID_00000055667755051187400580000005450294864032912005_);}
	.st142{clip-path:url(#SVGID_00000127041976937511412690000015084876644232104083_);}
	.st143{clip-path:url(#SVGID_00000008126911135020229720000013415722020050973117_);}
	.st144{clip-path:url(#SVGID_00000016066181520976387130000006301174970853665156_);}
	.st145{clip-path:url(#SVGID_00000160159216027205162420000007965448113889027239_);}
	.st146{clip-path:url(#SVGID_00000032624531108515450530000004149471567786062768_);}
	.st147{clip-path:url(#SVGID_00000000183870801847846920000012992315752827552392_);}
	.st148{clip-path:url(#SVGID_00000007422837902697169260000011048990901832232595_);}
	.st149{clip-path:url(#SVGID_00000101812294031466610400000009919060224041577629_);}
	.st150{clip-path:url(#SVGID_00000049924191791597339930000009940585331524967325_);}
	.st151{clip-path:url(#SVGID_00000080917678645363753880000006041605801332888746_);}
	.st152{clip-path:url(#SVGID_00000042702256281110338810000012006702102781116343_);}
	.st153{clip-path:url(#SVGID_00000154403970342822593720000008442792099459367087_);}
	.st154{clip-path:url(#SVGID_00000142138689963070688280000002436011354036421555_);}
	.st155{clip-path:url(#SVGID_00000163040976462599549180000006222926559197196692_);}
	.st156{clip-path:url(#SVGID_00000124876706476218628400000009905157800647531407_);}
	.st157{clip-path:url(#SVGID_00000066482857563971399700000004748593361420889531_);}
	.st158{clip-path:url(#SVGID_00000122682922876746165630000003995295584164417177_);}
	.st159{clip-path:url(#SVGID_00000039091917110977729640000003257965657390943401_);}
	.st160{clip-path:url(#SVGID_00000039848342738637238270000001929186455200928151_);}
	.st161{clip-path:url(#SVGID_00000170996254359956049980000015463407187528156802_);}
	.st162{clip-path:url(#SVGID_00000109011475158367093510000012217310853643368589_);}
	.st163{clip-path:url(#SVGID_00000181782486570099918830000005398503709751764408_);}
	.st164{clip-path:url(#SVGID_00000078757027430204701550000009745672745114425522_);}
	.st165{clip-path:url(#SVGID_00000175300366383057299620000007778192928821662139_);}
	.st166{clip-path:url(#SVGID_00000124849641499831936460000006963340536032659116_);}
	.st167{clip-path:url(#SVGID_00000167385914114765267520000014931036128362758814_);}
	.st168{clip-path:url(#SVGID_00000018205650162502402790000017703219074955540881_);}
	.st169{clip-path:url(#SVGID_00000063625250746761853530000013583114996493738405_);}
	.st170{clip-path:url(#SVGID_00000153703524863528390450000004443808063605286311_);}
	.st171{clip-path:url(#SVGID_00000056390067031671776250000017312858839847719571_);}
	.st172{clip-path:url(#SVGID_00000121971169593067908120000017909225780498294707_);}
	.st173{clip-path:url(#SVGID_00000116231039477203049310000004327946283596348575_);}
	.st174{clip-path:url(#SVGID_00000140712766612898981420000013673145376755837882_);}
	.st175{clip-path:url(#SVGID_00000160183571968280719690000013449386302344346752_);}
	.st176{clip-path:url(#SVGID_00000132786353889494693880000015812501194761598092_);}
	.st177{clip-path:url(#SVGID_00000005227524323923959590000013071694425526687132_);}
	.st178{clip-path:url(#SVGID_00000050625356854902383200000013459208895018404758_);}
	.st179{clip-path:url(#SVGID_00000132066351497178853150000016512883101282530201_);}
	.st180{clip-path:url(#SVGID_00000017495728588106617510000012041809199358641796_);}
	.st181{clip-path:url(#SVGID_00000113311538613506421280000006639645868424334759_);}
	.st182{clip-path:url(#SVGID_00000125595994477076890600000006308178123596850822_);}
	.st183{clip-path:url(#SVGID_00000124130490189026978850000014169535671065951900_);}
	.st184{clip-path:url(#SVGID_00000062882220913623034360000001706535680751336882_);}
	.st185{clip-path:url(#SVGID_00000031918969671661844960000011958817563010303389_);}
	.st186{clip-path:url(#SVGID_00000165213119805981240590000017297155938505494428_);}
	.st187{clip-path:url(#SVGID_00000005951012536783198510000016222631062732286346_);}
	.st188{clip-path:url(#SVGID_00000160172803548919180080000013383748218769769659_);}
	.st189{clip-path:url(#SVGID_00000168837917553603296550000008813134063847008666_);}
	.st190{clip-path:url(#SVGID_00000048481979191301224620000015416482415648000146_);}
	.st191{clip-path:url(#SVGID_00000071531359491427906240000011570881061707492276_);}
	.st192{clip-path:url(#SVGID_00000067921225025983667340000010965353977181195172_);}
	.st193{clip-path:url(#SVGID_00000180358242575007904760000011902452412121410742_);}
	.st194{clip-path:url(#SVGID_00000111913678710436728310000002132848180865831815_);}
	.st195{clip-path:url(#SVGID_00000171000480778473804180000017795002543120394430_);}
	.st196{clip-path:url(#SVGID_00000163789793899408896500000007216226421452615583_);}
	.st197{clip-path:url(#SVGID_00000160897215313066874280000010726437338358763710_);}
	.st198{clip-path:url(#SVGID_00000152944844179556854850000018119420470333203107_);}
	.st199{clip-path:url(#SVGID_00000031923853642402248730000011904293641933378964_);}
	.st200{clip-path:url(#SVGID_00000041987213619921059360000000162884291294611610_);}
	.st201{clip-path:url(#SVGID_00000083779766140570463680000005698893808809976207_);}
	.st202{clip-path:url(#SVGID_00000036935432284381860650000003149362584517830276_);}
	.st203{clip-path:url(#SVGID_00000066498205074416750060000012612591568511949479_);}
	.st204{clip-path:url(#SVGID_00000072962889245867931830000013544612091256706435_);}
	.st205{clip-path:url(#SVGID_00000095298045846692376960000013001153309406710170_);}
	.st206{clip-path:url(#SVGID_00000024705843047895860300000002949097527200604818_);}
	.st207{clip-path:url(#SVGID_00000034062374970559187880000018243996494771925648_);}
	.st208{clip-path:url(#SVGID_00000003819568370750398490000001822523460856226992_);}
	.st209{clip-path:url(#SVGID_00000018927434233376563890000012661050194888734652_);}
	.st210{clip-path:url(#SVGID_00000082340344598909892270000012346894841206956974_);}
	.st211{clip-path:url(#SVGID_00000043436305868271491110000006583631161200024461_);}
	.st212{clip-path:url(#SVGID_00000018929868931524988520000005052364596232463521_);}
	.st213{clip-path:url(#SVGID_00000030481888199752126360000004598742472634168467_);}
	.st214{clip-path:url(#SVGID_00000049918650191713579340000004973938818304246915_);}
	.st215{clip-path:url(#SVGID_00000093178064035969129610000010313056862208443033_);}
	.st216{clip-path:url(#SVGID_00000111176611110157652370000007302819547018468774_);}
	.st217{clip-path:url(#SVGID_00000082357936721279107550000002210544995463300776_);}
	.st218{clip-path:url(#SVGID_00000058557347271608613350000015984749533946433158_);}
	.st219{clip-path:url(#SVGID_00000155118461046499173980000017285362621294720150_);}
	.st220{clip-path:url(#SVGID_00000014626862392305970430000006539714800055280774_);}
	.st221{clip-path:url(#SVGID_00000052075486661837384340000009825164624051980460_);}
	.st222{clip-path:url(#SVGID_00000028300687426921976070000009935515811873392040_);}
	.st223{clip-path:url(#SVGID_00000076592668168771555760000017179245863382449313_);}
	.st224{clip-path:url(#SVGID_00000072978330583912066110000018042471038117917595_);}
	.st225{clip-path:url(#SVGID_00000055691350937887861610000017587171916571026366_);}
	.st226{clip-path:url(#SVGID_00000057864525261339199980000000211189821850860207_);}
	.st227{clip-path:url(#SVGID_00000005964725500644714250000003947866160799870380_);}
	.st228{clip-path:url(#SVGID_00000071555836247484487540000011876214167806064517_);}
	.st229{clip-path:url(#SVGID_00000025443522707893160330000000737782777303302840_);}
	.st230{clip-path:url(#SVGID_00000121239610031403521910000006677624990279812756_);}
	.st231{clip-path:url(#SVGID_00000137812769083193621970000003623823522224882586_);}
	.st232{clip-path:url(#SVGID_00000054229391799304567200000011720249833675363989_);}
	.st233{clip-path:url(#SVGID_00000128473996247578469800000006873404917485573520_);}
	.st234{clip-path:url(#SVGID_00000057108027428006766580000004777411447908169629_);}
	.st235{clip-path:url(#SVGID_00000013183666377339597510000002683438398317632661_);}
	.st236{clip-path:url(#SVGID_00000158030095588445509260000008155607441112410270_);}
	.st237{clip-path:url(#SVGID_00000063600337013655754930000013357743504514375834_);}
	.st238{clip-path:url(#SVGID_00000054958763171808764480000015447657125124999305_);}
	.st239{clip-path:url(#SVGID_00000062910792006009420090000013183144293098103713_);}
	.st240{clip-path:url(#SVGID_00000075861943011489154490000007435580549628165008_);}
	.st241{clip-path:url(#SVGID_00000013193552508287374660000001833678637572630970_);}
	.st242{clip-path:url(#SVGID_00000116924623234804501260000000109710672705599150_);}
	.st243{clip-path:url(#SVGID_00000139290202054931622240000013933067069394955907_);}
	.st244{clip-path:url(#SVGID_00000019655633625013460680000001602862807873979059_);}
	.st245{clip-path:url(#SVGID_00000057112995930783833570000010125313939844421532_);}
	.st246{clip-path:url(#SVGID_00000114048375220721176130000017594229866168610462_);}
	.st247{clip-path:url(#SVGID_00000080181515811662643230000003640494865710659974_);}
	.st248{clip-path:url(#SVGID_00000147902195377581248680000006250333738796400554_);}
	.st249{clip-path:url(#SVGID_00000021077958220921645510000002642309023437007260_);}
	.st250{clip-path:url(#SVGID_00000163038009331167999020000013985520941206201757_);}
	.st251{clip-path:url(#SVGID_00000149378574766845718970000016493282180486593187_);}
	.st252{clip-path:url(#SVGID_00000120530189609126245380000005687800020643745981_);}
	.st253{clip-path:url(#SVGID_00000067946065376261285660000008495408817633669042_);}
	.st254{clip-path:url(#SVGID_00000130635127915331106550000014532522740313175212_);}
	.st255{clip-path:url(#SVGID_00000014607749083223771780000007732843222197063321_);}
	.st256{clip-path:url(#SVGID_00000121251579807690788410000000392967668161564065_);}
	.st257{clip-path:url(#SVGID_00000053517176156495736390000011639034241897220257_);}
	.st258{clip-path:url(#SVGID_00000060004412119074927390000018249493105427026854_);}
	.st259{clip-path:url(#SVGID_00000135660147046443029530000005445822203557259670_);}
	.st260{clip-path:url(#SVGID_00000056429715695400714750000010254556112218808963_);}
	.st261{clip-path:url(#SVGID_00000077293060379755298260000009792869839472292270_);}
	.st262{clip-path:url(#SVGID_00000142152642478485838940000013645249998886494091_);}
	.st263{clip-path:url(#SVGID_00000160154658025653298450000001773882554491824297_);}
	.st264{clip-path:url(#SVGID_00000039106285061777070870000017470140391629581450_);}
	.st265{clip-path:url(#SVGID_00000031913657574396158560000013299396742768235446_);}
	.st266{clip-path:url(#SVGID_00000086670265041102871150000001348466040382199941_);}
	.st267{clip-path:url(#SVGID_00000072976773324457547020000010130599799209539766_);}
	.st268{clip-path:url(#SVGID_00000161589454189154076970000003398635160745512630_);}
	.st269{clip-path:url(#SVGID_00000178178190235109972860000008976576931924740510_);}
	.st270{clip-path:url(#SVGID_00000178195105107003341510000013592314149076650935_);}
	.st271{clip-path:url(#SVGID_00000175324905785189057380000013758408798163537831_);}
	.st272{clip-path:url(#SVGID_00000020387837945896999660000012593566432347438504_);}
	.st273{clip-path:url(#SVGID_00000078722939439531031370000015139471346530183603_);}
	.st274{clip-path:url(#SVGID_00000059992129240754151970000017596866925676193163_);}
	.st275{clip-path:url(#SVGID_00000008124267094808774540000010207261062060740287_);}
	.st276{clip-path:url(#SVGID_00000126284007454939693610000010570102773610744242_);}
	.st277{clip-path:url(#SVGID_00000001653265608918158780000015115214882252109203_);}
	.st278{clip-path:url(#SVGID_00000039824229381490538860000002915651935511014568_);}
	.st279{clip-path:url(#SVGID_00000044893689899334562590000015569804558287128216_);}
	.st280{clip-path:url(#SVGID_00000041285955645146366070000004801271039694288516_);}
	.st281{clip-path:url(#SVGID_00000076575686087563379920000003684076780120063413_);}
	.st282{clip-path:url(#SVGID_00000140705817988365513810000004594481622890704812_);}
	.st283{clip-path:url(#SVGID_00000163030409682229532420000013614967345076220348_);}
	.st284{clip-path:url(#SVGID_00000160166715594293006490000016517082339517731721_);}
	.st285{clip-path:url(#SVGID_00000114754541920138698860000013340342861303884975_);}
	.st286{clip-path:url(#SVGID_00000178168436562933567010000007498266269740701080_);}
	.st287{clip-path:url(#SVGID_00000062191062715624877890000006050914924378060168_);}
	.st288{clip-path:url(#SVGID_00000044865882077775225780000005205902058720820889_);}
	.st289{clip-path:url(#SVGID_00000009581171969928720470000012829448660754068624_);}
	.st290{clip-path:url(#SVGID_00000170981055992007626520000015226287094813318833_);}
	.st291{clip-path:url(#SVGID_00000070079801430168898550000017136491651317286050_);}
	.st292{clip-path:url(#SVGID_00000008140889249843694820000004869503652634680511_);}
	.st293{clip-path:url(#SVGID_00000055687826146107412990000000726570925392322181_);}
	.st294{clip-path:url(#SVGID_00000175292571140788718290000015819959645014041515_);}
	.st295{clip-path:url(#SVGID_00000090995645678724810100000003496364016713767066_);}
	.st296{clip-path:url(#SVGID_00000080897167810655196100000014828728681034146966_);}
	.st297{clip-path:url(#SVGID_00000138542179480562821590000000563827162587223947_);}
	.st298{clip-path:url(#SVGID_00000133528429710430212410000005453650553033456830_);}
	.st299{clip-path:url(#SVGID_00000148657962015766038780000010377263658704899460_);}
	.st300{clip-path:url(#SVGID_00000016776033440547289400000000444678936507903638_);}
	.st301{clip-path:url(#SVGID_00000008107815587061619840000006954136143579978670_);}
	.st302{clip-path:url(#SVGID_00000074443945394297317090000010150812690720914342_);}
	.st303{clip-path:url(#SVGID_00000119096963168035618830000010210631827223606682_);}
	.st304{clip-path:url(#SVGID_00000139275903462394876150000012750193358698073232_);}
	.st305{clip-path:url(#SVGID_00000088825834832748668130000005225594044220659602_);}
	.st306{clip-path:url(#SVGID_00000063615367771537080090000009825984863571689918_);}
	.st307{clip-path:url(#SVGID_00000085936620030448432960000001601194413238954667_);}
	.st308{clip-path:url(#SVGID_00000045608967575653191030000004853819222016398475_);}
	.st309{clip-path:url(#SVGID_00000160895236993287222000000017893386863716461697_);}
	.st310{clip-path:url(#SVGID_00000067948309201176077480000006917331094522475178_);}
	.st311{clip-path:url(#SVGID_00000074432385279100636060000001514345960774098872_);}
	.st312{clip-path:url(#SVGID_00000013903436840524966310000013454302300353839284_);}
	.st313{clip-path:url(#SVGID_00000033360534071780370310000006487342699079684795_);}
	.st314{clip-path:url(#SVGID_00000160877491903695132560000004267907873422969761_);}
	.st315{clip-path:url(#SVGID_00000004529633547067478550000004007652476579117461_);}
	.st316{clip-path:url(#SVGID_00000087407411499620632070000009313733144420517038_);}
	.st317{clip-path:url(#SVGID_00000176004977093744348960000006138373920103547781_);}
	.st318{clip-path:url(#SVGID_00000119114712754016041480000016009683363192025491_);}
	.st319{clip-path:url(#SVGID_00000037672036892134389740000007252228562659324348_);}
	.st320{clip-path:url(#SVGID_00000124146581161824527300000010800680454820288669_);}
	.st321{clip-path:url(#SVGID_00000160879495478265950120000012554565771150423454_);}
	.st322{clip-path:url(#SVGID_00000038386662725355734380000008217604449476267411_);}
	.st323{clip-path:url(#SVGID_00000150800088800942053880000007222906830994393737_);}
	.st324{clip-path:url(#SVGID_00000031887448075772498790000006344962942857471893_);}
	.st325{clip-path:url(#SVGID_00000098906214568971583500000007526391737454234525_);}
	.st326{clip-path:url(#SVGID_00000020357465960811902390000011619582519785483175_);}
	.st327{clip-path:url(#SVGID_00000181060051360502803330000005848074570650118845_);}
	.st328{clip-path:url(#SVGID_00000013897026628018881690000011476301141027285390_);}
	.st329{clip-path:url(#SVGID_00000064320593157188291660000017529609173014860728_);}
	.st330{clip-path:url(#SVGID_00000133509629888047330980000006619307937564220054_);}
	.st331{clip-path:url(#SVGID_00000127761303941047759070000000244334310709594547_);}
	.st332{clip-path:url(#SVGID_00000172412762687046378070000015371007877535485630_);}
	.st333{clip-path:url(#SVGID_00000047776675263648160820000003873312030345056945_);}
	.st334{clip-path:url(#SVGID_00000002345713296732988970000003999829957513323420_);}
	.st335{clip-path:url(#SVGID_00000030448569670707672450000002192784062374400667_);}
	.st336{clip-path:url(#SVGID_00000113333189653678741230000012868446675062454974_);}
	.st337{clip-path:url(#SVGID_00000110459201334739491510000010829377444207356578_);}
	.st338{clip-path:url(#SVGID_00000159469745130030172010000001450001608665176724_);}
	.st339{clip-path:url(#SVGID_00000127750312520440152880000005308170663972670628_);}
	.st340{clip-path:url(#SVGID_00000023250373829836039090000013240664908282716572_);}
	.st341{clip-path:url(#SVGID_00000119110330393528076510000000798407419887377335_);}
	.st342{clip-path:url(#SVGID_00000013185018022326243100000015043891456605182104_);}
	.st343{clip-path:url(#SVGID_00000128477044333129523940000005033150503808643994_);}
	.st344{clip-path:url(#SVGID_00000076587108499093995050000010236022800388072097_);}
	.st345{clip-path:url(#SVGID_00000097490444433103386900000010973637645259474871_);}
	.st346{clip-path:url(#SVGID_00000063602739679756022090000000206005078191216312_);}
	.st347{clip-path:url(#SVGID_00000024690786269366332370000009350898253205380003_);}
	.st348{clip-path:url(#SVGID_00000169541546164300979260000016804889453719628939_);}
	.st349{clip-path:url(#SVGID_00000147902973774095195810000003444780051903521188_);}
	.st350{clip-path:url(#SVGID_00000019654018726385620660000010755667852287540365_);}
	.st351{clip-path:url(#SVGID_00000119805145702713371500000015537344261367693704_);}
	.st352{clip-path:url(#SVGID_00000159466026654386359990000001863687435086820799_);}
	.st353{clip-path:url(#SVGID_00000166649404023575684660000017813508802015768461_);}
	.st354{clip-path:url(#SVGID_00000098937292377934586940000013533926087840827296_);}
	.st355{clip-path:url(#SVGID_00000165951735668629213180000010553048796116050097_);}
	.st356{clip-path:url(#SVGID_00000101810267513417558340000004477354308924693166_);}
	.st357{clip-path:url(#SVGID_00000168107503305532796330000013079983913998279071_);}
	.st358{clip-path:url(#SVGID_00000088103690167859188990000003044419419195842198_);}
	.st359{clip-path:url(#SVGID_00000121998335527260610510000018307323264196038301_);}
	.st360{clip-path:url(#SVGID_00000064337863726057863260000014839717669640087461_);}
	.st361{clip-path:url(#SVGID_00000096762778578047459900000007299455882672278975_);}
	.st362{clip-path:url(#SVGID_00000090290298192131429400000015125943912204324000_);}
	.st363{clip-path:url(#SVGID_00000001664858873427406830000014639865039592703882_);}
	.st364{clip-path:url(#SVGID_00000058590910006383387770000011287111030335038618_);}
	.st365{clip-path:url(#SVGID_00000029724671044387815270000002339677010314350486_);}
	.st366{clip-path:url(#SVGID_00000173856857091591320260000018103228233096417940_);}
	.st367{clip-path:url(#SVGID_00000137827927749481331860000005457576683171815342_);}
	.st368{clip-path:url(#SVGID_00000058589756878118665750000011883730730987944082_);}
	.st369{clip-path:url(#SVGID_00000042736284283632453530000009123070304620198044_);}
	.st370{clip-path:url(#SVGID_00000088855500842053522100000012380768726756876694_);}
	.st371{clip-path:url(#SVGID_00000163755019573887235920000002933644064461725588_);}
	.st372{clip-path:url(#SVGID_00000016791240008481942090000010074890388516358797_);}
	.st373{clip-path:url(#SVGID_00000051367228025615907750000007724201988847875491_);}
	.st374{clip-path:url(#SVGID_00000159450280286925583100000015940077060932092058_);}
	.st375{clip-path:url(#SVGID_00000091700697470093197390000002294834206898750909_);}
</style>
<g>
	<g>
		<rect x="2.85" y="135.31" class="st0" width="48.54" height="795.77"/>
	</g>
	<g>
		<rect x="1.26" y="2.16" class="st1" width="997.9" height="134.44"/>
	</g>
	<g>
		<defs>
			<rect id="SVGID_00000054251315039433417000000003359861565033270195_" y="0" width="1000" height="935.58"/>
		</defs>
		<clipPath id="SVGID_00000173136545069410446150000001366015611778853278_">
			<use xlink:href="#SVGID_00000054251315039433417000000003359861565033270195_"  style="overflow:visible;"/>
		</clipPath>
		<g style="clip-path:url(#SVGID_00000173136545069410446150000001366015611778853278_);">
			<path class="st3" d="M997.19,935.58H1.69c-0.93,0-1.68-0.75-1.68-1.68V1.69C0,0.76,0.76,0,1.69,0h995.51
				c0.93,0,1.68,0.75,1.68,1.68v932.21C998.87,934.82,998.12,935.58,997.19,935.58z M3.37,932.21h992.14V3.37H3.37V932.21z"/>
		</g>
		<g style="clip-path:url(#SVGID_00000173136545069410446150000001366015611778853278_);">
			<rect x="2.06" y="133.63" class="st3" width="997.94" height="3.37"/>
		</g>
		<g style="clip-path:url(#SVGID_00000173136545069410446150000001366015611778853278_);">
			<path class="st4" d="M825.85,68.02h-14.46c0.07-1.69,0.29-2.71,0.88-4.1c1.02-2.27,3.14-3.95,6.36-3.95
				c3.21,0,5.33,1.68,6.36,3.95C825.55,65.31,825.77,66.33,825.85,68.02 M835.2,74.51v-4.23c0-10.45-5.99-18.18-16.58-18.18
				c-9.86,0-16.58,7-16.58,19.43c0,15.41,8.61,19.5,17.6,19.5c6.87,0,10.59-2.12,14.46-5.98l-5.77-5.62
				c-2.41,2.41-4.46,3.58-8.62,3.58c-5.33,0-8.33-3.58-8.33-8.48H835.2z M796.33,60.85v-7.22h-7.01v-4.17c0-2.2,1.02-3.44,3.29-3.44
				h3.73v-8.02h-5.41c-7.74,0-11.1,5.47-11.1,10.88v4.75h-3.94v7.22h3.94v29.73h9.49V60.85H796.33z M766.68,38.29h-9.7v7.73h9.7
				V38.29z M766.6,52.53h-9.49v38.05h9.49V52.53z M737.53,68.02h-14.46c0.07-1.69,0.29-2.71,0.88-4.1c1.02-2.27,3.14-3.95,6.36-3.95
				c3.21,0,5.33,1.68,6.36,3.95C737.24,65.31,737.46,66.33,737.53,68.02 M746.88,74.51v-4.23c0-10.45-5.99-18.18-16.58-18.18
				c-9.86,0-16.58,7-16.58,19.43c0,15.41,8.61,19.5,17.6,19.5c6.87,0,10.59-2.12,14.46-5.98l-5.77-5.62
				c-2.41,2.41-4.46,3.58-8.62,3.58c-5.33,0-8.33-3.58-8.33-8.48H746.88z M711.01,55.66c-2.63-2.63-5.26-3.57-8.98-3.57
				c-4.09,0-7.74,1.89-9.57,4.09v-3.65h-9.27v38.05h9.49V67.64c0-4.82,3.21-7.01,6.14-7.01c2.34,0,3.58,0.8,5.04,2.26L711.01,55.66z
				 M674.12,90.58v-8.02h-3.65c-2.41,0-3.36-1.17-3.36-3.43V38.58h-9.48V79.7c0,5.4,3.28,10.87,11.09,10.87H674.12z M645.86,90.58
				V52.53h-9.48v23.01c0,5.19-3.37,6.94-6.36,6.94c-3,0-6.29-1.75-6.29-6.94V52.53h-9.48v24.32c0,4.16,0.8,7.74,3.87,10.81
				c2.12,2.11,5.18,3.35,8.98,3.35c3.51,0,7.02-1.31,9.51-3.94v3.5H645.86z M602.98,90.58V65.96c0-8.03-4.38-13.87-12.7-13.87
				c-3.36,0-6.57,1.31-9.14,3.94V38.58h-9.49v52h9.49V67.35c0-4.97,3.15-6.72,6.14-6.72c2.99,0,6.21,1.68,6.21,6.72v23.23H602.98z
				 M562.8,85.83l-6.43-6.36c-1.97,2.12-3.65,3-6.14,3c-2.26,0-4.02-0.8-5.41-2.49c-1.46-1.83-2.12-4.46-2.12-8.47
				s0.66-6.58,2.12-8.41c1.39-1.68,3.14-2.48,5.41-2.48c2.48,0,4.16,0.88,6.14,2.99l6.43-6.42c-3.36-3.51-7.3-5.11-12.56-5.11
				c-7.6,0-17.01,4.01-17.01,19.43s9.41,19.5,17.01,19.5C555.49,91.01,559.44,89.33,562.8,85.83 M525.7,78.6
				c0-6.43-3.8-10.45-11.32-11.18l-5.99-0.59c-3.36-0.29-3.94-1.9-3.94-3.29c0-1.9,1.61-3.65,5.41-3.65c3.29,0,6.65,0.58,8.84,2.56
				l5.84-5.91c-3.65-3.43-8.62-4.45-14.54-4.45c-7.74,0-14.68,4.23-14.68,12.11c0,7.02,4.24,10.01,11.1,10.67l5.99,0.58
				c2.99,0.29,4.02,1.61,4.02,3.51c0,2.85-3.43,3.95-6.72,3.95c-2.92,0-7.01-0.44-10.15-3.58l-6.21,6.21
				c4.82,4.82,10.23,5.47,16.22,5.47C518.54,91.01,525.7,87,525.7,78.6 M485.37,90.58V65.96c0-8.03-4.38-13.87-12.7-13.87
				c-3.37,0-6.58,1.31-9.14,3.94V38.58h-9.49v52h9.49V67.35c0-4.97,3.14-6.72,6.14-6.72c3,0,6.21,1.68,6.21,6.72v23.23H485.37z
				 M445.2,85.83l-6.43-6.36c-1.97,2.12-3.65,3-6.14,3c-2.26,0-4.02-0.8-5.41-2.49c-1.46-1.83-2.12-4.46-2.12-8.47
				s0.66-6.58,2.12-8.41c1.39-1.68,3.14-2.48,5.41-2.48c2.48,0,4.16,0.88,6.14,2.99l6.43-6.42c-3.36-3.51-7.3-5.11-12.56-5.11
				c-7.6,0-17.01,4.01-17.01,19.43s9.42,19.5,17.01,19.5C437.89,91.01,441.84,89.33,445.2,85.83 M397.5,71.52
				c0,3.94-0.22,7.3-2.19,9.28c-1.1,1.1-2.56,1.69-4.46,1.69c-1.9,0-3.29-0.58-4.38-1.69c-1.97-1.97-2.19-5.33-2.19-9.28
				s0.22-7.24,2.19-9.21c1.1-1.1,2.48-1.68,4.38-1.68c1.9,0,3.37,0.58,4.46,1.68C397.28,64.28,397.5,67.57,397.5,71.52
				 M406.99,71.52c0-6.87-0.88-11.18-4.31-14.76c-2.33-2.48-6.2-4.67-11.83-4.67c-5.62,0-9.42,2.19-11.76,4.67
				c-3.43,3.57-4.3,7.88-4.3,14.76c0,6.94,0.88,11.26,4.3,14.83c2.34,2.48,6.14,4.67,11.76,4.67c5.63,0,9.5-2.19,11.83-4.67
				C406.12,82.77,406.99,78.46,406.99,71.52 M364.7,90.58V65.96c0-8.03-4.38-13.87-12.7-13.87c-3.36,0-6.58,1.31-9.14,3.94V38.58
				h-9.49v52h9.49V67.35c0-4.97,3.14-6.72,6.14-6.72c2.99,0,6.21,1.68,6.21,6.72v23.23H364.7z M321.67,90.58V65.96
				c0-8.03-4.38-13.87-12.7-13.87c-3.36,0-6.58,1.31-9.14,3.94V38.58h-9.49v52h9.49V67.35c0-4.97,3.14-6.72,6.14-6.72
				c2.99,0,6.21,1.68,6.21,6.72v23.23H321.67z M281.5,85.83l-6.43-6.36c-1.97,2.12-3.65,3-6.14,3c-2.26,0-4.02-0.8-5.41-2.49
				c-1.46-1.83-2.12-4.46-2.12-8.47s0.66-6.58,2.12-8.41c1.39-1.68,3.14-2.48,5.41-2.48c2.48,0,4.16,0.88,6.14,2.99l6.43-6.42
				c-3.36-3.51-7.3-5.11-12.56-5.11c-7.6,0-17.01,4.01-17.01,19.43s9.41,19.5,17.01,19.5C274.19,91.01,278.14,89.33,281.5,85.83
				 M232.64,76.55c0,2.34-0.37,3.88-1.39,4.83c-1.69,1.61-3.37,1.83-6,1.83c-3.73,0-5.48-1.76-5.48-4.39c0-2.71,1.9-4.32,5.34-4.32
				h7.53V76.55z M242.12,90.58V65.53c0-8.91-5.55-13.44-16.21-13.44c-6.36,0-10.01,1.16-13.73,5.25l6.06,5.92
				c1.97-2.27,3.65-3.15,7.31-3.15c5.04,0,7.09,1.83,7.09,6v1.9h-8.99c-8.84,0-13,4.96-13,11.02c0,3.36,1.1,6.43,3.14,8.55
				c2.26,2.26,5.4,3.35,9.72,3.35c4.38,0,6.79-1.1,9.36-3.65v3.28H242.12z M206.18,47.62v-9.05h-34.25v52h10.14V69.47h20.53v-9.05
				h-20.53V47.62H206.18z"/>
		</g>
		<g style="clip-path:url(#SVGID_00000173136545069410446150000001366015611778853278_);">
			<rect x="3.09" y="464.7" class="st3" width="992.7" height="3.37"/>
		</g>
		<g style="clip-path:url(#SVGID_00000173136545069410446150000001366015611778853278_);">
			<rect x="3.09" y="347.82" class="st3" width="992.7" height="3.37"/>
		</g>
		<g style="clip-path:url(#SVGID_00000173136545069410446150000001366015611778853278_);">
			<rect x="3.09" y="236.56" class="st3" width="992.7" height="3.37"/>
		</g>
		<g style="clip-path:url(#SVGID_00000173136545069410446150000001366015611778853278_);">
			<rect x="3.09" y="578.76" class="st3" width="992.7" height="3.37"/>
		</g>
		<g style="clip-path:url(#SVGID_00000173136545069410446150000001366015611778853278_);">
			<rect x="3.09" y="701.26" class="st3" width="992.7" height="3.37"/>
		</g>
		<g style="clip-path:url(#SVGID_00000173136545069410446150000001366015611778853278_);">
			<rect x="3.09" y="818.14" class="st3" width="992.7" height="3.37"/>
		</g>
		<g style="clip-path:url(#SVGID_00000173136545069410446150000001366015611778853278_);">
			<path class="st3" d="M698.95,777.01c0,4.06-2.4,6.62-5.82,6.62c-3.42,0-5.77-2.57-5.77-6.62c0-4.11,2.35-6.57,5.77-6.57
				C696.76,770.44,698.95,773.27,698.95,777.01 M704.39,776.9c0-6.68-4.48-10.99-9.98-10.99c-1.17,0-2.35,0.16-3.36,0.58l8.17-16.33
				h-5.82l-8.65,17.62c-1.65,3.3-2.83,6.24-2.83,9.34c0,7.05,4.69,11.37,11.26,11.37S704.39,783.9,704.39,776.9 M663.07,784.64
				l-3.68-3.63c-1.66,1.66-2.78,2.62-5.23,2.62c-4.38,0-6.62-3.05-6.62-9.02c0-5.88,2.24-8.97,6.62-8.97c2.4,0,3.63,0.96,5.23,2.56
				l3.68-3.57c-1.71-1.71-2.56-2.29-4-2.93c-1.39-0.58-2.99-0.9-4.86-0.9c-7.57,0-12.11,5.17-12.11,13.72
				c0,8.81,4.48,13.98,12.11,13.98c1.87,0,3.42-0.26,4.86-0.9C660.51,786.94,661.36,786.35,663.07,784.64 M629.18,778.4
				c0,3.95-1.71,5.56-5.93,5.56c-3.69,0-5.34-1.23-5.34-3.85c0-2.56,1.65-3.84,4.86-3.84h6.41V778.4z M634.57,788.16v-18.09
				c0-6.14-3.79-9.28-11.32-9.28c-2.56,0-4.48,0.32-6.03,1.06c-1.33,0.59-2.02,1.23-3.52,2.83l3.57,3.37
				c0.8-1.02,1.39-1.55,2.19-1.92c0.96-0.48,2.08-0.7,3.64-0.7c4.27,0,6.09,1.49,6.09,5.02v1.98h-7.27c-5.77,0-9.28,2.93-9.28,7.84
				c0,5.23,3.36,8.16,9.39,8.16c3.21,0,4.97-0.48,7.21-2.72v2.45H634.57z M605.43,788.16v-27.06H586.9v11.26
				c0,10.47-2.78,11-5.12,11h-0.85v4.8h2.56c5.28,0,8.64-2.98,8.64-14.46v-7.85h7.86v22.31H605.43z M557.17,788.16v-19.85
				l15.32,19.85h7.32l-15.96-20.07l14.63-17.94h-7.1l-14.2,18.04v-18.04h-5.76v38H557.17z M532.56,746.21h-5.23l-15.22,45.9h5.23
				L532.56,746.21z M489.81,777.01c0,4.06-2.4,6.62-5.82,6.62c-3.42,0-5.77-2.57-5.77-6.62c0-4.11,2.35-6.57,5.77-6.57
				C487.62,770.44,489.81,773.27,489.81,777.01 M495.25,776.9c0-6.68-4.48-10.99-9.98-10.99c-1.17,0-2.35,0.16-3.37,0.58l8.18-16.33
				h-5.82l-8.65,17.62c-1.66,3.3-2.83,6.24-2.83,9.34c0,7.05,4.69,11.37,11.26,11.37C490.6,788.48,495.25,783.9,495.25,776.9
				 M447.63,772.42h-12.17c0.06-1.66,0.16-2.46,0.7-3.69c0.85-2.03,2.83-3.42,5.39-3.42c2.56,0,4.48,1.39,5.34,3.42
				C447.42,769.96,447.58,770.76,447.63,772.42 M453.02,776.2v-2.4c0-7.69-4.22-13.02-11.48-13.02c-6.94,0-11.47,5.06-11.47,13.82
				c0,10.3,5.38,13.87,12.17,13.87c4.75,0,7.37-1.44,10.14-4.21l-3.47-3.26c-1.92,1.92-3.52,2.78-6.56,2.78
				c-4.43,0-6.89-2.94-6.89-7.59H453.02z M424.31,779.89c0-4.8-2.99-7.21-8.06-7.64l-4.27-0.37c-2.88-0.27-3.74-1.49-3.74-3.1
				c0-2.03,1.65-3.47,4.91-3.47c2.56,0,4.96,0.53,6.67,1.98l3.42-3.47c-2.51-2.19-5.98-3.03-10.04-3.03
				c-5.66,0-10.19,2.98-10.19,8.27c0,4.75,2.93,7.05,8.01,7.48l4.32,0.37c2.62,0.21,3.63,1.39,3.63,3.2c0,2.57-2.61,3.74-5.92,3.74
				c-2.67,0-5.61-0.59-7.79-2.83l-3.58,3.58c3.2,3.14,6.94,3.89,11.37,3.89C419.5,788.48,424.31,785.55,424.31,779.89
				 M397.46,779.89c0-4.8-2.99-7.21-8.06-7.64l-4.27-0.37c-2.88-0.27-3.74-1.49-3.74-3.1c0-2.03,1.66-3.47,4.91-3.47
				c2.56,0,4.97,0.53,6.68,1.98l3.42-3.47c-2.51-2.19-5.98-3.03-10.04-3.03c-5.66,0-10.2,2.98-10.2,8.27c0,4.75,2.94,7.05,8.01,7.48
				l4.33,0.37c2.61,0.21,3.63,1.39,3.63,3.2c0,2.57-2.62,3.74-5.93,3.74c-2.67,0-5.6-0.59-7.79-2.83l-3.57,3.58
				c3.2,3.14,6.94,3.89,11.37,3.89C392.65,788.48,397.46,785.55,397.46,779.89 M363.08,778.4c0,1.92-0.37,3.2-1.17,4.01
				c-1.44,1.39-2.99,1.55-5.07,1.55c-3.42,0-4.97-1.39-4.97-3.85c0-2.46,1.66-3.9,4.86-3.9h6.36V778.4z M368.52,788.16v-18.09
				c0-6.14-3.73-9.28-11.15-9.28c-4.48,0-7.15,0.9-9.71,3.89l3.57,3.37c1.49-1.92,2.94-2.62,5.93-2.62c4.22,0,5.93,1.66,5.93,5.07
				v1.93h-7.15c-6.19,0-9.34,3.25-9.34,7.79c0,2.3,0.75,4.38,2.14,5.82c1.65,1.65,3.89,2.45,7.25,2.45c3.37,0,5.24-0.8,7.21-2.77
				v2.45H368.52z M342.1,788.16v-4.64h-2.4c-2.19,0-2.93-1.07-2.93-3.15v-30.21h-5.44v30.53c0,4,2.24,7.47,7.41,7.47H342.1z
				 M326.08,788.16l-13.62-23.11l12.33-14.89h-7.05l-15.54,19.11v-19.11h-5.75v38h5.75v-11.05l6.41-7.69l10.68,18.73H326.08z"/>
		</g>
		<g style="clip-path:url(#SVGID_00000173136545069410446150000001366015611778853278_);">
			<path class="st3" d="M704.93,632.52v-4.85h-22.63v10.83h5.23v-5.98h11.58l-12.76,33.15h5.87L704.93,632.52z M663.07,662.15
				l-3.68-3.63c-1.66,1.66-2.78,2.62-5.23,2.62c-4.38,0-6.62-3.05-6.62-9.02c0-5.88,2.24-8.97,6.62-8.97c2.4,0,3.63,0.96,5.23,2.56
				l3.68-3.57c-1.71-1.71-2.56-2.29-4-2.93c-1.39-0.58-2.99-0.9-4.86-0.9c-7.57,0-12.11,5.17-12.11,13.72
				c0,8.81,4.48,13.98,12.11,13.98c1.87,0,3.42-0.26,4.86-0.9C660.51,664.44,661.36,663.86,663.07,662.15 M629.18,655.9
				c0,3.95-1.71,5.56-5.93,5.56c-3.69,0-5.34-1.23-5.34-3.85c0-2.56,1.65-3.84,4.86-3.84h6.41V655.9z M634.57,665.67v-18.09
				c0-6.14-3.79-9.28-11.32-9.28c-2.56,0-4.48,0.32-6.03,1.06c-1.33,0.59-2.02,1.23-3.52,2.83l3.57,3.37
				c0.8-1.02,1.39-1.55,2.19-1.92c0.96-0.48,2.08-0.7,3.64-0.7c4.27,0,6.09,1.49,6.09,5.02v1.98h-7.27c-5.77,0-9.28,2.93-9.28,7.84
				c0,5.23,3.36,8.16,9.39,8.16c3.21,0,4.97-0.48,7.21-2.72v2.45H634.57z M605.43,665.67v-27.06H586.9v11.26
				c0,10.47-2.78,11-5.12,11h-0.85v4.8h2.56c5.28,0,8.64-2.98,8.64-14.46v-7.85h7.86v22.31H605.43z M557.17,665.67v-19.85
				l15.32,19.85h7.32l-15.96-20.07l14.63-17.94h-7.1l-14.2,18.04v-18.04h-5.76v38H557.17z M532.56,623.71h-5.23l-15.22,45.9h5.23
				L532.56,623.71z M495.79,632.52v-4.85h-22.63v10.83h5.23v-5.98h11.58l-12.76,33.15h5.87L495.79,632.52z M447.63,649.93h-12.17
				c0.06-1.66,0.16-2.46,0.7-3.69c0.85-2.03,2.83-3.42,5.39-3.42c2.56,0,4.48,1.39,5.34,3.42
				C447.42,647.46,447.58,648.27,447.63,649.93 M453.02,653.71v-2.4c0-7.69-4.22-13.02-11.48-13.02c-6.94,0-11.47,5.06-11.47,13.82
				c0,10.3,5.38,13.87,12.17,13.87c4.75,0,7.37-1.44,10.14-4.21l-3.47-3.26c-1.92,1.92-3.52,2.78-6.56,2.78
				c-4.43,0-6.89-2.94-6.89-7.59H453.02z M424.31,657.39c0-4.8-2.99-7.21-8.06-7.64l-4.27-0.37c-2.88-0.27-3.74-1.49-3.74-3.1
				c0-2.03,1.65-3.47,4.91-3.47c2.56,0,4.96,0.53,6.67,1.98l3.42-3.47c-2.51-2.19-5.98-3.03-10.04-3.03
				c-5.66,0-10.19,2.98-10.19,8.27c0,4.75,2.93,7.05,8.01,7.48l4.32,0.37c2.62,0.21,3.63,1.39,3.63,3.2c0,2.57-2.61,3.74-5.92,3.74
				c-2.67,0-5.61-0.59-7.79-2.83l-3.58,3.58c3.2,3.14,6.94,3.89,11.37,3.89C419.5,665.99,424.31,663.05,424.31,657.39
				 M397.46,657.39c0-4.8-2.99-7.21-8.06-7.64l-4.27-0.37c-2.88-0.27-3.74-1.49-3.74-3.1c0-2.03,1.66-3.47,4.91-3.47
				c2.56,0,4.97,0.53,6.68,1.98l3.42-3.47c-2.51-2.19-5.98-3.03-10.04-3.03c-5.66,0-10.2,2.98-10.2,8.27c0,4.75,2.94,7.05,8.01,7.48
				l4.33,0.37c2.61,0.21,3.63,1.39,3.63,3.2c0,2.57-2.62,3.74-5.93,3.74c-2.67,0-5.6-0.59-7.79-2.83l-3.57,3.58
				c3.2,3.14,6.94,3.89,11.37,3.89C392.65,665.99,397.46,663.05,397.46,657.39 M363.08,655.9c0,1.92-0.37,3.2-1.17,4.01
				c-1.44,1.39-2.99,1.55-5.07,1.55c-3.42,0-4.97-1.39-4.97-3.85c0-2.46,1.66-3.9,4.86-3.9h6.36V655.9z M368.52,665.67v-18.09
				c0-6.14-3.73-9.28-11.15-9.28c-4.48,0-7.15,0.9-9.71,3.89l3.57,3.37c1.49-1.92,2.94-2.62,5.93-2.62c4.22,0,5.93,1.66,5.93,5.07
				v1.93h-7.15c-6.19,0-9.34,3.25-9.34,7.79c0,2.3,0.75,4.38,2.14,5.82c1.65,1.65,3.89,2.45,7.25,2.45c3.37,0,5.24-0.8,7.21-2.77
				v2.45H368.52z M342.1,665.67v-4.64h-2.4c-2.19,0-2.93-1.07-2.93-3.15v-30.21h-5.44v30.53c0,4,2.24,7.47,7.41,7.47H342.1z
				 M326.08,665.67l-13.62-23.11l12.33-14.89h-7.05l-15.54,19.11v-19.11h-5.75v38h5.75v-11.05l6.41-7.69l10.68,18.73H326.08z"/>
		</g>
		<g style="clip-path:url(#SVGID_00000173136545069410446150000001366015611778853278_);">
			<path class="st3" d="M698.79,521.14c0,3.36-2.35,5.77-5.66,5.77c-3.31,0-5.61-2.41-5.61-5.77c0-3.32,2.3-5.82,5.61-5.82
				C696.44,515.32,698.79,517.83,698.79,521.14 M699.38,537.95c0,3.52-2.72,6.3-6.25,6.3c-3.52,0-6.25-2.78-6.25-6.3
				c0-3.52,2.73-6.36,6.25-6.36C696.66,531.6,699.38,534.43,699.38,537.95 M704.87,538.06c0-4.54-2.56-7.32-5.23-8.91
				c2.45-1.49,4.59-4.16,4.59-8.17c0-6.36-4.91-10.51-11.1-10.51c-6.19,0-11.05,4.16-11.05,10.51c0,4.01,2.14,6.68,4.59,8.17
				c-2.66,1.6-5.23,4.37-5.23,8.91c0,6.89,5.18,11.05,11.69,11.05C699.65,549.11,704.87,544.95,704.87,538.06 M663.07,545.27
				l-3.68-3.63c-1.66,1.66-2.78,2.62-5.23,2.62c-4.38,0-6.62-3.05-6.62-9.02c0-5.88,2.24-8.97,6.62-8.97c2.4,0,3.63,0.96,5.23,2.56
				l3.68-3.57c-1.71-1.71-2.56-2.29-4-2.93c-1.39-0.58-2.99-0.9-4.86-0.9c-7.57,0-12.11,5.17-12.11,13.72
				c0,8.81,4.48,13.98,12.11,13.98c1.87,0,3.42-0.26,4.86-0.9C660.51,547.56,661.36,546.98,663.07,545.27 M629.18,539.02
				c0,3.95-1.71,5.56-5.93,5.56c-3.69,0-5.34-1.23-5.34-3.85c0-2.56,1.65-3.84,4.86-3.84h6.41V539.02z M634.57,548.79v-18.09
				c0-6.14-3.79-9.28-11.32-9.28c-2.56,0-4.48,0.32-6.03,1.06c-1.33,0.59-2.02,1.23-3.52,2.83l3.57,3.37
				c0.8-1.02,1.39-1.55,2.19-1.92c0.96-0.48,2.08-0.7,3.64-0.7c4.27,0,6.09,1.49,6.09,5.02v1.98h-7.27c-5.77,0-9.28,2.93-9.28,7.84
				c0,5.23,3.36,8.16,9.39,8.16c3.21,0,4.97-0.48,7.21-2.72v2.45H634.57z M605.43,548.79v-27.06H586.9v11.26
				c0,10.47-2.78,11-5.12,11h-0.85v4.8h2.56c5.28,0,8.64-2.98,8.64-14.46v-7.85h7.86v22.31H605.43z M557.17,548.79v-19.85
				l15.32,19.85h7.32l-15.96-20.07l14.63-17.94h-7.1l-14.2,18.04v-18.04h-5.76v38H557.17z M532.56,506.84h-5.23l-15.22,45.9h5.23
				L532.56,506.84z M489.65,521.14c0,3.36-2.35,5.77-5.66,5.77c-3.31,0-5.61-2.41-5.61-5.77c0-3.32,2.3-5.82,5.61-5.82
				C487.3,515.32,489.65,517.83,489.65,521.14 M490.23,537.95c0,3.52-2.73,6.3-6.25,6.3c-3.52,0-6.25-2.78-6.25-6.3
				c0-3.52,2.73-6.36,6.25-6.36C487.51,531.6,490.23,534.43,490.23,537.95 M495.72,538.06c0-4.54-2.56-7.32-5.22-8.91
				c2.45-1.49,4.59-4.16,4.59-8.17c0-6.36-4.91-10.51-11.1-10.51c-6.19,0-11.05,4.16-11.05,10.51c0,4.01,2.14,6.68,4.59,8.17
				c-2.66,1.6-5.23,4.37-5.23,8.91c0,6.89,5.18,11.05,11.69,11.05C490.5,549.11,495.72,544.95,495.72,538.06 M447.63,533.05h-12.17
				c0.06-1.66,0.16-2.46,0.7-3.69c0.85-2.03,2.83-3.42,5.39-3.42c2.56,0,4.48,1.39,5.34,3.42
				C447.42,530.59,447.58,531.39,447.63,533.05 M453.02,536.83v-2.4c0-7.69-4.22-13.02-11.48-13.02c-6.94,0-11.47,5.06-11.47,13.82
				c0,10.3,5.38,13.87,12.17,13.87c4.75,0,7.37-1.44,10.14-4.21l-3.47-3.26c-1.92,1.92-3.52,2.78-6.56,2.78
				c-4.43,0-6.89-2.94-6.89-7.59H453.02z M424.31,540.52c0-4.8-2.99-7.21-8.06-7.64l-4.27-0.37c-2.88-0.27-3.74-1.49-3.74-3.1
				c0-2.03,1.65-3.47,4.91-3.47c2.56,0,4.96,0.53,6.67,1.98l3.42-3.47c-2.51-2.19-5.98-3.03-10.04-3.03
				c-5.66,0-10.19,2.98-10.19,8.27c0,4.75,2.93,7.05,8.01,7.48l4.32,0.37c2.62,0.21,3.63,1.39,3.63,3.2c0,2.57-2.61,3.74-5.92,3.74
				c-2.67,0-5.61-0.59-7.79-2.83l-3.58,3.58c3.2,3.14,6.94,3.89,11.37,3.89C419.5,549.11,424.31,546.18,424.31,540.52
				 M397.46,540.52c0-4.8-2.99-7.21-8.06-7.64l-4.27-0.37c-2.88-0.27-3.74-1.49-3.74-3.1c0-2.03,1.66-3.47,4.91-3.47
				c2.56,0,4.97,0.53,6.68,1.98l3.42-3.47c-2.51-2.19-5.98-3.03-10.04-3.03c-5.66,0-10.2,2.98-10.2,8.27c0,4.75,2.94,7.05,8.01,7.48
				l4.33,0.37c2.61,0.21,3.63,1.39,3.63,3.2c0,2.57-2.62,3.74-5.93,3.74c-2.67,0-5.6-0.59-7.79-2.83l-3.57,3.58
				c3.2,3.14,6.94,3.89,11.37,3.89C392.65,549.11,397.46,546.18,397.46,540.52 M363.08,539.02c0,1.92-0.37,3.2-1.17,4.01
				c-1.44,1.39-2.99,1.55-5.07,1.55c-3.42,0-4.97-1.39-4.97-3.85c0-2.46,1.66-3.9,4.86-3.9h6.36V539.02z M368.52,548.79v-18.09
				c0-6.14-3.73-9.28-11.15-9.28c-4.48,0-7.15,0.9-9.71,3.89l3.57,3.37c1.49-1.92,2.94-2.62,5.93-2.62c4.22,0,5.93,1.66,5.93,5.07
				v1.93h-7.15c-6.19,0-9.34,3.25-9.34,7.79c0,2.3,0.75,4.38,2.14,5.82c1.65,1.65,3.89,2.45,7.25,2.45c3.37,0,5.24-0.8,7.21-2.77
				v2.45H368.52z M342.1,548.79v-4.64h-2.4c-2.19,0-2.93-1.07-2.93-3.15v-30.21h-5.44v30.53c0,4,2.24,7.47,7.41,7.47H342.1z
				 M326.08,548.79l-13.62-23.11l12.33-14.89h-7.05l-15.54,19.11v-19.11h-5.75v38h5.75v-11.05l6.41-7.69l10.68,18.73H326.08z"/>
		</g>
		<g style="clip-path:url(#SVGID_00000173136545069410446150000001366015611778853278_);">
			<path class="st3" d="M698.95,405.06c0,4.11-2.4,6.57-5.82,6.57c-3.63,0-5.77-2.83-5.77-6.57c0-4.06,2.35-6.62,5.77-6.62
				C696.55,398.44,698.95,401.01,698.95,405.06 M704.39,404.96c0-7.05-4.69-11.37-11.26-11.37c-6.57,0-11.2,4.59-11.2,11.58
				c0,6.68,4.42,11,9.92,11c1.17,0,2.4-0.16,3.42-0.59l-8.18,16.33h5.82l8.65-17.62C703.22,410.99,704.39,408.05,704.39,404.96
				 M663.07,428.39l-3.68-3.63c-1.66,1.66-2.78,2.62-5.23,2.62c-4.38,0-6.62-3.05-6.62-9.02c0-5.88,2.24-8.97,6.62-8.97
				c2.4,0,3.63,0.96,5.23,2.56l3.68-3.57c-1.71-1.71-2.56-2.29-4-2.93c-1.39-0.58-2.99-0.9-4.86-0.9c-7.57,0-12.11,5.17-12.11,13.72
				c0,8.81,4.48,13.98,12.11,13.98c1.87,0,3.42-0.26,4.86-0.9C660.51,430.69,661.36,430.1,663.07,428.39 M629.18,422.15
				c0,3.95-1.71,5.56-5.93,5.56c-3.69,0-5.34-1.23-5.34-3.85c0-2.56,1.65-3.84,4.86-3.84h6.41V422.15z M634.57,431.91v-18.09
				c0-6.14-3.79-9.28-11.32-9.28c-2.56,0-4.48,0.32-6.03,1.06c-1.33,0.59-2.02,1.23-3.52,2.83l3.57,3.37
				c0.8-1.02,1.39-1.55,2.19-1.92c0.96-0.48,2.08-0.7,3.64-0.7c4.27,0,6.09,1.49,6.09,5.02v1.98h-7.27c-5.77,0-9.28,2.93-9.28,7.84
				c0,5.23,3.36,8.16,9.39,8.16c3.21,0,4.97-0.48,7.21-2.72v2.45H634.57z M605.43,431.91v-27.06H586.9v11.26
				c0,10.47-2.78,11-5.12,11h-0.85v4.8h2.56c5.28,0,8.64-2.98,8.64-14.46v-7.85h7.86v22.31H605.43z M557.17,431.91v-19.85
				l15.32,19.85h7.32l-15.96-20.07l14.63-17.94h-7.1l-14.2,18.04v-18.04h-5.76v38H557.17z M532.56,389.96h-5.23l-15.22,45.9h5.23
				L532.56,389.96z M489.81,405.06c0,4.11-2.4,6.57-5.82,6.57c-3.63,0-5.77-2.83-5.77-6.57c0-4.06,2.35-6.62,5.77-6.62
				C487.4,398.44,489.81,401.01,489.81,405.06 M495.25,404.96c0-7.05-4.69-11.37-11.26-11.37s-11.2,4.59-11.2,11.58
				c0,6.68,4.42,11,9.92,11c1.17,0,2.4-0.16,3.42-0.59l-8.17,16.33h5.82l8.65-17.62C494.07,410.99,495.25,408.05,495.25,404.96
				 M447.63,416.17h-12.17c0.06-1.66,0.16-2.46,0.7-3.69c0.85-2.03,2.83-3.42,5.39-3.42c2.56,0,4.48,1.39,5.34,3.42
				C447.42,413.71,447.58,414.51,447.63,416.17 M453.02,419.95v-2.4c0-7.69-4.22-13.02-11.48-13.02c-6.94,0-11.47,5.06-11.47,13.82
				c0,10.3,5.38,13.87,12.17,13.87c4.75,0,7.37-1.44,10.14-4.21l-3.47-3.26c-1.92,1.92-3.52,2.78-6.56,2.78
				c-4.43,0-6.89-2.94-6.89-7.59H453.02z M424.31,423.64c0-4.8-2.99-7.21-8.06-7.64l-4.27-0.37c-2.88-0.27-3.74-1.49-3.74-3.1
				c0-2.03,1.65-3.47,4.91-3.47c2.56,0,4.96,0.53,6.67,1.98l3.42-3.47c-2.51-2.19-5.98-3.03-10.04-3.03
				c-5.66,0-10.19,2.98-10.19,8.27c0,4.75,2.93,7.05,8.01,7.48l4.32,0.37c2.62,0.21,3.63,1.39,3.63,3.2c0,2.57-2.61,3.74-5.92,3.74
				c-2.67,0-5.61-0.59-7.79-2.83l-3.58,3.58c3.2,3.14,6.94,3.89,11.37,3.89C419.5,432.23,424.31,429.3,424.31,423.64 M397.46,423.64
				c0-4.8-2.99-7.21-8.06-7.64l-4.27-0.37c-2.88-0.27-3.74-1.49-3.74-3.1c0-2.03,1.66-3.47,4.91-3.47c2.56,0,4.97,0.53,6.68,1.98
				l3.42-3.47c-2.51-2.19-5.98-3.03-10.04-3.03c-5.66,0-10.2,2.98-10.2,8.27c0,4.75,2.94,7.05,8.01,7.48l4.33,0.37
				c2.61,0.21,3.63,1.39,3.63,3.2c0,2.57-2.62,3.74-5.93,3.74c-2.67,0-5.6-0.59-7.79-2.83l-3.57,3.58c3.2,3.14,6.94,3.89,11.37,3.89
				C392.65,432.23,397.46,429.3,397.46,423.64 M363.08,422.15c0,1.92-0.37,3.2-1.17,4.01c-1.44,1.39-2.99,1.55-5.07,1.55
				c-3.42,0-4.97-1.39-4.97-3.85c0-2.46,1.66-3.9,4.86-3.9h6.36V422.15z M368.52,431.91v-18.09c0-6.14-3.73-9.28-11.15-9.28
				c-4.48,0-7.15,0.9-9.71,3.89l3.57,3.37c1.49-1.92,2.94-2.62,5.93-2.62c4.22,0,5.93,1.66,5.93,5.07v1.93h-7.15
				c-6.19,0-9.34,3.25-9.34,7.79c0,2.3,0.75,4.38,2.14,5.82c1.65,1.65,3.89,2.45,7.25,2.45c3.37,0,5.24-0.8,7.21-2.77v2.45H368.52z
				 M342.1,431.91v-4.64h-2.4c-2.19,0-2.93-1.07-2.93-3.15v-30.21h-5.44v30.53c0,4,2.24,7.47,7.41,7.47H342.1z M326.08,431.91
				l-13.62-23.11l12.33-14.89h-7.05l-15.54,19.11v-19.11h-5.75v38h5.75v-11.05l6.41-7.69l10.68,18.73H326.08z"/>
		</g>
		<g style="clip-path:url(#SVGID_00000173136545069410446150000001366015611778853278_);">
			<path class="st3" d="M727.67,304.31c0,3.69-2.08,6.2-5.56,6.2c-3.47,0-5.5-2.51-5.5-6.2v-16.55c0-3.69,2.03-6.19,5.5-6.19
				c3.47,0,5.56,2.51,5.56,6.19V304.31z M733.11,304.47V287.6c0-6.78-4.96-10.88-11-10.88c-6.03,0-10.94,4.11-10.94,10.88v16.87
				c0,6.78,4.91,10.88,10.94,10.88C728.15,315.35,733.11,311.25,733.11,304.47 M697.88,315.03v-38h-5.44l-7.42,6.41v6.03l7.42-6.51
				v32.07H697.88z M663.07,311.52l-3.69-3.63c-1.65,1.66-2.78,2.62-5.23,2.62c-4.38,0-6.62-3.05-6.62-9.02
				c0-5.88,2.24-8.97,6.62-8.97c2.4,0,3.63,0.96,5.23,2.56l3.69-3.57c-1.71-1.71-2.56-2.29-4.01-2.93c-1.39-0.58-2.99-0.9-4.85-0.9
				c-7.58,0-12.11,5.17-12.11,13.72c0,8.81,4.48,13.98,12.11,13.98c1.87,0,3.42-0.26,4.85-0.9
				C660.51,313.81,661.37,313.23,663.07,311.52 M629.19,305.27c0,3.95-1.71,5.56-5.93,5.56c-3.68,0-5.34-1.23-5.34-3.85
				c0-2.56,1.66-3.84,4.86-3.84h6.41V305.27z M634.57,315.03v-18.09c0-6.14-3.79-9.28-11.32-9.28c-2.56,0-4.48,0.32-6.03,1.06
				c-1.34,0.59-2.03,1.23-3.52,2.83l3.57,3.37c0.8-1.02,1.39-1.55,2.19-1.92c0.96-0.48,2.08-0.7,3.63-0.7
				c4.27,0,6.09,1.49,6.09,5.02v1.98h-7.27c-5.77,0-9.28,2.93-9.28,7.84c0,5.23,3.35,8.16,9.39,8.16c3.2,0,4.97-0.48,7.21-2.72v2.45
				H634.57z M605.42,315.03v-27.06h-18.51v11.26c0,10.47-2.78,11-5.12,11h-0.85v4.8h2.56c5.28,0,8.64-2.98,8.64-14.46v-7.85h7.86
				v22.31H605.42z M557.17,315.03v-19.85l15.32,19.85h7.32l-15.96-20.07l14.63-17.94h-7.1l-14.2,18.04v-18.04h-5.76v38H557.17z
				 M532.56,273.08h-5.23l-15.21,45.9h5.23L532.56,273.08z M489.54,304.31c0,3.69-2.08,6.2-5.56,6.2c-3.47,0-5.5-2.51-5.5-6.2
				v-16.55c0-3.69,2.03-6.19,5.5-6.19c3.47,0,5.56,2.51,5.56,6.19V304.31z M494.98,304.47V287.6c0-6.78-4.96-10.88-11-10.88
				c-6.03,0-10.93,4.11-10.93,10.88v16.87c0,6.78,4.9,10.88,10.93,10.88C490.02,315.35,494.98,311.25,494.98,304.47 M459.75,315.03
				v-38h-5.44l-7.42,6.41v6.03l7.42-6.51v32.07H459.75z M418.64,299.3h-12.17c0.06-1.66,0.16-2.46,0.7-3.69
				c0.85-2.03,2.83-3.42,5.39-3.42c2.56,0,4.48,1.39,5.34,3.42C418.43,296.83,418.59,297.64,418.64,299.3 M424.04,303.08v-2.4
				c0-7.69-4.22-13.02-11.48-13.02c-6.94,0-11.47,5.06-11.47,13.82c0,10.31,5.38,13.88,12.17,13.88c4.75,0,7.37-1.44,10.14-4.21
				l-3.47-3.26c-1.92,1.92-3.52,2.78-6.56,2.78c-4.43,0-6.89-2.94-6.89-7.59H424.04z M395.32,306.76c0-4.8-2.99-7.21-8.06-7.64
				l-4.27-0.37c-2.88-0.27-3.74-1.49-3.74-3.1c0-2.03,1.65-3.47,4.91-3.47c2.56,0,4.96,0.53,6.67,1.98l3.42-3.47
				c-2.51-2.19-5.98-3.03-10.04-3.03c-5.66,0-10.19,2.98-10.19,8.27c0,4.75,2.93,7.05,8.01,7.48l4.32,0.37
				c2.62,0.21,3.63,1.39,3.63,3.2c0,2.57-2.61,3.74-5.92,3.74c-2.67,0-5.61-0.59-7.79-2.83l-3.58,3.57
				c3.2,3.15,6.94,3.89,11.37,3.89C390.52,315.35,395.32,312.42,395.32,306.76 M368.47,306.76c0-4.8-2.99-7.21-8.06-7.64l-4.27-0.37
				c-2.88-0.27-3.74-1.49-3.74-3.1c0-2.03,1.66-3.47,4.91-3.47c2.56,0,4.97,0.53,6.68,1.98l3.42-3.47
				c-2.51-2.19-5.98-3.03-10.04-3.03c-5.66,0-10.2,2.98-10.2,8.27c0,4.75,2.94,7.05,8.01,7.48l4.33,0.37
				c2.61,0.21,3.63,1.39,3.63,3.2c0,2.57-2.62,3.74-5.93,3.74c-2.67,0-5.6-0.59-7.79-2.83l-3.57,3.57c3.2,3.15,6.94,3.89,11.37,3.89
				C363.67,315.35,368.47,312.42,368.47,306.76 M334.09,305.27c0,1.92-0.37,3.2-1.17,4.01c-1.44,1.39-2.99,1.55-5.07,1.55
				c-3.42,0-4.97-1.39-4.97-3.85c0-2.46,1.66-3.9,4.86-3.9h6.36V305.27z M339.53,315.03v-18.09c0-6.14-3.73-9.28-11.15-9.28
				c-4.48,0-7.15,0.9-9.71,3.89l3.57,3.37c1.49-1.92,2.94-2.62,5.93-2.62c4.22,0,5.93,1.66,5.93,5.07v1.93h-7.15
				c-6.19,0-9.34,3.25-9.34,7.79c0,2.3,0.75,4.38,2.14,5.82c1.65,1.65,3.89,2.45,7.25,2.45c3.37,0,5.24-0.8,7.21-2.77v2.45H339.53z
				 M313.11,315.03v-4.64h-2.4c-2.19,0-2.93-1.07-2.93-3.15v-30.21h-5.44v30.53c0,4,2.24,7.47,7.41,7.47H313.11z M297.1,315.03
				l-13.62-23.11l12.33-14.89h-7.05l-15.54,19.11v-19.11h-5.75v38h5.75v-11.05l6.41-7.69l10.68,18.73H297.1z"/>
		</g>
		<g style="clip-path:url(#SVGID_00000173136545069410446150000001366015611778853278_);">
			<path class="st3" d="M726.86,206.12v-38h-5.44l-7.42,6.41v6.03l7.42-6.51v32.07H726.86z M697.88,206.12v-38h-5.44l-7.42,6.41
				v6.03l7.42-6.51v32.07H697.88z M663.07,202.6l-3.69-3.63c-1.65,1.66-2.78,2.62-5.23,2.62c-4.38,0-6.62-3.05-6.62-9.02
				c0-5.88,2.24-8.97,6.62-8.97c2.4,0,3.63,0.96,5.23,2.56l3.69-3.57c-1.71-1.71-2.56-2.29-4.01-2.93c-1.39-0.58-2.99-0.9-4.85-0.9
				c-7.58,0-12.11,5.17-12.11,13.72c0,8.81,4.48,13.98,12.11,13.98c1.87,0,3.42-0.26,4.85-0.9
				C660.51,204.9,661.37,204.31,663.07,202.6 M629.19,196.36c0,3.95-1.71,5.56-5.93,5.56c-3.68,0-5.34-1.23-5.34-3.85
				c0-2.56,1.66-3.84,4.86-3.84h6.41V196.36z M634.57,206.12v-18.09c0-6.14-3.79-9.28-11.32-9.28c-2.56,0-4.48,0.32-6.03,1.06
				c-1.34,0.59-2.03,1.23-3.52,2.83l3.57,3.37c0.8-1.02,1.39-1.55,2.19-1.92c0.96-0.48,2.08-0.7,3.63-0.7
				c4.27,0,6.09,1.49,6.09,5.02v1.98h-7.27c-5.77,0-9.28,2.93-9.28,7.84c0,5.23,3.35,8.16,9.39,8.16c3.2,0,4.97-0.48,7.21-2.72v2.45
				H634.57z M605.42,206.12v-27.06h-18.51v11.26c0,10.47-2.78,11-5.12,11h-0.85v4.8h2.56c5.28,0,8.64-2.98,8.64-14.46v-7.85h7.86
				v22.31H605.42z M557.17,206.12v-19.85l15.32,19.85h7.32l-15.96-20.07l14.63-17.94h-7.1l-14.2,18.04v-18.04h-5.76v38H557.17z
				 M532.56,164.17h-5.23l-15.21,45.9h5.23L532.56,164.17z M488.73,206.12v-38h-5.43l-7.42,6.41v6.03l7.42-6.51v32.07H488.73z
				 M459.75,206.12v-38h-5.44l-7.42,6.41v6.03l7.42-6.51v32.07H459.75z M418.64,190.38h-12.17c0.06-1.66,0.16-2.46,0.7-3.69
				c0.85-2.03,2.83-3.42,5.39-3.42c2.56,0,4.48,1.39,5.34,3.42C418.43,187.92,418.59,188.72,418.64,190.38 M424.04,194.16v-2.4
				c0-7.69-4.22-13.02-11.48-13.02c-6.94,0-11.47,5.06-11.47,13.82c0,10.31,5.38,13.88,12.17,13.88c4.75,0,7.37-1.44,10.14-4.21
				l-3.47-3.26c-1.92,1.92-3.52,2.78-6.56,2.78c-4.43,0-6.89-2.94-6.89-7.59H424.04z M395.32,197.85c0-4.8-2.99-7.21-8.06-7.64
				l-4.27-0.37c-2.88-0.27-3.74-1.49-3.74-3.1c0-2.03,1.65-3.47,4.91-3.47c2.56,0,4.96,0.53,6.67,1.98l3.42-3.47
				c-2.51-2.19-5.98-3.03-10.04-3.03c-5.66,0-10.19,2.98-10.19,8.27c0,4.75,2.93,7.05,8.01,7.48l4.32,0.37
				c2.62,0.21,3.63,1.39,3.63,3.2c0,2.57-2.61,3.74-5.92,3.74c-2.67,0-5.61-0.59-7.79-2.83l-3.58,3.57
				c3.2,3.15,6.94,3.89,11.37,3.89C390.52,206.44,395.32,203.51,395.32,197.85 M368.47,197.85c0-4.8-2.99-7.21-8.06-7.64l-4.27-0.37
				c-2.88-0.27-3.74-1.49-3.74-3.1c0-2.03,1.66-3.47,4.91-3.47c2.56,0,4.97,0.53,6.68,1.98l3.42-3.47
				c-2.51-2.19-5.98-3.03-10.04-3.03c-5.66,0-10.2,2.98-10.2,8.27c0,4.75,2.94,7.05,8.01,7.48l4.33,0.37
				c2.61,0.21,3.63,1.39,3.63,3.2c0,2.57-2.62,3.74-5.93,3.74c-2.67,0-5.6-0.59-7.79-2.83l-3.57,3.57c3.2,3.15,6.94,3.89,11.37,3.89
				C363.67,206.44,368.47,203.51,368.47,197.85 M334.09,196.36c0,1.92-0.37,3.2-1.17,4.01c-1.44,1.39-2.99,1.55-5.07,1.55
				c-3.42,0-4.97-1.39-4.97-3.85c0-2.46,1.66-3.9,4.86-3.9h6.36V196.36z M339.53,206.12v-18.09c0-6.14-3.73-9.28-11.15-9.28
				c-4.48,0-7.15,0.9-9.71,3.89l3.57,3.37c1.49-1.92,2.94-2.62,5.93-2.62c4.22,0,5.93,1.66,5.93,5.07v1.93h-7.15
				c-6.19,0-9.34,3.25-9.34,7.79c0,2.3,0.75,4.38,2.14,5.82c1.65,1.65,3.89,2.45,7.25,2.45c3.37,0,5.24-0.8,7.21-2.77v2.45H339.53z
				 M313.11,206.12v-4.64h-2.4c-2.19,0-2.93-1.07-2.93-3.15v-30.21h-5.44v30.53c0,4,2.24,7.47,7.41,7.47H313.11z M297.1,206.12
				l-13.62-23.11l12.33-14.89h-7.05l-15.54,19.11v-19.11h-5.75v38h5.75v-11.05l6.41-7.69l10.68,18.73H297.1z"/>
		</g>
		<g style="clip-path:url(#SVGID_00000173136545069410446150000001366015611778853278_);">
			<path class="st3" d="M704.5,886.72c0-3.58-0.43-7.27-3.3-10.14c-1.55-1.55-3.84-2.46-6.83-2.46c-2.78,0-5.02,0.85-6.3,2.19
				v-10.04h15.59v-4.85h-20.49v20.76h4.96c0.58-1.87,2.3-3.42,5.39-3.42c4.38,0,5.55,3.42,5.55,7.96c0,2.56-0.21,5.07-1.81,6.68
				c-0.96,0.96-2.35,1.49-3.95,1.49c-3.42,0-5.13-1.92-5.56-5.29h-5.44c0.21,2.73,0.85,5.23,2.88,7.26
				c1.65,1.65,4.48,2.93,8.11,2.93c3.69,0,6.3-1.28,8.01-2.98C704.07,894.04,704.5,890.78,704.5,886.72 M663.07,895.9l-3.68-3.63
				c-1.66,1.66-2.78,2.62-5.23,2.62c-4.38,0-6.62-3.05-6.62-9.02c0-5.88,2.24-8.97,6.62-8.97c2.4,0,3.63,0.96,5.23,2.56l3.68-3.57
				c-1.71-1.71-2.56-2.29-4-2.93c-1.39-0.58-2.99-0.9-4.86-0.9c-7.57,0-12.11,5.17-12.11,13.72c0,8.81,4.48,13.98,12.11,13.98
				c1.87,0,3.42-0.26,4.86-0.9C660.51,898.19,661.36,897.61,663.07,895.9 M629.18,889.65c0,3.95-1.71,5.56-5.93,5.56
				c-3.69,0-5.34-1.23-5.34-3.85c0-2.56,1.65-3.84,4.86-3.84h6.41V889.65z M634.57,899.42v-18.09c0-6.14-3.79-9.28-11.32-9.28
				c-2.56,0-4.48,0.32-6.03,1.06c-1.33,0.59-2.02,1.23-3.52,2.83l3.57,3.37c0.8-1.02,1.39-1.55,2.19-1.92
				c0.96-0.48,2.08-0.7,3.64-0.7c4.27,0,6.09,1.49,6.09,5.02v1.98h-7.27c-5.77,0-9.28,2.93-9.28,7.84c0,5.23,3.36,8.16,9.39,8.16
				c3.21,0,4.97-0.48,7.21-2.72v2.45H634.57z M605.43,899.42v-27.06H586.9v11.26c0,10.47-2.78,11-5.12,11h-0.85v4.8h2.56
				c5.28,0,8.64-2.98,8.64-14.46v-7.85h7.86v22.31H605.43z M557.17,899.42v-19.85l15.32,19.85h7.32l-15.96-20.07l14.63-17.94h-7.1
				l-14.2,18.04v-18.04h-5.76v38H557.17z M532.56,857.47h-5.23l-15.22,45.9h5.23L532.56,857.47z M495.35,886.72
				c0-3.58-0.43-7.27-3.3-10.14c-1.55-1.55-3.84-2.46-6.83-2.46c-2.78,0-5.02,0.85-6.3,2.19v-10.04h15.59v-4.85h-20.49v20.76h4.96
				c0.59-1.87,2.3-3.42,5.4-3.42c4.38,0,5.55,3.42,5.55,7.96c0,2.56-0.21,5.07-1.81,6.68c-0.96,0.96-2.35,1.49-3.95,1.49
				c-3.42,0-5.13-1.92-5.56-5.29h-5.44c0.21,2.73,0.85,5.23,2.88,7.26c1.65,1.65,4.48,2.93,8.11,2.93c3.68,0,6.3-1.28,8.01-2.98
				C494.93,894.04,495.35,890.78,495.35,886.72 M447.63,883.68h-12.17c0.06-1.66,0.16-2.46,0.7-3.69c0.85-2.03,2.83-3.42,5.39-3.42
				c2.56,0,4.48,1.39,5.34,3.42C447.42,881.22,447.58,882.02,447.63,883.68 M453.02,887.46v-2.4c0-7.69-4.22-13.02-11.48-13.02
				c-6.94,0-11.47,5.06-11.47,13.82c0,10.31,5.38,13.88,12.17,13.88c4.75,0,7.37-1.44,10.14-4.21l-3.47-3.26
				c-1.92,1.92-3.52,2.78-6.56,2.78c-4.43,0-6.89-2.94-6.89-7.59H453.02z M424.31,891.15c0-4.8-2.99-7.21-8.06-7.64l-4.27-0.37
				c-2.88-0.27-3.74-1.49-3.74-3.1c0-2.03,1.65-3.47,4.91-3.47c2.56,0,4.96,0.53,6.67,1.98l3.42-3.47
				c-2.51-2.19-5.98-3.03-10.04-3.03c-5.66,0-10.19,2.98-10.19,8.27c0,4.75,2.93,7.05,8.01,7.48l4.32,0.37
				c2.62,0.21,3.63,1.39,3.63,3.2c0,2.57-2.61,3.74-5.92,3.74c-2.67,0-5.61-0.59-7.79-2.83l-3.58,3.58
				c3.2,3.14,6.94,3.89,11.37,3.89C419.5,899.74,424.31,896.81,424.31,891.15 M397.46,891.15c0-4.8-2.99-7.21-8.06-7.64l-4.27-0.37
				c-2.88-0.27-3.74-1.49-3.74-3.1c0-2.03,1.66-3.47,4.91-3.47c2.56,0,4.97,0.53,6.68,1.98l3.42-3.47
				c-2.51-2.19-5.98-3.03-10.04-3.03c-5.66,0-10.2,2.98-10.2,8.27c0,4.75,2.94,7.05,8.01,7.48l4.33,0.37
				c2.61,0.21,3.63,1.39,3.63,3.2c0,2.57-2.62,3.74-5.93,3.74c-2.67,0-5.6-0.59-7.79-2.83l-3.57,3.58c3.2,3.14,6.94,3.89,11.37,3.89
				C392.65,899.74,397.46,896.81,397.46,891.15 M363.08,889.65c0,1.92-0.37,3.2-1.17,4.01c-1.44,1.39-2.99,1.55-5.07,1.55
				c-3.42,0-4.97-1.39-4.97-3.85c0-2.46,1.66-3.9,4.86-3.9h6.36V889.65z M368.52,899.42v-18.09c0-6.14-3.73-9.28-11.15-9.28
				c-4.48,0-7.15,0.9-9.71,3.89l3.57,3.37c1.49-1.92,2.94-2.62,5.93-2.62c4.22,0,5.93,1.66,5.93,5.07v1.93h-7.15
				c-6.19,0-9.34,3.25-9.34,7.79c0,2.3,0.75,4.38,2.14,5.82c1.65,1.65,3.89,2.45,7.25,2.45c3.37,0,5.24-0.8,7.21-2.77v2.45H368.52z
				 M342.1,899.42v-4.64h-2.4c-2.19,0-2.93-1.07-2.93-3.15v-30.21h-5.44v30.53c0,4,2.24,7.47,7.41,7.47H342.1z M326.08,899.42
				l-13.62-23.11l12.33-14.89h-7.05l-15.54,19.11v-19.11h-5.75v38h5.75v-11.05l6.41-7.69l10.68,18.73H326.08z"/>
		</g>
	</g>
	<g>
		<polygon class="st4" points="19.1,871.61 35.16,871.61 27.13,860.98 		"/>
	</g>
	<g>
		<polygon class="st4" points="19.1,892.74 35.16,892.74 27.13,882.12 		"/>
	</g>
	<g>
		<polygon class="st4" points="19.1,913.88 35.16,913.88 27.13,903.25 		"/>
	</g>
	<g>
		<polygon class="st4" points="19.1,850.47 35.16,850.47 27.13,839.85 		"/>
	</g>
	<g>
		<polygon class="st4" points="19.1,756.13 35.16,756.13 27.13,745.51 		"/>
	</g>
	<g>
		<polygon class="st4" points="19.1,777.27 35.16,777.27 27.13,766.64 		"/>
	</g>
	<g>
		<polygon class="st4" points="19.1,798.4 35.16,798.4 27.13,787.78 		"/>
	</g>
	<g>
		<polygon class="st4" points="19.1,735 35.16,735 27.13,724.37 		"/>
	</g>
	<g>
		<polygon class="st4" points="19.1,636.45 35.16,636.45 27.13,625.82 		"/>
	</g>
	<g>
		<polygon class="st4" points="19.1,657.58 35.16,657.58 27.13,646.95 		"/>
	</g>
	<g>
		<polygon class="st4" points="19.1,678.72 35.16,678.72 27.13,668.09 		"/>
	</g>
	<g>
		<polygon class="st4" points="19.1,615.31 35.16,615.31 27.13,604.68 		"/>
	</g>
	<g>
		<polygon class="st4" points="19.1,518.16 35.16,518.16 27.13,507.54 		"/>
	</g>
	<g>
		<polygon class="st4" points="19.1,539.3 35.16,539.3 27.13,528.67 		"/>
	</g>
	<g>
		<polygon class="st4" points="19.1,560.43 35.16,560.43 27.13,549.81 		"/>
	</g>
	<g>
		<polygon class="st4" points="19.1,497.03 35.16,497.03 27.13,486.4 		"/>
	</g>
	<g>
		<polygon class="st4" points="19.1,402.69 35.16,402.69 27.13,392.07 		"/>
	</g>
	<g>
		<polygon class="st4" points="19.1,423.83 35.16,423.83 27.13,413.2 		"/>
	</g>
	<g>
		<polygon class="st4" points="19.1,444.96 35.16,444.96 27.13,434.34 		"/>
	</g>
	<g>
		<polygon class="st4" points="19.1,381.56 35.16,381.56 27.13,370.93 		"/>
	</g>
	<g>
		<polygon class="st4" points="19.1,285.81 35.16,285.81 27.13,275.19 		"/>
	</g>
	<g>
		<polygon class="st4" points="19.1,306.95 35.16,306.95 27.13,296.32 		"/>
	</g>
	<g>
		<polygon class="st4" points="19.1,328.08 35.16,328.08 27.13,317.46 		"/>
	</g>
	<g>
		<polygon class="st4" points="19.1,264.68 35.16,264.68 27.13,254.05 		"/>
	</g>
	<g>
		<polygon class="st4" points="19.1,178.94 35.16,178.94 27.13,168.31 		"/>
	</g>
	<g>
		<polygon class="st4" points="19.1,200.07 35.16,200.07 27.13,189.45 		"/>
	</g>
	<g>
		<polygon class="st4" points="19.1,221.21 35.16,221.21 27.13,210.58 		"/>
	</g>
	<g>
		<polygon class="st4" points="19.1,157.8 35.16,157.8 27.13,147.18 		"/>
	</g>
</g>
</svg>
