<?xml version="1.0" encoding="utf-8"?>
<!-- Generator: Adobe Illustrator 26.2.1, SVG Export Plug-In . SVG Version: 6.00 Build 0)  -->
<svg version="1.1" id="Ebene_1" xmlns="http://www.w3.org/2000/svg" xmlns:xlink="http://www.w3.org/1999/xlink" x="0px" y="0px"
	 viewBox="0 0 1000 935.58" style="enable-background:new 0 0 1000 935.58;" xml:space="preserve">
<style type="text/css">
	.st0{fill:#A2B9E1;}
	.st1{fill:#6796CF;}
	.st2{clip-path:url(#SVGID_00000003101173144840546640000009505729146186997155_);}
	.st3{fill:#2B2961;}
	.st4{fill:#FFFFFF;}
	.st5{clip-path:url(#SVGID_00000016787612529777462500000014050873797824003481_);}
	.st6{clip-path:url(#SVGID_00000050656913928880344040000009723780532866517677_);}
	.st7{clip-path:url(#SVGID_00000150812284646877253500000005536165983416263043_);}
	.st8{clip-path:url(#SVGID_00000031893102674014523710000010607560838476096133_);}
	.st9{clip-path:url(#SVGID_00000034068473613493115970000014190376870146121902_);}
	.st10{opacity:0.52;clip-path:url(#SVGID_00000103955638395803587390000009063747397660425407_);}
	.st11{clip-path:url(#SVGID_00000045583037167810326780000006478204533633590933_);}
	.st12{clip-path:url(#SVGID_00000153680884911617252340000001846019089754158258_);}
	.st13{clip-path:url(#SVGID_00000156576286741535658230000011638162463718069432_);}
	.st14{clip-path:url(#SVGID_00000026871516586722981300000010061676144559750070_);}
	.st15{clip-path:url(#SVGID_00000155864597654235822830000007316167967917406652_);}
	.st16{clip-path:url(#SVGID_00000029757215249655373770000013604547410729088699_);}
	.st17{clip-path:url(#SVGID_00000163048867417274382680000010216573164123755700_);}
	.st18{clip-path:url(#SVGID_00000032616292491912858770000004429311240405117097_);}
	.st19{clip-path:url(#SVGID_00000173138028481655905320000015115001402267787927_);}
	.st20{clip-path:url(#SVGID_00000101080800554668207830000001005919465927100321_);}
	.st21{clip-path:url(#SVGID_00000082355859054513281660000007775110638281855649_);}
	.st22{clip-path:url(#SVGID_00000085246695204627338230000005561172566853476758_);}
	.st23{fill:none;stroke:#2B2961;stroke-width:0.374;stroke-linejoin:round;stroke-miterlimit:10;}
	.st24{fill:none;stroke:#2B2961;stroke-width:0.4;stroke-miterlimit:10;}
	.st25{clip-path:url(#SVGID_00000061474037179906213120000011750760562840000422_);}
	.st26{clip-path:url(#SVGID_00000023970975435004111470000010418220821854776485_);}
	.st27{clip-path:url(#SVGID_00000097470095955459859580000012830493544353984399_);}
	.st28{clip-path:url(#SVGID_00000011751926740467418100000012308022323120364978_);}
	.st29{clip-path:url(#SVGID_00000173132368009913928990000008576029027050288831_);}
	.st30{clip-path:url(#SVGID_00000005968165399641901790000014538985049254198176_);}
	.st31{clip-path:url(#SVGID_00000111150721696134300510000011259322004292934559_);}
	.st32{clip-path:url(#SVGID_00000044873978276309398740000000738488358416338562_);}
	.st33{clip-path:url(#SVGID_00000055698297430966097780000016593850637362527900_);}
	.st34{clip-path:url(#SVGID_00000044160801433332156100000017421953070354350220_);}
	.st35{clip-path:url(#SVGID_00000124130944915711968620000006892310091341457280_);}
	.st36{clip-path:url(#SVGID_00000084528265881606767230000014056136096611569823_);}
	.st37{clip-path:url(#SVGID_00000171705553957515968050000010784454597256170630_);}
	.st38{clip-path:url(#SVGID_00000119085849379321089660000012197567549685402507_);}
	.st39{clip-path:url(#SVGID_00000183928759188973775540000008589208455103789459_);}
	.st40{clip-path:url(#SVGID_00000049211513181523501440000007778408352621666194_);}
	.st41{clip-path:url(#SVGID_00000131344852297780857600000013920383471217563285_);}
	.st42{clip-path:url(#SVGID_00000114039912380855237780000014226795417035484550_);}
	.st43{clip-path:url(#SVGID_00000140009220372502368590000017642272663801360574_);}
	.st44{clip-path:url(#SVGID_00000000207168078949308720000016320409869615032997_);}
	.st45{clip-path:url(#SVGID_00000003824816668928861920000011496011320458003333_);}
	.st46{clip-path:url(#SVGID_00000160154456978537113210000013028360165319860877_);}
	.st47{clip-path:url(#SVGID_00000170976004962522467590000002549282303952501896_);}
	.st48{clip-path:url(#SVGID_00000140724216146148681490000012866737365671251334_);}
	.st49{clip-path:url(#SVGID_00000025421552462220443090000010390117437171643046_);}
	.st50{clip-path:url(#SVGID_00000130608240253117666490000009614613806489160629_);}
	.st51{clip-path:url(#SVGID_00000120524730234746837010000010077092476525932478_);}
	.st52{clip-path:url(#SVGID_00000170244442143331693570000012414094795648308381_);}
	.st53{clip-path:url(#SVGID_00000146466505810912685110000008552522578612941734_);}
	.st54{clip-path:url(#SVGID_00000113341898567733443820000018149705113739314597_);}
	.st55{clip-path:url(#SVGID_00000093870738817447089440000014103094954578739595_);}
	.st56{clip-path:url(#SVGID_00000137111652121361513160000009350174649807555477_);}
	.st57{clip-path:url(#SVGID_00000155136432107315785220000001360277457226252440_);}
	.st58{clip-path:url(#SVGID_00000126311270105094627130000000670641582902526369_);}
	.st59{clip-path:url(#SVGID_00000026859521302450705920000015267854642621919622_);}
	.st60{clip-path:url(#SVGID_00000074442948015016993320000012773093048867991430_);}
	.st61{clip-path:url(#SVGID_00000155134440402500121130000017040581492508194237_);}
	.st62{fill:#9AB4DE;}
	.st63{clip-path:url(#SVGID_00000007426993582376348870000017524605178061071027_);}
	.st64{clip-path:url(#SVGID_00000103224439277456043550000018010968955341058702_);}
	.st65{clip-path:url(#SVGID_00000144329186046065912550000016676123065644014519_);}
	.st66{fill:#B9C9E9;}
	.st67{clip-path:url(#SVGID_00000132774332971650582210000013467444242307564475_);}
	.st68{clip-path:url(#SVGID_00000068671692386482004610000000301810380917325209_);}
	.st69{clip-path:url(#SVGID_00000037679322481528120830000006065470692955814334_);}
	.st70{clip-path:url(#SVGID_00000065763055375412745440000017249494997052734598_);}
	.st71{clip-path:url(#SVGID_00000119096929665881852210000006335698857670845846_);}
	.st72{clip-path:url(#SVGID_00000059307653794210595960000008098009218606013831_);}
	.st73{clip-path:url(#SVGID_00000130615880937677510630000008095290182654378167_);}
	.st74{clip-path:url(#SVGID_00000021840142363586889880000000489869231282652851_);}
	.st75{clip-path:url(#SVGID_00000101794139858952456950000007273075521832843188_);}
	.st76{clip-path:url(#SVGID_00000173132187040587794830000016094236599403897489_);}
	.st77{clip-path:url(#SVGID_00000101822382883580031520000009271035888213783444_);}
	.st78{clip-path:url(#SVGID_00000122714903749972526160000004787696725448568476_);}
	.st79{clip-path:url(#SVGID_00000047765394305816234540000013168096484760817324_);}
	.st80{clip-path:url(#SVGID_00000067203125895755068950000012715138482582035114_);}
	.st81{clip-path:url(#SVGID_00000171000666815559604240000000263560937846686602_);}
	.st82{clip-path:url(#SVGID_00000179604920278192381650000013794539064396686524_);}
	.st83{clip-path:url(#SVGID_00000023960006794483672720000004966794323888852656_);}
	.st84{clip-path:url(#SVGID_00000021087962896207262860000002845485576086054833_);}
	.st85{clip-path:url(#SVGID_00000154404398443255569160000003225192854420499367_);}
	.st86{clip-path:url(#SVGID_00000085212879454018306610000011530408164168974760_);}
	.st87{clip-path:url(#SVGID_00000121963696738905993260000001375616542622685569_);}
	.st88{clip-path:url(#SVGID_00000183209290805445042110000011876193518126507395_);}
	.st89{clip-path:url(#SVGID_00000173143139566629702180000003770442794330091953_);}
	.st90{clip-path:url(#SVGID_00000180366225646615508530000016882985816800028602_);}
	.st91{clip-path:url(#SVGID_00000076601674773293087940000007813766472088565945_);}
	.st92{clip-path:url(#SVGID_00000153680178261686149590000016053006078028265397_);}
	.st93{clip-path:url(#SVGID_00000067949450896692693300000000935001187874006698_);}
	.st94{clip-path:url(#SVGID_00000156565525780174105610000011897581719313486264_);}
	.st95{clip-path:url(#SVGID_00000027571379971047825310000007438691733848972969_);}
	.st96{clip-path:url(#SVGID_00000045591955757805024860000001313075300834514568_);}
	.st97{clip-path:url(#SVGID_00000110442090977683656110000004196673161204324776_);}
	.st98{clip-path:url(#SVGID_00000124143821971750380150000000259471304881581210_);}
	.st99{clip-path:url(#SVGID_00000155839400162663989560000001364106052760213666_);}
	.st100{clip-path:url(#SVGID_00000077326555401968455340000016615629313458703777_);}
	.st101{clip-path:url(#SVGID_00000083795537000790430800000005915185307038550921_);}
	.st102{clip-path:url(#SVGID_00000096773444143098211440000016634083615815443878_);}
	.st103{clip-path:url(#SVGID_00000106835494500273968160000001624850830264124037_);}
	.st104{clip-path:url(#SVGID_00000103267085964528744950000011350749520810161070_);}
	.st105{clip-path:url(#SVGID_00000156560289981703025510000012385722090991562646_);}
	.st106{clip-path:url(#SVGID_00000140709227281044797010000009878537757399337120_);}
	.st107{clip-path:url(#SVGID_00000000218759642554595750000007063084051981231783_);}
	.st108{clip-path:url(#SVGID_00000000192212637077052690000008827431048496757161_);}
	.st109{clip-path:url(#SVGID_00000158006087616409367900000001616857444470280127_);}
	.st110{clip-path:url(#SVGID_00000147210946861648932990000017670183503587284128_);}
	.st111{clip-path:url(#SVGID_00000141416967188830490440000014486596277976486278_);}
	.st112{clip-path:url(#SVGID_00000103263537404989447170000003241431415648600220_);}
	.st113{clip-path:url(#SVGID_00000111882993647400702730000004138312654971498149_);}
	.st114{clip-path:url(#SVGID_00000021811606652925000340000003860901280501433005_);}
	.st115{clip-path:url(#SVGID_00000028309383966606724490000017537461843574094733_);}
	.st116{clip-path:url(#SVGID_00000111152410226971063090000013502877251143179931_);}
	.st117{clip-path:url(#SVGID_00000163779494273268432440000003427712460871030444_);}
	.st118{clip-path:url(#SVGID_00000075869497621880497310000003575417809775529649_);}
	.st119{clip-path:url(#SVGID_00000175280928117641971810000013098095644612872865_);}
	.st120{clip-path:url(#SVGID_00000132068247948532965960000006815738217462121648_);}
	.st121{clip-path:url(#SVGID_00000132076605149490931580000000439800164119958155_);}
	.st122{clip-path:url(#SVGID_00000144320148226568034490000007204050743608655014_);}
	.st123{clip-path:url(#SVGID_00000053510604086063195570000004021862940698472584_);}
	.st124{clip-path:url(#SVGID_00000182518774440527358290000013683702562646704314_);}
	.st125{clip-path:url(#SVGID_00000166647145703163061430000014499328280692253862_);}
	.st126{clip-path:url(#SVGID_00000088105975292873259980000005415289431642513325_);}
	.st127{clip-path:url(#SVGID_00000052825373955291364460000008050252945970561458_);}
	.st128{clip-path:url(#SVGID_00000116929178930893875430000015302022062249619366_);}
	.st129{clip-path:url(#SVGID_00000129898606645795202940000003562158272807561352_);}
	.st130{clip-path:url(#SVGID_00000177449808864793750510000014018247949411963557_);}
	.st131{clip-path:url(#SVGID_00000073715895773286023470000007795553001786415281_);}
	.st132{clip-path:url(#SVGID_00000001628284598250146220000014480784171964737946_);}
	.st133{clip-path:url(#SVGID_00000007422622969801001540000005815530038161789069_);}
	.st134{clip-path:url(#SVGID_00000089565431882133771820000013167325536765519543_);}
	.st135{clip-path:url(#SVGID_00000119834607066751440040000012365676910496577967_);}
	.st136{clip-path:url(#SVGID_00000032640167228746737450000013677853393874622347_);}
	.st137{clip-path:url(#SVGID_00000021102451683978632210000007560112095006628744_);}
	.st138{clip-path:url(#SVGID_00000070098070861296230960000014105982763331467191_);}
	.st139{clip-path:url(#SVGID_00000124156390724821163250000001822905786112359069_);}
	.st140{clip-path:url(#SVGID_00000085216470198887279460000012605047313505320371_);}
	.st141{clip-path:url(#SVGID_00000010299062301892480870000009221429256607840168_);}
	.st142{clip-path:url(#SVGID_00000168092658828534242170000015320835757594513313_);}
	.st143{clip-path:url(#SVGID_00000050625434454019113290000001120194721970657979_);}
	.st144{clip-path:url(#SVGID_00000011019724525149136860000008137964095197102988_);}
	.st145{clip-path:url(#SVGID_00000177482742318077135770000006489565519210306744_);}
	.st146{clip-path:url(#SVGID_00000144321669432550029470000017128727108638591123_);}
	.st147{clip-path:url(#SVGID_00000026144970113062553480000004478482354049481150_);}
	.st148{clip-path:url(#SVGID_00000106139616741302475250000002167482473472253840_);}
	.st149{clip-path:url(#SVGID_00000090991231864519337040000000375226230293823404_);}
	.st150{clip-path:url(#SVGID_00000005254946339686557420000000077437258788363659_);}
	.st151{clip-path:url(#SVGID_00000110455575529044007020000004331377363236810113_);}
	.st152{clip-path:url(#SVGID_00000165920741589181671670000001620304938468349364_);}
	.st153{clip-path:url(#SVGID_00000044165096420578338370000013540169816123673732_);}
	.st154{clip-path:url(#SVGID_00000141421047763861734440000007599834500878097545_);}
	.st155{clip-path:url(#SVGID_00000053518466123456272380000018167763512219488690_);}
	.st156{clip-path:url(#SVGID_00000165196936668326174920000010010427724528013473_);}
	.st157{clip-path:url(#SVGID_00000155864913869668933680000001201851649112455815_);}
	.st158{clip-path:url(#SVGID_00000154420734716797440450000005773427041909670813_);}
	.st159{clip-path:url(#SVGID_00000044877961442838228580000007027102071140809099_);}
	.st160{clip-path:url(#SVGID_00000137845178466564681310000011542239012889518761_);}
	.st161{clip-path:url(#SVGID_00000018956033857433983630000000234937799911541180_);}
	.st162{clip-path:url(#SVGID_00000004542446514661686300000010342327205808821917_);}
	.st163{clip-path:url(#SVGID_00000147934432439000289790000017294171613786339979_);}
	.st164{clip-path:url(#SVGID_00000155147901656434947610000000162234282322689690_);}
	.st165{clip-path:url(#SVGID_00000090972801844373645940000015646245339006227339_);}
	.st166{clip-path:url(#SVGID_00000035505074535645991090000013570592007191769775_);}
	.st167{clip-path:url(#SVGID_00000180346385174138920110000005864413758275306922_);}
	.st168{clip-path:url(#SVGID_00000026842876194458384390000009715414450086312323_);}
	.st169{clip-path:url(#SVGID_00000017498458077113673410000003419199080307457689_);}
	.st170{clip-path:url(#SVGID_00000004520272453652120890000014103483717650691256_);}
	.st171{clip-path:url(#SVGID_00000008111886234135026580000011490782137588779160_);}
	.st172{clip-path:url(#SVGID_00000023242858013662783980000013387279411628546711_);}
	.st173{clip-path:url(#SVGID_00000106110918045068836870000005918463136353696403_);}
	.st174{clip-path:url(#SVGID_00000027575093996386462260000001934067481812866706_);}
	.st175{clip-path:url(#SVGID_00000107586297184787300260000010317148866642784669_);}
	.st176{clip-path:url(#SVGID_00000063624084597487086930000000467785247598318240_);}
	.st177{clip-path:url(#SVGID_00000155826164752389995570000003161720387453014658_);}
	.st178{clip-path:url(#SVGID_00000143585086383279098880000003952739121750425242_);}
	.st179{clip-path:url(#SVGID_00000030474339554152339140000013968206435699473793_);}
	.st180{clip-path:url(#SVGID_00000054253818239330145550000002940456225207806369_);}
	.st181{clip-path:url(#SVGID_00000013877487456172853590000013184753916944127132_);}
	.st182{clip-path:url(#SVGID_00000010278058079943526210000006902424691999768980_);}
	.st183{clip-path:url(#SVGID_00000034778283909439477810000001010427970717417644_);}
	.st184{clip-path:url(#SVGID_00000111911106819701426810000011161822994141784706_);}
	.st185{clip-path:url(#SVGID_00000049937240051879590250000006150680958216687235_);}
	.st186{clip-path:url(#SVGID_00000093868582149373126180000010234297476154013841_);}
	.st187{clip-path:url(#SVGID_00000026131352826982390180000011042874450816286143_);}
	.st188{clip-path:url(#SVGID_00000044889675446855034800000009127806774151638194_);}
	.st189{clip-path:url(#SVGID_00000025435039164418227730000009780384014883860117_);}
	.st190{clip-path:url(#SVGID_00000040561269821724707260000013768335401381463225_);}
	.st191{clip-path:url(#SVGID_00000148655152656960282680000005210413175146170034_);}
	.st192{clip-path:url(#SVGID_00000067238510354866416680000015910539741368748682_);}
	.st193{clip-path:url(#SVGID_00000100371854605541331580000003046000526853617290_);}
	.st194{clip-path:url(#SVGID_00000155858533483287785010000015760316677951079101_);}
	.st195{clip-path:url(#SVGID_00000105396379801094412630000007101092844381481614_);}
	.st196{clip-path:url(#SVGID_00000037663559868974231390000013046445208660607619_);}
	.st197{clip-path:url(#SVGID_00000011031905509072828850000001885908330679961220_);}
	.st198{clip-path:url(#SVGID_00000127013619519042902770000010341343987106461071_);}
	.st199{clip-path:url(#SVGID_00000117669911008082410340000006096866471387354269_);}
	.st200{clip-path:url(#SVGID_00000033340300563836259130000007682783677827029908_);}
	.st201{clip-path:url(#SVGID_00000129176955055355391270000007162749523134838975_);}
	.st202{clip-path:url(#SVGID_00000098926990010613442830000018226487408433571245_);}
	.st203{clip-path:url(#SVGID_00000126308187948667085130000012970699275757764267_);}
	.st204{clip-path:url(#SVGID_00000111910657944428727750000010564053761254000002_);}
	.st205{clip-path:url(#SVGID_00000157999888660376740420000015563672365766049705_);}
	.st206{clip-path:url(#SVGID_00000043434841379553021280000010063039548917685674_);}
	.st207{clip-path:url(#SVGID_00000083778144033822167770000002418051327054665098_);}
	.st208{clip-path:url(#SVGID_00000140007251776923098280000012153117675757714097_);}
	.st209{clip-path:url(#SVGID_00000058563378959377166940000005762821822898824119_);}
	.st210{clip-path:url(#SVGID_00000040532731449498645300000002910062881208555960_);}
	.st211{clip-path:url(#SVGID_00000099627826892608581340000014555150503678894006_);}
	.st212{clip-path:url(#SVGID_00000009571295198950258570000015822335804083160989_);}
	.st213{clip-path:url(#SVGID_00000051380048299409741900000011218833239036274347_);}
	.st214{clip-path:url(#SVGID_00000054949685856741473870000009294356318168188083_);}
	.st215{clip-path:url(#SVGID_00000010288005070164578180000011017411070705303197_);}
	.st216{clip-path:url(#SVGID_00000026852936681868211610000014322669306233002891_);}
	.st217{clip-path:url(#SVGID_00000181045740188841384780000004432666023320272300_);}
	.st218{clip-path:url(#SVGID_00000059294357495145004960000007107315326827986863_);}
	.st219{clip-path:url(#SVGID_00000080186442704146861970000004430658931039808440_);}
	.st220{clip-path:url(#SVGID_00000070836017913722589720000014076541873994582445_);}
	.st221{clip-path:url(#SVGID_00000105401985980446362640000014348808731874092469_);}
	.st222{clip-path:url(#SVGID_00000108276785273235983830000015554852672586101132_);}
	.st223{clip-path:url(#SVGID_00000085972462008290526420000014882573747868022185_);}
	.st224{clip-path:url(#SVGID_00000062913259757827794680000009942020266146509999_);}
	.st225{clip-path:url(#SVGID_00000113342515374487963930000001676174014335533990_);}
	.st226{clip-path:url(#SVGID_00000026862844325698674490000014040365139657547425_);}
	.st227{clip-path:url(#SVGID_00000052809278648993560750000006259535605625911943_);}
	.st228{clip-path:url(#SVGID_00000096028229419438409160000018181029631792009370_);}
	.st229{clip-path:url(#SVGID_00000046308706103105012660000008857132234804968600_);}
	.st230{clip-path:url(#SVGID_00000067203016013424272070000001896090505264492183_);}
	.st231{clip-path:url(#SVGID_00000083801789251772240370000013294635856302983582_);}
	.st232{clip-path:url(#SVGID_00000182525635926719097190000015794777056363890598_);}
	.st233{clip-path:url(#SVGID_00000181073079583720952850000008300458155858810001_);}
	.st234{clip-path:url(#SVGID_00000090255903195142474180000012193111837261360059_);}
	.st235{clip-path:url(#SVGID_00000059283293349336692650000002040942466612318612_);}
	.st236{clip-path:url(#SVGID_00000048483993209871486670000006496470487457077690_);}
	.st237{clip-path:url(#SVGID_00000153704000382344389580000005862799107578552207_);}
	.st238{clip-path:url(#SVGID_00000046337310919196654160000002726516520408512144_);}
	.st239{clip-path:url(#SVGID_00000116236758004759496380000003443996885635375538_);}
	.st240{clip-path:url(#SVGID_00000106844394637388461110000001817357777383867049_);}
	.st241{clip-path:url(#SVGID_00000077288899967572927420000005146737389286899847_);}
	.st242{clip-path:url(#SVGID_00000089533518527178446480000006039196084072411839_);}
	.st243{clip-path:url(#SVGID_00000022536090771897923600000015117932133642132408_);}
	.st244{clip-path:url(#SVGID_00000107578595691594514800000003043500833784938143_);}
	.st245{clip-path:url(#SVGID_00000127041906176974266000000005849278269523803819_);}
	.st246{clip-path:url(#SVGID_00000170280196558536303120000000569280152774323643_);}
	.st247{clip-path:url(#SVGID_00000004508573939773666650000009198145605712549020_);}
	.st248{clip-path:url(#SVGID_00000065787072651673967550000003942077801591051946_);}
	.st249{clip-path:url(#SVGID_00000020373874692179512470000008261960284124911535_);}
	.st250{clip-path:url(#SVGID_00000181079535160898693050000006603905809426966681_);}
	.st251{clip-path:url(#SVGID_00000033332079480732236600000015161528322161242286_);}
	.st252{clip-path:url(#SVGID_00000068655833683950401420000002673896097345852545_);}
	.st253{clip-path:url(#SVGID_00000093168246239620048650000015228268230687596961_);}
	.st254{clip-path:url(#SVGID_00000092446899405587963530000001276014485275609753_);}
	.st255{clip-path:url(#SVGID_00000091705096841764703400000008578563435859737754_);}
	.st256{clip-path:url(#SVGID_00000005986001308880489880000017281025391823990671_);}
	.st257{clip-path:url(#SVGID_00000096766893325020418100000013487279371312368297_);}
	.st258{clip-path:url(#SVGID_00000054947711706666327680000013450330969708888449_);}
	.st259{clip-path:url(#SVGID_00000080904166778552312770000015833715209599385740_);}
	.st260{clip-path:url(#SVGID_00000087378049979209428880000013785597905760005504_);}
	.st261{clip-path:url(#SVGID_00000011011771726726571860000015261745875752968589_);}
	.st262{clip-path:url(#SVGID_00000143579437858114683650000008861798121186835593_);}
	.st263{clip-path:url(#SVGID_00000087392621394877003360000016389419896335825076_);}
	.st264{clip-path:url(#SVGID_00000082360219411110444360000015953229660857929146_);}
	.st265{clip-path:url(#SVGID_00000068678249526411670200000010896663388439122329_);}
	.st266{clip-path:url(#SVGID_00000003807516357736527770000008170983593429507206_);}
	.st267{clip-path:url(#SVGID_00000172406536135113275230000017082226605424007316_);}
	.st268{clip-path:url(#SVGID_00000049202333529195612680000011216494884839317683_);}
	.st269{clip-path:url(#SVGID_00000038404204537342675540000010317443606399330468_);}
	.st270{clip-path:url(#SVGID_00000039843218674151382490000003262827830388515243_);}
	.st271{clip-path:url(#SVGID_00000029743647446157394810000000502993751453002635_);}
	.st272{clip-path:url(#SVGID_00000132780776466219382630000006185133699023182772_);}
	.st273{clip-path:url(#SVGID_00000027597232817786024120000001298944497837648058_);}
	.st274{clip-path:url(#SVGID_00000144310946536304704270000000240760870142105251_);}
	.st275{clip-path:url(#SVGID_00000096764313763150704030000009365436972883285647_);}
	.st276{clip-path:url(#SVGID_00000141424044290808419640000010339370537509687175_);}
	.st277{clip-path:url(#SVGID_00000012450125141057616680000002662355159071356043_);}
	.st278{clip-path:url(#SVGID_00000111893452283095450160000015951172001468383629_);}
	.st279{clip-path:url(#SVGID_00000035529354357238260820000003014591369003575700_);}
	.st280{clip-path:url(#SVGID_00000077321874715738818370000007092970293668404355_);}
	.st281{clip-path:url(#SVGID_00000028312810726257772830000008948623578769081743_);}
	.st282{clip-path:url(#SVGID_00000077313395475068980880000016970299548298148528_);}
	.st283{clip-path:url(#SVGID_00000180342253897937255220000016723235151667566990_);}
	.st284{clip-path:url(#SVGID_00000142888057419904842850000003063620864382981005_);}
	.st285{clip-path:url(#SVGID_00000039132106801142760390000001130664295564315544_);}
	.st286{clip-path:url(#SVGID_00000141440089805464028990000010252650077548059067_);}
	.st287{clip-path:url(#SVGID_00000165225815497463791090000013170812109928584603_);}
	.st288{clip-path:url(#SVGID_00000150087906133128148590000011729488133349222290_);}
	.st289{clip-path:url(#SVGID_00000182524069057039392150000006947841928903072186_);}
	.st290{clip-path:url(#SVGID_00000123403234948405733720000017476781323887167383_);}
	.st291{clip-path:url(#SVGID_00000172413427030261486080000006393212198077803966_);}
	.st292{clip-path:url(#SVGID_00000051344881943509807940000000361721407045586063_);}
	.st293{clip-path:url(#SVGID_00000022539125937564864500000004618301774909927868_);}
	.st294{clip-path:url(#SVGID_00000109709480777253573130000013349316295977300363_);}
	.st295{clip-path:url(#SVGID_00000075855038224975281220000010769669090561809545_);}
	.st296{clip-path:url(#SVGID_00000012445866593113995160000017451502622882413461_);}
	.st297{clip-path:url(#SVGID_00000065777387218050590760000007179655929773823394_);}
	.st298{clip-path:url(#SVGID_00000157303940135484912130000015096539410707876501_);}
	.st299{clip-path:url(#SVGID_00000036225491620506186870000004840006222108154558_);}
	.st300{clip-path:url(#SVGID_00000174561112873026227650000008564824724453873544_);}
	.st301{clip-path:url(#SVGID_00000047033568481920616670000014988910824237829763_);}
	.st302{clip-path:url(#SVGID_00000172413561272968569820000006503103615938761645_);}
	.st303{clip-path:url(#SVGID_00000048488372688344767160000008287654933387782034_);}
	.st304{clip-path:url(#SVGID_00000013902688796567276410000005333927646233684629_);}
	.st305{clip-path:url(#SVGID_00000052067071607677557540000000206448450429596580_);}
	.st306{clip-path:url(#SVGID_00000013169595289952155550000015775866841177562297_);}
	.st307{clip-path:url(#SVGID_00000022553009745065665780000003306925738964015245_);}
	.st308{clip-path:url(#SVGID_00000088832214254195249150000001802538113884703370_);}
	.st309{clip-path:url(#SVGID_00000054945382072362126060000017865111427491562649_);}
	.st310{clip-path:url(#SVGID_00000156559668543616280130000005569729377830066564_);}
	.st311{clip-path:url(#SVGID_00000038412782995935200830000010755868500026770610_);}
	.st312{clip-path:url(#SVGID_00000025438531846785966850000012165398381688712361_);}
	.st313{clip-path:url(#SVGID_00000103233707597610516710000008406626085078194347_);}
	.st314{clip-path:url(#SVGID_00000033338926408349695800000016315603824173729452_);}
	.st315{clip-path:url(#SVGID_00000173845817816886005280000008032664135588763281_);}
	.st316{clip-path:url(#SVGID_00000148654868949748031370000011581910736760809112_);}
	.st317{clip-path:url(#SVGID_00000072276297563315334470000014232294916446994322_);}
	.st318{clip-path:url(#SVGID_00000025434980688109445960000002682203759993542550_);}
	.st319{clip-path:url(#SVGID_00000005237513526062795730000012614205390539856275_);}
	.st320{clip-path:url(#SVGID_00000031902039192359931070000004520959460698370488_);}
	.st321{clip-path:url(#SVGID_00000029045282510486993370000003810911856514250402_);}
	.st322{clip-path:url(#SVGID_00000114032071934588241040000014993738146275451284_);}
	.st323{clip-path:url(#SVGID_00000091001760122664145210000001611335024917458610_);}
	.st324{clip-path:url(#SVGID_00000005978521432091859870000006092229190832264599_);}
	.st325{clip-path:url(#SVGID_00000074411790697401121290000012107197335117128604_);}
	.st326{clip-path:url(#SVGID_00000005255099479120900880000006906930477289442720_);}
	.st327{clip-path:url(#SVGID_00000098912609079555672380000017925668892818031291_);}
	.st328{clip-path:url(#SVGID_00000147907330870299615400000003275230375472732340_);}
	.st329{clip-path:url(#SVGID_00000073695229191625975300000002992979385715326631_);}
	.st330{clip-path:url(#SVGID_00000148654610039417119900000017808255595196644021_);}
	.st331{clip-path:url(#SVGID_00000091011214780659562090000002070266871893205415_);}
	.st332{clip-path:url(#SVGID_00000121265983565149235490000017904725273068069262_);}
	.st333{clip-path:url(#SVGID_00000101093415485821127910000007923642046328337599_);}
	.st334{clip-path:url(#SVGID_00000027578803916900948960000004173902331945979577_);}
	.st335{clip-path:url(#SVGID_00000006701469262783074950000013790312082903354512_);}
	.st336{clip-path:url(#SVGID_00000003091916673913282710000016600438281951894419_);}
	.st337{clip-path:url(#SVGID_00000000190506335617082080000017203239850565848468_);}
	.st338{clip-path:url(#SVGID_00000158722389641192700810000015143202038491843973_);}
	.st339{clip-path:url(#SVGID_00000164503845855673838800000012836227847103982219_);}
	.st340{clip-path:url(#SVGID_00000036227667266513213970000017821111375248320128_);}
	.st341{clip-path:url(#SVGID_00000069379739319262421900000017460766579233358508_);}
	.st342{clip-path:url(#SVGID_00000117653915339909817700000016344488428451287452_);}
	.st343{clip-path:url(#SVGID_00000147191970276367681460000002073575377069943188_);}
	.st344{clip-path:url(#SVGID_00000080172778610337912690000011880497915088796328_);}
	.st345{clip-path:url(#SVGID_00000030458328262593733990000010172298671922129590_);}
	.st346{clip-path:url(#SVGID_00000142857044244634207930000003119465510912881852_);}
	.st347{clip-path:url(#SVGID_00000154405156610665813420000017307113431296301719_);}
	.st348{clip-path:url(#SVGID_00000137127875707085414090000001969490178058207676_);}
	.st349{clip-path:url(#SVGID_00000097480248427546757870000017521008241703942079_);}
	.st350{clip-path:url(#SVGID_00000075853952231148968010000009963211187666188477_);}
	.st351{clip-path:url(#SVGID_00000072975691197928474760000005426115014023680166_);}
	.st352{clip-path:url(#SVGID_00000116233939263664286790000004064272311111740348_);}
	.st353{clip-path:url(#SVGID_00000062900902263395561480000017853033726491708302_);}
	.st354{clip-path:url(#SVGID_00000023279289335857530070000011500219773702630541_);}
	.st355{clip-path:url(#SVGID_00000088828674709672578760000007506934384212039828_);}
	.st356{clip-path:url(#SVGID_00000040553154449890257600000016729056982448017285_);}
	.st357{clip-path:url(#SVGID_00000183232276382600357660000016352725554862059706_);}
	.st358{clip-path:url(#SVGID_00000168821748290883130830000013909328766247645067_);}
	.st359{clip-path:url(#SVGID_00000093177127059268367570000018281374772017464739_);}
	.st360{clip-path:url(#SVGID_00000010990698438631300980000002591947751687250054_);}
	.st361{clip-path:url(#SVGID_00000183966304615268183970000014309736521823569798_);}
	.st362{clip-path:url(#SVGID_00000178894611530490798900000002428325393247274657_);}
	.st363{clip-path:url(#SVGID_00000174601281175426078330000015379554732221970613_);}
	.st364{clip-path:url(#SVGID_00000160885014932457538380000007556517070535569319_);}
	.st365{clip-path:url(#SVGID_00000122717758165948984350000005219237662329901465_);}
	.st366{clip-path:url(#SVGID_00000081626238829514805570000018202368208721454212_);}
	.st367{clip-path:url(#SVGID_00000018920297988790626120000010514563415591403651_);}
	.st368{clip-path:url(#SVGID_00000041284014080797465160000003233736856270139038_);}
	.st369{clip-path:url(#SVGID_00000103241867733758652750000014914312691741204133_);}
	.st370{clip-path:url(#SVGID_00000047757810860484347510000012342186044382741403_);}
	.st371{clip-path:url(#SVGID_00000183950006108968019770000001026240605934491319_);}
	.st372{clip-path:url(#SVGID_00000083809362629228149930000014097830812039031468_);}
	.st373{clip-path:url(#SVGID_00000138547227429292036780000004729883264631957143_);}
	.st374{clip-path:url(#SVGID_00000105406985753448526390000004273660502241284785_);}
	.st375{clip-path:url(#SVGID_00000049916444924386165800000005307966669416276405_);}
</style>
<g>
	<g>
		<rect x="2.85" y="135.31" class="st0" width="48.54" height="795.77"/>
	</g>
	<g>
		<rect x="1.26" y="2.16" class="st1" width="997.9" height="134.44"/>
	</g>
	<g>
		<defs>
			<rect id="SVGID_00000098197041182344659710000012772565255566446208_" y="0" width="1000" height="935.58"/>
		</defs>
		<clipPath id="SVGID_00000044165064761484402410000003494077470793594047_">
			<use xlink:href="#SVGID_00000098197041182344659710000012772565255566446208_"  style="overflow:visible;"/>
		</clipPath>
		<g style="clip-path:url(#SVGID_00000044165064761484402410000003494077470793594047_);">
			<path class="st3" d="M997.19,935.58H1.68c-0.93,0-1.68-0.75-1.68-1.68V1.69C0,0.76,0.75,0,1.68,0h995.5
				c0.93,0,1.68,0.75,1.68,1.68v932.21C998.87,934.82,998.12,935.58,997.19,935.58z M3.37,932.21H995.5V3.37H3.37V932.21z"/>
		</g>
		<g style="clip-path:url(#SVGID_00000044165064761484402410000003494077470793594047_);">
			<rect x="2.06" y="133.63" class="st3" width="997.94" height="3.37"/>
		</g>
		<g style="clip-path:url(#SVGID_00000044165064761484402410000003494077470793594047_);">
			<path class="st4" d="M825.85,68.02h-14.46c0.07-1.69,0.29-2.71,0.88-4.1c1.02-2.27,3.14-3.95,6.36-3.95
				c3.21,0,5.33,1.68,6.36,3.95C825.55,65.31,825.77,66.33,825.85,68.02 M835.2,74.51v-4.23c0-10.45-5.99-18.18-16.58-18.18
				c-9.86,0-16.58,7-16.58,19.43c0,15.41,8.61,19.5,17.6,19.5c6.87,0,10.59-2.12,14.46-5.98l-5.77-5.62
				c-2.41,2.41-4.46,3.58-8.62,3.58c-5.33,0-8.33-3.58-8.33-8.48H835.2z M796.33,60.85v-7.22h-7.01v-4.17c0-2.2,1.02-3.44,3.29-3.44
				h3.73v-8.02h-5.41c-7.74,0-11.1,5.47-11.1,10.88v4.75h-3.94v7.22h3.94v29.73h9.49V60.85H796.33z M766.68,38.29h-9.7v7.73h9.7
				V38.29z M766.6,52.53h-9.49v38.05h9.49V52.53z M737.53,68.02h-14.46c0.07-1.69,0.29-2.71,0.88-4.1c1.02-2.27,3.14-3.95,6.36-3.95
				c3.21,0,5.33,1.68,6.36,3.95C737.24,65.31,737.46,66.33,737.53,68.02 M746.88,74.51v-4.23c0-10.45-5.99-18.18-16.58-18.18
				c-9.86,0-16.58,7-16.58,19.43c0,15.41,8.61,19.5,17.6,19.5c6.87,0,10.59-2.12,14.46-5.98l-5.77-5.62
				c-2.41,2.41-4.46,3.58-8.62,3.58c-5.33,0-8.33-3.58-8.33-8.48H746.88z M711.01,55.66c-2.63-2.63-5.26-3.57-8.98-3.57
				c-4.09,0-7.74,1.89-9.57,4.09v-3.65h-9.27v38.05h9.49V67.64c0-4.82,3.21-7.01,6.14-7.01c2.34,0,3.58,0.8,5.04,2.26L711.01,55.66z
				 M674.12,90.58v-8.02h-3.65c-2.41,0-3.36-1.17-3.36-3.43V38.58h-9.48V79.7c0,5.4,3.28,10.87,11.09,10.87H674.12z M645.86,90.58
				V52.53h-9.48v23.01c0,5.19-3.37,6.94-6.36,6.94c-3,0-6.29-1.75-6.29-6.94V52.53h-9.48v24.32c0,4.16,0.8,7.74,3.87,10.81
				c2.12,2.11,5.18,3.35,8.98,3.35c3.51,0,7.02-1.31,9.51-3.94v3.5H645.86z M602.98,90.58V65.96c0-8.03-4.38-13.87-12.7-13.87
				c-3.36,0-6.57,1.31-9.14,3.94V38.58h-9.49v52h9.49V67.35c0-4.97,3.15-6.72,6.14-6.72c2.99,0,6.21,1.68,6.21,6.72v23.23H602.98z
				 M562.8,85.83l-6.43-6.36c-1.97,2.12-3.65,3-6.14,3c-2.26,0-4.02-0.8-5.41-2.49c-1.46-1.83-2.12-4.46-2.12-8.47
				s0.66-6.58,2.12-8.41c1.39-1.68,3.14-2.48,5.41-2.48c2.48,0,4.16,0.88,6.14,2.99l6.43-6.42c-3.36-3.51-7.3-5.11-12.56-5.11
				c-7.6,0-17.01,4.01-17.01,19.43s9.41,19.5,17.01,19.5C555.49,91.01,559.44,89.33,562.8,85.83 M525.7,78.6
				c0-6.43-3.8-10.45-11.32-11.18l-5.99-0.59c-3.36-0.29-3.94-1.9-3.94-3.29c0-1.9,1.61-3.65,5.41-3.65c3.29,0,6.65,0.58,8.84,2.56
				l5.84-5.91c-3.65-3.43-8.62-4.45-14.54-4.45c-7.74,0-14.68,4.23-14.68,12.11c0,7.02,4.24,10.01,11.1,10.67l5.99,0.58
				c2.99,0.29,4.02,1.61,4.02,3.51c0,2.85-3.43,3.95-6.72,3.95c-2.92,0-7.01-0.44-10.15-3.58l-6.21,6.21
				c4.82,4.82,10.23,5.47,16.22,5.47C518.54,91.01,525.7,87,525.7,78.6 M485.37,90.58V65.96c0-8.03-4.38-13.87-12.7-13.87
				c-3.37,0-6.58,1.31-9.14,3.94V38.58h-9.49v52h9.49V67.35c0-4.97,3.14-6.72,6.14-6.72c3,0,6.21,1.68,6.21,6.72v23.23H485.37z
				 M445.2,85.83l-6.43-6.36c-1.97,2.12-3.65,3-6.14,3c-2.26,0-4.02-0.8-5.41-2.49c-1.46-1.83-2.12-4.46-2.12-8.47
				s0.66-6.58,2.12-8.41c1.39-1.68,3.14-2.48,5.41-2.48c2.48,0,4.16,0.88,6.14,2.99l6.43-6.42c-3.36-3.51-7.3-5.11-12.56-5.11
				c-7.6,0-17.01,4.01-17.01,19.43s9.42,19.5,17.01,19.5C437.89,91.01,441.84,89.33,445.2,85.83 M397.5,71.52
				c0,3.94-0.22,7.3-2.19,9.28c-1.1,1.1-2.56,1.69-4.46,1.69c-1.9,0-3.29-0.58-4.38-1.69c-1.97-1.97-2.19-5.33-2.19-9.28
				s0.22-7.24,2.19-9.21c1.1-1.1,2.48-1.68,4.38-1.68c1.9,0,3.37,0.58,4.46,1.68C397.28,64.28,397.5,67.57,397.5,71.52
				 M406.99,71.52c0-6.87-0.88-11.18-4.31-14.76c-2.33-2.48-6.2-4.67-11.83-4.67c-5.62,0-9.42,2.19-11.76,4.67
				c-3.43,3.57-4.3,7.88-4.3,14.76c0,6.94,0.88,11.26,4.3,14.83c2.34,2.48,6.14,4.67,11.76,4.67c5.63,0,9.5-2.19,11.83-4.67
				C406.12,82.77,406.99,78.46,406.99,71.52 M364.7,90.58V65.96c0-8.03-4.38-13.87-12.7-13.87c-3.36,0-6.58,1.31-9.14,3.94V38.58
				h-9.49v52h9.49V67.35c0-4.97,3.14-6.72,6.14-6.72c2.99,0,6.21,1.68,6.21,6.72v23.23H364.7z M321.67,90.58V65.96
				c0-8.03-4.38-13.87-12.7-13.87c-3.36,0-6.58,1.31-9.14,3.94V38.58h-9.49v52h9.49V67.35c0-4.97,3.14-6.72,6.14-6.72
				c2.99,0,6.21,1.68,6.21,6.72v23.23H321.67z M281.5,85.83l-6.43-6.36c-1.97,2.12-3.65,3-6.14,3c-2.26,0-4.02-0.8-5.41-2.49
				c-1.46-1.83-2.12-4.46-2.12-8.47s0.66-6.58,2.12-8.41c1.39-1.68,3.14-2.48,5.41-2.48c2.48,0,4.16,0.88,6.14,2.99l6.43-6.42
				c-3.36-3.51-7.3-5.11-12.56-5.11c-7.6,0-17.01,4.01-17.01,19.43s9.41,19.5,17.01,19.5C274.19,91.01,278.14,89.33,281.5,85.83
				 M232.64,76.55c0,2.34-0.37,3.88-1.39,4.83c-1.69,1.61-3.37,1.83-6,1.83c-3.73,0-5.48-1.76-5.48-4.39c0-2.71,1.9-4.32,5.34-4.32
				h7.53V76.55z M242.12,90.58V65.53c0-8.91-5.55-13.44-16.21-13.44c-6.36,0-10.01,1.16-13.73,5.25l6.06,5.92
				c1.97-2.27,3.65-3.15,7.31-3.15c5.04,0,7.09,1.83,7.09,6v1.9h-8.99c-8.84,0-13,4.96-13,11.02c0,3.36,1.1,6.43,3.14,8.55
				c2.26,2.26,5.4,3.35,9.72,3.35c4.38,0,6.79-1.1,9.36-3.65v3.28H242.12z M206.18,47.62v-9.05h-34.25v52h10.14V69.47h20.53v-9.05
				h-20.53V47.62H206.18z"/>
		</g>
		<g style="clip-path:url(#SVGID_00000044165064761484402410000003494077470793594047_);">
			<rect x="3.09" y="464.7" class="st3" width="992.7" height="3.37"/>
		</g>
		<g style="clip-path:url(#SVGID_00000044165064761484402410000003494077470793594047_);">
			<rect x="3.09" y="347.82" class="st3" width="992.7" height="3.37"/>
		</g>
		<g style="clip-path:url(#SVGID_00000044165064761484402410000003494077470793594047_);">
			<rect x="3.09" y="236.56" class="st3" width="992.7" height="3.37"/>
		</g>
		<g style="clip-path:url(#SVGID_00000044165064761484402410000003494077470793594047_);">
			<rect x="3.09" y="578.76" class="st3" width="992.7" height="3.37"/>
		</g>
		<g style="clip-path:url(#SVGID_00000044165064761484402410000003494077470793594047_);">
			<rect x="3.09" y="701.26" class="st3" width="992.7" height="3.37"/>
		</g>
		<g style="clip-path:url(#SVGID_00000044165064761484402410000003494077470793594047_);">
			<rect x="3.09" y="818.14" class="st3" width="992.7" height="3.37"/>
		</g>
		<g style="clip-path:url(#SVGID_00000044165064761484402410000003494077470793594047_);">
			<path class="st3" d="M711.9,777.01c0,4.06-2.4,6.62-5.82,6.62c-3.42,0-5.77-2.57-5.77-6.62c0-4.11,2.35-6.57,5.77-6.57
				C709.71,770.44,711.9,773.27,711.9,777.01 M717.34,776.9c0-6.68-4.48-10.99-9.98-10.99c-1.17,0-2.35,0.16-3.37,0.58l8.17-16.33
				h-5.82l-8.65,17.62c-1.65,3.3-2.83,6.24-2.83,9.34c0,7.05,4.69,11.37,11.26,11.37C712.7,788.48,717.34,783.9,717.34,776.9
				 M676.02,784.64l-3.69-3.63c-1.65,1.66-2.78,2.62-5.23,2.62c-4.38,0-6.62-3.05-6.62-9.02c0-5.88,2.24-8.97,6.62-8.97
				c2.41,0,3.63,0.96,5.23,2.56l3.69-3.57c-1.71-1.71-2.56-2.29-4.01-2.93c-1.39-0.58-2.99-0.9-4.85-0.9
				c-7.58,0-12.11,5.17-12.11,13.72c0,8.81,4.48,13.98,12.11,13.98c1.87,0,3.42-0.26,4.85-0.9
				C673.46,786.94,674.31,786.35,676.02,784.64 M650.13,784.64l-3.68-3.63c-1.66,1.66-2.78,2.62-5.23,2.62
				c-4.38,0-6.62-3.05-6.62-9.02c0-5.88,2.24-8.97,6.62-8.97c2.4,0,3.63,0.96,5.23,2.56l3.68-3.57c-1.71-1.71-2.56-2.29-4-2.93
				c-1.39-0.58-2.99-0.9-4.86-0.9c-7.57,0-12.11,5.17-12.11,13.72c0,8.81,4.48,13.98,12.11,13.98c1.87,0,3.42-0.26,4.86-0.9
				C647.56,786.94,648.42,786.35,650.13,784.64 M616.24,778.4c0,3.95-1.71,5.56-5.93,5.56c-3.69,0-5.34-1.23-5.34-3.85
				c0-2.56,1.65-3.84,4.86-3.84h6.41V778.4z M621.63,788.16v-18.09c0-6.14-3.79-9.28-11.32-9.28c-2.56,0-4.48,0.32-6.03,1.06
				c-1.33,0.59-2.02,1.23-3.52,2.83l3.57,3.37c0.8-1.02,1.39-1.55,2.19-1.92c0.96-0.48,2.08-0.7,3.64-0.7
				c4.27,0,6.09,1.49,6.09,5.02v1.98h-7.27c-5.77,0-9.28,2.93-9.28,7.84c0,5.23,3.36,8.16,9.39,8.16c3.21,0,4.97-0.48,7.21-2.72
				v2.45H621.63z M592.48,788.16v-27.06h-18.52v11.26c0,10.47-2.78,11-5.12,11h-0.85v4.8h2.56c5.28,0,8.64-2.98,8.64-14.46v-7.85
				h7.86v22.31H592.48z M544.22,788.16v-19.85l15.32,19.85h7.32l-15.96-20.07l14.63-17.94h-7.1l-14.2,18.04v-18.04h-5.76v38H544.22z
				 M519.62,746.21h-5.23l-15.22,45.9h5.23L519.62,746.21z M476.86,777.01c0,4.06-2.4,6.62-5.82,6.62s-5.77-2.57-5.77-6.62
				c0-4.11,2.35-6.57,5.77-6.57C474.67,770.44,476.86,773.27,476.86,777.01 M482.3,776.9c0-6.68-4.48-10.99-9.98-10.99
				c-1.17,0-2.35,0.16-3.37,0.58l8.18-16.33h-5.82l-8.65,17.62c-1.66,3.3-2.83,6.24-2.83,9.34c0,7.05,4.69,11.37,11.26,11.37
				C477.66,788.48,482.3,783.9,482.3,776.9 M434.69,772.42h-12.17c0.06-1.66,0.16-2.46,0.7-3.69c0.85-2.03,2.83-3.42,5.39-3.42
				c2.56,0,4.48,1.39,5.34,3.42C434.47,769.96,434.63,770.76,434.69,772.42 M440.08,776.2v-2.4c0-7.69-4.22-13.02-11.48-13.02
				c-6.94,0-11.47,5.06-11.47,13.82c0,10.3,5.38,13.87,12.17,13.87c4.75,0,7.37-1.44,10.14-4.21l-3.47-3.26
				c-1.92,1.92-3.52,2.78-6.56,2.78c-4.43,0-6.89-2.94-6.89-7.59H440.08z M411.36,779.89c0-4.8-2.99-7.21-8.06-7.64l-4.27-0.37
				c-2.88-0.27-3.74-1.49-3.74-3.1c0-2.03,1.65-3.47,4.91-3.47c2.56,0,4.96,0.53,6.67,1.98l3.42-3.47
				c-2.51-2.19-5.98-3.03-10.04-3.03c-5.66,0-10.19,2.98-10.19,8.27c0,4.75,2.93,7.05,8.01,7.48l4.32,0.37
				c2.62,0.21,3.63,1.39,3.63,3.2c0,2.57-2.61,3.74-5.92,3.74c-2.67,0-5.61-0.59-7.79-2.83l-3.58,3.58
				c3.2,3.14,6.94,3.89,11.37,3.89C406.56,788.48,411.36,785.55,411.36,779.89 M384.51,779.89c0-4.8-2.99-7.21-8.06-7.64l-4.27-0.37
				c-2.88-0.27-3.74-1.49-3.74-3.1c0-2.03,1.66-3.47,4.91-3.47c2.56,0,4.97,0.53,6.68,1.98l3.42-3.47
				c-2.51-2.19-5.98-3.03-10.04-3.03c-5.66,0-10.2,2.98-10.2,8.27c0,4.75,2.94,7.05,8.01,7.48l4.33,0.37
				c2.61,0.21,3.63,1.39,3.63,3.2c0,2.57-2.62,3.74-5.93,3.74c-2.67,0-5.6-0.59-7.79-2.83l-3.57,3.58c3.2,3.14,6.94,3.89,11.37,3.89
				C379.71,788.48,384.51,785.55,384.51,779.89 M350.14,778.4c0,1.92-0.37,3.2-1.17,4.01c-1.44,1.39-2.99,1.55-5.07,1.55
				c-3.42,0-4.97-1.39-4.97-3.85c0-2.46,1.66-3.9,4.86-3.9h6.36V778.4z M355.57,788.16v-18.09c0-6.14-3.73-9.28-11.15-9.28
				c-4.48,0-7.15,0.9-9.71,3.89l3.57,3.37c1.49-1.92,2.94-2.62,5.93-2.62c4.22,0,5.93,1.66,5.93,5.07v1.93h-7.15
				c-6.19,0-9.34,3.25-9.34,7.79c0,2.3,0.75,4.38,2.14,5.82c1.65,1.65,3.89,2.45,7.25,2.45c3.37,0,5.24-0.8,7.21-2.77v2.45H355.57z
				 M329.15,788.16v-4.64h-2.4c-2.19,0-2.93-1.07-2.93-3.15v-30.21h-5.44v30.53c0,4,2.24,7.47,7.41,7.47H329.15z M313.14,788.16
				l-13.62-23.11l12.33-14.89h-7.05l-15.54,19.11v-19.11h-5.75v38h5.75v-11.05l6.41-7.69l10.68,18.73H313.14z"/>
		</g>
		<g style="clip-path:url(#SVGID_00000044165064761484402410000003494077470793594047_);">
			<path class="st3" d="M717.87,632.52v-4.85h-22.63v10.83h5.23v-5.98h11.59l-12.76,33.15h5.87L717.87,632.52z M676.02,662.15
				l-3.69-3.63c-1.65,1.66-2.78,2.62-5.23,2.62c-4.38,0-6.62-3.05-6.62-9.02c0-5.88,2.24-8.97,6.62-8.97c2.41,0,3.63,0.96,5.23,2.56
				l3.69-3.57c-1.71-1.71-2.56-2.29-4.01-2.93c-1.39-0.58-2.99-0.9-4.85-0.9c-7.58,0-12.11,5.17-12.11,13.72
				c0,8.81,4.48,13.98,12.11,13.98c1.87,0,3.42-0.26,4.85-0.9C673.46,664.44,674.31,663.86,676.02,662.15 M650.13,662.15l-3.68-3.63
				c-1.66,1.66-2.78,2.62-5.23,2.62c-4.38,0-6.62-3.05-6.62-9.02c0-5.88,2.24-8.97,6.62-8.97c2.4,0,3.63,0.96,5.23,2.56l3.68-3.57
				c-1.71-1.71-2.56-2.29-4-2.93c-1.39-0.58-2.99-0.9-4.86-0.9c-7.57,0-12.11,5.17-12.11,13.72c0,8.81,4.48,13.98,12.11,13.98
				c1.87,0,3.42-0.26,4.86-0.9C647.56,664.44,648.42,663.86,650.13,662.15 M616.24,655.9c0,3.95-1.71,5.56-5.93,5.56
				c-3.69,0-5.34-1.23-5.34-3.85c0-2.56,1.65-3.84,4.86-3.84h6.41V655.9z M621.63,665.67v-18.09c0-6.14-3.79-9.28-11.32-9.28
				c-2.56,0-4.48,0.32-6.03,1.06c-1.33,0.59-2.02,1.23-3.52,2.83l3.57,3.37c0.8-1.02,1.39-1.55,2.19-1.92
				c0.96-0.48,2.08-0.7,3.64-0.7c4.27,0,6.09,1.49,6.09,5.02v1.98h-7.27c-5.77,0-9.28,2.93-9.28,7.84c0,5.23,3.36,8.16,9.39,8.16
				c3.21,0,4.97-0.48,7.21-2.72v2.45H621.63z M592.48,665.67v-27.06h-18.52v11.26c0,10.47-2.78,11-5.12,11h-0.85v4.8h2.56
				c5.28,0,8.64-2.98,8.64-14.46v-7.85h7.86v22.31H592.48z M544.22,665.67v-19.85l15.32,19.85h7.32l-15.96-20.07l14.63-17.94h-7.1
				l-14.2,18.04v-18.04h-5.76v38H544.22z M519.62,623.71h-5.23l-15.22,45.9h5.23L519.62,623.71z M482.84,632.52v-4.85h-22.63v10.83
				h5.23v-5.98h11.58l-12.76,33.15h5.87L482.84,632.52z M434.69,649.93h-12.17c0.06-1.66,0.16-2.46,0.7-3.69
				c0.85-2.03,2.83-3.42,5.39-3.42c2.56,0,4.48,1.39,5.34,3.42C434.47,647.46,434.63,648.27,434.69,649.93 M440.08,653.71v-2.4
				c0-7.69-4.22-13.02-11.48-13.02c-6.94,0-11.47,5.06-11.47,13.82c0,10.3,5.38,13.87,12.17,13.87c4.75,0,7.37-1.44,10.14-4.21
				l-3.47-3.26c-1.92,1.92-3.52,2.78-6.56,2.78c-4.43,0-6.89-2.94-6.89-7.59H440.08z M411.36,657.39c0-4.8-2.99-7.21-8.06-7.64
				l-4.27-0.37c-2.88-0.27-3.74-1.49-3.74-3.1c0-2.03,1.65-3.47,4.91-3.47c2.56,0,4.96,0.53,6.67,1.98l3.42-3.47
				c-2.51-2.19-5.98-3.03-10.04-3.03c-5.66,0-10.19,2.98-10.19,8.27c0,4.75,2.93,7.05,8.01,7.48l4.32,0.37
				c2.62,0.21,3.63,1.39,3.63,3.2c0,2.57-2.61,3.74-5.92,3.74c-2.67,0-5.61-0.59-7.79-2.83l-3.58,3.58
				c3.2,3.14,6.94,3.89,11.37,3.89C406.56,665.99,411.36,663.05,411.36,657.39 M384.51,657.39c0-4.8-2.99-7.21-8.06-7.64l-4.27-0.37
				c-2.88-0.27-3.74-1.49-3.74-3.1c0-2.03,1.66-3.47,4.91-3.47c2.56,0,4.97,0.53,6.68,1.98l3.42-3.47
				c-2.51-2.19-5.98-3.03-10.04-3.03c-5.66,0-10.2,2.98-10.2,8.27c0,4.75,2.94,7.05,8.01,7.48l4.33,0.37
				c2.61,0.21,3.63,1.39,3.63,3.2c0,2.57-2.62,3.74-5.93,3.74c-2.67,0-5.6-0.59-7.79-2.83l-3.57,3.58c3.2,3.14,6.94,3.89,11.37,3.89
				C379.71,665.99,384.51,663.05,384.51,657.39 M350.14,655.9c0,1.92-0.37,3.2-1.17,4.01c-1.44,1.39-2.99,1.55-5.07,1.55
				c-3.42,0-4.97-1.39-4.97-3.85c0-2.46,1.66-3.9,4.86-3.9h6.36V655.9z M355.57,665.67v-18.09c0-6.14-3.73-9.28-11.15-9.28
				c-4.48,0-7.15,0.9-9.71,3.89l3.57,3.37c1.49-1.92,2.94-2.62,5.93-2.62c4.22,0,5.93,1.66,5.93,5.07v1.93h-7.15
				c-6.19,0-9.34,3.25-9.34,7.79c0,2.3,0.75,4.38,2.14,5.82c1.65,1.65,3.89,2.45,7.25,2.45c3.37,0,5.24-0.8,7.21-2.77v2.45H355.57z
				 M329.15,665.67v-4.64h-2.4c-2.19,0-2.93-1.07-2.93-3.15v-30.21h-5.44v30.53c0,4,2.24,7.47,7.41,7.47H329.15z M313.14,665.67
				l-13.62-23.11l12.33-14.89h-7.05l-15.54,19.11v-19.11h-5.75v38h5.75v-11.05l6.41-7.69l10.68,18.73H313.14z"/>
		</g>
		<g style="clip-path:url(#SVGID_00000044165064761484402410000003494077470793594047_);">
			<path class="st3" d="M711.73,521.14c0,3.36-2.35,5.77-5.66,5.77c-3.32,0-5.61-2.41-5.61-5.77c0-3.32,2.29-5.82,5.61-5.82
				C709.39,515.32,711.73,517.83,711.73,521.14 M712.32,537.95c0,3.52-2.73,6.3-6.25,6.3c-3.53,0-6.25-2.78-6.25-6.3
				c0-3.52,2.72-6.36,6.25-6.36C709.6,531.6,712.32,534.43,712.32,537.95 M717.81,538.06c0-4.54-2.56-7.32-5.23-8.91
				c2.46-1.49,4.59-4.16,4.59-8.17c0-6.36-4.91-10.51-11.1-10.51c-6.2,0-11.05,4.16-11.05,10.51c0,4.01,2.13,6.68,4.59,8.17
				c-2.67,1.6-5.23,4.37-5.23,8.91c0,6.89,5.17,11.05,11.69,11.05C712.59,549.11,717.81,544.95,717.81,538.06 M676.02,545.27
				l-3.69-3.63c-1.65,1.66-2.78,2.62-5.23,2.62c-4.38,0-6.62-3.05-6.62-9.02c0-5.88,2.24-8.97,6.62-8.97c2.41,0,3.63,0.96,5.23,2.56
				l3.69-3.57c-1.71-1.71-2.56-2.29-4.01-2.93c-1.39-0.58-2.99-0.9-4.85-0.9c-7.58,0-12.11,5.17-12.11,13.72
				c0,8.81,4.48,13.98,12.11,13.98c1.87,0,3.42-0.26,4.85-0.9C673.46,547.56,674.31,546.98,676.02,545.27 M650.13,545.27l-3.68-3.63
				c-1.66,1.66-2.78,2.62-5.23,2.62c-4.38,0-6.62-3.05-6.62-9.02c0-5.88,2.24-8.97,6.62-8.97c2.4,0,3.63,0.96,5.23,2.56l3.68-3.57
				c-1.71-1.71-2.56-2.29-4-2.93c-1.39-0.58-2.99-0.9-4.86-0.9c-7.57,0-12.11,5.17-12.11,13.72c0,8.81,4.48,13.98,12.11,13.98
				c1.87,0,3.42-0.26,4.86-0.9C647.56,547.56,648.42,546.98,650.13,545.27 M616.24,539.02c0,3.95-1.71,5.56-5.93,5.56
				c-3.69,0-5.34-1.23-5.34-3.85c0-2.56,1.65-3.84,4.86-3.84h6.41V539.02z M621.63,548.79v-18.09c0-6.14-3.79-9.28-11.32-9.28
				c-2.56,0-4.48,0.32-6.03,1.06c-1.33,0.59-2.02,1.23-3.52,2.83l3.57,3.37c0.8-1.02,1.39-1.55,2.19-1.92
				c0.96-0.48,2.08-0.7,3.64-0.7c4.27,0,6.09,1.49,6.09,5.02v1.98h-7.27c-5.77,0-9.28,2.93-9.28,7.84c0,5.23,3.36,8.16,9.39,8.16
				c3.21,0,4.97-0.48,7.21-2.72v2.45H621.63z M592.48,548.79v-27.06h-18.52v11.26c0,10.47-2.78,11-5.12,11h-0.85v4.8h2.56
				c5.28,0,8.64-2.98,8.64-14.46v-7.85h7.86v22.31H592.48z M544.22,548.79v-19.85l15.32,19.85h7.32l-15.96-20.07l14.63-17.94h-7.1
				l-14.2,18.04v-18.04h-5.76v38H544.22z M519.62,506.84h-5.23l-15.22,45.9h5.23L519.62,506.84z M476.7,521.14
				c0,3.36-2.35,5.77-5.66,5.77c-3.31,0-5.61-2.41-5.61-5.77c0-3.32,2.3-5.82,5.61-5.82C474.35,515.32,476.7,517.83,476.7,521.14
				 M477.29,537.95c0,3.52-2.73,6.3-6.25,6.3s-6.25-2.78-6.25-6.3c0-3.52,2.73-6.36,6.25-6.36S477.29,534.43,477.29,537.95
				 M482.78,538.06c0-4.54-2.56-7.32-5.22-8.91c2.45-1.49,4.59-4.16,4.59-8.17c0-6.36-4.91-10.51-11.1-10.51
				c-6.19,0-11.05,4.16-11.05,10.51c0,4.01,2.14,6.68,4.59,8.17c-2.66,1.6-5.23,4.37-5.23,8.91c0,6.89,5.18,11.05,11.69,11.05
				C477.56,549.11,482.78,544.95,482.78,538.06 M434.69,533.05h-12.17c0.06-1.66,0.16-2.46,0.7-3.69c0.85-2.03,2.83-3.42,5.39-3.42
				c2.56,0,4.48,1.39,5.34,3.42C434.47,530.59,434.63,531.39,434.69,533.05 M440.08,536.83v-2.4c0-7.69-4.22-13.02-11.48-13.02
				c-6.94,0-11.47,5.06-11.47,13.82c0,10.3,5.38,13.87,12.17,13.87c4.75,0,7.37-1.44,10.14-4.21l-3.47-3.26
				c-1.92,1.92-3.52,2.78-6.56,2.78c-4.43,0-6.89-2.94-6.89-7.59H440.08z M411.36,540.52c0-4.8-2.99-7.21-8.06-7.64l-4.27-0.37
				c-2.88-0.27-3.74-1.49-3.74-3.1c0-2.03,1.65-3.47,4.91-3.47c2.56,0,4.96,0.53,6.67,1.98l3.42-3.47
				c-2.51-2.19-5.98-3.03-10.04-3.03c-5.66,0-10.19,2.98-10.19,8.27c0,4.75,2.93,7.05,8.01,7.48l4.32,0.37
				c2.62,0.21,3.63,1.39,3.63,3.2c0,2.57-2.61,3.74-5.92,3.74c-2.67,0-5.61-0.59-7.79-2.83l-3.58,3.58
				c3.2,3.14,6.94,3.89,11.37,3.89C406.56,549.11,411.36,546.18,411.36,540.52 M384.51,540.52c0-4.8-2.99-7.21-8.06-7.64l-4.27-0.37
				c-2.88-0.27-3.74-1.49-3.74-3.1c0-2.03,1.66-3.47,4.91-3.47c2.56,0,4.97,0.53,6.68,1.98l3.42-3.47
				c-2.51-2.19-5.98-3.03-10.04-3.03c-5.66,0-10.2,2.98-10.2,8.27c0,4.75,2.94,7.05,8.01,7.48l4.33,0.37
				c2.61,0.21,3.63,1.39,3.63,3.2c0,2.57-2.62,3.74-5.93,3.74c-2.67,0-5.6-0.59-7.79-2.83l-3.57,3.58c3.2,3.14,6.94,3.89,11.37,3.89
				C379.71,549.11,384.51,546.18,384.51,540.52 M350.14,539.02c0,1.92-0.37,3.2-1.17,4.01c-1.44,1.39-2.99,1.55-5.07,1.55
				c-3.42,0-4.97-1.39-4.97-3.85c0-2.46,1.66-3.9,4.86-3.9h6.36V539.02z M355.57,548.79v-18.09c0-6.14-3.73-9.28-11.15-9.28
				c-4.48,0-7.15,0.9-9.71,3.89l3.57,3.37c1.49-1.92,2.94-2.62,5.93-2.62c4.22,0,5.93,1.66,5.93,5.07v1.93h-7.15
				c-6.19,0-9.34,3.25-9.34,7.79c0,2.3,0.75,4.38,2.14,5.82c1.65,1.65,3.89,2.45,7.25,2.45c3.37,0,5.24-0.8,7.21-2.77v2.45H355.57z
				 M329.15,548.79v-4.64h-2.4c-2.19,0-2.93-1.07-2.93-3.15v-30.21h-5.44v30.53c0,4,2.24,7.47,7.41,7.47H329.15z M313.14,548.79
				l-13.62-23.11l12.33-14.89h-7.05l-15.54,19.11v-19.11h-5.75v38h5.75v-11.05l6.41-7.69l10.68,18.73H313.14z"/>
		</g>
		<g style="clip-path:url(#SVGID_00000044165064761484402410000003494077470793594047_);">
			<path class="st3" d="M711.9,405.06c0,4.11-2.4,6.57-5.82,6.57c-3.64,0-5.77-2.83-5.77-6.57c0-4.06,2.35-6.62,5.77-6.62
				C709.49,398.44,711.9,401.01,711.9,405.06 M717.34,404.96c0-7.05-4.69-11.37-11.26-11.37s-11.21,4.59-11.21,11.58
				c0,6.68,4.43,11,9.93,11c1.17,0,2.4-0.16,3.42-0.59l-8.17,16.33h5.82l8.65-17.62C716.16,410.99,717.34,408.05,717.34,404.96
				 M676.02,428.39l-3.69-3.63c-1.65,1.66-2.78,2.62-5.23,2.62c-4.38,0-6.62-3.05-6.62-9.02c0-5.88,2.24-8.97,6.62-8.97
				c2.41,0,3.63,0.96,5.23,2.56l3.69-3.57c-1.71-1.71-2.56-2.29-4.01-2.93c-1.39-0.58-2.99-0.9-4.85-0.9
				c-7.58,0-12.11,5.17-12.11,13.72c0,8.81,4.48,13.98,12.11,13.98c1.87,0,3.42-0.26,4.85-0.9
				C673.46,430.69,674.31,430.1,676.02,428.39 M650.13,428.39l-3.68-3.63c-1.66,1.66-2.78,2.62-5.23,2.62
				c-4.38,0-6.62-3.05-6.62-9.02c0-5.88,2.24-8.97,6.62-8.97c2.4,0,3.63,0.96,5.23,2.56l3.68-3.57c-1.71-1.71-2.56-2.29-4-2.93
				c-1.39-0.58-2.99-0.9-4.86-0.9c-7.57,0-12.11,5.17-12.11,13.72c0,8.81,4.48,13.98,12.11,13.98c1.87,0,3.42-0.26,4.86-0.9
				C647.56,430.69,648.42,430.1,650.13,428.39 M616.24,422.15c0,3.95-1.71,5.56-5.93,5.56c-3.69,0-5.34-1.23-5.34-3.85
				c0-2.56,1.65-3.84,4.86-3.84h6.41V422.15z M621.63,431.91v-18.09c0-6.14-3.79-9.28-11.32-9.28c-2.56,0-4.48,0.32-6.03,1.06
				c-1.33,0.59-2.02,1.23-3.52,2.83l3.57,3.37c0.8-1.02,1.39-1.55,2.19-1.92c0.96-0.48,2.08-0.7,3.64-0.7
				c4.27,0,6.09,1.49,6.09,5.02v1.98h-7.27c-5.77,0-9.28,2.93-9.28,7.84c0,5.23,3.36,8.16,9.39,8.16c3.21,0,4.97-0.48,7.21-2.72
				v2.45H621.63z M592.48,431.91v-27.06h-18.52v11.26c0,10.47-2.78,11-5.12,11h-0.85v4.8h2.56c5.28,0,8.64-2.98,8.64-14.46v-7.85
				h7.86v22.31H592.48z M544.22,431.91v-19.85l15.32,19.85h7.32l-15.96-20.07l14.63-17.94h-7.1l-14.2,18.04v-18.04h-5.76v38H544.22z
				 M519.62,389.96h-5.23l-15.22,45.9h5.23L519.62,389.96z M476.86,405.06c0,4.11-2.4,6.57-5.82,6.57c-3.63,0-5.77-2.83-5.77-6.57
				c0-4.06,2.35-6.62,5.77-6.62S476.86,401.01,476.86,405.06 M482.3,404.96c0-7.05-4.69-11.37-11.26-11.37
				c-6.57,0-11.2,4.59-11.2,11.58c0,6.68,4.42,11,9.92,11c1.17,0,2.4-0.16,3.42-0.59l-8.17,16.33h5.82l8.65-17.62
				C481.13,410.99,482.3,408.05,482.3,404.96 M434.69,416.17h-12.17c0.06-1.66,0.16-2.46,0.7-3.69c0.85-2.03,2.83-3.42,5.39-3.42
				c2.56,0,4.48,1.39,5.34,3.42C434.47,413.71,434.63,414.51,434.69,416.17 M440.08,419.95v-2.4c0-7.69-4.22-13.02-11.48-13.02
				c-6.94,0-11.47,5.06-11.47,13.82c0,10.3,5.38,13.87,12.17,13.87c4.75,0,7.37-1.44,10.14-4.21l-3.47-3.26
				c-1.92,1.92-3.52,2.78-6.56,2.78c-4.43,0-6.89-2.94-6.89-7.59H440.08z M411.36,423.64c0-4.8-2.99-7.21-8.06-7.64l-4.27-0.37
				c-2.88-0.27-3.74-1.49-3.74-3.1c0-2.03,1.65-3.47,4.91-3.47c2.56,0,4.96,0.53,6.67,1.98l3.42-3.47
				c-2.51-2.19-5.98-3.03-10.04-3.03c-5.66,0-10.19,2.98-10.19,8.27c0,4.75,2.93,7.05,8.01,7.48l4.32,0.37
				c2.62,0.21,3.63,1.39,3.63,3.2c0,2.57-2.61,3.74-5.92,3.74c-2.67,0-5.61-0.59-7.79-2.83l-3.58,3.58
				c3.2,3.14,6.94,3.89,11.37,3.89C406.56,432.23,411.36,429.3,411.36,423.64 M384.51,423.64c0-4.8-2.99-7.21-8.06-7.64l-4.27-0.37
				c-2.88-0.27-3.74-1.49-3.74-3.1c0-2.03,1.66-3.47,4.91-3.47c2.56,0,4.97,0.53,6.68,1.98l3.42-3.47
				c-2.51-2.19-5.98-3.03-10.04-3.03c-5.66,0-10.2,2.98-10.2,8.27c0,4.75,2.94,7.05,8.01,7.48l4.33,0.37
				c2.61,0.21,3.63,1.39,3.63,3.2c0,2.57-2.62,3.74-5.93,3.74c-2.67,0-5.6-0.59-7.79-2.83l-3.57,3.58c3.2,3.14,6.94,3.89,11.37,3.89
				C379.71,432.23,384.51,429.3,384.51,423.64 M350.14,422.15c0,1.92-0.37,3.2-1.17,4.01c-1.44,1.39-2.99,1.55-5.07,1.55
				c-3.42,0-4.97-1.39-4.97-3.85c0-2.46,1.66-3.9,4.86-3.9h6.36V422.15z M355.57,431.91v-18.09c0-6.14-3.73-9.28-11.15-9.28
				c-4.48,0-7.15,0.9-9.71,3.89l3.57,3.37c1.49-1.92,2.94-2.62,5.93-2.62c4.22,0,5.93,1.66,5.93,5.07v1.93h-7.15
				c-6.19,0-9.34,3.25-9.34,7.79c0,2.3,0.75,4.38,2.14,5.82c1.65,1.65,3.89,2.45,7.25,2.45c3.37,0,5.24-0.8,7.21-2.77v2.45H355.57z
				 M329.15,431.91v-4.64h-2.4c-2.19,0-2.93-1.07-2.93-3.15v-30.21h-5.44v30.53c0,4,2.24,7.47,7.41,7.47H329.15z M313.14,431.91
				l-13.62-23.11l12.33-14.89h-7.05l-15.54,19.11v-19.11h-5.75v38h5.75v-11.05l6.41-7.69l10.68,18.73H313.14z"/>
		</g>
		<g style="clip-path:url(#SVGID_00000044165064761484402410000003494077470793594047_);">
			<path class="st3" d="M740.61,304.31c0,3.69-2.08,6.2-5.55,6.2c-3.47,0-5.51-2.51-5.51-6.2v-16.55c0-3.69,2.03-6.19,5.51-6.19
				c3.47,0,5.55,2.51,5.55,6.19V304.31z M746.05,304.47V287.6c0-6.78-4.96-10.88-10.99-10.88c-6.03,0-10.94,4.11-10.94,10.88v16.87
				c0,6.78,4.91,10.88,10.94,10.88C741.1,315.35,746.05,311.25,746.05,304.47 M710.82,315.03v-38h-5.44l-7.42,6.41v6.03l7.42-6.51
				v32.07H710.82z M676.02,311.52l-3.68-3.63c-1.66,1.66-2.78,2.62-5.23,2.62c-4.38,0-6.62-3.05-6.62-9.02
				c0-5.88,2.24-8.97,6.62-8.97c2.4,0,3.63,0.96,5.23,2.56l3.68-3.57c-1.71-1.71-2.56-2.29-4-2.93c-1.39-0.58-2.99-0.9-4.86-0.9
				c-7.57,0-12.11,5.17-12.11,13.72c0,8.81,4.48,13.98,12.11,13.98c1.87,0,3.42-0.26,4.86-0.9
				C673.45,313.81,674.31,313.23,676.02,311.52 M650.13,311.52l-3.69-3.63c-1.65,1.66-2.78,2.62-5.23,2.62
				c-4.38,0-6.62-3.05-6.62-9.02c0-5.88,2.24-8.97,6.62-8.97c2.4,0,3.63,0.96,5.23,2.56l3.69-3.57c-1.71-1.71-2.56-2.29-4.01-2.93
				c-1.39-0.58-2.99-0.9-4.85-0.9c-7.58,0-12.11,5.17-12.11,13.72c0,8.81,4.48,13.98,12.11,13.98c1.87,0,3.42-0.26,4.85-0.9
				C647.57,313.81,648.42,313.23,650.13,311.52 M616.24,305.27c0,3.95-1.71,5.56-5.93,5.56c-3.68,0-5.34-1.23-5.34-3.85
				c0-2.56,1.66-3.84,4.86-3.84h6.41V305.27z M621.62,315.03v-18.09c0-6.14-3.79-9.28-11.32-9.28c-2.56,0-4.48,0.32-6.03,1.06
				c-1.34,0.59-2.03,1.23-3.52,2.83l3.57,3.37c0.8-1.02,1.39-1.55,2.19-1.92c0.96-0.48,2.08-0.7,3.63-0.7
				c4.27,0,6.09,1.49,6.09,5.02v1.98h-7.27c-5.77,0-9.28,2.93-9.28,7.84c0,5.23,3.35,8.16,9.39,8.16c3.2,0,4.97-0.48,7.21-2.72v2.45
				H621.62z M592.48,315.03v-27.06h-18.51v11.26c0,10.47-2.78,11-5.12,11h-0.85v4.8h2.56c5.28,0,8.64-2.98,8.64-14.46v-7.85h7.86
				v22.31H592.48z M544.22,315.03v-19.85l15.32,19.85h7.32l-15.96-20.07l14.63-17.94h-7.1l-14.2,18.04v-18.04h-5.76v38H544.22z
				 M519.62,273.08h-5.23l-15.21,45.9h5.23L519.62,273.08z M476.6,304.31c0,3.69-2.08,6.2-5.56,6.2c-3.47,0-5.5-2.51-5.5-6.2v-16.55
				c0-3.69,2.03-6.19,5.5-6.19c3.47,0,5.56,2.51,5.56,6.19V304.31z M482.04,304.47V287.6c0-6.78-4.96-10.88-11-10.88
				c-6.03,0-10.93,4.11-10.93,10.88v16.87c0,6.78,4.9,10.88,10.93,10.88C477.07,315.35,482.04,311.25,482.04,304.47 M446.8,315.03
				v-38h-5.44l-7.42,6.41v6.03l7.42-6.51v32.07H446.8z M405.7,299.3h-12.17c0.06-1.66,0.16-2.46,0.7-3.69
				c0.85-2.03,2.83-3.42,5.39-3.42c2.56,0,4.48,1.39,5.34,3.42C405.49,296.83,405.65,297.64,405.7,299.3 M411.09,303.08v-2.4
				c0-7.69-4.22-13.02-11.48-13.02c-6.94,0-11.47,5.06-11.47,13.82c0,10.31,5.38,13.88,12.17,13.88c4.75,0,7.37-1.44,10.14-4.21
				l-3.47-3.26c-1.92,1.92-3.52,2.78-6.56,2.78c-4.43,0-6.89-2.94-6.89-7.59H411.09z M382.38,306.76c0-4.8-2.99-7.21-8.06-7.64
				l-4.27-0.37c-2.88-0.27-3.74-1.49-3.74-3.1c0-2.03,1.65-3.47,4.91-3.47c2.56,0,4.96,0.53,6.67,1.98l3.42-3.47
				c-2.51-2.19-5.98-3.03-10.04-3.03c-5.66,0-10.19,2.98-10.19,8.27c0,4.75,2.93,7.05,8.01,7.48l4.32,0.37
				c2.62,0.21,3.63,1.39,3.63,3.2c0,2.57-2.61,3.74-5.92,3.74c-2.67,0-5.61-0.59-7.79-2.83l-3.58,3.57
				c3.2,3.15,6.94,3.89,11.37,3.89C377.57,315.35,382.38,312.42,382.38,306.76 M355.53,306.76c0-4.8-2.99-7.21-8.06-7.64l-4.27-0.37
				c-2.88-0.27-3.74-1.49-3.74-3.1c0-2.03,1.66-3.47,4.91-3.47c2.56,0,4.97,0.53,6.68,1.98l3.42-3.47
				c-2.51-2.19-5.98-3.03-10.04-3.03c-5.66,0-10.2,2.98-10.2,8.27c0,4.75,2.94,7.05,8.01,7.48l4.33,0.37
				c2.61,0.21,3.63,1.39,3.63,3.2c0,2.57-2.62,3.74-5.93,3.74c-2.67,0-5.6-0.59-7.79-2.83l-3.57,3.57c3.2,3.15,6.94,3.89,11.37,3.89
				C350.72,315.35,355.53,312.42,355.53,306.76 M321.15,305.27c0,1.92-0.37,3.2-1.17,4.01c-1.44,1.39-2.99,1.55-5.07,1.55
				c-3.42,0-4.97-1.39-4.97-3.85c0-2.46,1.66-3.9,4.86-3.9h6.36V305.27z M326.59,315.03v-18.09c0-6.14-3.73-9.28-11.15-9.28
				c-4.48,0-7.15,0.9-9.71,3.89l3.57,3.37c1.49-1.92,2.94-2.62,5.93-2.62c4.22,0,5.93,1.66,5.93,5.07v1.93H314
				c-6.19,0-9.34,3.25-9.34,7.79c0,2.3,0.75,4.38,2.14,5.82c1.65,1.65,3.89,2.45,7.25,2.45s5.24-0.8,7.21-2.77v2.45H326.59z
				 M300.17,315.03v-4.64h-2.4c-2.19,0-2.93-1.07-2.93-3.15v-30.21h-5.44v30.53c0,4,2.24,7.47,7.41,7.47H300.17z M284.15,315.03
				l-13.62-23.11l12.33-14.89h-7.05l-15.54,19.11v-19.11h-5.75v38h5.75v-11.05l6.41-7.69l10.68,18.73H284.15z"/>
		</g>
		<g style="clip-path:url(#SVGID_00000044165064761484402410000003494077470793594047_);">
			<path class="st3" d="M739.8,206.12v-38h-5.43l-7.42,6.41v6.03l7.42-6.51v32.07H739.8z M710.82,206.12v-38h-5.44l-7.42,6.41v6.03
				l7.42-6.51v32.07H710.82z M676.02,202.6l-3.68-3.63c-1.66,1.66-2.78,2.62-5.23,2.62c-4.38,0-6.62-3.05-6.62-9.02
				c0-5.88,2.24-8.97,6.62-8.97c2.4,0,3.63,0.96,5.23,2.56l3.68-3.57c-1.71-1.71-2.56-2.29-4-2.93c-1.39-0.58-2.99-0.9-4.86-0.9
				c-7.57,0-12.11,5.17-12.11,13.72c0,8.81,4.48,13.98,12.11,13.98c1.87,0,3.42-0.26,4.86-0.9
				C673.45,204.9,674.31,204.31,676.02,202.6 M650.13,202.6l-3.69-3.63c-1.65,1.66-2.78,2.62-5.23,2.62c-4.38,0-6.62-3.05-6.62-9.02
				c0-5.88,2.24-8.97,6.62-8.97c2.4,0,3.63,0.96,5.23,2.56l3.69-3.57c-1.71-1.71-2.56-2.29-4.01-2.93c-1.39-0.58-2.99-0.9-4.85-0.9
				c-7.58,0-12.11,5.17-12.11,13.72c0,8.81,4.48,13.98,12.11,13.98c1.87,0,3.42-0.26,4.85-0.9
				C647.57,204.9,648.42,204.31,650.13,202.6 M616.24,196.36c0,3.95-1.71,5.56-5.93,5.56c-3.68,0-5.34-1.23-5.34-3.85
				c0-2.56,1.66-3.84,4.86-3.84h6.41V196.36z M621.62,206.12v-18.09c0-6.14-3.79-9.28-11.32-9.28c-2.56,0-4.48,0.32-6.03,1.06
				c-1.34,0.59-2.03,1.23-3.52,2.83l3.57,3.37c0.8-1.02,1.39-1.55,2.19-1.92c0.96-0.48,2.08-0.7,3.63-0.7
				c4.27,0,6.09,1.49,6.09,5.02v1.98h-7.27c-5.77,0-9.28,2.93-9.28,7.84c0,5.23,3.35,8.16,9.39,8.16c3.2,0,4.97-0.48,7.21-2.72v2.45
				H621.62z M592.48,206.12v-27.06h-18.51v11.26c0,10.47-2.78,11-5.12,11h-0.85v4.8h2.56c5.28,0,8.64-2.98,8.64-14.46v-7.85h7.86
				v22.31H592.48z M544.22,206.12v-19.85l15.32,19.85h7.32l-15.96-20.07l14.63-17.94h-7.1l-14.2,18.04v-18.04h-5.76v38H544.22z
				 M519.62,164.17h-5.23l-15.21,45.9h5.23L519.62,164.17z M475.79,206.12v-38h-5.43l-7.42,6.41v6.03l7.42-6.51v32.07H475.79z
				 M446.8,206.12v-38h-5.44l-7.42,6.41v6.03l7.42-6.51v32.07H446.8z M405.7,190.38h-12.17c0.06-1.66,0.16-2.46,0.7-3.69
				c0.85-2.03,2.83-3.42,5.39-3.42c2.56,0,4.48,1.39,5.34,3.42C405.49,187.92,405.65,188.72,405.7,190.38 M411.09,194.16v-2.4
				c0-7.69-4.22-13.02-11.48-13.02c-6.94,0-11.47,5.06-11.47,13.82c0,10.31,5.38,13.88,12.17,13.88c4.75,0,7.37-1.44,10.14-4.21
				l-3.47-3.26c-1.92,1.92-3.52,2.78-6.56,2.78c-4.43,0-6.89-2.94-6.89-7.59H411.09z M382.38,197.85c0-4.8-2.99-7.21-8.06-7.64
				l-4.27-0.37c-2.88-0.27-3.74-1.49-3.74-3.1c0-2.03,1.65-3.47,4.91-3.47c2.56,0,4.96,0.53,6.67,1.98l3.42-3.47
				c-2.51-2.19-5.98-3.03-10.04-3.03c-5.66,0-10.19,2.98-10.19,8.27c0,4.75,2.93,7.05,8.01,7.48l4.32,0.37
				c2.62,0.21,3.63,1.39,3.63,3.2c0,2.57-2.61,3.74-5.92,3.74c-2.67,0-5.61-0.59-7.79-2.83l-3.58,3.57
				c3.2,3.15,6.94,3.89,11.37,3.89C377.57,206.44,382.38,203.51,382.38,197.85 M355.53,197.85c0-4.8-2.99-7.21-8.06-7.64l-4.27-0.37
				c-2.88-0.27-3.74-1.49-3.74-3.1c0-2.03,1.66-3.47,4.91-3.47c2.56,0,4.97,0.53,6.68,1.98l3.42-3.47
				c-2.51-2.19-5.98-3.03-10.04-3.03c-5.66,0-10.2,2.98-10.2,8.27c0,4.75,2.94,7.05,8.01,7.48l4.33,0.37
				c2.61,0.21,3.63,1.39,3.63,3.2c0,2.57-2.62,3.74-5.93,3.74c-2.67,0-5.6-0.59-7.79-2.83l-3.57,3.57c3.2,3.15,6.94,3.89,11.37,3.89
				C350.72,206.44,355.53,203.51,355.53,197.85 M321.15,196.36c0,1.92-0.37,3.2-1.17,4.01c-1.44,1.39-2.99,1.55-5.07,1.55
				c-3.42,0-4.97-1.39-4.97-3.85c0-2.46,1.66-3.9,4.86-3.9h6.36V196.36z M326.59,206.12v-18.09c0-6.14-3.73-9.28-11.15-9.28
				c-4.48,0-7.15,0.9-9.71,3.89l3.57,3.37c1.49-1.92,2.94-2.62,5.93-2.62c4.22,0,5.93,1.66,5.93,5.07v1.93H314
				c-6.19,0-9.34,3.25-9.34,7.79c0,2.3,0.75,4.38,2.14,5.82c1.65,1.65,3.89,2.45,7.25,2.45s5.24-0.8,7.21-2.77v2.45H326.59z
				 M300.17,206.12v-4.64h-2.4c-2.19,0-2.93-1.07-2.93-3.15v-30.21h-5.44v30.53c0,4,2.24,7.47,7.41,7.47H300.17z M284.15,206.12
				l-13.62-23.11l12.33-14.89h-7.05l-15.54,19.11v-19.11h-5.75v38h5.75v-11.05l6.41-7.69l10.68,18.73H284.15z"/>
		</g>
		<g style="clip-path:url(#SVGID_00000044165064761484402410000003494077470793594047_);">
			<path class="st3" d="M717.44,886.72c0-3.58-0.43-7.27-3.31-10.14c-1.55-1.55-3.84-2.46-6.83-2.46c-2.78,0-5.02,0.85-6.3,2.19
				v-10.04h15.59v-4.85H696.1v20.76h4.96c0.59-1.87,2.3-3.42,5.39-3.42c4.38,0,5.56,3.42,5.56,7.96c0,2.56-0.21,5.07-1.81,6.68
				c-0.96,0.96-2.35,1.49-3.96,1.49c-3.42,0-5.12-1.92-5.55-5.29h-5.44c0.21,2.73,0.85,5.23,2.88,7.26
				c1.65,1.65,4.48,2.93,8.11,2.93c3.69,0,6.3-1.28,8.01-2.98C717.02,894.04,717.44,890.78,717.44,886.72 M676.02,895.9l-3.69-3.63
				c-1.65,1.66-2.78,2.62-5.23,2.62c-4.38,0-6.62-3.05-6.62-9.02c0-5.88,2.24-8.97,6.62-8.97c2.41,0,3.63,0.96,5.23,2.56l3.69-3.57
				c-1.71-1.71-2.56-2.29-4.01-2.93c-1.39-0.58-2.99-0.9-4.85-0.9c-7.58,0-12.11,5.17-12.11,13.72c0,8.81,4.48,13.98,12.11,13.98
				c1.87,0,3.42-0.26,4.85-0.9C673.46,898.19,674.31,897.61,676.02,895.9 M650.13,895.9l-3.68-3.63c-1.66,1.66-2.78,2.62-5.23,2.62
				c-4.38,0-6.62-3.05-6.62-9.02c0-5.88,2.24-8.97,6.62-8.97c2.4,0,3.63,0.96,5.23,2.56l3.68-3.57c-1.71-1.71-2.56-2.29-4-2.93
				c-1.39-0.58-2.99-0.9-4.86-0.9c-7.57,0-12.11,5.17-12.11,13.72c0,8.81,4.48,13.98,12.11,13.98c1.87,0,3.42-0.26,4.86-0.9
				C647.56,898.19,648.42,897.61,650.13,895.9 M616.24,889.65c0,3.95-1.71,5.56-5.93,5.56c-3.69,0-5.34-1.23-5.34-3.85
				c0-2.56,1.65-3.84,4.86-3.84h6.41V889.65z M621.63,899.42v-18.09c0-6.14-3.79-9.28-11.32-9.28c-2.56,0-4.48,0.32-6.03,1.06
				c-1.33,0.59-2.02,1.23-3.52,2.83l3.57,3.37c0.8-1.02,1.39-1.55,2.19-1.92c0.96-0.48,2.08-0.7,3.64-0.7
				c4.27,0,6.09,1.49,6.09,5.02v1.98h-7.27c-5.77,0-9.28,2.93-9.28,7.84c0,5.23,3.36,8.16,9.39,8.16c3.21,0,4.97-0.48,7.21-2.72
				v2.45H621.63z M592.48,899.42v-27.06h-18.52v11.26c0,10.47-2.78,11-5.12,11h-0.85v4.8h2.56c5.28,0,8.64-2.98,8.64-14.46v-7.85
				h7.86v22.31H592.48z M544.22,899.42v-19.85l15.32,19.85h7.32l-15.96-20.07l14.63-17.94h-7.1l-14.2,18.04v-18.04h-5.76v38H544.22z
				 M519.62,857.47h-5.23l-15.22,45.9h5.23L519.62,857.47z M482.41,886.72c0-3.58-0.43-7.27-3.3-10.14
				c-1.55-1.55-3.84-2.46-6.83-2.46c-2.78,0-5.02,0.85-6.3,2.19v-10.04h15.59v-4.85h-20.49v20.76h4.96c0.59-1.87,2.3-3.42,5.4-3.42
				c4.38,0,5.55,3.42,5.55,7.96c0,2.56-0.21,5.07-1.81,6.68c-0.96,0.96-2.35,1.49-3.95,1.49c-3.42,0-5.13-1.92-5.56-5.29h-5.44
				c0.21,2.73,0.85,5.23,2.88,7.26c1.65,1.65,4.48,2.93,8.11,2.93c3.68,0,6.3-1.28,8.01-2.98
				C481.98,894.04,482.41,890.78,482.41,886.72 M434.69,883.68h-12.17c0.06-1.66,0.16-2.46,0.7-3.69c0.85-2.03,2.83-3.42,5.39-3.42
				c2.56,0,4.48,1.39,5.34,3.42C434.47,881.22,434.63,882.02,434.69,883.68 M440.08,887.46v-2.4c0-7.69-4.22-13.02-11.48-13.02
				c-6.94,0-11.47,5.06-11.47,13.82c0,10.31,5.38,13.88,12.17,13.88c4.75,0,7.37-1.44,10.14-4.21l-3.47-3.26
				c-1.92,1.92-3.52,2.78-6.56,2.78c-4.43,0-6.89-2.94-6.89-7.59H440.08z M411.36,891.15c0-4.8-2.99-7.21-8.06-7.64l-4.27-0.37
				c-2.88-0.27-3.74-1.49-3.74-3.1c0-2.03,1.65-3.47,4.91-3.47c2.56,0,4.96,0.53,6.67,1.98l3.42-3.47
				c-2.51-2.19-5.98-3.03-10.04-3.03c-5.66,0-10.19,2.98-10.19,8.27c0,4.75,2.93,7.05,8.01,7.48l4.32,0.37
				c2.62,0.21,3.63,1.39,3.63,3.2c0,2.57-2.61,3.74-5.92,3.74c-2.67,0-5.61-0.59-7.79-2.83l-3.58,3.58
				c3.2,3.14,6.94,3.89,11.37,3.89C406.56,899.74,411.36,896.81,411.36,891.15 M384.51,891.15c0-4.8-2.99-7.21-8.06-7.64l-4.27-0.37
				c-2.88-0.27-3.74-1.49-3.74-3.1c0-2.03,1.66-3.47,4.91-3.47c2.56,0,4.97,0.53,6.68,1.98l3.42-3.47
				c-2.51-2.19-5.98-3.03-10.04-3.03c-5.66,0-10.2,2.98-10.2,8.27c0,4.75,2.94,7.05,8.01,7.48l4.33,0.37
				c2.61,0.21,3.63,1.39,3.63,3.2c0,2.57-2.62,3.74-5.93,3.74c-2.67,0-5.6-0.59-7.79-2.83l-3.57,3.58c3.2,3.14,6.94,3.89,11.37,3.89
				C379.71,899.74,384.51,896.81,384.51,891.15 M350.14,889.65c0,1.92-0.37,3.2-1.17,4.01c-1.44,1.39-2.99,1.55-5.07,1.55
				c-3.42,0-4.97-1.39-4.97-3.85c0-2.46,1.66-3.9,4.86-3.9h6.36V889.65z M355.57,899.42v-18.09c0-6.14-3.73-9.28-11.15-9.28
				c-4.48,0-7.15,0.9-9.71,3.89l3.57,3.37c1.49-1.92,2.94-2.62,5.93-2.62c4.22,0,5.93,1.66,5.93,5.07v1.93h-7.15
				c-6.19,0-9.34,3.25-9.34,7.79c0,2.3,0.75,4.38,2.14,5.82c1.65,1.65,3.89,2.45,7.25,2.45c3.37,0,5.24-0.8,7.21-2.77v2.45H355.57z
				 M329.15,899.42v-4.64h-2.4c-2.19,0-2.93-1.07-2.93-3.15v-30.21h-5.44v30.53c0,4,2.24,7.47,7.41,7.47H329.15z M313.14,899.42
				l-13.62-23.11l12.33-14.89h-7.05l-15.54,19.11v-19.11h-5.75v38h5.75v-11.05l6.41-7.69l10.68,18.73H313.14z"/>
		</g>
	</g>
	<g>
		<polygon class="st4" points="19.1,871.61 35.16,871.61 27.13,860.98 		"/>
	</g>
	<g>
		<polygon class="st4" points="19.1,892.74 35.16,892.74 27.13,882.12 		"/>
	</g>
	<g>
		<polygon class="st4" points="19.1,913.88 35.16,913.88 27.13,903.25 		"/>
	</g>
	<g>
		<polygon class="st4" points="19.1,850.47 35.16,850.47 27.13,839.85 		"/>
	</g>
	<g>
		<polygon class="st4" points="19.1,756.13 35.16,756.13 27.13,745.51 		"/>
	</g>
	<g>
		<polygon class="st4" points="19.1,777.27 35.16,777.27 27.13,766.64 		"/>
	</g>
	<g>
		<polygon class="st4" points="19.1,798.4 35.16,798.4 27.13,787.78 		"/>
	</g>
	<g>
		<polygon class="st4" points="19.1,735 35.16,735 27.13,724.37 		"/>
	</g>
	<g>
		<polygon class="st4" points="19.1,636.45 35.16,636.45 27.13,625.82 		"/>
	</g>
	<g>
		<polygon class="st4" points="19.1,657.58 35.16,657.58 27.13,646.95 		"/>
	</g>
	<g>
		<polygon class="st4" points="19.1,678.72 35.16,678.72 27.13,668.09 		"/>
	</g>
	<g>
		<polygon class="st4" points="19.1,615.31 35.16,615.31 27.13,604.68 		"/>
	</g>
	<g>
		<polygon class="st4" points="19.1,518.16 35.16,518.16 27.13,507.54 		"/>
	</g>
	<g>
		<polygon class="st4" points="19.1,539.3 35.16,539.3 27.13,528.67 		"/>
	</g>
	<g>
		<polygon class="st4" points="19.1,560.43 35.16,560.43 27.13,549.81 		"/>
	</g>
	<g>
		<polygon class="st4" points="19.1,497.03 35.16,497.03 27.13,486.4 		"/>
	</g>
	<g>
		<polygon class="st4" points="19.1,402.69 35.16,402.69 27.13,392.07 		"/>
	</g>
	<g>
		<polygon class="st4" points="19.1,423.83 35.16,423.83 27.13,413.2 		"/>
	</g>
	<g>
		<polygon class="st4" points="19.1,444.96 35.16,444.96 27.13,434.34 		"/>
	</g>
	<g>
		<polygon class="st4" points="19.1,381.56 35.16,381.56 27.13,370.93 		"/>
	</g>
	<g>
		<polygon class="st4" points="19.1,285.81 35.16,285.81 27.13,275.19 		"/>
	</g>
	<g>
		<polygon class="st4" points="19.1,306.95 35.16,306.95 27.13,296.32 		"/>
	</g>
	<g>
		<polygon class="st4" points="19.1,328.08 35.16,328.08 27.13,317.46 		"/>
	</g>
	<g>
		<polygon class="st4" points="19.1,264.68 35.16,264.68 27.13,254.05 		"/>
	</g>
	<g>
		<polygon class="st4" points="19.1,178.94 35.16,178.94 27.13,168.31 		"/>
	</g>
	<g>
		<polygon class="st4" points="19.1,200.07 35.16,200.07 27.13,189.45 		"/>
	</g>
	<g>
		<polygon class="st4" points="19.1,221.21 35.16,221.21 27.13,210.58 		"/>
	</g>
	<g>
		<polygon class="st4" points="19.1,157.8 35.16,157.8 27.13,147.18 		"/>
	</g>
</g>
</svg>
