<?xml version="1.0" encoding="utf-8"?>
<!-- Generator: Adobe Illustrator 26.2.1, SVG Export Plug-In . SVG Version: 6.00 Build 0)  -->
<svg version="1.1" id="Ebene_1" xmlns="http://www.w3.org/2000/svg" xmlns:xlink="http://www.w3.org/1999/xlink" x="0px" y="0px"
	 viewBox="0 0 954.01 1000" style="enable-background:new 0 0 954.01 1000;" xml:space="preserve">
<style type="text/css">
	.st0{fill:#A2B9E1;}
	.st1{fill:#6796CF;}
	.st2{clip-path:url(#SVGID_00000129922088804581013060000005545409485497214875_);}
	.st3{fill:#2B2961;}
	.st4{fill:#FFFFFF;}
	.st5{clip-path:url(#SVGID_00000036932645870699286850000017854057411611870389_);}
	.st6{clip-path:url(#SVGID_00000022549135222497390300000001606857414110449794_);}
	.st7{clip-path:url(#SVGID_00000181066595877393697190000011849260885385942967_);}
	.st8{clip-path:url(#SVGID_00000044887234205454208010000013900144282057201545_);}
	.st9{clip-path:url(#SVGID_00000165208468666348471580000016055189169285830063_);}
	.st10{opacity:0.52;clip-path:url(#SVGID_00000121977736110160881970000013790736390858098863_);}
	.st11{clip-path:url(#SVGID_00000179639092859785795740000014435380536826408636_);}
	.st12{clip-path:url(#SVGID_00000105390624729194449440000010242008814319244928_);}
	.st13{clip-path:url(#SVGID_00000078012706710301858480000015732051506143956874_);}
	.st14{clip-path:url(#SVGID_00000076593064542906522070000011686096490306894730_);}
	.st15{clip-path:url(#SVGID_00000036949259236461284980000015336531193308344210_);}
	.st16{clip-path:url(#SVGID_00000072245893121379033830000001767301751627656094_);}
	.st17{clip-path:url(#SVGID_00000055669264863872553890000004002835089385149602_);}
	.st18{clip-path:url(#SVGID_00000093876636209065453040000001520301848580616633_);}
	.st19{clip-path:url(#SVGID_00000124119898600186271640000015507268608974697112_);}
	.st20{clip-path:url(#SVGID_00000178166272528654969780000004643554668483182005_);}
	.st21{clip-path:url(#SVGID_00000137832317230464889070000000223623176520302988_);}
	.st22{clip-path:url(#SVGID_00000103951635470022950330000007072844047871588799_);}
	.st23{fill:none;stroke:#2B2961;stroke-width:0.374;stroke-linejoin:round;stroke-miterlimit:10;}
	.st24{fill:none;stroke:#2B2961;stroke-width:0.4;stroke-miterlimit:10;}
	.st25{clip-path:url(#SVGID_00000002352361275231217750000000256003185204986785_);}
	.st26{clip-path:url(#SVGID_00000013884666057000512200000001481394588755576975_);}
	.st27{clip-path:url(#SVGID_00000078755192771868207100000017329688167846889915_);}
	.st28{clip-path:url(#SVGID_00000172425102665231327240000003345436174753961140_);}
	.st29{clip-path:url(#SVGID_00000041288082800447187420000016336631662032781187_);}
	.st30{clip-path:url(#SVGID_00000165223619204433829150000001439133330403775893_);}
	.st31{clip-path:url(#SVGID_00000178185352224163031350000013907118156074919828_);}
	.st32{clip-path:url(#SVGID_00000182511381409683915390000009628992542903853992_);}
	.st33{clip-path:url(#SVGID_00000168115028234522406840000007201052222889068963_);}
	.st34{clip-path:url(#SVGID_00000044877037885618176390000015358871763322581661_);}
	.st35{clip-path:url(#SVGID_00000131330212197221113310000016844750064357133971_);}
	.st36{clip-path:url(#SVGID_00000103978082606825160600000004939683754304671104_);}
	.st37{clip-path:url(#SVGID_00000126320296822058154120000010477625135552919937_);}
	.st38{clip-path:url(#SVGID_00000143577754276436510180000013107616381359806903_);}
	.st39{clip-path:url(#SVGID_00000169533408912761749670000001245820259130280110_);}
	.st40{clip-path:url(#SVGID_00000134951439078431734130000009515049967753394101_);}
	.st41{clip-path:url(#SVGID_00000132787955490375593300000004613419812989618322_);}
	.st42{clip-path:url(#SVGID_00000141414240060685278590000010225379352904051365_);}
	.st43{clip-path:url(#SVGID_00000084500550990088439680000015451252156942484644_);}
	.st44{clip-path:url(#SVGID_00000008139768438705307430000011264566194961213326_);}
	.st45{clip-path:url(#SVGID_00000131326022982036353670000003455895322174528673_);}
	.st46{clip-path:url(#SVGID_00000029019899139390326030000001127835187287042960_);}
	.st47{clip-path:url(#SVGID_00000015350804531970498160000012599385013098714528_);}
	.st48{clip-path:url(#SVGID_00000009592290149530070390000014398789544756670603_);}
	.st49{clip-path:url(#SVGID_00000153682202451767299980000016335092542832452257_);}
	.st50{clip-path:url(#SVGID_00000172427327293085275810000018165645506495147428_);}
	.st51{clip-path:url(#SVGID_00000004514297707384577110000016588757825309186726_);}
	.st52{clip-path:url(#SVGID_00000094588158663046404630000009047089720902148239_);}
	.st53{clip-path:url(#SVGID_00000136405855563473914880000017774170487855237025_);}
	.st54{clip-path:url(#SVGID_00000075132877481810141640000002493223788161889159_);}
	.st55{clip-path:url(#SVGID_00000039856040681058678340000012889737134193638327_);}
	.st56{clip-path:url(#SVGID_00000113349585728122204000000006870208446375920529_);}
	.st57{clip-path:url(#SVGID_00000036933280306000265990000013677136307891994797_);}
	.st58{clip-path:url(#SVGID_00000119799475231951251030000007944445753192399027_);}
	.st59{clip-path:url(#SVGID_00000009556368811796690800000001283231938568427408_);}
	.st60{clip-path:url(#SVGID_00000156575986426540201040000002724735150671695780_);}
	.st61{clip-path:url(#SVGID_00000000944699078651009180000012899431543577226115_);}
	.st62{fill:#9AB4DE;}
	.st63{clip-path:url(#SVGID_00000128484343837391249890000011842160552122533009_);}
	.st64{clip-path:url(#SVGID_00000075142776113008979630000016228200681596092300_);}
	.st65{clip-path:url(#SVGID_00000159442436479585337940000011060269742157748373_);}
	.st66{fill:#B9C9E9;}
	.st67{clip-path:url(#SVGID_00000022559519573440787430000001068925779487601846_);}
	.st68{clip-path:url(#SVGID_00000021109748492080109490000005118454302654344349_);}
	.st69{clip-path:url(#SVGID_00000014622873220399885430000000126638956405087113_);}
	.st70{clip-path:url(#SVGID_00000155127963052990232600000004960778955824093872_);}
	.st71{clip-path:url(#SVGID_00000045606121378766420520000000182545523396900488_);}
	.st72{clip-path:url(#SVGID_00000180361670549122686100000007371879833755670917_);}
	.st73{clip-path:url(#SVGID_00000085227473394027299480000016518197726432727948_);}
	.st74{clip-path:url(#SVGID_00000160893367063681054830000017378861983881758093_);}
	.st75{clip-path:url(#SVGID_00000005253893957091333270000008811199144561863329_);}
	.st76{clip-path:url(#SVGID_00000079454393398524242040000000707837092275910315_);}
	.st77{clip-path:url(#SVGID_00000010283999761908015910000016389523356777556906_);}
	.st78{clip-path:url(#SVGID_00000067208446208264430520000016541038517497544103_);}
	.st79{clip-path:url(#SVGID_00000166636112557788048080000015833027366209845174_);}
	.st80{clip-path:url(#SVGID_00000106869826940264295950000005133679562250000808_);}
	.st81{clip-path:url(#SVGID_00000013155344223609994700000017383761880920935585_);}
	.st82{clip-path:url(#SVGID_00000027578066456026301920000011662274114826327713_);}
	.st83{clip-path:url(#SVGID_00000022524904610864736110000010373410340877960372_);}
	.st84{clip-path:url(#SVGID_00000039127265941614233660000017545183427809267096_);}
	.st85{clip-path:url(#SVGID_00000088113260075951565430000003375482045833188778_);}
	.st86{clip-path:url(#SVGID_00000114775524287127286660000004991604589893355673_);}
	.st87{clip-path:url(#SVGID_00000174587438690552785750000001524374510026567351_);}
	.st88{clip-path:url(#SVGID_00000177447653926555749890000015734227865755063942_);}
	.st89{clip-path:url(#SVGID_00000038383022323439452070000001154347176010872705_);}
	.st90{clip-path:url(#SVGID_00000106135627540662344060000017441367144580770231_);}
	.st91{clip-path:url(#SVGID_00000101072231682517557540000017413506426591077556_);}
	.st92{clip-path:url(#SVGID_00000134220127835933002340000001877316703481770890_);}
	.st93{clip-path:url(#SVGID_00000015331801277804228320000005403405120727966103_);}
	.st94{clip-path:url(#SVGID_00000026883005149830089410000008480525166389949826_);}
	.st95{clip-path:url(#SVGID_00000102546170202224485800000012275210123567299240_);}
	.st96{clip-path:url(#SVGID_00000063617175060681345130000011036535719695130787_);}
	.st97{clip-path:url(#SVGID_00000028315126864535405330000007428298038245051833_);}
	.st98{clip-path:url(#SVGID_00000142135517714128163170000013361084584716952487_);}
	.st99{clip-path:url(#SVGID_00000117652688776895789990000010093825857809091723_);}
	.st100{clip-path:url(#SVGID_00000114049966067751302040000004531264931846695861_);}
	.st101{clip-path:url(#SVGID_00000160880814348872829290000006213117793893816975_);}
	.st102{clip-path:url(#SVGID_00000137090556532618252970000018121633868520396727_);}
	.st103{clip-path:url(#SVGID_00000038393128453986813230000001844356103637153956_);}
	.st104{clip-path:url(#SVGID_00000138554757760166439910000009544121384413497261_);}
	.st105{clip-path:url(#SVGID_00000083081299263455917630000015118529806297416835_);}
	.st106{clip-path:url(#SVGID_00000024705056347734310380000010242660653220303768_);}
	.st107{clip-path:url(#SVGID_00000126291949457867858500000016461855395523034037_);}
	.st108{clip-path:url(#SVGID_00000130606411215906469150000010843986534947069872_);}
	.st109{clip-path:url(#SVGID_00000160164819410997964340000011268215488640888250_);}
	.st110{clip-path:url(#SVGID_00000091708467545740224990000017187665258750697612_);}
	.st111{clip-path:url(#SVGID_00000139989336314668978630000017407962482589677496_);}
	.st112{clip-path:url(#SVGID_00000029758555725547123610000000110977448860044202_);}
	.st113{clip-path:url(#SVGID_00000131351143149574735720000001206165807639150496_);}
	.st114{clip-path:url(#SVGID_00000120516610200458171060000010736747076316667810_);}
	.st115{clip-path:url(#SVGID_00000024716942822528304030000006014254529695228835_);}
	.st116{clip-path:url(#SVGID_00000162313797477213979590000001786341617699653558_);}
	.st117{clip-path:url(#SVGID_00000063632602907530351610000012033962232498396845_);}
	.st118{clip-path:url(#SVGID_00000052078880584296173300000001734523369082429628_);}
	.st119{clip-path:url(#SVGID_00000098181407290453053670000016166129423156685222_);}
	.st120{clip-path:url(#SVGID_00000076605177629239894830000006594557833404748435_);}
	.st121{clip-path:url(#SVGID_00000145042889437219234540000000371188841687511955_);}
	.st122{clip-path:url(#SVGID_00000039839860130994548820000004812228783273250219_);}
	.st123{clip-path:url(#SVGID_00000116218904797146482760000007585000627614815142_);}
	.st124{clip-path:url(#SVGID_00000129892550400604468790000002398344089454793395_);}
	.st125{clip-path:url(#SVGID_00000137117438095863038310000001153743033950977210_);}
	.st126{clip-path:url(#SVGID_00000078013383007643216180000004537711661781826488_);}
	.st127{clip-path:url(#SVGID_00000155146917384428799170000013623355195345409204_);}
	.st128{clip-path:url(#SVGID_00000041974814156963180130000011507659415388686753_);}
	.st129{clip-path:url(#SVGID_00000104663899021409622770000015030621484042399422_);}
	.st130{clip-path:url(#SVGID_00000016069986113079685060000015523146046226862750_);}
	.st131{clip-path:url(#SVGID_00000106866181656359825230000007503003207361878175_);}
	.st132{clip-path:url(#SVGID_00000120550117287478591050000015056816538151685259_);}
	.st133{clip-path:url(#SVGID_00000011749808280288820760000017960876951479963569_);}
	.st134{clip-path:url(#SVGID_00000070090086143895356500000011064919532906222982_);}
	.st135{clip-path:url(#SVGID_00000096759226967980851630000009571083945286543492_);}
	.st136{clip-path:url(#SVGID_00000036243859956982018010000007927800036270672819_);}
	.st137{clip-path:url(#SVGID_00000065786512522643707780000001756284118013370550_);}
	.st138{clip-path:url(#SVGID_00000066497744097331727980000011249803181991880349_);}
	.st139{clip-path:url(#SVGID_00000052813432535041009700000014914283890721182620_);}
	.st140{clip-path:url(#SVGID_00000050631186104681177990000010104295466268562088_);}
	.st141{clip-path:url(#SVGID_00000020374189015882557000000016380446011648929716_);}
	.st142{clip-path:url(#SVGID_00000163066312750149554640000004459057441015959209_);}
	.st143{clip-path:url(#SVGID_00000121258345731396708170000013550667678634990229_);}
	.st144{clip-path:url(#SVGID_00000021079852498504038220000018367617988168029353_);}
	.st145{clip-path:url(#SVGID_00000109021460672500677660000009494213025258786439_);}
	.st146{clip-path:url(#SVGID_00000065051415361225302910000017510342424402121096_);}
	.st147{clip-path:url(#SVGID_00000162326903848289264540000002354374511397075640_);}
	.st148{clip-path:url(#SVGID_00000116941244487289722510000005724310025864622235_);}
	.st149{clip-path:url(#SVGID_00000116230407615768312750000015278028625882342020_);}
	.st150{clip-path:url(#SVGID_00000031186516048076646100000009482934523851397764_);}
	.st151{clip-path:url(#SVGID_00000016062918158529793630000005620907669008744073_);}
	.st152{clip-path:url(#SVGID_00000145051284540903545370000002069513332982010030_);}
	.st153{clip-path:url(#SVGID_00000118382879907544486270000012580395961012172973_);}
	.st154{clip-path:url(#SVGID_00000159453629615320772010000002857578564765112473_);}
	.st155{clip-path:url(#SVGID_00000041975700831693440810000007941114514460179106_);}
	.st156{clip-path:url(#SVGID_00000130617935250307865580000006677738224281655725_);}
	.st157{clip-path:url(#SVGID_00000003102117067536856130000001599342115189417106_);}
	.st158{clip-path:url(#SVGID_00000001625430376886327660000005730058133891082114_);}
	.st159{clip-path:url(#SVGID_00000011732583676852860490000000673737341506745500_);}
	.st160{clip-path:url(#SVGID_00000011747470504624373200000010650945274775375024_);}
	.st161{clip-path:url(#SVGID_00000141450049347023741890000006057488130449633697_);}
	.st162{clip-path:url(#SVGID_00000100373896938295681250000014821962357358415035_);}
	.st163{clip-path:url(#SVGID_00000055682538258403493020000015324104957901604773_);}
	.st164{clip-path:url(#SVGID_00000123407634891351539000000017001223320244210577_);}
	.st165{clip-path:url(#SVGID_00000093896917600788020690000003784939717305081776_);}
	.st166{clip-path:url(#SVGID_00000174559929802268236100000017868957129438936210_);}
	.st167{clip-path:url(#SVGID_00000115485645832719316980000008507809123120517289_);}
	.st168{clip-path:url(#SVGID_00000136375169565508092660000006801969742337515435_);}
	.st169{clip-path:url(#SVGID_00000038403987856521221440000002368714018536955272_);}
	.st170{clip-path:url(#SVGID_00000098904976926500109490000001807544830838139524_);}
	.st171{clip-path:url(#SVGID_00000089575203509601723750000003041808680920675225_);}
	.st172{clip-path:url(#SVGID_00000053520705807470970670000003349208954453829558_);}
	.st173{clip-path:url(#SVGID_00000150099937783550497640000016632993294001636534_);}
	.st174{clip-path:url(#SVGID_00000176021693237393208620000006393826563637666448_);}
	.st175{clip-path:url(#SVGID_00000124159085243295729350000000762578986260443282_);}
	.st176{clip-path:url(#SVGID_00000162344420339617489550000002298418946420699273_);}
	.st177{clip-path:url(#SVGID_00000012462782510489252650000013646335949865269914_);}
	.st178{clip-path:url(#SVGID_00000132810608905037315450000006691042213463767680_);}
	.st179{clip-path:url(#SVGID_00000153674370953435554430000004182341345051257261_);}
	.st180{clip-path:url(#SVGID_00000180328001490603743420000002816904025459988398_);}
	.st181{clip-path:url(#SVGID_00000104689781511735740990000008437534632231202436_);}
	.st182{clip-path:url(#SVGID_00000073700445114697196930000000190721039297130653_);}
	.st183{clip-path:url(#SVGID_00000159440617915222116800000010730122707159910529_);}
	.st184{clip-path:url(#SVGID_00000098213780748141176420000007033112262204075953_);}
	.st185{clip-path:url(#SVGID_00000147220953300546394230000015759939433130582674_);}
	.st186{clip-path:url(#SVGID_00000043457972423111710970000012910349662369455514_);}
	.st187{clip-path:url(#SVGID_00000056400148402616074500000016998692339183156357_);}
	.st188{clip-path:url(#SVGID_00000155853026805861420160000007332804685923216550_);}
	.st189{clip-path:url(#SVGID_00000016062691630554459710000016577182052565372603_);}
	.st190{clip-path:url(#SVGID_00000061457131234445619860000003372503363334874017_);}
	.st191{clip-path:url(#SVGID_00000150791974442728896020000007675024720163031200_);}
	.st192{clip-path:url(#SVGID_00000124842203949884695360000014635140948472243083_);}
	.st193{clip-path:url(#SVGID_00000177468046870594840350000010127789067884182147_);}
	.st194{clip-path:url(#SVGID_00000131329836029052365100000002488703351001254324_);}
	.st195{clip-path:url(#SVGID_00000109709408342927601130000013979072020551191198_);}
	.st196{clip-path:url(#SVGID_00000087388080706067155100000007767995833338104255_);}
	.st197{clip-path:url(#SVGID_00000141452574227449127620000002690663183807792533_);}
	.st198{clip-path:url(#SVGID_00000161592019479210180490000006209838743630590113_);}
	.st199{clip-path:url(#SVGID_00000070108042666392854560000001516588702752786336_);}
	.st200{clip-path:url(#SVGID_00000124882727047608920820000007847317288798009482_);}
	.st201{clip-path:url(#SVGID_00000094605736179781032170000007636236686913142449_);}
	.st202{clip-path:url(#SVGID_00000138559189361138181860000002682979813175411637_);}
	.st203{clip-path:url(#SVGID_00000097468243848203147300000017289324963372760470_);}
	.st204{clip-path:url(#SVGID_00000179605342688309697470000006000433584504286112_);}
	.st205{clip-path:url(#SVGID_00000019644050369647435760000011005486116300889234_);}
	.st206{clip-path:url(#SVGID_00000028313450334447626550000005562713873248198298_);}
	.st207{clip-path:url(#SVGID_00000111889837040158746840000002128026908030161540_);}
	.st208{clip-path:url(#SVGID_00000054247190687222662770000010382351597619735728_);}
	.st209{clip-path:url(#SVGID_00000183241205101104750510000001167634719954357911_);}
	.st210{clip-path:url(#SVGID_00000075844487760925930080000007695651576484720784_);}
	.st211{clip-path:url(#SVGID_00000070100753158517262080000017200554612983191705_);}
	.st212{clip-path:url(#SVGID_00000077283940397656876220000011535672459096826810_);}
	.st213{clip-path:url(#SVGID_00000129175860440190976920000002860646402932337825_);}
	.st214{clip-path:url(#SVGID_00000175285853131097818730000008735462581012662694_);}
	.st215{clip-path:url(#SVGID_00000074420779734369418480000005492044265466007683_);}
	.st216{clip-path:url(#SVGID_00000171705858034823818630000000971908224190327742_);}
	.st217{clip-path:url(#SVGID_00000020395929798881725760000017543326386505513604_);}
	.st218{clip-path:url(#SVGID_00000177446792506988222620000012091264983069842830_);}
	.st219{clip-path:url(#SVGID_00000156557827638729866730000009398031631841703831_);}
	.st220{clip-path:url(#SVGID_00000027571974439987457860000013770501927259132345_);}
	.st221{clip-path:url(#SVGID_00000031185327819775224320000000550176425278054839_);}
	.st222{clip-path:url(#SVGID_00000148651878913513523700000005737693239455543716_);}
	.st223{clip-path:url(#SVGID_00000004539180725989011470000010434181475110806949_);}
	.st224{clip-path:url(#SVGID_00000176010265323690588720000011754788762466303921_);}
	.st225{clip-path:url(#SVGID_00000011737945684485559550000008256787564404795325_);}
	.st226{clip-path:url(#SVGID_00000104696760604388804120000016131726712246579866_);}
	.st227{clip-path:url(#SVGID_00000026165462346216825270000006108315228960514714_);}
	.st228{clip-path:url(#SVGID_00000115477843546941285510000011999998301599146671_);}
	.st229{clip-path:url(#SVGID_00000033358830189227216730000007606022404164694158_);}
	.st230{clip-path:url(#SVGID_00000041273571732240836140000013694694186980836788_);}
	.st231{clip-path:url(#SVGID_00000175290064295103412720000005569770146527176358_);}
	.st232{clip-path:url(#SVGID_00000054947328924882299810000004212016908100835499_);}
	.st233{clip-path:url(#SVGID_00000079482158395230553730000014397677925401491356_);}
	.st234{clip-path:url(#SVGID_00000166649680725853047440000010052404158715015076_);}
	.st235{clip-path:url(#SVGID_00000046329437883923350290000002399365766830513562_);}
	.st236{clip-path:url(#SVGID_00000109025844721150701420000003844196986444767123_);}
	.st237{clip-path:url(#SVGID_00000165207731261250305950000017184462886124235932_);}
	.st238{clip-path:url(#SVGID_00000072992042984532375260000010554511803915856517_);}
	.st239{clip-path:url(#SVGID_00000077285319511076692170000014261295621668258467_);}
	.st240{clip-path:url(#SVGID_00000031204502059959125650000012693960724089514167_);}
	.st241{clip-path:url(#SVGID_00000117674953641434685490000004562419155631830707_);}
	.st242{clip-path:url(#SVGID_00000050644846434801340040000003605340929037004199_);}
	.st243{clip-path:url(#SVGID_00000022541827409867476410000014916570932506774670_);}
	.st244{clip-path:url(#SVGID_00000070817808218363454150000016396084165008590486_);}
	.st245{clip-path:url(#SVGID_00000066484221643964049940000006300522386486737552_);}
	.st246{clip-path:url(#SVGID_00000104684468908295199470000005228440926026496647_);}
	.st247{clip-path:url(#SVGID_00000125566943112162600930000013968264991551585725_);}
	.st248{clip-path:url(#SVGID_00000047047378887048520660000000760700753154839213_);}
	.st249{clip-path:url(#SVGID_00000094578356457033750650000015559676781994111934_);}
	.st250{clip-path:url(#SVGID_00000142896628633831345930000013049850182714775229_);}
	.st251{clip-path:url(#SVGID_00000091729015462802883370000006019442793211977870_);}
	.st252{clip-path:url(#SVGID_00000115479093741027125050000014603579782159692963_);}
	.st253{clip-path:url(#SVGID_00000072999213066321109220000014268785035548961431_);}
	.st254{clip-path:url(#SVGID_00000030486001698071591640000000605246363077188489_);}
	.st255{clip-path:url(#SVGID_00000017504985605560491020000005011679164670082980_);}
	.st256{clip-path:url(#SVGID_00000127037168505989719570000004922099158840676244_);}
	.st257{clip-path:url(#SVGID_00000102539082632475524560000014286720831067542928_);}
	.st258{clip-path:url(#SVGID_00000081616074434562649310000004883755384761238657_);}
	.st259{clip-path:url(#SVGID_00000087380474056243043140000009410180640293902484_);}
	.st260{clip-path:url(#SVGID_00000036951992181139273420000004233496407103300260_);}
	.st261{clip-path:url(#SVGID_00000107582304693169649360000013119019494893588902_);}
	.st262{clip-path:url(#SVGID_00000118397433852877964580000018219176858809987486_);}
	.st263{clip-path:url(#SVGID_00000075120055537865240800000012181776467931037065_);}
	.st264{clip-path:url(#SVGID_00000075121242162659080720000002956343866168556982_);}
	.st265{clip-path:url(#SVGID_00000047043816536408030680000010273453386783969676_);}
	.st266{clip-path:url(#SVGID_00000042700193089995319260000015301109143024116876_);}
	.st267{clip-path:url(#SVGID_00000159460715729563617020000002558828225014026681_);}
	.st268{clip-path:url(#SVGID_00000173838990245844281580000009706071850778535086_);}
	.st269{clip-path:url(#SVGID_00000128446899836145374090000006731511521752738944_);}
	.st270{clip-path:url(#SVGID_00000016753514862110236760000011707808024052566415_);}
	.st271{clip-path:url(#SVGID_00000119087620153232080020000014394054650786575277_);}
	.st272{clip-path:url(#SVGID_00000052084595313608891830000011855899467016023715_);}
	.st273{clip-path:url(#SVGID_00000011728242475070280190000010006558299166058659_);}
	.st274{clip-path:url(#SVGID_00000166652247636011286700000014763777354623032470_);}
	.st275{clip-path:url(#SVGID_00000029016762648109085000000005687957507538713994_);}
	.st276{clip-path:url(#SVGID_00000017507715759881256810000008608406187674414764_);}
	.st277{clip-path:url(#SVGID_00000024708090888520877620000001671664627926115769_);}
	.st278{clip-path:url(#SVGID_00000146482322679767423220000006797921100251516300_);}
	.st279{clip-path:url(#SVGID_00000053510494787397640990000010973235573489159576_);}
	.st280{clip-path:url(#SVGID_00000137827012662093566800000003075649810647041469_);}
	.st281{clip-path:url(#SVGID_00000018207078004917327540000008895517908335186577_);}
	.st282{clip-path:url(#SVGID_00000001629794956240951840000004871156015760411538_);}
	.st283{clip-path:url(#SVGID_00000065764824508545860900000011081387147478837165_);}
	.st284{clip-path:url(#SVGID_00000016785408965455760880000014581084973861094046_);}
	.st285{clip-path:url(#SVGID_00000102527296256021505170000008652064428908482466_);}
	.st286{clip-path:url(#SVGID_00000057843268906882478390000001135758071232227517_);}
	.st287{clip-path:url(#SVGID_00000018930574071853975120000006206754283880750243_);}
	.st288{clip-path:url(#SVGID_00000004543322235977291850000003619542960350600866_);}
	.st289{clip-path:url(#SVGID_00000130616629191481299810000003845435299963311771_);}
	.st290{clip-path:url(#SVGID_00000063610781201054592750000002497750765859476150_);}
	.st291{clip-path:url(#SVGID_00000087379056914588798120000007850030732298406561_);}
	.st292{clip-path:url(#SVGID_00000182511279856036537420000006754712340295984563_);}
	.st293{clip-path:url(#SVGID_00000159443620234802188930000005647940017742413970_);}
	.st294{clip-path:url(#SVGID_00000034062850848272128230000002838130281333858734_);}
	.st295{clip-path:url(#SVGID_00000016033745350437990610000013758927687654197669_);}
	.st296{clip-path:url(#SVGID_00000006676475931471496830000014367984821768206780_);}
	.st297{clip-path:url(#SVGID_00000119094425213356305090000016368957903676079018_);}
	.st298{clip-path:url(#SVGID_00000181065231991187886410000014273701148201855117_);}
	.st299{clip-path:url(#SVGID_00000058552837043634191260000011812579436697595553_);}
	.st300{clip-path:url(#SVGID_00000182502705542601409000000012366699341688118685_);}
	.st301{clip-path:url(#SVGID_00000041994106437007715710000013624807402118594731_);}
	.st302{clip-path:url(#SVGID_00000100380476966786068940000017065855765213469369_);}
	.st303{clip-path:url(#SVGID_00000168804602829906768150000015253122304036835769_);}
	.st304{clip-path:url(#SVGID_00000064328100027786505900000016192500850657498252_);}
	.st305{clip-path:url(#SVGID_00000020396399973994100450000013142032503164857277_);}
	.st306{clip-path:url(#SVGID_00000106121619421774103250000004385259261892679301_);}
	.st307{clip-path:url(#SVGID_00000013183233613889955940000002312918938638674613_);}
	.st308{clip-path:url(#SVGID_00000119816887552855932250000015286418802058390144_);}
	.st309{clip-path:url(#SVGID_00000044883558692416755520000015762577319943417752_);}
	.st310{clip-path:url(#SVGID_00000016794595795584265670000018089686339467344546_);}
	.st311{clip-path:url(#SVGID_00000026846607342198383120000013982144347012348861_);}
	.st312{clip-path:url(#SVGID_00000054945671252080149930000001906649355104333486_);}
	.st313{clip-path:url(#SVGID_00000170241742976678271940000015636377376329150899_);}
	.st314{clip-path:url(#SVGID_00000109722117207960554030000000577441342194301093_);}
	.st315{clip-path:url(#SVGID_00000148629238711978524880000015831157719127351953_);}
	.st316{clip-path:url(#SVGID_00000038384699800252658950000002974426158322709950_);}
	.st317{clip-path:url(#SVGID_00000021820706583434913540000005118496311619512490_);}
	.st318{clip-path:url(#SVGID_00000040555402164340165570000008162523690786305415_);}
	.st319{clip-path:url(#SVGID_00000049217716012516704000000004357290782971073178_);}
	.st320{clip-path:url(#SVGID_00000129926414641333035090000017554926705546490813_);}
	.st321{clip-path:url(#SVGID_00000112631468288029743420000017517703007386902152_);}
	.st322{clip-path:url(#SVGID_00000136384515706530745280000000377417739005770420_);}
	.st323{clip-path:url(#SVGID_00000182519955589103015840000008173119117000249762_);}
	.st324{clip-path:url(#SVGID_00000070076790423882574050000017678974213787216808_);}
	.st325{clip-path:url(#SVGID_00000060737660413337950100000006083872552697914245_);}
	.st326{clip-path:url(#SVGID_00000059991441770572357930000006567587641714846393_);}
	.st327{clip-path:url(#SVGID_00000171696214521114947490000016906683087394893483_);}
	.st328{clip-path:url(#SVGID_00000129190906970079995680000004382455316792631697_);}
	.st329{clip-path:url(#SVGID_00000097499016527227439240000008858016367762986894_);}
	.st330{clip-path:url(#SVGID_00000079484984761143825340000003110624441827866009_);}
	.st331{clip-path:url(#SVGID_00000089548598018859533200000012336145924971903921_);}
	.st332{clip-path:url(#SVGID_00000065066092236212985560000011268627698877810326_);}
	.st333{clip-path:url(#SVGID_00000155146383131535941590000002156989752513269132_);}
	.st334{clip-path:url(#SVGID_00000036241560303666227310000002688633728701403520_);}
	.st335{clip-path:url(#SVGID_00000150092901944723069860000004945615459053912970_);}
	.st336{clip-path:url(#SVGID_00000163071494057710810970000004610605242046512797_);}
	.st337{clip-path:url(#SVGID_00000143619681946721300280000009938566160805215418_);}
	.st338{clip-path:url(#SVGID_00000137122732283778431890000017233488153679090592_);}
	.st339{clip-path:url(#SVGID_00000181793831208157509810000000438586088503239325_);}
	.st340{clip-path:url(#SVGID_00000167354381355645746870000003502455484686830226_);}
	.st341{clip-path:url(#SVGID_00000005251670927019989870000011697020438608423354_);}
	.st342{clip-path:url(#SVGID_00000120546354958251088050000017076947373018565545_);}
	.st343{clip-path:url(#SVGID_00000018952637744869134550000006765465728861839267_);}
	.st344{clip-path:url(#SVGID_00000021817379917259653790000003766311414470586758_);}
	.st345{clip-path:url(#SVGID_00000005248053308853573330000002490610374474343098_);}
	.st346{clip-path:url(#SVGID_00000076577151470667326670000016134178959260029064_);}
	.st347{clip-path:url(#SVGID_00000077315188154264628290000000649650618197775545_);}
	.st348{clip-path:url(#SVGID_00000123430831521993877340000013101337940075001018_);}
	.st349{clip-path:url(#SVGID_00000022543866731738553920000007080644281730647941_);}
	.st350{clip-path:url(#SVGID_00000124127303000890278900000008297310715159882674_);}
	.st351{clip-path:url(#SVGID_00000031164950605125515520000015412942919645998479_);}
	.st352{clip-path:url(#SVGID_00000053541708084890851410000017023632296041760437_);}
	.st353{clip-path:url(#SVGID_00000047052510946649457910000001361951748643364993_);}
	.st354{clip-path:url(#SVGID_00000077290836538129645920000000957469223866687618_);}
	.st355{clip-path:url(#SVGID_00000021806942242796105120000011668041690147511175_);}
	.st356{clip-path:url(#SVGID_00000070832197870377978500000002324963885557415866_);}
	.st357{clip-path:url(#SVGID_00000003800791072472953270000006820597754160938678_);}
	.st358{clip-path:url(#SVGID_00000156587597774363253130000007599946202194750121_);}
	.st359{clip-path:url(#SVGID_00000168816833784246537520000004005444690931706759_);}
	.st360{clip-path:url(#SVGID_00000138557938652691883700000000875301768839763378_);}
	.st361{clip-path:url(#SVGID_00000122692233914492421790000007834689716415590785_);}
	.st362{clip-path:url(#SVGID_00000173849531174631917050000003252744020844258482_);}
	.st363{clip-path:url(#SVGID_00000166641376429478923200000008738645233256971393_);}
	.st364{clip-path:url(#SVGID_00000106857791685430328190000006529373858288250498_);}
	.st365{clip-path:url(#SVGID_00000124849690602336474930000006756117177772681857_);}
	.st366{clip-path:url(#SVGID_00000108280939632117615350000011271737117922325935_);}
	.st367{clip-path:url(#SVGID_00000070082443350362657400000000186153177599407244_);}
	.st368{clip-path:url(#SVGID_00000111162125418949841060000004002089469463832747_);}
	.st369{clip-path:url(#SVGID_00000039828370343900585420000005644747125305931419_);}
	.st370{clip-path:url(#SVGID_00000106834304442299477590000010458067385356375742_);}
	.st371{clip-path:url(#SVGID_00000025434629698279925150000009121907832572492675_);}
	.st372{clip-path:url(#SVGID_00000160187979060378017200000006387500565452926631_);}
	.st373{clip-path:url(#SVGID_00000163782011281809242860000000467232519136346255_);}
	.st374{clip-path:url(#SVGID_00000070804481580160540100000015549326986010729612_);}
	.st375{clip-path:url(#SVGID_00000155861997377286257290000006972753014218935691_);}
</style>
<g>
	<g>
		<g>
			<rect x="4.29" y="111.63" class="st0" width="46.36" height="884.07"/>
		</g>
	</g>
	<g>
		<g>
			<rect x="4" class="st1" width="948.1" height="119.22"/>
		</g>
	</g>
	<g>
		<defs>
			<rect id="SVGID_00000068665653443309160970000002144290798903228310_" y="0.01" width="954.01" height="999.99"/>
		</defs>
		<clipPath id="SVGID_00000023963336152109461050000014290219617485429923_">
			<use xlink:href="#SVGID_00000068665653443309160970000002144290798903228310_"  style="overflow:visible;"/>
		</clipPath>
		<g style="clip-path:url(#SVGID_00000023963336152109461050000014290219617485429923_);">
			<g>
				<path class="st3" d="M952.4,1000H1.61c-0.89,0-1.61-0.72-1.61-1.61V1.62c0-0.89,0.72-1.61,1.61-1.61H952.4
					c0.89,0,1.61,0.72,1.61,1.61v996.77C954.01,999.28,953.29,1000,952.4,1000z M3.22,996.78h947.57V3.23H3.22V996.78z"/>
			</g>
		</g>
		<g style="clip-path:url(#SVGID_00000023963336152109461050000014290219617485429923_);">
			<g>
				<path class="st4" d="M859.31,69.89V39.48c0-3.07-0.21-6.21-1.81-9c-1.6-2.72-3.84-4.88-6.13-7.18l-6.14,6.13
					c1.67,1.67,2.72,2.58,3.91,4.6c0.7,1.26,1.05,3.21,1.05,5.86v29.58c0,2.65-0.35,4.6-1.05,5.86c-1.19,2.02-2.23,2.93-3.91,4.6
					l6.14,6.14c2.3-2.3,4.53-4.47,6.13-7.19C859.1,76.1,859.31,72.96,859.31,69.89 M839.99,46.17c-2.51-2.51-5.02-3.41-8.58-3.41
					c-3.91,0-7.4,1.81-9.14,3.9v-3.48h-8.85v36.34h9.06V57.61c0-4.6,3.07-6.7,5.86-6.7c2.23,0,3.42,0.77,4.81,2.16L839.99,46.17z
					 M801.83,79.52V43.18h-9.06v21.98c0,4.95-3.21,6.63-6.08,6.63c-2.86,0-6.01-1.67-6.01-6.63V43.18h-9.06v23.23
					c0,3.98,0.77,7.39,3.69,10.32c2.02,2.02,4.95,3.2,8.58,3.2c3.35,0,6.7-1.26,9.08-3.76v3.34H801.83z M762.41,79.52v-7.66h-3.28
					c-2.16,0-3.14-1.19-3.14-3.28V51.12h6.42v-6.9h-6.42V33.48h-9.06v10.74h-3.84v6.9h3.84v18.01c0,5.16,3.14,10.39,10.53,10.39
					H762.41z M734.65,29.57h-9.27v7.38h9.27V29.57z M734.58,43.18h-9.06v36.34h9.06V43.18z M706.4,61.31
					c0,5.93-0.7,10.47-6.14,10.47c-5.44,0-6.14-4.54-6.14-10.47c0-5.94,0.7-10.4,6.14-10.4C705.7,50.91,706.4,55.38,706.4,61.31
					 M715.46,61.31c0-5.45-0.07-11.66-3.7-15.28c-2.02-2.02-5.3-3.27-8.85-3.27c-3.7,0-6.42,0.97-8.8,3.62V29.85h-9.06v49.66h8.79
					V76.1c2.51,2.79,5.23,3.83,9.08,3.83c3.56,0,6.84-1.26,8.85-3.27C715.39,73.03,715.46,66.75,715.46,61.31 M662.58,62.57h-12.35
					l6.28-18.07L662.58,62.57z M678.21,79.52l-18.14-49.66h-7.6L634.4,79.52h10.12l3-8.79h17.65l2.93,8.79H678.21z M628.81,80
					c-1.67-1.67-2.72-2.65-3.91-4.67c-0.7-1.26-1.05-3.21-1.05-5.86V39.89c0-2.65,0.35-4.6,1.05-5.86c1.19-2.02,2.23-3,3.91-4.67
					l-6.07-6.06c-2.3,2.3-4.53,4.46-6.13,7.18c-1.6,2.79-1.81,5.93-1.81,9v30.41c0,3.07,0.21,6.21,1.81,9
					c1.6,2.72,3.83,4.88,6.13,7.19L628.81,80z M578.02,57.97h-13.81c0.07-1.61,0.28-2.59,0.84-3.91c0.98-2.17,3-3.77,6.07-3.77
					c3.07,0,5.09,1.6,6.07,3.77C577.74,55.38,577.95,56.36,578.02,57.97 M586.95,64.17v-4.04c0-9.98-5.72-17.37-15.84-17.37
					c-9.41,0-15.83,6.69-15.83,18.55c0,14.72,8.22,18.62,16.8,18.62c6.56,0,10.12-2.02,13.81-5.72l-5.51-5.37
					c-2.3,2.3-4.26,3.42-8.23,3.42c-5.09,0-7.95-3.42-7.95-8.1H586.95z M549.83,51.12v-6.9h-6.7v-3.98c0-2.1,0.98-3.28,3.14-3.28
					h3.56v-7.66h-5.16c-7.39,0-10.59,5.23-10.59,10.39v4.54h-3.77v6.9h3.77v28.4h9.06v-28.4H549.83z M521.51,29.57h-9.27v7.38h9.27
					V29.57z M521.44,43.18h-9.06v36.34h9.06V43.18z M493.67,57.97h-13.81c0.07-1.61,0.28-2.59,0.84-3.91c0.98-2.17,3-3.77,6.07-3.77
					c3.07,0,5.09,1.6,6.07,3.77C493.39,55.38,493.6,56.36,493.67,57.97 M502.6,64.17v-4.04c0-9.98-5.72-17.37-15.84-17.37
					c-9.41,0-15.83,6.69-15.83,18.55c0,14.72,8.22,18.62,16.8,18.62c6.56,0,10.12-2.02,13.81-5.72l-5.51-5.37
					c-2.3,2.3-4.26,3.42-8.23,3.42c-5.09,0-7.95-3.42-7.95-8.1H502.6z M468.35,46.17c-2.51-2.51-5.02-3.41-8.58-3.41
					c-3.91,0-7.4,1.81-9.14,3.9v-3.48h-8.85v36.34h9.06V57.61c0-4.6,3.07-6.7,5.86-6.7c2.23,0,3.42,0.77,4.81,2.16L468.35,46.17z
					 M433.11,79.52v-7.66h-3.49c-2.3,0-3.21-1.12-3.21-3.28V29.85h-9.06v39.28c0,5.16,3.13,10.38,10.59,10.38H433.11z M406.11,79.52
					V43.18h-9.06v21.98c0,4.95-3.21,6.63-6.08,6.63c-2.86,0-6.01-1.67-6.01-6.63V43.18h-9.06v23.23c0,3.98,0.77,7.39,3.69,10.32
					c2.02,2.02,4.95,3.2,8.58,3.2c3.35,0,6.7-1.26,9.08-3.76v3.34H406.11z M365.17,79.52V56c0-7.67-4.19-13.24-12.13-13.24
					c-3.21,0-6.28,1.25-8.73,3.76V29.85h-9.06v49.66h9.06V57.33c0-4.74,3-6.42,5.86-6.42c2.87,0,5.94,1.6,5.94,6.42v22.19H365.17z
					 M326.79,74.99l-6.14-6.07c-1.88,2.03-3.49,2.87-5.86,2.87c-2.16,0-3.84-0.77-5.16-2.38c-1.4-1.74-2.02-4.26-2.02-8.09
					s0.63-6.28,2.02-8.03c1.33-1.6,3-2.37,5.16-2.37c2.37,0,3.98,0.84,5.86,2.86l6.14-6.13c-3.21-3.35-6.98-4.88-12-4.88
					c-7.26,0-16.25,3.83-16.25,18.55s8.99,18.62,16.25,18.62C319.82,79.93,323.59,78.33,326.79,74.99 M291.36,68.08
					c0-6.14-3.63-9.98-10.81-10.67l-5.72-0.56c-3.21-0.28-3.77-1.81-3.77-3.14c0-1.81,1.53-3.49,5.16-3.49
					c3.14,0,6.35,0.56,8.44,2.44l5.58-5.65c-3.49-3.28-8.23-4.25-13.88-4.25c-7.4,0-14.02,4.04-14.02,11.57
					c0,6.7,4.05,9.56,10.6,10.19l5.72,0.56c2.86,0.28,3.84,1.53,3.84,3.35c0,2.73-3.28,3.77-6.42,3.77c-2.79,0-6.7-0.42-9.7-3.42
					l-5.93,5.93c4.6,4.6,9.77,5.23,15.49,5.23C284.52,79.93,291.36,76.1,291.36,68.08 M252.84,79.52V56
					c0-7.67-4.18-13.24-12.13-13.24c-3.21,0-6.28,1.25-8.73,3.76V29.85h-9.06v49.66h9.06V57.33c0-4.74,3-6.42,5.87-6.42
					c2.86,0,5.94,1.6,5.94,6.42v22.19H252.84z M214.47,74.99l-6.14-6.07c-1.88,2.03-3.49,2.87-5.86,2.87
					c-2.16,0-3.84-0.77-5.16-2.38c-1.4-1.74-2.02-4.26-2.02-8.09s0.63-6.28,2.02-8.03c1.33-1.6,3-2.37,5.16-2.37
					c2.37,0,3.98,0.84,5.86,2.86l6.14-6.13c-3.21-3.35-6.98-4.88-12-4.88c-7.26,0-16.24,3.83-16.24,18.55s8.99,18.62,16.24,18.62
					C207.49,79.93,211.26,78.33,214.47,74.99 M168.92,61.31c0,3.77-0.21,6.98-2.1,8.86c-1.05,1.05-2.44,1.61-4.26,1.61
					c-1.81,0-3.14-0.56-4.19-1.61c-1.88-1.88-2.09-5.09-2.09-8.86s0.21-6.91,2.09-8.8c1.05-1.05,2.38-1.6,4.19-1.6
					c1.81,0,3.21,0.56,4.26,1.6C168.71,54.4,168.92,57.54,168.92,61.31 M177.98,61.31c0-6.56-0.84-10.68-4.11-14.09
					c-2.23-2.37-5.93-4.46-11.3-4.46c-5.38,0-9.01,2.09-11.23,4.46c-3.28,3.41-4.11,7.53-4.11,14.09c0,6.63,0.83,10.75,4.11,14.16
					c2.23,2.37,5.86,4.46,11.23,4.46c5.37,0,9.07-2.09,11.3-4.46C177.14,72.06,177.98,67.94,177.98,61.31 M136.47,79.52V29.85h-9.69
					v20.3h-16.82v-20.3h-9.69v49.66h9.69V58.73h16.82v20.79H136.47z"/>
			</g>
		</g>
		<g style="clip-path:url(#SVGID_00000023963336152109461050000014290219617485429923_);">
			<g>
				<rect x="2.95" y="333.51" class="st3" width="948.1" height="3.22"/>
			</g>
		</g>
		<g style="clip-path:url(#SVGID_00000023963336152109461050000014290219617485429923_);">
			<g>
				<rect x="2.95" y="221.88" class="st3" width="948.1" height="3.22"/>
			</g>
		</g>
		<g style="clip-path:url(#SVGID_00000023963336152109461050000014290219617485429923_);">
			<g>
				<rect x="2.95" y="115.62" class="st3" width="948.1" height="3.22"/>
			</g>
		</g>
		<g style="clip-path:url(#SVGID_00000023963336152109461050000014290219617485429923_);">
			<g>
				<rect x="2.95" y="442.45" class="st3" width="948.1" height="3.22"/>
			</g>
		</g>
		<g style="clip-path:url(#SVGID_00000023963336152109461050000014290219617485429923_);">
			<g>
				<rect x="2.95" y="559.44" class="st3" width="948.1" height="3.22"/>
			</g>
		</g>
		<g style="clip-path:url(#SVGID_00000023963336152109461050000014290219617485429923_);">
			<g>
				<rect x="2.95" y="671.07" class="st3" width="948.1" height="3.22"/>
			</g>
		</g>
		<g style="clip-path:url(#SVGID_00000023963336152109461050000014290219617485429923_);">
			<g>
				<rect x="2.95" y="773.53" class="st3" width="948.1" height="3.22"/>
			</g>
		</g>
		<g style="clip-path:url(#SVGID_00000023963336152109461050000014290219617485429923_);">
			<g>
				<rect x="2.95" y="887.39" class="st3" width="948.1" height="3.22"/>
			</g>
		</g>
		<g style="clip-path:url(#SVGID_00000023963336152109461050000014290219617485429923_);">
			<g>
				<rect x="2.95" y="996.78" class="st3" width="948.1" height="3.22"/>
			</g>
		</g>
	</g>
	<g>
		<g>
			<polygon class="st4" points="19.8,718.33 35.15,718.33 27.48,708.18 			"/>
		</g>
	</g>
	<g>
		<g>
			<polygon class="st4" points="19.8,738.52 35.15,738.52 27.48,728.37 			"/>
		</g>
	</g>
	<g>
		<g>
			<polygon class="st4" points="19.8,758.7 35.15,758.7 27.48,748.55 			"/>
		</g>
	</g>
	<g>
		<g>
			<polygon class="st4" points="19.8,698.15 35.15,698.15 27.48,688 			"/>
		</g>
	</g>
	<g>
		<g>
			<polygon class="st4" points="19.8,823.11 35.15,823.11 27.48,812.96 			"/>
		</g>
	</g>
	<g>
		<g>
			<polygon class="st4" points="19.8,843.29 35.15,843.29 27.48,833.14 			"/>
		</g>
	</g>
	<g>
		<g>
			<polygon class="st4" points="19.8,863.48 35.15,863.48 27.48,853.33 			"/>
		</g>
	</g>
	<g>
		<g>
			<polygon class="st4" points="19.8,802.92 35.15,802.92 27.48,792.77 			"/>
		</g>
	</g>
	<g>
		<g>
			<polygon class="st4" points="19.8,940.24 35.15,940.24 27.48,930.09 			"/>
		</g>
	</g>
	<g>
		<g>
			<polygon class="st4" points="19.8,960.43 35.15,960.43 27.48,950.28 			"/>
		</g>
	</g>
	<g>
		<g>
			<polygon class="st4" points="19.8,980.61 35.15,980.61 27.48,970.47 			"/>
		</g>
	</g>
	<g>
		<g>
			<polygon class="st4" points="19.8,920.06 35.15,920.06 27.48,909.91 			"/>
		</g>
	</g>
	<g>
		<g>
			<polygon class="st4" points="19.8,611.85 35.15,611.85 27.48,601.7 			"/>
		</g>
	</g>
	<g>
		<g>
			<polygon class="st4" points="19.8,632.03 35.15,632.03 27.48,621.89 			"/>
		</g>
	</g>
	<g>
		<g>
			<polygon class="st4" points="19.8,652.22 35.15,652.22 27.48,642.07 			"/>
		</g>
	</g>
	<g>
		<g>
			<polygon class="st4" points="19.8,591.66 35.15,591.66 27.48,581.51 			"/>
		</g>
	</g>
	<g>
		<g>
			<polygon class="st4" points="19.8,497.54 35.15,497.54 27.48,487.39 			"/>
		</g>
	</g>
	<g>
		<g>
			<polygon class="st4" points="19.8,517.72 35.15,517.72 27.48,507.58 			"/>
		</g>
	</g>
	<g>
		<g>
			<polygon class="st4" points="19.8,537.91 35.15,537.91 27.48,527.76 			"/>
		</g>
	</g>
	<g>
		<g>
			<polygon class="st4" points="19.8,477.35 35.15,477.35 27.48,467.2 			"/>
		</g>
	</g>
	<g>
		<g>
			<polygon class="st4" points="19.8,384.57 35.15,384.57 27.48,374.42 			"/>
		</g>
	</g>
	<g>
		<g>
			<polygon class="st4" points="19.8,404.75 35.15,404.75 27.48,394.6 			"/>
		</g>
	</g>
	<g>
		<g>
			<polygon class="st4" points="19.8,424.94 35.15,424.94 27.48,414.79 			"/>
		</g>
	</g>
	<g>
		<g>
			<polygon class="st4" points="19.8,364.38 35.15,364.38 27.48,354.23 			"/>
		</g>
	</g>
	<g>
		<g>
			<polygon class="st4" points="19.8,274.28 35.15,274.28 27.48,264.14 			"/>
		</g>
	</g>
	<g>
		<g>
			<polygon class="st4" points="19.8,294.47 35.15,294.47 27.48,284.32 			"/>
		</g>
	</g>
	<g>
		<g>
			<polygon class="st4" points="19.8,314.66 35.15,314.66 27.48,304.51 			"/>
		</g>
	</g>
	<g>
		<g>
			<polygon class="st4" points="19.8,254.1 35.15,254.1 27.48,243.95 			"/>
		</g>
	</g>
	<g>
		<g>
			<polygon class="st4" points="19.8,162.66 35.15,162.66 27.48,152.51 			"/>
		</g>
	</g>
	<g>
		<g>
			<polygon class="st4" points="19.8,182.84 35.15,182.84 27.48,172.69 			"/>
		</g>
	</g>
	<g>
		<g>
			<polygon class="st4" points="19.8,203.03 35.15,203.03 27.48,192.88 			"/>
		</g>
	</g>
	<g>
		<g>
			<polygon class="st4" points="19.8,142.47 35.15,142.47 27.48,132.32 			"/>
		</g>
	</g>
	<g>
		<defs>
			<rect id="SVGID_00000163751484842409307870000014274488666420647573_" y="0.01" width="954.01" height="999.99"/>
		</defs>
		<clipPath id="SVGID_00000139258334563683066670000002507460587087693737_">
			<use xlink:href="#SVGID_00000163751484842409307870000014274488666420647573_"  style="overflow:visible;"/>
		</clipPath>
		<g style="clip-path:url(#SVGID_00000139258334563683066670000002507460587087693737_);">
			<g>
				<path class="st3" d="M670.24,480.83c0,3.93-2.3,6.27-5.56,6.27c-3.47,0-5.51-2.7-5.51-6.27c0-3.87,2.24-6.33,5.51-6.33
					C667.95,474.5,670.24,476.95,670.24,480.83 M675.43,480.73c0-6.73-4.48-10.86-10.75-10.86c-6.27,0-10.71,4.38-10.71,11.06
					c0,6.38,4.23,10.5,9.48,10.5c1.13,0,2.3-0.15,3.27-0.56l-7.81,15.6h5.57l8.26-16.82C674.32,486.49,675.43,483.68,675.43,480.73
					 M629.96,491.44h-11.62c0.05-1.58,0.15-2.35,0.66-3.53c0.82-1.94,2.7-3.26,5.15-3.26s4.28,1.33,5.1,3.26
					C629.76,489.09,629.91,489.85,629.96,491.44 M635.11,495.05v-2.29c0-7.34-4.03-12.43-10.96-12.43c-6.63,0-10.96,4.84-10.96,13.2
					c0,9.84,5.15,13.26,11.62,13.26c4.54,0,7.04-1.37,9.69-4.03l-3.31-3.11c-1.84,1.84-3.36,2.65-6.27,2.65
					c-4.23,0-6.57-2.81-6.57-7.25H635.11z M607.68,498.57c0-4.59-2.86-6.89-7.7-7.29l-4.08-0.35c-2.75-0.26-3.57-1.43-3.57-2.96
					c0-1.94,1.58-3.32,4.69-3.32c2.45,0,4.74,0.51,6.38,1.89l3.26-3.32c-2.4-2.09-5.71-2.9-9.58-2.9c-5.4,0-9.74,2.85-9.74,7.89
					c0,4.54,2.81,6.74,7.65,7.14l4.13,0.35c2.5,0.2,3.47,1.33,3.47,3.06c0,2.45-2.5,3.57-5.66,3.57c-2.55,0-5.35-0.56-7.44-2.7
					l-3.41,3.41c3.06,3.01,6.63,3.72,10.86,3.72C603.1,506.78,607.68,503.97,607.68,498.57 M582.04,498.57
					c0-4.59-2.86-6.89-7.7-7.29l-4.08-0.35c-2.75-0.26-3.57-1.43-3.57-2.96c0-1.94,1.58-3.32,4.69-3.32c2.45,0,4.74,0.51,6.37,1.89
					l3.26-3.32c-2.39-2.09-5.71-2.9-9.58-2.9c-5.4,0-9.74,2.85-9.74,7.89c0,4.54,2.8,6.74,7.65,7.14l4.13,0.35
					c2.5,0.2,3.47,1.33,3.47,3.06c0,2.45-2.5,3.57-5.66,3.57c-2.55,0-5.36-0.56-7.44-2.7l-3.42,3.41c3.06,3.01,6.63,3.72,10.86,3.72
					C577.45,506.78,582.04,503.97,582.04,498.57 M549.21,497.14c0,1.84-0.36,3.06-1.12,3.83c-1.38,1.33-2.86,1.48-4.85,1.48
					c-3.27,0-4.74-1.33-4.74-3.68c0-2.35,1.58-3.72,4.64-3.72h6.07V497.14z M554.4,506.47v-17.28c0-5.87-3.56-8.87-10.65-8.87
					c-4.29,0-6.83,0.86-9.28,3.71l3.41,3.21c1.43-1.84,2.81-2.5,5.66-2.5c4.03,0,5.66,1.58,5.66,4.85v1.84h-6.84
					c-5.91,0-8.92,3.1-8.92,7.44c0,2.19,0.71,4.18,2.04,5.56c1.58,1.58,3.72,2.34,6.93,2.34c3.21,0,5-0.76,6.89-2.65v2.34H554.4z
					 M529.16,506.47v-4.43h-2.29c-2.09,0-2.81-1.02-2.81-3.01v-28.86h-5.19v29.16c0,3.82,2.14,7.13,7.08,7.13H529.16z
					 M513.87,506.47l-13-22.07l11.77-14.22h-6.73l-14.83,18.25v-18.25h-5.5v36.29h5.5v-10.55l6.12-7.34l10.2,17.89H513.87z
					 M468.25,466.4h-5l-14.53,43.84h5L468.25,466.4z M430.47,472.66h-5.26v33.81h5.26V472.66z M415.23,472.66h-5.26v27.86h-8.48
					v5.96h13.74V472.66z M397.57,502.72v-14.71c0-1.86-0.28-3.32-0.83-4.37c-0.55-1.05-1.49-1.8-2.79-2.25
					c-1.3-0.45-3.1-0.67-5.39-0.67c-2.83,0-5.41,0.39-7.75,1.15c-2.35,0.77-4.34,1.88-5.98,3.33c-1.65,1.44-2.86,3.19-3.65,5.23
					v-9.17h-5.26v21.47h5.26c0-5.44,1.25-9.47,3.73-12.11c2.48-2.63,6.25-3.94,11.3-3.94c2.83,0,4.87,0.2,6.12,0.59v15.46H397.57z
					 M357.43,506.48h46.21v-5.96h-46.21V506.48z M344.74,474.28c0.52-0.4,0.98-0.85,1.37-1.37c0.39-0.52,0.59-0.97,0.59-1.37
					c0-0.42-0.2-0.9-0.59-1.42c-0.39-0.52-0.84-0.97-1.34-1.34s-0.97-0.56-1.4-0.56c-0.43,0-0.9,0.19-1.42,0.56
					s-0.97,0.83-1.34,1.34c-0.38,0.52-0.56,1-0.56,1.42c0,0.4,0.19,0.86,0.56,1.4c0.38,0.53,0.83,0.99,1.37,1.36
					c0.54,0.38,1,0.57,1.4,0.57C343.76,474.87,344.22,474.67,344.74,474.28 M335.64,500.52v-11.06c0-1.08,0.17-1.8,0.51-2.17
					c0.34-0.38,0.96-0.57,1.85-0.57h10.25v11.27c0,0.97-0.18,1.63-0.54,1.99c-0.36,0.36-0.98,0.54-1.88,0.54H335.64z M353.51,506.48
					v-24.05c-2.11-0.64-4.04-1.09-5.8-1.37c-1.75-0.27-3.69-0.4-5.8-0.4c-2.32,0-4.26,0.19-5.8,0.59c-1.54,0.39-2.75,1.01-3.65,1.87
					c-0.9,0.86-1.53,2.01-1.91,3.46c-0.38,1.45-0.56,3.27-0.56,5.45c0,2.04,0.05,3.71,0.16,4.99c0.11,1.29,0.28,2.45,0.54,3.49
					h-15.89c-0.28-0.93-0.49-1.92-0.62-2.96c-0.12-1.04-0.19-2.23-0.19-3.6c0-1.18,0.11-2.42,0.32-3.73
					c0.21-1.3,0.54-2.66,0.97-4.05l-5.04-0.81c-0.47,1.33-0.84,2.87-1.13,4.64c-0.28,1.78-0.43,3.5-0.43,5.18
					c0,2.72,0.27,4.91,0.8,6.55c0.54,1.65,1.4,2.84,2.58,3.6c1.18,0.75,2.72,1.13,4.62,1.13H353.51z M353.51,506.48h6.06v-5.96
					h-6.06V506.48z M283.96,480.83c0,3.93-2.3,6.27-5.56,6.27c-3.47,0-5.51-2.7-5.51-6.27c0-3.87,2.24-6.33,5.51-6.33
					S283.96,476.95,283.96,480.83 M289.15,480.73c0-6.73-4.48-10.86-10.75-10.86s-10.7,4.38-10.7,11.06c0,6.38,4.22,10.5,9.48,10.5
					c1.12,0,2.3-0.15,3.26-0.56l-7.8,15.6h5.56l8.26-16.82C288.03,486.49,289.15,483.68,289.15,480.73"/>
			</g>
		</g>
		<g style="clip-path:url(#SVGID_00000139258334563683066670000002507460587087693737_);">
			<g>
				<path class="st3" d="M697.67,381.94c0,3.52-1.99,5.92-5.31,5.92c-3.32,0-5.25-2.4-5.25-5.92v-15.8c0-3.52,1.94-5.91,5.25-5.91
					c3.32,0,5.31,2.39,5.31,5.91V381.94z M702.87,382.09v-16.12c0-6.47-4.74-10.4-10.5-10.4s-10.45,3.92-10.45,10.4v16.12
					c0,6.48,4.69,10.4,10.45,10.4S702.87,388.57,702.87,382.09 M669.22,392.18v-36.29h-5.2l-7.08,6.12v5.76l7.08-6.21v30.63H669.22z
					 M629.96,377.15h-11.62c0.05-1.58,0.16-2.35,0.67-3.52c0.82-1.94,2.7-3.27,5.15-3.27s4.28,1.33,5.1,3.27
					C629.76,374.8,629.91,375.57,629.96,377.15 M635.11,380.76v-2.29c0-7.34-4.03-12.43-10.96-12.43c-6.63,0-10.95,4.84-10.95,13.2
					c0,9.84,5.14,13.26,11.62,13.26c4.53,0,7.04-1.37,9.69-4.02l-3.32-3.11c-1.84,1.84-3.36,2.65-6.27,2.65
					c-4.23,0-6.58-2.81-6.58-7.25H635.11z M607.68,384.28c0-4.59-2.86-6.89-7.7-7.29l-4.08-0.35c-2.75-0.26-3.57-1.43-3.57-2.96
					c0-1.94,1.58-3.32,4.69-3.32c2.45,0,4.74,0.51,6.37,1.89l3.26-3.32c-2.39-2.09-5.71-2.9-9.58-2.9c-5.4,0-9.74,2.85-9.74,7.89
					c0,4.54,2.8,6.74,7.65,7.14l4.13,0.35c2.5,0.2,3.47,1.33,3.47,3.06c0,2.45-2.5,3.57-5.66,3.57c-2.55,0-5.36-0.56-7.44-2.7
					l-3.42,3.41c3.06,3.01,6.63,3.72,10.86,3.72C603.09,392.49,607.68,389.69,607.68,384.28 M582.04,384.28
					c0-4.59-2.86-6.89-7.7-7.29l-4.08-0.35c-2.75-0.26-3.57-1.43-3.57-2.96c0-1.94,1.58-3.32,4.69-3.32c2.45,0,4.74,0.51,6.38,1.89
					l3.26-3.32c-2.4-2.09-5.71-2.9-9.58-2.9c-5.4,0-9.74,2.85-9.74,7.89c0,4.54,2.81,6.74,7.65,7.14l4.13,0.35
					c2.5,0.2,3.47,1.33,3.47,3.06c0,2.45-2.5,3.57-5.66,3.57c-2.55,0-5.35-0.56-7.44-2.7l-3.41,3.41c3.06,3.01,6.63,3.72,10.86,3.72
					C577.45,392.49,582.04,389.69,582.04,384.28 M549.21,382.85c0,1.84-0.35,3.06-1.12,3.83c-1.37,1.33-2.86,1.48-4.85,1.48
					c-3.26,0-4.74-1.33-4.74-3.68c0-2.35,1.58-3.72,4.64-3.72h6.07V382.85z M554.4,392.18V374.9c0-5.87-3.56-8.87-10.65-8.87
					c-4.28,0-6.83,0.86-9.27,3.71l3.41,3.21c1.43-1.84,2.81-2.5,5.66-2.5c4.03,0,5.66,1.58,5.66,4.85v1.84h-6.83
					c-5.91,0-8.92,3.1-8.92,7.44c0,2.19,0.71,4.19,2.03,5.56c1.58,1.58,3.72,2.34,6.93,2.34c3.21,0,5-0.76,6.89-2.65v2.34H554.4z
					 M529.17,392.18v-4.43h-2.3c-2.09,0-2.8-1.02-2.8-3.01v-28.86h-5.19v29.16c0,3.82,2.14,7.13,7.08,7.13H529.17z M513.87,392.18
					l-13-22.07l11.78-14.22h-6.73l-14.84,18.25v-18.25h-5.5v36.29h5.5v-10.55l6.12-7.34l10.2,17.89H513.87z M468.25,352.11h-5
					l-14.53,43.84h5L468.25,352.11z M430.47,358.38h-5.26v33.81h5.26V358.38z M415.23,358.38h-5.26v27.85h-8.48v5.96h13.74V358.38z
					 M397.57,388.43v-14.7c0-1.86-0.27-3.32-0.83-4.37c-0.55-1.06-1.48-1.81-2.79-2.25c-1.3-0.45-3.1-0.67-5.39-0.67
					c-2.82,0-5.41,0.38-7.75,1.15c-2.34,0.77-4.34,1.88-5.98,3.33c-1.64,1.45-2.86,3.19-3.65,5.23v-9.18h-5.26v21.47h5.26
					c0-5.44,1.25-9.47,3.73-12.1c2.49-2.63,6.25-3.94,11.3-3.94c2.83,0,4.87,0.19,6.12,0.59v15.46H397.57z M357.43,392.19h46.21
					v-5.96h-46.21V392.19z M344.74,359.99c0.52-0.4,0.98-0.85,1.37-1.37c0.4-0.52,0.59-0.98,0.59-1.37c0-0.43-0.19-0.91-0.59-1.42
					c-0.39-0.52-0.84-0.97-1.34-1.34c-0.5-0.38-0.97-0.56-1.4-0.56c-0.43,0-0.9,0.19-1.42,0.56c-0.52,0.38-0.97,0.82-1.34,1.34
					c-0.38,0.52-0.56,0.99-0.56,1.42c0,0.39,0.19,0.86,0.56,1.4s0.83,0.99,1.37,1.37s1,0.56,1.4,0.56
					C343.77,360.58,344.22,360.38,344.74,359.99 M335.64,386.23v-11.06c0-1.07,0.17-1.8,0.51-2.17c0.34-0.38,0.96-0.56,1.85-0.56
					h10.25v11.27c0,0.97-0.18,1.63-0.54,1.99c-0.35,0.35-0.98,0.54-1.88,0.54H335.64z M353.51,392.19v-24.04
					c-2.11-0.64-4.04-1.1-5.8-1.37c-1.75-0.27-3.68-0.4-5.8-0.4c-2.32,0-4.26,0.19-5.8,0.59c-1.53,0.39-2.75,1.02-3.65,1.88
					c-0.89,0.86-1.53,2.01-1.91,3.46c-0.38,1.45-0.56,3.26-0.56,5.45c0,2.04,0.05,3.7,0.16,4.99c0.11,1.29,0.29,2.45,0.54,3.49
					h-15.89c-0.28-0.93-0.49-1.92-0.62-2.95c-0.12-1.04-0.19-2.24-0.19-3.6c0-1.18,0.11-2.43,0.32-3.73
					c0.21-1.31,0.54-2.66,0.97-4.05l-5.04-0.81c-0.46,1.32-0.84,2.87-1.13,4.64c-0.28,1.77-0.43,3.49-0.43,5.18
					c0,2.72,0.27,4.9,0.8,6.55c0.54,1.64,1.4,2.84,2.58,3.6c1.18,0.75,2.72,1.13,4.62,1.13H353.51z M353.51,392.19h6.06v-5.96h-6.06
					V392.19z M283.7,381.94c0,3.52-1.99,5.92-5.3,5.92c-3.32,0-5.26-2.4-5.26-5.92v-15.8c0-3.52,1.94-5.91,5.26-5.91
					c3.31,0,5.3,2.39,5.3,5.91V381.94z M288.9,382.09v-16.12c0-6.47-4.74-10.4-10.5-10.4c-5.76,0-10.45,3.92-10.45,10.4v16.12
					c0,6.48,4.69,10.4,10.45,10.4C284.16,392.49,288.9,388.57,288.9,382.09 M255.25,392.18v-36.29h-5.19l-7.08,6.12v5.76l7.08-6.21
					v30.63H255.25z"/>
			</g>
		</g>
		<g style="clip-path:url(#SVGID_00000139258334563683066670000002507460587087693737_);">
			<g>
				<path class="st3" d="M696.9,290.94v-36.29h-5.19l-7.08,6.12v5.76l7.08-6.21v30.63H696.9z M669.22,290.94v-36.29h-5.2l-7.08,6.12
					v5.76l7.08-6.21v30.63H669.22z M629.96,275.91h-11.62c0.05-1.58,0.16-2.35,0.67-3.52c0.82-1.94,2.7-3.27,5.15-3.27
					s4.28,1.33,5.1,3.27C629.76,273.56,629.91,274.33,629.96,275.91 M635.11,279.52v-2.29c0-7.34-4.03-12.43-10.96-12.43
					c-6.63,0-10.95,4.84-10.95,13.2c0,9.84,5.14,13.26,11.62,13.26c4.53,0,7.04-1.37,9.69-4.02l-3.32-3.11
					c-1.84,1.84-3.36,2.65-6.27,2.65c-4.23,0-6.58-2.81-6.58-7.25H635.11z M607.68,283.04c0-4.59-2.86-6.89-7.7-7.29l-4.08-0.35
					c-2.75-0.26-3.57-1.43-3.57-2.96c0-1.94,1.58-3.32,4.69-3.32c2.45,0,4.74,0.51,6.37,1.89l3.26-3.32
					c-2.39-2.09-5.71-2.9-9.58-2.9c-5.4,0-9.74,2.85-9.74,7.89c0,4.54,2.8,6.74,7.65,7.14l4.13,0.35c2.5,0.2,3.47,1.33,3.47,3.06
					c0,2.45-2.5,3.57-5.66,3.57c-2.55,0-5.36-0.56-7.44-2.7l-3.42,3.42c3.06,3,6.63,3.71,10.86,3.71
					C603.09,291.25,607.68,288.45,607.68,283.04 M582.04,283.04c0-4.59-2.86-6.89-7.7-7.29l-4.08-0.35
					c-2.75-0.26-3.57-1.43-3.57-2.96c0-1.94,1.58-3.32,4.69-3.32c2.45,0,4.74,0.51,6.38,1.89l3.26-3.32c-2.4-2.09-5.71-2.9-9.58-2.9
					c-5.4,0-9.74,2.85-9.74,7.89c0,4.54,2.81,6.74,7.65,7.14l4.13,0.35c2.5,0.2,3.47,1.33,3.47,3.06c0,2.45-2.5,3.57-5.66,3.57
					c-2.55,0-5.35-0.56-7.44-2.7l-3.41,3.42c3.06,3,6.63,3.71,10.86,3.71C577.45,291.25,582.04,288.45,582.04,283.04 M549.21,281.62
					c0,1.84-0.35,3.06-1.12,3.83c-1.37,1.33-2.86,1.48-4.85,1.48c-3.26,0-4.74-1.33-4.74-3.68c0-2.35,1.58-3.72,4.64-3.72h6.07
					V281.62z M554.4,290.94v-17.28c0-5.87-3.56-8.87-10.65-8.87c-4.28,0-6.83,0.86-9.27,3.71l3.41,3.21c1.43-1.84,2.81-2.5,5.66-2.5
					c4.03,0,5.66,1.58,5.66,4.85v1.84h-6.83c-5.91,0-8.92,3.1-8.92,7.44c0,2.19,0.71,4.19,2.03,5.56c1.58,1.58,3.72,2.34,6.93,2.34
					c3.21,0,5-0.76,6.89-2.65v2.34H554.4z M529.17,290.94v-4.43h-2.3c-2.09,0-2.8-1.02-2.8-3.01v-28.86h-5.19v29.16
					c0,3.82,2.14,7.13,7.08,7.13H529.17z M513.87,290.94l-13-22.07l11.78-14.22h-6.73l-14.84,18.25v-18.25h-5.5v36.29h5.5v-10.55
					l6.12-7.34l10.2,17.89H513.87z M468.25,250.88h-5l-14.53,43.84h5L468.25,250.88z M430.47,257.14h-5.26v33.81h5.26V257.14z
					 M415.23,257.14h-5.26v27.85h-8.48v5.96h13.74V257.14z M397.57,287.19v-14.7c0-1.86-0.27-3.32-0.83-4.37
					c-0.55-1.06-1.48-1.81-2.79-2.25c-1.3-0.45-3.1-0.67-5.39-0.67c-2.82,0-5.41,0.38-7.75,1.15c-2.34,0.77-4.34,1.88-5.98,3.33
					c-1.64,1.45-2.86,3.19-3.65,5.23v-9.18h-5.26v21.47h5.26c0-5.44,1.25-9.47,3.73-12.1c2.49-2.63,6.25-3.94,11.3-3.94
					c2.83,0,4.87,0.19,6.12,0.59v15.46H397.57z M357.43,290.95h46.21v-5.96h-46.21V290.95z M344.74,258.75
					c0.52-0.4,0.98-0.85,1.37-1.37c0.4-0.52,0.59-0.98,0.59-1.37c0-0.43-0.19-0.91-0.59-1.42c-0.39-0.52-0.84-0.97-1.34-1.34
					c-0.5-0.38-0.97-0.56-1.4-0.56c-0.43,0-0.9,0.19-1.42,0.56c-0.52,0.38-0.97,0.82-1.34,1.34c-0.38,0.52-0.56,0.99-0.56,1.42
					c0,0.39,0.19,0.86,0.56,1.4c0.38,0.54,0.83,0.99,1.37,1.37c0.54,0.38,1,0.56,1.4,0.56
					C343.77,259.34,344.22,259.14,344.74,258.75 M335.64,284.99v-11.06c0-1.07,0.17-1.8,0.51-2.17c0.34-0.38,0.96-0.56,1.85-0.56
					h10.25v11.27c0,0.97-0.18,1.63-0.54,1.99c-0.35,0.35-0.98,0.54-1.88,0.54H335.64z M353.51,290.95v-24.04
					c-2.11-0.64-4.04-1.1-5.8-1.37c-1.75-0.27-3.68-0.4-5.8-0.4c-2.32,0-4.26,0.19-5.8,0.59c-1.53,0.39-2.75,1.02-3.65,1.88
					c-0.89,0.86-1.53,2.01-1.91,3.46c-0.38,1.45-0.56,3.26-0.56,5.45c0,2.04,0.05,3.7,0.16,4.99c0.11,1.29,0.29,2.45,0.54,3.49
					h-15.89c-0.28-0.93-0.49-1.92-0.62-2.95c-0.12-1.04-0.19-2.24-0.19-3.6c0-1.18,0.11-2.43,0.32-3.73
					c0.21-1.31,0.54-2.66,0.97-4.05l-5.04-0.8c-0.46,1.32-0.84,2.87-1.13,4.64c-0.28,1.77-0.43,3.49-0.43,5.18
					c0,2.72,0.27,4.9,0.8,6.55c0.54,1.64,1.4,2.84,2.58,3.6c1.18,0.75,2.72,1.13,4.62,1.13H353.51z M353.51,290.95h6.06v-5.96h-6.06
					V290.95z M282.93,290.94v-36.29h-5.19l-7.09,6.12v5.76l7.09-6.21v30.63H282.93z M255.25,290.94v-36.29h-5.19l-7.08,6.12v5.76
					l7.08-6.21v30.63H255.25z"/>
			</g>
		</g>
		<g style="clip-path:url(#SVGID_00000139258334563683066670000002507460587087693737_);">
			<g>
				<path class="st3" d="M703.12,193.46v-4.63h-14.78l11.37-13.92c2.24-2.76,3.41-4.64,3.41-7.86c0-6.27-4.28-10.19-10.5-10.19
					c-6.17,0-10.55,4.07-10.55,10.25h5.2c0-4.08,2.6-5.61,5.35-5.61c3.36,0,5.3,2.24,5.3,5.51c0,1.84-0.56,3.16-1.94,4.84
					l-13.97,16.99v4.63H703.12z M669.22,193.46v-36.29h-5.2l-7.08,6.12v5.76l7.08-6.21v30.63H669.22z M629.96,178.43h-11.62
					c0.05-1.58,0.16-2.35,0.67-3.52c0.82-1.94,2.7-3.27,5.15-3.27s4.28,1.33,5.1,3.27C629.76,176.08,629.91,176.84,629.96,178.43
					 M635.11,182.04v-2.29c0-7.34-4.03-12.43-10.96-12.43c-6.63,0-10.95,4.84-10.95,13.2c0,9.84,5.14,13.26,11.62,13.26
					c4.53,0,7.04-1.37,9.69-4.02l-3.32-3.11c-1.84,1.84-3.36,2.65-6.27,2.65c-4.23,0-6.58-2.81-6.58-7.25H635.11z M607.68,185.56
					c0-4.59-2.86-6.89-7.7-7.29l-4.08-0.35c-2.75-0.26-3.57-1.43-3.57-2.96c0-1.94,1.58-3.32,4.69-3.32c2.45,0,4.74,0.51,6.37,1.89
					l3.26-3.32c-2.39-2.09-5.71-2.9-9.58-2.9c-5.4,0-9.74,2.85-9.74,7.89c0,4.54,2.8,6.74,7.65,7.14l4.13,0.35
					c2.5,0.2,3.47,1.33,3.47,3.06c0,2.45-2.5,3.57-5.66,3.57c-2.55,0-5.36-0.56-7.44-2.7l-3.42,3.42c3.06,3,6.63,3.71,10.86,3.71
					C603.09,193.77,607.68,190.96,607.68,185.56 M582.04,185.56c0-4.59-2.86-6.89-7.7-7.29l-4.08-0.35
					c-2.75-0.26-3.57-1.43-3.57-2.96c0-1.94,1.58-3.32,4.69-3.32c2.45,0,4.74,0.51,6.38,1.89l3.26-3.32c-2.4-2.09-5.71-2.9-9.58-2.9
					c-5.4,0-9.74,2.85-9.74,7.89c0,4.54,2.81,6.74,7.65,7.14l4.13,0.35c2.5,0.2,3.47,1.33,3.47,3.06c0,2.45-2.5,3.57-5.66,3.57
					c-2.55,0-5.35-0.56-7.44-2.7l-3.41,3.42c3.06,3,6.63,3.71,10.86,3.71C577.45,193.77,582.04,190.96,582.04,185.56 M549.21,184.13
					c0,1.84-0.35,3.06-1.12,3.83c-1.37,1.33-2.86,1.48-4.85,1.48c-3.26,0-4.74-1.33-4.74-3.68c0-2.35,1.58-3.72,4.64-3.72h6.07
					V184.13z M554.4,193.46v-17.28c0-5.87-3.56-8.87-10.65-8.87c-4.28,0-6.83,0.86-9.27,3.71l3.41,3.21c1.43-1.84,2.81-2.5,5.66-2.5
					c4.03,0,5.66,1.58,5.66,4.85v1.84h-6.83c-5.91,0-8.92,3.1-8.92,7.44c0,2.19,0.71,4.19,2.03,5.56c1.58,1.58,3.72,2.34,6.93,2.34
					c3.21,0,5-0.76,6.89-2.65v2.34H554.4z M529.17,193.46v-4.43h-2.3c-2.09,0-2.8-1.02-2.8-3.01v-28.86h-5.19v29.16
					c0,3.82,2.14,7.13,7.08,7.13H529.17z M513.87,193.46l-13-22.07l11.78-14.22h-6.73l-14.84,18.25v-18.25h-5.5v36.29h5.5v-10.55
					l6.12-7.34l10.2,17.89H513.87z M468.25,153.39h-5l-14.53,43.84h5L468.25,153.39z M430.47,159.65h-5.26v33.81h5.26V159.65z
					 M415.23,159.65h-5.26v27.85h-8.48v5.96h13.74V159.65z M397.57,189.71V175c0-1.86-0.27-3.32-0.83-4.37
					c-0.55-1.06-1.48-1.81-2.79-2.25c-1.3-0.45-3.1-0.67-5.39-0.67c-2.82,0-5.41,0.38-7.75,1.15c-2.34,0.77-4.34,1.88-5.98,3.33
					c-1.64,1.45-2.86,3.19-3.65,5.23v-9.18h-5.26v21.47h5.26c0-5.44,1.25-9.47,3.73-12.1c2.49-2.63,6.25-3.94,11.3-3.94
					c2.83,0,4.87,0.19,6.12,0.59v15.46H397.57z M357.43,193.47h46.21v-5.96h-46.21V193.47z M344.74,161.26
					c0.52-0.4,0.98-0.85,1.37-1.37c0.4-0.52,0.59-0.98,0.59-1.37c0-0.43-0.19-0.91-0.59-1.42c-0.39-0.52-0.84-0.97-1.34-1.34
					c-0.5-0.38-0.97-0.56-1.4-0.56c-0.43,0-0.9,0.19-1.42,0.56c-0.52,0.38-0.97,0.82-1.34,1.34c-0.38,0.52-0.56,0.99-0.56,1.42
					c0,0.39,0.19,0.86,0.56,1.4c0.38,0.54,0.83,0.99,1.37,1.37c0.54,0.38,1,0.56,1.4,0.56
					C343.77,161.86,344.22,161.66,344.74,161.26 M335.64,187.51v-11.06c0-1.07,0.17-1.8,0.51-2.17c0.34-0.38,0.96-0.56,1.85-0.56
					h10.25v11.27c0,0.97-0.18,1.63-0.54,1.99c-0.35,0.35-0.98,0.54-1.88,0.54H335.64z M353.51,193.47v-24.04
					c-2.11-0.64-4.04-1.1-5.8-1.37c-1.75-0.27-3.68-0.4-5.8-0.4c-2.32,0-4.26,0.19-5.8,0.59c-1.53,0.39-2.75,1.02-3.65,1.88
					c-0.89,0.86-1.53,2.01-1.91,3.46c-0.38,1.45-0.56,3.26-0.56,5.45c0,2.04,0.05,3.7,0.16,4.99c0.11,1.29,0.29,2.45,0.54,3.49
					h-15.89c-0.28-0.93-0.49-1.92-0.62-2.95c-0.12-1.04-0.19-2.24-0.19-3.6c0-1.18,0.11-2.43,0.32-3.73
					c0.21-1.31,0.54-2.66,0.97-4.05l-5.04-0.8c-0.46,1.32-0.84,2.87-1.13,4.64c-0.28,1.77-0.43,3.49-0.43,5.18
					c0,2.72,0.27,4.9,0.8,6.55c0.54,1.64,1.4,2.84,2.58,3.6c1.18,0.75,2.72,1.13,4.62,1.13H353.51z M353.51,193.47h6.06v-5.96h-6.06
					V193.47z M289.15,193.46v-4.63h-14.77l11.37-13.92c2.24-2.76,3.41-4.64,3.41-7.86c0-6.27-4.28-10.19-10.49-10.19
					c-6.17,0-10.56,4.07-10.56,10.25h5.2c0-4.08,2.6-5.61,5.36-5.61c3.36,0,5.3,2.24,5.3,5.51c0,1.84-0.56,3.16-1.94,4.84
					l-13.97,16.99v4.63H289.15z M255.25,193.46v-36.29h-5.19l-7.08,6.12v5.76l7.08-6.21v30.63H255.25z"/>
			</g>
		</g>
		<g style="clip-path:url(#SVGID_00000139258334563683066670000002507460587087693737_);">
			<g>
				<path class="st3" d="M670.09,587.15c0,3.21-2.25,5.51-5.41,5.51s-5.36-2.3-5.36-5.51c0-3.16,2.2-5.56,5.36-5.56
					S670.09,583.99,670.09,587.15 M670.65,603.21c0,3.36-2.6,6.02-5.97,6.02c-3.36,0-5.97-2.66-5.97-6.02c0-3.36,2.6-6.07,5.97-6.07
					C668.05,597.14,670.65,599.84,670.65,603.21 M675.89,603.31c0-4.34-2.44-6.99-4.99-8.51c2.34-1.43,4.38-3.98,4.38-7.8
					c0-6.07-4.69-10.04-10.6-10.04c-5.91,0-10.55,3.97-10.55,10.04c0,3.83,2.04,6.38,4.38,7.8c-2.54,1.52-4.99,4.18-4.99,8.51
					c0,6.58,4.94,10.55,11.16,10.55C670.91,613.86,675.89,609.89,675.89,603.31 M629.96,598.52h-11.62
					c0.05-1.58,0.16-2.35,0.67-3.53c0.82-1.94,2.7-3.26,5.15-3.26c2.45,0,4.28,1.33,5.1,3.26
					C629.76,596.17,629.91,596.94,629.96,598.52 M635.11,602.14v-2.29c0-7.34-4.03-12.43-10.96-12.43c-6.63,0-10.95,4.84-10.95,13.2
					c0,9.84,5.14,13.26,11.62,13.26c4.53,0,7.04-1.37,9.69-4.03l-3.32-3.11c-1.84,1.84-3.36,2.65-6.27,2.65
					c-4.23,0-6.58-2.81-6.58-7.24H635.11z M607.68,605.66c0-4.59-2.86-6.89-7.7-7.29l-4.08-0.35c-2.75-0.26-3.57-1.43-3.57-2.96
					c0-1.94,1.58-3.32,4.69-3.32c2.45,0,4.74,0.51,6.37,1.89l3.26-3.32c-2.39-2.09-5.71-2.9-9.58-2.9c-5.4,0-9.74,2.85-9.74,7.89
					c0,4.54,2.8,6.74,7.65,7.14l4.13,0.35c2.5,0.2,3.47,1.33,3.47,3.06c0,2.45-2.5,3.57-5.66,3.57c-2.55,0-5.36-0.56-7.44-2.7
					l-3.42,3.41c3.06,3.01,6.63,3.72,10.86,3.72C603.09,613.86,607.68,611.06,607.68,605.66 M582.04,605.66
					c0-4.59-2.86-6.89-7.7-7.29l-4.08-0.35c-2.75-0.26-3.57-1.43-3.57-2.96c0-1.94,1.58-3.32,4.69-3.32c2.45,0,4.74,0.51,6.38,1.89
					l3.26-3.32c-2.4-2.09-5.71-2.9-9.58-2.9c-5.4,0-9.74,2.85-9.74,7.89c0,4.54,2.81,6.74,7.65,7.14l4.13,0.35
					c2.5,0.2,3.47,1.33,3.47,3.06c0,2.45-2.5,3.57-5.66,3.57c-2.55,0-5.35-0.56-7.44-2.7l-3.41,3.41c3.06,3.01,6.63,3.72,10.86,3.72
					C577.45,613.86,582.04,611.06,582.04,605.66 M549.21,604.23c0,1.84-0.35,3.06-1.12,3.83c-1.37,1.33-2.86,1.48-4.85,1.48
					c-3.26,0-4.74-1.33-4.74-3.68s1.58-3.72,4.64-3.72h6.07V604.23z M554.4,613.56v-17.28c0-5.87-3.56-8.87-10.65-8.87
					c-4.28,0-6.83,0.86-9.27,3.71l3.41,3.21c1.43-1.84,2.81-2.5,5.66-2.5c4.03,0,5.66,1.58,5.66,4.85v1.84h-6.83
					c-5.91,0-8.92,3.1-8.92,7.44c0,2.19,0.71,4.18,2.03,5.56c1.58,1.58,3.72,2.34,6.93,2.34s5-0.76,6.89-2.65v2.34H554.4z
					 M529.17,613.56v-4.43h-2.3c-2.09,0-2.8-1.02-2.8-3.01v-28.86h-5.2v29.16c0,3.82,2.14,7.13,7.08,7.13H529.17z M513.87,613.56
					l-13-22.07l11.78-14.22h-6.73l-14.84,18.25v-18.25h-5.5v36.29h5.5v-10.55l6.12-7.34l10.2,17.89H513.87z M468.24,573.49h-5
					l-14.53,43.84h5L468.24,573.49z M430.47,579.75h-5.26v33.81h5.26V579.75z M415.23,579.75h-5.26v27.85h-8.48v5.96h13.74V579.75z
					 M397.57,609.8v-14.71c0-1.86-0.27-3.32-0.83-4.37c-0.55-1.05-1.48-1.8-2.79-2.25c-1.3-0.45-3.1-0.67-5.39-0.67
					c-2.82,0-5.41,0.39-7.75,1.15c-2.34,0.77-4.34,1.88-5.98,3.33c-1.64,1.44-2.86,3.19-3.65,5.23v-9.17h-5.26v21.47h5.26
					c0-5.44,1.25-9.47,3.73-12.11c2.49-2.63,6.25-3.94,11.3-3.94c2.83,0,4.87,0.2,6.12,0.59v15.46H397.57z M357.43,613.56h46.21
					v-5.96h-46.21V613.56z M344.74,581.36c0.52-0.4,0.98-0.85,1.37-1.37c0.4-0.52,0.59-0.97,0.59-1.37c0-0.42-0.19-0.9-0.59-1.42
					c-0.39-0.52-0.84-0.97-1.34-1.34c-0.5-0.38-0.97-0.56-1.4-0.56s-0.9,0.19-1.42,0.56c-0.52,0.38-0.97,0.83-1.34,1.34
					c-0.38,0.52-0.56,1-0.56,1.42c0,0.4,0.19,0.86,0.56,1.4c0.38,0.53,0.83,0.99,1.37,1.36c0.54,0.38,1,0.57,1.4,0.57
					C343.76,581.95,344.22,581.75,344.74,581.36 M335.64,607.6v-11.05c0-1.08,0.17-1.8,0.51-2.17c0.34-0.38,0.96-0.57,1.85-0.57
					h10.25v11.27c0,0.97-0.18,1.63-0.54,1.99c-0.35,0.36-0.98,0.54-1.88,0.54H335.64z M353.51,613.56v-24.05
					c-2.11-0.64-4.04-1.09-5.8-1.37c-1.75-0.27-3.68-0.4-5.8-0.4c-2.32,0-4.26,0.19-5.8,0.59c-1.53,0.39-2.75,1.01-3.65,1.87
					c-0.89,0.86-1.53,2.01-1.91,3.46c-0.38,1.45-0.56,3.27-0.56,5.45c0,2.04,0.05,3.71,0.16,4.99c0.11,1.29,0.29,2.45,0.54,3.49
					h-15.89c-0.28-0.93-0.49-1.91-0.62-2.95c-0.12-1.04-0.19-2.23-0.19-3.6c0-1.18,0.11-2.42,0.32-3.73
					c0.21-1.3,0.54-2.66,0.97-4.05l-5.04-0.81c-0.46,1.33-0.84,2.87-1.13,4.64c-0.28,1.77-0.43,3.5-0.43,5.18
					c0,2.72,0.27,4.91,0.81,6.55c0.54,1.65,1.4,2.84,2.58,3.6c1.18,0.75,2.72,1.13,4.62,1.13H353.51z M353.51,613.56h6.06v-5.96
					h-6.06V613.56z M283.8,587.15c0,3.21-2.24,5.51-5.4,5.51c-3.17,0-5.36-2.3-5.36-5.51c0-3.16,2.19-5.56,5.36-5.56
					C281.56,581.59,283.8,583.99,283.8,587.15 M284.37,603.21c0,3.36-2.6,6.02-5.97,6.02c-3.37,0-5.97-2.66-5.97-6.02
					c0-3.36,2.6-6.07,5.97-6.07C281.76,597.14,284.37,599.84,284.37,603.21 M289.61,603.31c0-4.34-2.44-6.99-4.99-8.51
					c2.35-1.43,4.38-3.98,4.38-7.8c0-6.07-4.69-10.04-10.6-10.04c-5.92,0-10.55,3.97-10.55,10.04c0,3.83,2.03,6.38,4.38,7.8
					c-2.55,1.52-4.99,4.18-4.99,8.51c0,6.58,4.94,10.55,11.16,10.55C284.62,613.86,289.61,609.89,289.61,603.31"/>
			</g>
		</g>
		<g style="clip-path:url(#SVGID_00000139258334563683066670000002507460587087693737_);">
			<g>
				<path class="st3" d="M670.24,831.81c0,3.87-2.3,6.33-5.56,6.33c-3.27,0-5.51-2.45-5.51-6.33c0-3.93,2.24-6.27,5.51-6.27
					C668.15,825.53,670.24,828.24,670.24,831.81 M675.43,831.71c0-6.38-4.28-10.5-9.53-10.5c-1.12,0-2.25,0.15-3.21,0.56l7.8-15.6
					h-5.56l-8.26,16.82c-1.58,3.16-2.7,5.96-2.7,8.92c0,6.73,4.48,10.86,10.75,10.86S675.43,838.39,675.43,831.71 M629.96,827.43
					h-11.62c0.05-1.58,0.15-2.35,0.66-3.53c0.82-1.94,2.7-3.26,5.15-3.26s4.28,1.33,5.1,3.26
					C629.76,825.08,629.91,825.85,629.96,827.43 M635.11,831.04v-2.29c0-7.34-4.03-12.43-10.96-12.43c-6.63,0-10.96,4.84-10.96,13.2
					c0,9.84,5.15,13.26,11.62,13.26c4.54,0,7.04-1.37,9.69-4.03l-3.31-3.11c-1.84,1.84-3.36,2.65-6.27,2.65
					c-4.23,0-6.57-2.81-6.57-7.24H635.11z M607.68,834.56c0-4.59-2.86-6.89-7.7-7.29l-4.08-0.35c-2.75-0.26-3.57-1.43-3.57-2.96
					c0-1.94,1.58-3.32,4.69-3.32c2.45,0,4.74,0.51,6.38,1.89l3.26-3.32c-2.4-2.09-5.71-2.9-9.58-2.9c-5.4,0-9.74,2.85-9.74,7.89
					c0,4.54,2.81,6.74,7.65,7.14l4.13,0.35c2.5,0.2,3.47,1.33,3.47,3.06c0,2.45-2.5,3.57-5.66,3.57c-2.55,0-5.35-0.56-7.44-2.7
					l-3.41,3.41c3.06,3.01,6.63,3.72,10.86,3.72C603.1,842.77,607.68,839.97,607.68,834.56 M582.04,834.56
					c0-4.59-2.86-6.89-7.7-7.29l-4.08-0.35c-2.75-0.26-3.57-1.43-3.57-2.96c0-1.94,1.58-3.32,4.69-3.32c2.45,0,4.74,0.51,6.37,1.89
					l3.26-3.32c-2.39-2.09-5.71-2.9-9.58-2.9c-5.4,0-9.74,2.85-9.74,7.89c0,4.54,2.8,6.74,7.65,7.14l4.13,0.35
					c2.5,0.2,3.47,1.33,3.47,3.06c0,2.45-2.5,3.57-5.66,3.57c-2.55,0-5.36-0.56-7.44-2.7l-3.42,3.41c3.06,3.01,6.63,3.72,10.86,3.72
					C577.45,842.77,582.04,839.97,582.04,834.56 M549.21,833.13c0,1.84-0.36,3.06-1.12,3.83c-1.38,1.33-2.86,1.48-4.85,1.48
					c-3.27,0-4.74-1.33-4.74-3.68c0-2.35,1.58-3.72,4.64-3.72h6.07V833.13z M554.4,842.46v-17.28c0-5.87-3.56-8.87-10.65-8.87
					c-4.29,0-6.83,0.86-9.28,3.71l3.41,3.21c1.43-1.84,2.81-2.5,5.66-2.5c4.03,0,5.66,1.58,5.66,4.85v1.84h-6.84
					c-5.91,0-8.92,3.1-8.92,7.44c0,2.19,0.71,4.18,2.04,5.56c1.58,1.58,3.72,2.34,6.93,2.34c3.21,0,5-0.76,6.89-2.65v2.34H554.4z
					 M529.16,842.46v-4.43h-2.29c-2.09,0-2.81-1.02-2.81-3.01v-28.86h-5.19v29.16c0,3.82,2.14,7.13,7.08,7.13H529.16z
					 M513.87,842.46l-13-22.07l11.77-14.22h-6.73l-14.83,18.25v-18.25h-5.5v36.29h5.5v-10.55l6.12-7.34l10.2,17.89H513.87z
					 M468.25,802.39h-5l-14.53,43.84h5L468.25,802.39z M430.47,808.66h-5.26v33.81h5.26V808.66z M415.23,808.66h-5.26v27.85h-8.48
					v5.96h13.74V808.66z M397.57,838.71V824c0-1.86-0.28-3.32-0.83-4.37c-0.55-1.06-1.49-1.81-2.79-2.25
					c-1.3-0.45-3.1-0.67-5.39-0.67c-2.83,0-5.41,0.38-7.75,1.15c-2.35,0.77-4.34,1.88-5.98,3.33c-1.65,1.45-2.86,3.19-3.65,5.23
					v-9.18h-5.26v21.47h5.26c0-5.44,1.25-9.47,3.73-12.1c2.48-2.63,6.25-3.94,11.3-3.94c2.83,0,4.87,0.19,6.12,0.59v15.46H397.57z
					 M357.43,842.47h46.21v-5.96h-46.21V842.47z M344.74,810.27c0.52-0.4,0.98-0.85,1.37-1.37c0.39-0.52,0.59-0.98,0.59-1.37
					c0-0.43-0.2-0.91-0.59-1.42c-0.39-0.52-0.84-0.97-1.34-1.34s-0.97-0.56-1.4-0.56c-0.43,0-0.9,0.19-1.42,0.56
					s-0.97,0.82-1.34,1.34c-0.38,0.52-0.56,0.99-0.56,1.42c0,0.39,0.19,0.86,0.56,1.4c0.38,0.54,0.83,0.99,1.37,1.37
					c0.54,0.38,1,0.56,1.4,0.56C343.76,810.86,344.22,810.66,344.74,810.27 M335.64,836.51v-11.06c0-1.07,0.17-1.8,0.51-2.17
					s0.96-0.56,1.85-0.56h10.25v11.27c0,0.97-0.18,1.63-0.54,1.99c-0.36,0.35-0.98,0.54-1.88,0.54H335.64z M353.51,842.47v-24.04
					c-2.11-0.64-4.04-1.1-5.8-1.37c-1.75-0.27-3.69-0.4-5.8-0.4c-2.32,0-4.26,0.19-5.8,0.59c-1.54,0.39-2.75,1.02-3.65,1.88
					c-0.9,0.86-1.53,2.01-1.91,3.46c-0.38,1.45-0.56,3.26-0.56,5.45c0,2.04,0.05,3.7,0.16,4.99c0.11,1.29,0.28,2.45,0.54,3.49
					h-15.89c-0.28-0.93-0.49-1.92-0.62-2.95c-0.12-1.04-0.19-2.24-0.19-3.6c0-1.18,0.11-2.43,0.32-3.73
					c0.21-1.31,0.54-2.66,0.97-4.05l-5.04-0.8c-0.47,1.32-0.84,2.87-1.13,4.64c-0.28,1.77-0.43,3.49-0.43,5.18
					c0,2.72,0.27,4.9,0.8,6.55c0.54,1.64,1.4,2.84,2.58,3.6s2.72,1.13,4.62,1.13H353.51z M353.51,842.47h6.06v-5.96h-6.06V842.47z
					 M283.96,831.81c0,3.87-2.3,6.33-5.56,6.33s-5.51-2.45-5.51-6.33c0-3.93,2.24-6.27,5.51-6.27
					C281.86,825.53,283.96,828.24,283.96,831.81 M289.15,831.71c0-6.38-4.28-10.5-9.53-10.5c-1.12,0-2.24,0.15-3.21,0.56l7.81-15.6
					h-5.56l-8.26,16.82c-1.58,3.16-2.7,5.96-2.7,8.92c0,6.73,4.48,10.86,10.75,10.86C284.72,842.77,289.15,838.39,289.15,831.71"/>
			</g>
		</g>
		<g style="clip-path:url(#SVGID_00000139258334563683066670000002507460587087693737_);">
			<g>
				<path class="st3" d="M675.95,695.73v-4.63h-21.62v10.34h5v-5.71h11.07l-12.19,31.66h5.61L675.95,695.73z M629.96,712.36h-11.62
					c0.05-1.58,0.16-2.35,0.67-3.52c0.82-1.94,2.7-3.26,5.15-3.26s4.28,1.33,5.1,3.26C629.76,710.01,629.91,710.77,629.96,712.36
					 M635.11,715.97v-2.29c0-7.35-4.03-12.44-10.96-12.44c-6.63,0-10.95,4.84-10.95,13.2c0,9.84,5.14,13.25,11.62,13.25
					c4.53,0,7.04-1.37,9.69-4.02l-3.32-3.11c-1.84,1.84-3.36,2.66-6.27,2.66c-4.23,0-6.58-2.81-6.58-7.25H635.11z M607.68,719.49
					c0-4.59-2.86-6.89-7.7-7.29l-4.08-0.36c-2.75-0.25-3.57-1.43-3.57-2.96c0-1.94,1.58-3.31,4.69-3.31c2.45,0,4.74,0.51,6.37,1.88
					l3.26-3.31c-2.39-2.09-5.71-2.9-9.58-2.9c-5.4,0-9.74,2.85-9.74,7.9c0,4.54,2.8,6.73,7.65,7.14l4.13,0.36
					c2.5,0.2,3.47,1.33,3.47,3.06c0,2.45-2.5,3.57-5.66,3.57c-2.55,0-5.36-0.56-7.44-2.7l-3.42,3.41c3.06,3.01,6.63,3.71,10.86,3.71
					C603.09,727.69,607.68,724.9,607.68,719.49 M582.04,719.49c0-4.59-2.86-6.89-7.7-7.29l-4.08-0.36
					c-2.75-0.25-3.57-1.43-3.57-2.96c0-1.94,1.58-3.31,4.69-3.31c2.45,0,4.74,0.51,6.38,1.88l3.26-3.31c-2.4-2.09-5.71-2.9-9.58-2.9
					c-5.4,0-9.74,2.85-9.74,7.9c0,4.54,2.81,6.73,7.65,7.14l4.13,0.36c2.5,0.2,3.47,1.33,3.47,3.06c0,2.45-2.5,3.57-5.66,3.57
					c-2.55,0-5.35-0.56-7.44-2.7l-3.41,3.41c3.06,3.01,6.63,3.71,10.86,3.71C577.45,727.69,582.04,724.9,582.04,719.49
					 M549.21,718.06c0,1.84-0.35,3.06-1.12,3.83c-1.37,1.33-2.86,1.48-4.85,1.48c-3.26,0-4.74-1.33-4.74-3.67
					c0-2.35,1.58-3.73,4.64-3.73h6.07V718.06z M554.4,727.39v-17.28c0-5.87-3.56-8.87-10.65-8.87c-4.28,0-6.83,0.86-9.27,3.72
					l3.41,3.21c1.43-1.84,2.81-2.5,5.66-2.5c4.03,0,5.66,1.58,5.66,4.85v1.84h-6.83c-5.91,0-8.92,3.11-8.92,7.44
					c0,2.19,0.71,4.18,2.03,5.55c1.58,1.58,3.72,2.34,6.93,2.34s5-0.76,6.89-2.65v2.35H554.4z M529.17,727.39v-4.43h-2.3
					c-2.09,0-2.8-1.02-2.8-3.01V691.1h-5.2v29.16c0,3.82,2.14,7.13,7.08,7.13H529.17z M513.87,727.39l-13-22.07l11.78-14.22h-6.73
					l-14.84,18.25V691.1h-5.5v36.29h5.5v-10.56l6.12-7.34l10.2,17.89H513.87z M468.25,687.33h-5l-14.53,43.84h5L468.25,687.33z
					 M430.47,693.58h-5.26v33.81h5.26V693.58z M415.23,693.58h-5.26v27.85h-8.48v5.96h13.74V693.58z M397.57,723.64v-14.7
					c0-1.86-0.27-3.32-0.83-4.37c-0.55-1.05-1.48-1.8-2.79-2.25c-1.3-0.45-3.1-0.67-5.39-0.67c-2.82,0-5.41,0.39-7.75,1.15
					c-2.34,0.77-4.34,1.88-5.98,3.33c-1.64,1.45-2.86,3.19-3.65,5.23v-9.18h-5.26v21.47h5.26c0-5.44,1.25-9.47,3.73-12.1
					c2.49-2.63,6.25-3.94,11.3-3.94c2.83,0,4.87,0.2,6.12,0.59v15.46H397.57z M357.43,727.39h46.21v-5.96h-46.21V727.39z
					 M344.74,695.19c0.52-0.39,0.98-0.85,1.37-1.37c0.4-0.52,0.59-0.97,0.59-1.37c0-0.43-0.19-0.9-0.59-1.42
					c-0.39-0.52-0.84-0.97-1.34-1.34c-0.5-0.38-0.97-0.56-1.4-0.56s-0.9,0.19-1.42,0.56c-0.52,0.38-0.97,0.83-1.34,1.34
					c-0.38,0.52-0.56,0.99-0.56,1.42c0,0.4,0.19,0.86,0.56,1.4s0.83,0.99,1.37,1.37c0.54,0.38,1,0.56,1.4,0.56
					C343.77,695.78,344.22,695.59,344.74,695.19 M335.64,721.44v-11.06c0-1.07,0.17-1.8,0.51-2.17c0.34-0.38,0.96-0.56,1.85-0.56
					h10.25v11.27c0,0.97-0.18,1.63-0.54,1.99c-0.35,0.36-0.98,0.54-1.88,0.54H335.64z M353.51,727.39v-24.04
					c-2.11-0.64-4.04-1.1-5.8-1.37c-1.75-0.27-3.68-0.4-5.8-0.4c-2.32,0-4.26,0.2-5.8,0.59c-1.53,0.4-2.75,1.02-3.65,1.88
					c-0.89,0.86-1.53,2.01-1.91,3.46c-0.38,1.45-0.56,3.27-0.56,5.45c0,2.04,0.05,3.7,0.16,4.99c0.11,1.29,0.29,2.45,0.54,3.49
					h-15.89c-0.28-0.93-0.49-1.91-0.62-2.95c-0.12-1.04-0.19-2.23-0.19-3.6c0-1.18,0.11-2.42,0.32-3.73
					c0.21-1.3,0.54-2.66,0.97-4.05l-5.04-0.8c-0.46,1.33-0.84,2.87-1.13,4.64c-0.28,1.77-0.43,3.5-0.43,5.18
					c0,2.72,0.27,4.91,0.8,6.55c0.54,1.65,1.4,2.84,2.58,3.6c1.18,0.75,2.72,1.13,4.62,1.13H353.51z M353.51,727.39h6.06v-5.96
					h-6.06V727.39z M289.66,695.73v-4.63h-21.62v10.34h5v-5.71h11.07l-12.19,31.66h5.61L289.66,695.73z"/>
			</g>
		</g>
		<g style="clip-path:url(#SVGID_00000139258334563683066670000002507460587087693737_);">
			<g>
				<path class="st3" d="M675.54,944.16c0-3.42-0.4-6.94-3.16-9.69c-1.48-1.48-3.67-2.34-6.53-2.34c-2.65,0-4.79,0.81-6.02,2.09
					v-9.59h14.89V920h-19.57v19.82h4.73c0.56-1.78,2.2-3.26,5.15-3.26c4.18,0,5.31,3.26,5.31,7.6c0,2.45-0.2,4.85-1.74,6.38
					c-0.92,0.92-2.24,1.43-3.77,1.43c-3.26,0-4.9-1.84-5.31-5.05h-5.19c0.2,2.6,0.82,5,2.75,6.93c1.58,1.58,4.28,2.8,7.75,2.8
					c3.52,0,6.02-1.22,7.65-2.85C675.13,951.15,675.54,948.04,675.54,944.16 M629.96,941.26h-11.62c0.05-1.58,0.15-2.35,0.66-3.52
					c0.82-1.94,2.7-3.27,5.15-3.27s4.28,1.33,5.1,3.27C629.76,938.92,629.91,939.68,629.96,941.26 M635.11,944.87v-2.29
					c0-7.35-4.03-12.44-10.96-12.44c-6.63,0-10.96,4.84-10.96,13.2c0,9.84,5.15,13.25,11.62,13.25c4.54,0,7.04-1.37,9.69-4.02
					l-3.31-3.11c-1.84,1.84-3.36,2.66-6.27,2.66c-4.23,0-6.57-2.81-6.57-7.25H635.11z M607.68,948.4c0-4.59-2.86-6.89-7.7-7.29
					l-4.08-0.36c-2.75-0.25-3.57-1.43-3.57-2.96c0-1.94,1.58-3.32,4.69-3.32c2.45,0,4.74,0.51,6.38,1.89l3.26-3.31
					c-2.4-2.09-5.71-2.9-9.58-2.9c-5.4,0-9.74,2.85-9.74,7.9c0,4.53,2.81,6.73,7.65,7.14l4.13,0.36c2.5,0.2,3.47,1.33,3.47,3.06
					c0,2.45-2.5,3.57-5.66,3.57c-2.55,0-5.35-0.56-7.44-2.7l-3.41,3.42c3.06,3.01,6.63,3.71,10.86,3.71
					C603.1,956.6,607.68,953.8,607.68,948.4 M582.04,948.4c0-4.59-2.86-6.89-7.7-7.29l-4.08-0.36c-2.75-0.25-3.57-1.43-3.57-2.96
					c0-1.94,1.58-3.32,4.69-3.32c2.45,0,4.74,0.51,6.37,1.89l3.26-3.31c-2.39-2.09-5.71-2.9-9.58-2.9c-5.4,0-9.74,2.85-9.74,7.9
					c0,4.53,2.8,6.73,7.65,7.14l4.13,0.36c2.5,0.2,3.47,1.33,3.47,3.06c0,2.45-2.5,3.57-5.66,3.57c-2.55,0-5.36-0.56-7.44-2.7
					l-3.42,3.42c3.06,3.01,6.63,3.71,10.86,3.71C577.45,956.6,582.04,953.8,582.04,948.4 M549.21,946.97c0,1.84-0.36,3.06-1.12,3.83
					c-1.38,1.33-2.86,1.48-4.85,1.48c-3.27,0-4.74-1.33-4.74-3.67c0-2.35,1.58-3.73,4.64-3.73h6.07V946.97z M554.4,956.29v-17.28
					c0-5.87-3.56-8.87-10.65-8.87c-4.29,0-6.83,0.86-9.28,3.72l3.41,3.21c1.43-1.84,2.81-2.5,5.66-2.5c4.03,0,5.66,1.58,5.66,4.85
					v1.84h-6.84c-5.91,0-8.92,3.11-8.92,7.44c0,2.19,0.71,4.18,2.04,5.55c1.58,1.58,3.72,2.34,6.93,2.34c3.21,0,5-0.76,6.89-2.65
					v2.34H554.4z M529.16,956.29v-4.43h-2.29c-2.09,0-2.81-1.02-2.81-3.01V920h-5.19v29.16c0,3.82,2.14,7.13,7.08,7.13H529.16z
					 M513.87,956.29l-13-22.07L512.65,920h-6.73l-14.83,18.25V920h-5.5v36.29h5.5v-10.55l6.12-7.34l10.2,17.89H513.87z
					 M468.25,916.23h-5l-14.53,43.84h5L468.25,916.23z M430.47,922.49h-5.26v33.81h5.26V922.49z M415.23,922.49h-5.26v27.85h-8.48
					v5.96h13.74V922.49z M397.57,952.54v-14.7c0-1.86-0.28-3.32-0.83-4.37c-0.56-1.06-1.49-1.81-2.79-2.25
					c-1.3-0.45-3.11-0.67-5.39-0.67c-2.83,0-5.42,0.39-7.75,1.15c-2.35,0.77-4.34,1.88-5.98,3.33c-1.65,1.45-2.87,3.19-3.65,5.23
					v-9.18h-5.26v21.47h5.26c0-5.44,1.24-9.47,3.73-12.1c2.48-2.63,6.25-3.94,11.3-3.94c2.82,0,4.87,0.2,6.12,0.59v15.46H397.57z
					 M357.43,956.3h46.21v-5.96h-46.21V956.3z M344.74,924.1c0.52-0.39,0.98-0.85,1.37-1.37c0.39-0.52,0.59-0.98,0.59-1.37
					c0-0.43-0.2-0.9-0.59-1.42c-0.39-0.52-0.84-0.97-1.34-1.34c-0.5-0.38-0.97-0.56-1.4-0.56c-0.43,0-0.9,0.19-1.42,0.56
					c-0.52,0.38-0.97,0.82-1.34,1.34s-0.56,0.99-0.56,1.42c0,0.39,0.19,0.86,0.56,1.4c0.38,0.54,0.83,0.99,1.37,1.37
					c0.54,0.38,1,0.56,1.4,0.56C343.76,924.69,344.22,924.49,344.74,924.1 M335.64,950.34v-11.06c0-1.07,0.17-1.8,0.51-2.17
					c0.34-0.38,0.96-0.56,1.85-0.56h10.25v11.27c0,0.97-0.18,1.63-0.54,1.99c-0.36,0.36-0.98,0.54-1.88,0.54H335.64z M353.51,956.3
					v-24.04c-2.11-0.64-4.04-1.1-5.8-1.37c-1.75-0.27-3.69-0.4-5.8-0.4c-2.32,0-4.26,0.2-5.8,0.59c-1.54,0.39-2.75,1.02-3.65,1.88
					c-0.9,0.86-1.53,2.01-1.91,3.46c-0.38,1.45-0.56,3.26-0.56,5.45c0,2.04,0.05,3.7,0.16,4.99c0.11,1.29,0.28,2.45,0.54,3.49
					h-15.89c-0.28-0.93-0.49-1.92-0.62-2.95s-0.19-2.24-0.19-3.6c0-1.18,0.11-2.43,0.32-3.73c0.21-1.3,0.54-2.66,0.97-4.05
					l-5.04-0.8c-0.47,1.33-0.84,2.87-1.13,4.64c-0.28,1.77-0.43,3.5-0.43,5.18c0,2.72,0.27,4.9,0.8,6.55
					c0.54,1.65,1.4,2.84,2.58,3.6c1.18,0.75,2.72,1.13,4.62,1.13H353.51z M353.51,956.3h6.06v-5.96h-6.06V956.3z M289.25,944.16
					c0-3.42-0.41-6.94-3.16-9.69c-1.48-1.48-3.67-2.34-6.53-2.34c-2.66,0-4.8,0.81-6.02,2.09v-9.59h14.89V920h-19.57v19.82h4.73
					c0.56-1.78,2.19-3.26,5.16-3.26c4.18,0,5.3,3.26,5.3,7.6c0,2.45-0.2,4.85-1.73,6.38c-0.92,0.92-2.24,1.43-3.77,1.43
					c-3.27,0-4.9-1.84-5.31-5.05h-5.19c0.2,2.6,0.82,5,2.75,6.93c1.58,1.58,4.28,2.8,7.75,2.8c3.52,0,6.02-1.22,7.65-2.85
					C288.84,951.15,289.25,948.04,289.25,944.16"/>
			</g>
		</g>
	</g>
</g>
</svg>
