<?xml version="1.0" encoding="utf-8"?>
<!-- Generator: Adobe Illustrator 26.2.1, SVG Export Plug-In . SVG Version: 6.00 Build 0)  -->
<svg version="1.1" id="Ebene_1" xmlns="http://www.w3.org/2000/svg" xmlns:xlink="http://www.w3.org/1999/xlink" x="0px" y="0px"
	 viewBox="0 0 1000 702.95" style="enable-background:new 0 0 1000 702.95;" xml:space="preserve">
<style type="text/css">
	.st0{fill:#A2B9E1;}
	.st1{fill:#6796CF;}
	.st2{clip-path:url(#SVGID_00000154384871921066563180000004727675531800566692_);}
	.st3{fill:#2B2961;}
	.st4{fill:#FFFFFF;}
	.st5{clip-path:url(#SVGID_00000174564567760812104290000011028112239906980504_);}
	.st6{clip-path:url(#SVGID_00000168828023760340504100000018262561720371411897_);}
	.st7{clip-path:url(#SVGID_00000056386193649255273600000014232356775949353394_);}
	.st8{clip-path:url(#SVGID_00000029743078962440591880000011924465828984858557_);}
	.st9{clip-path:url(#SVGID_00000088822776175698658950000016291582888696330162_);}
	.st10{opacity:0.52;clip-path:url(#SVGID_00000000944570306746249280000007269337651078992551_);}
	.st11{clip-path:url(#SVGID_00000127754965000323192390000009355761358890427827_);}
	.st12{clip-path:url(#SVGID_00000165193663291272118130000002953279417538084254_);}
	.st13{clip-path:url(#SVGID_00000045603680738700695980000001405234041539451056_);}
	.st14{clip-path:url(#SVGID_00000044136898032293812670000008541006104801947520_);}
	.st15{clip-path:url(#SVGID_00000150083748586317174020000004940411007465152668_);}
	.st16{clip-path:url(#SVGID_00000165948662808277036650000001830574047377638567_);}
	.st17{clip-path:url(#SVGID_00000066488888966215205100000000215657188359237050_);}
	.st18{clip-path:url(#SVGID_00000181068476413184463350000005808764166588384944_);}
	.st19{clip-path:url(#SVGID_00000034792466796547469810000016898472632473697715_);}
	.st20{clip-path:url(#SVGID_00000126319013658964571090000000734484295570216634_);}
	.st21{clip-path:url(#SVGID_00000165914575827284045660000004021978529871882626_);}
	.st22{clip-path:url(#SVGID_00000058558511353661503680000017205922735856467360_);}
	.st23{fill:none;stroke:#2B2961;stroke-width:0.374;stroke-linejoin:round;stroke-miterlimit:10;}
	.st24{fill:none;stroke:#2B2961;stroke-width:0.4;stroke-miterlimit:10;}
	.st25{clip-path:url(#SVGID_00000088117919859460350700000011888758185247818943_);}
	.st26{clip-path:url(#SVGID_00000156562832687933679800000010912903056116181938_);}
	.st27{clip-path:url(#SVGID_00000112633081369868780240000012230925024026044597_);}
	.st28{clip-path:url(#SVGID_00000178908435874687711590000006645229285603546251_);}
	.st29{clip-path:url(#SVGID_00000148659805091923533710000003334578442543393197_);}
	.st30{clip-path:url(#SVGID_00000142876881604369032210000002514772595359822730_);}
	.st31{clip-path:url(#SVGID_00000004524899921979316410000002387879990957427851_);}
	.st32{clip-path:url(#SVGID_00000049937055625600488440000002101008324488014512_);}
	.st33{clip-path:url(#SVGID_00000054243293818747354780000004235914541383924412_);}
	.st34{clip-path:url(#SVGID_00000026162145473770059420000011698035490146051255_);}
	.st35{clip-path:url(#SVGID_00000122716958245254645150000013458273707333684613_);}
	.st36{clip-path:url(#SVGID_00000181781518243469103630000013172550431114514593_);}
	.st37{clip-path:url(#SVGID_00000124854379309767115760000012316796460594239118_);}
	.st38{clip-path:url(#SVGID_00000106841182821442322230000005881431292800354219_);}
	.st39{clip-path:url(#SVGID_00000080929623119148753620000007035057749009171135_);}
	.st40{clip-path:url(#SVGID_00000171683884044908200780000004738467521046620320_);}
	.st41{clip-path:url(#SVGID_00000061462366350566060530000016069089474336729789_);}
	.st42{clip-path:url(#SVGID_00000170997055088631379150000003704261441196973954_);}
	.st43{clip-path:url(#SVGID_00000027577087029798117670000016439671744497887641_);}
	.st44{clip-path:url(#SVGID_00000070100443564697848700000001236997623966303127_);}
	.st45{clip-path:url(#SVGID_00000114772555263427726720000015222397014475647876_);}
	.st46{clip-path:url(#SVGID_00000029738457301755014640000007391309736291867794_);}
	.st47{clip-path:url(#SVGID_00000139290340848543979380000013455693890847685563_);}
	.st48{clip-path:url(#SVGID_00000100351412372056882350000014746366172328263810_);}
	.st49{clip-path:url(#SVGID_00000075883918902321032760000003987390134329413544_);}
	.st50{clip-path:url(#SVGID_00000135686516248218741550000013904983630393693339_);}
	.st51{clip-path:url(#SVGID_00000062151298202752634660000007670911627136181427_);}
	.st52{clip-path:url(#SVGID_00000147907004305629475390000002693164150195965341_);}
	.st53{clip-path:url(#SVGID_00000073696307066758727480000000521513275853113777_);}
	.st54{clip-path:url(#SVGID_00000101096112996179469190000013106011591136813236_);}
	.st55{clip-path:url(#SVGID_00000093874166013703036830000010371164491528312973_);}
	.st56{clip-path:url(#SVGID_00000070808245254220228230000016829543395699158189_);}
	.st57{clip-path:url(#SVGID_00000124136513820479229950000005659719781719148955_);}
	.st58{clip-path:url(#SVGID_00000017490657148939923880000010594184732691481789_);}
	.st59{clip-path:url(#SVGID_00000121280230726008438550000008519809530197023124_);}
	.st60{clip-path:url(#SVGID_00000054956010083782283520000017691142513938314157_);}
	.st61{clip-path:url(#SVGID_00000051351411638508500430000012263162764588907173_);}
	.st62{fill:#9AB4DE;}
	.st63{clip-path:url(#SVGID_00000036229210536896855940000002715635643832597898_);}
	.st64{clip-path:url(#SVGID_00000079477109100492781030000004430986466580366751_);}
	.st65{clip-path:url(#SVGID_00000122720830955819857570000009389214272912349607_);}
	.st66{fill:#B9C9E9;}
	.st67{clip-path:url(#SVGID_00000176040586007253160050000005429446163165278132_);}
	.st68{clip-path:url(#SVGID_00000173839803890329367730000004768301628988795009_);}
	.st69{clip-path:url(#SVGID_00000162349316969225918350000000881770466207841680_);}
	.st70{clip-path:url(#SVGID_00000179639413225508334220000010102656810062675635_);}
	.st71{clip-path:url(#SVGID_00000086673951474282191310000011002815120160395168_);}
	.st72{clip-path:url(#SVGID_00000084528851508219010930000008181674557297511334_);}
	.st73{clip-path:url(#SVGID_00000096033147891998279900000006760322632663743389_);}
	.st74{clip-path:url(#SVGID_00000142892868207610485110000000941826125343664811_);}
	.st75{clip-path:url(#SVGID_00000012434448329466228890000004195083147503176869_);}
	.st76{clip-path:url(#SVGID_00000136397554417678714550000003102805695479347584_);}
	.st77{clip-path:url(#SVGID_00000040563939277040225160000013472226316922263174_);}
	.st78{clip-path:url(#SVGID_00000049196950253792266530000004583125684172428452_);}
	.st79{clip-path:url(#SVGID_00000007410680219872693810000011507487123535188097_);}
	.st80{clip-path:url(#SVGID_00000071537905775784665750000015933847814311919790_);}
	.st81{clip-path:url(#SVGID_00000178170348036380355060000000162413995459003060_);}
	.st82{clip-path:url(#SVGID_00000028316657730588980230000004063218667470741907_);}
	.st83{clip-path:url(#SVGID_00000052811199591082147650000015820994483157689258_);}
	.st84{clip-path:url(#SVGID_00000021100465561978596580000017094934661544882818_);}
	.st85{clip-path:url(#SVGID_00000165234453348686242270000010304495940666227871_);}
	.st86{clip-path:url(#SVGID_00000106850195428950189150000014869508654066566784_);}
	.st87{clip-path:url(#SVGID_00000179603969078691779680000014290765844021132451_);}
	.st88{clip-path:url(#SVGID_00000159457719003334748200000002736057430359332758_);}
	.st89{clip-path:url(#SVGID_00000089569132791142912850000004918098253759958688_);}
	.st90{clip-path:url(#SVGID_00000055684939341479208350000005351666649572475024_);}
	.st91{clip-path:url(#SVGID_00000149350874111347818240000010103545416744246707_);}
	.st92{clip-path:url(#SVGID_00000162317709341084608040000012388354000623324324_);}
	.st93{clip-path:url(#SVGID_00000054252113381483627950000001846211369810139036_);}
	.st94{clip-path:url(#SVGID_00000183931302677075051560000016861904390465152661_);}
	.st95{clip-path:url(#SVGID_00000042698943072122368590000004648616219601858190_);}
	.st96{clip-path:url(#SVGID_00000022519025449735764420000018249411963178009740_);}
	.st97{clip-path:url(#SVGID_00000087401662884638772840000018037809504247712904_);}
	.st98{clip-path:url(#SVGID_00000066488337443369806410000007555780235155471508_);}
	.st99{clip-path:url(#SVGID_00000135690225819312974760000002394520243920285885_);}
	.st100{clip-path:url(#SVGID_00000097494314033796507640000012598728408787317900_);}
	.st101{clip-path:url(#SVGID_00000098923243943014351990000014060613537048804237_);}
	.st102{clip-path:url(#SVGID_00000150824366027481901450000015959985438172755628_);}
	.st103{clip-path:url(#SVGID_00000072996499094154515270000009914346344372913296_);}
	.st104{clip-path:url(#SVGID_00000054229659954535001400000012903336281529699258_);}
	.st105{clip-path:url(#SVGID_00000088127803827310234550000005342801011956254608_);}
	.st106{clip-path:url(#SVGID_00000154384148176936330910000014036567188254207402_);}
	.st107{clip-path:url(#SVGID_00000141438787217716070080000000316504424133142660_);}
	.st108{clip-path:url(#SVGID_00000111871204746452836460000011946826322131888791_);}
	.st109{clip-path:url(#SVGID_00000008110851541233736480000005663979094080389775_);}
	.st110{clip-path:url(#SVGID_00000150070538100483306490000009458777590706034329_);}
	.st111{clip-path:url(#SVGID_00000020388253593306498180000014610266500622344096_);}
	.st112{clip-path:url(#SVGID_00000093158401720110342430000009059821775478334389_);}
	.st113{clip-path:url(#SVGID_00000159431425670715009250000014723515540791415204_);}
	.st114{clip-path:url(#SVGID_00000116937244224554198940000009578086727628562109_);}
	.st115{clip-path:url(#SVGID_00000041279845246202597130000003228502513051262896_);}
	.st116{clip-path:url(#SVGID_00000022540937003300764540000002083423623813738664_);}
	.st117{clip-path:url(#SVGID_00000067918294160458143080000008001125259766806198_);}
	.st118{clip-path:url(#SVGID_00000029734730227907612280000005295397848052564411_);}
	.st119{clip-path:url(#SVGID_00000087374153509064652930000001669280791497370797_);}
	.st120{clip-path:url(#SVGID_00000026885415832143362930000003760976742558865813_);}
	.st121{clip-path:url(#SVGID_00000042726614482781097110000017733574244807807407_);}
	.st122{clip-path:url(#SVGID_00000089558541510499116920000002268656117280449451_);}
	.st123{clip-path:url(#SVGID_00000052101745804159485250000010091779991519635590_);}
	.st124{clip-path:url(#SVGID_00000010998075712167779600000009146741089021589413_);}
	.st125{clip-path:url(#SVGID_00000171713592272744690980000002130227241241519250_);}
	.st126{clip-path:url(#SVGID_00000065788525886140069880000015029856058300432517_);}
	.st127{clip-path:url(#SVGID_00000042009393619570847890000016386172380122849983_);}
	.st128{clip-path:url(#SVGID_00000174604164431686080650000002183404266249543350_);}
	.st129{clip-path:url(#SVGID_00000104699320040654639810000005821741196052330398_);}
	.st130{clip-path:url(#SVGID_00000181065890486784686840000006962778531429856153_);}
	.st131{clip-path:url(#SVGID_00000096044683433632489010000009867721304620944804_);}
	.st132{clip-path:url(#SVGID_00000129908174373540317140000017921517477584310455_);}
	.st133{clip-path:url(#SVGID_00000034789402084381720390000010983189814261514423_);}
	.st134{clip-path:url(#SVGID_00000120543513149514037650000009290893343046416300_);}
	.st135{clip-path:url(#SVGID_00000063611004687859094050000015020904567044486280_);}
	.st136{clip-path:url(#SVGID_00000020357044932074901340000003865181347648399257_);}
	.st137{clip-path:url(#SVGID_00000005247555831696204750000005444011783278251945_);}
	.st138{clip-path:url(#SVGID_00000109742057826684508150000007592753849967072954_);}
	.st139{clip-path:url(#SVGID_00000024693210357041049860000003237776468430339721_);}
	.st140{clip-path:url(#SVGID_00000168835635837496837550000005702316139607734207_);}
	.st141{clip-path:url(#SVGID_00000168088694365551832240000002416127081139055747_);}
	.st142{clip-path:url(#SVGID_00000158714647226496558750000011903726813503651482_);}
	.st143{clip-path:url(#SVGID_00000157996380447599492820000010846277322026848189_);}
	.st144{clip-path:url(#SVGID_00000032633736183087752300000017263542520408479618_);}
	.st145{clip-path:url(#SVGID_00000081641955429553030090000011327783858826130608_);}
	.st146{clip-path:url(#SVGID_00000155826837929931118280000008121114737333972885_);}
	.st147{clip-path:url(#SVGID_00000062177715424397232990000013245042940311140243_);}
	.st148{clip-path:url(#SVGID_00000151501112280407291410000008334775030154754981_);}
	.st149{clip-path:url(#SVGID_00000139972267424249551640000002952121917589433242_);}
	.st150{clip-path:url(#SVGID_00000073680967887761056770000008525872945929685414_);}
	.st151{clip-path:url(#SVGID_00000158739590779485860470000012682391191698579632_);}
	.st152{clip-path:url(#SVGID_00000155121708593511647430000010935305201129568659_);}
	.st153{clip-path:url(#SVGID_00000155824891030879705500000018103282544373713812_);}
	.st154{clip-path:url(#SVGID_00000116195799320096015290000006836001209925395108_);}
	.st155{clip-path:url(#SVGID_00000041976119495694874880000010336968855087631257_);}
	.st156{clip-path:url(#SVGID_00000033355063656744801410000007292746804034222006_);}
	.st157{clip-path:url(#SVGID_00000104695482241561894630000006651015208323635083_);}
	.st158{clip-path:url(#SVGID_00000087381297595983219750000004769494808822678441_);}
	.st159{clip-path:url(#SVGID_00000006695241740470073830000008437907542968691097_);}
	.st160{clip-path:url(#SVGID_00000142898208017609634490000006568829185253032837_);}
	.st161{clip-path:url(#SVGID_00000023266449120910065180000001977850976348688813_);}
	.st162{clip-path:url(#SVGID_00000034800684312692504990000013793430705697135257_);}
	.st163{clip-path:url(#SVGID_00000168800355731265475720000011335074021659722937_);}
	.st164{clip-path:url(#SVGID_00000095323523120368894060000007309459631834219963_);}
	.st165{clip-path:url(#SVGID_00000070825618307703473960000003510018800368284347_);}
	.st166{clip-path:url(#SVGID_00000178170680010432078060000004251619824401445816_);}
	.st167{clip-path:url(#SVGID_00000042729641080641474340000007554018284262529172_);}
	.st168{clip-path:url(#SVGID_00000057853555601411207960000013193735778993866400_);}
	.st169{clip-path:url(#SVGID_00000118385408666238014820000012951858886620619137_);}
	.st170{clip-path:url(#SVGID_00000171713579586339455000000004392814009707878036_);}
	.st171{clip-path:url(#SVGID_00000045619988756506053190000010916036428834963100_);}
	.st172{clip-path:url(#SVGID_00000146473192253835583130000008732028816616946105_);}
	.st173{clip-path:url(#SVGID_00000081642972290949926750000018361600520376819640_);}
	.st174{clip-path:url(#SVGID_00000042695465585052544840000015221674934343031204_);}
	.st175{clip-path:url(#SVGID_00000170279402550903829700000012728768590008147876_);}
	.st176{clip-path:url(#SVGID_00000052802709784393743410000009521074252254286523_);}
	.st177{clip-path:url(#SVGID_00000125565516791001119460000000157979195809175432_);}
	.st178{clip-path:url(#SVGID_00000093871488651268645230000014288776080182280080_);}
	.st179{clip-path:url(#SVGID_00000089539030282148650770000018191095379861900208_);}
	.st180{clip-path:url(#SVGID_00000023269417966452416460000009928912173585622426_);}
	.st181{clip-path:url(#SVGID_00000106851437365152663900000006654184702047991707_);}
	.st182{clip-path:url(#SVGID_00000174565445598790905060000005795389362352129954_);}
	.st183{clip-path:url(#SVGID_00000109737669815909125520000011589112518612901540_);}
	.st184{clip-path:url(#SVGID_00000098186528705081205170000016847292908250444427_);}
	.st185{clip-path:url(#SVGID_00000110471875843915617000000013544142797177522348_);}
	.st186{clip-path:url(#SVGID_00000121273717165831744140000006249332297061565097_);}
	.st187{clip-path:url(#SVGID_00000041261269352308372000000009705480529785973925_);}
	.st188{clip-path:url(#SVGID_00000013897568941297086390000008516372206975952540_);}
	.st189{clip-path:url(#SVGID_00000003073316277772889710000005056343407655115446_);}
	.st190{clip-path:url(#SVGID_00000060012951808930760220000001730844943636380862_);}
	.st191{clip-path:url(#SVGID_00000075846716892133170460000015462172110999127480_);}
	.st192{clip-path:url(#SVGID_00000036950656383220889490000001864354471603811518_);}
	.st193{clip-path:url(#SVGID_00000116210311824815169000000006128915644101033383_);}
	.st194{clip-path:url(#SVGID_00000049208071645990443900000008278673381409105336_);}
	.st195{clip-path:url(#SVGID_00000044166787698770811100000015251769010807631245_);}
	.st196{clip-path:url(#SVGID_00000087386553123052033900000009009368833987733644_);}
	.st197{clip-path:url(#SVGID_00000179608037451142328820000004060363006006928285_);}
	.st198{clip-path:url(#SVGID_00000170237594266615943340000015559148501989175681_);}
	.st199{clip-path:url(#SVGID_00000106108765939076717920000006046816493075124667_);}
	.st200{clip-path:url(#SVGID_00000056403884334960871400000004836280167670248364_);}
	.st201{clip-path:url(#SVGID_00000035496607833340041920000011119786289837962386_);}
	.st202{clip-path:url(#SVGID_00000084487778916688378650000011768669573631737753_);}
	.st203{clip-path:url(#SVGID_00000129900988363093219640000001346122739913784484_);}
	.st204{clip-path:url(#SVGID_00000144302241771874564260000005991647535681666480_);}
	.st205{clip-path:url(#SVGID_00000173839087194963697190000013071022946042315670_);}
	.st206{clip-path:url(#SVGID_00000140001815927131474570000004242167312959862692_);}
	.st207{clip-path:url(#SVGID_00000146469108873849935840000016000307061014963076_);}
	.st208{clip-path:url(#SVGID_00000106868323092130881030000011432029242579959434_);}
	.st209{clip-path:url(#SVGID_00000057844375398388475150000016347860761571787173_);}
	.st210{clip-path:url(#SVGID_00000052076719508790097650000007495053189307868546_);}
	.st211{clip-path:url(#SVGID_00000036252972521390997110000001428137055658110080_);}
	.st212{clip-path:url(#SVGID_00000117638228369847408510000009150979075980749487_);}
	.st213{clip-path:url(#SVGID_00000145777030226662544830000014996608299310305935_);}
	.st214{clip-path:url(#SVGID_00000061471493323579357080000006043127046657636752_);}
	.st215{clip-path:url(#SVGID_00000181062838569241966240000011095176267072036001_);}
	.st216{clip-path:url(#SVGID_00000048485408975669414530000014491167070103812488_);}
	.st217{clip-path:url(#SVGID_00000101785321853564088860000006404182662379267258_);}
	.st218{clip-path:url(#SVGID_00000091702336035513481370000006201029962945373859_);}
	.st219{clip-path:url(#SVGID_00000126283124028042703310000003641218632804499584_);}
	.st220{clip-path:url(#SVGID_00000129196341144091944270000009317730151183854983_);}
	.st221{clip-path:url(#SVGID_00000008840717140112651610000010793848590556356533_);}
	.st222{clip-path:url(#SVGID_00000104663945703235838890000008606210288332512385_);}
	.st223{clip-path:url(#SVGID_00000144321414486084039880000015873115233638286765_);}
	.st224{clip-path:url(#SVGID_00000103954405883180370490000013587509119738497215_);}
	.st225{clip-path:url(#SVGID_00000158721292574828868660000004102988806060992957_);}
	.st226{clip-path:url(#SVGID_00000116918625074649641520000001585394876679020216_);}
	.st227{clip-path:url(#SVGID_00000088103891621838471540000014171938445877957290_);}
	.st228{clip-path:url(#SVGID_00000160156643849254630450000011498459383678777494_);}
	.st229{clip-path:url(#SVGID_00000176044564485868986400000000401081496680806798_);}
	.st230{clip-path:url(#SVGID_00000127006906183382214130000010665828690914666377_);}
	.st231{clip-path:url(#SVGID_00000058578799885822327670000010754061171617260685_);}
	.st232{clip-path:url(#SVGID_00000162350261515155077100000014056175572479648157_);}
	.st233{clip-path:url(#SVGID_00000153665005974902718240000009716842600780379541_);}
	.st234{clip-path:url(#SVGID_00000074436918836773497340000007428513513635392952_);}
	.st235{clip-path:url(#SVGID_00000116913951449894309300000013895534694662427538_);}
	.st236{clip-path:url(#SVGID_00000183244972882940585440000005572223703184774539_);}
	.st237{clip-path:url(#SVGID_00000099653420347579971530000010228162428997246633_);}
	.st238{clip-path:url(#SVGID_00000132803745653569498780000004229852402069680278_);}
	.st239{clip-path:url(#SVGID_00000145051843577991478300000010291596801130707376_);}
	.st240{clip-path:url(#SVGID_00000155141099218067403790000011001981018715608254_);}
	.st241{clip-path:url(#SVGID_00000078043243599728383100000009434904297632524468_);}
	.st242{clip-path:url(#SVGID_00000053512541902456582970000012618224893084787640_);}
	.st243{clip-path:url(#SVGID_00000098940560435926777420000015310308564633329850_);}
	.st244{clip-path:url(#SVGID_00000001664629604371728050000011091958392290777505_);}
	.st245{clip-path:url(#SVGID_00000180340834572461154740000002560870365424882581_);}
	.st246{clip-path:url(#SVGID_00000160191986432632821850000006991312207196964501_);}
	.st247{clip-path:url(#SVGID_00000051351465243070893310000001891436381482172320_);}
	.st248{clip-path:url(#SVGID_00000163760624722073950230000009635424453611791262_);}
	.st249{clip-path:url(#SVGID_00000056387360239614686620000013897372416994585995_);}
	.st250{clip-path:url(#SVGID_00000018932771746842495180000016251459724216838799_);}
	.st251{clip-path:url(#SVGID_00000141420371570594767220000015294241237527448200_);}
	.st252{clip-path:url(#SVGID_00000038412953644757153590000003910909618878125242_);}
	.st253{clip-path:url(#SVGID_00000152238722292588609760000000489347785077034926_);}
	.st254{clip-path:url(#SVGID_00000157275622320541686960000000126098998291186088_);}
	.st255{clip-path:url(#SVGID_00000153669626427532877710000008858968823135912849_);}
	.st256{clip-path:url(#SVGID_00000072259467523459273060000015462302209846387122_);}
	.st257{clip-path:url(#SVGID_00000140725472332977080430000010274577495054669222_);}
	.st258{clip-path:url(#SVGID_00000116198251328969576070000017068656867740354981_);}
	.st259{clip-path:url(#SVGID_00000081613383158645635220000015601737820996819350_);}
	.st260{clip-path:url(#SVGID_00000026159206603963964220000017858139733908872834_);}
	.st261{clip-path:url(#SVGID_00000170273682012653534730000013232867557849055634_);}
	.st262{clip-path:url(#SVGID_00000088846378056253422930000004461802937470114437_);}
	.st263{clip-path:url(#SVGID_00000049185318303795997820000018140917271630906792_);}
	.st264{clip-path:url(#SVGID_00000054229038220649965530000010689281744881590422_);}
	.st265{clip-path:url(#SVGID_00000119076454950203998270000011054542731628438191_);}
	.st266{clip-path:url(#SVGID_00000073708198992522253350000007698718166013350032_);}
	.st267{clip-path:url(#SVGID_00000083774686614792692860000005178198300587931839_);}
	.st268{clip-path:url(#SVGID_00000119810793311700826670000016571887406077010091_);}
	.st269{clip-path:url(#SVGID_00000174584522457125926000000017318271799020197528_);}
	.st270{clip-path:url(#SVGID_00000123417284586667718830000007948552040476215205_);}
	.st271{clip-path:url(#SVGID_00000059312370309893700910000015378688599184797355_);}
	.st272{clip-path:url(#SVGID_00000065035182971354895130000012866307852669557150_);}
	.st273{clip-path:url(#SVGID_00000028291653764232285900000017173855915818950536_);}
	.st274{clip-path:url(#SVGID_00000160869518688198722840000003675059156757412500_);}
	.st275{clip-path:url(#SVGID_00000098902422156860261650000003044959038908631961_);}
	.st276{clip-path:url(#SVGID_00000103244066421092201830000010623183863093405885_);}
	.st277{clip-path:url(#SVGID_00000127735063627296466740000018114540016444605598_);}
	.st278{clip-path:url(#SVGID_00000023244970813188015120000008622550594531531407_);}
	.st279{clip-path:url(#SVGID_00000111192050183019455200000008042293923072242341_);}
	.st280{clip-path:url(#SVGID_00000047040690143503406420000017388853043617519251_);}
	.st281{clip-path:url(#SVGID_00000101823014170689861830000004724201136653114497_);}
	.st282{clip-path:url(#SVGID_00000136403523807630857340000011769838174662778812_);}
	.st283{clip-path:url(#SVGID_00000096036690686231813570000011732361402552880013_);}
	.st284{clip-path:url(#SVGID_00000012455597484072661420000011235969967665780890_);}
	.st285{clip-path:url(#SVGID_00000063633303744027320700000008247810015328081596_);}
	.st286{clip-path:url(#SVGID_00000009563057328938497370000001606943834415807382_);}
	.st287{clip-path:url(#SVGID_00000050640681764151456170000002620968502320121790_);}
	.st288{clip-path:url(#SVGID_00000072267771602791264970000018290150643154527654_);}
	.st289{clip-path:url(#SVGID_00000051366814605647042250000006863612055612838291_);}
	.st290{clip-path:url(#SVGID_00000180347933176751488040000002113840096180424626_);}
	.st291{clip-path:url(#SVGID_00000098902822069457953120000013396869482298601634_);}
	.st292{clip-path:url(#SVGID_00000068664514114807994630000005873718617963612850_);}
	.st293{clip-path:url(#SVGID_00000154411989274280703950000016055016408066650046_);}
	.st294{clip-path:url(#SVGID_00000012445648541013930840000013084498327765628599_);}
	.st295{clip-path:url(#SVGID_00000175297373304005233850000010177338434092246940_);}
	.st296{clip-path:url(#SVGID_00000168079201519857814470000010004956973683453878_);}
	.st297{clip-path:url(#SVGID_00000183928627002846250960000008013400528180789912_);}
	.st298{clip-path:url(#SVGID_00000078024935547073228300000014264394628667083911_);}
	.st299{clip-path:url(#SVGID_00000025416825665830363830000009332480544341811388_);}
	.st300{clip-path:url(#SVGID_00000043459471721723129090000010651920221596209077_);}
	.st301{clip-path:url(#SVGID_00000154425603019616139790000005091478084494856114_);}
	.st302{clip-path:url(#SVGID_00000105425200119310825470000002737828041444943280_);}
	.st303{clip-path:url(#SVGID_00000102529609915082105210000012908932524895506833_);}
	.st304{clip-path:url(#SVGID_00000066484029923752548950000015078234060261115545_);}
	.st305{clip-path:url(#SVGID_00000124161244567347484430000003377011206916113312_);}
	.st306{clip-path:url(#SVGID_00000174570934754050776380000018214611610143242141_);}
	.st307{clip-path:url(#SVGID_00000030448192375303823870000001029927142655091355_);}
	.st308{clip-path:url(#SVGID_00000134240883218629963620000003214552276173154691_);}
	.st309{clip-path:url(#SVGID_00000156578629011624352380000001852697236272087724_);}
	.st310{clip-path:url(#SVGID_00000154405534545133097230000016186891433721262226_);}
	.st311{clip-path:url(#SVGID_00000141451319166295794750000000870334045086516671_);}
	.st312{clip-path:url(#SVGID_00000097477421386874275670000012154981950816464039_);}
	.st313{clip-path:url(#SVGID_00000047024904418974914960000008641128429723174844_);}
	.st314{clip-path:url(#SVGID_00000057856976601719446960000013920009334101626805_);}
	.st315{clip-path:url(#SVGID_00000125564083236878953110000015226504906336370870_);}
	.st316{clip-path:url(#SVGID_00000166670846301288971530000012461467366167893902_);}
	.st317{clip-path:url(#SVGID_00000098206081672000080700000018063690256193556874_);}
	.st318{clip-path:url(#SVGID_00000060711194732800911080000010263006991543426997_);}
	.st319{clip-path:url(#SVGID_00000172412575769884125120000009424962300372005302_);}
	.st320{clip-path:url(#SVGID_00000042007900606446316870000005118471660366620554_);}
	.st321{clip-path:url(#SVGID_00000000195679633388484300000011513126322832373146_);}
	.st322{clip-path:url(#SVGID_00000134226549842254325700000016212578625896053916_);}
	.st323{clip-path:url(#SVGID_00000139994654386385508830000009089347653306597298_);}
	.st324{clip-path:url(#SVGID_00000021816867428691365110000006491634558483333002_);}
	.st325{clip-path:url(#SVGID_00000155133138676287309610000017205454138077608116_);}
	.st326{clip-path:url(#SVGID_00000073694074718851796380000015058515681654674106_);}
	.st327{clip-path:url(#SVGID_00000026124387267922915530000000792172756066244532_);}
	.st328{clip-path:url(#SVGID_00000080920671113584777590000017750544782276174515_);}
	.st329{clip-path:url(#SVGID_00000135649118432555215930000003544495093093729681_);}
	.st330{clip-path:url(#SVGID_00000051383673569538324660000003360368550681569954_);}
	.st331{clip-path:url(#SVGID_00000126305584074990597220000001523691048341626553_);}
	.st332{clip-path:url(#SVGID_00000173143920932787201920000017941795151516598447_);}
	.st333{clip-path:url(#SVGID_00000067934321455754018840000013646738380474342566_);}
	.st334{clip-path:url(#SVGID_00000034053259048404647980000014717999676414224276_);}
	.st335{clip-path:url(#SVGID_00000133499493069189629440000003768017334134233520_);}
	.st336{clip-path:url(#SVGID_00000058555736888835487830000009866685113665194125_);}
	.st337{clip-path:url(#SVGID_00000050636298939465516120000004992329395516158342_);}
	.st338{clip-path:url(#SVGID_00000139279043819528766380000000735823003492214968_);}
	.st339{clip-path:url(#SVGID_00000039854468184143752670000016895595023052296324_);}
	.st340{clip-path:url(#SVGID_00000163771429423133762600000005009902354737016249_);}
	.st341{clip-path:url(#SVGID_00000137111365510978797670000004186330050639830672_);}
	.st342{clip-path:url(#SVGID_00000160170308500686819740000014158847134060888451_);}
	.st343{clip-path:url(#SVGID_00000103972335858946958470000005926911591201059484_);}
	.st344{clip-path:url(#SVGID_00000080895641319913775420000010823300121614557342_);}
	.st345{clip-path:url(#SVGID_00000089540503158841330430000006641787428234463678_);}
	.st346{clip-path:url(#SVGID_00000123401601980263441830000004815027428929957784_);}
	.st347{clip-path:url(#SVGID_00000031890959308758669560000018115828651391293584_);}
	.st348{clip-path:url(#SVGID_00000023244846666600176490000013177872058304603790_);}
	.st349{clip-path:url(#SVGID_00000137836074214797308620000000540514028454005149_);}
	.st350{clip-path:url(#SVGID_00000165919289673856422190000001491572143006987179_);}
	.st351{clip-path:url(#SVGID_00000158013946807966495750000014884250098023554474_);}
	.st352{clip-path:url(#SVGID_00000002362655303489632820000008230990488598401189_);}
	.st353{clip-path:url(#SVGID_00000125587598731755100910000000602157703923791026_);}
	.st354{clip-path:url(#SVGID_00000053537241935264053710000002749420923965091507_);}
	.st355{clip-path:url(#SVGID_00000116949698311480360650000002822270795220342680_);}
	.st356{clip-path:url(#SVGID_00000080199631082826053750000009245392194368690094_);}
	.st357{clip-path:url(#SVGID_00000173876145899462228200000016643854842146349709_);}
	.st358{clip-path:url(#SVGID_00000034795967596876573480000003199715570702203036_);}
	.st359{clip-path:url(#SVGID_00000132053910983311280160000010774693050806872222_);}
	.st360{clip-path:url(#SVGID_00000037688105055538202990000006220361360761556387_);}
	.st361{clip-path:url(#SVGID_00000165192140210674535290000007010756726458739840_);}
	.st362{clip-path:url(#SVGID_00000124841076445641015230000016931775915016993967_);}
	.st363{clip-path:url(#SVGID_00000019678194441699042920000006293696725946645668_);}
	.st364{clip-path:url(#SVGID_00000044150013701730775030000015198853063604616081_);}
	.st365{clip-path:url(#SVGID_00000027575282215589368760000012925165751889208727_);}
	.st366{clip-path:url(#SVGID_00000074413643352781854950000016795922069600998795_);}
	.st367{clip-path:url(#SVGID_00000116211567019203689010000012700994560109389747_);}
	.st368{clip-path:url(#SVGID_00000045581642222398027040000014809139672524219070_);}
	.st369{clip-path:url(#SVGID_00000175312836476069751740000013939060639606798756_);}
	.st370{clip-path:url(#SVGID_00000078028094123264120430000014237952652354889623_);}
	.st371{clip-path:url(#SVGID_00000066473138312712101420000012058280179294605211_);}
	.st372{clip-path:url(#SVGID_00000165945717012127367620000001314076387894272187_);}
	.st373{clip-path:url(#SVGID_00000158003500904009790800000009009226269896355470_);}
	.st374{clip-path:url(#SVGID_00000148651058092650497050000010123353153274855589_);}
	.st375{clip-path:url(#SVGID_00000142882585563111491230000007129644135198207653_);}
</style>
<g>
	<g>
		<rect x="5.68" y="109.98" class="st0" width="48.54" height="588.48"/>
	</g>
	<g>
		<rect x="5.68" y="0" class="st1" width="992.64" height="116.88"/>
	</g>
	<g>
		<defs>
			<rect id="SVGID_00000039845377835475964220000014569059778944362629_" y="0" width="1000" height="702.95"/>
		</defs>
		<clipPath id="SVGID_00000125590794552840277010000001044716070029218234_">
			<use xlink:href="#SVGID_00000039845377835475964220000014569059778944362629_"  style="overflow:visible;"/>
		</clipPath>
		<g style="clip-path:url(#SVGID_00000125590794552840277010000001044716070029218234_);">
			<path class="st3" d="M998.31,702.95H2.81c-0.93,0-1.68-0.75-1.68-1.68V2.81c0-0.93,0.75-1.68,1.68-1.68h995.5
				c0.93,0,1.68,0.75,1.68,1.68v698.45C1000,702.2,999.25,702.95,998.31,702.95z M4.49,699.58h992.14V4.5H4.49V699.58z"/>
		</g>
		<g style="clip-path:url(#SVGID_00000125590794552840277010000001044716070029218234_);">
			<rect x="0" y="115.19" class="st3" width="995.5" height="3.37"/>
		</g>
		<g style="clip-path:url(#SVGID_00000125590794552840277010000001044716070029218234_);">
			<path class="st4" d="M845.81,69.08c0-6.43-3.8-10.45-11.32-11.18l-5.99-0.59c-3.36-0.29-3.94-1.9-3.94-3.29
				c0-1.9,1.61-3.65,5.41-3.65c3.29,0,6.65,0.58,8.84,2.56l5.84-5.91c-3.65-3.43-8.62-4.45-14.54-4.45
				c-7.74,0-14.68,4.23-14.68,12.11c0,7.02,4.24,10.01,11.1,10.67l5.99,0.58c2.99,0.29,4.02,1.61,4.02,3.51
				c0,2.85-3.43,3.95-6.72,3.95c-2.92,0-7.01-0.44-10.15-3.58l-6.21,6.21c4.82,4.82,10.23,5.47,16.22,5.47
				C838.65,81.5,845.81,77.48,845.81,69.08 M808.19,69.08c0-6.43-3.8-10.45-11.32-11.18l-5.99-0.59c-3.36-0.29-3.94-1.9-3.94-3.29
				c0-1.9,1.61-3.65,5.41-3.65c3.29,0,6.65,0.58,8.84,2.56l5.84-5.91c-3.65-3.43-8.62-4.45-14.54-4.45
				c-7.74,0-14.68,4.23-14.68,12.11c0,7.02,4.24,10.01,11.1,10.67l5.99,0.58c2.99,0.29,4.02,1.61,4.02,3.51
				c0,2.85-3.43,3.95-6.72,3.95c-2.92,0-7.01-0.44-10.15-3.58l-6.21,6.21c4.82,4.82,10.23,5.47,16.22,5.47
				C801.03,81.5,808.19,77.48,808.19,69.08 M767.42,81.06V43.01h-9.49v23.01c0,5.19-3.36,6.94-6.36,6.94c-3,0-6.29-1.75-6.29-6.94
				V43.01h-9.49v24.33c0,4.16,0.8,7.74,3.87,10.81c2.11,2.11,5.18,3.35,8.98,3.35c3.51,0,7.02-1.31,9.5-3.94v3.5H767.42z
				 M727.17,81.06v-8.02h-3.65c-2.41,0-3.36-1.17-3.36-3.43V29.06h-9.49v41.13c0,5.4,3.28,10.87,11.09,10.87H727.17z M699.34,81.06
				V56.44c0-8.04-4.38-13.87-12.7-13.87c-3.36,0-6.58,1.31-9.14,3.94V29.06h-9.48v52h9.48V57.83c0-4.97,3.14-6.72,6.14-6.72
				c2.99,0,6.21,1.68,6.21,6.72v23.23H699.34z M659.16,76.32l-6.43-6.36c-1.97,2.12-3.65,3-6.14,3c-2.26,0-4.02-0.8-5.41-2.49
				c-1.46-1.83-2.12-4.46-2.12-8.47c0-4.02,0.66-6.58,2.12-8.41c1.39-1.68,3.14-2.48,5.41-2.48c2.48,0,4.16,0.88,6.14,2.99
				l6.43-6.42c-3.36-3.51-7.3-5.11-12.56-5.11c-7.6,0-17.01,4.01-17.01,19.43c0,15.41,9.41,19.5,17.01,19.5
				C651.86,81.5,655.8,79.82,659.16,76.32 M622.06,69.08c0-6.43-3.8-10.45-11.32-11.18l-5.99-0.59c-3.36-0.29-3.94-1.9-3.94-3.29
				c0-1.9,1.61-3.65,5.41-3.65c3.29,0,6.65,0.58,8.84,2.56l5.84-5.91c-3.65-3.43-8.62-4.45-14.54-4.45
				c-7.74,0-14.68,4.23-14.68,12.11c0,7.02,4.24,10.01,11.1,10.67l5.99,0.58c2.99,0.29,4.02,1.61,4.02,3.51
				c0,2.85-3.43,3.95-6.72,3.95c-2.92,0-7.01-0.44-10.15-3.58l-6.21,6.21c4.82,4.82,10.23,5.47,16.22,5.47
				C614.9,81.5,622.06,77.48,622.06,69.08 M573.41,62c0,6.21-0.73,10.96-6.43,10.96s-6.43-4.75-6.43-10.96
				c0-6.21,0.73-10.89,6.43-10.89S573.41,55.78,573.41,62 M582.9,62c0-5.7-0.07-12.2-3.87-16c-2.12-2.12-5.55-3.43-9.28-3.43
				c-3.87,0-6.72,1.02-9.21,3.79V29.06h-9.48v52h9.19v-3.57c2.64,2.92,5.48,4.01,9.5,4.01c3.73,0,7.16-1.31,9.28-3.43
				C582.83,74.27,582.9,67.7,582.9,62 M529.88,67.03c0,2.34-0.37,3.88-1.39,4.83c-1.68,1.61-3.37,1.83-6,1.83
				c-3.73,0-5.48-1.76-5.48-4.39c0-2.71,1.9-4.32,5.34-4.32h7.53V67.03z M539.36,81.06V56.01c0-8.91-5.55-13.44-16.21-13.44
				c-6.36,0-10.01,1.16-13.73,5.25l6.06,5.92c1.97-2.27,3.65-3.15,7.3-3.15c5.05,0,7.09,1.83,7.09,6v1.9h-8.99
				c-8.84,0-13,4.96-13,11.02c0,3.36,1.1,6.43,3.14,8.55c2.26,2.26,5.4,3.35,9.72,3.35c4.38,0,6.8-1.1,9.36-3.65v3.28H539.36z
				 M501.52,81.06v-8.02h-3.65c-2.41,0-3.36-1.17-3.36-3.43V29.06h-9.48v41.13c0,5.4,3.28,10.87,11.09,10.87H501.52z M473.25,81.06
				V43.01h-9.49v23.01c0,5.19-3.36,6.94-6.36,6.94c-2.99,0-6.29-1.75-6.29-6.94V43.01h-9.48v24.33c0,4.16,0.8,7.74,3.87,10.81
				c2.12,2.11,5.18,3.35,8.98,3.35c3.51,0,7.02-1.31,9.5-3.94v3.5H473.25z M430.38,81.06V56.44c0-8.04-4.38-13.87-12.7-13.87
				c-3.37,0-6.58,1.31-9.14,3.94V29.06h-9.49v52h9.49V57.83c0-4.97,3.14-6.72,6.14-6.72c3,0,6.21,1.68,6.21,6.72v23.23H430.38z
				 M390.2,76.32l-6.43-6.36c-1.97,2.12-3.65,3-6.14,3c-2.26,0-4.02-0.8-5.41-2.49c-1.46-1.83-2.12-4.46-2.12-8.47
				c0-4.02,0.66-6.58,2.12-8.41c1.39-1.68,3.14-2.48,5.41-2.48c2.48,0,4.16,0.88,6.14,2.99l6.43-6.42
				c-3.36-3.51-7.3-5.11-12.56-5.11c-7.6,0-17.01,4.01-17.01,19.43c0,15.41,9.42,19.5,17.01,19.5
				C382.9,81.5,386.84,79.82,390.2,76.32 M353.1,69.08c0-6.43-3.8-10.45-11.32-11.18l-5.99-0.59c-3.36-0.29-3.94-1.9-3.94-3.29
				c0-1.9,1.61-3.65,5.41-3.65c3.29,0,6.65,0.58,8.84,2.56l5.84-5.91c-3.65-3.43-8.62-4.45-14.54-4.45
				c-7.74,0-14.68,4.23-14.68,12.11c0,7.02,4.24,10.01,11.1,10.67l5.99,0.58c2.99,0.29,4.02,1.61,4.02,3.51
				c0,2.85-3.43,3.95-6.72,3.95c-2.92,0-7.01-0.44-10.15-3.58l-6.21,6.21c4.82,4.82,10.23,5.47,16.22,5.47
				C345.94,81.5,353.1,77.48,353.1,69.08 M314.38,81.06v-8.02h-3.43c-2.26,0-3.29-1.24-3.29-3.44V51.33h6.72v-7.22h-6.72V32.86
				h-9.49v11.25h-4.02v7.22h4.02v18.85c0,5.41,3.29,10.88,11.02,10.88H314.38z M277.28,62c0,6.21-0.74,10.96-6.43,10.96
				c-5.7,0-6.43-4.75-6.43-10.96c0-6.21,0.73-10.89,6.43-10.89C276.55,51.11,277.28,55.78,277.28,62 M286.77,62
				c0-5.7-0.07-12.2-3.87-16c-2.12-2.12-5.55-3.43-9.28-3.43c-4.02,0-6.87,1.09-9.5,4.01v-3.57h-9.19v52h9.49V77.7
				c2.48,2.77,5.34,3.79,9.21,3.79c3.73,0,7.16-1.31,9.28-3.43C286.7,74.27,286.77,67.7,286.77,62 M242.79,81.06V43.01h-9.49v23.01
				c0,5.19-3.37,6.94-6.36,6.94c-3,0-6.29-1.75-6.29-6.94V43.01h-9.49v24.33c0,4.16,0.8,7.74,3.87,10.81
				c2.12,2.11,5.18,3.35,8.98,3.35c3.51,0,7.02-1.31,9.51-3.94v3.5H242.79z M190.43,67.03c0,2.34-0.37,3.88-1.39,4.83
				c-1.68,1.61-3.36,1.83-5.99,1.83c-3.73,0-5.48-1.76-5.48-4.39c0-2.71,1.9-4.32,5.34-4.32h7.53V67.03z M199.91,81.06V56.01
				c0-8.91-5.55-13.44-16.21-13.44c-6.36,0-10.01,1.16-13.73,5.25l6.06,5.92c1.97-2.27,3.65-3.15,7.31-3.15c5.04,0,7.09,1.83,7.09,6
				v1.9h-9c-8.83,0-12.99,4.96-12.99,11.02c0,3.36,1.09,6.43,3.14,8.55c2.26,2.26,5.4,3.35,9.71,3.35c4.39,0,6.8-1.1,9.36-3.65v3.28
				H199.91z M158.28,81.06v-52h-10.14v21.26h-17.62V29.06h-10.14v52h10.14V59.29h17.62v21.77H158.28z"/>
		</g>
		<g style="clip-path:url(#SVGID_00000125590794552840277010000001044716070029218234_);">
			<rect x="2.81" y="232.07" class="st3" width="992.7" height="3.37"/>
		</g>
		<g style="clip-path:url(#SVGID_00000125590794552840277010000001044716070029218234_);">
			<rect x="2.81" y="346.14" class="st3" width="992.7" height="3.37"/>
		</g>
		<g style="clip-path:url(#SVGID_00000125590794552840277010000001044716070029218234_);">
			<rect x="2.81" y="468.63" class="st3" width="992.7" height="3.37"/>
		</g>
		<g style="clip-path:url(#SVGID_00000125590794552840277010000001044716070029218234_);">
			<rect x="2.81" y="585.51" class="st3" width="992.7" height="3.37"/>
		</g>
		<g style="clip-path:url(#SVGID_00000125590794552840277010000001044716070029218234_);">
			<path class="st3" d="M726.24,654.09c0-3.58-0.43-7.27-3.31-10.14c-1.55-1.55-3.84-2.46-6.83-2.46c-2.78,0-5.02,0.85-6.3,2.19
				v-10.04h15.59v-4.85h-20.49v20.76h4.96c0.59-1.87,2.3-3.42,5.39-3.42c4.38,0,5.56,3.42,5.56,7.96c0,2.56-0.21,5.07-1.82,6.68
				c-0.97,0.96-2.35,1.49-3.96,1.49c-3.42,0-5.12-1.92-5.55-5.29h-5.44c0.21,2.72,0.85,5.23,2.88,7.26
				c1.65,1.65,4.48,2.93,8.11,2.93c3.69,0,6.3-1.28,8.01-2.98C725.81,661.41,726.24,658.15,726.24,654.09 M678.51,651.05h-12.17
				c0.05-1.66,0.16-2.46,0.69-3.69c0.85-2.03,2.83-3.42,5.39-3.42c2.56,0,4.48,1.39,5.34,3.42
				C678.3,648.59,678.46,649.39,678.51,651.05 M683.9,654.83v-2.4c0-7.69-4.21-13.02-11.47-13.02c-6.94,0-11.47,5.06-11.47,13.82
				c0,10.31,5.39,13.88,12.17,13.88c4.75,0,7.37-1.44,10.14-4.21l-3.47-3.26c-1.92,1.92-3.52,2.78-6.57,2.78
				c-4.43,0-6.88-2.94-6.88-7.59H683.9z M655.19,658.52c0-4.8-2.99-7.21-8.06-7.64l-4.27-0.37c-2.88-0.27-3.74-1.49-3.74-3.1
				c0-2.03,1.66-3.47,4.91-3.47c2.56,0,4.97,0.53,6.68,1.98l3.42-3.47c-2.51-2.19-5.98-3.03-10.04-3.03c-5.66,0-10.2,2.98-10.2,8.27
				c0,4.75,2.94,7.05,8.01,7.48l4.33,0.37c2.61,0.21,3.63,1.39,3.63,3.2c0,2.57-2.62,3.74-5.93,3.74c-2.67,0-5.6-0.59-7.79-2.83
				l-3.57,3.57c3.2,3.15,6.94,3.89,11.37,3.89C650.39,667.11,655.19,664.18,655.19,658.52 M628.34,658.52c0-4.8-2.99-7.21-8.06-7.64
				l-4.27-0.37c-2.88-0.27-3.74-1.49-3.74-3.1c0-2.03,1.65-3.47,4.91-3.47c2.56,0,4.96,0.53,6.67,1.98l3.42-3.47
				c-2.51-2.19-5.98-3.03-10.04-3.03c-5.66,0-10.19,2.98-10.19,8.27c0,4.75,2.93,7.05,8.01,7.48l4.32,0.37
				c2.62,0.21,3.63,1.39,3.63,3.2c0,2.57-2.61,3.74-5.92,3.74c-2.67,0-5.61-0.59-7.79-2.83l-3.58,3.57
				c3.2,3.15,6.94,3.89,11.37,3.89C623.53,667.11,628.34,664.18,628.34,658.52 M593.96,657.02c0,1.92-0.37,3.2-1.17,4.01
				c-1.44,1.39-2.99,1.55-5.07,1.55c-3.42,0-4.97-1.39-4.97-3.85c0-2.46,1.66-3.9,4.86-3.9h6.36V657.02z M599.4,666.79V648.7
				c0-6.14-3.73-9.28-11.15-9.28c-4.49,0-7.15,0.9-9.72,3.89l3.57,3.37c1.49-1.92,2.94-2.62,5.93-2.62c4.22,0,5.93,1.66,5.93,5.07
				v1.93h-7.16c-6.19,0-9.33,3.25-9.33,7.79c0,2.3,0.74,4.38,2.13,5.82c1.65,1.65,3.89,2.45,7.26,2.45s5.23-0.8,7.21-2.77v2.45
				H599.4z M572.98,666.79v-4.64h-2.4c-2.19,0-2.94-1.07-2.94-3.15v-30.21h-5.43v30.53c0,4,2.24,7.47,7.41,7.47H572.98z
				 M554.78,655.42h-5.82c-0.91,3.85-3.52,6.52-7.74,6.52c-2.24,0-4.27-0.85-5.6-2.3c-1.87-2.03-2.3-4.22-2.3-11.85
				c0-7.64,0.43-9.83,2.3-11.86c1.33-1.44,3.36-2.3,5.6-2.3c4.22,0,6.78,2.67,7.69,6.52h5.87c-1.33-7.58-6.56-11.69-13.56-11.69
				c-3.95,0-7.37,1.44-9.98,4.05c-3.73,3.74-3.68,7.96-3.68,15.27c0,7.31-0.05,11.53,3.68,15.27c2.61,2.61,6.03,4.05,9.98,4.05
				C548.11,667.11,553.5,663,554.78,655.42 M510.26,624.84h-5.23l-15.22,45.9h5.23L510.26,624.84z M473.05,654.09
				c0-3.58-0.43-7.27-3.3-10.14c-1.55-1.55-3.84-2.46-6.83-2.46c-2.78,0-5.02,0.85-6.3,2.19v-10.04h15.59v-4.85h-20.49v20.76h4.96
				c0.59-1.87,2.3-3.42,5.4-3.42c4.38,0,5.55,3.42,5.55,7.96c0,2.56-0.21,5.07-1.81,6.68c-0.96,0.96-2.35,1.49-3.95,1.49
				c-3.42,0-5.13-1.92-5.56-5.29h-5.44c0.21,2.72,0.85,5.23,2.88,7.26c1.65,1.65,4.48,2.93,8.11,2.93c3.68,0,6.3-1.28,8.01-2.98
				C472.63,661.41,473.05,658.15,473.05,654.09 M425.33,651.05h-12.17c0.06-1.66,0.16-2.46,0.7-3.69c0.85-2.03,2.83-3.42,5.39-3.42
				s4.48,1.39,5.34,3.42C425.12,648.59,425.28,649.39,425.33,651.05 M430.72,654.83v-2.4c0-7.69-4.22-13.02-11.48-13.02
				c-6.94,0-11.47,5.06-11.47,13.82c0,10.31,5.38,13.88,12.17,13.88c4.75,0,7.37-1.44,10.14-4.21l-3.47-3.26
				c-1.92,1.92-3.52,2.78-6.56,2.78c-4.43,0-6.89-2.94-6.89-7.59H430.72z M402.01,658.52c0-4.8-2.99-7.21-8.06-7.64l-4.27-0.37
				c-2.88-0.27-3.74-1.49-3.74-3.1c0-2.03,1.65-3.47,4.91-3.47c2.56,0,4.96,0.53,6.67,1.98l3.42-3.47
				c-2.51-2.19-5.98-3.03-10.04-3.03c-5.66,0-10.19,2.98-10.19,8.27c0,4.75,2.93,7.05,8.01,7.48l4.32,0.37
				c2.62,0.21,3.63,1.39,3.63,3.2c0,2.57-2.61,3.74-5.92,3.74c-2.67,0-5.61-0.59-7.79-2.83l-3.58,3.57
				c3.2,3.15,6.94,3.89,11.37,3.89C397.2,667.11,402.01,664.18,402.01,658.52 M375.16,658.52c0-4.8-2.99-7.21-8.06-7.64l-4.27-0.37
				c-2.88-0.27-3.74-1.49-3.74-3.1c0-2.03,1.66-3.47,4.91-3.47c2.56,0,4.97,0.53,6.68,1.98l3.42-3.47
				c-2.51-2.19-5.98-3.03-10.04-3.03c-5.66,0-10.2,2.98-10.2,8.27c0,4.75,2.94,7.05,8.01,7.48l4.33,0.37
				c2.61,0.21,3.63,1.39,3.63,3.2c0,2.57-2.62,3.74-5.93,3.74c-2.67,0-5.6-0.59-7.79-2.83l-3.57,3.57c3.2,3.15,6.94,3.89,11.37,3.89
				C370.35,667.11,375.16,664.18,375.16,658.52 M340.78,657.02c0,1.92-0.37,3.2-1.17,4.01c-1.44,1.39-2.99,1.55-5.07,1.55
				c-3.42,0-4.97-1.39-4.97-3.85c0-2.46,1.66-3.9,4.86-3.9h6.36V657.02z M346.22,666.79V648.7c0-6.14-3.73-9.28-11.15-9.28
				c-4.48,0-7.15,0.9-9.71,3.89l3.57,3.37c1.49-1.92,2.94-2.62,5.93-2.62c4.22,0,5.93,1.66,5.93,5.07v1.93h-7.15
				c-6.19,0-9.34,3.25-9.34,7.79c0,2.3,0.75,4.38,2.14,5.82c1.65,1.65,3.89,2.45,7.25,2.45c3.37,0,5.24-0.8,7.21-2.77v2.45H346.22z
				 M319.8,666.79v-4.64h-2.4c-2.19,0-2.93-1.07-2.93-3.15v-30.21h-5.44v30.53c0,4,2.24,7.47,7.41,7.47H319.8z M303.78,666.79
				l-13.62-23.11l12.33-14.89h-7.05l-15.53,19.11v-19.11h-5.76v38h5.76v-11.05l6.41-7.69l10.68,18.73H303.78z"/>
		</g>
		<g style="clip-path:url(#SVGID_00000125590794552840277010000001044716070029218234_);">
			<path class="st3" d="M720.69,544.38c0,4.06-2.41,6.62-5.82,6.62c-3.42,0-5.77-2.57-5.77-6.62c0-4.11,2.35-6.57,5.77-6.57
				C718.5,537.81,720.69,540.64,720.69,544.38 M726.13,544.27c0-6.68-4.48-10.99-9.98-10.99c-1.17,0-2.35,0.16-3.37,0.58l8.17-16.33
				h-5.82l-8.65,17.62c-1.65,3.3-2.83,6.24-2.83,9.34c0,7.05,4.69,11.37,11.26,11.37C721.49,555.85,726.13,551.27,726.13,544.27
				 M678.51,539.79h-12.17c0.05-1.66,0.16-2.46,0.69-3.69c0.85-2.03,2.83-3.42,5.39-3.42c2.56,0,4.48,1.39,5.34,3.42
				C678.3,537.33,678.46,538.13,678.51,539.79 M683.9,543.57v-2.4c0-7.69-4.21-13.02-11.47-13.02c-6.94,0-11.47,5.06-11.47,13.82
				c0,10.31,5.39,13.88,12.17,13.88c4.75,0,7.37-1.44,10.14-4.21l-3.47-3.26c-1.92,1.92-3.52,2.78-6.57,2.78
				c-4.43,0-6.88-2.94-6.88-7.59H683.9z M655.19,547.26c0-4.8-2.99-7.21-8.06-7.64l-4.27-0.37c-2.88-0.27-3.74-1.49-3.74-3.1
				c0-2.03,1.66-3.47,4.91-3.47c2.56,0,4.97,0.53,6.68,1.98l3.42-3.47c-2.51-2.19-5.98-3.03-10.04-3.03c-5.66,0-10.2,2.98-10.2,8.27
				c0,4.75,2.94,7.05,8.01,7.48l4.33,0.37c2.61,0.21,3.63,1.39,3.63,3.2c0,2.57-2.62,3.74-5.93,3.74c-2.67,0-5.6-0.59-7.79-2.83
				l-3.57,3.57c3.2,3.15,6.94,3.89,11.37,3.89C650.39,555.85,655.19,552.92,655.19,547.26 M628.34,547.26c0-4.8-2.99-7.21-8.06-7.64
				l-4.27-0.37c-2.88-0.27-3.74-1.49-3.74-3.1c0-2.03,1.65-3.47,4.91-3.47c2.56,0,4.96,0.53,6.67,1.98l3.42-3.47
				c-2.51-2.19-5.98-3.03-10.04-3.03c-5.66,0-10.19,2.98-10.19,8.27c0,4.75,2.93,7.05,8.01,7.48l4.32,0.37
				c2.62,0.21,3.63,1.39,3.63,3.2c0,2.57-2.61,3.74-5.92,3.74c-2.67,0-5.61-0.59-7.79-2.83l-3.58,3.57
				c3.2,3.15,6.94,3.89,11.37,3.89C623.53,555.85,628.34,552.92,628.34,547.26 M593.96,545.77c0,1.92-0.37,3.2-1.17,4.01
				c-1.44,1.39-2.99,1.55-5.07,1.55c-3.42,0-4.97-1.39-4.97-3.85c0-2.46,1.66-3.9,4.86-3.9h6.36V545.77z M599.4,555.53v-18.09
				c0-6.14-3.73-9.28-11.15-9.28c-4.49,0-7.15,0.9-9.72,3.89l3.57,3.37c1.49-1.92,2.94-2.62,5.93-2.62c4.22,0,5.93,1.66,5.93,5.07
				v1.93h-7.16c-6.19,0-9.33,3.25-9.33,7.79c0,2.3,0.74,4.38,2.13,5.82c1.65,1.65,3.89,2.45,7.26,2.45s5.23-0.8,7.21-2.77v2.45
				H599.4z M572.98,555.53v-4.64h-2.4c-2.19,0-2.94-1.07-2.94-3.15v-30.21h-5.43v30.53c0,4,2.24,7.47,7.41,7.47H572.98z
				 M554.78,544.16h-5.82c-0.91,3.85-3.52,6.52-7.74,6.52c-2.24,0-4.27-0.85-5.6-2.3c-1.87-2.03-2.3-4.22-2.3-11.85
				c0-7.64,0.43-9.83,2.3-11.86c1.33-1.44,3.36-2.3,5.6-2.3c4.22,0,6.78,2.67,7.69,6.52h5.87c-1.33-7.58-6.56-11.69-13.56-11.69
				c-3.95,0-7.37,1.44-9.98,4.05c-3.73,3.74-3.68,7.96-3.68,15.27c0,7.31-0.05,11.53,3.68,15.27c2.61,2.61,6.03,4.05,9.98,4.05
				C548.11,555.85,553.5,551.74,554.78,544.16 M510.26,513.58h-5.23l-15.22,45.9h5.23L510.26,513.58z M467.51,544.38
				c0,4.06-2.4,6.62-5.82,6.62c-3.42,0-5.77-2.57-5.77-6.62c0-4.11,2.35-6.57,5.77-6.57C465.32,537.81,467.51,540.64,467.51,544.38
				 M472.95,544.27c0-6.68-4.48-10.99-9.98-10.99c-1.17,0-2.35,0.16-3.37,0.58l8.18-16.33h-5.82l-8.65,17.62
				c-1.66,3.3-2.83,6.24-2.83,9.34c0,7.05,4.69,11.37,11.26,11.37C468.31,555.85,472.95,551.27,472.95,544.27 M425.33,539.79h-12.17
				c0.06-1.66,0.16-2.46,0.7-3.69c0.85-2.03,2.83-3.42,5.39-3.42s4.48,1.39,5.34,3.42C425.12,537.33,425.28,538.13,425.33,539.79
				 M430.72,543.57v-2.4c0-7.69-4.22-13.02-11.48-13.02c-6.94,0-11.47,5.06-11.47,13.82c0,10.31,5.38,13.88,12.17,13.88
				c4.75,0,7.37-1.44,10.14-4.21l-3.47-3.26c-1.92,1.92-3.52,2.78-6.56,2.78c-4.43,0-6.89-2.94-6.89-7.59H430.72z M402.01,547.26
				c0-4.8-2.99-7.21-8.06-7.64l-4.27-0.37c-2.88-0.27-3.74-1.49-3.74-3.1c0-2.03,1.65-3.47,4.91-3.47c2.56,0,4.96,0.53,6.67,1.98
				l3.42-3.47c-2.51-2.19-5.98-3.03-10.04-3.03c-5.66,0-10.19,2.98-10.19,8.27c0,4.75,2.93,7.05,8.01,7.48l4.32,0.37
				c2.62,0.21,3.63,1.39,3.63,3.2c0,2.57-2.61,3.74-5.92,3.74c-2.67,0-5.61-0.59-7.79-2.83l-3.58,3.57
				c3.2,3.15,6.94,3.89,11.37,3.89C397.2,555.85,402.01,552.92,402.01,547.26 M375.16,547.26c0-4.8-2.99-7.21-8.06-7.64l-4.27-0.37
				c-2.88-0.27-3.74-1.49-3.74-3.1c0-2.03,1.66-3.47,4.91-3.47c2.56,0,4.97,0.53,6.68,1.98l3.42-3.47
				c-2.51-2.19-5.98-3.03-10.04-3.03c-5.66,0-10.2,2.98-10.2,8.27c0,4.75,2.94,7.05,8.01,7.48l4.33,0.37
				c2.61,0.21,3.63,1.39,3.63,3.2c0,2.57-2.62,3.74-5.93,3.74c-2.67,0-5.6-0.59-7.79-2.83l-3.57,3.57c3.2,3.15,6.94,3.89,11.37,3.89
				C370.35,555.85,375.16,552.92,375.16,547.26 M340.78,545.77c0,1.92-0.37,3.2-1.17,4.01c-1.44,1.39-2.99,1.55-5.07,1.55
				c-3.42,0-4.97-1.39-4.97-3.85c0-2.46,1.66-3.9,4.86-3.9h6.36V545.77z M346.22,555.53v-18.09c0-6.14-3.73-9.28-11.15-9.28
				c-4.48,0-7.15,0.9-9.71,3.89l3.57,3.37c1.49-1.92,2.94-2.62,5.93-2.62c4.22,0,5.93,1.66,5.93,5.07v1.93h-7.15
				c-6.19,0-9.34,3.25-9.34,7.79c0,2.3,0.75,4.38,2.14,5.82c1.65,1.65,3.89,2.45,7.25,2.45c3.37,0,5.24-0.8,7.21-2.77v2.45H346.22z
				 M319.8,555.53v-4.64h-2.4c-2.19,0-2.93-1.07-2.93-3.15v-30.21h-5.44v30.53c0,4,2.24,7.47,7.41,7.47H319.8z M303.78,555.53
				l-13.62-23.11l12.33-14.89h-7.05l-15.53,19.11v-19.11h-5.76v38h5.76v-11.05l6.41-7.69l10.68,18.73H303.78z"/>
		</g>
		<g style="clip-path:url(#SVGID_00000125590794552840277010000001044716070029218234_);">
			<path class="st3" d="M726.66,399.89v-4.85h-22.63v10.83h5.23v-5.98h11.59l-12.76,33.15h5.87L726.66,399.89z M678.51,417.3h-12.17
				c0.05-1.66,0.16-2.46,0.69-3.69c0.85-2.03,2.83-3.42,5.39-3.42c2.56,0,4.48,1.39,5.34,3.42
				C678.3,414.83,678.46,415.64,678.51,417.3 M683.9,421.08v-2.4c0-7.69-4.21-13.02-11.47-13.02c-6.94,0-11.47,5.06-11.47,13.82
				c0,10.3,5.39,13.87,12.17,13.87c4.75,0,7.37-1.44,10.14-4.21l-3.47-3.26c-1.92,1.92-3.52,2.78-6.57,2.78
				c-4.43,0-6.88-2.94-6.88-7.59H683.9z M655.19,424.76c0-4.8-2.99-7.21-8.06-7.64l-4.27-0.37c-2.88-0.27-3.74-1.49-3.74-3.1
				c0-2.03,1.66-3.47,4.91-3.47c2.56,0,4.97,0.53,6.68,1.98l3.42-3.47c-2.51-2.19-5.98-3.03-10.04-3.03c-5.66,0-10.2,2.98-10.2,8.27
				c0,4.75,2.94,7.05,8.01,7.48l4.33,0.37c2.61,0.21,3.63,1.39,3.63,3.2c0,2.57-2.62,3.74-5.93,3.74c-2.67,0-5.6-0.59-7.79-2.83
				l-3.57,3.58c3.2,3.14,6.94,3.89,11.37,3.89C650.39,433.36,655.19,430.42,655.19,424.76 M628.34,424.76c0-4.8-2.99-7.21-8.06-7.64
				l-4.27-0.37c-2.88-0.27-3.74-1.49-3.74-3.1c0-2.03,1.65-3.47,4.91-3.47c2.56,0,4.96,0.53,6.67,1.98l3.42-3.47
				c-2.51-2.19-5.98-3.03-10.04-3.03c-5.66,0-10.19,2.98-10.19,8.27c0,4.75,2.93,7.05,8.01,7.48l4.32,0.37
				c2.62,0.21,3.63,1.39,3.63,3.2c0,2.57-2.61,3.74-5.92,3.74c-2.67,0-5.61-0.59-7.79-2.83l-3.58,3.58
				c3.2,3.14,6.94,3.89,11.37,3.89C623.53,433.36,628.34,430.42,628.34,424.76 M593.96,423.27c0,1.92-0.37,3.2-1.17,4.01
				c-1.44,1.39-2.99,1.55-5.07,1.55c-3.42,0-4.97-1.39-4.97-3.85s1.66-3.9,4.86-3.9h6.36V423.27z M599.4,433.04v-18.09
				c0-6.14-3.73-9.28-11.15-9.28c-4.49,0-7.15,0.9-9.72,3.89l3.57,3.37c1.49-1.92,2.94-2.62,5.93-2.62c4.22,0,5.93,1.66,5.93,5.07
				v1.93h-7.16c-6.19,0-9.33,3.25-9.33,7.79c0,2.3,0.74,4.38,2.13,5.82c1.65,1.65,3.89,2.45,7.26,2.45s5.23-0.8,7.21-2.77v2.45
				H599.4z M572.98,433.04v-4.64h-2.4c-2.19,0-2.94-1.07-2.94-3.15v-30.21h-5.43v30.53c0,4,2.24,7.47,7.41,7.47H572.98z
				 M554.78,421.67h-5.82c-0.91,3.85-3.52,6.52-7.74,6.52c-2.24,0-4.27-0.85-5.6-2.3c-1.87-2.03-2.3-4.22-2.3-11.85
				c0-7.64,0.43-9.83,2.3-11.86c1.33-1.44,3.36-2.29,5.6-2.29c4.22,0,6.78,2.67,7.69,6.51h5.87c-1.33-7.58-6.56-11.69-13.56-11.69
				c-3.95,0-7.37,1.44-9.98,4.05c-3.73,3.74-3.68,7.96-3.68,15.27c0,7.31-0.05,11.53,3.68,15.27c2.61,2.61,6.03,4.05,9.98,4.05
				C548.11,433.36,553.5,429.25,554.78,421.67 M510.26,391.08h-5.23l-15.22,45.9h5.23L510.26,391.08z M473.49,399.89v-4.85h-22.63
				v10.83h5.23v-5.98h11.58l-12.76,33.15h5.87L473.49,399.89z M425.33,417.3h-12.17c0.06-1.66,0.16-2.46,0.7-3.69
				c0.85-2.03,2.83-3.42,5.39-3.42s4.48,1.39,5.34,3.42C425.12,414.83,425.28,415.64,425.33,417.3 M430.72,421.08v-2.4
				c0-7.69-4.22-13.02-11.48-13.02c-6.94,0-11.47,5.06-11.47,13.82c0,10.3,5.38,13.87,12.17,13.87c4.75,0,7.37-1.44,10.14-4.21
				l-3.47-3.26c-1.92,1.92-3.52,2.78-6.56,2.78c-4.43,0-6.89-2.94-6.89-7.59H430.72z M402.01,424.76c0-4.8-2.99-7.21-8.06-7.64
				l-4.27-0.37c-2.88-0.27-3.74-1.49-3.74-3.1c0-2.03,1.65-3.47,4.91-3.47c2.56,0,4.96,0.53,6.67,1.98l3.42-3.47
				c-2.51-2.19-5.98-3.03-10.04-3.03c-5.66,0-10.19,2.98-10.19,8.27c0,4.75,2.93,7.05,8.01,7.48l4.32,0.37
				c2.62,0.21,3.63,1.39,3.63,3.2c0,2.57-2.61,3.74-5.92,3.74c-2.67,0-5.61-0.59-7.79-2.83l-3.58,3.58
				c3.2,3.14,6.94,3.89,11.37,3.89C397.2,433.36,402.01,430.42,402.01,424.76 M375.16,424.76c0-4.8-2.99-7.21-8.06-7.64l-4.27-0.37
				c-2.88-0.27-3.74-1.49-3.74-3.1c0-2.03,1.66-3.47,4.91-3.47c2.56,0,4.97,0.53,6.68,1.98l3.42-3.47
				c-2.51-2.19-5.98-3.03-10.04-3.03c-5.66,0-10.2,2.98-10.2,8.27c0,4.75,2.94,7.05,8.01,7.48l4.33,0.37
				c2.61,0.21,3.63,1.39,3.63,3.2c0,2.57-2.62,3.74-5.93,3.74c-2.67,0-5.6-0.59-7.79-2.83l-3.57,3.58c3.2,3.14,6.94,3.89,11.37,3.89
				C370.35,433.36,375.16,430.42,375.16,424.76 M340.78,423.27c0,1.92-0.37,3.2-1.17,4.01c-1.44,1.39-2.99,1.55-5.07,1.55
				c-3.42,0-4.97-1.39-4.97-3.85s1.66-3.9,4.86-3.9h6.36V423.27z M346.22,433.04v-18.09c0-6.14-3.73-9.28-11.15-9.28
				c-4.48,0-7.15,0.9-9.71,3.89l3.57,3.37c1.49-1.92,2.94-2.62,5.93-2.62c4.22,0,5.93,1.66,5.93,5.07v1.93h-7.15
				c-6.19,0-9.34,3.25-9.34,7.79c0,2.3,0.75,4.38,2.14,5.82c1.65,1.65,3.89,2.45,7.25,2.45c3.37,0,5.24-0.8,7.21-2.77v2.45H346.22z
				 M319.8,433.04v-4.64h-2.4c-2.19,0-2.93-1.07-2.93-3.15v-30.21h-5.44v30.53c0,4,2.24,7.47,7.41,7.47H319.8z M303.78,433.04
				l-13.62-23.11l12.33-14.89h-7.05l-15.53,19.11v-19.11h-5.76v38h5.76v-11.05l6.41-7.69l10.68,18.73H303.78z"/>
		</g>
		<g style="clip-path:url(#SVGID_00000125590794552840277010000001044716070029218234_);">
			<path class="st3" d="M720.53,289.92c0,3.36-2.35,5.77-5.66,5.77c-3.32,0-5.61-2.4-5.61-5.77c0-3.32,2.29-5.82,5.61-5.82
				C718.18,284.1,720.53,286.6,720.53,289.92 M721.12,306.73c0,3.52-2.73,6.3-6.25,6.3c-3.53,0-6.25-2.78-6.25-6.3
				c0-3.52,2.72-6.36,6.25-6.36C718.39,300.37,721.12,303.21,721.12,306.73 M726.61,306.84c0-4.54-2.56-7.32-5.23-8.91
				c2.46-1.49,4.59-4.16,4.59-8.17c0-6.36-4.91-10.51-11.1-10.51c-6.2,0-11.05,4.16-11.05,10.51c0,4.01,2.13,6.68,4.59,8.17
				c-2.67,1.6-5.23,4.37-5.23,8.91c0,6.89,5.17,11.05,11.69,11.05C721.38,317.88,726.61,313.73,726.61,306.84 M678.51,301.82h-12.17
				c0.05-1.66,0.16-2.46,0.69-3.69c0.85-2.03,2.83-3.42,5.39-3.42c2.56,0,4.48,1.39,5.34,3.42
				C678.3,299.36,678.46,300.17,678.51,301.82 M683.9,305.61v-2.4c0-7.69-4.21-13.02-11.47-13.02c-6.94,0-11.47,5.06-11.47,13.82
				c0,10.3,5.39,13.87,12.17,13.87c4.75,0,7.37-1.44,10.14-4.21l-3.47-3.26c-1.92,1.92-3.52,2.78-6.57,2.78
				c-4.43,0-6.88-2.94-6.88-7.59H683.9z M655.19,309.29c0-4.8-2.99-7.21-8.06-7.64l-4.27-0.37c-2.88-0.27-3.74-1.49-3.74-3.1
				c0-2.03,1.66-3.47,4.91-3.47c2.56,0,4.97,0.53,6.68,1.98l3.42-3.47c-2.51-2.19-5.98-3.03-10.04-3.03c-5.66,0-10.2,2.98-10.2,8.27
				c0,4.75,2.94,7.05,8.01,7.48l4.33,0.37c2.61,0.21,3.63,1.39,3.63,3.2c0,2.57-2.62,3.74-5.93,3.74c-2.67,0-5.6-0.59-7.79-2.83
				l-3.57,3.58c3.2,3.14,6.94,3.89,11.37,3.89C650.39,317.88,655.19,314.95,655.19,309.29 M628.34,309.29c0-4.8-2.99-7.21-8.06-7.64
				l-4.27-0.37c-2.88-0.27-3.74-1.49-3.74-3.1c0-2.03,1.65-3.47,4.91-3.47c2.56,0,4.96,0.53,6.67,1.98l3.42-3.47
				c-2.51-2.19-5.98-3.03-10.04-3.03c-5.66,0-10.19,2.98-10.19,8.27c0,4.75,2.93,7.05,8.01,7.48l4.32,0.37
				c2.62,0.21,3.63,1.39,3.63,3.2c0,2.57-2.61,3.74-5.92,3.74c-2.67,0-5.61-0.59-7.79-2.83l-3.58,3.58
				c3.2,3.14,6.94,3.89,11.37,3.89C623.53,317.88,628.34,314.95,628.34,309.29 M593.96,307.8c0,1.92-0.37,3.2-1.17,4.01
				c-1.44,1.39-2.99,1.55-5.07,1.55c-3.42,0-4.97-1.39-4.97-3.85s1.66-3.9,4.86-3.9h6.36V307.8z M599.4,317.56v-18.09
				c0-6.14-3.73-9.28-11.15-9.28c-4.49,0-7.15,0.9-9.72,3.89l3.57,3.37c1.49-1.92,2.94-2.62,5.93-2.62c4.22,0,5.93,1.66,5.93,5.07
				v1.93h-7.16c-6.19,0-9.33,3.25-9.33,7.79c0,2.3,0.74,4.38,2.13,5.82c1.65,1.65,3.89,2.45,7.26,2.45s5.23-0.8,7.21-2.77v2.45
				H599.4z M572.98,317.56v-4.64h-2.4c-2.19,0-2.94-1.07-2.94-3.15v-30.21h-5.43v30.53c0,4,2.24,7.47,7.41,7.47H572.98z
				 M554.78,306.2h-5.82c-0.91,3.85-3.52,6.52-7.74,6.52c-2.24,0-4.27-0.85-5.6-2.3c-1.87-2.03-2.3-4.22-2.3-11.85
				c0-7.64,0.43-9.83,2.3-11.86c1.33-1.44,3.36-2.29,5.6-2.29c4.22,0,6.78,2.67,7.69,6.51h5.87c-1.33-7.58-6.56-11.69-13.56-11.69
				c-3.95,0-7.37,1.44-9.98,4.05c-3.73,3.74-3.68,7.96-3.68,15.27c0,7.31-0.05,11.53,3.68,15.27c2.61,2.61,6.03,4.05,9.98,4.05
				C548.11,317.88,553.5,313.78,554.78,306.2 M510.26,275.61h-5.23l-15.22,45.9h5.23L510.26,275.61z M467.35,289.92
				c0,3.36-2.35,5.77-5.66,5.77c-3.31,0-5.61-2.4-5.61-5.77c0-3.32,2.3-5.82,5.61-5.82C465,284.1,467.35,286.6,467.35,289.92
				 M467.93,306.73c0,3.52-2.73,6.3-6.25,6.3c-3.52,0-6.25-2.78-6.25-6.3c0-3.52,2.73-6.36,6.25-6.36
				C465.21,300.37,467.93,303.21,467.93,306.73 M473.42,306.84c0-4.54-2.56-7.32-5.22-8.91c2.45-1.49,4.59-4.16,4.59-8.17
				c0-6.36-4.91-10.51-11.1-10.51c-6.19,0-11.05,4.16-11.05,10.51c0,4.01,2.14,6.68,4.59,8.17c-2.66,1.6-5.23,4.37-5.23,8.91
				c0,6.89,5.18,11.05,11.69,11.05C468.2,317.88,473.42,313.73,473.42,306.84 M425.33,301.82h-12.17c0.06-1.66,0.16-2.46,0.7-3.69
				c0.85-2.03,2.83-3.42,5.39-3.42s4.48,1.39,5.34,3.42C425.12,299.36,425.28,300.17,425.33,301.82 M430.72,305.61v-2.4
				c0-7.69-4.22-13.02-11.48-13.02c-6.94,0-11.47,5.06-11.47,13.82c0,10.3,5.38,13.87,12.17,13.87c4.75,0,7.37-1.44,10.14-4.21
				l-3.47-3.26c-1.92,1.92-3.52,2.78-6.56,2.78c-4.43,0-6.89-2.94-6.89-7.59H430.72z M402.01,309.29c0-4.8-2.99-7.21-8.06-7.64
				l-4.27-0.37c-2.88-0.27-3.74-1.49-3.74-3.1c0-2.03,1.65-3.47,4.91-3.47c2.56,0,4.96,0.53,6.67,1.98l3.42-3.47
				c-2.51-2.19-5.98-3.03-10.04-3.03c-5.66,0-10.19,2.98-10.19,8.27c0,4.75,2.93,7.05,8.01,7.48l4.32,0.37
				c2.62,0.21,3.63,1.39,3.63,3.2c0,2.57-2.61,3.74-5.92,3.74c-2.67,0-5.61-0.59-7.79-2.83l-3.58,3.58
				c3.2,3.14,6.94,3.89,11.37,3.89C397.2,317.88,402.01,314.95,402.01,309.29 M375.16,309.29c0-4.8-2.99-7.21-8.06-7.64l-4.27-0.37
				c-2.88-0.27-3.74-1.49-3.74-3.1c0-2.03,1.66-3.47,4.91-3.47c2.56,0,4.97,0.53,6.68,1.98l3.42-3.47
				c-2.51-2.19-5.98-3.03-10.04-3.03c-5.66,0-10.2,2.98-10.2,8.27c0,4.75,2.94,7.05,8.01,7.48l4.33,0.37
				c2.61,0.21,3.63,1.39,3.63,3.2c0,2.57-2.62,3.74-5.93,3.74c-2.67,0-5.6-0.59-7.79-2.83l-3.57,3.58c3.2,3.14,6.94,3.89,11.37,3.89
				C370.35,317.88,375.16,314.95,375.16,309.29 M340.78,307.8c0,1.92-0.37,3.2-1.17,4.01c-1.44,1.39-2.99,1.55-5.07,1.55
				c-3.42,0-4.97-1.39-4.97-3.85s1.66-3.9,4.86-3.9h6.36V307.8z M346.22,317.56v-18.09c0-6.14-3.73-9.28-11.15-9.28
				c-4.48,0-7.15,0.9-9.71,3.89l3.57,3.37c1.49-1.92,2.94-2.62,5.93-2.62c4.22,0,5.93,1.66,5.93,5.07v1.93h-7.15
				c-6.19,0-9.34,3.25-9.34,7.79c0,2.3,0.75,4.38,2.14,5.82c1.65,1.65,3.89,2.45,7.25,2.45c3.37,0,5.24-0.8,7.21-2.77v2.45H346.22z
				 M319.8,317.56v-4.64h-2.4c-2.19,0-2.93-1.07-2.93-3.15v-30.21h-5.44v30.53c0,4,2.24,7.47,7.41,7.47H319.8z M303.78,317.56
				l-13.62-23.11l12.33-14.89h-7.05l-15.53,19.11v-19.11h-5.76v38h5.76v-11.05l6.41-7.69l10.68,18.73H303.78z"/>
		</g>
		<g style="clip-path:url(#SVGID_00000125590794552840277010000001044716070029218234_);">
			<path class="st3" d="M720.69,175.24c0,4.11-2.41,6.57-5.82,6.57c-3.64,0-5.77-2.83-5.77-6.57c0-4.06,2.35-6.62,5.77-6.62
				C718.29,168.62,720.69,171.19,720.69,175.24 M726.13,175.14c0-7.05-4.69-11.37-11.26-11.37c-6.57,0-11.21,4.59-11.21,11.58
				c0,6.68,4.43,11,9.92,11c1.18,0,2.4-0.16,3.42-0.59l-8.17,16.33h5.82l8.65-17.62C724.96,181.17,726.13,178.23,726.13,175.14
				 M678.51,186.35h-12.17c0.05-1.66,0.16-2.46,0.69-3.69c0.85-2.03,2.83-3.42,5.39-3.42c2.56,0,4.48,1.39,5.34,3.42
				C678.3,183.89,678.46,184.69,678.51,186.35 M683.9,190.13v-2.4c0-7.69-4.21-13.02-11.47-13.02c-6.94,0-11.47,5.06-11.47,13.82
				c0,10.3,5.39,13.87,12.17,13.87c4.75,0,7.37-1.44,10.14-4.21l-3.47-3.26c-1.92,1.92-3.52,2.78-6.57,2.78
				c-4.43,0-6.88-2.94-6.88-7.59H683.9z M655.19,193.82c0-4.8-2.99-7.21-8.06-7.64l-4.27-0.37c-2.88-0.27-3.74-1.49-3.74-3.1
				c0-2.03,1.66-3.47,4.91-3.47c2.56,0,4.97,0.53,6.68,1.98l3.42-3.47c-2.51-2.19-5.98-3.03-10.04-3.03c-5.66,0-10.2,2.98-10.2,8.27
				c0,4.75,2.94,7.05,8.01,7.48l4.33,0.37c2.61,0.21,3.63,1.39,3.63,3.2c0,2.57-2.62,3.74-5.93,3.74c-2.67,0-5.6-0.59-7.79-2.83
				l-3.57,3.58c3.2,3.14,6.94,3.89,11.37,3.89C650.39,202.41,655.19,199.48,655.19,193.82 M628.34,193.82c0-4.8-2.99-7.21-8.06-7.64
				l-4.27-0.37c-2.88-0.27-3.74-1.49-3.74-3.1c0-2.03,1.65-3.47,4.91-3.47c2.56,0,4.96,0.53,6.67,1.98l3.42-3.47
				c-2.51-2.19-5.98-3.03-10.04-3.03c-5.66,0-10.19,2.98-10.19,8.27c0,4.75,2.93,7.05,8.01,7.48l4.32,0.37
				c2.62,0.21,3.63,1.39,3.63,3.2c0,2.57-2.61,3.74-5.92,3.74c-2.67,0-5.61-0.59-7.79-2.83l-3.58,3.58
				c3.2,3.14,6.94,3.89,11.37,3.89C623.53,202.41,628.34,199.48,628.34,193.82 M593.96,192.32c0,1.92-0.37,3.2-1.17,4.01
				c-1.44,1.39-2.99,1.55-5.07,1.55c-3.42,0-4.97-1.39-4.97-3.85c0-2.46,1.66-3.9,4.86-3.9h6.36V192.32z M599.4,202.09V184
				c0-6.14-3.73-9.28-11.15-9.28c-4.49,0-7.15,0.9-9.72,3.89l3.57,3.37c1.49-1.92,2.94-2.62,5.93-2.62c4.22,0,5.93,1.66,5.93,5.07
				v1.93h-7.16c-6.19,0-9.33,3.25-9.33,7.79c0,2.3,0.74,4.38,2.13,5.82c1.65,1.65,3.89,2.45,7.26,2.45s5.23-0.8,7.21-2.77v2.45
				H599.4z M572.98,202.09v-4.64h-2.4c-2.19,0-2.94-1.07-2.94-3.15v-30.21h-5.43v30.53c0,4,2.24,7.47,7.41,7.47H572.98z
				 M554.78,190.72h-5.82c-0.91,3.85-3.52,6.52-7.74,6.52c-2.24,0-4.27-0.85-5.6-2.3c-1.87-2.03-2.3-4.22-2.3-11.85
				c0-7.64,0.43-9.83,2.3-11.86c1.33-1.44,3.36-2.29,5.6-2.29c4.22,0,6.78,2.67,7.69,6.51h5.87c-1.33-7.58-6.56-11.69-13.56-11.69
				c-3.95,0-7.37,1.44-9.98,4.05c-3.73,3.74-3.68,7.96-3.68,15.27c0,7.31-0.05,11.53,3.68,15.27c2.61,2.61,6.03,4.05,9.98,4.05
				C548.11,202.41,553.5,198.3,554.78,190.72 M510.26,160.14h-5.23l-15.22,45.9h5.23L510.26,160.14z M467.51,175.24
				c0,4.11-2.4,6.57-5.82,6.57c-3.63,0-5.77-2.83-5.77-6.57c0-4.06,2.35-6.62,5.77-6.62C465.1,168.62,467.51,171.19,467.51,175.24
				 M472.95,175.14c0-7.05-4.69-11.37-11.26-11.37c-6.57,0-11.2,4.59-11.2,11.58c0,6.68,4.42,11,9.92,11c1.17,0,2.4-0.16,3.42-0.59
				l-8.17,16.33h5.82l8.65-17.62C471.77,181.17,472.95,178.23,472.95,175.14 M425.33,186.35h-12.17c0.06-1.66,0.16-2.46,0.7-3.69
				c0.85-2.03,2.83-3.42,5.39-3.42s4.48,1.39,5.34,3.42C425.12,183.89,425.28,184.69,425.33,186.35 M430.72,190.13v-2.4
				c0-7.69-4.22-13.02-11.48-13.02c-6.94,0-11.47,5.06-11.47,13.82c0,10.3,5.38,13.87,12.17,13.87c4.75,0,7.37-1.44,10.14-4.21
				l-3.47-3.26c-1.92,1.92-3.52,2.78-6.56,2.78c-4.43,0-6.89-2.94-6.89-7.59H430.72z M402.01,193.82c0-4.8-2.99-7.21-8.06-7.64
				l-4.27-0.37c-2.88-0.27-3.74-1.49-3.74-3.1c0-2.03,1.65-3.47,4.91-3.47c2.56,0,4.96,0.53,6.67,1.98l3.42-3.47
				c-2.51-2.19-5.98-3.03-10.04-3.03c-5.66,0-10.19,2.98-10.19,8.27c0,4.75,2.93,7.05,8.01,7.48l4.32,0.37
				c2.62,0.21,3.63,1.39,3.63,3.2c0,2.57-2.61,3.74-5.92,3.74c-2.67,0-5.61-0.59-7.79-2.83l-3.58,3.58
				c3.2,3.14,6.94,3.89,11.37,3.89C397.2,202.41,402.01,199.48,402.01,193.82 M375.16,193.82c0-4.8-2.99-7.21-8.06-7.64l-4.27-0.37
				c-2.88-0.27-3.74-1.49-3.74-3.1c0-2.03,1.66-3.47,4.91-3.47c2.56,0,4.97,0.53,6.68,1.98l3.42-3.47
				c-2.51-2.19-5.98-3.03-10.04-3.03c-5.66,0-10.2,2.98-10.2,8.27c0,4.75,2.94,7.05,8.01,7.48l4.33,0.37
				c2.61,0.21,3.63,1.39,3.63,3.2c0,2.57-2.62,3.74-5.93,3.74c-2.67,0-5.6-0.59-7.79-2.83l-3.57,3.58c3.2,3.14,6.94,3.89,11.37,3.89
				C370.35,202.41,375.16,199.48,375.16,193.82 M340.78,192.32c0,1.92-0.37,3.2-1.17,4.01c-1.44,1.39-2.99,1.55-5.07,1.55
				c-3.42,0-4.97-1.39-4.97-3.85c0-2.46,1.66-3.9,4.86-3.9h6.36V192.32z M346.22,202.09V184c0-6.14-3.73-9.28-11.15-9.28
				c-4.48,0-7.15,0.9-9.71,3.89l3.57,3.37c1.49-1.92,2.94-2.62,5.93-2.62c4.22,0,5.93,1.66,5.93,5.07v1.93h-7.15
				c-6.19,0-9.34,3.25-9.34,7.79c0,2.3,0.75,4.38,2.14,5.82c1.65,1.65,3.89,2.45,7.25,2.45c3.37,0,5.24-0.8,7.21-2.77v2.45H346.22z
				 M319.8,202.09v-4.64h-2.4c-2.19,0-2.93-1.07-2.93-3.15v-30.21h-5.44v30.53c0,4,2.24,7.47,7.41,7.47H319.8z M303.78,202.09
				l-13.62-23.11l12.33-14.89h-7.05l-15.53,19.11v-19.11h-5.76v38h5.76v-11.05l6.41-7.69l10.68,18.73H303.78z"/>
		</g>
	</g>
	<g>
		<polygon class="st4" points="21.91,638.98 37.98,638.98 29.95,628.35 		"/>
	</g>
	<g>
		<polygon class="st4" points="21.91,660.11 37.98,660.11 29.95,649.49 		"/>
	</g>
	<g>
		<polygon class="st4" points="21.91,681.25 37.98,681.25 29.95,670.62 		"/>
	</g>
	<g>
		<polygon class="st4" points="21.91,617.84 37.98,617.84 29.95,607.22 		"/>
	</g>
	<g>
		<polygon class="st4" points="21.91,523.5 37.98,523.5 29.95,512.88 		"/>
	</g>
	<g>
		<polygon class="st4" points="21.91,544.64 37.98,544.64 29.95,534.01 		"/>
	</g>
	<g>
		<polygon class="st4" points="21.91,565.77 37.98,565.77 29.95,555.15 		"/>
	</g>
	<g>
		<polygon class="st4" points="21.91,502.37 37.98,502.37 29.95,491.74 		"/>
	</g>
	<g>
		<polygon class="st4" points="21.91,403.82 37.98,403.82 29.95,393.19 		"/>
	</g>
	<g>
		<polygon class="st4" points="21.91,424.95 37.98,424.95 29.95,414.32 		"/>
	</g>
	<g>
		<polygon class="st4" points="21.91,446.09 37.98,446.09 29.95,435.46 		"/>
	</g>
	<g>
		<polygon class="st4" points="21.91,382.68 37.98,382.68 29.95,372.05 		"/>
	</g>
	<g>
		<polygon class="st4" points="21.91,285.53 37.98,285.53 29.95,274.91 		"/>
	</g>
	<g>
		<polygon class="st4" points="21.91,306.67 37.98,306.67 29.95,296.04 		"/>
	</g>
	<g>
		<polygon class="st4" points="21.91,327.8 37.98,327.8 29.95,317.18 		"/>
	</g>
	<g>
		<polygon class="st4" points="21.91,264.4 37.98,264.4 29.95,253.77 		"/>
	</g>
	<g>
		<polygon class="st4" points="21.91,170.06 37.98,170.06 29.95,159.44 		"/>
	</g>
	<g>
		<polygon class="st4" points="21.91,191.2 37.98,191.2 29.95,180.57 		"/>
	</g>
	<g>
		<polygon class="st4" points="21.91,212.33 37.98,212.33 29.95,201.71 		"/>
	</g>
	<g>
		<polygon class="st4" points="21.91,148.93 37.98,148.93 29.95,138.3 		"/>
	</g>
</g>
</svg>
