<?xml version="1.0" encoding="utf-8"?>
<!-- Generator: Adobe Illustrator 26.2.1, SVG Export Plug-In . SVG Version: 6.00 Build 0)  -->
<svg version="1.1" id="Ebene_1" xmlns="http://www.w3.org/2000/svg" xmlns:xlink="http://www.w3.org/1999/xlink" x="0px" y="0px"
	 viewBox="0 0 1000 825.44" style="enable-background:new 0 0 1000 825.44;" xml:space="preserve">
<style type="text/css">
	.st0{fill:#A2B9E1;}
	.st1{fill:#6796CF;}
	.st2{clip-path:url(#SVGID_00000164476448637756924100000008069798013735643303_);}
	.st3{fill:#2B2961;}
	.st4{fill:#FFFFFF;}
	.st5{clip-path:url(#SVGID_00000106125407144750609710000010690766133423861394_);}
	.st6{clip-path:url(#SVGID_00000107590981174259412990000007094354334268859816_);}
	.st7{clip-path:url(#SVGID_00000121984993473120681270000015375208080394830238_);}
	.st8{clip-path:url(#SVGID_00000107581309859296928100000005404311568670339005_);}
	.st9{clip-path:url(#SVGID_00000089561271501592657740000015202323496241957534_);}
	.st10{opacity:0.52;clip-path:url(#SVGID_00000134949188043029698650000009533931680485542574_);}
	.st11{clip-path:url(#SVGID_00000034794278582329742910000003750385283507393412_);}
	.st12{clip-path:url(#SVGID_00000152975333021833880790000010931476115780450964_);}
	.st13{clip-path:url(#SVGID_00000132783005051731065890000000134417260885309096_);}
	.st14{clip-path:url(#SVGID_00000128462257389169537840000015464529669564886188_);}
	.st15{clip-path:url(#SVGID_00000148640940943630756140000017141125779367523739_);}
	.st16{clip-path:url(#SVGID_00000036237013080376496120000006050249564850563476_);}
	.st17{clip-path:url(#SVGID_00000119108270581446476760000011174209343228101534_);}
	.st18{clip-path:url(#SVGID_00000086657034931817313950000014867990283362555802_);}
	.st19{clip-path:url(#SVGID_00000016051513960422397550000007847675149616469121_);}
	.st20{clip-path:url(#SVGID_00000043427309037834591090000015562689367309420160_);}
	.st21{clip-path:url(#SVGID_00000113343345672361129700000015900799864953855384_);}
	.st22{clip-path:url(#SVGID_00000127736495766073477450000005182769193635477900_);}
	.st23{fill:none;stroke:#2B2961;stroke-width:0.374;stroke-linejoin:round;stroke-miterlimit:10;}
	.st24{fill:none;stroke:#2B2961;stroke-width:0.4;stroke-miterlimit:10;}
	.st25{clip-path:url(#SVGID_00000046337549241766468460000005632106107891428227_);}
	.st26{clip-path:url(#SVGID_00000107582090059912478030000008758771917541328564_);}
	.st27{clip-path:url(#SVGID_00000141418256576298231610000005310230300315020726_);}
	.st28{clip-path:url(#SVGID_00000129201789590757449400000007394404624907972745_);}
	.st29{clip-path:url(#SVGID_00000151531922178898856030000005202442110841580467_);}
	.st30{clip-path:url(#SVGID_00000105417838119847590990000000335219809614351013_);}
	.st31{clip-path:url(#SVGID_00000091715962666828125870000002696999151436274107_);}
	.st32{clip-path:url(#SVGID_00000112593612088652178740000003759896837711049111_);}
	.st33{clip-path:url(#SVGID_00000080167847046606196730000017076295679739852181_);}
	.st34{clip-path:url(#SVGID_00000103947933886948330440000017611303000919947168_);}
	.st35{clip-path:url(#SVGID_00000063633431422234023250000012750501388717862285_);}
	.st36{clip-path:url(#SVGID_00000030484034605330721780000003031608563559471511_);}
	.st37{clip-path:url(#SVGID_00000121264349514441271650000004417693639102331562_);}
	.st38{clip-path:url(#SVGID_00000078753394058650946590000007267291154642387588_);}
	.st39{clip-path:url(#SVGID_00000021830267565402256380000001612856536129667462_);}
	.st40{clip-path:url(#SVGID_00000145755568123344577430000004464789541425919620_);}
	.st41{clip-path:url(#SVGID_00000172410985556119018590000001253491735322962828_);}
	.st42{clip-path:url(#SVGID_00000183935668920947110610000011677707341220637089_);}
	.st43{clip-path:url(#SVGID_00000141420894397493680900000000396686556934668966_);}
	.st44{clip-path:url(#SVGID_00000182506576956914451610000018045381951181971330_);}
	.st45{clip-path:url(#SVGID_00000080901370789878735470000007136998592718287021_);}
	.st46{clip-path:url(#SVGID_00000000188650567589971500000008663333927709145277_);}
	.st47{clip-path:url(#SVGID_00000162335524688642105580000010558786807348063423_);}
	.st48{clip-path:url(#SVGID_00000137847030288154999090000008007478907374346133_);}
	.st49{clip-path:url(#SVGID_00000115488592879987075820000013269836882295612587_);}
	.st50{clip-path:url(#SVGID_00000078758188833339401420000004527472065295593381_);}
	.st51{clip-path:url(#SVGID_00000050638860241267979850000006186009820425247371_);}
	.st52{clip-path:url(#SVGID_00000108993822610221792880000005606401271947925896_);}
	.st53{clip-path:url(#SVGID_00000080928026557535221670000003237975646976024218_);}
	.st54{clip-path:url(#SVGID_00000096024833621287940040000003381921999729607064_);}
	.st55{clip-path:url(#SVGID_00000115489343807367222140000007692718811147337875_);}
	.st56{clip-path:url(#SVGID_00000010311232257805345320000003312753705557515919_);}
	.st57{clip-path:url(#SVGID_00000060014719946353100610000011260071029181230502_);}
	.st58{clip-path:url(#SVGID_00000047049840338418678020000018321144660090862524_);}
	.st59{clip-path:url(#SVGID_00000093172698561504712910000002653043536859415171_);}
	.st60{clip-path:url(#SVGID_00000002380889599103037550000011762876798463505588_);}
	.st61{clip-path:url(#SVGID_00000181069196096338358720000018069662593402189230_);}
	.st62{fill:#9AB4DE;}
	.st63{clip-path:url(#SVGID_00000054965684674259334670000010854346028096869505_);}
	.st64{clip-path:url(#SVGID_00000027581816610396332420000016060759195335350930_);}
	.st65{clip-path:url(#SVGID_00000067936351344652331320000016125517044321193350_);}
	.st66{fill:#B9C9E9;}
	.st67{clip-path:url(#SVGID_00000165942436956041573200000017631055942534775979_);}
	.st68{clip-path:url(#SVGID_00000137121963338636723130000010933157192537297323_);}
	.st69{clip-path:url(#SVGID_00000181071255590542445750000011941401234484918718_);}
	.st70{clip-path:url(#SVGID_00000129198707471129894370000015854202946232106368_);}
	.st71{clip-path:url(#SVGID_00000150796103761309771900000004900186823561797284_);}
	.st72{clip-path:url(#SVGID_00000124851782837345909160000015456097150011851955_);}
	.st73{clip-path:url(#SVGID_00000120558054214276410470000010838204644650187145_);}
	.st74{clip-path:url(#SVGID_00000031906124545373825340000005112775177950386566_);}
	.st75{clip-path:url(#SVGID_00000081612512132303692660000007779470581816208008_);}
	.st76{clip-path:url(#SVGID_00000153663218420510431240000012868921856769419156_);}
	.st77{clip-path:url(#SVGID_00000054232876192251520410000006701981099625718972_);}
	.st78{clip-path:url(#SVGID_00000075847508372029236940000014774271129048600250_);}
	.st79{clip-path:url(#SVGID_00000030461058766067725980000011887259041142122156_);}
	.st80{clip-path:url(#SVGID_00000118369061254865840660000012487911780725937815_);}
	.st81{clip-path:url(#SVGID_00000097489734666043661860000001815085090090724485_);}
	.st82{clip-path:url(#SVGID_00000157266521039065985830000005173690699091410577_);}
	.st83{clip-path:url(#SVGID_00000088109215344417691330000002574764987495148947_);}
	.st84{clip-path:url(#SVGID_00000051351226032643745520000011331083160768073663_);}
	.st85{clip-path:url(#SVGID_00000149340044575632684350000012618071840117897658_);}
	.st86{clip-path:url(#SVGID_00000039128149030547886660000014087639094556066212_);}
	.st87{clip-path:url(#SVGID_00000031926794917070734250000005536135800381374134_);}
	.st88{clip-path:url(#SVGID_00000080903713959610727750000015732311653989056924_);}
	.st89{clip-path:url(#SVGID_00000136412634910990256270000003951235567320200593_);}
	.st90{clip-path:url(#SVGID_00000050661149980563594170000003508078261839565501_);}
	.st91{clip-path:url(#SVGID_00000112633077152939558470000011932151038826760884_);}
	.st92{clip-path:url(#SVGID_00000142139154196456736040000002565889899892935571_);}
	.st93{clip-path:url(#SVGID_00000126325964682706563470000010662950683528845747_);}
	.st94{clip-path:url(#SVGID_00000000942443770259029300000012751683375339245471_);}
	.st95{clip-path:url(#SVGID_00000142898078270923585780000010192625085865283506_);}
	.st96{clip-path:url(#SVGID_00000177461622212904784090000005799634924160460419_);}
	.st97{clip-path:url(#SVGID_00000062167154343181314880000000483890612501125035_);}
	.st98{clip-path:url(#SVGID_00000060710679090618993740000003058894405321824671_);}
	.st99{clip-path:url(#SVGID_00000016073216680028165830000011518078417836395431_);}
	.st100{clip-path:url(#SVGID_00000113314838949739717200000007043760198206723464_);}
	.st101{clip-path:url(#SVGID_00000128476362690723095410000002618013772260004487_);}
	.st102{clip-path:url(#SVGID_00000039117871025724851070000011789723040806198943_);}
	.st103{clip-path:url(#SVGID_00000119802550155458974750000017618011037744923034_);}
	.st104{clip-path:url(#SVGID_00000118375116084580519970000015676991666793277607_);}
	.st105{clip-path:url(#SVGID_00000057131056468279456850000008933733064063914676_);}
	.st106{clip-path:url(#SVGID_00000154420935553536154540000016130705142427236516_);}
	.st107{clip-path:url(#SVGID_00000170268760988671896650000015512441985169766842_);}
	.st108{clip-path:url(#SVGID_00000097480015659064586840000001420399123841941427_);}
	.st109{clip-path:url(#SVGID_00000070090927709354323010000004713677937699485085_);}
	.st110{clip-path:url(#SVGID_00000154412867163809774950000010147010279857719201_);}
	.st111{clip-path:url(#SVGID_00000102542024272470260820000009273104191999139759_);}
	.st112{clip-path:url(#SVGID_00000022527062457245294010000002203656033687222197_);}
	.st113{clip-path:url(#SVGID_00000026165807225071147760000012054802963726670771_);}
	.st114{clip-path:url(#SVGID_00000067224315253084019790000006728376017300536485_);}
	.st115{clip-path:url(#SVGID_00000173855612727958883990000007958852186362357403_);}
	.st116{clip-path:url(#SVGID_00000050631493422754110990000005258290097773446805_);}
	.st117{clip-path:url(#SVGID_00000057145372804642616380000010262873745130967986_);}
	.st118{clip-path:url(#SVGID_00000019669064636374060670000011660935910936968126_);}
	.st119{clip-path:url(#SVGID_00000096032033312399824670000008336717767947725440_);}
	.st120{clip-path:url(#SVGID_00000100369830321026608920000006658716601207663759_);}
	.st121{clip-path:url(#SVGID_00000063601278196240271780000002616076948766928537_);}
	.st122{clip-path:url(#SVGID_00000058572073253354275160000008884237351272722580_);}
	.st123{clip-path:url(#SVGID_00000072280742297758971950000010307800434979611311_);}
	.st124{clip-path:url(#SVGID_00000011713521354452931020000008869178504542714017_);}
	.st125{clip-path:url(#SVGID_00000128462551248120149840000003433303767986406534_);}
	.st126{clip-path:url(#SVGID_00000044880007581685843940000015506499127527438227_);}
	.st127{clip-path:url(#SVGID_00000148652018971011883450000005126260973235742605_);}
	.st128{clip-path:url(#SVGID_00000181803733287787109510000015331649644985442720_);}
	.st129{clip-path:url(#SVGID_00000031912279187886064680000016181970674600702378_);}
	.st130{clip-path:url(#SVGID_00000007386546402186682910000013944456674557463447_);}
	.st131{clip-path:url(#SVGID_00000008854911607493001630000016402066844684202127_);}
	.st132{clip-path:url(#SVGID_00000163034323898093083730000000692288803098852736_);}
	.st133{clip-path:url(#SVGID_00000179617057272289020310000012290495195533297049_);}
	.st134{clip-path:url(#SVGID_00000124848352870862459790000002555129222678420905_);}
	.st135{clip-path:url(#SVGID_00000065774118849080227750000011858252873221921969_);}
	.st136{clip-path:url(#SVGID_00000123403471762061610930000014931811771644056705_);}
	.st137{clip-path:url(#SVGID_00000075130067846936242740000013938440372022337161_);}
	.st138{clip-path:url(#SVGID_00000062171150116550436200000003946402924802789028_);}
	.st139{clip-path:url(#SVGID_00000097499010194969259830000003018634674754914998_);}
	.st140{clip-path:url(#SVGID_00000169557515906191384090000011438790282357435806_);}
	.st141{clip-path:url(#SVGID_00000151531682074876038350000016710873655962967452_);}
	.st142{clip-path:url(#SVGID_00000106861902898478508960000013601911789279582135_);}
	.st143{clip-path:url(#SVGID_00000128463633769704615770000005254193006954597028_);}
	.st144{clip-path:url(#SVGID_00000175297418103844501280000013133730064199477148_);}
	.st145{clip-path:url(#SVGID_00000123430050253619835150000014211873932730786221_);}
	.st146{clip-path:url(#SVGID_00000075142984788896829040000008879288978005750717_);}
	.st147{clip-path:url(#SVGID_00000041282318586402808500000014505472081581956774_);}
	.st148{clip-path:url(#SVGID_00000022538829698734136220000017180043764869758105_);}
	.st149{clip-path:url(#SVGID_00000070086532427390612300000007895015760914147220_);}
	.st150{clip-path:url(#SVGID_00000081624261983699303610000017768464916615588795_);}
	.st151{clip-path:url(#SVGID_00000160174909972527309690000002044086632230639744_);}
	.st152{clip-path:url(#SVGID_00000015348833612654353220000014219696853030874805_);}
	.st153{clip-path:url(#SVGID_00000098200983201843680440000013255465392077464223_);}
	.st154{clip-path:url(#SVGID_00000012466494101637840590000010746567502087994767_);}
	.st155{clip-path:url(#SVGID_00000016762661531638474900000013525270966187187595_);}
	.st156{clip-path:url(#SVGID_00000044875919667969155020000002768559999778799525_);}
	.st157{clip-path:url(#SVGID_00000172442544223328430570000009162683417973474211_);}
	.st158{clip-path:url(#SVGID_00000082326355167803957410000002041239396384755103_);}
	.st159{clip-path:url(#SVGID_00000137106620760583661860000013017280492429001622_);}
	.st160{clip-path:url(#SVGID_00000068672575517670499200000016142269015872157832_);}
	.st161{clip-path:url(#SVGID_00000114055002639139934860000011577419325788551053_);}
	.st162{clip-path:url(#SVGID_00000003786294535738086450000001988583763068606604_);}
	.st163{clip-path:url(#SVGID_00000182496730095549655050000005364932482656751550_);}
	.st164{clip-path:url(#SVGID_00000053522170056895630140000001575317314192027544_);}
	.st165{clip-path:url(#SVGID_00000091716170292629645510000008793603462086121648_);}
	.st166{clip-path:url(#SVGID_00000145035289000879392980000017719663284975726494_);}
	.st167{clip-path:url(#SVGID_00000114781139760386684930000012769478730920396464_);}
	.st168{clip-path:url(#SVGID_00000055672566361323969770000017923507363583453867_);}
	.st169{clip-path:url(#SVGID_00000072275591657726900200000001525394237787888782_);}
	.st170{clip-path:url(#SVGID_00000148649915866305266960000007566665652727788706_);}
	.st171{clip-path:url(#SVGID_00000169521666777039998310000015885226030677044918_);}
	.st172{clip-path:url(#SVGID_00000055696780337892885580000012110571571959392181_);}
	.st173{clip-path:url(#SVGID_00000063593344283511463630000016495055958757330359_);}
	.st174{clip-path:url(#SVGID_00000057860185198663528530000007221455732916140175_);}
	.st175{clip-path:url(#SVGID_00000093860782791507223840000013566131157226228899_);}
	.st176{clip-path:url(#SVGID_00000130622549772843082210000014897658530145413303_);}
	.st177{clip-path:url(#SVGID_00000050657780134253428920000010562173709584679069_);}
	.st178{clip-path:url(#SVGID_00000013187000471216265240000007987569708724518806_);}
	.st179{clip-path:url(#SVGID_00000150819869851837379450000001461553449721240458_);}
	.st180{clip-path:url(#SVGID_00000014627928781538339920000001194411716943362957_);}
	.st181{clip-path:url(#SVGID_00000133520111523472609080000005673864628567283903_);}
	.st182{clip-path:url(#SVGID_00000117648228712492815400000004859586419886472092_);}
	.st183{clip-path:url(#SVGID_00000147200719674897759170000002460247878285588661_);}
	.st184{clip-path:url(#SVGID_00000145025874689015477020000003897966117614356903_);}
	.st185{clip-path:url(#SVGID_00000052070995717784567370000000104936063089071782_);}
	.st186{clip-path:url(#SVGID_00000169545587920023986640000017509911649777286311_);}
	.st187{clip-path:url(#SVGID_00000183224266308409211180000006259665345051750325_);}
	.st188{clip-path:url(#SVGID_00000152984958327087161500000006314907996036328895_);}
	.st189{clip-path:url(#SVGID_00000114787074379138432460000010162686439734861501_);}
	.st190{clip-path:url(#SVGID_00000003793611757920616410000008792515519212479156_);}
	.st191{clip-path:url(#SVGID_00000004505490915647092370000014390750830351570567_);}
	.st192{clip-path:url(#SVGID_00000080171195179890726040000002250709582328060557_);}
	.st193{clip-path:url(#SVGID_00000114785866389138742820000008260129037472015792_);}
	.st194{clip-path:url(#SVGID_00000009567331209806212110000002245823759189178754_);}
	.st195{clip-path:url(#SVGID_00000084503253295927757810000003980382943280517259_);}
	.st196{clip-path:url(#SVGID_00000035525573052016369130000006949066955143857060_);}
	.st197{clip-path:url(#SVGID_00000169551180867242099710000003610205494360374413_);}
	.st198{clip-path:url(#SVGID_00000139261766409807890730000004621120245748080016_);}
	.st199{clip-path:url(#SVGID_00000023242426292862310510000010651434469920555438_);}
	.st200{clip-path:url(#SVGID_00000074440475969552872250000011260688842567539863_);}
	.st201{clip-path:url(#SVGID_00000052797584197862977300000017298554943670828217_);}
	.st202{clip-path:url(#SVGID_00000108303896951458824050000003491313297486683297_);}
	.st203{clip-path:url(#SVGID_00000068648346210233264210000000038340091630145445_);}
	.st204{clip-path:url(#SVGID_00000083768109774551760970000007015096948663038609_);}
	.st205{clip-path:url(#SVGID_00000176734008958849182180000005202241456546766246_);}
	.st206{clip-path:url(#SVGID_00000013162292780208333570000012159235687013578647_);}
	.st207{clip-path:url(#SVGID_00000070113983518339059140000013331821425963870392_);}
	.st208{clip-path:url(#SVGID_00000082357438230853346000000001307486587711105699_);}
	.st209{clip-path:url(#SVGID_00000164483229811102792940000012497321323231931312_);}
	.st210{clip-path:url(#SVGID_00000093136740178285268320000000314764843891842465_);}
	.st211{clip-path:url(#SVGID_00000183955169855996153250000017334699225773469610_);}
	.st212{clip-path:url(#SVGID_00000085973075183357440740000006632907569465188273_);}
	.st213{clip-path:url(#SVGID_00000032625624391929596980000012525334468362471602_);}
	.st214{clip-path:url(#SVGID_00000173150997097590631490000017822259511017999235_);}
	.st215{clip-path:url(#SVGID_00000045592466274284774600000007981556585732632492_);}
	.st216{clip-path:url(#SVGID_00000083067426213671214770000013830672393756286642_);}
	.st217{clip-path:url(#SVGID_00000046306478774330605880000012508062964296047036_);}
	.st218{clip-path:url(#SVGID_00000017494597836988874830000008361479358765762694_);}
	.st219{clip-path:url(#SVGID_00000025424268294357196160000013562568638018084501_);}
	.st220{clip-path:url(#SVGID_00000150094016248938037230000003776067034813543557_);}
	.st221{clip-path:url(#SVGID_00000109709194714664032880000005622155824910880682_);}
	.st222{clip-path:url(#SVGID_00000142863500011220554470000010650314302800173752_);}
	.st223{clip-path:url(#SVGID_00000181079583505400241580000015503145518386781080_);}
	.st224{clip-path:url(#SVGID_00000067218457259984336050000006232759240372093570_);}
	.st225{clip-path:url(#SVGID_00000128470324308238767770000016677312142949334942_);}
	.st226{clip-path:url(#SVGID_00000151545553205899724830000010469932198960561567_);}
	.st227{clip-path:url(#SVGID_00000047760038414073874480000013041344969309704841_);}
	.st228{clip-path:url(#SVGID_00000165209369648625243710000001738632194961397403_);}
	.st229{clip-path:url(#SVGID_00000053542659077136318020000017501261878781277856_);}
	.st230{clip-path:url(#SVGID_00000116940758198774888790000009346950958672407727_);}
	.st231{clip-path:url(#SVGID_00000134945433360128084710000010007179664535762322_);}
	.st232{clip-path:url(#SVGID_00000078028587049045396820000009009963958992533181_);}
	.st233{clip-path:url(#SVGID_00000022525597494535691680000005281338025980540802_);}
	.st234{clip-path:url(#SVGID_00000152955603362879307640000011383157906377502379_);}
	.st235{clip-path:url(#SVGID_00000163762698942264480820000010835445774731449739_);}
	.st236{clip-path:url(#SVGID_00000020375535730078615270000014317977826406590339_);}
	.st237{clip-path:url(#SVGID_00000053524301361566671490000007561096922706444468_);}
	.st238{clip-path:url(#SVGID_00000149355645486017341370000012017255266819780004_);}
	.st239{clip-path:url(#SVGID_00000058554172190484299420000016124365232431142289_);}
	.st240{clip-path:url(#SVGID_00000065771939985027541450000007462731124678866866_);}
	.st241{clip-path:url(#SVGID_00000081644090063596950060000016183477404990363545_);}
	.st242{clip-path:url(#SVGID_00000007410234449594257700000011902771089765498763_);}
	.st243{clip-path:url(#SVGID_00000075137022582878971720000003118901396208663204_);}
	.st244{clip-path:url(#SVGID_00000181053427017800878900000006850669368611885208_);}
	.st245{clip-path:url(#SVGID_00000121975615390408812330000000011868815364939405_);}
	.st246{clip-path:url(#SVGID_00000113317966239418011190000015402079060237343399_);}
	.st247{clip-path:url(#SVGID_00000133498760036701657460000002778575827356430014_);}
	.st248{clip-path:url(#SVGID_00000059292931481243302420000002299477699897040521_);}
	.st249{clip-path:url(#SVGID_00000086691373338169474650000002021065286568967078_);}
	.st250{clip-path:url(#SVGID_00000015348361951629517020000001527676734071481764_);}
	.st251{clip-path:url(#SVGID_00000136398601693419695980000016559609854782988220_);}
	.st252{clip-path:url(#SVGID_00000118393432077608312940000012390658731006576053_);}
	.st253{clip-path:url(#SVGID_00000179626544154768539230000003257103778637502091_);}
	.st254{clip-path:url(#SVGID_00000033330458008622924350000017654175252286922893_);}
	.st255{clip-path:url(#SVGID_00000136407476128782415300000001611953542463355574_);}
	.st256{clip-path:url(#SVGID_00000009576230409790156440000018252130541579699363_);}
	.st257{clip-path:url(#SVGID_00000101089292087149180480000008320607580387751313_);}
	.st258{clip-path:url(#SVGID_00000115478744166701966340000017703734013601434524_);}
	.st259{clip-path:url(#SVGID_00000010311574214511641350000012846925676870787988_);}
	.st260{clip-path:url(#SVGID_00000152943752962179851600000001737497966307271585_);}
	.st261{clip-path:url(#SVGID_00000028318731005325136370000004602533714275381127_);}
	.st262{clip-path:url(#SVGID_00000114764227258293472290000015945092526523756700_);}
	.st263{clip-path:url(#SVGID_00000003784628886834035930000004181603260602622634_);}
	.st264{clip-path:url(#SVGID_00000162343408036366184320000006801760402585285805_);}
	.st265{clip-path:url(#SVGID_00000135652571350958957750000003620813957661778068_);}
	.st266{clip-path:url(#SVGID_00000168823645560848619530000009030038023410807741_);}
	.st267{clip-path:url(#SVGID_00000095306748962762728220000016227627603431508899_);}
	.st268{clip-path:url(#SVGID_00000180362861053401933310000005958194960715479219_);}
	.st269{clip-path:url(#SVGID_00000021837174466562544860000014233849412451509681_);}
	.st270{clip-path:url(#SVGID_00000166677733598149262570000006569499837947722423_);}
	.st271{clip-path:url(#SVGID_00000083778845449266607750000008357897600590710158_);}
	.st272{clip-path:url(#SVGID_00000004518351506972885640000016718738733937486470_);}
	.st273{clip-path:url(#SVGID_00000183221423083401739330000006700539107312293546_);}
	.st274{clip-path:url(#SVGID_00000118398796464068397160000007752544138407164046_);}
	.st275{clip-path:url(#SVGID_00000153684877631609826760000014231796874284178841_);}
	.st276{clip-path:url(#SVGID_00000160904489025171412500000003455434341549412508_);}
	.st277{clip-path:url(#SVGID_00000139996650507688806410000004915660837282705296_);}
	.st278{clip-path:url(#SVGID_00000030474270673143937150000015313952607782629507_);}
	.st279{clip-path:url(#SVGID_00000005951914687071100130000015170154060666736827_);}
	.st280{clip-path:url(#SVGID_00000085235950819039947500000011643409774879381888_);}
	.st281{clip-path:url(#SVGID_00000142895324254091551070000016389623043518676113_);}
	.st282{clip-path:url(#SVGID_00000049907872614117404230000003262423210253901443_);}
	.st283{clip-path:url(#SVGID_00000070090723108883050050000004121946214344886149_);}
	.st284{clip-path:url(#SVGID_00000047061402991690666570000013328265718924693928_);}
	.st285{clip-path:url(#SVGID_00000076570675619722908300000015106529281719876021_);}
	.st286{clip-path:url(#SVGID_00000171702663554626321190000000108702422746349973_);}
	.st287{clip-path:url(#SVGID_00000036956784046976012680000002458015434149579436_);}
	.st288{clip-path:url(#SVGID_00000072958411672380309220000011634831672744554145_);}
	.st289{clip-path:url(#SVGID_00000093167461732964583970000002503322414341210521_);}
	.st290{clip-path:url(#SVGID_00000035527535956970232820000004806177863288730017_);}
	.st291{clip-path:url(#SVGID_00000031194345634924859560000008760934294547769016_);}
	.st292{clip-path:url(#SVGID_00000006695905964530955500000004682237413469161383_);}
	.st293{clip-path:url(#SVGID_00000166640356403782603770000007577240715505212838_);}
	.st294{clip-path:url(#SVGID_00000125587841364803370100000008673720713594384061_);}
	.st295{clip-path:url(#SVGID_00000153697166587331424110000012898009661904705458_);}
	.st296{clip-path:url(#SVGID_00000009561948768589965420000013998752072431696815_);}
	.st297{clip-path:url(#SVGID_00000153665408874285012410000007869332531243435700_);}
	.st298{clip-path:url(#SVGID_00000038408171256109494050000014988927658359246217_);}
	.st299{clip-path:url(#SVGID_00000098195234767574349900000015769922517388095135_);}
	.st300{clip-path:url(#SVGID_00000097478942357361808650000014144936502770656137_);}
	.st301{clip-path:url(#SVGID_00000101062197671495234480000014276136389319134114_);}
	.st302{clip-path:url(#SVGID_00000089551575861454325310000004632120594634722236_);}
	.st303{clip-path:url(#SVGID_00000126309174123650573250000013272558332149462658_);}
	.st304{clip-path:url(#SVGID_00000042699056884795084920000014550649650242903954_);}
	.st305{clip-path:url(#SVGID_00000144325954240961935680000003128535958009887124_);}
	.st306{clip-path:url(#SVGID_00000152974279655993546800000000960389396986848951_);}
	.st307{clip-path:url(#SVGID_00000109733139528745779720000010843769684525553538_);}
	.st308{clip-path:url(#SVGID_00000019674932913044361410000013109674143700395414_);}
	.st309{clip-path:url(#SVGID_00000041270243088863076350000015223235146570130079_);}
	.st310{clip-path:url(#SVGID_00000037692178994146939150000017897847750478590632_);}
	.st311{clip-path:url(#SVGID_00000075146687951555071510000011162860354680020392_);}
	.st312{clip-path:url(#SVGID_00000119839944473561448910000007360566609629792391_);}
	.st313{clip-path:url(#SVGID_00000044173359112712985400000003610577568875274423_);}
	.st314{clip-path:url(#SVGID_00000076603711803876727160000008512856196923313051_);}
	.st315{clip-path:url(#SVGID_00000163769981068142811750000012173767979005718964_);}
	.st316{clip-path:url(#SVGID_00000035497835934632656710000000090776806297704873_);}
	.st317{clip-path:url(#SVGID_00000029761933178405890340000012166226468014545582_);}
	.st318{clip-path:url(#SVGID_00000026156687345104626900000017434245299062877339_);}
	.st319{clip-path:url(#SVGID_00000057131352053331360400000005809560727214246020_);}
	.st320{clip-path:url(#SVGID_00000070824207151717560020000014611533525789915809_);}
	.st321{clip-path:url(#SVGID_00000119812595096930942870000002609261784269105831_);}
	.st322{clip-path:url(#SVGID_00000146495037305079319370000012431139710709692818_);}
	.st323{clip-path:url(#SVGID_00000013904056499289527860000001111983937428235166_);}
	.st324{clip-path:url(#SVGID_00000176005060772739538450000006393900227551715978_);}
	.st325{clip-path:url(#SVGID_00000112601090138054927850000007723094007727115170_);}
	.st326{clip-path:url(#SVGID_00000084509505836586989440000011249037550538450569_);}
	.st327{clip-path:url(#SVGID_00000044149224013424922530000004755849511914709651_);}
	.st328{clip-path:url(#SVGID_00000106846695358488168130000000342524679275711642_);}
	.st329{clip-path:url(#SVGID_00000099639216322642955330000015002884941687867537_);}
	.st330{clip-path:url(#SVGID_00000034054696456150999150000005303835674335567751_);}
	.st331{clip-path:url(#SVGID_00000117643700079852376010000000645634496247160733_);}
	.st332{clip-path:url(#SVGID_00000065051869691717585020000006630867248189509021_);}
	.st333{clip-path:url(#SVGID_00000039128104090043570320000002392830817129329086_);}
	.st334{clip-path:url(#SVGID_00000136379644275526491640000008690815799984436361_);}
	.st335{clip-path:url(#SVGID_00000023975149904638880700000011849356413704798856_);}
	.st336{clip-path:url(#SVGID_00000172415725337458247500000004477382369648940974_);}
	.st337{clip-path:url(#SVGID_00000054239619997870569210000011640771056973231534_);}
	.st338{clip-path:url(#SVGID_00000183233317245647847700000012238555314163957899_);}
	.st339{clip-path:url(#SVGID_00000158729163390599217880000015263377535080664719_);}
	.st340{clip-path:url(#SVGID_00000013194558892449484430000004158563386548749239_);}
	.st341{clip-path:url(#SVGID_00000160882987531534702800000000334766503257458333_);}
	.st342{clip-path:url(#SVGID_00000070077690297546941900000012861438066716413603_);}
	.st343{clip-path:url(#SVGID_00000083790974212290683560000003896491761991324862_);}
	.st344{clip-path:url(#SVGID_00000039111078086069005150000005727401409131555260_);}
	.st345{clip-path:url(#SVGID_00000012451769671179040510000014964696371447808640_);}
	.st346{clip-path:url(#SVGID_00000111167585542987980510000008176837631246298002_);}
	.st347{clip-path:url(#SVGID_00000150822721632172326560000007670351448861466515_);}
	.st348{clip-path:url(#SVGID_00000013158300543851417440000000206470398489305777_);}
	.st349{clip-path:url(#SVGID_00000033369041860651849260000006777917885043663499_);}
	.st350{clip-path:url(#SVGID_00000003797471539746787790000016319463541884836522_);}
	.st351{clip-path:url(#SVGID_00000084505523062999845040000006250017442306065305_);}
	.st352{clip-path:url(#SVGID_00000171684646292188805530000007329357749056376751_);}
	.st353{clip-path:url(#SVGID_00000065771473559323041610000004714247619547429774_);}
	.st354{clip-path:url(#SVGID_00000005224557822188568810000006656357593980528009_);}
	.st355{clip-path:url(#SVGID_00000171684516986583094940000018060905059964193961_);}
	.st356{clip-path:url(#SVGID_00000139976247373108423480000017518139934293317037_);}
	.st357{clip-path:url(#SVGID_00000113325671864559231640000014571583293130778255_);}
	.st358{clip-path:url(#SVGID_00000174601578550733902220000011009273941549389443_);}
	.st359{clip-path:url(#SVGID_00000010272759011509104640000008322920649957729205_);}
	.st360{clip-path:url(#SVGID_00000047781713401580076860000018008064307714209470_);}
	.st361{clip-path:url(#SVGID_00000142892966285057743000000003709466984711972752_);}
	.st362{clip-path:url(#SVGID_00000030469691004952578540000009773092793561681839_);}
	.st363{clip-path:url(#SVGID_00000028310064316183533950000009197371302048969629_);}
	.st364{clip-path:url(#SVGID_00000181082666222525764750000001774608643582739630_);}
	.st365{clip-path:url(#SVGID_00000178892066840927404140000016684705085096509827_);}
	.st366{clip-path:url(#SVGID_00000175304996658367803490000005507715915045498804_);}
	.st367{clip-path:url(#SVGID_00000065066168726724497280000015740370204659333792_);}
	.st368{clip-path:url(#SVGID_00000141430098637061346380000002158321681515320968_);}
	.st369{clip-path:url(#SVGID_00000146496573612256485400000016090881779301328560_);}
	.st370{clip-path:url(#SVGID_00000114041622418234355550000018218413907022530444_);}
	.st371{clip-path:url(#SVGID_00000115513592572657194760000015160362901803231418_);}
	.st372{clip-path:url(#SVGID_00000127026739533152535940000005172248762012674946_);}
	.st373{clip-path:url(#SVGID_00000108995404202287604340000015567242210555359160_);}
	.st374{clip-path:url(#SVGID_00000023991516850604366660000015171993317101504392_);}
	.st375{clip-path:url(#SVGID_00000181057988321499649760000011459977740303705011_);}
</style>
<g>
	<g>
		<rect x="4.49" y="124.67" class="st0" width="48.52" height="692.55"/>
	</g>
	<g>
		<rect x="4.49" y="2.23" class="st1" width="992.29" height="116.83"/>
	</g>
	<g>
		<path class="st3" d="M996.78,821.71H1.68c-0.93,0-1.68-0.75-1.68-1.68V5.03C0,4.1,0.75,3.35,1.68,3.35h995.1
			c0.93,0,1.68,0.75,1.68,1.68v814.99C998.46,820.96,997.71,821.71,996.78,821.71z M3.37,818.34H995.1V6.72H3.37V818.34z"/>
	</g>
	<g>
		<rect x="4.49" y="120.18" class="st3" width="995.1" height="3.37"/>
	</g>
	<g>
		<rect x="3.09" y="351.03" class="st3" width="992.29" height="3.37"/>
	</g>
	<g>
		<rect x="3.09" y="234.2" class="st3" width="992.29" height="3.37"/>
	</g>
	<g>
		<rect x="3.09" y="465.05" class="st3" width="992.29" height="3.37"/>
	</g>
	<g>
		<rect x="3.09" y="587.49" class="st3" width="992.29" height="3.37"/>
	</g>
	<g>
		<rect x="3.09" y="704.32" class="st3" width="992.29" height="3.37"/>
	</g>
	<g>
		<defs>
			<polygon id="SVGID_00000180356098347290239650000011390125194524732288_" points="0.24,826.05 997.19,823.04 1000,3.89 3.04,6.9 
							"/>
		</defs>
		<clipPath id="SVGID_00000072976458886857218010000006925624717863022225_">
			<use xlink:href="#SVGID_00000180356098347290239650000011390125194524732288_"  style="overflow:visible;"/>
		</clipPath>
		<g style="clip-path:url(#SVGID_00000072976458886857218010000006925624717863022225_);">
			<path class="st3" d="M698.66,663.21c0,4.06-2.4,6.62-5.82,6.62c-3.41,0-5.76-2.57-5.76-6.62c0-4.11,2.35-6.57,5.76-6.57
				C696.48,656.64,698.66,659.47,698.66,663.21 M704.1,663.1c0-6.67-4.48-10.99-9.98-10.99c-1.17,0-2.35,0.16-3.36,0.58l8.17-16.33
				h-5.82l-8.64,17.61c-1.65,3.3-2.83,6.24-2.83,9.34c0,7.05,4.69,11.36,11.26,11.36S704.1,670.1,704.1,663.1 M662.8,670.84
				l-3.68-3.63c-1.66,1.66-2.77,2.62-5.23,2.62c-4.38,0-6.62-3.04-6.62-9.02c0-5.88,2.24-8.97,6.62-8.97c2.4,0,3.63,0.96,5.23,2.56
				l3.68-3.57c-1.71-1.71-2.56-2.29-4-2.93c-1.39-0.58-2.99-0.9-4.86-0.9c-7.57,0-12.1,5.17-12.1,13.71
				c0,8.81,4.48,13.97,12.1,13.97c1.87,0,3.42-0.26,4.86-0.9C660.24,673.13,661.09,672.55,662.8,670.84 M628.92,664.6
				c0,3.95-1.71,5.55-5.93,5.55c-3.68,0-5.34-1.23-5.34-3.85c0-2.56,1.65-3.84,4.86-3.84h6.4V664.6z M634.31,674.36v-18.09
				c0-6.14-3.79-9.28-11.31-9.28c-2.56,0-4.48,0.32-6.03,1.06c-1.33,0.59-2.02,1.23-3.52,2.83l3.57,3.36
				c0.8-1.02,1.39-1.55,2.18-1.92c0.96-0.48,2.08-0.7,3.63-0.7c4.27,0,6.08,1.49,6.08,5.02v1.98h-7.26c-5.76,0-9.28,2.93-9.28,7.84
				c0,5.23,3.36,8.16,9.39,8.16c3.21,0,4.97-0.48,7.21-2.72v2.45H634.31z M605.18,674.36v-27.04h-18.51v11.25
				c0,10.46-2.77,11-5.12,11h-0.85v4.8h2.56c5.28,0,8.64-2.98,8.64-14.46v-7.85h7.85v22.3H605.18z M556.94,674.36v-19.84
				l15.31,19.84h7.31l-15.96-20.06l14.62-17.93h-7.09l-14.19,18.04v-18.04h-5.76v37.99H556.94z M532.34,632.42h-5.23l-15.21,45.88
				h5.23L532.34,632.42z M489.6,663.21c0,4.06-2.4,6.62-5.82,6.62c-3.41,0-5.77-2.57-5.77-6.62c0-4.11,2.35-6.57,5.77-6.57
				C487.41,656.64,489.6,659.47,489.6,663.21 M495.04,663.1c0-6.67-4.48-10.99-9.98-10.99c-1.17,0-2.35,0.16-3.36,0.58l8.17-16.33
				h-5.82l-8.64,17.61c-1.66,3.3-2.83,6.24-2.83,9.34c0,7.05,4.69,11.36,11.26,11.36C490.4,674.68,495.04,670.1,495.04,663.1
				 M447.45,658.63h-12.17c0.06-1.66,0.16-2.46,0.7-3.68c0.85-2.03,2.83-3.42,5.39-3.42c2.56,0,4.48,1.39,5.34,3.42
				C447.23,656.17,447.39,656.97,447.45,658.63 M452.84,662.41v-2.4c0-7.68-4.22-13.01-11.48-13.01c-6.94,0-11.46,5.06-11.46,13.82
				c0,10.3,5.38,13.87,12.16,13.87c4.75,0,7.36-1.44,10.14-4.21l-3.47-3.26c-1.92,1.92-3.52,2.77-6.56,2.77
				c-4.43,0-6.89-2.94-6.89-7.58H452.84z M424.13,666.09c0-4.8-2.99-7.21-8.05-7.63l-4.27-0.37c-2.88-0.27-3.74-1.49-3.74-3.09
				c0-2.03,1.65-3.47,4.91-3.47c2.56,0,4.96,0.53,6.67,1.98l3.42-3.47c-2.51-2.18-5.98-3.03-10.03-3.03
				c-5.66,0-10.19,2.98-10.19,8.26c0,4.75,2.93,7.05,8,7.48l4.32,0.37c2.62,0.21,3.63,1.39,3.63,3.2c0,2.57-2.61,3.74-5.92,3.74
				c-2.67,0-5.61-0.59-7.79-2.83l-3.58,3.58c3.2,3.14,6.94,3.89,11.37,3.89C419.33,674.68,424.13,671.75,424.13,666.09
				 M397.29,666.09c0-4.8-2.99-7.21-8.06-7.63l-4.27-0.37c-2.88-0.27-3.74-1.49-3.74-3.09c0-2.03,1.66-3.47,4.91-3.47
				c2.56,0,4.97,0.53,6.67,1.98l3.42-3.47c-2.51-2.18-5.98-3.03-10.03-3.03c-5.66,0-10.19,2.98-10.19,8.26c0,4.75,2.94,7.05,8,7.48
				l4.32,0.37c2.61,0.21,3.63,1.39,3.63,3.2c0,2.57-2.62,3.74-5.93,3.74c-2.67,0-5.6-0.59-7.79-2.83l-3.57,3.58
				c3.2,3.14,6.94,3.89,11.36,3.89C392.49,674.68,397.29,671.75,397.29,666.09 M362.93,664.6c0,1.92-0.37,3.2-1.17,4
				c-1.44,1.39-2.99,1.55-5.07,1.55c-3.42,0-4.97-1.39-4.97-3.85s1.66-3.9,4.86-3.9h6.35V664.6z M368.37,674.36v-18.09
				c0-6.14-3.73-9.28-11.15-9.28c-4.48,0-7.15,0.9-9.71,3.89l3.57,3.36c1.49-1.92,2.94-2.62,5.93-2.62c4.22,0,5.93,1.66,5.93,5.07
				v1.93h-7.15c-6.19,0-9.34,3.25-9.34,7.78c0,2.3,0.75,4.38,2.13,5.82c1.65,1.65,3.89,2.45,7.25,2.45s5.23-0.8,7.21-2.77v2.45
				H368.37z M341.96,674.36v-4.63h-2.4c-2.18,0-2.93-1.07-2.93-3.15v-30.2h-5.44v30.52c0,4,2.24,7.46,7.41,7.46H341.96z
				 M325.95,674.36l-13.61-23.1l12.33-14.88h-7.04l-15.52,19.1v-19.1h-5.76v37.99h5.76v-11.04l6.4-7.68l10.67,18.73H325.95z"/>
		</g>
		<g style="clip-path:url(#SVGID_00000072976458886857218010000006925624717863022225_);">
			<path class="st3" d="M704.64,518.78v-4.85h-22.62v10.83h5.23v-5.98h11.58l-12.75,33.13h5.87L704.64,518.78z M662.8,548.4
				l-3.68-3.63c-1.66,1.66-2.77,2.62-5.23,2.62c-4.38,0-6.62-3.04-6.62-9.02c0-5.88,2.24-8.97,6.62-8.97c2.4,0,3.63,0.96,5.23,2.56
				l3.68-3.57c-1.71-1.71-2.56-2.29-4-2.93c-1.39-0.58-2.99-0.9-4.86-0.9c-7.57,0-12.1,5.17-12.1,13.71
				c0,8.81,4.48,13.97,12.1,13.97c1.87,0,3.42-0.26,4.86-0.9C660.24,550.69,661.09,550.1,662.8,548.4 M628.92,542.15
				c0,3.95-1.71,5.55-5.93,5.55c-3.68,0-5.34-1.23-5.34-3.85c0-2.56,1.65-3.84,4.86-3.84h6.4V542.15z M634.31,551.91v-18.09
				c0-6.14-3.79-9.28-11.31-9.28c-2.56,0-4.48,0.32-6.03,1.06c-1.33,0.59-2.02,1.23-3.52,2.83l3.57,3.36
				c0.8-1.02,1.39-1.55,2.18-1.92c0.96-0.48,2.08-0.7,3.63-0.7c4.27,0,6.08,1.49,6.08,5.02v1.98h-7.26c-5.76,0-9.28,2.93-9.28,7.84
				c0,5.23,3.36,8.16,9.39,8.16c3.21,0,4.97-0.48,7.21-2.72v2.45H634.31z M605.18,551.91v-27.04h-18.51v11.25
				c0,10.46-2.77,11-5.12,11h-0.85v4.8h2.56c5.28,0,8.64-2.98,8.64-14.46v-7.85h7.85v22.3H605.18z M556.94,551.91v-19.84
				l15.31,19.84h7.31l-15.96-20.06l14.62-17.93h-7.09l-14.19,18.04v-18.04h-5.76v37.99H556.94z M532.34,509.98h-5.23l-15.21,45.88
				h5.23L532.34,509.98z M495.58,518.78v-4.85h-22.62v10.83h5.23v-5.98h11.58l-12.75,33.13h5.87L495.58,518.78z M447.45,536.18
				h-12.17c0.06-1.66,0.16-2.46,0.7-3.68c0.85-2.03,2.83-3.42,5.39-3.42c2.56,0,4.48,1.39,5.34,3.42
				C447.23,533.72,447.39,534.52,447.45,536.18 M452.84,539.96v-2.4c0-7.68-4.22-13.01-11.48-13.01c-6.94,0-11.46,5.06-11.46,13.82
				c0,10.3,5.38,13.87,12.16,13.87c4.75,0,7.36-1.44,10.14-4.21l-3.47-3.26c-1.92,1.92-3.52,2.77-6.56,2.77
				c-4.43,0-6.89-2.94-6.89-7.58H452.84z M424.13,543.64c0-4.8-2.99-7.21-8.05-7.63l-4.27-0.37c-2.88-0.27-3.74-1.49-3.74-3.09
				c0-2.03,1.65-3.47,4.91-3.47c2.56,0,4.96,0.53,6.67,1.98l3.42-3.47c-2.51-2.18-5.98-3.03-10.03-3.03
				c-5.66,0-10.19,2.98-10.19,8.26c0,4.75,2.93,7.05,8,7.48l4.32,0.37c2.62,0.21,3.63,1.39,3.63,3.2c0,2.57-2.61,3.74-5.92,3.74
				c-2.67,0-5.61-0.59-7.79-2.83l-3.58,3.58c3.2,3.14,6.94,3.89,11.37,3.89C419.33,552.23,424.13,549.3,424.13,543.64
				 M397.29,543.64c0-4.8-2.99-7.21-8.06-7.63l-4.27-0.37c-2.88-0.27-3.74-1.49-3.74-3.09c0-2.03,1.66-3.47,4.91-3.47
				c2.56,0,4.97,0.53,6.67,1.98l3.42-3.47c-2.51-2.18-5.98-3.03-10.03-3.03c-5.66,0-10.19,2.98-10.19,8.26c0,4.75,2.94,7.05,8,7.48
				l4.32,0.37c2.61,0.21,3.63,1.39,3.63,3.2c0,2.57-2.62,3.74-5.93,3.74c-2.67,0-5.6-0.59-7.79-2.83l-3.57,3.58
				c3.2,3.14,6.94,3.89,11.36,3.89C392.49,552.23,397.29,549.3,397.29,543.64 M362.93,542.15c0,1.92-0.37,3.2-1.17,4
				c-1.44,1.39-2.99,1.55-5.07,1.55c-3.42,0-4.97-1.39-4.97-3.85c0-2.45,1.66-3.9,4.86-3.9h6.35V542.15z M368.37,551.91v-18.09
				c0-6.14-3.73-9.28-11.15-9.28c-4.48,0-7.15,0.9-9.71,3.89l3.57,3.36c1.49-1.92,2.94-2.62,5.93-2.62c4.22,0,5.93,1.66,5.93,5.07
				v1.93h-7.15c-6.19,0-9.34,3.25-9.34,7.78c0,2.3,0.75,4.38,2.13,5.82c1.65,1.65,3.89,2.45,7.25,2.45s5.23-0.8,7.21-2.77v2.45
				H368.37z M341.96,551.91v-4.63h-2.4c-2.18,0-2.93-1.07-2.93-3.15v-30.2h-5.44v30.52c0,4,2.24,7.46,7.41,7.46H341.96z
				 M325.95,551.91l-13.61-23.1l12.33-14.88h-7.04l-15.52,19.1v-19.1h-5.76v37.99h5.76v-11.04l6.4-7.68l10.67,18.73H325.95z"/>
		</g>
		<g style="clip-path:url(#SVGID_00000072976458886857218010000006925624717863022225_);">
			<path class="st3" d="M698.5,407.45c0,3.36-2.35,5.76-5.66,5.76c-3.31,0-5.61-2.4-5.61-5.76c0-3.31,2.3-5.82,5.61-5.82
				C696.16,401.63,698.5,404.14,698.5,407.45 M699.09,424.25c0,3.52-2.72,6.3-6.25,6.3c-3.52,0-6.25-2.78-6.25-6.3
				c0-3.52,2.72-6.35,6.25-6.35C696.37,417.9,699.09,420.73,699.09,424.25 M704.58,424.36c0-4.54-2.56-7.31-5.22-8.91
				c2.45-1.49,4.58-4.16,4.58-8.17c0-6.35-4.9-10.51-11.1-10.51c-6.19,0-11.04,4.16-11.04,10.51c0,4,2.13,6.67,4.58,8.17
				c-2.66,1.6-5.22,4.37-5.22,8.91c0,6.89,5.17,11.04,11.68,11.04C699.36,435.4,704.58,431.25,704.58,424.36 M662.8,431.57
				l-3.68-3.63c-1.66,1.66-2.77,2.62-5.23,2.62c-4.38,0-6.62-3.04-6.62-9.02c0-5.88,2.24-8.97,6.62-8.97c2.4,0,3.63,0.96,5.23,2.56
				l3.68-3.57c-1.71-1.71-2.56-2.29-4-2.93c-1.39-0.58-2.99-0.9-4.86-0.9c-7.57,0-12.1,5.17-12.1,13.71
				c0,8.81,4.48,13.97,12.1,13.97c1.87,0,3.42-0.26,4.86-0.9C660.24,433.86,661.09,433.28,662.8,431.57 M628.92,425.32
				c0,3.95-1.71,5.55-5.93,5.55c-3.68,0-5.34-1.23-5.34-3.85c0-2.56,1.65-3.84,4.86-3.84h6.4V425.32z M634.31,435.08V417
				c0-6.14-3.79-9.28-11.31-9.28c-2.56,0-4.48,0.32-6.03,1.06c-1.33,0.59-2.02,1.23-3.52,2.83l3.57,3.36
				c0.8-1.02,1.39-1.55,2.18-1.92c0.96-0.48,2.08-0.7,3.63-0.7c4.27,0,6.08,1.49,6.08,5.02v1.98h-7.26c-5.76,0-9.28,2.93-9.28,7.84
				c0,5.23,3.36,8.16,9.39,8.16c3.21,0,4.97-0.48,7.21-2.72v2.45H634.31z M605.18,435.08v-27.04h-18.51v11.25
				c0,10.46-2.77,11-5.12,11h-0.85v4.8h2.56c5.28,0,8.64-2.98,8.64-14.46v-7.85h7.85v22.3H605.18z M556.94,435.08v-19.84
				l15.31,19.84h7.31l-15.96-20.06l14.62-17.93h-7.09l-14.19,18.04V397.1h-5.76v37.99H556.94z M532.34,393.15h-5.23l-15.21,45.88
				h5.23L532.34,393.15z M489.45,407.45c0,3.36-2.35,5.76-5.66,5.76c-3.31,0-5.61-2.4-5.61-5.76c0-3.31,2.3-5.82,5.61-5.82
				C487.09,401.63,489.45,404.14,489.45,407.45 M490.03,424.25c0,3.52-2.72,6.3-6.25,6.3c-3.52,0-6.25-2.78-6.25-6.3
				c0-3.52,2.72-6.35,6.25-6.35C487.31,417.9,490.03,420.73,490.03,424.25 M495.52,424.36c0-4.54-2.56-7.31-5.22-8.91
				c2.45-1.49,4.58-4.16,4.58-8.17c0-6.35-4.9-10.51-11.1-10.51c-6.19,0-11.04,4.16-11.04,10.51c0,4,2.13,6.67,4.58,8.17
				c-2.66,1.6-5.22,4.37-5.22,8.91c0,6.89,5.17,11.04,11.68,11.04C490.3,435.4,495.52,431.25,495.52,424.36 M447.45,419.35h-12.17
				c0.06-1.66,0.16-2.46,0.7-3.68c0.85-2.03,2.83-3.42,5.39-3.42c2.56,0,4.48,1.39,5.34,3.42
				C447.23,416.89,447.39,417.69,447.45,419.35 M452.84,423.13v-2.4c0-7.68-4.22-13.01-11.48-13.01c-6.94,0-11.46,5.06-11.46,13.82
				c0,10.3,5.38,13.87,12.16,13.87c4.75,0,7.36-1.44,10.14-4.21l-3.47-3.26c-1.92,1.92-3.52,2.77-6.56,2.77
				c-4.43,0-6.89-2.94-6.89-7.58H452.84z M424.13,426.82c0-4.8-2.99-7.21-8.05-7.63l-4.27-0.37c-2.88-0.27-3.74-1.49-3.74-3.09
				c0-2.03,1.65-3.47,4.91-3.47c2.56,0,4.96,0.53,6.67,1.98l3.42-3.47c-2.51-2.18-5.98-3.03-10.03-3.03
				c-5.66,0-10.19,2.98-10.19,8.26c0,4.75,2.93,7.05,8,7.48l4.32,0.37c2.62,0.21,3.63,1.39,3.63,3.2c0,2.57-2.61,3.74-5.92,3.74
				c-2.67,0-5.61-0.59-7.79-2.83l-3.58,3.58c3.2,3.14,6.94,3.89,11.37,3.89C419.33,435.4,424.13,432.47,424.13,426.82
				 M397.29,426.82c0-4.8-2.99-7.21-8.06-7.63l-4.27-0.37c-2.88-0.27-3.74-1.49-3.74-3.09c0-2.03,1.66-3.47,4.91-3.47
				c2.56,0,4.97,0.53,6.67,1.98l3.42-3.47c-2.51-2.18-5.98-3.03-10.03-3.03c-5.66,0-10.19,2.98-10.19,8.26c0,4.75,2.94,7.05,8,7.48
				l4.32,0.37c2.61,0.21,3.63,1.39,3.63,3.2c0,2.57-2.62,3.74-5.93,3.74c-2.67,0-5.6-0.59-7.79-2.83l-3.57,3.58
				c3.2,3.14,6.94,3.89,11.36,3.89C392.49,435.4,397.29,432.47,397.29,426.82 M362.93,425.32c0,1.92-0.37,3.2-1.17,4
				c-1.44,1.39-2.99,1.55-5.07,1.55c-3.42,0-4.97-1.39-4.97-3.85c0-2.45,1.66-3.9,4.86-3.9h6.35V425.32z M368.37,435.08V417
				c0-6.14-3.73-9.28-11.15-9.28c-4.48,0-7.15,0.9-9.71,3.89l3.57,3.36c1.49-1.92,2.94-2.62,5.93-2.62c4.22,0,5.93,1.66,5.93,5.07
				v1.93h-7.15c-6.19,0-9.34,3.25-9.34,7.78c0,2.3,0.75,4.38,2.13,5.82c1.65,1.65,3.89,2.45,7.25,2.45s5.23-0.8,7.21-2.77v2.45
				H368.37z M341.96,435.08v-4.63h-2.4c-2.18,0-2.93-1.07-2.93-3.15v-30.2h-5.44v30.52c0,4,2.24,7.46,7.41,7.46H341.96z
				 M325.95,435.08l-13.61-23.1l12.33-14.88h-7.04l-15.52,19.1v-19.1h-5.76v37.99h5.76v-11.04l6.4-7.68l10.67,18.73H325.95z"/>
		</g>
		<g style="clip-path:url(#SVGID_00000072976458886857218010000006925624717863022225_);">
			<path class="st3" d="M698.66,291.42c0,4.11-2.4,6.57-5.82,6.57c-3.63,0-5.76-2.83-5.76-6.57c0-4.06,2.35-6.62,5.76-6.62
				C696.26,284.8,698.66,287.36,698.66,291.42 M704.1,291.31c0-7.04-4.69-11.36-11.26-11.36c-6.57,0-11.2,4.58-11.2,11.58
				c0,6.67,4.42,10.99,9.92,10.99c1.17,0,2.4-0.16,3.42-0.59l-8.17,16.33h5.82l8.64-17.61C702.93,297.34,704.1,294.41,704.1,291.31
				 M662.8,314.74l-3.68-3.63c-1.66,1.66-2.77,2.62-5.23,2.62c-4.38,0-6.62-3.04-6.62-9.02c0-5.88,2.24-8.97,6.62-8.97
				c2.4,0,3.63,0.96,5.23,2.56l3.68-3.57c-1.71-1.71-2.56-2.29-4-2.93c-1.39-0.58-2.99-0.9-4.86-0.9c-7.57,0-12.1,5.17-12.1,13.71
				c0,8.81,4.48,13.97,12.1,13.97c1.87,0,3.42-0.26,4.86-0.9C660.24,317.03,661.09,316.45,662.8,314.74 M628.92,308.49
				c0,3.95-1.71,5.55-5.93,5.55c-3.68,0-5.34-1.23-5.34-3.85c0-2.56,1.65-3.84,4.86-3.84h6.4V308.49z M634.31,318.25v-18.09
				c0-6.14-3.79-9.28-11.31-9.28c-2.56,0-4.48,0.32-6.03,1.06c-1.33,0.59-2.02,1.23-3.52,2.83l3.57,3.36
				c0.8-1.02,1.39-1.55,2.18-1.92c0.96-0.48,2.08-0.7,3.63-0.7c4.27,0,6.08,1.49,6.08,5.02v1.98h-7.26c-5.76,0-9.28,2.93-9.28,7.84
				c0,5.23,3.36,8.16,9.39,8.16c3.21,0,4.97-0.48,7.21-2.72v2.45H634.31z M605.18,318.25v-27.04h-18.51v11.25
				c0,10.46-2.77,11-5.12,11h-0.85v4.8h2.56c5.28,0,8.64-2.98,8.64-14.46v-7.85h7.85v22.3H605.18z M556.94,318.25v-19.84
				l15.31,19.84h7.31l-15.96-20.06l14.62-17.93h-7.09l-14.19,18.04v-18.04h-5.76v37.99H556.94z M532.34,276.32h-5.23L511.9,322.2
				h5.23L532.34,276.32z M489.6,291.42c0,4.11-2.4,6.57-5.82,6.57c-3.63,0-5.77-2.83-5.77-6.57c0-4.06,2.35-6.62,5.77-6.62
				C487.2,284.8,489.6,287.36,489.6,291.42 M495.04,291.31c0-7.04-4.69-11.36-11.26-11.36c-6.57,0-11.2,4.58-11.2,11.58
				c0,6.67,4.42,10.99,9.92,10.99c1.17,0,2.4-0.16,3.42-0.59l-8.17,16.33h5.82l8.64-17.61
				C493.87,297.34,495.04,294.41,495.04,291.31 M447.45,302.52h-12.17c0.06-1.66,0.16-2.46,0.7-3.68c0.85-2.03,2.83-3.42,5.39-3.42
				c2.56,0,4.48,1.39,5.34,3.42C447.23,300.06,447.39,300.87,447.45,302.52 M452.84,306.3v-2.4c0-7.68-4.22-13.01-11.48-13.01
				c-6.94,0-11.46,5.06-11.46,13.82c0,10.3,5.38,13.87,12.16,13.87c4.75,0,7.36-1.44,10.14-4.21l-3.47-3.26
				c-1.92,1.92-3.52,2.77-6.56,2.77c-4.43,0-6.89-2.94-6.89-7.58H452.84z M424.13,309.99c0-4.8-2.99-7.21-8.05-7.63l-4.27-0.37
				c-2.88-0.27-3.74-1.49-3.74-3.09c0-2.03,1.65-3.47,4.91-3.47c2.56,0,4.96,0.53,6.67,1.98l3.42-3.47
				c-2.51-2.18-5.98-3.03-10.03-3.03c-5.66,0-10.19,2.98-10.19,8.26c0,4.75,2.93,7.05,8,7.48l4.32,0.37
				c2.62,0.21,3.63,1.39,3.63,3.2c0,2.57-2.61,3.74-5.92,3.74c-2.67,0-5.61-0.59-7.79-2.83l-3.58,3.58
				c3.2,3.14,6.94,3.89,11.37,3.89C419.33,318.57,424.13,315.64,424.13,309.99 M397.29,309.99c0-4.8-2.99-7.21-8.06-7.63l-4.27-0.37
				c-2.88-0.27-3.74-1.49-3.74-3.09c0-2.03,1.66-3.47,4.91-3.47c2.56,0,4.97,0.53,6.67,1.98l3.42-3.47
				c-2.51-2.18-5.98-3.03-10.03-3.03c-5.66,0-10.19,2.98-10.19,8.26c0,4.75,2.94,7.05,8,7.48l4.32,0.37
				c2.61,0.21,3.63,1.39,3.63,3.2c0,2.57-2.62,3.74-5.93,3.74c-2.67,0-5.6-0.59-7.79-2.83l-3.57,3.58c3.2,3.14,6.94,3.89,11.36,3.89
				C392.49,318.57,397.29,315.64,397.29,309.99 M362.93,308.49c0,1.92-0.37,3.2-1.17,4c-1.44,1.39-2.99,1.55-5.07,1.55
				c-3.42,0-4.97-1.39-4.97-3.85c0-2.45,1.66-3.9,4.86-3.9h6.35V308.49z M368.37,318.25v-18.09c0-6.14-3.73-9.28-11.15-9.28
				c-4.48,0-7.15,0.9-9.71,3.89l3.57,3.36c1.49-1.92,2.94-2.62,5.93-2.62c4.22,0,5.93,1.66,5.93,5.07v1.93h-7.15
				c-6.19,0-9.34,3.25-9.34,7.78c0,2.3,0.75,4.38,2.13,5.82c1.65,1.65,3.89,2.45,7.25,2.45s5.23-0.8,7.21-2.77v2.45H368.37z
				 M341.96,318.25v-4.63h-2.4c-2.18,0-2.93-1.07-2.93-3.15v-30.2h-5.44v30.52c0,4,2.24,7.46,7.41,7.46H341.96z M325.95,318.25
				l-13.61-23.1l12.33-14.88h-7.04l-15.52,19.1v-19.1h-5.76v37.99h5.76v-11.04l6.4-7.68l10.67,18.73H325.95z"/>
		</g>
		<g style="clip-path:url(#SVGID_00000072976458886857218010000006925624717863022225_);">
			<path class="st3" d="M727.37,190.7c0,3.68-2.08,6.2-5.55,6.2c-3.47,0-5.5-2.51-5.5-6.2v-16.54c0-3.68,2.03-6.19,5.5-6.19
				c3.47,0,5.55,2.51,5.55,6.19V190.7z M732.81,190.87V174c0-6.77-4.96-10.88-10.99-10.88c-6.03,0-10.94,4.11-10.94,10.88v16.87
				c0,6.78,4.9,10.88,10.94,10.88C727.85,201.75,732.81,197.65,732.81,190.87 M697.59,201.43v-37.99h-5.44l-7.42,6.4v6.03l7.42-6.5
				v32.06H697.59z M662.8,197.91l-3.68-3.63c-1.65,1.66-2.77,2.62-5.23,2.62c-4.38,0-6.62-3.04-6.62-9.02
				c0-5.88,2.24-8.97,6.62-8.97c2.4,0,3.63,0.96,5.23,2.56l3.68-3.57c-1.71-1.71-2.56-2.29-4-2.93c-1.39-0.58-2.99-0.9-4.85-0.9
				c-7.58,0-12.1,5.17-12.1,13.71c0,8.81,4.48,13.97,12.1,13.97c1.86,0,3.41-0.26,4.85-0.9C660.24,200.2,661.09,199.62,662.8,197.91
				 M628.93,191.66c0,3.95-1.71,5.55-5.93,5.55c-3.68,0-5.34-1.23-5.34-3.85c0-2.56,1.66-3.84,4.86-3.84h6.41V191.66z
				 M634.31,201.43v-18.09c0-6.14-3.79-9.28-11.31-9.28c-2.56,0-4.48,0.32-6.03,1.06c-1.34,0.59-2.03,1.23-3.52,2.83l3.57,3.36
				c0.8-1.02,1.39-1.55,2.19-1.92c0.96-0.48,2.08-0.7,3.63-0.7c4.27,0,6.09,1.49,6.09,5.02v1.98h-7.26c-5.76,0-9.28,2.93-9.28,7.84
				c0,5.23,3.35,8.16,9.39,8.16c3.2,0,4.97-0.48,7.21-2.72v2.45H634.31z M605.17,201.43v-27.04h-18.51v11.25
				c0,10.46-2.77,11-5.12,11h-0.85v4.8h2.56c5.28,0,8.63-2.98,8.63-14.46v-7.85h7.85v22.3H605.17z M556.94,201.43v-19.84
				l15.31,19.84h7.31l-15.96-20.06l14.62-17.93h-7.09l-14.19,18.04v-18.04h-5.76v37.99H556.94z M532.34,159.49h-5.23l-15.2,45.88
				h5.23L532.34,159.49z M489.34,190.7c0,3.68-2.08,6.2-5.56,6.2c-3.47,0-5.5-2.51-5.5-6.2v-16.54c0-3.68,2.03-6.19,5.5-6.19
				c3.47,0,5.56,2.51,5.56,6.19V190.7z M494.78,190.87V174c0-6.77-4.96-10.88-10.99-10.88c-6.03,0-10.93,4.11-10.93,10.88v16.87
				c0,6.78,4.9,10.88,10.93,10.88C489.82,201.75,494.78,197.65,494.78,190.87 M459.56,201.43v-37.99h-5.44l-7.41,6.4v6.03l7.41-6.5
				v32.06H459.56z M418.47,185.69h-12.17c0.06-1.66,0.16-2.46,0.7-3.68c0.85-2.03,2.83-3.42,5.39-3.42c2.56,0,4.48,1.39,5.34,3.42
				C418.26,183.23,418.42,184.04,418.47,185.69 M423.86,189.47v-2.4c0-7.68-4.22-13.01-11.48-13.01c-6.94,0-11.46,5.06-11.46,13.82
				c0,10.3,5.38,13.87,12.16,13.87c4.75,0,7.36-1.44,10.14-4.21l-3.47-3.26c-1.92,1.92-3.52,2.77-6.56,2.77
				c-4.43,0-6.89-2.94-6.89-7.58H423.86z M395.16,193.16c0-4.8-2.99-7.21-8.05-7.63l-4.27-0.37c-2.88-0.27-3.74-1.49-3.74-3.09
				c0-2.03,1.65-3.47,4.91-3.47c2.56,0,4.96,0.53,6.67,1.98l3.42-3.47c-2.51-2.18-5.98-3.03-10.03-3.03
				c-5.66,0-10.19,2.98-10.19,8.26c0,4.75,2.93,7.05,8,7.48l4.32,0.37c2.62,0.21,3.63,1.39,3.63,3.2c0,2.57-2.61,3.74-5.92,3.74
				c-2.67,0-5.61-0.59-7.79-2.83l-3.58,3.58c3.2,3.14,6.94,3.89,11.37,3.89C390.35,201.75,395.16,198.81,395.16,193.16
				 M368.32,193.16c0-4.8-2.99-7.21-8.06-7.63l-4.27-0.37c-2.88-0.27-3.74-1.49-3.74-3.09c0-2.03,1.66-3.47,4.91-3.47
				c2.56,0,4.97,0.53,6.67,1.98l3.42-3.47c-2.51-2.18-5.98-3.03-10.03-3.03c-5.66,0-10.19,2.98-10.19,8.26c0,4.75,2.94,7.05,8,7.48
				l4.32,0.37c2.61,0.21,3.63,1.39,3.63,3.2c0,2.57-2.62,3.74-5.93,3.74c-2.67,0-5.6-0.59-7.79-2.83l-3.57,3.58
				c3.2,3.14,6.94,3.89,11.36,3.89C363.52,201.75,368.32,198.81,368.32,193.16 M333.96,191.66c0,1.92-0.37,3.2-1.17,4
				c-1.44,1.39-2.99,1.55-5.07,1.55c-3.42,0-4.97-1.39-4.97-3.85c0-2.45,1.66-3.9,4.86-3.9h6.35V191.66z M339.39,201.43v-18.09
				c0-6.14-3.73-9.28-11.15-9.28c-4.48,0-7.15,0.9-9.71,3.89l3.57,3.36c1.49-1.92,2.94-2.62,5.93-2.62c4.22,0,5.93,1.66,5.93,5.07
				v1.93h-7.15c-6.19,0-9.34,3.25-9.34,7.78c0,2.3,0.75,4.38,2.13,5.82c1.65,1.65,3.89,2.45,7.25,2.45s5.23-0.8,7.21-2.77v2.45
				H339.39z M312.98,201.43v-4.63h-2.4c-2.18,0-2.93-1.07-2.93-3.15v-30.2h-5.44v30.52c0,4,2.24,7.46,7.41,7.46H312.98z
				 M296.98,201.43l-13.61-23.1l12.33-14.88h-7.04l-15.52,19.1v-19.1h-5.76v37.99h5.76v-11.04l6.4-7.68l10.67,18.73H296.98z"/>
		</g>
		<g style="clip-path:url(#SVGID_00000072976458886857218010000006925624717863022225_);">
			<path class="st3" d="M704.2,772.88c0-3.58-0.43-7.26-3.3-10.14c-1.54-1.55-3.84-2.45-6.83-2.45c-2.77,0-5.02,0.85-6.3,2.18
				v-10.04h15.58v-4.85h-20.48v20.75h4.96c0.58-1.87,2.3-3.42,5.39-3.42c4.38,0,5.55,3.42,5.55,7.95c0,2.56-0.21,5.07-1.81,6.67
				c-0.96,0.96-2.35,1.49-3.95,1.49c-3.42,0-5.13-1.92-5.55-5.29h-5.44c0.21,2.72,0.85,5.23,2.88,7.26
				c1.65,1.65,4.48,2.93,8.11,2.93c3.68,0,6.3-1.28,8-2.98C703.78,780.19,704.2,776.93,704.2,772.88 M662.8,782.05l-3.68-3.63
				c-1.66,1.66-2.77,2.62-5.23,2.62c-4.38,0-6.62-3.04-6.62-9.02c0-5.88,2.24-8.97,6.62-8.97c2.4,0,3.63,0.96,5.23,2.56l3.68-3.57
				c-1.71-1.71-2.56-2.29-4-2.93c-1.39-0.58-2.99-0.9-4.86-0.9c-7.57,0-12.1,5.17-12.1,13.71c0,8.81,4.48,13.97,12.1,13.97
				c1.87,0,3.42-0.26,4.86-0.9C660.24,784.35,661.09,783.76,662.8,782.05 M628.92,775.81c0,3.95-1.71,5.55-5.93,5.55
				c-3.68,0-5.34-1.23-5.34-3.85c0-2.56,1.65-3.84,4.86-3.84h6.4V775.81z M634.31,785.57v-18.09c0-6.14-3.79-9.28-11.31-9.28
				c-2.56,0-4.48,0.32-6.03,1.06c-1.33,0.59-2.02,1.23-3.52,2.83l3.57,3.36c0.8-1.02,1.39-1.55,2.18-1.92
				c0.96-0.48,2.08-0.7,3.63-0.7c4.27,0,6.08,1.49,6.08,5.02v1.98h-7.26c-5.76,0-9.28,2.93-9.28,7.84c0,5.23,3.36,8.16,9.39,8.16
				c3.21,0,4.97-0.48,7.21-2.72v2.45H634.31z M605.18,785.57v-27.04h-18.51v11.25c0,10.46-2.77,11-5.12,11h-0.85v4.8h2.56
				c5.28,0,8.64-2.98,8.64-14.46v-7.85h7.85v22.3H605.18z M556.94,785.57v-19.84l15.31,19.84h7.31l-15.96-20.06l14.62-17.93h-7.09
				l-14.19,18.04v-18.04h-5.76v37.99H556.94z M532.34,743.64h-5.23l-15.21,45.88h5.23L532.34,743.64z M495.15,772.88
				c0-3.58-0.43-7.26-3.3-10.14c-1.54-1.55-3.84-2.45-6.83-2.45c-2.78,0-5.02,0.85-6.3,2.18v-10.04h15.58v-4.85h-20.48v20.75h4.95
				c0.59-1.87,2.3-3.42,5.4-3.42c4.38,0,5.55,3.42,5.55,7.95c0,2.56-0.21,5.07-1.81,6.67c-0.96,0.96-2.35,1.49-3.95,1.49
				c-3.42,0-5.13-1.92-5.55-5.29h-5.44c0.21,2.72,0.85,5.23,2.88,7.26c1.65,1.65,4.48,2.93,8.11,2.93c3.68,0,6.3-1.28,8-2.98
				C494.72,780.19,495.15,776.93,495.15,772.88 M447.45,769.84h-12.17c0.06-1.66,0.16-2.46,0.7-3.68c0.85-2.03,2.83-3.42,5.39-3.42
				c2.56,0,4.48,1.39,5.34,3.42C447.23,767.38,447.39,768.18,447.45,769.84 M452.84,773.62v-2.4c0-7.68-4.22-13.01-11.48-13.01
				c-6.94,0-11.46,5.06-11.46,13.81c0,10.3,5.38,13.87,12.16,13.87c4.75,0,7.36-1.44,10.14-4.21l-3.47-3.26
				c-1.92,1.92-3.52,2.77-6.56,2.77c-4.43,0-6.89-2.94-6.89-7.58H452.84z M424.13,777.3c0-4.8-2.99-7.21-8.05-7.63l-4.27-0.37
				c-2.88-0.27-3.74-1.49-3.74-3.09c0-2.03,1.65-3.47,4.91-3.47c2.56,0,4.96,0.53,6.67,1.98l3.42-3.47
				c-2.51-2.18-5.98-3.03-10.03-3.03c-5.66,0-10.19,2.98-10.19,8.26c0,4.75,2.93,7.05,8,7.48l4.32,0.37
				c2.62,0.21,3.63,1.39,3.63,3.2c0,2.57-2.61,3.74-5.92,3.74c-2.67,0-5.61-0.59-7.79-2.83l-3.58,3.58
				c3.2,3.14,6.94,3.89,11.37,3.89C419.33,785.89,424.13,782.96,424.13,777.3 M397.29,777.3c0-4.8-2.99-7.21-8.06-7.63l-4.27-0.37
				c-2.88-0.27-3.74-1.49-3.74-3.09c0-2.03,1.66-3.47,4.91-3.47c2.56,0,4.97,0.53,6.67,1.98l3.42-3.47
				c-2.51-2.18-5.98-3.03-10.03-3.03c-5.66,0-10.19,2.98-10.19,8.26c0,4.75,2.94,7.05,8,7.48l4.32,0.37
				c2.61,0.21,3.63,1.39,3.63,3.2c0,2.57-2.62,3.74-5.93,3.74c-2.67,0-5.6-0.59-7.79-2.83l-3.57,3.58c3.2,3.14,6.94,3.89,11.36,3.89
				C392.49,785.89,397.29,782.96,397.29,777.3 M362.93,775.81c0,1.92-0.37,3.2-1.17,4c-1.44,1.39-2.99,1.55-5.07,1.55
				c-3.42,0-4.97-1.39-4.97-3.85s1.66-3.9,4.86-3.9h6.35V775.81z M368.37,785.57v-18.09c0-6.14-3.73-9.28-11.15-9.28
				c-4.48,0-7.15,0.9-9.71,3.89l3.57,3.36c1.49-1.92,2.94-2.62,5.93-2.62c4.22,0,5.93,1.66,5.93,5.07v1.93h-7.15
				c-6.19,0-9.34,3.25-9.34,7.78c0,2.3,0.75,4.38,2.13,5.82c1.65,1.65,3.89,2.45,7.25,2.45s5.23-0.8,7.21-2.77v2.45H368.37z
				 M341.96,785.57v-4.63h-2.4c-2.18,0-2.93-1.07-2.93-3.15v-30.2h-5.44v30.52c0,4,2.24,7.46,7.41,7.46H341.96z M325.95,785.57
				l-13.61-23.1l12.33-14.88h-7.04l-15.52,19.1v-19.1h-5.76v37.99h5.76v-11.04l6.4-7.68l10.67,18.73H325.95z"/>
		</g>
	</g>
	<g>
		<polygon class="st4" points="20.72,757.07 36.78,757.07 28.76,746.44 		"/>
	</g>
	<g>
		<polygon class="st4" points="20.72,778.19 36.78,778.19 28.76,767.57 		"/>
	</g>
	<g>
		<polygon class="st4" points="20.72,799.32 36.78,799.32 28.76,788.7 		"/>
	</g>
	<g>
		<polygon class="st4" points="20.72,735.94 36.78,735.94 28.76,725.32 		"/>
	</g>
	<g>
		<polygon class="st4" points="20.72,641.64 36.78,641.64 28.76,631.02 		"/>
	</g>
	<g>
		<polygon class="st4" points="20.72,662.77 36.78,662.77 28.76,652.14 		"/>
	</g>
	<g>
		<polygon class="st4" points="20.72,683.89 36.78,683.89 28.76,673.27 		"/>
	</g>
	<g>
		<polygon class="st4" points="20.72,620.51 36.78,620.51 28.76,609.89 		"/>
	</g>
	<g>
		<polygon class="st4" points="20.72,522 36.78,522 28.76,511.38 		"/>
	</g>
	<g>
		<polygon class="st4" points="20.72,543.13 36.78,543.13 28.76,532.51 		"/>
	</g>
	<g>
		<polygon class="st4" points="20.72,564.25 36.78,564.25 28.76,553.63 		"/>
	</g>
	<g>
		<polygon class="st4" points="20.72,500.88 36.78,500.88 28.76,490.25 		"/>
	</g>
	<g>
		<polygon class="st4" points="20.72,403.77 36.78,403.77 28.76,393.14 		"/>
	</g>
	<g>
		<polygon class="st4" points="20.72,424.89 36.78,424.89 28.76,414.27 		"/>
	</g>
	<g>
		<polygon class="st4" points="20.72,446.02 36.78,446.02 28.76,435.4 		"/>
	</g>
	<g>
		<polygon class="st4" points="20.72,382.64 36.78,382.64 28.76,372.02 		"/>
	</g>
	<g>
		<polygon class="st4" points="20.72,288.34 36.78,288.34 28.76,277.72 		"/>
	</g>
	<g>
		<polygon class="st4" points="20.72,309.47 36.78,309.47 28.76,298.85 		"/>
	</g>
	<g>
		<polygon class="st4" points="20.72,330.6 36.78,330.6 28.76,319.98 		"/>
	</g>
	<g>
		<polygon class="st4" points="20.72,267.22 36.78,267.22 28.76,256.6 		"/>
	</g>
	<g>
		<polygon class="st4" points="20.72,171.51 36.78,171.51 28.76,160.89 		"/>
	</g>
	<g>
		<polygon class="st4" points="20.72,192.64 36.78,192.64 28.76,182.02 		"/>
	</g>
	<g>
		<polygon class="st4" points="20.72,213.77 36.78,213.77 28.76,203.15 		"/>
	</g>
	<g>
		<polygon class="st4" points="20.72,150.39 36.78,150.39 28.76,139.77 		"/>
	</g>
	<g>
		<defs>
			<polygon id="SVGID_00000129207223596950769690000010079940099820710831_" points="0.24,826.05 997.19,823.04 1000,3.89 3.04,6.9 
							"/>
		</defs>
		<clipPath id="SVGID_00000178901872927737164440000016085987969659902875_">
			<use xlink:href="#SVGID_00000129207223596950769690000010079940099820710831_"  style="overflow:visible;"/>
		</clipPath>
		<g style="clip-path:url(#SVGID_00000178901872927737164440000016085987969659902875_);">
			<path class="st4" d="M835.1,75.31c0-6.43-3.8-10.44-11.32-11.17l-5.99-0.59c-3.36-0.29-3.94-1.9-3.94-3.29
				c0-1.9,1.61-3.65,5.4-3.65c3.29,0,6.64,0.58,8.84,2.56l5.84-5.91c-3.65-3.43-8.62-4.45-14.53-4.45
				c-7.74,0-14.68,4.23-14.68,12.11c0,7.02,4.24,10.01,11.1,10.67l5.99,0.58c2.99,0.29,4.02,1.61,4.02,3.5
				c0,2.85-3.43,3.95-6.72,3.95c-2.92,0-7.01-0.44-10.15-3.58l-6.21,6.21c4.82,4.81,10.22,5.47,16.21,5.47
				C827.94,87.72,835.1,83.71,835.1,75.31 M797.5,75.31c0-6.43-3.8-10.44-11.32-11.17l-5.99-0.59c-3.36-0.29-3.94-1.9-3.94-3.29
				c0-1.9,1.61-3.65,5.4-3.65c3.29,0,6.64,0.58,8.84,2.56l5.84-5.91c-3.65-3.43-8.62-4.45-14.53-4.45
				c-7.74,0-14.68,4.23-14.68,12.11c0,7.02,4.24,10.01,11.1,10.67l5.99,0.58c2.99,0.29,4.02,1.61,4.02,3.5
				c0,2.85-3.43,3.95-6.72,3.95c-2.92,0-7.01-0.44-10.15-3.58l-6.21,6.21c4.82,4.81,10.22,5.47,16.21,5.47
				C790.34,87.72,797.5,83.71,797.5,75.31 M756.75,87.28V49.25h-9.49v23c0,5.18-3.36,6.94-6.35,6.94c-3,0-6.29-1.75-6.29-6.94v-23
				h-9.49v24.31c0,4.16,0.8,7.73,3.87,10.8c2.11,2.11,5.18,3.35,8.98,3.35c3.51,0,7.02-1.31,9.5-3.94v3.5H756.75z M716.51,87.28
				v-8.02h-3.65c-2.41,0-3.36-1.17-3.36-3.43V35.3h-9.49v41.11c0,5.4,3.29,10.87,11.09,10.87H716.51z M688.69,87.28V62.67
				c0-8.03-4.38-13.86-12.7-13.86c-3.36,0-6.58,1.31-9.13,3.94V35.3h-9.48v51.98h9.48V64.06c0-4.97,3.14-6.72,6.14-6.72
				c2.99,0,6.21,1.68,6.21,6.72v23.22H688.69z M648.53,82.54l-6.43-6.35c-1.97,2.12-3.65,3-6.13,3c-2.26,0-4.02-0.8-5.4-2.49
				c-1.46-1.83-2.12-4.45-2.12-8.47s0.66-6.58,2.12-8.4c1.39-1.68,3.14-2.48,5.4-2.48c2.48,0,4.16,0.88,6.13,2.99l6.43-6.42
				c-3.36-3.5-7.3-5.11-12.56-5.11c-7.59,0-17,4.01-17,19.42s9.41,19.49,17,19.49C641.23,87.72,645.18,86.04,648.53,82.54
				 M611.45,75.31c0-6.43-3.8-10.44-11.32-11.17l-5.99-0.59c-3.36-0.29-3.94-1.9-3.94-3.29c0-1.9,1.61-3.65,5.4-3.65
				c3.29,0,6.64,0.58,8.84,2.56l5.84-5.91c-3.65-3.43-8.62-4.45-14.53-4.45c-7.74,0-14.68,4.23-14.68,12.11
				c0,7.02,4.24,10.01,11.1,10.67l5.99,0.58c2.99,0.29,4.02,1.61,4.02,3.5c0,2.85-3.43,3.95-6.72,3.95c-2.92,0-7.01-0.44-10.15-3.58
				l-6.21,6.21c4.82,4.81,10.22,5.47,16.21,5.47C604.29,87.72,611.45,83.71,611.45,75.31 M562.82,68.23
				c0,6.21-0.73,10.96-6.43,10.96c-5.7,0-6.43-4.75-6.43-10.96c0-6.21,0.73-10.89,6.43-10.89
				C562.09,57.34,562.82,62.02,562.82,68.23 M572.3,68.23c0-5.7-0.07-12.2-3.86-15.99c-2.12-2.12-5.54-3.43-9.27-3.43
				c-3.87,0-6.72,1.02-9.21,3.79V35.3h-9.48v51.98h9.19v-3.57c2.63,2.92,5.48,4.01,9.5,4.01c3.73,0,7.16-1.31,9.27-3.43
				C572.23,80.5,572.3,73.92,572.3,68.23 M519.3,73.26c0,2.34-0.37,3.88-1.39,4.82c-1.68,1.61-3.36,1.83-5.99,1.83
				c-3.73,0-5.48-1.76-5.48-4.39c0-2.71,1.9-4.31,5.34-4.31h7.53V73.26z M528.79,87.28V62.24c0-8.91-5.54-13.43-16.2-13.43
				c-6.36,0-10,1.16-13.72,5.25l6.05,5.91c1.97-2.27,3.65-3.15,7.3-3.15c5.04,0,7.09,1.83,7.09,5.99v1.9h-8.99
				c-8.84,0-12.99,4.95-12.99,11.02c0,3.36,1.1,6.43,3.13,8.54c2.26,2.26,5.4,3.35,9.71,3.35c4.38,0,6.8-1.1,9.35-3.65v3.28H528.79z
				 M490.96,87.28v-8.02h-3.65c-2.41,0-3.36-1.17-3.36-3.43V35.3h-9.48v41.11c0,5.4,3.28,10.87,11.09,10.87H490.96z M462.7,87.28
				V49.25h-9.48v23c0,5.18-3.36,6.94-6.36,6.94c-2.99,0-6.29-1.75-6.29-6.94v-23h-9.48v24.31c0,4.16,0.8,7.73,3.86,10.8
				c2.12,2.11,5.18,3.35,8.98,3.35c3.5,0,7.02-1.31,9.5-3.94v3.5H462.7z M419.85,87.28V62.67c0-8.03-4.38-13.86-12.7-13.86
				c-3.36,0-6.58,1.31-9.13,3.94V35.3h-9.49v51.98h9.49V64.06c0-4.97,3.14-6.72,6.13-6.72c3,0,6.21,1.68,6.21,6.72v23.22H419.85z
				 M379.69,82.54l-6.43-6.35c-1.97,2.12-3.65,3-6.13,3c-2.26,0-4.02-0.8-5.4-2.49c-1.46-1.83-2.12-4.45-2.12-8.47
				s0.66-6.58,2.12-8.4c1.39-1.68,3.14-2.48,5.4-2.48c2.48,0,4.16,0.88,6.13,2.99l6.43-6.42c-3.36-3.5-7.3-5.11-12.56-5.11
				c-7.59,0-17.01,4.01-17.01,19.42s9.41,19.49,17.01,19.49C372.39,87.72,376.33,86.04,379.69,82.54 M342.59,75.31
				c0-6.43-3.8-10.44-11.32-11.17l-5.99-0.59c-3.36-0.29-3.94-1.9-3.94-3.29c0-1.9,1.61-3.65,5.4-3.65c3.29,0,6.64,0.58,8.84,2.56
				l5.84-5.91c-3.65-3.43-8.62-4.45-14.53-4.45c-7.74,0-14.68,4.23-14.68,12.11c0,7.02,4.24,10.01,11.1,10.67l5.99,0.58
				c2.99,0.29,4.02,1.61,4.02,3.5c0,2.85-3.43,3.95-6.72,3.95c-2.92,0-7.01-0.44-10.15-3.58l-6.21,6.21
				c4.82,4.81,10.22,5.47,16.21,5.47C335.44,87.72,342.59,83.71,342.59,75.31 M304.92,87.28v-8.02h-3.65
				c-2.41,0-3.36-1.17-3.36-3.43V35.3h-9.49v41.11c0,5.4,3.29,10.87,11.09,10.87H304.92z M267.61,73.26c0,2.34-0.37,3.88-1.39,4.82
				c-1.68,1.61-3.36,1.83-5.99,1.83c-3.72,0-5.48-1.76-5.48-4.39c0-2.71,1.9-4.31,5.33-4.31h7.53V73.26z M277.1,87.28V62.24
				c0-8.91-5.54-13.43-16.2-13.43c-6.36,0-10.01,1.16-13.73,5.25l6.05,5.91c1.97-2.27,3.65-3.15,7.3-3.15
				c5.04,0,7.09,1.83,7.09,5.99v1.9h-8.99c-8.83,0-12.99,4.95-12.99,11.02c0,3.36,1.1,6.43,3.14,8.54c2.26,2.26,5.4,3.35,9.71,3.35
				c4.39,0,6.8-1.1,9.35-3.65v3.28H277.1z M228.76,64.73H214.3c0.07-1.69,0.29-2.71,0.88-4.09c1.02-2.27,3.14-3.95,6.35-3.95
				c3.21,0,5.33,1.68,6.35,3.95C228.47,62.02,228.69,63.04,228.76,64.73 M238.11,71.22v-4.23c0-10.45-5.99-18.18-16.58-18.18
				c-9.86,0-16.56,7-16.56,19.42c0,15.41,8.6,19.49,17.59,19.49c6.86,0,10.59-2.12,14.46-5.98l-5.77-5.62
				c-2.41,2.41-4.45,3.58-8.62,3.58c-5.33,0-8.32-3.58-8.32-8.48H238.11z M185.47,51.22c0,4.02-2.93,6.87-7.38,6.87h-9.57V44.35
				h9.57C182.54,44.35,185.47,47.19,185.47,51.22 M197.73,87.28l-11.6-22.42c5.03-1.82,9.48-6.34,9.48-13.65
				c0-8.69-6.27-15.91-16.86-15.91h-20.37v51.98h10.14V66.54h7.31l10.16,20.74H197.73z"/>
		</g>
	</g>
</g>
</svg>
