<?xml version="1.0" encoding="utf-8"?>
<!-- Generator: Adobe Illustrator 26.2.1, SVG Export Plug-In . SVG Version: 6.00 Build 0)  -->
<svg version="1.1" id="Ebene_1" xmlns="http://www.w3.org/2000/svg" xmlns:xlink="http://www.w3.org/1999/xlink" x="0px" y="0px"
	 viewBox="0 0 1000 702.95" style="enable-background:new 0 0 1000 702.95;" xml:space="preserve">
<style type="text/css">
	.st0{fill:#A2B9E1;}
	.st1{fill:#6796CF;}
	.st2{clip-path:url(#SVGID_00000179627250467153756120000007156410603216974508_);}
	.st3{fill:#2B2961;}
	.st4{fill:#FFFFFF;}
	.st5{clip-path:url(#SVGID_00000073001185751048386840000010155817056259744432_);}
	.st6{clip-path:url(#SVGID_00000105402663516308404790000013498570586552584614_);}
	.st7{clip-path:url(#SVGID_00000134971705723377656750000007366385820117976206_);}
	.st8{clip-path:url(#SVGID_00000060031842313217556110000013474635573516409245_);}
	.st9{clip-path:url(#SVGID_00000114785120237954810930000000935483447541233297_);}
	.st10{opacity:0.52;clip-path:url(#SVGID_00000093140747152653271820000006801634609939832511_);}
	.st11{clip-path:url(#SVGID_00000116916949013102538860000004043958959522034094_);}
	.st12{clip-path:url(#SVGID_00000067222906228209520980000001288648626384845720_);}
	.st13{clip-path:url(#SVGID_00000091009142801179509010000005137658850813438118_);}
	.st14{clip-path:url(#SVGID_00000049208324547237482620000018224838573409650582_);}
	.st15{clip-path:url(#SVGID_00000179636963458724290560000015502612899674339968_);}
	.st16{clip-path:url(#SVGID_00000054972668403111998500000000083941145300273590_);}
	.st17{clip-path:url(#SVGID_00000003816876078728447820000016199464877171484809_);}
	.st18{clip-path:url(#SVGID_00000070815074983994703810000009097204689768557725_);}
	.st19{clip-path:url(#SVGID_00000160907306245617377510000012679389692134572986_);}
	.st20{clip-path:url(#SVGID_00000152983763520944089410000005459349212852944513_);}
	.st21{clip-path:url(#SVGID_00000183214192898935114370000003023133725043682707_);}
	.st22{clip-path:url(#SVGID_00000088113711932307446330000016964012970725008305_);}
	.st23{fill:none;stroke:#2B2961;stroke-width:0.374;stroke-linejoin:round;stroke-miterlimit:10;}
	.st24{fill:none;stroke:#2B2961;stroke-width:0.4;stroke-miterlimit:10;}
	.st25{clip-path:url(#SVGID_00000163063951244212427550000016951013825077819828_);}
	.st26{clip-path:url(#SVGID_00000072981005366988321730000008833250559724976025_);}
	.st27{clip-path:url(#SVGID_00000101825336393677745160000004222166740529361025_);}
	.st28{clip-path:url(#SVGID_00000134943329751844166670000004872140747434236544_);}
	.st29{clip-path:url(#SVGID_00000073684155152824309970000010583726639620841101_);}
	.st30{clip-path:url(#SVGID_00000140732869949021382180000013933793350544518568_);}
	.st31{clip-path:url(#SVGID_00000067208587441495569670000017129183092858270112_);}
	.st32{clip-path:url(#SVGID_00000049932799949127019770000013535259560962478522_);}
	.st33{clip-path:url(#SVGID_00000133495264511623511740000016438406881521629886_);}
	.st34{clip-path:url(#SVGID_00000163055238472480256630000015210766051958162359_);}
	.st35{clip-path:url(#SVGID_00000005225504316835663580000008872890014654314942_);}
	.st36{clip-path:url(#SVGID_00000088129373399139598360000005243934995614491780_);}
	.st37{clip-path:url(#SVGID_00000029041452889069738450000013975568126827986835_);}
	.st38{clip-path:url(#SVGID_00000040541578818807597850000005615878731678816390_);}
	.st39{clip-path:url(#SVGID_00000109021090583644907160000010439945818550498975_);}
	.st40{clip-path:url(#SVGID_00000036250682763600161830000011788758215444218505_);}
	.st41{clip-path:url(#SVGID_00000083787584782329699450000018294519196225166519_);}
	.st42{clip-path:url(#SVGID_00000077294713333629635100000001682736169513444736_);}
	.st43{clip-path:url(#SVGID_00000167375096611311169940000006224594366213141933_);}
	.st44{clip-path:url(#SVGID_00000040570600702938696670000010445751007515290810_);}
	.st45{clip-path:url(#SVGID_00000024715982474433466180000014128690812289309323_);}
	.st46{clip-path:url(#SVGID_00000020364214042456683490000008842689667194184121_);}
	.st47{clip-path:url(#SVGID_00000138547389101265384600000012276173542073809064_);}
	.st48{clip-path:url(#SVGID_00000126307340785731048840000002678636150000637877_);}
	.st49{clip-path:url(#SVGID_00000108277623466227408210000014628150220701252242_);}
	.st50{clip-path:url(#SVGID_00000176752214570339460870000006780121683456460960_);}
	.st51{clip-path:url(#SVGID_00000042009260602704542790000006986408079400235429_);}
	.st52{clip-path:url(#SVGID_00000111169376102443581050000010314626912743149729_);}
	.st53{clip-path:url(#SVGID_00000117642482057874745260000005608557201130569910_);}
	.st54{clip-path:url(#SVGID_00000025402398273711462520000008249413090973520033_);}
	.st55{clip-path:url(#SVGID_00000165229597918137174620000013053510854335734695_);}
	.st56{clip-path:url(#SVGID_00000033336768409689708440000001876985306859482517_);}
	.st57{clip-path:url(#SVGID_00000103966933790360141480000014784817956353995443_);}
	.st58{clip-path:url(#SVGID_00000129188184968261403960000017799396010018086552_);}
	.st59{clip-path:url(#SVGID_00000018233404868890978150000015246452117847040669_);}
	.st60{clip-path:url(#SVGID_00000144327156647780119290000001980690584787126939_);}
	.st61{clip-path:url(#SVGID_00000006678421510775634120000003364089478232338817_);}
	.st62{fill:#9AB4DE;}
	.st63{clip-path:url(#SVGID_00000135657161134623799830000012698720878378979982_);}
	.st64{clip-path:url(#SVGID_00000124842727821482727130000010190432563587710384_);}
	.st65{clip-path:url(#SVGID_00000062891703150321052020000003276470461907286148_);}
	.st66{fill:#B9C9E9;}
	.st67{clip-path:url(#SVGID_00000109718355829731336980000018344731721256501914_);}
	.st68{clip-path:url(#SVGID_00000023971576153847600030000009333064167352642468_);}
	.st69{clip-path:url(#SVGID_00000121249496025705521480000013440652003045809321_);}
	.st70{clip-path:url(#SVGID_00000183209220899723856770000003121295415143651255_);}
	.st71{clip-path:url(#SVGID_00000173129367101142342690000013846574444625072319_);}
	.st72{clip-path:url(#SVGID_00000088838244903758457770000011289586386578771092_);}
	.st73{clip-path:url(#SVGID_00000069368996716064882780000005205412470655332023_);}
	.st74{clip-path:url(#SVGID_00000016076355095940777120000007130612252810037944_);}
	.st75{clip-path:url(#SVGID_00000019671784491609231050000015775796535891433382_);}
	.st76{clip-path:url(#SVGID_00000021798617789047915190000000914277508759337873_);}
	.st77{clip-path:url(#SVGID_00000160888275024637333510000009965955994013861288_);}
	.st78{clip-path:url(#SVGID_00000055684455421835163480000012732627691509477292_);}
	.st79{clip-path:url(#SVGID_00000054256312958035677140000013508469070011364531_);}
	.st80{clip-path:url(#SVGID_00000173121924168314160730000003926404436773704341_);}
	.st81{clip-path:url(#SVGID_00000110434608199414131490000003725851638904159920_);}
	.st82{clip-path:url(#SVGID_00000167385754135170546580000006988707604562118536_);}
	.st83{clip-path:url(#SVGID_00000181767074462452867370000001516204956104186504_);}
	.st84{clip-path:url(#SVGID_00000131357916286584306230000002364998828541853843_);}
	.st85{clip-path:url(#SVGID_00000016067240702195716240000004649348034289577621_);}
	.st86{clip-path:url(#SVGID_00000165956946332859191870000012548139337661857429_);}
	.st87{clip-path:url(#SVGID_00000178883582018386988220000004572296309742357944_);}
	.st88{clip-path:url(#SVGID_00000179638398737141774890000000848162217569713061_);}
	.st89{clip-path:url(#SVGID_00000111882812943885979660000016299859397378174890_);}
	.st90{clip-path:url(#SVGID_00000175321308362467484160000003319266586479674265_);}
	.st91{clip-path:url(#SVGID_00000138560353748369575300000008332299678305399686_);}
	.st92{clip-path:url(#SVGID_00000150788709326246217020000009411978290406091671_);}
	.st93{clip-path:url(#SVGID_00000183210427718506283780000000004669851392501182_);}
	.st94{clip-path:url(#SVGID_00000163776690352275698950000007281510437882669701_);}
	.st95{clip-path:url(#SVGID_00000032624674362341454150000001800282495523508642_);}
	.st96{clip-path:url(#SVGID_00000148638655739904646720000006058828772699737762_);}
	.st97{clip-path:url(#SVGID_00000164474435261350521670000015746046444649302148_);}
	.st98{clip-path:url(#SVGID_00000084501579004455472410000012016243250458422150_);}
	.st99{clip-path:url(#SVGID_00000147917435120378166250000001043666798975617714_);}
	.st100{clip-path:url(#SVGID_00000140708001707610392910000013706645695307929761_);}
	.st101{clip-path:url(#SVGID_00000080196874614797535990000000308942565287584672_);}
	.st102{clip-path:url(#SVGID_00000108306540981423016050000014858759079418568070_);}
	.st103{clip-path:url(#SVGID_00000090267350203592321550000006971138383184168849_);}
	.st104{clip-path:url(#SVGID_00000045588743698659362040000013587951361731910835_);}
	.st105{clip-path:url(#SVGID_00000068668466067788492530000016897141582887907983_);}
	.st106{clip-path:url(#SVGID_00000092422573056485175200000015636397232253020308_);}
	.st107{clip-path:url(#SVGID_00000034805778339227427500000015492861444521895089_);}
	.st108{clip-path:url(#SVGID_00000062191184484847902870000012611104210343916172_);}
	.st109{clip-path:url(#SVGID_00000165194000927546696370000017388169617064573350_);}
	.st110{clip-path:url(#SVGID_00000011714536862690665520000013904354842167949738_);}
	.st111{clip-path:url(#SVGID_00000149339847731055140060000013193254905134393274_);}
	.st112{clip-path:url(#SVGID_00000130621186815631086710000015786196271464559790_);}
	.st113{clip-path:url(#SVGID_00000104691065892774224890000008181716927093007489_);}
	.st114{clip-path:url(#SVGID_00000114767585313275599230000002191295122140989617_);}
	.st115{clip-path:url(#SVGID_00000158717517362340651000000001227060073385430920_);}
	.st116{clip-path:url(#SVGID_00000004536440570570890970000016968047050377747616_);}
	.st117{clip-path:url(#SVGID_00000016067351886424704510000017060556742695140254_);}
	.st118{clip-path:url(#SVGID_00000046302913327546326800000011116949179511041175_);}
	.st119{clip-path:url(#SVGID_00000103984476879683131100000000971509957466219664_);}
	.st120{clip-path:url(#SVGID_00000155142405419779741090000006403679521799304580_);}
	.st121{clip-path:url(#SVGID_00000012434628717557922970000003636274348165706380_);}
	.st122{clip-path:url(#SVGID_00000098217058319284386050000013660859687730146688_);}
	.st123{clip-path:url(#SVGID_00000118397749260894241660000007975427413283685799_);}
	.st124{clip-path:url(#SVGID_00000005964424137873093100000001415630888554537657_);}
	.st125{clip-path:url(#SVGID_00000055670710455795259910000000545878668148219544_);}
	.st126{clip-path:url(#SVGID_00000183213782624607321580000008299893680733792648_);}
	.st127{clip-path:url(#SVGID_00000080183559585368485990000013300122693337836193_);}
	.st128{clip-path:url(#SVGID_00000145030237263183198270000004784462137646925745_);}
	.st129{clip-path:url(#SVGID_00000099632094558418942150000009077651751517523601_);}
	.st130{clip-path:url(#SVGID_00000176001440739766871060000001888369958985322687_);}
	.st131{clip-path:url(#SVGID_00000078044977158015568160000004461936268169355156_);}
	.st132{clip-path:url(#SVGID_00000121245423127828960130000014065901177185253779_);}
	.st133{clip-path:url(#SVGID_00000142153643893474538510000016385775139568558981_);}
	.st134{clip-path:url(#SVGID_00000044144013768042442350000015849370984077354154_);}
	.st135{clip-path:url(#SVGID_00000142877905936994250040000006332719762062110858_);}
	.st136{clip-path:url(#SVGID_00000081618378369545809010000008944323088300127661_);}
	.st137{clip-path:url(#SVGID_00000136385095168506984110000006176171595121104542_);}
	.st138{clip-path:url(#SVGID_00000122710972585519700100000005671298515198459538_);}
	.st139{clip-path:url(#SVGID_00000168096006961889754950000008540011923169132200_);}
	.st140{clip-path:url(#SVGID_00000112597772786000235170000015822876346480919192_);}
	.st141{clip-path:url(#SVGID_00000113332505553239917130000000136758638227638155_);}
	.st142{clip-path:url(#SVGID_00000065053699215547973350000004284714257977797264_);}
	.st143{clip-path:url(#SVGID_00000006698242946906304220000010518672520106765744_);}
	.st144{clip-path:url(#SVGID_00000042726170651840495880000006140688108835872394_);}
	.st145{clip-path:url(#SVGID_00000120532243399015900850000000429439790541111439_);}
	.st146{clip-path:url(#SVGID_00000082339592091064729000000005852502669162850751_);}
	.st147{clip-path:url(#SVGID_00000103224520410258123710000005413264317178371732_);}
	.st148{clip-path:url(#SVGID_00000114771039676838477390000001171212168869264304_);}
	.st149{clip-path:url(#SVGID_00000140711821113049189850000001502249542654002828_);}
	.st150{clip-path:url(#SVGID_00000183963087548035303740000008684365973351074951_);}
	.st151{clip-path:url(#SVGID_00000138535082922973959780000010227228151596247174_);}
	.st152{clip-path:url(#SVGID_00000035511226131945229260000006391720496125834161_);}
	.st153{clip-path:url(#SVGID_00000176737458667187377510000018029859167523665045_);}
	.st154{clip-path:url(#SVGID_00000036931576814863574970000008464858645761412245_);}
	.st155{clip-path:url(#SVGID_00000102503536286242134690000018396634616833875332_);}
	.st156{clip-path:url(#SVGID_00000152968085801532360410000007137079483730092471_);}
	.st157{clip-path:url(#SVGID_00000137123873532780535460000011115563744015683241_);}
	.st158{clip-path:url(#SVGID_00000046333553920978551250000004547691694052952499_);}
	.st159{clip-path:url(#SVGID_00000080898466868792594180000001111683950182161300_);}
	.st160{clip-path:url(#SVGID_00000158728690415240671010000005913959221923153046_);}
	.st161{clip-path:url(#SVGID_00000011739158558348899470000014830047394374889631_);}
	.st162{clip-path:url(#SVGID_00000040544821794330559300000005824581528299085191_);}
	.st163{clip-path:url(#SVGID_00000128445537265047524320000005592551399196639650_);}
	.st164{clip-path:url(#SVGID_00000047746232221758742780000000387181601343690154_);}
	.st165{clip-path:url(#SVGID_00000130613379862232882240000016148418289635309467_);}
	.st166{clip-path:url(#SVGID_00000103957451054540306790000016155563472623047301_);}
	.st167{clip-path:url(#SVGID_00000129891599040819543490000002238870134892904346_);}
	.st168{clip-path:url(#SVGID_00000152946080599628478810000014970199791749406882_);}
	.st169{clip-path:url(#SVGID_00000115474714167760386080000010408568165839765664_);}
	.st170{clip-path:url(#SVGID_00000133518863721412981320000000600238074133536647_);}
	.st171{clip-path:url(#SVGID_00000062884547281883539810000001576842886212587394_);}
	.st172{clip-path:url(#SVGID_00000151533451683987636240000005568165823708664203_);}
	.st173{clip-path:url(#SVGID_00000062889374195912380320000004588266973688993708_);}
	.st174{clip-path:url(#SVGID_00000021840301351502224650000009319358820994095512_);}
	.st175{clip-path:url(#SVGID_00000023994671910573822670000010723461852032858032_);}
	.st176{clip-path:url(#SVGID_00000148652752207958281410000017786320870213870219_);}
	.st177{clip-path:url(#SVGID_00000146463161417949801090000016508859414692602811_);}
	.st178{clip-path:url(#SVGID_00000154384540485110052080000016770266949985388198_);}
	.st179{clip-path:url(#SVGID_00000029744726825526422560000016283857085424433845_);}
	.st180{clip-path:url(#SVGID_00000120552630185667943220000000889324742122345096_);}
	.st181{clip-path:url(#SVGID_00000106106125493389179120000002167200811577812908_);}
	.st182{clip-path:url(#SVGID_00000176012176903203726630000008688322201879963797_);}
	.st183{clip-path:url(#SVGID_00000049918645507703848080000017494091301193640636_);}
	.st184{clip-path:url(#SVGID_00000121278379363119711540000009145645124153127844_);}
	.st185{clip-path:url(#SVGID_00000059277333431917357500000009844467480601222032_);}
	.st186{clip-path:url(#SVGID_00000171687063828313380300000010276565618946377344_);}
	.st187{clip-path:url(#SVGID_00000060003037097046841780000007852687393166586803_);}
	.st188{clip-path:url(#SVGID_00000146490831240879381670000008344653369740002989_);}
	.st189{clip-path:url(#SVGID_00000066515461526601065340000000076679178060122529_);}
	.st190{clip-path:url(#SVGID_00000118356224815695101610000003181921348536475268_);}
	.st191{clip-path:url(#SVGID_00000134955413026228361800000004069483461376203161_);}
	.st192{clip-path:url(#SVGID_00000158013433914681293360000018073677380438080899_);}
	.st193{clip-path:url(#SVGID_00000087370887146022101940000006867510062616832699_);}
	.st194{clip-path:url(#SVGID_00000137840904915258564600000013962712606660060839_);}
	.st195{clip-path:url(#SVGID_00000065787418486363578800000012024308872283882682_);}
	.st196{clip-path:url(#SVGID_00000109733732346573370100000015689909230047698606_);}
	.st197{clip-path:url(#SVGID_00000021839625840122003430000000383009860104010896_);}
	.st198{clip-path:url(#SVGID_00000010993321475557823170000005510410423742549414_);}
	.st199{clip-path:url(#SVGID_00000069400217585669133080000004960017113722130615_);}
	.st200{clip-path:url(#SVGID_00000093168274932965529630000002593507821591034794_);}
	.st201{clip-path:url(#SVGID_00000114041285144922224820000005819174566667269764_);}
	.st202{clip-path:url(#SVGID_00000006707508221730990940000015739450393872002694_);}
	.st203{clip-path:url(#SVGID_00000100382268139833274380000006009678087164872355_);}
	.st204{clip-path:url(#SVGID_00000153681626634433496920000012977836610781319099_);}
	.st205{clip-path:url(#SVGID_00000080889502278463318180000001778294929166485143_);}
	.st206{clip-path:url(#SVGID_00000053512424936336161900000011665381960840783248_);}
	.st207{clip-path:url(#SVGID_00000061459352179849249540000006410391346704545971_);}
	.st208{clip-path:url(#SVGID_00000064335491649516218580000003328843153181401764_);}
	.st209{clip-path:url(#SVGID_00000085244923814367796870000006196711481351286668_);}
	.st210{clip-path:url(#SVGID_00000000927973736459839290000002501270374839367608_);}
	.st211{clip-path:url(#SVGID_00000143618531204772679300000002757029760876429975_);}
	.st212{clip-path:url(#SVGID_00000141431840120593011580000009295909657511050885_);}
	.st213{clip-path:url(#SVGID_00000023254805566621045660000002471683585839465862_);}
	.st214{clip-path:url(#SVGID_00000043456876416316523180000001918250464539045771_);}
	.st215{clip-path:url(#SVGID_00000157302532879793383600000011261258099719509920_);}
	.st216{clip-path:url(#SVGID_00000066482454795709100790000010416951714790677399_);}
	.st217{clip-path:url(#SVGID_00000018950953635142680960000004325891739612105351_);}
	.st218{clip-path:url(#SVGID_00000149343495552800871100000014564501191176220802_);}
	.st219{clip-path:url(#SVGID_00000093159911781578025000000013836088738528574648_);}
	.st220{clip-path:url(#SVGID_00000027573341601184387950000000535181631363940236_);}
	.st221{clip-path:url(#SVGID_00000005966954679917380010000011723738413505015445_);}
	.st222{clip-path:url(#SVGID_00000090281765343883502200000009412697063994511255_);}
	.st223{clip-path:url(#SVGID_00000088819841757697783530000004889341075325110440_);}
	.st224{clip-path:url(#SVGID_00000156561447038693198300000012194666512904264332_);}
	.st225{clip-path:url(#SVGID_00000019645313648413491350000014568571543843869857_);}
	.st226{clip-path:url(#SVGID_00000116201038397395356080000015345893198083768465_);}
	.st227{clip-path:url(#SVGID_00000131364203757883631470000002027277945259212214_);}
	.st228{clip-path:url(#SVGID_00000020376021001184574350000012661720968157358744_);}
	.st229{clip-path:url(#SVGID_00000062169048739185831020000001599586334252670900_);}
	.st230{clip-path:url(#SVGID_00000021830513719468973540000000737213341908651671_);}
	.st231{clip-path:url(#SVGID_00000030487047347664623000000011548090436104150927_);}
	.st232{clip-path:url(#SVGID_00000182519524643793148610000010167798373014037925_);}
	.st233{clip-path:url(#SVGID_00000124146352977338646490000006439137027558786181_);}
	.st234{clip-path:url(#SVGID_00000068636795732877486990000000967818571578460299_);}
	.st235{clip-path:url(#SVGID_00000116234298856556935960000000008166158633456798_);}
	.st236{clip-path:url(#SVGID_00000181782923524159486990000007283504217216232854_);}
	.st237{clip-path:url(#SVGID_00000014617306346716800380000010258488744576304298_);}
	.st238{clip-path:url(#SVGID_00000068665585391107688300000006371324520016613542_);}
	.st239{clip-path:url(#SVGID_00000082346899883189336610000017186106164295643070_);}
	.st240{clip-path:url(#SVGID_00000057113583336366267080000016837823687479761560_);}
	.st241{clip-path:url(#SVGID_00000181778318478110184470000015690620850734179473_);}
	.st242{clip-path:url(#SVGID_00000012445218242329030950000001573221086989453488_);}
	.st243{clip-path:url(#SVGID_00000171711210911916183530000017232745163745284254_);}
	.st244{clip-path:url(#SVGID_00000150078680970992892070000009751609275845657484_);}
	.st245{clip-path:url(#SVGID_00000036943687518989708740000018376248051201850008_);}
	.st246{clip-path:url(#SVGID_00000155141525238189765080000004221583020100665513_);}
	.st247{clip-path:url(#SVGID_00000038396488986734260640000017355966226559160206_);}
	.st248{clip-path:url(#SVGID_00000106865683210224448950000011895858286048485019_);}
	.st249{clip-path:url(#SVGID_00000028289770281957625780000007747177500616129156_);}
	.st250{clip-path:url(#SVGID_00000115509114135510730470000016359380595464488115_);}
	.st251{clip-path:url(#SVGID_00000106135322184622811860000016706970070382502563_);}
	.st252{clip-path:url(#SVGID_00000080204541445415602010000013281384054901632132_);}
	.st253{clip-path:url(#SVGID_00000132766930762605520540000015470934887177297312_);}
	.st254{clip-path:url(#SVGID_00000106846664030792026680000000463351846519810456_);}
	.st255{clip-path:url(#SVGID_00000114763100326552662630000005807380274970751400_);}
	.st256{clip-path:url(#SVGID_00000147214999537590289390000018139175718346468031_);}
	.st257{clip-path:url(#SVGID_00000053511033593584061640000002080059569143341483_);}
	.st258{clip-path:url(#SVGID_00000056400496246418156060000014834359952546899887_);}
	.st259{clip-path:url(#SVGID_00000103257306126494491140000015379926704880485799_);}
	.st260{clip-path:url(#SVGID_00000114061301592750260440000011530812315355423409_);}
	.st261{clip-path:url(#SVGID_00000063630123289043597150000004241915067136528574_);}
	.st262{clip-path:url(#SVGID_00000133515718583386997820000015574054417465774733_);}
	.st263{clip-path:url(#SVGID_00000143588753341334511840000016474917114950463908_);}
	.st264{clip-path:url(#SVGID_00000044176323405863021410000007364022085015450757_);}
	.st265{clip-path:url(#SVGID_00000051347438986277048960000000170273135081230221_);}
	.st266{clip-path:url(#SVGID_00000148648439001900141900000002321917904131144066_);}
	.st267{clip-path:url(#SVGID_00000027582836633730865610000017091359417184056509_);}
	.st268{clip-path:url(#SVGID_00000115473932955181460880000006365005074224294568_);}
	.st269{clip-path:url(#SVGID_00000048473157546317481930000015557393905084192906_);}
	.st270{clip-path:url(#SVGID_00000031169848181919185380000011258769593059693241_);}
	.st271{clip-path:url(#SVGID_00000168797194809421573480000006482300751416289954_);}
	.st272{clip-path:url(#SVGID_00000170250498755002203950000018001888386038744738_);}
	.st273{clip-path:url(#SVGID_00000056428600523570288250000008537450394653309616_);}
	.st274{clip-path:url(#SVGID_00000041979882320631428830000000097687512650964138_);}
	.st275{clip-path:url(#SVGID_00000170261951461328354840000001176087882877390231_);}
	.st276{clip-path:url(#SVGID_00000083065714063172325860000011422131774596989347_);}
	.st277{clip-path:url(#SVGID_00000157993343913065913930000005121270494552927913_);}
	.st278{clip-path:url(#SVGID_00000172403957288512978220000009909430631216161944_);}
	.st279{clip-path:url(#SVGID_00000005978751571510633040000017372993673518258356_);}
	.st280{clip-path:url(#SVGID_00000142134405312784414860000007960310493723753614_);}
	.st281{clip-path:url(#SVGID_00000044892471492092950490000016600097176857406099_);}
	.st282{clip-path:url(#SVGID_00000061435011649360615630000013887465276462454449_);}
	.st283{clip-path:url(#SVGID_00000044158451140335723820000008626870888345983921_);}
	.st284{clip-path:url(#SVGID_00000103963786835835995060000009867191619048523926_);}
	.st285{clip-path:url(#SVGID_00000151538954443168553290000012047579439135302820_);}
	.st286{clip-path:url(#SVGID_00000053525383682308402000000011350208192707027133_);}
	.st287{clip-path:url(#SVGID_00000034785328268782604180000002440307251154810519_);}
	.st288{clip-path:url(#SVGID_00000178885723092483445300000008184665276320047233_);}
	.st289{clip-path:url(#SVGID_00000157266496630764096250000005671390270107347077_);}
	.st290{clip-path:url(#SVGID_00000150809839168156718630000015450698909672147895_);}
	.st291{clip-path:url(#SVGID_00000140694947436317718910000002294905960102721921_);}
	.st292{clip-path:url(#SVGID_00000178891956412697668470000014551072494247929788_);}
	.st293{clip-path:url(#SVGID_00000145737809705650987070000012601669199166801802_);}
	.st294{clip-path:url(#SVGID_00000009583041562259874790000002480255971872258203_);}
	.st295{clip-path:url(#SVGID_00000118366957277561040690000007912685119110920854_);}
	.st296{clip-path:url(#SVGID_00000113325366054479988220000001719168280459109019_);}
	.st297{clip-path:url(#SVGID_00000030463294319814811880000010028014122020009645_);}
	.st298{clip-path:url(#SVGID_00000047055428735534388680000017241376312084130471_);}
	.st299{clip-path:url(#SVGID_00000027588821066987982060000018114616189697676983_);}
	.st300{clip-path:url(#SVGID_00000169543233941591926960000016674029940113504898_);}
	.st301{clip-path:url(#SVGID_00000139997013130810303440000003137169530639397791_);}
	.st302{clip-path:url(#SVGID_00000042736562038672762950000003658511604904146841_);}
	.st303{clip-path:url(#SVGID_00000078743032081785484200000015794079865946971781_);}
	.st304{clip-path:url(#SVGID_00000086670171744062966460000015788814918614791843_);}
	.st305{clip-path:url(#SVGID_00000075871309259629896060000009598095128485930681_);}
	.st306{clip-path:url(#SVGID_00000075879566717079249870000015341162854394677146_);}
	.st307{clip-path:url(#SVGID_00000040552896536484646630000014234397072664164254_);}
	.st308{clip-path:url(#SVGID_00000172436549064350362550000014967926663074235311_);}
	.st309{clip-path:url(#SVGID_00000049216782123598429970000009482169320766771613_);}
	.st310{clip-path:url(#SVGID_00000051378946096565185600000016650592120387817887_);}
	.st311{clip-path:url(#SVGID_00000077303982985590809480000003908943945141899179_);}
	.st312{clip-path:url(#SVGID_00000072278197371618076390000014186721858129687471_);}
	.st313{clip-path:url(#SVGID_00000115495850659569886900000016727012872969207182_);}
	.st314{clip-path:url(#SVGID_00000080192334742946699920000001501574723215651207_);}
	.st315{clip-path:url(#SVGID_00000170986213797227149550000017721097607241601960_);}
	.st316{clip-path:url(#SVGID_00000006686146379088347770000007188178322643526529_);}
	.st317{clip-path:url(#SVGID_00000065785549025626478030000001435642972899538340_);}
	.st318{clip-path:url(#SVGID_00000163032859610270761920000010234899050246647212_);}
	.st319{clip-path:url(#SVGID_00000109731308093464841330000006544600652361073795_);}
	.st320{clip-path:url(#SVGID_00000152956424713137348610000013052673983783682461_);}
	.st321{clip-path:url(#SVGID_00000075844371656794610480000013920999427237632669_);}
	.st322{clip-path:url(#SVGID_00000110431355817735757090000001596189125773155751_);}
	.st323{clip-path:url(#SVGID_00000057113243326383175040000018365871947957719740_);}
	.st324{clip-path:url(#SVGID_00000128445997567666366170000008605753286870133638_);}
	.st325{clip-path:url(#SVGID_00000080902111546460641370000013592397330178077100_);}
	.st326{clip-path:url(#SVGID_00000056392668983820101030000018393883927558293167_);}
	.st327{clip-path:url(#SVGID_00000023271580325045305630000003406085461758816445_);}
	.st328{clip-path:url(#SVGID_00000070812618705821221950000003932947542718840506_);}
	.st329{clip-path:url(#SVGID_00000121977586067962860340000007261378086243746493_);}
	.st330{clip-path:url(#SVGID_00000009574359268364499940000002954116702857563010_);}
	.st331{clip-path:url(#SVGID_00000013880837208611931690000013742156780130162345_);}
	.st332{clip-path:url(#SVGID_00000004522061797571232810000011513642208736786829_);}
	.st333{clip-path:url(#SVGID_00000060026328788625910430000008170252775179258296_);}
	.st334{clip-path:url(#SVGID_00000059301032841380684650000015977751927869474221_);}
	.st335{clip-path:url(#SVGID_00000099662547416165369530000010523550609930555822_);}
	.st336{clip-path:url(#SVGID_00000165215611185720297250000010934823644531316647_);}
	.st337{clip-path:url(#SVGID_00000049922293197501518200000003480011632633766279_);}
	.st338{clip-path:url(#SVGID_00000052800725149893649380000013006393395378861451_);}
	.st339{clip-path:url(#SVGID_00000132796863840871773020000003243089739338363070_);}
	.st340{clip-path:url(#SVGID_00000148633184415484556450000001698965677708775864_);}
	.st341{clip-path:url(#SVGID_00000017506649195099461300000004876501738367405239_);}
	.st342{clip-path:url(#SVGID_00000119838203476390564510000017546317053115987853_);}
	.st343{clip-path:url(#SVGID_00000039824941638931682820000011512115052202577576_);}
	.st344{clip-path:url(#SVGID_00000167389144735238617860000017802637275974663061_);}
	.st345{clip-path:url(#SVGID_00000117658735520731746380000013066832990205632667_);}
	.st346{clip-path:url(#SVGID_00000180361242817323292470000006844032122197841325_);}
	.st347{clip-path:url(#SVGID_00000144328036917015612970000015300419665157399969_);}
	.st348{clip-path:url(#SVGID_00000130616498152891923110000008697598680761380538_);}
	.st349{clip-path:url(#SVGID_00000147898447388715387510000013251521707431824314_);}
	.st350{clip-path:url(#SVGID_00000102506665748855177540000017400587422706852259_);}
	.st351{clip-path:url(#SVGID_00000052082530493531992040000009235527559898284470_);}
	.st352{clip-path:url(#SVGID_00000136374641717176793660000017127893819343456927_);}
	.st353{clip-path:url(#SVGID_00000129175266343020575250000012467939983954705343_);}
	.st354{clip-path:url(#SVGID_00000083777091349655979340000004922921999369468549_);}
	.st355{clip-path:url(#SVGID_00000070801892139009760910000015756288814226041003_);}
	.st356{clip-path:url(#SVGID_00000152957539725050772380000014549932344975412145_);}
	.st357{clip-path:url(#SVGID_00000182530797198389110780000003447792465441431179_);}
	.st358{clip-path:url(#SVGID_00000011752859073220961250000017051584791984437399_);}
	.st359{clip-path:url(#SVGID_00000098188178361652180230000005624822891892500923_);}
	.st360{clip-path:url(#SVGID_00000062879353465780768410000002606135240504180643_);}
	.st361{clip-path:url(#SVGID_00000138536741502671706930000018036718831360531846_);}
	.st362{clip-path:url(#SVGID_00000023994019428190962830000006442925809158147768_);}
	.st363{clip-path:url(#SVGID_00000128481006942207167100000012636531902094773430_);}
	.st364{clip-path:url(#SVGID_00000004540791030407263260000013639833389018286489_);}
	.st365{clip-path:url(#SVGID_00000007409459661169851150000009655525030089000592_);}
	.st366{clip-path:url(#SVGID_00000023963472458812187000000017270049887613350284_);}
	.st367{clip-path:url(#SVGID_00000077301528130284633090000010777510325901821831_);}
	.st368{clip-path:url(#SVGID_00000173137112199925784410000004024342107869269158_);}
	.st369{clip-path:url(#SVGID_00000120548433132287146820000003355146715921535146_);}
	.st370{clip-path:url(#SVGID_00000072262862822064928800000017059881906562435001_);}
	.st371{clip-path:url(#SVGID_00000099631830697706246670000007915699571842285451_);}
	.st372{clip-path:url(#SVGID_00000105408533837956972360000017306938055067418258_);}
	.st373{clip-path:url(#SVGID_00000151543213425101488950000008177714189110430875_);}
	.st374{clip-path:url(#SVGID_00000167376035922892866950000013108539437061363862_);}
	.st375{clip-path:url(#SVGID_00000171714193923386577750000011310056803068518808_);}
</style>
<g>
	<g>
		<rect x="5.68" y="109.98" class="st0" width="48.54" height="588.48"/>
	</g>
	<g>
		<rect x="5.68" class="st1" width="992.64" height="116.88"/>
	</g>
	<g>
		<defs>
			<rect id="SVGID_00000088814102399276542100000012680401504303148222_" y="0" width="1000" height="702.95"/>
		</defs>
		<clipPath id="SVGID_00000026146442352409059830000014684930817196244145_">
			<use xlink:href="#SVGID_00000088814102399276542100000012680401504303148222_"  style="overflow:visible;"/>
		</clipPath>
		<g style="clip-path:url(#SVGID_00000026146442352409059830000014684930817196244145_);">
			<path class="st3" d="M998.31,702.95H2.81c-0.93,0-1.69-0.75-1.69-1.68V2.81c0-0.93,0.75-1.68,1.69-1.68h995.5
				c0.93,0,1.69,0.75,1.69,1.68v698.45C1000,702.19,999.25,702.95,998.31,702.95z M4.5,699.58h992.13V4.5H4.5V699.58z"/>
		</g>
		<g style="clip-path:url(#SVGID_00000026146442352409059830000014684930817196244145_);">
			<rect x="0" y="115.19" class="st3" width="995.5" height="3.37"/>
		</g>
		<g style="clip-path:url(#SVGID_00000026146442352409059830000014684930817196244145_);">
			<path class="st4" d="M845.81,69.08c0-6.43-3.8-10.45-11.32-11.18l-5.99-0.59c-3.36-0.29-3.94-1.9-3.94-3.29
				c0-1.9,1.61-3.65,5.41-3.65c3.29,0,6.65,0.58,8.84,2.56l5.84-5.91c-3.65-3.43-8.62-4.45-14.54-4.45
				c-7.74,0-14.68,4.23-14.68,12.11c0,7.02,4.24,10.01,11.1,10.67l5.99,0.58c2.99,0.29,4.02,1.61,4.02,3.51
				c0,2.85-3.43,3.95-6.72,3.95c-2.92,0-7.01-0.44-10.15-3.58l-6.21,6.21c4.82,4.82,10.23,5.47,16.22,5.47
				C838.65,81.5,845.81,77.48,845.81,69.08 M808.19,69.08c0-6.43-3.8-10.45-11.32-11.18l-5.99-0.59c-3.36-0.29-3.94-1.9-3.94-3.29
				c0-1.9,1.61-3.65,5.41-3.65c3.29,0,6.65,0.58,8.84,2.56l5.84-5.91c-3.65-3.43-8.62-4.45-14.54-4.45
				c-7.74,0-14.68,4.23-14.68,12.11c0,7.02,4.24,10.01,11.1,10.67l5.99,0.58c2.99,0.29,4.02,1.61,4.02,3.51
				c0,2.85-3.43,3.95-6.72,3.95c-2.92,0-7.01-0.44-10.15-3.58l-6.21,6.21c4.82,4.82,10.23,5.47,16.22,5.47
				C801.03,81.5,808.19,77.48,808.19,69.08 M767.42,81.06V43.01h-9.49v23.01c0,5.19-3.36,6.94-6.36,6.94c-3,0-6.29-1.75-6.29-6.94
				V43.01h-9.49v24.33c0,4.16,0.8,7.74,3.87,10.81c2.11,2.11,5.18,3.35,8.98,3.35c3.51,0,7.02-1.31,9.5-3.94v3.5H767.42z
				 M727.17,81.06v-8.02h-3.65c-2.41,0-3.36-1.17-3.36-3.43V29.06h-9.49v41.13c0,5.4,3.28,10.87,11.09,10.87H727.17z M699.34,81.06
				V56.44c0-8.04-4.38-13.87-12.7-13.87c-3.36,0-6.58,1.31-9.14,3.94V29.06h-9.48v52h9.48V57.83c0-4.97,3.14-6.72,6.14-6.72
				c2.99,0,6.21,1.68,6.21,6.72v23.23H699.34z M659.16,76.32l-6.43-6.36c-1.97,2.12-3.65,3-6.14,3c-2.26,0-4.02-0.8-5.41-2.49
				c-1.46-1.83-2.12-4.46-2.12-8.47c0-4.02,0.66-6.58,2.12-8.41c1.39-1.68,3.14-2.48,5.41-2.48c2.48,0,4.16,0.88,6.14,2.99
				l6.43-6.42c-3.36-3.51-7.3-5.11-12.56-5.11c-7.6,0-17.01,4.01-17.01,19.43c0,15.41,9.41,19.5,17.01,19.5
				C651.86,81.5,655.8,79.82,659.16,76.32 M622.06,69.08c0-6.43-3.8-10.45-11.32-11.18l-5.99-0.59c-3.36-0.29-3.94-1.9-3.94-3.29
				c0-1.9,1.61-3.65,5.41-3.65c3.29,0,6.65,0.58,8.84,2.56l5.84-5.91c-3.65-3.43-8.62-4.45-14.54-4.45
				c-7.74,0-14.68,4.23-14.68,12.11c0,7.02,4.24,10.01,11.1,10.67l5.99,0.58c2.99,0.29,4.02,1.61,4.02,3.51
				c0,2.85-3.43,3.95-6.72,3.95c-2.92,0-7.01-0.44-10.15-3.58l-6.21,6.21c4.82,4.82,10.23,5.47,16.22,5.47
				C614.9,81.5,622.06,77.48,622.06,69.08 M573.41,62c0,6.21-0.73,10.96-6.43,10.96s-6.43-4.75-6.43-10.96
				c0-6.21,0.73-10.89,6.43-10.89S573.41,55.78,573.41,62 M582.9,62c0-5.7-0.07-12.2-3.87-16c-2.12-2.12-5.55-3.43-9.28-3.43
				c-3.87,0-6.72,1.02-9.21,3.79V29.06h-9.48v52h9.19v-3.57c2.64,2.92,5.48,4.01,9.5,4.01c3.73,0,7.16-1.31,9.28-3.43
				C582.83,74.27,582.9,67.7,582.9,62 M529.88,67.03c0,2.34-0.37,3.88-1.39,4.83c-1.68,1.61-3.37,1.83-6,1.83
				c-3.73,0-5.48-1.76-5.48-4.39c0-2.71,1.9-4.32,5.34-4.32h7.53V67.03z M539.36,81.06V56.01c0-8.91-5.55-13.44-16.21-13.44
				c-6.36,0-10.01,1.16-13.73,5.25l6.06,5.92c1.97-2.27,3.65-3.15,7.3-3.15c5.05,0,7.09,1.83,7.09,6v1.9h-8.99
				c-8.84,0-13,4.96-13,11.02c0,3.36,1.1,6.43,3.14,8.55c2.26,2.26,5.4,3.35,9.72,3.35c4.38,0,6.8-1.1,9.36-3.65v3.28H539.36z
				 M501.52,81.06v-8.02h-3.65c-2.41,0-3.36-1.17-3.36-3.43V29.06h-9.48v41.13c0,5.4,3.28,10.87,11.09,10.87H501.52z M473.25,81.06
				V43.01h-9.49v23.01c0,5.19-3.36,6.94-6.36,6.94c-2.99,0-6.29-1.75-6.29-6.94V43.01h-9.48v24.33c0,4.16,0.8,7.74,3.87,10.81
				c2.12,2.11,5.18,3.35,8.98,3.35c3.51,0,7.02-1.31,9.5-3.94v3.5H473.25z M430.38,81.06V56.44c0-8.04-4.38-13.87-12.7-13.87
				c-3.37,0-6.58,1.31-9.14,3.94V29.06h-9.49v52h9.49V57.83c0-4.97,3.14-6.72,6.14-6.72c3,0,6.21,1.68,6.21,6.72v23.23H430.38z
				 M390.2,76.32l-6.43-6.36c-1.97,2.12-3.65,3-6.14,3c-2.26,0-4.02-0.8-5.41-2.49c-1.46-1.83-2.12-4.46-2.12-8.47
				c0-4.02,0.66-6.58,2.12-8.41c1.39-1.68,3.14-2.48,5.41-2.48c2.48,0,4.16,0.88,6.14,2.99l6.43-6.42
				c-3.36-3.51-7.3-5.11-12.56-5.11c-7.6,0-17.01,4.01-17.01,19.43c0,15.41,9.42,19.5,17.01,19.5
				C382.9,81.5,386.84,79.82,390.2,76.32 M353.1,69.08c0-6.43-3.8-10.45-11.32-11.18l-5.99-0.59c-3.36-0.29-3.94-1.9-3.94-3.29
				c0-1.9,1.61-3.65,5.41-3.65c3.29,0,6.65,0.58,8.84,2.56l5.84-5.91c-3.65-3.43-8.62-4.45-14.54-4.45
				c-7.74,0-14.68,4.23-14.68,12.11c0,7.02,4.24,10.01,11.1,10.67l5.99,0.58c2.99,0.29,4.02,1.61,4.02,3.51
				c0,2.85-3.43,3.95-6.72,3.95c-2.92,0-7.01-0.44-10.15-3.58l-6.21,6.21c4.82,4.82,10.23,5.47,16.22,5.47
				C345.94,81.5,353.1,77.48,353.1,69.08 M314.38,81.06v-8.02h-3.43c-2.26,0-3.29-1.24-3.29-3.44V51.33h6.72v-7.22h-6.72V32.86
				h-9.49v11.25h-4.02v7.22h4.02v18.85c0,5.41,3.29,10.88,11.02,10.88H314.38z M277.28,62c0,6.21-0.74,10.96-6.43,10.96
				c-5.7,0-6.43-4.75-6.43-10.96c0-6.21,0.73-10.89,6.43-10.89C276.55,51.11,277.28,55.78,277.28,62 M286.77,62
				c0-5.7-0.07-12.2-3.87-16c-2.12-2.12-5.55-3.43-9.28-3.43c-4.02,0-6.87,1.09-9.5,4.01v-3.57h-9.19v52h9.49V77.7
				c2.48,2.77,5.34,3.79,9.21,3.79c3.73,0,7.16-1.31,9.28-3.43C286.7,74.27,286.77,67.7,286.77,62 M242.79,81.06V43.01h-9.49v23.01
				c0,5.19-3.37,6.94-6.36,6.94c-3,0-6.29-1.75-6.29-6.94V43.01h-9.49v24.33c0,4.16,0.8,7.74,3.87,10.81
				c2.12,2.11,5.18,3.35,8.98,3.35c3.51,0,7.02-1.31,9.51-3.94v3.5H242.79z M190.43,67.03c0,2.34-0.37,3.88-1.39,4.83
				c-1.68,1.61-3.36,1.83-5.99,1.83c-3.73,0-5.48-1.76-5.48-4.39c0-2.71,1.9-4.32,5.34-4.32h7.53V67.03z M199.91,81.06V56.01
				c0-8.91-5.55-13.44-16.21-13.44c-6.36,0-10.01,1.16-13.73,5.25l6.06,5.92c1.97-2.27,3.65-3.15,7.31-3.15c5.04,0,7.09,1.83,7.09,6
				v1.9h-9c-8.83,0-12.99,4.96-12.99,11.02c0,3.36,1.09,6.43,3.14,8.55c2.26,2.26,5.4,3.35,9.71,3.35c4.39,0,6.8-1.1,9.36-3.65v3.28
				H199.91z M158.28,81.06v-52h-10.14v21.26h-17.62V29.06h-10.14v52h10.14V59.29h17.62v21.77H158.28z"/>
		</g>
		<g style="clip-path:url(#SVGID_00000026146442352409059830000014684930817196244145_);">
			<rect x="2.81" y="232.07" class="st3" width="992.7" height="3.37"/>
		</g>
		<g style="clip-path:url(#SVGID_00000026146442352409059830000014684930817196244145_);">
			<rect x="2.81" y="346.13" class="st3" width="992.7" height="3.37"/>
		</g>
		<g style="clip-path:url(#SVGID_00000026146442352409059830000014684930817196244145_);">
			<rect x="2.81" y="468.63" class="st3" width="992.7" height="3.37"/>
		</g>
		<g style="clip-path:url(#SVGID_00000026146442352409059830000014684930817196244145_);">
			<rect x="2.81" y="585.51" class="st3" width="992.7" height="3.37"/>
		</g>
		<g style="clip-path:url(#SVGID_00000026146442352409059830000014684930817196244145_);">
			<path class="st3" d="M726.24,654.09c0-3.58-0.43-7.27-3.31-10.14c-1.55-1.55-3.84-2.46-6.83-2.46c-2.78,0-5.02,0.85-6.3,2.19
				v-10.04h15.59v-4.85h-20.49v20.76h4.96c0.59-1.87,2.3-3.42,5.39-3.42c4.38,0,5.56,3.42,5.56,7.96c0,2.56-0.21,5.07-1.82,6.68
				c-0.97,0.96-2.35,1.49-3.96,1.49c-3.42,0-5.12-1.92-5.55-5.29h-5.44c0.21,2.72,0.85,5.23,2.88,7.26
				c1.65,1.65,4.48,2.93,8.11,2.93c3.69,0,6.3-1.28,8.01-2.98C725.81,661.41,726.24,658.15,726.24,654.09 M678.51,651.05h-12.17
				c0.05-1.66,0.16-2.46,0.69-3.69c0.85-2.03,2.83-3.42,5.39-3.42c2.56,0,4.48,1.39,5.34,3.42
				C678.3,648.59,678.46,649.39,678.51,651.05 M683.9,654.83v-2.4c0-7.69-4.21-13.02-11.47-13.02c-6.94,0-11.47,5.06-11.47,13.82
				c0,10.31,5.39,13.88,12.17,13.88c4.75,0,7.37-1.44,10.14-4.21l-3.47-3.26c-1.92,1.92-3.52,2.78-6.57,2.78
				c-4.43,0-6.88-2.94-6.88-7.59H683.9z M655.19,658.52c0-4.8-2.99-7.21-8.06-7.64l-4.27-0.37c-2.88-0.27-3.74-1.49-3.74-3.1
				c0-2.03,1.66-3.47,4.91-3.47c2.56,0,4.97,0.53,6.68,1.98l3.42-3.47c-2.51-2.19-5.98-3.03-10.04-3.03c-5.66,0-10.2,2.98-10.2,8.27
				c0,4.75,2.94,7.05,8.01,7.48l4.33,0.37c2.61,0.21,3.63,1.39,3.63,3.2c0,2.57-2.62,3.74-5.93,3.74c-2.67,0-5.6-0.59-7.79-2.83
				l-3.57,3.57c3.2,3.15,6.94,3.89,11.37,3.89C650.39,667.11,655.19,664.18,655.19,658.52 M628.34,658.52c0-4.8-2.99-7.21-8.06-7.64
				l-4.27-0.37c-2.88-0.27-3.74-1.49-3.74-3.1c0-2.03,1.65-3.47,4.91-3.47c2.56,0,4.96,0.53,6.67,1.98l3.42-3.47
				c-2.51-2.19-5.98-3.03-10.04-3.03c-5.66,0-10.19,2.98-10.19,8.27c0,4.75,2.93,7.05,8.01,7.48l4.32,0.37
				c2.62,0.21,3.63,1.39,3.63,3.2c0,2.57-2.61,3.74-5.92,3.74c-2.67,0-5.61-0.59-7.79-2.83l-3.58,3.57
				c3.2,3.15,6.94,3.89,11.37,3.89C623.53,667.11,628.34,664.18,628.34,658.52 M593.96,657.02c0,1.92-0.37,3.2-1.17,4.01
				c-1.44,1.39-2.99,1.55-5.07,1.55c-3.42,0-4.97-1.39-4.97-3.85c0-2.46,1.66-3.9,4.86-3.9h6.36V657.02z M599.4,666.79V648.7
				c0-6.14-3.73-9.28-11.15-9.28c-4.49,0-7.15,0.9-9.72,3.89l3.57,3.37c1.49-1.92,2.94-2.62,5.93-2.62c4.22,0,5.93,1.66,5.93,5.07
				v1.93h-7.16c-6.19,0-9.33,3.25-9.33,7.79c0,2.3,0.74,4.38,2.13,5.82c1.65,1.65,3.89,2.45,7.26,2.45s5.23-0.8,7.21-2.77v2.45
				H599.4z M572.98,666.79v-4.64h-2.4c-2.19,0-2.94-1.07-2.94-3.15v-30.21h-5.43v30.53c0,4,2.24,7.47,7.41,7.47H572.98z
				 M554.78,655.42h-5.82c-0.91,3.85-3.52,6.52-7.74,6.52c-2.24,0-4.27-0.85-5.6-2.3c-1.87-2.03-2.3-4.22-2.3-11.85
				c0-7.64,0.43-9.83,2.3-11.86c1.33-1.44,3.36-2.3,5.6-2.3c4.22,0,6.78,2.67,7.69,6.52h5.87c-1.33-7.58-6.56-11.69-13.56-11.69
				c-3.95,0-7.37,1.44-9.98,4.05c-3.73,3.74-3.68,7.96-3.68,15.27c0,7.31-0.05,11.53,3.68,15.27c2.61,2.61,6.03,4.05,9.98,4.05
				C548.11,667.11,553.5,663,554.78,655.42 M510.26,624.84h-5.23l-15.22,45.9h5.23L510.26,624.84z M473.05,654.09
				c0-3.58-0.43-7.27-3.3-10.14c-1.55-1.55-3.84-2.46-6.83-2.46c-2.78,0-5.02,0.85-6.3,2.19v-10.04h15.59v-4.85h-20.49v20.76h4.96
				c0.59-1.87,2.3-3.42,5.4-3.42c4.38,0,5.55,3.42,5.55,7.96c0,2.56-0.21,5.07-1.81,6.68c-0.96,0.96-2.35,1.49-3.95,1.49
				c-3.42,0-5.13-1.92-5.56-5.29h-5.44c0.21,2.72,0.85,5.23,2.88,7.26c1.65,1.65,4.48,2.93,8.11,2.93c3.68,0,6.3-1.28,8.01-2.98
				C472.63,661.41,473.05,658.15,473.05,654.09 M425.33,651.05h-12.17c0.06-1.66,0.16-2.46,0.7-3.69c0.85-2.03,2.83-3.42,5.39-3.42
				s4.48,1.39,5.34,3.42C425.12,648.59,425.28,649.39,425.33,651.05 M430.72,654.83v-2.4c0-7.69-4.22-13.02-11.48-13.02
				c-6.94,0-11.47,5.06-11.47,13.82c0,10.31,5.38,13.88,12.17,13.88c4.75,0,7.37-1.44,10.14-4.21l-3.47-3.26
				c-1.92,1.92-3.52,2.78-6.56,2.78c-4.43,0-6.89-2.94-6.89-7.59H430.72z M402.01,658.52c0-4.8-2.99-7.21-8.06-7.64l-4.27-0.37
				c-2.88-0.27-3.74-1.49-3.74-3.1c0-2.03,1.65-3.47,4.91-3.47c2.56,0,4.96,0.53,6.67,1.98l3.42-3.47
				c-2.51-2.19-5.98-3.03-10.04-3.03c-5.66,0-10.19,2.98-10.19,8.27c0,4.75,2.93,7.05,8.01,7.48l4.32,0.37
				c2.62,0.21,3.63,1.39,3.63,3.2c0,2.57-2.61,3.74-5.92,3.74c-2.67,0-5.61-0.59-7.79-2.83l-3.58,3.57
				c3.2,3.15,6.94,3.89,11.37,3.89C397.2,667.11,402.01,664.18,402.01,658.52 M375.16,658.52c0-4.8-2.99-7.21-8.06-7.64l-4.27-0.37
				c-2.88-0.27-3.74-1.49-3.74-3.1c0-2.03,1.66-3.47,4.91-3.47c2.56,0,4.97,0.53,6.68,1.98l3.42-3.47
				c-2.51-2.19-5.98-3.03-10.04-3.03c-5.66,0-10.2,2.98-10.2,8.27c0,4.75,2.94,7.05,8.01,7.48l4.33,0.37
				c2.61,0.21,3.63,1.39,3.63,3.2c0,2.57-2.62,3.74-5.93,3.74c-2.67,0-5.6-0.59-7.79-2.83l-3.57,3.57c3.2,3.15,6.94,3.89,11.37,3.89
				C370.35,667.11,375.16,664.18,375.16,658.52 M340.78,657.02c0,1.92-0.37,3.2-1.17,4.01c-1.44,1.39-2.99,1.55-5.07,1.55
				c-3.42,0-4.97-1.39-4.97-3.85c0-2.46,1.66-3.9,4.86-3.9h6.36V657.02z M346.22,666.79V648.7c0-6.14-3.73-9.28-11.15-9.28
				c-4.48,0-7.15,0.9-9.71,3.89l3.57,3.37c1.49-1.92,2.94-2.62,5.93-2.62c4.22,0,5.93,1.66,5.93,5.07v1.93h-7.15
				c-6.19,0-9.34,3.25-9.34,7.79c0,2.3,0.75,4.38,2.14,5.82c1.65,1.65,3.89,2.45,7.25,2.45c3.37,0,5.24-0.8,7.21-2.77v2.45H346.22z
				 M319.8,666.79v-4.64h-2.4c-2.19,0-2.93-1.07-2.93-3.15v-30.21h-5.44v30.53c0,4,2.24,7.47,7.41,7.47H319.8z M303.78,666.79
				l-13.62-23.11l12.33-14.89h-7.05l-15.53,19.11v-19.11h-5.76v38h5.76v-11.05l6.41-7.69l10.68,18.73H303.78z"/>
		</g>
		<g style="clip-path:url(#SVGID_00000026146442352409059830000014684930817196244145_);">
			<path class="st3" d="M720.69,544.38c0,4.06-2.41,6.62-5.82,6.62c-3.42,0-5.77-2.57-5.77-6.62c0-4.11,2.35-6.57,5.77-6.57
				C718.5,537.81,720.69,540.64,720.69,544.38 M726.13,544.27c0-6.68-4.48-10.99-9.98-10.99c-1.17,0-2.35,0.16-3.37,0.58l8.17-16.33
				h-5.82l-8.65,17.62c-1.65,3.3-2.83,6.24-2.83,9.34c0,7.05,4.69,11.37,11.26,11.37C721.49,555.85,726.13,551.27,726.13,544.27
				 M678.51,539.79h-12.17c0.05-1.66,0.16-2.46,0.69-3.69c0.85-2.03,2.83-3.42,5.39-3.42c2.56,0,4.48,1.39,5.34,3.42
				C678.3,537.33,678.46,538.13,678.51,539.79 M683.9,543.57v-2.4c0-7.69-4.21-13.02-11.47-13.02c-6.94,0-11.47,5.06-11.47,13.82
				c0,10.31,5.39,13.88,12.17,13.88c4.75,0,7.37-1.44,10.14-4.21l-3.47-3.26c-1.92,1.92-3.52,2.78-6.57,2.78
				c-4.43,0-6.88-2.94-6.88-7.59H683.9z M655.19,547.26c0-4.8-2.99-7.21-8.06-7.64l-4.27-0.37c-2.88-0.27-3.74-1.49-3.74-3.1
				c0-2.03,1.66-3.47,4.91-3.47c2.56,0,4.97,0.53,6.68,1.98l3.42-3.47c-2.51-2.19-5.98-3.03-10.04-3.03c-5.66,0-10.2,2.98-10.2,8.27
				c0,4.75,2.94,7.05,8.01,7.48l4.33,0.37c2.61,0.21,3.63,1.39,3.63,3.2c0,2.57-2.62,3.74-5.93,3.74c-2.67,0-5.6-0.59-7.79-2.83
				l-3.57,3.57c3.2,3.15,6.94,3.89,11.37,3.89C650.39,555.85,655.19,552.92,655.19,547.26 M628.34,547.26c0-4.8-2.99-7.21-8.06-7.64
				l-4.27-0.37c-2.88-0.27-3.74-1.49-3.74-3.1c0-2.03,1.65-3.47,4.91-3.47c2.56,0,4.96,0.53,6.67,1.98l3.42-3.47
				c-2.51-2.19-5.98-3.03-10.04-3.03c-5.66,0-10.19,2.98-10.19,8.27c0,4.75,2.93,7.05,8.01,7.48l4.32,0.37
				c2.62,0.21,3.63,1.39,3.63,3.2c0,2.57-2.61,3.74-5.92,3.74c-2.67,0-5.61-0.59-7.79-2.83l-3.58,3.57
				c3.2,3.15,6.94,3.89,11.37,3.89C623.53,555.85,628.34,552.92,628.34,547.26 M593.96,545.77c0,1.92-0.37,3.2-1.17,4.01
				c-1.44,1.39-2.99,1.55-5.07,1.55c-3.42,0-4.97-1.39-4.97-3.85c0-2.46,1.66-3.9,4.86-3.9h6.36V545.77z M599.4,555.53v-18.09
				c0-6.14-3.73-9.28-11.15-9.28c-4.49,0-7.15,0.9-9.72,3.89l3.57,3.37c1.49-1.92,2.94-2.62,5.93-2.62c4.22,0,5.93,1.66,5.93,5.07
				v1.93h-7.16c-6.19,0-9.33,3.25-9.33,7.79c0,2.3,0.74,4.38,2.13,5.82c1.65,1.65,3.89,2.45,7.26,2.45s5.23-0.8,7.21-2.77v2.45
				H599.4z M572.98,555.53v-4.64h-2.4c-2.19,0-2.94-1.07-2.94-3.15v-30.21h-5.43v30.53c0,4,2.24,7.47,7.41,7.47H572.98z
				 M554.78,544.16h-5.82c-0.91,3.85-3.52,6.52-7.74,6.52c-2.24,0-4.27-0.85-5.6-2.3c-1.87-2.03-2.3-4.22-2.3-11.85
				c0-7.64,0.43-9.83,2.3-11.86c1.33-1.44,3.36-2.3,5.6-2.3c4.22,0,6.78,2.67,7.69,6.52h5.87c-1.33-7.58-6.56-11.69-13.56-11.69
				c-3.95,0-7.37,1.44-9.98,4.05c-3.73,3.74-3.68,7.96-3.68,15.27c0,7.31-0.05,11.53,3.68,15.27c2.61,2.61,6.03,4.05,9.98,4.05
				C548.11,555.85,553.5,551.74,554.78,544.16 M510.26,513.58h-5.23l-15.22,45.9h5.23L510.26,513.58z M467.51,544.38
				c0,4.06-2.4,6.62-5.82,6.62c-3.42,0-5.77-2.57-5.77-6.62c0-4.11,2.35-6.57,5.77-6.57C465.32,537.81,467.51,540.64,467.51,544.38
				 M472.95,544.27c0-6.68-4.48-10.99-9.98-10.99c-1.17,0-2.35,0.16-3.37,0.58l8.18-16.33h-5.82l-8.65,17.62
				c-1.66,3.3-2.83,6.24-2.83,9.34c0,7.05,4.69,11.37,11.26,11.37C468.31,555.85,472.95,551.27,472.95,544.27 M425.33,539.79h-12.17
				c0.06-1.66,0.16-2.46,0.7-3.69c0.85-2.03,2.83-3.42,5.39-3.42s4.48,1.39,5.34,3.42C425.12,537.33,425.28,538.13,425.33,539.79
				 M430.72,543.57v-2.4c0-7.69-4.22-13.02-11.48-13.02c-6.94,0-11.47,5.06-11.47,13.82c0,10.31,5.38,13.88,12.17,13.88
				c4.75,0,7.37-1.44,10.14-4.21l-3.47-3.26c-1.92,1.92-3.52,2.78-6.56,2.78c-4.43,0-6.89-2.94-6.89-7.59H430.72z M402.01,547.26
				c0-4.8-2.99-7.21-8.06-7.64l-4.27-0.37c-2.88-0.27-3.74-1.49-3.74-3.1c0-2.03,1.65-3.47,4.91-3.47c2.56,0,4.96,0.53,6.67,1.98
				l3.42-3.47c-2.51-2.19-5.98-3.03-10.04-3.03c-5.66,0-10.19,2.98-10.19,8.27c0,4.75,2.93,7.05,8.01,7.48l4.32,0.37
				c2.62,0.21,3.63,1.39,3.63,3.2c0,2.57-2.61,3.74-5.92,3.74c-2.67,0-5.61-0.59-7.79-2.83l-3.58,3.57
				c3.2,3.15,6.94,3.89,11.37,3.89C397.2,555.85,402.01,552.92,402.01,547.26 M375.16,547.26c0-4.8-2.99-7.21-8.06-7.64l-4.27-0.37
				c-2.88-0.27-3.74-1.49-3.74-3.1c0-2.03,1.66-3.47,4.91-3.47c2.56,0,4.97,0.53,6.68,1.98l3.42-3.47
				c-2.51-2.19-5.98-3.03-10.04-3.03c-5.66,0-10.2,2.98-10.2,8.27c0,4.75,2.94,7.05,8.01,7.48l4.33,0.37
				c2.61,0.21,3.63,1.39,3.63,3.2c0,2.57-2.62,3.74-5.93,3.74c-2.67,0-5.6-0.59-7.79-2.83l-3.57,3.57c3.2,3.15,6.94,3.89,11.37,3.89
				C370.35,555.85,375.16,552.92,375.16,547.26 M340.78,545.77c0,1.92-0.37,3.2-1.17,4.01c-1.44,1.39-2.99,1.55-5.07,1.55
				c-3.42,0-4.97-1.39-4.97-3.85c0-2.46,1.66-3.9,4.86-3.9h6.36V545.77z M346.22,555.53v-18.09c0-6.14-3.73-9.28-11.15-9.28
				c-4.48,0-7.15,0.9-9.71,3.89l3.57,3.37c1.49-1.92,2.94-2.62,5.93-2.62c4.22,0,5.93,1.66,5.93,5.07v1.93h-7.15
				c-6.19,0-9.34,3.25-9.34,7.79c0,2.3,0.75,4.38,2.14,5.82c1.65,1.65,3.89,2.45,7.25,2.45c3.37,0,5.24-0.8,7.21-2.77v2.45H346.22z
				 M319.8,555.53v-4.64h-2.4c-2.19,0-2.93-1.07-2.93-3.15v-30.21h-5.44v30.53c0,4,2.24,7.47,7.41,7.47H319.8z M303.78,555.53
				l-13.62-23.11l12.33-14.89h-7.05l-15.53,19.11v-19.11h-5.76v38h5.76v-11.05l6.41-7.69l10.68,18.73H303.78z"/>
		</g>
		<g style="clip-path:url(#SVGID_00000026146442352409059830000014684930817196244145_);">
			<path class="st3" d="M726.66,399.89v-4.85h-22.63v10.83h5.23v-5.98h11.59l-12.76,33.15h5.87L726.66,399.89z M678.51,417.3h-12.17
				c0.05-1.66,0.16-2.46,0.69-3.69c0.85-2.03,2.83-3.42,5.39-3.42c2.56,0,4.48,1.39,5.34,3.42
				C678.3,414.83,678.46,415.64,678.51,417.3 M683.9,421.08v-2.4c0-7.69-4.21-13.02-11.47-13.02c-6.94,0-11.47,5.06-11.47,13.82
				c0,10.3,5.39,13.87,12.17,13.87c4.75,0,7.37-1.44,10.14-4.21l-3.47-3.26c-1.92,1.92-3.52,2.78-6.57,2.78
				c-4.43,0-6.88-2.94-6.88-7.59H683.9z M655.19,424.76c0-4.8-2.99-7.21-8.06-7.64l-4.27-0.37c-2.88-0.27-3.74-1.49-3.74-3.1
				c0-2.03,1.66-3.47,4.91-3.47c2.56,0,4.97,0.53,6.68,1.98l3.42-3.47c-2.51-2.19-5.98-3.03-10.04-3.03c-5.66,0-10.2,2.98-10.2,8.27
				c0,4.75,2.94,7.05,8.01,7.48l4.33,0.37c2.61,0.21,3.63,1.39,3.63,3.2c0,2.57-2.62,3.74-5.93,3.74c-2.67,0-5.6-0.59-7.79-2.83
				l-3.57,3.58c3.2,3.14,6.94,3.89,11.37,3.89C650.39,433.36,655.19,430.42,655.19,424.76 M628.34,424.76c0-4.8-2.99-7.21-8.06-7.64
				l-4.27-0.37c-2.88-0.27-3.74-1.49-3.74-3.1c0-2.03,1.65-3.47,4.91-3.47c2.56,0,4.96,0.53,6.67,1.98l3.42-3.47
				c-2.51-2.19-5.98-3.03-10.04-3.03c-5.66,0-10.19,2.98-10.19,8.27c0,4.75,2.93,7.05,8.01,7.48l4.32,0.37
				c2.62,0.21,3.63,1.39,3.63,3.2c0,2.57-2.61,3.74-5.92,3.74c-2.67,0-5.61-0.59-7.79-2.83l-3.58,3.58
				c3.2,3.14,6.94,3.89,11.37,3.89C623.53,433.36,628.34,430.42,628.34,424.76 M593.96,423.27c0,1.92-0.37,3.2-1.17,4.01
				c-1.44,1.39-2.99,1.55-5.07,1.55c-3.42,0-4.97-1.39-4.97-3.85s1.66-3.9,4.86-3.9h6.36V423.27z M599.4,433.04v-18.09
				c0-6.14-3.73-9.28-11.15-9.28c-4.49,0-7.15,0.9-9.72,3.89l3.57,3.37c1.49-1.92,2.94-2.62,5.93-2.62c4.22,0,5.93,1.66,5.93,5.07
				v1.93h-7.16c-6.19,0-9.33,3.25-9.33,7.79c0,2.3,0.74,4.38,2.13,5.82c1.65,1.65,3.89,2.45,7.26,2.45s5.23-0.8,7.21-2.77v2.45
				H599.4z M572.98,433.04v-4.64h-2.4c-2.19,0-2.94-1.07-2.94-3.15v-30.21h-5.43v30.53c0,4,2.24,7.47,7.41,7.47H572.98z
				 M554.78,421.67h-5.82c-0.91,3.85-3.52,6.52-7.74,6.52c-2.24,0-4.27-0.85-5.6-2.3c-1.87-2.03-2.3-4.22-2.3-11.85
				c0-7.64,0.43-9.83,2.3-11.86c1.33-1.44,3.36-2.29,5.6-2.29c4.22,0,6.78,2.67,7.69,6.51h5.87c-1.33-7.58-6.56-11.69-13.56-11.69
				c-3.95,0-7.37,1.44-9.98,4.05c-3.73,3.74-3.68,7.96-3.68,15.27c0,7.31-0.05,11.53,3.68,15.27c2.61,2.61,6.03,4.05,9.98,4.05
				C548.11,433.36,553.5,429.25,554.78,421.67 M510.26,391.08h-5.23l-15.22,45.9h5.23L510.26,391.08z M473.49,399.89v-4.85h-22.63
				v10.83h5.23v-5.98h11.58l-12.76,33.15h5.87L473.49,399.89z M425.33,417.3h-12.17c0.06-1.66,0.16-2.46,0.7-3.69
				c0.85-2.03,2.83-3.42,5.39-3.42s4.48,1.39,5.34,3.42C425.12,414.83,425.28,415.64,425.33,417.3 M430.72,421.08v-2.4
				c0-7.69-4.22-13.02-11.48-13.02c-6.94,0-11.47,5.06-11.47,13.82c0,10.3,5.38,13.87,12.17,13.87c4.75,0,7.37-1.44,10.14-4.21
				l-3.47-3.26c-1.92,1.92-3.52,2.78-6.56,2.78c-4.43,0-6.89-2.94-6.89-7.59H430.72z M402.01,424.76c0-4.8-2.99-7.21-8.06-7.64
				l-4.27-0.37c-2.88-0.27-3.74-1.49-3.74-3.1c0-2.03,1.65-3.47,4.91-3.47c2.56,0,4.96,0.53,6.67,1.98l3.42-3.47
				c-2.51-2.19-5.98-3.03-10.04-3.03c-5.66,0-10.19,2.98-10.19,8.27c0,4.75,2.93,7.05,8.01,7.48l4.32,0.37
				c2.62,0.21,3.63,1.39,3.63,3.2c0,2.57-2.61,3.74-5.92,3.74c-2.67,0-5.61-0.59-7.79-2.83l-3.58,3.58
				c3.2,3.14,6.94,3.89,11.37,3.89C397.2,433.36,402.01,430.42,402.01,424.76 M375.16,424.76c0-4.8-2.99-7.21-8.06-7.64l-4.27-0.37
				c-2.88-0.27-3.74-1.49-3.74-3.1c0-2.03,1.66-3.47,4.91-3.47c2.56,0,4.97,0.53,6.68,1.98l3.42-3.47
				c-2.51-2.19-5.98-3.03-10.04-3.03c-5.66,0-10.2,2.98-10.2,8.27c0,4.75,2.94,7.05,8.01,7.48l4.33,0.37
				c2.61,0.21,3.63,1.39,3.63,3.2c0,2.57-2.62,3.74-5.93,3.74c-2.67,0-5.6-0.59-7.79-2.83l-3.57,3.58c3.2,3.14,6.94,3.89,11.37,3.89
				C370.35,433.36,375.16,430.42,375.16,424.76 M340.78,423.27c0,1.92-0.37,3.2-1.17,4.01c-1.44,1.39-2.99,1.55-5.07,1.55
				c-3.42,0-4.97-1.39-4.97-3.85s1.66-3.9,4.86-3.9h6.36V423.27z M346.22,433.04v-18.09c0-6.14-3.73-9.28-11.15-9.28
				c-4.48,0-7.15,0.9-9.71,3.89l3.57,3.37c1.49-1.92,2.94-2.62,5.93-2.62c4.22,0,5.93,1.66,5.93,5.07v1.93h-7.15
				c-6.19,0-9.34,3.25-9.34,7.79c0,2.3,0.75,4.38,2.14,5.82c1.65,1.65,3.89,2.45,7.25,2.45c3.37,0,5.24-0.8,7.21-2.77v2.45H346.22z
				 M319.8,433.04v-4.64h-2.4c-2.19,0-2.93-1.07-2.93-3.15v-30.21h-5.44v30.53c0,4,2.24,7.47,7.41,7.47H319.8z M303.78,433.04
				l-13.62-23.11l12.33-14.89h-7.05l-15.53,19.11v-19.11h-5.76v38h5.76v-11.05l6.41-7.69l10.68,18.73H303.78z"/>
		</g>
		<g style="clip-path:url(#SVGID_00000026146442352409059830000014684930817196244145_);">
			<path class="st3" d="M720.53,289.92c0,3.36-2.35,5.77-5.66,5.77c-3.32,0-5.61-2.4-5.61-5.77c0-3.32,2.29-5.82,5.61-5.82
				C718.18,284.1,720.53,286.6,720.53,289.92 M721.12,306.73c0,3.52-2.73,6.3-6.25,6.3c-3.53,0-6.25-2.78-6.25-6.3
				c0-3.52,2.72-6.36,6.25-6.36C718.39,300.37,721.12,303.21,721.12,306.73 M726.61,306.84c0-4.54-2.56-7.32-5.23-8.91
				c2.46-1.49,4.59-4.16,4.59-8.17c0-6.36-4.91-10.51-11.1-10.51c-6.2,0-11.05,4.16-11.05,10.51c0,4.01,2.13,6.68,4.59,8.17
				c-2.67,1.6-5.23,4.37-5.23,8.91c0,6.89,5.17,11.05,11.69,11.05C721.38,317.88,726.61,313.73,726.61,306.84 M678.51,301.82h-12.17
				c0.05-1.66,0.16-2.46,0.69-3.69c0.85-2.03,2.83-3.42,5.39-3.42c2.56,0,4.48,1.39,5.34,3.42
				C678.3,299.36,678.46,300.17,678.51,301.82 M683.9,305.61v-2.4c0-7.69-4.21-13.02-11.47-13.02c-6.94,0-11.47,5.06-11.47,13.82
				c0,10.3,5.39,13.87,12.17,13.87c4.75,0,7.37-1.44,10.14-4.21l-3.47-3.26c-1.92,1.92-3.52,2.78-6.57,2.78
				c-4.43,0-6.88-2.94-6.88-7.59H683.9z M655.19,309.29c0-4.8-2.99-7.21-8.06-7.64l-4.27-0.37c-2.88-0.27-3.74-1.49-3.74-3.1
				c0-2.03,1.66-3.47,4.91-3.47c2.56,0,4.97,0.53,6.68,1.98l3.42-3.47c-2.51-2.19-5.98-3.03-10.04-3.03c-5.66,0-10.2,2.98-10.2,8.27
				c0,4.75,2.94,7.05,8.01,7.48l4.33,0.37c2.61,0.21,3.63,1.39,3.63,3.2c0,2.57-2.62,3.74-5.93,3.74c-2.67,0-5.6-0.59-7.79-2.83
				l-3.57,3.58c3.2,3.14,6.94,3.89,11.37,3.89C650.39,317.88,655.19,314.95,655.19,309.29 M628.34,309.29c0-4.8-2.99-7.21-8.06-7.64
				l-4.27-0.37c-2.88-0.27-3.74-1.49-3.74-3.1c0-2.03,1.65-3.47,4.91-3.47c2.56,0,4.96,0.53,6.67,1.98l3.42-3.47
				c-2.51-2.19-5.98-3.03-10.04-3.03c-5.66,0-10.19,2.98-10.19,8.27c0,4.75,2.93,7.05,8.01,7.48l4.32,0.37
				c2.62,0.21,3.63,1.39,3.63,3.2c0,2.57-2.61,3.74-5.92,3.74c-2.67,0-5.61-0.59-7.79-2.83l-3.58,3.58
				c3.2,3.14,6.94,3.89,11.37,3.89C623.53,317.88,628.34,314.95,628.34,309.29 M593.96,307.8c0,1.92-0.37,3.2-1.17,4.01
				c-1.44,1.39-2.99,1.55-5.07,1.55c-3.42,0-4.97-1.39-4.97-3.85s1.66-3.9,4.86-3.9h6.36V307.8z M599.4,317.56v-18.09
				c0-6.14-3.73-9.28-11.15-9.28c-4.49,0-7.15,0.9-9.72,3.89l3.57,3.37c1.49-1.92,2.94-2.62,5.93-2.62c4.22,0,5.93,1.66,5.93,5.07
				v1.93h-7.16c-6.19,0-9.33,3.25-9.33,7.79c0,2.3,0.74,4.38,2.13,5.82c1.65,1.65,3.89,2.45,7.26,2.45s5.23-0.8,7.21-2.77v2.45
				H599.4z M572.98,317.56v-4.64h-2.4c-2.19,0-2.94-1.07-2.94-3.15v-30.21h-5.43v30.53c0,4,2.24,7.47,7.41,7.47H572.98z
				 M554.78,306.2h-5.82c-0.91,3.85-3.52,6.52-7.74,6.52c-2.24,0-4.27-0.85-5.6-2.3c-1.87-2.03-2.3-4.22-2.3-11.85
				c0-7.64,0.43-9.83,2.3-11.86c1.33-1.44,3.36-2.29,5.6-2.29c4.22,0,6.78,2.67,7.69,6.51h5.87c-1.33-7.58-6.56-11.69-13.56-11.69
				c-3.95,0-7.37,1.44-9.98,4.05c-3.73,3.74-3.68,7.96-3.68,15.27c0,7.31-0.05,11.53,3.68,15.27c2.61,2.61,6.03,4.05,9.98,4.05
				C548.11,317.88,553.5,313.78,554.78,306.2 M510.26,275.61h-5.23l-15.22,45.9h5.23L510.26,275.61z M467.35,289.92
				c0,3.36-2.35,5.77-5.66,5.77c-3.31,0-5.61-2.4-5.61-5.77c0-3.32,2.3-5.82,5.61-5.82C465,284.1,467.35,286.6,467.35,289.92
				 M467.93,306.73c0,3.52-2.73,6.3-6.25,6.3c-3.52,0-6.25-2.78-6.25-6.3c0-3.52,2.73-6.36,6.25-6.36
				C465.21,300.37,467.93,303.21,467.93,306.73 M473.42,306.84c0-4.54-2.56-7.32-5.22-8.91c2.45-1.49,4.59-4.16,4.59-8.17
				c0-6.36-4.91-10.51-11.1-10.51c-6.19,0-11.05,4.16-11.05,10.51c0,4.01,2.14,6.68,4.59,8.17c-2.66,1.6-5.23,4.37-5.23,8.91
				c0,6.89,5.18,11.05,11.69,11.05C468.2,317.88,473.42,313.73,473.42,306.84 M425.33,301.82h-12.17c0.06-1.66,0.16-2.46,0.7-3.69
				c0.85-2.03,2.83-3.42,5.39-3.42s4.48,1.39,5.34,3.42C425.12,299.36,425.28,300.17,425.33,301.82 M430.72,305.61v-2.4
				c0-7.69-4.22-13.02-11.48-13.02c-6.94,0-11.47,5.06-11.47,13.82c0,10.3,5.38,13.87,12.17,13.87c4.75,0,7.37-1.44,10.14-4.21
				l-3.47-3.26c-1.92,1.92-3.52,2.78-6.56,2.78c-4.43,0-6.89-2.94-6.89-7.59H430.72z M402.01,309.29c0-4.8-2.99-7.21-8.06-7.64
				l-4.27-0.37c-2.88-0.27-3.74-1.49-3.74-3.1c0-2.03,1.65-3.47,4.91-3.47c2.56,0,4.96,0.53,6.67,1.98l3.42-3.47
				c-2.51-2.19-5.98-3.03-10.04-3.03c-5.66,0-10.19,2.98-10.19,8.27c0,4.75,2.93,7.05,8.01,7.48l4.32,0.37
				c2.62,0.21,3.63,1.39,3.63,3.2c0,2.57-2.61,3.74-5.92,3.74c-2.67,0-5.61-0.59-7.79-2.83l-3.58,3.58
				c3.2,3.14,6.94,3.89,11.37,3.89C397.2,317.88,402.01,314.95,402.01,309.29 M375.16,309.29c0-4.8-2.99-7.21-8.06-7.64l-4.27-0.37
				c-2.88-0.27-3.74-1.49-3.74-3.1c0-2.03,1.66-3.47,4.91-3.47c2.56,0,4.97,0.53,6.68,1.98l3.42-3.47
				c-2.51-2.19-5.98-3.03-10.04-3.03c-5.66,0-10.2,2.98-10.2,8.27c0,4.75,2.94,7.05,8.01,7.48l4.33,0.37
				c2.61,0.21,3.63,1.39,3.63,3.2c0,2.57-2.62,3.74-5.93,3.74c-2.67,0-5.6-0.59-7.79-2.83l-3.57,3.58c3.2,3.14,6.94,3.89,11.37,3.89
				C370.35,317.88,375.16,314.95,375.16,309.29 M340.78,307.8c0,1.92-0.37,3.2-1.17,4.01c-1.44,1.39-2.99,1.55-5.07,1.55
				c-3.42,0-4.97-1.39-4.97-3.85s1.66-3.9,4.86-3.9h6.36V307.8z M346.22,317.56v-18.09c0-6.14-3.73-9.28-11.15-9.28
				c-4.48,0-7.15,0.9-9.71,3.89l3.57,3.37c1.49-1.92,2.94-2.62,5.93-2.62c4.22,0,5.93,1.66,5.93,5.07v1.93h-7.15
				c-6.19,0-9.34,3.25-9.34,7.79c0,2.3,0.75,4.38,2.14,5.82c1.65,1.65,3.89,2.45,7.25,2.45c3.37,0,5.24-0.8,7.21-2.77v2.45H346.22z
				 M319.8,317.56v-4.64h-2.4c-2.19,0-2.93-1.07-2.93-3.15v-30.21h-5.44v30.53c0,4,2.24,7.47,7.41,7.47H319.8z M303.78,317.56
				l-13.62-23.11l12.33-14.89h-7.05l-15.53,19.11v-19.11h-5.76v38h5.76v-11.05l6.41-7.69l10.68,18.73H303.78z"/>
		</g>
		<g style="clip-path:url(#SVGID_00000026146442352409059830000014684930817196244145_);">
			<path class="st3" d="M720.69,175.24c0,4.11-2.41,6.57-5.82,6.57c-3.64,0-5.77-2.83-5.77-6.57c0-4.06,2.35-6.62,5.77-6.62
				C718.29,168.62,720.69,171.19,720.69,175.24 M726.13,175.14c0-7.05-4.69-11.37-11.26-11.37c-6.57,0-11.21,4.59-11.21,11.58
				c0,6.68,4.43,11,9.92,11c1.18,0,2.4-0.16,3.42-0.59l-8.17,16.33h5.82l8.65-17.62C724.96,181.17,726.13,178.23,726.13,175.14
				 M678.51,186.35h-12.17c0.05-1.66,0.16-2.46,0.69-3.69c0.85-2.03,2.83-3.42,5.39-3.42c2.56,0,4.48,1.39,5.34,3.42
				C678.3,183.89,678.46,184.69,678.51,186.35 M683.9,190.13v-2.4c0-7.69-4.21-13.02-11.47-13.02c-6.94,0-11.47,5.06-11.47,13.82
				c0,10.3,5.39,13.87,12.17,13.87c4.75,0,7.37-1.44,10.14-4.21l-3.47-3.26c-1.92,1.92-3.52,2.78-6.57,2.78
				c-4.43,0-6.88-2.94-6.88-7.59H683.9z M655.19,193.82c0-4.8-2.99-7.21-8.06-7.64l-4.27-0.37c-2.88-0.27-3.74-1.49-3.74-3.1
				c0-2.03,1.66-3.47,4.91-3.47c2.56,0,4.97,0.53,6.68,1.98l3.42-3.47c-2.51-2.19-5.98-3.03-10.04-3.03c-5.66,0-10.2,2.98-10.2,8.27
				c0,4.75,2.94,7.05,8.01,7.48l4.33,0.37c2.61,0.21,3.63,1.39,3.63,3.2c0,2.57-2.62,3.74-5.93,3.74c-2.67,0-5.6-0.59-7.79-2.83
				l-3.57,3.58c3.2,3.14,6.94,3.89,11.37,3.89C650.39,202.41,655.19,199.48,655.19,193.82 M628.34,193.82c0-4.8-2.99-7.21-8.06-7.64
				l-4.27-0.37c-2.88-0.27-3.74-1.49-3.74-3.1c0-2.03,1.65-3.47,4.91-3.47c2.56,0,4.96,0.53,6.67,1.98l3.42-3.47
				c-2.51-2.19-5.98-3.03-10.04-3.03c-5.66,0-10.19,2.98-10.19,8.27c0,4.75,2.93,7.05,8.01,7.48l4.32,0.37
				c2.62,0.21,3.63,1.39,3.63,3.2c0,2.57-2.61,3.74-5.92,3.74c-2.67,0-5.61-0.59-7.79-2.83l-3.58,3.58
				c3.2,3.14,6.94,3.89,11.37,3.89C623.53,202.41,628.34,199.48,628.34,193.82 M593.96,192.32c0,1.92-0.37,3.2-1.17,4.01
				c-1.44,1.39-2.99,1.55-5.07,1.55c-3.42,0-4.97-1.39-4.97-3.85c0-2.46,1.66-3.9,4.86-3.9h6.36V192.32z M599.4,202.09V184
				c0-6.14-3.73-9.28-11.15-9.28c-4.49,0-7.15,0.9-9.72,3.89l3.57,3.37c1.49-1.92,2.94-2.62,5.93-2.62c4.22,0,5.93,1.66,5.93,5.07
				v1.93h-7.16c-6.19,0-9.33,3.25-9.33,7.79c0,2.3,0.74,4.38,2.13,5.82c1.65,1.65,3.89,2.45,7.26,2.45s5.23-0.8,7.21-2.77v2.45
				H599.4z M572.98,202.09v-4.64h-2.4c-2.19,0-2.94-1.07-2.94-3.15v-30.21h-5.43v30.53c0,4,2.24,7.47,7.41,7.47H572.98z
				 M554.78,190.72h-5.82c-0.91,3.85-3.52,6.52-7.74,6.52c-2.24,0-4.27-0.85-5.6-2.3c-1.87-2.03-2.3-4.22-2.3-11.85
				c0-7.64,0.43-9.83,2.3-11.86c1.33-1.44,3.36-2.29,5.6-2.29c4.22,0,6.78,2.67,7.69,6.51h5.87c-1.33-7.58-6.56-11.69-13.56-11.69
				c-3.95,0-7.37,1.44-9.98,4.05c-3.73,3.74-3.68,7.96-3.68,15.27c0,7.31-0.05,11.53,3.68,15.27c2.61,2.61,6.03,4.05,9.98,4.05
				C548.11,202.41,553.5,198.3,554.78,190.72 M510.26,160.14h-5.23l-15.22,45.9h5.23L510.26,160.14z M467.51,175.24
				c0,4.11-2.4,6.57-5.82,6.57c-3.63,0-5.77-2.83-5.77-6.57c0-4.06,2.35-6.62,5.77-6.62C465.1,168.62,467.51,171.19,467.51,175.24
				 M472.95,175.14c0-7.05-4.69-11.37-11.26-11.37c-6.57,0-11.2,4.59-11.2,11.58c0,6.68,4.42,11,9.92,11c1.17,0,2.4-0.16,3.42-0.59
				l-8.17,16.33h5.82l8.65-17.62C471.77,181.17,472.95,178.23,472.95,175.14 M425.33,186.35h-12.17c0.06-1.66,0.16-2.46,0.7-3.69
				c0.85-2.03,2.83-3.42,5.39-3.42s4.48,1.39,5.34,3.42C425.12,183.89,425.28,184.69,425.33,186.35 M430.72,190.13v-2.4
				c0-7.69-4.22-13.02-11.48-13.02c-6.94,0-11.47,5.06-11.47,13.82c0,10.3,5.38,13.87,12.17,13.87c4.75,0,7.37-1.44,10.14-4.21
				l-3.47-3.26c-1.92,1.92-3.52,2.78-6.56,2.78c-4.43,0-6.89-2.94-6.89-7.59H430.72z M402.01,193.82c0-4.8-2.99-7.21-8.06-7.64
				l-4.27-0.37c-2.88-0.27-3.74-1.49-3.74-3.1c0-2.03,1.65-3.47,4.91-3.47c2.56,0,4.96,0.53,6.67,1.98l3.42-3.47
				c-2.51-2.19-5.98-3.03-10.04-3.03c-5.66,0-10.19,2.98-10.19,8.27c0,4.75,2.93,7.05,8.01,7.48l4.32,0.37
				c2.62,0.21,3.63,1.39,3.63,3.2c0,2.57-2.61,3.74-5.92,3.74c-2.67,0-5.61-0.59-7.79-2.83l-3.58,3.58
				c3.2,3.14,6.94,3.89,11.37,3.89C397.2,202.41,402.01,199.48,402.01,193.82 M375.16,193.82c0-4.8-2.99-7.21-8.06-7.64l-4.27-0.37
				c-2.88-0.27-3.74-1.49-3.74-3.1c0-2.03,1.66-3.47,4.91-3.47c2.56,0,4.97,0.53,6.68,1.98l3.42-3.47
				c-2.51-2.19-5.98-3.03-10.04-3.03c-5.66,0-10.2,2.98-10.2,8.27c0,4.75,2.94,7.05,8.01,7.48l4.33,0.37
				c2.61,0.21,3.63,1.39,3.63,3.2c0,2.57-2.62,3.74-5.93,3.74c-2.67,0-5.6-0.59-7.79-2.83l-3.57,3.58c3.2,3.14,6.94,3.89,11.37,3.89
				C370.35,202.41,375.16,199.48,375.16,193.82 M340.78,192.32c0,1.92-0.37,3.2-1.17,4.01c-1.44,1.39-2.99,1.55-5.07,1.55
				c-3.42,0-4.97-1.39-4.97-3.85c0-2.46,1.66-3.9,4.86-3.9h6.36V192.32z M346.22,202.09V184c0-6.14-3.73-9.28-11.15-9.28
				c-4.48,0-7.15,0.9-9.71,3.89l3.57,3.37c1.49-1.92,2.94-2.62,5.93-2.62c4.22,0,5.93,1.66,5.93,5.07v1.93h-7.15
				c-6.19,0-9.34,3.25-9.34,7.79c0,2.3,0.75,4.38,2.14,5.82c1.65,1.65,3.89,2.45,7.25,2.45c3.37,0,5.24-0.8,7.21-2.77v2.45H346.22z
				 M319.8,202.09v-4.64h-2.4c-2.19,0-2.93-1.07-2.93-3.15v-30.21h-5.44v30.53c0,4,2.24,7.47,7.41,7.47H319.8z M303.78,202.09
				l-13.62-23.11l12.33-14.89h-7.05l-15.53,19.11v-19.11h-5.76v38h5.76v-11.05l6.41-7.69l10.68,18.73H303.78z"/>
		</g>
	</g>
	<g>
		<polygon class="st4" points="21.91,638.98 37.98,638.98 29.95,628.35 		"/>
	</g>
	<g>
		<polygon class="st4" points="21.91,660.11 37.98,660.11 29.95,649.49 		"/>
	</g>
	<g>
		<polygon class="st4" points="21.91,681.25 37.98,681.25 29.95,670.62 		"/>
	</g>
	<g>
		<polygon class="st4" points="21.91,617.84 37.98,617.84 29.95,607.22 		"/>
	</g>
	<g>
		<polygon class="st4" points="21.91,523.5 37.98,523.5 29.95,512.88 		"/>
	</g>
	<g>
		<polygon class="st4" points="21.91,544.64 37.98,544.64 29.95,534.01 		"/>
	</g>
	<g>
		<polygon class="st4" points="21.91,565.77 37.98,565.77 29.95,555.15 		"/>
	</g>
	<g>
		<polygon class="st4" points="21.91,502.37 37.98,502.37 29.95,491.74 		"/>
	</g>
	<g>
		<polygon class="st4" points="21.91,403.82 37.98,403.82 29.95,393.19 		"/>
	</g>
	<g>
		<polygon class="st4" points="21.91,424.95 37.98,424.95 29.95,414.32 		"/>
	</g>
	<g>
		<polygon class="st4" points="21.91,446.09 37.98,446.09 29.95,435.46 		"/>
	</g>
	<g>
		<polygon class="st4" points="21.91,382.68 37.98,382.68 29.95,372.05 		"/>
	</g>
	<g>
		<polygon class="st4" points="21.91,285.53 37.98,285.53 29.95,274.91 		"/>
	</g>
	<g>
		<polygon class="st4" points="21.91,306.67 37.98,306.67 29.95,296.04 		"/>
	</g>
	<g>
		<polygon class="st4" points="21.91,327.8 37.98,327.8 29.95,317.18 		"/>
	</g>
	<g>
		<polygon class="st4" points="21.91,264.4 37.98,264.4 29.95,253.77 		"/>
	</g>
	<g>
		<polygon class="st4" points="21.91,170.06 37.98,170.06 29.95,159.44 		"/>
	</g>
	<g>
		<polygon class="st4" points="21.91,191.2 37.98,191.2 29.95,180.57 		"/>
	</g>
	<g>
		<polygon class="st4" points="21.91,212.33 37.98,212.33 29.95,201.71 		"/>
	</g>
	<g>
		<polygon class="st4" points="21.91,148.93 37.98,148.93 29.95,138.3 		"/>
	</g>
</g>
</svg>
