<?xml version="1.0" encoding="utf-8"?>
<!-- Generator: Adobe Illustrator 26.2.1, SVG Export Plug-In . SVG Version: 6.00 Build 0)  -->
<svg version="1.1" id="Ebene_1" xmlns="http://www.w3.org/2000/svg" xmlns:xlink="http://www.w3.org/1999/xlink" x="0px" y="0px"
	 viewBox="0 0 1000 819.82" style="enable-background:new 0 0 1000 819.82;" xml:space="preserve">
<style type="text/css">
	.st0{fill:#A2B9E1;}
	.st1{fill:#6796CF;}
	.st2{clip-path:url(#SVGID_00000141451083722794614110000000263984658702020795_);}
	.st3{fill:#2B2961;}
	.st4{fill:#FFFFFF;}
	.st5{clip-path:url(#SVGID_00000050621740601278460250000010820114071844862866_);}
	.st6{clip-path:url(#SVGID_00000070114862786685078380000003534512194699868055_);}
	.st7{clip-path:url(#SVGID_00000023976508340974463800000018353829725903835543_);}
	.st8{clip-path:url(#SVGID_00000138561455539545205680000013746607048483366049_);}
	.st9{clip-path:url(#SVGID_00000097483768384125240890000004987970517439959997_);}
	.st10{opacity:0.52;clip-path:url(#SVGID_00000130630549508145781970000005130635454561831311_);}
	.st11{clip-path:url(#SVGID_00000088108162848313204540000018403717798999858846_);}
	.st12{clip-path:url(#SVGID_00000078759621763119537450000011470773314431230386_);}
	.st13{clip-path:url(#SVGID_00000095306951566572796120000008940413613971446149_);}
	.st14{clip-path:url(#SVGID_00000152246875669713362170000013644792139875409333_);}
	.st15{clip-path:url(#SVGID_00000048463568351386917690000009769159117354448524_);}
	.st16{clip-path:url(#SVGID_00000098933921414839718790000018067544624216520629_);}
	.st17{clip-path:url(#SVGID_00000016778536878663312420000001209414538574418837_);}
	.st18{clip-path:url(#SVGID_00000003799383530634476190000007681740816205180589_);}
	.st19{clip-path:url(#SVGID_00000098900917781953475830000008824787242488956816_);}
	.st20{clip-path:url(#SVGID_00000088812679302598370910000005908164136383818411_);}
	.st21{clip-path:url(#SVGID_00000117677478648546077140000001239761622891228055_);}
	.st22{clip-path:url(#SVGID_00000044146272833735012000000003912423499298213560_);}
	.st23{fill:none;stroke:#2B2961;stroke-width:0.374;stroke-linejoin:round;stroke-miterlimit:10;}
	.st24{fill:none;stroke:#2B2961;stroke-width:0.4;stroke-miterlimit:10;}
	.st25{clip-path:url(#SVGID_00000174575706995592907850000006361792223650965946_);}
	.st26{clip-path:url(#SVGID_00000069369440613384084210000017591604408002019491_);}
	.st27{clip-path:url(#SVGID_00000112633034051933429230000012367765930675802540_);}
	.st28{clip-path:url(#SVGID_00000163757726641043141560000010868458090019325343_);}
	.st29{clip-path:url(#SVGID_00000031920176096765104700000014562488175966133907_);}
	.st30{clip-path:url(#SVGID_00000177457569896486553550000002398104517513547406_);}
	.st31{clip-path:url(#SVGID_00000175292504784699097920000018275760052539718811_);}
	.st32{clip-path:url(#SVGID_00000093177633181522378390000015847435881187402629_);}
	.st33{clip-path:url(#SVGID_00000111179703481870444070000008645153466334290092_);}
	.st34{clip-path:url(#SVGID_00000091697635936093684140000005659176237141598615_);}
	.st35{clip-path:url(#SVGID_00000128461753725810136360000003824684574329969838_);}
	.st36{clip-path:url(#SVGID_00000093887641205957593040000015813690277383560615_);}
	.st37{clip-path:url(#SVGID_00000096047989913944651830000002583832299065226656_);}
	.st38{clip-path:url(#SVGID_00000060022604009062421280000009669661307555481731_);}
	.st39{clip-path:url(#SVGID_00000078756994477413175540000003626060128948076978_);}
	.st40{clip-path:url(#SVGID_00000123426048205797862440000008632241861245374856_);}
	.st41{clip-path:url(#SVGID_00000110461935739719957380000015721083741183894184_);}
	.st42{clip-path:url(#SVGID_00000069358168523876082480000007802874732009414056_);}
	.st43{clip-path:url(#SVGID_00000107552287211049420280000015483897901395215799_);}
	.st44{clip-path:url(#SVGID_00000141426749810651842940000016605491039807514554_);}
	.st45{clip-path:url(#SVGID_00000080907128825286005520000018212805275348426928_);}
	.st46{clip-path:url(#SVGID_00000150784115633322285350000010035861884344717484_);}
	.st47{clip-path:url(#SVGID_00000049208452640832500610000009247088639122948225_);}
	.st48{clip-path:url(#SVGID_00000142156351155254429970000010174622596809394849_);}
	.st49{clip-path:url(#SVGID_00000033364057438145770110000014245275025215161993_);}
	.st50{clip-path:url(#SVGID_00000067228521058313966000000008124055617967561128_);}
	.st51{clip-path:url(#SVGID_00000140702821096363768190000016283433108134739332_);}
	.st52{clip-path:url(#SVGID_00000068654375814095247800000007491909147331040136_);}
	.st53{clip-path:url(#SVGID_00000077313335260374548710000002288943282138565790_);}
	.st54{clip-path:url(#SVGID_00000136412886041174045360000017505307736608242618_);}
	.st55{clip-path:url(#SVGID_00000176031784369838880660000018214124241753261970_);}
	.st56{clip-path:url(#SVGID_00000085968710608737053590000016836254999506541203_);}
	.st57{clip-path:url(#SVGID_00000034809627431392488410000013738067789507875007_);}
	.st58{clip-path:url(#SVGID_00000156569814206633485210000008749067126902831489_);}
	.st59{clip-path:url(#SVGID_00000042000278133340558280000016090294483035603086_);}
	.st60{clip-path:url(#SVGID_00000052822599176052757310000004562664080767703213_);}
	.st61{clip-path:url(#SVGID_00000170980610830524925700000005275960894814965666_);}
	.st62{fill:#9AB4DE;}
	.st63{clip-path:url(#SVGID_00000036215616123202740800000014598865623575451835_);}
	.st64{clip-path:url(#SVGID_00000171690197659355329690000014036471637935723947_);}
	.st65{clip-path:url(#SVGID_00000163032528197110293710000008034970525153033654_);}
	.st66{fill:#B9C9E9;}
	.st67{clip-path:url(#SVGID_00000034801697332923004070000017944649370741140648_);}
	.st68{clip-path:url(#SVGID_00000045596825324564049040000012762821422110005640_);}
	.st69{clip-path:url(#SVGID_00000118383474316594356620000016226975924273910718_);}
	.st70{clip-path:url(#SVGID_00000018232377120601182710000005123264495275223478_);}
	.st71{clip-path:url(#SVGID_00000178927387285046276770000011177780139228877487_);}
	.st72{clip-path:url(#SVGID_00000095330493075722836580000004838550818150666371_);}
	.st73{clip-path:url(#SVGID_00000060711981970467521330000018273127319400301482_);}
	.st74{clip-path:url(#SVGID_00000024682450372792890670000018312635472807424666_);}
	.st75{clip-path:url(#SVGID_00000062914136462177447240000018372005151649979277_);}
	.st76{clip-path:url(#SVGID_00000106831376158559634330000003626357695642311051_);}
	.st77{clip-path:url(#SVGID_00000158726084587733952500000000805607091964257438_);}
	.st78{clip-path:url(#SVGID_00000063591279473485405700000016170263223245535620_);}
	.st79{clip-path:url(#SVGID_00000168110654543685011090000002401075082249249930_);}
	.st80{clip-path:url(#SVGID_00000086658498737905672190000000515113189135552671_);}
	.st81{clip-path:url(#SVGID_00000037690699021716230210000016423523174431876260_);}
	.st82{clip-path:url(#SVGID_00000003809603066414848920000008604205137757303168_);}
	.st83{clip-path:url(#SVGID_00000095297778517232044790000014450228783444508059_);}
	.st84{clip-path:url(#SVGID_00000178887671131780583030000017301624308092310705_);}
	.st85{clip-path:url(#SVGID_00000014610743955199751480000007617553856339304583_);}
	.st86{clip-path:url(#SVGID_00000083783311218938193040000003295977561039551933_);}
	.st87{clip-path:url(#SVGID_00000116234641473658190880000002176581919300683446_);}
	.st88{clip-path:url(#SVGID_00000120530421974057143010000002556865346241980597_);}
	.st89{clip-path:url(#SVGID_00000183248677895085444910000004854303769757254801_);}
	.st90{clip-path:url(#SVGID_00000173882592356970082650000016946551651704704166_);}
	.st91{clip-path:url(#SVGID_00000097477552762009299980000015126343487734987146_);}
	.st92{clip-path:url(#SVGID_00000159463455887419268540000006725076761104523170_);}
	.st93{clip-path:url(#SVGID_00000173872784650242170910000011100197386133755054_);}
	.st94{clip-path:url(#SVGID_00000167389927398472292050000001409203695719708845_);}
	.st95{clip-path:url(#SVGID_00000040540768811873986070000001592429608101401747_);}
	.st96{clip-path:url(#SVGID_00000113333442256214402900000014538343407187066500_);}
	.st97{clip-path:url(#SVGID_00000152232651354507368810000006261326629115291060_);}
	.st98{clip-path:url(#SVGID_00000149347287517672136130000012314403823108861833_);}
	.st99{clip-path:url(#SVGID_00000039813135936146232380000004686040350504289947_);}
	.st100{clip-path:url(#SVGID_00000066487493339968614680000003849526252279598995_);}
	.st101{clip-path:url(#SVGID_00000059994679209180208830000016030642500694885546_);}
	.st102{clip-path:url(#SVGID_00000018197619769076666780000003721264032893095064_);}
	.st103{clip-path:url(#SVGID_00000073698989684571291800000008828433010960973500_);}
	.st104{clip-path:url(#SVGID_00000097492133052038788430000008387717465815444370_);}
	.st105{clip-path:url(#SVGID_00000080887828512247407820000017982791876365340552_);}
	.st106{clip-path:url(#SVGID_00000011753578545863795030000002675475681817505954_);}
	.st107{clip-path:url(#SVGID_00000009577648743132525440000007734258949754974089_);}
	.st108{clip-path:url(#SVGID_00000122707691289870415050000012163664205673352621_);}
	.st109{clip-path:url(#SVGID_00000150807318705497230980000000946336454856035251_);}
	.st110{clip-path:url(#SVGID_00000164482016020683638300000014681596550436303245_);}
	.st111{clip-path:url(#SVGID_00000135689766991639506680000017995117594065835396_);}
	.st112{clip-path:url(#SVGID_00000146498899144493020530000000509942250696264111_);}
	.st113{clip-path:url(#SVGID_00000183250581051053465130000008722300312874877836_);}
	.st114{clip-path:url(#SVGID_00000068650677090084730330000017924532798077870734_);}
	.st115{clip-path:url(#SVGID_00000078748125335426217030000006935274139348509112_);}
	.st116{clip-path:url(#SVGID_00000081625356386338579960000011131498817184491912_);}
	.st117{clip-path:url(#SVGID_00000025421765531352716540000000603592772733991593_);}
	.st118{clip-path:url(#SVGID_00000178897401081814683860000009385337914345213326_);}
	.st119{clip-path:url(#SVGID_00000067958963786279182310000004045163123247750839_);}
	.st120{clip-path:url(#SVGID_00000017507382778033973370000013583688592637116345_);}
	.st121{clip-path:url(#SVGID_00000030459153274729922540000005198218464443115429_);}
	.st122{clip-path:url(#SVGID_00000016033432867746549500000005487711417534195629_);}
	.st123{clip-path:url(#SVGID_00000065053600293966485240000009328258866978875524_);}
	.st124{clip-path:url(#SVGID_00000051346760731121237450000004992041618360095658_);}
	.st125{clip-path:url(#SVGID_00000144318041856229708220000014469641007163110841_);}
	.st126{clip-path:url(#SVGID_00000166652193052529970500000003889934055080212390_);}
	.st127{clip-path:url(#SVGID_00000176005498134084850920000010223864076374803848_);}
	.st128{clip-path:url(#SVGID_00000159428862162531594440000008918739289946438559_);}
	.st129{clip-path:url(#SVGID_00000140708823054365399280000015123322653611527810_);}
	.st130{clip-path:url(#SVGID_00000111168015465125501000000002720852855559827843_);}
	.st131{clip-path:url(#SVGID_00000080887689089442147580000001282758073726350998_);}
	.st132{clip-path:url(#SVGID_00000016054528080487768530000012479234442257867415_);}
	.st133{clip-path:url(#SVGID_00000003102922070291290890000003607773185129558939_);}
	.st134{clip-path:url(#SVGID_00000132051361196919417600000000160316726952779919_);}
	.st135{clip-path:url(#SVGID_00000076568274422643522260000016702453823615002026_);}
	.st136{clip-path:url(#SVGID_00000049213994701208569260000016979982731677032603_);}
	.st137{clip-path:url(#SVGID_00000073692173208059845850000010205087320060726671_);}
	.st138{clip-path:url(#SVGID_00000107565596501515273790000003711489475169780624_);}
	.st139{clip-path:url(#SVGID_00000013893613026451007610000007643985660522399129_);}
	.st140{clip-path:url(#SVGID_00000128444623454738273060000009646935728530138532_);}
	.st141{clip-path:url(#SVGID_00000140699386572793200630000012041566321437302446_);}
	.st142{clip-path:url(#SVGID_00000101063863031237942130000006397778064105017015_);}
	.st143{clip-path:url(#SVGID_00000133510685187512371750000013934672062159198112_);}
	.st144{clip-path:url(#SVGID_00000128449853363347407870000007527855342051239091_);}
	.st145{clip-path:url(#SVGID_00000003792421928099962810000016601021754296253350_);}
	.st146{clip-path:url(#SVGID_00000160167116573102773290000007324705826095010690_);}
	.st147{clip-path:url(#SVGID_00000181059409550894692020000012437658158110208420_);}
	.st148{clip-path:url(#SVGID_00000024706169886323377160000013178919051356621466_);}
	.st149{clip-path:url(#SVGID_00000048462695711834872540000005963638704849084571_);}
	.st150{clip-path:url(#SVGID_00000145761254468315220210000011028125266841122735_);}
	.st151{clip-path:url(#SVGID_00000011727225445639858240000003212414161401574313_);}
	.st152{clip-path:url(#SVGID_00000052819535789753182960000015191520609458933910_);}
	.st153{clip-path:url(#SVGID_00000103259449397745819650000004884552166210707087_);}
	.st154{clip-path:url(#SVGID_00000030469028797900675590000010250034422905750459_);}
	.st155{clip-path:url(#SVGID_00000170973400334222705780000000124366611811970972_);}
	.st156{clip-path:url(#SVGID_00000083774748854277825490000013998010759654591645_);}
	.st157{clip-path:url(#SVGID_00000110473233085634785900000017077154871532534151_);}
	.st158{clip-path:url(#SVGID_00000104702559073860664710000001958291357855792570_);}
	.st159{clip-path:url(#SVGID_00000077304849956945782510000012922804195959884198_);}
	.st160{clip-path:url(#SVGID_00000118367178923571759560000006511764814320079765_);}
	.st161{clip-path:url(#SVGID_00000078022970383340764770000014578876493203120292_);}
	.st162{clip-path:url(#SVGID_00000119104589608630800660000002993714583773147808_);}
	.st163{clip-path:url(#SVGID_00000039112640612458583410000000771206125533126554_);}
	.st164{clip-path:url(#SVGID_00000158736536026257355490000015881359076070084495_);}
	.st165{clip-path:url(#SVGID_00000132049929412208583720000007300784299277100723_);}
	.st166{clip-path:url(#SVGID_00000116212855686213822960000010456776596105947036_);}
	.st167{clip-path:url(#SVGID_00000138567282694258045570000003960716067772030116_);}
	.st168{clip-path:url(#SVGID_00000029016931310591658010000009588277850788320664_);}
	.st169{clip-path:url(#SVGID_00000170960555845367117570000000899167527390456988_);}
	.st170{clip-path:url(#SVGID_00000043454402896105926110000009503748240889146539_);}
	.st171{clip-path:url(#SVGID_00000135677428194910775580000001684963362116281511_);}
	.st172{clip-path:url(#SVGID_00000034786147511366075810000007221934905889471927_);}
	.st173{clip-path:url(#SVGID_00000157272356964279689080000017725916944315896969_);}
	.st174{clip-path:url(#SVGID_00000083810212091604053930000015743110233847576764_);}
	.st175{clip-path:url(#SVGID_00000031901229050682120730000001988764599557176763_);}
	.st176{clip-path:url(#SVGID_00000106863706314375289370000010599774652918731651_);}
	.st177{clip-path:url(#SVGID_00000109738514542006819290000006917081569605156999_);}
	.st178{clip-path:url(#SVGID_00000123436746772064066590000014981145537640363142_);}
	.st179{clip-path:url(#SVGID_00000038405102632537699130000017740172985472079265_);}
	.st180{clip-path:url(#SVGID_00000137129576366697951060000014655957200105598118_);}
	.st181{clip-path:url(#SVGID_00000083781847526306106920000015839498432942545326_);}
	.st182{clip-path:url(#SVGID_00000106833347421651062610000001587326841338748039_);}
	.st183{clip-path:url(#SVGID_00000096737513609713544370000004757816578239009930_);}
	.st184{clip-path:url(#SVGID_00000047031903565554558770000007339919079115380663_);}
	.st185{clip-path:url(#SVGID_00000066487080534110230870000017648037910219980185_);}
	.st186{clip-path:url(#SVGID_00000050644168020705832020000017861873949733847206_);}
	.st187{clip-path:url(#SVGID_00000089557408136682700440000007976679493372567979_);}
	.st188{clip-path:url(#SVGID_00000172405029026285552800000012327459916122763195_);}
	.st189{clip-path:url(#SVGID_00000098217198037911800310000013015806217098377098_);}
	.st190{clip-path:url(#SVGID_00000157270502142776649990000017397995015493822399_);}
	.st191{clip-path:url(#SVGID_00000160169482293748424200000004499856869161489309_);}
	.st192{clip-path:url(#SVGID_00000152246302032957313440000003612399506708349117_);}
	.st193{clip-path:url(#SVGID_00000090277610263269512300000007917350671745275288_);}
	.st194{clip-path:url(#SVGID_00000125583021749680049960000013642778843106956673_);}
	.st195{clip-path:url(#SVGID_00000134950207050436092860000008799052929491432861_);}
	.st196{clip-path:url(#SVGID_00000082348880507029361340000014788008670631452310_);}
	.st197{clip-path:url(#SVGID_00000064341715849135055430000000920319286488462505_);}
	.st198{clip-path:url(#SVGID_00000181809246815124151480000011840229757519230592_);}
	.st199{clip-path:url(#SVGID_00000096774042351375903260000004349155056245805233_);}
	.st200{clip-path:url(#SVGID_00000057858700777460314720000018223945528018398594_);}
	.st201{clip-path:url(#SVGID_00000139259100977014164510000005873865767477890194_);}
	.st202{clip-path:url(#SVGID_00000181057279449566306130000012892484565151495070_);}
	.st203{clip-path:url(#SVGID_00000152962451101152195290000009809233029593403563_);}
	.st204{clip-path:url(#SVGID_00000134959889910505211240000010153636360765615270_);}
	.st205{clip-path:url(#SVGID_00000116227038332666933150000001642199700679351438_);}
	.st206{clip-path:url(#SVGID_00000134249417134186755080000016911036681832042409_);}
	.st207{clip-path:url(#SVGID_00000004534608778245398030000016866101819975927188_);}
	.st208{clip-path:url(#SVGID_00000077289748525887459160000001872827448832330638_);}
	.st209{clip-path:url(#SVGID_00000159448364019534121740000012845792000374804653_);}
	.st210{clip-path:url(#SVGID_00000015327314606264833130000013085549733564528785_);}
	.st211{clip-path:url(#SVGID_00000132794291664086423570000013592839430684621954_);}
	.st212{clip-path:url(#SVGID_00000154422973368356285370000008312601223507810457_);}
	.st213{clip-path:url(#SVGID_00000117664555854476379600000005949306600576540077_);}
	.st214{clip-path:url(#SVGID_00000099647518920208609530000013916825562985106350_);}
	.st215{clip-path:url(#SVGID_00000068663288584994005020000002464936598674500030_);}
	.st216{clip-path:url(#SVGID_00000120561164321205063210000003204344999102654374_);}
	.st217{clip-path:url(#SVGID_00000158029670854445635310000012755970789772046779_);}
	.st218{clip-path:url(#SVGID_00000103977072042241106170000000943755885219198136_);}
	.st219{clip-path:url(#SVGID_00000136396026644396818980000017238534126826434730_);}
	.st220{clip-path:url(#SVGID_00000121961939351125597530000011334478173421303719_);}
	.st221{clip-path:url(#SVGID_00000151541569919227472490000016623120987760203940_);}
	.st222{clip-path:url(#SVGID_00000059305549587405358450000000732229012976388759_);}
	.st223{clip-path:url(#SVGID_00000054246131418642940860000005486641325450916537_);}
	.st224{clip-path:url(#SVGID_00000055700620691129929630000005675841503432848797_);}
	.st225{clip-path:url(#SVGID_00000073695399022690163850000012714617583117669822_);}
	.st226{clip-path:url(#SVGID_00000114780326018116757780000002713043523915197841_);}
	.st227{clip-path:url(#SVGID_00000073691955108369094910000002601323772703753905_);}
	.st228{clip-path:url(#SVGID_00000024688598030666284620000002545631485511030679_);}
	.st229{clip-path:url(#SVGID_00000089549842127311330750000013203582201448840335_);}
	.st230{clip-path:url(#SVGID_00000103984979983318784190000017749307207929386889_);}
	.st231{clip-path:url(#SVGID_00000101816120326887074580000004631390346859520149_);}
	.st232{clip-path:url(#SVGID_00000086655187760827589410000011918544184691443848_);}
	.st233{clip-path:url(#SVGID_00000055688724193303398760000010718342690990812334_);}
	.st234{clip-path:url(#SVGID_00000018220960828964978950000008675048247269064125_);}
	.st235{clip-path:url(#SVGID_00000074420633900902521660000014722805066051156409_);}
	.st236{clip-path:url(#SVGID_00000137104661229599822430000001705022312664933009_);}
	.st237{clip-path:url(#SVGID_00000148640450545041448670000003910987367614428574_);}
	.st238{clip-path:url(#SVGID_00000018199345051674607980000000836200794340002982_);}
	.st239{clip-path:url(#SVGID_00000147182326279297176500000013229415065004530060_);}
	.st240{clip-path:url(#SVGID_00000085231875362018501370000014806756073756999348_);}
	.st241{clip-path:url(#SVGID_00000105396497275943786330000002144140399529155489_);}
	.st242{clip-path:url(#SVGID_00000102514744544792295130000006850894649097632920_);}
	.st243{clip-path:url(#SVGID_00000082368227761288972220000008456096113536309133_);}
	.st244{clip-path:url(#SVGID_00000153664510877991952890000002636995964772280474_);}
	.st245{clip-path:url(#SVGID_00000090273799643009206170000010372566194747390596_);}
	.st246{clip-path:url(#SVGID_00000027598300972327409720000017366699918917968257_);}
	.st247{clip-path:url(#SVGID_00000134213176100349303640000015712065361269476515_);}
	.st248{clip-path:url(#SVGID_00000106144248051575650270000006524541355906677904_);}
	.st249{clip-path:url(#SVGID_00000038379968611932363060000011131369847198939024_);}
	.st250{clip-path:url(#SVGID_00000126310158007630935910000004171923907843346827_);}
	.st251{clip-path:url(#SVGID_00000034795084163220404750000008808487952460937088_);}
	.st252{clip-path:url(#SVGID_00000066473970201335174390000008672780085606181285_);}
	.st253{clip-path:url(#SVGID_00000042695332308206865740000014525216646547052178_);}
	.st254{clip-path:url(#SVGID_00000151518033485418440480000008910206479368352668_);}
	.st255{clip-path:url(#SVGID_00000010273600346163332860000006991113310536878492_);}
	.st256{clip-path:url(#SVGID_00000106135091389418363180000014866896479322814389_);}
	.st257{clip-path:url(#SVGID_00000065038026364882864880000011108586283643694520_);}
	.st258{clip-path:url(#SVGID_00000119097554012716890250000008104392862024246971_);}
	.st259{clip-path:url(#SVGID_00000112628160025869736890000016137028413204192394_);}
	.st260{clip-path:url(#SVGID_00000039846863342539870280000011099470242049875354_);}
	.st261{clip-path:url(#SVGID_00000016045929497664466490000001626197892562095527_);}
	.st262{clip-path:url(#SVGID_00000062187984569413171000000006934668993581310854_);}
	.st263{clip-path:url(#SVGID_00000027583349348244957860000002795660238026998713_);}
	.st264{clip-path:url(#SVGID_00000021803673363426433450000003603655743197835193_);}
	.st265{clip-path:url(#SVGID_00000123429655299295314640000002700772422661139619_);}
	.st266{clip-path:url(#SVGID_00000119834780704985620490000009733614989405831349_);}
	.st267{clip-path:url(#SVGID_00000049216889929244288380000015671136167999538608_);}
	.st268{clip-path:url(#SVGID_00000093173542509997443960000007086723456773723273_);}
	.st269{clip-path:url(#SVGID_00000011723731436044385930000014258559449274695326_);}
	.st270{clip-path:url(#SVGID_00000132780216149892518370000001016561713891792023_);}
	.st271{clip-path:url(#SVGID_00000108994001817431424460000013436713444858889863_);}
	.st272{clip-path:url(#SVGID_00000149346477854292702240000000084258210251124624_);}
	.st273{clip-path:url(#SVGID_00000027595794022902041390000017436132118479251609_);}
	.st274{clip-path:url(#SVGID_00000049921589383772268750000000593449430687562161_);}
	.st275{clip-path:url(#SVGID_00000147184119855109434740000006575206347642911627_);}
	.st276{clip-path:url(#SVGID_00000085210848683973463520000006722989982930025353_);}
	.st277{clip-path:url(#SVGID_00000078745846442755813230000011674706882233379248_);}
	.st278{clip-path:url(#SVGID_00000107546702338637607190000004971064124249990307_);}
	.st279{clip-path:url(#SVGID_00000016796093521261757160000006393372875115246773_);}
	.st280{clip-path:url(#SVGID_00000150063360135811175860000011671931468265489536_);}
	.st281{clip-path:url(#SVGID_00000129178466604441498930000007617749329963326890_);}
	.st282{clip-path:url(#SVGID_00000163047336377777429820000002406220911249973162_);}
	.st283{clip-path:url(#SVGID_00000164487714909080601730000013865446827116444806_);}
	.st284{clip-path:url(#SVGID_00000096746706951401892090000012643223794179311016_);}
	.st285{clip-path:url(#SVGID_00000113311126857832856060000000326583922364683448_);}
	.st286{clip-path:url(#SVGID_00000166635524126589550300000015489690109175654560_);}
	.st287{clip-path:url(#SVGID_00000085939852509217717340000004627513222813249681_);}
	.st288{clip-path:url(#SVGID_00000024686156844740189790000011211619412179844993_);}
	.st289{clip-path:url(#SVGID_00000026859317421480397300000002515351964380899493_);}
	.st290{clip-path:url(#SVGID_00000160165781863253752820000013041005208511794598_);}
	.st291{clip-path:url(#SVGID_00000083053766288717173870000004011033591706456970_);}
	.st292{clip-path:url(#SVGID_00000119077428608869585440000007106988682419351455_);}
	.st293{clip-path:url(#SVGID_00000155113178869555953380000018090048473277822655_);}
	.st294{clip-path:url(#SVGID_00000065041961855525155700000015269949589671962521_);}
	.st295{clip-path:url(#SVGID_00000181765394029240907590000004967261275540680850_);}
	.st296{clip-path:url(#SVGID_00000145029785244985002850000011418371105635950769_);}
	.st297{clip-path:url(#SVGID_00000036244288944813945570000007451184103898901680_);}
	.st298{clip-path:url(#SVGID_00000087373680742211660770000006594562776210493612_);}
	.st299{clip-path:url(#SVGID_00000031924363652480326770000016610680390806291113_);}
	.st300{clip-path:url(#SVGID_00000135675276891719853450000004670606970867356579_);}
	.st301{clip-path:url(#SVGID_00000105417420561037492960000000123471074314906794_);}
	.st302{clip-path:url(#SVGID_00000160159859758024831840000017357354732207021475_);}
	.st303{clip-path:url(#SVGID_00000016072989859370115210000009672471763261150873_);}
	.st304{clip-path:url(#SVGID_00000145047014614541061640000006185521942411420550_);}
	.st305{clip-path:url(#SVGID_00000041286880312621529560000011581010573237036432_);}
	.st306{clip-path:url(#SVGID_00000124128233768913317220000015631388845627924654_);}
	.st307{clip-path:url(#SVGID_00000105392870634045872020000006739810185495133315_);}
	.st308{clip-path:url(#SVGID_00000167398747753061915990000003900730812103654807_);}
	.st309{clip-path:url(#SVGID_00000052825383844589666950000016410897889011479938_);}
	.st310{clip-path:url(#SVGID_00000113311040958451477340000001633183907688723351_);}
	.st311{clip-path:url(#SVGID_00000152959874574132124140000013369416396759871925_);}
	.st312{clip-path:url(#SVGID_00000120556173386645738980000004250876615614176157_);}
	.st313{clip-path:url(#SVGID_00000088116959577949186210000016418606081210783151_);}
	.st314{clip-path:url(#SVGID_00000074442826262441387960000008108586941208349067_);}
	.st315{clip-path:url(#SVGID_00000007411166410063641860000003189120660690749366_);}
	.st316{clip-path:url(#SVGID_00000093173601210869142400000017909247873208343198_);}
	.st317{clip-path:url(#SVGID_00000124130190258428133690000004982515163980449711_);}
	.st318{clip-path:url(#SVGID_00000098179883351612142350000006011505533406189710_);}
	.st319{clip-path:url(#SVGID_00000047748089098732754470000009096192152998830773_);}
	.st320{clip-path:url(#SVGID_00000048498868695132057780000001537859100255166108_);}
	.st321{clip-path:url(#SVGID_00000113326867766026822010000006333470027413098130_);}
	.st322{clip-path:url(#SVGID_00000052819325084562709300000014336132289068331448_);}
	.st323{clip-path:url(#SVGID_00000180364041311371933340000013213640925421333137_);}
	.st324{clip-path:url(#SVGID_00000111899631684792823700000002833199342249354166_);}
	.st325{clip-path:url(#SVGID_00000151513519414497212080000009714590805865761952_);}
	.st326{clip-path:url(#SVGID_00000070113572680376095490000015934516001382535868_);}
	.st327{clip-path:url(#SVGID_00000161605287558821776680000017674830957490131075_);}
	.st328{clip-path:url(#SVGID_00000055684582880974579530000017001436274073398704_);}
	.st329{clip-path:url(#SVGID_00000075144395316657646150000018369082889420667824_);}
	.st330{clip-path:url(#SVGID_00000133500711898269633650000008604568456491718834_);}
	.st331{clip-path:url(#SVGID_00000121985331391461295720000008119254429166383288_);}
	.st332{clip-path:url(#SVGID_00000013187257514636574490000005241148092782374048_);}
	.st333{clip-path:url(#SVGID_00000073711304183647444040000007267113124284455866_);}
	.st334{clip-path:url(#SVGID_00000159465021235095791470000017528119176406468247_);}
	.st335{clip-path:url(#SVGID_00000044881618704707185560000001132568265771377052_);}
	.st336{clip-path:url(#SVGID_00000096057569846048827840000002423632538958463896_);}
	.st337{clip-path:url(#SVGID_00000012471472627309129960000015127096379046426007_);}
	.st338{clip-path:url(#SVGID_00000049944017970806370830000006657904845623406759_);}
	.st339{clip-path:url(#SVGID_00000046316771346618951560000008881519936093178301_);}
	.st340{clip-path:url(#SVGID_00000112624344590340638990000005636017601348992641_);}
	.st341{clip-path:url(#SVGID_00000100342937292420819800000008821823149804664999_);}
	.st342{clip-path:url(#SVGID_00000070818253201401675790000006266200764006724495_);}
	.st343{clip-path:url(#SVGID_00000090995082079919563440000001435787902551320731_);}
	.st344{clip-path:url(#SVGID_00000133488736826973774250000017580890079282252728_);}
	.st345{clip-path:url(#SVGID_00000146490016643620555860000016408020486902708902_);}
	.st346{clip-path:url(#SVGID_00000135675153536151833600000010326407547107363731_);}
	.st347{clip-path:url(#SVGID_00000061461494484227799480000015110793863630447744_);}
	.st348{clip-path:url(#SVGID_00000114773294375876892970000012447888158926718372_);}
	.st349{clip-path:url(#SVGID_00000121971122778879652330000001932486688727386756_);}
	.st350{clip-path:url(#SVGID_00000098911146041286335970000003896399562400858002_);}
	.st351{clip-path:url(#SVGID_00000065797114742899246690000006094405632784406436_);}
	.st352{clip-path:url(#SVGID_00000022557541268992129120000001669974518518159753_);}
	.st353{clip-path:url(#SVGID_00000038398128511107779520000018162408283884112277_);}
	.st354{clip-path:url(#SVGID_00000142152545891356118340000018314630391048253357_);}
	.st355{clip-path:url(#SVGID_00000028310732870931760990000013766896461471605647_);}
	.st356{clip-path:url(#SVGID_00000127760483981906898450000001812334954798927007_);}
	.st357{clip-path:url(#SVGID_00000181072696596885057260000018251489873169186953_);}
	.st358{clip-path:url(#SVGID_00000036220854693995237880000006704541021578444928_);}
	.st359{clip-path:url(#SVGID_00000092421617106615191170000013916215908677748624_);}
	.st360{clip-path:url(#SVGID_00000180325026109244201050000012096960686128432782_);}
	.st361{clip-path:url(#SVGID_00000177464082871227162600000000467499874915763351_);}
	.st362{clip-path:url(#SVGID_00000075845009300255248440000010645027373646900405_);}
	.st363{clip-path:url(#SVGID_00000075123577569610939680000005549915924053449098_);}
	.st364{clip-path:url(#SVGID_00000031192044072258973330000017449181462474715301_);}
	.st365{clip-path:url(#SVGID_00000091003443673316823990000004946545191262923181_);}
	.st366{clip-path:url(#SVGID_00000087391895286599699010000000099972159001903032_);}
	.st367{clip-path:url(#SVGID_00000084499147801123947200000011090224947250259110_);}
	.st368{clip-path:url(#SVGID_00000177451938960075668760000014536860022712936350_);}
	.st369{clip-path:url(#SVGID_00000181767399743752272140000003404360001304865711_);}
	.st370{clip-path:url(#SVGID_00000001636143464607751210000012477563848854342276_);}
	.st371{clip-path:url(#SVGID_00000088829652736215535500000006941100533448734375_);}
	.st372{clip-path:url(#SVGID_00000044855911447383950530000014440301590533904310_);}
	.st373{clip-path:url(#SVGID_00000165234072522968423320000011074978495117251997_);}
	.st374{clip-path:url(#SVGID_00000155127413387166642680000005582733457486673024_);}
	.st375{clip-path:url(#SVGID_00000163074122244647447500000000373523594029941692_);}
</style>
<g>
	<g>
		<rect x="4.5" y="122.5" class="st0" width="48.54" height="692.84"/>
	</g>
	<g>
		<rect x="4.5" y="0" class="st1" width="992.7" height="116.88"/>
	</g>
	<g>
		<defs>
			<rect id="SVGID_00000043420508486931626810000016490133998757656452_" y="0" width="1000" height="819.82"/>
		</defs>
		<clipPath id="SVGID_00000125587821474711016280000007344275666369549486_">
			<use xlink:href="#SVGID_00000043420508486931626810000016490133998757656452_"  style="overflow:visible;"/>
		</clipPath>
		<g style="clip-path:url(#SVGID_00000125587821474711016280000007344275666369549486_);">
			<path class="st3" d="M997.19,819.82H1.69c-0.93,0-1.69-0.75-1.69-1.68V2.81c0-0.93,0.75-1.68,1.69-1.68h995.51
				c0.93,0,1.69,0.75,1.69,1.68v815.33C998.88,819.07,998.12,819.82,997.19,819.82z M3.37,816.45H995.5V4.49H3.37V816.45z"/>
		</g>
		<g style="clip-path:url(#SVGID_00000125587821474711016280000007344275666369549486_);">
			<rect x="4.5" y="118" class="st3" width="995.5" height="3.37"/>
		</g>
		<g style="clip-path:url(#SVGID_00000125587821474711016280000007344275666369549486_);">
			<path class="st4" d="M925.42,67.68c0-6.43-3.8-10.45-11.32-11.18l-5.99-0.58c-3.36-0.29-3.94-1.9-3.94-3.29
				c0-1.9,1.61-3.66,5.41-3.66c3.29,0,6.65,0.58,8.84,2.56l5.84-5.92c-3.65-3.43-8.62-4.45-14.54-4.45
				c-7.74,0-14.68,4.23-14.68,12.12c0,7.01,4.24,10.01,11.1,10.67l5.99,0.58c3,0.3,4.02,1.61,4.02,3.51c0,2.85-3.43,3.94-6.72,3.94
				c-2.92,0-7.01-0.44-10.15-3.58l-6.21,6.2c4.82,4.82,10.23,5.47,16.22,5.47C918.26,80.09,925.42,76.08,925.42,67.68 M887.8,67.68
				c0-6.43-3.8-10.45-11.32-11.18l-5.99-0.58c-3.36-0.29-3.94-1.9-3.94-3.29c0-1.9,1.61-3.66,5.41-3.66c3.29,0,6.65,0.58,8.84,2.56
				l5.84-5.92c-3.65-3.43-8.62-4.45-14.54-4.45c-7.74,0-14.68,4.23-14.68,12.12c0,7.01,4.24,10.01,11.1,10.67l5.99,0.58
				c2.99,0.3,4.02,1.61,4.02,3.51c0,2.85-3.43,3.94-6.72,3.94c-2.92,0-7.01-0.44-10.15-3.58l-6.21,6.2
				c4.82,4.82,10.23,5.47,16.22,5.47C880.64,80.09,887.8,76.08,887.8,67.68 M847.04,79.65V41.6h-9.49v23.01
				c0,5.19-3.36,6.94-6.36,6.94c-2.99,0-6.28-1.75-6.28-6.94V41.6h-9.49v24.32c0,4.16,0.8,7.74,3.87,10.81
				c2.11,2.12,5.18,3.35,8.98,3.35c3.51,0,7.02-1.31,9.5-3.94v3.5H847.04z M806.79,79.65v-8.02h-3.65c-2.41,0-3.36-1.17-3.36-3.43
				V27.65h-9.49v41.13c0,5.4,3.29,10.87,11.1,10.87H806.79z M778.96,79.65V55.03c0-8.03-4.38-13.87-12.7-13.87
				c-3.36,0-6.58,1.31-9.14,3.94V27.65h-9.49v52h9.49V56.42c0-4.97,3.14-6.72,6.14-6.72c2.99,0,6.21,1.68,6.21,6.72v23.23H778.96z
				 M738.78,74.91l-6.43-6.35c-1.97,2.12-3.65,2.99-6.14,2.99c-2.26,0-4.02-0.8-5.41-2.48c-1.46-1.83-2.12-4.46-2.12-8.48
				s0.66-6.57,2.12-8.4c1.39-1.69,3.14-2.49,5.41-2.49c2.48,0,4.16,0.88,6.14,3l6.43-6.43c-3.36-3.5-7.3-5.11-12.56-5.11
				c-7.6,0-17.01,4.01-17.01,19.43s9.42,19.5,17.01,19.5C731.48,80.09,735.42,78.41,738.78,74.91 M701.68,67.68
				c0-6.43-3.8-10.45-11.32-11.18l-5.99-0.58c-3.36-0.29-3.94-1.9-3.94-3.29c0-1.9,1.61-3.66,5.41-3.66c3.29,0,6.65,0.58,8.84,2.56
				l5.84-5.92c-3.65-3.43-8.62-4.45-14.54-4.45c-7.74,0-14.68,4.23-14.68,12.12c0,7.01,4.24,10.01,11.1,10.67l5.99,0.58
				c2.99,0.3,4.02,1.61,4.02,3.51c0,2.85-3.43,3.94-6.72,3.94c-2.92,0-7.01-0.44-10.15-3.58l-6.21,6.2
				c4.82,4.82,10.23,5.47,16.22,5.47C694.52,80.09,701.68,76.08,701.68,67.68 M653.04,60.59c0,6.21-0.73,10.96-6.43,10.96
				s-6.43-4.75-6.43-10.96c0-6.21,0.73-10.89,6.43-10.89S653.04,54.38,653.04,60.59 M662.52,60.59c0-5.7-0.07-12.2-3.87-16
				c-2.12-2.11-5.55-3.43-9.28-3.43c-3.87,0-6.73,1.02-9.21,3.79V27.65h-9.48v52h9.19v-3.57c2.63,2.92,5.48,4.01,9.5,4.01
				c3.73,0,7.16-1.31,9.28-3.43C662.45,72.87,662.52,66.29,662.52,60.59 M609.5,65.63c0,2.34-0.37,3.87-1.39,4.83
				c-1.69,1.61-3.37,1.83-6,1.83c-3.73,0-5.48-1.75-5.48-4.39c0-2.7,1.9-4.32,5.34-4.32h7.53V65.63z M618.98,79.65V54.6
				c0-8.91-5.55-13.44-16.21-13.44c-6.36,0-10.01,1.17-13.73,5.25l6.06,5.92c1.97-2.26,3.65-3.15,7.31-3.15c5.04,0,7.09,1.83,7.09,6
				v1.9h-8.99c-8.84,0-13,4.96-13,11.02c0,3.37,1.09,6.43,3.14,8.55c2.26,2.26,5.4,3.35,9.72,3.35c4.38,0,6.79-1.09,9.36-3.65v3.28
				H618.98z M581.15,79.65v-8.02h-3.65c-2.41,0-3.36-1.17-3.36-3.43V27.65h-9.49v41.13c0,5.4,3.28,10.87,11.09,10.87H581.15z
				 M552.88,79.65V41.6h-9.49v23.01c0,5.19-3.37,6.94-6.36,6.94c-2.99,0-6.29-1.75-6.29-6.94V41.6h-9.49v24.32
				c0,4.16,0.8,7.74,3.87,10.81c2.12,2.12,5.18,3.35,8.98,3.35c3.51,0,7.01-1.31,9.5-3.94v3.5H552.88z M510,79.65V55.03
				c0-8.03-4.38-13.87-12.7-13.87c-3.36,0-6.57,1.31-9.14,3.94V27.65h-9.49v52h9.49V56.42c0-4.97,3.15-6.72,6.14-6.72
				c2.99,0,6.21,1.68,6.21,6.72v23.23H510z M469.82,74.91l-6.43-6.35c-1.97,2.12-3.65,2.99-6.14,2.99c-2.26,0-4.02-0.8-5.41-2.48
				c-1.46-1.83-2.12-4.46-2.12-8.48s0.66-6.57,2.12-8.4c1.39-1.69,3.14-2.49,5.41-2.49c2.48,0,4.16,0.88,6.14,3l6.43-6.43
				c-3.36-3.5-7.3-5.11-12.56-5.11c-7.6,0-17.01,4.01-17.01,19.43s9.41,19.5,17.01,19.5C462.52,80.09,466.46,78.41,469.82,74.91
				 M432.72,67.68c0-6.43-3.8-10.45-11.32-11.18l-5.99-0.58c-3.36-0.29-3.94-1.9-3.94-3.29c0-1.9,1.61-3.66,5.41-3.66
				c3.29,0,6.65,0.58,8.84,2.56l5.84-5.92c-3.65-3.43-8.62-4.45-14.54-4.45c-7.74,0-14.68,4.23-14.68,12.12
				c0,7.01,4.24,10.01,11.1,10.67l5.99,0.58c2.99,0.3,4.02,1.61,4.02,3.51c0,2.85-3.43,3.94-6.72,3.94c-2.92,0-7.01-0.44-10.15-3.58
				l-6.21,6.2c4.82,4.82,10.23,5.47,16.22,5.47C425.56,80.09,432.72,76.08,432.72,67.68 M395.02,79.65v-8.02h-3.66
				c-2.41,0-3.35-1.17-3.35-3.43V27.65h-9.49v41.13c0,5.4,3.29,10.87,11.09,10.87H395.02z M357.7,65.63c0,2.34-0.37,3.87-1.39,4.83
				c-1.68,1.61-3.36,1.83-6,1.83c-3.73,0-5.48-1.75-5.48-4.39c0-2.7,1.9-4.32,5.33-4.32h7.53V65.63z M367.19,79.65V54.6
				c0-8.91-5.55-13.44-16.22-13.44c-6.36,0-10.01,1.17-13.73,5.25l6.06,5.92c1.97-2.26,3.65-3.15,7.3-3.15c5.05,0,7.09,1.83,7.09,6
				v1.9h-8.99c-8.84,0-13,4.96-13,11.02c0,3.37,1.1,6.43,3.14,8.55c2.26,2.26,5.4,3.35,9.71,3.35c4.39,0,6.8-1.09,9.36-3.65v3.28
				H367.19z M318.84,57.09h-14.46c0.07-1.68,0.29-2.71,0.88-4.1c1.02-2.26,3.14-3.95,6.36-3.95s5.33,1.69,6.36,3.95
				C318.54,54.38,318.76,55.41,318.84,57.09 M328.19,63.58v-4.23c0-10.45-5.99-18.18-16.58-18.18c-9.86,0-16.58,7.01-16.58,19.43
				c0,15.41,8.61,19.5,17.6,19.5c6.87,0,10.59-2.11,14.46-5.98l-5.77-5.63c-2.41,2.42-4.46,3.58-8.62,3.58
				c-5.33,0-8.33-3.58-8.33-8.48H328.19z M292.32,44.74c-2.63-2.62-5.26-3.57-8.98-3.57c-4.09,0-7.74,1.9-9.57,4.09V41.6h-9.27
				v38.05h9.49V56.71c0-4.82,3.21-7.01,6.14-7.01c2.34,0,3.58,0.8,5.04,2.26L292.32,44.74z M256.82,79.65l-14.61-22.71L255.8,41.6
				h-11.47l-12.64,15.55V27.65h-9.49v52h9.49V68.33l4.02-4.53l9.35,15.85H256.82z M215.33,44.74c-2.63-2.62-5.26-3.57-8.98-3.57
				c-4.09,0-7.74,1.9-9.57,4.09V41.6h-9.27v38.05h9.49V56.71c0-4.82,3.21-7.01,6.14-7.01c2.34,0,3.58,0.8,5.04,2.26L215.33,44.74z
				 M167.92,57.09h-14.46c0.07-1.68,0.29-2.71,0.88-4.1c1.02-2.26,3.14-3.95,6.36-3.95c3.21,0,5.33,1.69,6.36,3.95
				C167.63,54.38,167.85,55.41,167.92,57.09 M177.27,63.58v-4.23c0-10.45-5.99-18.18-16.58-18.18c-9.86,0-16.57,7.01-16.57,19.43
				c0,15.41,8.61,19.5,17.59,19.5c6.87,0,10.59-2.11,14.46-5.98l-5.77-5.63c-2.41,2.42-4.46,3.58-8.62,3.58
				c-5.33,0-8.33-3.58-8.33-8.48H177.27z M141.7,27.65h-10.59L123,60.44l-9.5-32.79h-7.6l-9.5,32.79l-8.04-32.79H77.78l13.88,52
				h8.47l9.57-31.55l9.57,31.55h8.47L141.7,27.65z"/>
		</g>
		<g style="clip-path:url(#SVGID_00000125587821474711016280000007344275666369549486_);">
			<rect x="3.09" y="348.94" class="st3" width="992.7" height="3.37"/>
		</g>
		<g style="clip-path:url(#SVGID_00000125587821474711016280000007344275666369549486_);">
			<rect x="3.09" y="232.07" class="st3" width="992.7" height="3.37"/>
		</g>
		<g style="clip-path:url(#SVGID_00000125587821474711016280000007344275666369549486_);">
			<rect x="3.09" y="463.01" class="st3" width="992.7" height="3.37"/>
		</g>
		<g style="clip-path:url(#SVGID_00000125587821474711016280000007344275666369549486_);">
			<rect x="3.09" y="585.51" class="st3" width="992.7" height="3.37"/>
		</g>
		<g style="clip-path:url(#SVGID_00000125587821474711016280000007344275666369549486_);">
			<rect x="3.09" y="702.39" class="st3" width="992.7" height="3.37"/>
		</g>
		<g style="clip-path:url(#SVGID_00000125587821474711016280000007344275666369549486_);">
			<path class="st3" d="M698.95,661.25c0,4.06-2.4,6.62-5.82,6.62c-3.42,0-5.77-2.57-5.77-6.62c0-4.11,2.35-6.57,5.77-6.57
				C696.76,654.69,698.95,657.52,698.95,661.25 M704.39,661.15c0-6.68-4.48-10.99-9.98-10.99c-1.17,0-2.35,0.16-3.36,0.58
				l8.17-16.33h-5.82l-8.65,17.62c-1.65,3.3-2.83,6.24-2.83,9.34c0,7.05,4.69,11.37,11.26,11.37S704.39,668.14,704.39,661.15
				 M663.07,668.89l-3.68-3.63c-1.66,1.66-2.78,2.62-5.23,2.62c-4.38,0-6.62-3.05-6.62-9.02c0-5.88,2.24-8.97,6.62-8.97
				c2.4,0,3.63,0.96,5.23,2.56l3.68-3.57c-1.71-1.71-2.56-2.29-4-2.93c-1.39-0.58-2.99-0.9-4.86-0.9c-7.57,0-12.11,5.17-12.11,13.72
				c0,8.81,4.48,13.98,12.11,13.98c1.87,0,3.42-0.26,4.86-0.9C660.51,671.18,661.36,670.6,663.07,668.89 M629.18,662.64
				c0,3.95-1.71,5.56-5.93,5.56c-3.69,0-5.34-1.23-5.34-3.85c0-2.56,1.65-3.85,4.86-3.85h6.41V662.64z M634.57,672.41v-18.09
				c0-6.14-3.79-9.28-11.32-9.28c-2.56,0-4.48,0.32-6.03,1.06c-1.33,0.59-2.02,1.23-3.52,2.83l3.57,3.37
				c0.8-1.02,1.39-1.55,2.19-1.92c0.96-0.48,2.08-0.7,3.64-0.7c4.27,0,6.09,1.49,6.09,5.02v1.98h-7.27c-5.77,0-9.28,2.93-9.28,7.84
				c0,5.23,3.36,8.16,9.39,8.16c3.21,0,4.97-0.48,7.21-2.71v2.45H634.57z M605.43,672.41v-27.06H586.9v11.26
				c0,10.47-2.78,11-5.12,11h-0.85v4.8h2.56c5.28,0,8.64-2.98,8.64-14.46v-7.85h7.86v22.31H605.43z M557.17,672.41v-19.85
				l15.32,19.85h7.32l-15.96-20.07l14.63-17.94h-7.1l-14.2,18.04v-18.04h-5.76v38H557.17z M532.56,630.46h-5.23l-15.22,45.9h5.23
				L532.56,630.46z M489.81,661.25c0,4.06-2.4,6.62-5.82,6.62c-3.42,0-5.77-2.57-5.77-6.62c0-4.11,2.35-6.57,5.77-6.57
				C487.62,654.69,489.81,657.52,489.81,661.25 M495.25,661.15c0-6.68-4.48-10.99-9.98-10.99c-1.17,0-2.35,0.16-3.37,0.58
				l8.18-16.33h-5.82l-8.65,17.62c-1.66,3.3-2.83,6.24-2.83,9.34c0,7.05,4.69,11.37,11.26,11.37
				C490.6,672.73,495.25,668.14,495.25,661.15 M447.63,656.67h-12.17c0.06-1.66,0.16-2.46,0.7-3.69c0.85-2.03,2.83-3.42,5.39-3.42
				c2.56,0,4.48,1.39,5.34,3.42C447.42,654.21,447.58,655.01,447.63,656.67 M453.02,660.45v-2.4c0-7.69-4.22-13.02-11.48-13.02
				c-6.94,0-11.47,5.06-11.47,13.82c0,10.31,5.38,13.88,12.17,13.88c4.75,0,7.37-1.44,10.14-4.21l-3.47-3.26
				c-1.92,1.92-3.52,2.78-6.56,2.78c-4.43,0-6.89-2.94-6.89-7.59H453.02z M424.31,664.14c0-4.8-2.99-7.21-8.06-7.64l-4.27-0.37
				c-2.88-0.27-3.74-1.49-3.74-3.1c0-2.03,1.65-3.47,4.91-3.47c2.56,0,4.96,0.53,6.67,1.98l3.42-3.47
				c-2.51-2.19-5.98-3.03-10.04-3.03c-5.66,0-10.19,2.98-10.19,8.27c0,4.75,2.93,7.05,8.01,7.48l4.32,0.37
				c2.62,0.21,3.63,1.39,3.63,3.2c0,2.57-2.61,3.74-5.92,3.74c-2.67,0-5.61-0.59-7.79-2.83l-3.58,3.57
				c3.2,3.15,6.94,3.89,11.37,3.89C419.5,672.73,424.31,669.8,424.31,664.14 M397.46,664.14c0-4.8-2.99-7.21-8.06-7.64l-4.27-0.37
				c-2.88-0.27-3.74-1.49-3.74-3.1c0-2.03,1.66-3.47,4.91-3.47c2.56,0,4.97,0.53,6.68,1.98l3.42-3.47
				c-2.51-2.19-5.98-3.03-10.04-3.03c-5.66,0-10.2,2.98-10.2,8.27c0,4.75,2.94,7.05,8.01,7.48l4.33,0.37
				c2.61,0.21,3.63,1.39,3.63,3.2c0,2.57-2.62,3.74-5.93,3.74c-2.67,0-5.6-0.59-7.79-2.83l-3.57,3.57c3.2,3.15,6.94,3.89,11.37,3.89
				C392.65,672.73,397.46,669.8,397.46,664.14 M363.08,662.64c0,1.92-0.37,3.2-1.17,4.01c-1.44,1.39-2.99,1.55-5.07,1.55
				c-3.42,0-4.97-1.39-4.97-3.85c0-2.46,1.66-3.9,4.86-3.9h6.36V662.64z M368.52,672.41v-18.09c0-6.14-3.73-9.28-11.15-9.28
				c-4.48,0-7.15,0.9-9.71,3.89l3.57,3.37c1.49-1.92,2.94-2.62,5.93-2.62c4.22,0,5.93,1.66,5.93,5.07v1.93h-7.15
				c-6.19,0-9.34,3.25-9.34,7.79c0,2.3,0.75,4.38,2.14,5.82c1.65,1.65,3.89,2.45,7.25,2.45c3.37,0,5.24-0.8,7.21-2.77v2.45H368.52z
				 M342.1,672.41v-4.64h-2.4c-2.19,0-2.93-1.07-2.93-3.15v-30.21h-5.44v30.53c0,4,2.24,7.47,7.41,7.47H342.1z M326.08,672.41
				l-13.62-23.11l12.33-14.89h-7.05l-15.54,19.11v-19.11h-5.75v38h5.75v-11.05l6.41-7.69l10.68,18.73H326.08z"/>
		</g>
		<g style="clip-path:url(#SVGID_00000125587821474711016280000007344275666369549486_);">
			<path class="st3" d="M704.93,516.77v-4.85h-22.63v10.83h5.23v-5.98h11.58l-12.76,33.15h5.87L704.93,516.77z M663.07,546.39
				l-3.68-3.63c-1.66,1.66-2.78,2.62-5.23,2.62c-4.38,0-6.62-3.05-6.62-9.02c0-5.88,2.24-8.97,6.62-8.97c2.4,0,3.63,0.96,5.23,2.56
				l3.68-3.57c-1.71-1.71-2.56-2.29-4-2.93c-1.39-0.58-2.99-0.9-4.86-0.9c-7.57,0-12.11,5.17-12.11,13.72
				c0,8.81,4.48,13.98,12.11,13.98c1.87,0,3.42-0.26,4.86-0.9C660.51,548.69,661.36,548.1,663.07,546.39 M629.18,540.15
				c0,3.95-1.71,5.56-5.93,5.56c-3.69,0-5.34-1.23-5.34-3.85c0-2.56,1.65-3.84,4.86-3.84h6.41V540.15z M634.57,549.91v-18.09
				c0-6.14-3.79-9.28-11.32-9.28c-2.56,0-4.48,0.32-6.03,1.06c-1.33,0.59-2.02,1.23-3.52,2.83l3.57,3.37
				c0.8-1.02,1.39-1.55,2.19-1.92c0.96-0.48,2.08-0.7,3.64-0.7c4.27,0,6.09,1.49,6.09,5.02v1.98h-7.27c-5.77,0-9.28,2.93-9.28,7.84
				c0,5.23,3.36,8.16,9.39,8.16c3.21,0,4.97-0.48,7.21-2.72v2.45H634.57z M605.43,549.91v-27.06H586.9v11.26
				c0,10.47-2.78,11-5.12,11h-0.85v4.8h2.56c5.28,0,8.64-2.98,8.64-14.46v-7.85h7.86v22.31H605.43z M557.17,549.91v-19.85
				l15.32,19.85h7.32l-15.96-20.07l14.63-17.94h-7.1l-14.2,18.04v-18.04h-5.76v38H557.17z M532.56,507.96h-5.23l-15.22,45.9h5.23
				L532.56,507.96z M495.79,516.77v-4.85h-22.63v10.83h5.23v-5.98h11.58l-12.76,33.15h5.87L495.79,516.77z M447.63,534.17h-12.17
				c0.06-1.66,0.16-2.46,0.7-3.69c0.85-2.03,2.83-3.42,5.39-3.42c2.56,0,4.48,1.39,5.34,3.42
				C447.42,531.71,447.58,532.52,447.63,534.17 M453.02,537.95v-2.4c0-7.69-4.22-13.02-11.48-13.02c-6.94,0-11.47,5.06-11.47,13.82
				c0,10.3,5.38,13.87,12.17,13.87c4.75,0,7.37-1.44,10.14-4.21l-3.47-3.26c-1.92,1.92-3.52,2.78-6.56,2.78
				c-4.43,0-6.89-2.94-6.89-7.59H453.02z M424.31,541.64c0-4.8-2.99-7.21-8.06-7.64l-4.27-0.37c-2.88-0.27-3.74-1.49-3.74-3.1
				c0-2.03,1.65-3.47,4.91-3.47c2.56,0,4.96,0.53,6.67,1.98l3.42-3.47c-2.51-2.19-5.98-3.03-10.04-3.03
				c-5.66,0-10.19,2.98-10.19,8.27c0,4.75,2.93,7.05,8.01,7.48l4.32,0.37c2.62,0.21,3.63,1.39,3.63,3.2c0,2.57-2.61,3.74-5.92,3.74
				c-2.67,0-5.61-0.59-7.79-2.83l-3.58,3.58c3.2,3.14,6.94,3.89,11.37,3.89C419.5,550.23,424.31,547.3,424.31,541.64 M397.46,541.64
				c0-4.8-2.99-7.21-8.06-7.64l-4.27-0.37c-2.88-0.27-3.74-1.49-3.74-3.1c0-2.03,1.66-3.47,4.91-3.47c2.56,0,4.97,0.53,6.68,1.98
				l3.42-3.47c-2.51-2.19-5.98-3.03-10.04-3.03c-5.66,0-10.2,2.98-10.2,8.27c0,4.75,2.94,7.05,8.01,7.48l4.33,0.37
				c2.61,0.21,3.63,1.39,3.63,3.2c0,2.57-2.62,3.74-5.93,3.74c-2.67,0-5.6-0.59-7.79-2.83l-3.57,3.58c3.2,3.14,6.94,3.89,11.37,3.89
				C392.65,550.23,397.46,547.3,397.46,541.64 M363.08,540.15c0,1.92-0.37,3.2-1.17,4.01c-1.44,1.39-2.99,1.55-5.07,1.55
				c-3.42,0-4.97-1.39-4.97-3.85c0-2.46,1.66-3.9,4.86-3.9h6.36V540.15z M368.52,549.91v-18.09c0-6.14-3.73-9.28-11.15-9.28
				c-4.48,0-7.15,0.9-9.71,3.89l3.57,3.37c1.49-1.92,2.94-2.62,5.93-2.62c4.22,0,5.93,1.66,5.93,5.07v1.93h-7.15
				c-6.19,0-9.34,3.25-9.34,7.79c0,2.3,0.75,4.38,2.14,5.82c1.65,1.65,3.89,2.45,7.25,2.45c3.37,0,5.24-0.8,7.21-2.77v2.45H368.52z
				 M342.1,549.91v-4.64h-2.4c-2.19,0-2.93-1.07-2.93-3.15v-30.21h-5.44v30.53c0,4,2.24,7.47,7.41,7.47H342.1z M326.08,549.91
				l-13.62-23.11l12.33-14.89h-7.05l-15.54,19.11v-19.11h-5.75v38h5.75v-11.05l6.41-7.69l10.68,18.73H326.08z"/>
		</g>
		<g style="clip-path:url(#SVGID_00000125587821474711016280000007344275666369549486_);">
			<path class="st3" d="M698.79,405.39c0,3.36-2.35,5.77-5.66,5.77c-3.31,0-5.61-2.4-5.61-5.77c0-3.32,2.3-5.82,5.61-5.82
				C696.44,399.57,698.79,402.07,698.79,405.39 M699.38,422.2c0,3.52-2.72,6.3-6.25,6.3c-3.52,0-6.25-2.78-6.25-6.3
				c0-3.52,2.73-6.36,6.25-6.36C696.66,415.85,699.38,418.68,699.38,422.2 M704.87,422.31c0-4.54-2.56-7.32-5.23-8.91
				c2.45-1.49,4.59-4.16,4.59-8.17c0-6.36-4.91-10.51-11.1-10.51c-6.19,0-11.05,4.16-11.05,10.51c0,4.01,2.14,6.68,4.59,8.17
				c-2.66,1.6-5.23,4.37-5.23,8.91c0,6.89,5.18,11.05,11.69,11.05C699.65,433.36,704.87,429.2,704.87,422.31 M663.07,429.52
				l-3.68-3.63c-1.66,1.66-2.78,2.62-5.23,2.62c-4.38,0-6.62-3.05-6.62-9.02c0-5.88,2.24-8.97,6.62-8.97c2.4,0,3.63,0.96,5.23,2.56
				l3.68-3.57c-1.71-1.71-2.56-2.29-4-2.93c-1.39-0.58-2.99-0.9-4.86-0.9c-7.57,0-12.11,5.17-12.11,13.72
				c0,8.81,4.48,13.98,12.11,13.98c1.87,0,3.42-0.26,4.86-0.9C660.51,431.81,661.36,431.23,663.07,429.52 M629.18,423.27
				c0,3.95-1.71,5.56-5.93,5.56c-3.69,0-5.34-1.23-5.34-3.85c0-2.56,1.65-3.84,4.86-3.84h6.41V423.27z M634.57,433.04v-18.09
				c0-6.14-3.79-9.28-11.32-9.28c-2.56,0-4.48,0.32-6.03,1.06c-1.33,0.59-2.02,1.23-3.52,2.83l3.57,3.37
				c0.8-1.02,1.39-1.55,2.19-1.92c0.96-0.48,2.08-0.7,3.64-0.7c4.27,0,6.09,1.49,6.09,5.02v1.98h-7.27c-5.77,0-9.28,2.93-9.28,7.84
				c0,5.23,3.36,8.16,9.39,8.16c3.21,0,4.97-0.48,7.21-2.72v2.45H634.57z M605.43,433.04v-27.06H586.9v11.26
				c0,10.47-2.78,11-5.12,11h-0.85v4.8h2.56c5.28,0,8.64-2.98,8.64-14.46v-7.85h7.86v22.31H605.43z M557.17,433.04v-19.85
				l15.32,19.85h7.32l-15.96-20.07l14.63-17.94h-7.1l-14.2,18.04v-18.04h-5.76v38H557.17z M532.56,391.08h-5.23l-15.22,45.9h5.23
				L532.56,391.08z M489.65,405.39c0,3.36-2.35,5.77-5.66,5.77c-3.31,0-5.61-2.4-5.61-5.77c0-3.32,2.3-5.82,5.61-5.82
				C487.3,399.57,489.65,402.07,489.65,405.39 M490.23,422.2c0,3.52-2.73,6.3-6.25,6.3c-3.52,0-6.25-2.78-6.25-6.3
				c0-3.52,2.73-6.36,6.25-6.36C487.51,415.85,490.23,418.68,490.23,422.2 M495.72,422.31c0-4.54-2.56-7.32-5.22-8.91
				c2.45-1.49,4.59-4.16,4.59-8.17c0-6.36-4.91-10.51-11.1-10.51c-6.19,0-11.05,4.16-11.05,10.51c0,4.01,2.14,6.68,4.59,8.17
				c-2.66,1.6-5.23,4.37-5.23,8.91c0,6.89,5.18,11.05,11.69,11.05C490.5,433.36,495.72,429.2,495.72,422.31 M447.63,417.3h-12.17
				c0.06-1.66,0.16-2.46,0.7-3.69c0.85-2.03,2.83-3.42,5.39-3.42c2.56,0,4.48,1.39,5.34,3.42
				C447.42,414.83,447.58,415.64,447.63,417.3 M453.02,421.08v-2.4c0-7.69-4.22-13.02-11.48-13.02c-6.94,0-11.47,5.06-11.47,13.82
				c0,10.3,5.38,13.87,12.17,13.87c4.75,0,7.37-1.44,10.14-4.21l-3.47-3.26c-1.92,1.92-3.52,2.78-6.56,2.78
				c-4.43,0-6.89-2.94-6.89-7.59H453.02z M424.31,424.76c0-4.8-2.99-7.21-8.06-7.64l-4.27-0.37c-2.88-0.27-3.74-1.49-3.74-3.1
				c0-2.03,1.65-3.47,4.91-3.47c2.56,0,4.96,0.53,6.67,1.98l3.42-3.47c-2.51-2.19-5.98-3.03-10.04-3.03
				c-5.66,0-10.19,2.98-10.19,8.27c0,4.75,2.93,7.05,8.01,7.48l4.32,0.37c2.62,0.21,3.63,1.39,3.63,3.2c0,2.57-2.61,3.74-5.92,3.74
				c-2.67,0-5.61-0.59-7.79-2.83l-3.58,3.58c3.2,3.14,6.94,3.89,11.37,3.89C419.5,433.36,424.31,430.42,424.31,424.76
				 M397.46,424.76c0-4.8-2.99-7.21-8.06-7.64l-4.27-0.37c-2.88-0.27-3.74-1.49-3.74-3.1c0-2.03,1.66-3.47,4.91-3.47
				c2.56,0,4.97,0.53,6.68,1.98l3.42-3.47c-2.51-2.19-5.98-3.03-10.04-3.03c-5.66,0-10.2,2.98-10.2,8.27c0,4.75,2.94,7.05,8.01,7.48
				l4.33,0.37c2.61,0.21,3.63,1.39,3.63,3.2c0,2.57-2.62,3.74-5.93,3.74c-2.67,0-5.6-0.59-7.79-2.83l-3.57,3.58
				c3.2,3.14,6.94,3.89,11.37,3.89C392.65,433.36,397.46,430.42,397.46,424.76 M363.08,423.27c0,1.92-0.37,3.2-1.17,4.01
				c-1.44,1.39-2.99,1.55-5.07,1.55c-3.42,0-4.97-1.39-4.97-3.85s1.66-3.9,4.86-3.9h6.36V423.27z M368.52,433.04v-18.09
				c0-6.14-3.73-9.28-11.15-9.28c-4.48,0-7.15,0.9-9.71,3.89l3.57,3.37c1.49-1.92,2.94-2.62,5.93-2.62c4.22,0,5.93,1.66,5.93,5.07
				v1.93h-7.15c-6.19,0-9.34,3.25-9.34,7.79c0,2.3,0.75,4.38,2.14,5.82c1.65,1.65,3.89,2.45,7.25,2.45c3.37,0,5.24-0.8,7.21-2.77
				v2.45H368.52z M342.1,433.04v-4.64h-2.4c-2.19,0-2.93-1.07-2.93-3.15v-30.21h-5.44v30.53c0,4,2.24,7.47,7.41,7.47H342.1z
				 M326.08,433.04l-13.62-23.11l12.33-14.89h-7.05l-15.54,19.11v-19.11h-5.75v38h5.75v-11.05l6.41-7.69l10.68,18.73H326.08z"/>
		</g>
		<g style="clip-path:url(#SVGID_00000125587821474711016280000007344275666369549486_);">
			<path class="st3" d="M698.95,289.31c0,4.11-2.4,6.57-5.82,6.57c-3.63,0-5.77-2.83-5.77-6.57c0-4.06,2.35-6.62,5.77-6.62
				C696.55,282.69,698.95,285.25,698.95,289.31 M704.39,289.2c0-7.05-4.69-11.37-11.26-11.37c-6.57,0-11.2,4.59-11.2,11.58
				c0,6.68,4.42,11,9.92,11c1.17,0,2.4-0.16,3.42-0.59l-8.18,16.33h5.82l8.65-17.62C703.22,295.24,704.39,292.3,704.39,289.2
				 M663.07,312.64l-3.68-3.63c-1.66,1.66-2.78,2.62-5.23,2.62c-4.38,0-6.62-3.05-6.62-9.02c0-5.88,2.24-8.97,6.62-8.97
				c2.4,0,3.63,0.96,5.23,2.56l3.68-3.57c-1.71-1.71-2.56-2.29-4-2.93c-1.39-0.58-2.99-0.9-4.86-0.9c-7.57,0-12.11,5.17-12.11,13.72
				c0,8.81,4.48,13.98,12.11,13.98c1.87,0,3.42-0.26,4.86-0.9C660.51,314.93,661.36,314.35,663.07,312.64 M629.18,306.39
				c0,3.95-1.71,5.56-5.93,5.56c-3.69,0-5.34-1.23-5.34-3.85c0-2.56,1.65-3.84,4.86-3.84h6.41V306.39z M634.57,316.16v-18.09
				c0-6.14-3.79-9.28-11.32-9.28c-2.56,0-4.48,0.32-6.03,1.06c-1.33,0.59-2.02,1.23-3.52,2.83l3.57,3.37
				c0.8-1.02,1.39-1.55,2.19-1.92c0.96-0.48,2.08-0.7,3.64-0.7c4.27,0,6.09,1.49,6.09,5.02v1.98h-7.27c-5.77,0-9.28,2.93-9.28,7.84
				c0,5.23,3.36,8.16,9.39,8.16c3.21,0,4.97-0.48,7.21-2.72v2.45H634.57z M605.43,316.16V289.1H586.9v11.26c0,10.47-2.78,11-5.12,11
				h-0.85v4.8h2.56c5.28,0,8.64-2.98,8.64-14.46v-7.85h7.86v22.31H605.43z M557.17,316.16v-19.85l15.32,19.85h7.32l-15.96-20.07
				l14.63-17.94h-7.1l-14.2,18.04v-18.04h-5.76v38H557.17z M532.56,274.21h-5.23l-15.22,45.9h5.23L532.56,274.21z M489.81,289.31
				c0,4.11-2.4,6.57-5.82,6.57c-3.63,0-5.77-2.83-5.77-6.57c0-4.06,2.35-6.62,5.77-6.62C487.4,282.69,489.81,285.25,489.81,289.31
				 M495.25,289.2c0-7.05-4.69-11.37-11.26-11.37s-11.2,4.59-11.2,11.58c0,6.68,4.42,11,9.92,11c1.17,0,2.4-0.16,3.42-0.59
				l-8.17,16.33h5.82l8.65-17.62C494.07,295.24,495.25,292.3,495.25,289.2 M447.63,300.42h-12.17c0.06-1.66,0.16-2.46,0.7-3.69
				c0.85-2.03,2.83-3.42,5.39-3.42c2.56,0,4.48,1.39,5.34,3.42C447.42,297.96,447.58,298.76,447.63,300.42 M453.02,304.2v-2.4
				c0-7.69-4.22-13.02-11.48-13.02c-6.94,0-11.47,5.06-11.47,13.82c0,10.3,5.38,13.87,12.17,13.87c4.75,0,7.37-1.44,10.14-4.21
				l-3.47-3.26c-1.92,1.92-3.52,2.78-6.56,2.78c-4.43,0-6.89-2.94-6.89-7.59H453.02z M424.31,307.89c0-4.8-2.99-7.21-8.06-7.64
				l-4.27-0.37c-2.88-0.27-3.74-1.49-3.74-3.1c0-2.03,1.65-3.47,4.91-3.47c2.56,0,4.96,0.53,6.67,1.98l3.42-3.47
				c-2.51-2.19-5.98-3.03-10.04-3.03c-5.66,0-10.19,2.98-10.19,8.27c0,4.75,2.93,7.05,8.01,7.48l4.32,0.37
				c2.62,0.21,3.63,1.39,3.63,3.2c0,2.57-2.61,3.74-5.92,3.74c-2.67,0-5.61-0.59-7.79-2.83l-3.58,3.58
				c3.2,3.14,6.94,3.89,11.37,3.89C419.5,316.48,424.31,313.55,424.31,307.89 M397.46,307.89c0-4.8-2.99-7.21-8.06-7.64l-4.27-0.37
				c-2.88-0.27-3.74-1.49-3.74-3.1c0-2.03,1.66-3.47,4.91-3.47c2.56,0,4.97,0.53,6.68,1.98l3.42-3.47
				c-2.51-2.19-5.98-3.03-10.04-3.03c-5.66,0-10.2,2.98-10.2,8.27c0,4.75,2.94,7.05,8.01,7.48l4.33,0.37
				c2.61,0.21,3.63,1.39,3.63,3.2c0,2.57-2.62,3.74-5.93,3.74c-2.67,0-5.6-0.59-7.79-2.83l-3.57,3.58c3.2,3.14,6.94,3.89,11.37,3.89
				C392.65,316.48,397.46,313.55,397.46,307.89 M363.08,306.39c0,1.92-0.37,3.2-1.17,4.01c-1.44,1.39-2.99,1.55-5.07,1.55
				c-3.42,0-4.97-1.39-4.97-3.85c0-2.46,1.66-3.9,4.86-3.9h6.36V306.39z M368.52,316.16v-18.09c0-6.14-3.73-9.28-11.15-9.28
				c-4.48,0-7.15,0.9-9.71,3.89l3.57,3.37c1.49-1.92,2.94-2.62,5.93-2.62c4.22,0,5.93,1.66,5.93,5.07v1.93h-7.15
				c-6.19,0-9.34,3.25-9.34,7.79c0,2.3,0.75,4.38,2.14,5.82c1.65,1.65,3.89,2.45,7.25,2.45c3.37,0,5.24-0.8,7.21-2.77v2.45H368.52z
				 M342.1,316.16v-4.64h-2.4c-2.19,0-2.93-1.07-2.93-3.15v-30.21h-5.44v30.53c0,4,2.24,7.47,7.41,7.47H342.1z M326.08,316.16
				l-13.62-23.11l12.33-14.89h-7.05l-15.54,19.11v-19.11h-5.75v38h5.75v-11.05l6.41-7.69l10.68,18.73H326.08z"/>
		</g>
		<g style="clip-path:url(#SVGID_00000125587821474711016280000007344275666369549486_);">
			<path class="st3" d="M727.67,188.55c0,3.69-2.08,6.2-5.56,6.2c-3.47,0-5.5-2.51-5.5-6.2v-16.55c0-3.69,2.03-6.19,5.5-6.19
				c3.47,0,5.56,2.51,5.56,6.19V188.55z M733.11,188.72v-16.87c0-6.78-4.96-10.88-11-10.88c-6.03,0-10.94,4.11-10.94,10.88v16.87
				c0,6.78,4.91,10.88,10.94,10.88C728.15,199.6,733.11,195.5,733.11,188.72 M697.88,199.28v-38h-5.44l-7.42,6.41v6.03l7.42-6.51
				v32.07H697.88z M663.07,195.76l-3.69-3.63c-1.65,1.66-2.78,2.62-5.23,2.62c-4.38,0-6.62-3.05-6.62-9.02
				c0-5.88,2.24-8.97,6.62-8.97c2.4,0,3.63,0.96,5.23,2.56l3.69-3.57c-1.71-1.71-2.56-2.29-4.01-2.93c-1.39-0.58-2.99-0.9-4.85-0.9
				c-7.58,0-12.11,5.17-12.11,13.72c0,8.81,4.48,13.98,12.11,13.98c1.87,0,3.42-0.26,4.85-0.9
				C660.51,198.06,661.37,197.47,663.07,195.76 M629.19,189.52c0,3.95-1.71,5.56-5.93,5.56c-3.68,0-5.34-1.23-5.34-3.85
				c0-2.56,1.66-3.84,4.86-3.84h6.41V189.52z M634.57,199.28v-18.09c0-6.14-3.79-9.28-11.32-9.28c-2.56,0-4.48,0.32-6.03,1.06
				c-1.34,0.59-2.03,1.23-3.52,2.83l3.57,3.37c0.8-1.02,1.39-1.55,2.19-1.92c0.96-0.48,2.08-0.7,3.63-0.7
				c4.27,0,6.09,1.49,6.09,5.02v1.98h-7.27c-5.77,0-9.28,2.93-9.28,7.84c0,5.23,3.35,8.16,9.39,8.16c3.2,0,4.97-0.48,7.21-2.72v2.45
				H634.57z M605.42,199.28v-27.06h-18.51v11.26c0,10.47-2.78,11-5.12,11h-0.85v4.8h2.56c5.28,0,8.64-2.98,8.64-14.46v-7.85h7.86
				v22.31H605.42z M557.17,199.28v-19.85l15.32,19.85h7.32l-15.96-20.07l14.63-17.94h-7.1l-14.2,18.04v-18.04h-5.76v38H557.17z
				 M532.56,157.33h-5.23l-15.21,45.9h5.23L532.56,157.33z M489.54,188.55c0,3.69-2.08,6.2-5.56,6.2c-3.47,0-5.5-2.51-5.5-6.2
				v-16.55c0-3.69,2.03-6.19,5.5-6.19c3.47,0,5.56,2.51,5.56,6.19V188.55z M494.98,188.72v-16.87c0-6.78-4.96-10.88-11-10.88
				c-6.03,0-10.93,4.11-10.93,10.88v16.87c0,6.78,4.9,10.88,10.93,10.88C490.02,199.6,494.98,195.5,494.98,188.72 M459.75,199.28
				v-38h-5.44l-7.42,6.41v6.03l7.42-6.51v32.07H459.75z M418.64,183.54h-12.17c0.06-1.66,0.16-2.46,0.7-3.69
				c0.85-2.03,2.83-3.42,5.39-3.42c2.56,0,4.48,1.39,5.34,3.42C418.43,181.08,418.59,181.88,418.64,183.54 M424.04,187.32v-2.4
				c0-7.69-4.22-13.02-11.48-13.02c-6.94,0-11.47,5.06-11.47,13.82c0,10.3,5.38,13.87,12.17,13.87c4.75,0,7.37-1.44,10.14-4.21
				l-3.47-3.26c-1.92,1.92-3.52,2.78-6.56,2.78c-4.43,0-6.89-2.94-6.89-7.59H424.04z M395.32,191.01c0-4.8-2.99-7.21-8.06-7.64
				l-4.27-0.37c-2.88-0.27-3.74-1.49-3.74-3.1c0-2.03,1.65-3.47,4.91-3.47c2.56,0,4.96,0.53,6.67,1.98l3.42-3.47
				c-2.51-2.19-5.98-3.03-10.04-3.03c-5.66,0-10.19,2.98-10.19,8.27c0,4.75,2.93,7.05,8.01,7.48l4.32,0.37
				c2.62,0.21,3.63,1.39,3.63,3.2c0,2.57-2.61,3.74-5.92,3.74c-2.67,0-5.61-0.59-7.79-2.83l-3.58,3.58
				c3.2,3.14,6.94,3.89,11.37,3.89C390.52,199.6,395.32,196.67,395.32,191.01 M368.47,191.01c0-4.8-2.99-7.21-8.06-7.64l-4.27-0.37
				c-2.88-0.27-3.74-1.49-3.74-3.1c0-2.03,1.66-3.47,4.91-3.47c2.56,0,4.97,0.53,6.68,1.98l3.42-3.47
				c-2.51-2.19-5.98-3.03-10.04-3.03c-5.66,0-10.2,2.98-10.2,8.27c0,4.75,2.94,7.05,8.01,7.48l4.33,0.37
				c2.61,0.21,3.63,1.39,3.63,3.2c0,2.57-2.62,3.74-5.93,3.74c-2.67,0-5.6-0.59-7.79-2.83l-3.57,3.58c3.2,3.14,6.94,3.89,11.37,3.89
				C363.67,199.6,368.47,196.67,368.47,191.01 M334.09,189.52c0,1.92-0.37,3.2-1.17,4.01c-1.44,1.39-2.99,1.55-5.07,1.55
				c-3.42,0-4.97-1.39-4.97-3.85c0-2.46,1.66-3.9,4.86-3.9h6.36V189.52z M339.53,199.28v-18.09c0-6.14-3.73-9.28-11.15-9.28
				c-4.48,0-7.15,0.9-9.71,3.89l3.57,3.37c1.49-1.92,2.94-2.62,5.93-2.62c4.22,0,5.93,1.66,5.93,5.07v1.93h-7.15
				c-6.19,0-9.34,3.25-9.34,7.79c0,2.3,0.75,4.38,2.14,5.82c1.65,1.65,3.89,2.45,7.25,2.45c3.37,0,5.24-0.8,7.21-2.77v2.45H339.53z
				 M313.11,199.28v-4.64h-2.4c-2.19,0-2.93-1.07-2.93-3.15v-30.21h-5.44v30.53c0,4,2.24,7.47,7.41,7.47H313.11z M297.1,199.28
				l-13.62-23.11l12.33-14.89h-7.05l-15.54,19.11v-19.11h-5.75v38h5.75v-11.05l6.41-7.69l10.68,18.73H297.1z"/>
		</g>
		<g style="clip-path:url(#SVGID_00000125587821474711016280000007344275666369549486_);">
			<path class="st3" d="M704.5,770.97c0-3.58-0.43-7.27-3.3-10.14c-1.55-1.55-3.84-2.46-6.83-2.46c-2.78,0-5.02,0.85-6.3,2.19
				v-10.04h15.59v-4.85h-20.49v20.76h4.96c0.58-1.87,2.3-3.42,5.39-3.42c4.38,0,5.55,3.42,5.55,7.96c0,2.56-0.21,5.07-1.81,6.68
				c-0.96,0.96-2.35,1.49-3.95,1.49c-3.42,0-5.13-1.92-5.56-5.29h-5.44c0.21,2.72,0.85,5.23,2.88,7.26
				c1.65,1.65,4.48,2.93,8.11,2.93c3.69,0,6.3-1.28,8.01-2.98C704.07,778.28,704.5,775.02,704.5,770.97 M663.07,780.15l-3.68-3.63
				c-1.66,1.66-2.78,2.62-5.23,2.62c-4.38,0-6.62-3.05-6.62-9.02c0-5.88,2.24-8.97,6.62-8.97c2.4,0,3.63,0.96,5.23,2.56l3.68-3.57
				c-1.71-1.71-2.56-2.29-4-2.93c-1.39-0.58-2.99-0.9-4.86-0.9c-7.57,0-12.11,5.17-12.11,13.72c0,8.81,4.48,13.98,12.11,13.98
				c1.87,0,3.42-0.26,4.86-0.9C660.51,782.44,661.36,781.86,663.07,780.15 M629.18,773.9c0,3.95-1.71,5.56-5.93,5.56
				c-3.69,0-5.34-1.23-5.34-3.85c0-2.56,1.65-3.84,4.86-3.84h6.41V773.9z M634.57,783.67v-18.09c0-6.14-3.79-9.28-11.32-9.28
				c-2.56,0-4.48,0.32-6.03,1.06c-1.33,0.59-2.02,1.23-3.52,2.83l3.57,3.37c0.8-1.02,1.39-1.55,2.19-1.92
				c0.96-0.48,2.08-0.7,3.64-0.7c4.27,0,6.09,1.49,6.09,5.02v1.98h-7.27c-5.77,0-9.28,2.93-9.28,7.84c0,5.23,3.36,8.16,9.39,8.16
				c3.21,0,4.97-0.48,7.21-2.72v2.45H634.57z M605.43,783.67v-27.06H586.9v11.26c0,10.47-2.78,11-5.12,11h-0.85v4.8h2.56
				c5.28,0,8.64-2.98,8.64-14.46v-7.85h7.86v22.31H605.43z M557.17,783.67v-19.85l15.32,19.85h7.32l-15.96-20.07l14.63-17.94h-7.1
				l-14.2,18.04v-18.04h-5.76v38H557.17z M532.56,741.71h-5.23l-15.22,45.9h5.23L532.56,741.71z M495.35,770.97
				c0-3.58-0.43-7.27-3.3-10.14c-1.55-1.55-3.84-2.46-6.83-2.46c-2.78,0-5.02,0.85-6.3,2.19v-10.04h15.59v-4.85h-20.49v20.76h4.96
				c0.59-1.87,2.3-3.42,5.4-3.42c4.38,0,5.55,3.42,5.55,7.96c0,2.56-0.21,5.07-1.81,6.68c-0.96,0.96-2.35,1.49-3.95,1.49
				c-3.42,0-5.13-1.92-5.56-5.29h-5.44c0.21,2.72,0.85,5.23,2.88,7.26c1.65,1.65,4.48,2.93,8.11,2.93c3.68,0,6.3-1.28,8.01-2.98
				C494.93,778.28,495.35,775.02,495.35,770.97 M447.63,767.93h-12.17c0.06-1.66,0.16-2.46,0.7-3.69c0.85-2.03,2.83-3.42,5.39-3.42
				c2.56,0,4.48,1.39,5.34,3.42C447.42,765.47,447.58,766.27,447.63,767.93 M453.02,771.71v-2.4c0-7.69-4.22-13.02-11.48-13.02
				c-6.94,0-11.47,5.06-11.47,13.82c0,10.31,5.38,13.88,12.17,13.88c4.75,0,7.37-1.44,10.14-4.21l-3.47-3.26
				c-1.92,1.92-3.52,2.78-6.56,2.78c-4.43,0-6.89-2.94-6.89-7.59H453.02z M424.31,775.39c0-4.8-2.99-7.21-8.06-7.64l-4.27-0.37
				c-2.88-0.27-3.74-1.49-3.74-3.1c0-2.03,1.65-3.47,4.91-3.47c2.56,0,4.96,0.53,6.67,1.98l3.42-3.47
				c-2.51-2.19-5.98-3.03-10.04-3.03c-5.66,0-10.19,2.98-10.19,8.27c0,4.75,2.93,7.05,8.01,7.48l4.32,0.37
				c2.62,0.21,3.63,1.39,3.63,3.2c0,2.57-2.61,3.74-5.92,3.74c-2.67,0-5.61-0.59-7.79-2.83l-3.58,3.57
				c3.2,3.15,6.94,3.89,11.37,3.89C419.5,783.99,424.31,781.05,424.31,775.39 M397.46,775.39c0-4.8-2.99-7.21-8.06-7.64l-4.27-0.37
				c-2.88-0.27-3.74-1.49-3.74-3.1c0-2.03,1.66-3.47,4.91-3.47c2.56,0,4.97,0.53,6.68,1.98l3.42-3.47
				c-2.51-2.19-5.98-3.03-10.04-3.03c-5.66,0-10.2,2.98-10.2,8.27c0,4.75,2.94,7.05,8.01,7.48l4.33,0.37
				c2.61,0.21,3.63,1.39,3.63,3.2c0,2.57-2.62,3.74-5.93,3.74c-2.67,0-5.6-0.59-7.79-2.83l-3.57,3.57c3.2,3.15,6.94,3.89,11.37,3.89
				C392.65,783.99,397.46,781.05,397.46,775.39 M363.08,773.9c0,1.92-0.37,3.2-1.17,4.01c-1.44,1.39-2.99,1.55-5.07,1.55
				c-3.42,0-4.97-1.39-4.97-3.85c0-2.46,1.66-3.9,4.86-3.9h6.36V773.9z M368.52,783.67v-18.09c0-6.14-3.73-9.28-11.15-9.28
				c-4.48,0-7.15,0.9-9.71,3.89l3.57,3.37c1.49-1.92,2.94-2.62,5.93-2.62c4.22,0,5.93,1.66,5.93,5.07v1.93h-7.15
				c-6.19,0-9.34,3.25-9.34,7.79c0,2.3,0.75,4.38,2.14,5.82c1.65,1.65,3.89,2.45,7.25,2.45c3.37,0,5.24-0.8,7.21-2.77v2.45H368.52z
				 M342.1,783.67v-4.64h-2.4c-2.19,0-2.93-1.07-2.93-3.15v-30.21h-5.44v30.53c0,4,2.24,7.47,7.41,7.47H342.1z M326.08,783.67
				l-13.62-23.11l12.33-14.89h-7.05l-15.54,19.11v-19.11h-5.75v38h5.75v-11.05l6.41-7.69l10.68,18.73H326.08z"/>
		</g>
	</g>
	<g>
		<polygon class="st4" points="20.73,755.85 36.8,755.85 28.77,745.23 		"/>
	</g>
	<g>
		<polygon class="st4" points="20.73,776.99 36.8,776.99 28.77,766.36 		"/>
	</g>
	<g>
		<polygon class="st4" points="20.73,798.12 36.8,798.12 28.77,787.5 		"/>
	</g>
	<g>
		<polygon class="st4" points="20.73,734.72 36.8,734.72 28.77,724.09 		"/>
	</g>
	<g>
		<polygon class="st4" points="20.73,640.38 36.8,640.38 28.77,629.75 		"/>
	</g>
	<g>
		<polygon class="st4" points="20.73,661.51 36.8,661.51 28.77,650.89 		"/>
	</g>
	<g>
		<polygon class="st4" points="20.73,682.65 36.8,682.65 28.77,672.02 		"/>
	</g>
	<g>
		<polygon class="st4" points="20.73,619.24 36.8,619.24 28.77,608.62 		"/>
	</g>
	<g>
		<polygon class="st4" points="20.73,520.69 36.8,520.69 28.77,510.07 		"/>
	</g>
	<g>
		<polygon class="st4" points="20.73,541.83 36.8,541.83 28.77,531.2 		"/>
	</g>
	<g>
		<polygon class="st4" points="20.73,562.96 36.8,562.96 28.77,552.34 		"/>
	</g>
	<g>
		<polygon class="st4" points="20.73,499.56 36.8,499.56 28.77,488.93 		"/>
	</g>
	<g>
		<polygon class="st4" points="20.73,402.41 36.8,402.41 28.77,391.78 		"/>
	</g>
	<g>
		<polygon class="st4" points="20.73,423.54 36.8,423.54 28.77,412.92 		"/>
	</g>
	<g>
		<polygon class="st4" points="20.73,444.68 36.8,444.68 28.77,434.05 		"/>
	</g>
	<g>
		<polygon class="st4" points="20.73,381.27 36.8,381.27 28.77,370.65 		"/>
	</g>
	<g>
		<polygon class="st4" points="20.73,286.94 36.8,286.94 28.77,276.31 		"/>
	</g>
	<g>
		<polygon class="st4" points="20.73,308.07 36.8,308.07 28.77,297.45 		"/>
	</g>
	<g>
		<polygon class="st4" points="20.73,329.21 36.8,329.21 28.77,318.58 		"/>
	</g>
	<g>
		<polygon class="st4" points="20.73,265.8 36.8,265.8 28.77,255.18 		"/>
	</g>
	<g>
		<polygon class="st4" points="20.73,170.06 36.8,170.06 28.77,159.44 		"/>
	</g>
	<g>
		<polygon class="st4" points="20.73,191.2 36.8,191.2 28.77,180.57 		"/>
	</g>
	<g>
		<polygon class="st4" points="20.73,212.33 36.8,212.33 28.77,201.71 		"/>
	</g>
	<g>
		<polygon class="st4" points="20.73,148.93 36.8,148.93 28.77,138.3 		"/>
	</g>
</g>
</svg>
