<?xml version="1.0" encoding="utf-8"?>
<!-- Generator: Adobe Illustrator 26.2.1, SVG Export Plug-In . SVG Version: 6.00 Build 0)  -->
<svg version="1.1" id="Ebene_1" xmlns="http://www.w3.org/2000/svg" xmlns:xlink="http://www.w3.org/1999/xlink" x="0px" y="0px"
	 viewBox="0 0 954.01 1000" style="enable-background:new 0 0 954.01 1000;" xml:space="preserve">
<style type="text/css">
	.st0{fill:#A2B9E1;}
	.st1{fill:#6796CF;}
	.st2{clip-path:url(#SVGID_00000155117479923447287740000013778687196085235333_);}
	.st3{fill:#2B2961;}
	.st4{fill:#FFFFFF;}
	.st5{clip-path:url(#SVGID_00000029749005294134319830000017226050243528501159_);}
	.st6{clip-path:url(#SVGID_00000109023918729187694870000015825554757154085267_);}
	.st7{clip-path:url(#SVGID_00000033345397710912991590000006530491685022747307_);}
	.st8{clip-path:url(#SVGID_00000142164480182030304530000014080835023369474440_);}
	.st9{clip-path:url(#SVGID_00000106140125881985595100000008933699102221369535_);}
	.st10{opacity:0.52;clip-path:url(#SVGID_00000167376225845328707590000013128932467554953869_);}
	.st11{clip-path:url(#SVGID_00000088102527244606510430000012437194547382987671_);}
	.st12{clip-path:url(#SVGID_00000060732817065999276260000010499515100091803024_);}
	.st13{clip-path:url(#SVGID_00000109733328412015869410000016016933365659484299_);}
	.st14{clip-path:url(#SVGID_00000056416101825167141310000002238125571587220361_);}
	.st15{clip-path:url(#SVGID_00000134243587575819426200000007061144613419771822_);}
	.st16{clip-path:url(#SVGID_00000137852030912133177030000012322468707736913298_);}
	.st17{clip-path:url(#SVGID_00000171700352743943405570000000980397530146877066_);}
	.st18{clip-path:url(#SVGID_00000140709713731410055550000008757866435333431976_);}
	.st19{clip-path:url(#SVGID_00000174564457634054190030000013259324379051537074_);}
	.st20{clip-path:url(#SVGID_00000016785889267932504260000003529795533436396161_);}
	.st21{clip-path:url(#SVGID_00000070828232717392623390000001655238126689449630_);}
	.st22{clip-path:url(#SVGID_00000172435711361819906620000010617580270703885190_);}
	.st23{fill:none;stroke:#2B2961;stroke-width:0.374;stroke-linejoin:round;stroke-miterlimit:10;}
	.st24{fill:none;stroke:#2B2961;stroke-width:0.4;stroke-miterlimit:10;}
	.st25{clip-path:url(#SVGID_00000016035744992327494170000007901360761811363466_);}
	.st26{clip-path:url(#SVGID_00000062190591727699891760000011081270758323872684_);}
	.st27{clip-path:url(#SVGID_00000015356377305584146400000012326869257975204236_);}
	.st28{clip-path:url(#SVGID_00000016781723720260253520000012496324652305280190_);}
	.st29{clip-path:url(#SVGID_00000016753581214239241640000003347033930900296380_);}
	.st30{clip-path:url(#SVGID_00000059284205698062127860000004587014480744042917_);}
	.st31{clip-path:url(#SVGID_00000134964469466261367720000014668671136136778380_);}
	.st32{clip-path:url(#SVGID_00000078753971612238074220000016970193123075158168_);}
	.st33{clip-path:url(#SVGID_00000032607048659716621410000018145367337096929718_);}
	.st34{clip-path:url(#SVGID_00000133521007240444862820000003592019703699828640_);}
	.st35{clip-path:url(#SVGID_00000044142202797855250030000002979939699900290736_);}
	.st36{clip-path:url(#SVGID_00000088119856541343436740000017071993903868839554_);}
	.st37{clip-path:url(#SVGID_00000016786482141369626500000003679416080382399142_);}
	.st38{clip-path:url(#SVGID_00000117639231804297140930000015010532636963493761_);}
	.st39{clip-path:url(#SVGID_00000148646600441051757290000010811269694953670541_);}
	.st40{clip-path:url(#SVGID_00000178901131354878606950000000883512877341481902_);}
	.st41{clip-path:url(#SVGID_00000050641239732268001560000016148346574530967211_);}
	.st42{clip-path:url(#SVGID_00000060013126475790591620000006953453818877263770_);}
	.st43{clip-path:url(#SVGID_00000096055343198921031670000012545256782830458260_);}
	.st44{clip-path:url(#SVGID_00000113329988135864813220000016085550287597620356_);}
	.st45{clip-path:url(#SVGID_00000106847207821557706860000015767686964527427717_);}
	.st46{clip-path:url(#SVGID_00000003068129821306371950000007749424072726869134_);}
	.st47{clip-path:url(#SVGID_00000052824401762175616540000010974744096047411334_);}
	.st48{clip-path:url(#SVGID_00000170996430933638413340000000759316139314096279_);}
	.st49{clip-path:url(#SVGID_00000103977083023799247010000016026491465054600345_);}
	.st50{clip-path:url(#SVGID_00000143609180324607894880000013780060983561255602_);}
	.st51{clip-path:url(#SVGID_00000044159569331990579680000015244765284393874878_);}
	.st52{clip-path:url(#SVGID_00000043436067740827079490000002646520102705203624_);}
	.st53{clip-path:url(#SVGID_00000048468404308467335580000000506700433098364351_);}
	.st54{clip-path:url(#SVGID_00000102540628161782551840000010273456540601583232_);}
	.st55{clip-path:url(#SVGID_00000021839743728789236170000017865976442689090472_);}
	.st56{clip-path:url(#SVGID_00000042006702837398338030000006350583541264598959_);}
	.st57{clip-path:url(#SVGID_00000013884098586530251350000008785772448199189155_);}
	.st58{clip-path:url(#SVGID_00000070091574996216452510000002668222575742712974_);}
	.st59{clip-path:url(#SVGID_00000095314632071622709760000003434931743634752665_);}
	.st60{clip-path:url(#SVGID_00000095337415024732929640000001866969181501540245_);}
	.st61{clip-path:url(#SVGID_00000116232967866719305930000003083377220215165571_);}
	.st62{fill:#9AB4DE;}
	.st63{clip-path:url(#SVGID_00000142896601602681931970000015400243537057393031_);}
	.st64{clip-path:url(#SVGID_00000093163516114204638260000002746642124849870005_);}
	.st65{clip-path:url(#SVGID_00000141433462837430175500000008630152944882400694_);}
	.st66{fill:#B9C9E9;}
	.st67{clip-path:url(#SVGID_00000135676192152319771660000004210574107992793993_);}
	.st68{clip-path:url(#SVGID_00000047017799045807862510000003059358415759562660_);}
	.st69{clip-path:url(#SVGID_00000123434328906603778290000004887104599126091137_);}
	.st70{clip-path:url(#SVGID_00000161624399023418049290000015268996603842856375_);}
	.st71{clip-path:url(#SVGID_00000168827487499963261840000001715417163777253297_);}
	.st72{clip-path:url(#SVGID_00000090291798318927255940000008296112052775360914_);}
	.st73{clip-path:url(#SVGID_00000157283149298120609410000001557777501493604267_);}
	.st74{clip-path:url(#SVGID_00000014601567519480595500000010458225853369896599_);}
	.st75{clip-path:url(#SVGID_00000080926366673152307100000013897726581918422939_);}
	.st76{clip-path:url(#SVGID_00000005957904721782781410000015981912110149743281_);}
	.st77{clip-path:url(#SVGID_00000040542909460741055470000007288015748592524438_);}
	.st78{clip-path:url(#SVGID_00000106834020066600677420000016800666758469989780_);}
	.st79{clip-path:url(#SVGID_00000076566833591049100210000009833807379148250813_);}
	.st80{clip-path:url(#SVGID_00000029746977015963151520000005860014606929280689_);}
	.st81{clip-path:url(#SVGID_00000172437162005941095410000002525860775816381615_);}
	.st82{clip-path:url(#SVGID_00000001632335513815359910000018396783664981700518_);}
	.st83{clip-path:url(#SVGID_00000112612402476274279100000017454498746364546222_);}
	.st84{clip-path:url(#SVGID_00000006680676119961919500000007189832502994038430_);}
	.st85{clip-path:url(#SVGID_00000129172610218209083870000007255000077764297600_);}
	.st86{clip-path:url(#SVGID_00000121243279319388370080000004515115498174263478_);}
	.st87{clip-path:url(#SVGID_00000020389318777843509910000011622001208963993501_);}
	.st88{clip-path:url(#SVGID_00000034775202765647183380000009451352456417936531_);}
	.st89{clip-path:url(#SVGID_00000003087962774501678120000015269020591614900115_);}
	.st90{clip-path:url(#SVGID_00000107561146179412765320000015379582511770151307_);}
	.st91{clip-path:url(#SVGID_00000013186104270897577960000000277024100849273733_);}
	.st92{clip-path:url(#SVGID_00000065055630168152953500000000606296706075765645_);}
	.st93{clip-path:url(#SVGID_00000154401798780521275100000015047089573456179095_);}
	.st94{clip-path:url(#SVGID_00000041260242621579403180000012643773196750347402_);}
	.st95{clip-path:url(#SVGID_00000066495229167065801750000015559630230645867686_);}
	.st96{clip-path:url(#SVGID_00000156558318750246629940000013912202386594886291_);}
	.st97{clip-path:url(#SVGID_00000137121631912742037760000002760583880910490500_);}
	.st98{clip-path:url(#SVGID_00000044893016049562463390000009439136717432997770_);}
	.st99{clip-path:url(#SVGID_00000005265557845136960830000012829450888872918698_);}
	.st100{clip-path:url(#SVGID_00000091717690237724990780000007965439492666327453_);}
	.st101{clip-path:url(#SVGID_00000067920484407746994650000006512333442703454372_);}
	.st102{clip-path:url(#SVGID_00000141425273092575042760000000328622200459882902_);}
	.st103{clip-path:url(#SVGID_00000178206714155778403910000017066395871895273892_);}
	.st104{clip-path:url(#SVGID_00000095334295381168084810000002243687067100933034_);}
	.st105{clip-path:url(#SVGID_00000114772934714423845800000006999121068024702888_);}
	.st106{clip-path:url(#SVGID_00000157266483152183535760000001996916317183936642_);}
	.st107{clip-path:url(#SVGID_00000010994531181081192380000014376906335102454656_);}
	.st108{clip-path:url(#SVGID_00000144317424995267372570000010878131819561024407_);}
	.st109{clip-path:url(#SVGID_00000084519545699342563390000000756242056594407305_);}
	.st110{clip-path:url(#SVGID_00000025430681969038562690000009227514781985614242_);}
	.st111{clip-path:url(#SVGID_00000043439093432707887820000006791428916709895846_);}
	.st112{clip-path:url(#SVGID_00000168795232859423059920000016795638107783540670_);}
	.st113{clip-path:url(#SVGID_00000164509491352555539220000011809717907342571936_);}
	.st114{clip-path:url(#SVGID_00000091735365345611007560000006335093069772944793_);}
	.st115{clip-path:url(#SVGID_00000147928883812499642350000002433032094374431148_);}
	.st116{clip-path:url(#SVGID_00000161626711338956335930000005988465514878182839_);}
	.st117{clip-path:url(#SVGID_00000057145678714084933950000013749691821664063874_);}
	.st118{clip-path:url(#SVGID_00000147916198911526622450000014703160778064675241_);}
	.st119{clip-path:url(#SVGID_00000159427669680956038190000003307823496625949846_);}
	.st120{clip-path:url(#SVGID_00000097468437095719016930000002301322538823893139_);}
	.st121{clip-path:url(#SVGID_00000016797859783775699360000016034275981335186608_);}
	.st122{clip-path:url(#SVGID_00000085970342239176651670000006840416422161278119_);}
	.st123{clip-path:url(#SVGID_00000008142706229357576360000018404532598827072649_);}
	.st124{clip-path:url(#SVGID_00000023272707316733866250000002481586928087359895_);}
	.st125{clip-path:url(#SVGID_00000183942549249758072280000000274789900779984028_);}
	.st126{clip-path:url(#SVGID_00000121997669571937309910000008019195833134340998_);}
	.st127{clip-path:url(#SVGID_00000160158023850064337700000004374223468567495330_);}
	.st128{clip-path:url(#SVGID_00000029725621276663377120000017310192054439003836_);}
	.st129{clip-path:url(#SVGID_00000027590012897943535730000013462049746868231077_);}
	.st130{clip-path:url(#SVGID_00000142137855438205759020000005880900356597783217_);}
	.st131{clip-path:url(#SVGID_00000124859934526347125470000000105272565450196868_);}
	.st132{clip-path:url(#SVGID_00000115483840817948229230000000696005635611936675_);}
	.st133{clip-path:url(#SVGID_00000160869963208697585140000010234267755130431926_);}
	.st134{clip-path:url(#SVGID_00000098937947589775668880000004569202517326306739_);}
	.st135{clip-path:url(#SVGID_00000157281124782074406520000014409461355693981610_);}
	.st136{clip-path:url(#SVGID_00000103262629473518823860000001905495872796137628_);}
	.st137{clip-path:url(#SVGID_00000070108462999778527740000000142911261032516524_);}
	.st138{clip-path:url(#SVGID_00000156574264190457357380000010475306457561684113_);}
	.st139{clip-path:url(#SVGID_00000094597623517011948960000001618914961599511980_);}
	.st140{clip-path:url(#SVGID_00000047748217939587690490000008931305784689008269_);}
	.st141{clip-path:url(#SVGID_00000062175101489210889620000010056003742481854349_);}
	.st142{clip-path:url(#SVGID_00000161627901784928186280000013827188405659347375_);}
	.st143{clip-path:url(#SVGID_00000147180965592548410960000008470724627666484628_);}
	.st144{clip-path:url(#SVGID_00000022521504399741231920000011494225046862642822_);}
	.st145{clip-path:url(#SVGID_00000055705002651577976830000007380995442275960478_);}
	.st146{clip-path:url(#SVGID_00000006708581113912447750000008738618650028008364_);}
	.st147{clip-path:url(#SVGID_00000026856944778252472740000010066771624617473182_);}
	.st148{clip-path:url(#SVGID_00000088830300766378253660000017947282673309546372_);}
	.st149{clip-path:url(#SVGID_00000054958949886916750440000002086228131103060875_);}
	.st150{clip-path:url(#SVGID_00000057145553777124950390000004420302581606454454_);}
	.st151{clip-path:url(#SVGID_00000098200638516722693280000001582618488755859875_);}
	.st152{clip-path:url(#SVGID_00000152962355757188792190000017047445814650642869_);}
	.st153{clip-path:url(#SVGID_00000110453286675793533760000012679984986703415472_);}
	.st154{clip-path:url(#SVGID_00000017481040702682096560000017537334109582169240_);}
	.st155{clip-path:url(#SVGID_00000116229955073863907810000004698213452652001965_);}
	.st156{clip-path:url(#SVGID_00000067236937487057986410000002946685218011863940_);}
	.st157{clip-path:url(#SVGID_00000163771300599715780800000008230241994917283989_);}
	.st158{clip-path:url(#SVGID_00000037657765166687660240000011209545519256052105_);}
	.st159{clip-path:url(#SVGID_00000080924639521758851640000001127042769738998404_);}
	.st160{clip-path:url(#SVGID_00000165935457287315175090000001746469128545120447_);}
	.st161{clip-path:url(#SVGID_00000114066490792794150590000000245282215806343070_);}
	.st162{clip-path:url(#SVGID_00000096057802301119798250000010225531316434171288_);}
	.st163{clip-path:url(#SVGID_00000175310038779029801790000008046823899312729996_);}
	.st164{clip-path:url(#SVGID_00000155129015080204681680000001205923174285546923_);}
	.st165{clip-path:url(#SVGID_00000089540484546606598890000000141649770597837450_);}
	.st166{clip-path:url(#SVGID_00000150090755558784018470000000471725108293457572_);}
	.st167{clip-path:url(#SVGID_00000125593274312307159560000004843674551946594721_);}
	.st168{clip-path:url(#SVGID_00000010308000630861722450000011673425888038240663_);}
	.st169{clip-path:url(#SVGID_00000053528735716076775850000004359607914580669881_);}
	.st170{clip-path:url(#SVGID_00000183239943084380958230000015728396578752659590_);}
	.st171{clip-path:url(#SVGID_00000067922167268379035220000010988432968099431352_);}
	.st172{clip-path:url(#SVGID_00000167378191921548764680000002154566418437791394_);}
	.st173{clip-path:url(#SVGID_00000018918894036536778220000006034443373382705308_);}
	.st174{clip-path:url(#SVGID_00000054970617709494213690000002646363331855206802_);}
	.st175{clip-path:url(#SVGID_00000132057698168731494910000010049319104867223475_);}
	.st176{clip-path:url(#SVGID_00000106112656640562306360000009446420725825737380_);}
	.st177{clip-path:url(#SVGID_00000090289016059925480980000016790584935008496057_);}
	.st178{clip-path:url(#SVGID_00000088128185406930414880000012937850932629663423_);}
	.st179{clip-path:url(#SVGID_00000030458894255313053760000015723075498027208360_);}
	.st180{clip-path:url(#SVGID_00000105427475727161529660000004866613576375038107_);}
	.st181{clip-path:url(#SVGID_00000108269491539963580490000011969225144958536862_);}
	.st182{clip-path:url(#SVGID_00000121261857458655332620000016904925746929580473_);}
	.st183{clip-path:url(#SVGID_00000048476128272570676510000006150671093663668403_);}
	.st184{clip-path:url(#SVGID_00000079482248383534174580000004543400807789440919_);}
	.st185{clip-path:url(#SVGID_00000132074491492277200630000012371375741772361149_);}
	.st186{clip-path:url(#SVGID_00000128474073984506303370000007630902742220968351_);}
	.st187{clip-path:url(#SVGID_00000155852466768643228000000016472693896217844915_);}
	.st188{clip-path:url(#SVGID_00000023977147692890602150000010304443169165547666_);}
	.st189{clip-path:url(#SVGID_00000114033293689834523190000015088278141541484448_);}
	.st190{clip-path:url(#SVGID_00000096019301893069256850000009358567744453832115_);}
	.st191{clip-path:url(#SVGID_00000016768429410911327580000009640451248543419047_);}
	.st192{clip-path:url(#SVGID_00000160163111979432319560000004699499232527356591_);}
	.st193{clip-path:url(#SVGID_00000145747207195297097430000007061512913065499777_);}
	.st194{clip-path:url(#SVGID_00000109731362066503814560000006018388504846396336_);}
	.st195{clip-path:url(#SVGID_00000109010579054144095420000015074476082529058443_);}
	.st196{clip-path:url(#SVGID_00000115499824352167957040000004920423503053278106_);}
	.st197{clip-path:url(#SVGID_00000101791238749606340190000006770781666105543837_);}
	.st198{clip-path:url(#SVGID_00000027581814721402298970000013859377851545107647_);}
	.st199{clip-path:url(#SVGID_00000014607110175226087190000009680148878178541452_);}
	.st200{clip-path:url(#SVGID_00000064345430373024874980000011554087677076940709_);}
	.st201{clip-path:url(#SVGID_00000093174306725436004280000007930583429496915886_);}
	.st202{clip-path:url(#SVGID_00000148647932183700151040000013372312325962496662_);}
	.st203{clip-path:url(#SVGID_00000085949711811689491940000002669222347029675412_);}
	.st204{clip-path:url(#SVGID_00000148619561972610434400000010455083755633791880_);}
	.st205{clip-path:url(#SVGID_00000015329163454886351050000016031919614432021394_);}
	.st206{clip-path:url(#SVGID_00000181059864858898163990000005590716225686217094_);}
	.st207{clip-path:url(#SVGID_00000096022184358771239200000006911790095147355839_);}
	.st208{clip-path:url(#SVGID_00000164499053143117900640000001466798083752786332_);}
	.st209{clip-path:url(#SVGID_00000132077419094248250890000011069666001620182458_);}
	.st210{clip-path:url(#SVGID_00000171696959434105720200000013114712830861563824_);}
	.st211{clip-path:url(#SVGID_00000125596524215154510110000000062063305031154831_);}
	.st212{clip-path:url(#SVGID_00000020383814711935612090000008122665713035263659_);}
	.st213{clip-path:url(#SVGID_00000062158810528513033250000012136220580881697673_);}
	.st214{clip-path:url(#SVGID_00000077314349618360846930000008177591583716702887_);}
	.st215{clip-path:url(#SVGID_00000158718777986434765170000010544748786274597286_);}
	.st216{clip-path:url(#SVGID_00000040558170432446129250000000120393591193381034_);}
	.st217{clip-path:url(#SVGID_00000073720615913709291750000016013932424471470211_);}
	.st218{clip-path:url(#SVGID_00000097461066316049653720000012956111390430964868_);}
	.st219{clip-path:url(#SVGID_00000051368564557516264280000003559509922939522980_);}
	.st220{clip-path:url(#SVGID_00000040563595699298203890000015258054465554715268_);}
	.st221{clip-path:url(#SVGID_00000106111621012133749830000004151004244913960342_);}
	.st222{clip-path:url(#SVGID_00000115501377782577075080000001193809236715655600_);}
	.st223{clip-path:url(#SVGID_00000172407542048701742320000002006096755332437403_);}
	.st224{clip-path:url(#SVGID_00000173130531555050244070000014560132665040087947_);}
	.st225{clip-path:url(#SVGID_00000088834932605525844320000008428788832669319072_);}
	.st226{clip-path:url(#SVGID_00000015314638320200938350000005644121875261391003_);}
	.st227{clip-path:url(#SVGID_00000053530758492045946920000010752976490761981885_);}
	.st228{clip-path:url(#SVGID_00000153676964524771638580000000299072450256683652_);}
	.st229{clip-path:url(#SVGID_00000121989816642246770660000010665877897798819476_);}
	.st230{clip-path:url(#SVGID_00000179603862200778492830000015864490653338811315_);}
	.st231{clip-path:url(#SVGID_00000178189285347423007870000011372796380927608475_);}
	.st232{clip-path:url(#SVGID_00000070100878775802329150000011757870142502577835_);}
	.st233{clip-path:url(#SVGID_00000116954835450839491170000005627827005072027071_);}
	.st234{clip-path:url(#SVGID_00000080184346260141253710000002922696167026004406_);}
	.st235{clip-path:url(#SVGID_00000028313625863408268140000014702282157759204749_);}
	.st236{clip-path:url(#SVGID_00000058587866078320454170000004719495959109830055_);}
	.st237{clip-path:url(#SVGID_00000152970776143287864820000010187173645104031644_);}
	.st238{clip-path:url(#SVGID_00000011730060492343146040000005791714280400035733_);}
	.st239{clip-path:url(#SVGID_00000135648628697397507110000009345970592038342543_);}
	.st240{clip-path:url(#SVGID_00000094584956519913497270000002873935626689991575_);}
	.st241{clip-path:url(#SVGID_00000141434497261682947920000008275045386978181549_);}
	.st242{clip-path:url(#SVGID_00000079458181575332458990000009270578077237078197_);}
	.st243{clip-path:url(#SVGID_00000074429302078470271620000006515233475498711939_);}
	.st244{clip-path:url(#SVGID_00000122678116776512393780000014319301799958572700_);}
	.st245{clip-path:url(#SVGID_00000179603924305620572120000006795169110139446931_);}
	.st246{clip-path:url(#SVGID_00000124137675008579230590000005665899335348058512_);}
	.st247{clip-path:url(#SVGID_00000091731708150765859890000016002291050056577971_);}
	.st248{clip-path:url(#SVGID_00000060709310997557715870000012788950132299385783_);}
	.st249{clip-path:url(#SVGID_00000003809365154032511210000016975100825777226127_);}
	.st250{clip-path:url(#SVGID_00000010309520199930328650000012686273174881255859_);}
	.st251{clip-path:url(#SVGID_00000074418144276492155610000017524272985648165023_);}
	.st252{clip-path:url(#SVGID_00000115503440169589433780000017576124655034935438_);}
	.st253{clip-path:url(#SVGID_00000100362357081236505000000009115421733255026081_);}
	.st254{clip-path:url(#SVGID_00000130609159249457368070000005642190998682900353_);}
	.st255{clip-path:url(#SVGID_00000093153145475804461170000000803891209510404532_);}
	.st256{clip-path:url(#SVGID_00000008852442917207522060000014975066334962804914_);}
	.st257{clip-path:url(#SVGID_00000151505849977164359750000013189342003814381955_);}
	.st258{clip-path:url(#SVGID_00000168107846291837645100000013383039173954990465_);}
	.st259{clip-path:url(#SVGID_00000085224611742804934920000004603201951982300571_);}
	.st260{clip-path:url(#SVGID_00000055689647483002715080000000717865126139057324_);}
	.st261{clip-path:url(#SVGID_00000065075383828018734900000014005867414102786203_);}
	.st262{clip-path:url(#SVGID_00000103961733193940591980000017143145070328756375_);}
	.st263{clip-path:url(#SVGID_00000017515737069164487250000017713271167554800557_);}
	.st264{clip-path:url(#SVGID_00000152245367496829863540000003519486530499013785_);}
	.st265{clip-path:url(#SVGID_00000057850829463741967290000018374698679535111599_);}
	.st266{clip-path:url(#SVGID_00000150093912707561924920000004477239655867099033_);}
	.st267{clip-path:url(#SVGID_00000086663606113456504290000007998774309661111191_);}
	.st268{clip-path:url(#SVGID_00000072270581786307001370000001599498778208200109_);}
	.st269{clip-path:url(#SVGID_00000013903957717413675420000018107134609559868071_);}
	.st270{clip-path:url(#SVGID_00000158743086792712726570000010538844804705821118_);}
	.st271{clip-path:url(#SVGID_00000036945416123014669230000007836663933838186117_);}
	.st272{clip-path:url(#SVGID_00000054258839982303904150000005024861528189515396_);}
	.st273{clip-path:url(#SVGID_00000097502484899197942040000001495050341650719395_);}
	.st274{clip-path:url(#SVGID_00000139260774116076637550000005267409014149404563_);}
	.st275{clip-path:url(#SVGID_00000076604826870197230980000013293126982063749505_);}
	.st276{clip-path:url(#SVGID_00000116920365103504676620000015139158454989038259_);}
	.st277{clip-path:url(#SVGID_00000034072053689006788230000005167606957762837135_);}
	.st278{clip-path:url(#SVGID_00000106108403508940140860000000019232575392758413_);}
	.st279{clip-path:url(#SVGID_00000106111819209849160180000006928021650089101960_);}
	.st280{clip-path:url(#SVGID_00000120549625784724464120000010190769960960578736_);}
	.st281{clip-path:url(#SVGID_00000020391283584858538620000012693354206487751321_);}
	.st282{clip-path:url(#SVGID_00000072273964584758759680000002461583206311776952_);}
	.st283{clip-path:url(#SVGID_00000036932980667860780600000013150914997545236877_);}
	.st284{clip-path:url(#SVGID_00000152257235996766362910000014299098965179663266_);}
	.st285{clip-path:url(#SVGID_00000147933484971764028160000007407884779685633184_);}
	.st286{clip-path:url(#SVGID_00000179626834558514428020000003059414302450156448_);}
	.st287{clip-path:url(#SVGID_00000078005573424954492930000015337999891705188517_);}
	.st288{clip-path:url(#SVGID_00000019653179438402406240000011102070240921242554_);}
	.st289{clip-path:url(#SVGID_00000101796229589566302500000015828726831457069241_);}
	.st290{clip-path:url(#SVGID_00000073698270221819571900000017691622793145131430_);}
	.st291{clip-path:url(#SVGID_00000093888594921989134590000005754483712687696015_);}
	.st292{clip-path:url(#SVGID_00000025436173582623315890000016384272203918745511_);}
	.st293{clip-path:url(#SVGID_00000097473117508203448910000006907347434159201212_);}
	.st294{clip-path:url(#SVGID_00000060745626187439479530000015583896734909975431_);}
	.st295{clip-path:url(#SVGID_00000016072670218045268950000015788249549432856735_);}
	.st296{clip-path:url(#SVGID_00000034779641844169998540000014290062104495671717_);}
	.st297{clip-path:url(#SVGID_00000050649562846327562730000011486387450001833907_);}
	.st298{clip-path:url(#SVGID_00000018952006273701902210000016661020926132034732_);}
	.st299{clip-path:url(#SVGID_00000155863428165936923130000004464566769057355939_);}
	.st300{clip-path:url(#SVGID_00000055700597854232873270000006290545214490324397_);}
	.st301{clip-path:url(#SVGID_00000065060575752886183220000009724558360787576215_);}
	.st302{clip-path:url(#SVGID_00000181776116004623633910000000980199407460091570_);}
	.st303{clip-path:url(#SVGID_00000085943714914851253220000000550140157222149505_);}
	.st304{clip-path:url(#SVGID_00000131354635863219105370000006541490138023781767_);}
	.st305{clip-path:url(#SVGID_00000152974333315347573520000018253684004224688523_);}
	.st306{clip-path:url(#SVGID_00000057848047675296237130000009035127105176476584_);}
	.st307{clip-path:url(#SVGID_00000123442501952783369090000001886021232399250049_);}
	.st308{clip-path:url(#SVGID_00000091724974601863303200000014895333440271499441_);}
	.st309{clip-path:url(#SVGID_00000125568310246926223160000010835322009761689525_);}
	.st310{clip-path:url(#SVGID_00000057122088765620843300000015313508034562620069_);}
	.st311{clip-path:url(#SVGID_00000041985722457601524950000002715186472933318566_);}
	.st312{clip-path:url(#SVGID_00000000905740949790506910000007290486773956877732_);}
	.st313{clip-path:url(#SVGID_00000130621663799206754070000008930861033125076136_);}
	.st314{clip-path:url(#SVGID_00000183212708678699602960000010963352028760656007_);}
	.st315{clip-path:url(#SVGID_00000037686718875332866100000018027186332073472417_);}
	.st316{clip-path:url(#SVGID_00000032617238903339529800000013206127589045607357_);}
	.st317{clip-path:url(#SVGID_00000171696862009355378130000013819932847108029321_);}
	.st318{clip-path:url(#SVGID_00000047040086068092183810000017076520682881530266_);}
	.st319{clip-path:url(#SVGID_00000063609903808379556440000013426638653397284274_);}
	.st320{clip-path:url(#SVGID_00000183215986554080996910000012946962017260692874_);}
	.st321{clip-path:url(#SVGID_00000091705033895803387330000009685325747445382820_);}
	.st322{clip-path:url(#SVGID_00000176006968229122510490000013845223739054405784_);}
	.st323{clip-path:url(#SVGID_00000104680574226127742020000015137964491725586083_);}
	.st324{clip-path:url(#SVGID_00000134219519577972911730000009096500362266428073_);}
	.st325{clip-path:url(#SVGID_00000060711506936417525750000003350481773602578601_);}
	.st326{clip-path:url(#SVGID_00000040567890041080577170000011937975600675160232_);}
	.st327{clip-path:url(#SVGID_00000152244905466746789160000015831814022871812022_);}
	.st328{clip-path:url(#SVGID_00000153670276833434538770000008884191355965334685_);}
	.st329{clip-path:url(#SVGID_00000011027030437051718580000003143038364745914779_);}
	.st330{clip-path:url(#SVGID_00000178924277944766814110000017937446090858606766_);}
	.st331{clip-path:url(#SVGID_00000085221496354109708910000002779202593590867373_);}
	.st332{clip-path:url(#SVGID_00000010270259525829889220000013305812276903622565_);}
	.st333{clip-path:url(#SVGID_00000110445470428767983610000015366551040773799819_);}
	.st334{clip-path:url(#SVGID_00000096023321837921489590000008038776766230750593_);}
	.st335{clip-path:url(#SVGID_00000086661448680822859430000013899674239467878297_);}
	.st336{clip-path:url(#SVGID_00000072968980264728752000000010223449366566983067_);}
	.st337{clip-path:url(#SVGID_00000067200291585959043450000010093234107971590290_);}
	.st338{clip-path:url(#SVGID_00000138549895774975428860000016316361616294657925_);}
	.st339{clip-path:url(#SVGID_00000183933825572614298630000017711509672811658127_);}
	.st340{clip-path:url(#SVGID_00000049196048755496571520000013974387610279604890_);}
	.st341{clip-path:url(#SVGID_00000119092452992566218030000007276055218433006211_);}
	.st342{clip-path:url(#SVGID_00000065762808899292260210000012313542308647445642_);}
	.st343{clip-path:url(#SVGID_00000145780583433015383190000015010545522925581195_);}
	.st344{clip-path:url(#SVGID_00000154383856843805308830000015507692666108985219_);}
	.st345{clip-path:url(#SVGID_00000091703718702824278020000004003416346132033971_);}
	.st346{clip-path:url(#SVGID_00000072983983819338603780000001154713770892723365_);}
	.st347{clip-path:url(#SVGID_00000165924444051517385670000016211467302304630942_);}
	.st348{clip-path:url(#SVGID_00000142876376180832867170000013425748056392034205_);}
	.st349{clip-path:url(#SVGID_00000028315971451674224200000009376230345934026927_);}
	.st350{clip-path:url(#SVGID_00000139987275018934351740000005114186639160261786_);}
	.st351{clip-path:url(#SVGID_00000026854943468554791570000002371518509540934034_);}
	.st352{clip-path:url(#SVGID_00000093141171255788357460000011334241393136448898_);}
	.st353{clip-path:url(#SVGID_00000036972841598739791070000000341558896894853012_);}
	.st354{clip-path:url(#SVGID_00000042731407456973263520000001351541525476913820_);}
	.st355{clip-path:url(#SVGID_00000033369280352062181070000017274169947127807892_);}
	.st356{clip-path:url(#SVGID_00000150101936683879252330000001647449113440979900_);}
	.st357{clip-path:url(#SVGID_00000039817851957890899500000011354534052010852482_);}
	.st358{clip-path:url(#SVGID_00000047027782130462578840000001130040157063350915_);}
	.st359{clip-path:url(#SVGID_00000125581619046204025930000002905097240535566241_);}
	.st360{clip-path:url(#SVGID_00000098905346819755657930000010632903417020446396_);}
	.st361{clip-path:url(#SVGID_00000174579382789241833390000016209720779845336961_);}
	.st362{clip-path:url(#SVGID_00000150820434645450251770000014734333865680023468_);}
	.st363{clip-path:url(#SVGID_00000034801003757162260070000000872230128640177542_);}
	.st364{clip-path:url(#SVGID_00000008869537640120838320000011876351457871386496_);}
	.st365{clip-path:url(#SVGID_00000101061483158783997170000015029877739913601194_);}
	.st366{clip-path:url(#SVGID_00000078725299833936898420000009386005883009283224_);}
	.st367{clip-path:url(#SVGID_00000031184862515397196790000000326180342576085936_);}
	.st368{clip-path:url(#SVGID_00000177446791800549411310000015359757540306544794_);}
	.st369{clip-path:url(#SVGID_00000000934480877588900140000014747024573967926207_);}
	.st370{clip-path:url(#SVGID_00000103944150233169847020000016732787856229392814_);}
	.st371{clip-path:url(#SVGID_00000015347554678429820320000010216811175352960954_);}
	.st372{clip-path:url(#SVGID_00000129192197938601840460000004115018576401869239_);}
	.st373{clip-path:url(#SVGID_00000160881833675888545860000008522185416972316568_);}
	.st374{clip-path:url(#SVGID_00000066510204663121645240000007789651002482887299_);}
	.st375{clip-path:url(#SVGID_00000035527219755038582480000017121268292190285751_);}
</style>
<g>
	<g>
		<rect x="4.29" y="111.63" class="st0" width="46.36" height="884.07"/>
	</g>
	<g>
		<rect x="4" class="st1" width="948.1" height="119.22"/>
	</g>
	<g>
		<defs>
			<rect id="SVGID_00000018948354051260219730000014519000923035813800_" x="0" y="0.01" width="954.01" height="999.99"/>
		</defs>
		<clipPath id="SVGID_00000072243775351210576500000002430861486422842515_">
			<use xlink:href="#SVGID_00000018948354051260219730000014519000923035813800_"  style="overflow:visible;"/>
		</clipPath>
		<g style="clip-path:url(#SVGID_00000072243775351210576500000002430861486422842515_);">
			<path class="st3" d="M952.4,1000H1.61c-0.89,0-1.61-0.72-1.61-1.61V1.62c0-0.89,0.72-1.61,1.61-1.61H952.4
				c0.89,0,1.61,0.72,1.61,1.61v996.77C954.01,999.28,953.29,1000,952.4,1000z M3.22,996.78h947.57V3.23H3.22V996.78z"/>
		</g>
		<g style="clip-path:url(#SVGID_00000072243775351210576500000002430861486422842515_);">
			<path class="st4" d="M859.31,69.89V39.48c0-3.07-0.21-6.21-1.81-9c-1.6-2.72-3.84-4.88-6.13-7.18l-6.14,6.13
				c1.67,1.67,2.72,2.58,3.91,4.6c0.7,1.26,1.05,3.21,1.05,5.86v29.58c0,2.65-0.35,4.6-1.05,5.86c-1.19,2.02-2.23,2.93-3.91,4.6
				l6.14,6.14c2.3-2.3,4.53-4.47,6.13-7.19C859.1,76.1,859.31,72.96,859.31,69.89 M839.99,46.17c-2.51-2.51-5.02-3.41-8.58-3.41
				c-3.91,0-7.4,1.81-9.14,3.9v-3.48h-8.85v36.34h9.06V57.61c0-4.6,3.07-6.7,5.86-6.7c2.23,0,3.42,0.77,4.81,2.16L839.99,46.17z
				 M801.83,79.52V43.18h-9.06v21.98c0,4.95-3.21,6.63-6.08,6.63c-2.86,0-6.01-1.67-6.01-6.63V43.18h-9.06v23.23
				c0,3.98,0.77,7.39,3.69,10.32c2.02,2.02,4.95,3.2,8.58,3.2c3.35,0,6.7-1.26,9.08-3.76v3.34H801.83z M762.41,79.52v-7.66h-3.28
				c-2.16,0-3.14-1.19-3.14-3.28V51.12h6.42v-6.9h-6.42V33.48h-9.06v10.74h-3.84v6.9h3.84v18.01c0,5.16,3.14,10.39,10.53,10.39
				H762.41z M734.65,29.57h-9.27v7.38h9.27V29.57z M734.58,43.18h-9.06v36.34h9.06V43.18z M706.4,61.31c0,5.93-0.7,10.47-6.14,10.47
				c-5.44,0-6.14-4.54-6.14-10.47c0-5.94,0.7-10.4,6.14-10.4C705.7,50.91,706.4,55.38,706.4,61.31 M715.46,61.31
				c0-5.45-0.07-11.66-3.7-15.28c-2.02-2.02-5.3-3.27-8.85-3.27c-3.7,0-6.42,0.97-8.8,3.62V29.85h-9.06v49.66h8.79V76.1
				c2.51,2.79,5.23,3.83,9.08,3.83c3.56,0,6.84-1.26,8.85-3.27C715.39,73.03,715.46,66.75,715.46,61.31 M662.58,62.57h-12.35
				l6.28-18.07L662.58,62.57z M678.21,79.52l-18.14-49.66h-7.6L634.4,79.52h10.12l3-8.79h17.65l2.93,8.79H678.21z M628.81,80
				c-1.67-1.67-2.72-2.65-3.91-4.67c-0.7-1.26-1.05-3.21-1.05-5.86V39.89c0-2.65,0.35-4.6,1.05-5.86c1.19-2.02,2.23-3,3.91-4.67
				l-6.07-6.06c-2.3,2.3-4.53,4.46-6.13,7.18c-1.6,2.79-1.81,5.93-1.81,9v30.41c0,3.07,0.21,6.21,1.81,9
				c1.6,2.72,3.83,4.88,6.13,7.19L628.81,80z M578.02,57.97h-13.81c0.07-1.61,0.28-2.59,0.84-3.91c0.98-2.17,3-3.77,6.07-3.77
				c3.07,0,5.09,1.6,6.07,3.77C577.74,55.38,577.95,56.36,578.02,57.97 M586.95,64.17v-4.04c0-9.98-5.72-17.37-15.84-17.37
				c-9.41,0-15.83,6.69-15.83,18.55c0,14.72,8.22,18.62,16.8,18.62c6.56,0,10.12-2.02,13.81-5.72l-5.51-5.37
				c-2.3,2.3-4.26,3.42-8.23,3.42c-5.09,0-7.95-3.42-7.95-8.1H586.95z M549.83,51.12v-6.9h-6.7v-3.98c0-2.1,0.98-3.28,3.14-3.28
				h3.56v-7.66h-5.16c-7.39,0-10.59,5.23-10.59,10.39v4.54h-3.77v6.9h3.77v28.4h9.06v-28.4H549.83z M521.51,29.57h-9.27v7.38h9.27
				V29.57z M521.44,43.18h-9.06v36.34h9.06V43.18z M493.67,57.97h-13.81c0.07-1.61,0.28-2.59,0.84-3.91c0.98-2.17,3-3.77,6.07-3.77
				c3.07,0,5.09,1.6,6.07,3.77C493.39,55.38,493.6,56.36,493.67,57.97 M502.6,64.17v-4.04c0-9.98-5.72-17.37-15.84-17.37
				c-9.41,0-15.83,6.69-15.83,18.55c0,14.72,8.22,18.62,16.8,18.62c6.56,0,10.12-2.02,13.81-5.72l-5.51-5.37
				c-2.3,2.3-4.26,3.42-8.23,3.42c-5.09,0-7.95-3.42-7.95-8.1H502.6z M468.35,46.17c-2.51-2.51-5.02-3.41-8.58-3.41
				c-3.91,0-7.4,1.81-9.14,3.9v-3.48h-8.85v36.34h9.06V57.61c0-4.6,3.07-6.7,5.86-6.7c2.23,0,3.42,0.77,4.81,2.16L468.35,46.17z
				 M433.11,79.52v-7.66h-3.49c-2.3,0-3.21-1.12-3.21-3.28V29.85h-9.06v39.28c0,5.16,3.13,10.38,10.59,10.38H433.11z M406.11,79.52
				V43.18h-9.06v21.98c0,4.95-3.21,6.63-6.08,6.63c-2.86,0-6.01-1.67-6.01-6.63V43.18h-9.06v23.23c0,3.98,0.77,7.39,3.69,10.32
				c2.02,2.02,4.95,3.2,8.58,3.2c3.35,0,6.7-1.26,9.08-3.76v3.34H406.11z M365.17,79.52V56c0-7.67-4.19-13.24-12.13-13.24
				c-3.21,0-6.28,1.25-8.73,3.76V29.85h-9.06v49.66h9.06V57.33c0-4.74,3-6.42,5.86-6.42c2.87,0,5.94,1.6,5.94,6.42v22.19H365.17z
				 M326.79,74.99l-6.14-6.07c-1.88,2.03-3.49,2.87-5.86,2.87c-2.16,0-3.84-0.77-5.16-2.38c-1.4-1.74-2.02-4.26-2.02-8.09
				s0.63-6.28,2.02-8.03c1.33-1.6,3-2.37,5.16-2.37c2.37,0,3.98,0.84,5.86,2.86l6.14-6.13c-3.21-3.35-6.98-4.88-12-4.88
				c-7.26,0-16.25,3.83-16.25,18.55s8.99,18.62,16.25,18.62C319.82,79.93,323.59,78.33,326.79,74.99 M291.36,68.08
				c0-6.14-3.63-9.98-10.81-10.67l-5.72-0.56c-3.21-0.28-3.77-1.81-3.77-3.14c0-1.81,1.53-3.49,5.16-3.49
				c3.14,0,6.35,0.56,8.44,2.44l5.58-5.65c-3.49-3.28-8.23-4.25-13.88-4.25c-7.4,0-14.02,4.04-14.02,11.57
				c0,6.7,4.05,9.56,10.6,10.19l5.72,0.56c2.86,0.28,3.84,1.53,3.84,3.35c0,2.73-3.28,3.77-6.42,3.77c-2.79,0-6.7-0.42-9.7-3.42
				l-5.93,5.93c4.6,4.6,9.77,5.23,15.49,5.23C284.52,79.93,291.36,76.1,291.36,68.08 M252.84,79.52V56
				c0-7.67-4.18-13.24-12.13-13.24c-3.21,0-6.28,1.25-8.73,3.76V29.85h-9.06v49.66h9.06V57.33c0-4.74,3-6.42,5.87-6.42
				c2.86,0,5.94,1.6,5.94,6.42v22.19H252.84z M214.47,74.99l-6.14-6.07c-1.88,2.03-3.49,2.87-5.86,2.87c-2.16,0-3.84-0.77-5.16-2.38
				c-1.4-1.74-2.02-4.26-2.02-8.09s0.63-6.28,2.02-8.03c1.33-1.6,3-2.37,5.16-2.37c2.37,0,3.98,0.84,5.86,2.86l6.14-6.13
				c-3.21-3.35-6.98-4.88-12-4.88c-7.26,0-16.24,3.83-16.24,18.55s8.99,18.62,16.24,18.62C207.49,79.93,211.26,78.33,214.47,74.99
				 M168.92,61.31c0,3.77-0.21,6.98-2.1,8.86c-1.05,1.05-2.44,1.61-4.26,1.61c-1.81,0-3.14-0.56-4.19-1.61
				c-1.88-1.88-2.09-5.09-2.09-8.86s0.21-6.91,2.09-8.8c1.05-1.05,2.38-1.6,4.19-1.6c1.81,0,3.21,0.56,4.26,1.6
				C168.71,54.4,168.92,57.54,168.92,61.31 M177.98,61.31c0-6.56-0.84-10.68-4.11-14.09c-2.23-2.37-5.93-4.46-11.3-4.46
				c-5.38,0-9.01,2.09-11.23,4.46c-3.28,3.41-4.11,7.53-4.11,14.09c0,6.63,0.83,10.75,4.11,14.16c2.23,2.37,5.86,4.46,11.23,4.46
				c5.37,0,9.07-2.09,11.3-4.46C177.14,72.06,177.98,67.94,177.98,61.31 M136.47,79.52V29.85h-9.69v20.3h-16.82v-20.3h-9.69v49.66
				h9.69V58.73h16.82v20.79H136.47z"/>
		</g>
		<g style="clip-path:url(#SVGID_00000072243775351210576500000002430861486422842515_);">
			<rect x="2.95" y="333.5" class="st3" width="948.1" height="3.22"/>
		</g>
		<g style="clip-path:url(#SVGID_00000072243775351210576500000002430861486422842515_);">
			<rect x="2.95" y="221.88" class="st3" width="948.1" height="3.22"/>
		</g>
		<g style="clip-path:url(#SVGID_00000072243775351210576500000002430861486422842515_);">
			<rect x="2.95" y="115.62" class="st3" width="948.1" height="3.22"/>
		</g>
		<g style="clip-path:url(#SVGID_00000072243775351210576500000002430861486422842515_);">
			<rect x="2.95" y="442.45" class="st3" width="948.1" height="3.22"/>
		</g>
		<g style="clip-path:url(#SVGID_00000072243775351210576500000002430861486422842515_);">
			<rect x="2.95" y="559.44" class="st3" width="948.1" height="3.22"/>
		</g>
		<g style="clip-path:url(#SVGID_00000072243775351210576500000002430861486422842515_);">
			<rect x="2.95" y="671.07" class="st3" width="948.1" height="3.22"/>
		</g>
		<g style="clip-path:url(#SVGID_00000072243775351210576500000002430861486422842515_);">
			<rect x="2.95" y="773.52" class="st3" width="948.1" height="3.22"/>
		</g>
		<g style="clip-path:url(#SVGID_00000072243775351210576500000002430861486422842515_);">
			<rect x="2.95" y="887.39" class="st3" width="948.1" height="3.22"/>
		</g>
		<g style="clip-path:url(#SVGID_00000072243775351210576500000002430861486422842515_);">
			<rect x="2.95" y="996.78" class="st3" width="948.1" height="3.22"/>
		</g>
		<g style="clip-path:url(#SVGID_00000072243775351210576500000002430861486422842515_);">
			<path class="st3" d="M688.43,616.03c0,3.21-2.24,5.51-5.4,5.51c-3.17,0-5.36-2.3-5.36-5.51c0-3.17,2.19-5.56,5.36-5.56
				C686.19,610.47,688.43,612.87,688.43,616.03 M689,632.09c0,3.36-2.6,6.02-5.97,6.02c-3.37,0-5.97-2.66-5.97-6.02
				c0-3.36,2.6-6.07,5.97-6.07C686.39,626.02,689,628.73,689,632.09 M694.24,632.19c0-4.34-2.44-6.99-4.99-8.51
				c2.35-1.43,4.38-3.98,4.38-7.8c0-6.07-4.69-10.04-10.6-10.04c-5.92,0-10.55,3.97-10.55,10.04c0,3.83,2.03,6.38,4.38,7.8
				c-2.55,1.52-4.99,4.18-4.99,8.51c0,6.58,4.94,10.55,11.16,10.55C689.25,642.74,694.24,638.77,694.24,632.19 M648.3,627.41h-11.62
				c0.05-1.58,0.15-2.35,0.66-3.52c0.82-1.94,2.7-3.27,5.15-3.27s4.28,1.33,5.1,3.27C648.1,625.06,648.25,625.82,648.3,627.41
				 M653.45,631.02v-2.29c0-7.34-4.02-12.43-10.96-12.43c-6.63,0-10.96,4.84-10.96,13.2c0,9.84,5.15,13.25,11.62,13.25
				c4.54,0,7.04-1.37,9.69-4.02l-3.31-3.11c-1.84,1.84-3.36,2.65-6.27,2.65c-4.23,0-6.57-2.81-6.57-7.25H653.45z M626.03,634.54
				c0-4.59-2.86-6.89-7.7-7.29l-4.08-0.35c-2.75-0.26-3.57-1.43-3.57-2.96c0-1.94,1.58-3.32,4.69-3.32c2.45,0,4.74,0.51,6.38,1.89
				l3.26-3.32c-2.4-2.09-5.71-2.9-9.58-2.9c-5.4,0-9.74,2.85-9.74,7.89c0,4.54,2.81,6.74,7.65,7.14l4.13,0.35
				c2.5,0.2,3.47,1.33,3.47,3.06c0,2.45-2.5,3.57-5.66,3.57c-2.55,0-5.35-0.56-7.44-2.7l-3.41,3.42c3.06,3,6.63,3.71,10.86,3.71
				C621.44,642.74,626.03,639.94,626.03,634.54 M600.38,634.54c0-4.59-2.86-6.89-7.7-7.29l-4.08-0.35
				c-2.75-0.26-3.57-1.43-3.57-2.96c0-1.94,1.58-3.32,4.69-3.32c2.45,0,4.74,0.51,6.37,1.89l3.26-3.32c-2.39-2.09-5.71-2.9-9.58-2.9
				c-5.4,0-9.74,2.85-9.74,7.89c0,4.54,2.8,6.74,7.65,7.14l4.13,0.35c2.5,0.2,3.47,1.33,3.47,3.06c0,2.45-2.5,3.57-5.66,3.57
				c-2.55,0-5.36-0.56-7.44-2.7l-3.42,3.42c3.06,3,6.63,3.71,10.86,3.71C595.79,642.74,600.38,639.94,600.38,634.54 M567.55,633.11
				c0,1.84-0.35,3.06-1.12,3.83c-1.38,1.33-2.86,1.48-4.85,1.48c-3.26,0-4.74-1.33-4.74-3.68c0-2.35,1.58-3.72,4.64-3.72h6.07
				V633.11z M572.75,642.44v-17.28c0-5.87-3.56-8.87-10.65-8.87c-4.29,0-6.83,0.86-9.28,3.71l3.41,3.21c1.43-1.84,2.81-2.5,5.66-2.5
				c4.03,0,5.66,1.58,5.66,4.85v1.84h-6.84c-5.91,0-8.91,3.1-8.91,7.44c0,2.19,0.71,4.19,2.03,5.56c1.58,1.58,3.72,2.34,6.93,2.34
				c3.21,0,5-0.76,6.89-2.65v2.34H572.75z M547.51,642.44v-4.43h-2.29c-2.09,0-2.81-1.02-2.81-3.01v-28.86h-5.19v29.16
				c0,3.82,2.14,7.13,7.08,7.13H547.51z M530.13,631.58h-5.55c-0.87,3.68-3.36,6.23-7.4,6.23c-2.14,0-4.08-0.82-5.35-2.2
				c-1.79-1.94-2.19-4.03-2.19-11.32c0-7.29,0.41-9.39,2.19-11.32c1.27-1.37,3.21-2.19,5.35-2.19c4.03,0,6.48,2.55,7.34,6.22h5.61
				c-1.27-7.24-6.27-11.16-12.95-11.16c-3.77,0-7.04,1.37-9.53,3.87c-3.56,3.57-3.52,7.6-3.52,14.59c0,6.98-0.05,11.01,3.52,14.58
				c2.5,2.5,5.76,3.87,9.53,3.87C523.76,642.74,528.9,638.82,530.13,631.58 M487.61,602.37h-5l-14.53,43.84h5L487.61,602.37z
				 M446.63,616.03c0,3.21-2.25,5.51-5.41,5.51c-3.16,0-5.36-2.3-5.36-5.51c0-3.17,2.19-5.56,5.36-5.56
				C444.38,610.47,446.63,612.87,446.63,616.03 M447.18,632.09c0,3.36-2.6,6.02-5.97,6.02c-3.36,0-5.97-2.66-5.97-6.02
				c0-3.36,2.6-6.07,5.97-6.07C444.58,626.02,447.18,628.73,447.18,632.09 M452.43,632.19c0-4.34-2.44-6.99-4.99-8.51
				c2.34-1.43,4.38-3.98,4.38-7.8c0-6.07-4.69-10.04-10.6-10.04c-5.91,0-10.55,3.97-10.55,10.04c0,3.83,2.04,6.38,4.38,7.8
				c-2.54,1.52-4.99,4.18-4.99,8.51c0,6.58,4.94,10.55,11.16,10.55C447.44,642.74,452.43,638.77,452.43,632.19 M406.49,627.41
				h-11.62c0.05-1.58,0.16-2.35,0.67-3.52c0.82-1.94,2.7-3.27,5.15-3.27c2.45,0,4.28,1.33,5.1,3.27
				C406.29,625.06,406.44,625.82,406.49,627.41 M411.65,631.02v-2.29c0-7.34-4.03-12.43-10.96-12.43c-6.63,0-10.95,4.84-10.95,13.2
				c0,9.84,5.14,13.25,11.62,13.25c4.53,0,7.04-1.37,9.69-4.02l-3.32-3.11c-1.84,1.84-3.36,2.65-6.27,2.65
				c-4.23,0-6.58-2.81-6.58-7.25H411.65z M384.22,634.54c0-4.59-2.86-6.89-7.7-7.29l-4.08-0.35c-2.75-0.26-3.57-1.43-3.57-2.96
				c0-1.94,1.58-3.32,4.69-3.32c2.45,0,4.74,0.51,6.37,1.89l3.26-3.32c-2.39-2.09-5.71-2.9-9.58-2.9c-5.4,0-9.74,2.85-9.74,7.89
				c0,4.54,2.8,6.74,7.65,7.14l4.13,0.35c2.5,0.2,3.47,1.33,3.47,3.06c0,2.45-2.5,3.57-5.66,3.57c-2.55,0-5.36-0.56-7.44-2.7
				l-3.42,3.42c3.06,3,6.63,3.71,10.86,3.71C379.63,642.74,384.22,639.94,384.22,634.54 M358.57,634.54c0-4.59-2.86-6.89-7.7-7.29
				l-4.08-0.35c-2.75-0.26-3.57-1.43-3.57-2.96c0-1.94,1.58-3.32,4.69-3.32c2.45,0,4.74,0.51,6.38,1.89l3.26-3.32
				c-2.4-2.09-5.71-2.9-9.58-2.9c-5.4,0-9.74,2.85-9.74,7.89c0,4.54,2.81,6.74,7.65,7.14l4.13,0.35c2.5,0.2,3.47,1.33,3.47,3.06
				c0,2.45-2.5,3.57-5.66,3.57c-2.55,0-5.35-0.56-7.44-2.7l-3.41,3.42c3.06,3,6.63,3.71,10.86,3.71
				C353.99,642.74,358.57,639.94,358.57,634.54 M325.74,633.11c0,1.84-0.35,3.06-1.12,3.83c-1.37,1.33-2.86,1.48-4.85,1.48
				c-3.26,0-4.74-1.33-4.74-3.68c0-2.35,1.58-3.72,4.64-3.72h6.07V633.11z M330.94,642.44v-17.28c0-5.87-3.56-8.87-10.65-8.87
				c-4.28,0-6.83,0.86-9.27,3.71l3.41,3.21c1.43-1.84,2.81-2.5,5.66-2.5c4.03,0,5.66,1.58,5.66,4.85v1.84h-6.83
				c-5.91,0-8.92,3.1-8.92,7.44c0,2.19,0.71,4.19,2.04,5.56c1.58,1.58,3.71,2.34,6.93,2.34s5-0.76,6.89-2.65v2.34H330.94z
				 M305.7,642.44v-4.43h-2.3c-2.09,0-2.8-1.02-2.8-3.01v-28.86h-5.19v29.16c0,3.82,2.14,7.13,7.08,7.13H305.7z M290.41,642.44
				l-13-22.07l11.78-14.22h-6.73l-14.83,18.25v-18.25h-5.5v36.29h5.5v-10.55l6.12-7.34l10.2,17.89H290.41z"/>
		</g>
		<g style="clip-path:url(#SVGID_00000072243775351210576500000002430861486422842515_);">
			<path class="st3" d="M688.59,845.87c0,3.87-2.3,6.33-5.56,6.33c-3.27,0-5.51-2.45-5.51-6.33c0-3.93,2.24-6.27,5.51-6.27
				C686.49,839.6,688.59,842.3,688.59,845.87 M693.78,845.77c0-6.38-4.28-10.5-9.53-10.5c-1.12,0-2.24,0.15-3.21,0.56l7.8-15.6
				h-5.56l-8.26,16.82c-1.58,3.16-2.7,5.96-2.7,8.92c0,6.74,4.48,10.86,10.75,10.86C689.35,856.83,693.78,852.45,693.78,845.77
				 M648.3,841.49h-11.62c0.05-1.58,0.15-2.35,0.66-3.52c0.82-1.94,2.7-3.27,5.15-3.27s4.28,1.33,5.1,3.27
				C648.1,839.14,648.25,839.91,648.3,841.49 M653.45,845.1v-2.29c0-7.34-4.02-12.43-10.96-12.43c-6.63,0-10.96,4.84-10.96,13.2
				c0,9.84,5.15,13.26,11.62,13.26c4.54,0,7.04-1.37,9.69-4.02l-3.31-3.11c-1.84,1.84-3.36,2.65-6.27,2.65
				c-4.23,0-6.57-2.81-6.57-7.24H653.45z M626.03,848.62c0-4.59-2.86-6.89-7.7-7.29l-4.08-0.35c-2.75-0.26-3.57-1.43-3.57-2.96
				c0-1.94,1.58-3.32,4.69-3.32c2.45,0,4.74,0.51,6.38,1.89l3.26-3.32c-2.4-2.09-5.71-2.9-9.58-2.9c-5.4,0-9.74,2.85-9.74,7.89
				c0,4.54,2.81,6.74,7.65,7.14l4.13,0.35c2.5,0.2,3.47,1.33,3.47,3.06c0,2.45-2.5,3.57-5.66,3.57c-2.55,0-5.35-0.56-7.44-2.7
				l-3.41,3.41c3.06,3.01,6.63,3.72,10.86,3.72C621.44,856.83,626.03,854.03,626.03,848.62 M600.38,848.62
				c0-4.59-2.86-6.89-7.7-7.29l-4.08-0.35c-2.75-0.26-3.57-1.43-3.57-2.96c0-1.94,1.58-3.32,4.69-3.32c2.45,0,4.74,0.51,6.37,1.89
				l3.26-3.32c-2.39-2.09-5.71-2.9-9.58-2.9c-5.4,0-9.74,2.85-9.74,7.89c0,4.54,2.8,6.74,7.65,7.14l4.13,0.35
				c2.5,0.2,3.47,1.33,3.47,3.06c0,2.45-2.5,3.57-5.66,3.57c-2.55,0-5.36-0.56-7.44-2.7l-3.42,3.41c3.06,3.01,6.63,3.72,10.86,3.72
				C595.79,856.83,600.38,854.03,600.38,848.62 M567.55,847.2c0,1.84-0.35,3.06-1.12,3.83c-1.38,1.33-2.86,1.48-4.85,1.48
				c-3.26,0-4.74-1.33-4.74-3.68c0-2.35,1.58-3.72,4.64-3.72h6.07V847.2z M572.75,856.52v-17.28c0-5.87-3.56-8.87-10.65-8.87
				c-4.29,0-6.83,0.86-9.28,3.71l3.41,3.21c1.43-1.84,2.81-2.5,5.66-2.5c4.03,0,5.66,1.58,5.66,4.85v1.84h-6.84
				c-5.91,0-8.91,3.1-8.91,7.44c0,2.2,0.71,4.19,2.03,5.56c1.58,1.58,3.72,2.34,6.93,2.34c3.21,0,5-0.76,6.89-2.65v2.34H572.75z
				 M547.51,856.52v-4.43h-2.29c-2.09,0-2.81-1.02-2.81-3.01v-28.86h-5.19v29.16c0,3.82,2.14,7.13,7.08,7.13H547.51z M530.13,845.67
				h-5.55c-0.87,3.68-3.36,6.23-7.4,6.23c-2.14,0-4.08-0.82-5.35-2.19c-1.79-1.94-2.19-4.03-2.19-11.32c0-7.29,0.41-9.39,2.19-11.32
				c1.27-1.37,3.21-2.19,5.35-2.19c4.03,0,6.48,2.55,7.34,6.23h5.61c-1.27-7.24-6.27-11.16-12.95-11.16c-3.77,0-7.04,1.37-9.53,3.87
				c-3.56,3.57-3.52,7.6-3.52,14.59c0,6.98-0.05,11.01,3.52,14.58c2.5,2.5,5.76,3.87,9.53,3.87
				C523.76,856.83,528.9,852.91,530.13,845.67 M487.61,816.45h-5l-14.53,43.84h5L487.61,816.45z M446.78,845.87
				c0,3.87-2.3,6.33-5.56,6.33c-3.26,0-5.51-2.45-5.51-6.33c0-3.93,2.25-6.27,5.51-6.27C444.68,839.6,446.78,842.3,446.78,845.87
				 M451.97,845.77c0-6.38-4.28-10.5-9.53-10.5c-1.12,0-2.24,0.15-3.21,0.56l7.81-15.6h-5.56l-8.26,16.82
				c-1.58,3.16-2.7,5.96-2.7,8.92c0,6.74,4.48,10.86,10.75,10.86C447.54,856.83,451.97,852.45,451.97,845.77 M406.49,841.49h-11.62
				c0.05-1.58,0.16-2.35,0.67-3.52c0.82-1.94,2.7-3.27,5.15-3.27c2.45,0,4.28,1.33,5.1,3.27
				C406.29,839.14,406.44,839.91,406.49,841.49 M411.65,845.1v-2.29c0-7.34-4.03-12.43-10.96-12.43c-6.63,0-10.95,4.84-10.95,13.2
				c0,9.84,5.14,13.26,11.62,13.26c4.53,0,7.04-1.37,9.69-4.02l-3.32-3.11c-1.84,1.84-3.36,2.65-6.27,2.65
				c-4.23,0-6.58-2.81-6.58-7.24H411.65z M384.22,848.62c0-4.59-2.86-6.89-7.7-7.29l-4.08-0.35c-2.75-0.26-3.57-1.43-3.57-2.96
				c0-1.94,1.58-3.32,4.69-3.32c2.45,0,4.74,0.51,6.37,1.89l3.26-3.32c-2.39-2.09-5.71-2.9-9.58-2.9c-5.4,0-9.74,2.85-9.74,7.89
				c0,4.54,2.8,6.74,7.65,7.14l4.13,0.35c2.5,0.2,3.47,1.33,3.47,3.06c0,2.45-2.5,3.57-5.66,3.57c-2.55,0-5.36-0.56-7.44-2.7
				l-3.42,3.41c3.06,3.01,6.63,3.72,10.86,3.72C379.63,856.83,384.22,854.03,384.22,848.62 M358.57,848.62
				c0-4.59-2.86-6.89-7.7-7.29l-4.08-0.35c-2.75-0.26-3.57-1.43-3.57-2.96c0-1.94,1.58-3.32,4.69-3.32c2.45,0,4.74,0.51,6.38,1.89
				l3.26-3.32c-2.4-2.09-5.71-2.9-9.58-2.9c-5.4,0-9.74,2.85-9.74,7.89c0,4.54,2.81,6.74,7.65,7.14l4.13,0.35
				c2.5,0.2,3.47,1.33,3.47,3.06c0,2.45-2.5,3.57-5.66,3.57c-2.55,0-5.35-0.56-7.44-2.7l-3.41,3.41c3.06,3.01,6.63,3.72,10.86,3.72
				C353.99,856.83,358.57,854.03,358.57,848.62 M325.74,847.2c0,1.84-0.35,3.06-1.12,3.83c-1.37,1.33-2.86,1.48-4.85,1.48
				c-3.26,0-4.74-1.33-4.74-3.68c0-2.35,1.58-3.72,4.64-3.72h6.07V847.2z M330.94,856.52v-17.28c0-5.87-3.56-8.87-10.65-8.87
				c-4.28,0-6.83,0.86-9.27,3.71l3.41,3.21c1.43-1.84,2.81-2.5,5.66-2.5c4.03,0,5.66,1.58,5.66,4.85v1.84h-6.83
				c-5.91,0-8.92,3.1-8.92,7.44c0,2.2,0.71,4.19,2.04,5.56c1.58,1.58,3.71,2.34,6.93,2.34s5-0.76,6.89-2.65v2.34H330.94z
				 M305.7,856.52v-4.43h-2.3c-2.09,0-2.8-1.02-2.8-3.01v-28.86h-5.19v29.16c0,3.82,2.14,7.13,7.08,7.13H305.7z M290.41,856.52
				l-13-22.07l11.78-14.22h-6.73l-14.83,18.25v-18.25h-5.5v36.29h5.5v-10.55l6.12-7.34l10.2,17.89H290.41z"/>
		</g>
		<g style="clip-path:url(#SVGID_00000072243775351210576500000002430861486422842515_);">
			<path class="st3" d="M693.88,950.65c0-3.42-0.41-6.94-3.16-9.69c-1.48-1.48-3.67-2.35-6.53-2.35c-2.65,0-4.79,0.82-6.02,2.09
				v-9.59h14.89v-4.63H673.5v19.83h4.73c0.56-1.79,2.2-3.27,5.15-3.27c4.19,0,5.31,3.27,5.31,7.6c0,2.45-0.2,4.84-1.73,6.38
				c-0.92,0.92-2.25,1.43-3.78,1.43c-3.26,0-4.89-1.84-5.3-5.05h-5.19c0.2,2.6,0.82,5,2.75,6.93c1.58,1.58,4.28,2.8,7.75,2.8
				c3.52,0,6.02-1.22,7.65-2.85C693.48,957.64,693.88,954.53,693.88,950.65 M648.3,947.75h-11.62c0.05-1.58,0.15-2.35,0.66-3.52
				c0.82-1.94,2.7-3.27,5.15-3.27s4.28,1.33,5.1,3.27C648.1,945.4,648.25,946.17,648.3,947.75 M653.45,951.36v-2.29
				c0-7.34-4.02-12.43-10.96-12.43c-6.63,0-10.96,4.84-10.96,13.2c0,9.84,5.15,13.26,11.62,13.26c4.54,0,7.04-1.37,9.69-4.02
				l-3.31-3.11c-1.84,1.84-3.36,2.65-6.27,2.65c-4.23,0-6.57-2.81-6.57-7.25H653.45z M626.03,954.88c0-4.59-2.86-6.89-7.7-7.29
				l-4.08-0.35c-2.75-0.26-3.57-1.43-3.57-2.96c0-1.94,1.58-3.32,4.69-3.32c2.45,0,4.74,0.51,6.38,1.89l3.26-3.32
				c-2.4-2.09-5.71-2.9-9.58-2.9c-5.4,0-9.74,2.85-9.74,7.89c0,4.54,2.81,6.74,7.65,7.14l4.13,0.35c2.5,0.2,3.47,1.33,3.47,3.06
				c0,2.45-2.5,3.57-5.66,3.57c-2.55,0-5.35-0.56-7.44-2.7l-3.41,3.41c3.06,3.01,6.63,3.72,10.86,3.72
				C621.44,963.09,626.03,960.29,626.03,954.88 M600.38,954.88c0-4.59-2.86-6.89-7.7-7.29l-4.08-0.35
				c-2.75-0.26-3.57-1.43-3.57-2.96c0-1.94,1.58-3.32,4.69-3.32c2.45,0,4.74,0.51,6.37,1.89l3.26-3.32c-2.39-2.09-5.71-2.9-9.58-2.9
				c-5.4,0-9.74,2.85-9.74,7.89c0,4.54,2.8,6.74,7.65,7.14l4.13,0.35c2.5,0.2,3.47,1.33,3.47,3.06c0,2.45-2.5,3.57-5.66,3.57
				c-2.55,0-5.36-0.56-7.44-2.7l-3.42,3.41c3.06,3.01,6.63,3.72,10.86,3.72C595.79,963.09,600.38,960.29,600.38,954.88
				 M567.55,953.46c0,1.84-0.35,3.06-1.12,3.83c-1.38,1.33-2.86,1.48-4.85,1.48c-3.26,0-4.74-1.33-4.74-3.68
				c0-2.35,1.58-3.72,4.64-3.72h6.07V953.46z M572.75,962.78V945.5c0-5.87-3.56-8.87-10.65-8.87c-4.29,0-6.83,0.86-9.28,3.71
				l3.41,3.21c1.43-1.84,2.81-2.5,5.66-2.5c4.03,0,5.66,1.58,5.66,4.85v1.84h-6.84c-5.91,0-8.91,3.1-8.91,7.44
				c0,2.19,0.71,4.19,2.03,5.56c1.58,1.58,3.72,2.34,6.93,2.34c3.21,0,5-0.76,6.89-2.65v2.34H572.75z M547.51,962.78v-4.43h-2.29
				c-2.09,0-2.81-1.02-2.81-3.01v-28.86h-5.19v29.16c0,3.82,2.14,7.13,7.08,7.13H547.51z M530.13,951.93h-5.55
				c-0.87,3.68-3.36,6.23-7.4,6.23c-2.14,0-4.08-0.82-5.35-2.19c-1.79-1.94-2.19-4.03-2.19-11.32c0-7.29,0.41-9.39,2.19-11.32
				c1.27-1.37,3.21-2.2,5.35-2.2c4.03,0,6.48,2.55,7.34,6.23h5.61c-1.27-7.24-6.27-11.16-12.95-11.16c-3.77,0-7.04,1.37-9.53,3.87
				c-3.56,3.57-3.52,7.6-3.52,14.59c0,6.98-0.05,11.01,3.52,14.58c2.5,2.5,5.76,3.87,9.53,3.87
				C523.76,963.09,528.9,959.17,530.13,951.93 M487.61,922.72h-5l-14.53,43.84h5L487.61,922.72z M452.07,950.65
				c0-3.42-0.41-6.94-3.16-9.69c-1.48-1.48-3.67-2.35-6.53-2.35c-2.66,0-4.8,0.82-6.02,2.09v-9.59h14.89v-4.63h-19.57v19.83h4.73
				c0.56-1.79,2.19-3.27,5.16-3.27c4.18,0,5.3,3.27,5.3,7.6c0,2.45-0.2,4.84-1.73,6.38c-0.92,0.92-2.24,1.43-3.77,1.43
				c-3.27,0-4.9-1.84-5.31-5.05h-5.19c0.2,2.6,0.82,5,2.75,6.93c1.58,1.58,4.28,2.8,7.75,2.8c3.52,0,6.02-1.22,7.65-2.85
				C451.66,957.64,452.07,954.53,452.07,950.65 M406.49,947.75h-11.62c0.05-1.58,0.16-2.35,0.67-3.52c0.82-1.94,2.7-3.27,5.15-3.27
				c2.45,0,4.28,1.33,5.1,3.27C406.29,945.4,406.44,946.17,406.49,947.75 M411.65,951.36v-2.29c0-7.34-4.03-12.43-10.96-12.43
				c-6.63,0-10.95,4.84-10.95,13.2c0,9.84,5.14,13.26,11.62,13.26c4.53,0,7.04-1.37,9.69-4.02l-3.32-3.11
				c-1.84,1.84-3.36,2.65-6.27,2.65c-4.23,0-6.58-2.81-6.58-7.25H411.65z M384.22,954.88c0-4.59-2.86-6.89-7.7-7.29l-4.08-0.35
				c-2.75-0.26-3.57-1.43-3.57-2.96c0-1.94,1.58-3.32,4.69-3.32c2.45,0,4.74,0.51,6.37,1.89l3.26-3.32c-2.39-2.09-5.71-2.9-9.58-2.9
				c-5.4,0-9.74,2.85-9.74,7.89c0,4.54,2.8,6.74,7.65,7.14l4.13,0.35c2.5,0.2,3.47,1.33,3.47,3.06c0,2.45-2.5,3.57-5.66,3.57
				c-2.55,0-5.36-0.56-7.44-2.7l-3.42,3.41c3.06,3.01,6.63,3.72,10.86,3.72C379.63,963.09,384.22,960.29,384.22,954.88
				 M358.57,954.88c0-4.59-2.86-6.89-7.7-7.29l-4.08-0.35c-2.75-0.26-3.57-1.43-3.57-2.96c0-1.94,1.58-3.32,4.69-3.32
				c2.45,0,4.74,0.51,6.38,1.89l3.26-3.32c-2.4-2.09-5.71-2.9-9.58-2.9c-5.4,0-9.74,2.85-9.74,7.89c0,4.54,2.81,6.74,7.65,7.14
				l4.13,0.35c2.5,0.2,3.47,1.33,3.47,3.06c0,2.45-2.5,3.57-5.66,3.57c-2.55,0-5.35-0.56-7.44-2.7l-3.41,3.41
				c3.06,3.01,6.63,3.72,10.86,3.72C353.99,963.09,358.57,960.29,358.57,954.88 M325.74,953.46c0,1.84-0.35,3.06-1.12,3.83
				c-1.37,1.33-2.86,1.48-4.85,1.48c-3.26,0-4.74-1.33-4.74-3.68c0-2.35,1.58-3.72,4.64-3.72h6.07V953.46z M330.94,962.78V945.5
				c0-5.87-3.56-8.87-10.65-8.87c-4.28,0-6.83,0.86-9.27,3.71l3.41,3.21c1.43-1.84,2.81-2.5,5.66-2.5c4.03,0,5.66,1.58,5.66,4.85
				v1.84h-6.83c-5.91,0-8.92,3.1-8.92,7.44c0,2.19,0.71,4.19,2.04,5.56c1.58,1.58,3.71,2.34,6.93,2.34s5-0.76,6.89-2.65v2.34H330.94
				z M305.7,962.78v-4.43h-2.3c-2.09,0-2.8-1.02-2.8-3.01v-28.86h-5.19v29.16c0,3.82,2.14,7.13,7.08,7.13H305.7z M290.41,962.78
				l-13-22.07l11.78-14.22h-6.73l-14.83,18.25v-18.25h-5.5v36.29h5.5v-10.55l6.12-7.34l10.2,17.89H290.41z"/>
		</g>
		<g style="clip-path:url(#SVGID_00000072243775351210576500000002430861486422842515_);">
			<path class="st3" d="M688.59,499.8c0,3.93-2.3,6.27-5.56,6.27c-3.47,0-5.51-2.7-5.51-6.27c0-3.87,2.24-6.32,5.51-6.32
				C686.29,493.48,688.59,495.93,688.59,499.8 M693.78,499.7c0-6.73-4.48-10.86-10.75-10.86c-6.27,0-10.71,4.38-10.71,11.06
				c0,6.38,4.23,10.5,9.48,10.5c1.13,0,2.3-0.16,3.27-0.56l-7.8,15.6h5.56l8.26-16.82C692.66,505.46,693.78,502.66,693.78,499.7
				 M648.3,510.41h-11.62c0.05-1.58,0.15-2.35,0.66-3.52c0.82-1.94,2.7-3.27,5.15-3.27s4.28,1.33,5.1,3.27
				C648.1,508.06,648.25,508.83,648.3,510.41 M653.45,514.02v-2.29c0-7.34-4.02-12.43-10.96-12.43c-6.63,0-10.96,4.84-10.96,13.2
				c0,9.84,5.15,13.25,11.62,13.25c4.54,0,7.04-1.37,9.69-4.02l-3.31-3.11c-1.84,1.84-3.36,2.65-6.27,2.65
				c-4.23,0-6.57-2.81-6.57-7.24H653.45z M626.03,517.55c0-4.59-2.86-6.89-7.7-7.29l-4.08-0.35c-2.75-0.26-3.57-1.43-3.57-2.96
				c0-1.94,1.58-3.32,4.69-3.32c2.45,0,4.74,0.51,6.38,1.89l3.26-3.32c-2.4-2.09-5.71-2.9-9.58-2.9c-5.4,0-9.74,2.85-9.74,7.89
				c0,4.54,2.81,6.74,7.65,7.14l4.13,0.35c2.5,0.2,3.47,1.33,3.47,3.06c0,2.45-2.5,3.57-5.66,3.57c-2.55,0-5.35-0.56-7.44-2.7
				l-3.41,3.42c3.06,3,6.63,3.71,10.86,3.71C621.44,525.75,626.03,522.95,626.03,517.55 M600.38,517.55c0-4.59-2.86-6.89-7.7-7.29
				l-4.08-0.35c-2.75-0.26-3.57-1.43-3.57-2.96c0-1.94,1.58-3.32,4.69-3.32c2.45,0,4.74,0.51,6.37,1.89l3.26-3.32
				c-2.39-2.09-5.71-2.9-9.58-2.9c-5.4,0-9.74,2.85-9.74,7.89c0,4.54,2.8,6.74,7.65,7.14l4.13,0.35c2.5,0.2,3.47,1.33,3.47,3.06
				c0,2.45-2.5,3.57-5.66,3.57c-2.55,0-5.36-0.56-7.44-2.7l-3.42,3.42c3.06,3,6.63,3.71,10.86,3.71
				C595.79,525.75,600.38,522.95,600.38,517.55 M567.55,516.12c0,1.84-0.35,3.06-1.12,3.83c-1.38,1.33-2.86,1.48-4.85,1.48
				c-3.26,0-4.74-1.33-4.74-3.68c0-2.35,1.58-3.72,4.64-3.72h6.07V516.12z M572.75,525.45v-17.28c0-5.87-3.56-8.87-10.65-8.87
				c-4.29,0-6.83,0.86-9.28,3.71l3.41,3.21c1.43-1.84,2.81-2.5,5.66-2.5c4.03,0,5.66,1.58,5.66,4.85v1.84h-6.84
				c-5.91,0-8.91,3.1-8.91,7.44c0,2.2,0.71,4.19,2.03,5.56c1.58,1.58,3.72,2.34,6.93,2.34c3.21,0,5-0.76,6.89-2.65v2.34H572.75z
				 M547.51,525.45v-4.43h-2.29c-2.09,0-2.81-1.02-2.81-3.01v-28.86h-5.19v29.16c0,3.82,2.14,7.13,7.08,7.13H547.51z M530.13,514.59
				h-5.55c-0.87,3.68-3.36,6.23-7.4,6.23c-2.14,0-4.08-0.82-5.35-2.19c-1.79-1.94-2.19-4.03-2.19-11.32c0-7.29,0.41-9.39,2.19-11.32
				c1.27-1.37,3.21-2.19,5.35-2.19c4.03,0,6.48,2.55,7.34,6.22h5.61c-1.27-7.24-6.27-11.16-12.95-11.16c-3.77,0-7.04,1.37-9.53,3.87
				c-3.56,3.57-3.52,7.6-3.52,14.59c0,6.98-0.05,11.01,3.52,14.58c2.5,2.5,5.76,3.87,9.53,3.87
				C523.76,525.75,528.9,521.83,530.13,514.59 M487.61,485.38h-5l-14.53,43.84h5L487.61,485.38z M446.78,499.8
				c0,3.93-2.3,6.27-5.56,6.27c-3.47,0-5.51-2.7-5.51-6.27c0-3.87,2.25-6.32,5.51-6.32C444.48,493.48,446.78,495.93,446.78,499.8
				 M451.97,499.7c0-6.73-4.48-10.86-10.75-10.86c-6.27,0-10.7,4.38-10.7,11.06c0,6.38,4.22,10.5,9.48,10.5
				c1.12,0,2.3-0.16,3.26-0.56l-7.8,15.6h5.56l8.26-16.82C450.85,505.46,451.97,502.66,451.97,499.7 M406.49,510.41h-11.62
				c0.05-1.58,0.16-2.35,0.67-3.52c0.82-1.94,2.7-3.27,5.15-3.27c2.45,0,4.28,1.33,5.1,3.27
				C406.29,508.06,406.44,508.83,406.49,510.41 M411.65,514.02v-2.29c0-7.34-4.03-12.43-10.96-12.43c-6.63,0-10.95,4.84-10.95,13.2
				c0,9.84,5.14,13.25,11.62,13.25c4.53,0,7.04-1.37,9.69-4.02l-3.32-3.11c-1.84,1.84-3.36,2.65-6.27,2.65
				c-4.23,0-6.58-2.81-6.58-7.24H411.65z M384.22,517.55c0-4.59-2.86-6.89-7.7-7.29l-4.08-0.35c-2.75-0.26-3.57-1.43-3.57-2.96
				c0-1.94,1.58-3.32,4.69-3.32c2.45,0,4.74,0.51,6.37,1.89l3.26-3.32c-2.39-2.09-5.71-2.9-9.58-2.9c-5.4,0-9.74,2.85-9.74,7.89
				c0,4.54,2.8,6.74,7.65,7.14l4.13,0.35c2.5,0.2,3.47,1.33,3.47,3.06c0,2.45-2.5,3.57-5.66,3.57c-2.55,0-5.36-0.56-7.44-2.7
				l-3.42,3.42c3.06,3,6.63,3.71,10.86,3.71C379.63,525.75,384.22,522.95,384.22,517.55 M358.57,517.55c0-4.59-2.86-6.89-7.7-7.29
				l-4.08-0.35c-2.75-0.26-3.57-1.43-3.57-2.96c0-1.94,1.58-3.32,4.69-3.32c2.45,0,4.74,0.51,6.38,1.89l3.26-3.32
				c-2.4-2.09-5.71-2.9-9.58-2.9c-5.4,0-9.74,2.85-9.74,7.89c0,4.54,2.81,6.74,7.65,7.14l4.13,0.35c2.5,0.2,3.47,1.33,3.47,3.06
				c0,2.45-2.5,3.57-5.66,3.57c-2.55,0-5.35-0.56-7.44-2.7l-3.41,3.42c3.06,3,6.63,3.71,10.86,3.71
				C353.99,525.75,358.57,522.95,358.57,517.55 M325.74,516.12c0,1.84-0.35,3.06-1.12,3.83c-1.37,1.33-2.86,1.48-4.85,1.48
				c-3.26,0-4.74-1.33-4.74-3.68c0-2.35,1.58-3.72,4.64-3.72h6.07V516.12z M330.94,525.45v-17.28c0-5.87-3.56-8.87-10.65-8.87
				c-4.28,0-6.83,0.86-9.27,3.71l3.41,3.21c1.43-1.84,2.81-2.5,5.66-2.5c4.03,0,5.66,1.58,5.66,4.85v1.84h-6.83
				c-5.91,0-8.92,3.1-8.92,7.44c0,2.2,0.71,4.19,2.04,5.56c1.58,1.58,3.71,2.34,6.93,2.34s5-0.76,6.89-2.65v2.34H330.94z
				 M305.7,525.45v-4.43h-2.3c-2.09,0-2.8-1.02-2.8-3.01v-28.86h-5.19v29.16c0,3.82,2.14,7.13,7.08,7.13H305.7z M290.41,525.45
				l-13-22.07l11.78-14.22h-6.73l-14.83,18.25v-18.25h-5.5v36.29h5.5v-10.55l6.12-7.34l10.2,17.89H290.41z"/>
		</g>
		<g style="clip-path:url(#SVGID_00000072243775351210576500000002430861486422842515_);">
			<path class="st3" d="M716.01,403.57c0,3.52-1.99,5.92-5.31,5.92c-3.31,0-5.25-2.4-5.25-5.92v-15.8c0-3.52,1.94-5.91,5.25-5.91
				c3.32,0,5.31,2.39,5.31,5.91V403.57z M721.21,403.73v-16.12c0-6.47-4.74-10.4-10.5-10.4c-5.76,0-10.44,3.92-10.44,10.4v16.12
				c0,6.48,4.68,10.4,10.44,10.4C716.47,414.12,721.21,410.21,721.21,403.73 M687.56,413.82v-36.29h-5.19l-7.08,6.12v5.76l7.08-6.21
				v30.63H687.56z M648.3,398.79h-11.62c0.05-1.58,0.16-2.35,0.67-3.52c0.82-1.94,2.7-3.27,5.15-3.27c2.45,0,4.28,1.33,5.1,3.27
				C648.1,396.44,648.25,397.2,648.3,398.79 M653.45,402.4v-2.29c0-7.34-4.03-12.43-10.96-12.43c-6.63,0-10.95,4.84-10.95,13.2
				c0,9.84,5.14,13.25,11.62,13.25c4.53,0,7.04-1.37,9.69-4.02l-3.32-3.11c-1.84,1.84-3.36,2.65-6.27,2.65
				c-4.23,0-6.58-2.81-6.58-7.25H653.45z M626.03,405.92c0-4.59-2.86-6.89-7.7-7.29l-4.08-0.35c-2.75-0.26-3.57-1.43-3.57-2.96
				c0-1.94,1.58-3.32,4.69-3.32c2.45,0,4.74,0.51,6.37,1.89l3.26-3.32c-2.39-2.09-5.71-2.9-9.58-2.9c-5.4,0-9.74,2.85-9.74,7.89
				c0,4.54,2.8,6.74,7.65,7.14l4.13,0.35c2.5,0.2,3.47,1.33,3.47,3.06c0,2.45-2.5,3.57-5.66,3.57c-2.55,0-5.36-0.56-7.44-2.7
				l-3.42,3.42c3.06,3,6.63,3.71,10.86,3.71C621.44,414.12,626.03,411.32,626.03,405.92 M600.38,405.92c0-4.59-2.86-6.89-7.7-7.29
				l-4.08-0.35c-2.75-0.26-3.57-1.43-3.57-2.96c0-1.94,1.58-3.32,4.69-3.32c2.45,0,4.74,0.51,6.38,1.89l3.26-3.32
				c-2.4-2.09-5.71-2.9-9.58-2.9c-5.4,0-9.74,2.85-9.74,7.89c0,4.54,2.81,6.74,7.65,7.14l4.13,0.35c2.5,0.2,3.47,1.33,3.47,3.06
				c0,2.45-2.5,3.57-5.66,3.57c-2.55,0-5.35-0.56-7.44-2.7l-3.41,3.42c3.06,3,6.63,3.71,10.86,3.71
				C595.8,414.12,600.38,411.32,600.38,405.92 M567.55,404.49c0,1.84-0.35,3.06-1.12,3.83c-1.37,1.33-2.86,1.48-4.85,1.48
				c-3.26,0-4.74-1.33-4.74-3.68c0-2.35,1.58-3.72,4.64-3.72h6.07V404.49z M572.75,413.82v-17.28c0-5.87-3.56-8.87-10.65-8.87
				c-4.28,0-6.83,0.86-9.27,3.71l3.41,3.21c1.43-1.84,2.81-2.5,5.66-2.5c4.03,0,5.66,1.58,5.66,4.85v1.84h-6.83
				c-5.91,0-8.92,3.1-8.92,7.44c0,2.19,0.71,4.19,2.03,5.56c1.58,1.58,3.72,2.34,6.93,2.34c3.21,0,5-0.76,6.89-2.65v2.34H572.75z
				 M547.51,413.82v-4.43h-2.3c-2.09,0-2.8-1.02-2.8-3.01v-28.86h-5.19v29.16c0,3.82,2.14,7.13,7.08,7.13H547.51z M530.12,402.96
				h-5.55c-0.87,3.68-3.36,6.23-7.4,6.23c-2.14,0-4.08-0.82-5.35-2.19c-1.79-1.94-2.19-4.03-2.19-11.32c0-7.29,0.41-9.39,2.19-11.32
				c1.27-1.37,3.21-2.19,5.35-2.19c4.03,0,6.48,2.55,7.34,6.22h5.61c-1.27-7.24-6.27-11.16-12.95-11.16c-3.77,0-7.04,1.37-9.53,3.87
				c-3.56,3.57-3.51,7.6-3.51,14.59c0,6.98-0.05,11.01,3.51,14.58c2.5,2.5,5.76,3.87,9.53,3.87
				C523.75,414.12,528.9,410.2,530.12,402.96 M487.61,373.75h-5l-14.53,43.84h5L487.61,373.75z M446.52,403.57
				c0,3.52-1.99,5.92-5.31,5.92c-3.31,0-5.25-2.4-5.25-5.92v-15.8c0-3.52,1.94-5.91,5.25-5.91c3.32,0,5.31,2.39,5.31,5.91V403.57z
				 M451.72,403.73v-16.12c0-6.47-4.74-10.4-10.5-10.4c-5.76,0-10.44,3.92-10.44,10.4v16.12c0,6.48,4.68,10.4,10.44,10.4
				C446.98,414.12,451.72,410.21,451.72,403.73 M418.07,413.82v-36.29h-5.19l-7.08,6.12v5.76l7.08-6.21v30.63H418.07z
				 M378.81,398.79h-11.62c0.05-1.58,0.16-2.35,0.67-3.52c0.82-1.94,2.7-3.27,5.15-3.27c2.45,0,4.28,1.33,5.1,3.27
				C378.61,396.44,378.76,397.2,378.81,398.79 M383.96,402.4v-2.29c0-7.34-4.03-12.43-10.96-12.43c-6.63,0-10.95,4.84-10.95,13.2
				c0,9.84,5.14,13.25,11.62,13.25c4.53,0,7.04-1.37,9.69-4.02l-3.32-3.11c-1.84,1.84-3.36,2.65-6.27,2.65
				c-4.23,0-6.58-2.81-6.58-7.25H383.96z M356.53,405.92c0-4.59-2.86-6.89-7.7-7.29l-4.08-0.35c-2.75-0.26-3.57-1.43-3.57-2.96
				c0-1.94,1.58-3.32,4.69-3.32c2.45,0,4.74,0.51,6.37,1.89l3.26-3.32c-2.39-2.09-5.71-2.9-9.58-2.9c-5.4,0-9.74,2.85-9.74,7.89
				c0,4.54,2.8,6.74,7.65,7.14l4.13,0.35c2.5,0.2,3.47,1.33,3.47,3.06c0,2.45-2.5,3.57-5.66,3.57c-2.55,0-5.36-0.56-7.44-2.7
				l-3.42,3.42c3.06,3,6.63,3.71,10.86,3.71C351.94,414.12,356.53,411.32,356.53,405.92 M330.89,405.92c0-4.59-2.86-6.89-7.7-7.29
				l-4.08-0.35c-2.75-0.26-3.57-1.43-3.57-2.96c0-1.94,1.58-3.32,4.69-3.32c2.45,0,4.74,0.51,6.38,1.89l3.26-3.32
				c-2.4-2.09-5.71-2.9-9.58-2.9c-5.4,0-9.74,2.85-9.74,7.89c0,4.54,2.81,6.74,7.65,7.14l4.13,0.35c2.5,0.2,3.47,1.33,3.47,3.06
				c0,2.45-2.5,3.57-5.66,3.57c-2.55,0-5.35-0.56-7.44-2.7l-3.41,3.42c3.06,3,6.63,3.71,10.86,3.71
				C326.3,414.12,330.89,411.32,330.89,405.92 M298.06,404.49c0,1.84-0.35,3.06-1.12,3.83c-1.37,1.33-2.86,1.48-4.85,1.48
				c-3.26,0-4.74-1.33-4.74-3.68c0-2.35,1.58-3.72,4.64-3.72h6.07V404.49z M303.25,413.82v-17.28c0-5.87-3.56-8.87-10.65-8.87
				c-4.28,0-6.83,0.86-9.27,3.71l3.41,3.21c1.43-1.84,2.81-2.5,5.66-2.5c4.03,0,5.66,1.58,5.66,4.85v1.84h-6.83
				c-5.91,0-8.92,3.1-8.92,7.44c0,2.19,0.71,4.19,2.04,5.56c1.58,1.58,3.71,2.34,6.93,2.34c3.21,0,5-0.76,6.89-2.65v2.34H303.25z
				 M278.02,413.82v-4.43h-2.3c-2.09,0-2.8-1.02-2.8-3.01v-28.86h-5.19v29.16c0,3.82,2.14,7.13,7.08,7.13H278.02z M262.72,413.82
				l-13-22.07l11.78-14.22h-6.73l-14.83,18.25v-18.25h-5.5v36.29h5.5v-10.55l6.12-7.34l10.2,17.89H262.72z"/>
		</g>
		<g style="clip-path:url(#SVGID_00000072243775351210576500000002430861486422842515_);">
			<path class="st3" d="M715.24,302.19V265.9h-5.19l-7.09,6.12v5.76l7.09-6.21v30.63H715.24z M687.56,302.19V265.9h-5.19l-7.08,6.12
				v5.76l7.08-6.21v30.63H687.56z M648.3,287.16h-11.62c0.05-1.58,0.16-2.35,0.67-3.52c0.82-1.94,2.7-3.27,5.15-3.27
				c2.45,0,4.28,1.33,5.1,3.27C648.1,284.81,648.25,285.58,648.3,287.16 M653.45,290.77v-2.29c0-7.34-4.03-12.43-10.96-12.43
				c-6.63,0-10.95,4.84-10.95,13.2c0,9.84,5.14,13.26,11.62,13.26c4.53,0,7.04-1.37,9.69-4.02l-3.32-3.11
				c-1.84,1.84-3.36,2.65-6.27,2.65c-4.23,0-6.58-2.81-6.58-7.25H653.45z M626.03,294.29c0-4.59-2.86-6.89-7.7-7.29l-4.08-0.35
				c-2.75-0.26-3.57-1.43-3.57-2.96c0-1.94,1.58-3.32,4.69-3.32c2.45,0,4.74,0.51,6.37,1.89l3.26-3.32c-2.39-2.09-5.71-2.9-9.58-2.9
				c-5.4,0-9.74,2.85-9.74,7.89c0,4.54,2.8,6.74,7.65,7.14l4.13,0.35c2.5,0.2,3.47,1.33,3.47,3.06c0,2.45-2.5,3.57-5.66,3.57
				c-2.55,0-5.36-0.56-7.44-2.7l-3.42,3.41c3.06,3.01,6.63,3.72,10.86,3.72C621.44,302.5,626.03,299.7,626.03,294.29 M600.38,294.29
				c0-4.59-2.86-6.89-7.7-7.29l-4.08-0.35c-2.75-0.26-3.57-1.43-3.57-2.96c0-1.94,1.58-3.32,4.69-3.32c2.45,0,4.74,0.51,6.38,1.89
				l3.26-3.32c-2.4-2.09-5.71-2.9-9.58-2.9c-5.4,0-9.74,2.85-9.74,7.89c0,4.54,2.81,6.74,7.65,7.14l4.13,0.35
				c2.5,0.2,3.47,1.33,3.47,3.06c0,2.45-2.5,3.57-5.66,3.57c-2.55,0-5.35-0.56-7.44-2.7l-3.41,3.41c3.06,3.01,6.63,3.72,10.86,3.72
				C595.8,302.5,600.38,299.7,600.38,294.29 M567.55,292.86c0,1.84-0.35,3.06-1.12,3.83c-1.37,1.33-2.86,1.48-4.85,1.48
				c-3.26,0-4.74-1.33-4.74-3.68c0-2.35,1.58-3.72,4.64-3.72h6.07V292.86z M572.75,302.19v-17.28c0-5.87-3.56-8.87-10.65-8.87
				c-4.28,0-6.83,0.86-9.27,3.71l3.41,3.21c1.43-1.84,2.81-2.5,5.66-2.5c4.03,0,5.66,1.58,5.66,4.85v1.84h-6.83
				c-5.91,0-8.92,3.1-8.92,7.44c0,2.19,0.71,4.19,2.03,5.56c1.58,1.58,3.72,2.34,6.93,2.34c3.21,0,5-0.76,6.89-2.65v2.34H572.75z
				 M547.51,302.19v-4.43h-2.3c-2.09,0-2.8-1.02-2.8-3.01V265.9h-5.19v29.16c0,3.82,2.14,7.13,7.08,7.13H547.51z M530.12,291.33
				h-5.55c-0.87,3.68-3.36,6.23-7.4,6.23c-2.14,0-4.08-0.82-5.35-2.19c-1.79-1.94-2.19-4.03-2.19-11.32c0-7.29,0.41-9.39,2.19-11.32
				c1.27-1.37,3.21-2.19,5.35-2.19c4.03,0,6.48,2.55,7.34,6.23h5.61c-1.27-7.24-6.27-11.16-12.95-11.16c-3.77,0-7.04,1.37-9.53,3.87
				c-3.56,3.57-3.51,7.6-3.51,14.59c0,6.98-0.05,11.01,3.51,14.58c2.5,2.5,5.76,3.87,9.53,3.87
				C523.75,302.5,528.9,298.57,530.12,291.33 M487.61,262.12h-5l-14.53,43.84h5L487.61,262.12z M445.75,302.19V265.9h-5.19
				l-7.09,6.12v5.76l7.09-6.21v30.63H445.75z M418.07,302.19V265.9h-5.19l-7.08,6.12v5.76l7.08-6.21v30.63H418.07z M378.81,287.16
				h-11.62c0.05-1.58,0.16-2.35,0.67-3.52c0.82-1.94,2.7-3.27,5.15-3.27c2.45,0,4.28,1.33,5.1,3.27
				C378.61,284.81,378.76,285.58,378.81,287.16 M383.96,290.77v-2.29c0-7.34-4.03-12.43-10.96-12.43c-6.63,0-10.95,4.84-10.95,13.2
				c0,9.84,5.14,13.26,11.62,13.26c4.53,0,7.04-1.37,9.69-4.02l-3.32-3.11c-1.84,1.84-3.36,2.65-6.27,2.65
				c-4.23,0-6.58-2.81-6.58-7.25H383.96z M356.53,294.29c0-4.59-2.86-6.89-7.7-7.29l-4.08-0.35c-2.75-0.26-3.57-1.43-3.57-2.96
				c0-1.94,1.58-3.32,4.69-3.32c2.45,0,4.74,0.51,6.37,1.89l3.26-3.32c-2.39-2.09-5.71-2.9-9.58-2.9c-5.4,0-9.74,2.85-9.74,7.89
				c0,4.54,2.8,6.74,7.65,7.14l4.13,0.35c2.5,0.2,3.47,1.33,3.47,3.06c0,2.45-2.5,3.57-5.66,3.57c-2.55,0-5.36-0.56-7.44-2.7
				l-3.42,3.41c3.06,3.01,6.63,3.72,10.86,3.72C351.94,302.5,356.53,299.7,356.53,294.29 M330.89,294.29c0-4.59-2.86-6.89-7.7-7.29
				l-4.08-0.35c-2.75-0.26-3.57-1.43-3.57-2.96c0-1.94,1.58-3.32,4.69-3.32c2.45,0,4.74,0.51,6.38,1.89l3.26-3.32
				c-2.4-2.09-5.71-2.9-9.58-2.9c-5.4,0-9.74,2.85-9.74,7.89c0,4.54,2.81,6.74,7.65,7.14l4.13,0.35c2.5,0.2,3.47,1.33,3.47,3.06
				c0,2.45-2.5,3.57-5.66,3.57c-2.55,0-5.35-0.56-7.44-2.7l-3.41,3.41c3.06,3.01,6.63,3.72,10.86,3.72
				C326.3,302.5,330.89,299.7,330.89,294.29 M298.06,292.86c0,1.84-0.35,3.06-1.12,3.83c-1.37,1.33-2.86,1.48-4.85,1.48
				c-3.26,0-4.74-1.33-4.74-3.68c0-2.35,1.58-3.72,4.64-3.72h6.07V292.86z M303.25,302.19v-17.28c0-5.87-3.56-8.87-10.65-8.87
				c-4.28,0-6.83,0.86-9.27,3.71l3.41,3.21c1.43-1.84,2.81-2.5,5.66-2.5c4.03,0,5.66,1.58,5.66,4.85v1.84h-6.83
				c-5.91,0-8.92,3.1-8.92,7.44c0,2.19,0.71,4.19,2.04,5.56c1.58,1.58,3.71,2.34,6.93,2.34c3.21,0,5-0.76,6.89-2.65v2.34H303.25z
				 M278.02,302.19v-4.43h-2.3c-2.09,0-2.8-1.02-2.8-3.01V265.9h-5.19v29.16c0,3.82,2.14,7.13,7.08,7.13H278.02z M262.72,302.19
				l-13-22.07l11.78-14.22h-6.73l-14.83,18.25V265.9h-5.5v36.29h5.5v-10.55l6.12-7.34l10.2,17.89H262.72z"/>
		</g>
		<g style="clip-path:url(#SVGID_00000072243775351210576500000002430861486422842515_);">
			<path class="st3" d="M721.46,190.56v-4.63h-14.77l11.37-13.92c2.24-2.76,3.41-4.64,3.41-7.86c0-6.27-4.28-10.19-10.49-10.19
				c-6.17,0-10.56,4.07-10.56,10.25h5.2c0-4.08,2.6-5.61,5.36-5.61c3.36,0,5.3,2.25,5.3,5.51c0,1.84-0.56,3.16-1.94,4.84
				l-13.97,16.99v4.63H721.46z M687.56,190.56v-36.29h-5.19l-7.08,6.12v5.76l7.08-6.21v30.63H687.56z M648.3,175.53h-11.62
				c0.05-1.58,0.16-2.35,0.67-3.52c0.82-1.94,2.7-3.27,5.15-3.27c2.45,0,4.28,1.33,5.1,3.27
				C648.1,173.18,648.25,173.95,648.3,175.53 M653.45,179.14v-2.29c0-7.34-4.03-12.43-10.96-12.43c-6.63,0-10.95,4.84-10.95,13.2
				c0,9.84,5.14,13.26,11.62,13.26c4.53,0,7.04-1.37,9.69-4.02l-3.32-3.11c-1.84,1.84-3.36,2.65-6.27,2.65
				c-4.23,0-6.58-2.81-6.58-7.25H653.45z M626.03,182.66c0-4.59-2.86-6.89-7.7-7.29l-4.08-0.35c-2.75-0.26-3.57-1.43-3.57-2.96
				c0-1.94,1.58-3.32,4.69-3.32c2.45,0,4.74,0.51,6.37,1.89l3.26-3.32c-2.39-2.09-5.71-2.9-9.58-2.9c-5.4,0-9.74,2.85-9.74,7.89
				c0,4.54,2.8,6.74,7.65,7.14l4.13,0.35c2.5,0.2,3.47,1.33,3.47,3.06c0,2.45-2.5,3.57-5.66,3.57c-2.55,0-5.36-0.56-7.44-2.7
				l-3.42,3.41c3.06,3.01,6.63,3.72,10.86,3.72C621.44,190.87,626.03,188.07,626.03,182.66 M600.38,182.66
				c0-4.59-2.86-6.89-7.7-7.29l-4.08-0.35c-2.75-0.26-3.57-1.43-3.57-2.96c0-1.94,1.58-3.32,4.69-3.32c2.45,0,4.74,0.51,6.38,1.89
				l3.26-3.32c-2.4-2.09-5.71-2.9-9.58-2.9c-5.4,0-9.74,2.85-9.74,7.89c0,4.54,2.81,6.74,7.65,7.14l4.13,0.35
				c2.5,0.2,3.47,1.33,3.47,3.06c0,2.45-2.5,3.57-5.66,3.57c-2.55,0-5.35-0.56-7.44-2.7l-3.41,3.41c3.06,3.01,6.63,3.72,10.86,3.72
				C595.8,190.87,600.38,188.07,600.38,182.66 M567.55,181.24c0,1.84-0.35,3.06-1.12,3.83c-1.37,1.33-2.86,1.48-4.85,1.48
				c-3.26,0-4.74-1.33-4.74-3.68c0-2.35,1.58-3.72,4.64-3.72h6.07V181.24z M572.75,190.56v-17.28c0-5.87-3.56-8.87-10.65-8.87
				c-4.28,0-6.83,0.86-9.27,3.71l3.41,3.21c1.43-1.84,2.81-2.5,5.66-2.5c4.03,0,5.66,1.58,5.66,4.85v1.84h-6.83
				c-5.91,0-8.92,3.1-8.92,7.44c0,2.19,0.71,4.19,2.03,5.56c1.58,1.58,3.72,2.34,6.93,2.34c3.21,0,5-0.76,6.89-2.65v2.34H572.75z
				 M547.51,190.56v-4.43h-2.3c-2.09,0-2.8-1.02-2.8-3.01v-28.86h-5.19v29.16c0,3.82,2.14,7.13,7.08,7.13H547.51z M530.12,179.71
				h-5.55c-0.87,3.68-3.36,6.23-7.4,6.23c-2.14,0-4.08-0.82-5.35-2.19c-1.79-1.94-2.19-4.03-2.19-11.32c0-7.29,0.41-9.39,2.19-11.32
				c1.27-1.37,3.21-2.19,5.35-2.19c4.03,0,6.48,2.55,7.34,6.23h5.61c-1.27-7.24-6.27-11.16-12.95-11.16c-3.77,0-7.04,1.37-9.53,3.87
				c-3.56,3.57-3.51,7.6-3.51,14.59c0,6.98-0.05,11.01,3.51,14.58c2.5,2.5,5.76,3.87,9.53,3.87
				C523.75,190.87,528.9,186.95,530.12,179.71 M487.61,150.5h-5l-14.53,43.84h5L487.61,150.5z M451.97,190.56v-4.63h-14.77
				l11.37-13.92c2.24-2.76,3.41-4.64,3.41-7.86c0-6.27-4.28-10.19-10.49-10.19c-6.17,0-10.56,4.07-10.56,10.25h5.2
				c0-4.08,2.6-5.61,5.36-5.61c3.36,0,5.3,2.25,5.3,5.51c0,1.84-0.56,3.16-1.94,4.84l-13.97,16.99v4.63H451.97z M418.07,190.56
				v-36.29h-5.19l-7.08,6.12v5.76l7.08-6.21v30.63H418.07z M378.81,175.53h-11.62c0.05-1.58,0.16-2.35,0.67-3.52
				c0.82-1.94,2.7-3.27,5.15-3.27c2.45,0,4.28,1.33,5.1,3.27C378.61,173.18,378.76,173.95,378.81,175.53 M383.96,179.14v-2.29
				c0-7.34-4.03-12.43-10.96-12.43c-6.63,0-10.95,4.84-10.95,13.2c0,9.84,5.14,13.26,11.62,13.26c4.53,0,7.04-1.37,9.69-4.02
				l-3.32-3.11c-1.84,1.84-3.36,2.65-6.27,2.65c-4.23,0-6.58-2.81-6.58-7.25H383.96z M356.53,182.66c0-4.59-2.86-6.89-7.7-7.29
				l-4.08-0.35c-2.75-0.26-3.57-1.43-3.57-2.96c0-1.94,1.58-3.32,4.69-3.32c2.45,0,4.74,0.51,6.37,1.89l3.26-3.32
				c-2.39-2.09-5.71-2.9-9.58-2.9c-5.4,0-9.74,2.85-9.74,7.89c0,4.54,2.8,6.74,7.65,7.14l4.13,0.35c2.5,0.2,3.47,1.33,3.47,3.06
				c0,2.45-2.5,3.57-5.66,3.57c-2.55,0-5.36-0.56-7.44-2.7l-3.42,3.41c3.06,3.01,6.63,3.72,10.86,3.72
				C351.94,190.87,356.53,188.07,356.53,182.66 M330.89,182.66c0-4.59-2.86-6.89-7.7-7.29l-4.08-0.35
				c-2.75-0.26-3.57-1.43-3.57-2.96c0-1.94,1.58-3.32,4.69-3.32c2.45,0,4.74,0.51,6.38,1.89l3.26-3.32c-2.4-2.09-5.71-2.9-9.58-2.9
				c-5.4,0-9.74,2.85-9.74,7.89c0,4.54,2.81,6.74,7.65,7.14l4.13,0.35c2.5,0.2,3.47,1.33,3.47,3.06c0,2.45-2.5,3.57-5.66,3.57
				c-2.55,0-5.35-0.56-7.44-2.7l-3.41,3.41c3.06,3.01,6.63,3.72,10.86,3.72C326.3,190.87,330.89,188.07,330.89,182.66
				 M298.06,181.24c0,1.84-0.35,3.06-1.12,3.83c-1.37,1.33-2.86,1.48-4.85,1.48c-3.26,0-4.74-1.33-4.74-3.68
				c0-2.35,1.58-3.72,4.64-3.72h6.07V181.24z M303.25,190.56v-17.28c0-5.87-3.56-8.87-10.65-8.87c-4.28,0-6.83,0.86-9.27,3.71
				l3.41,3.21c1.43-1.84,2.81-2.5,5.66-2.5c4.03,0,5.66,1.58,5.66,4.85v1.84h-6.83c-5.91,0-8.92,3.1-8.92,7.44
				c0,2.19,0.71,4.19,2.04,5.56c1.58,1.58,3.71,2.34,6.93,2.34c3.21,0,5-0.76,6.89-2.65v2.34H303.25z M278.02,190.56v-4.43h-2.3
				c-2.09,0-2.8-1.02-2.8-3.01v-28.86h-5.19v29.16c0,3.82,2.14,7.13,7.08,7.13H278.02z M262.72,190.56l-13-22.07l11.78-14.22h-6.73
				l-14.83,18.25v-18.25h-5.5v36.29h5.5v-10.55l6.12-7.34l10.2,17.89H262.72z"/>
		</g>
		<g style="clip-path:url(#SVGID_00000072243775351210576500000002430861486422842515_);">
			<path class="st3" d="M694.29,717.04v-4.64h-21.62v10.35h5v-5.71h11.07l-12.19,31.66h5.61L694.29,717.04z M648.3,733.67h-11.62
				c0.05-1.58,0.15-2.35,0.66-3.52c0.82-1.94,2.7-3.27,5.15-3.27s4.28,1.33,5.1,3.27C648.1,731.32,648.25,732.08,648.3,733.67
				 M653.45,737.28v-2.29c0-7.34-4.02-12.43-10.96-12.43c-6.63,0-10.96,4.84-10.96,13.2c0,9.84,5.15,13.25,11.62,13.25
				c4.54,0,7.04-1.37,9.69-4.02l-3.31-3.11c-1.84,1.84-3.36,2.65-6.27,2.65c-4.23,0-6.57-2.81-6.57-7.24H653.45z M626.03,740.8
				c0-4.59-2.86-6.89-7.7-7.29l-4.08-0.35c-2.75-0.26-3.57-1.43-3.57-2.96c0-1.94,1.58-3.32,4.69-3.32c2.45,0,4.74,0.51,6.38,1.89
				l3.26-3.32c-2.4-2.09-5.71-2.9-9.58-2.9c-5.4,0-9.74,2.85-9.74,7.89c0,4.54,2.81,6.74,7.65,7.14l4.13,0.35
				c2.5,0.2,3.47,1.33,3.47,3.06c0,2.45-2.5,3.57-5.66,3.57c-2.55,0-5.35-0.56-7.44-2.7l-3.41,3.42c3.06,3,6.63,3.71,10.86,3.71
				C621.44,749,626.03,746.2,626.03,740.8 M600.38,740.8c0-4.59-2.86-6.89-7.7-7.29l-4.08-0.35c-2.75-0.26-3.57-1.43-3.57-2.96
				c0-1.94,1.58-3.32,4.69-3.32c2.45,0,4.74,0.51,6.37,1.89l3.26-3.32c-2.39-2.09-5.71-2.9-9.58-2.9c-5.4,0-9.74,2.85-9.74,7.89
				c0,4.54,2.8,6.74,7.65,7.14l4.13,0.35c2.5,0.2,3.47,1.33,3.47,3.06c0,2.45-2.5,3.57-5.66,3.57c-2.55,0-5.36-0.56-7.44-2.7
				l-3.42,3.42c3.06,3,6.63,3.71,10.86,3.71C595.79,749,600.38,746.2,600.38,740.8 M567.55,739.37c0,1.84-0.35,3.06-1.12,3.83
				c-1.38,1.33-2.86,1.48-4.85,1.48c-3.26,0-4.74-1.33-4.74-3.68c0-2.35,1.58-3.72,4.64-3.72h6.07V739.37z M572.75,748.7v-17.28
				c0-5.87-3.56-8.87-10.65-8.87c-4.29,0-6.83,0.86-9.28,3.71l3.41,3.21c1.43-1.84,2.81-2.5,5.66-2.5c4.03,0,5.66,1.58,5.66,4.85
				v1.84h-6.84c-5.91,0-8.91,3.1-8.91,7.44c0,2.2,0.71,4.19,2.03,5.56c1.58,1.58,3.72,2.34,6.93,2.34c3.21,0,5-0.76,6.89-2.65v2.34
				H572.75z M547.51,748.7v-4.43h-2.29c-2.09,0-2.81-1.02-2.81-3.01V712.4h-5.19v29.16c0,3.82,2.14,7.13,7.08,7.13H547.51z
				 M530.13,737.84h-5.55c-0.87,3.68-3.36,6.23-7.4,6.23c-2.14,0-4.08-0.82-5.35-2.19c-1.79-1.94-2.19-4.03-2.19-11.32
				c0-7.29,0.41-9.39,2.19-11.32c1.27-1.37,3.21-2.19,5.35-2.19c4.03,0,6.48,2.55,7.34,6.22h5.61c-1.27-7.24-6.27-11.16-12.95-11.16
				c-3.77,0-7.04,1.37-9.53,3.87c-3.56,3.57-3.52,7.6-3.52,14.59c0,6.98-0.05,11.01,3.52,14.58c2.5,2.5,5.76,3.87,9.53,3.87
				C523.76,749,528.9,745.08,530.13,737.84 M487.61,708.63h-5l-14.53,43.84h5L487.61,708.63z M452.49,717.04v-4.64h-21.62v10.35h5
				v-5.71h11.06l-12.18,31.66h5.61L452.49,717.04z M406.49,733.67h-11.62c0.05-1.58,0.16-2.35,0.67-3.52
				c0.82-1.94,2.7-3.27,5.15-3.27c2.45,0,4.28,1.33,5.1,3.27C406.29,731.32,406.44,732.08,406.49,733.67 M411.65,737.28v-2.29
				c0-7.34-4.03-12.43-10.96-12.43c-6.63,0-10.95,4.84-10.95,13.2c0,9.84,5.14,13.25,11.62,13.25c4.53,0,7.04-1.37,9.69-4.02
				l-3.32-3.11c-1.84,1.84-3.36,2.65-6.27,2.65c-4.23,0-6.58-2.81-6.58-7.24H411.65z M384.22,740.8c0-4.59-2.86-6.89-7.7-7.29
				l-4.08-0.35c-2.75-0.26-3.57-1.43-3.57-2.96c0-1.94,1.58-3.32,4.69-3.32c2.45,0,4.74,0.51,6.37,1.89l3.26-3.32
				c-2.39-2.09-5.71-2.9-9.58-2.9c-5.4,0-9.74,2.85-9.74,7.89c0,4.54,2.8,6.74,7.65,7.14l4.13,0.35c2.5,0.2,3.47,1.33,3.47,3.06
				c0,2.45-2.5,3.57-5.66,3.57c-2.55,0-5.36-0.56-7.44-2.7l-3.42,3.42c3.06,3,6.63,3.71,10.86,3.71
				C379.63,749,384.22,746.2,384.22,740.8 M358.57,740.8c0-4.59-2.86-6.89-7.7-7.29l-4.08-0.35c-2.75-0.26-3.57-1.43-3.57-2.96
				c0-1.94,1.58-3.32,4.69-3.32c2.45,0,4.74,0.51,6.38,1.89l3.26-3.32c-2.4-2.09-5.71-2.9-9.58-2.9c-5.4,0-9.74,2.85-9.74,7.89
				c0,4.54,2.81,6.74,7.65,7.14l4.13,0.35c2.5,0.2,3.47,1.33,3.47,3.06c0,2.45-2.5,3.57-5.66,3.57c-2.55,0-5.35-0.56-7.44-2.7
				l-3.41,3.42c3.06,3,6.63,3.71,10.86,3.71C353.99,749,358.57,746.2,358.57,740.8 M325.74,739.37c0,1.84-0.35,3.06-1.12,3.83
				c-1.37,1.33-2.86,1.48-4.85,1.48c-3.26,0-4.74-1.33-4.74-3.68c0-2.35,1.58-3.72,4.64-3.72h6.07V739.37z M330.94,748.7v-17.28
				c0-5.87-3.56-8.87-10.65-8.87c-4.28,0-6.83,0.86-9.27,3.71l3.41,3.21c1.43-1.84,2.81-2.5,5.66-2.5c4.03,0,5.66,1.58,5.66,4.85
				v1.84h-6.83c-5.91,0-8.92,3.1-8.92,7.44c0,2.2,0.71,4.19,2.04,5.56c1.58,1.58,3.71,2.34,6.93,2.34s5-0.76,6.89-2.65v2.34H330.94z
				 M305.7,748.7v-4.43h-2.3c-2.09,0-2.8-1.02-2.8-3.01V712.4h-5.19v29.16c0,3.82,2.14,7.13,7.08,7.13H305.7z M290.41,748.7
				l-13-22.07l11.78-14.22h-6.73l-14.83,18.25V712.4h-5.5v36.29h5.5v-10.55l6.12-7.34l10.2,17.89H290.41z"/>
		</g>
	</g>
	<g>
		<polygon class="st4" points="19.8,718.33 35.15,718.33 27.48,708.18 		"/>
	</g>
	<g>
		<polygon class="st4" points="19.8,738.52 35.15,738.52 27.48,728.37 		"/>
	</g>
	<g>
		<polygon class="st4" points="19.8,758.7 35.15,758.7 27.48,748.55 		"/>
	</g>
	<g>
		<polygon class="st4" points="19.8,698.15 35.15,698.15 27.48,688 		"/>
	</g>
	<g>
		<polygon class="st4" points="19.8,823.11 35.15,823.11 27.48,812.96 		"/>
	</g>
	<g>
		<polygon class="st4" points="19.8,843.29 35.15,843.29 27.48,833.14 		"/>
	</g>
	<g>
		<polygon class="st4" points="19.8,863.48 35.15,863.48 27.48,853.33 		"/>
	</g>
	<g>
		<polygon class="st4" points="19.8,802.92 35.15,802.92 27.48,792.77 		"/>
	</g>
	<g>
		<polygon class="st4" points="19.8,940.24 35.15,940.24 27.48,930.09 		"/>
	</g>
	<g>
		<polygon class="st4" points="19.8,960.43 35.15,960.43 27.48,950.28 		"/>
	</g>
	<g>
		<polygon class="st4" points="19.8,980.61 35.15,980.61 27.48,970.47 		"/>
	</g>
	<g>
		<polygon class="st4" points="19.8,920.06 35.15,920.06 27.48,909.91 		"/>
	</g>
	<g>
		<polygon class="st4" points="19.8,611.85 35.15,611.85 27.48,601.7 		"/>
	</g>
	<g>
		<polygon class="st4" points="19.8,632.03 35.15,632.03 27.48,621.89 		"/>
	</g>
	<g>
		<polygon class="st4" points="19.8,652.22 35.15,652.22 27.48,642.07 		"/>
	</g>
	<g>
		<polygon class="st4" points="19.8,591.66 35.15,591.66 27.48,581.51 		"/>
	</g>
	<g>
		<polygon class="st4" points="19.8,497.54 35.15,497.54 27.48,487.39 		"/>
	</g>
	<g>
		<polygon class="st4" points="19.8,517.72 35.15,517.72 27.48,507.58 		"/>
	</g>
	<g>
		<polygon class="st4" points="19.8,537.91 35.15,537.91 27.48,527.76 		"/>
	</g>
	<g>
		<polygon class="st4" points="19.8,477.35 35.15,477.35 27.48,467.2 		"/>
	</g>
	<g>
		<polygon class="st4" points="19.8,384.57 35.15,384.57 27.48,374.42 		"/>
	</g>
	<g>
		<polygon class="st4" points="19.8,404.75 35.15,404.75 27.48,394.6 		"/>
	</g>
	<g>
		<polygon class="st4" points="19.8,424.94 35.15,424.94 27.48,414.79 		"/>
	</g>
	<g>
		<polygon class="st4" points="19.8,364.38 35.15,364.38 27.48,354.23 		"/>
	</g>
	<g>
		<polygon class="st4" points="19.8,274.28 35.15,274.28 27.48,264.14 		"/>
	</g>
	<g>
		<polygon class="st4" points="19.8,294.47 35.15,294.47 27.48,284.32 		"/>
	</g>
	<g>
		<polygon class="st4" points="19.8,314.66 35.15,314.66 27.48,304.51 		"/>
	</g>
	<g>
		<polygon class="st4" points="19.8,254.1 35.15,254.1 27.48,243.95 		"/>
	</g>
	<g>
		<polygon class="st4" points="19.8,162.66 35.15,162.66 27.48,152.51 		"/>
	</g>
	<g>
		<polygon class="st4" points="19.8,182.84 35.15,182.84 27.48,172.69 		"/>
	</g>
	<g>
		<polygon class="st4" points="19.8,203.03 35.15,203.03 27.48,192.88 		"/>
	</g>
	<g>
		<polygon class="st4" points="19.8,142.47 35.15,142.47 27.48,132.32 		"/>
	</g>
</g>
</svg>
