<?xml version="1.0" encoding="utf-8"?>
<!-- Generator: Adobe Illustrator 26.2.1, SVG Export Plug-In . SVG Version: 6.00 Build 0)  -->
<svg version="1.1" id="Ebene_1" xmlns="http://www.w3.org/2000/svg" xmlns:xlink="http://www.w3.org/1999/xlink" x="0px" y="0px"
	 viewBox="0 0 1000 295.67" style="enable-background:new 0 0 1000 295.67;" xml:space="preserve">
<style type="text/css">
	.st0{fill:#A2B9E1;}
	.st1{fill:#6796CF;}
	.st2{clip-path:url(#SVGID_00000124140721620348359080000011189549842533860005_);}
	.st3{fill:#2B2961;}
	.st4{fill:#FFFFFF;}
	.st5{clip-path:url(#SVGID_00000084490072249251165570000006613972186328984982_);}
	.st6{clip-path:url(#SVGID_00000146465188415693384090000000585981230581145483_);}
	.st7{clip-path:url(#SVGID_00000165227199442810588470000008005710855102239673_);}
	.st8{clip-path:url(#SVGID_00000156548290508013152250000014163084043977597085_);}
	.st9{clip-path:url(#SVGID_00000119089821670114592450000005349473225450279305_);}
	.st10{opacity:0.52;clip-path:url(#SVGID_00000181081801273135086980000007982179052061401255_);}
	.st11{clip-path:url(#SVGID_00000096760188853848914650000010664811988779965838_);}
	.st12{clip-path:url(#SVGID_00000140710409874905219650000013652650388234129812_);}
	.st13{clip-path:url(#SVGID_00000029007822723343680100000008771995925665849008_);}
	.st14{clip-path:url(#SVGID_00000039813961946989358130000013116099111431419779_);}
	.st15{clip-path:url(#SVGID_00000134931852716597780090000006806051694900616596_);}
	.st16{clip-path:url(#SVGID_00000047041129797464437210000007786641026128107701_);}
	.st17{clip-path:url(#SVGID_00000168833823989890099470000002979608335719349399_);}
	.st18{clip-path:url(#SVGID_00000019641241033083129880000017885106070002420127_);}
	.st19{clip-path:url(#SVGID_00000091720338797724635330000009488754982665461426_);}
	.st20{clip-path:url(#SVGID_00000018231470115357620450000007762260226172067460_);}
	.st21{clip-path:url(#SVGID_00000139290900060984359690000002512445297427644346_);}
	.st22{clip-path:url(#SVGID_00000152960164905008838790000007591396254792740020_);}
	.st23{fill:none;stroke:#2B2961;stroke-width:0.374;stroke-linejoin:round;stroke-miterlimit:10;}
	.st24{fill:none;stroke:#2B2961;stroke-width:0.4;stroke-miterlimit:10;}
	.st25{clip-path:url(#SVGID_00000106868515535979983430000015946042070548275102_);}
	.st26{clip-path:url(#SVGID_00000066491154609490289270000015717969870374273726_);}
	.st27{clip-path:url(#SVGID_00000158013124080745671510000015078452224265194126_);}
	.st28{clip-path:url(#SVGID_00000038409666587500343970000015672534477523279034_);}
	.st29{clip-path:url(#SVGID_00000099645571026642469750000013437969466892146092_);}
	.st30{clip-path:url(#SVGID_00000069393021731792522010000000441025278512424625_);}
	.st31{clip-path:url(#SVGID_00000054247233251982754190000012119218664431115408_);}
	.st32{clip-path:url(#SVGID_00000041278418733833424600000004262957266148589239_);}
	.st33{clip-path:url(#SVGID_00000027573521742850952550000017747405406429359495_);}
	.st34{clip-path:url(#SVGID_00000093163462448007225970000011612408326845892263_);}
	.st35{clip-path:url(#SVGID_00000132787072519286700120000014472243796353170840_);}
	.st36{clip-path:url(#SVGID_00000048495377148830875120000008583847657406998918_);}
	.st37{clip-path:url(#SVGID_00000101818706000968452250000017696128258804075435_);}
	.st38{clip-path:url(#SVGID_00000026854350172085126360000013262033364628138381_);}
	.st39{clip-path:url(#SVGID_00000076586297534482584160000005384813502865256070_);}
	.st40{clip-path:url(#SVGID_00000101809427614335107660000013096994556592790406_);}
	.st41{clip-path:url(#SVGID_00000109714107317922875730000018420995337837601441_);}
	.st42{clip-path:url(#SVGID_00000015341475463187302770000006607482995052103577_);}
	.st43{clip-path:url(#SVGID_00000097488810709855765900000006786124958938159524_);}
	.st44{clip-path:url(#SVGID_00000042006791817703574260000006757594033985199288_);}
	.st45{clip-path:url(#SVGID_00000165943289076194962480000009788343539384011932_);}
	.st46{clip-path:url(#SVGID_00000142160171172450754580000010506657725298172581_);}
	.st47{clip-path:url(#SVGID_00000149365270993400193130000001912488212193272231_);}
	.st48{clip-path:url(#SVGID_00000109011212255467033700000005800632313888098464_);}
	.st49{clip-path:url(#SVGID_00000080167698370360577730000017269755095108098484_);}
	.st50{clip-path:url(#SVGID_00000075147772428057006850000004474671487354949772_);}
	.st51{clip-path:url(#SVGID_00000022535624991020168320000017151044463411734944_);}
	.st52{clip-path:url(#SVGID_00000020369487101615581680000008121100834986897297_);}
	.st53{clip-path:url(#SVGID_00000089558380901263579370000015974621355693352853_);}
	.st54{clip-path:url(#SVGID_00000068647740136344294940000002316849077359670197_);}
	.st55{clip-path:url(#SVGID_00000072242978506292317530000007961725003987083965_);}
	.st56{clip-path:url(#SVGID_00000152264491014383096650000000894484866799019431_);}
	.st57{clip-path:url(#SVGID_00000138556887496902941570000008808992486984918709_);}
	.st58{clip-path:url(#SVGID_00000042731159285373001390000013473291212982892684_);}
	.st59{clip-path:url(#SVGID_00000009568497937072625630000016592761944079169667_);}
	.st60{clip-path:url(#SVGID_00000005985511511364294690000009322728255946741911_);}
	.st61{clip-path:url(#SVGID_00000155824880979190404340000015597618300714832003_);}
	.st62{fill:#9AB4DE;}
	.st63{clip-path:url(#SVGID_00000023279890824481230760000011866162425078277787_);}
	.st64{clip-path:url(#SVGID_00000043432432829186472480000005314802182734922672_);}
	.st65{clip-path:url(#SVGID_00000065765316413050652450000013434268007661205425_);}
	.st66{fill:#B9C9E9;}
	.st67{clip-path:url(#SVGID_00000120529277748379210310000002587918881691868804_);}
	.st68{clip-path:url(#SVGID_00000008856872561944658510000000376156305833325713_);}
	.st69{clip-path:url(#SVGID_00000141422685925217144170000003725836182262459806_);}
	.st70{clip-path:url(#SVGID_00000042731142488497340180000007040281942460846513_);}
	.st71{clip-path:url(#SVGID_00000072274338012412613140000014499284749252795041_);}
	.st72{clip-path:url(#SVGID_00000158726759341533905770000000795173162605195429_);}
	.st73{clip-path:url(#SVGID_00000147219523392590010650000006843276166358150067_);}
	.st74{clip-path:url(#SVGID_00000006704665646111657340000007771635578426953127_);}
	.st75{clip-path:url(#SVGID_00000113349460140164676430000016995011099059937669_);}
	.st76{clip-path:url(#SVGID_00000044867419739763185760000010447527832531381635_);}
	.st77{clip-path:url(#SVGID_00000104706518278532335270000000330939567915775930_);}
	.st78{clip-path:url(#SVGID_00000115510783746212072130000006127465621436692415_);}
	.st79{clip-path:url(#SVGID_00000049199367706827774840000017784191015681255816_);}
	.st80{clip-path:url(#SVGID_00000036950678362706041830000014309918288303351226_);}
	.st81{clip-path:url(#SVGID_00000089540814930363617860000016467078057135832985_);}
	.st82{clip-path:url(#SVGID_00000132075141602045946960000016991120974867869320_);}
	.st83{clip-path:url(#SVGID_00000036214343913957121650000007491752319496753545_);}
	.st84{clip-path:url(#SVGID_00000026125857784292072710000014121085339860126107_);}
	.st85{clip-path:url(#SVGID_00000165201200164973118470000010680468232724592550_);}
	.st86{clip-path:url(#SVGID_00000080164488317792095440000003338632123092372642_);}
	.st87{clip-path:url(#SVGID_00000102542612900659433090000013026188000078443170_);}
	.st88{clip-path:url(#SVGID_00000155847061330018070420000016316220031515596441_);}
	.st89{clip-path:url(#SVGID_00000124856143882117755690000001180462879153425837_);}
	.st90{clip-path:url(#SVGID_00000175298635974649862410000008185824473619175083_);}
	.st91{clip-path:url(#SVGID_00000138536450335862704830000001564279313883786371_);}
	.st92{clip-path:url(#SVGID_00000013896851214027991270000010593486280532921270_);}
	.st93{clip-path:url(#SVGID_00000066499676757204504190000016091028888776746136_);}
	.st94{clip-path:url(#SVGID_00000112630201687164013830000012863839600587096199_);}
	.st95{clip-path:url(#SVGID_00000041973663007395126870000006318205716827537043_);}
	.st96{clip-path:url(#SVGID_00000062878760019421218970000012682597166462672800_);}
	.st97{clip-path:url(#SVGID_00000054978160906447448100000002448407715411387823_);}
	.st98{clip-path:url(#SVGID_00000147192518273255759730000002821987144730812551_);}
	.st99{clip-path:url(#SVGID_00000039815549255613482870000003178166831984925347_);}
	.st100{clip-path:url(#SVGID_00000006691656794136997150000016876016957894473347_);}
	.st101{clip-path:url(#SVGID_00000157284625757105229710000011261760449090404013_);}
	.st102{clip-path:url(#SVGID_00000057839247321954523310000004901513802750941584_);}
	.st103{clip-path:url(#SVGID_00000044885088398527959480000016432642831223317401_);}
	.st104{clip-path:url(#SVGID_00000093883433538077444100000000065180879707081918_);}
	.st105{clip-path:url(#SVGID_00000150784966461006710090000003910731844291460017_);}
</style>
<g>
	<g>
		<g>
			<g>
				<g>
					<g>
						<g>
							<g>
								<g>
									<polygon class="st4" points="775.8,190.01 740.49,280.23 831.7,236.74 997.94,62.81 942.09,15.44 									"/>
								</g>
							</g>
						</g>
					</g>
				</g>
			</g>
		</g>
	</g>
	<g>
		<defs>
			<rect id="SVGID_00000145755106200490487040000003481397905106698940_" y="13.38" width="1000" height="268.91"/>
		</defs>
		<clipPath id="SVGID_00000166639698189966984080000001779695659629433501_">
			<use xlink:href="#SVGID_00000145755106200490487040000003481397905106698940_"  style="overflow:visible;"/>
		</clipPath>
		<g style="clip-path:url(#SVGID_00000166639698189966984080000001779695659629433501_);">
			<g>
				<g>
					<g>
						<g>
							<g>
								<g>
									<g>
										<path class="st3" d="M740.49,282.21c-0.49,0-0.98-0.18-1.35-0.53c-0.6-0.55-0.79-1.42-0.49-2.17l35.31-90.22
											c0.09-0.24,0.23-0.46,0.41-0.65L940.66,14.07c0.74-0.76,1.93-0.82,2.72-0.14l55.84,47.37c0.42,0.35,0.67,0.86,0.7,1.41
											c0.03,0.55-0.17,1.08-0.55,1.47L833.13,238.11c-0.16,0.17-0.36,0.32-0.58,0.42l-91.21,43.49
											C741.07,282.15,740.78,282.21,740.49,282.21z M777.5,191.1l-33.34,85.19l86.36-41.18L995.05,62.96l-52.81-44.8
											L777.5,191.1z"/>
									</g>
								</g>
							</g>
						</g>
					</g>
				</g>
			</g>
		</g>
		<g style="clip-path:url(#SVGID_00000166639698189966984080000001779695659629433501_);">
			<g>
				<g>
					<g>
						<g>
							<g>
								<g>
									<g>
										<path class="st1" d="M948.52,49.03L801.84,202.54c-4.54,4.76-4.13,12.08,0.92,16.36c5.04,4.28,12.82,3.89,17.36-0.85
											L966.79,64.53L948.52,49.03z"/>
									</g>
								</g>
							</g>
						</g>
					</g>
				</g>
			</g>
		</g>
		<g style="clip-path:url(#SVGID_00000166639698189966984080000001779695659629433501_);">
			<g>
				<g>
					<g>
						<g>
							<g>
								<g>
									<g>
										<path class="st1" d="M810.97,222.73c-3.13,0-6.27-1.05-8.78-3.17c-2.64-2.23-4.18-5.31-4.36-8.65
											c-0.18-3.32,1.02-6.5,3.38-8.97L947.89,48.43c0.33-0.33,0.85-0.36,1.19-0.06l18.26,15.5c0.18,0.15,0.29,0.38,0.31,0.62
											s-0.07,0.47-0.24,0.65L820.74,218.64C818.15,221.35,814.57,222.73,810.97,222.73z M948.58,50.22L802.47,203.14
											c-2.02,2.11-3.05,4.84-2.9,7.67c0.15,2.86,1.48,5.5,3.75,7.42c4.68,3.99,11.95,3.63,16.16-0.79L965.53,64.6L948.58,50.22z
											"/>
									</g>
								</g>
							</g>
						</g>
					</g>
				</g>
			</g>
		</g>
		<g style="clip-path:url(#SVGID_00000166639698189966984080000001779695659629433501_);">
			<g>
				<g>
					<g>
						<g>
							<g>
								<g>
									<g>
										<path class="st1" d="M776.19,245.41c-5.96-4.48-15.38-4.3-16.62-3.01l-13.51,35.88l38.5-18.45
											C784.57,259.82,786.81,253.38,776.19,245.41"/>
									</g>
								</g>
							</g>
						</g>
					</g>
				</g>
			</g>
		</g>
		<g style="clip-path:url(#SVGID_00000166639698189966984080000001779695659629433501_);">
			<g>
				<g>
					<g>
						<g>
							<g>
								<g>
									<g>
										<path class="st1" d="M746.07,279.14c-0.21,0-0.42-0.08-0.58-0.23c-0.26-0.24-0.35-0.61-0.23-0.94l13.5-35.88
											c0.04-0.11,0.11-0.21,0.19-0.3c1.63-1.7,11.49-1.79,17.77,2.92c10.99,8.25,8.77,15.1,8.67,15.39
											c-0.07,0.22-0.24,0.4-0.45,0.5l-38.5,18.45C746.32,279.11,746.2,279.14,746.07,279.14z M760.3,242.92l-12.66,33.63
											l36.18-17.34c0.22-1.33,0.44-6.67-8.14-13.12l0,0C770.15,241.95,761.71,242.08,760.3,242.92z"/>
									</g>
								</g>
							</g>
						</g>
					</g>
				</g>
			</g>
		</g>
		<g style="clip-path:url(#SVGID_00000166639698189966984080000001779695659629433501_);">
			<g>
				<g>
					<g>
						<g>
							<g>
								<g>
									<g>
										<path class="st3" d="M740.51,282.29c-0.52,0-1.02-0.19-1.42-0.56c-0.63-0.58-0.83-1.49-0.52-2.28l35.31-90.21
											c0.09-0.25,0.24-0.48,0.43-0.68L940.58,14.02c0.75-0.8,2-0.87,2.85-0.15l55.84,47.37c0.43,0.37,0.7,0.91,0.73,1.48
											c0.03,0.57-0.18,1.13-0.58,1.55l-166.21,173.9c-0.18,0.18-0.38,0.33-0.61,0.44l-91.2,43.49
											C741.12,282.22,740.81,282.29,740.51,282.29z M777.61,191.14l-33.25,84.92l86.1-41.05L994.89,62.99l-52.66-44.67
											L777.61,191.14z"/>
									</g>
								</g>
							</g>
						</g>
					</g>
				</g>
			</g>
		</g>
		<g style="clip-path:url(#SVGID_00000166639698189966984080000001779695659629433501_);">
			<g>
				<g>
					<g>
						<g>
							<g>
								<g>
									<g>
										<path class="st3" d="M827.39,236.25c-3.25,0-6.52-1.09-9.12-3.29c-2.75-2.32-4.36-5.53-4.54-9.01
											c-0.07-1.41,0.09-2.79,0.47-4.11c-4.68,1.76-10.23,1.01-14.21-2.37c-2.75-2.33-4.36-5.53-4.54-9.03
											c-0.06-1.27,0.06-2.52,0.37-3.72c-4.74,1.97-10.5,1.27-14.62-2.21c-2.75-2.33-4.37-5.53-4.54-9.02
											c-0.18-3.46,1.07-6.78,3.53-9.35l2.01,1.92c-1.92,2.01-2.9,4.6-2.76,7.29c0.14,2.72,1.4,5.22,3.56,7.05
											c4.5,3.82,11.43,3.47,15.46-0.75l0.01,0.01c0.16-0.19,0.33-0.38,0.51-0.56L944.7,46.62l-17.15-14.54l1.79-2.12
											l55.16,46.78l-1.79,2.12l-17.65-14.97L819.26,216.5c-1.92,2.01-2.9,4.6-2.76,7.29c0.14,2.72,1.41,5.22,3.57,7.04
											c4.5,3.81,11.43,3.47,15.46-0.75l2.01,1.92C834.85,234.81,831.13,236.25,827.39,236.25z M946.82,48.42L800.99,201
											c-1.92,2.01-2.89,4.59-2.76,7.29c0.14,2.72,1.41,5.22,3.57,7.05c4.48,3.81,11.43,3.47,15.46-0.76L962.94,62.09
											L946.82,48.42z M988.43,72.87l-55.16-46.79l1.79-2.12l55.16,46.79L988.43,72.87z"/>
									</g>
								</g>
							</g>
						</g>
					</g>
				</g>
			</g>
		</g>
		<g style="clip-path:url(#SVGID_00000166639698189966984080000001779695659629433501_);">
			<g>
				<g>
					<g>
						<g>
							<g>
								<g>
									<g>
										<path class="st1" d="M553.72,66.38c1.19,0.87,2,1.46,3.12,2.39c29.88,24.4,37.6,66.4,16.61,97.61
											c-9.01,13.4-21.95,22.78-36.51,27.73l0.42-0.16c-33.7-27.05-28.47-69.63-28.47-69.63
											C546.02,113.75,553.11,65.93,553.72,66.38"/>
									</g>
								</g>
							</g>
						</g>
					</g>
				</g>
			</g>
		</g>
		<g style="clip-path:url(#SVGID_00000166639698189966984080000001779695659629433501_);">
			<g>
				<g>
					<g>
						<g>
							<g>
								<g>
									<g>
										<path class="st3" d="M508.05,198.23c-38.83,0-70.42-32.49-70.42-72.43c0-2.76,0.15-5.53,0.45-8.25
											c4.03-36.58,34.11-64.17,69.96-64.17c38.82,0,70.4,32.49,70.4,72.42C578.46,165.74,546.87,198.23,508.05,198.23z
											 M441.87,122.71c-0.04,1.03-0.07,2.07-0.07,3.1c0,37.64,29.72,68.26,66.26,68.26c36.53,0,66.24-30.62,66.24-68.26
											c0-21.44-9.64-40.6-24.69-53.12c-5.86,37.43-40.27,54.81-40.63,54.99c-0.73,0.37-1.63,0.26-2.26-0.27
											C483.34,107.85,448.61,120.05,441.87,122.71z M473.66,112.21c11.4,0,23.9,2.64,34.63,11.1
											c6.01-3.39,33.56-20.61,37.52-53.56c-10.72-7.69-23.73-12.2-37.75-12.2c-33.73,0-62.03,25.99-65.83,60.46
											c0,0.03-0.01,0.06-0.01,0.09C447.8,116.02,459.94,112.21,473.66,112.21z"/>
									</g>
								</g>
							</g>
						</g>
					</g>
				</g>
			</g>
		</g>
		<g style="clip-path:url(#SVGID_00000166639698189966984080000001779695659629433501_);">
			<g>
				<g>
					<g>
						<g>
							<g>
								<g>
									<g>
										<path class="st3" d="M524.83,112.64c-28.39-32.96-72.18-25.51-72.6-25.44l-0.75-4.1c0.47-0.08,46.53-7.98,76.51,26.82
											L524.83,112.64z M541.59,88.52c-23.97-28.61-60.21-25.18-60.58-25.14l-0.43-4.14c1.56-0.16,38.79-3.74,64.22,26.61
											L541.59,88.52z"/>
									</g>
								</g>
							</g>
						</g>
					</g>
				</g>
			</g>
		</g>
		<g style="clip-path:url(#SVGID_00000166639698189966984080000001779695659629433501_);">
			<g>
				<g>
					<g>
						<g>
							<g>
								<g>
									<g>
										<path class="st3" d="M501.04,197.53c-0.37-0.4-36.69-40.42-15.18-83.07l3.72,1.87c-20.19,40.04,14.18,77.99,14.53,78.37
											L501.04,197.53z M468.47,185.72c-0.27-0.32-26.98-32.05-12.87-70.61l3.92,1.43c-13.25,36.22,11.86,66.16,12.11,66.46
											L468.47,185.72z M523.4,175.29l-0.89-4.07c36.43-8.07,51.73-45.78,51.88-46.16l3.88,1.53
											C577.61,128.22,562.03,166.72,523.4,175.29z M510.46,150.81l-0.76-4.09c45.9-8.47,56.26-54.5,56.36-54.96l4.07,0.87
											C570.03,93.1,559.15,141.83,510.46,150.81z"/>
									</g>
								</g>
							</g>
						</g>
					</g>
				</g>
			</g>
		</g>
		<g style="clip-path:url(#SVGID_00000166639698189966984080000001779695659629433501_);">
			<g>
				<g>
					<g>
						<g>
							<g>
								<g>
									<g>
										<path class="st3" d="M536.8,190.26c-0.35-0.28-34.98-28.37-29.48-64.45l2.74,0.42c-5.25,34.47,28.13,61.59,28.47,61.86
											L536.8,190.26z"/>
									</g>
								</g>
							</g>
						</g>
					</g>
				</g>
			</g>
		</g>
		<g style="clip-path:url(#SVGID_00000166639698189966984080000001779695659629433501_);">
			<g>
				<g>
					<g>
						<g>
							<g>
								<g>
									<g>
										<path class="st3" d="M588.5,282.29c-0.63,0-1.25-0.29-1.66-0.83l-51.05-67.76c-0.69-0.92-0.51-2.22,0.41-2.92
											c0.92-0.69,2.22-0.51,2.92,0.41l51.05,67.76c0.69,0.92,0.51,2.22-0.41,2.92C589.37,282.16,588.94,282.29,588.5,282.29z"/>
									</g>
								</g>
							</g>
						</g>
					</g>
				</g>
			</g>
		</g>
		<g style="clip-path:url(#SVGID_00000166639698189966984080000001779695659629433501_);">
			<g>
				<g>
					<g>
						<g>
							<g>
								<g>
									<g>
										<path class="st3" d="M609.41,278.26c-0.63,0-1.25-0.29-1.66-0.83l-51.05-67.76c-0.69-0.92-0.51-2.22,0.41-2.92
											c0.92-0.69,2.22-0.51,2.92,0.41l51.05,67.76c0.69,0.92,0.51,2.22-0.41,2.92C610.28,278.12,609.85,278.26,609.41,278.26z"
											/>
									</g>
								</g>
							</g>
						</g>
					</g>
				</g>
			</g>
		</g>
	</g>
	<g>
		<g>
			<g>
				<g>
					<g>
						<g>
							<g>
								<g>
									<path class="st3" d="M621.91,257.16c-0.63,0-1.25-0.29-1.66-0.83l-51.04-67.76c-0.69-0.92-0.51-2.22,0.41-2.92
										c0.92-0.69,2.22-0.51,2.92,0.41l51.04,67.76c0.69,0.92,0.51,2.22-0.41,2.92C622.78,257.03,622.35,257.16,621.91,257.16z"/>
								</g>
							</g>
						</g>
					</g>
				</g>
			</g>
		</g>
	</g>
	<g>
		<defs>
			<rect id="SVGID_00000083784637897336203620000008670255004237524105_" y="13.38" width="1000" height="268.91"/>
		</defs>
		<clipPath id="SVGID_00000036932202442381421580000016431364041739220894_">
			<use xlink:href="#SVGID_00000083784637897336203620000008670255004237524105_"  style="overflow:visible;"/>
		</clipPath>
		<g style="clip-path:url(#SVGID_00000036932202442381421580000016431364041739220894_);">
			<g>
				<g>
					<g>
						<g>
							<g>
								<g>
									<g>
										<path class="st1" d="M260.23,123.64H151.09L132.3,141.9l-26.82-18.26H3.53v154.33h118.95c2.28,2.64,5.64,4.32,9.4,4.32
											c3.76,0,7.12-1.69,9.39-4.32h118.95V123.64z"/>
									</g>
								</g>
							</g>
						</g>
					</g>
				</g>
			</g>
		</g>
		<g style="clip-path:url(#SVGID_00000036932202442381421580000016431364041739220894_);">
			<g>
				<g>
					<g>
						<g>
							<g>
								<g>
									<g>
										<path class="st3" d="M129.25,281.03c-3.84,0-7.5-1.54-10.18-4.26H1.98c-1.09,0-1.98-0.89-1.98-1.98V122.56
											c0-1.09,0.89-1.98,1.98-1.98h101.09c0.39,0,0.79,0.12,1.11,0.34l25.27,17.11l17.47-16.89c0.37-0.36,0.86-0.56,1.38-0.56
											h108.23c1.09,0,1.98,0.89,1.98,1.98v152.23c0,1.09-0.89,1.98-1.98,1.98H139.43C136.75,279.49,133.09,281.03,129.25,281.03
											z M3.96,272.81h115.98c0.58,0,1.13,0.25,1.5,0.68c3.93,4.54,11.68,4.55,15.63,0c0.38-0.43,0.92-0.68,1.5-0.68h115.98
											V124.54H149.09l-18.05,17.45c-0.67,0.65-1.71,0.74-2.49,0.22l-26.1-17.67H3.96V272.81z"/>
									</g>
								</g>
							</g>
						</g>
					</g>
				</g>
			</g>
		</g>
	</g>
	<g>
		<g>
			<g>
				<g>
					<g>
						<g>
							<g>
								<g>
									<rect x="9.69" y="130.08" class="st4" width="118.48" height="140.01"/>
								</g>
							</g>
						</g>
					</g>
				</g>
			</g>
		</g>
	</g>
	<g>
		<g>
			<g>
				<g>
					<g>
						<g>
							<g>
								<g>
									<path class="st3" d="M128.17,272.07H9.69c-1.09,0-1.98-0.88-1.98-1.98V130.08c0-1.09,0.89-1.98,1.98-1.98h118.48
										c1.09,0,1.98,0.88,1.98,1.98v140.01C130.15,271.19,129.26,272.07,128.17,272.07z M11.67,268.11h114.52V132.06H11.67V268.11
										z"/>
								</g>
							</g>
						</g>
					</g>
				</g>
			</g>
		</g>
	</g>
	<g>
		<g>
			<g>
				<g>
					<g>
						<g>
							<g>
								<g>
									<rect x="130.75" y="130.1" class="st4" width="118.48" height="140.01"/>
								</g>
							</g>
						</g>
					</g>
				</g>
			</g>
		</g>
	</g>
	<g>
		<g>
			<g>
				<g>
					<g>
						<g>
							<g>
								<g>
									<path class="st3" d="M249.23,272.09H130.75c-1.09,0-1.98-0.88-1.98-1.98V130.1c0-1.09,0.89-1.98,1.98-1.98h118.48
										c1.09,0,1.98,0.88,1.98,1.98v140.01C251.21,271.2,250.32,272.09,249.23,272.09z M132.73,268.13h114.53V132.07H132.73
										V268.13z"/>
								</g>
							</g>
						</g>
					</g>
				</g>
			</g>
		</g>
	</g>
	<g>
		<defs>
			<rect id="SVGID_00000106864325532695888730000005334219399368275111_" y="13.38" width="1000" height="268.91"/>
		</defs>
		<clipPath id="SVGID_00000068648551263884448800000003377179352076637579_">
			<use xlink:href="#SVGID_00000106864325532695888730000005334219399368275111_"  style="overflow:visible;"/>
		</clipPath>
		<g style="clip-path:url(#SVGID_00000068648551263884448800000003377179352076637579_);">
			<g>
				<g>
					<g>
						<g>
							<g>
								<g>
									<g>
										<path class="st4" d="M128.17,132.4c-9.27-10.41-27.33-18.95-48.85-21.83c-23.22-3.11-44.26,1.2-55.43,10.11v137.72
											c11.16-8.91,32.2-13.22,55.43-10.11c21.52,2.88,39.58,11.42,48.85,21.83V132.4z"/>
									</g>
								</g>
							</g>
						</g>
					</g>
				</g>
			</g>
		</g>
		<g style="clip-path:url(#SVGID_00000068648551263884448800000003377179352076637579_);">
			<g>
				<g>
					<g>
						<g>
							<g>
								<g>
									<g>
										<path class="st3" d="M128.17,272.09c-0.56,0-1.1-0.23-1.48-0.66c-9.24-10.37-27.49-18.49-47.64-21.19
											c-22.07-2.96-42.72,0.76-53.93,9.7c-0.59,0.47-1.4,0.56-2.09,0.24c-0.68-0.33-1.12-1.03-1.12-1.79V120.67
											c0-0.6,0.27-1.17,0.75-1.55c12.01-9.58,33.83-13.61,56.93-10.52c21.36,2.86,40.08,11.26,50.07,22.48
											c0.33,0.36,0.5,0.83,0.5,1.32v137.71c0,0.82-0.51,1.56-1.27,1.85C128.65,272.05,128.41,272.09,128.17,272.09z
											 M64.46,245.29c4.92,0,9.99,0.34,15.12,1.02c19.1,2.56,36.08,9.55,46.61,19.01V133.16
											c-9.39-10.11-27.35-17.99-47.14-20.64c-21.59-2.89-41.84,0.6-53.18,9.11v132.91C35.31,248.55,49.12,245.29,64.46,245.29z"
											/>
									</g>
								</g>
							</g>
						</g>
					</g>
				</g>
			</g>
		</g>
		<g style="clip-path:url(#SVGID_00000068648551263884448800000003377179352076637579_);">
			<g>
				<g>
					<g>
						<g>
							<g>
								<g>
									<g>
										<path class="st4" d="M130.33,132.4c1.4-1.58,3.01-3.11,4.8-4.59c10.02-8.28,25.79-14.8,44.06-17.24
											c23.22-3.11,44.26,1.2,55.43,10.11v137.72c-11.16-8.91-32.2-13.22-55.43-10.11c-21.52,2.88-39.58,11.42-48.85,21.83V132.4
											z"/>
									</g>
								</g>
							</g>
						</g>
					</g>
				</g>
			</g>
		</g>
		<g style="clip-path:url(#SVGID_00000068648551263884448800000003377179352076637579_);">
			<g>
				<g>
					<g>
						<g>
							<g>
								<g>
									<g>
										<path class="st3" d="M130.33,272.09c-0.24,0-0.47-0.04-0.71-0.13c-0.77-0.29-1.27-1.03-1.27-1.85V132.4
											c0-0.49,0.18-0.95,0.5-1.32c1.46-1.64,3.15-3.25,5.02-4.8c10.69-8.84,27.11-15.28,45.05-17.68
											c23.12-3.09,44.91,0.94,56.93,10.52c0.47,0.38,0.75,0.95,0.75,1.55v137.72c0,0.76-0.43,1.46-1.12,1.79
											c-0.67,0.33-1.49,0.24-2.09-0.24c-11.2-8.93-31.84-12.66-53.93-9.7c-20.15,2.7-38.4,10.82-47.64,21.19
											C131.43,271.86,130.88,272.09,130.33,272.09z M132.31,133.16v132.16c10.53-9.47,27.51-16.46,46.61-19.01
											c21.16-2.83,41.25,0.32,53.71,8.24V121.64c-11.36-8.52-31.63-12.01-53.18-9.11c-17.23,2.31-32.92,8.43-43.06,16.81
											C134.88,130.58,133.51,131.86,132.31,133.16z"/>
									</g>
								</g>
							</g>
						</g>
					</g>
				</g>
			</g>
		</g>
	</g>
	<g>
		<g>
			<g>
				<g>
					<g>
						<g>
							<g>
								<g>
									<polygon class="st4" points="126.18,128.27 126.18,213.8 129.35,206.27 132.52,213.8 132.52,128.27 									"/>
								</g>
							</g>
						</g>
					</g>
				</g>
			</g>
		</g>
	</g>
	<g>
		<g>
			<g>
				<g>
					<g>
						<g>
							<g>
								<g>
									<polygon class="st1" points="127.82,128.42 127.82,213.96 130.98,206.42 134.15,213.96 134.15,128.42 									"/>
								</g>
							</g>
						</g>
					</g>
				</g>
			</g>
		</g>
	</g>
	<g>
		<g>
			<g>
				<g>
					<g>
						<g>
							<g>
								<g>
									<path class="st3" d="M131.43,214.7c-0.87,0-1.66-0.58-1.91-1.44l-0.18-0.63l-0.18,0.63c-0.27,0.95-1.23,1.56-2.18,1.42
										c-0.98-0.14-1.71-0.97-1.71-1.96v-83.38c0-1.09,0.89-1.98,1.98-1.98h4.17c1.09,0,1.98,0.89,1.98,1.98v83.38
										c0,0.99-0.73,1.83-1.71,1.96C131.62,214.7,131.52,214.7,131.43,214.7z M129.24,131.33v72.07c0.04,0,0.07,0,0.11,0l0,0
										c0.03,0,0.07,0,0.1,0L129.24,131.33z"/>
								</g>
							</g>
						</g>
					</g>
				</g>
			</g>
		</g>
	</g>
	<g>
		<defs>
			<rect id="SVGID_00000014635811903593324890000008229370247569110691_" y="13.38" width="1000" height="268.91"/>
		</defs>
		<clipPath id="SVGID_00000152983946079711662890000018443416784666012342_">
			<use xlink:href="#SVGID_00000014635811903593324890000008229370247569110691_"  style="overflow:visible;"/>
		</clipPath>
		<g style="clip-path:url(#SVGID_00000152983946079711662890000018443416784666012342_);">
			<g>
				<g>
					<g>
						<g>
							<g>
								<g>
									<g>
										<path class="st4" d="M128.17,127.93c-9.27-10.42-27.33-18.96-48.85-21.84c-23.22-3.11-44.26,1.2-55.43,10.11v137.76
											c11.16-8.91,32.2-13.22,55.43-10.11c21.52,2.88,39.58,15.45,48.85,25.87V127.93z"/>
									</g>
								</g>
							</g>
						</g>
					</g>
				</g>
			</g>
		</g>
		<g style="clip-path:url(#SVGID_00000152983946079711662890000018443416784666012342_);">
			<g>
				<g>
					<g>
						<g>
							<g>
								<g>
									<g>
										<path class="st3" d="M128.17,271.71c-0.56,0-1.1-0.23-1.48-0.66c-8.79-9.87-26.53-22.4-47.64-25.23
											c-22.05-2.96-42.73,0.76-53.93,9.7c-0.59,0.47-1.4,0.56-2.09,0.24c-0.68-0.33-1.12-1.03-1.12-1.79V116.21
											c0-0.6,0.27-1.17,0.75-1.55c12.01-9.59,33.86-13.62,56.93-10.53c21.36,2.86,40.08,11.27,50.07,22.49
											c0.33,0.36,0.5,0.83,0.5,1.32v141.79c0,0.82-0.51,1.56-1.27,1.85C128.65,271.67,128.41,271.71,128.17,271.71z
											 M64.45,240.86c4.92,0,9.99,0.34,15.13,1.02c19.69,2.64,36.6,13.31,46.61,22.93V128.7
											c-9.38-10.11-27.35-17.99-47.14-20.64c-21.61-2.9-41.84,0.61-53.18,9.12v132.95C35.31,244.13,49.11,240.86,64.45,240.86z"
											/>
									</g>
								</g>
							</g>
						</g>
					</g>
				</g>
			</g>
		</g>
		<g style="clip-path:url(#SVGID_00000152983946079711662890000018443416784666012342_);">
			<g>
				<g>
					<g>
						<g>
							<g>
								<g>
									<g>
										<path class="st4" d="M130.33,127.93c1.4-1.58,3.01-3.11,4.8-4.59c10.02-8.28,25.79-14.81,44.06-17.25
											c23.22-3.11,44.26,1.2,55.43,10.11v137.76c-11.16-8.91-32.2-13.22-55.43-10.11c-21.52,2.88-39.58,15.59-48.85,26.01
											V127.93z"/>
									</g>
								</g>
							</g>
						</g>
					</g>
				</g>
			</g>
		</g>
		<g style="clip-path:url(#SVGID_00000152983946079711662890000018443416784666012342_);">
			<g>
				<g>
					<g>
						<g>
							<g>
								<g>
									<g>
										<path class="st3" d="M130.33,271.84c-0.24,0-0.47-0.04-0.71-0.13c-0.77-0.29-1.27-1.03-1.27-1.85V127.93
											c0-0.49,0.18-0.95,0.5-1.32c1.46-1.64,3.15-3.25,5.02-4.8c10.7-8.84,27.12-15.29,45.05-17.69
											c23.1-3.09,44.92,0.94,56.93,10.53c0.47,0.38,0.75,0.95,0.75,1.55v137.76c0,0.76-0.43,1.46-1.12,1.79
											c-0.69,0.33-1.51,0.24-2.09-0.24c-11.2-8.94-31.88-12.66-53.93-9.7c-21,2.81-38.79,15.42-47.64,25.36
											C131.43,271.61,130.88,271.84,130.33,271.84z M132.31,128.7v136.24c10.29-9.99,26.96-20.41,46.61-23.05
											c21.17-2.84,41.25,0.32,53.71,8.24V117.18c-11.36-8.52-31.63-12.01-53.18-9.12c-17.22,2.31-32.91,8.43-43.06,16.81
											C134.88,126.11,133.51,127.4,132.31,128.7z"/>
									</g>
								</g>
							</g>
						</g>
					</g>
				</g>
			</g>
		</g>
	</g>
	<g>
		<g>
			<g>
				<g>
					<g>
						<g>
							<g>
								<g>
									<polygon class="st4" points="126.18,123.79 126.18,209.33 129.35,201.79 132.52,209.33 132.52,123.79 									"/>
								</g>
							</g>
						</g>
					</g>
				</g>
			</g>
		</g>
	</g>
	<g>
		<g>
			<g>
				<g>
					<g>
						<g>
							<g>
								<g>
									<polygon class="st1" points="127.82,123.95 127.82,209.48 130.98,201.95 134.15,209.48 134.15,123.95 									"/>
								</g>
							</g>
						</g>
					</g>
				</g>
			</g>
		</g>
	</g>
	<g>
		<g>
			<g>
				<g>
					<g>
						<g>
							<g>
								<g>
									<path class="st3" d="M131.43,210.23c-0.87,0-1.66-0.58-1.91-1.44l-0.18-0.63l-0.18,0.63c-0.27,0.95-1.23,1.57-2.18,1.42
										c-0.98-0.14-1.71-0.97-1.71-1.96v-83.38c0-1.09,0.89-1.98,1.98-1.98h4.17c1.09,0,1.98,0.89,1.98,1.98v83.38
										c0,0.99-0.73,1.83-1.71,1.96C131.62,210.23,131.52,210.23,131.43,210.23z M129.24,126.86v72.07c0.04,0,0.07,0,0.11,0l0,0
										c0.03,0,0.07,0,0.1,0L129.24,126.86z"/>
								</g>
							</g>
						</g>
					</g>
				</g>
			</g>
		</g>
	</g>
	<g>
		<defs>
			<rect id="SVGID_00000127044725186433873520000013727625996116420539_" y="13.38" width="1000" height="268.91"/>
		</defs>
		<clipPath id="SVGID_00000178908632693201561610000004089199322111871113_">
			<use xlink:href="#SVGID_00000127044725186433873520000013727625996116420539_"  style="overflow:visible;"/>
		</clipPath>
		<g style="clip-path:url(#SVGID_00000178908632693201561610000004089199322111871113_);">
			<g>
				<g>
					<g>
						<g>
							<g>
								<g>
									<g>
										<path class="st4" d="M128.17,123.47c-9.27-10.42-27.33-18.97-48.85-21.85c-23.22-3.11-44.26,1.2-55.43,10.11v137.8
											c11.16-8.91,32.2-13.22,55.43-10.11c21.52,2.88,39.58,19.48,48.85,29.9V123.47z"/>
									</g>
								</g>
							</g>
						</g>
					</g>
				</g>
			</g>
		</g>
		<g style="clip-path:url(#SVGID_00000178908632693201561610000004089199322111871113_);">
			<g>
				<g>
					<g>
						<g>
							<g>
								<g>
									<g>
										<path class="st3" d="M128.17,271.3c-0.56,0-1.1-0.23-1.48-0.66c-8.64-9.7-26.3-26.39-47.64-29.25
											c-22.1-2.96-42.72,0.77-53.93,9.7c-0.59,0.47-1.4,0.56-2.09,0.24c-0.68-0.33-1.12-1.03-1.12-1.79v-137.8
											c0-0.6,0.27-1.17,0.75-1.55c12.01-9.59,33.83-13.62,56.93-10.53c21.36,2.86,40.08,11.27,50.07,22.49
											c0.33,0.36,0.5,0.83,0.5,1.32v145.86c0,0.82-0.51,1.56-1.27,1.85C128.65,271.26,128.41,271.3,128.17,271.3z M64.45,236.44
											c4.92,0,9.99,0.34,15.13,1.02c20.01,2.68,36.78,16.63,46.61,26.81V124.23c-9.39-10.11-27.35-18-47.14-20.65
											c-21.57-2.89-41.84,0.6-53.18,9.12V245.7C35.31,239.7,49.12,236.44,64.45,236.44z"/>
									</g>
								</g>
							</g>
						</g>
					</g>
				</g>
			</g>
		</g>
		<g style="clip-path:url(#SVGID_00000178908632693201561610000004089199322111871113_);">
			<g>
				<g>
					<g>
						<g>
							<g>
								<g>
									<g>
										<path class="st4" d="M130.33,123.47c1.4-1.58,3.01-3.11,4.8-4.59c10.02-8.29,25.79-14.81,44.06-17.26
											c23.22-3.11,44.26,1.2,55.43,10.11v137.81c-11.16-8.91-32.2-13.23-55.43-10.12c-21.52,2.88-39.58,19.66-48.85,30.08
											V123.47z"/>
									</g>
								</g>
							</g>
						</g>
					</g>
				</g>
			</g>
		</g>
		<g style="clip-path:url(#SVGID_00000178908632693201561610000004089199322111871113_);">
			<g>
				<g>
					<g>
						<g>
							<g>
								<g>
									<g>
										<path class="st3" d="M130.33,271.49c-0.24,0-0.47-0.04-0.71-0.13c-0.77-0.29-1.27-1.03-1.27-1.85V123.47
											c0-0.49,0.18-0.95,0.5-1.32c1.46-1.64,3.15-3.25,5.02-4.8c10.69-8.84,27.11-15.29,45.05-17.69
											c23.1-3.09,44.92,0.94,56.93,10.53c0.47,0.38,0.75,0.95,0.75,1.55v137.81c0,0.76-0.43,1.46-1.12,1.79
											c-0.69,0.33-1.51,0.24-2.09-0.24c-11.2-8.94-31.84-12.66-53.93-9.71c-21.18,2.84-38.93,19.66-47.64,29.43
											C131.43,271.25,130.88,271.49,130.33,271.49z M132.31,124.23v140.21c9.89-10.26,26.72-24.33,46.61-26.99
											c21.17-2.84,41.25,0.32,53.71,8.25v-133c-11.35-8.52-31.59-12.01-53.18-9.12c-17.23,2.31-32.92,8.44-43.06,16.82
											C134.89,121.65,133.52,122.93,132.31,124.23z"/>
									</g>
								</g>
							</g>
						</g>
					</g>
				</g>
			</g>
		</g>
	</g>
	<g>
		<g>
			<g>
				<g>
					<g>
						<g>
							<g>
								<g>
									<polygon class="st4" points="126.18,119.32 126.18,204.86 129.35,197.32 132.52,204.86 132.52,119.32 									"/>
								</g>
							</g>
						</g>
					</g>
				</g>
			</g>
		</g>
	</g>
	<g>
		<g>
			<g>
				<g>
					<g>
						<g>
							<g>
								<g>
									<polygon class="st1" points="127.82,119.48 127.82,205.02 130.98,197.48 134.15,205.02 134.15,119.48 									"/>
								</g>
							</g>
						</g>
					</g>
				</g>
			</g>
		</g>
	</g>
	<g>
		<g>
			<g>
				<g>
					<g>
						<g>
							<g>
								<g>
									<path class="st3" d="M131.43,205.76c-0.87,0-1.66-0.58-1.91-1.44l-0.18-0.63l-0.18,0.63c-0.27,0.95-1.23,1.56-2.18,1.42
										c-0.98-0.14-1.71-0.97-1.71-1.96V120.4c0-1.09,0.89-1.98,1.98-1.98h4.17c1.09,0,1.98,0.89,1.98,1.98v83.38
										c0,0.99-0.73,1.83-1.71,1.96C131.62,205.75,131.52,205.76,131.43,205.76z M129.24,122.38v72.07c0.04,0,0.07,0,0.11,0l0,0
										c0.03,0,0.07,0,0.1,0L129.24,122.38z"/>
								</g>
							</g>
						</g>
					</g>
				</g>
			</g>
		</g>
	</g>
</g>
</svg>
