<?xml version="1.0" encoding="UTF-8" standalone="no"?> <svg xmlns="http://www.w3.org/2000/svg" xmlns:xlink="http://www.w3.org/1999/xlink" version="1.1" width="595.276pt" height="841.89pt" viewBox="0 0 595.276 841.89"><g><g id="Layer-1" data-name="Span"><text fill="#292c68" xml:space="preserve" transform="matrix(1 0 -0 1 0 841.89)" font-size="13" font-family="DINPro" font-weight="bold"><tspan y="-733.6339" x="113.4409 124.71191 132.0959 136.4509 142.9509 150.6599 158.0439 165.7529 169.0289 177.5829 185.1229 191.89589 198.39589 206.10489 210.58989 218.29889 225.00688 231.77988 235.05588 242.45287 249.65486 257.36387 265.07289 268.34889 272.57389 280.2829 286.4579 289.7339 298.6389 302.47389 310.1829 317.7359 321.0119 332.6599 339.8619 346.3619 354.07093 361.45494 369.16395">Welchen Abschluss kann Ihr Kind machen?</tspan></text></g><g id="Layer-1" data-name="Span"><text fill="#6093cd" xml:space="preserve" transform="matrix(1 0 -0 1 0 841.89)" font-size="13" font-family="DINPro" font-weight="bold"><tspan y="-718.0339" x="113.4409 125.2319 132.9409 140.1429 144.9789 148.2549 155.80789 163.51689 170.71889 175.20389 179.0389 183.74489 187.5799 194.0149 201.21689 206.05289 209.8879 217.2069 224.9159 228.1919 234.62689 241.82889 249.53789 252.81389 259.36589 266.68489 274.3939 280.56889 283.84489 290.34489 298.0539 301.8889 306.2439 313.7969 317.0729 324.2749 330.7749 338.48393 342.3189 349.5729 356.1119 363.4959">What qualification can your child achieve?</tspan></text></g><g id="Layer-1" data-name="Artifact"><path transform="matrix(1,0,0,-1,0,841.89)" d="M 113.641 516.85 L 122.28 516.85 L 122.28 641.09097 L 113.641 641.09097 Z " fill="#93b1dd"></path></g><g id="Layer-1" data-name="Artifact"><path transform="matrix(1,0,0,-1,0,841.89)" d="M 305.433 346.436 L 314.07203 346.436 L 314.07203 488.055 L 305.433 488.055 Z " fill="#93b1dd"></path></g><g id="Layer-1" data-name="Artifact"><path transform="matrix(1,0,0,-1,0,841.89)" d="M 113.941 183.808 L 122.58 183.808 L 122.58 348.542 L 113.941 348.542 Z " fill="#93b1dd"></path></g><g id="Layer-1" data-name="Artifact"><path transform="matrix(1,0,0,-1,0,841.89)" d="M 113.272 641.125 L 290.55903 641.125 L 290.55903 661.925 L 113.272 661.925 Z " fill="#6093cd"></path></g><g id="Layer-1" data-name="Artifact"><path transform="matrix(1,0,0,-1,0,841.89)" d="M 305.15 487.828 L 482.741 487.828 L 482.741 511.752 L 305.15 511.752 Z " fill="#6093cd"></path></g><g id="Layer-1" data-name="Artifact"><path transform="matrix(1,0,0,-1,0,841.89)" d="M 113.886 347.127 L 290.551 347.127 L 290.551 369.342 L 113.886 369.342 Z " fill="#6093cd"></path></g><path transform="matrix(1,0,0,-1,0,841.89)" stroke-width=".6" stroke-linecap="butt" stroke-linejoin="round" fill="none" stroke="#2a2c68" d="M 113.536 516.807 L 290.701 516.807 L 290.701 661.907 L 113.536 661.907 Z "></path><g id="Layer-1" data-name="Artifact"><path transform="matrix(1,0,0,-1,0,841.89)" stroke-width=".6" stroke-linecap="butt" stroke-linejoin="round" fill="none" stroke="#2a2c68" d="M 305.224 345.937 L 482.38899 345.937 L 482.38899 511.837 L 305.224 511.837 Z "></path></g><g id="Layer-1" data-name="Artifact"><path transform="matrix(1,0,0,-1,0,841.89)" stroke-width=".6" stroke-linecap="butt" stroke-linejoin="round" fill="none" stroke="#2a2c68" d="M 113.441 183.308 L 290.606 183.308 L 290.606 369.04103 L 113.441 369.04103 Z "></path></g><g id="Layer-1" data-name="Artifact"><path transform="matrix(1,0,0,-1,113.4138,200.78314)" stroke-width=".6" stroke-linecap="butt" stroke-miterlimit="4" stroke-linejoin="miter" fill="none" stroke="#2a2c68" d="M 0 0 L 177.165 0 "></path></g><g id="Layer-1" data-name="Artifact"><path transform="matrix(1,0,0,-1,305.2913,353.8348)" stroke-width=".6" stroke-linecap="butt" stroke-miterlimit="4" stroke-linejoin="miter" fill="none" stroke="#2a2c68" d="M 0 0 L 177.598 0 "></path></g><g id="Layer-1" data-name="Span"><text fill="#ffffff" xml:space="preserve" transform="matrix(1 0 -0 1 0 841.89)" font-size="13" font-family="DINPro" font-weight="bold"><tspan y="-647.5591" x="141.74 150.112 157.496 164.698 169.183 175.956 182.456 190.165 197.874 202.359 209.56099 217.10099 223.87398 230.37398 238.08298 242.56798 250.27698 256.985">Realschulabschluss</tspan></text></g><g id="Layer-1" data-name="Span"><text fill="#ffffff" xml:space="preserve" transform="matrix(1 0 -0 1 0 841.89)" font-size="13" font-family="DINPro" font-weight="bold"><tspan y="-496.6929" x="334.3061 341.84608 349.04808 355.54808 363.25709 370.9661 378.2851 384.7851 392.4941 399.26713 405.76713 413.47615 421.18516 425.67018 431.45515 438.83915 442.67414 447.18385">Fachhochschulreife</tspan></text></g><g id="Layer-1" data-name="Span"><text fill="#ffffff" xml:space="preserve" transform="matrix(1 0 -0 1 0 841.89)" font-size="13" font-family="DINPro" font-weight="bold"><tspan y="-355.2015" x="130.68 139.845 147.164 153.664 161.373 168.146 174.646 182.355 190.064 194.549 200.334 207.718 211.55301 216.064 223.448 226.724 231.352 239.906 247.446 251.281 256.117 263.82603 270.001">Hochschulreife (Abitur)</tspan></text></g><g id="Layer-1" data-name="Artifact"><path transform="matrix(1,0,0,-1,113.7858,241.88269)" stroke-width=".6" stroke-linecap="butt" stroke-linejoin="round" fill="none" stroke="#2a2c68" d="M 0 0 L 176.665 0 "></path></g><g id="Layer-1" data-name="Artifact"><path transform="matrix(1,0,0,-1,305.4744,412.7528)" stroke-width=".6" stroke-linecap="butt" stroke-linejoin="round" fill="none" stroke="#2a2c68" d="M 0 0 L 176.665 0 "></path></g><g id="Layer-1" data-name="Artifact"><path transform="matrix(1,0,0,-1,113.6909,534.9906)" stroke-width=".6" stroke-linecap="butt" stroke-linejoin="round" fill="none" stroke="#2a2c68" d="M 0 0 L 176.665 0 "></path></g><g id="Layer-1" data-name="Artifact"><path transform="matrix(1,0,0,-1,113.7858,221.08289)" stroke-width=".6" stroke-linecap="butt" stroke-linejoin="round" fill="none" stroke="#2a2c68" d="M 0 0 L 176.665 0 "></path></g><g id="Layer-1" data-name="Artifact"><path transform="matrix(1,0,0,-1,305.4744,391.953)" stroke-width=".6" stroke-linecap="butt" stroke-linejoin="round" fill="none" stroke="#2a2c68" d="M 0 0 L 176.665 0 "></path></g><g id="Layer-1" data-name="Artifact"><path transform="matrix(1,0,0,-1,113.6909,514.1908)" stroke-width=".6" stroke-linecap="butt" stroke-linejoin="round" fill="none" stroke="#2a2c68" d="M 0 0 L 176.665 0 "></path></g><g id="Layer-1" data-name="Artifact"><path transform="matrix(1,0,0,-1,305.4744,372.1527)" stroke-width=".6" stroke-linecap="butt" stroke-linejoin="round" fill="none" stroke="#2a2c68" d="M 0 0 L 176.665 0 "></path></g><g id="Layer-1" data-name="Artifact"><path transform="matrix(1,0,0,-1,113.6909,494.3905)" stroke-width=".6" stroke-linecap="butt" stroke-linejoin="round" fill="none" stroke="#2a2c68" d="M 0 0 L 176.665 0 "></path></g><g id="Layer-1" data-name="Artifact"><path transform="matrix(1,0,0,-1,113.7858,262.18305)" stroke-width=".6" stroke-linecap="butt" stroke-linejoin="round" fill="none" stroke="#2a2c68" d="M 0 0 L 176.665 0 "></path></g><g id="Layer-1" data-name="Artifact"><path transform="matrix(1,0,0,-1,305.4744,433.0526)" stroke-width=".6" stroke-linecap="butt" stroke-linejoin="round" fill="none" stroke="#2a2c68" d="M 0 0 L 176.665 0 "></path></g><g id="Layer-1" data-name="Artifact"><path transform="matrix(1,0,0,-1,113.6909,555.2909)" stroke-width=".6" stroke-linecap="butt" stroke-linejoin="round" fill="none" stroke="#2a2c68" d="M 0 0 L 176.665 0 "></path></g><g id="Layer-1" data-name="Artifact"><path transform="matrix(1,0,0,-1,113.7858,283.9828)" stroke-width=".6" stroke-linecap="butt" stroke-linejoin="round" fill="none" stroke="#2a2c68" d="M 0 0 L 176.665 0 "></path></g><g id="Layer-1" data-name="Artifact"><path transform="matrix(1,0,0,-1,305.4744,454.8529)" stroke-width=".6" stroke-linecap="butt" stroke-linejoin="round" fill="none" stroke="#2a2c68" d="M 0 0 L 176.665 0 "></path></g><g id="Layer-1" data-name="Artifact"><path transform="matrix(1,0,0,-1,113.6909,577.0907)" stroke-width=".6" stroke-linecap="butt" stroke-linejoin="round" fill="none" stroke="#2a2c68" d="M 0 0 L 176.665 0 "></path></g><g id="Layer-1" data-name="Artifact"><path transform="matrix(1,0,0,-1,113.7858,304.7826)" stroke-width=".6" stroke-linecap="butt" stroke-linejoin="round" fill="none" stroke="#2a2c68" d="M 0 0 L 176.665 0 "></path></g><g id="Layer-1" data-name="Artifact"><path transform="matrix(1,0,0,-1,305.4744,475.6527)" stroke-width=".6" stroke-linecap="butt" stroke-linejoin="round" fill="none" stroke="#2a2c68" d="M 0 0 L 176.665 0 "></path></g><g id="Layer-1" data-name="Artifact"><path transform="matrix(1,0,0,-1,113.6909,597.8905)" stroke-width=".6" stroke-linecap="butt" stroke-linejoin="round" fill="none" stroke="#2a2c68" d="M 0 0 L 176.665 0 "></path></g><g id="Layer-1" data-name="Artifact"><path transform="matrix(1,0,0,-1,113.6909,616.9818)" stroke-width=".6" stroke-linecap="butt" stroke-linejoin="round" fill="none" stroke="#2a2c68" d="M 0 0 L 176.665 0 "></path></g><g id="Layer-1" data-name="Artifact"><path transform="matrix(1,0,0,-1,113.6909,638.1991)" stroke-width=".6" stroke-linecap="butt" stroke-linejoin="round" fill="none" stroke="#2a2c68" d="M 0 0 L 176.665 0 "></path></g><g id="Layer-1" data-name="Artifact"><path transform="matrix(1,0,0,-1,113.6909,658.5824)" stroke-width=".6" stroke-linecap="butt" stroke-linejoin="round" fill="none" stroke="#2a2c68" d="M 0 0 L 176.665 0 "></path></g><g id="Layer-1" data-name="Span"><text fill="#2a2c68" xml:space="preserve" transform="matrix(1 0 -0 1 0 841.89)" font-size="9.5" font-family="DINPro"><tspan y="-543.2354" x="166.0951 172.44109 175.49059 180.62059 185.40859 190.24408 195.45958 197.83458 202.99308 205.36808 209.07308 211.44808 216.09358 221.30908 226.43909 230.70459 233.07959">Klasse 6 / Year 6</tspan></text></g><g id="Layer-1" data-name="Span"><text fill="#2a2c68" xml:space="preserve" transform="matrix(1 0 -0 1 0 841.89)" font-size="9.5" font-family="DINPro"><tspan y="-372.3653" x="357.7837 364.1297 367.1792 372.3092 377.09724 381.93275 387.14826 389.52326 394.68177 397.05677 400.76176 403.13676 407.78227 412.99778 418.12779 422.39329 424.76829">Klasse 6 / Year 6</tspan></text></g><g id="Layer-1" data-name="Span"><text fill="#2a2c68" xml:space="preserve" transform="matrix(1 0 -0 1 0 841.89)" font-size="9.5" font-family="DINPro"><tspan y="-250.1275" x="166.0002 172.34619 175.39569 180.5257 185.31369 190.14919 195.36469 197.73969 202.89818 205.27318 208.97818 211.35318 215.99869 221.21419 226.3442 230.6097 232.9847">Klasse 8 / Year 8</tspan></text></g><g id="Layer-1" data-name="Span"><text fill="#2a2c68" xml:space="preserve" transform="matrix(1 0 -0 1 0 841.89)" font-size="9.5" font-family="DINPro"><tspan y="-210.2362" x="166.0002 172.34619 175.39569 180.5257 185.31369 190.14919 195.36469 197.73969 202.89818 205.27318 208.97818 211.35318 215.99869 221.21419 226.3442 230.6097 232.9847">Klasse 6 / Year 6</tspan></text></g><g id="Layer-1" data-name="Span"><text fill="#2a2c68" xml:space="preserve" transform="matrix(1 0 -0 1 0 841.89)" font-size="9.5" font-family="DINPro"><tspan y="-190.4362" x="166.0002 172.34619 175.39569 180.5257 185.31369 190.14919 195.36469 197.73969 202.89818 205.27318 208.97818 211.35318 215.99869 221.21419 226.3442 230.6097 232.9847">Klasse 5 / Year 5</tspan></text></g><g id="Layer-1" data-name="Span"><text fill="#2a2c68" xml:space="preserve" transform="matrix(1 0 -0 1 0 841.89)" font-size="9.5" font-family="DINPro"><tspan y="-565.0354" x="166.0951 172.44109 175.49059 180.62059 185.40859 190.24408 195.45958 197.83458 202.99308 205.36808 209.07308 211.44808 216.09358 221.30908 226.43909 230.70459 233.07959">Klasse 7 / Year 7</tspan></text></g><g id="Layer-1" data-name="Span"><text fill="#2a2c68" xml:space="preserve" transform="matrix(1 0 -0 1 0 841.89)" font-size="9.5" font-family="DINPro"><tspan y="-394.1653" x="357.7837 364.1297 367.1792 372.3092 377.09724 381.93275 387.14826 389.52326 394.68177 397.05677 400.76176 403.13676 407.78227 412.99778 418.12779 422.39329 424.76829">Klasse 7 / Year 7</tspan></text></g><g id="Layer-1" data-name="Span"><text fill="#2a2c68" xml:space="preserve" transform="matrix(1 0 -0 1 0 841.89)" font-size="9.5" font-family="DINPro"><tspan y="-271.9275" x="166.0002 172.34619 175.39569 180.5257 185.31369 190.14919 195.36469 197.73969 202.89818 205.27318 208.97818 211.35318 215.99869 221.21419 226.3442 230.6097 232.9847">Klasse 9 / Year 9</tspan></text></g><g id="Layer-1" data-name="Span"><text fill="#2a2c68" xml:space="preserve" transform="matrix(1 0 -0 1 0 841.89)" font-size="9.5" font-family="DINPro"><tspan y="-585.8354" x="166.0951 172.44109 175.49059 180.62059 185.40859 190.24408 195.45958 197.83458 202.99308 205.36808 209.07308 211.44808 216.09358 221.30908 226.43909 230.70459 233.07959">Klasse 8 / Year 8</tspan></text></g><g id="Layer-1" data-name="Span"><text fill="#2a2c68" xml:space="preserve" transform="matrix(1 0 -0 1 0 841.89)" font-size="9.5" font-family="DINPro"><tspan y="-414.9653" x="357.7837 364.1297 367.1792 372.3092 377.09724 381.93275 387.14826 389.52326 394.68177 397.05677 400.76176 403.13676 407.78227 412.99778 418.12779 422.39329 424.76829">Klasse 8 / Year 8</tspan></text></g><g id="Layer-1" data-name="Span"><text fill="#2a2c68" xml:space="preserve" transform="matrix(1 0 -0 1 0 841.89)" font-size="9.5" font-family="DINPro"><tspan y="-292.7275" x="160.8418 167.18779 170.23729 175.3673 180.15529 184.99079 190.20629 192.58129 197.73978 202.89827 205.27327 208.97827 211.35327 215.99878 221.21428 226.34429 230.60979 232.98479 238.14328">Klasse 10 / Year 10</tspan></text></g><g id="Layer-1" data-name="Span"><text fill="#2a2c68" xml:space="preserve" transform="matrix(1 0 -0 1 0 841.89)" font-size="9.5" font-family="DINPro"><tspan y="-606.6354" x="166.0951 172.44109 175.49059 180.62059 185.40859 190.24408 195.45958 197.83458 202.99308 205.36808 209.07308 211.44808 216.09358 221.30908 226.43909 230.70459 233.07959">Klasse 9 / Year 9</tspan></text></g><g id="Layer-1" data-name="Span"><text fill="#2a2c68" xml:space="preserve" transform="matrix(1 0 -0 1 0 841.89)" font-size="9.5" font-family="DINPro"><tspan y="-435.7653" x="357.7837 364.1297 367.1792 372.3092 377.09724 381.93275 387.14826 389.52326 394.68177 397.05677 400.76176 403.13676 407.78227 412.99778 418.12779 422.39329 424.76829">Klasse 9 / Year 9</tspan></text></g><g id="Layer-1" data-name="Span"><text fill="#2a2c68" xml:space="preserve" transform="matrix(1 0 -0 1 0 841.89)" font-size="9.5" font-family="DINPro"><tspan y="-313.5275" x="160.8418 167.18779 170.23729 175.3673 180.15529 184.99079 190.20629 192.58129 197.73978 202.89827 205.27327 208.97827 211.35327 215.99878 221.21428 226.34429 230.60979 232.98479 238.14328">Klasse 11 / Year 11</tspan></text></g><g id="Layer-1" data-name="Span"><text fill="#2a2c68" xml:space="preserve" transform="matrix(1 0 -0 1 0 841.89)" font-size="9.5" font-family="DINPro"><tspan y="-627.4354" x="160.9367 167.2827 170.3322 175.4622 180.2502 185.0857 190.3012 192.6762 197.83469 202.99318 205.36818 209.07318 211.44818 216.09369 221.30919 226.4392 230.7047 233.0797 238.23819">Klasse 10 / Year 10</tspan></text></g><g id="Layer-1" data-name="Span"><text fill="#2a2c68" xml:space="preserve" transform="matrix(1 0 -0 1 0 841.89)" font-size="9.5" font-family="DINPro"><tspan y="-456.5653" x="352.6253 358.9713 362.0208 367.15083 371.93885 376.77436 381.98988 384.36488 389.52339 394.6819 397.0569 400.76188 403.13688 407.78239 412.9979 418.1279 422.3934 424.7684 429.9269">Klasse 10 / Year 10</tspan></text></g><g id="Layer-1" data-name="Span"><text fill="#2a2c68" xml:space="preserve" transform="matrix(1 0 -0 1 0 841.89)" font-size="9.5" font-family="DINPro"><tspan y="-334.3275" x="160.8418 167.18779 170.23729 175.3673 180.15529 184.99079 190.20629 192.58129 197.73978 202.89827 205.27327 208.97827 211.35327 215.99878 221.21428 226.34429 230.60979 232.98479 238.14328">Klasse 12 / Year 12</tspan></text></g><g id="Layer-1" data-name="Span"><text fill="#2a2c68" xml:space="preserve" transform="matrix(1 0 -0 1 0 841.89)" font-size="9.5" font-family="DINPro"><tspan y="-475.948" x="352.6253 358.9713 362.0208 367.15083 371.93885 376.77436 381.98988 384.36488 389.52339 394.6819 397.0569 400.76188 403.13688 407.78239 412.9979 418.1279 422.3934 424.7684 429.9269">Klasse 11 / Year 11</tspan></text></g><g id="Layer-1" data-name="Span"><text fill="#2a2c68" xml:space="preserve" transform="matrix(1 0 -0 1 0 841.89)" font-size="9.5" font-family="DINPro"><tspan y="-523.4354" x="166.0951 172.44109 175.49059 180.62059 185.40859 190.24408 195.45958 197.83458 202.99308 205.36808 209.07308 211.44808 216.09358 221.30908 226.43909 230.70459 233.07959">Klasse 5 / Year 5</tspan></text></g><g id="Layer-1" data-name="Span"><text fill="#2a2c68" xml:space="preserve" transform="matrix(1 0 -0 1 0 841.89)" font-size="9.5" font-family="DINPro"><tspan y="-352.5653" x="357.7837 364.1297 367.1792 372.3092 377.09724 381.93275 387.14826 389.52326 394.68177 397.05677 400.76176 403.13676 407.78227 412.99778 418.12779 422.39329 424.76829">Klasse 5 / Year 5</tspan></text></g><g id="Layer-1" data-name="Span"><text fill="#2a2c68" xml:space="preserve" transform="matrix(1 0 -0 1 0 841.89)" font-size="9.5" font-family="DINPro"><tspan y="-230.3275" x="166.0002 172.34619 175.39569 180.5257 185.31369 190.14919 195.36469 197.73969 202.89818 205.27318 208.97818 211.35318 215.99869 221.21419 226.3442 230.6097 232.9847">Klasse 7 / Year 7</tspan></text></g><g id="Layer-1" data-name="Artifact"><path transform="matrix(1,0,0,-1,116.5305,313.9983)" d="M 0 0 L 2.859 0 L 1.43 1.891 Z " fill="#ffffff"></path><path transform="matrix(1,0,0,-1,116.5305,317.75965)" d="M 0 0 L 2.859 0 L 1.43 1.891 Z " fill="#ffffff"></path><path transform="matrix(1,0,0,-1,116.5305,321.52095)" d="M 0 0 L 2.859 0 L 1.43 1.891 Z " fill="#ffffff"></path><path transform="matrix(1,0,0,-1,116.5305,310.237)" d="M 0 0 L 2.859 0 L 1.43 1.891 Z " fill="#ffffff"></path></g><g id="Layer-1" data-name="Artifact"><path transform="matrix(1,0,0,-1,308.323,484.8684)" d="M 0 0 L 2.859 0 L 1.43 1.891 Z " fill="#ffffff"></path><path transform="matrix(1,0,0,-1,308.323,488.6297)" d="M 0 0 L 2.859 0 L 1.43 1.891 Z " fill="#ffffff"></path><path transform="matrix(1,0,0,-1,308.323,492.39103)" d="M 0 0 L 2.859 0 L 1.43 1.891 Z " fill="#ffffff"></path><path transform="matrix(1,0,0,-1,308.323,481.10713)" d="M 0 0 L 2.859 0 L 1.43 1.891 Z " fill="#ffffff"></path></g><g id="Layer-1" data-name="Artifact"><path transform="matrix(1,0,0,-1,116.8309,606.3975)" d="M 0 0 L 2.859 0 L 1.43 1.891 Z " fill="#ffffff"></path><path transform="matrix(1,0,0,-1,116.8309,610.15896)" d="M 0 0 L 2.859 0 L 1.43 1.891 Z " fill="#ffffff"></path><path transform="matrix(1,0,0,-1,116.8309,613.9202)" d="M 0 0 L 2.859 0 L 1.43 1.891 Z " fill="#ffffff"></path><path transform="matrix(1,0,0,-1,116.8309,602.6362)" d="M 0 0 L 2.859 0 L 1.43 1.891 Z " fill="#ffffff"></path></g><g id="Layer-1" data-name="Artifact"><path transform="matrix(1,0,0,-1,116.8309,625.9207)" d="M 0 0 L 2.859 0 L 1.43 1.891 Z " fill="#ffffff"></path><path transform="matrix(1,0,0,-1,116.8309,629.6821)" d="M 0 0 L 2.859 0 L 1.43 1.891 Z " fill="#ffffff"></path><path transform="matrix(1,0,0,-1,116.8309,633.4434)" d="M 0 0 L 2.859 0 L 1.43 1.891 Z " fill="#ffffff"></path><path transform="matrix(1,0,0,-1,116.8309,622.15957)" d="M 0 0 L 2.859 0 L 1.43 1.891 Z " fill="#ffffff"></path></g><g id="Layer-1" data-name="Artifact"><path transform="matrix(1,0,0,-1,116.8309,647.74716)" d="M 0 0 L 2.859 0 L 1.43 1.891 Z " fill="#ffffff"></path><path transform="matrix(1,0,0,-1,116.8309,651.50857)" d="M 0 0 L 2.859 0 L 1.43 1.891 Z " fill="#ffffff"></path><path transform="matrix(1,0,0,-1,116.8309,655.26986)" d="M 0 0 L 2.859 0 L 1.43 1.891 Z " fill="#ffffff"></path><path transform="matrix(1,0,0,-1,116.8309,643.98587)" d="M 0 0 L 2.859 0 L 1.43 1.891 Z " fill="#ffffff"></path></g><g id="Layer-1" data-name="Artifact"><path transform="matrix(1,0,0,-1,116.5305,293.44795)" d="M 0 0 L 2.859 0 L 1.43 1.891 Z " fill="#ffffff"></path><path transform="matrix(1,0,0,-1,116.5305,297.20924)" d="M 0 0 L 2.859 0 L 1.43 1.891 Z " fill="#ffffff"></path><path transform="matrix(1,0,0,-1,116.5305,300.97053)" d="M 0 0 L 2.859 0 L 1.43 1.891 Z " fill="#ffffff"></path><path transform="matrix(1,0,0,-1,116.5305,289.68659)" d="M 0 0 L 2.859 0 L 1.43 1.891 Z " fill="#ffffff"></path></g><g id="Layer-1" data-name="Artifact"><path transform="matrix(1,0,0,-1,308.323,464.3179)" d="M 0 0 L 2.859 0 L 1.43 1.891 Z " fill="#ffffff"></path><path transform="matrix(1,0,0,-1,308.323,468.0793)" d="M 0 0 L 2.859 0 L 1.43 1.891 Z " fill="#ffffff"></path><path transform="matrix(1,0,0,-1,308.323,471.8406)" d="M 0 0 L 2.859 0 L 1.43 1.891 Z " fill="#ffffff"></path><path transform="matrix(1,0,0,-1,308.323,460.5567)" d="M 0 0 L 2.859 0 L 1.43 1.891 Z " fill="#ffffff"></path></g><g id="Layer-1" data-name="Artifact"><path transform="matrix(1,0,0,-1,116.8309,586.5558)" d="M 0 0 L 2.859 0 L 1.43 1.891 Z " fill="#ffffff"></path><path transform="matrix(1,0,0,-1,116.8309,590.31716)" d="M 0 0 L 2.859 0 L 1.43 1.891 Z " fill="#ffffff"></path><path transform="matrix(1,0,0,-1,116.8309,594.0784)" d="M 0 0 L 2.859 0 L 1.43 1.891 Z " fill="#ffffff"></path><path transform="matrix(1,0,0,-1,116.8309,582.79458)" d="M 0 0 L 2.859 0 L 1.43 1.891 Z " fill="#ffffff"></path></g><g id="Layer-1" data-name="Artifact"><path transform="matrix(1,0,0,-1,116.5305,272.1479)" d="M 0 0 L 2.859 0 L 1.43 1.891 Z " fill="#ffffff"></path><path transform="matrix(1,0,0,-1,116.5305,275.90925)" d="M 0 0 L 2.859 0 L 1.43 1.891 Z " fill="#ffffff"></path><path transform="matrix(1,0,0,-1,116.5305,279.67054)" d="M 0 0 L 2.859 0 L 1.43 1.891 Z " fill="#ffffff"></path><path transform="matrix(1,0,0,-1,116.5305,268.3866)" d="M 0 0 L 2.859 0 L 1.43 1.891 Z " fill="#ffffff"></path></g><g id="Layer-1" data-name="Artifact"><path transform="matrix(1,0,0,-1,308.323,443.018)" d="M 0 0 L 2.859 0 L 1.43 1.891 Z " fill="#ffffff"></path><path transform="matrix(1,0,0,-1,308.323,446.77934)" d="M 0 0 L 2.859 0 L 1.43 1.891 Z " fill="#ffffff"></path><path transform="matrix(1,0,0,-1,308.323,450.54063)" d="M 0 0 L 2.859 0 L 1.43 1.891 Z " fill="#ffffff"></path><path transform="matrix(1,0,0,-1,308.323,439.2567)" d="M 0 0 L 2.859 0 L 1.43 1.891 Z " fill="#ffffff"></path></g><g id="Layer-1" data-name="Artifact"><path transform="matrix(1,0,0,-1,116.8309,565.25588)" d="M 0 0 L 2.859 0 L 1.43 1.891 Z " fill="#ffffff"></path><path transform="matrix(1,0,0,-1,116.8309,569.0171)" d="M 0 0 L 2.859 0 L 1.43 1.891 Z " fill="#ffffff"></path><path transform="matrix(1,0,0,-1,116.8309,572.77847)" d="M 0 0 L 2.859 0 L 1.43 1.891 Z " fill="#ffffff"></path><path transform="matrix(1,0,0,-1,116.8309,561.4945)" d="M 0 0 L 2.859 0 L 1.43 1.891 Z " fill="#ffffff"></path></g><g id="Layer-1" data-name="Artifact"><path transform="matrix(1,0,0,-1,116.5305,251.09754)" d="M 0 0 L 2.859 0 L 1.43 1.891 Z " fill="#ffffff"></path><path transform="matrix(1,0,0,-1,116.5305,254.85883)" d="M 0 0 L 2.859 0 L 1.43 1.891 Z " fill="#ffffff"></path><path transform="matrix(1,0,0,-1,116.5305,258.62013)" d="M 0 0 L 2.859 0 L 1.43 1.891 Z " fill="#ffffff"></path><path transform="matrix(1,0,0,-1,116.5305,247.33625)" d="M 0 0 L 2.859 0 L 1.43 1.891 Z " fill="#ffffff"></path></g><g id="Layer-1" data-name="Artifact"><path transform="matrix(1,0,0,-1,308.323,421.96763)" d="M 0 0 L 2.859 0 L 1.43 1.891 Z " fill="#ffffff"></path><path transform="matrix(1,0,0,-1,308.323,425.7289)" d="M 0 0 L 2.859 0 L 1.43 1.891 Z " fill="#ffffff"></path><path transform="matrix(1,0,0,-1,308.323,429.4902)" d="M 0 0 L 2.859 0 L 1.43 1.891 Z " fill="#ffffff"></path><path transform="matrix(1,0,0,-1,308.323,418.20634)" d="M 0 0 L 2.859 0 L 1.43 1.891 Z " fill="#ffffff"></path></g><g id="Layer-1" data-name="Artifact"><path transform="matrix(1,0,0,-1,116.8309,544.20547)" d="M 0 0 L 2.859 0 L 1.43 1.891 Z " fill="#ffffff"></path><path transform="matrix(1,0,0,-1,116.8309,547.9667)" d="M 0 0 L 2.859 0 L 1.43 1.891 Z " fill="#ffffff"></path><path transform="matrix(1,0,0,-1,116.8309,551.728)" d="M 0 0 L 2.859 0 L 1.43 1.891 Z " fill="#ffffff"></path><path transform="matrix(1,0,0,-1,116.8309,540.4441)" d="M 0 0 L 2.859 0 L 1.43 1.891 Z " fill="#ffffff"></path></g><g id="Layer-1" data-name="Artifact"><path transform="matrix(1,0,0,-1,116.5305,230.54804)" d="M 0 0 L 2.859 0 L 1.43 1.891 Z " fill="#ffffff"></path><path transform="matrix(1,0,0,-1,116.5305,234.30933)" d="M 0 0 L 2.859 0 L 1.43 1.891 Z " fill="#ffffff"></path><path transform="matrix(1,0,0,-1,116.5305,238.0705)" d="M 0 0 L 2.859 0 L 1.43 1.891 Z " fill="#ffffff"></path><path transform="matrix(1,0,0,-1,116.5305,226.78675)" d="M 0 0 L 2.859 0 L 1.43 1.891 Z " fill="#ffffff"></path></g><g id="Layer-1" data-name="Artifact"><path transform="matrix(1,0,0,-1,308.323,401.41804)" d="M 0 0 L 2.859 0 L 1.43 1.891 Z " fill="#ffffff"></path><path transform="matrix(1,0,0,-1,308.323,405.17933)" d="M 0 0 L 2.859 0 L 1.43 1.891 Z " fill="#ffffff"></path><path transform="matrix(1,0,0,-1,308.323,408.9406)" d="M 0 0 L 2.859 0 L 1.43 1.891 Z " fill="#ffffff"></path><path transform="matrix(1,0,0,-1,308.323,397.6567)" d="M 0 0 L 2.859 0 L 1.43 1.891 Z " fill="#ffffff"></path></g><g id="Layer-1" data-name="Artifact"><path transform="matrix(1,0,0,-1,116.8309,523.6558)" d="M 0 0 L 2.859 0 L 1.43 1.891 Z " fill="#ffffff"></path><path transform="matrix(1,0,0,-1,116.8309,527.4171)" d="M 0 0 L 2.859 0 L 1.43 1.891 Z " fill="#ffffff"></path><path transform="matrix(1,0,0,-1,116.8309,531.1784)" d="M 0 0 L 2.859 0 L 1.43 1.891 Z " fill="#ffffff"></path><path transform="matrix(1,0,0,-1,116.8309,519.89456)" d="M 0 0 L 2.859 0 L 1.43 1.891 Z " fill="#ffffff"></path></g><g id="Layer-1" data-name="Artifact"><path transform="matrix(1,0,0,-1,116.5305,209.74793)" d="M 0 0 L 2.859 0 L 1.43 1.891 Z " fill="#ffffff"></path><path transform="matrix(1,0,0,-1,116.5305,213.50922)" d="M 0 0 L 2.859 0 L 1.43 1.891 Z " fill="#ffffff"></path><path transform="matrix(1,0,0,-1,116.5305,217.27051)" d="M 0 0 L 2.859 0 L 1.43 1.891 Z " fill="#ffffff"></path><path transform="matrix(1,0,0,-1,116.5305,205.98664)" d="M 0 0 L 2.859 0 L 1.43 1.891 Z " fill="#ffffff"></path></g><g id="Layer-1" data-name="Artifact"><path transform="matrix(1,0,0,-1,308.323,380.618)" d="M 0 0 L 2.859 0 L 1.43 1.891 Z " fill="#ffffff"></path><path transform="matrix(1,0,0,-1,308.323,384.3793)" d="M 0 0 L 2.859 0 L 1.43 1.891 Z " fill="#ffffff"></path><path transform="matrix(1,0,0,-1,308.323,388.14064)" d="M 0 0 L 2.859 0 L 1.43 1.891 Z " fill="#ffffff"></path><path transform="matrix(1,0,0,-1,308.323,376.85673)" d="M 0 0 L 2.859 0 L 1.43 1.891 Z " fill="#ffffff"></path></g><g id="Layer-1" data-name="Artifact"><path transform="matrix(1,0,0,-1,116.8309,502.8558)" d="M 0 0 L 2.859 0 L 1.43 1.891 Z " fill="#ffffff"></path><path transform="matrix(1,0,0,-1,116.8309,506.61714)" d="M 0 0 L 2.859 0 L 1.43 1.891 Z " fill="#ffffff"></path><path transform="matrix(1,0,0,-1,116.8309,510.37843)" d="M 0 0 L 2.859 0 L 1.43 1.891 Z " fill="#ffffff"></path><path transform="matrix(1,0,0,-1,116.8309,499.0945)" d="M 0 0 L 2.859 0 L 1.43 1.891 Z " fill="#ffffff"></path></g><g id="Layer-1" data-name="Artifact"><path transform="matrix(1,0,0,-1,308.323,361.59773)" d="M 0 0 L 2.859 0 L 1.43 1.891 Z " fill="#ffffff"></path><path transform="matrix(1,0,0,-1,308.323,365.3591)" d="M 0 0 L 2.859 0 L 1.43 1.891 Z " fill="#ffffff"></path><path transform="matrix(1,0,0,-1,308.323,369.1203)" d="M 0 0 L 2.859 0 L 1.43 1.891 Z " fill="#ffffff"></path><path transform="matrix(1,0,0,-1,308.323,357.83653)" d="M 0 0 L 2.859 0 L 1.43 1.891 Z " fill="#ffffff"></path></g><g id="Layer-1" data-name="Span"><text fill="#2a2c68" xml:space="preserve" transform="matrix(1 0 -0 1 0 841.89)" font-size="9.5" font-family="DINPro"><tspan y="-489.8898" x="114.0358 121.854297 124.45729 127.80129 130.1763 135.5248 140.7403 149.1668 151.5418 157.5743 162.92279 167.75829 172.46079 177.95178 181.00128 186.49228 191.28028 196.11577 198.49077 203.83927 209.05477 213.32027 215.69527 222.04126 225.09076 230.22077 235.0097 239.8452 245.0607 247.4357 252.5942 257.65769">Mit dem Abschluss der Klasse 10 </tspan></text></g><g id="Layer-1" data-name="Span"><text fill="#2a2c68" xml:space="preserve" transform="matrix(1 0 -0 1 0 841.89)" font-size="9.5" font-family="DINPro"><tspan y="-478.8898" x="114.0358 121.1893 123.7923 127.7728 133.12129 135.49629 140.84479 146.06029 151.55129 153.92629 159.62628 164.32878 169.81978 175.31078 178.26528 183.48078 187.74628 190.63428 196.12528 201.61627 206.83177 212.32277 214.69777 220.04627 222.64926">wird den SchülerInnen die</tspan></text></g><g id="Layer-1" data-name="Span"><text fill="#2a2c68" xml:space="preserve" transform="matrix(1 0 -0 1 0 841.89)" font-size="9.5" font-family="DINPro"><tspan y="-467.8898" x="114.0358 122.462299 125.06529 128.40929 131.75328 134.70778 139.92328 143.90378 149.11928 151.49428 157.52678 162.74228 165.34528 168.41378 173.62928 176.00428 180.55478 186.04578 191.26128 195.52678 200.73372 205.86373 211.35472 216.84572 220.18972">mittlere Reife zuerkannt.</tspan></text></g><g id="Layer-1" data-name="Span"><text fill="#6093cd" xml:space="preserve" transform="matrix(1 0 -0 1 0 841.89)" font-size="9.5" font-family="DINPro"><tspan y="-456.8898" x="114.0358 120.0683 123.4123 125.7873 129.1313 134.6223 139.8378 142.2128 147.4283 152.9193 158.26779 160.64279 165.8393 169.0503 171.4253 175.87224 181.08774 186.21775 190.48325 192.85825 198.01674 203.17523 205.85424 208.22924 213.57773 219.06873 224.41722 227.02022 230.06972 234.90522 237.28022 242.41022 246.39072 251.60622 253.98122 259.1112 266.21723 271.34724 275.32774 280.67625 285.89176 291.14527">At the end of year 10, pupils are awarded </tspan></text></g><g id="Layer-1" data-name="Span"><text fill="#6093cd" xml:space="preserve" transform="matrix(1 0 -0 1 0 841.89)" font-size="9.5" font-family="DINPro"><tspan y="-445.8898" x="114.0358 117.3798 122.8708 128.0863 130.4613 133.0643 138.5553 141.85179 147.06729 151.3328 159.7593 164.9748 170.32329 172.92629 178.05629 181.35279 186.56829 188.94329 193.77878 198.48128 203.97228 209.16878 214.36528 217.41478 219.78978 222.74428 227.95978 233.08979 237.65929 240.26229 245.75328 250.96878">the intermediate school leaving </tspan></text></g><g id="Layer-1" data-name="Span"><text fill="#6093cd" xml:space="preserve" transform="matrix(1 0 -0 1 0 841.89)" font-size="9.5" font-family="DINPro"><tspan y="-434.8898" x="114.0358 118.595798 123.811298 128.0768 131.42079 134.02379 137.23479 139.83779 144.49279 149.62279 152.91928 158.13478">certificate.</tspan></text></g><g id="Layer-1" data-name="Span"><text fill="#2a2c68" xml:space="preserve" transform="matrix(1 0 -0 1 0 841.89)" font-size="9.5" font-family="DINPro"><tspan y="-324.8898" x="304.7244 312.5429 315.1459 318.4899 320.8649 326.2134 331.42893 339.85545 342.23045 348.26295 353.61146 358.44697 363.14949 368.64048 371.68998 377.18098 381.969 386.8045 389.1795 394.528 399.74354 404.00904 406.38404 412.73005 415.77955 420.90956 425.69853 430.53404 435.74955 438.12455 443.28306 448.34657">Mit dem Abschluss der Klasse 11 </tspan></text></g><g id="Layer-1" data-name="Span"><text fill="#2a2c68" xml:space="preserve" transform="matrix(1 0 -0 1 0 841.89)" font-size="9.5" font-family="DINPro"><tspan y="-313.8898" x="304.7244 309.9304 315.0604 320.5514 326.0424 328.4174 333.5474 339.0384 342.2494 344.6244 350.6569 356.1479 359.49189 363.66239 368.7924 374.10289 376.47789 381.96888 387.45988 390.75639 395.9719 400.2374 402.6124 407.9609 413.17643 417.91694 421.26094 423.86393 432.29045 440.71696 444.01347 449.22898 454.62498">kann auf Antrag unter bestimmten </tspan></text></g><g id="Layer-1" data-name="Span"><text fill="#2a2c68" xml:space="preserve" transform="matrix(1 0 -0 1 0 841.89)" font-size="9.5" font-family="DINPro"><tspan y="-302.8898" x="304.7244 309.7974 314.9939 319.1644 324.2944 329.7854 334.57344 339.40895 344.62446 347.96846 352.51896 358.00996 363.50096 368.81144 374.02696 379.51795 381.89295 387.24147 389.84446 394.96498">Voraussetzungen die </tspan></text></g><g id="Layer-1" data-name="Span"><text fill="#2a2c68" xml:space="preserve" transform="matrix(1 0 -0 1 0 841.89)" font-size="9.5" font-family="DINPro"><tspan y="-291.8898" x="304.7244 310.0919 315.2219 319.9244 325.4154 330.9064 336.1029 340.80543 346.29643 351.13194 355.83445 361.32545 366.81645 369.86595 373.84645 379.06196 381.66496 384.73347 389.94898 392.32398 396.87449 402.36549 407.581 411.8465 417.0525 422.1825 427.6735 433.1645 436.50849 438.88349 445.9895 451.20503 455.18553 460.53404 465.74955 471.24055">Fachhochschulreife zuerkannt werden.</tspan></text></g><g id="Layer-1" data-name="Span"><text fill="#6093cd" xml:space="preserve" transform="matrix(1 0 -0 1 0 841.89)" font-size="9.5" font-family="DINPro"><tspan y="-280.8898" x="304.7244 310.7569 313.9679 317.2644 322.47993 326.74543 329.12043 333.68046 338.87696 347.30348 352.65199 355.60649 360.822 364.166 366.76899 372.25999 377.57048 379.94548 384.39146 389.60697 394.73698 399.00248 401.37748 406.53599 411.6945 414.37348 416.74848 422.097 427.58799 432.9365 435.5395 438.589 443.4245 445.7995 450.45454 455.58454 460.98054">After completing year 11, pupils can </tspan></text></g><g id="Layer-1" data-name="Span"><text fill="#6093cd" xml:space="preserve" transform="matrix(1 0 -0 1 0 841.89)" font-size="9.5" font-family="DINPro"><tspan y="-269.8898" x="304.7244 310.2154 315.7064 321.0549 326.27043 330.53593 332.91093 337.47096 342.68647 346.95198 350.24848 355.37849 357.98149 363.47248 365.84748 370.4075 375.604 381.095 386.4435 389.0465 392.3905 394.9935 400.19 405.681 410.5165 412.8915 418.24003 423.45555 425.83055 430.96055 438.06657 443.19657 447.178 452.52653 457.74205 463.09056 465.46556 468.80955 474.30055 479.42106">under certain conditions be awarded the </tspan></text></g><g id="Layer-1" data-name="Span"><text fill="#6093cd" xml:space="preserve" transform="matrix(1 0 -0 1 0 841.89)" font-size="9.5" font-family="DINPro"><tspan y="-258.8898" x="304.7244 310.0729 315.5639 320.6939 323.7434 326.3464 329.5574 332.1604 336.81544 341.94544 345.28944 347.89244 353.08894 358.57994 360.95494 364.25144 369.44795 371.82295 376.56346 379.90745 385.39845 390.74696 395.28797 397.66297 402.79298 406.13697 408.51197 413.64198 416.01698 421.50798 426.99897 429.60197 434.07646 439.29197 443.46247 448.29798 450.90098 454.24497 458.78596 461.16096 466.35746 469.47346">qualification to study at a university of </tspan></text></g><g id="Layer-1" data-name="Span"><text fill="#6093cd" xml:space="preserve" transform="matrix(1 0 -0 1 0 841.89)" font-size="9.5" font-family="DINPro"><tspan y="-247.8898" x="304.7244 309.8544 315.2029 320.55143 323.60093 326.20393 331.41944 336.76795 339.14295 343.97846 348.68098 351.28398 356.49949 361.99049 366.54954 371.76506 376.60057 378.97557 384.46656 389.81507 395.01158 400.50257 402.87757 408.00758 413.35609 418.7046 421.7541 424.3571 429.01213 434.14213 437.4861 440.0891 445.2856 450.7766">applied sciences upon application.</tspan></text></g><g id="Layer-1" data-name="Span"><text fill="#2a2c68" xml:space="preserve" transform="matrix(1 0 -0 1 0 841.89)" font-size="9.5" font-family="DINPro"><tspan y="-159.8898" x="112.6772 120.4957 123.098697 126.442699 128.81769 134.16619 139.38169 147.80818 150.18318 156.21569 161.56418 166.39968 171.10218 176.59317 179.64267 185.13367 189.92166 194.75716 197.13216 202.48065 207.69615 211.96166 214.33666 220.68265 223.73215 228.86215 233.6511 238.48659 243.70209 246.07709 251.23558 256.29908">Mit dem Abschluss der Klasse 12 </tspan></text></g><g id="Layer-1" data-name="Span"><text fill="#2a2c68" xml:space="preserve" transform="matrix(1 0 -0 1 0 841.89)" font-size="9.5" font-family="DINPro"><tspan y="-148.8898" x="112.6772 118.1682 123.659198 129.00769 131.38269 136.73119 141.94669 146.68718 149.98368 155.11368 160.60468 165.95317 171.16867 176.65967 181.87517 187.36617 189.74117 195.81166 200.07717 205.56816 208.77916 214.27016 219.76116 225.07166 230.28716 235.77816 238.15316 243.36865 247.63416 251.6156 256.83113 259.4341 264.13664 269.62763 272.87663">und bestandenen Prüfungen erreicht </tspan></text></g><g id="Layer-1" data-name="Span"><text fill="#2a2c68" xml:space="preserve" transform="matrix(1 0 -0 1 0 841.89)" font-size="9.5" font-family="DINPro"><tspan y="-137.8898" x="112.6772 115.5652 121.0562 125.3217 127.6967 134.0427 136.64569 142.13669 147.48519 149.86019 155.20868 157.81168 163.02718 165.40218 171.43468 174.48418 177.43868 182.74918 187.96468 196.39118 201.60668 204.20967 209.70067 214.91617 217.29117 223.95067 229.14717 233.84967 239.34067 244.17617 248.87866 254.36966 259.86067 262.91017 266.89067 272.10618 274.70918 277.77769 282.8982">Ihr Kind die Allgemeine Hochschulreife </tspan></text></g><g id="Layer-1" data-name="Span"><text fill="#2a2c68" xml:space="preserve" transform="matrix(1 0 -0 1 0 841.89)" font-size="9.5" font-family="DINPro"><tspan y="-126.8898" x="112.6772 115.7837 121.8162 127.1647 129.7677 133.1117 138.60269 142.8682 145.9747">(Abitur).</tspan></text></g><g id="Layer-1" data-name="Span"><text fill="#6093cd" xml:space="preserve" transform="matrix(1 0 -0 1 0 841.89)" font-size="9.5" font-family="DINPro"><tspan y="-115.8898" x="112.6772 118.7097 122.0537 124.4287 127.772708 133.2637 138.4792 140.8542 146.0697 151.5607 156.9092 159.2842 164.4807 167.6917 170.0667 174.51364 179.72914 184.85915 189.12465 191.49965 196.65814 201.81664 204.19164 209.32164 214.81264 220.16114 222.53614 227.66614 230.87714 234.17363 239.38913 243.65464 246.02964 251.37813 256.50813 261.29615 266.13166 268.73466 274.22566 279.44114">At the end of year 12 and after passing </tspan></text></g><g id="Layer-1" data-name="Span"><text fill="#6093cd" xml:space="preserve" transform="matrix(1 0 -0 1 0 841.89)" font-size="9.5" font-family="DINPro"><tspan y="-104.8898" x="112.6772 116.0212 121.5122 126.7277 129.10269 134.12819 138.85919 143.9892 152.4157 155.01869 160.50969 165.6397 168.98369 171.58669 176.78319 182.27419 187.10968 189.78868 192.16368 196.60968 201.80619 207.29718 211.56269 213.93769 218.64019 224.13118 226.73418 229.68868 235.03717 237.41217 242.06717 247.19718 252.59317">the examinations, your child can </tspan></text></g><g id="Layer-1" data-name="Span"><text fill="#6093cd" xml:space="preserve" transform="matrix(1 0 -0 1 0 841.89)" font-size="9.5" font-family="DINPro"><tspan y="-93.8898" x="112.6772 117.8072 122.5097 128.0007 130.6037 135.7242 140.1987 145.4142 147.7892 151.1332 156.62419 161.83969 164.21469 169.70569 175.19669 177.79969 182.27419 187.48969 191.66019 196.49568 199.09868 202.44268 206.98368 209.35868 214.57418 220.06517 223.40917 227.57967 232.70967 238.20067 242.76067 247.88117">achieve the university entrance </tspan></text></g><g id="Layer-1" data-name="Span"><text fill="#6093cd" xml:space="preserve" transform="matrix(1 0 -0 1 0 841.89)" font-size="9.5" font-family="DINPro"><tspan y="-82.8898" x="112.6772 118.0257 123.5167 128.6467 131.6962 134.2992 137.5102 140.11319 144.76819 149.8982 153.24219 155.84519 161.04169 166.53269 168.90769 172.01419 178.04669 183.39519 185.99819 189.34218 194.83318 199.09868 202.20519">qualification (Abitur).</tspan></text></g><g id="Layer-1" data-name="Span"><text fill="#2a2c68" xml:space="preserve" transform="matrix(1 0 -0 1 0 841.89)" font-size="7" font-family="DINPro"><tspan y="-797.8898" x="518.9022 525.0692 529.1922 531.3902 534.09927 538.2222 541.6452 544.2912 548.6172 552.9432 556.1561 560.2791 564.6051 568.8261">Weiterführende</tspan></text></g><g id="Layer-1" data-name="Span"><text fill="#2a2c68" xml:space="preserve" transform="matrix(1 0 -0 1 0 841.89)" font-size="7" font-family="DINPro"><tspan y="-786.8898" x="545.1658 549.64578 553.39077 557.71676 562.0427 564.499 568.622">Schulen</tspan></text></g><g id="Layer-1" data-name="Span"><text fill="#2a2c68" xml:space="preserve" transform="matrix(1 0 -0 1 0 841.89)" font-size="7" font-family="DINPro"><tspan y="-764.8898" x="532.6988 537.5918 541.2178 547.7068 552.0328 556.0928 559.9358 562.1338 566.4598">Gymnasium</tspan></text></g><g id="Layer-1" data-name="Span"><text fill="#2a2c68" xml:space="preserve" transform="matrix(1 0 -0 1 0 841.89)" font-size="7" font-family="DINPro"><tspan y="-742.8898" x="544.8648 549.87686 553.9998 558.3258 561.0355 564.87857 568.62356">Deutsch</tspan></text></g><g id="Layer-1" data-name="Span"><text fill="#2a2c68" xml:space="preserve" transform="matrix(1 0 -0 1 0 841.89)" font-size="7" font-family="DINPro"><tspan y="-720.8898" x="543.2198 547.7908 552.11679 556.30978 558.83676 561.0347 564.87777 568.62277">Englisch</tspan></text></g><g id="Layer-1" data-name="Span"><text fill="#6093cd" xml:space="preserve" transform="matrix(1 0 -0 1 0 841.89)" font-size="7" font-family="DINPro"><tspan y="-698.8898" x="508.4095 512.88949 517.01248 520.65249 524.7615 529.08749 533.3085 537.36849 540.79147 544.4174 546.44747 550.29049 554.03549 558.36148 562.47048 566.57949 569.10647">Secondary schools</tspan></text></g><g id="Layer-1" data-name="Span"><text fill="#6093cd" xml:space="preserve" transform="matrix(1 0 -0 1 0 841.89)" font-size="7" font-family="DINPro"><tspan y="-676.8898" x="523.2001 528.0931 532.21609 536.54208 540.66506 544.018 548.078 550.605 552.635 556.961 561.182 565.403 569.526 572.599">General upper </tspan></text></g><g id="Layer-1" data-name="Span"><text fill="#6093cd" xml:space="preserve" transform="matrix(1 0 -0 1 0 841.89)" font-size="7" font-family="DINPro"><tspan y="-665.8898" x="512.8895 516.73257 520.8555 524.49557 528.60458 532.93057 537.15158 541.21157 544.6345 548.2605 550.2905 554.13357 557.87857 562.2045 566.31356 570.42257">secondary school</tspan></text></g><g id="Layer-1" data-name="Span"><text fill="#6093cd" xml:space="preserve" transform="matrix(1 0 -0 1 0 841.89)" font-size="7" font-family="DINPro"><tspan y="-643.8898" x="545.6346 550.5276 554.6506 558.07357 564.56259 568.62258">German</tspan></text></g><g id="Layer-1" data-name="Span"><text fill="#6093cd" xml:space="preserve" transform="matrix(1 0 -0 1 0 841.89)" font-size="7" font-family="DINPro"><tspan y="-621.8898" x="546.9647 551.5357 555.8617 560.0547 562.58169 564.77969 568.6227">English</tspan></text></g><path transform="matrix(1,0,0,-1,540.999,811.00027)" stroke-width="9" stroke-linecap="butt" stroke-miterlimit="10" stroke-linejoin="miter" fill="none" stroke="#6093cd" d="M 0 0 L 31.599 0 "></path><path transform="matrix(1,0,0,-1,539.9429,822.00027)" stroke-width="9" stroke-linecap="butt" stroke-miterlimit="10" stroke-linejoin="miter" fill="none" stroke="#6093cd" d="M 0 0 L 32.656 0 "></path><g id="Layer-1" data-name="Span"><text fill="#2a2c68" xml:space="preserve" transform="matrix(1 0 -0 1 0 841.89)" font-size="8" font-family="DINPro"><tspan y="-27.8898" x="540.999 545.51107 547.62307 551.93508 555.4471 559.1991 563.5111 568.0551">Vierzehn</tspan></text></g><g id="Layer-1" data-name="Span"><text fill="#ffffff" xml:space="preserve" transform="matrix(1 0 -0 1 0 841.89)" font-size="8" font-family="DINPro"><tspan y="-16.8898" x="539.9429 544.3829 548.6789 553.2229 556.7349 559.43099 563.743 568.055">Fourteen</tspan></text></g></g></svg> 