<?xml version="1.0" encoding="utf-8"?>
<!-- Generator: Adobe Illustrator 26.2.1, SVG Export Plug-In . SVG Version: 6.00 Build 0)  -->
<svg version="1.1" id="Ebene_1" xmlns="http://www.w3.org/2000/svg" xmlns:xlink="http://www.w3.org/1999/xlink" x="0px" y="0px"
	 viewBox="0 0 1000 819.82" style="enable-background:new 0 0 1000 819.82;" xml:space="preserve">
<style type="text/css">
	.st0{fill:#A2B9E1;}
	.st1{fill:#6796CF;}
	.st2{clip-path:url(#SVGID_00000113326066150528672520000013525545445198542747_);}
	.st3{fill:#2B2961;}
	.st4{fill:#FFFFFF;}
	.st5{clip-path:url(#SVGID_00000049939154840135509680000007704541468532500660_);}
	.st6{clip-path:url(#SVGID_00000049910567227869034050000014835807960837695913_);}
	.st7{clip-path:url(#SVGID_00000060746140301079376170000015060371188455785914_);}
	.st8{clip-path:url(#SVGID_00000147205561511564052210000003260487615260209311_);}
	.st9{clip-path:url(#SVGID_00000148622297732930972890000011829979382321560992_);}
	.st10{opacity:0.52;clip-path:url(#SVGID_00000009574999489610782790000001443909209293467071_);}
	.st11{clip-path:url(#SVGID_00000182492458967468009450000016630075887784990603_);}
	.st12{clip-path:url(#SVGID_00000009551373449957338340000001958287106718425268_);}
	.st13{clip-path:url(#SVGID_00000119099174043525885270000007932388760800955013_);}
	.st14{clip-path:url(#SVGID_00000174597315051471502220000016158285947491709845_);}
	.st15{clip-path:url(#SVGID_00000021814060306049378870000018424954467279074704_);}
	.st16{clip-path:url(#SVGID_00000066500586542492573450000007722495715886068923_);}
	.st17{clip-path:url(#SVGID_00000044176479923455048750000015775345858145227198_);}
	.st18{clip-path:url(#SVGID_00000172401244044283499560000010132949811950092936_);}
	.st19{clip-path:url(#SVGID_00000167382880524031969410000006270932090545702569_);}
	.st20{clip-path:url(#SVGID_00000100350269898414449060000008642250595055788165_);}
	.st21{clip-path:url(#SVGID_00000149357801949128476480000001003608777866152090_);}
	.st22{clip-path:url(#SVGID_00000140693097990608109390000000092770428867409280_);}
	.st23{fill:none;stroke:#2B2961;stroke-width:0.374;stroke-linejoin:round;stroke-miterlimit:10;}
	.st24{fill:none;stroke:#2B2961;stroke-width:0.4;stroke-miterlimit:10;}
	.st25{clip-path:url(#SVGID_00000000183144405423960760000008313657339945469330_);}
	.st26{clip-path:url(#SVGID_00000091004822584795277930000008883007542321552782_);}
	.st27{clip-path:url(#SVGID_00000155142714502932737210000013502179893179366315_);}
	.st28{clip-path:url(#SVGID_00000067916159173542320990000009274929942856448652_);}
	.st29{clip-path:url(#SVGID_00000136408730964849476550000000397068820921575565_);}
	.st30{clip-path:url(#SVGID_00000082356024231633376090000008625708899957402507_);}
	.st31{clip-path:url(#SVGID_00000040552533026420723550000018110659409908914601_);}
	.st32{clip-path:url(#SVGID_00000136389072351742049600000004881525979108355506_);}
	.st33{clip-path:url(#SVGID_00000117678833008025109970000006059349242090491298_);}
	.st34{clip-path:url(#SVGID_00000096744386283301303160000000472050009270552741_);}
	.st35{clip-path:url(#SVGID_00000076591969653225796120000010841807040773247647_);}
	.st36{clip-path:url(#SVGID_00000143597774912592667730000010104304620288889235_);}
	.st37{clip-path:url(#SVGID_00000016756330195539376400000010549097089974024108_);}
	.st38{clip-path:url(#SVGID_00000043458372388450427930000015304108828978560133_);}
	.st39{clip-path:url(#SVGID_00000106837991297112697890000014693663628662750906_);}
	.st40{clip-path:url(#SVGID_00000075875407291532831880000006485282146842082443_);}
	.st41{clip-path:url(#SVGID_00000016794096404366003340000001130137914615656612_);}
	.st42{clip-path:url(#SVGID_00000041279763721187093220000016244291266265748872_);}
	.st43{clip-path:url(#SVGID_00000134968281424272806070000002420726517868383873_);}
	.st44{clip-path:url(#SVGID_00000172418312306722138560000002324612918444274347_);}
	.st45{clip-path:url(#SVGID_00000088815889625458685190000014115410309671730562_);}
	.st46{clip-path:url(#SVGID_00000073695526243368663990000006297122335750207372_);}
	.st47{clip-path:url(#SVGID_00000125583207849146765800000007430426602662752186_);}
	.st48{clip-path:url(#SVGID_00000167376880131194089810000002176532385180976562_);}
	.st49{clip-path:url(#SVGID_00000018204341770475535400000015605134811444205451_);}
	.st50{clip-path:url(#SVGID_00000062183812319112153620000001724897002320255621_);}
	.st51{clip-path:url(#SVGID_00000025444017198145211520000005640074737059371425_);}
	.st52{clip-path:url(#SVGID_00000012452359439152424010000006109989393129520286_);}
	.st53{clip-path:url(#SVGID_00000169524804180672715990000015570769163414381231_);}
	.st54{clip-path:url(#SVGID_00000141434438497359393250000006194972169682676659_);}
	.st55{clip-path:url(#SVGID_00000044869358216156412090000007881418002052090758_);}
	.st56{clip-path:url(#SVGID_00000148621514120970479220000003043017159188191881_);}
	.st57{clip-path:url(#SVGID_00000003827553135260853070000010404876642623355538_);}
	.st58{clip-path:url(#SVGID_00000071561952043629495160000015538060667409111695_);}
	.st59{clip-path:url(#SVGID_00000058565687245981199190000012487902455076638374_);}
	.st60{clip-path:url(#SVGID_00000161590794434061040710000006401786068950599840_);}
	.st61{clip-path:url(#SVGID_00000131341418240336688680000010996263168458283145_);}
	.st62{fill:#9AB4DE;}
	.st63{clip-path:url(#SVGID_00000034084066232728515530000006303619291724081821_);}
	.st64{clip-path:url(#SVGID_00000011722890822404240560000016254790218606997651_);}
	.st65{clip-path:url(#SVGID_00000012454464461002210180000010787716866503183285_);}
	.st66{fill:#B9C9E9;}
	.st67{clip-path:url(#SVGID_00000116958352302612332560000011234441181310440893_);}
	.st68{clip-path:url(#SVGID_00000124845389868496809100000003225779003164499615_);}
	.st69{clip-path:url(#SVGID_00000047026556661195412300000018268019862344245162_);}
	.st70{clip-path:url(#SVGID_00000081621003966925121610000002700292624065196474_);}
	.st71{clip-path:url(#SVGID_00000165933634131790969140000015947451109463805578_);}
	.st72{clip-path:url(#SVGID_00000083058980374403084490000009924513262392058519_);}
	.st73{clip-path:url(#SVGID_00000067951486919958178090000016782373599997815454_);}
	.st74{clip-path:url(#SVGID_00000135681766569318193980000008087534039767138989_);}
	.st75{clip-path:url(#SVGID_00000028302389826427515040000013277339422907767428_);}
	.st76{clip-path:url(#SVGID_00000091010263391191274490000006620344063101148806_);}
	.st77{clip-path:url(#SVGID_00000060735865638315152760000015700532620968033703_);}
	.st78{clip-path:url(#SVGID_00000181773301806207231130000005343464587557226887_);}
	.st79{clip-path:url(#SVGID_00000078739470618032554200000004622934328328912545_);}
	.st80{clip-path:url(#SVGID_00000044874271462567509880000002250860692576176309_);}
	.st81{clip-path:url(#SVGID_00000078042033344056328410000016346996203004823999_);}
	.st82{clip-path:url(#SVGID_00000052819690387335956320000012249773137823665567_);}
	.st83{clip-path:url(#SVGID_00000101798371234159049400000000641015476169900192_);}
	.st84{clip-path:url(#SVGID_00000062898443768979081890000001637611379986995855_);}
	.st85{clip-path:url(#SVGID_00000070803138539695032360000014597172410410860673_);}
	.st86{clip-path:url(#SVGID_00000031184614811687259080000014402499449827433891_);}
	.st87{clip-path:url(#SVGID_00000090999596772747516910000015514035161737084561_);}
	.st88{clip-path:url(#SVGID_00000005234945715687087300000011822166651952172184_);}
	.st89{clip-path:url(#SVGID_00000091698173969168718790000013101091866347921045_);}
	.st90{clip-path:url(#SVGID_00000037689251852802859010000006977763315879698841_);}
	.st91{clip-path:url(#SVGID_00000096771695296416443220000003852091596282070426_);}
	.st92{clip-path:url(#SVGID_00000133492910092720723450000001495088449762510976_);}
	.st93{clip-path:url(#SVGID_00000034063206199342114920000011217606572705807263_);}
	.st94{clip-path:url(#SVGID_00000116230958185055812560000001681596365784425893_);}
	.st95{clip-path:url(#SVGID_00000181773265798472115320000005133370906555228337_);}
	.st96{clip-path:url(#SVGID_00000011723268169061156170000001277911249990449038_);}
	.st97{clip-path:url(#SVGID_00000116212530088718738410000003535731732451188395_);}
	.st98{clip-path:url(#SVGID_00000104706983872429496510000001193852896974177445_);}
	.st99{clip-path:url(#SVGID_00000022538341546140169770000009702495272181399446_);}
	.st100{clip-path:url(#SVGID_00000062166957783435724500000009350666371183014074_);}
	.st101{clip-path:url(#SVGID_00000030452329401406557810000002651775133658583953_);}
	.st102{clip-path:url(#SVGID_00000183240526402798058460000013164393195091247290_);}
	.st103{clip-path:url(#SVGID_00000071543530533260481280000002592393292265838760_);}
	.st104{clip-path:url(#SVGID_00000070797646696105693090000014676383854354201990_);}
	.st105{clip-path:url(#SVGID_00000090992892159116048800000017401270627888435384_);}
	.st106{clip-path:url(#SVGID_00000075864375794661043040000002084989013374628755_);}
	.st107{clip-path:url(#SVGID_00000049900569455934662620000017764208984379086239_);}
	.st108{clip-path:url(#SVGID_00000071519111114878043650000014544197592333427085_);}
	.st109{clip-path:url(#SVGID_00000072961652853283639460000005819597194889834662_);}
	.st110{clip-path:url(#SVGID_00000004530433895203002900000010515354708751209916_);}
	.st111{clip-path:url(#SVGID_00000023246261354476973560000009180272819715292080_);}
	.st112{clip-path:url(#SVGID_00000074433154393643189400000007647582899567428525_);}
	.st113{clip-path:url(#SVGID_00000115486980259129680180000004262696881706371205_);}
	.st114{clip-path:url(#SVGID_00000054234395029341611850000008138445654256664756_);}
	.st115{clip-path:url(#SVGID_00000089570710330008653080000008405590118978458555_);}
	.st116{clip-path:url(#SVGID_00000127014671848585191890000009040618704136752042_);}
	.st117{clip-path:url(#SVGID_00000059994686578309463960000011699568657566915208_);}
	.st118{clip-path:url(#SVGID_00000176727294797571049500000018014119892399843231_);}
	.st119{clip-path:url(#SVGID_00000022543808227619006390000004241745696950717091_);}
	.st120{clip-path:url(#SVGID_00000069357532993210507950000018054159171802156170_);}
	.st121{clip-path:url(#SVGID_00000145056609732542525000000002994125795479473571_);}
	.st122{clip-path:url(#SVGID_00000079466151057356243250000010223513210963966611_);}
	.st123{clip-path:url(#SVGID_00000072268943720374206410000006596658295982689442_);}
	.st124{clip-path:url(#SVGID_00000080915135017210053700000003100049975110784941_);}
	.st125{clip-path:url(#SVGID_00000062180090716063458600000008030189288508366000_);}
	.st126{clip-path:url(#SVGID_00000049938817516378866320000014130769956423546265_);}
	.st127{clip-path:url(#SVGID_00000069383667868570921750000014682694973339291055_);}
	.st128{clip-path:url(#SVGID_00000058548670127254825000000011797004792927515323_);}
	.st129{clip-path:url(#SVGID_00000154401431634185513100000009618994592668898998_);}
	.st130{clip-path:url(#SVGID_00000169532736679513938190000015343364108209249956_);}
	.st131{clip-path:url(#SVGID_00000183216418313707123770000008361083291956345016_);}
	.st132{clip-path:url(#SVGID_00000102537661126077447720000001287549012671161522_);}
	.st133{clip-path:url(#SVGID_00000181775418812956683420000010605454098150523544_);}
	.st134{clip-path:url(#SVGID_00000111193145468619890450000005908960651921986999_);}
	.st135{clip-path:url(#SVGID_00000116932017608467750110000007633548890731651489_);}
	.st136{clip-path:url(#SVGID_00000150097187476550172240000017887607083199981209_);}
	.st137{clip-path:url(#SVGID_00000032630693537329352810000001744150262252603554_);}
	.st138{clip-path:url(#SVGID_00000139254498525334367170000006269840673623070111_);}
	.st139{clip-path:url(#SVGID_00000129185025705469713690000011468770583815946421_);}
	.st140{clip-path:url(#SVGID_00000082326991463737677340000005924852336536288184_);}
	.st141{clip-path:url(#SVGID_00000021120992010557657440000008783713503285199507_);}
	.st142{clip-path:url(#SVGID_00000047770556829564731690000002415211972050740357_);}
	.st143{clip-path:url(#SVGID_00000137815533142692043430000006029362280703796665_);}
	.st144{clip-path:url(#SVGID_00000016764766783884491080000016438273876104289963_);}
	.st145{clip-path:url(#SVGID_00000157270653621966418960000013734678659353978514_);}
	.st146{clip-path:url(#SVGID_00000071534093553301432580000008745664279166982584_);}
	.st147{clip-path:url(#SVGID_00000058563327522014284730000013102041698880750012_);}
	.st148{clip-path:url(#SVGID_00000070101471623384961390000014299005616007012493_);}
	.st149{clip-path:url(#SVGID_00000181781259757771391100000013642905098880722860_);}
	.st150{clip-path:url(#SVGID_00000031180653332847000480000007599991978100671372_);}
	.st151{clip-path:url(#SVGID_00000117634722323759158060000015104350788972908160_);}
	.st152{clip-path:url(#SVGID_00000029744815841947524450000016285697631065483693_);}
	.st153{clip-path:url(#SVGID_00000004513027088876319400000017919533324556150173_);}
	.st154{clip-path:url(#SVGID_00000133504665713846366970000016148506301537265582_);}
	.st155{clip-path:url(#SVGID_00000144318680469957667000000004216862137294142117_);}
	.st156{clip-path:url(#SVGID_00000071532433972995948910000000412026619185820071_);}
	.st157{clip-path:url(#SVGID_00000138568919056689058470000002242720314046521229_);}
	.st158{clip-path:url(#SVGID_00000109718707260024815460000014444883735606783161_);}
	.st159{clip-path:url(#SVGID_00000067937583845282848300000004212679439361681296_);}
	.st160{clip-path:url(#SVGID_00000047053155172978478810000002222787228849039770_);}
	.st161{clip-path:url(#SVGID_00000177482796453251243620000000038169766513730463_);}
	.st162{clip-path:url(#SVGID_00000119839555136002284410000001665292821128709037_);}
	.st163{clip-path:url(#SVGID_00000080926028635373659500000016870659022314286995_);}
	.st164{clip-path:url(#SVGID_00000173852334233147873140000009875750616136980654_);}
	.st165{clip-path:url(#SVGID_00000021829445855164337890000014566342747880672652_);}
	.st166{clip-path:url(#SVGID_00000158001055225221654560000015754880068862280613_);}
	.st167{clip-path:url(#SVGID_00000132808993395018335870000012189238287389878939_);}
	.st168{clip-path:url(#SVGID_00000175315329186413399440000001382708377570613136_);}
	.st169{clip-path:url(#SVGID_00000021818045107743341120000011885949009301196164_);}
	.st170{clip-path:url(#SVGID_00000154412660269662859640000011185443181209141381_);}
	.st171{clip-path:url(#SVGID_00000011730512279744540410000005050166464010993058_);}
	.st172{clip-path:url(#SVGID_00000016047200773698415500000013152651316503460482_);}
	.st173{clip-path:url(#SVGID_00000105396436203684406880000009715904618512736645_);}
	.st174{clip-path:url(#SVGID_00000023963300646548963750000004353322298102988990_);}
	.st175{clip-path:url(#SVGID_00000034769103774647250480000011046107426557087409_);}
	.st176{clip-path:url(#SVGID_00000164481082442817513380000010183542761096424881_);}
	.st177{clip-path:url(#SVGID_00000139294020546469604780000000928405340058839210_);}
	.st178{clip-path:url(#SVGID_00000039124412256817738350000008123010132908935330_);}
	.st179{clip-path:url(#SVGID_00000005268541726798749440000008062238780357041074_);}
	.st180{clip-path:url(#SVGID_00000110458852899245483380000001751693631218478982_);}
	.st181{clip-path:url(#SVGID_00000104699105240538282670000000929681156452884390_);}
	.st182{clip-path:url(#SVGID_00000069376424492229294420000017983325806568136361_);}
	.st183{clip-path:url(#SVGID_00000041980536301298750880000008890127645707215025_);}
	.st184{clip-path:url(#SVGID_00000173162355564616393410000003544492488348818616_);}
	.st185{clip-path:url(#SVGID_00000101820316809170423970000013596936638527044026_);}
	.st186{clip-path:url(#SVGID_00000041292193447951685940000009988083953751190920_);}
	.st187{clip-path:url(#SVGID_00000060744186875760980670000012314604406174271392_);}
	.st188{clip-path:url(#SVGID_00000018229199909043440170000008588996915026668981_);}
	.st189{clip-path:url(#SVGID_00000064344201898827847660000012495090871205830063_);}
	.st190{clip-path:url(#SVGID_00000101098474966068843220000006938679609969669269_);}
	.st191{clip-path:url(#SVGID_00000149380986604323725270000016997854882468499087_);}
	.st192{clip-path:url(#SVGID_00000141438744583932511200000009427382201451121540_);}
	.st193{clip-path:url(#SVGID_00000161604320880027921820000011399364920801020849_);}
	.st194{clip-path:url(#SVGID_00000098935187311421156420000001615401354809126539_);}
	.st195{clip-path:url(#SVGID_00000164496231081956475380000004584643429439441299_);}
	.st196{clip-path:url(#SVGID_00000176729214713391478300000003390455701904738471_);}
	.st197{clip-path:url(#SVGID_00000086662986392152973780000013955155599095971471_);}
	.st198{clip-path:url(#SVGID_00000103230418035630404610000009001616246046767789_);}
	.st199{clip-path:url(#SVGID_00000129903955245808179320000006997959139484155268_);}
	.st200{clip-path:url(#SVGID_00000181079758343763804690000002021165631515269822_);}
	.st201{clip-path:url(#SVGID_00000103248740253445453050000008795526556199851648_);}
	.st202{clip-path:url(#SVGID_00000120555800890058850600000000858975892351830972_);}
	.st203{clip-path:url(#SVGID_00000179620526641928336470000012300445538486391444_);}
	.st204{clip-path:url(#SVGID_00000009585233657274915660000017525451483921057695_);}
	.st205{clip-path:url(#SVGID_00000073701793850871950360000000129909585703855263_);}
	.st206{clip-path:url(#SVGID_00000011024070357519614180000014395456051603085715_);}
	.st207{clip-path:url(#SVGID_00000066516392672292169040000004817195649715569059_);}
	.st208{clip-path:url(#SVGID_00000070090933720057103370000015642788742151637645_);}
	.st209{clip-path:url(#SVGID_00000111186889543630977560000016140814767700067484_);}
	.st210{clip-path:url(#SVGID_00000060722464170035823660000008083708611888584623_);}
	.st211{clip-path:url(#SVGID_00000055701970049828006510000006343502468987053449_);}
	.st212{clip-path:url(#SVGID_00000047767418892031635760000002214194622588049061_);}
	.st213{clip-path:url(#SVGID_00000036221170566552114610000014573723928968065951_);}
	.st214{clip-path:url(#SVGID_00000181056049416990446750000012224002426503465914_);}
	.st215{clip-path:url(#SVGID_00000087371729093148767050000001816016518487669422_);}
	.st216{clip-path:url(#SVGID_00000122684390770888096130000000828623219419041437_);}
	.st217{clip-path:url(#SVGID_00000078744108696249718040000010112942518893362074_);}
	.st218{clip-path:url(#SVGID_00000140711303532254079720000014554366474995892874_);}
	.st219{clip-path:url(#SVGID_00000181079467779521857490000010898407371527331229_);}
	.st220{clip-path:url(#SVGID_00000033354537551588852910000004793716390441431176_);}
	.st221{clip-path:url(#SVGID_00000033346662604075713470000009605025043142296464_);}
	.st222{clip-path:url(#SVGID_00000016764854994234690380000006538415468593812618_);}
	.st223{clip-path:url(#SVGID_00000008836321471219969670000007664997193904660124_);}
	.st224{clip-path:url(#SVGID_00000049214771789234641850000006695242695729169832_);}
	.st225{clip-path:url(#SVGID_00000122709525933133417590000004170745768541520308_);}
	.st226{clip-path:url(#SVGID_00000116935017113540466170000000456668558256844726_);}
	.st227{clip-path:url(#SVGID_00000158751452435533814030000007803242668027725959_);}
	.st228{clip-path:url(#SVGID_00000044893548889216787900000016989050639109493667_);}
	.st229{clip-path:url(#SVGID_00000083796911115849403840000017876024060319289251_);}
	.st230{clip-path:url(#SVGID_00000164477646312219551380000002214646163513588402_);}
	.st231{clip-path:url(#SVGID_00000153666194350101090310000001170281433304836009_);}
	.st232{clip-path:url(#SVGID_00000014596285307188719260000006748231159819638153_);}
	.st233{clip-path:url(#SVGID_00000007422692433507964300000006115384101160598915_);}
	.st234{clip-path:url(#SVGID_00000178197796009839005870000004472849198848428979_);}
	.st235{clip-path:url(#SVGID_00000134955525758241550390000002768170443308072635_);}
	.st236{clip-path:url(#SVGID_00000050658892271317201290000012485139496551229088_);}
	.st237{clip-path:url(#SVGID_00000010301804406674731650000002602130831240741282_);}
	.st238{clip-path:url(#SVGID_00000002382253254021265610000008158196891160198529_);}
	.st239{clip-path:url(#SVGID_00000051372732600895467270000014664030565548098992_);}
	.st240{clip-path:url(#SVGID_00000093160910881677392990000008158237747106861208_);}
	.st241{clip-path:url(#SVGID_00000006673787832956147020000004529446206212919959_);}
	.st242{clip-path:url(#SVGID_00000062188346414957623450000006672119688210024590_);}
	.st243{clip-path:url(#SVGID_00000129919070664144176790000014486347993382457783_);}
	.st244{clip-path:url(#SVGID_00000114032652815568473430000015951457498270226313_);}
	.st245{clip-path:url(#SVGID_00000025404293237650345520000001573793428912478383_);}
	.st246{clip-path:url(#SVGID_00000153664764784671453500000017068914701144547497_);}
	.st247{clip-path:url(#SVGID_00000123402606960593914470000001460166750380466312_);}
	.st248{clip-path:url(#SVGID_00000021093803752109183020000015676405977648321964_);}
	.st249{clip-path:url(#SVGID_00000089575448471882467560000015673411336562826920_);}
	.st250{clip-path:url(#SVGID_00000078756236549856605820000005297434337362611618_);}
	.st251{clip-path:url(#SVGID_00000179609535883622728880000002876708580566753944_);}
	.st252{clip-path:url(#SVGID_00000110454936641337556760000012242547626963990423_);}
	.st253{clip-path:url(#SVGID_00000116921997712067106480000010357241497628013241_);}
	.st254{clip-path:url(#SVGID_00000149357860224368990990000013197461708950836907_);}
	.st255{clip-path:url(#SVGID_00000072244183846405232090000002159532796613506998_);}
	.st256{clip-path:url(#SVGID_00000087373255507894778960000008408059913528486816_);}
	.st257{clip-path:url(#SVGID_00000003798925639963640020000017250449142712231605_);}
	.st258{clip-path:url(#SVGID_00000101813861058641368750000011547617927648507284_);}
	.st259{clip-path:url(#SVGID_00000158714525149350989540000015421826129667258299_);}
	.st260{clip-path:url(#SVGID_00000042727991361883590060000011979453927556302734_);}
	.st261{clip-path:url(#SVGID_00000032630114883674053880000008809808911573837716_);}
	.st262{clip-path:url(#SVGID_00000070827815038424204520000003713414532954519471_);}
	.st263{clip-path:url(#SVGID_00000015356386542749265590000004400539557046927753_);}
	.st264{clip-path:url(#SVGID_00000073679121392066332250000018199988951677717168_);}
	.st265{clip-path:url(#SVGID_00000133491095729918065790000006114395156312412821_);}
	.st266{clip-path:url(#SVGID_00000166658041376749636620000009415482316299378079_);}
	.st267{clip-path:url(#SVGID_00000060013751334642761720000003488673333131530881_);}
	.st268{clip-path:url(#SVGID_00000181787740864079790810000005251593569508222135_);}
	.st269{clip-path:url(#SVGID_00000102527308626412313810000012131132285663161233_);}
	.st270{clip-path:url(#SVGID_00000123429834290637847990000013215785374120626325_);}
	.st271{clip-path:url(#SVGID_00000039853366998550553500000001738186955920923784_);}
	.st272{clip-path:url(#SVGID_00000023959507605649627450000008964651479967456159_);}
	.st273{clip-path:url(#SVGID_00000107559013006547076450000013834353422589895611_);}
	.st274{clip-path:url(#SVGID_00000144308564843417854980000018000530612361856150_);}
	.st275{clip-path:url(#SVGID_00000134211709894675217950000009046978414590314649_);}
	.st276{clip-path:url(#SVGID_00000067238531549303152860000007583889432935845555_);}
	.st277{clip-path:url(#SVGID_00000093178294403548918560000004731768254716929669_);}
	.st278{clip-path:url(#SVGID_00000112591651018749709180000017998884497476791195_);}
	.st279{clip-path:url(#SVGID_00000049195425214589022930000005577073218411815607_);}
	.st280{clip-path:url(#SVGID_00000151531587971750694420000001367516680720937140_);}
	.st281{clip-path:url(#SVGID_00000054975082890513554170000002349472485772160648_);}
	.st282{clip-path:url(#SVGID_00000031202530725836399940000010755666410949361839_);}
	.st283{clip-path:url(#SVGID_00000116956912816758706810000003811163605803111343_);}
	.st284{clip-path:url(#SVGID_00000003087814911118966190000002554673154095590063_);}
	.st285{clip-path:url(#SVGID_00000158732407552942451850000009064333656505165748_);}
	.st286{clip-path:url(#SVGID_00000034781617533762180550000000514110203498263201_);}
	.st287{clip-path:url(#SVGID_00000015354521424564560300000014915551903200089259_);}
	.st288{clip-path:url(#SVGID_00000023283277547710688390000004387471570830480562_);}
	.st289{clip-path:url(#SVGID_00000085242909628361628530000017709754878860641172_);}
	.st290{clip-path:url(#SVGID_00000070084491518988293210000016281637694291309223_);}
	.st291{clip-path:url(#SVGID_00000009583268234403352160000014794612763816987795_);}
	.st292{clip-path:url(#SVGID_00000038391906852657667200000000770188304431380902_);}
	.st293{clip-path:url(#SVGID_00000137115273628299019130000012990631007277885333_);}
	.st294{clip-path:url(#SVGID_00000157294850829918672360000008130481653433396157_);}
	.st295{clip-path:url(#SVGID_00000098922184495737877580000004894251926372538546_);}
	.st296{clip-path:url(#SVGID_00000031895937846835727150000008037960331094967699_);}
	.st297{clip-path:url(#SVGID_00000072992608368004521530000011438918041446214537_);}
	.st298{clip-path:url(#SVGID_00000163787582599483441080000009238814160030335616_);}
	.st299{clip-path:url(#SVGID_00000066497144708183754320000016237695491100361128_);}
	.st300{clip-path:url(#SVGID_00000009565314683601932220000015594873647692348584_);}
	.st301{clip-path:url(#SVGID_00000105416714281413540720000007722780124407788680_);}
	.st302{clip-path:url(#SVGID_00000011002737587871910470000003691011747212575661_);}
	.st303{clip-path:url(#SVGID_00000155107598573181315620000013992956762788003516_);}
	.st304{clip-path:url(#SVGID_00000162333385380888247080000003962193129432255128_);}
	.st305{clip-path:url(#SVGID_00000147902242510143159650000001794874295176687256_);}
	.st306{clip-path:url(#SVGID_00000150788608509654075470000002263952701431638943_);}
	.st307{clip-path:url(#SVGID_00000174560016983264343970000002037766995379009466_);}
	.st308{clip-path:url(#SVGID_00000032633178539363354400000011498167721591504261_);}
	.st309{clip-path:url(#SVGID_00000155834522262295098530000009617924332142715034_);}
	.st310{clip-path:url(#SVGID_00000081609487776511264980000009434277940142218641_);}
	.st311{clip-path:url(#SVGID_00000001642115069107608830000010462229452742691518_);}
	.st312{clip-path:url(#SVGID_00000026126052458823417440000012700560063435452054_);}
	.st313{clip-path:url(#SVGID_00000113348989169756825410000007956995409407450285_);}
	.st314{clip-path:url(#SVGID_00000042727417074473723280000017448879176037469883_);}
	.st315{clip-path:url(#SVGID_00000173125199580405269310000000980303081393185686_);}
	.st316{clip-path:url(#SVGID_00000104704287261391634220000004737653950709436838_);}
	.st317{clip-path:url(#SVGID_00000098182789961330562710000013626353485106681765_);}
	.st318{clip-path:url(#SVGID_00000005988634322077773140000012475448480022689941_);}
	.st319{clip-path:url(#SVGID_00000147212531897731256640000016851201023997363892_);}
	.st320{clip-path:url(#SVGID_00000023974975477782831160000010003814910198067100_);}
	.st321{clip-path:url(#SVGID_00000062158959667151890020000000062428084740160151_);}
	.st322{clip-path:url(#SVGID_00000019658783255074281740000008843012410350040747_);}
	.st323{clip-path:url(#SVGID_00000162331036910376962780000012781451006824538528_);}
	.st324{clip-path:url(#SVGID_00000041976847623672648560000004352245311063207857_);}
	.st325{clip-path:url(#SVGID_00000183222454738136473230000006180106957501859515_);}
	.st326{clip-path:url(#SVGID_00000065794793985968444510000016765837749185677992_);}
	.st327{clip-path:url(#SVGID_00000015335139508526472010000001665324694643113619_);}
	.st328{clip-path:url(#SVGID_00000008868738048644673060000000324302450575689660_);}
	.st329{clip-path:url(#SVGID_00000175288766196094771340000005938869456944465807_);}
	.st330{clip-path:url(#SVGID_00000157309768733723951710000014212433586276902077_);}
	.st331{clip-path:url(#SVGID_00000063615913773247024460000008433689349600920203_);}
	.st332{clip-path:url(#SVGID_00000068656726487827366930000015058837497705810561_);}
	.st333{clip-path:url(#SVGID_00000147210865909937892520000012847741248342172051_);}
	.st334{clip-path:url(#SVGID_00000066496562624655936280000001711297550946142128_);}
	.st335{clip-path:url(#SVGID_00000095309014955236683350000017486481225291775409_);}
	.st336{clip-path:url(#SVGID_00000068644306874414099690000009241250203806691497_);}
	.st337{clip-path:url(#SVGID_00000096775452766702092290000006621939905102813617_);}
	.st338{clip-path:url(#SVGID_00000158722245332618817550000012126718409414784650_);}
	.st339{clip-path:url(#SVGID_00000134245507683443729060000013929627914584407985_);}
	.st340{clip-path:url(#SVGID_00000127736580678924377470000000008778895275826315_);}
	.st341{clip-path:url(#SVGID_00000181055950778568574280000005624813636483771014_);}
	.st342{clip-path:url(#SVGID_00000067214888099446972380000014657812891572669104_);}
	.st343{clip-path:url(#SVGID_00000018231515658628403680000003984968325592414611_);}
	.st344{clip-path:url(#SVGID_00000047032181409183299180000004729579367621390483_);}
	.st345{clip-path:url(#SVGID_00000010279554666401186560000011202130199722075316_);}
	.st346{clip-path:url(#SVGID_00000005258421768012735210000011153270647643306674_);}
	.st347{clip-path:url(#SVGID_00000090292926731686134850000001753305641223761538_);}
	.st348{clip-path:url(#SVGID_00000054232689921356399570000002641037335137368721_);}
	.st349{clip-path:url(#SVGID_00000155145442724000422700000013397250882301374883_);}
	.st350{clip-path:url(#SVGID_00000031180020350343323790000010028564224714987689_);}
	.st351{clip-path:url(#SVGID_00000160871515978038717250000015015363922805914537_);}
	.st352{clip-path:url(#SVGID_00000183229673611381816560000007801718401794797475_);}
	.st353{clip-path:url(#SVGID_00000103965740351779539130000006940841836856917143_);}
	.st354{clip-path:url(#SVGID_00000154415494578507458040000015324167619485968820_);}
	.st355{clip-path:url(#SVGID_00000158738997236294974040000011085467177482217140_);}
	.st356{clip-path:url(#SVGID_00000129920073787778895560000005794177955072448912_);}
	.st357{clip-path:url(#SVGID_00000061448985811525596140000014781543258805381527_);}
	.st358{clip-path:url(#SVGID_00000031904345915126665230000004459648660900001429_);}
	.st359{clip-path:url(#SVGID_00000100347376580443335390000002292820959058862721_);}
	.st360{clip-path:url(#SVGID_00000109711606759619231200000011557979655227560376_);}
	.st361{clip-path:url(#SVGID_00000116920292396805071750000013119246327425937027_);}
	.st362{clip-path:url(#SVGID_00000165196306928244871230000011480357861033541281_);}
	.st363{clip-path:url(#SVGID_00000042711069647369517790000013031123884716960657_);}
	.st364{clip-path:url(#SVGID_00000124163549296293221880000009508615964427919003_);}
	.st365{clip-path:url(#SVGID_00000005980584363775967470000002306680402013784473_);}
	.st366{clip-path:url(#SVGID_00000165225404533672638290000010838157518044934332_);}
	.st367{clip-path:url(#SVGID_00000121993348889051872410000005939234252847356091_);}
	.st368{clip-path:url(#SVGID_00000163777788794930224860000013063410537204529319_);}
	.st369{clip-path:url(#SVGID_00000124868870085095808360000016917192572884628885_);}
	.st370{clip-path:url(#SVGID_00000071533394561773546020000002725585323325198213_);}
	.st371{clip-path:url(#SVGID_00000179620209366849082920000002740894994058611076_);}
	.st372{clip-path:url(#SVGID_00000145738532512166966900000013483580508596326806_);}
	.st373{clip-path:url(#SVGID_00000149342540299276388820000010112575332220062118_);}
	.st374{clip-path:url(#SVGID_00000031919426153177473870000003433439701605879200_);}
	.st375{clip-path:url(#SVGID_00000011005378154009190890000002618742070984189081_);}
</style>
<g>
	<g>
		<g>
			<rect x="4.5" y="122.5" class="st0" width="48.54" height="692.84"/>
		</g>
	</g>
	<g>
		<g>
			<rect x="4.5" class="st1" width="992.7" height="116.88"/>
		</g>
	</g>
	<g>
		<defs>
			<rect id="SVGID_00000070836140326943987960000005085739219914074018_" width="1000" height="819.82"/>
		</defs>
		<clipPath id="SVGID_00000075842313411296457520000010763788873106270385_">
			<use xlink:href="#SVGID_00000070836140326943987960000005085739219914074018_"  style="overflow:visible;"/>
		</clipPath>
		<g style="clip-path:url(#SVGID_00000075842313411296457520000010763788873106270385_);">
			<g>
				<path class="st3" d="M997.19,819.82H1.69c-0.93,0-1.69-0.75-1.69-1.68V2.81c0-0.93,0.75-1.68,1.69-1.68h995.5
					c0.93,0,1.69,0.75,1.69,1.68v815.33C998.88,819.07,998.12,819.82,997.19,819.82z M3.37,816.45H995.5V4.49H3.37V816.45z"/>
			</g>
		</g>
		<g style="clip-path:url(#SVGID_00000075842313411296457520000010763788873106270385_);">
			<g>
				<rect x="4.49" y="118" class="st3" width="995.5" height="3.37"/>
			</g>
		</g>
		<g style="clip-path:url(#SVGID_00000075842313411296457520000010763788873106270385_);">
			<g>
				<path class="st4" d="M925.42,67.68c0-6.43-3.8-10.45-11.32-11.18l-5.99-0.58c-3.36-0.29-3.94-1.9-3.94-3.29
					c0-1.9,1.61-3.66,5.41-3.66c3.29,0,6.65,0.58,8.84,2.56l5.84-5.92c-3.65-3.43-8.62-4.45-14.54-4.45
					c-7.74,0-14.68,4.23-14.68,12.12c0,7.01,4.24,10.01,11.1,10.67l5.99,0.58c3,0.3,4.02,1.61,4.02,3.51c0,2.85-3.43,3.94-6.72,3.94
					c-2.92,0-7.01-0.44-10.15-3.58l-6.21,6.2c4.82,4.82,10.23,5.47,16.22,5.47C918.26,80.09,925.42,76.08,925.42,67.68 M887.8,67.68
					c0-6.43-3.8-10.45-11.32-11.18l-5.99-0.58c-3.36-0.29-3.94-1.9-3.94-3.29c0-1.9,1.61-3.66,5.41-3.66c3.29,0,6.65,0.58,8.84,2.56
					l5.84-5.92c-3.65-3.43-8.62-4.45-14.54-4.45c-7.74,0-14.68,4.23-14.68,12.12c0,7.01,4.24,10.01,11.1,10.67l5.99,0.58
					c2.99,0.3,4.02,1.61,4.02,3.51c0,2.85-3.43,3.94-6.72,3.94c-2.92,0-7.01-0.44-10.15-3.58l-6.21,6.2
					c4.82,4.82,10.23,5.47,16.22,5.47C880.64,80.09,887.8,76.08,887.8,67.68 M847.04,79.65V41.6h-9.49v23.01
					c0,5.19-3.36,6.94-6.36,6.94c-2.99,0-6.28-1.75-6.28-6.94V41.6h-9.49v24.32c0,4.16,0.8,7.74,3.87,10.81
					c2.11,2.12,5.18,3.35,8.98,3.35c3.51,0,7.02-1.31,9.5-3.94v3.5H847.04z M806.79,79.65v-8.02h-3.65c-2.41,0-3.36-1.17-3.36-3.43
					V27.65h-9.49v41.13c0,5.4,3.29,10.87,11.1,10.87H806.79z M778.96,79.65V55.03c0-8.03-4.38-13.87-12.7-13.87
					c-3.36,0-6.58,1.31-9.14,3.94V27.65h-9.49v52h9.49V56.42c0-4.97,3.14-6.72,6.14-6.72c2.99,0,6.21,1.68,6.21,6.72v23.23H778.96z
					 M738.78,74.91l-6.43-6.35c-1.97,2.12-3.65,2.99-6.14,2.99c-2.26,0-4.02-0.8-5.41-2.48c-1.46-1.83-2.12-4.46-2.12-8.48
					s0.66-6.57,2.12-8.4c1.39-1.69,3.14-2.49,5.41-2.49c2.48,0,4.16,0.88,6.14,3l6.43-6.43c-3.36-3.5-7.3-5.11-12.56-5.11
					c-7.6,0-17.01,4.01-17.01,19.43s9.42,19.5,17.01,19.5C731.48,80.09,735.42,78.41,738.78,74.91 M701.68,67.68
					c0-6.43-3.8-10.45-11.32-11.18l-5.99-0.58c-3.36-0.29-3.94-1.9-3.94-3.29c0-1.9,1.61-3.66,5.41-3.66c3.29,0,6.65,0.58,8.84,2.56
					l5.84-5.92c-3.65-3.43-8.62-4.45-14.54-4.45c-7.74,0-14.68,4.23-14.68,12.12c0,7.01,4.24,10.01,11.1,10.67l5.99,0.58
					c2.99,0.3,4.02,1.61,4.02,3.51c0,2.85-3.43,3.94-6.72,3.94c-2.92,0-7.01-0.44-10.15-3.58l-6.21,6.2
					c4.82,4.82,10.23,5.47,16.22,5.47C694.52,80.09,701.68,76.08,701.68,67.68 M653.04,60.59c0,6.21-0.73,10.96-6.43,10.96
					s-6.43-4.75-6.43-10.96c0-6.21,0.73-10.89,6.43-10.89S653.04,54.38,653.04,60.59 M662.52,60.59c0-5.7-0.07-12.2-3.87-16
					c-2.12-2.11-5.55-3.43-9.28-3.43c-3.87,0-6.73,1.02-9.21,3.79V27.65h-9.48v52h9.19v-3.57c2.63,2.92,5.48,4.01,9.5,4.01
					c3.73,0,7.16-1.31,9.28-3.43C662.45,72.87,662.52,66.29,662.52,60.59 M609.5,65.63c0,2.34-0.37,3.87-1.39,4.83
					c-1.69,1.61-3.37,1.83-6,1.83c-3.73,0-5.48-1.75-5.48-4.39c0-2.7,1.9-4.32,5.34-4.32h7.53V65.63z M618.98,79.65V54.6
					c0-8.91-5.55-13.44-16.21-13.44c-6.36,0-10.01,1.17-13.73,5.25l6.06,5.92c1.97-2.26,3.65-3.15,7.31-3.15
					c5.04,0,7.09,1.83,7.09,6v1.9h-8.99c-8.84,0-13,4.96-13,11.02c0,3.37,1.09,6.43,3.14,8.55c2.26,2.26,5.4,3.35,9.72,3.35
					c4.38,0,6.79-1.09,9.36-3.65v3.28H618.98z M581.15,79.65v-8.02h-3.65c-2.41,0-3.36-1.17-3.36-3.43V27.65h-9.49v41.13
					c0,5.4,3.28,10.87,11.09,10.87H581.15z M552.88,79.65V41.6h-9.49v23.01c0,5.19-3.37,6.94-6.36,6.94c-2.99,0-6.29-1.75-6.29-6.94
					V41.6h-9.49v24.32c0,4.16,0.8,7.74,3.87,10.81c2.12,2.12,5.18,3.35,8.98,3.35c3.51,0,7.01-1.31,9.5-3.94v3.5H552.88z M510,79.65
					V55.03c0-8.03-4.38-13.87-12.7-13.87c-3.36,0-6.57,1.31-9.14,3.94V27.65h-9.49v52h9.49V56.42c0-4.97,3.15-6.72,6.14-6.72
					c2.99,0,6.21,1.68,6.21,6.72v23.23H510z M469.82,74.91l-6.43-6.35c-1.97,2.12-3.65,2.99-6.14,2.99c-2.26,0-4.02-0.8-5.41-2.48
					c-1.46-1.83-2.12-4.46-2.12-8.48s0.66-6.57,2.12-8.4c1.39-1.69,3.14-2.49,5.41-2.49c2.48,0,4.16,0.88,6.14,3l6.43-6.43
					c-3.36-3.5-7.3-5.11-12.56-5.11c-7.6,0-17.01,4.01-17.01,19.43s9.41,19.5,17.01,19.5C462.52,80.09,466.46,78.41,469.82,74.91
					 M432.72,67.68c0-6.43-3.8-10.45-11.32-11.18l-5.99-0.58c-3.36-0.29-3.94-1.9-3.94-3.29c0-1.9,1.61-3.66,5.41-3.66
					c3.29,0,6.65,0.58,8.84,2.56l5.84-5.92c-3.65-3.43-8.62-4.45-14.54-4.45c-7.74,0-14.68,4.23-14.68,12.12
					c0,7.01,4.24,10.01,11.1,10.67l5.99,0.58c2.99,0.3,4.02,1.61,4.02,3.51c0,2.85-3.43,3.94-6.72,3.94
					c-2.92,0-7.01-0.44-10.15-3.58l-6.21,6.2c4.82,4.82,10.23,5.47,16.22,5.47C425.56,80.09,432.72,76.08,432.72,67.68
					 M395.02,79.65v-8.02h-3.66c-2.41,0-3.35-1.17-3.35-3.43V27.65h-9.49v41.13c0,5.4,3.29,10.87,11.09,10.87H395.02z M357.7,65.63
					c0,2.34-0.37,3.87-1.39,4.83c-1.68,1.61-3.36,1.83-6,1.83c-3.73,0-5.48-1.75-5.48-4.39c0-2.7,1.9-4.32,5.33-4.32h7.53V65.63z
					 M367.19,79.65V54.6c0-8.91-5.55-13.44-16.22-13.44c-6.36,0-10.01,1.17-13.73,5.25l6.06,5.92c1.97-2.26,3.65-3.15,7.3-3.15
					c5.05,0,7.09,1.83,7.09,6v1.9h-8.99c-8.84,0-13,4.96-13,11.02c0,3.37,1.1,6.43,3.14,8.55c2.26,2.26,5.4,3.35,9.71,3.35
					c4.39,0,6.8-1.09,9.36-3.65v3.28H367.19z M318.84,57.09h-14.46c0.07-1.68,0.29-2.71,0.88-4.1c1.02-2.26,3.14-3.95,6.36-3.95
					s5.33,1.69,6.36,3.95C318.54,54.38,318.76,55.41,318.84,57.09 M328.19,63.58v-4.23c0-10.45-5.99-18.18-16.58-18.18
					c-9.86,0-16.58,7.01-16.58,19.43c0,15.41,8.61,19.5,17.6,19.5c6.87,0,10.59-2.11,14.46-5.98l-5.77-5.63
					c-2.41,2.42-4.46,3.58-8.62,3.58c-5.33,0-8.33-3.58-8.33-8.48H328.19z M292.32,44.74c-2.63-2.62-5.26-3.57-8.98-3.57
					c-4.09,0-7.74,1.9-9.57,4.09V41.6h-9.27v38.05h9.49V56.71c0-4.82,3.21-7.01,6.14-7.01c2.34,0,3.58,0.8,5.04,2.26L292.32,44.74z
					 M256.82,79.65l-14.61-22.71L255.8,41.6h-11.47l-12.64,15.55V27.65h-9.49v52h9.49V68.33l4.02-4.53l9.35,15.85H256.82z
					 M215.33,44.74c-2.63-2.62-5.26-3.57-8.98-3.57c-4.09,0-7.74,1.9-9.57,4.09V41.6h-9.27v38.05h9.49V56.71
					c0-4.82,3.21-7.01,6.14-7.01c2.34,0,3.58,0.8,5.04,2.26L215.33,44.74z M167.92,57.09h-14.46c0.07-1.68,0.29-2.71,0.88-4.1
					c1.02-2.26,3.14-3.95,6.36-3.95c3.21,0,5.33,1.69,6.36,3.95C167.63,54.38,167.85,55.41,167.92,57.09 M177.27,63.58v-4.23
					c0-10.45-5.99-18.18-16.58-18.18c-9.86,0-16.57,7.01-16.57,19.43c0,15.41,8.61,19.5,17.59,19.5c6.87,0,10.59-2.11,14.46-5.98
					l-5.77-5.63c-2.41,2.42-4.46,3.58-8.62,3.58c-5.33,0-8.33-3.58-8.33-8.48H177.27z M141.7,27.65h-10.59L123,60.44l-9.5-32.79
					h-7.6l-9.5,32.79l-8.04-32.79H77.78l13.88,52h8.47l9.57-31.55l9.57,31.55h8.47L141.7,27.65z"/>
			</g>
		</g>
		<g style="clip-path:url(#SVGID_00000075842313411296457520000010763788873106270385_);">
			<g>
				<rect x="3.09" y="348.94" class="st3" width="992.7" height="3.37"/>
			</g>
		</g>
		<g style="clip-path:url(#SVGID_00000075842313411296457520000010763788873106270385_);">
			<g>
				<rect x="3.09" y="232.07" class="st3" width="992.7" height="3.37"/>
			</g>
		</g>
		<g style="clip-path:url(#SVGID_00000075842313411296457520000010763788873106270385_);">
			<g>
				<rect x="3.09" y="463.01" class="st3" width="992.7" height="3.37"/>
			</g>
		</g>
		<g style="clip-path:url(#SVGID_00000075842313411296457520000010763788873106270385_);">
			<g>
				<rect x="3.09" y="585.51" class="st3" width="992.7" height="3.37"/>
			</g>
		</g>
		<g style="clip-path:url(#SVGID_00000075842313411296457520000010763788873106270385_);">
			<g>
				<rect x="3.09" y="702.38" class="st3" width="992.7" height="3.37"/>
			</g>
		</g>
	</g>
	<g>
		<g>
			<polygon class="st4" points="20.73,755.85 36.8,755.85 28.77,745.23 			"/>
		</g>
	</g>
	<g>
		<g>
			<polygon class="st4" points="20.73,776.99 36.8,776.99 28.77,766.36 			"/>
		</g>
	</g>
	<g>
		<g>
			<polygon class="st4" points="20.73,798.12 36.8,798.12 28.77,787.5 			"/>
		</g>
	</g>
	<g>
		<g>
			<polygon class="st4" points="20.73,734.72 36.8,734.72 28.77,724.09 			"/>
		</g>
	</g>
	<g>
		<g>
			<polygon class="st4" points="20.73,640.38 36.8,640.38 28.77,629.75 			"/>
		</g>
	</g>
	<g>
		<g>
			<polygon class="st4" points="20.73,661.51 36.8,661.51 28.77,650.89 			"/>
		</g>
	</g>
	<g>
		<g>
			<polygon class="st4" points="20.73,682.65 36.8,682.65 28.77,672.02 			"/>
		</g>
	</g>
	<g>
		<g>
			<polygon class="st4" points="20.73,619.24 36.8,619.24 28.77,608.62 			"/>
		</g>
	</g>
	<g>
		<g>
			<polygon class="st4" points="20.73,520.69 36.8,520.69 28.77,510.07 			"/>
		</g>
	</g>
	<g>
		<g>
			<polygon class="st4" points="20.73,541.83 36.8,541.83 28.77,531.2 			"/>
		</g>
	</g>
	<g>
		<g>
			<polygon class="st4" points="20.73,562.96 36.8,562.96 28.77,552.34 			"/>
		</g>
	</g>
	<g>
		<g>
			<polygon class="st4" points="20.73,499.56 36.8,499.56 28.77,488.93 			"/>
		</g>
	</g>
	<g>
		<g>
			<polygon class="st4" points="20.73,402.41 36.8,402.41 28.77,391.78 			"/>
		</g>
	</g>
	<g>
		<g>
			<polygon class="st4" points="20.73,423.54 36.8,423.54 28.77,412.92 			"/>
		</g>
	</g>
	<g>
		<g>
			<polygon class="st4" points="20.73,444.68 36.8,444.68 28.77,434.05 			"/>
		</g>
	</g>
	<g>
		<g>
			<polygon class="st4" points="20.73,381.27 36.8,381.27 28.77,370.65 			"/>
		</g>
	</g>
	<g>
		<g>
			<polygon class="st4" points="20.73,286.94 36.8,286.94 28.77,276.31 			"/>
		</g>
	</g>
	<g>
		<g>
			<polygon class="st4" points="20.73,308.07 36.8,308.07 28.77,297.45 			"/>
		</g>
	</g>
	<g>
		<g>
			<polygon class="st4" points="20.73,329.21 36.8,329.21 28.77,318.58 			"/>
		</g>
	</g>
	<g>
		<g>
			<polygon class="st4" points="20.73,265.8 36.8,265.8 28.77,255.18 			"/>
		</g>
	</g>
	<g>
		<g>
			<polygon class="st4" points="20.73,170.06 36.8,170.06 28.77,159.44 			"/>
		</g>
	</g>
	<g>
		<g>
			<polygon class="st4" points="20.73,191.2 36.8,191.2 28.77,180.57 			"/>
		</g>
	</g>
	<g>
		<g>
			<polygon class="st4" points="20.73,212.33 36.8,212.33 28.77,201.71 			"/>
		</g>
	</g>
	<g>
		<g>
			<polygon class="st4" points="20.73,148.93 36.8,148.93 28.77,138.3 			"/>
		</g>
	</g>
	<g>
		<defs>
			<rect id="SVGID_00000109006371107931808810000012144649660604592035_" width="1000" height="819.82"/>
		</defs>
		<clipPath id="SVGID_00000087387726552941924310000005276371318329078443_">
			<use xlink:href="#SVGID_00000109006371107931808810000012144649660604592035_"  style="overflow:visible;"/>
		</clipPath>
		<g style="clip-path:url(#SVGID_00000087387726552941924310000005276371318329078443_);">
			<g>
				<path class="st3" d="M704.37,290.87c0,4.11-2.4,6.57-5.82,6.57c-3.64,0-5.77-2.83-5.77-6.57c0-4.06,2.35-6.62,5.77-6.62
					C701.97,284.25,704.37,286.82,704.37,290.87 M709.81,290.77c0-7.05-4.69-11.37-11.25-11.37c-6.57,0-11.21,4.59-11.21,11.58
					c0,6.68,4.43,10.99,9.92,10.99c1.18,0,2.41-0.16,3.42-0.58l-8.18,16.33h5.83l8.65-17.62
					C708.64,296.8,709.81,293.86,709.81,290.77 M662.2,301.98h-12.17c0.05-1.66,0.16-2.46,0.69-3.69c0.85-2.03,2.83-3.42,5.39-3.42
					s4.48,1.39,5.34,3.42C661.98,299.52,662.14,300.33,662.2,301.98 M667.58,305.76v-2.4c0-7.69-4.21-13.02-11.47-13.02
					c-6.94,0-11.47,5.06-11.47,13.82c0,10.31,5.39,13.88,12.17,13.88c4.75,0,7.37-1.44,10.14-4.21l-3.47-3.25
					c-1.92,1.92-3.52,2.78-6.57,2.78c-4.43,0-6.88-2.94-6.88-7.59H667.58z M638.87,309.45c0-4.8-2.99-7.21-8.06-7.64l-4.27-0.37
					c-2.88-0.27-3.74-1.49-3.74-3.1c0-2.03,1.66-3.47,4.91-3.47c2.56,0,4.97,0.53,6.68,1.98l3.42-3.47
					c-2.51-2.19-5.98-3.03-10.04-3.03c-5.66,0-10.2,2.98-10.2,8.27c0,4.75,2.94,7.05,8.01,7.48l4.33,0.37
					c2.61,0.21,3.63,1.39,3.63,3.2c0,2.57-2.62,3.74-5.93,3.74c-2.67,0-5.6-0.59-7.79-2.83l-3.57,3.57
					c3.2,3.15,6.94,3.89,11.37,3.89C634.07,318.04,638.87,315.11,638.87,309.45 M612.02,309.45c0-4.8-2.99-7.21-8.06-7.64
					l-4.27-0.37c-2.88-0.27-3.74-1.49-3.74-3.1c0-2.03,1.65-3.47,4.91-3.47c2.56,0,4.96,0.53,6.67,1.98l3.42-3.47
					c-2.51-2.19-5.98-3.03-10.04-3.03c-5.66,0-10.19,2.98-10.19,8.27c0,4.75,2.93,7.05,8.01,7.48l4.32,0.37
					c2.62,0.21,3.63,1.39,3.63,3.2c0,2.57-2.61,3.74-5.92,3.74c-2.67,0-5.61-0.59-7.79-2.83l-3.58,3.57
					c3.2,3.15,6.94,3.89,11.37,3.89C607.21,318.04,612.02,315.11,612.02,309.45 M577.65,307.96c0,1.92-0.38,3.2-1.17,4.01
					c-1.44,1.39-2.99,1.55-5.07,1.55c-3.42,0-4.97-1.39-4.97-3.85c0-2.46,1.65-3.9,4.86-3.9h6.36V307.96z M583.08,317.72v-18.09
					c0-6.14-3.73-9.28-11.15-9.28c-4.49,0-7.15,0.9-9.72,3.89l3.57,3.37c1.49-1.92,2.94-2.62,5.93-2.62c4.22,0,5.93,1.66,5.93,5.07
					v1.93h-7.16c-6.19,0-9.34,3.25-9.34,7.79c0,2.3,0.75,4.38,2.14,5.82c1.65,1.65,3.89,2.45,7.26,2.45s5.23-0.8,7.21-2.77v2.45
					H583.08z M556.66,317.72v-4.64h-2.4c-2.19,0-2.94-1.07-2.94-3.15v-30.21h-5.43v30.53c0,4,2.24,7.47,7.41,7.47H556.66z
					 M540.64,317.72l-13.61-23.11l12.33-14.89h-7.05l-15.53,19.11v-19.11h-5.76v38h5.76v-11.05l6.41-7.69l10.68,18.73H540.64z
					 M492.88,275.77h-5.23l-15.22,45.9h5.23L492.88,275.77z M453.32,282.32h-5.51v35.4h5.51V282.32z M437.37,282.32h-5.51v29.17
					h-8.88v6.24h14.38V282.32z M418.88,313.79v-15.4c0-1.94-0.29-3.47-0.87-4.58c-0.58-1.1-1.56-1.89-2.92-2.36
					c-1.37-0.47-3.25-0.7-5.65-0.7c-2.96,0-5.66,0.4-8.12,1.21c-2.46,0.81-4.54,1.97-6.27,3.49c-1.73,1.51-2.99,3.34-3.82,5.47v-9.6
					h-5.51v22.48h5.51c0-5.7,1.3-9.92,3.91-12.68c2.6-2.75,6.55-4.13,11.83-4.13c2.96,0,5.1,0.21,6.41,0.62v16.19H418.88z
					 M376.85,317.73h48.38v-6.24h-48.38V317.73z M363.56,284.01c0.55-0.42,1.02-0.89,1.43-1.44c0.41-0.54,0.62-1.02,0.62-1.43
					c0-0.44-0.21-0.94-0.62-1.49c-0.41-0.54-0.88-1.01-1.4-1.4c-0.52-0.39-1.01-0.59-1.46-0.59c-0.45,0-0.94,0.2-1.49,0.59
					c-0.55,0.39-1.01,0.87-1.4,1.4c-0.39,0.55-0.59,1.05-0.59,1.49c0,0.42,0.2,0.9,0.59,1.47c0.39,0.56,0.87,1.03,1.43,1.43
					c0.56,0.39,1.05,0.6,1.46,0.6C362.54,284.63,363.01,284.42,363.56,284.01 M354.03,311.49v-11.58c0-1.13,0.18-1.89,0.53-2.28
					c0.35-0.4,1-0.6,1.94-0.6h10.73v11.8c0,1.01-0.19,1.71-0.56,2.08c-0.38,0.38-1.03,0.57-1.97,0.57H354.03z M372.75,317.73v-25.18
					c-2.21-0.67-4.23-1.15-6.07-1.43c-1.84-0.28-3.86-0.42-6.07-0.42c-2.43,0-4.46,0.2-6.07,0.62c-1.61,0.41-2.88,1.06-3.82,1.96
					c-0.94,0.9-1.6,2.11-1.99,3.62c-0.39,1.52-0.59,3.42-0.59,5.7c0,2.14,0.06,3.88,0.17,5.23c0.11,1.35,0.3,2.57,0.56,3.66h-16.63
					c-0.3-0.98-0.52-2.01-0.65-3.1c-0.13-1.08-0.2-2.34-0.2-3.76c0-1.24,0.11-2.53,0.34-3.91c0.22-1.37,0.56-2.78,1.01-4.24
					l-5.28-0.85c-0.49,1.39-0.88,3.01-1.18,4.86c-0.3,1.86-0.45,3.66-0.45,5.42c0,2.85,0.28,5.14,0.84,6.86
					c0.56,1.73,1.46,2.98,2.7,3.76c1.24,0.79,2.85,1.19,4.83,1.19H372.75z M372.75,317.73h6.35v-6.24h-6.35V317.73z M299.92,290.87
					c0,4.11-2.4,6.57-5.82,6.57c-3.63,0-5.77-2.83-5.77-6.57c0-4.06,2.35-6.62,5.77-6.62C297.51,284.25,299.92,286.82,299.92,290.87
					 M305.36,290.77c0-7.05-4.69-11.37-11.26-11.37c-6.57,0-11.2,4.59-11.2,11.58c0,6.68,4.42,10.99,9.92,10.99
					c1.17,0,2.4-0.16,3.42-0.58l-8.17,16.33h5.82l8.65-17.62C304.18,296.8,305.36,293.86,305.36,290.77"/>
			</g>
		</g>
		<g style="clip-path:url(#SVGID_00000087387726552941924310000005276371318329078443_);">
			<g>
				<path class="st3" d="M733.09,187.33c0,3.69-2.08,6.2-5.56,6.2c-3.47,0-5.5-2.51-5.5-6.2v-16.55c0-3.69,2.03-6.19,5.5-6.19
					c3.47,0,5.56,2.51,5.56,6.19V187.33z M738.53,187.49v-16.87c0-6.78-4.96-10.88-11-10.88c-6.03,0-10.94,4.11-10.94,10.88v16.87
					c0,6.78,4.91,10.88,10.94,10.88C733.57,198.38,738.53,194.28,738.53,187.49 M703.3,198.06v-38h-5.44l-7.42,6.41v6.03l7.42-6.51
					v32.07H703.3z M662.19,182.32h-12.17c0.06-1.66,0.16-2.46,0.7-3.69c0.85-2.03,2.83-3.42,5.39-3.42s4.48,1.39,5.34,3.42
					C661.98,179.86,662.14,180.66,662.19,182.32 M667.59,186.1v-2.4c0-7.69-4.22-13.02-11.48-13.02c-6.94,0-11.47,5.06-11.47,13.82
					c0,10.31,5.38,13.88,12.17,13.88c4.75,0,7.37-1.44,10.14-4.21l-3.47-3.26c-1.92,1.92-3.52,2.78-6.56,2.78
					c-4.43,0-6.89-2.94-6.89-7.59H667.59z M638.87,189.79c0-4.8-2.99-7.21-8.06-7.64l-4.27-0.37c-2.88-0.27-3.74-1.49-3.74-3.1
					c0-2.03,1.65-3.47,4.91-3.47c2.56,0,4.96,0.53,6.67,1.98l3.42-3.47c-2.51-2.19-5.98-3.03-10.04-3.03
					c-5.66,0-10.19,2.98-10.19,8.27c0,4.75,2.93,7.05,8.01,7.48l4.32,0.37c2.62,0.21,3.63,1.39,3.63,3.2c0,2.57-2.61,3.74-5.92,3.74
					c-2.67,0-5.61-0.59-7.79-2.83l-3.58,3.57c3.2,3.15,6.94,3.89,11.37,3.89C634.06,198.38,638.87,195.45,638.87,189.79
					 M612.02,189.79c0-4.8-2.99-7.21-8.06-7.64l-4.27-0.37c-2.88-0.27-3.74-1.49-3.74-3.1c0-2.03,1.66-3.47,4.91-3.47
					c2.56,0,4.97,0.53,6.68,1.98l3.42-3.47c-2.51-2.19-5.98-3.03-10.04-3.03c-5.66,0-10.2,2.98-10.2,8.27
					c0,4.75,2.94,7.05,8.01,7.48l4.33,0.37c2.61,0.21,3.63,1.39,3.63,3.2c0,2.57-2.62,3.74-5.93,3.74c-2.67,0-5.6-0.59-7.79-2.83
					l-3.57,3.57c3.2,3.15,6.94,3.89,11.37,3.89C607.22,198.38,612.02,195.45,612.02,189.79 M577.64,188.29
					c0,1.92-0.37,3.2-1.17,4.01c-1.44,1.39-2.99,1.55-5.07,1.55c-3.42,0-4.97-1.39-4.97-3.85c0-2.46,1.66-3.9,4.86-3.9h6.36V188.29z
					 M583.08,198.06v-18.09c0-6.14-3.73-9.28-11.15-9.28c-4.48,0-7.15,0.9-9.71,3.89l3.57,3.37c1.49-1.92,2.94-2.62,5.93-2.62
					c4.22,0,5.93,1.66,5.93,5.07v1.93h-7.15c-6.19,0-9.34,3.25-9.34,7.79c0,2.3,0.75,4.38,2.13,5.82c1.66,1.65,3.89,2.45,7.26,2.45
					c3.37,0,5.24-0.8,7.21-2.77v2.45H583.08z M556.66,198.06v-4.64h-2.4c-2.19,0-2.93-1.07-2.93-3.15v-30.21h-5.44v30.53
					c0,4,2.24,7.47,7.41,7.47H556.66z M540.65,198.06l-13.62-23.11l12.33-14.89h-7.05l-15.54,19.11v-19.11h-5.75v38h5.75v-11.05
					l6.41-7.69l10.68,18.73H540.65z M492.87,156.11h-5.23l-15.21,45.9h5.23L492.87,156.11z M453.32,162.66h-5.51v35.4h5.51V162.66z
					 M437.36,162.66h-5.51v29.16h-8.88v6.24h14.38V162.66z M418.88,194.13v-15.4c0-1.95-0.29-3.48-0.87-4.58
					c-0.58-1.11-1.55-1.89-2.92-2.36c-1.37-0.47-3.25-0.7-5.65-0.7c-2.96,0-5.66,0.4-8.12,1.21c-2.45,0.8-4.54,1.97-6.27,3.48
					c-1.72,1.52-2.99,3.34-3.82,5.48v-9.61h-5.51v22.48h5.51c0-5.7,1.3-9.92,3.91-12.67c2.61-2.75,6.55-4.13,11.83-4.13
					c2.96,0,5.1,0.2,6.41,0.62v16.18H418.88z M376.85,198.06h48.38v-6.24h-48.38V198.06z M363.56,164.35
					c0.55-0.42,1.02-0.89,1.43-1.43c0.42-0.55,0.62-1.02,0.62-1.43c0-0.45-0.2-0.95-0.62-1.49c-0.41-0.55-0.88-1.01-1.4-1.4
					c-0.52-0.39-1.01-0.59-1.46-0.59s-0.94,0.2-1.49,0.59c-0.54,0.39-1.01,0.86-1.4,1.4c-0.39,0.54-0.59,1.04-0.59,1.49
					c0,0.41,0.2,0.9,0.59,1.46c0.39,0.56,0.87,1.04,1.43,1.43c0.56,0.39,1.05,0.59,1.46,0.59
					C362.54,164.97,363.02,164.76,363.56,164.35 M354.03,191.83v-11.58c0-1.12,0.18-1.88,0.53-2.28c0.36-0.39,1.01-0.59,1.94-0.59
					h10.73v11.8c0,1.01-0.19,1.7-0.56,2.08c-0.37,0.37-1.03,0.56-1.97,0.56H354.03z M372.74,198.06v-25.17
					c-2.21-0.67-4.23-1.15-6.07-1.43c-1.83-0.28-3.85-0.42-6.07-0.42c-2.43,0-4.46,0.2-6.07,0.62c-1.61,0.41-2.88,1.07-3.82,1.97
					c-0.93,0.9-1.6,2.11-1.99,3.62c-0.39,1.52-0.59,3.42-0.59,5.7c0,2.14,0.06,3.88,0.17,5.23c0.11,1.35,0.3,2.56,0.56,3.65h-16.63
					c-0.3-0.98-0.51-2.01-0.65-3.09c-0.13-1.09-0.2-2.34-0.2-3.76c0-1.24,0.11-2.54,0.34-3.91c0.22-1.37,0.56-2.78,1.01-4.24
					l-5.28-0.84c-0.48,1.38-0.88,3.01-1.18,4.86c-0.3,1.85-0.45,3.66-0.45,5.42c0,2.84,0.28,5.13,0.84,6.86
					c0.56,1.72,1.46,2.98,2.7,3.76s2.85,1.18,4.83,1.18H372.74z M372.74,198.06h6.35v-6.24h-6.35V198.06z M299.65,187.33
					c0,3.69-2.08,6.2-5.55,6.2c-3.47,0-5.51-2.51-5.51-6.2v-16.55c0-3.69,2.03-6.19,5.51-6.19c3.47,0,5.55,2.51,5.55,6.19V187.33z
					 M305.09,187.49v-16.87c0-6.78-4.96-10.88-10.99-10.88c-6.03,0-10.94,4.11-10.94,10.88v16.87c0,6.78,4.91,10.88,10.94,10.88
					C300.13,198.38,305.09,194.28,305.09,187.49 M269.86,198.06v-38h-5.44l-7.42,6.41v6.03l7.42-6.51v32.07H269.86z"/>
			</g>
		</g>
		<g style="clip-path:url(#SVGID_00000087387726552941924310000005276371318329078443_);">
			<g>
				<path class="st3" d="M704.21,402.19c0,3.37-2.35,5.77-5.66,5.77s-5.61-2.4-5.61-5.77c0-3.31,2.3-5.82,5.61-5.82
					S704.21,398.88,704.21,402.19 M704.8,419.01c0,3.52-2.73,6.3-6.25,6.3c-3.52,0-6.25-2.78-6.25-6.3c0-3.52,2.73-6.36,6.25-6.36
					C702.07,412.66,704.8,415.49,704.8,419.01 M710.29,419.12c0-4.54-2.56-7.32-5.22-8.91c2.45-1.49,4.59-4.16,4.59-8.17
					c0-6.36-4.91-10.51-11.1-10.51c-6.19,0-11.05,4.16-11.05,10.51c0,4.01,2.14,6.68,4.59,8.17c-2.66,1.6-5.23,4.37-5.23,8.91
					c0,6.89,5.18,11.05,11.69,11.05C705.07,430.16,710.29,426.01,710.29,419.12 M662.19,414.11h-12.17c0.06-1.66,0.16-2.46,0.7-3.69
					c0.85-2.03,2.83-3.42,5.39-3.42s4.48,1.39,5.34,3.42C661.98,411.64,662.14,412.45,662.19,414.11 M667.59,417.89v-2.4
					c0-7.69-4.22-13.02-11.48-13.02c-6.94,0-11.47,5.06-11.47,13.82c0,10.31,5.38,13.88,12.17,13.88c4.75,0,7.37-1.44,10.14-4.21
					l-3.47-3.25c-1.92,1.92-3.52,2.78-6.56,2.78c-4.43,0-6.89-2.94-6.89-7.59H667.59z M638.87,421.57c0-4.8-2.99-7.21-8.06-7.64
					l-4.27-0.37c-2.88-0.27-3.74-1.49-3.74-3.1c0-2.03,1.65-3.47,4.91-3.47c2.56,0,4.96,0.53,6.67,1.98l3.42-3.47
					c-2.51-2.19-5.98-3.03-10.04-3.03c-5.66,0-10.19,2.98-10.19,8.27c0,4.75,2.93,7.05,8.01,7.48l4.32,0.37
					c2.62,0.21,3.63,1.39,3.63,3.2c0,2.57-2.61,3.74-5.92,3.74c-2.67,0-5.61-0.59-7.79-2.83l-3.58,3.57
					c3.2,3.15,6.94,3.89,11.37,3.89C634.06,430.16,638.87,427.23,638.87,421.57 M612.02,421.57c0-4.8-2.99-7.21-8.06-7.64
					l-4.27-0.37c-2.88-0.27-3.74-1.49-3.74-3.1c0-2.03,1.66-3.47,4.91-3.47c2.56,0,4.97,0.53,6.68,1.98l3.42-3.47
					c-2.51-2.19-5.98-3.03-10.04-3.03c-5.66,0-10.2,2.98-10.2,8.27c0,4.75,2.94,7.05,8.01,7.48l4.33,0.37
					c2.61,0.21,3.63,1.39,3.63,3.2c0,2.57-2.62,3.74-5.93,3.74c-2.67,0-5.6-0.59-7.79-2.83l-3.57,3.57
					c3.2,3.15,6.94,3.89,11.37,3.89C607.22,430.16,612.02,427.23,612.02,421.57 M577.64,420.08c0,1.92-0.37,3.2-1.17,4.01
					c-1.44,1.39-2.99,1.55-5.07,1.55c-3.42,0-4.97-1.39-4.97-3.85c0-2.46,1.66-3.9,4.86-3.9h6.36V420.08z M583.08,429.84v-18.09
					c0-6.14-3.73-9.28-11.15-9.28c-4.48,0-7.15,0.9-9.71,3.89l3.57,3.37c1.49-1.92,2.94-2.62,5.93-2.62c4.22,0,5.93,1.66,5.93,5.07
					v1.93h-7.15c-6.19,0-9.34,3.25-9.34,7.79c0,2.3,0.75,4.38,2.13,5.82c1.66,1.65,3.89,2.45,7.26,2.45s5.24-0.8,7.21-2.77v2.45
					H583.08z M556.66,429.84v-4.64h-2.4c-2.19,0-2.93-1.07-2.93-3.15v-30.21h-5.44v30.53c0,4,2.24,7.47,7.41,7.47H556.66z
					 M540.65,429.84l-13.62-23.11l12.33-14.89h-7.05l-15.54,19.11v-19.11h-5.75v38h5.75V418.8l6.41-7.69l10.68,18.73H540.65z
					 M492.87,387.89h-5.23l-15.21,45.9h5.23L492.87,387.89z M453.32,394.44h-5.51v35.4h5.51V394.44z M437.36,394.44h-5.51v29.16
					h-8.88v6.24h14.38V394.44z M418.88,425.92v-15.4c0-1.94-0.29-3.47-0.87-4.58c-0.58-1.1-1.55-1.89-2.92-2.36
					c-1.37-0.47-3.25-0.7-5.65-0.7c-2.96,0-5.66,0.4-8.12,1.21c-2.45,0.81-4.54,1.97-6.27,3.49c-1.72,1.51-2.99,3.34-3.82,5.47v-9.6
					h-5.51v22.48h5.51c0-5.7,1.3-9.92,3.91-12.68c2.61-2.75,6.55-4.13,11.83-4.13c2.96,0,5.1,0.21,6.41,0.62v16.19H418.88z
					 M376.84,429.85h48.38v-6.24h-48.38V429.85z M363.56,396.14c0.55-0.42,1.02-0.89,1.43-1.44c0.42-0.54,0.62-1.02,0.62-1.43
					c0-0.44-0.2-0.94-0.62-1.49c-0.41-0.54-0.88-1.01-1.4-1.4c-0.52-0.39-1.01-0.59-1.46-0.59c-0.45,0-0.94,0.2-1.49,0.59
					c-0.54,0.39-1.01,0.87-1.4,1.4c-0.39,0.55-0.59,1.05-0.59,1.49c0,0.42,0.2,0.9,0.59,1.47c0.39,0.56,0.87,1.03,1.43,1.43
					c0.56,0.39,1.05,0.6,1.46,0.6C362.54,396.75,363.02,396.55,363.56,396.14 M354.03,423.61v-11.57c0-1.13,0.18-1.89,0.53-2.28
					c0.36-0.4,1.01-0.6,1.94-0.6h10.73v11.8c0,1.01-0.19,1.71-0.56,2.08c-0.37,0.38-1.03,0.56-1.97,0.56H354.03z M372.74,429.85
					v-25.18c-2.21-0.67-4.23-1.15-6.07-1.43c-1.83-0.28-3.85-0.42-6.07-0.42c-2.43,0-4.46,0.2-6.07,0.62
					c-1.61,0.41-2.88,1.06-3.82,1.96c-0.93,0.9-1.6,2.11-1.99,3.62c-0.39,1.52-0.59,3.42-0.59,5.7c0,2.14,0.06,3.88,0.17,5.23
					c0.11,1.35,0.3,2.57,0.56,3.65h-16.63c-0.3-0.97-0.51-2-0.65-3.09c-0.13-1.08-0.2-2.34-0.2-3.76c0-1.24,0.11-2.53,0.34-3.91
					c0.22-1.37,0.56-2.78,1.01-4.24l-5.28-0.85c-0.48,1.39-0.88,3.01-1.18,4.86c-0.3,1.85-0.45,3.66-0.45,5.42
					c0,2.85,0.28,5.14,0.84,6.86c0.56,1.73,1.46,2.98,2.7,3.76c1.24,0.79,2.85,1.19,4.83,1.19H372.74z M372.74,429.85h6.35v-6.24
					h-6.35V429.85z M299.76,402.19c0,3.37-2.35,5.77-5.66,5.77c-3.32,0-5.61-2.4-5.61-5.77c0-3.31,2.3-5.82,5.61-5.82
					C297.41,396.37,299.76,398.88,299.76,402.19 M300.35,419.01c0,3.52-2.73,6.3-6.25,6.3c-3.53,0-6.25-2.78-6.25-6.3
					c0-3.52,2.72-6.36,6.25-6.36C297.62,412.66,300.35,415.49,300.35,419.01 M305.84,419.12c0-4.54-2.56-7.32-5.23-8.91
					c2.46-1.49,4.59-4.16,4.59-8.17c0-6.36-4.91-10.51-11.1-10.51c-6.2,0-11.05,4.16-11.05,10.51c0,4.01,2.13,6.68,4.59,8.17
					c-2.67,1.6-5.23,4.37-5.23,8.91c0,6.89,5.17,11.05,11.69,11.05C300.61,430.16,305.84,426.01,305.84,419.12"/>
			</g>
		</g>
		<g style="clip-path:url(#SVGID_00000087387726552941924310000005276371318329078443_);">
			<g>
				<path class="st3" d="M704.37,658.36c0,4.06-2.4,6.62-5.82,6.62c-3.42,0-5.77-2.57-5.77-6.62c0-4.11,2.35-6.57,5.77-6.57
					C702.18,651.79,704.37,654.62,704.37,658.36 M709.81,658.25c0-6.68-4.48-10.99-9.97-10.99c-1.17,0-2.35,0.16-3.37,0.58
					l8.17-16.33h-5.82l-8.65,17.62c-1.65,3.3-2.83,6.24-2.83,9.34c0,7.05,4.69,11.37,11.26,11.37
					C705.17,669.84,709.81,665.25,709.81,658.25 M662.2,653.78h-12.17c0.05-1.66,0.16-2.46,0.69-3.69c0.85-2.03,2.83-3.42,5.39-3.42
					s4.48,1.39,5.34,3.42C661.98,651.31,662.14,652.12,662.2,653.78 M667.58,657.56v-2.4c0-7.69-4.21-13.02-11.47-13.02
					c-6.94,0-11.47,5.06-11.47,13.82c0,10.31,5.39,13.88,12.17,13.88c4.75,0,7.37-1.44,10.14-4.21l-3.47-3.25
					c-1.92,1.92-3.52,2.78-6.57,2.78c-4.43,0-6.88-2.94-6.88-7.59H667.58z M638.87,661.24c0-4.8-2.99-7.21-8.06-7.64l-4.27-0.37
					c-2.88-0.27-3.74-1.49-3.74-3.1c0-2.03,1.66-3.47,4.91-3.47c2.56,0,4.97,0.53,6.68,1.98l3.42-3.47
					c-2.51-2.19-5.98-3.03-10.04-3.03c-5.66,0-10.2,2.98-10.2,8.27c0,4.75,2.94,7.05,8.01,7.48l4.33,0.37
					c2.61,0.21,3.63,1.39,3.63,3.2c0,2.57-2.62,3.74-5.93,3.74c-2.67,0-5.6-0.59-7.79-2.83l-3.57,3.57
					c3.2,3.15,6.94,3.89,11.37,3.89C634.07,669.84,638.87,666.9,638.87,661.24 M612.02,661.24c0-4.8-2.99-7.21-8.06-7.64l-4.27-0.37
					c-2.88-0.27-3.74-1.49-3.74-3.1c0-2.03,1.65-3.47,4.91-3.47c2.56,0,4.96,0.53,6.67,1.98l3.42-3.47
					c-2.51-2.19-5.98-3.03-10.04-3.03c-5.66,0-10.19,2.98-10.19,8.27c0,4.75,2.93,7.05,8.01,7.48l4.32,0.37
					c2.62,0.21,3.63,1.39,3.63,3.2c0,2.57-2.61,3.74-5.92,3.74c-2.67,0-5.61-0.59-7.79-2.83l-3.58,3.57
					c3.2,3.15,6.94,3.89,11.37,3.89C607.21,669.84,612.02,666.9,612.02,661.24 M577.65,659.75c0,1.92-0.38,3.2-1.17,4.01
					c-1.44,1.39-2.99,1.55-5.07,1.55c-3.42,0-4.97-1.39-4.97-3.85c0-2.46,1.65-3.9,4.86-3.9h6.36V659.75z M583.08,669.51v-18.09
					c0-6.14-3.73-9.28-11.15-9.28c-4.49,0-7.15,0.9-9.72,3.89l3.57,3.37c1.49-1.92,2.94-2.62,5.93-2.62c4.22,0,5.93,1.66,5.93,5.07
					v1.93h-7.16c-6.19,0-9.34,3.25-9.34,7.79c0,2.3,0.75,4.38,2.14,5.82c1.65,1.65,3.89,2.45,7.26,2.45s5.23-0.8,7.21-2.77v2.45
					H583.08z M556.66,669.51v-4.64h-2.4c-2.19,0-2.94-1.07-2.94-3.15v-30.21h-5.43v30.53c0,4,2.24,7.47,7.41,7.47H556.66z
					 M540.64,669.51l-13.61-23.11l12.33-14.89h-7.05l-15.53,19.11v-19.11h-5.76v38h5.76v-11.05l6.41-7.69l10.68,18.73H540.64z
					 M492.88,627.56h-5.23l-15.22,45.9h5.23L492.88,627.56z M453.32,634.12h-5.51v35.4h5.51V634.12z M437.37,634.12h-5.51v29.16
					h-8.88v6.24h14.38V634.12z M418.88,665.59v-15.4c0-1.95-0.29-3.48-0.87-4.58c-0.58-1.11-1.56-1.89-2.92-2.36
					c-1.37-0.47-3.25-0.7-5.65-0.7c-2.96,0-5.66,0.4-8.12,1.21c-2.46,0.8-4.54,1.97-6.27,3.48c-1.73,1.52-2.99,3.34-3.82,5.48v-9.61
					h-5.51v22.48h5.51c0-5.7,1.3-9.92,3.91-12.67s6.55-4.13,11.83-4.13c2.96,0,5.1,0.2,6.41,0.62v16.18H418.88z M376.85,669.52
					h48.38v-6.24h-48.38V669.52z M363.56,635.81c0.55-0.42,1.02-0.89,1.43-1.43c0.41-0.55,0.62-1.02,0.62-1.43
					c0-0.45-0.21-0.95-0.62-1.49c-0.41-0.55-0.88-1.01-1.4-1.4c-0.52-0.39-1.01-0.59-1.46-0.59c-0.45,0-0.94,0.2-1.49,0.59
					c-0.55,0.39-1.01,0.86-1.4,1.4c-0.39,0.54-0.59,1.04-0.59,1.49c0,0.41,0.2,0.9,0.59,1.46c0.39,0.56,0.87,1.04,1.43,1.43
					c0.56,0.39,1.05,0.59,1.46,0.59C362.54,636.42,363.01,636.22,363.56,635.81 M354.03,663.28v-11.58c0-1.12,0.18-1.88,0.53-2.28
					c0.35-0.39,1-0.59,1.94-0.59h10.73v11.8c0,1.01-0.19,1.7-0.56,2.08c-0.38,0.37-1.03,0.56-1.97,0.56H354.03z M372.75,669.52
					v-25.17c-2.21-0.67-4.23-1.15-6.07-1.43c-1.84-0.28-3.86-0.42-6.07-0.42c-2.43,0-4.46,0.2-6.07,0.62
					c-1.61,0.41-2.88,1.07-3.82,1.97s-1.6,2.11-1.99,3.62c-0.39,1.52-0.59,3.42-0.59,5.7c0,2.14,0.06,3.88,0.17,5.23
					s0.3,2.56,0.56,3.65h-16.63c-0.3-0.98-0.52-2.01-0.65-3.09c-0.13-1.09-0.2-2.34-0.2-3.76c0-1.24,0.11-2.54,0.34-3.91
					c0.22-1.37,0.56-2.78,1.01-4.24l-5.28-0.84c-0.49,1.38-0.88,3.01-1.18,4.86c-0.3,1.85-0.45,3.66-0.45,5.42
					c0,2.84,0.28,5.13,0.84,6.86c0.56,1.72,1.46,2.98,2.7,3.76c1.24,0.79,2.85,1.18,4.83,1.18H372.75z M372.75,669.52h6.35v-6.24
					h-6.35V669.52z M299.92,658.36c0,4.06-2.4,6.62-5.82,6.62c-3.42,0-5.77-2.57-5.77-6.62c0-4.11,2.35-6.57,5.77-6.57
					C297.73,651.79,299.92,654.62,299.92,658.36 M305.36,658.25c0-6.68-4.48-10.99-9.98-10.99c-1.17,0-2.35,0.16-3.37,0.58
					l8.18-16.33h-5.82l-8.65,17.62c-1.66,3.3-2.83,6.24-2.83,9.34c0,7.05,4.69,11.37,11.26,11.37S305.36,665.25,305.36,658.25"/>
			</g>
		</g>
		<g style="clip-path:url(#SVGID_00000087387726552941924310000005276371318329078443_);">
			<g>
				<path class="st3" d="M710.34,515.88v-4.85h-22.63v10.83h5.23v-5.98h11.59l-12.76,33.15h5.87L710.34,515.88z M662.19,533.29
					h-12.17c0.06-1.66,0.16-2.46,0.7-3.69c0.85-2.03,2.83-3.42,5.39-3.42c2.56,0,4.48,1.39,5.34,3.42
					C661.98,530.84,662.14,531.63,662.19,533.29 M667.59,537.07v-2.39c0-7.69-4.22-13.03-11.48-13.03
					c-6.94,0-11.47,5.07-11.47,13.82c0,10.31,5.38,13.87,12.17,13.87c4.75,0,7.37-1.44,10.14-4.21l-3.47-3.26
					c-1.92,1.93-3.52,2.78-6.56,2.78c-4.43,0-6.89-2.94-6.89-7.59H667.59z M638.87,540.76c0-4.8-2.99-7.21-8.06-7.64l-4.27-0.38
					c-2.88-0.26-3.74-1.49-3.74-3.1c0-2.03,1.65-3.47,4.91-3.47c2.56,0,4.96,0.53,6.67,1.97l3.42-3.47
					c-2.51-2.19-5.98-3.04-10.04-3.04c-5.66,0-10.19,2.98-10.19,8.27c0,4.75,2.93,7.05,8.01,7.47l4.32,0.38
					c2.62,0.21,3.63,1.39,3.63,3.2c0,2.56-2.61,3.74-5.92,3.74c-2.67,0-5.61-0.58-7.79-2.83l-3.58,3.57
					c3.2,3.15,6.94,3.89,11.37,3.89C634.06,549.35,638.87,546.42,638.87,540.76 M612.02,540.76c0-4.8-2.99-7.21-8.06-7.64
					l-4.27-0.38c-2.88-0.26-3.74-1.49-3.74-3.1c0-2.03,1.66-3.47,4.91-3.47c2.56,0,4.97,0.53,6.68,1.97l3.42-3.47
					c-2.51-2.19-5.98-3.04-10.04-3.04c-5.66,0-10.2,2.98-10.2,8.27c0,4.75,2.94,7.05,8.01,7.47l4.33,0.38
					c2.61,0.21,3.63,1.39,3.63,3.2c0,2.56-2.62,3.74-5.93,3.74c-2.67,0-5.6-0.58-7.79-2.83l-3.57,3.57
					c3.2,3.15,6.94,3.89,11.37,3.89C607.22,549.35,612.02,546.42,612.02,540.76 M577.64,539.26c0,1.93-0.37,3.21-1.17,4.01
					c-1.44,1.39-2.99,1.55-5.07,1.55c-3.42,0-4.97-1.39-4.97-3.84c0-2.46,1.66-3.91,4.86-3.91h6.36V539.26z M583.08,549.04v-18.09
					c0-6.14-3.73-9.29-11.15-9.29c-4.48,0-7.15,0.9-9.71,3.89l3.57,3.36c1.49-1.92,2.94-2.61,5.93-2.61c4.22,0,5.93,1.65,5.93,5.07
					v1.92h-7.15c-6.19,0-9.34,3.25-9.34,7.79c0,2.29,0.75,4.38,2.13,5.82c1.66,1.65,3.89,2.45,7.26,2.45c3.37,0,5.24-0.8,7.21-2.77
					v2.46H583.08z M556.66,549.04v-4.64h-2.4c-2.19,0-2.93-1.07-2.93-3.15v-30.21h-5.44v30.53c0,4,2.24,7.47,7.41,7.47H556.66z
					 M540.65,549.04l-13.62-23.11l12.33-14.89h-7.05l-15.54,19.1v-19.1h-5.75v38h5.75v-11.05l6.41-7.68l10.68,18.73H540.65z
					 M492.87,507.08h-5.23l-15.21,45.9h5.23L492.87,507.08z M453.32,513.64h-5.51v35.4h5.51V513.64z M437.36,513.64h-5.51v29.16
					h-8.88v6.24h14.38V513.64z M418.88,545.1v-15.4c0-1.94-0.29-3.47-0.87-4.58c-0.58-1.1-1.55-1.89-2.92-2.36
					c-1.37-0.47-3.25-0.7-5.65-0.7c-2.96,0-5.66,0.4-8.12,1.21c-2.45,0.81-4.54,1.97-6.27,3.48c-1.72,1.52-2.99,3.34-3.82,5.48
					v-9.61h-5.51v22.48h5.51c0-5.69,1.3-9.92,3.91-12.67c2.61-2.75,6.55-4.13,11.83-4.13c2.96,0,5.1,0.21,6.41,0.62v16.18H418.88z
					 M376.85,549.04h48.38v-6.24h-48.38V549.04z M363.56,515.32c0.55-0.41,1.02-0.89,1.43-1.43c0.42-0.54,0.62-1.02,0.62-1.43
					c0-0.45-0.2-0.94-0.62-1.49c-0.41-0.54-0.88-1.01-1.4-1.4c-0.52-0.39-1.01-0.59-1.46-0.59c-0.45,0-0.94,0.2-1.49,0.59
					c-0.54,0.39-1.01,0.87-1.4,1.4c-0.39,0.55-0.59,1.04-0.59,1.49c0,0.42,0.2,0.9,0.59,1.46s0.87,1.04,1.43,1.43
					c0.56,0.39,1.05,0.59,1.46,0.59C362.54,515.94,363.02,515.74,363.56,515.32 M354.03,542.8v-11.58c0-1.12,0.18-1.88,0.53-2.28
					c0.36-0.39,1.01-0.59,1.94-0.59h10.73v11.8c0,1.01-0.19,1.71-0.56,2.08c-0.37,0.38-1.03,0.56-1.97,0.56H354.03z M372.74,549.04
					v-25.17c-2.21-0.67-4.23-1.15-6.07-1.43c-1.83-0.28-3.85-0.42-6.07-0.42c-2.43,0-4.46,0.21-6.07,0.62
					c-1.61,0.42-2.88,1.07-3.82,1.97c-0.93,0.9-1.6,2.11-1.99,3.62c-0.39,1.52-0.59,3.42-0.59,5.7c0,2.14,0.06,3.88,0.17,5.23
					c0.11,1.35,0.3,2.57,0.56,3.65h-16.63c-0.3-0.97-0.51-2-0.65-3.09c-0.13-1.08-0.2-2.34-0.2-3.76c0-1.24,0.11-2.53,0.34-3.91
					c0.22-1.37,0.56-2.78,1.01-4.24l-5.28-0.84c-0.48,1.39-0.88,3.01-1.18,4.86c-0.3,1.85-0.45,3.66-0.45,5.42
					c0,2.85,0.28,5.14,0.84,6.86c0.56,1.73,1.46,2.98,2.7,3.76c1.24,0.79,2.85,1.18,4.83,1.18H372.74z M372.74,549.04h6.35v-6.24
					h-6.35V549.04z M305.89,515.88v-4.85h-22.63v10.83h5.23v-5.98h11.59l-12.76,33.15h5.87L305.89,515.88z"/>
			</g>
		</g>
		<g style="clip-path:url(#SVGID_00000087387726552941924310000005276371318329078443_);">
			<g>
				<path class="st3" d="M709.91,776c0-3.58-0.42-7.27-3.3-10.14c-1.55-1.55-3.84-2.45-6.83-2.45c-2.78,0-5.02,0.85-6.3,2.19v-10.04
					h15.59v-4.85h-20.49v20.76h4.96c0.58-1.87,2.3-3.42,5.39-3.42c4.38,0,5.56,3.42,5.56,7.96c0,2.56-0.21,5.07-1.82,6.68
					c-0.96,0.96-2.35,1.49-3.95,1.49c-3.42,0-5.13-1.92-5.56-5.29h-5.43c0.21,2.73,0.85,5.24,2.88,7.26
					c1.65,1.65,4.48,2.93,8.11,2.93c3.69,0,6.3-1.28,8.01-2.98C709.49,783.32,709.91,780.06,709.91,776 M662.2,772.96h-12.17
					c0.05-1.66,0.16-2.46,0.69-3.69c0.85-2.03,2.83-3.42,5.39-3.42s4.48,1.39,5.34,3.42C661.98,770.51,662.14,771.3,662.2,772.96
					 M667.58,776.74v-2.39c0-7.69-4.21-13.03-11.47-13.03c-6.94,0-11.47,5.06-11.47,13.82c0,10.31,5.39,13.87,12.17,13.87
					c4.75,0,7.37-1.44,10.14-4.21l-3.47-3.26c-1.92,1.92-3.52,2.78-6.57,2.78c-4.43,0-6.88-2.94-6.88-7.59H667.58z M638.87,780.44
					c0-4.8-2.99-7.21-8.06-7.64l-4.27-0.38c-2.88-0.26-3.74-1.49-3.74-3.1c0-2.03,1.66-3.47,4.91-3.47c2.56,0,4.97,0.53,6.68,1.98
					l3.42-3.47c-2.51-2.19-5.98-3.04-10.04-3.04c-5.66,0-10.2,2.98-10.2,8.27c0,4.75,2.94,7.05,8.01,7.47l4.33,0.38
					c2.61,0.21,3.63,1.39,3.63,3.2c0,2.56-2.62,3.74-5.93,3.74c-2.67,0-5.6-0.58-7.79-2.83l-3.57,3.58
					c3.2,3.15,6.94,3.89,11.37,3.89C634.07,789.02,638.87,786.09,638.87,780.44 M612.02,780.44c0-4.8-2.99-7.21-8.06-7.64
					l-4.27-0.38c-2.88-0.26-3.74-1.49-3.74-3.1c0-2.03,1.65-3.47,4.91-3.47c2.56,0,4.96,0.53,6.67,1.98l3.42-3.47
					c-2.51-2.19-5.98-3.04-10.04-3.04c-5.66,0-10.19,2.98-10.19,8.27c0,4.75,2.93,7.05,8.01,7.47l4.32,0.38
					c2.62,0.21,3.63,1.39,3.63,3.2c0,2.56-2.61,3.74-5.92,3.74c-2.67,0-5.61-0.58-7.79-2.83l-3.58,3.58
					c3.2,3.15,6.94,3.89,11.37,3.89C607.21,789.02,612.02,786.09,612.02,780.44 M577.65,778.94c0,1.93-0.38,3.21-1.17,4.01
					c-1.44,1.39-2.99,1.55-5.07,1.55c-3.42,0-4.97-1.39-4.97-3.84c0-2.46,1.65-3.91,4.86-3.91h6.36V778.94z M583.08,788.7v-18.09
					c0-6.14-3.73-9.29-11.15-9.29c-4.49,0-7.15,0.9-9.72,3.89l3.57,3.36c1.49-1.92,2.94-2.62,5.93-2.62c4.22,0,5.93,1.66,5.93,5.08
					v1.92h-7.16c-6.19,0-9.34,3.25-9.34,7.79c0,2.29,0.75,4.38,2.14,5.82c1.65,1.65,3.89,2.45,7.26,2.45s5.23-0.8,7.21-2.77v2.45
					H583.08z M556.66,788.7v-4.64h-2.4c-2.19,0-2.94-1.07-2.94-3.15V750.7h-5.43v30.53c0,4,2.24,7.46,7.41,7.46H556.66z
					 M540.64,788.7l-13.61-23.11l12.33-14.89h-7.05l-15.53,19.1v-19.1h-5.76v38h5.76v-11.05l6.41-7.68l10.68,18.73H540.64z
					 M492.88,746.75h-5.23l-15.22,45.9h5.23L492.88,746.75z M453.32,753.31h-5.51v35.4h5.51V753.31z M437.37,753.31h-5.51v29.16
					h-8.88v6.24h14.38V753.31z M418.88,784.77v-15.4c0-1.95-0.29-3.47-0.87-4.58c-0.58-1.11-1.56-1.89-2.92-2.36
					c-1.37-0.47-3.25-0.7-5.65-0.7c-2.96,0-5.67,0.4-8.12,1.21c-2.46,0.8-4.54,1.97-6.27,3.48c-1.73,1.52-3,3.34-3.82,5.48v-9.61
					h-5.51v22.48h5.51c0-5.69,1.3-9.92,3.91-12.67c2.6-2.75,6.55-4.13,11.83-4.13c2.96,0,5.1,0.21,6.41,0.62v16.18H418.88z
					 M376.85,788.71h48.38v-6.24h-48.38V788.71z M363.56,754.99c0.55-0.41,1.02-0.89,1.43-1.43c0.41-0.55,0.62-1.02,0.62-1.43
					c0-0.45-0.21-0.94-0.62-1.49c-0.41-0.55-0.88-1.01-1.4-1.4c-0.52-0.39-1.01-0.59-1.46-0.59c-0.45,0-0.94,0.2-1.49,0.59
					c-0.55,0.39-1.01,0.86-1.4,1.4s-0.59,1.04-0.59,1.49c0,0.41,0.2,0.9,0.59,1.46c0.39,0.56,0.87,1.04,1.43,1.43
					c0.56,0.39,1.05,0.59,1.46,0.59C362.54,755.61,363.01,755.4,363.56,754.99 M354.03,782.47v-11.58c0-1.12,0.18-1.88,0.53-2.28
					c0.35-0.39,1-0.59,1.94-0.59h10.73v11.8c0,1.01-0.19,1.7-0.56,2.08s-1.03,0.56-1.97,0.56H354.03z M372.75,788.71v-25.17
					c-2.21-0.67-4.23-1.15-6.07-1.43c-1.84-0.28-3.86-0.42-6.07-0.42c-2.43,0-4.46,0.21-6.07,0.62c-1.61,0.41-2.88,1.07-3.82,1.97
					s-1.6,2.11-1.99,3.62c-0.39,1.52-0.59,3.42-0.59,5.7c0,2.14,0.06,3.88,0.17,5.23c0.11,1.35,0.3,2.57,0.56,3.65h-16.63
					c-0.3-0.97-0.52-2.01-0.65-3.09c-0.13-1.08-0.2-2.34-0.2-3.76c0-1.24,0.11-2.54,0.34-3.91c0.22-1.37,0.56-2.78,1.01-4.24
					l-5.28-0.84c-0.49,1.39-0.88,3.01-1.18,4.86c-0.3,1.85-0.45,3.66-0.45,5.42c0,2.85,0.28,5.13,0.84,6.86s1.46,2.98,2.7,3.76
					c1.24,0.79,2.85,1.18,4.83,1.18H372.75z M372.75,788.71h6.35v-6.24h-6.35V788.71z M305.46,776c0-3.58-0.43-7.27-3.3-10.14
					c-1.55-1.55-3.84-2.45-6.83-2.45c-2.78,0-5.02,0.85-6.3,2.19v-10.04h15.59v-4.85h-20.49v20.76h4.96c0.59-1.87,2.3-3.42,5.4-3.42
					c4.38,0,5.55,3.42,5.55,7.96c0,2.56-0.21,5.07-1.81,6.68c-0.96,0.96-2.35,1.49-3.95,1.49c-3.42,0-5.13-1.92-5.56-5.29h-5.44
					c0.21,2.73,0.85,5.24,2.88,7.26c1.65,1.65,4.48,2.93,8.11,2.93c3.68,0,6.3-1.28,8.01-2.98
					C305.04,783.32,305.46,780.06,305.46,776"/>
			</g>
		</g>
	</g>
</g>
</svg>
