<?xml version="1.0" encoding="utf-8"?>
<!-- Generator: Adobe Illustrator 26.2.1, SVG Export Plug-In . SVG Version: 6.00 Build 0)  -->
<svg version="1.1" id="Ebene_1" xmlns="http://www.w3.org/2000/svg" xmlns:xlink="http://www.w3.org/1999/xlink" x="0px" y="0px"
	 viewBox="0 0 1000 819.82" style="enable-background:new 0 0 1000 819.82;" xml:space="preserve">
<style type="text/css">
	.st0{fill:#A2B9E1;}
	.st1{fill:#6796CF;}
	.st2{clip-path:url(#SVGID_00000142167493275509242940000000901613463120410007_);}
	.st3{fill:#2B2961;}
	.st4{fill:#FFFFFF;}
	.st5{clip-path:url(#SVGID_00000101091949625294412490000013137102364792701840_);}
	.st6{clip-path:url(#SVGID_00000150796308628455450130000004102276822012215978_);}
	.st7{clip-path:url(#SVGID_00000065760946418002241260000002976397923779805318_);}
	.st8{clip-path:url(#SVGID_00000091011014286603236580000013826316772072417183_);}
	.st9{clip-path:url(#SVGID_00000152942840884924108290000006854435359038267784_);}
	.st10{opacity:0.52;clip-path:url(#SVGID_00000177473385492436603430000007053833295379525256_);}
	.st11{clip-path:url(#SVGID_00000080170123640772553530000001140337102777010835_);}
	.st12{clip-path:url(#SVGID_00000142857428031998467230000010006081193540851867_);}
	.st13{clip-path:url(#SVGID_00000109739299049040628580000002852436140938526121_);}
	.st14{clip-path:url(#SVGID_00000119092473500854648580000008089883700296495031_);}
	.st15{clip-path:url(#SVGID_00000180358347603712538570000010745481461377824904_);}
	.st16{clip-path:url(#SVGID_00000016792497786523674340000012555444789737960110_);}
	.st17{clip-path:url(#SVGID_00000079465637863631517850000004324903667631169167_);}
	.st18{clip-path:url(#SVGID_00000088834443284104073420000003363699744928442798_);}
	.st19{clip-path:url(#SVGID_00000173854315303632789170000013732797247999087287_);}
	.st20{clip-path:url(#SVGID_00000139983289195895466540000001078298610620711564_);}
	.st21{clip-path:url(#SVGID_00000020364718350664974320000007020339993702053536_);}
	.st22{clip-path:url(#SVGID_00000116236647529108315870000017924257239123980463_);}
	.st23{fill:none;stroke:#2B2961;stroke-width:0.374;stroke-linejoin:round;stroke-miterlimit:10;}
	.st24{fill:none;stroke:#2B2961;stroke-width:0.4;stroke-miterlimit:10;}
	.st25{clip-path:url(#SVGID_00000107581927859561036230000005562604843631603335_);}
	.st26{clip-path:url(#SVGID_00000163770587650258206360000000995163204297074077_);}
	.st27{clip-path:url(#SVGID_00000166674844322468400330000000612589587089316995_);}
	.st28{clip-path:url(#SVGID_00000058562923620789424940000005137389346250347660_);}
	.st29{clip-path:url(#SVGID_00000142133613942120357070000009739157098023529116_);}
	.st30{clip-path:url(#SVGID_00000157269470346125452150000013560984195280956605_);}
	.st31{clip-path:url(#SVGID_00000078757483018150716960000000306459330939636864_);}
	.st32{clip-path:url(#SVGID_00000052106286515269690250000004777802746781984929_);}
	.st33{clip-path:url(#SVGID_00000008833260738251701440000007216142176017216927_);}
	.st34{clip-path:url(#SVGID_00000008869938136842285620000016757540936757084829_);}
	.st35{clip-path:url(#SVGID_00000177444728504727648310000013468364565504875157_);}
	.st36{clip-path:url(#SVGID_00000094612977237842107470000011348187322139478402_);}
	.st37{clip-path:url(#SVGID_00000114783737193815030820000014708173911937208737_);}
	.st38{clip-path:url(#SVGID_00000160166890107628620170000006788875629849943976_);}
	.st39{clip-path:url(#SVGID_00000108289391780789244240000010360092110348186509_);}
	.st40{clip-path:url(#SVGID_00000074407436513568895570000015692215907823360923_);}
	.st41{clip-path:url(#SVGID_00000152948613131339089750000016076228708316640444_);}
	.st42{clip-path:url(#SVGID_00000046332679932758715820000005024613499581477307_);}
	.st43{clip-path:url(#SVGID_00000104708527586326689610000018373029209378461057_);}
	.st44{clip-path:url(#SVGID_00000067945461602249827470000013456323135310652564_);}
	.st45{clip-path:url(#SVGID_00000065766573210658842060000009043791578505479351_);}
	.st46{clip-path:url(#SVGID_00000005253452518604874820000014000441557236994193_);}
	.st47{clip-path:url(#SVGID_00000077295642339034780090000015687751145649279134_);}
	.st48{clip-path:url(#SVGID_00000027591222263830233080000009166063074659240628_);}
	.st49{clip-path:url(#SVGID_00000096034226912248469800000002616998950226506897_);}
	.st50{clip-path:url(#SVGID_00000024683112022736944410000003102715357471004802_);}
	.st51{clip-path:url(#SVGID_00000034803724978531419100000010358557670797038480_);}
	.st52{clip-path:url(#SVGID_00000175320716339737148610000008819433963168283544_);}
	.st53{clip-path:url(#SVGID_00000173156620683541682470000007523058969295460508_);}
	.st54{clip-path:url(#SVGID_00000119839341653310856090000010347978825749561788_);}
	.st55{clip-path:url(#SVGID_00000095319692176129950400000011139315141394794631_);}
	.st56{clip-path:url(#SVGID_00000065035202712739772060000008205976725558594688_);}
	.st57{clip-path:url(#SVGID_00000072247488683908878960000008890267814665318048_);}
	.st58{clip-path:url(#SVGID_00000093162664511806545860000001671462779917241784_);}
	.st59{clip-path:url(#SVGID_00000036244792187028843090000017478785117700168320_);}
	.st60{clip-path:url(#SVGID_00000137816074101283133010000012284603727542626727_);}
	.st61{clip-path:url(#SVGID_00000121989589848571668070000008021080713974607238_);}
	.st62{fill:#9AB4DE;}
	.st63{clip-path:url(#SVGID_00000112599447880830511430000009852692688957289396_);}
	.st64{clip-path:url(#SVGID_00000037681317769915593650000014966788572030503865_);}
	.st65{clip-path:url(#SVGID_00000121979129674580285680000010134597378726650782_);}
	.st66{fill:#B9C9E9;}
	.st67{clip-path:url(#SVGID_00000067223044159131447910000010539228226688939690_);}
	.st68{clip-path:url(#SVGID_00000144315442759740906540000003924882456936405943_);}
	.st69{clip-path:url(#SVGID_00000000201632905554561800000012846975947656642949_);}
	.st70{clip-path:url(#SVGID_00000142154341871021847390000005897637488203772578_);}
	.st71{clip-path:url(#SVGID_00000070086142927959841890000010119710229413999765_);}
	.st72{clip-path:url(#SVGID_00000106145912368584852120000018029008818656624052_);}
	.st73{clip-path:url(#SVGID_00000131353190266754268160000003991274800562937240_);}
	.st74{clip-path:url(#SVGID_00000170971149908574336310000015269486301654885564_);}
	.st75{clip-path:url(#SVGID_00000109016231836647802710000013154394879101344653_);}
	.st76{clip-path:url(#SVGID_00000051383652110038652240000000201069706349108152_);}
	.st77{clip-path:url(#SVGID_00000008147585765092278530000008942228736915807156_);}
	.st78{clip-path:url(#SVGID_00000167390813622492564270000005839222463406479764_);}
	.st79{clip-path:url(#SVGID_00000070104060229408326690000010633322426906466993_);}
	.st80{clip-path:url(#SVGID_00000170995493267354489160000004993717468680404896_);}
	.st81{clip-path:url(#SVGID_00000038371724414946951840000008145719841931719353_);}
	.st82{clip-path:url(#SVGID_00000145751550973065643790000013859391494639831957_);}
	.st83{clip-path:url(#SVGID_00000021814576141772589640000015298014318791841464_);}
	.st84{clip-path:url(#SVGID_00000029034993950212368230000010161124057484770183_);}
	.st85{clip-path:url(#SVGID_00000067949924652761429050000012869051447228923066_);}
	.st86{clip-path:url(#SVGID_00000143612938362330517060000005168650553377829519_);}
	.st87{clip-path:url(#SVGID_00000167386847896609365410000008492442530979528377_);}
	.st88{clip-path:url(#SVGID_00000000217491094761201320000011525069605468030876_);}
	.st89{clip-path:url(#SVGID_00000056388649728499848100000010488386707721482628_);}
	.st90{clip-path:url(#SVGID_00000070079902766072527740000004239880606359422870_);}
	.st91{clip-path:url(#SVGID_00000111172476975179698820000008499405121315987586_);}
	.st92{clip-path:url(#SVGID_00000052823246505722895550000018408180087596032694_);}
	.st93{clip-path:url(#SVGID_00000085221215069326397050000009650321084595956125_);}
	.st94{clip-path:url(#SVGID_00000058580333967255674760000008103035949062131585_);}
	.st95{clip-path:url(#SVGID_00000137122963643039695400000007940860575723131018_);}
	.st96{clip-path:url(#SVGID_00000134959335860615027520000002853824790860193678_);}
	.st97{clip-path:url(#SVGID_00000051349077277789476170000017731419705261615755_);}
	.st98{clip-path:url(#SVGID_00000057131201330503489330000009855110102617998466_);}
	.st99{clip-path:url(#SVGID_00000036238389321648571520000014096973754211763106_);}
	.st100{clip-path:url(#SVGID_00000147907344444359713730000008163773903646937996_);}
	.st101{clip-path:url(#SVGID_00000031906886364150443930000006506904712677883312_);}
	.st102{clip-path:url(#SVGID_00000106832032370867453780000009592194240404561578_);}
	.st103{clip-path:url(#SVGID_00000123427675635836914230000013147326966486144934_);}
	.st104{clip-path:url(#SVGID_00000082355248473561306660000011509422983157418115_);}
	.st105{clip-path:url(#SVGID_00000098937393733047474130000014610794541410905510_);}
	.st106{clip-path:url(#SVGID_00000144334772050768096140000004544030500146396587_);}
	.st107{clip-path:url(#SVGID_00000150073438587611167360000015796627440200592816_);}
	.st108{clip-path:url(#SVGID_00000153669000001408013660000010132994786584756901_);}
	.st109{clip-path:url(#SVGID_00000039848747840378313800000007703886251114590337_);}
	.st110{clip-path:url(#SVGID_00000111184845706571127350000012468848554887399305_);}
	.st111{clip-path:url(#SVGID_00000150100161263855681840000016615857908982465701_);}
	.st112{clip-path:url(#SVGID_00000077296287126710230280000014730414732065868733_);}
	.st113{clip-path:url(#SVGID_00000026130146616179138140000004501072676736091839_);}
	.st114{clip-path:url(#SVGID_00000158027033533565584540000008056028214331525800_);}
	.st115{clip-path:url(#SVGID_00000160913166569625725880000014520611182441877909_);}
	.st116{clip-path:url(#SVGID_00000173871862529488351540000002990342246601405117_);}
	.st117{clip-path:url(#SVGID_00000008847025794033252650000017809261126557127827_);}
	.st118{clip-path:url(#SVGID_00000098220249050314135740000003043594069514511037_);}
	.st119{clip-path:url(#SVGID_00000026141345892636491170000011174684137605260940_);}
	.st120{clip-path:url(#SVGID_00000054264315012732725130000005173397226559013249_);}
	.st121{clip-path:url(#SVGID_00000145768015838330431280000017655942126727754125_);}
	.st122{clip-path:url(#SVGID_00000114792181111334963430000015589693968168846212_);}
	.st123{clip-path:url(#SVGID_00000162344785160520877320000008341557032500173223_);}
	.st124{clip-path:url(#SVGID_00000126309009830579181190000011650804890717679032_);}
	.st125{clip-path:url(#SVGID_00000081619549245465812640000000991676058036359356_);}
	.st126{clip-path:url(#SVGID_00000181769535701789773930000013367098439456274322_);}
	.st127{clip-path:url(#SVGID_00000169544413563431561680000002434522747643734707_);}
	.st128{clip-path:url(#SVGID_00000099654640857198662820000017363106767601536673_);}
	.st129{clip-path:url(#SVGID_00000018230435755124943270000008038851328618706829_);}
	.st130{clip-path:url(#SVGID_00000149359214572742076380000011613061939052324764_);}
	.st131{clip-path:url(#SVGID_00000079467244550134923380000001461188473895983021_);}
	.st132{clip-path:url(#SVGID_00000053511593628149844760000012453403124250740925_);}
	.st133{clip-path:url(#SVGID_00000075853619081215931560000007768846828447437972_);}
	.st134{clip-path:url(#SVGID_00000157266778103763151810000009584744192687906459_);}
	.st135{clip-path:url(#SVGID_00000153689992952556134520000018259189501780517040_);}
	.st136{clip-path:url(#SVGID_00000021097204786600838950000010477442889211034031_);}
	.st137{clip-path:url(#SVGID_00000178162999594178771380000007644359236114674589_);}
	.st138{clip-path:url(#SVGID_00000069374491355176001190000016683282883038632612_);}
	.st139{clip-path:url(#SVGID_00000018942066687024354070000018159073256455058094_);}
	.st140{clip-path:url(#SVGID_00000080889037743734622930000018412371770699612591_);}
	.st141{clip-path:url(#SVGID_00000137134123671841293790000008533489685385951923_);}
	.st142{clip-path:url(#SVGID_00000158737111913836008290000007876711429658846647_);}
	.st143{clip-path:url(#SVGID_00000155862074600113090360000016817575803050139557_);}
	.st144{clip-path:url(#SVGID_00000118394196972648838000000010514020899689001393_);}
	.st145{clip-path:url(#SVGID_00000090262036234212105120000011497591612833948065_);}
	.st146{clip-path:url(#SVGID_00000064339110342270504170000018244013617534146700_);}
	.st147{clip-path:url(#SVGID_00000088106691927454567140000017451669619960705206_);}
	.st148{clip-path:url(#SVGID_00000088122711725521526900000002785104820151970471_);}
	.st149{clip-path:url(#SVGID_00000068657367352145224480000017474797850334861208_);}
	.st150{clip-path:url(#SVGID_00000102543546867252303400000009114765476809962666_);}
	.st151{clip-path:url(#SVGID_00000102515757045266437660000002187062007415577523_);}
	.st152{clip-path:url(#SVGID_00000019649981489112866790000004379676920840122543_);}
	.st153{clip-path:url(#SVGID_00000067202030685142859680000002775017592605508997_);}
	.st154{clip-path:url(#SVGID_00000175287855302109128130000010869689868478306230_);}
	.st155{clip-path:url(#SVGID_00000143583402021092231620000009162292245972333502_);}
	.st156{clip-path:url(#SVGID_00000093898399771413981980000010513920674395743637_);}
	.st157{clip-path:url(#SVGID_00000178189828305321724560000013467972605581984680_);}
	.st158{clip-path:url(#SVGID_00000167398643175101029730000018055930568198244283_);}
	.st159{clip-path:url(#SVGID_00000033368062957240660410000016909423019243059880_);}
	.st160{clip-path:url(#SVGID_00000021077169015231583080000001718713112336258213_);}
	.st161{clip-path:url(#SVGID_00000150808879437849217270000017501739842022230919_);}
	.st162{clip-path:url(#SVGID_00000014602171684311865440000000770423337290402985_);}
	.st163{clip-path:url(#SVGID_00000123428727302722152740000003331985499152764335_);}
	.st164{clip-path:url(#SVGID_00000160190489013870280310000004771387029498811837_);}
	.st165{clip-path:url(#SVGID_00000085242319567268342860000012055978621652233357_);}
	.st166{clip-path:url(#SVGID_00000150797923656184459910000005043516171276534451_);}
	.st167{clip-path:url(#SVGID_00000147190759372451085590000011732464978669615039_);}
	.st168{clip-path:url(#SVGID_00000000921673462394325270000014683426639372788904_);}
	.st169{clip-path:url(#SVGID_00000034058170150432675000000004964088718673390478_);}
	.st170{clip-path:url(#SVGID_00000075136042626092218870000009143982297606960805_);}
	.st171{clip-path:url(#SVGID_00000013871967718243235710000011148220169807287216_);}
	.st172{clip-path:url(#SVGID_00000054945432576233425970000009306475234571096727_);}
	.st173{clip-path:url(#SVGID_00000085233489433758910170000017746571297195657397_);}
	.st174{clip-path:url(#SVGID_00000153695834550530856770000000147473447979216315_);}
	.st175{clip-path:url(#SVGID_00000085948393726204243050000009729501546596294846_);}
	.st176{clip-path:url(#SVGID_00000030454755065860717500000003916738704985610430_);}
	.st177{clip-path:url(#SVGID_00000110468864104885328380000004551679146681038208_);}
	.st178{clip-path:url(#SVGID_00000159470135122119920700000001186599653661954719_);}
	.st179{clip-path:url(#SVGID_00000011751575841785013730000002100302054078115007_);}
	.st180{clip-path:url(#SVGID_00000088121674625648007740000012968786834165845673_);}
	.st181{clip-path:url(#SVGID_00000172437291723919130480000005303221470835261316_);}
	.st182{clip-path:url(#SVGID_00000071521953083637331670000013804063967964941463_);}
	.st183{clip-path:url(#SVGID_00000045586297373810534680000003491714161483528615_);}
	.st184{clip-path:url(#SVGID_00000111904344875640203740000001405175192751537318_);}
	.st185{clip-path:url(#SVGID_00000156547533398473901730000007227724026021715125_);}
	.st186{clip-path:url(#SVGID_00000164502667234534662040000006670129738799262880_);}
	.st187{clip-path:url(#SVGID_00000065787613132681690970000008932251494341377696_);}
	.st188{clip-path:url(#SVGID_00000023974674590597242430000011807382151573394329_);}
	.st189{clip-path:url(#SVGID_00000182519075759685568350000011305024305601700272_);}
	.st190{clip-path:url(#SVGID_00000076601061773120697400000007739792256338889872_);}
	.st191{clip-path:url(#SVGID_00000168101642814561302500000005515369383145157265_);}
	.st192{clip-path:url(#SVGID_00000173130904225814790540000006645112630018516915_);}
	.st193{clip-path:url(#SVGID_00000148641923318117583590000002240232575208212902_);}
	.st194{clip-path:url(#SVGID_00000163069550654975855670000016719226138769661093_);}
	.st195{clip-path:url(#SVGID_00000155831424066487475530000007877360876936836270_);}
	.st196{clip-path:url(#SVGID_00000126286357339721287760000005571205337718600371_);}
	.st197{clip-path:url(#SVGID_00000159436729786140863560000013829366915631632809_);}
	.st198{clip-path:url(#SVGID_00000031164924638639570920000008276871588766387594_);}
	.st199{clip-path:url(#SVGID_00000106846304435016551060000001506295121381136572_);}
	.st200{clip-path:url(#SVGID_00000027563797844971598930000002526092453524747917_);}
	.st201{clip-path:url(#SVGID_00000028312310103154764150000005127090938974696364_);}
	.st202{clip-path:url(#SVGID_00000014628877518693704540000000717013985380674968_);}
	.st203{clip-path:url(#SVGID_00000032630196579805885810000006429723691598336416_);}
	.st204{clip-path:url(#SVGID_00000017504574823353612860000005611654072623782841_);}
	.st205{clip-path:url(#SVGID_00000158710117975886027490000014460881769056348081_);}
	.st206{clip-path:url(#SVGID_00000168113951004883132460000016648672748435350967_);}
	.st207{clip-path:url(#SVGID_00000003095801433289957190000004236536247307610511_);}
	.st208{clip-path:url(#SVGID_00000059288024846682265710000017931803565485576612_);}
	.st209{clip-path:url(#SVGID_00000170251016000631521920000011449586253014666654_);}
	.st210{clip-path:url(#SVGID_00000106115767175607862300000009096907701177191588_);}
	.st211{clip-path:url(#SVGID_00000030465094931634111340000002600877548227956412_);}
	.st212{clip-path:url(#SVGID_00000078748426078751017310000017120013281955745435_);}
	.st213{clip-path:url(#SVGID_00000154413916272485327490000015232054812833141901_);}
	.st214{clip-path:url(#SVGID_00000082360045639215152620000012625264134189478037_);}
	.st215{clip-path:url(#SVGID_00000045598143838331762910000001629285400437576844_);}
	.st216{clip-path:url(#SVGID_00000108275375989977019450000015656125367646054791_);}
	.st217{clip-path:url(#SVGID_00000011754355594402688050000002399512579178484645_);}
	.st218{clip-path:url(#SVGID_00000182486976165109960320000004041354466532706724_);}
	.st219{clip-path:url(#SVGID_00000088853918614666423900000000813724263822228110_);}
	.st220{clip-path:url(#SVGID_00000146483945044049551820000014398083654916096410_);}
	.st221{clip-path:url(#SVGID_00000018227068303562789020000001877405590562027179_);}
	.st222{clip-path:url(#SVGID_00000003105497787136506410000006618518729472884405_);}
	.st223{clip-path:url(#SVGID_00000037672446046540068630000009697105124259926207_);}
	.st224{clip-path:url(#SVGID_00000118381494176014840860000014136561506676418220_);}
	.st225{clip-path:url(#SVGID_00000146469643905377810550000001069061137242602627_);}
	.st226{clip-path:url(#SVGID_00000122721989301646324640000015522930337221010603_);}
	.st227{clip-path:url(#SVGID_00000115513609454533391870000009588353397879764914_);}
	.st228{clip-path:url(#SVGID_00000082358204506029298510000015300778535913811375_);}
	.st229{clip-path:url(#SVGID_00000162320810822425295050000017626107604301277849_);}
	.st230{clip-path:url(#SVGID_00000150809989807213560840000001810315072553362585_);}
	.st231{clip-path:url(#SVGID_00000120533757496676747800000006907117591648389795_);}
	.st232{clip-path:url(#SVGID_00000057144859384021872990000000260830172918218902_);}
	.st233{clip-path:url(#SVGID_00000013179805628859331670000011344310188864202157_);}
	.st234{clip-path:url(#SVGID_00000154422940559210293520000004409177463039610270_);}
	.st235{clip-path:url(#SVGID_00000082361560242906396800000010328761710066553225_);}
	.st236{clip-path:url(#SVGID_00000085232508149017594570000003647661238517142193_);}
	.st237{clip-path:url(#SVGID_00000023979381943548164610000004458023974627290773_);}
	.st238{clip-path:url(#SVGID_00000085930054545812441920000015235755686942623879_);}
	.st239{clip-path:url(#SVGID_00000085947576364473874900000014770374753748253872_);}
	.st240{clip-path:url(#SVGID_00000119109816925307414960000014729061042577785243_);}
	.st241{clip-path:url(#SVGID_00000019657895303313348270000007126220526030818195_);}
	.st242{clip-path:url(#SVGID_00000010283119736772316460000009379878924251561145_);}
	.st243{clip-path:url(#SVGID_00000151515982448456982790000006854759274602225800_);}
	.st244{clip-path:url(#SVGID_00000178195230286921972350000016399159453334418597_);}
	.st245{clip-path:url(#SVGID_00000037675930515128972130000016882242000323537294_);}
	.st246{clip-path:url(#SVGID_00000034055803150758475050000008813565434759508407_);}
	.st247{clip-path:url(#SVGID_00000137091892519056936870000008571443912587180440_);}
	.st248{clip-path:url(#SVGID_00000111893422946419792080000001301179633001087879_);}
	.st249{clip-path:url(#SVGID_00000173135023817010023530000010506378232728255107_);}
	.st250{clip-path:url(#SVGID_00000131345791428689963670000010747168573130317728_);}
	.st251{clip-path:url(#SVGID_00000081615065965474227880000012909237529938256281_);}
	.st252{clip-path:url(#SVGID_00000118355434390281933150000009668330927234853027_);}
	.st253{clip-path:url(#SVGID_00000079478702211613888290000008190461944740336808_);}
	.st254{clip-path:url(#SVGID_00000091716565119340260000000016065221304118252421_);}
	.st255{clip-path:url(#SVGID_00000137827754433085377360000005064934686412805513_);}
	.st256{clip-path:url(#SVGID_00000084508477680730574610000003453583614445590689_);}
	.st257{clip-path:url(#SVGID_00000147180957718461638650000012552825769421366203_);}
	.st258{clip-path:url(#SVGID_00000132787442665993531320000012043536501070330020_);}
	.st259{clip-path:url(#SVGID_00000074441636595734024220000001420672311872900758_);}
	.st260{clip-path:url(#SVGID_00000119798346839036593900000000955467264419006652_);}
	.st261{clip-path:url(#SVGID_00000155138088649876505760000009791359627066953356_);}
	.st262{clip-path:url(#SVGID_00000045621355435767895380000010098348974386016682_);}
	.st263{clip-path:url(#SVGID_00000003105672053276509720000018165912248418991009_);}
	.st264{clip-path:url(#SVGID_00000018197586990883536800000008850986893821331113_);}
	.st265{clip-path:url(#SVGID_00000017502469456883596160000015849274219839742850_);}
	.st266{clip-path:url(#SVGID_00000068656808325821958780000016912302398719202721_);}
	.st267{clip-path:url(#SVGID_00000011014138142120408960000005241438639026790067_);}
	.st268{clip-path:url(#SVGID_00000153671816507383449320000006150782219964957854_);}
	.st269{clip-path:url(#SVGID_00000157287922484044153770000004087812056288047774_);}
	.st270{clip-path:url(#SVGID_00000005947929527176562970000016146782276876092598_);}
	.st271{clip-path:url(#SVGID_00000010306501971957570720000004729510430480247211_);}
	.st272{clip-path:url(#SVGID_00000116947576098359342080000009346697121331310977_);}
	.st273{clip-path:url(#SVGID_00000133529615634713289940000016333089306085194162_);}
	.st274{clip-path:url(#SVGID_00000058573633869698429130000009179755327075003562_);}
	.st275{clip-path:url(#SVGID_00000039103267016911200090000003193412964069988786_);}
	.st276{clip-path:url(#SVGID_00000065039065404526225370000009417741647618198169_);}
	.st277{clip-path:url(#SVGID_00000126310715092091327960000002775423112579361446_);}
	.st278{clip-path:url(#SVGID_00000169537096559926926240000012043256482854397609_);}
	.st279{clip-path:url(#SVGID_00000124127411824106715980000007648406968628393147_);}
	.st280{clip-path:url(#SVGID_00000046323579537145331740000003913602296604794557_);}
	.st281{clip-path:url(#SVGID_00000072268654774324940470000000523961702777370033_);}
	.st282{clip-path:url(#SVGID_00000026842297694264691630000001367297273106524351_);}
	.st283{clip-path:url(#SVGID_00000103974356722056309020000000659016629446305160_);}
	.st284{clip-path:url(#SVGID_00000055666279044091657870000004781628047132189074_);}
	.st285{clip-path:url(#SVGID_00000039848574784082622670000000747589144892758453_);}
	.st286{clip-path:url(#SVGID_00000006705063106823558160000000048868993535585936_);}
	.st287{clip-path:url(#SVGID_00000110457895959967459060000011872215953503172270_);}
	.st288{clip-path:url(#SVGID_00000145760903482163014820000011733673594181056677_);}
	.st289{clip-path:url(#SVGID_00000181786547628244306340000013344218054527663272_);}
	.st290{clip-path:url(#SVGID_00000115499046784396358810000011146052092327738287_);}
	.st291{clip-path:url(#SVGID_00000033330269751094355280000002532489014426371004_);}
	.st292{clip-path:url(#SVGID_00000106137796142778923960000016682242640777167521_);}
	.st293{clip-path:url(#SVGID_00000033361439604036926750000003754800238193146265_);}
	.st294{clip-path:url(#SVGID_00000092433848528860549530000008121977553229101194_);}
	.st295{clip-path:url(#SVGID_00000019646986747513306280000017659872934131156886_);}
	.st296{clip-path:url(#SVGID_00000018211011132942589500000008092827713881824952_);}
	.st297{clip-path:url(#SVGID_00000044167842505343177140000010390214567558983562_);}
	.st298{clip-path:url(#SVGID_00000067194086804420011180000005146602078541009811_);}
	.st299{clip-path:url(#SVGID_00000146482931538448228360000017313087677729494953_);}
	.st300{clip-path:url(#SVGID_00000125604135397431343470000005287526581940777377_);}
	.st301{clip-path:url(#SVGID_00000112621356385610101180000013903662885680851634_);}
	.st302{clip-path:url(#SVGID_00000140016308414422320060000006370298940091861130_);}
	.st303{clip-path:url(#SVGID_00000000201286907444382680000004430254554018315964_);}
	.st304{clip-path:url(#SVGID_00000183237422236178560720000006331356475516198534_);}
	.st305{clip-path:url(#SVGID_00000057130463189887326620000008193569150408242107_);}
	.st306{clip-path:url(#SVGID_00000126307504131760411310000018112887115175896456_);}
	.st307{clip-path:url(#SVGID_00000127730855781689143230000013998488261261272220_);}
	.st308{clip-path:url(#SVGID_00000026159414347548496900000003773830737923738509_);}
	.st309{clip-path:url(#SVGID_00000163761505704403150530000015795025168562652858_);}
	.st310{clip-path:url(#SVGID_00000157998220370581248330000006840456348018614199_);}
	.st311{clip-path:url(#SVGID_00000051373352428213430300000006301175840961676678_);}
	.st312{clip-path:url(#SVGID_00000137100977246531725120000013674982041312597133_);}
	.st313{clip-path:url(#SVGID_00000013167218601636419590000010799261436047960498_);}
	.st314{clip-path:url(#SVGID_00000170260912642516366330000007881957826978381242_);}
	.st315{clip-path:url(#SVGID_00000005949269957745427550000016334526131161262256_);}
	.st316{clip-path:url(#SVGID_00000001636749940027542500000015862950530521862563_);}
	.st317{clip-path:url(#SVGID_00000041278567327888053100000017562154764414953634_);}
	.st318{clip-path:url(#SVGID_00000047062481789837012720000016768689166849577633_);}
	.st319{clip-path:url(#SVGID_00000136404398870015187990000016747050268078043528_);}
	.st320{clip-path:url(#SVGID_00000149350715372643318840000005119049884722035640_);}
	.st321{clip-path:url(#SVGID_00000065075401896068924880000000962942004355200915_);}
	.st322{clip-path:url(#SVGID_00000065757913042742562580000011069343318371112636_);}
	.st323{clip-path:url(#SVGID_00000128467877573299498310000003545461875650470579_);}
	.st324{clip-path:url(#SVGID_00000003096821091711301090000004604182741986836924_);}
	.st325{clip-path:url(#SVGID_00000058548201054151746830000007080735374691089072_);}
	.st326{clip-path:url(#SVGID_00000145769673620302595450000009863121750765699471_);}
	.st327{clip-path:url(#SVGID_00000065032369509798892460000000250515834196112304_);}
	.st328{clip-path:url(#SVGID_00000072966239458627036960000010299044916104368571_);}
	.st329{clip-path:url(#SVGID_00000098943359762112755000000000492972552846075815_);}
	.st330{clip-path:url(#SVGID_00000114040916073490558600000005647941014944063161_);}
	.st331{clip-path:url(#SVGID_00000062174890185049165900000008440969302303206839_);}
	.st332{clip-path:url(#SVGID_00000003792319886107367530000002503088003244077455_);}
	.st333{clip-path:url(#SVGID_00000046301246751616066650000018050457140258537385_);}
	.st334{clip-path:url(#SVGID_00000183955898044854071180000017436665208513050506_);}
	.st335{clip-path:url(#SVGID_00000089566046474073955900000015680765294108745864_);}
	.st336{clip-path:url(#SVGID_00000170246850639186215460000012109699278558611637_);}
	.st337{clip-path:url(#SVGID_00000012432121989107761200000015813193201236398525_);}
	.st338{clip-path:url(#SVGID_00000019661154959536148150000012752780485929294774_);}
	.st339{clip-path:url(#SVGID_00000095310691575079858130000016573717026554737076_);}
	.st340{clip-path:url(#SVGID_00000037688524821369359810000017062521138842396065_);}
	.st341{clip-path:url(#SVGID_00000045609990476609017380000016246288732686735781_);}
	.st342{clip-path:url(#SVGID_00000008130409234145959550000003025785035476921788_);}
	.st343{clip-path:url(#SVGID_00000063600990710340549590000008408757260778533550_);}
	.st344{clip-path:url(#SVGID_00000026884136595523198140000002366056763635403695_);}
	.st345{clip-path:url(#SVGID_00000023976469507953343030000011897370218151738542_);}
	.st346{clip-path:url(#SVGID_00000088131148321165653870000017819378191694536348_);}
	.st347{clip-path:url(#SVGID_00000119115454224198841700000009678201135602481543_);}
	.st348{clip-path:url(#SVGID_00000045591106353419642910000003867855225589877919_);}
	.st349{clip-path:url(#SVGID_00000068641551102752424790000009273110365188678305_);}
	.st350{clip-path:url(#SVGID_00000129898486739323422210000013394042098835100301_);}
	.st351{clip-path:url(#SVGID_00000111170228998175273550000013802109560435285125_);}
	.st352{clip-path:url(#SVGID_00000038395892386588368640000008095695072385820831_);}
	.st353{clip-path:url(#SVGID_00000120534009157478031090000010878847867529948580_);}
	.st354{clip-path:url(#SVGID_00000070830010404730090260000016030544159707144636_);}
	.st355{clip-path:url(#SVGID_00000029026793013219283280000000176513664320381364_);}
	.st356{clip-path:url(#SVGID_00000152949555637324387640000010149868531009590676_);}
	.st357{clip-path:url(#SVGID_00000098181529887257803450000003201162798583224246_);}
	.st358{clip-path:url(#SVGID_00000147935736141176060370000001733334408885191300_);}
	.st359{clip-path:url(#SVGID_00000090296621766769390980000001236811112893561248_);}
	.st360{clip-path:url(#SVGID_00000068647529329060656330000002500266916020485794_);}
	.st361{clip-path:url(#SVGID_00000117646565393038823030000003241420921389418431_);}
	.st362{clip-path:url(#SVGID_00000174591633162070578460000012390254880047655832_);}
	.st363{clip-path:url(#SVGID_00000064312270345449027820000015955216055591148209_);}
	.st364{clip-path:url(#SVGID_00000140003221246864340430000010981743165341924754_);}
	.st365{clip-path:url(#SVGID_00000013184096093815786360000004046649096398906259_);}
	.st366{clip-path:url(#SVGID_00000119796252647694383890000000587765612769704342_);}
	.st367{clip-path:url(#SVGID_00000168074776912508456910000007848557526522507698_);}
	.st368{clip-path:url(#SVGID_00000029014161586692272510000004382943544123443869_);}
	.st369{clip-path:url(#SVGID_00000001645992115211382440000000047476087092100784_);}
	.st370{clip-path:url(#SVGID_00000175295043780100217090000008729021546735124634_);}
	.st371{clip-path:url(#SVGID_00000045580778436805186320000010245921907703594687_);}
	.st372{clip-path:url(#SVGID_00000117671417308789463980000001245860321873794454_);}
	.st373{clip-path:url(#SVGID_00000108298014584793728890000003141575981498638981_);}
	.st374{clip-path:url(#SVGID_00000126303332461485941220000016902198776017802376_);}
	.st375{clip-path:url(#SVGID_00000073690192798670017260000007505303858034929836_);}
</style>
<g>
	<g>
		<rect x="4.5" y="122.5" class="st0" width="48.54" height="692.84"/>
	</g>
	<g>
		<rect x="4.5" class="st1" width="992.7" height="116.88"/>
	</g>
	<g>
		<defs>
			<rect id="SVGID_00000044151832762722169370000006258146156792846510_" width="1000" height="819.82"/>
		</defs>
		<clipPath id="SVGID_00000046336827205903044640000001186294103314317461_">
			<use xlink:href="#SVGID_00000044151832762722169370000006258146156792846510_"  style="overflow:visible;"/>
		</clipPath>
		<g style="clip-path:url(#SVGID_00000046336827205903044640000001186294103314317461_);">
			<path class="st3" d="M997.19,819.82H1.69c-0.93,0-1.69-0.75-1.69-1.68V2.81c0-0.93,0.75-1.68,1.69-1.68h995.5
				c0.93,0,1.69,0.75,1.69,1.68v815.33C998.88,819.07,998.12,819.82,997.19,819.82z M3.37,816.45H995.5V4.5H3.37V816.45z"/>
		</g>
		<g style="clip-path:url(#SVGID_00000046336827205903044640000001186294103314317461_);">
			<rect x="4.49" y="118" class="st3" width="995.5" height="3.37"/>
		</g>
		<g style="clip-path:url(#SVGID_00000046336827205903044640000001186294103314317461_);">
			<path class="st4" d="M925.42,67.68c0-6.43-3.8-10.45-11.32-11.18l-5.99-0.58c-3.36-0.29-3.94-1.9-3.94-3.29
				c0-1.9,1.61-3.66,5.41-3.66c3.29,0,6.65,0.58,8.84,2.56l5.84-5.92c-3.65-3.43-8.62-4.45-14.54-4.45
				c-7.74,0-14.68,4.23-14.68,12.12c0,7.01,4.24,10.01,11.1,10.67l5.99,0.58c3,0.3,4.02,1.61,4.02,3.51c0,2.85-3.43,3.94-6.72,3.94
				c-2.92,0-7.01-0.44-10.15-3.58l-6.21,6.2c4.82,4.82,10.23,5.47,16.22,5.47C918.26,80.09,925.42,76.08,925.42,67.68 M887.8,67.68
				c0-6.43-3.8-10.45-11.32-11.18l-5.99-0.58c-3.36-0.29-3.94-1.9-3.94-3.29c0-1.9,1.61-3.66,5.41-3.66c3.29,0,6.65,0.58,8.84,2.56
				l5.84-5.92c-3.65-3.43-8.62-4.45-14.54-4.45c-7.74,0-14.68,4.23-14.68,12.12c0,7.01,4.24,10.01,11.1,10.67l5.99,0.58
				c2.99,0.3,4.02,1.61,4.02,3.51c0,2.85-3.43,3.94-6.72,3.94c-2.92,0-7.01-0.44-10.15-3.58l-6.21,6.2
				c4.82,4.82,10.23,5.47,16.22,5.47C880.64,80.09,887.8,76.08,887.8,67.68 M847.04,79.65V41.6h-9.49v23.01
				c0,5.19-3.36,6.94-6.36,6.94c-2.99,0-6.28-1.75-6.28-6.94V41.6h-9.49v24.32c0,4.16,0.8,7.74,3.87,10.81
				c2.11,2.12,5.18,3.35,8.98,3.35c3.51,0,7.02-1.31,9.5-3.94v3.5H847.04z M806.79,79.65v-8.02h-3.65c-2.41,0-3.36-1.17-3.36-3.43
				V27.65h-9.49v41.13c0,5.4,3.29,10.87,11.1,10.87H806.79z M778.96,79.65V55.03c0-8.03-4.38-13.87-12.7-13.87
				c-3.36,0-6.58,1.31-9.14,3.94V27.65h-9.49v52h9.49V56.42c0-4.97,3.14-6.72,6.14-6.72c2.99,0,6.21,1.68,6.21,6.72v23.23H778.96z
				 M738.78,74.91l-6.43-6.35c-1.97,2.12-3.65,2.99-6.14,2.99c-2.26,0-4.02-0.8-5.41-2.48c-1.46-1.83-2.12-4.46-2.12-8.48
				s0.66-6.57,2.12-8.4c1.39-1.69,3.14-2.49,5.41-2.49c2.48,0,4.16,0.88,6.14,3l6.43-6.43c-3.36-3.5-7.3-5.11-12.56-5.11
				c-7.6,0-17.01,4.01-17.01,19.43s9.42,19.5,17.01,19.5C731.48,80.09,735.42,78.41,738.78,74.91 M701.68,67.68
				c0-6.43-3.8-10.45-11.32-11.18l-5.99-0.58c-3.36-0.29-3.94-1.9-3.94-3.29c0-1.9,1.61-3.66,5.41-3.66c3.29,0,6.65,0.58,8.84,2.56
				l5.84-5.92c-3.65-3.43-8.62-4.45-14.54-4.45c-7.74,0-14.68,4.23-14.68,12.12c0,7.01,4.24,10.01,11.1,10.67l5.99,0.58
				c2.99,0.3,4.02,1.61,4.02,3.51c0,2.85-3.43,3.94-6.72,3.94c-2.92,0-7.01-0.44-10.15-3.58l-6.21,6.2
				c4.82,4.82,10.23,5.47,16.22,5.47C694.52,80.09,701.68,76.08,701.68,67.68 M653.04,60.59c0,6.21-0.73,10.96-6.43,10.96
				s-6.43-4.75-6.43-10.96c0-6.21,0.73-10.89,6.43-10.89S653.04,54.38,653.04,60.59 M662.52,60.59c0-5.7-0.07-12.2-3.87-16
				c-2.12-2.11-5.55-3.43-9.28-3.43c-3.87,0-6.73,1.02-9.21,3.79V27.65h-9.48v52h9.19v-3.57c2.63,2.92,5.48,4.01,9.5,4.01
				c3.73,0,7.16-1.31,9.28-3.43C662.45,72.87,662.52,66.29,662.52,60.59 M609.5,65.63c0,2.34-0.37,3.87-1.39,4.83
				c-1.69,1.61-3.37,1.83-6,1.83c-3.73,0-5.48-1.75-5.48-4.39c0-2.7,1.9-4.32,5.34-4.32h7.53V65.63z M618.98,79.65V54.6
				c0-8.91-5.55-13.44-16.21-13.44c-6.36,0-10.01,1.17-13.73,5.25l6.06,5.92c1.97-2.26,3.65-3.15,7.31-3.15c5.04,0,7.09,1.83,7.09,6
				v1.9h-8.99c-8.84,0-13,4.96-13,11.02c0,3.37,1.09,6.43,3.14,8.55c2.26,2.26,5.4,3.35,9.72,3.35c4.38,0,6.79-1.09,9.36-3.65v3.28
				H618.98z M581.15,79.65v-8.02h-3.65c-2.41,0-3.36-1.17-3.36-3.43V27.65h-9.49v41.13c0,5.4,3.28,10.87,11.09,10.87H581.15z
				 M552.88,79.65V41.6h-9.49v23.01c0,5.19-3.37,6.94-6.36,6.94c-2.99,0-6.29-1.75-6.29-6.94V41.6h-9.49v24.32
				c0,4.16,0.8,7.74,3.87,10.81c2.12,2.12,5.18,3.35,8.98,3.35c3.51,0,7.01-1.31,9.5-3.94v3.5H552.88z M510,79.65V55.03
				c0-8.03-4.38-13.87-12.7-13.87c-3.36,0-6.57,1.31-9.14,3.94V27.65h-9.49v52h9.49V56.42c0-4.97,3.15-6.72,6.14-6.72
				c2.99,0,6.21,1.68,6.21,6.72v23.23H510z M469.82,74.91l-6.43-6.35c-1.97,2.12-3.65,2.99-6.14,2.99c-2.26,0-4.02-0.8-5.41-2.48
				c-1.46-1.83-2.12-4.46-2.12-8.48s0.66-6.57,2.12-8.4c1.39-1.69,3.14-2.49,5.41-2.49c2.48,0,4.16,0.88,6.14,3l6.43-6.43
				c-3.36-3.5-7.3-5.11-12.56-5.11c-7.6,0-17.01,4.01-17.01,19.43s9.41,19.5,17.01,19.5C462.52,80.09,466.46,78.41,469.82,74.91
				 M432.72,67.68c0-6.43-3.8-10.45-11.32-11.18l-5.99-0.58c-3.36-0.29-3.94-1.9-3.94-3.29c0-1.9,1.61-3.66,5.41-3.66
				c3.29,0,6.65,0.58,8.84,2.56l5.84-5.92c-3.65-3.43-8.62-4.45-14.54-4.45c-7.74,0-14.68,4.23-14.68,12.12
				c0,7.01,4.24,10.01,11.1,10.67l5.99,0.58c2.99,0.3,4.02,1.61,4.02,3.51c0,2.85-3.43,3.94-6.72,3.94c-2.92,0-7.01-0.44-10.15-3.58
				l-6.21,6.2c4.82,4.82,10.23,5.47,16.22,5.47C425.56,80.09,432.72,76.08,432.72,67.68 M395.02,79.65v-8.02h-3.66
				c-2.41,0-3.35-1.17-3.35-3.43V27.65h-9.49v41.13c0,5.4,3.29,10.87,11.09,10.87H395.02z M357.7,65.63c0,2.34-0.37,3.87-1.39,4.83
				c-1.68,1.61-3.36,1.83-6,1.83c-3.73,0-5.48-1.75-5.48-4.39c0-2.7,1.9-4.32,5.33-4.32h7.53V65.63z M367.19,79.65V54.6
				c0-8.91-5.55-13.44-16.22-13.44c-6.36,0-10.01,1.17-13.73,5.25l6.06,5.92c1.97-2.26,3.65-3.15,7.3-3.15c5.05,0,7.09,1.83,7.09,6
				v1.9h-8.99c-8.84,0-13,4.96-13,11.02c0,3.37,1.1,6.43,3.14,8.55c2.26,2.26,5.4,3.35,9.71,3.35c4.39,0,6.8-1.09,9.36-3.65v3.28
				H367.19z M318.84,57.09h-14.46c0.07-1.68,0.29-2.71,0.88-4.1c1.02-2.26,3.14-3.95,6.36-3.95s5.33,1.69,6.36,3.95
				C318.54,54.38,318.76,55.41,318.84,57.09 M328.19,63.58v-4.23c0-10.45-5.99-18.18-16.58-18.18c-9.86,0-16.58,7.01-16.58,19.43
				c0,15.41,8.61,19.5,17.6,19.5c6.87,0,10.59-2.11,14.46-5.98l-5.77-5.63c-2.41,2.42-4.46,3.58-8.62,3.58
				c-5.33,0-8.33-3.58-8.33-8.48H328.19z M292.32,44.74c-2.63-2.62-5.26-3.57-8.98-3.57c-4.09,0-7.74,1.9-9.57,4.09V41.6h-9.27
				v38.05h9.49V56.71c0-4.82,3.21-7.01,6.14-7.01c2.34,0,3.58,0.8,5.04,2.26L292.32,44.74z M256.82,79.65l-14.61-22.71L255.8,41.6
				h-11.47l-12.64,15.55V27.65h-9.49v52h9.49V68.33l4.02-4.53l9.35,15.85H256.82z M215.33,44.74c-2.63-2.62-5.26-3.57-8.98-3.57
				c-4.09,0-7.74,1.9-9.57,4.09V41.6h-9.27v38.05h9.49V56.71c0-4.82,3.21-7.01,6.14-7.01c2.34,0,3.58,0.8,5.04,2.26L215.33,44.74z
				 M167.92,57.09h-14.46c0.07-1.68,0.29-2.71,0.88-4.1c1.02-2.26,3.14-3.95,6.36-3.95c3.21,0,5.33,1.69,6.36,3.95
				C167.63,54.38,167.85,55.41,167.92,57.09 M177.27,63.58v-4.23c0-10.45-5.99-18.18-16.58-18.18c-9.86,0-16.57,7.01-16.57,19.43
				c0,15.41,8.61,19.5,17.59,19.5c6.87,0,10.59-2.11,14.46-5.98l-5.77-5.63c-2.41,2.42-4.46,3.58-8.62,3.58
				c-5.33,0-8.33-3.58-8.33-8.48H177.27z M141.7,27.65h-10.59L123,60.44l-9.5-32.79h-7.6l-9.5,32.79l-8.04-32.79H77.78l13.88,52
				h8.47l9.57-31.55l9.57,31.55h8.47L141.7,27.65z"/>
		</g>
		<g style="clip-path:url(#SVGID_00000046336827205903044640000001186294103314317461_);">
			<rect x="3.09" y="348.94" class="st3" width="992.7" height="3.37"/>
		</g>
		<g style="clip-path:url(#SVGID_00000046336827205903044640000001186294103314317461_);">
			<rect x="3.09" y="232.07" class="st3" width="992.7" height="3.37"/>
		</g>
		<g style="clip-path:url(#SVGID_00000046336827205903044640000001186294103314317461_);">
			<rect x="3.09" y="463.01" class="st3" width="992.7" height="3.37"/>
		</g>
		<g style="clip-path:url(#SVGID_00000046336827205903044640000001186294103314317461_);">
			<rect x="3.09" y="585.51" class="st3" width="992.7" height="3.37"/>
		</g>
		<g style="clip-path:url(#SVGID_00000046336827205903044640000001186294103314317461_);">
			<rect x="3.09" y="702.39" class="st3" width="992.7" height="3.37"/>
		</g>
		<g style="clip-path:url(#SVGID_00000046336827205903044640000001186294103314317461_);">
			<path class="st3" d="M720.97,661.25c0,4.06-2.4,6.62-5.82,6.62c-3.42,0-5.77-2.57-5.77-6.62c0-4.11,2.35-6.57,5.77-6.57
				C718.78,654.69,720.97,657.52,720.97,661.25 M726.41,661.15c0-6.68-4.48-10.99-9.98-10.99c-1.17,0-2.35,0.16-3.37,0.58
				l8.17-16.33h-5.82l-8.65,17.62c-1.65,3.3-2.83,6.24-2.83,9.34c0,7.05,4.69,11.37,11.26,11.37
				C721.77,672.73,726.41,668.14,726.41,661.15 M678.8,656.67h-12.17c0.05-1.66,0.16-2.46,0.69-3.69c0.85-2.03,2.83-3.42,5.39-3.42
				c2.56,0,4.48,1.39,5.34,3.42C678.58,654.21,678.74,655.01,678.8,656.67 M684.18,660.45v-2.4c0-7.69-4.21-13.02-11.47-13.02
				c-6.94,0-11.47,5.06-11.47,13.82c0,10.31,5.39,13.88,12.17,13.88c4.75,0,7.37-1.44,10.14-4.21l-3.47-3.26
				c-1.92,1.92-3.52,2.78-6.57,2.78c-4.43,0-6.88-2.94-6.88-7.59H684.18z M655.47,664.14c0-4.8-2.99-7.21-8.06-7.64l-4.27-0.37
				c-2.88-0.27-3.74-1.49-3.74-3.1c0-2.03,1.66-3.47,4.91-3.47c2.56,0,4.97,0.53,6.68,1.98l3.42-3.47
				c-2.51-2.19-5.98-3.03-10.04-3.03c-5.66,0-10.2,2.98-10.2,8.27c0,4.75,2.94,7.05,8.01,7.48l4.33,0.37
				c2.61,0.21,3.63,1.39,3.63,3.2c0,2.57-2.62,3.74-5.93,3.74c-2.67,0-5.6-0.59-7.79-2.83l-3.57,3.57c3.2,3.15,6.94,3.89,11.37,3.89
				C650.67,672.73,655.47,669.8,655.47,664.14 M628.62,664.14c0-4.8-2.99-7.21-8.06-7.64l-4.27-0.37c-2.88-0.27-3.74-1.49-3.74-3.1
				c0-2.03,1.65-3.47,4.91-3.47c2.56,0,4.96,0.53,6.67,1.98l3.42-3.47c-2.51-2.19-5.98-3.03-10.04-3.03
				c-5.66,0-10.19,2.98-10.19,8.27c0,4.75,2.93,7.05,8.01,7.48l4.32,0.37c2.62,0.21,3.63,1.39,3.63,3.2c0,2.57-2.61,3.74-5.92,3.74
				c-2.67,0-5.61-0.59-7.79-2.83l-3.58,3.57c3.2,3.15,6.94,3.89,11.37,3.89C623.81,672.73,628.62,669.8,628.62,664.14
				 M594.25,662.64c0,1.92-0.37,3.2-1.17,4.01c-1.44,1.39-2.99,1.55-5.07,1.55c-3.42,0-4.97-1.39-4.97-3.85
				c0-2.46,1.66-3.9,4.86-3.9h6.36V662.64z M599.68,672.41v-18.09c0-6.14-3.73-9.28-11.15-9.28c-4.49,0-7.15,0.9-9.72,3.89
				l3.57,3.37c1.49-1.92,2.94-2.62,5.93-2.62c4.22,0,5.93,1.66,5.93,5.07v1.93h-7.16c-6.19,0-9.33,3.25-9.33,7.79
				c0,2.3,0.74,4.38,2.13,5.82c1.65,1.65,3.89,2.45,7.26,2.45s5.23-0.8,7.21-2.77v2.45H599.68z M573.26,672.41v-4.64h-2.4
				c-2.19,0-2.94-1.07-2.94-3.15v-30.21h-5.43v30.53c0,4,2.24,7.47,7.41,7.47H573.26z M555.06,661.04h-5.82
				c-0.91,3.85-3.52,6.52-7.74,6.52c-2.24,0-4.27-0.85-5.6-2.3c-1.87-2.03-2.3-4.22-2.3-11.85c0-7.64,0.43-9.83,2.3-11.86
				c1.33-1.44,3.36-2.3,5.6-2.3c4.22,0,6.78,2.67,7.69,6.52h5.87c-1.33-7.58-6.56-11.69-13.56-11.69c-3.95,0-7.37,1.44-9.98,4.05
				c-3.73,3.74-3.68,7.96-3.68,15.27c0,7.31-0.05,11.53,3.68,15.27c2.61,2.61,6.03,4.05,9.98,4.05
				C548.39,672.73,553.78,668.62,555.06,661.04 M510.54,630.46h-5.23l-15.22,45.9h5.23L510.54,630.46z M467.79,661.25
				c0,4.06-2.4,6.62-5.82,6.62s-5.77-2.57-5.77-6.62c0-4.11,2.35-6.57,5.77-6.57C465.6,654.69,467.79,657.52,467.79,661.25
				 M473.23,661.15c0-6.68-4.48-10.99-9.98-10.99c-1.17,0-2.35,0.16-3.37,0.58l8.18-16.33h-5.82l-8.65,17.62
				c-1.66,3.3-2.83,6.24-2.83,9.34c0,7.05,4.69,11.37,11.26,11.37C468.59,672.73,473.23,668.14,473.23,661.15 M425.61,656.67h-12.17
				c0.06-1.66,0.16-2.46,0.7-3.69c0.85-2.03,2.83-3.42,5.39-3.42c2.56,0,4.48,1.39,5.34,3.42
				C425.4,654.21,425.56,655.01,425.61,656.67 M431.01,660.45v-2.4c0-7.69-4.22-13.02-11.48-13.02c-6.94,0-11.47,5.06-11.47,13.82
				c0,10.31,5.38,13.88,12.17,13.88c4.75,0,7.37-1.44,10.14-4.21l-3.47-3.26c-1.92,1.92-3.52,2.78-6.56,2.78
				c-4.43,0-6.89-2.94-6.89-7.59H431.01z M402.29,664.14c0-4.8-2.99-7.21-8.06-7.64l-4.27-0.37c-2.88-0.27-3.74-1.49-3.74-3.1
				c0-2.03,1.65-3.47,4.91-3.47c2.56,0,4.96,0.53,6.67,1.98l3.42-3.47c-2.51-2.19-5.98-3.03-10.04-3.03
				c-5.66,0-10.19,2.98-10.19,8.27c0,4.75,2.93,7.05,8.01,7.48l4.32,0.37c2.62,0.21,3.63,1.39,3.63,3.2c0,2.57-2.61,3.74-5.92,3.74
				c-2.67,0-5.61-0.59-7.79-2.83l-3.58,3.57c3.2,3.15,6.94,3.89,11.37,3.89C397.48,672.73,402.29,669.8,402.29,664.14
				 M375.44,664.14c0-4.8-2.99-7.21-8.06-7.64l-4.27-0.37c-2.88-0.27-3.74-1.49-3.74-3.1c0-2.03,1.66-3.47,4.91-3.47
				c2.56,0,4.97,0.53,6.68,1.98l3.42-3.47c-2.51-2.19-5.98-3.03-10.04-3.03c-5.66,0-10.2,2.98-10.2,8.27c0,4.75,2.94,7.05,8.01,7.48
				l4.33,0.37c2.61,0.21,3.63,1.39,3.63,3.2c0,2.57-2.62,3.74-5.93,3.74c-2.67,0-5.6-0.59-7.79-2.83l-3.57,3.57
				c3.2,3.15,6.94,3.89,11.37,3.89C370.63,672.73,375.44,669.8,375.44,664.14 M341.06,662.64c0,1.92-0.37,3.2-1.17,4.01
				c-1.44,1.39-2.99,1.55-5.07,1.55c-3.42,0-4.97-1.39-4.97-3.85c0-2.46,1.66-3.9,4.86-3.9h6.36V662.64z M346.5,672.41v-18.09
				c0-6.14-3.73-9.28-11.15-9.28c-4.48,0-7.15,0.9-9.71,3.89l3.57,3.37c1.49-1.92,2.94-2.62,5.93-2.62c4.22,0,5.93,1.66,5.93,5.07
				v1.93h-7.15c-6.19,0-9.34,3.25-9.34,7.79c0,2.3,0.75,4.38,2.14,5.82c1.65,1.65,3.89,2.45,7.25,2.45c3.37,0,5.24-0.8,7.21-2.77
				v2.45H346.5z M320.08,672.41v-4.64h-2.4c-2.19,0-2.93-1.07-2.93-3.15v-30.21h-5.44v30.53c0,4,2.24,7.47,7.41,7.47H320.08z
				 M304.06,672.41l-13.62-23.11l12.33-14.89h-7.05l-15.54,19.11v-19.11h-5.75v38h5.75v-11.05l6.41-7.69l10.68,18.73H304.06z"/>
		</g>
		<g style="clip-path:url(#SVGID_00000046336827205903044640000001186294103314317461_);">
			<path class="st3" d="M726.95,516.77v-4.85h-22.63v10.83h5.23v-5.98h11.59l-12.76,33.15h5.87L726.95,516.77z M678.8,534.17h-12.17
				c0.05-1.66,0.16-2.46,0.69-3.69c0.85-2.03,2.83-3.42,5.39-3.42c2.56,0,4.48,1.39,5.34,3.42
				C678.58,531.71,678.74,532.52,678.8,534.17 M684.18,537.95v-2.4c0-7.69-4.21-13.02-11.47-13.02c-6.94,0-11.47,5.06-11.47,13.82
				c0,10.3,5.39,13.87,12.17,13.87c4.75,0,7.37-1.44,10.14-4.21l-3.47-3.26c-1.92,1.92-3.52,2.78-6.57,2.78
				c-4.43,0-6.88-2.94-6.88-7.59H684.18z M655.47,541.64c0-4.8-2.99-7.21-8.06-7.64l-4.27-0.37c-2.88-0.27-3.74-1.49-3.74-3.1
				c0-2.03,1.66-3.47,4.91-3.47c2.56,0,4.97,0.53,6.68,1.98l3.42-3.47c-2.51-2.19-5.98-3.03-10.04-3.03c-5.66,0-10.2,2.98-10.2,8.27
				c0,4.75,2.94,7.05,8.01,7.48l4.33,0.37c2.61,0.21,3.63,1.39,3.63,3.2c0,2.57-2.62,3.74-5.93,3.74c-2.67,0-5.6-0.59-7.79-2.83
				l-3.57,3.58c3.2,3.14,6.94,3.89,11.37,3.89C650.67,550.23,655.47,547.3,655.47,541.64 M628.62,541.64c0-4.8-2.99-7.21-8.06-7.64
				l-4.27-0.37c-2.88-0.27-3.74-1.49-3.74-3.1c0-2.03,1.65-3.47,4.91-3.47c2.56,0,4.96,0.53,6.67,1.98l3.42-3.47
				c-2.51-2.19-5.98-3.03-10.04-3.03c-5.66,0-10.19,2.98-10.19,8.27c0,4.75,2.93,7.05,8.01,7.48l4.32,0.37
				c2.62,0.21,3.63,1.39,3.63,3.2c0,2.57-2.61,3.74-5.92,3.74c-2.67,0-5.61-0.59-7.79-2.83l-3.58,3.58
				c3.2,3.14,6.94,3.89,11.37,3.89C623.81,550.23,628.62,547.3,628.62,541.64 M594.25,540.15c0,1.92-0.37,3.2-1.17,4.01
				c-1.44,1.39-2.99,1.55-5.07,1.55c-3.42,0-4.97-1.39-4.97-3.85c0-2.46,1.66-3.9,4.86-3.9h6.36V540.15z M599.68,549.91v-18.09
				c0-6.14-3.73-9.28-11.15-9.28c-4.49,0-7.15,0.9-9.72,3.89l3.57,3.37c1.49-1.92,2.94-2.62,5.93-2.62c4.22,0,5.93,1.66,5.93,5.07
				v1.93h-7.16c-6.19,0-9.33,3.25-9.33,7.79c0,2.3,0.74,4.38,2.13,5.82c1.65,1.65,3.89,2.45,7.26,2.45s5.23-0.8,7.21-2.77v2.45
				H599.68z M573.26,549.91v-4.64h-2.4c-2.19,0-2.94-1.07-2.94-3.15v-30.21h-5.43v30.53c0,4,2.24,7.47,7.41,7.47H573.26z
				 M555.06,538.54h-5.82c-0.91,3.85-3.52,6.52-7.74,6.52c-2.24,0-4.27-0.85-5.6-2.3c-1.87-2.03-2.3-4.22-2.3-11.85
				c0-7.64,0.43-9.83,2.3-11.86c1.33-1.44,3.36-2.29,5.6-2.29c4.22,0,6.78,2.67,7.69,6.51h5.87c-1.33-7.58-6.56-11.69-13.56-11.69
				c-3.95,0-7.37,1.44-9.98,4.05c-3.73,3.74-3.68,7.96-3.68,15.27c0,7.31-0.05,11.53,3.68,15.27c2.61,2.61,6.03,4.05,9.98,4.05
				C548.39,550.23,553.78,546.12,555.06,538.54 M510.54,507.96h-5.23l-15.22,45.9h5.23L510.54,507.96z M473.77,516.77v-4.85h-22.63
				v10.83h5.23v-5.98h11.58l-12.76,33.15h5.87L473.77,516.77z M425.61,534.17h-12.17c0.06-1.66,0.16-2.46,0.7-3.69
				c0.85-2.03,2.83-3.42,5.39-3.42c2.56,0,4.48,1.39,5.34,3.42C425.4,531.71,425.56,532.52,425.61,534.17 M431.01,537.95v-2.4
				c0-7.69-4.22-13.02-11.48-13.02c-6.94,0-11.47,5.06-11.47,13.82c0,10.3,5.38,13.87,12.17,13.87c4.75,0,7.37-1.44,10.14-4.21
				l-3.47-3.26c-1.92,1.92-3.52,2.78-6.56,2.78c-4.43,0-6.89-2.94-6.89-7.59H431.01z M402.29,541.64c0-4.8-2.99-7.21-8.06-7.64
				l-4.27-0.37c-2.88-0.27-3.74-1.49-3.74-3.1c0-2.03,1.65-3.47,4.91-3.47c2.56,0,4.96,0.53,6.67,1.98l3.42-3.47
				c-2.51-2.19-5.98-3.03-10.04-3.03c-5.66,0-10.19,2.98-10.19,8.27c0,4.75,2.93,7.05,8.01,7.48l4.32,0.37
				c2.62,0.21,3.63,1.39,3.63,3.2c0,2.57-2.61,3.74-5.92,3.74c-2.67,0-5.61-0.59-7.79-2.83l-3.58,3.58
				c3.2,3.14,6.94,3.89,11.37,3.89C397.48,550.23,402.29,547.3,402.29,541.64 M375.44,541.64c0-4.8-2.99-7.21-8.06-7.64l-4.27-0.37
				c-2.88-0.27-3.74-1.49-3.74-3.1c0-2.03,1.66-3.47,4.91-3.47c2.56,0,4.97,0.53,6.68,1.98l3.42-3.47
				c-2.51-2.19-5.98-3.03-10.04-3.03c-5.66,0-10.2,2.98-10.2,8.27c0,4.75,2.94,7.05,8.01,7.48l4.33,0.37
				c2.61,0.21,3.63,1.39,3.63,3.2c0,2.57-2.62,3.74-5.93,3.74c-2.67,0-5.6-0.59-7.79-2.83l-3.57,3.58c3.2,3.14,6.94,3.89,11.37,3.89
				C370.63,550.23,375.44,547.3,375.44,541.64 M341.06,540.15c0,1.92-0.37,3.2-1.17,4.01c-1.44,1.39-2.99,1.55-5.07,1.55
				c-3.42,0-4.97-1.39-4.97-3.85c0-2.46,1.66-3.9,4.86-3.9h6.36V540.15z M346.5,549.91v-18.09c0-6.14-3.73-9.28-11.15-9.28
				c-4.48,0-7.15,0.9-9.71,3.89l3.57,3.37c1.49-1.92,2.94-2.62,5.93-2.62c4.22,0,5.93,1.66,5.93,5.07v1.93h-7.15
				c-6.19,0-9.34,3.25-9.34,7.79c0,2.3,0.75,4.38,2.14,5.82c1.65,1.65,3.89,2.45,7.25,2.45c3.37,0,5.24-0.8,7.21-2.77v2.45H346.5z
				 M320.08,549.91v-4.64h-2.4c-2.19,0-2.93-1.07-2.93-3.15v-30.21h-5.44v30.53c0,4,2.24,7.47,7.41,7.47H320.08z M304.06,549.91
				l-13.62-23.11l12.33-14.89h-7.05l-15.54,19.11v-19.11h-5.75v38h5.75v-11.05l6.41-7.69l10.68,18.73H304.06z"/>
		</g>
		<g style="clip-path:url(#SVGID_00000046336827205903044640000001186294103314317461_);">
			<path class="st3" d="M720.81,405.39c0,3.36-2.35,5.77-5.66,5.77c-3.32,0-5.61-2.4-5.61-5.77c0-3.32,2.29-5.82,5.61-5.82
				C718.46,399.57,720.81,402.07,720.81,405.39 M721.4,422.2c0,3.52-2.73,6.3-6.25,6.3c-3.53,0-6.25-2.78-6.25-6.3
				c0-3.52,2.72-6.36,6.25-6.36C718.67,415.85,721.4,418.68,721.4,422.2 M726.89,422.31c0-4.54-2.56-7.32-5.23-8.91
				c2.46-1.49,4.59-4.16,4.59-8.17c0-6.36-4.91-10.51-11.1-10.51c-6.2,0-11.05,4.16-11.05,10.51c0,4.01,2.13,6.68,4.59,8.17
				c-2.67,1.6-5.23,4.37-5.23,8.91c0,6.89,5.17,11.05,11.69,11.05C721.66,433.36,726.89,429.2,726.89,422.31 M678.8,417.3h-12.17
				c0.05-1.66,0.16-2.46,0.69-3.69c0.85-2.03,2.83-3.42,5.39-3.42c2.56,0,4.48,1.39,5.34,3.42
				C678.58,414.83,678.74,415.64,678.8,417.3 M684.18,421.08v-2.4c0-7.69-4.21-13.02-11.47-13.02c-6.94,0-11.47,5.06-11.47,13.82
				c0,10.3,5.39,13.87,12.17,13.87c4.75,0,7.37-1.44,10.14-4.21l-3.47-3.26c-1.92,1.92-3.52,2.78-6.57,2.78
				c-4.43,0-6.88-2.94-6.88-7.59H684.18z M655.47,424.76c0-4.8-2.99-7.21-8.06-7.64l-4.27-0.37c-2.88-0.27-3.74-1.49-3.74-3.1
				c0-2.03,1.66-3.47,4.91-3.47c2.56,0,4.97,0.53,6.68,1.98l3.42-3.47c-2.51-2.19-5.98-3.03-10.04-3.03c-5.66,0-10.2,2.98-10.2,8.27
				c0,4.75,2.94,7.05,8.01,7.48l4.33,0.37c2.61,0.21,3.63,1.39,3.63,3.2c0,2.57-2.62,3.74-5.93,3.74c-2.67,0-5.6-0.59-7.79-2.83
				l-3.57,3.58c3.2,3.14,6.94,3.89,11.37,3.89C650.67,433.36,655.47,430.42,655.47,424.76 M628.62,424.76c0-4.8-2.99-7.21-8.06-7.64
				l-4.27-0.37c-2.88-0.27-3.74-1.49-3.74-3.1c0-2.03,1.65-3.47,4.91-3.47c2.56,0,4.96,0.53,6.67,1.98l3.42-3.47
				c-2.51-2.19-5.98-3.03-10.04-3.03c-5.66,0-10.19,2.98-10.19,8.27c0,4.75,2.93,7.05,8.01,7.48l4.32,0.37
				c2.62,0.21,3.63,1.39,3.63,3.2c0,2.57-2.61,3.74-5.92,3.74c-2.67,0-5.61-0.59-7.79-2.83l-3.58,3.58
				c3.2,3.14,6.94,3.89,11.37,3.89C623.81,433.36,628.62,430.42,628.62,424.76 M594.25,423.27c0,1.92-0.37,3.2-1.17,4.01
				c-1.44,1.39-2.99,1.55-5.07,1.55c-3.42,0-4.97-1.39-4.97-3.85s1.66-3.9,4.86-3.9h6.36V423.27z M599.68,433.04v-18.09
				c0-6.14-3.73-9.28-11.15-9.28c-4.49,0-7.15,0.9-9.72,3.89l3.57,3.37c1.49-1.92,2.94-2.62,5.93-2.62c4.22,0,5.93,1.66,5.93,5.07
				v1.93h-7.16c-6.19,0-9.33,3.25-9.33,7.79c0,2.3,0.74,4.38,2.13,5.82c1.65,1.65,3.89,2.45,7.26,2.45s5.23-0.8,7.21-2.77v2.45
				H599.68z M573.26,433.04v-4.64h-2.4c-2.19,0-2.94-1.07-2.94-3.15v-30.21h-5.43v30.53c0,4,2.24,7.47,7.41,7.47H573.26z
				 M555.06,421.67h-5.82c-0.91,3.85-3.52,6.52-7.74,6.52c-2.24,0-4.27-0.85-5.6-2.3c-1.87-2.03-2.3-4.22-2.3-11.85
				c0-7.64,0.43-9.83,2.3-11.86c1.33-1.44,3.36-2.29,5.6-2.29c4.22,0,6.78,2.67,7.69,6.51h5.87c-1.33-7.58-6.56-11.69-13.56-11.69
				c-3.95,0-7.37,1.44-9.98,4.05c-3.73,3.74-3.68,7.96-3.68,15.27c0,7.31-0.05,11.53,3.68,15.27c2.61,2.61,6.03,4.05,9.98,4.05
				C548.39,433.36,553.78,429.25,555.06,421.67 M510.54,391.08h-5.23l-15.22,45.9h5.23L510.54,391.08z M467.63,405.39
				c0,3.36-2.35,5.77-5.66,5.77c-3.31,0-5.61-2.4-5.61-5.77c0-3.32,2.3-5.82,5.61-5.82C465.28,399.57,467.63,402.07,467.63,405.39
				 M468.22,422.2c0,3.52-2.73,6.3-6.25,6.3s-6.25-2.78-6.25-6.3c0-3.52,2.73-6.36,6.25-6.36S468.22,418.68,468.22,422.2
				 M473.7,422.31c0-4.54-2.56-7.32-5.22-8.91c2.45-1.49,4.59-4.16,4.59-8.17c0-6.36-4.91-10.51-11.1-10.51
				c-6.19,0-11.05,4.16-11.05,10.51c0,4.01,2.14,6.68,4.59,8.17c-2.66,1.6-5.23,4.37-5.23,8.91c0,6.89,5.18,11.05,11.69,11.05
				C468.48,433.36,473.7,429.2,473.7,422.31 M425.61,417.3h-12.17c0.06-1.66,0.16-2.46,0.7-3.69c0.85-2.03,2.83-3.42,5.39-3.42
				c2.56,0,4.48,1.39,5.34,3.42C425.4,414.83,425.56,415.64,425.61,417.3 M431.01,421.08v-2.4c0-7.69-4.22-13.02-11.48-13.02
				c-6.94,0-11.47,5.06-11.47,13.82c0,10.3,5.38,13.87,12.17,13.87c4.75,0,7.37-1.44,10.14-4.21l-3.47-3.26
				c-1.92,1.92-3.52,2.78-6.56,2.78c-4.43,0-6.89-2.94-6.89-7.59H431.01z M402.29,424.76c0-4.8-2.99-7.21-8.06-7.64l-4.27-0.37
				c-2.88-0.27-3.74-1.49-3.74-3.1c0-2.03,1.65-3.47,4.91-3.47c2.56,0,4.96,0.53,6.67,1.98l3.42-3.47
				c-2.51-2.19-5.98-3.03-10.04-3.03c-5.66,0-10.19,2.98-10.19,8.27c0,4.75,2.93,7.05,8.01,7.48l4.32,0.37
				c2.62,0.21,3.63,1.39,3.63,3.2c0,2.57-2.61,3.74-5.92,3.74c-2.67,0-5.61-0.59-7.79-2.83l-3.58,3.58
				c3.2,3.14,6.94,3.89,11.37,3.89C397.48,433.36,402.29,430.42,402.29,424.76 M375.44,424.76c0-4.8-2.99-7.21-8.06-7.64l-4.27-0.37
				c-2.88-0.27-3.74-1.49-3.74-3.1c0-2.03,1.66-3.47,4.91-3.47c2.56,0,4.97,0.53,6.68,1.98l3.42-3.47
				c-2.51-2.19-5.98-3.03-10.04-3.03c-5.66,0-10.2,2.98-10.2,8.27c0,4.75,2.94,7.05,8.01,7.48l4.33,0.37
				c2.61,0.21,3.63,1.39,3.63,3.2c0,2.57-2.62,3.74-5.93,3.74c-2.67,0-5.6-0.59-7.79-2.83l-3.57,3.58c3.2,3.14,6.94,3.89,11.37,3.89
				C370.63,433.36,375.44,430.42,375.44,424.76 M341.06,423.27c0,1.92-0.37,3.2-1.17,4.01c-1.44,1.39-2.99,1.55-5.07,1.55
				c-3.42,0-4.97-1.39-4.97-3.85s1.66-3.9,4.86-3.9h6.36V423.27z M346.5,433.04v-18.09c0-6.14-3.73-9.28-11.15-9.28
				c-4.48,0-7.15,0.9-9.71,3.89l3.57,3.37c1.49-1.92,2.94-2.62,5.93-2.62c4.22,0,5.93,1.66,5.93,5.07v1.93h-7.15
				c-6.19,0-9.34,3.25-9.34,7.79c0,2.3,0.75,4.38,2.14,5.82c1.65,1.65,3.89,2.45,7.25,2.45c3.37,0,5.24-0.8,7.21-2.77v2.45H346.5z
				 M320.08,433.04v-4.64h-2.4c-2.19,0-2.93-1.07-2.93-3.15v-30.21h-5.44v30.53c0,4,2.24,7.47,7.41,7.47H320.08z M304.06,433.04
				l-13.62-23.11l12.33-14.89h-7.05l-15.54,19.11v-19.11h-5.75v38h5.75v-11.05l6.41-7.69l10.68,18.73H304.06z"/>
		</g>
		<g style="clip-path:url(#SVGID_00000046336827205903044640000001186294103314317461_);">
			<path class="st3" d="M720.97,289.31c0,4.11-2.4,6.57-5.82,6.57c-3.64,0-5.77-2.83-5.77-6.57c0-4.06,2.35-6.62,5.77-6.62
				C718.57,282.69,720.97,285.25,720.97,289.31 M726.41,289.2c0-7.05-4.69-11.37-11.26-11.37s-11.21,4.59-11.21,11.58
				c0,6.68,4.43,11,9.92,11c1.18,0,2.4-0.16,3.42-0.59l-8.17,16.33h5.82l8.65-17.62C725.24,295.24,726.41,292.3,726.41,289.2
				 M678.8,300.42h-12.17c0.05-1.66,0.16-2.46,0.69-3.69c0.85-2.03,2.83-3.42,5.39-3.42c2.56,0,4.48,1.39,5.34,3.42
				C678.58,297.96,678.74,298.76,678.8,300.42 M684.18,304.2v-2.4c0-7.69-4.21-13.02-11.47-13.02c-6.94,0-11.47,5.06-11.47,13.82
				c0,10.3,5.39,13.87,12.17,13.87c4.75,0,7.37-1.44,10.14-4.21l-3.47-3.26c-1.92,1.92-3.52,2.78-6.57,2.78
				c-4.43,0-6.88-2.94-6.88-7.59H684.18z M655.47,307.89c0-4.8-2.99-7.21-8.06-7.64l-4.27-0.37c-2.88-0.27-3.74-1.49-3.74-3.1
				c0-2.03,1.66-3.47,4.91-3.47c2.56,0,4.97,0.53,6.68,1.98l3.42-3.47c-2.51-2.19-5.98-3.03-10.04-3.03c-5.66,0-10.2,2.98-10.2,8.27
				c0,4.75,2.94,7.05,8.01,7.48l4.33,0.37c2.61,0.21,3.63,1.39,3.63,3.2c0,2.57-2.62,3.74-5.93,3.74c-2.67,0-5.6-0.59-7.79-2.83
				l-3.57,3.58c3.2,3.14,6.94,3.89,11.37,3.89C650.67,316.48,655.47,313.55,655.47,307.89 M628.62,307.89c0-4.8-2.99-7.21-8.06-7.64
				l-4.27-0.37c-2.88-0.27-3.74-1.49-3.74-3.1c0-2.03,1.65-3.47,4.91-3.47c2.56,0,4.96,0.53,6.67,1.98l3.42-3.47
				c-2.51-2.19-5.98-3.03-10.04-3.03c-5.66,0-10.19,2.98-10.19,8.27c0,4.75,2.93,7.05,8.01,7.48l4.32,0.37
				c2.62,0.21,3.63,1.39,3.63,3.2c0,2.57-2.61,3.74-5.92,3.74c-2.67,0-5.61-0.59-7.79-2.83l-3.58,3.58
				c3.2,3.14,6.94,3.89,11.37,3.89C623.81,316.48,628.62,313.55,628.62,307.89 M594.25,306.39c0,1.92-0.37,3.2-1.17,4.01
				c-1.44,1.39-2.99,1.55-5.07,1.55c-3.42,0-4.97-1.39-4.97-3.85c0-2.46,1.66-3.9,4.86-3.9h6.36V306.39z M599.68,316.16v-18.09
				c0-6.14-3.73-9.28-11.15-9.28c-4.49,0-7.15,0.9-9.72,3.89l3.57,3.37c1.49-1.92,2.94-2.62,5.93-2.62c4.22,0,5.93,1.66,5.93,5.07
				v1.93h-7.16c-6.19,0-9.33,3.25-9.33,7.79c0,2.3,0.74,4.38,2.13,5.82c1.65,1.65,3.89,2.45,7.26,2.45s5.23-0.8,7.21-2.77v2.45
				H599.68z M573.26,316.16v-4.64h-2.4c-2.19,0-2.94-1.07-2.94-3.15v-30.21h-5.43v30.53c0,4,2.24,7.47,7.41,7.47H573.26z
				 M555.06,304.79h-5.82c-0.91,3.85-3.52,6.52-7.74,6.52c-2.24,0-4.27-0.85-5.6-2.3c-1.87-2.03-2.3-4.22-2.3-11.85
				c0-7.64,0.43-9.83,2.3-11.86c1.33-1.44,3.36-2.29,5.6-2.29c4.22,0,6.78,2.67,7.69,6.51h5.87c-1.33-7.58-6.56-11.69-13.56-11.69
				c-3.95,0-7.37,1.44-9.98,4.05c-3.73,3.74-3.68,7.96-3.68,15.27c0,7.31-0.05,11.53,3.68,15.27c2.61,2.61,6.03,4.05,9.98,4.05
				C548.39,316.48,553.78,312.37,555.06,304.79 M510.54,274.21h-5.23l-15.22,45.9h5.23L510.54,274.21z M467.79,289.31
				c0,4.11-2.4,6.57-5.82,6.57c-3.63,0-5.77-2.83-5.77-6.57c0-4.06,2.35-6.62,5.77-6.62S467.79,285.25,467.79,289.31 M473.23,289.2
				c0-7.05-4.69-11.37-11.26-11.37c-6.57,0-11.2,4.59-11.2,11.58c0,6.68,4.42,11,9.92,11c1.17,0,2.4-0.16,3.42-0.59l-8.17,16.33
				h5.82l8.65-17.62C472.05,295.24,473.23,292.3,473.23,289.2 M425.61,300.42h-12.17c0.06-1.66,0.16-2.46,0.7-3.69
				c0.85-2.03,2.83-3.42,5.39-3.42c2.56,0,4.48,1.39,5.34,3.42C425.4,297.96,425.56,298.76,425.61,300.42 M431.01,304.2v-2.4
				c0-7.69-4.22-13.02-11.48-13.02c-6.94,0-11.47,5.06-11.47,13.82c0,10.3,5.38,13.87,12.17,13.87c4.75,0,7.37-1.44,10.14-4.21
				l-3.47-3.26c-1.92,1.92-3.52,2.78-6.56,2.78c-4.43,0-6.89-2.94-6.89-7.59H431.01z M402.29,307.89c0-4.8-2.99-7.21-8.06-7.64
				l-4.27-0.37c-2.88-0.27-3.74-1.49-3.74-3.1c0-2.03,1.65-3.47,4.91-3.47c2.56,0,4.96,0.53,6.67,1.98l3.42-3.47
				c-2.51-2.19-5.98-3.03-10.04-3.03c-5.66,0-10.19,2.98-10.19,8.27c0,4.75,2.93,7.05,8.01,7.48l4.32,0.37
				c2.62,0.21,3.63,1.39,3.63,3.2c0,2.57-2.61,3.74-5.92,3.74c-2.67,0-5.61-0.59-7.79-2.83l-3.58,3.58
				c3.2,3.14,6.94,3.89,11.37,3.89C397.48,316.48,402.29,313.55,402.29,307.89 M375.44,307.89c0-4.8-2.99-7.21-8.06-7.64l-4.27-0.37
				c-2.88-0.27-3.74-1.49-3.74-3.1c0-2.03,1.66-3.47,4.91-3.47c2.56,0,4.97,0.53,6.68,1.98l3.42-3.47
				c-2.51-2.19-5.98-3.03-10.04-3.03c-5.66,0-10.2,2.98-10.2,8.27c0,4.75,2.94,7.05,8.01,7.48l4.33,0.37
				c2.61,0.21,3.63,1.39,3.63,3.2c0,2.57-2.62,3.74-5.93,3.74c-2.67,0-5.6-0.59-7.79-2.83l-3.57,3.58c3.2,3.14,6.94,3.89,11.37,3.89
				C370.63,316.48,375.44,313.55,375.44,307.89 M341.06,306.39c0,1.92-0.37,3.2-1.17,4.01c-1.44,1.39-2.99,1.55-5.07,1.55
				c-3.42,0-4.97-1.39-4.97-3.85c0-2.46,1.66-3.9,4.86-3.9h6.36V306.39z M346.5,316.16v-18.09c0-6.14-3.73-9.28-11.15-9.28
				c-4.48,0-7.15,0.9-9.71,3.89l3.57,3.37c1.49-1.92,2.94-2.62,5.93-2.62c4.22,0,5.93,1.66,5.93,5.07v1.93h-7.15
				c-6.19,0-9.34,3.25-9.34,7.79c0,2.3,0.75,4.38,2.14,5.82c1.65,1.65,3.89,2.45,7.25,2.45c3.37,0,5.24-0.8,7.21-2.77v2.45H346.5z
				 M320.08,316.16v-4.64h-2.4c-2.19,0-2.93-1.07-2.93-3.15v-30.21h-5.44v30.53c0,4,2.24,7.47,7.41,7.47H320.08z M304.06,316.16
				l-13.62-23.11l12.33-14.89h-7.05l-15.54,19.11v-19.11h-5.75v38h5.75v-11.05l6.41-7.69l10.68,18.73H304.06z"/>
		</g>
		<g style="clip-path:url(#SVGID_00000046336827205903044640000001186294103314317461_);">
			<path class="st3" d="M749.69,188.55c0,3.69-2.08,6.2-5.56,6.2c-3.47,0-5.5-2.51-5.5-6.2v-16.55c0-3.69,2.03-6.19,5.5-6.19
				c3.47,0,5.56,2.51,5.56,6.19V188.55z M755.13,188.72v-16.87c0-6.78-4.96-10.88-11-10.88s-10.93,4.11-10.93,10.88v16.87
				c0,6.78,4.9,10.88,10.93,10.88S755.13,195.5,755.13,188.72 M719.9,199.28v-38h-5.44l-7.42,6.41v6.03l7.42-6.51v32.07H719.9z
				 M678.79,183.54h-12.17c0.06-1.66,0.16-2.46,0.7-3.69c0.85-2.03,2.83-3.42,5.39-3.42s4.48,1.39,5.34,3.42
				C678.58,181.08,678.74,181.88,678.79,183.54 M684.19,187.32v-2.4c0-7.69-4.22-13.02-11.48-13.02c-6.94,0-11.47,5.06-11.47,13.82
				c0,10.3,5.38,13.87,12.17,13.87c4.75,0,7.37-1.44,10.14-4.21l-3.47-3.26c-1.92,1.92-3.52,2.78-6.56,2.78
				c-4.43,0-6.89-2.94-6.89-7.59H684.19z M655.47,191.01c0-4.8-2.99-7.21-8.06-7.64l-4.27-0.37c-2.88-0.27-3.74-1.49-3.74-3.1
				c0-2.03,1.65-3.47,4.91-3.47c2.56,0,4.96,0.53,6.67,1.98l3.42-3.47c-2.51-2.19-5.98-3.03-10.04-3.03
				c-5.66,0-10.19,2.98-10.19,8.27c0,4.75,2.93,7.05,8.01,7.48l4.32,0.37c2.62,0.21,3.63,1.39,3.63,3.2c0,2.57-2.61,3.74-5.92,3.74
				c-2.67,0-5.61-0.59-7.79-2.83l-3.58,3.58c3.2,3.14,6.94,3.89,11.37,3.89C650.66,199.6,655.47,196.67,655.47,191.01
				 M628.62,191.01c0-4.8-2.99-7.21-8.06-7.64l-4.27-0.37c-2.88-0.27-3.74-1.49-3.74-3.1c0-2.03,1.66-3.47,4.91-3.47
				c2.56,0,4.97,0.53,6.68,1.98l3.42-3.47c-2.51-2.19-5.98-3.03-10.04-3.03c-5.66,0-10.2,2.98-10.2,8.27c0,4.75,2.94,7.05,8.01,7.48
				l4.33,0.37c2.61,0.21,3.63,1.39,3.63,3.2c0,2.57-2.62,3.74-5.93,3.74c-2.67,0-5.6-0.59-7.79-2.83l-3.57,3.58
				c3.2,3.14,6.94,3.89,11.37,3.89C623.82,199.6,628.62,196.67,628.62,191.01 M594.24,189.52c0,1.92-0.37,3.2-1.17,4.01
				c-1.44,1.39-2.99,1.55-5.07,1.55c-3.42,0-4.97-1.39-4.97-3.85c0-2.46,1.66-3.9,4.86-3.9h6.36V189.52z M599.68,199.28v-18.09
				c0-6.14-3.73-9.28-11.15-9.28c-4.48,0-7.15,0.9-9.71,3.89l3.57,3.37c1.49-1.92,2.94-2.62,5.93-2.62c4.22,0,5.93,1.66,5.93,5.07
				v1.93h-7.15c-6.19,0-9.34,3.25-9.34,7.79c0,2.3,0.75,4.38,2.13,5.82c1.66,1.65,3.89,2.45,7.26,2.45c3.37,0,5.24-0.8,7.21-2.77
				v2.45H599.68z M573.26,199.28v-4.64h-2.4c-2.19,0-2.93-1.07-2.93-3.15v-30.21h-5.44v30.53c0,4,2.24,7.47,7.41,7.47H573.26z
				 M555.06,187.91h-5.82c-0.91,3.85-3.52,6.52-7.74,6.52c-2.24,0-4.27-0.85-5.6-2.3c-1.87-2.03-2.3-4.22-2.3-11.85
				c0-7.64,0.43-9.83,2.3-11.86c1.33-1.44,3.36-2.29,5.6-2.29c4.22,0,6.78,2.67,7.69,6.51h5.87c-1.33-7.58-6.56-11.69-13.56-11.69
				c-3.95,0-7.37,1.44-9.98,4.05c-3.73,3.74-3.67,7.96-3.67,15.27c0,7.31-0.06,11.53,3.67,15.27c2.61,2.61,6.03,4.05,9.98,4.05
				C548.39,199.6,553.77,195.49,555.06,187.91 M510.54,157.33h-5.23l-15.21,45.9h5.23L510.54,157.33z M467.52,188.55
				c0,3.69-2.08,6.2-5.56,6.2c-3.47,0-5.5-2.51-5.5-6.2v-16.55c0-3.69,2.03-6.19,5.5-6.19c3.47,0,5.56,2.51,5.56,6.19V188.55z
				 M472.96,188.72v-16.87c0-6.78-4.96-10.88-11-10.88c-6.03,0-10.93,4.11-10.93,10.88v16.87c0,6.78,4.9,10.88,10.93,10.88
				C468,199.6,472.96,195.5,472.96,188.72 M437.73,199.28v-38h-5.44l-7.42,6.41v6.03l7.42-6.51v32.07H437.73z M396.63,183.54h-12.17
				c0.06-1.66,0.16-2.46,0.7-3.69c0.85-2.03,2.83-3.42,5.39-3.42c2.56,0,4.48,1.39,5.34,3.42
				C396.41,181.08,396.58,181.88,396.63,183.54 M402.02,187.32v-2.4c0-7.69-4.22-13.02-11.48-13.02c-6.94,0-11.47,5.06-11.47,13.82
				c0,10.3,5.38,13.87,12.17,13.87c4.75,0,7.37-1.44,10.14-4.21l-3.47-3.26c-1.92,1.92-3.52,2.78-6.56,2.78
				c-4.43,0-6.89-2.94-6.89-7.59H402.02z M373.3,191.01c0-4.8-2.99-7.21-8.06-7.64l-4.27-0.37c-2.88-0.27-3.74-1.49-3.74-3.1
				c0-2.03,1.65-3.47,4.91-3.47c2.56,0,4.96,0.53,6.67,1.98l3.42-3.47c-2.51-2.19-5.98-3.03-10.04-3.03
				c-5.66,0-10.19,2.98-10.19,8.27c0,4.75,2.93,7.05,8.01,7.48l4.32,0.37c2.62,0.21,3.63,1.39,3.63,3.2c0,2.57-2.61,3.74-5.92,3.74
				c-2.67,0-5.61-0.59-7.79-2.83l-3.58,3.58c3.2,3.14,6.94,3.89,11.37,3.89C368.5,199.6,373.3,196.67,373.3,191.01 M346.45,191.01
				c0-4.8-2.99-7.21-8.06-7.64l-4.27-0.37c-2.88-0.27-3.74-1.49-3.74-3.1c0-2.03,1.66-3.47,4.91-3.47c2.56,0,4.97,0.53,6.68,1.98
				l3.42-3.47c-2.51-2.19-5.98-3.03-10.04-3.03c-5.66,0-10.2,2.98-10.2,8.27c0,4.75,2.94,7.05,8.01,7.48l4.33,0.37
				c2.61,0.21,3.63,1.39,3.63,3.2c0,2.57-2.62,3.74-5.93,3.74c-2.67,0-5.6-0.59-7.79-2.83l-3.57,3.58c3.2,3.14,6.94,3.89,11.37,3.89
				C341.65,199.6,346.45,196.67,346.45,191.01 M312.08,189.52c0,1.92-0.37,3.2-1.17,4.01c-1.44,1.39-2.99,1.55-5.07,1.55
				c-3.42,0-4.97-1.39-4.97-3.85c0-2.46,1.66-3.9,4.86-3.9h6.36V189.52z M317.51,199.28v-18.09c0-6.14-3.73-9.28-11.15-9.28
				c-4.48,0-7.15,0.9-9.71,3.89l3.57,3.37c1.49-1.92,2.94-2.62,5.93-2.62c4.22,0,5.93,1.66,5.93,5.07v1.93h-7.15
				c-6.19,0-9.34,3.25-9.34,7.79c0,2.3,0.75,4.38,2.14,5.82c1.65,1.65,3.89,2.45,7.25,2.45c3.37,0,5.24-0.8,7.21-2.77v2.45H317.51z
				 M291.09,199.28v-4.64h-2.4c-2.19,0-2.93-1.07-2.93-3.15v-30.21h-5.44v30.53c0,4,2.24,7.47,7.41,7.47H291.09z M275.08,199.28
				l-13.62-23.11l12.33-14.89h-7.05l-15.54,19.11v-19.11h-5.75v38h5.75v-11.05l6.41-7.69l10.68,18.73H275.08z"/>
		</g>
		<g style="clip-path:url(#SVGID_00000046336827205903044640000001186294103314317461_);">
			<path class="st3" d="M726.52,770.97c0-3.58-0.43-7.27-3.31-10.14c-1.55-1.55-3.84-2.46-6.83-2.46c-2.78,0-5.02,0.85-6.3,2.19
				v-10.04h15.59v-4.85h-20.49v20.76h4.96c0.59-1.87,2.3-3.42,5.39-3.42c4.38,0,5.56,3.42,5.56,7.96c0,2.56-0.21,5.07-1.81,6.68
				c-0.97,0.96-2.35,1.49-3.96,1.49c-3.42,0-5.12-1.92-5.55-5.29h-5.44c0.21,2.72,0.85,5.23,2.88,7.26
				c1.65,1.65,4.48,2.93,8.11,2.93c3.69,0,6.3-1.28,8.01-2.98C726.09,778.28,726.52,775.02,726.52,770.97 M678.8,767.93h-12.17
				c0.05-1.66,0.16-2.46,0.69-3.69c0.85-2.03,2.83-3.42,5.39-3.42c2.56,0,4.48,1.39,5.34,3.42
				C678.58,765.47,678.74,766.27,678.8,767.93 M684.18,771.71v-2.4c0-7.69-4.21-13.02-11.47-13.02c-6.94,0-11.47,5.06-11.47,13.82
				c0,10.31,5.39,13.88,12.17,13.88c4.75,0,7.37-1.44,10.14-4.21l-3.47-3.26c-1.92,1.92-3.52,2.78-6.57,2.78
				c-4.43,0-6.88-2.94-6.88-7.59H684.18z M655.47,775.39c0-4.8-2.99-7.21-8.06-7.64l-4.27-0.37c-2.88-0.27-3.74-1.49-3.74-3.1
				c0-2.03,1.66-3.47,4.91-3.47c2.56,0,4.97,0.53,6.68,1.98l3.42-3.47c-2.51-2.19-5.98-3.03-10.04-3.03c-5.66,0-10.2,2.98-10.2,8.27
				c0,4.75,2.94,7.05,8.01,7.48l4.33,0.37c2.61,0.21,3.63,1.39,3.63,3.2c0,2.57-2.62,3.74-5.93,3.74c-2.67,0-5.6-0.59-7.79-2.83
				l-3.57,3.57c3.2,3.15,6.94,3.89,11.37,3.89C650.67,783.99,655.47,781.05,655.47,775.39 M628.62,775.39c0-4.8-2.99-7.21-8.06-7.64
				l-4.27-0.37c-2.88-0.27-3.74-1.49-3.74-3.1c0-2.03,1.65-3.47,4.91-3.47c2.56,0,4.96,0.53,6.67,1.98l3.42-3.47
				c-2.51-2.19-5.98-3.03-10.04-3.03c-5.66,0-10.19,2.98-10.19,8.27c0,4.75,2.93,7.05,8.01,7.48l4.32,0.37
				c2.62,0.21,3.63,1.39,3.63,3.2c0,2.57-2.61,3.74-5.92,3.74c-2.67,0-5.61-0.59-7.79-2.83l-3.58,3.57
				c3.2,3.15,6.94,3.89,11.37,3.89C623.81,783.99,628.62,781.05,628.62,775.39 M594.25,773.9c0,1.92-0.37,3.2-1.17,4.01
				c-1.44,1.39-2.99,1.55-5.07,1.55c-3.42,0-4.97-1.39-4.97-3.85c0-2.46,1.66-3.9,4.86-3.9h6.36V773.9z M599.68,783.67v-18.09
				c0-6.14-3.73-9.28-11.15-9.28c-4.49,0-7.15,0.9-9.72,3.89l3.57,3.37c1.49-1.92,2.94-2.62,5.93-2.62c4.22,0,5.93,1.66,5.93,5.07
				v1.93h-7.16c-6.19,0-9.33,3.25-9.33,7.79c0,2.3,0.74,4.38,2.13,5.82c1.65,1.65,3.89,2.45,7.26,2.45s5.23-0.8,7.21-2.77v2.45
				H599.68z M573.26,783.67v-4.64h-2.4c-2.19,0-2.94-1.07-2.94-3.15v-30.21h-5.43v30.53c0,4,2.24,7.47,7.41,7.47H573.26z
				 M555.06,772.3h-5.82c-0.91,3.85-3.52,6.52-7.74,6.52c-2.24,0-4.27-0.85-5.6-2.3c-1.87-2.03-2.3-4.22-2.3-11.85
				c0-7.64,0.43-9.83,2.3-11.86c1.33-1.44,3.36-2.3,5.6-2.3c4.22,0,6.78,2.67,7.69,6.52h5.87c-1.33-7.58-6.56-11.69-13.56-11.69
				c-3.95,0-7.37,1.44-9.98,4.05c-3.73,3.74-3.68,7.96-3.68,15.27c0,7.31-0.05,11.53,3.68,15.27c2.61,2.61,6.03,4.05,9.98,4.05
				C548.39,783.99,553.78,779.88,555.06,772.3 M510.54,741.71h-5.23l-15.22,45.9h5.23L510.54,741.71z M473.33,770.97
				c0-3.58-0.43-7.27-3.3-10.14c-1.55-1.55-3.84-2.46-6.83-2.46c-2.78,0-5.02,0.85-6.3,2.19v-10.04h15.59v-4.85h-20.49v20.76h4.96
				c0.59-1.87,2.3-3.42,5.4-3.42c4.38,0,5.55,3.42,5.55,7.96c0,2.56-0.21,5.07-1.81,6.68c-0.96,0.96-2.35,1.49-3.95,1.49
				c-3.42,0-5.13-1.92-5.56-5.29h-5.44c0.21,2.72,0.85,5.23,2.88,7.26c1.65,1.65,4.48,2.93,8.11,2.93c3.68,0,6.3-1.28,8.01-2.98
				C472.91,778.28,473.33,775.02,473.33,770.97 M425.61,767.93h-12.17c0.06-1.66,0.16-2.46,0.7-3.69c0.85-2.03,2.83-3.42,5.39-3.42
				c2.56,0,4.48,1.39,5.34,3.42C425.4,765.47,425.56,766.27,425.61,767.93 M431.01,771.71v-2.4c0-7.69-4.22-13.02-11.48-13.02
				c-6.94,0-11.47,5.06-11.47,13.82c0,10.31,5.38,13.88,12.17,13.88c4.75,0,7.37-1.44,10.14-4.21l-3.47-3.26
				c-1.92,1.92-3.52,2.78-6.56,2.78c-4.43,0-6.89-2.94-6.89-7.59H431.01z M402.29,775.39c0-4.8-2.99-7.21-8.06-7.64l-4.27-0.37
				c-2.88-0.27-3.74-1.49-3.74-3.1c0-2.03,1.65-3.47,4.91-3.47c2.56,0,4.96,0.53,6.67,1.98l3.42-3.47
				c-2.51-2.19-5.98-3.03-10.04-3.03c-5.66,0-10.19,2.98-10.19,8.27c0,4.75,2.93,7.05,8.01,7.48l4.32,0.37
				c2.62,0.21,3.63,1.39,3.63,3.2c0,2.57-2.61,3.74-5.92,3.74c-2.67,0-5.61-0.59-7.79-2.83l-3.58,3.57
				c3.2,3.15,6.94,3.89,11.37,3.89C397.48,783.99,402.29,781.05,402.29,775.39 M375.44,775.39c0-4.8-2.99-7.21-8.06-7.64l-4.27-0.37
				c-2.88-0.27-3.74-1.49-3.74-3.1c0-2.03,1.66-3.47,4.91-3.47c2.56,0,4.97,0.53,6.68,1.98l3.42-3.47
				c-2.51-2.19-5.98-3.03-10.04-3.03c-5.66,0-10.2,2.98-10.2,8.27c0,4.75,2.94,7.05,8.01,7.48l4.33,0.37
				c2.61,0.21,3.63,1.39,3.63,3.2c0,2.57-2.62,3.74-5.93,3.74c-2.67,0-5.6-0.59-7.79-2.83l-3.57,3.57c3.2,3.15,6.94,3.89,11.37,3.89
				C370.63,783.99,375.44,781.05,375.44,775.39 M341.06,773.9c0,1.92-0.37,3.2-1.17,4.01c-1.44,1.39-2.99,1.55-5.07,1.55
				c-3.42,0-4.97-1.39-4.97-3.85c0-2.46,1.66-3.9,4.86-3.9h6.36V773.9z M346.5,783.67v-18.09c0-6.14-3.73-9.28-11.15-9.28
				c-4.48,0-7.15,0.9-9.71,3.89l3.57,3.37c1.49-1.92,2.94-2.62,5.93-2.62c4.22,0,5.93,1.66,5.93,5.07v1.93h-7.15
				c-6.19,0-9.34,3.25-9.34,7.79c0,2.3,0.75,4.38,2.14,5.82c1.65,1.65,3.89,2.45,7.25,2.45c3.37,0,5.24-0.8,7.21-2.77v2.45H346.5z
				 M320.08,783.67v-4.64h-2.4c-2.19,0-2.93-1.07-2.93-3.15v-30.21h-5.44v30.53c0,4,2.24,7.47,7.41,7.47H320.08z M304.06,783.67
				l-13.62-23.11l12.33-14.89h-7.05l-15.54,19.11v-19.11h-5.75v38h5.75v-11.05l6.41-7.69l10.68,18.73H304.06z"/>
		</g>
	</g>
	<g>
		<polygon class="st4" points="20.73,755.85 36.8,755.85 28.77,745.23 		"/>
	</g>
	<g>
		<polygon class="st4" points="20.73,776.99 36.8,776.99 28.77,766.36 		"/>
	</g>
	<g>
		<polygon class="st4" points="20.73,798.12 36.8,798.12 28.77,787.5 		"/>
	</g>
	<g>
		<polygon class="st4" points="20.73,734.72 36.8,734.72 28.77,724.09 		"/>
	</g>
	<g>
		<polygon class="st4" points="20.73,640.38 36.8,640.38 28.77,629.75 		"/>
	</g>
	<g>
		<polygon class="st4" points="20.73,661.51 36.8,661.51 28.77,650.89 		"/>
	</g>
	<g>
		<polygon class="st4" points="20.73,682.65 36.8,682.65 28.77,672.02 		"/>
	</g>
	<g>
		<polygon class="st4" points="20.73,619.24 36.8,619.24 28.77,608.62 		"/>
	</g>
	<g>
		<polygon class="st4" points="20.73,520.69 36.8,520.69 28.77,510.07 		"/>
	</g>
	<g>
		<polygon class="st4" points="20.73,541.83 36.8,541.83 28.77,531.2 		"/>
	</g>
	<g>
		<polygon class="st4" points="20.73,562.96 36.8,562.96 28.77,552.34 		"/>
	</g>
	<g>
		<polygon class="st4" points="20.73,499.56 36.8,499.56 28.77,488.93 		"/>
	</g>
	<g>
		<polygon class="st4" points="20.73,402.41 36.8,402.41 28.77,391.78 		"/>
	</g>
	<g>
		<polygon class="st4" points="20.73,423.54 36.8,423.54 28.77,412.92 		"/>
	</g>
	<g>
		<polygon class="st4" points="20.73,444.68 36.8,444.68 28.77,434.05 		"/>
	</g>
	<g>
		<polygon class="st4" points="20.73,381.27 36.8,381.27 28.77,370.65 		"/>
	</g>
	<g>
		<polygon class="st4" points="20.73,286.94 36.8,286.94 28.77,276.31 		"/>
	</g>
	<g>
		<polygon class="st4" points="20.73,308.07 36.8,308.07 28.77,297.45 		"/>
	</g>
	<g>
		<polygon class="st4" points="20.73,329.21 36.8,329.21 28.77,318.58 		"/>
	</g>
	<g>
		<polygon class="st4" points="20.73,265.8 36.8,265.8 28.77,255.18 		"/>
	</g>
	<g>
		<polygon class="st4" points="20.73,170.06 36.8,170.06 28.77,159.44 		"/>
	</g>
	<g>
		<polygon class="st4" points="20.73,191.2 36.8,191.2 28.77,180.57 		"/>
	</g>
	<g>
		<polygon class="st4" points="20.73,212.33 36.8,212.33 28.77,201.71 		"/>
	</g>
	<g>
		<polygon class="st4" points="20.73,148.93 36.8,148.93 28.77,138.3 		"/>
	</g>
</g>
</svg>
