<?xml version="1.0" encoding="UTF-8"?> <svg xmlns="http://www.w3.org/2000/svg" xmlns:xlink="http://www.w3.org/1999/xlink" version="1.1" id="Ebene_1" x="0px" y="0px" viewBox="0 0 186 195" style="enable-background:new 0 0 186 195;" xml:space="preserve"> <style type="text/css"> .st0{fill:#93B1DD;} .st1{fill:#6093CD;} .st2{fill:none;stroke:#2A2C68;stroke-width:0.6;stroke-linejoin:round;} .st3{fill:#FFFFFF;} .st4{font-family:'DINPro-Bold';} .st5{font-size:13px;} .st6{fill:#2A2C68;} .st7{font-family:'DINPro-Medium';} .st8{font-size:9.5px;} </style> <g id="Layer-1_4_"> <path class="st0" d="M3.7,188.6h8.6V23.8H3.7V188.6z"></path> </g> <g id="Layer-1_7_"> <path class="st1" d="M3.7,25.2h176.7V3H3.7V25.2z"></path> </g> <g id="Layer-1_9_"> <path class="st2" d="M3.2,189.1h177.2V3.3H3.2V189.1z"></path> </g> <g id="Layer-1_14_"> <text transform="matrix(1 0 0 1 20.4867 17.162)" class="st3 st4 st5">H</text> <text transform="matrix(1 0 0 1 29.6517 17.162)" class="st3 st4 st5">o</text> <text transform="matrix(1 0 0 1 36.9707 17.162)" class="st3 st4 st5">c</text> <text transform="matrix(1 0 0 1 43.4707 17.162)" class="st3 st4 st5">h</text> <text transform="matrix(1 0 0 1 51.1797 17.162)" class="st3 st4 st5">s</text> <text transform="matrix(1 0 0 1 57.9527 17.162)" class="st3 st4 st5">c</text> <text transform="matrix(1 0 0 1 64.4527 17.162)" class="st3 st4 st5">h</text> <text transform="matrix(1 0 0 1 72.1617 17.162)" class="st3 st4 st5">u</text> <text transform="matrix(1 0 0 1 79.8707 17.162)" class="st3 st4 st5">l</text> <text transform="matrix(1 0 0 1 84.3557 17.162)" class="st3 st4 st5">r</text> <text transform="matrix(1 0 0 1 90.1407 17.162)" class="st3 st4 st5">e</text> <text transform="matrix(1 0 0 1 97.5247 17.162)" class="st3 st4 st5">i</text> <text transform="matrix(1 0 0 1 101.3597 17.162)" class="st3 st4 st5">f</text> <text transform="matrix(1 0 0 1 105.8707 17.162)" class="st3 st4 st5">e</text> <text transform="matrix(1 0 0 1 113.2547 17.162)" class="st3 st4 st5"> </text> <text transform="matrix(1 0 0 1 116.5307 17.162)" class="st3 st4 st5">(</text> <text transform="matrix(1 0 0 1 121.1587 17.162)" class="st3 st4 st5">A</text> <text transform="matrix(1 0 0 1 129.7127 17.162)" class="st3 st4 st5">b</text> <text transform="matrix(1 0 0 1 137.2527 17.162)" class="st3 st4 st5">i</text> <text transform="matrix(1 0 0 1 141.0877 17.162)" class="st3 st4 st5">t</text> <text transform="matrix(1 0 0 1 145.9237 17.162)" class="st3 st4 st5">u</text> <text transform="matrix(1 0 0 1 153.6327 17.162)" class="st3 st4 st5">r</text> <text transform="matrix(1 0 0 1 159.8077 17.162)" class="st3 st4 st5">)</text> </g> <g id="Layer-1_17_"> <path class="st2" d="M3.5,65.5h176.7"></path> </g> <g id="Layer-1_20_"> <path class="st2" d="M3.5,44.7h176.7"></path> </g> <g id="Layer-1_22_"> <path class="st2" d="M3.5,24.9h176.7"></path> </g> <g id="Layer-1_25_"> <path class="st2" d="M3.5,85.8h176.7"></path> </g> <g id="Layer-1_28_"> <path class="st2" d="M3.5,107.6h176.7"></path> </g> <g id="Layer-1_31_"> <path class="st2" d="M3.5,128.4h176.7"></path> </g> <g id="Layer-1_32_"> <path class="st2" d="M3.5,147.5h176.7"></path> </g> <g id="Layer-1_33_"> <path class="st2" d="M3.5,168.7h176.7"></path> </g> <g id="Layer-1_34_"> <path class="st2" d="M3.5,189.1h176.7"></path> </g> <g id="Layer-1_37_"> <text transform="matrix(1 0 0 1 55.8069 122.236)" class="st6 st7 st8">K</text> <text transform="matrix(1 0 0 1 62.1529 122.236)" class="st6 st7 st8">l</text> <text transform="matrix(1 0 0 1 65.2024 122.236)" class="st6 st7 st8">a</text> <text transform="matrix(1 0 0 1 70.3324 122.236)" class="st6 st7 st8">s</text> <text transform="matrix(1 0 0 1 75.1204 122.236)" class="st6 st7 st8">s</text> <text transform="matrix(1 0 0 1 79.9559 122.236)" class="st6 st7 st8">e</text> <text transform="matrix(1 0 0 1 85.1714 122.236)" class="st6 st7 st8"> </text> <text transform="matrix(1 0 0 1 87.5464 122.236)" class="st6 st7 st8">8</text> <text transform="matrix(1 0 0 1 92.7049 122.236)" class="st6 st7 st8"> </text> <text transform="matrix(1 0 0 1 95.0799 122.236)" class="st6 st7 st8">/</text> <text transform="matrix(1 0 0 1 98.7849 122.236)" class="st6 st7 st8"> </text> <text transform="matrix(1 0 0 1 101.1599 122.236)" class="st6 st7 st8">Y</text> <text transform="matrix(1 0 0 1 105.8054 122.236)" class="st6 st7 st8">e</text> <text transform="matrix(1 0 0 1 111.0209 122.236)" class="st6 st7 st8">a</text> <text transform="matrix(1 0 0 1 116.1509 122.236)" class="st6 st7 st8">r</text> <text transform="matrix(1 0 0 1 120.4164 122.236)" class="st6 st7 st8"> </text> <text transform="matrix(1 0 0 1 122.7914 122.236)" class="st6 st7 st8">8</text> </g> <g id="Layer-1_38_"> <text transform="matrix(1 0 0 1 55.8069 162.1273)" class="st6 st7 st8">K</text> <text transform="matrix(1 0 0 1 62.1529 162.1273)" class="st6 st7 st8">l</text> <text transform="matrix(1 0 0 1 65.2024 162.1273)" class="st6 st7 st8">a</text> <text transform="matrix(1 0 0 1 70.3324 162.1273)" class="st6 st7 st8">s</text> <text transform="matrix(1 0 0 1 75.1204 162.1273)" class="st6 st7 st8">s</text> <text transform="matrix(1 0 0 1 79.9559 162.1273)" class="st6 st7 st8">e</text> <text transform="matrix(1 0 0 1 85.1714 162.1273)" class="st6 st7 st8"> </text> <text transform="matrix(1 0 0 1 87.5464 162.1273)" class="st6 st7 st8">6</text> <text transform="matrix(1 0 0 1 92.7049 162.1273)" class="st6 st7 st8"> </text> <text transform="matrix(1 0 0 1 95.0799 162.1273)" class="st6 st7 st8">/</text> <text transform="matrix(1 0 0 1 98.7849 162.1273)" class="st6 st7 st8"> </text> <text transform="matrix(1 0 0 1 101.1599 162.1273)" class="st6 st7 st8">Y</text> <text transform="matrix(1 0 0 1 105.8054 162.1273)" class="st6 st7 st8">e</text> <text transform="matrix(1 0 0 1 111.0209 162.1273)" class="st6 st7 st8">a</text> <text transform="matrix(1 0 0 1 116.1509 162.1273)" class="st6 st7 st8">r</text> <text transform="matrix(1 0 0 1 120.4164 162.1273)" class="st6 st7 st8"> </text> <text transform="matrix(1 0 0 1 122.7914 162.1273)" class="st6 st7 st8">6</text> </g> <g id="Layer-1_39_"> <text transform="matrix(1 0 0 1 55.8069 181.9273)" class="st6 st7 st8">K</text> <text transform="matrix(1 0 0 1 62.1529 181.9273)" class="st6 st7 st8">l</text> <text transform="matrix(1 0 0 1 65.2024 181.9273)" class="st6 st7 st8">a</text> <text transform="matrix(1 0 0 1 70.3324 181.9273)" class="st6 st7 st8">s</text> <text transform="matrix(1 0 0 1 75.1204 181.9273)" class="st6 st7 st8">s</text> <text transform="matrix(1 0 0 1 79.9559 181.9273)" class="st6 st7 st8">e</text> <text transform="matrix(1 0 0 1 85.1714 181.9273)" class="st6 st7 st8"> </text> <text transform="matrix(1 0 0 1 87.5464 181.9273)" class="st6 st7 st8">5</text> <text transform="matrix(1 0 0 1 92.7049 181.9273)" class="st6 st7 st8"> </text> <text transform="matrix(1 0 0 1 95.0799 181.9273)" class="st6 st7 st8">/</text> <text transform="matrix(1 0 0 1 98.7849 181.9273)" class="st6 st7 st8"> </text> <text transform="matrix(1 0 0 1 101.1599 181.9273)" class="st6 st7 st8">Y</text> <text transform="matrix(1 0 0 1 105.8054 181.9273)" class="st6 st7 st8">e</text> <text transform="matrix(1 0 0 1 111.0209 181.9273)" class="st6 st7 st8">a</text> <text transform="matrix(1 0 0 1 116.1509 181.9273)" class="st6 st7 st8">r</text> <text transform="matrix(1 0 0 1 120.4164 181.9273)" class="st6 st7 st8"> </text> <text transform="matrix(1 0 0 1 122.7914 181.9273)" class="st6 st7 st8">5</text> </g> <g id="Layer-1_42_"> <text transform="matrix(1 0 0 1 55.8069 100.436)" class="st6 st7 st8">K</text> <text transform="matrix(1 0 0 1 62.1529 100.436)" class="st6 st7 st8">l</text> <text transform="matrix(1 0 0 1 65.2024 100.436)" class="st6 st7 st8">a</text> <text transform="matrix(1 0 0 1 70.3324 100.436)" class="st6 st7 st8">s</text> <text transform="matrix(1 0 0 1 75.1204 100.436)" class="st6 st7 st8">s</text> <text transform="matrix(1 0 0 1 79.9559 100.436)" class="st6 st7 st8">e</text> <text transform="matrix(1 0 0 1 85.1714 100.436)" class="st6 st7 st8"> </text> <text transform="matrix(1 0 0 1 87.5464 100.436)" class="st6 st7 st8">9</text> <text transform="matrix(1 0 0 1 92.7049 100.436)" class="st6 st7 st8"> </text> <text transform="matrix(1 0 0 1 95.0799 100.436)" class="st6 st7 st8">/</text> <text transform="matrix(1 0 0 1 98.7849 100.436)" class="st6 st7 st8"> </text> <text transform="matrix(1 0 0 1 101.1599 100.436)" class="st6 st7 st8">Y</text> <text transform="matrix(1 0 0 1 105.8054 100.436)" class="st6 st7 st8">e</text> <text transform="matrix(1 0 0 1 111.0209 100.436)" class="st6 st7 st8">a</text> <text transform="matrix(1 0 0 1 116.1509 100.436)" class="st6 st7 st8">r</text> <text transform="matrix(1 0 0 1 120.4164 100.436)" class="st6 st7 st8"> </text> <text transform="matrix(1 0 0 1 122.7914 100.436)" class="st6 st7 st8">9</text> </g> <g id="Layer-1_45_"> <text transform="matrix(1 0 0 1 50.6485 79.636)" class="st6 st7 st8">K</text> <text transform="matrix(1 0 0 1 56.9945 79.636)" class="st6 st7 st8">l</text> <text transform="matrix(1 0 0 1 60.044 79.636)" class="st6 st7 st8">a</text> <text transform="matrix(1 0 0 1 65.174 79.636)" class="st6 st7 st8">s</text> <text transform="matrix(1 0 0 1 69.962 79.636)" class="st6 st7 st8">s</text> <text transform="matrix(1 0 0 1 74.7975 79.636)" class="st6 st7 st8">e</text> <text transform="matrix(1 0 0 1 80.013 79.636)" class="st6 st7 st8"> </text> <text transform="matrix(1 0 0 1 82.388 79.636)" class="st6 st7 st8">1</text> <text transform="matrix(1 0 0 1 87.5465 79.636)" class="st6 st7 st8">0</text> <text transform="matrix(1 0 0 1 92.705 79.636)" class="st6 st7 st8"> </text> <text transform="matrix(1 0 0 1 95.08 79.636)" class="st6 st7 st8">/</text> <text transform="matrix(1 0 0 1 98.785 79.636)" class="st6 st7 st8"> </text> <text transform="matrix(1 0 0 1 101.16 79.636)" class="st6 st7 st8">Y</text> <text transform="matrix(1 0 0 1 105.8055 79.636)" class="st6 st7 st8">e</text> <text transform="matrix(1 0 0 1 111.021 79.636)" class="st6 st7 st8">a</text> <text transform="matrix(1 0 0 1 116.151 79.636)" class="st6 st7 st8">r</text> <text transform="matrix(1 0 0 1 120.4165 79.636)" class="st6 st7 st8"> </text> <text transform="matrix(1 0 0 1 122.7915 79.636)" class="st6 st7 st8">1</text> <text transform="matrix(1 0 0 1 127.95 79.636)" class="st6 st7 st8">0</text> </g> <g id="Layer-1_48_"> <text transform="matrix(1 0 0 1 50.6485 58.836)" class="st6 st7 st8">K</text> <text transform="matrix(1 0 0 1 56.9945 58.836)" class="st6 st7 st8">l</text> <text transform="matrix(1 0 0 1 60.044 58.836)" class="st6 st7 st8">a</text> <text transform="matrix(1 0 0 1 65.174 58.836)" class="st6 st7 st8">s</text> <text transform="matrix(1 0 0 1 69.962 58.836)" class="st6 st7 st8">s</text> <text transform="matrix(1 0 0 1 74.7975 58.836)" class="st6 st7 st8">e</text> <text transform="matrix(1 0 0 1 80.013 58.836)" class="st6 st7 st8"> </text> <text transform="matrix(1 0 0 1 82.388 58.836)" class="st6 st7 st8">1</text> <text transform="matrix(1 0 0 1 87.5465 58.836)" class="st6 st7 st8">1</text> <text transform="matrix(1 0 0 1 92.705 58.836)" class="st6 st7 st8"> </text> <text transform="matrix(1 0 0 1 95.08 58.836)" class="st6 st7 st8">/</text> <text transform="matrix(1 0 0 1 98.785 58.836)" class="st6 st7 st8"> </text> <text transform="matrix(1 0 0 1 101.16 58.836)" class="st6 st7 st8">Y</text> <text transform="matrix(1 0 0 1 105.8055 58.836)" class="st6 st7 st8">e</text> <text transform="matrix(1 0 0 1 111.021 58.836)" class="st6 st7 st8">a</text> <text transform="matrix(1 0 0 1 116.151 58.836)" class="st6 st7 st8">r</text> <text transform="matrix(1 0 0 1 120.4165 58.836)" class="st6 st7 st8"> </text> <text transform="matrix(1 0 0 1 122.7915 58.836)" class="st6 st7 st8">1</text> <text transform="matrix(1 0 0 1 127.95 58.836)" class="st6 st7 st8">1</text> </g> <g id="Layer-1_51_"> <text transform="matrix(1 0 0 1 50.6485 38.036)" class="st6 st7 st8">K</text> <text transform="matrix(1 0 0 1 56.9945 38.036)" class="st6 st7 st8">l</text> <text transform="matrix(1 0 0 1 60.044 38.036)" class="st6 st7 st8">a</text> <text transform="matrix(1 0 0 1 65.174 38.036)" class="st6 st7 st8">s</text> <text transform="matrix(1 0 0 1 69.962 38.036)" class="st6 st7 st8">s</text> <text transform="matrix(1 0 0 1 74.7975 38.036)" class="st6 st7 st8">e</text> <text transform="matrix(1 0 0 1 80.013 38.036)" class="st6 st7 st8"> </text> <text transform="matrix(1 0 0 1 82.388 38.036)" class="st6 st7 st8">1</text> <text transform="matrix(1 0 0 1 87.5465 38.036)" class="st6 st7 st8">2</text> <text transform="matrix(1 0 0 1 92.705 38.036)" class="st6 st7 st8"> </text> <text transform="matrix(1 0 0 1 95.08 38.036)" class="st6 st7 st8">/</text> <text transform="matrix(1 0 0 1 98.785 38.036)" class="st6 st7 st8"> </text> <text transform="matrix(1 0 0 1 101.16 38.036)" class="st6 st7 st8">Y</text> <text transform="matrix(1 0 0 1 105.8055 38.036)" class="st6 st7 st8">e</text> <text transform="matrix(1 0 0 1 111.021 38.036)" class="st6 st7 st8">a</text> <text transform="matrix(1 0 0 1 116.151 38.036)" class="st6 st7 st8">r</text> <text transform="matrix(1 0 0 1 120.4165 38.036)" class="st6 st7 st8"> </text> <text transform="matrix(1 0 0 1 122.7915 38.036)" class="st6 st7 st8">1</text> <text transform="matrix(1 0 0 1 127.95 38.036)" class="st6 st7 st8">2</text> </g> <g id="Layer-1_55_"> <text transform="matrix(1 0 0 1 55.8069 142.036)" class="st6 st7 st8">K</text> <text transform="matrix(1 0 0 1 62.1529 142.036)" class="st6 st7 st8">l</text> <text transform="matrix(1 0 0 1 65.2024 142.036)" class="st6 st7 st8">a</text> <text transform="matrix(1 0 0 1 70.3324 142.036)" class="st6 st7 st8">s</text> <text transform="matrix(1 0 0 1 75.1204 142.036)" class="st6 st7 st8">s</text> <text transform="matrix(1 0 0 1 79.9559 142.036)" class="st6 st7 st8">e</text> <text transform="matrix(1 0 0 1 85.1714 142.036)" class="st6 st7 st8"> </text> <text transform="matrix(1 0 0 1 87.5464 142.036)" class="st6 st7 st8">7</text> <text transform="matrix(1 0 0 1 92.7049 142.036)" class="st6 st7 st8"> </text> <text transform="matrix(1 0 0 1 95.0799 142.036)" class="st6 st7 st8">/</text> <text transform="matrix(1 0 0 1 98.7849 142.036)" class="st6 st7 st8"> </text> <text transform="matrix(1 0 0 1 101.1599 142.036)" class="st6 st7 st8">Y</text> <text transform="matrix(1 0 0 1 105.8054 142.036)" class="st6 st7 st8">e</text> <text transform="matrix(1 0 0 1 111.0209 142.036)" class="st6 st7 st8">a</text> <text transform="matrix(1 0 0 1 116.1509 142.036)" class="st6 st7 st8">r</text> <text transform="matrix(1 0 0 1 120.4164 142.036)" class="st6 st7 st8"> </text> <text transform="matrix(1 0 0 1 122.7914 142.036)" class="st6 st7 st8">7</text> </g> <g id="Layer-1_58_"> <path class="st3" d="M6.6,136.9h2.9L8.1,135L6.6,136.9z"></path> <path class="st3" d="M6.6,140.6h2.9l-1.4-1.9L6.6,140.6z"></path> <path class="st3" d="M6.6,144.4h2.9l-1.4-1.9L6.6,144.4z"></path> <path class="st3" d="M6.6,133.1h2.9l-1.4-1.9L6.6,133.1z"></path> </g> <g id="Layer-1_59_"> <path class="st3" d="M6.6,156.4h2.9l-1.4-1.9L6.6,156.4z"></path> <path class="st3" d="M6.6,160.2h2.9l-1.4-1.9L6.6,160.2z"></path> <path class="st3" d="M6.6,163.9h2.9L8.1,162L6.6,163.9z"></path> <path class="st3" d="M6.6,152.6h2.9l-1.4-1.9L6.6,152.6z"></path> </g> <g id="Layer-1_60_"> <path class="st3" d="M6.6,178.2h2.9l-1.4-1.9L6.6,178.2z"></path> <path class="st3" d="M6.6,182h2.9l-1.4-1.9L6.6,182z"></path> <path class="st3" d="M6.6,185.7h2.9l-1.4-1.9L6.6,185.7z"></path> <path class="st3" d="M6.6,174.5h2.9l-1.4-1.9L6.6,174.5z"></path> </g> <g id="Layer-1_63_"> <path class="st3" d="M6.6,117h2.9l-1.4-1.9L6.6,117z"></path> <path class="st3" d="M6.6,120.8h2.9l-1.4-1.9L6.6,120.8z"></path> <path class="st3" d="M6.6,124.6h2.9l-1.4-1.9L6.6,124.6z"></path> <path class="st3" d="M6.6,113.3h2.9l-1.4-1.9L6.6,113.3z"></path> </g> <g id="Layer-1_66_"> <path class="st3" d="M6.6,95.7h2.9l-1.4-1.9L6.6,95.7z"></path> <path class="st3" d="M6.6,99.5h2.9l-1.4-1.9L6.6,99.5z"></path> <path class="st3" d="M6.6,103.3h2.9l-1.4-1.9L6.6,103.3z"></path> <path class="st3" d="M6.6,92h2.9l-1.4-1.9L6.6,92z"></path> </g> <g id="Layer-1_69_"> <path class="st3" d="M6.6,74.7h2.9l-1.4-1.9L6.6,74.7z"></path> <path class="st3" d="M6.6,78.4h2.9l-1.4-1.9L6.6,78.4z"></path> <path class="st3" d="M6.6,82.2h2.9l-1.4-1.9L6.6,82.2z"></path> <path class="st3" d="M6.6,70.9h2.9L8.1,69L6.6,70.9z"></path> </g> <g id="Layer-1_72_"> <path class="st3" d="M6.6,54.1h2.9l-1.4-1.9L6.6,54.1z"></path> <path class="st3" d="M6.6,57.9h2.9L8.1,56L6.6,57.9z"></path> <path class="st3" d="M6.6,61.7h2.9l-1.4-1.9L6.6,61.7z"></path> <path class="st3" d="M6.6,50.4h2.9l-1.4-1.9L6.6,50.4z"></path> </g> <g id="Layer-1_75_"> <path class="st3" d="M6.6,33.3h2.9l-1.4-1.9L6.6,33.3z"></path> <path class="st3" d="M6.6,37.1h2.9l-1.4-1.9L6.6,37.1z"></path> <path class="st3" d="M6.6,40.9h2.9L8.1,39L6.6,40.9z"></path> <path class="st3" d="M6.6,29.6h2.9l-1.4-1.9L6.6,29.6z"></path> </g> </svg> 