<?xml version="1.0" encoding="utf-8"?>
<!-- Generator: Adobe Illustrator 26.2.1, SVG Export Plug-In . SVG Version: 6.00 Build 0)  -->
<svg version="1.1" id="Ebene_1" xmlns="http://www.w3.org/2000/svg" xmlns:xlink="http://www.w3.org/1999/xlink" x="0px" y="0px"
	 viewBox="0 0 954.01 1000" style="enable-background:new 0 0 954.01 1000;" xml:space="preserve">
<style type="text/css">
	.st0{fill:#A2B9E1;}
	.st1{fill:#6796CF;}
	.st2{clip-path:url(#SVGID_00000148647795764066394530000000486395623667750819_);}
	.st3{fill:#2B2961;}
	.st4{fill:#FFFFFF;}
	.st5{clip-path:url(#SVGID_00000012466325507021218460000006602293865177718958_);}
	.st6{clip-path:url(#SVGID_00000106839109351254862430000013803522778914841998_);}
	.st7{clip-path:url(#SVGID_00000091706457429456312280000001529610161748180879_);}
	.st8{clip-path:url(#SVGID_00000038409716056686927170000003497474795695759277_);}
	.st9{clip-path:url(#SVGID_00000039101399492813492720000013188129867928818078_);}
	.st10{opacity:0.52;clip-path:url(#SVGID_00000089575582853190815990000010973088601100434358_);}
	.st11{clip-path:url(#SVGID_00000136385496557404791290000008661378885917137332_);}
	.st12{clip-path:url(#SVGID_00000000938123883322684310000013691362852953468837_);}
	.st13{clip-path:url(#SVGID_00000018921200239808268880000002111188150377240767_);}
	.st14{clip-path:url(#SVGID_00000051374281330270301810000002566430405319692706_);}
	.st15{clip-path:url(#SVGID_00000183207380410618220350000016197792270913893261_);}
	.st16{clip-path:url(#SVGID_00000171720923771717478060000015323222579770049430_);}
	.st17{clip-path:url(#SVGID_00000067925131395370662670000012908882775266260146_);}
	.st18{clip-path:url(#SVGID_00000029738289600066506370000006888221249254756770_);}
	.st19{clip-path:url(#SVGID_00000134966655102359823470000015246077910114592691_);}
	.st20{clip-path:url(#SVGID_00000137810750284732003350000004972198530263246743_);}
	.st21{clip-path:url(#SVGID_00000123419463664017660840000000500177170838952336_);}
	.st22{clip-path:url(#SVGID_00000003093501088397428090000000399584246862716564_);}
	.st23{fill:none;stroke:#2B2961;stroke-width:0.374;stroke-linejoin:round;stroke-miterlimit:10;}
	.st24{fill:none;stroke:#2B2961;stroke-width:0.4;stroke-miterlimit:10;}
	.st25{clip-path:url(#SVGID_00000015322210715398555390000015754058941443031741_);}
	.st26{clip-path:url(#SVGID_00000086652490205041582740000002864106586727789971_);}
	.st27{clip-path:url(#SVGID_00000047028114212388931810000016216357291726249392_);}
	.st28{clip-path:url(#SVGID_00000019655889905342576180000000439450531934585274_);}
	.st29{clip-path:url(#SVGID_00000117644125179757468300000000448169541995508106_);}
	.st30{clip-path:url(#SVGID_00000113333972974923803830000005465432318816800701_);}
	.st31{clip-path:url(#SVGID_00000106856974191789262590000017405854513105137585_);}
	.st32{clip-path:url(#SVGID_00000018211384610910270430000015286501698929915783_);}
	.st33{clip-path:url(#SVGID_00000008130912411733055400000007226424486792561060_);}
	.st34{clip-path:url(#SVGID_00000147218359827121539990000011030799238065671348_);}
	.st35{clip-path:url(#SVGID_00000122695584412017483760000007112881600601987224_);}
	.st36{clip-path:url(#SVGID_00000176011850755675159480000014299322069636564159_);}
	.st37{clip-path:url(#SVGID_00000070117098640254546130000014431881969531148173_);}
	.st38{clip-path:url(#SVGID_00000012440902448814604090000005957863200412081570_);}
	.st39{clip-path:url(#SVGID_00000026125438714690018280000012770408200298264495_);}
	.st40{clip-path:url(#SVGID_00000008847385210436347130000006287143253124208530_);}
	.st41{clip-path:url(#SVGID_00000126289241156851355170000006999266757631516081_);}
	.st42{clip-path:url(#SVGID_00000138568867238459778540000014746653608319815300_);}
	.st43{clip-path:url(#SVGID_00000088846902165893992260000008580482586258264468_);}
	.st44{clip-path:url(#SVGID_00000175310084371118189430000013645451790430066846_);}
	.st45{clip-path:url(#SVGID_00000101788927699152860550000004610794258509982143_);}
	.st46{clip-path:url(#SVGID_00000085250942881065112710000010394950968864748716_);}
	.st47{clip-path:url(#SVGID_00000143608209336367198400000002530688888336954241_);}
	.st48{clip-path:url(#SVGID_00000127013563968221978020000004185773874952064422_);}
	.st49{clip-path:url(#SVGID_00000092426493508741904500000008109863084854499237_);}
	.st50{clip-path:url(#SVGID_00000146486611172361227390000009395893099546200219_);}
	.st51{clip-path:url(#SVGID_00000103265734377537646390000011049262093953559956_);}
	.st52{clip-path:url(#SVGID_00000111893183365894775770000000028211021382897312_);}
	.st53{clip-path:url(#SVGID_00000071553192553154232190000003947813849415555734_);}
	.st54{clip-path:url(#SVGID_00000144297798047867773690000010170163817777509524_);}
	.st55{clip-path:url(#SVGID_00000006690207840995461010000014971064443559286423_);}
	.st56{clip-path:url(#SVGID_00000109729996907829524790000018421213150328180617_);}
	.st57{clip-path:url(#SVGID_00000078750694310551824300000016219575277227027075_);}
	.st58{clip-path:url(#SVGID_00000033346820179980219670000010180243464593942927_);}
	.st59{clip-path:url(#SVGID_00000029758278841886972510000005061276913687762851_);}
	.st60{clip-path:url(#SVGID_00000139987811255954342520000016244280809669595051_);}
	.st61{clip-path:url(#SVGID_00000035495004377190692440000009413205904491277492_);}
	.st62{fill:#9AB4DE;}
	.st63{clip-path:url(#SVGID_00000024714122839366250740000012909366878975221428_);}
	.st64{clip-path:url(#SVGID_00000075863553737895191450000007227859478703072696_);}
	.st65{clip-path:url(#SVGID_00000105404554045640250140000012208046329557219995_);}
	.st66{fill:#B9C9E9;}
	.st67{clip-path:url(#SVGID_00000066508710585360856640000003678629350422987453_);}
	.st68{clip-path:url(#SVGID_00000150812101821614279150000001433709590299670145_);}
	.st69{clip-path:url(#SVGID_00000123403009676150223950000012279618745142015399_);}
	.st70{clip-path:url(#SVGID_00000086679495833273982560000008412568519861712809_);}
	.st71{clip-path:url(#SVGID_00000014619041715445735220000001086003550483734934_);}
	.st72{clip-path:url(#SVGID_00000085944530617567389510000015224063127512170640_);}
	.st73{clip-path:url(#SVGID_00000139998595406990138720000001304483413293792187_);}
	.st74{clip-path:url(#SVGID_00000014609507492676699970000012959863049684307084_);}
	.st75{clip-path:url(#SVGID_00000150787183138954182260000011162681293101915829_);}
	.st76{clip-path:url(#SVGID_00000171679088569462600380000001743380305174135703_);}
	.st77{clip-path:url(#SVGID_00000121958746215758913780000002525596645905633925_);}
	.st78{clip-path:url(#SVGID_00000103948424291837489280000003180065302073071003_);}
	.st79{clip-path:url(#SVGID_00000112590448106164489820000009862021855487050932_);}
	.st80{clip-path:url(#SVGID_00000067922565559630771760000002441031364335926161_);}
	.st81{clip-path:url(#SVGID_00000042014682509697593840000011917821232205962138_);}
	.st82{clip-path:url(#SVGID_00000137833372412571689150000009252291838394270862_);}
	.st83{clip-path:url(#SVGID_00000127010749539392368490000011787604480290762665_);}
	.st84{clip-path:url(#SVGID_00000006709582550673659440000008245552645674608018_);}
	.st85{clip-path:url(#SVGID_00000164472131113543196190000017534195162670827906_);}
	.st86{clip-path:url(#SVGID_00000170237101695398727590000013056963040565785477_);}
	.st87{clip-path:url(#SVGID_00000158744463038481522630000005207121831800898991_);}
	.st88{clip-path:url(#SVGID_00000096022784244411670200000010270745931960834961_);}
	.st89{clip-path:url(#SVGID_00000179629897043352953850000016553140646433707702_);}
	.st90{clip-path:url(#SVGID_00000170965117988462482720000010600452423465012608_);}
	.st91{clip-path:url(#SVGID_00000005954122091179633170000006622521214603690907_);}
	.st92{clip-path:url(#SVGID_00000089541006401094002020000006086769405988241571_);}
	.st93{clip-path:url(#SVGID_00000018953707737115481060000002974276967774971030_);}
	.st94{clip-path:url(#SVGID_00000023250367432672572860000011081717561713975958_);}
	.st95{clip-path:url(#SVGID_00000128472947873159590130000013872664552941267604_);}
	.st96{clip-path:url(#SVGID_00000155851527239662713540000013126168237842700683_);}
	.st97{clip-path:url(#SVGID_00000096018030587724032750000010729590358183966618_);}
	.st98{clip-path:url(#SVGID_00000039818538594063635350000005022565775592888463_);}
	.st99{clip-path:url(#SVGID_00000172411683020573328420000007308669774133542320_);}
	.st100{clip-path:url(#SVGID_00000126283005087070732220000002867816321927499415_);}
	.st101{clip-path:url(#SVGID_00000005237033647714193910000018216488161775917965_);}
	.st102{clip-path:url(#SVGID_00000052104582433486583740000016173630913601256104_);}
	.st103{clip-path:url(#SVGID_00000016784858657003519090000008703037477765856402_);}
	.st104{clip-path:url(#SVGID_00000129175433046414667460000016003532414434986128_);}
	.st105{clip-path:url(#SVGID_00000088135223075024138460000004682141789937396145_);}
	.st106{clip-path:url(#SVGID_00000076562814567592449250000012466314687469536185_);}
	.st107{clip-path:url(#SVGID_00000163051063349788272300000011970609038662635437_);}
	.st108{clip-path:url(#SVGID_00000110451037500048151680000005957250083328205960_);}
	.st109{clip-path:url(#SVGID_00000072259125609577177140000004619864079205225098_);}
	.st110{clip-path:url(#SVGID_00000180350927060577571160000004320387036334441635_);}
	.st111{clip-path:url(#SVGID_00000121258944847499246630000010671941040567000459_);}
	.st112{clip-path:url(#SVGID_00000183230616229064502800000000609042302720675237_);}
	.st113{clip-path:url(#SVGID_00000052104518011028887890000004371791155276598429_);}
	.st114{clip-path:url(#SVGID_00000134964753933032950700000004052234581756957886_);}
	.st115{clip-path:url(#SVGID_00000172401995400190828290000000027973995519180424_);}
	.st116{clip-path:url(#SVGID_00000164489118776840347390000016521989093297529989_);}
	.st117{clip-path:url(#SVGID_00000062875436937012135800000009496491993324570505_);}
	.st118{clip-path:url(#SVGID_00000008118783211807344990000000166009986967590019_);}
	.st119{clip-path:url(#SVGID_00000166668815862405754920000012860081720084794037_);}
	.st120{clip-path:url(#SVGID_00000176010736898297485950000009866734130432520837_);}
	.st121{clip-path:url(#SVGID_00000183928145101106790730000002318527394524223641_);}
	.st122{clip-path:url(#SVGID_00000103982268843981698020000010860928119450837928_);}
	.st123{clip-path:url(#SVGID_00000040547617269188605470000010903914080878605208_);}
	.st124{clip-path:url(#SVGID_00000110434012674766510630000001169446979839008418_);}
	.st125{clip-path:url(#SVGID_00000153705038871319701440000016366110347221912483_);}
	.st126{clip-path:url(#SVGID_00000026886358670770323430000016240005779360760974_);}
	.st127{clip-path:url(#SVGID_00000000208127743918408940000007070011747937823640_);}
	.st128{clip-path:url(#SVGID_00000131328295545145243760000013618656596233584016_);}
	.st129{clip-path:url(#SVGID_00000024713570860078256450000001738079343318155439_);}
	.st130{clip-path:url(#SVGID_00000072974460756338204780000017479675208615491985_);}
	.st131{clip-path:url(#SVGID_00000053506267326056551460000015682867181405059993_);}
	.st132{clip-path:url(#SVGID_00000150799255540773104710000017376667648337311106_);}
	.st133{clip-path:url(#SVGID_00000173129078140070712640000007580098033483245731_);}
	.st134{clip-path:url(#SVGID_00000126282339352096618190000006511508362155169411_);}
	.st135{clip-path:url(#SVGID_00000079447883708271285830000004958133043095455410_);}
	.st136{clip-path:url(#SVGID_00000003823056318812669630000017880334292452905865_);}
	.st137{clip-path:url(#SVGID_00000040547041313752587650000002029196864322428288_);}
	.st138{clip-path:url(#SVGID_00000143613665256078216300000006064374364982831540_);}
	.st139{clip-path:url(#SVGID_00000119075260448512246980000000465423011078666420_);}
	.st140{clip-path:url(#SVGID_00000164479846136703398030000015174264919583599279_);}
	.st141{clip-path:url(#SVGID_00000077325492709701114350000006373908777350277017_);}
	.st142{clip-path:url(#SVGID_00000039825542275070383770000005988546938839783095_);}
	.st143{clip-path:url(#SVGID_00000175308712591224674350000010514168937039729822_);}
	.st144{clip-path:url(#SVGID_00000133512126649490088920000007172508170946209411_);}
	.st145{clip-path:url(#SVGID_00000002380964572048072340000005242835586558024375_);}
	.st146{clip-path:url(#SVGID_00000099632727485835705700000007452148709043869866_);}
	.st147{clip-path:url(#SVGID_00000111876216675085077290000012456324918327916932_);}
	.st148{clip-path:url(#SVGID_00000069392545379452129990000011240581430251347377_);}
	.st149{clip-path:url(#SVGID_00000018195398396571323480000015743307938301887878_);}
	.st150{clip-path:url(#SVGID_00000116197881287728654350000010535507016363643307_);}
	.st151{clip-path:url(#SVGID_00000129899890524347719060000007940800962569206917_);}
	.st152{clip-path:url(#SVGID_00000087399638922715556060000011127580818959138182_);}
	.st153{clip-path:url(#SVGID_00000108295383416520418660000009905532985562087609_);}
	.st154{clip-path:url(#SVGID_00000103266130643597285100000006600820991697349802_);}
	.st155{clip-path:url(#SVGID_00000060750512253723822980000003343361916081427902_);}
	.st156{clip-path:url(#SVGID_00000071519049916434863090000002250147651231914928_);}
	.st157{clip-path:url(#SVGID_00000078040245066807976800000004669862407839248574_);}
	.st158{clip-path:url(#SVGID_00000176740315594144585170000001811354897419443384_);}
	.st159{clip-path:url(#SVGID_00000007394971615406345210000003815417417482008767_);}
	.st160{clip-path:url(#SVGID_00000037690420713807489130000007912168847777972096_);}
	.st161{clip-path:url(#SVGID_00000102532539825802763790000010806636482923217062_);}
	.st162{clip-path:url(#SVGID_00000077308352581312006170000013690202924016085638_);}
	.st163{clip-path:url(#SVGID_00000165915966024459837740000011590174886788032156_);}
	.st164{clip-path:url(#SVGID_00000096033223435536689400000017088215315524689321_);}
	.st165{clip-path:url(#SVGID_00000085932057129904772980000001735299338054335927_);}
	.st166{clip-path:url(#SVGID_00000074419559195539847500000015251045804567459748_);}
	.st167{clip-path:url(#SVGID_00000114763391756618225800000004453550034882011815_);}
	.st168{clip-path:url(#SVGID_00000179605559373157152440000006770800972574753694_);}
	.st169{clip-path:url(#SVGID_00000163061183899716614440000017680763503967597963_);}
	.st170{clip-path:url(#SVGID_00000072971937559340491200000008500574019350651523_);}
	.st171{clip-path:url(#SVGID_00000054977937548425998180000016678953571542011265_);}
	.st172{clip-path:url(#SVGID_00000057130671047686620550000008917035977526601364_);}
	.st173{clip-path:url(#SVGID_00000108993548038802661010000008032451300612645299_);}
	.st174{clip-path:url(#SVGID_00000073711855693250510310000007943590219236690860_);}
	.st175{clip-path:url(#SVGID_00000006677887607156542160000012339510729974642594_);}
	.st176{clip-path:url(#SVGID_00000034074234611613545190000006212985861453137792_);}
	.st177{clip-path:url(#SVGID_00000072999523614991389050000008497345821460525970_);}
	.st178{clip-path:url(#SVGID_00000042695837005449073240000008432376774019681438_);}
	.st179{clip-path:url(#SVGID_00000168818408648602390050000008998734685216307902_);}
	.st180{clip-path:url(#SVGID_00000183927528858044485380000007734558042152244916_);}
	.st181{clip-path:url(#SVGID_00000127031917270740682820000012100615603150549914_);}
	.st182{clip-path:url(#SVGID_00000034049215104804052990000016632804432572619939_);}
	.st183{clip-path:url(#SVGID_00000060709804180738747140000016606175300033001138_);}
	.st184{clip-path:url(#SVGID_00000108292444549975160130000014960242640346318728_);}
	.st185{clip-path:url(#SVGID_00000111162271271679440940000010971805813547006376_);}
	.st186{clip-path:url(#SVGID_00000177445284383858418930000002640838374647641261_);}
	.st187{clip-path:url(#SVGID_00000049934222235600609940000007231058860561114525_);}
	.st188{clip-path:url(#SVGID_00000158707949488839363070000004320320771389588102_);}
	.st189{clip-path:url(#SVGID_00000000192058141140797080000011622010965914045104_);}
	.st190{clip-path:url(#SVGID_00000034777710869579212710000017189317153961131653_);}
	.st191{clip-path:url(#SVGID_00000183243432147925636640000017760823317737391759_);}
	.st192{clip-path:url(#SVGID_00000161591336524970324400000007691473886859595190_);}
	.st193{clip-path:url(#SVGID_00000145742721715075581090000006073342608173707704_);}
	.st194{clip-path:url(#SVGID_00000085971471612708070010000010205383714391607681_);}
	.st195{clip-path:url(#SVGID_00000123414288039501150520000012686576380608882350_);}
	.st196{clip-path:url(#SVGID_00000098925171581557015940000015300912698405902260_);}
	.st197{clip-path:url(#SVGID_00000138555021017389870700000011632903083689974955_);}
	.st198{clip-path:url(#SVGID_00000180349838205707785050000017011246708819496383_);}
	.st199{clip-path:url(#SVGID_00000152236412331126955020000009131592324628213133_);}
	.st200{clip-path:url(#SVGID_00000173121049846429509240000011602210603659922333_);}
	.st201{clip-path:url(#SVGID_00000049193817571516540400000003102857842854040499_);}
	.st202{clip-path:url(#SVGID_00000041295324573627436260000006883876851186874768_);}
	.st203{clip-path:url(#SVGID_00000083803259304389930020000015757554031232135044_);}
	.st204{clip-path:url(#SVGID_00000074400032883488577360000017330576630540469688_);}
	.st205{clip-path:url(#SVGID_00000005971955654482912450000003930271184971027344_);}
	.st206{clip-path:url(#SVGID_00000075848498551827495430000006401351392461123763_);}
	.st207{clip-path:url(#SVGID_00000136411405853885764600000001815988362816534456_);}
	.st208{clip-path:url(#SVGID_00000041265402666280252840000010895376730374249352_);}
	.st209{clip-path:url(#SVGID_00000158707627738186401070000014534160853999209096_);}
	.st210{clip-path:url(#SVGID_00000183235066738490960810000011035570544779735459_);}
	.st211{clip-path:url(#SVGID_00000086668197698137744660000009999000645826903224_);}
	.st212{clip-path:url(#SVGID_00000121262632521918724860000007969205332044980146_);}
	.st213{clip-path:url(#SVGID_00000044893478197337816300000001808698730117951877_);}
	.st214{clip-path:url(#SVGID_00000108998145399149992650000012304222392403656595_);}
	.st215{clip-path:url(#SVGID_00000102535093983104562070000008200684605669535664_);}
	.st216{clip-path:url(#SVGID_00000072256043165386083440000008169199734430226315_);}
	.st217{clip-path:url(#SVGID_00000013877953419051972470000000041514303390640293_);}
	.st218{clip-path:url(#SVGID_00000110439770882537660710000004106336975290287771_);}
	.st219{clip-path:url(#SVGID_00000086652955544742875120000010075875209850896787_);}
	.st220{clip-path:url(#SVGID_00000137092276278853720120000001451380202343454608_);}
	.st221{clip-path:url(#SVGID_00000080897316683130438890000003322330692855594644_);}
	.st222{clip-path:url(#SVGID_00000054988787709156665450000014218982362549654199_);}
	.st223{clip-path:url(#SVGID_00000160188623266734294580000014989289787557115319_);}
	.st224{clip-path:url(#SVGID_00000055708106431410451290000015756720820474415511_);}
	.st225{clip-path:url(#SVGID_00000073685462830867439170000013149174832031567242_);}
	.st226{clip-path:url(#SVGID_00000002361601357599169440000007567290103774662060_);}
	.st227{clip-path:url(#SVGID_00000030473434290261972200000005102601235597677494_);}
	.st228{clip-path:url(#SVGID_00000097498962170184093650000013606095972738159746_);}
	.st229{clip-path:url(#SVGID_00000106135827120172956610000010893606415743015296_);}
	.st230{clip-path:url(#SVGID_00000168829790064840005230000012095943837300961714_);}
	.st231{clip-path:url(#SVGID_00000034799530518640523120000015299420838128277691_);}
	.st232{clip-path:url(#SVGID_00000074425881460914368420000002718898312806825609_);}
	.st233{clip-path:url(#SVGID_00000157286276162698383650000009091450788251606166_);}
	.st234{clip-path:url(#SVGID_00000050624206735175448100000013652105189847946135_);}
	.st235{clip-path:url(#SVGID_00000023280085822831984550000010011321856617174401_);}
	.st236{clip-path:url(#SVGID_00000103241487455126243960000000548458160772437433_);}
	.st237{clip-path:url(#SVGID_00000111165064875554474090000001140651565153286829_);}
	.st238{clip-path:url(#SVGID_00000102515522810115801120000009227838534065032068_);}
	.st239{clip-path:url(#SVGID_00000022551471530959176040000014665157224026376346_);}
	.st240{clip-path:url(#SVGID_00000095328362642507254960000014093408782154538890_);}
	.st241{clip-path:url(#SVGID_00000068654899512359347470000013757050926264691356_);}
	.st242{clip-path:url(#SVGID_00000098193374348743507320000002744998011090349968_);}
	.st243{clip-path:url(#SVGID_00000038370707685737335270000015719532194515896234_);}
	.st244{clip-path:url(#SVGID_00000083068677678045035640000015394457947854944414_);}
	.st245{clip-path:url(#SVGID_00000113326151316123988400000004326220251031756211_);}
	.st246{clip-path:url(#SVGID_00000176030592213105804230000008455311787621123255_);}
	.st247{clip-path:url(#SVGID_00000169527464840735847550000001913772350391044235_);}
	.st248{clip-path:url(#SVGID_00000119113728280858770450000002284718703491525553_);}
	.st249{clip-path:url(#SVGID_00000180330489213174316370000002568445648889323908_);}
	.st250{clip-path:url(#SVGID_00000006688890181803720940000001973662955600233904_);}
	.st251{clip-path:url(#SVGID_00000069373272219084370220000018401988930690038937_);}
	.st252{clip-path:url(#SVGID_00000085941625536415075610000012019550893821712048_);}
	.st253{clip-path:url(#SVGID_00000183944031702217485950000011534128439771253945_);}
	.st254{clip-path:url(#SVGID_00000178191328919566582340000005777077746560736919_);}
	.st255{clip-path:url(#SVGID_00000016794383218617603330000009985285345201894076_);}
	.st256{clip-path:url(#SVGID_00000131369169495186265740000018144175987762396298_);}
	.st257{clip-path:url(#SVGID_00000111887920593756347360000003204969398744908949_);}
	.st258{clip-path:url(#SVGID_00000121970145868843463110000000754413188378365829_);}
	.st259{clip-path:url(#SVGID_00000165220678945167365150000014704543289357856699_);}
	.st260{clip-path:url(#SVGID_00000098215161611087933840000014403679558636175035_);}
	.st261{clip-path:url(#SVGID_00000000927562372964925560000000578215929466520211_);}
	.st262{clip-path:url(#SVGID_00000148623754253816094730000005898676022771248275_);}
	.st263{clip-path:url(#SVGID_00000177482906546700322180000011764996192735802763_);}
	.st264{clip-path:url(#SVGID_00000089570361279527300540000005622255942160707509_);}
	.st265{clip-path:url(#SVGID_00000047060395380127796710000011357922581755248831_);}
	.st266{clip-path:url(#SVGID_00000020361168120319685060000004402059044749215917_);}
	.st267{clip-path:url(#SVGID_00000032623275645781679540000015949923495173523877_);}
	.st268{clip-path:url(#SVGID_00000169544313566328878090000014794082307053268358_);}
	.st269{clip-path:url(#SVGID_00000026142390754814519090000003603943427457135291_);}
	.st270{clip-path:url(#SVGID_00000033340810761009010760000001628922942381441455_);}
	.st271{clip-path:url(#SVGID_00000080185130360274218620000010291882476165928076_);}
	.st272{clip-path:url(#SVGID_00000152945134132362699710000001812808391275574715_);}
	.st273{clip-path:url(#SVGID_00000035503678577712687550000003958985216911836565_);}
	.st274{clip-path:url(#SVGID_00000065072226190896202080000011463326531293863857_);}
	.st275{clip-path:url(#SVGID_00000059282746093835139500000017337026883566327740_);}
	.st276{clip-path:url(#SVGID_00000147933656094764158660000002629162440360952963_);}
	.st277{clip-path:url(#SVGID_00000167394500867210418700000016765087172971735187_);}
	.st278{clip-path:url(#SVGID_00000019664897160088701800000001898885226777878717_);}
	.st279{clip-path:url(#SVGID_00000173860176749241868620000012788997902191758763_);}
	.st280{clip-path:url(#SVGID_00000182515403027171372590000018423114344753750716_);}
	.st281{clip-path:url(#SVGID_00000183928383650946995990000017081776103764751004_);}
	.st282{clip-path:url(#SVGID_00000183208550289130796470000008092279613398416027_);}
	.st283{clip-path:url(#SVGID_00000146475560651602253520000011826096876270227616_);}
	.st284{clip-path:url(#SVGID_00000124149381215046623650000012668491532316865471_);}
	.st285{clip-path:url(#SVGID_00000031900354466620684800000015829653947441731495_);}
	.st286{clip-path:url(#SVGID_00000042730979580198870330000012576974978793377192_);}
	.st287{clip-path:url(#SVGID_00000059309789419913143090000012848944696313086377_);}
	.st288{clip-path:url(#SVGID_00000108286873143721641630000007927361110584304776_);}
	.st289{clip-path:url(#SVGID_00000181796759221957691880000004825356971754050745_);}
	.st290{clip-path:url(#SVGID_00000011744269866053152580000005428256494199423651_);}
	.st291{clip-path:url(#SVGID_00000091004248383671476870000014503406503955648165_);}
	.st292{clip-path:url(#SVGID_00000086679932612076316970000000340734761289961908_);}
	.st293{clip-path:url(#SVGID_00000004520711201231037270000004095908285930459541_);}
	.st294{clip-path:url(#SVGID_00000088098946370399620110000014033487977885772452_);}
	.st295{clip-path:url(#SVGID_00000103254092284296174380000017127003912258780071_);}
	.st296{clip-path:url(#SVGID_00000172399749812452332660000001351347482384390333_);}
	.st297{clip-path:url(#SVGID_00000029011137306601244380000004145983384897923467_);}
	.st298{clip-path:url(#SVGID_00000006670653856214121890000008676238237429877925_);}
	.st299{clip-path:url(#SVGID_00000034058281859580162170000009306488737330846373_);}
	.st300{clip-path:url(#SVGID_00000106105317317974437980000005515142123120263356_);}
	.st301{clip-path:url(#SVGID_00000062870339961379199510000008306030861273361070_);}
	.st302{clip-path:url(#SVGID_00000176045703282653003280000000885308093573217972_);}
	.st303{clip-path:url(#SVGID_00000119089246016603756660000009646300938619229071_);}
	.st304{clip-path:url(#SVGID_00000108267177098971423250000015656180953886113436_);}
	.st305{clip-path:url(#SVGID_00000135688365615097717000000015038796729720968856_);}
	.st306{clip-path:url(#SVGID_00000078741187065912330030000002313588749387910077_);}
	.st307{clip-path:url(#SVGID_00000104706173088828430350000014797087317421093519_);}
	.st308{clip-path:url(#SVGID_00000075858441636604318980000015937916701244185516_);}
	.st309{clip-path:url(#SVGID_00000115509264067323563810000002050410833556918913_);}
	.st310{clip-path:url(#SVGID_00000062184135384124367580000013108520911700330147_);}
	.st311{clip-path:url(#SVGID_00000001666067825830713190000010059143993480280495_);}
	.st312{clip-path:url(#SVGID_00000148652458540451868370000010798299150057355154_);}
	.st313{clip-path:url(#SVGID_00000038382738328076653760000017679614124587054469_);}
	.st314{clip-path:url(#SVGID_00000036967948240122663240000005297986174518360213_);}
	.st315{clip-path:url(#SVGID_00000062901304167906017330000008269243105156199101_);}
	.st316{clip-path:url(#SVGID_00000136407741965942735630000003809165138644759964_);}
	.st317{clip-path:url(#SVGID_00000151521231059969655120000009702145108284924300_);}
	.st318{clip-path:url(#SVGID_00000117646810956186585530000002757846748889017478_);}
	.st319{clip-path:url(#SVGID_00000155863755568947105120000007095065449908522659_);}
	.st320{clip-path:url(#SVGID_00000120555853232367048340000017426544103443704753_);}
	.st321{clip-path:url(#SVGID_00000038393451075440247610000007513828222258684854_);}
	.st322{clip-path:url(#SVGID_00000013175431503050522410000004078082307589436555_);}
	.st323{clip-path:url(#SVGID_00000004508386281264587890000005474786151701684626_);}
	.st324{clip-path:url(#SVGID_00000052793489518344484500000015710433204606506888_);}
	.st325{clip-path:url(#SVGID_00000181791172301001252270000009615420224817798283_);}
	.st326{clip-path:url(#SVGID_00000116925791599139828140000001853128379842261930_);}
	.st327{clip-path:url(#SVGID_00000054262448072810557330000005153303108634577311_);}
	.st328{clip-path:url(#SVGID_00000041296409683283291540000015522127725730847618_);}
	.st329{clip-path:url(#SVGID_00000168088343103718079530000017417952852768842129_);}
	.st330{clip-path:url(#SVGID_00000170263155343484319040000010052761523492561553_);}
	.st331{clip-path:url(#SVGID_00000005244957774823524920000000442181480164143745_);}
	.st332{clip-path:url(#SVGID_00000050632473179373424960000012499782360740322177_);}
	.st333{clip-path:url(#SVGID_00000044862652631022992770000017147224437131717539_);}
	.st334{clip-path:url(#SVGID_00000023264869946611473620000001419454414823275683_);}
	.st335{clip-path:url(#SVGID_00000145056190311502919220000004077544038064173732_);}
	.st336{clip-path:url(#SVGID_00000181057692079012573000000017556623668553001386_);}
	.st337{clip-path:url(#SVGID_00000142157816864657453590000016630555298311811241_);}
	.st338{clip-path:url(#SVGID_00000157293734579190454130000007452009898389864077_);}
	.st339{clip-path:url(#SVGID_00000106111178881351747430000004944449490359336894_);}
	.st340{clip-path:url(#SVGID_00000018217988349855416740000011095329553582995125_);}
	.st341{clip-path:url(#SVGID_00000010298518676101244140000002739077920822070177_);}
	.st342{clip-path:url(#SVGID_00000158030345883407789380000006992499784927816066_);}
	.st343{clip-path:url(#SVGID_00000183214624945752585480000002781059518104589211_);}
	.st344{clip-path:url(#SVGID_00000031191637301458770130000015062547042431718060_);}
	.st345{clip-path:url(#SVGID_00000155854831678479978100000004247085132455863443_);}
	.st346{clip-path:url(#SVGID_00000052101081661310261030000003206532766221171334_);}
	.st347{clip-path:url(#SVGID_00000138541642916974321800000001109224973830608542_);}
	.st348{clip-path:url(#SVGID_00000072241655683847449640000005559272881473886655_);}
	.st349{clip-path:url(#SVGID_00000010302999552419230720000003945344703451012022_);}
	.st350{clip-path:url(#SVGID_00000111896409504559884030000000175926422433781419_);}
	.st351{clip-path:url(#SVGID_00000130644268092370898160000016240558118308579515_);}
	.st352{clip-path:url(#SVGID_00000182494149738855766690000016909714765463912890_);}
	.st353{clip-path:url(#SVGID_00000183246473570262258730000006620221199758152073_);}
	.st354{clip-path:url(#SVGID_00000021105222467746843390000012298779356545480124_);}
	.st355{clip-path:url(#SVGID_00000055708807312497072410000016358620884685590408_);}
	.st356{clip-path:url(#SVGID_00000140016092764020474800000009599331120570136762_);}
	.st357{clip-path:url(#SVGID_00000051373784777246807110000015668051867628535963_);}
	.st358{clip-path:url(#SVGID_00000008841084902428320930000007045846411099467428_);}
	.st359{clip-path:url(#SVGID_00000111899078332694683690000000025950012352232881_);}
	.st360{clip-path:url(#SVGID_00000079463928220412650450000008592361247385515956_);}
	.st361{clip-path:url(#SVGID_00000163753753955716791000000000815818143735797174_);}
	.st362{clip-path:url(#SVGID_00000029766125113614532920000014585728405690118042_);}
	.st363{clip-path:url(#SVGID_00000161593939239258607500000000943896755398792878_);}
	.st364{clip-path:url(#SVGID_00000165934057807476528340000016869946120747439547_);}
	.st365{clip-path:url(#SVGID_00000157278804127051032750000003406849369734343863_);}
	.st366{clip-path:url(#SVGID_00000043428385381502191810000014932340309730263184_);}
	.st367{clip-path:url(#SVGID_00000181771834972220219900000001026929687328698008_);}
	.st368{clip-path:url(#SVGID_00000146460882733634217960000001257150285428086956_);}
	.st369{clip-path:url(#SVGID_00000023261471957657287500000006434653111789155514_);}
	.st370{clip-path:url(#SVGID_00000012444890309406493540000009607852307394165132_);}
	.st371{clip-path:url(#SVGID_00000101067411378170556240000016796175298206297250_);}
	.st372{clip-path:url(#SVGID_00000170990494102661500740000015133304862819946662_);}
	.st373{clip-path:url(#SVGID_00000034807342900405242130000000277439341513353400_);}
	.st374{clip-path:url(#SVGID_00000016048433378750657180000001316905345492192896_);}
	.st375{clip-path:url(#SVGID_00000174584264322557389400000004896430208503952817_);}
</style>
<g>
	<g>
		<rect x="4.29" y="111.63" class="st0" width="46.36" height="884.07"/>
	</g>
	<g>
		<rect x="4" y="0" class="st1" width="948.1" height="119.22"/>
	</g>
	<g>
		<defs>
			<rect id="SVGID_00000008109827253702982990000006881421279774094761_" y="0.01" width="954.01" height="999.99"/>
		</defs>
		<clipPath id="SVGID_00000002368246838721926180000012328241879285908127_">
			<use xlink:href="#SVGID_00000008109827253702982990000006881421279774094761_"  style="overflow:visible;"/>
		</clipPath>
		<g style="clip-path:url(#SVGID_00000002368246838721926180000012328241879285908127_);">
			<path class="st3" d="M952.4,1000H1.61c-0.89,0-1.61-0.72-1.61-1.61V1.62c0-0.89,0.72-1.61,1.61-1.61H952.4
				c0.89,0,1.61,0.72,1.61,1.61v996.77C954.01,999.28,953.29,1000,952.4,1000z M3.22,996.78h947.57V3.23H3.22V996.78z"/>
		</g>
		<g style="clip-path:url(#SVGID_00000002368246838721926180000012328241879285908127_);">
			<path class="st4" d="M859.31,69.89V39.48c0-3.07-0.21-6.21-1.81-9c-1.6-2.72-3.84-4.88-6.13-7.18l-6.14,6.13
				c1.67,1.67,2.72,2.58,3.91,4.6c0.7,1.26,1.05,3.21,1.05,5.86v29.58c0,2.65-0.35,4.6-1.05,5.86c-1.19,2.02-2.23,2.93-3.91,4.6
				l6.14,6.14c2.3-2.3,4.53-4.47,6.13-7.19C859.1,76.1,859.31,72.96,859.31,69.89 M839.99,46.17c-2.51-2.51-5.02-3.41-8.58-3.41
				c-3.91,0-7.4,1.81-9.14,3.9v-3.48h-8.85v36.34h9.06V57.61c0-4.6,3.07-6.7,5.86-6.7c2.23,0,3.42,0.77,4.81,2.16L839.99,46.17z
				 M801.83,79.52V43.18h-9.06v21.98c0,4.95-3.21,6.63-6.08,6.63c-2.86,0-6.01-1.67-6.01-6.63V43.18h-9.06v23.23
				c0,3.98,0.77,7.39,3.69,10.32c2.02,2.02,4.95,3.2,8.58,3.2c3.35,0,6.7-1.26,9.08-3.76v3.34H801.83z M762.41,79.52v-7.66h-3.28
				c-2.16,0-3.14-1.19-3.14-3.28V51.12h6.42v-6.9h-6.42V33.48h-9.06v10.74h-3.84v6.9h3.84v18.01c0,5.16,3.14,10.39,10.53,10.39
				H762.41z M734.65,29.57h-9.27v7.38h9.27V29.57z M734.58,43.18h-9.06v36.34h9.06V43.18z M706.4,61.31c0,5.93-0.7,10.47-6.14,10.47
				c-5.44,0-6.14-4.54-6.14-10.47c0-5.94,0.7-10.4,6.14-10.4C705.7,50.91,706.4,55.38,706.4,61.31 M715.46,61.31
				c0-5.45-0.07-11.66-3.7-15.28c-2.02-2.02-5.3-3.27-8.85-3.27c-3.7,0-6.42,0.97-8.8,3.62V29.85h-9.06v49.66h8.79V76.1
				c2.51,2.79,5.23,3.83,9.08,3.83c3.56,0,6.84-1.26,8.85-3.27C715.39,73.03,715.46,66.75,715.46,61.31 M662.58,62.57h-12.35
				l6.28-18.07L662.58,62.57z M678.21,79.52l-18.14-49.66h-7.6L634.4,79.52h10.12l3-8.79h17.65l2.93,8.79H678.21z M628.81,80
				c-1.67-1.67-2.72-2.65-3.91-4.67c-0.7-1.26-1.05-3.21-1.05-5.86V39.89c0-2.65,0.35-4.6,1.05-5.86c1.19-2.02,2.23-3,3.91-4.67
				l-6.07-6.06c-2.3,2.3-4.53,4.46-6.13,7.18c-1.6,2.79-1.81,5.93-1.81,9v30.41c0,3.07,0.21,6.21,1.81,9
				c1.6,2.72,3.83,4.88,6.13,7.19L628.81,80z M578.02,57.97h-13.81c0.07-1.61,0.28-2.59,0.84-3.91c0.98-2.17,3-3.77,6.07-3.77
				c3.07,0,5.09,1.6,6.07,3.77C577.74,55.38,577.95,56.36,578.02,57.97 M586.95,64.17v-4.04c0-9.98-5.72-17.37-15.84-17.37
				c-9.41,0-15.83,6.69-15.83,18.55c0,14.72,8.22,18.62,16.8,18.62c6.56,0,10.12-2.02,13.81-5.72l-5.51-5.37
				c-2.3,2.3-4.26,3.42-8.23,3.42c-5.09,0-7.95-3.42-7.95-8.1H586.95z M549.83,51.12v-6.9h-6.7v-3.98c0-2.1,0.98-3.28,3.14-3.28
				h3.56v-7.66h-5.16c-7.39,0-10.59,5.23-10.59,10.39v4.54h-3.77v6.9h3.77v28.4h9.06v-28.4H549.83z M521.51,29.57h-9.27v7.38h9.27
				V29.57z M521.44,43.18h-9.06v36.34h9.06V43.18z M493.67,57.97h-13.81c0.07-1.61,0.28-2.59,0.84-3.91c0.98-2.17,3-3.77,6.07-3.77
				c3.07,0,5.09,1.6,6.07,3.77C493.39,55.38,493.6,56.36,493.67,57.97 M502.6,64.17v-4.04c0-9.98-5.72-17.37-15.84-17.37
				c-9.41,0-15.83,6.69-15.83,18.55c0,14.72,8.22,18.62,16.8,18.62c6.56,0,10.12-2.02,13.81-5.72l-5.51-5.37
				c-2.3,2.3-4.26,3.42-8.23,3.42c-5.09,0-7.95-3.42-7.95-8.1H502.6z M468.35,46.17c-2.51-2.51-5.02-3.41-8.58-3.41
				c-3.91,0-7.4,1.81-9.14,3.9v-3.48h-8.85v36.34h9.06V57.61c0-4.6,3.07-6.7,5.86-6.7c2.23,0,3.42,0.77,4.81,2.16L468.35,46.17z
				 M433.11,79.52v-7.66h-3.49c-2.3,0-3.21-1.12-3.21-3.28V29.85h-9.06v39.28c0,5.16,3.13,10.38,10.59,10.38H433.11z M406.11,79.52
				V43.18h-9.06v21.98c0,4.95-3.21,6.63-6.08,6.63c-2.86,0-6.01-1.67-6.01-6.63V43.18h-9.06v23.23c0,3.98,0.77,7.39,3.69,10.32
				c2.02,2.02,4.95,3.2,8.58,3.2c3.35,0,6.7-1.26,9.08-3.76v3.34H406.11z M365.17,79.52V56c0-7.67-4.19-13.24-12.13-13.24
				c-3.21,0-6.28,1.25-8.73,3.76V29.85h-9.06v49.66h9.06V57.33c0-4.74,3-6.42,5.86-6.42c2.87,0,5.94,1.6,5.94,6.42v22.19H365.17z
				 M326.79,74.99l-6.14-6.07c-1.88,2.03-3.49,2.87-5.86,2.87c-2.16,0-3.84-0.77-5.16-2.38c-1.4-1.74-2.02-4.26-2.02-8.09
				s0.63-6.28,2.02-8.03c1.33-1.6,3-2.37,5.16-2.37c2.37,0,3.98,0.84,5.86,2.86l6.14-6.13c-3.21-3.35-6.98-4.88-12-4.88
				c-7.26,0-16.25,3.83-16.25,18.55s8.99,18.62,16.25,18.62C319.82,79.93,323.59,78.33,326.79,74.99 M291.36,68.08
				c0-6.14-3.63-9.98-10.81-10.67l-5.72-0.56c-3.21-0.28-3.77-1.81-3.77-3.14c0-1.81,1.53-3.49,5.16-3.49
				c3.14,0,6.35,0.56,8.44,2.44l5.58-5.65c-3.49-3.28-8.23-4.25-13.88-4.25c-7.4,0-14.02,4.04-14.02,11.57
				c0,6.7,4.05,9.56,10.6,10.19l5.72,0.56c2.86,0.28,3.84,1.53,3.84,3.35c0,2.73-3.28,3.77-6.42,3.77c-2.79,0-6.7-0.42-9.7-3.42
				l-5.93,5.93c4.6,4.6,9.77,5.23,15.49,5.23C284.52,79.93,291.36,76.1,291.36,68.08 M252.84,79.52V56
				c0-7.67-4.18-13.24-12.13-13.24c-3.21,0-6.28,1.25-8.73,3.76V29.85h-9.06v49.66h9.06V57.33c0-4.74,3-6.42,5.87-6.42
				c2.86,0,5.94,1.6,5.94,6.42v22.19H252.84z M214.47,74.99l-6.14-6.07c-1.88,2.03-3.49,2.87-5.86,2.87c-2.16,0-3.84-0.77-5.16-2.38
				c-1.4-1.74-2.02-4.26-2.02-8.09s0.63-6.28,2.02-8.03c1.33-1.6,3-2.37,5.16-2.37c2.37,0,3.98,0.84,5.86,2.86l6.14-6.13
				c-3.21-3.35-6.98-4.88-12-4.88c-7.26,0-16.24,3.83-16.24,18.55s8.99,18.62,16.24,18.62C207.49,79.93,211.26,78.33,214.47,74.99
				 M168.92,61.31c0,3.77-0.21,6.98-2.1,8.86c-1.05,1.05-2.44,1.61-4.26,1.61c-1.81,0-3.14-0.56-4.19-1.61
				c-1.88-1.88-2.09-5.09-2.09-8.86s0.21-6.91,2.09-8.8c1.05-1.05,2.38-1.6,4.19-1.6c1.81,0,3.21,0.56,4.26,1.6
				C168.71,54.4,168.92,57.54,168.92,61.31 M177.98,61.31c0-6.56-0.84-10.68-4.11-14.09c-2.23-2.37-5.93-4.46-11.3-4.46
				c-5.38,0-9.01,2.09-11.23,4.46c-3.28,3.41-4.11,7.53-4.11,14.09c0,6.63,0.83,10.75,4.11,14.16c2.23,2.37,5.86,4.46,11.23,4.46
				c5.37,0,9.07-2.09,11.3-4.46C177.14,72.06,177.98,67.94,177.98,61.31 M136.47,79.52V29.85h-9.69v20.3h-16.82v-20.3h-9.69v49.66
				h9.69V58.73h16.82v20.79H136.47z"/>
		</g>
		<g style="clip-path:url(#SVGID_00000002368246838721926180000012328241879285908127_);">
			<rect x="2.95" y="333.51" class="st3" width="948.1" height="3.22"/>
		</g>
		<g style="clip-path:url(#SVGID_00000002368246838721926180000012328241879285908127_);">
			<rect x="2.95" y="221.88" class="st3" width="948.1" height="3.22"/>
		</g>
		<g style="clip-path:url(#SVGID_00000002368246838721926180000012328241879285908127_);">
			<rect x="2.95" y="115.62" class="st3" width="948.1" height="3.22"/>
		</g>
		<g style="clip-path:url(#SVGID_00000002368246838721926180000012328241879285908127_);">
			<rect x="2.95" y="442.45" class="st3" width="948.1" height="3.22"/>
		</g>
		<g style="clip-path:url(#SVGID_00000002368246838721926180000012328241879285908127_);">
			<rect x="2.95" y="559.44" class="st3" width="948.1" height="3.22"/>
		</g>
		<g style="clip-path:url(#SVGID_00000002368246838721926180000012328241879285908127_);">
			<rect x="2.95" y="671.07" class="st3" width="948.1" height="3.22"/>
		</g>
		<g style="clip-path:url(#SVGID_00000002368246838721926180000012328241879285908127_);">
			<rect x="2.95" y="773.53" class="st3" width="948.1" height="3.22"/>
		</g>
		<g style="clip-path:url(#SVGID_00000002368246838721926180000012328241879285908127_);">
			<rect x="2.95" y="887.39" class="st3" width="948.1" height="3.22"/>
		</g>
		<g style="clip-path:url(#SVGID_00000002368246838721926180000012328241879285908127_);">
			<rect x="2.95" y="996.78" class="st3" width="948.1" height="3.22"/>
		</g>
		<g style="clip-path:url(#SVGID_00000002368246838721926180000012328241879285908127_);">
			<path class="st3" d="M667.4,616.03c0,3.21-2.24,5.51-5.41,5.51c-3.16,0-5.36-2.3-5.36-5.51c0-3.17,2.2-5.56,5.36-5.56
				C665.16,610.47,667.4,612.87,667.4,616.03 M667.96,632.09c0,3.36-2.6,6.02-5.97,6.02c-3.36,0-5.97-2.66-5.97-6.02
				c0-3.36,2.6-6.07,5.97-6.07C665.36,626.02,667.96,628.73,667.96,632.09 M673.21,632.19c0-4.34-2.45-6.99-4.99-8.51
				c2.34-1.43,4.38-3.98,4.38-7.8c0-6.07-4.69-10.04-10.6-10.04c-5.91,0-10.55,3.97-10.55,10.04c0,3.83,2.04,6.38,4.38,7.8
				c-2.54,1.52-4.99,4.18-4.99,8.51c0,6.58,4.94,10.55,11.16,10.55C668.22,642.74,673.21,638.77,673.21,632.19 M633.29,639.08
				l-3.52-3.47c-1.58,1.58-2.65,2.5-5,2.5c-4.18,0-6.32-2.91-6.32-8.62c0-5.61,2.14-8.57,6.32-8.57c2.29,0,3.47,0.92,5,2.45
				l3.52-3.41c-1.63-1.63-2.45-2.19-3.82-2.8c-1.33-0.56-2.86-0.86-4.64-0.86c-7.23,0-11.57,4.94-11.57,13.1
				c0,8.41,4.28,13.35,11.57,13.35c1.79,0,3.26-0.25,4.64-0.86C630.84,641.27,631.66,640.71,633.29,639.08 M600.92,633.11
				c0,3.77-1.63,5.31-5.66,5.31c-3.52,0-5.1-1.18-5.1-3.68c0-2.45,1.58-3.67,4.64-3.67h6.12V633.11z M606.07,642.44v-17.28
				c0-5.87-3.62-8.87-10.81-8.87c-2.45,0-4.28,0.31-5.76,1.01c-1.27,0.56-1.93,1.18-3.36,2.7l3.41,3.21
				c0.76-0.97,1.33-1.48,2.09-1.84c0.92-0.46,1.99-0.67,3.47-0.67c4.08,0,5.81,1.43,5.81,4.8v1.89h-6.94c-5.51,0-8.87,2.8-8.87,7.49
				c0,5,3.21,7.8,8.97,7.8c3.06,0,4.74-0.46,6.89-2.6v2.34H606.07z M578.23,642.44V616.6h-17.69v10.75c0,10-2.65,10.51-4.89,10.51
				h-0.82v4.58h2.45c5.04,0,8.25-2.85,8.25-13.81v-7.5h7.5v21.31H578.23z M532.14,642.44v-18.96l14.63,18.96h6.99l-15.25-19.16
				l13.97-17.13h-6.78l-13.56,17.23v-17.23h-5.5v36.29H532.14z M508.64,602.37h-5l-14.53,43.84h5L508.64,602.37z M467.66,616.03
				c0,3.21-2.25,5.51-5.41,5.51s-5.36-2.3-5.36-5.51c0-3.17,2.19-5.56,5.36-5.56S467.66,612.87,467.66,616.03 M468.21,632.09
				c0,3.36-2.6,6.02-5.97,6.02s-5.97-2.66-5.97-6.02c0-3.36,2.6-6.07,5.97-6.07S468.21,628.73,468.21,632.09 M473.46,632.19
				c0-4.34-2.44-6.99-4.99-8.51c2.34-1.43,4.38-3.98,4.38-7.8c0-6.07-4.69-10.04-10.6-10.04c-5.91,0-10.55,3.97-10.55,10.04
				c0,3.83,2.04,6.38,4.38,7.8c-2.54,1.52-4.99,4.18-4.99,8.51c0,6.58,4.94,10.55,11.16,10.55
				C468.47,642.74,473.46,638.77,473.46,632.19 M427.52,627.41H415.9c0.05-1.58,0.16-2.35,0.67-3.52c0.82-1.94,2.7-3.27,5.15-3.27
				c2.45,0,4.28,1.33,5.1,3.27C427.32,625.06,427.47,625.82,427.52,627.41 M432.68,631.02v-2.29c0-7.34-4.03-12.43-10.96-12.43
				c-6.63,0-10.95,4.84-10.95,13.2c0,9.84,5.14,13.25,11.62,13.25c4.53,0,7.04-1.37,9.69-4.02l-3.32-3.11
				c-1.84,1.84-3.36,2.65-6.27,2.65c-4.23,0-6.58-2.81-6.58-7.25H432.68z M405.25,634.54c0-4.59-2.86-6.89-7.7-7.29l-4.08-0.35
				c-2.75-0.26-3.57-1.43-3.57-2.96c0-1.94,1.58-3.32,4.69-3.32c2.45,0,4.74,0.51,6.37,1.89l3.26-3.32c-2.39-2.09-5.71-2.9-9.58-2.9
				c-5.4,0-9.74,2.85-9.74,7.89c0,4.54,2.8,6.74,7.65,7.14l4.13,0.35c2.5,0.2,3.47,1.33,3.47,3.06c0,2.45-2.5,3.57-5.66,3.57
				c-2.55,0-5.36-0.56-7.44-2.7l-3.42,3.42c3.06,3,6.63,3.71,10.86,3.71C400.66,642.74,405.25,639.94,405.25,634.54 M379.6,634.54
				c0-4.59-2.86-6.89-7.7-7.29l-4.08-0.35c-2.75-0.26-3.57-1.43-3.57-2.96c0-1.94,1.58-3.32,4.69-3.32c2.45,0,4.74,0.51,6.38,1.89
				l3.26-3.32c-2.4-2.09-5.71-2.9-9.58-2.9c-5.4,0-9.74,2.85-9.74,7.89c0,4.54,2.81,6.74,7.65,7.14l4.13,0.35
				c2.5,0.2,3.47,1.33,3.47,3.06c0,2.45-2.5,3.57-5.66,3.57c-2.55,0-5.35-0.56-7.44-2.7l-3.41,3.42c3.06,3,6.63,3.71,10.86,3.71
				C375.02,642.74,379.6,639.94,379.6,634.54 M346.77,633.11c0,1.84-0.35,3.06-1.12,3.83c-1.37,1.33-2.86,1.48-4.85,1.48
				c-3.26,0-4.74-1.33-4.74-3.68c0-2.35,1.58-3.72,4.64-3.72h6.07V633.11z M351.97,642.44v-17.28c0-5.87-3.56-8.87-10.65-8.87
				c-4.28,0-6.83,0.86-9.27,3.71l3.41,3.21c1.43-1.84,2.81-2.5,5.66-2.5c4.03,0,5.66,1.58,5.66,4.85v1.84h-6.83
				c-5.91,0-8.92,3.1-8.92,7.44c0,2.19,0.71,4.19,2.04,5.56c1.58,1.58,3.71,2.34,6.93,2.34s5-0.76,6.89-2.65v2.34H351.97z
				 M326.73,642.44v-4.43h-2.3c-2.09,0-2.8-1.02-2.8-3.01v-28.86h-5.19v29.16c0,3.82,2.14,7.13,7.08,7.13H326.73z M311.44,642.44
				l-13-22.07l11.78-14.22h-6.73l-14.83,18.25v-18.25h-5.5v36.29h5.5v-10.55l6.12-7.34l10.2,17.89H311.44z"/>
		</g>
		<g style="clip-path:url(#SVGID_00000002368246838721926180000012328241879285908127_);">
			<path class="st3" d="M667.55,845.87c0,3.87-2.29,6.33-5.56,6.33c-3.26,0-5.51-2.45-5.51-6.33c0-3.93,2.24-6.27,5.51-6.27
				C665.47,839.6,667.55,842.3,667.55,845.87 M672.75,845.77c0-6.38-4.28-10.5-9.53-10.5c-1.12,0-2.24,0.15-3.21,0.56l7.8-15.6
				h-5.56l-8.26,16.82c-1.58,3.16-2.7,5.96-2.7,8.92c0,6.74,4.48,10.86,10.75,10.86C668.32,856.83,672.75,852.45,672.75,845.77
				 M633.29,853.16l-3.52-3.47c-1.58,1.58-2.65,2.5-5,2.5c-4.18,0-6.32-2.91-6.32-8.62c0-5.61,2.14-8.57,6.32-8.57
				c2.29,0,3.47,0.92,5,2.45l3.52-3.41c-1.63-1.63-2.45-2.19-3.82-2.8c-1.33-0.56-2.86-0.86-4.64-0.86
				c-7.23,0-11.57,4.94-11.57,13.1c0,8.41,4.28,13.35,11.57,13.35c1.79,0,3.26-0.25,4.64-0.86
				C630.84,855.35,631.66,854.79,633.29,853.16 M600.92,847.2c0,3.77-1.63,5.31-5.66,5.31c-3.52,0-5.1-1.18-5.1-3.68
				c0-2.45,1.58-3.68,4.64-3.68h6.12V847.2z M606.07,856.52v-17.28c0-5.87-3.62-8.87-10.81-8.87c-2.45,0-4.28,0.31-5.76,1.01
				c-1.27,0.56-1.93,1.18-3.36,2.7l3.41,3.21c0.76-0.97,1.33-1.48,2.09-1.84c0.92-0.46,1.99-0.67,3.47-0.67
				c4.08,0,5.81,1.43,5.81,4.8v1.89h-6.94c-5.51,0-8.87,2.8-8.87,7.49c0,5,3.21,7.79,8.97,7.79c3.06,0,4.74-0.46,6.89-2.59v2.34
				H606.07z M578.23,856.52v-25.84h-17.69v10.75c0,10-2.65,10.51-4.89,10.51h-0.82v4.58h2.45c5.04,0,8.25-2.85,8.25-13.81v-7.5h7.5
				v21.31H578.23z M532.14,856.52v-18.96l14.63,18.96h6.99l-15.25-19.16l13.97-17.13h-6.78l-13.56,17.23v-17.23h-5.5v36.29H532.14z
				 M508.64,816.45h-5l-14.53,43.84h5L508.64,816.45z M467.81,845.87c0,3.87-2.3,6.33-5.56,6.33c-3.26,0-5.51-2.45-5.51-6.33
				c0-3.93,2.25-6.27,5.51-6.27C465.71,839.6,467.81,842.3,467.81,845.87 M473,845.77c0-6.38-4.28-10.5-9.53-10.5
				c-1.12,0-2.24,0.15-3.21,0.56l7.81-15.6h-5.56l-8.26,16.82c-1.58,3.16-2.7,5.96-2.7,8.92c0,6.74,4.48,10.86,10.75,10.86
				C468.57,856.83,473,852.45,473,845.77 M427.52,841.49H415.9c0.05-1.58,0.16-2.35,0.67-3.52c0.82-1.94,2.7-3.27,5.15-3.27
				c2.45,0,4.28,1.33,5.1,3.27C427.32,839.14,427.47,839.91,427.52,841.49 M432.68,845.1v-2.29c0-7.34-4.03-12.43-10.96-12.43
				c-6.63,0-10.95,4.84-10.95,13.2c0,9.84,5.14,13.26,11.62,13.26c4.53,0,7.04-1.37,9.69-4.02l-3.32-3.11
				c-1.84,1.84-3.36,2.65-6.27,2.65c-4.23,0-6.58-2.81-6.58-7.24H432.68z M405.25,848.62c0-4.59-2.86-6.89-7.7-7.29l-4.08-0.35
				c-2.75-0.26-3.57-1.43-3.57-2.96c0-1.94,1.58-3.32,4.69-3.32c2.45,0,4.74,0.51,6.37,1.89l3.26-3.32c-2.39-2.09-5.71-2.9-9.58-2.9
				c-5.4,0-9.74,2.85-9.74,7.89c0,4.54,2.8,6.74,7.65,7.14l4.13,0.35c2.5,0.2,3.47,1.33,3.47,3.06c0,2.45-2.5,3.57-5.66,3.57
				c-2.55,0-5.36-0.56-7.44-2.7l-3.42,3.41c3.06,3.01,6.63,3.72,10.86,3.72C400.66,856.83,405.25,854.03,405.25,848.62
				 M379.6,848.62c0-4.59-2.86-6.89-7.7-7.29l-4.08-0.35c-2.75-0.26-3.57-1.43-3.57-2.96c0-1.94,1.58-3.32,4.69-3.32
				c2.45,0,4.74,0.51,6.38,1.89l3.26-3.32c-2.4-2.09-5.71-2.9-9.58-2.9c-5.4,0-9.74,2.85-9.74,7.89c0,4.54,2.81,6.74,7.65,7.14
				l4.13,0.35c2.5,0.2,3.47,1.33,3.47,3.06c0,2.45-2.5,3.57-5.66,3.57c-2.55,0-5.35-0.56-7.44-2.7l-3.41,3.41
				c3.06,3.01,6.63,3.72,10.86,3.72C375.02,856.83,379.6,854.03,379.6,848.62 M346.77,847.2c0,1.84-0.35,3.06-1.12,3.83
				c-1.37,1.33-2.86,1.48-4.85,1.48c-3.26,0-4.74-1.33-4.74-3.68c0-2.35,1.58-3.72,4.64-3.72h6.07V847.2z M351.97,856.52v-17.28
				c0-5.87-3.56-8.87-10.65-8.87c-4.28,0-6.83,0.86-9.27,3.71l3.41,3.21c1.43-1.84,2.81-2.5,5.66-2.5c4.03,0,5.66,1.58,5.66,4.85
				v1.84h-6.83c-5.91,0-8.92,3.1-8.92,7.44c0,2.2,0.71,4.19,2.04,5.56c1.58,1.58,3.71,2.34,6.93,2.34s5-0.76,6.89-2.65v2.34H351.97z
				 M326.73,856.52v-4.43h-2.3c-2.09,0-2.8-1.02-2.8-3.01v-28.86h-5.19v29.16c0,3.82,2.14,7.13,7.08,7.13H326.73z M311.44,856.52
				l-13-22.07l11.78-14.22h-6.73l-14.83,18.25v-18.25h-5.5v36.29h5.5v-10.55l6.12-7.34l10.2,17.89H311.44z"/>
		</g>
		<g style="clip-path:url(#SVGID_00000002368246838721926180000012328241879285908127_);">
			<path class="st3" d="M672.85,950.65c0-3.42-0.41-6.94-3.16-9.69c-1.48-1.48-3.67-2.35-6.53-2.35c-2.65,0-4.8,0.82-6.02,2.09
				v-9.59h14.89v-4.63h-19.57v19.83h4.74c0.56-1.79,2.19-3.27,5.15-3.27c4.18,0,5.3,3.27,5.3,7.6c0,2.45-0.2,4.84-1.73,6.38
				c-0.92,0.92-2.24,1.43-3.77,1.43c-3.27,0-4.9-1.84-5.31-5.05h-5.19c0.2,2.6,0.82,5,2.75,6.93c1.58,1.58,4.28,2.8,7.75,2.8
				c3.52,0,6.02-1.22,7.65-2.85C672.44,957.64,672.85,954.53,672.85,950.65 M633.29,959.42l-3.52-3.47c-1.58,1.58-2.65,2.5-5,2.5
				c-4.18,0-6.32-2.91-6.32-8.62c0-5.61,2.14-8.57,6.32-8.57c2.29,0,3.47,0.92,5,2.45l3.52-3.41c-1.63-1.63-2.45-2.19-3.82-2.8
				c-1.33-0.56-2.86-0.86-4.64-0.86c-7.23,0-11.57,4.94-11.57,13.1c0,8.41,4.28,13.35,11.57,13.35c1.79,0,3.26-0.25,4.64-0.86
				C630.84,961.61,631.66,961.05,633.29,959.42 M600.92,953.46c0,3.77-1.63,5.31-5.66,5.31c-3.52,0-5.1-1.18-5.1-3.68
				c0-2.45,1.58-3.67,4.64-3.67h6.12V953.46z M606.07,962.78V945.5c0-5.87-3.62-8.87-10.81-8.87c-2.45,0-4.28,0.31-5.76,1.01
				c-1.27,0.56-1.93,1.18-3.36,2.7l3.41,3.21c0.76-0.97,1.33-1.48,2.09-1.84c0.92-0.46,1.99-0.67,3.47-0.67
				c4.08,0,5.81,1.43,5.81,4.8v1.89h-6.94c-5.51,0-8.87,2.8-8.87,7.49c0,5,3.21,7.8,8.97,7.8c3.06,0,4.74-0.46,6.89-2.6v2.34H606.07
				z M578.23,962.78v-25.84h-17.69v10.75c0,10-2.65,10.51-4.89,10.51h-0.82v4.58h2.45c5.04,0,8.25-2.85,8.25-13.81v-7.5h7.5v21.31
				H578.23z M532.14,962.78v-18.96l14.63,18.96h6.99l-15.25-19.16l13.97-17.13h-6.78l-13.56,17.23v-17.23h-5.5v36.29H532.14z
				 M508.64,922.72h-5l-14.53,43.84h5L508.64,922.72z M473.1,950.65c0-3.42-0.41-6.94-3.16-9.69c-1.48-1.48-3.67-2.35-6.53-2.35
				c-2.66,0-4.8,0.82-6.02,2.09v-9.59h14.89v-4.63h-19.57v19.83h4.73c0.56-1.79,2.19-3.27,5.16-3.27c4.18,0,5.3,3.27,5.3,7.6
				c0,2.45-0.2,4.84-1.73,6.38c-0.92,0.92-2.24,1.43-3.77,1.43c-3.27,0-4.9-1.84-5.31-5.05h-5.19c0.2,2.6,0.82,5,2.75,6.93
				c1.58,1.58,4.28,2.8,7.75,2.8c3.52,0,6.02-1.22,7.65-2.85C472.69,957.64,473.1,954.53,473.1,950.65 M427.52,947.75H415.9
				c0.05-1.58,0.16-2.35,0.67-3.52c0.82-1.94,2.7-3.27,5.15-3.27c2.45,0,4.28,1.33,5.1,3.27
				C427.32,945.4,427.47,946.17,427.52,947.75 M432.68,951.36v-2.29c0-7.34-4.03-12.43-10.96-12.43c-6.63,0-10.95,4.84-10.95,13.2
				c0,9.84,5.14,13.26,11.62,13.26c4.53,0,7.04-1.37,9.69-4.02l-3.32-3.11c-1.84,1.84-3.36,2.65-6.27,2.65
				c-4.23,0-6.58-2.81-6.58-7.25H432.68z M405.25,954.88c0-4.59-2.86-6.89-7.7-7.29l-4.08-0.35c-2.75-0.26-3.57-1.43-3.57-2.96
				c0-1.94,1.58-3.32,4.69-3.32c2.45,0,4.74,0.51,6.37,1.89l3.26-3.32c-2.39-2.09-5.71-2.9-9.58-2.9c-5.4,0-9.74,2.85-9.74,7.89
				c0,4.54,2.8,6.74,7.65,7.14l4.13,0.35c2.5,0.2,3.47,1.33,3.47,3.06c0,2.45-2.5,3.57-5.66,3.57c-2.55,0-5.36-0.56-7.44-2.7
				l-3.42,3.41c3.06,3.01,6.63,3.72,10.86,3.72C400.66,963.09,405.25,960.29,405.25,954.88 M379.6,954.88c0-4.59-2.86-6.89-7.7-7.29
				l-4.08-0.35c-2.75-0.26-3.57-1.43-3.57-2.96c0-1.94,1.58-3.32,4.69-3.32c2.45,0,4.74,0.51,6.38,1.89l3.26-3.32
				c-2.4-2.09-5.71-2.9-9.58-2.9c-5.4,0-9.74,2.85-9.74,7.89c0,4.54,2.81,6.74,7.65,7.14l4.13,0.35c2.5,0.2,3.47,1.33,3.47,3.06
				c0,2.45-2.5,3.57-5.66,3.57c-2.55,0-5.35-0.56-7.44-2.7l-3.41,3.41c3.06,3.01,6.63,3.72,10.86,3.72
				C375.02,963.09,379.6,960.29,379.6,954.88 M346.77,953.46c0,1.84-0.35,3.06-1.12,3.83c-1.37,1.33-2.86,1.48-4.85,1.48
				c-3.26,0-4.74-1.33-4.74-3.68c0-2.35,1.58-3.72,4.64-3.72h6.07V953.46z M351.97,962.78V945.5c0-5.87-3.56-8.87-10.65-8.87
				c-4.28,0-6.83,0.86-9.27,3.71l3.41,3.21c1.43-1.84,2.81-2.5,5.66-2.5c4.03,0,5.66,1.58,5.66,4.85v1.84h-6.83
				c-5.91,0-8.92,3.1-8.92,7.44c0,2.19,0.71,4.19,2.04,5.56c1.58,1.58,3.71,2.34,6.93,2.34s5-0.76,6.89-2.65v2.34H351.97z
				 M326.73,962.78v-4.43h-2.3c-2.09,0-2.8-1.02-2.8-3.01v-28.86h-5.19v29.16c0,3.82,2.14,7.13,7.08,7.13H326.73z M311.44,962.78
				l-13-22.07l11.78-14.22h-6.73l-14.83,18.25v-18.25h-5.5v36.29h5.5v-10.55l6.12-7.34l10.2,17.89H311.44z"/>
		</g>
		<g style="clip-path:url(#SVGID_00000002368246838721926180000012328241879285908127_);">
			<path class="st3" d="M667.55,499.8c0,3.93-2.29,6.27-5.56,6.27c-3.47,0-5.51-2.7-5.51-6.27c0-3.87,2.24-6.32,5.51-6.32
				C665.26,493.48,667.55,495.93,667.55,499.8 M672.75,499.7c0-6.73-4.48-10.86-10.75-10.86s-10.7,4.38-10.7,11.06
				c0,6.38,4.22,10.5,9.48,10.5c1.12,0,2.3-0.16,3.27-0.56l-7.81,15.6h5.56l8.26-16.82C671.63,505.46,672.75,502.66,672.75,499.7
				 M633.29,522.09l-3.52-3.47c-1.58,1.58-2.65,2.5-5,2.5c-4.18,0-6.32-2.91-6.32-8.62c0-5.61,2.14-8.57,6.32-8.57
				c2.29,0,3.47,0.92,5,2.45l3.52-3.41c-1.63-1.63-2.45-2.19-3.82-2.8c-1.33-0.56-2.86-0.86-4.64-0.86
				c-7.23,0-11.57,4.94-11.57,13.1c0,8.41,4.28,13.35,11.57,13.35c1.79,0,3.26-0.25,4.64-0.86
				C630.84,524.28,631.66,523.72,633.29,522.09 M600.92,516.12c0,3.77-1.63,5.31-5.66,5.31c-3.52,0-5.1-1.18-5.1-3.68
				c0-2.45,1.58-3.67,4.64-3.67h6.12V516.12z M606.07,525.45v-17.28c0-5.87-3.62-8.87-10.81-8.87c-2.45,0-4.28,0.31-5.76,1.01
				c-1.27,0.56-1.93,1.18-3.36,2.7l3.41,3.21c0.76-0.97,1.33-1.48,2.09-1.84c0.92-0.46,1.99-0.67,3.47-0.67
				c4.08,0,5.81,1.43,5.81,4.8v1.89h-6.94c-5.51,0-8.87,2.8-8.87,7.49c0,5,3.21,7.8,8.97,7.8c3.06,0,4.74-0.46,6.89-2.6v2.34H606.07
				z M578.23,525.45V499.6h-17.69v10.75c0,10-2.65,10.51-4.89,10.51h-0.82v4.58h2.45c5.04,0,8.25-2.85,8.25-13.81v-7.5h7.5v21.31
				H578.23z M532.14,525.45v-18.96l14.63,18.96h6.99l-15.25-19.16l13.97-17.13h-6.78l-13.56,17.23v-17.23h-5.5v36.29H532.14z
				 M508.64,485.38h-5l-14.53,43.84h5L508.64,485.38z M467.81,499.8c0,3.93-2.3,6.27-5.56,6.27c-3.47,0-5.51-2.7-5.51-6.27
				c0-3.87,2.25-6.32,5.51-6.32C465.51,493.48,467.81,495.93,467.81,499.8 M473,499.7c0-6.73-4.48-10.86-10.75-10.86
				c-6.27,0-10.7,4.38-10.7,11.06c0,6.38,4.22,10.5,9.48,10.5c1.12,0,2.3-0.16,3.26-0.56l-7.8,15.6h5.56l8.26-16.82
				C471.88,505.46,473,502.66,473,499.7 M427.52,510.41H415.9c0.05-1.58,0.16-2.35,0.67-3.52c0.82-1.94,2.7-3.27,5.15-3.27
				c2.45,0,4.28,1.33,5.1,3.27C427.32,508.06,427.47,508.83,427.52,510.41 M432.68,514.02v-2.29c0-7.34-4.03-12.43-10.96-12.43
				c-6.63,0-10.95,4.84-10.95,13.2c0,9.84,5.14,13.25,11.62,13.25c4.53,0,7.04-1.37,9.69-4.02l-3.32-3.11
				c-1.84,1.84-3.36,2.65-6.27,2.65c-4.23,0-6.58-2.81-6.58-7.24H432.68z M405.25,517.55c0-4.59-2.86-6.89-7.7-7.29l-4.08-0.35
				c-2.75-0.26-3.57-1.43-3.57-2.96c0-1.94,1.58-3.32,4.69-3.32c2.45,0,4.74,0.51,6.37,1.89l3.26-3.32c-2.39-2.09-5.71-2.9-9.58-2.9
				c-5.4,0-9.74,2.85-9.74,7.89c0,4.54,2.8,6.74,7.65,7.14l4.13,0.35c2.5,0.2,3.47,1.33,3.47,3.06c0,2.45-2.5,3.57-5.66,3.57
				c-2.55,0-5.36-0.56-7.44-2.7l-3.42,3.42c3.06,3,6.63,3.71,10.86,3.71C400.66,525.75,405.25,522.95,405.25,517.55 M379.6,517.55
				c0-4.59-2.86-6.89-7.7-7.29l-4.08-0.35c-2.75-0.26-3.57-1.43-3.57-2.96c0-1.94,1.58-3.32,4.69-3.32c2.45,0,4.74,0.51,6.38,1.89
				l3.26-3.32c-2.4-2.09-5.71-2.9-9.58-2.9c-5.4,0-9.74,2.85-9.74,7.89c0,4.54,2.81,6.74,7.65,7.14l4.13,0.35
				c2.5,0.2,3.47,1.33,3.47,3.06c0,2.45-2.5,3.57-5.66,3.57c-2.55,0-5.35-0.56-7.44-2.7l-3.41,3.42c3.06,3,6.63,3.71,10.86,3.71
				C375.02,525.75,379.6,522.95,379.6,517.55 M346.77,516.12c0,1.84-0.35,3.06-1.12,3.83c-1.37,1.33-2.86,1.48-4.85,1.48
				c-3.26,0-4.74-1.33-4.74-3.68c0-2.35,1.58-3.72,4.64-3.72h6.07V516.12z M351.97,525.45v-17.28c0-5.87-3.56-8.87-10.65-8.87
				c-4.28,0-6.83,0.86-9.27,3.71l3.41,3.21c1.43-1.84,2.81-2.5,5.66-2.5c4.03,0,5.66,1.58,5.66,4.85v1.84h-6.83
				c-5.91,0-8.92,3.1-8.92,7.44c0,2.2,0.71,4.19,2.04,5.56c1.58,1.58,3.71,2.34,6.93,2.34s5-0.76,6.89-2.65v2.34H351.97z
				 M326.73,525.45v-4.43h-2.3c-2.09,0-2.8-1.02-2.8-3.01v-28.86h-5.19v29.16c0,3.82,2.14,7.13,7.08,7.13H326.73z M311.44,525.45
				l-13-22.07l11.78-14.22h-6.73l-14.83,18.25v-18.25h-5.5v36.29h5.5v-10.55l6.12-7.34l10.2,17.89H311.44z"/>
		</g>
		<g style="clip-path:url(#SVGID_00000002368246838721926180000012328241879285908127_);">
			<path class="st3" d="M694.99,403.57c0,3.52-1.99,5.92-5.31,5.92c-3.32,0-5.25-2.4-5.25-5.92v-15.8c0-3.52,1.94-5.91,5.25-5.91
				c3.32,0,5.31,2.39,5.31,5.91V403.57z M700.18,403.73v-16.12c0-6.47-4.74-10.4-10.5-10.4c-5.76,0-10.45,3.92-10.45,10.4v16.12
				c0,6.48,4.69,10.4,10.45,10.4C695.44,414.12,700.18,410.21,700.18,403.73 M666.53,413.82v-36.29h-5.19l-7.09,6.12v5.76l7.09-6.21
				v30.63H666.53z M633.29,410.46l-3.52-3.47c-1.58,1.58-2.65,2.5-5,2.5c-4.18,0-6.32-2.91-6.32-8.62c0-5.61,2.14-8.57,6.32-8.57
				c2.3,0,3.47,0.92,5,2.45l3.52-3.41c-1.63-1.63-2.45-2.19-3.83-2.8c-1.33-0.56-2.86-0.86-4.64-0.86c-7.24,0-11.57,4.94-11.57,13.1
				c0,8.41,4.28,13.35,11.57,13.35c1.78,0,3.26-0.25,4.64-0.86C630.84,412.65,631.66,412.09,633.29,410.46 M600.92,404.49
				c0,3.77-1.64,5.31-5.67,5.31c-3.52,0-5.1-1.18-5.1-3.68c0-2.45,1.58-3.67,4.64-3.67h6.12V404.49z M606.06,413.82v-17.28
				c0-5.87-3.62-8.87-10.81-8.87c-2.45,0-4.28,0.31-5.76,1.01c-1.28,0.56-1.94,1.18-3.36,2.7l3.41,3.21
				c0.76-0.97,1.33-1.48,2.09-1.84c0.92-0.46,1.99-0.67,3.47-0.67c4.08,0,5.82,1.43,5.82,4.8v1.89h-6.94c-5.51,0-8.87,2.8-8.87,7.49
				c0,5,3.2,7.8,8.97,7.8c3.06,0,4.74-0.46,6.89-2.6v2.34H606.06z M578.23,413.82v-25.84h-17.68v10.75c0,10-2.65,10.51-4.89,10.51
				h-0.82v4.58h2.45c5.04,0,8.25-2.85,8.25-13.81v-7.5h7.5v21.31H578.23z M532.14,413.82v-18.96l14.63,18.96h6.99l-15.25-19.16
				l13.97-17.13h-6.78l-13.56,17.23v-17.23h-5.5v36.29H532.14z M508.64,373.75h-5l-14.53,43.84h5L508.64,373.75z M467.55,403.57
				c0,3.52-1.99,5.92-5.31,5.92c-3.31,0-5.25-2.4-5.25-5.92v-15.8c0-3.52,1.94-5.91,5.25-5.91c3.32,0,5.31,2.39,5.31,5.91V403.57z
				 M472.75,403.73v-16.12c0-6.47-4.74-10.4-10.5-10.4c-5.76,0-10.44,3.92-10.44,10.4v16.12c0,6.48,4.68,10.4,10.44,10.4
				C468.01,414.12,472.75,410.21,472.75,403.73 M439.1,413.82v-36.29h-5.19l-7.08,6.12v5.76l7.08-6.21v30.63H439.1z M399.84,398.79
				h-11.62c0.05-1.58,0.16-2.35,0.67-3.52c0.82-1.94,2.7-3.27,5.15-3.27c2.45,0,4.28,1.33,5.1,3.27
				C399.64,396.44,399.79,397.2,399.84,398.79 M404.99,402.4v-2.29c0-7.34-4.03-12.43-10.96-12.43c-6.63,0-10.95,4.84-10.95,13.2
				c0,9.84,5.14,13.25,11.62,13.25c4.53,0,7.04-1.37,9.69-4.02l-3.32-3.11c-1.84,1.84-3.36,2.65-6.27,2.65
				c-4.23,0-6.58-2.81-6.58-7.25H404.99z M377.56,405.92c0-4.59-2.86-6.89-7.7-7.29l-4.08-0.35c-2.75-0.26-3.57-1.43-3.57-2.96
				c0-1.94,1.58-3.32,4.69-3.32c2.45,0,4.74,0.51,6.37,1.89l3.26-3.32c-2.39-2.09-5.71-2.9-9.58-2.9c-5.4,0-9.74,2.85-9.74,7.89
				c0,4.54,2.8,6.74,7.65,7.14l4.13,0.35c2.5,0.2,3.47,1.33,3.47,3.06c0,2.45-2.5,3.57-5.66,3.57c-2.55,0-5.36-0.56-7.44-2.7
				l-3.42,3.42c3.06,3,6.63,3.71,10.86,3.71C372.97,414.12,377.56,411.32,377.56,405.92 M351.92,405.92c0-4.59-2.86-6.89-7.7-7.29
				l-4.08-0.35c-2.75-0.26-3.57-1.43-3.57-2.96c0-1.94,1.58-3.32,4.69-3.32c2.45,0,4.74,0.51,6.38,1.89l3.26-3.32
				c-2.4-2.09-5.71-2.9-9.58-2.9c-5.4,0-9.74,2.85-9.74,7.89c0,4.54,2.81,6.74,7.65,7.14l4.13,0.35c2.5,0.2,3.47,1.33,3.47,3.06
				c0,2.45-2.5,3.57-5.66,3.57c-2.55,0-5.35-0.56-7.44-2.7l-3.41,3.42c3.06,3,6.63,3.71,10.86,3.71
				C347.33,414.12,351.92,411.32,351.92,405.92 M319.09,404.49c0,1.84-0.35,3.06-1.12,3.83c-1.37,1.33-2.86,1.48-4.85,1.48
				c-3.26,0-4.74-1.33-4.74-3.68c0-2.35,1.58-3.72,4.64-3.72h6.07V404.49z M324.28,413.82v-17.28c0-5.87-3.56-8.87-10.65-8.87
				c-4.28,0-6.83,0.86-9.27,3.71l3.41,3.21c1.43-1.84,2.81-2.5,5.66-2.5c4.03,0,5.66,1.58,5.66,4.85v1.84h-6.83
				c-5.91,0-8.92,3.1-8.92,7.44c0,2.19,0.71,4.19,2.04,5.56c1.58,1.58,3.71,2.34,6.93,2.34c3.21,0,5-0.76,6.89-2.65v2.34H324.28z
				 M299.05,413.82v-4.43h-2.3c-2.09,0-2.8-1.02-2.8-3.01v-28.86h-5.19v29.16c0,3.82,2.14,7.13,7.08,7.13H299.05z M283.75,413.82
				l-13-22.07l11.78-14.22h-6.73l-14.83,18.25v-18.25h-5.5v36.29h5.5v-10.55l6.12-7.34l10.2,17.89H283.75z"/>
		</g>
		<g style="clip-path:url(#SVGID_00000002368246838721926180000012328241879285908127_);">
			<path class="st3" d="M694.21,302.19V265.9h-5.2l-7.08,6.12v5.76l7.08-6.21v30.63H694.21z M666.53,302.19V265.9h-5.19l-7.09,6.12
				v5.76l7.09-6.21v30.63H666.53z M633.29,298.83l-3.52-3.47c-1.58,1.58-2.65,2.5-5,2.5c-4.18,0-6.32-2.91-6.32-8.62
				c0-5.61,2.14-8.57,6.32-8.57c2.3,0,3.47,0.92,5,2.45l3.52-3.41c-1.63-1.63-2.45-2.19-3.83-2.8c-1.33-0.56-2.86-0.86-4.64-0.86
				c-7.24,0-11.57,4.94-11.57,13.1c0,8.41,4.28,13.35,11.57,13.35c1.78,0,3.26-0.25,4.64-0.86
				C630.84,301.02,631.66,300.46,633.29,298.83 M600.92,292.86c0,3.77-1.64,5.31-5.67,5.31c-3.52,0-5.1-1.18-5.1-3.68
				c0-2.45,1.58-3.67,4.64-3.67h6.12V292.86z M606.06,302.19v-17.28c0-5.87-3.62-8.87-10.81-8.87c-2.45,0-4.28,0.31-5.76,1.01
				c-1.28,0.56-1.94,1.18-3.36,2.7l3.41,3.21c0.76-0.97,1.33-1.48,2.09-1.84c0.92-0.46,1.99-0.67,3.47-0.67
				c4.08,0,5.82,1.43,5.82,4.8v1.89h-6.94c-5.51,0-8.87,2.8-8.87,7.49c0,5,3.2,7.8,8.97,7.8c3.06,0,4.74-0.46,6.89-2.6v2.34H606.06z
				 M578.23,302.19v-25.84h-17.68v10.75c0,10-2.65,10.51-4.89,10.51h-0.82v4.58h2.45c5.04,0,8.25-2.85,8.25-13.81v-7.5h7.5v21.31
				H578.23z M532.14,302.19v-18.96l14.63,18.96h6.99l-15.25-19.16l13.97-17.13h-6.78l-13.56,17.23V265.9h-5.5v36.29H532.14z
				 M508.64,262.12h-5l-14.53,43.84h5L508.64,262.12z M466.78,302.19V265.9h-5.19l-7.09,6.12v5.76l7.09-6.21v30.63H466.78z
				 M439.1,302.19V265.9h-5.19l-7.08,6.12v5.76l7.08-6.21v30.63H439.1z M399.84,287.16h-11.62c0.05-1.58,0.16-2.35,0.67-3.52
				c0.82-1.94,2.7-3.27,5.15-3.27c2.45,0,4.28,1.33,5.1,3.27C399.64,284.81,399.79,285.58,399.84,287.16 M404.99,290.77v-2.29
				c0-7.34-4.03-12.43-10.96-12.43c-6.63,0-10.95,4.84-10.95,13.2c0,9.84,5.14,13.26,11.62,13.26c4.53,0,7.04-1.37,9.69-4.02
				l-3.32-3.11c-1.84,1.84-3.36,2.65-6.27,2.65c-4.23,0-6.58-2.81-6.58-7.25H404.99z M377.56,294.29c0-4.59-2.86-6.89-7.7-7.29
				l-4.08-0.35c-2.75-0.26-3.57-1.43-3.57-2.96c0-1.94,1.58-3.32,4.69-3.32c2.45,0,4.74,0.51,6.37,1.89l3.26-3.32
				c-2.39-2.09-5.71-2.9-9.58-2.9c-5.4,0-9.74,2.85-9.74,7.89c0,4.54,2.8,6.74,7.65,7.14l4.13,0.35c2.5,0.2,3.47,1.33,3.47,3.06
				c0,2.45-2.5,3.57-5.66,3.57c-2.55,0-5.36-0.56-7.44-2.7l-3.42,3.41c3.06,3.01,6.63,3.72,10.86,3.72
				C372.97,302.5,377.56,299.7,377.56,294.29 M351.92,294.29c0-4.59-2.86-6.89-7.7-7.29l-4.08-0.35c-2.75-0.26-3.57-1.43-3.57-2.96
				c0-1.94,1.58-3.32,4.69-3.32c2.45,0,4.74,0.51,6.38,1.89l3.26-3.32c-2.4-2.09-5.71-2.9-9.58-2.9c-5.4,0-9.74,2.85-9.74,7.89
				c0,4.54,2.81,6.74,7.65,7.14l4.13,0.35c2.5,0.2,3.47,1.33,3.47,3.06c0,2.45-2.5,3.57-5.66,3.57c-2.55,0-5.35-0.56-7.44-2.7
				l-3.41,3.41c3.06,3.01,6.63,3.72,10.86,3.72C347.33,302.5,351.92,299.7,351.92,294.29 M319.09,292.86c0,1.84-0.35,3.06-1.12,3.83
				c-1.37,1.33-2.86,1.48-4.85,1.48c-3.26,0-4.74-1.33-4.74-3.68c0-2.35,1.58-3.72,4.64-3.72h6.07V292.86z M324.28,302.19v-17.28
				c0-5.87-3.56-8.87-10.65-8.87c-4.28,0-6.83,0.86-9.27,3.71l3.41,3.21c1.43-1.84,2.81-2.5,5.66-2.5c4.03,0,5.66,1.58,5.66,4.85
				v1.84h-6.83c-5.91,0-8.92,3.1-8.92,7.44c0,2.19,0.71,4.19,2.04,5.56c1.58,1.58,3.71,2.34,6.93,2.34c3.21,0,5-0.76,6.89-2.65v2.34
				H324.28z M299.05,302.19v-4.43h-2.3c-2.09,0-2.8-1.02-2.8-3.01V265.9h-5.19v29.16c0,3.82,2.14,7.13,7.08,7.13H299.05z
				 M283.75,302.19l-13-22.07l11.78-14.22h-6.73l-14.83,18.25V265.9h-5.5v36.29h5.5v-10.55l6.12-7.34l10.2,17.89H283.75z"/>
		</g>
		<g style="clip-path:url(#SVGID_00000002368246838721926180000012328241879285908127_);">
			<path class="st3" d="M700.43,190.56v-4.63h-14.78l11.37-13.92c2.24-2.76,3.41-4.64,3.41-7.86c0-6.27-4.28-10.19-10.5-10.19
				c-6.17,0-10.55,4.07-10.55,10.25h5.2c0-4.08,2.6-5.61,5.35-5.61c3.36,0,5.3,2.25,5.3,5.51c0,1.84-0.56,3.16-1.94,4.84
				l-13.97,16.99v4.63H700.43z M666.53,190.56v-36.29h-5.19l-7.09,6.12v5.76l7.09-6.21v30.63H666.53z M633.29,187.2l-3.52-3.47
				c-1.58,1.58-2.65,2.5-5,2.5c-4.18,0-6.32-2.91-6.32-8.62c0-5.61,2.14-8.57,6.32-8.57c2.3,0,3.47,0.92,5,2.45l3.52-3.41
				c-1.63-1.63-2.45-2.19-3.83-2.8c-1.33-0.56-2.86-0.86-4.64-0.86c-7.24,0-11.57,4.94-11.57,13.1c0,8.41,4.28,13.35,11.57,13.35
				c1.78,0,3.26-0.25,4.64-0.86C630.84,189.39,631.66,188.84,633.29,187.2 M600.92,181.24c0,3.77-1.64,5.31-5.67,5.31
				c-3.52,0-5.1-1.18-5.1-3.68c0-2.45,1.58-3.67,4.64-3.67h6.12V181.24z M606.06,190.56v-17.28c0-5.87-3.62-8.87-10.81-8.87
				c-2.45,0-4.28,0.31-5.76,1.01c-1.28,0.56-1.94,1.18-3.36,2.7l3.41,3.21c0.76-0.97,1.33-1.48,2.09-1.84
				c0.92-0.46,1.99-0.67,3.47-0.67c4.08,0,5.82,1.43,5.82,4.8v1.89h-6.94c-5.51,0-8.87,2.8-8.87,7.49c0,5,3.2,7.8,8.97,7.8
				c3.06,0,4.74-0.46,6.89-2.6v2.34H606.06z M578.23,190.56v-25.84h-17.68v10.75c0,10-2.65,10.51-4.89,10.51h-0.82v4.58h2.45
				c5.04,0,8.25-2.85,8.25-13.81v-7.5h7.5v21.31H578.23z M532.14,190.56V171.6l14.63,18.96h6.99l-15.25-19.16l13.97-17.13h-6.78
				l-13.56,17.23v-17.23h-5.5v36.29H532.14z M508.64,150.5h-5l-14.53,43.84h5L508.64,150.5z M473,190.56v-4.63h-14.77l11.37-13.92
				c2.24-2.76,3.41-4.64,3.41-7.86c0-6.27-4.28-10.19-10.49-10.19c-6.17,0-10.56,4.07-10.56,10.25h5.2c0-4.08,2.6-5.61,5.36-5.61
				c3.36,0,5.3,2.25,5.3,5.51c0,1.84-0.56,3.16-1.94,4.84l-13.97,16.99v4.63H473z M439.1,190.56v-36.29h-5.19l-7.08,6.12v5.76
				l7.08-6.21v30.63H439.1z M399.84,175.53h-11.62c0.05-1.58,0.16-2.35,0.67-3.52c0.82-1.94,2.7-3.27,5.15-3.27
				c2.45,0,4.28,1.33,5.1,3.27C399.64,173.18,399.79,173.95,399.84,175.53 M404.99,179.14v-2.29c0-7.34-4.03-12.43-10.96-12.43
				c-6.63,0-10.95,4.84-10.95,13.2c0,9.84,5.14,13.26,11.62,13.26c4.53,0,7.04-1.37,9.69-4.02l-3.32-3.11
				c-1.84,1.84-3.36,2.65-6.27,2.65c-4.23,0-6.58-2.81-6.58-7.25H404.99z M377.56,182.66c0-4.59-2.86-6.89-7.7-7.29l-4.08-0.35
				c-2.75-0.26-3.57-1.43-3.57-2.96c0-1.94,1.58-3.32,4.69-3.32c2.45,0,4.74,0.51,6.37,1.89l3.26-3.32c-2.39-2.09-5.71-2.9-9.58-2.9
				c-5.4,0-9.74,2.85-9.74,7.89c0,4.54,2.8,6.74,7.65,7.14l4.13,0.35c2.5,0.2,3.47,1.33,3.47,3.06c0,2.45-2.5,3.57-5.66,3.57
				c-2.55,0-5.36-0.56-7.44-2.7l-3.42,3.41c3.06,3.01,6.63,3.72,10.86,3.72C372.97,190.87,377.56,188.07,377.56,182.66
				 M351.92,182.66c0-4.59-2.86-6.89-7.7-7.29l-4.08-0.35c-2.75-0.26-3.57-1.43-3.57-2.96c0-1.94,1.58-3.32,4.69-3.32
				c2.45,0,4.74,0.51,6.38,1.89l3.26-3.32c-2.4-2.09-5.71-2.9-9.58-2.9c-5.4,0-9.74,2.85-9.74,7.89c0,4.54,2.81,6.74,7.65,7.14
				l4.13,0.35c2.5,0.2,3.47,1.33,3.47,3.06c0,2.45-2.5,3.57-5.66,3.57c-2.55,0-5.35-0.56-7.44-2.7l-3.41,3.41
				c3.06,3.01,6.63,3.72,10.86,3.72C347.33,190.87,351.92,188.07,351.92,182.66 M319.09,181.24c0,1.84-0.35,3.06-1.12,3.83
				c-1.37,1.33-2.86,1.48-4.85,1.48c-3.26,0-4.74-1.33-4.74-3.68c0-2.35,1.58-3.72,4.64-3.72h6.07V181.24z M324.28,190.56v-17.28
				c0-5.87-3.56-8.87-10.65-8.87c-4.28,0-6.83,0.86-9.27,3.71l3.41,3.21c1.43-1.84,2.81-2.5,5.66-2.5c4.03,0,5.66,1.58,5.66,4.85
				v1.84h-6.83c-5.91,0-8.92,3.1-8.92,7.44c0,2.19,0.71,4.19,2.04,5.56c1.58,1.58,3.71,2.34,6.93,2.34c3.21,0,5-0.76,6.89-2.65v2.34
				H324.28z M299.05,190.56v-4.43h-2.3c-2.09,0-2.8-1.02-2.8-3.01v-28.86h-5.19v29.16c0,3.82,2.14,7.13,7.08,7.13H299.05z
				 M283.75,190.56l-13-22.07l11.78-14.22h-6.73l-14.83,18.25v-18.25h-5.5v36.29h5.5v-10.55l6.12-7.34l10.2,17.89H283.75z"/>
		</g>
		<g style="clip-path:url(#SVGID_00000002368246838721926180000012328241879285908127_);">
			<path class="st3" d="M673.26,717.04v-4.64h-21.62v10.35h5v-5.71h11.06l-12.18,31.66h5.61L673.26,717.04z M633.29,745.34
				l-3.52-3.47c-1.58,1.58-2.65,2.5-5,2.5c-4.18,0-6.32-2.91-6.32-8.62c0-5.61,2.14-8.57,6.32-8.57c2.29,0,3.47,0.92,5,2.45
				l3.52-3.41c-1.63-1.63-2.45-2.19-3.82-2.8c-1.33-0.56-2.86-0.86-4.64-0.86c-7.23,0-11.57,4.94-11.57,13.1
				c0,8.41,4.28,13.35,11.57,13.35c1.79,0,3.26-0.25,4.64-0.86C630.84,747.53,631.66,746.97,633.29,745.34 M600.92,739.37
				c0,3.77-1.63,5.31-5.66,5.31c-3.52,0-5.1-1.18-5.1-3.68c0-2.45,1.58-3.67,4.64-3.67h6.12V739.37z M606.07,748.7v-17.28
				c0-5.87-3.62-8.87-10.81-8.87c-2.45,0-4.28,0.31-5.76,1.01c-1.27,0.56-1.93,1.18-3.36,2.7l3.41,3.21
				c0.76-0.97,1.33-1.48,2.09-1.84c0.92-0.46,1.99-0.67,3.47-0.67c4.08,0,5.81,1.43,5.81,4.8v1.89h-6.94c-5.51,0-8.87,2.8-8.87,7.49
				c0,5,3.21,7.8,8.97,7.8c3.06,0,4.74-0.46,6.89-2.6v2.34H606.07z M578.23,748.7v-25.84h-17.69v10.75c0,10-2.65,10.51-4.89,10.51
				h-0.82v4.58h2.45c5.04,0,8.25-2.85,8.25-13.81v-7.5h7.5v21.31H578.23z M532.14,748.7v-18.96l14.63,18.96h6.99l-15.25-19.16
				l13.97-17.13h-6.78l-13.56,17.23V712.4h-5.5v36.29H532.14z M508.64,708.63h-5l-14.53,43.84h5L508.64,708.63z M473.52,717.04
				v-4.64H451.9v10.35h5v-5.71h11.06l-12.18,31.66h5.61L473.52,717.04z M427.52,733.67H415.9c0.05-1.58,0.16-2.35,0.67-3.52
				c0.82-1.94,2.7-3.27,5.15-3.27c2.45,0,4.28,1.33,5.1,3.27C427.32,731.32,427.47,732.08,427.52,733.67 M432.68,737.28v-2.29
				c0-7.34-4.03-12.43-10.96-12.43c-6.63,0-10.95,4.84-10.95,13.2c0,9.84,5.14,13.25,11.62,13.25c4.53,0,7.04-1.37,9.69-4.02
				l-3.32-3.11c-1.84,1.84-3.36,2.65-6.27,2.65c-4.23,0-6.58-2.81-6.58-7.24H432.68z M405.25,740.8c0-4.59-2.86-6.89-7.7-7.29
				l-4.08-0.35c-2.75-0.26-3.57-1.43-3.57-2.96c0-1.94,1.58-3.32,4.69-3.32c2.45,0,4.74,0.51,6.37,1.89l3.26-3.32
				c-2.39-2.09-5.71-2.9-9.58-2.9c-5.4,0-9.74,2.85-9.74,7.89c0,4.54,2.8,6.74,7.65,7.14l4.13,0.35c2.5,0.2,3.47,1.33,3.47,3.06
				c0,2.45-2.5,3.57-5.66,3.57c-2.55,0-5.36-0.56-7.44-2.7l-3.42,3.42c3.06,3,6.63,3.71,10.86,3.71
				C400.66,749,405.25,746.2,405.25,740.8 M379.6,740.8c0-4.59-2.86-6.89-7.7-7.29l-4.08-0.35c-2.75-0.26-3.57-1.43-3.57-2.96
				c0-1.94,1.58-3.32,4.69-3.32c2.45,0,4.74,0.51,6.38,1.89l3.26-3.32c-2.4-2.09-5.71-2.9-9.58-2.9c-5.4,0-9.74,2.85-9.74,7.89
				c0,4.54,2.81,6.74,7.65,7.14l4.13,0.35c2.5,0.2,3.47,1.33,3.47,3.06c0,2.45-2.5,3.57-5.66,3.57c-2.55,0-5.35-0.56-7.44-2.7
				l-3.41,3.42c3.06,3,6.63,3.71,10.86,3.71C375.02,749,379.6,746.2,379.6,740.8 M346.77,739.37c0,1.84-0.35,3.06-1.12,3.83
				c-1.37,1.33-2.86,1.48-4.85,1.48c-3.26,0-4.74-1.33-4.74-3.68c0-2.35,1.58-3.72,4.64-3.72h6.07V739.37z M351.97,748.7v-17.28
				c0-5.87-3.56-8.87-10.65-8.87c-4.28,0-6.83,0.86-9.27,3.71l3.41,3.21c1.43-1.84,2.81-2.5,5.66-2.5c4.03,0,5.66,1.58,5.66,4.85
				v1.84h-6.83c-5.91,0-8.92,3.1-8.92,7.44c0,2.2,0.71,4.19,2.04,5.56c1.58,1.58,3.71,2.34,6.93,2.34s5-0.76,6.89-2.65v2.34H351.97z
				 M326.73,748.7v-4.43h-2.3c-2.09,0-2.8-1.02-2.8-3.01V712.4h-5.19v29.16c0,3.82,2.14,7.13,7.08,7.13H326.73z M311.44,748.7
				l-13-22.07l11.78-14.22h-6.73l-14.83,18.25V712.4h-5.5v36.29h5.5v-10.55l6.12-7.34l10.2,17.89H311.44z"/>
		</g>
	</g>
	<g>
		<polygon class="st4" points="19.8,718.33 35.15,718.33 27.48,708.18 		"/>
	</g>
	<g>
		<polygon class="st4" points="19.8,738.52 35.15,738.52 27.48,728.37 		"/>
	</g>
	<g>
		<polygon class="st4" points="19.8,758.7 35.15,758.7 27.48,748.55 		"/>
	</g>
	<g>
		<polygon class="st4" points="19.8,698.15 35.15,698.15 27.48,688 		"/>
	</g>
	<g>
		<polygon class="st4" points="19.8,823.11 35.15,823.11 27.48,812.96 		"/>
	</g>
	<g>
		<polygon class="st4" points="19.8,843.29 35.15,843.29 27.48,833.14 		"/>
	</g>
	<g>
		<polygon class="st4" points="19.8,863.48 35.15,863.48 27.48,853.33 		"/>
	</g>
	<g>
		<polygon class="st4" points="19.8,802.92 35.15,802.92 27.48,792.77 		"/>
	</g>
	<g>
		<polygon class="st4" points="19.8,940.24 35.15,940.24 27.48,930.09 		"/>
	</g>
	<g>
		<polygon class="st4" points="19.8,960.43 35.15,960.43 27.48,950.28 		"/>
	</g>
	<g>
		<polygon class="st4" points="19.8,980.61 35.15,980.61 27.48,970.47 		"/>
	</g>
	<g>
		<polygon class="st4" points="19.8,920.06 35.15,920.06 27.48,909.91 		"/>
	</g>
	<g>
		<polygon class="st4" points="19.8,611.85 35.15,611.85 27.48,601.7 		"/>
	</g>
	<g>
		<polygon class="st4" points="19.8,632.03 35.15,632.03 27.48,621.89 		"/>
	</g>
	<g>
		<polygon class="st4" points="19.8,652.22 35.15,652.22 27.48,642.07 		"/>
	</g>
	<g>
		<polygon class="st4" points="19.8,591.66 35.15,591.66 27.48,581.51 		"/>
	</g>
	<g>
		<polygon class="st4" points="19.8,497.54 35.15,497.54 27.48,487.39 		"/>
	</g>
	<g>
		<polygon class="st4" points="19.8,517.72 35.15,517.72 27.48,507.58 		"/>
	</g>
	<g>
		<polygon class="st4" points="19.8,537.91 35.15,537.91 27.48,527.76 		"/>
	</g>
	<g>
		<polygon class="st4" points="19.8,477.35 35.15,477.35 27.48,467.2 		"/>
	</g>
	<g>
		<polygon class="st4" points="19.8,384.57 35.15,384.57 27.48,374.42 		"/>
	</g>
	<g>
		<polygon class="st4" points="19.8,404.75 35.15,404.75 27.48,394.6 		"/>
	</g>
	<g>
		<polygon class="st4" points="19.8,424.94 35.15,424.94 27.48,414.79 		"/>
	</g>
	<g>
		<polygon class="st4" points="19.8,364.38 35.15,364.38 27.48,354.23 		"/>
	</g>
	<g>
		<polygon class="st4" points="19.8,274.28 35.15,274.28 27.48,264.14 		"/>
	</g>
	<g>
		<polygon class="st4" points="19.8,294.47 35.15,294.47 27.48,284.32 		"/>
	</g>
	<g>
		<polygon class="st4" points="19.8,314.66 35.15,314.66 27.48,304.51 		"/>
	</g>
	<g>
		<polygon class="st4" points="19.8,254.1 35.15,254.1 27.48,243.95 		"/>
	</g>
	<g>
		<polygon class="st4" points="19.8,162.66 35.15,162.66 27.48,152.51 		"/>
	</g>
	<g>
		<polygon class="st4" points="19.8,182.84 35.15,182.84 27.48,172.69 		"/>
	</g>
	<g>
		<polygon class="st4" points="19.8,203.03 35.15,203.03 27.48,192.88 		"/>
	</g>
	<g>
		<polygon class="st4" points="19.8,142.47 35.15,142.47 27.48,132.32 		"/>
	</g>
</g>
</svg>
