<?xml version="1.0" encoding="utf-8"?>
<!-- Generator: Adobe Illustrator 26.2.1, SVG Export Plug-In . SVG Version: 6.00 Build 0)  -->
<svg version="1.1" id="Ebene_1" xmlns="http://www.w3.org/2000/svg" xmlns:xlink="http://www.w3.org/1999/xlink" x="0px" y="0px"
	 viewBox="0 0 1000 825.44" style="enable-background:new 0 0 1000 825.44;" xml:space="preserve">
<style type="text/css">
	.st0{fill:#A2B9E1;}
	.st1{fill:#6796CF;}
	.st2{clip-path:url(#SVGID_00000093874968148448180150000006608226640230775684_);}
	.st3{fill:#2B2961;}
	.st4{fill:#FFFFFF;}
	.st5{clip-path:url(#SVGID_00000104664434735982666180000016557503428474887049_);}
	.st6{clip-path:url(#SVGID_00000043415912690192716990000007493251943581682830_);}
	.st7{clip-path:url(#SVGID_00000011015782610412316720000015230545922257868679_);}
	.st8{clip-path:url(#SVGID_00000004506648270037029890000018017142597375584953_);}
	.st9{clip-path:url(#SVGID_00000061443629702110153660000013255761969535751562_);}
	.st10{opacity:0.52;clip-path:url(#SVGID_00000065058129673368644380000018148322823261289617_);}
	.st11{clip-path:url(#SVGID_00000031186174516826491130000011148139342258100623_);}
	.st12{clip-path:url(#SVGID_00000104702148026516221470000011320119442365409166_);}
	.st13{clip-path:url(#SVGID_00000089574875387010886840000008350572000095754647_);}
	.st14{clip-path:url(#SVGID_00000146477450377229189560000017208292973181275538_);}
	.st15{clip-path:url(#SVGID_00000065782151287878065180000000524415086907002507_);}
	.st16{clip-path:url(#SVGID_00000150824584085253960020000017011397527125302425_);}
	.st17{clip-path:url(#SVGID_00000032626961237767946320000008673036649982980020_);}
	.st18{clip-path:url(#SVGID_00000010993861481764618820000017557229971703064456_);}
	.st19{clip-path:url(#SVGID_00000033349559679046350960000003608557545560803471_);}
	.st20{clip-path:url(#SVGID_00000140001758838517747750000001333738924309225879_);}
	.st21{clip-path:url(#SVGID_00000057843298807637776620000014437106807164394660_);}
	.st22{clip-path:url(#SVGID_00000121982495441989462640000011451965170229752251_);}
	.st23{fill:none;stroke:#2B2961;stroke-width:0.374;stroke-linejoin:round;stroke-miterlimit:10;}
	.st24{fill:none;stroke:#2B2961;stroke-width:0.4;stroke-miterlimit:10;}
	.st25{clip-path:url(#SVGID_00000072263208697304361050000000349510400243006624_);}
	.st26{clip-path:url(#SVGID_00000007417209978585304930000004304155700246013102_);}
	.st27{clip-path:url(#SVGID_00000114773891281360523020000014289180372936285850_);}
	.st28{clip-path:url(#SVGID_00000133506906717811782120000010784942314292583567_);}
	.st29{clip-path:url(#SVGID_00000125562952417000595790000010818417665723275198_);}
	.st30{clip-path:url(#SVGID_00000169526636515807002110000003417367579140109969_);}
	.st31{clip-path:url(#SVGID_00000178918054628389391370000017433788625263018428_);}
	.st32{clip-path:url(#SVGID_00000077297119696069565990000012208863026670105246_);}
	.st33{clip-path:url(#SVGID_00000114069697362612927850000001286960823616840861_);}
	.st34{clip-path:url(#SVGID_00000029044236038396037780000011640030485885305219_);}
	.st35{clip-path:url(#SVGID_00000050652571995609870360000009214785976152736948_);}
	.st36{clip-path:url(#SVGID_00000078737469178350529090000017600552611113393848_);}
	.st37{clip-path:url(#SVGID_00000018201761205943817370000012622362559183119787_);}
	.st38{clip-path:url(#SVGID_00000010996394752452618730000000507123434032246151_);}
	.st39{clip-path:url(#SVGID_00000076566161740168824350000003397594525376191418_);}
	.st40{clip-path:url(#SVGID_00000147940966905255089010000013137536505709091229_);}
	.st41{clip-path:url(#SVGID_00000113346700591361175340000004896240678894125477_);}
	.st42{clip-path:url(#SVGID_00000065040317657108910320000004982737658475856058_);}
	.st43{clip-path:url(#SVGID_00000070096423129661200880000017791867900072092040_);}
	.st44{clip-path:url(#SVGID_00000017514042303487624500000017694338184496543160_);}
	.st45{clip-path:url(#SVGID_00000032624556464169056040000005888850720979694756_);}
	.st46{clip-path:url(#SVGID_00000011011675167819148720000017867416438743494826_);}
	.st47{clip-path:url(#SVGID_00000165197330339926617830000008559637593044788370_);}
	.st48{clip-path:url(#SVGID_00000153685569511782949670000014425177047937397395_);}
	.st49{clip-path:url(#SVGID_00000148644524876103142890000008583218947099644325_);}
	.st50{clip-path:url(#SVGID_00000172433773306716303210000011604142320430241969_);}
	.st51{clip-path:url(#SVGID_00000135664683001305870230000016602856655381929880_);}
	.st52{clip-path:url(#SVGID_00000013881633286206375640000010034966186009717909_);}
	.st53{clip-path:url(#SVGID_00000116219365377216602710000003638521409256573104_);}
	.st54{clip-path:url(#SVGID_00000158027780045209464600000010060115771044947380_);}
	.st55{clip-path:url(#SVGID_00000003076718895635416530000007520560454250218677_);}
	.st56{clip-path:url(#SVGID_00000011012914110791310220000011989649505126241943_);}
	.st57{clip-path:url(#SVGID_00000017489540838601359270000010741344124509507726_);}
	.st58{clip-path:url(#SVGID_00000096024061397011166610000006830736796225264566_);}
	.st59{clip-path:url(#SVGID_00000141424998753014675740000016465676831776152709_);}
	.st60{clip-path:url(#SVGID_00000005957811635667993350000007732387192322382759_);}
	.st61{clip-path:url(#SVGID_00000170979277105806194420000006600549542434410629_);}
	.st62{fill:#9AB4DE;}
	.st63{clip-path:url(#SVGID_00000040564255868759605790000018047254284546549151_);}
	.st64{clip-path:url(#SVGID_00000163772172885425515500000003359029915646908585_);}
	.st65{clip-path:url(#SVGID_00000028326836491873153920000015985363327147411114_);}
	.st66{fill:#B9C9E9;}
	.st67{clip-path:url(#SVGID_00000098203577700094397440000005799340158009986743_);}
	.st68{clip-path:url(#SVGID_00000066490897451709073740000012781653740152023739_);}
	.st69{clip-path:url(#SVGID_00000156579225901788653490000015228584189426121651_);}
	.st70{clip-path:url(#SVGID_00000136374401347275083140000002676129756047308719_);}
	.st71{clip-path:url(#SVGID_00000057851418540029351300000017703369800084426410_);}
	.st72{clip-path:url(#SVGID_00000114057107127918097270000016304460510570076302_);}
	.st73{clip-path:url(#SVGID_00000031925258701600986990000012050471189584967834_);}
	.st74{clip-path:url(#SVGID_00000033345882374487792320000017310164557856119430_);}
	.st75{clip-path:url(#SVGID_00000110435237417894181730000011804842438625559194_);}
	.st76{clip-path:url(#SVGID_00000013903019039080379910000006086323924443099315_);}
	.st77{clip-path:url(#SVGID_00000033358431411605359430000017933854710711020712_);}
	.st78{clip-path:url(#SVGID_00000005268107574720763400000007928048438454707347_);}
	.st79{clip-path:url(#SVGID_00000106836557319293232130000013408498268144599452_);}
	.st80{clip-path:url(#SVGID_00000163791824346435298800000010361480572698847927_);}
	.st81{clip-path:url(#SVGID_00000074418026440906888240000000531693832676904843_);}
	.st82{clip-path:url(#SVGID_00000148659102147127826760000014953148054663967371_);}
	.st83{clip-path:url(#SVGID_00000137834579722508689440000017580071306907935622_);}
	.st84{clip-path:url(#SVGID_00000088110412317164843530000014809125324390185111_);}
	.st85{clip-path:url(#SVGID_00000150075328184163311620000011008657007473866117_);}
	.st86{clip-path:url(#SVGID_00000137112324308783895940000016991406490114090675_);}
	.st87{clip-path:url(#SVGID_00000047743479801009911470000016563824102808552627_);}
	.st88{clip-path:url(#SVGID_00000106851453847577890210000009491744338479897746_);}
	.st89{clip-path:url(#SVGID_00000083061628590342316180000002657043551718830739_);}
	.st90{clip-path:url(#SVGID_00000147901018223463692730000012031822073164582785_);}
	.st91{clip-path:url(#SVGID_00000167367788363964448330000015236838287764788911_);}
	.st92{clip-path:url(#SVGID_00000070839305985173580880000018415403775726217396_);}
	.st93{clip-path:url(#SVGID_00000106843224683795774800000006209558727157808813_);}
	.st94{clip-path:url(#SVGID_00000106849827322776228450000001320336466429079180_);}
	.st95{clip-path:url(#SVGID_00000024683927721915178090000013446600730819081148_);}
	.st96{clip-path:url(#SVGID_00000063611044535894924940000008910386751559761793_);}
	.st97{clip-path:url(#SVGID_00000033333724946889964880000015255840182447081093_);}
	.st98{clip-path:url(#SVGID_00000106845063739063614400000016526181462532209051_);}
	.st99{clip-path:url(#SVGID_00000156553667714161229740000009309627545588686005_);}
	.st100{clip-path:url(#SVGID_00000167377470832397823930000017969658170244459952_);}
	.st101{clip-path:url(#SVGID_00000133520547094264859440000014769420872309806010_);}
	.st102{clip-path:url(#SVGID_00000137130434913160935040000007921457188031178388_);}
	.st103{clip-path:url(#SVGID_00000103245626722903720320000000457562228681122452_);}
	.st104{clip-path:url(#SVGID_00000169546427140213481250000010799808918813996681_);}
	.st105{clip-path:url(#SVGID_00000054238151589029511010000010913149004576426661_);}
	.st106{clip-path:url(#SVGID_00000068667071654291146060000008905866332868384900_);}
	.st107{clip-path:url(#SVGID_00000130627995127467114650000009449114110979359678_);}
	.st108{clip-path:url(#SVGID_00000095336212456267603150000001929407531016604858_);}
	.st109{clip-path:url(#SVGID_00000037652662536785901180000018056953449158384002_);}
	.st110{clip-path:url(#SVGID_00000061457056694794099400000002091684566616599207_);}
	.st111{clip-path:url(#SVGID_00000142155053147230173580000002457813027324290189_);}
	.st112{clip-path:url(#SVGID_00000093173068252926219480000017961634629301535144_);}
	.st113{clip-path:url(#SVGID_00000107572040937953800450000013455404328003154875_);}
	.st114{clip-path:url(#SVGID_00000062156132637412647680000013312795815850119353_);}
	.st115{clip-path:url(#SVGID_00000051355876351199606950000000638144284607439541_);}
	.st116{clip-path:url(#SVGID_00000009550693943387226460000013694494851641367446_);}
	.st117{clip-path:url(#SVGID_00000021809723895983904610000003294265562322100353_);}
	.st118{clip-path:url(#SVGID_00000065054536540554092540000007255949499009563284_);}
	.st119{clip-path:url(#SVGID_00000047046516631592172290000018073674529214721700_);}
	.st120{clip-path:url(#SVGID_00000178900378142151889690000001603178563854715291_);}
	.st121{clip-path:url(#SVGID_00000101081684803284033550000003296153205052440739_);}
	.st122{clip-path:url(#SVGID_00000088131784830665184620000015758114354350833083_);}
	.st123{clip-path:url(#SVGID_00000082336005974642909250000015403124077665844371_);}
	.st124{clip-path:url(#SVGID_00000163072628493496376220000009569867784585581214_);}
	.st125{clip-path:url(#SVGID_00000019672939201373213670000011331116248135260563_);}
	.st126{clip-path:url(#SVGID_00000081622595119291060420000012227839555859014280_);}
	.st127{clip-path:url(#SVGID_00000108303371399270394550000006095509042161002422_);}
	.st128{clip-path:url(#SVGID_00000047770827915825626770000006019474936569190829_);}
	.st129{clip-path:url(#SVGID_00000021090717723876704290000006204420720145327745_);}
	.st130{clip-path:url(#SVGID_00000011709977862333360570000015647831893984325546_);}
	.st131{clip-path:url(#SVGID_00000107570045357259907390000000990030663657044368_);}
	.st132{clip-path:url(#SVGID_00000062185348916999985070000000105965019332858005_);}
	.st133{clip-path:url(#SVGID_00000154399995997958029430000003330626941199265953_);}
	.st134{clip-path:url(#SVGID_00000045583886115424099560000011971355931813317565_);}
	.st135{clip-path:url(#SVGID_00000112617696931442649180000010041732607121731245_);}
	.st136{clip-path:url(#SVGID_00000163754142324582082760000008316891770478543490_);}
	.st137{clip-path:url(#SVGID_00000033348237412555728460000012158239958504513975_);}
	.st138{clip-path:url(#SVGID_00000100347234541734198480000015565814972877629066_);}
	.st139{clip-path:url(#SVGID_00000175309621326048819360000007118120497217941896_);}
	.st140{clip-path:url(#SVGID_00000024723608985755757000000007505322764246802582_);}
	.st141{clip-path:url(#SVGID_00000016035702494982198320000000808204335251399614_);}
	.st142{clip-path:url(#SVGID_00000093156428992680526240000001366568729559572372_);}
	.st143{clip-path:url(#SVGID_00000026869225490028545700000014233034066337565864_);}
	.st144{clip-path:url(#SVGID_00000058579909935229573260000009211815989125831579_);}
	.st145{clip-path:url(#SVGID_00000182524015555013687840000015367667441027605924_);}
	.st146{clip-path:url(#SVGID_00000004521617721533191270000001597891795173356418_);}
	.st147{clip-path:url(#SVGID_00000108301283558496757650000016948989983681367996_);}
	.st148{clip-path:url(#SVGID_00000158748013398320877240000012385876821663063699_);}
	.st149{clip-path:url(#SVGID_00000063615029816668532030000003994772074568929948_);}
	.st150{clip-path:url(#SVGID_00000148636811260759423760000005880344823240206762_);}
	.st151{clip-path:url(#SVGID_00000114753250021302009640000011710698261078330000_);}
	.st152{clip-path:url(#SVGID_00000062876283221936463680000015641231006471445165_);}
	.st153{clip-path:url(#SVGID_00000127727825494371925600000015889341228182866563_);}
	.st154{clip-path:url(#SVGID_00000008868324327985776380000012618803860938280378_);}
	.st155{clip-path:url(#SVGID_00000152243840877012413540000010330833758494868107_);}
	.st156{clip-path:url(#SVGID_00000062876672400914200020000015464517516527428992_);}
	.st157{clip-path:url(#SVGID_00000112624723469942263190000013836977776007886009_);}
	.st158{clip-path:url(#SVGID_00000005224272578196412830000006923663545162162825_);}
	.st159{clip-path:url(#SVGID_00000178892960234707522190000012463820915430056862_);}
	.st160{clip-path:url(#SVGID_00000178918434680938681200000010647190721591323011_);}
	.st161{clip-path:url(#SVGID_00000029739376319072822620000007380497602932218764_);}
	.st162{clip-path:url(#SVGID_00000160162651476066275370000010237598607033911203_);}
	.st163{clip-path:url(#SVGID_00000040542706868658070760000017434398705070368158_);}
	.st164{clip-path:url(#SVGID_00000122001854361537040710000012758370081726566316_);}
	.st165{clip-path:url(#SVGID_00000069375078138483567770000016927900876657479357_);}
	.st166{clip-path:url(#SVGID_00000137837578770126577910000009610976060423489938_);}
	.st167{clip-path:url(#SVGID_00000127742844221696607730000004991486543081688463_);}
	.st168{clip-path:url(#SVGID_00000088840950672510686300000005973943377855607721_);}
	.st169{clip-path:url(#SVGID_00000034801481297582268740000003930550372636496014_);}
	.st170{clip-path:url(#SVGID_00000007423994197992594440000000713370784778374536_);}
	.st171{clip-path:url(#SVGID_00000044876152741938085580000000761938283935014054_);}
	.st172{clip-path:url(#SVGID_00000029734090598107706820000000294714027161137048_);}
	.st173{clip-path:url(#SVGID_00000107569451319368312570000013849688488175003027_);}
	.st174{clip-path:url(#SVGID_00000049185195101820633830000009469264502562429621_);}
	.st175{clip-path:url(#SVGID_00000022526289402043896740000011818959686827947395_);}
	.st176{clip-path:url(#SVGID_00000064356210293861795710000007963315772111006859_);}
	.st177{clip-path:url(#SVGID_00000166647948054125833230000016027854687733444770_);}
	.st178{clip-path:url(#SVGID_00000143586622151299412450000007542010140709239453_);}
	.st179{clip-path:url(#SVGID_00000163044047674483241450000011745679601598111152_);}
	.st180{clip-path:url(#SVGID_00000165943696319465788820000009035264031712021390_);}
	.st181{clip-path:url(#SVGID_00000057120214207513603040000018302745877231680909_);}
	.st182{clip-path:url(#SVGID_00000127013633650740911980000016166477920184001215_);}
	.st183{clip-path:url(#SVGID_00000178194175251796520960000009200222444463405185_);}
	.st184{clip-path:url(#SVGID_00000059271784976844302620000006330815172873600131_);}
	.st185{clip-path:url(#SVGID_00000124162508766394205300000011827538408806023355_);}
	.st186{clip-path:url(#SVGID_00000176740720107096669680000010831438345365479059_);}
	.st187{clip-path:url(#SVGID_00000098937549748367485790000000352490058853309351_);}
	.st188{clip-path:url(#SVGID_00000111907892901365106070000006986013913774176896_);}
	.st189{clip-path:url(#SVGID_00000104674633413206632440000010570991957910394792_);}
	.st190{clip-path:url(#SVGID_00000134943565039406628910000013703531829729060533_);}
	.st191{clip-path:url(#SVGID_00000160149312745056145760000013754176383976992899_);}
	.st192{clip-path:url(#SVGID_00000003819213799283915690000008751668738510233240_);}
	.st193{clip-path:url(#SVGID_00000100340730868679758520000003298107290584331943_);}
	.st194{clip-path:url(#SVGID_00000016074622327673258250000016244842374607025288_);}
	.st195{clip-path:url(#SVGID_00000011017577319704240510000004787159076971388320_);}
	.st196{clip-path:url(#SVGID_00000120517332785795086210000011841692250657415328_);}
	.st197{clip-path:url(#SVGID_00000008113757067321532190000006971199411966473629_);}
	.st198{clip-path:url(#SVGID_00000084509993079196408040000005876888145918592930_);}
	.st199{clip-path:url(#SVGID_00000147181453155646754380000013943988371803231645_);}
	.st200{clip-path:url(#SVGID_00000013889961733908324500000018072959156482859404_);}
	.st201{clip-path:url(#SVGID_00000176757927607776868490000016803120828362502328_);}
	.st202{clip-path:url(#SVGID_00000007416013835886070910000001500386165698001834_);}
	.st203{clip-path:url(#SVGID_00000155119771253297283160000003434268016559904920_);}
	.st204{clip-path:url(#SVGID_00000129203415738687041660000008307386116041747894_);}
	.st205{clip-path:url(#SVGID_00000031185383277163757890000016412171075238452402_);}
	.st206{clip-path:url(#SVGID_00000112601114989713520500000010470109597991950733_);}
	.st207{clip-path:url(#SVGID_00000114067172098846556480000015547980885969105046_);}
	.st208{clip-path:url(#SVGID_00000181776603825740379590000006011460515387437193_);}
	.st209{clip-path:url(#SVGID_00000025441065899458998540000011945687951130297021_);}
	.st210{clip-path:url(#SVGID_00000088126771181109801810000006840146403071303345_);}
	.st211{clip-path:url(#SVGID_00000125589612700372864190000002856764776900921217_);}
	.st212{clip-path:url(#SVGID_00000158726845225282005090000002772838160569798276_);}
	.st213{clip-path:url(#SVGID_00000102542634883267752840000007536219872026767010_);}
	.st214{clip-path:url(#SVGID_00000056415018241942470320000003471308980717953977_);}
	.st215{clip-path:url(#SVGID_00000085242304153145640050000015597430235053905587_);}
	.st216{clip-path:url(#SVGID_00000136388082207041624760000011323074205988010676_);}
	.st217{clip-path:url(#SVGID_00000118385647975984285900000014953522212801472407_);}
	.st218{clip-path:url(#SVGID_00000076593810925418696910000007156713680557060528_);}
	.st219{clip-path:url(#SVGID_00000080196218588992770260000003620332101683134593_);}
	.st220{clip-path:url(#SVGID_00000014592152625330726880000014058572961584114087_);}
	.st221{clip-path:url(#SVGID_00000148643285287220005700000017458726148485302201_);}
	.st222{clip-path:url(#SVGID_00000033358899240484310580000006960890334364168636_);}
	.st223{clip-path:url(#SVGID_00000021097740575484470550000013823421525282957737_);}
	.st224{clip-path:url(#SVGID_00000007427852175468599620000016740806233866874241_);}
	.st225{clip-path:url(#SVGID_00000114796678409445853200000018386790669654621076_);}
	.st226{clip-path:url(#SVGID_00000111182164144631577440000014314767664786383803_);}
	.st227{clip-path:url(#SVGID_00000034779139545118644390000018109354993902967446_);}
	.st228{clip-path:url(#SVGID_00000047768009074741479840000007112273014509775753_);}
	.st229{clip-path:url(#SVGID_00000089534862855434961660000011943174003689747623_);}
	.st230{clip-path:url(#SVGID_00000020358847677631358530000005428289662030783160_);}
	.st231{clip-path:url(#SVGID_00000062903287056588960730000005158284597939368338_);}
	.st232{clip-path:url(#SVGID_00000111183288754601749680000007277639752634029995_);}
	.st233{clip-path:url(#SVGID_00000093169949720356342070000004152430216123208609_);}
	.st234{clip-path:url(#SVGID_00000160906925831575071320000009198288286365450637_);}
	.st235{clip-path:url(#SVGID_00000052082699687932067520000016158132467015664016_);}
	.st236{clip-path:url(#SVGID_00000031206325387368009150000011740600289275167909_);}
	.st237{clip-path:url(#SVGID_00000133511267454383110690000018389336931338010512_);}
	.st238{clip-path:url(#SVGID_00000085226146409237367790000010095884861121733053_);}
	.st239{clip-path:url(#SVGID_00000176012365799467632810000003693362269562275733_);}
	.st240{clip-path:url(#SVGID_00000169536520613297937950000010079810728569947051_);}
	.st241{clip-path:url(#SVGID_00000044889373682003502740000017235150016438454437_);}
	.st242{clip-path:url(#SVGID_00000049912144952595277570000003263354488631697834_);}
	.st243{clip-path:url(#SVGID_00000034053733432760387430000015227809413240725673_);}
	.st244{clip-path:url(#SVGID_00000142866858550297348030000017939134509907630993_);}
	.st245{clip-path:url(#SVGID_00000098193706051996982720000006421774162806001282_);}
	.st246{clip-path:url(#SVGID_00000138565734361610844490000012031843608580015021_);}
	.st247{clip-path:url(#SVGID_00000128468210697817787320000012160562892556552881_);}
	.st248{clip-path:url(#SVGID_00000144329966952018687090000008533271856010198438_);}
	.st249{clip-path:url(#SVGID_00000077307079378949226480000014760136617763417023_);}
	.st250{clip-path:url(#SVGID_00000066475860833065957070000017603948979860260500_);}
	.st251{clip-path:url(#SVGID_00000160894501948667309720000003187507303435710368_);}
	.st252{clip-path:url(#SVGID_00000098903717014627213240000012327600606643224721_);}
	.st253{clip-path:url(#SVGID_00000090982624306933904010000013333608550025771676_);}
	.st254{clip-path:url(#SVGID_00000183209782279562920120000006555563092813615517_);}
	.st255{clip-path:url(#SVGID_00000129913192063404333970000018357499635380299669_);}
	.st256{clip-path:url(#SVGID_00000060011123047370225360000013905296006653724091_);}
	.st257{clip-path:url(#SVGID_00000011733326262635391060000016802736910576510091_);}
	.st258{clip-path:url(#SVGID_00000165226433799355663380000012658601767472704674_);}
	.st259{clip-path:url(#SVGID_00000075132247973953058400000002551370341684969873_);}
	.st260{clip-path:url(#SVGID_00000153682869062178067040000008382888541855182228_);}
	.st261{clip-path:url(#SVGID_00000172416337545470758930000005977679401798743170_);}
	.st262{clip-path:url(#SVGID_00000114061695195455105360000007020910334230903447_);}
	.st263{clip-path:url(#SVGID_00000167362026754786502340000014620575229145046441_);}
	.st264{clip-path:url(#SVGID_00000116921560513508461540000017275819846739132592_);}
	.st265{clip-path:url(#SVGID_00000051359507497679692650000014353723148752958874_);}
	.st266{clip-path:url(#SVGID_00000030483824830654550560000002017538548695692959_);}
	.st267{clip-path:url(#SVGID_00000085239317647321781750000008492241485246231443_);}
	.st268{clip-path:url(#SVGID_00000142887017967979045940000015781299224746611387_);}
	.st269{clip-path:url(#SVGID_00000179647335722859971240000013058922218491761849_);}
	.st270{clip-path:url(#SVGID_00000099655897471699764300000005193668970862595774_);}
	.st271{clip-path:url(#SVGID_00000016771931500652281480000007907449684549073050_);}
	.st272{clip-path:url(#SVGID_00000008127629154996147200000017085721850438410929_);}
	.st273{clip-path:url(#SVGID_00000034778394512858693490000015985318752025022338_);}
	.st274{clip-path:url(#SVGID_00000161602707639565445300000002928442759154538683_);}
	.st275{clip-path:url(#SVGID_00000028323080669976424030000011869132844459270323_);}
	.st276{clip-path:url(#SVGID_00000100344281159602023480000007035809590182885008_);}
	.st277{clip-path:url(#SVGID_00000167360966601223130720000008315899039269360562_);}
	.st278{clip-path:url(#SVGID_00000054227169856865843990000016477932244204449939_);}
	.st279{clip-path:url(#SVGID_00000091705946480184906620000017601117390565596830_);}
	.st280{clip-path:url(#SVGID_00000005965695358033315550000013337825025273553819_);}
	.st281{clip-path:url(#SVGID_00000079468499899158299300000007572654734778801536_);}
	.st282{clip-path:url(#SVGID_00000153677918882668880430000004599723220103493272_);}
	.st283{clip-path:url(#SVGID_00000011008791452926872450000008465005097375694721_);}
	.st284{clip-path:url(#SVGID_00000145031866334986969700000013478175676086681516_);}
	.st285{clip-path:url(#SVGID_00000002371266052349161200000006173922824371060108_);}
	.st286{clip-path:url(#SVGID_00000094615909735155770070000011733782641595378618_);}
	.st287{clip-path:url(#SVGID_00000137098638502910997130000002727746584214893489_);}
	.st288{clip-path:url(#SVGID_00000097467405621643000650000001197003880443922351_);}
	.st289{clip-path:url(#SVGID_00000069394833437125256610000010413822575187522974_);}
	.st290{clip-path:url(#SVGID_00000137117238028557377500000009538943983990710688_);}
	.st291{clip-path:url(#SVGID_00000032636339589796437510000007876843981367666331_);}
	.st292{clip-path:url(#SVGID_00000178182395104899537650000009509142480105347213_);}
	.st293{clip-path:url(#SVGID_00000146491034709476934070000017057445201443321736_);}
	.st294{clip-path:url(#SVGID_00000048480070173328836170000003936302359196849831_);}
	.st295{clip-path:url(#SVGID_00000099645674742971819820000000534759009166388366_);}
	.st296{clip-path:url(#SVGID_00000173871890335709549040000010221677249345388453_);}
	.st297{clip-path:url(#SVGID_00000149378359871247321680000005152068380239770245_);}
	.st298{clip-path:url(#SVGID_00000109745246592359059790000005661549337389616573_);}
	.st299{clip-path:url(#SVGID_00000114059175310497536500000015405368604624222082_);}
	.st300{clip-path:url(#SVGID_00000120546735218521369100000006451513771981583286_);}
	.st301{clip-path:url(#SVGID_00000043421599248886842670000002453304169163697836_);}
	.st302{clip-path:url(#SVGID_00000093869349761436396770000012789051957619376781_);}
	.st303{clip-path:url(#SVGID_00000062894574019514232010000016116294740611386020_);}
	.st304{clip-path:url(#SVGID_00000136407485935697075000000014876113077607580047_);}
	.st305{clip-path:url(#SVGID_00000001626322526521740560000000574838738648365730_);}
	.st306{clip-path:url(#SVGID_00000072261262232929474510000011297105833957297547_);}
	.st307{clip-path:url(#SVGID_00000176033693630560685220000014722412109703352212_);}
	.st308{clip-path:url(#SVGID_00000160906206093972960330000005884878311366056866_);}
	.st309{clip-path:url(#SVGID_00000140725730806653289210000010636464538085307042_);}
	.st310{clip-path:url(#SVGID_00000018214438141694489720000014517353470793964465_);}
	.st311{clip-path:url(#SVGID_00000048469986627424669540000012509733114372391832_);}
	.st312{clip-path:url(#SVGID_00000029044443193692248660000010570666876033195923_);}
	.st313{clip-path:url(#SVGID_00000174563188013926281350000001629564361048027533_);}
	.st314{clip-path:url(#SVGID_00000111182777993830511670000002292353884808784570_);}
	.st315{clip-path:url(#SVGID_00000119835559245094995960000008215603011811124404_);}
	.st316{clip-path:url(#SVGID_00000131359539547121774840000009855925426799767691_);}
	.st317{clip-path:url(#SVGID_00000083781709631473786630000014639098507674236604_);}
	.st318{clip-path:url(#SVGID_00000152259105356198603610000015403913397224586935_);}
	.st319{clip-path:url(#SVGID_00000137854505963995525580000018042560122837545904_);}
	.st320{clip-path:url(#SVGID_00000006705225282719058160000017991843489796917918_);}
	.st321{clip-path:url(#SVGID_00000031889644795837858590000005631110145883700388_);}
	.st322{clip-path:url(#SVGID_00000043451018621851890980000012557722272325920446_);}
	.st323{clip-path:url(#SVGID_00000088110508919220703130000006256237422225132465_);}
	.st324{clip-path:url(#SVGID_00000143577330342673267270000018316157761408553147_);}
	.st325{clip-path:url(#SVGID_00000070821345558731038170000006624591241574367379_);}
	.st326{clip-path:url(#SVGID_00000159454488776734899420000005493172218782849209_);}
	.st327{clip-path:url(#SVGID_00000182487842861341026510000002177026009768162995_);}
	.st328{clip-path:url(#SVGID_00000073713044051383875140000017953879758847133826_);}
	.st329{clip-path:url(#SVGID_00000009565601782075142800000011908719534234015900_);}
	.st330{clip-path:url(#SVGID_00000108287318337490998310000015062804528808219817_);}
	.st331{clip-path:url(#SVGID_00000124158357081894530550000012081756532224925578_);}
	.st332{clip-path:url(#SVGID_00000054251266555515855590000016365174705208155283_);}
	.st333{clip-path:url(#SVGID_00000141426849423896874520000001488797163224363652_);}
	.st334{clip-path:url(#SVGID_00000023271164781223976330000014078853091300504246_);}
	.st335{clip-path:url(#SVGID_00000070809815634683848770000006161415580970923960_);}
	.st336{clip-path:url(#SVGID_00000016056847315219178400000015602495952908286885_);}
	.st337{clip-path:url(#SVGID_00000039126282746674161110000015865582933266498189_);}
	.st338{clip-path:url(#SVGID_00000087392089480021721810000008491678461106004148_);}
	.st339{clip-path:url(#SVGID_00000051345844147951563940000016021015412036883363_);}
	.st340{clip-path:url(#SVGID_00000079454127044409583780000014382798824578627739_);}
	.st341{clip-path:url(#SVGID_00000032617093110368963670000007031801172191688380_);}
	.st342{clip-path:url(#SVGID_00000003103122543982029930000002243016844268151429_);}
	.st343{clip-path:url(#SVGID_00000062910671907292359760000007137092319873622950_);}
	.st344{clip-path:url(#SVGID_00000086655431812568632650000017897305140240201135_);}
	.st345{clip-path:url(#SVGID_00000118386504529534134940000000659806647247417266_);}
	.st346{clip-path:url(#SVGID_00000163067855664008109330000018334437830740586936_);}
	.st347{clip-path:url(#SVGID_00000119811641593571165140000017604855499020051593_);}
	.st348{clip-path:url(#SVGID_00000134251505181214351660000012256093406564367016_);}
	.st349{clip-path:url(#SVGID_00000119829551879126823940000018402630357514720931_);}
	.st350{clip-path:url(#SVGID_00000163757593722905861500000005177390081978428037_);}
	.st351{clip-path:url(#SVGID_00000104679400650780167370000003646408314180184504_);}
	.st352{clip-path:url(#SVGID_00000105396889378419837480000004627364548199427753_);}
	.st353{clip-path:url(#SVGID_00000096768762700519983880000001345839845432781740_);}
	.st354{clip-path:url(#SVGID_00000183932379475905559960000018191934142437599159_);}
	.st355{clip-path:url(#SVGID_00000103253651676457448060000011995460101928318619_);}
	.st356{clip-path:url(#SVGID_00000150069768944985296570000017082519234170986137_);}
	.st357{clip-path:url(#SVGID_00000180358995351456583470000017061928762799380147_);}
	.st358{clip-path:url(#SVGID_00000030465801367436778450000001937967695829639309_);}
	.st359{clip-path:url(#SVGID_00000180344932849148342510000017183844740767700915_);}
	.st360{clip-path:url(#SVGID_00000063631437697903955300000014875830190056408965_);}
	.st361{clip-path:url(#SVGID_00000163033439682180166900000005813115495616212360_);}
	.st362{clip-path:url(#SVGID_00000151514922060132461600000009701031200406944424_);}
	.st363{clip-path:url(#SVGID_00000054963236492867860870000005082973548649685677_);}
	.st364{clip-path:url(#SVGID_00000029028915235300290690000017743390723387525766_);}
	.st365{clip-path:url(#SVGID_00000003072471661543159500000000340841063795767973_);}
	.st366{clip-path:url(#SVGID_00000079450972710584763410000002979552170987176856_);}
	.st367{clip-path:url(#SVGID_00000024701490056804655420000016461385971606824592_);}
	.st368{clip-path:url(#SVGID_00000080178615305569706280000013792632294921341864_);}
	.st369{clip-path:url(#SVGID_00000043450691907940987410000016840322877187922596_);}
	.st370{clip-path:url(#SVGID_00000090273902493797515970000008352549558355493817_);}
	.st371{clip-path:url(#SVGID_00000137132166282167759920000016438326871039625653_);}
	.st372{clip-path:url(#SVGID_00000143593645981196685980000004409868236539209607_);}
	.st373{clip-path:url(#SVGID_00000005945742573394158360000003941339179144152493_);}
	.st374{clip-path:url(#SVGID_00000052809019931363038990000006227767610702748838_);}
	.st375{clip-path:url(#SVGID_00000133520036621274222200000011057926840017972665_);}
</style>
<g>
	<g>
		<rect x="2.28" y="121.72" class="st0" width="48.6" height="698.91"/>
	</g>
	<g>
		<rect x="0.2" y="4.52" class="st1" width="997.31" height="117.01"/>
	</g>
	<g>
		<path class="st3" d="M998.31,822.55H1.69c-0.93,0-1.69-0.75-1.69-1.69V4.62c0-0.93,0.75-1.69,1.69-1.69h996.63
			c0.93,0,1.69,0.75,1.69,1.69v816.25C1000,821.8,999.25,822.55,998.31,822.55z M3.37,819.18h993.25V6.31H3.37V819.18z"/>
	</g>
	<g>
		<rect x="1" y="119.94" class="st3" width="996.63" height="3.37"/>
	</g>
	<g>
		<defs>
			<rect id="SVGID_00000114048688598741511200000012318303098129907369_" x="5.98" y="5.63" width="989.54" height="822.55"/>
		</defs>
		<clipPath id="SVGID_00000152227571813448201340000017174299872148815031_">
			<use xlink:href="#SVGID_00000114048688598741511200000012318303098129907369_"  style="overflow:visible;"/>
		</clipPath>
		<g style="clip-path:url(#SVGID_00000152227571813448201340000017174299872148815031_);">
			<path class="st4" d="M843.41,77.14c0-6.44-3.8-10.46-11.34-11.19l-6-0.59c-3.36-0.29-3.95-1.9-3.95-3.29
				c0-1.9,1.61-3.66,5.41-3.66c3.29,0,6.65,0.59,8.85,2.56l5.85-5.92c-3.66-3.44-8.63-4.46-14.55-4.46c-7.75,0-14.7,4.24-14.7,12.13
				c0,7.03,4.24,10.02,11.12,10.68l6,0.59c3,0.29,4.02,1.61,4.02,3.51c0,2.86-3.44,3.95-6.73,3.95c-2.93,0-7.02-0.44-10.17-3.59
				l-6.22,6.22c4.83,4.82,10.24,5.48,16.23,5.48C836.25,89.57,843.41,85.55,843.41,77.14 M805.76,77.14
				c0-6.44-3.8-10.46-11.34-11.19l-6-0.59c-3.36-0.29-3.95-1.9-3.95-3.29c0-1.9,1.61-3.66,5.41-3.66c3.29,0,6.65,0.59,8.85,2.56
				l5.85-5.92c-3.66-3.44-8.63-4.46-14.55-4.46c-7.75,0-14.7,4.24-14.7,12.13c0,7.03,4.24,10.02,11.12,10.68l6,0.59
				c3,0.29,4.02,1.61,4.02,3.51c0,2.86-3.44,3.95-6.73,3.95c-2.93,0-7.02-0.44-10.17-3.59l-6.22,6.22
				c4.83,4.82,10.24,5.48,16.23,5.48C798.59,89.57,805.76,85.55,805.76,77.14 M764.94,89.13V51.04h-9.5v23.04
				c0,5.19-3.36,6.95-6.36,6.95c-3,0-6.29-1.76-6.29-6.95V51.04h-9.5v24.35c0,4.17,0.8,7.75,3.88,10.82
				c2.12,2.12,5.19,3.36,8.99,3.36c3.52,0,7.03-1.32,9.51-3.94v3.5H764.94z M724.65,89.13V81.1h-3.66c-2.41,0-3.36-1.17-3.36-3.44
				V37.07h-9.5v41.17c0,5.41,3.29,10.89,11.11,10.89H724.65z M696.79,89.13V64.49c0-8.04-4.38-13.88-12.72-13.88
				c-3.36,0-6.59,1.31-9.15,3.94V37.07h-9.5v52.06h9.5V65.87c0-4.97,3.14-6.73,6.15-6.73c3,0,6.22,1.68,6.22,6.73v23.26H696.79z
				 M656.57,84.38l-6.44-6.36c-1.97,2.13-3.66,3-6.14,3c-2.27,0-4.02-0.8-5.41-2.49c-1.46-1.83-2.12-4.46-2.12-8.48
				c0-4.02,0.66-6.59,2.12-8.42c1.39-1.68,3.14-2.49,5.41-2.49c2.49,0,4.17,0.88,6.14,3l6.44-6.43c-3.36-3.51-7.31-5.11-12.58-5.11
				c-7.61,0-17.03,4.02-17.03,19.45s9.42,19.52,17.03,19.52C649.25,89.57,653.2,87.89,656.57,84.38 M619.42,77.14
				c0-6.44-3.8-10.46-11.34-11.19l-6-0.59c-3.36-0.29-3.95-1.9-3.95-3.29c0-1.9,1.61-3.66,5.41-3.66c3.29,0,6.65,0.59,8.85,2.56
				l5.85-5.92c-3.66-3.44-8.63-4.46-14.55-4.46c-7.75,0-14.7,4.24-14.7,12.13c0,7.03,4.24,10.02,11.12,10.68l6,0.59
				c3,0.29,4.02,1.61,4.02,3.51c0,2.86-3.44,3.95-6.73,3.95c-2.93,0-7.02-0.44-10.17-3.59l-6.22,6.22
				c4.83,4.82,10.24,5.48,16.23,5.48C612.25,89.57,619.42,85.55,619.42,77.14 M570.72,70.05c0,6.22-0.73,10.98-6.44,10.98
				c-5.71,0-6.44-4.76-6.44-10.98c0-6.22,0.73-10.9,6.44-10.9C569.99,59.15,570.72,63.83,570.72,70.05 M580.22,70.05
				c0-5.71-0.07-12.22-3.87-16.02c-2.12-2.12-5.55-3.43-9.29-3.43c-3.88,0-6.73,1.02-9.22,3.8V37.07h-9.5v52.06h9.2v-3.58
				c2.64,2.92,5.49,4.02,9.51,4.02c3.74,0,7.17-1.32,9.29-3.43C580.14,82.33,580.22,75.75,580.22,70.05 M527.14,75.09
				c0,2.35-0.37,3.88-1.39,4.83c-1.69,1.61-3.37,1.83-6,1.83c-3.74,0-5.49-1.76-5.49-4.39c0-2.71,1.9-4.32,5.34-4.32h7.54V75.09z
				 M536.63,89.13V64.05c0-8.92-5.55-13.45-16.23-13.45c-6.37,0-10.02,1.16-13.74,5.26l6.06,5.92c1.97-2.27,3.66-3.15,7.31-3.15
				c5.05,0,7.1,1.83,7.1,6v1.91h-9c-8.85,0-13.01,4.96-13.01,11.04c0,3.36,1.1,6.44,3.14,8.56c2.27,2.26,5.41,3.36,9.73,3.36
				c4.39,0,6.81-1.1,9.37-3.65v3.29H536.63z M498.75,89.13V81.1h-3.66c-2.41,0-3.36-1.17-3.36-3.44V37.07h-9.5v41.17
				c0,5.41,3.29,10.89,11.1,10.89H498.75z M470.45,89.13V51.04h-9.5v23.04c0,5.19-3.37,6.95-6.37,6.95c-3,0-6.29-1.76-6.29-6.95
				V51.04h-9.5v24.35c0,4.17,0.8,7.75,3.87,10.82c2.12,2.12,5.19,3.36,9,3.36c3.51,0,7.03-1.32,9.51-3.94v3.5H470.45z M427.53,89.13
				V64.49c0-8.04-4.39-13.88-12.72-13.88c-3.37,0-6.59,1.31-9.15,3.94V37.07h-9.5v52.06h9.5V65.87c0-4.97,3.14-6.73,6.14-6.73
				c3,0,6.22,1.68,6.22,6.73v23.26H427.53z M387.3,84.38l-6.44-6.36c-1.97,2.13-3.66,3-6.14,3c-2.27,0-4.02-0.8-5.41-2.49
				c-1.46-1.83-2.12-4.46-2.12-8.48c0-4.02,0.66-6.59,2.12-8.42c1.39-1.68,3.14-2.49,5.41-2.49c2.49,0,4.17,0.88,6.14,3l6.44-6.43
				c-3.36-3.51-7.31-5.11-12.58-5.11c-7.61,0-17.03,4.02-17.03,19.45s9.43,19.52,17.03,19.52C379.99,89.57,383.94,87.89,387.3,84.38
				 M350.15,77.14c0-6.44-3.8-10.46-11.34-11.19l-6-0.59c-3.36-0.29-3.95-1.9-3.95-3.29c0-1.9,1.61-3.66,5.41-3.66
				c3.29,0,6.65,0.59,8.85,2.56l5.85-5.92c-3.66-3.44-8.63-4.46-14.55-4.46c-7.75,0-14.7,4.24-14.7,12.13
				c0,7.03,4.24,10.02,11.12,10.68l6,0.59c3,0.29,4.02,1.61,4.02,3.51c0,2.86-3.44,3.95-6.73,3.95c-2.93,0-7.02-0.44-10.17-3.59
				l-6.22,6.22c4.83,4.82,10.24,5.48,16.23,5.48C342.99,89.57,350.15,85.55,350.15,77.14 M312.42,89.13V81.1h-3.66
				c-2.41,0-3.36-1.17-3.36-3.44V37.07h-9.5v41.17c0,5.41,3.29,10.89,11.11,10.89H312.42z M275.06,75.09c0,2.35-0.37,3.88-1.39,4.83
				c-1.68,1.61-3.36,1.83-6,1.83c-3.73,0-5.48-1.76-5.48-4.39c0-2.71,1.9-4.32,5.34-4.32h7.54V75.09z M284.56,89.13V64.05
				c0-8.92-5.55-13.45-16.23-13.45c-6.37,0-10.02,1.16-13.75,5.26l6.06,5.92c1.97-2.27,3.66-3.15,7.31-3.15c5.05,0,7.1,1.83,7.1,6
				v1.91h-9c-8.84,0-13.01,4.96-13.01,11.04c0,3.36,1.1,6.44,3.14,8.56c2.26,2.26,5.41,3.36,9.72,3.36c4.39,0,6.81-1.1,9.37-3.65
				v3.29H284.56z M236.14,66.54h-14.48c0.07-1.69,0.29-2.71,0.88-4.1c1.02-2.27,3.14-3.95,6.36-3.95c3.22,0,5.34,1.68,6.36,3.95
				C235.85,63.83,236.07,64.86,236.14,66.54 M245.5,73.04v-4.24c0-10.46-6-18.2-16.6-18.2c-9.87,0-16.59,7.01-16.59,19.45
				c0,15.43,8.62,19.52,17.61,19.52c6.87,0,10.6-2.12,14.48-5.99l-5.78-5.63c-2.41,2.41-4.46,3.59-8.63,3.59
				c-5.34,0-8.34-3.59-8.34-8.49H245.5z M192.79,53.01c0,4.02-2.93,6.88-7.39,6.88h-9.59V46.13h9.59
				C189.86,46.13,192.79,48.98,192.79,53.01 M205.06,89.13l-11.62-22.45c5.04-1.82,9.5-6.35,9.5-13.67
				c0-8.71-6.28-15.94-16.89-15.94h-20.4v52.06h10.15V68.36h7.32l10.17,20.77H205.06z"/>
		</g>
	</g>
	<g>
		<rect x="3.09" y="351.14" class="st3" width="993.81" height="3.37"/>
	</g>
	<g>
		<rect x="3.09" y="234.14" class="st3" width="993.81" height="3.37"/>
	</g>
	<g>
		<rect x="3.09" y="465.34" class="st3" width="993.81" height="3.37"/>
	</g>
	<g>
		<rect x="3.09" y="587.97" class="st3" width="993.81" height="3.37"/>
	</g>
	<g>
		<rect x="3.09" y="704.98" class="st3" width="993.81" height="3.37"/>
	</g>
	<g>
		<defs>
			<rect id="SVGID_00000124851371131960614420000015746652893812708005_" x="5.98" y="5.63" width="989.54" height="822.55"/>
		</defs>
		<clipPath id="SVGID_00000133487537087924353770000016687997068818536586_">
			<use xlink:href="#SVGID_00000124851371131960614420000015746652893812708005_"  style="overflow:visible;"/>
		</clipPath>
		<g style="clip-path:url(#SVGID_00000133487537087924353770000016687997068818536586_);">
			<path class="st3" d="M726.22,661.4c0,4.81-0.69,9.03-5.61,9.03c-4.92,0-5.66-4.22-5.66-9.03c0-4.82,0.75-8.98,5.66-8.98
				C725.52,652.42,726.22,656.59,726.22,661.4 M731.66,674.97v-38.04h-5.45v13.68c-1.97-2.35-4.22-3.04-7.11-3.04
				c-2.73,0-5.08,0.91-6.57,2.4c-2.72,2.72-3.04,7.32-3.04,11.44c0,4.11,0.32,8.76,3.04,11.49c1.49,1.5,3.9,2.4,6.63,2.4
				c2.94,0,5.13-0.75,7.16-3.2v2.88H731.66z M697.62,659.21h-12.18c0.05-1.66,0.16-2.46,0.69-3.69c0.86-2.04,2.84-3.43,5.4-3.43
				s4.49,1.39,5.34,3.43C697.41,656.75,697.57,657.56,697.62,659.21 M703.02,663v-2.4c0-7.7-4.22-13.03-11.49-13.03
				c-6.95,0-11.48,5.07-11.48,13.83c0,10.32,5.39,13.89,12.17,13.89c4.76,0,7.37-1.44,10.15-4.21l-3.47-3.26
				c-1.92,1.92-3.53,2.78-6.58,2.78c-4.43,0-6.89-2.94-6.89-7.59H703.02z M678.11,650.12c-1.87-1.87-3.85-2.56-6.46-2.56
				c-3.05,0-5.83,1.33-7.22,3.25v-2.93h-5.34v27.09h5.45v-16.46c0-3.74,2.46-6.09,5.4-6.09c1.87,0,2.83,0.59,4.06,1.82
				L678.11,650.12z M651.66,674.97v-4.85h-13.57l13.57-17.91v-4.32h-19.45v4.85h12.72l-13.47,17.91v4.32H651.66z M619.13,665.19
				c0,1.92-0.38,3.21-1.18,4.01c-1.44,1.39-2.99,1.55-5.08,1.55c-3.42,0-4.97-1.4-4.97-3.85s1.66-3.9,4.87-3.9h6.37V665.19z
				 M624.57,674.97v-18.11c0-6.15-3.74-9.29-11.17-9.29c-4.49,0-7.16,0.91-9.72,3.89l3.58,3.37c1.49-1.92,2.94-2.62,5.93-2.62
				c4.22,0,5.94,1.66,5.94,5.08v1.93h-7.17c-6.2,0-9.35,3.25-9.35,7.8c0,2.3,0.75,4.39,2.14,5.83c1.65,1.65,3.89,2.45,7.26,2.45
				s5.24-0.8,7.22-2.77v2.45H624.57z M600.2,650.12c-1.87-1.87-3.85-2.56-6.46-2.56c-3.05,0-5.83,1.33-7.22,3.25v-2.93h-5.33v27.09
				h5.44v-16.46c0-3.74,2.46-6.09,5.4-6.09c1.87,0,2.83,0.59,4.06,1.82L600.2,650.12z M558.78,668.46h-6.51v6.51h6.51V668.46z
				 M539.12,663.81c0,4.06-2.4,6.63-5.83,6.63c-3.42,0-5.77-2.57-5.77-6.63c0-4.12,2.35-6.58,5.77-6.58
				C536.93,657.23,539.12,660.06,539.12,663.81 M544.57,663.7c0-6.68-4.48-11-9.99-11c-1.18,0-2.35,0.16-3.37,0.59l8.18-16.35h-5.83
				l-8.66,17.64c-1.66,3.31-2.83,6.25-2.83,9.35c0,7.06,4.7,11.38,11.27,11.38S544.57,670.7,544.57,663.7 M505.35,632.97h-5.24
				l-15.23,45.95h5.24L505.35,632.97z M462.54,663.81c0,4.06-2.41,6.63-5.83,6.63s-5.78-2.57-5.78-6.63c0-4.12,2.36-6.58,5.78-6.58
				C460.35,657.23,462.54,660.06,462.54,663.81 M467.99,663.7c0-6.68-4.48-11-9.99-11c-1.18,0-2.35,0.16-3.37,0.59l8.18-16.35h-5.83
				l-8.66,17.64c-1.66,3.31-2.83,6.25-2.83,9.35c0,7.06,4.7,11.38,11.27,11.38C463.34,675.29,467.99,670.7,467.99,663.7
				 M420.32,659.21h-12.18c0.06-1.66,0.16-2.46,0.7-3.69c0.86-2.04,2.83-3.43,5.39-3.43c2.57,0,4.49,1.39,5.34,3.43
				C420.1,656.75,420.27,657.56,420.32,659.21 M425.72,663v-2.4c0-7.7-4.22-13.03-11.49-13.03c-6.95,0-11.48,5.07-11.48,13.83
				c0,10.32,5.39,13.89,12.18,13.89c4.75,0,7.37-1.44,10.15-4.21l-3.48-3.26c-1.92,1.92-3.53,2.78-6.57,2.78
				c-4.44,0-6.9-2.94-6.9-7.59H425.72z M396.97,666.69c0-4.81-2.99-7.22-8.07-7.64l-4.28-0.37c-2.89-0.27-3.74-1.5-3.74-3.1
				c0-2.03,1.65-3.48,4.92-3.48c2.57,0,4.97,0.53,6.68,1.98l3.42-3.48c-2.51-2.19-5.99-3.04-10.05-3.04c-5.66,0-10.2,2.99-10.2,8.28
				c0,4.76,2.94,7.06,8.02,7.49l4.33,0.37c2.62,0.21,3.63,1.39,3.63,3.21c0,2.57-2.62,3.75-5.93,3.75c-2.67,0-5.61-0.59-7.8-2.84
				l-3.58,3.58c3.21,3.14,6.95,3.89,11.39,3.89C392.16,675.29,396.97,672.36,396.97,666.69 M370.09,666.69
				c0-4.81-2.99-7.22-8.07-7.64l-4.28-0.37c-2.89-0.27-3.74-1.5-3.74-3.1c0-2.03,1.66-3.48,4.92-3.48c2.57,0,4.97,0.53,6.68,1.98
				l3.42-3.48c-2.51-2.19-5.99-3.04-10.05-3.04c-5.66,0-10.21,2.99-10.21,8.28c0,4.76,2.94,7.06,8.02,7.49l4.33,0.37
				c2.62,0.21,3.63,1.39,3.63,3.21c0,2.57-2.62,3.75-5.93,3.75c-2.67,0-5.61-0.59-7.8-2.84l-3.58,3.58
				c3.21,3.14,6.95,3.89,11.38,3.89C365.28,675.29,370.09,672.36,370.09,666.69 M335.67,665.19c0,1.92-0.37,3.21-1.18,4.01
				c-1.44,1.39-2.99,1.55-5.08,1.55c-3.42,0-4.97-1.4-4.97-3.85s1.66-3.9,4.87-3.9h6.36V665.19z M341.12,674.97v-18.11
				c0-6.15-3.74-9.29-11.17-9.29c-4.49,0-7.16,0.91-9.72,3.89l3.57,3.37c1.5-1.92,2.94-2.62,5.93-2.62c4.22,0,5.93,1.66,5.93,5.08
				v1.93h-7.16c-6.2,0-9.35,3.25-9.35,7.8c0,2.3,0.75,4.39,2.13,5.83c1.66,1.65,3.9,2.45,7.27,2.45c3.37,0,5.24-0.8,7.22-2.77v2.45
				H341.12z M314.67,674.97v-4.64h-2.41c-2.19,0-2.94-1.07-2.94-3.16v-30.25h-5.45v30.57c0,4.01,2.24,7.48,7.42,7.48H314.67z
				 M298.63,674.97L285,651.83l12.35-14.91h-7.05l-15.55,19.13v-19.13h-5.76v38.04h5.76v-11.06l6.41-7.7l10.69,18.76H298.63z"/>
		</g>
		<g style="clip-path:url(#SVGID_00000133487537087924353770000016687997068818536586_);">
			<path class="st3" d="M726.22,538.77c0,4.81-0.69,9.03-5.61,9.03c-4.92,0-5.66-4.22-5.66-9.03c0-4.82,0.75-8.98,5.66-8.98
				C725.52,529.79,726.22,533.95,726.22,538.77 M731.66,552.34v-38.04h-5.45v13.68c-1.97-2.35-4.22-3.04-7.11-3.04
				c-2.73,0-5.08,0.91-6.57,2.4c-2.72,2.72-3.04,7.32-3.04,11.44c0,4.11,0.32,8.76,3.04,11.49c1.49,1.5,3.9,2.4,6.63,2.4
				c2.94,0,5.13-0.75,7.16-3.2v2.88H731.66z M697.62,536.58h-12.18c0.05-1.66,0.16-2.46,0.69-3.69c0.86-2.04,2.84-3.43,5.4-3.43
				s4.49,1.39,5.34,3.43C697.41,534.12,697.57,534.92,697.62,536.58 M703.02,540.37v-2.4c0-7.7-4.22-13.03-11.49-13.03
				c-6.95,0-11.48,5.07-11.48,13.83c0,10.32,5.39,13.89,12.17,13.89c4.76,0,7.37-1.44,10.15-4.21l-3.47-3.26
				c-1.92,1.92-3.53,2.78-6.58,2.78c-4.43,0-6.89-2.94-6.89-7.59H703.02z M678.11,527.49c-1.87-1.87-3.85-2.56-6.46-2.56
				c-3.05,0-5.83,1.33-7.22,3.25v-2.93h-5.34v27.09h5.45v-16.46c0-3.74,2.46-6.09,5.4-6.09c1.87,0,2.83,0.59,4.06,1.82
				L678.11,527.49z M651.66,552.34v-4.85h-13.57l13.57-17.91v-4.32h-19.45v4.85h12.72l-13.47,17.91v4.32H651.66z M619.13,542.56
				c0,1.92-0.38,3.21-1.18,4.01c-1.44,1.39-2.99,1.55-5.08,1.55c-3.42,0-4.97-1.4-4.97-3.85s1.66-3.9,4.87-3.9h6.37V542.56z
				 M624.57,552.34v-18.11c0-6.15-3.74-9.29-11.17-9.29c-4.49,0-7.16,0.91-9.72,3.89l3.58,3.37c1.49-1.92,2.94-2.62,5.93-2.62
				c4.22,0,5.94,1.66,5.94,5.08v1.93h-7.17c-6.2,0-9.35,3.25-9.35,7.8c0,2.3,0.75,4.39,2.14,5.83c1.65,1.65,3.89,2.45,7.26,2.45
				s5.24-0.8,7.22-2.77v2.45H624.57z M600.2,527.49c-1.87-1.87-3.85-2.56-6.46-2.56c-3.05,0-5.83,1.33-7.22,3.25v-2.93h-5.33v27.09
				h5.44v-16.46c0-3.74,2.46-6.09,5.4-6.09c1.87,0,2.83,0.59,4.06,1.82L600.2,527.49z M558.78,545.82h-6.51v6.51h6.51V545.82z
				 M545.11,519.15v-4.85h-22.66v10.85h5.24v-5.99h11.59l-12.77,33.19h5.88L545.11,519.15z M505.35,510.34h-5.24l-15.23,45.95h5.24
				L505.35,510.34z M468.53,519.15v-4.85h-22.66v10.85h5.24v-5.99h11.59l-12.77,33.19h5.88L468.53,519.15z M420.32,536.58h-12.18
				c0.06-1.66,0.16-2.46,0.7-3.69c0.86-2.04,2.83-3.43,5.39-3.43c2.57,0,4.49,1.39,5.34,3.43
				C420.1,534.12,420.27,534.92,420.32,536.58 M425.72,540.37v-2.4c0-7.7-4.22-13.03-11.49-13.03c-6.95,0-11.48,5.07-11.48,13.83
				c0,10.32,5.39,13.89,12.18,13.89c4.75,0,7.37-1.44,10.15-4.21l-3.48-3.26c-1.92,1.92-3.53,2.78-6.57,2.78
				c-4.44,0-6.9-2.94-6.9-7.59H425.72z M396.97,544.06c0-4.81-2.99-7.22-8.07-7.64l-4.28-0.37c-2.89-0.27-3.74-1.5-3.74-3.1
				c0-2.03,1.65-3.48,4.92-3.48c2.57,0,4.97,0.53,6.68,1.98l3.42-3.48c-2.51-2.19-5.99-3.04-10.05-3.04c-5.66,0-10.2,2.99-10.2,8.27
				c0,4.76,2.94,7.06,8.02,7.49l4.33,0.37c2.62,0.21,3.63,1.39,3.63,3.21c0,2.57-2.62,3.75-5.93,3.75c-2.67,0-5.61-0.59-7.8-2.84
				l-3.58,3.58c3.21,3.15,6.95,3.9,11.39,3.9C392.16,552.66,396.97,549.72,396.97,544.06 M370.09,544.06c0-4.81-2.99-7.22-8.07-7.64
				l-4.28-0.37c-2.89-0.27-3.74-1.5-3.74-3.1c0-2.03,1.66-3.48,4.92-3.48c2.57,0,4.97,0.53,6.68,1.98l3.42-3.48
				c-2.51-2.19-5.99-3.04-10.05-3.04c-5.66,0-10.21,2.99-10.21,8.27c0,4.76,2.94,7.06,8.02,7.49l4.33,0.37
				c2.62,0.21,3.63,1.39,3.63,3.21c0,2.57-2.62,3.75-5.93,3.75c-2.67,0-5.61-0.59-7.8-2.84l-3.58,3.58c3.21,3.15,6.95,3.9,11.38,3.9
				C365.28,552.66,370.09,549.72,370.09,544.06 M335.67,542.56c0,1.92-0.37,3.21-1.18,4.01c-1.44,1.39-2.99,1.55-5.08,1.55
				c-3.42,0-4.97-1.4-4.97-3.85s1.66-3.9,4.87-3.9h6.36V542.56z M341.12,552.34v-18.11c0-6.15-3.74-9.29-11.17-9.29
				c-4.49,0-7.16,0.91-9.72,3.89l3.57,3.37c1.5-1.92,2.94-2.62,5.93-2.62c4.22,0,5.93,1.66,5.93,5.08v1.93h-7.16
				c-6.2,0-9.35,3.25-9.35,7.8c0,2.3,0.75,4.39,2.13,5.83c1.66,1.65,3.9,2.45,7.27,2.45c3.37,0,5.24-0.8,7.22-2.77v2.45H341.12z
				 M314.67,552.34v-4.64h-2.41c-2.19,0-2.94-1.07-2.94-3.16v-30.25h-5.45v30.57c0,4.01,2.24,7.48,7.42,7.48H314.67z M298.63,552.34
				L285,529.2l12.35-14.91h-7.05l-15.55,19.13v-19.13h-5.76v38.04h5.76v-11.06l6.41-7.7l10.69,18.76H298.63z"/>
		</g>
		<g style="clip-path:url(#SVGID_00000133487537087924353770000016687997068818536586_);">
			<path class="st3" d="M726.22,421.76c0,4.81-0.69,9.03-5.61,9.03c-4.92,0-5.66-4.22-5.66-9.03c0-4.82,0.75-8.98,5.66-8.98
				C725.52,412.78,726.22,416.95,726.22,421.76 M731.66,435.33v-38.04h-5.45v13.68c-1.97-2.35-4.22-3.04-7.11-3.04
				c-2.73,0-5.08,0.91-6.57,2.4c-2.72,2.72-3.04,7.32-3.04,11.44c0,4.11,0.32,8.76,3.04,11.49c1.49,1.5,3.9,2.4,6.63,2.4
				c2.94,0,5.13-0.75,7.16-3.2v2.88H731.66z M697.62,419.57h-12.18c0.05-1.66,0.16-2.46,0.69-3.69c0.86-2.04,2.84-3.43,5.4-3.43
				s4.49,1.39,5.34,3.43C697.41,417.11,697.57,417.91,697.62,419.57 M703.02,423.36v-2.4c0-7.7-4.22-13.03-11.49-13.03
				c-6.95,0-11.48,5.07-11.48,13.83c0,10.32,5.39,13.89,12.17,13.89c4.76,0,7.37-1.44,10.15-4.21l-3.47-3.26
				c-1.92,1.92-3.53,2.78-6.58,2.78c-4.43,0-6.89-2.94-6.89-7.59H703.02z M678.11,410.48c-1.87-1.87-3.85-2.56-6.46-2.56
				c-3.05,0-5.83,1.33-7.22,3.25v-2.93h-5.34v27.09h5.45v-16.46c0-3.74,2.46-6.09,5.4-6.09c1.87,0,2.83,0.59,4.06,1.82
				L678.11,410.48z M651.66,435.33v-4.85h-13.57l13.57-17.91v-4.32h-19.45v4.85h12.72l-13.47,17.91v4.32H651.66z M619.13,425.55
				c0,1.92-0.38,3.21-1.18,4.01c-1.44,1.39-2.99,1.55-5.08,1.55c-3.42,0-4.97-1.4-4.97-3.85c0-2.46,1.66-3.9,4.87-3.9h6.37V425.55z
				 M624.57,435.33v-18.11c0-6.15-3.74-9.29-11.17-9.29c-4.49,0-7.16,0.91-9.72,3.89l3.58,3.37c1.49-1.92,2.94-2.62,5.93-2.62
				c4.22,0,5.94,1.66,5.94,5.08v1.93h-7.17c-6.2,0-9.35,3.25-9.35,7.8c0,2.3,0.75,4.39,2.14,5.83c1.65,1.65,3.89,2.45,7.26,2.45
				s5.24-0.8,7.22-2.77v2.45H624.57z M600.2,410.48c-1.87-1.87-3.85-2.56-6.46-2.56c-3.05,0-5.83,1.33-7.22,3.25v-2.93h-5.33v27.09
				h5.44v-16.46c0-3.74,2.46-6.09,5.4-6.09c1.87,0,2.83,0.59,4.06,1.82L600.2,410.48z M558.78,428.81h-6.51v6.51h6.51V428.81z
				 M538.96,407.65c0,3.36-2.36,5.77-5.67,5.77s-5.61-2.41-5.61-5.77c0-3.32,2.3-5.83,5.61-5.83S538.96,404.33,538.96,407.65
				 M539.55,424.48c0,3.53-2.73,6.31-6.26,6.31c-3.53,0-6.26-2.78-6.26-6.31s2.73-6.36,6.26-6.36
				C536.82,418.12,539.55,420.96,539.55,424.48 M545.05,424.59c0-4.55-2.57-7.32-5.23-8.92c2.45-1.5,4.59-4.17,4.59-8.18
				c0-6.36-4.91-10.53-11.12-10.53c-6.2,0-11.06,4.16-11.06,10.53c0,4.01,2.14,6.68,4.59,8.18c-2.67,1.6-5.23,4.38-5.23,8.92
				c0,6.9,5.18,11.06,11.7,11.06C539.82,435.65,545.05,431.49,545.05,424.59 M505.35,393.33h-5.24l-15.23,45.95h5.24L505.35,393.33z
				 M462.38,407.65c0,3.36-2.36,5.77-5.67,5.77c-3.31,0-5.61-2.41-5.61-5.77c0-3.32,2.3-5.83,5.61-5.83
				C460.03,401.82,462.38,404.33,462.38,407.65 M462.97,424.48c0,3.53-2.73,6.31-6.26,6.31s-6.26-2.78-6.26-6.31
				s2.73-6.36,6.26-6.36S462.97,420.96,462.97,424.48 M468.47,424.59c0-4.55-2.56-7.32-5.23-8.92c2.45-1.5,4.59-4.17,4.59-8.18
				c0-6.36-4.91-10.53-11.12-10.53c-6.2,0-11.06,4.16-11.06,10.53c0,4.01,2.14,6.68,4.59,8.18c-2.67,1.6-5.23,4.38-5.23,8.92
				c0,6.9,5.18,11.06,11.7,11.06C463.24,435.65,468.47,431.49,468.47,424.59 M420.32,419.57h-12.18c0.06-1.66,0.16-2.46,0.7-3.69
				c0.86-2.04,2.83-3.43,5.39-3.43c2.57,0,4.49,1.39,5.34,3.43C420.1,417.11,420.27,417.91,420.32,419.57 M425.72,423.36v-2.4
				c0-7.7-4.22-13.03-11.49-13.03c-6.95,0-11.48,5.07-11.48,13.83c0,10.32,5.39,13.89,12.18,13.89c4.75,0,7.37-1.44,10.15-4.21
				l-3.48-3.26c-1.92,1.92-3.53,2.78-6.57,2.78c-4.44,0-6.9-2.94-6.9-7.59H425.72z M396.97,427.05c0-4.81-2.99-7.22-8.07-7.64
				l-4.28-0.37c-2.89-0.27-3.74-1.5-3.74-3.1c0-2.03,1.65-3.48,4.92-3.48c2.57,0,4.97,0.53,6.68,1.98l3.42-3.48
				c-2.51-2.19-5.99-3.04-10.05-3.04c-5.66,0-10.2,2.99-10.2,8.27c0,4.76,2.94,7.06,8.02,7.49l4.33,0.37
				c2.62,0.21,3.63,1.39,3.63,3.21c0,2.57-2.62,3.75-5.93,3.75c-2.67,0-5.61-0.59-7.8-2.84l-3.58,3.58c3.21,3.15,6.95,3.9,11.39,3.9
				C392.16,435.65,396.97,432.71,396.97,427.05 M370.09,427.05c0-4.81-2.99-7.22-8.07-7.64l-4.28-0.37c-2.89-0.27-3.74-1.5-3.74-3.1
				c0-2.03,1.66-3.48,4.92-3.48c2.57,0,4.97,0.53,6.68,1.98l3.42-3.48c-2.51-2.19-5.99-3.04-10.05-3.04
				c-5.66,0-10.21,2.99-10.21,8.27c0,4.76,2.94,7.06,8.02,7.49l4.33,0.37c2.62,0.21,3.63,1.39,3.63,3.21c0,2.57-2.62,3.75-5.93,3.75
				c-2.67,0-5.61-0.59-7.8-2.84l-3.58,3.58c3.21,3.15,6.95,3.9,11.38,3.9C365.28,435.65,370.09,432.71,370.09,427.05 M335.67,425.55
				c0,1.92-0.37,3.21-1.18,4.01c-1.44,1.39-2.99,1.55-5.08,1.55c-3.42,0-4.97-1.4-4.97-3.85c0-2.46,1.66-3.9,4.87-3.9h6.36V425.55z
				 M341.12,435.33v-18.11c0-6.15-3.74-9.29-11.17-9.29c-4.49,0-7.16,0.91-9.72,3.89l3.57,3.37c1.5-1.92,2.94-2.62,5.93-2.62
				c4.22,0,5.93,1.66,5.93,5.08v1.93h-7.16c-6.2,0-9.35,3.25-9.35,7.8c0,2.3,0.75,4.39,2.13,5.83c1.66,1.65,3.9,2.45,7.27,2.45
				c3.37,0,5.24-0.8,7.22-2.77v2.45H341.12z M314.67,435.33v-4.64h-2.41c-2.19,0-2.94-1.07-2.94-3.16v-30.25h-5.45v30.57
				c0,4.01,2.24,7.48,7.42,7.48H314.67z M298.63,435.33L285,412.19l12.35-14.91h-7.05l-15.55,19.13v-19.13h-5.76v38.04h5.76v-11.06
				l6.41-7.7l10.69,18.76H298.63z"/>
		</g>
		<g style="clip-path:url(#SVGID_00000133487537087924353770000016687997068818536586_);">
			<path class="st3" d="M726.22,304.75c0,4.81-0.69,9.03-5.61,9.03c-4.92,0-5.66-4.22-5.66-9.03c0-4.82,0.75-8.98,5.66-8.98
				C725.52,295.77,726.22,299.94,726.22,304.75 M731.66,318.32v-38.04h-5.45v13.68c-1.97-2.35-4.22-3.04-7.11-3.04
				c-2.73,0-5.08,0.91-6.57,2.4c-2.72,2.72-3.04,7.32-3.04,11.44c0,4.11,0.32,8.76,3.04,11.49c1.49,1.5,3.9,2.4,6.63,2.4
				c2.94,0,5.13-0.75,7.16-3.2v2.88H731.66z M697.62,302.56h-12.18c0.05-1.66,0.16-2.46,0.69-3.69c0.86-2.04,2.84-3.43,5.4-3.43
				s4.49,1.39,5.34,3.43C697.41,300.1,697.57,300.9,697.62,302.56 M703.02,306.35v-2.4c0-7.7-4.22-13.03-11.49-13.03
				c-6.95,0-11.48,5.07-11.48,13.83c0,10.32,5.39,13.89,12.17,13.89c4.76,0,7.37-1.44,10.15-4.21l-3.47-3.26
				c-1.92,1.92-3.53,2.78-6.58,2.78c-4.43,0-6.89-2.94-6.89-7.59H703.02z M678.11,293.47c-1.87-1.87-3.85-2.56-6.46-2.56
				c-3.05,0-5.83,1.33-7.22,3.25v-2.93h-5.34v27.09h5.45v-16.46c0-3.74,2.46-6.09,5.4-6.09c1.87,0,2.83,0.59,4.06,1.82
				L678.11,293.47z M651.66,318.32v-4.85h-13.57l13.57-17.91v-4.32h-19.45v4.85h12.72L631.46,314v4.32H651.66z M619.13,308.54
				c0,1.92-0.38,3.21-1.18,4.01c-1.44,1.39-2.99,1.55-5.08,1.55c-3.42,0-4.97-1.4-4.97-3.85c0-2.46,1.66-3.9,4.87-3.9h6.37V308.54z
				 M624.57,318.32v-18.11c0-6.15-3.74-9.29-11.17-9.29c-4.49,0-7.16,0.91-9.72,3.89l3.58,3.37c1.49-1.92,2.94-2.62,5.93-2.62
				c4.22,0,5.94,1.66,5.94,5.08v1.93h-7.17c-6.2,0-9.35,3.25-9.35,7.8c0,2.3,0.75,4.39,2.14,5.83c1.65,1.65,3.89,2.45,7.26,2.45
				s5.24-0.8,7.22-2.77v2.45H624.57z M600.2,293.47c-1.87-1.87-3.85-2.56-6.46-2.56c-3.05,0-5.83,1.33-7.22,3.25v-2.93h-5.33v27.09
				h5.44v-16.46c0-3.74,2.46-6.09,5.4-6.09c1.87,0,2.83,0.59,4.06,1.82L600.2,293.47z M558.78,311.81h-6.51v6.51h6.51V311.81z
				 M539.12,291.44c0,4.12-2.4,6.58-5.83,6.58c-3.63,0-5.77-2.84-5.77-6.58c0-4.06,2.35-6.63,5.77-6.63
				C536.72,284.82,539.12,287.38,539.12,291.44 M544.57,291.34c0-7.05-4.7-11.38-11.27-11.38s-11.22,4.59-11.22,11.59
				c0,6.68,4.43,11,9.93,11c1.18,0,2.41-0.16,3.42-0.59l-8.18,16.35h5.83l8.66-17.64C543.39,297.38,544.57,294.43,544.57,291.34
				 M505.35,276.32h-5.24l-15.23,45.95h5.24L505.35,276.32z M462.54,291.44c0,4.12-2.41,6.58-5.83,6.58c-3.63,0-5.78-2.84-5.78-6.58
				c0-4.06,2.36-6.63,5.78-6.63S462.54,287.38,462.54,291.44 M467.99,291.34c0-7.05-4.7-11.38-11.27-11.38
				c-6.58,0-11.22,4.59-11.22,11.59c0,6.68,4.43,11,9.93,11c1.18,0,2.41-0.16,3.42-0.59l-8.18,16.35h5.83l8.66-17.64
				C466.81,297.38,467.99,294.43,467.99,291.34 M420.32,302.56h-12.18c0.06-1.66,0.16-2.46,0.7-3.69c0.86-2.04,2.83-3.43,5.39-3.43
				c2.57,0,4.49,1.39,5.34,3.43C420.1,300.1,420.27,300.9,420.32,302.56 M425.72,306.35v-2.4c0-7.7-4.22-13.03-11.49-13.03
				c-6.95,0-11.48,5.07-11.48,13.83c0,10.32,5.39,13.89,12.18,13.89c4.75,0,7.37-1.44,10.15-4.21l-3.48-3.26
				c-1.92,1.92-3.53,2.78-6.57,2.78c-4.44,0-6.9-2.94-6.9-7.59H425.72z M396.97,310.04c0-4.81-2.99-7.22-8.07-7.64l-4.28-0.37
				c-2.89-0.27-3.74-1.5-3.74-3.1c0-2.03,1.65-3.48,4.92-3.48c2.57,0,4.97,0.53,6.68,1.98l3.42-3.48
				c-2.51-2.19-5.99-3.04-10.05-3.04c-5.66,0-10.2,2.99-10.2,8.27c0,4.76,2.94,7.06,8.02,7.49l4.33,0.37
				c2.62,0.21,3.63,1.39,3.63,3.21c0,2.57-2.62,3.75-5.93,3.75c-2.67,0-5.61-0.59-7.8-2.84l-3.58,3.58c3.21,3.15,6.95,3.9,11.39,3.9
				C392.16,318.64,396.97,315.7,396.97,310.04 M370.09,310.04c0-4.81-2.99-7.22-8.07-7.64l-4.28-0.37c-2.89-0.27-3.74-1.5-3.74-3.1
				c0-2.03,1.66-3.48,4.92-3.48c2.57,0,4.97,0.53,6.68,1.98l3.42-3.48c-2.51-2.19-5.99-3.04-10.05-3.04
				c-5.66,0-10.21,2.99-10.21,8.27c0,4.76,2.94,7.06,8.02,7.49l4.33,0.37c2.62,0.21,3.63,1.39,3.63,3.21c0,2.57-2.62,3.75-5.93,3.75
				c-2.67,0-5.61-0.59-7.8-2.84l-3.58,3.58c3.21,3.15,6.95,3.9,11.38,3.9C365.28,318.64,370.09,315.7,370.09,310.04 M335.67,308.54
				c0,1.92-0.37,3.21-1.18,4.01c-1.44,1.39-2.99,1.55-5.08,1.55c-3.42,0-4.97-1.4-4.97-3.85c0-2.46,1.66-3.9,4.87-3.9h6.36V308.54z
				 M341.12,318.32v-18.11c0-6.15-3.74-9.29-11.17-9.29c-4.49,0-7.16,0.91-9.72,3.89l3.57,3.37c1.5-1.92,2.94-2.62,5.93-2.62
				c4.22,0,5.93,1.66,5.93,5.08v1.93h-7.16c-6.2,0-9.35,3.25-9.35,7.8c0,2.3,0.75,4.39,2.13,5.83c1.66,1.65,3.9,2.45,7.27,2.45
				c3.37,0,5.24-0.8,7.22-2.77v2.45H341.12z M314.67,318.32v-4.64h-2.41c-2.19,0-2.94-1.07-2.94-3.16v-30.25h-5.45v30.57
				c0,4.01,2.24,7.48,7.42,7.48H314.67z M298.63,318.32L285,295.18l12.35-14.91h-7.05l-15.55,19.13v-19.13h-5.76v38.04h5.76v-11.06
				l6.41-7.7l10.69,18.76H298.63z"/>
		</g>
		<g style="clip-path:url(#SVGID_00000133487537087924353770000016687997068818536586_);">
			<path class="st3" d="M755.24,187.74c0,4.81-0.69,9.03-5.61,9.03c-4.92,0-5.66-4.22-5.66-9.03c0-4.82,0.75-8.98,5.66-8.98
				C754.54,178.76,755.24,182.93,755.24,187.74 M760.68,201.31v-38.04h-5.45v13.68c-1.97-2.35-4.22-3.04-7.11-3.04
				c-2.73,0-5.08,0.91-6.57,2.4c-2.72,2.72-3.04,7.32-3.04,11.44c0,4.11,0.32,8.76,3.04,11.49c1.49,1.5,3.9,2.4,6.62,2.4
				c2.94,0,5.14-0.75,7.17-3.2v2.88H760.68z M726.64,185.55h-12.18c0.05-1.66,0.16-2.46,0.69-3.69c0.86-2.04,2.84-3.43,5.4-3.43
				c2.57,0,4.49,1.39,5.34,3.43C726.43,183.09,726.59,183.9,726.64,185.55 M732.04,189.34v-2.4c0-7.7-4.22-13.03-11.49-13.03
				c-6.95,0-11.49,5.07-11.49,13.83c0,10.32,5.39,13.89,12.18,13.89c4.76,0,7.37-1.44,10.15-4.21l-3.47-3.26
				c-1.92,1.92-3.53,2.78-6.58,2.78c-4.43,0-6.89-2.94-6.89-7.59H732.04z M707.13,176.46c-1.87-1.87-3.85-2.56-6.46-2.56
				c-3.05,0-5.83,1.33-7.22,3.25v-2.93h-5.34v27.09h5.45v-16.46c0-3.74,2.46-6.09,5.4-6.09c1.87,0,2.83,0.59,4.06,1.82
				L707.13,176.46z M680.68,201.31v-4.85h-13.57l13.57-17.91v-4.32h-19.45v4.85h12.72l-13.47,17.91v4.32H680.68z M648.14,191.53
				c0,1.92-0.37,3.21-1.18,4.01c-1.44,1.39-2.99,1.55-5.08,1.55c-3.42,0-4.97-1.4-4.97-3.85c0-2.46,1.66-3.9,4.87-3.9h6.36V191.53z
				 M653.58,201.31V183.2c0-6.15-3.74-9.29-11.17-9.29c-4.49,0-7.16,0.91-9.72,3.89l3.57,3.37c1.5-1.92,2.94-2.62,5.93-2.62
				c4.22,0,5.93,1.66,5.93,5.08v1.93h-7.16c-6.2,0-9.35,3.25-9.35,7.8c0,2.3,0.75,4.39,2.13,5.83c1.66,1.65,3.9,2.45,7.27,2.45
				s5.24-0.8,7.22-2.77v2.45H653.58z M629.22,176.46c-1.87-1.87-3.85-2.56-6.46-2.56c-3.05,0-5.83,1.33-7.22,3.25v-2.93h-5.34v27.09
				h5.45v-16.46c0-3.74,2.46-6.09,5.4-6.09c1.87,0,2.83,0.59,4.06,1.82L629.22,176.46z M587.8,194.8h-6.51v6.51h6.51V194.8z
				 M567.88,190.57c0,3.69-2.09,6.2-5.56,6.2c-3.48,0-5.51-2.51-5.51-6.2v-16.57c0-3.69,2.03-6.2,5.51-6.2
				c3.48,0,5.56,2.51,5.56,6.2V190.57z M573.32,190.74v-16.89c0-6.78-4.96-10.9-11-10.9s-10.95,4.11-10.95,10.9v16.89
				c0,6.79,4.91,10.9,10.95,10.9S573.32,197.53,573.32,190.74 M538.04,201.31v-38.04h-5.44l-7.43,6.41v6.04l7.43-6.51v32.11H538.04z
				 M505.34,159.31h-5.24l-15.23,45.95h5.24L505.34,159.31z M462.28,190.57c0,3.69-2.09,6.2-5.56,6.2c-3.47,0-5.51-2.51-5.51-6.2
				v-16.57c0-3.69,2.04-6.2,5.51-6.2c3.48,0,5.56,2.51,5.56,6.2V190.57z M467.72,190.74v-16.89c0-6.78-4.97-10.9-11.01-10.9
				c-6.04,0-10.95,4.11-10.95,10.9v16.89c0,6.79,4.91,10.9,10.95,10.9C462.75,201.63,467.72,197.53,467.72,190.74 M432.45,201.31
				v-38.04H427l-7.43,6.41v6.04l7.43-6.51v32.11H432.45z M391.3,185.55h-12.18c0.06-1.66,0.16-2.46,0.7-3.69
				c0.86-2.04,2.83-3.43,5.39-3.43c2.57,0,4.49,1.39,5.34,3.43C391.09,183.09,391.25,183.9,391.3,185.55 M396.7,189.34v-2.4
				c0-7.7-4.22-13.03-11.49-13.03c-6.95,0-11.48,5.07-11.48,13.83c0,10.32,5.39,13.89,12.18,13.89c4.75,0,7.37-1.44,10.15-4.21
				l-3.48-3.26c-1.92,1.92-3.53,2.78-6.57,2.78c-4.44,0-6.9-2.94-6.9-7.59H396.7z M367.95,193.03c0-4.81-2.99-7.22-8.07-7.64
				l-4.28-0.37c-2.89-0.27-3.74-1.5-3.74-3.1c0-2.03,1.65-3.48,4.92-3.48c2.57,0,4.97,0.53,6.68,1.98l3.42-3.48
				c-2.51-2.19-5.99-3.04-10.05-3.04c-5.66,0-10.2,2.99-10.2,8.27c0,4.76,2.94,7.06,8.02,7.49l4.33,0.37
				c2.62,0.21,3.63,1.39,3.63,3.21c0,2.57-2.62,3.75-5.93,3.75c-2.67,0-5.61-0.59-7.8-2.84l-3.58,3.58c3.21,3.15,6.95,3.9,11.39,3.9
				C363.14,201.63,367.95,198.7,367.95,193.03 M341.07,193.03c0-4.81-2.99-7.22-8.07-7.64l-4.28-0.37c-2.89-0.27-3.74-1.5-3.74-3.1
				c0-2.03,1.66-3.48,4.92-3.48c2.57,0,4.97,0.53,6.68,1.98l3.42-3.48c-2.51-2.19-5.99-3.04-10.05-3.04
				c-5.66,0-10.21,2.99-10.21,8.27c0,4.76,2.94,7.06,8.02,7.49l4.33,0.37c2.62,0.21,3.63,1.39,3.63,3.21c0,2.57-2.62,3.75-5.93,3.75
				c-2.67,0-5.61-0.59-7.8-2.84l-3.58,3.58c3.21,3.15,6.95,3.9,11.38,3.9C336.26,201.63,341.07,198.7,341.07,193.03 M306.65,191.53
				c0,1.92-0.37,3.21-1.18,4.01c-1.44,1.39-2.99,1.55-5.08,1.55c-3.42,0-4.97-1.4-4.97-3.85c0-2.46,1.66-3.9,4.87-3.9h6.36V191.53z
				 M312.1,201.31V183.2c0-6.15-3.74-9.29-11.17-9.29c-4.49,0-7.16,0.91-9.72,3.89l3.57,3.37c1.5-1.92,2.94-2.62,5.93-2.62
				c4.22,0,5.93,1.66,5.93,5.08v1.93h-7.16c-6.2,0-9.35,3.25-9.35,7.8c0,2.3,0.75,4.39,2.14,5.83c1.65,1.65,3.89,2.45,7.26,2.45
				c3.37,0,5.24-0.8,7.22-2.77v2.45H312.1z M285.65,201.31v-4.64h-2.41c-2.19,0-2.94-1.07-2.94-3.16v-30.25h-5.45v30.57
				c0,4.01,2.24,7.48,7.42,7.48H285.65z M269.62,201.31l-13.63-23.14l12.35-14.91h-7.05l-15.55,19.13v-19.13h-5.76v38.04h5.76
				v-11.06l6.42-7.7l10.69,18.76H269.62z"/>
		</g>
		<g style="clip-path:url(#SVGID_00000133487537087924353770000016687997068818536586_);">
			<path class="st3" d="M726.22,772.79c0,4.81-0.69,9.03-5.61,9.03c-4.92,0-5.66-4.22-5.66-9.03c0-4.82,0.75-8.98,5.66-8.98
				C725.52,763.8,726.22,767.97,726.22,772.79 M731.66,786.35v-38.04h-5.45v13.68c-1.97-2.35-4.22-3.04-7.11-3.04
				c-2.73,0-5.08,0.91-6.57,2.4c-2.72,2.72-3.04,7.32-3.04,11.44c0,4.11,0.32,8.76,3.04,11.49c1.49,1.5,3.9,2.4,6.63,2.4
				c2.94,0,5.13-0.75,7.16-3.2v2.88H731.66z M697.62,770.6h-12.18c0.05-1.66,0.16-2.46,0.69-3.69c0.86-2.04,2.84-3.43,5.4-3.43
				s4.49,1.39,5.34,3.43C697.41,768.13,697.57,768.94,697.62,770.6 M703.02,774.38v-2.4c0-7.7-4.22-13.03-11.49-13.03
				c-6.95,0-11.48,5.07-11.48,13.83c0,10.32,5.39,13.89,12.17,13.89c4.76,0,7.37-1.44,10.15-4.21l-3.47-3.26
				c-1.92,1.92-3.53,2.78-6.58,2.78c-4.43,0-6.89-2.94-6.89-7.59H703.02z M678.11,761.51c-1.87-1.87-3.85-2.56-6.46-2.56
				c-3.05,0-5.83,1.33-7.22,3.25v-2.93h-5.34v27.09h5.45v-16.46c0-3.74,2.46-6.09,5.4-6.09c1.87,0,2.83,0.59,4.06,1.82
				L678.11,761.51z M651.66,786.35v-4.85h-13.57l13.57-17.91v-4.32h-19.45v4.85h12.72l-13.47,17.91v4.32H651.66z M619.13,776.58
				c0,1.92-0.38,3.21-1.18,4.01c-1.44,1.39-2.99,1.55-5.08,1.55c-3.42,0-4.97-1.4-4.97-3.85c0-2.46,1.66-3.9,4.87-3.9h6.37V776.58z
				 M624.57,786.35v-18.11c0-6.15-3.74-9.29-11.17-9.29c-4.49,0-7.16,0.91-9.72,3.89l3.58,3.37c1.49-1.92,2.94-2.62,5.93-2.62
				c4.22,0,5.94,1.66,5.94,5.08v1.93h-7.17c-6.2,0-9.35,3.25-9.35,7.8c0,2.3,0.75,4.39,2.14,5.83c1.65,1.65,3.89,2.45,7.26,2.45
				s5.24-0.8,7.22-2.77v2.45H624.57z M600.2,761.51c-1.87-1.87-3.85-2.56-6.46-2.56c-3.05,0-5.83,1.33-7.22,3.25v-2.93h-5.33v27.09
				h5.44v-16.46c0-3.74,2.46-6.09,5.4-6.09c1.87,0,2.83,0.59,4.06,1.82L600.2,761.51z M558.78,779.84h-6.51v6.51h6.51V779.84z
				 M544.67,773.64c0-3.58-0.43-7.27-3.31-10.15c-1.55-1.55-3.85-2.46-6.84-2.46c-2.78,0-5.03,0.86-6.31,2.19v-10.05h15.6v-4.85
				H523.3v20.79h4.97c0.59-1.87,2.3-3.42,5.4-3.42c4.38,0,5.56,3.42,5.56,7.97c0,2.57-0.21,5.07-1.82,6.68
				c-0.96,0.96-2.35,1.5-3.95,1.5c-3.43,0-5.14-1.92-5.56-5.29h-5.45c0.21,2.73,0.86,5.24,2.89,7.27c1.65,1.65,4.48,2.93,8.12,2.93
				c3.69,0,6.31-1.28,8.02-2.99C544.25,780.97,544.67,777.7,544.67,773.64 M505.35,744.36h-5.24l-15.23,45.95h5.24L505.35,744.36z
				 M468.09,773.64c0-3.58-0.43-7.27-3.31-10.15c-1.55-1.55-3.85-2.46-6.84-2.46c-2.78,0-5.03,0.86-6.31,2.19v-10.05h15.6v-4.85
				h-20.52v20.79h4.96c0.59-1.87,2.3-3.42,5.41-3.42c4.38,0,5.56,3.42,5.56,7.97c0,2.57-0.21,5.07-1.82,6.68
				c-0.96,0.96-2.35,1.5-3.95,1.5c-3.43,0-5.14-1.92-5.56-5.29h-5.45c0.21,2.73,0.86,5.24,2.89,7.27c1.65,1.65,4.48,2.93,8.12,2.93
				c3.68,0,6.31-1.28,8.02-2.99C467.67,780.97,468.09,777.7,468.09,773.64 M420.32,770.6h-12.18c0.06-1.66,0.16-2.46,0.7-3.69
				c0.86-2.04,2.83-3.43,5.39-3.43c2.57,0,4.49,1.39,5.34,3.43C420.1,768.13,420.27,768.94,420.32,770.6 M425.72,774.38v-2.4
				c0-7.7-4.22-13.03-11.49-13.03c-6.95,0-11.48,5.07-11.48,13.83c0,10.32,5.39,13.89,12.18,13.89c4.75,0,7.37-1.44,10.15-4.21
				l-3.48-3.26c-1.92,1.92-3.53,2.78-6.57,2.78c-4.44,0-6.9-2.94-6.9-7.59H425.72z M396.97,778.07c0-4.81-2.99-7.22-8.07-7.64
				l-4.28-0.37c-2.89-0.27-3.74-1.5-3.74-3.1c0-2.03,1.65-3.48,4.92-3.48c2.57,0,4.97,0.53,6.68,1.98l3.42-3.48
				c-2.51-2.19-5.99-3.04-10.05-3.04c-5.66,0-10.2,2.99-10.2,8.27c0,4.76,2.94,7.06,8.02,7.49l4.33,0.37
				c2.62,0.21,3.63,1.39,3.63,3.21c0,2.57-2.62,3.75-5.93,3.75c-2.67,0-5.61-0.59-7.8-2.84l-3.58,3.58
				c3.21,3.14,6.95,3.89,11.39,3.89C392.16,786.68,396.97,783.74,396.97,778.07 M370.09,778.07c0-4.81-2.99-7.22-8.07-7.64
				l-4.28-0.37c-2.89-0.27-3.74-1.5-3.74-3.1c0-2.03,1.66-3.48,4.92-3.48c2.57,0,4.97,0.53,6.68,1.98l3.42-3.48
				c-2.51-2.19-5.99-3.04-10.05-3.04c-5.66,0-10.21,2.99-10.21,8.27c0,4.76,2.94,7.06,8.02,7.49l4.33,0.37
				c2.62,0.21,3.63,1.39,3.63,3.21c0,2.57-2.62,3.75-5.93,3.75c-2.67,0-5.61-0.59-7.8-2.84l-3.58,3.58
				c3.21,3.14,6.95,3.89,11.38,3.89C365.28,786.68,370.09,783.74,370.09,778.07 M335.67,776.58c0,1.92-0.37,3.21-1.18,4.01
				c-1.44,1.39-2.99,1.55-5.08,1.55c-3.42,0-4.97-1.4-4.97-3.85c0-2.46,1.66-3.9,4.87-3.9h6.36V776.58z M341.12,786.35v-18.11
				c0-6.15-3.74-9.29-11.17-9.29c-4.49,0-7.16,0.91-9.72,3.89l3.57,3.37c1.5-1.92,2.94-2.62,5.93-2.62c4.22,0,5.93,1.66,5.93,5.08
				v1.93h-7.16c-6.2,0-9.35,3.25-9.35,7.8c0,2.3,0.75,4.39,2.13,5.83c1.66,1.65,3.9,2.45,7.27,2.45c3.37,0,5.24-0.8,7.22-2.77v2.45
				H341.12z M314.67,786.35v-4.64h-2.41c-2.19,0-2.94-1.07-2.94-3.16v-30.25h-5.45v30.57c0,4.01,2.24,7.48,7.42,7.48H314.67z
				 M298.63,786.35L285,763.22l12.35-14.91h-7.05l-15.55,19.13v-19.13h-5.76v38.04h5.76V775.3l6.41-7.7l10.69,18.76H298.63z"/>
		</g>
	</g>
	<g>
		<polygon class="st4" points="18.53,758.51 34.62,758.51 26.58,747.87 		"/>
	</g>
	<g>
		<polygon class="st4" points="18.53,779.67 34.62,779.67 26.58,769.03 		"/>
	</g>
	<g>
		<polygon class="st4" points="18.53,800.83 34.62,800.83 26.58,790.19 		"/>
	</g>
	<g>
		<polygon class="st4" points="18.53,737.35 34.62,737.35 26.58,726.71 		"/>
	</g>
	<g>
		<polygon class="st4" points="18.53,642.91 34.62,642.91 26.58,632.27 		"/>
	</g>
	<g>
		<polygon class="st4" points="18.53,664.07 34.62,664.07 26.58,653.43 		"/>
	</g>
	<g>
		<polygon class="st4" points="18.53,685.22 34.62,685.22 26.58,674.59 		"/>
	</g>
	<g>
		<polygon class="st4" points="18.53,621.75 34.62,621.75 26.58,611.11 		"/>
	</g>
	<g>
		<polygon class="st4" points="18.53,523.08 34.62,523.08 26.58,512.45 		"/>
	</g>
	<g>
		<polygon class="st4" points="18.53,544.24 34.62,544.24 26.58,533.61 		"/>
	</g>
	<g>
		<polygon class="st4" points="18.53,565.4 34.62,565.4 26.58,554.76 		"/>
	</g>
	<g>
		<polygon class="st4" points="18.53,501.93 34.62,501.93 26.58,491.29 		"/>
	</g>
	<g>
		<polygon class="st4" points="18.53,404.67 34.62,404.67 26.58,394.03 		"/>
	</g>
	<g>
		<polygon class="st4" points="18.53,425.83 34.62,425.83 26.58,415.19 		"/>
	</g>
	<g>
		<polygon class="st4" points="18.53,446.99 34.62,446.99 26.58,436.35 		"/>
	</g>
	<g>
		<polygon class="st4" points="18.53,383.51 34.62,383.51 26.58,372.87 		"/>
	</g>
	<g>
		<polygon class="st4" points="18.53,289.07 34.62,289.07 26.58,278.43 		"/>
	</g>
	<g>
		<polygon class="st4" points="18.53,310.23 34.62,310.23 26.58,299.59 		"/>
	</g>
	<g>
		<polygon class="st4" points="18.53,331.39 34.62,331.39 26.58,320.75 		"/>
	</g>
	<g>
		<polygon class="st4" points="18.53,267.91 34.62,267.91 26.58,257.27 		"/>
	</g>
	<g>
		<polygon class="st4" points="18.53,172.06 34.62,172.06 26.58,161.42 		"/>
	</g>
	<g>
		<polygon class="st4" points="18.53,193.22 34.62,193.22 26.58,182.58 		"/>
	</g>
	<g>
		<polygon class="st4" points="18.53,214.38 34.62,214.38 26.58,203.74 		"/>
	</g>
	<g>
		<polygon class="st4" points="18.53,150.9 34.62,150.9 26.58,140.26 		"/>
	</g>
</g>
</svg>
