<?xml version="1.0" encoding="utf-8"?>
<!-- Generator: Adobe Illustrator 26.2.1, SVG Export Plug-In . SVG Version: 6.00 Build 0)  -->
<svg version="1.1" id="Ebene_1" xmlns="http://www.w3.org/2000/svg" xmlns:xlink="http://www.w3.org/1999/xlink" x="0px" y="0px"
	 viewBox="0 0 1000 935.58" style="enable-background:new 0 0 1000 935.58;" xml:space="preserve">
<style type="text/css">
	.st0{fill:#A2B9E1;}
	.st1{fill:#6796CF;}
	.st2{clip-path:url(#SVGID_00000182499533737430979810000017156606233511665826_);}
	.st3{fill:#2B2961;}
	.st4{fill:#FFFFFF;}
	.st5{clip-path:url(#SVGID_00000095329521982162873350000004840655926773094576_);}
	.st6{clip-path:url(#SVGID_00000061438752265730798900000017645720659932319145_);}
	.st7{clip-path:url(#SVGID_00000128449212158420231090000003001024661080195516_);}
	.st8{clip-path:url(#SVGID_00000148621358486920826710000017386599279658693049_);}
	.st9{clip-path:url(#SVGID_00000041256570132121407560000002400437651784715665_);}
	.st10{opacity:0.52;clip-path:url(#SVGID_00000028311597489929668830000007059545138104703668_);}
	.st11{clip-path:url(#SVGID_00000125573215050197892270000007749981519662799280_);}
	.st12{clip-path:url(#SVGID_00000136385942855168709830000005517410990873081741_);}
	.st13{clip-path:url(#SVGID_00000088096586657585318090000007950681248028188801_);}
	.st14{clip-path:url(#SVGID_00000060725240786122497190000005830282877015800998_);}
	.st15{clip-path:url(#SVGID_00000141416024432568159110000011116177124331975328_);}
	.st16{clip-path:url(#SVGID_00000080926203023805780240000007282108734953819546_);}
	.st17{clip-path:url(#SVGID_00000097490561915946042850000015836262493283049363_);}
	.st18{clip-path:url(#SVGID_00000039825469258036729940000001788651854901465779_);}
	.st19{clip-path:url(#SVGID_00000152260952132944424730000014256801795025450376_);}
	.st20{clip-path:url(#SVGID_00000034078735871672832830000003929232396998839190_);}
	.st21{clip-path:url(#SVGID_00000165197714634025078830000013447154406054840454_);}
	.st22{clip-path:url(#SVGID_00000146458671339026408010000005704486785488707003_);}
	.st23{fill:none;stroke:#2B2961;stroke-width:0.374;stroke-linejoin:round;stroke-miterlimit:10;}
	.st24{fill:none;stroke:#2B2961;stroke-width:0.4;stroke-miterlimit:10;}
	.st25{clip-path:url(#SVGID_00000071552543818655475880000005250684660318066090_);}
	.st26{clip-path:url(#SVGID_00000054973903374197262020000007196956118223708817_);}
	.st27{clip-path:url(#SVGID_00000142857271300853475090000009929629073356336827_);}
	.st28{clip-path:url(#SVGID_00000056422316223027320770000013919557552179108284_);}
	.st29{clip-path:url(#SVGID_00000152247948497658407410000004769671450230564253_);}
	.st30{clip-path:url(#SVGID_00000026853387961883323650000003874917075513339551_);}
	.st31{clip-path:url(#SVGID_00000179608261929842875990000011139216861495549344_);}
	.st32{clip-path:url(#SVGID_00000168829080385350387290000007632153617485107869_);}
	.st33{clip-path:url(#SVGID_00000025435987673385415900000012881464827868178835_);}
	.st34{clip-path:url(#SVGID_00000026884207270957489440000007692804430081278118_);}
	.st35{clip-path:url(#SVGID_00000124139038548920349970000013734579930304180407_);}
	.st36{clip-path:url(#SVGID_00000148656789846730253120000010878950460941211777_);}
	.st37{clip-path:url(#SVGID_00000085945681476726908850000003619634136564829373_);}
	.st38{clip-path:url(#SVGID_00000002382417525444512280000007621915331721603746_);}
	.st39{clip-path:url(#SVGID_00000183243654514584069890000001024975266963671210_);}
	.st40{clip-path:url(#SVGID_00000079446594379652019370000006498777053166543770_);}
	.st41{clip-path:url(#SVGID_00000115508082885081122420000004415988566572946594_);}
	.st42{clip-path:url(#SVGID_00000011027952305847093750000016112888962713219224_);}
	.st43{clip-path:url(#SVGID_00000176734176258140367170000006321289375464329350_);}
	.st44{clip-path:url(#SVGID_00000106868975308640335260000014373187421851692945_);}
	.st45{clip-path:url(#SVGID_00000090280484921200391650000001631288752944617893_);}
	.st46{clip-path:url(#SVGID_00000096774171442922025510000012447837601478426043_);}
	.st47{clip-path:url(#SVGID_00000114038946296479900800000011974776160234403770_);}
	.st48{clip-path:url(#SVGID_00000086665169210147475760000007619138401776073860_);}
	.st49{clip-path:url(#SVGID_00000104701234821947950390000008965908958832766387_);}
	.st50{clip-path:url(#SVGID_00000001662997087677810200000002080974362492590249_);}
	.st51{clip-path:url(#SVGID_00000150797150097063068320000014647904695931989143_);}
	.st52{clip-path:url(#SVGID_00000093175009397787458090000017247294611417692329_);}
	.st53{clip-path:url(#SVGID_00000011010141343830265870000013322255080328783767_);}
	.st54{clip-path:url(#SVGID_00000030466315128353562400000009259510055890020503_);}
	.st55{clip-path:url(#SVGID_00000122686023537228597640000003620429685168444294_);}
	.st56{clip-path:url(#SVGID_00000098911549994056919160000015435535103119315095_);}
	.st57{clip-path:url(#SVGID_00000105401003573388734400000011502727318294981269_);}
	.st58{clip-path:url(#SVGID_00000029734114953157788590000014939881506616177582_);}
	.st59{clip-path:url(#SVGID_00000159435295663808214050000004639213124118501523_);}
	.st60{clip-path:url(#SVGID_00000111150895830882425290000010987285677115883692_);}
	.st61{clip-path:url(#SVGID_00000015319244417301193860000005502230912292656308_);}
	.st62{fill:#9AB4DE;}
	.st63{clip-path:url(#SVGID_00000181079392645931774920000005653542508960613534_);}
	.st64{clip-path:url(#SVGID_00000142879213085318869660000001018052837697195168_);}
	.st65{clip-path:url(#SVGID_00000094618929674180396550000005471954403262511235_);}
	.st66{fill:#B9C9E9;}
	.st67{clip-path:url(#SVGID_00000138551179954876886580000001524595705093853859_);}
	.st68{clip-path:url(#SVGID_00000000924074408925376720000009962263603726022556_);}
	.st69{clip-path:url(#SVGID_00000041977164819341714000000013843757009050179237_);}
	.st70{clip-path:url(#SVGID_00000093148241155918058430000009979017348991564981_);}
	.st71{clip-path:url(#SVGID_00000181804082009821977980000014033988727132071581_);}
	.st72{clip-path:url(#SVGID_00000138561069590228180540000016199707021270639791_);}
	.st73{clip-path:url(#SVGID_00000037673856156086998370000016112426772731637156_);}
	.st74{clip-path:url(#SVGID_00000092440591333134968480000000485127319342167203_);}
	.st75{clip-path:url(#SVGID_00000024689133378287195650000001711209245088104624_);}
	.st76{clip-path:url(#SVGID_00000078734666884815198620000004050648624606330524_);}
	.st77{clip-path:url(#SVGID_00000011029965379644225730000010232272022469054133_);}
	.st78{clip-path:url(#SVGID_00000061463626388028017510000001119447042446173084_);}
	.st79{clip-path:url(#SVGID_00000017514348662241117930000008370623784161847450_);}
	.st80{clip-path:url(#SVGID_00000025442234188028132400000002593631272036937368_);}
	.st81{clip-path:url(#SVGID_00000103232214057651678140000007873808400566131362_);}
	.st82{clip-path:url(#SVGID_00000017505001067573850530000004015268175501401006_);}
	.st83{clip-path:url(#SVGID_00000020377846431215066060000002767096475406841224_);}
	.st84{clip-path:url(#SVGID_00000109722492642484771410000007682357244677941936_);}
	.st85{clip-path:url(#SVGID_00000060025400031318494530000013542422060560212413_);}
	.st86{clip-path:url(#SVGID_00000157287555934450863860000007994662882338272916_);}
	.st87{clip-path:url(#SVGID_00000088113724768714983290000016480565458752368774_);}
	.st88{clip-path:url(#SVGID_00000026870214873098101100000007145119770300967584_);}
	.st89{clip-path:url(#SVGID_00000176007111220295551690000017478753603661186689_);}
	.st90{clip-path:url(#SVGID_00000017479209045479519220000001107940656424376974_);}
	.st91{clip-path:url(#SVGID_00000050621208234593198670000008241567821660993204_);}
	.st92{clip-path:url(#SVGID_00000129188305200413547030000000077369834096586634_);}
	.st93{clip-path:url(#SVGID_00000149342773729546754580000012299710517798567046_);}
	.st94{clip-path:url(#SVGID_00000028326156445776486530000001303766110854087091_);}
	.st95{clip-path:url(#SVGID_00000025430246891929293780000012611266296413175683_);}
	.st96{clip-path:url(#SVGID_00000024683801740859797140000003890157563276674183_);}
	.st97{clip-path:url(#SVGID_00000029765145489337604410000015534281087659183017_);}
	.st98{clip-path:url(#SVGID_00000040569517305087577560000017066272996742985373_);}
	.st99{clip-path:url(#SVGID_00000113321530957683656460000015757167032511397792_);}
	.st100{clip-path:url(#SVGID_00000171701545448944136910000008834727302480583808_);}
	.st101{clip-path:url(#SVGID_00000145762268971644197520000017510640168402500231_);}
	.st102{clip-path:url(#SVGID_00000183966809301046841940000010282151040888061824_);}
	.st103{clip-path:url(#SVGID_00000146480781951323788370000001313924407817762751_);}
	.st104{clip-path:url(#SVGID_00000130632220538200221500000004481633287211140488_);}
	.st105{clip-path:url(#SVGID_00000180357343010321857200000007800530837337319352_);}
	.st106{clip-path:url(#SVGID_00000122702404977180281620000012424593216291240346_);}
	.st107{clip-path:url(#SVGID_00000177455980275949757910000002605641311434644402_);}
	.st108{clip-path:url(#SVGID_00000023280673183853162500000017463544820021334163_);}
	.st109{clip-path:url(#SVGID_00000130625457848160734100000017244145202139813001_);}
	.st110{clip-path:url(#SVGID_00000126325341404722948380000015607324538087538067_);}
	.st111{clip-path:url(#SVGID_00000081627051901358058150000001473999138626951339_);}
	.st112{clip-path:url(#SVGID_00000173843801607707287380000015764571236469303483_);}
	.st113{clip-path:url(#SVGID_00000048503155760299966160000007480134191460555906_);}
	.st114{clip-path:url(#SVGID_00000081606529995093356810000007566332106782517425_);}
	.st115{clip-path:url(#SVGID_00000020392685854479608360000010564035087818929031_);}
	.st116{clip-path:url(#SVGID_00000033347426903626871940000003356546727224126653_);}
	.st117{clip-path:url(#SVGID_00000045618958796072558510000001916146942906127550_);}
	.st118{clip-path:url(#SVGID_00000044857637416551728060000012515733483938729624_);}
	.st119{clip-path:url(#SVGID_00000046322271336126600760000014725504218182769031_);}
	.st120{clip-path:url(#SVGID_00000103262489763097883990000007350883661740468154_);}
	.st121{clip-path:url(#SVGID_00000109022603916048591170000008611410786874539695_);}
	.st122{clip-path:url(#SVGID_00000097491672333619273200000012186425129877047189_);}
	.st123{clip-path:url(#SVGID_00000084490638746438879040000006245015892337738683_);}
	.st124{clip-path:url(#SVGID_00000064328675517376741650000015930806320843464344_);}
	.st125{clip-path:url(#SVGID_00000154387116083686559010000005998424267413391531_);}
	.st126{clip-path:url(#SVGID_00000019667186668548745630000014572827145674897844_);}
	.st127{clip-path:url(#SVGID_00000151526377019577860410000013604460428400420271_);}
	.st128{clip-path:url(#SVGID_00000093174605115737841510000006348318091272404352_);}
	.st129{clip-path:url(#SVGID_00000179612603353384749620000009431619023425193401_);}
	.st130{clip-path:url(#SVGID_00000174587741975759908820000006793359883717604483_);}
	.st131{clip-path:url(#SVGID_00000099646852976589226630000014698585135071357334_);}
	.st132{clip-path:url(#SVGID_00000125601653461627761440000013705909156024031891_);}
	.st133{clip-path:url(#SVGID_00000047021123042911958820000017578079218715715775_);}
	.st134{clip-path:url(#SVGID_00000011009136757271065750000010254954560872118947_);}
	.st135{clip-path:url(#SVGID_00000065766546054518223200000013012936902291546771_);}
	.st136{clip-path:url(#SVGID_00000096740196432977100440000002114872220628483994_);}
	.st137{clip-path:url(#SVGID_00000124134557542787168130000012713625285936290969_);}
	.st138{clip-path:url(#SVGID_00000083767621955953015030000006039706113069151641_);}
	.st139{clip-path:url(#SVGID_00000151526307272907527640000014472155967762196896_);}
	.st140{clip-path:url(#SVGID_00000030450747280913770290000005781260972169292180_);}
	.st141{clip-path:url(#SVGID_00000039838949162567541430000017420540600657724301_);}
	.st142{clip-path:url(#SVGID_00000164514834842444220220000000877463000552162711_);}
	.st143{clip-path:url(#SVGID_00000177452329559842917340000016744030114797800877_);}
	.st144{clip-path:url(#SVGID_00000083058140644693359520000005463268920299240889_);}
	.st145{clip-path:url(#SVGID_00000093899980215117340370000008118235663006382470_);}
	.st146{clip-path:url(#SVGID_00000100356586003168641660000009112125594822517396_);}
	.st147{clip-path:url(#SVGID_00000173840686941998229990000000131936424723573174_);}
	.st148{clip-path:url(#SVGID_00000101814629914649646310000005822736078341467828_);}
	.st149{clip-path:url(#SVGID_00000086690698743154172070000005242898164897534599_);}
	.st150{clip-path:url(#SVGID_00000096026060753787973620000008733141712819503001_);}
	.st151{clip-path:url(#SVGID_00000027569271585344338500000017791752979476124551_);}
	.st152{clip-path:url(#SVGID_00000178178348728044156900000012117854249330876318_);}
	.st153{clip-path:url(#SVGID_00000137092854343876667400000017142955637721982132_);}
	.st154{clip-path:url(#SVGID_00000160875957597748308300000011746011310767888260_);}
	.st155{clip-path:url(#SVGID_00000115500871783980912890000017616282718944529340_);}
	.st156{clip-path:url(#SVGID_00000174583440795871507100000008129242728803814284_);}
	.st157{clip-path:url(#SVGID_00000118391352298942615770000017409386027462629306_);}
	.st158{clip-path:url(#SVGID_00000084521814489005297190000011422203561152625572_);}
	.st159{clip-path:url(#SVGID_00000028313342820829588640000000495601056661588609_);}
	.st160{clip-path:url(#SVGID_00000054268352343284146170000014718654797938909834_);}
	.st161{clip-path:url(#SVGID_00000047044315140627256970000004860271378890667435_);}
	.st162{clip-path:url(#SVGID_00000000940758277945054650000007777002634186891681_);}
	.st163{clip-path:url(#SVGID_00000045586303298996734580000011754642629229645241_);}
	.st164{clip-path:url(#SVGID_00000036932674189211244630000009456718884954792066_);}
	.st165{clip-path:url(#SVGID_00000055685166874710349740000003800953709095907467_);}
	.st166{clip-path:url(#SVGID_00000114059960767039914750000002243560871409715075_);}
	.st167{clip-path:url(#SVGID_00000173858727620418892240000003820936172345119139_);}
	.st168{clip-path:url(#SVGID_00000018957512556881860860000010506513169977395864_);}
	.st169{clip-path:url(#SVGID_00000126322049293090812460000004293368711298249868_);}
	.st170{clip-path:url(#SVGID_00000103241045784550723640000013883292555891790472_);}
	.st171{clip-path:url(#SVGID_00000009584205104437983970000000407185000300653496_);}
	.st172{clip-path:url(#SVGID_00000158721727370783696010000015434584130703612335_);}
	.st173{clip-path:url(#SVGID_00000173856924325320050410000002981424660266334099_);}
	.st174{clip-path:url(#SVGID_00000166658566811766616770000016378326247519388848_);}
	.st175{clip-path:url(#SVGID_00000181795751118217292940000014940894363031501441_);}
	.st176{clip-path:url(#SVGID_00000072984609701030705480000014337490208900698288_);}
	.st177{clip-path:url(#SVGID_00000124130385260472407550000016537082507954178714_);}
	.st178{clip-path:url(#SVGID_00000077290214882746262930000016128852058945503923_);}
	.st179{clip-path:url(#SVGID_00000063635826292081479120000007296127818768608657_);}
	.st180{clip-path:url(#SVGID_00000158707015911551120660000013923314850418892190_);}
	.st181{clip-path:url(#SVGID_00000172414010842919475770000006408662665603463857_);}
	.st182{clip-path:url(#SVGID_00000096771994598209130010000006398812169327742121_);}
	.st183{clip-path:url(#SVGID_00000175312356166028017050000000272605585820934335_);}
	.st184{clip-path:url(#SVGID_00000033364152114817527720000008650119715309587335_);}
	.st185{clip-path:url(#SVGID_00000011726551870597580090000004855478575579402127_);}
	.st186{clip-path:url(#SVGID_00000092443445243885137630000004573543549033575101_);}
	.st187{clip-path:url(#SVGID_00000026127350384210417540000017399752700700969089_);}
	.st188{clip-path:url(#SVGID_00000008832324795001744940000009244790859248886711_);}
	.st189{clip-path:url(#SVGID_00000025412563354401191450000003262822808948679093_);}
	.st190{clip-path:url(#SVGID_00000060739416781632365360000009223728892371232128_);}
	.st191{clip-path:url(#SVGID_00000141417749668154602050000011848026786628993452_);}
	.st192{clip-path:url(#SVGID_00000129913475812132091140000000689940519590309505_);}
	.st193{clip-path:url(#SVGID_00000061456071607706718120000010877060593136150450_);}
	.st194{clip-path:url(#SVGID_00000070815730912687260190000017249834251707649439_);}
	.st195{clip-path:url(#SVGID_00000105391627266020880220000004509337908392150182_);}
	.st196{clip-path:url(#SVGID_00000094597550532395688500000009034446026088250521_);}
	.st197{clip-path:url(#SVGID_00000126304840907161139500000018405457500260287886_);}
	.st198{clip-path:url(#SVGID_00000026142858889168062800000015662648781155830919_);}
	.st199{clip-path:url(#SVGID_00000051378625324126079060000013934399755175121841_);}
	.st200{clip-path:url(#SVGID_00000114054873358749712830000002223268603477409680_);}
	.st201{clip-path:url(#SVGID_00000007389779858596063050000008592837605188491945_);}
	.st202{clip-path:url(#SVGID_00000038372383242825520190000003498059191774155198_);}
	.st203{clip-path:url(#SVGID_00000079483718415086499590000013972219506974953390_);}
	.st204{clip-path:url(#SVGID_00000167376142250528418310000000956756006176204181_);}
	.st205{clip-path:url(#SVGID_00000163060504376942621500000008613550766642724262_);}
	.st206{clip-path:url(#SVGID_00000043424231086196025000000011101241500559647164_);}
	.st207{clip-path:url(#SVGID_00000063617213008225945700000009161831901266568587_);}
	.st208{clip-path:url(#SVGID_00000088818386688310582060000011241607519011319218_);}
	.st209{clip-path:url(#SVGID_00000096052848876429243600000016470377753252684198_);}
	.st210{clip-path:url(#SVGID_00000181802938485558429440000017029217826424829601_);}
	.st211{clip-path:url(#SVGID_00000048474459379246838000000015408258053947166617_);}
	.st212{clip-path:url(#SVGID_00000036249824070931606150000006019715922855542969_);}
	.st213{clip-path:url(#SVGID_00000147184911645093420260000007246595647817205176_);}
	.st214{clip-path:url(#SVGID_00000055707533815373673940000017224117556770921389_);}
	.st215{clip-path:url(#SVGID_00000098914376036760465560000012427489240882566313_);}
	.st216{clip-path:url(#SVGID_00000114075729191099985830000005581305761976021141_);}
	.st217{clip-path:url(#SVGID_00000043434156609202315000000014548602773175243419_);}
	.st218{clip-path:url(#SVGID_00000147937144156530183630000004410275969829178240_);}
	.st219{clip-path:url(#SVGID_00000129901523572834740540000011874188131664208564_);}
	.st220{clip-path:url(#SVGID_00000100341510517699851460000015397670083536262787_);}
	.st221{clip-path:url(#SVGID_00000114789241128995609070000017433281322972085406_);}
	.st222{clip-path:url(#SVGID_00000130647781977376119270000008134055346012997541_);}
	.st223{clip-path:url(#SVGID_00000020369883672950193280000003523514582708405889_);}
	.st224{clip-path:url(#SVGID_00000057113889997328047260000007169533806430748816_);}
	.st225{clip-path:url(#SVGID_00000107556896558089948000000011468037493851613878_);}
	.st226{clip-path:url(#SVGID_00000114796388976596720790000013444702258357036209_);}
	.st227{clip-path:url(#SVGID_00000132063341913794231250000006210573454509340297_);}
	.st228{clip-path:url(#SVGID_00000145777856132730273520000011054051878768333964_);}
	.st229{clip-path:url(#SVGID_00000126317524763848265180000004178399839283879346_);}
	.st230{clip-path:url(#SVGID_00000154408592661767893550000013953145518008734092_);}
	.st231{clip-path:url(#SVGID_00000088832759255768886670000007525323649753646253_);}
	.st232{clip-path:url(#SVGID_00000065033199590502925480000007647668580416422278_);}
	.st233{clip-path:url(#SVGID_00000100384635123812994290000008212663632789285521_);}
	.st234{clip-path:url(#SVGID_00000059276469396107719770000009066138964636588950_);}
	.st235{clip-path:url(#SVGID_00000092419421017469709460000011694759795527467420_);}
	.st236{clip-path:url(#SVGID_00000154413957591000317050000007931106771057531804_);}
	.st237{clip-path:url(#SVGID_00000138552279202533155230000009654259233808318621_);}
	.st238{clip-path:url(#SVGID_00000174581655641057524310000006133699625762898051_);}
	.st239{clip-path:url(#SVGID_00000046329527680221139240000007254109446767101359_);}
	.st240{clip-path:url(#SVGID_00000066504909847507509920000015336125176504568238_);}
	.st241{clip-path:url(#SVGID_00000004524385829491514230000002613924458449466503_);}
	.st242{clip-path:url(#SVGID_00000126311049107778197910000002819382461752694447_);}
	.st243{clip-path:url(#SVGID_00000024680747930108980460000012476445544013292210_);}
	.st244{clip-path:url(#SVGID_00000065780125960635276900000011631881246667770796_);}
	.st245{clip-path:url(#SVGID_00000054263455109538894820000000104033407173533588_);}
	.st246{clip-path:url(#SVGID_00000158750302398718605650000012183232074396428219_);}
	.st247{clip-path:url(#SVGID_00000166638717636314016660000014288207048537068176_);}
	.st248{clip-path:url(#SVGID_00000039132115622104122030000013429575727744330157_);}
	.st249{clip-path:url(#SVGID_00000078030592408232740060000008408911670508907909_);}
	.st250{clip-path:url(#SVGID_00000031169490447027111760000008613625164313457293_);}
	.st251{clip-path:url(#SVGID_00000088135271274124947600000018136674439689881481_);}
	.st252{clip-path:url(#SVGID_00000032606684719716179610000003687724364405583744_);}
	.st253{clip-path:url(#SVGID_00000086677011765489144500000007617927674615451825_);}
	.st254{clip-path:url(#SVGID_00000140701195833339588790000015527782667424619142_);}
	.st255{clip-path:url(#SVGID_00000041996994198155354730000011931180619184304816_);}
	.st256{clip-path:url(#SVGID_00000036958386188615212950000010246861513752020909_);}
	.st257{clip-path:url(#SVGID_00000118381252972335369290000012902314460041922989_);}
	.st258{clip-path:url(#SVGID_00000016057939327316042330000002521760088171616903_);}
	.st259{clip-path:url(#SVGID_00000115504551292918654260000011558383379181288629_);}
	.st260{clip-path:url(#SVGID_00000072254409000562706270000017885036501735703442_);}
	.st261{clip-path:url(#SVGID_00000081628524929200417460000018259698743543001255_);}
	.st262{clip-path:url(#SVGID_00000159438614501031109180000004627926200367071881_);}
	.st263{clip-path:url(#SVGID_00000113345257508270655110000012154329963291379872_);}
	.st264{clip-path:url(#SVGID_00000078021697881301112110000010186256022803797935_);}
	.st265{clip-path:url(#SVGID_00000159441448656111249670000006526320887941702311_);}
	.st266{clip-path:url(#SVGID_00000015349752756701640960000000242096431304910210_);}
	.st267{clip-path:url(#SVGID_00000110469254971783178390000000759280935807115706_);}
	.st268{clip-path:url(#SVGID_00000048460714225689235330000000533807302091185555_);}
	.st269{clip-path:url(#SVGID_00000060724373250938688370000014344764633988801421_);}
	.st270{clip-path:url(#SVGID_00000114767945521765916380000000310085880693418126_);}
	.st271{clip-path:url(#SVGID_00000067948335284986602120000007672037757193949352_);}
	.st272{clip-path:url(#SVGID_00000090973537374620577480000015303870058532758195_);}
	.st273{clip-path:url(#SVGID_00000049200587185775558320000004454601959938893460_);}
	.st274{clip-path:url(#SVGID_00000094611597576236303970000017843034601452826537_);}
	.st275{clip-path:url(#SVGID_00000092438605122377859410000006822806443652540079_);}
	.st276{clip-path:url(#SVGID_00000026879739551999238450000017074940452801564575_);}
	.st277{clip-path:url(#SVGID_00000098196338419976047840000014478959627783406522_);}
	.st278{clip-path:url(#SVGID_00000065062239507393444560000013869253172823068072_);}
	.st279{clip-path:url(#SVGID_00000085246580375850244030000010758148922792594855_);}
	.st280{clip-path:url(#SVGID_00000172408845468724815150000005266204373981819569_);}
	.st281{clip-path:url(#SVGID_00000141424482526635216420000003480596327234514613_);}
	.st282{clip-path:url(#SVGID_00000150791605177931688750000001343819615561648054_);}
	.st283{clip-path:url(#SVGID_00000157305790339000503740000009703754674978402207_);}
	.st284{clip-path:url(#SVGID_00000052801298140402111560000009676459759703855509_);}
	.st285{clip-path:url(#SVGID_00000073722650606449868550000011546026575286978231_);}
	.st286{clip-path:url(#SVGID_00000019674255458715730280000015920967955453841325_);}
	.st287{clip-path:url(#SVGID_00000063604619539192650730000002829182858382721408_);}
	.st288{clip-path:url(#SVGID_00000033349987557186457960000002088389898515891598_);}
	.st289{clip-path:url(#SVGID_00000116225194592752141130000007972349341939321247_);}
	.st290{clip-path:url(#SVGID_00000042734957714308015850000006002960180291498918_);}
	.st291{clip-path:url(#SVGID_00000053527310176433589580000009430573273002901950_);}
	.st292{clip-path:url(#SVGID_00000076588893950290922090000007063365495668589230_);}
	.st293{clip-path:url(#SVGID_00000114773148872067680930000004596012828805936544_);}
	.st294{clip-path:url(#SVGID_00000070824355802175577340000014928613008542758288_);}
	.st295{clip-path:url(#SVGID_00000159461351378762484240000005471899720499595688_);}
	.st296{clip-path:url(#SVGID_00000018928148021737621620000017251617629311096989_);}
	.st297{clip-path:url(#SVGID_00000039820716828870274060000013784313950214293690_);}
	.st298{clip-path:url(#SVGID_00000101817780726359376690000004444340750860237758_);}
	.st299{clip-path:url(#SVGID_00000111912653077670811560000009110048404923551920_);}
	.st300{clip-path:url(#SVGID_00000131334762925819812190000006157485741670080689_);}
	.st301{clip-path:url(#SVGID_00000127045521557661824000000005598860671704956324_);}
	.st302{clip-path:url(#SVGID_00000151516316680691504760000005054585422928001163_);}
	.st303{clip-path:url(#SVGID_00000156573795744109235450000013383919645219134374_);}
	.st304{clip-path:url(#SVGID_00000049926784127836269470000014523116157827761549_);}
	.st305{clip-path:url(#SVGID_00000088094599928471552140000009238705426408503994_);}
	.st306{clip-path:url(#SVGID_00000022556825308917130150000009320181401782905499_);}
	.st307{clip-path:url(#SVGID_00000140005985300994474530000015817223185448531855_);}
	.st308{clip-path:url(#SVGID_00000037679316738839315790000014647565019911211664_);}
	.st309{clip-path:url(#SVGID_00000114059301346438003830000005171330088974402740_);}
	.st310{clip-path:url(#SVGID_00000127749685218692134210000007030844526494013318_);}
	.st311{clip-path:url(#SVGID_00000156567854777032664910000003091862837034730408_);}
	.st312{clip-path:url(#SVGID_00000096036786306936515750000018182615799409429656_);}
	.st313{clip-path:url(#SVGID_00000014623913832889033650000012400244954600755861_);}
	.st314{clip-path:url(#SVGID_00000033370326709655002270000009947476027060252570_);}
	.st315{clip-path:url(#SVGID_00000093150385659174971180000000816359769004232598_);}
	.st316{clip-path:url(#SVGID_00000127750651804669688790000016016252846322588327_);}
	.st317{clip-path:url(#SVGID_00000121251641804357733720000011924465412934056353_);}
	.st318{clip-path:url(#SVGID_00000151504672848906704570000007989138457700301477_);}
	.st319{clip-path:url(#SVGID_00000000197235138319347250000015185601135922374549_);}
	.st320{clip-path:url(#SVGID_00000013188950450914889230000016903469826742041499_);}
	.st321{clip-path:url(#SVGID_00000051365176090595409730000013266641913005055919_);}
	.st322{clip-path:url(#SVGID_00000127724004842597559990000000096985052041859467_);}
	.st323{clip-path:url(#SVGID_00000042696396263021258130000013227121557561039531_);}
	.st324{clip-path:url(#SVGID_00000030463407113337006470000014548594527990818445_);}
	.st325{clip-path:url(#SVGID_00000165916532885106027790000007564557603336549531_);}
	.st326{clip-path:url(#SVGID_00000012433890833315059050000017088028753356040576_);}
	.st327{clip-path:url(#SVGID_00000127040786024477863960000012739950605270324664_);}
	.st328{clip-path:url(#SVGID_00000123400883257534842230000012578036967563354525_);}
	.st329{clip-path:url(#SVGID_00000079452617432381507760000012070435204377684361_);}
	.st330{clip-path:url(#SVGID_00000037652427775655081730000000965741904620634777_);}
	.st331{clip-path:url(#SVGID_00000022525430589821900640000005712455337050076855_);}
	.st332{clip-path:url(#SVGID_00000124148296661694935680000000029136021772786568_);}
	.st333{clip-path:url(#SVGID_00000021114925677140593240000012394070428156518057_);}
	.st334{clip-path:url(#SVGID_00000137125339247731878110000015893083900057431193_);}
	.st335{clip-path:url(#SVGID_00000031904718791999702740000009884232211885314697_);}
	.st336{clip-path:url(#SVGID_00000047020032079845702200000017156385705092726942_);}
	.st337{clip-path:url(#SVGID_00000070827209617887886330000002308379286923680683_);}
	.st338{clip-path:url(#SVGID_00000112599591581508591450000011272118505731190406_);}
	.st339{clip-path:url(#SVGID_00000027571507499262823170000012039380798444818870_);}
	.st340{clip-path:url(#SVGID_00000056410992191567831850000000758807851223370676_);}
	.st341{clip-path:url(#SVGID_00000137109527094870155590000007375058625574323087_);}
	.st342{clip-path:url(#SVGID_00000081640590251935479000000001550552707101546906_);}
	.st343{clip-path:url(#SVGID_00000161589558233192344940000016876675402229591729_);}
	.st344{clip-path:url(#SVGID_00000111911578615690317560000001048604061045941933_);}
	.st345{clip-path:url(#SVGID_00000137835980150959570610000008306820198801232302_);}
	.st346{clip-path:url(#SVGID_00000048465192705787683720000009800542051998604947_);}
	.st347{clip-path:url(#SVGID_00000176746931770755406350000013533310555030231178_);}
	.st348{clip-path:url(#SVGID_00000154412488503595856320000002631582215484433818_);}
	.st349{clip-path:url(#SVGID_00000129895556092815627160000018201678527887091622_);}
	.st350{clip-path:url(#SVGID_00000142135982057904641720000010082367373224295835_);}
	.st351{clip-path:url(#SVGID_00000102546421391245146380000016813645343985418931_);}
	.st352{clip-path:url(#SVGID_00000152962521773007031520000003788045703967137941_);}
	.st353{clip-path:url(#SVGID_00000134240708161647128530000001286648075749322632_);}
	.st354{clip-path:url(#SVGID_00000172413437916341091240000016670211741793771435_);}
	.st355{clip-path:url(#SVGID_00000137833503392302914160000007932788063302751669_);}
	.st356{clip-path:url(#SVGID_00000177450445313189866080000000339990300749536170_);}
	.st357{clip-path:url(#SVGID_00000091700331106413131900000002444027190286375040_);}
	.st358{clip-path:url(#SVGID_00000011024985047006031630000010338520716389594547_);}
	.st359{clip-path:url(#SVGID_00000155826870085774836530000000140497075126735545_);}
	.st360{clip-path:url(#SVGID_00000137119295430639055990000007293827909276301736_);}
	.st361{clip-path:url(#SVGID_00000126281540702505010350000004566760550271082424_);}
	.st362{clip-path:url(#SVGID_00000161602930995778512520000001180781790959631280_);}
	.st363{clip-path:url(#SVGID_00000011711825345489510750000009171507316380742335_);}
	.st364{clip-path:url(#SVGID_00000159461880677721818640000001648218578120258207_);}
	.st365{clip-path:url(#SVGID_00000173845393538464898980000005159385626062698162_);}
	.st366{clip-path:url(#SVGID_00000134208784642623437700000006226063672494334628_);}
	.st367{clip-path:url(#SVGID_00000111874285911587258590000011721732060377943681_);}
	.st368{clip-path:url(#SVGID_00000138539998872347701490000001644402228162888371_);}
	.st369{clip-path:url(#SVGID_00000088826914100969018110000003158140889437582527_);}
	.st370{clip-path:url(#SVGID_00000030459504193023334950000015316706503430029458_);}
	.st371{clip-path:url(#SVGID_00000073693012305539189400000010901409220379714733_);}
	.st372{clip-path:url(#SVGID_00000106119487037268179870000004841839586131920054_);}
	.st373{clip-path:url(#SVGID_00000117643298030362451750000006737471413123617692_);}
	.st374{clip-path:url(#SVGID_00000088821482351824801450000002297836005300797365_);}
	.st375{clip-path:url(#SVGID_00000078765390443152919420000004596202466401506179_);}
</style>
<g>
	<g>
		<rect x="2.85" y="135.31" class="st0" width="48.54" height="795.77"/>
	</g>
	<g>
		<rect x="1.26" y="2.16" class="st1" width="997.9" height="134.44"/>
	</g>
	<g>
		<defs>
			<rect id="SVGID_00000000182602837003547090000008134707196752339082_" width="1000" height="935.58"/>
		</defs>
		<clipPath id="SVGID_00000027599968390964513020000011264605667326145948_">
			<use xlink:href="#SVGID_00000000182602837003547090000008134707196752339082_"  style="overflow:visible;"/>
		</clipPath>
		<g style="clip-path:url(#SVGID_00000027599968390964513020000011264605667326145948_);">
			<path class="st3" d="M997.19,935.57H1.69c-0.93,0-1.68-0.75-1.68-1.68V1.69C0,0.75,0.76,0,1.69,0h995.5
				c0.93,0,1.68,0.75,1.68,1.68v932.2C998.88,934.82,998.12,935.57,997.19,935.57z M3.37,932.21h992.14V3.37H3.37V932.21z"/>
		</g>
		<g style="clip-path:url(#SVGID_00000027599968390964513020000011264605667326145948_);">
			<rect x="2.06" y="133.63" class="st3" width="997.94" height="3.37"/>
		</g>
		<g style="clip-path:url(#SVGID_00000027599968390964513020000011264605667326145948_);">
			<path class="st4" d="M825.85,68.02h-14.46c0.07-1.69,0.29-2.71,0.88-4.1c1.02-2.27,3.14-3.95,6.36-3.95
				c3.21,0,5.33,1.68,6.36,3.95C825.55,65.31,825.77,66.33,825.85,68.02 M835.2,74.51v-4.23c0-10.45-5.99-18.18-16.58-18.18
				c-9.86,0-16.58,7-16.58,19.43c0,15.41,8.61,19.5,17.6,19.5c6.87,0,10.59-2.12,14.46-5.98l-5.77-5.62
				c-2.41,2.41-4.46,3.58-8.62,3.58c-5.33,0-8.33-3.58-8.33-8.48H835.2z M796.33,60.85v-7.22h-7.01v-4.17c0-2.2,1.02-3.44,3.29-3.44
				h3.73v-8.02h-5.41c-7.74,0-11.1,5.47-11.1,10.88v4.75h-3.94v7.22h3.94v29.73h9.49V60.85H796.33z M766.68,38.29h-9.7v7.73h9.7
				V38.29z M766.6,52.53h-9.49v38.05h9.49V52.53z M737.53,68.02h-14.46c0.07-1.69,0.29-2.71,0.88-4.1c1.02-2.27,3.14-3.95,6.36-3.95
				c3.21,0,5.33,1.68,6.36,3.95C737.24,65.31,737.46,66.33,737.53,68.02 M746.88,74.51v-4.23c0-10.45-5.99-18.18-16.58-18.18
				c-9.86,0-16.58,7-16.58,19.43c0,15.41,8.61,19.5,17.6,19.5c6.87,0,10.59-2.12,14.46-5.98l-5.77-5.62
				c-2.41,2.41-4.46,3.58-8.62,3.58c-5.33,0-8.33-3.58-8.33-8.48H746.88z M711.01,55.66c-2.63-2.63-5.26-3.57-8.98-3.57
				c-4.09,0-7.74,1.89-9.57,4.09v-3.65h-9.27v38.05h9.49V67.64c0-4.82,3.21-7.01,6.14-7.01c2.34,0,3.58,0.8,5.04,2.26L711.01,55.66z
				 M674.12,90.58v-8.02h-3.65c-2.41,0-3.36-1.17-3.36-3.43V38.58h-9.48V79.7c0,5.4,3.28,10.87,11.09,10.87H674.12z M645.86,90.58
				V52.53h-9.48v23.01c0,5.19-3.37,6.94-6.36,6.94c-3,0-6.29-1.75-6.29-6.94V52.53h-9.48v24.32c0,4.16,0.8,7.74,3.87,10.81
				c2.12,2.11,5.18,3.35,8.98,3.35c3.51,0,7.02-1.31,9.51-3.94v3.5H645.86z M602.98,90.58V65.96c0-8.03-4.38-13.87-12.7-13.87
				c-3.36,0-6.57,1.31-9.14,3.94V38.58h-9.49v52h9.49V67.35c0-4.97,3.15-6.72,6.14-6.72c2.99,0,6.21,1.68,6.21,6.72v23.23H602.98z
				 M562.8,85.83l-6.43-6.36c-1.97,2.12-3.65,3-6.14,3c-2.26,0-4.02-0.8-5.41-2.49c-1.46-1.83-2.12-4.46-2.12-8.47
				s0.66-6.58,2.12-8.41c1.39-1.68,3.14-2.48,5.41-2.48c2.48,0,4.16,0.88,6.14,2.99l6.43-6.42c-3.36-3.51-7.3-5.11-12.56-5.11
				c-7.6,0-17.01,4.01-17.01,19.43s9.41,19.5,17.01,19.5C555.49,91.01,559.44,89.33,562.8,85.83 M525.7,78.6
				c0-6.43-3.8-10.45-11.32-11.18l-5.99-0.59c-3.36-0.29-3.94-1.9-3.94-3.29c0-1.9,1.61-3.65,5.41-3.65c3.29,0,6.65,0.58,8.84,2.56
				l5.84-5.91c-3.65-3.43-8.62-4.45-14.54-4.45c-7.74,0-14.68,4.23-14.68,12.11c0,7.02,4.24,10.01,11.1,10.67l5.99,0.58
				c2.99,0.29,4.02,1.61,4.02,3.51c0,2.85-3.43,3.95-6.72,3.95c-2.92,0-7.01-0.44-10.15-3.58l-6.21,6.21
				c4.82,4.82,10.23,5.47,16.22,5.47C518.54,91.01,525.7,87,525.7,78.6 M485.37,90.58V65.96c0-8.03-4.38-13.87-12.7-13.87
				c-3.37,0-6.58,1.31-9.14,3.94V38.58h-9.49v52h9.49V67.35c0-4.97,3.14-6.72,6.14-6.72c3,0,6.21,1.68,6.21,6.72v23.23H485.37z
				 M445.2,85.83l-6.43-6.36c-1.97,2.12-3.65,3-6.14,3c-2.26,0-4.02-0.8-5.41-2.49c-1.46-1.83-2.12-4.46-2.12-8.47
				s0.66-6.58,2.12-8.41c1.39-1.68,3.14-2.48,5.41-2.48c2.48,0,4.16,0.88,6.14,2.99l6.43-6.42c-3.36-3.51-7.3-5.11-12.56-5.11
				c-7.6,0-17.01,4.01-17.01,19.43s9.42,19.5,17.01,19.5C437.89,91.01,441.84,89.33,445.2,85.83 M397.5,71.52
				c0,3.94-0.22,7.3-2.19,9.28c-1.1,1.1-2.56,1.69-4.46,1.69c-1.9,0-3.29-0.58-4.38-1.69c-1.97-1.97-2.19-5.33-2.19-9.28
				s0.22-7.24,2.19-9.21c1.1-1.1,2.48-1.68,4.38-1.68c1.9,0,3.37,0.58,4.46,1.68C397.28,64.28,397.5,67.57,397.5,71.52
				 M406.99,71.52c0-6.87-0.88-11.18-4.31-14.76c-2.33-2.48-6.2-4.67-11.83-4.67c-5.62,0-9.42,2.19-11.76,4.67
				c-3.43,3.57-4.3,7.88-4.3,14.76c0,6.94,0.88,11.26,4.3,14.83c2.34,2.48,6.14,4.67,11.76,4.67c5.63,0,9.5-2.19,11.83-4.67
				C406.12,82.77,406.99,78.46,406.99,71.52 M364.7,90.58V65.96c0-8.03-4.38-13.87-12.7-13.87c-3.36,0-6.58,1.31-9.14,3.94V38.58
				h-9.49v52h9.49V67.35c0-4.97,3.14-6.72,6.14-6.72c2.99,0,6.21,1.68,6.21,6.72v23.23H364.7z M321.67,90.58V65.96
				c0-8.03-4.38-13.87-12.7-13.87c-3.36,0-6.58,1.31-9.14,3.94V38.58h-9.49v52h9.49V67.35c0-4.97,3.14-6.72,6.14-6.72
				c2.99,0,6.21,1.68,6.21,6.72v23.23H321.67z M281.5,85.83l-6.43-6.36c-1.97,2.12-3.65,3-6.14,3c-2.26,0-4.02-0.8-5.41-2.49
				c-1.46-1.83-2.12-4.46-2.12-8.47s0.66-6.58,2.12-8.41c1.39-1.68,3.14-2.48,5.41-2.48c2.48,0,4.16,0.88,6.14,2.99l6.43-6.42
				c-3.36-3.51-7.3-5.11-12.56-5.11c-7.6,0-17.01,4.01-17.01,19.43s9.41,19.5,17.01,19.5C274.19,91.01,278.14,89.33,281.5,85.83
				 M232.64,76.55c0,2.34-0.37,3.88-1.39,4.83c-1.69,1.61-3.37,1.83-6,1.83c-3.73,0-5.48-1.76-5.48-4.39c0-2.71,1.9-4.32,5.34-4.32
				h7.53V76.55z M242.12,90.58V65.53c0-8.91-5.55-13.44-16.21-13.44c-6.36,0-10.01,1.16-13.73,5.25l6.06,5.92
				c1.97-2.27,3.65-3.15,7.31-3.15c5.04,0,7.09,1.83,7.09,6v1.9h-8.99c-8.84,0-13,4.96-13,11.02c0,3.36,1.1,6.43,3.14,8.55
				c2.26,2.26,5.4,3.35,9.72,3.35c4.38,0,6.79-1.1,9.36-3.65v3.28H242.12z M206.18,47.62v-9.05h-34.25v52h10.14V69.47h20.53v-9.05
				h-20.53V47.62H206.18z"/>
		</g>
		<g style="clip-path:url(#SVGID_00000027599968390964513020000011264605667326145948_);">
			<rect x="3.09" y="464.7" class="st3" width="992.7" height="3.37"/>
		</g>
		<g style="clip-path:url(#SVGID_00000027599968390964513020000011264605667326145948_);">
			<rect x="3.09" y="347.82" class="st3" width="992.7" height="3.37"/>
		</g>
		<g style="clip-path:url(#SVGID_00000027599968390964513020000011264605667326145948_);">
			<rect x="3.09" y="236.56" class="st3" width="992.7" height="3.37"/>
		</g>
		<g style="clip-path:url(#SVGID_00000027599968390964513020000011264605667326145948_);">
			<rect x="3.09" y="578.76" class="st3" width="992.7" height="3.37"/>
		</g>
		<g style="clip-path:url(#SVGID_00000027599968390964513020000011264605667326145948_);">
			<rect x="3.09" y="701.26" class="st3" width="992.7" height="3.37"/>
		</g>
		<g style="clip-path:url(#SVGID_00000027599968390964513020000011264605667326145948_);">
			<rect x="3.09" y="818.14" class="st3" width="992.7" height="3.37"/>
		</g>
		<g style="clip-path:url(#SVGID_00000027599968390964513020000011264605667326145948_);">
			<path class="st3" d="M693,777.01c0,4.06-2.4,6.62-5.82,6.62c-3.42,0-5.77-2.57-5.77-6.62c0-4.11,2.35-6.57,5.77-6.57
				C690.81,770.44,693,773.27,693,777.01 M698.44,776.9c0-6.68-4.48-10.99-9.98-10.99c-1.17,0-2.35,0.16-3.37,0.58l8.17-16.33h-5.82
				l-8.65,17.62c-1.65,3.3-2.83,6.24-2.83,9.34c0,7.05,4.69,11.37,11.26,11.37C693.8,788.48,698.44,783.9,698.44,776.9
				 M658.99,763.34c-1.87-1.87-3.84-2.56-6.46-2.56c-3.05,0-5.82,1.33-7.21,3.25v-2.93h-5.33v27.06h5.43v-16.44
				c0-3.74,2.46-6.09,5.39-6.09c1.87,0,2.83,0.59,4.06,1.81L658.99,763.34z M625.63,778.4c0,1.92-0.37,3.2-1.17,4.01
				c-1.44,1.39-2.99,1.55-5.07,1.55c-3.42,0-4.97-1.39-4.97-3.85c0-2.46,1.66-3.9,4.86-3.9h6.36V778.4z M631.07,788.16v-18.09
				c0-6.14-3.73-9.28-11.15-9.28c-4.48,0-7.15,0.9-9.72,3.89l3.57,3.37c1.49-1.92,2.94-2.62,5.93-2.62c4.22,0,5.93,1.66,5.93,5.07
				v1.93h-7.16c-6.19,0-9.33,3.25-9.33,7.79c0,2.3,0.74,4.38,2.13,5.82c1.65,1.65,3.89,2.45,7.26,2.45c3.37,0,5.23-0.8,7.21-2.77
				v2.45H631.07z M598.03,772.42h-12.17c0.05-1.66,0.16-2.46,0.69-3.69c0.85-2.03,2.83-3.42,5.39-3.42c2.56,0,4.48,1.39,5.34,3.42
				C597.82,769.96,597.98,770.76,598.03,772.42 M603.42,776.2v-2.4c0-7.69-4.21-13.02-11.47-13.02c-6.94,0-11.47,5.06-11.47,13.82
				c0,10.3,5.39,13.87,12.17,13.87c4.75,0,7.37-1.44,10.14-4.21l-3.47-3.26c-1.92,1.92-3.52,2.78-6.57,2.78
				c-4.43,0-6.88-2.94-6.88-7.59H603.42z M581,750.16h-6.3l-7.95,16.71l-7.95-16.71h-6.3l11.37,22.36v15.64h5.76v-15.64L581,750.16z
				 M538.51,746.21h-5.23l-15.22,45.9h5.23L538.51,746.21z M495.76,777.01c0,4.06-2.4,6.62-5.82,6.62s-5.77-2.57-5.77-6.62
				c0-4.11,2.35-6.57,5.77-6.57C493.57,770.44,495.76,773.27,495.76,777.01 M501.2,776.9c0-6.68-4.48-10.99-9.98-10.99
				c-1.17,0-2.35,0.16-3.37,0.58l8.18-16.33h-5.82l-8.65,17.62c-1.66,3.3-2.83,6.24-2.83,9.34c0,7.05,4.69,11.37,11.26,11.37
				C496.56,788.48,501.2,783.9,501.2,776.9 M453.58,772.42h-12.17c0.06-1.66,0.16-2.46,0.7-3.69c0.85-2.03,2.83-3.42,5.39-3.42
				c2.56,0,4.48,1.39,5.34,3.42C453.37,769.96,453.53,770.76,453.58,772.42 M458.98,776.2v-2.4c0-7.69-4.22-13.02-11.48-13.02
				c-6.94,0-11.47,5.06-11.47,13.82c0,10.3,5.38,13.87,12.17,13.87c4.75,0,7.37-1.44,10.14-4.21l-3.47-3.26
				c-1.92,1.92-3.52,2.78-6.56,2.78c-4.43,0-6.89-2.94-6.89-7.59H458.98z M430.26,779.89c0-4.8-2.99-7.21-8.06-7.64l-4.27-0.37
				c-2.88-0.27-3.74-1.49-3.74-3.1c0-2.03,1.65-3.47,4.91-3.47c2.56,0,4.96,0.53,6.67,1.98l3.42-3.47
				c-2.51-2.19-5.98-3.03-10.04-3.03c-5.66,0-10.19,2.98-10.19,8.27c0,4.75,2.93,7.05,8.01,7.48l4.32,0.37
				c2.62,0.21,3.63,1.39,3.63,3.2c0,2.57-2.61,3.74-5.92,3.74c-2.67,0-5.61-0.59-7.79-2.83l-3.58,3.58
				c3.2,3.14,6.94,3.89,11.37,3.89C425.45,788.48,430.26,785.55,430.26,779.89 M403.41,779.89c0-4.8-2.99-7.21-8.06-7.64l-4.27-0.37
				c-2.88-0.27-3.74-1.49-3.74-3.1c0-2.03,1.66-3.47,4.91-3.47c2.56,0,4.97,0.53,6.68,1.98l3.42-3.47
				c-2.51-2.19-5.98-3.03-10.04-3.03c-5.66,0-10.2,2.98-10.2,8.27c0,4.75,2.94,7.05,8.01,7.48l4.33,0.37
				c2.61,0.21,3.63,1.39,3.63,3.2c0,2.57-2.62,3.74-5.93,3.74c-2.67,0-5.6-0.59-7.79-2.83l-3.57,3.58c3.2,3.14,6.94,3.89,11.37,3.89
				C398.6,788.48,403.41,785.55,403.41,779.89 M369.03,778.4c0,1.92-0.37,3.2-1.17,4.01c-1.44,1.39-2.99,1.55-5.07,1.55
				c-3.42,0-4.97-1.39-4.97-3.85c0-2.46,1.66-3.9,4.86-3.9h6.36V778.4z M374.47,788.16v-18.09c0-6.14-3.73-9.28-11.15-9.28
				c-4.48,0-7.15,0.9-9.71,3.89l3.57,3.37c1.49-1.92,2.94-2.62,5.93-2.62c4.22,0,5.93,1.66,5.93,5.07v1.93h-7.15
				c-6.19,0-9.34,3.25-9.34,7.79c0,2.3,0.75,4.38,2.14,5.82c1.65,1.65,3.89,2.45,7.25,2.45c3.37,0,5.24-0.8,7.21-2.77v2.45H374.47z
				 M348.05,788.16v-4.64h-2.4c-2.19,0-2.93-1.07-2.93-3.15v-30.21h-5.44v30.53c0,4,2.24,7.47,7.41,7.47H348.05z M332.04,788.16
				l-13.62-23.11l12.33-14.89h-7.05l-15.54,19.11v-19.11h-5.75v38h5.75v-11.05l6.41-7.69l10.68,18.73H332.04z"/>
		</g>
		<g style="clip-path:url(#SVGID_00000027599968390964513020000011264605667326145948_);">
			<path class="st3" d="M698.97,632.52v-4.85h-22.63v10.83h5.23v-5.98h11.59l-12.76,33.15h5.87L698.97,632.52z M658.99,640.85
				c-1.87-1.87-3.84-2.56-6.46-2.56c-3.05,0-5.82,1.33-7.21,3.25v-2.93h-5.33v27.06h5.43v-16.44c0-3.74,2.46-6.09,5.39-6.09
				c1.87,0,2.83,0.59,4.06,1.82L658.99,640.85z M625.63,655.9c0,1.92-0.37,3.2-1.17,4.01c-1.44,1.39-2.99,1.55-5.07,1.55
				c-3.42,0-4.97-1.39-4.97-3.85c0-2.46,1.66-3.9,4.86-3.9h6.36V655.9z M631.07,665.67v-18.09c0-6.14-3.73-9.28-11.15-9.28
				c-4.48,0-7.15,0.9-9.72,3.89l3.57,3.37c1.49-1.92,2.94-2.62,5.93-2.62c4.22,0,5.93,1.66,5.93,5.07v1.93h-7.16
				c-6.19,0-9.33,3.25-9.33,7.79c0,2.3,0.74,4.38,2.13,5.82c1.65,1.65,3.89,2.45,7.26,2.45c3.37,0,5.23-0.8,7.21-2.77v2.45H631.07z
				 M598.03,649.93h-12.17c0.05-1.66,0.16-2.46,0.69-3.69c0.85-2.03,2.83-3.42,5.39-3.42c2.56,0,4.48,1.39,5.34,3.42
				C597.82,647.46,597.98,648.27,598.03,649.93 M603.42,653.71v-2.4c0-7.69-4.21-13.02-11.47-13.02c-6.94,0-11.47,5.06-11.47,13.82
				c0,10.3,5.39,13.87,12.17,13.87c4.75,0,7.37-1.44,10.14-4.21l-3.47-3.26c-1.92,1.92-3.52,2.78-6.57,2.78
				c-4.43,0-6.88-2.94-6.88-7.59H603.42z M581,627.66h-6.3l-7.95,16.71l-7.95-16.71h-6.3l11.37,22.36v15.64h5.76v-15.64L581,627.66z
				 M538.51,623.71h-5.23l-15.22,45.9h5.23L538.51,623.71z M501.74,632.52v-4.85H479.1v10.83h5.23v-5.98h11.58l-12.76,33.15h5.87
				L501.74,632.52z M453.58,649.93h-12.17c0.06-1.66,0.16-2.46,0.7-3.69c0.85-2.03,2.83-3.42,5.39-3.42c2.56,0,4.48,1.39,5.34,3.42
				C453.37,647.46,453.53,648.27,453.58,649.93 M458.98,653.71v-2.4c0-7.69-4.22-13.02-11.48-13.02c-6.94,0-11.47,5.06-11.47,13.82
				c0,10.3,5.38,13.87,12.17,13.87c4.75,0,7.37-1.44,10.14-4.21l-3.47-3.26c-1.92,1.92-3.52,2.78-6.56,2.78
				c-4.43,0-6.89-2.94-6.89-7.59H458.98z M430.26,657.39c0-4.8-2.99-7.21-8.06-7.64l-4.27-0.37c-2.88-0.27-3.74-1.49-3.74-3.1
				c0-2.03,1.65-3.47,4.91-3.47c2.56,0,4.96,0.53,6.67,1.98l3.42-3.47c-2.51-2.19-5.98-3.03-10.04-3.03
				c-5.66,0-10.19,2.98-10.19,8.27c0,4.75,2.93,7.05,8.01,7.48l4.32,0.37c2.62,0.21,3.63,1.39,3.63,3.2c0,2.57-2.61,3.74-5.92,3.74
				c-2.67,0-5.61-0.59-7.79-2.83l-3.58,3.58c3.2,3.14,6.94,3.89,11.37,3.89C425.45,665.99,430.26,663.05,430.26,657.39
				 M403.41,657.39c0-4.8-2.99-7.21-8.06-7.64l-4.27-0.37c-2.88-0.27-3.74-1.49-3.74-3.1c0-2.03,1.66-3.47,4.91-3.47
				c2.56,0,4.97,0.53,6.68,1.98l3.42-3.47c-2.51-2.19-5.98-3.03-10.04-3.03c-5.66,0-10.2,2.98-10.2,8.27c0,4.75,2.94,7.05,8.01,7.48
				l4.33,0.37c2.61,0.21,3.63,1.39,3.63,3.2c0,2.57-2.62,3.74-5.93,3.74c-2.67,0-5.6-0.59-7.79-2.83l-3.57,3.58
				c3.2,3.14,6.94,3.89,11.37,3.89C398.6,665.99,403.41,663.05,403.41,657.39 M369.03,655.9c0,1.92-0.37,3.2-1.17,4.01
				c-1.44,1.39-2.99,1.55-5.07,1.55c-3.42,0-4.97-1.39-4.97-3.85c0-2.46,1.66-3.9,4.86-3.9h6.36V655.9z M374.47,665.67v-18.09
				c0-6.14-3.73-9.28-11.15-9.28c-4.48,0-7.15,0.9-9.71,3.89l3.57,3.37c1.49-1.92,2.94-2.62,5.93-2.62c4.22,0,5.93,1.66,5.93,5.07
				v1.93h-7.15c-6.19,0-9.34,3.25-9.34,7.79c0,2.3,0.75,4.38,2.14,5.82c1.65,1.65,3.89,2.45,7.25,2.45c3.37,0,5.24-0.8,7.21-2.77
				v2.45H374.47z M348.05,665.67v-4.64h-2.4c-2.19,0-2.93-1.07-2.93-3.15v-30.21h-5.44v30.53c0,4,2.24,7.47,7.41,7.47H348.05z
				 M332.04,665.67l-13.62-23.11l12.33-14.89h-7.05l-15.54,19.11v-19.11h-5.75v38h5.75v-11.05l6.41-7.69l10.68,18.73H332.04z"/>
		</g>
		<g style="clip-path:url(#SVGID_00000027599968390964513020000011264605667326145948_);">
			<path class="st3" d="M692.84,521.14c0,3.36-2.35,5.77-5.66,5.77c-3.31,0-5.61-2.41-5.61-5.77c0-3.32,2.3-5.82,5.61-5.82
				C690.49,515.32,692.84,517.83,692.84,521.14 M693.43,537.95c0,3.52-2.73,6.3-6.25,6.3c-3.52,0-6.25-2.78-6.25-6.3
				c0-3.52,2.73-6.36,6.25-6.36C690.7,531.6,693.43,534.43,693.43,537.95 M698.92,538.06c0-4.54-2.56-7.32-5.23-8.91
				c2.46-1.49,4.59-4.16,4.59-8.17c0-6.36-4.91-10.51-11.1-10.51c-6.2,0-11.05,4.16-11.05,10.51c0,4.01,2.14,6.68,4.59,8.17
				c-2.66,1.6-5.23,4.37-5.23,8.91c0,6.89,5.18,11.05,11.69,11.05C693.69,549.11,698.92,544.95,698.92,538.06 M658.99,523.97
				c-1.87-1.87-3.84-2.56-6.46-2.56c-3.05,0-5.82,1.33-7.21,3.25v-2.93h-5.33v27.06h5.43v-16.44c0-3.74,2.46-6.09,5.39-6.09
				c1.87,0,2.83,0.59,4.06,1.82L658.99,523.97z M625.63,539.02c0,1.92-0.37,3.2-1.17,4.01c-1.44,1.39-2.99,1.55-5.07,1.55
				c-3.42,0-4.97-1.39-4.97-3.85c0-2.46,1.66-3.9,4.86-3.9h6.36V539.02z M631.07,548.79v-18.09c0-6.14-3.73-9.28-11.15-9.28
				c-4.48,0-7.15,0.9-9.72,3.89l3.57,3.37c1.49-1.92,2.94-2.62,5.93-2.62c4.22,0,5.93,1.66,5.93,5.07v1.93h-7.16
				c-6.19,0-9.33,3.25-9.33,7.79c0,2.3,0.74,4.38,2.13,5.82c1.65,1.65,3.89,2.45,7.26,2.45c3.37,0,5.23-0.8,7.21-2.77v2.45H631.07z
				 M598.03,533.05h-12.17c0.05-1.66,0.16-2.46,0.69-3.69c0.85-2.03,2.83-3.42,5.39-3.42c2.56,0,4.48,1.39,5.34,3.42
				C597.82,530.59,597.98,531.39,598.03,533.05 M603.42,536.83v-2.4c0-7.69-4.21-13.02-11.47-13.02c-6.94,0-11.47,5.06-11.47,13.82
				c0,10.3,5.39,13.87,12.17,13.87c4.75,0,7.37-1.44,10.14-4.21l-3.47-3.26c-1.92,1.92-3.52,2.78-6.57,2.78
				c-4.43,0-6.88-2.94-6.88-7.59H603.42z M581,510.79h-6.3l-7.95,16.71l-7.95-16.71h-6.3l11.37,22.36v15.64h5.76v-15.64L581,510.79z
				 M538.51,506.84h-5.23l-15.22,45.9h5.23L538.51,506.84z M495.6,521.14c0,3.36-2.35,5.77-5.66,5.77c-3.31,0-5.61-2.41-5.61-5.77
				c0-3.32,2.3-5.82,5.61-5.82C493.25,515.32,495.6,517.83,495.6,521.14 M496.19,537.95c0,3.52-2.73,6.3-6.25,6.3
				c-3.52,0-6.25-2.78-6.25-6.3c0-3.52,2.73-6.36,6.25-6.36C493.46,531.6,496.19,534.43,496.19,537.95 M501.68,538.06
				c0-4.54-2.56-7.32-5.22-8.91c2.45-1.49,4.59-4.16,4.59-8.17c0-6.36-4.91-10.51-11.1-10.51c-6.19,0-11.05,4.16-11.05,10.51
				c0,4.01,2.14,6.68,4.59,8.17c-2.66,1.6-5.23,4.37-5.23,8.91c0,6.89,5.18,11.05,11.69,11.05
				C496.46,549.11,501.68,544.95,501.68,538.06 M453.58,533.05h-12.17c0.06-1.66,0.16-2.46,0.7-3.69c0.85-2.03,2.83-3.42,5.39-3.42
				c2.56,0,4.48,1.39,5.34,3.42C453.37,530.59,453.53,531.39,453.58,533.05 M458.98,536.83v-2.4c0-7.69-4.22-13.02-11.48-13.02
				c-6.94,0-11.47,5.06-11.47,13.82c0,10.3,5.38,13.87,12.17,13.87c4.75,0,7.37-1.44,10.14-4.21l-3.47-3.26
				c-1.92,1.92-3.52,2.78-6.56,2.78c-4.43,0-6.89-2.94-6.89-7.59H458.98z M430.26,540.52c0-4.8-2.99-7.21-8.06-7.64l-4.27-0.37
				c-2.88-0.27-3.74-1.49-3.74-3.1c0-2.03,1.65-3.47,4.91-3.47c2.56,0,4.96,0.53,6.67,1.98l3.42-3.47
				c-2.51-2.19-5.98-3.03-10.04-3.03c-5.66,0-10.19,2.98-10.19,8.27c0,4.75,2.93,7.05,8.01,7.48l4.32,0.37
				c2.62,0.21,3.63,1.39,3.63,3.2c0,2.57-2.61,3.74-5.92,3.74c-2.67,0-5.61-0.59-7.79-2.83l-3.58,3.58
				c3.2,3.14,6.94,3.89,11.37,3.89C425.45,549.11,430.26,546.18,430.26,540.52 M403.41,540.52c0-4.8-2.99-7.21-8.06-7.64l-4.27-0.37
				c-2.88-0.27-3.74-1.49-3.74-3.1c0-2.03,1.66-3.47,4.91-3.47c2.56,0,4.97,0.53,6.68,1.98l3.42-3.47
				c-2.51-2.19-5.98-3.03-10.04-3.03c-5.66,0-10.2,2.98-10.2,8.27c0,4.75,2.94,7.05,8.01,7.48l4.33,0.37
				c2.61,0.21,3.63,1.39,3.63,3.2c0,2.57-2.62,3.74-5.93,3.74c-2.67,0-5.6-0.59-7.79-2.83l-3.57,3.58c3.2,3.14,6.94,3.89,11.37,3.89
				C398.6,549.11,403.41,546.18,403.41,540.52 M369.03,539.02c0,1.92-0.37,3.2-1.17,4.01c-1.44,1.39-2.99,1.55-5.07,1.55
				c-3.42,0-4.97-1.39-4.97-3.85c0-2.46,1.66-3.9,4.86-3.9h6.36V539.02z M374.47,548.79v-18.09c0-6.14-3.73-9.28-11.15-9.28
				c-4.48,0-7.15,0.9-9.71,3.89l3.57,3.37c1.49-1.92,2.94-2.62,5.93-2.62c4.22,0,5.93,1.66,5.93,5.07v1.93h-7.15
				c-6.19,0-9.34,3.25-9.34,7.79c0,2.3,0.75,4.38,2.14,5.82c1.65,1.65,3.89,2.45,7.25,2.45c3.37,0,5.24-0.8,7.21-2.77v2.45H374.47z
				 M348.05,548.79v-4.64h-2.4c-2.19,0-2.93-1.07-2.93-3.15v-30.21h-5.44v30.53c0,4,2.24,7.47,7.41,7.47H348.05z M332.04,548.79
				l-13.62-23.11l12.33-14.89h-7.05l-15.54,19.11v-19.11h-5.75v38h5.75v-11.05l6.41-7.69l10.68,18.73H332.04z"/>
		</g>
		<g style="clip-path:url(#SVGID_00000027599968390964513020000011264605667326145948_);">
			<path class="st3" d="M693,405.06c0,4.11-2.4,6.57-5.82,6.57c-3.63,0-5.77-2.83-5.77-6.57c0-4.06,2.35-6.62,5.77-6.62
				C690.59,398.44,693,401.01,693,405.06 M698.44,404.96c0-7.05-4.69-11.37-11.26-11.37c-6.57,0-11.21,4.59-11.21,11.58
				c0,6.68,4.43,11,9.93,11c1.17,0,2.4-0.16,3.42-0.59l-8.17,16.33h5.82l8.65-17.62C697.26,410.99,698.44,408.05,698.44,404.96
				 M658.99,407.09c-1.87-1.87-3.84-2.56-6.46-2.56c-3.05,0-5.82,1.33-7.21,3.25v-2.93h-5.33v27.06h5.43v-16.44
				c0-3.74,2.46-6.09,5.39-6.09c1.87,0,2.83,0.59,4.06,1.82L658.99,407.09z M625.63,422.15c0,1.92-0.37,3.2-1.17,4.01
				c-1.44,1.39-2.99,1.55-5.07,1.55c-3.42,0-4.97-1.39-4.97-3.85c0-2.46,1.66-3.9,4.86-3.9h6.36V422.15z M631.07,431.91v-18.09
				c0-6.14-3.73-9.28-11.15-9.28c-4.48,0-7.15,0.9-9.72,3.89l3.57,3.37c1.49-1.92,2.94-2.62,5.93-2.62c4.22,0,5.93,1.66,5.93,5.07
				v1.93h-7.16c-6.19,0-9.33,3.25-9.33,7.79c0,2.3,0.74,4.38,2.13,5.82c1.65,1.65,3.89,2.45,7.26,2.45c3.37,0,5.23-0.8,7.21-2.77
				v2.45H631.07z M598.03,416.17h-12.17c0.05-1.66,0.16-2.46,0.69-3.69c0.85-2.03,2.83-3.42,5.39-3.42c2.56,0,4.48,1.39,5.34,3.42
				C597.82,413.71,597.98,414.51,598.03,416.17 M603.42,419.95v-2.4c0-7.69-4.21-13.02-11.47-13.02c-6.94,0-11.47,5.06-11.47,13.82
				c0,10.3,5.39,13.87,12.17,13.87c4.75,0,7.37-1.44,10.14-4.21l-3.47-3.26c-1.92,1.92-3.52,2.78-6.57,2.78
				c-4.43,0-6.88-2.94-6.88-7.59H603.42z M581,393.91h-6.3l-7.95,16.71l-7.95-16.71h-6.3l11.37,22.36v15.64h5.76v-15.64L581,393.91z
				 M538.51,389.96h-5.23l-15.22,45.9h5.23L538.51,389.96z M495.76,405.06c0,4.11-2.4,6.57-5.82,6.57c-3.63,0-5.77-2.83-5.77-6.57
				c0-4.06,2.35-6.62,5.77-6.62S495.76,401.01,495.76,405.06 M501.2,404.96c0-7.05-4.69-11.37-11.26-11.37s-11.2,4.59-11.2,11.58
				c0,6.68,4.42,11,9.92,11c1.17,0,2.4-0.16,3.42-0.59l-8.17,16.33h5.82l8.65-17.62C500.02,410.99,501.2,408.05,501.2,404.96
				 M453.58,416.17h-12.17c0.06-1.66,0.16-2.46,0.7-3.69c0.85-2.03,2.83-3.42,5.39-3.42c2.56,0,4.48,1.39,5.34,3.42
				C453.37,413.71,453.53,414.51,453.58,416.17 M458.98,419.95v-2.4c0-7.69-4.22-13.02-11.48-13.02c-6.94,0-11.47,5.06-11.47,13.82
				c0,10.3,5.38,13.87,12.17,13.87c4.75,0,7.37-1.44,10.14-4.21l-3.47-3.26c-1.92,1.92-3.52,2.78-6.56,2.78
				c-4.43,0-6.89-2.94-6.89-7.59H458.98z M430.26,423.64c0-4.8-2.99-7.21-8.06-7.64l-4.27-0.37c-2.88-0.27-3.74-1.49-3.74-3.1
				c0-2.03,1.65-3.47,4.91-3.47c2.56,0,4.96,0.53,6.67,1.98l3.42-3.47c-2.51-2.19-5.98-3.03-10.04-3.03
				c-5.66,0-10.19,2.98-10.19,8.27c0,4.75,2.93,7.05,8.01,7.48l4.32,0.37c2.62,0.21,3.63,1.39,3.63,3.2c0,2.57-2.61,3.74-5.92,3.74
				c-2.67,0-5.61-0.59-7.79-2.83l-3.58,3.58c3.2,3.14,6.94,3.89,11.37,3.89C425.45,432.23,430.26,429.3,430.26,423.64
				 M403.41,423.64c0-4.8-2.99-7.21-8.06-7.64l-4.27-0.37c-2.88-0.27-3.74-1.49-3.74-3.1c0-2.03,1.66-3.47,4.91-3.47
				c2.56,0,4.97,0.53,6.68,1.98l3.42-3.47c-2.51-2.19-5.98-3.03-10.04-3.03c-5.66,0-10.2,2.98-10.2,8.27c0,4.75,2.94,7.05,8.01,7.48
				l4.33,0.37c2.61,0.21,3.63,1.39,3.63,3.2c0,2.57-2.62,3.74-5.93,3.74c-2.67,0-5.6-0.59-7.79-2.83l-3.57,3.58
				c3.2,3.14,6.94,3.89,11.37,3.89C398.6,432.23,403.41,429.3,403.41,423.64 M369.03,422.15c0,1.92-0.37,3.2-1.17,4.01
				c-1.44,1.39-2.99,1.55-5.07,1.55c-3.42,0-4.97-1.39-4.97-3.85c0-2.46,1.66-3.9,4.86-3.9h6.36V422.15z M374.47,431.91v-18.09
				c0-6.14-3.73-9.28-11.15-9.28c-4.48,0-7.15,0.9-9.71,3.89l3.57,3.37c1.49-1.92,2.94-2.62,5.93-2.62c4.22,0,5.93,1.66,5.93,5.07
				v1.93h-7.15c-6.19,0-9.34,3.25-9.34,7.79c0,2.3,0.75,4.38,2.14,5.82c1.65,1.65,3.89,2.45,7.25,2.45c3.37,0,5.24-0.8,7.21-2.77
				v2.45H374.47z M348.05,431.91v-4.64h-2.4c-2.19,0-2.93-1.07-2.93-3.15v-30.21h-5.44v30.53c0,4,2.24,7.47,7.41,7.47H348.05z
				 M332.04,431.91l-13.62-23.11l12.33-14.89h-7.05l-15.54,19.11v-19.11h-5.75v38h5.75v-11.05l6.41-7.69l10.68,18.73H332.04z"/>
		</g>
		<g style="clip-path:url(#SVGID_00000027599968390964513020000011264605667326145948_);">
			<path class="st3" d="M721.72,304.31c0,3.69-2.08,6.2-5.55,6.2c-3.47,0-5.5-2.51-5.5-6.2v-16.55c0-3.69,2.03-6.19,5.5-6.19
				c3.47,0,5.55,2.51,5.55,6.19V304.31z M727.16,304.47V287.6c0-6.78-4.96-10.88-10.99-10.88s-10.94,4.11-10.94,10.88v16.87
				c0,6.78,4.91,10.88,10.94,10.88S727.16,311.25,727.16,304.47 M691.92,315.03v-38h-5.44l-7.42,6.41v6.03l7.42-6.51v32.07H691.92z
				 M658.99,290.21c-1.87-1.87-3.84-2.56-6.46-2.56c-3.04,0-5.82,1.33-7.2,3.25v-2.93h-5.33v27.06h5.44v-16.44
				c0-3.74,2.46-6.09,5.39-6.09c1.87,0,2.83,0.59,4.06,1.82L658.99,290.21z M625.64,305.27c0,1.92-0.38,3.2-1.18,4.01
				c-1.44,1.39-2.99,1.55-5.07,1.55c-3.42,0-4.97-1.39-4.97-3.85c0-2.46,1.66-3.9,4.86-3.9h6.36V305.27z M631.07,315.03v-18.09
				c0-6.14-3.73-9.28-11.15-9.28c-4.48,0-7.15,0.9-9.71,3.89l3.57,3.37c1.49-1.92,2.93-2.62,5.92-2.62c4.22,0,5.93,1.66,5.93,5.07
				v1.93h-7.16c-6.19,0-9.34,3.25-9.34,7.79c0,2.3,0.75,4.38,2.14,5.82c1.65,1.65,3.89,2.45,7.25,2.45c3.37,0,5.24-0.8,7.21-2.77
				v2.45H631.07z M598.03,299.3h-12.17c0.06-1.66,0.16-2.46,0.7-3.69c0.85-2.03,2.83-3.42,5.39-3.42s4.48,1.39,5.34,3.42
				C597.82,296.83,597.98,297.64,598.03,299.3 M603.42,303.08v-2.4c0-7.69-4.22-13.02-11.48-13.02c-6.94,0-11.47,5.06-11.47,13.82
				c0,10.31,5.38,13.88,12.16,13.88c4.75,0,7.37-1.44,10.15-4.21l-3.47-3.26c-1.92,1.92-3.52,2.78-6.56,2.78
				c-4.43,0-6.89-2.94-6.89-7.59H603.42z M581,277.03h-6.3l-7.95,16.71l-7.95-16.71h-6.3l11.37,22.36v15.64h5.76V299.4L581,277.03z
				 M538.51,273.08h-5.23l-15.21,45.9h5.23L538.51,273.08z M495.49,304.31c0,3.69-2.08,6.2-5.56,6.2c-3.47,0-5.5-2.51-5.5-6.2
				v-16.55c0-3.69,2.03-6.19,5.5-6.19c3.47,0,5.56,2.51,5.56,6.19V304.31z M500.93,304.47V287.6c0-6.78-4.96-10.88-11-10.88
				c-6.03,0-10.93,4.11-10.93,10.88v16.87c0,6.78,4.9,10.88,10.93,10.88C495.97,315.35,500.93,311.25,500.93,304.47 M465.7,315.03
				v-38h-5.44l-7.42,6.41v6.03l7.42-6.51v32.07H465.7z M424.6,299.3h-12.17c0.06-1.66,0.16-2.46,0.7-3.69
				c0.85-2.03,2.83-3.42,5.39-3.42s4.48,1.39,5.34,3.42C424.38,296.83,424.55,297.64,424.6,299.3 M429.99,303.08v-2.4
				c0-7.69-4.22-13.02-11.48-13.02c-6.94,0-11.47,5.06-11.47,13.82c0,10.31,5.38,13.88,12.17,13.88c4.75,0,7.37-1.44,10.14-4.21
				l-3.47-3.26c-1.92,1.92-3.52,2.78-6.56,2.78c-4.43,0-6.89-2.94-6.89-7.59H429.99z M401.27,306.76c0-4.8-2.99-7.21-8.06-7.64
				l-4.27-0.37c-2.88-0.27-3.74-1.49-3.74-3.1c0-2.03,1.65-3.47,4.91-3.47c2.56,0,4.96,0.53,6.67,1.98l3.42-3.47
				c-2.51-2.19-5.98-3.03-10.04-3.03c-5.66,0-10.19,2.98-10.19,8.27c0,4.75,2.93,7.05,8.01,7.48l4.32,0.37
				c2.62,0.21,3.63,1.39,3.63,3.2c0,2.57-2.61,3.74-5.92,3.74c-2.67,0-5.61-0.59-7.79-2.83l-3.58,3.57
				c3.2,3.15,6.94,3.89,11.37,3.89C396.47,315.35,401.27,312.42,401.27,306.76 M374.42,306.76c0-4.8-2.99-7.21-8.06-7.64l-4.27-0.37
				c-2.88-0.27-3.74-1.49-3.74-3.1c0-2.03,1.66-3.47,4.91-3.47c2.56,0,4.97,0.53,6.68,1.98l3.42-3.47
				c-2.51-2.19-5.98-3.03-10.04-3.03c-5.66,0-10.2,2.98-10.2,8.27c0,4.75,2.94,7.05,8.01,7.48l4.33,0.37
				c2.61,0.21,3.63,1.39,3.63,3.2c0,2.57-2.62,3.74-5.93,3.74c-2.67,0-5.6-0.59-7.79-2.83l-3.57,3.57c3.2,3.15,6.94,3.89,11.37,3.89
				C369.62,315.35,374.42,312.42,374.42,306.76 M340.05,305.27c0,1.92-0.37,3.2-1.17,4.01c-1.44,1.39-2.99,1.55-5.07,1.55
				c-3.42,0-4.97-1.39-4.97-3.85c0-2.46,1.66-3.9,4.86-3.9h6.36V305.27z M345.49,315.03v-18.09c0-6.14-3.73-9.28-11.15-9.28
				c-4.48,0-7.15,0.9-9.71,3.89l3.57,3.37c1.49-1.92,2.94-2.62,5.93-2.62c4.22,0,5.93,1.66,5.93,5.07v1.93h-7.15
				c-6.19,0-9.34,3.25-9.34,7.79c0,2.3,0.75,4.38,2.14,5.82c1.65,1.65,3.89,2.45,7.25,2.45c3.37,0,5.24-0.8,7.21-2.77v2.45H345.49z
				 M319.06,315.03v-4.64h-2.4c-2.19,0-2.93-1.07-2.93-3.15v-30.21h-5.44v30.53c0,4,2.24,7.47,7.41,7.47H319.06z M303.05,315.03
				l-13.62-23.11l12.33-14.89h-7.05l-15.54,19.11v-19.11h-5.75v38h5.75v-11.05l6.41-7.69l10.68,18.73H303.05z"/>
		</g>
		<g style="clip-path:url(#SVGID_00000027599968390964513020000011264605667326145948_);">
			<path class="st3" d="M720.91,206.12v-38h-5.44l-7.42,6.41v6.03l7.42-6.51v32.07H720.91z M691.92,206.12v-38h-5.44l-7.42,6.41
				v6.03l7.42-6.51v32.07H691.92z M658.99,181.3c-1.87-1.87-3.84-2.56-6.46-2.56c-3.04,0-5.82,1.33-7.2,3.25v-2.93h-5.33v27.06h5.44
				v-16.44c0-3.74,2.46-6.09,5.39-6.09c1.87,0,2.83,0.58,4.06,1.81L658.99,181.3z M625.64,196.36c0,1.92-0.38,3.2-1.18,4.01
				c-1.44,1.39-2.99,1.55-5.07,1.55c-3.42,0-4.97-1.39-4.97-3.85c0-2.46,1.66-3.9,4.86-3.9h6.36V196.36z M631.07,206.12v-18.09
				c0-6.14-3.73-9.28-11.15-9.28c-4.48,0-7.15,0.9-9.71,3.89l3.57,3.37c1.49-1.92,2.93-2.62,5.92-2.62c4.22,0,5.93,1.66,5.93,5.07
				v1.93h-7.16c-6.19,0-9.34,3.25-9.34,7.79c0,2.3,0.75,4.38,2.14,5.82c1.65,1.65,3.89,2.45,7.25,2.45c3.37,0,5.24-0.8,7.21-2.77
				v2.45H631.07z M598.03,190.38h-12.17c0.06-1.66,0.16-2.46,0.7-3.69c0.85-2.03,2.83-3.42,5.39-3.42s4.48,1.39,5.34,3.42
				C597.82,187.92,597.98,188.72,598.03,190.38 M603.42,194.16v-2.4c0-7.69-4.22-13.02-11.48-13.02c-6.94,0-11.47,5.06-11.47,13.82
				c0,10.31,5.38,13.88,12.16,13.88c4.75,0,7.37-1.44,10.15-4.21l-3.47-3.26c-1.92,1.92-3.52,2.78-6.56,2.78
				c-4.43,0-6.89-2.94-6.89-7.59H603.42z M581,168.12h-6.3l-7.95,16.71l-7.95-16.71h-6.3l11.37,22.36v15.64h5.76v-15.64L581,168.12z
				 M538.51,164.17h-5.23l-15.21,45.9h5.23L538.51,164.17z M494.68,206.12v-38h-5.43l-7.42,6.41v6.03l7.42-6.51v32.07H494.68z
				 M465.7,206.12v-38h-5.44l-7.42,6.41v6.03l7.42-6.51v32.07H465.7z M424.6,190.38h-12.17c0.06-1.66,0.16-2.46,0.7-3.69
				c0.85-2.03,2.83-3.42,5.39-3.42s4.48,1.39,5.34,3.42C424.38,187.92,424.55,188.72,424.6,190.38 M429.99,194.16v-2.4
				c0-7.69-4.22-13.02-11.48-13.02c-6.94,0-11.47,5.06-11.47,13.82c0,10.31,5.38,13.88,12.17,13.88c4.75,0,7.37-1.44,10.14-4.21
				l-3.47-3.26c-1.92,1.92-3.52,2.78-6.56,2.78c-4.43,0-6.89-2.94-6.89-7.59H429.99z M401.27,197.85c0-4.8-2.99-7.21-8.06-7.64
				l-4.27-0.37c-2.88-0.27-3.74-1.49-3.74-3.1c0-2.03,1.65-3.47,4.91-3.47c2.56,0,4.96,0.53,6.67,1.98l3.42-3.47
				c-2.51-2.19-5.98-3.03-10.04-3.03c-5.66,0-10.19,2.98-10.19,8.27c0,4.75,2.93,7.05,8.01,7.48l4.32,0.37
				c2.62,0.21,3.63,1.39,3.63,3.2c0,2.57-2.61,3.74-5.92,3.74c-2.67,0-5.61-0.59-7.79-2.83l-3.58,3.57
				c3.2,3.15,6.94,3.89,11.37,3.89C396.47,206.44,401.27,203.51,401.27,197.85 M374.42,197.85c0-4.8-2.99-7.21-8.06-7.64l-4.27-0.37
				c-2.88-0.27-3.74-1.49-3.74-3.1c0-2.03,1.66-3.47,4.91-3.47c2.56,0,4.97,0.53,6.68,1.98l3.42-3.47
				c-2.51-2.19-5.98-3.03-10.04-3.03c-5.66,0-10.2,2.98-10.2,8.27c0,4.75,2.94,7.05,8.01,7.48l4.33,0.37
				c2.61,0.21,3.63,1.39,3.63,3.2c0,2.57-2.62,3.74-5.93,3.74c-2.67,0-5.6-0.59-7.79-2.83l-3.57,3.57c3.2,3.15,6.94,3.89,11.37,3.89
				C369.62,206.44,374.42,203.51,374.42,197.85 M340.05,196.36c0,1.92-0.37,3.2-1.17,4.01c-1.44,1.39-2.99,1.55-5.07,1.55
				c-3.42,0-4.97-1.39-4.97-3.85c0-2.46,1.66-3.9,4.86-3.9h6.36V196.36z M345.49,206.12v-18.09c0-6.14-3.73-9.28-11.15-9.28
				c-4.48,0-7.15,0.9-9.71,3.89l3.57,3.37c1.49-1.92,2.94-2.62,5.93-2.62c4.22,0,5.93,1.66,5.93,5.07v1.93h-7.15
				c-6.19,0-9.34,3.25-9.34,7.79c0,2.3,0.75,4.38,2.14,5.82c1.65,1.65,3.89,2.45,7.25,2.45c3.37,0,5.24-0.8,7.21-2.77v2.45H345.49z
				 M319.06,206.12v-4.64h-2.4c-2.19,0-2.93-1.07-2.93-3.15v-30.21h-5.44v30.53c0,4,2.24,7.47,7.41,7.47H319.06z M303.05,206.12
				l-13.62-23.11l12.33-14.89h-7.05l-15.54,19.11v-19.11h-5.75v38h5.75v-11.05l6.41-7.69l10.68,18.73H303.05z"/>
		</g>
		<g style="clip-path:url(#SVGID_00000027599968390964513020000011264605667326145948_);">
			<path class="st3" d="M698.55,886.72c0-3.58-0.43-7.27-3.3-10.14c-1.55-1.55-3.84-2.46-6.84-2.46c-2.78,0-5.02,0.85-6.3,2.19
				v-10.04h15.59v-4.85H677.2v20.76h4.96c0.59-1.87,2.3-3.42,5.39-3.42c4.38,0,5.56,3.42,5.56,7.96c0,2.56-0.21,5.07-1.81,6.68
				c-0.96,0.96-2.35,1.49-3.96,1.49c-3.42,0-5.12-1.92-5.55-5.29h-5.44c0.21,2.73,0.85,5.23,2.88,7.26
				c1.65,1.65,4.48,2.93,8.11,2.93c3.69,0,6.3-1.28,8.01-2.98C698.12,894.04,698.55,890.78,698.55,886.72 M658.99,874.6
				c-1.87-1.87-3.84-2.56-6.46-2.56c-3.05,0-5.82,1.33-7.21,3.25v-2.93h-5.33v27.06h5.43v-16.44c0-3.74,2.46-6.09,5.39-6.09
				c1.87,0,2.83,0.59,4.06,1.82L658.99,874.6z M625.63,889.65c0,1.92-0.37,3.2-1.17,4.01c-1.44,1.39-2.99,1.55-5.07,1.55
				c-3.42,0-4.97-1.39-4.97-3.85c0-2.46,1.66-3.9,4.86-3.9h6.36V889.65z M631.07,899.42v-18.09c0-6.14-3.73-9.28-11.15-9.28
				c-4.48,0-7.15,0.9-9.72,3.89l3.57,3.37c1.49-1.92,2.94-2.62,5.93-2.62c4.22,0,5.93,1.66,5.93,5.07v1.93h-7.16
				c-6.19,0-9.33,3.25-9.33,7.79c0,2.3,0.74,4.38,2.13,5.82c1.65,1.65,3.89,2.45,7.26,2.45c3.37,0,5.23-0.8,7.21-2.77v2.45H631.07z
				 M598.03,883.68h-12.17c0.05-1.66,0.16-2.46,0.69-3.69c0.85-2.03,2.83-3.42,5.39-3.42c2.56,0,4.48,1.39,5.34,3.42
				C597.82,881.22,597.98,882.02,598.03,883.68 M603.42,887.46v-2.4c0-7.69-4.21-13.02-11.47-13.02c-6.94,0-11.47,5.06-11.47,13.82
				c0,10.31,5.39,13.88,12.17,13.88c4.75,0,7.37-1.44,10.14-4.21l-3.47-3.26c-1.92,1.92-3.52,2.78-6.57,2.78
				c-4.43,0-6.88-2.94-6.88-7.59H603.42z M581,861.42h-6.3l-7.95,16.71l-7.95-16.71h-6.3l11.37,22.36v15.64h5.76v-15.64L581,861.42z
				 M538.51,857.47h-5.23l-15.22,45.9h5.23L538.51,857.47z M501.3,886.72c0-3.58-0.43-7.27-3.3-10.14
				c-1.55-1.55-3.84-2.46-6.83-2.46c-2.78,0-5.02,0.85-6.3,2.19v-10.04h15.59v-4.85h-20.49v20.76h4.96c0.59-1.87,2.3-3.42,5.4-3.42
				c4.38,0,5.55,3.42,5.55,7.96c0,2.56-0.21,5.07-1.81,6.68c-0.96,0.96-2.35,1.49-3.95,1.49c-3.42,0-5.13-1.92-5.56-5.29h-5.44
				c0.21,2.73,0.85,5.23,2.88,7.26c1.65,1.65,4.48,2.93,8.11,2.93c3.68,0,6.3-1.28,8.01-2.98
				C500.88,894.04,501.3,890.78,501.3,886.72 M453.58,883.68h-12.17c0.06-1.66,0.16-2.46,0.7-3.69c0.85-2.03,2.83-3.42,5.39-3.42
				c2.56,0,4.48,1.39,5.34,3.42C453.37,881.22,453.53,882.02,453.58,883.68 M458.98,887.46v-2.4c0-7.69-4.22-13.02-11.48-13.02
				c-6.94,0-11.47,5.06-11.47,13.82c0,10.31,5.38,13.88,12.17,13.88c4.75,0,7.37-1.44,10.14-4.21l-3.47-3.26
				c-1.92,1.92-3.52,2.78-6.56,2.78c-4.43,0-6.89-2.94-6.89-7.59H458.98z M430.26,891.15c0-4.8-2.99-7.21-8.06-7.64l-4.27-0.37
				c-2.88-0.27-3.74-1.49-3.74-3.1c0-2.03,1.65-3.47,4.91-3.47c2.56,0,4.96,0.53,6.67,1.98l3.42-3.47
				c-2.51-2.19-5.98-3.03-10.04-3.03c-5.66,0-10.19,2.98-10.19,8.27c0,4.75,2.93,7.05,8.01,7.48l4.32,0.37
				c2.62,0.21,3.63,1.39,3.63,3.2c0,2.57-2.61,3.74-5.92,3.74c-2.67,0-5.61-0.59-7.79-2.83l-3.58,3.58
				c3.2,3.14,6.94,3.89,11.37,3.89C425.45,899.74,430.26,896.81,430.26,891.15 M403.41,891.15c0-4.8-2.99-7.21-8.06-7.64l-4.27-0.37
				c-2.88-0.27-3.74-1.49-3.74-3.1c0-2.03,1.66-3.47,4.91-3.47c2.56,0,4.97,0.53,6.68,1.98l3.42-3.47
				c-2.51-2.19-5.98-3.03-10.04-3.03c-5.66,0-10.2,2.98-10.2,8.27c0,4.75,2.94,7.05,8.01,7.48l4.33,0.37
				c2.61,0.21,3.63,1.39,3.63,3.2c0,2.57-2.62,3.74-5.93,3.74c-2.67,0-5.6-0.59-7.79-2.83l-3.57,3.58c3.2,3.14,6.94,3.89,11.37,3.89
				C398.6,899.74,403.41,896.81,403.41,891.15 M369.03,889.65c0,1.92-0.37,3.2-1.17,4.01c-1.44,1.39-2.99,1.55-5.07,1.55
				c-3.42,0-4.97-1.39-4.97-3.85c0-2.46,1.66-3.9,4.86-3.9h6.36V889.65z M374.47,899.42v-18.09c0-6.14-3.73-9.28-11.15-9.28
				c-4.48,0-7.15,0.9-9.71,3.89l3.57,3.37c1.49-1.92,2.94-2.62,5.93-2.62c4.22,0,5.93,1.66,5.93,5.07v1.93h-7.15
				c-6.19,0-9.34,3.25-9.34,7.79c0,2.3,0.75,4.38,2.14,5.82c1.65,1.65,3.89,2.45,7.25,2.45c3.37,0,5.24-0.8,7.21-2.77v2.45H374.47z
				 M348.05,899.42v-4.64h-2.4c-2.19,0-2.93-1.07-2.93-3.15v-30.21h-5.44v30.53c0,4,2.24,7.47,7.41,7.47H348.05z M332.04,899.42
				l-13.62-23.11l12.33-14.89h-7.05l-15.54,19.11v-19.11h-5.75v38h5.75v-11.05l6.41-7.69l10.68,18.73H332.04z"/>
		</g>
	</g>
	<g>
		<polygon class="st4" points="19.1,871.61 35.16,871.61 27.13,860.98 		"/>
	</g>
	<g>
		<polygon class="st4" points="19.1,892.74 35.16,892.74 27.13,882.12 		"/>
	</g>
	<g>
		<polygon class="st4" points="19.1,913.88 35.16,913.88 27.13,903.25 		"/>
	</g>
	<g>
		<polygon class="st4" points="19.1,850.47 35.16,850.47 27.13,839.85 		"/>
	</g>
	<g>
		<polygon class="st4" points="19.1,756.13 35.16,756.13 27.13,745.51 		"/>
	</g>
	<g>
		<polygon class="st4" points="19.1,777.27 35.16,777.27 27.13,766.64 		"/>
	</g>
	<g>
		<polygon class="st4" points="19.1,798.4 35.16,798.4 27.13,787.78 		"/>
	</g>
	<g>
		<polygon class="st4" points="19.1,735 35.16,735 27.13,724.37 		"/>
	</g>
	<g>
		<polygon class="st4" points="19.1,636.45 35.16,636.45 27.13,625.82 		"/>
	</g>
	<g>
		<polygon class="st4" points="19.1,657.58 35.16,657.58 27.13,646.95 		"/>
	</g>
	<g>
		<polygon class="st4" points="19.1,678.72 35.16,678.72 27.13,668.09 		"/>
	</g>
	<g>
		<polygon class="st4" points="19.1,615.31 35.16,615.31 27.13,604.68 		"/>
	</g>
	<g>
		<polygon class="st4" points="19.1,518.16 35.16,518.16 27.13,507.54 		"/>
	</g>
	<g>
		<polygon class="st4" points="19.1,539.3 35.16,539.3 27.13,528.67 		"/>
	</g>
	<g>
		<polygon class="st4" points="19.1,560.43 35.16,560.43 27.13,549.81 		"/>
	</g>
	<g>
		<polygon class="st4" points="19.1,497.03 35.16,497.03 27.13,486.4 		"/>
	</g>
	<g>
		<polygon class="st4" points="19.1,402.69 35.16,402.69 27.13,392.07 		"/>
	</g>
	<g>
		<polygon class="st4" points="19.1,423.83 35.16,423.83 27.13,413.2 		"/>
	</g>
	<g>
		<polygon class="st4" points="19.1,444.96 35.16,444.96 27.13,434.34 		"/>
	</g>
	<g>
		<polygon class="st4" points="19.1,381.56 35.16,381.56 27.13,370.93 		"/>
	</g>
	<g>
		<polygon class="st4" points="19.1,285.81 35.16,285.81 27.13,275.19 		"/>
	</g>
	<g>
		<polygon class="st4" points="19.1,306.95 35.16,306.95 27.13,296.32 		"/>
	</g>
	<g>
		<polygon class="st4" points="19.1,328.08 35.16,328.08 27.13,317.46 		"/>
	</g>
	<g>
		<polygon class="st4" points="19.1,264.68 35.16,264.68 27.13,254.05 		"/>
	</g>
	<g>
		<polygon class="st4" points="19.1,178.94 35.16,178.94 27.13,168.31 		"/>
	</g>
	<g>
		<polygon class="st4" points="19.1,200.07 35.16,200.07 27.13,189.45 		"/>
	</g>
	<g>
		<polygon class="st4" points="19.1,221.21 35.16,221.21 27.13,210.58 		"/>
	</g>
	<g>
		<polygon class="st4" points="19.1,157.8 35.16,157.8 27.13,147.18 		"/>
	</g>
</g>
</svg>
