<?xml version="1.0" encoding="utf-8"?>
<!-- Generator: Adobe Illustrator 26.2.1, SVG Export Plug-In . SVG Version: 6.00 Build 0)  -->
<svg version="1.1" id="Ebene_1" xmlns="http://www.w3.org/2000/svg" xmlns:xlink="http://www.w3.org/1999/xlink" x="0px" y="0px"
	 viewBox="0 0 954.01 1000" style="enable-background:new 0 0 954.01 1000;" xml:space="preserve">
<style type="text/css">
	.st0{fill:#A2B9E1;}
	.st1{fill:#6796CF;}
	.st2{clip-path:url(#SVGID_00000069383310131974528390000015980622017746285710_);}
	.st3{fill:#2B2961;}
	.st4{fill:#FFFFFF;}
	.st5{clip-path:url(#SVGID_00000058568609914674682830000013225995659365236126_);}
	.st6{clip-path:url(#SVGID_00000181791964885096798980000017696851071042038203_);}
	.st7{clip-path:url(#SVGID_00000098929886622808605550000008419896994147156411_);}
	.st8{clip-path:url(#SVGID_00000172427858325369846710000006357922140726373012_);}
	.st9{clip-path:url(#SVGID_00000037666783679469465690000011872320672422171551_);}
	.st10{opacity:0.52;clip-path:url(#SVGID_00000075842221557779181690000018004873469273399185_);}
	.st11{clip-path:url(#SVGID_00000178897378243689565030000001192009090817222042_);}
	.st12{clip-path:url(#SVGID_00000150818038975004106140000003650724972763204519_);}
	.st13{clip-path:url(#SVGID_00000147188652791074613630000008733417752461629570_);}
	.st14{clip-path:url(#SVGID_00000153666053223430277030000011551322542151640760_);}
	.st15{clip-path:url(#SVGID_00000094575709395876725110000004126836719198752187_);}
	.st16{clip-path:url(#SVGID_00000103228788947985302840000004950888591479743143_);}
	.st17{clip-path:url(#SVGID_00000011744748922895174390000002803784684861336748_);}
	.st18{clip-path:url(#SVGID_00000123437002260105497760000003070266648754915204_);}
	.st19{clip-path:url(#SVGID_00000152227126070790681650000006474723873068405637_);}
	.st20{clip-path:url(#SVGID_00000182507940139516242510000000839430130800636062_);}
	.st21{clip-path:url(#SVGID_00000147194667187763238270000017560082172926295195_);}
	.st22{clip-path:url(#SVGID_00000069384184839622893180000011947787771873436815_);}
	.st23{fill:none;stroke:#2B2961;stroke-width:0.374;stroke-linejoin:round;stroke-miterlimit:10;}
	.st24{fill:none;stroke:#2B2961;stroke-width:0.4;stroke-miterlimit:10;}
	.st25{clip-path:url(#SVGID_00000044139014469935246780000001384496601517659264_);}
	.st26{clip-path:url(#SVGID_00000177485131403442971750000009866170123983266178_);}
	.st27{clip-path:url(#SVGID_00000182494407698900965860000012244797723003248784_);}
	.st28{clip-path:url(#SVGID_00000019671860069433608260000002091822752026145442_);}
	.st29{clip-path:url(#SVGID_00000124884412741229516410000007953338305508354438_);}
	.st30{clip-path:url(#SVGID_00000067945656571333651000000012675762001627624088_);}
	.st31{clip-path:url(#SVGID_00000171684563583831598550000002493559937493241776_);}
	.st32{clip-path:url(#SVGID_00000000913960503450149010000016452332963261795987_);}
	.st33{clip-path:url(#SVGID_00000037671736245321488090000005268946925449898659_);}
	.st34{clip-path:url(#SVGID_00000047021846796934855790000006636576947317782410_);}
	.st35{clip-path:url(#SVGID_00000008151005136194996290000005899173617742227379_);}
	.st36{clip-path:url(#SVGID_00000093880994754902726070000010869391824387658928_);}
	.st37{clip-path:url(#SVGID_00000171685402694555254350000015196573254065071000_);}
	.st38{clip-path:url(#SVGID_00000179607761419827544410000002266880324993524890_);}
	.st39{clip-path:url(#SVGID_00000165195891514085258230000016207908876519305862_);}
	.st40{clip-path:url(#SVGID_00000056404008062325608730000015361261955609378444_);}
	.st41{clip-path:url(#SVGID_00000178178259002214229790000007169276035018920105_);}
	.st42{clip-path:url(#SVGID_00000132779568466584952550000000135298583025010365_);}
	.st43{clip-path:url(#SVGID_00000089573302805627351610000001505516661934200990_);}
	.st44{clip-path:url(#SVGID_00000057119466430126929730000001062861551473634474_);}
	.st45{clip-path:url(#SVGID_00000138545256900318718150000008183566736155726469_);}
	.st46{clip-path:url(#SVGID_00000099620906722165462210000010051758827254747548_);}
	.st47{clip-path:url(#SVGID_00000087403627221359343190000016562595817030098328_);}
	.st48{clip-path:url(#SVGID_00000030486120866718138610000013673714614887863426_);}
	.st49{clip-path:url(#SVGID_00000099623670329136824580000009715609274836480940_);}
	.st50{clip-path:url(#SVGID_00000141439318389615437940000015398220393184038841_);}
	.st51{clip-path:url(#SVGID_00000137125191887830430480000013861871113222765984_);}
	.st52{clip-path:url(#SVGID_00000159459245194108822730000015439589498898143892_);}
	.st53{clip-path:url(#SVGID_00000001660379124569797330000013112806023621884339_);}
	.st54{clip-path:url(#SVGID_00000093137105914044922160000006453588542808223115_);}
	.st55{clip-path:url(#SVGID_00000120554828070881726720000009686342165415099038_);}
	.st56{clip-path:url(#SVGID_00000107566033900635227240000000206411321784593558_);}
	.st57{clip-path:url(#SVGID_00000014609027247471569630000014677572952426614914_);}
	.st58{clip-path:url(#SVGID_00000023999051346698873370000007759273553601482681_);}
	.st59{clip-path:url(#SVGID_00000075861622270462184740000009742071072095679628_);}
	.st60{clip-path:url(#SVGID_00000078038647365681443690000001912574685300463518_);}
	.st61{clip-path:url(#SVGID_00000173873715212780194040000016227694268402057641_);}
	.st62{fill:#9AB4DE;}
	.st63{clip-path:url(#SVGID_00000176009781183297230570000006639284785832975248_);}
	.st64{clip-path:url(#SVGID_00000062154679363461602170000005551243017541879461_);}
	.st65{clip-path:url(#SVGID_00000116214617358506815640000004118095582568082597_);}
	.st66{fill:#B9C9E9;}
	.st67{clip-path:url(#SVGID_00000035512316113603507110000013266390186715695546_);}
	.st68{clip-path:url(#SVGID_00000060749872346471734400000006798139504012838054_);}
	.st69{clip-path:url(#SVGID_00000107587735233580530460000004374066211262312098_);}
	.st70{clip-path:url(#SVGID_00000140003763063381019510000017935920215690188956_);}
	.st71{clip-path:url(#SVGID_00000121994659986773308260000006803875080872075917_);}
	.st72{clip-path:url(#SVGID_00000023976470532278501310000016888201223861258908_);}
	.st73{clip-path:url(#SVGID_00000084495085928580565040000003884642361216118148_);}
	.st74{clip-path:url(#SVGID_00000043432503068194703000000005334410073076200578_);}
	.st75{clip-path:url(#SVGID_00000140709837624914297650000006275623227167127727_);}
	.st76{clip-path:url(#SVGID_00000124843301312385051830000004259191158905892767_);}
	.st77{clip-path:url(#SVGID_00000026854358924935200970000003886404670369284771_);}
	.st78{clip-path:url(#SVGID_00000094603819838972285660000009692399550817937551_);}
	.st79{clip-path:url(#SVGID_00000129168682117634291340000001385043581269568150_);}
	.st80{clip-path:url(#SVGID_00000073680263390985862030000000374075896092258984_);}
	.st81{clip-path:url(#SVGID_00000149381338636458997260000016554680118377125037_);}
	.st82{clip-path:url(#SVGID_00000082370829898858423160000016712239477405214108_);}
	.st83{clip-path:url(#SVGID_00000039100732116185939870000000934789030908439196_);}
	.st84{clip-path:url(#SVGID_00000093856196376484460960000000951937174101669769_);}
	.st85{clip-path:url(#SVGID_00000111911751654694760050000001079644326263776654_);}
	.st86{clip-path:url(#SVGID_00000039135402602406186420000009765474308893271726_);}
	.st87{clip-path:url(#SVGID_00000127042178741230776980000004978137974974828179_);}
	.st88{clip-path:url(#SVGID_00000039845445736565803930000009073550313524026511_);}
	.st89{clip-path:url(#SVGID_00000172402890054790733170000006764748776133332121_);}
	.st90{clip-path:url(#SVGID_00000106121997101395795610000003295065236687553922_);}
	.st91{clip-path:url(#SVGID_00000150802070198844364940000017034192465775268262_);}
	.st92{clip-path:url(#SVGID_00000183967956409711588310000001841585341711465863_);}
	.st93{clip-path:url(#SVGID_00000034803110250270893940000008600021079110818460_);}
	.st94{clip-path:url(#SVGID_00000085930810686072431960000015887572949610108812_);}
	.st95{clip-path:url(#SVGID_00000181060914790420182860000002182122337547163293_);}
	.st96{clip-path:url(#SVGID_00000068671109243648698340000011562920631322187192_);}
	.st97{clip-path:url(#SVGID_00000109714874437569710190000004509747705210608530_);}
	.st98{clip-path:url(#SVGID_00000172407122017741545600000010457983594184155023_);}
	.st99{clip-path:url(#SVGID_00000023989071160745631930000004033292950980068785_);}
	.st100{clip-path:url(#SVGID_00000080179033960766778300000016785661804954487680_);}
	.st101{clip-path:url(#SVGID_00000113331180248623374860000001445744661684903600_);}
	.st102{clip-path:url(#SVGID_00000052800232782959057480000006166626355186157481_);}
	.st103{clip-path:url(#SVGID_00000130636391015807158760000004547393639515650962_);}
	.st104{clip-path:url(#SVGID_00000170994072029046230100000006559540440051583662_);}
	.st105{clip-path:url(#SVGID_00000132793175939473554840000013219014820500960169_);}
	.st106{clip-path:url(#SVGID_00000070820063565034335740000014962555470917689995_);}
	.st107{clip-path:url(#SVGID_00000096029413487711022120000018333317754180698260_);}
	.st108{clip-path:url(#SVGID_00000042706336433944258490000018125117316311823513_);}
	.st109{clip-path:url(#SVGID_00000150817062567275920940000001385842023013395135_);}
	.st110{clip-path:url(#SVGID_00000049180671118737322520000012416766003845676683_);}
	.st111{clip-path:url(#SVGID_00000171711140011221548690000012781734133397239458_);}
	.st112{clip-path:url(#SVGID_00000023244114045382991960000005187853078563179686_);}
	.st113{clip-path:url(#SVGID_00000024699961729051523960000006230801370602819992_);}
	.st114{clip-path:url(#SVGID_00000018224699418821167830000016875340778238972327_);}
	.st115{clip-path:url(#SVGID_00000118361937868354074350000006265184699803019668_);}
	.st116{clip-path:url(#SVGID_00000165950727520422326110000002604236923843203484_);}
	.st117{clip-path:url(#SVGID_00000154418034713641516290000008575007816576405152_);}
	.st118{clip-path:url(#SVGID_00000052818584686557956460000001350572305278965644_);}
	.st119{clip-path:url(#SVGID_00000009579671519777942950000006172416494914024842_);}
	.st120{clip-path:url(#SVGID_00000170273369510541481110000005167537398022345917_);}
	.st121{clip-path:url(#SVGID_00000156572436005166666120000012627879896764892068_);}
	.st122{clip-path:url(#SVGID_00000176749342768605726780000012703102370727574174_);}
	.st123{clip-path:url(#SVGID_00000027563863723560562660000006233690833455071392_);}
	.st124{clip-path:url(#SVGID_00000140698943001737090510000012335878041569576845_);}
	.st125{clip-path:url(#SVGID_00000101090408611170035420000003221223645718967974_);}
	.st126{clip-path:url(#SVGID_00000161622922857639003260000012805652264095230905_);}
	.st127{clip-path:url(#SVGID_00000060739734265669707930000014163712317078321587_);}
	.st128{clip-path:url(#SVGID_00000171715743844493409080000001085858492984617874_);}
	.st129{clip-path:url(#SVGID_00000005261671843247253450000017369745805197073309_);}
	.st130{clip-path:url(#SVGID_00000025437737907983431040000010323885452121110191_);}
	.st131{clip-path:url(#SVGID_00000052073249662988694580000017479661469838805409_);}
	.st132{clip-path:url(#SVGID_00000177454233760695243090000003043829174536814761_);}
	.st133{clip-path:url(#SVGID_00000026138360066330150970000013175717721917087141_);}
	.st134{clip-path:url(#SVGID_00000125596551013715009410000000688545964507499689_);}
	.st135{clip-path:url(#SVGID_00000039830852498015783210000001316607366274075791_);}
	.st136{clip-path:url(#SVGID_00000115495586737361534610000003339995055231238033_);}
	.st137{clip-path:url(#SVGID_00000094593722450181488500000016915795725276820628_);}
	.st138{clip-path:url(#SVGID_00000082342539330768056520000012927426705032874644_);}
	.st139{clip-path:url(#SVGID_00000045584259396326884970000006835516762620783510_);}
	.st140{clip-path:url(#SVGID_00000083055017240552461860000017316343475029293243_);}
	.st141{clip-path:url(#SVGID_00000026849712795740818110000006629018929349181834_);}
	.st142{clip-path:url(#SVGID_00000175321455861565423630000017982196257357717914_);}
	.st143{clip-path:url(#SVGID_00000023966606956611631820000002880749020595417496_);}
	.st144{clip-path:url(#SVGID_00000080886921861053191440000012562709495749575822_);}
	.st145{clip-path:url(#SVGID_00000064353019852408624450000009803323589499487420_);}
	.st146{clip-path:url(#SVGID_00000049910950885939495220000011256126838309676975_);}
	.st147{clip-path:url(#SVGID_00000061454845430911697370000016427461688735975098_);}
	.st148{clip-path:url(#SVGID_00000151511719151605685310000005291570096644051618_);}
	.st149{clip-path:url(#SVGID_00000103977814162952648880000005253293960404672678_);}
	.st150{clip-path:url(#SVGID_00000160892825804414731140000012064258911689405369_);}
	.st151{clip-path:url(#SVGID_00000103979539561378307220000002819584160824404138_);}
	.st152{clip-path:url(#SVGID_00000142885223215126334640000000707883429349412787_);}
	.st153{clip-path:url(#SVGID_00000081634409534053903420000004522157395536423846_);}
	.st154{clip-path:url(#SVGID_00000112600613428614179800000000238573148028281236_);}
	.st155{clip-path:url(#SVGID_00000083805348919111014440000016709601530449128356_);}
	.st156{clip-path:url(#SVGID_00000001639294989793591160000007534781647328861327_);}
	.st157{clip-path:url(#SVGID_00000101078332142842395390000018023577748311665068_);}
	.st158{clip-path:url(#SVGID_00000109749545569239445920000003365882704865794471_);}
	.st159{clip-path:url(#SVGID_00000045599238726206357390000006757721219607364285_);}
	.st160{clip-path:url(#SVGID_00000054227338315502809010000013493352748822741918_);}
	.st161{clip-path:url(#SVGID_00000106863136835073052740000014643318317300199609_);}
	.st162{clip-path:url(#SVGID_00000024710954047010484890000005589809584109845689_);}
	.st163{clip-path:url(#SVGID_00000063630185472098041680000001129348817169190587_);}
	.st164{clip-path:url(#SVGID_00000098215548277760857060000009151548555076630461_);}
	.st165{clip-path:url(#SVGID_00000103951495603151316690000009031237826366239422_);}
	.st166{clip-path:url(#SVGID_00000151518605318117122900000004595029501650567075_);}
	.st167{clip-path:url(#SVGID_00000015346973493299125140000000903454289099681158_);}
	.st168{clip-path:url(#SVGID_00000054961135280148587840000013197470834650406567_);}
	.st169{clip-path:url(#SVGID_00000139267091235083350270000015882046571069026493_);}
	.st170{clip-path:url(#SVGID_00000099645785865871728890000007350007357976097207_);}
	.st171{clip-path:url(#SVGID_00000052803258527252658620000002118004085950302602_);}
	.st172{clip-path:url(#SVGID_00000147221135615019351310000014595299352995689126_);}
	.st173{clip-path:url(#SVGID_00000098188877111758543560000009641167548626053544_);}
	.st174{clip-path:url(#SVGID_00000078735999587521492360000007469173684056888715_);}
	.st175{clip-path:url(#SVGID_00000169531768412739388320000012437983760962631298_);}
	.st176{clip-path:url(#SVGID_00000034796886347082560100000006847523155609530804_);}
	.st177{clip-path:url(#SVGID_00000080899595350732971080000010514078311939463861_);}
	.st178{clip-path:url(#SVGID_00000171696387504777378630000004056981108735699332_);}
	.st179{clip-path:url(#SVGID_00000076575711136907110480000013437503760628901560_);}
	.st180{clip-path:url(#SVGID_00000174576494092190247920000013848647726493636776_);}
	.st181{clip-path:url(#SVGID_00000024695669236613665350000017416073955184813484_);}
	.st182{clip-path:url(#SVGID_00000036948088832418181240000005722961125935671726_);}
	.st183{clip-path:url(#SVGID_00000106858632653990393890000008518939705802398622_);}
	.st184{clip-path:url(#SVGID_00000134209531302268265030000011680021223374892727_);}
	.st185{clip-path:url(#SVGID_00000116919448395847511490000013987749958677720964_);}
	.st186{clip-path:url(#SVGID_00000058575242961165473560000011478765198145233040_);}
	.st187{clip-path:url(#SVGID_00000077317998127133091200000009151741376508750776_);}
	.st188{clip-path:url(#SVGID_00000041985364278104248790000013901404021683174056_);}
	.st189{clip-path:url(#SVGID_00000086660380150301186970000004586478578397237410_);}
	.st190{clip-path:url(#SVGID_00000006668130472909667870000000870876789084985013_);}
	.st191{clip-path:url(#SVGID_00000118397122865002052600000017356331137028714902_);}
	.st192{clip-path:url(#SVGID_00000105412046064526641630000008783787721075936905_);}
	.st193{clip-path:url(#SVGID_00000144322722254383239120000015811792876817162889_);}
	.st194{clip-path:url(#SVGID_00000065034250382290309670000014728501777335675777_);}
	.st195{clip-path:url(#SVGID_00000072255665883029197710000012913226744305053596_);}
	.st196{clip-path:url(#SVGID_00000047738858612708244180000001448259115558980995_);}
	.st197{clip-path:url(#SVGID_00000116947672273921713510000015010590650780637325_);}
	.st198{clip-path:url(#SVGID_00000096031084961764010960000008625849740871857561_);}
	.st199{clip-path:url(#SVGID_00000162342547299667031080000001855032219837695107_);}
	.st200{clip-path:url(#SVGID_00000026854879584852408670000000558242077316338562_);}
	.st201{clip-path:url(#SVGID_00000088123815742596113460000003381255909664057491_);}
	.st202{clip-path:url(#SVGID_00000057107181273057544660000013008637770462002592_);}
	.st203{clip-path:url(#SVGID_00000011738812560099996440000016376859772925356702_);}
	.st204{clip-path:url(#SVGID_00000070089106713206536710000002753848011325223594_);}
	.st205{clip-path:url(#SVGID_00000079472996383926868000000018407605158397287576_);}
	.st206{clip-path:url(#SVGID_00000145037014115469940430000012454354267529371327_);}
	.st207{clip-path:url(#SVGID_00000083083797246601281090000005172504062927127973_);}
	.st208{clip-path:url(#SVGID_00000062152975086892368730000014990891628102903189_);}
	.st209{clip-path:url(#SVGID_00000057858620652775649600000012803166083726329218_);}
	.st210{clip-path:url(#SVGID_00000060725096099481823850000010131703324115996040_);}
	.st211{clip-path:url(#SVGID_00000133496170724353143050000005072412519490333089_);}
	.st212{clip-path:url(#SVGID_00000087407571471821488470000008458417172183227026_);}
	.st213{clip-path:url(#SVGID_00000119083262375804105050000015735539769078415785_);}
	.st214{clip-path:url(#SVGID_00000054945133005533100900000005969981797358265019_);}
	.st215{clip-path:url(#SVGID_00000036242645668446033180000001880191624280053164_);}
	.st216{clip-path:url(#SVGID_00000141455629021469520700000000887849008897274794_);}
	.st217{clip-path:url(#SVGID_00000053546851983124755340000014861849046356322193_);}
	.st218{clip-path:url(#SVGID_00000089549419740446063880000012926993029781897632_);}
	.st219{clip-path:url(#SVGID_00000093889141204281276350000015896004239535032974_);}
	.st220{clip-path:url(#SVGID_00000142141372573213254720000010729833969289480637_);}
	.st221{clip-path:url(#SVGID_00000183953362434797541790000003646610372093917112_);}
	.st222{clip-path:url(#SVGID_00000112625449154302958420000004628186823316005779_);}
	.st223{clip-path:url(#SVGID_00000163048148966930997540000012634025250167585972_);}
	.st224{clip-path:url(#SVGID_00000034072425816142771670000004071041050694576522_);}
	.st225{clip-path:url(#SVGID_00000043450588531031775840000001405810298133084845_);}
	.st226{clip-path:url(#SVGID_00000162320177487285082380000012491005803477357466_);}
	.st227{clip-path:url(#SVGID_00000103962867116770446560000016304134688179692958_);}
	.st228{clip-path:url(#SVGID_00000078749574684435176520000009495496406800810923_);}
	.st229{clip-path:url(#SVGID_00000155109146331827334410000016850040979033100931_);}
	.st230{clip-path:url(#SVGID_00000048459654053855015970000001410537386531968412_);}
	.st231{clip-path:url(#SVGID_00000023250583445500275340000004146724179489151663_);}
	.st232{clip-path:url(#SVGID_00000044155142864953121880000000319604374930746796_);}
	.st233{clip-path:url(#SVGID_00000037686170367356010660000013680535243460630964_);}
	.st234{clip-path:url(#SVGID_00000065069535446029836510000012994409825152463003_);}
	.st235{clip-path:url(#SVGID_00000031172989806344425950000013971729124257607070_);}
	.st236{clip-path:url(#SVGID_00000148637356554383062060000004914724728033136001_);}
	.st237{clip-path:url(#SVGID_00000021079761056150942280000004094348605609383357_);}
	.st238{clip-path:url(#SVGID_00000047047144885563758420000009082920570344924318_);}
	.st239{clip-path:url(#SVGID_00000089574804773378158600000000870525020154823079_);}
	.st240{clip-path:url(#SVGID_00000022548337126170193050000014750086130520097451_);}
	.st241{clip-path:url(#SVGID_00000138532688972853113850000017876684181263312530_);}
	.st242{clip-path:url(#SVGID_00000061459269685186887520000016832619803611525017_);}
	.st243{clip-path:url(#SVGID_00000109711091368102937650000000317804205969663649_);}
	.st244{clip-path:url(#SVGID_00000004509187626129960890000018245078976111967161_);}
	.st245{clip-path:url(#SVGID_00000150072723106731849790000003800862554570285496_);}
	.st246{clip-path:url(#SVGID_00000056422959454923308990000011388229836118307217_);}
	.st247{clip-path:url(#SVGID_00000124162569286762985380000010997046178921735055_);}
	.st248{clip-path:url(#SVGID_00000047044399062021160320000018001115054597984687_);}
	.st249{clip-path:url(#SVGID_00000013880194121852756830000009596003199023045046_);}
	.st250{clip-path:url(#SVGID_00000136407949939290223860000012338736108864373422_);}
	.st251{clip-path:url(#SVGID_00000142855771617820248800000009330862353907803016_);}
	.st252{clip-path:url(#SVGID_00000045593316078900308700000005198830218613586099_);}
	.st253{clip-path:url(#SVGID_00000129175890193698315650000012825167565346421149_);}
	.st254{clip-path:url(#SVGID_00000097490409952443957060000003790151167945318542_);}
	.st255{clip-path:url(#SVGID_00000158008970227548828130000014483368779465443716_);}
	.st256{clip-path:url(#SVGID_00000067198904585755177100000012794524537853873820_);}
	.st257{clip-path:url(#SVGID_00000125587767494354218080000002350549381577157770_);}
	.st258{clip-path:url(#SVGID_00000044163241301660134030000012316464975832259971_);}
	.st259{clip-path:url(#SVGID_00000142891866379567417670000011313848058193835414_);}
	.st260{clip-path:url(#SVGID_00000086670038813450754260000013933887050455529130_);}
	.st261{clip-path:url(#SVGID_00000062161707555894087780000012567701294833523353_);}
	.st262{clip-path:url(#SVGID_00000072995829379533988960000006811164609616315303_);}
	.st263{clip-path:url(#SVGID_00000070076767249761514110000005998715899335869069_);}
	.st264{clip-path:url(#SVGID_00000005986746785723255630000017510269768220372889_);}
	.st265{clip-path:url(#SVGID_00000098941372262669939340000009372395622021198513_);}
	.st266{clip-path:url(#SVGID_00000028315253417050750200000012698063647756018850_);}
	.st267{clip-path:url(#SVGID_00000069389016058213294090000002368086962519304618_);}
	.st268{clip-path:url(#SVGID_00000064354273656196295260000011640739218820725942_);}
	.st269{clip-path:url(#SVGID_00000154403160206341611410000013076569277405313428_);}
	.st270{clip-path:url(#SVGID_00000151529786499193265430000007922075537429528502_);}
	.st271{clip-path:url(#SVGID_00000026162994726611298200000004737638177263088818_);}
	.st272{clip-path:url(#SVGID_00000015318098629885614160000002381152868465526690_);}
	.st273{clip-path:url(#SVGID_00000026162307867602711430000017955133318228820923_);}
	.st274{clip-path:url(#SVGID_00000022520720111807428150000001607927485107140538_);}
	.st275{clip-path:url(#SVGID_00000057849548701367607790000016084438404761832352_);}
	.st276{clip-path:url(#SVGID_00000045588126588414909560000017885048182400590251_);}
	.st277{clip-path:url(#SVGID_00000023255791767896501170000003866109986212788893_);}
	.st278{clip-path:url(#SVGID_00000013154835874123818140000010143722907490898877_);}
	.st279{clip-path:url(#SVGID_00000031927905361475539010000007602103085229893554_);}
	.st280{clip-path:url(#SVGID_00000088838619719785917450000018307725174579455878_);}
	.st281{clip-path:url(#SVGID_00000049927381262058476460000016077549975011711415_);}
	.st282{clip-path:url(#SVGID_00000006705352237964512880000002405436555482493838_);}
	.st283{clip-path:url(#SVGID_00000111152780961281363120000002126754952323361447_);}
	.st284{clip-path:url(#SVGID_00000127753427118995085990000012169910228739694258_);}
	.st285{clip-path:url(#SVGID_00000176762041491573845310000003302589317278278310_);}
	.st286{clip-path:url(#SVGID_00000160165574053259840720000013149208471188205972_);}
	.st287{clip-path:url(#SVGID_00000002347585298349810110000009631065725492457651_);}
	.st288{clip-path:url(#SVGID_00000034047301952116800890000005993713541301786515_);}
	.st289{clip-path:url(#SVGID_00000137101800383626472550000001870052896343511429_);}
	.st290{clip-path:url(#SVGID_00000032607991600444825170000006805548636612210110_);}
	.st291{clip-path:url(#SVGID_00000034793600312028348840000018069916306910984838_);}
	.st292{clip-path:url(#SVGID_00000029742845449169548060000013250122578580146824_);}
	.st293{clip-path:url(#SVGID_00000066507288896715294660000013596315685056287396_);}
	.st294{clip-path:url(#SVGID_00000130637242113467229830000008241111618355922080_);}
	.st295{clip-path:url(#SVGID_00000123403330410360519440000012637968582861212569_);}
	.st296{clip-path:url(#SVGID_00000018226189086166621280000003267732376650182815_);}
	.st297{clip-path:url(#SVGID_00000178169535482846797800000006309073784154719878_);}
	.st298{clip-path:url(#SVGID_00000150791370598422532620000016808594825040973972_);}
	.st299{clip-path:url(#SVGID_00000113354916773753520790000005949561216024851600_);}
	.st300{clip-path:url(#SVGID_00000129184193169693695380000013208489456758184106_);}
	.st301{clip-path:url(#SVGID_00000076561891731559478150000014391325080579787172_);}
	.st302{clip-path:url(#SVGID_00000176729620063852861210000017837174921019491984_);}
	.st303{clip-path:url(#SVGID_00000049189964382402680530000013070855694600292019_);}
	.st304{clip-path:url(#SVGID_00000033340834343886036120000004253916054928458888_);}
	.st305{clip-path:url(#SVGID_00000121971569289061608410000017922073011044792764_);}
	.st306{clip-path:url(#SVGID_00000129919513078451864060000012804315914152542394_);}
	.st307{clip-path:url(#SVGID_00000172426917238366327730000011108900696665082036_);}
	.st308{clip-path:url(#SVGID_00000081636268363624796950000016724980529100401841_);}
	.st309{clip-path:url(#SVGID_00000065055277314589495510000015926303605851913901_);}
	.st310{clip-path:url(#SVGID_00000121258201441025580930000016499486203520947373_);}
	.st311{clip-path:url(#SVGID_00000135686461904443867480000012538552980779911047_);}
	.st312{clip-path:url(#SVGID_00000061469765874897069540000009225296765405082754_);}
	.st313{clip-path:url(#SVGID_00000144311474078252395930000000574510977192252814_);}
	.st314{clip-path:url(#SVGID_00000078007692732507897880000015456508071109617316_);}
	.st315{clip-path:url(#SVGID_00000181055827089718446400000005358555603863620788_);}
	.st316{clip-path:url(#SVGID_00000123421713523795312010000003854087704243911059_);}
	.st317{clip-path:url(#SVGID_00000094592395763192870530000013236237955969305478_);}
	.st318{clip-path:url(#SVGID_00000038397501389652866780000013823560622929797779_);}
	.st319{clip-path:url(#SVGID_00000101101471067747979830000015298140541281284751_);}
	.st320{clip-path:url(#SVGID_00000017503732041271693530000010284428478827475113_);}
	.st321{clip-path:url(#SVGID_00000111160219156586374350000013073157894999320717_);}
	.st322{clip-path:url(#SVGID_00000151504045811553669660000010483567874323938436_);}
	.st323{clip-path:url(#SVGID_00000103957222368500427230000005078673310133707179_);}
	.st324{clip-path:url(#SVGID_00000063623949429250119330000009738343227585032333_);}
	.st325{clip-path:url(#SVGID_00000055689343991266192630000014768403751427015612_);}
	.st326{clip-path:url(#SVGID_00000123410033137970329810000003795675991897286810_);}
	.st327{clip-path:url(#SVGID_00000084499289069847360810000001802259003501519036_);}
	.st328{clip-path:url(#SVGID_00000140714703681310865790000003529984265000937369_);}
	.st329{clip-path:url(#SVGID_00000027575281313143017250000001996022090078347174_);}
	.st330{clip-path:url(#SVGID_00000030472456944722772830000012961313177731127717_);}
	.st331{clip-path:url(#SVGID_00000159468808289710658580000012006568874901916559_);}
	.st332{clip-path:url(#SVGID_00000158025671870858402330000005544901370123873670_);}
	.st333{clip-path:url(#SVGID_00000076596219846105902980000005176836340073835942_);}
	.st334{clip-path:url(#SVGID_00000115506689892811015520000015529502310118861727_);}
	.st335{clip-path:url(#SVGID_00000154395124172584037330000013496061425744763267_);}
	.st336{clip-path:url(#SVGID_00000124151001846099280060000007812418799056947848_);}
	.st337{clip-path:url(#SVGID_00000118369028275453314970000003900995098296554635_);}
	.st338{clip-path:url(#SVGID_00000118394967540447438490000016877492587684270013_);}
	.st339{clip-path:url(#SVGID_00000113332210290461898660000012228731267915752852_);}
	.st340{clip-path:url(#SVGID_00000016052365287701885220000007423623591940413325_);}
	.st341{clip-path:url(#SVGID_00000096032960040717007550000007301816549484234379_);}
	.st342{clip-path:url(#SVGID_00000013871852782310710270000017098892494061299340_);}
	.st343{clip-path:url(#SVGID_00000092422234157437916860000007864539032835131325_);}
	.st344{clip-path:url(#SVGID_00000044177792195773045180000004592874020664266928_);}
	.st345{clip-path:url(#SVGID_00000029730647887354284060000002669116816452822677_);}
	.st346{clip-path:url(#SVGID_00000015316194874800808890000012379704507413620128_);}
	.st347{clip-path:url(#SVGID_00000031914584740236947560000001579208524394147007_);}
	.st348{clip-path:url(#SVGID_00000052070685599016033850000009518373105615971744_);}
	.st349{clip-path:url(#SVGID_00000151510138199673034290000002680345394344977318_);}
	.st350{clip-path:url(#SVGID_00000132773667239870144310000013844391851019639476_);}
	.st351{clip-path:url(#SVGID_00000003088078349962900140000003261897524270665397_);}
	.st352{clip-path:url(#SVGID_00000052105565221229174200000010883272484780509072_);}
	.st353{clip-path:url(#SVGID_00000078752529204349746140000005169030376128657086_);}
	.st354{clip-path:url(#SVGID_00000175301811587591579330000004001518698574989959_);}
	.st355{clip-path:url(#SVGID_00000150796395832188786580000005816317865703828655_);}
	.st356{clip-path:url(#SVGID_00000053518957778265697370000010718109288803577229_);}
	.st357{clip-path:url(#SVGID_00000157295480328109082510000004566381327658038409_);}
	.st358{clip-path:url(#SVGID_00000070111379419284787440000012089063079232065678_);}
	.st359{clip-path:url(#SVGID_00000068657650435624761160000005089107696046689181_);}
	.st360{clip-path:url(#SVGID_00000072273490281225132210000018029176637117523586_);}
	.st361{clip-path:url(#SVGID_00000059301111393274412210000006070633857973881495_);}
	.st362{clip-path:url(#SVGID_00000057862237115107977100000004698974851761689216_);}
	.st363{clip-path:url(#SVGID_00000168802315945918207000000014127982809787449992_);}
	.st364{clip-path:url(#SVGID_00000023972659849281351570000010808585872381728410_);}
	.st365{clip-path:url(#SVGID_00000102539059967494665650000014886449121890048913_);}
	.st366{clip-path:url(#SVGID_00000145748628815267657780000004444017046333172404_);}
	.st367{clip-path:url(#SVGID_00000174575930957843173420000000782283803147244957_);}
	.st368{clip-path:url(#SVGID_00000109725519580507003470000001501208572297384867_);}
	.st369{clip-path:url(#SVGID_00000164510334323009359190000015456288369921833140_);}
	.st370{clip-path:url(#SVGID_00000093889670246353562000000005781110691145050530_);}
	.st371{clip-path:url(#SVGID_00000065035544761463372550000010626791359432121278_);}
	.st372{clip-path:url(#SVGID_00000168815566446407382980000012994280719561326208_);}
	.st373{clip-path:url(#SVGID_00000050645426721515841770000004516469470821183669_);}
	.st374{clip-path:url(#SVGID_00000080886205903453339080000002236639962999719613_);}
	.st375{clip-path:url(#SVGID_00000016045750786564667550000005523092889104118175_);}
</style>
<g>
	<g>
		<rect x="4.29" y="111.63" class="st0" width="46.36" height="884.07"/>
	</g>
	<g>
		<rect x="4" class="st1" width="948.1" height="119.22"/>
	</g>
	<g>
		<defs>
			<rect id="SVGID_00000089548559686959115090000001610070934525716116_" x="0" y="0.01" width="954.01" height="999.99"/>
		</defs>
		<clipPath id="SVGID_00000061438871118115028990000010909042657251763104_">
			<use xlink:href="#SVGID_00000089548559686959115090000001610070934525716116_"  style="overflow:visible;"/>
		</clipPath>
		<g style="clip-path:url(#SVGID_00000061438871118115028990000010909042657251763104_);">
			<path class="st3" d="M952.4,1000H1.61c-0.89,0-1.61-0.72-1.61-1.61V1.62c0-0.89,0.72-1.61,1.61-1.61H952.4
				c0.89,0,1.61,0.72,1.61,1.61v996.77C954.01,999.28,953.29,1000,952.4,1000z M3.22,996.78h947.57V3.23H3.22V996.78z"/>
		</g>
		<g style="clip-path:url(#SVGID_00000061438871118115028990000010909042657251763104_);">
			<path class="st4" d="M859.31,69.89V39.48c0-3.07-0.21-6.21-1.81-9c-1.6-2.72-3.84-4.88-6.13-7.18l-6.14,6.13
				c1.67,1.67,2.72,2.58,3.91,4.6c0.7,1.26,1.05,3.21,1.05,5.86v29.58c0,2.65-0.35,4.6-1.05,5.86c-1.19,2.02-2.23,2.93-3.91,4.6
				l6.14,6.14c2.3-2.3,4.53-4.47,6.13-7.19C859.1,76.1,859.31,72.96,859.31,69.89 M839.99,46.17c-2.51-2.51-5.02-3.41-8.58-3.41
				c-3.91,0-7.4,1.81-9.14,3.9v-3.48h-8.85v36.34h9.06V57.61c0-4.6,3.07-6.7,5.86-6.7c2.23,0,3.42,0.77,4.81,2.16L839.99,46.17z
				 M801.83,79.52V43.18h-9.06v21.98c0,4.95-3.21,6.63-6.08,6.63c-2.86,0-6.01-1.67-6.01-6.63V43.18h-9.06v23.23
				c0,3.98,0.77,7.39,3.69,10.32c2.02,2.02,4.95,3.2,8.58,3.2c3.35,0,6.7-1.26,9.08-3.76v3.34H801.83z M762.41,79.52v-7.66h-3.28
				c-2.16,0-3.14-1.19-3.14-3.28V51.12h6.42v-6.9h-6.42V33.48h-9.06v10.74h-3.84v6.9h3.84v18.01c0,5.16,3.14,10.39,10.53,10.39
				H762.41z M734.65,29.57h-9.27v7.38h9.27V29.57z M734.58,43.18h-9.06v36.34h9.06V43.18z M706.4,61.31c0,5.93-0.7,10.47-6.14,10.47
				c-5.44,0-6.14-4.54-6.14-10.47c0-5.94,0.7-10.4,6.14-10.4C705.7,50.91,706.4,55.38,706.4,61.31 M715.46,61.31
				c0-5.45-0.07-11.66-3.7-15.28c-2.02-2.02-5.3-3.27-8.85-3.27c-3.7,0-6.42,0.97-8.8,3.62V29.85h-9.06v49.66h8.79V76.1
				c2.51,2.79,5.23,3.83,9.08,3.83c3.56,0,6.84-1.26,8.85-3.27C715.39,73.03,715.46,66.75,715.46,61.31 M662.58,62.57h-12.35
				l6.28-18.07L662.58,62.57z M678.21,79.52l-18.14-49.66h-7.6L634.4,79.52h10.12l3-8.79h17.65l2.93,8.79H678.21z M628.81,80
				c-1.67-1.67-2.72-2.65-3.91-4.67c-0.7-1.26-1.05-3.21-1.05-5.86V39.89c0-2.65,0.35-4.6,1.05-5.86c1.19-2.02,2.23-3,3.91-4.67
				l-6.07-6.06c-2.3,2.3-4.53,4.46-6.13,7.18c-1.6,2.79-1.81,5.93-1.81,9v30.41c0,3.07,0.21,6.21,1.81,9
				c1.6,2.72,3.83,4.88,6.13,7.19L628.81,80z M578.02,57.97h-13.81c0.07-1.61,0.28-2.59,0.84-3.91c0.98-2.17,3-3.77,6.07-3.77
				c3.07,0,5.09,1.6,6.07,3.77C577.74,55.38,577.95,56.36,578.02,57.97 M586.95,64.17v-4.04c0-9.98-5.72-17.37-15.84-17.37
				c-9.41,0-15.83,6.69-15.83,18.55c0,14.72,8.22,18.62,16.8,18.62c6.56,0,10.12-2.02,13.81-5.72l-5.51-5.37
				c-2.3,2.3-4.26,3.42-8.23,3.42c-5.09,0-7.95-3.42-7.95-8.1H586.95z M549.83,51.12v-6.9h-6.7v-3.98c0-2.1,0.98-3.28,3.14-3.28
				h3.56v-7.66h-5.16c-7.39,0-10.59,5.23-10.59,10.39v4.54h-3.77v6.9h3.77v28.4h9.06v-28.4H549.83z M521.51,29.57h-9.27v7.38h9.27
				V29.57z M521.44,43.18h-9.06v36.34h9.06V43.18z M493.67,57.97h-13.81c0.07-1.61,0.28-2.59,0.84-3.91c0.98-2.17,3-3.77,6.07-3.77
				c3.07,0,5.09,1.6,6.07,3.77C493.39,55.38,493.6,56.36,493.67,57.97 M502.6,64.17v-4.04c0-9.98-5.72-17.37-15.84-17.37
				c-9.41,0-15.83,6.69-15.83,18.55c0,14.72,8.22,18.62,16.8,18.62c6.56,0,10.12-2.02,13.81-5.72l-5.51-5.37
				c-2.3,2.3-4.26,3.42-8.23,3.42c-5.09,0-7.95-3.42-7.95-8.1H502.6z M468.35,46.17c-2.51-2.51-5.02-3.41-8.58-3.41
				c-3.91,0-7.4,1.81-9.14,3.9v-3.48h-8.85v36.34h9.06V57.61c0-4.6,3.07-6.7,5.86-6.7c2.23,0,3.42,0.77,4.81,2.16L468.35,46.17z
				 M433.11,79.52v-7.66h-3.49c-2.3,0-3.21-1.12-3.21-3.28V29.85h-9.06v39.28c0,5.16,3.13,10.38,10.59,10.38H433.11z M406.11,79.52
				V43.18h-9.06v21.98c0,4.95-3.21,6.63-6.08,6.63c-2.86,0-6.01-1.67-6.01-6.63V43.18h-9.06v23.23c0,3.98,0.77,7.39,3.69,10.32
				c2.02,2.02,4.95,3.2,8.58,3.2c3.35,0,6.7-1.26,9.08-3.76v3.34H406.11z M365.17,79.52V56c0-7.67-4.19-13.24-12.13-13.24
				c-3.21,0-6.28,1.25-8.73,3.76V29.85h-9.06v49.66h9.06V57.33c0-4.74,3-6.42,5.86-6.42c2.87,0,5.94,1.6,5.94,6.42v22.19H365.17z
				 M326.79,74.99l-6.14-6.07c-1.88,2.03-3.49,2.87-5.86,2.87c-2.16,0-3.84-0.77-5.16-2.38c-1.4-1.74-2.02-4.26-2.02-8.09
				s0.63-6.28,2.02-8.03c1.33-1.6,3-2.37,5.16-2.37c2.37,0,3.98,0.84,5.86,2.86l6.14-6.13c-3.21-3.35-6.98-4.88-12-4.88
				c-7.26,0-16.25,3.83-16.25,18.55s8.99,18.62,16.25,18.62C319.82,79.93,323.59,78.33,326.79,74.99 M291.36,68.08
				c0-6.14-3.63-9.98-10.81-10.67l-5.72-0.56c-3.21-0.28-3.77-1.81-3.77-3.14c0-1.81,1.53-3.49,5.16-3.49
				c3.14,0,6.35,0.56,8.44,2.44l5.58-5.65c-3.49-3.28-8.23-4.25-13.88-4.25c-7.4,0-14.02,4.04-14.02,11.57
				c0,6.7,4.05,9.56,10.6,10.19l5.72,0.56c2.86,0.28,3.84,1.53,3.84,3.35c0,2.73-3.28,3.77-6.42,3.77c-2.79,0-6.7-0.42-9.7-3.42
				l-5.93,5.93c4.6,4.6,9.77,5.23,15.49,5.23C284.52,79.93,291.36,76.1,291.36,68.08 M252.84,79.52V56
				c0-7.67-4.18-13.24-12.13-13.24c-3.21,0-6.28,1.25-8.73,3.76V29.85h-9.06v49.66h9.06V57.33c0-4.74,3-6.42,5.87-6.42
				c2.86,0,5.94,1.6,5.94,6.42v22.19H252.84z M214.47,74.99l-6.14-6.07c-1.88,2.03-3.49,2.87-5.86,2.87c-2.16,0-3.84-0.77-5.16-2.38
				c-1.4-1.74-2.02-4.26-2.02-8.09s0.63-6.28,2.02-8.03c1.33-1.6,3-2.37,5.16-2.37c2.37,0,3.98,0.84,5.86,2.86l6.14-6.13
				c-3.21-3.35-6.98-4.88-12-4.88c-7.26,0-16.24,3.83-16.24,18.55s8.99,18.62,16.24,18.62C207.49,79.93,211.26,78.33,214.47,74.99
				 M168.92,61.31c0,3.77-0.21,6.98-2.1,8.86c-1.05,1.05-2.44,1.61-4.26,1.61c-1.81,0-3.14-0.56-4.19-1.61
				c-1.88-1.88-2.09-5.09-2.09-8.86s0.21-6.91,2.09-8.8c1.05-1.05,2.38-1.6,4.19-1.6c1.81,0,3.21,0.56,4.26,1.6
				C168.71,54.4,168.92,57.54,168.92,61.31 M177.98,61.31c0-6.56-0.84-10.68-4.11-14.09c-2.23-2.37-5.93-4.46-11.3-4.46
				c-5.38,0-9.01,2.09-11.23,4.46c-3.28,3.41-4.11,7.53-4.11,14.09c0,6.63,0.83,10.75,4.11,14.16c2.23,2.37,5.86,4.46,11.23,4.46
				c5.37,0,9.07-2.09,11.3-4.46C177.14,72.06,177.98,67.94,177.98,61.31 M136.47,79.52V29.85h-9.69v20.3h-16.82v-20.3h-9.69v49.66
				h9.69V58.73h16.82v20.79H136.47z"/>
		</g>
		<g style="clip-path:url(#SVGID_00000061438871118115028990000010909042657251763104_);">
			<rect x="2.95" y="333.5" class="st3" width="948.1" height="3.22"/>
		</g>
		<g style="clip-path:url(#SVGID_00000061438871118115028990000010909042657251763104_);">
			<rect x="2.95" y="221.88" class="st3" width="948.1" height="3.22"/>
		</g>
		<g style="clip-path:url(#SVGID_00000061438871118115028990000010909042657251763104_);">
			<rect x="2.95" y="115.62" class="st3" width="948.1" height="3.22"/>
		</g>
		<g style="clip-path:url(#SVGID_00000061438871118115028990000010909042657251763104_);">
			<rect x="2.95" y="442.45" class="st3" width="948.1" height="3.22"/>
		</g>
		<g style="clip-path:url(#SVGID_00000061438871118115028990000010909042657251763104_);">
			<rect x="2.95" y="559.44" class="st3" width="948.1" height="3.22"/>
		</g>
		<g style="clip-path:url(#SVGID_00000061438871118115028990000010909042657251763104_);">
			<rect x="2.95" y="671.07" class="st3" width="948.1" height="3.22"/>
		</g>
		<g style="clip-path:url(#SVGID_00000061438871118115028990000010909042657251763104_);">
			<rect x="2.95" y="773.53" class="st3" width="948.1" height="3.22"/>
		</g>
		<g style="clip-path:url(#SVGID_00000061438871118115028990000010909042657251763104_);">
			<rect x="2.95" y="887.39" class="st3" width="948.1" height="3.22"/>
		</g>
		<g style="clip-path:url(#SVGID_00000061438871118115028990000010909042657251763104_);">
			<rect x="2.95" y="996.78" class="st3" width="948.1" height="3.22"/>
		</g>
		<g style="clip-path:url(#SVGID_00000061438871118115028990000010909042657251763104_);">
			<path class="st3" d="M667.4,616.03c0,3.21-2.24,5.51-5.41,5.51c-3.16,0-5.36-2.3-5.36-5.51c0-3.17,2.2-5.56,5.36-5.56
				C665.16,610.47,667.4,612.87,667.4,616.03 M667.96,632.09c0,3.36-2.6,6.02-5.97,6.02c-3.36,0-5.97-2.66-5.97-6.02
				c0-3.36,2.6-6.07,5.97-6.07C665.36,626.02,667.96,628.73,667.96,632.09 M673.21,632.19c0-4.34-2.45-6.99-4.99-8.51
				c2.34-1.43,4.38-3.98,4.38-7.8c0-6.07-4.69-10.04-10.6-10.04c-5.91,0-10.55,3.97-10.55,10.04c0,3.83,2.04,6.38,4.38,7.8
				c-2.54,1.52-4.99,4.18-4.99,8.51c0,6.58,4.94,10.55,11.16,10.55C668.22,642.74,673.21,638.77,673.21,632.19 M633.29,639.08
				l-3.52-3.47c-1.58,1.58-2.65,2.5-5,2.5c-4.18,0-6.32-2.91-6.32-8.62c0-5.61,2.14-8.57,6.32-8.57c2.29,0,3.47,0.92,5,2.45
				l3.52-3.41c-1.63-1.63-2.45-2.19-3.82-2.8c-1.33-0.56-2.86-0.86-4.64-0.86c-7.23,0-11.57,4.94-11.57,13.1
				c0,8.41,4.28,13.35,11.57,13.35c1.79,0,3.26-0.25,4.64-0.86C630.84,641.27,631.66,640.71,633.29,639.08 M600.92,633.11
				c0,3.77-1.63,5.31-5.66,5.31c-3.52,0-5.1-1.18-5.1-3.68c0-2.45,1.58-3.67,4.64-3.67h6.12V633.11z M606.07,642.44v-17.28
				c0-5.87-3.62-8.87-10.81-8.87c-2.45,0-4.28,0.31-5.76,1.01c-1.27,0.56-1.93,1.18-3.36,2.7l3.41,3.21
				c0.76-0.97,1.33-1.48,2.09-1.84c0.92-0.46,1.99-0.67,3.47-0.67c4.08,0,5.81,1.43,5.81,4.8v1.89h-6.94c-5.51,0-8.87,2.8-8.87,7.49
				c0,5,3.21,7.8,8.97,7.8c3.06,0,4.74-0.46,6.89-2.6v2.34H606.07z M578.23,642.44V616.6h-17.69v10.75c0,10-2.65,10.51-4.89,10.51
				h-0.82v4.58h2.45c5.04,0,8.25-2.85,8.25-13.81v-7.5h7.5v21.31H578.23z M532.14,642.44v-18.96l14.63,18.96h6.99l-15.25-19.16
				l13.97-17.13h-6.78l-13.56,17.23v-17.23h-5.5v36.29H532.14z M508.64,602.37h-5l-14.53,43.84h5L508.64,602.37z M467.66,616.03
				c0,3.21-2.25,5.51-5.41,5.51s-5.36-2.3-5.36-5.51c0-3.17,2.19-5.56,5.36-5.56S467.66,612.87,467.66,616.03 M468.21,632.09
				c0,3.36-2.6,6.02-5.97,6.02s-5.97-2.66-5.97-6.02c0-3.36,2.6-6.07,5.97-6.07S468.21,628.73,468.21,632.09 M473.46,632.19
				c0-4.34-2.44-6.99-4.99-8.51c2.34-1.43,4.38-3.98,4.38-7.8c0-6.07-4.69-10.04-10.6-10.04c-5.91,0-10.55,3.97-10.55,10.04
				c0,3.83,2.04,6.38,4.38,7.8c-2.54,1.52-4.99,4.18-4.99,8.51c0,6.58,4.94,10.55,11.16,10.55
				C468.47,642.74,473.46,638.77,473.46,632.19 M427.52,627.41H415.9c0.05-1.58,0.16-2.35,0.67-3.52c0.82-1.94,2.7-3.27,5.15-3.27
				c2.45,0,4.28,1.33,5.1,3.27C427.32,625.06,427.47,625.82,427.52,627.41 M432.68,631.02v-2.29c0-7.34-4.03-12.43-10.96-12.43
				c-6.63,0-10.95,4.84-10.95,13.2c0,9.84,5.14,13.25,11.62,13.25c4.53,0,7.04-1.37,9.69-4.02l-3.32-3.11
				c-1.84,1.84-3.36,2.65-6.27,2.65c-4.23,0-6.58-2.81-6.58-7.25H432.68z M405.25,634.54c0-4.59-2.86-6.89-7.7-7.29l-4.08-0.35
				c-2.75-0.26-3.57-1.43-3.57-2.96c0-1.94,1.58-3.32,4.69-3.32c2.45,0,4.74,0.51,6.37,1.89l3.26-3.32c-2.39-2.09-5.71-2.9-9.58-2.9
				c-5.4,0-9.74,2.85-9.74,7.89c0,4.54,2.8,6.74,7.65,7.14l4.13,0.35c2.5,0.2,3.47,1.33,3.47,3.06c0,2.45-2.5,3.57-5.66,3.57
				c-2.55,0-5.36-0.56-7.44-2.7l-3.42,3.42c3.06,3,6.63,3.71,10.86,3.71C400.66,642.74,405.25,639.94,405.25,634.54 M379.6,634.54
				c0-4.59-2.86-6.89-7.7-7.29l-4.08-0.35c-2.75-0.26-3.57-1.43-3.57-2.96c0-1.94,1.58-3.32,4.69-3.32c2.45,0,4.74,0.51,6.38,1.89
				l3.26-3.32c-2.4-2.09-5.71-2.9-9.58-2.9c-5.4,0-9.74,2.85-9.74,7.89c0,4.54,2.81,6.74,7.65,7.14l4.13,0.35
				c2.5,0.2,3.47,1.33,3.47,3.06c0,2.45-2.5,3.57-5.66,3.57c-2.55,0-5.35-0.56-7.44-2.7l-3.41,3.42c3.06,3,6.63,3.71,10.86,3.71
				C375.02,642.74,379.6,639.94,379.6,634.54 M346.77,633.11c0,1.84-0.35,3.06-1.12,3.83c-1.37,1.33-2.86,1.48-4.85,1.48
				c-3.26,0-4.74-1.33-4.74-3.68c0-2.35,1.58-3.72,4.64-3.72h6.07V633.11z M351.97,642.44v-17.28c0-5.87-3.56-8.87-10.65-8.87
				c-4.28,0-6.83,0.86-9.27,3.71l3.41,3.21c1.43-1.84,2.81-2.5,5.66-2.5c4.03,0,5.66,1.58,5.66,4.85v1.84h-6.83
				c-5.91,0-8.92,3.1-8.92,7.44c0,2.19,0.71,4.19,2.04,5.56c1.58,1.58,3.71,2.34,6.93,2.34s5-0.76,6.89-2.65v2.34H351.97z
				 M326.73,642.44v-4.43h-2.3c-2.09,0-2.8-1.02-2.8-3.01v-28.86h-5.19v29.16c0,3.82,2.14,7.13,7.08,7.13H326.73z M311.44,642.44
				l-13-22.07l11.78-14.22h-6.73l-14.83,18.25v-18.25h-5.5v36.29h5.5v-10.55l6.12-7.34l10.2,17.89H311.44z"/>
		</g>
		<g style="clip-path:url(#SVGID_00000061438871118115028990000010909042657251763104_);">
			<path class="st3" d="M667.55,845.87c0,3.87-2.29,6.33-5.56,6.33c-3.26,0-5.51-2.45-5.51-6.33c0-3.93,2.24-6.27,5.51-6.27
				C665.47,839.6,667.55,842.3,667.55,845.87 M672.75,845.77c0-6.38-4.28-10.5-9.53-10.5c-1.12,0-2.24,0.15-3.21,0.56l7.8-15.6
				h-5.56l-8.26,16.82c-1.58,3.16-2.7,5.96-2.7,8.92c0,6.74,4.48,10.86,10.75,10.86C668.32,856.83,672.75,852.45,672.75,845.77
				 M633.29,853.16l-3.52-3.47c-1.58,1.58-2.65,2.5-5,2.5c-4.18,0-6.32-2.91-6.32-8.62c0-5.61,2.14-8.57,6.32-8.57
				c2.29,0,3.47,0.92,5,2.45l3.52-3.41c-1.63-1.63-2.45-2.19-3.82-2.8c-1.33-0.56-2.86-0.86-4.64-0.86
				c-7.23,0-11.57,4.94-11.57,13.1c0,8.41,4.28,13.35,11.57,13.35c1.79,0,3.26-0.25,4.64-0.86
				C630.84,855.35,631.66,854.79,633.29,853.16 M600.92,847.2c0,3.77-1.63,5.31-5.66,5.31c-3.52,0-5.1-1.18-5.1-3.68
				c0-2.45,1.58-3.68,4.64-3.68h6.12V847.2z M606.07,856.52v-17.28c0-5.87-3.62-8.87-10.81-8.87c-2.45,0-4.28,0.31-5.76,1.01
				c-1.27,0.56-1.93,1.18-3.36,2.7l3.41,3.21c0.76-0.97,1.33-1.48,2.09-1.84c0.92-0.46,1.99-0.67,3.47-0.67
				c4.08,0,5.81,1.43,5.81,4.8v1.89h-6.94c-5.51,0-8.87,2.8-8.87,7.49c0,5,3.21,7.79,8.97,7.79c3.06,0,4.74-0.46,6.89-2.59v2.34
				H606.07z M578.23,856.52v-25.84h-17.69v10.75c0,10-2.65,10.51-4.89,10.51h-0.82v4.58h2.45c5.04,0,8.25-2.85,8.25-13.81v-7.5h7.5
				v21.31H578.23z M532.14,856.52v-18.96l14.63,18.96h6.99l-15.25-19.16l13.97-17.13h-6.78l-13.56,17.23v-17.23h-5.5v36.29H532.14z
				 M508.64,816.45h-5l-14.53,43.84h5L508.64,816.45z M467.81,845.87c0,3.87-2.3,6.33-5.56,6.33c-3.26,0-5.51-2.45-5.51-6.33
				c0-3.93,2.25-6.27,5.51-6.27C465.71,839.6,467.81,842.3,467.81,845.87 M473,845.77c0-6.38-4.28-10.5-9.53-10.5
				c-1.12,0-2.24,0.15-3.21,0.56l7.81-15.6h-5.56l-8.26,16.82c-1.58,3.16-2.7,5.96-2.7,8.92c0,6.74,4.48,10.86,10.75,10.86
				C468.57,856.83,473,852.45,473,845.77 M427.52,841.49H415.9c0.05-1.58,0.16-2.35,0.67-3.52c0.82-1.94,2.7-3.27,5.15-3.27
				c2.45,0,4.28,1.33,5.1,3.27C427.32,839.14,427.47,839.91,427.52,841.49 M432.68,845.1v-2.29c0-7.34-4.03-12.43-10.96-12.43
				c-6.63,0-10.95,4.84-10.95,13.2c0,9.84,5.14,13.26,11.62,13.26c4.53,0,7.04-1.37,9.69-4.02l-3.32-3.11
				c-1.84,1.84-3.36,2.65-6.27,2.65c-4.23,0-6.58-2.81-6.58-7.24H432.68z M405.25,848.62c0-4.59-2.86-6.89-7.7-7.29l-4.08-0.35
				c-2.75-0.26-3.57-1.43-3.57-2.96c0-1.94,1.58-3.32,4.69-3.32c2.45,0,4.74,0.51,6.37,1.89l3.26-3.32c-2.39-2.09-5.71-2.9-9.58-2.9
				c-5.4,0-9.74,2.85-9.74,7.89c0,4.54,2.8,6.74,7.65,7.14l4.13,0.35c2.5,0.2,3.47,1.33,3.47,3.06c0,2.45-2.5,3.57-5.66,3.57
				c-2.55,0-5.36-0.56-7.44-2.7l-3.42,3.41c3.06,3.01,6.63,3.72,10.86,3.72C400.66,856.83,405.25,854.03,405.25,848.62
				 M379.6,848.62c0-4.59-2.86-6.89-7.7-7.29l-4.08-0.35c-2.75-0.26-3.57-1.43-3.57-2.96c0-1.94,1.58-3.32,4.69-3.32
				c2.45,0,4.74,0.51,6.38,1.89l3.26-3.32c-2.4-2.09-5.71-2.9-9.58-2.9c-5.4,0-9.74,2.85-9.74,7.89c0,4.54,2.81,6.74,7.65,7.14
				l4.13,0.35c2.5,0.2,3.47,1.33,3.47,3.06c0,2.45-2.5,3.57-5.66,3.57c-2.55,0-5.35-0.56-7.44-2.7l-3.41,3.41
				c3.06,3.01,6.63,3.72,10.86,3.72C375.02,856.83,379.6,854.03,379.6,848.62 M346.77,847.2c0,1.84-0.35,3.06-1.12,3.83
				c-1.37,1.33-2.86,1.48-4.85,1.48c-3.26,0-4.74-1.33-4.74-3.68c0-2.35,1.58-3.72,4.64-3.72h6.07V847.2z M351.97,856.52v-17.28
				c0-5.87-3.56-8.87-10.65-8.87c-4.28,0-6.83,0.86-9.27,3.71l3.41,3.21c1.43-1.84,2.81-2.5,5.66-2.5c4.03,0,5.66,1.58,5.66,4.85
				v1.84h-6.83c-5.91,0-8.92,3.1-8.92,7.44c0,2.2,0.71,4.19,2.04,5.56c1.58,1.58,3.71,2.34,6.93,2.34s5-0.76,6.89-2.65v2.34H351.97z
				 M326.73,856.52v-4.43h-2.3c-2.09,0-2.8-1.02-2.8-3.01v-28.86h-5.19v29.16c0,3.82,2.14,7.13,7.08,7.13H326.73z M311.44,856.52
				l-13-22.07l11.78-14.22h-6.73l-14.83,18.25v-18.25h-5.5v36.29h5.5v-10.55l6.12-7.34l10.2,17.89H311.44z"/>
		</g>
		<g style="clip-path:url(#SVGID_00000061438871118115028990000010909042657251763104_);">
			<path class="st3" d="M672.85,950.65c0-3.42-0.41-6.94-3.16-9.69c-1.48-1.48-3.67-2.35-6.53-2.35c-2.65,0-4.8,0.82-6.02,2.09
				v-9.59h14.89v-4.63h-19.57v19.83h4.74c0.56-1.79,2.19-3.27,5.15-3.27c4.18,0,5.3,3.27,5.3,7.6c0,2.45-0.2,4.84-1.73,6.38
				c-0.92,0.92-2.24,1.43-3.77,1.43c-3.27,0-4.9-1.84-5.31-5.05h-5.19c0.2,2.6,0.82,5,2.75,6.93c1.58,1.58,4.28,2.8,7.75,2.8
				c3.52,0,6.02-1.22,7.65-2.85C672.44,957.64,672.85,954.53,672.85,950.65 M633.29,959.42l-3.52-3.47c-1.58,1.58-2.65,2.5-5,2.5
				c-4.18,0-6.32-2.91-6.32-8.62c0-5.61,2.14-8.57,6.32-8.57c2.29,0,3.47,0.92,5,2.45l3.52-3.41c-1.63-1.63-2.45-2.19-3.82-2.8
				c-1.33-0.56-2.86-0.86-4.64-0.86c-7.23,0-11.57,4.94-11.57,13.1c0,8.41,4.28,13.35,11.57,13.35c1.79,0,3.26-0.25,4.64-0.86
				C630.84,961.61,631.66,961.05,633.29,959.42 M600.92,953.46c0,3.77-1.63,5.31-5.66,5.31c-3.52,0-5.1-1.18-5.1-3.68
				c0-2.45,1.58-3.67,4.64-3.67h6.12V953.46z M606.07,962.78V945.5c0-5.87-3.62-8.87-10.81-8.87c-2.45,0-4.28,0.31-5.76,1.01
				c-1.27,0.56-1.93,1.18-3.36,2.7l3.41,3.21c0.76-0.97,1.33-1.48,2.09-1.84c0.92-0.46,1.99-0.67,3.47-0.67
				c4.08,0,5.81,1.43,5.81,4.8v1.89h-6.94c-5.51,0-8.87,2.8-8.87,7.49c0,5,3.21,7.8,8.97,7.8c3.06,0,4.74-0.46,6.89-2.6v2.34H606.07
				z M578.23,962.78v-25.84h-17.69v10.75c0,10-2.65,10.51-4.89,10.51h-0.82v4.58h2.45c5.04,0,8.25-2.85,8.25-13.81v-7.5h7.5v21.31
				H578.23z M532.14,962.78v-18.96l14.63,18.96h6.99l-15.25-19.16l13.97-17.13h-6.78l-13.56,17.23v-17.23h-5.5v36.29H532.14z
				 M508.64,922.72h-5l-14.53,43.84h5L508.64,922.72z M473.1,950.65c0-3.42-0.41-6.94-3.16-9.69c-1.48-1.48-3.67-2.35-6.53-2.35
				c-2.66,0-4.8,0.82-6.02,2.09v-9.59h14.89v-4.63h-19.57v19.83h4.73c0.56-1.79,2.19-3.27,5.16-3.27c4.18,0,5.3,3.27,5.3,7.6
				c0,2.45-0.2,4.84-1.73,6.38c-0.92,0.92-2.24,1.43-3.77,1.43c-3.27,0-4.9-1.84-5.31-5.05h-5.19c0.2,2.6,0.82,5,2.75,6.93
				c1.58,1.58,4.28,2.8,7.75,2.8c3.52,0,6.02-1.22,7.65-2.85C472.69,957.64,473.1,954.53,473.1,950.65 M427.52,947.75H415.9
				c0.05-1.58,0.16-2.35,0.67-3.52c0.82-1.94,2.7-3.27,5.15-3.27c2.45,0,4.28,1.33,5.1,3.27
				C427.32,945.4,427.47,946.17,427.52,947.75 M432.68,951.36v-2.29c0-7.34-4.03-12.43-10.96-12.43c-6.63,0-10.95,4.84-10.95,13.2
				c0,9.84,5.14,13.26,11.62,13.26c4.53,0,7.04-1.37,9.69-4.02l-3.32-3.11c-1.84,1.84-3.36,2.65-6.27,2.65
				c-4.23,0-6.58-2.81-6.58-7.25H432.68z M405.25,954.88c0-4.59-2.86-6.89-7.7-7.29l-4.08-0.35c-2.75-0.26-3.57-1.43-3.57-2.96
				c0-1.94,1.58-3.32,4.69-3.32c2.45,0,4.74,0.51,6.37,1.89l3.26-3.32c-2.39-2.09-5.71-2.9-9.58-2.9c-5.4,0-9.74,2.85-9.74,7.89
				c0,4.54,2.8,6.74,7.65,7.14l4.13,0.35c2.5,0.2,3.47,1.33,3.47,3.06c0,2.45-2.5,3.57-5.66,3.57c-2.55,0-5.36-0.56-7.44-2.7
				l-3.42,3.41c3.06,3.01,6.63,3.72,10.86,3.72C400.66,963.09,405.25,960.29,405.25,954.88 M379.6,954.88c0-4.59-2.86-6.89-7.7-7.29
				l-4.08-0.35c-2.75-0.26-3.57-1.43-3.57-2.96c0-1.94,1.58-3.32,4.69-3.32c2.45,0,4.74,0.51,6.38,1.89l3.26-3.32
				c-2.4-2.09-5.71-2.9-9.58-2.9c-5.4,0-9.74,2.85-9.74,7.89c0,4.54,2.81,6.74,7.65,7.14l4.13,0.35c2.5,0.2,3.47,1.33,3.47,3.06
				c0,2.45-2.5,3.57-5.66,3.57c-2.55,0-5.35-0.56-7.44-2.7l-3.41,3.41c3.06,3.01,6.63,3.72,10.86,3.72
				C375.02,963.09,379.6,960.29,379.6,954.88 M346.77,953.46c0,1.84-0.35,3.06-1.12,3.83c-1.37,1.33-2.86,1.48-4.85,1.48
				c-3.26,0-4.74-1.33-4.74-3.68c0-2.35,1.58-3.72,4.64-3.72h6.07V953.46z M351.97,962.78V945.5c0-5.87-3.56-8.87-10.65-8.87
				c-4.28,0-6.83,0.86-9.27,3.71l3.41,3.21c1.43-1.84,2.81-2.5,5.66-2.5c4.03,0,5.66,1.58,5.66,4.85v1.84h-6.83
				c-5.91,0-8.92,3.1-8.92,7.44c0,2.19,0.71,4.19,2.04,5.56c1.58,1.58,3.71,2.34,6.93,2.34s5-0.76,6.89-2.65v2.34H351.97z
				 M326.73,962.78v-4.43h-2.3c-2.09,0-2.8-1.02-2.8-3.01v-28.86h-5.19v29.16c0,3.82,2.14,7.13,7.08,7.13H326.73z M311.44,962.78
				l-13-22.07l11.78-14.22h-6.73l-14.83,18.25v-18.25h-5.5v36.29h5.5v-10.55l6.12-7.34l10.2,17.89H311.44z"/>
		</g>
		<g style="clip-path:url(#SVGID_00000061438871118115028990000010909042657251763104_);">
			<path class="st3" d="M667.55,499.8c0,3.93-2.29,6.27-5.56,6.27c-3.47,0-5.51-2.7-5.51-6.27c0-3.87,2.24-6.32,5.51-6.32
				C665.26,493.48,667.55,495.93,667.55,499.8 M672.75,499.7c0-6.73-4.48-10.86-10.75-10.86s-10.7,4.38-10.7,11.06
				c0,6.38,4.22,10.5,9.48,10.5c1.12,0,2.3-0.16,3.27-0.56l-7.81,15.6h5.56l8.26-16.82C671.63,505.46,672.75,502.66,672.75,499.7
				 M633.29,522.09l-3.52-3.47c-1.58,1.58-2.65,2.5-5,2.5c-4.18,0-6.32-2.91-6.32-8.62c0-5.61,2.14-8.57,6.32-8.57
				c2.29,0,3.47,0.92,5,2.45l3.52-3.41c-1.63-1.63-2.45-2.19-3.82-2.8c-1.33-0.56-2.86-0.86-4.64-0.86
				c-7.23,0-11.57,4.94-11.57,13.1c0,8.41,4.28,13.35,11.57,13.35c1.79,0,3.26-0.25,4.64-0.86
				C630.84,524.28,631.66,523.72,633.29,522.09 M600.92,516.12c0,3.77-1.63,5.31-5.66,5.31c-3.52,0-5.1-1.18-5.1-3.68
				c0-2.45,1.58-3.67,4.64-3.67h6.12V516.12z M606.07,525.45v-17.28c0-5.87-3.62-8.87-10.81-8.87c-2.45,0-4.28,0.31-5.76,1.01
				c-1.27,0.56-1.93,1.18-3.36,2.7l3.41,3.21c0.76-0.97,1.33-1.48,2.09-1.84c0.92-0.46,1.99-0.67,3.47-0.67
				c4.08,0,5.81,1.43,5.81,4.8v1.89h-6.94c-5.51,0-8.87,2.8-8.87,7.49c0,5,3.21,7.8,8.97,7.8c3.06,0,4.74-0.46,6.89-2.6v2.34H606.07
				z M578.23,525.45V499.6h-17.69v10.75c0,10-2.65,10.51-4.89,10.51h-0.82v4.58h2.45c5.04,0,8.25-2.85,8.25-13.81v-7.5h7.5v21.31
				H578.23z M532.14,525.45v-18.96l14.63,18.96h6.99l-15.25-19.16l13.97-17.13h-6.78l-13.56,17.23v-17.23h-5.5v36.29H532.14z
				 M508.64,485.38h-5l-14.53,43.84h5L508.64,485.38z M467.81,499.8c0,3.93-2.3,6.27-5.56,6.27c-3.47,0-5.51-2.7-5.51-6.27
				c0-3.87,2.25-6.32,5.51-6.32C465.51,493.48,467.81,495.93,467.81,499.8 M473,499.7c0-6.73-4.48-10.86-10.75-10.86
				c-6.27,0-10.7,4.38-10.7,11.06c0,6.38,4.22,10.5,9.48,10.5c1.12,0,2.3-0.16,3.26-0.56l-7.8,15.6h5.56l8.26-16.82
				C471.88,505.46,473,502.66,473,499.7 M427.52,510.41H415.9c0.05-1.58,0.16-2.35,0.67-3.52c0.82-1.94,2.7-3.27,5.15-3.27
				c2.45,0,4.28,1.33,5.1,3.27C427.32,508.06,427.47,508.83,427.52,510.41 M432.68,514.02v-2.29c0-7.34-4.03-12.43-10.96-12.43
				c-6.63,0-10.95,4.84-10.95,13.2c0,9.84,5.14,13.25,11.62,13.25c4.53,0,7.04-1.37,9.69-4.02l-3.32-3.11
				c-1.84,1.84-3.36,2.65-6.27,2.65c-4.23,0-6.58-2.81-6.58-7.24H432.68z M405.25,517.55c0-4.59-2.86-6.89-7.7-7.29l-4.08-0.35
				c-2.75-0.26-3.57-1.43-3.57-2.96c0-1.94,1.58-3.32,4.69-3.32c2.45,0,4.74,0.51,6.37,1.89l3.26-3.32c-2.39-2.09-5.71-2.9-9.58-2.9
				c-5.4,0-9.74,2.85-9.74,7.89c0,4.54,2.8,6.74,7.65,7.14l4.13,0.35c2.5,0.2,3.47,1.33,3.47,3.06c0,2.45-2.5,3.57-5.66,3.57
				c-2.55,0-5.36-0.56-7.44-2.7l-3.42,3.42c3.06,3,6.63,3.71,10.86,3.71C400.66,525.75,405.25,522.95,405.25,517.55 M379.6,517.55
				c0-4.59-2.86-6.89-7.7-7.29l-4.08-0.35c-2.75-0.26-3.57-1.43-3.57-2.96c0-1.94,1.58-3.32,4.69-3.32c2.45,0,4.74,0.51,6.38,1.89
				l3.26-3.32c-2.4-2.09-5.71-2.9-9.58-2.9c-5.4,0-9.74,2.85-9.74,7.89c0,4.54,2.81,6.74,7.65,7.14l4.13,0.35
				c2.5,0.2,3.47,1.33,3.47,3.06c0,2.45-2.5,3.57-5.66,3.57c-2.55,0-5.35-0.56-7.44-2.7l-3.41,3.42c3.06,3,6.63,3.71,10.86,3.71
				C375.02,525.75,379.6,522.95,379.6,517.55 M346.77,516.12c0,1.84-0.35,3.06-1.12,3.83c-1.37,1.33-2.86,1.48-4.85,1.48
				c-3.26,0-4.74-1.33-4.74-3.68c0-2.35,1.58-3.72,4.64-3.72h6.07V516.12z M351.97,525.45v-17.28c0-5.87-3.56-8.87-10.65-8.87
				c-4.28,0-6.83,0.86-9.27,3.71l3.41,3.21c1.43-1.84,2.81-2.5,5.66-2.5c4.03,0,5.66,1.58,5.66,4.85v1.84h-6.83
				c-5.91,0-8.92,3.1-8.92,7.44c0,2.2,0.71,4.19,2.04,5.56c1.58,1.58,3.71,2.34,6.93,2.34s5-0.76,6.89-2.65v2.34H351.97z
				 M326.73,525.45v-4.43h-2.3c-2.09,0-2.8-1.02-2.8-3.01v-28.86h-5.19v29.16c0,3.82,2.14,7.13,7.08,7.13H326.73z M311.44,525.45
				l-13-22.07l11.78-14.22h-6.73l-14.83,18.25v-18.25h-5.5v36.29h5.5v-10.55l6.12-7.34l10.2,17.89H311.44z"/>
		</g>
		<g style="clip-path:url(#SVGID_00000061438871118115028990000010909042657251763104_);">
			<path class="st3" d="M694.99,403.57c0,3.52-1.99,5.92-5.31,5.92c-3.32,0-5.25-2.4-5.25-5.92v-15.8c0-3.52,1.94-5.91,5.25-5.91
				c3.32,0,5.31,2.39,5.31,5.91V403.57z M700.18,403.73v-16.12c0-6.47-4.74-10.4-10.5-10.4c-5.76,0-10.45,3.92-10.45,10.4v16.12
				c0,6.48,4.69,10.4,10.45,10.4C695.44,414.12,700.18,410.21,700.18,403.73 M666.53,413.82v-36.29h-5.19l-7.09,6.12v5.76l7.09-6.21
				v30.63H666.53z M633.29,410.46l-3.52-3.47c-1.58,1.58-2.65,2.5-5,2.5c-4.18,0-6.32-2.91-6.32-8.62c0-5.61,2.14-8.57,6.32-8.57
				c2.3,0,3.47,0.92,5,2.45l3.52-3.41c-1.63-1.63-2.45-2.19-3.83-2.8c-1.33-0.56-2.86-0.86-4.64-0.86c-7.24,0-11.57,4.94-11.57,13.1
				c0,8.41,4.28,13.35,11.57,13.35c1.78,0,3.26-0.25,4.64-0.86C630.84,412.65,631.66,412.09,633.29,410.46 M600.92,404.49
				c0,3.77-1.64,5.31-5.67,5.31c-3.52,0-5.1-1.18-5.1-3.68c0-2.45,1.58-3.67,4.64-3.67h6.12V404.49z M606.06,413.82v-17.28
				c0-5.87-3.62-8.87-10.81-8.87c-2.45,0-4.28,0.31-5.76,1.01c-1.28,0.56-1.94,1.18-3.36,2.7l3.41,3.21
				c0.76-0.97,1.33-1.48,2.09-1.84c0.92-0.46,1.99-0.67,3.47-0.67c4.08,0,5.82,1.43,5.82,4.8v1.89h-6.94c-5.51,0-8.87,2.8-8.87,7.49
				c0,5,3.2,7.8,8.97,7.8c3.06,0,4.74-0.46,6.89-2.6v2.34H606.06z M578.23,413.82v-25.84h-17.68v10.75c0,10-2.65,10.51-4.89,10.51
				h-0.82v4.58h2.45c5.04,0,8.25-2.85,8.25-13.81v-7.5h7.5v21.31H578.23z M532.14,413.82v-18.96l14.63,18.96h6.99l-15.25-19.16
				l13.97-17.13h-6.78l-13.56,17.23v-17.23h-5.5v36.29H532.14z M508.64,373.75h-5l-14.53,43.84h5L508.64,373.75z M467.55,403.57
				c0,3.52-1.99,5.92-5.31,5.92c-3.31,0-5.25-2.4-5.25-5.92v-15.8c0-3.52,1.94-5.91,5.25-5.91c3.32,0,5.31,2.39,5.31,5.91V403.57z
				 M472.75,403.73v-16.12c0-6.47-4.74-10.4-10.5-10.4c-5.76,0-10.44,3.92-10.44,10.4v16.12c0,6.48,4.68,10.4,10.44,10.4
				C468.01,414.12,472.75,410.21,472.75,403.73 M439.1,413.82v-36.29h-5.19l-7.08,6.12v5.76l7.08-6.21v30.63H439.1z M399.84,398.79
				h-11.62c0.05-1.58,0.16-2.35,0.67-3.52c0.82-1.94,2.7-3.27,5.15-3.27c2.45,0,4.28,1.33,5.1,3.27
				C399.64,396.44,399.79,397.2,399.84,398.79 M404.99,402.4v-2.29c0-7.34-4.03-12.43-10.96-12.43c-6.63,0-10.95,4.84-10.95,13.2
				c0,9.84,5.14,13.25,11.62,13.25c4.53,0,7.04-1.37,9.69-4.02l-3.32-3.11c-1.84,1.84-3.36,2.65-6.27,2.65
				c-4.23,0-6.58-2.81-6.58-7.25H404.99z M377.56,405.92c0-4.59-2.86-6.89-7.7-7.29l-4.08-0.35c-2.75-0.26-3.57-1.43-3.57-2.96
				c0-1.94,1.58-3.32,4.69-3.32c2.45,0,4.74,0.51,6.37,1.89l3.26-3.32c-2.39-2.09-5.71-2.9-9.58-2.9c-5.4,0-9.74,2.85-9.74,7.89
				c0,4.54,2.8,6.74,7.65,7.14l4.13,0.35c2.5,0.2,3.47,1.33,3.47,3.06c0,2.45-2.5,3.57-5.66,3.57c-2.55,0-5.36-0.56-7.44-2.7
				l-3.42,3.42c3.06,3,6.63,3.71,10.86,3.71C372.97,414.12,377.56,411.32,377.56,405.92 M351.92,405.92c0-4.59-2.86-6.89-7.7-7.29
				l-4.08-0.35c-2.75-0.26-3.57-1.43-3.57-2.96c0-1.94,1.58-3.32,4.69-3.32c2.45,0,4.74,0.51,6.38,1.89l3.26-3.32
				c-2.4-2.09-5.71-2.9-9.58-2.9c-5.4,0-9.74,2.85-9.74,7.89c0,4.54,2.81,6.74,7.65,7.14l4.13,0.35c2.5,0.2,3.47,1.33,3.47,3.06
				c0,2.45-2.5,3.57-5.66,3.57c-2.55,0-5.35-0.56-7.44-2.7l-3.41,3.42c3.06,3,6.63,3.71,10.86,3.71
				C347.33,414.12,351.92,411.32,351.92,405.92 M319.09,404.49c0,1.84-0.35,3.06-1.12,3.83c-1.37,1.33-2.86,1.48-4.85,1.48
				c-3.26,0-4.74-1.33-4.74-3.68c0-2.35,1.58-3.72,4.64-3.72h6.07V404.49z M324.28,413.82v-17.28c0-5.87-3.56-8.87-10.65-8.87
				c-4.28,0-6.83,0.86-9.27,3.71l3.41,3.21c1.43-1.84,2.81-2.5,5.66-2.5c4.03,0,5.66,1.58,5.66,4.85v1.84h-6.83
				c-5.91,0-8.92,3.1-8.92,7.44c0,2.19,0.71,4.19,2.04,5.56c1.58,1.58,3.71,2.34,6.93,2.34c3.21,0,5-0.76,6.89-2.65v2.34H324.28z
				 M299.05,413.82v-4.43h-2.3c-2.09,0-2.8-1.02-2.8-3.01v-28.86h-5.19v29.16c0,3.82,2.14,7.13,7.08,7.13H299.05z M283.75,413.82
				l-13-22.07l11.78-14.22h-6.73l-14.83,18.25v-18.25h-5.5v36.29h5.5v-10.55l6.12-7.34l10.2,17.89H283.75z"/>
		</g>
		<g style="clip-path:url(#SVGID_00000061438871118115028990000010909042657251763104_);">
			<path class="st3" d="M694.21,302.19V265.9h-5.2l-7.08,6.12v5.76l7.08-6.21v30.63H694.21z M666.53,302.19V265.9h-5.19l-7.09,6.12
				v5.76l7.09-6.21v30.63H666.53z M633.29,298.83l-3.52-3.47c-1.58,1.58-2.65,2.5-5,2.5c-4.18,0-6.32-2.91-6.32-8.62
				c0-5.61,2.14-8.57,6.32-8.57c2.3,0,3.47,0.92,5,2.45l3.52-3.41c-1.63-1.63-2.45-2.19-3.83-2.8c-1.33-0.56-2.86-0.86-4.64-0.86
				c-7.24,0-11.57,4.94-11.57,13.1c0,8.41,4.28,13.35,11.57,13.35c1.78,0,3.26-0.25,4.64-0.86
				C630.84,301.02,631.66,300.46,633.29,298.83 M600.92,292.86c0,3.77-1.64,5.31-5.67,5.31c-3.52,0-5.1-1.18-5.1-3.68
				c0-2.45,1.58-3.67,4.64-3.67h6.12V292.86z M606.06,302.19v-17.28c0-5.87-3.62-8.87-10.81-8.87c-2.45,0-4.28,0.31-5.76,1.01
				c-1.28,0.56-1.94,1.18-3.36,2.7l3.41,3.21c0.76-0.97,1.33-1.48,2.09-1.84c0.92-0.46,1.99-0.67,3.47-0.67
				c4.08,0,5.82,1.43,5.82,4.8v1.89h-6.94c-5.51,0-8.87,2.8-8.87,7.49c0,5,3.2,7.8,8.97,7.8c3.06,0,4.74-0.46,6.89-2.6v2.34H606.06z
				 M578.23,302.19v-25.84h-17.68v10.75c0,10-2.65,10.51-4.89,10.51h-0.82v4.58h2.45c5.04,0,8.25-2.85,8.25-13.81v-7.5h7.5v21.31
				H578.23z M532.14,302.19v-18.96l14.63,18.96h6.99l-15.25-19.16l13.97-17.13h-6.78l-13.56,17.23V265.9h-5.5v36.29H532.14z
				 M508.64,262.12h-5l-14.53,43.84h5L508.64,262.12z M466.78,302.19V265.9h-5.19l-7.09,6.12v5.76l7.09-6.21v30.63H466.78z
				 M439.1,302.19V265.9h-5.19l-7.08,6.12v5.76l7.08-6.21v30.63H439.1z M399.84,287.16h-11.62c0.05-1.58,0.16-2.35,0.67-3.52
				c0.82-1.94,2.7-3.27,5.15-3.27c2.45,0,4.28,1.33,5.1,3.27C399.64,284.81,399.79,285.58,399.84,287.16 M404.99,290.77v-2.29
				c0-7.34-4.03-12.43-10.96-12.43c-6.63,0-10.95,4.84-10.95,13.2c0,9.84,5.14,13.26,11.62,13.26c4.53,0,7.04-1.37,9.69-4.02
				l-3.32-3.11c-1.84,1.84-3.36,2.65-6.27,2.65c-4.23,0-6.58-2.81-6.58-7.25H404.99z M377.56,294.29c0-4.59-2.86-6.89-7.7-7.29
				l-4.08-0.35c-2.75-0.26-3.57-1.43-3.57-2.96c0-1.94,1.58-3.32,4.69-3.32c2.45,0,4.74,0.51,6.37,1.89l3.26-3.32
				c-2.39-2.09-5.71-2.9-9.58-2.9c-5.4,0-9.74,2.85-9.74,7.89c0,4.54,2.8,6.74,7.65,7.14l4.13,0.35c2.5,0.2,3.47,1.33,3.47,3.06
				c0,2.45-2.5,3.57-5.66,3.57c-2.55,0-5.36-0.56-7.44-2.7l-3.42,3.41c3.06,3.01,6.63,3.72,10.86,3.72
				C372.97,302.5,377.56,299.7,377.56,294.29 M351.92,294.29c0-4.59-2.86-6.89-7.7-7.29l-4.08-0.35c-2.75-0.26-3.57-1.43-3.57-2.96
				c0-1.94,1.58-3.32,4.69-3.32c2.45,0,4.74,0.51,6.38,1.89l3.26-3.32c-2.4-2.09-5.71-2.9-9.58-2.9c-5.4,0-9.74,2.85-9.74,7.89
				c0,4.54,2.81,6.74,7.65,7.14l4.13,0.35c2.5,0.2,3.47,1.33,3.47,3.06c0,2.45-2.5,3.57-5.66,3.57c-2.55,0-5.35-0.56-7.44-2.7
				l-3.41,3.41c3.06,3.01,6.63,3.72,10.86,3.72C347.33,302.5,351.92,299.7,351.92,294.29 M319.09,292.86c0,1.84-0.35,3.06-1.12,3.83
				c-1.37,1.33-2.86,1.48-4.85,1.48c-3.26,0-4.74-1.33-4.74-3.68c0-2.35,1.58-3.72,4.64-3.72h6.07V292.86z M324.28,302.19v-17.28
				c0-5.87-3.56-8.87-10.65-8.87c-4.28,0-6.83,0.86-9.27,3.71l3.41,3.21c1.43-1.84,2.81-2.5,5.66-2.5c4.03,0,5.66,1.58,5.66,4.85
				v1.84h-6.83c-5.91,0-8.92,3.1-8.92,7.44c0,2.19,0.71,4.19,2.04,5.56c1.58,1.58,3.71,2.34,6.93,2.34c3.21,0,5-0.76,6.89-2.65v2.34
				H324.28z M299.05,302.19v-4.43h-2.3c-2.09,0-2.8-1.02-2.8-3.01V265.9h-5.19v29.16c0,3.82,2.14,7.13,7.08,7.13H299.05z
				 M283.75,302.19l-13-22.07l11.78-14.22h-6.73l-14.83,18.25V265.9h-5.5v36.29h5.5v-10.55l6.12-7.34l10.2,17.89H283.75z"/>
		</g>
		<g style="clip-path:url(#SVGID_00000061438871118115028990000010909042657251763104_);">
			<path class="st3" d="M700.43,190.56v-4.63h-14.78l11.37-13.92c2.24-2.76,3.41-4.64,3.41-7.86c0-6.27-4.28-10.19-10.5-10.19
				c-6.17,0-10.55,4.07-10.55,10.25h5.2c0-4.08,2.6-5.61,5.35-5.61c3.36,0,5.3,2.25,5.3,5.51c0,1.84-0.56,3.16-1.94,4.84
				l-13.97,16.99v4.63H700.43z M666.53,190.56v-36.29h-5.19l-7.09,6.12v5.76l7.09-6.21v30.63H666.53z M633.29,187.2l-3.52-3.47
				c-1.58,1.58-2.65,2.5-5,2.5c-4.18,0-6.32-2.91-6.32-8.62c0-5.61,2.14-8.57,6.32-8.57c2.3,0,3.47,0.92,5,2.45l3.52-3.41
				c-1.63-1.63-2.45-2.19-3.83-2.8c-1.33-0.56-2.86-0.86-4.64-0.86c-7.24,0-11.57,4.94-11.57,13.1c0,8.41,4.28,13.35,11.57,13.35
				c1.78,0,3.26-0.25,4.64-0.86C630.84,189.39,631.66,188.84,633.29,187.2 M600.92,181.24c0,3.77-1.64,5.31-5.67,5.31
				c-3.52,0-5.1-1.18-5.1-3.68c0-2.45,1.58-3.67,4.64-3.67h6.12V181.24z M606.06,190.56v-17.28c0-5.87-3.62-8.87-10.81-8.87
				c-2.45,0-4.28,0.31-5.76,1.01c-1.28,0.56-1.94,1.18-3.36,2.7l3.41,3.21c0.76-0.97,1.33-1.48,2.09-1.84
				c0.92-0.46,1.99-0.67,3.47-0.67c4.08,0,5.82,1.43,5.82,4.8v1.89h-6.94c-5.51,0-8.87,2.8-8.87,7.49c0,5,3.2,7.8,8.97,7.8
				c3.06,0,4.74-0.46,6.89-2.6v2.34H606.06z M578.23,190.56v-25.84h-17.68v10.75c0,10-2.65,10.51-4.89,10.51h-0.82v4.58h2.45
				c5.04,0,8.25-2.85,8.25-13.81v-7.5h7.5v21.31H578.23z M532.14,190.56V171.6l14.63,18.96h6.99l-15.25-19.16l13.97-17.13h-6.78
				l-13.56,17.23v-17.23h-5.5v36.29H532.14z M508.64,150.5h-5l-14.53,43.84h5L508.64,150.5z M473,190.56v-4.63h-14.77l11.37-13.92
				c2.24-2.76,3.41-4.64,3.41-7.86c0-6.27-4.28-10.19-10.49-10.19c-6.17,0-10.56,4.07-10.56,10.25h5.2c0-4.08,2.6-5.61,5.36-5.61
				c3.36,0,5.3,2.25,5.3,5.51c0,1.84-0.56,3.16-1.94,4.84l-13.97,16.99v4.63H473z M439.1,190.56v-36.29h-5.19l-7.08,6.12v5.76
				l7.08-6.21v30.63H439.1z M399.84,175.53h-11.62c0.05-1.58,0.16-2.35,0.67-3.52c0.82-1.94,2.7-3.27,5.15-3.27
				c2.45,0,4.28,1.33,5.1,3.27C399.64,173.18,399.79,173.95,399.84,175.53 M404.99,179.14v-2.29c0-7.34-4.03-12.43-10.96-12.43
				c-6.63,0-10.95,4.84-10.95,13.2c0,9.84,5.14,13.26,11.62,13.26c4.53,0,7.04-1.37,9.69-4.02l-3.32-3.11
				c-1.84,1.84-3.36,2.65-6.27,2.65c-4.23,0-6.58-2.81-6.58-7.25H404.99z M377.56,182.66c0-4.59-2.86-6.89-7.7-7.29l-4.08-0.35
				c-2.75-0.26-3.57-1.43-3.57-2.96c0-1.94,1.58-3.32,4.69-3.32c2.45,0,4.74,0.51,6.37,1.89l3.26-3.32c-2.39-2.09-5.71-2.9-9.58-2.9
				c-5.4,0-9.74,2.85-9.74,7.89c0,4.54,2.8,6.74,7.65,7.14l4.13,0.35c2.5,0.2,3.47,1.33,3.47,3.06c0,2.45-2.5,3.57-5.66,3.57
				c-2.55,0-5.36-0.56-7.44-2.7l-3.42,3.41c3.06,3.01,6.63,3.72,10.86,3.72C372.97,190.87,377.56,188.07,377.56,182.66
				 M351.92,182.66c0-4.59-2.86-6.89-7.7-7.29l-4.08-0.35c-2.75-0.26-3.57-1.43-3.57-2.96c0-1.94,1.58-3.32,4.69-3.32
				c2.45,0,4.74,0.51,6.38,1.89l3.26-3.32c-2.4-2.09-5.71-2.9-9.58-2.9c-5.4,0-9.74,2.85-9.74,7.89c0,4.54,2.81,6.74,7.65,7.14
				l4.13,0.35c2.5,0.2,3.47,1.33,3.47,3.06c0,2.45-2.5,3.57-5.66,3.57c-2.55,0-5.35-0.56-7.44-2.7l-3.41,3.41
				c3.06,3.01,6.63,3.72,10.86,3.72C347.33,190.87,351.92,188.07,351.92,182.66 M319.09,181.24c0,1.84-0.35,3.06-1.12,3.83
				c-1.37,1.33-2.86,1.48-4.85,1.48c-3.26,0-4.74-1.33-4.74-3.68c0-2.35,1.58-3.72,4.64-3.72h6.07V181.24z M324.28,190.56v-17.28
				c0-5.87-3.56-8.87-10.65-8.87c-4.28,0-6.83,0.86-9.27,3.71l3.41,3.21c1.43-1.84,2.81-2.5,5.66-2.5c4.03,0,5.66,1.58,5.66,4.85
				v1.84h-6.83c-5.91,0-8.92,3.1-8.92,7.44c0,2.19,0.71,4.19,2.04,5.56c1.58,1.58,3.71,2.34,6.93,2.34c3.21,0,5-0.76,6.89-2.65v2.34
				H324.28z M299.05,190.56v-4.43h-2.3c-2.09,0-2.8-1.02-2.8-3.01v-28.86h-5.19v29.16c0,3.82,2.14,7.13,7.08,7.13H299.05z
				 M283.75,190.56l-13-22.07l11.78-14.22h-6.73l-14.83,18.25v-18.25h-5.5v36.29h5.5v-10.55l6.12-7.34l10.2,17.89H283.75z"/>
		</g>
		<g style="clip-path:url(#SVGID_00000061438871118115028990000010909042657251763104_);">
			<path class="st3" d="M673.26,717.04v-4.64h-21.62v10.35h5v-5.71h11.06l-12.18,31.66h5.61L673.26,717.04z M633.29,745.34
				l-3.52-3.47c-1.58,1.58-2.65,2.5-5,2.5c-4.18,0-6.32-2.91-6.32-8.62c0-5.61,2.14-8.57,6.32-8.57c2.29,0,3.47,0.92,5,2.45
				l3.52-3.41c-1.63-1.63-2.45-2.19-3.82-2.8c-1.33-0.56-2.86-0.86-4.64-0.86c-7.23,0-11.57,4.94-11.57,13.1
				c0,8.41,4.28,13.35,11.57,13.35c1.79,0,3.26-0.25,4.64-0.86C630.84,747.53,631.66,746.97,633.29,745.34 M600.92,739.37
				c0,3.77-1.63,5.31-5.66,5.31c-3.52,0-5.1-1.18-5.1-3.68c0-2.45,1.58-3.67,4.64-3.67h6.12V739.37z M606.07,748.7v-17.28
				c0-5.87-3.62-8.87-10.81-8.87c-2.45,0-4.28,0.31-5.76,1.01c-1.27,0.56-1.93,1.18-3.36,2.7l3.41,3.21
				c0.76-0.97,1.33-1.48,2.09-1.84c0.92-0.46,1.99-0.67,3.47-0.67c4.08,0,5.81,1.43,5.81,4.8v1.89h-6.94c-5.51,0-8.87,2.8-8.87,7.49
				c0,5,3.21,7.8,8.97,7.8c3.06,0,4.74-0.46,6.89-2.6v2.34H606.07z M578.23,748.7v-25.84h-17.69v10.75c0,10-2.65,10.51-4.89,10.51
				h-0.82v4.58h2.45c5.04,0,8.25-2.85,8.25-13.81v-7.5h7.5v21.31H578.23z M532.14,748.7v-18.96l14.63,18.96h6.99l-15.25-19.16
				l13.97-17.13h-6.78l-13.56,17.23V712.4h-5.5v36.29H532.14z M508.64,708.63h-5l-14.53,43.84h5L508.64,708.63z M473.52,717.04
				v-4.64H451.9v10.35h5v-5.71h11.06l-12.18,31.66h5.61L473.52,717.04z M427.52,733.67H415.9c0.05-1.58,0.16-2.35,0.67-3.52
				c0.82-1.94,2.7-3.27,5.15-3.27c2.45,0,4.28,1.33,5.1,3.27C427.32,731.32,427.47,732.08,427.52,733.67 M432.68,737.28v-2.29
				c0-7.34-4.03-12.43-10.96-12.43c-6.63,0-10.95,4.84-10.95,13.2c0,9.84,5.14,13.25,11.62,13.25c4.53,0,7.04-1.37,9.69-4.02
				l-3.32-3.11c-1.84,1.84-3.36,2.65-6.27,2.65c-4.23,0-6.58-2.81-6.58-7.24H432.68z M405.25,740.8c0-4.59-2.86-6.89-7.7-7.29
				l-4.08-0.35c-2.75-0.26-3.57-1.43-3.57-2.96c0-1.94,1.58-3.32,4.69-3.32c2.45,0,4.74,0.51,6.37,1.89l3.26-3.32
				c-2.39-2.09-5.71-2.9-9.58-2.9c-5.4,0-9.74,2.85-9.74,7.89c0,4.54,2.8,6.74,7.65,7.14l4.13,0.35c2.5,0.2,3.47,1.33,3.47,3.06
				c0,2.45-2.5,3.57-5.66,3.57c-2.55,0-5.36-0.56-7.44-2.7l-3.42,3.42c3.06,3,6.63,3.71,10.86,3.71
				C400.66,749,405.25,746.2,405.25,740.8 M379.6,740.8c0-4.59-2.86-6.89-7.7-7.29l-4.08-0.35c-2.75-0.26-3.57-1.43-3.57-2.96
				c0-1.94,1.58-3.32,4.69-3.32c2.45,0,4.74,0.51,6.38,1.89l3.26-3.32c-2.4-2.09-5.71-2.9-9.58-2.9c-5.4,0-9.74,2.85-9.74,7.89
				c0,4.54,2.81,6.74,7.65,7.14l4.13,0.35c2.5,0.2,3.47,1.33,3.47,3.06c0,2.45-2.5,3.57-5.66,3.57c-2.55,0-5.35-0.56-7.44-2.7
				l-3.41,3.42c3.06,3,6.63,3.71,10.86,3.71C375.02,749,379.6,746.2,379.6,740.8 M346.77,739.37c0,1.84-0.35,3.06-1.12,3.83
				c-1.37,1.33-2.86,1.48-4.85,1.48c-3.26,0-4.74-1.33-4.74-3.68c0-2.35,1.58-3.72,4.64-3.72h6.07V739.37z M351.97,748.7v-17.28
				c0-5.87-3.56-8.87-10.65-8.87c-4.28,0-6.83,0.86-9.27,3.71l3.41,3.21c1.43-1.84,2.81-2.5,5.66-2.5c4.03,0,5.66,1.58,5.66,4.85
				v1.84h-6.83c-5.91,0-8.92,3.1-8.92,7.44c0,2.2,0.71,4.19,2.04,5.56c1.58,1.58,3.71,2.34,6.93,2.34s5-0.76,6.89-2.65v2.34H351.97z
				 M326.73,748.7v-4.43h-2.3c-2.09,0-2.8-1.02-2.8-3.01V712.4h-5.19v29.16c0,3.82,2.14,7.13,7.08,7.13H326.73z M311.44,748.7
				l-13-22.07l11.78-14.22h-6.73l-14.83,18.25V712.4h-5.5v36.29h5.5v-10.55l6.12-7.34l10.2,17.89H311.44z"/>
		</g>
	</g>
	<g>
		<polygon class="st4" points="19.8,718.33 35.15,718.33 27.48,708.18 		"/>
	</g>
	<g>
		<polygon class="st4" points="19.8,738.52 35.15,738.52 27.48,728.37 		"/>
	</g>
	<g>
		<polygon class="st4" points="19.8,758.7 35.15,758.7 27.48,748.55 		"/>
	</g>
	<g>
		<polygon class="st4" points="19.8,698.15 35.15,698.15 27.48,688 		"/>
	</g>
	<g>
		<polygon class="st4" points="19.8,823.11 35.15,823.11 27.48,812.96 		"/>
	</g>
	<g>
		<polygon class="st4" points="19.8,843.29 35.15,843.29 27.48,833.14 		"/>
	</g>
	<g>
		<polygon class="st4" points="19.8,863.48 35.15,863.48 27.48,853.33 		"/>
	</g>
	<g>
		<polygon class="st4" points="19.8,802.92 35.15,802.92 27.48,792.77 		"/>
	</g>
	<g>
		<polygon class="st4" points="19.8,940.24 35.15,940.24 27.48,930.09 		"/>
	</g>
	<g>
		<polygon class="st4" points="19.8,960.43 35.15,960.43 27.48,950.28 		"/>
	</g>
	<g>
		<polygon class="st4" points="19.8,980.61 35.15,980.61 27.48,970.47 		"/>
	</g>
	<g>
		<polygon class="st4" points="19.8,920.06 35.15,920.06 27.48,909.91 		"/>
	</g>
	<g>
		<polygon class="st4" points="19.8,611.85 35.15,611.85 27.48,601.7 		"/>
	</g>
	<g>
		<polygon class="st4" points="19.8,632.03 35.15,632.03 27.48,621.89 		"/>
	</g>
	<g>
		<polygon class="st4" points="19.8,652.22 35.15,652.22 27.48,642.07 		"/>
	</g>
	<g>
		<polygon class="st4" points="19.8,591.66 35.15,591.66 27.48,581.51 		"/>
	</g>
	<g>
		<polygon class="st4" points="19.8,497.54 35.15,497.54 27.48,487.39 		"/>
	</g>
	<g>
		<polygon class="st4" points="19.8,517.72 35.15,517.72 27.48,507.58 		"/>
	</g>
	<g>
		<polygon class="st4" points="19.8,537.91 35.15,537.91 27.48,527.76 		"/>
	</g>
	<g>
		<polygon class="st4" points="19.8,477.35 35.15,477.35 27.48,467.2 		"/>
	</g>
	<g>
		<polygon class="st4" points="19.8,384.57 35.15,384.57 27.48,374.42 		"/>
	</g>
	<g>
		<polygon class="st4" points="19.8,404.75 35.15,404.75 27.48,394.6 		"/>
	</g>
	<g>
		<polygon class="st4" points="19.8,424.94 35.15,424.94 27.48,414.79 		"/>
	</g>
	<g>
		<polygon class="st4" points="19.8,364.38 35.15,364.38 27.48,354.23 		"/>
	</g>
	<g>
		<polygon class="st4" points="19.8,274.28 35.15,274.28 27.48,264.14 		"/>
	</g>
	<g>
		<polygon class="st4" points="19.8,294.47 35.15,294.47 27.48,284.32 		"/>
	</g>
	<g>
		<polygon class="st4" points="19.8,314.66 35.15,314.66 27.48,304.51 		"/>
	</g>
	<g>
		<polygon class="st4" points="19.8,254.1 35.15,254.1 27.48,243.95 		"/>
	</g>
	<g>
		<polygon class="st4" points="19.8,162.66 35.15,162.66 27.48,152.51 		"/>
	</g>
	<g>
		<polygon class="st4" points="19.8,182.84 35.15,182.84 27.48,172.69 		"/>
	</g>
	<g>
		<polygon class="st4" points="19.8,203.03 35.15,203.03 27.48,192.88 		"/>
	</g>
	<g>
		<polygon class="st4" points="19.8,142.47 35.15,142.47 27.48,132.32 		"/>
	</g>
</g>
</svg>
