<?xml version="1.0" encoding="utf-8"?>
<!-- Generator: Adobe Illustrator 26.2.1, SVG Export Plug-In . SVG Version: 6.00 Build 0)  -->
<svg version="1.1" id="Ebene_1" xmlns="http://www.w3.org/2000/svg" xmlns:xlink="http://www.w3.org/1999/xlink" x="0px" y="0px"
	 viewBox="0 0 1000 702.95" style="enable-background:new 0 0 1000 702.95;" xml:space="preserve">
<style type="text/css">
	.st0{fill:#A2B9E1;}
	.st1{fill:#6796CF;}
	.st2{clip-path:url(#SVGID_00000044164189325249906410000003376279373621231776_);}
	.st3{fill:#2B2961;}
	.st4{fill:#FFFFFF;}
	.st5{clip-path:url(#SVGID_00000156587523974674000110000001892355600441432981_);}
	.st6{clip-path:url(#SVGID_00000005963467146740704130000002036314884164037262_);}
	.st7{clip-path:url(#SVGID_00000104686497730645399550000007755415493664580770_);}
	.st8{clip-path:url(#SVGID_00000158022304463235890300000006510016723105453730_);}
	.st9{clip-path:url(#SVGID_00000039100754810795485240000012491966961968388744_);}
	.st10{opacity:0.52;clip-path:url(#SVGID_00000111908125678958759020000001136390109516413107_);}
	.st11{clip-path:url(#SVGID_00000172410057065072762810000000628792159207421361_);}
	.st12{clip-path:url(#SVGID_00000021082596105573692720000016154618851339378600_);}
	.st13{clip-path:url(#SVGID_00000004504022853722401900000008016562242768009150_);}
	.st14{clip-path:url(#SVGID_00000113324779549511281700000010764576727247662724_);}
	.st15{clip-path:url(#SVGID_00000158748074705318838220000017134058254004726401_);}
	.st16{clip-path:url(#SVGID_00000110442814573798009950000007578196046362865078_);}
	.st17{clip-path:url(#SVGID_00000088817077679090599760000011405954241323073199_);}
	.st18{clip-path:url(#SVGID_00000091009347040880630990000004026850825681203377_);}
	.st19{clip-path:url(#SVGID_00000030488886166932402820000015512332365131983750_);}
	.st20{clip-path:url(#SVGID_00000100353073483695837630000003162558760069656757_);}
	.st21{clip-path:url(#SVGID_00000099664269295778780300000008779821131758614448_);}
	.st22{clip-path:url(#SVGID_00000079476189762164710610000001246678229003432628_);}
	.st23{fill:none;stroke:#2B2961;stroke-width:0.374;stroke-linejoin:round;stroke-miterlimit:10;}
	.st24{fill:none;stroke:#2B2961;stroke-width:0.4;stroke-miterlimit:10;}
	.st25{clip-path:url(#SVGID_00000164488379214590502680000011972560590183946626_);}
	.st26{clip-path:url(#SVGID_00000087382781965257036820000011022653719893313922_);}
	.st27{clip-path:url(#SVGID_00000066475259311055266620000001389918581531454356_);}
	.st28{clip-path:url(#SVGID_00000044138960469755058470000017059871244472337803_);}
	.st29{clip-path:url(#SVGID_00000034807513103432925390000004249482078875158202_);}
	.st30{clip-path:url(#SVGID_00000034050550031443936050000011281064470454067608_);}
	.st31{clip-path:url(#SVGID_00000014629723952536712030000005703745183515692449_);}
	.st32{clip-path:url(#SVGID_00000057114071467951842890000018344377840862391961_);}
	.st33{clip-path:url(#SVGID_00000111154996926803088080000006099268007258974339_);}
	.st34{clip-path:url(#SVGID_00000116202694339379679770000015036842346231347382_);}
	.st35{clip-path:url(#SVGID_00000039815750315973166840000015139206661083464633_);}
	.st36{clip-path:url(#SVGID_00000169518218481678467890000005014910967122854556_);}
	.st37{clip-path:url(#SVGID_00000176747748696881919330000005697425767746281102_);}
	.st38{clip-path:url(#SVGID_00000083079934711426327600000011974795133972111751_);}
	.st39{clip-path:url(#SVGID_00000046303710008001464740000007736574961539945897_);}
	.st40{clip-path:url(#SVGID_00000145740266333922481140000016074799892591724983_);}
	.st41{clip-path:url(#SVGID_00000181079547598109056810000010525157913540562823_);}
	.st42{clip-path:url(#SVGID_00000064342892888259083490000015688384099088711580_);}
	.st43{clip-path:url(#SVGID_00000033331297705359697370000018139072834116715961_);}
	.st44{clip-path:url(#SVGID_00000175281756948711161260000008811195727478539905_);}
	.st45{clip-path:url(#SVGID_00000035532642838985587970000010413691898571153064_);}
	.st46{clip-path:url(#SVGID_00000130647758769507164420000015465159111388049813_);}
	.st47{clip-path:url(#SVGID_00000134939817196971288330000009702342815765802668_);}
	.st48{clip-path:url(#SVGID_00000143613376915213195340000013626053430531748282_);}
	.st49{clip-path:url(#SVGID_00000078749910115358980720000000685809679108192685_);}
	.st50{clip-path:url(#SVGID_00000084490272315232539840000007979857511769165206_);}
	.st51{clip-path:url(#SVGID_00000121963354805123865290000001002843291437610638_);}
	.st52{clip-path:url(#SVGID_00000041988364842954110450000016008972406320947892_);}
	.st53{clip-path:url(#SVGID_00000135661177438271493330000018008297164842655886_);}
	.st54{clip-path:url(#SVGID_00000077297326617996424290000017513880408811109272_);}
	.st55{clip-path:url(#SVGID_00000086652517426822609380000008342154423940460951_);}
	.st56{clip-path:url(#SVGID_00000163775784472681209530000010440125441497197467_);}
	.st57{clip-path:url(#SVGID_00000016053129312081218700000000946450707013937314_);}
	.st58{clip-path:url(#SVGID_00000077295967805264086060000004352609519086856583_);}
	.st59{clip-path:url(#SVGID_00000063614751003965255880000005140463520464757662_);}
	.st60{clip-path:url(#SVGID_00000050644327204933284420000003323250862335875991_);}
	.st61{clip-path:url(#SVGID_00000179641282368997224940000001653578565241828745_);}
	.st62{fill:#9AB4DE;}
	.st63{clip-path:url(#SVGID_00000046297282523804681610000000258534994346505118_);}
	.st64{clip-path:url(#SVGID_00000070117098577348846480000011605126430282542227_);}
	.st65{clip-path:url(#SVGID_00000152235661325581100940000002194303234857121458_);}
	.st66{fill:#B9C9E9;}
	.st67{clip-path:url(#SVGID_00000045619595112749751640000000941002931025515934_);}
	.st68{clip-path:url(#SVGID_00000083801190863311734940000017592160212780343948_);}
	.st69{clip-path:url(#SVGID_00000123417842124121757570000008966087478927056046_);}
	.st70{clip-path:url(#SVGID_00000110436628862242565910000016276086383234003088_);}
	.st71{clip-path:url(#SVGID_00000027589481350190842390000016863739471721262758_);}
	.st72{clip-path:url(#SVGID_00000073696227094755715610000005462574810223647886_);}
	.st73{clip-path:url(#SVGID_00000011741210020525727570000012150077598443815078_);}
	.st74{clip-path:url(#SVGID_00000183230241280050492750000006988415624930742715_);}
	.st75{clip-path:url(#SVGID_00000044856354451356308300000002882990215699914171_);}
	.st76{clip-path:url(#SVGID_00000119112113722618511730000017605678636698189192_);}
	.st77{clip-path:url(#SVGID_00000153692188635656662630000011893680899444223631_);}
	.st78{clip-path:url(#SVGID_00000169538274630411846720000006695545974195099273_);}
	.st79{clip-path:url(#SVGID_00000119115756950772959570000013658223498727188099_);}
	.st80{clip-path:url(#SVGID_00000137122909424241171540000015655973677139900579_);}
	.st81{clip-path:url(#SVGID_00000004515151543874862440000017904206925982282882_);}
	.st82{clip-path:url(#SVGID_00000169525799672607496510000007866812635883024566_);}
	.st83{clip-path:url(#SVGID_00000058563208961925706640000009857194437687024545_);}
	.st84{clip-path:url(#SVGID_00000064347115269101958040000013410955333196228489_);}
	.st85{clip-path:url(#SVGID_00000052090432090895059100000017512129408175776950_);}
	.st86{clip-path:url(#SVGID_00000077307609506711006770000013187741711575585178_);}
	.st87{clip-path:url(#SVGID_00000001663935525113115590000000283888386753925815_);}
	.st88{clip-path:url(#SVGID_00000152981947316967662830000017121715200796126112_);}
	.st89{clip-path:url(#SVGID_00000062886946686333280330000016729431752089055122_);}
	.st90{clip-path:url(#SVGID_00000006694377943290300080000001458979712735098259_);}
	.st91{clip-path:url(#SVGID_00000037675842620565010180000008608130840184576898_);}
	.st92{clip-path:url(#SVGID_00000067195315227343080570000013578160793498453923_);}
	.st93{clip-path:url(#SVGID_00000071537595065943001090000011349390914569765308_);}
	.st94{clip-path:url(#SVGID_00000168076362252155654560000015978537060861840536_);}
	.st95{clip-path:url(#SVGID_00000007392725936569922040000018258327197414227587_);}
	.st96{clip-path:url(#SVGID_00000024680006477920694460000004586144583102753213_);}
	.st97{clip-path:url(#SVGID_00000008864683019455980500000012189427407562283702_);}
	.st98{clip-path:url(#SVGID_00000111165001893823134220000012618934775640117376_);}
	.st99{clip-path:url(#SVGID_00000095320090853405075440000005865968450518646696_);}
	.st100{clip-path:url(#SVGID_00000067233784950881415420000005203555952417886598_);}
	.st101{clip-path:url(#SVGID_00000144336733345515230610000007660098529351856026_);}
	.st102{clip-path:url(#SVGID_00000062873617300632394240000011445692362925899700_);}
	.st103{clip-path:url(#SVGID_00000053539350481863781780000006892356227079175862_);}
	.st104{clip-path:url(#SVGID_00000160182899424723306420000013665276036821563302_);}
	.st105{clip-path:url(#SVGID_00000013170336162043832390000001376700767903976323_);}
	.st106{clip-path:url(#SVGID_00000093175704003043155860000003332103317847213484_);}
	.st107{clip-path:url(#SVGID_00000036234853593555638750000005259236600133359744_);}
	.st108{clip-path:url(#SVGID_00000033336018089457860730000000546602835298840449_);}
	.st109{clip-path:url(#SVGID_00000116235907805674448430000017327335731712873388_);}
	.st110{clip-path:url(#SVGID_00000070117136185718746330000006607820584853114242_);}
	.st111{clip-path:url(#SVGID_00000062173894137753939050000013961170121457580197_);}
	.st112{clip-path:url(#SVGID_00000177479876534962281110000016226381895540030347_);}
	.st113{clip-path:url(#SVGID_00000028293716202576696090000007026732209127968944_);}
	.st114{clip-path:url(#SVGID_00000085963379183408517830000003116683679059525257_);}
	.st115{clip-path:url(#SVGID_00000105397631170450862090000004002187900116138627_);}
	.st116{clip-path:url(#SVGID_00000042708955767372512960000016930575309162052488_);}
	.st117{clip-path:url(#SVGID_00000107562249532767632800000012193514964631289501_);}
	.st118{clip-path:url(#SVGID_00000111877239334619534100000011715024874343635614_);}
	.st119{clip-path:url(#SVGID_00000123407807494499133560000013940908218727230337_);}
	.st120{clip-path:url(#SVGID_00000038374088544830379280000009906292135466030213_);}
	.st121{clip-path:url(#SVGID_00000029023864793869253480000013261357742906602632_);}
	.st122{clip-path:url(#SVGID_00000064336052928749541300000000644521374093809280_);}
	.st123{clip-path:url(#SVGID_00000005978201468039351110000009647761262220087969_);}
	.st124{clip-path:url(#SVGID_00000085949674652012927310000011263105120072725400_);}
	.st125{clip-path:url(#SVGID_00000141451971324504523600000007584793711144786856_);}
	.st126{clip-path:url(#SVGID_00000111895298529565668690000009460656540524569474_);}
	.st127{clip-path:url(#SVGID_00000000189693165539623220000010944284435373968786_);}
	.st128{clip-path:url(#SVGID_00000088130570593806678160000004686364662519873432_);}
	.st129{clip-path:url(#SVGID_00000183227347645517026820000009664710605829935794_);}
	.st130{clip-path:url(#SVGID_00000101100928555866080620000012112384927711905168_);}
	.st131{clip-path:url(#SVGID_00000025444217827913800150000010516369712114709632_);}
	.st132{clip-path:url(#SVGID_00000013877600575329430690000016988776049343946368_);}
	.st133{clip-path:url(#SVGID_00000096753006418885974090000017102560106212913830_);}
	.st134{clip-path:url(#SVGID_00000077318774866650534730000000946282496560908719_);}
	.st135{clip-path:url(#SVGID_00000000916633547833535400000010702815728414761357_);}
	.st136{clip-path:url(#SVGID_00000165233996918606212320000007498403708815687577_);}
	.st137{clip-path:url(#SVGID_00000107551104447490082960000000973519940083699602_);}
	.st138{clip-path:url(#SVGID_00000098217297343450303330000010909798332747954311_);}
	.st139{clip-path:url(#SVGID_00000096044324946716703740000000209964741445621177_);}
	.st140{clip-path:url(#SVGID_00000077314219096411566550000005352871035232891579_);}
	.st141{clip-path:url(#SVGID_00000083074919176677482080000009610402652649793927_);}
	.st142{clip-path:url(#SVGID_00000093153328354554722830000005266515720467742900_);}
	.st143{clip-path:url(#SVGID_00000085947636318878022720000018306334931465489041_);}
	.st144{clip-path:url(#SVGID_00000149346674402805957220000005338240368895387567_);}
	.st145{clip-path:url(#SVGID_00000108288424780534860280000011756823510518272415_);}
	.st146{clip-path:url(#SVGID_00000171683269713722899530000016749993426637883326_);}
	.st147{clip-path:url(#SVGID_00000058564825993030703080000000535772625656553109_);}
	.st148{clip-path:url(#SVGID_00000072992593289340725690000007997386236298593975_);}
	.st149{clip-path:url(#SVGID_00000062172396121337650070000007938084353259125925_);}
	.st150{clip-path:url(#SVGID_00000177481026967236223330000013574024002564275082_);}
	.st151{clip-path:url(#SVGID_00000148637418318722685510000000251076641683824567_);}
	.st152{clip-path:url(#SVGID_00000124156742348640509180000012804058563456610459_);}
	.st153{clip-path:url(#SVGID_00000008140392114539383130000011328336704259700926_);}
	.st154{clip-path:url(#SVGID_00000126282362375658372420000006943644132195304634_);}
	.st155{clip-path:url(#SVGID_00000150825340416013664900000003299280869630249137_);}
	.st156{clip-path:url(#SVGID_00000055696885482878439540000009817009894198326151_);}
	.st157{clip-path:url(#SVGID_00000043455275211534605440000008749697305968542884_);}
	.st158{clip-path:url(#SVGID_00000017480426664978166040000015003393590884162979_);}
	.st159{clip-path:url(#SVGID_00000108273846356364046940000004734721103885840289_);}
	.st160{clip-path:url(#SVGID_00000075151916608592913280000000223946090050929286_);}
	.st161{clip-path:url(#SVGID_00000143602688976951481510000013845492215143313314_);}
	.st162{clip-path:url(#SVGID_00000026156946758021550010000016037670744030364588_);}
	.st163{clip-path:url(#SVGID_00000072997607079998246480000002727882702427741085_);}
	.st164{clip-path:url(#SVGID_00000090265273973731686740000016483666574389485743_);}
	.st165{clip-path:url(#SVGID_00000078742302918110708150000009610655647139803033_);}
	.st166{clip-path:url(#SVGID_00000049206810961423165650000000875733019803140264_);}
	.st167{clip-path:url(#SVGID_00000129169897280887457210000013388756724278771898_);}
	.st168{clip-path:url(#SVGID_00000120555662175869303460000003900433637769247136_);}
	.st169{clip-path:url(#SVGID_00000147921688282096354550000013712455820775031224_);}
	.st170{clip-path:url(#SVGID_00000135669847189961336440000001784831571804774836_);}
	.st171{clip-path:url(#SVGID_00000005242847810325469710000007345299207515815088_);}
	.st172{clip-path:url(#SVGID_00000077311878425266651510000010978938498292989866_);}
	.st173{clip-path:url(#SVGID_00000138569164391582292110000016008850421925342854_);}
	.st174{clip-path:url(#SVGID_00000041260405753606315340000013889920732378118019_);}
	.st175{clip-path:url(#SVGID_00000168109228384473511460000016485090635903874445_);}
	.st176{clip-path:url(#SVGID_00000094583508883730211560000002357418375461392280_);}
	.st177{clip-path:url(#SVGID_00000057847183254395924950000016900939496849351045_);}
	.st178{clip-path:url(#SVGID_00000001625066166357759730000014384415465148583320_);}
	.st179{clip-path:url(#SVGID_00000058565481364817623880000002873322686013933737_);}
	.st180{clip-path:url(#SVGID_00000160877315216971276430000004831840806032169140_);}
	.st181{clip-path:url(#SVGID_00000163074192882319553540000004322395587368698754_);}
	.st182{clip-path:url(#SVGID_00000048485357092016685320000015135338310921193887_);}
	.st183{clip-path:url(#SVGID_00000110472431223098184300000001795128350986144184_);}
	.st184{clip-path:url(#SVGID_00000127008309226978023790000009518535619806809006_);}
	.st185{clip-path:url(#SVGID_00000011716959372863185040000004843413341376304546_);}
	.st186{clip-path:url(#SVGID_00000139254315753420303220000005887412120320425103_);}
	.st187{clip-path:url(#SVGID_00000096041744663491667790000013516683875172082059_);}
	.st188{clip-path:url(#SVGID_00000022528797832412381550000008280843371223493015_);}
	.st189{clip-path:url(#SVGID_00000172433325166737464230000016389823663423907258_);}
	.st190{clip-path:url(#SVGID_00000008852791336570216780000000411396517764216761_);}
	.st191{clip-path:url(#SVGID_00000134961683477643809480000011507892402895783837_);}
	.st192{clip-path:url(#SVGID_00000145756791218602586900000008939486356969948814_);}
	.st193{clip-path:url(#SVGID_00000182504894744959382880000016236482089234231729_);}
	.st194{clip-path:url(#SVGID_00000160901794480821542810000003684596762751813052_);}
	.st195{clip-path:url(#SVGID_00000039837093893719780880000005972898020063535756_);}
	.st196{clip-path:url(#SVGID_00000059299970236287406170000018349987457878102913_);}
	.st197{clip-path:url(#SVGID_00000145048791806974356190000012219280979207583405_);}
	.st198{clip-path:url(#SVGID_00000152266068485228466810000002162027951530539435_);}
	.st199{clip-path:url(#SVGID_00000137825353627614364330000009163626178690400171_);}
	.st200{clip-path:url(#SVGID_00000127762707388704867510000004405292323051218085_);}
	.st201{clip-path:url(#SVGID_00000168109197038890551510000009958957149006161596_);}
	.st202{clip-path:url(#SVGID_00000131360788419667218370000010185320724716432280_);}
	.st203{clip-path:url(#SVGID_00000070089998848061544670000006839529834951711387_);}
	.st204{clip-path:url(#SVGID_00000158015629483108697650000001542625125835138741_);}
	.st205{clip-path:url(#SVGID_00000105393481216680860420000011994892080574889875_);}
	.st206{clip-path:url(#SVGID_00000073716186826906459760000017727379974036041872_);}
	.st207{clip-path:url(#SVGID_00000034054470673967858820000004391159136354514351_);}
	.st208{clip-path:url(#SVGID_00000092416412989294341230000011102656800365454746_);}
	.st209{clip-path:url(#SVGID_00000034055261317707104810000008395639545801276855_);}
	.st210{clip-path:url(#SVGID_00000181066147854801923460000009596066173208848014_);}
	.st211{clip-path:url(#SVGID_00000056413267204852074090000005648325695854436012_);}
	.st212{clip-path:url(#SVGID_00000149381421911980146060000010401534347063308203_);}
	.st213{clip-path:url(#SVGID_00000008867089141888611360000014667182223629271686_);}
	.st214{clip-path:url(#SVGID_00000054225584998636899690000000620464980382321571_);}
	.st215{clip-path:url(#SVGID_00000056427685326554051710000001576827994407574412_);}
	.st216{clip-path:url(#SVGID_00000093890665568726930700000008527068428998354822_);}
	.st217{clip-path:url(#SVGID_00000116924442003069448040000014718089914261653129_);}
	.st218{clip-path:url(#SVGID_00000006682756601226118390000015253086794733115822_);}
	.st219{clip-path:url(#SVGID_00000031911781985086563170000016101992461825784504_);}
	.st220{clip-path:url(#SVGID_00000065768465782705040500000014961223208924247459_);}
	.st221{clip-path:url(#SVGID_00000018228845902468802640000010933730934463973803_);}
	.st222{clip-path:url(#SVGID_00000042727593019401178090000015644811216733491076_);}
	.st223{clip-path:url(#SVGID_00000075161493532056132230000009048527191579866527_);}
	.st224{clip-path:url(#SVGID_00000025433338072923899870000010694251445318386851_);}
	.st225{clip-path:url(#SVGID_00000005947601691521615300000009568289953224520886_);}
	.st226{clip-path:url(#SVGID_00000158709566883195734860000001660484808814709927_);}
	.st227{clip-path:url(#SVGID_00000022556596506158301430000001164766241919076521_);}
	.st228{clip-path:url(#SVGID_00000026872025760085937350000008334848778779781030_);}
	.st229{clip-path:url(#SVGID_00000041276965069550407660000014601861032585228723_);}
	.st230{clip-path:url(#SVGID_00000165226729709999146720000003288372488737994888_);}
	.st231{clip-path:url(#SVGID_00000097502537551059189630000005877091307784286393_);}
	.st232{clip-path:url(#SVGID_00000052799745948047282980000008289207854178695866_);}
	.st233{clip-path:url(#SVGID_00000000182984765494011230000004844379222437878711_);}
	.st234{clip-path:url(#SVGID_00000165228453841182836470000001456462433039408815_);}
	.st235{clip-path:url(#SVGID_00000063613507097889388980000005581783781241789328_);}
	.st236{clip-path:url(#SVGID_00000051373002177331304620000010108422807113104560_);}
	.st237{clip-path:url(#SVGID_00000102507309273313236150000012980345912295794853_);}
	.st238{clip-path:url(#SVGID_00000044886191629659756650000015002689721275486136_);}
	.st239{clip-path:url(#SVGID_00000047775093036347886020000001538559167349812107_);}
	.st240{clip-path:url(#SVGID_00000023256810604564731630000016448956825299316159_);}
	.st241{clip-path:url(#SVGID_00000038384894657614077590000010769752590955948983_);}
	.st242{clip-path:url(#SVGID_00000101101763786640844680000018275796299745694094_);}
	.st243{clip-path:url(#SVGID_00000066483383014798040040000000257245327176837766_);}
	.st244{clip-path:url(#SVGID_00000080919163901062731070000016853047318057433499_);}
	.st245{clip-path:url(#SVGID_00000024715624007966186500000006557152324310691002_);}
	.st246{clip-path:url(#SVGID_00000042000429330036587550000011817621254484899754_);}
	.st247{clip-path:url(#SVGID_00000064316059551556112550000005797184277391942541_);}
	.st248{clip-path:url(#SVGID_00000167368732166488440390000013536598538445222293_);}
	.st249{clip-path:url(#SVGID_00000041282384501446606860000005321576114567836825_);}
	.st250{clip-path:url(#SVGID_00000049940286604361296690000004378712757598622872_);}
	.st251{clip-path:url(#SVGID_00000106866692524016063660000002450141331293660590_);}
	.st252{clip-path:url(#SVGID_00000025438763362523207720000002845674574176752552_);}
	.st253{clip-path:url(#SVGID_00000139974065145957709660000004484974839639293066_);}
	.st254{clip-path:url(#SVGID_00000132052552422886965490000001309094634433722288_);}
	.st255{clip-path:url(#SVGID_00000091003553521243176460000005335453102175372220_);}
	.st256{clip-path:url(#SVGID_00000018230409706284452950000010079640991941040018_);}
	.st257{clip-path:url(#SVGID_00000111159132192300134540000001490456067066888620_);}
	.st258{clip-path:url(#SVGID_00000107566360757235452270000004784641617320095141_);}
	.st259{clip-path:url(#SVGID_00000163057822641971651740000000936083390397019028_);}
	.st260{clip-path:url(#SVGID_00000069361028764332486780000010519093595185000377_);}
	.st261{clip-path:url(#SVGID_00000155860352244943011170000006124144600570302124_);}
	.st262{clip-path:url(#SVGID_00000171696239711088709400000007757295803834650811_);}
	.st263{clip-path:url(#SVGID_00000059995216246897738150000016048976355620375433_);}
	.st264{clip-path:url(#SVGID_00000057149268056678273370000009086373086748308655_);}
	.st265{clip-path:url(#SVGID_00000128461874524784322500000001246219767516355219_);}
	.st266{clip-path:url(#SVGID_00000103984446053470724530000006532011960979931805_);}
	.st267{clip-path:url(#SVGID_00000069370684330230700850000003641509004355121042_);}
	.st268{clip-path:url(#SVGID_00000060716850890889473850000012861144122089063848_);}
	.st269{clip-path:url(#SVGID_00000007407969926777999230000015174456728685477786_);}
	.st270{clip-path:url(#SVGID_00000078750948784306834620000016980868994893108657_);}
	.st271{clip-path:url(#SVGID_00000129199588622403565360000015741911257311497407_);}
	.st272{clip-path:url(#SVGID_00000124157005042385948550000014349237864074762141_);}
	.st273{clip-path:url(#SVGID_00000064341718816307757690000017039929634069171621_);}
	.st274{clip-path:url(#SVGID_00000087392143024467992070000007990165803107158692_);}
	.st275{clip-path:url(#SVGID_00000103246300203799594780000013874793210145863587_);}
	.st276{clip-path:url(#SVGID_00000019678101071802400180000005374218209397378210_);}
	.st277{clip-path:url(#SVGID_00000054249576352203286000000013712235773943315867_);}
	.st278{clip-path:url(#SVGID_00000046315815773380029680000002787112970884772484_);}
	.st279{clip-path:url(#SVGID_00000132792801191856211590000013423051392064164274_);}
	.st280{clip-path:url(#SVGID_00000072958969872043491200000016230494297945729682_);}
	.st281{clip-path:url(#SVGID_00000069383663114921149980000008277935022303740086_);}
	.st282{clip-path:url(#SVGID_00000100358079594412102200000017390097033292519355_);}
	.st283{clip-path:url(#SVGID_00000011722168259546487890000011855837671790199176_);}
	.st284{clip-path:url(#SVGID_00000057138101505443868540000014173109583021631677_);}
	.st285{clip-path:url(#SVGID_00000178889554000082042110000006598169928994358189_);}
	.st286{clip-path:url(#SVGID_00000147197771299150506060000015221417568585686919_);}
	.st287{clip-path:url(#SVGID_00000105397163958879289460000008971220310237622706_);}
	.st288{clip-path:url(#SVGID_00000164515637839026520060000012570951496429251979_);}
	.st289{clip-path:url(#SVGID_00000047760486232404887740000008843452119920405929_);}
	.st290{clip-path:url(#SVGID_00000026883777437953285100000014855391648299398819_);}
	.st291{clip-path:url(#SVGID_00000120532492369773859780000010554891243857405106_);}
	.st292{clip-path:url(#SVGID_00000011713274217301091650000013549688730136651944_);}
	.st293{clip-path:url(#SVGID_00000067923726789942218020000004658177131778527634_);}
	.st294{clip-path:url(#SVGID_00000089537726055138711390000009667008045700563120_);}
	.st295{clip-path:url(#SVGID_00000178885045854131454520000014914779159635489680_);}
	.st296{clip-path:url(#SVGID_00000101095720078045487060000011892166791721715344_);}
	.st297{clip-path:url(#SVGID_00000104689862275519377700000014728521866862753161_);}
	.st298{clip-path:url(#SVGID_00000131359399781165064960000016766868159001827204_);}
	.st299{clip-path:url(#SVGID_00000083799040165625725830000016023423090989291961_);}
	.st300{clip-path:url(#SVGID_00000093145275904437925980000009104247126329243315_);}
	.st301{clip-path:url(#SVGID_00000087406240015976560060000007851304349313740709_);}
	.st302{clip-path:url(#SVGID_00000031201358403863982560000007494452168180059307_);}
	.st303{clip-path:url(#SVGID_00000152254556443579304440000010952303795644980100_);}
	.st304{clip-path:url(#SVGID_00000155856917005042136820000012147546314534473647_);}
	.st305{clip-path:url(#SVGID_00000117666487558680140060000010898826328599025822_);}
	.st306{clip-path:url(#SVGID_00000028316420712565206610000015289151711351344810_);}
	.st307{clip-path:url(#SVGID_00000157288668581611514610000006752487588159665335_);}
	.st308{clip-path:url(#SVGID_00000003097671040965143450000017685531253581029543_);}
	.st309{clip-path:url(#SVGID_00000056388594937252366460000015335535192125137536_);}
	.st310{clip-path:url(#SVGID_00000047752589565789863470000001668074724862480302_);}
	.st311{clip-path:url(#SVGID_00000171690488164548622580000008785894323146477500_);}
	.st312{clip-path:url(#SVGID_00000013913200755924575700000008183770047262497187_);}
	.st313{clip-path:url(#SVGID_00000078015897743877438160000016127108590463391675_);}
	.st314{clip-path:url(#SVGID_00000041277365432551538570000011963712601624282791_);}
	.st315{clip-path:url(#SVGID_00000144323287678244224090000011299100365430615220_);}
	.st316{clip-path:url(#SVGID_00000157271285505279250900000008830441055733081746_);}
	.st317{clip-path:url(#SVGID_00000035524167382987456140000014383156307639063736_);}
	.st318{clip-path:url(#SVGID_00000018237348651371125380000005470863675860393401_);}
	.st319{clip-path:url(#SVGID_00000049204860815361549550000011806123844299398305_);}
	.st320{clip-path:url(#SVGID_00000000918946669049007060000003699635388579247247_);}
	.st321{clip-path:url(#SVGID_00000145743103511325876560000016668603116801996955_);}
	.st322{clip-path:url(#SVGID_00000022561350373308660310000014733019303569605780_);}
	.st323{clip-path:url(#SVGID_00000056406550912655436430000002347489422954212246_);}
	.st324{clip-path:url(#SVGID_00000114051220035282269550000008851375230536523170_);}
	.st325{clip-path:url(#SVGID_00000136408748060400002770000000380090017507080855_);}
	.st326{clip-path:url(#SVGID_00000081638006716142843610000009353947341043221942_);}
	.st327{clip-path:url(#SVGID_00000120545008336773102100000011342908235773364624_);}
	.st328{clip-path:url(#SVGID_00000114040981236163552040000014146709443474100128_);}
	.st329{clip-path:url(#SVGID_00000154423324320893852320000004778272415626202296_);}
	.st330{clip-path:url(#SVGID_00000036932508374267185080000011680166813921189770_);}
	.st331{clip-path:url(#SVGID_00000005971562712047609570000006767719388757676169_);}
	.st332{clip-path:url(#SVGID_00000176025059065629470460000001688173528772519839_);}
	.st333{clip-path:url(#SVGID_00000127766301527706459830000014911650860338711982_);}
	.st334{clip-path:url(#SVGID_00000054262201471516871870000010188189243868446888_);}
	.st335{clip-path:url(#SVGID_00000109015779021817004350000015453621264558733700_);}
	.st336{clip-path:url(#SVGID_00000181052421135328516510000001643053914053427892_);}
	.st337{clip-path:url(#SVGID_00000101102283705539176260000013517552702552719551_);}
	.st338{clip-path:url(#SVGID_00000165216584352576885870000014406145759711802017_);}
	.st339{clip-path:url(#SVGID_00000082354154292583775780000015976654990767758482_);}
	.st340{clip-path:url(#SVGID_00000018239354646759195860000000320561190395500160_);}
	.st341{clip-path:url(#SVGID_00000023990857613339643430000001381013550632685228_);}
	.st342{clip-path:url(#SVGID_00000060736398709038520640000017583155839987327114_);}
	.st343{clip-path:url(#SVGID_00000158005728710574106360000012933269815685048476_);}
	.st344{clip-path:url(#SVGID_00000044167550864600356230000000910056242329713557_);}
	.st345{clip-path:url(#SVGID_00000183233681907638589280000007310018527379096729_);}
	.st346{clip-path:url(#SVGID_00000034769692374303146280000011639631892704275133_);}
	.st347{clip-path:url(#SVGID_00000003070716197936751870000008495363140929302660_);}
	.st348{clip-path:url(#SVGID_00000048468205407700690680000018345566218307406235_);}
	.st349{clip-path:url(#SVGID_00000163764669469880885740000003706663291522967719_);}
	.st350{clip-path:url(#SVGID_00000168825262440125159360000009612327040350498473_);}
	.st351{clip-path:url(#SVGID_00000175322948696401981160000008635498647379694497_);}
	.st352{clip-path:url(#SVGID_00000134934656506916061120000014286111892754729151_);}
	.st353{clip-path:url(#SVGID_00000035522129156990956540000004911819880699742131_);}
	.st354{clip-path:url(#SVGID_00000021112418767779882090000016944062036033339569_);}
	.st355{clip-path:url(#SVGID_00000015340117974632795760000002925011582063661751_);}
	.st356{clip-path:url(#SVGID_00000125595400141505272350000014802481006945757609_);}
	.st357{clip-path:url(#SVGID_00000066493293489103075970000012300380309321530779_);}
	.st358{clip-path:url(#SVGID_00000109000564756267266630000000164185735605682569_);}
	.st359{clip-path:url(#SVGID_00000098221415915276311480000000933273115458052518_);}
	.st360{clip-path:url(#SVGID_00000043441959731754247300000008414097912267819961_);}
	.st361{clip-path:url(#SVGID_00000119108866003228210610000004246950083424168077_);}
	.st362{clip-path:url(#SVGID_00000021797751054999415500000017295376412438417561_);}
	.st363{clip-path:url(#SVGID_00000033332310413309538170000000589207076420049309_);}
	.st364{clip-path:url(#SVGID_00000106148895288865816310000005931923455205016720_);}
	.st365{clip-path:url(#SVGID_00000069390718050608613340000005680714743540565642_);}
	.st366{clip-path:url(#SVGID_00000132070137527221104870000011389411531310348446_);}
	.st367{clip-path:url(#SVGID_00000178171853938975510360000006376426976003058861_);}
	.st368{clip-path:url(#SVGID_00000126296453926288720570000005225162054416092084_);}
	.st369{clip-path:url(#SVGID_00000092423992247890468510000009836943962812113842_);}
	.st370{clip-path:url(#SVGID_00000089546023320134500970000011511133275360807300_);}
	.st371{clip-path:url(#SVGID_00000011006409797324274840000003258477687201869186_);}
	.st372{clip-path:url(#SVGID_00000078725367128149514460000001369409184904087458_);}
	.st373{clip-path:url(#SVGID_00000004521827010001219910000009576100457458180016_);}
	.st374{clip-path:url(#SVGID_00000059292710790862310510000011291527893912199816_);}
	.st375{clip-path:url(#SVGID_00000138532255842276049300000011288199582724667817_);}
</style>
<g>
	<g>
		<rect x="5.68" y="109.98" class="st0" width="48.54" height="588.48"/>
	</g>
	<g>
		<rect x="5.68" class="st1" width="992.64" height="116.88"/>
	</g>
	<g>
		<defs>
			<rect id="SVGID_00000014627279225420864630000004173029019636584347_" y="0" width="1000" height="702.95"/>
		</defs>
		<clipPath id="SVGID_00000110436752625960168200000002915958131466589062_">
			<use xlink:href="#SVGID_00000014627279225420864630000004173029019636584347_"  style="overflow:visible;"/>
		</clipPath>
		<g style="clip-path:url(#SVGID_00000110436752625960168200000002915958131466589062_);">
			<path class="st3" d="M998.31,702.94H2.81c-0.93,0-1.68-0.75-1.68-1.68V2.81c0-0.93,0.75-1.68,1.68-1.68h995.51
				c0.93,0,1.68,0.75,1.68,1.68v698.45C1000,702.19,999.25,702.94,998.31,702.94z M4.49,699.58h992.14V4.49H4.49V699.58z"/>
		</g>
		<g style="clip-path:url(#SVGID_00000110436752625960168200000002915958131466589062_);">
			<rect x="0" y="115.19" class="st3" width="995.5" height="3.37"/>
		</g>
		<g style="clip-path:url(#SVGID_00000110436752625960168200000002915958131466589062_);">
			<path class="st4" d="M845.81,69.08c0-6.43-3.8-10.45-11.32-11.18l-5.99-0.59c-3.36-0.29-3.94-1.9-3.94-3.29
				c0-1.9,1.61-3.65,5.41-3.65c3.29,0,6.65,0.58,8.84,2.56l5.84-5.91c-3.65-3.43-8.62-4.45-14.54-4.45
				c-7.74,0-14.68,4.23-14.68,12.11c0,7.02,4.24,10.01,11.1,10.67l5.99,0.58c2.99,0.29,4.02,1.61,4.02,3.51
				c0,2.85-3.43,3.95-6.72,3.95c-2.92,0-7.01-0.44-10.15-3.58l-6.21,6.21c4.82,4.82,10.23,5.47,16.22,5.47
				C838.65,81.5,845.81,77.48,845.81,69.08 M808.19,69.08c0-6.43-3.8-10.45-11.32-11.18l-5.99-0.59c-3.36-0.29-3.94-1.9-3.94-3.29
				c0-1.9,1.61-3.65,5.41-3.65c3.29,0,6.65,0.58,8.84,2.56l5.84-5.91c-3.65-3.43-8.62-4.45-14.54-4.45
				c-7.74,0-14.68,4.23-14.68,12.11c0,7.02,4.24,10.01,11.1,10.67l5.99,0.58c2.99,0.29,4.02,1.61,4.02,3.51
				c0,2.85-3.43,3.95-6.72,3.95c-2.92,0-7.01-0.44-10.15-3.58l-6.21,6.21c4.82,4.82,10.23,5.47,16.22,5.47
				C801.03,81.5,808.19,77.48,808.19,69.08 M767.42,81.06V43.01h-9.49v23.01c0,5.19-3.36,6.94-6.36,6.94c-3,0-6.29-1.75-6.29-6.94
				V43.01h-9.49v24.33c0,4.16,0.8,7.74,3.87,10.81c2.11,2.11,5.18,3.35,8.98,3.35c3.51,0,7.02-1.31,9.5-3.94v3.5H767.42z
				 M727.17,81.06v-8.02h-3.65c-2.41,0-3.36-1.17-3.36-3.43V29.06h-9.49v41.13c0,5.4,3.28,10.87,11.09,10.87H727.17z M699.34,81.06
				V56.44c0-8.04-4.38-13.87-12.7-13.87c-3.36,0-6.58,1.31-9.14,3.94V29.06h-9.48v52h9.48V57.83c0-4.97,3.14-6.72,6.14-6.72
				c2.99,0,6.21,1.68,6.21,6.72v23.23H699.34z M659.16,76.32l-6.43-6.36c-1.97,2.12-3.65,3-6.14,3c-2.26,0-4.02-0.8-5.41-2.49
				c-1.46-1.83-2.12-4.46-2.12-8.47c0-4.02,0.66-6.58,2.12-8.41c1.39-1.68,3.14-2.48,5.41-2.48c2.48,0,4.16,0.88,6.14,2.99
				l6.43-6.42c-3.36-3.51-7.3-5.11-12.56-5.11c-7.6,0-17.01,4.01-17.01,19.43c0,15.41,9.41,19.5,17.01,19.5
				C651.86,81.5,655.8,79.82,659.16,76.32 M622.06,69.08c0-6.43-3.8-10.45-11.32-11.18l-5.99-0.59c-3.36-0.29-3.94-1.9-3.94-3.29
				c0-1.9,1.61-3.65,5.41-3.65c3.29,0,6.65,0.58,8.84,2.56l5.84-5.91c-3.65-3.43-8.62-4.45-14.54-4.45
				c-7.74,0-14.68,4.23-14.68,12.11c0,7.02,4.24,10.01,11.1,10.67l5.99,0.58c2.99,0.29,4.02,1.61,4.02,3.51
				c0,2.85-3.43,3.95-6.72,3.95c-2.92,0-7.01-0.44-10.15-3.58l-6.21,6.21c4.82,4.82,10.23,5.47,16.22,5.47
				C614.9,81.5,622.06,77.48,622.06,69.08 M573.41,62c0,6.21-0.73,10.96-6.43,10.96s-6.43-4.75-6.43-10.96
				c0-6.21,0.73-10.89,6.43-10.89S573.41,55.78,573.41,62 M582.9,62c0-5.7-0.07-12.2-3.87-16c-2.12-2.12-5.55-3.43-9.28-3.43
				c-3.87,0-6.72,1.02-9.21,3.79V29.06h-9.48v52h9.19v-3.57c2.64,2.92,5.48,4.01,9.5,4.01c3.73,0,7.16-1.31,9.28-3.43
				C582.83,74.27,582.9,67.7,582.9,62 M529.88,67.03c0,2.34-0.37,3.88-1.39,4.83c-1.68,1.61-3.37,1.83-6,1.83
				c-3.73,0-5.48-1.76-5.48-4.39c0-2.71,1.9-4.32,5.34-4.32h7.53V67.03z M539.36,81.06V56.01c0-8.91-5.55-13.44-16.21-13.44
				c-6.36,0-10.01,1.16-13.73,5.25l6.06,5.92c1.97-2.27,3.65-3.15,7.3-3.15c5.05,0,7.09,1.83,7.09,6v1.9h-8.99
				c-8.84,0-13,4.96-13,11.02c0,3.36,1.1,6.43,3.14,8.55c2.26,2.26,5.4,3.35,9.72,3.35c4.38,0,6.8-1.1,9.36-3.65v3.28H539.36z
				 M501.52,81.06v-8.02h-3.65c-2.41,0-3.36-1.17-3.36-3.43V29.06h-9.48v41.13c0,5.4,3.28,10.87,11.09,10.87H501.52z M473.25,81.06
				V43.01h-9.49v23.01c0,5.19-3.36,6.94-6.36,6.94c-2.99,0-6.29-1.75-6.29-6.94V43.01h-9.48v24.33c0,4.16,0.8,7.74,3.87,10.81
				c2.12,2.11,5.18,3.35,8.98,3.35c3.51,0,7.02-1.31,9.5-3.94v3.5H473.25z M430.38,81.06V56.44c0-8.04-4.38-13.87-12.7-13.87
				c-3.37,0-6.58,1.31-9.14,3.94V29.06h-9.49v52h9.49V57.83c0-4.97,3.14-6.72,6.14-6.72c3,0,6.21,1.68,6.21,6.72v23.23H430.38z
				 M390.2,76.32l-6.43-6.36c-1.97,2.12-3.65,3-6.14,3c-2.26,0-4.02-0.8-5.41-2.49c-1.46-1.83-2.12-4.46-2.12-8.47
				c0-4.02,0.66-6.58,2.12-8.41c1.39-1.68,3.14-2.48,5.41-2.48c2.48,0,4.16,0.88,6.14,2.99l6.43-6.42
				c-3.36-3.51-7.3-5.11-12.56-5.11c-7.6,0-17.01,4.01-17.01,19.43c0,15.41,9.42,19.5,17.01,19.5
				C382.9,81.5,386.84,79.82,390.2,76.32 M353.1,69.08c0-6.43-3.8-10.45-11.32-11.18l-5.99-0.59c-3.36-0.29-3.94-1.9-3.94-3.29
				c0-1.9,1.61-3.65,5.41-3.65c3.29,0,6.65,0.58,8.84,2.56l5.84-5.91c-3.65-3.43-8.62-4.45-14.54-4.45
				c-7.74,0-14.68,4.23-14.68,12.11c0,7.02,4.24,10.01,11.1,10.67l5.99,0.58c2.99,0.29,4.02,1.61,4.02,3.51
				c0,2.85-3.43,3.95-6.72,3.95c-2.92,0-7.01-0.44-10.15-3.58l-6.21,6.21c4.82,4.82,10.23,5.47,16.22,5.47
				C345.94,81.5,353.1,77.48,353.1,69.08 M314.38,81.06v-8.02h-3.43c-2.26,0-3.29-1.24-3.29-3.44V51.33h6.72v-7.22h-6.72V32.86
				h-9.49v11.25h-4.02v7.22h4.02v18.85c0,5.41,3.29,10.88,11.02,10.88H314.38z M277.28,62c0,6.21-0.74,10.96-6.43,10.96
				c-5.7,0-6.43-4.75-6.43-10.96c0-6.21,0.73-10.89,6.43-10.89C276.55,51.11,277.28,55.78,277.28,62 M286.77,62
				c0-5.7-0.07-12.2-3.87-16c-2.12-2.12-5.55-3.43-9.28-3.43c-4.02,0-6.87,1.09-9.5,4.01v-3.57h-9.19v52h9.49V77.7
				c2.48,2.77,5.34,3.79,9.21,3.79c3.73,0,7.16-1.31,9.28-3.43C286.7,74.27,286.77,67.7,286.77,62 M242.79,81.06V43.01h-9.49v23.01
				c0,5.19-3.37,6.94-6.36,6.94c-3,0-6.29-1.75-6.29-6.94V43.01h-9.49v24.33c0,4.16,0.8,7.74,3.87,10.81
				c2.12,2.11,5.18,3.35,8.98,3.35c3.51,0,7.02-1.31,9.51-3.94v3.5H242.79z M190.43,67.03c0,2.34-0.37,3.88-1.39,4.83
				c-1.68,1.61-3.36,1.83-5.99,1.83c-3.73,0-5.48-1.76-5.48-4.39c0-2.71,1.9-4.32,5.34-4.32h7.53V67.03z M199.91,81.06V56.01
				c0-8.91-5.55-13.44-16.21-13.44c-6.36,0-10.01,1.16-13.73,5.25l6.06,5.92c1.97-2.27,3.65-3.15,7.31-3.15c5.04,0,7.09,1.83,7.09,6
				v1.9h-9c-8.83,0-12.99,4.96-12.99,11.02c0,3.36,1.09,6.43,3.14,8.55c2.26,2.26,5.4,3.35,9.71,3.35c4.39,0,6.8-1.1,9.36-3.65v3.28
				H199.91z M158.28,81.06v-52h-10.14v21.26h-17.62V29.06h-10.14v52h10.14V59.29h17.62v21.77H158.28z"/>
		</g>
		<g style="clip-path:url(#SVGID_00000110436752625960168200000002915958131466589062_);">
			<rect x="2.81" y="232.07" class="st3" width="992.7" height="3.37"/>
		</g>
		<g style="clip-path:url(#SVGID_00000110436752625960168200000002915958131466589062_);">
			<rect x="2.81" y="346.13" class="st3" width="992.7" height="3.37"/>
		</g>
		<g style="clip-path:url(#SVGID_00000110436752625960168200000002915958131466589062_);">
			<rect x="2.81" y="468.63" class="st3" width="992.7" height="3.37"/>
		</g>
		<g style="clip-path:url(#SVGID_00000110436752625960168200000002915958131466589062_);">
			<rect x="2.81" y="585.51" class="st3" width="992.7" height="3.37"/>
		</g>
		<g style="clip-path:url(#SVGID_00000110436752625960168200000002915958131466589062_);">
			<path class="st3" d="M725.12,653.24c0,4.8-0.69,9.02-5.61,9.02c-4.91,0-5.66-4.22-5.66-9.02c0-4.81,0.75-8.97,5.66-8.97
				C724.43,644.26,725.12,648.43,725.12,653.24 M730.56,666.79v-38h-5.44v13.66c-1.97-2.34-4.22-3.03-7.1-3.03
				c-2.73,0-5.07,0.9-6.56,2.4c-2.72,2.72-3.04,7.31-3.04,11.42c0,4.11,0.32,8.75,3.04,11.47c1.49,1.49,3.89,2.4,6.62,2.4
				c2.93,0,5.12-0.75,7.15-3.2v2.88H730.56z M696.56,651.05h-12.17c0.05-1.66,0.16-2.46,0.69-3.69c0.85-2.03,2.83-3.42,5.39-3.42
				c2.56,0,4.48,1.39,5.34,3.42C696.34,648.59,696.5,649.39,696.56,651.05 M701.95,654.83v-2.4c0-7.69-4.21-13.02-11.47-13.02
				c-6.94,0-11.47,5.06-11.47,13.82c0,10.31,5.38,13.88,12.16,13.88c4.75,0,7.37-1.44,10.14-4.21l-3.47-3.26
				c-1.92,1.92-3.52,2.78-6.57,2.78c-4.43,0-6.88-2.94-6.88-7.59H701.95z M677.07,641.97c-1.87-1.87-3.84-2.56-6.46-2.56
				c-3.05,0-5.82,1.33-7.21,3.25v-2.93h-5.33v27.06h5.44v-16.44c0-3.74,2.46-6.09,5.39-6.09c1.87,0,2.83,0.58,4.06,1.81
				L677.07,641.97z M650.65,666.79v-4.85h-13.56l13.56-17.89v-4.32h-19.43v4.85h12.7l-13.45,17.89v4.32H650.65z M618.15,657.02
				c0,1.92-0.38,3.2-1.18,4.01c-1.44,1.39-2.99,1.55-5.07,1.55c-3.42,0-4.97-1.39-4.97-3.85c0-2.46,1.66-3.9,4.86-3.9h6.36V657.02z
				 M623.58,666.79V648.7c0-6.14-3.73-9.28-11.15-9.28c-4.48,0-7.15,0.9-9.71,3.89l3.57,3.37c1.49-1.92,2.93-2.62,5.92-2.62
				c4.22,0,5.93,1.66,5.93,5.07v1.93h-7.16c-6.19,0-9.34,3.25-9.34,7.79c0,2.3,0.75,4.38,2.14,5.82c1.65,1.65,3.89,2.45,7.25,2.45
				s5.24-0.8,7.21-2.77v2.45H623.58z M599.24,641.97c-1.87-1.87-3.84-2.56-6.46-2.56c-3.05,0-5.82,1.33-7.21,3.25v-2.93h-5.33v27.06
				h5.43v-16.44c0-3.74,2.46-6.09,5.39-6.09c1.87,0,2.83,0.58,4.06,1.81L599.24,641.97z M557.87,660.28h-6.51v6.51h6.51V660.28z
				 M543.78,654.09c0-3.58-0.43-7.27-3.3-10.14c-1.55-1.55-3.84-2.46-6.83-2.46c-2.78,0-5.02,0.85-6.3,2.19v-10.04h15.59v-4.85
				h-20.49v20.76h4.96c0.58-1.87,2.29-3.42,5.39-3.42c4.38,0,5.55,3.42,5.55,7.96c0,2.56-0.21,5.07-1.81,6.68
				c-0.96,0.96-2.35,1.49-3.95,1.49c-3.42,0-5.13-1.92-5.56-5.29h-5.44c0.21,2.72,0.85,5.23,2.88,7.26
				c1.65,1.65,4.48,2.93,8.11,2.93c3.69,0,6.3-1.28,8.01-2.98C543.35,661.41,543.78,658.15,543.78,654.09 M504.5,624.84h-5.23
				l-15.22,45.9h5.23L504.5,624.84z M467.29,654.09c0-3.58-0.43-7.27-3.3-10.14c-1.55-1.55-3.84-2.46-6.83-2.46
				c-2.78,0-5.02,0.85-6.3,2.19v-10.04h15.59v-4.85h-20.49v20.76h4.96c0.59-1.87,2.3-3.42,5.4-3.42c4.38,0,5.55,3.42,5.55,7.96
				c0,2.56-0.21,5.07-1.82,6.68c-0.96,0.96-2.35,1.49-3.95,1.49c-3.42,0-5.13-1.92-5.56-5.29h-5.44c0.21,2.72,0.85,5.23,2.88,7.26
				c1.65,1.65,4.48,2.93,8.11,2.93c3.68,0,6.3-1.28,8.01-2.98C466.86,661.41,467.29,658.15,467.29,654.09 M419.56,651.05h-12.17
				c0.06-1.66,0.16-2.46,0.7-3.69c0.85-2.03,2.83-3.42,5.39-3.42s4.48,1.39,5.34,3.42C419.35,648.59,419.51,649.39,419.56,651.05
				 M424.96,654.83v-2.4c0-7.69-4.22-13.02-11.48-13.02c-6.94,0-11.47,5.06-11.47,13.82c0,10.31,5.38,13.88,12.17,13.88
				c4.75,0,7.37-1.44,10.14-4.21l-3.47-3.26c-1.92,1.92-3.52,2.78-6.56,2.78c-4.43,0-6.89-2.94-6.89-7.59H424.96z M396.24,658.52
				c0-4.8-2.99-7.21-8.06-7.64l-4.27-0.37c-2.88-0.27-3.74-1.49-3.74-3.1c0-2.03,1.65-3.47,4.91-3.47c2.56,0,4.96,0.53,6.67,1.98
				l3.42-3.47c-2.51-2.19-5.98-3.03-10.04-3.03c-5.66,0-10.19,2.98-10.19,8.27c0,4.75,2.93,7.05,8.01,7.48l4.32,0.37
				c2.62,0.21,3.63,1.39,3.63,3.2c0,2.57-2.61,3.74-5.92,3.74c-2.67,0-5.61-0.59-7.79-2.83l-3.58,3.57
				c3.2,3.15,6.94,3.89,11.37,3.89C391.44,667.11,396.24,664.18,396.24,658.52 M369.39,658.52c0-4.8-2.99-7.21-8.06-7.64l-4.27-0.37
				c-2.88-0.27-3.74-1.49-3.74-3.1c0-2.03,1.66-3.47,4.91-3.47c2.56,0,4.97,0.53,6.68,1.98l3.42-3.47
				c-2.51-2.19-5.98-3.03-10.04-3.03c-5.66,0-10.2,2.98-10.2,8.27c0,4.75,2.94,7.05,8.01,7.48l4.33,0.37
				c2.61,0.21,3.63,1.39,3.63,3.2c0,2.57-2.62,3.74-5.93,3.74c-2.67,0-5.6-0.59-7.79-2.83l-3.57,3.57c3.2,3.15,6.94,3.89,11.37,3.89
				C364.59,667.11,369.39,664.18,369.39,658.52 M335.01,657.02c0,1.92-0.37,3.2-1.17,4.01c-1.44,1.39-2.99,1.55-5.07,1.55
				c-3.42,0-4.97-1.39-4.97-3.85c0-2.46,1.66-3.9,4.86-3.9h6.36V657.02z M340.45,666.79V648.7c0-6.14-3.73-9.28-11.15-9.28
				c-4.48,0-7.15,0.9-9.71,3.89l3.57,3.37c1.49-1.92,2.94-2.62,5.93-2.62c4.22,0,5.93,1.66,5.93,5.07v1.93h-7.15
				c-6.19,0-9.34,3.25-9.34,7.79c0,2.3,0.75,4.38,2.13,5.82c1.66,1.65,3.89,2.45,7.26,2.45c3.37,0,5.24-0.8,7.21-2.77v2.45H340.45z
				 M314.03,666.79v-4.64h-2.4c-2.19,0-2.93-1.07-2.93-3.15v-30.21h-5.44v30.53c0,4,2.24,7.47,7.41,7.47H314.03z M298.02,666.79
				l-13.62-23.11l12.33-14.89h-7.05l-15.54,19.11v-19.11h-5.75v38h5.75v-11.05l6.41-7.69l10.68,18.73H298.02z"/>
		</g>
		<g style="clip-path:url(#SVGID_00000110436752625960168200000002915958131466589062_);">
			<path class="st3" d="M725.12,541.98c0,4.8-0.69,9.02-5.61,9.02c-4.91,0-5.66-4.22-5.66-9.02c0-4.81,0.75-8.97,5.66-8.97
				C724.43,533,725.12,537.17,725.12,541.98 M730.56,555.53v-38h-5.44v13.66c-1.97-2.34-4.22-3.03-7.1-3.03
				c-2.73,0-5.07,0.9-6.56,2.4c-2.72,2.72-3.04,7.31-3.04,11.42c0,4.11,0.32,8.75,3.04,11.47c1.49,1.49,3.89,2.4,6.62,2.4
				c2.93,0,5.12-0.75,7.15-3.2v2.88H730.56z M696.56,539.79h-12.17c0.05-1.66,0.16-2.46,0.69-3.69c0.85-2.03,2.83-3.42,5.39-3.42
				c2.56,0,4.48,1.39,5.34,3.42C696.34,537.33,696.5,538.13,696.56,539.79 M701.95,543.57v-2.4c0-7.69-4.21-13.02-11.47-13.02
				c-6.94,0-11.47,5.06-11.47,13.82c0,10.31,5.38,13.88,12.16,13.88c4.75,0,7.37-1.44,10.14-4.21l-3.47-3.26
				c-1.92,1.92-3.52,2.78-6.57,2.78c-4.43,0-6.88-2.94-6.88-7.59H701.95z M677.07,530.71c-1.87-1.87-3.84-2.56-6.46-2.56
				c-3.05,0-5.82,1.33-7.21,3.25v-2.93h-5.33v27.06h5.44v-16.44c0-3.74,2.46-6.09,5.39-6.09c1.87,0,2.83,0.58,4.06,1.82
				L677.07,530.71z M650.65,555.53v-4.85h-13.56l13.56-17.89v-4.32h-19.43v4.85h12.7l-13.45,17.89v4.32H650.65z M618.15,545.77
				c0,1.92-0.38,3.2-1.18,4.01c-1.44,1.39-2.99,1.55-5.07,1.55c-3.42,0-4.97-1.39-4.97-3.85c0-2.46,1.66-3.9,4.86-3.9h6.36V545.77z
				 M623.58,555.53v-18.09c0-6.14-3.73-9.28-11.15-9.28c-4.48,0-7.15,0.9-9.71,3.89l3.57,3.37c1.49-1.92,2.93-2.62,5.92-2.62
				c4.22,0,5.93,1.66,5.93,5.07v1.93h-7.16c-6.19,0-9.34,3.25-9.34,7.79c0,2.3,0.75,4.38,2.14,5.82c1.65,1.65,3.89,2.45,7.25,2.45
				s5.24-0.8,7.21-2.77v2.45H623.58z M599.24,530.71c-1.87-1.87-3.84-2.56-6.46-2.56c-3.05,0-5.82,1.33-7.21,3.25v-2.93h-5.33v27.06
				h5.43v-16.44c0-3.74,2.46-6.09,5.39-6.09c1.87,0,2.83,0.58,4.06,1.82L599.24,530.71z M557.87,549.02h-6.51v6.51h6.51V549.02z
				 M538.23,544.38c0,4.06-2.4,6.62-5.82,6.62c-3.42,0-5.77-2.57-5.77-6.62c0-4.11,2.35-6.57,5.77-6.57
				C536.05,537.81,538.23,540.64,538.23,544.38 M543.67,544.27c0-6.68-4.48-10.99-9.98-10.99c-1.17,0-2.35,0.16-3.37,0.58
				l8.18-16.33h-5.82l-8.65,17.62c-1.66,3.3-2.83,6.24-2.83,9.34c0,7.05,4.69,11.37,11.26,11.37S543.67,551.27,543.67,544.27
				 M504.5,513.58h-5.23l-15.22,45.9h5.23L504.5,513.58z M461.74,544.38c0,4.06-2.4,6.62-5.82,6.62s-5.77-2.57-5.77-6.62
				c0-4.11,2.35-6.57,5.77-6.57C459.55,537.81,461.74,540.64,461.74,544.38 M467.18,544.27c0-6.68-4.48-10.99-9.98-10.99
				c-1.17,0-2.35,0.16-3.37,0.58l8.18-16.33h-5.82l-8.65,17.62c-1.66,3.3-2.83,6.24-2.83,9.34c0,7.05,4.69,11.37,11.26,11.37
				C462.54,555.85,467.18,551.27,467.18,544.27 M419.56,539.79h-12.17c0.06-1.66,0.16-2.46,0.7-3.69c0.85-2.03,2.83-3.42,5.39-3.42
				s4.48,1.39,5.34,3.42C419.35,537.33,419.51,538.13,419.56,539.79 M424.96,543.57v-2.4c0-7.69-4.22-13.02-11.48-13.02
				c-6.94,0-11.47,5.06-11.47,13.82c0,10.31,5.38,13.88,12.17,13.88c4.75,0,7.37-1.44,10.14-4.21l-3.47-3.26
				c-1.92,1.92-3.52,2.78-6.56,2.78c-4.43,0-6.89-2.94-6.89-7.59H424.96z M396.24,547.26c0-4.8-2.99-7.21-8.06-7.64l-4.27-0.37
				c-2.88-0.27-3.74-1.49-3.74-3.1c0-2.03,1.65-3.47,4.91-3.47c2.56,0,4.96,0.53,6.67,1.98l3.42-3.47
				c-2.51-2.19-5.98-3.03-10.04-3.03c-5.66,0-10.19,2.98-10.19,8.27c0,4.75,2.93,7.05,8.01,7.48l4.32,0.37
				c2.62,0.21,3.63,1.39,3.63,3.2c0,2.57-2.61,3.74-5.92,3.74c-2.67,0-5.61-0.59-7.79-2.83l-3.58,3.57
				c3.2,3.15,6.94,3.89,11.37,3.89C391.44,555.85,396.24,552.92,396.24,547.26 M369.39,547.26c0-4.8-2.99-7.21-8.06-7.64l-4.27-0.37
				c-2.88-0.27-3.74-1.49-3.74-3.1c0-2.03,1.66-3.47,4.91-3.47c2.56,0,4.97,0.53,6.68,1.98l3.42-3.47
				c-2.51-2.19-5.98-3.03-10.04-3.03c-5.66,0-10.2,2.98-10.2,8.27c0,4.75,2.94,7.05,8.01,7.48l4.33,0.37
				c2.61,0.21,3.63,1.39,3.63,3.2c0,2.57-2.62,3.74-5.93,3.74c-2.67,0-5.6-0.59-7.79-2.83l-3.57,3.57c3.2,3.15,6.94,3.89,11.37,3.89
				C364.59,555.85,369.39,552.92,369.39,547.26 M335.01,545.77c0,1.92-0.37,3.2-1.17,4.01c-1.44,1.39-2.99,1.55-5.07,1.55
				c-3.42,0-4.97-1.39-4.97-3.85c0-2.46,1.66-3.9,4.86-3.9h6.36V545.77z M340.45,555.53v-18.09c0-6.14-3.73-9.28-11.15-9.28
				c-4.48,0-7.15,0.9-9.71,3.89l3.57,3.37c1.49-1.92,2.94-2.62,5.93-2.62c4.22,0,5.93,1.66,5.93,5.07v1.93h-7.15
				c-6.19,0-9.34,3.25-9.34,7.79c0,2.3,0.75,4.38,2.13,5.82c1.66,1.65,3.89,2.45,7.26,2.45c3.37,0,5.24-0.8,7.21-2.77v2.45H340.45z
				 M314.03,555.53v-4.64h-2.4c-2.19,0-2.93-1.07-2.93-3.15v-30.21h-5.44v30.53c0,4,2.24,7.47,7.41,7.47H314.03z M298.02,555.53
				l-13.62-23.11l12.33-14.89h-7.05l-15.54,19.11v-19.11h-5.75v38h5.75v-11.05l6.41-7.69l10.68,18.73H298.02z"/>
		</g>
		<g style="clip-path:url(#SVGID_00000110436752625960168200000002915958131466589062_);">
			<path class="st3" d="M725.12,419.48c0,4.8-0.69,9.02-5.61,9.02c-4.91,0-5.66-4.22-5.66-9.02c0-4.81,0.75-8.97,5.66-8.97
				C724.43,410.51,725.12,414.67,725.12,419.48 M730.56,433.04v-38h-5.44v13.66c-1.97-2.34-4.22-3.03-7.1-3.03
				c-2.73,0-5.07,0.9-6.56,2.4c-2.72,2.72-3.04,7.31-3.04,11.42c0,4.11,0.32,8.75,3.04,11.47c1.49,1.49,3.89,2.4,6.62,2.4
				c2.93,0,5.12-0.75,7.15-3.2v2.88H730.56z M696.56,417.3h-12.17c0.05-1.66,0.16-2.46,0.69-3.69c0.85-2.03,2.83-3.42,5.39-3.42
				c2.56,0,4.48,1.39,5.34,3.42C696.34,414.83,696.5,415.64,696.56,417.3 M701.95,421.08v-2.4c0-7.69-4.21-13.02-11.47-13.02
				c-6.94,0-11.47,5.06-11.47,13.82c0,10.3,5.38,13.87,12.16,13.87c4.75,0,7.37-1.44,10.14-4.21l-3.47-3.26
				c-1.92,1.92-3.52,2.78-6.57,2.78c-4.43,0-6.88-2.94-6.88-7.59H701.95z M677.07,408.22c-1.87-1.87-3.84-2.56-6.46-2.56
				c-3.05,0-5.82,1.33-7.21,3.25v-2.93h-5.33v27.06h5.44v-16.44c0-3.74,2.46-6.09,5.39-6.09c1.87,0,2.83,0.59,4.06,1.81
				L677.07,408.22z M650.65,433.04v-4.85h-13.56l13.56-17.89v-4.32h-19.43v4.85h12.7l-13.45,17.89v4.32H650.65z M618.15,423.27
				c0,1.92-0.38,3.2-1.18,4.01c-1.44,1.39-2.99,1.55-5.07,1.55c-3.42,0-4.97-1.39-4.97-3.85s1.66-3.9,4.86-3.9h6.36V423.27z
				 M623.58,433.04v-18.09c0-6.14-3.73-9.28-11.15-9.28c-4.48,0-7.15,0.9-9.71,3.89l3.57,3.37c1.49-1.92,2.93-2.62,5.92-2.62
				c4.22,0,5.93,1.66,5.93,5.07v1.93h-7.16c-6.19,0-9.34,3.25-9.34,7.79c0,2.3,0.75,4.38,2.14,5.82c1.65,1.65,3.89,2.45,7.25,2.45
				s5.24-0.8,7.21-2.77v2.45H623.58z M599.24,408.22c-1.87-1.87-3.84-2.56-6.46-2.56c-3.05,0-5.82,1.33-7.21,3.25v-2.93h-5.33v27.06
				h5.43v-16.44c0-3.74,2.46-6.09,5.39-6.09c1.87,0,2.83,0.59,4.06,1.81L599.24,408.22z M557.87,426.53h-6.51v6.51h6.51V426.53z
				 M544.21,399.89v-4.85h-22.63v10.83h5.23v-5.98h11.58l-12.76,33.15h5.87L544.21,399.89z M504.5,391.08h-5.23l-15.22,45.9h5.23
				L504.5,391.08z M467.72,399.89v-4.85h-22.63v10.83h5.23v-5.98h11.58l-12.76,33.15h5.87L467.72,399.89z M419.56,417.3h-12.17
				c0.06-1.66,0.16-2.46,0.7-3.69c0.85-2.03,2.83-3.42,5.39-3.42s4.48,1.39,5.34,3.42C419.35,414.83,419.51,415.64,419.56,417.3
				 M424.96,421.08v-2.4c0-7.69-4.22-13.02-11.48-13.02c-6.94,0-11.47,5.06-11.47,13.82c0,10.3,5.38,13.87,12.17,13.87
				c4.75,0,7.37-1.44,10.14-4.21l-3.47-3.26c-1.92,1.92-3.52,2.78-6.56,2.78c-4.43,0-6.89-2.94-6.89-7.59H424.96z M396.24,424.76
				c0-4.8-2.99-7.21-8.06-7.64l-4.27-0.37c-2.88-0.27-3.74-1.49-3.74-3.1c0-2.03,1.65-3.47,4.91-3.47c2.56,0,4.96,0.53,6.67,1.98
				l3.42-3.47c-2.51-2.19-5.98-3.03-10.04-3.03c-5.66,0-10.19,2.98-10.19,8.27c0,4.75,2.93,7.05,8.01,7.48l4.32,0.37
				c2.62,0.21,3.63,1.39,3.63,3.2c0,2.57-2.61,3.74-5.92,3.74c-2.67,0-5.61-0.59-7.79-2.83l-3.58,3.58
				c3.2,3.14,6.94,3.89,11.37,3.89C391.44,433.36,396.24,430.42,396.24,424.76 M369.39,424.76c0-4.8-2.99-7.21-8.06-7.64l-4.27-0.37
				c-2.88-0.27-3.74-1.49-3.74-3.1c0-2.03,1.66-3.47,4.91-3.47c2.56,0,4.97,0.53,6.68,1.98l3.42-3.47
				c-2.51-2.19-5.98-3.03-10.04-3.03c-5.66,0-10.2,2.98-10.2,8.27c0,4.75,2.94,7.05,8.01,7.48l4.33,0.37
				c2.61,0.21,3.63,1.39,3.63,3.2c0,2.57-2.62,3.74-5.93,3.74c-2.67,0-5.6-0.59-7.79-2.83l-3.57,3.58c3.2,3.14,6.94,3.89,11.37,3.89
				C364.59,433.36,369.39,430.42,369.39,424.76 M335.01,423.27c0,1.92-0.37,3.2-1.17,4.01c-1.44,1.39-2.99,1.55-5.07,1.55
				c-3.42,0-4.97-1.39-4.97-3.85s1.66-3.9,4.86-3.9h6.36V423.27z M340.45,433.04v-18.09c0-6.14-3.73-9.28-11.15-9.28
				c-4.48,0-7.15,0.9-9.71,3.89l3.57,3.37c1.49-1.92,2.94-2.62,5.93-2.62c4.22,0,5.93,1.66,5.93,5.07v1.93h-7.15
				c-6.19,0-9.34,3.25-9.34,7.79c0,2.3,0.75,4.38,2.13,5.82c1.66,1.65,3.89,2.45,7.26,2.45c3.37,0,5.24-0.8,7.21-2.77v2.45H340.45z
				 M314.03,433.04v-4.64h-2.4c-2.19,0-2.93-1.07-2.93-3.15v-30.21h-5.44v30.53c0,4,2.24,7.47,7.41,7.47H314.03z M298.02,433.04
				l-13.62-23.11l12.33-14.89h-7.05l-15.54,19.11v-19.11h-5.75v38h5.75v-11.05l6.41-7.69l10.68,18.73H298.02z"/>
		</g>
		<g style="clip-path:url(#SVGID_00000110436752625960168200000002915958131466589062_);">
			<path class="st3" d="M725.12,304.01c0,4.8-0.69,9.02-5.61,9.02c-4.91,0-5.66-4.22-5.66-9.02c0-4.81,0.75-8.97,5.66-8.97
				C724.43,295.04,725.12,299.2,725.12,304.01 M730.56,317.56v-38h-5.44v13.66c-1.97-2.34-4.22-3.03-7.1-3.03
				c-2.73,0-5.07,0.9-6.56,2.4c-2.72,2.72-3.04,7.31-3.04,11.42c0,4.11,0.32,8.75,3.04,11.47c1.49,1.49,3.89,2.4,6.62,2.4
				c2.93,0,5.12-0.75,7.15-3.2v2.88H730.56z M696.56,301.82h-12.17c0.05-1.66,0.16-2.46,0.69-3.69c0.85-2.03,2.83-3.42,5.39-3.42
				c2.56,0,4.48,1.39,5.34,3.42C696.34,299.36,696.5,300.17,696.56,301.82 M701.95,305.61v-2.4c0-7.69-4.21-13.02-11.47-13.02
				c-6.94,0-11.47,5.06-11.47,13.82c0,10.3,5.38,13.87,12.16,13.87c4.75,0,7.37-1.44,10.14-4.21l-3.47-3.26
				c-1.92,1.92-3.52,2.78-6.57,2.78c-4.43,0-6.88-2.94-6.88-7.59H701.95z M677.07,292.74c-1.87-1.87-3.84-2.56-6.46-2.56
				c-3.05,0-5.82,1.33-7.21,3.25v-2.93h-5.33v27.06h5.44v-16.44c0-3.74,2.46-6.09,5.39-6.09c1.87,0,2.83,0.59,4.06,1.82
				L677.07,292.74z M650.65,317.56v-4.85h-13.56l13.56-17.89v-4.32h-19.43v4.85h12.7l-13.45,17.89v4.32H650.65z M618.15,307.8
				c0,1.92-0.38,3.2-1.18,4.01c-1.44,1.39-2.99,1.55-5.07,1.55c-3.42,0-4.97-1.39-4.97-3.85s1.66-3.9,4.86-3.9h6.36V307.8z
				 M623.58,317.56v-18.09c0-6.14-3.73-9.28-11.15-9.28c-4.48,0-7.15,0.9-9.71,3.89l3.57,3.37c1.49-1.92,2.93-2.62,5.92-2.62
				c4.22,0,5.93,1.66,5.93,5.07v1.93h-7.16c-6.19,0-9.34,3.25-9.34,7.79c0,2.3,0.75,4.38,2.14,5.82c1.65,1.65,3.89,2.45,7.25,2.45
				s5.24-0.8,7.21-2.77v2.45H623.58z M599.24,292.74c-1.87-1.87-3.84-2.56-6.46-2.56c-3.05,0-5.82,1.33-7.21,3.25v-2.93h-5.33v27.06
				h5.43v-16.44c0-3.74,2.46-6.09,5.39-6.09c1.87,0,2.83,0.59,4.06,1.82L599.24,292.74z M557.87,311.06h-6.51v6.51h6.51V311.06z
				 M538.08,289.92c0,3.36-2.35,5.77-5.66,5.77c-3.31,0-5.61-2.4-5.61-5.77c0-3.32,2.3-5.82,5.61-5.82
				C535.72,284.1,538.08,286.6,538.08,289.92 M538.66,306.73c0,3.52-2.73,6.3-6.25,6.3c-3.52,0-6.25-2.78-6.25-6.3
				c0-3.52,2.73-6.36,6.25-6.36C535.94,300.37,538.66,303.21,538.66,306.73 M544.16,306.84c0-4.54-2.56-7.32-5.23-8.91
				c2.45-1.49,4.59-4.16,4.59-8.17c0-6.36-4.91-10.51-11.1-10.51c-6.19,0-11.05,4.16-11.05,10.51c0,4.01,2.14,6.68,4.59,8.17
				c-2.66,1.6-5.23,4.37-5.23,8.91c0,6.89,5.18,11.05,11.69,11.05C538.93,317.88,544.16,313.73,544.16,306.84 M504.5,275.61h-5.23
				l-15.22,45.9h5.23L504.5,275.61z M461.58,289.92c0,3.36-2.35,5.77-5.66,5.77c-3.31,0-5.61-2.4-5.61-5.77
				c0-3.32,2.3-5.82,5.61-5.82C459.23,284.1,461.58,286.6,461.58,289.92 M462.17,306.73c0,3.52-2.73,6.3-6.25,6.3
				s-6.25-2.78-6.25-6.3c0-3.52,2.73-6.36,6.25-6.36S462.17,303.21,462.17,306.73 M467.66,306.84c0-4.54-2.56-7.32-5.22-8.91
				c2.45-1.49,4.59-4.16,4.59-8.17c0-6.36-4.91-10.51-11.1-10.51c-6.19,0-11.05,4.16-11.05,10.51c0,4.01,2.14,6.68,4.59,8.17
				c-2.66,1.6-5.23,4.37-5.23,8.91c0,6.89,5.18,11.05,11.69,11.05C462.44,317.88,467.66,313.73,467.66,306.84 M419.56,301.82h-12.17
				c0.06-1.66,0.16-2.46,0.7-3.69c0.85-2.03,2.83-3.42,5.39-3.42s4.48,1.39,5.34,3.42C419.35,299.36,419.51,300.17,419.56,301.82
				 M424.96,305.61v-2.4c0-7.69-4.22-13.02-11.48-13.02c-6.94,0-11.47,5.06-11.47,13.82c0,10.3,5.38,13.87,12.17,13.87
				c4.75,0,7.37-1.44,10.14-4.21l-3.47-3.26c-1.92,1.92-3.52,2.78-6.56,2.78c-4.43,0-6.89-2.94-6.89-7.59H424.96z M396.24,309.29
				c0-4.8-2.99-7.21-8.06-7.64l-4.27-0.37c-2.88-0.27-3.74-1.49-3.74-3.1c0-2.03,1.65-3.47,4.91-3.47c2.56,0,4.96,0.53,6.67,1.98
				l3.42-3.47c-2.51-2.19-5.98-3.03-10.04-3.03c-5.66,0-10.19,2.98-10.19,8.27c0,4.75,2.93,7.05,8.01,7.48l4.32,0.37
				c2.62,0.21,3.63,1.39,3.63,3.2c0,2.57-2.61,3.74-5.92,3.74c-2.67,0-5.61-0.59-7.79-2.83l-3.58,3.58
				c3.2,3.14,6.94,3.89,11.37,3.89C391.44,317.88,396.24,314.95,396.24,309.29 M369.39,309.29c0-4.8-2.99-7.21-8.06-7.64l-4.27-0.37
				c-2.88-0.27-3.74-1.49-3.74-3.1c0-2.03,1.66-3.47,4.91-3.47c2.56,0,4.97,0.53,6.68,1.98l3.42-3.47
				c-2.51-2.19-5.98-3.03-10.04-3.03c-5.66,0-10.2,2.98-10.2,8.27c0,4.75,2.94,7.05,8.01,7.48l4.33,0.37
				c2.61,0.21,3.63,1.39,3.63,3.2c0,2.57-2.62,3.74-5.93,3.74c-2.67,0-5.6-0.59-7.79-2.83l-3.57,3.58c3.2,3.14,6.94,3.89,11.37,3.89
				C364.59,317.88,369.39,314.95,369.39,309.29 M335.01,307.8c0,1.92-0.37,3.2-1.17,4.01c-1.44,1.39-2.99,1.55-5.07,1.55
				c-3.42,0-4.97-1.39-4.97-3.85s1.66-3.9,4.86-3.9h6.36V307.8z M340.45,317.56v-18.09c0-6.14-3.73-9.28-11.15-9.28
				c-4.48,0-7.15,0.9-9.71,3.89l3.57,3.37c1.49-1.92,2.94-2.62,5.93-2.62c4.22,0,5.93,1.66,5.93,5.07v1.93h-7.15
				c-6.19,0-9.34,3.25-9.34,7.79c0,2.3,0.75,4.38,2.13,5.82c1.66,1.65,3.89,2.45,7.26,2.45c3.37,0,5.24-0.8,7.21-2.77v2.45H340.45z
				 M314.03,317.56v-4.64h-2.4c-2.19,0-2.93-1.07-2.93-3.15v-30.21h-5.44v30.53c0,4,2.24,7.47,7.41,7.47H314.03z M298.02,317.56
				l-13.62-23.11l12.33-14.89h-7.05l-15.54,19.11v-19.11h-5.75v38h5.75v-11.05l6.41-7.69l10.68,18.73H298.02z"/>
		</g>
		<g style="clip-path:url(#SVGID_00000110436752625960168200000002915958131466589062_);">
			<path class="st3" d="M725.12,188.54c0,4.8-0.69,9.02-5.61,9.02c-4.91,0-5.66-4.22-5.66-9.02c0-4.81,0.75-8.97,5.66-8.97
				C724.43,179.56,725.12,183.73,725.12,188.54 M730.56,202.09v-38h-5.44v13.66c-1.97-2.34-4.22-3.03-7.1-3.03
				c-2.73,0-5.07,0.9-6.56,2.4c-2.72,2.72-3.04,7.31-3.04,11.42c0,4.11,0.32,8.75,3.04,11.47c1.49,1.49,3.89,2.4,6.62,2.4
				c2.93,0,5.12-0.75,7.15-3.2v2.88H730.56z M696.56,186.35h-12.17c0.05-1.66,0.16-2.46,0.69-3.69c0.85-2.03,2.83-3.42,5.39-3.42
				c2.56,0,4.48,1.39,5.34,3.42C696.34,183.89,696.5,184.69,696.56,186.35 M701.95,190.13v-2.4c0-7.69-4.21-13.02-11.47-13.02
				c-6.94,0-11.47,5.06-11.47,13.82c0,10.3,5.38,13.87,12.16,13.87c4.75,0,7.37-1.44,10.14-4.21l-3.47-3.26
				c-1.92,1.92-3.52,2.78-6.57,2.78c-4.43,0-6.88-2.94-6.88-7.59H701.95z M677.07,177.27c-1.87-1.87-3.84-2.56-6.46-2.56
				c-3.05,0-5.82,1.33-7.21,3.25v-2.93h-5.33v27.06h5.44v-16.44c0-3.74,2.46-6.09,5.39-6.09c1.87,0,2.83,0.59,4.06,1.82
				L677.07,177.27z M650.65,202.09v-4.85h-13.56l13.56-17.89v-4.32h-19.43v4.85h12.7l-13.45,17.89v4.32H650.65z M618.15,192.32
				c0,1.92-0.38,3.2-1.18,4.01c-1.44,1.39-2.99,1.55-5.07,1.55c-3.42,0-4.97-1.39-4.97-3.85c0-2.46,1.66-3.9,4.86-3.9h6.36V192.32z
				 M623.58,202.09V184c0-6.14-3.73-9.28-11.15-9.28c-4.48,0-7.15,0.9-9.71,3.89l3.57,3.37c1.49-1.92,2.93-2.62,5.92-2.62
				c4.22,0,5.93,1.66,5.93,5.07v1.93h-7.16c-6.19,0-9.34,3.25-9.34,7.79c0,2.3,0.75,4.38,2.14,5.82c1.65,1.65,3.89,2.45,7.25,2.45
				s5.24-0.8,7.21-2.77v2.45H623.58z M599.24,177.27c-1.87-1.87-3.84-2.56-6.46-2.56c-3.05,0-5.82,1.33-7.21,3.25v-2.93h-5.33v27.06
				h5.43v-16.44c0-3.74,2.46-6.09,5.39-6.09c1.87,0,2.83,0.59,4.06,1.82L599.24,177.27z M557.87,195.58h-6.51v6.51h6.51V195.58z
				 M538.23,175.24c0,4.11-2.4,6.57-5.82,6.57c-3.63,0-5.77-2.83-5.77-6.57c0-4.06,2.35-6.62,5.77-6.62
				C535.83,168.62,538.23,171.19,538.23,175.24 M543.67,175.14c0-7.05-4.69-11.37-11.26-11.37c-6.57,0-11.2,4.59-11.2,11.58
				c0,6.68,4.42,11,9.92,11c1.17,0,2.41-0.16,3.42-0.59l-8.17,16.33h5.82l8.65-17.62C542.5,181.17,543.67,178.23,543.67,175.14
				 M504.5,160.14h-5.23l-15.22,45.9h5.23L504.5,160.14z M461.74,175.24c0,4.11-2.4,6.57-5.82,6.57c-3.63,0-5.77-2.83-5.77-6.57
				c0-4.06,2.35-6.62,5.77-6.62S461.74,171.19,461.74,175.24 M467.18,175.14c0-7.05-4.69-11.37-11.26-11.37
				c-6.57,0-11.2,4.59-11.2,11.58c0,6.68,4.42,11,9.92,11c1.17,0,2.4-0.16,3.42-0.59l-8.17,16.33h5.82l8.65-17.62
				C466.01,181.17,467.18,178.23,467.18,175.14 M419.56,186.35h-12.17c0.06-1.66,0.16-2.46,0.7-3.69c0.85-2.03,2.83-3.42,5.39-3.42
				s4.48,1.39,5.34,3.42C419.35,183.89,419.51,184.69,419.56,186.35 M424.96,190.13v-2.4c0-7.69-4.22-13.02-11.48-13.02
				c-6.94,0-11.47,5.06-11.47,13.82c0,10.3,5.38,13.87,12.17,13.87c4.75,0,7.37-1.44,10.14-4.21l-3.47-3.26
				c-1.92,1.92-3.52,2.78-6.56,2.78c-4.43,0-6.89-2.94-6.89-7.59H424.96z M396.24,193.82c0-4.8-2.99-7.21-8.06-7.64l-4.27-0.37
				c-2.88-0.27-3.74-1.49-3.74-3.1c0-2.03,1.65-3.47,4.91-3.47c2.56,0,4.96,0.53,6.67,1.98l3.42-3.47
				c-2.51-2.19-5.98-3.03-10.04-3.03c-5.66,0-10.19,2.98-10.19,8.27c0,4.75,2.93,7.05,8.01,7.48l4.32,0.37
				c2.62,0.21,3.63,1.39,3.63,3.2c0,2.57-2.61,3.74-5.92,3.74c-2.67,0-5.61-0.59-7.79-2.83l-3.58,3.58
				c3.2,3.14,6.94,3.89,11.37,3.89C391.44,202.41,396.24,199.48,396.24,193.82 M369.39,193.82c0-4.8-2.99-7.21-8.06-7.64l-4.27-0.37
				c-2.88-0.27-3.74-1.49-3.74-3.1c0-2.03,1.66-3.47,4.91-3.47c2.56,0,4.97,0.53,6.68,1.98l3.42-3.47
				c-2.51-2.19-5.98-3.03-10.04-3.03c-5.66,0-10.2,2.98-10.2,8.27c0,4.75,2.94,7.05,8.01,7.48l4.33,0.37
				c2.61,0.21,3.63,1.39,3.63,3.2c0,2.57-2.62,3.74-5.93,3.74c-2.67,0-5.6-0.59-7.79-2.83l-3.57,3.58c3.2,3.14,6.94,3.89,11.37,3.89
				C364.59,202.41,369.39,199.48,369.39,193.82 M335.01,192.32c0,1.92-0.37,3.2-1.17,4.01c-1.44,1.39-2.99,1.55-5.07,1.55
				c-3.42,0-4.97-1.39-4.97-3.85c0-2.46,1.66-3.9,4.86-3.9h6.36V192.32z M340.45,202.09V184c0-6.14-3.73-9.28-11.15-9.28
				c-4.48,0-7.15,0.9-9.71,3.89l3.57,3.37c1.49-1.92,2.94-2.62,5.93-2.62c4.22,0,5.93,1.66,5.93,5.07v1.93h-7.15
				c-6.19,0-9.34,3.25-9.34,7.79c0,2.3,0.75,4.38,2.13,5.82c1.66,1.65,3.89,2.45,7.26,2.45c3.37,0,5.24-0.8,7.21-2.77v2.45H340.45z
				 M314.03,202.09v-4.64h-2.4c-2.19,0-2.93-1.07-2.93-3.15v-30.21h-5.44v30.53c0,4,2.24,7.47,7.41,7.47H314.03z M298.02,202.09
				l-13.62-23.11l12.33-14.89h-7.05l-15.54,19.11v-19.11h-5.75v38h5.75v-11.05l6.41-7.69l10.68,18.73H298.02z"/>
		</g>
	</g>
	<g>
		<polygon class="st4" points="21.91,638.98 37.98,638.98 29.95,628.35 		"/>
	</g>
	<g>
		<polygon class="st4" points="21.91,660.11 37.98,660.11 29.95,649.49 		"/>
	</g>
	<g>
		<polygon class="st4" points="21.91,681.25 37.98,681.25 29.95,670.62 		"/>
	</g>
	<g>
		<polygon class="st4" points="21.91,617.84 37.98,617.84 29.95,607.22 		"/>
	</g>
	<g>
		<polygon class="st4" points="21.91,523.5 37.98,523.5 29.95,512.88 		"/>
	</g>
	<g>
		<polygon class="st4" points="21.91,544.64 37.98,544.64 29.95,534.01 		"/>
	</g>
	<g>
		<polygon class="st4" points="21.91,565.77 37.98,565.77 29.95,555.15 		"/>
	</g>
	<g>
		<polygon class="st4" points="21.91,502.37 37.98,502.37 29.95,491.74 		"/>
	</g>
	<g>
		<polygon class="st4" points="21.91,403.82 37.98,403.82 29.95,393.19 		"/>
	</g>
	<g>
		<polygon class="st4" points="21.91,424.95 37.98,424.95 29.95,414.32 		"/>
	</g>
	<g>
		<polygon class="st4" points="21.91,446.09 37.98,446.09 29.95,435.46 		"/>
	</g>
	<g>
		<polygon class="st4" points="21.91,382.68 37.98,382.68 29.95,372.05 		"/>
	</g>
	<g>
		<polygon class="st4" points="21.91,285.53 37.98,285.53 29.95,274.91 		"/>
	</g>
	<g>
		<polygon class="st4" points="21.91,306.67 37.98,306.67 29.95,296.04 		"/>
	</g>
	<g>
		<polygon class="st4" points="21.91,327.8 37.98,327.8 29.95,317.18 		"/>
	</g>
	<g>
		<polygon class="st4" points="21.91,264.4 37.98,264.4 29.95,253.77 		"/>
	</g>
	<g>
		<polygon class="st4" points="21.91,170.06 37.98,170.06 29.95,159.44 		"/>
	</g>
	<g>
		<polygon class="st4" points="21.91,191.2 37.98,191.2 29.95,180.57 		"/>
	</g>
	<g>
		<polygon class="st4" points="21.91,212.33 37.98,212.33 29.95,201.71 		"/>
	</g>
	<g>
		<polygon class="st4" points="21.91,148.93 37.98,148.93 29.95,138.3 		"/>
	</g>
</g>
</svg>
