<?xml version="1.0" encoding="utf-8"?>
<!-- Generator: Adobe Illustrator 26.2.1, SVG Export Plug-In . SVG Version: 6.00 Build 0)  -->
<svg version="1.1" id="Ebene_1" xmlns="http://www.w3.org/2000/svg" xmlns:xlink="http://www.w3.org/1999/xlink" x="0px" y="0px"
	 viewBox="0 0 1000 819.82" style="enable-background:new 0 0 1000 819.82;" xml:space="preserve">
<style type="text/css">
	.st0{fill:#A2B9E1;}
	.st1{fill:#6796CF;}
	.st2{clip-path:url(#SVGID_00000173862120642523606410000002922887583169546921_);}
	.st3{fill:#2B2961;}
	.st4{fill:#FFFFFF;}
	.st5{clip-path:url(#SVGID_00000160181169641440532000000014679570123594765500_);}
	.st6{clip-path:url(#SVGID_00000032614489841184929660000000867502661125479840_);}
	.st7{clip-path:url(#SVGID_00000142134122002758175170000007057443963014142080_);}
	.st8{clip-path:url(#SVGID_00000105397840708823972950000013401346293419293595_);}
	.st9{clip-path:url(#SVGID_00000142875607413935854500000004875222402331301563_);}
	.st10{opacity:0.52;clip-path:url(#SVGID_00000054964731665464275820000015245594705409752999_);}
	.st11{clip-path:url(#SVGID_00000133511599174530235320000001651269970082977199_);}
	.st12{clip-path:url(#SVGID_00000123440712273840593860000002420787077352428685_);}
	.st13{clip-path:url(#SVGID_00000124843125364719948200000005025023711060891021_);}
	.st14{clip-path:url(#SVGID_00000047057320098355924470000010807367665578682509_);}
	.st15{clip-path:url(#SVGID_00000155123267521119378050000013687215797674581691_);}
	.st16{clip-path:url(#SVGID_00000151532260503018795330000007996324091470560393_);}
	.st17{clip-path:url(#SVGID_00000178192287613199887320000004384553865393237907_);}
	.st18{clip-path:url(#SVGID_00000129197982680430684780000007206727968617954230_);}
	.st19{clip-path:url(#SVGID_00000163759821824598126800000007993004040753673600_);}
	.st20{clip-path:url(#SVGID_00000031914250387934720490000008556818150245771656_);}
	.st21{clip-path:url(#SVGID_00000173863892956411244470000016059212956881587589_);}
	.st22{clip-path:url(#SVGID_00000103960719507386787630000007341770802732810624_);}
	.st23{fill:none;stroke:#2B2961;stroke-width:0.374;stroke-linejoin:round;stroke-miterlimit:10;}
	.st24{fill:none;stroke:#2B2961;stroke-width:0.4;stroke-miterlimit:10;}
	.st25{clip-path:url(#SVGID_00000087407422724171411290000008406003812714900363_);}
	.st26{clip-path:url(#SVGID_00000163044233172132898740000010305986500207068065_);}
	.st27{clip-path:url(#SVGID_00000000221194390611737510000007185235589647153579_);}
	.st28{clip-path:url(#SVGID_00000059304494141961979880000006735865161039069824_);}
	.st29{clip-path:url(#SVGID_00000044166784241477606470000011208082530767985032_);}
	.st30{clip-path:url(#SVGID_00000137810773221274079280000001722801440470316975_);}
	.st31{clip-path:url(#SVGID_00000031929319639671664670000006266880695329663134_);}
	.st32{clip-path:url(#SVGID_00000072964109289880255480000004638173961229596834_);}
	.st33{clip-path:url(#SVGID_00000183213654707337392230000013597939681086651569_);}
	.st34{clip-path:url(#SVGID_00000146497630255035617080000018248006660888413318_);}
	.st35{clip-path:url(#SVGID_00000132799321536433282430000004063888553380647047_);}
	.st36{clip-path:url(#SVGID_00000097502434501057336760000007609987346378667401_);}
	.st37{clip-path:url(#SVGID_00000054264858000437539800000004370679363092864155_);}
	.st38{clip-path:url(#SVGID_00000069368086998086525640000010400799187489312176_);}
	.st39{clip-path:url(#SVGID_00000161608402554209479450000000525086416259240623_);}
	.st40{clip-path:url(#SVGID_00000083779348035531859370000003597167004483394703_);}
	.st41{clip-path:url(#SVGID_00000112616385106196055430000004618460012687560325_);}
	.st42{clip-path:url(#SVGID_00000083052938170594702900000005210025737947659403_);}
	.st43{clip-path:url(#SVGID_00000008839758234709568580000010915674861415456686_);}
	.st44{clip-path:url(#SVGID_00000015320532755410052760000008767070182862180249_);}
	.st45{clip-path:url(#SVGID_00000025407539045916071510000005721256063677851051_);}
	.st46{clip-path:url(#SVGID_00000165202799925386958620000010815641840752189856_);}
	.st47{clip-path:url(#SVGID_00000147192362940798089900000002992919014972456620_);}
	.st48{clip-path:url(#SVGID_00000101073248677926231580000013084051532733759617_);}
	.st49{clip-path:url(#SVGID_00000055705901838095983450000009347926985171854217_);}
	.st50{clip-path:url(#SVGID_00000078743486010335536490000003086746437873374337_);}
	.st51{clip-path:url(#SVGID_00000153692378203031920460000000535219437685568687_);}
	.st52{clip-path:url(#SVGID_00000079462453066643997120000016198780706086724533_);}
	.st53{clip-path:url(#SVGID_00000088125759997967687550000011970322055655465127_);}
	.st54{clip-path:url(#SVGID_00000142155182059687292760000013035683774160187010_);}
	.st55{clip-path:url(#SVGID_00000125585400636659828140000015253540995897845383_);}
	.st56{clip-path:url(#SVGID_00000179621852664077066870000005926645355829407678_);}
	.st57{clip-path:url(#SVGID_00000126321675003192857950000004439196447467094953_);}
	.st58{clip-path:url(#SVGID_00000181781807268035980240000000576019889895452073_);}
	.st59{clip-path:url(#SVGID_00000055684792738906193150000016245544979599089062_);}
	.st60{clip-path:url(#SVGID_00000066508893281012976870000009122977512097793957_);}
	.st61{clip-path:url(#SVGID_00000005977421466105013780000013170007946911958953_);}
	.st62{fill:#9AB4DE;}
	.st63{clip-path:url(#SVGID_00000059284905377177492290000012654739930568465599_);}
	.st64{clip-path:url(#SVGID_00000003822694430175402870000018439226183245644453_);}
	.st65{clip-path:url(#SVGID_00000044874029523417057150000014096020395301708987_);}
	.st66{fill:#B9C9E9;}
	.st67{clip-path:url(#SVGID_00000160178070310991217370000004364121416739667126_);}
	.st68{clip-path:url(#SVGID_00000047741551649255400490000002474384950223672510_);}
	.st69{clip-path:url(#SVGID_00000085939099938636907950000002675750485575209134_);}
	.st70{clip-path:url(#SVGID_00000176036892284019075060000002814671434445699236_);}
	.st71{clip-path:url(#SVGID_00000025436878663201384820000016275556107012372096_);}
	.st72{clip-path:url(#SVGID_00000081634575179188403940000012328230029554817938_);}
	.st73{clip-path:url(#SVGID_00000032635618388350628740000004718762660422943408_);}
	.st74{clip-path:url(#SVGID_00000075869298584168329070000001735495045484314758_);}
	.st75{clip-path:url(#SVGID_00000093882593980362728000000016193932729013698224_);}
	.st76{clip-path:url(#SVGID_00000062894054840059135010000009900143183930567299_);}
	.st77{clip-path:url(#SVGID_00000006676119377029357490000010401259471994315680_);}
	.st78{clip-path:url(#SVGID_00000078741668043854950790000001659372725268141498_);}
	.st79{clip-path:url(#SVGID_00000072965321305579800470000017051924822061190318_);}
	.st80{clip-path:url(#SVGID_00000178179637120543262580000008489923364052979625_);}
	.st81{clip-path:url(#SVGID_00000070110496193781221370000005860008284276665228_);}
	.st82{clip-path:url(#SVGID_00000113311386882676812670000008485208758381215631_);}
	.st83{clip-path:url(#SVGID_00000017497151385587490790000013422953492538857405_);}
	.st84{clip-path:url(#SVGID_00000041996945100051636510000004722551140276181916_);}
	.st85{clip-path:url(#SVGID_00000121248671499119391950000011573078499285381046_);}
	.st86{clip-path:url(#SVGID_00000131360867707439219400000010845233445288997309_);}
	.st87{clip-path:url(#SVGID_00000056419758945317971890000010612197050096649370_);}
	.st88{clip-path:url(#SVGID_00000114035400704366344960000000592340418526493615_);}
	.st89{clip-path:url(#SVGID_00000125580094693944382700000004997516879816204478_);}
	.st90{clip-path:url(#SVGID_00000116227629287807679870000001905171876762526871_);}
	.st91{clip-path:url(#SVGID_00000111169929193792024160000008583980282962155401_);}
	.st92{clip-path:url(#SVGID_00000057117078422024855740000014333411245933934526_);}
	.st93{clip-path:url(#SVGID_00000014615249346546787800000017857859004035525767_);}
	.st94{clip-path:url(#SVGID_00000173882802281646439050000016284434259927190920_);}
	.st95{clip-path:url(#SVGID_00000015321890891017971720000005123871289273634975_);}
	.st96{clip-path:url(#SVGID_00000116224169348507955540000007137176310189719956_);}
	.st97{clip-path:url(#SVGID_00000018216168874876078140000003600557933365383811_);}
	.st98{clip-path:url(#SVGID_00000036955811085020677960000004059525316744893368_);}
	.st99{clip-path:url(#SVGID_00000041994744446666981990000014986138807232773265_);}
	.st100{clip-path:url(#SVGID_00000047017879031864070870000003221995618699348128_);}
	.st101{clip-path:url(#SVGID_00000016772236512494189550000017543792829358854813_);}
	.st102{clip-path:url(#SVGID_00000034786756707022638700000010842731941753122442_);}
	.st103{clip-path:url(#SVGID_00000129927951598783480320000001651277392435206036_);}
	.st104{clip-path:url(#SVGID_00000038377335631554938950000015478964437966653887_);}
	.st105{clip-path:url(#SVGID_00000088132538976747516020000017846719379842281918_);}
	.st106{clip-path:url(#SVGID_00000109742045123209844670000008458503228481850543_);}
	.st107{clip-path:url(#SVGID_00000093176063267511758880000005618091255144074663_);}
	.st108{clip-path:url(#SVGID_00000144317665466566198530000003420518844738297501_);}
	.st109{clip-path:url(#SVGID_00000041989311918214377950000001570486767097696150_);}
	.st110{clip-path:url(#SVGID_00000010269384683116900380000014824188768214385065_);}
	.st111{clip-path:url(#SVGID_00000053536762131907749780000015272606622207788704_);}
	.st112{clip-path:url(#SVGID_00000058582886869527991510000008897902536880977810_);}
	.st113{clip-path:url(#SVGID_00000012466364307130229410000005977026806350613647_);}
	.st114{clip-path:url(#SVGID_00000101791304377028076640000006005764692976377507_);}
	.st115{clip-path:url(#SVGID_00000112597424428135322430000002922389512182082726_);}
	.st116{clip-path:url(#SVGID_00000003816131068195263540000009067852068978466211_);}
	.st117{clip-path:url(#SVGID_00000036964214244447125350000015036085343090787232_);}
	.st118{clip-path:url(#SVGID_00000148659747289405774980000016829017472218810554_);}
	.st119{clip-path:url(#SVGID_00000114767908249244310730000000655098846527544226_);}
	.st120{clip-path:url(#SVGID_00000095307278374120420020000009312721913256699024_);}
	.st121{clip-path:url(#SVGID_00000181777486327908314250000003371224090106321066_);}
	.st122{clip-path:url(#SVGID_00000025439660457113073340000002855521686762971038_);}
	.st123{clip-path:url(#SVGID_00000175280446906380401810000000433118202560663473_);}
	.st124{clip-path:url(#SVGID_00000011007165159274104540000007709281707526633405_);}
	.st125{clip-path:url(#SVGID_00000132068094220549387570000010691517471485657525_);}
	.st126{clip-path:url(#SVGID_00000047769318233530468470000013054654233395960227_);}
	.st127{clip-path:url(#SVGID_00000134236991092716621000000012860444761192841147_);}
	.st128{clip-path:url(#SVGID_00000031924291161197181000000015001350608739483572_);}
	.st129{clip-path:url(#SVGID_00000127741974269141008390000015345144435495874179_);}
	.st130{clip-path:url(#SVGID_00000062870340070151443170000005147411963789638584_);}
	.st131{clip-path:url(#SVGID_00000128456777476771808070000002816123115697857446_);}
	.st132{clip-path:url(#SVGID_00000085949462594213454550000016898422254057769861_);}
	.st133{clip-path:url(#SVGID_00000107552658415292293420000015343362374572054448_);}
	.st134{clip-path:url(#SVGID_00000062896435896663443900000003157118395557151873_);}
	.st135{clip-path:url(#SVGID_00000042732083765514146910000000111670725469832102_);}
	.st136{clip-path:url(#SVGID_00000137112709793965208990000001001247773792251035_);}
	.st137{clip-path:url(#SVGID_00000070837046529057872630000010236735695996810933_);}
	.st138{clip-path:url(#SVGID_00000121253272563596075940000008879939437271402122_);}
	.st139{clip-path:url(#SVGID_00000062172329526121395290000011619240563385529263_);}
	.st140{clip-path:url(#SVGID_00000087395874499736137140000007809551447459738811_);}
	.st141{clip-path:url(#SVGID_00000080192693832445469380000012852246634365002430_);}
	.st142{clip-path:url(#SVGID_00000018919767650421982840000002822206143073008555_);}
	.st143{clip-path:url(#SVGID_00000150068391000289173030000012296039766865031820_);}
	.st144{clip-path:url(#SVGID_00000081649760148219033700000012586549119121835957_);}
	.st145{clip-path:url(#SVGID_00000054960848495957600030000000922325463386360994_);}
	.st146{clip-path:url(#SVGID_00000169533730303146138510000006340226579679663525_);}
	.st147{clip-path:url(#SVGID_00000003067127815445304160000007688363832052494760_);}
	.st148{clip-path:url(#SVGID_00000170959301224911309730000008859294565365126288_);}
	.st149{clip-path:url(#SVGID_00000005227789302335021540000009897174831710616725_);}
	.st150{clip-path:url(#SVGID_00000168804978685716415760000004072958817715990704_);}
	.st151{clip-path:url(#SVGID_00000103948394293402407810000000574932021357812399_);}
	.st152{clip-path:url(#SVGID_00000021102913968566351810000004431520387702525322_);}
	.st153{clip-path:url(#SVGID_00000134947402097724894720000004750045578140700063_);}
	.st154{clip-path:url(#SVGID_00000098903602007320983150000009107293086211950009_);}
	.st155{clip-path:url(#SVGID_00000085930424071289987280000009136268765917691323_);}
	.st156{clip-path:url(#SVGID_00000141414792060145401130000016223132621385248937_);}
	.st157{clip-path:url(#SVGID_00000178924552703491217110000005333007940069705107_);}
	.st158{clip-path:url(#SVGID_00000150799947633519616540000000921277042704797884_);}
	.st159{clip-path:url(#SVGID_00000126323099982681100810000011665906650275640211_);}
	.st160{clip-path:url(#SVGID_00000137836625684323771080000014266268937510108334_);}
	.st161{clip-path:url(#SVGID_00000034066690411099801230000001329195229990003846_);}
	.st162{clip-path:url(#SVGID_00000072251794054915224260000013486157150732128651_);}
	.st163{clip-path:url(#SVGID_00000126304454246837788470000018029509615869821865_);}
	.st164{clip-path:url(#SVGID_00000083047344281951332930000017078882675734774669_);}
	.st165{clip-path:url(#SVGID_00000111173065459925834800000011213050740402171784_);}
	.st166{clip-path:url(#SVGID_00000181765880653781383270000003197967674889456550_);}
	.st167{clip-path:url(#SVGID_00000094598163775000500730000007577152767881203337_);}
	.st168{clip-path:url(#SVGID_00000077325081789904885150000015616696379186754953_);}
	.st169{clip-path:url(#SVGID_00000069389033397156994480000005721713890961207981_);}
	.st170{clip-path:url(#SVGID_00000003100074552748396510000015386026549311547299_);}
	.st171{clip-path:url(#SVGID_00000120521320022587999520000004167875393021542588_);}
	.st172{clip-path:url(#SVGID_00000110437153529333192520000018436113712529242500_);}
	.st173{clip-path:url(#SVGID_00000183931821320822354710000005571368356919734942_);}
	.st174{clip-path:url(#SVGID_00000124864112150067075470000005206215509564154285_);}
	.st175{clip-path:url(#SVGID_00000173856186004053888550000001234728528118612609_);}
	.st176{clip-path:url(#SVGID_00000035525146602695401230000000401937427081386170_);}
	.st177{clip-path:url(#SVGID_00000147221450392583532720000004706528048476164756_);}
	.st178{clip-path:url(#SVGID_00000051380615962178285920000017387959541027614336_);}
	.st179{clip-path:url(#SVGID_00000106121751796154060140000009219753584886107575_);}
	.st180{clip-path:url(#SVGID_00000122691114415894905190000012127726209185971385_);}
	.st181{clip-path:url(#SVGID_00000101068733376787816920000011824320505811287733_);}
	.st182{clip-path:url(#SVGID_00000170250245289078728890000006493887828764478849_);}
	.st183{clip-path:url(#SVGID_00000039820886419106593360000016083368319111066764_);}
	.st184{clip-path:url(#SVGID_00000083787627194601801790000004134026166071856290_);}
	.st185{clip-path:url(#SVGID_00000178911835473080006330000011852487938244865452_);}
	.st186{clip-path:url(#SVGID_00000158739310659475567820000004736048300386803347_);}
	.st187{clip-path:url(#SVGID_00000064313474870589333160000005983382575102458537_);}
	.st188{clip-path:url(#SVGID_00000168103899402185151770000017502038450763097012_);}
	.st189{clip-path:url(#SVGID_00000157997182805665873170000017194869110549026977_);}
	.st190{clip-path:url(#SVGID_00000109714722559287644400000001682204925774104454_);}
	.st191{clip-path:url(#SVGID_00000083057337303906765570000009570452937815028636_);}
	.st192{clip-path:url(#SVGID_00000026161251933506508330000004120016535528208777_);}
	.st193{clip-path:url(#SVGID_00000019659266256093471740000003101585234620269998_);}
	.st194{clip-path:url(#SVGID_00000181806151026607226750000011530886447069846943_);}
	.st195{clip-path:url(#SVGID_00000092417794819090430830000011737629177463424946_);}
	.st196{clip-path:url(#SVGID_00000166641422135760542900000000021960501901028514_);}
	.st197{clip-path:url(#SVGID_00000048458863954046914410000013403870527343887002_);}
	.st198{clip-path:url(#SVGID_00000106850195594041339290000000555054765902096777_);}
	.st199{clip-path:url(#SVGID_00000123400507354747593250000013807372682367338888_);}
	.st200{clip-path:url(#SVGID_00000012459891585213307370000017638227724280078758_);}
	.st201{clip-path:url(#SVGID_00000009570574777920660000000018368286738732114878_);}
	.st202{clip-path:url(#SVGID_00000018947903888876383890000006089434477840786339_);}
	.st203{clip-path:url(#SVGID_00000106868607643208788620000016872331989034447022_);}
	.st204{clip-path:url(#SVGID_00000052104347002762223040000009136594983628287639_);}
	.st205{clip-path:url(#SVGID_00000177466485136115296700000011415878454172113084_);}
	.st206{clip-path:url(#SVGID_00000111155794100037037080000006095967035285472145_);}
	.st207{clip-path:url(#SVGID_00000039092618602968939150000000188044686072204718_);}
	.st208{clip-path:url(#SVGID_00000160154313350200866370000000337843215656339332_);}
	.st209{clip-path:url(#SVGID_00000109728183524006081290000009495731491439385520_);}
	.st210{clip-path:url(#SVGID_00000112613807803154489280000006602335106922605980_);}
	.st211{clip-path:url(#SVGID_00000044874216067895522320000007419153448414256797_);}
	.st212{clip-path:url(#SVGID_00000029037604985808533810000006364506189828592062_);}
	.st213{clip-path:url(#SVGID_00000055668865444011009900000008159313157011041952_);}
	.st214{clip-path:url(#SVGID_00000003819865980799471010000011860980681066488728_);}
	.st215{clip-path:url(#SVGID_00000013155286041289915270000007217345501341878447_);}
	.st216{clip-path:url(#SVGID_00000092444261356869349080000015823703930093379980_);}
	.st217{clip-path:url(#SVGID_00000079486387945840606770000007538900011205994676_);}
	.st218{clip-path:url(#SVGID_00000091718059214181523150000017102786188258460347_);}
	.st219{clip-path:url(#SVGID_00000098205312912872913990000016508858871101556915_);}
	.st220{clip-path:url(#SVGID_00000132052189644114720130000002510954056443810747_);}
	.st221{clip-path:url(#SVGID_00000094619711271221516270000012275066863651298445_);}
	.st222{clip-path:url(#SVGID_00000121983727954274689470000014090053623554676400_);}
	.st223{clip-path:url(#SVGID_00000095314549748959684810000013667521534033284741_);}
	.st224{clip-path:url(#SVGID_00000008135596387307758110000015358234253877056155_);}
	.st225{clip-path:url(#SVGID_00000127737576625996745350000012812582670625616568_);}
	.st226{clip-path:url(#SVGID_00000077306032694040256720000003103869493837900440_);}
	.st227{clip-path:url(#SVGID_00000012456398929405408130000003872200733130123182_);}
	.st228{clip-path:url(#SVGID_00000023959421959128387740000010198408866313328830_);}
	.st229{clip-path:url(#SVGID_00000093878465571101055590000012138770083605812620_);}
	.st230{clip-path:url(#SVGID_00000031901047286679868690000014673498442936311487_);}
	.st231{clip-path:url(#SVGID_00000138572833266935069030000013633586183171155078_);}
	.st232{clip-path:url(#SVGID_00000178169591822590610680000007296422469254848690_);}
	.st233{clip-path:url(#SVGID_00000036947393627540739220000007055581929793617808_);}
	.st234{clip-path:url(#SVGID_00000031189652318993573090000016796963683833364390_);}
	.st235{clip-path:url(#SVGID_00000105406602147565767640000012059712843191917244_);}
	.st236{clip-path:url(#SVGID_00000106849318395076264510000011821969597395634109_);}
	.st237{clip-path:url(#SVGID_00000134941931918984379740000016990220139850845320_);}
	.st238{clip-path:url(#SVGID_00000083804239358759299800000008257270959866042269_);}
	.st239{clip-path:url(#SVGID_00000180365113656963147100000007319363002438517937_);}
	.st240{clip-path:url(#SVGID_00000054948849560823767790000003757311400965174689_);}
	.st241{clip-path:url(#SVGID_00000064341959532957422660000009060380787595912085_);}
	.st242{clip-path:url(#SVGID_00000073703645691702924210000012432152822596535985_);}
	.st243{clip-path:url(#SVGID_00000180328062571557562120000000977071414272832142_);}
	.st244{clip-path:url(#SVGID_00000153687664224076599170000011485054857579178662_);}
	.st245{clip-path:url(#SVGID_00000098909393959109054030000002911640175046867859_);}
	.st246{clip-path:url(#SVGID_00000056403641730623062280000008031385157653392036_);}
	.st247{clip-path:url(#SVGID_00000001663022388347231320000002247133068894403774_);}
	.st248{clip-path:url(#SVGID_00000057869632609359897510000007279043112253489343_);}
	.st249{clip-path:url(#SVGID_00000033349761740208727970000003120182861459407797_);}
	.st250{clip-path:url(#SVGID_00000041984412241641325750000006562689870487735469_);}
	.st251{clip-path:url(#SVGID_00000065759922634107215050000007507920123997293503_);}
	.st252{clip-path:url(#SVGID_00000005960105690841763140000000506339055464023974_);}
	.st253{clip-path:url(#SVGID_00000047757851351087093770000003620959966564048770_);}
	.st254{clip-path:url(#SVGID_00000091695963201828759640000001046996902204615584_);}
	.st255{clip-path:url(#SVGID_00000103970595646726234460000001891482663044690102_);}
	.st256{clip-path:url(#SVGID_00000068646607994121448960000002985583506327448201_);}
	.st257{clip-path:url(#SVGID_00000156551250064849589740000000000553411152986272_);}
	.st258{clip-path:url(#SVGID_00000107557891630154239060000007164672637428735655_);}
	.st259{clip-path:url(#SVGID_00000061447830688404163650000010856784977163823793_);}
	.st260{clip-path:url(#SVGID_00000136410952452476468460000015236855340509763245_);}
	.st261{clip-path:url(#SVGID_00000072272588321084887850000015644287449606004146_);}
	.st262{clip-path:url(#SVGID_00000150094908856242588940000006473087047696931761_);}
	.st263{clip-path:url(#SVGID_00000138554547622309502540000012878881645541106823_);}
	.st264{clip-path:url(#SVGID_00000010300412535523176110000006255435956294403229_);}
	.st265{clip-path:url(#SVGID_00000134952866346069640400000001006765868565523629_);}
	.st266{clip-path:url(#SVGID_00000059300512033341732760000017524017342123857806_);}
	.st267{clip-path:url(#SVGID_00000145743497709916475720000007757033473576087173_);}
	.st268{clip-path:url(#SVGID_00000048492518689480387110000014702694997504518540_);}
	.st269{clip-path:url(#SVGID_00000079455076235575981650000002213880636113933997_);}
	.st270{clip-path:url(#SVGID_00000060719838980064223770000004260428043789060284_);}
	.st271{clip-path:url(#SVGID_00000154409910011905687110000016749874790678260890_);}
	.st272{clip-path:url(#SVGID_00000167369451706336721760000014768072205509573561_);}
	.st273{clip-path:url(#SVGID_00000109709105252566224520000009299864198430245553_);}
	.st274{clip-path:url(#SVGID_00000120546683764351775980000014331542557453872270_);}
	.st275{clip-path:url(#SVGID_00000106105670091390596340000001319899271985793445_);}
	.st276{clip-path:url(#SVGID_00000112615588435602978230000010243040962973862027_);}
	.st277{clip-path:url(#SVGID_00000028312545744642276570000000008972388669514912_);}
	.st278{clip-path:url(#SVGID_00000175289348233781568320000006050635916816401032_);}
	.st279{clip-path:url(#SVGID_00000167391673462418260930000013682830464442700464_);}
	.st280{clip-path:url(#SVGID_00000133495661739539969910000011894713701635574152_);}
	.st281{clip-path:url(#SVGID_00000115517122075859444350000003946000334839084961_);}
	.st282{clip-path:url(#SVGID_00000034047569590607320770000002676722143367920318_);}
	.st283{clip-path:url(#SVGID_00000151530739440102303790000018367370950223221934_);}
	.st284{clip-path:url(#SVGID_00000142859545265291938040000016070126454816884639_);}
	.st285{clip-path:url(#SVGID_00000165215534943742412540000017768499647318769796_);}
	.st286{clip-path:url(#SVGID_00000139994174930452335370000014240646811966974593_);}
	.st287{clip-path:url(#SVGID_00000159432179802804138490000008343094262043176122_);}
	.st288{clip-path:url(#SVGID_00000169526496804465921660000016760508972243304103_);}
	.st289{clip-path:url(#SVGID_00000023267024725127369680000016778739502518870186_);}
	.st290{clip-path:url(#SVGID_00000092437955108817597080000001417436121759090577_);}
	.st291{clip-path:url(#SVGID_00000144311207063363663930000015000171898408180667_);}
	.st292{clip-path:url(#SVGID_00000171703380818181159560000009997207258998233012_);}
	.st293{clip-path:url(#SVGID_00000112618085916892667930000009344934250844452508_);}
	.st294{clip-path:url(#SVGID_00000043439397178669767300000011168031282185904262_);}
	.st295{clip-path:url(#SVGID_00000117670171560486404420000001813887918827178383_);}
	.st296{clip-path:url(#SVGID_00000008866875447939676390000000207854591739932308_);}
	.st297{clip-path:url(#SVGID_00000176038981694691121650000010540071065830280088_);}
	.st298{clip-path:url(#SVGID_00000056413569819146413210000004410190206264553357_);}
	.st299{clip-path:url(#SVGID_00000031891039606062893940000002619521225642849168_);}
	.st300{clip-path:url(#SVGID_00000104683987353643777810000013057563669498161828_);}
	.st301{clip-path:url(#SVGID_00000011002914674798061930000001000341961532997768_);}
	.st302{clip-path:url(#SVGID_00000027564865415031099190000009000521148727729048_);}
	.st303{clip-path:url(#SVGID_00000095303903004248525640000004250215919419040147_);}
	.st304{clip-path:url(#SVGID_00000103975124635541259610000006508968725110343596_);}
	.st305{clip-path:url(#SVGID_00000026851886885694017710000008775554459674375835_);}
	.st306{clip-path:url(#SVGID_00000089532692638277354830000013156671198685635744_);}
	.st307{clip-path:url(#SVGID_00000154398597373900280670000016938695989848300940_);}
	.st308{clip-path:url(#SVGID_00000094587251217034392720000007944659172724908711_);}
	.st309{clip-path:url(#SVGID_00000182508817426504334450000006706358025266822554_);}
	.st310{clip-path:url(#SVGID_00000034062176496723865230000002357570221761780154_);}
	.st311{clip-path:url(#SVGID_00000124845012562707312850000004068888470253138057_);}
	.st312{clip-path:url(#SVGID_00000049220834995837282830000009103092288407831191_);}
	.st313{clip-path:url(#SVGID_00000090265118079038032040000009786389487220677511_);}
	.st314{clip-path:url(#SVGID_00000047044314038223000420000009752333468744993209_);}
	.st315{clip-path:url(#SVGID_00000164474357374390163810000006266227199232408750_);}
	.st316{clip-path:url(#SVGID_00000030470076543548119440000013330763892111976115_);}
	.st317{clip-path:url(#SVGID_00000060024746349050133730000003297515828073907101_);}
	.st318{clip-path:url(#SVGID_00000082333910542324397980000004808309872133713340_);}
	.st319{clip-path:url(#SVGID_00000045599015959529989420000013568802805435337396_);}
	.st320{clip-path:url(#SVGID_00000129919943282751631550000005609880792147118522_);}
	.st321{clip-path:url(#SVGID_00000013159807241841314930000017461043514902891147_);}
	.st322{clip-path:url(#SVGID_00000068636454494437623750000011866714754361329595_);}
	.st323{clip-path:url(#SVGID_00000124162106243106702400000004540665326903022781_);}
	.st324{clip-path:url(#SVGID_00000031182224847885285130000003178495432574910097_);}
	.st325{clip-path:url(#SVGID_00000178168922352045788040000007682155481223418760_);}
	.st326{clip-path:url(#SVGID_00000103267397523101446500000013592499599958192032_);}
	.st327{clip-path:url(#SVGID_00000108992550155452831710000013726678540683655341_);}
	.st328{clip-path:url(#SVGID_00000052811975509637382570000015850360072629597848_);}
	.st329{clip-path:url(#SVGID_00000139254258458746182950000000569352197487785659_);}
	.st330{clip-path:url(#SVGID_00000172410666391505023790000014509597371490443913_);}
	.st331{clip-path:url(#SVGID_00000090981030311507020220000008696835627260181439_);}
	.st332{clip-path:url(#SVGID_00000018227030794852709060000017096720224236903325_);}
	.st333{clip-path:url(#SVGID_00000055673466854082757680000017695816005881028771_);}
	.st334{clip-path:url(#SVGID_00000044862741888486379510000003336350824138390156_);}
	.st335{clip-path:url(#SVGID_00000020358676993246857930000004558893622883065256_);}
	.st336{clip-path:url(#SVGID_00000008837970612623130510000017603967662242682795_);}
	.st337{clip-path:url(#SVGID_00000145028003935088813640000008455840091407321010_);}
	.st338{clip-path:url(#SVGID_00000021092894292959390520000012499563745958420902_);}
	.st339{clip-path:url(#SVGID_00000121244358778701061030000013077519642278800035_);}
	.st340{clip-path:url(#SVGID_00000151506641351618154530000013171211452547154828_);}
	.st341{clip-path:url(#SVGID_00000096746373977042496460000005581274443441923721_);}
	.st342{clip-path:url(#SVGID_00000137847801167428394720000003008769827745777804_);}
	.st343{clip-path:url(#SVGID_00000134233792626527386260000005297559055649023904_);}
	.st344{clip-path:url(#SVGID_00000078009712772236880970000004937650461692424102_);}
	.st345{clip-path:url(#SVGID_00000052105055725990099460000016569957725190556845_);}
	.st346{clip-path:url(#SVGID_00000067231188501476512370000007183991454161344168_);}
	.st347{clip-path:url(#SVGID_00000067953213837085011850000005032671588962249142_);}
	.st348{clip-path:url(#SVGID_00000109010256904353798420000013918591201384301748_);}
	.st349{clip-path:url(#SVGID_00000109025561725587202420000008497962888613544078_);}
	.st350{clip-path:url(#SVGID_00000052811047213787862230000006938091426163647894_);}
	.st351{clip-path:url(#SVGID_00000116197010642783061250000002250465488432792969_);}
	.st352{clip-path:url(#SVGID_00000155844532981870183660000006617791940671296696_);}
	.st353{clip-path:url(#SVGID_00000060006731975719158030000018283410037119558322_);}
	.st354{clip-path:url(#SVGID_00000037665148908588694480000017768735404702056100_);}
	.st355{clip-path:url(#SVGID_00000043439722230914074450000011197563254312871834_);}
	.st356{clip-path:url(#SVGID_00000026144211323257979480000007815366009937309082_);}
	.st357{clip-path:url(#SVGID_00000072960833182899953600000000883983922664866455_);}
	.st358{clip-path:url(#SVGID_00000066506714769257153450000012952871605904884667_);}
	.st359{clip-path:url(#SVGID_00000156556633254457714070000018201351733143329210_);}
	.st360{clip-path:url(#SVGID_00000061454648925996910180000009990485312148195204_);}
	.st361{clip-path:url(#SVGID_00000160149212816183130110000010254945342033150387_);}
	.st362{clip-path:url(#SVGID_00000066512137118638847230000001149719097527689899_);}
	.st363{clip-path:url(#SVGID_00000048462264309551549090000002839184433100543902_);}
	.st364{clip-path:url(#SVGID_00000017483832973796406710000008571234032380551060_);}
	.st365{clip-path:url(#SVGID_00000073716280240813884880000001029489803943402121_);}
	.st366{clip-path:url(#SVGID_00000087385919490330441360000000248771054001482647_);}
	.st367{clip-path:url(#SVGID_00000001661743760571021480000009389235357598684560_);}
	.st368{clip-path:url(#SVGID_00000053536784514960162720000016385634719729831087_);}
	.st369{clip-path:url(#SVGID_00000105421184386390135980000012036528249938283440_);}
	.st370{clip-path:url(#SVGID_00000053518505175545447710000012917871382886876605_);}
	.st371{clip-path:url(#SVGID_00000073713622202867775980000014135732946766568633_);}
	.st372{clip-path:url(#SVGID_00000018209442696722277240000016783423688060504991_);}
	.st373{clip-path:url(#SVGID_00000153667501755616983240000006195966400796324767_);}
	.st374{clip-path:url(#SVGID_00000168818406695355149730000003823268156194816923_);}
	.st375{clip-path:url(#SVGID_00000057139475656585047910000006011335670564971942_);}
</style>
<g>
	<g>
		<rect x="4.5" y="122.5" class="st0" width="48.54" height="692.84"/>
	</g>
	<g>
		<rect x="4.5" y="0" class="st1" width="992.7" height="116.88"/>
	</g>
	<g>
		<defs>
			<rect id="SVGID_00000111872055877189397000000009969378612164308108_" y="0" width="1000" height="819.82"/>
		</defs>
		<clipPath id="SVGID_00000090269759184709265840000002458948641670761890_">
			<use xlink:href="#SVGID_00000111872055877189397000000009969378612164308108_"  style="overflow:visible;"/>
		</clipPath>
		<g style="clip-path:url(#SVGID_00000090269759184709265840000002458948641670761890_);">
			<path class="st3" d="M997.19,819.82H1.69c-0.93,0-1.68-0.75-1.68-1.68V2.81c0-0.93,0.75-1.68,1.68-1.68h995.5
				c0.93,0,1.68,0.75,1.68,1.68v815.33C998.87,819.07,998.12,819.82,997.19,819.82z M3.37,816.45h992.14V4.49H3.37V816.45z"/>
		</g>
		<g style="clip-path:url(#SVGID_00000090269759184709265840000002458948641670761890_);">
			<rect x="4.49" y="118" class="st3" width="995.5" height="3.37"/>
		</g>
		<g style="clip-path:url(#SVGID_00000090269759184709265840000002458948641670761890_);">
			<path class="st4" d="M925.42,67.68c0-6.43-3.8-10.45-11.32-11.18l-5.99-0.58c-3.36-0.29-3.94-1.9-3.94-3.29
				c0-1.9,1.61-3.66,5.41-3.66c3.29,0,6.65,0.58,8.84,2.56l5.84-5.92c-3.65-3.43-8.62-4.45-14.54-4.45
				c-7.74,0-14.68,4.23-14.68,12.12c0,7.01,4.24,10.01,11.1,10.67l5.99,0.58c3,0.3,4.02,1.61,4.02,3.51c0,2.85-3.43,3.94-6.72,3.94
				c-2.92,0-7.01-0.44-10.15-3.58l-6.21,6.2c4.82,4.82,10.23,5.47,16.22,5.47C918.26,80.09,925.42,76.08,925.42,67.68 M887.8,67.68
				c0-6.43-3.8-10.45-11.32-11.18l-5.99-0.58c-3.36-0.29-3.94-1.9-3.94-3.29c0-1.9,1.61-3.66,5.41-3.66c3.29,0,6.65,0.58,8.84,2.56
				l5.84-5.92c-3.65-3.43-8.62-4.45-14.54-4.45c-7.74,0-14.68,4.23-14.68,12.12c0,7.01,4.24,10.01,11.1,10.67l5.99,0.58
				c2.99,0.3,4.02,1.61,4.02,3.51c0,2.85-3.43,3.94-6.72,3.94c-2.92,0-7.01-0.44-10.15-3.58l-6.21,6.2
				c4.82,4.82,10.23,5.47,16.22,5.47C880.64,80.09,887.8,76.08,887.8,67.68 M847.04,79.65V41.6h-9.49v23.01
				c0,5.19-3.36,6.94-6.36,6.94c-2.99,0-6.28-1.75-6.28-6.94V41.6h-9.49v24.32c0,4.16,0.8,7.74,3.87,10.81
				c2.11,2.12,5.18,3.35,8.98,3.35c3.51,0,7.02-1.31,9.5-3.94v3.5H847.04z M806.79,79.65v-8.02h-3.65c-2.41,0-3.36-1.17-3.36-3.43
				V27.65h-9.49v41.13c0,5.4,3.29,10.87,11.1,10.87H806.79z M778.96,79.65V55.03c0-8.03-4.38-13.87-12.7-13.87
				c-3.36,0-6.58,1.31-9.14,3.94V27.65h-9.49v52h9.49V56.42c0-4.97,3.14-6.72,6.14-6.72c2.99,0,6.21,1.68,6.21,6.72v23.23H778.96z
				 M738.78,74.91l-6.43-6.35c-1.97,2.12-3.65,2.99-6.14,2.99c-2.26,0-4.02-0.8-5.41-2.48c-1.46-1.83-2.12-4.46-2.12-8.48
				s0.66-6.57,2.12-8.4c1.39-1.69,3.14-2.49,5.41-2.49c2.48,0,4.16,0.88,6.14,3l6.43-6.43c-3.36-3.5-7.3-5.11-12.56-5.11
				c-7.6,0-17.01,4.01-17.01,19.43s9.42,19.5,17.01,19.5C731.48,80.09,735.42,78.41,738.78,74.91 M701.68,67.68
				c0-6.43-3.8-10.45-11.32-11.18l-5.99-0.58c-3.36-0.29-3.94-1.9-3.94-3.29c0-1.9,1.61-3.66,5.41-3.66c3.29,0,6.65,0.58,8.84,2.56
				l5.84-5.92c-3.65-3.43-8.62-4.45-14.54-4.45c-7.74,0-14.68,4.23-14.68,12.12c0,7.01,4.24,10.01,11.1,10.67l5.99,0.58
				c2.99,0.3,4.02,1.61,4.02,3.51c0,2.85-3.43,3.94-6.72,3.94c-2.92,0-7.01-0.44-10.15-3.58l-6.21,6.2
				c4.82,4.82,10.23,5.47,16.22,5.47C694.52,80.09,701.68,76.08,701.68,67.68 M653.04,60.59c0,6.21-0.73,10.96-6.43,10.96
				s-6.43-4.75-6.43-10.96c0-6.21,0.73-10.89,6.43-10.89S653.04,54.38,653.04,60.59 M662.52,60.59c0-5.7-0.07-12.2-3.87-16
				c-2.12-2.11-5.55-3.43-9.28-3.43c-3.87,0-6.73,1.02-9.21,3.79V27.65h-9.48v52h9.19v-3.57c2.63,2.92,5.48,4.01,9.5,4.01
				c3.73,0,7.16-1.31,9.28-3.43C662.45,72.87,662.52,66.29,662.52,60.59 M609.5,65.63c0,2.34-0.37,3.87-1.39,4.83
				c-1.69,1.61-3.37,1.83-6,1.83c-3.73,0-5.48-1.75-5.48-4.39c0-2.7,1.9-4.32,5.34-4.32h7.53V65.63z M618.98,79.65V54.6
				c0-8.91-5.55-13.44-16.21-13.44c-6.36,0-10.01,1.17-13.73,5.25l6.06,5.92c1.97-2.26,3.65-3.15,7.31-3.15c5.04,0,7.09,1.83,7.09,6
				v1.9h-8.99c-8.84,0-13,4.96-13,11.02c0,3.37,1.09,6.43,3.14,8.55c2.26,2.26,5.4,3.35,9.72,3.35c4.38,0,6.79-1.09,9.36-3.65v3.28
				H618.98z M581.15,79.65v-8.02h-3.65c-2.41,0-3.36-1.17-3.36-3.43V27.65h-9.49v41.13c0,5.4,3.28,10.87,11.09,10.87H581.15z
				 M552.88,79.65V41.6h-9.49v23.01c0,5.19-3.37,6.94-6.36,6.94c-2.99,0-6.29-1.75-6.29-6.94V41.6h-9.49v24.32
				c0,4.16,0.8,7.74,3.87,10.81c2.12,2.12,5.18,3.35,8.98,3.35c3.51,0,7.01-1.31,9.5-3.94v3.5H552.88z M510,79.65V55.03
				c0-8.03-4.38-13.87-12.7-13.87c-3.36,0-6.57,1.31-9.14,3.94V27.65h-9.49v52h9.49V56.42c0-4.97,3.15-6.72,6.14-6.72
				c2.99,0,6.21,1.68,6.21,6.72v23.23H510z M469.82,74.91l-6.43-6.35c-1.97,2.12-3.65,2.99-6.14,2.99c-2.26,0-4.02-0.8-5.41-2.48
				c-1.46-1.83-2.12-4.46-2.12-8.48s0.66-6.57,2.12-8.4c1.39-1.69,3.14-2.49,5.41-2.49c2.48,0,4.16,0.88,6.14,3l6.43-6.43
				c-3.36-3.5-7.3-5.11-12.56-5.11c-7.6,0-17.01,4.01-17.01,19.43s9.41,19.5,17.01,19.5C462.52,80.09,466.46,78.41,469.82,74.91
				 M432.72,67.68c0-6.43-3.8-10.45-11.32-11.18l-5.99-0.58c-3.36-0.29-3.94-1.9-3.94-3.29c0-1.9,1.61-3.66,5.41-3.66
				c3.29,0,6.65,0.58,8.84,2.56l5.84-5.92c-3.65-3.43-8.62-4.45-14.54-4.45c-7.74,0-14.68,4.23-14.68,12.12
				c0,7.01,4.24,10.01,11.1,10.67l5.99,0.58c2.99,0.3,4.02,1.61,4.02,3.51c0,2.85-3.43,3.94-6.72,3.94c-2.92,0-7.01-0.44-10.15-3.58
				l-6.21,6.2c4.82,4.82,10.23,5.47,16.22,5.47C425.56,80.09,432.72,76.08,432.72,67.68 M395.02,79.65v-8.02h-3.66
				c-2.41,0-3.35-1.17-3.35-3.43V27.65h-9.49v41.13c0,5.4,3.29,10.87,11.09,10.87H395.02z M357.7,65.63c0,2.34-0.37,3.87-1.39,4.83
				c-1.68,1.61-3.36,1.83-6,1.83c-3.73,0-5.48-1.75-5.48-4.39c0-2.7,1.9-4.32,5.33-4.32h7.53V65.63z M367.19,79.65V54.6
				c0-8.91-5.55-13.44-16.22-13.44c-6.36,0-10.01,1.17-13.73,5.25l6.06,5.92c1.97-2.26,3.65-3.15,7.3-3.15c5.05,0,7.09,1.83,7.09,6
				v1.9h-8.99c-8.84,0-13,4.96-13,11.02c0,3.37,1.1,6.43,3.14,8.55c2.26,2.26,5.4,3.35,9.71,3.35c4.39,0,6.8-1.09,9.36-3.65v3.28
				H367.19z M318.84,57.09h-14.46c0.07-1.68,0.29-2.71,0.88-4.1c1.02-2.26,3.14-3.95,6.36-3.95s5.33,1.69,6.36,3.95
				C318.54,54.38,318.76,55.41,318.84,57.09 M328.19,63.58v-4.23c0-10.45-5.99-18.18-16.58-18.18c-9.86,0-16.58,7.01-16.58,19.43
				c0,15.41,8.61,19.5,17.6,19.5c6.87,0,10.59-2.11,14.46-5.98l-5.77-5.63c-2.41,2.42-4.46,3.58-8.62,3.58
				c-5.33,0-8.33-3.58-8.33-8.48H328.19z M292.32,44.74c-2.63-2.62-5.26-3.57-8.98-3.57c-4.09,0-7.74,1.9-9.57,4.09V41.6h-9.27
				v38.05h9.49V56.71c0-4.82,3.21-7.01,6.14-7.01c2.34,0,3.58,0.8,5.04,2.26L292.32,44.74z M256.82,79.65l-14.61-22.71L255.8,41.6
				h-11.47l-12.64,15.55V27.65h-9.49v52h9.49V68.33l4.02-4.53l9.35,15.85H256.82z M215.33,44.74c-2.63-2.62-5.26-3.57-8.98-3.57
				c-4.09,0-7.74,1.9-9.57,4.09V41.6h-9.27v38.05h9.49V56.71c0-4.82,3.21-7.01,6.14-7.01c2.34,0,3.58,0.8,5.04,2.26L215.33,44.74z
				 M167.92,57.09h-14.46c0.07-1.68,0.29-2.71,0.88-4.1c1.02-2.26,3.14-3.95,6.36-3.95c3.21,0,5.33,1.69,6.36,3.95
				C167.63,54.38,167.85,55.41,167.92,57.09 M177.27,63.58v-4.23c0-10.45-5.99-18.18-16.58-18.18c-9.86,0-16.57,7.01-16.57,19.43
				c0,15.41,8.61,19.5,17.59,19.5c6.87,0,10.59-2.11,14.46-5.98l-5.77-5.63c-2.41,2.42-4.46,3.58-8.62,3.58
				c-5.33,0-8.33-3.58-8.33-8.48H177.27z M141.7,27.65h-10.59L123,60.44l-9.5-32.79h-7.6l-9.5,32.79l-8.04-32.79H77.78l13.88,52
				h8.47l9.57-31.55l9.57,31.55h8.47L141.7,27.65z"/>
		</g>
		<g style="clip-path:url(#SVGID_00000090269759184709265840000002458948641670761890_);">
			<rect x="3.09" y="348.94" class="st3" width="992.7" height="3.37"/>
		</g>
		<g style="clip-path:url(#SVGID_00000090269759184709265840000002458948641670761890_);">
			<rect x="3.09" y="232.07" class="st3" width="992.7" height="3.37"/>
		</g>
		<g style="clip-path:url(#SVGID_00000090269759184709265840000002458948641670761890_);">
			<rect x="3.09" y="463.01" class="st3" width="992.7" height="3.37"/>
		</g>
		<g style="clip-path:url(#SVGID_00000090269759184709265840000002458948641670761890_);">
			<rect x="3.09" y="585.51" class="st3" width="992.7" height="3.37"/>
		</g>
		<g style="clip-path:url(#SVGID_00000090269759184709265840000002458948641670761890_);">
			<rect x="3.09" y="702.39" class="st3" width="992.7" height="3.37"/>
		</g>
		<g style="clip-path:url(#SVGID_00000090269759184709265840000002458948641670761890_);">
			<path class="st3" d="M694.39,661.25c0,4.06-2.4,6.62-5.82,6.62c-3.42,0-5.77-2.57-5.77-6.62c0-4.11,2.35-6.57,5.77-6.57
				C692.2,654.69,694.39,657.52,694.39,661.25 M699.83,661.15c0-6.68-4.48-10.99-9.98-10.99c-1.17,0-2.35,0.16-3.37,0.58l8.17-16.33
				h-5.82l-8.65,17.62c-1.65,3.3-2.83,6.24-2.83,9.34c0,7.05,4.69,11.37,11.26,11.37C695.19,672.73,699.83,668.14,699.83,661.15
				 M658.99,650.04v-4.15h-5.39v-3.93c0-1.99,0.96-3.17,2.99-3.17h2.4v-4.64h-3.42c-5.07,0-7.41,3.62-7.41,7.54v4.2h-3.1v4.15h3.1
				v22.37h5.44v-22.37H658.99z M638.12,645.35h-5.44v27.06h5.44V645.35z M623.76,672.41v-17.3c0-3.05-0.63-5.6-2.71-7.63
				c-1.6-1.55-3.89-2.45-6.68-2.45c-2.73,0-5.34,1.01-7.21,3.03v-2.71h-5.33v27.06h5.44v-16.49c0-4.17,2.56-6.03,5.61-6.03
				c3.05,0,5.45,1.82,5.45,6.03v16.5H623.76z M592.64,645.35h-5.44v27.06h5.44V645.35z M579.56,661.57c0-3.25-1.02-5.98-3.1-7.79
				c-1.6-1.44-3.57-2.29-7.1-2.83l-4.33-0.65c-1.76-0.26-3.31-0.9-4.27-1.76c-1.02-0.91-1.44-2.14-1.44-3.52
				c0-3.37,2.46-5.93,6.95-5.93c3.2,0,5.93,0.7,8.28,2.94l3.67-3.63c-3.25-3.04-6.77-4.32-11.79-4.32c-7.9,0-12.7,4.53-12.7,11.15
				c0,3.1,0.9,5.5,2.77,7.26c1.65,1.55,4.11,2.62,7.2,3.05l4.49,0.64c2.24,0.32,3.2,0.69,4.16,1.6c1.02,0.9,1.49,2.29,1.49,3.95
				c0,3.69-2.88,5.82-7.85,5.82c-3.9,0-6.94-0.85-9.72-3.63l-3.84,3.79c3.62,3.68,7.73,5.01,13.45,5.01
				C573.85,672.73,579.56,668.57,579.56,661.57 M537.13,630.46h-5.23l-15.22,45.9h5.23L537.13,630.46z M494.37,661.25
				c0,4.06-2.4,6.62-5.82,6.62c-3.42,0-5.77-2.57-5.77-6.62c0-4.11,2.35-6.57,5.77-6.57C492.18,654.69,494.37,657.52,494.37,661.25
				 M499.81,661.15c0-6.68-4.48-10.99-9.98-10.99c-1.17,0-2.35,0.16-3.37,0.58l8.18-16.33h-5.82l-8.65,17.62
				c-1.66,3.3-2.83,6.24-2.83,9.34c0,7.05,4.69,11.37,11.26,11.37C495.17,672.73,499.81,668.14,499.81,661.15 M452.19,656.67h-12.17
				c0.06-1.66,0.16-2.46,0.7-3.69c0.85-2.03,2.83-3.42,5.39-3.42s4.48,1.39,5.34,3.42C451.98,654.21,452.14,655.01,452.19,656.67
				 M457.59,660.45v-2.4c0-7.69-4.22-13.02-11.48-13.02c-6.94,0-11.47,5.06-11.47,13.82c0,10.31,5.38,13.88,12.17,13.88
				c4.75,0,7.37-1.44,10.14-4.21l-3.47-3.26c-1.92,1.92-3.52,2.78-6.56,2.78c-4.43,0-6.89-2.94-6.89-7.59H457.59z M428.87,664.14
				c0-4.8-2.99-7.21-8.06-7.64l-4.27-0.37c-2.88-0.27-3.74-1.49-3.74-3.1c0-2.03,1.65-3.47,4.91-3.47c2.56,0,4.96,0.53,6.67,1.98
				l3.42-3.47c-2.51-2.19-5.98-3.03-10.04-3.03c-5.66,0-10.19,2.98-10.19,8.27c0,4.75,2.93,7.05,8.01,7.48l4.32,0.37
				c2.62,0.21,3.63,1.39,3.63,3.2c0,2.57-2.61,3.74-5.92,3.74c-2.67,0-5.61-0.59-7.79-2.83l-3.58,3.57
				c3.2,3.15,6.94,3.89,11.37,3.89C424.07,672.73,428.87,669.8,428.87,664.14 M402.02,664.14c0-4.8-2.99-7.21-8.06-7.64l-4.27-0.37
				c-2.88-0.27-3.74-1.49-3.74-3.1c0-2.03,1.66-3.47,4.91-3.47c2.56,0,4.97,0.53,6.68,1.98l3.42-3.47
				c-2.51-2.19-5.98-3.03-10.04-3.03c-5.66,0-10.2,2.98-10.2,8.27c0,4.75,2.94,7.05,8.01,7.48l4.33,0.37
				c2.61,0.21,3.63,1.39,3.63,3.2c0,2.57-2.62,3.74-5.93,3.74c-2.67,0-5.6-0.59-7.79-2.83l-3.57,3.57c3.2,3.15,6.94,3.89,11.37,3.89
				C397.22,672.73,402.02,669.8,402.02,664.14 M367.64,662.64c0,1.92-0.37,3.2-1.17,4.01c-1.44,1.39-2.99,1.55-5.07,1.55
				c-3.42,0-4.97-1.39-4.97-3.85c0-2.46,1.66-3.9,4.86-3.9h6.36V662.64z M373.08,672.41v-18.09c0-6.14-3.73-9.28-11.15-9.28
				c-4.48,0-7.15,0.9-9.71,3.89l3.57,3.37c1.49-1.92,2.94-2.62,5.93-2.62c4.22,0,5.93,1.66,5.93,5.07v1.93h-7.15
				c-6.19,0-9.34,3.25-9.34,7.79c0,2.3,0.75,4.38,2.14,5.82c1.65,1.65,3.89,2.45,7.25,2.45c3.37,0,5.24-0.8,7.21-2.77v2.45H373.08z
				 M346.66,672.41v-4.64h-2.4c-2.19,0-2.93-1.07-2.93-3.15v-30.21h-5.44v30.53c0,4,2.24,7.47,7.41,7.47H346.66z M330.65,672.41
				l-13.62-23.11l12.33-14.89h-7.05l-15.54,19.11v-19.11h-5.75v38h5.75v-11.05l6.41-7.69l10.68,18.73H330.65z"/>
		</g>
		<g style="clip-path:url(#SVGID_00000090269759184709265840000002458948641670761890_);">
			<path class="st3" d="M700.36,516.77v-4.85h-22.63v10.83h5.23v-5.98h11.59l-12.76,33.15h5.87L700.36,516.77z M658.99,527.55v-4.16
				h-5.39v-3.93c0-1.99,0.96-3.17,2.99-3.17h2.4v-4.64h-3.42c-5.07,0-7.41,3.62-7.41,7.54v4.2h-3.1v4.16h3.1v22.36h5.44v-22.36
				H658.99z M638.12,522.86h-5.44v27.06h5.44V522.86z M623.76,549.91v-17.3c0-3.04-0.63-5.6-2.71-7.63
				c-1.6-1.55-3.89-2.45-6.68-2.45c-2.73,0-5.34,1.01-7.21,3.03v-2.71h-5.33v27.06h5.44v-16.49c0-4.16,2.56-6.03,5.61-6.03
				c3.05,0,5.45,1.81,5.45,6.03v16.49H623.76z M592.64,522.86h-5.44v27.06h5.44V522.86z M579.56,539.08c0-3.25-1.02-5.98-3.1-7.79
				c-1.6-1.44-3.57-2.29-7.1-2.83l-4.33-0.65c-1.76-0.26-3.31-0.9-4.27-1.76c-1.02-0.91-1.44-2.14-1.44-3.52
				c0-3.37,2.46-5.93,6.95-5.93c3.2,0,5.93,0.7,8.28,2.94l3.67-3.63c-3.25-3.04-6.77-4.32-11.79-4.32c-7.9,0-12.7,4.53-12.7,11.15
				c0,3.1,0.9,5.5,2.77,7.26c1.65,1.55,4.11,2.62,7.2,3.05l4.49,0.64c2.24,0.32,3.2,0.69,4.16,1.6c1.02,0.9,1.49,2.29,1.49,3.95
				c0,3.69-2.88,5.82-7.85,5.82c-3.9,0-6.94-0.85-9.72-3.63l-3.84,3.79c3.62,3.68,7.73,5.01,13.45,5.01
				C573.85,550.23,579.56,546.07,579.56,539.08 M537.13,507.96h-5.23l-15.22,45.9h5.23L537.13,507.96z M500.35,516.77v-4.85h-22.63
				v10.83h5.23v-5.98h11.58l-12.76,33.15h5.87L500.35,516.77z M452.19,534.17h-12.17c0.06-1.66,0.16-2.46,0.7-3.69
				c0.85-2.03,2.83-3.42,5.39-3.42s4.48,1.39,5.34,3.42C451.98,531.71,452.14,532.52,452.19,534.17 M457.59,537.95v-2.4
				c0-7.69-4.22-13.02-11.48-13.02c-6.94,0-11.47,5.06-11.47,13.82c0,10.3,5.38,13.87,12.17,13.87c4.75,0,7.37-1.44,10.14-4.21
				l-3.47-3.26c-1.92,1.92-3.52,2.78-6.56,2.78c-4.43,0-6.89-2.94-6.89-7.59H457.59z M428.87,541.64c0-4.8-2.99-7.21-8.06-7.64
				l-4.27-0.37c-2.88-0.27-3.74-1.49-3.74-3.1c0-2.03,1.65-3.47,4.91-3.47c2.56,0,4.96,0.53,6.67,1.98l3.42-3.47
				c-2.51-2.19-5.98-3.03-10.04-3.03c-5.66,0-10.19,2.98-10.19,8.27c0,4.75,2.93,7.05,8.01,7.48l4.32,0.37
				c2.62,0.21,3.63,1.39,3.63,3.2c0,2.57-2.61,3.74-5.92,3.74c-2.67,0-5.61-0.59-7.79-2.83l-3.58,3.58
				c3.2,3.14,6.94,3.89,11.37,3.89C424.07,550.23,428.87,547.3,428.87,541.64 M402.02,541.64c0-4.8-2.99-7.21-8.06-7.64l-4.27-0.37
				c-2.88-0.27-3.74-1.49-3.74-3.1c0-2.03,1.66-3.47,4.91-3.47c2.56,0,4.97,0.53,6.68,1.98l3.42-3.47
				c-2.51-2.19-5.98-3.03-10.04-3.03c-5.66,0-10.2,2.98-10.2,8.27c0,4.75,2.94,7.05,8.01,7.48l4.33,0.37
				c2.61,0.21,3.63,1.39,3.63,3.2c0,2.57-2.62,3.74-5.93,3.74c-2.67,0-5.6-0.59-7.79-2.83l-3.57,3.58c3.2,3.14,6.94,3.89,11.37,3.89
				C397.22,550.23,402.02,547.3,402.02,541.64 M367.64,540.15c0,1.92-0.37,3.2-1.17,4.01c-1.44,1.39-2.99,1.55-5.07,1.55
				c-3.42,0-4.97-1.39-4.97-3.85c0-2.46,1.66-3.9,4.86-3.9h6.36V540.15z M373.08,549.91v-18.09c0-6.14-3.73-9.28-11.15-9.28
				c-4.48,0-7.15,0.9-9.71,3.89l3.57,3.37c1.49-1.92,2.94-2.62,5.93-2.62c4.22,0,5.93,1.66,5.93,5.07v1.93h-7.15
				c-6.19,0-9.34,3.25-9.34,7.79c0,2.3,0.75,4.38,2.14,5.82c1.65,1.65,3.89,2.45,7.25,2.45c3.37,0,5.24-0.8,7.21-2.77v2.45H373.08z
				 M346.66,549.91v-4.64h-2.4c-2.19,0-2.93-1.07-2.93-3.15v-30.21h-5.44v30.53c0,4,2.24,7.47,7.41,7.47H346.66z M330.65,549.91
				l-13.62-23.11l12.33-14.89h-7.05l-15.54,19.11v-19.11h-5.75v38h5.75v-11.05l6.41-7.69l10.68,18.73H330.65z"/>
		</g>
		<g style="clip-path:url(#SVGID_00000090269759184709265840000002458948641670761890_);">
			<path class="st3" d="M694.23,405.39c0,3.36-2.35,5.77-5.66,5.77c-3.32,0-5.61-2.4-5.61-5.77c0-3.32,2.29-5.82,5.61-5.82
				C691.88,399.57,694.23,402.07,694.23,405.39 M694.82,422.2c0,3.52-2.73,6.3-6.25,6.3c-3.53,0-6.25-2.78-6.25-6.3
				c0-3.52,2.72-6.36,6.25-6.36C692.09,415.85,694.82,418.68,694.82,422.2 M700.31,422.31c0-4.54-2.56-7.32-5.23-8.91
				c2.46-1.49,4.59-4.16,4.59-8.17c0-6.36-4.91-10.51-11.1-10.51c-6.2,0-11.05,4.16-11.05,10.51c0,4.01,2.13,6.68,4.59,8.17
				c-2.67,1.6-5.23,4.37-5.23,8.91c0,6.89,5.17,11.05,11.69,11.05C695.08,433.36,700.31,429.2,700.31,422.31 M658.99,410.67v-4.16
				h-5.39v-3.93c0-1.99,0.96-3.17,2.99-3.17h2.4v-4.64h-3.42c-5.07,0-7.41,3.62-7.41,7.54v4.2h-3.1v4.16h3.1v22.36h5.44v-22.36
				H658.99z M638.12,405.98h-5.44v27.06h5.44V405.98z M623.76,433.04v-17.3c0-3.04-0.63-5.6-2.71-7.63
				c-1.6-1.55-3.89-2.45-6.68-2.45c-2.73,0-5.34,1.01-7.21,3.03v-2.71h-5.33v27.06h5.44v-16.49c0-4.16,2.56-6.03,5.61-6.03
				c3.05,0,5.45,1.82,5.45,6.03v16.5H623.76z M592.64,405.98h-5.44v27.06h5.44V405.98z M579.56,422.2c0-3.25-1.02-5.98-3.1-7.79
				c-1.6-1.44-3.57-2.29-7.1-2.83l-4.33-0.65c-1.76-0.26-3.31-0.9-4.27-1.76c-1.02-0.91-1.44-2.14-1.44-3.52
				c0-3.37,2.46-5.93,6.95-5.93c3.2,0,5.93,0.7,8.28,2.94l3.67-3.63c-3.25-3.04-6.77-4.32-11.79-4.32c-7.9,0-12.7,4.53-12.7,11.15
				c0,3.1,0.9,5.5,2.77,7.26c1.65,1.55,4.11,2.62,7.2,3.05l4.49,0.64c2.24,0.32,3.2,0.69,4.16,1.6c1.02,0.9,1.49,2.29,1.49,3.95
				c0,3.69-2.88,5.82-7.85,5.82c-3.9,0-6.94-0.85-9.72-3.63l-3.84,3.79c3.62,3.68,7.73,5.01,13.45,5.01
				C573.85,433.36,579.56,429.2,579.56,422.2 M537.13,391.08h-5.23l-15.22,45.9h5.23L537.13,391.08z M494.21,405.39
				c0,3.36-2.35,5.77-5.66,5.77c-3.31,0-5.61-2.4-5.61-5.77c0-3.32,2.3-5.82,5.61-5.82C491.86,399.57,494.21,402.07,494.21,405.39
				 M494.8,422.2c0,3.52-2.73,6.3-6.25,6.3s-6.25-2.78-6.25-6.3c0-3.52,2.73-6.36,6.25-6.36S494.8,418.68,494.8,422.2
				 M500.29,422.31c0-4.54-2.56-7.32-5.22-8.91c2.45-1.49,4.59-4.16,4.59-8.17c0-6.36-4.91-10.51-11.1-10.51
				c-6.19,0-11.05,4.16-11.05,10.51c0,4.01,2.14,6.68,4.59,8.17c-2.66,1.6-5.23,4.37-5.23,8.91c0,6.89,5.18,11.05,11.69,11.05
				C495.07,433.36,500.29,429.2,500.29,422.31 M452.19,417.3h-12.17c0.06-1.66,0.16-2.46,0.7-3.69c0.85-2.03,2.83-3.42,5.39-3.42
				s4.48,1.39,5.34,3.42C451.98,414.83,452.14,415.64,452.19,417.3 M457.59,421.08v-2.4c0-7.69-4.22-13.02-11.48-13.02
				c-6.94,0-11.47,5.06-11.47,13.82c0,10.3,5.38,13.87,12.17,13.87c4.75,0,7.37-1.44,10.14-4.21l-3.47-3.26
				c-1.92,1.92-3.52,2.78-6.56,2.78c-4.43,0-6.89-2.94-6.89-7.59H457.59z M428.87,424.76c0-4.8-2.99-7.21-8.06-7.64l-4.27-0.37
				c-2.88-0.27-3.74-1.49-3.74-3.1c0-2.03,1.65-3.47,4.91-3.47c2.56,0,4.96,0.53,6.67,1.98l3.42-3.47
				c-2.51-2.19-5.98-3.03-10.04-3.03c-5.66,0-10.19,2.98-10.19,8.27c0,4.75,2.93,7.05,8.01,7.48l4.32,0.37
				c2.62,0.21,3.63,1.39,3.63,3.2c0,2.57-2.61,3.74-5.92,3.74c-2.67,0-5.61-0.59-7.79-2.83l-3.58,3.58
				c3.2,3.14,6.94,3.89,11.37,3.89C424.07,433.36,428.87,430.42,428.87,424.76 M402.02,424.76c0-4.8-2.99-7.21-8.06-7.64l-4.27-0.37
				c-2.88-0.27-3.74-1.49-3.74-3.1c0-2.03,1.66-3.47,4.91-3.47c2.56,0,4.97,0.53,6.68,1.98l3.42-3.47
				c-2.51-2.19-5.98-3.03-10.04-3.03c-5.66,0-10.2,2.98-10.2,8.27c0,4.75,2.94,7.05,8.01,7.48l4.33,0.37
				c2.61,0.21,3.63,1.39,3.63,3.2c0,2.57-2.62,3.74-5.93,3.74c-2.67,0-5.6-0.59-7.79-2.83l-3.57,3.58c3.2,3.14,6.94,3.89,11.37,3.89
				C397.22,433.36,402.02,430.42,402.02,424.76 M367.64,423.27c0,1.92-0.37,3.2-1.17,4.01c-1.44,1.39-2.99,1.55-5.07,1.55
				c-3.42,0-4.97-1.39-4.97-3.85s1.66-3.9,4.86-3.9h6.36V423.27z M373.08,433.04v-18.09c0-6.14-3.73-9.28-11.15-9.28
				c-4.48,0-7.15,0.9-9.71,3.89l3.57,3.37c1.49-1.92,2.94-2.62,5.93-2.62c4.22,0,5.93,1.66,5.93,5.07v1.93h-7.15
				c-6.19,0-9.34,3.25-9.34,7.79c0,2.3,0.75,4.38,2.14,5.82c1.65,1.65,3.89,2.45,7.25,2.45c3.37,0,5.24-0.8,7.21-2.77v2.45H373.08z
				 M346.66,433.04v-4.64h-2.4c-2.19,0-2.93-1.07-2.93-3.15v-30.21h-5.44v30.53c0,4,2.24,7.47,7.41,7.47H346.66z M330.65,433.04
				l-13.62-23.11l12.33-14.89h-7.05l-15.54,19.11v-19.11h-5.75v38h5.75v-11.05l6.41-7.69l10.68,18.73H330.65z"/>
		</g>
		<g style="clip-path:url(#SVGID_00000090269759184709265840000002458948641670761890_);">
			<path class="st3" d="M694.39,289.31c0,4.11-2.4,6.57-5.82,6.57c-3.64,0-5.77-2.83-5.77-6.57c0-4.06,2.35-6.62,5.77-6.62
				C691.98,282.69,694.39,285.25,694.39,289.31 M699.83,289.2c0-7.05-4.69-11.37-11.26-11.37c-6.57,0-11.21,4.59-11.21,11.58
				c0,6.68,4.43,11,9.93,11c1.17,0,2.4-0.16,3.42-0.59l-8.17,16.33h5.82l8.65-17.62C698.65,295.24,699.83,292.3,699.83,289.2
				 M658.99,293.79v-4.16h-5.39v-3.93c0-1.99,0.96-3.17,2.99-3.17h2.4v-4.64h-3.42c-5.07,0-7.41,3.62-7.41,7.54v4.2h-3.1v4.16h3.1
				v22.36h5.44v-22.36H658.99z M638.12,289.1h-5.44v27.06h5.44V289.1z M623.76,316.16v-17.3c0-3.04-0.63-5.6-2.71-7.63
				c-1.6-1.55-3.89-2.45-6.68-2.45c-2.73,0-5.34,1.01-7.21,3.03v-2.71h-5.33v27.06h5.44v-16.49c0-4.16,2.56-6.03,5.61-6.03
				c3.05,0,5.45,1.81,5.45,6.03v16.5H623.76z M592.64,289.1h-5.44v27.06h5.44V289.1z M579.56,305.32c0-3.25-1.02-5.98-3.1-7.79
				c-1.6-1.44-3.57-2.29-7.1-2.83l-4.33-0.65c-1.76-0.26-3.31-0.9-4.27-1.76c-1.02-0.91-1.44-2.14-1.44-3.52
				c0-3.37,2.46-5.93,6.95-5.93c3.2,0,5.93,0.7,8.28,2.94l3.67-3.63c-3.25-3.04-6.77-4.32-11.79-4.32c-7.9,0-12.7,4.53-12.7,11.15
				c0,3.1,0.9,5.5,2.77,7.26c1.65,1.55,4.11,2.62,7.2,3.05l4.49,0.64c2.24,0.32,3.2,0.69,4.16,1.6c1.02,0.9,1.49,2.29,1.49,3.95
				c0,3.69-2.88,5.82-7.85,5.82c-3.9,0-6.94-0.85-9.72-3.63l-3.84,3.79c3.62,3.68,7.73,5.01,13.45,5.01
				C573.85,316.48,579.56,312.32,579.56,305.32 M537.13,274.21h-5.23l-15.22,45.9h5.23L537.13,274.21z M494.37,289.31
				c0,4.11-2.4,6.57-5.82,6.57c-3.63,0-5.77-2.83-5.77-6.57c0-4.06,2.35-6.62,5.77-6.62C491.97,282.69,494.37,285.25,494.37,289.31
				 M499.81,289.2c0-7.05-4.69-11.37-11.26-11.37s-11.2,4.59-11.2,11.58c0,6.68,4.42,11,9.92,11c1.17,0,2.4-0.16,3.42-0.59
				l-8.17,16.33h5.82l8.65-17.62C498.64,295.24,499.81,292.3,499.81,289.2 M452.19,300.42h-12.17c0.06-1.66,0.16-2.46,0.7-3.69
				c0.85-2.03,2.83-3.42,5.39-3.42s4.48,1.39,5.34,3.42C451.98,297.96,452.14,298.76,452.19,300.42 M457.59,304.2v-2.4
				c0-7.69-4.22-13.02-11.48-13.02c-6.94,0-11.47,5.06-11.47,13.82c0,10.3,5.38,13.87,12.17,13.87c4.75,0,7.37-1.44,10.14-4.21
				l-3.47-3.26c-1.92,1.92-3.52,2.78-6.56,2.78c-4.43,0-6.89-2.94-6.89-7.59H457.59z M428.87,307.89c0-4.8-2.99-7.21-8.06-7.64
				l-4.27-0.37c-2.88-0.27-3.74-1.49-3.74-3.1c0-2.03,1.65-3.47,4.91-3.47c2.56,0,4.96,0.53,6.67,1.98l3.42-3.47
				c-2.51-2.19-5.98-3.03-10.04-3.03c-5.66,0-10.19,2.98-10.19,8.27c0,4.75,2.93,7.05,8.01,7.48l4.32,0.37
				c2.62,0.21,3.63,1.39,3.63,3.2c0,2.57-2.61,3.74-5.92,3.74c-2.67,0-5.61-0.59-7.79-2.83l-3.58,3.58
				c3.2,3.14,6.94,3.89,11.37,3.89C424.07,316.48,428.87,313.55,428.87,307.89 M402.02,307.89c0-4.8-2.99-7.21-8.06-7.64l-4.27-0.37
				c-2.88-0.27-3.74-1.49-3.74-3.1c0-2.03,1.66-3.47,4.91-3.47c2.56,0,4.97,0.53,6.68,1.98l3.42-3.47
				c-2.51-2.19-5.98-3.03-10.04-3.03c-5.66,0-10.2,2.98-10.2,8.27c0,4.75,2.94,7.05,8.01,7.48l4.33,0.37
				c2.61,0.21,3.63,1.39,3.63,3.2c0,2.57-2.62,3.74-5.93,3.74c-2.67,0-5.6-0.59-7.79-2.83l-3.57,3.58c3.2,3.14,6.94,3.89,11.37,3.89
				C397.22,316.48,402.02,313.55,402.02,307.89 M367.64,306.39c0,1.92-0.37,3.2-1.17,4.01c-1.44,1.39-2.99,1.55-5.07,1.55
				c-3.42,0-4.97-1.39-4.97-3.85c0-2.46,1.66-3.9,4.86-3.9h6.36V306.39z M373.08,316.16v-18.09c0-6.14-3.73-9.28-11.15-9.28
				c-4.48,0-7.15,0.9-9.71,3.89l3.57,3.37c1.49-1.92,2.94-2.62,5.93-2.62c4.22,0,5.93,1.66,5.93,5.07v1.93h-7.15
				c-6.19,0-9.34,3.25-9.34,7.79c0,2.3,0.75,4.38,2.14,5.82c1.65,1.65,3.89,2.45,7.25,2.45c3.37,0,5.24-0.8,7.21-2.77v2.45H373.08z
				 M346.66,316.16v-4.64h-2.4c-2.19,0-2.93-1.07-2.93-3.15v-30.21h-5.44v30.53c0,4,2.24,7.47,7.41,7.47H346.66z M330.65,316.16
				l-13.62-23.11l12.33-14.89h-7.05l-15.54,19.11v-19.11h-5.75v38h5.75v-11.05l6.41-7.69l10.68,18.73H330.65z"/>
		</g>
		<g style="clip-path:url(#SVGID_00000090269759184709265840000002458948641670761890_);">
			<path class="st3" d="M723.11,188.55c0,3.69-2.08,6.2-5.56,6.2c-3.47,0-5.5-2.51-5.5-6.2v-16.55c0-3.69,2.03-6.19,5.5-6.19
				c3.47,0,5.56,2.51,5.56,6.19V188.55z M728.54,188.72v-16.87c0-6.78-4.96-10.88-11-10.88c-6.03,0-10.93,4.11-10.93,10.88v16.87
				c0,6.78,4.91,10.88,10.93,10.88C723.58,199.6,728.54,195.5,728.54,188.72 M693.31,199.28v-38h-5.44l-7.42,6.41v6.03l7.42-6.51
				v32.07H693.31z M658.99,176.92v-4.16h-5.39v-3.93c0-1.99,0.96-3.17,2.99-3.17h2.4v-4.64h-3.42c-5.07,0-7.42,3.62-7.42,7.54v4.2
				h-3.1v4.16h3.1v22.36h5.44v-22.36H658.99z M638.12,172.23h-5.44v27.06h5.44V172.23z M623.76,199.28v-17.3
				c0-3.04-0.64-5.6-2.72-7.63c-1.6-1.55-3.89-2.45-6.67-2.45c-2.73,0-5.34,1.01-7.21,3.03v-2.71h-5.33v27.06h5.43v-16.49
				c0-4.16,2.57-6.03,5.61-6.03c3.05,0,5.45,1.82,5.45,6.03v16.5H623.76z M592.64,172.23h-5.44v27.06h5.44V172.23z M579.56,188.45
				c0-3.25-1.01-5.98-3.09-7.79c-1.6-1.44-3.57-2.29-7.1-2.83l-4.33-0.65c-1.76-0.26-3.31-0.9-4.27-1.76
				c-1.01-0.91-1.44-2.14-1.44-3.52c0-3.37,2.46-5.93,6.95-5.93c3.2,0,5.93,0.7,8.28,2.94l3.68-3.63
				c-3.25-3.04-6.78-4.32-11.79-4.32c-7.91,0-12.7,4.53-12.7,11.15c0,3.1,0.9,5.5,2.78,7.26c1.65,1.55,4.11,2.62,7.2,3.05l4.48,0.64
				c2.24,0.32,3.2,0.69,4.17,1.6c1.01,0.9,1.49,2.29,1.49,3.95c0,3.69-2.89,5.82-7.85,5.82c-3.9,0-6.95-0.85-9.72-3.63l-3.84,3.79
				c3.63,3.68,7.74,5.01,13.45,5.01C573.86,199.6,579.56,195.44,579.56,188.45 M537.12,157.33h-5.23l-15.21,45.9h5.23L537.12,157.33
				z M494.11,188.55c0,3.69-2.08,6.2-5.56,6.2c-3.47,0-5.5-2.51-5.5-6.2v-16.55c0-3.69,2.03-6.19,5.5-6.19
				c3.47,0,5.56,2.51,5.56,6.19V188.55z M499.54,188.72v-16.87c0-6.78-4.96-10.88-11-10.88c-6.03,0-10.93,4.11-10.93,10.88v16.87
				c0,6.78,4.9,10.88,10.93,10.88C494.58,199.6,499.54,195.5,499.54,188.72 M464.31,199.28v-38h-5.44l-7.42,6.41v6.03l7.42-6.51
				v32.07H464.31z M423.21,183.54h-12.17c0.06-1.66,0.16-2.46,0.7-3.69c0.85-2.03,2.83-3.42,5.39-3.42s4.48,1.39,5.34,3.42
				C423,181.08,423.16,181.88,423.21,183.54 M428.6,187.32v-2.4c0-7.69-4.22-13.02-11.48-13.02c-6.94,0-11.47,5.06-11.47,13.82
				c0,10.3,5.38,13.87,12.17,13.87c4.75,0,7.37-1.44,10.14-4.21l-3.47-3.26c-1.92,1.92-3.52,2.78-6.56,2.78
				c-4.43,0-6.89-2.94-6.89-7.59H428.6z M399.88,191.01c0-4.8-2.99-7.21-8.06-7.64l-4.27-0.37c-2.88-0.27-3.74-1.49-3.74-3.1
				c0-2.03,1.65-3.47,4.91-3.47c2.56,0,4.96,0.53,6.67,1.98l3.42-3.47c-2.51-2.19-5.98-3.03-10.04-3.03
				c-5.66,0-10.19,2.98-10.19,8.27c0,4.75,2.93,7.05,8.01,7.48l4.32,0.37c2.62,0.21,3.63,1.39,3.63,3.2c0,2.57-2.61,3.74-5.92,3.74
				c-2.67,0-5.61-0.59-7.79-2.83l-3.58,3.58c3.2,3.14,6.94,3.89,11.37,3.89C395.08,199.6,399.88,196.67,399.88,191.01
				 M373.04,191.01c0-4.8-2.99-7.21-8.06-7.64L360.7,183c-2.88-0.27-3.74-1.49-3.74-3.1c0-2.03,1.66-3.47,4.91-3.47
				c2.56,0,4.97,0.53,6.68,1.98l3.42-3.47c-2.51-2.19-5.98-3.03-10.04-3.03c-5.66,0-10.2,2.98-10.2,8.27c0,4.75,2.94,7.05,8.01,7.48
				l4.33,0.37c2.61,0.21,3.63,1.39,3.63,3.2c0,2.57-2.62,3.74-5.93,3.74c-2.67,0-5.6-0.59-7.79-2.83l-3.57,3.58
				c3.2,3.14,6.94,3.89,11.37,3.89C368.23,199.6,373.04,196.67,373.04,191.01 M338.66,189.52c0,1.92-0.37,3.2-1.17,4.01
				c-1.44,1.39-2.99,1.55-5.07,1.55c-3.42,0-4.97-1.39-4.97-3.85c0-2.46,1.66-3.9,4.86-3.9h6.36V189.52z M344.1,199.28v-18.09
				c0-6.14-3.73-9.28-11.15-9.28c-4.48,0-7.15,0.9-9.71,3.89l3.57,3.37c1.49-1.92,2.94-2.62,5.93-2.62c4.22,0,5.93,1.66,5.93,5.07
				v1.93h-7.15c-6.19,0-9.34,3.25-9.34,7.79c0,2.3,0.75,4.38,2.14,5.82c1.65,1.65,3.89,2.45,7.25,2.45c3.37,0,5.24-0.8,7.21-2.77
				v2.45H344.1z M317.68,199.28v-4.64h-2.4c-2.19,0-2.93-1.07-2.93-3.15v-30.21h-5.44v30.53c0,4,2.24,7.47,7.41,7.47H317.68z
				 M301.66,199.28l-13.62-23.11l12.33-14.89h-7.05l-15.54,19.11v-19.11h-5.75v38h5.75v-11.05l6.41-7.69l10.68,18.73H301.66z"/>
		</g>
		<g style="clip-path:url(#SVGID_00000090269759184709265840000002458948641670761890_);">
			<path class="st3" d="M699.93,770.97c0-3.58-0.43-7.27-3.31-10.14c-1.55-1.55-3.84-2.46-6.83-2.46c-2.78,0-5.02,0.85-6.3,2.19
				v-10.04h15.59v-4.85h-20.49v20.76h4.96c0.59-1.87,2.3-3.42,5.39-3.42c4.38,0,5.56,3.42,5.56,7.96c0,2.56-0.21,5.07-1.82,6.68
				c-0.97,0.96-2.35,1.49-3.96,1.49c-3.42,0-5.12-1.92-5.55-5.29h-5.44c0.21,2.72,0.85,5.23,2.88,7.26
				c1.65,1.65,4.48,2.93,8.11,2.93c3.69,0,6.3-1.28,8.01-2.98C699.51,778.28,699.93,775.02,699.93,770.97 M658.99,761.3v-4.16h-5.39
				v-3.93c0-1.99,0.96-3.17,2.99-3.17h2.4v-4.64h-3.42c-5.07,0-7.41,3.62-7.41,7.54v4.2h-3.1v4.16h3.1v22.36h5.44V761.3H658.99z
				 M638.12,756.61h-5.44v27.06h5.44V756.61z M623.76,783.67v-17.3c0-3.05-0.63-5.6-2.71-7.63c-1.6-1.55-3.89-2.45-6.68-2.45
				c-2.73,0-5.34,1.01-7.21,3.03v-2.71h-5.33v27.06h5.44v-16.49c0-4.17,2.56-6.03,5.61-6.03c3.05,0,5.45,1.81,5.45,6.03v16.5H623.76
				z M592.64,756.61h-5.44v27.06h5.44V756.61z M579.56,772.83c0-3.25-1.02-5.98-3.1-7.79c-1.6-1.44-3.57-2.29-7.1-2.83l-4.33-0.65
				c-1.76-0.26-3.31-0.9-4.27-1.76c-1.02-0.91-1.44-2.14-1.44-3.52c0-3.37,2.46-5.93,6.95-5.93c3.2,0,5.93,0.7,8.28,2.94l3.67-3.63
				c-3.25-3.04-6.77-4.32-11.79-4.32c-7.9,0-12.7,4.53-12.7,11.15c0,3.1,0.9,5.5,2.77,7.26c1.65,1.55,4.11,2.62,7.2,3.05l4.49,0.64
				c2.24,0.32,3.2,0.69,4.16,1.6c1.02,0.9,1.49,2.29,1.49,3.95c0,3.69-2.88,5.82-7.85,5.82c-3.9,0-6.94-0.85-9.72-3.63l-3.84,3.79
				c3.62,3.68,7.73,5.01,13.45,5.01C573.85,783.99,579.56,779.83,579.56,772.83 M537.13,741.71h-5.23l-15.22,45.9h5.23
				L537.13,741.71z M499.92,770.97c0-3.58-0.43-7.27-3.3-10.14c-1.55-1.55-3.84-2.46-6.83-2.46c-2.78,0-5.02,0.85-6.3,2.19v-10.04
				h15.59v-4.85h-20.49v20.76h4.96c0.59-1.87,2.3-3.42,5.4-3.42c4.38,0,5.55,3.42,5.55,7.96c0,2.56-0.21,5.07-1.81,6.68
				c-0.96,0.96-2.35,1.49-3.95,1.49c-3.42,0-5.13-1.92-5.56-5.29h-5.44c0.21,2.72,0.85,5.23,2.88,7.26
				c1.65,1.65,4.48,2.93,8.11,2.93c3.68,0,6.3-1.28,8.01-2.98C499.49,778.28,499.92,775.02,499.92,770.97 M452.19,767.93h-12.17
				c0.06-1.66,0.16-2.46,0.7-3.69c0.85-2.03,2.83-3.42,5.39-3.42s4.48,1.39,5.34,3.42C451.98,765.47,452.14,766.27,452.19,767.93
				 M457.59,771.71v-2.4c0-7.69-4.22-13.02-11.48-13.02c-6.94,0-11.47,5.06-11.47,13.82c0,10.31,5.38,13.88,12.17,13.88
				c4.75,0,7.37-1.44,10.14-4.21l-3.47-3.26c-1.92,1.92-3.52,2.78-6.56,2.78c-4.43,0-6.89-2.94-6.89-7.59H457.59z M428.87,775.39
				c0-4.8-2.99-7.21-8.06-7.64l-4.27-0.37c-2.88-0.27-3.74-1.49-3.74-3.1c0-2.03,1.65-3.47,4.91-3.47c2.56,0,4.96,0.53,6.67,1.98
				l3.42-3.47c-2.51-2.19-5.98-3.03-10.04-3.03c-5.66,0-10.19,2.98-10.19,8.27c0,4.75,2.93,7.05,8.01,7.48l4.32,0.37
				c2.62,0.21,3.63,1.39,3.63,3.2c0,2.57-2.61,3.74-5.92,3.74c-2.67,0-5.61-0.59-7.79-2.83l-3.58,3.57
				c3.2,3.15,6.94,3.89,11.37,3.89C424.07,783.99,428.87,781.05,428.87,775.39 M402.02,775.39c0-4.8-2.99-7.21-8.06-7.64l-4.27-0.37
				c-2.88-0.27-3.74-1.49-3.74-3.1c0-2.03,1.66-3.47,4.91-3.47c2.56,0,4.97,0.53,6.68,1.98l3.42-3.47
				c-2.51-2.19-5.98-3.03-10.04-3.03c-5.66,0-10.2,2.98-10.2,8.27c0,4.75,2.94,7.05,8.01,7.48l4.33,0.37
				c2.61,0.21,3.63,1.39,3.63,3.2c0,2.57-2.62,3.74-5.93,3.74c-2.67,0-5.6-0.59-7.79-2.83l-3.57,3.57c3.2,3.15,6.94,3.89,11.37,3.89
				C397.22,783.99,402.02,781.05,402.02,775.39 M367.64,773.9c0,1.92-0.37,3.2-1.17,4.01c-1.44,1.39-2.99,1.55-5.07,1.55
				c-3.42,0-4.97-1.39-4.97-3.85c0-2.46,1.66-3.9,4.86-3.9h6.36V773.9z M373.08,783.67v-18.09c0-6.14-3.73-9.28-11.15-9.28
				c-4.48,0-7.15,0.9-9.71,3.89l3.57,3.37c1.49-1.92,2.94-2.62,5.93-2.62c4.22,0,5.93,1.66,5.93,5.07v1.93h-7.15
				c-6.19,0-9.34,3.25-9.34,7.79c0,2.3,0.75,4.38,2.14,5.82c1.65,1.65,3.89,2.45,7.25,2.45c3.37,0,5.24-0.8,7.21-2.77v2.45H373.08z
				 M346.66,783.67v-4.64h-2.4c-2.19,0-2.93-1.07-2.93-3.15v-30.21h-5.44v30.53c0,4,2.24,7.47,7.41,7.47H346.66z M330.65,783.67
				l-13.62-23.11l12.33-14.89h-7.05l-15.54,19.11v-19.11h-5.75v38h5.75v-11.05l6.41-7.69l10.68,18.73H330.65z"/>
		</g>
	</g>
	<g>
		<polygon class="st4" points="20.73,755.85 36.8,755.85 28.77,745.23 		"/>
	</g>
	<g>
		<polygon class="st4" points="20.73,776.99 36.8,776.99 28.77,766.36 		"/>
	</g>
	<g>
		<polygon class="st4" points="20.73,798.12 36.8,798.12 28.77,787.5 		"/>
	</g>
	<g>
		<polygon class="st4" points="20.73,734.72 36.8,734.72 28.77,724.09 		"/>
	</g>
	<g>
		<polygon class="st4" points="20.73,640.38 36.8,640.38 28.77,629.75 		"/>
	</g>
	<g>
		<polygon class="st4" points="20.73,661.51 36.8,661.51 28.77,650.89 		"/>
	</g>
	<g>
		<polygon class="st4" points="20.73,682.65 36.8,682.65 28.77,672.02 		"/>
	</g>
	<g>
		<polygon class="st4" points="20.73,619.24 36.8,619.24 28.77,608.62 		"/>
	</g>
	<g>
		<polygon class="st4" points="20.73,520.69 36.8,520.69 28.77,510.07 		"/>
	</g>
	<g>
		<polygon class="st4" points="20.73,541.83 36.8,541.83 28.77,531.2 		"/>
	</g>
	<g>
		<polygon class="st4" points="20.73,562.96 36.8,562.96 28.77,552.34 		"/>
	</g>
	<g>
		<polygon class="st4" points="20.73,499.56 36.8,499.56 28.77,488.93 		"/>
	</g>
	<g>
		<polygon class="st4" points="20.73,402.41 36.8,402.41 28.77,391.78 		"/>
	</g>
	<g>
		<polygon class="st4" points="20.73,423.54 36.8,423.54 28.77,412.92 		"/>
	</g>
	<g>
		<polygon class="st4" points="20.73,444.68 36.8,444.68 28.77,434.05 		"/>
	</g>
	<g>
		<polygon class="st4" points="20.73,381.27 36.8,381.27 28.77,370.65 		"/>
	</g>
	<g>
		<polygon class="st4" points="20.73,286.94 36.8,286.94 28.77,276.31 		"/>
	</g>
	<g>
		<polygon class="st4" points="20.73,308.07 36.8,308.07 28.77,297.45 		"/>
	</g>
	<g>
		<polygon class="st4" points="20.73,329.21 36.8,329.21 28.77,318.58 		"/>
	</g>
	<g>
		<polygon class="st4" points="20.73,265.8 36.8,265.8 28.77,255.18 		"/>
	</g>
	<g>
		<polygon class="st4" points="20.73,170.06 36.8,170.06 28.77,159.44 		"/>
	</g>
	<g>
		<polygon class="st4" points="20.73,191.2 36.8,191.2 28.77,180.57 		"/>
	</g>
	<g>
		<polygon class="st4" points="20.73,212.33 36.8,212.33 28.77,201.71 		"/>
	</g>
	<g>
		<polygon class="st4" points="20.73,148.93 36.8,148.93 28.77,138.3 		"/>
	</g>
</g>
</svg>
