<?xml version="1.0" encoding="utf-8"?>
<!-- Generator: Adobe Illustrator 26.2.1, SVG Export Plug-In . SVG Version: 6.00 Build 0)  -->
<svg version="1.1" id="Ebene_1" xmlns="http://www.w3.org/2000/svg" xmlns:xlink="http://www.w3.org/1999/xlink" x="0px" y="0px"
	 viewBox="0 0 1000 825.44" style="enable-background:new 0 0 1000 825.44;" xml:space="preserve">
<style type="text/css">
	.st0{fill:#A2B9E1;}
	.st1{fill:#6796CF;}
	.st2{clip-path:url(#SVGID_00000003098952726949852770000000270403630187445688_);}
	.st3{fill:#2B2961;}
	.st4{fill:#FFFFFF;}
	.st5{clip-path:url(#SVGID_00000106138462520719331700000004917257621645978500_);}
	.st6{clip-path:url(#SVGID_00000004524569896211473540000015165151286944528810_);}
	.st7{clip-path:url(#SVGID_00000150096996656000424050000007331160496484550800_);}
	.st8{clip-path:url(#SVGID_00000017477205649973053900000003665128199406000547_);}
	.st9{clip-path:url(#SVGID_00000152245468740115217410000013139481206346593435_);}
	.st10{opacity:0.52;clip-path:url(#SVGID_00000143575938322771457360000004031746842051733923_);}
	.st11{clip-path:url(#SVGID_00000164486362689410520710000012689943598481403315_);}
	.st12{clip-path:url(#SVGID_00000031181836344434621240000014991773461123574677_);}
	.st13{clip-path:url(#SVGID_00000101088647358770036860000002767480152297860740_);}
	.st14{clip-path:url(#SVGID_00000176748246027217186740000014974721428592213414_);}
	.st15{clip-path:url(#SVGID_00000160896965509984989170000003815324023175176369_);}
	.st16{clip-path:url(#SVGID_00000012450022488855770650000005123389202748839558_);}
	.st17{clip-path:url(#SVGID_00000078740484311712103390000013644077939790823862_);}
	.st18{clip-path:url(#SVGID_00000122681637838195448320000012274170702541162376_);}
	.st19{clip-path:url(#SVGID_00000015313810720505431240000007131577753883353501_);}
	.st20{clip-path:url(#SVGID_00000139269234294574121150000003608844395821280447_);}
	.st21{clip-path:url(#SVGID_00000082330837069005564750000003960451718039411848_);}
	.st22{clip-path:url(#SVGID_00000110454668139831858660000011455716411529748380_);}
	.st23{fill:none;stroke:#2B2961;stroke-width:0.374;stroke-linejoin:round;stroke-miterlimit:10;}
	.st24{fill:none;stroke:#2B2961;stroke-width:0.4;stroke-miterlimit:10;}
	.st25{clip-path:url(#SVGID_00000051355510718261811280000003109432448124497026_);}
	.st26{clip-path:url(#SVGID_00000090269062346024272710000005048850037693527959_);}
	.st27{clip-path:url(#SVGID_00000132799512884832259880000017884569430147879077_);}
	.st28{clip-path:url(#SVGID_00000096026317048294642340000012230052253953931669_);}
	.st29{clip-path:url(#SVGID_00000168838574019960878670000016775484868243710121_);}
	.st30{clip-path:url(#SVGID_00000163764091843901864290000018274954329756071085_);}
	.st31{clip-path:url(#SVGID_00000129906229754321715010000005862516956663541138_);}
	.st32{clip-path:url(#SVGID_00000062182265571460970350000010645804949212053183_);}
	.st33{clip-path:url(#SVGID_00000010997492014139443120000013735052191778788283_);}
	.st34{clip-path:url(#SVGID_00000006708128314230875750000017805444159055626923_);}
	.st35{clip-path:url(#SVGID_00000071519985402417597900000003763150120341877671_);}
	.st36{clip-path:url(#SVGID_00000079485550327486771980000007682223733778508428_);}
	.st37{clip-path:url(#SVGID_00000111171354536871103520000011100906417925193397_);}
	.st38{clip-path:url(#SVGID_00000171717597325802144660000017580134596171270797_);}
	.st39{clip-path:url(#SVGID_00000167395155480330923590000007299137478974202006_);}
	.st40{clip-path:url(#SVGID_00000074442009100611098630000003035716051795486106_);}
	.st41{clip-path:url(#SVGID_00000162352015737131281800000000698719709812924058_);}
	.st42{clip-path:url(#SVGID_00000047056830219876221540000016957537007527206575_);}
	.st43{clip-path:url(#SVGID_00000157292966888236743730000014572999114918127292_);}
	.st44{clip-path:url(#SVGID_00000179621030744404393330000012951908803270536327_);}
	.st45{clip-path:url(#SVGID_00000085224885968287155320000002907325848607048611_);}
	.st46{clip-path:url(#SVGID_00000103985870713208378750000011635403311924085641_);}
	.st47{clip-path:url(#SVGID_00000165225704202502905850000007749792574733024664_);}
	.st48{clip-path:url(#SVGID_00000051384357155308838100000011094262168154519193_);}
	.st49{clip-path:url(#SVGID_00000150103179708112730040000001645862141772391598_);}
	.st50{clip-path:url(#SVGID_00000139293398100294339230000008621217924619966879_);}
	.st51{clip-path:url(#SVGID_00000018942511130150256540000014612315449706996883_);}
	.st52{clip-path:url(#SVGID_00000060735663412598595940000015168937176837258430_);}
	.st53{clip-path:url(#SVGID_00000134236636466835226410000004845588304631864716_);}
	.st54{clip-path:url(#SVGID_00000049182242148340703340000018090429100796306094_);}
	.st55{clip-path:url(#SVGID_00000017509065435366280790000012535563494959495308_);}
	.st56{clip-path:url(#SVGID_00000120532023865727212800000018379963896958489500_);}
	.st57{clip-path:url(#SVGID_00000183968689067750021940000009946591260786164905_);}
	.st58{clip-path:url(#SVGID_00000101089144337398262970000007537297204108665018_);}
	.st59{clip-path:url(#SVGID_00000039836023586126550220000011241202400505117579_);}
	.st60{clip-path:url(#SVGID_00000010293525792091135310000011623305328963553670_);}
	.st61{clip-path:url(#SVGID_00000015314982312062857650000000318523238423526296_);}
	.st62{fill:#9AB4DE;}
	.st63{clip-path:url(#SVGID_00000070085562667208298890000005732934568828899250_);}
	.st64{clip-path:url(#SVGID_00000026128386508758293740000012755960441633207956_);}
	.st65{clip-path:url(#SVGID_00000115474129731589886190000002186966701210060929_);}
	.st66{fill:#B9C9E9;}
	.st67{clip-path:url(#SVGID_00000022561174603584017440000000241327390544054959_);}
	.st68{clip-path:url(#SVGID_00000017504079670582528190000004712214664202758037_);}
	.st69{clip-path:url(#SVGID_00000064327176384287313370000000081255990341969560_);}
	.st70{clip-path:url(#SVGID_00000106117419256405249070000007742227712577196436_);}
	.st71{clip-path:url(#SVGID_00000000224981741919851490000002777503557883177119_);}
	.st72{clip-path:url(#SVGID_00000075126308490032161950000000686787261307370147_);}
	.st73{clip-path:url(#SVGID_00000072996369766103277250000000205802740672921759_);}
	.st74{clip-path:url(#SVGID_00000078010739295939734900000001107524237243742376_);}
	.st75{clip-path:url(#SVGID_00000094580117833239952610000011153494514702688162_);}
	.st76{clip-path:url(#SVGID_00000044139659561235015000000001855899472297745024_);}
	.st77{clip-path:url(#SVGID_00000133501584520519422810000007452286763573702823_);}
	.st78{clip-path:url(#SVGID_00000111887694087921437240000011726859700404290448_);}
	.st79{clip-path:url(#SVGID_00000067930448489275168730000001967278510643661498_);}
	.st80{clip-path:url(#SVGID_00000016057810051932701630000004611871713062204303_);}
	.st81{clip-path:url(#SVGID_00000161629994698156754840000001689908166683540626_);}
	.st82{clip-path:url(#SVGID_00000153695839972028652190000005466221298112844170_);}
	.st83{clip-path:url(#SVGID_00000012447061600853750770000001638602528111349407_);}
	.st84{clip-path:url(#SVGID_00000114760336930537974400000018290133089077488565_);}
	.st85{clip-path:url(#SVGID_00000127010960719227828750000004833971544975257485_);}
	.st86{clip-path:url(#SVGID_00000180361305982815469390000010671821027379346092_);}
	.st87{clip-path:url(#SVGID_00000029012182535039260580000009512283840709534630_);}
	.st88{clip-path:url(#SVGID_00000133510162294273938450000017568845466349647280_);}
	.st89{clip-path:url(#SVGID_00000045615453079360484950000004567989776574161063_);}
	.st90{clip-path:url(#SVGID_00000112626717110909664180000012807881511498006154_);}
	.st91{clip-path:url(#SVGID_00000138551951174845020140000009967180217110633386_);}
	.st92{clip-path:url(#SVGID_00000147215486182923114120000006012761732671349123_);}
	.st93{clip-path:url(#SVGID_00000167390698035882079760000002827889680808360077_);}
	.st94{clip-path:url(#SVGID_00000028290036954481542840000001310040102749223302_);}
	.st95{clip-path:url(#SVGID_00000016070512357367321430000010096468949346408889_);}
	.st96{clip-path:url(#SVGID_00000108298379051661282530000013166029831510151081_);}
	.st97{clip-path:url(#SVGID_00000142857091275265309360000002250274449180929161_);}
	.st98{clip-path:url(#SVGID_00000035522812530116245100000007499823377035636116_);}
	.st99{clip-path:url(#SVGID_00000088835351486776490820000007000991322101479573_);}
	.st100{clip-path:url(#SVGID_00000067200303566511202160000001736597474173826960_);}
	.st101{clip-path:url(#SVGID_00000127036975429224427640000011696123924552998548_);}
	.st102{clip-path:url(#SVGID_00000146464272966725468070000012898736261317592718_);}
	.st103{clip-path:url(#SVGID_00000057116734887564295200000008336418911721156229_);}
	.st104{clip-path:url(#SVGID_00000111149536441180858380000008618938309478787481_);}
	.st105{clip-path:url(#SVGID_00000008858863346665781920000017733038678034038975_);}
	.st106{clip-path:url(#SVGID_00000036974098761376703590000003123491572945111708_);}
	.st107{clip-path:url(#SVGID_00000035527019277265306350000012949005093398938781_);}
	.st108{clip-path:url(#SVGID_00000149339376539826168050000010282048213319497119_);}
	.st109{clip-path:url(#SVGID_00000003089959878004048680000012541433597862621346_);}
	.st110{clip-path:url(#SVGID_00000138536233956996654150000016661207026462750382_);}
	.st111{clip-path:url(#SVGID_00000025409431481910648450000002638968714490399387_);}
	.st112{clip-path:url(#SVGID_00000098194724521190410030000016727893561258227639_);}
	.st113{clip-path:url(#SVGID_00000134961835128288732230000006896975748712619941_);}
	.st114{clip-path:url(#SVGID_00000089575881679735424840000006856980390772789383_);}
	.st115{clip-path:url(#SVGID_00000015323640160837411930000006088931977981571212_);}
	.st116{clip-path:url(#SVGID_00000083791133368130368350000018080556269346714245_);}
	.st117{clip-path:url(#SVGID_00000162348105500969329330000006475800841491658170_);}
	.st118{clip-path:url(#SVGID_00000074431956139880498490000006783176784506626724_);}
	.st119{clip-path:url(#SVGID_00000109720183342689896890000007685603229093374854_);}
	.st120{clip-path:url(#SVGID_00000145028800782905205860000006867797297709366941_);}
	.st121{clip-path:url(#SVGID_00000175317013892168122620000003251847810264144007_);}
	.st122{clip-path:url(#SVGID_00000152947523967480401770000009065187233466944946_);}
	.st123{clip-path:url(#SVGID_00000124872107842203828570000008323788180619188406_);}
	.st124{clip-path:url(#SVGID_00000038371113307002306650000008078040780673760399_);}
	.st125{clip-path:url(#SVGID_00000088839020360050241060000012654692819703022525_);}
	.st126{clip-path:url(#SVGID_00000137816586324354068040000014734961675374124476_);}
	.st127{clip-path:url(#SVGID_00000012451065085858401720000007910518714972383889_);}
	.st128{clip-path:url(#SVGID_00000026157051400018445290000002702277034630049938_);}
	.st129{clip-path:url(#SVGID_00000175302599110865987060000006645217021219698086_);}
	.st130{clip-path:url(#SVGID_00000015317850425221363870000011622615379064434084_);}
	.st131{clip-path:url(#SVGID_00000141421508161197591660000003482898347460397740_);}
	.st132{clip-path:url(#SVGID_00000014606777207595920740000010680979172645611181_);}
	.st133{clip-path:url(#SVGID_00000129169766236316010230000013241925916033333944_);}
	.st134{clip-path:url(#SVGID_00000160180231293442515680000003912146818795011494_);}
	.st135{clip-path:url(#SVGID_00000003806767702220473070000000737731477424433572_);}
	.st136{clip-path:url(#SVGID_00000172442074663479733230000000792018985333766056_);}
	.st137{clip-path:url(#SVGID_00000175291149866033645750000014569116684097466557_);}
	.st138{clip-path:url(#SVGID_00000010991526665252022130000010648333722125450936_);}
	.st139{clip-path:url(#SVGID_00000123419149363701745780000002476947890224998549_);}
	.st140{clip-path:url(#SVGID_00000026127220658911149450000002812585727811518635_);}
	.st141{clip-path:url(#SVGID_00000090994190222349174640000003719460455726804408_);}
	.st142{clip-path:url(#SVGID_00000079451764911771547040000013965452214113531049_);}
	.st143{clip-path:url(#SVGID_00000062185024266689518770000006631183931191929256_);}
	.st144{clip-path:url(#SVGID_00000042731330341760899090000005643831789255713940_);}
	.st145{clip-path:url(#SVGID_00000099657635716612324780000003387999458017195927_);}
	.st146{clip-path:url(#SVGID_00000083065172872407039820000012411479072685932476_);}
	.st147{clip-path:url(#SVGID_00000065762459404179028540000001069629525416381339_);}
	.st148{clip-path:url(#SVGID_00000066479848236560617410000007845700702868896445_);}
	.st149{clip-path:url(#SVGID_00000049216221247049794810000012409494215372647353_);}
	.st150{clip-path:url(#SVGID_00000002368452096279015040000011894321140055266219_);}
	.st151{clip-path:url(#SVGID_00000023280954945250889950000017033299974651155890_);}
	.st152{clip-path:url(#SVGID_00000116234952335125018290000005131098498422539940_);}
	.st153{clip-path:url(#SVGID_00000178884807982410121160000000744636904806289064_);}
	.st154{clip-path:url(#SVGID_00000181783340641029851950000014031531910642176903_);}
	.st155{clip-path:url(#SVGID_00000037652692199255970990000005985523875337285304_);}
	.st156{clip-path:url(#SVGID_00000119801346952434281370000010254180582301450668_);}
	.st157{clip-path:url(#SVGID_00000120524882544642006590000009618718675228427191_);}
	.st158{clip-path:url(#SVGID_00000057850345694888088720000000123456375850328467_);}
	.st159{clip-path:url(#SVGID_00000017484679163697791660000005205287079065043901_);}
	.st160{clip-path:url(#SVGID_00000165919180141782809620000014445837283324441763_);}
	.st161{clip-path:url(#SVGID_00000041983789644112650220000008861716008472594077_);}
	.st162{clip-path:url(#SVGID_00000032644479344874487170000006134397854492293805_);}
	.st163{clip-path:url(#SVGID_00000045609262959291903810000005865920674769289660_);}
	.st164{clip-path:url(#SVGID_00000058587176836719117380000004419630563976978863_);}
	.st165{clip-path:url(#SVGID_00000026883781136415965260000008512412458940369032_);}
	.st166{clip-path:url(#SVGID_00000103967493658078348420000007064314267898674590_);}
	.st167{clip-path:url(#SVGID_00000051359641792307119180000014181009624582436490_);}
	.st168{clip-path:url(#SVGID_00000051368776432113190310000006846234916608842934_);}
	.st169{clip-path:url(#SVGID_00000087396066362761727180000012808691787240394416_);}
	.st170{clip-path:url(#SVGID_00000126310465556973627160000000951618016814429325_);}
	.st171{clip-path:url(#SVGID_00000022547327153803566170000015897923107046027678_);}
	.st172{clip-path:url(#SVGID_00000028320773259554347630000007559336710032508602_);}
	.st173{clip-path:url(#SVGID_00000172430734768784537460000015437024136848520637_);}
	.st174{clip-path:url(#SVGID_00000173156314225240688940000015084653481026329530_);}
	.st175{clip-path:url(#SVGID_00000155840928618718498750000014920338912475277728_);}
	.st176{clip-path:url(#SVGID_00000067224349055766931230000005746354382282708355_);}
	.st177{clip-path:url(#SVGID_00000159432329244002490550000015190446120033541772_);}
	.st178{clip-path:url(#SVGID_00000122695908543683680830000011605358605218657951_);}
	.st179{clip-path:url(#SVGID_00000123440299148933233120000017270681955464611515_);}
	.st180{clip-path:url(#SVGID_00000026842641700975669260000000987980317542517902_);}
	.st181{clip-path:url(#SVGID_00000046330341602840312550000004705917235215984823_);}
	.st182{clip-path:url(#SVGID_00000068653446807621134910000011791109624368885671_);}
	.st183{clip-path:url(#SVGID_00000044154859158584916450000008881970486549462967_);}
	.st184{clip-path:url(#SVGID_00000083811960684436741290000013370025552697824416_);}
	.st185{clip-path:url(#SVGID_00000051375050448383836440000008778075863698038147_);}
	.st186{clip-path:url(#SVGID_00000072267284137458434100000010537532412960789651_);}
	.st187{clip-path:url(#SVGID_00000140010358094290553500000000239214534182279052_);}
	.st188{clip-path:url(#SVGID_00000107570702587417447120000005626092597515131059_);}
	.st189{clip-path:url(#SVGID_00000094601644580274471790000013299490844472537479_);}
	.st190{clip-path:url(#SVGID_00000082352834146957469270000010657541810800808852_);}
	.st191{clip-path:url(#SVGID_00000080168495421419826140000016842544261009121971_);}
	.st192{clip-path:url(#SVGID_00000052809730380476509080000007536575938892040630_);}
	.st193{clip-path:url(#SVGID_00000173138040158095977500000000616793463115840161_);}
	.st194{clip-path:url(#SVGID_00000070831180660131082830000007068772277184016313_);}
	.st195{clip-path:url(#SVGID_00000169526394725335201080000008262532792700594614_);}
	.st196{clip-path:url(#SVGID_00000032619508306262623520000010494317904234316190_);}
	.st197{clip-path:url(#SVGID_00000125579347064320278860000007530504388290905767_);}
	.st198{clip-path:url(#SVGID_00000040568578319791561670000012726305258106909080_);}
	.st199{clip-path:url(#SVGID_00000167376814105393861580000007636392073356869518_);}
	.st200{clip-path:url(#SVGID_00000082338804852118387800000015577428695999484827_);}
	.st201{clip-path:url(#SVGID_00000153692699221808571960000000992204760971277194_);}
	.st202{clip-path:url(#SVGID_00000139271305010999968940000003108542296782824092_);}
	.st203{clip-path:url(#SVGID_00000150075900052430559950000000004705401847919234_);}
	.st204{clip-path:url(#SVGID_00000018202648326194066000000011539249564832757651_);}
	.st205{clip-path:url(#SVGID_00000075853555278180518020000018226046036760775829_);}
	.st206{clip-path:url(#SVGID_00000172407506177498807370000010332474272269801915_);}
	.st207{clip-path:url(#SVGID_00000134240403920830031710000008472179273548111784_);}
	.st208{clip-path:url(#SVGID_00000041270129140660705400000002869273636479122106_);}
	.st209{clip-path:url(#SVGID_00000148639704743157195740000016001492338948606082_);}
	.st210{clip-path:url(#SVGID_00000046318450129532645650000003480625080456163217_);}
	.st211{clip-path:url(#SVGID_00000035531852049475011030000005376660355584665768_);}
	.st212{clip-path:url(#SVGID_00000055685225023754874610000016355455416071552930_);}
	.st213{clip-path:url(#SVGID_00000142158152644102034890000016483325237473340603_);}
	.st214{clip-path:url(#SVGID_00000161604939337593510480000013941793068721074057_);}
	.st215{clip-path:url(#SVGID_00000067916596134321899570000003261627550629747124_);}
	.st216{clip-path:url(#SVGID_00000165937133337811560190000005472360791768727683_);}
	.st217{clip-path:url(#SVGID_00000031169223173849302420000016843577579104611473_);}
	.st218{clip-path:url(#SVGID_00000069370856757716174690000014871363642865638284_);}
	.st219{clip-path:url(#SVGID_00000134212919395151832360000003308256814017911955_);}
	.st220{clip-path:url(#SVGID_00000088832581997452095750000006906507176149418913_);}
	.st221{clip-path:url(#SVGID_00000061457958056900217620000012869336293230334894_);}
	.st222{clip-path:url(#SVGID_00000021092834238279467680000014638925314485744531_);}
	.st223{clip-path:url(#SVGID_00000083784633029373884810000001229140791841265545_);}
	.st224{clip-path:url(#SVGID_00000000938459344640803110000014175592013854402464_);}
	.st225{clip-path:url(#SVGID_00000162342008681935305110000016878897406027824829_);}
	.st226{clip-path:url(#SVGID_00000099662739940898290050000016995382852386669716_);}
	.st227{clip-path:url(#SVGID_00000146463439979338011430000004869359849002895551_);}
	.st228{clip-path:url(#SVGID_00000114755388008294896380000014182851334270098589_);}
	.st229{clip-path:url(#SVGID_00000101785807307791911020000010581916309295495315_);}
	.st230{clip-path:url(#SVGID_00000017477149775963107410000017402400267170035368_);}
	.st231{clip-path:url(#SVGID_00000049915840430533678350000004174957048031002762_);}
	.st232{clip-path:url(#SVGID_00000138558885230216510760000005707201811798022045_);}
	.st233{clip-path:url(#SVGID_00000127010786630103777810000000267084935314436535_);}
	.st234{clip-path:url(#SVGID_00000070107178228241918020000008678701936049526156_);}
	.st235{clip-path:url(#SVGID_00000178174512105472393010000003789688436910647427_);}
	.st236{clip-path:url(#SVGID_00000056393233141464252200000012240542916710054826_);}
	.st237{clip-path:url(#SVGID_00000146472793934037469910000016042096437505039009_);}
	.st238{clip-path:url(#SVGID_00000027593997553918487390000009277439356757548932_);}
	.st239{clip-path:url(#SVGID_00000022560704295284334630000013808648959426086832_);}
	.st240{clip-path:url(#SVGID_00000180325437271019255890000002616908851018162348_);}
	.st241{clip-path:url(#SVGID_00000083771156929983183620000014666262345628578475_);}
	.st242{clip-path:url(#SVGID_00000138536326734778488730000007226686665382134415_);}
	.st243{clip-path:url(#SVGID_00000168836766879630303900000014044446096189452679_);}
	.st244{clip-path:url(#SVGID_00000035501475496995198920000008137567075583759518_);}
	.st245{clip-path:url(#SVGID_00000118361297484408766530000010476263255292553111_);}
	.st246{clip-path:url(#SVGID_00000088126256742881498540000018082439641777344678_);}
	.st247{clip-path:url(#SVGID_00000034058233475045520420000007838108823453652668_);}
	.st248{clip-path:url(#SVGID_00000150076447836878786250000005033970669660488126_);}
	.st249{clip-path:url(#SVGID_00000105389427998758207120000009124774461939386524_);}
	.st250{clip-path:url(#SVGID_00000049903984876787797880000016516617694618150556_);}
	.st251{clip-path:url(#SVGID_00000136411243424675151230000000795701614057991555_);}
	.st252{clip-path:url(#SVGID_00000124884699696751210110000005376914515870469287_);}
	.st253{clip-path:url(#SVGID_00000137089933356021732780000001027285864339801004_);}
	.st254{clip-path:url(#SVGID_00000162333475185250298900000010997579979130578088_);}
	.st255{clip-path:url(#SVGID_00000067231692077163002800000003412757406160974234_);}
	.st256{clip-path:url(#SVGID_00000148649009362218480190000013468747186297940368_);}
	.st257{clip-path:url(#SVGID_00000182502151247753404920000007536277413681192366_);}
	.st258{clip-path:url(#SVGID_00000165934337160969764330000017519184834582520508_);}
	.st259{clip-path:url(#SVGID_00000000929923073242892690000011054553728505039030_);}
	.st260{clip-path:url(#SVGID_00000151515332679965335000000009078337954131027079_);}
	.st261{clip-path:url(#SVGID_00000114071832391481649220000007718421840225764992_);}
	.st262{clip-path:url(#SVGID_00000057843073282245263320000017971860312271140224_);}
	.st263{clip-path:url(#SVGID_00000054247550870515319780000009705148668022332060_);}
	.st264{clip-path:url(#SVGID_00000113321842689160447180000016324423070190815147_);}
	.st265{clip-path:url(#SVGID_00000016073615413080519360000000910458216997661097_);}
	.st266{clip-path:url(#SVGID_00000056426358509675296400000003804597732045530783_);}
	.st267{clip-path:url(#SVGID_00000172417571132045575650000013449923876918672520_);}
	.st268{clip-path:url(#SVGID_00000121278875670301998380000003016019535179290274_);}
	.st269{clip-path:url(#SVGID_00000070092618465802515850000016891594946333778871_);}
	.st270{clip-path:url(#SVGID_00000142857809340347617040000005491608347470063544_);}
	.st271{clip-path:url(#SVGID_00000101100803024328114260000001993292565118391432_);}
	.st272{clip-path:url(#SVGID_00000023998480620725538840000017733142942917297548_);}
	.st273{clip-path:url(#SVGID_00000133494644384537266230000014462415963235015846_);}
	.st274{clip-path:url(#SVGID_00000162328560946027019390000015212642140769927302_);}
	.st275{clip-path:url(#SVGID_00000076580273929081376080000014024028589361598910_);}
	.st276{clip-path:url(#SVGID_00000095319972072621090030000012887568621857552794_);}
	.st277{clip-path:url(#SVGID_00000031920612639167670180000017921689168577116607_);}
	.st278{clip-path:url(#SVGID_00000091714027669821747380000008512934310956004235_);}
	.st279{clip-path:url(#SVGID_00000068677593042182815980000001058847581575449226_);}
	.st280{clip-path:url(#SVGID_00000126298592516561364270000007928334142913133488_);}
	.st281{clip-path:url(#SVGID_00000096760922188138473720000013255731606680579252_);}
	.st282{clip-path:url(#SVGID_00000148633350590288316540000013036845458567442600_);}
	.st283{clip-path:url(#SVGID_00000088838929666289146440000001595849316206270863_);}
	.st284{clip-path:url(#SVGID_00000174560898122227102870000005759761124284966558_);}
	.st285{clip-path:url(#SVGID_00000041254244221885098320000004517671426506327684_);}
	.st286{clip-path:url(#SVGID_00000168118981950385486350000009042333916232373935_);}
	.st287{clip-path:url(#SVGID_00000132087340905678491710000011945236654212916643_);}
	.st288{clip-path:url(#SVGID_00000026848852260457737920000016802437662655326375_);}
	.st289{clip-path:url(#SVGID_00000079477857118762722830000015282910811098901683_);}
	.st290{clip-path:url(#SVGID_00000134251392456070188350000002491918277012904852_);}
	.st291{clip-path:url(#SVGID_00000110463596561013185850000013757788698969206427_);}
	.st292{clip-path:url(#SVGID_00000134961904885400039500000008702499463232332731_);}
	.st293{clip-path:url(#SVGID_00000021823343228461874390000004102232450331849380_);}
	.st294{clip-path:url(#SVGID_00000177445699982254018120000002957262479607461549_);}
	.st295{clip-path:url(#SVGID_00000125599154715144468780000012540884522983940505_);}
	.st296{clip-path:url(#SVGID_00000174596281403285793270000016863788088169260453_);}
	.st297{clip-path:url(#SVGID_00000002377078330107591960000009480140106012288182_);}
	.st298{clip-path:url(#SVGID_00000085959823516616625410000002440922108995018123_);}
	.st299{clip-path:url(#SVGID_00000118374264114764024290000012585674867837846461_);}
	.st300{clip-path:url(#SVGID_00000106850917385579760630000003479195902541053353_);}
	.st301{clip-path:url(#SVGID_00000058586432939722396330000001044720894357609626_);}
	.st302{clip-path:url(#SVGID_00000128469224235104007140000000540860733703486647_);}
	.st303{clip-path:url(#SVGID_00000178166629139617934920000000332057668539909307_);}
	.st304{clip-path:url(#SVGID_00000176743932403141175770000011061583580377179557_);}
	.st305{clip-path:url(#SVGID_00000046321129670300334230000013172076538121764259_);}
	.st306{clip-path:url(#SVGID_00000032631672095612588890000014974464456440201118_);}
	.st307{clip-path:url(#SVGID_00000095340297236340119410000006245185812746393006_);}
	.st308{clip-path:url(#SVGID_00000022532176997858879940000006067156723667887745_);}
	.st309{clip-path:url(#SVGID_00000142868498660081446650000011603665452097639052_);}
	.st310{clip-path:url(#SVGID_00000114045643011210421230000014646275484342084500_);}
	.st311{clip-path:url(#SVGID_00000157292342770014626560000015629071110770100905_);}
	.st312{clip-path:url(#SVGID_00000141451060011628043800000009465506611902395318_);}
	.st313{clip-path:url(#SVGID_00000088123466624274677010000000778106639084117920_);}
	.st314{clip-path:url(#SVGID_00000145739303515879851460000006337429124730062234_);}
	.st315{clip-path:url(#SVGID_00000011023353087166609810000017939267895295032221_);}
	.st316{clip-path:url(#SVGID_00000089546380347764451770000003401265534282103202_);}
	.st317{clip-path:url(#SVGID_00000085236303778709764130000017806806086540032413_);}
	.st318{clip-path:url(#SVGID_00000163041155369243386290000002612189428395451322_);}
	.st319{clip-path:url(#SVGID_00000083771077584385944780000017768034448193671320_);}
	.st320{clip-path:url(#SVGID_00000148647795147174205900000017807119666159582862_);}
	.st321{clip-path:url(#SVGID_00000009555342918302432270000018180166559953314177_);}
	.st322{clip-path:url(#SVGID_00000042706328376942147470000006334284554161539206_);}
	.st323{clip-path:url(#SVGID_00000078044861651372698760000001326008752118609572_);}
	.st324{clip-path:url(#SVGID_00000075883768640744105660000003191095045361473458_);}
	.st325{clip-path:url(#SVGID_00000148634506484697546670000018319655998543781302_);}
	.st326{clip-path:url(#SVGID_00000088848186119317701320000015755887083124239519_);}
	.st327{clip-path:url(#SVGID_00000060031246429360540470000013611267633553528479_);}
	.st328{clip-path:url(#SVGID_00000065040289742297438220000017785979867771340720_);}
	.st329{clip-path:url(#SVGID_00000123414021449251619650000000100376922750102942_);}
	.st330{clip-path:url(#SVGID_00000036951070409964086460000000546563910843360441_);}
	.st331{clip-path:url(#SVGID_00000032609194021243191710000008198612119187972248_);}
	.st332{clip-path:url(#SVGID_00000074423963479064660610000004335095030765872043_);}
	.st333{clip-path:url(#SVGID_00000168099364945636487620000017870235635509650583_);}
	.st334{clip-path:url(#SVGID_00000016780719707518893180000017596051300933377208_);}
	.st335{clip-path:url(#SVGID_00000172436748931245957980000014861212004207409026_);}
	.st336{clip-path:url(#SVGID_00000026871918812927150210000005990021185258547620_);}
	.st337{clip-path:url(#SVGID_00000088098543326123671270000014500738840685676467_);}
	.st338{clip-path:url(#SVGID_00000096749277039777039630000002820167912071626884_);}
	.st339{clip-path:url(#SVGID_00000080886212988798608510000000455309266091267208_);}
	.st340{clip-path:url(#SVGID_00000027602576119959660450000008119537454308443010_);}
	.st341{clip-path:url(#SVGID_00000075855092039974273000000001973913725601155480_);}
	.st342{clip-path:url(#SVGID_00000161612027121013083230000008219602297226510979_);}
	.st343{clip-path:url(#SVGID_00000080892979074275306400000017785124211817365942_);}
	.st344{clip-path:url(#SVGID_00000031907528068741271790000003190278479578815384_);}
	.st345{clip-path:url(#SVGID_00000078758199562547479070000009608988784924892068_);}
	.st346{clip-path:url(#SVGID_00000023963496975891231530000002440940396491952268_);}
	.st347{clip-path:url(#SVGID_00000039118535811571016210000010286556760923415479_);}
	.st348{clip-path:url(#SVGID_00000132061533729379416610000007173817484641332901_);}
	.st349{clip-path:url(#SVGID_00000115515880316789726380000016884667663288891048_);}
	.st350{clip-path:url(#SVGID_00000098922821925741394120000008451027391748070019_);}
	.st351{clip-path:url(#SVGID_00000085232038899447496030000006474412086979601030_);}
	.st352{clip-path:url(#SVGID_00000109738785665989967170000009288017823145557430_);}
	.st353{clip-path:url(#SVGID_00000057150047594026035560000008852641828547300528_);}
	.st354{clip-path:url(#SVGID_00000168797682802198556960000006103078118917629577_);}
	.st355{clip-path:url(#SVGID_00000060003752974356202760000012927093590140403384_);}
	.st356{clip-path:url(#SVGID_00000070099829397372656410000012849738916536573077_);}
	.st357{clip-path:url(#SVGID_00000163057459201902267850000001819629579056659624_);}
	.st358{clip-path:url(#SVGID_00000163766410694271327790000010995447843328309425_);}
	.st359{clip-path:url(#SVGID_00000167371880167127609810000011986016854403829175_);}
	.st360{clip-path:url(#SVGID_00000111151728313182491260000015465748596590649277_);}
	.st361{clip-path:url(#SVGID_00000136407066898931712310000000193363346585261991_);}
	.st362{clip-path:url(#SVGID_00000155847126596144123990000011293347070690745015_);}
	.st363{clip-path:url(#SVGID_00000096774267264332298660000001808440919900759485_);}
	.st364{clip-path:url(#SVGID_00000063627121994628617280000016816031980132596114_);}
	.st365{clip-path:url(#SVGID_00000033357060632561322960000016635130553904592039_);}
	.st366{clip-path:url(#SVGID_00000174572336738746996830000004622625568999587479_);}
	.st367{clip-path:url(#SVGID_00000143605886794089344790000008260288290507761583_);}
	.st368{clip-path:url(#SVGID_00000046339456585970962650000002778372876330359482_);}
	.st369{clip-path:url(#SVGID_00000065040730061786942340000000386629150127621041_);}
	.st370{clip-path:url(#SVGID_00000118388707285968606760000001495451879459126169_);}
	.st371{clip-path:url(#SVGID_00000087412609418102352000000007540393641853571255_);}
	.st372{clip-path:url(#SVGID_00000100367322409435648290000008478710088874048418_);}
	.st373{clip-path:url(#SVGID_00000062881984363564455610000000803178077576368284_);}
	.st374{clip-path:url(#SVGID_00000096035194195487610010000004792669049400819626_);}
	.st375{clip-path:url(#SVGID_00000181801780434476479610000013009353921264132010_);}
</style>
<g>
	<g>
		<rect x="2.28" y="123.14" class="st0" width="48.6" height="698.91"/>
	</g>
	<g>
		<rect x="0.2" y="5.94" class="st1" width="997.31" height="117.01"/>
	</g>
	<g>
		<path class="st3" d="M998.31,823.97H1.69c-0.93,0-1.69-0.76-1.69-1.69V6.04c0-0.93,0.75-1.69,1.69-1.69h996.63
			c0.93,0,1.69,0.76,1.69,1.69v816.25C1000,823.22,999.25,823.97,998.31,823.97z M3.37,820.6h993.25V7.72H3.37V820.6z"/>
	</g>
	<g>
		<rect x="1" y="121.36" class="st3" width="996.63" height="3.37"/>
	</g>
	<g>
		<defs>
			<rect id="SVGID_00000077292634992826770320000010918148517321649060_" x="4.33" y="10.33" width="990.73" height="819.27"/>
		</defs>
		<clipPath id="SVGID_00000079484488711640400070000001746816270370072247_">
			<use xlink:href="#SVGID_00000077292634992826770320000010918148517321649060_"  style="overflow:visible;"/>
		</clipPath>
		<g style="clip-path:url(#SVGID_00000079484488711640400070000001746816270370072247_);">
			<path class="st4" d="M843.41,78.56c0-6.44-3.8-10.46-11.34-11.19l-6-0.59c-3.36-0.29-3.95-1.9-3.95-3.29
				c0-1.9,1.61-3.66,5.41-3.66c3.29,0,6.65,0.59,8.85,2.56l5.85-5.92c-3.66-3.44-8.63-4.46-14.55-4.46c-7.75,0-14.7,4.24-14.7,12.13
				c0,7.03,4.24,10.02,11.12,10.68l6,0.59c3,0.29,4.02,1.61,4.02,3.51c0,2.86-3.44,3.95-6.73,3.95c-2.93,0-7.02-0.44-10.17-3.59
				l-6.22,6.22c4.83,4.82,10.24,5.48,16.23,5.48C836.24,90.99,843.41,86.97,843.41,78.56 M805.76,78.56
				c0-6.44-3.8-10.46-11.34-11.19l-6-0.59c-3.36-0.29-3.95-1.9-3.95-3.29c0-1.9,1.61-3.66,5.41-3.66c3.29,0,6.65,0.59,8.85,2.56
				l5.85-5.92c-3.66-3.44-8.63-4.46-14.55-4.46c-7.75,0-14.7,4.24-14.7,12.13c0,7.03,4.24,10.02,11.12,10.68l6,0.59
				c3,0.29,4.02,1.61,4.02,3.51c0,2.86-3.44,3.95-6.73,3.95c-2.93,0-7.02-0.44-10.17-3.59l-6.22,6.22
				c4.83,4.82,10.24,5.48,16.23,5.48C798.59,90.99,805.76,86.97,805.76,78.56 M764.94,90.55V52.46h-9.5v23.04
				c0,5.19-3.36,6.95-6.36,6.95c-3,0-6.29-1.76-6.29-6.95V52.46h-9.5v24.35c0,4.17,0.8,7.75,3.88,10.82
				c2.12,2.12,5.19,3.36,8.99,3.36c3.52,0,7.03-1.32,9.51-3.94v3.5H764.94z M724.65,90.55v-8.03h-3.66c-2.41,0-3.36-1.17-3.36-3.44
				V38.49h-9.5v41.17c0,5.41,3.29,10.89,11.11,10.89H724.65z M696.79,90.55V65.9c0-8.04-4.38-13.88-12.72-13.88
				c-3.36,0-6.59,1.31-9.15,3.94V38.49h-9.5v52.06h9.5V67.29c0-4.97,3.14-6.73,6.15-6.73c3,0,6.22,1.68,6.22,6.73v23.26H696.79z
				 M656.56,85.8l-6.44-6.36c-1.97,2.13-3.66,3-6.14,3c-2.27,0-4.02-0.8-5.41-2.49c-1.46-1.83-2.12-4.46-2.12-8.48
				c0-4.02,0.66-6.59,2.12-8.42c1.39-1.68,3.14-2.49,5.41-2.49c2.49,0,4.17,0.88,6.14,3l6.44-6.43c-3.36-3.51-7.31-5.11-12.58-5.11
				c-7.61,0-17.03,4.02-17.03,19.45s9.42,19.52,17.03,19.52C649.25,90.99,653.2,89.31,656.56,85.8 M619.42,78.56
				c0-6.44-3.8-10.46-11.34-11.19l-6-0.59c-3.36-0.29-3.95-1.9-3.95-3.29c0-1.9,1.61-3.66,5.41-3.66c3.29,0,6.65,0.59,8.85,2.56
				l5.85-5.92c-3.66-3.44-8.63-4.46-14.55-4.46c-7.75,0-14.7,4.24-14.7,12.13c0,7.03,4.24,10.02,11.12,10.68l6,0.59
				c3,0.29,4.02,1.61,4.02,3.51c0,2.86-3.44,3.95-6.73,3.95c-2.93,0-7.02-0.44-10.17-3.59l-6.22,6.22
				c4.83,4.82,10.24,5.48,16.23,5.48C612.25,90.99,619.42,86.97,619.42,78.56 M570.72,71.47c0,6.22-0.73,10.98-6.44,10.98
				s-6.44-4.76-6.44-10.98c0-6.22,0.73-10.9,6.44-10.9S570.72,65.25,570.72,71.47 M580.22,71.47c0-5.71-0.07-12.22-3.87-16.02
				c-2.12-2.12-5.55-3.43-9.29-3.43c-3.88,0-6.73,1.02-9.22,3.8V38.49h-9.5v52.06h9.2v-3.58c2.64,2.92,5.49,4.02,9.51,4.02
				c3.74,0,7.17-1.32,9.29-3.43C580.14,83.75,580.22,77.17,580.22,71.47 M527.13,76.51c0,2.35-0.37,3.88-1.39,4.83
				c-1.69,1.61-3.37,1.83-6,1.83c-3.74,0-5.49-1.76-5.49-4.39c0-2.71,1.9-4.32,5.34-4.32h7.54V76.51z M536.63,90.55V65.47
				c0-8.92-5.55-13.45-16.23-13.45c-6.37,0-10.02,1.16-13.74,5.26l6.06,5.92c1.97-2.27,3.66-3.15,7.31-3.15c5.05,0,7.1,1.83,7.1,6
				v1.91h-9c-8.85,0-13.01,4.96-13.01,11.04c0,3.36,1.1,6.44,3.14,8.56c2.27,2.26,5.41,3.36,9.73,3.36c4.39,0,6.81-1.1,9.37-3.65
				v3.29H536.63z M498.75,90.55v-8.03h-3.66c-2.41,0-3.36-1.17-3.36-3.44V38.49h-9.5v41.17c0,5.41,3.29,10.89,11.1,10.89H498.75z
				 M470.45,90.55V52.46h-9.5v23.04c0,5.19-3.37,6.95-6.37,6.95c-3,0-6.29-1.76-6.29-6.95V52.46h-9.5v24.35
				c0,4.17,0.8,7.75,3.87,10.82c2.12,2.12,5.19,3.36,9,3.36c3.51,0,7.03-1.32,9.51-3.94v3.5H470.45z M427.52,90.55V65.9
				c0-8.04-4.39-13.88-12.72-13.88c-3.37,0-6.59,1.31-9.15,3.94V38.49h-9.5v52.06h9.5V67.29c0-4.97,3.14-6.73,6.14-6.73
				c3,0,6.22,1.68,6.22,6.73v23.26H427.52z M387.3,85.8l-6.44-6.36c-1.97,2.13-3.66,3-6.14,3c-2.27,0-4.02-0.8-5.41-2.49
				c-1.46-1.83-2.12-4.46-2.12-8.48c0-4.02,0.66-6.59,2.12-8.42c1.39-1.68,3.14-2.49,5.41-2.49c2.49,0,4.17,0.88,6.14,3l6.44-6.43
				c-3.36-3.51-7.31-5.11-12.58-5.11c-7.61,0-17.03,4.02-17.03,19.45s9.43,19.52,17.03,19.52C379.99,90.99,383.94,89.31,387.3,85.8
				 M350.15,78.56c0-6.44-3.8-10.46-11.34-11.19l-6-0.59c-3.36-0.29-3.95-1.9-3.95-3.29c0-1.9,1.61-3.66,5.41-3.66
				c3.29,0,6.65,0.59,8.85,2.56l5.85-5.92c-3.66-3.44-8.63-4.46-14.55-4.46c-7.75,0-14.7,4.24-14.7,12.13
				c0,7.03,4.24,10.02,11.12,10.68l6,0.59c3,0.29,4.02,1.61,4.02,3.51c0,2.86-3.44,3.95-6.73,3.95c-2.93,0-7.02-0.44-10.17-3.59
				l-6.22,6.22c4.83,4.82,10.24,5.48,16.23,5.48C342.99,90.99,350.15,86.97,350.15,78.56 M312.42,90.55v-8.03h-3.66
				c-2.41,0-3.36-1.17-3.36-3.44V38.49h-9.5v41.17c0,5.41,3.29,10.89,11.11,10.89H312.42z M275.05,76.51c0,2.35-0.37,3.88-1.39,4.83
				c-1.68,1.61-3.36,1.83-6,1.83c-3.73,0-5.48-1.76-5.48-4.39c0-2.71,1.9-4.32,5.34-4.32h7.54V76.51z M284.55,90.55V65.47
				c0-8.92-5.55-13.45-16.23-13.45c-6.37,0-10.02,1.16-13.75,5.26l6.06,5.92c1.97-2.27,3.66-3.15,7.31-3.15c5.05,0,7.1,1.83,7.1,6
				v1.91h-9c-8.84,0-13.01,4.96-13.01,11.04c0,3.36,1.1,6.44,3.14,8.56c2.26,2.26,5.41,3.36,9.72,3.36c4.39,0,6.81-1.1,9.37-3.65
				v3.29H284.55z M236.14,67.96h-14.48c0.07-1.69,0.29-2.71,0.88-4.1c1.02-2.27,3.14-3.95,6.36-3.95c3.22,0,5.34,1.68,6.36,3.95
				C235.85,65.25,236.07,66.27,236.14,67.96 M245.5,74.46v-4.24c0-10.46-6-18.2-16.6-18.2c-9.87,0-16.59,7.01-16.59,19.45
				c0,15.43,8.62,19.52,17.61,19.52c6.87,0,10.6-2.12,14.48-5.99l-5.78-5.63c-2.41,2.41-4.46,3.59-8.63,3.59
				c-5.34,0-8.34-3.59-8.34-8.49H245.5z M192.79,54.43c0,4.02-2.93,6.88-7.39,6.88h-9.59V47.55h9.59
				C189.86,47.55,192.79,50.4,192.79,54.43 M205.06,90.55L193.45,68.1c5.04-1.82,9.5-6.35,9.5-13.67c0-8.71-6.28-15.94-16.89-15.94
				h-20.4v52.06h10.15V69.78h7.32l10.17,20.77H205.06z"/>
		</g>
	</g>
	<g>
		<rect x="3.09" y="352.56" class="st3" width="993.81" height="3.37"/>
	</g>
	<g>
		<rect x="3.09" y="235.55" class="st3" width="993.81" height="3.37"/>
	</g>
	<g>
		<rect x="3.09" y="466.76" class="st3" width="993.81" height="3.37"/>
	</g>
	<g>
		<rect x="3.09" y="589.39" class="st3" width="993.81" height="3.37"/>
	</g>
	<g>
		<rect x="3.09" y="706.4" class="st3" width="993.81" height="3.37"/>
	</g>
	<g>
		<defs>
			<rect id="SVGID_00000029765569843697466880000006957544123021025189_" x="4.33" y="10.33" width="990.73" height="819.27"/>
		</defs>
		<clipPath id="SVGID_00000091735599745659276750000006912188846892786837_">
			<use xlink:href="#SVGID_00000029765569843697466880000006957544123021025189_"  style="overflow:visible;"/>
		</clipPath>
		<g style="clip-path:url(#SVGID_00000091735599745659276750000006912188846892786837_);">
			<path class="st3" d="M695.17,665.22c0,4.06-2.41,6.63-5.83,6.63c-3.43,0-5.78-2.57-5.78-6.63c0-4.12,2.35-6.58,5.78-6.58
				C692.98,658.65,695.17,661.48,695.17,665.22 M700.61,665.12c0-6.68-4.48-11-9.99-11c-1.18,0-2.35,0.16-3.37,0.59l8.18-16.35
				h-5.83l-8.66,17.64c-1.65,3.31-2.83,6.25-2.83,9.35c0,7.06,4.7,11.38,11.27,11.38C695.97,676.71,700.61,672.12,700.61,665.12
				 M659.73,654v-4.16h-5.39v-3.94c0-1.99,0.96-3.18,2.99-3.18h2.4v-4.64h-3.42c-5.07,0-7.42,3.63-7.42,7.55v4.21h-3.1V654h3.1
				v22.39h5.45V654H659.73z M638.84,649.3h-5.45v27.09h5.45V649.3z M624.46,676.39v-17.32c0-3.05-0.64-5.61-2.72-7.64
				c-1.6-1.55-3.9-2.45-6.68-2.45c-2.73,0-5.34,1.01-7.22,3.04v-2.72h-5.34v27.09h5.45v-16.51c0-4.17,2.57-6.04,5.61-6.04
				c3.05,0,5.46,1.82,5.46,6.04v16.52H624.46z M593.3,649.3h-5.45v27.09h5.45V649.3z M580.21,665.54c0-3.26-1.02-5.99-3.1-7.8
				c-1.6-1.44-3.58-2.3-7.1-2.83l-4.33-0.65c-1.77-0.26-3.31-0.91-4.28-1.76c-1.02-0.91-1.45-2.14-1.45-3.53
				c0-3.37,2.46-5.93,6.95-5.93c3.21,0,5.93,0.7,8.29,2.94l3.68-3.63c-3.25-3.04-6.78-4.33-11.81-4.33
				c-7.91,0-12.71,4.54-12.71,11.17c0,3.1,0.91,5.51,2.77,7.27c1.65,1.55,4.11,2.62,7.21,3.05l4.49,0.64
				c2.24,0.32,3.21,0.69,4.17,1.6c1.02,0.91,1.5,2.3,1.5,3.95c0,3.69-2.89,5.83-7.86,5.83c-3.9,0-6.95-0.86-9.73-3.63l-3.84,3.79
				c3.63,3.68,7.74,5.02,13.46,5.02C574.5,676.71,580.21,672.55,580.21,665.54 M537.73,634.39h-5.24l-15.23,45.95h5.24
				L537.73,634.39z M494.93,665.22c0,4.06-2.41,6.63-5.83,6.63c-3.42,0-5.78-2.57-5.78-6.63c0-4.12,2.36-6.58,5.78-6.58
				C492.73,658.65,494.93,661.48,494.93,665.22 M500.37,665.12c0-6.68-4.48-11-9.99-11c-1.18,0-2.35,0.16-3.37,0.59l8.18-16.35
				h-5.83l-8.66,17.64c-1.66,3.31-2.83,6.25-2.83,9.35c0,7.06,4.7,11.38,11.27,11.38C495.73,676.71,500.37,672.12,500.37,665.12
				 M452.7,660.63h-12.18c0.06-1.66,0.16-2.46,0.7-3.69c0.86-2.04,2.83-3.43,5.39-3.43c2.57,0,4.49,1.39,5.34,3.43
				C452.49,658.17,452.65,658.97,452.7,660.63 M458.1,664.42v-2.4c0-7.7-4.22-13.03-11.49-13.03c-6.95,0-11.48,5.07-11.48,13.83
				c0,10.32,5.39,13.89,12.18,13.89c4.75,0,7.37-1.44,10.15-4.21l-3.48-3.26c-1.92,1.92-3.53,2.78-6.57,2.78
				c-4.44,0-6.9-2.94-6.9-7.59H458.1z M429.35,668.11c0-4.81-2.99-7.22-8.07-7.64l-4.28-0.37c-2.89-0.27-3.74-1.5-3.74-3.1
				c0-2.03,1.65-3.48,4.92-3.48c2.57,0,4.97,0.53,6.68,1.98l3.42-3.48c-2.51-2.19-5.99-3.04-10.05-3.04c-5.66,0-10.2,2.99-10.2,8.28
				c0,4.76,2.94,7.06,8.02,7.49l4.33,0.37c2.62,0.21,3.63,1.39,3.63,3.21c0,2.57-2.62,3.75-5.93,3.75c-2.67,0-5.61-0.59-7.8-2.84
				l-3.58,3.58c3.21,3.14,6.95,3.89,11.39,3.89C424.54,676.71,429.35,673.77,429.35,668.11 M402.47,668.11
				c0-4.81-2.99-7.22-8.07-7.64l-4.28-0.37c-2.89-0.27-3.74-1.5-3.74-3.1c0-2.03,1.66-3.48,4.92-3.48c2.57,0,4.97,0.53,6.68,1.98
				l3.42-3.48c-2.51-2.19-5.99-3.04-10.05-3.04c-5.66,0-10.21,2.99-10.21,8.28c0,4.76,2.94,7.06,8.02,7.49l4.33,0.37
				c2.62,0.21,3.63,1.39,3.63,3.21c0,2.57-2.62,3.75-5.93,3.75c-2.67,0-5.61-0.59-7.8-2.84l-3.58,3.58
				c3.21,3.14,6.95,3.89,11.38,3.89C397.66,676.71,402.47,673.77,402.47,668.11 M368.06,666.61c0,1.92-0.37,3.21-1.18,4.01
				c-1.44,1.39-2.99,1.55-5.08,1.55c-3.42,0-4.97-1.4-4.97-3.85s1.66-3.9,4.87-3.9h6.36V666.61z M373.5,676.39v-18.11
				c0-6.15-3.74-9.29-11.17-9.29c-4.49,0-7.16,0.91-9.72,3.89l3.57,3.37c1.5-1.92,2.94-2.62,5.93-2.62c4.22,0,5.93,1.66,5.93,5.08
				v1.93h-7.16c-6.2,0-9.35,3.25-9.35,7.8c0,2.3,0.75,4.39,2.14,5.83c1.65,1.65,3.89,2.45,7.26,2.45s5.24-0.8,7.22-2.77v2.45H373.5z
				 M347.05,676.39v-4.64h-2.41c-2.19,0-2.94-1.07-2.94-3.16v-30.25h-5.45v30.57c0,4.01,2.24,7.48,7.42,7.48H347.05z M331.02,676.39
				l-13.63-23.14l12.35-14.91h-7.05l-15.55,19.13v-19.13h-5.77v38.04h5.77v-11.06l6.41-7.7l10.69,18.76H331.02z"/>
		</g>
		<g style="clip-path:url(#SVGID_00000091735599745659276750000006912188846892786837_);">
			<path class="st3" d="M701.15,520.57v-4.85h-22.66v10.85h5.24v-5.99h11.6l-12.78,33.19h5.88L701.15,520.57z M659.73,531.37v-4.16
				h-5.39v-3.94c0-1.99,0.96-3.18,2.99-3.18h2.4v-4.64h-3.42c-5.07,0-7.42,3.63-7.42,7.55v4.21h-3.1v4.16h3.1v22.39h5.45v-22.39
				H659.73z M638.84,526.67h-5.45v27.09h5.45V526.67z M624.46,553.76v-17.32c0-3.05-0.64-5.61-2.72-7.64
				c-1.6-1.55-3.9-2.45-6.68-2.45c-2.73,0-5.34,1.01-7.22,3.04v-2.72h-5.34v27.09h5.45v-16.51c0-4.17,2.57-6.04,5.61-6.04
				c3.05,0,5.46,1.82,5.46,6.04v16.52H624.46z M593.3,526.67h-5.45v27.09h5.45V526.67z M580.21,542.91c0-3.26-1.02-5.99-3.1-7.8
				c-1.6-1.44-3.58-2.3-7.1-2.83l-4.33-0.65c-1.77-0.26-3.31-0.91-4.28-1.76c-1.02-0.91-1.45-2.14-1.45-3.53
				c0-3.37,2.46-5.93,6.95-5.93c3.21,0,5.93,0.7,8.29,2.94l3.68-3.63c-3.25-3.04-6.78-4.33-11.81-4.33
				c-7.91,0-12.71,4.54-12.71,11.17c0,3.1,0.91,5.51,2.77,7.27c1.65,1.55,4.11,2.62,7.21,3.05l4.49,0.64
				c2.24,0.32,3.21,0.69,4.17,1.6c1.02,0.91,1.5,2.3,1.5,3.95c0,3.69-2.89,5.83-7.86,5.83c-3.9,0-6.95-0.86-9.73-3.63l-3.84,3.79
				c3.63,3.68,7.74,5.02,13.46,5.02C574.5,554.08,580.21,549.91,580.21,542.91 M537.73,511.76h-5.24l-15.23,45.95h5.24
				L537.73,511.76z M500.91,520.57v-4.85h-22.66v10.85h5.24v-5.99h11.59l-12.77,33.19h5.88L500.91,520.57z M452.7,538h-12.18
				c0.06-1.66,0.16-2.46,0.7-3.69c0.86-2.04,2.83-3.43,5.39-3.43c2.57,0,4.49,1.39,5.34,3.43C452.49,535.53,452.65,536.34,452.7,538
				 M458.1,541.78v-2.4c0-7.7-4.22-13.03-11.49-13.03c-6.95,0-11.48,5.07-11.48,13.83c0,10.32,5.39,13.89,12.18,13.89
				c4.75,0,7.37-1.44,10.15-4.21l-3.48-3.26c-1.92,1.92-3.53,2.78-6.57,2.78c-4.44,0-6.9-2.94-6.9-7.59H458.1z M429.35,545.47
				c0-4.81-2.99-7.22-8.07-7.64l-4.28-0.37c-2.89-0.27-3.74-1.5-3.74-3.1c0-2.03,1.65-3.48,4.92-3.48c2.57,0,4.97,0.53,6.68,1.98
				l3.42-3.48c-2.51-2.19-5.99-3.04-10.05-3.04c-5.66,0-10.2,2.99-10.2,8.27c0,4.76,2.94,7.06,8.02,7.49l4.33,0.37
				c2.62,0.21,3.63,1.39,3.63,3.21c0,2.57-2.62,3.75-5.93,3.75c-2.67,0-5.61-0.59-7.8-2.84l-3.58,3.58c3.21,3.15,6.95,3.9,11.39,3.9
				C424.54,554.08,429.35,551.14,429.35,545.47 M402.47,545.47c0-4.81-2.99-7.22-8.07-7.64l-4.28-0.37c-2.89-0.27-3.74-1.5-3.74-3.1
				c0-2.03,1.66-3.48,4.92-3.48c2.57,0,4.97,0.53,6.68,1.98l3.42-3.48c-2.51-2.19-5.99-3.04-10.05-3.04
				c-5.66,0-10.21,2.99-10.21,8.27c0,4.76,2.94,7.06,8.02,7.49l4.33,0.37c2.62,0.21,3.63,1.39,3.63,3.21c0,2.57-2.62,3.75-5.93,3.75
				c-2.67,0-5.61-0.59-7.8-2.84l-3.58,3.58c3.21,3.15,6.95,3.9,11.38,3.9C397.66,554.08,402.47,551.14,402.47,545.47 M368.06,543.98
				c0,1.92-0.37,3.21-1.18,4.01c-1.44,1.39-2.99,1.55-5.08,1.55c-3.42,0-4.97-1.4-4.97-3.85s1.66-3.9,4.87-3.9h6.36V543.98z
				 M373.5,553.76v-18.11c0-6.15-3.74-9.29-11.17-9.29c-4.49,0-7.16,0.91-9.72,3.89l3.57,3.37c1.5-1.92,2.94-2.62,5.93-2.62
				c4.22,0,5.93,1.66,5.93,5.08V538h-7.16c-6.2,0-9.35,3.25-9.35,7.8c0,2.3,0.75,4.39,2.14,5.83c1.65,1.65,3.89,2.45,7.26,2.45
				s5.24-0.8,7.22-2.77v2.45H373.5z M347.05,553.76v-4.64h-2.41c-2.19,0-2.94-1.07-2.94-3.16v-30.25h-5.45v30.57
				c0,4.01,2.24,7.48,7.42,7.48H347.05z M331.02,553.76l-13.63-23.14l12.35-14.91h-7.05l-15.55,19.13v-19.13h-5.77v38.04h5.77V542.7
				l6.41-7.7l10.69,18.76H331.02z"/>
		</g>
		<g style="clip-path:url(#SVGID_00000091735599745659276750000006912188846892786837_);">
			<path class="st3" d="M695.01,409.07c0,3.36-2.35,5.77-5.66,5.77c-3.32,0-5.61-2.41-5.61-5.77c0-3.32,2.3-5.83,5.61-5.83
				C692.65,403.24,695.01,405.75,695.01,409.07 M695.6,425.9c0,3.53-2.73,6.31-6.26,6.31c-3.53,0-6.26-2.78-6.26-6.31
				s2.72-6.36,6.26-6.36C692.87,419.54,695.6,422.37,695.6,425.9 M701.09,426.01c0-4.55-2.56-7.32-5.23-8.92
				c2.46-1.5,4.59-4.17,4.59-8.18c0-6.36-4.91-10.53-11.11-10.53c-6.2,0-11.06,4.16-11.06,10.53c0,4.01,2.13,6.68,4.59,8.18
				c-2.67,1.6-5.23,4.38-5.23,8.92c0,6.9,5.18,11.06,11.7,11.06C695.86,437.07,701.09,432.9,701.09,426.01 M659.73,414.36v-4.16
				h-5.39v-3.94c0-1.99,0.96-3.18,2.99-3.18h2.4v-4.64h-3.42c-5.07,0-7.42,3.63-7.42,7.55v4.21h-3.1v4.16h3.1v22.39h5.45v-22.39
				H659.73z M638.84,409.66h-5.45v27.09h5.45V409.66z M624.46,436.75v-17.32c0-3.05-0.64-5.61-2.72-7.64
				c-1.6-1.55-3.9-2.45-6.68-2.45c-2.73,0-5.34,1.01-7.22,3.04v-2.72h-5.34v27.09h5.45v-16.51c0-4.17,2.57-6.04,5.61-6.04
				c3.05,0,5.46,1.82,5.46,6.04v16.52H624.46z M593.3,409.66h-5.45v27.09h5.45V409.66z M580.21,425.9c0-3.26-1.02-5.99-3.1-7.8
				c-1.6-1.44-3.58-2.3-7.1-2.83l-4.33-0.65c-1.77-0.26-3.31-0.91-4.28-1.76c-1.02-0.91-1.45-2.14-1.45-3.53
				c0-3.37,2.46-5.93,6.95-5.93c3.21,0,5.93,0.7,8.29,2.94l3.68-3.63c-3.25-3.04-6.78-4.33-11.81-4.33
				c-7.91,0-12.71,4.54-12.71,11.17c0,3.1,0.91,5.5,2.77,7.27c1.65,1.55,4.11,2.62,7.21,3.05l4.49,0.64
				c2.24,0.32,3.21,0.69,4.17,1.6c1.02,0.91,1.5,2.3,1.5,3.95c0,3.69-2.89,5.83-7.86,5.83c-3.9,0-6.95-0.86-9.73-3.63l-3.84,3.79
				c3.63,3.68,7.74,5.02,13.46,5.02C574.5,437.07,580.21,432.9,580.21,425.9 M537.73,394.75h-5.24l-15.23,45.95h5.24L537.73,394.75z
				 M494.77,409.07c0,3.36-2.36,5.77-5.67,5.77c-3.31,0-5.61-2.41-5.61-5.77c0-3.32,2.3-5.83,5.61-5.83
				C492.41,403.24,494.77,405.75,494.77,409.07 M495.35,425.9c0,3.53-2.73,6.31-6.26,6.31c-3.53,0-6.26-2.78-6.26-6.31
				s2.73-6.36,6.26-6.36C492.63,419.54,495.35,422.37,495.35,425.9 M500.85,426.01c0-4.55-2.56-7.32-5.23-8.92
				c2.45-1.5,4.59-4.17,4.59-8.18c0-6.36-4.91-10.53-11.12-10.53c-6.2,0-11.06,4.16-11.06,10.53c0,4.01,2.14,6.68,4.59,8.18
				c-2.67,1.6-5.23,4.38-5.23,8.92c0,6.9,5.18,11.06,11.7,11.06C495.62,437.07,500.85,432.9,500.85,426.01 M452.7,420.99h-12.18
				c0.06-1.66,0.16-2.46,0.7-3.69c0.86-2.04,2.83-3.43,5.39-3.43c2.57,0,4.49,1.39,5.34,3.43
				C452.49,418.53,452.65,419.33,452.7,420.99 M458.1,424.78v-2.4c0-7.7-4.22-13.03-11.49-13.03c-6.95,0-11.48,5.07-11.48,13.83
				c0,10.32,5.39,13.89,12.18,13.89c4.75,0,7.37-1.44,10.15-4.21l-3.48-3.26c-1.92,1.92-3.53,2.78-6.57,2.78
				c-4.44,0-6.9-2.94-6.9-7.59H458.1z M429.35,428.47c0-4.81-2.99-7.22-8.07-7.64l-4.28-0.37c-2.89-0.27-3.74-1.5-3.74-3.1
				c0-2.03,1.65-3.48,4.92-3.48c2.57,0,4.97,0.53,6.68,1.98l3.42-3.48c-2.51-2.19-5.99-3.04-10.05-3.04c-5.66,0-10.2,2.99-10.2,8.27
				c0,4.76,2.94,7.06,8.02,7.49l4.33,0.37c2.62,0.21,3.63,1.39,3.63,3.21c0,2.57-2.62,3.75-5.93,3.75c-2.67,0-5.61-0.59-7.8-2.84
				l-3.58,3.58c3.21,3.15,6.95,3.9,11.39,3.9C424.54,437.07,429.35,434.13,429.35,428.47 M402.47,428.47c0-4.81-2.99-7.22-8.07-7.64
				l-4.28-0.37c-2.89-0.27-3.74-1.5-3.74-3.1c0-2.03,1.66-3.48,4.92-3.48c2.57,0,4.97,0.53,6.68,1.98l3.42-3.48
				c-2.51-2.19-5.99-3.04-10.05-3.04c-5.66,0-10.21,2.99-10.21,8.27c0,4.76,2.94,7.06,8.02,7.49l4.33,0.37
				c2.62,0.21,3.63,1.39,3.63,3.21c0,2.57-2.62,3.75-5.93,3.75c-2.67,0-5.61-0.59-7.8-2.84l-3.58,3.58c3.21,3.15,6.95,3.9,11.38,3.9
				C397.66,437.07,402.47,434.13,402.47,428.47 M368.06,426.97c0,1.92-0.37,3.21-1.18,4.01c-1.44,1.39-2.99,1.55-5.08,1.55
				c-3.42,0-4.97-1.4-4.97-3.85c0-2.46,1.66-3.9,4.87-3.9h6.36V426.97z M373.5,436.75v-18.11c0-6.15-3.74-9.29-11.17-9.29
				c-4.49,0-7.16,0.91-9.72,3.89l3.57,3.37c1.5-1.92,2.94-2.62,5.93-2.62c4.22,0,5.93,1.66,5.93,5.08v1.93h-7.16
				c-6.2,0-9.35,3.25-9.35,7.8c0,2.3,0.75,4.39,2.14,5.83c1.65,1.65,3.89,2.45,7.26,2.45s5.24-0.8,7.22-2.77v2.45H373.5z
				 M347.05,436.75v-4.64h-2.41c-2.19,0-2.94-1.07-2.94-3.16V398.7h-5.45v30.57c0,4.01,2.24,7.48,7.42,7.48H347.05z M331.02,436.75
				l-13.63-23.14l12.35-14.91h-7.05l-15.55,19.13V398.7h-5.77v38.04h5.77v-11.06l6.41-7.7l10.69,18.76H331.02z"/>
		</g>
		<g style="clip-path:url(#SVGID_00000091735599745659276750000006912188846892786837_);">
			<path class="st3" d="M695.17,292.86c0,4.12-2.41,6.58-5.83,6.58c-3.64,0-5.78-2.84-5.78-6.58c0-4.06,2.35-6.63,5.78-6.63
				C692.76,286.23,695.17,288.8,695.17,292.86 M700.61,292.75c0-7.05-4.7-11.38-11.27-11.38c-6.58,0-11.22,4.59-11.22,11.59
				c0,6.68,4.43,11,9.94,11c1.18,0,2.4-0.16,3.42-0.59l-8.18,16.35h5.83l8.66-17.64C699.44,298.79,700.61,295.85,700.61,292.75
				 M659.73,297.35v-4.16h-5.39v-3.94c0-1.99,0.96-3.18,2.99-3.18h2.4v-4.64h-3.42c-5.07,0-7.42,3.63-7.42,7.55v4.21h-3.1v4.16h3.1
				v22.39h5.45v-22.39H659.73z M638.84,292.65h-5.45v27.09h5.45V292.65z M624.46,319.74v-17.32c0-3.05-0.64-5.61-2.72-7.64
				c-1.6-1.55-3.9-2.45-6.68-2.45c-2.73,0-5.34,1.01-7.22,3.04v-2.72h-5.34v27.09h5.45v-16.51c0-4.17,2.57-6.04,5.61-6.04
				c3.05,0,5.46,1.82,5.46,6.04v16.52H624.46z M593.3,292.65h-5.45v27.09h5.45V292.65z M580.21,308.89c0-3.26-1.02-5.99-3.1-7.8
				c-1.6-1.44-3.58-2.3-7.1-2.83l-4.33-0.65c-1.77-0.26-3.31-0.91-4.28-1.76c-1.02-0.91-1.45-2.14-1.45-3.53
				c0-3.37,2.46-5.93,6.95-5.93c3.21,0,5.93,0.7,8.29,2.94l3.68-3.63c-3.25-3.04-6.78-4.33-11.81-4.33
				c-7.91,0-12.71,4.54-12.71,11.17c0,3.1,0.91,5.5,2.77,7.27c1.65,1.55,4.11,2.62,7.21,3.05l4.49,0.64
				c2.24,0.32,3.21,0.69,4.17,1.6c1.02,0.91,1.5,2.3,1.5,3.95c0,3.69-2.89,5.83-7.86,5.83c-3.9,0-6.95-0.86-9.73-3.63l-3.84,3.79
				c3.63,3.68,7.74,5.02,13.46,5.02C574.5,320.06,580.21,315.9,580.21,308.89 M537.73,277.74h-5.24l-15.23,45.95h5.24L537.73,277.74
				z M494.93,292.86c0,4.12-2.41,6.58-5.83,6.58c-3.63,0-5.78-2.84-5.78-6.58c0-4.06,2.36-6.63,5.78-6.63
				C492.52,286.23,494.93,288.8,494.93,292.86 M500.37,292.75c0-7.05-4.7-11.38-11.27-11.38s-11.22,4.59-11.22,11.59
				c0,6.68,4.43,11,9.93,11c1.18,0,2.41-0.16,3.42-0.59l-8.18,16.35h5.83l8.66-17.64C499.2,298.79,500.37,295.85,500.37,292.75
				 M452.7,303.98h-12.18c0.06-1.66,0.16-2.46,0.7-3.69c0.86-2.04,2.83-3.43,5.39-3.43c2.57,0,4.49,1.39,5.34,3.43
				C452.49,301.52,452.65,302.32,452.7,303.98 M458.1,307.77v-2.4c0-7.7-4.22-13.03-11.49-13.03c-6.95,0-11.48,5.07-11.48,13.83
				c0,10.32,5.39,13.89,12.18,13.89c4.75,0,7.37-1.44,10.15-4.21l-3.48-3.26c-1.92,1.92-3.53,2.78-6.57,2.78
				c-4.44,0-6.9-2.94-6.9-7.59H458.1z M429.35,311.46c0-4.81-2.99-7.22-8.07-7.64l-4.28-0.37c-2.89-0.27-3.74-1.5-3.74-3.1
				c0-2.03,1.65-3.48,4.92-3.48c2.57,0,4.97,0.53,6.68,1.98l3.42-3.48c-2.51-2.19-5.99-3.04-10.05-3.04c-5.66,0-10.2,2.99-10.2,8.27
				c0,4.76,2.94,7.06,8.02,7.49l4.33,0.37c2.62,0.21,3.63,1.39,3.63,3.21c0,2.57-2.62,3.75-5.93,3.75c-2.67,0-5.61-0.59-7.8-2.84
				l-3.58,3.58c3.21,3.15,6.95,3.9,11.39,3.9C424.54,320.06,429.35,317.12,429.35,311.46 M402.47,311.46c0-4.81-2.99-7.22-8.07-7.64
				l-4.28-0.37c-2.89-0.27-3.74-1.5-3.74-3.1c0-2.03,1.66-3.48,4.92-3.48c2.57,0,4.97,0.53,6.68,1.98l3.42-3.48
				c-2.51-2.19-5.99-3.04-10.05-3.04c-5.66,0-10.21,2.99-10.21,8.27c0,4.76,2.94,7.06,8.02,7.49l4.33,0.37
				c2.62,0.21,3.63,1.39,3.63,3.21c0,2.57-2.62,3.75-5.93,3.75c-2.67,0-5.61-0.59-7.8-2.84l-3.58,3.58c3.21,3.15,6.95,3.9,11.38,3.9
				C397.66,320.06,402.47,317.12,402.47,311.46 M368.06,309.96c0,1.92-0.37,3.21-1.18,4.01c-1.44,1.39-2.99,1.55-5.08,1.55
				c-3.42,0-4.97-1.4-4.97-3.85c0-2.46,1.66-3.9,4.87-3.9h6.36V309.96z M373.5,319.74v-18.11c0-6.15-3.74-9.29-11.17-9.29
				c-4.49,0-7.16,0.91-9.72,3.89l3.57,3.37c1.5-1.92,2.94-2.62,5.93-2.62c4.22,0,5.93,1.66,5.93,5.08v1.93h-7.16
				c-6.2,0-9.35,3.25-9.35,7.8c0,2.3,0.75,4.39,2.14,5.83c1.65,1.65,3.89,2.45,7.26,2.45s5.24-0.8,7.22-2.77v2.45H373.5z
				 M347.05,319.74v-4.64h-2.41c-2.19,0-2.94-1.07-2.94-3.16v-30.25h-5.45v30.57c0,4.01,2.24,7.48,7.42,7.48H347.05z M331.02,319.74
				l-13.63-23.14l12.35-14.91h-7.05l-15.55,19.13v-19.13h-5.77v38.04h5.77v-11.06l6.41-7.7l10.69,18.76H331.02z"/>
		</g>
		<g style="clip-path:url(#SVGID_00000091735599745659276750000006912188846892786837_);">
			<path class="st3" d="M723.92,191.99c0,3.69-2.09,6.2-5.56,6.2c-3.47,0-5.51-2.51-5.51-6.2v-16.57c0-3.69,2.04-6.2,5.51-6.2
				c3.48,0,5.56,2.51,5.56,6.2V191.99z M729.36,192.15v-16.89c0-6.78-4.97-10.9-11.01-10.9c-6.04,0-10.95,4.11-10.95,10.9v16.89
				c0,6.79,4.91,10.9,10.95,10.9C724.4,203.05,729.36,198.94,729.36,192.15 M694.09,202.73v-38.04h-5.45l-7.43,6.41v6.04l7.43-6.51
				v32.11H694.09z M659.73,180.34v-4.16h-5.4v-3.94c0-1.99,0.96-3.18,2.99-3.18h2.41v-4.64h-3.42c-5.07,0-7.43,3.63-7.43,7.55v4.21
				h-3.1v4.16h3.1v22.39h5.45v-22.39H659.73z M638.83,175.64h-5.45v27.09h5.45V175.64z M624.46,202.73v-17.32
				c0-3.05-0.64-5.61-2.72-7.64c-1.6-1.55-3.9-2.45-6.68-2.45c-2.73,0-5.35,1.01-7.22,3.04v-2.72h-5.33v27.09h5.44v-16.51
				c0-4.17,2.57-6.04,5.61-6.04c3.05,0,5.46,1.82,5.46,6.04v16.52H624.46z M593.3,175.64h-5.45v27.09h5.45V175.64z M580.21,191.88
				c0-3.26-1.01-5.99-3.09-7.8c-1.6-1.44-3.58-2.3-7.11-2.83l-4.33-0.65c-1.76-0.26-3.31-0.91-4.28-1.76
				c-1.01-0.91-1.45-2.14-1.45-3.53c0-3.37,2.46-5.93,6.95-5.93c3.21,0,5.93,0.7,8.29,2.94l3.68-3.63
				c-3.26-3.04-6.78-4.33-11.81-4.33c-7.91,0-12.72,4.54-12.72,11.17c0,3.1,0.91,5.5,2.78,7.27c1.65,1.55,4.11,2.62,7.21,3.05
				l4.49,0.64c2.24,0.32,3.21,0.69,4.17,1.6c1.01,0.91,1.5,2.3,1.5,3.95c0,3.69-2.89,5.83-7.86,5.83c-3.9,0-6.95-0.86-9.73-3.63
				l-3.85,3.79c3.63,3.68,7.75,5.02,13.47,5.02C574.5,203.05,580.21,198.89,580.21,191.88 M537.73,160.73h-5.24l-15.23,45.95h5.24
				L537.73,160.73z M494.66,191.99c0,3.69-2.09,6.2-5.56,6.2c-3.47,0-5.51-2.51-5.51-6.2v-16.57c0-3.69,2.04-6.2,5.51-6.2
				c3.48,0,5.56,2.51,5.56,6.2V191.99z M500.11,192.15v-16.89c0-6.78-4.97-10.9-11.01-10.9c-6.04,0-10.95,4.11-10.95,10.9v16.89
				c0,6.79,4.91,10.9,10.95,10.9C495.14,203.05,500.11,198.94,500.11,192.15 M464.83,202.73v-38.04h-5.45l-7.43,6.41v6.04l7.43-6.51
				v32.11H464.83z M423.68,186.97H411.5c0.06-1.66,0.16-2.46,0.7-3.69c0.86-2.04,2.83-3.43,5.39-3.43s4.49,1.39,5.34,3.43
				C423.47,184.51,423.63,185.31,423.68,186.97 M429.08,190.76v-2.4c0-7.7-4.22-13.03-11.49-13.03c-6.95,0-11.48,5.07-11.48,13.83
				c0,10.32,5.39,13.89,12.18,13.89c4.75,0,7.37-1.44,10.15-4.21l-3.48-3.26c-1.92,1.92-3.53,2.78-6.57,2.78
				c-4.44,0-6.9-2.94-6.9-7.59H429.08z M400.33,194.45c0-4.81-2.99-7.22-8.07-7.64l-4.28-0.37c-2.89-0.27-3.74-1.5-3.74-3.1
				c0-2.03,1.65-3.48,4.92-3.48c2.57,0,4.97,0.53,6.68,1.98l3.42-3.48c-2.51-2.19-5.99-3.04-10.05-3.04c-5.66,0-10.2,2.99-10.2,8.27
				c0,4.76,2.94,7.06,8.02,7.49l4.33,0.37c2.62,0.21,3.63,1.39,3.63,3.21c0,2.57-2.62,3.75-5.93,3.75c-2.67,0-5.61-0.59-7.8-2.84
				l-3.58,3.58c3.21,3.15,6.95,3.9,11.39,3.9C395.52,203.05,400.33,200.11,400.33,194.45 M373.45,194.45c0-4.81-2.99-7.22-8.07-7.64
				l-4.28-0.37c-2.89-0.27-3.74-1.5-3.74-3.1c0-2.03,1.66-3.48,4.92-3.48c2.57,0,4.97,0.53,6.68,1.98l3.42-3.48
				c-2.51-2.19-5.99-3.04-10.05-3.04c-5.66,0-10.21,2.99-10.21,8.27c0,4.76,2.94,7.06,8.02,7.49l4.33,0.37
				c2.62,0.21,3.63,1.39,3.63,3.21c0,2.57-2.62,3.75-5.93,3.75c-2.67,0-5.61-0.59-7.8-2.84l-3.58,3.58c3.21,3.15,6.95,3.9,11.38,3.9
				C368.65,203.05,373.45,200.11,373.45,194.45 M339.04,192.95c0,1.92-0.37,3.21-1.18,4.01c-1.44,1.39-2.99,1.55-5.08,1.55
				c-3.42,0-4.97-1.4-4.97-3.85c0-2.46,1.66-3.9,4.87-3.9h6.36V192.95z M344.48,202.73v-18.11c0-6.15-3.74-9.29-11.17-9.29
				c-4.49,0-7.16,0.91-9.72,3.89l3.57,3.37c1.5-1.92,2.94-2.62,5.93-2.62c4.22,0,5.93,1.66,5.93,5.08v1.93h-7.16
				c-6.2,0-9.35,3.25-9.35,7.8c0,2.3,0.75,4.39,2.14,5.83c1.65,1.65,3.89,2.45,7.26,2.45c3.37,0,5.24-0.8,7.22-2.77v2.45H344.48z
				 M318.03,202.73v-4.64h-2.41c-2.19,0-2.94-1.07-2.94-3.16v-30.25h-5.45v30.57c0,4.01,2.24,7.48,7.42,7.48H318.03z M302,202.73
				l-13.63-23.14l12.35-14.91h-7.05l-15.55,19.13v-19.13h-5.77v38.04h5.77v-11.06l6.41-7.7l10.69,18.76H302z"/>
		</g>
		<g style="clip-path:url(#SVGID_00000091735599745659276750000006912188846892786837_);">
			<path class="st3" d="M700.72,775.06c0-3.58-0.43-7.27-3.31-10.15c-1.55-1.55-3.84-2.46-6.84-2.46c-2.78,0-5.02,0.86-6.31,2.19
				v-10.05h15.6v-4.85h-20.52v20.79h4.96c0.59-1.87,2.3-3.42,5.4-3.42c4.39,0,5.56,3.42,5.56,7.97c0,2.57-0.21,5.07-1.82,6.68
				c-0.97,0.96-2.36,1.5-3.96,1.5c-3.42,0-5.13-1.92-5.56-5.29h-5.45c0.21,2.73,0.86,5.24,2.88,7.27c1.65,1.65,4.49,2.93,8.12,2.93
				c3.69,0,6.31-1.28,8.02-2.99C700.29,782.38,700.72,779.12,700.72,775.06 M659.73,765.38v-4.16h-5.39v-3.94
				c0-1.99,0.96-3.18,2.99-3.18h2.4v-4.64h-3.42c-5.07,0-7.42,3.63-7.42,7.55v4.21h-3.1v4.16h3.1v22.39h5.45v-22.39H659.73z
				 M638.84,760.69h-5.45v27.09h5.45V760.69z M624.46,787.77v-17.32c0-3.04-0.64-5.61-2.72-7.64c-1.6-1.55-3.9-2.45-6.68-2.45
				c-2.73,0-5.34,1.01-7.22,3.04v-2.72h-5.34v27.09h5.45v-16.51c0-4.17,2.57-6.04,5.61-6.04c3.05,0,5.46,1.82,5.46,6.04v16.52
				H624.46z M593.3,760.69h-5.45v27.09h5.45V760.69z M580.21,776.93c0-3.26-1.02-5.99-3.1-7.8c-1.6-1.44-3.58-2.3-7.1-2.83
				l-4.33-0.65c-1.77-0.26-3.31-0.91-4.28-1.76c-1.02-0.91-1.45-2.14-1.45-3.53c0-3.37,2.46-5.93,6.95-5.93
				c3.21,0,5.93,0.7,8.29,2.94l3.68-3.63c-3.25-3.04-6.78-4.33-11.81-4.33c-7.91,0-12.71,4.54-12.71,11.17
				c0,3.1,0.91,5.51,2.77,7.27c1.65,1.55,4.11,2.62,7.21,3.05l4.49,0.64c2.24,0.32,3.21,0.69,4.17,1.6c1.02,0.91,1.5,2.3,1.5,3.95
				c0,3.69-2.89,5.83-7.86,5.83c-3.9,0-6.95-0.86-9.73-3.63l-3.84,3.79c3.63,3.68,7.74,5.02,13.46,5.02
				C574.5,788.09,580.21,783.93,580.21,776.93 M537.73,745.77h-5.24l-15.23,45.95h5.24L537.73,745.77z M500.48,775.06
				c0-3.58-0.43-7.27-3.31-10.15c-1.55-1.55-3.85-2.46-6.84-2.46c-2.78,0-5.03,0.86-6.31,2.19v-10.05h15.6v-4.85h-20.52v20.79h4.96
				c0.59-1.87,2.3-3.42,5.41-3.42c4.38,0,5.56,3.42,5.56,7.97c0,2.57-0.21,5.07-1.82,6.68c-0.96,0.96-2.35,1.5-3.95,1.5
				c-3.43,0-5.14-1.92-5.56-5.29h-5.45c0.21,2.73,0.86,5.24,2.89,7.27c1.65,1.65,4.48,2.93,8.12,2.93c3.68,0,6.31-1.28,8.02-2.99
				C500.05,782.38,500.48,779.12,500.48,775.06 M452.7,772.02h-12.18c0.06-1.66,0.16-2.46,0.7-3.69c0.86-2.04,2.83-3.43,5.39-3.43
				c2.57,0,4.49,1.39,5.34,3.43C452.49,769.55,452.65,770.36,452.7,772.02 M458.1,775.8v-2.4c0-7.7-4.22-13.03-11.49-13.03
				c-6.95,0-11.48,5.07-11.48,13.83c0,10.32,5.39,13.89,12.18,13.89c4.75,0,7.37-1.44,10.15-4.21l-3.48-3.26
				c-1.92,1.92-3.53,2.78-6.57,2.78c-4.44,0-6.9-2.94-6.9-7.59H458.1z M429.35,779.49c0-4.81-2.99-7.22-8.07-7.64l-4.28-0.37
				c-2.89-0.27-3.74-1.5-3.74-3.1c0-2.03,1.65-3.48,4.92-3.48c2.57,0,4.97,0.53,6.68,1.98l3.42-3.48
				c-2.51-2.19-5.99-3.04-10.05-3.04c-5.66,0-10.2,2.99-10.2,8.27c0,4.76,2.94,7.06,8.02,7.49l4.33,0.37
				c2.62,0.21,3.63,1.39,3.63,3.21c0,2.57-2.62,3.75-5.93,3.75c-2.67,0-5.61-0.59-7.8-2.84l-3.58,3.58
				c3.21,3.14,6.95,3.89,11.39,3.89C424.54,788.09,429.35,785.16,429.35,779.49 M402.47,779.49c0-4.81-2.99-7.22-8.07-7.64
				l-4.28-0.37c-2.89-0.27-3.74-1.5-3.74-3.1c0-2.03,1.66-3.48,4.92-3.48c2.57,0,4.97,0.53,6.68,1.98l3.42-3.48
				c-2.51-2.19-5.99-3.04-10.05-3.04c-5.66,0-10.21,2.99-10.21,8.27c0,4.76,2.94,7.06,8.02,7.49l4.33,0.37
				c2.62,0.21,3.63,1.39,3.63,3.21c0,2.57-2.62,3.75-5.93,3.75c-2.67,0-5.61-0.59-7.8-2.84l-3.58,3.58
				c3.21,3.14,6.95,3.89,11.38,3.89C397.66,788.09,402.47,785.16,402.47,779.49 M368.06,778c0,1.92-0.37,3.21-1.18,4.01
				c-1.44,1.39-2.99,1.55-5.08,1.55c-3.42,0-4.97-1.4-4.97-3.85c0-2.46,1.66-3.9,4.87-3.9h6.36V778z M373.5,787.77v-18.11
				c0-6.15-3.74-9.29-11.17-9.29c-4.49,0-7.16,0.91-9.72,3.89l3.57,3.37c1.5-1.92,2.94-2.62,5.93-2.62c4.22,0,5.93,1.66,5.93,5.08
				v1.93h-7.16c-6.2,0-9.35,3.25-9.35,7.8c0,2.3,0.75,4.39,2.14,5.83c1.65,1.65,3.89,2.45,7.26,2.45s5.24-0.8,7.22-2.77v2.45H373.5z
				 M347.05,787.77v-4.64h-2.41c-2.19,0-2.94-1.07-2.94-3.16v-30.25h-5.45v30.57c0,4.01,2.24,7.48,7.42,7.48H347.05z M331.02,787.77
				l-13.63-23.14l12.35-14.91h-7.05l-15.55,19.13v-19.13h-5.77v38.04h5.77v-11.06l6.41-7.7l10.69,18.76H331.02z"/>
		</g>
	</g>
	<g>
		<polygon class="st4" points="18.53,759.93 34.61,759.93 26.58,749.29 		"/>
	</g>
	<g>
		<polygon class="st4" points="18.53,781.09 34.61,781.09 26.58,770.45 		"/>
	</g>
	<g>
		<polygon class="st4" points="18.53,802.25 34.61,802.25 26.58,791.61 		"/>
	</g>
	<g>
		<polygon class="st4" points="18.53,738.77 34.61,738.77 26.58,728.13 		"/>
	</g>
	<g>
		<polygon class="st4" points="18.53,644.32 34.61,644.32 26.58,633.69 		"/>
	</g>
	<g>
		<polygon class="st4" points="18.53,665.48 34.61,665.48 26.58,654.85 		"/>
	</g>
	<g>
		<polygon class="st4" points="18.53,686.64 34.61,686.64 26.58,676 		"/>
	</g>
	<g>
		<polygon class="st4" points="18.53,623.17 34.61,623.17 26.58,612.53 		"/>
	</g>
	<g>
		<polygon class="st4" points="18.53,524.5 34.61,524.5 26.58,513.87 		"/>
	</g>
	<g>
		<polygon class="st4" points="18.53,545.66 34.61,545.66 26.58,535.02 		"/>
	</g>
	<g>
		<polygon class="st4" points="18.53,566.82 34.61,566.82 26.58,556.18 		"/>
	</g>
	<g>
		<polygon class="st4" points="18.53,503.34 34.61,503.34 26.58,492.71 		"/>
	</g>
	<g>
		<polygon class="st4" points="18.53,406.09 34.61,406.09 26.58,395.45 		"/>
	</g>
	<g>
		<polygon class="st4" points="18.53,427.24 34.61,427.24 26.58,416.61 		"/>
	</g>
	<g>
		<polygon class="st4" points="18.53,448.4 34.61,448.4 26.58,437.77 		"/>
	</g>
	<g>
		<polygon class="st4" points="18.53,384.93 34.61,384.93 26.58,374.29 		"/>
	</g>
	<g>
		<polygon class="st4" points="18.53,290.49 34.61,290.49 26.58,279.85 		"/>
	</g>
	<g>
		<polygon class="st4" points="18.53,311.64 34.61,311.64 26.58,301.01 		"/>
	</g>
	<g>
		<polygon class="st4" points="18.53,332.8 34.61,332.8 26.58,322.17 		"/>
	</g>
	<g>
		<polygon class="st4" points="18.53,269.33 34.61,269.33 26.58,258.69 		"/>
	</g>
	<g>
		<polygon class="st4" points="18.53,173.48 34.61,173.48 26.58,162.84 		"/>
	</g>
	<g>
		<polygon class="st4" points="18.53,194.64 34.61,194.64 26.58,184 		"/>
	</g>
	<g>
		<polygon class="st4" points="18.53,215.79 34.61,215.79 26.58,205.16 		"/>
	</g>
	<g>
		<polygon class="st4" points="18.53,152.32 34.61,152.32 26.58,141.68 		"/>
	</g>
</g>
</svg>
