<?xml version="1.0" encoding="utf-8"?>
<!-- Generator: Adobe Illustrator 26.2.1, SVG Export Plug-In . SVG Version: 6.00 Build 0)  -->
<svg version="1.1" id="Ebene_1" xmlns="http://www.w3.org/2000/svg" xmlns:xlink="http://www.w3.org/1999/xlink" x="0px" y="0px"
	 viewBox="0 0 1000 935.58" style="enable-background:new 0 0 1000 935.58;" xml:space="preserve">
<style type="text/css">
	.st0{fill:#A2B9E1;}
	.st1{fill:#6796CF;}
	.st2{clip-path:url(#SVGID_00000006689510095204635430000004838089544490351295_);}
	.st3{fill:#2B2961;}
	.st4{fill:#FFFFFF;}
	.st5{clip-path:url(#SVGID_00000015340458159810060600000005666834913797066888_);}
	.st6{clip-path:url(#SVGID_00000155117222562366444740000004717721708965722292_);}
	.st7{clip-path:url(#SVGID_00000013907776614940285120000002132915224556879758_);}
	.st8{clip-path:url(#SVGID_00000026884154344864151450000006636942533565793410_);}
	.st9{clip-path:url(#SVGID_00000152266282243255119000000004316111759841314957_);}
	.st10{opacity:0.52;clip-path:url(#SVGID_00000035530963312119230480000011814518976465518515_);}
	.st11{clip-path:url(#SVGID_00000083085761284731538210000005310073478551074965_);}
	.st12{clip-path:url(#SVGID_00000137818331464641693110000000601418642420656304_);}
	.st13{clip-path:url(#SVGID_00000152263705430229585030000013885706079670800770_);}
	.st14{clip-path:url(#SVGID_00000060751213575288172200000010068615025109599367_);}
	.st15{clip-path:url(#SVGID_00000151542905934015089140000014411537234074803120_);}
	.st16{clip-path:url(#SVGID_00000137098274434583908290000008325086087880171950_);}
	.st17{clip-path:url(#SVGID_00000132789586132779566270000010691325140207596705_);}
	.st18{clip-path:url(#SVGID_00000176043875888235019670000013802139655974433426_);}
	.st19{clip-path:url(#SVGID_00000007401649009882286190000013943120535935668126_);}
	.st20{clip-path:url(#SVGID_00000020393180408619188500000017155767847797903524_);}
	.st21{clip-path:url(#SVGID_00000141420683988372558670000011870665584791500171_);}
	.st22{clip-path:url(#SVGID_00000160888988324302287980000016083316867992961720_);}
	.st23{fill:none;stroke:#2B2961;stroke-width:0.374;stroke-linejoin:round;stroke-miterlimit:10;}
	.st24{fill:none;stroke:#2B2961;stroke-width:0.4;stroke-miterlimit:10;}
	.st25{clip-path:url(#SVGID_00000183213433172761221610000006480646146031651732_);}
	.st26{clip-path:url(#SVGID_00000078755847014770927070000017636254461969665925_);}
	.st27{clip-path:url(#SVGID_00000039830072082725999520000014330549954524951951_);}
	.st28{clip-path:url(#SVGID_00000007396890331070758140000016311422659220621478_);}
	.st29{clip-path:url(#SVGID_00000065044851748452418990000010186770858237735050_);}
	.st30{clip-path:url(#SVGID_00000093866049641550214110000013706473191540945284_);}
	.st31{clip-path:url(#SVGID_00000075859184981928645480000010445182399563992243_);}
	.st32{clip-path:url(#SVGID_00000071525732081098758290000008869498855696061325_);}
	.st33{clip-path:url(#SVGID_00000133495120972359704810000018129102589889406599_);}
	.st34{clip-path:url(#SVGID_00000100350592202079630340000005966456459985734838_);}
	.st35{clip-path:url(#SVGID_00000177475077263404847520000012150572423159051427_);}
	.st36{clip-path:url(#SVGID_00000155117434639420737610000008399507495603944602_);}
	.st37{clip-path:url(#SVGID_00000060733133372135469250000000381415646931613077_);}
	.st38{clip-path:url(#SVGID_00000120545898389566618390000017021507738699159431_);}
	.st39{clip-path:url(#SVGID_00000181053577191202445050000003025808578401967006_);}
	.st40{clip-path:url(#SVGID_00000062913355841619609040000005918235053617609395_);}
	.st41{clip-path:url(#SVGID_00000039823088113747758370000001775948919494743693_);}
	.st42{clip-path:url(#SVGID_00000036226181517470787460000002082868322687786655_);}
	.st43{clip-path:url(#SVGID_00000144310954427865337600000001811804973280587175_);}
	.st44{clip-path:url(#SVGID_00000023965384369555343430000013098293053121575566_);}
	.st45{clip-path:url(#SVGID_00000080192319306127483110000017735819960316772022_);}
	.st46{clip-path:url(#SVGID_00000176764068773089063070000012520606655453984649_);}
	.st47{clip-path:url(#SVGID_00000085250892593345708240000000043477666543826100_);}
	.st48{clip-path:url(#SVGID_00000181089637537234236910000012564495525468343473_);}
	.st49{clip-path:url(#SVGID_00000074443897296315740170000017882253913383906960_);}
	.st50{clip-path:url(#SVGID_00000101798058399339076220000015457662582283268273_);}
	.st51{clip-path:url(#SVGID_00000154417983201622784470000001533624873202453915_);}
	.st52{clip-path:url(#SVGID_00000030459071125343363890000010192742351289482149_);}
	.st53{clip-path:url(#SVGID_00000069388770408303740540000005108138769186629007_);}
	.st54{clip-path:url(#SVGID_00000102537144627035746330000001728599670572903836_);}
	.st55{clip-path:url(#SVGID_00000163767750843606524000000017905245782458963125_);}
	.st56{clip-path:url(#SVGID_00000112593428861918183010000006335855761366269100_);}
	.st57{clip-path:url(#SVGID_00000151524522799656115080000004558571856203424665_);}
	.st58{clip-path:url(#SVGID_00000032642659850065502750000007015812560402341044_);}
	.st59{clip-path:url(#SVGID_00000147935896029578237400000010185210870624561284_);}
	.st60{clip-path:url(#SVGID_00000179620720356440815740000006755788737378389422_);}
	.st61{clip-path:url(#SVGID_00000025437453374487015920000006021348525566622863_);}
	.st62{fill:#9AB4DE;}
	.st63{clip-path:url(#SVGID_00000131337439619483027060000012474436916142878627_);}
	.st64{clip-path:url(#SVGID_00000068638660072957959170000001376459853046860990_);}
	.st65{clip-path:url(#SVGID_00000041989256713565060750000008100623754622592912_);}
	.st66{fill:#B9C9E9;}
	.st67{clip-path:url(#SVGID_00000178204815072939085330000016178935608546881450_);}
	.st68{clip-path:url(#SVGID_00000060711165401757199440000017327597221657367182_);}
	.st69{clip-path:url(#SVGID_00000052076252420043283430000005251726956619045009_);}
	.st70{clip-path:url(#SVGID_00000007401762773462528440000012247475950443621537_);}
	.st71{clip-path:url(#SVGID_00000087382026017617610600000002671293081461531813_);}
	.st72{clip-path:url(#SVGID_00000155127070252853534530000008339029549829649799_);}
	.st73{clip-path:url(#SVGID_00000100377839675032899720000012159570897578566278_);}
	.st74{clip-path:url(#SVGID_00000088125029249179899440000005119747818120448945_);}
	.st75{clip-path:url(#SVGID_00000093148668336640023680000008329115483051287942_);}
	.st76{clip-path:url(#SVGID_00000058581879813710238420000014445187479864586171_);}
	.st77{clip-path:url(#SVGID_00000025434550089559583760000011730211192744906670_);}
	.st78{clip-path:url(#SVGID_00000029020172538902810840000001899832786790165378_);}
	.st79{clip-path:url(#SVGID_00000023963433211048864100000013135280426525833370_);}
	.st80{clip-path:url(#SVGID_00000078727820806727926600000017567802643410865798_);}
	.st81{clip-path:url(#SVGID_00000141414075090866689490000004691296830098317997_);}
	.st82{clip-path:url(#SVGID_00000109029867958459034980000014797200870798846355_);}
	.st83{clip-path:url(#SVGID_00000153700599492225444630000016625650687231946883_);}
	.st84{clip-path:url(#SVGID_00000064323376579147999240000003484237639620920505_);}
	.st85{clip-path:url(#SVGID_00000122689952682173809980000015541509573085795474_);}
	.st86{clip-path:url(#SVGID_00000168094979587878902300000004769181802777324701_);}
	.st87{clip-path:url(#SVGID_00000059997699641171266690000007712471442765782443_);}
	.st88{clip-path:url(#SVGID_00000121273755060009260400000010878818291609077437_);}
	.st89{clip-path:url(#SVGID_00000176012273502113505250000009261104361848829859_);}
	.st90{clip-path:url(#SVGID_00000116194084523062059860000014589545693454087044_);}
	.st91{clip-path:url(#SVGID_00000152973416708624453420000017680264386166282400_);}
	.st92{clip-path:url(#SVGID_00000121981853511241453560000006727903634741033386_);}
	.st93{clip-path:url(#SVGID_00000164483390041582352920000011648721067802409141_);}
	.st94{clip-path:url(#SVGID_00000067207430655996282420000016842550464831126964_);}
	.st95{clip-path:url(#SVGID_00000033359812123169787290000012594033819645643393_);}
	.st96{clip-path:url(#SVGID_00000039100874031554821920000018006615266776858290_);}
	.st97{clip-path:url(#SVGID_00000028302375742428133070000003333784038772276883_);}
	.st98{clip-path:url(#SVGID_00000155864954524302576230000007580666852080530834_);}
	.st99{clip-path:url(#SVGID_00000008853735264368813770000004410368548569862799_);}
	.st100{clip-path:url(#SVGID_00000114774657558518104510000012284863680837890474_);}
	.st101{clip-path:url(#SVGID_00000023979183756511810830000009701451659985235330_);}
	.st102{clip-path:url(#SVGID_00000022520583529003548990000002054009600763099532_);}
	.st103{clip-path:url(#SVGID_00000111893574273304205470000011342163487707425700_);}
	.st104{clip-path:url(#SVGID_00000115502494406931201850000013141888192803428535_);}
	.st105{clip-path:url(#SVGID_00000005974221362818959280000016168596652004113059_);}
	.st106{clip-path:url(#SVGID_00000124125447137105685820000014833355801729012914_);}
	.st107{clip-path:url(#SVGID_00000150091998986169791240000012417202239585268130_);}
	.st108{clip-path:url(#SVGID_00000005953548418167731770000012195546944754827158_);}
	.st109{clip-path:url(#SVGID_00000008869212582408792960000010596956055658125189_);}
	.st110{clip-path:url(#SVGID_00000105386574103698219670000006952479277220659599_);}
	.st111{clip-path:url(#SVGID_00000028323164409237979760000009683002198627051912_);}
	.st112{clip-path:url(#SVGID_00000153667890110025536340000003932483616618211241_);}
	.st113{clip-path:url(#SVGID_00000095297355314353436870000008841490045114959521_);}
	.st114{clip-path:url(#SVGID_00000073710340391918727560000000991633089490154636_);}
	.st115{clip-path:url(#SVGID_00000077319931753944475730000001829111402193230248_);}
	.st116{clip-path:url(#SVGID_00000072968815512599754780000011232985057143228803_);}
	.st117{clip-path:url(#SVGID_00000009591674597413172110000008707857940281566848_);}
	.st118{clip-path:url(#SVGID_00000008849888438924905470000011732671850861053594_);}
	.st119{clip-path:url(#SVGID_00000067216619375525487660000010040551020600904105_);}
	.st120{clip-path:url(#SVGID_00000098191431725807810690000006309661781682382469_);}
	.st121{clip-path:url(#SVGID_00000042008667664713051900000005091062685665024944_);}
	.st122{clip-path:url(#SVGID_00000158027155656384688670000001913266973566161547_);}
	.st123{clip-path:url(#SVGID_00000085247161355437634080000009570320387647317429_);}
	.st124{clip-path:url(#SVGID_00000099624397300917782820000008662353036611483298_);}
	.st125{clip-path:url(#SVGID_00000057118617810660916230000004197163102811648161_);}
	.st126{clip-path:url(#SVGID_00000028289794626509713000000005595765665659436716_);}
	.st127{clip-path:url(#SVGID_00000011752846623913478510000017350650167472181124_);}
	.st128{clip-path:url(#SVGID_00000061466220159499406740000000693862311760850081_);}
	.st129{clip-path:url(#SVGID_00000119822884490741620870000009560976425822327482_);}
	.st130{clip-path:url(#SVGID_00000103948694136789534470000010109451236306888890_);}
	.st131{clip-path:url(#SVGID_00000119836250755302523290000003160767740055316669_);}
	.st132{clip-path:url(#SVGID_00000017502547186594545010000006497761169602454185_);}
	.st133{clip-path:url(#SVGID_00000054967912090305352940000002747832742293575300_);}
	.st134{clip-path:url(#SVGID_00000119828666063693990580000004632772719512072890_);}
	.st135{clip-path:url(#SVGID_00000067207669345478432670000010697769141002348444_);}
	.st136{clip-path:url(#SVGID_00000137133393309485851130000016231101023636641449_);}
	.st137{clip-path:url(#SVGID_00000140706348837966984210000012853668772913018264_);}
	.st138{clip-path:url(#SVGID_00000067925273450368115460000013451673411117406879_);}
	.st139{clip-path:url(#SVGID_00000178925265637427051100000017476107680480569762_);}
	.st140{clip-path:url(#SVGID_00000067935410162254186910000016276469995920694410_);}
	.st141{clip-path:url(#SVGID_00000180354912938046346250000014074737566759637125_);}
	.st142{clip-path:url(#SVGID_00000179608076308734786960000017232749707007166347_);}
	.st143{clip-path:url(#SVGID_00000018923287956230722250000003958548412728165524_);}
	.st144{clip-path:url(#SVGID_00000107577210642367275950000000248691847756832950_);}
	.st145{clip-path:url(#SVGID_00000166644563442622163690000015204359018913429678_);}
	.st146{clip-path:url(#SVGID_00000161628223969060571860000016339417755260816788_);}
	.st147{clip-path:url(#SVGID_00000056408108300812858510000003825165499300115870_);}
	.st148{clip-path:url(#SVGID_00000001662364598139388930000003646419431295028097_);}
	.st149{clip-path:url(#SVGID_00000162350941510097837810000011607056334163560629_);}
	.st150{clip-path:url(#SVGID_00000040574131264437862190000007839705048960261823_);}
	.st151{clip-path:url(#SVGID_00000016756852736578467000000009878678533965875126_);}
	.st152{clip-path:url(#SVGID_00000099650432872315733740000009951062204770154896_);}
	.st153{clip-path:url(#SVGID_00000029017250721932725950000003389609833060074169_);}
	.st154{clip-path:url(#SVGID_00000030447737607344931840000007589296999760425909_);}
	.st155{clip-path:url(#SVGID_00000016045787371141195890000010456301887510138296_);}
	.st156{clip-path:url(#SVGID_00000170279953075467237240000003452534565270734982_);}
	.st157{clip-path:url(#SVGID_00000052817356525739961740000016788496839642511024_);}
	.st158{clip-path:url(#SVGID_00000017477826338097124760000008894388547291958662_);}
	.st159{clip-path:url(#SVGID_00000060749738316218099200000011932884122292978821_);}
	.st160{clip-path:url(#SVGID_00000019666175091873975960000016010488962313778074_);}
	.st161{clip-path:url(#SVGID_00000047761797716826991840000018022910392396003000_);}
	.st162{clip-path:url(#SVGID_00000134224094209203604120000004772968249232271005_);}
	.st163{clip-path:url(#SVGID_00000083076231654448537470000017178858643181686181_);}
	.st164{clip-path:url(#SVGID_00000176020999433229509100000002824910968920323754_);}
	.st165{clip-path:url(#SVGID_00000182514455366208218370000004109361776117587127_);}
	.st166{clip-path:url(#SVGID_00000047761377913809630040000009148259250247151750_);}
	.st167{clip-path:url(#SVGID_00000144314742196966695900000000561090541756066482_);}
	.st168{clip-path:url(#SVGID_00000104667125764213441430000011650081492871270568_);}
	.st169{clip-path:url(#SVGID_00000076569447447835698860000009238459377658090894_);}
	.st170{clip-path:url(#SVGID_00000151506664085033233350000007139876584934353573_);}
	.st171{clip-path:url(#SVGID_00000102523895544382873680000002665692748278972826_);}
	.st172{clip-path:url(#SVGID_00000178169761428580837260000003928806427945984156_);}
	.st173{clip-path:url(#SVGID_00000114758297162285805030000008543191034412154251_);}
	.st174{clip-path:url(#SVGID_00000155866102642333563240000018131813513183192501_);}
	.st175{clip-path:url(#SVGID_00000152982626983041709760000007749783026203436457_);}
	.st176{clip-path:url(#SVGID_00000135654809470984659300000011147749763908393390_);}
	.st177{clip-path:url(#SVGID_00000183211097359077957790000005350098700517306554_);}
	.st178{clip-path:url(#SVGID_00000066497106926534667620000014375271832186317209_);}
	.st179{clip-path:url(#SVGID_00000035517162033689748310000015233165805710690954_);}
	.st180{clip-path:url(#SVGID_00000052805511214729111470000004835797042041989271_);}
	.st181{clip-path:url(#SVGID_00000042715077685826643730000014848568108317656748_);}
	.st182{clip-path:url(#SVGID_00000143612880966500283320000011111697106407578259_);}
	.st183{clip-path:url(#SVGID_00000088106339890732396810000014498105628673257366_);}
	.st184{clip-path:url(#SVGID_00000155139404488385983130000001198180608209098150_);}
	.st185{clip-path:url(#SVGID_00000013890629413598873240000007071195355821436085_);}
	.st186{clip-path:url(#SVGID_00000053544499944715149950000012562450017158516105_);}
	.st187{clip-path:url(#SVGID_00000008837589628972596710000008480860196101749668_);}
	.st188{clip-path:url(#SVGID_00000047759629079909911850000009113332436040407717_);}
	.st189{clip-path:url(#SVGID_00000076572068128523662230000015238845225564743832_);}
	.st190{clip-path:url(#SVGID_00000121961266156063184170000007106549290492797078_);}
	.st191{clip-path:url(#SVGID_00000034086943505407358720000007885481068886404772_);}
	.st192{clip-path:url(#SVGID_00000037694743168513443320000012871060306896465290_);}
	.st193{clip-path:url(#SVGID_00000135691132104066430990000006105485217890979260_);}
	.st194{clip-path:url(#SVGID_00000139278496710005583380000002261228286117750434_);}
	.st195{clip-path:url(#SVGID_00000047758864365752554690000013262523863753486723_);}
	.st196{clip-path:url(#SVGID_00000152968445886215704080000017634617979235664041_);}
	.st197{clip-path:url(#SVGID_00000062171420033476726700000018198453943313987262_);}
	.st198{clip-path:url(#SVGID_00000071532561353773718790000018106770714836992443_);}
	.st199{clip-path:url(#SVGID_00000131362231325121615160000010804075218213169797_);}
	.st200{clip-path:url(#SVGID_00000001634008860379082740000007904951391395291783_);}
	.st201{clip-path:url(#SVGID_00000107581393008270257980000008982343505120061884_);}
	.st202{clip-path:url(#SVGID_00000052099038248336339070000003198362070929250975_);}
	.st203{clip-path:url(#SVGID_00000160156795257483089100000011133418706277711291_);}
	.st204{clip-path:url(#SVGID_00000060725084821558380930000004524300207774005695_);}
	.st205{clip-path:url(#SVGID_00000069372292932330367650000005997466948680163968_);}
	.st206{clip-path:url(#SVGID_00000083090186760889133860000012376287366989938078_);}
	.st207{clip-path:url(#SVGID_00000132794019198549866490000013989076109669872036_);}
	.st208{clip-path:url(#SVGID_00000082354067483614017090000014324333540480622008_);}
	.st209{clip-path:url(#SVGID_00000167357690060146243700000016021534558914998183_);}
	.st210{clip-path:url(#SVGID_00000002353983737777860550000009808562545223477685_);}
	.st211{clip-path:url(#SVGID_00000078028287447145029910000009232275821693883277_);}
	.st212{clip-path:url(#SVGID_00000096768329540646254660000010819748660899219849_);}
	.st213{clip-path:url(#SVGID_00000035497928610713123370000008188700725380812695_);}
	.st214{clip-path:url(#SVGID_00000113340971663187206960000006477598313438600118_);}
	.st215{clip-path:url(#SVGID_00000051363280533156507300000007023078479710413986_);}
	.st216{clip-path:url(#SVGID_00000019654504730226531990000003006774718381744315_);}
	.st217{clip-path:url(#SVGID_00000007420673817557289960000011522388432610494377_);}
	.st218{clip-path:url(#SVGID_00000004535763893951853150000002732363298386595464_);}
	.st219{clip-path:url(#SVGID_00000009575546701422353820000013472239198507929995_);}
	.st220{clip-path:url(#SVGID_00000119117728145432038040000017091606959845948036_);}
	.st221{clip-path:url(#SVGID_00000168833484730350510390000018022557059114971012_);}
	.st222{clip-path:url(#SVGID_00000070107200892441418550000014529892845546474155_);}
	.st223{clip-path:url(#SVGID_00000098196647963937883970000009559857795139658905_);}
	.st224{clip-path:url(#SVGID_00000082325907425146547290000002323181864834940828_);}
	.st225{clip-path:url(#SVGID_00000045593154560661285740000014439068985324296094_);}
	.st226{clip-path:url(#SVGID_00000129927823340269733730000013776454129216856250_);}
	.st227{clip-path:url(#SVGID_00000065768978736341015370000006140548900515232182_);}
	.st228{clip-path:url(#SVGID_00000116234893053579536120000018160979997599055275_);}
	.st229{clip-path:url(#SVGID_00000149370464787469928640000013484042140320755092_);}
	.st230{clip-path:url(#SVGID_00000101789664219818354810000018065736782620873090_);}
	.st231{clip-path:url(#SVGID_00000075124745142557373490000010338985691861131930_);}
	.st232{clip-path:url(#SVGID_00000123399384326078135710000011697100431821716115_);}
	.st233{clip-path:url(#SVGID_00000016773979672800940940000001026090606145932726_);}
	.st234{clip-path:url(#SVGID_00000039821262600974314400000007336747247331732890_);}
	.st235{clip-path:url(#SVGID_00000137127832022456415530000000056423286711622286_);}
	.st236{clip-path:url(#SVGID_00000080208114933737371670000004327546247769912735_);}
	.st237{clip-path:url(#SVGID_00000042694858210784102000000002867836631771894168_);}
	.st238{clip-path:url(#SVGID_00000157278978037493142150000007429473044155672733_);}
	.st239{clip-path:url(#SVGID_00000083054061298694370200000010289794155489825667_);}
	.st240{clip-path:url(#SVGID_00000059990755170241246520000016071913418624403873_);}
	.st241{clip-path:url(#SVGID_00000176761665434786552100000001110836892352203683_);}
	.st242{clip-path:url(#SVGID_00000065776623151604831940000012683413283449473958_);}
	.st243{clip-path:url(#SVGID_00000062191139101472464470000001485068583284094106_);}
	.st244{clip-path:url(#SVGID_00000108299106415301323130000005930983373030496445_);}
	.st245{clip-path:url(#SVGID_00000005237639902237299240000015028365754600639886_);}
	.st246{clip-path:url(#SVGID_00000036250961815556679390000017001162551820992188_);}
	.st247{clip-path:url(#SVGID_00000030447993671976074080000010440565540451545532_);}
	.st248{clip-path:url(#SVGID_00000076605560383179439020000016312837003858718861_);}
	.st249{clip-path:url(#SVGID_00000159440645597039511330000003808576022306834087_);}
	.st250{clip-path:url(#SVGID_00000178918787305528984710000016630277285561250721_);}
	.st251{clip-path:url(#SVGID_00000047774393186787387730000002926223949845349552_);}
	.st252{clip-path:url(#SVGID_00000152237941429097224930000000990896720979826351_);}
	.st253{clip-path:url(#SVGID_00000003790841294149063430000003492928079962064062_);}
	.st254{clip-path:url(#SVGID_00000061459547717568926350000013922579345329518736_);}
	.st255{clip-path:url(#SVGID_00000152942717649892341340000004998302831654782105_);}
	.st256{clip-path:url(#SVGID_00000140719138751986023220000005179554514540004019_);}
	.st257{clip-path:url(#SVGID_00000088838233698867484830000008494938636542564510_);}
	.st258{clip-path:url(#SVGID_00000011031437870449288680000014412052503354093459_);}
	.st259{clip-path:url(#SVGID_00000093143226460451323630000013571692249722862748_);}
	.st260{clip-path:url(#SVGID_00000116950447097541832310000000820733526006899892_);}
	.st261{clip-path:url(#SVGID_00000085239831481579524860000009869691049498094239_);}
	.st262{clip-path:url(#SVGID_00000128454275181505803750000009079130920802693511_);}
	.st263{clip-path:url(#SVGID_00000181055437322334247060000011796349792977054370_);}
	.st264{clip-path:url(#SVGID_00000037687852268500301680000009348259233561349805_);}
	.st265{clip-path:url(#SVGID_00000152959552177932598810000006719007776591938471_);}
	.st266{clip-path:url(#SVGID_00000041277571820172204790000000591159598022444691_);}
	.st267{clip-path:url(#SVGID_00000111156094667660312840000001007517970720733093_);}
	.st268{clip-path:url(#SVGID_00000152981012723974760980000018092410161283819649_);}
	.st269{clip-path:url(#SVGID_00000142878417122965306120000010946838350718691247_);}
	.st270{clip-path:url(#SVGID_00000165206422882944312970000007140962832636532624_);}
	.st271{clip-path:url(#SVGID_00000064320368123562997230000014541800609145337991_);}
	.st272{clip-path:url(#SVGID_00000138537802819139906480000018023161106489842111_);}
	.st273{clip-path:url(#SVGID_00000046305704661801323610000008775309963657242773_);}
	.st274{clip-path:url(#SVGID_00000011720189497147523540000015987812129537708695_);}
	.st275{clip-path:url(#SVGID_00000088134344705426107150000012041152228154558086_);}
	.st276{clip-path:url(#SVGID_00000042719018213264267230000006812878294556835999_);}
	.st277{clip-path:url(#SVGID_00000083069651800500757310000001689095427509150600_);}
	.st278{clip-path:url(#SVGID_00000175298857232992721260000003420857260676691336_);}
	.st279{clip-path:url(#SVGID_00000129927674265958645660000013434039936716595592_);}
	.st280{clip-path:url(#SVGID_00000106126717520478971430000005552360346112404140_);}
	.st281{clip-path:url(#SVGID_00000160890550610999808740000004009426348065826694_);}
	.st282{clip-path:url(#SVGID_00000130640838968971091350000000385119022240916660_);}
	.st283{clip-path:url(#SVGID_00000141425132972500818900000013520773678848986516_);}
	.st284{clip-path:url(#SVGID_00000052082880369356245640000001722238595876883082_);}
	.st285{clip-path:url(#SVGID_00000140721074353449948910000005968717105622955706_);}
	.st286{clip-path:url(#SVGID_00000057122141250288330350000012941887683909345977_);}
	.st287{clip-path:url(#SVGID_00000116200000142818632230000015690174512445872274_);}
	.st288{clip-path:url(#SVGID_00000078038166331632147460000013122880207403168696_);}
	.st289{clip-path:url(#SVGID_00000100377110734399514190000010123374796341306793_);}
	.st290{clip-path:url(#SVGID_00000100353510375880252710000017679026190708495506_);}
	.st291{clip-path:url(#SVGID_00000080890451556091938230000013483440654263703178_);}
	.st292{clip-path:url(#SVGID_00000021084857043295510740000002502477706343145859_);}
	.st293{clip-path:url(#SVGID_00000174566485263950104890000008316483640965752477_);}
	.st294{clip-path:url(#SVGID_00000052082470340453509770000012339395838065556650_);}
	.st295{clip-path:url(#SVGID_00000173149413969593879940000000739610489011692218_);}
	.st296{clip-path:url(#SVGID_00000007417630126781730310000015354179366059821213_);}
	.st297{clip-path:url(#SVGID_00000124844490940833578210000003554412004602014084_);}
	.st298{clip-path:url(#SVGID_00000032647201207621258710000002749874987219825599_);}
	.st299{clip-path:url(#SVGID_00000106861245871554523230000015673797648439916683_);}
	.st300{clip-path:url(#SVGID_00000022526964574030259160000005665233549451710907_);}
	.st301{clip-path:url(#SVGID_00000106126654213706606330000006435967395813473953_);}
	.st302{clip-path:url(#SVGID_00000103987835769171109500000013588802386121100470_);}
	.st303{clip-path:url(#SVGID_00000095313237406925888030000016113127298313992871_);}
	.st304{clip-path:url(#SVGID_00000140002892336771219990000013345471100061083020_);}
	.st305{clip-path:url(#SVGID_00000163051599654456380650000016869571532407306383_);}
	.st306{clip-path:url(#SVGID_00000115512604689865699230000006640061010108101285_);}
	.st307{clip-path:url(#SVGID_00000089550761376663573320000009086840868121609380_);}
	.st308{clip-path:url(#SVGID_00000166668307647266982210000003145417952981931180_);}
	.st309{clip-path:url(#SVGID_00000181769406304490566540000012689545193821552301_);}
	.st310{clip-path:url(#SVGID_00000016773259138296932910000005926032020879699359_);}
	.st311{clip-path:url(#SVGID_00000070110911575904380200000009204001566315498415_);}
	.st312{clip-path:url(#SVGID_00000079471623200146988720000017476551313133367722_);}
	.st313{clip-path:url(#SVGID_00000043434307960996028560000010218578348936388770_);}
	.st314{clip-path:url(#SVGID_00000113333638283755128010000016726116807315112066_);}
	.st315{clip-path:url(#SVGID_00000079452595164116627460000003274944316536534400_);}
	.st316{clip-path:url(#SVGID_00000074437005522565871690000016873509179557802374_);}
	.st317{clip-path:url(#SVGID_00000100370500190354060620000000507844392729776024_);}
	.st318{clip-path:url(#SVGID_00000009582728904160757700000017611298064350102714_);}
	.st319{clip-path:url(#SVGID_00000112632203965760152230000002899674640256724636_);}
	.st320{clip-path:url(#SVGID_00000125566767711924814120000012595180943147285663_);}
	.st321{clip-path:url(#SVGID_00000151516085129051972730000005586395540267204791_);}
	.st322{clip-path:url(#SVGID_00000139995762236836213990000009923350530251098271_);}
	.st323{clip-path:url(#SVGID_00000084500786797610775020000004902034916136921252_);}
	.st324{clip-path:url(#SVGID_00000113326598721689824600000010812578968860222616_);}
	.st325{clip-path:url(#SVGID_00000105420125024569050240000013522789893507434651_);}
	.st326{clip-path:url(#SVGID_00000010271786724410218460000018120919919893486217_);}
	.st327{clip-path:url(#SVGID_00000107587171636591236250000008972456850748302253_);}
	.st328{clip-path:url(#SVGID_00000160901909573669730670000000394861475588800674_);}
	.st329{clip-path:url(#SVGID_00000142175211235608108730000007193123117296270767_);}
	.st330{clip-path:url(#SVGID_00000125566083042441258150000010769772954030151608_);}
	.st331{clip-path:url(#SVGID_00000131367175792781935990000011888026601059659139_);}
	.st332{clip-path:url(#SVGID_00000032624973043210225740000010150162804608618645_);}
	.st333{clip-path:url(#SVGID_00000016040818133478956850000007707230467776600196_);}
	.st334{clip-path:url(#SVGID_00000120516991275860677950000004792898883406864797_);}
	.st335{clip-path:url(#SVGID_00000085219245401197101040000006906500571799858819_);}
	.st336{clip-path:url(#SVGID_00000060744457706066744320000016182577278895335552_);}
	.st337{clip-path:url(#SVGID_00000137823964081301678280000011138463471441444762_);}
	.st338{clip-path:url(#SVGID_00000103968017469661176960000004731146065540272810_);}
	.st339{clip-path:url(#SVGID_00000054961984810999627860000007332084541015943852_);}
	.st340{clip-path:url(#SVGID_00000139260802892099309770000002901177662804324793_);}
	.st341{clip-path:url(#SVGID_00000085928726126692402210000008135296402266337454_);}
	.st342{clip-path:url(#SVGID_00000095338495903833016690000001679491215025566902_);}
	.st343{clip-path:url(#SVGID_00000130626698446729588030000006483808490231571902_);}
	.st344{clip-path:url(#SVGID_00000077321680677433277280000012048024562327356053_);}
	.st345{clip-path:url(#SVGID_00000175305734501987149220000009508658640778947470_);}
	.st346{clip-path:url(#SVGID_00000118380470954190065400000007648274734408917158_);}
	.st347{clip-path:url(#SVGID_00000110455055581375165550000003060197099927991952_);}
	.st348{clip-path:url(#SVGID_00000041997620151104696090000001090335907131391630_);}
	.st349{clip-path:url(#SVGID_00000165196587567178778560000014174743098925618597_);}
	.st350{clip-path:url(#SVGID_00000028318415822864162410000015004107267386941087_);}
	.st351{clip-path:url(#SVGID_00000119826666307100424290000004837092168984111774_);}
	.st352{clip-path:url(#SVGID_00000141427305704593623300000016896461468018792321_);}
	.st353{clip-path:url(#SVGID_00000091706355862533773390000000023745077270190768_);}
	.st354{clip-path:url(#SVGID_00000146481540140332909040000002611153377289350326_);}
	.st355{clip-path:url(#SVGID_00000075153072511344981040000013845562813837746852_);}
	.st356{clip-path:url(#SVGID_00000183967179348177491690000016248649595587383428_);}
	.st357{clip-path:url(#SVGID_00000009588022290702861110000013297347938878383240_);}
	.st358{clip-path:url(#SVGID_00000089557134982151442030000014207461661618103205_);}
	.st359{clip-path:url(#SVGID_00000132082102307067493380000015730529710959278266_);}
	.st360{clip-path:url(#SVGID_00000045618966982459120280000011426284184892489397_);}
	.st361{clip-path:url(#SVGID_00000039133437751874221060000012639989418626521746_);}
	.st362{clip-path:url(#SVGID_00000018237150524221172650000006740204241158061482_);}
	.st363{clip-path:url(#SVGID_00000075151754439124488690000011892404159320189096_);}
	.st364{clip-path:url(#SVGID_00000165926144456819015330000011319747873231794096_);}
	.st365{clip-path:url(#SVGID_00000083803719447169799020000005944325718659944344_);}
	.st366{clip-path:url(#SVGID_00000040553865271851058710000017745694997952992672_);}
	.st367{clip-path:url(#SVGID_00000050651451101330712340000008894602139001229466_);}
	.st368{clip-path:url(#SVGID_00000111901532452692440710000013439485971714516642_);}
	.st369{clip-path:url(#SVGID_00000026133289714638369840000003041602362797863046_);}
	.st370{clip-path:url(#SVGID_00000163767237949350143790000017603201042999176376_);}
	.st371{clip-path:url(#SVGID_00000148643207573865860090000016808970039587883665_);}
	.st372{clip-path:url(#SVGID_00000063624985660000042800000006652353872241474452_);}
	.st373{clip-path:url(#SVGID_00000176736022587231117130000009338739534024269495_);}
	.st374{clip-path:url(#SVGID_00000016076224961388557470000006098177863577199513_);}
	.st375{clip-path:url(#SVGID_00000075161021579988553350000003637463272674846886_);}
</style>
<g>
	<g>
		<rect x="2.85" y="135.31" class="st0" width="48.54" height="795.77"/>
	</g>
	<g>
		<rect x="1.26" y="2.16" class="st1" width="997.9" height="134.44"/>
	</g>
	<g>
		<defs>
			<rect id="SVGID_00000000219171513208496350000009357243758561379774_" y="0" width="1000" height="935.58"/>
		</defs>
		<clipPath id="SVGID_00000075858109495298647180000007598683087444929168_">
			<use xlink:href="#SVGID_00000000219171513208496350000009357243758561379774_"  style="overflow:visible;"/>
		</clipPath>
		<g style="clip-path:url(#SVGID_00000075858109495298647180000007598683087444929168_);">
			<path class="st3" d="M997.19,935.58H1.69c-0.93,0-1.68-0.75-1.68-1.68V1.68C0,0.75,0.75,0,1.69,0h995.51
				c0.93,0,1.68,0.75,1.68,1.68v932.21C998.88,934.82,998.13,935.58,997.19,935.58z M3.37,932.21h992.14V3.37H3.37V932.21z"/>
		</g>
		<g style="clip-path:url(#SVGID_00000075858109495298647180000007598683087444929168_);">
			<rect x="2.06" y="133.63" class="st3" width="997.94" height="3.37"/>
		</g>
		<g style="clip-path:url(#SVGID_00000075858109495298647180000007598683087444929168_);">
			<path class="st4" d="M825.85,68.02h-14.46c0.07-1.69,0.29-2.71,0.88-4.1c1.02-2.27,3.14-3.95,6.36-3.95
				c3.21,0,5.33,1.68,6.36,3.95C825.55,65.31,825.77,66.33,825.85,68.02 M835.2,74.51v-4.23c0-10.45-5.99-18.18-16.58-18.18
				c-9.86,0-16.58,7-16.58,19.43c0,15.41,8.61,19.5,17.6,19.5c6.87,0,10.59-2.12,14.46-5.98l-5.77-5.62
				c-2.41,2.41-4.46,3.58-8.62,3.58c-5.33,0-8.33-3.58-8.33-8.48H835.2z M796.33,60.85v-7.22h-7.01v-4.17c0-2.2,1.02-3.44,3.29-3.44
				h3.73v-8.02h-5.41c-7.74,0-11.1,5.47-11.1,10.88v4.75h-3.94v7.22h3.94v29.73h9.49V60.85H796.33z M766.68,38.29h-9.7v7.73h9.7
				V38.29z M766.6,52.53h-9.49v38.05h9.49V52.53z M737.53,68.02h-14.46c0.07-1.69,0.29-2.71,0.88-4.1c1.02-2.27,3.14-3.95,6.36-3.95
				c3.21,0,5.33,1.68,6.36,3.95C737.24,65.31,737.46,66.33,737.53,68.02 M746.88,74.51v-4.23c0-10.45-5.99-18.18-16.58-18.18
				c-9.86,0-16.58,7-16.58,19.43c0,15.41,8.61,19.5,17.6,19.5c6.87,0,10.59-2.12,14.46-5.98l-5.77-5.62
				c-2.41,2.41-4.46,3.58-8.62,3.58c-5.33,0-8.33-3.58-8.33-8.48H746.88z M711.01,55.66c-2.63-2.63-5.26-3.57-8.98-3.57
				c-4.09,0-7.74,1.89-9.57,4.09v-3.65h-9.27v38.05h9.49V67.64c0-4.82,3.21-7.01,6.14-7.01c2.34,0,3.58,0.8,5.04,2.26L711.01,55.66z
				 M674.12,90.58v-8.02h-3.65c-2.41,0-3.36-1.17-3.36-3.43V38.58h-9.48V79.7c0,5.4,3.28,10.87,11.09,10.87H674.12z M645.86,90.58
				V52.53h-9.48v23.01c0,5.19-3.37,6.94-6.36,6.94c-3,0-6.29-1.75-6.29-6.94V52.53h-9.48v24.32c0,4.16,0.8,7.74,3.87,10.81
				c2.12,2.11,5.18,3.35,8.98,3.35c3.51,0,7.02-1.31,9.51-3.94v3.5H645.86z M602.98,90.58V65.96c0-8.03-4.38-13.87-12.7-13.87
				c-3.36,0-6.57,1.31-9.14,3.94V38.58h-9.49v52h9.49V67.35c0-4.97,3.15-6.72,6.14-6.72c2.99,0,6.21,1.68,6.21,6.72v23.23H602.98z
				 M562.8,85.83l-6.43-6.36c-1.97,2.12-3.65,3-6.14,3c-2.26,0-4.02-0.8-5.41-2.49c-1.46-1.83-2.12-4.46-2.12-8.47
				s0.66-6.58,2.12-8.41c1.39-1.68,3.14-2.48,5.41-2.48c2.48,0,4.16,0.88,6.14,2.99l6.43-6.42c-3.36-3.51-7.3-5.11-12.56-5.11
				c-7.6,0-17.01,4.01-17.01,19.43s9.41,19.5,17.01,19.5C555.49,91.01,559.44,89.33,562.8,85.83 M525.7,78.6
				c0-6.43-3.8-10.45-11.32-11.18l-5.99-0.59c-3.36-0.29-3.94-1.9-3.94-3.29c0-1.9,1.61-3.65,5.41-3.65c3.29,0,6.65,0.58,8.84,2.56
				l5.84-5.91c-3.65-3.43-8.62-4.45-14.54-4.45c-7.74,0-14.68,4.23-14.68,12.11c0,7.02,4.24,10.01,11.1,10.67l5.99,0.58
				c2.99,0.29,4.02,1.61,4.02,3.51c0,2.85-3.43,3.95-6.72,3.95c-2.92,0-7.01-0.44-10.15-3.58l-6.21,6.21
				c4.82,4.82,10.23,5.47,16.22,5.47C518.54,91.01,525.7,87,525.7,78.6 M485.37,90.58V65.96c0-8.03-4.38-13.87-12.7-13.87
				c-3.37,0-6.58,1.31-9.14,3.94V38.58h-9.49v52h9.49V67.35c0-4.97,3.14-6.72,6.14-6.72c3,0,6.21,1.68,6.21,6.72v23.23H485.37z
				 M445.2,85.83l-6.43-6.36c-1.97,2.12-3.65,3-6.14,3c-2.26,0-4.02-0.8-5.41-2.49c-1.46-1.83-2.12-4.46-2.12-8.47
				s0.66-6.58,2.12-8.41c1.39-1.68,3.14-2.48,5.41-2.48c2.48,0,4.16,0.88,6.14,2.99l6.43-6.42c-3.36-3.51-7.3-5.11-12.56-5.11
				c-7.6,0-17.01,4.01-17.01,19.43s9.42,19.5,17.01,19.5C437.89,91.01,441.84,89.33,445.2,85.83 M397.5,71.52
				c0,3.94-0.22,7.3-2.19,9.28c-1.1,1.1-2.56,1.69-4.46,1.69c-1.9,0-3.29-0.58-4.38-1.69c-1.97-1.97-2.19-5.33-2.19-9.28
				s0.22-7.24,2.19-9.21c1.1-1.1,2.48-1.68,4.38-1.68c1.9,0,3.37,0.58,4.46,1.68C397.28,64.28,397.5,67.57,397.5,71.52
				 M406.99,71.52c0-6.87-0.88-11.18-4.31-14.76c-2.33-2.48-6.2-4.67-11.83-4.67c-5.62,0-9.42,2.19-11.76,4.67
				c-3.43,3.57-4.3,7.88-4.3,14.76c0,6.94,0.88,11.26,4.3,14.83c2.34,2.48,6.14,4.67,11.76,4.67c5.63,0,9.5-2.19,11.83-4.67
				C406.12,82.77,406.99,78.46,406.99,71.52 M364.7,90.58V65.96c0-8.03-4.38-13.87-12.7-13.87c-3.36,0-6.58,1.31-9.14,3.94V38.58
				h-9.49v52h9.49V67.35c0-4.97,3.14-6.72,6.14-6.72c2.99,0,6.21,1.68,6.21,6.72v23.23H364.7z M321.67,90.58V65.96
				c0-8.03-4.38-13.87-12.7-13.87c-3.36,0-6.58,1.31-9.14,3.94V38.58h-9.49v52h9.49V67.35c0-4.97,3.14-6.72,6.14-6.72
				c2.99,0,6.21,1.68,6.21,6.72v23.23H321.67z M281.5,85.83l-6.43-6.36c-1.97,2.12-3.65,3-6.14,3c-2.26,0-4.02-0.8-5.41-2.49
				c-1.46-1.83-2.12-4.46-2.12-8.47s0.66-6.58,2.12-8.41c1.39-1.68,3.14-2.48,5.41-2.48c2.48,0,4.16,0.88,6.14,2.99l6.43-6.42
				c-3.36-3.51-7.3-5.11-12.56-5.11c-7.6,0-17.01,4.01-17.01,19.43s9.41,19.5,17.01,19.5C274.19,91.01,278.14,89.33,281.5,85.83
				 M232.64,76.55c0,2.34-0.37,3.88-1.39,4.83c-1.69,1.61-3.37,1.83-6,1.83c-3.73,0-5.48-1.76-5.48-4.39c0-2.71,1.9-4.32,5.34-4.32
				h7.53V76.55z M242.12,90.58V65.53c0-8.91-5.55-13.44-16.21-13.44c-6.36,0-10.01,1.16-13.73,5.25l6.06,5.92
				c1.97-2.27,3.65-3.15,7.31-3.15c5.04,0,7.09,1.83,7.09,6v1.9h-8.99c-8.84,0-13,4.96-13,11.02c0,3.36,1.1,6.43,3.14,8.55
				c2.26,2.26,5.4,3.35,9.72,3.35c4.38,0,6.79-1.1,9.36-3.65v3.28H242.12z M206.18,47.62v-9.05h-34.25v52h10.14V69.47h20.53v-9.05
				h-20.53V47.62H206.18z"/>
		</g>
		<g style="clip-path:url(#SVGID_00000075858109495298647180000007598683087444929168_);">
			<rect x="3.09" y="464.7" class="st3" width="992.7" height="3.37"/>
		</g>
		<g style="clip-path:url(#SVGID_00000075858109495298647180000007598683087444929168_);">
			<rect x="3.09" y="347.82" class="st3" width="992.7" height="3.37"/>
		</g>
		<g style="clip-path:url(#SVGID_00000075858109495298647180000007598683087444929168_);">
			<rect x="3.09" y="236.56" class="st3" width="992.7" height="3.37"/>
		</g>
		<g style="clip-path:url(#SVGID_00000075858109495298647180000007598683087444929168_);">
			<rect x="3.09" y="578.76" class="st3" width="992.7" height="3.37"/>
		</g>
		<g style="clip-path:url(#SVGID_00000075858109495298647180000007598683087444929168_);">
			<rect x="3.09" y="701.26" class="st3" width="992.7" height="3.37"/>
		</g>
		<g style="clip-path:url(#SVGID_00000075858109495298647180000007598683087444929168_);">
			<rect x="3.09" y="818.14" class="st3" width="992.7" height="3.37"/>
		</g>
		<g style="clip-path:url(#SVGID_00000075858109495298647180000007598683087444929168_);">
			<path class="st3" d="M720.97,777.01c0,4.06-2.4,6.62-5.82,6.62c-3.42,0-5.77-2.57-5.77-6.62c0-4.11,2.35-6.57,5.77-6.57
				C718.78,770.44,720.97,773.27,720.97,777.01 M726.41,776.9c0-6.68-4.48-10.99-9.98-10.99c-1.17,0-2.35,0.16-3.37,0.58l8.17-16.33
				h-5.82l-8.65,17.62c-1.65,3.3-2.83,6.24-2.83,9.34c0,7.05,4.69,11.37,11.26,11.37C721.77,788.48,726.41,783.9,726.41,776.9
				 M678.8,772.42h-12.17c0.05-1.66,0.16-2.46,0.69-3.69c0.85-2.03,2.83-3.42,5.39-3.42c2.56,0,4.48,1.39,5.34,3.42
				C678.58,769.96,678.74,770.76,678.8,772.42 M684.18,776.2v-2.4c0-7.69-4.21-13.02-11.47-13.02c-6.94,0-11.47,5.06-11.47,13.82
				c0,10.3,5.39,13.87,12.17,13.87c4.75,0,7.37-1.44,10.14-4.21l-3.47-3.26c-1.92,1.92-3.52,2.78-6.57,2.78
				c-4.43,0-6.88-2.94-6.88-7.59H684.18z M655.47,779.89c0-4.8-2.99-7.21-8.06-7.64l-4.27-0.37c-2.88-0.27-3.74-1.49-3.74-3.1
				c0-2.03,1.66-3.47,4.91-3.47c2.56,0,4.97,0.53,6.68,1.98l3.42-3.47c-2.51-2.19-5.98-3.03-10.04-3.03c-5.66,0-10.2,2.98-10.2,8.27
				c0,4.75,2.94,7.05,8.01,7.48l4.33,0.37c2.61,0.21,3.63,1.39,3.63,3.2c0,2.57-2.62,3.74-5.93,3.74c-2.67,0-5.6-0.59-7.79-2.83
				l-3.57,3.58c3.2,3.14,6.94,3.89,11.37,3.89C650.67,788.48,655.47,785.55,655.47,779.89 M628.62,779.89c0-4.8-2.99-7.21-8.06-7.64
				l-4.27-0.37c-2.88-0.27-3.74-1.49-3.74-3.1c0-2.03,1.65-3.47,4.91-3.47c2.56,0,4.96,0.53,6.67,1.98l3.42-3.47
				c-2.51-2.19-5.98-3.03-10.04-3.03c-5.66,0-10.19,2.98-10.19,8.27c0,4.75,2.93,7.05,8.01,7.48l4.32,0.37
				c2.62,0.21,3.63,1.39,3.63,3.2c0,2.57-2.61,3.74-5.92,3.74c-2.67,0-5.61-0.59-7.79-2.83l-3.58,3.58
				c3.2,3.14,6.94,3.89,11.37,3.89C623.81,788.48,628.62,785.55,628.62,779.89 M594.25,778.4c0,1.92-0.37,3.2-1.17,4.01
				c-1.44,1.39-2.99,1.55-5.07,1.55c-3.42,0-4.97-1.39-4.97-3.85c0-2.46,1.66-3.9,4.86-3.9h6.36V778.4z M599.68,788.16v-18.09
				c0-6.14-3.73-9.28-11.15-9.28c-4.49,0-7.15,0.9-9.72,3.89l3.57,3.37c1.49-1.92,2.94-2.62,5.93-2.62c4.22,0,5.93,1.66,5.93,5.07
				v1.93h-7.16c-6.19,0-9.33,3.25-9.33,7.79c0,2.3,0.74,4.38,2.13,5.82c1.65,1.65,3.89,2.45,7.26,2.45s5.23-0.8,7.21-2.77v2.45
				H599.68z M573.26,788.16v-4.64h-2.4c-2.19,0-2.94-1.07-2.94-3.15v-30.21h-5.43v30.53c0,4,2.24,7.47,7.41,7.47H573.26z
				 M555.06,776.79h-5.82c-0.91,3.85-3.52,6.52-7.74,6.52c-2.24,0-4.27-0.85-5.6-2.3c-1.87-2.03-2.3-4.22-2.3-11.85
				c0-7.64,0.43-9.83,2.3-11.86c1.33-1.44,3.36-2.29,5.6-2.29c4.22,0,6.78,2.67,7.69,6.51h5.87c-1.33-7.58-6.56-11.69-13.56-11.69
				c-3.95,0-7.37,1.44-9.98,4.05c-3.73,3.74-3.68,7.96-3.68,15.27c0,7.31-0.05,11.53,3.68,15.27c2.61,2.61,6.03,4.05,9.98,4.05
				C548.39,788.48,553.78,784.37,555.06,776.79 M510.54,746.21h-5.23l-15.22,45.9h5.23L510.54,746.21z M467.79,777.01
				c0,4.06-2.4,6.62-5.82,6.62s-5.77-2.57-5.77-6.62c0-4.11,2.35-6.57,5.77-6.57C465.6,770.44,467.79,773.27,467.79,777.01
				 M473.23,776.9c0-6.68-4.48-10.99-9.98-10.99c-1.17,0-2.35,0.16-3.37,0.58l8.18-16.33h-5.82l-8.65,17.62
				c-1.66,3.3-2.83,6.24-2.83,9.34c0,7.05,4.69,11.37,11.26,11.37C468.59,788.48,473.23,783.9,473.23,776.9 M425.61,772.42h-12.17
				c0.06-1.66,0.16-2.46,0.7-3.69c0.85-2.03,2.83-3.42,5.39-3.42c2.56,0,4.48,1.39,5.34,3.42
				C425.4,769.96,425.56,770.76,425.61,772.42 M431.01,776.2v-2.4c0-7.69-4.22-13.02-11.48-13.02c-6.94,0-11.47,5.06-11.47,13.82
				c0,10.3,5.38,13.87,12.17,13.87c4.75,0,7.37-1.44,10.14-4.21l-3.47-3.26c-1.92,1.92-3.52,2.78-6.56,2.78
				c-4.43,0-6.89-2.94-6.89-7.59H431.01z M402.29,779.89c0-4.8-2.99-7.21-8.06-7.64l-4.27-0.37c-2.88-0.27-3.74-1.49-3.74-3.1
				c0-2.03,1.65-3.47,4.91-3.47c2.56,0,4.96,0.53,6.67,1.98l3.42-3.47c-2.51-2.19-5.98-3.03-10.04-3.03
				c-5.66,0-10.19,2.98-10.19,8.27c0,4.75,2.93,7.05,8.01,7.48l4.32,0.37c2.62,0.21,3.63,1.39,3.63,3.2c0,2.57-2.61,3.74-5.92,3.74
				c-2.67,0-5.61-0.59-7.79-2.83l-3.58,3.58c3.2,3.14,6.94,3.89,11.37,3.89C397.48,788.48,402.29,785.55,402.29,779.89
				 M375.44,779.89c0-4.8-2.99-7.21-8.06-7.64l-4.27-0.37c-2.88-0.27-3.74-1.49-3.74-3.1c0-2.03,1.66-3.47,4.91-3.47
				c2.56,0,4.97,0.53,6.68,1.98l3.42-3.47c-2.51-2.19-5.98-3.03-10.04-3.03c-5.66,0-10.2,2.98-10.2,8.27c0,4.75,2.94,7.05,8.01,7.48
				l4.33,0.37c2.61,0.21,3.63,1.39,3.63,3.2c0,2.57-2.62,3.74-5.93,3.74c-2.67,0-5.6-0.59-7.79-2.83l-3.57,3.58
				c3.2,3.14,6.94,3.89,11.37,3.89C370.63,788.48,375.44,785.55,375.44,779.89 M341.06,778.4c0,1.92-0.37,3.2-1.17,4.01
				c-1.44,1.39-2.99,1.55-5.07,1.55c-3.42,0-4.97-1.39-4.97-3.85c0-2.46,1.66-3.9,4.86-3.9h6.36V778.4z M346.5,788.16v-18.09
				c0-6.14-3.73-9.28-11.15-9.28c-4.48,0-7.15,0.9-9.71,3.89l3.57,3.37c1.49-1.92,2.94-2.62,5.93-2.62c4.22,0,5.93,1.66,5.93,5.07
				v1.93h-7.15c-6.19,0-9.34,3.25-9.34,7.79c0,2.3,0.75,4.38,2.14,5.82c1.65,1.65,3.89,2.45,7.25,2.45c3.37,0,5.24-0.8,7.21-2.77
				v2.45H346.5z M320.08,788.16v-4.64h-2.4c-2.19,0-2.93-1.07-2.93-3.15v-30.21h-5.44v30.53c0,4,2.24,7.47,7.41,7.47H320.08z
				 M304.06,788.16l-13.62-23.11l12.33-14.89h-7.05l-15.54,19.11v-19.11h-5.75v38h5.75v-11.05l6.41-7.69l10.68,18.73H304.06z"/>
		</g>
		<g style="clip-path:url(#SVGID_00000075858109495298647180000007598683087444929168_);">
			<path class="st3" d="M726.95,632.52v-4.85h-22.63v10.83h5.23v-5.98h11.59l-12.76,33.15h5.87L726.95,632.52z M678.8,649.93h-12.17
				c0.05-1.66,0.16-2.46,0.69-3.69c0.85-2.03,2.83-3.42,5.39-3.42c2.56,0,4.48,1.39,5.34,3.42
				C678.58,647.46,678.74,648.27,678.8,649.93 M684.18,653.71v-2.4c0-7.69-4.21-13.02-11.47-13.02c-6.94,0-11.47,5.06-11.47,13.82
				c0,10.3,5.39,13.87,12.17,13.87c4.75,0,7.37-1.44,10.14-4.21l-3.47-3.26c-1.92,1.92-3.52,2.78-6.57,2.78
				c-4.43,0-6.88-2.94-6.88-7.59H684.18z M655.47,657.39c0-4.8-2.99-7.21-8.06-7.64l-4.27-0.37c-2.88-0.27-3.74-1.49-3.74-3.1
				c0-2.03,1.66-3.47,4.91-3.47c2.56,0,4.97,0.53,6.68,1.98l3.42-3.47c-2.51-2.19-5.98-3.03-10.04-3.03c-5.66,0-10.2,2.98-10.2,8.27
				c0,4.75,2.94,7.05,8.01,7.48l4.33,0.37c2.61,0.21,3.63,1.39,3.63,3.2c0,2.57-2.62,3.74-5.93,3.74c-2.67,0-5.6-0.59-7.79-2.83
				l-3.57,3.58c3.2,3.14,6.94,3.89,11.37,3.89C650.67,665.99,655.47,663.05,655.47,657.39 M628.62,657.39c0-4.8-2.99-7.21-8.06-7.64
				l-4.27-0.37c-2.88-0.27-3.74-1.49-3.74-3.1c0-2.03,1.65-3.47,4.91-3.47c2.56,0,4.96,0.53,6.67,1.98l3.42-3.47
				c-2.51-2.19-5.98-3.03-10.04-3.03c-5.66,0-10.19,2.98-10.19,8.27c0,4.75,2.93,7.05,8.01,7.48l4.32,0.37
				c2.62,0.21,3.63,1.39,3.63,3.2c0,2.57-2.61,3.74-5.92,3.74c-2.67,0-5.61-0.59-7.79-2.83l-3.58,3.58
				c3.2,3.14,6.94,3.89,11.37,3.89C623.81,665.99,628.62,663.05,628.62,657.39 M594.25,655.9c0,1.92-0.37,3.2-1.17,4.01
				c-1.44,1.39-2.99,1.55-5.07,1.55c-3.42,0-4.97-1.39-4.97-3.85c0-2.46,1.66-3.9,4.86-3.9h6.36V655.9z M599.68,665.67v-18.09
				c0-6.14-3.73-9.28-11.15-9.28c-4.49,0-7.15,0.9-9.72,3.89l3.57,3.37c1.49-1.92,2.94-2.62,5.93-2.62c4.22,0,5.93,1.66,5.93,5.07
				v1.93h-7.16c-6.19,0-9.33,3.25-9.33,7.79c0,2.3,0.74,4.38,2.13,5.82c1.65,1.65,3.89,2.45,7.26,2.45s5.23-0.8,7.21-2.77v2.45
				H599.68z M573.26,665.67v-4.64h-2.4c-2.19,0-2.94-1.07-2.94-3.15v-30.21h-5.43v30.53c0,4,2.24,7.47,7.41,7.47H573.26z
				 M555.06,654.3h-5.82c-0.91,3.85-3.52,6.52-7.74,6.52c-2.24,0-4.27-0.85-5.6-2.3c-1.87-2.03-2.3-4.22-2.3-11.85
				c0-7.64,0.43-9.83,2.3-11.86c1.33-1.44,3.36-2.29,5.6-2.29c4.22,0,6.78,2.67,7.69,6.51h5.87c-1.33-7.58-6.56-11.69-13.56-11.69
				c-3.95,0-7.37,1.44-9.98,4.05c-3.73,3.74-3.68,7.96-3.68,15.27c0,7.31-0.05,11.53,3.68,15.27c2.61,2.61,6.03,4.05,9.98,4.05
				C548.39,665.99,553.78,661.88,555.06,654.3 M510.54,623.71h-5.23l-15.22,45.9h5.23L510.54,623.71z M473.77,632.52v-4.85h-22.63
				v10.83h5.23v-5.98h11.58l-12.76,33.15h5.87L473.77,632.52z M425.61,649.93h-12.17c0.06-1.66,0.16-2.46,0.7-3.69
				c0.85-2.03,2.83-3.42,5.39-3.42c2.56,0,4.48,1.39,5.34,3.42C425.4,647.46,425.56,648.27,425.61,649.93 M431.01,653.71v-2.4
				c0-7.69-4.22-13.02-11.48-13.02c-6.94,0-11.47,5.06-11.47,13.82c0,10.3,5.38,13.87,12.17,13.87c4.75,0,7.37-1.44,10.14-4.21
				l-3.47-3.26c-1.92,1.92-3.52,2.78-6.56,2.78c-4.43,0-6.89-2.94-6.89-7.59H431.01z M402.29,657.39c0-4.8-2.99-7.21-8.06-7.64
				l-4.27-0.37c-2.88-0.27-3.74-1.49-3.74-3.1c0-2.03,1.65-3.47,4.91-3.47c2.56,0,4.96,0.53,6.67,1.98l3.42-3.47
				c-2.51-2.19-5.98-3.03-10.04-3.03c-5.66,0-10.19,2.98-10.19,8.27c0,4.75,2.93,7.05,8.01,7.48l4.32,0.37
				c2.62,0.21,3.63,1.39,3.63,3.2c0,2.57-2.61,3.74-5.92,3.74c-2.67,0-5.61-0.59-7.79-2.83l-3.58,3.58
				c3.2,3.14,6.94,3.89,11.37,3.89C397.48,665.99,402.29,663.05,402.29,657.39 M375.44,657.39c0-4.8-2.99-7.21-8.06-7.64l-4.27-0.37
				c-2.88-0.27-3.74-1.49-3.74-3.1c0-2.03,1.66-3.47,4.91-3.47c2.56,0,4.97,0.53,6.68,1.98l3.42-3.47
				c-2.51-2.19-5.98-3.03-10.04-3.03c-5.66,0-10.2,2.98-10.2,8.27c0,4.75,2.94,7.05,8.01,7.48l4.33,0.37
				c2.61,0.21,3.63,1.39,3.63,3.2c0,2.57-2.62,3.74-5.93,3.74c-2.67,0-5.6-0.59-7.79-2.83l-3.57,3.58c3.2,3.14,6.94,3.89,11.37,3.89
				C370.63,665.99,375.44,663.05,375.44,657.39 M341.06,655.9c0,1.92-0.37,3.2-1.17,4.01c-1.44,1.39-2.99,1.55-5.07,1.55
				c-3.42,0-4.97-1.39-4.97-3.85c0-2.46,1.66-3.9,4.86-3.9h6.36V655.9z M346.5,665.67v-18.09c0-6.14-3.73-9.28-11.15-9.28
				c-4.48,0-7.15,0.9-9.71,3.89l3.57,3.37c1.49-1.92,2.94-2.62,5.93-2.62c4.22,0,5.93,1.66,5.93,5.07v1.93h-7.15
				c-6.19,0-9.34,3.25-9.34,7.79c0,2.3,0.75,4.38,2.14,5.82c1.65,1.65,3.89,2.45,7.25,2.45c3.37,0,5.24-0.8,7.21-2.77v2.45H346.5z
				 M320.08,665.67v-4.64h-2.4c-2.19,0-2.93-1.07-2.93-3.15v-30.21h-5.44v30.53c0,4,2.24,7.47,7.41,7.47H320.08z M304.06,665.67
				l-13.62-23.11l12.33-14.89h-7.05l-15.54,19.11v-19.11h-5.75v38h5.75v-11.05l6.41-7.69l10.68,18.73H304.06z"/>
		</g>
		<g style="clip-path:url(#SVGID_00000075858109495298647180000007598683087444929168_);">
			<path class="st3" d="M720.81,521.14c0,3.36-2.35,5.77-5.66,5.77c-3.32,0-5.61-2.41-5.61-5.77c0-3.32,2.29-5.82,5.61-5.82
				C718.46,515.32,720.81,517.83,720.81,521.14 M721.4,537.95c0,3.52-2.73,6.3-6.25,6.3c-3.53,0-6.25-2.78-6.25-6.3
				c0-3.52,2.72-6.36,6.25-6.36C718.67,531.6,721.4,534.43,721.4,537.95 M726.89,538.06c0-4.54-2.56-7.32-5.23-8.91
				c2.46-1.49,4.59-4.16,4.59-8.17c0-6.36-4.91-10.51-11.1-10.51c-6.2,0-11.05,4.16-11.05,10.51c0,4.01,2.13,6.68,4.59,8.17
				c-2.67,1.6-5.23,4.37-5.23,8.91c0,6.89,5.17,11.05,11.69,11.05C721.66,549.11,726.89,544.95,726.89,538.06 M678.8,533.05h-12.17
				c0.05-1.66,0.16-2.46,0.69-3.69c0.85-2.03,2.83-3.42,5.39-3.42c2.56,0,4.48,1.39,5.34,3.42
				C678.58,530.59,678.74,531.39,678.8,533.05 M684.18,536.83v-2.4c0-7.69-4.21-13.02-11.47-13.02c-6.94,0-11.47,5.06-11.47,13.82
				c0,10.3,5.39,13.87,12.17,13.87c4.75,0,7.37-1.44,10.14-4.21l-3.47-3.26c-1.92,1.92-3.52,2.78-6.57,2.78
				c-4.43,0-6.88-2.94-6.88-7.59H684.18z M655.47,540.52c0-4.8-2.99-7.21-8.06-7.64l-4.27-0.37c-2.88-0.27-3.74-1.49-3.74-3.1
				c0-2.03,1.66-3.47,4.91-3.47c2.56,0,4.97,0.53,6.68,1.98l3.42-3.47c-2.51-2.19-5.98-3.03-10.04-3.03c-5.66,0-10.2,2.98-10.2,8.27
				c0,4.75,2.94,7.05,8.01,7.48l4.33,0.37c2.61,0.21,3.63,1.39,3.63,3.2c0,2.57-2.62,3.74-5.93,3.74c-2.67,0-5.6-0.59-7.79-2.83
				l-3.57,3.58c3.2,3.14,6.94,3.89,11.37,3.89C650.67,549.11,655.47,546.18,655.47,540.52 M628.62,540.52c0-4.8-2.99-7.21-8.06-7.64
				l-4.27-0.37c-2.88-0.27-3.74-1.49-3.74-3.1c0-2.03,1.65-3.47,4.91-3.47c2.56,0,4.96,0.53,6.67,1.98l3.42-3.47
				c-2.51-2.19-5.98-3.03-10.04-3.03c-5.66,0-10.19,2.98-10.19,8.27c0,4.75,2.93,7.05,8.01,7.48l4.32,0.37
				c2.62,0.21,3.63,1.39,3.63,3.2c0,2.57-2.61,3.74-5.92,3.74c-2.67,0-5.61-0.59-7.79-2.83l-3.58,3.58
				c3.2,3.14,6.94,3.89,11.37,3.89C623.81,549.11,628.62,546.18,628.62,540.52 M594.25,539.02c0,1.92-0.37,3.2-1.17,4.01
				c-1.44,1.39-2.99,1.55-5.07,1.55c-3.42,0-4.97-1.39-4.97-3.85c0-2.46,1.66-3.9,4.86-3.9h6.36V539.02z M599.68,548.79v-18.09
				c0-6.14-3.73-9.28-11.15-9.28c-4.49,0-7.15,0.9-9.72,3.89l3.57,3.37c1.49-1.92,2.94-2.62,5.93-2.62c4.22,0,5.93,1.66,5.93,5.07
				v1.93h-7.16c-6.19,0-9.33,3.25-9.33,7.79c0,2.3,0.74,4.38,2.13,5.82c1.65,1.65,3.89,2.45,7.26,2.45s5.23-0.8,7.21-2.77v2.45
				H599.68z M573.26,548.79v-4.64h-2.4c-2.19,0-2.94-1.07-2.94-3.15v-30.21h-5.43v30.53c0,4,2.24,7.47,7.41,7.47H573.26z
				 M555.06,537.42h-5.82c-0.91,3.85-3.52,6.52-7.74,6.52c-2.24,0-4.27-0.85-5.6-2.3c-1.87-2.03-2.3-4.22-2.3-11.85
				c0-7.64,0.43-9.83,2.3-11.86c1.33-1.44,3.36-2.29,5.6-2.29c4.22,0,6.78,2.67,7.69,6.51h5.87c-1.33-7.58-6.56-11.69-13.56-11.69
				c-3.95,0-7.37,1.44-9.98,4.05c-3.73,3.74-3.68,7.96-3.68,15.27c0,7.31-0.05,11.53,3.68,15.27c2.61,2.61,6.03,4.05,9.98,4.05
				C548.39,549.11,553.78,545,555.06,537.42 M510.54,506.84h-5.23l-15.22,45.9h5.23L510.54,506.84z M467.63,521.14
				c0,3.36-2.35,5.77-5.66,5.77c-3.31,0-5.61-2.41-5.61-5.77c0-3.32,2.3-5.82,5.61-5.82C465.28,515.32,467.63,517.83,467.63,521.14
				 M468.22,537.95c0,3.52-2.73,6.3-6.25,6.3s-6.25-2.78-6.25-6.3c0-3.52,2.73-6.36,6.25-6.36S468.22,534.43,468.22,537.95
				 M473.7,538.06c0-4.54-2.56-7.32-5.22-8.91c2.45-1.49,4.59-4.16,4.59-8.17c0-6.36-4.91-10.51-11.1-10.51
				c-6.19,0-11.05,4.16-11.05,10.51c0,4.01,2.14,6.68,4.59,8.17c-2.66,1.6-5.23,4.37-5.23,8.91c0,6.89,5.18,11.05,11.69,11.05
				C468.48,549.11,473.7,544.95,473.7,538.06 M425.61,533.05h-12.17c0.06-1.66,0.16-2.46,0.7-3.69c0.85-2.03,2.83-3.42,5.39-3.42
				c2.56,0,4.48,1.39,5.34,3.42C425.4,530.59,425.56,531.39,425.61,533.05 M431.01,536.83v-2.4c0-7.69-4.22-13.02-11.48-13.02
				c-6.94,0-11.47,5.06-11.47,13.82c0,10.3,5.38,13.87,12.17,13.87c4.75,0,7.37-1.44,10.14-4.21l-3.47-3.26
				c-1.92,1.92-3.52,2.78-6.56,2.78c-4.43,0-6.89-2.94-6.89-7.59H431.01z M402.29,540.52c0-4.8-2.99-7.21-8.06-7.64l-4.27-0.37
				c-2.88-0.27-3.74-1.49-3.74-3.1c0-2.03,1.65-3.47,4.91-3.47c2.56,0,4.96,0.53,6.67,1.98l3.42-3.47
				c-2.51-2.19-5.98-3.03-10.04-3.03c-5.66,0-10.19,2.98-10.19,8.27c0,4.75,2.93,7.05,8.01,7.48l4.32,0.37
				c2.62,0.21,3.63,1.39,3.63,3.2c0,2.57-2.61,3.74-5.92,3.74c-2.67,0-5.61-0.59-7.79-2.83l-3.58,3.58
				c3.2,3.14,6.94,3.89,11.37,3.89C397.48,549.11,402.29,546.18,402.29,540.52 M375.44,540.52c0-4.8-2.99-7.21-8.06-7.64l-4.27-0.37
				c-2.88-0.27-3.74-1.49-3.74-3.1c0-2.03,1.66-3.47,4.91-3.47c2.56,0,4.97,0.53,6.68,1.98l3.42-3.47
				c-2.51-2.19-5.98-3.03-10.04-3.03c-5.66,0-10.2,2.98-10.2,8.27c0,4.75,2.94,7.05,8.01,7.48l4.33,0.37
				c2.61,0.21,3.63,1.39,3.63,3.2c0,2.57-2.62,3.74-5.93,3.74c-2.67,0-5.6-0.59-7.79-2.83l-3.57,3.58c3.2,3.14,6.94,3.89,11.37,3.89
				C370.63,549.11,375.44,546.18,375.44,540.52 M341.06,539.02c0,1.92-0.37,3.2-1.17,4.01c-1.44,1.39-2.99,1.55-5.07,1.55
				c-3.42,0-4.97-1.39-4.97-3.85c0-2.46,1.66-3.9,4.86-3.9h6.36V539.02z M346.5,548.79v-18.09c0-6.14-3.73-9.28-11.15-9.28
				c-4.48,0-7.15,0.9-9.71,3.89l3.57,3.37c1.49-1.92,2.94-2.62,5.93-2.62c4.22,0,5.93,1.66,5.93,5.07v1.93h-7.15
				c-6.19,0-9.34,3.25-9.34,7.79c0,2.3,0.75,4.38,2.14,5.82c1.65,1.65,3.89,2.45,7.25,2.45c3.37,0,5.24-0.8,7.21-2.77v2.45H346.5z
				 M320.08,548.79v-4.64h-2.4c-2.19,0-2.93-1.07-2.93-3.15v-30.21h-5.44v30.53c0,4,2.24,7.47,7.41,7.47H320.08z M304.06,548.79
				l-13.62-23.11l12.33-14.89h-7.05L280.2,529.9v-19.11h-5.75v38h5.75v-11.05l6.41-7.69l10.68,18.73H304.06z"/>
		</g>
		<g style="clip-path:url(#SVGID_00000075858109495298647180000007598683087444929168_);">
			<path class="st3" d="M720.97,405.06c0,4.11-2.4,6.57-5.82,6.57c-3.64,0-5.77-2.83-5.77-6.57c0-4.06,2.35-6.62,5.77-6.62
				C718.57,398.44,720.97,401.01,720.97,405.06 M726.41,404.96c0-7.05-4.69-11.37-11.26-11.37s-11.21,4.59-11.21,11.58
				c0,6.68,4.43,11,9.92,11c1.18,0,2.4-0.16,3.42-0.59l-8.17,16.33h5.82l8.65-17.62C725.24,410.99,726.41,408.05,726.41,404.96
				 M678.8,416.17h-12.17c0.05-1.66,0.16-2.46,0.69-3.69c0.85-2.03,2.83-3.42,5.39-3.42c2.56,0,4.48,1.39,5.34,3.42
				C678.58,413.71,678.74,414.51,678.8,416.17 M684.18,419.95v-2.4c0-7.69-4.21-13.02-11.47-13.02c-6.94,0-11.47,5.06-11.47,13.82
				c0,10.3,5.39,13.87,12.17,13.87c4.75,0,7.37-1.44,10.14-4.21l-3.47-3.26c-1.92,1.92-3.52,2.78-6.57,2.78
				c-4.43,0-6.88-2.94-6.88-7.59H684.18z M655.47,423.64c0-4.8-2.99-7.21-8.06-7.64l-4.27-0.37c-2.88-0.27-3.74-1.49-3.74-3.1
				c0-2.03,1.66-3.47,4.91-3.47c2.56,0,4.97,0.53,6.68,1.98l3.42-3.47c-2.51-2.19-5.98-3.03-10.04-3.03c-5.66,0-10.2,2.98-10.2,8.27
				c0,4.75,2.94,7.05,8.01,7.48l4.33,0.37c2.61,0.21,3.63,1.39,3.63,3.2c0,2.57-2.62,3.74-5.93,3.74c-2.67,0-5.6-0.59-7.79-2.83
				l-3.57,3.58c3.2,3.14,6.94,3.89,11.37,3.89C650.67,432.23,655.47,429.3,655.47,423.64 M628.62,423.64c0-4.8-2.99-7.21-8.06-7.64
				l-4.27-0.37c-2.88-0.27-3.74-1.49-3.74-3.1c0-2.03,1.65-3.47,4.91-3.47c2.56,0,4.96,0.53,6.67,1.98l3.42-3.47
				c-2.51-2.19-5.98-3.03-10.04-3.03c-5.66,0-10.19,2.98-10.19,8.27c0,4.75,2.93,7.05,8.01,7.48l4.32,0.37
				c2.62,0.21,3.63,1.39,3.63,3.2c0,2.57-2.61,3.74-5.92,3.74c-2.67,0-5.61-0.59-7.79-2.83l-3.58,3.58
				c3.2,3.14,6.94,3.89,11.37,3.89C623.81,432.23,628.62,429.3,628.62,423.64 M594.25,422.15c0,1.92-0.37,3.2-1.17,4.01
				c-1.44,1.39-2.99,1.55-5.07,1.55c-3.42,0-4.97-1.39-4.97-3.85c0-2.46,1.66-3.9,4.86-3.9h6.36V422.15z M599.68,431.91v-18.09
				c0-6.14-3.73-9.28-11.15-9.28c-4.49,0-7.15,0.9-9.72,3.89l3.57,3.37c1.49-1.92,2.94-2.62,5.93-2.62c4.22,0,5.93,1.66,5.93,5.07
				v1.93h-7.16c-6.19,0-9.33,3.25-9.33,7.79c0,2.3,0.74,4.38,2.13,5.82c1.65,1.65,3.89,2.45,7.26,2.45s5.23-0.8,7.21-2.77v2.45
				H599.68z M573.26,431.91v-4.64h-2.4c-2.19,0-2.94-1.07-2.94-3.15v-30.21h-5.43v30.53c0,4,2.24,7.47,7.41,7.47H573.26z
				 M555.06,420.54h-5.82c-0.91,3.85-3.52,6.52-7.74,6.52c-2.24,0-4.27-0.85-5.6-2.3c-1.87-2.03-2.3-4.22-2.3-11.85
				c0-7.64,0.43-9.83,2.3-11.86c1.33-1.44,3.36-2.29,5.6-2.29c4.22,0,6.78,2.67,7.69,6.51h5.87c-1.33-7.58-6.56-11.69-13.56-11.69
				c-3.95,0-7.37,1.44-9.98,4.05c-3.73,3.74-3.68,7.96-3.68,15.27c0,7.31-0.05,11.53,3.68,15.27c2.61,2.61,6.03,4.05,9.98,4.05
				C548.39,432.23,553.78,428.12,555.06,420.54 M510.54,389.96h-5.23l-15.22,45.9h5.23L510.54,389.96z M467.79,405.06
				c0,4.11-2.4,6.57-5.82,6.57c-3.63,0-5.77-2.83-5.77-6.57c0-4.06,2.35-6.62,5.77-6.62S467.79,401.01,467.79,405.06 M473.23,404.96
				c0-7.05-4.69-11.37-11.26-11.37c-6.57,0-11.2,4.59-11.2,11.58c0,6.68,4.42,11,9.92,11c1.17,0,2.4-0.16,3.42-0.59l-8.17,16.33
				h5.82l8.65-17.62C472.05,410.99,473.23,408.05,473.23,404.96 M425.61,416.17h-12.17c0.06-1.66,0.16-2.46,0.7-3.69
				c0.85-2.03,2.83-3.42,5.39-3.42c2.56,0,4.48,1.39,5.34,3.42C425.4,413.71,425.56,414.51,425.61,416.17 M431.01,419.95v-2.4
				c0-7.69-4.22-13.02-11.48-13.02c-6.94,0-11.47,5.06-11.47,13.82c0,10.3,5.38,13.87,12.17,13.87c4.75,0,7.37-1.44,10.14-4.21
				l-3.47-3.26c-1.92,1.92-3.52,2.78-6.56,2.78c-4.43,0-6.89-2.94-6.89-7.59H431.01z M402.29,423.64c0-4.8-2.99-7.21-8.06-7.64
				l-4.27-0.37c-2.88-0.27-3.74-1.49-3.74-3.1c0-2.03,1.65-3.47,4.91-3.47c2.56,0,4.96,0.53,6.67,1.98l3.42-3.47
				c-2.51-2.19-5.98-3.03-10.04-3.03c-5.66,0-10.19,2.98-10.19,8.27c0,4.75,2.93,7.05,8.01,7.48l4.32,0.37
				c2.62,0.21,3.63,1.39,3.63,3.2c0,2.57-2.61,3.74-5.92,3.74c-2.67,0-5.61-0.59-7.79-2.83l-3.58,3.58
				c3.2,3.14,6.94,3.89,11.37,3.89C397.48,432.23,402.29,429.3,402.29,423.64 M375.44,423.64c0-4.8-2.99-7.21-8.06-7.64l-4.27-0.37
				c-2.88-0.27-3.74-1.49-3.74-3.1c0-2.03,1.66-3.47,4.91-3.47c2.56,0,4.97,0.53,6.68,1.98l3.42-3.47
				c-2.51-2.19-5.98-3.03-10.04-3.03c-5.66,0-10.2,2.98-10.2,8.27c0,4.75,2.94,7.05,8.01,7.48l4.33,0.37
				c2.61,0.21,3.63,1.39,3.63,3.2c0,2.57-2.62,3.74-5.93,3.74c-2.67,0-5.6-0.59-7.79-2.83l-3.57,3.58c3.2,3.14,6.94,3.89,11.37,3.89
				C370.63,432.23,375.44,429.3,375.44,423.64 M341.06,422.15c0,1.92-0.37,3.2-1.17,4.01c-1.44,1.39-2.99,1.55-5.07,1.55
				c-3.42,0-4.97-1.39-4.97-3.85c0-2.46,1.66-3.9,4.86-3.9h6.36V422.15z M346.5,431.91v-18.09c0-6.14-3.73-9.28-11.15-9.28
				c-4.48,0-7.15,0.9-9.71,3.89l3.57,3.37c1.49-1.92,2.94-2.62,5.93-2.62c4.22,0,5.93,1.66,5.93,5.07v1.93h-7.15
				c-6.19,0-9.34,3.25-9.34,7.79c0,2.3,0.75,4.38,2.14,5.82c1.65,1.65,3.89,2.45,7.25,2.45c3.37,0,5.24-0.8,7.21-2.77v2.45H346.5z
				 M320.08,431.91v-4.64h-2.4c-2.19,0-2.93-1.07-2.93-3.15v-30.21h-5.44v30.53c0,4,2.24,7.47,7.41,7.47H320.08z M304.06,431.91
				l-13.62-23.11l12.33-14.89h-7.05l-15.54,19.11v-19.11h-5.75v38h5.75v-11.05l6.41-7.69l10.68,18.73H304.06z"/>
		</g>
		<g style="clip-path:url(#SVGID_00000075858109495298647180000007598683087444929168_);">
			<path class="st3" d="M749.69,304.31c0,3.69-2.08,6.2-5.56,6.2c-3.47,0-5.5-2.51-5.5-6.2v-16.55c0-3.69,2.03-6.19,5.5-6.19
				c3.47,0,5.56,2.51,5.56,6.19V304.31z M755.13,304.47V287.6c0-6.78-4.96-10.88-11-10.88s-10.93,4.11-10.93,10.88v16.87
				c0,6.78,4.9,10.88,10.93,10.88S755.13,311.25,755.13,304.47 M719.9,315.03v-38h-5.44l-7.42,6.41v6.03l7.42-6.51v32.07H719.9z
				 M678.79,299.3h-12.17c0.06-1.66,0.16-2.46,0.7-3.69c0.85-2.03,2.83-3.42,5.39-3.42s4.48,1.39,5.34,3.42
				C678.58,296.83,678.74,297.64,678.79,299.3 M684.19,303.08v-2.4c0-7.69-4.22-13.02-11.48-13.02c-6.94,0-11.47,5.06-11.47,13.82
				c0,10.31,5.38,13.88,12.17,13.88c4.75,0,7.37-1.44,10.14-4.21l-3.47-3.26c-1.92,1.92-3.52,2.78-6.56,2.78
				c-4.43,0-6.89-2.94-6.89-7.59H684.19z M655.47,306.76c0-4.8-2.99-7.21-8.06-7.64l-4.27-0.37c-2.88-0.27-3.74-1.49-3.74-3.1
				c0-2.03,1.65-3.47,4.91-3.47c2.56,0,4.96,0.53,6.67,1.98l3.42-3.47c-2.51-2.19-5.98-3.03-10.04-3.03
				c-5.66,0-10.19,2.98-10.19,8.27c0,4.75,2.93,7.05,8.01,7.48l4.32,0.37c2.62,0.21,3.63,1.39,3.63,3.2c0,2.57-2.61,3.74-5.92,3.74
				c-2.67,0-5.61-0.59-7.79-2.83l-3.58,3.57c3.2,3.15,6.94,3.89,11.37,3.89C650.66,315.35,655.47,312.42,655.47,306.76
				 M628.62,306.76c0-4.8-2.99-7.21-8.06-7.64l-4.27-0.37c-2.88-0.27-3.74-1.49-3.74-3.1c0-2.03,1.66-3.47,4.91-3.47
				c2.56,0,4.97,0.53,6.68,1.98l3.42-3.47c-2.51-2.19-5.98-3.03-10.04-3.03c-5.66,0-10.2,2.98-10.2,8.27c0,4.75,2.94,7.05,8.01,7.48
				l4.33,0.37c2.61,0.21,3.63,1.39,3.63,3.2c0,2.57-2.62,3.74-5.93,3.74c-2.67,0-5.6-0.59-7.79-2.83l-3.57,3.57
				c3.2,3.15,6.94,3.89,11.37,3.89C623.82,315.35,628.62,312.42,628.62,306.76 M594.24,305.27c0,1.92-0.37,3.2-1.17,4.01
				c-1.44,1.39-2.99,1.55-5.07,1.55c-3.42,0-4.97-1.39-4.97-3.85c0-2.46,1.66-3.9,4.86-3.9h6.36V305.27z M599.68,315.03v-18.09
				c0-6.14-3.73-9.28-11.15-9.28c-4.48,0-7.15,0.9-9.71,3.89l3.57,3.37c1.49-1.92,2.94-2.62,5.93-2.62c4.22,0,5.93,1.66,5.93,5.07
				v1.93h-7.15c-6.19,0-9.34,3.25-9.34,7.79c0,2.3,0.75,4.38,2.13,5.82c1.66,1.65,3.89,2.45,7.26,2.45c3.37,0,5.24-0.8,7.21-2.77
				v2.45H599.68z M573.26,315.03v-4.64h-2.4c-2.19,0-2.93-1.07-2.93-3.15v-30.21h-5.44v30.53c0,4,2.24,7.47,7.41,7.47H573.26z
				 M555.06,303.67h-5.82c-0.91,3.85-3.52,6.52-7.74,6.52c-2.24,0-4.27-0.85-5.6-2.3c-1.87-2.03-2.3-4.22-2.3-11.85
				c0-7.64,0.43-9.83,2.3-11.86c1.33-1.44,3.36-2.3,5.6-2.3c4.22,0,6.78,2.67,7.69,6.52h5.87c-1.33-7.58-6.56-11.69-13.56-11.69
				c-3.95,0-7.37,1.44-9.98,4.05c-3.73,3.74-3.67,7.96-3.67,15.27c0,7.31-0.06,11.53,3.67,15.27c2.61,2.61,6.03,4.05,9.98,4.05
				C548.39,315.35,553.77,311.25,555.06,303.67 M510.54,273.08h-5.23l-15.21,45.9h5.23L510.54,273.08z M467.52,304.31
				c0,3.69-2.08,6.2-5.56,6.2c-3.47,0-5.5-2.51-5.5-6.2v-16.55c0-3.69,2.03-6.19,5.5-6.19c3.47,0,5.56,2.51,5.56,6.19V304.31z
				 M472.96,304.47V287.6c0-6.78-4.96-10.88-11-10.88c-6.03,0-10.93,4.11-10.93,10.88v16.87c0,6.78,4.9,10.88,10.93,10.88
				C468,315.35,472.96,311.25,472.96,304.47 M437.73,315.03v-38h-5.44l-7.42,6.41v6.03l7.42-6.51v32.07H437.73z M396.63,299.3
				h-12.17c0.06-1.66,0.16-2.46,0.7-3.69c0.85-2.03,2.83-3.42,5.39-3.42c2.56,0,4.48,1.39,5.34,3.42
				C396.41,296.83,396.58,297.64,396.63,299.3 M402.02,303.08v-2.4c0-7.69-4.22-13.02-11.48-13.02c-6.94,0-11.47,5.06-11.47,13.82
				c0,10.31,5.38,13.88,12.17,13.88c4.75,0,7.37-1.44,10.14-4.21l-3.47-3.26c-1.92,1.92-3.52,2.78-6.56,2.78
				c-4.43,0-6.89-2.94-6.89-7.59H402.02z M373.3,306.76c0-4.8-2.99-7.21-8.06-7.64l-4.27-0.37c-2.88-0.27-3.74-1.49-3.74-3.1
				c0-2.03,1.65-3.47,4.91-3.47c2.56,0,4.96,0.53,6.67,1.98l3.42-3.47c-2.51-2.19-5.98-3.03-10.04-3.03
				c-5.66,0-10.19,2.98-10.19,8.27c0,4.75,2.93,7.05,8.01,7.48l4.32,0.37c2.62,0.21,3.63,1.39,3.63,3.2c0,2.57-2.61,3.74-5.92,3.74
				c-2.67,0-5.61-0.59-7.79-2.83l-3.58,3.57c3.2,3.15,6.94,3.89,11.37,3.89C368.5,315.35,373.3,312.42,373.3,306.76 M346.45,306.76
				c0-4.8-2.99-7.21-8.06-7.64l-4.27-0.37c-2.88-0.27-3.74-1.49-3.74-3.1c0-2.03,1.66-3.47,4.91-3.47c2.56,0,4.97,0.53,6.68,1.98
				l3.42-3.47c-2.51-2.19-5.98-3.03-10.04-3.03c-5.66,0-10.2,2.98-10.2,8.27c0,4.75,2.94,7.05,8.01,7.48l4.33,0.37
				c2.61,0.21,3.63,1.39,3.63,3.2c0,2.57-2.62,3.74-5.93,3.74c-2.67,0-5.6-0.59-7.79-2.83l-3.57,3.57c3.2,3.15,6.94,3.89,11.37,3.89
				C341.65,315.35,346.45,312.42,346.45,306.76 M312.08,305.27c0,1.92-0.37,3.2-1.17,4.01c-1.44,1.39-2.99,1.55-5.07,1.55
				c-3.42,0-4.97-1.39-4.97-3.85c0-2.46,1.66-3.9,4.86-3.9h6.36V305.27z M317.51,315.03v-18.09c0-6.14-3.73-9.28-11.15-9.28
				c-4.48,0-7.15,0.9-9.71,3.89l3.57,3.37c1.49-1.92,2.94-2.62,5.93-2.62c4.22,0,5.93,1.66,5.93,5.07v1.93h-7.15
				c-6.19,0-9.34,3.25-9.34,7.79c0,2.3,0.75,4.38,2.14,5.82c1.65,1.65,3.89,2.45,7.25,2.45c3.37,0,5.24-0.8,7.21-2.77v2.45H317.51z
				 M291.09,315.03v-4.64h-2.4c-2.19,0-2.93-1.07-2.93-3.15v-30.21h-5.44v30.53c0,4,2.24,7.47,7.41,7.47H291.09z M275.08,315.03
				l-13.62-23.11l12.33-14.89h-7.05l-15.54,19.11v-19.11h-5.75v38h5.75v-11.05l6.41-7.69l10.68,18.73H275.08z"/>
		</g>
		<g style="clip-path:url(#SVGID_00000075858109495298647180000007598683087444929168_);">
			<path class="st3" d="M748.88,206.12v-38h-5.43l-7.42,6.41v6.03l7.42-6.51v32.07H748.88z M719.9,206.12v-38h-5.44l-7.42,6.41v6.03
				l7.42-6.51v32.07H719.9z M678.79,190.38h-12.17c0.06-1.66,0.16-2.46,0.7-3.69c0.85-2.03,2.83-3.42,5.39-3.42s4.48,1.39,5.34,3.42
				C678.58,187.92,678.74,188.72,678.79,190.38 M684.19,194.16v-2.4c0-7.69-4.22-13.02-11.48-13.02c-6.94,0-11.47,5.06-11.47,13.82
				c0,10.31,5.38,13.88,12.17,13.88c4.75,0,7.37-1.44,10.14-4.21l-3.47-3.26c-1.92,1.92-3.52,2.78-6.56,2.78
				c-4.43,0-6.89-2.94-6.89-7.59H684.19z M655.47,197.85c0-4.8-2.99-7.21-8.06-7.64l-4.27-0.37c-2.88-0.27-3.74-1.49-3.74-3.1
				c0-2.03,1.65-3.47,4.91-3.47c2.56,0,4.96,0.53,6.67,1.98l3.42-3.47c-2.51-2.19-5.98-3.03-10.04-3.03
				c-5.66,0-10.19,2.98-10.19,8.27c0,4.75,2.93,7.05,8.01,7.48l4.32,0.37c2.62,0.21,3.63,1.39,3.63,3.2c0,2.57-2.61,3.74-5.92,3.74
				c-2.67,0-5.61-0.59-7.79-2.83l-3.58,3.57c3.2,3.15,6.94,3.89,11.37,3.89C650.66,206.44,655.47,203.51,655.47,197.85
				 M628.62,197.85c0-4.8-2.99-7.21-8.06-7.64l-4.27-0.37c-2.88-0.27-3.74-1.49-3.74-3.1c0-2.03,1.66-3.47,4.91-3.47
				c2.56,0,4.97,0.53,6.68,1.98l3.42-3.47c-2.51-2.19-5.98-3.03-10.04-3.03c-5.66,0-10.2,2.98-10.2,8.27c0,4.75,2.94,7.05,8.01,7.48
				l4.33,0.37c2.61,0.21,3.63,1.39,3.63,3.2c0,2.57-2.62,3.74-5.93,3.74c-2.67,0-5.6-0.59-7.79-2.83l-3.57,3.57
				c3.2,3.15,6.94,3.89,11.37,3.89C623.82,206.44,628.62,203.51,628.62,197.85 M594.24,196.36c0,1.92-0.37,3.2-1.17,4.01
				c-1.44,1.39-2.99,1.55-5.07,1.55c-3.42,0-4.97-1.39-4.97-3.85c0-2.46,1.66-3.9,4.86-3.9h6.36V196.36z M599.68,206.12v-18.09
				c0-6.14-3.73-9.28-11.15-9.28c-4.48,0-7.15,0.9-9.71,3.89l3.57,3.37c1.49-1.92,2.94-2.62,5.93-2.62c4.22,0,5.93,1.66,5.93,5.07
				v1.93h-7.15c-6.19,0-9.34,3.25-9.34,7.79c0,2.3,0.75,4.38,2.13,5.82c1.66,1.65,3.89,2.45,7.26,2.45c3.37,0,5.24-0.8,7.21-2.77
				v2.45H599.68z M573.26,206.12v-4.64h-2.4c-2.19,0-2.93-1.07-2.93-3.15v-30.21h-5.44v30.53c0,4,2.24,7.47,7.41,7.47H573.26z
				 M555.06,194.75h-5.82c-0.91,3.85-3.52,6.52-7.74,6.52c-2.24,0-4.27-0.85-5.6-2.3c-1.87-2.03-2.3-4.22-2.3-11.85
				c0-7.64,0.43-9.83,2.3-11.86c1.33-1.44,3.36-2.3,5.6-2.3c4.22,0,6.78,2.67,7.69,6.52h5.87c-1.33-7.58-6.56-11.69-13.56-11.69
				c-3.95,0-7.37,1.44-9.98,4.05c-3.73,3.74-3.67,7.96-3.67,15.27c0,7.31-0.06,11.53,3.67,15.27c2.61,2.61,6.03,4.05,9.98,4.05
				C548.39,206.44,553.77,202.33,555.06,194.75 M510.54,164.17h-5.23l-15.21,45.9h5.23L510.54,164.17z M466.71,206.12v-38h-5.43
				l-7.42,6.41v6.03l7.42-6.51v32.07H466.71z M437.73,206.12v-38h-5.44l-7.42,6.41v6.03l7.42-6.51v32.07H437.73z M396.63,190.38
				h-12.17c0.06-1.66,0.16-2.46,0.7-3.69c0.85-2.03,2.83-3.42,5.39-3.42c2.56,0,4.48,1.39,5.34,3.42
				C396.41,187.92,396.58,188.72,396.63,190.38 M402.02,194.16v-2.4c0-7.69-4.22-13.02-11.48-13.02c-6.94,0-11.47,5.06-11.47,13.82
				c0,10.31,5.38,13.88,12.17,13.88c4.75,0,7.37-1.44,10.14-4.21l-3.47-3.26c-1.92,1.92-3.52,2.78-6.56,2.78
				c-4.43,0-6.89-2.94-6.89-7.59H402.02z M373.3,197.85c0-4.8-2.99-7.21-8.06-7.64l-4.27-0.37c-2.88-0.27-3.74-1.49-3.74-3.1
				c0-2.03,1.65-3.47,4.91-3.47c2.56,0,4.96,0.53,6.67,1.98l3.42-3.47c-2.51-2.19-5.98-3.03-10.04-3.03
				c-5.66,0-10.19,2.98-10.19,8.27c0,4.75,2.93,7.05,8.01,7.48l4.32,0.37c2.62,0.21,3.63,1.39,3.63,3.2c0,2.57-2.61,3.74-5.92,3.74
				c-2.67,0-5.61-0.59-7.79-2.83l-3.58,3.57c3.2,3.15,6.94,3.89,11.37,3.89C368.5,206.44,373.3,203.51,373.3,197.85 M346.45,197.85
				c0-4.8-2.99-7.21-8.06-7.64l-4.27-0.37c-2.88-0.27-3.74-1.49-3.74-3.1c0-2.03,1.66-3.47,4.91-3.47c2.56,0,4.97,0.53,6.68,1.98
				l3.42-3.47c-2.51-2.19-5.98-3.03-10.04-3.03c-5.66,0-10.2,2.98-10.2,8.27c0,4.75,2.94,7.05,8.01,7.48l4.33,0.37
				c2.61,0.21,3.63,1.39,3.63,3.2c0,2.57-2.62,3.74-5.93,3.74c-2.67,0-5.6-0.59-7.79-2.83l-3.57,3.57c3.2,3.15,6.94,3.89,11.37,3.89
				C341.65,206.44,346.45,203.51,346.45,197.85 M312.08,196.36c0,1.92-0.37,3.2-1.17,4.01c-1.44,1.39-2.99,1.55-5.07,1.55
				c-3.42,0-4.97-1.39-4.97-3.85c0-2.46,1.66-3.9,4.86-3.9h6.36V196.36z M317.51,206.12v-18.09c0-6.14-3.73-9.28-11.15-9.28
				c-4.48,0-7.15,0.9-9.71,3.89l3.57,3.37c1.49-1.92,2.94-2.62,5.93-2.62c4.22,0,5.93,1.66,5.93,5.07v1.93h-7.15
				c-6.19,0-9.34,3.25-9.34,7.79c0,2.3,0.75,4.38,2.14,5.82c1.65,1.65,3.89,2.45,7.25,2.45c3.37,0,5.24-0.8,7.21-2.77v2.45H317.51z
				 M291.09,206.12v-4.64h-2.4c-2.19,0-2.93-1.07-2.93-3.15v-30.21h-5.44v30.53c0,4,2.24,7.47,7.41,7.47H291.09z M275.08,206.12
				l-13.62-23.11l12.33-14.89h-7.05l-15.54,19.11v-19.11h-5.75v38h5.75v-11.05l6.41-7.69l10.68,18.73H275.08z"/>
		</g>
		<g style="clip-path:url(#SVGID_00000075858109495298647180000007598683087444929168_);">
			<path class="st3" d="M726.52,886.72c0-3.58-0.43-7.27-3.31-10.14c-1.55-1.55-3.84-2.46-6.83-2.46c-2.78,0-5.02,0.85-6.3,2.19
				v-10.04h15.59v-4.85h-20.49v20.76h4.96c0.59-1.87,2.3-3.42,5.39-3.42c4.38,0,5.56,3.42,5.56,7.96c0,2.56-0.21,5.07-1.81,6.68
				c-0.97,0.96-2.35,1.49-3.96,1.49c-3.42,0-5.12-1.92-5.55-5.29h-5.44c0.21,2.73,0.85,5.23,2.88,7.26
				c1.65,1.65,4.48,2.93,8.11,2.93c3.69,0,6.3-1.28,8.01-2.98C726.09,894.04,726.52,890.78,726.52,886.72 M678.8,883.68h-12.17
				c0.05-1.66,0.16-2.46,0.69-3.69c0.85-2.03,2.83-3.42,5.39-3.42c2.56,0,4.48,1.39,5.34,3.42
				C678.58,881.22,678.74,882.02,678.8,883.68 M684.18,887.46v-2.4c0-7.69-4.21-13.02-11.47-13.02c-6.94,0-11.47,5.06-11.47,13.82
				c0,10.31,5.39,13.88,12.17,13.88c4.75,0,7.37-1.44,10.14-4.21l-3.47-3.26c-1.92,1.92-3.52,2.78-6.57,2.78
				c-4.43,0-6.88-2.94-6.88-7.59H684.18z M655.47,891.15c0-4.8-2.99-7.21-8.06-7.64l-4.27-0.37c-2.88-0.27-3.74-1.49-3.74-3.1
				c0-2.03,1.66-3.47,4.91-3.47c2.56,0,4.97,0.53,6.68,1.98l3.42-3.47c-2.51-2.19-5.98-3.03-10.04-3.03c-5.66,0-10.2,2.98-10.2,8.27
				c0,4.75,2.94,7.05,8.01,7.48l4.33,0.37c2.61,0.21,3.63,1.39,3.63,3.2c0,2.57-2.62,3.74-5.93,3.74c-2.67,0-5.6-0.59-7.79-2.83
				l-3.57,3.58c3.2,3.14,6.94,3.89,11.37,3.89C650.67,899.74,655.47,896.81,655.47,891.15 M628.62,891.15c0-4.8-2.99-7.21-8.06-7.64
				l-4.27-0.37c-2.88-0.27-3.74-1.49-3.74-3.1c0-2.03,1.65-3.47,4.91-3.47c2.56,0,4.96,0.53,6.67,1.98l3.42-3.47
				c-2.51-2.19-5.98-3.03-10.04-3.03c-5.66,0-10.19,2.98-10.19,8.27c0,4.75,2.93,7.05,8.01,7.48l4.32,0.37
				c2.62,0.21,3.63,1.39,3.63,3.2c0,2.57-2.61,3.74-5.92,3.74c-2.67,0-5.61-0.59-7.79-2.83l-3.58,3.58
				c3.2,3.14,6.94,3.89,11.37,3.89C623.81,899.74,628.62,896.81,628.62,891.15 M594.25,889.65c0,1.92-0.37,3.2-1.17,4.01
				c-1.44,1.39-2.99,1.55-5.07,1.55c-3.42,0-4.97-1.39-4.97-3.85c0-2.46,1.66-3.9,4.86-3.9h6.36V889.65z M599.68,899.42v-18.09
				c0-6.14-3.73-9.28-11.15-9.28c-4.49,0-7.15,0.9-9.72,3.89l3.57,3.37c1.49-1.92,2.94-2.62,5.93-2.62c4.22,0,5.93,1.66,5.93,5.07
				v1.93h-7.16c-6.19,0-9.33,3.25-9.33,7.79c0,2.3,0.74,4.38,2.13,5.82c1.65,1.65,3.89,2.45,7.26,2.45s5.23-0.8,7.21-2.77v2.45
				H599.68z M573.26,899.42v-4.64h-2.4c-2.19,0-2.94-1.07-2.94-3.15v-30.21h-5.43v30.53c0,4,2.24,7.47,7.41,7.47H573.26z
				 M555.06,888.05h-5.82c-0.91,3.85-3.52,6.52-7.74,6.52c-2.24,0-4.27-0.85-5.6-2.3c-1.87-2.03-2.3-4.22-2.3-11.85
				c0-7.64,0.43-9.83,2.3-11.86c1.33-1.44,3.36-2.3,5.6-2.3c4.22,0,6.78,2.67,7.69,6.52h5.87c-1.33-7.58-6.56-11.69-13.56-11.69
				c-3.95,0-7.37,1.44-9.98,4.05c-3.73,3.74-3.68,7.96-3.68,15.27c0,7.31-0.05,11.53,3.68,15.27c2.61,2.61,6.03,4.05,9.98,4.05
				C548.39,899.74,553.78,895.63,555.06,888.05 M510.54,857.47h-5.23l-15.22,45.9h5.23L510.54,857.47z M473.33,886.72
				c0-3.58-0.43-7.27-3.3-10.14c-1.55-1.55-3.84-2.46-6.83-2.46c-2.78,0-5.02,0.85-6.3,2.19v-10.04h15.59v-4.85h-20.49v20.76h4.96
				c0.59-1.87,2.3-3.42,5.4-3.42c4.38,0,5.55,3.42,5.55,7.96c0,2.56-0.21,5.07-1.81,6.68c-0.96,0.96-2.35,1.49-3.95,1.49
				c-3.42,0-5.13-1.92-5.56-5.29h-5.44c0.21,2.73,0.85,5.23,2.88,7.26c1.65,1.65,4.48,2.93,8.11,2.93c3.68,0,6.3-1.28,8.01-2.98
				C472.91,894.04,473.33,890.78,473.33,886.72 M425.61,883.68h-12.17c0.06-1.66,0.16-2.46,0.7-3.69c0.85-2.03,2.83-3.42,5.39-3.42
				c2.56,0,4.48,1.39,5.34,3.42C425.4,881.22,425.56,882.02,425.61,883.68 M431.01,887.46v-2.4c0-7.69-4.22-13.02-11.48-13.02
				c-6.94,0-11.47,5.06-11.47,13.82c0,10.31,5.38,13.88,12.17,13.88c4.75,0,7.37-1.44,10.14-4.21l-3.47-3.26
				c-1.92,1.92-3.52,2.78-6.56,2.78c-4.43,0-6.89-2.94-6.89-7.59H431.01z M402.29,891.15c0-4.8-2.99-7.21-8.06-7.64l-4.27-0.37
				c-2.88-0.27-3.74-1.49-3.74-3.1c0-2.03,1.65-3.47,4.91-3.47c2.56,0,4.96,0.53,6.67,1.98l3.42-3.47
				c-2.51-2.19-5.98-3.03-10.04-3.03c-5.66,0-10.19,2.98-10.19,8.27c0,4.75,2.93,7.05,8.01,7.48l4.32,0.37
				c2.62,0.21,3.63,1.39,3.63,3.2c0,2.57-2.61,3.74-5.92,3.74c-2.67,0-5.61-0.59-7.79-2.83l-3.58,3.58
				c3.2,3.14,6.94,3.89,11.37,3.89C397.48,899.74,402.29,896.81,402.29,891.15 M375.44,891.15c0-4.8-2.99-7.21-8.06-7.64l-4.27-0.37
				c-2.88-0.27-3.74-1.49-3.74-3.1c0-2.03,1.66-3.47,4.91-3.47c2.56,0,4.97,0.53,6.68,1.98l3.42-3.47
				c-2.51-2.19-5.98-3.03-10.04-3.03c-5.66,0-10.2,2.98-10.2,8.27c0,4.75,2.94,7.05,8.01,7.48l4.33,0.37
				c2.61,0.21,3.63,1.39,3.63,3.2c0,2.57-2.62,3.74-5.93,3.74c-2.67,0-5.6-0.59-7.79-2.83l-3.57,3.58c3.2,3.14,6.94,3.89,11.37,3.89
				C370.63,899.74,375.44,896.81,375.44,891.15 M341.06,889.65c0,1.92-0.37,3.2-1.17,4.01c-1.44,1.39-2.99,1.55-5.07,1.55
				c-3.42,0-4.97-1.39-4.97-3.85c0-2.46,1.66-3.9,4.86-3.9h6.36V889.65z M346.5,899.42v-18.09c0-6.14-3.73-9.28-11.15-9.28
				c-4.48,0-7.15,0.9-9.71,3.89l3.57,3.37c1.49-1.92,2.94-2.62,5.93-2.62c4.22,0,5.93,1.66,5.93,5.07v1.93h-7.15
				c-6.19,0-9.34,3.25-9.34,7.79c0,2.3,0.75,4.38,2.14,5.82c1.65,1.65,3.89,2.45,7.25,2.45c3.37,0,5.24-0.8,7.21-2.77v2.45H346.5z
				 M320.08,899.42v-4.64h-2.4c-2.19,0-2.93-1.07-2.93-3.15v-30.21h-5.44v30.53c0,4,2.24,7.47,7.41,7.47H320.08z M304.06,899.42
				l-13.62-23.11l12.33-14.89h-7.05l-15.54,19.11v-19.11h-5.75v38h5.75v-11.05l6.41-7.69l10.68,18.73H304.06z"/>
		</g>
	</g>
	<g>
		<polygon class="st4" points="19.1,871.61 35.16,871.61 27.13,860.98 		"/>
	</g>
	<g>
		<polygon class="st4" points="19.1,892.74 35.16,892.74 27.13,882.12 		"/>
	</g>
	<g>
		<polygon class="st4" points="19.1,913.88 35.16,913.88 27.13,903.25 		"/>
	</g>
	<g>
		<polygon class="st4" points="19.1,850.47 35.16,850.47 27.13,839.85 		"/>
	</g>
	<g>
		<polygon class="st4" points="19.1,756.13 35.16,756.13 27.13,745.51 		"/>
	</g>
	<g>
		<polygon class="st4" points="19.1,777.27 35.16,777.27 27.13,766.64 		"/>
	</g>
	<g>
		<polygon class="st4" points="19.1,798.4 35.16,798.4 27.13,787.78 		"/>
	</g>
	<g>
		<polygon class="st4" points="19.1,735 35.16,735 27.13,724.37 		"/>
	</g>
	<g>
		<polygon class="st4" points="19.1,636.45 35.16,636.45 27.13,625.82 		"/>
	</g>
	<g>
		<polygon class="st4" points="19.1,657.58 35.16,657.58 27.13,646.95 		"/>
	</g>
	<g>
		<polygon class="st4" points="19.1,678.72 35.16,678.72 27.13,668.09 		"/>
	</g>
	<g>
		<polygon class="st4" points="19.1,615.31 35.16,615.31 27.13,604.68 		"/>
	</g>
	<g>
		<polygon class="st4" points="19.1,518.16 35.16,518.16 27.13,507.54 		"/>
	</g>
	<g>
		<polygon class="st4" points="19.1,539.3 35.16,539.3 27.13,528.67 		"/>
	</g>
	<g>
		<polygon class="st4" points="19.1,560.43 35.16,560.43 27.13,549.81 		"/>
	</g>
	<g>
		<polygon class="st4" points="19.1,497.03 35.16,497.03 27.13,486.4 		"/>
	</g>
	<g>
		<polygon class="st4" points="19.1,402.69 35.16,402.69 27.13,392.07 		"/>
	</g>
	<g>
		<polygon class="st4" points="19.1,423.83 35.16,423.83 27.13,413.2 		"/>
	</g>
	<g>
		<polygon class="st4" points="19.1,444.96 35.16,444.96 27.13,434.34 		"/>
	</g>
	<g>
		<polygon class="st4" points="19.1,381.56 35.16,381.56 27.13,370.93 		"/>
	</g>
	<g>
		<polygon class="st4" points="19.1,285.81 35.16,285.81 27.13,275.19 		"/>
	</g>
	<g>
		<polygon class="st4" points="19.1,306.95 35.16,306.95 27.13,296.32 		"/>
	</g>
	<g>
		<polygon class="st4" points="19.1,328.08 35.16,328.08 27.13,317.46 		"/>
	</g>
	<g>
		<polygon class="st4" points="19.1,264.68 35.16,264.68 27.13,254.05 		"/>
	</g>
	<g>
		<polygon class="st4" points="19.1,178.94 35.16,178.94 27.13,168.31 		"/>
	</g>
	<g>
		<polygon class="st4" points="19.1,200.07 35.16,200.07 27.13,189.45 		"/>
	</g>
	<g>
		<polygon class="st4" points="19.1,221.21 35.16,221.21 27.13,210.58 		"/>
	</g>
	<g>
		<polygon class="st4" points="19.1,157.8 35.16,157.8 27.13,147.18 		"/>
	</g>
</g>
</svg>
