<?xml version="1.0" encoding="utf-8"?>
<!-- Generator: Adobe Illustrator 26.2.1, SVG Export Plug-In . SVG Version: 6.00 Build 0)  -->
<svg version="1.1" id="Ebene_1" xmlns="http://www.w3.org/2000/svg" xmlns:xlink="http://www.w3.org/1999/xlink" x="0px" y="0px"
	 viewBox="0 0 1000 819.82" style="enable-background:new 0 0 1000 819.82;" xml:space="preserve">
<style type="text/css">
	.st0{fill:#A2B9E1;}
	.st1{fill:#6796CF;}
	.st2{clip-path:url(#SVGID_00000006688167034574649230000016966404477055139975_);}
	.st3{fill:#2B2961;}
	.st4{fill:#FFFFFF;}
	.st5{clip-path:url(#SVGID_00000016778611632068020590000017840986492975318926_);}
	.st6{clip-path:url(#SVGID_00000168083864386599942210000015492905500216297640_);}
	.st7{clip-path:url(#SVGID_00000130615561728054050090000014142841082337200053_);}
	.st8{clip-path:url(#SVGID_00000003824593307082299540000006549170651565892759_);}
	.st9{clip-path:url(#SVGID_00000043456339778355971670000016327687478285325203_);}
	.st10{opacity:0.52;clip-path:url(#SVGID_00000176023590482503485430000011212945538116085951_);}
	.st11{clip-path:url(#SVGID_00000096753789336594529470000004863403714948288701_);}
	.st12{clip-path:url(#SVGID_00000109727581995545260470000015746584966372970943_);}
	.st13{clip-path:url(#SVGID_00000106859163290181384060000012172323956604541582_);}
	.st14{clip-path:url(#SVGID_00000160905585785308890170000017104598148038380194_);}
	.st15{clip-path:url(#SVGID_00000021083122136897244650000004389573867530656139_);}
	.st16{clip-path:url(#SVGID_00000014635600771600997710000008319620462442352797_);}
	.st17{clip-path:url(#SVGID_00000172421643658537295390000007023831582582947746_);}
	.st18{clip-path:url(#SVGID_00000041288660230185513730000006123557079123919524_);}
	.st19{clip-path:url(#SVGID_00000145768524905088748900000005676415722804924071_);}
	.st20{clip-path:url(#SVGID_00000101822971887857761220000002532430352037417350_);}
	.st21{clip-path:url(#SVGID_00000004529351013364492040000005618873368425460159_);}
	.st22{clip-path:url(#SVGID_00000176043230723870786070000009004050285318582164_);}
	.st23{fill:none;stroke:#2B2961;stroke-width:0.374;stroke-linejoin:round;stroke-miterlimit:10;}
	.st24{fill:none;stroke:#2B2961;stroke-width:0.4;stroke-miterlimit:10;}
	.st25{clip-path:url(#SVGID_00000101068678721275170910000017679243323038094266_);}
	.st26{clip-path:url(#SVGID_00000158740811488706553880000006048333560845184447_);}
	.st27{clip-path:url(#SVGID_00000085951781263893515450000004721206481295700910_);}
	.st28{clip-path:url(#SVGID_00000034806338095355818660000015002048878286108601_);}
	.st29{clip-path:url(#SVGID_00000040555964148357484750000000154686124979899524_);}
	.st30{clip-path:url(#SVGID_00000147195431734720774960000009454948400264692647_);}
	.st31{clip-path:url(#SVGID_00000143583235264747028690000003611261855901181337_);}
	.st32{clip-path:url(#SVGID_00000181766530811517804430000003289997745696635826_);}
	.st33{clip-path:url(#SVGID_00000158019658697280931680000000512048879517762456_);}
	.st34{clip-path:url(#SVGID_00000001656063486133255220000014984220740242986392_);}
	.st35{clip-path:url(#SVGID_00000102532935355982058800000000654625504400045759_);}
	.st36{clip-path:url(#SVGID_00000016035799487035793610000007950439921693956995_);}
	.st37{clip-path:url(#SVGID_00000157295953222684934510000005988565036329817760_);}
	.st38{clip-path:url(#SVGID_00000085939262422843431680000014503836278347904160_);}
	.st39{clip-path:url(#SVGID_00000060752186558546639270000007682593536940356503_);}
	.st40{clip-path:url(#SVGID_00000098220606960328504070000015835454777904552341_);}
	.st41{clip-path:url(#SVGID_00000105384920618313269910000003165416328902048139_);}
	.st42{clip-path:url(#SVGID_00000059988943085381915690000003159455990426804657_);}
	.st43{clip-path:url(#SVGID_00000181071904925349270160000000645063928529062072_);}
	.st44{clip-path:url(#SVGID_00000153667698105672659360000003980403569091569043_);}
	.st45{clip-path:url(#SVGID_00000178917513208213743900000001855610690869036930_);}
	.st46{clip-path:url(#SVGID_00000018925496604258718440000008978866919697524148_);}
	.st47{clip-path:url(#SVGID_00000060730051515478978120000003127756167747553705_);}
	.st48{clip-path:url(#SVGID_00000067230804233099429280000004975951810973458078_);}
	.st49{clip-path:url(#SVGID_00000011734525084373907410000016052009523933861760_);}
	.st50{clip-path:url(#SVGID_00000004542676440202947890000016746321012236719285_);}
	.st51{clip-path:url(#SVGID_00000054244675590305486070000008087188080686887349_);}
	.st52{clip-path:url(#SVGID_00000008114284091406871750000009250540150753109386_);}
	.st53{clip-path:url(#SVGID_00000014635182929138631230000009345602429789673903_);}
	.st54{clip-path:url(#SVGID_00000107562642961318079730000006683020557553768836_);}
	.st55{clip-path:url(#SVGID_00000036941509032492832020000012260501239679026599_);}
	.st56{clip-path:url(#SVGID_00000016033310281436170950000010370077054252225933_);}
	.st57{clip-path:url(#SVGID_00000073699970404922890210000015065826398302239398_);}
	.st58{clip-path:url(#SVGID_00000175289777888162349710000011414182362390824333_);}
	.st59{clip-path:url(#SVGID_00000141422394026228624360000009678105190706262455_);}
	.st60{clip-path:url(#SVGID_00000065039730911976144590000001957838320274017924_);}
	.st61{clip-path:url(#SVGID_00000085960494916423577710000002890886558902606781_);}
	.st62{fill:#9AB4DE;}
	.st63{clip-path:url(#SVGID_00000034789831979382153500000017691731494438278552_);}
	.st64{clip-path:url(#SVGID_00000145780856495269861890000014185225818947788732_);}
	.st65{clip-path:url(#SVGID_00000003799725023839902780000001663767088746871693_);}
	.st66{fill:#B9C9E9;}
	.st67{clip-path:url(#SVGID_00000090978919892477893780000001375011492888263052_);}
	.st68{clip-path:url(#SVGID_00000157276133988976463710000004142355028398535040_);}
	.st69{clip-path:url(#SVGID_00000001662915173611944820000007169008190179699613_);}
	.st70{clip-path:url(#SVGID_00000109728096809677727880000013700774614691429762_);}
	.st71{clip-path:url(#SVGID_00000000924211992882923520000011174168055580618165_);}
	.st72{clip-path:url(#SVGID_00000149364404643210869100000008012202090456338336_);}
	.st73{clip-path:url(#SVGID_00000124870038880596956810000005909136007360430502_);}
	.st74{clip-path:url(#SVGID_00000033368712550677215910000000491965917156201638_);}
	.st75{clip-path:url(#SVGID_00000033345823108498525670000001417464000116141212_);}
	.st76{clip-path:url(#SVGID_00000042732949163618085120000001820845086903778705_);}
	.st77{clip-path:url(#SVGID_00000142140259902997253620000005681408880146784929_);}
	.st78{clip-path:url(#SVGID_00000024709363457923350990000018355829671230445980_);}
	.st79{clip-path:url(#SVGID_00000051358165308045227900000018369514645548770732_);}
	.st80{clip-path:url(#SVGID_00000178896291649633935250000003991051021903957932_);}
	.st81{clip-path:url(#SVGID_00000014595400078290610060000010976045884930513556_);}
	.st82{clip-path:url(#SVGID_00000117644087474210060920000011066086751204287112_);}
	.st83{clip-path:url(#SVGID_00000013171398541758110030000011423251172233447561_);}
	.st84{clip-path:url(#SVGID_00000125591483223689089250000004556269520919619255_);}
	.st85{clip-path:url(#SVGID_00000128480069646762880330000000249190426107926684_);}
	.st86{clip-path:url(#SVGID_00000176721503713350728600000015272636335003656582_);}
	.st87{clip-path:url(#SVGID_00000085970737366687378280000018369068287777353901_);}
	.st88{clip-path:url(#SVGID_00000089552019020059513330000003894987352181494697_);}
	.st89{clip-path:url(#SVGID_00000038390834718074674800000010019948664252852098_);}
	.st90{clip-path:url(#SVGID_00000165201467366909662630000016576014709114667674_);}
	.st91{clip-path:url(#SVGID_00000103962432869542683000000005765346051372644239_);}
	.st92{clip-path:url(#SVGID_00000003788915685852302220000000633936508384513920_);}
	.st93{clip-path:url(#SVGID_00000086656122807930156140000003642406751686949815_);}
	.st94{clip-path:url(#SVGID_00000181781642356315351570000009907768049001865345_);}
	.st95{clip-path:url(#SVGID_00000169532611628547856760000010853822986336648873_);}
	.st96{clip-path:url(#SVGID_00000066508125889544693520000016308419968184507831_);}
	.st97{clip-path:url(#SVGID_00000052789772916400652320000002634905166725834381_);}
	.st98{clip-path:url(#SVGID_00000123424894820414413120000008334050352528562329_);}
	.st99{clip-path:url(#SVGID_00000168101199003513468670000004015406847985373590_);}
	.st100{clip-path:url(#SVGID_00000124129340171664442760000005297427419716666758_);}
	.st101{clip-path:url(#SVGID_00000098923608598688492460000012787459493138238365_);}
	.st102{clip-path:url(#SVGID_00000164488734487883198230000006877235745177857174_);}
	.st103{clip-path:url(#SVGID_00000100351870113529554680000006401011401772026012_);}
	.st104{clip-path:url(#SVGID_00000034770061163064719640000009973785113215249551_);}
	.st105{clip-path:url(#SVGID_00000055683181059605788660000005556009487652143003_);}
	.st106{clip-path:url(#SVGID_00000091000798996699747220000001864505282908038810_);}
	.st107{clip-path:url(#SVGID_00000061469035375665084060000014601112783187689644_);}
	.st108{clip-path:url(#SVGID_00000031904356436093397420000017202150543559802772_);}
	.st109{clip-path:url(#SVGID_00000148620565998942749100000003564743867152053673_);}
	.st110{clip-path:url(#SVGID_00000158007313354379264530000008394761587470889405_);}
	.st111{clip-path:url(#SVGID_00000062172289603709560480000016315219909972556217_);}
	.st112{clip-path:url(#SVGID_00000041290275239578827660000014541731782389391796_);}
	.st113{clip-path:url(#SVGID_00000048500872374000434220000015395098422924989604_);}
	.st114{clip-path:url(#SVGID_00000063617294607876006210000014934260130380670646_);}
	.st115{clip-path:url(#SVGID_00000151507939261347226330000000176550710801598853_);}
	.st116{clip-path:url(#SVGID_00000039105414525662050240000008487787711083072440_);}
	.st117{clip-path:url(#SVGID_00000081624272684154837960000004361605645790988185_);}
	.st118{clip-path:url(#SVGID_00000064312717712959991710000002067868872037536442_);}
	.st119{clip-path:url(#SVGID_00000168818209121519188630000008265044749077869738_);}
	.st120{clip-path:url(#SVGID_00000130612375561830790930000015208180640481628335_);}
	.st121{clip-path:url(#SVGID_00000042698731482212603470000002009918631949317263_);}
	.st122{clip-path:url(#SVGID_00000146491864232300805450000016795488793958301865_);}
	.st123{clip-path:url(#SVGID_00000060750422779371800800000003212575328699479942_);}
	.st124{clip-path:url(#SVGID_00000002351356565396326410000013075791165918983060_);}
	.st125{clip-path:url(#SVGID_00000152223256382757000480000016738934069277189565_);}
	.st126{clip-path:url(#SVGID_00000072988912206528039120000004328719282078230408_);}
	.st127{clip-path:url(#SVGID_00000006686052250613800740000004873998674398384063_);}
	.st128{clip-path:url(#SVGID_00000098915376785741306670000002559526655920928645_);}
	.st129{clip-path:url(#SVGID_00000170990322887143867350000012555468252199502465_);}
	.st130{clip-path:url(#SVGID_00000148623784371692739900000016652058754631724949_);}
	.st131{clip-path:url(#SVGID_00000107590880204885386560000001762564269520603829_);}
	.st132{clip-path:url(#SVGID_00000107566719335565007830000018289148314787184286_);}
	.st133{clip-path:url(#SVGID_00000082352761854561225080000012571075023024693377_);}
	.st134{clip-path:url(#SVGID_00000016790789883289973790000012817139492156706207_);}
	.st135{clip-path:url(#SVGID_00000114038593469051823540000006454969090608705193_);}
	.st136{clip-path:url(#SVGID_00000181079081674058375990000012334659975507341745_);}
	.st137{clip-path:url(#SVGID_00000007410347842290416450000014680190552708070318_);}
	.st138{clip-path:url(#SVGID_00000059281668386641717200000015064031097190167481_);}
	.st139{clip-path:url(#SVGID_00000158742238854489437890000002142442220530464957_);}
	.st140{clip-path:url(#SVGID_00000155123815222304043010000004666062480449353397_);}
	.st141{clip-path:url(#SVGID_00000165216644053798804240000001295013024397872575_);}
	.st142{clip-path:url(#SVGID_00000052087791749296353930000009372584397283788980_);}
	.st143{clip-path:url(#SVGID_00000036214995521710894530000002292649439360019336_);}
	.st144{clip-path:url(#SVGID_00000065067302723867748180000003375691870316123020_);}
	.st145{clip-path:url(#SVGID_00000119080218206911740640000008395818980447384985_);}
	.st146{clip-path:url(#SVGID_00000085967843876634811390000013884996862210388382_);}
	.st147{clip-path:url(#SVGID_00000142146345076774196350000001420556008038540730_);}
	.st148{clip-path:url(#SVGID_00000112609354192691019330000012868922685512514443_);}
	.st149{clip-path:url(#SVGID_00000013180350541688002240000014630282247828560045_);}
	.st150{clip-path:url(#SVGID_00000162349033257458697960000005432294168782244262_);}
	.st151{clip-path:url(#SVGID_00000028318606799789104130000015809386688868266652_);}
	.st152{clip-path:url(#SVGID_00000123438946300641763360000007603650739379741337_);}
	.st153{clip-path:url(#SVGID_00000060731560654484923550000008379873486849011643_);}
	.st154{clip-path:url(#SVGID_00000105414109193600757450000011151418521847114133_);}
	.st155{clip-path:url(#SVGID_00000085211789832410110380000013907854500326639489_);}
	.st156{clip-path:url(#SVGID_00000151540983455457194390000010506157033881260166_);}
	.st157{clip-path:url(#SVGID_00000112608596774749740570000013732885981283137699_);}
	.st158{clip-path:url(#SVGID_00000101094923672510811670000017591648207293242779_);}
	.st159{clip-path:url(#SVGID_00000029047245347525898200000014720160613233585846_);}
	.st160{clip-path:url(#SVGID_00000026128274301501736300000010451738456231756197_);}
	.st161{clip-path:url(#SVGID_00000114757896771471564040000012280337314661366690_);}
	.st162{clip-path:url(#SVGID_00000155106978479717591440000009586670473830093710_);}
	.st163{clip-path:url(#SVGID_00000033339251072358422540000015297691713349053587_);}
	.st164{clip-path:url(#SVGID_00000072976689284508109840000011747701209456039071_);}
	.st165{clip-path:url(#SVGID_00000051375759049417041780000013621478752482058667_);}
	.st166{clip-path:url(#SVGID_00000155148315310115313630000008527056233144420521_);}
	.st167{clip-path:url(#SVGID_00000165194481567978201080000005177479612704634782_);}
	.st168{clip-path:url(#SVGID_00000005263968600930660530000006978137466574210214_);}
	.st169{clip-path:url(#SVGID_00000062192587837084898550000005760995421774214319_);}
	.st170{clip-path:url(#SVGID_00000025412930699302147330000010229661935912910720_);}
	.st171{clip-path:url(#SVGID_00000077312773998000341910000012524831941018477968_);}
	.st172{clip-path:url(#SVGID_00000090261611585995907440000007134239443236407697_);}
	.st173{clip-path:url(#SVGID_00000181794423756302111610000010280315212148236420_);}
	.st174{clip-path:url(#SVGID_00000104705769889455140890000003622681617012392102_);}
	.st175{clip-path:url(#SVGID_00000080205475270327245160000008506861876660770741_);}
	.st176{clip-path:url(#SVGID_00000153706441613353286870000008653914760255509947_);}
	.st177{clip-path:url(#SVGID_00000078007988062641668730000009815393741901769898_);}
	.st178{clip-path:url(#SVGID_00000091008142927981611170000002383352544115487884_);}
	.st179{clip-path:url(#SVGID_00000026859877165865902700000011819797695758573729_);}
	.st180{clip-path:url(#SVGID_00000054228792460432577700000009283840827453035189_);}
	.st181{clip-path:url(#SVGID_00000084509652030048252830000016591901358330452623_);}
	.st182{clip-path:url(#SVGID_00000128486104115948100350000008839031261746053542_);}
	.st183{clip-path:url(#SVGID_00000080888426265251149640000006636816829320947074_);}
	.st184{clip-path:url(#SVGID_00000159442650211098468230000005774251634685586855_);}
	.st185{clip-path:url(#SVGID_00000165925675317937595260000010119044397527005866_);}
	.st186{clip-path:url(#SVGID_00000129912019206384880680000014796492828653593508_);}
	.st187{clip-path:url(#SVGID_00000023250582646003868910000002817613082787362227_);}
	.st188{clip-path:url(#SVGID_00000072240367285746557500000016916050451200114314_);}
	.st189{clip-path:url(#SVGID_00000116225265513822328270000003707817732206959019_);}
	.st190{clip-path:url(#SVGID_00000070091636082650015630000007579317113895783100_);}
	.st191{clip-path:url(#SVGID_00000049933699934301742540000015131786927205535124_);}
	.st192{clip-path:url(#SVGID_00000083071872642196870380000015154093144233738411_);}
	.st193{clip-path:url(#SVGID_00000083062764689281979710000017693175044086635938_);}
	.st194{clip-path:url(#SVGID_00000089556534199147379570000016804865925387769769_);}
	.st195{clip-path:url(#SVGID_00000084497069075609588450000013376992625261774740_);}
	.st196{clip-path:url(#SVGID_00000086686915545463204370000011375431267741939125_);}
	.st197{clip-path:url(#SVGID_00000077299506983621478840000010359686718724961455_);}
	.st198{clip-path:url(#SVGID_00000107582658223188675290000014836926169798477749_);}
	.st199{clip-path:url(#SVGID_00000074441694256400328130000014236937088227095691_);}
	.st200{clip-path:url(#SVGID_00000094603533613196649170000004784988794397976489_);}
	.st201{clip-path:url(#SVGID_00000167363672972473605090000002110281031435680640_);}
	.st202{clip-path:url(#SVGID_00000021838350403679346870000005391126066720239293_);}
	.st203{clip-path:url(#SVGID_00000134949396528145973410000012624043916558590869_);}
	.st204{clip-path:url(#SVGID_00000045606123516699483230000011112206230309497000_);}
	.st205{clip-path:url(#SVGID_00000144339613009312808070000017391040155967045018_);}
	.st206{clip-path:url(#SVGID_00000171680128310352121630000015879283257029800629_);}
	.st207{clip-path:url(#SVGID_00000131346913901056983210000016848324952046773423_);}
	.st208{clip-path:url(#SVGID_00000146478047439939636450000013349796808963879819_);}
	.st209{clip-path:url(#SVGID_00000105413748400678307320000009627132953148427947_);}
	.st210{clip-path:url(#SVGID_00000020358834870387291400000004024451906137436322_);}
	.st211{clip-path:url(#SVGID_00000089571393805637100040000005713651340654147234_);}
	.st212{clip-path:url(#SVGID_00000136376269112411818890000016083852614719878066_);}
	.st213{clip-path:url(#SVGID_00000006690821543559035030000015741919061794170781_);}
	.st214{clip-path:url(#SVGID_00000183223821922345988380000001756013050301104548_);}
	.st215{clip-path:url(#SVGID_00000054951467300744015010000017118086069511934655_);}
	.st216{clip-path:url(#SVGID_00000070087247310135650500000010683028297706564758_);}
	.st217{clip-path:url(#SVGID_00000165233078708178720160000010703595793842899587_);}
	.st218{clip-path:url(#SVGID_00000051342319683338306150000008202864986343394707_);}
	.st219{clip-path:url(#SVGID_00000067958321487734128100000015685384299081033649_);}
	.st220{clip-path:url(#SVGID_00000049905858418239994060000012744269614769029769_);}
	.st221{clip-path:url(#SVGID_00000141422427586123139620000009777735831250948008_);}
	.st222{clip-path:url(#SVGID_00000103981192923294573660000004147651865055555503_);}
	.st223{clip-path:url(#SVGID_00000090262096755959432650000007939521194189751742_);}
	.st224{clip-path:url(#SVGID_00000141418900174586448660000005096898737027297432_);}
	.st225{clip-path:url(#SVGID_00000167397945220833766750000010866971971488640439_);}
	.st226{clip-path:url(#SVGID_00000109725873951463453460000013993632711676832929_);}
	.st227{clip-path:url(#SVGID_00000018953352319566203770000012270097735438918045_);}
	.st228{clip-path:url(#SVGID_00000002347253520064674100000003255945259652522886_);}
	.st229{clip-path:url(#SVGID_00000044883279629813719660000001411018119068239501_);}
	.st230{clip-path:url(#SVGID_00000102528851045150557380000006233173796785025424_);}
	.st231{clip-path:url(#SVGID_00000021119405674353940190000010944328486575747237_);}
	.st232{clip-path:url(#SVGID_00000049198192764037798030000008277905291993838508_);}
	.st233{clip-path:url(#SVGID_00000001639067278061054620000005373148186453501080_);}
	.st234{clip-path:url(#SVGID_00000135677838435264120770000012593696614721925292_);}
	.st235{clip-path:url(#SVGID_00000125578555594792293590000003059204311868920731_);}
	.st236{clip-path:url(#SVGID_00000084498193335523003860000011097973275142547598_);}
	.st237{clip-path:url(#SVGID_00000156575478161109411670000015236991207322729363_);}
	.st238{clip-path:url(#SVGID_00000003819513310239882500000000992687130464663223_);}
	.st239{clip-path:url(#SVGID_00000034066378704050065080000006428901528944585911_);}
	.st240{clip-path:url(#SVGID_00000016758890132440200050000006934319170517588873_);}
	.st241{clip-path:url(#SVGID_00000110434215635803052220000008082713598719436205_);}
	.st242{clip-path:url(#SVGID_00000163759045931764549560000007576242302786040500_);}
	.st243{clip-path:url(#SVGID_00000164513915158517760700000007380378275016855439_);}
	.st244{clip-path:url(#SVGID_00000178184384727833015530000007630487076651764391_);}
	.st245{clip-path:url(#SVGID_00000157270752724353742260000011752445754229501110_);}
	.st246{clip-path:url(#SVGID_00000070114851922195189840000012967802550636599958_);}
	.st247{clip-path:url(#SVGID_00000137131844798946897520000005380454272551353527_);}
	.st248{clip-path:url(#SVGID_00000148635264765586578530000000704145316616617913_);}
	.st249{clip-path:url(#SVGID_00000124133193771619082490000012063628536536949392_);}
	.st250{clip-path:url(#SVGID_00000005256285395688374630000001086889726311141310_);}
	.st251{clip-path:url(#SVGID_00000152246430121646728790000012852576585476487054_);}
	.st252{clip-path:url(#SVGID_00000067947706086459039270000002049755794393533851_);}
	.st253{clip-path:url(#SVGID_00000092420021081711156780000012269375750344964018_);}
	.st254{clip-path:url(#SVGID_00000119839271399025691560000014403314698342923442_);}
	.st255{clip-path:url(#SVGID_00000036210744513744278710000017187484026441625234_);}
	.st256{clip-path:url(#SVGID_00000132070339183673809510000007533173895300794807_);}
	.st257{clip-path:url(#SVGID_00000057120455141804887180000001669368940804198072_);}
	.st258{clip-path:url(#SVGID_00000000193598097538453050000018365592155324117695_);}
	.st259{clip-path:url(#SVGID_00000067932731908911905650000009100367569868412809_);}
	.st260{clip-path:url(#SVGID_00000178172009308980074900000010405012348692545697_);}
	.st261{clip-path:url(#SVGID_00000117674408338291922810000011005305602934032024_);}
	.st262{clip-path:url(#SVGID_00000181796112214089040320000013258954246826082708_);}
	.st263{clip-path:url(#SVGID_00000149375909415826678400000016741717299001887655_);}
	.st264{clip-path:url(#SVGID_00000018197443302051950070000010020426205205514894_);}
	.st265{clip-path:url(#SVGID_00000026853414273203443450000006945655408936352667_);}
	.st266{clip-path:url(#SVGID_00000018936982227836327590000008848257155955057819_);}
	.st267{clip-path:url(#SVGID_00000145032490985153750800000009537683829910287255_);}
	.st268{clip-path:url(#SVGID_00000128464547431388759140000003687269815703902649_);}
	.st269{clip-path:url(#SVGID_00000144309475503412804520000006512024433116728758_);}
	.st270{clip-path:url(#SVGID_00000053534585906563763370000001848750748628271766_);}
	.st271{clip-path:url(#SVGID_00000172439896753577048140000017283296830713282997_);}
	.st272{clip-path:url(#SVGID_00000069369798158971961180000012026212895703576967_);}
	.st273{clip-path:url(#SVGID_00000048481710988687136490000014629517171668347054_);}
	.st274{clip-path:url(#SVGID_00000163038127279949372130000009082708695536348572_);}
	.st275{clip-path:url(#SVGID_00000029730210535449689140000013559891368425002416_);}
	.st276{clip-path:url(#SVGID_00000139256483709955354040000012952859189352746403_);}
	.st277{clip-path:url(#SVGID_00000008845176335378700420000004269302665018599040_);}
	.st278{clip-path:url(#SVGID_00000005970588413212618850000002404350742907027606_);}
	.st279{clip-path:url(#SVGID_00000095320105665626145230000003343208466030381986_);}
	.st280{clip-path:url(#SVGID_00000005976628977444510400000001973032768522668453_);}
	.st281{clip-path:url(#SVGID_00000116230206457309080670000014795676976026772386_);}
	.st282{clip-path:url(#SVGID_00000125563628295512049130000015191316239251218049_);}
	.st283{clip-path:url(#SVGID_00000136411529028056684620000016544989358590458780_);}
	.st284{clip-path:url(#SVGID_00000066489756823320184150000005628929864517451937_);}
	.st285{clip-path:url(#SVGID_00000021811154647201328800000012588091266437504952_);}
	.st286{clip-path:url(#SVGID_00000090978043186596813980000015707395810815723413_);}
	.st287{clip-path:url(#SVGID_00000147206515493267632880000016001789899043585180_);}
	.st288{clip-path:url(#SVGID_00000141413397107324341070000012111478420771197329_);}
	.st289{clip-path:url(#SVGID_00000032614272478148493060000003568311629825711032_);}
	.st290{clip-path:url(#SVGID_00000031188560889393878040000013216518019888900020_);}
	.st291{clip-path:url(#SVGID_00000035526548385424754460000005779864098962554514_);}
	.st292{clip-path:url(#SVGID_00000147942361390834666050000000775244392468467125_);}
	.st293{clip-path:url(#SVGID_00000015332755228435859260000013221308795333486225_);}
	.st294{clip-path:url(#SVGID_00000106147084346684602530000001137625280429918875_);}
	.st295{clip-path:url(#SVGID_00000008138126528050949450000016562154437542150567_);}
	.st296{clip-path:url(#SVGID_00000085219708302789902130000012713456249747552655_);}
	.st297{clip-path:url(#SVGID_00000099635856025215472990000017806411715395088299_);}
	.st298{clip-path:url(#SVGID_00000160181420272005699460000013107052495765671563_);}
	.st299{clip-path:url(#SVGID_00000113327490921367387640000001315940869610805678_);}
	.st300{clip-path:url(#SVGID_00000105406224466639836820000016382215683661519037_);}
	.st301{clip-path:url(#SVGID_00000106866405883473872560000001210704483468481450_);}
	.st302{clip-path:url(#SVGID_00000167392658721515705570000001410650624406243714_);}
	.st303{clip-path:url(#SVGID_00000025414884167361694150000003051005856895062675_);}
	.st304{clip-path:url(#SVGID_00000101823023785428050780000002154653632156423857_);}
	.st305{clip-path:url(#SVGID_00000016037367272250479460000017271253579672234932_);}
	.st306{clip-path:url(#SVGID_00000025429816523928603870000009917064302168057020_);}
	.st307{clip-path:url(#SVGID_00000012466393944067840680000004119421221300434590_);}
	.st308{clip-path:url(#SVGID_00000132063815120577864860000011941202123640704901_);}
	.st309{clip-path:url(#SVGID_00000139261700740355753540000002083249743320758683_);}
	.st310{clip-path:url(#SVGID_00000119099065519528269120000007273847958364396177_);}
	.st311{clip-path:url(#SVGID_00000116922969761580965660000010191283579104972180_);}
	.st312{clip-path:url(#SVGID_00000144330231366105470900000006304739624646478271_);}
	.st313{clip-path:url(#SVGID_00000000208303048005471330000006919001063150190002_);}
	.st314{clip-path:url(#SVGID_00000170990601785901671860000003445393726686333119_);}
	.st315{clip-path:url(#SVGID_00000141433218786826275710000011749992396709213361_);}
	.st316{clip-path:url(#SVGID_00000134950309059182410550000014495305907371778204_);}
	.st317{clip-path:url(#SVGID_00000029738481299546070740000001065487916692097452_);}
	.st318{clip-path:url(#SVGID_00000052092002577032186260000004640507013022127507_);}
	.st319{clip-path:url(#SVGID_00000090993808566346195000000007543316237869408910_);}
	.st320{clip-path:url(#SVGID_00000041978343892156375410000013945010219089132473_);}
	.st321{clip-path:url(#SVGID_00000035496269369136776310000012756459476874556595_);}
	.st322{clip-path:url(#SVGID_00000142138876005009430220000001536336694449448331_);}
	.st323{clip-path:url(#SVGID_00000005987951955496374870000010163206223537018014_);}
	.st324{clip-path:url(#SVGID_00000015323269969049468910000014588072298188883893_);}
	.st325{clip-path:url(#SVGID_00000065761174253349099840000007332556811041510588_);}
	.st326{clip-path:url(#SVGID_00000052092192135623040360000010341507921506428299_);}
	.st327{clip-path:url(#SVGID_00000023270038938154533820000000382045592938710187_);}
	.st328{clip-path:url(#SVGID_00000161603860725328851860000006548519648845161348_);}
	.st329{clip-path:url(#SVGID_00000000938581172278814800000009311399706110713476_);}
	.st330{clip-path:url(#SVGID_00000170970308004045691610000005917682011183807655_);}
	.st331{clip-path:url(#SVGID_00000170965537484028202280000013369413246159020464_);}
	.st332{clip-path:url(#SVGID_00000075867792072775892990000014328703077293874868_);}
	.st333{clip-path:url(#SVGID_00000089548484540389336400000004668988514722594223_);}
	.st334{clip-path:url(#SVGID_00000121269472362319891840000012396212478378647458_);}
	.st335{clip-path:url(#SVGID_00000116944727738312678650000005780884105933645229_);}
	.st336{clip-path:url(#SVGID_00000124125332895726523050000001717323221510069379_);}
	.st337{clip-path:url(#SVGID_00000003082833443816190220000012015726371158305189_);}
	.st338{clip-path:url(#SVGID_00000106869278294352563470000005434200351097200551_);}
	.st339{clip-path:url(#SVGID_00000095331784945791191750000014956668094598994567_);}
	.st340{clip-path:url(#SVGID_00000161624581409300518880000017850649234605447083_);}
	.st341{clip-path:url(#SVGID_00000063610404528362861960000013208765166141124510_);}
	.st342{clip-path:url(#SVGID_00000137092907764928701540000000795310924734603181_);}
	.st343{clip-path:url(#SVGID_00000107554281924363066730000008274433223814390449_);}
	.st344{clip-path:url(#SVGID_00000064322513840178289420000013187700825668663217_);}
	.st345{clip-path:url(#SVGID_00000054263783400989979700000005559356042429430658_);}
	.st346{clip-path:url(#SVGID_00000044881741623325729320000013037947657661943940_);}
	.st347{clip-path:url(#SVGID_00000103977449732479902080000011387850490728094342_);}
	.st348{clip-path:url(#SVGID_00000083810955335786009110000017156121773324603579_);}
	.st349{clip-path:url(#SVGID_00000065757646349148060410000009076437225571431359_);}
	.st350{clip-path:url(#SVGID_00000050639461526032897470000017590017765428176554_);}
	.st351{clip-path:url(#SVGID_00000180345226823811684850000003978287707594271149_);}
	.st352{clip-path:url(#SVGID_00000040576588909752381440000008158053533576363405_);}
	.st353{clip-path:url(#SVGID_00000063615872232568896470000015695945531101507713_);}
	.st354{clip-path:url(#SVGID_00000101099511894806369530000012492220391538996376_);}
	.st355{clip-path:url(#SVGID_00000162318439847604246080000013190752527740702112_);}
	.st356{clip-path:url(#SVGID_00000121281892880559117800000006155851941053641856_);}
	.st357{clip-path:url(#SVGID_00000006697976257766069870000000546326989028455820_);}
	.st358{clip-path:url(#SVGID_00000052090618762770837880000011082798526015572625_);}
	.st359{clip-path:url(#SVGID_00000067917614371198039270000009385116136128198572_);}
	.st360{clip-path:url(#SVGID_00000024718336575428974310000004141470839743594907_);}
	.st361{clip-path:url(#SVGID_00000026856152996432193440000007974406154192300203_);}
	.st362{clip-path:url(#SVGID_00000174576285278463922390000001270330707410408887_);}
	.st363{clip-path:url(#SVGID_00000069368221377014224300000000062695853744020120_);}
	.st364{clip-path:url(#SVGID_00000138533056183551103670000000092032345516560296_);}
	.st365{clip-path:url(#SVGID_00000023253682589490777040000005296098065668231576_);}
	.st366{clip-path:url(#SVGID_00000127726794553693178250000016742019185567080088_);}
	.st367{clip-path:url(#SVGID_00000083803375439138260670000009187507166699463311_);}
	.st368{clip-path:url(#SVGID_00000172421960262043210950000005943661244804533664_);}
	.st369{clip-path:url(#SVGID_00000011027540791724964650000014349643609679497115_);}
	.st370{clip-path:url(#SVGID_00000044864017148121518440000004252299260182451092_);}
	.st371{clip-path:url(#SVGID_00000119808434713816850960000015084178052128676228_);}
	.st372{clip-path:url(#SVGID_00000061461514206198425670000008835482220672922757_);}
	.st373{clip-path:url(#SVGID_00000039100212349660239840000016016891855269351600_);}
	.st374{clip-path:url(#SVGID_00000181765851463279330160000015706451329046397077_);}
	.st375{clip-path:url(#SVGID_00000064322656880513869410000014812191822280209031_);}
</style>
<g>
	<g>
		<rect x="4.5" y="122.5" class="st0" width="48.54" height="692.84"/>
	</g>
	<g>
		<rect x="4.5" y="0.01" class="st1" width="992.7" height="116.87"/>
	</g>
	<g>
		<defs>
			<rect id="SVGID_00000091727810351615133630000016238708537631093889_" width="1000" height="819.82"/>
		</defs>
		<clipPath id="SVGID_00000046334939783987641100000005948530668786998671_">
			<use xlink:href="#SVGID_00000091727810351615133630000016238708537631093889_"  style="overflow:visible;"/>
		</clipPath>
		<g style="clip-path:url(#SVGID_00000046334939783987641100000005948530668786998671_);">
			<path class="st3" d="M997.19,819.82H1.69c-0.93,0-1.69-0.75-1.69-1.68V2.81c0-0.93,0.75-1.68,1.69-1.68h995.5
				c0.93,0,1.69,0.75,1.69,1.68v815.33C998.88,819.07,998.12,819.82,997.19,819.82z M3.37,816.45H995.5V4.49H3.37V816.45z"/>
		</g>
		<g style="clip-path:url(#SVGID_00000046334939783987641100000005948530668786998671_);">
			<rect x="4.49" y="118.01" class="st3" width="995.5" height="3.37"/>
		</g>
		<g style="clip-path:url(#SVGID_00000046334939783987641100000005948530668786998671_);">
			<path class="st4" d="M925.42,67.68c0-6.43-3.8-10.45-11.32-11.18l-5.99-0.58c-3.36-0.29-3.94-1.9-3.94-3.29
				c0-1.9,1.61-3.66,5.41-3.66c3.29,0,6.65,0.58,8.84,2.56l5.84-5.92c-3.65-3.43-8.62-4.45-14.54-4.45
				c-7.74,0-14.68,4.23-14.68,12.12c0,7.01,4.24,10.01,11.1,10.67l5.99,0.58c3,0.3,4.02,1.61,4.02,3.51c0,2.85-3.43,3.94-6.72,3.94
				c-2.92,0-7.01-0.44-10.15-3.58l-6.21,6.2c4.82,4.82,10.23,5.47,16.22,5.47C918.26,80.09,925.42,76.08,925.42,67.68 M887.8,67.68
				c0-6.43-3.8-10.45-11.32-11.18l-5.99-0.58c-3.36-0.29-3.94-1.9-3.94-3.29c0-1.9,1.61-3.66,5.41-3.66c3.29,0,6.65,0.58,8.84,2.56
				l5.84-5.92c-3.65-3.43-8.62-4.45-14.54-4.45c-7.74,0-14.68,4.23-14.68,12.12c0,7.01,4.24,10.01,11.1,10.67l5.99,0.58
				c2.99,0.3,4.02,1.61,4.02,3.51c0,2.85-3.43,3.94-6.72,3.94c-2.92,0-7.01-0.44-10.15-3.58l-6.21,6.2
				c4.82,4.82,10.23,5.47,16.22,5.47C880.64,80.09,887.8,76.08,887.8,67.68 M847.04,79.65V41.6h-9.49v23.01
				c0,5.19-3.36,6.94-6.36,6.94c-2.99,0-6.28-1.75-6.28-6.94V41.6h-9.49v24.32c0,4.16,0.8,7.74,3.87,10.81
				c2.11,2.12,5.18,3.35,8.98,3.35c3.51,0,7.02-1.31,9.5-3.94v3.5H847.04z M806.79,79.65v-8.02h-3.65c-2.41,0-3.36-1.17-3.36-3.43
				V27.65h-9.49v41.13c0,5.4,3.29,10.87,11.1,10.87H806.79z M778.96,79.65V55.03c0-8.03-4.38-13.87-12.7-13.87
				c-3.36,0-6.58,1.31-9.14,3.94V27.65h-9.49v52h9.49V56.42c0-4.97,3.14-6.72,6.14-6.72c2.99,0,6.21,1.68,6.21,6.72v23.23H778.96z
				 M738.78,74.91l-6.43-6.35c-1.97,2.12-3.65,2.99-6.14,2.99c-2.26,0-4.02-0.8-5.41-2.48c-1.46-1.83-2.12-4.46-2.12-8.48
				s0.66-6.57,2.12-8.4c1.39-1.69,3.14-2.49,5.41-2.49c2.48,0,4.16,0.88,6.14,3l6.43-6.43c-3.36-3.5-7.3-5.11-12.56-5.11
				c-7.6,0-17.01,4.01-17.01,19.43s9.42,19.5,17.01,19.5C731.48,80.09,735.42,78.41,738.78,74.91 M701.68,67.68
				c0-6.43-3.8-10.45-11.32-11.18l-5.99-0.58c-3.36-0.29-3.94-1.9-3.94-3.29c0-1.9,1.61-3.66,5.41-3.66c3.29,0,6.65,0.58,8.84,2.56
				l5.84-5.92c-3.65-3.43-8.62-4.45-14.54-4.45c-7.74,0-14.68,4.23-14.68,12.12c0,7.01,4.24,10.01,11.1,10.67l5.99,0.58
				c2.99,0.3,4.02,1.61,4.02,3.51c0,2.85-3.43,3.94-6.72,3.94c-2.92,0-7.01-0.44-10.15-3.58l-6.21,6.2
				c4.82,4.82,10.23,5.47,16.22,5.47C694.52,80.09,701.68,76.08,701.68,67.68 M653.04,60.59c0,6.21-0.73,10.96-6.43,10.96
				s-6.43-4.75-6.43-10.96c0-6.21,0.73-10.89,6.43-10.89S653.04,54.38,653.04,60.59 M662.52,60.59c0-5.7-0.07-12.2-3.87-16
				c-2.12-2.11-5.55-3.43-9.28-3.43c-3.87,0-6.73,1.02-9.21,3.79V27.65h-9.48v52h9.19v-3.57c2.63,2.92,5.48,4.01,9.5,4.01
				c3.73,0,7.16-1.31,9.28-3.43C662.45,72.87,662.52,66.29,662.52,60.59 M609.5,65.63c0,2.34-0.37,3.87-1.39,4.83
				c-1.69,1.61-3.37,1.83-6,1.83c-3.73,0-5.48-1.75-5.48-4.39c0-2.7,1.9-4.32,5.34-4.32h7.53V65.63z M618.98,79.65V54.6
				c0-8.91-5.55-13.44-16.21-13.44c-6.36,0-10.01,1.17-13.73,5.25l6.06,5.92c1.97-2.26,3.65-3.15,7.31-3.15c5.04,0,7.09,1.83,7.09,6
				v1.9h-8.99c-8.84,0-13,4.96-13,11.02c0,3.37,1.09,6.43,3.14,8.55c2.26,2.26,5.4,3.35,9.72,3.35c4.38,0,6.79-1.09,9.36-3.65v3.28
				H618.98z M581.15,79.65v-8.02h-3.65c-2.41,0-3.36-1.17-3.36-3.43V27.65h-9.49v41.13c0,5.4,3.28,10.87,11.09,10.87H581.15z
				 M552.88,79.65V41.6h-9.49v23.01c0,5.19-3.37,6.94-6.36,6.94c-2.99,0-6.29-1.75-6.29-6.94V41.6h-9.49v24.32
				c0,4.16,0.8,7.74,3.87,10.81c2.12,2.12,5.18,3.35,8.98,3.35c3.51,0,7.01-1.31,9.5-3.94v3.5H552.88z M510,79.65V55.03
				c0-8.03-4.38-13.87-12.7-13.87c-3.36,0-6.57,1.31-9.14,3.94V27.65h-9.49v52h9.49V56.42c0-4.97,3.15-6.72,6.14-6.72
				c2.99,0,6.21,1.68,6.21,6.72v23.23H510z M469.82,74.91l-6.43-6.35c-1.97,2.12-3.65,2.99-6.14,2.99c-2.26,0-4.02-0.8-5.41-2.48
				c-1.46-1.83-2.12-4.46-2.12-8.48s0.66-6.57,2.12-8.4c1.39-1.69,3.14-2.49,5.41-2.49c2.48,0,4.16,0.88,6.14,3l6.43-6.43
				c-3.36-3.5-7.3-5.11-12.56-5.11c-7.6,0-17.01,4.01-17.01,19.43s9.41,19.5,17.01,19.5C462.52,80.09,466.46,78.41,469.82,74.91
				 M432.72,67.68c0-6.43-3.8-10.45-11.32-11.18l-5.99-0.58c-3.36-0.29-3.94-1.9-3.94-3.29c0-1.9,1.61-3.66,5.41-3.66
				c3.29,0,6.65,0.58,8.84,2.56l5.84-5.92c-3.65-3.43-8.62-4.45-14.54-4.45c-7.74,0-14.68,4.23-14.68,12.12
				c0,7.01,4.24,10.01,11.1,10.67l5.99,0.58c2.99,0.3,4.02,1.61,4.02,3.51c0,2.85-3.43,3.94-6.72,3.94c-2.92,0-7.01-0.44-10.15-3.58
				l-6.21,6.2c4.82,4.82,10.23,5.47,16.22,5.47C425.56,80.09,432.72,76.08,432.72,67.68 M395.02,79.65v-8.02h-3.66
				c-2.41,0-3.35-1.17-3.35-3.43V27.65h-9.49v41.13c0,5.4,3.29,10.87,11.09,10.87H395.02z M357.7,65.63c0,2.34-0.37,3.87-1.39,4.83
				c-1.68,1.61-3.36,1.83-6,1.83c-3.73,0-5.48-1.75-5.48-4.39c0-2.7,1.9-4.32,5.33-4.32h7.53V65.63z M367.19,79.65V54.6
				c0-8.91-5.55-13.44-16.22-13.44c-6.36,0-10.01,1.17-13.73,5.25l6.06,5.92c1.97-2.26,3.65-3.15,7.3-3.15c5.05,0,7.09,1.83,7.09,6
				v1.9h-8.99c-8.84,0-13,4.96-13,11.02c0,3.37,1.1,6.43,3.14,8.55c2.26,2.26,5.4,3.35,9.71,3.35c4.39,0,6.8-1.09,9.36-3.65v3.28
				H367.19z M318.84,57.09h-14.46c0.07-1.68,0.29-2.71,0.88-4.1c1.02-2.26,3.14-3.95,6.36-3.95s5.33,1.69,6.36,3.95
				C318.54,54.38,318.76,55.41,318.84,57.09 M328.19,63.58v-4.23c0-10.45-5.99-18.18-16.58-18.18c-9.86,0-16.58,7.01-16.58,19.43
				c0,15.41,8.61,19.5,17.6,19.5c6.87,0,10.59-2.11,14.46-5.98l-5.77-5.63c-2.41,2.42-4.46,3.58-8.62,3.58
				c-5.33,0-8.33-3.58-8.33-8.48H328.19z M292.32,44.74c-2.63-2.62-5.26-3.57-8.98-3.57c-4.09,0-7.74,1.9-9.57,4.09V41.6h-9.27
				v38.05h9.49V56.71c0-4.82,3.21-7.01,6.14-7.01c2.34,0,3.58,0.8,5.04,2.26L292.32,44.74z M256.82,79.65l-14.61-22.71L255.8,41.6
				h-11.47l-12.64,15.55V27.65h-9.49v52h9.49V68.33l4.02-4.53l9.35,15.85H256.82z M215.33,44.74c-2.63-2.62-5.26-3.57-8.98-3.57
				c-4.09,0-7.74,1.9-9.57,4.09V41.6h-9.27v38.05h9.49V56.71c0-4.82,3.21-7.01,6.14-7.01c2.34,0,3.58,0.8,5.04,2.26L215.33,44.74z
				 M167.92,57.09h-14.46c0.07-1.68,0.29-2.71,0.88-4.1c1.02-2.26,3.14-3.95,6.36-3.95c3.21,0,5.33,1.69,6.36,3.95
				C167.63,54.38,167.85,55.41,167.92,57.09 M177.27,63.58v-4.23c0-10.45-5.99-18.18-16.58-18.18c-9.86,0-16.57,7.01-16.57,19.43
				c0,15.41,8.61,19.5,17.59,19.5c6.87,0,10.59-2.11,14.46-5.98l-5.77-5.63c-2.41,2.42-4.46,3.58-8.62,3.58
				c-5.33,0-8.33-3.58-8.33-8.48H177.27z M141.7,27.65h-10.59L123,60.44l-9.5-32.79h-7.6l-9.5,32.79l-8.04-32.79H77.78l13.88,52
				h8.47l9.57-31.55l9.57,31.55h8.47L141.7,27.65z"/>
		</g>
		<g style="clip-path:url(#SVGID_00000046334939783987641100000005948530668786998671_);">
			<rect x="3.09" y="348.95" class="st3" width="992.7" height="3.37"/>
		</g>
		<g style="clip-path:url(#SVGID_00000046334939783987641100000005948530668786998671_);">
			<rect x="3.09" y="232.07" class="st3" width="992.7" height="3.37"/>
		</g>
		<g style="clip-path:url(#SVGID_00000046334939783987641100000005948530668786998671_);">
			<rect x="3.09" y="463.01" class="st3" width="992.7" height="3.37"/>
		</g>
		<g style="clip-path:url(#SVGID_00000046334939783987641100000005948530668786998671_);">
			<rect x="3.09" y="585.51" class="st3" width="992.7" height="3.37"/>
		</g>
		<g style="clip-path:url(#SVGID_00000046334939783987641100000005948530668786998671_);">
			<rect x="3.09" y="702.39" class="st3" width="992.7" height="3.37"/>
		</g>
		<g style="clip-path:url(#SVGID_00000046334939783987641100000005948530668786998671_);">
			<path class="st3" d="M698.95,661.25c0,4.06-2.4,6.62-5.82,6.62c-3.42,0-5.77-2.57-5.77-6.62c0-4.11,2.35-6.57,5.77-6.57
				C696.76,654.69,698.95,657.52,698.95,661.25 M704.39,661.15c0-6.68-4.48-10.99-9.98-10.99c-1.17,0-2.35,0.16-3.36,0.58
				l8.17-16.33h-5.82l-8.65,17.62c-1.65,3.3-2.83,6.24-2.83,9.34c0,7.05,4.69,11.37,11.26,11.37S704.39,668.14,704.39,661.15
				 M663.07,668.89l-3.68-3.63c-1.66,1.66-2.78,2.62-5.23,2.62c-4.38,0-6.62-3.05-6.62-9.02c0-5.88,2.24-8.97,6.62-8.97
				c2.4,0,3.63,0.96,5.23,2.56l3.68-3.57c-1.71-1.71-2.56-2.29-4-2.93c-1.39-0.58-2.99-0.9-4.86-0.9c-7.57,0-12.11,5.17-12.11,13.72
				c0,8.81,4.48,13.98,12.11,13.98c1.87,0,3.42-0.26,4.86-0.9C660.51,671.18,661.36,670.6,663.07,668.89 M629.18,662.64
				c0,3.95-1.71,5.56-5.93,5.56c-3.69,0-5.34-1.23-5.34-3.85c0-2.56,1.65-3.85,4.86-3.85h6.41V662.64z M634.57,672.41v-18.09
				c0-6.14-3.79-9.28-11.32-9.28c-2.56,0-4.48,0.32-6.03,1.06c-1.33,0.59-2.02,1.23-3.52,2.83l3.57,3.37
				c0.8-1.02,1.39-1.55,2.19-1.92c0.96-0.48,2.08-0.7,3.64-0.7c4.27,0,6.09,1.49,6.09,5.02v1.98h-7.27c-5.77,0-9.28,2.93-9.28,7.84
				c0,5.23,3.36,8.16,9.39,8.16c3.21,0,4.97-0.48,7.21-2.71v2.45H634.57z M605.43,672.41v-27.06H586.9v11.26
				c0,10.47-2.78,11-5.12,11h-0.85v4.8h2.56c5.28,0,8.64-2.98,8.64-14.46v-7.85h7.86v22.31H605.43z M557.17,672.41v-19.85
				l15.32,19.85h7.32l-15.96-20.07l14.63-17.94h-7.1l-14.2,18.04v-18.04h-5.76v38H557.17z M532.56,630.46h-5.23l-15.22,45.9h5.23
				L532.56,630.46z M489.81,661.25c0,4.06-2.4,6.62-5.82,6.62c-3.42,0-5.77-2.57-5.77-6.62c0-4.11,2.35-6.57,5.77-6.57
				C487.62,654.69,489.81,657.52,489.81,661.25 M495.25,661.15c0-6.68-4.48-10.99-9.98-10.99c-1.17,0-2.35,0.16-3.37,0.58
				l8.18-16.33h-5.82l-8.65,17.62c-1.66,3.3-2.83,6.24-2.83,9.34c0,7.05,4.69,11.37,11.26,11.37
				C490.6,672.73,495.25,668.14,495.25,661.15 M447.63,656.67h-12.17c0.06-1.66,0.16-2.46,0.7-3.69c0.85-2.03,2.83-3.42,5.39-3.42
				c2.56,0,4.48,1.39,5.34,3.42C447.42,654.21,447.58,655.01,447.63,656.67 M453.02,660.45v-2.4c0-7.69-4.22-13.02-11.48-13.02
				c-6.94,0-11.47,5.06-11.47,13.82c0,10.31,5.38,13.88,12.17,13.88c4.75,0,7.37-1.44,10.14-4.21l-3.47-3.26
				c-1.92,1.92-3.52,2.78-6.56,2.78c-4.43,0-6.89-2.94-6.89-7.59H453.02z M424.31,664.14c0-4.8-2.99-7.21-8.06-7.64l-4.27-0.37
				c-2.88-0.27-3.74-1.49-3.74-3.1c0-2.03,1.65-3.47,4.91-3.47c2.56,0,4.96,0.53,6.67,1.98l3.42-3.47
				c-2.51-2.19-5.98-3.03-10.04-3.03c-5.66,0-10.19,2.98-10.19,8.27c0,4.75,2.93,7.05,8.01,7.48l4.32,0.37
				c2.62,0.21,3.63,1.39,3.63,3.2c0,2.57-2.61,3.74-5.92,3.74c-2.67,0-5.61-0.59-7.79-2.83l-3.58,3.57
				c3.2,3.15,6.94,3.89,11.37,3.89C419.5,672.73,424.31,669.8,424.31,664.14 M397.46,664.14c0-4.8-2.99-7.21-8.06-7.64l-4.27-0.37
				c-2.88-0.27-3.74-1.49-3.74-3.1c0-2.03,1.66-3.47,4.91-3.47c2.56,0,4.97,0.53,6.68,1.98l3.42-3.47
				c-2.51-2.19-5.98-3.03-10.04-3.03c-5.66,0-10.2,2.98-10.2,8.27c0,4.75,2.94,7.05,8.01,7.48l4.33,0.37
				c2.61,0.21,3.63,1.39,3.63,3.2c0,2.57-2.62,3.74-5.93,3.74c-2.67,0-5.6-0.59-7.79-2.83l-3.57,3.57c3.2,3.15,6.94,3.89,11.37,3.89
				C392.65,672.73,397.46,669.8,397.46,664.14 M363.08,662.64c0,1.92-0.37,3.2-1.17,4.01c-1.44,1.39-2.99,1.55-5.07,1.55
				c-3.42,0-4.97-1.39-4.97-3.85c0-2.46,1.66-3.9,4.86-3.9h6.36V662.64z M368.52,672.41v-18.09c0-6.14-3.73-9.28-11.15-9.28
				c-4.48,0-7.15,0.9-9.71,3.89l3.57,3.37c1.49-1.92,2.94-2.62,5.93-2.62c4.22,0,5.93,1.66,5.93,5.07v1.93h-7.15
				c-6.19,0-9.34,3.25-9.34,7.79c0,2.3,0.75,4.38,2.14,5.82c1.65,1.65,3.89,2.45,7.25,2.45c3.37,0,5.24-0.8,7.21-2.77v2.45H368.52z
				 M342.1,672.41v-4.64h-2.4c-2.19,0-2.93-1.07-2.93-3.15v-30.21h-5.44v30.53c0,4,2.24,7.47,7.41,7.47H342.1z M326.08,672.41
				l-13.62-23.11l12.33-14.89h-7.05l-15.54,19.11v-19.11h-5.75v38h5.75v-11.05l6.41-7.69l10.68,18.73H326.08z"/>
		</g>
		<g style="clip-path:url(#SVGID_00000046334939783987641100000005948530668786998671_);">
			<path class="st3" d="M704.93,516.77v-4.85h-22.63v10.83h5.23v-5.98h11.58l-12.76,33.15h5.87L704.93,516.77z M663.07,546.39
				l-3.68-3.63c-1.66,1.66-2.78,2.62-5.23,2.62c-4.38,0-6.62-3.05-6.62-9.02c0-5.88,2.24-8.97,6.62-8.97c2.4,0,3.63,0.96,5.23,2.56
				l3.68-3.57c-1.71-1.71-2.56-2.29-4-2.93c-1.39-0.58-2.99-0.9-4.86-0.9c-7.57,0-12.11,5.17-12.11,13.72
				c0,8.81,4.48,13.98,12.11,13.98c1.87,0,3.42-0.26,4.86-0.9C660.51,548.69,661.36,548.1,663.07,546.39 M629.18,540.15
				c0,3.95-1.71,5.56-5.93,5.56c-3.69,0-5.34-1.23-5.34-3.85c0-2.56,1.65-3.84,4.86-3.84h6.41V540.15z M634.57,549.91v-18.09
				c0-6.14-3.79-9.28-11.32-9.28c-2.56,0-4.48,0.32-6.03,1.06c-1.33,0.59-2.02,1.23-3.52,2.83l3.57,3.37
				c0.8-1.02,1.39-1.55,2.19-1.92c0.96-0.48,2.08-0.7,3.64-0.7c4.27,0,6.09,1.49,6.09,5.02v1.98h-7.27c-5.77,0-9.28,2.93-9.28,7.84
				c0,5.23,3.36,8.16,9.39,8.16c3.21,0,4.97-0.48,7.21-2.72v2.45H634.57z M605.43,549.91v-27.06H586.9v11.26
				c0,10.47-2.78,11-5.12,11h-0.85v4.8h2.56c5.28,0,8.64-2.98,8.64-14.46v-7.85h7.86v22.31H605.43z M557.17,549.91v-19.85
				l15.32,19.85h7.32l-15.96-20.07l14.63-17.94h-7.1l-14.2,18.04v-18.04h-5.76v38H557.17z M532.56,507.96h-5.23l-15.22,45.9h5.23
				L532.56,507.96z M495.79,516.77v-4.85h-22.63v10.83h5.23v-5.98h11.58l-12.76,33.15h5.87L495.79,516.77z M447.63,534.17h-12.17
				c0.06-1.66,0.16-2.46,0.7-3.69c0.85-2.03,2.83-3.42,5.39-3.42c2.56,0,4.48,1.39,5.34,3.42
				C447.42,531.71,447.58,532.52,447.63,534.17 M453.02,537.95v-2.4c0-7.69-4.22-13.02-11.48-13.02c-6.94,0-11.47,5.06-11.47,13.82
				c0,10.3,5.38,13.87,12.17,13.87c4.75,0,7.37-1.44,10.14-4.21l-3.47-3.26c-1.92,1.92-3.52,2.78-6.56,2.78
				c-4.43,0-6.89-2.94-6.89-7.59H453.02z M424.31,541.64c0-4.8-2.99-7.21-8.06-7.64l-4.27-0.37c-2.88-0.27-3.74-1.49-3.74-3.1
				c0-2.03,1.65-3.47,4.91-3.47c2.56,0,4.96,0.53,6.67,1.98l3.42-3.47c-2.51-2.19-5.98-3.03-10.04-3.03
				c-5.66,0-10.19,2.98-10.19,8.27c0,4.75,2.93,7.05,8.01,7.48l4.32,0.37c2.62,0.21,3.63,1.39,3.63,3.2c0,2.57-2.61,3.74-5.92,3.74
				c-2.67,0-5.61-0.59-7.79-2.83l-3.58,3.58c3.2,3.14,6.94,3.89,11.37,3.89C419.5,550.23,424.31,547.3,424.31,541.64 M397.46,541.64
				c0-4.8-2.99-7.21-8.06-7.64l-4.27-0.37c-2.88-0.27-3.74-1.49-3.74-3.1c0-2.03,1.66-3.47,4.91-3.47c2.56,0,4.97,0.53,6.68,1.98
				l3.42-3.47c-2.51-2.19-5.98-3.03-10.04-3.03c-5.66,0-10.2,2.98-10.2,8.27c0,4.75,2.94,7.05,8.01,7.48l4.33,0.37
				c2.61,0.21,3.63,1.39,3.63,3.2c0,2.57-2.62,3.74-5.93,3.74c-2.67,0-5.6-0.59-7.79-2.83l-3.57,3.58c3.2,3.14,6.94,3.89,11.37,3.89
				C392.65,550.23,397.46,547.3,397.46,541.64 M363.08,540.15c0,1.92-0.37,3.2-1.17,4.01c-1.44,1.39-2.99,1.55-5.07,1.55
				c-3.42,0-4.97-1.39-4.97-3.85c0-2.46,1.66-3.9,4.86-3.9h6.36V540.15z M368.52,549.91v-18.09c0-6.14-3.73-9.28-11.15-9.28
				c-4.48,0-7.15,0.9-9.71,3.89l3.57,3.37c1.49-1.92,2.94-2.62,5.93-2.62c4.22,0,5.93,1.66,5.93,5.07v1.93h-7.15
				c-6.19,0-9.34,3.25-9.34,7.79c0,2.3,0.75,4.38,2.14,5.82c1.65,1.65,3.89,2.45,7.25,2.45c3.37,0,5.24-0.8,7.21-2.77v2.45H368.52z
				 M342.1,549.91v-4.64h-2.4c-2.19,0-2.93-1.07-2.93-3.15v-30.21h-5.44v30.53c0,4,2.24,7.47,7.41,7.47H342.1z M326.08,549.91
				l-13.62-23.11l12.33-14.89h-7.05l-15.54,19.11v-19.11h-5.75v38h5.75v-11.05l6.41-7.69l10.68,18.73H326.08z"/>
		</g>
		<g style="clip-path:url(#SVGID_00000046334939783987641100000005948530668786998671_);">
			<path class="st3" d="M698.79,405.39c0,3.36-2.35,5.77-5.66,5.77c-3.31,0-5.61-2.4-5.61-5.77c0-3.32,2.3-5.82,5.61-5.82
				C696.44,399.57,698.79,402.07,698.79,405.39 M699.38,422.2c0,3.52-2.72,6.3-6.25,6.3c-3.52,0-6.25-2.78-6.25-6.3
				c0-3.52,2.73-6.36,6.25-6.36C696.66,415.85,699.38,418.68,699.38,422.2 M704.87,422.31c0-4.54-2.56-7.32-5.23-8.91
				c2.45-1.49,4.59-4.16,4.59-8.17c0-6.36-4.91-10.51-11.1-10.51c-6.19,0-11.05,4.16-11.05,10.51c0,4.01,2.14,6.68,4.59,8.17
				c-2.66,1.6-5.23,4.37-5.23,8.91c0,6.89,5.18,11.05,11.69,11.05C699.65,433.36,704.87,429.2,704.87,422.31 M663.07,429.52
				l-3.68-3.63c-1.66,1.66-2.78,2.62-5.23,2.62c-4.38,0-6.62-3.05-6.62-9.02c0-5.88,2.24-8.97,6.62-8.97c2.4,0,3.63,0.96,5.23,2.56
				l3.68-3.57c-1.71-1.71-2.56-2.29-4-2.93c-1.39-0.58-2.99-0.9-4.86-0.9c-7.57,0-12.11,5.17-12.11,13.72
				c0,8.81,4.48,13.98,12.11,13.98c1.87,0,3.42-0.26,4.86-0.9C660.51,431.81,661.36,431.23,663.07,429.52 M629.18,423.27
				c0,3.95-1.71,5.56-5.93,5.56c-3.69,0-5.34-1.23-5.34-3.85c0-2.56,1.65-3.84,4.86-3.84h6.41V423.27z M634.57,433.04v-18.09
				c0-6.14-3.79-9.28-11.32-9.28c-2.56,0-4.48,0.32-6.03,1.06c-1.33,0.59-2.02,1.23-3.52,2.83l3.57,3.37
				c0.8-1.02,1.39-1.55,2.19-1.92c0.96-0.48,2.08-0.7,3.64-0.7c4.27,0,6.09,1.49,6.09,5.02v1.98h-7.27c-5.77,0-9.28,2.93-9.28,7.84
				c0,5.23,3.36,8.16,9.39,8.16c3.21,0,4.97-0.48,7.21-2.72v2.45H634.57z M605.43,433.04v-27.06H586.9v11.26
				c0,10.47-2.78,11-5.12,11h-0.85v4.8h2.56c5.28,0,8.64-2.98,8.64-14.46v-7.85h7.86v22.31H605.43z M557.17,433.04v-19.85
				l15.32,19.85h7.32l-15.96-20.07l14.63-17.94h-7.1l-14.2,18.04v-18.04h-5.76v38H557.17z M532.56,391.08h-5.23l-15.22,45.9h5.23
				L532.56,391.08z M489.65,405.39c0,3.36-2.35,5.77-5.66,5.77c-3.31,0-5.61-2.4-5.61-5.77c0-3.32,2.3-5.82,5.61-5.82
				C487.3,399.57,489.65,402.07,489.65,405.39 M490.23,422.2c0,3.52-2.73,6.3-6.25,6.3c-3.52,0-6.25-2.78-6.25-6.3
				c0-3.52,2.73-6.36,6.25-6.36C487.51,415.85,490.23,418.68,490.23,422.2 M495.72,422.31c0-4.54-2.56-7.32-5.22-8.91
				c2.45-1.49,4.59-4.16,4.59-8.17c0-6.36-4.91-10.51-11.1-10.51c-6.19,0-11.05,4.16-11.05,10.51c0,4.01,2.14,6.68,4.59,8.17
				c-2.66,1.6-5.23,4.37-5.23,8.91c0,6.89,5.18,11.05,11.69,11.05C490.5,433.36,495.72,429.2,495.72,422.31 M447.63,417.3h-12.17
				c0.06-1.66,0.16-2.46,0.7-3.69c0.85-2.03,2.83-3.42,5.39-3.42c2.56,0,4.48,1.39,5.34,3.42
				C447.42,414.83,447.58,415.64,447.63,417.3 M453.02,421.08v-2.4c0-7.69-4.22-13.02-11.48-13.02c-6.94,0-11.47,5.06-11.47,13.82
				c0,10.3,5.38,13.87,12.17,13.87c4.75,0,7.37-1.44,10.14-4.21l-3.47-3.26c-1.92,1.92-3.52,2.78-6.56,2.78
				c-4.43,0-6.89-2.94-6.89-7.59H453.02z M424.31,424.76c0-4.8-2.99-7.21-8.06-7.64l-4.27-0.37c-2.88-0.27-3.74-1.49-3.74-3.1
				c0-2.03,1.65-3.47,4.91-3.47c2.56,0,4.96,0.53,6.67,1.98l3.42-3.47c-2.51-2.19-5.98-3.03-10.04-3.03
				c-5.66,0-10.19,2.98-10.19,8.27c0,4.75,2.93,7.05,8.01,7.48l4.32,0.37c2.62,0.21,3.63,1.39,3.63,3.2c0,2.57-2.61,3.74-5.92,3.74
				c-2.67,0-5.61-0.59-7.79-2.83l-3.58,3.58c3.2,3.14,6.94,3.89,11.37,3.89C419.5,433.36,424.31,430.42,424.31,424.76
				 M397.46,424.76c0-4.8-2.99-7.21-8.06-7.64l-4.27-0.37c-2.88-0.27-3.74-1.49-3.74-3.1c0-2.03,1.66-3.47,4.91-3.47
				c2.56,0,4.97,0.53,6.68,1.98l3.42-3.47c-2.51-2.19-5.98-3.03-10.04-3.03c-5.66,0-10.2,2.98-10.2,8.27c0,4.75,2.94,7.05,8.01,7.48
				l4.33,0.37c2.61,0.21,3.63,1.39,3.63,3.2c0,2.57-2.62,3.74-5.93,3.74c-2.67,0-5.6-0.59-7.79-2.83l-3.57,3.58
				c3.2,3.14,6.94,3.89,11.37,3.89C392.65,433.36,397.46,430.42,397.46,424.76 M363.08,423.27c0,1.92-0.37,3.2-1.17,4.01
				c-1.44,1.39-2.99,1.55-5.07,1.55c-3.42,0-4.97-1.39-4.97-3.85s1.66-3.9,4.86-3.9h6.36V423.27z M368.52,433.04v-18.09
				c0-6.14-3.73-9.28-11.15-9.28c-4.48,0-7.15,0.9-9.71,3.89l3.57,3.37c1.49-1.92,2.94-2.62,5.93-2.62c4.22,0,5.93,1.66,5.93,5.07
				v1.93h-7.15c-6.19,0-9.34,3.25-9.34,7.79c0,2.3,0.75,4.38,2.14,5.82c1.65,1.65,3.89,2.45,7.25,2.45c3.37,0,5.24-0.8,7.21-2.77
				v2.45H368.52z M342.1,433.04v-4.64h-2.4c-2.19,0-2.93-1.07-2.93-3.15v-30.21h-5.44v30.53c0,4,2.24,7.47,7.41,7.47H342.1z
				 M326.08,433.04l-13.62-23.11l12.33-14.89h-7.05l-15.54,19.11v-19.11h-5.75v38h5.75v-11.05l6.41-7.69l10.68,18.73H326.08z"/>
		</g>
		<g style="clip-path:url(#SVGID_00000046334939783987641100000005948530668786998671_);">
			<path class="st3" d="M698.95,289.31c0,4.11-2.4,6.57-5.82,6.57c-3.63,0-5.77-2.83-5.77-6.57c0-4.06,2.35-6.62,5.77-6.62
				C696.55,282.69,698.95,285.25,698.95,289.31 M704.39,289.2c0-7.05-4.69-11.37-11.26-11.37c-6.57,0-11.2,4.59-11.2,11.58
				c0,6.68,4.42,11,9.92,11c1.17,0,2.4-0.16,3.42-0.59l-8.18,16.33h5.82l8.65-17.62C703.22,295.24,704.39,292.3,704.39,289.2
				 M663.07,312.64l-3.68-3.63c-1.66,1.66-2.78,2.62-5.23,2.62c-4.38,0-6.62-3.05-6.62-9.02c0-5.88,2.24-8.97,6.62-8.97
				c2.4,0,3.63,0.96,5.23,2.56l3.68-3.57c-1.71-1.71-2.56-2.29-4-2.93c-1.39-0.58-2.99-0.9-4.86-0.9c-7.57,0-12.11,5.17-12.11,13.72
				c0,8.81,4.48,13.98,12.11,13.98c1.87,0,3.42-0.26,4.86-0.9C660.51,314.93,661.36,314.35,663.07,312.64 M629.18,306.39
				c0,3.95-1.71,5.56-5.93,5.56c-3.69,0-5.34-1.23-5.34-3.85c0-2.56,1.65-3.84,4.86-3.84h6.41V306.39z M634.57,316.16v-18.09
				c0-6.14-3.79-9.28-11.32-9.28c-2.56,0-4.48,0.32-6.03,1.06c-1.33,0.59-2.02,1.23-3.52,2.83l3.57,3.37
				c0.8-1.02,1.39-1.55,2.19-1.92c0.96-0.48,2.08-0.7,3.64-0.7c4.27,0,6.09,1.49,6.09,5.02v1.98h-7.27c-5.77,0-9.28,2.93-9.28,7.84
				c0,5.23,3.36,8.16,9.39,8.16c3.21,0,4.97-0.48,7.21-2.72v2.45H634.57z M605.43,316.16V289.1H586.9v11.26c0,10.47-2.78,11-5.12,11
				h-0.85v4.8h2.56c5.28,0,8.64-2.98,8.64-14.46v-7.85h7.86v22.31H605.43z M557.17,316.16v-19.85l15.32,19.85h7.32l-15.96-20.07
				l14.63-17.94h-7.1l-14.2,18.04v-18.04h-5.76v38H557.17z M532.56,274.21h-5.23l-15.22,45.9h5.23L532.56,274.21z M489.81,289.31
				c0,4.11-2.4,6.57-5.82,6.57c-3.63,0-5.77-2.83-5.77-6.57c0-4.06,2.35-6.62,5.77-6.62C487.4,282.69,489.81,285.25,489.81,289.31
				 M495.25,289.2c0-7.05-4.69-11.37-11.26-11.37s-11.2,4.59-11.2,11.58c0,6.68,4.42,11,9.92,11c1.17,0,2.4-0.16,3.42-0.59
				l-8.17,16.33h5.82l8.65-17.62C494.07,295.24,495.25,292.3,495.25,289.2 M447.63,300.42h-12.17c0.06-1.66,0.16-2.46,0.7-3.69
				c0.85-2.03,2.83-3.42,5.39-3.42c2.56,0,4.48,1.39,5.34,3.42C447.42,297.96,447.58,298.76,447.63,300.42 M453.02,304.2v-2.4
				c0-7.69-4.22-13.02-11.48-13.02c-6.94,0-11.47,5.06-11.47,13.82c0,10.3,5.38,13.87,12.17,13.87c4.75,0,7.37-1.44,10.14-4.21
				l-3.47-3.26c-1.92,1.92-3.52,2.78-6.56,2.78c-4.43,0-6.89-2.94-6.89-7.59H453.02z M424.31,307.89c0-4.8-2.99-7.21-8.06-7.64
				l-4.27-0.37c-2.88-0.27-3.74-1.49-3.74-3.1c0-2.03,1.65-3.47,4.91-3.47c2.56,0,4.96,0.53,6.67,1.98l3.42-3.47
				c-2.51-2.19-5.98-3.03-10.04-3.03c-5.66,0-10.19,2.98-10.19,8.27c0,4.75,2.93,7.05,8.01,7.48l4.32,0.37
				c2.62,0.21,3.63,1.39,3.63,3.2c0,2.57-2.61,3.74-5.92,3.74c-2.67,0-5.61-0.59-7.79-2.83l-3.58,3.58
				c3.2,3.14,6.94,3.89,11.37,3.89C419.5,316.48,424.31,313.55,424.31,307.89 M397.46,307.89c0-4.8-2.99-7.21-8.06-7.64l-4.27-0.37
				c-2.88-0.27-3.74-1.49-3.74-3.1c0-2.03,1.66-3.47,4.91-3.47c2.56,0,4.97,0.53,6.68,1.98l3.42-3.47
				c-2.51-2.19-5.98-3.03-10.04-3.03c-5.66,0-10.2,2.98-10.2,8.27c0,4.75,2.94,7.05,8.01,7.48l4.33,0.37
				c2.61,0.21,3.63,1.39,3.63,3.2c0,2.57-2.62,3.74-5.93,3.74c-2.67,0-5.6-0.59-7.79-2.83l-3.57,3.58c3.2,3.14,6.94,3.89,11.37,3.89
				C392.65,316.48,397.46,313.55,397.46,307.89 M363.08,306.39c0,1.92-0.37,3.2-1.17,4.01c-1.44,1.39-2.99,1.55-5.07,1.55
				c-3.42,0-4.97-1.39-4.97-3.85c0-2.46,1.66-3.9,4.86-3.9h6.36V306.39z M368.52,316.16v-18.09c0-6.14-3.73-9.28-11.15-9.28
				c-4.48,0-7.15,0.9-9.71,3.89l3.57,3.37c1.49-1.92,2.94-2.62,5.93-2.62c4.22,0,5.93,1.66,5.93,5.07v1.93h-7.15
				c-6.19,0-9.34,3.25-9.34,7.79c0,2.3,0.75,4.38,2.14,5.82c1.65,1.65,3.89,2.45,7.25,2.45c3.37,0,5.24-0.8,7.21-2.77v2.45H368.52z
				 M342.1,316.16v-4.64h-2.4c-2.19,0-2.93-1.07-2.93-3.15v-30.21h-5.44v30.53c0,4,2.24,7.47,7.41,7.47H342.1z M326.08,316.16
				l-13.62-23.11l12.33-14.89h-7.05l-15.54,19.11v-19.11h-5.75v38h5.75v-11.05l6.41-7.69l10.68,18.73H326.08z"/>
		</g>
		<g style="clip-path:url(#SVGID_00000046334939783987641100000005948530668786998671_);">
			<path class="st3" d="M727.67,188.55c0,3.69-2.08,6.2-5.56,6.2c-3.47,0-5.5-2.51-5.5-6.2v-16.55c0-3.69,2.03-6.19,5.5-6.19
				c3.47,0,5.56,2.51,5.56,6.19V188.55z M733.11,188.72v-16.87c0-6.78-4.96-10.88-11-10.88c-6.03,0-10.94,4.11-10.94,10.88v16.87
				c0,6.78,4.91,10.88,10.94,10.88C728.15,199.6,733.11,195.5,733.11,188.72 M697.88,199.28v-38h-5.44l-7.42,6.41v6.03l7.42-6.51
				v32.07H697.88z M663.07,195.76l-3.69-3.63c-1.65,1.66-2.78,2.62-5.23,2.62c-4.38,0-6.62-3.05-6.62-9.02
				c0-5.88,2.24-8.97,6.62-8.97c2.4,0,3.63,0.96,5.23,2.56l3.69-3.57c-1.71-1.71-2.56-2.29-4.01-2.93c-1.39-0.58-2.99-0.9-4.85-0.9
				c-7.58,0-12.11,5.17-12.11,13.72c0,8.81,4.48,13.98,12.11,13.98c1.87,0,3.42-0.26,4.85-0.9
				C660.51,198.06,661.37,197.47,663.07,195.76 M629.19,189.52c0,3.95-1.71,5.56-5.93,5.56c-3.68,0-5.34-1.23-5.34-3.85
				c0-2.56,1.66-3.84,4.86-3.84h6.41V189.52z M634.57,199.28v-18.09c0-6.14-3.79-9.28-11.32-9.28c-2.56,0-4.48,0.32-6.03,1.06
				c-1.34,0.59-2.03,1.23-3.52,2.83l3.57,3.37c0.8-1.02,1.39-1.55,2.19-1.92c0.96-0.48,2.08-0.7,3.63-0.7
				c4.27,0,6.09,1.49,6.09,5.02v1.98h-7.27c-5.77,0-9.28,2.93-9.28,7.84c0,5.23,3.35,8.16,9.39,8.16c3.2,0,4.97-0.48,7.21-2.72v2.45
				H634.57z M605.42,199.28v-27.06h-18.51v11.26c0,10.47-2.78,11-5.12,11h-0.85v4.8h2.56c5.28,0,8.64-2.98,8.64-14.46v-7.85h7.86
				v22.31H605.42z M557.17,199.28v-19.85l15.32,19.85h7.32l-15.96-20.07l14.63-17.94h-7.1l-14.2,18.04v-18.04h-5.76v38H557.17z
				 M532.56,157.33h-5.23l-15.21,45.9h5.23L532.56,157.33z M489.54,188.55c0,3.69-2.08,6.2-5.56,6.2c-3.47,0-5.5-2.51-5.5-6.2
				v-16.55c0-3.69,2.03-6.19,5.5-6.19c3.47,0,5.56,2.51,5.56,6.19V188.55z M494.98,188.72v-16.87c0-6.78-4.96-10.88-11-10.88
				c-6.03,0-10.93,4.11-10.93,10.88v16.87c0,6.78,4.9,10.88,10.93,10.88C490.02,199.6,494.98,195.5,494.98,188.72 M459.75,199.28
				v-38h-5.44l-7.42,6.41v6.03l7.42-6.51v32.07H459.75z M418.64,183.54h-12.17c0.06-1.66,0.16-2.46,0.7-3.69
				c0.85-2.03,2.83-3.42,5.39-3.42c2.56,0,4.48,1.39,5.34,3.42C418.43,181.08,418.59,181.88,418.64,183.54 M424.04,187.32v-2.4
				c0-7.69-4.22-13.02-11.48-13.02c-6.94,0-11.47,5.06-11.47,13.82c0,10.3,5.38,13.87,12.17,13.87c4.75,0,7.37-1.44,10.14-4.21
				l-3.47-3.26c-1.92,1.92-3.52,2.78-6.56,2.78c-4.43,0-6.89-2.94-6.89-7.59H424.04z M395.32,191.01c0-4.8-2.99-7.21-8.06-7.64
				l-4.27-0.37c-2.88-0.27-3.74-1.49-3.74-3.1c0-2.03,1.65-3.47,4.91-3.47c2.56,0,4.96,0.53,6.67,1.98l3.42-3.47
				c-2.51-2.19-5.98-3.03-10.04-3.03c-5.66,0-10.19,2.98-10.19,8.27c0,4.75,2.93,7.05,8.01,7.48l4.32,0.37
				c2.62,0.21,3.63,1.39,3.63,3.2c0,2.57-2.61,3.74-5.92,3.74c-2.67,0-5.61-0.59-7.79-2.83l-3.58,3.58
				c3.2,3.14,6.94,3.89,11.37,3.89C390.52,199.6,395.32,196.67,395.32,191.01 M368.47,191.01c0-4.8-2.99-7.21-8.06-7.64l-4.27-0.37
				c-2.88-0.27-3.74-1.49-3.74-3.1c0-2.03,1.66-3.47,4.91-3.47c2.56,0,4.97,0.53,6.68,1.98l3.42-3.47
				c-2.51-2.19-5.98-3.03-10.04-3.03c-5.66,0-10.2,2.98-10.2,8.27c0,4.75,2.94,7.05,8.01,7.48l4.33,0.37
				c2.61,0.21,3.63,1.39,3.63,3.2c0,2.57-2.62,3.74-5.93,3.74c-2.67,0-5.6-0.59-7.79-2.83l-3.57,3.58c3.2,3.14,6.94,3.89,11.37,3.89
				C363.67,199.6,368.47,196.67,368.47,191.01 M334.09,189.52c0,1.92-0.37,3.2-1.17,4.01c-1.44,1.39-2.99,1.55-5.07,1.55
				c-3.42,0-4.97-1.39-4.97-3.85c0-2.46,1.66-3.9,4.86-3.9h6.36V189.52z M339.53,199.28v-18.09c0-6.14-3.73-9.28-11.15-9.28
				c-4.48,0-7.15,0.9-9.71,3.89l3.57,3.37c1.49-1.92,2.94-2.62,5.93-2.62c4.22,0,5.93,1.66,5.93,5.07v1.93h-7.15
				c-6.19,0-9.34,3.25-9.34,7.79c0,2.3,0.75,4.38,2.14,5.82c1.65,1.65,3.89,2.45,7.25,2.45c3.37,0,5.24-0.8,7.21-2.77v2.45H339.53z
				 M313.11,199.28v-4.64h-2.4c-2.19,0-2.93-1.07-2.93-3.15v-30.21h-5.44v30.53c0,4,2.24,7.47,7.41,7.47H313.11z M297.1,199.28
				l-13.62-23.11l12.33-14.89h-7.05l-15.54,19.11v-19.11h-5.75v38h5.75v-11.05l6.41-7.69l10.68,18.73H297.1z"/>
		</g>
		<g style="clip-path:url(#SVGID_00000046334939783987641100000005948530668786998671_);">
			<path class="st3" d="M704.5,770.97c0-3.58-0.43-7.27-3.3-10.14c-1.55-1.55-3.84-2.46-6.83-2.46c-2.78,0-5.02,0.85-6.3,2.19
				v-10.04h15.59v-4.85h-20.49v20.76h4.96c0.58-1.87,2.3-3.42,5.39-3.42c4.38,0,5.55,3.42,5.55,7.96c0,2.56-0.21,5.07-1.81,6.68
				c-0.96,0.96-2.35,1.49-3.95,1.49c-3.42,0-5.13-1.92-5.56-5.29h-5.44c0.21,2.72,0.85,5.23,2.88,7.26
				c1.65,1.65,4.48,2.93,8.11,2.93c3.69,0,6.3-1.28,8.01-2.98C704.07,778.28,704.5,775.02,704.5,770.97 M663.07,780.15l-3.68-3.63
				c-1.66,1.66-2.78,2.62-5.23,2.62c-4.38,0-6.62-3.05-6.62-9.02c0-5.88,2.24-8.97,6.62-8.97c2.4,0,3.63,0.96,5.23,2.56l3.68-3.57
				c-1.71-1.71-2.56-2.29-4-2.93c-1.39-0.58-2.99-0.9-4.86-0.9c-7.57,0-12.11,5.17-12.11,13.72c0,8.81,4.48,13.98,12.11,13.98
				c1.87,0,3.42-0.26,4.86-0.9C660.51,782.44,661.36,781.86,663.07,780.15 M629.18,773.9c0,3.95-1.71,5.56-5.93,5.56
				c-3.69,0-5.34-1.23-5.34-3.85c0-2.56,1.65-3.84,4.86-3.84h6.41V773.9z M634.57,783.67v-18.09c0-6.14-3.79-9.28-11.32-9.28
				c-2.56,0-4.48,0.32-6.03,1.06c-1.33,0.59-2.02,1.23-3.52,2.83l3.57,3.37c0.8-1.02,1.39-1.55,2.19-1.92
				c0.96-0.48,2.08-0.7,3.64-0.7c4.27,0,6.09,1.49,6.09,5.02v1.98h-7.27c-5.77,0-9.28,2.93-9.28,7.84c0,5.23,3.36,8.16,9.39,8.16
				c3.21,0,4.97-0.48,7.21-2.72v2.45H634.57z M605.43,783.67v-27.06H586.9v11.26c0,10.47-2.78,11-5.12,11h-0.85v4.8h2.56
				c5.28,0,8.64-2.98,8.64-14.46v-7.85h7.86v22.31H605.43z M557.17,783.67v-19.85l15.32,19.85h7.32l-15.96-20.07l14.63-17.94h-7.1
				l-14.2,18.04v-18.04h-5.76v38H557.17z M532.56,741.71h-5.23l-15.22,45.9h5.23L532.56,741.71z M495.35,770.97
				c0-3.58-0.43-7.27-3.3-10.14c-1.55-1.55-3.84-2.46-6.83-2.46c-2.78,0-5.02,0.85-6.3,2.19v-10.04h15.59v-4.85h-20.49v20.76h4.96
				c0.59-1.87,2.3-3.42,5.4-3.42c4.38,0,5.55,3.42,5.55,7.96c0,2.56-0.21,5.07-1.81,6.68c-0.96,0.96-2.35,1.49-3.95,1.49
				c-3.42,0-5.13-1.92-5.56-5.29h-5.44c0.21,2.72,0.85,5.23,2.88,7.26c1.65,1.65,4.48,2.93,8.11,2.93c3.68,0,6.3-1.28,8.01-2.98
				C494.93,778.28,495.35,775.02,495.35,770.97 M447.63,767.93h-12.17c0.06-1.66,0.16-2.46,0.7-3.69c0.85-2.03,2.83-3.42,5.39-3.42
				c2.56,0,4.48,1.39,5.34,3.42C447.42,765.47,447.58,766.27,447.63,767.93 M453.02,771.71v-2.4c0-7.69-4.22-13.02-11.48-13.02
				c-6.94,0-11.47,5.06-11.47,13.82c0,10.31,5.38,13.88,12.17,13.88c4.75,0,7.37-1.44,10.14-4.21l-3.47-3.26
				c-1.92,1.92-3.52,2.78-6.56,2.78c-4.43,0-6.89-2.94-6.89-7.59H453.02z M424.31,775.39c0-4.8-2.99-7.21-8.06-7.64l-4.27-0.37
				c-2.88-0.27-3.74-1.49-3.74-3.1c0-2.03,1.65-3.47,4.91-3.47c2.56,0,4.96,0.53,6.67,1.98l3.42-3.47
				c-2.51-2.19-5.98-3.03-10.04-3.03c-5.66,0-10.19,2.98-10.19,8.27c0,4.75,2.93,7.05,8.01,7.48l4.32,0.37
				c2.62,0.21,3.63,1.39,3.63,3.2c0,2.57-2.61,3.74-5.92,3.74c-2.67,0-5.61-0.59-7.79-2.83l-3.58,3.57
				c3.2,3.15,6.94,3.89,11.37,3.89C419.5,783.99,424.31,781.05,424.31,775.39 M397.46,775.39c0-4.8-2.99-7.21-8.06-7.64l-4.27-0.37
				c-2.88-0.27-3.74-1.49-3.74-3.1c0-2.03,1.66-3.47,4.91-3.47c2.56,0,4.97,0.53,6.68,1.98l3.42-3.47
				c-2.51-2.19-5.98-3.03-10.04-3.03c-5.66,0-10.2,2.98-10.2,8.27c0,4.75,2.94,7.05,8.01,7.48l4.33,0.37
				c2.61,0.21,3.63,1.39,3.63,3.2c0,2.57-2.62,3.74-5.93,3.74c-2.67,0-5.6-0.59-7.79-2.83l-3.57,3.57c3.2,3.15,6.94,3.89,11.37,3.89
				C392.65,783.99,397.46,781.05,397.46,775.39 M363.08,773.9c0,1.92-0.37,3.2-1.17,4.01c-1.44,1.39-2.99,1.55-5.07,1.55
				c-3.42,0-4.97-1.39-4.97-3.85c0-2.46,1.66-3.9,4.86-3.9h6.36V773.9z M368.52,783.67v-18.09c0-6.14-3.73-9.28-11.15-9.28
				c-4.48,0-7.15,0.9-9.71,3.89l3.57,3.37c1.49-1.92,2.94-2.62,5.93-2.62c4.22,0,5.93,1.66,5.93,5.07v1.93h-7.15
				c-6.19,0-9.34,3.25-9.34,7.79c0,2.3,0.75,4.38,2.14,5.82c1.65,1.65,3.89,2.45,7.25,2.45c3.37,0,5.24-0.8,7.21-2.77v2.45H368.52z
				 M342.1,783.67v-4.64h-2.4c-2.19,0-2.93-1.07-2.93-3.15v-30.21h-5.44v30.53c0,4,2.24,7.47,7.41,7.47H342.1z M326.08,783.67
				l-13.62-23.11l12.33-14.89h-7.05l-15.54,19.11v-19.11h-5.75v38h5.75v-11.05l6.41-7.69l10.68,18.73H326.08z"/>
		</g>
	</g>
	<g>
		<polygon class="st4" points="20.73,755.85 36.8,755.85 28.77,745.23 		"/>
	</g>
	<g>
		<polygon class="st4" points="20.73,776.99 36.8,776.99 28.77,766.36 		"/>
	</g>
	<g>
		<polygon class="st4" points="20.73,798.12 36.8,798.12 28.77,787.5 		"/>
	</g>
	<g>
		<polygon class="st4" points="20.73,734.72 36.8,734.72 28.77,724.09 		"/>
	</g>
	<g>
		<polygon class="st4" points="20.73,640.38 36.8,640.38 28.77,629.75 		"/>
	</g>
	<g>
		<polygon class="st4" points="20.73,661.51 36.8,661.51 28.77,650.89 		"/>
	</g>
	<g>
		<polygon class="st4" points="20.73,682.65 36.8,682.65 28.77,672.02 		"/>
	</g>
	<g>
		<polygon class="st4" points="20.73,619.24 36.8,619.24 28.77,608.62 		"/>
	</g>
	<g>
		<polygon class="st4" points="20.73,520.69 36.8,520.69 28.77,510.07 		"/>
	</g>
	<g>
		<polygon class="st4" points="20.73,541.83 36.8,541.83 28.77,531.2 		"/>
	</g>
	<g>
		<polygon class="st4" points="20.73,562.96 36.8,562.96 28.77,552.34 		"/>
	</g>
	<g>
		<polygon class="st4" points="20.73,499.56 36.8,499.56 28.77,488.93 		"/>
	</g>
	<g>
		<polygon class="st4" points="20.73,402.41 36.8,402.41 28.77,391.78 		"/>
	</g>
	<g>
		<polygon class="st4" points="20.73,423.54 36.8,423.54 28.77,412.92 		"/>
	</g>
	<g>
		<polygon class="st4" points="20.73,444.68 36.8,444.68 28.77,434.05 		"/>
	</g>
	<g>
		<polygon class="st4" points="20.73,381.27 36.8,381.27 28.77,370.65 		"/>
	</g>
	<g>
		<polygon class="st4" points="20.73,286.94 36.8,286.94 28.77,276.31 		"/>
	</g>
	<g>
		<polygon class="st4" points="20.73,308.07 36.8,308.07 28.77,297.45 		"/>
	</g>
	<g>
		<polygon class="st4" points="20.73,329.21 36.8,329.21 28.77,318.58 		"/>
	</g>
	<g>
		<polygon class="st4" points="20.73,265.8 36.8,265.8 28.77,255.18 		"/>
	</g>
	<g>
		<polygon class="st4" points="20.73,170.06 36.8,170.06 28.77,159.44 		"/>
	</g>
	<g>
		<polygon class="st4" points="20.73,191.2 36.8,191.2 28.77,180.57 		"/>
	</g>
	<g>
		<polygon class="st4" points="20.73,212.33 36.8,212.33 28.77,201.71 		"/>
	</g>
	<g>
		<polygon class="st4" points="20.73,148.93 36.8,148.93 28.77,138.3 		"/>
	</g>
</g>
</svg>
