<?xml version="1.0" encoding="utf-8"?>
<!-- Generator: Adobe Illustrator 26.2.1, SVG Export Plug-In . SVG Version: 6.00 Build 0)  -->
<svg version="1.1" id="Ebene_1" xmlns="http://www.w3.org/2000/svg" xmlns:xlink="http://www.w3.org/1999/xlink" x="0px" y="0px"
	 viewBox="0 0 954.01 1000" style="enable-background:new 0 0 954.01 1000;" xml:space="preserve">
<style type="text/css">
	.st0{fill:#A2B9E1;}
	.st1{fill:#6796CF;}
	.st2{clip-path:url(#SVGID_00000010271335849129937630000007988784697609696424_);}
	.st3{fill:#2B2961;}
	.st4{fill:#FFFFFF;}
	.st5{clip-path:url(#SVGID_00000147185004753893036230000009828975924301885321_);}
	.st6{clip-path:url(#SVGID_00000011728257290811681640000006511271648834267059_);}
	.st7{clip-path:url(#SVGID_00000046328227266980485470000018145270615494610074_);}
	.st8{clip-path:url(#SVGID_00000173852303942293777790000006933898812186766490_);}
	.st9{clip-path:url(#SVGID_00000068658988654351466110000000950153448180243379_);}
	.st10{opacity:0.52;clip-path:url(#SVGID_00000163044137396422152080000006720995250068277688_);}
	.st11{clip-path:url(#SVGID_00000060708658442608004670000015657722057638782356_);}
	.st12{clip-path:url(#SVGID_00000069383560397992121090000002567179756154951608_);}
	.st13{clip-path:url(#SVGID_00000136378303264694996420000002333168396381480072_);}
	.st14{clip-path:url(#SVGID_00000025442655856145929820000000073238749416768694_);}
	.st15{clip-path:url(#SVGID_00000174596095556413898720000009397633259453122970_);}
	.st16{clip-path:url(#SVGID_00000182510869152832772390000002777780552493447050_);}
	.st17{clip-path:url(#SVGID_00000031196202471618718280000008698030545620915082_);}
	.st18{clip-path:url(#SVGID_00000039129285437356559480000016682827073034443674_);}
	.st19{clip-path:url(#SVGID_00000183967334888134938870000013389035899394728881_);}
	.st20{clip-path:url(#SVGID_00000067930527388031174320000017153645548050037673_);}
	.st21{clip-path:url(#SVGID_00000035489255270981246560000008519393250569475222_);}
	.st22{clip-path:url(#SVGID_00000154392524959712843580000009457895898981308572_);}
	.st23{fill:none;stroke:#2B2961;stroke-width:0.374;stroke-linejoin:round;stroke-miterlimit:10;}
	.st24{fill:none;stroke:#2B2961;stroke-width:0.4;stroke-miterlimit:10;}
	.st25{clip-path:url(#SVGID_00000025435720992966692050000009880446934699877010_);}
	.st26{clip-path:url(#SVGID_00000130610984915142519250000008081780813924996523_);}
	.st27{clip-path:url(#SVGID_00000156576848786907109300000013846178248720661911_);}
	.st28{clip-path:url(#SVGID_00000119090031896244008720000006624674202875288454_);}
	.st29{clip-path:url(#SVGID_00000091726382088247079930000002327596124136306616_);}
	.st30{clip-path:url(#SVGID_00000131335054580298864810000015947007740230162818_);}
	.st31{clip-path:url(#SVGID_00000026858434729667248930000005657595532892942243_);}
	.st32{clip-path:url(#SVGID_00000092431028448335221160000016316581018287219604_);}
	.st33{clip-path:url(#SVGID_00000067915843652005030900000018221227023993564336_);}
	.st34{clip-path:url(#SVGID_00000101788262130844880550000014651872450486015366_);}
	.st35{clip-path:url(#SVGID_00000145021069045711291030000006760764409723285403_);}
	.st36{clip-path:url(#SVGID_00000132767490495453423340000013166860335970764189_);}
	.st37{clip-path:url(#SVGID_00000066500621075347475390000003104208264416283795_);}
	.st38{clip-path:url(#SVGID_00000046319858540030236120000018018615877239247238_);}
	.st39{clip-path:url(#SVGID_00000126283057142169155960000011652437488997254281_);}
	.st40{clip-path:url(#SVGID_00000042009360586226541000000014292659732207028870_);}
	.st41{clip-path:url(#SVGID_00000173849265574909688110000006893123651208589719_);}
	.st42{clip-path:url(#SVGID_00000024003078146595179750000009563353244855907465_);}
	.st43{clip-path:url(#SVGID_00000016789862312787462280000012399739387311388082_);}
	.st44{clip-path:url(#SVGID_00000120535129310684165460000011762590369558805896_);}
	.st45{clip-path:url(#SVGID_00000007410580824673293130000013095314324101202305_);}
	.st46{clip-path:url(#SVGID_00000119807216361311811570000013949113367484561045_);}
	.st47{clip-path:url(#SVGID_00000078737060788755749970000012374575188358840197_);}
	.st48{clip-path:url(#SVGID_00000180357121902046033110000006651754294346587299_);}
	.st49{clip-path:url(#SVGID_00000036968683540183393170000002694067789886905760_);}
	.st50{clip-path:url(#SVGID_00000157271408090596150890000013872471709642119814_);}
	.st51{clip-path:url(#SVGID_00000070832912650735797610000009966300819562458266_);}
	.st52{clip-path:url(#SVGID_00000005970434318838520450000006215824603891218613_);}
	.st53{clip-path:url(#SVGID_00000073716110182484374560000004996827406447574912_);}
	.st54{clip-path:url(#SVGID_00000071526802008972675770000010484568447840780471_);}
	.st55{clip-path:url(#SVGID_00000027572062132997628740000004590717503805113482_);}
	.st56{clip-path:url(#SVGID_00000111186712508663573980000001327799088630416775_);}
	.st57{clip-path:url(#SVGID_00000047020803328648966550000006883224153925854371_);}
	.st58{clip-path:url(#SVGID_00000123432832324234259740000008172890520345839038_);}
	.st59{clip-path:url(#SVGID_00000137102299654160831060000004170593932647080597_);}
	.st60{clip-path:url(#SVGID_00000013878551128253318600000007124489119028493187_);}
	.st61{clip-path:url(#SVGID_00000178891796666234559640000003286075852291787662_);}
	.st62{fill:#9AB4DE;}
	.st63{clip-path:url(#SVGID_00000062889061896540845200000013149264206194360491_);}
	.st64{clip-path:url(#SVGID_00000027568315385704383840000006174351544551289021_);}
	.st65{clip-path:url(#SVGID_00000018923167698291836250000001754511693493213866_);}
	.st66{fill:#B9C9E9;}
	.st67{clip-path:url(#SVGID_00000165196017178291154780000001078816353203245470_);}
	.st68{clip-path:url(#SVGID_00000162326996139703174840000004368042046888717987_);}
	.st69{clip-path:url(#SVGID_00000015335178702033415140000007802611367063879050_);}
	.st70{clip-path:url(#SVGID_00000102542581803234327840000010566601018574113189_);}
	.st71{clip-path:url(#SVGID_00000171683098014274362250000014013735238453307010_);}
	.st72{clip-path:url(#SVGID_00000057113486627010492420000006703810383386116768_);}
	.st73{clip-path:url(#SVGID_00000072982364958478601080000013291660759280206007_);}
	.st74{clip-path:url(#SVGID_00000138570755008358900640000003040166173303766207_);}
	.st75{clip-path:url(#SVGID_00000059282193177728719260000014738569569759006106_);}
	.st76{clip-path:url(#SVGID_00000176011294841643379480000011700787799844014768_);}
	.st77{clip-path:url(#SVGID_00000122681516723609009090000001323454577070337946_);}
	.st78{clip-path:url(#SVGID_00000160901786473684384220000014052752676491082411_);}
	.st79{clip-path:url(#SVGID_00000129197105685820994150000005021244334676654219_);}
	.st80{clip-path:url(#SVGID_00000018231949372805405310000004327918253949601422_);}
	.st81{clip-path:url(#SVGID_00000100362623456709654130000014672891467483874492_);}
	.st82{clip-path:url(#SVGID_00000036930690763202013660000016668927078210690212_);}
	.st83{clip-path:url(#SVGID_00000134233834152162324640000001873144640595279782_);}
	.st84{clip-path:url(#SVGID_00000045587272881802296410000008253429314526093721_);}
	.st85{clip-path:url(#SVGID_00000044147261853409580430000018120436331499598743_);}
	.st86{clip-path:url(#SVGID_00000049198890501659408400000001055628784832253847_);}
	.st87{clip-path:url(#SVGID_00000068671033978369032650000005124177039532088479_);}
	.st88{clip-path:url(#SVGID_00000132791177795636306410000010699942811685152953_);}
	.st89{clip-path:url(#SVGID_00000091696020830175447280000003294914638233020336_);}
	.st90{clip-path:url(#SVGID_00000062185792548991986500000001112296365100053146_);}
	.st91{clip-path:url(#SVGID_00000182524624850728469360000010118813803257705144_);}
	.st92{clip-path:url(#SVGID_00000178195003410991549600000000018000770737227678_);}
	.st93{clip-path:url(#SVGID_00000174576826092801675140000005508360491782372784_);}
	.st94{clip-path:url(#SVGID_00000160913229349758122250000005823167179217116850_);}
	.st95{clip-path:url(#SVGID_00000010307731490371116820000015647710265333118599_);}
	.st96{clip-path:url(#SVGID_00000017505544905946253330000013570086454614677380_);}
	.st97{clip-path:url(#SVGID_00000172420172180188914250000007563124845474483585_);}
	.st98{clip-path:url(#SVGID_00000106114394688682605660000017455659756391573168_);}
	.st99{clip-path:url(#SVGID_00000073690437139142901980000013025299016657508740_);}
	.st100{clip-path:url(#SVGID_00000114791214692377366480000007815965680818497159_);}
	.st101{clip-path:url(#SVGID_00000163062668539246887130000000140586760644111778_);}
	.st102{clip-path:url(#SVGID_00000045613159849380879210000002556457043109036706_);}
	.st103{clip-path:url(#SVGID_00000160149276516917411130000017184794163963745928_);}
	.st104{clip-path:url(#SVGID_00000112613763485742117830000014775331597411881601_);}
	.st105{clip-path:url(#SVGID_00000170250861601332187520000001433489135158893477_);}
	.st106{clip-path:url(#SVGID_00000130633739506785806390000000632602935104437664_);}
	.st107{clip-path:url(#SVGID_00000075149152449794000980000017107527648353827260_);}
	.st108{clip-path:url(#SVGID_00000094600475042365527140000007683031138919833241_);}
	.st109{clip-path:url(#SVGID_00000007426790492179821640000000318011104050651301_);}
	.st110{clip-path:url(#SVGID_00000098916088907117367050000001807178001601641372_);}
	.st111{clip-path:url(#SVGID_00000106861162087528108960000005553715975833442443_);}
	.st112{clip-path:url(#SVGID_00000039132564404103304230000003418018784220355974_);}
	.st113{clip-path:url(#SVGID_00000023974107292276131050000003891170726463117485_);}
	.st114{clip-path:url(#SVGID_00000064314632946014505190000004289102104173210006_);}
	.st115{clip-path:url(#SVGID_00000112631819938934937040000009956781093911531711_);}
	.st116{clip-path:url(#SVGID_00000133499878658252251860000012648037917127536002_);}
	.st117{clip-path:url(#SVGID_00000140729207313703988770000014870489088548873106_);}
	.st118{clip-path:url(#SVGID_00000105428212394444147550000010901092014216432574_);}
	.st119{clip-path:url(#SVGID_00000125600826160768315820000003667842502306299064_);}
	.st120{clip-path:url(#SVGID_00000115508202956381041410000005865870088167014331_);}
	.st121{clip-path:url(#SVGID_00000129924619036081240820000007015094369629588363_);}
	.st122{clip-path:url(#SVGID_00000043417640420212648230000012817556499569326241_);}
	.st123{clip-path:url(#SVGID_00000013155104450067041920000016629789667901439922_);}
	.st124{clip-path:url(#SVGID_00000160869179939785371010000015454895136041107076_);}
	.st125{clip-path:url(#SVGID_00000093859436471794537540000007176226885035556001_);}
	.st126{clip-path:url(#SVGID_00000131346921038065560940000003078710701556650144_);}
	.st127{clip-path:url(#SVGID_00000116213329320897598970000007863936746347140736_);}
	.st128{clip-path:url(#SVGID_00000063613727612398838410000013395257777147918498_);}
	.st129{clip-path:url(#SVGID_00000043421404503448476000000015132341156012511133_);}
	.st130{clip-path:url(#SVGID_00000057869811545774054500000007645866480614488219_);}
	.st131{clip-path:url(#SVGID_00000050621909733370297730000017749519789163466126_);}
	.st132{clip-path:url(#SVGID_00000008129957254067778750000007868046287521974463_);}
	.st133{clip-path:url(#SVGID_00000004506375375171406330000016996917465848456376_);}
	.st134{clip-path:url(#SVGID_00000061470595454401930990000011744512690306754203_);}
	.st135{clip-path:url(#SVGID_00000091694675073754136770000016018463795745726632_);}
	.st136{clip-path:url(#SVGID_00000174580222435073352230000014193146024858886567_);}
	.st137{clip-path:url(#SVGID_00000150084530861659133400000013225142342308758970_);}
	.st138{clip-path:url(#SVGID_00000045579921439151939510000011480623792436238263_);}
	.st139{clip-path:url(#SVGID_00000014628528804148532030000018317124971324722339_);}
	.st140{clip-path:url(#SVGID_00000035513514646018046700000008119954670545913015_);}
	.st141{clip-path:url(#SVGID_00000078014038151589771620000006983415006191451784_);}
	.st142{clip-path:url(#SVGID_00000142159535574138162950000000379151922144041384_);}
	.st143{clip-path:url(#SVGID_00000150063786091888703520000013957505276324675502_);}
	.st144{clip-path:url(#SVGID_00000015315070102923699760000015496584865114080434_);}
	.st145{clip-path:url(#SVGID_00000134944280372882688940000000403845252061823369_);}
	.st146{clip-path:url(#SVGID_00000143604275925324956030000013588106272457744297_);}
	.st147{clip-path:url(#SVGID_00000024712327839200702070000003602718661813495471_);}
	.st148{clip-path:url(#SVGID_00000019673717232927706220000006554884306367443601_);}
	.st149{clip-path:url(#SVGID_00000037675499713354502000000000576435131977772477_);}
	.st150{clip-path:url(#SVGID_00000062184643445210537760000007272741820058504351_);}
	.st151{clip-path:url(#SVGID_00000083078211028640503050000002697552824839223987_);}
	.st152{clip-path:url(#SVGID_00000053532580775845420380000016758513472628761759_);}
	.st153{clip-path:url(#SVGID_00000078765670010602815030000016564897060568805007_);}
	.st154{clip-path:url(#SVGID_00000154411397606525283130000010206191577241338791_);}
	.st155{clip-path:url(#SVGID_00000008843703500623033500000000695525466777104786_);}
	.st156{clip-path:url(#SVGID_00000131346698147930128750000013710654574406445991_);}
	.st157{clip-path:url(#SVGID_00000103261776773338600040000003976798342446287014_);}
	.st158{clip-path:url(#SVGID_00000168806684763121497150000003397014213972247451_);}
	.st159{clip-path:url(#SVGID_00000093884141718633911640000001072681156460145081_);}
	.st160{clip-path:url(#SVGID_00000106828992885605431180000013053794864253377698_);}
	.st161{clip-path:url(#SVGID_00000144304347861119219060000003589742441545687214_);}
	.st162{clip-path:url(#SVGID_00000114049358095390793200000001390097328244000937_);}
	.st163{clip-path:url(#SVGID_00000149372220777866284840000012367779986009850796_);}
	.st164{clip-path:url(#SVGID_00000112623633852808009340000012593471502264212110_);}
	.st165{clip-path:url(#SVGID_00000065053252850819868710000013644112518885371027_);}
	.st166{clip-path:url(#SVGID_00000025438065070111511130000013797028425132841402_);}
	.st167{clip-path:url(#SVGID_00000152985799766867574910000012491919497695443900_);}
	.st168{clip-path:url(#SVGID_00000013151682645449804090000008097126254237157293_);}
	.st169{clip-path:url(#SVGID_00000073704418759126984300000006939997638973640629_);}
	.st170{clip-path:url(#SVGID_00000181062275806834174190000013034900313597038976_);}
	.st171{clip-path:url(#SVGID_00000178923274362534903570000010364574112442949039_);}
	.st172{clip-path:url(#SVGID_00000162332414578910164400000013295865632168670395_);}
	.st173{clip-path:url(#SVGID_00000028292214688118549850000007213665961661408417_);}
	.st174{clip-path:url(#SVGID_00000011747103729807004810000014929563457833026695_);}
	.st175{clip-path:url(#SVGID_00000122697789339619154530000000688773857572671915_);}
	.st176{clip-path:url(#SVGID_00000109004570247430873370000008496688725615977903_);}
	.st177{clip-path:url(#SVGID_00000109019421356924934230000016501199265168738479_);}
	.st178{clip-path:url(#SVGID_00000045620442875966898960000004224090342121895610_);}
	.st179{clip-path:url(#SVGID_00000119106639008509495720000008571357248949300876_);}
	.st180{clip-path:url(#SVGID_00000074410655948730646590000009999499338955713177_);}
	.st181{clip-path:url(#SVGID_00000163785637511385577770000002290118534236530078_);}
	.st182{clip-path:url(#SVGID_00000146460675666550625080000005442592832971938995_);}
	.st183{clip-path:url(#SVGID_00000022558169851511642220000008133352752853834904_);}
	.st184{clip-path:url(#SVGID_00000081640947935082612610000001491798995268574877_);}
	.st185{clip-path:url(#SVGID_00000081616922347676296120000012282272015812461189_);}
	.st186{clip-path:url(#SVGID_00000028299625054853106090000016764997345811370416_);}
	.st187{clip-path:url(#SVGID_00000049184056163824089460000007502021690819587250_);}
	.st188{clip-path:url(#SVGID_00000026849274166107373800000016684323320244381073_);}
	.st189{clip-path:url(#SVGID_00000093893637918812611830000002164431923813401986_);}
	.st190{clip-path:url(#SVGID_00000155828763796399027760000011711015387174863770_);}
	.st191{clip-path:url(#SVGID_00000005238045611471709670000016770975199771644056_);}
	.st192{clip-path:url(#SVGID_00000145780911234757274090000009614931927405802148_);}
	.st193{clip-path:url(#SVGID_00000026875198719813159290000007066561431531635345_);}
	.st194{clip-path:url(#SVGID_00000078045803215722917570000011090772194940682143_);}
	.st195{clip-path:url(#SVGID_00000047051346251743376850000006238197547873813893_);}
	.st196{clip-path:url(#SVGID_00000179614887747611534150000002429537730751680395_);}
	.st197{clip-path:url(#SVGID_00000177481604634717826540000011679817375727678878_);}
	.st198{clip-path:url(#SVGID_00000034051739064494759060000013844799436354697116_);}
	.st199{clip-path:url(#SVGID_00000165227162441860306990000009549454005178322332_);}
	.st200{clip-path:url(#SVGID_00000181047113077760792440000001760327075410761891_);}
	.st201{clip-path:url(#SVGID_00000085228716134286162470000017060331927576732556_);}
	.st202{clip-path:url(#SVGID_00000097501232315385403030000002082203707971417237_);}
	.st203{clip-path:url(#SVGID_00000093135049899473767520000002514384936538094493_);}
	.st204{clip-path:url(#SVGID_00000097468870395849708510000017424865007149839038_);}
	.st205{clip-path:url(#SVGID_00000024723212086816106930000012979014023968092053_);}
	.st206{clip-path:url(#SVGID_00000180354131783922572860000006002371877423559307_);}
	.st207{clip-path:url(#SVGID_00000040567788088290617180000007593884652057714842_);}
	.st208{clip-path:url(#SVGID_00000023982584071397754720000001535826858630599824_);}
	.st209{clip-path:url(#SVGID_00000063621819876266314950000011328062273457104059_);}
	.st210{clip-path:url(#SVGID_00000009551186007794739020000003362267789029589126_);}
	.st211{clip-path:url(#SVGID_00000137131886937097860190000007581694648302067097_);}
	.st212{clip-path:url(#SVGID_00000107583449965269670740000015866160343212182667_);}
	.st213{clip-path:url(#SVGID_00000024687763740634059500000007219361414983622049_);}
	.st214{clip-path:url(#SVGID_00000158002241678442950340000018040079128801560484_);}
	.st215{clip-path:url(#SVGID_00000061442184270041736060000011959631910655899820_);}
	.st216{clip-path:url(#SVGID_00000142166622043261379340000002457628079119357832_);}
	.st217{clip-path:url(#SVGID_00000156582390084626496600000018153050814210024876_);}
	.st218{clip-path:url(#SVGID_00000137849071375117297500000017817894011703140540_);}
	.st219{clip-path:url(#SVGID_00000140723099620619290410000013760684324299176858_);}
	.st220{clip-path:url(#SVGID_00000115480873313485072520000002687297987189255591_);}
	.st221{clip-path:url(#SVGID_00000018918593390963571150000012965351310868651184_);}
	.st222{clip-path:url(#SVGID_00000023271995889263455380000006165729450472445362_);}
	.st223{clip-path:url(#SVGID_00000163050828304449469740000012136701598992309918_);}
	.st224{clip-path:url(#SVGID_00000005973633415415801720000009876294430104075415_);}
	.st225{clip-path:url(#SVGID_00000142147433190570880470000003764013818459458211_);}
	.st226{clip-path:url(#SVGID_00000149364827963560006080000014031949484589580974_);}
	.st227{clip-path:url(#SVGID_00000183930390109762097420000015571025124616879274_);}
	.st228{clip-path:url(#SVGID_00000031166909956022063210000017513329277408087729_);}
	.st229{clip-path:url(#SVGID_00000159437048657289399560000006571980766170733226_);}
	.st230{clip-path:url(#SVGID_00000145028966880778850670000014034939161688412569_);}
	.st231{clip-path:url(#SVGID_00000178166091221834098330000002966325147281930378_);}
	.st232{clip-path:url(#SVGID_00000093880112258635289240000015565710600383888796_);}
	.st233{clip-path:url(#SVGID_00000051343636831670717140000017403716769042650035_);}
	.st234{clip-path:url(#SVGID_00000011741410621132139220000007104456369446659251_);}
	.st235{clip-path:url(#SVGID_00000051341596368116669110000013151862012442664634_);}
	.st236{clip-path:url(#SVGID_00000104693955763906837440000012846401742423166652_);}
	.st237{clip-path:url(#SVGID_00000070112816640423034040000007641705841307566233_);}
	.st238{clip-path:url(#SVGID_00000067931216691233960950000008893594458453698959_);}
	.st239{clip-path:url(#SVGID_00000096032576212780154500000003839170956317863309_);}
	.st240{clip-path:url(#SVGID_00000011754233400309525940000006013962455040100750_);}
	.st241{clip-path:url(#SVGID_00000129169096129429930810000014422275472388663439_);}
	.st242{clip-path:url(#SVGID_00000117656777151747267850000004360586566539060905_);}
	.st243{clip-path:url(#SVGID_00000122696898114390891160000017610604926705832067_);}
	.st244{clip-path:url(#SVGID_00000040534758305874957170000018435896765684880534_);}
	.st245{clip-path:url(#SVGID_00000121979675283632639720000012665425314621771943_);}
	.st246{clip-path:url(#SVGID_00000142143134024362603640000007041300411214940584_);}
	.st247{clip-path:url(#SVGID_00000124139062386841961250000009219892615953185213_);}
	.st248{clip-path:url(#SVGID_00000013898490932567566600000004843935079025047450_);}
	.st249{clip-path:url(#SVGID_00000171687872334124300840000007872608362948991111_);}
	.st250{clip-path:url(#SVGID_00000177479016966793388440000003953558607091027605_);}
	.st251{clip-path:url(#SVGID_00000006667096203737704490000009301296683247139735_);}
	.st252{clip-path:url(#SVGID_00000139254014546897453550000011322760862939735958_);}
	.st253{clip-path:url(#SVGID_00000067952992446079363980000013447677612348252314_);}
	.st254{clip-path:url(#SVGID_00000047757753342253532960000014067173102567831441_);}
	.st255{clip-path:url(#SVGID_00000139988386207674241170000013435003769625345199_);}
	.st256{clip-path:url(#SVGID_00000131353843022869982380000002044358291476813742_);}
	.st257{clip-path:url(#SVGID_00000108300678045380374560000005249030998812570506_);}
	.st258{clip-path:url(#SVGID_00000050643040958921533890000012855064017400025734_);}
	.st259{clip-path:url(#SVGID_00000179617103341899997400000013395561582135705765_);}
	.st260{clip-path:url(#SVGID_00000092449571491129084760000009123681510580503442_);}
	.st261{clip-path:url(#SVGID_00000104692362392399180900000009294367364108544646_);}
	.st262{clip-path:url(#SVGID_00000074436387045151321530000005119069554462718877_);}
	.st263{clip-path:url(#SVGID_00000024001742768266889160000009123262711842008759_);}
	.st264{clip-path:url(#SVGID_00000097483552413813570400000013503585493726050177_);}
	.st265{clip-path:url(#SVGID_00000110466528924279773190000000044660378528401312_);}
	.st266{clip-path:url(#SVGID_00000080187048107293341230000005808469644144455086_);}
	.st267{clip-path:url(#SVGID_00000098210362602354810330000012626732611320996260_);}
	.st268{clip-path:url(#SVGID_00000108270353825583284320000006809616535821513621_);}
	.st269{clip-path:url(#SVGID_00000000940731252542343910000009538648882554931878_);}
	.st270{clip-path:url(#SVGID_00000163045731526558705740000015338080724337394080_);}
	.st271{clip-path:url(#SVGID_00000078012835458401713970000002574138684335956135_);}
	.st272{clip-path:url(#SVGID_00000164486341341062277700000005450858350247994302_);}
	.st273{clip-path:url(#SVGID_00000106143558031344368460000016388802572921736096_);}
	.st274{clip-path:url(#SVGID_00000136407818154558942710000017180810108261526942_);}
	.st275{clip-path:url(#SVGID_00000045613216809175122120000005968086159872287107_);}
	.st276{clip-path:url(#SVGID_00000003794631561055853990000000049957110475344021_);}
	.st277{clip-path:url(#SVGID_00000005955937971000181860000001022614456778072735_);}
	.st278{clip-path:url(#SVGID_00000161625939784871294920000015250991595241184418_);}
	.st279{clip-path:url(#SVGID_00000034063327079424035420000015848261313984608919_);}
	.st280{clip-path:url(#SVGID_00000101823992677585050760000000134872179556167609_);}
	.st281{clip-path:url(#SVGID_00000063620045009044510690000002999652313524395914_);}
	.st282{clip-path:url(#SVGID_00000153682788213603165520000011152649800311910309_);}
	.st283{clip-path:url(#SVGID_00000065057736272268495500000001654450146529334945_);}
	.st284{clip-path:url(#SVGID_00000002374513284902561150000009019644758479515828_);}
	.st285{clip-path:url(#SVGID_00000147934677930733497760000015727950524394567049_);}
	.st286{clip-path:url(#SVGID_00000129172346212893673290000000298201876186698425_);}
	.st287{clip-path:url(#SVGID_00000006668734659100440230000017142176087889155249_);}
	.st288{clip-path:url(#SVGID_00000092439245817594672720000002395995596050775456_);}
	.st289{clip-path:url(#SVGID_00000116922730343435183720000010023028451502265998_);}
	.st290{clip-path:url(#SVGID_00000132083179285242881070000003829360248805526695_);}
	.st291{clip-path:url(#SVGID_00000134952695953321325750000015693458441339942555_);}
	.st292{clip-path:url(#SVGID_00000156559304242603202310000011403332822437821070_);}
	.st293{clip-path:url(#SVGID_00000025406099555607105210000012923354883268887428_);}
	.st294{clip-path:url(#SVGID_00000007420412893228185060000007080732383559665587_);}
	.st295{clip-path:url(#SVGID_00000111163565775804580550000005914710549909396145_);}
	.st296{clip-path:url(#SVGID_00000060744623545197516700000018190105716848150403_);}
	.st297{clip-path:url(#SVGID_00000116217444613339942020000005809906315139494536_);}
	.st298{clip-path:url(#SVGID_00000073704166944519407270000004494672194394617771_);}
	.st299{clip-path:url(#SVGID_00000161632179165450164980000010805354605582397108_);}
	.st300{clip-path:url(#SVGID_00000167387904595227393800000009396598681123713202_);}
	.st301{clip-path:url(#SVGID_00000076566523312711567930000005869868432154738868_);}
	.st302{clip-path:url(#SVGID_00000180342672069054740920000013780718257416956044_);}
	.st303{clip-path:url(#SVGID_00000041261095503212028030000008750261613394228659_);}
	.st304{clip-path:url(#SVGID_00000137822540576976033630000009979535400094260110_);}
	.st305{clip-path:url(#SVGID_00000039098807383455588390000013595321258409632920_);}
	.st306{clip-path:url(#SVGID_00000102546919273470458960000018433163832886413698_);}
	.st307{clip-path:url(#SVGID_00000032632517971145558140000007656645951847663804_);}
	.st308{clip-path:url(#SVGID_00000137112784111219339670000004964067218645662608_);}
	.st309{clip-path:url(#SVGID_00000001647558057008092940000013370465390922599315_);}
	.st310{clip-path:url(#SVGID_00000106109306914655940010000013018499961257477050_);}
	.st311{clip-path:url(#SVGID_00000116945877264313594430000000077800471019878570_);}
	.st312{clip-path:url(#SVGID_00000012450570724627175550000015360610422996205981_);}
	.st313{clip-path:url(#SVGID_00000020371398657126510190000012722832668174765718_);}
	.st314{clip-path:url(#SVGID_00000157282978331222058290000015768749801777740957_);}
	.st315{clip-path:url(#SVGID_00000091712421970561184530000010974970822469671567_);}
	.st316{clip-path:url(#SVGID_00000058553378211205227510000013610811766354824630_);}
	.st317{clip-path:url(#SVGID_00000061443095791422194710000002973601106554231989_);}
	.st318{clip-path:url(#SVGID_00000094619325880072581310000011342002040460234666_);}
	.st319{clip-path:url(#SVGID_00000037682584944549081680000005385651018397424014_);}
	.st320{clip-path:url(#SVGID_00000016035281904166540890000001798326380397366714_);}
	.st321{clip-path:url(#SVGID_00000068671869422726551620000017375315610597666197_);}
	.st322{clip-path:url(#SVGID_00000083075171764349350730000001611483565922990738_);}
	.st323{clip-path:url(#SVGID_00000029751372819892656650000009549269936818720654_);}
	.st324{clip-path:url(#SVGID_00000070810654932077772370000007100916926253229231_);}
	.st325{clip-path:url(#SVGID_00000168826021741160295430000010921625044223900323_);}
	.st326{clip-path:url(#SVGID_00000064314057794866947310000015764041479170828477_);}
	.st327{clip-path:url(#SVGID_00000118395936743948223100000000792615604019964572_);}
	.st328{clip-path:url(#SVGID_00000052089092351211389910000011567921818596288933_);}
	.st329{clip-path:url(#SVGID_00000170253989384219924700000007118931109163370117_);}
	.st330{clip-path:url(#SVGID_00000142897316101950053620000000602818019362476442_);}
	.st331{clip-path:url(#SVGID_00000054267375566098711180000006195684705764436636_);}
	.st332{clip-path:url(#SVGID_00000181076845412146847140000010385470640922405272_);}
	.st333{clip-path:url(#SVGID_00000015348339443353977550000005912619846309252232_);}
	.st334{clip-path:url(#SVGID_00000124848385814236595930000008831354639732296869_);}
	.st335{clip-path:url(#SVGID_00000005252376690474400880000011281705643515227816_);}
	.st336{clip-path:url(#SVGID_00000058590775276149027330000004543982712565577369_);}
	.st337{clip-path:url(#SVGID_00000117667137909891287130000011264191709003527614_);}
	.st338{clip-path:url(#SVGID_00000163033882253018462270000002648787145360685968_);}
	.st339{clip-path:url(#SVGID_00000080903276961702036000000017423164431433820556_);}
	.st340{clip-path:url(#SVGID_00000165935071513172364600000006897506986710759834_);}
	.st341{clip-path:url(#SVGID_00000026841725053313394440000007169268423074995382_);}
	.st342{clip-path:url(#SVGID_00000024708975221612535980000014028235620257858688_);}
	.st343{clip-path:url(#SVGID_00000045603723699011175270000003558781979924861082_);}
	.st344{clip-path:url(#SVGID_00000176721899894613237360000014771592329800511622_);}
	.st345{clip-path:url(#SVGID_00000097471364812008288150000013860685971280777117_);}
	.st346{clip-path:url(#SVGID_00000064324359000295457500000014012423265278716311_);}
	.st347{clip-path:url(#SVGID_00000131353424434523873660000007951930311748920755_);}
	.st348{clip-path:url(#SVGID_00000019664366720914707480000012387126409181978546_);}
	.st349{clip-path:url(#SVGID_00000101086816314108496920000003605199215248641954_);}
	.st350{clip-path:url(#SVGID_00000026856580106649064800000012124328271523267241_);}
	.st351{clip-path:url(#SVGID_00000158708945530466423050000006442234020373744787_);}
	.st352{clip-path:url(#SVGID_00000142169782928948650940000004806466966174739605_);}
	.st353{clip-path:url(#SVGID_00000090296917022394709190000012396757691088953990_);}
	.st354{clip-path:url(#SVGID_00000157284485862220304750000008606102435925934759_);}
	.st355{clip-path:url(#SVGID_00000027595322273803393660000009653919054134265993_);}
	.st356{clip-path:url(#SVGID_00000091718015481756180230000017587949453841265294_);}
	.st357{clip-path:url(#SVGID_00000103950000977757372470000003507393494354099333_);}
	.st358{clip-path:url(#SVGID_00000092424532212853533850000018339472042995097021_);}
	.st359{clip-path:url(#SVGID_00000167357775453295027740000013258797781658665352_);}
	.st360{clip-path:url(#SVGID_00000052063551258128932000000013831281842807897518_);}
	.st361{clip-path:url(#SVGID_00000096757075321036297450000008690660243386341777_);}
	.st362{clip-path:url(#SVGID_00000135671634865732382980000009465302729931734933_);}
	.st363{clip-path:url(#SVGID_00000153694301995852018380000002826217778119866497_);}
	.st364{clip-path:url(#SVGID_00000088103421581865989760000001578643744415933616_);}
	.st365{clip-path:url(#SVGID_00000100342577395093598960000007836903329904343468_);}
	.st366{clip-path:url(#SVGID_00000093881432921621239660000012285995044520118926_);}
	.st367{clip-path:url(#SVGID_00000159457138360633069800000007062346091004403617_);}
	.st368{clip-path:url(#SVGID_00000167355278435944606030000014261583327249664941_);}
	.st369{clip-path:url(#SVGID_00000043420739757510355210000015947048689877318317_);}
	.st370{clip-path:url(#SVGID_00000109018751391360185990000011471102520023332760_);}
	.st371{clip-path:url(#SVGID_00000132801419932442135390000014565950552578239898_);}
	.st372{clip-path:url(#SVGID_00000114791272406240667350000011478138115449255320_);}
	.st373{clip-path:url(#SVGID_00000111914030707088833930000001918232193056430247_);}
	.st374{clip-path:url(#SVGID_00000034780828394558245410000010351425920137493393_);}
	.st375{clip-path:url(#SVGID_00000132798082839983894580000018235559728432729516_);}
</style>
<g>
	<g>
		<rect x="4.29" y="111.63" class="st0" width="46.36" height="884.07"/>
	</g>
	<g>
		<rect x="4" class="st1" width="948.1" height="119.22"/>
	</g>
	<g>
		<defs>
			<rect id="SVGID_00000156568375849238972240000008093534529111831457_" y="0.01" width="954.01" height="999.99"/>
		</defs>
		<clipPath id="SVGID_00000123433491666740277660000000573876788222452146_">
			<use xlink:href="#SVGID_00000156568375849238972240000008093534529111831457_"  style="overflow:visible;"/>
		</clipPath>
		<g style="clip-path:url(#SVGID_00000123433491666740277660000000573876788222452146_);">
			<path class="st3" d="M952.4,1000H1.61c-0.89,0-1.61-0.72-1.61-1.61V1.62c0-0.89,0.72-1.61,1.61-1.61H952.4
				c0.89,0,1.61,0.72,1.61,1.61v996.77C954,999.28,953.29,1000,952.4,1000z M3.22,996.78h947.57V3.23H3.22V996.78z"/>
		</g>
		<g style="clip-path:url(#SVGID_00000123433491666740277660000000573876788222452146_);">
			<path class="st4" d="M859.31,69.89V39.48c0-3.07-0.21-6.21-1.81-9c-1.6-2.72-3.84-4.88-6.13-7.18l-6.14,6.13
				c1.67,1.67,2.72,2.58,3.91,4.6c0.7,1.26,1.05,3.21,1.05,5.86v29.58c0,2.65-0.35,4.6-1.05,5.86c-1.19,2.02-2.23,2.93-3.91,4.6
				l6.14,6.14c2.3-2.3,4.53-4.47,6.13-7.19C859.1,76.1,859.31,72.96,859.31,69.89 M839.99,46.17c-2.51-2.51-5.02-3.41-8.58-3.41
				c-3.91,0-7.4,1.81-9.14,3.9v-3.48h-8.85v36.34h9.06V57.61c0-4.6,3.07-6.7,5.86-6.7c2.23,0,3.42,0.77,4.81,2.16L839.99,46.17z
				 M801.83,79.52V43.18h-9.06v21.98c0,4.95-3.21,6.63-6.08,6.63c-2.86,0-6.01-1.67-6.01-6.63V43.18h-9.06v23.23
				c0,3.98,0.77,7.39,3.69,10.32c2.02,2.02,4.95,3.2,8.58,3.2c3.35,0,6.7-1.26,9.08-3.76v3.34H801.83z M762.41,79.52v-7.66h-3.28
				c-2.16,0-3.14-1.19-3.14-3.28V51.12h6.42v-6.9h-6.42V33.48h-9.06v10.74h-3.84v6.9h3.84v18.01c0,5.16,3.14,10.39,10.53,10.39
				H762.41z M734.65,29.57h-9.27v7.38h9.27V29.57z M734.58,43.18h-9.06v36.34h9.06V43.18z M706.4,61.31c0,5.93-0.7,10.47-6.14,10.47
				c-5.44,0-6.14-4.54-6.14-10.47c0-5.94,0.7-10.4,6.14-10.4C705.7,50.91,706.4,55.38,706.4,61.31 M715.46,61.31
				c0-5.45-0.07-11.66-3.7-15.28c-2.02-2.02-5.3-3.27-8.85-3.27c-3.7,0-6.42,0.97-8.8,3.62V29.85h-9.06v49.66h8.79V76.1
				c2.51,2.79,5.23,3.83,9.08,3.83c3.56,0,6.84-1.26,8.85-3.27C715.39,73.03,715.46,66.75,715.46,61.31 M662.58,62.57h-12.35
				l6.28-18.07L662.58,62.57z M678.21,79.52l-18.14-49.66h-7.6L634.4,79.52h10.12l3-8.79h17.65l2.93,8.79H678.21z M628.81,80
				c-1.67-1.67-2.72-2.65-3.91-4.67c-0.7-1.26-1.05-3.21-1.05-5.86V39.89c0-2.65,0.35-4.6,1.05-5.86c1.19-2.02,2.23-3,3.91-4.67
				l-6.07-6.06c-2.3,2.3-4.53,4.46-6.13,7.18c-1.6,2.79-1.81,5.93-1.81,9v30.41c0,3.07,0.21,6.21,1.81,9
				c1.6,2.72,3.83,4.88,6.13,7.19L628.81,80z M578.02,57.97h-13.81c0.07-1.61,0.28-2.59,0.84-3.91c0.98-2.17,3-3.77,6.07-3.77
				c3.07,0,5.09,1.6,6.07,3.77C577.74,55.38,577.95,56.36,578.02,57.97 M586.95,64.17v-4.04c0-9.98-5.72-17.37-15.84-17.37
				c-9.41,0-15.83,6.69-15.83,18.55c0,14.72,8.22,18.62,16.8,18.62c6.56,0,10.12-2.02,13.81-5.72l-5.51-5.37
				c-2.3,2.3-4.26,3.42-8.23,3.42c-5.09,0-7.95-3.42-7.95-8.1H586.95z M549.83,51.12v-6.9h-6.7v-3.98c0-2.1,0.98-3.28,3.14-3.28
				h3.56v-7.66h-5.16c-7.39,0-10.59,5.23-10.59,10.39v4.54h-3.77v6.9h3.77v28.4h9.06v-28.4H549.83z M521.51,29.57h-9.27v7.38h9.27
				V29.57z M521.44,43.18h-9.06v36.34h9.06V43.18z M493.67,57.97h-13.81c0.07-1.61,0.28-2.59,0.84-3.91c0.98-2.17,3-3.77,6.07-3.77
				c3.07,0,5.09,1.6,6.07,3.77C493.39,55.38,493.6,56.36,493.67,57.97 M502.6,64.17v-4.04c0-9.98-5.72-17.37-15.84-17.37
				c-9.41,0-15.83,6.69-15.83,18.55c0,14.72,8.22,18.62,16.8,18.62c6.56,0,10.12-2.02,13.81-5.72l-5.51-5.37
				c-2.3,2.3-4.26,3.42-8.23,3.42c-5.09,0-7.95-3.42-7.95-8.1H502.6z M468.35,46.17c-2.51-2.51-5.02-3.41-8.58-3.41
				c-3.91,0-7.4,1.81-9.14,3.9v-3.48h-8.85v36.34h9.06V57.61c0-4.6,3.07-6.7,5.86-6.7c2.23,0,3.42,0.77,4.81,2.16L468.35,46.17z
				 M433.11,79.52v-7.66h-3.49c-2.3,0-3.21-1.12-3.21-3.28V29.85h-9.06v39.28c0,5.16,3.13,10.38,10.59,10.38H433.11z M406.11,79.52
				V43.18h-9.06v21.98c0,4.95-3.21,6.63-6.08,6.63c-2.86,0-6.01-1.67-6.01-6.63V43.18h-9.06v23.23c0,3.98,0.77,7.39,3.69,10.32
				c2.02,2.02,4.95,3.2,8.58,3.2c3.35,0,6.7-1.26,9.08-3.76v3.34H406.11z M365.17,79.52V56c0-7.67-4.19-13.24-12.13-13.24
				c-3.21,0-6.28,1.25-8.73,3.76V29.85h-9.06v49.66h9.06V57.33c0-4.74,3-6.42,5.86-6.42c2.87,0,5.94,1.6,5.94,6.42v22.19H365.17z
				 M326.79,74.99l-6.14-6.07c-1.88,2.03-3.49,2.87-5.86,2.87c-2.16,0-3.84-0.77-5.16-2.38c-1.4-1.74-2.02-4.26-2.02-8.09
				s0.63-6.28,2.02-8.03c1.33-1.6,3-2.37,5.16-2.37c2.37,0,3.98,0.84,5.86,2.86l6.14-6.13c-3.21-3.35-6.98-4.88-12-4.88
				c-7.26,0-16.25,3.83-16.25,18.55s8.99,18.62,16.25,18.62C319.82,79.93,323.59,78.33,326.79,74.99 M291.36,68.08
				c0-6.14-3.63-9.98-10.81-10.67l-5.72-0.56c-3.21-0.28-3.77-1.81-3.77-3.14c0-1.81,1.53-3.49,5.16-3.49
				c3.14,0,6.35,0.56,8.44,2.44l5.58-5.65c-3.49-3.28-8.23-4.25-13.88-4.25c-7.4,0-14.02,4.04-14.02,11.57
				c0,6.7,4.05,9.56,10.6,10.19l5.72,0.56c2.86,0.28,3.84,1.53,3.84,3.35c0,2.73-3.28,3.77-6.42,3.77c-2.79,0-6.7-0.42-9.7-3.42
				l-5.93,5.93c4.6,4.6,9.77,5.23,15.49,5.23C284.52,79.93,291.36,76.1,291.36,68.08 M252.84,79.52V56
				c0-7.67-4.18-13.24-12.13-13.24c-3.21,0-6.28,1.25-8.73,3.76V29.85h-9.06v49.66h9.06V57.33c0-4.74,3-6.42,5.87-6.42
				c2.86,0,5.94,1.6,5.94,6.42v22.19H252.84z M214.47,74.99l-6.14-6.07c-1.88,2.03-3.49,2.87-5.86,2.87c-2.16,0-3.84-0.77-5.16-2.38
				c-1.4-1.74-2.02-4.26-2.02-8.09s0.63-6.28,2.02-8.03c1.33-1.6,3-2.37,5.16-2.37c2.37,0,3.98,0.84,5.86,2.86l6.14-6.13
				c-3.21-3.35-6.98-4.88-12-4.88c-7.26,0-16.24,3.83-16.24,18.55s8.99,18.62,16.24,18.62C207.49,79.93,211.26,78.33,214.47,74.99
				 M168.92,61.31c0,3.77-0.21,6.98-2.1,8.86c-1.05,1.05-2.44,1.61-4.26,1.61c-1.81,0-3.14-0.56-4.19-1.61
				c-1.88-1.88-2.09-5.09-2.09-8.86s0.21-6.91,2.09-8.8c1.05-1.05,2.38-1.6,4.19-1.6c1.81,0,3.21,0.56,4.26,1.6
				C168.71,54.4,168.92,57.54,168.92,61.31 M177.98,61.31c0-6.56-0.84-10.68-4.11-14.09c-2.23-2.37-5.93-4.46-11.3-4.46
				c-5.38,0-9.01,2.09-11.23,4.46c-3.28,3.41-4.11,7.53-4.11,14.09c0,6.63,0.83,10.75,4.11,14.16c2.23,2.37,5.86,4.46,11.23,4.46
				c5.37,0,9.07-2.09,11.3-4.46C177.14,72.06,177.98,67.94,177.98,61.31 M136.47,79.52V29.85h-9.69v20.3h-16.82v-20.3h-9.69v49.66
				h9.69V58.73h16.82v20.79H136.47z"/>
		</g>
		<g style="clip-path:url(#SVGID_00000123433491666740277660000000573876788222452146_);">
			<rect x="2.95" y="333.51" class="st3" width="948.1" height="3.22"/>
		</g>
		<g style="clip-path:url(#SVGID_00000123433491666740277660000000573876788222452146_);">
			<rect x="2.95" y="221.88" class="st3" width="948.1" height="3.22"/>
		</g>
		<g style="clip-path:url(#SVGID_00000123433491666740277660000000573876788222452146_);">
			<rect x="2.95" y="115.62" class="st3" width="948.1" height="3.22"/>
		</g>
		<g style="clip-path:url(#SVGID_00000123433491666740277660000000573876788222452146_);">
			<rect x="2.95" y="442.45" class="st3" width="948.1" height="3.22"/>
		</g>
		<g style="clip-path:url(#SVGID_00000123433491666740277660000000573876788222452146_);">
			<rect x="2.95" y="559.44" class="st3" width="948.1" height="3.22"/>
		</g>
		<g style="clip-path:url(#SVGID_00000123433491666740277660000000573876788222452146_);">
			<rect x="2.95" y="671.07" class="st3" width="948.1" height="3.22"/>
		</g>
		<g style="clip-path:url(#SVGID_00000123433491666740277660000000573876788222452146_);">
			<rect x="2.95" y="773.53" class="st3" width="948.1" height="3.22"/>
		</g>
		<g style="clip-path:url(#SVGID_00000123433491666740277660000000573876788222452146_);">
			<rect x="2.95" y="887.39" class="st3" width="948.1" height="3.22"/>
		</g>
		<g style="clip-path:url(#SVGID_00000123433491666740277660000000573876788222452146_);">
			<rect x="2.95" y="996.78" class="st3" width="948.1" height="3.22"/>
		</g>
		<g style="clip-path:url(#SVGID_00000123433491666740277660000000573876788222452146_);">
			<path class="st3" d="M663.04,616.03c0,3.21-2.24,5.51-5.4,5.51c-3.17,0-5.36-2.3-5.36-5.51c0-3.17,2.19-5.56,5.36-5.56
				C660.8,610.47,663.04,612.87,663.04,616.03 M663.6,632.09c0,3.36-2.6,6.02-5.97,6.02c-3.37,0-5.97-2.66-5.97-6.02
				c0-3.36,2.6-6.07,5.97-6.07C661,626.02,663.6,628.73,663.6,632.09 M668.85,632.19c0-4.34-2.44-6.99-4.99-8.51
				c2.35-1.43,4.38-3.98,4.38-7.8c0-6.07-4.68-10.04-10.6-10.04c-5.92,0-10.55,3.97-10.55,10.04c0,3.83,2.03,6.38,4.38,7.8
				c-2.55,1.52-4.99,4.18-4.99,8.51c0,6.58,4.94,10.55,11.16,10.55C663.86,642.74,668.85,638.77,668.85,632.19 M629.39,621.08v-3.97
				h-5.15v-3.76c0-1.9,0.92-3.03,2.86-3.03h2.29v-4.43h-3.26c-4.84,0-7.08,3.46-7.08,7.2v4.01h-2.96v3.97h2.96v21.36h5.19v-21.36
				H629.39z M609.46,616.6h-5.19v25.84h5.19V616.6z M595.74,642.44v-16.52c0-2.9-0.61-5.35-2.59-7.29
				c-1.53-1.48-3.72-2.34-6.38-2.34c-2.6,0-5.1,0.97-6.89,2.9v-2.59h-5.09v25.84h5.2v-15.75c0-3.98,2.45-5.76,5.36-5.76
				c2.91,0,5.21,1.73,5.21,5.76v15.76H595.74z M566.02,616.6h-5.19v25.84h5.19V616.6z M553.53,632.09c0-3.11-0.97-5.71-2.96-7.44
				c-1.52-1.37-3.41-2.19-6.78-2.7l-4.13-0.62c-1.69-0.25-3.16-0.86-4.08-1.68c-0.97-0.87-1.38-2.04-1.38-3.36
				c0-3.21,2.35-5.66,6.63-5.66c3.06,0,5.66,0.67,7.91,2.81l3.51-3.47c-3.1-2.9-6.47-4.13-11.26-4.13
				c-7.55,0-12.13,4.33-12.13,10.65c0,2.96,0.86,5.25,2.65,6.93c1.58,1.48,3.92,2.5,6.88,2.91l4.29,0.61
				c2.14,0.31,3.06,0.66,3.98,1.53c0.97,0.86,1.43,2.19,1.43,3.77c0,3.52-2.75,5.56-7.5,5.56c-3.72,0-6.63-0.82-9.28-3.47
				l-3.67,3.62c3.46,3.52,7.38,4.79,12.84,4.79C548.08,642.74,553.53,638.77,553.53,632.09 M513,602.37h-5l-14.53,43.84h5
				L513,602.37z M472.01,616.03c0,3.21-2.25,5.51-5.41,5.51c-3.16,0-5.36-2.3-5.36-5.51c0-3.17,2.19-5.56,5.36-5.56
				C469.77,610.47,472.01,612.87,472.01,616.03 M472.57,632.09c0,3.36-2.6,6.02-5.97,6.02s-5.97-2.66-5.97-6.02
				c0-3.36,2.6-6.07,5.97-6.07S472.57,628.73,472.57,632.09 M477.82,632.19c0-4.34-2.44-6.99-4.99-8.51
				c2.34-1.43,4.38-3.98,4.38-7.8c0-6.07-4.69-10.04-10.6-10.04c-5.91,0-10.55,3.97-10.55,10.04c0,3.83,2.04,6.38,4.38,7.8
				c-2.54,1.52-4.99,4.18-4.99,8.51c0,6.58,4.94,10.55,11.16,10.55C472.83,642.74,477.82,638.77,477.82,632.19 M431.88,627.41
				h-11.62c0.05-1.58,0.16-2.35,0.67-3.52c0.82-1.94,2.7-3.27,5.15-3.27c2.45,0,4.28,1.33,5.1,3.27
				C431.68,625.06,431.83,625.82,431.88,627.41 M437.03,631.02v-2.29c0-7.34-4.03-12.43-10.96-12.43c-6.63,0-10.95,4.84-10.95,13.2
				c0,9.84,5.14,13.25,11.62,13.25c4.53,0,7.04-1.37,9.69-4.02l-3.32-3.11c-1.84,1.84-3.36,2.65-6.27,2.65
				c-4.23,0-6.58-2.81-6.58-7.25H437.03z M409.61,634.54c0-4.59-2.86-6.89-7.7-7.29l-4.08-0.35c-2.75-0.26-3.57-1.43-3.57-2.96
				c0-1.94,1.58-3.32,4.69-3.32c2.45,0,4.74,0.51,6.37,1.89l3.26-3.32c-2.39-2.09-5.71-2.9-9.58-2.9c-5.4,0-9.74,2.85-9.74,7.89
				c0,4.54,2.8,6.74,7.65,7.14l4.13,0.35c2.5,0.2,3.47,1.33,3.47,3.06c0,2.45-2.5,3.57-5.66,3.57c-2.55,0-5.36-0.56-7.44-2.7
				l-3.42,3.42c3.06,3,6.63,3.71,10.86,3.71C405.02,642.74,409.61,639.94,409.61,634.54 M383.96,634.54c0-4.59-2.86-6.89-7.7-7.29
				l-4.08-0.35c-2.75-0.26-3.57-1.43-3.57-2.96c0-1.94,1.58-3.32,4.69-3.32c2.45,0,4.74,0.51,6.38,1.89l3.26-3.32
				c-2.4-2.09-5.71-2.9-9.58-2.9c-5.4,0-9.74,2.85-9.74,7.89c0,4.54,2.81,6.74,7.65,7.14l4.13,0.35c2.5,0.2,3.47,1.33,3.47,3.06
				c0,2.45-2.5,3.57-5.66,3.57c-2.55,0-5.35-0.56-7.44-2.7l-3.41,3.42c3.06,3,6.63,3.71,10.86,3.71
				C379.37,642.74,383.96,639.94,383.96,634.54 M351.13,633.11c0,1.84-0.35,3.06-1.12,3.83c-1.37,1.33-2.86,1.48-4.85,1.48
				c-3.26,0-4.74-1.33-4.74-3.68c0-2.35,1.58-3.72,4.64-3.72h6.07V633.11z M356.32,642.44v-17.28c0-5.87-3.56-8.87-10.65-8.87
				c-4.28,0-6.83,0.86-9.27,3.71l3.41,3.21c1.43-1.84,2.81-2.5,5.66-2.5c4.03,0,5.66,1.58,5.66,4.85v1.84h-6.83
				c-5.91,0-8.92,3.1-8.92,7.44c0,2.19,0.71,4.19,2.04,5.56c1.58,1.58,3.71,2.34,6.93,2.34c3.21,0,5-0.76,6.89-2.65v2.34H356.32z
				 M331.09,642.44v-4.43h-2.3c-2.09,0-2.8-1.02-2.8-3.01v-28.86h-5.19v29.16c0,3.82,2.14,7.13,7.08,7.13H331.09z M315.8,642.44
				l-13-22.07l11.78-14.22h-6.73l-14.83,18.25v-18.25h-5.5v36.29h5.5v-10.55l6.12-7.34l10.2,17.89H315.8z"/>
		</g>
		<g style="clip-path:url(#SVGID_00000123433491666740277660000000573876788222452146_);">
			<path class="st3" d="M663.2,845.87c0,3.87-2.3,6.33-5.56,6.33c-3.27,0-5.51-2.45-5.51-6.33c0-3.93,2.24-6.27,5.51-6.27
				C661.1,839.6,663.2,842.3,663.2,845.87 M668.39,845.77c0-6.38-4.28-10.5-9.53-10.5c-1.12,0-2.24,0.15-3.21,0.56l7.8-15.6h-5.56
				l-8.26,16.82c-1.58,3.16-2.7,5.96-2.7,8.92c0,6.74,4.48,10.86,10.75,10.86C663.96,856.83,668.39,852.45,668.39,845.77
				 M629.39,835.16v-3.97h-5.15v-3.76c0-1.9,0.92-3.03,2.86-3.03h2.29v-4.43h-3.26c-4.84,0-7.08,3.46-7.08,7.2v4.01h-2.96v3.97h2.96
				v21.36h5.19v-21.36H629.39z M609.46,830.68h-5.19v25.84h5.19V830.68z M595.74,856.52V840c0-2.91-0.61-5.35-2.59-7.29
				c-1.53-1.48-3.72-2.34-6.38-2.34c-2.6,0-5.1,0.97-6.89,2.9v-2.59h-5.09v25.84h5.2v-15.75c0-3.98,2.45-5.76,5.36-5.76
				c2.91,0,5.21,1.73,5.21,5.76v15.76H595.74z M566.02,830.68h-5.19v25.84h5.19V830.68z M553.53,846.18c0-3.11-0.97-5.71-2.96-7.44
				c-1.52-1.37-3.41-2.19-6.78-2.7l-4.13-0.62c-1.69-0.25-3.16-0.86-4.08-1.68c-0.97-0.87-1.38-2.04-1.38-3.36
				c0-3.21,2.35-5.66,6.63-5.66c3.06,0,5.66,0.67,7.91,2.81l3.51-3.47c-3.1-2.9-6.47-4.13-11.26-4.13
				c-7.55,0-12.13,4.33-12.13,10.65c0,2.96,0.86,5.25,2.65,6.93c1.58,1.48,3.92,2.5,6.88,2.91l4.29,0.61
				c2.14,0.31,3.06,0.66,3.98,1.53c0.97,0.86,1.43,2.19,1.43,3.77c0,3.52-2.75,5.56-7.5,5.56c-3.72,0-6.63-0.82-9.28-3.47
				l-3.67,3.62c3.46,3.52,7.38,4.79,12.84,4.79C548.08,856.83,553.53,852.86,553.53,846.18 M513,816.45h-5l-14.53,43.84h5
				L513,816.45z M472.16,845.87c0,3.87-2.3,6.33-5.56,6.33c-3.26,0-5.51-2.45-5.51-6.33c0-3.93,2.25-6.27,5.51-6.27
				C470.07,839.6,472.16,842.3,472.16,845.87 M477.36,845.77c0-6.38-4.28-10.5-9.53-10.5c-1.12,0-2.24,0.15-3.21,0.56l7.81-15.6
				h-5.56l-8.26,16.82c-1.58,3.16-2.7,5.96-2.7,8.92c0,6.74,4.48,10.86,10.75,10.86C472.93,856.83,477.36,852.45,477.36,845.77
				 M431.88,841.49h-11.62c0.05-1.58,0.16-2.35,0.67-3.52c0.82-1.94,2.7-3.27,5.15-3.27c2.45,0,4.28,1.33,5.1,3.27
				C431.68,839.14,431.83,839.91,431.88,841.49 M437.03,845.1v-2.29c0-7.34-4.03-12.43-10.96-12.43c-6.63,0-10.95,4.84-10.95,13.2
				c0,9.84,5.14,13.26,11.62,13.26c4.53,0,7.04-1.37,9.69-4.02l-3.32-3.11c-1.84,1.84-3.36,2.65-6.27,2.65
				c-4.23,0-6.58-2.81-6.58-7.24H437.03z M409.61,848.62c0-4.59-2.86-6.89-7.7-7.29l-4.08-0.35c-2.75-0.26-3.57-1.43-3.57-2.96
				c0-1.94,1.58-3.32,4.69-3.32c2.45,0,4.74,0.51,6.37,1.89l3.26-3.32c-2.39-2.09-5.71-2.9-9.58-2.9c-5.4,0-9.74,2.85-9.74,7.89
				c0,4.54,2.8,6.74,7.65,7.14l4.13,0.35c2.5,0.2,3.47,1.33,3.47,3.06c0,2.45-2.5,3.57-5.66,3.57c-2.55,0-5.36-0.56-7.44-2.7
				l-3.42,3.41c3.06,3.01,6.63,3.72,10.86,3.72C405.02,856.83,409.61,854.03,409.61,848.62 M383.96,848.62
				c0-4.59-2.86-6.89-7.7-7.29l-4.08-0.35c-2.75-0.26-3.57-1.43-3.57-2.96c0-1.94,1.58-3.32,4.69-3.32c2.45,0,4.74,0.51,6.38,1.89
				l3.26-3.32c-2.4-2.09-5.71-2.9-9.58-2.9c-5.4,0-9.74,2.85-9.74,7.89c0,4.54,2.81,6.74,7.65,7.14l4.13,0.35
				c2.5,0.2,3.47,1.33,3.47,3.06c0,2.45-2.5,3.57-5.66,3.57c-2.55,0-5.35-0.56-7.44-2.7l-3.41,3.41c3.06,3.01,6.63,3.72,10.86,3.72
				C379.37,856.83,383.96,854.03,383.96,848.62 M351.13,847.2c0,1.84-0.35,3.06-1.12,3.83c-1.37,1.33-2.86,1.48-4.85,1.48
				c-3.26,0-4.74-1.33-4.74-3.68c0-2.35,1.58-3.72,4.64-3.72h6.07V847.2z M356.32,856.52v-17.28c0-5.87-3.56-8.87-10.65-8.87
				c-4.28,0-6.83,0.86-9.27,3.71l3.41,3.21c1.43-1.84,2.81-2.5,5.66-2.5c4.03,0,5.66,1.58,5.66,4.85v1.84h-6.83
				c-5.91,0-8.92,3.1-8.92,7.44c0,2.2,0.71,4.19,2.04,5.56c1.58,1.58,3.71,2.34,6.93,2.34c3.21,0,5-0.76,6.89-2.65v2.34H356.32z
				 M331.09,856.52v-4.43h-2.3c-2.09,0-2.8-1.02-2.8-3.01v-28.86h-5.19v29.16c0,3.82,2.14,7.13,7.08,7.13H331.09z M315.8,856.52
				l-13-22.07l11.78-14.22h-6.73l-14.83,18.25v-18.25h-5.5v36.29h5.5v-10.55l6.12-7.34l10.2,17.89H315.8z"/>
		</g>
		<g style="clip-path:url(#SVGID_00000123433491666740277660000000573876788222452146_);">
			<path class="st3" d="M668.49,950.65c0-3.42-0.41-6.94-3.16-9.69c-1.48-1.48-3.67-2.35-6.53-2.35c-2.65,0-4.79,0.82-6.02,2.09
				v-9.59h14.89v-4.63h-19.57v19.83h4.73c0.56-1.79,2.19-3.27,5.15-3.27c4.19,0,5.31,3.27,5.31,7.6c0,2.45-0.2,4.84-1.73,6.38
				c-0.92,0.92-2.25,1.43-3.78,1.43c-3.26,0-4.89-1.84-5.3-5.05h-5.19c0.2,2.6,0.82,5,2.75,6.93c1.58,1.58,4.28,2.8,7.75,2.8
				c3.52,0,6.02-1.22,7.65-2.85C668.09,957.64,668.49,954.53,668.49,950.65 M629.39,941.42v-3.97h-5.15v-3.76
				c0-1.9,0.92-3.03,2.86-3.03h2.29v-4.43h-3.26c-4.84,0-7.08,3.46-7.08,7.2v4.01h-2.96v3.97h2.96v21.36h5.19v-21.36H629.39z
				 M609.46,936.94h-5.19v25.84h5.19V936.94z M595.74,962.78v-16.52c0-2.91-0.61-5.35-2.59-7.29c-1.53-1.48-3.72-2.34-6.38-2.34
				c-2.6,0-5.1,0.97-6.89,2.9v-2.59h-5.09v25.84h5.2v-15.75c0-3.98,2.45-5.76,5.36-5.76c2.91,0,5.21,1.73,5.21,5.76v15.76H595.74z
				 M566.02,936.94h-5.19v25.84h5.19V936.94z M553.53,952.44c0-3.11-0.97-5.71-2.96-7.44c-1.52-1.37-3.41-2.19-6.78-2.7l-4.13-0.62
				c-1.69-0.25-3.16-0.86-4.08-1.68c-0.97-0.87-1.38-2.04-1.38-3.36c0-3.21,2.35-5.66,6.63-5.66c3.06,0,5.66,0.67,7.91,2.81
				l3.51-3.47c-3.1-2.9-6.47-4.13-11.26-4.13c-7.55,0-12.13,4.33-12.13,10.65c0,2.96,0.86,5.25,2.65,6.93
				c1.58,1.48,3.92,2.5,6.88,2.91l4.29,0.61c2.14,0.31,3.06,0.66,3.98,1.53c0.97,0.86,1.43,2.19,1.43,3.77
				c0,3.52-2.75,5.56-7.5,5.56c-3.72,0-6.63-0.82-9.28-3.47l-3.67,3.62c3.46,3.52,7.38,4.79,12.84,4.79
				C548.08,963.09,553.53,959.12,553.53,952.44 M513,922.72h-5l-14.53,43.84h5L513,922.72z M477.46,950.65
				c0-3.42-0.41-6.94-3.16-9.69c-1.48-1.48-3.67-2.35-6.53-2.35c-2.66,0-4.8,0.82-6.02,2.09v-9.59h14.89v-4.63h-19.57v19.83h4.73
				c0.56-1.79,2.19-3.27,5.16-3.27c4.18,0,5.3,3.27,5.3,7.6c0,2.45-0.2,4.84-1.73,6.38c-0.92,0.92-2.24,1.43-3.77,1.43
				c-3.27,0-4.9-1.84-5.31-5.05h-5.19c0.2,2.6,0.82,5,2.75,6.93c1.58,1.58,4.28,2.8,7.75,2.8c3.52,0,6.02-1.22,7.65-2.85
				C477.05,957.64,477.46,954.53,477.46,950.65 M431.88,947.75h-11.62c0.05-1.58,0.16-2.35,0.67-3.52c0.82-1.94,2.7-3.27,5.15-3.27
				c2.45,0,4.28,1.33,5.1,3.27C431.68,945.4,431.83,946.17,431.88,947.75 M437.03,951.36v-2.29c0-7.34-4.03-12.43-10.96-12.43
				c-6.63,0-10.95,4.84-10.95,13.2c0,9.84,5.14,13.26,11.62,13.26c4.53,0,7.04-1.37,9.69-4.02l-3.32-3.11
				c-1.84,1.84-3.36,2.65-6.27,2.65c-4.23,0-6.58-2.81-6.58-7.25H437.03z M409.61,954.88c0-4.59-2.86-6.89-7.7-7.29l-4.08-0.35
				c-2.75-0.26-3.57-1.43-3.57-2.96c0-1.94,1.58-3.32,4.69-3.32c2.45,0,4.74,0.51,6.37,1.89l3.26-3.32c-2.39-2.09-5.71-2.9-9.58-2.9
				c-5.4,0-9.74,2.85-9.74,7.89c0,4.54,2.8,6.74,7.65,7.14l4.13,0.35c2.5,0.2,3.47,1.33,3.47,3.06c0,2.45-2.5,3.57-5.66,3.57
				c-2.55,0-5.36-0.56-7.44-2.7l-3.42,3.41c3.06,3.01,6.63,3.72,10.86,3.72C405.02,963.09,409.61,960.29,409.61,954.88
				 M383.96,954.88c0-4.59-2.86-6.89-7.7-7.29l-4.08-0.35c-2.75-0.26-3.57-1.43-3.57-2.96c0-1.94,1.58-3.32,4.69-3.32
				c2.45,0,4.74,0.51,6.38,1.89l3.26-3.32c-2.4-2.09-5.71-2.9-9.58-2.9c-5.4,0-9.74,2.85-9.74,7.89c0,4.54,2.81,6.74,7.65,7.14
				l4.13,0.35c2.5,0.2,3.47,1.33,3.47,3.06c0,2.45-2.5,3.57-5.66,3.57c-2.55,0-5.35-0.56-7.44-2.7l-3.41,3.41
				c3.06,3.01,6.63,3.72,10.86,3.72C379.37,963.09,383.96,960.29,383.96,954.88 M351.13,953.46c0,1.84-0.35,3.06-1.12,3.83
				c-1.37,1.33-2.86,1.48-4.85,1.48c-3.26,0-4.74-1.33-4.74-3.68c0-2.35,1.58-3.72,4.64-3.72h6.07V953.46z M356.32,962.78V945.5
				c0-5.87-3.56-8.87-10.65-8.87c-4.28,0-6.83,0.86-9.27,3.71l3.41,3.21c1.43-1.84,2.81-2.5,5.66-2.5c4.03,0,5.66,1.58,5.66,4.85
				v1.84h-6.83c-5.91,0-8.92,3.1-8.92,7.44c0,2.19,0.71,4.19,2.04,5.56c1.58,1.58,3.71,2.34,6.93,2.34c3.21,0,5-0.76,6.89-2.65v2.34
				H356.32z M331.09,962.78v-4.43h-2.3c-2.09,0-2.8-1.02-2.8-3.01v-28.86h-5.19v29.16c0,3.82,2.14,7.13,7.08,7.13H331.09z
				 M315.8,962.78l-13-22.07l11.78-14.22h-6.73l-14.83,18.25v-18.25h-5.5v36.29h5.5v-10.55l6.12-7.34l10.2,17.89H315.8z"/>
		</g>
		<g style="clip-path:url(#SVGID_00000123433491666740277660000000573876788222452146_);">
			<path class="st3" d="M663.2,499.8c0,3.93-2.3,6.27-5.56,6.27c-3.47,0-5.51-2.7-5.51-6.27c0-3.87,2.24-6.32,5.51-6.32
				C660.9,493.48,663.2,495.93,663.2,499.8 M668.39,499.7c0-6.73-4.48-10.86-10.75-10.86c-6.27,0-10.71,4.38-10.71,11.06
				c0,6.38,4.23,10.5,9.48,10.5c1.12,0,2.29-0.16,3.26-0.56l-7.8,15.6h5.56l8.26-16.82C667.27,505.46,668.39,502.66,668.39,499.7
				 M629.39,504.09v-3.97h-5.15v-3.76c0-1.9,0.92-3.03,2.86-3.03h2.29v-4.43h-3.26c-4.84,0-7.08,3.46-7.08,7.2v4.01h-2.96v3.97h2.96
				v21.36h5.19v-21.36H629.39z M609.46,499.6h-5.19v25.84h5.19V499.6z M595.74,525.45v-16.52c0-2.9-0.61-5.35-2.59-7.29
				c-1.53-1.48-3.72-2.34-6.38-2.34c-2.6,0-5.1,0.97-6.89,2.9v-2.59h-5.09v25.84h5.2v-15.75c0-3.98,2.45-5.76,5.36-5.76
				c2.91,0,5.21,1.73,5.21,5.76v15.76H595.74z M566.02,499.6h-5.19v25.84h5.19V499.6z M553.53,515.1c0-3.11-0.97-5.71-2.96-7.44
				c-1.52-1.37-3.41-2.19-6.78-2.7l-4.13-0.62c-1.69-0.25-3.16-0.86-4.08-1.68c-0.97-0.87-1.38-2.04-1.38-3.36
				c0-3.21,2.35-5.66,6.63-5.66c3.06,0,5.66,0.67,7.91,2.81l3.51-3.47c-3.1-2.9-6.47-4.13-11.26-4.13
				c-7.55,0-12.13,4.33-12.13,10.65c0,2.96,0.86,5.25,2.65,6.93c1.58,1.48,3.92,2.5,6.88,2.91l4.29,0.61
				c2.14,0.31,3.06,0.66,3.98,1.53c0.97,0.86,1.43,2.19,1.43,3.77c0,3.52-2.75,5.56-7.5,5.56c-3.72,0-6.63-0.82-9.28-3.47
				l-3.67,3.62c3.46,3.52,7.38,4.79,12.84,4.79C548.08,525.75,553.53,521.78,553.53,515.1 M513,485.38h-5l-14.53,43.84h5L513,485.38
				z M472.16,499.8c0,3.93-2.3,6.27-5.56,6.27c-3.47,0-5.51-2.7-5.51-6.27c0-3.87,2.25-6.32,5.51-6.32
				C469.87,493.48,472.16,495.93,472.16,499.8 M477.36,499.7c0-6.73-4.48-10.86-10.75-10.86s-10.7,4.38-10.7,11.06
				c0,6.38,4.22,10.5,9.48,10.5c1.12,0,2.3-0.16,3.26-0.56l-7.8,15.6h5.56l8.26-16.82C476.24,505.46,477.36,502.66,477.36,499.7
				 M431.88,510.41h-11.62c0.05-1.58,0.16-2.35,0.67-3.52c0.82-1.94,2.7-3.27,5.15-3.27c2.45,0,4.28,1.33,5.1,3.27
				C431.68,508.06,431.83,508.83,431.88,510.41 M437.03,514.02v-2.29c0-7.34-4.03-12.43-10.96-12.43c-6.63,0-10.95,4.84-10.95,13.2
				c0,9.84,5.14,13.25,11.62,13.25c4.53,0,7.04-1.37,9.69-4.02l-3.32-3.11c-1.84,1.84-3.36,2.65-6.27,2.65
				c-4.23,0-6.58-2.81-6.58-7.24H437.03z M409.61,517.55c0-4.59-2.86-6.89-7.7-7.29l-4.08-0.35c-2.75-0.26-3.57-1.43-3.57-2.96
				c0-1.94,1.58-3.32,4.69-3.32c2.45,0,4.74,0.51,6.37,1.89l3.26-3.32c-2.39-2.09-5.71-2.9-9.58-2.9c-5.4,0-9.74,2.85-9.74,7.89
				c0,4.54,2.8,6.74,7.65,7.14l4.13,0.35c2.5,0.2,3.47,1.33,3.47,3.06c0,2.45-2.5,3.57-5.66,3.57c-2.55,0-5.36-0.56-7.44-2.7
				l-3.42,3.42c3.06,3,6.63,3.71,10.86,3.71C405.02,525.75,409.61,522.95,409.61,517.55 M383.96,517.55c0-4.59-2.86-6.89-7.7-7.29
				l-4.08-0.35c-2.75-0.26-3.57-1.43-3.57-2.96c0-1.94,1.58-3.32,4.69-3.32c2.45,0,4.74,0.51,6.38,1.89l3.26-3.32
				c-2.4-2.09-5.71-2.9-9.58-2.9c-5.4,0-9.74,2.85-9.74,7.89c0,4.54,2.81,6.74,7.65,7.14l4.13,0.35c2.5,0.2,3.47,1.33,3.47,3.06
				c0,2.45-2.5,3.57-5.66,3.57c-2.55,0-5.35-0.56-7.44-2.7l-3.41,3.42c3.06,3,6.63,3.71,10.86,3.71
				C379.37,525.75,383.96,522.95,383.96,517.55 M351.13,516.12c0,1.84-0.35,3.06-1.12,3.83c-1.37,1.33-2.86,1.48-4.85,1.48
				c-3.26,0-4.74-1.33-4.74-3.68c0-2.35,1.58-3.72,4.64-3.72h6.07V516.12z M356.32,525.45v-17.28c0-5.87-3.56-8.87-10.65-8.87
				c-4.28,0-6.83,0.86-9.27,3.71l3.41,3.21c1.43-1.84,2.81-2.5,5.66-2.5c4.03,0,5.66,1.58,5.66,4.85v1.84h-6.83
				c-5.91,0-8.92,3.1-8.92,7.44c0,2.2,0.71,4.19,2.04,5.56c1.58,1.58,3.71,2.34,6.93,2.34c3.21,0,5-0.76,6.89-2.65v2.34H356.32z
				 M331.09,525.45v-4.43h-2.3c-2.09,0-2.8-1.02-2.8-3.01v-28.86h-5.19v29.16c0,3.82,2.14,7.13,7.08,7.13H331.09z M315.8,525.45
				l-13-22.07l11.78-14.22h-6.73l-14.83,18.25v-18.25h-5.5v36.29h5.5v-10.55l6.12-7.34l10.2,17.89H315.8z"/>
		</g>
		<g style="clip-path:url(#SVGID_00000123433491666740277660000000573876788222452146_);">
			<path class="st3" d="M690.62,403.57c0,3.52-1.99,5.92-5.31,5.92c-3.31,0-5.25-2.4-5.25-5.92v-15.8c0-3.52,1.94-5.91,5.25-5.91
				c3.32,0,5.31,2.39,5.31,5.91V403.57z M695.82,403.73v-16.12c0-6.47-4.74-10.4-10.5-10.4c-5.76,0-10.44,3.92-10.44,10.4v16.12
				c0,6.48,4.69,10.4,10.44,10.4C691.08,414.12,695.82,410.21,695.82,403.73 M662.17,413.82v-36.29h-5.19l-7.08,6.12v5.76l7.08-6.21
				v30.63H662.17z M629.39,392.46v-3.97h-5.15v-3.76c0-1.9,0.92-3.03,2.86-3.03h2.3v-4.43h-3.26c-4.84,0-7.08,3.46-7.08,7.2v4.01
				h-2.96v3.97h2.96v21.36h5.19v-21.36H629.39z M609.45,387.98h-5.19v25.84h5.19V387.98z M595.74,413.82V397.3
				c0-2.9-0.61-5.35-2.6-7.29c-1.53-1.48-3.72-2.34-6.37-2.34c-2.6,0-5.1,0.97-6.89,2.9v-2.59h-5.09v25.84h5.19v-15.75
				c0-3.98,2.45-5.76,5.36-5.76c2.91,0,5.21,1.73,5.21,5.76v15.76H595.74z M566.02,387.98h-5.2v25.84h5.2V387.98z M553.53,403.47
				c0-3.11-0.97-5.71-2.95-7.44c-1.53-1.37-3.41-2.19-6.78-2.7l-4.13-0.62c-1.68-0.25-3.16-0.86-4.08-1.68
				c-0.97-0.87-1.38-2.04-1.38-3.36c0-3.21,2.35-5.66,6.63-5.66c3.06,0,5.66,0.67,7.91,2.81l3.52-3.47
				c-3.11-2.9-6.47-4.13-11.26-4.13c-7.55,0-12.13,4.33-12.13,10.65c0,2.96,0.86,5.25,2.65,6.93c1.58,1.48,3.92,2.5,6.88,2.91
				l4.28,0.61c2.14,0.31,3.06,0.66,3.98,1.53c0.97,0.86,1.43,2.19,1.43,3.77c0,3.52-2.76,5.56-7.5,5.56c-3.72,0-6.63-0.82-9.28-3.47
				l-3.67,3.62c3.47,3.52,7.39,4.79,12.85,4.79C548.08,414.12,553.53,410.15,553.53,403.47 M513,373.75h-5l-14.53,43.84h5
				L513,373.75z M471.91,403.57c0,3.52-1.99,5.92-5.31,5.92c-3.31,0-5.25-2.4-5.25-5.92v-15.8c0-3.52,1.94-5.91,5.25-5.91
				c3.32,0,5.31,2.39,5.31,5.91V403.57z M477.11,403.73v-16.12c0-6.47-4.74-10.4-10.5-10.4c-5.76,0-10.44,3.92-10.44,10.4v16.12
				c0,6.48,4.68,10.4,10.44,10.4C472.37,414.12,477.11,410.21,477.11,403.73 M443.46,413.82v-36.29h-5.19l-7.08,6.12v5.76l7.08-6.21
				v30.63H443.46z M404.2,398.79h-11.62c0.05-1.58,0.16-2.35,0.67-3.52c0.82-1.94,2.7-3.27,5.15-3.27s4.28,1.33,5.1,3.27
				C403.99,396.44,404.15,397.2,404.2,398.79 M409.35,402.4v-2.29c0-7.34-4.03-12.43-10.96-12.43c-6.63,0-10.95,4.84-10.95,13.2
				c0,9.84,5.14,13.25,11.62,13.25c4.53,0,7.04-1.37,9.69-4.02l-3.32-3.11c-1.84,1.84-3.36,2.65-6.27,2.65
				c-4.23,0-6.58-2.81-6.58-7.25H409.35z M381.92,405.92c0-4.59-2.86-6.89-7.7-7.29l-4.08-0.35c-2.75-0.26-3.57-1.43-3.57-2.96
				c0-1.94,1.58-3.32,4.69-3.32c2.45,0,4.74,0.51,6.37,1.89l3.26-3.32c-2.39-2.09-5.71-2.9-9.58-2.9c-5.4,0-9.74,2.85-9.74,7.89
				c0,4.54,2.8,6.74,7.65,7.14l4.13,0.35c2.5,0.2,3.47,1.33,3.47,3.06c0,2.45-2.5,3.57-5.66,3.57c-2.55,0-5.36-0.56-7.44-2.7
				l-3.42,3.42c3.06,3,6.63,3.71,10.86,3.71C377.33,414.12,381.92,411.32,381.92,405.92 M356.28,405.92c0-4.59-2.86-6.89-7.7-7.29
				l-4.08-0.35c-2.75-0.26-3.57-1.43-3.57-2.96c0-1.94,1.58-3.32,4.69-3.32c2.45,0,4.74,0.51,6.38,1.89l3.26-3.32
				c-2.4-2.09-5.71-2.9-9.58-2.9c-5.4,0-9.74,2.85-9.74,7.89c0,4.54,2.81,6.74,7.65,7.14l4.13,0.35c2.5,0.2,3.47,1.33,3.47,3.06
				c0,2.45-2.5,3.57-5.66,3.57c-2.55,0-5.35-0.56-7.44-2.7l-3.41,3.42c3.06,3,6.63,3.71,10.86,3.71
				C351.69,414.12,356.28,411.32,356.28,405.92 M323.45,404.49c0,1.84-0.35,3.06-1.12,3.83c-1.37,1.33-2.86,1.48-4.85,1.48
				c-3.26,0-4.74-1.33-4.74-3.68c0-2.35,1.58-3.72,4.64-3.72h6.07V404.49z M328.64,413.82v-17.28c0-5.87-3.56-8.87-10.65-8.87
				c-4.28,0-6.83,0.86-9.27,3.71l3.41,3.21c1.43-1.84,2.81-2.5,5.66-2.5c4.03,0,5.66,1.58,5.66,4.85v1.84h-6.83
				c-5.91,0-8.92,3.1-8.92,7.44c0,2.19,0.71,4.19,2.04,5.56c1.58,1.58,3.71,2.34,6.93,2.34s5-0.76,6.89-2.65v2.34H328.64z
				 M303.41,413.82v-4.43h-2.3c-2.09,0-2.8-1.02-2.8-3.01v-28.86h-5.19v29.16c0,3.82,2.14,7.13,7.08,7.13H303.41z M288.11,413.82
				l-13-22.07l11.78-14.22h-6.73l-14.83,18.25v-18.25h-5.5v36.29h5.5v-10.55l6.12-7.34l10.2,17.89H288.11z"/>
		</g>
		<g style="clip-path:url(#SVGID_00000123433491666740277660000000573876788222452146_);">
			<path class="st3" d="M689.85,302.19V265.9h-5.19l-7.09,6.12v5.76l7.09-6.21v30.63H689.85z M662.17,302.19V265.9h-5.19l-7.08,6.12
				v5.76l7.08-6.21v30.63H662.17z M629.39,280.83v-3.97h-5.15v-3.76c0-1.9,0.92-3.03,2.86-3.03h2.3v-4.43h-3.26
				c-4.84,0-7.08,3.46-7.08,7.2v4.01h-2.96v3.97h2.96v21.36h5.19v-21.36H629.39z M609.45,276.35h-5.19v25.84h5.19V276.35z
				 M595.74,302.19v-16.52c0-2.91-0.61-5.35-2.6-7.29c-1.53-1.48-3.72-2.34-6.37-2.34c-2.6,0-5.1,0.97-6.89,2.9v-2.59h-5.09v25.84
				h5.19v-15.75c0-3.98,2.45-5.76,5.36-5.76c2.91,0,5.21,1.73,5.21,5.76v15.76H595.74z M566.02,276.35h-5.2v25.84h5.2V276.35z
				 M553.53,291.84c0-3.11-0.97-5.71-2.95-7.44c-1.53-1.37-3.41-2.19-6.78-2.7l-4.13-0.62c-1.68-0.25-3.16-0.86-4.08-1.68
				c-0.97-0.87-1.38-2.04-1.38-3.36c0-3.21,2.35-5.66,6.63-5.66c3.06,0,5.66,0.67,7.91,2.81l3.52-3.47
				c-3.11-2.9-6.47-4.13-11.26-4.13c-7.55,0-12.13,4.33-12.13,10.65c0,2.96,0.86,5.25,2.65,6.93c1.58,1.48,3.92,2.5,6.88,2.91
				l4.28,0.61c2.14,0.31,3.06,0.66,3.98,1.53c0.97,0.86,1.43,2.19,1.43,3.77c0,3.52-2.76,5.56-7.5,5.56c-3.72,0-6.63-0.82-9.28-3.47
				l-3.67,3.62c3.47,3.52,7.39,4.79,12.85,4.79C548.08,302.5,553.53,298.53,553.53,291.84 M513,262.12h-5l-14.53,43.84h5L513,262.12
				z M471.14,302.19V265.9h-5.19l-7.09,6.12v5.76l7.09-6.21v30.63H471.14z M443.46,302.19V265.9h-5.19l-7.08,6.12v5.76l7.08-6.21
				v30.63H443.46z M404.2,287.16h-11.62c0.05-1.58,0.16-2.35,0.67-3.52c0.82-1.94,2.7-3.27,5.15-3.27s4.28,1.33,5.1,3.27
				C403.99,284.81,404.15,285.58,404.2,287.16 M409.35,290.77v-2.29c0-7.34-4.03-12.43-10.96-12.43c-6.63,0-10.95,4.84-10.95,13.2
				c0,9.84,5.14,13.26,11.62,13.26c4.53,0,7.04-1.37,9.69-4.02l-3.32-3.11c-1.84,1.84-3.36,2.65-6.27,2.65
				c-4.23,0-6.58-2.81-6.58-7.25H409.35z M381.92,294.29c0-4.59-2.86-6.89-7.7-7.29l-4.08-0.35c-2.75-0.26-3.57-1.43-3.57-2.96
				c0-1.94,1.58-3.32,4.69-3.32c2.45,0,4.74,0.51,6.37,1.89l3.26-3.32c-2.39-2.09-5.71-2.9-9.58-2.9c-5.4,0-9.74,2.85-9.74,7.89
				c0,4.54,2.8,6.74,7.65,7.14l4.13,0.35c2.5,0.2,3.47,1.33,3.47,3.06c0,2.45-2.5,3.57-5.66,3.57c-2.55,0-5.36-0.56-7.44-2.7
				l-3.42,3.41c3.06,3.01,6.63,3.72,10.86,3.72C377.33,302.5,381.92,299.7,381.92,294.29 M356.28,294.29c0-4.59-2.86-6.89-7.7-7.29
				l-4.08-0.35c-2.75-0.26-3.57-1.43-3.57-2.96c0-1.94,1.58-3.32,4.69-3.32c2.45,0,4.74,0.51,6.38,1.89l3.26-3.32
				c-2.4-2.09-5.71-2.9-9.58-2.9c-5.4,0-9.74,2.85-9.74,7.89c0,4.54,2.81,6.74,7.65,7.14l4.13,0.35c2.5,0.2,3.47,1.33,3.47,3.06
				c0,2.45-2.5,3.57-5.66,3.57c-2.55,0-5.35-0.56-7.44-2.7l-3.41,3.41c3.06,3.01,6.63,3.72,10.86,3.72
				C351.69,302.5,356.28,299.7,356.28,294.29 M323.45,292.86c0,1.84-0.35,3.06-1.12,3.83c-1.37,1.33-2.86,1.48-4.85,1.48
				c-3.26,0-4.74-1.33-4.74-3.68c0-2.35,1.58-3.72,4.64-3.72h6.07V292.86z M328.64,302.19v-17.28c0-5.87-3.56-8.87-10.65-8.87
				c-4.28,0-6.83,0.86-9.27,3.71l3.41,3.21c1.43-1.84,2.81-2.5,5.66-2.5c4.03,0,5.66,1.58,5.66,4.85v1.84h-6.83
				c-5.91,0-8.92,3.1-8.92,7.44c0,2.19,0.71,4.19,2.04,5.56c1.58,1.58,3.71,2.34,6.93,2.34s5-0.76,6.89-2.65v2.34H328.64z
				 M303.41,302.19v-4.43h-2.3c-2.09,0-2.8-1.02-2.8-3.01V265.9h-5.19v29.16c0,3.82,2.14,7.13,7.08,7.13H303.41z M288.11,302.19
				l-13-22.07l11.78-14.22h-6.73l-14.83,18.25V265.9h-5.5v36.29h5.5v-10.55l6.12-7.34l10.2,17.89H288.11z"/>
		</g>
		<g style="clip-path:url(#SVGID_00000123433491666740277660000000573876788222452146_);">
			<path class="st3" d="M696.07,190.56v-4.63H681.3l11.37-13.92c2.24-2.76,3.41-4.64,3.41-7.86c0-6.27-4.28-10.19-10.49-10.19
				c-6.17,0-10.56,4.07-10.56,10.25h5.2c0-4.08,2.6-5.61,5.36-5.61c3.36,0,5.3,2.25,5.3,5.51c0,1.84-0.56,3.16-1.94,4.84
				l-13.97,16.99v4.63H696.07z M662.17,190.56v-36.29h-5.19l-7.08,6.12v5.76l7.08-6.21v30.63H662.17z M629.39,169.2v-3.97h-5.15
				v-3.76c0-1.9,0.92-3.03,2.86-3.03h2.3v-4.43h-3.26c-4.84,0-7.08,3.46-7.08,7.2v4.01h-2.96v3.97h2.96v21.36h5.19V169.2H629.39z
				 M609.45,164.72h-5.19v25.84h5.19V164.72z M595.74,190.56v-16.52c0-2.91-0.61-5.35-2.6-7.29c-1.53-1.48-3.72-2.34-6.37-2.34
				c-2.6,0-5.1,0.97-6.89,2.9v-2.59h-5.09v25.84h5.19v-15.75c0-3.98,2.45-5.76,5.36-5.76c2.91,0,5.21,1.73,5.21,5.76v15.76H595.74z
				 M566.02,164.72h-5.2v25.84h5.2V164.72z M553.53,180.22c0-3.11-0.97-5.71-2.95-7.44c-1.53-1.37-3.41-2.19-6.78-2.7l-4.13-0.62
				c-1.68-0.25-3.16-0.86-4.08-1.68c-0.97-0.87-1.38-2.04-1.38-3.36c0-3.21,2.35-5.66,6.63-5.66c3.06,0,5.66,0.67,7.91,2.81
				l3.52-3.47c-3.11-2.9-6.47-4.13-11.26-4.13c-7.55,0-12.13,4.33-12.13,10.65c0,2.96,0.86,5.25,2.65,6.93
				c1.58,1.48,3.92,2.5,6.88,2.91l4.28,0.61c2.14,0.31,3.06,0.66,3.98,1.53c0.97,0.86,1.43,2.19,1.43,3.77
				c0,3.52-2.76,5.56-7.5,5.56c-3.72,0-6.63-0.82-9.28-3.47l-3.67,3.62c3.47,3.52,7.39,4.79,12.85,4.79
				C548.08,190.87,553.53,186.9,553.53,180.22 M513,150.5h-5l-14.53,43.84h5L513,150.5z M477.36,190.56v-4.63h-14.77l11.37-13.92
				c2.24-2.76,3.41-4.64,3.41-7.86c0-6.27-4.28-10.19-10.49-10.19c-6.17,0-10.56,4.07-10.56,10.25h5.2c0-4.08,2.6-5.61,5.36-5.61
				c3.36,0,5.3,2.25,5.3,5.51c0,1.84-0.56,3.16-1.94,4.84l-13.97,16.99v4.63H477.36z M443.46,190.56v-36.29h-5.19l-7.08,6.12v5.76
				l7.08-6.21v30.63H443.46z M404.2,175.53h-11.62c0.05-1.58,0.16-2.35,0.67-3.52c0.82-1.94,2.7-3.27,5.15-3.27s4.28,1.33,5.1,3.27
				C403.99,173.18,404.15,173.95,404.2,175.53 M409.35,179.14v-2.29c0-7.34-4.03-12.43-10.96-12.43c-6.63,0-10.95,4.84-10.95,13.2
				c0,9.84,5.14,13.26,11.62,13.26c4.53,0,7.04-1.37,9.69-4.02l-3.32-3.11c-1.84,1.84-3.36,2.65-6.27,2.65
				c-4.23,0-6.58-2.81-6.58-7.25H409.35z M381.92,182.66c0-4.59-2.86-6.89-7.7-7.29l-4.08-0.35c-2.75-0.26-3.57-1.43-3.57-2.96
				c0-1.94,1.58-3.32,4.69-3.32c2.45,0,4.74,0.51,6.37,1.89l3.26-3.32c-2.39-2.09-5.71-2.9-9.58-2.9c-5.4,0-9.74,2.85-9.74,7.89
				c0,4.54,2.8,6.74,7.65,7.14l4.13,0.35c2.5,0.2,3.47,1.33,3.47,3.06c0,2.45-2.5,3.57-5.66,3.57c-2.55,0-5.36-0.56-7.44-2.7
				l-3.42,3.41c3.06,3.01,6.63,3.72,10.86,3.72C377.33,190.87,381.92,188.07,381.92,182.66 M356.28,182.66
				c0-4.59-2.86-6.89-7.7-7.29l-4.08-0.35c-2.75-0.26-3.57-1.43-3.57-2.96c0-1.94,1.58-3.32,4.69-3.32c2.45,0,4.74,0.51,6.38,1.89
				l3.26-3.32c-2.4-2.09-5.71-2.9-9.58-2.9c-5.4,0-9.74,2.85-9.74,7.89c0,4.54,2.81,6.74,7.65,7.14l4.13,0.35
				c2.5,0.2,3.47,1.33,3.47,3.06c0,2.45-2.5,3.57-5.66,3.57c-2.55,0-5.35-0.56-7.44-2.7l-3.41,3.41c3.06,3.01,6.63,3.72,10.86,3.72
				C351.69,190.87,356.28,188.07,356.28,182.66 M323.45,181.24c0,1.84-0.35,3.06-1.12,3.83c-1.37,1.33-2.86,1.48-4.85,1.48
				c-3.26,0-4.74-1.33-4.74-3.68c0-2.35,1.58-3.72,4.64-3.72h6.07V181.24z M328.64,190.56v-17.28c0-5.87-3.56-8.87-10.65-8.87
				c-4.28,0-6.83,0.86-9.27,3.71l3.41,3.21c1.43-1.84,2.81-2.5,5.66-2.5c4.03,0,5.66,1.58,5.66,4.85v1.84h-6.83
				c-5.91,0-8.92,3.1-8.92,7.44c0,2.19,0.71,4.19,2.04,5.56c1.58,1.58,3.71,2.34,6.93,2.34s5-0.76,6.89-2.65v2.34H328.64z
				 M303.41,190.56v-4.43h-2.3c-2.09,0-2.8-1.02-2.8-3.01v-28.86h-5.19v29.16c0,3.82,2.14,7.13,7.08,7.13H303.41z M288.11,190.56
				l-13-22.07l11.78-14.22h-6.73l-14.83,18.25v-18.25h-5.5v36.29h5.5v-10.55l6.12-7.34l10.2,17.89H288.11z"/>
		</g>
		<g style="clip-path:url(#SVGID_00000123433491666740277660000000573876788222452146_);">
			<path class="st3" d="M668.9,717.04v-4.64h-21.62v10.35h5v-5.71h11.07l-12.19,31.66h5.61L668.9,717.04z M629.39,727.34v-3.97
				h-5.15v-3.76c0-1.9,0.92-3.03,2.86-3.03h2.29v-4.43h-3.26c-4.84,0-7.08,3.46-7.08,7.2v4.01h-2.96v3.97h2.96v21.36h5.19v-21.36
				H629.39z M609.46,722.86h-5.19v25.84h5.19V722.86z M595.74,748.7v-16.52c0-2.9-0.61-5.35-2.59-7.29
				c-1.53-1.48-3.72-2.34-6.38-2.34c-2.6,0-5.1,0.97-6.89,2.9v-2.59h-5.09v25.84h5.2v-15.75c0-3.98,2.45-5.76,5.36-5.76
				c2.91,0,5.21,1.73,5.21,5.76v15.75H595.74z M566.02,722.86h-5.19v25.84h5.19V722.86z M553.53,738.35c0-3.11-0.97-5.71-2.96-7.44
				c-1.52-1.37-3.41-2.19-6.78-2.7l-4.13-0.62c-1.69-0.25-3.16-0.86-4.08-1.68c-0.97-0.87-1.38-2.04-1.38-3.36
				c0-3.21,2.35-5.66,6.63-5.66c3.06,0,5.66,0.67,7.91,2.81l3.51-3.47c-3.1-2.9-6.47-4.13-11.26-4.13
				c-7.55,0-12.13,4.33-12.13,10.65c0,2.96,0.86,5.25,2.65,6.93c1.58,1.48,3.92,2.5,6.88,2.91l4.29,0.61
				c2.14,0.31,3.06,0.66,3.98,1.53c0.97,0.86,1.43,2.19,1.43,3.77c0,3.52-2.75,5.56-7.5,5.56c-3.72,0-6.63-0.82-9.28-3.47
				l-3.67,3.62c3.46,3.52,7.38,4.79,12.84,4.79C548.08,749,553.53,745.03,553.53,738.35 M513,708.63h-5l-14.53,43.84h5L513,708.63z
				 M477.87,717.04v-4.64h-21.62v10.35h5v-5.71h11.06l-12.18,31.66h5.61L477.87,717.04z M431.88,733.67h-11.62
				c0.05-1.58,0.16-2.35,0.67-3.52c0.82-1.94,2.7-3.27,5.15-3.27c2.45,0,4.28,1.33,5.1,3.27
				C431.68,731.32,431.83,732.08,431.88,733.67 M437.03,737.28v-2.29c0-7.34-4.03-12.43-10.96-12.43c-6.63,0-10.95,4.84-10.95,13.2
				c0,9.84,5.14,13.25,11.62,13.25c4.53,0,7.04-1.37,9.69-4.02l-3.32-3.11c-1.84,1.84-3.36,2.65-6.27,2.65
				c-4.23,0-6.58-2.81-6.58-7.24H437.03z M409.61,740.8c0-4.59-2.86-6.89-7.7-7.29l-4.08-0.35c-2.75-0.26-3.57-1.43-3.57-2.96
				c0-1.94,1.58-3.32,4.69-3.32c2.45,0,4.74,0.51,6.37,1.89l3.26-3.32c-2.39-2.09-5.71-2.9-9.58-2.9c-5.4,0-9.74,2.85-9.74,7.89
				c0,4.54,2.8,6.74,7.65,7.14l4.13,0.35c2.5,0.2,3.47,1.33,3.47,3.06c0,2.45-2.5,3.57-5.66,3.57c-2.55,0-5.36-0.56-7.44-2.7
				l-3.42,3.42c3.06,3,6.63,3.71,10.86,3.71C405.02,749,409.61,746.2,409.61,740.8 M383.96,740.8c0-4.59-2.86-6.89-7.7-7.29
				l-4.08-0.35c-2.75-0.26-3.57-1.43-3.57-2.96c0-1.94,1.58-3.32,4.69-3.32c2.45,0,4.74,0.51,6.38,1.89l3.26-3.32
				c-2.4-2.09-5.71-2.9-9.58-2.9c-5.4,0-9.74,2.85-9.74,7.89c0,4.54,2.81,6.74,7.65,7.14l4.13,0.35c2.5,0.2,3.47,1.33,3.47,3.06
				c0,2.45-2.5,3.57-5.66,3.57c-2.55,0-5.35-0.56-7.44-2.7l-3.41,3.42c3.06,3,6.63,3.71,10.86,3.71
				C379.37,749,383.96,746.2,383.96,740.8 M351.13,739.37c0,1.84-0.35,3.06-1.12,3.83c-1.37,1.33-2.86,1.48-4.85,1.48
				c-3.26,0-4.74-1.33-4.74-3.68c0-2.35,1.58-3.72,4.64-3.72h6.07V739.37z M356.32,748.7v-17.28c0-5.87-3.56-8.87-10.65-8.87
				c-4.28,0-6.83,0.86-9.27,3.71l3.41,3.21c1.43-1.84,2.81-2.5,5.66-2.5c4.03,0,5.66,1.58,5.66,4.85v1.84h-6.83
				c-5.91,0-8.92,3.1-8.92,7.44c0,2.2,0.71,4.19,2.04,5.56c1.58,1.58,3.71,2.34,6.93,2.34c3.21,0,5-0.76,6.89-2.65v2.34H356.32z
				 M331.09,748.7v-4.43h-2.3c-2.09,0-2.8-1.02-2.8-3.01V712.4h-5.19v29.16c0,3.82,2.14,7.13,7.08,7.13H331.09z M315.8,748.7
				l-13-22.07l11.78-14.22h-6.73l-14.83,18.25V712.4h-5.5v36.29h5.5v-10.55l6.12-7.34l10.2,17.89H315.8z"/>
		</g>
	</g>
	<g>
		<polygon class="st4" points="19.8,718.33 35.15,718.33 27.48,708.18 		"/>
	</g>
	<g>
		<polygon class="st4" points="19.8,738.52 35.15,738.52 27.48,728.37 		"/>
	</g>
	<g>
		<polygon class="st4" points="19.8,758.7 35.15,758.7 27.48,748.55 		"/>
	</g>
	<g>
		<polygon class="st4" points="19.8,698.15 35.15,698.15 27.48,688 		"/>
	</g>
	<g>
		<polygon class="st4" points="19.8,823.11 35.15,823.11 27.48,812.96 		"/>
	</g>
	<g>
		<polygon class="st4" points="19.8,843.29 35.15,843.29 27.48,833.14 		"/>
	</g>
	<g>
		<polygon class="st4" points="19.8,863.48 35.15,863.48 27.48,853.33 		"/>
	</g>
	<g>
		<polygon class="st4" points="19.8,802.92 35.15,802.92 27.48,792.77 		"/>
	</g>
	<g>
		<polygon class="st4" points="19.8,940.24 35.15,940.24 27.48,930.09 		"/>
	</g>
	<g>
		<polygon class="st4" points="19.8,960.43 35.15,960.43 27.48,950.28 		"/>
	</g>
	<g>
		<polygon class="st4" points="19.8,980.61 35.15,980.61 27.48,970.47 		"/>
	</g>
	<g>
		<polygon class="st4" points="19.8,920.06 35.15,920.06 27.48,909.91 		"/>
	</g>
	<g>
		<polygon class="st4" points="19.8,611.85 35.15,611.85 27.48,601.7 		"/>
	</g>
	<g>
		<polygon class="st4" points="19.8,632.03 35.15,632.03 27.48,621.89 		"/>
	</g>
	<g>
		<polygon class="st4" points="19.8,652.22 35.15,652.22 27.48,642.07 		"/>
	</g>
	<g>
		<polygon class="st4" points="19.8,591.66 35.15,591.66 27.48,581.51 		"/>
	</g>
	<g>
		<polygon class="st4" points="19.8,497.54 35.15,497.54 27.48,487.39 		"/>
	</g>
	<g>
		<polygon class="st4" points="19.8,517.72 35.15,517.72 27.48,507.58 		"/>
	</g>
	<g>
		<polygon class="st4" points="19.8,537.91 35.15,537.91 27.48,527.76 		"/>
	</g>
	<g>
		<polygon class="st4" points="19.8,477.35 35.15,477.35 27.48,467.2 		"/>
	</g>
	<g>
		<polygon class="st4" points="19.8,384.57 35.15,384.57 27.48,374.42 		"/>
	</g>
	<g>
		<polygon class="st4" points="19.8,404.75 35.15,404.75 27.48,394.6 		"/>
	</g>
	<g>
		<polygon class="st4" points="19.8,424.94 35.15,424.94 27.48,414.79 		"/>
	</g>
	<g>
		<polygon class="st4" points="19.8,364.38 35.15,364.38 27.48,354.23 		"/>
	</g>
	<g>
		<polygon class="st4" points="19.8,274.28 35.15,274.28 27.48,264.14 		"/>
	</g>
	<g>
		<polygon class="st4" points="19.8,294.47 35.15,294.47 27.48,284.32 		"/>
	</g>
	<g>
		<polygon class="st4" points="19.8,314.66 35.15,314.66 27.48,304.51 		"/>
	</g>
	<g>
		<polygon class="st4" points="19.8,254.1 35.15,254.1 27.48,243.95 		"/>
	</g>
	<g>
		<polygon class="st4" points="19.8,162.66 35.15,162.66 27.48,152.51 		"/>
	</g>
	<g>
		<polygon class="st4" points="19.8,182.84 35.15,182.84 27.48,172.69 		"/>
	</g>
	<g>
		<polygon class="st4" points="19.8,203.03 35.15,203.03 27.48,192.88 		"/>
	</g>
	<g>
		<polygon class="st4" points="19.8,142.47 35.15,142.47 27.48,132.32 		"/>
	</g>
</g>
</svg>
