<?xml version="1.0" encoding="utf-8"?>
<!-- Generator: Adobe Illustrator 26.2.1, SVG Export Plug-In . SVG Version: 6.00 Build 0)  -->
<svg version="1.1" id="Ebene_1" xmlns="http://www.w3.org/2000/svg" xmlns:xlink="http://www.w3.org/1999/xlink" x="0px" y="0px"
	 viewBox="0 0 1000 702.95" style="enable-background:new 0 0 1000 702.95;" xml:space="preserve">
<style type="text/css">
	.st0{fill:#A2B9E1;}
	.st1{fill:#6796CF;}
	.st2{clip-path:url(#SVGID_00000080893190467121579620000005298488000017521314_);}
	.st3{fill:#2B2961;}
	.st4{fill:#FFFFFF;}
	.st5{clip-path:url(#SVGID_00000035505609673592381960000003451554984072781187_);}
	.st6{clip-path:url(#SVGID_00000155865878217919791420000001471006532729926546_);}
	.st7{clip-path:url(#SVGID_00000100382427162817552600000004932113679395211650_);}
	.st8{clip-path:url(#SVGID_00000099650868533833084070000011671389732516257982_);}
	.st9{clip-path:url(#SVGID_00000097497815038261882000000006081399344094912177_);}
	.st10{opacity:0.52;clip-path:url(#SVGID_00000004535968553442817820000007886648170851218053_);}
	.st11{clip-path:url(#SVGID_00000117657369080125837500000011658212526429780907_);}
	.st12{clip-path:url(#SVGID_00000155839519653656314120000012160623949995886748_);}
	.st13{clip-path:url(#SVGID_00000160163285149346708620000009025233784270893971_);}
	.st14{clip-path:url(#SVGID_00000038390905165632300990000010378675242186022833_);}
	.st15{clip-path:url(#SVGID_00000160192307618775939130000009478397696089904014_);}
	.st16{clip-path:url(#SVGID_00000015350156181269213210000009976561505986772880_);}
	.st17{clip-path:url(#SVGID_00000122694603506173593810000007830745983273211582_);}
	.st18{clip-path:url(#SVGID_00000037675403840899409760000015161087350604229761_);}
	.st19{clip-path:url(#SVGID_00000043423243215555717920000005577335941222061982_);}
	.st20{clip-path:url(#SVGID_00000050644965646697887960000005686686399919559323_);}
	.st21{clip-path:url(#SVGID_00000167392688243457189760000016059816185582434962_);}
	.st22{clip-path:url(#SVGID_00000174603746579174258810000007049827900090374034_);}
	.st23{fill:none;stroke:#2B2961;stroke-width:0.374;stroke-linejoin:round;stroke-miterlimit:10;}
	.st24{fill:none;stroke:#2B2961;stroke-width:0.4;stroke-miterlimit:10;}
	.st25{clip-path:url(#SVGID_00000133491753309378882230000001218444964010247829_);}
	.st26{clip-path:url(#SVGID_00000016046362768517637680000009039498354620851333_);}
	.st27{clip-path:url(#SVGID_00000127035876522563438680000000529207850634497213_);}
	.st28{clip-path:url(#SVGID_00000029757890295718160990000014051352492377620118_);}
	.st29{clip-path:url(#SVGID_00000000936046939328330590000008703942756206001830_);}
	.st30{clip-path:url(#SVGID_00000059293561254142448900000002377564851400947126_);}
	.st31{clip-path:url(#SVGID_00000040550146455135626570000012881364170293663896_);}
	.st32{clip-path:url(#SVGID_00000096750442938423636900000009624888007579922089_);}
	.st33{clip-path:url(#SVGID_00000132783975384441722990000008854508267390982292_);}
	.st34{clip-path:url(#SVGID_00000107581565852719572230000001432904902275109564_);}
	.st35{clip-path:url(#SVGID_00000179624382914695371030000016696057133651515326_);}
	.st36{clip-path:url(#SVGID_00000096024490496730944690000014435844703229237665_);}
	.st37{clip-path:url(#SVGID_00000003797261722621054160000006997145606359359655_);}
	.st38{clip-path:url(#SVGID_00000015317310911782312090000000216000317577170584_);}
	.st39{clip-path:url(#SVGID_00000034793012855098076950000017103376052169358773_);}
	.st40{clip-path:url(#SVGID_00000122718904873962526930000016675214453213985937_);}
	.st41{clip-path:url(#SVGID_00000003078398504382937000000008702170823055823753_);}
	.st42{clip-path:url(#SVGID_00000168088536317796320470000017437653540354600845_);}
	.st43{clip-path:url(#SVGID_00000065782442297115168070000014735796521618055053_);}
	.st44{clip-path:url(#SVGID_00000115512603066514013180000010440673312129627057_);}
	.st45{clip-path:url(#SVGID_00000070812410430395330300000018074343041200408739_);}
	.st46{clip-path:url(#SVGID_00000015326461032888892180000008859870437183587995_);}
	.st47{clip-path:url(#SVGID_00000047760087731708738060000009053181462889982859_);}
	.st48{clip-path:url(#SVGID_00000048463538899183632930000017353144335253556667_);}
	.st49{clip-path:url(#SVGID_00000152959265098467167490000003561442316769433476_);}
	.st50{clip-path:url(#SVGID_00000127764354060154862050000002913393814118286976_);}
	.st51{clip-path:url(#SVGID_00000016050509454370484460000003497599276138069151_);}
	.st52{clip-path:url(#SVGID_00000048475533275879231510000006632859408762271128_);}
	.st53{clip-path:url(#SVGID_00000145762990515630926150000014753710767728394419_);}
	.st54{clip-path:url(#SVGID_00000118367328773029801790000015706654118802865830_);}
	.st55{clip-path:url(#SVGID_00000080177185706487001960000004985374838813525168_);}
	.st56{clip-path:url(#SVGID_00000031897626881827374550000015380858800274051749_);}
	.st57{clip-path:url(#SVGID_00000064336609017799588470000008519218050039874696_);}
	.st58{clip-path:url(#SVGID_00000057110504430355278900000003067950929164814749_);}
	.st59{clip-path:url(#SVGID_00000177473832106367766440000000601681456622602632_);}
	.st60{clip-path:url(#SVGID_00000051341748428186522730000002833386518151132059_);}
	.st61{clip-path:url(#SVGID_00000029746635872186156250000018234290909466428561_);}
	.st62{fill:#9AB4DE;}
	.st63{clip-path:url(#SVGID_00000052812642532823475030000007030497950956925356_);}
	.st64{clip-path:url(#SVGID_00000120519959946109257150000000688024698860781190_);}
	.st65{clip-path:url(#SVGID_00000064342562884101829480000002856282682108798115_);}
	.st66{fill:#B9C9E9;}
	.st67{clip-path:url(#SVGID_00000138557203493275635830000005567800260932878475_);}
	.st68{clip-path:url(#SVGID_00000130629233403550049190000007748178592747973518_);}
	.st69{clip-path:url(#SVGID_00000147918917333768019010000009352766092689935009_);}
	.st70{clip-path:url(#SVGID_00000176020632727677741400000002470700579910827160_);}
	.st71{clip-path:url(#SVGID_00000014628122578435830800000017402282343245139848_);}
	.st72{clip-path:url(#SVGID_00000105393662408672924640000007426388612878908083_);}
	.st73{clip-path:url(#SVGID_00000173124473645010235010000013541968156040850365_);}
	.st74{clip-path:url(#SVGID_00000034064642365551316600000018092487015171871676_);}
	.st75{clip-path:url(#SVGID_00000159430898665689536240000015557581149323892923_);}
	.st76{clip-path:url(#SVGID_00000177485039003045238310000002992316341906698914_);}
	.st77{clip-path:url(#SVGID_00000093855319418605071720000012356649685802415280_);}
	.st78{clip-path:url(#SVGID_00000064335642406861697910000007054897456870458813_);}
	.st79{clip-path:url(#SVGID_00000146481284192857132130000015360719060552423041_);}
	.st80{clip-path:url(#SVGID_00000132768738705575142060000000545656337675578776_);}
	.st81{clip-path:url(#SVGID_00000155827932899973716590000004731193823172963974_);}
	.st82{clip-path:url(#SVGID_00000091726519870283148120000011657903912471326093_);}
	.st83{clip-path:url(#SVGID_00000065050661788881235290000011454758054788333464_);}
	.st84{clip-path:url(#SVGID_00000076604909297578640830000007103668210553652414_);}
	.st85{clip-path:url(#SVGID_00000145771879948327069300000008568089586982918060_);}
	.st86{clip-path:url(#SVGID_00000070120902256500516630000014634246237765302451_);}
	.st87{clip-path:url(#SVGID_00000053535920592750257340000011466878373068653997_);}
	.st88{clip-path:url(#SVGID_00000010992106229996310830000003543511422121632176_);}
	.st89{clip-path:url(#SVGID_00000050661560912043228610000016969452138403846794_);}
	.st90{clip-path:url(#SVGID_00000089538826259232889060000016801496270082870664_);}
	.st91{clip-path:url(#SVGID_00000054968513701892135170000012156178505618817951_);}
	.st92{clip-path:url(#SVGID_00000126295394270630446010000006571723785278384819_);}
	.st93{clip-path:url(#SVGID_00000116212977207199526740000014860114428429266845_);}
	.st94{clip-path:url(#SVGID_00000022533558305183663260000009576747675616121271_);}
	.st95{clip-path:url(#SVGID_00000157281723313456516060000012664414250079813770_);}
	.st96{clip-path:url(#SVGID_00000150090554204223371580000012663623056153646780_);}
	.st97{clip-path:url(#SVGID_00000151531947189872146370000005345172868228858293_);}
	.st98{clip-path:url(#SVGID_00000081645004242752738970000003723083308637269399_);}
	.st99{clip-path:url(#SVGID_00000099629700265587809040000010729257246320285830_);}
	.st100{clip-path:url(#SVGID_00000033334306142379398340000016943788886789887406_);}
	.st101{clip-path:url(#SVGID_00000021088526377985378480000009512507988291918014_);}
	.st102{clip-path:url(#SVGID_00000114031167775028761320000007328118566055783554_);}
	.st103{clip-path:url(#SVGID_00000082337042245849052560000007250929078835958662_);}
	.st104{clip-path:url(#SVGID_00000102544937974629923700000005662284052768213154_);}
	.st105{clip-path:url(#SVGID_00000093158286666066583110000012530202452400013203_);}
	.st106{clip-path:url(#SVGID_00000093889465495244157130000003901555332833134754_);}
	.st107{clip-path:url(#SVGID_00000163067001896944177020000017118449129038396089_);}
	.st108{clip-path:url(#SVGID_00000062882216251450671040000008199784644560298395_);}
	.st109{clip-path:url(#SVGID_00000059302732183519815530000000255626123857492152_);}
	.st110{clip-path:url(#SVGID_00000176042341765511129340000008211227361700518812_);}
	.st111{clip-path:url(#SVGID_00000074413584605128638540000005849061956935204024_);}
	.st112{clip-path:url(#SVGID_00000114031575595673638440000017886938096755681181_);}
	.st113{clip-path:url(#SVGID_00000101067439524275179900000001368903128267808388_);}
	.st114{clip-path:url(#SVGID_00000068655961839778050630000001012230592204497822_);}
	.st115{clip-path:url(#SVGID_00000155826723517006339750000010875641484918737038_);}
	.st116{clip-path:url(#SVGID_00000004517997092646861380000010977987467150750110_);}
	.st117{clip-path:url(#SVGID_00000090279570769657161240000011971981313539633318_);}
	.st118{clip-path:url(#SVGID_00000104703265731373400750000002135832742862342335_);}
	.st119{clip-path:url(#SVGID_00000036961243833241683560000008590164000904362402_);}
	.st120{clip-path:url(#SVGID_00000065764945646276834530000011214400643467527342_);}
	.st121{clip-path:url(#SVGID_00000058566574455811262340000007362318979029708712_);}
	.st122{clip-path:url(#SVGID_00000158007571748476728920000001951429311782441115_);}
	.st123{clip-path:url(#SVGID_00000153700956568093131010000002937227248033752243_);}
	.st124{clip-path:url(#SVGID_00000102545372729630146570000003466112713317757614_);}
	.st125{clip-path:url(#SVGID_00000114792884007518838130000009224146394332871556_);}
	.st126{clip-path:url(#SVGID_00000048474572448217057840000014677372239586069695_);}
	.st127{clip-path:url(#SVGID_00000131366482651245419170000014068572096885997750_);}
	.st128{clip-path:url(#SVGID_00000049182036762224414760000014761383554118858394_);}
	.st129{clip-path:url(#SVGID_00000045607114645502997530000005867135775970089603_);}
	.st130{clip-path:url(#SVGID_00000176750847310821568340000000648871405451049655_);}
	.st131{clip-path:url(#SVGID_00000127729682638149549030000013180536061857555122_);}
	.st132{clip-path:url(#SVGID_00000023260063424106573610000015152278391322784166_);}
	.st133{clip-path:url(#SVGID_00000098920249602854659930000012228362279607704730_);}
	.st134{clip-path:url(#SVGID_00000067235000951273600020000013722818981276664228_);}
	.st135{clip-path:url(#SVGID_00000090274893548749052260000013369798364462976390_);}
	.st136{clip-path:url(#SVGID_00000132799072528182220870000002441742111517923486_);}
	.st137{clip-path:url(#SVGID_00000177476443609660037610000010159915527929473169_);}
	.st138{clip-path:url(#SVGID_00000116222258064901407720000014413576235486485920_);}
	.st139{clip-path:url(#SVGID_00000093882057860878997990000003948832515985372833_);}
	.st140{clip-path:url(#SVGID_00000062905811036185141030000002285800038617983108_);}
	.st141{clip-path:url(#SVGID_00000024710881790123875760000017810315666202864009_);}
	.st142{clip-path:url(#SVGID_00000078763232353964051260000002856476732474797716_);}
	.st143{clip-path:url(#SVGID_00000085212207919968070540000007625810088464415155_);}
	.st144{clip-path:url(#SVGID_00000023961466880619921640000012848808809927089069_);}
	.st145{clip-path:url(#SVGID_00000052820528313632840610000016237462135534682047_);}
	.st146{clip-path:url(#SVGID_00000047775039415199387390000014880305874472356265_);}
	.st147{clip-path:url(#SVGID_00000116229536466008512230000005895755958319039377_);}
	.st148{clip-path:url(#SVGID_00000177480436795768870210000012533527564081393589_);}
	.st149{clip-path:url(#SVGID_00000170278358288508719360000003224329814515518909_);}
	.st150{clip-path:url(#SVGID_00000150784841254734688080000015271741442832816817_);}
	.st151{clip-path:url(#SVGID_00000067218097232285456950000012995476051771765417_);}
	.st152{clip-path:url(#SVGID_00000025426804885982819220000012669538895889580948_);}
	.st153{clip-path:url(#SVGID_00000167354411699841557220000013557756130211401919_);}
	.st154{clip-path:url(#SVGID_00000178894697569761345400000001655422752935518117_);}
	.st155{clip-path:url(#SVGID_00000096742439742644419470000017356395461586126012_);}
	.st156{clip-path:url(#SVGID_00000159440775117630586710000007733771149718376884_);}
	.st157{clip-path:url(#SVGID_00000093890962505155181320000015942422657349561256_);}
	.st158{clip-path:url(#SVGID_00000035525637398179821280000001781387906999619739_);}
	.st159{clip-path:url(#SVGID_00000074418194278902090150000016934924922983222401_);}
	.st160{clip-path:url(#SVGID_00000175289665109223466520000009265008279303364245_);}
	.st161{clip-path:url(#SVGID_00000016074962596939576530000014404209965825027471_);}
	.st162{clip-path:url(#SVGID_00000170254789336753151890000016349739483954837408_);}
	.st163{clip-path:url(#SVGID_00000132798925419348693780000001815667693433985191_);}
	.st164{clip-path:url(#SVGID_00000068672156637048613460000002149806987253704347_);}
	.st165{clip-path:url(#SVGID_00000101781890896881053170000002667244145872280452_);}
	.st166{clip-path:url(#SVGID_00000032621970147690001240000005740646584992736159_);}
	.st167{clip-path:url(#SVGID_00000084494743255208765040000016409332519433693339_);}
	.st168{clip-path:url(#SVGID_00000011028834747150979480000011168712960502290055_);}
	.st169{clip-path:url(#SVGID_00000054253120916200734040000005722587826869344399_);}
	.st170{clip-path:url(#SVGID_00000176746990187077251910000009255571010486315162_);}
	.st171{clip-path:url(#SVGID_00000102522302270087274090000011550835913769887678_);}
	.st172{clip-path:url(#SVGID_00000123438430544242529350000004229999893008795546_);}
	.st173{clip-path:url(#SVGID_00000070818709751178439810000011395184048510972035_);}
	.st174{clip-path:url(#SVGID_00000061473252998521740030000008918265384462033303_);}
	.st175{clip-path:url(#SVGID_00000103249385131672965180000017169388013949918888_);}
	.st176{clip-path:url(#SVGID_00000121965705831774906880000008524504682916167577_);}
	.st177{clip-path:url(#SVGID_00000083796459534241639960000011705851274045335733_);}
	.st178{clip-path:url(#SVGID_00000097494834467155540650000008431615551467772087_);}
	.st179{clip-path:url(#SVGID_00000045609605879811525500000017010915639280456346_);}
	.st180{clip-path:url(#SVGID_00000000913995413327674140000002264253020735055806_);}
	.st181{clip-path:url(#SVGID_00000036215077341040284960000001182797700192645280_);}
	.st182{clip-path:url(#SVGID_00000089575126901265017370000009157937533700663224_);}
	.st183{clip-path:url(#SVGID_00000023257410970016067580000000844032642829435789_);}
	.st184{clip-path:url(#SVGID_00000166641956174231672450000009361243437466799804_);}
	.st185{clip-path:url(#SVGID_00000128448068868883716220000015466476027244688830_);}
	.st186{clip-path:url(#SVGID_00000073691759198370222620000014514528458828506786_);}
	.st187{clip-path:url(#SVGID_00000131361932750928759800000015304755608371323579_);}
	.st188{clip-path:url(#SVGID_00000173858466318075711690000008625269591108246956_);}
	.st189{clip-path:url(#SVGID_00000155114033867333458910000017771423611530707621_);}
	.st190{clip-path:url(#SVGID_00000181074291799829385050000006223697849513558428_);}
	.st191{clip-path:url(#SVGID_00000144335265849515043850000013832793969774220478_);}
	.st192{clip-path:url(#SVGID_00000159429091935985584070000017668062727900741001_);}
	.st193{clip-path:url(#SVGID_00000181768243995110832270000014432521522472516759_);}
	.st194{clip-path:url(#SVGID_00000139983165168143137410000005398618880856170406_);}
	.st195{clip-path:url(#SVGID_00000124151990535249204080000009264510100349146809_);}
	.st196{clip-path:url(#SVGID_00000054267749215777148480000004272302997926620574_);}
	.st197{clip-path:url(#SVGID_00000134941103894450343280000008516818375147316405_);}
	.st198{clip-path:url(#SVGID_00000056396600238113663290000002971554778023186866_);}
	.st199{clip-path:url(#SVGID_00000129888425551588471660000014128803775266186402_);}
	.st200{clip-path:url(#SVGID_00000138535840498130684670000003927835410312952486_);}
	.st201{clip-path:url(#SVGID_00000002381727239276314460000009376924884841030023_);}
	.st202{clip-path:url(#SVGID_00000155868340583985692280000007681937718386831516_);}
	.st203{clip-path:url(#SVGID_00000022557075559579964160000012654702619751846560_);}
	.st204{clip-path:url(#SVGID_00000081640511764104643780000017850410508966299022_);}
	.st205{clip-path:url(#SVGID_00000092454623068621835780000012201966929116541352_);}
	.st206{clip-path:url(#SVGID_00000104682047042106769130000002921668053544144053_);}
	.st207{clip-path:url(#SVGID_00000158717644657564334430000013928822099936263831_);}
	.st208{clip-path:url(#SVGID_00000129909819365277074070000015881999994771542410_);}
	.st209{clip-path:url(#SVGID_00000153688334296990655230000017431964167406160294_);}
	.st210{clip-path:url(#SVGID_00000113354688841118354300000002239932532717066424_);}
	.st211{clip-path:url(#SVGID_00000068637064547228441380000016720031038466458300_);}
	.st212{clip-path:url(#SVGID_00000072254798716919804270000011277197322206519205_);}
	.st213{clip-path:url(#SVGID_00000160876613079290998120000002361555027074038414_);}
	.st214{clip-path:url(#SVGID_00000173134314867845995480000014639149393489611668_);}
	.st215{clip-path:url(#SVGID_00000179637114829827001880000014827281575652778386_);}
	.st216{clip-path:url(#SVGID_00000147936499148915060870000005951644313178144942_);}
	.st217{clip-path:url(#SVGID_00000143589837300558707980000012040132516179284667_);}
	.st218{clip-path:url(#SVGID_00000153687594103888707680000017716074009600727175_);}
	.st219{clip-path:url(#SVGID_00000115476509666880452250000010611916548931084424_);}
	.st220{clip-path:url(#SVGID_00000103962813062260187800000008359998638242758310_);}
	.st221{clip-path:url(#SVGID_00000103238329365676474950000005944312938706887340_);}
	.st222{clip-path:url(#SVGID_00000106119880326659178320000013428994698389417872_);}
	.st223{clip-path:url(#SVGID_00000159436420195479357000000005152469443041547415_);}
	.st224{clip-path:url(#SVGID_00000157295617676228987760000002649616253488632759_);}
	.st225{clip-path:url(#SVGID_00000038372859114590603330000014621331400122847122_);}
	.st226{clip-path:url(#SVGID_00000001627793411242331030000018382778112275577226_);}
	.st227{clip-path:url(#SVGID_00000015356771121412841600000012685377754437306514_);}
	.st228{clip-path:url(#SVGID_00000050663023652813891810000011216054702235797945_);}
	.st229{clip-path:url(#SVGID_00000041292541227827273580000001184840829687452835_);}
	.st230{clip-path:url(#SVGID_00000158720840721070355440000014551356619254160017_);}
	.st231{clip-path:url(#SVGID_00000031171512282732307950000005257895910382764423_);}
	.st232{clip-path:url(#SVGID_00000089548092486981123770000003370760759120236722_);}
	.st233{clip-path:url(#SVGID_00000119823940786652542040000002553228812323659701_);}
	.st234{clip-path:url(#SVGID_00000120521466737654449840000010315349338667608508_);}
	.st235{clip-path:url(#SVGID_00000079450228282057814350000006100435798016764341_);}
	.st236{clip-path:url(#SVGID_00000028324236505739461950000014756218492463245488_);}
	.st237{clip-path:url(#SVGID_00000052783334366711569110000008894349933192743081_);}
	.st238{clip-path:url(#SVGID_00000124859807567990173040000000315812127561025456_);}
	.st239{clip-path:url(#SVGID_00000096781224260634048640000011648167435473558932_);}
	.st240{clip-path:url(#SVGID_00000112591724227731173880000006523290034261906065_);}
	.st241{clip-path:url(#SVGID_00000177480258467756756250000005860958126780768654_);}
	.st242{clip-path:url(#SVGID_00000180342746003750517830000001859860628012700084_);}
	.st243{clip-path:url(#SVGID_00000081613363216161410910000003933143471101015425_);}
	.st244{clip-path:url(#SVGID_00000110443121242210424070000008149500407257484186_);}
	.st245{clip-path:url(#SVGID_00000116952157090607118530000015149263928738927278_);}
	.st246{clip-path:url(#SVGID_00000109025380617273828750000014110413792854956701_);}
	.st247{clip-path:url(#SVGID_00000132050923599692881200000009153681738237743004_);}
	.st248{clip-path:url(#SVGID_00000141419160731828704570000018159672091023353007_);}
	.st249{clip-path:url(#SVGID_00000151540220794667926600000017099300533744285874_);}
	.st250{clip-path:url(#SVGID_00000059995689831397029630000006499218095150077848_);}
	.st251{clip-path:url(#SVGID_00000070110177783552669110000010541978778496186556_);}
	.st252{clip-path:url(#SVGID_00000039135544686990714680000006842770269535715976_);}
	.st253{clip-path:url(#SVGID_00000001665726672604508330000011853755618529747116_);}
	.st254{clip-path:url(#SVGID_00000114774559641011971390000000001629712055947437_);}
	.st255{clip-path:url(#SVGID_00000096779169895150192470000004012496006148913035_);}
	.st256{clip-path:url(#SVGID_00000111896231308953854820000002633267505838107277_);}
	.st257{clip-path:url(#SVGID_00000174562189020406761790000005947465994357910949_);}
	.st258{clip-path:url(#SVGID_00000012431183916112950690000007477296523380759206_);}
	.st259{clip-path:url(#SVGID_00000127729650071091732360000001551824488890932154_);}
	.st260{clip-path:url(#SVGID_00000047030913642346181490000015065831766906493572_);}
	.st261{clip-path:url(#SVGID_00000024003574538424759500000003404976007901276042_);}
	.st262{clip-path:url(#SVGID_00000084515064868236769280000005105304620825250480_);}
	.st263{clip-path:url(#SVGID_00000153684690953370107320000013356437166619300270_);}
	.st264{clip-path:url(#SVGID_00000085233285388865077500000018270864029896285372_);}
	.st265{clip-path:url(#SVGID_00000000203141348700395280000018069658006994398117_);}
	.st266{clip-path:url(#SVGID_00000085230321166522138980000011062431714258801073_);}
	.st267{clip-path:url(#SVGID_00000108281326670952796360000005842507815345081750_);}
	.st268{clip-path:url(#SVGID_00000093880984329082723550000008902006803071181461_);}
	.st269{clip-path:url(#SVGID_00000029021759758743048660000005295130269206137242_);}
	.st270{clip-path:url(#SVGID_00000181077693609781032050000013327428694248958083_);}
	.st271{clip-path:url(#SVGID_00000124863894282495025570000012336843470290911628_);}
	.st272{clip-path:url(#SVGID_00000129192678333881213470000015855061351184418981_);}
	.st273{clip-path:url(#SVGID_00000106863833920286129070000012663750161369261996_);}
	.st274{clip-path:url(#SVGID_00000002379122735950354540000015591110467858607295_);}
	.st275{clip-path:url(#SVGID_00000107558601500215498010000000746905580919660972_);}
	.st276{clip-path:url(#SVGID_00000129890940636712676560000001439886142315638456_);}
	.st277{clip-path:url(#SVGID_00000106125540475911237390000012504841660688512442_);}
	.st278{clip-path:url(#SVGID_00000059273902240052498520000001809561650349418943_);}
	.st279{clip-path:url(#SVGID_00000066475926329688445360000011203527093532492936_);}
	.st280{clip-path:url(#SVGID_00000087400825337427000190000008710408792749784245_);}
	.st281{clip-path:url(#SVGID_00000021801466330188058930000000460295547828143265_);}
	.st282{clip-path:url(#SVGID_00000114751850384454675030000002015057988740596142_);}
	.st283{clip-path:url(#SVGID_00000106857404137634646650000004281398803902874779_);}
	.st284{clip-path:url(#SVGID_00000122700765842570227910000012638857216415884717_);}
	.st285{clip-path:url(#SVGID_00000128464468706613860230000001242370344052630170_);}
	.st286{clip-path:url(#SVGID_00000123399697949005740140000002709486472527132309_);}
	.st287{clip-path:url(#SVGID_00000056420919759696916690000004043633071151838393_);}
	.st288{clip-path:url(#SVGID_00000097488310828516771240000017928986070325823653_);}
	.st289{clip-path:url(#SVGID_00000086693339712371277130000016109688639857982638_);}
	.st290{clip-path:url(#SVGID_00000116214703101644203240000005904700663652899480_);}
	.st291{clip-path:url(#SVGID_00000133525631833730161620000000760295542009214870_);}
	.st292{clip-path:url(#SVGID_00000150100812893095230060000016887257401073396113_);}
	.st293{clip-path:url(#SVGID_00000123417742405217846210000012259913157705079970_);}
	.st294{clip-path:url(#SVGID_00000076581600088499934260000011142022228981610414_);}
	.st295{clip-path:url(#SVGID_00000139986237070128530620000009412705734291695747_);}
	.st296{clip-path:url(#SVGID_00000079462939805033439040000000963361826220511379_);}
	.st297{clip-path:url(#SVGID_00000031910394329251134250000002701863603531998597_);}
	.st298{clip-path:url(#SVGID_00000001659438352033948320000013963250820171817631_);}
	.st299{clip-path:url(#SVGID_00000050637663591867132340000002876315907353395113_);}
	.st300{clip-path:url(#SVGID_00000041994743568724321080000004481154246139220619_);}
	.st301{clip-path:url(#SVGID_00000136400826191077903380000004253578913776576169_);}
	.st302{clip-path:url(#SVGID_00000164509332762684383150000009934203439369832848_);}
	.st303{clip-path:url(#SVGID_00000012458225905511200890000014038152412820764552_);}
	.st304{clip-path:url(#SVGID_00000100351099998790100830000013569062932323126673_);}
	.st305{clip-path:url(#SVGID_00000045586676142664376910000017577188668475142326_);}
	.st306{clip-path:url(#SVGID_00000178904690512913904070000008974822979114907813_);}
	.st307{clip-path:url(#SVGID_00000003807028405896506610000002170610602694543020_);}
	.st308{clip-path:url(#SVGID_00000131349103550714505070000001702267707230365858_);}
	.st309{clip-path:url(#SVGID_00000097486509945493513310000013117126177071056301_);}
	.st310{clip-path:url(#SVGID_00000159444899807151339760000004247741943324523946_);}
	.st311{clip-path:url(#SVGID_00000085966898025864837570000013072966449978146446_);}
	.st312{clip-path:url(#SVGID_00000016038628624815093820000011380901552131763611_);}
	.st313{clip-path:url(#SVGID_00000031930488626610142550000005343079800175063740_);}
	.st314{clip-path:url(#SVGID_00000128478724129544551080000012130798222362397087_);}
	.st315{clip-path:url(#SVGID_00000037668721757633583070000011793949547103779712_);}
	.st316{clip-path:url(#SVGID_00000130629538353236270890000013587970520000422293_);}
	.st317{clip-path:url(#SVGID_00000059275557867256090760000012848838689698448549_);}
	.st318{clip-path:url(#SVGID_00000044861870314393944660000004857378144941780104_);}
	.st319{clip-path:url(#SVGID_00000001659941698673731660000003656831791697343128_);}
	.st320{clip-path:url(#SVGID_00000125588045320420833910000018323523347087762560_);}
	.st321{clip-path:url(#SVGID_00000085972133698522767070000000473113579771595679_);}
	.st322{clip-path:url(#SVGID_00000148653511007822695900000008083690278108342943_);}
	.st323{clip-path:url(#SVGID_00000170254498009206346930000008139512688826568613_);}
	.st324{clip-path:url(#SVGID_00000000184488514861017900000011986940660417424570_);}
	.st325{clip-path:url(#SVGID_00000096758748051220031870000016614329691242778540_);}
	.st326{clip-path:url(#SVGID_00000054268361924901263090000000263843568680433796_);}
	.st327{clip-path:url(#SVGID_00000118382630257458220500000001329586414634594748_);}
	.st328{clip-path:url(#SVGID_00000142887588546621057950000016007838111088585134_);}
	.st329{clip-path:url(#SVGID_00000138545972824163301410000007853921582183867531_);}
	.st330{clip-path:url(#SVGID_00000009581403634969872450000005965792850308608937_);}
	.st331{clip-path:url(#SVGID_00000096754376664175492970000015078111973541774259_);}
	.st332{clip-path:url(#SVGID_00000180326607855057711760000014684887638743870373_);}
	.st333{clip-path:url(#SVGID_00000041294922018980215870000001524485358747701416_);}
	.st334{clip-path:url(#SVGID_00000131365458475829895810000001575106057089108670_);}
	.st335{clip-path:url(#SVGID_00000034051652865119090770000010033896065314367632_);}
	.st336{clip-path:url(#SVGID_00000106128466913602326190000011183808340638245521_);}
	.st337{clip-path:url(#SVGID_00000144322979602195936450000015143579091654502591_);}
	.st338{clip-path:url(#SVGID_00000004533904293185769230000012553793992164196531_);}
	.st339{clip-path:url(#SVGID_00000113342526168900842950000014441289304805826723_);}
	.st340{clip-path:url(#SVGID_00000055699991168174626210000004933757438428284059_);}
	.st341{clip-path:url(#SVGID_00000168811865377292159690000018324155904199314309_);}
	.st342{clip-path:url(#SVGID_00000039132283504010975280000009651793008236906658_);}
	.st343{clip-path:url(#SVGID_00000150103339270175172370000005457797462182958738_);}
	.st344{clip-path:url(#SVGID_00000128460118925282780540000011755842306835734672_);}
	.st345{clip-path:url(#SVGID_00000044157960412899595790000011764736956893784461_);}
	.st346{clip-path:url(#SVGID_00000033357887921911400340000001161198834175306665_);}
	.st347{clip-path:url(#SVGID_00000008831941668748440430000018292475413389456777_);}
	.st348{clip-path:url(#SVGID_00000121987139826425529630000014752209995164337326_);}
	.st349{clip-path:url(#SVGID_00000039131011091308832670000017958345881697162157_);}
	.st350{clip-path:url(#SVGID_00000178890002827603353400000015177471101739471501_);}
	.st351{clip-path:url(#SVGID_00000129885862193968947860000017025231895559977653_);}
	.st352{clip-path:url(#SVGID_00000122690968501766729270000006645710338294231734_);}
	.st353{clip-path:url(#SVGID_00000160173446302184787730000018257149011278963885_);}
	.st354{clip-path:url(#SVGID_00000056392973378841193380000009151326352072173192_);}
	.st355{clip-path:url(#SVGID_00000074422881173367065850000015548559266144188835_);}
	.st356{clip-path:url(#SVGID_00000181076213024592276110000011698485717769521034_);}
	.st357{clip-path:url(#SVGID_00000070083225115164324310000003134054632454539192_);}
	.st358{clip-path:url(#SVGID_00000001629512973961333230000007709163596334391968_);}
	.st359{clip-path:url(#SVGID_00000024706701088534205760000002781635132666524599_);}
	.st360{clip-path:url(#SVGID_00000124874972308993352810000008863850156834999967_);}
	.st361{clip-path:url(#SVGID_00000108311195804773497890000000687596061988504716_);}
	.st362{clip-path:url(#SVGID_00000033362975493687562170000005034348368943942833_);}
	.st363{clip-path:url(#SVGID_00000054979583629050910770000007480119497949719732_);}
	.st364{clip-path:url(#SVGID_00000026134056688117231430000005370381245977457045_);}
	.st365{clip-path:url(#SVGID_00000128479002359340109340000018363923237175953317_);}
	.st366{clip-path:url(#SVGID_00000091706046058030990970000013260854621052376713_);}
	.st367{clip-path:url(#SVGID_00000100378447851077762600000007386820889799818918_);}
	.st368{clip-path:url(#SVGID_00000105414896655149382700000002447518953941081774_);}
	.st369{clip-path:url(#SVGID_00000109737088112321929690000005838870937034856856_);}
	.st370{clip-path:url(#SVGID_00000083050921212856009170000008529580059054191295_);}
	.st371{clip-path:url(#SVGID_00000142172149071049908640000000979837468079961518_);}
	.st372{clip-path:url(#SVGID_00000176006206847736177250000010901670340789995416_);}
	.st373{clip-path:url(#SVGID_00000127734440531733966220000011429708915710831006_);}
	.st374{clip-path:url(#SVGID_00000145045731008181451330000004813884337942436766_);}
	.st375{clip-path:url(#SVGID_00000040567126439549724410000005197452246423352494_);}
</style>
<g>
	<g>
		<rect x="5.68" y="109.98" class="st0" width="48.54" height="588.48"/>
	</g>
	<g>
		<rect x="5.68" y="0" class="st1" width="992.64" height="116.88"/>
	</g>
	<g>
		<defs>
			<rect id="SVGID_00000140000533677080334760000012543793262948340151_" y="0" width="1000" height="702.95"/>
		</defs>
		<clipPath id="SVGID_00000045608245072595769100000007080643564990793355_">
			<use xlink:href="#SVGID_00000140000533677080334760000012543793262948340151_"  style="overflow:visible;"/>
		</clipPath>
		<g style="clip-path:url(#SVGID_00000045608245072595769100000007080643564990793355_);">
			<path class="st3" d="M998.31,702.95H2.81c-0.93,0-1.69-0.75-1.69-1.68V2.81c0-0.93,0.75-1.68,1.69-1.68h995.5
				c0.93,0,1.69,0.75,1.69,1.68v698.45C1000,702.19,999.25,702.95,998.31,702.95z M4.5,699.58h992.13V4.49H4.5V699.58z"/>
		</g>
		<g style="clip-path:url(#SVGID_00000045608245072595769100000007080643564990793355_);">
			<rect x="0" y="115.19" class="st3" width="995.5" height="3.37"/>
		</g>
		<g style="clip-path:url(#SVGID_00000045608245072595769100000007080643564990793355_);">
			<path class="st4" d="M845.81,69.08c0-6.43-3.8-10.45-11.32-11.18l-5.99-0.59c-3.36-0.29-3.94-1.9-3.94-3.29
				c0-1.9,1.61-3.65,5.41-3.65c3.29,0,6.65,0.58,8.84,2.56l5.84-5.91c-3.65-3.43-8.62-4.45-14.54-4.45
				c-7.74,0-14.68,4.23-14.68,12.11c0,7.02,4.24,10.01,11.1,10.67l5.99,0.58c2.99,0.29,4.02,1.61,4.02,3.51
				c0,2.85-3.43,3.95-6.72,3.95c-2.92,0-7.01-0.44-10.15-3.58l-6.21,6.21c4.82,4.82,10.23,5.47,16.22,5.47
				C838.65,81.5,845.81,77.48,845.81,69.08 M808.19,69.08c0-6.43-3.8-10.45-11.32-11.18l-5.99-0.59c-3.36-0.29-3.94-1.9-3.94-3.29
				c0-1.9,1.61-3.65,5.41-3.65c3.29,0,6.65,0.58,8.84,2.56l5.84-5.91c-3.65-3.43-8.62-4.45-14.54-4.45
				c-7.74,0-14.68,4.23-14.68,12.11c0,7.02,4.24,10.01,11.1,10.67l5.99,0.58c2.99,0.29,4.02,1.61,4.02,3.51
				c0,2.85-3.43,3.95-6.72,3.95c-2.92,0-7.01-0.44-10.15-3.58l-6.21,6.21c4.82,4.82,10.23,5.47,16.22,5.47
				C801.03,81.5,808.19,77.48,808.19,69.08 M767.42,81.06V43.01h-9.49v23.01c0,5.19-3.36,6.94-6.36,6.94c-3,0-6.29-1.75-6.29-6.94
				V43.01h-9.49v24.33c0,4.16,0.8,7.74,3.87,10.81c2.11,2.11,5.18,3.35,8.98,3.35c3.51,0,7.02-1.31,9.5-3.94v3.5H767.42z
				 M727.17,81.06v-8.02h-3.65c-2.41,0-3.36-1.17-3.36-3.43V29.06h-9.49v41.13c0,5.4,3.28,10.87,11.09,10.87H727.17z M699.34,81.06
				V56.44c0-8.04-4.38-13.87-12.7-13.87c-3.36,0-6.58,1.31-9.14,3.94V29.06h-9.48v52h9.48V57.83c0-4.97,3.14-6.72,6.14-6.72
				c2.99,0,6.21,1.68,6.21,6.72v23.23H699.34z M659.16,76.32l-6.43-6.36c-1.97,2.12-3.65,3-6.14,3c-2.26,0-4.02-0.8-5.41-2.49
				c-1.46-1.83-2.12-4.46-2.12-8.47c0-4.02,0.66-6.58,2.12-8.41c1.39-1.68,3.14-2.48,5.41-2.48c2.48,0,4.16,0.88,6.14,2.99
				l6.43-6.42c-3.36-3.51-7.3-5.11-12.56-5.11c-7.6,0-17.01,4.01-17.01,19.43c0,15.41,9.41,19.5,17.01,19.5
				C651.86,81.5,655.8,79.82,659.16,76.32 M622.06,69.08c0-6.43-3.8-10.45-11.32-11.18l-5.99-0.59c-3.36-0.29-3.94-1.9-3.94-3.29
				c0-1.9,1.61-3.65,5.41-3.65c3.29,0,6.65,0.58,8.84,2.56l5.84-5.91c-3.65-3.43-8.62-4.45-14.54-4.45
				c-7.74,0-14.68,4.23-14.68,12.11c0,7.02,4.24,10.01,11.1,10.67l5.99,0.58c2.99,0.29,4.02,1.61,4.02,3.51
				c0,2.85-3.43,3.95-6.72,3.95c-2.92,0-7.01-0.44-10.15-3.58l-6.21,6.21c4.82,4.82,10.23,5.47,16.22,5.47
				C614.9,81.5,622.06,77.48,622.06,69.08 M573.41,62c0,6.21-0.73,10.96-6.43,10.96s-6.43-4.75-6.43-10.96
				c0-6.21,0.73-10.89,6.43-10.89S573.41,55.78,573.41,62 M582.9,62c0-5.7-0.07-12.2-3.87-16c-2.12-2.12-5.55-3.43-9.28-3.43
				c-3.87,0-6.72,1.02-9.21,3.79V29.06h-9.48v52h9.19v-3.57c2.64,2.92,5.48,4.01,9.5,4.01c3.73,0,7.16-1.31,9.28-3.43
				C582.83,74.27,582.9,67.7,582.9,62 M529.88,67.03c0,2.34-0.37,3.88-1.39,4.83c-1.68,1.61-3.37,1.83-6,1.83
				c-3.73,0-5.48-1.76-5.48-4.39c0-2.71,1.9-4.32,5.34-4.32h7.53V67.03z M539.36,81.06V56.01c0-8.91-5.55-13.44-16.21-13.44
				c-6.36,0-10.01,1.16-13.73,5.25l6.06,5.92c1.97-2.27,3.65-3.15,7.3-3.15c5.05,0,7.09,1.83,7.09,6v1.9h-8.99
				c-8.84,0-13,4.96-13,11.02c0,3.36,1.1,6.43,3.14,8.55c2.26,2.26,5.4,3.35,9.72,3.35c4.38,0,6.8-1.1,9.36-3.65v3.28H539.36z
				 M501.52,81.06v-8.02h-3.65c-2.41,0-3.36-1.17-3.36-3.43V29.06h-9.48v41.13c0,5.4,3.28,10.87,11.09,10.87H501.52z M473.25,81.06
				V43.01h-9.49v23.01c0,5.19-3.36,6.94-6.36,6.94c-2.99,0-6.29-1.75-6.29-6.94V43.01h-9.48v24.33c0,4.16,0.8,7.74,3.87,10.81
				c2.12,2.11,5.18,3.35,8.98,3.35c3.51,0,7.02-1.31,9.5-3.94v3.5H473.25z M430.38,81.06V56.44c0-8.04-4.38-13.87-12.7-13.87
				c-3.37,0-6.58,1.31-9.14,3.94V29.06h-9.49v52h9.49V57.83c0-4.97,3.14-6.72,6.14-6.72c3,0,6.21,1.68,6.21,6.72v23.23H430.38z
				 M390.2,76.32l-6.43-6.36c-1.97,2.12-3.65,3-6.14,3c-2.26,0-4.02-0.8-5.41-2.49c-1.46-1.83-2.12-4.46-2.12-8.47
				c0-4.02,0.66-6.58,2.12-8.41c1.39-1.68,3.14-2.48,5.41-2.48c2.48,0,4.16,0.88,6.14,2.99l6.43-6.42
				c-3.36-3.51-7.3-5.11-12.56-5.11c-7.6,0-17.01,4.01-17.01,19.43c0,15.41,9.42,19.5,17.01,19.5
				C382.9,81.5,386.84,79.82,390.2,76.32 M353.1,69.08c0-6.43-3.8-10.45-11.32-11.18l-5.99-0.59c-3.36-0.29-3.94-1.9-3.94-3.29
				c0-1.9,1.61-3.65,5.41-3.65c3.29,0,6.65,0.58,8.84,2.56l5.84-5.91c-3.65-3.43-8.62-4.45-14.54-4.45
				c-7.74,0-14.68,4.23-14.68,12.11c0,7.02,4.24,10.01,11.1,10.67l5.99,0.58c2.99,0.29,4.02,1.61,4.02,3.51
				c0,2.85-3.43,3.95-6.72,3.95c-2.92,0-7.01-0.44-10.15-3.58l-6.21,6.21c4.82,4.82,10.23,5.47,16.22,5.47
				C345.94,81.5,353.1,77.48,353.1,69.08 M314.38,81.06v-8.02h-3.43c-2.26,0-3.29-1.24-3.29-3.44V51.33h6.72v-7.22h-6.72V32.86
				h-9.49v11.25h-4.02v7.22h4.02v18.85c0,5.41,3.29,10.88,11.02,10.88H314.38z M277.28,62c0,6.21-0.74,10.96-6.43,10.96
				c-5.7,0-6.43-4.75-6.43-10.96c0-6.21,0.73-10.89,6.43-10.89C276.55,51.11,277.28,55.78,277.28,62 M286.77,62
				c0-5.7-0.07-12.2-3.87-16c-2.12-2.12-5.55-3.43-9.28-3.43c-4.02,0-6.87,1.09-9.5,4.01v-3.57h-9.19v52h9.49V77.7
				c2.48,2.77,5.34,3.79,9.21,3.79c3.73,0,7.16-1.31,9.28-3.43C286.7,74.27,286.77,67.7,286.77,62 M242.79,81.06V43.01h-9.49v23.01
				c0,5.19-3.37,6.94-6.36,6.94c-3,0-6.29-1.75-6.29-6.94V43.01h-9.49v24.33c0,4.16,0.8,7.74,3.87,10.81
				c2.12,2.11,5.18,3.35,8.98,3.35c3.51,0,7.02-1.31,9.51-3.94v3.5H242.79z M190.43,67.03c0,2.34-0.37,3.88-1.39,4.83
				c-1.68,1.61-3.36,1.83-5.99,1.83c-3.73,0-5.48-1.76-5.48-4.39c0-2.71,1.9-4.32,5.34-4.32h7.53V67.03z M199.91,81.06V56.01
				c0-8.91-5.55-13.44-16.21-13.44c-6.36,0-10.01,1.16-13.73,5.25l6.06,5.92c1.97-2.27,3.65-3.15,7.31-3.15c5.04,0,7.09,1.83,7.09,6
				v1.9h-9c-8.83,0-12.99,4.96-12.99,11.02c0,3.36,1.09,6.43,3.14,8.55c2.26,2.26,5.4,3.35,9.71,3.35c4.39,0,6.8-1.1,9.36-3.65v3.28
				H199.91z M158.28,81.06v-52h-10.14v21.26h-17.62V29.06h-10.14v52h10.14V59.29h17.62v21.77H158.28z"/>
		</g>
		<g style="clip-path:url(#SVGID_00000045608245072595769100000007080643564990793355_);">
			<rect x="2.81" y="232.07" class="st3" width="992.7" height="3.37"/>
		</g>
		<g style="clip-path:url(#SVGID_00000045608245072595769100000007080643564990793355_);">
			<rect x="2.81" y="346.14" class="st3" width="992.7" height="3.37"/>
		</g>
		<g style="clip-path:url(#SVGID_00000045608245072595769100000007080643564990793355_);">
			<rect x="2.81" y="468.63" class="st3" width="992.7" height="3.37"/>
		</g>
		<g style="clip-path:url(#SVGID_00000045608245072595769100000007080643564990793355_);">
			<rect x="2.81" y="585.51" class="st3" width="992.7" height="3.37"/>
		</g>
		<g style="clip-path:url(#SVGID_00000045608245072595769100000007080643564990793355_);">
			<path class="st3" d="M704.21,654.09c0-3.58-0.43-7.27-3.3-10.14c-1.55-1.55-3.84-2.46-6.83-2.46c-2.78,0-5.02,0.85-6.3,2.19
				v-10.04h15.59v-4.85h-20.49v20.76h4.96c0.58-1.87,2.3-3.42,5.39-3.42c4.38,0,5.55,3.42,5.55,7.96c0,2.56-0.21,5.07-1.81,6.68
				c-0.96,0.96-2.35,1.49-3.95,1.49c-3.42,0-5.13-1.92-5.56-5.29h-5.44c0.21,2.72,0.85,5.23,2.88,7.26
				c1.65,1.65,4.48,2.93,8.11,2.93c3.69,0,6.3-1.28,8.01-2.98C703.79,661.41,704.21,658.15,704.21,654.09 M662.79,663.27l-3.68-3.63
				c-1.66,1.66-2.78,2.62-5.23,2.62c-4.38,0-6.62-3.05-6.62-9.02c0-5.88,2.24-8.97,6.62-8.97c2.4,0,3.63,0.96,5.23,2.56l3.68-3.57
				c-1.71-1.71-2.56-2.29-4-2.93c-1.39-0.58-2.99-0.9-4.86-0.9c-7.57,0-12.11,5.17-12.11,13.72c0,8.81,4.48,13.98,12.11,13.98
				c1.87,0,3.42-0.26,4.86-0.9C660.23,665.56,661.08,664.98,662.79,663.27 M628.9,657.02c0,3.95-1.71,5.56-5.93,5.56
				c-3.69,0-5.34-1.23-5.34-3.85c0-2.56,1.65-3.84,4.86-3.84h6.41V657.02z M634.29,666.79V648.7c0-6.14-3.79-9.28-11.32-9.28
				c-2.56,0-4.48,0.32-6.03,1.06c-1.33,0.59-2.02,1.23-3.52,2.83l3.57,3.37c0.8-1.02,1.39-1.55,2.19-1.92
				c0.96-0.48,2.08-0.7,3.64-0.7c4.27,0,6.09,1.49,6.09,5.02v1.98h-7.27c-5.77,0-9.28,2.93-9.28,7.84c0,5.23,3.36,8.16,9.39,8.16
				c3.21,0,4.97-0.48,7.21-2.72v2.45H634.29z M605.14,666.79v-27.06h-18.52v11.26c0,10.47-2.78,11-5.12,11h-0.85v4.8h2.56
				c5.28,0,8.64-2.98,8.64-14.46v-7.85h7.86v22.31H605.14z M556.89,666.79v-19.85l15.32,19.85h7.32l-15.96-20.07l14.63-17.94h-7.1
				l-14.2,18.04v-18.04h-5.76v38H556.89z M532.28,624.84h-5.23l-15.22,45.9h5.23L532.28,624.84z M495.07,654.09
				c0-3.58-0.43-7.27-3.3-10.14c-1.55-1.55-3.84-2.46-6.83-2.46c-2.78,0-5.02,0.85-6.3,2.19v-10.04h15.59v-4.85h-20.49v20.76h4.96
				c0.59-1.87,2.3-3.42,5.4-3.42c4.38,0,5.55,3.42,5.55,7.96c0,2.56-0.21,5.07-1.81,6.68c-0.96,0.96-2.35,1.49-3.95,1.49
				c-3.42,0-5.13-1.92-5.56-5.29h-5.44c0.21,2.72,0.85,5.23,2.88,7.26c1.65,1.65,4.48,2.93,8.11,2.93c3.68,0,6.3-1.28,8.01-2.98
				C494.64,661.41,495.07,658.15,495.07,654.09 M447.35,651.05h-12.17c0.06-1.66,0.16-2.46,0.7-3.69c0.85-2.03,2.83-3.42,5.39-3.42
				c2.56,0,4.48,1.39,5.34,3.42C447.14,648.59,447.3,649.39,447.35,651.05 M452.74,654.83v-2.4c0-7.69-4.22-13.02-11.48-13.02
				c-6.94,0-11.47,5.06-11.47,13.82c0,10.31,5.38,13.88,12.17,13.88c4.75,0,7.37-1.44,10.14-4.21l-3.47-3.26
				c-1.92,1.92-3.52,2.78-6.56,2.78c-4.43,0-6.89-2.94-6.89-7.59H452.74z M424.02,658.52c0-4.8-2.99-7.21-8.06-7.64l-4.27-0.37
				c-2.88-0.27-3.74-1.49-3.74-3.1c0-2.03,1.65-3.47,4.91-3.47c2.56,0,4.96,0.53,6.67,1.98l3.42-3.47
				c-2.51-2.19-5.98-3.03-10.04-3.03c-5.66,0-10.19,2.98-10.19,8.27c0,4.75,2.93,7.05,8.01,7.48l4.32,0.37
				c2.62,0.21,3.63,1.39,3.63,3.2c0,2.57-2.61,3.74-5.92,3.74c-2.67,0-5.61-0.59-7.79-2.83l-3.58,3.57
				c3.2,3.15,6.94,3.89,11.37,3.89C419.22,667.11,424.02,664.18,424.02,658.52 M397.18,658.52c0-4.8-2.99-7.21-8.06-7.64l-4.27-0.37
				c-2.88-0.27-3.74-1.49-3.74-3.1c0-2.03,1.66-3.47,4.91-3.47c2.56,0,4.97,0.53,6.68,1.98l3.42-3.47
				c-2.51-2.19-5.98-3.03-10.04-3.03c-5.66,0-10.2,2.98-10.2,8.27c0,4.75,2.94,7.05,8.01,7.48l4.33,0.37
				c2.61,0.21,3.63,1.39,3.63,3.2c0,2.57-2.62,3.74-5.93,3.74c-2.67,0-5.6-0.59-7.79-2.83l-3.57,3.57c3.2,3.15,6.94,3.89,11.37,3.89
				C392.37,667.11,397.18,664.18,397.18,658.52 M362.8,657.02c0,1.92-0.37,3.2-1.17,4.01c-1.44,1.39-2.99,1.55-5.07,1.55
				c-3.42,0-4.97-1.39-4.97-3.85c0-2.46,1.66-3.9,4.86-3.9h6.36V657.02z M368.24,666.79V648.7c0-6.14-3.73-9.28-11.15-9.28
				c-4.48,0-7.15,0.9-9.71,3.89l3.57,3.37c1.49-1.92,2.94-2.62,5.93-2.62c4.22,0,5.93,1.66,5.93,5.07v1.93h-7.15
				c-6.19,0-9.34,3.25-9.34,7.79c0,2.3,0.75,4.38,2.14,5.82c1.65,1.65,3.89,2.45,7.25,2.45c3.37,0,5.24-0.8,7.21-2.77v2.45H368.24z
				 M341.82,666.79v-4.64h-2.4c-2.19,0-2.93-1.07-2.93-3.15v-30.21h-5.44v30.53c0,4,2.24,7.47,7.41,7.47H341.82z M325.8,666.79
				l-13.62-23.11l12.33-14.89h-7.05l-15.53,19.11v-19.11h-5.76v38h5.76v-11.05l6.41-7.69l10.68,18.73H325.8z"/>
		</g>
		<g style="clip-path:url(#SVGID_00000045608245072595769100000007080643564990793355_);">
			<path class="st3" d="M698.67,544.38c0,4.06-2.4,6.62-5.82,6.62c-3.42,0-5.77-2.57-5.77-6.62c0-4.11,2.35-6.57,5.77-6.57
				C696.48,537.81,698.67,540.64,698.67,544.38 M704.11,544.27c0-6.68-4.48-10.99-9.98-10.99c-1.17,0-2.35,0.16-3.36,0.58
				l8.17-16.33h-5.82l-8.65,17.62c-1.65,3.3-2.83,6.24-2.83,9.34c0,7.05,4.69,11.37,11.26,11.37
				C699.47,555.85,704.11,551.27,704.11,544.27 M662.79,552.01l-3.68-3.63c-1.66,1.66-2.78,2.62-5.23,2.62
				c-4.38,0-6.62-3.05-6.62-9.02c0-5.88,2.24-8.97,6.62-8.97c2.4,0,3.63,0.96,5.23,2.56l3.68-3.57c-1.71-1.71-2.56-2.29-4-2.93
				c-1.39-0.58-2.99-0.9-4.86-0.9c-7.57,0-12.11,5.17-12.11,13.72c0,8.81,4.48,13.98,12.11,13.98c1.87,0,3.42-0.26,4.86-0.9
				C660.23,554.31,661.08,553.72,662.79,552.01 M628.9,545.77c0,3.95-1.71,5.56-5.93,5.56c-3.69,0-5.34-1.23-5.34-3.85
				c0-2.56,1.65-3.85,4.86-3.85h6.41V545.77z M634.29,555.53v-18.09c0-6.14-3.79-9.28-11.32-9.28c-2.56,0-4.48,0.32-6.03,1.06
				c-1.33,0.59-2.02,1.23-3.52,2.83l3.57,3.37c0.8-1.02,1.39-1.55,2.19-1.92c0.96-0.48,2.08-0.7,3.64-0.7
				c4.27,0,6.09,1.49,6.09,5.02v1.98h-7.27c-5.77,0-9.28,2.93-9.28,7.84c0,5.23,3.36,8.16,9.39,8.16c3.21,0,4.97-0.48,7.21-2.71
				v2.45H634.29z M605.14,555.53v-27.06h-18.52v11.26c0,10.47-2.78,11-5.12,11h-0.85v4.8h2.56c5.28,0,8.64-2.98,8.64-14.46v-7.85
				h7.86v22.31H605.14z M556.89,555.53v-19.85l15.32,19.85h7.32l-15.96-20.07l14.63-17.94h-7.1l-14.2,18.04v-18.04h-5.76v38H556.89z
				 M532.28,513.58h-5.23l-15.22,45.9h5.23L532.28,513.58z M489.53,544.38c0,4.06-2.4,6.62-5.82,6.62c-3.42,0-5.77-2.57-5.77-6.62
				c0-4.11,2.35-6.57,5.77-6.57C487.33,537.81,489.53,540.64,489.53,544.38 M494.97,544.27c0-6.68-4.48-10.99-9.98-10.99
				c-1.17,0-2.35,0.16-3.37,0.58l8.18-16.33h-5.82l-8.65,17.62c-1.66,3.3-2.83,6.24-2.83,9.34c0,7.05,4.69,11.37,11.26,11.37
				C490.32,555.85,494.97,551.27,494.97,544.27 M447.35,539.79h-12.17c0.06-1.66,0.16-2.46,0.7-3.69c0.85-2.03,2.83-3.42,5.39-3.42
				c2.56,0,4.48,1.39,5.34,3.42C447.14,537.33,447.3,538.13,447.35,539.79 M452.74,543.57v-2.4c0-7.69-4.22-13.02-11.48-13.02
				c-6.94,0-11.47,5.06-11.47,13.82c0,10.31,5.38,13.88,12.17,13.88c4.75,0,7.37-1.44,10.14-4.21l-3.47-3.26
				c-1.92,1.92-3.52,2.78-6.56,2.78c-4.43,0-6.89-2.94-6.89-7.59H452.74z M424.02,547.26c0-4.8-2.99-7.21-8.06-7.64l-4.27-0.37
				c-2.88-0.27-3.74-1.49-3.74-3.1c0-2.03,1.65-3.47,4.91-3.47c2.56,0,4.96,0.53,6.67,1.98l3.42-3.47
				c-2.51-2.19-5.98-3.03-10.04-3.03c-5.66,0-10.19,2.98-10.19,8.27c0,4.75,2.93,7.05,8.01,7.48l4.32,0.37
				c2.62,0.21,3.63,1.39,3.63,3.2c0,2.57-2.61,3.74-5.92,3.74c-2.67,0-5.61-0.59-7.79-2.83l-3.58,3.57
				c3.2,3.15,6.94,3.89,11.37,3.89C419.22,555.85,424.02,552.92,424.02,547.26 M397.18,547.26c0-4.8-2.99-7.21-8.06-7.64l-4.27-0.37
				c-2.88-0.27-3.74-1.49-3.74-3.1c0-2.03,1.66-3.47,4.91-3.47c2.56,0,4.97,0.53,6.68,1.98l3.42-3.47
				c-2.51-2.19-5.98-3.03-10.04-3.03c-5.66,0-10.2,2.98-10.2,8.27c0,4.75,2.94,7.05,8.01,7.48l4.33,0.37
				c2.61,0.21,3.63,1.39,3.63,3.2c0,2.57-2.62,3.74-5.93,3.74c-2.67,0-5.6-0.59-7.79-2.83l-3.57,3.57c3.2,3.15,6.94,3.89,11.37,3.89
				C392.37,555.85,397.18,552.92,397.18,547.26 M362.8,545.77c0,1.92-0.37,3.2-1.17,4.01c-1.44,1.39-2.99,1.55-5.07,1.55
				c-3.42,0-4.97-1.39-4.97-3.85c0-2.46,1.66-3.9,4.86-3.9h6.36V545.77z M368.24,555.53v-18.09c0-6.14-3.73-9.28-11.15-9.28
				c-4.48,0-7.15,0.9-9.71,3.89l3.57,3.37c1.49-1.92,2.94-2.62,5.93-2.62c4.22,0,5.93,1.66,5.93,5.07v1.93h-7.15
				c-6.19,0-9.34,3.25-9.34,7.79c0,2.3,0.75,4.38,2.14,5.82c1.65,1.65,3.89,2.45,7.25,2.45c3.37,0,5.24-0.8,7.21-2.77v2.45H368.24z
				 M341.82,555.53v-4.64h-2.4c-2.19,0-2.93-1.07-2.93-3.15v-30.21h-5.44v30.53c0,4,2.24,7.47,7.41,7.47H341.82z M325.8,555.53
				l-13.62-23.11l12.33-14.89h-7.05l-15.53,19.11v-19.11h-5.76v38h5.76v-11.05l6.41-7.69l10.68,18.73H325.8z"/>
		</g>
		<g style="clip-path:url(#SVGID_00000045608245072595769100000007080643564990793355_);">
			<path class="st3" d="M704.65,399.89v-4.85h-22.63v10.83h5.23v-5.98h11.58l-12.76,33.15h5.87L704.65,399.89z M662.79,429.52
				l-3.68-3.63c-1.66,1.66-2.78,2.62-5.23,2.62c-4.38,0-6.62-3.05-6.62-9.02c0-5.88,2.24-8.97,6.62-8.97c2.4,0,3.63,0.96,5.23,2.56
				l3.68-3.57c-1.71-1.71-2.56-2.29-4-2.93c-1.39-0.58-2.99-0.9-4.86-0.9c-7.57,0-12.11,5.17-12.11,13.72
				c0,8.81,4.48,13.98,12.11,13.98c1.87,0,3.42-0.26,4.86-0.9C660.23,431.81,661.08,431.23,662.79,429.52 M628.9,423.27
				c0,3.95-1.71,5.56-5.93,5.56c-3.69,0-5.34-1.23-5.34-3.85c0-2.56,1.65-3.84,4.86-3.84h6.41V423.27z M634.29,433.04v-18.09
				c0-6.14-3.79-9.28-11.32-9.28c-2.56,0-4.48,0.32-6.03,1.06c-1.33,0.59-2.02,1.23-3.52,2.83l3.57,3.37
				c0.8-1.02,1.39-1.55,2.19-1.92c0.96-0.48,2.08-0.7,3.64-0.7c4.27,0,6.09,1.49,6.09,5.02v1.98h-7.27c-5.77,0-9.28,2.93-9.28,7.84
				c0,5.23,3.36,8.16,9.39,8.16c3.21,0,4.97-0.48,7.21-2.72v2.45H634.29z M605.14,433.04v-27.06h-18.52v11.26
				c0,10.47-2.78,11-5.12,11h-0.85v4.8h2.56c5.28,0,8.64-2.98,8.64-14.46v-7.85h7.86v22.31H605.14z M556.89,433.04v-19.85
				l15.32,19.85h7.32l-15.96-20.07l14.63-17.94h-7.1l-14.2,18.04v-18.04h-5.76v38H556.89z M532.28,391.08h-5.23l-15.22,45.9h5.23
				L532.28,391.08z M495.5,399.89v-4.85h-22.63v10.83h5.23v-5.98h11.58l-12.76,33.15h5.87L495.5,399.89z M447.35,417.3h-12.17
				c0.06-1.66,0.16-2.46,0.7-3.69c0.85-2.03,2.83-3.42,5.39-3.42c2.56,0,4.48,1.39,5.34,3.42
				C447.14,414.83,447.3,415.64,447.35,417.3 M452.74,421.08v-2.4c0-7.69-4.22-13.02-11.48-13.02c-6.94,0-11.47,5.06-11.47,13.82
				c0,10.3,5.38,13.87,12.17,13.87c4.75,0,7.37-1.44,10.14-4.21l-3.47-3.26c-1.92,1.92-3.52,2.78-6.56,2.78
				c-4.43,0-6.89-2.94-6.89-7.59H452.74z M424.02,424.76c0-4.8-2.99-7.21-8.06-7.64l-4.27-0.37c-2.88-0.27-3.74-1.49-3.74-3.1
				c0-2.03,1.65-3.47,4.91-3.47c2.56,0,4.96,0.53,6.67,1.98l3.42-3.47c-2.51-2.19-5.98-3.03-10.04-3.03
				c-5.66,0-10.19,2.98-10.19,8.27c0,4.75,2.93,7.05,8.01,7.48l4.32,0.37c2.62,0.21,3.63,1.39,3.63,3.2c0,2.57-2.61,3.74-5.92,3.74
				c-2.67,0-5.61-0.59-7.79-2.83l-3.58,3.58c3.2,3.14,6.94,3.89,11.37,3.89C419.22,433.36,424.02,430.42,424.02,424.76
				 M397.18,424.76c0-4.8-2.99-7.21-8.06-7.64l-4.27-0.37c-2.88-0.27-3.74-1.49-3.74-3.1c0-2.03,1.66-3.47,4.91-3.47
				c2.56,0,4.97,0.53,6.68,1.98l3.42-3.47c-2.51-2.19-5.98-3.03-10.04-3.03c-5.66,0-10.2,2.98-10.2,8.27c0,4.75,2.94,7.05,8.01,7.48
				l4.33,0.37c2.61,0.21,3.63,1.39,3.63,3.2c0,2.57-2.62,3.74-5.93,3.74c-2.67,0-5.6-0.59-7.79-2.83l-3.57,3.58
				c3.2,3.14,6.94,3.89,11.37,3.89C392.37,433.36,397.18,430.42,397.18,424.76 M362.8,423.27c0,1.92-0.37,3.2-1.17,4.01
				c-1.44,1.39-2.99,1.55-5.07,1.55c-3.42,0-4.97-1.39-4.97-3.85s1.66-3.9,4.86-3.9h6.36V423.27z M368.24,433.04v-18.09
				c0-6.14-3.73-9.28-11.15-9.28c-4.48,0-7.15,0.9-9.71,3.89l3.57,3.37c1.49-1.92,2.94-2.62,5.93-2.62c4.22,0,5.93,1.66,5.93,5.07
				v1.93h-7.15c-6.19,0-9.34,3.25-9.34,7.79c0,2.3,0.75,4.38,2.14,5.82c1.65,1.65,3.89,2.45,7.25,2.45c3.37,0,5.24-0.8,7.21-2.77
				v2.45H368.24z M341.82,433.04v-4.64h-2.4c-2.19,0-2.93-1.07-2.93-3.15v-30.21h-5.44v30.53c0,4,2.24,7.47,7.41,7.47H341.82z
				 M325.8,433.04l-13.62-23.11l12.33-14.89h-7.05l-15.53,19.11v-19.11h-5.76v38h5.76v-11.05l6.41-7.69l10.68,18.73H325.8z"/>
		</g>
		<g style="clip-path:url(#SVGID_00000045608245072595769100000007080643564990793355_);">
			<path class="st3" d="M698.51,289.92c0,3.36-2.35,5.77-5.66,5.77c-3.31,0-5.61-2.4-5.61-5.77c0-3.32,2.3-5.82,5.61-5.82
				C696.16,284.1,698.51,286.6,698.51,289.92 M699.1,306.73c0,3.52-2.72,6.3-6.25,6.3c-3.52,0-6.25-2.78-6.25-6.3
				c0-3.52,2.73-6.36,6.25-6.36C696.38,300.37,699.1,303.21,699.1,306.73 M704.59,306.84c0-4.54-2.56-7.32-5.23-8.91
				c2.45-1.49,4.59-4.16,4.59-8.17c0-6.36-4.91-10.51-11.1-10.51c-6.19,0-11.05,4.16-11.05,10.51c0,4.01,2.14,6.68,4.59,8.17
				c-2.66,1.6-5.23,4.37-5.23,8.91c0,6.89,5.18,11.05,11.69,11.05C699.37,317.88,704.59,313.73,704.59,306.84 M662.79,314.05
				l-3.68-3.63c-1.66,1.66-2.78,2.62-5.23,2.62c-4.38,0-6.62-3.05-6.62-9.02c0-5.88,2.24-8.97,6.62-8.97c2.4,0,3.63,0.96,5.23,2.56
				l3.68-3.57c-1.71-1.71-2.56-2.29-4-2.93c-1.39-0.58-2.99-0.9-4.86-0.9c-7.57,0-12.11,5.17-12.11,13.72
				c0,8.81,4.48,13.98,12.11,13.98c1.87,0,3.42-0.26,4.86-0.9C660.23,316.34,661.08,315.75,662.79,314.05 M628.9,307.8
				c0,3.95-1.71,5.56-5.93,5.56c-3.69,0-5.34-1.23-5.34-3.85c0-2.56,1.65-3.84,4.86-3.84h6.41V307.8z M634.29,317.56v-18.09
				c0-6.14-3.79-9.28-11.32-9.28c-2.56,0-4.48,0.32-6.03,1.06c-1.33,0.59-2.02,1.23-3.52,2.83l3.57,3.37
				c0.8-1.02,1.39-1.55,2.19-1.92c0.96-0.48,2.08-0.7,3.64-0.7c4.27,0,6.09,1.49,6.09,5.02v1.98h-7.27c-5.77,0-9.28,2.93-9.28,7.84
				c0,5.23,3.36,8.16,9.39,8.16c3.21,0,4.97-0.48,7.21-2.72v2.45H634.29z M605.14,317.56v-27.06h-18.52v11.26
				c0,10.47-2.78,11-5.12,11h-0.85v4.8h2.56c5.28,0,8.64-2.98,8.64-14.46v-7.85h7.86v22.31H605.14z M556.89,317.56v-19.85
				l15.32,19.85h7.32l-15.96-20.07l14.63-17.94h-7.1l-14.2,18.04v-18.04h-5.76v38H556.89z M532.28,275.61h-5.23l-15.22,45.9h5.23
				L532.28,275.61z M489.37,289.92c0,3.36-2.35,5.77-5.66,5.77c-3.31,0-5.61-2.4-5.61-5.77c0-3.32,2.3-5.82,5.61-5.82
				C487.01,284.1,489.37,286.6,489.37,289.92 M489.95,306.73c0,3.52-2.73,6.3-6.25,6.3c-3.52,0-6.25-2.78-6.25-6.3
				c0-3.52,2.73-6.36,6.25-6.36C487.23,300.37,489.95,303.21,489.95,306.73 M495.44,306.84c0-4.54-2.56-7.32-5.22-8.91
				c2.45-1.49,4.59-4.16,4.59-8.17c0-6.36-4.91-10.51-11.1-10.51c-6.19,0-11.05,4.16-11.05,10.51c0,4.01,2.14,6.68,4.59,8.17
				c-2.66,1.6-5.23,4.37-5.23,8.91c0,6.89,5.18,11.05,11.69,11.05C490.22,317.88,495.44,313.73,495.44,306.84 M447.35,301.82h-12.17
				c0.06-1.66,0.16-2.46,0.7-3.69c0.85-2.03,2.83-3.42,5.39-3.42c2.56,0,4.48,1.39,5.34,3.42
				C447.14,299.36,447.3,300.17,447.35,301.82 M452.74,305.61v-2.4c0-7.69-4.22-13.02-11.48-13.02c-6.94,0-11.47,5.06-11.47,13.82
				c0,10.3,5.38,13.87,12.17,13.87c4.75,0,7.37-1.44,10.14-4.21l-3.47-3.26c-1.92,1.92-3.52,2.78-6.56,2.78
				c-4.43,0-6.89-2.94-6.89-7.59H452.74z M424.02,309.29c0-4.8-2.99-7.21-8.06-7.64l-4.27-0.37c-2.88-0.27-3.74-1.49-3.74-3.1
				c0-2.03,1.65-3.47,4.91-3.47c2.56,0,4.96,0.53,6.67,1.98l3.42-3.47c-2.51-2.19-5.98-3.03-10.04-3.03
				c-5.66,0-10.19,2.98-10.19,8.27c0,4.75,2.93,7.05,8.01,7.48l4.32,0.37c2.62,0.21,3.63,1.39,3.63,3.2c0,2.57-2.61,3.74-5.92,3.74
				c-2.67,0-5.61-0.59-7.79-2.83l-3.58,3.58c3.2,3.14,6.94,3.89,11.37,3.89C419.22,317.88,424.02,314.95,424.02,309.29
				 M397.18,309.29c0-4.8-2.99-7.21-8.06-7.64l-4.27-0.37c-2.88-0.27-3.74-1.49-3.74-3.1c0-2.03,1.66-3.47,4.91-3.47
				c2.56,0,4.97,0.53,6.68,1.98l3.42-3.47c-2.51-2.19-5.98-3.03-10.04-3.03c-5.66,0-10.2,2.98-10.2,8.27c0,4.75,2.94,7.05,8.01,7.48
				l4.33,0.37c2.61,0.21,3.63,1.39,3.63,3.2c0,2.57-2.62,3.74-5.93,3.74c-2.67,0-5.6-0.59-7.79-2.83l-3.57,3.58
				c3.2,3.14,6.94,3.89,11.37,3.89C392.37,317.88,397.18,314.95,397.18,309.29 M362.8,307.8c0,1.92-0.37,3.2-1.17,4.01
				c-1.44,1.39-2.99,1.55-5.07,1.55c-3.42,0-4.97-1.39-4.97-3.85s1.66-3.9,4.86-3.9h6.36V307.8z M368.24,317.56v-18.09
				c0-6.14-3.73-9.28-11.15-9.28c-4.48,0-7.15,0.9-9.71,3.89l3.57,3.37c1.49-1.92,2.94-2.62,5.93-2.62c4.22,0,5.93,1.66,5.93,5.07
				v1.93h-7.15c-6.19,0-9.34,3.25-9.34,7.79c0,2.3,0.75,4.38,2.14,5.82c1.65,1.65,3.89,2.45,7.25,2.45c3.37,0,5.24-0.8,7.21-2.77
				v2.45H368.24z M341.82,317.56v-4.64h-2.4c-2.19,0-2.93-1.07-2.93-3.15v-30.21h-5.44v30.53c0,4,2.24,7.47,7.41,7.47H341.82z
				 M325.8,317.56l-13.62-23.11l12.33-14.89h-7.05l-15.53,19.11v-19.11h-5.76v38h5.76v-11.05l6.41-7.69l10.68,18.73H325.8z"/>
		</g>
		<g style="clip-path:url(#SVGID_00000045608245072595769100000007080643564990793355_);">
			<path class="st3" d="M698.67,175.24c0,4.11-2.4,6.57-5.82,6.57c-3.63,0-5.77-2.83-5.77-6.57c0-4.06,2.35-6.62,5.77-6.62
				C696.27,168.62,698.67,171.19,698.67,175.24 M704.11,175.14c0-7.05-4.69-11.37-11.26-11.37c-6.57,0-11.2,4.59-11.2,11.58
				c0,6.68,4.42,11,9.92,11c1.17,0,2.4-0.16,3.42-0.59l-8.18,16.33h5.82l8.65-17.62C702.94,181.17,704.11,178.23,704.11,175.14
				 M662.79,198.57l-3.68-3.63c-1.66,1.66-2.78,2.62-5.23,2.62c-4.38,0-6.62-3.05-6.62-9.02c0-5.88,2.24-8.97,6.62-8.97
				c2.4,0,3.63,0.96,5.23,2.56l3.68-3.57c-1.71-1.71-2.56-2.29-4-2.93c-1.39-0.58-2.99-0.9-4.86-0.9c-7.57,0-12.11,5.17-12.11,13.72
				c0,8.81,4.48,13.98,12.11,13.98c1.87,0,3.42-0.26,4.86-0.9C660.23,200.87,661.08,200.28,662.79,198.57 M628.9,192.32
				c0,3.95-1.71,5.56-5.93,5.56c-3.69,0-5.34-1.23-5.34-3.85c0-2.56,1.65-3.84,4.86-3.84h6.41V192.32z M634.29,202.09V184
				c0-6.14-3.79-9.28-11.32-9.28c-2.56,0-4.48,0.32-6.03,1.06c-1.33,0.59-2.02,1.23-3.52,2.83l3.57,3.37
				c0.8-1.02,1.39-1.55,2.19-1.92c0.96-0.48,2.08-0.7,3.64-0.7c4.27,0,6.09,1.49,6.09,5.02v1.98h-7.27c-5.77,0-9.28,2.93-9.28,7.84
				c0,5.23,3.36,8.16,9.39,8.16c3.21,0,4.97-0.48,7.21-2.72v2.45H634.29z M605.14,202.09v-27.06h-18.52v11.26
				c0,10.47-2.78,11-5.12,11h-0.85v4.8h2.56c5.28,0,8.64-2.98,8.64-14.46v-7.85h7.86v22.31H605.14z M556.89,202.09v-19.85
				l15.32,19.85h7.32l-15.96-20.07l14.63-17.94h-7.1l-14.2,18.04v-18.04h-5.76v38H556.89z M532.28,160.14h-5.23l-15.22,45.9h5.23
				L532.28,160.14z M489.53,175.24c0,4.11-2.4,6.57-5.82,6.57c-3.63,0-5.77-2.83-5.77-6.57c0-4.06,2.35-6.62,5.77-6.62
				C487.12,168.62,489.53,171.19,489.53,175.24 M494.97,175.14c0-7.05-4.69-11.37-11.26-11.37s-11.2,4.59-11.2,11.58
				c0,6.68,4.42,11,9.92,11c1.17,0,2.4-0.16,3.42-0.59l-8.17,16.33h5.82l8.65-17.62C493.79,181.17,494.97,178.23,494.97,175.14
				 M447.35,186.35h-12.17c0.06-1.66,0.16-2.46,0.7-3.69c0.85-2.03,2.83-3.42,5.39-3.42c2.56,0,4.48,1.39,5.34,3.42
				C447.14,183.89,447.3,184.69,447.35,186.35 M452.74,190.13v-2.4c0-7.69-4.22-13.02-11.48-13.02c-6.94,0-11.47,5.06-11.47,13.82
				c0,10.3,5.38,13.87,12.17,13.87c4.75,0,7.37-1.44,10.14-4.21l-3.47-3.26c-1.92,1.92-3.52,2.78-6.56,2.78
				c-4.43,0-6.89-2.94-6.89-7.59H452.74z M424.02,193.82c0-4.8-2.99-7.21-8.06-7.64l-4.27-0.37c-2.88-0.27-3.74-1.49-3.74-3.1
				c0-2.03,1.65-3.47,4.91-3.47c2.56,0,4.96,0.53,6.67,1.98l3.42-3.47c-2.51-2.19-5.98-3.03-10.04-3.03
				c-5.66,0-10.19,2.98-10.19,8.27c0,4.75,2.93,7.05,8.01,7.48l4.32,0.37c2.62,0.21,3.63,1.39,3.63,3.2c0,2.57-2.61,3.74-5.92,3.74
				c-2.67,0-5.61-0.59-7.79-2.83l-3.58,3.58c3.2,3.14,6.94,3.89,11.37,3.89C419.22,202.41,424.02,199.48,424.02,193.82
				 M397.18,193.82c0-4.8-2.99-7.21-8.06-7.64l-4.27-0.37c-2.88-0.27-3.74-1.49-3.74-3.1c0-2.03,1.66-3.47,4.91-3.47
				c2.56,0,4.97,0.53,6.68,1.98l3.42-3.47c-2.51-2.19-5.98-3.03-10.04-3.03c-5.66,0-10.2,2.98-10.2,8.27c0,4.75,2.94,7.05,8.01,7.48
				l4.33,0.37c2.61,0.21,3.63,1.39,3.63,3.2c0,2.57-2.62,3.74-5.93,3.74c-2.67,0-5.6-0.59-7.79-2.83l-3.57,3.58
				c3.2,3.14,6.94,3.89,11.37,3.89C392.37,202.41,397.18,199.48,397.18,193.82 M362.8,192.32c0,1.92-0.37,3.2-1.17,4.01
				c-1.44,1.39-2.99,1.55-5.07,1.55c-3.42,0-4.97-1.39-4.97-3.85c0-2.46,1.66-3.9,4.86-3.9h6.36V192.32z M368.24,202.09V184
				c0-6.14-3.73-9.28-11.15-9.28c-4.48,0-7.15,0.9-9.71,3.89l3.57,3.37c1.49-1.92,2.94-2.62,5.93-2.62c4.22,0,5.93,1.66,5.93,5.07
				v1.93h-7.15c-6.19,0-9.34,3.25-9.34,7.79c0,2.3,0.75,4.38,2.14,5.82c1.65,1.65,3.89,2.45,7.25,2.45c3.37,0,5.24-0.8,7.21-2.77
				v2.45H368.24z M341.82,202.09v-4.64h-2.4c-2.19,0-2.93-1.07-2.93-3.15v-30.21h-5.44v30.53c0,4,2.24,7.47,7.41,7.47H341.82z
				 M325.8,202.09l-13.62-23.11l12.33-14.89h-7.05l-15.53,19.11v-19.11h-5.76v38h5.76v-11.05l6.41-7.69l10.68,18.73H325.8z"/>
		</g>
	</g>
	<g>
		<polygon class="st4" points="21.91,638.98 37.98,638.98 29.95,628.35 		"/>
	</g>
	<g>
		<polygon class="st4" points="21.91,660.11 37.98,660.11 29.95,649.49 		"/>
	</g>
	<g>
		<polygon class="st4" points="21.91,681.25 37.98,681.25 29.95,670.62 		"/>
	</g>
	<g>
		<polygon class="st4" points="21.91,617.84 37.98,617.84 29.95,607.22 		"/>
	</g>
	<g>
		<polygon class="st4" points="21.91,523.5 37.98,523.5 29.95,512.88 		"/>
	</g>
	<g>
		<polygon class="st4" points="21.91,544.64 37.98,544.64 29.95,534.01 		"/>
	</g>
	<g>
		<polygon class="st4" points="21.91,565.77 37.98,565.77 29.95,555.15 		"/>
	</g>
	<g>
		<polygon class="st4" points="21.91,502.37 37.98,502.37 29.95,491.74 		"/>
	</g>
	<g>
		<polygon class="st4" points="21.91,403.82 37.98,403.82 29.95,393.19 		"/>
	</g>
	<g>
		<polygon class="st4" points="21.91,424.95 37.98,424.95 29.95,414.32 		"/>
	</g>
	<g>
		<polygon class="st4" points="21.91,446.09 37.98,446.09 29.95,435.46 		"/>
	</g>
	<g>
		<polygon class="st4" points="21.91,382.68 37.98,382.68 29.95,372.05 		"/>
	</g>
	<g>
		<polygon class="st4" points="21.91,285.53 37.98,285.53 29.95,274.91 		"/>
	</g>
	<g>
		<polygon class="st4" points="21.91,306.67 37.98,306.67 29.95,296.04 		"/>
	</g>
	<g>
		<polygon class="st4" points="21.91,327.8 37.98,327.8 29.95,317.18 		"/>
	</g>
	<g>
		<polygon class="st4" points="21.91,264.4 37.98,264.4 29.95,253.77 		"/>
	</g>
	<g>
		<polygon class="st4" points="21.91,170.06 37.98,170.06 29.95,159.44 		"/>
	</g>
	<g>
		<polygon class="st4" points="21.91,191.2 37.98,191.2 29.95,180.57 		"/>
	</g>
	<g>
		<polygon class="st4" points="21.91,212.33 37.98,212.33 29.95,201.71 		"/>
	</g>
	<g>
		<polygon class="st4" points="21.91,148.93 37.98,148.93 29.95,138.3 		"/>
	</g>
</g>
</svg>
