<?xml version="1.0" encoding="utf-8"?>
<!-- Generator: Adobe Illustrator 26.2.1, SVG Export Plug-In . SVG Version: 6.00 Build 0)  -->
<svg version="1.1" id="Ebene_1" xmlns="http://www.w3.org/2000/svg" xmlns:xlink="http://www.w3.org/1999/xlink" x="0px" y="0px"
	 viewBox="0 0 1000 819.82" style="enable-background:new 0 0 1000 819.82;" xml:space="preserve">
<style type="text/css">
	.st0{fill:#A2B9E1;}
	.st1{fill:#6796CF;}
	.st2{clip-path:url(#SVGID_00000118374924213820960020000000206622061215737022_);}
	.st3{fill:#2B2961;}
	.st4{fill:#FFFFFF;}
	.st5{clip-path:url(#SVGID_00000021811007219998025790000012937910398280376474_);}
	.st6{clip-path:url(#SVGID_00000152971048464664477510000011001132523731267491_);}
	.st7{clip-path:url(#SVGID_00000034793945338559277730000010598295796516025733_);}
	.st8{clip-path:url(#SVGID_00000100349429410817241990000002289274804905896353_);}
	.st9{clip-path:url(#SVGID_00000089537878889361185890000000807537303215544706_);}
	.st10{opacity:0.52;clip-path:url(#SVGID_00000018939569199399563020000008376321043046340777_);}
	.st11{clip-path:url(#SVGID_00000180355894943856029460000007997832095358088104_);}
	.st12{clip-path:url(#SVGID_00000022548274716680952450000016995604035434612148_);}
	.st13{clip-path:url(#SVGID_00000134953964076576703720000004055253573212010918_);}
	.st14{clip-path:url(#SVGID_00000109013116960001772680000005032494346472187573_);}
	.st15{clip-path:url(#SVGID_00000003824939134200513110000002034000671460510872_);}
	.st16{clip-path:url(#SVGID_00000072276271817620793810000009338621210573676430_);}
	.st17{clip-path:url(#SVGID_00000027600536447790629240000007444961060434814602_);}
	.st18{clip-path:url(#SVGID_00000101796340962904114040000006258995883298720690_);}
	.st19{clip-path:url(#SVGID_00000178897114635962184580000008285938443221926569_);}
	.st20{clip-path:url(#SVGID_00000078752828412822676140000009416506192344077197_);}
	.st21{clip-path:url(#SVGID_00000058568366124531787470000009935936770879013798_);}
	.st22{clip-path:url(#SVGID_00000140702360670615567810000015152586341984210320_);}
	.st23{fill:none;stroke:#2B2961;stroke-width:0.374;stroke-linejoin:round;stroke-miterlimit:10;}
	.st24{fill:none;stroke:#2B2961;stroke-width:0.4;stroke-miterlimit:10;}
	.st25{clip-path:url(#SVGID_00000077288409959665658430000003598478196459519399_);}
	.st26{clip-path:url(#SVGID_00000089552807812855123730000004614549075788169890_);}
	.st27{clip-path:url(#SVGID_00000106837680469477869320000001699550010990074241_);}
	.st28{clip-path:url(#SVGID_00000103224705097825119480000018413084084338501014_);}
	.st29{clip-path:url(#SVGID_00000094579005094434714160000018128352683192626065_);}
	.st30{clip-path:url(#SVGID_00000177462571574914341560000010945103284340152449_);}
	.st31{clip-path:url(#SVGID_00000002346358966930198770000013454739486776464315_);}
	.st32{clip-path:url(#SVGID_00000044884351845973425460000018171067969159469461_);}
	.st33{clip-path:url(#SVGID_00000181776536252483226870000010698053653118262675_);}
	.st34{clip-path:url(#SVGID_00000046336183787186079160000001919046652779216026_);}
	.st35{clip-path:url(#SVGID_00000105408296732511413020000006796554405143521717_);}
	.st36{clip-path:url(#SVGID_00000003807133535102983520000002404566287729707962_);}
	.st37{clip-path:url(#SVGID_00000145751451789178889120000002935793616302836867_);}
	.st38{clip-path:url(#SVGID_00000103242827189490966670000012666137069824957361_);}
	.st39{clip-path:url(#SVGID_00000160901607332422598090000006436912673034915746_);}
	.st40{clip-path:url(#SVGID_00000049914963813633792720000012752874741689435789_);}
	.st41{clip-path:url(#SVGID_00000080904360149960262530000010433918484403958195_);}
	.st42{clip-path:url(#SVGID_00000129925714924902684680000013507944779863355524_);}
	.st43{clip-path:url(#SVGID_00000134965718050503339860000001182087185075527613_);}
	.st44{clip-path:url(#SVGID_00000066507641503662698640000009531491539952160405_);}
	.st45{clip-path:url(#SVGID_00000078736425674345918780000006945083115312817592_);}
	.st46{clip-path:url(#SVGID_00000033366475683706811310000017342748527034275999_);}
	.st47{clip-path:url(#SVGID_00000160891481110972090740000016118359812981039261_);}
	.st48{clip-path:url(#SVGID_00000154387879140610206910000009635415118574878631_);}
	.st49{clip-path:url(#SVGID_00000177468827980715955720000014484142120456893333_);}
	.st50{clip-path:url(#SVGID_00000109740332174842558270000016732186202415262353_);}
	.st51{clip-path:url(#SVGID_00000066473754629756043480000012689285582490811062_);}
	.st52{clip-path:url(#SVGID_00000140707905674180031470000015737745672300531621_);}
	.st53{clip-path:url(#SVGID_00000177486189241902544860000006925467381070803369_);}
	.st54{clip-path:url(#SVGID_00000052098530990526570120000010287468961162156460_);}
	.st55{clip-path:url(#SVGID_00000075877127945045721850000004425391785276300213_);}
	.st56{clip-path:url(#SVGID_00000018229562237175299200000004915342682133084811_);}
	.st57{clip-path:url(#SVGID_00000089539309844519636790000007768643875043209370_);}
	.st58{clip-path:url(#SVGID_00000009575346029148274680000018151974342287994798_);}
	.st59{clip-path:url(#SVGID_00000044865912873408885870000011978809514907303040_);}
	.st60{clip-path:url(#SVGID_00000055679946104715108160000009811959600424462263_);}
	.st61{clip-path:url(#SVGID_00000051347990430216598050000017822698832601837999_);}
	.st62{fill:#9AB4DE;}
	.st63{clip-path:url(#SVGID_00000027576903496598680870000011149246485837835139_);}
	.st64{clip-path:url(#SVGID_00000067236314683928741710000004032987608533036210_);}
	.st65{clip-path:url(#SVGID_00000106122488306769037390000004090351688368112047_);}
	.st66{fill:#B9C9E9;}
	.st67{clip-path:url(#SVGID_00000085208229765426126680000005492019741887757992_);}
	.st68{clip-path:url(#SVGID_00000160893236156336202530000000207910769559104904_);}
	.st69{clip-path:url(#SVGID_00000003818324087962062710000015184967079971262644_);}
	.st70{clip-path:url(#SVGID_00000116237495835664623880000016170366575899681153_);}
	.st71{clip-path:url(#SVGID_00000165946048643564348290000006681077167818435486_);}
	.st72{clip-path:url(#SVGID_00000135686913887381482030000008551290481596271270_);}
	.st73{clip-path:url(#SVGID_00000016040667471007416810000004320825948196899752_);}
	.st74{clip-path:url(#SVGID_00000078739145858819770980000010354491974148985486_);}
	.st75{clip-path:url(#SVGID_00000160155452794202765960000018361481365097552569_);}
	.st76{clip-path:url(#SVGID_00000132072516774988738460000012465597282470776485_);}
	.st77{clip-path:url(#SVGID_00000144338174465858978010000014378038148797210546_);}
	.st78{clip-path:url(#SVGID_00000176752249817969157400000014607665648939792538_);}
	.st79{clip-path:url(#SVGID_00000137826046377458289920000001888726438765729672_);}
	.st80{clip-path:url(#SVGID_00000167381279718865480430000006991972717959221156_);}
	.st81{clip-path:url(#SVGID_00000029728416341582660850000018192054361230654874_);}
	.st82{clip-path:url(#SVGID_00000085959111334014229470000006877318565533579174_);}
	.st83{clip-path:url(#SVGID_00000108282893513593269270000017087728242044852666_);}
	.st84{clip-path:url(#SVGID_00000156576319198466560300000008058666359618507914_);}
	.st85{clip-path:url(#SVGID_00000178900249734877660850000007624371567843051924_);}
	.st86{clip-path:url(#SVGID_00000083062197428231598180000006470145934312106896_);}
	.st87{clip-path:url(#SVGID_00000180368983463712936830000004333173618666368414_);}
	.st88{clip-path:url(#SVGID_00000178897117429755287660000011050994084669839756_);}
	.st89{clip-path:url(#SVGID_00000062154406277615458550000001740585031346282119_);}
	.st90{clip-path:url(#SVGID_00000000917222960899158290000007204277277679710884_);}
	.st91{clip-path:url(#SVGID_00000058563273953015375350000018300471064419611276_);}
	.st92{clip-path:url(#SVGID_00000106832799682341352510000017953565211446022834_);}
	.st93{clip-path:url(#SVGID_00000165920247006597412940000006112172624554669238_);}
	.st94{clip-path:url(#SVGID_00000041288032188768165320000001091302035914567091_);}
	.st95{clip-path:url(#SVGID_00000098216797586294404730000016670676607215282603_);}
	.st96{clip-path:url(#SVGID_00000009552772188810777960000010188672897719353009_);}
	.st97{clip-path:url(#SVGID_00000062181709554256947380000014871521104293647282_);}
	.st98{clip-path:url(#SVGID_00000014634675505729638220000013944998164668050623_);}
	.st99{clip-path:url(#SVGID_00000119103234558433372810000018306732082046748814_);}
	.st100{clip-path:url(#SVGID_00000082344445263220287220000001817893513217394091_);}
	.st101{clip-path:url(#SVGID_00000123415663551440525160000010378942714596889273_);}
	.st102{clip-path:url(#SVGID_00000136398538842534837660000007558648800506914702_);}
	.st103{clip-path:url(#SVGID_00000106122835765517985930000007978923154117496729_);}
	.st104{clip-path:url(#SVGID_00000178165388326060674660000012688770853788221366_);}
	.st105{clip-path:url(#SVGID_00000089566018088491484310000004933605122229502383_);}
	.st106{clip-path:url(#SVGID_00000103224831703713222580000010505710082797752464_);}
	.st107{clip-path:url(#SVGID_00000082352115142987537060000001716921154789975196_);}
	.st108{clip-path:url(#SVGID_00000090281099167467146870000016448824001213490081_);}
	.st109{clip-path:url(#SVGID_00000053545765941784415870000018377627378243820970_);}
	.st110{clip-path:url(#SVGID_00000152970239913044945420000007440122678645474949_);}
	.st111{clip-path:url(#SVGID_00000157285009950069796380000002431753264239553418_);}
	.st112{clip-path:url(#SVGID_00000021838959956843089290000012211845130609411494_);}
	.st113{clip-path:url(#SVGID_00000138564038837112246470000012646974885013778308_);}
	.st114{clip-path:url(#SVGID_00000059307494834435145960000018353875445940866952_);}
	.st115{clip-path:url(#SVGID_00000180351931154932104710000004419208478535081882_);}
	.st116{clip-path:url(#SVGID_00000019678236379215912810000015252455856556335288_);}
	.st117{clip-path:url(#SVGID_00000075849695009007507740000012399050588292488371_);}
	.st118{clip-path:url(#SVGID_00000049199352846949713940000003006302468684216448_);}
	.st119{clip-path:url(#SVGID_00000150801046914096295620000015386813357579332736_);}
	.st120{clip-path:url(#SVGID_00000059304127009543792310000007048662270990612666_);}
	.st121{clip-path:url(#SVGID_00000126312774775455624610000013051576568778053264_);}
	.st122{clip-path:url(#SVGID_00000120544685945412492540000005457203460419067056_);}
	.st123{clip-path:url(#SVGID_00000138531280587813340510000007495824007846850955_);}
	.st124{clip-path:url(#SVGID_00000119805161916353758570000016047761348578232969_);}
	.st125{clip-path:url(#SVGID_00000148659490068135350050000000543380960746577300_);}
	.st126{clip-path:url(#SVGID_00000056428074827887049020000007582258025716368781_);}
	.st127{clip-path:url(#SVGID_00000106828393794442536830000004064144446166662550_);}
	.st128{clip-path:url(#SVGID_00000121987710873617375080000010733343967044956581_);}
	.st129{clip-path:url(#SVGID_00000003784065073356423050000009543338885982983825_);}
	.st130{clip-path:url(#SVGID_00000176750641950975795950000000679521408912736158_);}
	.st131{clip-path:url(#SVGID_00000098936143648059210490000017972476487712602249_);}
	.st132{clip-path:url(#SVGID_00000174578817441635302940000000192072691914697091_);}
	.st133{clip-path:url(#SVGID_00000164482912746819022340000011605263292737599135_);}
	.st134{clip-path:url(#SVGID_00000168115706741863157930000009828161895141645493_);}
	.st135{clip-path:url(#SVGID_00000095300872214455233150000007414080125314164649_);}
	.st136{clip-path:url(#SVGID_00000176033933013855687030000015406330673470536620_);}
	.st137{clip-path:url(#SVGID_00000134232150276843183590000001747470636560438968_);}
	.st138{clip-path:url(#SVGID_00000023970141144856535630000007134895415143369872_);}
	.st139{clip-path:url(#SVGID_00000152229949824401362210000012506761704850443443_);}
	.st140{clip-path:url(#SVGID_00000120523962213605691930000017989327038434456237_);}
	.st141{clip-path:url(#SVGID_00000160888327721152812730000005115946393550121106_);}
	.st142{clip-path:url(#SVGID_00000152946065589932622260000005632610196513587375_);}
	.st143{clip-path:url(#SVGID_00000060742598847227431640000004353696142541134513_);}
	.st144{clip-path:url(#SVGID_00000070088119476318679360000004990388714926278797_);}
	.st145{clip-path:url(#SVGID_00000124150185116668558510000006802762086996561031_);}
	.st146{clip-path:url(#SVGID_00000047054129515508490640000011507727023350241935_);}
	.st147{clip-path:url(#SVGID_00000177454657493558671930000001558148976681080235_);}
	.st148{clip-path:url(#SVGID_00000154401350057764633890000007148130500509327786_);}
	.st149{clip-path:url(#SVGID_00000057149346854073802520000004653463132784273578_);}
	.st150{clip-path:url(#SVGID_00000178198386660797457410000007236622301753539773_);}
	.st151{clip-path:url(#SVGID_00000174591329680441072700000001630411396587346573_);}
	.st152{clip-path:url(#SVGID_00000018220074316862809550000004816708533945062323_);}
	.st153{clip-path:url(#SVGID_00000124141320068448623040000013114904487376822687_);}
	.st154{clip-path:url(#SVGID_00000027591597517073157780000010380672891124371363_);}
	.st155{clip-path:url(#SVGID_00000103979758801292074410000014743642235470745529_);}
	.st156{clip-path:url(#SVGID_00000003813468170445593190000005517374474327574432_);}
	.st157{clip-path:url(#SVGID_00000041989980562424299950000016458083092008063673_);}
	.st158{clip-path:url(#SVGID_00000146474975258659246530000002547693821664610491_);}
	.st159{clip-path:url(#SVGID_00000124137337878057969010000005679066737968685726_);}
	.st160{clip-path:url(#SVGID_00000029735016370582013750000005806943439768745094_);}
	.st161{clip-path:url(#SVGID_00000044140335535913588940000001393936735922346937_);}
	.st162{clip-path:url(#SVGID_00000149381583683921857630000017606616257160490132_);}
	.st163{clip-path:url(#SVGID_00000121262782805399015350000005172822812463932832_);}
	.st164{clip-path:url(#SVGID_00000176021550265747612970000014888568635607619984_);}
	.st165{clip-path:url(#SVGID_00000003810728612587708000000002120441497959288983_);}
	.st166{clip-path:url(#SVGID_00000017496726798750713460000004193738928283953821_);}
	.st167{clip-path:url(#SVGID_00000006679910756914200490000017302366015771308187_);}
	.st168{clip-path:url(#SVGID_00000127755949850476642370000007540774223868120722_);}
	.st169{clip-path:url(#SVGID_00000048477538784468460550000009314579549176327350_);}
	.st170{clip-path:url(#SVGID_00000030471494500976683630000012699821609253396139_);}
	.st171{clip-path:url(#SVGID_00000044153782342022751640000000628635688412791990_);}
	.st172{clip-path:url(#SVGID_00000052083178400294603250000015474485285882545585_);}
	.st173{clip-path:url(#SVGID_00000084487824096119868330000000781590672266792879_);}
	.st174{clip-path:url(#SVGID_00000103956954635416680110000004382370618070902701_);}
	.st175{clip-path:url(#SVGID_00000137812243677166341930000010842208631189413822_);}
	.st176{clip-path:url(#SVGID_00000176023743683351531330000014412309346456681366_);}
	.st177{clip-path:url(#SVGID_00000151516528765988386940000003747311075516197050_);}
	.st178{clip-path:url(#SVGID_00000111161898932509046680000007299020219195502006_);}
	.st179{clip-path:url(#SVGID_00000145024519534517574080000011526750435667110530_);}
	.st180{clip-path:url(#SVGID_00000057136741911024683500000012248367252100468106_);}
	.st181{clip-path:url(#SVGID_00000177450737183297932860000010678866499426106809_);}
	.st182{clip-path:url(#SVGID_00000109716421752623125970000008914684776069510576_);}
	.st183{clip-path:url(#SVGID_00000100374983680653081110000008550776676283819397_);}
	.st184{clip-path:url(#SVGID_00000145046241583480955690000013512636061760943277_);}
	.st185{clip-path:url(#SVGID_00000010992113207757360320000018146026063711495568_);}
	.st186{clip-path:url(#SVGID_00000081632438131150206680000016346332735705425550_);}
	.st187{clip-path:url(#SVGID_00000026862531591282023000000006102107015396059045_);}
	.st188{clip-path:url(#SVGID_00000104685807482407247520000014686990452258178204_);}
	.st189{clip-path:url(#SVGID_00000018942260809993247640000011277941492265676172_);}
	.st190{clip-path:url(#SVGID_00000088100661560596335930000013009182925146800012_);}
	.st191{clip-path:url(#SVGID_00000013191313519597885920000004036481013793866936_);}
	.st192{clip-path:url(#SVGID_00000132046816557659948660000005761363029264689076_);}
	.st193{clip-path:url(#SVGID_00000073710698887475035170000002484039322171381641_);}
	.st194{clip-path:url(#SVGID_00000168092303845801314480000008111479062931810709_);}
	.st195{clip-path:url(#SVGID_00000114789899543200693570000014789365724441154201_);}
	.st196{clip-path:url(#SVGID_00000018226966726077618160000000008938437523814798_);}
	.st197{clip-path:url(#SVGID_00000089541824322737037780000000634282277387868839_);}
	.st198{clip-path:url(#SVGID_00000176732521367576161270000008203327978174044855_);}
	.st199{clip-path:url(#SVGID_00000126308653924259969470000010132866683962927764_);}
	.st200{clip-path:url(#SVGID_00000103963227809216600850000003825829927644585363_);}
	.st201{clip-path:url(#SVGID_00000093175926689719054610000013943976341371005619_);}
	.st202{clip-path:url(#SVGID_00000081641548663158578270000015737566224198054043_);}
	.st203{clip-path:url(#SVGID_00000124122202810263043040000001726332861167017893_);}
	.st204{clip-path:url(#SVGID_00000104672830437292785540000002941928761077225895_);}
	.st205{clip-path:url(#SVGID_00000091698954442019947830000000568086472392361347_);}
	.st206{clip-path:url(#SVGID_00000109748094192507028700000003158646709453010842_);}
	.st207{clip-path:url(#SVGID_00000085952917594723376770000008042995873129637004_);}
	.st208{clip-path:url(#SVGID_00000073688931914607864400000005781154737570312359_);}
	.st209{clip-path:url(#SVGID_00000060711250614298887570000018072969374396696479_);}
	.st210{clip-path:url(#SVGID_00000068636982028292117980000016548272606255126182_);}
	.st211{clip-path:url(#SVGID_00000124884676948600340140000005390975488242300032_);}
	.st212{clip-path:url(#SVGID_00000092433405647771786680000006912649518434760114_);}
	.st213{clip-path:url(#SVGID_00000182523305424120659820000012152270223053667985_);}
	.st214{clip-path:url(#SVGID_00000143591213575283140330000009597703063389600946_);}
	.st215{clip-path:url(#SVGID_00000146471166821177349850000013968801230434034617_);}
	.st216{clip-path:url(#SVGID_00000053511712389456507690000005856531958095346590_);}
	.st217{clip-path:url(#SVGID_00000031904404902632967300000007606604283327240876_);}
	.st218{clip-path:url(#SVGID_00000042011210363349866030000015814808248271075481_);}
	.st219{clip-path:url(#SVGID_00000060723110242603703590000012997705742538281354_);}
	.st220{clip-path:url(#SVGID_00000139256171276326256340000015974515676190216622_);}
	.st221{clip-path:url(#SVGID_00000139268016133165283170000004068741717928251785_);}
	.st222{clip-path:url(#SVGID_00000051354632345361633260000014101403021098041002_);}
	.st223{clip-path:url(#SVGID_00000130620225134263628780000013805202323088661643_);}
	.st224{clip-path:url(#SVGID_00000105406455945553966060000013957113119627612817_);}
	.st225{clip-path:url(#SVGID_00000015332763605394614100000014488955750485845127_);}
	.st226{clip-path:url(#SVGID_00000054987633339436715340000006999193754482086057_);}
	.st227{clip-path:url(#SVGID_00000173860141866337093630000001325618295526439870_);}
	.st228{clip-path:url(#SVGID_00000128445656133060186320000014013843822456313776_);}
	.st229{clip-path:url(#SVGID_00000100350272022042033980000002180781470057459342_);}
	.st230{clip-path:url(#SVGID_00000093869908002534174200000005006507103034546608_);}
	.st231{clip-path:url(#SVGID_00000010301260432150421510000003612210947700866189_);}
	.st232{clip-path:url(#SVGID_00000014611645785598445770000006477477579741998979_);}
	.st233{clip-path:url(#SVGID_00000088124230632488523210000003080578923800865191_);}
	.st234{clip-path:url(#SVGID_00000147919631096463269440000015345068357594301080_);}
	.st235{clip-path:url(#SVGID_00000071559839596337249010000005056039104793225653_);}
	.st236{clip-path:url(#SVGID_00000075854089070476846300000002576748941764528554_);}
	.st237{clip-path:url(#SVGID_00000147904674343263165410000002351085630287285690_);}
	.st238{clip-path:url(#SVGID_00000028299013952667961720000013484610758425438089_);}
	.st239{clip-path:url(#SVGID_00000143611042919043901860000000576718055255567237_);}
	.st240{clip-path:url(#SVGID_00000090258999816778787150000009694248714728640399_);}
	.st241{clip-path:url(#SVGID_00000099661786570705845750000015630539730331961258_);}
	.st242{clip-path:url(#SVGID_00000078764849645659558950000013413795027556918410_);}
	.st243{clip-path:url(#SVGID_00000016067133117457666190000000463381451250173093_);}
	.st244{clip-path:url(#SVGID_00000127738024618693499050000004184305918699299496_);}
	.st245{clip-path:url(#SVGID_00000100359192808168093230000002210445143422485121_);}
	.st246{clip-path:url(#SVGID_00000105399131693480684790000005880056736751090846_);}
	.st247{clip-path:url(#SVGID_00000098180278804217635350000004599071344329056952_);}
	.st248{clip-path:url(#SVGID_00000084531863120826483190000008813587419914947770_);}
	.st249{clip-path:url(#SVGID_00000180361314781182009970000008361569485898393994_);}
	.st250{clip-path:url(#SVGID_00000008143825650378790430000013459163305719028395_);}
	.st251{clip-path:url(#SVGID_00000042721411306528739380000007403018230743734154_);}
	.st252{clip-path:url(#SVGID_00000077291612198162084290000015981613679611990175_);}
	.st253{clip-path:url(#SVGID_00000014620989375497454560000011162984547629078949_);}
	.st254{clip-path:url(#SVGID_00000031207162252245807200000000380270046053699222_);}
	.st255{clip-path:url(#SVGID_00000118357972920638760310000008122718208993764497_);}
	.st256{clip-path:url(#SVGID_00000145037729945012561550000007913425224282441898_);}
	.st257{clip-path:url(#SVGID_00000065069843349074752920000002890282727099810452_);}
	.st258{clip-path:url(#SVGID_00000160912543647658639010000007784975012056733367_);}
	.st259{clip-path:url(#SVGID_00000087400716576596879880000010810234816087582353_);}
	.st260{clip-path:url(#SVGID_00000007414909037708995120000001375726965711905710_);}
	.st261{clip-path:url(#SVGID_00000076586248655885963240000000732231910662786227_);}
	.st262{clip-path:url(#SVGID_00000103246464246272655780000006394295663338671283_);}
	.st263{clip-path:url(#SVGID_00000111880487980036427160000002511393293601607599_);}
	.st264{clip-path:url(#SVGID_00000145775259424237755560000012061339596002423698_);}
	.st265{clip-path:url(#SVGID_00000092441097889539826710000009600986957670461880_);}
	.st266{clip-path:url(#SVGID_00000041287193549175989300000017143305469923460253_);}
	.st267{clip-path:url(#SVGID_00000035518308694843384410000010418006112878196359_);}
	.st268{clip-path:url(#SVGID_00000047756538816491259900000004172956744811744168_);}
	.st269{clip-path:url(#SVGID_00000096037995118084683810000014832187299046951868_);}
	.st270{clip-path:url(#SVGID_00000124848335919349075860000018326162943936252294_);}
	.st271{clip-path:url(#SVGID_00000129928227900218355820000004320426643527427759_);}
	.st272{clip-path:url(#SVGID_00000176026602774870941160000003394989903214643631_);}
	.st273{clip-path:url(#SVGID_00000078763531137725116120000000069158645800645274_);}
	.st274{clip-path:url(#SVGID_00000089576423412769299980000016064699280955652028_);}
	.st275{clip-path:url(#SVGID_00000128454145076531943300000013685869879387825541_);}
	.st276{clip-path:url(#SVGID_00000108271939133505602100000009806613463404765864_);}
	.st277{clip-path:url(#SVGID_00000132802485843339457810000010828563133982180757_);}
	.st278{clip-path:url(#SVGID_00000096780449722822402850000015469233526852594349_);}
	.st279{clip-path:url(#SVGID_00000092418175116949898150000018358860656064861369_);}
	.st280{clip-path:url(#SVGID_00000093862209086702573610000005087202552574816673_);}
	.st281{clip-path:url(#SVGID_00000005965966195079174230000014305909292303838082_);}
	.st282{clip-path:url(#SVGID_00000008846189777420851040000007967867768767904165_);}
	.st283{clip-path:url(#SVGID_00000174560847727725307740000014608528243431475385_);}
	.st284{clip-path:url(#SVGID_00000003786170004640886570000010871406599869907895_);}
	.st285{clip-path:url(#SVGID_00000063625498319478341220000006599849429094113678_);}
	.st286{clip-path:url(#SVGID_00000059287022714619787890000012046013873467195288_);}
	.st287{clip-path:url(#SVGID_00000171718089900282423360000007834087587921707442_);}
	.st288{clip-path:url(#SVGID_00000049197757229604652280000015073933753533027216_);}
	.st289{clip-path:url(#SVGID_00000084526997709834650220000011341113303865499059_);}
	.st290{clip-path:url(#SVGID_00000044153507088188150170000015150561387788649635_);}
	.st291{clip-path:url(#SVGID_00000007414264989391050850000011739482283721011866_);}
	.st292{clip-path:url(#SVGID_00000126298753522966784650000003064626901923911300_);}
	.st293{clip-path:url(#SVGID_00000031904485363337669430000009805609345003514798_);}
	.st294{clip-path:url(#SVGID_00000137092543734737984800000009870337634583040899_);}
	.st295{clip-path:url(#SVGID_00000083799951318674642570000006007655288241400214_);}
	.st296{clip-path:url(#SVGID_00000143593255272753661040000016905384820766978957_);}
	.st297{clip-path:url(#SVGID_00000005260001728739322690000001485566978789678781_);}
	.st298{clip-path:url(#SVGID_00000165952654853881927740000004679808357506332324_);}
	.st299{clip-path:url(#SVGID_00000015356171336181040430000009010238000817899967_);}
	.st300{clip-path:url(#SVGID_00000165219563171493677440000004132780689170556083_);}
	.st301{clip-path:url(#SVGID_00000142875375939769941430000012673983695494052499_);}
	.st302{clip-path:url(#SVGID_00000016075251261340357890000006480181085250902948_);}
	.st303{clip-path:url(#SVGID_00000060011553019682426750000014187013965957168307_);}
	.st304{clip-path:url(#SVGID_00000117652029487229843480000012089555762242077854_);}
	.st305{clip-path:url(#SVGID_00000056386007012510416290000008714540912364776845_);}
	.st306{clip-path:url(#SVGID_00000071551404500762071190000013497560537341584815_);}
	.st307{clip-path:url(#SVGID_00000047751585837746606900000011727122489592760756_);}
	.st308{clip-path:url(#SVGID_00000163785172106173080870000006730641855859344037_);}
	.st309{clip-path:url(#SVGID_00000041978471195961874530000014068447506807960204_);}
	.st310{clip-path:url(#SVGID_00000023989422029330183390000018027110476818785717_);}
	.st311{clip-path:url(#SVGID_00000023279181852420961900000010898126479019287211_);}
	.st312{clip-path:url(#SVGID_00000122720724239173128420000005589586423615014566_);}
	.st313{clip-path:url(#SVGID_00000018227924133191299530000003877209497921901735_);}
	.st314{clip-path:url(#SVGID_00000069381138391104031910000001996358416015134092_);}
	.st315{clip-path:url(#SVGID_00000106847162138025420540000013710939522322479030_);}
	.st316{clip-path:url(#SVGID_00000140700027984887279060000013260391316345072024_);}
	.st317{clip-path:url(#SVGID_00000144300521691241570260000001585434489071104910_);}
	.st318{clip-path:url(#SVGID_00000168820649451537608340000005867107195484188034_);}
	.st319{clip-path:url(#SVGID_00000111154694148214092990000012704290908038445227_);}
	.st320{clip-path:url(#SVGID_00000139273615476450674460000015915499551364452030_);}
	.st321{clip-path:url(#SVGID_00000013905890236476807330000006376542318515865781_);}
	.st322{clip-path:url(#SVGID_00000090288418811606265710000018159969142479414935_);}
	.st323{clip-path:url(#SVGID_00000141457464810740692770000014702681354232135335_);}
	.st324{clip-path:url(#SVGID_00000033360089967966054550000010649734667063235766_);}
	.st325{clip-path:url(#SVGID_00000074412304470630646170000011772011460753125014_);}
	.st326{clip-path:url(#SVGID_00000138545346079111193470000004827438887575580288_);}
	.st327{clip-path:url(#SVGID_00000133494352477775345130000007469846936047829426_);}
	.st328{clip-path:url(#SVGID_00000088840801989010440200000014027771855937148037_);}
	.st329{clip-path:url(#SVGID_00000124875490383694224130000005641724044473469849_);}
	.st330{clip-path:url(#SVGID_00000023253961023714968750000010455841820482446734_);}
	.st331{clip-path:url(#SVGID_00000090263780751235036390000000738375221713869985_);}
	.st332{clip-path:url(#SVGID_00000176743039851619778560000006575927126805843599_);}
	.st333{clip-path:url(#SVGID_00000127044796558981061160000009386906254727702675_);}
	.st334{clip-path:url(#SVGID_00000163779284712810472430000005573700460805051546_);}
	.st335{clip-path:url(#SVGID_00000074436065282572284730000016108499130875903651_);}
	.st336{clip-path:url(#SVGID_00000140727976015444680460000011085423914087330480_);}
	.st337{clip-path:url(#SVGID_00000104687988371914475480000007181279544646575508_);}
	.st338{clip-path:url(#SVGID_00000120526771579092052310000016858260302725920134_);}
	.st339{clip-path:url(#SVGID_00000075154777577713990180000010076897845217854388_);}
	.st340{clip-path:url(#SVGID_00000119829269867021090810000013509495243541509003_);}
	.st341{clip-path:url(#SVGID_00000062168378230898950750000001565716819082819495_);}
	.st342{clip-path:url(#SVGID_00000121253858255042714540000002317957798141939107_);}
	.st343{clip-path:url(#SVGID_00000119082733757475049340000016649936305840350342_);}
	.st344{clip-path:url(#SVGID_00000168079342219942636420000016378673134956607414_);}
	.st345{clip-path:url(#SVGID_00000036218359342847808760000002518653407823671221_);}
	.st346{clip-path:url(#SVGID_00000119833323540972294610000014534455063122897033_);}
	.st347{clip-path:url(#SVGID_00000077302962176066736950000016590099546627646105_);}
	.st348{clip-path:url(#SVGID_00000038399315482064528950000016420836375349015460_);}
	.st349{clip-path:url(#SVGID_00000046305833875059845670000016973599751844609463_);}
	.st350{clip-path:url(#SVGID_00000050646984671296654540000017639285689857854338_);}
	.st351{clip-path:url(#SVGID_00000083788832490581282200000005686970960235968447_);}
	.st352{clip-path:url(#SVGID_00000075874206575690322780000006135165096986313653_);}
	.st353{clip-path:url(#SVGID_00000133523834119862943900000015213236929045455500_);}
	.st354{clip-path:url(#SVGID_00000165943691673018011640000006998507138697429677_);}
	.st355{clip-path:url(#SVGID_00000021841654841306646160000008486321924380542381_);}
	.st356{clip-path:url(#SVGID_00000121999957023620586470000006559981155911303867_);}
	.st357{clip-path:url(#SVGID_00000017518050730410870870000011923314976819037082_);}
	.st358{clip-path:url(#SVGID_00000049918301992596550090000013462335532519253181_);}
	.st359{clip-path:url(#SVGID_00000066497925756441695440000013159393110157241772_);}
	.st360{clip-path:url(#SVGID_00000078748189907780040530000002625131208200508341_);}
	.st361{clip-path:url(#SVGID_00000166644261873221815330000011697216996247417744_);}
	.st362{clip-path:url(#SVGID_00000118375302962281459610000014092422313307126671_);}
	.st363{clip-path:url(#SVGID_00000156565235051885542910000013224565953007672453_);}
	.st364{clip-path:url(#SVGID_00000154406331831356693030000011782480205166637197_);}
	.st365{clip-path:url(#SVGID_00000100347303639637492030000003020647640192674948_);}
	.st366{clip-path:url(#SVGID_00000140704926902804236710000016979372252414561689_);}
	.st367{clip-path:url(#SVGID_00000022519636738198327540000011819778125237524149_);}
	.st368{clip-path:url(#SVGID_00000051374367030225103180000002270031096881737655_);}
	.st369{clip-path:url(#SVGID_00000062155421497246533400000014146558258507842728_);}
	.st370{clip-path:url(#SVGID_00000088813431047712132570000010806725726426259853_);}
	.st371{clip-path:url(#SVGID_00000020386246274389855580000010319193338670562209_);}
	.st372{clip-path:url(#SVGID_00000060746632425682616640000006696578623348763834_);}
	.st373{clip-path:url(#SVGID_00000028288385252296510690000005786025669362035364_);}
	.st374{clip-path:url(#SVGID_00000035532926860179998060000004255935145459944871_);}
	.st375{clip-path:url(#SVGID_00000155852313466457429160000006895822247096632243_);}
</style>
<g>
	<g>
		<rect x="4.5" y="122.5" class="st0" width="48.54" height="692.84"/>
	</g>
	<g>
		<rect x="4.5" class="st1" width="992.7" height="116.88"/>
	</g>
	<g>
		<defs>
			<rect id="SVGID_00000176029134654676264750000000815324561672190137_" width="1000" height="819.82"/>
		</defs>
		<clipPath id="SVGID_00000113321931559825036150000004580084718812802472_">
			<use xlink:href="#SVGID_00000176029134654676264750000000815324561672190137_"  style="overflow:visible;"/>
		</clipPath>
		<g style="clip-path:url(#SVGID_00000113321931559825036150000004580084718812802472_);">
			<path class="st3" d="M997.19,819.83H1.68c-0.93,0-1.68-0.75-1.68-1.68V2.81c0-0.93,0.75-1.68,1.68-1.68h995.5
				c0.93,0,1.68,0.75,1.68,1.68v815.33C998.87,819.07,998.12,819.83,997.19,819.83z M3.37,816.46H995.5V4.49H3.37V816.46z"/>
		</g>
		<g style="clip-path:url(#SVGID_00000113321931559825036150000004580084718812802472_);">
			<rect x="4.49" y="118" class="st3" width="995.5" height="3.37"/>
		</g>
		<g style="clip-path:url(#SVGID_00000113321931559825036150000004580084718812802472_);">
			<path class="st4" d="M925.42,67.68c0-6.43-3.8-10.45-11.32-11.18l-5.99-0.58c-3.36-0.29-3.94-1.9-3.94-3.29
				c0-1.9,1.61-3.66,5.41-3.66c3.29,0,6.65,0.58,8.84,2.56l5.84-5.92c-3.65-3.43-8.62-4.45-14.54-4.45
				c-7.74,0-14.68,4.23-14.68,12.12c0,7.01,4.24,10.01,11.1,10.67l5.99,0.58c3,0.3,4.02,1.61,4.02,3.51c0,2.85-3.43,3.94-6.72,3.94
				c-2.92,0-7.01-0.44-10.15-3.58l-6.21,6.2c4.82,4.82,10.23,5.47,16.22,5.47C918.26,80.09,925.42,76.08,925.42,67.68 M887.8,67.68
				c0-6.43-3.8-10.45-11.32-11.18l-5.99-0.58c-3.36-0.29-3.94-1.9-3.94-3.29c0-1.9,1.61-3.66,5.41-3.66c3.29,0,6.65,0.58,8.84,2.56
				l5.84-5.92c-3.65-3.43-8.62-4.45-14.54-4.45c-7.74,0-14.68,4.23-14.68,12.12c0,7.01,4.24,10.01,11.1,10.67l5.99,0.58
				c2.99,0.3,4.02,1.61,4.02,3.51c0,2.85-3.43,3.94-6.72,3.94c-2.92,0-7.01-0.44-10.15-3.58l-6.21,6.2
				c4.82,4.82,10.23,5.47,16.22,5.47C880.64,80.09,887.8,76.08,887.8,67.68 M847.04,79.65V41.6h-9.49v23.01
				c0,5.19-3.36,6.94-6.36,6.94c-2.99,0-6.28-1.75-6.28-6.94V41.6h-9.49v24.32c0,4.16,0.8,7.74,3.87,10.81
				c2.11,2.12,5.18,3.35,8.98,3.35c3.51,0,7.02-1.31,9.5-3.94v3.5H847.04z M806.79,79.65v-8.02h-3.65c-2.41,0-3.36-1.17-3.36-3.43
				V27.65h-9.49v41.13c0,5.4,3.29,10.87,11.1,10.87H806.79z M778.96,79.65V55.03c0-8.03-4.38-13.87-12.7-13.87
				c-3.36,0-6.58,1.31-9.14,3.94V27.65h-9.49v52h9.49V56.42c0-4.97,3.14-6.72,6.14-6.72c2.99,0,6.21,1.68,6.21,6.72v23.23H778.96z
				 M738.78,74.91l-6.43-6.35c-1.97,2.12-3.65,2.99-6.14,2.99c-2.26,0-4.02-0.8-5.41-2.48c-1.46-1.83-2.12-4.46-2.12-8.48
				s0.66-6.57,2.12-8.4c1.39-1.69,3.14-2.49,5.41-2.49c2.48,0,4.16,0.88,6.14,3l6.43-6.43c-3.36-3.5-7.3-5.11-12.56-5.11
				c-7.6,0-17.01,4.01-17.01,19.43s9.42,19.5,17.01,19.5C731.48,80.09,735.42,78.41,738.78,74.91 M701.68,67.68
				c0-6.43-3.8-10.45-11.32-11.18l-5.99-0.58c-3.36-0.29-3.94-1.9-3.94-3.29c0-1.9,1.61-3.66,5.41-3.66c3.29,0,6.65,0.58,8.84,2.56
				l5.84-5.92c-3.65-3.43-8.62-4.45-14.54-4.45c-7.74,0-14.68,4.23-14.68,12.12c0,7.01,4.24,10.01,11.1,10.67l5.99,0.58
				c2.99,0.3,4.02,1.61,4.02,3.51c0,2.85-3.43,3.94-6.72,3.94c-2.92,0-7.01-0.44-10.15-3.58l-6.21,6.2
				c4.82,4.82,10.23,5.47,16.22,5.47C694.52,80.09,701.68,76.08,701.68,67.68 M653.04,60.59c0,6.21-0.73,10.96-6.43,10.96
				s-6.43-4.75-6.43-10.96c0-6.21,0.73-10.89,6.43-10.89S653.04,54.38,653.04,60.59 M662.52,60.59c0-5.7-0.07-12.2-3.87-16
				c-2.12-2.11-5.55-3.43-9.28-3.43c-3.87,0-6.73,1.02-9.21,3.79V27.65h-9.48v52h9.19v-3.57c2.63,2.92,5.48,4.01,9.5,4.01
				c3.73,0,7.16-1.31,9.28-3.43C662.45,72.87,662.52,66.29,662.52,60.59 M609.5,65.63c0,2.34-0.37,3.87-1.39,4.83
				c-1.69,1.61-3.37,1.83-6,1.83c-3.73,0-5.48-1.75-5.48-4.39c0-2.7,1.9-4.32,5.34-4.32h7.53V65.63z M618.98,79.65V54.6
				c0-8.91-5.55-13.44-16.21-13.44c-6.36,0-10.01,1.17-13.73,5.25l6.06,5.92c1.97-2.26,3.65-3.15,7.31-3.15c5.04,0,7.09,1.83,7.09,6
				v1.9h-8.99c-8.84,0-13,4.96-13,11.02c0,3.37,1.09,6.43,3.14,8.55c2.26,2.26,5.4,3.35,9.72,3.35c4.38,0,6.79-1.09,9.36-3.65v3.28
				H618.98z M581.15,79.65v-8.02h-3.65c-2.41,0-3.36-1.17-3.36-3.43V27.65h-9.49v41.13c0,5.4,3.28,10.87,11.09,10.87H581.15z
				 M552.88,79.65V41.6h-9.49v23.01c0,5.19-3.37,6.94-6.36,6.94c-2.99,0-6.29-1.75-6.29-6.94V41.6h-9.49v24.32
				c0,4.16,0.8,7.74,3.87,10.81c2.12,2.12,5.18,3.35,8.98,3.35c3.51,0,7.01-1.31,9.5-3.94v3.5H552.88z M510,79.65V55.03
				c0-8.03-4.38-13.87-12.7-13.87c-3.36,0-6.57,1.31-9.14,3.94V27.65h-9.49v52h9.49V56.42c0-4.97,3.15-6.72,6.14-6.72
				c2.99,0,6.21,1.68,6.21,6.72v23.23H510z M469.82,74.91l-6.43-6.35c-1.97,2.12-3.65,2.99-6.14,2.99c-2.26,0-4.02-0.8-5.41-2.48
				c-1.46-1.83-2.12-4.46-2.12-8.48s0.66-6.57,2.12-8.4c1.39-1.69,3.14-2.49,5.41-2.49c2.48,0,4.16,0.88,6.14,3l6.43-6.43
				c-3.36-3.5-7.3-5.11-12.56-5.11c-7.6,0-17.01,4.01-17.01,19.43s9.41,19.5,17.01,19.5C462.52,80.09,466.46,78.41,469.82,74.91
				 M432.72,67.68c0-6.43-3.8-10.45-11.32-11.18l-5.99-0.58c-3.36-0.29-3.94-1.9-3.94-3.29c0-1.9,1.61-3.66,5.41-3.66
				c3.29,0,6.65,0.58,8.84,2.56l5.84-5.92c-3.65-3.43-8.62-4.45-14.54-4.45c-7.74,0-14.68,4.23-14.68,12.12
				c0,7.01,4.24,10.01,11.1,10.67l5.99,0.58c2.99,0.3,4.02,1.61,4.02,3.51c0,2.85-3.43,3.94-6.72,3.94c-2.92,0-7.01-0.44-10.15-3.58
				l-6.21,6.2c4.82,4.82,10.23,5.47,16.22,5.47C425.56,80.09,432.72,76.08,432.72,67.68 M395.02,79.65v-8.02h-3.66
				c-2.41,0-3.35-1.17-3.35-3.43V27.65h-9.49v41.13c0,5.4,3.29,10.87,11.09,10.87H395.02z M357.7,65.63c0,2.34-0.37,3.87-1.39,4.83
				c-1.68,1.61-3.36,1.83-6,1.83c-3.73,0-5.48-1.75-5.48-4.39c0-2.7,1.9-4.32,5.33-4.32h7.53V65.63z M367.19,79.65V54.6
				c0-8.91-5.55-13.44-16.22-13.44c-6.36,0-10.01,1.17-13.73,5.25l6.06,5.92c1.97-2.26,3.65-3.15,7.3-3.15c5.05,0,7.09,1.83,7.09,6
				v1.9h-8.99c-8.84,0-13,4.96-13,11.02c0,3.37,1.1,6.43,3.14,8.55c2.26,2.26,5.4,3.35,9.71,3.35c4.39,0,6.8-1.09,9.36-3.65v3.28
				H367.19z M318.84,57.09h-14.46c0.07-1.68,0.29-2.71,0.88-4.1c1.02-2.26,3.14-3.95,6.36-3.95s5.33,1.69,6.36,3.95
				C318.54,54.38,318.76,55.41,318.84,57.09 M328.19,63.58v-4.23c0-10.45-5.99-18.18-16.58-18.18c-9.86,0-16.58,7.01-16.58,19.43
				c0,15.41,8.61,19.5,17.6,19.5c6.87,0,10.59-2.11,14.46-5.98l-5.77-5.63c-2.41,2.42-4.46,3.58-8.62,3.58
				c-5.33,0-8.33-3.58-8.33-8.48H328.19z M292.32,44.74c-2.63-2.62-5.26-3.57-8.98-3.57c-4.09,0-7.74,1.9-9.57,4.09V41.6h-9.27
				v38.05h9.49V56.71c0-4.82,3.21-7.01,6.14-7.01c2.34,0,3.58,0.8,5.04,2.26L292.32,44.74z M256.82,79.65l-14.61-22.71L255.8,41.6
				h-11.47l-12.64,15.55V27.65h-9.49v52h9.49V68.33l4.02-4.53l9.35,15.85H256.82z M215.33,44.74c-2.63-2.62-5.26-3.57-8.98-3.57
				c-4.09,0-7.74,1.9-9.57,4.09V41.6h-9.27v38.05h9.49V56.71c0-4.82,3.21-7.01,6.14-7.01c2.34,0,3.58,0.8,5.04,2.26L215.33,44.74z
				 M167.92,57.09h-14.46c0.07-1.68,0.29-2.71,0.88-4.1c1.02-2.26,3.14-3.95,6.36-3.95c3.21,0,5.33,1.69,6.36,3.95
				C167.63,54.38,167.85,55.41,167.92,57.09 M177.27,63.58v-4.23c0-10.45-5.99-18.18-16.58-18.18c-9.86,0-16.57,7.01-16.57,19.43
				c0,15.41,8.61,19.5,17.59,19.5c6.87,0,10.59-2.11,14.46-5.98l-5.77-5.63c-2.41,2.42-4.46,3.58-8.62,3.58
				c-5.33,0-8.33-3.58-8.33-8.48H177.27z M141.7,27.65h-10.59L123,60.44l-9.5-32.79h-7.6l-9.5,32.79l-8.04-32.79H77.78l13.88,52
				h8.47l9.57-31.55l9.57,31.55h8.47L141.7,27.65z"/>
		</g>
		<g style="clip-path:url(#SVGID_00000113321931559825036150000004580084718812802472_);">
			<rect x="3.09" y="348.94" class="st3" width="992.7" height="3.37"/>
		</g>
		<g style="clip-path:url(#SVGID_00000113321931559825036150000004580084718812802472_);">
			<rect x="3.09" y="232.07" class="st3" width="992.7" height="3.37"/>
		</g>
		<g style="clip-path:url(#SVGID_00000113321931559825036150000004580084718812802472_);">
			<rect x="3.09" y="463.01" class="st3" width="992.7" height="3.37"/>
		</g>
		<g style="clip-path:url(#SVGID_00000113321931559825036150000004580084718812802472_);">
			<rect x="3.09" y="585.51" class="st3" width="992.7" height="3.37"/>
		</g>
		<g style="clip-path:url(#SVGID_00000113321931559825036150000004580084718812802472_);">
			<rect x="3.09" y="702.38" class="st3" width="992.7" height="3.37"/>
		</g>
		<g style="clip-path:url(#SVGID_00000113321931559825036150000004580084718812802472_);">
			<path class="st3" d="M725.4,658.85c0,4.8-0.69,9.02-5.61,9.02c-4.91,0-5.66-4.22-5.66-9.02c0-4.81,0.75-8.97,5.66-8.97
				C724.71,649.88,725.4,654.04,725.4,658.85 M730.84,672.41v-38h-5.44v13.66c-1.97-2.34-4.22-3.03-7.1-3.03
				c-2.73,0-5.07,0.9-6.56,2.4c-2.72,2.72-3.04,7.31-3.04,11.42c0,4.11,0.32,8.75,3.04,11.47c1.49,1.49,3.89,2.4,6.62,2.4
				c2.93,0,5.12-0.75,7.15-3.2v2.88H730.84z M696.84,656.67h-12.17c0.05-1.66,0.16-2.46,0.69-3.69c0.85-2.03,2.83-3.42,5.39-3.42
				s4.48,1.39,5.34,3.42C696.62,654.21,696.78,655.01,696.84,656.67 M702.23,660.45v-2.4c0-7.69-4.21-13.02-11.47-13.02
				c-6.94,0-11.47,5.06-11.47,13.82c0,10.31,5.38,13.88,12.16,13.88c4.75,0,7.37-1.44,10.14-4.21l-3.47-3.26
				c-1.92,1.92-3.52,2.78-6.57,2.78c-4.43,0-6.88-2.94-6.88-7.59H702.23z M677.35,647.59c-1.87-1.87-3.84-2.56-6.46-2.56
				c-3.05,0-5.82,1.33-7.21,3.25v-2.93h-5.33v27.06h5.44v-16.44c0-3.74,2.46-6.09,5.39-6.09c1.87,0,2.83,0.58,4.06,1.82
				L677.35,647.59z M650.93,672.41v-4.85h-13.56l13.56-17.89v-4.32H631.5v4.85h12.7l-13.45,17.89v4.32H650.93z M618.43,662.64
				c0,1.92-0.38,3.2-1.18,4.01c-1.44,1.39-2.99,1.55-5.07,1.55c-3.42,0-4.97-1.39-4.97-3.85c0-2.46,1.66-3.9,4.86-3.9h6.36V662.64z
				 M623.86,672.41v-18.09c0-6.14-3.73-9.28-11.15-9.28c-4.48,0-7.15,0.9-9.71,3.89l3.57,3.37c1.49-1.92,2.93-2.62,5.92-2.62
				c4.22,0,5.93,1.66,5.93,5.07v1.93h-7.16c-6.19,0-9.34,3.25-9.34,7.79c0,2.3,0.75,4.38,2.14,5.82c1.65,1.65,3.89,2.45,7.25,2.45
				s5.24-0.8,7.21-2.77v2.45H623.86z M599.52,647.59c-1.87-1.87-3.84-2.56-6.46-2.56c-3.05,0-5.82,1.33-7.21,3.25v-2.93h-5.33v27.06
				h5.43v-16.44c0-3.74,2.46-6.09,5.39-6.09c1.87,0,2.83,0.58,4.06,1.82L599.52,647.59z M558.15,665.9h-6.51v6.51h6.51V665.9z
				 M538.51,661.25c0,4.06-2.4,6.62-5.82,6.62c-3.42,0-5.77-2.57-5.77-6.62c0-4.11,2.35-6.57,5.77-6.57
				C536.33,654.69,538.51,657.52,538.51,661.25 M543.95,661.15c0-6.68-4.48-10.99-9.98-10.99c-1.17,0-2.35,0.16-3.37,0.58
				l8.18-16.33h-5.82l-8.65,17.62c-1.66,3.3-2.83,6.24-2.83,9.34c0,7.05,4.69,11.37,11.26,11.37
				C539.32,672.73,543.95,668.14,543.95,661.15 M504.78,630.46h-5.23l-15.22,45.9h5.23L504.78,630.46z M462.02,661.25
				c0,4.06-2.4,6.62-5.82,6.62c-3.42,0-5.77-2.57-5.77-6.62c0-4.11,2.35-6.57,5.77-6.57C459.83,654.69,462.02,657.52,462.02,661.25
				 M467.46,661.15c0-6.68-4.48-10.99-9.98-10.99c-1.17,0-2.35,0.16-3.37,0.58l8.18-16.33h-5.82l-8.65,17.62
				c-1.66,3.3-2.83,6.24-2.83,9.34c0,7.05,4.69,11.37,11.26,11.37C462.82,672.73,467.46,668.14,467.46,661.15 M419.85,656.67h-12.17
				c0.06-1.66,0.16-2.46,0.7-3.69c0.85-2.03,2.83-3.42,5.39-3.42s4.48,1.39,5.34,3.42C419.63,654.21,419.79,655.01,419.85,656.67
				 M425.24,660.45v-2.4c0-7.69-4.22-13.02-11.48-13.02c-6.94,0-11.47,5.06-11.47,13.82c0,10.31,5.38,13.88,12.17,13.88
				c4.75,0,7.37-1.44,10.14-4.21l-3.47-3.26c-1.92,1.92-3.52,2.78-6.56,2.78c-4.43,0-6.89-2.94-6.89-7.59H425.24z M396.52,664.14
				c0-4.8-2.99-7.21-8.06-7.64l-4.27-0.37c-2.88-0.27-3.74-1.49-3.74-3.1c0-2.03,1.65-3.47,4.91-3.47c2.56,0,4.96,0.53,6.67,1.98
				l3.42-3.47c-2.51-2.19-5.98-3.03-10.04-3.03c-5.66,0-10.19,2.98-10.19,8.27c0,4.75,2.93,7.05,8.01,7.48l4.32,0.37
				c2.62,0.21,3.63,1.39,3.63,3.2c0,2.57-2.61,3.74-5.92,3.74c-2.67,0-5.61-0.59-7.79-2.83l-3.58,3.57
				c3.2,3.15,6.94,3.89,11.37,3.89C391.72,672.73,396.52,669.8,396.52,664.14 M369.67,664.14c0-4.8-2.99-7.21-8.06-7.64l-4.27-0.37
				c-2.88-0.27-3.74-1.49-3.74-3.1c0-2.03,1.66-3.47,4.91-3.47c2.56,0,4.97,0.53,6.68,1.98l3.42-3.47
				c-2.51-2.19-5.98-3.03-10.04-3.03c-5.66,0-10.2,2.98-10.2,8.27c0,4.75,2.94,7.05,8.01,7.48l4.33,0.37
				c2.61,0.21,3.63,1.39,3.63,3.2c0,2.57-2.62,3.74-5.93,3.74c-2.67,0-5.6-0.59-7.79-2.83l-3.57,3.57c3.2,3.15,6.94,3.89,11.37,3.89
				C364.87,672.73,369.67,669.8,369.67,664.14 M335.3,662.64c0,1.92-0.37,3.2-1.17,4.01c-1.44,1.39-2.99,1.55-5.07,1.55
				c-3.42,0-4.97-1.39-4.97-3.85c0-2.46,1.66-3.9,4.86-3.9h6.36V662.64z M340.73,672.41v-18.09c0-6.14-3.73-9.28-11.15-9.28
				c-4.48,0-7.15,0.9-9.71,3.89l3.57,3.37c1.49-1.92,2.94-2.62,5.93-2.62c4.22,0,5.93,1.66,5.93,5.07v1.93h-7.15
				c-6.19,0-9.34,3.25-9.34,7.79c0,2.3,0.75,4.38,2.13,5.82c1.66,1.65,3.89,2.45,7.26,2.45s5.24-0.8,7.21-2.77v2.45H340.73z
				 M314.31,672.41v-4.64h-2.4c-2.19,0-2.93-1.07-2.93-3.15v-30.21h-5.44v30.53c0,4,2.24,7.47,7.41,7.47H314.31z M298.3,672.41
				l-13.62-23.11l12.33-14.89h-7.05l-15.54,19.11v-19.11h-5.75v38h5.75v-11.05l6.41-7.69l10.68,18.73H298.3z"/>
		</g>
		<g style="clip-path:url(#SVGID_00000113321931559825036150000004580084718812802472_);">
			<path class="st3" d="M725.4,536.36c0,4.8-0.69,9.02-5.61,9.02c-4.91,0-5.66-4.22-5.66-9.02c0-4.81,0.75-8.97,5.66-8.97
				C724.71,527.39,725.4,531.55,725.4,536.36 M730.84,549.91v-38h-5.44v13.66c-1.97-2.34-4.22-3.03-7.1-3.03
				c-2.73,0-5.07,0.9-6.56,2.4c-2.72,2.72-3.04,7.31-3.04,11.42c0,4.11,0.32,8.75,3.04,11.47c1.49,1.49,3.89,2.4,6.62,2.4
				c2.93,0,5.12-0.75,7.15-3.2v2.88H730.84z M696.84,534.17h-12.17c0.05-1.66,0.16-2.46,0.69-3.69c0.85-2.03,2.83-3.42,5.39-3.42
				s4.48,1.39,5.34,3.42C696.62,531.71,696.78,532.52,696.84,534.17 M702.23,537.95v-2.4c0-7.69-4.21-13.02-11.47-13.02
				c-6.94,0-11.47,5.06-11.47,13.82c0,10.3,5.38,13.87,12.16,13.87c4.75,0,7.37-1.44,10.14-4.21l-3.47-3.26
				c-1.92,1.92-3.52,2.78-6.57,2.78c-4.43,0-6.88-2.94-6.88-7.59H702.23z M677.35,525.09c-1.87-1.87-3.84-2.56-6.46-2.56
				c-3.05,0-5.82,1.33-7.21,3.25v-2.93h-5.33v27.06h5.44v-16.44c0-3.74,2.46-6.09,5.39-6.09c1.87,0,2.83,0.59,4.06,1.81
				L677.35,525.09z M650.93,549.91v-4.85h-13.56l13.56-17.89v-4.32H631.5v4.85h12.7l-13.45,17.89v4.32H650.93z M618.43,540.15
				c0,1.92-0.38,3.2-1.18,4.01c-1.44,1.39-2.99,1.55-5.07,1.55c-3.42,0-4.97-1.39-4.97-3.85c0-2.46,1.66-3.9,4.86-3.9h6.36V540.15z
				 M623.86,549.91v-18.09c0-6.14-3.73-9.28-11.15-9.28c-4.48,0-7.15,0.9-9.71,3.89l3.57,3.37c1.49-1.92,2.93-2.62,5.92-2.62
				c4.22,0,5.93,1.66,5.93,5.07v1.93h-7.16c-6.19,0-9.34,3.25-9.34,7.79c0,2.3,0.75,4.38,2.14,5.82c1.65,1.65,3.89,2.45,7.25,2.45
				s5.24-0.8,7.21-2.77v2.45H623.86z M599.52,525.09c-1.87-1.87-3.84-2.56-6.46-2.56c-3.05,0-5.82,1.33-7.21,3.25v-2.93h-5.33v27.06
				h5.43v-16.44c0-3.74,2.46-6.09,5.39-6.09c1.87,0,2.83,0.59,4.06,1.81L599.52,525.09z M558.15,543.41h-6.51v6.51h6.51V543.41z
				 M544.49,516.77v-4.85h-22.63v10.83h5.23v-5.98h11.58l-12.76,33.15h5.87L544.49,516.77z M504.78,507.96h-5.23l-15.22,45.9h5.23
				L504.78,507.96z M468,516.77v-4.85h-22.63v10.83h5.23v-5.98h11.58l-12.76,33.15h5.87L468,516.77z M419.85,534.17h-12.17
				c0.06-1.66,0.16-2.46,0.7-3.69c0.85-2.03,2.83-3.42,5.39-3.42s4.48,1.39,5.34,3.42C419.63,531.71,419.79,532.52,419.85,534.17
				 M425.24,537.95v-2.4c0-7.69-4.22-13.02-11.48-13.02c-6.94,0-11.47,5.06-11.47,13.82c0,10.3,5.38,13.87,12.17,13.87
				c4.75,0,7.37-1.44,10.14-4.21l-3.47-3.26c-1.92,1.92-3.52,2.78-6.56,2.78c-4.43,0-6.89-2.94-6.89-7.59H425.24z M396.52,541.64
				c0-4.8-2.99-7.21-8.06-7.64l-4.27-0.37c-2.88-0.27-3.74-1.49-3.74-3.1c0-2.03,1.65-3.47,4.91-3.47c2.56,0,4.96,0.53,6.67,1.98
				l3.42-3.47c-2.51-2.19-5.98-3.03-10.04-3.03c-5.66,0-10.19,2.98-10.19,8.27c0,4.75,2.93,7.05,8.01,7.48l4.32,0.37
				c2.62,0.21,3.63,1.39,3.63,3.2c0,2.57-2.61,3.74-5.92,3.74c-2.67,0-5.61-0.59-7.79-2.83l-3.58,3.58
				c3.2,3.14,6.94,3.89,11.37,3.89C391.72,550.23,396.52,547.3,396.52,541.64 M369.67,541.64c0-4.8-2.99-7.21-8.06-7.64l-4.27-0.37
				c-2.88-0.27-3.74-1.49-3.74-3.1c0-2.03,1.66-3.47,4.91-3.47c2.56,0,4.97,0.53,6.68,1.98l3.42-3.47
				c-2.51-2.19-5.98-3.03-10.04-3.03c-5.66,0-10.2,2.98-10.2,8.27c0,4.75,2.94,7.05,8.01,7.48l4.33,0.37
				c2.61,0.21,3.63,1.39,3.63,3.2c0,2.57-2.62,3.74-5.93,3.74c-2.67,0-5.6-0.59-7.79-2.83l-3.57,3.58c3.2,3.14,6.94,3.89,11.37,3.89
				C364.87,550.23,369.67,547.3,369.67,541.64 M335.3,540.15c0,1.92-0.37,3.2-1.17,4.01c-1.44,1.39-2.99,1.55-5.07,1.55
				c-3.42,0-4.97-1.39-4.97-3.85c0-2.46,1.66-3.9,4.86-3.9h6.36V540.15z M340.73,549.91v-18.09c0-6.14-3.73-9.28-11.15-9.28
				c-4.48,0-7.15,0.9-9.71,3.89l3.57,3.37c1.49-1.92,2.94-2.62,5.93-2.62c4.22,0,5.93,1.66,5.93,5.07v1.93h-7.15
				c-6.19,0-9.34,3.25-9.34,7.79c0,2.3,0.75,4.38,2.13,5.82c1.66,1.65,3.89,2.45,7.26,2.45s5.24-0.8,7.21-2.77v2.45H340.73z
				 M314.31,549.91v-4.64h-2.4c-2.19,0-2.93-1.07-2.93-3.15v-30.21h-5.44v30.53c0,4,2.24,7.47,7.41,7.47H314.31z M298.3,549.91
				l-13.62-23.11l12.33-14.89h-7.05l-15.54,19.11v-19.11h-5.75v38h5.75v-11.05l6.41-7.69l10.68,18.73H298.3z"/>
		</g>
		<g style="clip-path:url(#SVGID_00000113321931559825036150000004580084718812802472_);">
			<path class="st3" d="M725.4,419.48c0,4.8-0.69,9.02-5.61,9.02c-4.91,0-5.66-4.22-5.66-9.02c0-4.81,0.75-8.97,5.66-8.97
				C724.71,410.51,725.4,414.67,725.4,419.48 M730.84,433.04v-38h-5.44v13.66c-1.97-2.34-4.22-3.03-7.1-3.03
				c-2.73,0-5.07,0.9-6.56,2.4c-2.72,2.72-3.04,7.31-3.04,11.42c0,4.11,0.32,8.75,3.04,11.47c1.49,1.49,3.89,2.4,6.62,2.4
				c2.93,0,5.12-0.75,7.15-3.2v2.88H730.84z M696.84,417.3h-12.17c0.05-1.66,0.16-2.46,0.69-3.69c0.85-2.03,2.83-3.42,5.39-3.42
				s4.48,1.39,5.34,3.42C696.62,414.83,696.78,415.64,696.84,417.3 M702.23,421.08v-2.4c0-7.69-4.21-13.02-11.47-13.02
				c-6.94,0-11.47,5.06-11.47,13.82c0,10.3,5.38,13.87,12.16,13.87c4.75,0,7.37-1.44,10.14-4.21l-3.47-3.26
				c-1.92,1.92-3.52,2.78-6.57,2.78c-4.43,0-6.88-2.94-6.88-7.59H702.23z M677.35,408.22c-1.87-1.87-3.84-2.56-6.46-2.56
				c-3.05,0-5.82,1.33-7.21,3.25v-2.93h-5.33v27.06h5.44v-16.44c0-3.74,2.46-6.09,5.39-6.09c1.87,0,2.83,0.59,4.06,1.82
				L677.35,408.22z M650.93,433.04v-4.85h-13.56l13.56-17.89v-4.32H631.5v4.85h12.7l-13.45,17.89v4.32H650.93z M618.43,423.27
				c0,1.92-0.38,3.2-1.18,4.01c-1.44,1.39-2.99,1.55-5.07,1.55c-3.42,0-4.97-1.39-4.97-3.85s1.66-3.9,4.86-3.9h6.36V423.27z
				 M623.86,433.04v-18.09c0-6.14-3.73-9.28-11.15-9.28c-4.48,0-7.15,0.9-9.71,3.89l3.57,3.37c1.49-1.92,2.93-2.62,5.92-2.62
				c4.22,0,5.93,1.66,5.93,5.07v1.93h-7.16c-6.19,0-9.34,3.25-9.34,7.79c0,2.3,0.75,4.38,2.14,5.82c1.65,1.65,3.89,2.45,7.25,2.45
				s5.24-0.8,7.21-2.77v2.45H623.86z M599.52,408.22c-1.87-1.87-3.84-2.56-6.46-2.56c-3.05,0-5.82,1.33-7.21,3.25v-2.93h-5.33v27.06
				h5.43v-16.44c0-3.74,2.46-6.09,5.39-6.09c1.87,0,2.83,0.59,4.06,1.82L599.52,408.22z M558.15,426.53h-6.51v6.51h6.51V426.53z
				 M538.36,405.39c0,3.36-2.35,5.77-5.66,5.77c-3.31,0-5.61-2.4-5.61-5.77c0-3.32,2.3-5.82,5.61-5.82
				C536,399.57,538.36,402.07,538.36,405.39 M538.94,422.2c0,3.52-2.73,6.3-6.25,6.3c-3.52,0-6.25-2.78-6.25-6.3
				c0-3.52,2.73-6.36,6.25-6.36C536.22,415.85,538.94,418.68,538.94,422.2 M544.44,422.31c0-4.54-2.56-7.32-5.23-8.91
				c2.45-1.49,4.59-4.16,4.59-8.17c0-6.36-4.91-10.51-11.1-10.51c-6.19,0-11.05,4.16-11.05,10.51c0,4.01,2.14,6.68,4.59,8.17
				c-2.66,1.6-5.23,4.37-5.23,8.91c0,6.89,5.18,11.05,11.69,11.05C539.21,433.36,544.44,429.2,544.44,422.31 M504.78,391.08h-5.23
				l-15.22,45.9h5.23L504.78,391.08z M461.86,405.39c0,3.36-2.35,5.77-5.66,5.77c-3.31,0-5.61-2.4-5.61-5.77
				c0-3.32,2.3-5.82,5.61-5.82C459.51,399.57,461.86,402.07,461.86,405.39 M462.45,422.2c0,3.52-2.73,6.3-6.25,6.3
				c-3.52,0-6.25-2.78-6.25-6.3c0-3.52,2.73-6.36,6.25-6.36C459.72,415.85,462.45,418.68,462.45,422.2 M467.94,422.31
				c0-4.54-2.56-7.32-5.22-8.91c2.45-1.49,4.59-4.16,4.59-8.17c0-6.36-4.91-10.51-11.1-10.51c-6.19,0-11.05,4.16-11.05,10.51
				c0,4.01,2.14,6.68,4.59,8.17c-2.66,1.6-5.23,4.37-5.23,8.91c0,6.89,5.18,11.05,11.69,11.05
				C462.72,433.36,467.94,429.2,467.94,422.31 M419.85,417.3h-12.17c0.06-1.66,0.16-2.46,0.7-3.69c0.85-2.03,2.83-3.42,5.39-3.42
				s4.48,1.39,5.34,3.42C419.63,414.83,419.79,415.64,419.85,417.3 M425.24,421.08v-2.4c0-7.69-4.22-13.02-11.48-13.02
				c-6.94,0-11.47,5.06-11.47,13.82c0,10.3,5.38,13.87,12.17,13.87c4.75,0,7.37-1.44,10.14-4.21l-3.47-3.26
				c-1.92,1.92-3.52,2.78-6.56,2.78c-4.43,0-6.89-2.94-6.89-7.59H425.24z M396.52,424.76c0-4.8-2.99-7.21-8.06-7.64l-4.27-0.37
				c-2.88-0.27-3.74-1.49-3.74-3.1c0-2.03,1.65-3.47,4.91-3.47c2.56,0,4.96,0.53,6.67,1.98l3.42-3.47
				c-2.51-2.19-5.98-3.03-10.04-3.03c-5.66,0-10.19,2.98-10.19,8.27c0,4.75,2.93,7.05,8.01,7.48l4.32,0.37
				c2.62,0.21,3.63,1.39,3.63,3.2c0,2.57-2.61,3.74-5.92,3.74c-2.67,0-5.61-0.59-7.79-2.83l-3.58,3.58
				c3.2,3.14,6.94,3.89,11.37,3.89C391.72,433.36,396.52,430.42,396.52,424.76 M369.67,424.76c0-4.8-2.99-7.21-8.06-7.64l-4.27-0.37
				c-2.88-0.27-3.74-1.49-3.74-3.1c0-2.03,1.66-3.47,4.91-3.47c2.56,0,4.97,0.53,6.68,1.98l3.42-3.47
				c-2.51-2.19-5.98-3.03-10.04-3.03c-5.66,0-10.2,2.98-10.2,8.27c0,4.75,2.94,7.05,8.01,7.48l4.33,0.37
				c2.61,0.21,3.63,1.39,3.63,3.2c0,2.57-2.62,3.74-5.93,3.74c-2.67,0-5.6-0.59-7.79-2.83l-3.57,3.58c3.2,3.14,6.94,3.89,11.37,3.89
				C364.87,433.36,369.67,430.42,369.67,424.76 M335.3,423.27c0,1.92-0.37,3.2-1.17,4.01c-1.44,1.39-2.99,1.55-5.07,1.55
				c-3.42,0-4.97-1.39-4.97-3.85s1.66-3.9,4.86-3.9h6.36V423.27z M340.73,433.04v-18.09c0-6.14-3.73-9.28-11.15-9.28
				c-4.48,0-7.15,0.9-9.71,3.89l3.57,3.37c1.49-1.92,2.94-2.62,5.93-2.62c4.22,0,5.93,1.66,5.93,5.07v1.93h-7.15
				c-6.19,0-9.34,3.25-9.34,7.79c0,2.3,0.75,4.38,2.13,5.82c1.66,1.65,3.89,2.45,7.26,2.45s5.24-0.8,7.21-2.77v2.45H340.73z
				 M314.31,433.04v-4.64h-2.4c-2.19,0-2.93-1.07-2.93-3.15v-30.21h-5.44v30.53c0,4,2.24,7.47,7.41,7.47H314.31z M298.3,433.04
				l-13.62-23.11l12.33-14.89h-7.05l-15.54,19.11v-19.11h-5.75v38h5.75v-11.05l6.41-7.69l10.68,18.73H298.3z"/>
		</g>
		<g style="clip-path:url(#SVGID_00000113321931559825036150000004580084718812802472_);">
			<path class="st3" d="M725.4,302.6c0,4.8-0.69,9.02-5.61,9.02c-4.91,0-5.66-4.22-5.66-9.02c0-4.81,0.75-8.97,5.66-8.97
				C724.71,293.63,725.4,297.8,725.4,302.6 M730.84,316.16v-38h-5.44v13.66c-1.97-2.34-4.22-3.03-7.1-3.03
				c-2.73,0-5.07,0.9-6.56,2.4c-2.72,2.72-3.04,7.31-3.04,11.42c0,4.11,0.32,8.75,3.04,11.47c1.49,1.49,3.89,2.4,6.62,2.4
				c2.93,0,5.12-0.75,7.15-3.2v2.88H730.84z M696.84,300.42h-12.17c0.05-1.66,0.16-2.46,0.69-3.69c0.85-2.03,2.83-3.42,5.39-3.42
				s4.48,1.39,5.34,3.42C696.62,297.96,696.78,298.76,696.84,300.42 M702.23,304.2v-2.4c0-7.69-4.21-13.02-11.47-13.02
				c-6.94,0-11.47,5.06-11.47,13.82c0,10.3,5.38,13.87,12.16,13.87c4.75,0,7.37-1.44,10.14-4.21l-3.47-3.26
				c-1.92,1.92-3.52,2.78-6.57,2.78c-4.43,0-6.88-2.94-6.88-7.59H702.23z M677.35,291.34c-1.87-1.87-3.84-2.56-6.46-2.56
				c-3.05,0-5.82,1.33-7.21,3.25v-2.93h-5.33v27.06h5.44v-16.44c0-3.74,2.46-6.09,5.39-6.09c1.87,0,2.83,0.59,4.06,1.81
				L677.35,291.34z M650.93,316.16v-4.85h-13.56l13.56-17.89v-4.32H631.5v4.85h12.7l-13.45,17.89v4.32H650.93z M618.43,306.39
				c0,1.92-0.38,3.2-1.18,4.01c-1.44,1.39-2.99,1.55-5.07,1.55c-3.42,0-4.97-1.39-4.97-3.85c0-2.46,1.66-3.9,4.86-3.9h6.36V306.39z
				 M623.86,316.16v-18.09c0-6.14-3.73-9.28-11.15-9.28c-4.48,0-7.15,0.9-9.71,3.89l3.57,3.37c1.49-1.92,2.93-2.62,5.92-2.62
				c4.22,0,5.93,1.66,5.93,5.07v1.93h-7.16c-6.19,0-9.34,3.25-9.34,7.79c0,2.3,0.75,4.38,2.14,5.82c1.65,1.65,3.89,2.45,7.25,2.45
				s5.24-0.8,7.21-2.77v2.45H623.86z M599.52,291.34c-1.87-1.87-3.84-2.56-6.46-2.56c-3.05,0-5.82,1.33-7.21,3.25v-2.93h-5.33v27.06
				h5.43v-16.44c0-3.74,2.46-6.09,5.39-6.09c1.87,0,2.83,0.59,4.06,1.81L599.52,291.34z M558.15,309.65h-6.51v6.51h6.51V309.65z
				 M538.51,289.31c0,4.11-2.4,6.57-5.82,6.57c-3.63,0-5.77-2.83-5.77-6.57c0-4.06,2.35-6.62,5.77-6.62
				C536.12,282.69,538.51,285.25,538.51,289.31 M543.95,289.2c0-7.05-4.69-11.37-11.26-11.37c-6.57,0-11.2,4.59-11.2,11.58
				c0,6.68,4.42,11,9.92,11c1.17,0,2.4-0.16,3.42-0.59l-8.17,16.33h5.82l8.65-17.62C542.78,295.24,543.95,292.3,543.95,289.2
				 M504.78,274.21h-5.23l-15.22,45.9h5.23L504.78,274.21z M462.02,289.31c0,4.11-2.4,6.57-5.82,6.57c-3.63,0-5.77-2.83-5.77-6.57
				c0-4.06,2.35-6.62,5.77-6.62C459.62,282.69,462.02,285.25,462.02,289.31 M467.46,289.2c0-7.05-4.69-11.37-11.26-11.37
				s-11.2,4.59-11.2,11.58c0,6.68,4.42,11,9.92,11c1.17,0,2.4-0.16,3.42-0.59l-8.17,16.33h5.82l8.65-17.62
				C466.29,295.24,467.46,292.3,467.46,289.2 M419.85,300.42h-12.17c0.06-1.66,0.16-2.46,0.7-3.69c0.85-2.03,2.83-3.42,5.39-3.42
				s4.48,1.39,5.34,3.42C419.63,297.96,419.79,298.76,419.85,300.42 M425.24,304.2v-2.4c0-7.69-4.22-13.02-11.48-13.02
				c-6.94,0-11.47,5.06-11.47,13.82c0,10.3,5.38,13.87,12.17,13.87c4.75,0,7.37-1.44,10.14-4.21l-3.47-3.26
				c-1.92,1.92-3.52,2.78-6.56,2.78c-4.43,0-6.89-2.94-6.89-7.59H425.24z M396.52,307.89c0-4.8-2.99-7.21-8.06-7.64l-4.27-0.37
				c-2.88-0.27-3.74-1.49-3.74-3.1c0-2.03,1.65-3.47,4.91-3.47c2.56,0,4.96,0.53,6.67,1.98l3.42-3.47
				c-2.51-2.19-5.98-3.03-10.04-3.03c-5.66,0-10.19,2.98-10.19,8.27c0,4.75,2.93,7.05,8.01,7.48l4.32,0.37
				c2.62,0.21,3.63,1.39,3.63,3.2c0,2.57-2.61,3.74-5.92,3.74c-2.67,0-5.61-0.59-7.79-2.83l-3.58,3.58
				c3.2,3.14,6.94,3.89,11.37,3.89C391.72,316.48,396.52,313.55,396.52,307.89 M369.67,307.89c0-4.8-2.99-7.21-8.06-7.64l-4.27-0.37
				c-2.88-0.27-3.74-1.49-3.74-3.1c0-2.03,1.66-3.47,4.91-3.47c2.56,0,4.97,0.53,6.68,1.98l3.42-3.47
				c-2.51-2.19-5.98-3.03-10.04-3.03c-5.66,0-10.2,2.98-10.2,8.27c0,4.75,2.94,7.05,8.01,7.48l4.33,0.37
				c2.61,0.21,3.63,1.39,3.63,3.2c0,2.57-2.62,3.74-5.93,3.74c-2.67,0-5.6-0.59-7.79-2.83l-3.57,3.58c3.2,3.14,6.94,3.89,11.37,3.89
				C364.87,316.48,369.67,313.55,369.67,307.89 M335.3,306.39c0,1.92-0.37,3.2-1.17,4.01c-1.44,1.39-2.99,1.55-5.07,1.55
				c-3.42,0-4.97-1.39-4.97-3.85c0-2.46,1.66-3.9,4.86-3.9h6.36V306.39z M340.73,316.16v-18.09c0-6.14-3.73-9.28-11.15-9.28
				c-4.48,0-7.15,0.9-9.71,3.89l3.57,3.37c1.49-1.92,2.94-2.62,5.93-2.62c4.22,0,5.93,1.66,5.93,5.07v1.93h-7.15
				c-6.19,0-9.34,3.25-9.34,7.79c0,2.3,0.75,4.38,2.13,5.82c1.66,1.65,3.89,2.45,7.26,2.45s5.24-0.8,7.21-2.77v2.45H340.73z
				 M314.31,316.16v-4.64h-2.4c-2.19,0-2.93-1.07-2.93-3.15v-30.21h-5.44v30.53c0,4,2.24,7.47,7.41,7.47H314.31z M298.3,316.16
				l-13.62-23.11l12.33-14.89h-7.05l-15.54,19.11v-19.11h-5.75v38h5.75v-11.05l6.41-7.69l10.68,18.73H298.3z"/>
		</g>
		<g style="clip-path:url(#SVGID_00000113321931559825036150000004580084718812802472_);">
			<path class="st3" d="M754.39,185.73c0,4.8-0.69,9.02-5.61,9.02c-4.91,0-5.66-4.22-5.66-9.02c0-4.81,0.75-8.97,5.66-8.97
				C753.7,176.75,754.39,180.92,754.39,185.73 M759.83,199.28v-38h-5.44v13.66c-1.97-2.34-4.22-3.03-7.1-3.03
				c-2.73,0-5.07,0.9-6.56,2.4c-2.72,2.72-3.04,7.31-3.04,11.42c0,4.11,0.32,8.75,3.04,11.47c1.49,1.49,3.89,2.4,6.61,2.4
				c2.94,0,5.13-0.75,7.16-3.2v2.88H759.83z M725.82,183.54h-12.17c0.05-1.66,0.16-2.46,0.69-3.69c0.85-2.03,2.83-3.42,5.39-3.42
				s4.48,1.39,5.34,3.42C725.61,181.08,725.77,181.88,725.82,183.54 M731.21,187.32v-2.4c0-7.69-4.21-13.02-11.47-13.02
				c-6.94,0-11.47,5.06-11.47,13.82c0,10.3,5.39,13.87,12.17,13.87c4.75,0,7.37-1.44,10.14-4.21l-3.47-3.26
				c-1.92,1.92-3.52,2.78-6.57,2.78c-4.43,0-6.88-2.94-6.88-7.59H731.21z M706.34,174.46c-1.87-1.87-3.84-2.56-6.46-2.56
				c-3.05,0-5.82,1.33-7.21,3.25v-2.93h-5.33v27.06h5.44v-16.44c0-3.74,2.46-6.09,5.39-6.09c1.87,0,2.83,0.59,4.06,1.82
				L706.34,174.46z M679.92,199.28v-4.85h-13.56l13.56-17.89v-4.32h-19.43v4.85h12.7l-13.45,17.89v4.32H679.92z M647.41,189.52
				c0,1.92-0.37,3.2-1.17,4.01c-1.44,1.39-2.99,1.55-5.07,1.55c-3.42,0-4.97-1.39-4.97-3.85c0-2.46,1.66-3.9,4.86-3.9h6.36V189.52z
				 M652.85,199.28v-18.09c0-6.14-3.73-9.28-11.15-9.28c-4.48,0-7.15,0.9-9.71,3.89l3.57,3.37c1.49-1.92,2.94-2.62,5.93-2.62
				c4.22,0,5.93,1.66,5.93,5.07v1.93h-7.15c-6.19,0-9.34,3.25-9.34,7.79c0,2.3,0.75,4.38,2.13,5.82c1.66,1.65,3.89,2.45,7.26,2.45
				c3.37,0,5.24-0.8,7.21-2.77v2.45H652.85z M628.51,174.46c-1.87-1.87-3.84-2.56-6.46-2.56c-3.05,0-5.82,1.33-7.21,3.25v-2.93
				h-5.33v27.06h5.44v-16.44c0-3.74,2.46-6.09,5.39-6.09c1.87,0,2.83,0.59,4.06,1.82L628.51,174.46z M587.14,192.77h-6.51v6.51h6.51
				V192.77z M567.24,188.55c0,3.69-2.08,6.2-5.56,6.2c-3.47,0-5.5-2.51-5.5-6.2v-16.55c0-3.69,2.03-6.19,5.5-6.19
				c3.47,0,5.56,2.51,5.56,6.19V188.55z M572.67,188.72v-16.87c0-6.78-4.96-10.88-10.99-10.88s-10.94,4.11-10.94,10.88v16.87
				c0,6.78,4.91,10.88,10.94,10.88S572.67,195.5,572.67,188.72 M537.44,199.28v-38h-5.43l-7.42,6.41v6.03l7.42-6.51v32.07H537.44z
				 M504.78,157.33h-5.23l-15.21,45.9h5.23L504.78,157.33z M461.76,188.55c0,3.69-2.08,6.2-5.56,6.2c-3.47,0-5.5-2.51-5.5-6.2
				v-16.55c0-3.69,2.03-6.19,5.5-6.19c3.47,0,5.56,2.51,5.56,6.19V188.55z M467.2,188.72v-16.87c0-6.78-4.96-10.88-11-10.88
				c-6.03,0-10.93,4.11-10.93,10.88v16.87c0,6.78,4.9,10.88,10.93,10.88C462.23,199.6,467.2,195.5,467.2,188.72 M431.96,199.28v-38
				h-5.44l-7.42,6.41v6.03l7.42-6.51v32.07H431.96z M390.86,183.54h-12.17c0.06-1.66,0.16-2.46,0.7-3.69
				c0.85-2.03,2.83-3.42,5.39-3.42c2.56,0,4.48,1.39,5.34,3.42C390.65,181.08,390.81,181.88,390.86,183.54 M396.25,187.32v-2.4
				c0-7.69-4.22-13.02-11.48-13.02c-6.94,0-11.47,5.06-11.47,13.82c0,10.3,5.38,13.87,12.17,13.87c4.75,0,7.37-1.44,10.14-4.21
				l-3.47-3.26c-1.92,1.92-3.52,2.78-6.56,2.78c-4.43,0-6.89-2.94-6.89-7.59H396.25z M367.54,191.01c0-4.8-2.99-7.21-8.06-7.64
				l-4.27-0.37c-2.88-0.27-3.74-1.49-3.74-3.1c0-2.03,1.65-3.47,4.91-3.47c2.56,0,4.96,0.53,6.67,1.98l3.42-3.47
				c-2.51-2.19-5.98-3.03-10.04-3.03c-5.66,0-10.19,2.98-10.19,8.27c0,4.75,2.93,7.05,8.01,7.48l4.32,0.37
				c2.62,0.21,3.63,1.39,3.63,3.2c0,2.57-2.61,3.74-5.92,3.74c-2.67,0-5.61-0.59-7.79-2.83l-3.58,3.58
				c3.2,3.14,6.94,3.89,11.37,3.89C362.73,199.6,367.54,196.67,367.54,191.01 M340.69,191.01c0-4.8-2.99-7.21-8.06-7.64l-4.27-0.37
				c-2.88-0.27-3.74-1.49-3.74-3.1c0-2.03,1.66-3.47,4.91-3.47c2.56,0,4.97,0.53,6.68,1.98l3.42-3.47
				c-2.51-2.19-5.98-3.03-10.04-3.03c-5.66,0-10.2,2.98-10.2,8.27c0,4.75,2.94,7.05,8.01,7.48l4.33,0.37
				c2.61,0.21,3.63,1.39,3.63,3.2c0,2.57-2.62,3.74-5.93,3.74c-2.67,0-5.6-0.59-7.79-2.83l-3.57,3.58c3.2,3.14,6.94,3.89,11.37,3.89
				C335.88,199.6,340.69,196.67,340.69,191.01 M306.31,189.52c0,1.92-0.37,3.2-1.17,4.01c-1.44,1.39-2.99,1.55-5.07,1.55
				c-3.42,0-4.97-1.39-4.97-3.85c0-2.46,1.66-3.9,4.86-3.9h6.36V189.52z M311.75,199.28v-18.09c0-6.14-3.73-9.28-11.15-9.28
				c-4.48,0-7.15,0.9-9.71,3.89l3.57,3.37c1.49-1.92,2.94-2.62,5.93-2.62c4.22,0,5.93,1.66,5.93,5.07v1.93h-7.15
				c-6.19,0-9.34,3.25-9.34,7.79c0,2.3,0.75,4.38,2.13,5.82c1.66,1.65,3.89,2.45,7.26,2.45c3.37,0,5.24-0.8,7.21-2.77v2.45H311.75z
				 M285.33,199.28v-4.64h-2.4c-2.19,0-2.93-1.07-2.93-3.15v-30.21h-5.44v30.53c0,4,2.24,7.47,7.41,7.47H285.33z M269.31,199.28
				l-13.62-23.11l12.33-14.89h-7.05l-15.54,19.11v-19.11h-5.75v38h5.75v-11.05l6.41-7.69l10.68,18.73H269.31z"/>
		</g>
		<g style="clip-path:url(#SVGID_00000113321931559825036150000004580084718812802472_);">
			<path class="st3" d="M725.4,770.11c0,4.8-0.69,9.02-5.61,9.02c-4.91,0-5.66-4.22-5.66-9.02c0-4.81,0.75-8.97,5.66-8.97
				C724.71,761.14,725.4,765.3,725.4,770.11 M730.84,783.67v-38h-5.44v13.66c-1.97-2.34-4.22-3.03-7.1-3.03
				c-2.73,0-5.07,0.9-6.56,2.4c-2.72,2.72-3.04,7.31-3.04,11.42c0,4.11,0.32,8.75,3.04,11.47c1.49,1.49,3.89,2.4,6.62,2.4
				c2.93,0,5.12-0.75,7.15-3.2v2.88H730.84z M696.84,767.93h-12.17c0.05-1.66,0.16-2.46,0.69-3.69c0.85-2.03,2.83-3.42,5.39-3.42
				s4.48,1.39,5.34,3.42C696.62,765.47,696.78,766.27,696.84,767.93 M702.23,771.71v-2.4c0-7.69-4.21-13.02-11.47-13.02
				c-6.94,0-11.47,5.06-11.47,13.82c0,10.31,5.38,13.88,12.16,13.88c4.75,0,7.37-1.44,10.14-4.21l-3.47-3.26
				c-1.92,1.92-3.52,2.78-6.57,2.78c-4.43,0-6.88-2.94-6.88-7.59H702.23z M677.35,758.85c-1.87-1.87-3.84-2.56-6.46-2.56
				c-3.05,0-5.82,1.33-7.21,3.25v-2.93h-5.33v27.06h5.44v-16.44c0-3.74,2.46-6.09,5.39-6.09c1.87,0,2.83,0.58,4.06,1.81
				L677.35,758.85z M650.93,783.67v-4.85h-13.56l13.56-17.89v-4.32H631.5v4.85h12.7l-13.45,17.89v4.32H650.93z M618.43,773.9
				c0,1.92-0.38,3.2-1.18,4.01c-1.44,1.39-2.99,1.55-5.07,1.55c-3.42,0-4.97-1.39-4.97-3.85c0-2.46,1.66-3.9,4.86-3.9h6.36V773.9z
				 M623.86,783.67v-18.09c0-6.14-3.73-9.28-11.15-9.28c-4.48,0-7.15,0.9-9.71,3.89l3.57,3.37c1.49-1.92,2.93-2.62,5.92-2.62
				c4.22,0,5.93,1.66,5.93,5.07v1.93h-7.16c-6.19,0-9.34,3.25-9.34,7.79c0,2.3,0.75,4.38,2.14,5.82c1.65,1.65,3.89,2.45,7.25,2.45
				s5.24-0.8,7.21-2.77v2.45H623.86z M599.52,758.85c-1.87-1.87-3.84-2.56-6.46-2.56c-3.05,0-5.82,1.33-7.21,3.25v-2.93h-5.33v27.06
				h5.43v-16.44c0-3.74,2.46-6.09,5.39-6.09c1.87,0,2.83,0.58,4.06,1.81L599.52,758.85z M558.15,777.16h-6.51v6.51h6.51V777.16z
				 M544.06,770.97c0-3.58-0.43-7.27-3.3-10.14c-1.55-1.55-3.84-2.46-6.83-2.46c-2.78,0-5.02,0.85-6.3,2.19v-10.04h15.59v-4.85
				h-20.49v20.76h4.96c0.58-1.87,2.29-3.42,5.39-3.42c4.38,0,5.55,3.42,5.55,7.96c0,2.56-0.21,5.07-1.82,6.68
				c-0.96,0.96-2.35,1.49-3.95,1.49c-3.42,0-5.13-1.92-5.56-5.29h-5.44c0.21,2.72,0.85,5.23,2.88,7.26
				c1.65,1.65,4.48,2.93,8.11,2.93c3.69,0,6.3-1.28,8.01-2.98C543.63,778.28,544.06,775.02,544.06,770.97 M504.78,741.71h-5.23
				l-15.22,45.9h5.23L504.78,741.71z M467.57,770.97c0-3.58-0.43-7.27-3.3-10.14c-1.55-1.55-3.84-2.46-6.83-2.46
				c-2.78,0-5.02,0.85-6.3,2.19v-10.04h15.59v-4.85h-20.49v20.76h4.96c0.59-1.87,2.3-3.42,5.4-3.42c4.38,0,5.55,3.42,5.55,7.96
				c0,2.56-0.21,5.07-1.81,6.68c-0.96,0.96-2.35,1.49-3.95,1.49c-3.42,0-5.13-1.92-5.56-5.29h-5.44c0.21,2.72,0.85,5.23,2.88,7.26
				c1.65,1.65,4.48,2.93,8.11,2.93c3.68,0,6.3-1.28,8.01-2.98C467.14,778.28,467.57,775.02,467.57,770.97 M419.85,767.93h-12.17
				c0.06-1.66,0.16-2.46,0.7-3.69c0.85-2.03,2.83-3.42,5.39-3.42s4.48,1.39,5.34,3.42C419.63,765.47,419.79,766.27,419.85,767.93
				 M425.24,771.71v-2.4c0-7.69-4.22-13.02-11.48-13.02c-6.94,0-11.47,5.06-11.47,13.82c0,10.31,5.38,13.88,12.17,13.88
				c4.75,0,7.37-1.44,10.14-4.21l-3.47-3.26c-1.92,1.92-3.52,2.78-6.56,2.78c-4.43,0-6.89-2.94-6.89-7.59H425.24z M396.52,775.39
				c0-4.8-2.99-7.21-8.06-7.64l-4.27-0.37c-2.88-0.27-3.74-1.49-3.74-3.1c0-2.03,1.65-3.47,4.91-3.47c2.56,0,4.96,0.53,6.67,1.98
				l3.42-3.47c-2.51-2.19-5.98-3.03-10.04-3.03c-5.66,0-10.19,2.98-10.19,8.27c0,4.75,2.93,7.05,8.01,7.48l4.32,0.37
				c2.62,0.21,3.63,1.39,3.63,3.2c0,2.57-2.61,3.74-5.92,3.74c-2.67,0-5.61-0.59-7.79-2.83l-3.58,3.57
				c3.2,3.15,6.94,3.89,11.37,3.89C391.72,783.99,396.52,781.05,396.52,775.39 M369.67,775.39c0-4.8-2.99-7.21-8.06-7.64l-4.27-0.37
				c-2.88-0.27-3.74-1.49-3.74-3.1c0-2.03,1.66-3.47,4.91-3.47c2.56,0,4.97,0.53,6.68,1.98l3.42-3.47
				c-2.51-2.19-5.98-3.03-10.04-3.03c-5.66,0-10.2,2.98-10.2,8.27c0,4.75,2.94,7.05,8.01,7.48l4.33,0.37
				c2.61,0.21,3.63,1.39,3.63,3.2c0,2.57-2.62,3.74-5.93,3.74c-2.67,0-5.6-0.59-7.79-2.83l-3.57,3.57c3.2,3.15,6.94,3.89,11.37,3.89
				C364.87,783.99,369.67,781.05,369.67,775.39 M335.3,773.9c0,1.92-0.37,3.2-1.17,4.01c-1.44,1.39-2.99,1.55-5.07,1.55
				c-3.42,0-4.97-1.39-4.97-3.85c0-2.46,1.66-3.9,4.86-3.9h6.36V773.9z M340.73,783.67v-18.09c0-6.14-3.73-9.28-11.15-9.28
				c-4.48,0-7.15,0.9-9.71,3.89l3.57,3.37c1.49-1.92,2.94-2.62,5.93-2.62c4.22,0,5.93,1.66,5.93,5.07v1.93h-7.15
				c-6.19,0-9.34,3.25-9.34,7.79c0,2.3,0.75,4.38,2.13,5.82c1.66,1.65,3.89,2.45,7.26,2.45s5.24-0.8,7.21-2.77v2.45H340.73z
				 M314.31,783.67v-4.64h-2.4c-2.19,0-2.93-1.07-2.93-3.15v-30.21h-5.44v30.53c0,4,2.24,7.47,7.41,7.47H314.31z M298.3,783.67
				l-13.62-23.11l12.33-14.89h-7.05l-15.54,19.11v-19.11h-5.75v38h5.75v-11.05l6.41-7.69l10.68,18.73H298.3z"/>
		</g>
	</g>
	<g>
		<polygon class="st4" points="20.73,755.85 36.8,755.85 28.77,745.23 		"/>
	</g>
	<g>
		<polygon class="st4" points="20.73,776.99 36.8,776.99 28.77,766.36 		"/>
	</g>
	<g>
		<polygon class="st4" points="20.73,798.12 36.8,798.12 28.77,787.5 		"/>
	</g>
	<g>
		<polygon class="st4" points="20.73,734.72 36.8,734.72 28.77,724.09 		"/>
	</g>
	<g>
		<polygon class="st4" points="20.73,640.38 36.8,640.38 28.77,629.75 		"/>
	</g>
	<g>
		<polygon class="st4" points="20.73,661.51 36.8,661.51 28.77,650.89 		"/>
	</g>
	<g>
		<polygon class="st4" points="20.73,682.65 36.8,682.65 28.77,672.02 		"/>
	</g>
	<g>
		<polygon class="st4" points="20.73,619.24 36.8,619.24 28.77,608.62 		"/>
	</g>
	<g>
		<polygon class="st4" points="20.73,520.69 36.8,520.69 28.77,510.07 		"/>
	</g>
	<g>
		<polygon class="st4" points="20.73,541.83 36.8,541.83 28.77,531.2 		"/>
	</g>
	<g>
		<polygon class="st4" points="20.73,562.96 36.8,562.96 28.77,552.34 		"/>
	</g>
	<g>
		<polygon class="st4" points="20.73,499.56 36.8,499.56 28.77,488.93 		"/>
	</g>
	<g>
		<polygon class="st4" points="20.73,402.41 36.8,402.41 28.77,391.78 		"/>
	</g>
	<g>
		<polygon class="st4" points="20.73,423.54 36.8,423.54 28.77,412.92 		"/>
	</g>
	<g>
		<polygon class="st4" points="20.73,444.68 36.8,444.68 28.77,434.05 		"/>
	</g>
	<g>
		<polygon class="st4" points="20.73,381.27 36.8,381.27 28.77,370.65 		"/>
	</g>
	<g>
		<polygon class="st4" points="20.73,286.94 36.8,286.94 28.77,276.31 		"/>
	</g>
	<g>
		<polygon class="st4" points="20.73,308.07 36.8,308.07 28.77,297.45 		"/>
	</g>
	<g>
		<polygon class="st4" points="20.73,329.21 36.8,329.21 28.77,318.58 		"/>
	</g>
	<g>
		<polygon class="st4" points="20.73,265.8 36.8,265.8 28.77,255.18 		"/>
	</g>
	<g>
		<polygon class="st4" points="20.73,170.06 36.8,170.06 28.77,159.44 		"/>
	</g>
	<g>
		<polygon class="st4" points="20.73,191.2 36.8,191.2 28.77,180.57 		"/>
	</g>
	<g>
		<polygon class="st4" points="20.73,212.33 36.8,212.33 28.77,201.71 		"/>
	</g>
	<g>
		<polygon class="st4" points="20.73,148.93 36.8,148.93 28.77,138.3 		"/>
	</g>
</g>
</svg>
