<?xml version="1.0" encoding="utf-8"?>
<!-- Generator: Adobe Illustrator 26.2.1, SVG Export Plug-In . SVG Version: 6.00 Build 0)  -->
<svg version="1.1" id="Ebene_1" xmlns="http://www.w3.org/2000/svg" xmlns:xlink="http://www.w3.org/1999/xlink" x="0px" y="0px"
	 viewBox="0 0 1000 825.44" style="enable-background:new 0 0 1000 825.44;" xml:space="preserve">
<style type="text/css">
	.st0{fill:#A2B9E1;}
	.st1{fill:#6796CF;}
	.st2{clip-path:url(#SVGID_00000039835464456781031450000017726095189223313819_);}
	.st3{fill:#2B2961;}
	.st4{fill:#FFFFFF;}
	.st5{clip-path:url(#SVGID_00000017487637037769501650000006421599892277453218_);}
	.st6{clip-path:url(#SVGID_00000183929038403365822610000004287408708877656760_);}
	.st7{clip-path:url(#SVGID_00000063593027455848536120000003061265550960535948_);}
	.st8{clip-path:url(#SVGID_00000036950160899589210250000016827880268698925714_);}
	.st9{clip-path:url(#SVGID_00000168796605487317600870000012542759966998577298_);}
	.st10{opacity:0.52;clip-path:url(#SVGID_00000027575138439169999630000015618238924197998004_);}
	.st11{clip-path:url(#SVGID_00000100375214732623954490000012456690127017099179_);}
	.st12{clip-path:url(#SVGID_00000042733240259256641960000007469619648199357856_);}
	.st13{clip-path:url(#SVGID_00000176741127699791520070000002770051130326534329_);}
	.st14{clip-path:url(#SVGID_00000001656515877122478100000008494179924332998846_);}
	.st15{clip-path:url(#SVGID_00000106132478303196651080000006418078688994561212_);}
	.st16{clip-path:url(#SVGID_00000168839396487883138880000014605962162283870110_);}
	.st17{clip-path:url(#SVGID_00000103984570069199415200000012117903128693362346_);}
	.st18{clip-path:url(#SVGID_00000124121450791525824880000002091621987832797326_);}
	.st19{clip-path:url(#SVGID_00000028284462753642915340000001769036899356542080_);}
	.st20{clip-path:url(#SVGID_00000134229686058082125360000018213416137780061358_);}
	.st21{clip-path:url(#SVGID_00000083770485005043847570000008605701485815234715_);}
	.st22{clip-path:url(#SVGID_00000179630514500870545260000013590365249242069933_);}
	.st23{fill:none;stroke:#2B2961;stroke-width:0.374;stroke-linejoin:round;stroke-miterlimit:10;}
	.st24{fill:none;stroke:#2B2961;stroke-width:0.4;stroke-miterlimit:10;}
	.st25{clip-path:url(#SVGID_00000013186329972246467640000013109284886183436932_);}
	.st26{clip-path:url(#SVGID_00000152229819903961905560000001771073905668786610_);}
	.st27{clip-path:url(#SVGID_00000054981887289260242860000007548797325852499886_);}
	.st28{clip-path:url(#SVGID_00000134951182948941504570000014011810362832977047_);}
	.st29{clip-path:url(#SVGID_00000025422289612635169330000015237716635844257160_);}
	.st30{clip-path:url(#SVGID_00000082332272258045053710000003237442370563632534_);}
	.st31{clip-path:url(#SVGID_00000104663867686556591570000004993904963542161074_);}
	.st32{clip-path:url(#SVGID_00000060749594500959304220000004335927412372745385_);}
	.st33{clip-path:url(#SVGID_00000152225272349744835480000008982992326274921395_);}
	.st34{clip-path:url(#SVGID_00000086662970104661887700000014016593418083713429_);}
	.st35{clip-path:url(#SVGID_00000044164715638259043620000008755934995732989857_);}
	.st36{clip-path:url(#SVGID_00000150795062592739592210000005650146043181402250_);}
	.st37{clip-path:url(#SVGID_00000060723328131171990630000003020453715093927591_);}
	.st38{clip-path:url(#SVGID_00000008119836605171197000000005370553785849025667_);}
	.st39{clip-path:url(#SVGID_00000016060540009388890600000013509990050525860027_);}
	.st40{clip-path:url(#SVGID_00000155145927612268141120000008949559096298945930_);}
	.st41{clip-path:url(#SVGID_00000002370103514742497670000005229140609092896177_);}
	.st42{clip-path:url(#SVGID_00000155122296219040056020000007841173410989447302_);}
	.st43{clip-path:url(#SVGID_00000127749496030247036850000009371701038158117276_);}
	.st44{clip-path:url(#SVGID_00000162318271734412278090000002404181487365015691_);}
	.st45{clip-path:url(#SVGID_00000142157713159577265390000005756287789451180441_);}
	.st46{clip-path:url(#SVGID_00000096034880843830083220000005775418448621503910_);}
	.st47{clip-path:url(#SVGID_00000023998896565320467110000017046677983796634260_);}
	.st48{clip-path:url(#SVGID_00000027572070930251378780000007418858949730728348_);}
	.st49{clip-path:url(#SVGID_00000009574002490024649440000002637491568202657963_);}
	.st50{clip-path:url(#SVGID_00000113322795403168475560000003823457455212152480_);}
	.st51{clip-path:url(#SVGID_00000080913088295555006800000007508884399203951235_);}
	.st52{clip-path:url(#SVGID_00000038400213302539412220000003495484066664835007_);}
	.st53{clip-path:url(#SVGID_00000109741973667323303340000015108825302908635832_);}
	.st54{clip-path:url(#SVGID_00000138558149368187899060000010638421704009264261_);}
	.st55{clip-path:url(#SVGID_00000067927389661336812980000004035001580495330739_);}
	.st56{clip-path:url(#SVGID_00000104668620763840445960000012643040235205493167_);}
	.st57{clip-path:url(#SVGID_00000072262890079911066820000015102231246598444933_);}
	.st58{clip-path:url(#SVGID_00000048473579014019977030000009150311367468602810_);}
	.st59{clip-path:url(#SVGID_00000175282529272950791070000001766199141181174443_);}
	.st60{clip-path:url(#SVGID_00000164504517655752143910000010647931388289993120_);}
	.st61{clip-path:url(#SVGID_00000066478901332014064220000011919479602418920626_);}
	.st62{fill:#9AB4DE;}
	.st63{clip-path:url(#SVGID_00000060747175364174991950000016432866507924996799_);}
	.st64{clip-path:url(#SVGID_00000094605129523981237070000006624877706025203098_);}
	.st65{clip-path:url(#SVGID_00000128450361915843852010000014730541622272588216_);}
	.st66{fill:#B9C9E9;}
	.st67{clip-path:url(#SVGID_00000181056210753064026040000015012101639048785343_);}
	.st68{clip-path:url(#SVGID_00000048483106543995616880000007271898816619567767_);}
	.st69{clip-path:url(#SVGID_00000123430965905687860400000016554631024247371446_);}
	.st70{clip-path:url(#SVGID_00000144332435939175687180000017168664186493265081_);}
	.st71{clip-path:url(#SVGID_00000127035078227843205050000006554168939961114554_);}
	.st72{clip-path:url(#SVGID_00000030467151313279607350000008301283901536317114_);}
	.st73{clip-path:url(#SVGID_00000122703682551967087410000001422885512521094546_);}
	.st74{clip-path:url(#SVGID_00000109731843256585323290000002830371498476464555_);}
	.st75{clip-path:url(#SVGID_00000078728076298980218430000017510434728274687113_);}
	.st76{clip-path:url(#SVGID_00000110448037079389669490000006478836357213402800_);}
	.st77{clip-path:url(#SVGID_00000147200002718748536630000013722679206801993881_);}
	.st78{clip-path:url(#SVGID_00000026130331610595530430000009098431655187669420_);}
	.st79{clip-path:url(#SVGID_00000136393191719705579230000015236357409151033252_);}
	.st80{clip-path:url(#SVGID_00000094606352798811508830000008156794609968878981_);}
	.st81{clip-path:url(#SVGID_00000162353259557888099240000015245771385831793847_);}
	.st82{clip-path:url(#SVGID_00000031904511933620225160000009772879510178676111_);}
	.st83{clip-path:url(#SVGID_00000111910626114644459110000013358453925383689144_);}
	.st84{clip-path:url(#SVGID_00000175319856910284928650000013318459162421899954_);}
	.st85{clip-path:url(#SVGID_00000174591945657777509370000013831857771029650594_);}
	.st86{clip-path:url(#SVGID_00000150805494456649085380000010874010342212892825_);}
	.st87{clip-path:url(#SVGID_00000080923064638929335180000001123171805143874955_);}
	.st88{clip-path:url(#SVGID_00000181778074334990419770000002074155479418150587_);}
	.st89{clip-path:url(#SVGID_00000024684879567308536690000000143548621965712291_);}
	.st90{clip-path:url(#SVGID_00000178890923865881310700000003506580058727147185_);}
	.st91{clip-path:url(#SVGID_00000121998312804716246430000015744756723378480057_);}
	.st92{clip-path:url(#SVGID_00000068641119580699783960000015070679632848581045_);}
	.st93{clip-path:url(#SVGID_00000092456719936726187680000016057428609498521264_);}
	.st94{clip-path:url(#SVGID_00000118389085765730703070000001257087508683730854_);}
	.st95{clip-path:url(#SVGID_00000070818210380282749910000011721271920978144415_);}
	.st96{clip-path:url(#SVGID_00000031196441456703867570000005877808265010522251_);}
	.st97{clip-path:url(#SVGID_00000149367853925525727270000011241982801885849741_);}
	.st98{clip-path:url(#SVGID_00000143588448755788060110000010153585818219770542_);}
	.st99{clip-path:url(#SVGID_00000005949537323760970370000006731705800623022734_);}
	.st100{clip-path:url(#SVGID_00000162320657042863668320000017643577545086630561_);}
	.st101{clip-path:url(#SVGID_00000097476686208793345930000016503037988422791332_);}
	.st102{clip-path:url(#SVGID_00000067918346126755221250000000694184768086547876_);}
	.st103{clip-path:url(#SVGID_00000048490565198925793910000013212326774553090955_);}
	.st104{clip-path:url(#SVGID_00000041998951492374745550000015690051507232649654_);}
	.st105{clip-path:url(#SVGID_00000034791810873876195230000011501446334851965629_);}
	.st106{clip-path:url(#SVGID_00000099641025576956565960000008428557979437466797_);}
	.st107{clip-path:url(#SVGID_00000026875148250282286530000004009969431449082762_);}
	.st108{clip-path:url(#SVGID_00000094590557618150601910000001820803420683777166_);}
	.st109{clip-path:url(#SVGID_00000098217622002449993560000009188678952518082470_);}
	.st110{clip-path:url(#SVGID_00000087373526644740257130000012401390711544889755_);}
	.st111{clip-path:url(#SVGID_00000171698506017369053320000013203238249526181771_);}
	.st112{clip-path:url(#SVGID_00000078003180509872362230000015051264119219605693_);}
	.st113{clip-path:url(#SVGID_00000104691843411638425240000001918394317702641317_);}
	.st114{clip-path:url(#SVGID_00000074428058710507387490000016865049383143212184_);}
	.st115{clip-path:url(#SVGID_00000111167719084434050630000013817512106923316892_);}
	.st116{clip-path:url(#SVGID_00000062908775500692041630000005964801333845878415_);}
	.st117{clip-path:url(#SVGID_00000062879016999964187680000014182545167822299576_);}
	.st118{clip-path:url(#SVGID_00000129202001142213694770000004787854917081741186_);}
	.st119{clip-path:url(#SVGID_00000074433731572481010890000010027183269214031529_);}
	.st120{clip-path:url(#SVGID_00000149357330021701483320000008621339424307900591_);}
	.st121{clip-path:url(#SVGID_00000103968846983502323410000002307671251971295667_);}
	.st122{clip-path:url(#SVGID_00000101792001022787474160000002702553511902406570_);}
	.st123{clip-path:url(#SVGID_00000099635133073425536580000014045481701651280777_);}
	.st124{clip-path:url(#SVGID_00000132051272723824870550000013428735123231519635_);}
	.st125{clip-path:url(#SVGID_00000162312675015684225040000001811891770149613983_);}
	.st126{clip-path:url(#SVGID_00000117649978990708632430000012031737128693940375_);}
	.st127{clip-path:url(#SVGID_00000070104258837312139380000001381020403153994165_);}
	.st128{clip-path:url(#SVGID_00000075156556239404832840000013728928687541643650_);}
	.st129{clip-path:url(#SVGID_00000152250037475916037720000000985477670565139620_);}
	.st130{clip-path:url(#SVGID_00000145039348953998610410000017845894127575039655_);}
	.st131{clip-path:url(#SVGID_00000120546876965244633310000009668924640874592693_);}
	.st132{clip-path:url(#SVGID_00000127740894801390917130000011233292826512232854_);}
	.st133{clip-path:url(#SVGID_00000147206409105850147980000013587805429376521401_);}
	.st134{clip-path:url(#SVGID_00000110453241756355622780000005795123714587714455_);}
	.st135{clip-path:url(#SVGID_00000054263180750827715260000000650912031840331709_);}
	.st136{clip-path:url(#SVGID_00000180362835881294272800000002449383277991026063_);}
	.st137{clip-path:url(#SVGID_00000044876246104583511460000009250839420959410101_);}
	.st138{clip-path:url(#SVGID_00000124131143523940097480000001605171826044709011_);}
	.st139{clip-path:url(#SVGID_00000145030775002652284190000015457427451589885869_);}
	.st140{clip-path:url(#SVGID_00000046332250519740131250000013200125707287297706_);}
	.st141{clip-path:url(#SVGID_00000021107144705516568460000004228761229360021124_);}
	.st142{clip-path:url(#SVGID_00000103254216775622434540000004912500800739794069_);}
	.st143{clip-path:url(#SVGID_00000020376235411082448410000017618252776758495109_);}
	.st144{clip-path:url(#SVGID_00000039832058572188741470000016621701414948541347_);}
	.st145{clip-path:url(#SVGID_00000142171918444769894610000004806111383640400527_);}
	.st146{clip-path:url(#SVGID_00000090989667302917276390000014725837256803327121_);}
	.st147{clip-path:url(#SVGID_00000012439280029474989940000015646599732838581935_);}
	.st148{clip-path:url(#SVGID_00000019658127393631297730000008950168105784622754_);}
	.st149{clip-path:url(#SVGID_00000034091281320043077370000000983448623774883756_);}
	.st150{clip-path:url(#SVGID_00000062894843376624591610000018197766511282609555_);}
	.st151{clip-path:url(#SVGID_00000040562632864373088680000011710515405976641196_);}
	.st152{clip-path:url(#SVGID_00000153677805497889093370000017201535631991061929_);}
	.st153{clip-path:url(#SVGID_00000088842185705862667940000016035254126862593170_);}
	.st154{clip-path:url(#SVGID_00000168076177995187794940000004021607288824703895_);}
	.st155{clip-path:url(#SVGID_00000173869369993599957690000014204419501608753843_);}
	.st156{clip-path:url(#SVGID_00000100380996416629438820000006487068816361022367_);}
	.st157{clip-path:url(#SVGID_00000025418321765937012040000010435179232975906436_);}
	.st158{clip-path:url(#SVGID_00000165199735303555519380000015982593261620718997_);}
	.st159{clip-path:url(#SVGID_00000161602572321897301740000002147909048542514866_);}
	.st160{clip-path:url(#SVGID_00000005233633593610996750000004963980032327165118_);}
	.st161{clip-path:url(#SVGID_00000031175271413866739130000006043031231722381197_);}
	.st162{clip-path:url(#SVGID_00000055671989218496569670000014123581488349344905_);}
	.st163{clip-path:url(#SVGID_00000078037896577377425640000011769990346282898305_);}
	.st164{clip-path:url(#SVGID_00000078738311639951508500000017031815119321117087_);}
	.st165{clip-path:url(#SVGID_00000129903390151763946800000003911767790571845773_);}
	.st166{clip-path:url(#SVGID_00000070836292097716015250000018437842460126010038_);}
	.st167{clip-path:url(#SVGID_00000120560596120451210860000005696700497843457409_);}
	.st168{clip-path:url(#SVGID_00000114786328545740526660000004394062641317849261_);}
	.st169{clip-path:url(#SVGID_00000026856132061162477670000016386095954011110325_);}
	.st170{clip-path:url(#SVGID_00000183927958383935617490000002000458763103747478_);}
	.st171{clip-path:url(#SVGID_00000101077318451874999070000013076907896944102528_);}
	.st172{clip-path:url(#SVGID_00000044885052244910691500000013827568483212804792_);}
	.st173{clip-path:url(#SVGID_00000065777530062468671500000003539625468904192397_);}
	.st174{clip-path:url(#SVGID_00000018218127934826610130000017280394335756573864_);}
	.st175{clip-path:url(#SVGID_00000111891092368816901400000010108742402898070701_);}
	.st176{clip-path:url(#SVGID_00000016768041263094147650000001057118571983000502_);}
	.st177{clip-path:url(#SVGID_00000031912239548137988480000003545062146494965894_);}
	.st178{clip-path:url(#SVGID_00000111167842997014961060000012227917929865232055_);}
	.st179{clip-path:url(#SVGID_00000094590124666076751450000012274456633298880432_);}
	.st180{clip-path:url(#SVGID_00000120538928184434085120000004024175976406774972_);}
	.st181{clip-path:url(#SVGID_00000165234176562392428320000003165444863611241660_);}
	.st182{clip-path:url(#SVGID_00000031178071439124106000000017572932132570579887_);}
	.st183{clip-path:url(#SVGID_00000183249019093888276870000005310954099167704467_);}
	.st184{clip-path:url(#SVGID_00000152225206213440478940000010631005315418184383_);}
	.st185{clip-path:url(#SVGID_00000009555778980637612130000006331922828990881204_);}
	.st186{clip-path:url(#SVGID_00000023254163362510624900000017306124447133793933_);}
	.st187{clip-path:url(#SVGID_00000097461527044769925810000002410407528019918753_);}
	.st188{clip-path:url(#SVGID_00000015344832858574598770000014484339184128182926_);}
	.st189{clip-path:url(#SVGID_00000150808094977349704600000015494984656495810198_);}
	.st190{clip-path:url(#SVGID_00000121248129658812426250000004541456854593916064_);}
	.st191{clip-path:url(#SVGID_00000074400493433732071150000004517344710244955797_);}
	.st192{clip-path:url(#SVGID_00000137834715361500060190000001330429719291941765_);}
	.st193{clip-path:url(#SVGID_00000023253134422657687650000013721281082143066270_);}
	.st194{clip-path:url(#SVGID_00000033350821274176700220000017844208234171028113_);}
	.st195{clip-path:url(#SVGID_00000028298173022759789470000013541487485869991555_);}
	.st196{clip-path:url(#SVGID_00000085964637950819175940000008533523433979723673_);}
	.st197{clip-path:url(#SVGID_00000147933702065352946670000014227892813446483858_);}
	.st198{clip-path:url(#SVGID_00000103236597118688087220000002731247049213548208_);}
	.st199{clip-path:url(#SVGID_00000165221171198342961370000009775058909264658870_);}
	.st200{clip-path:url(#SVGID_00000013158847702808618350000012888416174983226525_);}
	.st201{clip-path:url(#SVGID_00000047771654455741361710000013241839469534268072_);}
	.st202{clip-path:url(#SVGID_00000068663157159246725580000007714887130775390358_);}
	.st203{clip-path:url(#SVGID_00000071533791932127789820000003710757813601268635_);}
	.st204{clip-path:url(#SVGID_00000016069110325007218060000008592334802990756252_);}
	.st205{clip-path:url(#SVGID_00000070814125566545947570000013709183984486637741_);}
	.st206{clip-path:url(#SVGID_00000005253836933606225070000007728113696086584232_);}
	.st207{clip-path:url(#SVGID_00000136404176359912594240000010644006569427880100_);}
	.st208{clip-path:url(#SVGID_00000026877014491070784190000000697750704705810088_);}
	.st209{clip-path:url(#SVGID_00000150807002948997944500000009275381248370657690_);}
	.st210{clip-path:url(#SVGID_00000152967019934985828910000000573721658109194890_);}
	.st211{clip-path:url(#SVGID_00000031906325518017349400000003620231605664920244_);}
	.st212{clip-path:url(#SVGID_00000044888701024390626080000003249961408798462898_);}
	.st213{clip-path:url(#SVGID_00000146498177807374724900000008127133658814601405_);}
	.st214{clip-path:url(#SVGID_00000157997849500583961080000003701524276377364918_);}
	.st215{clip-path:url(#SVGID_00000099637966843908264890000012127731537099777172_);}
	.st216{clip-path:url(#SVGID_00000125603253922159670710000001017401008811197621_);}
	.st217{clip-path:url(#SVGID_00000142158397645795928790000011226022920406485659_);}
	.st218{clip-path:url(#SVGID_00000145765963682205849790000006044698609572342407_);}
	.st219{clip-path:url(#SVGID_00000181047651186011180980000002775243409322060417_);}
	.st220{clip-path:url(#SVGID_00000080187299398730294470000009863027387499739541_);}
	.st221{clip-path:url(#SVGID_00000117678948255746495910000003403038335703930755_);}
	.st222{clip-path:url(#SVGID_00000146498456881539095390000002954173837511163065_);}
	.st223{clip-path:url(#SVGID_00000057834429045719109140000002496336917545676190_);}
	.st224{clip-path:url(#SVGID_00000175308562544068688450000015531753880702514052_);}
	.st225{clip-path:url(#SVGID_00000048489310769100002990000015010121068772134299_);}
	.st226{clip-path:url(#SVGID_00000098204213048722389330000007834604392204286386_);}
	.st227{clip-path:url(#SVGID_00000058561024538451215670000003570898315421056181_);}
	.st228{clip-path:url(#SVGID_00000014596529514024802980000018348950251693591227_);}
	.st229{clip-path:url(#SVGID_00000110464879827968212310000012147099417415388298_);}
	.st230{clip-path:url(#SVGID_00000072279544305754447840000007866817410934577033_);}
	.st231{clip-path:url(#SVGID_00000016039780277765452250000007872397327959749011_);}
	.st232{clip-path:url(#SVGID_00000033331793538102959400000003065476215371089597_);}
	.st233{clip-path:url(#SVGID_00000076586942210077025390000009187935834483597202_);}
	.st234{clip-path:url(#SVGID_00000102527120004319860560000003410690478995984551_);}
	.st235{clip-path:url(#SVGID_00000158726990861888016050000011383455513379579288_);}
	.st236{clip-path:url(#SVGID_00000086691330146533209760000008684942851270144184_);}
	.st237{clip-path:url(#SVGID_00000106147427615518530830000002513888098696748212_);}
	.st238{clip-path:url(#SVGID_00000003090087049868294030000006800099600855804827_);}
	.st239{clip-path:url(#SVGID_00000166672374387090478880000003547068506880961174_);}
	.st240{clip-path:url(#SVGID_00000113344977596730225150000010862000536171261368_);}
	.st241{clip-path:url(#SVGID_00000092450042810864833350000013784429726862950568_);}
	.st242{clip-path:url(#SVGID_00000111175683652787845430000002915543351354356614_);}
	.st243{clip-path:url(#SVGID_00000082364233662273196000000011751430615962562950_);}
	.st244{clip-path:url(#SVGID_00000162320286736422849060000017199254116990676914_);}
	.st245{clip-path:url(#SVGID_00000060730528368516688050000014760889140226639020_);}
	.st246{clip-path:url(#SVGID_00000103962489799943227450000010201047903821565826_);}
	.st247{clip-path:url(#SVGID_00000070805348925475500520000013913528820623557248_);}
	.st248{clip-path:url(#SVGID_00000122696897494798447770000010574887300624123525_);}
	.st249{clip-path:url(#SVGID_00000050624474336755228370000013038009505286859193_);}
	.st250{clip-path:url(#SVGID_00000065756127920023829750000008657814839253925563_);}
	.st251{clip-path:url(#SVGID_00000109031933248061744200000005236881562714380686_);}
	.st252{clip-path:url(#SVGID_00000183227830302134814520000014509122951171226547_);}
	.st253{clip-path:url(#SVGID_00000014605115523830512230000000732229004376516791_);}
	.st254{clip-path:url(#SVGID_00000093867672991525711970000006811567807266449793_);}
	.st255{clip-path:url(#SVGID_00000097472332695039144230000011719632872640054916_);}
	.st256{clip-path:url(#SVGID_00000175305826000023323360000016703495788070195844_);}
	.st257{clip-path:url(#SVGID_00000147924649838605246510000002262337469830156160_);}
	.st258{clip-path:url(#SVGID_00000117641922512363853770000014254389468116076991_);}
	.st259{clip-path:url(#SVGID_00000143607696519866646740000012020980427562104724_);}
	.st260{clip-path:url(#SVGID_00000000215471718402274830000007138223444074541185_);}
	.st261{clip-path:url(#SVGID_00000025437805193574453310000011926441759896289161_);}
	.st262{clip-path:url(#SVGID_00000112596857396664973570000002523450680916125366_);}
	.st263{clip-path:url(#SVGID_00000152967490604773170310000002151365962162713766_);}
	.st264{clip-path:url(#SVGID_00000067215314308645943160000010754226471444451495_);}
	.st265{clip-path:url(#SVGID_00000069362074565818979720000001622928077806344337_);}
	.st266{clip-path:url(#SVGID_00000178177915277464166880000007488990122467243423_);}
	.st267{clip-path:url(#SVGID_00000180358237206819351400000002386472798432596865_);}
	.st268{clip-path:url(#SVGID_00000155120185499609014980000010703945933817411771_);}
	.st269{clip-path:url(#SVGID_00000018224964208876894050000001225003681343515321_);}
	.st270{clip-path:url(#SVGID_00000116929824751051782580000009660278248571004350_);}
	.st271{clip-path:url(#SVGID_00000010274234378146553050000003436691403695458698_);}
	.st272{clip-path:url(#SVGID_00000177465111755969353840000002915248944306366381_);}
	.st273{clip-path:url(#SVGID_00000060747675288525326760000009197982537536376193_);}
	.st274{clip-path:url(#SVGID_00000080176404770548383500000017811590655664061834_);}
	.st275{clip-path:url(#SVGID_00000045599422542544833150000010256248642732009125_);}
	.st276{clip-path:url(#SVGID_00000150093964998949399040000003515554756042432154_);}
	.st277{clip-path:url(#SVGID_00000109729841774530789930000004222094270374425488_);}
	.st278{clip-path:url(#SVGID_00000158750069698666090880000001443877174075083163_);}
	.st279{clip-path:url(#SVGID_00000076580599880606549020000013223308165042488464_);}
	.st280{clip-path:url(#SVGID_00000042709768071145433190000010775643682298987187_);}
	.st281{clip-path:url(#SVGID_00000109012616725446116570000006050126691176524455_);}
	.st282{clip-path:url(#SVGID_00000029731314278077350660000004252680374874079665_);}
	.st283{clip-path:url(#SVGID_00000170964199045726112420000013613304728332857496_);}
	.st284{clip-path:url(#SVGID_00000134947410970196196670000007904132462560159925_);}
	.st285{clip-path:url(#SVGID_00000110438066689482065990000002046060878521053869_);}
	.st286{clip-path:url(#SVGID_00000029013342384797336380000011390050116775026834_);}
	.st287{clip-path:url(#SVGID_00000142166846716426477180000010532283356046020755_);}
	.st288{clip-path:url(#SVGID_00000020385870788942771110000010488247297812752052_);}
	.st289{clip-path:url(#SVGID_00000041292213013134658020000013539351906406750857_);}
	.st290{clip-path:url(#SVGID_00000053504673357978523390000008941260416716036244_);}
	.st291{clip-path:url(#SVGID_00000100372853645169993430000007180693522479224710_);}
	.st292{clip-path:url(#SVGID_00000156585529418309925340000013081630482693669804_);}
	.st293{clip-path:url(#SVGID_00000109715242248353436230000006999129814403241912_);}
	.st294{clip-path:url(#SVGID_00000177479795481350927370000013840862984935011203_);}
	.st295{clip-path:url(#SVGID_00000018917671379578737980000003802716833956459403_);}
	.st296{clip-path:url(#SVGID_00000077301831549765921650000008698589605124372414_);}
	.st297{clip-path:url(#SVGID_00000015351517167011898990000009163396267676399285_);}
	.st298{clip-path:url(#SVGID_00000179619851339766381000000018329425121082537377_);}
	.st299{clip-path:url(#SVGID_00000175314105423379358970000001163197199566554767_);}
	.st300{clip-path:url(#SVGID_00000164492253882972420010000005088537214348882568_);}
	.st301{clip-path:url(#SVGID_00000008146956496326926500000006233238402122986654_);}
	.st302{clip-path:url(#SVGID_00000053513519181413183510000001151460631603661735_);}
	.st303{clip-path:url(#SVGID_00000022546024845673285260000011615386010061829511_);}
	.st304{clip-path:url(#SVGID_00000067197656960081256690000015174149105852368002_);}
	.st305{clip-path:url(#SVGID_00000103978778714960735750000006370585834833967802_);}
	.st306{clip-path:url(#SVGID_00000007417464251134134050000017639321096133764538_);}
	.st307{clip-path:url(#SVGID_00000146487428572099826660000004789458582521169571_);}
	.st308{clip-path:url(#SVGID_00000108994819643103002970000007404216413694211465_);}
	.st309{clip-path:url(#SVGID_00000019648760365776068310000000282992836203827877_);}
	.st310{clip-path:url(#SVGID_00000068679777915427397860000001734436149134957702_);}
	.st311{clip-path:url(#SVGID_00000139984944024103816610000015735196143995468216_);}
	.st312{clip-path:url(#SVGID_00000132083266506919530520000016731732431697882804_);}
	.st313{clip-path:url(#SVGID_00000157995068067807371540000004002135091349225639_);}
	.st314{clip-path:url(#SVGID_00000140704219216677975650000001372563657593317768_);}
	.st315{clip-path:url(#SVGID_00000021119708555067576800000004816698271113680004_);}
	.st316{clip-path:url(#SVGID_00000007391569711712898130000002152971669666416059_);}
	.st317{clip-path:url(#SVGID_00000132780557684963694540000011976828387026066085_);}
	.st318{clip-path:url(#SVGID_00000001643061190495692350000007847380281892352163_);}
	.st319{clip-path:url(#SVGID_00000150804415790770078590000005531161002466942632_);}
	.st320{clip-path:url(#SVGID_00000142895447745463339010000002641641305746524080_);}
	.st321{clip-path:url(#SVGID_00000099633861964224232860000010649160099545630382_);}
	.st322{clip-path:url(#SVGID_00000170268456222603930800000002748051585737951673_);}
	.st323{clip-path:url(#SVGID_00000018918782373553020640000011593027757294207363_);}
	.st324{clip-path:url(#SVGID_00000032639316944056699320000006520413091044651665_);}
	.st325{clip-path:url(#SVGID_00000026856013504739557240000017034387404833957018_);}
	.st326{clip-path:url(#SVGID_00000036221534280749615970000010152152447616337834_);}
	.st327{clip-path:url(#SVGID_00000042738344710933538650000000556455025802122662_);}
	.st328{clip-path:url(#SVGID_00000137132561168276036740000014056483228832524953_);}
	.st329{clip-path:url(#SVGID_00000001662366028854671900000006013575244304066985_);}
	.st330{clip-path:url(#SVGID_00000177463824209921169000000016918288173357715903_);}
	.st331{clip-path:url(#SVGID_00000002382949783554602860000012505175385176674698_);}
	.st332{clip-path:url(#SVGID_00000030467042295310476350000008020062072021002145_);}
	.st333{clip-path:url(#SVGID_00000168099364961948761750000012366908034445263236_);}
	.st334{clip-path:url(#SVGID_00000008865098974419642040000016357366476145702073_);}
	.st335{clip-path:url(#SVGID_00000153696068214331236530000016214116974182272645_);}
	.st336{clip-path:url(#SVGID_00000071523017620898228660000000286462356510011028_);}
	.st337{clip-path:url(#SVGID_00000182501631922855804090000006544820121324824713_);}
	.st338{clip-path:url(#SVGID_00000147197061953381274900000007586004443690495637_);}
	.st339{clip-path:url(#SVGID_00000039849859238655832770000007294067613124477318_);}
	.st340{clip-path:url(#SVGID_00000162325631856211011650000012967300835486113429_);}
	.st341{clip-path:url(#SVGID_00000170252322910915929600000001188870206700204207_);}
	.st342{clip-path:url(#SVGID_00000052823627756457733270000016011657990971150987_);}
	.st343{clip-path:url(#SVGID_00000097487487128579231430000014842376904509732233_);}
	.st344{clip-path:url(#SVGID_00000159443020456230324570000002607194598843586442_);}
	.st345{clip-path:url(#SVGID_00000027592570253473575320000004354154082859500723_);}
	.st346{clip-path:url(#SVGID_00000165948659805513895410000004126711565915797685_);}
	.st347{clip-path:url(#SVGID_00000152237374061348018090000010340815641034695334_);}
	.st348{clip-path:url(#SVGID_00000112595794240009849010000005313833645782088609_);}
	.st349{clip-path:url(#SVGID_00000153664495803309155670000011390713060875908769_);}
	.st350{clip-path:url(#SVGID_00000054232947407517516950000002274787380048210873_);}
	.st351{clip-path:url(#SVGID_00000178922854553943631340000002875555747369303199_);}
	.st352{clip-path:url(#SVGID_00000166671778668005702000000014366770814770039943_);}
	.st353{clip-path:url(#SVGID_00000155865314272157180760000001931122362189905831_);}
	.st354{clip-path:url(#SVGID_00000071549203042979356830000014158950408816641700_);}
	.st355{clip-path:url(#SVGID_00000013160063891340703540000001202736160025106841_);}
	.st356{clip-path:url(#SVGID_00000154397330918236067490000013961926190739710142_);}
	.st357{clip-path:url(#SVGID_00000099662721190501938230000011966791515138140547_);}
	.st358{clip-path:url(#SVGID_00000022524957440043692610000005233120048217512373_);}
	.st359{clip-path:url(#SVGID_00000117676338040576493600000003383567822008446127_);}
	.st360{clip-path:url(#SVGID_00000125568218720024497030000015219529982881538210_);}
	.st361{clip-path:url(#SVGID_00000002357053588390418120000008116925639726039735_);}
	.st362{clip-path:url(#SVGID_00000114782536176083496020000017962008287247696002_);}
	.st363{clip-path:url(#SVGID_00000065785273739231213000000015982999577373288324_);}
	.st364{clip-path:url(#SVGID_00000020388401229287462920000014248298033903266696_);}
	.st365{clip-path:url(#SVGID_00000057142119116237657630000013928575211115240335_);}
	.st366{clip-path:url(#SVGID_00000124134198167187181310000006089687364991940508_);}
	.st367{clip-path:url(#SVGID_00000083067215299021048040000009268366776482662812_);}
	.st368{clip-path:url(#SVGID_00000023968458899025485430000004129610045975787956_);}
	.st369{clip-path:url(#SVGID_00000124857511976462051560000000282246250069386639_);}
	.st370{clip-path:url(#SVGID_00000160874858761996388160000002178348823394111678_);}
	.st371{clip-path:url(#SVGID_00000100364656615052702230000011208697921297384374_);}
	.st372{clip-path:url(#SVGID_00000158750188896638306850000013484980029620129424_);}
	.st373{clip-path:url(#SVGID_00000091712909940992774880000010843653323674320049_);}
	.st374{clip-path:url(#SVGID_00000023241767646932692330000015645345788953090450_);}
	.st375{clip-path:url(#SVGID_00000063632737681325624070000014729717367186715315_);}
</style>
<g>
	<g>
		<rect x="2.28" y="121.72" class="st0" width="48.6" height="698.91"/>
	</g>
	<g>
		<rect x="0.2" y="4.52" class="st1" width="997.31" height="117.01"/>
	</g>
	<g>
		<path class="st3" d="M998.31,822.55H1.69c-0.93,0-1.69-0.76-1.69-1.69V4.62c0-0.93,0.75-1.69,1.69-1.69h996.63
			c0.93,0,1.69,0.76,1.69,1.69v816.25C1000,821.8,999.25,822.55,998.31,822.55z M3.37,819.18h993.25V6.31H3.37V819.18z"/>
	</g>
	<g>
		<rect x="1" y="119.94" class="st3" width="996.63" height="3.37"/>
	</g>
	<g>
		<defs>
			<rect id="SVGID_00000120558812769743072200000010582410007044783259_" x="10.91" y="13.75" width="983.72" height="814.43"/>
		</defs>
		<clipPath id="SVGID_00000005989347763853975910000014141124000472586139_">
			<use xlink:href="#SVGID_00000120558812769743072200000010582410007044783259_"  style="overflow:visible;"/>
		</clipPath>
		<g style="clip-path:url(#SVGID_00000005989347763853975910000014141124000472586139_);">
			<path class="st4" d="M843.41,77.14c0-6.44-3.8-10.46-11.34-11.19l-6-0.59c-3.36-0.29-3.95-1.9-3.95-3.29
				c0-1.9,1.61-3.66,5.41-3.66c3.29,0,6.65,0.59,8.85,2.56l5.85-5.92c-3.66-3.44-8.63-4.46-14.55-4.46c-7.75,0-14.7,4.24-14.7,12.13
				c0,7.03,4.24,10.02,11.12,10.68l6,0.59c3,0.29,4.02,1.61,4.02,3.51c0,2.86-3.44,3.95-6.73,3.95c-2.93,0-7.02-0.44-10.17-3.59
				l-6.22,6.22c4.83,4.82,10.24,5.48,16.23,5.48C836.24,89.57,843.41,85.55,843.41,77.14 M805.75,77.14
				c0-6.44-3.8-10.46-11.34-11.19l-6-0.59c-3.36-0.29-3.95-1.9-3.95-3.29c0-1.9,1.61-3.66,5.41-3.66c3.29,0,6.65,0.59,8.85,2.56
				l5.85-5.92c-3.66-3.44-8.63-4.46-14.55-4.46c-7.75,0-14.7,4.24-14.7,12.13c0,7.03,4.24,10.02,11.12,10.68l6,0.59
				c3,0.29,4.02,1.61,4.02,3.51c0,2.86-3.44,3.95-6.73,3.95c-2.93,0-7.02-0.44-10.17-3.59l-6.22,6.22
				c4.83,4.82,10.24,5.48,16.23,5.48C798.59,89.57,805.75,85.55,805.75,77.14 M764.94,89.13V51.04h-9.5v23.04
				c0,5.19-3.36,6.95-6.36,6.95c-3,0-6.29-1.76-6.29-6.95V51.04h-9.5v24.35c0,4.17,0.8,7.75,3.88,10.82
				c2.12,2.12,5.19,3.36,8.99,3.36c3.52,0,7.03-1.32,9.51-3.94v3.5H764.94z M724.65,89.13V81.1h-3.66c-2.41,0-3.36-1.17-3.36-3.44
				V37.07h-9.5v41.17c0,5.41,3.29,10.89,11.11,10.89H724.65z M696.78,89.13V64.49c0-8.04-4.38-13.88-12.72-13.88
				c-3.36,0-6.59,1.31-9.15,3.94V37.07h-9.5v52.06h9.5V65.88c0-4.97,3.14-6.73,6.15-6.73c3,0,6.22,1.68,6.22,6.73v23.26H696.78z
				 M656.56,84.38l-6.44-6.36c-1.97,2.13-3.66,3-6.14,3c-2.27,0-4.02-0.8-5.41-2.49c-1.46-1.83-2.12-4.46-2.12-8.48
				s0.66-6.59,2.12-8.42c1.39-1.68,3.14-2.49,5.41-2.49c2.49,0,4.17,0.88,6.14,3l6.44-6.43c-3.36-3.51-7.31-5.11-12.58-5.11
				c-7.61,0-17.03,4.02-17.03,19.45s9.42,19.52,17.03,19.52C649.25,89.57,653.2,87.89,656.56,84.38 M619.42,77.14
				c0-6.44-3.8-10.46-11.34-11.19l-6-0.59c-3.36-0.29-3.95-1.9-3.95-3.29c0-1.9,1.61-3.66,5.41-3.66c3.29,0,6.65,0.59,8.85,2.56
				l5.85-5.92c-3.66-3.44-8.63-4.46-14.55-4.46c-7.75,0-14.7,4.24-14.7,12.13c0,7.03,4.24,10.02,11.12,10.68l6,0.59
				c3,0.29,4.02,1.61,4.02,3.51c0,2.86-3.44,3.95-6.73,3.95c-2.93,0-7.02-0.44-10.17-3.59l-6.22,6.22
				c4.83,4.82,10.24,5.48,16.23,5.48C612.25,89.57,619.42,85.55,619.42,77.14 M570.72,70.05c0,6.22-0.73,10.98-6.44,10.98
				c-5.71,0-6.44-4.76-6.44-10.98c0-6.22,0.73-10.9,6.44-10.9C569.99,59.15,570.72,63.83,570.72,70.05 M580.22,70.05
				c0-5.71-0.07-12.22-3.87-16.02c-2.12-2.12-5.55-3.43-9.29-3.43c-3.88,0-6.73,1.02-9.22,3.8V37.07h-9.5v52.06h9.2v-3.58
				c2.64,2.92,5.49,4.02,9.51,4.02c3.74,0,7.17-1.32,9.29-3.43C580.14,82.34,580.22,75.75,580.22,70.05 M527.13,75.09
				c0,2.35-0.37,3.88-1.39,4.83c-1.69,1.61-3.37,1.83-6,1.83c-3.74,0-5.49-1.76-5.49-4.39c0-2.71,1.9-4.32,5.34-4.32h7.54V75.09z
				 M536.63,89.13V64.05c0-8.92-5.55-13.45-16.23-13.45c-6.37,0-10.02,1.16-13.74,5.26l6.06,5.92c1.97-2.27,3.66-3.15,7.31-3.15
				c5.05,0,7.1,1.83,7.1,6v1.91h-9c-8.85,0-13.01,4.96-13.01,11.04c0,3.36,1.1,6.44,3.14,8.56c2.27,2.26,5.41,3.36,9.73,3.36
				c4.39,0,6.81-1.1,9.37-3.65v3.29H536.63z M498.75,89.13V81.1h-3.66c-2.41,0-3.36-1.17-3.36-3.44V37.07h-9.5v41.17
				c0,5.41,3.29,10.89,11.1,10.89H498.75z M470.45,89.13V51.04h-9.5v23.04c0,5.19-3.37,6.95-6.37,6.95s-6.29-1.76-6.29-6.95V51.04
				h-9.5v24.35c0,4.17,0.8,7.75,3.87,10.82c2.12,2.12,5.19,3.36,9,3.36c3.51,0,7.03-1.32,9.51-3.94v3.5H470.45z M427.52,89.13V64.49
				c0-8.04-4.39-13.88-12.72-13.88c-3.37,0-6.59,1.31-9.15,3.94V37.07h-9.5v52.06h9.5V65.88c0-4.97,3.14-6.73,6.14-6.73
				c3,0,6.22,1.68,6.22,6.73v23.26H427.52z M387.3,84.38l-6.44-6.36c-1.97,2.13-3.66,3-6.14,3c-2.27,0-4.02-0.8-5.41-2.49
				c-1.46-1.83-2.12-4.46-2.12-8.48s0.66-6.59,2.12-8.42c1.39-1.68,3.14-2.49,5.41-2.49c2.49,0,4.17,0.88,6.14,3l6.44-6.43
				c-3.36-3.51-7.31-5.11-12.58-5.11c-7.61,0-17.03,4.02-17.03,19.45s9.43,19.52,17.03,19.52C379.99,89.57,383.94,87.89,387.3,84.38
				 M350.15,77.14c0-6.44-3.8-10.46-11.34-11.19l-6-0.59c-3.36-0.29-3.95-1.9-3.95-3.29c0-1.9,1.61-3.66,5.41-3.66
				c3.29,0,6.65,0.59,8.85,2.56l5.85-5.92c-3.66-3.44-8.63-4.46-14.55-4.46c-7.75,0-14.7,4.24-14.7,12.13
				c0,7.03,4.24,10.02,11.12,10.68l6,0.59c3,0.29,4.02,1.61,4.02,3.51c0,2.86-3.44,3.95-6.73,3.95c-2.93,0-7.02-0.44-10.17-3.59
				l-6.22,6.22c4.83,4.82,10.24,5.48,16.23,5.48C342.99,89.57,350.15,85.55,350.15,77.14 M312.42,89.13V81.1h-3.66
				c-2.41,0-3.36-1.17-3.36-3.44V37.07h-9.5v41.17c0,5.41,3.29,10.89,11.11,10.89H312.42z M275.05,75.09c0,2.35-0.37,3.88-1.39,4.83
				c-1.68,1.61-3.36,1.83-6,1.83c-3.73,0-5.48-1.76-5.48-4.39c0-2.71,1.9-4.32,5.34-4.32h7.54V75.09z M284.55,89.13V64.05
				c0-8.92-5.55-13.45-16.23-13.45c-6.37,0-10.02,1.16-13.75,5.26l6.06,5.92c1.97-2.27,3.66-3.15,7.31-3.15c5.05,0,7.1,1.83,7.1,6
				v1.91h-9c-8.84,0-13.01,4.96-13.01,11.04c0,3.36,1.1,6.44,3.14,8.56c2.26,2.26,5.41,3.36,9.72,3.36c4.39,0,6.81-1.1,9.37-3.65
				v3.29H284.55z M236.14,66.54h-14.48c0.07-1.69,0.29-2.71,0.88-4.1c1.02-2.27,3.14-3.95,6.36-3.95c3.22,0,5.34,1.68,6.36,3.95
				C235.85,63.83,236.07,64.86,236.14,66.54 M245.5,73.04v-4.24c0-10.46-6-18.2-16.6-18.2c-9.87,0-16.59,7.01-16.59,19.45
				c0,15.43,8.62,19.52,17.61,19.52c6.87,0,10.6-2.12,14.48-5.99l-5.78-5.63c-2.41,2.41-4.46,3.59-8.63,3.59
				c-5.34,0-8.34-3.59-8.34-8.49H245.5z M192.79,53.01c0,4.02-2.93,6.88-7.39,6.88h-9.59V46.13h9.59
				C189.86,46.13,192.79,48.98,192.79,53.01 M205.06,89.13l-11.62-22.45c5.04-1.82,9.5-6.35,9.5-13.67
				c0-8.71-6.28-15.94-16.89-15.94h-20.4v52.06h10.15V68.36h7.32l10.17,20.77H205.06z"/>
		</g>
	</g>
	<g>
		<rect x="3.09" y="351.14" class="st3" width="993.81" height="3.37"/>
	</g>
	<g>
		<rect x="3.09" y="234.14" class="st3" width="993.81" height="3.37"/>
	</g>
	<g>
		<rect x="3.09" y="465.34" class="st3" width="993.81" height="3.37"/>
	</g>
	<g>
		<rect x="3.09" y="587.97" class="st3" width="993.81" height="3.37"/>
	</g>
	<g>
		<rect x="3.09" y="704.98" class="st3" width="993.81" height="3.37"/>
	</g>
	<g>
		<defs>
			<rect id="SVGID_00000070086279619376056050000009891403515852010885_" x="10.91" y="13.75" width="983.72" height="814.43"/>
		</defs>
		<clipPath id="SVGID_00000075851274501220010710000012189097263045909653_">
			<use xlink:href="#SVGID_00000070086279619376056050000009891403515852010885_"  style="overflow:visible;"/>
		</clipPath>
		<g style="clip-path:url(#SVGID_00000075851274501220010710000012189097263045909653_);">
			<path class="st3" d="M712.7,663.81c0,4.06-2.41,6.63-5.83,6.63c-3.43,0-5.78-2.57-5.78-6.63c0-4.12,2.35-6.58,5.78-6.58
				C710.5,657.23,712.7,660.06,712.7,663.81 M718.14,663.7c0-6.68-4.48-11-9.99-11c-1.18,0-2.35,0.16-3.37,0.59l8.18-16.35h-5.83
				l-8.66,17.64c-1.65,3.31-2.83,6.25-2.83,9.35c0,7.06,4.7,11.38,11.27,11.38S718.14,670.7,718.14,663.7 M676.78,671.45l-3.69-3.63
				c-1.65,1.66-2.78,2.62-5.24,2.62c-4.38,0-6.63-3.05-6.63-9.03c0-5.88,2.24-8.98,6.63-8.98c2.41,0,3.63,0.96,5.24,2.57l3.69-3.58
				c-1.71-1.71-2.57-2.3-4.01-2.94c-1.39-0.59-2.99-0.91-4.86-0.91c-7.59,0-12.12,5.18-12.12,13.73c0,8.82,4.48,14,12.12,14
				c1.87,0,3.42-0.26,4.86-0.91C674.21,673.75,675.07,673.16,676.78,671.45 M650.86,671.45l-3.68-3.63
				c-1.66,1.66-2.78,2.62-5.24,2.62c-4.38,0-6.63-3.05-6.63-9.03c0-5.88,2.24-8.98,6.63-8.98c2.4,0,3.63,0.96,5.24,2.57l3.68-3.58
				c-1.71-1.71-2.57-2.3-4.01-2.94c-1.39-0.59-2.99-0.91-4.87-0.91c-7.58,0-12.12,5.18-12.12,13.73c0,8.82,4.48,14,12.12,14
				c1.87,0,3.42-0.26,4.87-0.91C648.29,673.75,649.15,673.16,650.86,671.45 M616.93,665.2c0,3.95-1.71,5.56-5.93,5.56
				c-3.69,0-5.34-1.23-5.34-3.85c0-2.57,1.65-3.85,4.87-3.85h6.41V665.2z M622.33,674.97v-18.11c0-6.15-3.79-9.29-11.33-9.29
				c-2.57,0-4.49,0.32-6.04,1.06c-1.33,0.59-2.03,1.23-3.52,2.83l3.58,3.37c0.8-1.02,1.39-1.55,2.19-1.92
				c0.96-0.48,2.09-0.7,3.64-0.7c4.28,0,6.09,1.5,6.09,5.03v1.98h-7.27c-5.77,0-9.29,2.93-9.29,7.85c0,5.24,3.36,8.17,9.4,8.17
				c3.21,0,4.97-0.48,7.22-2.72v2.45H622.33z M593.15,674.97v-27.09H574.6v11.27c0,10.48-2.78,11.01-5.13,11.01h-0.86v4.8h2.57
				c5.29,0,8.65-2.99,8.65-14.48v-7.86h7.86v22.34H593.15z M544.84,674.97V655.1l15.33,19.87h7.32l-15.98-20.09l14.64-17.96h-7.1
				l-14.22,18.06v-18.06h-5.77v38.04H544.84z M520.2,632.97h-5.24l-15.23,45.95h5.24L520.2,632.97z M477.4,663.81
				c0,4.06-2.41,6.63-5.83,6.63c-3.42,0-5.78-2.57-5.78-6.63c0-4.12,2.36-6.58,5.78-6.58C475.2,657.23,477.4,660.06,477.4,663.81
				 M482.84,663.7c0-6.68-4.48-11-9.99-11c-1.18,0-2.35,0.16-3.37,0.59l8.18-16.35h-5.83l-8.66,17.64
				c-1.66,3.31-2.83,6.25-2.83,9.35c0,7.06,4.7,11.38,11.27,11.38C478.2,675.29,482.84,670.7,482.84,663.7 M435.17,659.22h-12.18
				c0.06-1.66,0.16-2.46,0.7-3.69c0.86-2.04,2.83-3.43,5.39-3.43c2.57,0,4.49,1.39,5.34,3.43
				C434.96,656.75,435.12,657.56,435.17,659.22 M440.57,663v-2.4c0-7.7-4.22-13.03-11.49-13.03c-6.95,0-11.48,5.07-11.48,13.83
				c0,10.32,5.39,13.89,12.18,13.89c4.75,0,7.37-1.44,10.15-4.21l-3.48-3.26c-1.92,1.92-3.53,2.78-6.57,2.78
				c-4.44,0-6.9-2.94-6.9-7.59H440.57z M411.82,666.69c0-4.81-2.99-7.22-8.07-7.64l-4.28-0.37c-2.89-0.27-3.74-1.5-3.74-3.1
				c0-2.03,1.65-3.48,4.92-3.48c2.57,0,4.97,0.53,6.68,1.98l3.42-3.48c-2.51-2.19-5.99-3.04-10.05-3.04c-5.66,0-10.2,2.99-10.2,8.27
				c0,4.76,2.94,7.06,8.02,7.49l4.33,0.37c2.62,0.21,3.63,1.39,3.63,3.21c0,2.57-2.62,3.75-5.93,3.75c-2.67,0-5.61-0.59-7.8-2.84
				l-3.58,3.58c3.21,3.14,6.95,3.89,11.39,3.89C407.01,675.29,411.82,672.36,411.82,666.69 M384.94,666.69
				c0-4.81-2.99-7.22-8.07-7.64l-4.28-0.37c-2.89-0.27-3.74-1.5-3.74-3.1c0-2.03,1.66-3.48,4.92-3.48c2.57,0,4.97,0.53,6.68,1.98
				l3.42-3.48c-2.51-2.19-5.99-3.04-10.05-3.04c-5.66,0-10.21,2.99-10.21,8.27c0,4.76,2.94,7.06,8.02,7.49l4.33,0.37
				c2.62,0.21,3.63,1.39,3.63,3.21c0,2.57-2.62,3.75-5.93,3.75c-2.67,0-5.61-0.59-7.8-2.84l-3.58,3.58
				c3.21,3.14,6.95,3.89,11.38,3.89C380.13,675.29,384.94,672.36,384.94,666.69 M350.53,665.2c0,1.92-0.37,3.21-1.18,4.01
				c-1.44,1.39-2.99,1.55-5.08,1.55c-3.42,0-4.97-1.4-4.97-3.85s1.66-3.9,4.87-3.9h6.36V665.2z M355.97,674.97v-18.11
				c0-6.15-3.74-9.29-11.17-9.29c-4.49,0-7.16,0.91-9.72,3.89l3.57,3.37c1.5-1.92,2.94-2.62,5.93-2.62c4.22,0,5.93,1.66,5.93,5.08
				v1.93h-7.16c-6.2,0-9.35,3.25-9.35,7.8c0,2.3,0.75,4.39,2.14,5.83c1.65,1.65,3.89,2.45,7.26,2.45c3.37,0,5.24-0.8,7.22-2.77v2.45
				H355.97z M329.52,674.97v-4.64h-2.41c-2.19,0-2.94-1.07-2.94-3.16v-30.25h-5.45v30.57c0,4.01,2.24,7.48,7.42,7.48H329.52z
				 M313.49,674.97l-13.63-23.14l12.35-14.91h-7.05l-15.55,19.13v-19.13h-5.77v38.04h5.77v-11.06l6.41-7.7l10.69,18.76H313.49z"/>
		</g>
		<g style="clip-path:url(#SVGID_00000075851274501220010710000012189097263045909653_);">
			<path class="st3" d="M718.68,519.15v-4.85h-22.66v10.85h5.24v-5.99h11.6l-12.78,33.19h5.88L718.68,519.15z M676.78,548.82
				l-3.69-3.63c-1.65,1.66-2.78,2.62-5.24,2.62c-4.38,0-6.63-3.05-6.63-9.03c0-5.88,2.24-8.98,6.63-8.98c2.41,0,3.63,0.96,5.24,2.57
				l3.69-3.58c-1.71-1.71-2.57-2.3-4.01-2.94c-1.39-0.59-2.99-0.91-4.86-0.91c-7.59,0-12.12,5.18-12.12,13.73
				c0,8.82,4.48,14,12.12,14c1.87,0,3.42-0.26,4.86-0.91C674.21,551.11,675.07,550.53,676.78,548.82 M650.86,548.82l-3.68-3.63
				c-1.66,1.66-2.78,2.62-5.24,2.62c-4.38,0-6.63-3.05-6.63-9.03c0-5.88,2.24-8.98,6.63-8.98c2.4,0,3.63,0.96,5.24,2.57l3.68-3.58
				c-1.71-1.71-2.57-2.3-4.01-2.94c-1.39-0.59-2.99-0.91-4.87-0.91c-7.58,0-12.12,5.18-12.12,13.73c0,8.82,4.48,14,12.12,14
				c1.87,0,3.42-0.26,4.87-0.91C648.29,551.11,649.15,550.53,650.86,548.82 M616.93,542.56c0,3.95-1.71,5.56-5.93,5.56
				c-3.69,0-5.34-1.23-5.34-3.85c0-2.57,1.65-3.85,4.87-3.85h6.41V542.56z M622.33,552.34v-18.11c0-6.15-3.79-9.29-11.33-9.29
				c-2.57,0-4.49,0.32-6.04,1.06c-1.33,0.59-2.03,1.23-3.52,2.83l3.58,3.37c0.8-1.02,1.39-1.55,2.19-1.92
				c0.96-0.48,2.09-0.7,3.64-0.7c4.28,0,6.09,1.5,6.09,5.03v1.98h-7.27c-5.77,0-9.29,2.93-9.29,7.85c0,5.24,3.36,8.17,9.4,8.17
				c3.21,0,4.97-0.48,7.22-2.72v2.45H622.33z M593.15,552.34v-27.09H574.6v11.27c0,10.48-2.78,11.01-5.13,11.01h-0.86v4.8h2.57
				c5.29,0,8.65-2.99,8.65-14.48V530h7.86v22.34H593.15z M544.84,552.34v-19.87l15.33,19.87h7.32l-15.98-20.09l14.64-17.96h-7.1
				l-14.22,18.06v-18.06h-5.77v38.04H544.84z M520.2,510.34h-5.24l-15.23,45.95h5.24L520.2,510.34z M483.38,519.15v-4.85h-22.66
				v10.85h5.24v-5.99h11.59l-12.77,33.19h5.88L483.38,519.15z M435.17,536.58h-12.18c0.06-1.66,0.16-2.46,0.7-3.69
				c0.86-2.04,2.83-3.43,5.39-3.43c2.57,0,4.49,1.39,5.34,3.43C434.96,534.12,435.12,534.92,435.17,536.58 M440.57,540.37v-2.4
				c0-7.7-4.22-13.03-11.49-13.03c-6.95,0-11.48,5.07-11.48,13.83c0,10.32,5.39,13.89,12.18,13.89c4.75,0,7.37-1.44,10.15-4.21
				l-3.48-3.26c-1.92,1.92-3.53,2.78-6.57,2.78c-4.44,0-6.9-2.94-6.9-7.59H440.57z M411.82,544.06c0-4.81-2.99-7.22-8.07-7.64
				l-4.28-0.37c-2.89-0.27-3.74-1.5-3.74-3.1c0-2.03,1.65-3.48,4.92-3.48c2.57,0,4.97,0.53,6.68,1.98l3.42-3.48
				c-2.51-2.19-5.99-3.04-10.05-3.04c-5.66,0-10.2,2.99-10.2,8.27c0,4.76,2.94,7.06,8.02,7.49l4.33,0.37
				c2.62,0.21,3.63,1.39,3.63,3.21c0,2.57-2.62,3.75-5.93,3.75c-2.67,0-5.61-0.59-7.8-2.84l-3.58,3.58c3.21,3.15,6.95,3.9,11.39,3.9
				C407.01,552.66,411.82,549.72,411.82,544.06 M384.94,544.06c0-4.81-2.99-7.22-8.07-7.64l-4.28-0.37c-2.89-0.27-3.74-1.5-3.74-3.1
				c0-2.03,1.66-3.48,4.92-3.48c2.57,0,4.97,0.53,6.68,1.98l3.42-3.48c-2.51-2.19-5.99-3.04-10.05-3.04
				c-5.66,0-10.21,2.99-10.21,8.27c0,4.76,2.94,7.06,8.02,7.49l4.33,0.37c2.62,0.21,3.63,1.39,3.63,3.21c0,2.57-2.62,3.75-5.93,3.75
				c-2.67,0-5.61-0.59-7.8-2.84l-3.58,3.58c3.21,3.15,6.95,3.9,11.38,3.9C380.13,552.66,384.94,549.72,384.94,544.06 M350.53,542.56
				c0,1.92-0.37,3.21-1.18,4.01c-1.44,1.39-2.99,1.55-5.08,1.55c-3.42,0-4.97-1.4-4.97-3.85c0-2.46,1.66-3.9,4.87-3.9h6.36V542.56z
				 M355.97,552.34v-18.11c0-6.15-3.74-9.29-11.17-9.29c-4.49,0-7.16,0.91-9.72,3.89l3.57,3.37c1.5-1.92,2.94-2.62,5.93-2.62
				c4.22,0,5.93,1.66,5.93,5.08v1.93h-7.16c-6.2,0-9.35,3.25-9.35,7.8c0,2.3,0.75,4.39,2.14,5.83c1.65,1.65,3.89,2.45,7.26,2.45
				c3.37,0,5.24-0.8,7.22-2.77v2.45H355.97z M329.52,552.34v-4.64h-2.41c-2.19,0-2.94-1.07-2.94-3.16v-30.25h-5.45v30.57
				c0,4.01,2.24,7.48,7.42,7.48H329.52z M313.49,552.34l-13.63-23.14l12.35-14.91h-7.05l-15.55,19.13v-19.13h-5.77v38.04h5.77
				v-11.06l6.41-7.7l10.69,18.76H313.49z"/>
		</g>
		<g style="clip-path:url(#SVGID_00000075851274501220010710000012189097263045909653_);">
			<path class="st3" d="M712.53,407.65c0,3.36-2.35,5.77-5.66,5.77c-3.32,0-5.61-2.41-5.61-5.77c0-3.32,2.3-5.83,5.61-5.83
				C710.18,401.82,712.53,404.33,712.53,407.65 M713.13,424.48c0,3.53-2.73,6.31-6.26,6.31c-3.53,0-6.26-2.78-6.26-6.31
				s2.72-6.36,6.26-6.36C710.4,418.12,713.13,420.96,713.13,424.48 M718.62,424.59c0-4.55-2.56-7.32-5.23-8.92
				c2.46-1.5,4.59-4.17,4.59-8.18c0-6.36-4.91-10.53-11.11-10.53c-6.2,0-11.06,4.16-11.06,10.53c0,4.01,2.13,6.68,4.59,8.18
				c-2.67,1.6-5.23,4.38-5.23,8.92c0,6.9,5.18,11.06,11.7,11.06C713.39,435.65,718.62,431.49,718.62,424.59 M676.78,431.81
				l-3.69-3.63c-1.65,1.66-2.78,2.62-5.24,2.62c-4.38,0-6.63-3.05-6.63-9.03c0-5.88,2.24-8.98,6.63-8.98c2.41,0,3.63,0.96,5.24,2.57
				l3.69-3.58c-1.71-1.71-2.57-2.3-4.01-2.94c-1.39-0.59-2.99-0.91-4.86-0.91c-7.59,0-12.12,5.18-12.12,13.73
				c0,8.82,4.48,14,12.12,14c1.87,0,3.42-0.26,4.86-0.91C674.21,434.1,675.07,433.52,676.78,431.81 M650.86,431.81l-3.68-3.63
				c-1.66,1.66-2.78,2.62-5.24,2.62c-4.38,0-6.63-3.05-6.63-9.03c0-5.88,2.24-8.98,6.63-8.98c2.4,0,3.63,0.96,5.24,2.57l3.68-3.58
				c-1.71-1.71-2.57-2.3-4.01-2.94c-1.39-0.59-2.99-0.91-4.87-0.91c-7.58,0-12.12,5.18-12.12,13.73c0,8.82,4.48,14,12.12,14
				c1.87,0,3.42-0.26,4.87-0.91C648.29,434.1,649.15,433.52,650.86,431.81 M616.93,425.55c0,3.95-1.71,5.56-5.93,5.56
				c-3.69,0-5.34-1.23-5.34-3.85c0-2.57,1.65-3.85,4.87-3.85h6.41V425.55z M622.33,435.33v-18.11c0-6.15-3.79-9.29-11.33-9.29
				c-2.57,0-4.49,0.32-6.04,1.06c-1.33,0.59-2.03,1.23-3.52,2.83l3.58,3.37c0.8-1.02,1.39-1.55,2.19-1.92
				c0.96-0.48,2.09-0.7,3.64-0.7c4.28,0,6.09,1.5,6.09,5.03v1.98h-7.27c-5.77,0-9.29,2.93-9.29,7.85c0,5.24,3.36,8.17,9.4,8.17
				c3.21,0,4.97-0.48,7.22-2.72v2.45H622.33z M593.15,435.33v-27.09H574.6v11.27c0,10.48-2.78,11.01-5.13,11.01h-0.86v4.8h2.57
				c5.29,0,8.65-2.99,8.65-14.48v-7.86h7.86v22.34H593.15z M544.84,435.33v-19.87l15.33,19.87h7.32l-15.98-20.09l14.64-17.96h-7.1
				l-14.22,18.06v-18.06h-5.77v38.04H544.84z M520.2,393.33h-5.24l-15.23,45.95h5.24L520.2,393.33z M477.24,407.65
				c0,3.36-2.36,5.77-5.67,5.77c-3.31,0-5.61-2.41-5.61-5.77c0-3.32,2.3-5.83,5.61-5.83C474.88,401.82,477.24,404.33,477.24,407.65
				 M477.83,424.48c0,3.53-2.73,6.31-6.26,6.31s-6.26-2.78-6.26-6.31s2.73-6.36,6.26-6.36S477.83,420.96,477.83,424.48
				 M483.32,424.59c0-4.55-2.56-7.32-5.23-8.92c2.45-1.5,4.59-4.17,4.59-8.18c0-6.36-4.91-10.53-11.12-10.53
				c-6.2,0-11.06,4.16-11.06,10.53c0,4.01,2.14,6.68,4.59,8.18c-2.67,1.6-5.23,4.38-5.23,8.92c0,6.9,5.18,11.06,11.7,11.06
				C478.1,435.65,483.32,431.49,483.32,424.59 M435.17,419.57h-12.18c0.06-1.66,0.16-2.46,0.7-3.69c0.86-2.04,2.83-3.43,5.39-3.43
				c2.57,0,4.49,1.39,5.34,3.43C434.96,417.11,435.12,417.91,435.17,419.57 M440.57,423.36v-2.4c0-7.7-4.22-13.03-11.49-13.03
				c-6.95,0-11.48,5.07-11.48,13.83c0,10.32,5.39,13.89,12.18,13.89c4.75,0,7.37-1.44,10.15-4.21l-3.48-3.26
				c-1.92,1.92-3.53,2.78-6.57,2.78c-4.44,0-6.9-2.94-6.9-7.59H440.57z M411.82,427.05c0-4.81-2.99-7.22-8.07-7.64l-4.28-0.37
				c-2.89-0.27-3.74-1.5-3.74-3.1c0-2.03,1.65-3.48,4.92-3.48c2.57,0,4.97,0.53,6.68,1.98l3.42-3.48
				c-2.51-2.19-5.99-3.04-10.05-3.04c-5.66,0-10.2,2.99-10.2,8.27c0,4.76,2.94,7.06,8.02,7.49l4.33,0.37
				c2.62,0.21,3.63,1.39,3.63,3.21c0,2.57-2.62,3.75-5.93,3.75c-2.67,0-5.61-0.59-7.8-2.84l-3.58,3.58c3.21,3.15,6.95,3.9,11.39,3.9
				C407.01,435.65,411.82,432.71,411.82,427.05 M384.94,427.05c0-4.81-2.99-7.22-8.07-7.64l-4.28-0.37c-2.89-0.27-3.74-1.5-3.74-3.1
				c0-2.03,1.66-3.48,4.92-3.48c2.57,0,4.97,0.53,6.68,1.98l3.42-3.48c-2.51-2.19-5.99-3.04-10.05-3.04
				c-5.66,0-10.21,2.99-10.21,8.27c0,4.76,2.94,7.06,8.02,7.49l4.33,0.37c2.62,0.21,3.63,1.39,3.63,3.21c0,2.57-2.62,3.75-5.93,3.75
				c-2.67,0-5.61-0.59-7.8-2.84l-3.58,3.58c3.21,3.15,6.95,3.9,11.38,3.9C380.13,435.65,384.94,432.71,384.94,427.05 M350.53,425.55
				c0,1.92-0.37,3.21-1.18,4.01c-1.44,1.39-2.99,1.55-5.08,1.55c-3.42,0-4.97-1.4-4.97-3.85s1.66-3.9,4.87-3.9h6.36V425.55z
				 M355.97,435.33v-18.11c0-6.15-3.74-9.29-11.17-9.29c-4.49,0-7.16,0.91-9.72,3.89l3.57,3.37c1.5-1.92,2.94-2.62,5.93-2.62
				c4.22,0,5.93,1.66,5.93,5.08v1.93h-7.16c-6.2,0-9.35,3.25-9.35,7.8c0,2.3,0.75,4.39,2.14,5.83c1.65,1.65,3.89,2.45,7.26,2.45
				c3.37,0,5.24-0.8,7.22-2.77v2.45H355.97z M329.52,435.33v-4.64h-2.41c-2.19,0-2.94-1.07-2.94-3.16v-30.25h-5.45v30.57
				c0,4.01,2.24,7.48,7.42,7.48H329.52z M313.49,435.33l-13.63-23.14l12.35-14.91h-7.05l-15.55,19.13v-19.13h-5.77v38.04h5.77
				v-11.06l6.41-7.7l10.69,18.76H313.49z"/>
		</g>
		<g style="clip-path:url(#SVGID_00000075851274501220010710000012189097263045909653_);">
			<path class="st3" d="M712.7,291.44c0,4.12-2.41,6.58-5.83,6.58c-3.64,0-5.78-2.84-5.78-6.58c0-4.06,2.35-6.63,5.78-6.63
				C710.29,284.82,712.7,287.38,712.7,291.44 M718.14,291.34c0-7.05-4.7-11.38-11.27-11.38c-6.58,0-11.22,4.59-11.22,11.59
				c0,6.68,4.43,11,9.94,11c1.18,0,2.4-0.16,3.42-0.59l-8.18,16.35h5.83l8.66-17.64C716.97,297.38,718.14,294.44,718.14,291.34
				 M676.78,314.8l-3.69-3.63c-1.65,1.66-2.78,2.62-5.24,2.62c-4.38,0-6.63-3.05-6.63-9.03c0-5.88,2.24-8.98,6.63-8.98
				c2.41,0,3.63,0.96,5.24,2.57l3.69-3.58c-1.71-1.71-2.57-2.3-4.01-2.94c-1.39-0.59-2.99-0.91-4.86-0.91
				c-7.59,0-12.12,5.18-12.12,13.73c0,8.82,4.48,14,12.12,14c1.87,0,3.42-0.26,4.86-0.91C674.21,317.09,675.07,316.51,676.78,314.8
				 M650.86,314.8l-3.68-3.63c-1.66,1.66-2.78,2.62-5.24,2.62c-4.38,0-6.63-3.05-6.63-9.03c0-5.88,2.24-8.98,6.63-8.98
				c2.4,0,3.63,0.96,5.24,2.57l3.68-3.58c-1.71-1.71-2.57-2.3-4.01-2.94c-1.39-0.59-2.99-0.91-4.87-0.91
				c-7.58,0-12.12,5.18-12.12,13.73c0,8.82,4.48,14,12.12,14c1.87,0,3.42-0.26,4.87-0.91C648.29,317.09,649.15,316.51,650.86,314.8
				 M616.93,308.54c0,3.95-1.71,5.56-5.93,5.56c-3.69,0-5.34-1.23-5.34-3.85c0-2.57,1.65-3.85,4.87-3.85h6.41V308.54z
				 M622.33,318.32v-18.11c0-6.15-3.79-9.29-11.33-9.29c-2.57,0-4.49,0.32-6.04,1.06c-1.33,0.59-2.03,1.23-3.52,2.83l3.58,3.37
				c0.8-1.02,1.39-1.55,2.19-1.92c0.96-0.48,2.09-0.7,3.64-0.7c4.28,0,6.09,1.5,6.09,5.03v1.98h-7.27c-5.77,0-9.29,2.93-9.29,7.85
				c0,5.24,3.36,8.17,9.4,8.17c3.21,0,4.97-0.48,7.22-2.72v2.45H622.33z M593.15,318.32v-27.09H574.6v11.27
				c0,10.48-2.78,11.01-5.13,11.01h-0.86v4.8h2.57c5.29,0,8.65-2.99,8.65-14.48v-7.86h7.86v22.34H593.15z M544.84,318.32v-19.87
				l15.33,19.87h7.32l-15.98-20.09l14.64-17.96h-7.1l-14.22,18.06v-18.06h-5.77v38.04H544.84z M520.2,276.32h-5.24l-15.23,45.95
				h5.24L520.2,276.32z M477.4,291.44c0,4.12-2.41,6.58-5.83,6.58c-3.63,0-5.78-2.84-5.78-6.58c0-4.06,2.36-6.63,5.78-6.63
				C474.99,284.82,477.4,287.38,477.4,291.44 M482.84,291.34c0-7.05-4.7-11.38-11.27-11.38c-6.58,0-11.22,4.59-11.22,11.59
				c0,6.68,4.43,11,9.93,11c1.18,0,2.41-0.16,3.42-0.59l-8.18,16.35h5.83l8.66-17.64C481.67,297.38,482.84,294.44,482.84,291.34
				 M435.17,302.56h-12.18c0.06-1.66,0.16-2.46,0.7-3.69c0.86-2.04,2.83-3.43,5.39-3.43c2.57,0,4.49,1.39,5.34,3.43
				C434.96,300.1,435.12,300.9,435.17,302.56 M440.57,306.35v-2.4c0-7.7-4.22-13.03-11.49-13.03c-6.95,0-11.48,5.07-11.48,13.83
				c0,10.32,5.39,13.89,12.18,13.89c4.75,0,7.37-1.44,10.15-4.21l-3.48-3.26c-1.92,1.92-3.53,2.78-6.57,2.78
				c-4.44,0-6.9-2.94-6.9-7.59H440.57z M411.82,310.04c0-4.81-2.99-7.22-8.07-7.64l-4.28-0.37c-2.89-0.27-3.74-1.5-3.74-3.1
				c0-2.03,1.65-3.48,4.92-3.48c2.57,0,4.97,0.53,6.68,1.98l3.42-3.48c-2.51-2.19-5.99-3.04-10.05-3.04c-5.66,0-10.2,2.99-10.2,8.27
				c0,4.76,2.94,7.06,8.02,7.49l4.33,0.37c2.62,0.21,3.63,1.39,3.63,3.21c0,2.57-2.62,3.75-5.93,3.75c-2.67,0-5.61-0.59-7.8-2.84
				l-3.58,3.58c3.21,3.15,6.95,3.9,11.39,3.9C407.01,318.64,411.82,315.71,411.82,310.04 M384.94,310.04c0-4.81-2.99-7.22-8.07-7.64
				l-4.28-0.37c-2.89-0.27-3.74-1.5-3.74-3.1c0-2.03,1.66-3.48,4.92-3.48c2.57,0,4.97,0.53,6.68,1.98l3.42-3.48
				c-2.51-2.19-5.99-3.04-10.05-3.04c-5.66,0-10.21,2.99-10.21,8.27c0,4.76,2.94,7.06,8.02,7.49l4.33,0.37
				c2.62,0.21,3.63,1.39,3.63,3.21c0,2.57-2.62,3.75-5.93,3.75c-2.67,0-5.61-0.59-7.8-2.84l-3.58,3.58c3.21,3.15,6.95,3.9,11.38,3.9
				C380.13,318.64,384.94,315.71,384.94,310.04 M350.53,308.54c0,1.92-0.37,3.21-1.18,4.01c-1.44,1.39-2.99,1.55-5.08,1.55
				c-3.42,0-4.97-1.4-4.97-3.85c0-2.46,1.66-3.9,4.87-3.9h6.36V308.54z M355.97,318.32v-18.11c0-6.15-3.74-9.29-11.17-9.29
				c-4.49,0-7.16,0.91-9.72,3.89l3.57,3.37c1.5-1.92,2.94-2.62,5.93-2.62c4.22,0,5.93,1.66,5.93,5.08v1.93h-7.16
				c-6.2,0-9.35,3.25-9.35,7.8c0,2.3,0.75,4.39,2.14,5.83c1.65,1.65,3.89,2.45,7.26,2.45c3.37,0,5.24-0.8,7.22-2.77v2.45H355.97z
				 M329.52,318.32v-4.64h-2.41c-2.19,0-2.94-1.07-2.94-3.16v-30.25h-5.45v30.57c0,4.01,2.24,7.48,7.42,7.48H329.52z M313.49,318.32
				l-13.63-23.14l12.35-14.91h-7.05l-15.55,19.13v-19.13h-5.77v38.04h5.77v-11.06l6.41-7.7l10.69,18.76H313.49z"/>
		</g>
		<g style="clip-path:url(#SVGID_00000075851274501220010710000012189097263045909653_);">
			<path class="st3" d="M741.45,190.57c0,3.69-2.09,6.2-5.56,6.2c-3.48,0-5.51-2.51-5.51-6.2v-16.57c0-3.69,2.04-6.2,5.51-6.2
				c3.47,0,5.56,2.51,5.56,6.2V190.57z M746.89,190.74v-16.89c0-6.78-4.96-10.9-11-10.9s-10.95,4.11-10.95,10.9v16.89
				c0,6.79,4.91,10.9,10.95,10.9S746.89,197.53,746.89,190.74 M711.62,201.31v-38.04h-5.45l-7.43,6.41v6.04l7.43-6.51v32.11H711.62z
				 M676.78,197.79l-3.68-3.63c-1.66,1.66-2.78,2.62-5.24,2.62c-4.38,0-6.63-3.05-6.63-9.03c0-5.88,2.24-8.98,6.63-8.98
				c2.4,0,3.63,0.96,5.24,2.57l3.68-3.58c-1.71-1.71-2.57-2.3-4.01-2.94c-1.39-0.59-2.99-0.91-4.87-0.91
				c-7.58,0-12.12,5.18-12.12,13.73c0,8.82,4.48,14,12.12,14c1.87,0,3.42-0.26,4.87-0.91C674.21,200.09,675.07,199.5,676.78,197.79
				 M650.86,197.79l-3.69-3.63c-1.65,1.66-2.78,2.62-5.24,2.62c-4.38,0-6.63-3.05-6.63-9.03c0-5.88,2.24-8.98,6.63-8.98
				c2.41,0,3.63,0.96,5.24,2.57l3.69-3.58c-1.71-1.71-2.57-2.3-4.01-2.94c-1.39-0.59-2.99-0.91-4.86-0.91
				c-7.59,0-12.12,5.18-12.12,13.73c0,8.82,4.48,14,12.12,14c1.87,0,3.42-0.26,4.86-0.91C648.3,200.09,649.15,199.5,650.86,197.79
				 M616.93,191.54c0,3.95-1.72,5.56-5.94,5.56c-3.68,0-5.34-1.23-5.34-3.85c0-2.57,1.66-3.85,4.87-3.85h6.42V191.54z
				 M622.32,201.31V183.2c0-6.15-3.79-9.29-11.33-9.29c-2.57,0-4.49,0.32-6.04,1.06c-1.34,0.59-2.03,1.23-3.53,2.83l3.58,3.37
				c0.8-1.02,1.39-1.55,2.19-1.92c0.96-0.48,2.08-0.7,3.63-0.7c4.28,0,6.1,1.5,6.1,5.03v1.98h-7.27c-5.77,0-9.29,2.93-9.29,7.85
				c0,5.24,3.36,8.17,9.4,8.17c3.21,0,4.97-0.48,7.22-2.72v2.45H622.32z M593.14,201.31v-27.09h-18.54v11.27
				c0,10.48-2.78,11.01-5.13,11.01h-0.85v4.8h2.57c5.29,0,8.65-2.99,8.65-14.48v-7.86h7.86v22.34H593.14z M544.83,201.31v-19.87
				l15.33,19.87h7.32l-15.98-20.09l14.64-17.96h-7.1l-14.22,18.06v-18.06h-5.77v38.04H544.83z M520.2,159.31h-5.24l-15.23,45.95
				h5.24L520.2,159.31z M477.13,190.57c0,3.69-2.09,6.2-5.56,6.2c-3.47,0-5.51-2.51-5.51-6.2v-16.57c0-3.69,2.04-6.2,5.51-6.2
				c3.48,0,5.56,2.51,5.56,6.2V190.57z M482.58,190.74v-16.89c0-6.78-4.97-10.9-11.01-10.9c-6.04,0-10.95,4.11-10.95,10.9v16.89
				c0,6.79,4.91,10.9,10.95,10.9C477.61,201.63,482.58,197.53,482.58,190.74 M447.31,201.31v-38.04h-5.45l-7.43,6.41v6.04l7.43-6.51
				v32.11H447.31z M406.16,185.56h-12.18c0.06-1.66,0.16-2.46,0.7-3.69c0.86-2.04,2.83-3.43,5.39-3.43c2.57,0,4.49,1.39,5.34,3.43
				C405.94,183.09,406.1,183.9,406.16,185.56 M411.56,189.34v-2.4c0-7.7-4.22-13.03-11.49-13.03c-6.95,0-11.48,5.07-11.48,13.83
				c0,10.32,5.39,13.89,12.18,13.89c4.75,0,7.37-1.44,10.15-4.21l-3.48-3.26c-1.92,1.92-3.53,2.78-6.57,2.78
				c-4.44,0-6.9-2.94-6.9-7.59H411.56z M382.8,193.03c0-4.81-2.99-7.22-8.07-7.64l-4.28-0.37c-2.89-0.27-3.74-1.5-3.74-3.1
				c0-2.03,1.65-3.48,4.92-3.48c2.57,0,4.97,0.53,6.68,1.98l3.42-3.48c-2.51-2.19-5.99-3.04-10.05-3.04c-5.66,0-10.2,2.99-10.2,8.27
				c0,4.76,2.94,7.06,8.02,7.49l4.33,0.37c2.62,0.21,3.63,1.39,3.63,3.21c0,2.57-2.62,3.75-5.93,3.75c-2.67,0-5.61-0.59-7.8-2.84
				l-3.58,3.58c3.21,3.15,6.95,3.9,11.39,3.9C377.99,201.63,382.8,198.7,382.8,193.03 M355.93,193.03c0-4.81-2.99-7.22-8.07-7.64
				l-4.28-0.37c-2.89-0.27-3.74-1.5-3.74-3.1c0-2.03,1.66-3.48,4.92-3.48c2.57,0,4.97,0.53,6.68,1.98l3.42-3.48
				c-2.51-2.19-5.99-3.04-10.05-3.04c-5.66,0-10.21,2.99-10.21,8.27c0,4.76,2.94,7.06,8.02,7.49l4.33,0.37
				c2.62,0.21,3.63,1.39,3.63,3.21c0,2.57-2.62,3.75-5.93,3.75c-2.67,0-5.61-0.59-7.8-2.84l-3.58,3.58c3.21,3.15,6.95,3.9,11.38,3.9
				C351.12,201.63,355.93,198.7,355.93,193.03 M321.51,191.54c0,1.92-0.37,3.21-1.18,4.01c-1.44,1.39-2.99,1.55-5.08,1.55
				c-3.42,0-4.97-1.4-4.97-3.85c0-2.46,1.66-3.9,4.87-3.9h6.36V191.54z M326.95,201.31V183.2c0-6.15-3.74-9.29-11.17-9.29
				c-4.49,0-7.16,0.91-9.72,3.89l3.57,3.37c1.5-1.92,2.94-2.62,5.93-2.62c4.22,0,5.93,1.66,5.93,5.08v1.93h-7.16
				c-6.2,0-9.35,3.25-9.35,7.8c0,2.3,0.75,4.39,2.14,5.83c1.65,1.65,3.89,2.45,7.26,2.45c3.37,0,5.24-0.8,7.22-2.77v2.45H326.95z
				 M300.5,201.31v-4.64h-2.41c-2.19,0-2.94-1.07-2.94-3.16v-30.25h-5.45v30.57c0,4.01,2.24,7.48,7.42,7.48H300.5z M284.47,201.31
				l-13.63-23.14l12.35-14.91h-7.05l-15.55,19.13v-19.13h-5.77v38.04h5.77v-11.06l6.41-7.7l10.69,18.76H284.47z"/>
		</g>
		<g style="clip-path:url(#SVGID_00000075851274501220010710000012189097263045909653_);">
			<path class="st3" d="M718.25,773.64c0-3.58-0.43-7.27-3.31-10.15c-1.55-1.55-3.84-2.46-6.84-2.46c-2.78,0-5.02,0.86-6.31,2.19
				v-10.05h15.6v-4.85h-20.52v20.79h4.96c0.59-1.87,2.3-3.42,5.4-3.42c4.39,0,5.56,3.42,5.56,7.97c0,2.57-0.21,5.07-1.82,6.68
				c-0.96,0.96-2.36,1.5-3.96,1.5c-3.42,0-5.13-1.92-5.56-5.29h-5.45c0.21,2.73,0.86,5.24,2.88,7.27c1.65,1.65,4.49,2.93,8.12,2.93
				c3.69,0,6.31-1.28,8.02-2.99C717.82,780.97,718.25,777.7,718.25,773.64 M676.78,782.83l-3.69-3.63
				c-1.65,1.66-2.78,2.62-5.24,2.62c-4.38,0-6.63-3.05-6.63-9.03c0-5.88,2.24-8.98,6.63-8.98c2.41,0,3.63,0.96,5.24,2.57l3.69-3.58
				c-1.71-1.71-2.57-2.3-4.01-2.94c-1.39-0.59-2.99-0.91-4.86-0.91c-7.59,0-12.12,5.18-12.12,13.73c0,8.82,4.48,14,12.12,14
				c1.87,0,3.42-0.26,4.86-0.91C674.21,785.13,675.07,784.54,676.78,782.83 M650.86,782.83l-3.68-3.63
				c-1.66,1.66-2.78,2.62-5.24,2.62c-4.38,0-6.63-3.05-6.63-9.03c0-5.88,2.24-8.98,6.63-8.98c2.4,0,3.63,0.96,5.24,2.57l3.68-3.58
				c-1.71-1.71-2.57-2.3-4.01-2.94c-1.39-0.59-2.99-0.91-4.87-0.91c-7.58,0-12.12,5.18-12.12,13.73c0,8.82,4.48,14,12.12,14
				c1.87,0,3.42-0.26,4.87-0.91C648.29,785.13,649.15,784.54,650.86,782.83 M616.93,776.58c0,3.95-1.71,5.56-5.93,5.56
				c-3.69,0-5.34-1.23-5.34-3.85c0-2.57,1.65-3.85,4.87-3.85h6.41V776.58z M622.33,786.36v-18.11c0-6.15-3.79-9.29-11.33-9.29
				c-2.57,0-4.49,0.32-6.04,1.06c-1.33,0.59-2.03,1.23-3.52,2.83l3.58,3.37c0.8-1.02,1.39-1.55,2.19-1.92
				c0.96-0.48,2.09-0.7,3.64-0.7c4.28,0,6.09,1.5,6.09,5.03v1.98h-7.27c-5.77,0-9.29,2.93-9.29,7.85c0,5.24,3.36,8.17,9.4,8.17
				c3.21,0,4.97-0.48,7.22-2.72v2.45H622.33z M593.15,786.36v-27.09H574.6v11.27c0,10.48-2.78,11.01-5.13,11.01h-0.86v4.8h2.57
				c5.29,0,8.65-2.99,8.65-14.48v-7.86h7.86v22.34H593.15z M544.84,786.36v-19.87l15.33,19.87h7.32l-15.98-20.09l14.64-17.96h-7.1
				l-14.22,18.06v-18.06h-5.77v38.04H544.84z M520.2,744.36h-5.24l-15.23,45.95h5.24L520.2,744.36z M482.95,773.64
				c0-3.58-0.43-7.27-3.31-10.15c-1.55-1.55-3.85-2.46-6.84-2.46c-2.78,0-5.03,0.86-6.31,2.19v-10.05h15.6v-4.85h-20.52v20.79h4.96
				c0.59-1.87,2.3-3.42,5.41-3.42c4.38,0,5.56,3.42,5.56,7.97c0,2.57-0.21,5.07-1.82,6.68c-0.96,0.96-2.35,1.5-3.95,1.5
				c-3.43,0-5.14-1.92-5.56-5.29h-5.45c0.21,2.73,0.86,5.24,2.89,7.27c1.65,1.65,4.48,2.93,8.12,2.93c3.68,0,6.31-1.28,8.02-2.99
				C482.52,780.97,482.95,777.7,482.95,773.64 M435.17,770.6h-12.18c0.06-1.66,0.16-2.46,0.7-3.69c0.86-2.04,2.83-3.43,5.39-3.43
				c2.57,0,4.49,1.39,5.34,3.43C434.96,768.13,435.12,768.94,435.17,770.6 M440.57,774.38v-2.4c0-7.7-4.22-13.03-11.49-13.03
				c-6.95,0-11.48,5.07-11.48,13.83c0,10.32,5.39,13.89,12.18,13.89c4.75,0,7.37-1.44,10.15-4.21l-3.48-3.26
				c-1.92,1.92-3.53,2.78-6.57,2.78c-4.44,0-6.9-2.94-6.9-7.59H440.57z M411.82,778.07c0-4.81-2.99-7.22-8.07-7.64l-4.28-0.37
				c-2.89-0.27-3.74-1.5-3.74-3.1c0-2.03,1.65-3.48,4.92-3.48c2.57,0,4.97,0.53,6.68,1.98l3.42-3.48
				c-2.51-2.19-5.99-3.04-10.05-3.04c-5.66,0-10.2,2.99-10.2,8.28c0,4.76,2.94,7.06,8.02,7.49l4.33,0.37
				c2.62,0.21,3.63,1.39,3.63,3.21c0,2.57-2.62,3.75-5.93,3.75c-2.67,0-5.61-0.59-7.8-2.84l-3.58,3.58
				c3.21,3.14,6.95,3.89,11.39,3.89C407.01,786.68,411.82,783.74,411.82,778.07 M384.94,778.07c0-4.81-2.99-7.22-8.07-7.64
				l-4.28-0.37c-2.89-0.27-3.74-1.5-3.74-3.1c0-2.03,1.66-3.48,4.92-3.48c2.57,0,4.97,0.53,6.68,1.98l3.42-3.48
				c-2.51-2.19-5.99-3.04-10.05-3.04c-5.66,0-10.21,2.99-10.21,8.28c0,4.76,2.94,7.06,8.02,7.49l4.33,0.37
				c2.62,0.21,3.63,1.39,3.63,3.21c0,2.57-2.62,3.75-5.93,3.75c-2.67,0-5.61-0.59-7.8-2.84l-3.58,3.58
				c3.21,3.14,6.95,3.89,11.38,3.89C380.13,786.68,384.94,783.74,384.94,778.07 M350.53,776.58c0,1.92-0.37,3.21-1.18,4.01
				c-1.44,1.39-2.99,1.55-5.08,1.55c-3.42,0-4.97-1.4-4.97-3.85s1.66-3.9,4.87-3.9h6.36V776.58z M355.97,786.36v-18.11
				c0-6.15-3.74-9.29-11.17-9.29c-4.49,0-7.16,0.91-9.72,3.89l3.57,3.37c1.5-1.92,2.94-2.62,5.93-2.62c4.22,0,5.93,1.66,5.93,5.08
				v1.93h-7.16c-6.2,0-9.35,3.25-9.35,7.8c0,2.3,0.75,4.39,2.14,5.83c1.65,1.65,3.89,2.45,7.26,2.45c3.37,0,5.24-0.8,7.22-2.77v2.45
				H355.97z M329.52,786.36v-4.64h-2.41c-2.19,0-2.94-1.07-2.94-3.16v-30.25h-5.45v30.57c0,4.01,2.24,7.48,7.42,7.48H329.52z
				 M313.49,786.36l-13.63-23.14l12.35-14.91h-7.05l-15.55,19.13v-19.13h-5.77v38.04h5.77V775.3l6.41-7.7l10.69,18.76H313.49z"/>
		</g>
	</g>
	<g>
		<polygon class="st4" points="18.53,758.51 34.61,758.51 26.58,747.87 		"/>
	</g>
	<g>
		<polygon class="st4" points="18.53,779.67 34.61,779.67 26.58,769.03 		"/>
	</g>
	<g>
		<polygon class="st4" points="18.53,800.83 34.61,800.83 26.58,790.19 		"/>
	</g>
	<g>
		<polygon class="st4" points="18.53,737.35 34.61,737.35 26.58,726.71 		"/>
	</g>
	<g>
		<polygon class="st4" points="18.53,642.91 34.61,642.91 26.58,632.27 		"/>
	</g>
	<g>
		<polygon class="st4" points="18.53,664.07 34.61,664.07 26.58,653.43 		"/>
	</g>
	<g>
		<polygon class="st4" points="18.53,685.22 34.61,685.22 26.58,674.59 		"/>
	</g>
	<g>
		<polygon class="st4" points="18.53,621.75 34.61,621.75 26.58,611.11 		"/>
	</g>
	<g>
		<polygon class="st4" points="18.53,523.09 34.61,523.09 26.58,512.45 		"/>
	</g>
	<g>
		<polygon class="st4" points="18.53,544.24 34.61,544.24 26.58,533.61 		"/>
	</g>
	<g>
		<polygon class="st4" points="18.53,565.4 34.61,565.4 26.58,554.77 		"/>
	</g>
	<g>
		<polygon class="st4" points="18.53,501.93 34.61,501.93 26.58,491.29 		"/>
	</g>
	<g>
		<polygon class="st4" points="18.53,404.67 34.61,404.67 26.58,394.03 		"/>
	</g>
	<g>
		<polygon class="st4" points="18.53,425.83 34.61,425.83 26.58,415.19 		"/>
	</g>
	<g>
		<polygon class="st4" points="18.53,446.99 34.61,446.99 26.58,436.35 		"/>
	</g>
	<g>
		<polygon class="st4" points="18.53,383.51 34.61,383.51 26.58,372.87 		"/>
	</g>
	<g>
		<polygon class="st4" points="18.53,289.07 34.61,289.07 26.58,278.43 		"/>
	</g>
	<g>
		<polygon class="st4" points="18.53,310.23 34.61,310.23 26.58,299.59 		"/>
	</g>
	<g>
		<polygon class="st4" points="18.53,331.39 34.61,331.39 26.58,320.75 		"/>
	</g>
	<g>
		<polygon class="st4" points="18.53,267.91 34.61,267.91 26.58,257.27 		"/>
	</g>
	<g>
		<polygon class="st4" points="18.53,172.06 34.61,172.06 26.58,161.42 		"/>
	</g>
	<g>
		<polygon class="st4" points="18.53,193.22 34.61,193.22 26.58,182.58 		"/>
	</g>
	<g>
		<polygon class="st4" points="18.53,214.38 34.61,214.38 26.58,203.74 		"/>
	</g>
	<g>
		<polygon class="st4" points="18.53,150.9 34.61,150.9 26.58,140.26 		"/>
	</g>
</g>
</svg>
