<?xml version="1.0" encoding="UTF-8"?> <svg xmlns="http://www.w3.org/2000/svg" xmlns:xlink="http://www.w3.org/1999/xlink" version="1.1" id="Ebene_1" x="0px" y="0px" viewBox="0 0 183 129" style="enable-background:new 0 0 183 129;" xml:space="preserve"> <style type="text/css"> .st0{fill:#93B1DD;} .st1{fill:#6093CD;} .st2{fill:none;stroke:#2A2C68;stroke-width:0.6;stroke-linejoin:round;} .st3{fill:none;stroke:#2A2C68;stroke-width:0.6;} .st4{fill:#FFFFFF;} .st5{font-family:'DINPro-Bold';} .st6{font-size:13px;} .st7{fill:#2A2C68;} .st8{font-family:'DINPro-Medium';} .st9{font-size:9.5px;} </style> <g id="Layer-1_50_"> <path class="st0" d="M3.1,125.8h8.6V21.1H3.1V125.8z"></path> </g> <g id="Layer-1_51_"> <path class="st1" d="M3.1,22.3h176.7V1.5H3.1V22.3z"></path> </g> <g id="Layer-1_52_"> <path class="st2" d="M2.6,126.3h177.2V2H2.6V126.3z"></path> </g> <g id="Layer-1_53_"> <path class="st3" d="M2.1,22.3h177.2"></path> </g> <g id="Layer-1_54_"> <text transform="matrix(1 0 0 1 22.4356 15.2628)" class="st4 st5 st6">H</text> <text transform="matrix(1 0 0 1 31.6006 15.2628)" class="st4 st5 st6">a</text> <text transform="matrix(1 0 0 1 38.8026 15.2628)" class="st4 st5 st6">u</text> <text transform="matrix(1 0 0 1 46.5116 15.2628)" class="st4 st5 st6">p</text> <text transform="matrix(1 0 0 1 54.0516 15.2628)" class="st4 st5 st6">t</text> <text transform="matrix(1 0 0 1 58.8226 15.2628)" class="st4 st5 st6">s</text> <text transform="matrix(1 0 0 1 65.5956 15.2628)" class="st4 st5 st6">c</text> <text transform="matrix(1 0 0 1 72.0956 15.2628)" class="st4 st5 st6">h</text> <text transform="matrix(1 0 0 1 79.8046 15.2628)" class="st4 st5 st6">u</text> <text transform="matrix(1 0 0 1 87.5136 15.2628)" class="st4 st5 st6">l</text> <text transform="matrix(1 0 0 1 91.9986 15.2628)" class="st4 st5 st6">a</text> <text transform="matrix(1 0 0 1 99.2006 15.2628)" class="st4 st5 st6">b</text> <text transform="matrix(1 0 0 1 106.7406 15.2628)" class="st4 st5 st6">s</text> <text transform="matrix(1 0 0 1 113.5136 15.2628)" class="st4 st5 st6">c</text> <text transform="matrix(1 0 0 1 120.0136 15.2628)" class="st4 st5 st6">h</text> <text transform="matrix(1 0 0 1 127.7226 15.2628)" class="st4 st5 st6">l</text> <text transform="matrix(1 0 0 1 132.2076 15.2628)" class="st4 st5 st6">u</text> <text transform="matrix(1 0 0 1 139.9166 15.2628)" class="st4 st5 st6">s</text> <text transform="matrix(1 0 0 1 146.6246 15.2628)" class="st4 st5 st6">s</text> </g> <g id="Layer-1_55_"> <path class="st2" d="M2.6,43.1h176.7"></path> </g> <g id="Layer-1_56_"> <path class="st2" d="M2.6,63.4h176.7"></path> </g> <g id="Layer-1_57_"> <path class="st2" d="M2.6,85.2h176.7"></path> </g> <g id="Layer-1_58_"> <path class="st2" d="M2.6,106h176.7"></path> </g> <g id="Layer-1_59_"> <text transform="matrix(1 0 0 1 54.9024 119.6845)" class="st7 st8 st9">K</text> <text transform="matrix(1 0 0 1 61.2484 119.6845)" class="st7 st8 st9">l</text> <text transform="matrix(1 0 0 1 64.2979 119.6845)" class="st7 st8 st9">a</text> <text transform="matrix(1 0 0 1 69.4279 119.6845)" class="st7 st8 st9">s</text> <text transform="matrix(1 0 0 1 74.2159 119.6845)" class="st7 st8 st9">s</text> <text transform="matrix(1 0 0 1 79.0514 119.6845)" class="st7 st8 st9">e</text> <text transform="matrix(1 0 0 1 84.2669 119.6845)" class="st7 st8 st9"> </text> <text transform="matrix(1 0 0 1 86.6419 119.6845)" class="st7 st8 st9">5</text> <text transform="matrix(1 0 0 1 91.8004 119.6845)" class="st7 st8 st9"> </text> <text transform="matrix(1 0 0 1 94.1754 119.6845)" class="st7 st8 st9">/</text> <text transform="matrix(1 0 0 1 97.8804 119.6845)" class="st7 st8 st9"> </text> <text transform="matrix(1 0 0 1 100.2554 119.6845)" class="st7 st8 st9">Y</text> <text transform="matrix(1 0 0 1 104.9009 119.6845)" class="st7 st8 st9">e</text> <text transform="matrix(1 0 0 1 110.1164 119.6845)" class="st7 st8 st9">a</text> <text transform="matrix(1 0 0 1 115.2464 119.6845)" class="st7 st8 st9">r</text> <text transform="matrix(1 0 0 1 119.5119 119.6845)" class="st7 st8 st9"> </text> <text transform="matrix(1 0 0 1 121.8869 119.6845)" class="st7 st8 st9">5</text> </g> <g id="Layer-1_60_"> <text transform="matrix(1 0 0 1 54.9024 99.8844)" class="st7 st8 st9">K</text> <text transform="matrix(1 0 0 1 61.2484 99.8844)" class="st7 st8 st9">l</text> <text transform="matrix(1 0 0 1 64.2979 99.8844)" class="st7 st8 st9">a</text> <text transform="matrix(1 0 0 1 69.4279 99.8844)" class="st7 st8 st9">s</text> <text transform="matrix(1 0 0 1 74.2159 99.8844)" class="st7 st8 st9">s</text> <text transform="matrix(1 0 0 1 79.0514 99.8844)" class="st7 st8 st9">e</text> <text transform="matrix(1 0 0 1 84.2669 99.8844)" class="st7 st8 st9"> </text> <text transform="matrix(1 0 0 1 86.6419 99.8844)" class="st7 st8 st9">6</text> <text transform="matrix(1 0 0 1 91.8004 99.8844)" class="st7 st8 st9"> </text> <text transform="matrix(1 0 0 1 94.1754 99.8844)" class="st7 st8 st9">/</text> <text transform="matrix(1 0 0 1 97.8804 99.8844)" class="st7 st8 st9"> </text> <text transform="matrix(1 0 0 1 100.2554 99.8844)" class="st7 st8 st9">Y</text> <text transform="matrix(1 0 0 1 104.9009 99.8844)" class="st7 st8 st9">e</text> <text transform="matrix(1 0 0 1 110.1164 99.8844)" class="st7 st8 st9">a</text> <text transform="matrix(1 0 0 1 115.2464 99.8844)" class="st7 st8 st9">r</text> <text transform="matrix(1 0 0 1 119.5119 99.8844)" class="st7 st8 st9"> </text> <text transform="matrix(1 0 0 1 121.8869 99.8844)" class="st7 st8 st9">6</text> </g> <g id="Layer-1_61_"> <text transform="matrix(1 0 0 1 54.9024 78.0844)" class="st7 st8 st9">K</text> <text transform="matrix(1 0 0 1 61.2484 78.0844)" class="st7 st8 st9">l</text> <text transform="matrix(1 0 0 1 64.2979 78.0844)" class="st7 st8 st9">a</text> <text transform="matrix(1 0 0 1 69.4279 78.0844)" class="st7 st8 st9">s</text> <text transform="matrix(1 0 0 1 74.2159 78.0844)" class="st7 st8 st9">s</text> <text transform="matrix(1 0 0 1 79.0514 78.0844)" class="st7 st8 st9">e</text> <text transform="matrix(1 0 0 1 84.2669 78.0844)" class="st7 st8 st9"> </text> <text transform="matrix(1 0 0 1 86.6419 78.0844)" class="st7 st8 st9">7</text> <text transform="matrix(1 0 0 1 91.8004 78.0844)" class="st7 st8 st9"> </text> <text transform="matrix(1 0 0 1 94.1754 78.0844)" class="st7 st8 st9">/</text> <text transform="matrix(1 0 0 1 97.8804 78.0844)" class="st7 st8 st9"> </text> <text transform="matrix(1 0 0 1 100.2554 78.0844)" class="st7 st8 st9">Y</text> <text transform="matrix(1 0 0 1 104.9009 78.0844)" class="st7 st8 st9">e</text> <text transform="matrix(1 0 0 1 110.1164 78.0844)" class="st7 st8 st9">a</text> <text transform="matrix(1 0 0 1 115.2464 78.0844)" class="st7 st8 st9">r</text> <text transform="matrix(1 0 0 1 119.5119 78.0844)" class="st7 st8 st9"> </text> <text transform="matrix(1 0 0 1 121.8869 78.0844)" class="st7 st8 st9">7</text> </g> <g id="Layer-1_62_"> <text transform="matrix(1 0 0 1 54.9024 57.5345)" class="st7 st8 st9">K</text> <text transform="matrix(1 0 0 1 61.2484 57.5345)" class="st7 st8 st9">l</text> <text transform="matrix(1 0 0 1 64.2979 57.5345)" class="st7 st8 st9">a</text> <text transform="matrix(1 0 0 1 69.4279 57.5345)" class="st7 st8 st9">s</text> <text transform="matrix(1 0 0 1 74.2159 57.5345)" class="st7 st8 st9">s</text> <text transform="matrix(1 0 0 1 79.0514 57.5345)" class="st7 st8 st9">e</text> <text transform="matrix(1 0 0 1 84.2669 57.5345)" class="st7 st8 st9"> </text> <text transform="matrix(1 0 0 1 86.6419 57.5345)" class="st7 st8 st9">8</text> <text transform="matrix(1 0 0 1 91.8004 57.5345)" class="st7 st8 st9"> </text> <text transform="matrix(1 0 0 1 94.1754 57.5345)" class="st7 st8 st9">/</text> <text transform="matrix(1 0 0 1 97.8804 57.5345)" class="st7 st8 st9"> </text> <text transform="matrix(1 0 0 1 100.2554 57.5345)" class="st7 st8 st9">Y</text> <text transform="matrix(1 0 0 1 104.9009 57.5345)" class="st7 st8 st9">e</text> <text transform="matrix(1 0 0 1 110.1164 57.5345)" class="st7 st8 st9">a</text> <text transform="matrix(1 0 0 1 115.2464 57.5345)" class="st7 st8 st9">r</text> <text transform="matrix(1 0 0 1 119.5119 57.5345)" class="st7 st8 st9"> </text> <text transform="matrix(1 0 0 1 121.8869 57.5345)" class="st7 st8 st9">8</text> </g> <g id="Layer-1_63_"> <text transform="matrix(1 0 0 1 54.9024 36.9845)" class="st7 st8 st9">K</text> <text transform="matrix(1 0 0 1 61.2484 36.9845)" class="st7 st8 st9">l</text> <text transform="matrix(1 0 0 1 64.2979 36.9845)" class="st7 st8 st9">a</text> <text transform="matrix(1 0 0 1 69.4279 36.9845)" class="st7 st8 st9">s</text> <text transform="matrix(1 0 0 1 74.2159 36.9845)" class="st7 st8 st9">s</text> <text transform="matrix(1 0 0 1 79.0514 36.9845)" class="st7 st8 st9">e</text> <text transform="matrix(1 0 0 1 84.2669 36.9845)" class="st7 st8 st9"> </text> <text transform="matrix(1 0 0 1 86.6419 36.9845)" class="st7 st8 st9">9</text> <text transform="matrix(1 0 0 1 91.8004 36.9845)" class="st7 st8 st9"> </text> <text transform="matrix(1 0 0 1 94.1754 36.9845)" class="st7 st8 st9">/</text> <text transform="matrix(1 0 0 1 97.8804 36.9845)" class="st7 st8 st9"> </text> <text transform="matrix(1 0 0 1 100.2554 36.9845)" class="st7 st8 st9">Y</text> <text transform="matrix(1 0 0 1 104.9009 36.9845)" class="st7 st8 st9">e</text> <text transform="matrix(1 0 0 1 110.1164 36.9845)" class="st7 st8 st9">a</text> <text transform="matrix(1 0 0 1 115.2464 36.9845)" class="st7 st8 st9">r</text> <text transform="matrix(1 0 0 1 119.5119 36.9845)" class="st7 st8 st9"> </text> <text transform="matrix(1 0 0 1 121.8869 36.9845)" class="st7 st8 st9">9</text> </g> <g id="Layer-1_64_"> <path class="st4" d="M6,115.2h2.9l-1.4-1.9L6,115.2z"></path> <path class="st4" d="M6,119h2.9l-1.4-1.9L6,119z"></path> <path class="st4" d="M6,122.8h2.9l-1.4-1.9L6,122.8z"></path> <path class="st4" d="M6,111.5h2.9l-1.4-1.9L6,111.5z"></path> </g> <g id="Layer-1_65_"> <path class="st4" d="M6,94.7h2.9l-1.4-1.9L6,94.7z"></path> <path class="st4" d="M6,98.4h2.9l-1.4-1.9L6,98.4z"></path> <path class="st4" d="M6,102.2h2.9l-1.4-1.9L6,102.2z"></path> <path class="st4" d="M6,90.9h2.9L7.4,89L6,90.9z"></path> </g> <g id="Layer-1_66_"> <path class="st4" d="M6,73.4h2.9l-1.4-1.9L6,73.4z"></path> <path class="st4" d="M6,77.1h2.9l-1.4-1.9L6,77.1z"></path> <path class="st4" d="M6,80.9h2.9L7.4,79L6,80.9z"></path> <path class="st4" d="M6,69.6h2.9l-1.4-1.9L6,69.6z"></path> </g> <g id="Layer-1_67_"> <path class="st4" d="M6,52.3h2.9l-1.4-1.9L6,52.3z"></path> <path class="st4" d="M6,56.1h2.9l-1.4-1.9L6,56.1z"></path> <path class="st4" d="M6,59.8h2.9L7.4,58L6,59.8z"></path> <path class="st4" d="M6,48.6h2.9l-1.4-1.9L6,48.6z"></path> </g> <g id="Layer-1_68_"> <path class="st4" d="M6,31.8h2.9l-1.4-1.9L6,31.8z"></path> <path class="st4" d="M6,35.5h2.9l-1.4-1.9L6,35.5z"></path> <path class="st4" d="M6,39.3h2.9l-1.4-1.9L6,39.3z"></path> <path class="st4" d="M6,28h2.9l-1.4-1.9L6,28z"></path> </g> </svg> 