<?xml version="1.0" encoding="utf-8"?>
<!-- Generator: Adobe Illustrator 26.2.1, SVG Export Plug-In . SVG Version: 6.00 Build 0)  -->
<svg version="1.1" id="Ebene_1" xmlns="http://www.w3.org/2000/svg" xmlns:xlink="http://www.w3.org/1999/xlink" x="0px" y="0px"
	 viewBox="0 0 1000 935.58" style="enable-background:new 0 0 1000 935.58;" xml:space="preserve">
<style type="text/css">
	.st0{fill:#A2B9E1;}
	.st1{fill:#6796CF;}
	.st2{clip-path:url(#SVGID_00000029745055331511375250000016224185295188184998_);}
	.st3{fill:#2B2961;}
	.st4{fill:#FFFFFF;}
	.st5{clip-path:url(#SVGID_00000043426778466428714880000001629624994738954389_);}
	.st6{clip-path:url(#SVGID_00000083070116987654668330000014115171468893276801_);}
	.st7{clip-path:url(#SVGID_00000128479627156745440180000011335011408505196685_);}
	.st8{clip-path:url(#SVGID_00000056414456212918169280000012258759904052802483_);}
	.st9{clip-path:url(#SVGID_00000062168036637785849360000016115968891468883076_);}
	.st10{opacity:0.52;clip-path:url(#SVGID_00000034075455844797120240000008123300518043936940_);}
	.st11{clip-path:url(#SVGID_00000138553187849810439620000011033377829573494718_);}
	.st12{clip-path:url(#SVGID_00000016043766739610315880000016314500320863557810_);}
	.st13{clip-path:url(#SVGID_00000159435436282860467910000006314527414245772704_);}
	.st14{clip-path:url(#SVGID_00000075850354475634469420000013169521958091765923_);}
	.st15{clip-path:url(#SVGID_00000100340942989500609940000001019122577229017529_);}
	.st16{clip-path:url(#SVGID_00000144328538713256901960000006731779284115482769_);}
	.st17{clip-path:url(#SVGID_00000034792948094090242800000014806536471794055084_);}
	.st18{clip-path:url(#SVGID_00000122698389716761321240000017230505823127310988_);}
	.st19{clip-path:url(#SVGID_00000041291572411538309850000011226497423759003838_);}
	.st20{clip-path:url(#SVGID_00000060013683699007289760000015756556925970128831_);}
	.st21{clip-path:url(#SVGID_00000095303495359303492480000010199473120227128237_);}
	.st22{clip-path:url(#SVGID_00000008149823142312426780000000101519503116629144_);}
	.st23{fill:none;stroke:#2B2961;stroke-width:0.374;stroke-linejoin:round;stroke-miterlimit:10;}
	.st24{fill:none;stroke:#2B2961;stroke-width:0.4;stroke-miterlimit:10;}
	.st25{clip-path:url(#SVGID_00000085215542555099334220000009030991227467003036_);}
	.st26{clip-path:url(#SVGID_00000048463404454335693810000011341973055162174137_);}
	.st27{clip-path:url(#SVGID_00000011024678006348561780000005604615729005489333_);}
	.st28{clip-path:url(#SVGID_00000129177381094640424310000000043910571614420882_);}
	.st29{clip-path:url(#SVGID_00000076606206327280239470000015975605557900953261_);}
	.st30{clip-path:url(#SVGID_00000009549966622207801810000000866080356015922607_);}
	.st31{clip-path:url(#SVGID_00000141431958784502223350000005543066147833551264_);}
	.st32{clip-path:url(#SVGID_00000070809558691514523320000011517158791663703470_);}
	.st33{clip-path:url(#SVGID_00000145749243038108518760000005953153419417837487_);}
	.st34{clip-path:url(#SVGID_00000072273920264202313640000010868467338639649438_);}
	.st35{clip-path:url(#SVGID_00000127023385509357808480000009593754309884253317_);}
	.st36{clip-path:url(#SVGID_00000068640264358704481980000009043177785244599227_);}
	.st37{clip-path:url(#SVGID_00000098222750810754054100000009100019219439802033_);}
	.st38{clip-path:url(#SVGID_00000043431849442108353500000008884414229911239567_);}
	.st39{clip-path:url(#SVGID_00000060014418084206958380000009393729018609018004_);}
	.st40{clip-path:url(#SVGID_00000132800079911618117260000007507573911893236100_);}
	.st41{clip-path:url(#SVGID_00000050661981437641489530000009669994305066286780_);}
	.st42{clip-path:url(#SVGID_00000170246440986925581540000001944200955506274236_);}
	.st43{clip-path:url(#SVGID_00000083053591865978768310000016524220275112243613_);}
	.st44{clip-path:url(#SVGID_00000016063842035050932510000012400015834731753131_);}
	.st45{clip-path:url(#SVGID_00000164494158459443799410000003245471054797361840_);}
	.st46{clip-path:url(#SVGID_00000181776273089577670200000013266578127958057390_);}
	.st47{clip-path:url(#SVGID_00000155832243789551204520000002377836055987692984_);}
	.st48{clip-path:url(#SVGID_00000105399767785979091030000013987284680679877525_);}
	.st49{clip-path:url(#SVGID_00000026127496853809216900000007380748162170404526_);}
	.st50{clip-path:url(#SVGID_00000170966357912856364990000006364661262967502248_);}
	.st51{clip-path:url(#SVGID_00000075162199880011072750000008604682686605190829_);}
	.st52{clip-path:url(#SVGID_00000081607818194876255160000003882836597597714063_);}
	.st53{clip-path:url(#SVGID_00000176748610353912973200000012401961163311252102_);}
	.st54{clip-path:url(#SVGID_00000165952269210838795370000001406879594591015587_);}
	.st55{clip-path:url(#SVGID_00000107577635444597635330000004911465762561439405_);}
	.st56{clip-path:url(#SVGID_00000065073710954136537550000012754236820201516192_);}
	.st57{clip-path:url(#SVGID_00000007408023884835742250000002908917992425158077_);}
	.st58{clip-path:url(#SVGID_00000151508785336242970200000001759593917697204129_);}
	.st59{clip-path:url(#SVGID_00000065051754136290690240000010921035873398506118_);}
	.st60{clip-path:url(#SVGID_00000152249128049049297720000012537538312961974163_);}
	.st61{clip-path:url(#SVGID_00000123406190859227948070000010275705221170530195_);}
	.st62{fill:#9AB4DE;}
	.st63{clip-path:url(#SVGID_00000088818480822671315690000006180674037424627072_);}
	.st64{clip-path:url(#SVGID_00000034795003933036396930000008229602240572362401_);}
	.st65{clip-path:url(#SVGID_00000018924480383566863580000013747212499655167896_);}
	.st66{fill:#B9C9E9;}
	.st67{clip-path:url(#SVGID_00000157293915826486736480000011871738023253566617_);}
	.st68{clip-path:url(#SVGID_00000145028682822953902520000009626782839987532966_);}
	.st69{clip-path:url(#SVGID_00000062187653613707919190000015414545265636698524_);}
	.st70{clip-path:url(#SVGID_00000183944384087702272620000006677011546854990777_);}
	.st71{clip-path:url(#SVGID_00000005247913507283104240000017285976505509503112_);}
	.st72{clip-path:url(#SVGID_00000131338491791552522450000013994604746931256713_);}
	.st73{clip-path:url(#SVGID_00000069390175145100952030000006958274341770776203_);}
	.st74{clip-path:url(#SVGID_00000133509772075340275420000012696115834763527613_);}
	.st75{clip-path:url(#SVGID_00000051366696728457515020000014468736173422806412_);}
	.st76{clip-path:url(#SVGID_00000157283162621241450620000000308117154171868863_);}
	.st77{clip-path:url(#SVGID_00000150816873498774900380000016826557626424909460_);}
	.st78{clip-path:url(#SVGID_00000011750245079981593260000009727846685706959763_);}
	.st79{clip-path:url(#SVGID_00000093883899488157102930000002541296827056754616_);}
	.st80{clip-path:url(#SVGID_00000027586086761943761140000007192270707432094653_);}
	.st81{clip-path:url(#SVGID_00000155129172787152964270000012720762175999148212_);}
	.st82{clip-path:url(#SVGID_00000139275664989376749210000017105894436298458541_);}
	.st83{clip-path:url(#SVGID_00000163765450308921818230000008164343736454073769_);}
	.st84{clip-path:url(#SVGID_00000083804362597870492470000007362305614046091648_);}
	.st85{clip-path:url(#SVGID_00000041258510302266207830000007913077001739863463_);}
	.st86{clip-path:url(#SVGID_00000014608457619518477310000006613454888055035027_);}
	.st87{clip-path:url(#SVGID_00000090980925142829741660000001076288622502195849_);}
	.st88{clip-path:url(#SVGID_00000033349764372392471810000006269157575791119245_);}
	.st89{clip-path:url(#SVGID_00000121263805194392821820000009036439365194477963_);}
	.st90{clip-path:url(#SVGID_00000008860567974658313390000001300394390319310518_);}
	.st91{clip-path:url(#SVGID_00000134929195191937344220000018376625483564897696_);}
	.st92{clip-path:url(#SVGID_00000032613943770998963150000016245086061267831742_);}
	.st93{clip-path:url(#SVGID_00000107583951069771066420000006097220068913267633_);}
	.st94{clip-path:url(#SVGID_00000101815583672247391760000015978331725405332102_);}
	.st95{clip-path:url(#SVGID_00000169554621854341051020000011086796862452498096_);}
	.st96{clip-path:url(#SVGID_00000025416473355823546140000016937702190547585204_);}
	.st97{clip-path:url(#SVGID_00000089535143582926414730000004747440061352284544_);}
	.st98{clip-path:url(#SVGID_00000164505025934521416000000017493960585283533717_);}
	.st99{clip-path:url(#SVGID_00000155129794316127337400000012839087593572576696_);}
	.st100{clip-path:url(#SVGID_00000077302792008664911760000011652822775044291238_);}
	.st101{clip-path:url(#SVGID_00000078738244680133377000000017757950958088920994_);}
	.st102{clip-path:url(#SVGID_00000101816480096012311910000000156235948139686294_);}
	.st103{clip-path:url(#SVGID_00000145058217878285734260000015918649122995073685_);}
	.st104{clip-path:url(#SVGID_00000139277038678031230260000017004970827930745239_);}
	.st105{clip-path:url(#SVGID_00000002344592114642061290000002016921874536185740_);}
	.st106{clip-path:url(#SVGID_00000022545698217404173730000005281254034553967241_);}
	.st107{clip-path:url(#SVGID_00000097460933375050829840000016705147680455711109_);}
	.st108{clip-path:url(#SVGID_00000178197572676852865990000009965238411662572222_);}
	.st109{clip-path:url(#SVGID_00000094617455787473121340000007021785372816375444_);}
	.st110{clip-path:url(#SVGID_00000075148262138605246930000012697866143989256618_);}
	.st111{clip-path:url(#SVGID_00000178179165617572721670000014740146693892854171_);}
	.st112{clip-path:url(#SVGID_00000165916833671207069520000004477070226296686743_);}
	.st113{clip-path:url(#SVGID_00000041280517068583536340000013290109635439282334_);}
	.st114{clip-path:url(#SVGID_00000151509599092891595750000012791404632076114591_);}
	.st115{clip-path:url(#SVGID_00000019669712179294832260000015771690660965819826_);}
	.st116{clip-path:url(#SVGID_00000000919946918026981640000010166576021751995032_);}
	.st117{clip-path:url(#SVGID_00000007397737020079603420000008373313378109473704_);}
	.st118{clip-path:url(#SVGID_00000156567676648742536880000016604575840031890099_);}
	.st119{clip-path:url(#SVGID_00000058582367941975107050000006880035555774646156_);}
	.st120{clip-path:url(#SVGID_00000019654478107369950510000016311837118579904902_);}
	.st121{clip-path:url(#SVGID_00000037651956299347948910000006716892395918420656_);}
	.st122{clip-path:url(#SVGID_00000170270084463071500060000000368013348843521456_);}
	.st123{clip-path:url(#SVGID_00000050642622392348463320000011889817648305343933_);}
	.st124{clip-path:url(#SVGID_00000122696513303176347900000012847314418205386920_);}
	.st125{clip-path:url(#SVGID_00000152252930980230440620000007265459876800575105_);}
	.st126{clip-path:url(#SVGID_00000150102661853795092370000002345867284889305256_);}
	.st127{clip-path:url(#SVGID_00000165193378788243921970000003093695208638558359_);}
	.st128{clip-path:url(#SVGID_00000179642664029353379590000013601531687559849394_);}
	.st129{clip-path:url(#SVGID_00000000190610085840408150000014526091466936186259_);}
	.st130{clip-path:url(#SVGID_00000085239842343428116810000016444005305449414312_);}
	.st131{clip-path:url(#SVGID_00000140002526637097171430000009978610374809940359_);}
	.st132{clip-path:url(#SVGID_00000068677910682252423330000017312081830529748671_);}
	.st133{clip-path:url(#SVGID_00000100345520378651757500000000346598869245690023_);}
	.st134{clip-path:url(#SVGID_00000030471751484431707830000012472233350339870867_);}
	.st135{clip-path:url(#SVGID_00000038386499165963287940000006493190970858789537_);}
	.st136{clip-path:url(#SVGID_00000050635926788832875160000005646789763724939934_);}
	.st137{clip-path:url(#SVGID_00000101097507543636510410000015647890586406206370_);}
	.st138{clip-path:url(#SVGID_00000182494028940278138390000010145632187724701844_);}
	.st139{clip-path:url(#SVGID_00000157282299069403877660000010330165580208854449_);}
	.st140{clip-path:url(#SVGID_00000021814956508266482730000007379440793418880913_);}
	.st141{clip-path:url(#SVGID_00000068654470541698790570000001439124734812064907_);}
	.st142{clip-path:url(#SVGID_00000160164370142717536260000004222178567424356264_);}
	.st143{clip-path:url(#SVGID_00000160152948602871765920000006506518555615279507_);}
	.st144{clip-path:url(#SVGID_00000145749739015695428160000004533033235759164802_);}
	.st145{clip-path:url(#SVGID_00000111913547124936981000000013690077417545625223_);}
	.st146{clip-path:url(#SVGID_00000012460207783012836770000017593263031666421914_);}
	.st147{clip-path:url(#SVGID_00000163047868890634775260000005379549826303894191_);}
	.st148{clip-path:url(#SVGID_00000165957029377700734940000006883352421203745958_);}
	.st149{clip-path:url(#SVGID_00000152981991435049080570000010245189978896284802_);}
	.st150{clip-path:url(#SVGID_00000145737775787158383280000014014382406243938454_);}
	.st151{clip-path:url(#SVGID_00000097476263130718833350000017850819924705706917_);}
	.st152{clip-path:url(#SVGID_00000153693608020378944250000003363340629171051157_);}
	.st153{clip-path:url(#SVGID_00000030450980621957329960000018150582398356874120_);}
	.st154{clip-path:url(#SVGID_00000123438619124909650010000017485574079575625365_);}
	.st155{clip-path:url(#SVGID_00000055695641790558547330000016789325280452715691_);}
	.st156{clip-path:url(#SVGID_00000049199854476746975640000011565870236212006279_);}
	.st157{clip-path:url(#SVGID_00000062159595130457075390000001570913850593842352_);}
	.st158{clip-path:url(#SVGID_00000169553359870666138610000000216362451454709383_);}
	.st159{clip-path:url(#SVGID_00000013871852312834644750000013114026044914694787_);}
	.st160{clip-path:url(#SVGID_00000135691844240583636930000009006380376124354198_);}
	.st161{clip-path:url(#SVGID_00000125579941728795968100000015620157825454119822_);}
	.st162{clip-path:url(#SVGID_00000083064526574817185560000017302581273061291908_);}
	.st163{clip-path:url(#SVGID_00000113350044979150166050000013427316336507455360_);}
	.st164{clip-path:url(#SVGID_00000112612144053952929030000009641875821337339024_);}
	.st165{clip-path:url(#SVGID_00000058589511131698887110000002808179768667577774_);}
	.st166{clip-path:url(#SVGID_00000043429058982519116430000005659145369371482025_);}
	.st167{clip-path:url(#SVGID_00000081638715443080100910000002886257394140043404_);}
	.st168{clip-path:url(#SVGID_00000175298505998507339170000016209180837569515704_);}
	.st169{clip-path:url(#SVGID_00000023249400003225900240000004503920692786636476_);}
	.st170{clip-path:url(#SVGID_00000092422031296022316810000004849820454116887944_);}
	.st171{clip-path:url(#SVGID_00000176762751496448953370000004502592335450212280_);}
	.st172{clip-path:url(#SVGID_00000093865029054424699100000007452148572177036223_);}
	.st173{clip-path:url(#SVGID_00000064325565485589789950000007449145025243117713_);}
	.st174{clip-path:url(#SVGID_00000163042684617188738000000011603967570989771702_);}
	.st175{clip-path:url(#SVGID_00000055701638984850878410000005612749859727818657_);}
	.st176{clip-path:url(#SVGID_00000028319185757813159940000002425319665877913002_);}
	.st177{clip-path:url(#SVGID_00000049186914361166324490000017115948552434455949_);}
	.st178{clip-path:url(#SVGID_00000093148996649897818060000013457149957562076058_);}
	.st179{clip-path:url(#SVGID_00000073684541221343436830000016344351167972027042_);}
	.st180{clip-path:url(#SVGID_00000046315311537491485860000013749331968152983990_);}
	.st181{clip-path:url(#SVGID_00000039828597544741090260000007984801797308143526_);}
	.st182{clip-path:url(#SVGID_00000091733741541571054850000017373217729316638113_);}
	.st183{clip-path:url(#SVGID_00000121980660226482057610000000094041301480922809_);}
	.st184{clip-path:url(#SVGID_00000113351215822136891300000017045003426083413672_);}
	.st185{clip-path:url(#SVGID_00000078759964027523874650000003413941556229375151_);}
	.st186{clip-path:url(#SVGID_00000171715440504522108960000010806599838160507806_);}
	.st187{clip-path:url(#SVGID_00000103224562289899377720000017188268554355313330_);}
	.st188{clip-path:url(#SVGID_00000139996034354161624630000017942272403906875524_);}
	.st189{clip-path:url(#SVGID_00000102537192442498080690000012452638299207634103_);}
	.st190{clip-path:url(#SVGID_00000051341588586365618940000014004395342508877187_);}
	.st191{clip-path:url(#SVGID_00000039121007504443583900000007454230581827486116_);}
	.st192{clip-path:url(#SVGID_00000137131482031501100190000011899685417561543829_);}
	.st193{clip-path:url(#SVGID_00000181083021096076748810000004183635117525109399_);}
	.st194{clip-path:url(#SVGID_00000166667645845908501930000006151034214226084282_);}
	.st195{clip-path:url(#SVGID_00000036959071006694234020000000581404168628474250_);}
	.st196{clip-path:url(#SVGID_00000068641533723449387210000006920767634620629416_);}
	.st197{clip-path:url(#SVGID_00000129912962461476049350000003979459523582129078_);}
	.st198{clip-path:url(#SVGID_00000105410361667969382180000012103106062485848219_);}
	.st199{clip-path:url(#SVGID_00000095314968475101601480000007086409322556335025_);}
	.st200{clip-path:url(#SVGID_00000031924049964220308350000003371243283807592103_);}
	.st201{clip-path:url(#SVGID_00000170962722182614410510000005518136534838358968_);}
	.st202{clip-path:url(#SVGID_00000102524542584793638530000003633420215846591162_);}
	.st203{clip-path:url(#SVGID_00000035520263132359473970000018325771279381081223_);}
	.st204{clip-path:url(#SVGID_00000018221672737229783730000015124019611024752550_);}
	.st205{clip-path:url(#SVGID_00000078742071551000871600000002803149003715627169_);}
	.st206{clip-path:url(#SVGID_00000034772779249141836090000005450976101805701266_);}
	.st207{clip-path:url(#SVGID_00000099630974827073495310000008976886387631731116_);}
	.st208{clip-path:url(#SVGID_00000166671731924716046050000013181428041272194232_);}
	.st209{clip-path:url(#SVGID_00000010300005128449971120000005452207867516640410_);}
	.st210{clip-path:url(#SVGID_00000062894082565241076440000003213410744318796710_);}
	.st211{clip-path:url(#SVGID_00000126294687689823957960000015015544661988815261_);}
	.st212{clip-path:url(#SVGID_00000056386198672285108880000017142568532597401773_);}
	.st213{clip-path:url(#SVGID_00000181049222654633963780000013303449248283508870_);}
	.st214{clip-path:url(#SVGID_00000025436450219032142140000000000252078866687377_);}
	.st215{clip-path:url(#SVGID_00000145778069126820001520000011307148036904965011_);}
	.st216{clip-path:url(#SVGID_00000157991360527106396320000006677860614044489388_);}
	.st217{clip-path:url(#SVGID_00000134953707971136823000000005416673374903880092_);}
	.st218{clip-path:url(#SVGID_00000008130280897516416760000006027206664756842653_);}
	.st219{clip-path:url(#SVGID_00000005980543483962844530000009720027442854025380_);}
	.st220{clip-path:url(#SVGID_00000007425937494382169050000013327757279329591438_);}
	.st221{clip-path:url(#SVGID_00000125572266433583374440000001340099727690103688_);}
	.st222{clip-path:url(#SVGID_00000157278308133698023980000001987555852356145286_);}
	.st223{clip-path:url(#SVGID_00000008125672305612115550000010275569143936686504_);}
	.st224{clip-path:url(#SVGID_00000089566562164177254900000017301663664016965253_);}
	.st225{clip-path:url(#SVGID_00000136371958861638737420000001617883591770626457_);}
	.st226{clip-path:url(#SVGID_00000046303487008683034840000014905239899510655899_);}
	.st227{clip-path:url(#SVGID_00000050649925226640341140000003287759902619510196_);}
	.st228{clip-path:url(#SVGID_00000169539729633555410020000001793496960702327450_);}
	.st229{clip-path:url(#SVGID_00000142859843148774311270000013305340705733202059_);}
	.st230{clip-path:url(#SVGID_00000133516908112843491500000017032990082354495144_);}
	.st231{clip-path:url(#SVGID_00000135665675745797089860000015598946040746648982_);}
	.st232{clip-path:url(#SVGID_00000134937047309760255940000006915630027452551594_);}
	.st233{clip-path:url(#SVGID_00000029733409546198633070000004860896155351671994_);}
	.st234{clip-path:url(#SVGID_00000097476650963324187820000011463558750684425357_);}
	.st235{clip-path:url(#SVGID_00000045602607166845557610000014123533331915985328_);}
	.st236{clip-path:url(#SVGID_00000179629421289458641560000013676419094541600135_);}
	.st237{clip-path:url(#SVGID_00000060024306150677799420000014797303161221725332_);}
	.st238{clip-path:url(#SVGID_00000062186904390140632170000000806741253381266052_);}
	.st239{clip-path:url(#SVGID_00000093149017074977407530000011507817283749852349_);}
	.st240{clip-path:url(#SVGID_00000021082558971116630270000013317781813041427863_);}
	.st241{clip-path:url(#SVGID_00000093860711689035503360000017290204956170360468_);}
	.st242{clip-path:url(#SVGID_00000120543372135608307970000012256883278775164315_);}
	.st243{clip-path:url(#SVGID_00000079485926968850566290000005268425311021010874_);}
	.st244{clip-path:url(#SVGID_00000165937176072141253580000000308645769083919037_);}
	.st245{clip-path:url(#SVGID_00000181064123847401486360000012551709746091988389_);}
	.st246{clip-path:url(#SVGID_00000031187197645032042990000004997164524752290207_);}
	.st247{clip-path:url(#SVGID_00000141442906344852549440000006721288475039968155_);}
	.st248{clip-path:url(#SVGID_00000148660375626510746480000018041688153630601897_);}
	.st249{clip-path:url(#SVGID_00000151513167610740153310000009192579240182145449_);}
	.st250{clip-path:url(#SVGID_00000010277798700015054060000018180533817201136534_);}
	.st251{clip-path:url(#SVGID_00000000221595872659970330000002048720720861155252_);}
	.st252{clip-path:url(#SVGID_00000093863471013786895920000014110246628022240668_);}
	.st253{clip-path:url(#SVGID_00000052065073296216195980000011682701709727176591_);}
	.st254{clip-path:url(#SVGID_00000036941040488342633610000007449776236328128664_);}
	.st255{clip-path:url(#SVGID_00000104694434001119464090000001529853101709760697_);}
	.st256{clip-path:url(#SVGID_00000020391189589071398260000013699327330129651620_);}
	.st257{clip-path:url(#SVGID_00000140736400033423381580000016733152223639457427_);}
	.st258{clip-path:url(#SVGID_00000058549752630998620680000002926310116541381567_);}
	.st259{clip-path:url(#SVGID_00000152951542957189340270000008360795441201082815_);}
	.st260{clip-path:url(#SVGID_00000127011441406460810830000013707000193047126963_);}
	.st261{clip-path:url(#SVGID_00000133530470645486772060000009395660561725665442_);}
	.st262{clip-path:url(#SVGID_00000067214635550152939600000011984842458242901399_);}
	.st263{clip-path:url(#SVGID_00000172404972620342197510000018246611376377763489_);}
	.st264{clip-path:url(#SVGID_00000005249953403590757740000002481529869584604350_);}
	.st265{clip-path:url(#SVGID_00000112632795650065115480000011256020265440345772_);}
	.st266{clip-path:url(#SVGID_00000105401795532026290430000004813869214187516842_);}
	.st267{clip-path:url(#SVGID_00000119101288998617121170000009919394414413831309_);}
	.st268{clip-path:url(#SVGID_00000038392791908045168540000004461150520701811619_);}
	.st269{clip-path:url(#SVGID_00000091016455623117435840000009225750619586304948_);}
	.st270{clip-path:url(#SVGID_00000061446147326193847670000016547618921176697516_);}
	.st271{clip-path:url(#SVGID_00000162343040010326553830000007250870055828790161_);}
	.st272{clip-path:url(#SVGID_00000032625592907203998240000012804943609252679563_);}
	.st273{clip-path:url(#SVGID_00000147936789387977413100000008481211506302594482_);}
	.st274{clip-path:url(#SVGID_00000061469953822115301380000017754876819598367132_);}
	.st275{clip-path:url(#SVGID_00000145750399997189548810000017021899283332646032_);}
	.st276{clip-path:url(#SVGID_00000129885879903957701750000010174778038760495028_);}
	.st277{clip-path:url(#SVGID_00000066477838881631449360000000169261584196574138_);}
	.st278{clip-path:url(#SVGID_00000015352857814757028090000003803077765340243901_);}
	.st279{clip-path:url(#SVGID_00000039852411981049909480000012223982043979280035_);}
	.st280{clip-path:url(#SVGID_00000096772535296883378670000007119186230532858761_);}
	.st281{clip-path:url(#SVGID_00000082365473773736384580000009722670807340731069_);}
	.st282{clip-path:url(#SVGID_00000125583330927915360290000004016799022450481802_);}
	.st283{clip-path:url(#SVGID_00000183968728916957350120000010719788624049164980_);}
	.st284{clip-path:url(#SVGID_00000133506190473542240930000011467393519874116273_);}
	.st285{clip-path:url(#SVGID_00000083054089299487219640000014714842379373639312_);}
	.st286{clip-path:url(#SVGID_00000003084591432249980060000000009451660126122677_);}
	.st287{clip-path:url(#SVGID_00000091717241198423176450000013165247629871705271_);}
	.st288{clip-path:url(#SVGID_00000075873661235263908900000012066578617909256069_);}
	.st289{clip-path:url(#SVGID_00000134969704137504835190000012162299280464138173_);}
	.st290{clip-path:url(#SVGID_00000169554607285507446630000009215565057914506939_);}
	.st291{clip-path:url(#SVGID_00000023257419361712286720000014756828470751307650_);}
	.st292{clip-path:url(#SVGID_00000153701308667774620450000015633672846695248295_);}
	.st293{clip-path:url(#SVGID_00000170238862495927642430000000220983965704145042_);}
	.st294{clip-path:url(#SVGID_00000119088574938247436040000001521602099310644415_);}
	.st295{clip-path:url(#SVGID_00000050663210441392741420000016922477031377481873_);}
	.st296{clip-path:url(#SVGID_00000032607786399388043960000008899843698084272519_);}
	.st297{clip-path:url(#SVGID_00000105400859984866377440000011933226946867018407_);}
	.st298{clip-path:url(#SVGID_00000047041508587097415320000004534562454583715736_);}
	.st299{clip-path:url(#SVGID_00000001647448117360429010000011538232587271521194_);}
	.st300{clip-path:url(#SVGID_00000070817781354886123770000006437196924341344944_);}
	.st301{clip-path:url(#SVGID_00000078730803491983702560000000979244679240023185_);}
	.st302{clip-path:url(#SVGID_00000150810420421392901020000001951187905290718399_);}
	.st303{clip-path:url(#SVGID_00000033350577092577014990000005633680735278101385_);}
	.st304{clip-path:url(#SVGID_00000130630627484858889980000001757324386845836686_);}
	.st305{clip-path:url(#SVGID_00000021841940978389262710000005872858141920038275_);}
	.st306{clip-path:url(#SVGID_00000175286270820076888980000003485516222238962617_);}
	.st307{clip-path:url(#SVGID_00000155138501803413565460000016570245987589015956_);}
	.st308{clip-path:url(#SVGID_00000150810317830320021380000004157661791013129867_);}
	.st309{clip-path:url(#SVGID_00000024003767027880360340000010483434996842260650_);}
	.st310{clip-path:url(#SVGID_00000085970061879580470610000004756820659330388115_);}
	.st311{clip-path:url(#SVGID_00000139256088959756085180000006366870479176187058_);}
	.st312{clip-path:url(#SVGID_00000051360828262634643030000009900145365749529755_);}
	.st313{clip-path:url(#SVGID_00000003822118526034722610000002166781583326302601_);}
	.st314{clip-path:url(#SVGID_00000031928429679414257810000011373244210192441729_);}
	.st315{clip-path:url(#SVGID_00000100348838210881764110000009100834073500051628_);}
	.st316{clip-path:url(#SVGID_00000101102158450797831120000012625191411208808123_);}
	.st317{clip-path:url(#SVGID_00000063626302840317235900000002588326480346985385_);}
	.st318{clip-path:url(#SVGID_00000012446992376190417470000015891130797678416316_);}
	.st319{clip-path:url(#SVGID_00000145041170594613496230000009607888027904661640_);}
	.st320{clip-path:url(#SVGID_00000088135056473129286690000012063987765227875753_);}
	.st321{clip-path:url(#SVGID_00000175296012173328627550000011231883189398600853_);}
	.st322{clip-path:url(#SVGID_00000091703239699637580630000010649585190878362280_);}
	.st323{clip-path:url(#SVGID_00000081606043085179743250000008232110690102352812_);}
	.st324{clip-path:url(#SVGID_00000124158255758833971940000004448768867672244131_);}
	.st325{clip-path:url(#SVGID_00000145747573402565852240000004698260420151446931_);}
	.st326{clip-path:url(#SVGID_00000014620447889531416170000015189747080699528373_);}
	.st327{clip-path:url(#SVGID_00000153665005266845366740000010314583033734335411_);}
	.st328{clip-path:url(#SVGID_00000118394334241301757100000006067587889922738859_);}
	.st329{clip-path:url(#SVGID_00000137106800045047777200000005381278459398307492_);}
	.st330{clip-path:url(#SVGID_00000022559904886737122750000001412581058520116877_);}
	.st331{clip-path:url(#SVGID_00000049904050482874095760000002545111947219297203_);}
	.st332{clip-path:url(#SVGID_00000133525615833986903570000010886282333023725988_);}
	.st333{clip-path:url(#SVGID_00000162346646339176280940000001496573899851588485_);}
	.st334{clip-path:url(#SVGID_00000161592537751270649140000016712347432649790342_);}
	.st335{clip-path:url(#SVGID_00000088135385751877386880000003766782375283130026_);}
	.st336{clip-path:url(#SVGID_00000178181915277601179510000012355931800772834439_);}
	.st337{clip-path:url(#SVGID_00000089561630576937193230000003629973385458025106_);}
	.st338{clip-path:url(#SVGID_00000011710556688414791930000017946369496228331918_);}
	.st339{clip-path:url(#SVGID_00000031889339108713605820000003824201625238647731_);}
	.st340{clip-path:url(#SVGID_00000093886221243303621950000016641110915374820236_);}
	.st341{clip-path:url(#SVGID_00000129889784438042367580000017236555685719464365_);}
	.st342{clip-path:url(#SVGID_00000077305908591665593610000007619730438062836384_);}
	.st343{clip-path:url(#SVGID_00000111192524156767761710000009010308134049500812_);}
	.st344{clip-path:url(#SVGID_00000101809368703074333250000006250755061222618532_);}
	.st345{clip-path:url(#SVGID_00000141439782106382916170000015251557656278321298_);}
	.st346{clip-path:url(#SVGID_00000082353318496598013670000018376498270852968092_);}
	.st347{clip-path:url(#SVGID_00000009568949434213324540000008991764213313910695_);}
	.st348{clip-path:url(#SVGID_00000072997144249284869820000017548097667624445623_);}
	.st349{clip-path:url(#SVGID_00000083788214436424323100000005432674518681076149_);}
	.st350{clip-path:url(#SVGID_00000103248679223004112180000018011415582135909261_);}
	.st351{clip-path:url(#SVGID_00000173133046766301833030000009967464544830121383_);}
	.st352{clip-path:url(#SVGID_00000008116437876560347370000009385534129870881692_);}
	.st353{clip-path:url(#SVGID_00000098930309701246687290000001428816237328924591_);}
	.st354{clip-path:url(#SVGID_00000057111313011261029220000001132009715466240438_);}
	.st355{clip-path:url(#SVGID_00000012471927556229655220000016079552108480685232_);}
	.st356{clip-path:url(#SVGID_00000052813481135964344450000009522513073468414377_);}
	.st357{clip-path:url(#SVGID_00000158714471691619163710000007855922475707072397_);}
	.st358{clip-path:url(#SVGID_00000033340454681765281130000005780714953332045957_);}
	.st359{clip-path:url(#SVGID_00000126313381331165071130000015413385658464472487_);}
	.st360{clip-path:url(#SVGID_00000129912247793353402860000009035704823735217316_);}
	.st361{clip-path:url(#SVGID_00000000914476320317110140000006161195203705245884_);}
	.st362{clip-path:url(#SVGID_00000098186015520559900930000013159355384681305222_);}
	.st363{clip-path:url(#SVGID_00000018958342128129158600000012637083310369940613_);}
	.st364{clip-path:url(#SVGID_00000034774113454670194100000014238106735575631019_);}
	.st365{clip-path:url(#SVGID_00000006675284783246421070000005894182748713116325_);}
	.st366{clip-path:url(#SVGID_00000044864858897270297490000009422913855401142660_);}
	.st367{clip-path:url(#SVGID_00000031193977498087916330000001728174220945586878_);}
	.st368{clip-path:url(#SVGID_00000054243593701101123770000013001831224366603947_);}
	.st369{clip-path:url(#SVGID_00000063634082001466797260000016666459660989468570_);}
	.st370{clip-path:url(#SVGID_00000023258182202332231200000007729649040638011811_);}
	.st371{clip-path:url(#SVGID_00000146498641255526034530000002657194102708630188_);}
	.st372{clip-path:url(#SVGID_00000029042537051511136190000012665226345122841527_);}
	.st373{clip-path:url(#SVGID_00000069394618887967319470000008928839595516797627_);}
	.st374{clip-path:url(#SVGID_00000007414259379681339910000015717659218216890299_);}
	.st375{clip-path:url(#SVGID_00000053547248119970610900000002550245333609705393_);}
</style>
<g>
	<g>
		<g>
			<rect x="2.85" y="135.31" class="st0" width="48.54" height="795.77"/>
		</g>
	</g>
	<g>
		<g>
			<rect x="1.26" y="2.16" class="st1" width="997.9" height="134.44"/>
		</g>
	</g>
	<g>
		<defs>
			<rect id="SVGID_00000132809167188517027870000010039397834630020543_" width="1000" height="935.58"/>
		</defs>
		<clipPath id="SVGID_00000039093922634785765450000015260402087602083773_">
			<use xlink:href="#SVGID_00000132809167188517027870000010039397834630020543_"  style="overflow:visible;"/>
		</clipPath>
		<g style="clip-path:url(#SVGID_00000039093922634785765450000015260402087602083773_);">
			<g>
				<path class="st3" d="M997.19,935.58H1.69c-0.93,0-1.68-0.75-1.68-1.68V1.69C0,0.76,0.76,0,1.69,0h995.51
					c0.93,0,1.68,0.75,1.68,1.68v932.21C998.88,934.82,998.12,935.58,997.19,935.58z M3.37,932.21h992.14V3.37H3.37V932.21z"/>
			</g>
		</g>
		<g style="clip-path:url(#SVGID_00000039093922634785765450000015260402087602083773_);">
			<g>
				<rect x="2.06" y="133.63" class="st3" width="997.94" height="3.37"/>
			</g>
		</g>
		<g style="clip-path:url(#SVGID_00000039093922634785765450000015260402087602083773_);">
			<g>
				<path class="st4" d="M825.85,68.02h-14.46c0.07-1.69,0.29-2.71,0.88-4.1c1.02-2.27,3.14-3.95,6.36-3.95
					c3.21,0,5.33,1.68,6.36,3.95C825.55,65.31,825.77,66.33,825.85,68.02 M835.2,74.51v-4.23c0-10.45-5.99-18.18-16.58-18.18
					c-9.86,0-16.58,7-16.58,19.43c0,15.41,8.61,19.5,17.6,19.5c6.87,0,10.59-2.12,14.46-5.98l-5.77-5.62
					c-2.41,2.41-4.46,3.58-8.62,3.58c-5.33,0-8.33-3.58-8.33-8.48H835.2z M796.33,60.85v-7.22h-7.01v-4.17
					c0-2.2,1.02-3.44,3.29-3.44h3.73v-8.02h-5.41c-7.74,0-11.1,5.47-11.1,10.88v4.75h-3.94v7.22h3.94v29.73h9.49V60.85H796.33z
					 M766.68,38.29h-9.7v7.73h9.7V38.29z M766.6,52.53h-9.49v38.05h9.49V52.53z M737.53,68.02h-14.46c0.07-1.69,0.29-2.71,0.88-4.1
					c1.02-2.27,3.14-3.95,6.36-3.95c3.21,0,5.33,1.68,6.36,3.95C737.24,65.31,737.46,66.33,737.53,68.02 M746.88,74.51v-4.23
					c0-10.45-5.99-18.18-16.58-18.18c-9.86,0-16.58,7-16.58,19.43c0,15.41,8.61,19.5,17.6,19.5c6.87,0,10.59-2.12,14.46-5.98
					l-5.77-5.62c-2.41,2.41-4.46,3.58-8.62,3.58c-5.33,0-8.33-3.58-8.33-8.48H746.88z M711.01,55.66c-2.63-2.63-5.26-3.57-8.98-3.57
					c-4.09,0-7.74,1.89-9.57,4.09v-3.65h-9.27v38.05h9.49V67.64c0-4.82,3.21-7.01,6.14-7.01c2.34,0,3.58,0.8,5.04,2.26L711.01,55.66
					z M674.12,90.58v-8.02h-3.65c-2.41,0-3.36-1.17-3.36-3.43V38.58h-9.48V79.7c0,5.4,3.28,10.87,11.09,10.87H674.12z M645.86,90.58
					V52.53h-9.48v23.01c0,5.19-3.37,6.94-6.36,6.94c-3,0-6.29-1.75-6.29-6.94V52.53h-9.48v24.32c0,4.16,0.8,7.74,3.87,10.81
					c2.12,2.11,5.18,3.35,8.98,3.35c3.51,0,7.02-1.31,9.51-3.94v3.5H645.86z M602.98,90.58V65.96c0-8.03-4.38-13.87-12.7-13.87
					c-3.36,0-6.57,1.31-9.14,3.94V38.58h-9.49v52h9.49V67.35c0-4.97,3.15-6.72,6.14-6.72c2.99,0,6.21,1.68,6.21,6.72v23.23H602.98z
					 M562.8,85.83l-6.43-6.36c-1.97,2.12-3.65,3-6.14,3c-2.26,0-4.02-0.8-5.41-2.49c-1.46-1.83-2.12-4.46-2.12-8.47
					s0.66-6.58,2.12-8.41c1.39-1.68,3.14-2.48,5.41-2.48c2.48,0,4.16,0.88,6.14,2.99l6.43-6.42c-3.36-3.51-7.3-5.11-12.56-5.11
					c-7.6,0-17.01,4.01-17.01,19.43s9.41,19.5,17.01,19.5C555.49,91.01,559.44,89.33,562.8,85.83 M525.7,78.6
					c0-6.43-3.8-10.45-11.32-11.18l-5.99-0.59c-3.36-0.29-3.94-1.9-3.94-3.29c0-1.9,1.61-3.65,5.41-3.65c3.29,0,6.65,0.58,8.84,2.56
					l5.84-5.91c-3.65-3.43-8.62-4.45-14.54-4.45c-7.74,0-14.68,4.23-14.68,12.11c0,7.02,4.24,10.01,11.1,10.67l5.99,0.58
					c2.99,0.29,4.02,1.61,4.02,3.51c0,2.85-3.43,3.95-6.72,3.95c-2.92,0-7.01-0.44-10.15-3.58l-6.21,6.21
					c4.82,4.82,10.23,5.47,16.22,5.47C518.54,91.01,525.7,87,525.7,78.6 M485.37,90.58V65.96c0-8.03-4.38-13.87-12.7-13.87
					c-3.37,0-6.58,1.31-9.14,3.94V38.58h-9.49v52h9.49V67.35c0-4.97,3.14-6.72,6.14-6.72c3,0,6.21,1.68,6.21,6.72v23.23H485.37z
					 M445.2,85.83l-6.43-6.36c-1.97,2.12-3.65,3-6.14,3c-2.26,0-4.02-0.8-5.41-2.49c-1.46-1.83-2.12-4.46-2.12-8.47
					s0.66-6.58,2.12-8.41c1.39-1.68,3.14-2.48,5.41-2.48c2.48,0,4.16,0.88,6.14,2.99l6.43-6.42c-3.36-3.51-7.3-5.11-12.56-5.11
					c-7.6,0-17.01,4.01-17.01,19.43s9.42,19.5,17.01,19.5C437.89,91.01,441.84,89.33,445.2,85.83 M397.5,71.52
					c0,3.94-0.22,7.3-2.19,9.28c-1.1,1.1-2.56,1.69-4.46,1.69c-1.9,0-3.29-0.58-4.38-1.69c-1.97-1.97-2.19-5.33-2.19-9.28
					s0.22-7.24,2.19-9.21c1.1-1.1,2.48-1.68,4.38-1.68c1.9,0,3.37,0.58,4.46,1.68C397.28,64.28,397.5,67.57,397.5,71.52
					 M406.99,71.52c0-6.87-0.88-11.18-4.31-14.76c-2.33-2.48-6.2-4.67-11.83-4.67c-5.62,0-9.42,2.19-11.76,4.67
					c-3.43,3.57-4.3,7.88-4.3,14.76c0,6.94,0.88,11.26,4.3,14.83c2.34,2.48,6.14,4.67,11.76,4.67c5.63,0,9.5-2.19,11.83-4.67
					C406.12,82.77,406.99,78.46,406.99,71.52 M364.7,90.58V65.96c0-8.03-4.38-13.87-12.7-13.87c-3.36,0-6.58,1.31-9.14,3.94V38.58
					h-9.49v52h9.49V67.35c0-4.97,3.14-6.72,6.14-6.72c2.99,0,6.21,1.68,6.21,6.72v23.23H364.7z M321.67,90.58V65.96
					c0-8.03-4.38-13.87-12.7-13.87c-3.36,0-6.58,1.31-9.14,3.94V38.58h-9.49v52h9.49V67.35c0-4.97,3.14-6.72,6.14-6.72
					c2.99,0,6.21,1.68,6.21,6.72v23.23H321.67z M281.5,85.83l-6.43-6.36c-1.97,2.12-3.65,3-6.14,3c-2.26,0-4.02-0.8-5.41-2.49
					c-1.46-1.83-2.12-4.46-2.12-8.47s0.66-6.58,2.12-8.41c1.39-1.68,3.14-2.48,5.41-2.48c2.48,0,4.16,0.88,6.14,2.99l6.43-6.42
					c-3.36-3.51-7.3-5.11-12.56-5.11c-7.6,0-17.01,4.01-17.01,19.43s9.41,19.5,17.01,19.5C274.19,91.01,278.14,89.33,281.5,85.83
					 M232.64,76.55c0,2.34-0.37,3.88-1.39,4.83c-1.69,1.61-3.37,1.83-6,1.83c-3.73,0-5.48-1.76-5.48-4.39c0-2.71,1.9-4.32,5.34-4.32
					h7.53V76.55z M242.12,90.58V65.53c0-8.91-5.55-13.44-16.21-13.44c-6.36,0-10.01,1.16-13.73,5.25l6.06,5.92
					c1.97-2.27,3.65-3.15,7.31-3.15c5.04,0,7.09,1.83,7.09,6v1.9h-8.99c-8.84,0-13,4.96-13,11.02c0,3.36,1.1,6.43,3.14,8.55
					c2.26,2.26,5.4,3.35,9.72,3.35c4.38,0,6.79-1.1,9.36-3.65v3.28H242.12z M206.18,47.62v-9.05h-34.25v52h10.14V69.47h20.53v-9.05
					h-20.53V47.62H206.18z"/>
			</g>
		</g>
		<g style="clip-path:url(#SVGID_00000039093922634785765450000015260402087602083773_);">
			<g>
				<rect x="3.09" y="464.7" class="st3" width="992.7" height="3.37"/>
			</g>
		</g>
		<g style="clip-path:url(#SVGID_00000039093922634785765450000015260402087602083773_);">
			<g>
				<rect x="3.09" y="347.82" class="st3" width="992.7" height="3.37"/>
			</g>
		</g>
		<g style="clip-path:url(#SVGID_00000039093922634785765450000015260402087602083773_);">
			<g>
				<rect x="3.09" y="236.56" class="st3" width="992.7" height="3.37"/>
			</g>
		</g>
		<g style="clip-path:url(#SVGID_00000039093922634785765450000015260402087602083773_);">
			<g>
				<rect x="3.09" y="578.76" class="st3" width="992.7" height="3.37"/>
			</g>
		</g>
		<g style="clip-path:url(#SVGID_00000039093922634785765450000015260402087602083773_);">
			<g>
				<rect x="3.09" y="701.26" class="st3" width="992.7" height="3.37"/>
			</g>
		</g>
		<g style="clip-path:url(#SVGID_00000039093922634785765450000015260402087602083773_);">
			<g>
				<rect x="3.09" y="818.14" class="st3" width="992.7" height="3.37"/>
			</g>
		</g>
	</g>
	<g>
		<g>
			<polygon class="st4" points="19.1,871.61 35.16,871.61 27.13,860.98 			"/>
		</g>
	</g>
	<g>
		<g>
			<polygon class="st4" points="19.1,892.74 35.16,892.74 27.13,882.12 			"/>
		</g>
	</g>
	<g>
		<g>
			<polygon class="st4" points="19.1,913.88 35.16,913.88 27.13,903.25 			"/>
		</g>
	</g>
	<g>
		<g>
			<polygon class="st4" points="19.1,850.47 35.16,850.47 27.13,839.85 			"/>
		</g>
	</g>
	<g>
		<g>
			<polygon class="st4" points="19.1,756.13 35.16,756.13 27.13,745.51 			"/>
		</g>
	</g>
	<g>
		<g>
			<polygon class="st4" points="19.1,777.27 35.16,777.27 27.13,766.64 			"/>
		</g>
	</g>
	<g>
		<g>
			<polygon class="st4" points="19.1,798.4 35.16,798.4 27.13,787.78 			"/>
		</g>
	</g>
	<g>
		<g>
			<polygon class="st4" points="19.1,735 35.16,735 27.13,724.37 			"/>
		</g>
	</g>
	<g>
		<g>
			<polygon class="st4" points="19.1,636.45 35.16,636.45 27.13,625.82 			"/>
		</g>
	</g>
	<g>
		<g>
			<polygon class="st4" points="19.1,657.58 35.16,657.58 27.13,646.95 			"/>
		</g>
	</g>
	<g>
		<g>
			<polygon class="st4" points="19.1,678.72 35.16,678.72 27.13,668.09 			"/>
		</g>
	</g>
	<g>
		<g>
			<polygon class="st4" points="19.1,615.31 35.16,615.31 27.13,604.68 			"/>
		</g>
	</g>
	<g>
		<g>
			<polygon class="st4" points="19.1,518.16 35.16,518.16 27.13,507.54 			"/>
		</g>
	</g>
	<g>
		<g>
			<polygon class="st4" points="19.1,539.3 35.16,539.3 27.13,528.67 			"/>
		</g>
	</g>
	<g>
		<g>
			<polygon class="st4" points="19.1,560.43 35.16,560.43 27.13,549.81 			"/>
		</g>
	</g>
	<g>
		<g>
			<polygon class="st4" points="19.1,497.03 35.16,497.03 27.13,486.4 			"/>
		</g>
	</g>
	<g>
		<g>
			<polygon class="st4" points="19.1,402.69 35.16,402.69 27.13,392.07 			"/>
		</g>
	</g>
	<g>
		<g>
			<polygon class="st4" points="19.1,423.83 35.16,423.83 27.13,413.2 			"/>
		</g>
	</g>
	<g>
		<g>
			<polygon class="st4" points="19.1,444.96 35.16,444.96 27.13,434.34 			"/>
		</g>
	</g>
	<g>
		<g>
			<polygon class="st4" points="19.1,381.56 35.16,381.56 27.13,370.93 			"/>
		</g>
	</g>
	<g>
		<g>
			<polygon class="st4" points="19.1,285.81 35.16,285.81 27.13,275.19 			"/>
		</g>
	</g>
	<g>
		<g>
			<polygon class="st4" points="19.1,306.95 35.16,306.95 27.13,296.32 			"/>
		</g>
	</g>
	<g>
		<g>
			<polygon class="st4" points="19.1,328.08 35.16,328.08 27.13,317.46 			"/>
		</g>
	</g>
	<g>
		<g>
			<polygon class="st4" points="19.1,264.68 35.16,264.68 27.13,254.05 			"/>
		</g>
	</g>
	<g>
		<g>
			<polygon class="st4" points="19.1,178.94 35.16,178.94 27.13,168.31 			"/>
		</g>
	</g>
	<g>
		<g>
			<polygon class="st4" points="19.1,200.07 35.16,200.07 27.13,189.45 			"/>
		</g>
	</g>
	<g>
		<g>
			<polygon class="st4" points="19.1,221.21 35.16,221.21 27.13,210.58 			"/>
		</g>
	</g>
	<g>
		<g>
			<polygon class="st4" points="19.1,157.8 35.16,157.8 27.13,147.18 			"/>
		</g>
	</g>
	<g>
		<defs>
			<rect id="SVGID_00000142864986072843719660000004113731638345739186_" width="1000" height="935.58"/>
		</defs>
		<clipPath id="SVGID_00000032624197558296863350000010113990161994628790_">
			<use xlink:href="#SVGID_00000142864986072843719660000004113731638345739186_"  style="overflow:visible;"/>
		</clipPath>
		<g style="clip-path:url(#SVGID_00000032624197558296863350000010113990161994628790_);">
			<g>
				<path class="st3" d="M703.25,408.99c0,4.11-2.4,6.57-5.82,6.57c-3.64,0-5.77-2.83-5.77-6.57c0-4.06,2.35-6.62,5.77-6.62
					C700.84,402.36,703.25,404.93,703.25,408.99 M708.68,408.88c0-7.05-4.69-11.37-11.26-11.37c-6.57,0-11.21,4.59-11.21,11.58
					c0,6.68,4.43,10.99,9.92,10.99c1.18,0,2.4-0.16,3.42-0.58l-8.18,16.33h5.83l8.65-17.62
					C707.51,414.91,708.68,411.98,708.68,408.88 M661.07,420.1H648.9c0.05-1.66,0.16-2.46,0.69-3.69c0.85-2.03,2.83-3.42,5.39-3.42
					c2.56,0,4.48,1.39,5.34,3.42C660.86,417.63,661.02,418.44,661.07,420.1 M666.46,423.88v-2.4c0-7.69-4.21-13.02-11.47-13.02
					c-6.94,0-11.47,5.06-11.47,13.82c0,10.31,5.39,13.88,12.17,13.88c4.75,0,7.37-1.44,10.14-4.21l-3.47-3.25
					c-1.92,1.92-3.52,2.78-6.57,2.78c-4.43,0-6.88-2.94-6.88-7.59H666.46z M637.75,427.56c0-4.8-2.99-7.21-8.06-7.64l-4.27-0.37
					c-2.88-0.27-3.74-1.49-3.74-3.1c0-2.03,1.66-3.47,4.91-3.47c2.56,0,4.97,0.53,6.68,1.98l3.42-3.47
					c-2.51-2.19-5.98-3.03-10.04-3.03c-5.66,0-10.2,2.98-10.2,8.27c0,4.75,2.94,7.05,8.01,7.48l4.33,0.37
					c2.61,0.21,3.63,1.39,3.63,3.2c0,2.57-2.62,3.74-5.93,3.74c-2.67,0-5.6-0.59-7.79-2.83l-3.57,3.57
					c3.2,3.15,6.94,3.89,11.37,3.89C632.94,436.15,637.75,433.22,637.75,427.56 M610.89,427.56c0-4.8-2.99-7.21-8.06-7.64
					l-4.27-0.37c-2.88-0.27-3.74-1.49-3.74-3.1c0-2.03,1.65-3.47,4.91-3.47c2.56,0,4.96,0.53,6.67,1.98l3.42-3.47
					c-2.51-2.19-5.98-3.03-10.04-3.03c-5.66,0-10.19,2.98-10.19,8.27c0,4.75,2.93,7.05,8.01,7.48l4.32,0.37
					c2.62,0.21,3.63,1.39,3.63,3.2c0,2.57-2.61,3.74-5.92,3.74c-2.67,0-5.61-0.59-7.79-2.83l-3.58,3.57
					c3.2,3.15,6.94,3.89,11.37,3.89C606.09,436.15,610.89,433.22,610.89,427.56 M576.52,426.07c0,1.92-0.38,3.2-1.17,4.01
					c-1.44,1.39-2.99,1.55-5.07,1.55c-3.42,0-4.97-1.39-4.97-3.85c0-2.46,1.65-3.9,4.86-3.9h6.36V426.07z M581.96,435.83v-18.09
					c0-6.14-3.73-9.28-11.15-9.28c-4.49,0-7.15,0.9-9.72,3.89l3.57,3.37c1.49-1.92,2.94-2.62,5.93-2.62c4.22,0,5.93,1.66,5.93,5.07
					v1.93h-7.16c-6.19,0-9.34,3.25-9.34,7.79c0,2.3,0.75,4.38,2.14,5.82c1.65,1.65,3.89,2.45,7.26,2.45c3.37,0,5.23-0.8,7.21-2.77
					v2.45H581.96z M555.53,435.83v-4.64h-2.4c-2.19,0-2.94-1.07-2.94-3.15v-30.21h-5.43v30.53c0,4,2.24,7.47,7.41,7.47H555.53z
					 M539.52,435.83l-13.61-23.11l12.33-14.89h-7.05l-15.53,19.11v-19.11h-5.76v38h5.76v-11.05l6.41-7.69l10.68,18.73H539.52z
					 M491.75,393.88h-5.23l-15.22,45.9h5.23L491.75,393.88z M452.2,400.43h-5.51v35.4h5.51V400.43z M436.24,400.43h-5.51v29.17
					h-8.88v6.24h14.38V400.43z M417.75,431.91v-15.4c0-1.94-0.29-3.47-0.87-4.58c-0.58-1.1-1.56-1.89-2.92-2.36
					c-1.37-0.47-3.25-0.7-5.65-0.7c-2.96,0-5.66,0.4-8.12,1.21c-2.46,0.81-4.54,1.97-6.27,3.49c-1.73,1.51-2.99,3.34-3.82,5.47v-9.6
					h-5.51v22.48h5.51c0-5.7,1.3-9.92,3.91-12.68c2.6-2.75,6.55-4.13,11.83-4.13c2.96,0,5.1,0.21,6.41,0.62v16.19H417.75z
					 M375.72,435.84h48.38v-6.24h-48.38V435.84z M362.43,402.13c0.55-0.42,1.02-0.89,1.43-1.44c0.41-0.54,0.62-1.02,0.62-1.43
					c0-0.44-0.21-0.94-0.62-1.49c-0.41-0.54-0.88-1.01-1.4-1.4c-0.52-0.39-1.01-0.59-1.46-0.59c-0.45,0-0.94,0.2-1.49,0.59
					c-0.55,0.39-1.01,0.87-1.4,1.4c-0.39,0.55-0.59,1.05-0.59,1.49c0,0.42,0.2,0.9,0.59,1.47c0.39,0.56,0.87,1.03,1.43,1.43
					c0.56,0.39,1.05,0.6,1.46,0.6C361.41,402.74,361.89,402.54,362.43,402.13 M352.91,429.6v-11.58c0-1.13,0.18-1.89,0.53-2.28
					c0.35-0.4,1-0.6,1.94-0.6h10.73v11.8c0,1.01-0.19,1.71-0.56,2.08c-0.38,0.38-1.03,0.57-1.97,0.57H352.91z M371.62,435.84v-25.18
					c-2.21-0.67-4.23-1.15-6.07-1.43c-1.84-0.28-3.86-0.42-6.07-0.42c-2.43,0-4.46,0.2-6.07,0.62c-1.61,0.41-2.88,1.06-3.82,1.96
					c-0.94,0.9-1.6,2.11-1.99,3.62c-0.39,1.52-0.59,3.42-0.59,5.7c0,2.14,0.06,3.88,0.17,5.23c0.11,1.35,0.3,2.57,0.56,3.66h-16.63
					c-0.3-0.98-0.52-2.01-0.65-3.1c-0.13-1.08-0.2-2.34-0.2-3.76c0-1.24,0.11-2.53,0.34-3.91c0.22-1.37,0.56-2.78,1.01-4.24
					l-5.28-0.85c-0.49,1.39-0.88,3.01-1.18,4.86c-0.3,1.86-0.45,3.66-0.45,5.42c0,2.85,0.28,5.14,0.84,6.86
					c0.56,1.73,1.46,2.98,2.7,3.76c1.24,0.79,2.85,1.19,4.83,1.19H371.62z M371.62,435.84h6.35v-6.24h-6.35V435.84z M298.79,408.99
					c0,4.11-2.4,6.57-5.82,6.57c-3.63,0-5.77-2.83-5.77-6.57c0-4.06,2.35-6.62,5.77-6.62C296.39,402.36,298.79,404.93,298.79,408.99
					 M304.23,408.88c0-7.05-4.69-11.37-11.26-11.37c-6.57,0-11.2,4.59-11.2,11.58c0,6.68,4.42,10.99,9.92,10.99
					c1.17,0,2.4-0.16,3.42-0.58l-8.17,16.33h5.82l8.65-17.62C303.06,414.91,304.23,411.98,304.23,408.88"/>
			</g>
		</g>
		<g style="clip-path:url(#SVGID_00000032624197558296863350000010113990161994628790_);">
			<g>
				<path class="st3" d="M731.97,305.44c0,3.69-2.08,6.2-5.56,6.2s-5.5-2.51-5.5-6.2V288.9c0-3.69,2.03-6.19,5.5-6.19
					s5.56,2.51,5.56,6.19V305.44z M737.41,305.61v-16.87c0-6.78-4.96-10.88-11-10.88s-10.94,4.11-10.94,10.88v16.87
					c0,6.78,4.91,10.88,10.94,10.88S737.41,312.39,737.41,305.61 M702.17,316.17v-38h-5.44l-7.42,6.41v6.03l7.42-6.51v32.07H702.17z
					 M661.07,300.43H648.9c0.06-1.66,0.16-2.46,0.7-3.69c0.85-2.03,2.83-3.42,5.39-3.42c2.56,0,4.48,1.39,5.34,3.42
					C660.86,297.97,661.02,298.77,661.07,300.43 M666.46,304.21v-2.4c0-7.69-4.22-13.02-11.48-13.02c-6.94,0-11.47,5.06-11.47,13.82
					c0,10.31,5.38,13.88,12.17,13.88c4.75,0,7.37-1.44,10.14-4.21l-3.47-3.26c-1.92,1.92-3.52,2.78-6.56,2.78
					c-4.43,0-6.89-2.94-6.89-7.59H666.46z M637.75,307.9c0-4.8-2.99-7.21-8.06-7.64l-4.27-0.37c-2.88-0.27-3.74-1.49-3.74-3.1
					c0-2.03,1.65-3.47,4.91-3.47c2.56,0,4.96,0.53,6.67,1.98l3.42-3.47c-2.51-2.19-5.98-3.03-10.04-3.03
					c-5.66,0-10.19,2.98-10.19,8.27c0,4.75,2.93,7.05,8.01,7.48l4.32,0.37c2.62,0.21,3.63,1.39,3.63,3.2c0,2.57-2.61,3.74-5.92,3.74
					c-2.67,0-5.61-0.59-7.79-2.83l-3.58,3.57c3.2,3.15,6.94,3.89,11.37,3.89C632.94,316.49,637.75,313.56,637.75,307.9 M610.9,307.9
					c0-4.8-2.99-7.21-8.06-7.64l-4.27-0.37c-2.88-0.27-3.74-1.49-3.74-3.1c0-2.03,1.66-3.47,4.91-3.47c2.56,0,4.97,0.53,6.68,1.98
					l3.42-3.47c-2.51-2.19-5.98-3.03-10.04-3.03c-5.66,0-10.2,2.98-10.2,8.27c0,4.75,2.94,7.05,8.01,7.48l4.33,0.37
					c2.61,0.21,3.63,1.39,3.63,3.2c0,2.57-2.62,3.74-5.93,3.74c-2.67,0-5.6-0.59-7.79-2.83l-3.57,3.57
					c3.2,3.15,6.94,3.89,11.37,3.89C606.09,316.49,610.9,313.56,610.9,307.9 M576.52,306.4c0,1.92-0.37,3.2-1.17,4.01
					c-1.44,1.39-2.99,1.55-5.07,1.55c-3.42,0-4.97-1.39-4.97-3.85s1.66-3.9,4.86-3.9h6.36V306.4z M581.96,316.17v-18.09
					c0-6.14-3.73-9.28-11.15-9.28c-4.48,0-7.15,0.9-9.71,3.89l3.57,3.37c1.49-1.92,2.94-2.62,5.93-2.62c4.22,0,5.93,1.66,5.93,5.07
					v1.93h-7.15c-6.19,0-9.34,3.25-9.34,7.79c0,2.3,0.75,4.38,2.13,5.82c1.66,1.65,3.89,2.45,7.26,2.45s5.24-0.8,7.21-2.77v2.45
					H581.96z M555.54,316.17v-4.64h-2.41c-2.19,0-2.93-1.07-2.93-3.15v-30.21h-5.44v30.53c0,4,2.24,7.47,7.41,7.47H555.54z
					 M539.52,316.17l-13.62-23.11l12.33-14.89h-7.05l-15.54,19.11v-19.11h-5.75v38h5.75v-11.05l6.41-7.69l10.68,18.73H539.52z
					 M491.75,274.22h-5.23l-15.21,45.9h5.23L491.75,274.22z M452.2,280.78h-5.51v35.4h5.51V280.78z M436.24,280.78h-5.51v29.16
					h-8.88v6.24h14.38V280.78z M417.75,312.24v-15.4c0-1.95-0.29-3.48-0.87-4.58c-0.58-1.11-1.55-1.89-2.92-2.36
					c-1.37-0.47-3.25-0.7-5.65-0.7c-2.96,0-5.66,0.4-8.12,1.21c-2.45,0.8-4.54,1.97-6.27,3.48c-1.72,1.52-2.99,3.34-3.82,5.48v-9.61
					h-5.51v22.48h5.51c0-5.7,1.3-9.92,3.91-12.67c2.61-2.75,6.55-4.13,11.83-4.13c2.96,0,5.1,0.2,6.41,0.62v16.18H417.75z
					 M375.72,316.18h48.38v-6.24h-48.38V316.18z M362.43,282.46c0.55-0.42,1.02-0.89,1.43-1.43c0.42-0.55,0.62-1.02,0.62-1.43
					c0-0.45-0.2-0.95-0.62-1.49c-0.41-0.55-0.88-1.01-1.4-1.4c-0.52-0.39-1.01-0.59-1.46-0.59c-0.45,0-0.94,0.2-1.49,0.59
					c-0.54,0.39-1.01,0.86-1.4,1.4c-0.39,0.54-0.59,1.04-0.59,1.49c0,0.41,0.2,0.9,0.59,1.46s0.87,1.04,1.43,1.43
					c0.56,0.39,1.05,0.59,1.46,0.59C361.42,283.08,361.89,282.87,362.43,282.46 M352.91,309.94v-11.58c0-1.12,0.18-1.88,0.53-2.28
					c0.36-0.39,1.01-0.59,1.94-0.59h10.73v11.8c0,1.01-0.19,1.7-0.56,2.08c-0.37,0.37-1.03,0.56-1.97,0.56H352.91z M371.62,316.18
					V291c-2.21-0.67-4.23-1.15-6.07-1.43c-1.83-0.28-3.85-0.42-6.07-0.42c-2.43,0-4.46,0.2-6.07,0.62
					c-1.61,0.41-2.88,1.07-3.82,1.97c-0.93,0.9-1.6,2.11-1.99,3.62c-0.39,1.52-0.59,3.42-0.59,5.7c0,2.14,0.06,3.88,0.17,5.23
					c0.11,1.35,0.3,2.56,0.56,3.65h-16.63c-0.3-0.98-0.51-2.01-0.65-3.09c-0.13-1.09-0.2-2.34-0.2-3.76c0-1.24,0.11-2.54,0.34-3.91
					c0.22-1.37,0.56-2.78,1.01-4.24l-5.28-0.84c-0.48,1.38-0.88,3.01-1.18,4.86c-0.3,1.85-0.45,3.66-0.45,5.42
					c0,2.84,0.28,5.13,0.84,6.86c0.56,1.72,1.46,2.98,2.7,3.76c1.24,0.79,2.85,1.18,4.83,1.18H371.62z M371.62,316.18h6.35v-6.24
					h-6.35V316.18z M298.53,305.44c0,3.69-2.08,6.2-5.56,6.2c-3.47,0-5.5-2.51-5.5-6.2V288.9c0-3.69,2.03-6.19,5.5-6.19
					c3.47,0,5.56,2.51,5.56,6.19V305.44z M303.97,305.61v-16.87c0-6.78-4.96-10.88-11-10.88c-6.03,0-10.93,4.11-10.93,10.88v16.87
					c0,6.78,4.91,10.88,10.93,10.88C299,316.49,303.97,312.39,303.97,305.61 M268.73,316.17v-38h-5.44l-7.42,6.41v6.03l7.42-6.51
					v32.07H268.73z"/>
			</g>
		</g>
		<g style="clip-path:url(#SVGID_00000032624197558296863350000010113990161994628790_);">
			<g>
				<path class="st3" d="M731.16,210.17v-38h-5.44l-7.42,6.41v6.03l7.42-6.51v32.07H731.16z M702.17,210.17v-38h-5.44l-7.42,6.41
					v6.03l7.42-6.51v32.07H702.17z M661.07,194.43H648.9c0.06-1.66,0.16-2.46,0.7-3.69c0.85-2.03,2.83-3.42,5.39-3.42
					c2.56,0,4.48,1.39,5.34,3.42C660.86,191.97,661.02,192.77,661.07,194.43 M666.46,198.21v-2.4c0-7.69-4.22-13.02-11.48-13.02
					c-6.94,0-11.47,5.06-11.47,13.82c0,10.3,5.38,13.87,12.17,13.87c4.75,0,7.37-1.44,10.14-4.21l-3.47-3.26
					c-1.92,1.92-3.52,2.78-6.56,2.78c-4.43,0-6.89-2.94-6.89-7.59H666.46z M637.75,201.9c0-4.8-2.99-7.21-8.06-7.64l-4.27-0.37
					c-2.88-0.27-3.74-1.49-3.74-3.1c0-2.03,1.65-3.47,4.91-3.47c2.56,0,4.96,0.53,6.67,1.98l3.42-3.47
					c-2.51-2.19-5.98-3.03-10.04-3.03c-5.66,0-10.19,2.98-10.19,8.27c0,4.75,2.93,7.05,8.01,7.48l4.32,0.37
					c2.62,0.21,3.63,1.39,3.63,3.2c0,2.57-2.61,3.74-5.92,3.74c-2.67,0-5.61-0.59-7.79-2.83l-3.58,3.58
					c3.2,3.14,6.94,3.89,11.37,3.89C632.94,210.49,637.75,207.56,637.75,201.9 M610.9,201.9c0-4.8-2.99-7.21-8.06-7.64l-4.27-0.37
					c-2.88-0.27-3.74-1.49-3.74-3.1c0-2.03,1.66-3.47,4.91-3.47c2.56,0,4.97,0.53,6.68,1.98l3.42-3.47
					c-2.51-2.19-5.98-3.03-10.04-3.03c-5.66,0-10.2,2.98-10.2,8.27c0,4.75,2.94,7.05,8.01,7.48l4.33,0.37
					c2.61,0.21,3.63,1.39,3.63,3.2c0,2.57-2.62,3.74-5.93,3.74c-2.67,0-5.6-0.59-7.79-2.83l-3.57,3.58
					c3.2,3.14,6.94,3.89,11.37,3.89C606.09,210.49,610.9,207.56,610.9,201.9 M576.52,200.41c0,1.92-0.37,3.2-1.17,4.01
					c-1.44,1.39-2.99,1.55-5.07,1.55c-3.42,0-4.97-1.39-4.97-3.85c0-2.46,1.66-3.9,4.86-3.9h6.36V200.41z M581.96,210.17v-18.09
					c0-6.14-3.73-9.28-11.15-9.28c-4.48,0-7.15,0.9-9.71,3.89l3.57,3.37c1.49-1.92,2.94-2.62,5.93-2.62c4.22,0,5.93,1.66,5.93,5.07
					v1.93h-7.15c-6.19,0-9.34,3.25-9.34,7.79c0,2.3,0.75,4.38,2.13,5.82c1.66,1.65,3.89,2.45,7.26,2.45s5.24-0.8,7.21-2.77v2.45
					H581.96z M555.54,210.17v-4.64h-2.41c-2.19,0-2.93-1.07-2.93-3.15v-30.21h-5.44v30.53c0,4,2.24,7.47,7.41,7.47H555.54z
					 M539.52,210.17l-13.62-23.11l12.33-14.89h-7.05l-15.54,19.11v-19.11h-5.75v38h5.75v-11.05l6.41-7.69l10.68,18.73H539.52z
					 M491.75,168.22h-5.23l-15.21,45.9h5.23L491.75,168.22z M452.2,174.78h-5.51v35.4h5.51V174.78z M436.24,174.78h-5.51v29.16
					h-8.88v6.24h14.38V174.78z M417.75,206.24v-15.4c0-1.95-0.29-3.48-0.87-4.58c-0.58-1.11-1.55-1.89-2.92-2.36
					c-1.37-0.47-3.25-0.7-5.65-0.7c-2.96,0-5.66,0.4-8.12,1.21c-2.45,0.8-4.54,1.97-6.27,3.48c-1.72,1.52-2.99,3.34-3.82,5.48v-9.61
					h-5.51v22.48h5.51c0-5.7,1.3-9.92,3.91-12.67c2.61-2.75,6.55-4.13,11.83-4.13c2.96,0,5.1,0.2,6.41,0.62v16.18H417.75z
					 M375.72,210.18h48.38v-6.24h-48.38V210.18z M362.43,176.46c0.55-0.42,1.02-0.89,1.43-1.43c0.42-0.55,0.62-1.02,0.62-1.43
					c0-0.45-0.2-0.95-0.62-1.49c-0.41-0.55-0.88-1.01-1.4-1.4c-0.52-0.39-1.01-0.59-1.46-0.59c-0.45,0-0.94,0.2-1.49,0.59
					c-0.54,0.39-1.01,0.86-1.4,1.4c-0.39,0.54-0.59,1.04-0.59,1.49c0,0.41,0.2,0.9,0.59,1.46c0.39,0.56,0.87,1.04,1.43,1.43
					c0.56,0.39,1.05,0.59,1.46,0.59C361.42,177.08,361.89,176.87,362.43,176.46 M352.91,203.94v-11.58c0-1.12,0.18-1.88,0.53-2.28
					c0.36-0.39,1.01-0.59,1.94-0.59h10.73v11.8c0,1.01-0.19,1.7-0.56,2.08c-0.37,0.37-1.03,0.56-1.97,0.56H352.91z M371.62,210.18
					V185c-2.21-0.67-4.23-1.15-6.07-1.43c-1.83-0.28-3.85-0.42-6.07-0.42c-2.43,0-4.46,0.2-6.07,0.62
					c-1.61,0.41-2.88,1.07-3.82,1.97c-0.93,0.9-1.6,2.11-1.99,3.62c-0.39,1.52-0.59,3.42-0.59,5.7c0,2.14,0.06,3.88,0.17,5.23
					c0.11,1.35,0.3,2.56,0.56,3.65h-16.63c-0.3-0.98-0.51-2.01-0.65-3.09c-0.13-1.09-0.2-2.34-0.2-3.76c0-1.24,0.11-2.54,0.34-3.91
					c0.22-1.37,0.56-2.78,1.01-4.24l-5.28-0.84c-0.48,1.38-0.88,3.01-1.18,4.86c-0.3,1.85-0.45,3.66-0.45,5.42
					c0,2.84,0.28,5.13,0.84,6.86c0.56,1.72,1.46,2.98,2.7,3.76c1.24,0.79,2.85,1.18,4.83,1.18H371.62z M371.62,210.18h6.35v-6.24
					h-6.35V210.18z M297.72,210.17v-38h-5.43l-7.42,6.41v6.03l7.42-6.51v32.07H297.72z M268.73,210.17v-38h-5.44l-7.42,6.41v6.03
					l7.42-6.51v32.07H268.73z"/>
			</g>
		</g>
		<g style="clip-path:url(#SVGID_00000032624197558296863350000010113990161994628790_);">
			<g>
				<path class="st3" d="M703.09,520.31c0,3.37-2.35,5.77-5.66,5.77c-3.31,0-5.61-2.4-5.61-5.77c0-3.31,2.3-5.82,5.61-5.82
					C700.73,514.48,703.09,517,703.09,520.31 M703.67,537.12c0,3.52-2.73,6.3-6.25,6.3s-6.25-2.78-6.25-6.3s2.73-6.36,6.25-6.36
					S703.67,533.6,703.67,537.12 M709.16,537.23c0-4.54-2.56-7.32-5.22-8.91c2.45-1.49,4.59-4.16,4.59-8.17
					c0-6.36-4.91-10.51-11.1-10.51c-6.19,0-11.05,4.16-11.05,10.51c0,4.01,2.14,6.68,4.59,8.17c-2.66,1.6-5.23,4.37-5.23,8.91
					c0,6.89,5.18,11.05,11.69,11.05C703.94,548.28,709.16,544.12,709.16,537.23 M661.07,532.22H648.9c0.06-1.66,0.16-2.46,0.7-3.69
					c0.85-2.03,2.83-3.42,5.39-3.42c2.56,0,4.48,1.39,5.34,3.42C660.86,529.76,661.02,530.56,661.07,532.22 M666.46,536v-2.4
					c0-7.69-4.22-13.02-11.48-13.02c-6.94,0-11.47,5.06-11.47,13.82c0,10.31,5.38,13.88,12.17,13.88c4.75,0,7.37-1.44,10.14-4.21
					l-3.47-3.25c-1.92,1.92-3.52,2.78-6.56,2.78c-4.43,0-6.89-2.94-6.89-7.59H666.46z M637.74,539.69c0-4.8-2.99-7.21-8.06-7.64
					l-4.27-0.37c-2.88-0.27-3.74-1.49-3.74-3.1c0-2.03,1.65-3.47,4.91-3.47c2.56,0,4.96,0.53,6.67,1.98l3.42-3.47
					c-2.51-2.19-5.98-3.03-10.04-3.03c-5.66,0-10.19,2.98-10.19,8.27c0,4.75,2.93,7.05,8.01,7.48l4.32,0.37
					c2.62,0.21,3.63,1.39,3.63,3.2c0,2.57-2.61,3.74-5.92,3.74c-2.67,0-5.61-0.59-7.79-2.83l-3.58,3.57
					c3.2,3.15,6.94,3.89,11.37,3.89C632.94,548.28,637.74,545.34,637.74,539.69 M610.9,539.69c0-4.8-2.99-7.21-8.06-7.64l-4.27-0.37
					c-2.88-0.27-3.74-1.49-3.74-3.1c0-2.03,1.66-3.47,4.91-3.47c2.56,0,4.97,0.53,6.68,1.98l3.42-3.47
					c-2.51-2.19-5.98-3.03-10.04-3.03c-5.66,0-10.2,2.98-10.2,8.27c0,4.75,2.94,7.05,8.01,7.48l4.33,0.37
					c2.61,0.21,3.63,1.39,3.63,3.2c0,2.57-2.62,3.74-5.93,3.74c-2.67,0-5.6-0.59-7.79-2.83l-3.57,3.57
					c3.2,3.15,6.94,3.89,11.37,3.89C606.09,548.28,610.9,545.34,610.9,539.69 M576.52,538.19c0,1.92-0.37,3.2-1.17,4.01
					c-1.44,1.39-2.99,1.55-5.07,1.55c-3.42,0-4.97-1.39-4.97-3.85c0-2.46,1.66-3.9,4.86-3.9h6.36V538.19z M581.96,547.96v-18.09
					c0-6.14-3.73-9.28-11.15-9.28c-4.48,0-7.15,0.9-9.71,3.89l3.57,3.37c1.49-1.92,2.94-2.62,5.93-2.62c4.22,0,5.93,1.66,5.93,5.07
					v1.93h-7.15c-6.19,0-9.34,3.25-9.34,7.79c0,2.3,0.75,4.38,2.13,5.82c1.66,1.65,3.89,2.45,7.26,2.45s5.24-0.8,7.21-2.77v2.45
					H581.96z M555.54,547.96v-4.64h-2.4c-2.19,0-2.93-1.07-2.93-3.15v-30.21h-5.44v30.53c0,4,2.24,7.47,7.41,7.47H555.54z
					 M539.52,547.96l-13.62-23.11l12.33-14.89h-7.05l-15.54,19.11v-19.11h-5.75v38h5.75v-11.05l6.41-7.69l10.68,18.73H539.52z
					 M491.75,506.01h-5.23l-15.21,45.9h5.23L491.75,506.01z M452.2,512.56h-5.51v35.4h5.51V512.56z M436.24,512.56h-5.51v29.16
					h-8.88v6.24h14.38V512.56z M417.75,544.03v-15.4c0-1.94-0.29-3.47-0.87-4.58c-0.58-1.1-1.55-1.89-2.92-2.36
					c-1.37-0.47-3.25-0.7-5.65-0.7c-2.96,0-5.66,0.4-8.12,1.21c-2.45,0.81-4.54,1.97-6.27,3.49c-1.72,1.51-2.99,3.34-3.82,5.47v-9.6
					h-5.51v22.48h5.51c0-5.7,1.3-9.92,3.91-12.68c2.61-2.75,6.55-4.13,11.83-4.13c2.96,0,5.1,0.21,6.41,0.62v16.19H417.75z
					 M375.72,547.96h48.38v-6.24h-48.38V547.96z M362.43,514.25c0.55-0.42,1.02-0.89,1.43-1.44c0.42-0.54,0.62-1.02,0.62-1.43
					c0-0.44-0.2-0.94-0.62-1.49c-0.41-0.54-0.88-1.01-1.4-1.4c-0.52-0.39-1.01-0.59-1.46-0.59c-0.45,0-0.94,0.2-1.49,0.59
					c-0.54,0.39-1.01,0.87-1.4,1.4c-0.39,0.55-0.59,1.05-0.59,1.49c0,0.42,0.2,0.9,0.59,1.47c0.39,0.56,0.87,1.03,1.43,1.43
					c0.56,0.39,1.05,0.6,1.46,0.6C361.41,514.87,361.89,514.66,362.43,514.25 M352.91,541.72v-11.57c0-1.13,0.18-1.89,0.53-2.28
					c0.36-0.4,1.01-0.6,1.94-0.6h10.73v11.8c0,1.01-0.19,1.71-0.56,2.08c-0.37,0.38-1.03,0.56-1.97,0.56H352.91z M371.62,547.96
					v-25.18c-2.21-0.67-4.23-1.15-6.07-1.43c-1.83-0.28-3.85-0.42-6.07-0.42c-2.43,0-4.46,0.2-6.07,0.62
					c-1.61,0.41-2.88,1.06-3.82,1.96c-0.93,0.9-1.6,2.11-1.99,3.62c-0.39,1.52-0.59,3.42-0.59,5.7c0,2.14,0.06,3.88,0.17,5.23
					c0.11,1.35,0.3,2.57,0.56,3.65h-16.63c-0.3-0.97-0.51-2-0.65-3.09c-0.13-1.08-0.2-2.34-0.2-3.76c0-1.24,0.11-2.53,0.34-3.91
					c0.22-1.37,0.56-2.78,1.01-4.24l-5.28-0.85c-0.48,1.39-0.88,3.01-1.18,4.86c-0.3,1.85-0.45,3.66-0.45,5.42
					c0,2.85,0.28,5.14,0.84,6.86c0.56,1.73,1.46,2.98,2.7,3.76s2.85,1.19,4.83,1.19H371.62z M371.62,547.96h6.35v-6.24h-6.35V547.96
					z M298.63,520.31c0,3.37-2.35,5.77-5.66,5.77c-3.32,0-5.61-2.4-5.61-5.77c0-3.31,2.29-5.82,5.61-5.82
					C296.28,514.48,298.63,517,298.63,520.31 M299.22,537.12c0,3.52-2.73,6.3-6.25,6.3c-3.53,0-6.25-2.78-6.25-6.3
					s2.72-6.36,6.25-6.36C296.5,530.77,299.22,533.6,299.22,537.12 M304.71,537.23c0-4.54-2.56-7.32-5.23-8.91
					c2.46-1.49,4.59-4.16,4.59-8.17c0-6.36-4.91-10.51-11.1-10.51c-6.2,0-11.05,4.16-11.05,10.51c0,4.01,2.13,6.68,4.59,8.17
					c-2.67,1.6-5.23,4.37-5.23,8.91c0,6.89,5.17,11.05,11.69,11.05C299.49,548.28,304.71,544.12,304.71,537.23"/>
			</g>
		</g>
		<g style="clip-path:url(#SVGID_00000032624197558296863350000010113990161994628790_);">
			<g>
				<path class="st3" d="M703.25,776.47c0,4.06-2.4,6.62-5.82,6.62c-3.42,0-5.77-2.57-5.77-6.62c0-4.11,2.35-6.57,5.77-6.57
					C701.06,769.9,703.25,772.74,703.25,776.47 M708.68,776.37c0-6.68-4.48-10.99-9.97-10.99c-1.17,0-2.35,0.16-3.37,0.58
					l8.17-16.33h-5.82l-8.65,17.62c-1.65,3.3-2.83,6.24-2.83,9.34c0,7.05,4.69,11.37,11.26,11.37
					C704.05,787.95,708.68,783.36,708.68,776.37 M661.07,771.89H648.9c0.05-1.66,0.16-2.46,0.69-3.69c0.85-2.03,2.83-3.42,5.39-3.42
					c2.56,0,4.48,1.39,5.34,3.42C660.86,769.43,661.02,770.23,661.07,771.89 M666.46,775.67v-2.4c0-7.69-4.21-13.02-11.47-13.02
					c-6.94,0-11.47,5.06-11.47,13.82c0,10.31,5.39,13.88,12.17,13.88c4.75,0,7.37-1.44,10.14-4.21l-3.47-3.25
					c-1.92,1.92-3.52,2.78-6.57,2.78c-4.43,0-6.88-2.94-6.88-7.59H666.46z M637.75,779.36c0-4.8-2.99-7.21-8.06-7.64l-4.27-0.37
					c-2.88-0.27-3.74-1.49-3.74-3.1c0-2.03,1.66-3.47,4.91-3.47c2.56,0,4.97,0.53,6.68,1.98l3.42-3.47
					c-2.51-2.19-5.98-3.03-10.04-3.03c-5.66,0-10.2,2.98-10.2,8.27c0,4.75,2.94,7.05,8.01,7.48l4.33,0.37
					c2.61,0.21,3.63,1.39,3.63,3.2c0,2.57-2.62,3.74-5.93,3.74c-2.67,0-5.6-0.59-7.79-2.83l-3.57,3.57
					c3.2,3.15,6.94,3.89,11.37,3.89C632.94,787.95,637.75,785.01,637.75,779.36 M610.89,779.36c0-4.8-2.99-7.21-8.06-7.64
					l-4.27-0.37c-2.88-0.27-3.74-1.49-3.74-3.1c0-2.03,1.65-3.47,4.91-3.47c2.56,0,4.96,0.53,6.67,1.98l3.42-3.47
					c-2.51-2.19-5.98-3.03-10.04-3.03c-5.66,0-10.19,2.98-10.19,8.27c0,4.75,2.93,7.05,8.01,7.48l4.32,0.37
					c2.62,0.21,3.63,1.39,3.63,3.2c0,2.57-2.61,3.74-5.92,3.74c-2.67,0-5.61-0.59-7.79-2.83l-3.58,3.57
					c3.2,3.15,6.94,3.89,11.37,3.89C606.09,787.95,610.89,785.01,610.89,779.36 M576.52,777.86c0,1.92-0.38,3.2-1.17,4.01
					c-1.44,1.39-2.99,1.55-5.07,1.55c-3.42,0-4.97-1.39-4.97-3.85c0-2.46,1.65-3.9,4.86-3.9h6.36V777.86z M581.96,787.63v-18.09
					c0-6.14-3.73-9.28-11.15-9.28c-4.49,0-7.15,0.9-9.72,3.89l3.57,3.37c1.49-1.92,2.94-2.62,5.93-2.62c4.22,0,5.93,1.66,5.93,5.07
					v1.93h-7.16c-6.19,0-9.34,3.25-9.34,7.79c0,2.3,0.75,4.38,2.14,5.82c1.65,1.65,3.89,2.45,7.26,2.45c3.37,0,5.23-0.8,7.21-2.77
					v2.45H581.96z M555.53,787.63v-4.64h-2.4c-2.19,0-2.94-1.07-2.94-3.15v-30.21h-5.43v30.53c0,4,2.24,7.47,7.41,7.47H555.53z
					 M539.52,787.63l-13.61-23.11l12.33-14.89h-7.05l-15.53,19.11v-19.11h-5.76v38h5.76v-11.05l6.41-7.69l10.68,18.73H539.52z
					 M491.75,745.68h-5.23l-15.22,45.9h5.23L491.75,745.68z M452.2,752.23h-5.51v35.4h5.51V752.23z M436.24,752.23h-5.51v29.17
					h-8.88v6.24h14.38V752.23z M417.75,783.7v-15.4c0-1.94-0.29-3.47-0.87-4.58c-0.58-1.1-1.56-1.89-2.92-2.36
					c-1.37-0.47-3.25-0.7-5.65-0.7c-2.96,0-5.66,0.4-8.12,1.21c-2.46,0.8-4.54,1.97-6.27,3.48c-1.73,1.52-2.99,3.34-3.82,5.48v-9.61
					h-5.51v22.48h5.51c0-5.7,1.3-9.92,3.91-12.68c2.6-2.75,6.55-4.13,11.83-4.13c2.96,0,5.1,0.21,6.41,0.62v16.19H417.75z
					 M375.72,787.63h48.38v-6.24h-48.38V787.63z M362.43,753.92c0.55-0.42,1.02-0.89,1.43-1.44c0.41-0.54,0.62-1.02,0.62-1.43
					c0-0.45-0.21-0.95-0.62-1.49c-0.41-0.55-0.88-1.02-1.4-1.4c-0.52-0.39-1.01-0.6-1.46-0.6c-0.45,0-0.94,0.2-1.49,0.6
					c-0.55,0.39-1.01,0.86-1.4,1.4c-0.39,0.54-0.59,1.04-0.59,1.49c0,0.41,0.2,0.9,0.59,1.46c0.39,0.56,0.87,1.03,1.43,1.43
					c0.56,0.39,1.05,0.59,1.46,0.59C361.41,754.54,361.89,754.33,362.43,753.92 M352.91,781.4v-11.58c0-1.12,0.18-1.89,0.53-2.28
					c0.35-0.4,1-0.59,1.94-0.59h10.73v11.79c0,1.02-0.19,1.71-0.56,2.08c-0.38,0.37-1.03,0.56-1.97,0.56H352.91z M371.62,787.63
					v-25.17c-2.21-0.67-4.23-1.15-6.07-1.43c-1.84-0.29-3.86-0.42-6.07-0.42c-2.43,0-4.46,0.2-6.07,0.62
					c-1.61,0.41-2.88,1.07-3.82,1.97c-0.94,0.89-1.6,2.11-1.99,3.62c-0.39,1.52-0.59,3.42-0.59,5.7c0,2.14,0.06,3.88,0.17,5.23
					c0.11,1.34,0.3,2.56,0.56,3.65h-16.63c-0.3-0.98-0.52-2.01-0.65-3.1c-0.13-1.08-0.2-2.34-0.2-3.76c0-1.24,0.11-2.53,0.34-3.9
					c0.22-1.37,0.56-2.79,1.01-4.24l-5.28-0.84c-0.49,1.38-0.88,3-1.18,4.85c-0.3,1.86-0.45,3.66-0.45,5.43
					c0,2.84,0.28,5.13,0.84,6.85c0.56,1.73,1.46,2.98,2.7,3.77c1.24,0.79,2.85,1.18,4.83,1.18H371.62z M371.62,787.63h6.35v-6.24
					h-6.35V787.63z M298.79,776.47c0,4.06-2.4,6.62-5.82,6.62c-3.42,0-5.77-2.57-5.77-6.62c0-4.11,2.35-6.57,5.77-6.57
					C296.6,769.9,298.79,772.74,298.79,776.47 M304.23,776.37c0-6.68-4.48-10.99-9.98-10.99c-1.17,0-2.35,0.16-3.37,0.58l8.18-16.33
					h-5.82l-8.65,17.62c-1.66,3.3-2.83,6.24-2.83,9.34c0,7.05,4.69,11.37,11.26,11.37C299.6,787.95,304.23,783.36,304.23,776.37"/>
			</g>
		</g>
		<g style="clip-path:url(#SVGID_00000032624197558296863350000010113990161994628790_);">
			<g>
				<path class="st3" d="M709.22,634v-4.85h-22.63v10.83h5.23V634h11.59l-12.76,33.15h5.87L709.22,634z M661.07,651.4H648.9
					c0.06-1.66,0.16-2.46,0.7-3.69c0.85-2.03,2.83-3.42,5.39-3.42s4.48,1.39,5.34,3.42C660.86,648.95,661.02,649.75,661.07,651.4
					 M666.46,655.19v-2.39c0-7.69-4.22-13.03-11.48-13.03c-6.94,0-11.47,5.07-11.47,13.82c0,10.31,5.38,13.87,12.17,13.87
					c4.75,0,7.37-1.44,10.14-4.21l-3.47-3.26c-1.92,1.93-3.52,2.78-6.56,2.78c-4.43,0-6.89-2.94-6.89-7.59H666.46z M637.75,658.88
					c0-4.8-2.99-7.21-8.06-7.64l-4.27-0.38c-2.88-0.26-3.74-1.49-3.74-3.1c0-2.03,1.65-3.47,4.91-3.47c2.56,0,4.96,0.54,6.67,1.98
					l3.42-3.47c-2.51-2.19-5.98-3.04-10.04-3.04c-5.66,0-10.19,2.98-10.19,8.27c0,4.75,2.93,7.05,8.01,7.47l4.32,0.38
					c2.62,0.21,3.63,1.39,3.63,3.2c0,2.56-2.61,3.74-5.92,3.74c-2.67,0-5.61-0.58-7.79-2.83l-3.58,3.57
					c3.2,3.15,6.94,3.89,11.37,3.89C632.94,667.46,637.75,664.54,637.75,658.88 M610.9,658.88c0-4.8-2.99-7.21-8.06-7.64l-4.27-0.38
					c-2.88-0.26-3.74-1.49-3.74-3.1c0-2.03,1.66-3.47,4.91-3.47c2.56,0,4.97,0.54,6.68,1.98l3.42-3.47
					c-2.51-2.19-5.98-3.04-10.04-3.04c-5.66,0-10.2,2.98-10.2,8.27c0,4.75,2.94,7.05,8.01,7.47l4.33,0.38
					c2.61,0.21,3.63,1.39,3.63,3.2c0,2.56-2.62,3.74-5.93,3.74c-2.67,0-5.6-0.58-7.79-2.83l-3.57,3.57
					c3.2,3.15,6.94,3.89,11.37,3.89C606.09,667.46,610.9,664.54,610.9,658.88 M576.52,657.38c0,1.93-0.37,3.21-1.17,4.01
					c-1.44,1.39-2.99,1.55-5.07,1.55c-3.42,0-4.97-1.39-4.97-3.84c0-2.46,1.66-3.91,4.86-3.91h6.36V657.38z M581.96,667.15v-18.09
					c0-6.14-3.73-9.29-11.15-9.29c-4.48,0-7.15,0.9-9.71,3.89l3.57,3.36c1.49-1.92,2.94-2.62,5.93-2.62c4.22,0,5.93,1.66,5.93,5.08
					v1.92h-7.15c-6.19,0-9.34,3.25-9.34,7.79c0,2.29,0.75,4.38,2.13,5.82c1.66,1.65,3.89,2.45,7.26,2.45s5.24-0.8,7.21-2.77v2.46
					H581.96z M555.54,667.14v-4.64h-2.4c-2.19,0-2.93-1.07-2.93-3.15v-30.21h-5.44v30.53c0,4,2.24,7.46,7.41,7.46H555.54z
					 M539.52,667.14l-13.62-23.11l12.33-14.89h-7.05l-15.54,19.1v-19.1h-5.75v38h5.75V656.1l6.41-7.68l10.68,18.73H539.52z
					 M491.75,625.2h-5.23l-15.21,45.9h5.23L491.75,625.2z M452.2,631.75h-5.51v35.4h5.51V631.75z M436.24,631.75h-5.51v29.16h-8.88
					v6.24h14.38V631.75z M417.75,663.22v-15.4c0-1.94-0.29-3.47-0.87-4.58c-0.58-1.1-1.55-1.89-2.92-2.36
					c-1.37-0.47-3.25-0.7-5.65-0.7c-2.96,0-5.66,0.4-8.12,1.21c-2.45,0.81-4.54,1.97-6.27,3.48c-1.72,1.52-2.99,3.34-3.82,5.48
					v-9.61h-5.51v22.48h5.51c0-5.69,1.3-9.92,3.91-12.67c2.61-2.75,6.55-4.13,11.83-4.13c2.96,0,5.1,0.21,6.41,0.62v16.18H417.75z
					 M375.72,667.15h48.38v-6.24h-48.38V667.15z M362.43,633.43c0.55-0.41,1.02-0.89,1.43-1.43c0.42-0.54,0.62-1.02,0.62-1.43
					c0-0.45-0.2-0.94-0.62-1.49c-0.41-0.54-0.88-1.01-1.4-1.4c-0.52-0.39-1.01-0.59-1.46-0.59c-0.45,0-0.94,0.2-1.49,0.59
					c-0.54,0.39-1.01,0.87-1.4,1.4c-0.39,0.55-0.59,1.04-0.59,1.49c0,0.42,0.2,0.9,0.59,1.46c0.39,0.56,0.87,1.04,1.43,1.43
					s1.05,0.59,1.46,0.59C361.42,634.05,361.89,633.85,362.43,633.43 M352.91,660.91v-11.58c0-1.12,0.18-1.88,0.53-2.28
					c0.36-0.39,1.01-0.59,1.94-0.59h10.73v11.8c0,1.01-0.19,1.71-0.56,2.08c-0.37,0.38-1.03,0.56-1.97,0.56H352.91z M371.62,667.15
					v-25.17c-2.21-0.67-4.23-1.15-6.07-1.43c-1.83-0.28-3.85-0.42-6.07-0.42c-2.43,0-4.46,0.21-6.07,0.62
					c-1.61,0.42-2.88,1.07-3.82,1.97c-0.93,0.9-1.6,2.11-1.99,3.62c-0.39,1.52-0.59,3.42-0.59,5.7c0,2.14,0.06,3.88,0.17,5.23
					c0.11,1.35,0.3,2.57,0.56,3.65h-16.63c-0.3-0.97-0.51-2-0.65-3.09c-0.13-1.08-0.2-2.34-0.2-3.76c0-1.24,0.11-2.53,0.34-3.91
					c0.22-1.37,0.56-2.78,1.01-4.24l-5.28-0.84c-0.48,1.39-0.88,3.01-1.18,4.86c-0.3,1.85-0.45,3.66-0.45,5.42
					c0,2.85,0.28,5.14,0.84,6.86c0.56,1.73,1.46,2.98,2.7,3.76c1.24,0.79,2.85,1.18,4.83,1.18H371.62z M371.62,667.15h6.35v-6.24
					h-6.35V667.15z M304.77,634v-4.85h-22.63v10.83h5.23V634h11.58l-12.76,33.15h5.87L304.77,634z"/>
			</g>
		</g>
		<g style="clip-path:url(#SVGID_00000032624197558296863350000010113990161994628790_);">
			<g>
				<path class="st3" d="M708.79,894.11c0-3.58-0.42-7.27-3.3-10.14c-1.55-1.55-3.84-2.45-6.83-2.45c-2.78,0-5.02,0.85-6.3,2.19
					v-10.04h15.59v-4.85h-20.49v20.76h4.96c0.59-1.87,2.3-3.42,5.39-3.42c4.38,0,5.56,3.42,5.56,7.96c0,2.56-0.21,5.07-1.82,6.68
					c-0.96,0.96-2.35,1.49-3.95,1.49c-3.42,0-5.13-1.92-5.55-5.29h-5.44c0.21,2.73,0.85,5.24,2.88,7.26
					c1.65,1.65,4.48,2.93,8.11,2.93c3.69,0,6.3-1.28,8.01-2.98C708.37,901.43,708.79,898.17,708.79,894.11 M661.07,891.07H648.9
					c0.05-1.66,0.16-2.46,0.69-3.69c0.85-2.03,2.83-3.42,5.39-3.42c2.56,0,4.48,1.39,5.34,3.42
					C660.86,888.62,661.02,889.42,661.07,891.07 M666.46,894.86v-2.39c0-7.69-4.21-13.03-11.47-13.03
					c-6.94,0-11.47,5.07-11.47,13.82c0,10.31,5.39,13.87,12.17,13.87c4.75,0,7.37-1.44,10.14-4.21l-3.47-3.26
					c-1.92,1.92-3.52,2.78-6.57,2.78c-4.43,0-6.88-2.94-6.88-7.59H666.46z M637.75,898.55c0-4.8-2.99-7.21-8.06-7.64l-4.27-0.38
					c-2.88-0.26-3.74-1.49-3.74-3.1c0-2.03,1.66-3.47,4.91-3.47c2.56,0,4.97,0.53,6.68,1.98l3.42-3.47
					c-2.51-2.19-5.98-3.04-10.04-3.04c-5.66,0-10.2,2.98-10.2,8.27c0,4.75,2.94,7.05,8.01,7.47l4.33,0.38
					c2.61,0.21,3.63,1.39,3.63,3.2c0,2.56-2.62,3.74-5.93,3.74c-2.67,0-5.6-0.58-7.79-2.83l-3.57,3.58
					c3.2,3.15,6.94,3.89,11.37,3.89C632.94,907.13,637.75,904.21,637.75,898.55 M610.89,898.55c0-4.8-2.99-7.21-8.06-7.64
					l-4.27-0.38c-2.88-0.26-3.74-1.49-3.74-3.1c0-2.03,1.65-3.47,4.91-3.47c2.56,0,4.96,0.53,6.67,1.98l3.42-3.47
					c-2.51-2.19-5.98-3.04-10.04-3.04c-5.66,0-10.19,2.98-10.19,8.27c0,4.75,2.93,7.05,8.01,7.47l4.32,0.38
					c2.62,0.21,3.63,1.39,3.63,3.2c0,2.56-2.61,3.74-5.92,3.74c-2.67,0-5.61-0.58-7.79-2.83l-3.58,3.58
					c3.2,3.15,6.94,3.89,11.37,3.89C606.09,907.13,610.89,904.21,610.89,898.55 M576.52,897.05c0,1.93-0.38,3.21-1.17,4.01
					c-1.44,1.39-2.99,1.55-5.07,1.55c-3.42,0-4.97-1.39-4.97-3.84c0-2.46,1.65-3.91,4.86-3.91h6.36V897.05z M581.96,906.81v-18.09
					c0-6.14-3.73-9.29-11.15-9.29c-4.49,0-7.15,0.9-9.72,3.89l3.57,3.36c1.49-1.92,2.94-2.62,5.93-2.62c4.22,0,5.93,1.66,5.93,5.08
					v1.92h-7.16c-6.19,0-9.34,3.25-9.34,7.79c0,2.29,0.75,4.38,2.14,5.82c1.65,1.65,3.89,2.45,7.26,2.45c3.37,0,5.23-0.8,7.21-2.77
					v2.45H581.96z M555.53,906.81v-4.64h-2.4c-2.19,0-2.94-1.07-2.94-3.15v-30.21h-5.43v30.53c0,4,2.24,7.46,7.41,7.46H555.53z
					 M539.52,906.81l-13.61-23.11l12.33-14.89h-7.05l-15.53,19.1v-19.1h-5.76v38h5.76v-11.05l6.41-7.68l10.68,18.73H539.52z
					 M491.75,864.87h-5.23l-15.22,45.9h5.23L491.75,864.87z M452.2,871.42h-5.51v35.4h5.51V871.42z M436.24,871.42h-5.51v29.16
					h-8.88v6.24h14.38V871.42z M417.75,902.89v-15.4c0-1.95-0.29-3.47-0.87-4.58c-0.58-1.11-1.56-1.89-2.92-2.36
					c-1.37-0.47-3.25-0.7-5.65-0.7c-2.96,0-5.66,0.4-8.12,1.21c-2.46,0.8-4.54,1.97-6.27,3.48c-1.73,1.52-2.99,3.34-3.82,5.48v-9.61
					h-5.51v22.48h5.51c0-5.69,1.3-9.92,3.91-12.67c2.6-2.75,6.55-4.13,11.83-4.13c2.96,0,5.1,0.21,6.41,0.62v16.18H417.75z
					 M375.72,906.82h48.38v-6.24h-48.38V906.82z M362.43,873.1c0.55-0.41,1.02-0.89,1.43-1.43c0.41-0.55,0.62-1.02,0.62-1.43
					c0-0.45-0.21-0.94-0.62-1.49c-0.41-0.55-0.88-1.01-1.4-1.4c-0.52-0.39-1.01-0.59-1.46-0.59c-0.45,0-0.94,0.2-1.49,0.59
					c-0.55,0.39-1.01,0.86-1.4,1.4s-0.59,1.04-0.59,1.49c0,0.41,0.2,0.9,0.59,1.46s0.87,1.04,1.43,1.43
					c0.56,0.39,1.05,0.59,1.46,0.59C361.41,873.72,361.89,873.52,362.43,873.1 M352.91,900.58v-11.58c0-1.12,0.18-1.88,0.53-2.28
					c0.35-0.39,1-0.59,1.94-0.59h10.73v11.8c0,1.01-0.19,1.7-0.56,2.08c-0.38,0.38-1.03,0.56-1.97,0.56H352.91z M371.62,906.82
					v-25.17c-2.21-0.67-4.23-1.15-6.07-1.43c-1.84-0.28-3.86-0.42-6.07-0.42c-2.43,0-4.46,0.21-6.07,0.62
					c-1.61,0.41-2.88,1.07-3.82,1.97s-1.6,2.11-1.99,3.62c-0.39,1.52-0.59,3.42-0.59,5.7c0,2.14,0.06,3.88,0.17,5.23
					s0.3,2.57,0.56,3.65h-16.63c-0.3-0.97-0.52-2.01-0.65-3.09c-0.13-1.08-0.2-2.34-0.2-3.76c0-1.24,0.11-2.54,0.34-3.91
					c0.22-1.37,0.56-2.78,1.01-4.24l-5.28-0.84c-0.49,1.39-0.88,3.01-1.18,4.86c-0.3,1.85-0.45,3.66-0.45,5.42
					c0,2.85,0.28,5.13,0.84,6.86c0.56,1.73,1.46,2.98,2.7,3.76s2.85,1.18,4.83,1.18H371.62z M371.62,906.82h6.35v-6.24h-6.35V906.82
					z M304.34,894.11c0-3.58-0.43-7.27-3.3-10.14c-1.55-1.55-3.84-2.45-6.83-2.45c-2.78,0-5.02,0.85-6.3,2.19v-10.04h15.59v-4.85
					h-20.49v20.76h4.96c0.58-1.87,2.29-3.42,5.39-3.42c4.38,0,5.55,3.42,5.55,7.96c0,2.56-0.21,5.07-1.81,6.68
					c-0.96,0.96-2.35,1.49-3.95,1.49c-3.42,0-5.13-1.92-5.56-5.29h-5.44c0.21,2.73,0.85,5.24,2.88,7.26
					c1.65,1.65,4.48,2.93,8.11,2.93c3.68,0,6.3-1.28,8.01-2.98C303.91,901.43,304.34,898.17,304.34,894.11"/>
			</g>
		</g>
	</g>
</g>
</svg>
