<?xml version="1.0" encoding="UTF-8"?><svg id="a" xmlns="http://www.w3.org/2000/svg" xmlns:xlink="http://www.w3.org/1999/xlink" viewBox="0 0 512 424.73"><defs><style>.e{fill:none;}.f{fill:#fff;}.g{fill:#2b2961;}.h{fill:#61b87a;}.i{clip-path:url(#c);}.j{clip-path:url(#b);}.k{clip-path:url(#d);}</style><clipPath id="b"><rect class="e" width="514.93" height="422.32"/></clipPath><clipPath id="c"><rect class="e" width="514.93" height="422.32"/></clipPath><clipPath id="d"><rect class="e" width="514.93" height="422.32"/></clipPath></defs><polygon class="f" points="1.7 184.76 1.69 197.7 1.69 420.64 236.12 420.64 236.11 187.63 132.56 187.63 132.03 187.36 64.97 122.91 1.7 184.76"/><g class="j"><path class="g" d="M237.8,422.32H0V184.05l.51-.5,64.44-62.99,68.04,65.39h104.8v236.38Zm-234.42-3.37H234.43V189.32h-101.87v-2.51l-1.7,1.77-65.89-63.32L3.39,185.47v233.48Z"/></g><polygon class="h" points="8.72 177.41 8.72 240.77 64.89 184.61 131.14 249.42 132.98 188.4 64.89 124.12 8.72 175.97 8.72 177.41"/><rect class="h" x="141.22" y="188.93" width="95.05" height="61.93"/><g class="i"><path class="g" d="M237.8,422.32H0V184.05l.51-.5,64.44-62.99,68.04,65.39h104.8v236.38Zm-234.42-3.37H234.43V189.32h-101.87v-2.51l-1.7,1.77-65.89-63.32L3.39,185.47v233.48Z"/></g><path class="g" d="M105.26,366.97c-.93,0-1.69-.75-1.69-1.69v-13.75c0-.93,.76-1.69,1.69-1.69s1.69,.75,1.69,1.69v13.75c0,.93-.76,1.69-1.69,1.69Zm-23,0c-.93,0-1.69-.75-1.69-1.69v-13.75c0-.93,.76-1.69,1.69-1.69s1.69,.75,1.69,1.69v13.75c0,.93-.76,1.69-1.69,1.69Zm-23.01,0c-.93,0-1.69-.75-1.69-1.69v-13.75c0-.93,.76-1.69,1.69-1.69s1.69,.75,1.69,1.69v13.75c0,.93-.76,1.69-1.69,1.69Zm-23,0c-.93,0-1.69-.75-1.69-1.69v-13.75c0-.93,.76-1.69,1.69-1.69s1.69,.75,1.69,1.69v13.75c0,.93-.76,1.69-1.69,1.69Zm172.95-34.73c-.93,0-1.69-.75-1.69-1.69v-13.74c0-.93,.76-1.69,1.69-1.69s1.69,.75,1.69,1.69v13.74c0,.93-.76,1.69-1.69,1.69Zm-23.01,0c-.93,0-1.69-.75-1.69-1.69v-13.74c0-.93,.76-1.69,1.69-1.69s1.69,.75,1.69,1.69v13.74c0,.93-.76,1.69-1.69,1.69Zm-23,0c-.93,0-1.69-.75-1.69-1.69v-13.74c0-.93,.76-1.69,1.69-1.69s1.69,.75,1.69,1.69v13.74c0,.93-.76,1.69-1.69,1.69Zm-23.01,0c-.93,0-1.69-.75-1.69-1.69v-13.74c0-.93,.76-1.69,1.69-1.69s1.69,.75,1.69,1.69v13.74c0,.93-.76,1.69-1.69,1.69Zm-34.91,0c-.93,0-1.69-.75-1.69-1.69v-13.74c0-.93,.76-1.69,1.69-1.69s1.69,.75,1.69,1.69v13.74c0,.93-.76,1.69-1.69,1.69Zm-23,0c-.93,0-1.69-.75-1.69-1.69v-13.74c0-.93,.76-1.69,1.69-1.69s1.69,.75,1.69,1.69v13.74c0,.93-.76,1.69-1.69,1.69Zm-23.01,0c-.93,0-1.69-.75-1.69-1.69v-13.74c0-.93,.76-1.69,1.69-1.69s1.69,.75,1.69,1.69v13.74c0,.93-.76,1.69-1.69,1.69Zm-23,0c-.93,0-1.69-.75-1.69-1.69v-13.74c0-.93,.76-1.69,1.69-1.69s1.69,.75,1.69,1.69v13.74c0,.93-.76,1.69-1.69,1.69Zm172.95-36.18c-.93,0-1.69-.75-1.69-1.69v-13.74c0-.93,.76-1.69,1.69-1.69s1.69,.75,1.69,1.69v13.74c0,.93-.76,1.69-1.69,1.69Zm-23.01,0c-.93,0-1.69-.75-1.69-1.69v-13.74c0-.93,.76-1.69,1.69-1.69s1.69,.75,1.69,1.69v13.74c0,.93-.76,1.69-1.69,1.69Zm-23,0c-.93,0-1.69-.75-1.69-1.69v-13.74c0-.93,.76-1.69,1.69-1.69s1.69,.75,1.69,1.69v13.74c0,.93-.76,1.69-1.69,1.69Zm-23.01,0c-.93,0-1.69-.75-1.69-1.69v-13.74c0-.93,.76-1.69,1.69-1.69s1.69,.75,1.69,1.69v13.74c0,.93-.76,1.69-1.69,1.69Zm-34.91,0c-.93,0-1.69-.75-1.69-1.69v-13.74c0-.93,.76-1.69,1.69-1.69s1.69,.75,1.69,1.69v13.74c0,.93-.76,1.69-1.69,1.69Zm-23,0c-.93,0-1.69-.75-1.69-1.69v-13.74c0-.93,.76-1.69,1.69-1.69s1.69,.75,1.69,1.69v13.74c0,.93-.76,1.69-1.69,1.69Zm-23.01,0c-.93,0-1.69-.75-1.69-1.69v-13.74c0-.93,.76-1.69,1.69-1.69s1.69,.75,1.69,1.69v13.74c0,.93-.76,1.69-1.69,1.69Zm-23,0c-.93,0-1.69-.75-1.69-1.69v-13.74c0-.93,.76-1.69,1.69-1.69s1.69,.75,1.69,1.69v13.74c0,.93-.76,1.69-1.69,1.69Z"/><g class="k"><polygon class="g" points="236.28 251.86 131.41 251.86 65.72 188.08 3.65 248.34 1.3 245.93 64.39 184.67 63.29 122.71 66.66 122.66 67.78 185.37 130.82 246.58 130.95 185.96 134.33 185.97 134.19 248.49 236.28 248.49 236.28 251.86"/><path class="g" d="M176.59,419.51c-.88,0-1.59-.71-1.59-1.59v-26.1c0-.88,.71-1.59,1.59-1.59s1.59,.71,1.59,1.59v26.1c0,.88-.71,1.59-1.59,1.59Z"/></g><path class="h" d="M509.62,.06l-221.94,5.56V100.92l-16.73,58.52,58.73-27.84,179.86-2.05c1.45-.02,2.61-1.2,2.61-2.64l-.18-124.56c0-1.29-1.06-2.32-2.35-2.29Z"/><path class="g" d="M261.53,157.96c-.4,0-.79-.14-1.1-.41-.5-.43-.71-1.12-.52-1.75l17.01-58.58V1.69c0-.93,.76-1.69,1.69-1.69h231.66c.93,0,1.69,.75,1.69,1.69v126.62c0,.93-.76,1.69-1.69,1.69h-188.43l-59.59,27.81c-.23,.11-.47,.16-.71,.16ZM280.3,3.38V97.47c0,.16-.02,.32-.07,.47l-16.04,55.23,56.55-26.39c.22-.1,.47-.16,.71-.16h187.12V3.38h-228.28Z"/><g><path class="f" d="M331.88,81.17v-6.58l14.96-17.39c1.46-1.74,2.08-2.98,2.08-4.84,0-2.98-1.75-5.01-4.84-5.01-2.42,0-4.89,1.24-4.89,5.12h-7.31c0-7.31,5.34-11.7,12.21-11.7s12.15,4.44,12.15,11.64c0,3.88-1.52,5.96-4.28,9.17l-11.19,13h15.47v6.58h-24.36Z"/><path class="f" d="M378.36,81.51c-6.52,0-12.21-4.27-12.21-11.92v-16.88c0-7.65,5.68-11.92,12.21-11.92s12.15,4.28,12.15,11.92v16.88c0,7.65-5.63,11.92-12.15,11.92Zm4.84-28.69c0-3.37-1.97-5.46-4.84-5.46s-4.89,2.08-4.89,5.46v16.7c0,3.38,2.03,5.4,4.89,5.4s4.84-2.02,4.84-5.4v-16.7Z"/><path class="f" d="M411.46,81.17V48.99l-8.16,7.09v-7.87l8.16-7.09h7.31v40.05h-7.31Z"/><path class="f" d="M456.26,78.25c-1.8,1.8-4.67,3.26-8.83,3.26s-7.2-1.46-8.94-3.2c-2.48-2.47-3.04-5.4-3.26-8.33h7.31c.39,3.15,1.86,4.95,4.89,4.95,1.41,0,2.59-.4,3.49-1.29,1.29-1.3,1.58-3.44,1.58-5.96,0-4.61-1.35-7.2-4.89-7.2-2.98,0-4.33,1.69-4.84,3.26h-6.69v-22.61h22.84v6.58h-16.2v8.6c1.07-1.01,3.32-2.02,6.02-2.02,3.32,0,5.85,1.07,7.48,2.7,3.15,3.15,3.6,6.92,3.6,10.69,0,4.5-.62,7.65-3.55,10.58Z"/></g></svg>