<?xml version="1.0" encoding="UTF-8" standalone="no"?> <svg xmlns="http://www.w3.org/2000/svg" xmlns:xlink="http://www.w3.org/1999/xlink" xmlns:serif="http://www.serif.com/" width="100%" height="100%" viewBox="0 0 287 237" version="1.1" xml:space="preserve" style="fill-rule:evenodd;clip-rule:evenodd;"> <g transform="matrix(4.16667,0,0,4.16667,140.756,181.902)"> <path d="M0,-30.614L18.906,-30.614L18.908,11.775L-23.896,11.775L-23.896,-28.782L-23.894,-31.137L-12.342,-42.389L-0.097,-30.664" style="fill:white;fill-rule:nonzero;stroke:rgb(42,44,104);stroke-width:0.6px;"></path> </g> <g transform="matrix(4.16667,0,0,4.16667,46.5768,60.8105)"> <path d="M0,-3.667L0,8.12L10.251,-2.095L22.343,9.691L22.678,-1.406L10.251,-13.096L0,-3.667Z" style="fill:rgb(91,190,132);fill-rule:nonzero;"></path> </g> <g transform="matrix(-4.16667,0,0,4.16667,1632,-2124.42)"> <rect x="338.97" y="523.145" width="17.348" height="11.263" style="fill:rgb(91,190,132);"></rect> </g> <g transform="matrix(4.16667,0,0,4.16667,140.756,181.902)"> <path d="M0,-30.614L18.906,-30.614L18.908,11.775L-23.896,11.775L-23.896,-28.782L-23.894,-31.137L-12.342,-42.389L-0.097,-30.664" style="fill:none;fill-rule:nonzero;stroke:rgb(42,44,104);stroke-width:0.6px;"></path> </g> <g transform="matrix(4.16667,0,0,4.16667,67.4739,189.022)"> <path d="M0,-15.41L0,-12.908M18.978,-15.41L18.978,-12.908M0,-8.824L0,-6.323M18.978,-8.824L18.978,-6.323M0,-2.502L0,0M4.201,-15.41L4.201,-12.908M23.18,-15.41L23.18,-12.908M4.201,-8.824L4.201,-6.323M23.18,-8.824L23.18,-6.323M4.201,-2.502L4.201,0M8.403,-15.41L8.403,-12.908M27.381,-15.41L27.381,-12.908M8.403,-8.824L8.403,-6.323M27.381,-8.824L27.381,-6.323M8.403,-2.502L8.403,0M12.604,-15.41L12.604,-12.908M31.582,-15.41L31.582,-12.908M12.604,-8.824L12.604,-6.323M31.582,-8.824L31.582,-6.323M12.604,-2.502L12.604,0" style="fill:none;fill-rule:nonzero;stroke:rgb(42,44,104);stroke-width:0.6px;stroke-linecap:round;"></path> </g> <g transform="matrix(4.16667,0,0,4.16667,219.631,5.15388)"> <path d="M0,23.193L-19.018,23.193L-31.134,11.468L-42.68,22.64M-31.065,11.48L-31.271,0M-18.944,23.193L-18.919,11.513" style="fill:none;fill-rule:nonzero;stroke:rgb(42,44,104);stroke-width:0.6px;"></path> </g> <g transform="matrix(0,4.16667,4.16667,0,184.171,218.989)"> <path d="M-2.381,-2.381L2.381,-2.381" style="fill:none;fill-rule:nonzero;stroke:rgb(42,44,104);stroke-width:0.57px;stroke-linecap:round;"></path> </g> <g transform="matrix(4.16667,0,0,4.16667,120.759,98.0351)"> <path d="M0,9.531L2.264,0L-6.171,1.965L0,9.531Z" style="fill:rgb(91,190,132);fill-rule:nonzero;"></path> </g> <g transform="matrix(4.16667,0,0,4.16667,122.713,99.3193)"> <path d="M0,8.629L2.049,0L-5.586,1.781L0,8.629Z" style="fill:none;fill-rule:nonzero;stroke:rgb(42,44,104);stroke-width:0.6px;"></path> </g> <g transform="matrix(4.16667,0,0,4.16667,76.5101,106.776)"> <path d="M0,8.984L3.864,0L-4.782,0.453L0,8.984Z" style="fill:rgb(91,190,132);fill-rule:nonzero;"></path> </g> <g transform="matrix(4.16667,0,0,4.16667,78.8735,107.798)"> <path d="M0,8.137L3.498,0L-4.329,0.41L0,8.137Z" style="fill:none;fill-rule:nonzero;stroke:rgb(42,44,104);stroke-width:0.6px;"></path> </g> <g transform="matrix(4.16667,0,0,4.16667,29.4893,101.306)"> <path d="M0,9.449L5.896,1.679L-2.604,0L0,9.449Z" style="fill:rgb(91,190,132);fill-rule:nonzero;"></path> </g> <g transform="matrix(4.16667,0,0,4.16667,32.4314,102.575)"> <path d="M0,8.547L5.337,1.52L-2.357,0L0,8.547Z" style="fill:none;fill-rule:nonzero;stroke:rgb(42,44,104);stroke-width:0.6px;"></path> </g> <g transform="matrix(4.16667,0,0,4.16667,5.15388,106.271)"> <path d="M0,-2.93L3.877,-1.235L12.342,0.203L12.956,0.285L21.55,-0.141L22.131,-0.285L30.527,-2.012L33.277,-3.215" style="fill:none;fill-rule:nonzero;stroke:rgb(42,44,104);stroke-width:0.6px;"></path> </g> <g transform="matrix(4.16667,0,0,4.16667,258.373,98.0189)"> <path d="M0,9.531L2.264,0L-6.17,1.969L0,9.531Z" style="fill:rgb(91,190,132);fill-rule:nonzero;"></path> </g> <g transform="matrix(4.16667,0,0,4.16667,260.331,99.3197)"> <path d="M0,8.625L2.049,0L-5.587,1.777L0,8.625Z" style="fill:none;fill-rule:nonzero;stroke:rgb(42,44,104);stroke-width:0.6px;"></path> </g> <g transform="matrix(4.16667,0,0,4.16667,214.126,106.793)"> <path d="M0,8.98L3.864,0L-4.782,0.453L0,8.98Z" style="fill:rgb(91,190,132);fill-rule:nonzero;"></path> </g> <g transform="matrix(4.16667,0,0,4.16667,216.49,107.798)"> <path d="M0,8.141L3.498,0L-4.329,0.411L0,8.141Z" style="fill:none;fill-rule:nonzero;stroke:rgb(42,44,104);stroke-width:0.6px;"></path> </g> <g transform="matrix(4.16667,0,0,4.16667,167.106,101.307)"> <path d="M0,9.445L5.896,1.683L-2.604,0L0,9.445Z" style="fill:rgb(91,190,132);fill-rule:nonzero;"></path> </g> <g transform="matrix(4.16667,0,0,4.16667,170.049,102.575)"> <path d="M0,8.547L5.337,1.52L-2.357,0L0,8.547Z" style="fill:none;fill-rule:nonzero;stroke:rgb(42,44,104);stroke-width:0.6px;"></path> </g> <g transform="matrix(4.16667,0,0,4.16667,142.77,106.288)"> <path d="M0,-2.938L3.877,-1.239L12.342,0.203L12.956,0.285L21.55,-0.141L22.131,-0.286L30.527,-2.016L33.277,-3.223" style="fill:none;fill-rule:nonzero;stroke:rgb(42,44,104);stroke-width:0.6px;"></path> </g> </svg> 