<?xml version="1.0" encoding="utf-8"?>
<!-- Generator: Adobe Illustrator 26.2.1, SVG Export Plug-In . SVG Version: 6.00 Build 0)  -->
<svg version="1.1" id="Ebene_1" xmlns="http://www.w3.org/2000/svg" xmlns:xlink="http://www.w3.org/1999/xlink" x="0px" y="0px"
	 viewBox="0 0 512 512" style="enable-background:new 0 0 512 512;" xml:space="preserve">
<style type="text/css">
	.st0{fill:#6EC3BF;}
	.st1{fill:#A0D5D2;}
	.st2{fill:#87CCC8;}
	.st3{fill:#FFFFFF;}
	.st4{clip-path:url(#SVGID_00000142882084394007665100000000479982492708753343_);fill:#2B2961;}
	.st5{fill:#897DA2;}
	.st6{fill:#2B2961;}
	.st7{clip-path:url(#SVGID_00000145763109770333050330000017848311870866037382_);fill:#FFFFFF;}
	.st8{clip-path:url(#SVGID_00000145763109770333050330000017848311870866037382_);fill:#2B2961;}
	.st9{clip-path:url(#SVGID_00000084499267006402986010000005347060077826928523_);fill:#FFFFFF;}
	.st10{clip-path:url(#SVGID_00000084499267006402986010000005347060077826928523_);fill:#6EC3BF;}
	.st11{fill:#9D9D9C;}
	.st12{fill:#D0D0D0;}
	.st13{clip-path:url(#SVGID_00000135692204114974115560000015180559558579775657_);fill:#FFFFFF;}
	.st14{clip-path:url(#SVGID_00000041975391113308787000000015557662796480507268_);fill:#2B2961;}
	.st15{clip-path:url(#SVGID_00000041975391113308787000000015557662796480507268_);fill:#FFFFFF;}
	.st16{fill:#97D1CE;}
	.st17{clip-path:url(#SVGID_00000124856204870969121120000000941496671685293219_);fill:#2B2961;}
	.st18{clip-path:url(#SVGID_00000010310207658486042670000016965439258155795903_);fill:#2B2961;}
	.st19{clip-path:url(#SVGID_00000152254051317814041120000004593238278972611483_);fill:#FFFFFF;}
	.st20{clip-path:url(#SVGID_00000152254051317814041120000004593238278972611483_);fill:#2B2961;}
	.st21{clip-path:url(#SVGID_00000102503639256201217330000014597793913740487301_);fill:#2B2961;}
	.st22{clip-path:url(#SVGID_00000157295271709374605310000014913554881915956650_);fill:#2B2961;}
	.st23{clip-path:url(#SVGID_00000157295271709374605310000014913554881915956650_);fill:#FFFFFF;}
	.st24{clip-path:url(#SVGID_00000067206288542659104250000017543906329325068706_);fill:#FFFFFF;}
	.st25{clip-path:url(#SVGID_00000018959605394131653650000001752310890302992806_);fill:#6EC3BF;}
	.st26{clip-path:url(#SVGID_00000072248679908806071090000014842811815757384121_);fill:#2B2961;}
	.st27{clip-path:url(#SVGID_00000072248679908806071090000014842811815757384121_);fill:#1D1D1B;}
	.st28{clip-path:url(#SVGID_00000072248679908806071090000014842811815757384121_);fill:#FFFFFF;}
	.st29{clip-path:url(#SVGID_00000111910255588790882410000001458145115508770947_);fill:#2B2961;}
	.st30{clip-path:url(#SVGID_00000058555576313485118350000013327800043984850063_);fill:#2B2961;}
	.st31{clip-path:url(#SVGID_00000058555576313485118350000013327800043984850063_);fill:#FFFFFF;}
	.st32{clip-path:url(#SVGID_00000024704278038362766900000004465272612941491848_);fill:#2B2961;}
	.st33{clip-path:url(#SVGID_00000137092622436688847350000012435882446329581705_);fill:#2B2961;}
	.st34{clip-path:url(#SVGID_00000137092622436688847350000012435882446329581705_);fill:#6EC3BF;}
	.st35{clip-path:url(#SVGID_00000030465574815538891580000000390071252896286620_);fill:#2B2961;}
	.st36{clip-path:url(#SVGID_00000057133760312127196620000009324230407766419869_);fill:#2B2961;}
	.st37{clip-path:url(#SVGID_00000170257330395637601720000012727976925829504681_);fill:#2B2961;}
	.st38{clip-path:url(#SVGID_00000083075093445777574160000014018487687617361046_);fill:#2B2961;}
	.st39{clip-path:url(#SVGID_00000090999411467539724480000002322431772395899833_);fill:#6EC3BF;}
	.st40{clip-path:url(#SVGID_00000057109206355440599120000010381428695055993271_);fill:#6EC3BF;}
	.st41{clip-path:url(#SVGID_00000012430180163106579400000014402250174808193725_);fill:#6EC3BF;}
	.st42{clip-path:url(#SVGID_00000000943632148704436250000015644745093636154284_);fill:#6EC3BF;}
	.st43{clip-path:url(#SVGID_00000161620165320416812510000008393379653062130577_);fill:#2B2961;}
	.st44{clip-path:url(#SVGID_00000049915862113231555540000009961596809689180821_);fill:#2B2961;}
	.st45{clip-path:url(#SVGID_00000153672049538999156940000011781596653253050275_);fill:#2B2961;}
	.st46{clip-path:url(#SVGID_00000066499656533724198370000016269628111869045930_);fill:#2B2961;}
	.st47{clip-path:url(#SVGID_00000066499656533724198370000016269628111869045930_);fill:#FFFFFF;}
	.st48{clip-path:url(#SVGID_00000123418244177163945060000007859625293740633790_);fill:#FFFFFF;}
	.st49{clip-path:url(#SVGID_00000176040038946841850320000012790744821126732196_);fill:#2B2961;}
	.st50{clip-path:url(#SVGID_00000171000367206625130700000007963452422673606072_);fill:#2B2961;}
	.st51{clip-path:url(#SVGID_00000171000367206625130700000007963452422673606072_);fill:#FFFFFF;}
	.st52{clip-path:url(#SVGID_00000112621620066291632810000002170032465501615257_);fill:#2B2961;}
	.st53{clip-path:url(#SVGID_00000112621620066291632810000002170032465501615257_);fill:#2C265F;}
	.st54{clip-path:url(#SVGID_00000157999939889487093970000000168502271231240343_);fill:#FFFFFF;}
	.st55{clip-path:url(#SVGID_00000045589890293615092000000013474548227479027903_);fill:#2B2961;}
	.st56{clip-path:url(#SVGID_00000177474343281678307950000013521215971657302952_);fill:#FFFFFF;}
	.st57{clip-path:url(#SVGID_00000121237491063984754880000005614223795879899559_);fill:#2B2961;}
	.st58{clip-path:url(#SVGID_00000079470034459469894080000013553362694182953134_);fill:#FFFFFF;}
	.st59{clip-path:url(#SVGID_00000085933011213061371770000001320057700391584432_);fill:#2B2961;}
	.st60{clip-path:url(#SVGID_00000085933011213061371770000001320057700391584432_);fill:#FFFFFF;}
	.st61{clip-path:url(#SVGID_00000106149253029455437960000007527907922146130617_);fill:#2B2961;}
	.st62{clip-path:url(#SVGID_00000161626089741622624790000016720648103556222385_);fill:#FFFFFF;}
	.st63{clip-path:url(#SVGID_00000120528247263383638830000017372245654497733545_);fill:#2B2961;}
	.st64{clip-path:url(#SVGID_00000053532041897206442870000003228475553989182854_);fill:#FFFFFF;}
	.st65{clip-path:url(#SVGID_00000053532041897206442870000003228475553989182854_);fill:#2B2961;}
	.st66{clip-path:url(#SVGID_00000147905440016588696370000014670345211090893741_);fill:#2B2961;}
	.st67{clip-path:url(#SVGID_00000147905440016588696370000014670345211090893741_);fill:#6EC3BF;}
	.st68{clip-path:url(#SVGID_00000147905440016588696370000014670345211090893741_);fill:#FFFFFF;}
	.st69{clip-path:url(#SVGID_00000067953837682163238490000012663338704954264464_);fill:#2B2961;}
	.st70{clip-path:url(#SVGID_00000181778918372456357510000016906462264615673223_);fill:#2B2961;}
	.st71{clip-path:url(#SVGID_00000175318029446245414730000011971791207585659026_);fill:#2B2961;}
	.st72{clip-path:url(#SVGID_00000173160829396972500000000013546807880919814286_);fill:#2B2961;}
	.st73{clip-path:url(#SVGID_00000041986004328821585680000010435671036351112331_);fill:#2B2961;}
	.st74{clip-path:url(#SVGID_00000110437524438738740040000001138748926368933256_);fill:#FFFFFF;}
	.st75{clip-path:url(#SVGID_00000110437524438738740040000001138748926368933256_);fill:#6EC3BF;}
	.st76{clip-path:url(#SVGID_00000091733649097800197530000013165311482380430513_);fill:#2B2961;}
	.st77{clip-path:url(#SVGID_00000142861384229114407790000009731039730118355607_);fill:#2B2961;}
	.st78{clip-path:url(#SVGID_00000142861384229114407790000009731039730118355607_);fill:#FFFFFF;}
	.st79{clip-path:url(#SVGID_00000158737303085913870510000005760341647462149005_);fill:#2B2961;}
	.st80{clip-path:url(#SVGID_00000044150099251173607750000008334678705737536641_);fill:#FFFFFF;}
	.st81{clip-path:url(#SVGID_00000067203966053306272460000008937852845828199299_);fill:#2B2961;}
	.st82{clip-path:url(#SVGID_00000120519940634435916420000001505003567281705657_);fill:#2B2961;}
	.st83{clip-path:url(#SVGID_00000084506042331037147100000000160604478390773642_);fill:#2B2961;}
	.st84{clip-path:url(#SVGID_00000181083262907077528290000009286821354232763818_);fill:#FFFFFF;}
	.st85{clip-path:url(#SVGID_00000070817250161165511540000015191082882313134481_);fill:#FFFFFF;}
	.st86{clip-path:url(#SVGID_00000011027362340250168390000000269773081399152318_);fill:#2B2961;}
	.st87{clip-path:url(#SVGID_00000112614626210619299250000014626910331428814271_);fill:#2B2961;}
	.st88{clip-path:url(#SVGID_00000112614626210619299250000014626910331428814271_);fill:#FFFFFF;}
	.st89{clip-path:url(#SVGID_00000070117215347772147530000014537452374154279057_);fill:#2B2961;}
	.st90{clip-path:url(#SVGID_00000026151984217984693240000017403165420749119372_);fill:#FFFFFF;}
	.st91{clip-path:url(#SVGID_00000060729900208838306010000004164788053422957214_);fill:#6EC3BF;}
	.st92{clip-path:url(#SVGID_00000060729900208838306010000004164788053422957214_);fill:#2B2961;}
	.st93{clip-path:url(#SVGID_00000165236374864315352460000002111160703780640642_);fill:#6EC3BF;}
	.st94{clip-path:url(#SVGID_00000085234485046760052300000003950058529236738735_);fill:#2B2961;}
	.st95{clip-path:url(#SVGID_00000111884213398396497880000017434343925940067718_);fill:#2B2961;}
	.st96{clip-path:url(#SVGID_00000006702478878450626830000013492895202837731723_);fill:#2B2961;}
	.st97{clip-path:url(#SVGID_00000035505168661616074890000002090292492617194391_);fill:#2B2961;}
	.st98{clip-path:url(#SVGID_00000059989248043148140970000001733267414563785370_);fill:#2B2961;}
	.st99{clip-path:url(#SVGID_00000059989248043148140970000001733267414563785370_);fill:#6EC3BF;}
	.st100{clip-path:url(#SVGID_00000027606316223370925320000001206260796788431275_);fill:#2B2961;}
	.st101{clip-path:url(#SVGID_00000136390753973477491330000017459934385864731026_);fill:#2B2961;}
	.st102{clip-path:url(#SVGID_00000136390753973477491330000017459934385864731026_);fill:#6EC3BF;}
	.st103{clip-path:url(#SVGID_00000088120028774847976410000015741152926168679322_);fill:#2B2961;}
	.st104{clip-path:url(#SVGID_00000088107978179839229760000011693774835105724053_);fill:#FFFFFF;}
	.st105{clip-path:url(#SVGID_00000088107978179839229760000011693774835105724053_);fill:#2B2961;}
	.st106{clip-path:url(#SVGID_00000001653884923639944950000014379881716994152615_);fill:#6EC3BF;}
	.st107{clip-path:url(#SVGID_00000072958922580549755010000012412320597201184163_);fill:#2B2961;}
	.st108{clip-path:url(#SVGID_00000160911256401281946100000014715847332416028300_);fill:#2B2961;}
	.st109{clip-path:url(#SVGID_00000160911256401281946100000014715847332416028300_);fill:#FFFFFF;}
	.st110{clip-path:url(#SVGID_00000059992654042437158420000005844257214975946129_);fill:#6EC3BF;}
	.st111{clip-path:url(#SVGID_00000032621264820211860830000002005052753385600906_);fill:#2B2961;}
	.st112{clip-path:url(#SVGID_00000123442865424363820370000008404690439268219029_);fill:#2B2961;}
	.st113{clip-path:url(#SVGID_00000123442865424363820370000008404690439268219029_);fill:#6EC3BF;}
	.st114{clip-path:url(#SVGID_00000096033522366904911770000018057029278866141099_);fill:#2B2961;}
	.st115{clip-path:url(#SVGID_00000084505030206957369290000008772099703973532046_);fill:#6EC3BF;}
	.st116{clip-path:url(#SVGID_00000084505030206957369290000008772099703973532046_);fill:#2B2961;}
	.st117{clip-path:url(#SVGID_00000132089003508038009500000014623874864444454314_);fill:#2B2961;}
	.st118{clip-path:url(#SVGID_00000103975365278550960300000003686716002575153327_);fill:#FFFFFF;}
	.st119{clip-path:url(#SVGID_00000103975365278550960300000003686716002575153327_);}
	.st120{clip-path:url(#SVGID_00000097499444734282647530000000324655843792156330_);fill:#2B2961;}
	.st121{clip-path:url(#SVGID_00000103975365278550960300000003686716002575153327_);fill:#6EC3BF;}
	.st122{clip-path:url(#SVGID_00000062192652395593905930000001847809392584825782_);fill:#2B2961;}
	.st123{clip-path:url(#SVGID_00000103975365278550960300000003686716002575153327_);fill:#2B2961;}
	.st124{clip-path:url(#SVGID_00000137844279480821697400000006642964411335932846_);fill:#2B2961;}
	.st125{clip-path:url(#SVGID_00000142893560498275449900000007652472554884615050_);fill:#2B2961;}
	.st126{clip-path:url(#SVGID_00000093138719057335371100000007867411020546391980_);}
	.st127{clip-path:url(#SVGID_00000094609104654966968990000000481371138476709289_);}
	.st128{clip-path:url(#SVGID_00000088821396580574207720000010721808783290196108_);fill:#FFFFFF;}
	.st129{clip-path:url(#SVGID_00000110466447093015544370000015426938605380985265_);fill:#2B2961;}
	.st130{clip-path:url(#SVGID_00000138569137155839037920000000416063807400575125_);fill:#2B2961;}
	.st131{clip-path:url(#SVGID_00000138569137155839037920000000416063807400575125_);fill:#6EC3BF;}
	.st132{clip-path:url(#SVGID_00000138569137155839037920000000416063807400575125_);fill:#FFFFFF;}
	.st133{clip-path:url(#SVGID_00000141439836711283936240000011149989492231287478_);fill:#2B2961;}
	.st134{clip-path:url(#SVGID_00000141439836711283936240000011149989492231287478_);fill:#6EC3BF;}
	.st135{clip-path:url(#SVGID_00000163044303828000378850000002398732426895930291_);fill:#2B2961;}
	.st136{clip-path:url(#SVGID_00000117663875130681971510000015252994498712421796_);fill:#6EC3BF;}
	.st137{clip-path:url(#SVGID_00000117663875130681971510000015252994498712421796_);fill:#FFFFFF;}
	.st138{clip-path:url(#SVGID_00000084524077001969947140000016865224557655302847_);fill:#2B2961;}
	.st139{clip-path:url(#SVGID_00000084524077001969947140000016865224557655302847_);fill:#6EC3BF;}
	.st140{clip-path:url(#SVGID_00000141450663694724871310000013784055185720172164_);fill:#2B2961;}
	.st141{clip-path:url(#SVGID_00000096777354686794110550000002823748880900091785_);fill:#2B2961;}
	.st142{clip-path:url(#SVGID_00000096777354686794110550000002823748880900091785_);fill:#FFFFFF;}
	.st143{clip-path:url(#SVGID_00000040544566173366769910000002104907820609854367_);fill:#2B2961;}
	.st144{clip-path:url(#SVGID_00000014621814483511877440000012774022806535906475_);fill:#FFFFFF;}
	.st145{clip-path:url(#SVGID_00000114795763404928070320000003947847679357241276_);fill:#2B2961;}
	.st146{clip-path:url(#SVGID_00000058587980767941259740000017745571100243919759_);fill:#2B2961;}
	.st147{clip-path:url(#SVGID_00000058587980767941259740000017745571100243919759_);fill:#FFFFFF;}
	.st148{clip-path:url(#SVGID_00000040570100078685245680000000383822148853502893_);fill:#2B2961;}
	.st149{clip-path:url(#SVGID_00000073705337038618981610000010167825004712939453_);fill:#2B2961;}
	.st150{clip-path:url(#SVGID_00000073705337038618981610000010167825004712939453_);fill:#FFFFFF;}
	.st151{clip-path:url(#SVGID_00000054256958633537435010000013073595967218734504_);fill:#2B2961;}
	.st152{clip-path:url(#SVGID_00000054256958633537435010000013073595967218734504_);fill:#6EC3BF;}
	.st153{clip-path:url(#SVGID_00000052787379572954746180000011393571549462021033_);fill:#1D1D1B;}
	.st154{clip-path:url(#SVGID_00000052787379572954746180000011393571549462021033_);fill:#2B2961;}
	.st155{clip-path:url(#SVGID_00000052787379572954746180000011393571549462021033_);fill:#FFFFFF;}
	.st156{clip-path:url(#SVGID_00000079445960434705831210000013317768858040302765_);fill:#2B2961;}
	.st157{clip-path:url(#SVGID_00000147200838566429426990000000234728035765171348_);fill:#2B2961;}
	.st158{clip-path:url(#SVGID_00000140006134468724913160000011038716497319659152_);fill:#2B2961;}
	.st159{clip-path:url(#SVGID_00000140006134468724913160000011038716497319659152_);fill:#FFFFFF;}
	.st160{clip-path:url(#SVGID_00000140006134468724913160000011038716497319659152_);fill:#6EC3BF;}
	.st161{clip-path:url(#SVGID_00000011747362629305548600000001057461286591484306_);fill:#2B2961;}
	.st162{clip-path:url(#SVGID_00000009551854218217286160000008444287374698214530_);fill:#2B2961;}
	.st163{clip-path:url(#SVGID_00000090261069700116585890000006016809911566171008_);fill:#2B2961;}
	.st164{clip-path:url(#SVGID_00000156578390260876432800000008214229687830445194_);fill:#2B2961;}
	.st165{clip-path:url(#SVGID_00000156578390260876432800000008214229687830445194_);fill:#FFFFFF;}
	.st166{clip-path:url(#SVGID_00000071530076316325392190000006959714333023774099_);fill:#2B2961;}
	.st167{clip-path:url(#SVGID_00000071530076316325392190000006959714333023774099_);fill:#FFFFFF;}
	.st168{clip-path:url(#SVGID_00000029041927151735752540000011096407419451086779_);fill:#2B2961;}
	.st169{clip-path:url(#SVGID_00000182525576452909922480000016018632424442475677_);fill:#2B2961;}
	.st170{clip-path:url(#SVGID_00000182525576452909922480000016018632424442475677_);fill:#FFFFFF;}
	.st171{clip-path:url(#SVGID_00000145756174381468280900000001673839751798594441_);fill:#2B2961;}
	.st172{clip-path:url(#SVGID_00000003794462142219380540000017511152100005779611_);fill:#FFFFFF;}
	.st173{clip-path:url(#SVGID_00000070105273841083881790000017376971199008705161_);fill:#2B2961;}
	.st174{clip-path:url(#SVGID_00000070105273841083881790000017376971199008705161_);fill:#6EC3BF;}
	.st175{clip-path:url(#SVGID_00000091014008563036679710000001304636096561476001_);fill:#2B2961;}
	.st176{clip-path:url(#SVGID_00000043437315153911837610000003873922811725388958_);fill:#2B2961;}
	.st177{clip-path:url(#SVGID_00000003090978626415945670000013514190907364884921_);fill:#FFFFFF;}
	.st178{clip-path:url(#SVGID_00000010270456558507704840000009892413553367729308_);fill:#6EC3BF;}
	.st179{clip-path:url(#SVGID_00000010270456558507704840000009892413553367729308_);fill:#2B2961;}
	.st180{clip-path:url(#SVGID_00000033361427212925588060000001565404243117215932_);fill:#6EC3BF;}
	.st181{clip-path:url(#SVGID_00000089538044448143403740000015573397212202066867_);fill:#2B2961;}
	.st182{clip-path:url(#SVGID_00000112626576379547506620000013238940887546614968_);fill:#6EC3BF;}
	.st183{clip-path:url(#SVGID_00000112626576379547506620000013238940887546614968_);fill:#2B2961;}
	.st184{clip-path:url(#SVGID_00000118378595874469781800000014556870030715982753_);fill:#2B2961;}
	.st185{clip-path:url(#SVGID_00000106139793055139593550000009228617623297871500_);fill:#2B2961;}
	.st186{clip-path:url(#SVGID_00000058577056297296369110000007510770564030754446_);fill:#2B2961;}
	.st187{clip-path:url(#SVGID_00000088093645527895728420000004647520040924235707_);fill:#2B2961;}
	.st188{clip-path:url(#SVGID_00000104675249101884619560000014700134129004315040_);fill:#2B2961;}
	.st189{clip-path:url(#SVGID_00000101096712555496711690000016381325379937444541_);fill:#6EC3BF;}
	.st190{clip-path:url(#SVGID_00000101096712555496711690000016381325379937444541_);fill:#2B2961;}
	.st191{clip-path:url(#SVGID_00000031206981154949404030000005695259807163089295_);fill:#6EC3BF;}
	.st192{clip-path:url(#SVGID_00000031206981154949404030000005695259807163089295_);fill:#2B2961;}
	.st193{clip-path:url(#SVGID_00000143592019788790027070000010753845978791844267_);fill:#2B2961;}
	.st194{clip-path:url(#SVGID_00000107582881622873483970000002722269582263041664_);fill:#2B2961;}
	.st195{clip-path:url(#SVGID_00000018919314842755174230000011316163367425803141_);fill:#2B2961;}
	.st196{clip-path:url(#SVGID_00000087389743204492708330000013846699881936200857_);fill:#FFFFFF;}
	.st197{clip-path:url(#SVGID_00000052065763916668305000000014615797011070108317_);fill:#2B2961;}
	.st198{clip-path:url(#SVGID_00000132801627237444014600000014575004999404193968_);fill:#2B2961;}
	.st199{clip-path:url(#SVGID_00000132801627237444014600000014575004999404193968_);fill:#6EC3BF;}
	.st200{clip-path:url(#SVGID_00000031900819887805680770000000171777590368267181_);fill:#2B2961;}
	.st201{clip-path:url(#SVGID_00000127039352132033935870000001962165198107414183_);fill:#2B2961;}
	.st202{clip-path:url(#SVGID_00000029733239063911148390000012322402323209682080_);fill:#6EC3BF;}
	.st203{clip-path:url(#SVGID_00000029733239063911148390000012322402323209682080_);fill:#2B2961;}
	.st204{clip-path:url(#SVGID_00000033330926003435629500000009621944394349561485_);fill:#6EC3BF;}
	.st205{clip-path:url(#SVGID_00000033330926003435629500000009621944394349561485_);fill:#2B2961;}
	.st206{clip-path:url(#SVGID_00000153694205430692920670000011044315194689616818_);fill:#2B2961;}
	.st207{clip-path:url(#SVGID_00000109029755038536609300000002197383092200600235_);fill:#2B2961;}
	.st208{clip-path:url(#SVGID_00000109029755038536609300000002197383092200600235_);fill:#6EC3BF;}
	.st209{clip-path:url(#SVGID_00000106112760005029006490000010004347884232673410_);fill:#2B2961;}
	.st210{clip-path:url(#SVGID_00000106112760005029006490000010004347884232673410_);fill:#6EC3BF;}
	.st211{clip-path:url(#SVGID_00000113353485475817590320000018335129688495932078_);fill:#2B2961;}
	.st212{clip-path:url(#SVGID_00000113353485475817590320000018335129688495932078_);fill:#6EC3BF;}
	.st213{clip-path:url(#SVGID_00000162319081606412149500000002790444896583016119_);fill:#2B2961;}
	.st214{clip-path:url(#SVGID_00000067945026095296598490000004081168025220713140_);fill:#6EC3BF;}
	.st215{clip-path:url(#SVGID_00000067945026095296598490000004081168025220713140_);fill:#2B2961;}
	.st216{clip-path:url(#SVGID_00000124862595244882544050000008605694701674256822_);fill:#6EC3BF;}
	.st217{clip-path:url(#SVGID_00000124862595244882544050000008605694701674256822_);fill:#2B2961;}
	.st218{clip-path:url(#SVGID_00000026880313998345609270000005519244435609010843_);fill:#FFFFFF;}
	.st219{clip-path:url(#SVGID_00000026880313998345609270000005519244435609010843_);fill:#2B2961;}
	.st220{clip-path:url(#SVGID_00000069399410110011923580000014389911718716950975_);fill:#FFFFFF;}
	.st221{clip-path:url(#SVGID_00000069399410110011923580000014389911718716950975_);fill:#2B2961;}
	.st222{clip-path:url(#SVGID_00000126296778538534019130000017010087346329170087_);fill:#FFFFFF;}
	.st223{clip-path:url(#SVGID_00000126296778538534019130000017010087346329170087_);fill:#2B2961;}
	.st224{clip-path:url(#SVGID_00000125561757760809891260000008854163915559176355_);fill:#6EC3BF;}
	.st225{clip-path:url(#SVGID_00000125561757760809891260000008854163915559176355_);fill:#2B2961;}
	.st226{clip-path:url(#SVGID_00000142162136079680929380000006598115570924532352_);fill:#2B2961;}
	.st227{clip-path:url(#SVGID_00000142162136079680929380000006598115570924532352_);fill:#6EC3BF;}
	.st228{clip-path:url(#SVGID_00000046337636423442249490000008010367155025201556_);fill:#2B2961;}
	.st229{clip-path:url(#SVGID_00000098201967530240780090000005170457181699784579_);fill:#6EC3BF;}
	.st230{clip-path:url(#SVGID_00000098201967530240780090000005170457181699784579_);fill:#2B2961;}
	.st231{clip-path:url(#SVGID_00000067923851531345427320000011963863496169155753_);fill:#2B2961;}
	.st232{clip-path:url(#SVGID_00000150792290671776376390000006142943657873793717_);fill:#2B2961;}
	.st233{clip-path:url(#SVGID_00000150792290671776376390000006142943657873793717_);fill:#6EC3BF;}
	.st234{clip-path:url(#SVGID_00000142173820727075222020000007646604270126583219_);fill:#2B2961;}
	.st235{clip-path:url(#SVGID_00000007393459006281651050000016748320044473798294_);fill:#FFFFFF;}
	.st236{clip-path:url(#SVGID_00000007393459006281651050000016748320044473798294_);fill:#2B2961;}
	.st237{fill:#2C265F;}
	.st238{clip-path:url(#SVGID_00000151514453682626342440000006838982079104213384_);fill:#2B2961;}
	.st239{clip-path:url(#SVGID_00000151514453682626342440000006838982079104213384_);fill:#6EC3BF;}
	.st240{fill:#61B87A;}
	.st241{clip-path:url(#SVGID_00000005248776119682553800000001515205304722118831_);fill:#2B2961;}
	.st242{clip-path:url(#SVGID_00000038390410308324305450000006757086688581481347_);fill:#2B2961;}
	.st243{clip-path:url(#SVGID_00000134242090592730668740000002763690718618289032_);fill:#2B2961;}
	.st244{clip-path:url(#SVGID_00000150817370929554448160000009236244469127712386_);fill:#2B2961;}
	.st245{clip-path:url(#SVGID_00000150817370929554448160000009236244469127712386_);fill:#61B87A;}
	.st246{clip-path:url(#SVGID_00000150817370929554448160000009236244469127712386_);fill:#FFFFFF;}
	.st247{clip-path:url(#SVGID_00000027603412145758274070000014501321461648362416_);fill:#2B2961;}
	.st248{clip-path:url(#SVGID_00000027603412145758274070000014501321461648362416_);fill:#61B87A;}
	.st249{clip-path:url(#SVGID_00000034052858334992217280000014809053741004690604_);fill:#2B2961;}
	.st250{clip-path:url(#SVGID_00000173840445879938619330000014786875994953265036_);fill:#6EC3BF;}
	.st251{clip-path:url(#SVGID_00000173840445879938619330000014786875994953265036_);fill:#2B2961;}
	.st252{clip-path:url(#SVGID_00000159429909820202557600000006759155814712717474_);fill:#2B2961;}
	.st253{clip-path:url(#SVGID_00000159429909820202557600000006759155814712717474_);fill:#6EC3BF;}
	.st254{clip-path:url(#SVGID_00000116195736141454524240000013775236164179335813_);fill:#2B2961;}
	.st255{clip-path:url(#SVGID_00000116195736141454524240000013775236164179335813_);fill:#6EC3BF;}
</style>
<g>
	<polygon class="st240" points="12.65,33.15 12.65,448.37 222.95,448.37 298.95,338.5 298.95,33.15 	"/>
	<path class="st240" d="M223.82,450.03H10.99V31.49h289.6v307.52l-0.3,0.43L223.82,450.03z M14.32,446.7h207.77l75.19-108.72V34.82
		H14.32V446.7z"/>
	<g>
		<defs>
			<rect id="SVGID_00000018228759951646692170000009219035717605841085_" y="29.95" width="512" height="452.1"/>
		</defs>
		<clipPath id="SVGID_00000034088591162271125280000008645345752065098160_">
			<use xlink:href="#SVGID_00000018228759951646692170000009219035717605841085_"  style="overflow:visible;"/>
		</clipPath>
		<path style="clip-path:url(#SVGID_00000034088591162271125280000008645345752065098160_);fill:#2B2961;" d="M295.64,451.87H4.16
			c-2.3,0-4.16-1.86-4.16-4.16V34.1c0-2.3,1.86-4.16,4.16-4.16h291.48c2.3,0,4.16,1.86,4.16,4.16v413.6
			C299.81,450,297.94,451.87,295.64,451.87z M8.33,443.54h283.15V38.27H8.33V443.54z"/>
	</g>
	<polygon class="st3" points="34.33,64.29 34.33,477.89 266.01,477.89 325.82,417.92 325.82,64.29 	"/>
	<g>
		<defs>
			<rect id="SVGID_00000011745148083463535810000002080573853028883865_" y="29.95" width="512" height="452.1"/>
		</defs>
		<clipPath id="SVGID_00000013157008674517854410000012599665860160164263_">
			<use xlink:href="#SVGID_00000011745148083463535810000002080573853028883865_"  style="overflow:visible;"/>
		</clipPath>
		<path style="clip-path:url(#SVGID_00000013157008674517854410000012599665860160164263_);fill:#2B2961;" d="M266,482.05H34.33
			c-2.3,0-4.16-1.86-4.16-4.16V64.28c0-2.3,1.86-4.16,4.16-4.16h291.49c2.3,0,4.16,1.86,4.16,4.16v353.64
			c0,1.11-0.43,2.16-1.21,2.94l-59.82,59.97C268.17,481.61,267.11,482.05,266,482.05z M38.5,473.72h225.78l57.38-57.52V68.44H38.5
			V473.72z"/>
	</g>
	<polygon class="st3" points="267.92,419.98 267.92,478.05 325.97,419.98 	"/>
	<g>
		<defs>
			<rect id="SVGID_00000116202856013141839500000018430951257079584943_" y="29.95" width="512" height="452.1"/>
		</defs>
		<clipPath id="SVGID_00000168836838362764818720000015909865894992922762_">
			<use xlink:href="#SVGID_00000116202856013141839500000018430951257079584943_"  style="overflow:visible;"/>
		</clipPath>
		<path style="clip-path:url(#SVGID_00000168836838362764818720000015909865894992922762_);fill:#2B2961;" d="M267.92,481.87
			c-0.5,0-1-0.09-1.47-0.29c-1.43-0.6-2.37-1.99-2.37-3.55v-58.05c0-2.12,1.72-3.84,3.84-3.84h58.05c1.55,0,2.96,0.94,3.55,2.37
			c0.6,1.44,0.26,3.09-0.83,4.18l-58.05,58.05C269.9,481.48,268.91,481.87,267.92,481.87z M271.75,423.82v44.94l44.95-44.94H271.75z
			"/>
	</g>
	<polygon class="st240" points="273.23,420.33 273.23,472.97 321.68,420.33 	"/>
	<path class="st240" d="M271.56,477.21v-58.55h53.91L271.56,477.21z M274.89,421.99v46.72l43.02-46.72H274.89z"/>
	<g>
		<defs>
			<rect id="SVGID_00000025408966798558161380000014425991162525011073_" y="29.95" width="512" height="452.1"/>
		</defs>
		<clipPath id="SVGID_00000139987321505469463580000010532190027483997624_">
			<use xlink:href="#SVGID_00000025408966798558161380000014425991162525011073_"  style="overflow:visible;"/>
		</clipPath>
		<path style="clip-path:url(#SVGID_00000139987321505469463580000010532190027483997624_);fill:#2B2961;" d="M267.92,481.87
			c-0.5,0-1-0.09-1.47-0.29c-1.43-0.6-2.37-1.99-2.37-3.55v-58.05c0-2.12,1.72-3.84,3.84-3.84h58.05c1.55,0,2.96,0.94,3.55,2.37
			c0.6,1.44,0.26,3.09-0.83,4.18l-58.05,58.05C269.9,481.48,268.91,481.87,267.92,481.87z M271.75,423.82v44.94l44.95-44.94H271.75z
			"/>
		<path style="clip-path:url(#SVGID_00000139987321505469463580000010532190027483997624_);fill:#61B87A;" d="M174.56,164.85
			c3.14,9.46,9.97,14.08,20.04,14.08c7.49,0,14.89-3.51,18.11-10.65c0.19-0.46,0.37-1.01,0.37-1.49c0-1.57-1.01-2.5-2.5-2.5
			c-0.92,0-1.65,0.56-2.31,1.67c-2.96,5.19-7.58,7.97-13.68,7.97c-7.85,0-12.57-3.61-14.97-10.47c-0.83-2.5-1.37-6.4-1.37-16.97
			c0-10.57,0.54-14.47,1.37-16.97c2.4-6.86,7.12-10.47,14.97-10.47c6.1,0,10.72,2.78,13.68,7.97c0.65,1.11,1.39,1.67,2.31,1.67
			c1.49,0,2.5-0.93,2.5-2.5c0-0.47-0.18-1.03-0.37-1.49c-3.22-7.14-10.62-10.65-18.11-10.65c-10.07,0-16.9,4.62-20.04,14.08
			c-1.01,3.15-1.67,7.32-1.67,18.36S173.55,161.7,174.56,164.85"/>
		<path style="clip-path:url(#SVGID_00000139987321505469463580000010532190027483997624_);fill:#2B2961;" d="M191.86,178.97
			c-10.03,0-16.94-5.03-20-14.55c0,0,0-0.01,0-0.01c-0.98-3.15-1.59-7.25-1.59-17.92s0.61-14.76,1.59-17.92
			c3.06-9.53,9.97-14.57,20-14.57c8.21,0,15.17,4.27,18.17,11.13c0.35,0.87,0.5,1.52,0.5,2.1c0,2.42-1.65,4.11-4.03,4.11
			c-1.47,0-2.69-0.83-3.62-2.45c-2.45-4.44-6.15-6.68-11.02-6.68c-6.2,0-10.04,2.78-12.04,8.75c-0.62,1.91-1.19,5.12-1.19,15.53
			c0,10.4,0.58,13.62,1.2,15.54c2,5.95,5.83,8.73,12.04,8.73c4.87,0,8.57-2.24,11.01-6.65c0.94-1.66,2.16-2.49,3.63-2.49
			c2.37,0,4.03,1.69,4.03,4.11c0,0.78-0.27,1.55-0.47,2.05C207.03,174.7,200.06,178.97,191.86,178.97z M175.17,163.37
			c2.62,8.16,8.08,12.13,16.69,12.13c6.8,0,12.55-3.47,14.99-9.06c0.19-0.47,0.2-0.67,0.2-0.71c0-0.6-0.21-0.64-0.56-0.64
			c-0.09,0-0.33,0.22-0.61,0.71c-3.03,5.51-7.89,8.43-14.03,8.43c-7.69,0-12.85-3.74-15.34-11.11c-0.83-2.56-1.37-6.36-1.37-16.63
			c0-10.28,0.54-14.08,1.36-16.62c2.5-7.39,7.66-11.13,15.35-11.13c6.14,0,11,2.92,14.04,8.46c0.22,0.39,0.47,0.68,0.6,0.68
			c0.35,0,0.56-0.04,0.56-0.64c0-0.01-0.01-0.22-0.22-0.77c-2.42-5.53-8.17-8.99-14.97-8.99c-8.61,0-14.07,3.97-16.69,12.14
			c-0.88,2.83-1.43,6.65-1.43,16.87C173.74,156.71,174.29,160.53,175.17,163.37z"/>
		<path style="clip-path:url(#SVGID_00000139987321505469463580000010532190027483997624_);fill:#FFFFFF;" d="M128.57,171.81v-22.89
			c0-0.36,0.15-0.54,0.44-0.54h13.22c7.24,0,10.93,4.79,10.93,12.04c0,7.24-3.69,11.94-10.93,11.94h-13.22
			C128.72,172.37,128.57,172.19,128.57,171.81 M129.01,143.51c-0.29,0-0.44-0.18-0.44-0.54v-21.8c0-0.36,0.15-0.54,0.44-0.54h12.86
			c6.79,0,10.49,4.43,10.49,11.4c0,6.78-3.62,11.49-10.42,11.49H129.01z M124.37,174.8c0,1.53,0.81,2.43,2.07,2.43h15.57
			c9.83,0,15.36-6.22,15.36-16.8c0-9.05-4.79-13.85-8.55-14.75v-0.18c4.64-1.71,7.74-6.33,7.74-13.75c0-9.78-5.08-16-14.61-16h-15.5
			c-1.26,0-2.07,0.9-2.07,2.43V174.8z"/>
		<path style="clip-path:url(#SVGID_00000139987321505469463580000010532190027483997624_);fill:#2B2961;" d="M142.01,178.96h-15.57
			c-2.24,0-3.8-1.71-3.8-4.16v-56.62c0-2.45,1.57-4.16,3.8-4.16h15.5c10.23,0,16.34,6.63,16.34,17.73c0,6.16-2.08,10.99-5.8,13.73
			c3.57,2.45,6.62,7.51,6.62,14.95C159.11,172.03,152.72,178.96,142.01,178.96z M126.44,117.49c-0.14,0-0.33,0-0.33,0.69v56.62
			c0,0.69,0.2,0.69,0.33,0.69h15.57c8.79,0,13.62-5.35,13.62-15.07c0-8.31-4.32-12.36-7.23-13.06l-1.33-0.32v-2.58l1.13-0.6
			c4.26-1.57,6.6-5.87,6.6-12.12c0-9.2-4.57-14.26-12.87-14.26H126.44z M142.24,174.1h-13.22c-1.27,0-2.18-0.96-2.18-2.29v-22.89
			c0-1.32,0.92-2.28,2.18-2.28h13.22c7.93,0,12.66,5.15,12.66,13.78C154.9,168.99,150.16,174.1,142.24,174.1z M130.3,170.63h11.93
			c7.99,0,9.19-6.39,9.19-10.21c0-3.85-1.19-10.31-9.19-10.31H130.3V170.63z M141.94,145.24h-12.93c-1.27,0-2.18-0.96-2.18-2.27
			v-21.81c0-1.32,0.92-2.28,2.18-2.28h12.86c7.54,0,12.23,5.04,12.23,13.14C154.1,140.05,149.33,145.24,141.94,145.24z
			 M130.3,141.77h11.64c5.51,0,8.68-3.55,8.68-9.74c0-3.61-1.14-9.67-8.75-9.67H130.3V141.77z"/>
		<path style="clip-path:url(#SVGID_00000139987321505469463580000010532190027483997624_);fill:#61B87A;" d="M128.5,174.44v-24.29
			c0-0.37,0.17-0.57,0.5-0.57h14.76c8.1,0,12.22,5.08,12.22,12.76c0,7.68-4.12,12.67-12.22,12.67H129
			C128.67,175.01,128.5,174.81,128.5,174.44 M129,144.41c-0.33,0-0.5-0.19-0.5-0.57v-23.14c0-0.37,0.17-0.57,0.5-0.57h14.36
			c7.58,0,11.72,4.69,11.72,12.08c0,7.21-4.06,12.19-11.64,12.19H129z M123.81,177.59c0,1.62,0.9,2.58,2.31,2.58h17.42
			c10.97,0,17.15-6.61,17.15-17.83c0-9.6-5.36-14.68-9.57-15.64v-0.18c5.21-1.82,8.67-6.72,8.67-14.58
			c0-10.36-5.69-16.97-16.33-16.97h-17.33c-1.4,0-2.31,0.96-2.31,2.58V177.59z"/>
		<path style="clip-path:url(#SVGID_00000139987321505469463580000010532190027483997624_);fill:#2B2961;" d="M142.01,178.96h-15.57
			c-2.24,0-3.8-1.71-3.8-4.16v-56.62c0-2.45,1.57-4.16,3.8-4.16h15.5c10.23,0,16.34,6.63,16.34,17.73c0,6.16-2.08,10.99-5.8,13.73
			c3.57,2.45,6.62,7.51,6.62,14.95C159.11,172.03,152.72,178.96,142.01,178.96z M126.44,117.49c-0.14,0-0.33,0-0.33,0.69v56.62
			c0,0.69,0.2,0.69,0.33,0.69h15.57c8.79,0,13.62-5.35,13.62-15.07c0-8.31-4.32-12.36-7.23-13.06l-1.33-0.32v-2.58l1.13-0.6
			c4.26-1.57,6.6-5.87,6.6-12.12c0-9.2-4.57-14.26-12.87-14.26H126.44z M142.24,174.1h-13.22c-1.27,0-2.18-0.96-2.18-2.29v-22.89
			c0-1.32,0.92-2.28,2.18-2.28h13.22c7.93,0,12.66,5.15,12.66,13.78C154.9,168.99,150.16,174.1,142.24,174.1z M130.3,170.63h11.93
			c7.99,0,9.19-6.39,9.19-10.21c0-3.85-1.19-10.31-9.19-10.31H130.3V170.63z M141.94,145.24h-12.93c-1.27,0-2.18-0.96-2.18-2.27
			v-21.81c0-1.32,0.92-2.28,2.18-2.28h12.86c7.54,0,12.23,5.04,12.23,13.14C154.1,140.05,149.33,145.24,141.94,145.24z
			 M130.3,141.77h11.64c5.51,0,8.68-3.55,8.68-9.74c0-3.61-1.14-9.67-8.75-9.67H130.3V141.77z"/>
		<path style="clip-path:url(#SVGID_00000139987321505469463580000010532190027483997624_);fill:#FFFFFF;" d="M77.37,156.49
			l11.35-32.09h0.26l11.26,32.09H77.37z M65.66,175.4c0,1.44,1.07,2.35,2.39,2.35c1.25,0,2.04-0.64,2.49-1.81l5.14-14.51h26.25
			l5.14,14.51c0.44,1.17,1.25,1.81,2.49,1.81c1.33,0,2.39-0.9,2.39-2.35c0-0.36-0.08-0.72-0.18-0.99l-19.68-55.97
			c-0.61-1.81-1.6-2.71-3.18-2.71c-1.6,0-2.58,0.9-3.19,2.71l-19.86,55.97C65.74,174.68,65.66,175.04,65.66,175.4"/>
		<path style="clip-path:url(#SVGID_00000139987321505469463580000010532190027483997624_);fill:#2B2961;" d="M109.54,179.49
			c-1.93,0-3.39-1.04-4.1-2.92l-4.75-13.4H76.9l-4.73,13.36c-0.73,1.93-2.2,2.96-4.12,2.96c-2.35,0-4.12-1.76-4.12-4.08
			c0-0.52,0.1-1.08,0.28-1.57l19.86-55.96c1.08-3.19,3.22-3.87,4.83-3.87c1.6,0,3.74,0.68,4.83,3.89l19.67,55.94
			c0.13,0.35,0.28,0.92,0.28,1.57C113.67,177.73,111.9,179.49,109.54,179.49z M74.44,159.69h28.7l5.55,15.68
			c0.23,0.6,0.49,0.64,0.85,0.64c0.66,0,0.66-0.44,0.66-0.61l-19.76-56.38c-0.53-1.55-1.12-1.55-1.55-1.55c-0.43,0-1.03,0-1.55,1.53
			L67.4,175.4c0,0.15,0,0.61,0.65,0.61c0.37,0,0.62-0.05,0.87-0.69L74.44,159.69z M102.69,158.22H74.91l12.57-35.57h2.45l0.68,1.16
			L102.69,158.22z M79.82,154.75h17.97l-8.95-25.51L79.82,154.75z"/>
		<path style="clip-path:url(#SVGID_00000139987321505469463580000010532190027483997624_);fill:#61B87A;" d="M78.3,159.31
			l12.19-33.89h0.28l12.11,33.89H78.3z M65.72,179.28c0,1.53,1.14,2.47,2.57,2.47c1.33,0,2.19-0.67,2.67-1.9l5.53-15.32h28.21
			l5.53,15.32c0.47,1.24,1.33,1.9,2.67,1.9c1.43,0,2.57-0.94,2.57-2.47c0-0.37-0.1-0.76-0.18-1.04l-21.15-59.09
			c-0.67-1.9-1.72-2.85-3.43-2.85c-1.72,0-2.76,0.94-3.43,2.85l-21.35,59.09C65.81,178.52,65.72,178.91,65.72,179.28"/>
		<path style="clip-path:url(#SVGID_00000139987321505469463580000010532190027483997624_);fill:#2B2961;" d="M109.54,179.49
			c-1.93,0-3.39-1.04-4.1-2.92l-4.75-13.4H76.9l-4.73,13.36c-0.73,1.93-2.2,2.96-4.12,2.96c-2.35,0-4.12-1.76-4.12-4.08
			c0-0.52,0.1-1.08,0.28-1.57l19.86-55.96c1.08-3.19,3.22-3.87,4.83-3.87c1.6,0,3.74,0.68,4.83,3.89l19.67,55.94
			c0.13,0.35,0.28,0.92,0.28,1.57C113.67,177.73,111.9,179.49,109.54,179.49z M74.44,159.69h28.7l5.55,15.68
			c0.23,0.6,0.49,0.64,0.85,0.64c0.66,0,0.66-0.44,0.66-0.61l-19.76-56.38c-0.53-1.55-1.12-1.55-1.55-1.55c-0.43,0-1.03,0-1.55,1.53
			L67.4,175.4c0,0.15,0,0.61,0.65,0.61c0.37,0,0.62-0.05,0.87-0.69L74.44,159.69z M102.69,158.22H74.91l12.57-35.57h2.45l0.68,1.16
			L102.69,158.22z M79.82,154.75h17.97l-8.95-25.51L79.82,154.75z"/>
	</g>
	<path class="st6" d="M243.9,323.22H64.04c-1.53,0-2.78-1.25-2.78-2.78s1.25-2.78,2.78-2.78H243.9c1.53,0,2.78,1.25,2.78,2.78
		S245.43,323.22,243.9,323.22z"/>
	<path class="st6" d="M274.13,288.5H64.01c-1.53,0-2.78-1.25-2.78-2.78s1.25-2.78,2.78-2.78h210.12c1.53,0,2.78,1.25,2.78,2.78
		S275.67,288.5,274.13,288.5z M275.12,256.21H64.98c-1.53,0-2.78-1.25-2.78-2.78c0-1.53,1.25-2.78,2.78-2.78h210.14
		c1.53,0,2.78,1.25,2.78,2.78C277.91,254.97,276.66,256.21,275.12,256.21z"/>
	<path class="st6" d="M215.9,221.39H65.05c-1.53,0-2.78-1.25-2.78-2.78s1.25-2.78,2.78-2.78H215.9c1.53,0,2.78,1.25,2.78,2.78
		S217.43,221.39,215.9,221.39z"/>
	<path class="st6" d="M274.13,382.35H64.01c-1.53,0-2.78-1.25-2.78-2.78s1.25-2.78,2.78-2.78h210.12c1.53,0,2.78,1.25,2.78,2.78
		S275.67,382.35,274.13,382.35z M275.12,356.62H64.98c-1.53,0-2.78-1.25-2.78-2.78s1.25-2.78,2.78-2.78h210.14
		c1.53,0,2.78,1.25,2.78,2.78S276.66,356.62,275.12,356.62z"/>
	<path class="st6" d="M185.11,416.65H65c-1.53,0-2.78-1.25-2.78-2.78c0-1.53,1.25-2.78,2.78-2.78h120.1c1.53,0,2.78,1.25,2.78,2.78
		C187.89,415.4,186.64,416.65,185.11,416.65z"/>
	<polygon class="st3" points="237.37,290.32 194.34,407.04 305.45,350.77 507.92,125.75 439.91,64.46 	"/>
	<g>
		<defs>
			<rect id="SVGID_00000107547088215271247220000000977516662742949799_" y="29.95" width="512" height="452.1"/>
		</defs>
		<clipPath id="SVGID_00000090276577844452069840000010672750699807203472_">
			<use xlink:href="#SVGID_00000107547088215271247220000000977516662742949799_"  style="overflow:visible;"/>
		</clipPath>
		<path style="clip-path:url(#SVGID_00000090276577844452069840000010672750699807203472_);fill:#2B2961;" d="M194.35,411.01
			c-0.95,0-1.89-0.35-2.64-1c-1.21-1.08-1.65-2.81-1.08-4.33l43.01-116.73c0.18-0.47,0.43-0.9,0.77-1.27L436.95,61.82
			c0.7-0.79,1.69-1.26,2.74-1.32c1.11,0,2.09,0.31,2.86,1.02l68.02,61.29c1.63,1.46,1.76,3.97,0.3,5.59L308.41,353.42
			c-0.33,0.37-0.72,0.66-1.16,0.89l-111.1,56.28C195.58,410.87,194.97,411.01,194.35,411.01z M240.82,292.4l-39.26,106.55
			L303,347.57l199.32-221.53L440.2,70.07L240.82,292.4z"/>
		<path style="clip-path:url(#SVGID_00000090276577844452069840000010672750699807203472_);fill:#61B87A;" d="M448.16,107.49
			L268.94,306.62c-5.56,6.17-5.06,15.68,1.11,21.22c6.17,5.56,15.65,5.06,21.21-1.11L470.48,127.6L448.16,107.49z"/>
		<path style="clip-path:url(#SVGID_00000090276577844452069840000010672750699807203472_);fill:#61B87A;" d="M280.09,333.42
			c-4,0-8.01-1.42-11.2-4.29c-3.33-2.98-5.29-7.09-5.53-11.57c-0.23-4.48,1.29-8.77,4.29-12.1l179.23-199.13
			c0.31-0.35,0.74-0.55,1.2-0.58c0.52-0.01,0.92,0.14,1.25,0.45l22.32,20.11c0.71,0.64,0.77,1.74,0.13,2.45L292.55,327.89
			C289.24,331.56,284.67,333.42,280.09,333.42z M448.29,109.94L270.22,307.78c-2.37,2.64-3.58,6.05-3.39,9.6
			c0.18,3.55,1.74,6.8,4.37,9.17c5.45,4.89,13.85,4.45,18.76-0.98l178.06-197.85L448.29,109.94z"/>
		<path style="clip-path:url(#SVGID_00000090276577844452069840000010672750699807203472_);fill:#61B87A;" d="M236.37,363.49
			c-7.12-5.69-18.39-5.47-19.86-3.83l-16.15,45.61l46.01-23.46C246.37,381.8,249.05,373.62,236.37,363.49"/>
		<path style="clip-path:url(#SVGID_00000090276577844452069840000010672750699807203472_);fill:#61B87A;" d="M200.36,407
			c-0.41,0-0.82-0.15-1.15-0.43c-0.54-0.47-0.73-1.22-0.49-1.89l16.15-45.61c0.07-0.22,0.19-0.41,0.34-0.58
			c2.32-2.56,14.57-2.5,22.24,3.63c13.47,10.77,10.69,19.83,10.57,20.21c-0.14,0.43-0.45,0.79-0.86,1l-46.01,23.46
			C200.9,406.94,200.63,407,200.36,407z M217.95,360.78l-14.5,40.96l41.39-21.1c0.23-1.94,0.05-8.12-9.55-15.79l0,0
			C229.17,359.94,219.97,359.99,217.95,360.78z"/>
		<path style="clip-path:url(#SVGID_00000090276577844452069840000010672750699807203472_);fill:#2B2961;" d="M194.45,411.12
			c-1,0-1.99-0.36-2.77-1.05c-1.27-1.14-1.73-2.94-1.13-4.55l42.99-116.68c0.18-0.5,0.46-0.95,0.81-1.34L436.76,61.76
			c0.74-0.83,1.77-1.32,2.88-1.38c1.1,0.04,2.19,0.33,3.01,1.07l67.97,61.26c1.71,1.54,1.85,4.17,0.31,5.88l-202.35,224.9
			c-0.35,0.38-0.76,0.7-1.21,0.93l-111.03,56.25C195.74,410.97,195.09,411.12,194.45,411.12z M241.08,292.47l-39.05,105.98
			l100.88-51.1l199.05-221.23l-61.78-55.67L241.08,292.47z"/>
		<path style="clip-path:url(#SVGID_00000090276577844452069840000010672750699807203472_);fill:#2B2961;" d="M300.35,351.05
			c-4.24,0-8.5-1.5-11.89-4.54c-4.68-4.22-6.6-10.4-5.63-16.19c-5.68,1.58-12,0.31-16.69-3.91c-3.53-3.19-5.61-7.55-5.87-12.29
			c-0.06-1.13-0.01-2.24,0.13-3.33c-1.4,0.44-2.86,0.71-4.37,0.78c-4.75,0.28-9.32-1.36-12.85-4.55
			c-7.28-6.56-7.88-17.83-1.32-25.12l4.14,3.72c-4.52,5.02-4.11,12.77,0.9,17.29c2.43,2.19,5.51,3.31,8.84,3.13
			c3.26-0.17,6.26-1.6,8.44-4.03l0.02,0.02c0.2-0.24,0.41-0.49,0.62-0.73l177.33-196.96l-20.25-18.24l3.72-4.12l67.35,60.66
			l-3.72,4.12l-20.71-18.65l-177.29,197c-4.51,5.01-4.1,12.77,0.91,17.29c5.01,4.49,12.78,4.09,17.29-0.92l4.12,3.73
			C310.07,349.07,305.22,351.05,300.35,351.05z M446.29,108.04L268.95,305c-2.18,2.43-3.3,5.57-3.13,8.83
			c0.17,3.26,1.61,6.27,4.03,8.46c5.02,4.5,12.77,4.1,17.29-0.91l177.28-197L446.29,108.04z M496.24,138.97l-67.35-60.64l3.72-4.12
			l67.35,60.64L496.24,138.97z"/>
	</g>
</g>
</svg>
