<?xml version="1.0" encoding="UTF-8"?><svg id="a" xmlns="http://www.w3.org/2000/svg" xmlns:xlink="http://www.w3.org/1999/xlink" viewBox="0 0 374.29 512"><defs><style>.c{fill:none;}.d{fill:#2b2961;}.e{fill:#61b87a;}.f{clip-path:url(#b);}</style><clipPath id="b"><rect class="c" x="3.22" width="367.85" height="512"/></clipPath></defs><g class="f"><path class="e" d="M93.7,.09C49.53,.09,13.73,35.95,13.73,80.02V432.07c0,44.23,35.8,80.07,79.97,80.07h197.4c44.16,0,79.97-35.85,79.97-80.07V80.02C371.07,35.95,335.26,.09,291.1,.09H93.7Z"/><path class="d" d="M280.5,512.03H86.01c-45.65,0-82.79-37.19-82.79-82.91V82.82C3.22,37.18,40.35,.07,86.01,.07h194.49c45.65,0,82.79,37.12,82.79,82.75V429.13c0,45.71-37.14,82.91-82.79,82.91ZM86.01,5.7C43.47,5.7,8.86,40.3,8.86,82.82V429.13c0,42.6,34.61,77.27,77.15,77.27h194.49c42.54,0,77.15-34.67,77.15-77.27V82.82c0-42.52-34.61-77.11-77.15-77.11H86.01Z"/><path class="d" d="M88.6,385.23c-17.86,0-32.4-14.57-32.4-32.5s14.53-32.36,32.4-32.36,32.4,14.52,32.4,32.36-14.53,32.5-32.4,32.5Zm0-59.22c-14.75,0-26.75,11.99-26.75,26.72s12,26.86,26.75,26.86,26.75-12.05,26.75-26.86-12-26.72-26.75-26.72Z"/><path class="d" d="M88.6,477.5c-17.86,0-32.4-14.57-32.4-32.5s14.53-32.36,32.4-32.36,32.4,14.52,32.4,32.36-14.53,32.5-32.4,32.5Zm0-59.22c-14.75,0-26.75,11.99-26.75,26.72s12,26.86,26.75,26.86,26.75-12.05,26.75-26.86-12-26.72-26.75-26.72Z"/><path class="d" d="M190.59,385.23c-17.86,0-32.4-14.57-32.4-32.5s14.53-32.36,32.4-32.36,32.4,14.52,32.4,32.36-14.53,32.5-32.4,32.5Zm0-59.22c-14.75,0-26.75,11.99-26.75,26.72s12,26.86,26.75,26.86,26.75-12.05,26.75-26.86-12-26.72-26.75-26.72Z"/><path class="d" d="M190.59,477.5c-17.86,0-32.4-14.57-32.4-32.5s14.53-32.36,32.4-32.36,32.4,14.52,32.4,32.36-14.53,32.5-32.4,32.5Zm0-59.22c-14.75,0-26.75,11.99-26.75,26.72s12,26.86,26.75,26.86,26.75-12.05,26.75-26.86-12-26.72-26.75-26.72Z"/><path class="d" d="M292.59,385.23c-17.86,0-32.39-14.57-32.39-32.5s14.53-32.36,32.39-32.36,32.4,14.52,32.4,32.36-14.53,32.5-32.4,32.5Zm0-59.22c-14.75,0-26.75,11.99-26.75,26.72s12,26.86,26.75,26.86,26.75-12.05,26.75-26.86-12-26.72-26.75-26.72Z"/><path class="d" d="M292.59,477.5c-17.86,0-32.39-14.57-32.39-32.5s14.53-32.36,32.39-32.36,32.4,14.52,32.4,32.36-14.53,32.5-32.4,32.5Zm0-59.22c-14.75,0-26.75,11.99-26.75,26.72s12,26.86,26.75,26.86,26.75-12.05,26.75-26.86-12-26.72-26.75-26.72Z"/><path class="d" d="M187.14,229.91c-43.52,0-78.93-35.41-78.93-78.93s35.41-78.92,78.93-78.92,78.93,35.4,78.93,78.92-35.41,78.93-78.93,78.93Zm0-152.21c-40.41,0-73.29,32.88-73.29,73.28s32.88,73.29,73.29,73.29,73.29-32.88,73.29-73.29-32.88-73.28-73.29-73.28Z"/></g></svg>