<?xml version="1.0" encoding="UTF-8"?><svg id="a" xmlns="http://www.w3.org/2000/svg" xmlns:xlink="http://www.w3.org/1999/xlink" viewBox="0 0 512 273.07"><defs><style>.d{fill:none;}.e{fill:#fff;}.f{fill:#2b2961;}.g{fill:#61b87a;}.h{clip-path:url(#c);}.i{clip-path:url(#b);}</style><clipPath id="b"><rect class="d" y="9.91" width="512" height="253.24"/></clipPath><clipPath id="c"><rect class="d" y="9.91" width="512" height="253.24"/></clipPath></defs><rect class="g" x="22.13" y="77.27" width="376.64" height="180.95"/><path class="g" d="M398.78,259.04H22.14c-.46,0-.83-.37-.83-.83V77.26c0-.46,.37-.83,.83-.83H398.78c.46,0,.83,.37,.83,.83v180.96c0,.46-.37,.83-.83,.83Zm-375.81-1.65H397.95V78.09H22.97v179.3Z"/><g class="i"><path class="f" d="M397.64,261H1.97c-1.09,0-1.97-.88-1.97-1.97V77.19c0-1.09,.88-1.97,1.97-1.97H397.64c1.09,0,1.97,.88,1.97,1.97v181.84c0,1.09-.88,1.97-1.97,1.97ZM3.94,257.06H395.67V79.16H3.94v177.9Z"/></g><path class="e" d="M204.48,221.84c-9.73,0-17.59-3.37-23.96-9.74-5.74-5.73-7.61-12.23-8.36-20.58h-9.11v-10.37h8.61v-9.35h-8.61v-10.37h9.11c.75-8.24,2.75-14.6,8.36-20.2,6.36-6.36,14.23-9.74,23.96-9.74,16.59,0,29.45,9.48,32.56,28.08h-17.59c-1.74-7.12-6.36-12.61-14.97-12.61-4.74,0-8.49,1.87-10.98,4.62-2.12,2.37-3.12,4.86-3.62,9.85h18.47v10.37h-19.22v9.35h19.22v10.37h-18.59c.5,5.36,1.62,7.85,3.75,10.22,2.5,2.75,6.24,4.62,10.98,4.62,8.61,0,13.35-5.49,15.1-12.6h17.47c-3.12,18.59-16.09,28.07-32.56,28.07Z"/><g class="h"><path class="g" d="M372.97,66.46c0,9.02-4.01,13.54-12.03,13.54s-12.02-4.51-12.02-13.54v-21.61c0-9.02,4.01-13.54,12.02-13.54s12.03,4.51,12.03,13.54v21.61Zm107.03,83.36c0,9.02-4.01,13.54-12.03,13.54s-12.02-4.51-12.02-13.54v-21.61c0-9.02,4.01-13.54,12.02-13.54s12.03,4.51,12.03,13.54v21.61Zm-13.67-137.02h-24.05l-79.45,169.08h24.05L466.32,12.79Zm-71.2,31.11c0-10.29-3.38-18.36-10.14-24.22-6.29-5.54-14.3-8.32-24.05-8.32s-17.76,2.77-24.05,8.32c-6.76,5.86-10.13,13.93-10.13,24.22v23.51c0,10.29,3.38,18.36,10.13,24.22,6.29,5.54,14.3,8.31,24.05,8.31s17.76-2.77,24.05-8.31c6.76-5.86,10.14-13.93,10.14-24.22v-23.51Zm107.03,83.36c0-10.29-3.38-18.36-10.13-24.22-6.29-5.54-14.31-8.31-24.05-8.31s-17.76,2.77-24.05,8.31c-6.76,5.86-10.13,13.93-10.13,24.22v23.51c0,10.3,3.38,18.37,10.13,24.22,6.29,5.54,14.3,8.32,24.05,8.32s17.76-2.77,24.05-8.32c6.75-5.85,10.13-13.92,10.13-24.22v-23.51Z"/><path class="f" d="M476.25,184.75c-10.09,0-18.52-2.93-25.08-8.7-7.07-6.14-10.67-14.69-10.67-25.41v-23.45c0-10.71,3.59-19.26,10.68-25.41,6.55-5.77,14.98-8.69,25.07-8.69s18.52,2.92,25.08,8.7c7.08,6.14,10.67,14.69,10.67,25.41v23.45c0,10.72-3.6,19.27-10.68,25.41-6.54,5.77-14.98,8.7-25.07,8.7Zm0-88.38c-9.26,0-16.97,2.65-22.91,7.88-6.34,5.51-9.56,13.23-9.56,22.94v23.45c0,9.72,3.21,17.44,9.55,22.94,5.95,5.23,13.65,7.89,22.92,7.89s16.97-2.66,22.91-7.88c6.35-5.5,9.56-13.22,9.56-22.94v-23.45c0-9.72-3.21-17.43-9.55-22.94-5.95-5.23-13.65-7.88-22.92-7.88Zm-80.91,86.96h-23.99c-.56,0-1.08-.29-1.39-.76s-.34-1.07-.1-1.58L449.13,12.28c.27-.58,.85-.94,1.48-.94h23.99c.56,0,1.08,.29,1.39,.76s.34,1.07,.1,1.58l-79.27,168.7c-.27,.58-.85,.94-1.48,.94Zm-21.41-3.28h20.36L472.02,14.62h-20.36l-77.73,165.42Zm102.32-15.2c-6.22,0-13.63-2.63-13.63-15.14v-21.56c0-12.51,7.41-15.14,13.63-15.14s13.64,2.63,13.64,15.14v21.56c0,12.51-7.42,15.14-13.64,15.14Zm0-48.57c-7.06,0-10.35,3.77-10.35,11.86v21.56c0,8.09,3.29,11.86,10.35,11.86s10.36-3.77,10.36-11.86v-21.56c0-8.09-3.29-11.86-10.36-11.86Zm-106.78-14.69c-10.1,0-18.54-2.92-25.08-8.7-7.07-6.14-10.67-14.69-10.67-25.41v-23.45c0-10.72,3.6-19.27,10.68-25.41,6.53-5.77,14.97-8.7,25.07-8.7s18.52,2.93,25.07,8.7c7.07,6.14,10.67,14.69,10.67,25.41v23.45c0,10.72-3.6,19.27-10.68,25.41-6.54,5.77-14.97,8.69-25.06,8.69Zm0-88.38c-9.27,0-16.98,2.65-22.9,7.88-6.44,5.58-9.56,13.08-9.56,22.94v23.45c0,9.86,3.12,17.36,9.55,22.94,5.93,5.23,13.64,7.88,22.92,7.88s16.97-2.65,22.9-7.88c6.44-5.58,9.56-13.08,9.56-22.94v-23.45c0-9.86-3.12-17.36-9.55-22.94-5.95-5.23-13.65-7.89-22.91-7.89Zm0,68.48c-6.22,0-13.64-2.63-13.64-15.14v-21.56c0-12.51,7.42-15.14,13.64-15.14s13.64,2.63,13.64,15.14v21.56c0,12.51-7.41,15.14-13.64,15.14Zm0-48.57c-7.07,0-10.36,3.77-10.36,11.86v21.56c0,8.09,3.29,11.86,10.36,11.86s10.35-3.77,10.35-11.86v-21.56c0-8.09-3.29-11.86-10.35-11.86Z"/></g></svg>