<?xml version="1.0" encoding="UTF-8"?><svg id="a" xmlns="http://www.w3.org/2000/svg" xmlns:xlink="http://www.w3.org/1999/xlink" viewBox="0 0 512 236.31"><defs><style>.c{fill:none;}.d{fill:#fff;}.e{fill:#2b2961;}.f{fill:#61b87a;}.g{clip-path:url(#b);}</style><clipPath id="b"><rect class="c" x="0" width="512" height="239.05"/></clipPath></defs><rect class="f" x="28.24" y="2.47" width="482.83" height="230.42"/><path class="f" d="M511.07,233.82H28.24c-.51,0-.93-.42-.93-.93V2.47c0-.51,.42-.93,.93-.93H511.07c.51,0,.93,.42,.93,.93V232.89c0,.51-.42,.93-.93,.93Zm-481.9-1.86H510.14V3.4H29.17V231.96Z"/><g class="g"><path class="e" d="M509.79,236.31H2.21C.99,236.31,0,235.32,0,234.09V2.21C0,.99,.99,0,2.21,0H509.79c1.22,0,2.22,.99,2.22,2.21V234.09c0,1.23-.99,2.21-2.22,2.21ZM4.43,231.88H507.57V4.43H4.43V231.88Z"/></g><g><path class="d" d="M149.6,171.46V91.21l-20.34,17.68v-19.64l20.34-17.68h18.24v99.89h-18.24Z"/><path class="d" d="M252.72,164.16c-4.49,4.49-11.65,8.14-22.03,8.14s-17.96-3.65-22.31-8c-6.17-6.17-7.58-13.47-8.13-20.76h18.23c.98,7.85,4.63,12.35,12.21,12.35,3.51,0,6.45-.98,8.7-3.23,3.22-3.22,3.93-8.55,3.93-14.87,0-11.5-3.37-17.96-12.21-17.96-7.44,0-10.8,4.21-12.07,8.14h-16.7v-56.4h56.96v16.41h-40.4v21.47c2.66-2.52,8.28-5.06,15.01-5.06,8.28,0,14.59,2.67,18.66,6.74,7.85,7.86,8.98,17.26,8.98,26.65,0,11.22-1.54,19.08-8.84,26.37Z"/><path class="d" d="M355.71,172.3c-10.94,0-19.78-3.79-26.94-10.95-6.45-6.45-8.56-13.75-9.4-23.14h-10.24v-11.65h9.68v-10.52h-9.68v-11.65h10.24c.84-9.26,3.09-16.41,9.4-22.72,7.15-7.15,16-10.94,26.94-10.94,18.66,0,33.11,10.66,36.62,31.57h-19.78c-1.97-8-7.15-14.17-16.84-14.17-5.33,0-9.54,2.11-12.35,5.19-2.38,2.66-3.5,5.47-4.07,11.08h20.76v11.65h-21.6v10.52h21.6v11.65h-20.9c.56,6.03,1.82,8.83,4.21,11.5,2.81,3.09,7.02,5.19,12.35,5.19,9.68,0,15.01-6.17,16.98-14.17h19.64c-3.51,20.9-18.1,31.57-36.62,31.57Z"/></g></svg>