<?xml version="1.0" encoding="UTF-8"?><svg id="a" xmlns="http://www.w3.org/2000/svg" xmlns:xlink="http://www.w3.org/1999/xlink" viewBox="0 0 428.58 512"><defs><style>.d{fill:none;}.e{fill:#2b2961;}.f{fill:#61b87a;}.g{clip-path:url(#c);}.h{clip-path:url(#b);}</style><clipPath id="b"><rect class="d" x="0" width="428.58" height="512"/></clipPath><clipPath id="c"><rect class="d" x="0" width="428.58" height="512"/></clipPath></defs><g class="h"><path class="e" d="M213.15,191.22c-52.67,0-95.51-42.89-95.51-95.62S160.48,.19,213.15,.19s95.5,42.81,95.5,95.42-42.84,95.62-95.5,95.62Zm0-184.64c-49.14,0-89.12,39.94-89.12,89.03s39.98,89.23,89.12,89.23,89.12-40.02,89.12-89.23S262.29,6.58,213.15,6.58Z"/></g><polygon class="f" points="54.97 95.6 0 508.21 412.62 508.21 357.65 95.6 54.97 95.6"/><g class="g"><path class="e" d="M425.38,512.19H11.41c-.92,0-1.8-.4-2.4-1.09-.61-.7-.89-1.62-.77-2.53L63.39,94.58c.21-1.58,1.57-2.77,3.17-2.77H370.23c1.6,0,2.96,1.19,3.17,2.77l55.15,413.99c.12,.91-.16,1.83-.77,2.53-.61,.69-1.48,1.09-2.4,1.09Zm-410.32-6.39H421.73l-54.3-407.6H69.36L15.06,505.8Z"/></g></svg>