<?xml version="1.0" encoding="UTF-8"?><svg id="a" xmlns="http://www.w3.org/2000/svg" xmlns:xlink="http://www.w3.org/1999/xlink" viewBox="0 0 512 261.72"><defs><style>.d{fill:none;}.e{fill:#fff;}.f{fill:#2b2961;}.g{fill:#61b87a;}.h{clip-path:url(#c);}.i{clip-path:url(#b);}</style><clipPath id="b"><rect class="d" y="1.44" width="512" height="258.84"/></clipPath><clipPath id="c"><rect class="d" y="1.44" width="512" height="258.84"/></clipPath></defs><g class="i"><path class="e" d="M47.48,3.82C22.57,3.82,2.39,24.02,2.39,48.92V181.27c0,24.89,20.19,45.09,45.09,45.09H509.5V48.92c0-24.9-20.19-45.1-45.09-45.1H47.48Z"/><path class="f" d="M511.88,228.75H47.48C21.3,228.75,0,207.45,0,181.26V48.92C0,22.74,21.3,1.44,47.48,1.44H464.41c26.18,0,47.48,21.3,47.48,47.48V228.75ZM47.48,6.21C23.93,6.21,4.77,25.37,4.77,48.92V181.26c0,23.55,19.16,42.71,42.7,42.71H507.11V48.92c0-23.55-19.16-42.71-42.7-42.71H47.48Z"/></g><rect class="e" x="66.68" y="33.73" width="342.1" height="93.53"/><path class="f" d="M411.16,129.65H64.29V31.34H411.16v98.31Zm-342.1-4.77H406.39V36.11H69.06V124.88Z"/><rect class="g" x="79.15" y="33.4" width="329.96" height="94.19"/><path class="g" d="M409.11,128.59H79.16c-.55,0-.99-.44-.99-.99V33.4c0-.55,.44-.99,.99-.99H409.11c.55,0,.99,.44,.99,.99V127.59c0,.55-.44,.99-.99,.99Zm-328.96-1.99H408.12V34.39H80.15V126.6Z"/><path class="f" d="M411.16,129.65H64.29V31.34H411.16v98.31Zm-342.1-4.77H406.39V36.11H69.06V124.88Z"/><rect class="f" x="321" y="34" width="4.77" height="95.65"/><rect class="f" x="149.76" y="34" width="4.77" height="95.65"/><rect class="f" x="235.38" y="34" width="4.77" height="95.65"/><g class="h"><path class="e" d="M509.11,33.74h-59.54V127.27h60.03l-.1-17.23V38.06s-.02-1.73-.39-4.32"/><path class="f" d="M512,129.65h-64.82V31.36h64l.29,2.05c.39,2.77,.41,4.62,.41,4.62l.12,91.62Zm-60.05-4.77h55.25l-.09-14.83V38.06s-.02-.75-.12-1.93h-55.03V124.88Z"/><path class="g" d="M11.44,164.51v30.94s0,31.23,33.62,31.23H509.83v-62.17H11.44Z"/><path class="g" d="M509.83,227.68H45.06c-27.38,0-34.61-21.09-34.61-32.23v-30.94c0-.55,.44-.99,.99-.99H509.83c.55,0,.99,.44,.99,.99v62.18c0,.55-.44,.99-.99,.99ZM12.43,165.51v29.94c0,.08,.06,7.71,4.12,15.22,5.4,9.97,14.99,15.03,28.51,15.03H508.84v-60.19H12.43Z"/><rect class="f" x="0" y="160.99" width="511.88" height="4.77"/><path class="f" d="M511.88,228.75H47.48C21.3,228.75,0,207.45,0,181.26V48.92C0,22.74,21.3,1.44,47.48,1.44H464.41c26.18,0,47.48,21.3,47.48,47.48V228.75ZM47.48,6.21C23.93,6.21,4.77,25.37,4.77,48.92V181.26c0,23.55,19.16,42.71,42.7,42.71H507.11V48.92c0-23.55-19.16-42.71-42.7-42.71H47.48Z"/><path class="e" d="M415.73,257.9c16.05,0,29.06-13.01,29.06-29.06s-13.01-29.06-29.06-29.06-29.06,13.01-29.06,29.06,13.01,29.06,29.06,29.06"/><path class="f" d="M415.73,260.28c-17.34,0-31.45-14.11-31.45-31.45s14.11-31.44,31.45-31.44,31.45,14.11,31.45,31.44-14.11,31.45-31.45,31.45Zm0-58.12c-14.71,0-26.68,11.97-26.68,26.67s11.97,26.68,26.68,26.68,26.68-11.97,26.68-26.68-11.97-26.67-26.68-26.67Z"/><path class="e" d="M95.74,257.9c16.05,0,29.06-13.01,29.06-29.06s-13.01-29.06-29.06-29.06-29.06,13.01-29.06,29.06,13.01,29.06,29.06,29.06"/><path class="f" d="M95.74,260.28c-17.34,0-31.45-14.11-31.45-31.45s14.11-31.44,31.45-31.44,31.45,14.11,31.45,31.44-14.11,31.45-31.45,31.45Zm0-58.12c-14.71,0-26.68,11.97-26.68,26.67s11.97,26.68,26.68,26.68,26.67-11.97,26.67-26.68-11.97-26.67-26.67-26.67Z"/><path class="g" d="M445.13,228.85c0-10.71-5.78-19.98-14.32-25.11-2.39-.63-4.85-1.07-7.44-1.07-16.21,0-29.36,13.16-29.36,29.38,0,10.71,5.77,19.98,14.32,25.12,2.39,.63,4.85,1.07,7.44,1.07,16.21,0,29.36-13.16,29.36-29.38"/><path class="g" d="M415.77,259.22c-2.39,0-4.83-.35-7.69-1.1-.09-.02-.18-.06-.26-.11-9.27-5.57-14.81-15.28-14.81-25.97,0-16.75,13.62-30.38,30.35-30.38,2.39,0,4.83,.35,7.69,1.1,.09,.02,.18,.06,.26,.11,9.27,5.58,14.81,15.28,14.81,25.97,0,16.75-13.62,30.38-30.35,30.38Zm-7.05-2.99c2.63,.68,4.87,1,7.05,1,15.64,0,28.36-12.74,28.36-28.39,0-9.93-5.13-18.97-13.72-24.19-2.63-.68-4.87-1-7.04-1-15.64,0-28.36,12.74-28.36,28.39,0,9.94,5.13,18.97,13.72,24.19Z"/><path class="g" d="M125.13,228.85c0-10.71-5.78-19.98-14.32-25.11-2.39-.63-4.85-1.07-7.44-1.07-16.21,0-29.36,13.16-29.36,29.38,0,10.71,5.77,19.98,14.32,25.12,2.39,.63,4.85,1.07,7.44,1.07,16.21,0,29.36-13.16,29.36-29.38"/><path class="g" d="M95.78,259.22c-2.39,0-4.83-.35-7.69-1.1-.09-.02-.18-.06-.26-.11-9.27-5.57-14.81-15.28-14.81-25.97,0-16.75,13.62-30.38,30.35-30.38,2.39,0,4.83,.35,7.69,1.1,.09,.02,.18,.06,.26,.11,9.27,5.58,14.81,15.28,14.81,25.97,0,16.75-13.62,30.38-30.35,30.38Zm-7.05-2.99c2.63,.68,4.87,1,7.05,1,15.64,0,28.36-12.74,28.36-28.39,0-9.93-5.13-18.97-13.72-24.19-2.63-.68-4.87-1-7.05-1-15.64,0-28.36,12.74-28.36,28.39,0,9.94,5.13,18.97,13.72,24.19Z"/><path class="f" d="M415.73,260.28c-17.34,0-31.45-14.11-31.45-31.45s14.11-31.44,31.45-31.44,31.45,14.11,31.45,31.44-14.11,31.45-31.45,31.45Zm0-58.12c-14.71,0-26.68,11.97-26.68,26.67s11.97,26.68,26.68,26.68,26.68-11.97,26.68-26.68-11.97-26.67-26.68-26.67Z"/><path class="f" d="M95.74,260.28c-17.34,0-31.45-14.11-31.45-31.45s14.11-31.44,31.45-31.44,31.45,14.11,31.45,31.44-14.11,31.45-31.45,31.45Zm0-58.12c-14.71,0-26.68,11.97-26.68,26.67s11.97,26.68,26.68,26.68,26.67-11.97,26.67-26.68-11.97-26.67-26.67-26.67Z"/><path class="g" d="M509.44,33.41h-47.35V127.6h47.84l-.1-17.35V37.76s-.02-1.73-.39-4.35"/><path class="g" d="M509.93,128.6h-47.84c-.55,0-.99-.44-.99-.99V33.41c0-.55,.44-.99,.99-.99h47.35c.5,0,.91,.37,.98,.85,.38,2.65,.4,4.4,.4,4.48l.1,89.84c0,.26-.1,.52-.29,.71s-.44,.3-.7,.3Zm-46.85-1.99h45.85l-.1-16.35V37.76s-.02-1.32-.27-3.36h-45.48V126.61Z"/><path class="f" d="M512,129.65h-64.82V31.36h64l.29,2.05c.39,2.77,.41,4.62,.41,4.62l.12,91.62Zm-60.05-4.77h55.25l-.09-14.83V38.06s-.02-.75-.12-1.93h-55.03V124.88Z"/></g></svg>