<?xml version="1.0" encoding="UTF-8"?><svg id="a" xmlns="http://www.w3.org/2000/svg" xmlns:xlink="http://www.w3.org/1999/xlink" viewBox="0 0 384.52 512"><defs><style>.d{fill:none;}.e{fill:#2b2961;}.f{fill:#61b87a;}.g{clip-path:url(#c);}.h{clip-path:url(#b);}</style><clipPath id="b"><rect class="d" x="8.33" width="367.85" height="512"/></clipPath><clipPath id="c"><rect class="d" x="8.33" width="367.85" height="512"/></clipPath></defs><g class="h"><path class="f" d="M98.82,.09C54.65,.09,18.85,35.95,18.85,80.02V432.07c0,44.23,35.8,80.07,79.97,80.07h197.4c44.16,0,79.97-35.85,79.97-80.07V80.02C376.19,35.95,340.38,.09,296.22,.09H98.82Z"/><path class="e" d="M285.62,512.03H91.12c-45.65,0-82.79-37.18-82.79-82.9V82.81C8.33,37.18,45.47,.06,91.12,.06h194.5c45.65,0,82.79,37.12,82.79,82.75V429.13c0,45.71-37.14,82.9-82.79,82.9ZM91.12,5.7C48.58,5.7,13.98,40.3,13.98,82.81V429.13c0,42.6,34.61,77.26,77.15,77.26h194.5c42.54,0,77.15-34.66,77.15-77.26V82.81c0-42.52-34.61-77.11-77.15-77.11H91.12Z"/><path class="e" d="M93.72,385.23c-17.86,0-32.4-14.57-32.4-32.5s14.53-32.35,32.4-32.35,32.4,14.51,32.4,32.35-14.53,32.5-32.4,32.5Zm0-59.21c-14.75,0-26.75,11.98-26.75,26.71s12,26.86,26.75,26.86,26.75-12.05,26.75-26.86-12-26.71-26.75-26.71Z"/><path class="e" d="M93.72,477.5c-17.86,0-32.4-14.57-32.4-32.5s14.53-32.35,32.4-32.35,32.4,14.51,32.4,32.35-14.53,32.5-32.4,32.5Zm0-59.21c-14.75,0-26.75,11.98-26.75,26.71s12,26.86,26.75,26.86,26.75-12.05,26.75-26.86-12-26.71-26.75-26.71Z"/><path class="e" d="M195.71,385.23c-17.86,0-32.39-14.57-32.39-32.5s14.53-32.35,32.39-32.35,32.4,14.51,32.4,32.35-14.53,32.5-32.4,32.5Zm0-59.21c-14.75,0-26.75,11.98-26.75,26.71s12,26.86,26.75,26.86,26.75-12.05,26.75-26.86-12-26.71-26.75-26.71Z"/><path class="e" d="M195.71,477.5c-17.86,0-32.39-14.57-32.39-32.5s14.53-32.35,32.39-32.35,32.4,14.51,32.4,32.35-14.53,32.5-32.4,32.5Zm0-59.21c-14.75,0-26.75,11.98-26.75,26.71s12,26.86,26.75,26.86,26.75-12.05,26.75-26.86-12-26.71-26.75-26.71Z"/><path class="e" d="M297.71,385.23c-17.86,0-32.4-14.57-32.4-32.5s14.53-32.35,32.4-32.35,32.4,14.51,32.4,32.35-14.53,32.5-32.4,32.5Zm0-59.21c-14.75,0-26.75,11.98-26.75,26.71s12,26.86,26.75,26.86,26.75-12.05,26.75-26.86-12-26.71-26.75-26.71Z"/><path class="e" d="M297.71,477.5c-17.86,0-32.4-14.57-32.4-32.5s14.53-32.35,32.4-32.35,32.4,14.51,32.4,32.35-14.53,32.5-32.4,32.5Zm0-59.21c-14.75,0-26.75,11.98-26.75,26.71s12,26.86,26.75,26.86,26.75-12.05,26.75-26.86-12-26.71-26.75-26.71Z"/></g><rect class="e" x="47.37" y="348.07" width="87.91" height="5.64" transform="translate(-221.47 167.53) rotate(-45.03)"/><rect class="e" x="88.18" y="307.67" width="5.64" height="87.03" transform="translate(-221.59 167.06) rotate(-44.97)"/><rect class="e" x="47.37" y="441.37" width="87.91" height="5.64" transform="translate(-287.49 194.9) rotate(-45.03)"/><rect class="e" x="88.18" y="400.97" width="5.64" height="87.03" transform="translate(-287.54 194.36) rotate(-44.97)"/><rect class="e" x="150.12" y="348.07" width="87.91" height="5.64" transform="translate(-191.34 240.23) rotate(-45.03)"/><rect class="e" x="190.93" y="307.67" width="5.64" height="87.03" transform="translate(-191.53 239.69) rotate(-44.97)"/><rect class="e" x="150.12" y="441.37" width="87.91" height="5.64" transform="translate(-257.35 267.6) rotate(-45.03)"/><rect class="e" x="190.93" y="400.97" width="5.64" height="87.03" transform="translate(-257.47 266.98) rotate(-44.97)"/><rect class="e" x="253.65" y="348.07" width="87.91" height="5.64" transform="translate(-160.97 313.48) rotate(-45.03)"/><rect class="e" x="294.45" y="307.67" width="5.64" height="87.03" transform="translate(-161.24 312.86) rotate(-44.97)"/><rect class="e" x="253.65" y="441.37" width="87.91" height="5.64" transform="translate(-226.98 340.84) rotate(-45.03)"/><rect class="e" x="294.45" y="400.97" width="5.64" height="87.03" transform="translate(-227.18 340.16) rotate(-44.97)"/><g class="g"><path class="e" d="M194.47,238.59c-43.52,0-78.93-35.41-78.93-78.93s35.41-78.93,78.93-78.93,78.93,35.41,78.93,78.93-35.41,78.93-78.93,78.93Zm0-152.22c-40.41,0-73.29,32.88-73.29,73.29s32.88,73.29,73.29,73.29,73.29-32.88,73.29-73.29-32.88-73.29-73.29-73.29Z"/></g></svg>