<?xml version="1.0" encoding="UTF-8"?><svg id="a" xmlns="http://www.w3.org/2000/svg" xmlns:xlink="http://www.w3.org/1999/xlink" viewBox="0 0 512 235.79"><defs><style>.o{fill:none;}.p{fill:#fff;}.q{fill:#2b2961;}.r{fill:#61b87a;}.s{clip-path:url(#c);}.t{clip-path:url(#b);}.u{clip-path:url(#f);}.v{clip-path:url(#e);}.w{clip-path:url(#d);}.x{clip-path:url(#n);}.y{clip-path:url(#m);}.a`{clip-path:url(#l);}.aa{clip-path:url(#k);}.ab{clip-path:url(#j);}.ac{clip-path:url(#i);}.ad{clip-path:url(#h);}.ae{clip-path:url(#g);}</style><clipPath id="b"><rect class="o" y="1.14" width="512" height="233.51"/></clipPath><clipPath id="c"><rect class="o" y="1.14" width="512" height="233.51"/></clipPath><clipPath id="d"><rect class="o" y="1.14" width="512" height="233.51"/></clipPath><clipPath id="e"><rect class="o" y="1.14" width="512" height="233.51"/></clipPath><clipPath id="f"><rect class="o" y="1.14" width="512" height="233.51"/></clipPath><clipPath id="g"><rect class="o" y="1.14" width="512" height="233.51"/></clipPath><clipPath id="h"><rect class="o" y="1.14" width="512" height="233.51"/></clipPath><clipPath id="i"><rect class="o" y="1.14" width="512" height="233.51"/></clipPath><clipPath id="j"><rect class="o" y="1.14" width="512" height="233.51"/></clipPath><clipPath id="k"><rect class="o" y="1.14" width="512" height="233.51"/></clipPath><clipPath id="l"><rect class="o" y="1.14" width="512" height="233.51"/></clipPath><clipPath id="m"><rect class="o" y="1.14" width="512" height="233.51"/></clipPath><clipPath id="n"><rect class="o" y="1.14" width="512" height="233.51"/></clipPath></defs><polygon class="p" points="329.29 50.82 329.28 60.83 329.28 233.35 510.69 233.35 510.69 53.04 430.56 53.04 430.14 52.83 378.25 2.96 329.29 50.82"/><g class="t"><path class="q" d="M512,234.65h-184.02V50.27l.4-.39L378.24,1.14l52.65,50.6h81.1V234.65Zm-181.4-2.61h178.79V54.35h-78.83v-1.94l-1.31,1.37L378.26,4.78l-47.66,46.59V232.04Z"/></g><polygon class="r" points="334.73 45.13 334.73 94.17 378.19 50.71 429.46 100.86 430.88 53.64 378.19 3.9 334.73 44.02 334.73 45.13"/><rect class="r" x="437.26" y="54.05" width="73.55" height="47.92"/><g class="s"><path class="q" d="M512,234.65h-184.02V50.27l.4-.39L378.24,1.14l52.65,50.6h81.1V234.65Zm-181.4-2.61h178.79V54.35h-78.83v-1.94l-1.31,1.37L378.26,4.78l-47.66,46.59V232.04Z"/></g><path class="q" d="M409.44,191.82c-.72,0-1.31-.58-1.31-1.31v-10.64c0-.72,.59-1.31,1.31-1.31s1.31,.58,1.31,1.31v10.64c0,.72-.59,1.31-1.31,1.31Zm-17.8,0c-.72,0-1.31-.58-1.31-1.31v-10.64c0-.72,.59-1.31,1.31-1.31s1.31,.58,1.31,1.31v10.64c0,.72-.59,1.31-1.31,1.31Zm-17.81,0c-.72,0-1.31-.58-1.31-1.31v-10.64c0-.72,.59-1.31,1.31-1.31s1.31,.58,1.31,1.31v10.64c0,.72-.59,1.31-1.31,1.31Zm-17.8,0c-.72,0-1.31-.58-1.31-1.31v-10.64c0-.72,.59-1.31,1.31-1.31s1.31,.58,1.31,1.31v10.64c0,.72-.59,1.31-1.31,1.31Zm133.83-26.88c-.72,0-1.31-.58-1.31-1.31v-10.63c0-.72,.59-1.31,1.31-1.31s1.31,.58,1.31,1.31v10.63c0,.72-.59,1.31-1.31,1.31Zm-17.81,0c-.72,0-1.31-.58-1.31-1.31v-10.63c0-.72,.59-1.31,1.31-1.31s1.31,.58,1.31,1.31v10.63c0,.72-.59,1.31-1.31,1.31Zm-17.8,0c-.72,0-1.31-.58-1.31-1.31v-10.63c0-.72,.59-1.31,1.31-1.31s1.31,.58,1.31,1.31v10.63c0,.72-.59,1.31-1.31,1.31Zm-17.81,0c-.72,0-1.31-.58-1.31-1.31v-10.63c0-.72,.59-1.31,1.31-1.31s1.31,.58,1.31,1.31v10.63c0,.72-.59,1.31-1.31,1.31Zm-27.01,0c-.72,0-1.31-.58-1.31-1.31v-10.63c0-.72,.59-1.31,1.31-1.31s1.31,.58,1.31,1.31v10.63c0,.72-.59,1.31-1.31,1.31Zm-17.8,0c-.72,0-1.31-.58-1.31-1.31v-10.63c0-.72,.59-1.31,1.31-1.31s1.31,.58,1.31,1.31v10.63c0,.72-.59,1.31-1.31,1.31Zm-17.81,0c-.72,0-1.31-.58-1.31-1.31v-10.63c0-.72,.59-1.31,1.31-1.31s1.31,.58,1.31,1.31v10.63c0,.72-.59,1.31-1.31,1.31Zm-17.8,0c-.72,0-1.31-.58-1.31-1.31v-10.63c0-.72,.59-1.31,1.31-1.31s1.31,.58,1.31,1.31v10.63c0,.72-.59,1.31-1.31,1.31Zm133.83-28c-.72,0-1.31-.58-1.31-1.31v-10.63c0-.72,.59-1.31,1.31-1.31s1.31,.58,1.31,1.31v10.63c0,.72-.59,1.31-1.31,1.31Zm-17.81,0c-.72,0-1.31-.58-1.31-1.31v-10.63c0-.72,.59-1.31,1.31-1.31s1.31,.58,1.31,1.31v10.63c0,.72-.59,1.31-1.31,1.31Zm-17.8,0c-.72,0-1.31-.58-1.31-1.31v-10.63c0-.72,.59-1.31,1.31-1.31s1.31,.58,1.31,1.31v10.63c0,.72-.59,1.31-1.31,1.31Zm-17.81,0c-.72,0-1.31-.58-1.31-1.31v-10.63c0-.72,.59-1.31,1.31-1.31s1.31,.58,1.31,1.31v10.63c0,.72-.59,1.31-1.31,1.31Zm-27.01,0c-.72,0-1.31-.58-1.31-1.31v-10.63c0-.72,.59-1.31,1.31-1.31s1.31,.58,1.31,1.31v10.63c0,.72-.59,1.31-1.31,1.31Zm-17.8,0c-.72,0-1.31-.58-1.31-1.31v-10.63c0-.72,.59-1.31,1.31-1.31s1.31,.58,1.31,1.31v10.63c0,.72-.59,1.31-1.31,1.31Zm-17.81,0c-.72,0-1.31-.58-1.31-1.31v-10.63c0-.72,.59-1.31,1.31-1.31s1.31,.58,1.31,1.31v10.63c0,.72-.59,1.31-1.31,1.31Zm-17.8,0c-.72,0-1.31-.58-1.31-1.31v-10.63c0-.72,.59-1.31,1.31-1.31s1.31,.58,1.31,1.31v10.63c0,.72-.59,1.31-1.31,1.31Z"/><g class="w"><polygon class="q" points="510.82 102.75 429.67 102.75 378.84 53.39 330.81 100.02 328.99 98.15 377.81 50.75 376.95 2.81 379.57 2.76 380.43 51.29 429.21 98.66 429.31 51.75 431.92 51.76 431.82 100.13 510.82 100.13 510.82 102.75"/><path class="q" d="M464.63,232.48c-.68,0-1.23-.55-1.23-1.23v-20.2c0-.68,.55-1.23,1.23-1.23s1.23,.55,1.23,1.23v20.2c0,.68-.55,1.23-1.23,1.23Z"/></g><rect class="r" x="182.7" y="183.61" width="45.36" height="24.54"/><path class="r" d="M228.06,208.7h-45.36c-.3,0-.54-.24-.54-.54v-24.55c0-.3,.24-.54,.54-.54h45.36c.3,0,.54,.24,.54,.54v24.55c0,.3-.24,.54-.54,.54Zm-44.82-1.09h44.27v-23.46h-44.27v23.46Z"/><rect class="r" x="251.1" y="184.44" width="45.36" height="23.72"/><path class="r" d="M296.47,208.7h-45.36c-.3,0-.54-.24-.54-.54v-23.72c0-.3,.24-.54,.54-.54h45.36c.3,0,.54,.24,.54,.54v23.72c0,.3-.24,.54-.54,.54Zm-44.82-1.09h44.27v-22.63h-44.27v22.63Z"/><g class="v"><path class="r" d="M284.39,97.34c-1.31-4.49-5.3-7.75-10.03-7.75s-8.72,3.26-10.02,7.75h20.05Z"/><path class="r" d="M284.39,97.89h-20.05c-.17,0-.33-.08-.44-.22s-.14-.31-.09-.48c1.42-4.87,5.65-8.14,10.54-8.14s9.13,3.27,10.55,8.14c.05,.17,.02,.34-.09,.48s-.26,.22-.44,.22Zm-19.3-1.09h18.55c-1.47-4.02-5.11-6.66-9.28-6.66s-7.81,2.65-9.27,6.66Z"/></g><path class="q" d="M188.75,114.3c-.33,0-.66-.12-.92-.37-.51-.51-.52-1.33-.02-1.85l4.34-4.42c.51-.52,1.33-.52,1.85-.02,.51,.51,.52,1.33,.02,1.85l-4.34,4.42c-.26,.26-.59,.39-.93,.39Z"/><path class="q" d="M218.59,114.3c-.34,0-.68-.13-.93-.39l-4.34-4.42c-.51-.51-.5-1.34,.02-1.85,.51-.51,1.34-.51,1.85,.02l4.34,4.42c.51,.51,.5,1.34-.02,1.85-.25,.25-.59,.37-.92,.37Z"/><path class="q" d="M298.32,184.79h-49.44v-1.74h49.44v1.74Zm-70.15-.06h-49.44v-1.74h49.44v1.74Z"/><g class="u"><path class="q" d="M272.92,114.83c-7.42,0-13.46-6.1-13.46-13.59s6.04-13.6,13.46-13.6,13.46,6.1,13.46,13.6-6.04,13.59-13.46,13.59Zm0-24.58c-5.98,0-10.85,4.93-10.85,10.99s4.86,10.98,10.85,10.98,10.84-4.93,10.84-10.98-4.86-10.99-10.84-10.99Z"/></g><rect class="q" x="260.52" y="96.52" width="24.82" height="1.74"/><g class="ae"><path class="q" d="M271.63,100.05c0,.36-.29,.65-.65,.65s-.64-.29-.64-.65,.29-.65,.64-.65,.65,.29,.65,.65"/><path class="q" d="M280.41,100.05c0,.36-.29,.65-.65,.65s-.64-.29-.64-.65,.29-.65,.64-.65,.65,.29,.65,.65"/><path class="q" d="M285.65,234.65c-.72,0-1.31-.58-1.31-1.31v-24.64c0-.72,.59-1.31,1.31-1.31s1.31,.58,1.31,1.31v24.64c0,.72-.59,1.31-1.31,1.31Zm-25.68,0c-.72,0-1.31-.58-1.31-1.31v-24.64c0-.72,.59-1.31,1.31-1.31s1.31,.58,1.31,1.31v24.64c0,.72-.59,1.31-1.31,1.31Zm25.06-64.95c-.72,0-1.31-.58-1.31-1.31v-24.64c0-.72,.59-1.31,1.31-1.31s1.31,.58,1.31,1.31v24.64c0,.72-.59,1.31-1.31,1.31Zm-24.27,0c-.72,0-1.31-.58-1.31-1.31v-24.64c0-.72,.59-1.31,1.31-1.31s1.31,.58,1.31,1.31v24.64c0,.72-.59,1.31-1.31,1.31Z"/><path class="q" d="M297.31,209.07h-49c-.72,0-1.31-.58-1.31-1.31v-59.61c0-14.86,11.82-27.41,25.81-27.41s25.97,12.55,25.97,27.41h0l-.17,59.61c0,.72-.59,1.3-1.31,1.3Zm-47.69-2.61h46.39l.16-58.31c0-13.44-10.7-24.8-23.36-24.8s-23.19,11.36-23.19,24.8v58.3Z"/><path class="r" d="M215.17,97.34c-1.31-4.49-5.3-7.75-10.03-7.75s-8.72,3.26-10.02,7.75h20.05Z"/><path class="r" d="M215.17,97.89h-20.05c-.17,0-.33-.08-.44-.22s-.14-.31-.09-.48c1.42-4.87,5.65-8.14,10.54-8.14s9.13,3.27,10.55,8.14c.05,.17,.02,.34-.09,.48s-.26,.22-.44,.22Zm-19.3-1.09h18.55c-1.47-4.02-5.11-6.66-9.28-6.66s-7.81,2.65-9.27,6.66Z"/><path class="q" d="M203.7,114.83c-7.42,0-13.46-6.1-13.46-13.59s6.04-13.6,13.46-13.6,13.46,6.1,13.46,13.6-6.04,13.59-13.46,13.59Zm0-24.58c-5.98,0-10.84,4.93-10.84,10.99s4.86,10.98,10.84,10.98,10.85-4.93,10.85-10.98-4.86-10.99-10.85-10.99Z"/></g><rect class="q" x="191.29" y="96.52" width="24.82" height="1.74"/><g class="ad"><path class="q" d="M202.41,100.05c0,.36-.29,.65-.65,.65s-.64-.29-.64-.65,.29-.65,.64-.65,.65,.29,.65,.65"/><path class="q" d="M211.19,100.05c0,.36-.29,.65-.65,.65s-.64-.29-.64-.65,.29-.65,.64-.65,.65,.29,.65,.65"/><path class="q" d="M216.43,234.65c-.72,0-1.31-.58-1.31-1.31v-24.64c0-.72,.59-1.31,1.31-1.31s1.31,.58,1.31,1.31v24.64c0,.72-.59,1.31-1.31,1.31Zm-25.68,0c-.72,0-1.31-.58-1.31-1.31v-24.64c0-.72,.59-1.31,1.31-1.31s1.31,.58,1.31,1.31v24.64c0,.72-.59,1.31-1.31,1.31Zm25.06-64.95c-.72,0-1.31-.58-1.31-1.31v-24.64c0-.72,.59-1.31,1.31-1.31s1.31,.58,1.31,1.31v24.64c0,.72-.59,1.31-1.31,1.31Zm-24.27,0c-.72,0-1.31-.58-1.31-1.31v-24.64c0-.72,.59-1.31,1.31-1.31s1.31,.58,1.31,1.31v24.64c0,.72-.59,1.31-1.31,1.31Z"/><path class="q" d="M228.09,209.07h-49c-.72,0-1.31-.58-1.31-1.31v-59.61c0-14.86,11.82-27.41,25.81-27.41s25.97,12.55,25.97,27.41h0l-.17,59.61c0,.72-.59,1.3-1.31,1.3Zm-47.69-2.61h46.39l.16-58.31c0-13.44-10.7-24.8-23.36-24.8s-23.19,11.36-23.19,24.8v58.3Z"/></g><rect class="r" x="6.49" y="143.63" width="62.21" height="64.52"/><path class="r" d="M68.7,208.7H6.49c-.3,0-.54-.24-.54-.54v-64.52c0-.3,.24-.54,.54-.54h62.21c.3,0,.54,.24,.54,.54v64.52c0,.3-.24,.54-.54,.54Zm-61.67-1.09h61.12v-63.43H7.04v63.43Z"/><g class="ac"><path class="r" d="M124.48,48.33c7.07,0,13.64,1.34,19.09,5.13V28.84l-1.99,2.79c-3.12,6.52-9.6,11.01-17.1,11.01s-12.81-3.16-15.93-9.67l-1.32-1.34v21.56c5.07-3.06,10.95-4.85,17.25-4.85"/><path class="r" d="M143.57,54.01c-.11,0-.22-.03-.31-.1-4.87-3.39-11.02-5.03-18.78-5.03-5.93,0-11.8,1.65-16.97,4.77-.17,.1-.38,.11-.55,0-.17-.09-.28-.28-.28-.47V31.62c0-.22,.13-.42,.34-.5,.2-.09,.44-.04,.59,.12l1.32,1.34s.08,.09,.1,.15c3.02,6.3,8.07,9.37,15.44,9.37s13.45-4.1,16.61-10.7l2.03-2.87c.14-.2,.38-.27,.61-.2,.23,.07,.38,.28,.38,.52v24.62c0,.2-.11,.39-.29,.48-.08,.04-.17,.06-.25,.06Zm-19.09-6.22c7.55,0,13.63,1.53,18.55,4.66V30.54l-1,1.4c-3.29,6.9-10.04,11.24-17.55,11.24s-13.21-3.33-16.38-9.9l-.32-.33v19.28c5.13-2.91,10.89-4.44,16.7-4.44Z"/><path class="q" d="M142.9,55.87c-.26,0-.52-.08-.74-.23-5.6-3.82-12.88-6.19-19-6.19s-12.1,1.82-17.58,5.56c-.4,.27-.92,.29-1.35,.08-.43-.23-.7-.67-.7-1.16V23.65h2.61v27.9c5.29-3.13,11-4.71,17.01-4.71s12.72,1.97,18.43,5.35V23.28h2.61v31.29c0,.48-.27,.93-.7,1.16-.19,.1-.4,.15-.61,.15Z"/></g><rect class="r" x="93.77" y="174.22" width="64.65" height="33.93"/><path class="r" d="M158.43,208.7H93.77c-.3,0-.54-.24-.54-.54v-33.93c0-.3,.24-.54,.54-.54h64.65c.3,0,.54,.24,.54,.54v33.93c0,.3-.24,.54-.54,.54Zm-64.11-1.09h63.56v-32.85h-63.56v32.85Z"/><rect class="q" x="90.17" y="173.18" width="68.19" height="1.74"/><g class="ab"><path class="q" d="M143.42,234.65c-.72,0-1.31-.58-1.31-1.31v-24.27c0-.72,.59-1.31,1.31-1.31s1.31,.58,1.31,1.31v24.27c0,.72-.59,1.31-1.31,1.31Zm-39.09,0c-.72,0-1.31-.58-1.31-1.31v-24.27c0-.72,.59-1.31,1.31-1.31s1.31,.58,1.31,1.31v24.27c0,.72-.59,1.31-1.31,1.31Z"/></g><path class="q" d="M143.38,117.73c-.84,0-1.51-.68-1.51-1.51v-32.71c0-.84,.68-1.51,1.51-1.51s1.51,.68,1.51,1.51v32.71c0,.84-.68,1.51-1.51,1.51Zm-39.01,0c-.84,0-1.51-.68-1.51-1.51v-32.71c0-.84,.68-1.51,1.51-1.51s1.51,.68,1.51,1.51v32.71c0,.84-.68,1.51-1.51,1.51Z"/><g class="aa"><path class="q" d="M157.65,208.98H89.87c-.72,0-1.31-.58-1.31-1.31V84.47c0-20.15,16.12-37.29,35.19-37.42h.21c8.64,0,17.03,3.58,23.63,10.11,7.31,7.22,11.54,17.18,11.59,27.3h0l-.23,123.21c0,.72-.59,1.3-1.31,1.3Zm-66.48-2.61h65.17l.23-121.89c-.05-9.44-3.99-18.72-10.81-25.45-6.11-6.04-13.85-9.35-21.79-9.35h-.2c-17.67,.12-32.6,16.07-32.6,34.81v121.89Z"/><path class="r" d="M143.05,17.83c-2.22-7.3-9-12.62-17.03-12.62s-14.81,5.32-17.03,12.62h34.06Z"/><path class="r" d="M143.05,18.37h-34.06c-.17,0-.33-.08-.44-.22-.1-.14-.13-.31-.08-.48,2.37-7.78,9.42-13.01,17.55-13.01s15.18,5.23,17.55,13.01c.05,.17,.02,.34-.08,.48-.1,.14-.27,.22-.44,.22Zm-33.3-1.09h32.55c-2.43-6.93-8.88-11.54-16.27-11.54s-13.85,4.61-16.28,11.54Z"/><path class="q" d="M123.88,43.29c-11.21,0-20.34-9.22-20.34-20.55S112.66,2.2,123.88,2.2s20.33,9.22,20.33,20.54-9.12,20.55-20.33,20.55Zm0-38.48c-9.77,0-17.72,8.04-17.72,17.93s7.95,17.94,17.72,17.94,17.72-8.05,17.72-17.94-7.95-17.93-17.72-17.93Z"/></g><rect class="q" x="105.59" y="17.32" width="36.58" height="1.74"/><g class="a`"><path class="q" d="M120.38,24.18c0,.57-.46,1.04-1.03,1.04s-1.03-.46-1.03-1.04,.46-1.04,1.03-1.04,1.03,.46,1.03,1.04"/><path class="q" d="M134.32,24.18c0,.57-.46,1.04-1.03,1.04s-1.03-.46-1.03-1.04,.46-1.04,1.03-1.04,1.03,.46,1.03,1.04"/><rect class="q" x="1.61" y="142.34" width="68.19" height="1.74"/><path class="q" d="M54.86,234.65c-.72,0-1.31-.58-1.31-1.31v-24.27c0-.72,.59-1.31,1.31-1.31s1.31,.58,1.31,1.31v24.27c0,.72-.59,1.31-1.31,1.31Zm-39.1,0c-.72,0-1.31-.58-1.31-1.31v-24.27c0-.72,.59-1.31,1.31-1.31s1.31,.58,1.31,1.31v24.27c0,.72-.59,1.31-1.31,1.31Z"/></g><path class="q" d="M54.82,117.73c-.84,0-1.51-.68-1.51-1.51v-32.71c0-.84,.68-1.51,1.51-1.51s1.51,.68,1.51,1.51v32.71c0,.84-.68,1.51-1.51,1.51Zm-39.01,0c-.84,0-1.51-.68-1.51-1.51v-32.71c0-.84,.68-1.51,1.51-1.51s1.51,.68,1.51,1.51v32.71c0,.84-.68,1.51-1.51,1.51Z"/><g class="y"><path class="q" d="M69.09,208.98H1.3c-.72,0-1.31-.58-1.31-1.31V84.47C0,64.32,16.11,47.19,35.19,47.06h.21c8.64,0,17.03,3.58,23.63,10.11,7.31,7.22,11.54,17.18,11.59,27.3h0l-.23,123.21c0,.72-.59,1.3-1.31,1.3Zm-66.48-2.61H67.79l.23-121.89c-.05-9.44-4-18.72-10.81-25.45-6.11-6.04-13.85-9.35-21.79-9.35h-.2c-17.67,.12-32.6,16.07-32.6,34.81v121.89Z"/><path class="r" d="M54.49,17.83c-2.22-7.3-9-12.62-17.03-12.62s-14.81,5.32-17.03,12.62H54.49Z"/><path class="r" d="M54.49,18.37H20.44c-.17,0-.33-.08-.44-.22-.1-.14-.13-.31-.08-.48,2.37-7.78,9.42-13.01,17.55-13.01s15.18,5.23,17.55,13.01c.05,.17,.02,.34-.08,.48-.1,.14-.27,.22-.44,.22Zm-33.3-1.09H53.74c-2.43-6.93-8.88-11.54-16.27-11.54s-13.85,4.61-16.28,11.54Z"/><path class="q" d="M35.32,43.29c-11.21,0-20.34-9.22-20.34-20.55S24.1,2.2,35.32,2.2s20.33,9.22,20.33,20.54-9.12,20.55-20.33,20.55Zm0-38.48c-9.77,0-17.72,8.04-17.72,17.93s7.95,17.94,17.72,17.94,17.72-8.05,17.72-17.94S45.09,4.81,35.32,4.81Z"/></g><rect class="q" x="17.02" y="17.32" width="36.58" height="1.74"/><g class="x"><path class="q" d="M31.82,24.18c0,.57-.46,1.04-1.03,1.04s-1.03-.46-1.03-1.04,.46-1.04,1.03-1.04,1.03,.46,1.03,1.04"/><path class="q" d="M45.76,24.18c0,.57-.46,1.04-1.03,1.04s-1.03-.46-1.03-1.04,.46-1.04,1.03-1.04,1.03,.46,1.03,1.04"/></g><path class="q" d="M35.25,208.96c-.48,0-.87-.39-.87-.87v-54.46c0-.48,.39-.87,.87-.87s.87,.39,.87,.87v54.46c0,.48-.39,.87-.87,.87Zm236.97-.24c-.48,0-.87-.39-.87-.87v-18.65c0-.48,.39-.87,.87-.87s.87,.39,.87,.87v18.65c0,.48-.39,.87-.87,.87Z"/></svg>