<?xml version="1.0" encoding="UTF-8"?><svg id="a" xmlns="http://www.w3.org/2000/svg" xmlns:xlink="http://www.w3.org/1999/xlink" viewBox="0 0 512 436.22"><defs><style>.c{fill:none;}.d{fill:#fff;}.e{fill:#2b2961;}.f{fill:#61b87a;}.g{clip-path:url(#b);}</style><clipPath id="b"><rect class="c" width="512" height="436.22"/></clipPath></defs><g class="g"><path class="d" d="M304.93,241.49c46.97,0,85.05-38.07,85.05-85.05s-38.07-85.04-85.05-85.04-85.05,38.07-85.05,85.04,38.07,85.05,85.05,85.05"/><path class="e" d="M304.93,244.79c-48.72,0-88.35-39.63-88.35-88.35s39.63-88.35,88.35-88.35,88.35,39.63,88.35,88.35-39.63,88.35-88.35,88.35Zm0-170.09c-45.07,0-81.74,36.67-81.74,81.74s36.67,81.74,81.74,81.74,81.75-36.67,81.75-81.74-36.67-81.74-81.75-81.74Z"/><path class="d" d="M304.93,216.38c33.11,0,59.94-26.84,59.94-59.94s-26.83-59.94-59.94-59.94-59.94,26.84-59.94,59.94,26.83,59.94,59.94,59.94"/><path class="e" d="M304.93,219.69c-34.87,0-63.24-28.37-63.24-63.24s28.37-63.24,63.24-63.24,63.24,28.37,63.24,63.24-28.37,63.24-63.24,63.24Zm0-119.88c-31.23,0-56.63,25.4-56.63,56.64s25.4,56.64,56.63,56.64,56.64-25.4,56.64-56.64-25.41-56.64-56.64-56.64Z"/><path class="f" d="M371.68,153.76c0,33.44-27.1,60.55-60.55,60.55s-60.55-27.12-60.55-60.55,27.12-60.55,60.55-60.55,60.55,27.12,60.55,60.55m25.11,0c0-47.3-38.35-85.65-85.66-85.65s-85.65,38.35-85.65,85.65,38.35,85.65,85.65,85.65,85.66-38.34,85.66-85.65"/><path class="e" d="M304.93,244.79c-48.72,0-88.35-39.63-88.35-88.35s39.63-88.35,88.35-88.35,88.35,39.63,88.35,88.35-39.63,88.35-88.35,88.35Zm0-170.09c-45.07,0-81.74,36.67-81.74,81.74s36.67,81.74,81.74,81.74,81.75-36.67,81.75-81.74-36.67-81.74-81.75-81.74Z"/><path class="e" d="M304.93,219.69c-34.87,0-63.24-28.37-63.24-63.24s28.37-63.24,63.24-63.24,63.24,28.37,63.24,63.24-28.37,63.24-63.24,63.24Zm0-119.88c-31.23,0-56.63,25.4-56.63,56.64s25.4,56.64,56.63,56.64,56.64-25.4,56.64-56.64-25.41-56.64-56.64-56.64Z"/><path class="f" d="M305.34,183.75c7.4,0,13.23-4.17,14.65-7.95,.31-.7,.39-1.41,.39-2.11,0-2.52-2.04-4.49-4.64-4.49-1.57,0-3.07,.79-4.49,2.52-1.42,1.81-3.3,2.68-5.83,2.68-2.98,0-5.12-1.33-6.13-4.49-.4-1.18-.64-2.45-.64-5.2,0-.32,.17-.47,.47-.47h8.5c2.2,0,3.47-1.33,3.47-3.23s-1.27-3.22-3.47-3.22h-8.5c-.31,0-.47-.17-.47-.47v-2.69c0-.32,.17-.47,.47-.47h11.65c2.2,0,3.47-1.33,3.47-3.23s-1.27-3.22-3.47-3.22h-11.65c-.31,0-.47-.17-.47-.47,0-2.37,.24-3.71,.64-4.89,1.01-3.15,3.15-4.49,6.13-4.49,2.52,0,4.41,.87,5.83,2.69,1.42,1.73,2.92,2.51,4.49,2.51,2.6,0,4.64-1.97,4.64-4.48,0-.7-.08-1.42-.39-2.13-1.42-3.78-7.25-7.95-14.65-7.95-8.5,0-14.48,3.94-16.84,11.33-.63,2.13-1.02,4.49-1.02,7.41,0,.31-.15,.47-.47,.47h-1.26c-2.28,0-3.55,1.33-3.55,3.22s1.27,3.23,3.55,3.23h1.26c.32,0,.47,.15,.47,.47v2.69c0,.31-.15,.47-.47,.47h-1.26c-2.28,0-3.55,1.33-3.55,3.22s1.27,3.23,3.55,3.23h1.26c.32,0,.47,.15,.47,.47,0,3.32,.4,5.59,1.02,7.72,2.36,7.4,8.34,11.33,16.84,11.33"/><path class="d" d="M182.89,218.58c46.97,0,85.05-38.07,85.05-85.04s-38.07-85.04-85.05-85.04-85.05,38.07-85.05,85.04,38.07,85.04,85.05,85.04"/><path class="e" d="M182.89,221.88c-48.72,0-88.35-39.62-88.35-88.33s39.63-88.33,88.35-88.33,88.35,39.62,88.35,88.33-39.63,88.33-88.35,88.33Zm0-170.07c-45.08,0-81.75,36.67-81.75,81.73s36.67,81.73,81.75,81.73,81.75-36.67,81.75-81.73-36.67-81.73-81.75-81.73Z"/><path class="d" d="M182.89,193.48c33.11,0,59.94-26.84,59.94-59.94s-26.83-59.94-59.94-59.94-59.94,26.83-59.94,59.94,26.83,59.94,59.94,59.94"/><path class="e" d="M182.89,196.79c-34.87,0-63.24-28.37-63.24-63.24s28.37-63.24,63.24-63.24,63.24,28.37,63.24,63.24-28.37,63.24-63.24,63.24Zm0-119.88c-31.23,0-56.63,25.4-56.63,56.64s25.4,56.64,56.63,56.64,56.63-25.4,56.63-56.64-25.4-56.64-56.63-56.64Z"/><path class="f" d="M249.64,130.86c0,33.44-27.1,60.55-60.55,60.55s-60.55-27.12-60.55-60.55,27.12-60.55,60.55-60.55,60.55,27.1,60.55,60.55m25.11,0c0-47.31-38.35-85.65-85.66-85.65s-85.65,38.34-85.65,85.65,38.35,85.65,85.65,85.65,85.66-38.35,85.66-85.65"/><path class="e" d="M182.89,221.88c-48.72,0-88.35-39.62-88.35-88.33s39.63-88.33,88.35-88.33,88.35,39.62,88.35,88.33-39.63,88.33-88.35,88.33Zm0-170.07c-45.08,0-81.75,36.67-81.75,81.73s36.67,81.73,81.75,81.73,81.75-36.67,81.75-81.73-36.67-81.73-81.75-81.73Z"/><path class="e" d="M182.89,196.79c-34.87,0-63.24-28.37-63.24-63.24s28.37-63.24,63.24-63.24,63.24,28.37,63.24,63.24-28.37,63.24-63.24,63.24Zm0-119.88c-31.23,0-56.63,25.4-56.63,56.64s25.4,56.64,56.63,56.64,56.63-25.4,56.63-56.64-25.4-56.64-56.63-56.64Z"/><path class="f" d="M185.53,160.95c7.4,0,13.23-4.17,14.65-7.95,.31-.7,.39-1.41,.39-2.11,0-2.52-2.04-4.49-4.64-4.49-1.57,0-3.07,.79-4.49,2.52-1.42,1.81-3.3,2.68-5.83,2.68-2.98,0-5.12-1.33-6.13-4.49-.4-1.18-.64-2.45-.64-5.2,0-.32,.17-.47,.47-.47h8.5c2.2,0,3.47-1.33,3.47-3.23s-1.27-3.22-3.47-3.22h-8.5c-.31,0-.47-.17-.47-.47v-2.69c0-.32,.17-.47,.47-.47h11.65c2.2,0,3.47-1.33,3.47-3.23s-1.27-3.22-3.47-3.22h-11.65c-.31,0-.47-.17-.47-.47,0-2.37,.24-3.71,.64-4.89,1.01-3.15,3.15-4.49,6.13-4.49,2.52,0,4.41,.87,5.83,2.69,1.42,1.73,2.92,2.51,4.49,2.51,2.6,0,4.64-1.97,4.64-4.48,0-.7-.08-1.42-.39-2.13-1.42-3.78-7.25-7.95-14.65-7.95-8.5,0-14.48,3.94-16.84,11.33-.63,2.13-1.02,4.49-1.02,7.41,0,.31-.15,.47-.47,.47h-1.26c-2.28,0-3.55,1.33-3.55,3.22s1.27,3.23,3.55,3.23h1.26c.32,0,.47,.15,.47,.47v2.69c0,.31-.15,.47-.47,.47h-1.26c-2.28,0-3.55,1.33-3.55,3.22s1.27,3.23,3.55,3.23h1.26c.32,0,.47,.15,.47,.47,0,3.32,.4,5.59,1.02,7.72,2.36,7.4,8.34,11.33,16.84,11.33"/><path class="d" d="M420.14,357.86c46.97,0,85.05-38.07,85.05-85.05s-38.07-85.04-85.05-85.04-85.05,38.07-85.05,85.04,38.07,85.05,85.05,85.05"/><path class="e" d="M420.14,361.16c-48.72,0-88.35-39.63-88.35-88.35s39.63-88.35,88.35-88.35,88.35,39.63,88.35,88.35-39.63,88.35-88.35,88.35Zm0-170.09c-45.08,0-81.75,36.67-81.75,81.74s36.67,81.74,81.75,81.74,81.74-36.67,81.74-81.74-36.67-81.74-81.74-81.74Z"/><path class="d" d="M88.35,352.48c46.97,0,85.05-38.07,85.05-85.05s-38.07-85.04-85.05-85.04S3.3,220.48,3.3,267.44s38.07,85.05,85.05,85.05"/><path class="e" d="M88.35,355.78C39.63,355.78,0,316.15,0,267.44s39.63-88.33,88.35-88.33,88.35,39.62,88.35,88.33-39.63,88.35-88.35,88.35Zm0-170.08c-45.08,0-81.75,36.67-81.75,81.73s36.67,81.74,81.75,81.74,81.75-36.67,81.75-81.74-36.67-81.73-81.75-81.73Z"/><path class="d" d="M420.14,332.76c33.11,0,59.94-26.84,59.94-59.94s-26.83-59.94-59.94-59.94-59.94,26.83-59.94,59.94,26.83,59.94,59.94,59.94"/><path class="e" d="M420.14,336.06c-34.87,0-63.24-28.37-63.24-63.24s28.37-63.23,63.24-63.23,63.24,28.36,63.24,63.23-28.37,63.24-63.24,63.24Zm0-119.87c-31.23,0-56.63,25.4-56.63,56.63s25.4,56.64,56.63,56.64,56.63-25.4,56.63-56.64-25.4-56.63-56.63-56.63Z"/><path class="d" d="M88.35,327.38c33.11,0,59.94-26.84,59.94-59.94s-26.83-59.94-59.94-59.94-59.94,26.84-59.94,59.94,26.83,59.94,59.94,59.94"/><path class="e" d="M88.35,330.68c-34.87,0-63.24-28.36-63.24-63.23s28.37-63.24,63.24-63.24,63.24,28.37,63.24,63.24-28.37,63.23-63.24,63.23Zm0-119.87c-31.23,0-56.63,25.4-56.63,56.64s25.4,56.63,56.63,56.63,56.63-25.4,56.63-56.63-25.4-56.64-56.63-56.64Z"/><path class="f" d="M486.89,270.12c0,33.45-27.1,60.55-60.55,60.55s-60.55-27.1-60.55-60.55,27.12-60.55,60.55-60.55,60.55,27.12,60.55,60.55m25.11,0c0-47.3-38.35-85.65-85.66-85.65s-85.65,38.35-85.65,85.65,38.35,85.66,85.65,85.66,85.66-38.35,85.66-85.66"/><path class="f" d="M155.1,264.75c0,33.44-27.1,60.55-60.55,60.55s-60.55-27.12-60.55-60.55,27.12-60.55,60.55-60.55,60.55,27.12,60.55,60.55m25.11,0c0-47.31-38.35-85.65-85.66-85.65S8.89,217.44,8.89,264.75s38.35,85.65,85.65,85.65,85.66-38.34,85.66-85.65"/><path class="e" d="M420.14,361.16c-48.72,0-88.35-39.63-88.35-88.35s39.63-88.35,88.35-88.35,88.35,39.63,88.35,88.35-39.63,88.35-88.35,88.35Zm0-170.09c-45.08,0-81.75,36.67-81.75,81.74s36.67,81.74,81.75,81.74,81.74-36.67,81.74-81.74-36.67-81.74-81.74-81.74Z"/><path class="e" d="M88.35,355.78C39.63,355.78,0,316.15,0,267.44s39.63-88.33,88.35-88.33,88.35,39.62,88.35,88.33-39.63,88.35-88.35,88.35Zm0-170.08c-45.08,0-81.75,36.67-81.75,81.73s36.67,81.74,81.75,81.74,81.75-36.67,81.75-81.74-36.67-81.73-81.75-81.73Z"/><path class="e" d="M420.14,336.06c-34.87,0-63.24-28.37-63.24-63.24s28.37-63.23,63.24-63.23,63.24,28.36,63.24,63.23-28.37,63.24-63.24,63.24Zm0-119.87c-31.23,0-56.63,25.4-56.63,56.63s25.4,56.64,56.63,56.64,56.63-25.4,56.63-56.64-25.4-56.63-56.63-56.63Z"/><path class="e" d="M88.35,330.68c-34.87,0-63.24-28.36-63.24-63.23s28.37-63.24,63.24-63.24,63.24,28.37,63.24,63.24-28.37,63.23-63.24,63.23Zm0-119.87c-31.23,0-56.63,25.4-56.63,56.64s25.4,56.63,56.63,56.63,56.63-25.4,56.63-56.63-25.4-56.64-56.63-56.64Z"/><path class="f" d="M422.61,299.33c7.4,0,13.23-4.17,14.65-7.95,.31-.7,.39-1.41,.39-2.11,0-2.52-2.04-4.49-4.64-4.49-1.57,0-3.07,.79-4.49,2.52-1.42,1.81-3.3,2.68-5.83,2.68-3,0-5.12-1.33-6.13-4.49-.4-1.18-.64-2.45-.64-5.2,0-.32,.17-.47,.47-.47h8.5c2.2,0,3.47-1.33,3.47-3.23s-1.27-3.22-3.47-3.22h-8.5c-.31,0-.47-.17-.47-.47v-2.69c0-.32,.17-.47,.47-.47h11.65c2.2,0,3.47-1.33,3.47-3.23s-1.27-3.22-3.47-3.22h-11.65c-.31,0-.47-.17-.47-.47,0-2.37,.24-3.71,.64-4.89,1.01-3.15,3.14-4.49,6.13-4.49,2.52,0,4.41,.87,5.83,2.69,1.42,1.73,2.92,2.51,4.49,2.51,2.6,0,4.64-1.97,4.64-4.48,0-.7-.08-1.42-.39-2.13-1.42-3.78-7.25-7.95-14.65-7.95-8.5,0-14.48,3.94-16.84,11.33-.63,2.13-1.02,4.49-1.02,7.41,0,.31-.15,.47-.47,.47h-1.26c-2.28,0-3.55,1.33-3.55,3.22s1.27,3.23,3.55,3.23h1.26c.32,0,.47,.15,.47,.47v2.69c0,.31-.15,.47-.47,.47h-1.26c-2.28,0-3.55,1.33-3.55,3.22s1.27,3.23,3.55,3.23h1.26c.32,0,.47,.15,.47,.47,0,3.32,.4,5.59,1.02,7.72,2.36,7.4,8.34,11.33,16.84,11.33"/><path class="f" d="M90.98,294.85c7.4,0,13.23-4.17,14.65-7.95,.31-.7,.39-1.41,.39-2.11,0-2.52-2.04-4.49-4.64-4.49-1.57,0-3.07,.79-4.49,2.52-1.42,1.81-3.3,2.68-5.83,2.68-3,0-5.12-1.33-6.13-4.49-.4-1.18-.64-2.45-.64-5.2,0-.32,.17-.47,.47-.47h8.5c2.2,0,3.47-1.33,3.47-3.23s-1.27-3.22-3.47-3.22h-8.5c-.31,0-.47-.17-.47-.47v-2.69c0-.32,.17-.47,.47-.47h11.65c2.2,0,3.47-1.33,3.47-3.23s-1.27-3.22-3.47-3.22h-11.65c-.31,0-.47-.17-.47-.47,0-2.37,.24-3.71,.64-4.89,1.01-3.15,3.14-4.49,6.13-4.49,2.52,0,4.41,.87,5.83,2.69,1.42,1.73,2.92,2.51,4.49,2.51,2.6,0,4.64-1.97,4.64-4.48,0-.7-.08-1.42-.39-2.13-1.42-3.78-7.25-7.95-14.65-7.95-8.5,0-14.48,3.94-16.84,11.33-.63,2.13-1.02,4.49-1.02,7.41,0,.31-.15,.47-.47,.47h-1.26c-2.28,0-3.55,1.33-3.55,3.22s1.27,3.23,3.55,3.23h1.26c.32,0,.47,.15,.47,.47v2.69c0,.31-.15,.47-.47,.47h-1.26c-2.28,0-3.55,1.33-3.55,3.22s1.27,3.23,3.55,3.23h1.26c.32,0,.47,.15,.47,.47,0,3.32,.4,5.59,1.02,7.72,2.36,7.4,8.34,11.33,16.84,11.33"/><path class="d" d="M243.45,357.98c46.97,0,85.05-38.07,85.05-85.05s-38.07-85.04-85.05-85.04-85.05,38.07-85.05,85.04,38.07,85.05,85.05,85.05"/><path class="e" d="M243.45,361.28c-48.72,0-88.35-39.63-88.35-88.35s39.63-88.33,88.35-88.33,88.35,39.62,88.35,88.33-39.63,88.35-88.35,88.35Zm0-170.08c-45.08,0-81.75,36.67-81.75,81.73s36.67,81.74,81.75,81.74,81.75-36.67,81.75-81.74-36.67-81.73-81.75-81.73Z"/><path class="d" d="M243.45,332.87c33.11,0,59.94-26.84,59.94-59.94s-26.83-59.94-59.94-59.94-59.94,26.83-59.94,59.94,26.83,59.94,59.94,59.94"/><path class="e" d="M243.45,336.18c-34.87,0-63.24-28.37-63.24-63.24s28.37-63.24,63.24-63.24,63.24,28.37,63.24,63.24-28.37,63.24-63.24,63.24Zm0-119.88c-31.23,0-56.63,25.4-56.63,56.64s25.4,56.64,56.63,56.64,56.63-25.4,56.63-56.64-25.4-56.64-56.63-56.64Z"/><path class="f" d="M310.2,270.24c0,33.44-27.1,60.55-60.55,60.55s-60.55-27.12-60.55-60.55,27.12-60.55,60.55-60.55,60.55,27.12,60.55,60.55m25.11,0c0-47.31-38.35-85.65-85.66-85.65s-85.65,38.34-85.65,85.65,38.35,85.65,85.65,85.65,85.66-38.34,85.66-85.65"/><path class="e" d="M243.45,361.28c-48.72,0-88.35-39.63-88.35-88.35s39.63-88.33,88.35-88.33,88.35,39.62,88.35,88.33-39.63,88.35-88.35,88.35Zm0-170.08c-45.08,0-81.75,36.67-81.75,81.73s36.67,81.74,81.75,81.74,81.75-36.67,81.75-81.74-36.67-81.73-81.75-81.73Z"/><path class="e" d="M243.45,336.18c-34.87,0-63.24-28.37-63.24-63.24s28.37-63.24,63.24-63.24,63.24,28.37,63.24,63.24-28.37,63.24-63.24,63.24Zm0-119.88c-31.23,0-56.63,25.4-56.63,56.64s25.4,56.64,56.63,56.64,56.63-25.4,56.63-56.64-25.4-56.64-56.63-56.64Z"/><path class="f" d="M246.08,300.34c7.4,0,13.23-4.17,14.65-7.95,.31-.7,.39-1.41,.39-2.11,0-2.52-2.04-4.49-4.64-4.49-1.57,0-3.07,.79-4.49,2.52-1.42,1.81-3.3,2.68-5.83,2.68-3,0-5.12-1.33-6.13-4.49-.4-1.18-.64-2.45-.64-5.2,0-.32,.17-.47,.47-.47h8.5c2.2,0,3.47-1.33,3.47-3.23s-1.27-3.22-3.47-3.22h-8.5c-.31,0-.47-.17-.47-.47v-2.69c0-.32,.17-.47,.47-.47h11.65c2.2,0,3.47-1.33,3.47-3.23s-1.27-3.22-3.47-3.22h-11.65c-.31,0-.47-.17-.47-.47,0-2.37,.24-3.71,.64-4.89,1.01-3.15,3.14-4.49,6.13-4.49,2.52,0,4.41,.87,5.83,2.69,1.42,1.73,2.92,2.51,4.49,2.51,2.6,0,4.64-1.97,4.64-4.48,0-.7-.08-1.42-.39-2.13-1.42-3.78-7.25-7.95-14.65-7.95-8.5,0-14.48,3.94-16.84,11.33-.63,2.13-1.02,4.49-1.02,7.41,0,.31-.15,.47-.47,.47h-1.26c-2.28,0-3.55,1.33-3.55,3.22s1.27,3.23,3.55,3.23h1.26c.32,0,.47,.15,.47,.47v2.69c0,.31-.15,.47-.47,.47h-1.26c-2.28,0-3.55,1.33-3.55,3.22s1.27,3.23,3.55,3.23h1.26c.32,0,.47,.15,.47,.47,0,3.32,.4,5.59,1.02,7.72,2.36,7.4,8.34,11.33,16.84,11.33"/><rect class="e" x="242.93" y="-87.51" width="5.51" height="611.37" transform="translate(-82.32 237.64) rotate(-45)"/><rect class="e" x="-61.49" y="215.35" width="611.37" height="5.51" transform="translate(-82.7 236.55) rotate(-45)"/></g></svg>