<?xml version="1.0" encoding="UTF-8" standalone="no"?> <svg xmlns="http://www.w3.org/2000/svg" xmlns:xlink="http://www.w3.org/1999/xlink" xmlns:serif="http://www.serif.com/" width="100%" height="100%" viewBox="0 0 563 323" version="1.1" xml:space="preserve" style="fill-rule:evenodd;clip-rule:evenodd;stroke-linejoin:round;stroke-miterlimit:10;"> <g transform="matrix(4.16667,0,0,4.16667,287.179,237.577)"> <path d="M0,0.188L-5.291,-5.291L-5.479,5.479L0,0.188Z" style="fill:rgb(223,128,27);fill-rule:nonzero;"></path> </g> <g transform="matrix(4.16667,0,0,4.16667,198.142,236.024)"> <path d="M0,0.188L-5.291,-5.291L-5.479,5.479L0,0.188Z" style="fill:rgb(223,128,27);fill-rule:nonzero;"></path> </g> <g transform="matrix(4.16667,0,0,4.16667,242.66,236.8)"> <path d="M0,0.188L-5.291,-5.291L-5.479,5.479L0,0.188Z" style="fill:rgb(223,128,27);fill-rule:nonzero;"></path> </g> <g transform="matrix(4.16667,0,0,4.16667,107.454,130.511)"> <path d="M0,45.377L-25.489,45.377L-25.489,0L6.58,0L6.58,38.798L0,45.377Z" style="fill:white;fill-rule:nonzero;stroke:rgb(42,44,104);stroke-width:0.6px;"></path> </g> <g transform="matrix(4.16667,0,0,4.16667,107.351,319.602)"> <path d="M0,-6.61L6.61,-6.61L0,0L0,-6.61Z" style="fill:white;fill-rule:nonzero;stroke:rgb(42,44,104);stroke-width:0.55px;"></path> </g> <g transform="matrix(4.16667,0,0,4.16667,110.097,317.359)"> <path d="M0,-5.954L5.482,-5.954L0,0L0,-5.954Z" style="fill:rgb(223,128,27);fill-rule:nonzero;stroke:rgb(223,128,27);stroke-width:0.24px;stroke-linejoin:miter;"></path> </g> <g transform="matrix(4.16667,0,0,4.16667,107.371,319.58)"> <path d="M0,-6.6L6.6,-6.6L0,0L0,-6.6Z" style="fill:none;fill-rule:nonzero;stroke:rgb(42,44,104);stroke-width:0.6px;"></path> </g> <g transform="matrix(-4.16667,0,0,4.16667,14.9471,247.448)"> <path d="M-19.804,0L0,0" style="fill:none;fill-rule:nonzero;stroke:rgb(42,44,104);stroke-width:0.4px;stroke-linecap:round;"></path> </g> <g transform="matrix(4.16667,0,0,4.16667,111.19,216.607)"> <path d="M0,3.723L-23.101,3.723M0.108,0L-22.994,0" style="fill:none;fill-rule:nonzero;stroke:rgb(42,44,104);stroke-width:0.4px;stroke-linecap:round;"></path> </g> <g transform="matrix(4.16667,0,0,4.16667,111.19,173.87)"> <path d="M0,3.723L-23.101,3.723M0.108,0L-22.994,0" style="fill:none;fill-rule:nonzero;stroke:rgb(42,44,104);stroke-width:0.4px;stroke-linecap:round;"></path> </g> <g transform="matrix(-4.16667,0,0,4.16667,15.4125,200.939)"> <path d="M-16.642,0L0,0" style="fill:none;fill-rule:nonzero;stroke:rgb(42,44,104);stroke-width:0.4px;stroke-linecap:round;"></path> </g> <g transform="matrix(-4.16667,0,0,4.16667,15.4125,158.176)"> <path d="M-16.642,0L0,0" style="fill:none;fill-rule:nonzero;stroke:rgb(42,44,104);stroke-width:0.4px;stroke-linecap:round;"></path> </g> <g transform="matrix(4.16667,0,0,4.16667,111.19,262.192)"> <path d="M0,3.723L-23.101,3.723M0.108,0L-22.994,0" style="fill:none;fill-rule:nonzero;stroke:rgb(42,44,104);stroke-width:0.4px;stroke-linecap:round;"></path> </g> <g transform="matrix(-4.16667,0,0,4.16667,15.3854,289.447)"> <path d="M-13.146,0L0,0" style="fill:none;fill-rule:nonzero;stroke:rgb(42,44,104);stroke-width:0.4px;stroke-linecap:round;"></path> </g> <g transform="matrix(4.16667,0,0,4.16667,423.838,13.1607)"> <path d="M0,0.629C0.009,-1.055 1.389,-2.552 3.04,-2.541C4.707,-2.529 6.059,-1.049 6.059,0.629L6.059,3.181L0.021,3.181L0,0.629Z" style="fill:rgb(223,128,27);fill-rule:nonzero;stroke:rgb(223,128,27);stroke-width:0.25px;"></path> </g> <g transform="matrix(4.16667,0,0,4.16667,426.576,46.2545)"> <path d="M0,-7.632C0.009,-9.316 1.395,-10.813 3.053,-10.801C4.728,-10.79 6.085,-9.309 6.085,-7.632L6.085,3.181L0.021,3.181L0,-7.632Z" style="fill:none;fill-rule:nonzero;stroke:rgb(42,44,104);stroke-width:0.6px;"></path> </g> <g transform="matrix(0,4.16667,4.16667,0,439.636,14.8436)"> <path d="M5.962,-5.963C9.255,-5.963 11.925,-3.293 11.925,-0.001C11.925,3.293 9.255,5.962 5.962,5.962C2.669,5.962 0,3.293 0,-0.001C0,-3.293 2.669,-5.963 5.962,-5.963" style="fill:white;fill-rule:nonzero;"></path> </g> <g transform="matrix(0,4.16667,4.16667,0,439.636,14.8436)"> <circle cx="5.963" cy="-0" r="5.963" style="fill:none;stroke:rgb(42,44,104);stroke-width:0.6px;"></circle> </g> <g transform="matrix(4.16667,0,0,4.16667,414.845,17.2457)"> <path d="M0,3.929C0.69,1.655 2.795,0 5.287,0C7.78,0 9.885,1.655 10.575,3.929L0,3.929Z" style="fill:rgb(223,128,27);fill-rule:nonzero;stroke:rgb(223,128,27);stroke-width:0.25px;"></path> </g> <g transform="matrix(-4.16667,0,0,4.16667,416.163,33.5911)"> <path d="M-11.266,0L0,0" style="fill:none;fill-rule:nonzero;stroke:rgb(42,44,104);stroke-width:0.4px;"></path> </g> <g transform="matrix(0,4.16667,4.16667,0,448.577,40.1953)"> <path d="M0.317,-0.316C0.492,-0.316 0.633,-0.174 0.633,0C0.633,0.175 0.492,0.317 0.317,0.317C0.142,0.317 0,0.175 0,0C0,-0.174 0.142,-0.316 0.317,-0.316" style="fill:rgb(42,44,104);fill-rule:nonzero;"></path> </g> <g transform="matrix(0,4.16667,4.16667,0,430.688,40.1953)"> <path d="M0.317,-0.316C0.492,-0.316 0.633,-0.174 0.633,0C0.633,0.175 0.492,0.317 0.317,0.317C0.142,0.317 0,0.175 0,0C0,-0.174 0.142,-0.316 0.317,-0.316" style="fill:rgb(42,44,104);fill-rule:nonzero;"></path> </g> <g transform="matrix(0,4.16667,4.16667,0,439.636,14.8436)"> <circle cx="5.963" cy="-0" r="5.963" style="fill:none;stroke:rgb(42,44,104);stroke-width:0.6px;"></circle> </g> <g transform="matrix(-4.16667,0,0,4.16667,394.436,231.749)"> <path d="M-21.059,0L0,0" style="fill:none;fill-rule:nonzero;stroke:rgb(42,44,104);stroke-width:0.4px;"></path> </g> <g transform="matrix(4.16667,0,0,4.16667,464.399,307.555)"> <path d="M0,-7.618L0,0M-12.28,-7.618L-12.28,0" style="fill:none;fill-rule:nonzero;stroke:rgb(42,44,104);stroke-width:0.6px;stroke-linecap:round;"></path> </g> <g transform="matrix(0,4.16667,4.16667,0,485.671,137.174)"> <path d="M-5.113,-5.113L5.113,-5.113" style="fill:none;fill-rule:nonzero;stroke:rgb(42,44,104);stroke-width:0.7px;stroke-linecap:round;"></path> </g> <g transform="matrix(4.16667,0,0,4.16667,394.628,228.532)"> <path d="M0,-26.683C0.033,-32.57 4.862,-37.803 10.641,-37.763C16.478,-37.723 21.21,-32.547 21.21,-26.683L21.21,11.12L0.072,11.12L0,-26.683Z" style="fill:none;fill-rule:nonzero;stroke:rgb(42,44,104);stroke-width:0.6px;"></path> </g> <g transform="matrix(0,4.16667,4.16667,0,434.57,137.174)"> <path d="M-5.113,-5.113L5.113,-5.113" style="fill:none;fill-rule:nonzero;stroke:rgb(42,44,104);stroke-width:0.7px;stroke-linecap:round;"></path> </g> <g transform="matrix(4.16667,0,0,4.16667,-1269.69,-2534.75)"> <rect x="398.189" y="654.112" width="20.473" height="21.005" style="fill:rgb(223,128,27);stroke:rgb(223,128,27);stroke-width:0.25px;"></rect> </g> <g transform="matrix(4.16667,0,0,4.16667,481.183,190.39)"> <path d="M0,0L-22.326,0" style="fill:none;fill-rule:nonzero;stroke:rgb(42,44,104);stroke-width:0.4px;"></path> </g> <g transform="matrix(4.16667,0,0,4.16667,462.405,312.549)"> <path d="M0,-8.112L0,0M-13.055,-8.112L-13.055,0" style="fill:none;fill-rule:nonzero;stroke:rgb(42,44,104);stroke-width:0.6px;stroke-linecap:round;"></path> </g> <g transform="matrix(0,4.16667,4.16667,0,472.636,241.184)"> <path d="M-8.904,-8.904L8.904,-8.904" style="fill:none;fill-rule:nonzero;stroke:rgb(42,44,104);stroke-width:0.4px;stroke-linecap:round;"></path> </g> <g transform="matrix(4.16667,0,0,4.16667,-1269.69,-2537.51)"> <rect x="380.657" y="645.288" width="58.768" height="39.315" style="fill:white;stroke:rgb(42,44,104);stroke-width:0.6px;"></rect> </g> <g transform="matrix(4.16667,0,0,4.16667,-1269.69,-2526.7)"> <rect x="379.385" y="644.016" width="57.781" height="39.265" style="fill:rgb(223,128,27);stroke:rgb(223,128,27);stroke-width:0.25px;"></rect> </g> <g transform="matrix(4.16667,0,0,4.16667,-1269.69,-2537.51)"> <rect x="380.657" y="645.288" width="58.768" height="39.315" style="fill:none;stroke:rgb(42,44,104);stroke-width:0.6px;"></rect> </g> </svg> 