<?xml version="1.0" encoding="UTF-8"?><svg id="a" xmlns="http://www.w3.org/2000/svg" xmlns:xlink="http://www.w3.org/1999/xlink" viewBox="0 0 1000 467.62"><defs><style>.g{fill:none;}.h{fill:#e59c00;}.i{fill:#fff;}.j{fill:#dad6e4;}.k{fill:#2b2961;}.l{clip-path:url(#c);}.m{clip-path:url(#b);}.n{clip-path:url(#f);}.o{clip-path:url(#e);}.p{clip-path:url(#d);}</style><clipPath id="b"><rect class="g" y="20.55" width="1000" height="426.51"/></clipPath><clipPath id="c"><rect class="g" y="20.55" width="1000" height="426.51"/></clipPath><clipPath id="d"><rect class="g" y="20.55" width="1000" height="426.51"/></clipPath><clipPath id="e"><rect class="g" y="20.55" width="1000" height="426.51"/></clipPath><clipPath id="f"><rect class="g" y="20.55" width="1000" height="426.51"/></clipPath></defs><polygon class="h" points="3.44 21.28 3.44 437.57 969.34 437.57 991.27 225.21 991.27 21.28 3.44 21.28"/><path class="h" d="M969.6,437.86H3.16V21H991.56V225.21l-21.96,212.65Zm-965.86-.58H969.08l21.9-212.1V21.57H3.73V437.29Z"/><g class="m"><path class="k" d="M990.61,438.4H.72c-.4,0-.72-.32-.72-.72V21.27c0-.4,.32-.72,.72-.72H990.61c.4,0,.72,.32,.72,.72V437.67c0,.4-.32,.72-.72,.72ZM1.44,436.95H989.89V22H1.44V436.95Z"/></g><polygon class="i" points="9.39 29.94 9.39 446.34 981.9 446.34 999.28 428.98 999.28 29.94 9.39 29.94"/><g class="l"><path class="k" d="M981.9,447.07H9.39c-.4,0-.72-.32-.72-.72V29.94c0-.4,.32-.72,.72-.72H999.28c.4,0,.72,.32,.72,.72V428.98c0,.19-.08,.37-.21,.51l-17.38,17.37c-.13,.14-.32,.21-.51,.21Zm-971.78-1.44H981.6l16.96-16.95V30.66H10.11V445.62Z"/></g><polygon class="i" points="981.73 428.8 981.73 446.35 999.28 428.8 981.73 428.8"/><g class="p"><path class="k" d="M981.73,447.02c-.09,0-.17-.02-.25-.05-.25-.1-.41-.35-.41-.61v-17.56c0-.37,.3-.66,.66-.66h17.56c.27,0,.51,.16,.62,.41,.1,.25,.04,.53-.15,.72l-17.56,17.56c-.13,.13-.3,.19-.47,.19Zm.66-17.56v15.29l15.28-15.29h-15.28Z"/></g><polygon class="h" points="983.5 429.14 983.5 444.94 998.05 429.14 983.5 429.14"/><path class="h" d="M983.22,445.68v-16.82h15.49l-15.49,16.82Zm.57-16.25v14.77l13.6-14.77h-13.6Z"/><g class="o"><path class="k" d="M981.73,447.02c-.09,0-.17-.02-.25-.05-.25-.1-.41-.35-.41-.61v-17.56c0-.37,.3-.66,.66-.66h17.56c.27,0,.51,.16,.62,.41,.1,.25,.04,.53-.15,.72l-17.56,17.56c-.13,.13-.3,.19-.47,.19Zm.66-17.56v15.29l15.28-15.29h-15.28Z"/></g><rect class="j" x="330.72" y="73.95" width="167.06" height="25.98"/><rect class="j" x="45.7" y="391" width="238.66" height="25.98"/><rect class="j" x="94.45" y="153.33" width="125.01" height="25.98"/><rect class="j" x="309.93" y="153.33" width="183.42" height="25.98"/><g class="n"><path class="k" d="M283.97,337.93v-7.4c0-1.3-.27-2.4-1.16-3.27-.69-.66-1.67-1.05-2.86-1.05s-2.29,.44-3.09,1.3v-1.16h-2.28v11.58h2.33v-7.06c0-1.78,1.1-2.58,2.4-2.58s2.33,.78,2.33,2.58v7.06h2.33Zm-11.52-10.63c-.8-.8-1.65-1.1-2.76-1.1-1.3,0-2.49,.57-3.08,1.39v-1.26h-2.28v11.58h2.33v-7.04c0-1.6,1.05-2.61,2.31-2.61,.8,0,1.21,.25,1.74,.78l1.76-1.76Zm-13.75,3.88h-5.21c.02-.71,.07-1.05,.3-1.58,.37-.87,1.21-1.46,2.31-1.46s1.92,.59,2.29,1.46c.23,.53,.3,.87,.32,1.58m2.31,1.62v-1.03c0-3.29-1.8-5.58-4.91-5.58s-4.91,2.17-4.91,5.92c0,4.41,2.31,5.94,5.21,5.94,2.04,0,3.15-.62,4.34-1.8l-1.48-1.39c-.82,.82-1.51,1.19-2.81,1.19-1.9,0-2.95-1.26-2.95-3.25h7.52Zm-12.36,5.12v-1.99h-.96c-.87,0-1.28-.5-1.28-1.34v-6.24h2.24v-1.78h-2.24v-3.54h-2.33v3.54h-1.33v1.78h1.33v6.36c0,1.66,1,3.22,3.17,3.22h1.4Zm-7.63,0v-1.99h-1.03c-.94,0-1.26-.46-1.26-1.35v-12.93h-2.33v13.07c0,1.71,.96,3.2,3.17,3.2h1.44Zm-7.89,0v-2.22h-7.93v-4.89h6.76v-2.19h-6.76v-4.76h7.93v-2.21h-10.39v16.27h10.39Zm-18.51-10.63c-.8-.8-1.65-1.1-2.76-1.1-1.3,0-2.49,.57-3.09,1.39v-1.26h-2.28v11.58h2.33v-7.04c0-1.6,1.05-2.61,2.31-2.61,.8,0,1.21,.25,1.74,.78l1.76-1.76Zm-13.75,3.88h-5.21c.02-.71,.07-1.05,.3-1.58,.37-.87,1.21-1.46,2.31-1.46s1.92,.59,2.29,1.46c.23,.53,.3,.87,.32,1.58m2.31,1.62v-1.03c0-3.29-1.8-5.58-4.91-5.58s-4.91,2.17-4.91,5.92c0,4.41,2.31,5.94,5.21,5.94,2.04,0,3.15-.62,4.34-1.8l-1.48-1.39c-.82,.82-1.51,1.19-2.81,1.19-1.9,0-2.95-1.26-2.95-3.25h7.52Zm-15.49-.69c0,2.06-.3,3.86-2.4,3.86s-2.42-1.8-2.42-3.86,.32-3.84,2.42-3.84,2.4,1.78,2.4,3.84m2.33,5.8v-16.27h-2.33v5.85c-.84-1-1.81-1.3-3.04-1.3-1.17,0-2.17,.39-2.81,1.03-1.16,1.16-1.3,3.13-1.3,4.89s.14,3.75,1.3,4.91c.64,.64,1.67,1.03,2.83,1.03,1.26,0,2.19-.32,3.06-1.37v1.23h2.28Zm-17.85,0v-1.99h-.96c-.87,0-1.28-.5-1.28-1.34v-6.24h2.24v-1.78h-2.24v-3.54h-2.33v3.54h-1.33v1.78h1.33v6.36c0,1.66,1,3.22,3.17,3.22h1.4Zm-7.57-9.58v-1.78h-2.31v-1.68c0-.85,.41-1.36,1.28-1.36h1.03v-1.99h-1.46c-2.17,0-3.17,1.55-3.17,3.23v1.8h-1.33v1.78h1.33v9.58h2.33v-9.58h2.31Zm-8.87-6.76h-2.47v2.47h2.47v-2.47Zm-.07,4.75h-2.33v11.58h2.33v-11.58Zm-4.46,.96c-.8-.8-1.65-1.1-2.76-1.1-1.3,0-2.49,.57-3.09,1.39v-1.26h-2.28v11.58h2.33v-7.04c0-1.6,1.05-2.61,2.31-2.61,.8,0,1.21,.25,1.74,.78l1.76-1.76Zm-11.95,10.63v-7.47c0-2.51-1.44-4.25-4.02-4.25-1.14,0-2.2,.44-2.99,1.3v-5.85h-2.33v16.27h2.33v-7.11c0-1.74,1.05-2.54,2.35-2.54s2.33,.78,2.33,2.54v7.11h2.33Zm-12.27-1.51l-1.6-1.53c-.73,.8-1.3,1.1-2.22,1.1s-1.65-.37-2.15-1.03c-.5-.64-.69-1.49-.69-2.84s.18-2.17,.69-2.81c.5-.66,1.26-1.03,2.15-1.03s1.49,.3,2.22,1.1l1.6-1.55c-1.1-1.16-2.22-1.62-3.82-1.62-2.61,0-5.16,1.58-5.16,5.92s2.56,5.94,5.16,5.94c1.6,0,2.72-.48,3.82-1.64m-11.45-2.04c0-2.06-1.28-3.09-3.45-3.27l-1.83-.16c-1.23-.12-1.6-.64-1.6-1.33,0-.87,.71-1.49,2.1-1.49,1.1,0,2.13,.23,2.86,.84l1.46-1.48c-1.08-.94-2.56-1.3-4.3-1.3-2.42,0-4.37,1.28-4.37,3.54,0,2.04,1.26,3.02,3.43,3.2l1.85,.16c1.12,.09,1.55,.59,1.55,1.37,0,1.1-1.12,1.6-2.54,1.6-1.14,0-2.4-.25-3.34-1.21l-1.53,1.53c1.37,1.35,2.97,1.67,4.87,1.67,2.77,0,4.82-1.26,4.82-3.68m-10.47-7.08c-.8-.8-1.65-1.1-2.76-1.1-1.3,0-2.49,.57-3.09,1.39v-1.26h-2.28v11.58h2.33v-7.04c0-1.6,1.05-2.61,2.31-2.61,.8,0,1.21,.25,1.74,.78l1.76-1.76Zm-13.76,3.88h-5.21c.02-.71,.07-1.05,.3-1.58,.37-.87,1.21-1.46,2.31-1.46s1.92,.59,2.29,1.46c.23,.53,.3,.87,.32,1.58m2.31,1.62v-1.03c0-3.29-1.81-5.58-4.91-5.58s-4.91,2.17-4.91,5.92c0,4.41,2.3,5.94,5.21,5.94,2.03,0,3.15-.62,4.34-1.8l-1.49-1.39c-.82,.82-1.51,1.19-2.81,1.19-1.9,0-2.95-1.26-2.95-3.25h7.52Zm-12.36,5.12v-1.99h-.96c-.87,0-1.28-.5-1.28-1.34v-6.24h2.24v-1.78h-2.24v-3.54h-2.33v3.54h-1.33v1.78h1.33v6.36c0,1.66,1,3.22,3.17,3.22h1.39Zm-8.66,0v-7.4c0-1.3-.27-2.4-1.16-3.27-.69-.66-1.67-1.05-2.86-1.05s-2.29,.44-3.09,1.3v-1.16h-2.28v11.58h2.33v-7.06c0-1.78,1.1-2.58,2.4-2.58s2.33,.78,2.33,2.58v7.06h2.33Zm-13.35-5.48v-10.79h-2.47v10.67c0,2.17-1.35,3.52-3.38,3.52s-3.36-1.35-3.36-3.52v-10.67h-2.47v10.79c0,3.36,2.51,5.62,5.83,5.62s5.85-2.26,5.85-5.62"/><path class="k" d="M282.31,255.76h-2.79v2.79h2.79v-2.79Zm-2.1-7.84c-.8-.8-1.65-1.09-2.76-1.09-1.3,0-2.49,.57-3.09,1.39v-1.26h-2.28v11.58h2.33v-7.04c0-1.6,1.05-2.61,2.31-2.61,.8,0,1.21,.25,1.74,.78l1.76-1.76Zm-14.28,6.44c0,.82-.16,1.37-.5,1.72-.62,.59-1.28,.66-2.17,.66-1.46,0-2.13-.59-2.13-1.65s.71-1.67,2.08-1.67h2.72v.94Zm2.33,4.18v-7.74c0-2.63-1.6-3.98-4.77-3.98-1.92,0-3.06,.39-4.16,1.67l1.53,1.44c.64-.82,1.26-1.12,2.54-1.12,1.81,0,2.54,.71,2.54,2.17v.82h-3.06c-2.65,0-4,1.39-4,3.33,0,.98,.32,1.88,.91,2.49,.71,.71,1.67,1.05,3.11,1.05s2.24-.34,3.09-1.19v1.05h2.28Zm-10.79-11.58h-2.49l-2.24,8.16-2.67-8.16h-1.8l-2.7,8.16-2.24-8.16h-2.47l3.59,11.58h2.01l2.7-8.09,2.72,8.09h1.99l3.61-11.58Zm-23.24,11.58l-4.52-7.04,4.02-4.55h-2.83l-4.5,5.35v-10.03h-2.33v16.27h2.33v-3.4l1.71-1.94,3.25,5.35h2.88Zm-13.98,0v-7.4c0-1.3-.27-2.4-1.16-3.27-.69-.66-1.67-1.05-2.86-1.05s-2.29,.43-3.09,1.3v-1.16h-2.28v11.58h2.33v-7.06c0-1.78,1.1-2.59,2.4-2.59s2.33,.78,2.33,2.58v7.06h2.33Zm-15.54-4.18c0,.82-.16,1.37-.5,1.72-.62,.59-1.28,.66-2.17,.66-1.46,0-2.13-.59-2.13-1.65s.71-1.67,2.08-1.67h2.72v.94Zm2.33,4.18v-7.74c0-2.63-1.6-3.98-4.77-3.98-1.92,0-3.06,.39-4.16,1.67l1.53,1.44c.64-.82,1.26-1.12,2.54-1.12,1.81,0,2.54,.71,2.54,2.17v.82h-3.06c-2.65,0-4,1.39-4,3.33,0,.98,.32,1.88,.91,2.49,.71,.71,1.67,1.05,3.11,1.05s2.24-.34,3.09-1.19v1.05h2.28Zm-10.42-10.63c-.8-.8-1.65-1.09-2.77-1.09-1.3,0-2.49,.57-3.08,1.39v-1.26h-2.28v11.58h2.33v-7.04c0-1.6,1.05-2.61,2.31-2.61,.8,0,1.21,.25,1.74,.78l1.76-1.76Zm-10.72,10.63l-4.52-7.04,4.02-4.55h-2.83l-4.5,5.35v-10.03h-2.33v16.27h2.33v-3.4l1.71-1.94,3.25,5.35h2.88Zm-18.01-10.63c-.8-.8-1.65-1.09-2.76-1.09-1.3,0-2.49,.57-3.09,1.39v-1.26h-2.28v11.58h2.33v-7.04c0-1.6,1.05-2.61,2.31-2.61,.8,0,1.21,.25,1.74,.78l1.76-1.76Zm-13.76,3.89h-5.21c.02-.71,.07-1.05,.3-1.58,.37-.87,1.21-1.46,2.31-1.46s1.92,.6,2.29,1.46c.23,.53,.3,.87,.32,1.58m2.31,1.62v-1.02c0-3.29-1.81-5.58-4.91-5.58s-4.91,2.17-4.91,5.92c0,4.41,2.3,5.94,5.21,5.94,2.03,0,3.15-.62,4.34-1.8l-1.49-1.4c-.82,.82-1.51,1.19-2.81,1.19-1.9,0-2.95-1.26-2.95-3.25h7.52Zm-16.95-12.84h-2.24l-6.51,19.65h2.24l6.51-19.65Zm-18.24,11.22h-5.21c.02-.71,.07-1.05,.3-1.58,.37-.87,1.21-1.46,2.31-1.46s1.92,.6,2.29,1.46c.23,.53,.3,.87,.32,1.58m2.31,1.62v-1.02c0-3.29-1.81-5.58-4.91-5.58s-4.91,2.17-4.91,5.92c0,4.41,2.3,5.94,5.21,5.94,2.03,0,3.15-.62,4.34-1.8l-1.49-1.4c-.82,.82-1.51,1.19-2.81,1.19-1.9,0-2.95-1.26-2.95-3.25h7.52Zm-13.1-11.22h-2.47v2.47h2.47v-2.47Zm-.07,4.75h-2.33v11.58h2.33v-11.58Zm-5.39,8.04c0-2.06-1.28-3.09-3.45-3.27l-1.83-.16c-1.23-.11-1.6-.64-1.6-1.33,0-.87,.71-1.49,2.1-1.49,1.1,0,2.13,.23,2.86,.85l1.46-1.48c-1.08-.94-2.56-1.3-4.3-1.3-2.42,0-4.37,1.28-4.37,3.54,0,2.03,1.26,3.02,3.43,3.2l1.85,.16c1.12,.09,1.55,.59,1.55,1.37,0,1.1-1.12,1.6-2.54,1.6-1.14,0-2.4-.25-3.34-1.21l-1.53,1.53c1.37,1.35,2.97,1.66,4.87,1.66,2.77,0,4.82-1.25,4.82-3.68m-17.07,3.54v-1.98h-1.03c-.94,0-1.26-.46-1.26-1.35v-12.93h-2.33v13.07c0,1.71,.96,3.19,3.17,3.19h1.44Zm-8.41-16.34h-2.47v2.47h2.47v-2.47Zm-.07,4.75h-2.33v11.58h2.33v-11.58Zm-7.95,4.84h-5.21c.02-.71,.07-1.05,.3-1.58,.37-.87,1.21-1.46,2.31-1.46s1.92,.6,2.29,1.46c.23,.53,.3,.87,.32,1.58m2.31,1.62v-1.02c0-3.29-1.81-5.58-4.91-5.58s-4.91,2.17-4.91,5.92c0,4.41,2.3,5.94,5.21,5.94,2.03,0,3.15-.62,4.34-1.8l-1.49-1.4c-.82,.82-1.51,1.19-2.81,1.19-1.9,0-2.95-1.26-2.95-3.25h7.52Zm-11.31-6.46h-2.49l-2.24,8.16-2.67-8.16h-1.8l-2.7,8.16-2.24-8.16h-2.47l3.59,11.58h2.01l2.7-8.09,2.72,8.09h1.99l3.61-11.58Z"/><path class="k" d="M772.18,180.54v-4.02h-2.65v6.19l2.65-2.17Zm-6.4-1.37v-7.4c0-1.3-.27-2.4-1.16-3.27-.69-.66-1.67-1.05-2.86-1.05s-2.29,.43-3.09,1.3v-1.16h-2.28v11.58h2.33v-7.06c0-1.78,1.1-2.59,2.4-2.59s2.33,.78,2.33,2.58v7.06h2.33Zm-15.01-6.74h-5.21c.02-.71,.07-1.05,.3-1.58,.36-.87,1.21-1.46,2.31-1.46s1.92,.6,2.29,1.46c.23,.53,.3,.87,.32,1.58m2.31,1.62v-1.02c0-3.29-1.8-5.58-4.91-5.58s-4.91,2.17-4.91,5.92c0,4.41,2.3,5.94,5.21,5.94,2.04,0,3.15-.62,4.34-1.8l-1.49-1.4c-.82,.82-1.51,1.19-2.81,1.19-1.9,0-2.95-1.26-2.95-3.25h7.52Zm-13.05,5.12v-7.47c0-2.51-1.44-4.25-4.02-4.25-1.14,0-2.2,.43-2.99,1.3v-5.85h-2.33v16.27h2.33v-7.11c0-1.74,1.05-2.54,2.35-2.54s2.33,.78,2.33,2.54v7.11h2.33Zm-12.27-1.51l-1.6-1.53c-.73,.8-1.3,1.1-2.22,1.1s-1.65-.37-2.15-1.03c-.5-.64-.69-1.48-.69-2.83s.18-2.17,.69-2.81c.5-.66,1.26-1.03,2.15-1.03s1.49,.3,2.22,1.1l1.6-1.55c-1.1-1.16-2.22-1.62-3.82-1.62-2.61,0-5.16,1.58-5.16,5.92s2.56,5.94,5.16,5.94c1.6,0,2.72-.48,3.82-1.64m-12.32,1.51v-11.58h-2.33v7.06c0,1.78-1.1,2.58-2.4,2.58s-2.33-.78-2.33-2.58v-7.06h-2.33v7.4c0,1.3,.27,2.4,1.16,3.27,.69,.66,1.67,1.05,2.86,1.05s2.29-.43,3.09-1.3v1.16h2.28Zm-12.34-3.54c0-2.06-1.28-3.09-3.45-3.27l-1.83-.16c-1.23-.11-1.6-.64-1.6-1.33,0-.87,.71-1.49,2.1-1.49,1.1,0,2.13,.23,2.86,.85l1.46-1.48c-1.08-.94-2.56-1.3-4.3-1.3-2.42,0-4.37,1.28-4.37,3.54,0,2.03,1.26,3.02,3.43,3.2l1.85,.16c1.12,.09,1.55,.59,1.55,1.37,0,1.1-1.12,1.6-2.54,1.6-1.14,0-2.4-.25-3.34-1.21l-1.53,1.53c1.37,1.35,2.97,1.66,4.87,1.66,2.77,0,4.82-1.25,4.82-3.68m-14.19-3.2h-5.21c.02-.71,.07-1.05,.3-1.58,.36-.87,1.21-1.46,2.31-1.46s1.92,.6,2.29,1.46c.23,.53,.3,.87,.32,1.58m2.31,1.62v-1.02c0-3.29-1.8-5.58-4.91-5.58s-4.91,2.17-4.91,5.92c0,4.41,2.3,5.94,5.21,5.94,2.04,0,3.15-.62,4.34-1.8l-1.49-1.4c-.82,.82-1.51,1.19-2.81,1.19-1.9,0-2.95-1.26-2.95-3.25h7.52Zm-14.94-.68c0,2.06-.3,3.86-2.4,3.86s-2.42-1.81-2.42-3.86,.32-3.84,2.42-3.84,2.4,1.78,2.4,3.84m2.33,0c0-1.76-.14-3.73-1.3-4.89-.64-.64-1.65-1.03-2.81-1.03-1.23,0-2.19,.3-3.04,1.3v-5.85h-2.33v16.27h2.28v-1.23c.87,1.05,1.81,1.37,3.06,1.37,1.17,0,2.19-.39,2.83-1.03,1.16-1.16,1.3-3.15,1.3-4.91m-18.4,5.8v-1.98h-.96c-.87,0-1.28-.5-1.28-1.34v-6.24h2.24v-1.78h-2.24v-3.54h-2.33v3.54h-1.33v1.78h1.33v6.36c0,1.66,1.01,3.22,3.18,3.22h1.39Zm-8.66,0v-7.47c0-2.51-1.44-4.25-4.02-4.25-1.15,0-2.2,.43-3,1.3v-5.85h-2.33v16.27h2.33v-7.11c0-1.74,1.05-2.54,2.35-2.54s2.33,.78,2.33,2.54v7.11h2.33Zm-12.27-1.51l-1.6-1.53c-.73,.8-1.3,1.1-2.22,1.1s-1.65-.37-2.15-1.03c-.5-.64-.69-1.48-.69-2.83s.18-2.17,.69-2.81c.5-.66,1.26-1.03,2.15-1.03s1.48,.3,2.22,1.1l1.6-1.55c-1.1-1.16-2.22-1.62-3.82-1.62-2.61,0-5.16,1.58-5.16,5.92s2.56,5.94,5.16,5.94c1.6,0,2.72-.48,3.82-1.64m-12.25-14.83h-2.47v2.47h2.47v-2.47Zm-.07,4.75h-2.33v11.58h2.33v-11.58Zm-6.15,11.58v-7.4c0-1.3-.27-2.4-1.16-3.27-.69-.66-1.67-1.05-2.86-1.05s-2.29,.43-3.09,1.3v-1.16h-2.28v11.58h2.33v-7.06c0-1.78,1.1-2.59,2.4-2.59s2.33,.78,2.33,2.58v7.06h2.33Zm-20.73-6.74h-5.21c.02-.71,.07-1.05,.3-1.58,.37-.87,1.21-1.46,2.31-1.46s1.92,.6,2.29,1.46c.23,.53,.3,.87,.32,1.58m2.31,1.62v-1.02c0-3.29-1.81-5.58-4.91-5.58s-4.91,2.17-4.91,5.92c0,4.41,2.3,5.94,5.21,5.94,2.03,0,3.15-.62,4.34-1.8l-1.49-1.4c-.82,.82-1.51,1.19-2.81,1.19-1.9,0-2.95-1.26-2.95-3.25h7.52Zm-11.45,5.12v-1.98h-1.03c-.94,0-1.26-.46-1.26-1.35v-12.93h-2.33v13.07c0,1.72,.96,3.2,3.17,3.2h1.44Zm-8.48,0v-11.58h-2.33v7.06c0,1.78-1.1,2.58-2.4,2.58s-2.33-.78-2.33-2.58v-7.06h-2.33v7.4c0,1.3,.27,2.4,1.16,3.27,.69,.66,1.67,1.05,2.86,1.05s2.29-.43,3.09-1.3v1.16h2.28Zm-13.1,0v-7.47c0-2.51-1.44-4.25-4.02-4.25-1.14,0-2.19,.43-2.99,1.3v-5.85h-2.33v16.27h2.33v-7.11c0-1.74,1.05-2.54,2.35-2.54s2.33,.78,2.33,2.54v7.11h2.33Zm-12.27-1.51l-1.6-1.53c-.73,.8-1.3,1.1-2.22,1.1s-1.65-.37-2.15-1.03c-.5-.64-.69-1.48-.69-2.83s.18-2.17,.69-2.81c.5-.66,1.26-1.03,2.15-1.03s1.48,.3,2.22,1.1l1.6-1.55c-1.1-1.16-2.22-1.62-3.82-1.62-2.61,0-5.16,1.58-5.16,5.92s2.56,5.94,5.16,5.94c1.6,0,2.72-.48,3.82-1.64m-11.65-3.13c0-1.4-.43-2.56-1.32-3.34-.69-.62-1.53-.98-3.04-1.21l-1.85-.27c-.76-.12-1.42-.39-1.83-.76-.43-.39-.62-.91-.62-1.51,0-1.44,1.05-2.54,2.97-2.54,1.37,0,2.54,.3,3.54,1.26l1.58-1.55c-1.39-1.3-2.9-1.85-5.05-1.85-3.38,0-5.44,1.94-5.44,4.77,0,1.33,.39,2.35,1.19,3.11,.71,.66,1.76,1.12,3.08,1.3l1.92,.27c.96,.14,1.37,.3,1.78,.69,.43,.39,.64,.98,.64,1.69,0,1.58-1.23,2.49-3.36,2.49-1.67,0-2.97-.37-4.16-1.55l-1.65,1.62c1.55,1.58,3.31,2.15,5.76,2.15,3.41,0,5.85-1.78,5.85-4.77m-21.78-2.1h-5.21c.02-.71,.07-1.05,.3-1.58,.37-.87,1.21-1.46,2.31-1.46s1.92,.6,2.29,1.46c.23,.53,.3,.87,.32,1.58m2.31,1.62v-1.02c0-3.29-1.8-5.58-4.91-5.58s-4.91,2.17-4.91,5.92c0,4.41,2.3,5.94,5.21,5.94,2.04,0,3.15-.62,4.34-1.8l-1.48-1.4c-.82,.82-1.51,1.19-2.81,1.19-1.9,0-2.95-1.26-2.95-3.25h7.52Zm-13.09-11.22h-2.47v2.47h2.47v-2.47Zm-.07,4.75h-2.33v11.58h2.33v-11.58Zm-8.59,5.78c0,2.06-.3,3.86-2.4,3.86s-2.42-1.81-2.42-3.86,.32-3.84,2.42-3.84,2.4,1.78,2.4,3.84m2.33,5.8v-16.27h-2.33v5.85c-.85-1.01-1.81-1.3-3.04-1.3-1.16,0-2.17,.39-2.81,1.03-1.16,1.16-1.3,3.13-1.3,4.89s.14,3.75,1.3,4.91c.64,.64,1.67,1.03,2.83,1.03,1.26,0,2.2-.32,3.06-1.37v1.23h2.28Zm-201.28,0v-7.4c0-1.3-.34-2.4-1.23-3.27-.68-.66-1.73-1.05-2.93-1.05-1.53,0-2.7,.55-3.63,1.69-.73-1.12-1.85-1.69-3.29-1.69-1.17,0-2.31,.46-3.09,1.3v-1.16h-2.28v11.58h2.33v-7.06c0-1.78,1.1-2.59,2.4-2.59s2.33,.78,2.33,2.58v7.06h2.33v-7.18c0-1.67,1.14-2.47,2.4-2.47s2.33,.78,2.33,2.58v7.06h2.33Zm-20.38,0v-11.58h-2.33v7.06c0,1.78-1.1,2.58-2.4,2.58s-2.33-.78-2.33-2.58v-7.06h-2.33v7.4c0,1.3,.27,2.4,1.16,3.27,.69,.66,1.67,1.05,2.86,1.05s2.29-.43,3.09-1.3v1.16h2.28Zm-12.45,0v-2.08h-5.8l5.8-7.66v-1.85h-8.32v2.08h5.44l-5.76,7.66v1.85h8.64Zm-16.55-3.54c0-2.06-1.28-3.09-3.45-3.27l-1.83-.16c-1.23-.11-1.6-.64-1.6-1.33,0-.87,.71-1.49,2.1-1.49,1.1,0,2.13,.23,2.86,.85l1.46-1.48c-1.08-.94-2.56-1.3-4.3-1.3-2.42,0-4.37,1.28-4.37,3.54,0,2.03,1.26,3.02,3.43,3.2l1.85,.16c1.12,.09,1.55,.59,1.55,1.37,0,1.1-1.12,1.6-2.54,1.6-1.14,0-2.4-.25-3.34-1.21l-1.53,1.53c1.37,1.35,2.97,1.66,4.87,1.66,2.77,0,4.82-1.25,4.82-3.68m-12.43-12.8h-2.47v2.47h2.47v-2.47Zm-.07,4.75h-2.33v11.58h2.33v-11.58Zm-8.04,5.78c0,2.06-.3,3.86-2.4,3.86s-2.42-1.81-2.42-3.86,.32-3.84,2.42-3.84,2.4,1.78,2.4,3.84m2.33,0c0-1.76-.14-3.73-1.3-4.89-.64-.64-1.64-1.03-2.81-1.03-1.24,0-2.2,.3-3.04,1.3v-5.85h-2.33v16.27h2.28v-1.23c.87,1.05,1.8,1.37,3.06,1.37,1.17,0,2.2-.39,2.83-1.03,1.16-1.16,1.3-3.15,1.3-4.91m-150.41,5.8v-7.4c0-1.3-.34-2.4-1.23-3.27-.69-.66-1.74-1.05-2.93-1.05-1.53,0-2.7,.55-3.63,1.69-.73-1.12-1.85-1.69-3.29-1.69-1.17,0-2.31,.46-3.09,1.3v-1.16h-2.28v11.58h2.33v-7.06c0-1.78,1.1-2.59,2.4-2.59s2.33,.78,2.33,2.58v7.06h2.33v-7.18c0-1.67,1.14-2.47,2.4-2.47s2.33,.78,2.33,2.58v7.06h2.33Zm-22.16-5.8c0,1.26-.09,2.47-.8,3.18-.44,.43-1.03,.69-1.72,.69s-1.26-.25-1.69-.69c-.71-.71-.8-1.92-.8-3.18s.09-2.47,.8-3.18c.43-.44,1.01-.66,1.69-.66s1.28,.23,1.72,.66c.71,.71,.8,1.92,.8,3.18m2.33,0c0-1.94-.27-3.41-1.37-4.55-.75-.77-1.9-1.37-3.47-1.37s-2.7,.59-3.45,1.37c-1.09,1.14-1.37,2.61-1.37,4.55s.27,3.43,1.37,4.57c.76,.78,1.87,1.37,3.45,1.37s2.72-.59,3.47-1.37c1.1-1.14,1.37-2.61,1.37-4.57m-11.15-5.78h-2.47l-2.72,8.16-2.74-8.16h-2.47l4.25,11.58h1.9l4.25-11.58Z"/><path class="k" d="M778.83,93.04h-5.21c.02-.71,.07-1.05,.3-1.58,.37-.87,1.21-1.46,2.31-1.46s1.92,.59,2.29,1.46c.23,.52,.3,.87,.32,1.58m2.31,1.62v-1.03c0-3.29-1.8-5.57-4.91-5.57s-4.91,2.17-4.91,5.92c0,4.41,2.31,5.94,5.21,5.94,2.04,0,3.15-.62,4.34-1.8l-1.48-1.4c-.82,.82-1.51,1.19-2.81,1.19-1.9,0-2.95-1.26-2.95-3.25h7.52Zm-12.36,5.12v-1.98h-.96c-.87,0-1.28-.5-1.28-1.34v-6.24h2.24v-1.78h-2.24v-3.54h-2.33v3.54h-1.33v1.78h1.33v6.36c0,1.66,1,3.22,3.17,3.22h1.4Zm-8.66,0v-7.4c0-1.3-.27-2.4-1.16-3.27-.68-.66-1.67-1.05-2.86-1.05s-2.29,.43-3.09,1.3v-1.16h-2.28v11.58h2.33v-7.06c0-1.78,1.1-2.58,2.4-2.58s2.33,.78,2.33,2.58v7.06h2.33Zm-13.21,0v-7.4c0-1.3-.27-2.4-1.16-3.27-.68-.66-1.67-1.05-2.86-1.05s-2.29,.43-3.09,1.3v-1.16h-2.28v11.58h2.33v-7.06c0-1.78,1.1-2.58,2.4-2.58s2.33,.78,2.33,2.58v7.06h2.33Zm-15.1-5.8c0,1.26-.09,2.47-.8,3.18-.43,.43-1.03,.69-1.72,.69s-1.26-.25-1.69-.69c-.71-.71-.8-1.92-.8-3.18s.09-2.47,.8-3.18c.44-.44,1.01-.66,1.69-.66s1.28,.23,1.72,.66c.71,.71,.8,1.92,.8,3.18m2.33,0c0-1.94-.27-3.41-1.37-4.55-.76-.78-1.9-1.37-3.48-1.37s-2.7,.59-3.45,1.37c-1.1,1.14-1.37,2.61-1.37,4.55s.27,3.43,1.37,4.57c.75,.77,1.87,1.37,3.45,1.37s2.72-.59,3.48-1.37c1.09-1.14,1.37-2.61,1.37-4.57m-11.54,5.8l-4.52-7.04,4.02-4.55h-2.83l-4.5,5.35v-10.03h-2.33v16.27h2.33v-3.4l1.71-1.94,3.25,5.35h2.88Zm-25.62-2.67v-10.92c0-.91-.07-1.8-.55-2.65-.45-.82-1.09-1.44-1.83-2.17l-1.6,1.6c.55,.55,.91,.87,1.26,1.51,.23,.43,.34,1.05,.34,1.85v10.65c0,.8-.11,1.42-.34,1.85-.34,.64-.71,.96-1.26,1.51l1.6,1.6c.73-.73,1.37-1.35,1.83-2.17,.48-.85,.55-1.74,.55-2.65m-6.51-.87c0-2.06-1.28-3.09-3.45-3.27l-1.83-.16c-1.23-.12-1.6-.64-1.6-1.33,0-.87,.71-1.49,2.1-1.49,1.1,0,2.12,.23,2.86,.85l1.46-1.49c-1.07-.94-2.56-1.3-4.3-1.3-2.42,0-4.36,1.28-4.36,3.54,0,2.04,1.26,3.02,3.43,3.2l1.85,.16c1.12,.09,1.55,.59,1.55,1.37,0,1.1-1.12,1.6-2.54,1.6-1.14,0-2.4-.25-3.34-1.21l-1.53,1.53c1.37,1.35,2.97,1.67,4.87,1.67,2.76,0,4.82-1.26,4.82-3.68m-14.19-3.2h-5.21c.02-.71,.07-1.05,.3-1.58,.37-.87,1.21-1.46,2.31-1.46s1.92,.59,2.29,1.46c.23,.52,.3,.87,.32,1.58m2.31,1.62v-1.03c0-3.29-1.81-5.57-4.91-5.57s-4.91,2.17-4.91,5.92c0,4.41,2.3,5.94,5.21,5.94,2.03,0,3.15-.62,4.34-1.8l-1.49-1.4c-.82,.82-1.51,1.19-2.81,1.19-1.9,0-2.95-1.26-2.95-3.25h7.52Zm-15.49-.68c0,2.06-.3,3.86-2.4,3.86s-2.42-1.81-2.42-3.86,.32-3.84,2.42-3.84,2.4,1.78,2.4,3.84m2.33,5.8v-16.27h-2.33v5.85c-.85-1-1.81-1.3-3.04-1.3-1.17,0-2.17,.39-2.81,1.03-1.16,1.16-1.3,3.13-1.3,4.89s.14,3.75,1.3,4.91c.64,.64,1.67,1.03,2.83,1.03,1.26,0,2.2-.32,3.06-1.37v1.23h2.28Zm-12.75,0v-7.4c0-1.3-.27-2.4-1.16-3.27-.69-.66-1.67-1.05-2.86-1.05s-2.29,.43-3.09,1.3v-1.16h-2.28v11.58h2.33v-7.06c0-1.78,1.1-2.58,2.4-2.58s2.33,.78,2.33,2.58v7.06h2.33Zm-13.25-16.34h-2.47v2.47h2.47v-2.47Zm-.07,4.75h-2.33v11.58h2.33v-11.58Zm-4.64,11.58l-5.83-9.89,5.28-6.37h-3.02l-6.65,8.18v-8.18h-2.47v16.27h2.47v-4.73l2.74-3.29,4.57,8.02h2.9Zm-21.73-3.54c0-2.06-1.28-3.09-3.45-3.27l-1.83-.16c-1.23-.12-1.6-.64-1.6-1.33,0-.87,.71-1.49,2.1-1.49,1.1,0,2.12,.23,2.86,.85l1.46-1.49c-1.07-.94-2.56-1.3-4.3-1.3-2.42,0-4.36,1.28-4.36,3.54,0,2.04,1.26,3.02,3.43,3.2l1.85,.16c1.12,.09,1.55,.59,1.55,1.37,0,1.1-1.12,1.6-2.54,1.6-1.14,0-2.4-.25-3.34-1.21l-1.53,1.53c1.37,1.35,2.97,1.67,4.87,1.67,2.76,0,4.82-1.26,4.82-3.68m-14.19-3.2h-5.21c.02-.71,.07-1.05,.3-1.58,.37-.87,1.21-1.46,2.31-1.46s1.92,.59,2.29,1.46c.23,.52,.3,.87,.32,1.58m2.31,1.62v-1.03c0-3.29-1.81-5.57-4.91-5.57s-4.91,2.17-4.91,5.92c0,4.41,2.3,5.94,5.21,5.94,2.03,0,3.15-.62,4.34-1.8l-1.49-1.4c-.82,.82-1.51,1.19-2.81,1.19-1.9,0-2.95-1.26-2.95-3.25h7.52Zm-15.49-.68c0,2.06-.3,3.86-2.4,3.86s-2.42-1.81-2.42-3.86,.32-3.84,2.42-3.84,2.4,1.78,2.4,3.84m2.33,5.8v-16.27h-2.33v5.85c-.84-1-1.81-1.3-3.04-1.3-1.17,0-2.17,.39-2.81,1.03-1.16,1.16-1.3,3.13-1.3,4.89s.14,3.75,1.3,4.91c.64,.64,1.67,1.03,2.83,1.03,1.26,0,2.19-.32,3.06-1.37v1.23h2.28Zm-20.27-6.74h-5.21c.02-.71,.07-1.05,.3-1.58,.37-.87,1.21-1.46,2.31-1.46s1.92,.59,2.29,1.46c.23,.52,.3,.87,.32,1.58m2.31,1.62v-1.03c0-3.29-1.8-5.57-4.91-5.57s-4.91,2.17-4.91,5.92c0,4.41,2.31,5.94,5.21,5.94,2.04,0,3.15-.62,4.34-1.8l-1.48-1.4c-.82,.82-1.51,1.19-2.81,1.19-1.9,0-2.95-1.26-2.95-3.25h7.52Zm-13.05,5.12v-7.4c0-1.3-.34-2.4-1.23-3.27-.68-.66-1.73-1.05-2.92-1.05-1.53,0-2.7,.55-3.63,1.69-.73-1.12-1.85-1.69-3.29-1.69-1.17,0-2.31,.45-3.09,1.3v-1.16h-2.28v11.58h2.33v-7.06c0-1.78,1.1-2.58,2.4-2.58s2.33,.78,2.33,2.58v7.06h2.33v-7.18c0-1.67,1.15-2.47,2.4-2.47s2.33,.78,2.33,2.58v7.06h2.33Zm-22.6-4.18c0,.82-.16,1.37-.5,1.72-.62,.59-1.28,.66-2.17,.66-1.46,0-2.13-.6-2.13-1.65s.71-1.67,2.08-1.67h2.72v.94Zm2.33,4.18v-7.75c0-2.63-1.6-3.97-4.77-3.97-1.92,0-3.06,.39-4.16,1.66l1.53,1.44c.64-.82,1.26-1.12,2.54-1.12,1.81,0,2.54,.71,2.54,2.17v.83h-3.06c-2.65,0-4,1.39-4,3.33,0,.98,.32,1.88,.91,2.49,.71,.71,1.66,1.05,3.11,1.05s2.24-.34,3.09-1.19v1.05h2.28Zm-12.73,0v-16.27h-2.47v11.42l-7.52-11.42h-2.26v16.27h2.47v-11.45l7.52,11.45h2.26Zm-15.93,.57c-.55-.55-.94-.87-1.28-1.51-.23-.44-.34-1.05-.34-1.87v-10.65c0-.82,.12-1.44,.34-1.87,.34-.64,.73-.96,1.28-1.51l-1.58-1.58c-.73,.73-1.39,1.35-1.85,2.17-.48,.84-.53,1.73-.53,2.65v10.92c0,.91,.05,1.8,.53,2.65,.45,.82,1.12,1.44,1.85,2.17l1.58-1.58Zm-184.98-.57v-7.4c0-1.3-.27-2.4-1.16-3.27-.69-.66-1.67-1.05-2.86-1.05s-2.29,.43-3.09,1.3v-1.16h-2.28v11.58h2.33v-7.06c0-1.78,1.1-2.58,2.4-2.58s2.33,.78,2.33,2.58v7.06h2.33Zm-13.21,0v-7.47c0-2.51-1.44-4.25-4.02-4.25-1.14,0-2.2,.43-2.99,1.3v-5.85h-2.33v16.27h2.33v-7.11c0-1.74,1.05-2.54,2.35-2.54s2.33,.78,2.33,2.54v7.11h2.33Zm-15.06-5.8c0,1.26-.09,2.47-.8,3.18-.43,.43-1.03,.69-1.72,.69s-1.26-.25-1.69-.69c-.71-.71-.8-1.92-.8-3.18s.09-2.47,.8-3.18c.44-.44,1.01-.66,1.69-.66s1.28,.23,1.72,.66c.71,.71,.8,1.92,.8,3.18m2.33,0c0-1.94-.27-3.41-1.37-4.55-.75-.78-1.9-1.37-3.47-1.37s-2.7,.59-3.45,1.37c-1.1,1.14-1.37,2.61-1.37,4.55s.27,3.43,1.37,4.57c.75,.77,1.87,1.37,3.45,1.37s2.72-.59,3.47-1.37c1.1-1.14,1.37-2.61,1.37-4.57m-12.39,1.16c0-1.39-.44-2.56-1.33-3.34-.68-.62-1.53-.98-3.04-1.21l-1.85-.28c-.75-.11-1.42-.39-1.83-.75-.44-.39-.62-.91-.62-1.51,0-1.44,1.05-2.54,2.97-2.54,1.37,0,2.54,.3,3.54,1.26l1.58-1.55c-1.39-1.3-2.9-1.85-5.05-1.85-3.38,0-5.44,1.94-5.44,4.77,0,1.33,.39,2.35,1.19,3.11,.71,.66,1.76,1.12,3.09,1.3l1.92,.27c.96,.14,1.37,.3,1.78,.69,.44,.39,.64,.98,.64,1.69,0,1.58-1.23,2.49-3.36,2.49-1.67,0-2.97-.37-4.16-1.55l-1.64,1.62c1.55,1.58,3.31,2.15,5.76,2.15,3.41,0,5.85-1.78,5.85-4.77m-19.97,4.64v-7.4c0-1.3-.27-2.4-1.16-3.27-.69-.66-1.67-1.05-2.86-1.05s-2.29,.43-3.09,1.3v-1.16h-2.28v11.58h2.33v-7.06c0-1.78,1.1-2.58,2.4-2.58s2.33,.78,2.33,2.58v7.06h2.33Zm-13.25-16.34h-2.47v2.47h2.47v-2.47Zm-.07,4.75h-2.33v11.58h2.33v-11.58Zm-7.95,4.84h-5.21c.02-.71,.07-1.05,.3-1.58,.37-.87,1.21-1.46,2.31-1.46s1.92,.59,2.29,1.46c.23,.52,.3,.87,.32,1.58m2.31,1.62v-1.03c0-3.29-1.8-5.57-4.91-5.57s-4.91,2.17-4.91,5.92c0,4.41,2.31,5.94,5.21,5.94,2.04,0,3.15-.62,4.34-1.8l-1.48-1.4c-.82,.82-1.51,1.19-2.81,1.19-1.9,0-2.95-1.26-2.95-3.25h7.52Zm-13.05,5.12v-7.4c0-1.3-.34-2.4-1.23-3.27-.68-.66-1.73-1.05-2.93-1.05-1.53,0-2.7,.55-3.63,1.69-.73-1.12-1.85-1.69-3.29-1.69-1.17,0-2.31,.45-3.09,1.3v-1.16h-2.28v11.58h2.33v-7.06c0-1.78,1.1-2.58,2.4-2.58s2.33,.78,2.33,2.58v7.06h2.33v-7.18c0-1.67,1.14-2.47,2.4-2.47s2.33,.78,2.33,2.58v7.06h2.33Zm-24.18-17.96h-2.24l-6.51,19.65h2.24l6.51-19.65Zm-14.74,7.33c-.8-.8-1.65-1.09-2.76-1.09-1.3,0-2.49,.57-3.08,1.39v-1.25h-2.28v11.58h2.33v-7.04c0-1.6,1.05-2.61,2.31-2.61,.8,0,1.21,.25,1.74,.78l1.76-1.76Zm-13.75,3.89h-5.21c.02-.71,.07-1.05,.3-1.58,.37-.87,1.21-1.46,2.31-1.46s1.92,.59,2.29,1.46c.23,.52,.3,.87,.32,1.58m2.31,1.62v-1.03c0-3.29-1.8-5.57-4.91-5.57s-4.91,2.17-4.91,5.92c0,4.41,2.31,5.94,5.21,5.94,2.04,0,3.15-.62,4.34-1.8l-1.48-1.4c-.82,.82-1.51,1.19-2.81,1.19-1.9,0-2.95-1.26-2.95-3.25h7.52Zm-12.36,5.12v-1.98h-.96c-.87,0-1.28-.5-1.28-1.34v-6.24h2.24v-1.78h-2.24v-3.54h-2.33v3.54h-1.33v1.78h1.33v6.36c0,1.66,1,3.22,3.17,3.22h1.4Zm-8.66,0v-7.47c0-2.51-1.44-4.25-4.02-4.25-1.14,0-2.2,.43-2.99,1.3v-5.85h-2.33v16.27h2.33v-7.11c0-1.74,1.05-2.54,2.35-2.54s2.33,.78,2.33,2.54v7.11h2.33Zm-12.27-1.51l-1.6-1.53c-.73,.8-1.3,1.1-2.22,1.1s-1.65-.37-2.15-1.03c-.5-.64-.69-1.49-.69-2.83s.18-2.17,.69-2.81c.5-.66,1.26-1.03,2.15-1.03s1.49,.3,2.22,1.1l1.6-1.55c-1.1-1.16-2.22-1.62-3.82-1.62-2.61,0-5.16,1.57-5.16,5.92s2.56,5.94,5.16,5.94c1.6,0,2.72-.48,3.82-1.64m-14.1-4.3c0,1.26-.09,2.47-.8,3.18-.44,.43-1.03,.69-1.72,.69s-1.26-.25-1.69-.69c-.71-.71-.8-1.92-.8-3.18s.09-2.47,.8-3.18c.43-.44,1.01-.66,1.69-.66s1.28,.23,1.72,.66c.71,.71,.8,1.92,.8,3.18m2.33,0c0-1.94-.27-3.41-1.37-4.55-.75-.78-1.9-1.37-3.47-1.37s-2.7,.59-3.45,1.37c-1.09,1.14-1.37,2.61-1.37,4.55s.27,3.43,1.37,4.57c.76,.77,1.87,1.37,3.45,1.37s2.72-.59,3.47-1.37c1.1-1.14,1.37-2.61,1.37-4.57m-10.37-8.25v-2.22h-11.42v2.22h4.48v14.05h2.46v-14.05h4.48Zm-21.59,7.32h-5.21c.02-.71,.07-1.05,.3-1.58,.37-.87,1.21-1.46,2.31-1.46s1.92,.59,2.29,1.46c.23,.52,.3,.87,.32,1.58m2.31,1.62v-1.03c0-3.29-1.81-5.57-4.91-5.57s-4.91,2.17-4.91,5.92c0,4.41,2.3,5.94,5.21,5.94,2.03,0,3.15-.62,4.34-1.8l-1.49-1.4c-.82,.82-1.51,1.19-2.81,1.19-1.9,0-2.95-1.26-2.95-3.25h7.52Zm-13.05,5.12v-7.4c0-1.3-.27-2.4-1.16-3.27-.68-.66-1.67-1.05-2.86-1.05s-2.29,.43-3.09,1.3v-1.16h-2.28v11.58h2.33v-7.06c0-1.78,1.1-2.58,2.4-2.58s2.33,.78,2.33,2.58v7.06h2.33Zm-13.25-16.34h-2.47v2.47h2.47v-2.47Zm-.07,4.75h-2.33v11.58h2.33v-11.58Zm-7.95,4.84h-5.21c.02-.71,.07-1.05,.3-1.58,.37-.87,1.21-1.46,2.31-1.46s1.92,.59,2.29,1.46c.23,.52,.3,.87,.32,1.58m2.31,1.62v-1.03c0-3.29-1.8-5.57-4.91-5.57s-4.91,2.17-4.91,5.92c0,4.41,2.3,5.94,5.21,5.94,2.04,0,3.15-.62,4.34-1.8l-1.48-1.4c-.82,.82-1.51,1.19-2.81,1.19-1.9,0-2.95-1.26-2.95-3.25h7.52Zm-13.41,5.12v-16.27h-2.47l-4.66,10.12-4.76-10.12h-2.47v16.27h2.47v-10.88l3.84,7.93h1.83l3.75-7.93v10.88h2.47Z"/><path class="h" d="M231.3,348.05h-2.47v2.47h2.47v-2.47Zm-.07,4.75h-2.33v11.58h2.33v-11.58Zm-4.45,.96c-.8-.8-1.65-1.1-2.77-1.1-1.3,0-2.49,.57-3.08,1.39v-1.26h-2.28v11.58h2.33v-7.04c0-1.6,1.05-2.61,2.31-2.61,.8,0,1.21,.25,1.74,.78l1.76-1.76Zm-13.85,4.82c0,1.26-.09,2.47-.8,3.18-.43,.44-1.03,.69-1.71,.69s-1.26-.25-1.69-.69c-.71-.71-.8-1.92-.8-3.18s.09-2.47,.8-3.18c.44-.43,1.01-.66,1.69-.66s1.28,.23,1.71,.66c.71,.71,.8,1.92,.8,3.18m2.33,0c0-1.94-.27-3.41-1.37-4.55-.75-.77-1.9-1.37-3.47-1.37s-2.7,.59-3.45,1.37c-1.09,1.14-1.37,2.61-1.37,4.55s.27,3.43,1.37,4.57c.75,.78,1.87,1.37,3.45,1.37s2.72-.59,3.47-1.37c1.09-1.14,1.37-2.61,1.37-4.57m-12.25,5.8v-1.98h-.96c-.87,0-1.28-.5-1.28-1.34v-6.24h2.24v-1.78h-2.24v-3.54h-2.33v3.54h-1.33v1.78h1.33v6.36c0,1.66,1.01,3.21,3.17,3.21h1.4Zm-8.71-16.34h-2.47v2.47h2.47v-2.47Zm-.07,4.75h-2.33v11.58h2.33v-11.58Zm-6.15,11.58v-7.4c0-1.3-.27-2.4-1.16-3.26-.69-.66-1.67-1.05-2.86-1.05s-2.29,.43-3.09,1.3v-1.16h-2.28v11.58h2.33v-7.06c0-1.78,1.1-2.59,2.4-2.59s2.33,.78,2.33,2.58v7.06h2.33Zm-15.02-6.74h-5.21c.02-.71,.07-1.05,.3-1.58,.37-.87,1.21-1.46,2.31-1.46s1.92,.59,2.29,1.46c.23,.53,.3,.87,.32,1.58m2.31,1.62v-1.03c0-3.29-1.81-5.58-4.91-5.58s-4.91,2.17-4.91,5.92c0,4.41,2.3,5.94,5.21,5.94,2.03,0,3.15-.62,4.34-1.8l-1.49-1.4c-.82,.83-1.51,1.19-2.81,1.19-1.9,0-2.95-1.26-2.95-3.25h7.52Zm-15.49-.89c0,1.83-.25,3.63-2.35,3.63s-2.38-1.81-2.38-3.63,.27-3.64,2.38-3.64,2.35,1.81,2.35,3.64m2.33,5.94v-11.52h-2.26v1.23c-.87-1.05-1.8-1.37-3.04-1.37-1.17,0-2.15,.37-2.79,1.01-1.12,1.12-1.3,2.74-1.3,4.71s.18,3.59,1.3,4.71c.64,.64,1.6,1.03,2.77,1.03s2.15-.32,2.99-1.33v1.48c0,1.56-.76,2.95-2.72,2.95-1.14,0-1.78-.34-2.51-1.03l-1.48,1.48c1.21,1.12,2.33,1.53,4.09,1.53,3.09,0,4.96-2.05,4.96-4.89m-18.42-16.27h-2.47v2.47h2.47v-2.47Zm-.07,4.75h-2.33v11.58h2.33v-11.58Zm-7.95,4.84h-5.21c.02-.71,.07-1.05,.3-1.58,.37-.87,1.21-1.46,2.31-1.46s1.92,.59,2.29,1.46c.23,.53,.3,.87,.32,1.58m2.31,1.62v-1.03c0-3.29-1.8-5.58-4.91-5.58s-4.91,2.17-4.91,5.92c0,4.41,2.31,5.94,5.21,5.94,2.04,0,3.15-.62,4.34-1.8l-1.48-1.4c-.82,.83-1.51,1.19-2.81,1.19-1.9,0-2.95-1.26-2.95-3.25h7.52Zm-15.49-.69c0,2.06-.3,3.86-2.4,3.86s-2.42-1.81-2.42-3.86,.32-3.84,2.42-3.84,2.4,1.78,2.4,3.84m2.33,5.8v-16.27h-2.33v5.85c-.84-1-1.81-1.3-3.04-1.3-1.17,0-2.17,.39-2.81,1.03-1.16,1.16-1.3,3.13-1.3,4.89s.14,3.75,1.3,4.91c.64,.64,1.67,1.03,2.83,1.03,1.26,0,2.19-.32,3.06-1.37v1.23h2.28Zm-20.79-4.18c0,.83-.16,1.37-.5,1.72-.62,.6-1.28,.66-2.17,.66-1.46,0-2.13-.59-2.13-1.65s.71-1.67,2.08-1.67h2.72v.94Zm2.33,4.18v-7.75c0-2.63-1.6-3.98-4.77-3.98-1.92,0-3.06,.39-4.16,1.67l1.53,1.44c.64-.82,1.26-1.12,2.54-1.12,1.81,0,2.54,.71,2.54,2.17v.82h-3.06c-2.65,0-4,1.39-4,3.34,0,.98,.32,1.87,.91,2.49,.71,.71,1.67,1.05,3.11,1.05s2.24-.34,3.09-1.19v1.05h2.28Zm-12.34,0v-7.4c0-1.3-.34-2.4-1.23-3.26-.69-.66-1.74-1.05-2.93-1.05-1.53,0-2.7,.55-3.63,1.69-.73-1.12-1.85-1.69-3.29-1.69-1.17,0-2.31,.46-3.09,1.3v-1.16h-2.28v11.58h2.33v-7.06c0-1.78,1.1-2.59,2.4-2.59s2.33,.78,2.33,2.58v7.06h2.33v-7.18c0-1.67,1.14-2.47,2.4-2.47s2.33,.78,2.33,2.58v7.06h2.33Zm-18.58-10.62c-.8-.8-1.65-1.1-2.77-1.1-1.3,0-2.49,.57-3.08,1.39v-1.26h-2.28v11.58h2.33v-7.04c0-1.6,1.05-2.61,2.31-2.61,.8,0,1.21,.25,1.74,.78l1.76-1.76Zm-12-5.71h-2.47v2.47h2.47v-2.47Zm-.07,4.75h-2.33v11.58h2.33v-11.58Zm-5.26-2.47v-2.21h-10.39v16.27h2.46v-6.88h6.76v-2.21h-6.76v-4.96h7.93Z"/><path class="h" d="M230.07,282.22h-2.79v2.79h2.79v-2.79Zm-8.86-1.4c0,.83-.16,1.37-.5,1.72-.62,.6-1.28,.66-2.17,.66-1.46,0-2.13-.59-2.13-1.65s.71-1.67,2.08-1.67h2.72v.94Zm2.33,4.18v-7.74c0-2.63-1.6-3.98-4.77-3.98-1.92,0-3.06,.39-4.16,1.67l1.53,1.44c.64-.82,1.26-1.12,2.54-1.12,1.81,0,2.54,.71,2.54,2.17v.82h-3.06c-2.65,0-4,1.39-4,3.34,0,.98,.32,1.87,.91,2.49,.71,.71,1.67,1.05,3.11,1.05s2.24-.34,3.09-1.19v1.05h2.28Zm-16.25-17.96h-2.24l-6.51,19.65h2.24l6.51-19.65Zm-18.33,12.16c0,1.26-.09,2.47-.8,3.18-.43,.44-1.03,.69-1.72,.69s-1.26-.25-1.69-.69c-.71-.71-.8-1.92-.8-3.18s.09-2.47,.8-3.18c.43-.44,1.01-.66,1.69-.66s1.28,.23,1.72,.66c.71,.71,.8,1.92,.8,3.18m2.33,0c0-1.94-.27-3.41-1.37-4.55-.75-.77-1.9-1.37-3.47-1.37s-2.7,.59-3.45,1.37c-1.1,1.14-1.37,2.61-1.37,4.55s.27,3.43,1.37,4.57c.75,.78,1.87,1.37,3.45,1.37s2.72-.59,3.47-1.37c1.1-1.14,1.37-2.61,1.37-4.57m-12.25,5.8v-1.98h-.96c-.87,0-1.28-.5-1.28-1.34v-6.24h2.24v-1.78h-2.24v-3.54h-2.33v3.54h-1.33v1.78h1.33v6.36c0,1.66,1,3.22,3.17,3.22h1.4Zm-10.99-4.18c0,.83-.16,1.37-.5,1.72-.62,.6-1.28,.66-2.17,.66-1.46,0-2.13-.59-2.13-1.65s.71-1.67,2.08-1.67h2.72v.94Zm2.33,4.18v-7.74c0-2.63-1.6-3.98-4.77-3.98-1.92,0-3.06,.39-4.16,1.67l1.53,1.44c.64-.82,1.26-1.12,2.54-1.12,1.81,0,2.54,.71,2.54,2.17v.82h-3.06c-2.65,0-4,1.39-4,3.34,0,.98,.32,1.87,.91,2.49,.71,.71,1.67,1.05,3.11,1.05s2.24-.34,3.09-1.19v1.05h2.28Zm-11.31,0v-1.98h-1.03c-.94,0-1.26-.46-1.26-1.35v-12.93h-2.33v13.07c0,1.71,.96,3.19,3.17,3.19h1.44Zm-10.69-4.18c0,.83-.16,1.37-.5,1.72-.62,.6-1.28,.66-2.17,.66-1.46,0-2.13-.59-2.13-1.65s.71-1.67,2.08-1.67h2.72v.94Zm2.33,4.18v-7.74c0-2.63-1.6-3.98-4.77-3.98-1.92,0-3.06,.39-4.16,1.67l1.53,1.44c.64-.82,1.26-1.12,2.54-1.12,1.81,0,2.54,.71,2.54,2.17v.82h-3.06c-2.65,0-4,1.39-4,3.34,0,.98,.32,1.87,.91,2.49,.71,.71,1.67,1.05,3.11,1.05s2.24-.34,3.09-1.19v1.05h2.28Zm-12.34,0v-7.4c0-1.3-.34-2.4-1.23-3.27-.68-.66-1.73-1.05-2.92-1.05-1.53,0-2.7,.55-3.63,1.69-.73-1.12-1.85-1.69-3.29-1.69-1.17,0-2.31,.46-3.09,1.3v-1.16h-2.28v11.58h2.33v-7.06c0-1.78,1.1-2.59,2.4-2.59s2.33,.78,2.33,2.58v7.06h2.33v-7.18c0-1.67,1.15-2.47,2.4-2.47s2.33,.78,2.33,2.58v7.06h2.33Zm-27.22-17.39h-2.58l-1.72,3.7h1.76l2.54-3.7Zm-.57,10.65h-5.21c.02-.71,.07-1.05,.3-1.58,.37-.87,1.21-1.46,2.31-1.46s1.92,.6,2.29,1.46c.23,.53,.3,.87,.32,1.58m2.31,1.62v-1.02c0-3.29-1.81-5.58-4.91-5.58s-4.91,2.17-4.91,5.92c0,4.41,2.3,5.94,5.21,5.94,2.03,0,3.15-.62,4.34-1.8l-1.49-1.4c-.82,.82-1.51,1.19-2.81,1.19-1.9,0-2.95-1.26-2.95-3.25h7.52Zm-13.05,5.12v-7.47c0-2.51-1.44-4.25-4.02-4.25-1.14,0-2.2,.43-2.99,1.3v-5.85h-2.33v16.27h2.33v-7.11c0-1.74,1.05-2.54,2.35-2.54s2.33,.78,2.33,2.54v7.11h2.33Zm-12.27-1.51l-1.6-1.53c-.73,.8-1.3,1.1-2.22,1.1s-1.65-.37-2.15-1.03c-.5-.64-.69-1.48-.69-2.83s.18-2.17,.69-2.81c.5-.66,1.26-1.03,2.15-1.03s1.49,.3,2.22,1.1l1.6-1.55c-1.1-1.16-2.22-1.62-3.82-1.62-2.61,0-5.16,1.58-5.16,5.92s2.56,5.94,5.16,5.94c1.6,0,2.72-.48,3.82-1.64m-12.25-14.83h-2.47v2.47h2.47v-2.47Zm-.07,4.75h-2.33v11.58h2.33v-11.58Zm-8.04,5.78c0,1.26-.09,2.47-.8,3.18-.44,.44-1.03,.69-1.72,.69s-1.26-.25-1.69-.69c-.71-.71-.8-1.92-.8-3.18s.09-2.47,.8-3.18c.43-.44,1.01-.66,1.69-.66s1.28,.23,1.72,.66c.71,.71,.8,1.92,.8,3.18m2.33,0c0-1.94-.27-3.41-1.37-4.55-.75-.77-1.9-1.37-3.47-1.37s-2.7,.59-3.45,1.37c-1.09,1.14-1.37,2.61-1.37,4.55s.27,3.43,1.37,4.57c.76,.78,1.87,1.37,3.45,1.37s2.72-.59,3.47-1.37c1.1-1.14,1.37-2.61,1.37-4.57m-14.83,0c0,2.06-.3,3.86-2.4,3.86s-2.42-1.81-2.42-3.86,.32-3.84,2.42-3.84,2.4,1.78,2.4,3.84m2.33,0c0-1.76-.14-3.73-1.3-4.89-.64-.64-1.67-1.03-2.83-1.03-1.26,0-2.19,.32-3.06,1.37v-1.23h-2.28v16.27h2.33v-5.87c.85,1.01,1.81,1.32,3.04,1.32,1.17,0,2.17-.39,2.81-1.03,1.16-1.16,1.3-3.15,1.3-4.91"/><path class="h" d="M313.64,199.82c0,1.26-.09,2.47-.8,3.18-.44,.44-1.03,.69-1.72,.69s-1.26-.25-1.69-.69c-.71-.71-.8-1.92-.8-3.18s.09-2.47,.8-3.18c.43-.44,1.01-.66,1.69-.66s1.28,.23,1.72,.66c.71,.71,.8,1.92,.8,3.18m2.33,0c0-1.94-.27-3.41-1.37-4.55-.75-.78-1.9-1.37-3.47-1.37s-2.7,.59-3.45,1.37c-1.09,1.14-1.37,2.61-1.37,4.55s.27,3.43,1.37,4.57c.76,.77,1.87,1.37,3.45,1.37s2.72-.59,3.47-1.37c1.1-1.14,1.37-2.61,1.37-4.57m-12.93,5.8v-7.4c0-1.3-.27-2.4-1.16-3.27-.69-.66-1.67-1.05-2.86-1.05s-2.29,.43-3.09,1.3v-1.16h-2.28v11.58h2.33v-7.06c0-1.78,1.1-2.58,2.4-2.58s2.33,.78,2.33,2.58v7.06h2.33Zm-11.52-10.63c-.8-.8-1.65-1.09-2.77-1.09-1.3,0-2.49,.57-3.08,1.39v-1.25h-2.28v11.58h2.33v-7.04c0-1.6,1.05-2.61,2.31-2.61,.8,0,1.21,.25,1.74,.78l1.76-1.76Zm-13.85,4.82c0,1.26-.09,2.47-.8,3.18-.43,.44-1.03,.69-1.72,.69s-1.26-.25-1.69-.69c-.71-.71-.8-1.92-.8-3.18s.09-2.47,.8-3.18c.43-.44,1.01-.66,1.69-.66s1.28,.23,1.72,.66c.71,.71,.8,1.92,.8,3.18m2.33,0c0-1.94-.27-3.41-1.37-4.55-.75-.78-1.9-1.37-3.47-1.37s-2.7,.59-3.45,1.37c-1.1,1.14-1.37,2.61-1.37,4.55s.27,3.43,1.37,4.57c.75,.77,1.87,1.37,3.45,1.37s2.72-.59,3.47-1.37c1.1-1.14,1.37-2.61,1.37-4.57m-12.98-10.53h-2.47v2.47h2.47v-2.47Zm-.07,4.75h-2.33v11.58h2.33v-11.58Zm-8.59,5.57c0,1.83-.25,3.63-2.35,3.63s-2.38-1.81-2.38-3.63,.27-3.63,2.38-3.63,2.35,1.81,2.35,3.63m2.33,5.94v-11.51h-2.26v1.23c-.87-1.05-1.81-1.37-3.04-1.37-1.17,0-2.15,.36-2.79,1-1.12,1.12-1.3,2.74-1.3,4.71s.18,3.59,1.3,4.71c.64,.64,1.6,1.03,2.76,1.03s2.15-.32,2.99-1.32v1.48c0,1.56-.75,2.95-2.72,2.95-1.14,0-1.78-.34-2.51-1.03l-1.48,1.49c1.21,1.12,2.33,1.53,4.09,1.53,3.09,0,4.96-2.05,4.96-4.89m-17.34,.07v-1.98h-1.03c-.94,0-1.26-.46-1.26-1.35v-12.93h-2.33v13.07c0,1.71,.96,3.2,3.17,3.2h1.44Zm-10.69-4.18c0,.82-.16,1.37-.5,1.72-.62,.59-1.28,.66-2.17,.66-1.46,0-2.13-.6-2.13-1.65s.71-1.67,2.08-1.67h2.72v.94Zm2.33,4.18v-7.75c0-2.63-1.6-3.97-4.77-3.97-1.92,0-3.06,.39-4.16,1.66l1.53,1.44c.64-.82,1.26-1.12,2.54-1.12,1.81,0,2.54,.71,2.54,2.17v.83h-3.06c-2.65,0-4,1.39-4,3.33,0,.98,.32,1.87,.91,2.49,.71,.71,1.67,1.05,3.11,1.05s2.24-.34,3.09-1.19v1.05h2.28Z"/><path class="h" d="M925.56,120.44c0,1.26-.09,2.47-.8,3.18-.44,.43-1.03,.69-1.72,.69s-1.26-.25-1.69-.69c-.71-.71-.8-1.92-.8-3.18s.09-2.47,.8-3.18c.44-.44,1.01-.66,1.69-.66s1.28,.23,1.72,.66c.71,.71,.8,1.92,.8,3.18m2.33,0c0-1.94-.27-3.41-1.37-4.55-.75-.78-1.9-1.37-3.47-1.37s-2.7,.59-3.45,1.37c-1.09,1.14-1.37,2.61-1.37,4.55s.27,3.43,1.37,4.57c.75,.77,1.87,1.37,3.45,1.37s2.72-.59,3.47-1.37c1.09-1.14,1.37-2.61,1.37-4.57m-12.93,5.8v-7.4c0-1.3-.27-2.4-1.16-3.27-.68-.66-1.67-1.05-2.86-1.05s-2.29,.43-3.09,1.3v-1.16h-2.28v11.58h2.33v-7.06c0-1.78,1.1-2.58,2.4-2.58s2.33,.78,2.33,2.58v7.06h2.33Zm-11.52-10.63c-.8-.8-1.65-1.09-2.76-1.09-1.3,0-2.49,.57-3.09,1.39v-1.25h-2.28v11.58h2.33v-7.04c0-1.6,1.05-2.61,2.31-2.61,.8,0,1.21,.25,1.74,.78l1.76-1.76Zm-13.85,4.82c0,1.26-.09,2.47-.8,3.18-.44,.43-1.03,.69-1.72,.69s-1.26-.25-1.69-.69c-.71-.71-.8-1.92-.8-3.18s.09-2.47,.8-3.18c.44-.44,1.01-.66,1.69-.66s1.28,.23,1.72,.66c.71,.71,.8,1.92,.8,3.18m2.33,0c0-1.94-.27-3.41-1.37-4.55-.75-.78-1.9-1.37-3.47-1.37s-2.7,.59-3.45,1.37c-1.09,1.14-1.37,2.61-1.37,4.55s.27,3.43,1.37,4.57c.75,.77,1.87,1.37,3.45,1.37s2.72-.59,3.47-1.37c1.09-1.14,1.37-2.61,1.37-4.57m-12.98-10.53h-2.47v2.47h2.47v-2.47Zm-.07,4.75h-2.33v11.58h2.33v-11.58Zm-8.59,5.57c0,1.83-.25,3.63-2.35,3.63s-2.38-1.81-2.38-3.63,.28-3.63,2.38-3.63,2.35,1.81,2.35,3.63m2.33,5.94v-11.52h-2.26v1.23c-.87-1.05-1.81-1.37-3.04-1.37-1.16,0-2.15,.36-2.79,1-1.12,1.12-1.3,2.74-1.3,4.71s.18,3.59,1.3,4.71c.64,.64,1.6,1.03,2.76,1.03s2.15-.32,2.99-1.32v1.48c0,1.55-.76,2.95-2.72,2.95-1.14,0-1.78-.34-2.51-1.03l-1.48,1.49c1.21,1.12,2.33,1.53,4.09,1.53,3.09,0,4.96-2.05,4.96-4.89m-17.34,.07v-1.98h-1.03c-.94,0-1.26-.46-1.26-1.35v-12.93h-2.33v13.07c0,1.71,.96,3.2,3.17,3.2h1.44Zm-10.69-4.18c0,.82-.16,1.37-.5,1.72-.62,.59-1.28,.66-2.17,.66-1.46,0-2.13-.6-2.13-1.65s.71-1.67,2.08-1.67h2.72v.94Zm2.33,4.18v-7.75c0-2.63-1.6-3.97-4.77-3.97-1.92,0-3.06,.39-4.16,1.66l1.53,1.44c.64-.82,1.26-1.12,2.54-1.12,1.81,0,2.54,.71,2.54,2.17v.83h-3.06c-2.65,0-4,1.39-4,3.33,0,.98,.32,1.88,.91,2.49,.71,.71,1.67,1.05,3.11,1.05s2.24-.34,3.09-1.19v1.05h2.28Zm-14.78-5.8c0,2.06-.3,3.86-2.4,3.86s-2.42-1.81-2.42-3.86,.32-3.84,2.42-3.84,2.4,1.78,2.4,3.84m2.33,5.8v-16.27h-2.33v5.85c-.84-1-1.81-1.3-3.04-1.3-1.17,0-2.17,.39-2.81,1.03-1.16,1.16-1.3,3.13-1.3,4.89s.14,3.75,1.3,4.91c.64,.64,1.67,1.03,2.83,1.03,1.26,0,2.19-.32,3.06-1.37v1.23h2.28Zm-20.27-6.74h-5.21c.02-.71,.07-1.05,.3-1.58,.36-.87,1.21-1.46,2.31-1.46s1.92,.59,2.29,1.46c.23,.52,.3,.87,.32,1.58m2.31,1.62v-1.03c0-3.29-1.8-5.57-4.91-5.57s-4.91,2.17-4.91,5.92c0,4.41,2.3,5.94,5.21,5.94,2.04,0,3.15-.62,4.34-1.8l-1.49-1.4c-.82,.82-1.51,1.19-2.81,1.19-1.9,0-2.95-1.26-2.95-3.25h7.52Zm-12.36,5.12v-1.98h-.96c-.87,0-1.28-.5-1.28-1.34v-6.25h2.24v-1.78h-2.24v-3.54h-2.33v3.54h-1.33v1.78h1.33v6.36c0,1.66,1.01,3.22,3.17,3.22h1.4Zm-8.66,0v-7.4c0-1.3-.27-2.4-1.16-3.27-.69-.66-1.67-1.05-2.86-1.05s-2.29,.43-3.09,1.3v-1.16h-2.28v11.58h2.33v-7.06c0-1.78,1.1-2.58,2.4-2.58s2.33,.78,2.33,2.58v7.06h2.33Zm-15.02-6.74h-5.21c.02-.71,.07-1.05,.3-1.58,.37-.87,1.21-1.46,2.31-1.46s1.92,.59,2.29,1.46c.23,.52,.3,.87,.32,1.58m2.31,1.62v-1.03c0-3.29-1.81-5.57-4.91-5.57s-4.91,2.17-4.91,5.92c0,4.41,2.3,5.94,5.21,5.94,2.03,0,3.15-.62,4.34-1.8l-1.49-1.4c-.82,.82-1.51,1.19-2.81,1.19-1.9,0-2.95-1.26-2.95-3.25h7.52Zm-12.29,1.58c0-2.06-1.28-3.09-3.45-3.27l-1.83-.16c-1.23-.12-1.6-.64-1.6-1.33,0-.87,.71-1.49,2.1-1.49,1.1,0,2.12,.23,2.86,.85l1.46-1.49c-1.07-.94-2.56-1.3-4.3-1.3-2.42,0-4.36,1.28-4.36,3.54,0,2.04,1.26,3.02,3.43,3.2l1.85,.16c1.12,.09,1.55,.59,1.55,1.37,0,1.1-1.12,1.6-2.54,1.6-1.14,0-2.4-.25-3.34-1.21l-1.53,1.53c1.37,1.35,2.97,1.67,4.87,1.67,2.76,0,4.82-1.26,4.82-3.68m-11.49,0c0-2.06-1.28-3.09-3.45-3.27l-1.83-.16c-1.23-.12-1.6-.64-1.6-1.33,0-.87,.71-1.49,2.1-1.49,1.1,0,2.13,.23,2.86,.85l1.46-1.49c-1.08-.94-2.56-1.3-4.3-1.3-2.42,0-4.37,1.28-4.37,3.54,0,2.04,1.26,3.02,3.43,3.2l1.85,.16c1.12,.09,1.55,.59,1.55,1.37,0,1.1-1.12,1.6-2.54,1.6-1.14,0-2.4-.25-3.34-1.21l-1.53,1.53c1.37,1.35,2.97,1.67,4.87,1.67,2.77,0,4.82-1.26,4.82-3.68m-14.72-.64c0,.82-.16,1.37-.5,1.72-.62,.59-1.28,.66-2.17,.66-1.46,0-2.13-.6-2.13-1.65s.71-1.67,2.08-1.67h2.72v.94Zm2.33,4.18v-7.75c0-2.63-1.6-3.97-4.77-3.97-1.92,0-3.06,.39-4.16,1.66l1.53,1.44c.64-.82,1.26-1.12,2.54-1.12,1.81,0,2.54,.71,2.54,2.17v.83h-3.06c-2.65,0-4,1.39-4,3.33,0,.98,.32,1.88,.91,2.49,.71,.71,1.67,1.05,3.11,1.05s2.24-.34,3.09-1.19v1.05h2.28Zm-20.38-4.18c0,.82-.16,1.37-.51,1.72-.62,.59-1.28,.66-2.17,.66-1.46,0-2.13-.6-2.13-1.65s.71-1.67,2.08-1.67h2.72v.94Zm2.33,4.18v-7.75c0-2.63-1.6-3.97-4.77-3.97-1.92,0-3.06,.39-4.16,1.66l1.53,1.44c.64-.82,1.26-1.12,2.54-1.12,1.81,0,2.54,.71,2.54,2.17v.83h-3.06c-2.65,0-4,1.39-4,3.33,0,.98,.32,1.88,.91,2.49,.71,.71,1.66,1.05,3.11,1.05s2.24-.34,3.09-1.19v1.05h2.28Zm-16.24-17.96h-2.24l-6.51,19.65h2.24l6.51-19.65Zm-18.33,12.16c0,1.26-.09,2.47-.8,3.18-.44,.43-1.03,.69-1.72,.69s-1.26-.25-1.69-.69c-.71-.71-.8-1.92-.8-3.18s.09-2.47,.8-3.18c.44-.44,1.01-.66,1.69-.66s1.28,.23,1.72,.66c.71,.71,.8,1.92,.8,3.18m2.33,0c0-1.94-.27-3.41-1.37-4.55-.75-.78-1.9-1.37-3.47-1.37s-2.7,.59-3.45,1.37c-1.09,1.14-1.37,2.61-1.37,4.55s.27,3.43,1.37,4.57c.75,.77,1.87,1.37,3.45,1.37s2.72-.59,3.47-1.37c1.09-1.14,1.37-2.61,1.37-4.57m-12.25,5.8v-1.98h-.96c-.87,0-1.28-.5-1.28-1.34v-6.25h2.24v-1.78h-2.24v-3.54h-2.33v3.54h-1.33v1.78h1.33v6.36c0,1.66,1.01,3.22,3.18,3.22h1.39Zm-10.99-4.18c0,.82-.16,1.37-.5,1.72-.62,.59-1.28,.66-2.17,.66-1.46,0-2.13-.6-2.13-1.65s.71-1.67,2.08-1.67h2.72v.94Zm2.33,4.18v-7.75c0-2.63-1.6-3.97-4.77-3.97-1.92,0-3.06,.39-4.16,1.66l1.53,1.44c.64-.82,1.26-1.12,2.54-1.12,1.81,0,2.54,.71,2.54,2.17v.83h-3.06c-2.65,0-4,1.39-4,3.33,0,.98,.32,1.88,.91,2.49,.71,.71,1.67,1.05,3.11,1.05s2.24-.34,3.09-1.19v1.05h2.28Zm-11.65,0v-1.98h-.96c-.87,0-1.28-.5-1.28-1.34v-6.25h2.24v-1.78h-2.24v-3.54h-2.33v3.54h-1.33v1.78h1.33v6.36c0,1.66,1,3.22,3.17,3.22h1.4Zm-7.68-3.54c0-2.06-1.28-3.09-3.45-3.27l-1.83-.16c-1.23-.12-1.6-.64-1.6-1.33,0-.87,.71-1.49,2.1-1.49,1.1,0,2.12,.23,2.86,.85l1.46-1.49c-1.07-.94-2.56-1.3-4.3-1.3-2.42,0-4.36,1.28-4.36,3.54,0,2.04,1.26,3.02,3.43,3.2l1.85,.16c1.12,.09,1.55,.59,1.55,1.37,0,1.1-1.12,1.6-2.54,1.6-1.14,0-2.4-.25-3.34-1.21l-1.53,1.53c1.37,1.35,2.97,1.67,4.87,1.67,2.76,0,4.82-1.26,4.82-3.68m-21.25-10.15l-1.72-3.7h-2.58l2.54,3.7h1.76Zm1.34,6.95h-5.21c.02-.71,.07-1.05,.3-1.58,.37-.87,1.21-1.46,2.31-1.46s1.92,.59,2.29,1.46c.23,.52,.3,.87,.32,1.58m2.31,1.62v-1.03c0-3.29-1.81-5.57-4.91-5.57s-4.91,2.17-4.91,5.92c0,4.41,2.3,5.94,5.21,5.94,2.03,0,3.15-.62,4.34-1.8l-1.49-1.4c-.82,.82-1.51,1.19-2.81,1.19-1.9,0-2.95-1.26-2.95-3.25h7.52Zm-18.97,2.45v-10.92c0-.91-.07-1.8-.55-2.65-.45-.82-1.09-1.44-1.83-2.17l-1.6,1.6c.55,.55,.91,.87,1.26,1.51,.23,.43,.34,1.05,.34,1.85v10.65c0,.8-.11,1.42-.34,1.85-.34,.64-.71,.96-1.26,1.51l1.6,1.6c.73-.73,1.37-1.35,1.83-2.17,.48-.85,.55-1.74,.55-2.65m-9.16-3.13c0,1.26-.09,2.47-.8,3.18-.43,.43-1.03,.69-1.72,.69s-1.26-.25-1.69-.69c-.71-.71-.8-1.92-.8-3.18s.09-2.47,.8-3.18c.44-.44,1.01-.66,1.69-.66s1.28,.23,1.72,.66c.71,.71,.8,1.92,.8,3.18m2.33,0c0-1.94-.27-3.41-1.37-4.55-.76-.78-1.9-1.37-3.48-1.37s-2.7,.59-3.45,1.37c-1.1,1.14-1.37,2.61-1.37,4.55s.27,3.43,1.37,4.57c.75,.77,1.87,1.37,3.45,1.37s2.72-.59,3.48-1.37c1.09-1.14,1.37-2.61,1.37-4.57m-12.93,5.8v-7.4c0-1.3-.27-2.4-1.16-3.27-.69-.66-1.67-1.05-2.86-1.05s-2.29,.43-3.09,1.3v-1.16h-2.28v11.58h2.33v-7.06c0-1.78,1.1-2.58,2.4-2.58s2.33,.78,2.33,2.58v7.06h2.33Zm-13.25-16.34h-2.47v2.47h2.47v-2.47Zm-.07,4.75h-2.33v11.58h2.33v-11.58Zm-8.04,5.78c0,2.06-.3,3.86-2.4,3.86s-2.42-1.81-2.42-3.86,.32-3.84,2.42-3.84,2.4,1.78,2.4,3.84m2.33,0c0-1.76-.14-3.73-1.3-4.89-.64-.64-1.65-1.03-2.81-1.03-1.23,0-2.19,.3-3.04,1.3v-5.85h-2.33v16.27h2.28v-1.23c.87,1.05,1.81,1.37,3.06,1.37,1.17,0,2.19-.39,2.83-1.03,1.16-1.16,1.3-3.15,1.3-4.91m-13.3,5.8v-7.4c0-1.3-.34-2.4-1.23-3.27-.68-.66-1.73-1.05-2.93-1.05-1.53,0-2.7,.55-3.63,1.69-.73-1.12-1.85-1.69-3.29-1.69-1.17,0-2.31,.45-3.09,1.3v-1.16h-2.28v11.58h2.33v-7.06c0-1.78,1.1-2.58,2.4-2.58s2.33,.78,2.33,2.58v7.06h2.33v-7.18c0-1.67,1.14-2.47,2.4-2.47s2.33,.78,2.33,2.58v7.06h2.33Zm-22.6-4.18c0,.82-.16,1.37-.5,1.72-.62,.59-1.28,.66-2.17,.66-1.46,0-2.13-.6-2.13-1.65s.71-1.67,2.08-1.67h2.72v.94Zm2.33,4.18v-7.75c0-2.63-1.6-3.97-4.77-3.97-1.92,0-3.06,.39-4.16,1.66l1.53,1.44c.64-.82,1.26-1.12,2.54-1.12,1.81,0,2.54,.71,2.54,2.17v.83h-3.06c-2.65,0-4,1.39-4,3.33,0,.98,.32,1.88,.91,2.49,.71,.71,1.67,1.05,3.11,1.05s2.24-.34,3.09-1.19v1.05h2.28Zm-14.23-5.8c0,2.06-.3,3.86-2.4,3.86s-2.42-1.81-2.42-3.86,.32-3.84,2.42-3.84,2.4,1.78,2.4,3.84m2.33,0c0-1.76-.14-3.73-1.3-4.89-.64-.64-1.65-1.03-2.81-1.03-1.23,0-2.19,.3-3.04,1.3v-5.85h-2.33v16.27h2.28v-1.23c.87,1.05,1.81,1.37,3.06,1.37,1.17,0,2.19-.39,2.83-1.03,1.16-1.16,1.3-3.15,1.3-4.91m-17.99,5.8v-1.98h-1.03c-.94,0-1.26-.46-1.26-1.35v-12.93h-2.33v13.07c0,1.71,.96,3.2,3.18,3.2h1.44Zm-10.17-6.74h-5.21c.02-.71,.07-1.05,.3-1.58,.37-.87,1.21-1.46,2.31-1.46s1.92,.59,2.29,1.46c.23,.52,.3,.87,.32,1.58m2.31,1.62v-1.03c0-3.29-1.8-5.57-4.91-5.57s-4.91,2.17-4.91,5.92c0,4.41,2.3,5.94,5.21,5.94,2.04,0,3.15-.62,4.34-1.8l-1.48-1.4c-.82,.82-1.51,1.19-2.81,1.19-1.9,0-2.95-1.26-2.95-3.25h7.52Zm-15.49-.68c0,2.06-.3,3.86-2.4,3.86s-2.42-1.81-2.42-3.86,.32-3.84,2.42-3.84,2.4,1.78,2.4,3.84m2.33,5.8v-16.27h-2.33v5.85c-.85-1-1.81-1.3-3.04-1.3-1.16,0-2.17,.39-2.81,1.03-1.16,1.16-1.3,3.13-1.3,4.89s.14,3.75,1.3,4.91c.64,.64,1.67,1.03,2.83,1.03,1.26,0,2.2-.32,3.06-1.37v1.23h2.28Zm-20.27-6.74h-5.21c.02-.71,.07-1.05,.3-1.58,.37-.87,1.21-1.46,2.31-1.46s1.92,.59,2.29,1.46c.23,.52,.3,.87,.32,1.58m2.31,1.62v-1.03c0-3.29-1.81-5.57-4.91-5.57s-4.91,2.17-4.91,5.92c0,4.41,2.3,5.94,5.21,5.94,2.03,0,3.15-.62,4.34-1.8l-1.49-1.4c-.82,.82-1.51,1.19-2.81,1.19-1.9,0-2.95-1.26-2.95-3.25h7.52Zm-13.05,5.12v-7.4c0-1.3-.34-2.4-1.23-3.27-.69-.66-1.74-1.05-2.93-1.05-1.53,0-2.7,.55-3.63,1.69-.73-1.12-1.85-1.69-3.29-1.69-1.17,0-2.31,.45-3.09,1.3v-1.16h-2.28v11.58h2.33v-7.06c0-1.78,1.1-2.58,2.4-2.58s2.33,.78,2.33,2.58v7.06h2.33v-7.18c0-1.67,1.14-2.47,2.4-2.47s2.33,.78,2.33,2.58v7.06h2.33Zm-22.16-5.8c0,1.26-.09,2.47-.8,3.18-.44,.43-1.03,.69-1.72,.69s-1.26-.25-1.69-.69c-.71-.71-.8-1.92-.8-3.18s.09-2.47,.8-3.18c.43-.44,1.01-.66,1.69-.66s1.28,.23,1.72,.66c.71,.71,.8,1.92,.8,3.18m2.33,0c0-1.94-.27-3.41-1.37-4.55-.75-.78-1.9-1.37-3.47-1.37s-2.7,.59-3.45,1.37c-1.09,1.14-1.37,2.61-1.37,4.55s.27,3.43,1.37,4.57c.75,.77,1.87,1.37,3.45,1.37s2.72-.59,3.47-1.37c1.1-1.14,1.37-2.61,1.37-4.57m-12.93,5.8v-7.4c0-1.3-.27-2.4-1.16-3.27-.69-.66-1.67-1.05-2.86-1.05s-2.29,.43-3.09,1.3v-1.16h-2.28v11.58h2.33v-7.06c0-1.78,1.1-2.58,2.4-2.58s2.33,.78,2.33,2.58v7.06h2.33Zm-12.79,.57c-.55-.55-.94-.87-1.28-1.51-.23-.44-.34-1.05-.34-1.87v-10.65c0-.82,.12-1.44,.34-1.87,.34-.64,.73-.96,1.28-1.51l-1.58-1.58c-.73,.73-1.39,1.35-1.85,2.17-.48,.84-.53,1.73-.53,2.65v10.92c0,.91,.05,1.8,.53,2.65,.45,.82,1.12,1.44,1.85,2.17l1.58-1.58Zm-164.46-4.75c0,.82-.16,1.37-.5,1.72-.62,.59-1.28,.66-2.17,.66-1.46,0-2.13-.6-2.13-1.65s.71-1.67,2.08-1.67h2.72v.94Zm2.33,4.18v-7.75c0-2.63-1.6-3.97-4.77-3.97-1.92,0-3.06,.39-4.16,1.66l1.53,1.44c.64-.82,1.26-1.12,2.54-1.12,1.81,0,2.54,.71,2.54,2.17v.83h-3.06c-2.65,0-4,1.39-4,3.33,0,.98,.32,1.88,.91,2.49,.71,.71,1.67,1.05,3.11,1.05s2.24-.34,3.09-1.19v1.05h2.28Zm-12.39-16.34h-2.47v2.47h2.47v-2.47Zm-.07,4.75h-2.33v11.58h2.33v-11.58Zm-5.12,11.58v-1.98h-1.03c-.94,0-1.26-.46-1.26-1.35v-12.93h-2.33v13.07c0,1.71,.96,3.2,3.18,3.2h1.44Zm-10.81-6.01c0,1.83-.25,3.63-2.35,3.63s-2.38-1.81-2.38-3.63,.27-3.63,2.38-3.63,2.35,1.81,2.35,3.63m2.33,5.94v-11.52h-2.26v1.23c-.87-1.05-1.8-1.37-3.04-1.37-1.17,0-2.15,.36-2.79,1-1.12,1.12-1.3,2.74-1.3,4.71s.18,3.59,1.3,4.71c.64,.64,1.6,1.03,2.77,1.03s2.15-.32,2.99-1.32v1.48c0,1.55-.76,2.95-2.72,2.95-1.14,0-1.78-.34-2.51-1.03l-1.48,1.49c1.21,1.12,2.33,1.53,4.09,1.53,3.09,0,4.96-2.05,4.96-4.89m-12.71-16.27h-2.47v2.47h2.47v-2.47Zm-.07,4.75h-2.33v11.58h2.33v-11.58Zm-5.05,2.01v-1.78h-2.31v-1.68c0-.85,.41-1.36,1.28-1.36h1.03v-1.98h-1.46c-2.17,0-3.17,1.55-3.17,3.23v1.8h-1.33v1.78h1.33v9.58h2.33v-9.58h2.31Zm-16.86,5.4c0,.82-.16,1.37-.5,1.72-.62,.59-1.28,.66-2.17,.66-1.46,0-2.13-.6-2.13-1.65s.71-1.67,2.08-1.67h2.72v.94Zm2.33,4.18v-7.75c0-2.63-1.6-3.97-4.77-3.97-1.92,0-3.06,.39-4.16,1.66l1.53,1.44c.64-.82,1.26-1.12,2.54-1.12,1.81,0,2.54,.71,2.54,2.17v.83h-3.06c-2.65,0-4,1.39-4,3.33,0,.98,.32,1.88,.91,2.49,.71,.71,1.67,1.05,3.11,1.05s2.24-.34,3.09-1.19v1.05h2.28Zm-12.39-16.34h-2.47v2.47h2.47v-2.47Zm-.07,4.75h-2.33v11.58h2.33v-11.58Zm-6.15,11.58v-7.4c0-1.3-.34-2.4-1.23-3.27-.69-.66-1.74-1.05-2.93-1.05-1.53,0-2.7,.55-3.63,1.69-.73-1.12-1.85-1.69-3.29-1.69-1.17,0-2.31,.45-3.09,1.3v-1.16h-2.28v11.58h2.33v-7.06c0-1.78,1.1-2.58,2.4-2.58s2.33,.78,2.33,2.58v7.06h2.33v-7.18c0-1.67,1.14-2.47,2.4-2.47s2.33,.78,2.33,2.58v7.06h2.33Zm-24.18-17.96h-2.24l-6.51,19.65h2.24l6.51-19.65Zm-18.33,12.16c0,1.26-.09,2.47-.8,3.18-.43,.43-1.03,.69-1.72,.69s-1.26-.25-1.69-.69c-.71-.71-.8-1.92-.8-3.18s.09-2.47,.8-3.18c.43-.44,1.01-.66,1.69-.66s1.28,.23,1.72,.66c.71,.71,.8,1.92,.8,3.18m2.33,0c0-1.94-.27-3.41-1.37-4.55-.75-.78-1.9-1.37-3.47-1.37s-2.7,.59-3.45,1.37c-1.1,1.14-1.37,2.61-1.37,4.55s.27,3.43,1.37,4.57c.75,.77,1.87,1.37,3.45,1.37s2.72-.59,3.47-1.37c1.1-1.14,1.37-2.61,1.37-4.57m-12.98-10.53h-2.47v2.47h2.47v-2.47Zm-.07,4.75h-2.33v11.58h2.33v-11.58Zm-5.12,11.58v-1.98h-1.03c-.94,0-1.26-.46-1.26-1.35v-12.93h-2.33v13.07c0,1.71,.96,3.2,3.17,3.2h1.44Zm-10.81-6.01c0,1.83-.25,3.63-2.35,3.63s-2.38-1.81-2.38-3.63,.27-3.63,2.38-3.63,2.35,1.81,2.35,3.63m2.33,5.94v-11.52h-2.26v1.23c-.87-1.05-1.81-1.37-3.04-1.37-1.16,0-2.15,.36-2.79,1-1.12,1.12-1.3,2.74-1.3,4.71s.18,3.59,1.3,4.71c.64,.64,1.6,1.03,2.77,1.03s2.15-.32,2.99-1.32v1.48c0,1.55-.76,2.95-2.72,2.95-1.14,0-1.78-.34-2.51-1.03l-1.48,1.49c1.21,1.12,2.33,1.53,4.09,1.53,3.09,0,4.96-2.05,4.96-4.89m-12.71-16.27h-2.47v2.47h2.47v-2.47Zm-.07,4.75h-2.33v11.58h2.33v-11.58Zm-5.05,2.01v-1.78h-2.31v-1.68c0-.85,.41-1.36,1.28-1.36h1.03v-1.98h-1.46c-2.17,0-3.17,1.55-3.17,3.23v1.8h-1.33v1.78h1.33v9.58h2.33v-9.58h2.31Zm-16.43,3.77c0,1.26-.09,2.47-.8,3.18-.43,.43-1.03,.69-1.72,.69s-1.26-.25-1.69-.69c-.71-.71-.8-1.92-.8-3.18s.09-2.47,.8-3.18c.44-.44,1.01-.66,1.69-.66s1.28,.23,1.72,.66c.71,.71,.8,1.92,.8,3.18m2.33,0c0-1.94-.27-3.41-1.37-4.55-.76-.78-1.9-1.37-3.48-1.37s-2.7,.59-3.45,1.37c-1.1,1.14-1.37,2.61-1.37,4.55s.27,3.43,1.37,4.57c.75,.77,1.87,1.37,3.45,1.37s2.72-.59,3.48-1.37c1.09-1.14,1.37-2.61,1.37-4.57m-12.98-10.53h-2.47v2.47h2.47v-2.47Zm-.07,4.75h-2.33v11.58h2.33v-11.58Zm-6.51,11.58v-16.27h-2.47l-4.66,10.12-4.76-10.12h-2.47v16.27h2.47v-10.88l3.84,7.93h1.83l3.75-7.93v10.88h2.47Z"/></g></svg>