<?xml version="1.0" encoding="utf-8"?>
<!-- Generator: Adobe Illustrator 26.2.1, SVG Export Plug-In . SVG Version: 6.00 Build 0)  -->
<svg version="1.1" id="Ebene_1" xmlns="http://www.w3.org/2000/svg" xmlns:xlink="http://www.w3.org/1999/xlink" x="0px" y="0px"
	 viewBox="0 0 1000 467.62" style="enable-background:new 0 0 1000 467.62;" xml:space="preserve">
<style type="text/css">
	.st0{fill:#E59C00;}
	.st1{fill:#2B2961;}
	.st2{clip-path:url(#SVGID_00000040572819297309682700000011024976972647461281_);}
	.st3{clip-path:url(#SVGID_00000078757203865752410680000010381937724954120592_);}
	.st4{clip-path:url(#SVGID_00000170245738178334271240000009784357664418550462_);}
	.st5{clip-path:url(#SVGID_00000181802114104496782120000011391823851863974078_);}
	.st6{fill:#FFFFFF;}
	.st7{clip-path:url(#SVGID_00000086660135899012469050000009308263925647843483_);}
	.st8{clip-path:url(#SVGID_00000098910153552738010950000005923672666853480871_);}
	.st9{clip-path:url(#SVGID_00000061449870853211612140000012980283099993120389_);}
	.st10{clip-path:url(#SVGID_00000156587198993902356650000012826540757055250869_);}
	.st11{clip-path:url(#SVGID_00000003818765530194615170000006382462245908336787_);}
	.st12{clip-path:url(#SVGID_00000101074291545488969290000009990467267270110637_);}
	.st13{clip-path:url(#SVGID_00000029019665783543806340000015232199337882230972_);}
	.st14{clip-path:url(#SVGID_00000071547250246086448460000009026074272798597014_);}
	.st15{clip-path:url(#SVGID_00000064335359798031432200000007456376351719981235_);}
	.st16{clip-path:url(#SVGID_00000037662565999003790580000015004488530856603780_);}
	.st17{clip-path:url(#SVGID_00000049940541492103672720000005914896563979892371_);}
	.st18{clip-path:url(#SVGID_00000180331146469404251110000011049072136246661791_);}
	.st19{clip-path:url(#SVGID_00000141452740623098358920000006111776683144620174_);}
	.st20{clip-path:url(#SVGID_00000101081043405291643820000006415944488967378879_);}
	.st21{clip-path:url(#SVGID_00000111154573530524105330000018077305850903478951_);}
	.st22{clip-path:url(#SVGID_00000145036940899030917960000001996869858985103545_);}
	.st23{clip-path:url(#SVGID_00000015338722721398308500000009420736146461753511_);}
	.st24{clip-path:url(#SVGID_00000049938402731888759210000003367274187266382490_);}
	.st25{clip-path:url(#SVGID_00000130613551103815682170000009381168343801170335_);}
	.st26{clip-path:url(#SVGID_00000031198817451241935550000009940584337745234050_);}
	.st27{clip-path:url(#SVGID_00000034777902857408505340000010464380599900654512_);}
	.st28{clip-path:url(#SVGID_00000168099037547146664860000008020530024714930820_);}
	.st29{clip-path:url(#SVGID_00000015324281096935453030000018219718841483784111_);}
	.st30{clip-path:url(#SVGID_00000160181578686459713390000007089052237272687277_);}
	.st31{clip-path:url(#SVGID_00000088827960716065929750000003297058080892693670_);}
	.st32{clip-path:url(#SVGID_00000129889416106858919220000005455911235319025852_);}
	.st33{clip-path:url(#SVGID_00000131333646360929224320000010964979312330301571_);}
	.st34{clip-path:url(#SVGID_00000159457485583219035550000013561383034905462455_);}
	.st35{clip-path:url(#SVGID_00000131360080487804300250000008893038858752818342_);}
	.st36{clip-path:url(#SVGID_00000121269750717839076880000017080250805748804509_);}
	.st37{clip-path:url(#SVGID_00000154423364188654284200000011700241374003798955_);}
	.st38{clip-path:url(#SVGID_00000140705078692554236670000000101271873616617362_);}
	.st39{clip-path:url(#SVGID_00000144308942051566995830000002034244547817447577_);}
	.st40{clip-path:url(#SVGID_00000017501824229836059230000002685393581675424905_);}
	.st41{clip-path:url(#SVGID_00000011748300402281377010000003402219595163926916_);}
	.st42{clip-path:url(#SVGID_00000016073528084316548310000009645320232417821069_);}
	.st43{clip-path:url(#SVGID_00000050639873970950475380000011767396959509426359_);}
	.st44{clip-path:url(#SVGID_00000046325159644899835860000004968527538988759999_);}
	.st45{opacity:0.52;clip-path:url(#SVGID_00000030461937137963206200000017644746504709509257_);}
	.st46{clip-path:url(#SVGID_00000067958991972184618270000007714834580509489847_);}
	.st47{clip-path:url(#SVGID_00000074415206091791698140000015971571002198889345_);}
	.st48{clip-path:url(#SVGID_00000179617812344735751310000014758254993841289372_);}
	.st49{opacity:0.52;clip-path:url(#SVGID_00000082358003584508619450000000998841412728055442_);}
	.st50{clip-path:url(#SVGID_00000095300426366480084270000012495558993059519149_);}
	.st51{clip-path:url(#SVGID_00000026870055244236994190000005011447574389913001_);}
	.st52{clip-path:url(#SVGID_00000043419832591552188490000011904470306900341132_);}
	.st53{opacity:0.52;clip-path:url(#SVGID_00000114778311397426884340000005048395560234118317_);}
	.st54{clip-path:url(#SVGID_00000155829640053842523000000015206922014413444283_);}
	.st55{clip-path:url(#SVGID_00000135651647610026083740000007482542083322337669_);}
	.st56{clip-path:url(#SVGID_00000088843840295486035040000000810499951383279804_);}
	.st57{opacity:0.52;clip-path:url(#SVGID_00000143589169773863280580000017905094030838329272_);}
	.st58{clip-path:url(#SVGID_00000100342342513463313200000017878635144614312349_);}
	.st59{clip-path:url(#SVGID_00000079461060169490795290000013739155252305633968_);}
	.st60{clip-path:url(#SVGID_00000062186679789657264520000007302202241726319493_);}
	.st61{opacity:0.52;clip-path:url(#SVGID_00000136377451211253492610000009564744722450704782_);}
	.st62{clip-path:url(#SVGID_00000114032801840318597410000009586948340993920401_);}
	.st63{clip-path:url(#SVGID_00000050647832244132014690000006634505330822782655_);}
	.st64{clip-path:url(#SVGID_00000083083572268371996520000003457201048805548444_);}
	.st65{clip-path:url(#SVGID_00000169530334722324873980000000226319177328434577_);}
	.st66{clip-path:url(#SVGID_00000044868883781180933610000010282522434476647298_);}
	.st67{clip-path:url(#SVGID_00000170248038676650162570000013473496184536584321_);}
	.st68{clip-path:url(#SVGID_00000150095849672711665100000013010864557476032652_);}
	.st69{clip-path:url(#SVGID_00000130643903836122319330000002549141024381568649_);}
	.st70{clip-path:url(#SVGID_00000161592673281948318220000013525508388813157535_);}
	.st71{clip-path:url(#SVGID_00000078752195154258547240000005861065236469662866_);}
	.st72{clip-path:url(#SVGID_00000021816875973377476140000010569418812819100331_);}
	.st73{clip-path:url(#SVGID_00000183214297634673165060000004552746161076869020_);}
	.st74{clip-path:url(#SVGID_00000145031424019372313340000012211056239953480351_);}
	.st75{clip-path:url(#SVGID_00000011743833846519975450000004255554560451941006_);}
	.st76{clip-path:url(#SVGID_00000039123227615719864100000016027486420337362352_);}
	.st77{clip-path:url(#SVGID_00000124138803230823251760000002067181559289516468_);}
	.st78{clip-path:url(#SVGID_00000137818468174856282990000004232971284181925814_);}
	.st79{clip-path:url(#SVGID_00000116919114643499054150000017578169313344040634_);}
	.st80{clip-path:url(#SVGID_00000008123447999494012550000013286435690146680725_);}
	.st81{clip-path:url(#SVGID_00000156588220282822080910000006690934743356087969_);}
	.st82{clip-path:url(#SVGID_00000088827050576132870240000017823993672907661756_);}
	.st83{clip-path:url(#SVGID_00000166649194211116962830000016592198721249273745_);}
	.st84{clip-path:url(#SVGID_00000008860149592904073350000017357760510329683385_);}
	.st85{clip-path:url(#SVGID_00000008143598207180041000000006849351327836304318_);}
	.st86{clip-path:url(#SVGID_00000076594385149124180340000015062119281386106017_);}
	.st87{fill:#DAD6E4;}
	.st88{clip-path:url(#SVGID_00000175290384519851045190000010593879462756754869_);}
	.st89{clip-path:url(#SVGID_00000018204149633338976100000016092121260845350037_);}
	.st90{clip-path:url(#SVGID_00000157988036302754155200000009895464081268186284_);}
	.st91{clip-path:url(#SVGID_00000134964468875308270940000016810480498267801483_);}
	.st92{clip-path:url(#SVGID_00000152232066226172679920000013031436892104230830_);}
	.st93{clip-path:url(#SVGID_00000045604121320233184230000003255720153891027333_);}
	.st94{clip-path:url(#SVGID_00000178908527226513795490000005799187066794389941_);}
	.st95{clip-path:url(#SVGID_00000107554523050184380990000001237257155567451808_);}
	.st96{clip-path:url(#SVGID_00000092453194141533886530000011351405353107874211_);}
	.st97{clip-path:url(#SVGID_00000161609793049164933670000017442629323919770814_);}
	.st98{clip-path:url(#SVGID_00000078740947591836636050000002196736254027540398_);}
</style>
<g>
	<g>
		<polygon class="st0" points="3.44,21.28 3.44,437.57 969.34,437.57 991.27,225.21 991.27,21.28 		"/>
	</g>
	<g>
		<path class="st0" d="M969.6,437.86H3.16V21h988.4v204.22L969.6,437.86z M3.73,437.29h965.35l21.9-212.1l0-203.61H3.73V437.29z"/>
	</g>
	<g>
		<defs>
			<rect id="SVGID_00000029036318399227047480000007784423319035738803_" y="20.55" width="1000" height="426.51"/>
		</defs>
		<clipPath id="SVGID_00000123443469771048809920000012261790253530366126_">
			<use xlink:href="#SVGID_00000029036318399227047480000007784423319035738803_"  style="overflow:visible;"/>
		</clipPath>
		<g style="clip-path:url(#SVGID_00000123443469771048809920000012261790253530366126_);">
			<path class="st1" d="M990.61,438.4H0.72c-0.4,0-0.72-0.32-0.72-0.72V21.27c0-0.4,0.32-0.72,0.72-0.72h989.89
				c0.4,0,0.72,0.32,0.72,0.72v416.4C991.33,438.07,991.01,438.4,990.61,438.4z M1.44,436.95h988.44V22H1.44V436.95z"/>
		</g>
	</g>
	<g>
		<polygon class="st6" points="9.39,29.94 9.39,446.34 981.9,446.34 999.28,428.98 999.28,29.94 		"/>
	</g>
	<g>
		<defs>
			<rect id="SVGID_00000124146494773850961530000001006226017851502002_" y="20.55" width="1000" height="426.51"/>
		</defs>
		<clipPath id="SVGID_00000140692963185115657740000002560175016124478615_">
			<use xlink:href="#SVGID_00000124146494773850961530000001006226017851502002_"  style="overflow:visible;"/>
		</clipPath>
		<g style="clip-path:url(#SVGID_00000140692963185115657740000002560175016124478615_);">
			<path class="st1" d="M981.9,447.07H9.39c-0.4,0-0.72-0.32-0.72-0.72V29.94c0-0.4,0.32-0.72,0.72-0.72h989.89
				c0.4,0,0.72,0.32,0.72,0.72v399.03c0,0.19-0.08,0.37-0.21,0.51l-17.38,17.37C982.27,446.99,982.09,447.07,981.9,447.07z
				 M10.11,445.62H981.6l16.96-16.95V30.66H10.11V445.62z"/>
		</g>
	</g>
	<g>
		<polygon class="st6" points="981.73,428.8 981.73,446.35 999.28,428.8 		"/>
	</g>
	<g>
		<defs>
			<rect id="SVGID_00000160869336368904146700000000696751819685927611_" y="20.55" width="1000" height="426.51"/>
		</defs>
		<clipPath id="SVGID_00000160912210981860229990000009194444716383098524_">
			<use xlink:href="#SVGID_00000160869336368904146700000000696751819685927611_"  style="overflow:visible;"/>
		</clipPath>
		<g style="clip-path:url(#SVGID_00000160912210981860229990000009194444716383098524_);">
			<path class="st1" d="M981.73,447.01c-0.09,0-0.17-0.02-0.25-0.05c-0.25-0.1-0.41-0.35-0.41-0.61v-17.56
				c0-0.37,0.3-0.66,0.66-0.66h17.55c0.27,0,0.51,0.16,0.61,0.41c0.1,0.25,0.05,0.53-0.14,0.72l-17.55,17.56
				C982.07,446.95,981.9,447.01,981.73,447.01z M982.39,429.46v15.28l15.28-15.28H982.39z"/>
		</g>
	</g>
	<g>
		<polygon class="st0" points="983.5,429.14 983.5,444.94 998.05,429.14 		"/>
	</g>
	<g>
		<path class="st0" d="M983.22,445.68v-16.82h15.49L983.22,445.68z M983.79,429.43v14.77l13.6-14.77H983.79z"/>
	</g>
	<g>
		<defs>
			<rect id="SVGID_00000126322815594418126570000005417542658103423905_" y="20.55" width="1000" height="426.51"/>
		</defs>
		<clipPath id="SVGID_00000018231645874540537500000016170655014618635413_">
			<use xlink:href="#SVGID_00000126322815594418126570000005417542658103423905_"  style="overflow:visible;"/>
		</clipPath>
		<g style="clip-path:url(#SVGID_00000018231645874540537500000016170655014618635413_);">
			<path class="st1" d="M981.73,447.01c-0.09,0-0.17-0.02-0.25-0.05c-0.25-0.1-0.41-0.35-0.41-0.61v-17.56
				c0-0.37,0.3-0.66,0.66-0.66h17.55c0.27,0,0.51,0.16,0.61,0.41c0.1,0.25,0.05,0.53-0.14,0.72l-17.55,17.56
				C982.07,446.95,981.9,447.01,981.73,447.01z M982.39,429.46v15.28l15.28-15.28H982.39z"/>
		</g>
	</g>
	<g>
		<rect x="330.72" y="73.95" class="st87" width="167.06" height="25.98"/>
	</g>
	<g>
		<rect x="45.7" y="391" class="st87" width="238.66" height="25.98"/>
	</g>
	<g>
		<rect x="94.45" y="153.33" class="st87" width="125.01" height="25.98"/>
	</g>
	<g>
		<rect x="309.93" y="153.33" class="st87" width="183.42" height="25.98"/>
	</g>
	<g>
		<defs>
			<rect id="SVGID_00000147181029106193169820000016806759711131895689_" y="20.55" width="1000" height="426.51"/>
		</defs>
		<clipPath id="SVGID_00000176730774604403886310000017290210908460688310_">
			<use xlink:href="#SVGID_00000147181029106193169820000016806759711131895689_"  style="overflow:visible;"/>
		</clipPath>
		<g style="clip-path:url(#SVGID_00000176730774604403886310000017290210908460688310_);">
			<path class="st1" d="M283.97,337.93v-7.4c0-1.3-0.27-2.4-1.16-3.27c-0.69-0.66-1.67-1.05-2.86-1.05c-1.17,0-2.29,0.44-3.09,1.3
				v-1.16h-2.28v11.58h2.33v-7.06c0-1.78,1.1-2.58,2.4-2.58c1.3,0,2.33,0.78,2.33,2.58v7.06H283.97z M272.46,327.3
				c-0.8-0.8-1.65-1.1-2.76-1.1c-1.3,0-2.49,0.57-3.08,1.39v-1.26h-2.28v11.58h2.33v-7.04c0-1.6,1.05-2.61,2.31-2.61
				c0.8,0,1.21,0.25,1.74,0.78L272.46,327.3z M258.7,331.19h-5.21c0.02-0.71,0.07-1.05,0.3-1.58c0.37-0.87,1.21-1.46,2.31-1.46
				c1.1,0,1.92,0.59,2.29,1.46C258.61,330.14,258.68,330.48,258.7,331.19 M261.01,332.81v-1.03c0-3.29-1.8-5.58-4.91-5.58
				c-2.97,0-4.91,2.17-4.91,5.92c0,4.41,2.31,5.94,5.21,5.94c2.04,0,3.15-0.62,4.34-1.8l-1.48-1.39c-0.82,0.82-1.51,1.19-2.81,1.19
				c-1.9,0-2.95-1.26-2.95-3.25H261.01z M248.65,337.93v-1.99h-0.96c-0.87,0-1.28-0.5-1.28-1.34v-6.24h2.24v-1.78h-2.24v-3.54h-2.33
				v3.54h-1.33v1.78h1.33v6.36c0,1.66,1,3.22,3.17,3.22H248.65z M241.02,337.93v-1.99h-1.03c-0.94,0-1.26-0.46-1.26-1.35v-12.93
				h-2.33v13.07c0,1.71,0.96,3.2,3.17,3.2H241.02z M233.13,337.93v-2.22h-7.93v-4.89h6.76v-2.19h-6.76v-4.76h7.93v-2.21h-10.39
				v16.27H233.13z M214.62,327.3c-0.8-0.8-1.65-1.1-2.76-1.1c-1.3,0-2.49,0.57-3.09,1.39v-1.26h-2.28v11.58h2.33v-7.04
				c0-1.6,1.05-2.61,2.31-2.61c0.8,0,1.21,0.25,1.74,0.78L214.62,327.3z M200.86,331.19h-5.21c0.02-0.71,0.07-1.05,0.3-1.58
				c0.37-0.87,1.21-1.46,2.31-1.46c1.09,0,1.92,0.59,2.29,1.46C200.77,330.14,200.84,330.48,200.86,331.19 M203.17,332.81v-1.03
				c0-3.29-1.8-5.58-4.91-5.58c-2.97,0-4.91,2.17-4.91,5.92c0,4.41,2.31,5.94,5.21,5.94c2.04,0,3.15-0.62,4.34-1.8l-1.48-1.39
				c-0.82,0.82-1.51,1.19-2.81,1.19c-1.9,0-2.95-1.26-2.95-3.25H203.17z M187.68,332.12c0,2.06-0.3,3.86-2.4,3.86
				c-2.1,0-2.42-1.8-2.42-3.86c0-2.06,0.32-3.84,2.42-3.84C187.38,328.28,187.68,330.07,187.68,332.12 M190.01,337.93v-16.27h-2.33
				v5.85c-0.84-1-1.81-1.3-3.04-1.3c-1.17,0-2.17,0.39-2.81,1.03c-1.16,1.16-1.3,3.13-1.3,4.89c0,1.76,0.14,3.75,1.3,4.91
				c0.64,0.64,1.67,1.03,2.83,1.03c1.26,0,2.19-0.32,3.06-1.37v1.23H190.01z M172.16,337.93v-1.99h-0.96c-0.87,0-1.28-0.5-1.28-1.34
				v-6.24h2.24v-1.78h-2.24v-3.54h-2.33v3.54h-1.33v1.78h1.33v6.36c0,1.66,1,3.22,3.17,3.22H172.16z M164.6,328.35v-1.78h-2.31
				v-1.68c0-0.85,0.41-1.36,1.28-1.36h1.03v-1.99h-1.46c-2.17,0-3.17,1.55-3.17,3.23v1.8h-1.33v1.78h1.33v9.58h2.33v-9.58H164.6z
				 M155.73,321.59h-2.47v2.47h2.47V321.59z M155.66,326.34h-2.33v11.58h2.33V326.34z M151.21,327.3c-0.8-0.8-1.65-1.1-2.76-1.1
				c-1.3,0-2.49,0.57-3.09,1.39v-1.26h-2.28v11.58h2.33v-7.04c0-1.6,1.05-2.61,2.31-2.61c0.8,0,1.21,0.25,1.74,0.78L151.21,327.3z
				 M139.25,337.93v-7.47c0-2.51-1.44-4.25-4.02-4.25c-1.14,0-2.2,0.44-2.99,1.3v-5.85h-2.33v16.27h2.33v-7.11
				c0-1.74,1.05-2.54,2.35-2.54c1.3,0,2.33,0.78,2.33,2.54v7.11H139.25z M126.98,336.42l-1.6-1.53c-0.73,0.8-1.3,1.1-2.22,1.1
				c-0.89,0-1.65-0.37-2.15-1.03c-0.5-0.64-0.69-1.49-0.69-2.84c0-1.35,0.18-2.17,0.69-2.81c0.5-0.66,1.26-1.03,2.15-1.03
				c0.91,0,1.49,0.3,2.22,1.1l1.6-1.55c-1.1-1.16-2.22-1.62-3.82-1.62c-2.61,0-5.16,1.58-5.16,5.92c0,4.34,2.56,5.94,5.16,5.94
				C124.77,338.06,125.89,337.59,126.98,336.42 M115.54,334.39c0-2.06-1.28-3.09-3.45-3.27l-1.83-0.16c-1.23-0.12-1.6-0.64-1.6-1.33
				c0-0.87,0.71-1.49,2.1-1.49c1.1,0,2.13,0.23,2.86,0.84l1.46-1.48c-1.08-0.94-2.56-1.3-4.3-1.3c-2.42,0-4.37,1.28-4.37,3.54
				c0,2.04,1.26,3.02,3.43,3.2l1.85,0.16c1.12,0.09,1.55,0.59,1.55,1.37c0,1.1-1.12,1.6-2.54,1.6c-1.14,0-2.4-0.25-3.34-1.21
				l-1.53,1.53c1.37,1.35,2.97,1.67,4.87,1.67C113.48,338.06,115.54,336.81,115.54,334.39 M105.07,327.3c-0.8-0.8-1.65-1.1-2.76-1.1
				c-1.3,0-2.49,0.57-3.09,1.39v-1.26h-2.28v11.58h2.33v-7.04c0-1.6,1.05-2.61,2.31-2.61c0.8,0,1.21,0.25,1.74,0.78L105.07,327.3z
				 M91.31,331.19H86.1c0.02-0.71,0.07-1.05,0.3-1.58c0.37-0.87,1.21-1.46,2.31-1.46c1.1,0,1.92,0.59,2.29,1.46
				C91.22,330.14,91.29,330.48,91.31,331.19 M93.62,332.81v-1.03c0-3.29-1.81-5.58-4.91-5.58c-2.97,0-4.91,2.17-4.91,5.92
				c0,4.41,2.3,5.94,5.21,5.94c2.03,0,3.15-0.62,4.34-1.8l-1.49-1.39c-0.82,0.82-1.51,1.19-2.81,1.19c-1.9,0-2.95-1.26-2.95-3.25
				H93.62z M81.26,337.93v-1.99H80.3c-0.87,0-1.28-0.5-1.28-1.34v-6.24h2.24v-1.78h-2.24v-3.54h-2.33v3.54h-1.33v1.78h1.33v6.36
				c0,1.66,1,3.22,3.17,3.22H81.26z M72.6,337.93v-7.4c0-1.3-0.27-2.4-1.16-3.27c-0.69-0.66-1.67-1.05-2.86-1.05
				c-1.17,0-2.29,0.44-3.09,1.3v-1.16h-2.28v11.58h2.33v-7.06c0-1.78,1.1-2.58,2.4-2.58c1.3,0,2.33,0.78,2.33,2.58v7.06H72.6z
				 M59.25,332.44v-10.79h-2.47v10.67c0,2.17-1.35,3.52-3.38,3.52c-2.04,0-3.36-1.35-3.36-3.52v-10.67h-2.47v10.79
				c0,3.36,2.51,5.62,5.83,5.62S59.25,335.8,59.25,332.44"/>
		</g>
		<g style="clip-path:url(#SVGID_00000176730774604403886310000017290210908460688310_);">
			<path class="st1" d="M282.31,255.76h-2.79v2.79h2.79V255.76z M280.2,247.92c-0.8-0.8-1.65-1.09-2.76-1.09
				c-1.3,0-2.49,0.57-3.09,1.39v-1.26h-2.28v11.58h2.33v-7.04c0-1.6,1.05-2.61,2.31-2.61c0.8,0,1.21,0.25,1.74,0.78L280.2,247.92z
				 M265.93,254.36c0,0.82-0.16,1.37-0.5,1.72c-0.62,0.59-1.28,0.66-2.17,0.66c-1.46,0-2.13-0.59-2.13-1.65
				c0-1.05,0.71-1.67,2.08-1.67h2.72V254.36z M268.25,258.54v-7.74c0-2.63-1.6-3.98-4.77-3.98c-1.92,0-3.06,0.39-4.16,1.67
				l1.53,1.44c0.64-0.82,1.26-1.12,2.54-1.12c1.81,0,2.54,0.71,2.54,2.17v0.82h-3.06c-2.65,0-4,1.39-4,3.33
				c0,0.98,0.32,1.88,0.91,2.49c0.71,0.71,1.67,1.05,3.11,1.05c1.44,0,2.24-0.34,3.09-1.19v1.05H268.25z M257.47,246.96h-2.49
				l-2.24,8.16l-2.67-8.16h-1.8l-2.7,8.16l-2.24-8.16h-2.47l3.59,11.58h2.01l2.7-8.09l2.72,8.09h1.99L257.47,246.96z M234.23,258.54
				l-4.52-7.04l4.02-4.55h-2.83l-4.5,5.35v-10.03h-2.33v16.27h2.33v-3.4l1.71-1.94l3.25,5.35H234.23z M220.24,258.54v-7.4
				c0-1.3-0.27-2.4-1.16-3.27c-0.69-0.66-1.67-1.05-2.86-1.05c-1.16,0-2.29,0.43-3.09,1.3v-1.16h-2.28v11.58h2.33v-7.06
				c0-1.78,1.1-2.59,2.4-2.59s2.33,0.78,2.33,2.58v7.06H220.24z M204.71,254.36c0,0.82-0.16,1.37-0.5,1.72
				c-0.62,0.59-1.28,0.66-2.17,0.66c-1.46,0-2.13-0.59-2.13-1.65c0-1.05,0.71-1.67,2.08-1.67h2.72V254.36z M207.03,258.54v-7.74
				c0-2.63-1.6-3.98-4.77-3.98c-1.92,0-3.06,0.39-4.16,1.67l1.53,1.44c0.64-0.82,1.26-1.12,2.54-1.12c1.81,0,2.54,0.71,2.54,2.17
				v0.82h-3.06c-2.65,0-4,1.39-4,3.33c0,0.98,0.32,1.88,0.91,2.49c0.71,0.71,1.67,1.05,3.11,1.05c1.44,0,2.24-0.34,3.09-1.19v1.05
				H207.03z M196.61,247.92c-0.8-0.8-1.65-1.09-2.77-1.09c-1.3,0-2.49,0.57-3.08,1.39v-1.26h-2.28v11.58h2.33v-7.04
				c0-1.6,1.05-2.61,2.31-2.61c0.8,0,1.21,0.25,1.74,0.78L196.61,247.92z M185.89,258.54l-4.52-7.04l4.02-4.55h-2.83l-4.5,5.35
				v-10.03h-2.33v16.27h2.33v-3.4l1.71-1.94l3.25,5.35H185.89z M167.89,247.92c-0.8-0.8-1.65-1.09-2.76-1.09
				c-1.3,0-2.49,0.57-3.09,1.39v-1.26h-2.28v11.58h2.33v-7.04c0-1.6,1.05-2.61,2.31-2.61c0.8,0,1.21,0.25,1.74,0.78L167.89,247.92z
				 M154.13,251.81h-5.21c0.02-0.71,0.07-1.05,0.3-1.58c0.37-0.87,1.21-1.46,2.31-1.46c1.1,0,1.92,0.6,2.29,1.46
				C154.04,250.76,154.11,251.1,154.13,251.81 M156.44,253.43v-1.02c0-3.29-1.81-5.58-4.91-5.58c-2.97,0-4.91,2.17-4.91,5.92
				c0,4.41,2.3,5.94,5.21,5.94c2.03,0,3.15-0.62,4.34-1.8l-1.49-1.4c-0.82,0.82-1.51,1.19-2.81,1.19c-1.9,0-2.95-1.26-2.95-3.25
				H156.44z M139.48,240.59h-2.24l-6.51,19.65h2.24L139.48,240.59z M121.25,251.81h-5.21c0.02-0.71,0.07-1.05,0.3-1.58
				c0.37-0.87,1.21-1.46,2.31-1.46c1.1,0,1.92,0.6,2.29,1.46C121.15,250.76,121.22,251.1,121.25,251.81 M123.56,253.43v-1.02
				c0-3.29-1.81-5.58-4.91-5.58c-2.97,0-4.91,2.17-4.91,5.92c0,4.41,2.3,5.94,5.21,5.94c2.03,0,3.15-0.62,4.34-1.8l-1.49-1.4
				c-0.82,0.82-1.51,1.19-2.81,1.19c-1.9,0-2.95-1.26-2.95-3.25H123.56z M110.46,242.21h-2.47v2.47h2.47V242.21z M110.39,246.96
				h-2.33v11.58h2.33V246.96z M105,255.01c0-2.06-1.28-3.09-3.45-3.27l-1.83-0.16c-1.23-0.11-1.6-0.64-1.6-1.33
				c0-0.87,0.71-1.49,2.1-1.49c1.1,0,2.13,0.23,2.86,0.85l1.46-1.48c-1.08-0.94-2.56-1.3-4.3-1.3c-2.42,0-4.37,1.28-4.37,3.54
				c0,2.03,1.26,3.02,3.43,3.2l1.85,0.16c1.12,0.09,1.55,0.59,1.55,1.37c0,1.1-1.12,1.6-2.54,1.6c-1.14,0-2.4-0.25-3.34-1.21
				l-1.53,1.53c1.37,1.35,2.97,1.66,4.87,1.66C102.95,258.68,105,257.43,105,255.01 M87.93,258.54v-1.98H86.9
				c-0.94,0-1.26-0.46-1.26-1.35v-12.93h-2.33v13.07c0,1.71,0.96,3.19,3.17,3.19H87.93z M79.52,242.21h-2.47v2.47h2.47V242.21z
				 M79.45,246.96h-2.33v11.58h2.33V246.96z M71.5,251.81h-5.21c0.02-0.71,0.07-1.05,0.3-1.58c0.37-0.87,1.21-1.46,2.31-1.46
				s1.92,0.6,2.29,1.46C71.41,250.76,71.48,251.1,71.5,251.81 M73.81,253.43v-1.02c0-3.29-1.81-5.58-4.91-5.58
				c-2.97,0-4.91,2.17-4.91,5.92c0,4.41,2.3,5.94,5.21,5.94c2.03,0,3.15-0.62,4.34-1.8l-1.49-1.4c-0.82,0.82-1.51,1.19-2.81,1.19
				c-1.9,0-2.95-1.26-2.95-3.25H73.81z M62.5,246.96h-2.49l-2.24,8.16l-2.67-8.16h-1.8l-2.7,8.16l-2.24-8.16h-2.47l3.59,11.58h2.01
				l2.7-8.09l2.72,8.09h1.99L62.5,246.96z"/>
		</g>
		<g style="clip-path:url(#SVGID_00000176730774604403886310000017290210908460688310_);">
			<path class="st1" d="M772.18,180.54v-4.02h-2.65v6.19L772.18,180.54z M765.78,179.16v-7.4c0-1.3-0.27-2.4-1.16-3.27
				c-0.69-0.66-1.67-1.05-2.86-1.05c-1.17,0-2.29,0.43-3.09,1.3v-1.16h-2.28v11.58h2.33v-7.06c0-1.78,1.1-2.59,2.4-2.59
				c1.3,0,2.33,0.78,2.33,2.58v7.06H765.78z M750.76,172.42h-5.21c0.02-0.71,0.07-1.05,0.3-1.58c0.36-0.87,1.21-1.46,2.31-1.46
				c1.1,0,1.92,0.6,2.29,1.46C750.67,171.37,750.74,171.72,750.76,172.42 M753.07,174.04v-1.02c0-3.29-1.8-5.58-4.91-5.58
				c-2.97,0-4.91,2.17-4.91,5.92c0,4.41,2.3,5.94,5.21,5.94c2.04,0,3.15-0.62,4.34-1.8l-1.49-1.4c-0.82,0.82-1.51,1.19-2.81,1.19
				c-1.9,0-2.95-1.26-2.95-3.25H753.07z M740.02,179.16v-7.47c0-2.51-1.44-4.25-4.02-4.25c-1.14,0-2.2,0.43-2.99,1.3v-5.85h-2.33
				v16.27h2.33v-7.11c0-1.74,1.05-2.54,2.35-2.54c1.3,0,2.33,0.78,2.33,2.54v7.11H740.02z M727.75,177.66l-1.6-1.53
				c-0.73,0.8-1.3,1.1-2.22,1.1c-0.89,0-1.65-0.37-2.15-1.03c-0.5-0.64-0.69-1.48-0.69-2.83s0.18-2.17,0.69-2.81
				c0.5-0.66,1.26-1.03,2.15-1.03c0.91,0,1.49,0.3,2.22,1.1l1.6-1.55c-1.1-1.16-2.22-1.62-3.82-1.62c-2.61,0-5.16,1.58-5.16,5.92
				s2.56,5.94,5.16,5.94C725.54,179.3,726.66,178.82,727.75,177.66 M715.44,179.16v-11.58h-2.33v7.06c0,1.78-1.1,2.58-2.4,2.58
				c-1.3,0-2.33-0.78-2.33-2.58v-7.06h-2.33v7.4c0,1.3,0.27,2.4,1.16,3.27c0.69,0.66,1.67,1.05,2.86,1.05c1.17,0,2.29-0.43,3.09-1.3
				v1.16H715.44z M703.1,175.62c0-2.06-1.28-3.09-3.45-3.27l-1.83-0.16c-1.23-0.11-1.6-0.64-1.6-1.33c0-0.87,0.71-1.49,2.1-1.49
				c1.1,0,2.13,0.23,2.86,0.85l1.46-1.48c-1.08-0.94-2.56-1.3-4.3-1.3c-2.42,0-4.37,1.28-4.37,3.54c0,2.03,1.26,3.02,3.43,3.2
				l1.85,0.16c1.12,0.09,1.55,0.59,1.55,1.37c0,1.1-1.12,1.6-2.54,1.6c-1.14,0-2.4-0.25-3.34-1.21l-1.53,1.53
				c1.37,1.35,2.97,1.66,4.87,1.66C701.04,179.3,703.1,178.05,703.1,175.62 M688.9,172.42h-5.21c0.02-0.71,0.07-1.05,0.3-1.58
				c0.36-0.87,1.21-1.46,2.31-1.46c1.1,0,1.92,0.6,2.29,1.46C688.81,171.37,688.88,171.72,688.9,172.42 M691.21,174.04v-1.02
				c0-3.29-1.8-5.58-4.91-5.58c-2.97,0-4.91,2.17-4.91,5.92c0,4.41,2.3,5.94,5.21,5.94c2.04,0,3.15-0.62,4.34-1.8l-1.49-1.4
				c-0.82,0.82-1.51,1.19-2.81,1.19c-1.9,0-2.95-1.26-2.95-3.25H691.21z M676.27,173.36c0,2.06-0.3,3.86-2.4,3.86
				c-2.1,0-2.42-1.81-2.42-3.86s0.32-3.84,2.42-3.84C675.97,169.52,676.27,171.3,676.27,173.36 M678.6,173.36
				c0-1.76-0.14-3.73-1.3-4.89c-0.64-0.64-1.65-1.03-2.81-1.03c-1.23,0-2.19,0.3-3.04,1.3v-5.85h-2.33v16.27h2.28v-1.23
				c0.87,1.05,1.81,1.37,3.06,1.37c1.17,0,2.19-0.39,2.83-1.03C678.46,177.11,678.6,175.12,678.6,173.36 M660.2,179.16v-1.98h-0.96
				c-0.87,0-1.28-0.5-1.28-1.34v-6.24h2.24v-1.78h-2.24v-3.54h-2.33v3.54h-1.33v1.78h1.33v6.36c0,1.66,1.01,3.22,3.18,3.22H660.2z
				 M651.54,179.16v-7.47c0-2.51-1.44-4.25-4.02-4.25c-1.15,0-2.2,0.43-3,1.3v-5.85h-2.33v16.27h2.33v-7.11
				c0-1.74,1.05-2.54,2.35-2.54c1.3,0,2.33,0.78,2.33,2.54v7.11H651.54z M639.27,177.66l-1.6-1.53c-0.73,0.8-1.3,1.1-2.22,1.1
				c-0.89,0-1.65-0.37-2.15-1.03c-0.5-0.64-0.69-1.48-0.69-2.83s0.18-2.17,0.69-2.81c0.5-0.66,1.26-1.03,2.15-1.03
				c0.91,0,1.48,0.3,2.22,1.1l1.6-1.55c-1.1-1.16-2.22-1.62-3.82-1.62c-2.61,0-5.16,1.58-5.16,5.92s2.56,5.94,5.16,5.94
				C637.05,179.3,638.17,178.82,639.27,177.66 M627.02,162.83h-2.47v2.47h2.47V162.83z M626.95,167.58h-2.33v11.58h2.33V167.58z
				 M620.81,179.16v-7.4c0-1.3-0.27-2.4-1.16-3.27c-0.69-0.66-1.67-1.05-2.86-1.05c-1.16,0-2.29,0.43-3.09,1.3v-1.16h-2.28v11.58
				h2.33v-7.06c0-1.78,1.1-2.59,2.4-2.59s2.33,0.78,2.33,2.58v7.06H620.81z M600.08,172.42h-5.21c0.02-0.71,0.07-1.05,0.3-1.58
				c0.37-0.87,1.21-1.46,2.31-1.46s1.92,0.6,2.29,1.46C599.99,171.37,600.06,171.72,600.08,172.42 M602.39,174.04v-1.02
				c0-3.29-1.81-5.58-4.91-5.58c-2.97,0-4.91,2.17-4.91,5.92c0,4.41,2.3,5.94,5.21,5.94c2.03,0,3.15-0.62,4.34-1.8l-1.49-1.4
				c-0.82,0.82-1.51,1.19-2.81,1.19c-1.9,0-2.95-1.26-2.95-3.25H602.39z M590.94,179.16v-1.98h-1.03c-0.94,0-1.26-0.46-1.26-1.35
				v-12.93h-2.33v13.07c0,1.72,0.96,3.2,3.17,3.2H590.94z M582.46,179.16v-11.58h-2.33v7.06c0,1.78-1.1,2.58-2.4,2.58
				c-1.3,0-2.33-0.78-2.33-2.58v-7.06h-2.33v7.4c0,1.3,0.27,2.4,1.16,3.27c0.69,0.66,1.67,1.05,2.86,1.05c1.17,0,2.29-0.43,3.09-1.3
				v1.16H582.46z M569.37,179.16v-7.47c0-2.51-1.44-4.25-4.02-4.25c-1.14,0-2.19,0.43-2.99,1.3v-5.85h-2.33v16.27h2.33v-7.11
				c0-1.74,1.05-2.54,2.35-2.54c1.3,0,2.33,0.78,2.33,2.54v7.11H569.37z M557.1,177.66l-1.6-1.53c-0.73,0.8-1.3,1.1-2.22,1.1
				c-0.89,0-1.65-0.37-2.15-1.03c-0.5-0.64-0.69-1.48-0.69-2.83s0.18-2.17,0.69-2.81c0.5-0.66,1.26-1.03,2.15-1.03
				c0.91,0,1.48,0.3,2.22,1.1l1.6-1.55c-1.1-1.16-2.22-1.62-3.82-1.62c-2.61,0-5.16,1.58-5.16,5.92s2.56,5.94,5.16,5.94
				C554.88,179.3,556,178.82,557.1,177.66 M545.44,174.53c0-1.4-0.43-2.56-1.32-3.34c-0.69-0.62-1.53-0.98-3.04-1.21l-1.85-0.27
				c-0.76-0.12-1.42-0.39-1.83-0.76c-0.43-0.39-0.62-0.91-0.62-1.51c0-1.44,1.05-2.54,2.97-2.54c1.37,0,2.54,0.3,3.54,1.26
				l1.58-1.55c-1.39-1.3-2.9-1.85-5.05-1.85c-3.38,0-5.44,1.94-5.44,4.77c0,1.33,0.39,2.35,1.19,3.11c0.71,0.66,1.76,1.12,3.08,1.3
				l1.92,0.27c0.96,0.14,1.37,0.3,1.78,0.69c0.43,0.39,0.64,0.98,0.64,1.69c0,1.58-1.23,2.49-3.36,2.49c-1.67,0-2.97-0.37-4.16-1.55
				l-1.65,1.62c1.55,1.58,3.31,2.15,5.76,2.15C543,179.3,545.44,177.52,545.44,174.53 M523.66,172.42h-5.21
				c0.02-0.71,0.07-1.05,0.3-1.58c0.37-0.87,1.21-1.46,2.31-1.46c1.1,0,1.92,0.6,2.29,1.46
				C523.57,171.37,523.64,171.72,523.66,172.42 M525.97,174.04v-1.02c0-3.29-1.8-5.58-4.91-5.58c-2.97,0-4.91,2.17-4.91,5.92
				c0,4.41,2.3,5.94,5.21,5.94c2.04,0,3.15-0.62,4.34-1.8l-1.48-1.4c-0.82,0.82-1.51,1.19-2.81,1.19c-1.9,0-2.95-1.26-2.95-3.25
				H525.97z M512.88,162.83h-2.47v2.47h2.47V162.83z M512.81,167.58h-2.33v11.58h2.33V167.58z M504.22,173.36
				c0,2.06-0.3,3.86-2.4,3.86c-2.1,0-2.42-1.81-2.42-3.86s0.32-3.84,2.42-3.84C503.92,169.52,504.22,171.3,504.22,173.36
				 M506.55,179.16v-16.27h-2.33v5.85c-0.85-1.01-1.81-1.3-3.04-1.3c-1.16,0-2.17,0.39-2.81,1.03c-1.16,1.16-1.3,3.13-1.3,4.89
				s0.14,3.75,1.3,4.91c0.64,0.64,1.67,1.03,2.83,1.03c1.26,0,2.2-0.32,3.06-1.37v1.23H506.55z M305.27,179.16v-7.4
				c0-1.3-0.34-2.4-1.23-3.27c-0.68-0.66-1.73-1.05-2.93-1.05c-1.53,0-2.7,0.55-3.63,1.69c-0.73-1.12-1.85-1.69-3.29-1.69
				c-1.17,0-2.31,0.46-3.09,1.3v-1.16h-2.28v11.58h2.33v-7.06c0-1.78,1.1-2.59,2.4-2.59c1.3,0,2.33,0.78,2.33,2.58v7.06h2.33v-7.18
				c0-1.67,1.14-2.47,2.4-2.47c1.3,0,2.33,0.78,2.33,2.58v7.06H305.27z M284.89,179.16v-11.58h-2.33v7.06c0,1.78-1.1,2.58-2.4,2.58
				c-1.3,0-2.33-0.78-2.33-2.58v-7.06h-2.33v7.4c0,1.3,0.27,2.4,1.16,3.27c0.69,0.66,1.67,1.05,2.86,1.05c1.16,0,2.29-0.43,3.09-1.3
				v1.16H284.89z M272.43,179.16v-2.08h-5.8l5.8-7.66v-1.85h-8.32v2.08h5.44l-5.76,7.66v1.85H272.43z M255.89,175.62
				c0-2.06-1.28-3.09-3.45-3.27l-1.83-0.16c-1.23-0.11-1.6-0.64-1.6-1.33c0-0.87,0.71-1.49,2.1-1.49c1.1,0,2.13,0.23,2.86,0.85
				l1.46-1.48c-1.08-0.94-2.56-1.3-4.3-1.3c-2.42,0-4.37,1.28-4.37,3.54c0,2.03,1.26,3.02,3.43,3.2l1.85,0.16
				c1.12,0.09,1.55,0.59,1.55,1.37c0,1.1-1.12,1.6-2.54,1.6c-1.14,0-2.4-0.25-3.34-1.21l-1.53,1.53c1.37,1.35,2.97,1.66,4.87,1.66
				C253.83,179.3,255.89,178.05,255.89,175.62 M243.46,162.83h-2.47v2.47h2.47V162.83z M243.39,167.58h-2.33v11.58h2.33V167.58z
				 M235.35,173.36c0,2.06-0.3,3.86-2.4,3.86c-2.1,0-2.42-1.81-2.42-3.86s0.32-3.84,2.42-3.84
				C235.05,169.52,235.35,171.3,235.35,173.36 M237.68,173.36c0-1.76-0.14-3.73-1.3-4.89c-0.64-0.64-1.64-1.03-2.81-1.03
				c-1.24,0-2.2,0.3-3.04,1.3v-5.85h-2.33v16.27h2.28v-1.23c0.87,1.05,1.8,1.37,3.06,1.37c1.17,0,2.2-0.39,2.83-1.03
				C237.54,177.11,237.68,175.12,237.68,173.36 M87.27,179.16v-7.4c0-1.3-0.34-2.4-1.23-3.27c-0.69-0.66-1.74-1.05-2.93-1.05
				c-1.53,0-2.7,0.55-3.63,1.69c-0.73-1.12-1.85-1.69-3.29-1.69c-1.17,0-2.31,0.46-3.09,1.3v-1.16h-2.28v11.58h2.33v-7.06
				c0-1.78,1.1-2.59,2.4-2.59c1.3,0,2.33,0.78,2.33,2.58v7.06h2.33v-7.18c0-1.67,1.14-2.47,2.4-2.47c1.3,0,2.33,0.78,2.33,2.58v7.06
				H87.27z M65.1,173.36c0,1.26-0.09,2.47-0.8,3.18c-0.44,0.43-1.03,0.69-1.72,0.69c-0.69,0-1.26-0.25-1.69-0.69
				c-0.71-0.71-0.8-1.92-0.8-3.18s0.09-2.47,0.8-3.18c0.43-0.44,1.01-0.66,1.69-0.66c0.69,0,1.28,0.23,1.72,0.66
				C65.01,170.89,65.1,172.1,65.1,173.36 M67.43,173.36c0-1.94-0.27-3.41-1.37-4.55c-0.75-0.77-1.9-1.37-3.47-1.37
				s-2.7,0.59-3.45,1.37c-1.09,1.14-1.37,2.61-1.37,4.55c0,1.97,0.27,3.43,1.37,4.57c0.76,0.78,1.87,1.37,3.45,1.37
				s2.72-0.59,3.47-1.37C67.16,176.79,67.43,175.33,67.43,173.36 M56.28,167.58h-2.47l-2.72,8.16l-2.74-8.16h-2.47l4.25,11.58h1.9
				L56.28,167.58z"/>
		</g>
		<g style="clip-path:url(#SVGID_00000176730774604403886310000017290210908460688310_);">
			<path class="st1" d="M778.83,93.04h-5.21c0.02-0.71,0.07-1.05,0.3-1.58c0.37-0.87,1.21-1.46,2.31-1.46c1.1,0,1.92,0.59,2.29,1.46
				C778.74,91.99,778.81,92.33,778.83,93.04 M781.14,94.66v-1.03c0-3.29-1.8-5.57-4.91-5.57c-2.97,0-4.91,2.17-4.91,5.92
				c0,4.41,2.31,5.94,5.21,5.94c2.04,0,3.15-0.62,4.34-1.8l-1.48-1.4c-0.82,0.82-1.51,1.19-2.81,1.19c-1.9,0-2.95-1.26-2.95-3.25
				H781.14z M768.78,99.78V97.8h-0.96c-0.87,0-1.28-0.5-1.28-1.34v-6.24h2.24v-1.78h-2.24v-3.54h-2.33v3.54h-1.33v1.78h1.33v6.36
				c0,1.66,1,3.22,3.17,3.22H768.78z M760.11,99.78v-7.4c0-1.3-0.27-2.4-1.16-3.27c-0.68-0.66-1.67-1.05-2.86-1.05
				c-1.17,0-2.29,0.43-3.09,1.3V88.2h-2.28v11.58h2.33v-7.06c0-1.78,1.1-2.58,2.4-2.58c1.3,0,2.33,0.78,2.33,2.58v7.06H760.11z
				 M746.9,99.78v-7.4c0-1.3-0.27-2.4-1.16-3.27c-0.68-0.66-1.67-1.05-2.86-1.05c-1.17,0-2.29,0.43-3.09,1.3V88.2h-2.28v11.58h2.33
				v-7.06c0-1.78,1.1-2.58,2.4-2.58c1.3,0,2.33,0.78,2.33,2.58v7.06H746.9z M731.8,93.98c0,1.26-0.09,2.47-0.8,3.18
				c-0.43,0.43-1.03,0.69-1.72,0.69c-0.69,0-1.26-0.25-1.69-0.69c-0.71-0.71-0.8-1.92-0.8-3.18c0-1.26,0.09-2.47,0.8-3.18
				c0.44-0.44,1.01-0.66,1.69-0.66c0.69,0,1.28,0.23,1.72,0.66C731.71,91.51,731.8,92.72,731.8,93.98 M734.13,93.98
				c0-1.94-0.27-3.41-1.37-4.55c-0.76-0.78-1.9-1.37-3.48-1.37c-1.58,0-2.7,0.59-3.45,1.37c-1.1,1.14-1.37,2.61-1.37,4.55
				c0,1.97,0.27,3.43,1.37,4.57c0.75,0.77,1.87,1.37,3.45,1.37c1.58,0,2.72-0.59,3.48-1.37C733.86,97.41,734.13,95.94,734.13,93.98
				 M722.59,99.78l-4.52-7.04l4.02-4.55h-2.83l-4.5,5.35V83.51h-2.33v16.27h2.33v-3.4l1.71-1.94l3.25,5.35H722.59z M696.97,97.11
				V86.19c0-0.91-0.07-1.8-0.55-2.65c-0.45-0.82-1.09-1.44-1.83-2.17l-1.6,1.6c0.55,0.55,0.91,0.87,1.26,1.51
				c0.23,0.43,0.34,1.05,0.34,1.85v10.65c0,0.8-0.11,1.42-0.34,1.85c-0.34,0.64-0.71,0.96-1.26,1.51l1.6,1.6
				c0.73-0.73,1.37-1.35,1.83-2.17C696.91,98.91,696.97,98.02,696.97,97.11 M690.46,96.24c0-2.06-1.28-3.09-3.45-3.27l-1.83-0.16
				c-1.23-0.12-1.6-0.64-1.6-1.33c0-0.87,0.71-1.49,2.1-1.49c1.1,0,2.12,0.23,2.86,0.85l1.46-1.49c-1.07-0.94-2.56-1.3-4.3-1.3
				c-2.42,0-4.36,1.28-4.36,3.54c0,2.04,1.26,3.02,3.43,3.2l1.85,0.16c1.12,0.09,1.55,0.59,1.55,1.37c0,1.1-1.12,1.6-2.54,1.6
				c-1.14,0-2.4-0.25-3.34-1.21l-1.53,1.53c1.37,1.35,2.97,1.67,4.87,1.67C688.41,99.92,690.46,98.66,690.46,96.24 M676.27,93.04
				h-5.21c0.02-0.71,0.07-1.05,0.3-1.58c0.37-0.87,1.21-1.46,2.31-1.46s1.92,0.59,2.29,1.46C676.18,91.99,676.25,92.33,676.27,93.04
				 M678.58,94.66v-1.03c0-3.29-1.81-5.57-4.91-5.57c-2.97,0-4.91,2.17-4.91,5.92c0,4.41,2.3,5.94,5.21,5.94
				c2.03,0,3.15-0.62,4.34-1.8l-1.49-1.4c-0.82,0.82-1.51,1.19-2.81,1.19c-1.9,0-2.95-1.26-2.95-3.25H678.58z M663.09,93.98
				c0,2.06-0.3,3.86-2.4,3.86c-2.1,0-2.42-1.81-2.42-3.86c0-2.06,0.32-3.84,2.42-3.84C662.79,90.14,663.09,91.92,663.09,93.98
				 M665.42,99.78V83.51h-2.33v5.85c-0.85-1-1.81-1.3-3.04-1.3c-1.17,0-2.17,0.39-2.81,1.03c-1.16,1.16-1.3,3.13-1.3,4.89
				c0,1.76,0.14,3.75,1.3,4.91c0.64,0.64,1.67,1.03,2.83,1.03c1.26,0,2.2-0.32,3.06-1.37v1.23H665.42z M652.66,99.78v-7.4
				c0-1.3-0.27-2.4-1.16-3.27c-0.69-0.66-1.67-1.05-2.86-1.05c-1.17,0-2.29,0.43-3.09,1.3V88.2h-2.28v11.58h2.33v-7.06
				c0-1.78,1.1-2.58,2.4-2.58c1.3,0,2.33,0.78,2.33,2.58v7.06H652.66z M639.41,83.45h-2.47v2.47h2.47V83.45z M639.34,88.2h-2.33
				v11.58h2.33V88.2z M634.7,99.78l-5.83-9.89l5.28-6.37h-3.02l-6.65,8.18v-8.18h-2.47v16.27h2.47v-4.73l2.74-3.29l4.57,8.02H634.7z
				 M612.97,96.24c0-2.06-1.28-3.09-3.45-3.27l-1.83-0.16c-1.23-0.12-1.6-0.64-1.6-1.33c0-0.87,0.71-1.49,2.1-1.49
				c1.1,0,2.12,0.23,2.86,0.85l1.46-1.49c-1.07-0.94-2.56-1.3-4.3-1.3c-2.42,0-4.36,1.28-4.36,3.54c0,2.04,1.26,3.02,3.43,3.2
				l1.85,0.16c1.12,0.09,1.55,0.59,1.55,1.37c0,1.1-1.12,1.6-2.54,1.6c-1.14,0-2.4-0.25-3.34-1.21l-1.53,1.53
				c1.37,1.35,2.97,1.67,4.87,1.67C610.91,99.92,612.97,98.66,612.97,96.24 M598.78,93.04h-5.21c0.02-0.71,0.07-1.05,0.3-1.58
				c0.37-0.87,1.21-1.46,2.31-1.46c1.1,0,1.92,0.59,2.29,1.46C598.69,91.99,598.76,92.33,598.78,93.04 M601.09,94.66v-1.03
				c0-3.29-1.81-5.57-4.91-5.57c-2.97,0-4.91,2.17-4.91,5.92c0,4.41,2.3,5.94,5.21,5.94c2.03,0,3.15-0.62,4.34-1.8l-1.49-1.4
				c-0.82,0.82-1.51,1.19-2.81,1.19c-1.9,0-2.95-1.26-2.95-3.25H601.09z M585.6,93.98c0,2.06-0.3,3.86-2.4,3.86
				c-2.1,0-2.42-1.81-2.42-3.86c0-2.06,0.32-3.84,2.42-3.84C585.3,90.14,585.6,91.92,585.6,93.98 M587.93,99.78V83.51h-2.33v5.85
				c-0.84-1-1.81-1.3-3.04-1.3c-1.17,0-2.17,0.39-2.81,1.03c-1.16,1.16-1.3,3.13-1.3,4.89c0,1.76,0.14,3.75,1.3,4.91
				c0.64,0.64,1.67,1.03,2.83,1.03c1.26,0,2.19-0.32,3.06-1.37v1.23H587.93z M567.66,93.04h-5.21c0.02-0.71,0.07-1.05,0.3-1.58
				c0.37-0.87,1.21-1.46,2.31-1.46c1.1,0,1.92,0.59,2.29,1.46C567.56,91.99,567.63,92.33,567.66,93.04 M569.96,94.66v-1.03
				c0-3.29-1.8-5.57-4.91-5.57c-2.97,0-4.91,2.17-4.91,5.92c0,4.41,2.31,5.94,5.21,5.94c2.04,0,3.15-0.62,4.34-1.8l-1.48-1.4
				c-0.82,0.82-1.51,1.19-2.81,1.19c-1.9,0-2.95-1.26-2.95-3.25H569.96z M556.92,99.78v-7.4c0-1.3-0.34-2.4-1.23-3.27
				c-0.68-0.66-1.73-1.05-2.92-1.05c-1.53,0-2.7,0.55-3.63,1.69c-0.73-1.12-1.85-1.69-3.29-1.69c-1.17,0-2.31,0.45-3.09,1.3V88.2
				h-2.28v11.58h2.33v-7.06c0-1.78,1.1-2.58,2.4-2.58s2.33,0.78,2.33,2.58v7.06h2.33v-7.18c0-1.67,1.15-2.47,2.4-2.47
				c1.3,0,2.33,0.78,2.33,2.58v7.06H556.92z M534.32,95.6c0,0.82-0.16,1.37-0.5,1.72c-0.62,0.59-1.28,0.66-2.17,0.66
				c-1.46,0-2.13-0.6-2.13-1.65c0-1.05,0.71-1.67,2.08-1.67h2.72V95.6z M536.64,99.78v-7.75c0-2.63-1.6-3.97-4.77-3.97
				c-1.92,0-3.06,0.39-4.16,1.66l1.53,1.44c0.64-0.82,1.26-1.12,2.54-1.12c1.81,0,2.54,0.71,2.54,2.17v0.83h-3.06
				c-2.65,0-4,1.39-4,3.33c0,0.98,0.32,1.88,0.91,2.49c0.71,0.71,1.66,1.05,3.11,1.05s2.24-0.34,3.09-1.19v1.05H536.64z
				 M523.92,99.78V83.51h-2.47v11.42l-7.52-11.42h-2.26v16.27h2.47V88.33l7.52,11.45H523.92z M507.99,100.35
				c-0.55-0.55-0.94-0.87-1.28-1.51c-0.23-0.44-0.34-1.05-0.34-1.87V86.32c0-0.82,0.12-1.44,0.34-1.87
				c0.34-0.64,0.73-0.96,1.28-1.51l-1.58-1.58c-0.73,0.73-1.39,1.35-1.85,2.17c-0.48,0.84-0.53,1.73-0.53,2.65v10.92
				c0,0.91,0.05,1.8,0.53,2.65c0.45,0.82,1.12,1.44,1.85,2.17L507.99,100.35z M323.01,99.78v-7.4c0-1.3-0.27-2.4-1.16-3.27
				c-0.69-0.66-1.67-1.05-2.86-1.05c-1.17,0-2.29,0.43-3.09,1.3V88.2h-2.28v11.58h2.33v-7.06c0-1.78,1.1-2.58,2.4-2.58
				c1.3,0,2.33,0.78,2.33,2.58v7.06H323.01z M309.8,99.78v-7.47c0-2.51-1.44-4.25-4.02-4.25c-1.14,0-2.2,0.43-2.99,1.3v-5.85h-2.33
				v16.27h2.33v-7.11c0-1.74,1.05-2.54,2.36-2.54c1.3,0,2.33,0.78,2.33,2.54v7.11H309.8z M294.74,93.98c0,1.26-0.09,2.47-0.8,3.18
				c-0.43,0.43-1.03,0.69-1.72,0.69c-0.69,0-1.26-0.25-1.69-0.69c-0.71-0.71-0.8-1.92-0.8-3.18c0-1.26,0.09-2.47,0.8-3.18
				c0.44-0.44,1.01-0.66,1.69-0.66c0.69,0,1.28,0.23,1.72,0.66C294.65,91.51,294.74,92.72,294.74,93.98 M297.07,93.98
				c0-1.94-0.27-3.41-1.37-4.55c-0.75-0.78-1.9-1.37-3.47-1.37c-1.58,0-2.7,0.59-3.45,1.37c-1.1,1.14-1.37,2.61-1.37,4.55
				c0,1.97,0.27,3.43,1.37,4.57c0.75,0.77,1.87,1.37,3.45,1.37c1.58,0,2.72-0.59,3.47-1.37C296.8,97.41,297.07,95.94,297.07,93.98
				 M284.68,95.14c0-1.39-0.44-2.56-1.33-3.34c-0.68-0.62-1.53-0.98-3.04-1.21l-1.85-0.28c-0.75-0.11-1.42-0.39-1.83-0.75
				c-0.44-0.39-0.62-0.91-0.62-1.51c0-1.44,1.05-2.54,2.97-2.54c1.37,0,2.54,0.3,3.54,1.26l1.58-1.55c-1.39-1.3-2.9-1.85-5.05-1.85
				c-3.38,0-5.44,1.94-5.44,4.77c0,1.33,0.39,2.35,1.19,3.11c0.71,0.66,1.76,1.12,3.09,1.3l1.92,0.27c0.96,0.14,1.37,0.3,1.78,0.69
				c0.44,0.39,0.64,0.98,0.64,1.69c0,1.58-1.23,2.49-3.36,2.49c-1.67,0-2.97-0.37-4.16-1.55l-1.64,1.62
				c1.55,1.58,3.31,2.15,5.76,2.15C282.24,99.92,284.68,98.14,284.68,95.14 M264.71,99.78v-7.4c0-1.3-0.27-2.4-1.16-3.27
				c-0.69-0.66-1.67-1.05-2.86-1.05c-1.17,0-2.29,0.43-3.09,1.3V88.2h-2.28v11.58h2.33v-7.06c0-1.78,1.1-2.58,2.4-2.58
				c1.3,0,2.33,0.78,2.33,2.58v7.06H264.71z M251.46,83.45h-2.47v2.47h2.47V83.45z M251.39,88.2h-2.33v11.58h2.33V88.2z
				 M243.44,93.04h-5.21c0.02-0.71,0.07-1.05,0.3-1.58c0.37-0.87,1.21-1.46,2.31-1.46c1.1,0,1.92,0.59,2.29,1.46
				C243.35,91.99,243.41,92.33,243.44,93.04 M245.74,94.66v-1.03c0-3.29-1.8-5.57-4.91-5.57c-2.97,0-4.91,2.17-4.91,5.92
				c0,4.41,2.31,5.94,5.21,5.94c2.04,0,3.15-0.62,4.34-1.8l-1.48-1.4c-0.82,0.82-1.51,1.19-2.81,1.19c-1.9,0-2.95-1.26-2.95-3.25
				H245.74z M232.7,99.78v-7.4c0-1.3-0.34-2.4-1.23-3.27c-0.68-0.66-1.73-1.05-2.93-1.05c-1.53,0-2.7,0.55-3.63,1.69
				c-0.73-1.12-1.85-1.69-3.29-1.69c-1.17,0-2.31,0.45-3.09,1.3V88.2h-2.28v11.58h2.33v-7.06c0-1.78,1.1-2.58,2.4-2.58
				c1.3,0,2.33,0.78,2.33,2.58v7.06h2.33v-7.18c0-1.67,1.14-2.47,2.4-2.47c1.3,0,2.33,0.78,2.33,2.58v7.06H232.7z M208.52,81.82
				h-2.24l-6.51,19.65h2.24L208.52,81.82z M193.78,89.16c-0.8-0.8-1.65-1.09-2.76-1.09c-1.3,0-2.49,0.57-3.08,1.39V88.2h-2.28v11.58
				h2.33v-7.04c0-1.6,1.05-2.61,2.31-2.61c0.8,0,1.21,0.25,1.74,0.78L193.78,89.16z M180.02,93.04h-5.21
				c0.02-0.71,0.07-1.05,0.3-1.58c0.37-0.87,1.21-1.46,2.31-1.46c1.1,0,1.92,0.59,2.29,1.46C179.93,91.99,180,92.33,180.02,93.04
				 M182.33,94.66v-1.03c0-3.29-1.8-5.57-4.91-5.57c-2.97,0-4.91,2.17-4.91,5.92c0,4.41,2.31,5.94,5.21,5.94
				c2.04,0,3.15-0.62,4.34-1.8l-1.48-1.4c-0.82,0.82-1.51,1.19-2.81,1.19c-1.9,0-2.95-1.26-2.95-3.25H182.33z M169.97,99.78V97.8
				h-0.96c-0.87,0-1.28-0.5-1.28-1.34v-6.24h2.24v-1.78h-2.24v-3.54h-2.33v3.54h-1.33v1.78h1.33v6.36c0,1.66,1,3.22,3.17,3.22
				H169.97z M161.31,99.78v-7.47c0-2.51-1.44-4.25-4.02-4.25c-1.14,0-2.2,0.43-2.99,1.3v-5.85h-2.33v16.27h2.33v-7.11
				c0-1.74,1.05-2.54,2.35-2.54c1.3,0,2.33,0.78,2.33,2.54v7.11H161.31z M149.04,98.28l-1.6-1.53c-0.73,0.8-1.3,1.1-2.22,1.1
				c-0.89,0-1.65-0.37-2.15-1.03c-0.5-0.64-0.69-1.49-0.69-2.83c0-1.35,0.18-2.17,0.69-2.81c0.5-0.66,1.26-1.03,2.15-1.03
				c0.91,0,1.49,0.3,2.22,1.1l1.6-1.55c-1.1-1.16-2.22-1.62-3.82-1.62c-2.61,0-5.16,1.57-5.16,5.92c0,4.34,2.56,5.94,5.16,5.94
				C146.82,99.92,147.94,99.44,149.04,98.28 M134.94,93.98c0,1.26-0.09,2.47-0.8,3.18c-0.44,0.43-1.03,0.69-1.72,0.69
				c-0.69,0-1.26-0.25-1.69-0.69c-0.71-0.71-0.8-1.92-0.8-3.18c0-1.26,0.09-2.47,0.8-3.18c0.43-0.44,1.01-0.66,1.69-0.66
				c0.69,0,1.28,0.23,1.72,0.66C134.85,91.51,134.94,92.72,134.94,93.98 M137.27,93.98c0-1.94-0.27-3.41-1.37-4.55
				c-0.75-0.78-1.9-1.37-3.47-1.37c-1.58,0-2.7,0.59-3.45,1.37c-1.09,1.14-1.37,2.61-1.37,4.55c0,1.97,0.27,3.43,1.37,4.57
				c0.76,0.77,1.87,1.37,3.45,1.37c1.58,0,2.72-0.59,3.47-1.37C136.99,97.41,137.27,95.94,137.27,93.98 M126.89,85.73v-2.22h-11.42
				v2.22h4.48v14.05h2.46V85.73H126.89z M105.3,93.04h-5.21c0.02-0.71,0.07-1.05,0.3-1.58c0.37-0.87,1.21-1.46,2.31-1.46
				c1.1,0,1.92,0.59,2.29,1.46C105.21,91.99,105.27,92.33,105.3,93.04 M107.61,94.66v-1.03c0-3.29-1.81-5.57-4.91-5.57
				c-2.97,0-4.91,2.17-4.91,5.92c0,4.41,2.3,5.94,5.21,5.94c2.03,0,3.15-0.62,4.34-1.8l-1.49-1.4c-0.82,0.82-1.51,1.19-2.81,1.19
				c-1.9,0-2.95-1.26-2.95-3.25H107.61z M94.56,99.78v-7.4c0-1.3-0.27-2.4-1.16-3.27c-0.68-0.66-1.67-1.05-2.86-1.05
				c-1.17,0-2.29,0.43-3.09,1.3V88.2h-2.28v11.58h2.33v-7.06c0-1.78,1.1-2.58,2.4-2.58c1.3,0,2.33,0.78,2.33,2.58v7.06H94.56z
				 M81.3,83.45h-2.47v2.47h2.47V83.45z M81.23,88.2h-2.33v11.58h2.33V88.2z M73.28,93.04h-5.21c0.02-0.71,0.07-1.05,0.3-1.58
				c0.37-0.87,1.21-1.46,2.31-1.46s1.92,0.59,2.29,1.46C73.19,91.99,73.26,92.33,73.28,93.04 M75.59,94.66v-1.03
				c0-3.29-1.8-5.57-4.91-5.57c-2.97,0-4.91,2.17-4.91,5.92c0,4.41,2.3,5.94,5.21,5.94c2.04,0,3.15-0.62,4.34-1.8l-1.48-1.4
				c-0.82,0.82-1.51,1.19-2.81,1.19c-1.9,0-2.95-1.26-2.95-3.25H75.59z M62.18,99.78V83.51h-2.47l-4.66,10.12l-4.76-10.12h-2.47
				v16.27h2.47V88.91l3.84,7.93h1.83l3.75-7.93v10.88H62.18z"/>
		</g>
		<g style="clip-path:url(#SVGID_00000176730774604403886310000017290210908460688310_);">
			<path class="st0" d="M199.08,360.96c0,0.98-0.66,1.62-1.76,1.62h-2.88v-3.23h2.88C198.42,359.36,199.08,359.95,199.08,360.96
				 M198.9,356.07c0,0.96-0.6,1.49-1.72,1.49h-2.74v-2.93h2.74C198.28,354.63,198.9,355.15,198.9,356.07 M201.37,361.12
				c0-1.33-0.64-2.19-1.8-2.72c1.07-0.5,1.62-1.33,1.62-2.49c0-1.87-1.37-3.11-3.49-3.11h-5.55v11.58h5.73
				C200.04,364.39,201.37,363.13,201.37,361.12 M185.78,350.15h2.49v-2.08h-2.49V350.15z M185.87,364.39h2.33v-11.36h-2.33V364.39z
				 M176.25,364.39v-6.01l4.69,6.01h2.86l-4.96-6.15l4.62-5.44h-2.79l-4.41,5.53v-5.53h-2.35v11.58H176.25z M168.62,360.78
				c0,1.07-0.66,1.72-1.83,1.72h-2.67v-3.41h2.67C167.96,359.09,168.62,359.73,168.62,360.78 M170.93,360.78
				c0-2.15-1.51-3.61-3.75-3.61h-3.06v-4.36h-2.33v11.58h5.39C169.42,364.39,170.93,362.93,170.93,360.78 M159.46,354.83v-2.03
				h-9.55v2.03h3.68v9.55h2.33v-9.55H159.46z M145.61,360.21c0,1.69-0.73,2.38-2.54,2.38c-1.58,0-2.29-0.53-2.29-1.65
				c0-1.1,0.71-1.65,2.08-1.65h2.74V360.21z M147.91,364.39v-7.75c0-2.63-1.62-3.97-4.84-3.97c-1.1,0-1.92,0.14-2.58,0.45
				c-0.57,0.25-0.87,0.53-1.51,1.21l1.53,1.44c0.34-0.44,0.59-0.66,0.94-0.82c0.41-0.21,0.89-0.3,1.55-0.3
				c1.83,0,2.61,0.64,2.61,2.15v0.85h-3.11c-2.47,0-3.97,1.25-3.97,3.36c0,2.24,1.44,3.5,4.02,3.5c1.37,0,2.13-0.21,3.09-1.16v1.05
				H147.91z M131.3,364.52c1.33,0,2.54-0.48,3.34-1.3c1-1.03,1.41-2.35,1.41-4.66c0-2.06-0.48-3.79-1.51-4.75
				c-0.69-0.64-1.72-0.98-2.83-0.98c-1.4,0-2.68,0.59-3.18,1.51c0-1.64,0.3-2.67,1.4-3.4c1.33-0.91,3.68-0.76,5.19-0.89v-2.05
				c-2.93,0.09-5.39,0.12-6.95,1.46c-1.46,1.26-1.73,2.54-1.73,7.57c0,1.94,0.13,3.95,0.68,5.12
				C127.83,363.68,129.38,364.52,131.3,364.52 M131.28,362.42c-0.69,0-1.28-0.23-1.72-0.69c-0.53-0.59-0.82-1.49-0.82-3.13
				c0-1.53,0.3-2.51,0.78-3.06c0.44-0.5,1.05-0.73,1.76-0.73c0.66,0,1.3,0.25,1.74,0.73c0.5,0.57,0.71,1.55,0.71,3.11
				s-0.25,2.51-0.73,3.09C132.56,362.22,131.92,362.42,131.28,362.42 M118.16,362.88l-1.58-1.55c-0.71,0.71-1.19,1.12-2.24,1.12
				c-1.87,0-2.83-1.3-2.83-3.86c0-2.52,0.96-3.84,2.83-3.84c1.03,0,1.55,0.41,2.24,1.1l1.58-1.53c-0.73-0.73-1.1-0.98-1.72-1.26
				c-0.59-0.25-1.28-0.39-2.08-0.39c-3.25,0-5.19,2.21-5.19,5.87c0,3.77,1.92,5.98,5.19,5.98c0.8,0,1.46-0.11,2.08-0.39
				C117.07,363.86,117.43,363.61,118.16,362.88 M105.84,364.39V352.8h-2.33l-4.96,7.86v-7.86h-2.33v11.58h2.33l4.96-7.97v7.97
				H105.84z M92.29,364.39V352.8h-9.28v11.58h2.33v-9.55h4.62v9.55H92.29z M70.86,352.8v2.94c0,3.57-0.59,5.14-1.33,6.61H68.3v5
				h2.22v-2.97h7.52v2.97h2.24v-5h-1.6v-9.55H70.86z M73.08,354.83h3.27v7.52h-4.37c0.66-1.42,1.1-2.99,1.1-5.67V354.83z
				 M63.46,350.15h2.49v-2.08h-2.49V350.15z M63.55,364.39h2.33v-11.36h-2.33V364.39z M59.34,364.39v-16.27H47.83v16.27h2.47v-14.05
				h6.58v14.05H59.34z"/>
		</g>
		<g style="clip-path:url(#SVGID_00000176730774604403886310000017290210908460688310_);">
			<path class="st0" d="M332.06,282.22h-2.79v2.79h2.79V282.22z M323.22,280.82c0,1.69-0.73,2.38-2.54,2.38
				c-1.58,0-2.29-0.53-2.29-1.65c0-1.1,0.71-1.65,2.08-1.65h2.74V280.82z M325.52,285.01v-7.75c0-2.63-1.62-3.97-4.84-3.97
				c-1.1,0-1.92,0.14-2.58,0.45c-0.57,0.25-0.87,0.53-1.51,1.21l1.53,1.44c0.34-0.44,0.59-0.66,0.94-0.82
				c0.41-0.21,0.89-0.3,1.55-0.3c1.83,0,2.61,0.64,2.61,2.15v0.85h-3.11c-2.47,0-3.97,1.25-3.97,3.36c0,2.24,1.44,3.49,4.02,3.49
				c1.37,0,2.13-0.2,3.09-1.16v1.05H325.52z M311.29,279.2c0,2.77-0.69,3.86-2.4,3.86s-2.42-1.1-2.42-3.77
				c0-1.33,0.14-2.19,0.44-2.81c0.37-0.76,1.01-1.12,1.97-1.12C310.6,275.36,311.29,276.44,311.29,279.2z M313.59,279.25
				c0-1.37-0.07-2.15-0.25-2.97c-0.46-2.01-1.87-2.99-3.93-2.99c-1.39,0-2.06,0.39-2.99,1.34v-1.21h-2.28v16.27h2.33v-5.87
				c0.87,0.96,1.65,1.32,2.97,1.32c1.19,0,2.19-0.37,2.88-1.05C313.23,283.18,313.59,281.76,313.59,279.25z M298.42,279.25
				c0,1.35-0.16,2.38-0.71,3.04c-0.41,0.48-1.03,0.78-1.81,0.78c-0.73,0-1.33-0.25-1.74-0.73c-0.52-0.6-0.75-1.51-0.75-3.04
				c0-1.37,0.14-2.45,0.71-3.16c0.41-0.48,1.01-0.78,1.78-0.78c0.78,0,1.37,0.3,1.78,0.76
				C298.28,276.78,298.42,277.81,298.42,279.25 M300.73,279.16c0-2.22-0.39-3.5-1.35-4.5c-0.87-0.89-2.08-1.37-3.47-1.37
				c-1.4,0-2.58,0.48-3.45,1.37c-0.98,1.03-1.37,2.29-1.37,4.55c0,2.29,0.39,3.54,1.37,4.57c0.87,0.89,2.06,1.37,3.45,1.37
				c1.4,0,2.61-0.48,3.47-1.37C300.36,282.75,300.73,281.49,300.73,279.16 M285.9,281.58c0,0.98-0.66,1.62-1.76,1.62h-2.88v-3.23
				h2.88C285.24,279.98,285.9,280.57,285.9,281.58 M285.71,276.69c0,0.96-0.59,1.49-1.71,1.49h-2.74v-2.93H284
				C285.1,275.25,285.71,275.77,285.71,276.69 M288.18,281.74c0-1.33-0.64-2.19-1.8-2.72c1.07-0.5,1.62-1.33,1.62-2.49
				c0-1.87-1.37-3.11-3.49-3.11h-5.55v11.58h5.73C286.86,285.01,288.18,283.75,288.18,281.74 M276.37,285.01l-3.98-5.92l3.82-5.66
				h-2.79l-2.29,3.77l-2.29-3.77h-2.81l3.82,5.66l-3.98,5.92h2.81l2.45-3.95l2.44,3.95H276.37z M265.22,267.05h-2.24l-6.51,19.65
				h2.24L265.22,267.05z M254.38,285.01v-11.58h-2.33l-4.96,7.86v-7.86h-2.33v11.58h2.33l4.96-7.97v7.97H254.38z M253.11,268.72
				h-1.85c-0.09,1.07-0.71,1.55-1.67,1.55c-0.96,0-1.58-0.48-1.67-1.55h-1.85c0.11,2.26,1.67,3.08,3.52,3.08
				C251.44,271.8,253.01,270.98,253.11,268.72 M240.83,285.01v-11.58h-2.33l-4.96,7.86v-7.86h-2.33v11.58h2.33l4.96-7.97v7.97
				H240.83z M225.5,279.2c0,2.77-0.69,3.86-2.4,3.86c-1.72,0-2.42-1.1-2.42-3.77c0-1.33,0.14-2.19,0.43-2.81
				c0.37-0.76,1.01-1.12,1.97-1.12C224.81,275.36,225.5,276.44,225.5,279.2z M227.81,279.25c0-1.37-0.07-2.15-0.25-2.97
				c-0.45-2.01-1.87-2.99-3.93-2.99c-1.4,0-2.06,0.39-2.99,1.34v-1.21h-2.28v16.27h2.33v-5.87c0.87,0.96,1.65,1.32,2.97,1.32
				c1.19,0,2.2-0.37,2.88-1.05C227.44,283.18,227.81,281.76,227.81,279.25z M212.63,279.25c0,1.35-0.16,2.38-0.71,3.04
				c-0.41,0.48-1.03,0.78-1.81,0.78c-0.73,0-1.33-0.25-1.74-0.73c-0.53-0.6-0.76-1.51-0.76-3.04c0-1.37,0.14-2.45,0.71-3.16
				c0.41-0.48,1.01-0.78,1.78-0.78c0.78,0,1.37,0.3,1.78,0.76C212.5,276.78,212.63,277.81,212.63,279.25 M214.94,279.16
				c0-2.22-0.39-3.5-1.34-4.5c-0.87-0.89-2.08-1.37-3.48-1.37c-1.39,0-2.58,0.48-3.45,1.37c-0.98,1.03-1.37,2.29-1.37,4.55
				c0,2.29,0.39,3.54,1.37,4.57c0.87,0.89,2.06,1.37,3.45,1.37c1.4,0,2.61-0.48,3.48-1.37
				C214.58,282.75,214.94,281.49,214.94,279.16 M200.11,281.58c0,0.98-0.66,1.62-1.76,1.62h-2.88v-3.23h2.88
				C199.45,279.98,200.11,280.57,200.11,281.58 M199.93,276.69c0,0.96-0.59,1.49-1.72,1.49h-2.74v-2.93h2.74
				C199.31,275.25,199.93,275.77,199.93,276.69 M202.39,281.74c0-1.33-0.64-2.19-1.8-2.72c1.07-0.5,1.62-1.33,1.62-2.49
				c0-1.87-1.37-3.11-3.5-3.11h-5.55v11.58h5.73C201.07,285.01,202.39,283.75,202.39,281.74 M190.58,285.01l-3.98-5.92l3.82-5.66
				h-2.79l-2.29,3.77l-2.29-3.77h-2.81l3.82,5.66l-3.98,5.92h2.81l2.45-3.95l2.44,3.95H190.58z M169.99,281.58
				c0,0.98-0.66,1.62-1.76,1.62h-2.88v-3.23h2.88C169.33,279.98,169.99,280.57,169.99,281.58 M169.81,276.69
				c0,0.96-0.59,1.49-1.72,1.49h-2.74v-2.93h2.74C169.19,275.25,169.81,275.77,169.81,276.69 M172.28,281.74
				c0-1.33-0.64-2.19-1.8-2.72c1.07-0.5,1.62-1.33,1.62-2.49c0-1.87-1.37-3.11-3.5-3.11h-5.55v11.58h5.73
				C170.95,285.01,172.28,283.75,172.28,281.74 M160.81,273.42h-2.49l-2.7,8.18l-2.76-8.18h-2.49l4.07,11.04l-0.64,1.83
				c-0.34,0.98-0.71,1.21-1.67,1.21h-0.59v2.1h0.94c1.67,0,2.65-0.71,3.22-2.28L160.81,273.42z M144.19,285.14
				c1.33,0,2.54-0.48,3.34-1.3c1.01-1.03,1.42-2.35,1.42-4.66c0-2.06-0.48-3.79-1.51-4.75c-0.69-0.64-1.72-0.98-2.84-0.98
				c-1.39,0-2.67,0.59-3.18,1.51c0-1.64,0.3-2.67,1.4-3.4c1.33-0.91,3.68-0.76,5.19-0.89v-2.05c-2.93,0.09-5.4,0.12-6.95,1.46
				c-1.46,1.26-1.74,2.54-1.74,7.57c0,1.94,0.14,3.95,0.69,5.12C140.72,284.3,142.27,285.14,144.19,285.14 M144.17,283.04
				c-0.69,0-1.28-0.23-1.72-0.69c-0.53-0.59-0.82-1.49-0.82-3.13c0-1.53,0.3-2.51,0.78-3.06c0.44-0.5,1.05-0.73,1.76-0.73
				c0.66,0,1.3,0.25,1.74,0.73c0.5,0.57,0.71,1.55,0.71,3.11s-0.25,2.51-0.73,3.09C145.45,282.84,144.81,283.04,144.17,283.04
				 M128.27,279.25c0,1.35-0.16,2.38-0.71,3.04c-0.41,0.48-1.03,0.78-1.81,0.78c-0.73,0-1.33-0.25-1.74-0.73
				c-0.53-0.6-0.76-1.51-0.76-3.04c0-1.37,0.14-2.45,0.71-3.16c0.41-0.48,1.01-0.78,1.78-0.78c0.78,0,1.37,0.3,1.78,0.76
				C128.13,276.78,128.27,277.81,128.27,279.25 M130.57,279.16c0-2.22-0.39-3.5-1.35-4.5c-0.87-0.89-2.08-1.37-3.47-1.37
				c-1.4,0-2.58,0.48-3.45,1.37c-0.98,1.03-1.37,2.29-1.37,4.55c0,2.29,0.39,3.54,1.37,4.57c0.87,0.89,2.06,1.37,3.45,1.37
				c1.4,0,2.61-0.48,3.47-1.37C130.21,282.75,130.57,281.49,130.57,279.16 M118.76,287.98v-5h-1.65v-9.55h-2.33v9.55h-3.91v-9.55
				h-2.33v9.55h-3.93v-9.55h-2.33v11.58h14.26v2.97H118.76z M94.33,273.42h-2.49l-2.7,8.18l-2.76-8.18h-2.49l4.07,11.04l-0.64,1.83
				c-0.34,0.98-0.71,1.21-1.67,1.21h-0.59v2.1h0.94c1.67,0,2.65-0.71,3.22-2.28L94.33,273.42z M81.62,285.01v-11.58h-2.28l-3.45,6.9
				l-3.47-6.9h-2.3v11.58h2.33v-7.43l2.72,5.3h1.46l2.67-5.3v7.43H81.62z M64.4,279.25c0,1.35-0.16,2.38-0.71,3.04
				c-0.41,0.48-1.03,0.78-1.81,0.78c-0.73,0-1.33-0.25-1.74-0.73c-0.53-0.6-0.76-1.51-0.76-3.04c0-1.37,0.14-2.45,0.71-3.16
				c0.41-0.48,1.01-0.78,1.78-0.78c0.78,0,1.37,0.3,1.78,0.76C64.26,276.78,64.4,277.81,64.4,279.25 M66.7,279.16
				c0-2.22-0.39-3.5-1.35-4.5c-0.87-0.89-2.08-1.37-3.47-1.37c-1.4,0-2.58,0.48-3.45,1.37c-0.98,1.03-1.37,2.29-1.37,4.55
				c0,2.29,0.39,3.54,1.37,4.57c0.87,0.89,2.06,1.37,3.45,1.37c1.4,0,2.61-0.48,3.47-1.37C66.33,282.75,66.7,281.49,66.7,279.16
				 M55.5,275.45v-2.03h-9.55v2.03h3.68v9.55h2.33v-9.55H55.5z"/>
		</g>
		<g style="clip-path:url(#SVGID_00000176730774604403886310000017290210908460688310_);">
			<path class="st0" d="M246.46,199.87c0,1.35-0.16,2.38-0.71,3.04c-0.41,0.48-1.03,0.78-1.81,0.78c-0.73,0-1.33-0.25-1.74-0.73
				c-0.53-0.6-0.76-1.51-0.76-3.04c0-1.37,0.14-2.45,0.71-3.16c0.41-0.48,1.01-0.78,1.78-0.78c0.78,0,1.37,0.3,1.78,0.76
				C246.32,197.4,246.46,198.43,246.46,199.87 M248.76,199.78c0-2.22-0.39-3.5-1.34-4.5c-0.87-0.89-2.08-1.37-3.48-1.37
				c-1.39,0-2.58,0.48-3.45,1.37c-0.98,1.03-1.37,2.29-1.37,4.55c0,2.29,0.39,3.54,1.37,4.57c0.87,0.89,2.06,1.37,3.45,1.37
				c1.4,0,2.61-0.48,3.48-1.37C248.4,203.37,248.76,202.11,248.76,199.78 M227.51,194.04v2.94c0,3.57-0.59,5.14-1.33,6.61h-1.23v5
				h2.22v-2.97h7.52v2.97h2.24v-5h-1.6v-9.55H227.51z M229.73,196.07H233v7.52h-4.37c0.66-1.42,1.1-2.99,1.1-5.67V196.07z
				 M127.78,202.27c0-1.28-0.75-2.29-1.87-2.7c1.05-0.43,1.69-1.42,1.69-2.54c0-2.03-1.92-3.13-4.16-3.13c-1.67,0-3.2,0.32-4.48,1.3
				l1.3,1.49c0.85-0.59,1.78-0.89,2.79-0.89c1.37,0,2.26,0.48,2.26,1.46c0,0.98-0.73,1.55-1.85,1.55h-1.71v1.76h1.74
				c1.21,0,2.01,0.48,2.01,1.56c0,1.08-1.26,1.65-2.45,1.65c-1.26,0-2.24-0.32-3.15-1.17l-1.39,1.49c1.37,1.25,3.04,1.66,4.87,1.66
				C125.73,205.76,127.78,204.39,127.78,202.27 M111.86,194.04h-2.49l-2.7,8.18l-2.77-8.18h-2.49l4.07,11.04l-0.64,1.83
				c-0.34,0.98-0.71,1.21-1.67,1.21h-0.59v2.1h0.94c1.67,0,2.65-0.71,3.22-2.28L111.86,194.04z M99.15,205.62v-11.58h-7.93v4.82
				c0,4.48-1.19,4.71-2.19,4.71h-0.37v2.05h1.1c2.26,0,3.7-1.28,3.7-6.19v-3.36h3.36v9.55H99.15z M84.69,199.87
				c0,1.35-0.16,2.38-0.71,3.04c-0.41,0.48-1.03,0.78-1.81,0.78c-0.73,0-1.33-0.25-1.74-0.73c-0.52-0.6-0.76-1.51-0.76-3.04
				c0-1.37,0.14-2.45,0.71-3.16c0.41-0.48,1.01-0.78,1.78-0.78c0.78,0,1.37,0.3,1.78,0.76C84.55,197.4,84.69,198.43,84.69,199.87
				 M86.99,199.78c0-2.22-0.39-3.5-1.34-4.5c-0.87-0.89-2.08-1.37-3.47-1.37c-1.4,0-2.58,0.48-3.45,1.37
				c-0.98,1.03-1.37,2.29-1.37,4.55c0,2.29,0.39,3.54,1.37,4.57c0.87,0.89,2.06,1.37,3.45,1.37c1.39,0,2.61-0.48,3.47-1.37
				C86.63,203.37,86.99,202.11,86.99,199.78 M68.73,205.62v-6.01l4.68,6.01h2.86l-4.96-6.15l4.62-5.44h-2.79l-4.41,5.53v-5.53h-2.35
				v11.58H68.73z M62.38,205.62v-11.58h-2.33v9.55h-3.91v-9.55h-2.33v9.55h-3.94v-9.55h-2.33v11.58H62.38z"/>
		</g>
		<g style="clip-path:url(#SVGID_00000176730774604403886310000017290210908460688310_);">
			<path class="st0" d="M940.23,126.24v-11.58h-2.33l-4.96,7.86v-7.86h-2.33v11.58h2.33l4.96-7.97v7.97H940.23z M928.28,116.69
				v-2.03h-9.55v2.03h3.68v9.55h2.33v-9.55H928.28z M914.43,122.06c0,1.69-0.73,2.38-2.54,2.38c-1.58,0-2.29-0.53-2.29-1.65
				c0-1.1,0.71-1.65,2.08-1.65h2.74V122.06z M916.74,126.24v-7.75c0-2.63-1.62-3.97-4.84-3.97c-1.1,0-1.92,0.14-2.58,0.45
				c-0.57,0.25-0.87,0.53-1.51,1.21l1.53,1.44c0.34-0.44,0.59-0.66,0.94-0.82c0.41-0.21,0.89-0.3,1.56-0.3
				c1.83,0,2.61,0.64,2.61,2.15v0.85h-3.11c-2.47,0-3.98,1.25-3.98,3.36c0,2.24,1.44,3.49,4.02,3.49c1.37,0,2.13-0.2,3.09-1.16v1.05
				H916.74z M902.48,122.82c0,0.98-0.66,1.62-1.76,1.62h-2.88v-3.23h2.88C901.82,121.21,902.48,121.81,902.48,122.82 M902.3,117.93
				c0,0.96-0.59,1.49-1.72,1.49h-2.74v-2.93h2.74C901.68,116.48,902.3,117.01,902.3,117.93 M904.76,122.98
				c0-1.33-0.64-2.19-1.8-2.72c1.07-0.5,1.62-1.33,1.62-2.49c0-1.87-1.37-3.11-3.5-3.11h-5.55v11.58h5.73
				C903.44,126.24,904.76,124.99,904.76,122.98 M893.29,114.66h-2.49l-2.7,8.18l-2.77-8.18h-2.49l4.07,11.04l-0.64,1.83
				c-0.34,0.98-0.71,1.21-1.67,1.21h-0.59v2.1h0.94c1.67,0,2.65-0.71,3.22-2.28L893.29,114.66z M872.39,114.66v2.94
				c0,3.57-0.59,5.14-1.33,6.61h-1.23v5h2.22v-2.97h7.52v2.97h2.24v-5h-1.6v-9.55H872.39z M874.6,116.69h3.27v7.52h-4.37
				c0.66-1.42,1.1-2.99,1.1-5.67V116.69z M864.98,112.01h2.49v-2.08h-2.49V112.01z M865.07,126.24h2.33v-11.36h-2.33V126.24z
				 M859.34,122.82c0,0.98-0.66,1.62-1.76,1.62h-2.88v-3.23h2.88C858.67,121.21,859.34,121.81,859.34,122.82 M859.15,117.93
				c0,0.96-0.59,1.49-1.72,1.49h-2.74v-2.93h2.74C858.53,116.48,859.15,117.01,859.15,117.93 M861.62,122.98
				c0-1.33-0.64-2.19-1.8-2.72c1.07-0.5,1.62-1.33,1.62-2.49c0-1.87-1.37-3.11-3.5-3.11h-5.55v11.58h5.73
				C860.3,126.24,861.62,124.99,861.62,122.98 M840.23,114.66v2.94c0,3.57-0.59,5.14-1.33,6.61h-1.23v5h2.22v-2.97h7.51v2.97h2.24
				v-5h-1.6v-9.55H840.23z M842.45,116.69h3.27v7.52h-4.36c0.66-1.42,1.1-2.99,1.1-5.67V116.69z M832.83,112.01h2.49v-2.08h-2.49
				V112.01z M832.92,126.24h2.33v-11.36h-2.33V126.24z M827.18,122.82c0,0.98-0.66,1.62-1.76,1.62h-2.88v-3.23h2.88
				C826.52,121.21,827.18,121.81,827.18,122.82 M827,117.93c0,0.96-0.59,1.49-1.72,1.49h-2.74v-2.93h2.74
				C826.38,116.48,827,117.01,827,117.93 M829.47,122.98c0-1.33-0.64-2.19-1.8-2.72c1.07-0.5,1.62-1.33,1.62-2.49
				c0-1.87-1.37-3.11-3.5-3.11h-5.55v11.58h5.73C828.14,126.24,829.47,124.99,829.47,122.98 M808.4,122.06
				c0,1.69-0.73,2.38-2.54,2.38c-1.58,0-2.29-0.53-2.29-1.65c0-1.1,0.71-1.65,2.08-1.65h2.74V122.06z M810.7,126.24v-7.75
				c0-2.63-1.62-3.97-4.84-3.97c-1.1,0-1.92,0.14-2.58,0.45c-0.57,0.25-0.87,0.53-1.51,1.21l1.53,1.44
				c0.34-0.44,0.59-0.66,0.94-0.82c0.41-0.21,0.89-0.3,1.55-0.3c1.83,0,2.61,0.64,2.61,2.15v0.85h-3.11c-2.47,0-3.97,1.25-3.97,3.36
				c0,2.24,1.44,3.49,4.02,3.49c1.37,0,2.13-0.2,3.09-1.16v1.05H810.7z M798.23,126.24v-11.58h-7.93v4.82
				c0,4.48-1.19,4.71-2.19,4.71h-0.37v2.05h1.1c2.26,0,3.7-1.28,3.7-6.19v-3.36h3.36v9.55H798.23z M787.12,116.69v-2.03h-7.51v11.58
				h2.33v-9.55H787.12z M773.8,120.49c0,1.35-0.16,2.38-0.71,3.04c-0.41,0.48-1.03,0.78-1.81,0.78c-0.73,0-1.33-0.25-1.74-0.73
				c-0.53-0.6-0.76-1.51-0.76-3.04c0-1.37,0.14-2.45,0.71-3.16c0.41-0.48,1.01-0.78,1.78-0.78c0.78,0,1.37,0.3,1.78,0.76
				C773.66,118.02,773.8,119.04,773.8,120.49 M776.11,120.39c0-2.22-0.39-3.5-1.34-4.5c-0.87-0.89-2.08-1.37-3.48-1.37
				c-1.39,0-2.58,0.48-3.45,1.37c-0.98,1.03-1.37,2.29-1.37,4.55c0,2.29,0.39,3.54,1.37,4.57c0.87,0.89,2.06,1.37,3.45,1.37
				c1.4,0,2.61-0.48,3.48-1.37C775.74,123.98,776.11,122.73,776.11,120.39 M763.06,126.24v-11.58h-2.28l-3.45,6.9l-3.48-6.9h-2.3
				v11.58h2.33v-7.43l2.72,5.3h1.46l2.67-5.3v7.43H763.06z M740.21,119.5H735c0.05-1.6,0.73-3.04,2.61-3.04
				C739.5,116.46,740.09,117.93,740.21,119.5 M742.49,121.14v-1.05c0-3.41-1.89-5.57-4.89-5.57c-3.04,0-4.91,2.24-4.91,5.87
				c0,3.93,1.78,5.98,5.25,5.98c1.85,0,2.97-0.52,4.27-1.8l-1.46-1.4c-0.82,0.8-1.55,1.21-2.72,1.21c-2.17,0-2.99-1.3-3.04-3.25
				H742.49z M729.35,126.24v-11.58h-2.33v4.62h-4.62v-4.62h-2.33v11.58h2.33v-4.94h4.62v4.94H729.35z M718.06,108.28h-2.24
				l-6.51,19.65h2.24L718.06,108.28z M708.81,116.69v-2.03h-7.51v11.58h2.33v-9.55H708.81z M694.85,112.01h2.49v-2.08h-2.49V112.01z
				 M694.94,126.24h2.33v-11.36h-2.33V126.24z M690.98,126.24v-11.58h-2.28l-3.45,6.9l-3.48-6.9h-2.3v11.58h2.33v-7.43l2.72,5.3
				h1.46l2.67-5.3v7.43H690.98z M668.13,119.5h-5.21c0.05-1.6,0.73-3.04,2.61-3.04C667.42,116.46,668.02,117.93,668.13,119.5
				 M670.42,121.14v-1.05c0-3.41-1.9-5.57-4.89-5.57c-3.04,0-4.91,2.24-4.91,5.87c0,3.93,1.78,5.98,5.26,5.98
				c1.85,0,2.97-0.52,4.27-1.8l-1.46-1.4c-0.82,0.8-1.55,1.21-2.72,1.21c-2.17,0-2.99-1.3-3.04-3.25H670.42z M657.28,126.24v-11.58
				h-2.33v4.62h-4.62v-4.62H648v11.58h2.33v-4.94h4.62v4.94H657.28z M638.27,123.57v-10.92c0-0.91-0.07-1.8-0.55-2.65
				c-0.46-0.82-1.1-1.44-1.83-2.17l-1.6,1.6c0.55,0.55,0.91,0.87,1.26,1.51c0.23,0.43,0.34,1.05,0.34,1.85v10.65
				c0,0.8-0.12,1.42-0.34,1.85c-0.34,0.64-0.71,0.96-1.26,1.51l1.6,1.6c0.73-0.73,1.37-1.35,1.83-2.17
				C638.2,125.37,638.27,124.48,638.27,123.57 M630.88,126.24v-11.58h-2.33l-4.96,7.86v-7.86h-2.33v11.58h2.33l4.96-7.97v7.97
				H630.88z M617.33,126.24v-11.58H615v4.62h-4.62v-4.62h-2.33v11.58h2.33v-4.94H615v4.94H617.33z M604.12,126.24v-11.58h-2.33
				l-4.96,7.86v-7.86h-2.33v11.58h2.33l4.96-7.97v7.97H604.12z M592.17,116.69v-2.03h-9.55v2.03h3.68v9.55h2.33v-9.55H592.17z
				 M580.29,126.24v-11.58h-2.33l-4.96,7.86v-7.86h-2.33v11.58H573l4.96-7.97v7.97H580.29z M558.51,114.66v2.94
				c0,3.57-0.59,5.14-1.33,6.61h-1.23v5h2.22v-2.97h7.51v2.97h2.24v-5h-1.6v-9.55H558.51z M560.73,116.69H564v7.52h-4.36
				c0.66-1.42,1.1-2.99,1.1-5.67V116.69z M541.17,126.24l2.19-4.32h2.13v4.32h2.33v-11.58h-5.46c-2.24,0-3.75,1.46-3.75,3.54
				c0,1.67,0.94,2.88,2.4,3.29l-2.51,4.75H541.17z M545.51,120.05h-2.72c-1.21,0-1.9-0.66-1.9-1.74c0-1.1,0.69-1.78,1.9-1.78h2.72
				V120.05z M535.52,109.97h-2.3v4.36h2.3V109.97z M529.33,126.24v-11.58h-2.28l-3.45,6.9l-3.48-6.9h-2.3v11.58h2.33v-7.43l2.72,5.3
				h1.46l2.67-5.3v7.43H529.33z M513.61,109.97h-2.47v16.27h2.47V109.97z M507.46,126.81c-0.55-0.55-0.94-0.87-1.28-1.51
				c-0.23-0.44-0.34-1.05-0.34-1.87v-10.65c0-0.82,0.12-1.44,0.34-1.87c0.34-0.64,0.73-0.96,1.28-1.51l-1.58-1.58
				c-0.73,0.73-1.39,1.35-1.85,2.17c-0.48,0.84-0.53,1.73-0.53,2.65v10.92c0,0.91,0.05,1.8,0.53,2.65c0.45,0.82,1.12,1.44,1.85,2.17
				L507.46,126.81z M267.75,126.24v-11.58h-2.33v4.62h-4.62v-4.62h-2.33v11.58h2.33v-4.94h4.62v4.94H267.75z M254.54,126.24v-11.58
				h-2.33l-4.96,7.86v-7.86h-2.33v11.58h2.33l4.96-7.97v7.97H254.54z M242,124.74l-1.58-1.55c-0.71,0.71-1.19,1.12-2.24,1.12
				c-1.87,0-2.83-1.3-2.83-3.86c0-2.52,0.96-3.84,2.83-3.84c1.03,0,1.55,0.41,2.24,1.1l1.58-1.53c-0.73-0.73-1.1-0.98-1.71-1.26
				c-0.59-0.25-1.28-0.39-2.08-0.39c-3.25,0-5.18,2.21-5.18,5.87c0,3.77,1.92,5.98,5.18,5.98c0.8,0,1.46-0.11,2.08-0.39
				C240.9,125.72,241.27,125.47,242,124.74 M223.97,126.24v-11.58h-2.33l-4.96,7.86v-7.86h-2.33v11.58h2.33l4.96-7.97v7.97H223.97z
				 M222.69,109.95h-1.85c-0.09,1.07-0.71,1.55-1.67,1.55c-0.96,0-1.58-0.48-1.67-1.55h-1.85c0.12,2.26,1.67,3.08,3.52,3.08
				C221.02,113.03,222.6,112.21,222.69,109.95 M207.99,112.01h2.49v-2.08h-2.49V112.01z M208.09,126.24h2.33v-11.36h-2.33V126.24z
				 M204.13,126.24v-11.58h-2.28l-3.45,6.9l-3.48-6.9h-2.3v11.58h2.33v-7.43l2.72,5.3h1.46l2.67-5.3v7.43H204.13z M184.89,108.28
				h-2.24l-6.51,19.65h2.24L184.89,108.28z M166.15,122.06c0,1.69-0.73,2.38-2.54,2.38c-1.58,0-2.29-0.53-2.29-1.65
				c0-1.1,0.71-1.65,2.08-1.65h2.74V122.06z M168.46,126.24v-7.75c0-2.63-1.62-3.97-4.84-3.97c-1.1,0-1.92,0.14-2.58,0.45
				c-0.57,0.25-0.87,0.53-1.51,1.21l1.53,1.44c0.34-0.44,0.59-0.66,0.94-0.82c0.41-0.21,0.89-0.3,1.56-0.3
				c1.83,0,2.61,0.64,2.61,2.15v0.85h-3.11c-2.47,0-3.98,1.25-3.98,3.36c0,2.24,1.44,3.49,4.02,3.49c1.37,0,2.13-0.2,3.09-1.16v1.05
				H168.46z M150.32,126.24v-6.01l4.68,6.01h2.86l-4.96-6.15l4.62-5.44h-2.79l-4.41,5.53v-5.53h-2.35v11.58H150.32z M142.69,122.63
				c0,1.07-0.66,1.72-1.83,1.72h-2.68v-3.41h2.68C142.02,120.94,142.69,121.58,142.69,122.63 M144.99,122.63
				c0-2.15-1.51-3.61-3.75-3.61h-3.06v-4.36h-2.33v11.58h5.39C143.48,126.24,144.99,124.78,144.99,122.63 M131.92,126.24v-11.58
				h-2.33v4.62h-4.62v-4.62h-2.33v11.58h2.33v-4.94h4.62v4.94H131.92z M116.93,120.49c0,1.35-0.16,2.38-0.71,3.04
				c-0.41,0.48-1.03,0.78-1.81,0.78c-0.73,0-1.33-0.25-1.74-0.73c-0.53-0.6-0.76-1.51-0.76-3.04c0-1.37,0.14-2.45,0.71-3.16
				c0.41-0.48,1.01-0.78,1.78-0.78c0.78,0,1.37,0.3,1.78,0.76C116.79,118.02,116.93,119.04,116.93,120.49 M119.24,120.39
				c0-2.22-0.39-3.5-1.35-4.5c-0.87-0.89-2.08-1.37-3.47-1.37s-2.58,0.48-3.45,1.37c-0.98,1.03-1.37,2.29-1.37,4.55
				c0,2.29,0.39,3.54,1.37,4.57c0.87,0.89,2.05,1.37,3.45,1.37s2.61-0.48,3.47-1.37C118.87,123.98,119.24,122.73,119.24,120.39
				 M97.99,114.66v2.94c0,3.57-0.59,5.14-1.33,6.61h-1.23v5h2.22v-2.97h7.51v2.97h2.24v-5h-1.6v-9.55H97.99z M100.2,116.69h3.27
				v7.52h-4.36c0.66-1.42,1.1-2.99,1.1-5.67V116.69z M80.64,126.24l2.19-4.32h2.13v4.32h2.33v-11.58h-5.46
				c-2.24,0-3.75,1.46-3.75,3.54c0,1.67,0.94,2.88,2.4,3.29l-2.51,4.75H80.64z M84.98,120.05h-2.72c-1.21,0-1.9-0.66-1.9-1.74
				c0-1.1,0.69-1.78,1.9-1.78h2.72V120.05z M73.15,120.49c0,1.35-0.16,2.38-0.71,3.04c-0.41,0.48-1.03,0.78-1.81,0.78
				c-0.73,0-1.33-0.25-1.74-0.73c-0.53-0.6-0.76-1.51-0.76-3.04c0-1.37,0.14-2.45,0.71-3.16c0.41-0.48,1.01-0.78,1.78-0.78
				c0.78,0,1.37,0.3,1.78,0.76C73.01,118.02,73.15,119.04,73.15,120.49 M75.45,120.39c0-2.22-0.39-3.5-1.34-4.5
				c-0.87-0.89-2.08-1.37-3.48-1.37c-1.39,0-2.58,0.48-3.45,1.37c-0.98,1.03-1.37,2.29-1.37,4.55c0,2.29,0.39,3.54,1.37,4.57
				c0.87,0.89,2.06,1.37,3.45,1.37c1.4,0,2.61-0.48,3.48-1.37C75.09,123.98,75.45,122.73,75.45,120.39 M62.18,126.24v-16.27h-2.47
				l-4.69,10.12l-4.75-10.12h-2.44v16.27h2.47v-10.88l3.82,7.93h1.83l3.75-7.93v10.88H62.18z"/>
		</g>
	</g>
</g>
</svg>
