<?xml version="1.0" encoding="UTF-8"?><svg id="a" xmlns="http://www.w3.org/2000/svg" xmlns:xlink="http://www.w3.org/1999/xlink" viewBox="0 0 1000 385.02"><defs><style>.f{fill:none;}.g{fill:#e59c00;}.h{fill:#fff;}.i{fill:#dad6e4;}.j{fill:#2b2961;}.k{clip-path:url(#c);}.l{clip-path:url(#b);}.m{clip-path:url(#e);}.n{clip-path:url(#d);}</style><clipPath id="b"><rect class="f" y="21.62" width="1000" height="341.79"/></clipPath><clipPath id="c"><rect class="f" y="21.62" width="1000" height="341.79"/></clipPath><clipPath id="d"><rect class="f" y="21.62" width="1000" height="341.79"/></clipPath><clipPath id="e"><rect class="f" y="21.62" width="1000" height="341.79"/></clipPath></defs><polygon class="g" points="3.44 22.33 3.44 354.13 969.34 354.13 991.27 221.59 991.27 22.33 3.44 22.33"/><path class="g" d="M969.58,354.41H3.16V22.05H991.56V221.59l-21.97,132.82Zm-965.85-.56H969.09l21.89-132.31V22.61H3.73V353.85Z"/><g class="l"><path class="j" d="M990.61,354.93H.72c-.4,0-.72-.31-.72-.7V22.32c0-.39,.32-.7,.72-.7H990.61c.4,0,.72,.31,.72,.7V354.23c0,.39-.32,.7-.72,.7ZM1.44,353.52H989.89V23.02H1.44V353.52Z"/></g><polygon class="h" points="9.39 30.79 9.39 362.7 981.9 362.7 999.28 345.73 999.28 30.79 9.39 30.79"/><g class="k"><path class="j" d="M981.9,363.4H9.39c-.4,0-.72-.31-.72-.7V30.79c0-.39,.32-.7,.72-.7H999.28c.4,0,.72,.31,.72,.7V345.73c0,.19-.08,.37-.21,.5l-17.38,16.97c-.13,.13-.32,.21-.51,.21Zm-971.79-1.41H981.6l16.96-16.56V31.5H10.11V362Z"/></g><polygon class="h" points="981.73 345.55 981.73 362.71 999.28 345.55 981.73 345.55"/><g class="n"><path class="j" d="M981.73,363.35c-.09,0-.17-.02-.25-.05-.25-.1-.41-.34-.41-.6v-17.15c0-.36,.3-.65,.66-.65h17.56c.27,0,.51,.16,.62,.4,.1,.24,.04,.52-.15,.71l-17.56,17.15c-.13,.12-.3,.19-.47,.19Zm.66-17.15v14.93l15.28-14.93h-15.28Z"/></g><polygon class="g" points="983.5 345.89 983.5 361.33 998.05 345.89 983.5 345.89"/><path class="g" d="M983.22,362.05v-16.44h15.49l-15.49,16.44Zm.57-15.88v14.44l13.6-14.44h-13.6Z"/><g class="m"><path class="j" d="M981.73,363.35c-.09,0-.17-.02-.25-.05-.25-.1-.41-.34-.41-.6v-17.15c0-.36,.3-.65,.66-.65h17.56c.27,0,.51,.16,.62,.4,.1,.24,.04,.52-.15,.71l-17.56,17.15c-.13,.12-.3,.19-.47,.19Zm.66-17.15v14.93l15.28-14.93h-15.28Z"/><path class="g" d="M426.64,288.8v-2.41l-5.6-2.55,5.6-2.57v-2.41l-8.43,3.95v2.03l8.43,3.95Zm-12.41,0v-2.41l-5.6-2.55,5.6-2.57v-2.41l-8.43,3.95v2.03l8.43,3.95Zm-18.03-1.49h-2.79v2.72h2.79v-2.72Zm-6.54,2.72v-7.23c0-1.27-.27-2.34-1.16-3.19-.69-.65-1.67-1.02-2.86-1.02s-2.29,.42-3.09,1.27v-1.14h-2.28v11.32h2.33v-6.9c0-1.74,1.1-2.52,2.4-2.52s2.33,.76,2.33,2.52v6.9h2.33Zm-13.32-11.32h-2.33v11.32h2.33v-11.32Zm-5.12,11.32v-1.94h-1.03c-.94,0-1.26-.45-1.26-1.32v-12.64h-2.33v12.77c0,1.67,.96,3.12,3.17,3.12h1.44Zm-10.69-4.08c0,.8-.16,1.34-.5,1.68-.62,.58-1.28,.65-2.17,.65-1.46,0-2.13-.58-2.13-1.61s.71-1.63,2.08-1.63h2.72v.92Zm2.33,4.08v-7.57c0-2.57-1.6-3.88-4.77-3.88-1.92,0-3.06,.38-4.16,1.63l1.53,1.41c.64-.8,1.26-1.1,2.54-1.1,1.81,0,2.54,.69,2.54,2.12v.81h-3.06c-2.65,0-4,1.36-4,3.26,0,.96,.32,1.83,.91,2.44,.71,.69,1.67,1.02,3.11,1.02s2.24-.33,3.09-1.16v1.02h2.28Zm-11.11,0l-4.52-6.87,4.02-4.44h-2.83l-4.5,5.22v-9.8h-2.33v15.9h2.33v-3.33l1.72-1.9,3.25,5.22h2.88Zm-16.31-4.08c0,.8-.16,1.34-.5,1.68-.62,.58-1.28,.65-2.17,.65-1.46,0-2.13-.58-2.13-1.61s.71-1.63,2.08-1.63h2.72v.92Zm2.33,4.08v-7.57c0-2.57-1.6-3.88-4.77-3.88-1.92,0-3.06,.38-4.16,1.63l1.53,1.41c.64-.8,1.26-1.1,2.54-1.1,1.81,0,2.54,.69,2.54,2.12v.81h-3.06c-2.65,0-4,1.36-4,3.26,0,.96,.32,1.83,.91,2.44,.71,.69,1.67,1.02,3.11,1.02s2.24-.33,3.09-1.16v1.02h2.28Zm-14.31,1.43h-1.87l-1.6,3.28h2.31l1.16-3.28Zm2.95-2.9l-1.6-1.49c-.73,.78-1.3,1.07-2.22,1.07s-1.65-.36-2.15-1.01c-.5-.63-.69-1.45-.69-2.77s.18-2.12,.69-2.75c.5-.65,1.26-1.01,2.15-1.01s1.48,.29,2.22,1.07l1.6-1.52c-1.1-1.14-2.22-1.58-3.82-1.58-2.61,0-5.16,1.54-5.16,5.78s2.56,5.8,5.16,5.8c1.6,0,2.72-.47,3.82-1.61m-14.58,2.9h-1.87l-1.6,3.28h2.31l1.17-3.28Zm3.13-4.89c0-2.01-1.28-3.02-3.45-3.19l-1.83-.16c-1.23-.11-1.6-.63-1.6-1.3,0-.85,.71-1.45,2.1-1.45,1.1,0,2.12,.22,2.86,.83l1.46-1.45c-1.07-.91-2.56-1.27-4.3-1.27-2.42,0-4.36,1.25-4.36,3.46,0,1.99,1.26,2.95,3.43,3.13l1.85,.16c1.12,.09,1.55,.58,1.55,1.34,0,1.07-1.12,1.57-2.54,1.57-1.14,0-2.4-.25-3.34-1.18l-1.53,1.49c1.37,1.32,2.97,1.63,4.87,1.63,2.76,0,4.82-1.23,4.82-3.59m-14.28-2.21c0,1.23-.09,2.41-.8,3.1-.44,.42-1.03,.67-1.72,.67s-1.26-.25-1.69-.67c-.71-.69-.8-1.88-.8-3.1s.09-2.41,.8-3.1c.43-.43,1.01-.65,1.69-.65s1.28,.22,1.72,.65c.71,.69,.8,1.88,.8,3.1m2.33,0c0-1.9-.27-3.33-1.37-4.44-.75-.76-1.9-1.34-3.47-1.34s-2.7,.58-3.45,1.34c-1.09,1.12-1.37,2.55-1.37,4.44s.27,3.35,1.37,4.47c.76,.76,1.87,1.34,3.45,1.34s2.72-.58,3.47-1.34c1.1-1.12,1.37-2.55,1.37-4.47m-13.32,5.67v-15.9h-2.47v6.79h-6.61v-6.79h-2.47v15.9h2.47v-6.94h6.61v6.94h2.47Z"/><path class="g" d="M323.75,261.46h-2.79v2.72h2.79v-2.72Zm-2.1-7.66c-.8-.78-1.65-1.07-2.76-1.07-1.3,0-2.49,.56-3.09,1.36v-1.23h-2.28v11.32h2.33v-6.87c0-1.57,1.05-2.55,2.31-2.55,.8,0,1.21,.25,1.74,.76l1.76-1.72Zm-13.76,3.8h-5.21c.02-.69,.07-1.03,.3-1.54,.37-.85,1.21-1.43,2.31-1.43s1.92,.58,2.29,1.43c.23,.51,.3,.85,.32,1.54m2.31,1.58v-1c0-3.22-1.81-5.45-4.91-5.45s-4.91,2.12-4.91,5.78c0,4.31,2.3,5.8,5.21,5.8,2.03,0,3.15-.6,4.34-1.76l-1.49-1.36c-.82,.81-1.51,1.16-2.81,1.16-1.9,0-2.95-1.23-2.95-3.18h7.52Zm-11.45,5v-1.94h-1.03c-.94,0-1.26-.45-1.26-1.32v-12.64h-2.33v12.77c0,1.67,.96,3.12,3.17,3.12h1.44Zm-6.67-10.38c-.8-.78-1.65-1.07-2.76-1.07-1.3,0-2.49,.56-3.09,1.36v-1.23h-2.28v11.32h2.33v-6.87c0-1.57,1.05-2.55,2.31-2.55,.8,0,1.21,.25,1.74,.76l1.76-1.72Zm-18.21-5.51h-2.1v2.41h2.1v-2.41Zm4.94,0h-2.1v2.41h2.1v-2.41Zm1.21,15.89v-11.32h-2.33v6.9c0,1.74-1.1,2.52-2.4,2.52s-2.33-.76-2.33-2.52v-6.9h-2.33v7.23c0,1.27,.27,2.35,1.16,3.19,.69,.65,1.67,1.02,2.86,1.02s2.29-.42,3.09-1.27v1.14h2.28Zm-11.86,0l-4.52-6.87,4.02-4.44h-2.83l-4.5,5.22v-9.8h-2.33v15.89h2.33v-3.33l1.71-1.9,3.25,5.22h2.88Zm-12.75,0l-4.52-6.87,4.02-4.44h-2.83l-4.5,5.22v-9.8h-2.33v15.89h2.33v-3.33l1.71-1.9,3.25,5.22h2.88Zm-15.79-6.58h-5.21c.02-.69,.07-1.03,.3-1.54,.37-.85,1.21-1.43,2.31-1.43s1.92,.58,2.29,1.43c.23,.51,.3,.85,.32,1.54m2.31,1.58v-1c0-3.22-1.8-5.45-4.91-5.45s-4.91,2.12-4.91,5.78c0,4.31,2.3,5.8,5.21,5.8,2.04,0,3.15-.6,4.34-1.76l-1.48-1.36c-.82,.81-1.51,1.16-2.81,1.16-1.9,0-2.95-1.23-2.95-3.18h7.52Zm-15.42,6.44h-1.87l-1.6,3.28h2.31l1.16-3.28Zm3.13-4.89c0-2.01-1.28-3.02-3.45-3.19l-1.83-.16c-1.23-.11-1.6-.63-1.6-1.3,0-.85,.71-1.45,2.1-1.45,1.1,0,2.13,.23,2.86,.83l1.46-1.45c-1.07-.91-2.56-1.27-4.3-1.27-2.42,0-4.37,1.25-4.37,3.46,0,1.99,1.26,2.95,3.43,3.13l1.85,.16c1.12,.09,1.55,.58,1.55,1.34,0,1.07-1.12,1.56-2.54,1.56-1.14,0-2.4-.24-3.33-1.18l-1.53,1.5c1.37,1.32,2.97,1.63,4.87,1.63,2.77,0,4.82-1.22,4.82-3.59m-14.19-3.13h-5.21c.02-.69,.07-1.03,.3-1.54,.37-.85,1.21-1.43,2.31-1.43s1.92,.58,2.29,1.43c.23,.51,.3,.85,.32,1.54m2.31,1.58v-1c0-3.22-1.81-5.45-4.91-5.45s-4.91,2.12-4.91,5.78c0,4.31,2.3,5.8,5.21,5.8,2.03,0,3.15-.6,4.34-1.76l-1.49-1.36c-.82,.81-1.51,1.16-2.81,1.16-1.9,0-2.95-1.23-2.95-3.18h7.52Zm-10.49-8.73v-2.16h-11.42v2.16h4.48v13.73h2.47v-13.73h4.48Z"/><path class="g" d="M899.08,183.89h-2.79v2.72h2.79v-2.72Zm-5.3,2.72l-4.52-6.88,4.02-4.44h-2.83l-4.5,5.22v-9.8h-2.33v15.9h2.33v-3.33l1.71-1.9,3.25,5.22h2.88Zm-15.79-6.59h-5.21c.02-.69,.07-1.03,.3-1.54,.37-.85,1.21-1.43,2.31-1.43s1.92,.58,2.29,1.43c.23,.51,.3,.85,.32,1.54m2.31,1.58v-1c0-3.22-1.8-5.45-4.91-5.45s-4.91,2.12-4.91,5.78c0,4.31,2.3,5.81,5.21,5.81,2.04,0,3.15-.6,4.34-1.76l-1.48-1.36c-.82,.81-1.51,1.16-2.81,1.16-1.9,0-2.95-1.23-2.95-3.17h7.52Zm-11.75,3.53l-1.6-1.5c-.73,.78-1.3,1.07-2.22,1.07s-1.65-.36-2.15-1c-.5-.63-.69-1.45-.69-2.77s.18-2.12,.69-2.75c.5-.65,1.26-1,2.15-1s1.48,.29,2.22,1.07l1.6-1.52c-1.1-1.14-2.22-1.58-3.82-1.58-2.61,0-5.16,1.54-5.16,5.78s2.56,5.81,5.16,5.81c1.6,0,2.72-.47,3.82-1.61m-14.01-5.11h-5.21c.02-.69,.07-1.03,.3-1.54,.37-.85,1.21-1.43,2.31-1.43s1.92,.58,2.29,1.43c.23,.51,.3,.85,.32,1.54m2.31,1.58v-1c0-3.22-1.81-5.45-4.91-5.45s-4.91,2.12-4.91,5.78c0,4.31,2.3,5.81,5.21,5.81,2.03,0,3.15-.6,4.34-1.76l-1.49-1.36c-.82,.81-1.51,1.16-2.81,1.16-1.9,0-2.95-1.23-2.95-3.17h7.52Zm-11.45,5v-1.94h-1.03c-.94,0-1.26-.45-1.26-1.32v-12.64h-2.33v12.77c0,1.67,.96,3.12,3.18,3.12h1.44Zm-8.41-15.96h-2.47v2.41h2.47v-2.41Zm-.07,4.64h-2.33v11.32h2.33v-11.32Zm-8.04,5.65c0,2.01-.3,3.77-2.4,3.77s-2.42-1.77-2.42-3.77,.32-3.75,2.42-3.75,2.4,1.74,2.4,3.75m2.33,0c0-1.72-.14-3.64-1.3-4.78-.64-.62-1.65-1-2.81-1-1.24,0-2.2,.29-3.04,1.27v-5.71h-2.33v15.9h2.28v-1.21c.87,1.03,1.81,1.34,3.06,1.34,1.17,0,2.19-.38,2.83-1,1.16-1.14,1.3-3.08,1.3-4.8m-15.11-.91h-5.21c.02-.69,.07-1.03,.3-1.54,.37-.85,1.21-1.43,2.31-1.43s1.92,.58,2.29,1.43c.23,.51,.3,.85,.32,1.54m2.31,1.58v-1c0-3.22-1.81-5.45-4.91-5.45s-4.91,2.12-4.91,5.78c0,4.31,2.3,5.81,5.21,5.81,2.03,0,3.15-.6,4.34-1.76l-1.49-1.36c-.82,.81-1.51,1.16-2.81,1.16-1.9,0-2.95-1.23-2.95-3.17h7.52Zm-15.49-.67c0,2.01-.3,3.77-2.4,3.77s-2.42-1.77-2.42-3.77,.32-3.75,2.42-3.75,2.4,1.74,2.4,3.75m2.33,5.67v-15.9h-2.33v5.71c-.85-.98-1.81-1.27-3.04-1.27-1.17,0-2.17,.38-2.81,1-1.16,1.14-1.3,3.06-1.3,4.78s.14,3.66,1.3,4.8c.64,.62,1.67,1,2.83,1,1.26,0,2.2-.31,3.06-1.34v1.21h2.28Zm-12.8-15.96h-2.47v2.41h2.47v-2.41Zm-.07,4.64h-2.33v11.32h2.33v-11.32Zm-8.59,5.45c0,1.79-.25,3.55-2.35,3.55s-2.38-1.77-2.38-3.55,.27-3.55,2.38-3.55,2.35,1.76,2.35,3.55m2.33,5.8v-11.25h-2.26v1.2c-.87-1.02-1.81-1.34-3.04-1.34-1.17,0-2.15,.36-2.79,.98-1.12,1.09-1.3,2.68-1.3,4.6s.18,3.51,1.3,4.6c.64,.62,1.6,1,2.77,1s2.15-.31,2.99-1.3v1.45c0,1.52-.76,2.88-2.72,2.88-1.15,0-1.78-.34-2.52-1.01l-1.48,1.45c1.21,1.09,2.33,1.49,4.09,1.49,3.09,0,4.96-2.01,4.96-4.78m-20.7-4.02c0,.81-.16,1.34-.5,1.68-.62,.58-1.28,.65-2.17,.65-1.46,0-2.13-.58-2.13-1.61s.71-1.63,2.08-1.63h2.72v.91Zm2.33,4.09v-7.57c0-2.57-1.6-3.89-4.77-3.89-1.92,0-3.06,.38-4.16,1.63l1.53,1.41c.64-.81,1.26-1.1,2.54-1.1,1.81,0,2.54,.69,2.54,2.12v.8h-3.06c-2.65,0-4,1.36-4,3.26,0,.96,.32,1.83,.91,2.43,.71,.69,1.67,1.03,3.11,1.03s2.24-.34,3.09-1.16v1.03h2.28Zm-11.31,0v-1.94h-1.03c-.94,0-1.26-.45-1.26-1.32v-12.64h-2.33v12.77c0,1.67,.96,3.12,3.17,3.12h1.44Zm-8.48,0v-11.32h-2.33v6.9c0,1.74-1.1,2.52-2.4,2.52s-2.33-.76-2.33-2.52v-6.9h-2.33v7.23c0,1.27,.27,2.35,1.16,3.19,.68,.65,1.67,1.03,2.86,1.03s2.29-.43,3.09-1.27v1.14h2.28Zm-11.86,0l-4.52-6.88,4.02-4.44h-2.83l-4.5,5.22v-9.8h-2.33v15.9h2.33v-3.33l1.72-1.9,3.25,5.22h2.88Zm-15.88-5.67c0,1.23-.09,2.41-.8,3.1-.44,.43-1.03,.67-1.72,.67s-1.26-.24-1.69-.67c-.71-.69-.8-1.88-.8-3.1s.09-2.41,.8-3.1c.44-.42,1.01-.65,1.69-.65s1.28,.22,1.72,.65c.71,.69,.8,1.88,.8,3.1m2.33,0c0-1.9-.27-3.33-1.37-4.44-.75-.76-1.9-1.34-3.47-1.34s-2.7,.58-3.45,1.34c-1.09,1.12-1.37,2.55-1.37,4.44s.27,3.35,1.37,4.47c.75,.76,1.87,1.34,3.45,1.34s2.72-.58,3.47-1.34c1.09-1.11,1.37-2.55,1.37-4.47m-20.45-.91h-5.21c.02-.69,.07-1.03,.3-1.54,.37-.85,1.21-1.43,2.31-1.43s1.92,.58,2.29,1.43c.23,.51,.3,.85,.32,1.54m2.31,1.58v-1c0-3.22-1.8-5.45-4.91-5.45s-4.91,2.12-4.91,5.78c0,4.31,2.3,5.81,5.21,5.81,2.04,0,3.15-.6,4.34-1.76l-1.48-1.36c-.82,.81-1.51,1.16-2.81,1.16-1.9,0-2.95-1.23-2.95-3.17h7.52Zm-15.49-.67c0,2.01-.3,3.77-2.4,3.77s-2.42-1.77-2.42-3.77,.32-3.75,2.42-3.75,2.4,1.74,2.4,3.75m2.33,5.67v-15.9h-2.33v5.71c-.85-.98-1.81-1.27-3.04-1.27-1.16,0-2.17,.38-2.81,1-1.16,1.14-1.3,3.06-1.3,4.78s.14,3.66,1.3,4.8c.64,.62,1.67,1,2.83,1,1.26,0,2.19-.31,3.06-1.34v1.21h2.28Zm-12.75,0v-7.23c0-1.27-.27-2.35-1.16-3.19-.69-.65-1.67-1.03-2.86-1.03s-2.29,.43-3.09,1.27v-1.14h-2.28v11.32h2.33v-6.9c0-1.74,1.1-2.52,2.4-2.52s2.33,.76,2.33,2.52v6.9h2.33Zm-13.25-15.96h-2.47v2.41h2.47v-2.41Zm-.07,4.64h-2.33v11.32h2.33v-11.32Zm-6.15,11.32v-7.3c0-2.46-1.44-4.15-4.02-4.15-1.14,0-2.19,.43-2.99,1.27v-5.71h-2.33v15.9h2.33v-6.95c0-1.7,1.05-2.48,2.35-2.48s2.33,.76,2.33,2.48v6.95h2.33Zm-13.21-15.96h-2.47v2.41h2.47v-2.41Zm-.07,4.64h-2.33v11.32h2.33v-11.32Zm-4.45,.94c-.8-.78-1.65-1.07-2.77-1.07-1.3,0-2.49,.56-3.08,1.36v-1.23h-2.28v11.32h2.33v-6.88c0-1.56,1.05-2.55,2.31-2.55,.8,0,1.21,.24,1.74,.76l1.76-1.72Zm-14.28,6.29c0,.81-.16,1.34-.5,1.68-.62,.58-1.28,.65-2.17,.65-1.46,0-2.13-.58-2.13-1.61s.71-1.63,2.08-1.63h2.72v.91Zm2.33,4.09v-7.57c0-2.57-1.6-3.89-4.77-3.89-1.92,0-3.06,.38-4.16,1.63l1.53,1.41c.64-.81,1.26-1.1,2.54-1.1,1.81,0,2.54,.69,2.54,2.12v.8h-3.06c-2.65,0-4,1.36-4,3.26,0,.96,.32,1.83,.91,2.43,.71,.69,1.67,1.03,3.11,1.03s2.24-.34,3.09-1.16v1.03h2.28Zm-11.65,0v-1.94h-.96c-.87,0-1.28-.49-1.28-1.31v-6.1h2.24v-1.74h-2.24v-3.46h-2.33v3.46h-1.33v1.74h1.33v6.21c0,1.63,1.01,3.14,3.18,3.14h1.39Zm-272.85-4.09c0,.81-.16,1.34-.5,1.68-.62,.58-1.28,.65-2.17,.65-1.46,0-2.13-.58-2.13-1.61s.71-1.63,2.08-1.63h2.72v.91Zm2.33,4.09v-7.57c0-2.57-1.6-3.89-4.77-3.89-1.92,0-3.06,.38-4.16,1.63l1.53,1.41c.64-.81,1.26-1.1,2.54-1.1,1.81,0,2.54,.69,2.54,2.12v.8h-3.06c-2.65,0-4,1.36-4,3.26,0,.96,.32,1.83,.91,2.43,.71,.69,1.67,1.03,3.11,1.03s2.24-.34,3.09-1.16v1.03h2.28Zm-11.31,0v-1.94h-1.03c-.94,0-1.26-.45-1.26-1.32v-12.64h-2.33v12.77c0,1.67,.96,3.12,3.17,3.12h1.44Zm-7.13,0l-4.52-6.88,4.02-4.44h-2.83l-4.5,5.22v-9.8h-2.33v15.9h2.33v-3.33l1.72-1.9,3.25,5.22h2.88Zm-14.1-11.32h-2.33v11.32h2.33v-11.32Zm-5.12,11.32v-1.94h-1.03c-.94,0-1.26-.45-1.26-1.32v-12.64h-2.33v12.77c0,1.67,.96,3.12,3.17,3.12h1.44Zm-8.48-11.32h-2.33v11.32h2.33v-11.32Zm-5.39,7.86c0-2.01-1.28-3.02-3.45-3.19l-1.83-.16c-1.23-.11-1.6-.63-1.6-1.3,0-.85,.71-1.45,2.1-1.45,1.1,0,2.13,.22,2.86,.82l1.46-1.45c-1.08-.91-2.56-1.27-4.3-1.27-2.42,0-4.37,1.25-4.37,3.46,0,1.99,1.26,2.95,3.43,3.13l1.85,.16c1.12,.09,1.55,.58,1.55,1.34,0,1.07-1.12,1.56-2.54,1.56-1.14,0-2.4-.24-3.34-1.18l-1.53,1.49c1.37,1.32,2.97,1.63,4.87,1.63,2.77,0,4.82-1.23,4.82-3.59m-14.71-.63c0,.81-.16,1.34-.51,1.68-.62,.58-1.28,.65-2.17,.65-1.46,0-2.13-.58-2.13-1.61s.71-1.63,2.08-1.63h2.72v.91Zm2.33,4.09v-7.57c0-2.57-1.6-3.89-4.77-3.89-1.92,0-3.06,.38-4.16,1.63l1.53,1.41c.64-.81,1.26-1.1,2.54-1.1,1.81,0,2.54,.69,2.54,2.12v.8h-3.06c-2.65,0-4,1.36-4,3.26,0,.96,.32,1.83,.91,2.43,.71,.69,1.66,1.03,3.11,1.03s2.24-.34,3.09-1.16v1.03h2.28Zm-11.31,0v-1.94h-1.03c-.94,0-1.26-.45-1.26-1.32v-12.64h-2.33v12.77c0,1.67,.96,3.12,3.17,3.12h1.44Zm-10.26-5.67c0,1.23-.09,2.41-.8,3.1-.44,.43-1.03,.67-1.72,.67s-1.26-.24-1.69-.67c-.71-.69-.8-1.88-.8-3.1s.09-2.41,.8-3.1c.43-.42,1.01-.65,1.69-.65s1.28,.22,1.72,.65c.71,.69,.8,1.88,.8,3.1m2.33,0c0-1.9-.27-3.33-1.37-4.44-.75-.76-1.9-1.34-3.47-1.34s-2.7,.58-3.45,1.34c-1.1,1.12-1.37,2.55-1.37,4.44s.27,3.35,1.37,4.47c.75,.76,1.87,1.34,3.45,1.34s2.72-.58,3.47-1.34c1.1-1.11,1.37-2.55,1.37-4.47m-16.96-4.71c-.8-.78-1.65-1.07-2.77-1.07-1.3,0-2.49,.56-3.08,1.36v-1.23h-2.28v11.32h2.33v-6.88c0-1.56,1.05-2.55,2.31-2.55,.8,0,1.21,.24,1.74,.76l1.76-1.72Zm-12-5.58h-2.47v2.41h2.47v-2.41Zm-.07,4.64h-2.33v11.32h2.33v-11.32Zm-8.04,5.65c0,2.01-.3,3.77-2.4,3.77s-2.42-1.77-2.42-3.77,.32-3.75,2.42-3.75,2.4,1.74,2.4,3.75m2.33,0c0-1.72-.14-3.64-1.3-4.78-.64-.62-1.65-1-2.81-1-1.24,0-2.2,.29-3.04,1.27v-5.71h-2.33v15.9h2.28v-1.21c.87,1.03,1.81,1.34,3.06,1.34,1.17,0,2.19-.38,2.83-1,1.16-1.14,1.3-3.08,1.3-4.8m-17.78,5.67l-4.52-6.88,4.02-4.44h-2.83l-4.5,5.22v-9.8h-2.33v15.9h2.33v-3.33l1.71-1.9,3.25,5.22h2.88Zm-20.24-15.9h-2.1v2.41h2.1v-2.41Zm4.94,0h-2.1v2.41h2.1v-2.41Zm1.21,15.9v-11.32h-2.33v6.9c0,1.74-1.1,2.52-2.4,2.52s-2.33-.76-2.33-2.52v-6.9h-2.33v7.23c0,1.27,.27,2.35,1.16,3.19,.69,.65,1.67,1.03,2.86,1.03s2.29-.43,3.09-1.27v1.14h2.28Zm-11.45-11.32h-2.49l-2.7,7.97-2.76-7.97h-2.47l4.04,10.79-.64,1.76c-.34,.92-.69,1.21-1.67,1.21h-.59v2.05h.94c.89,0,1.74-.2,2.38-.82,.34-.33,.62-.78,.85-1.41l5.12-13.58Zm-18.83-4.58h-2.1v2.41h2.1v-2.41Zm4.94,0h-2.1v2.41h2.1v-2.41Zm1.21,15.9v-11.32h-2.33v6.9c0,1.74-1.1,2.52-2.4,2.52s-2.33-.76-2.33-2.52v-6.9h-2.33v7.23c0,1.27,.27,2.35,1.16,3.19,.69,.65,1.67,1.03,2.86,1.03s2.29-.43,3.09-1.27v1.14h2.28Zm-14.99-5.67c0,2.01-.3,3.77-2.4,3.77s-2.42-1.77-2.42-3.77,.32-3.75,2.42-3.75,2.4,1.74,2.4,3.75m2.33,0c0-1.72-.14-3.64-1.3-4.78-.64-.62-1.65-1-2.81-1-1.24,0-2.2,.29-3.04,1.27v-5.71h-2.33v15.9h2.28v-1.21c.87,1.03,1.81,1.34,3.06,1.34,1.17,0,2.19-.38,2.83-1,1.16-1.14,1.3-3.08,1.3-4.8m-19.01,5.67v-7.23c0-1.27-.34-2.35-1.23-3.19-.69-.65-1.74-1.03-2.93-1.03-1.53,0-2.7,.54-3.63,1.65-.73-1.09-1.85-1.65-3.29-1.65-1.17,0-2.31,.45-3.09,1.27v-1.14h-2.28v11.32h2.33v-6.9c0-1.74,1.1-2.52,2.4-2.52s2.33,.76,2.33,2.52v6.9h2.33v-7.01c0-1.63,1.15-2.41,2.4-2.41s2.33,.76,2.33,2.52v6.9h2.33Zm-20.38,0v-11.32h-2.33v6.9c0,1.74-1.1,2.52-2.4,2.52s-2.33-.76-2.33-2.52v-6.9h-2.33v7.23c0,1.27,.27,2.35,1.16,3.19,.68,.65,1.67,1.03,2.86,1.03s2.29-.43,3.09-1.27v1.14h2.28Zm-14.14-16.48h-1.65c-.14,1.12-1.23,1.56-2.1,1.56-1.14,0-1.99-.51-2.12-1.56h-1.65c.14,2.23,1.6,3.23,3.77,3.23s3.61-1,3.75-3.23m-1.39,10.6c0,1.79-.25,3.55-2.35,3.55s-2.38-1.77-2.38-3.55,.27-3.55,2.38-3.55,2.35,1.76,2.35,3.55m2.33,5.8v-11.25h-2.26v1.2c-.87-1.02-1.81-1.34-3.04-1.34-1.17,0-2.15,.36-2.79,.98-1.12,1.09-1.3,2.68-1.3,4.6s.18,3.51,1.3,4.6c.64,.62,1.6,1,2.76,1s2.15-.31,2.99-1.3v1.45c0,1.52-.75,2.88-2.72,2.88-1.14,0-1.78-.34-2.51-1.01l-1.48,1.45c1.21,1.09,2.33,1.49,4.09,1.49,3.09,0,4.96-2.01,4.96-4.78m-12.77,.07v-11.32h-2.33v6.9c0,1.74-1.1,2.52-2.4,2.52s-2.33-.76-2.33-2.52v-6.9h-2.33v7.23c0,1.27,.27,2.35,1.16,3.19,.69,.65,1.67,1.03,2.86,1.03s2.29-.43,3.09-1.27v1.14h2.28Zm-12.2-1.47l-1.6-1.5c-.73,.78-1.3,1.07-2.22,1.07s-1.65-.36-2.15-1c-.5-.63-.69-1.45-.69-2.77s.18-2.12,.69-2.75c.5-.65,1.26-1,2.15-1s1.49,.29,2.22,1.07l1.6-1.52c-1.1-1.14-2.22-1.58-3.82-1.58-2.61,0-5.16,1.54-5.16,5.78s2.56,5.81,5.16,5.81c1.6,0,2.72-.47,3.82-1.61m-14.1-4.2c0,1.23-.09,2.41-.8,3.1-.44,.43-1.03,.67-1.72,.67s-1.26-.24-1.69-.67c-.71-.69-.8-1.88-.8-3.1s.09-2.41,.8-3.1c.43-.42,1.01-.65,1.69-.65s1.28,.22,1.72,.65c.71,.69,.8,1.88,.8,3.1m2.33,0c0-1.9-.27-3.33-1.37-4.44-.75-.76-1.9-1.34-3.47-1.34s-2.7,.58-3.45,1.34c-1.09,1.12-1.37,2.55-1.37,4.44s.27,3.35,1.37,4.47c.76,.76,1.87,1.34,3.45,1.34s2.72-.58,3.47-1.34c1.1-1.11,1.37-2.55,1.37-4.47m-17,7.1h-1.87l-1.6,3.28h2.31l1.16-3.28Zm4.64-6.19h-2.49c-.39,1.61-1.51,2.72-3.31,2.72-.96,0-1.83-.36-2.4-.96-.8-.85-.98-1.77-.98-4.96s.18-4.11,.98-4.96c.57-.6,1.44-.96,2.4-.96,1.8,0,2.9,1.12,3.29,2.72h2.51c-.57-3.17-2.81-4.89-5.8-4.89-1.69,0-3.15,.6-4.27,1.69-1.6,1.56-1.58,3.33-1.58,6.39s-.02,4.83,1.58,6.39c1.12,1.09,2.58,1.69,4.27,1.69,2.95,0,5.26-1.72,5.8-4.89"/><path class="g" d="M904.43,106.33h-2.79v2.72h2.79v-2.72Zm-8.86-1.37c0,.81-.16,1.34-.5,1.68-.62,.58-1.28,.65-2.17,.65-1.46,0-2.13-.58-2.13-1.61s.71-1.63,2.08-1.63h2.72v.92Zm2.33,4.08v-7.57c0-2.57-1.6-3.89-4.77-3.89-1.92,0-3.06,.38-4.16,1.63l1.53,1.41c.64-.8,1.26-1.1,2.54-1.1,1.81,0,2.54,.69,2.54,2.12v.8h-3.06c-2.65,0-4,1.36-4,3.26,0,.96,.32,1.83,.91,2.43,.71,.69,1.67,1.02,3.11,1.02s2.24-.33,3.09-1.16v1.02h2.28Zm-11.65,0v-1.94h-.96c-.87,0-1.28-.49-1.28-1.31v-6.1h2.24v-1.74h-2.24v-3.46h-2.33v3.46h-1.33v1.74h1.33v6.21c0,1.63,1.01,3.14,3.18,3.14h1.39Zm-7.68-3.46c0-2.01-1.28-3.02-3.45-3.19l-1.83-.16c-1.23-.11-1.6-.63-1.6-1.3,0-.85,.71-1.45,2.1-1.45,1.1,0,2.13,.22,2.86,.83l1.46-1.45c-1.08-.91-2.56-1.27-4.3-1.27-2.42,0-4.37,1.25-4.37,3.46,0,1.99,1.26,2.95,3.43,3.13l1.85,.16c1.12,.09,1.55,.58,1.55,1.34,0,1.07-1.12,1.56-2.54,1.56-1.14,0-2.4-.24-3.34-1.18l-1.53,1.5c1.37,1.32,2.97,1.63,4.87,1.63,2.77,0,4.82-1.22,4.82-3.59m-14.72-.63c0,.81-.16,1.34-.5,1.68-.62,.58-1.28,.65-2.17,.65-1.46,0-2.13-.58-2.13-1.61s.71-1.63,2.08-1.63h2.72v.92Zm2.33,4.08v-7.57c0-2.57-1.6-3.89-4.77-3.89-1.92,0-3.06,.38-4.16,1.63l1.53,1.41c.64-.8,1.26-1.1,2.54-1.1,1.81,0,2.54,.69,2.54,2.12v.8h-3.06c-2.65,0-4,1.36-4,3.26,0,.96,.32,1.83,.91,2.43,.71,.69,1.67,1.02,3.11,1.02s2.24-.33,3.09-1.16v1.02h2.28Zm-12.34,0v-7.3c0-2.46-1.44-4.15-4.02-4.15-1.14,0-2.2,.42-2.99,1.27v-5.71h-2.33v15.89h2.33v-6.94c0-1.7,1.05-2.48,2.35-2.48s2.33,.76,2.33,2.48v6.94h2.33Zm-21.2-4.08c0,.81-.16,1.34-.51,1.68-.62,.58-1.28,.65-2.17,.65-1.46,0-2.13-.58-2.13-1.61s.71-1.63,2.08-1.63h2.72v.92Zm2.33,4.08v-7.57c0-2.57-1.6-3.89-4.77-3.89-1.92,0-3.06,.38-4.16,1.63l1.53,1.41c.64-.8,1.26-1.1,2.54-1.1,1.81,0,2.54,.69,2.54,2.12v.8h-3.06c-2.65,0-4,1.36-4,3.26,0,.96,.32,1.83,.91,2.43,.71,.69,1.66,1.02,3.11,1.02s2.24-.33,3.09-1.16v1.02h2.28Zm-11.31,0v-1.94h-1.03c-.94,0-1.26-.45-1.26-1.32v-12.64h-2.33v12.77c0,1.67,.96,3.12,3.17,3.12h1.44Zm-10.69-4.08c0,.81-.16,1.34-.5,1.68-.62,.58-1.28,.65-2.17,.65-1.46,0-2.13-.58-2.13-1.61s.71-1.63,2.08-1.63h2.72v.92Zm2.33,4.08v-7.57c0-2.57-1.6-3.89-4.77-3.89-1.92,0-3.06,.38-4.16,1.63l1.53,1.41c.64-.8,1.26-1.1,2.54-1.1,1.81,0,2.54,.69,2.54,2.12v.8h-3.06c-2.65,0-4,1.36-4,3.26,0,.96,.32,1.83,.91,2.43,.71,.69,1.67,1.02,3.11,1.02s2.24-.33,3.09-1.16v1.02h2.28Zm-12.34,0v-7.3c0-2.46-1.44-4.15-4.02-4.15-1.14,0-2.2,.42-2.99,1.27v-5.71h-2.33v15.89h2.33v-6.94c0-1.7,1.05-2.48,2.35-2.48s2.33,.76,2.33,2.48v6.94h2.33Zm-19.08-2.61v-10.67c0-.89-.07-1.77-.55-2.59-.46-.8-1.09-1.41-1.83-2.12l-1.6,1.56c.55,.54,.91,.85,1.26,1.47,.23,.43,.34,1.03,.34,1.81v10.4c0,.78-.12,1.38-.34,1.81-.34,.63-.71,.94-1.26,1.47l1.6,1.56c.73-.71,1.37-1.32,1.83-2.12,.48-.82,.55-1.7,.55-2.59m-7.31-13.35h-2.47v2.41h2.47v-2.41Zm-.07,4.64h-2.33v11.32h2.33v-11.32Zm-6.15,11.32v-7.23c0-1.27-.34-2.34-1.23-3.19-.69-.65-1.74-1.02-2.93-1.02-1.53,0-2.7,.54-3.63,1.65-.73-1.09-1.85-1.65-3.29-1.65-1.17,0-2.31,.45-3.09,1.27v-1.14h-2.28v11.32h2.33v-6.9c0-1.74,1.1-2.53,2.4-2.53s2.33,.76,2.33,2.52v6.9h2.33v-7.01c0-1.63,1.14-2.41,2.4-2.41s2.33,.76,2.33,2.52v6.9h2.33Zm-19.51-3.46c0-2.01-1.28-3.02-3.45-3.19l-1.83-.16c-1.23-.11-1.6-.63-1.6-1.3,0-.85,.71-1.45,2.1-1.45,1.1,0,2.13,.22,2.86,.83l1.46-1.45c-1.08-.91-2.56-1.27-4.3-1.27-2.42,0-4.37,1.25-4.37,3.46,0,1.99,1.26,2.95,3.43,3.13l1.85,.16c1.12,.09,1.55,.58,1.55,1.34,0,1.07-1.12,1.56-2.54,1.56-1.14,0-2.4-.24-3.34-1.18l-1.53,1.5c1.37,1.32,2.97,1.63,4.87,1.63,2.77,0,4.82-1.22,4.82-3.59m-12.43-12.5h-2.47v2.41h2.47v-2.41Zm-.07,4.64h-2.33v11.32h2.33v-11.32Zm-11.86,11.32v-7.23c0-1.27-.27-2.34-1.16-3.19-.68-.65-1.67-1.02-2.86-1.02s-2.29,.42-3.09,1.27v-1.14h-2.28v11.32h2.33v-6.9c0-1.74,1.1-2.53,2.4-2.53s2.33,.76,2.33,2.52v6.9h2.33Zm-13.32,0v-11.32h-2.33v6.9c0,1.74-1.1,2.52-2.4,2.52s-2.33-.76-2.33-2.52v-6.9h-2.33v7.23c0,1.27,.27,2.35,1.16,3.19,.69,.65,1.67,1.02,2.86,1.02s2.29-.42,3.09-1.27v1.14h2.28Zm-14.14-16.47h-1.65c-.14,1.12-1.23,1.56-2.1,1.56-1.14,0-1.99-.51-2.13-1.56h-1.65c.14,2.23,1.6,3.23,3.77,3.23s3.61-1,3.75-3.23m-1.39,10.6c0,1.79-.25,3.55-2.35,3.55s-2.38-1.77-2.38-3.55,.27-3.55,2.38-3.55,2.35,1.77,2.35,3.55m2.33,5.81v-11.25h-2.26v1.2c-.87-1.02-1.8-1.34-3.04-1.34-1.17,0-2.15,.36-2.79,.98-1.12,1.09-1.3,2.68-1.3,4.6s.18,3.51,1.3,4.6c.64,.63,1.6,1,2.77,1s2.15-.31,2.99-1.29v1.45c0,1.52-.76,2.88-2.72,2.88-1.14,0-1.78-.34-2.51-1.01l-1.48,1.45c1.21,1.09,2.33,1.49,4.09,1.49,3.09,0,4.96-2.01,4.96-4.78m-12.78,.07v-11.32h-2.33v6.9c0,1.74-1.1,2.52-2.4,2.52s-2.33-.76-2.33-2.52v-6.9h-2.33v7.23c0,1.27,.27,2.35,1.16,3.19,.69,.65,1.67,1.02,2.86,1.02s2.29-.42,3.09-1.27v1.14h2.28Zm-12.2-1.47l-1.6-1.49c-.73,.78-1.3,1.07-2.22,1.07s-1.65-.36-2.15-1.01c-.5-.63-.69-1.45-.69-2.77s.18-2.12,.69-2.75c.5-.65,1.26-1.01,2.15-1.01s1.49,.29,2.22,1.07l1.6-1.52c-1.1-1.14-2.22-1.58-3.82-1.58-2.61,0-5.16,1.54-5.16,5.78s2.56,5.8,5.16,5.8c1.6,0,2.72-.47,3.82-1.61m-14.1-4.2c0,1.23-.09,2.41-.8,3.1-.44,.43-1.03,.67-1.72,.67s-1.26-.24-1.69-.67c-.71-.69-.8-1.88-.8-3.1s.09-2.41,.8-3.1c.44-.43,1.01-.65,1.69-.65s1.28,.22,1.72,.65c.71,.69,.8,1.88,.8,3.1m2.33,0c0-1.9-.27-3.33-1.37-4.44-.75-.76-1.9-1.34-3.47-1.34s-2.7,.58-3.45,1.34c-1.09,1.12-1.37,2.55-1.37,4.44s.27,3.35,1.37,4.47c.75,.76,1.87,1.34,3.45,1.34s2.72-.58,3.47-1.34c1.09-1.11,1.37-2.55,1.37-4.47m-14.58,7.1h-1.87l-1.6,3.28h2.31l1.17-3.28Zm2.95-2.91l-1.6-1.49c-.73,.78-1.3,1.07-2.22,1.07s-1.65-.36-2.15-1.01c-.5-.63-.69-1.45-.69-2.77s.18-2.12,.69-2.75c.5-.65,1.26-1.01,2.15-1.01s1.49,.29,2.22,1.07l1.6-1.52c-1.1-1.14-2.22-1.58-3.82-1.58-2.61,0-5.16,1.54-5.16,5.78s2.56,5.8,5.16,5.8c1.6,0,2.72-.47,3.82-1.61m-11.79,2.03c-.55-.54-.94-.85-1.28-1.47-.23-.42-.34-1.03-.34-1.83v-10.4c0-.8,.12-1.41,.34-1.83,.34-.63,.73-.94,1.28-1.47l-1.58-1.54c-.73,.71-1.39,1.32-1.85,2.12-.48,.82-.53,1.7-.53,2.59v10.67c0,.89,.05,1.77,.53,2.59,.45,.8,1.12,1.41,1.85,2.12l1.58-1.54Zm-445.78-.56v-7.23c0-1.27-.34-2.34-1.23-3.19-.69-.65-1.74-1.02-2.93-1.02-1.53,0-2.7,.54-3.63,1.65-.73-1.09-1.85-1.65-3.29-1.65-1.16,0-2.31,.45-3.09,1.27v-1.14h-2.28v11.32h2.33v-6.9c0-1.74,1.1-2.53,2.4-2.53s2.33,.76,2.33,2.52v6.9h2.33v-7.01c0-1.63,1.14-2.41,2.4-2.41s2.33,.76,2.33,2.52v6.9h2.33Zm-20.38,0v-11.32h-2.33v6.9c0,1.74-1.1,2.52-2.4,2.52s-2.33-.76-2.33-2.52v-6.9h-2.33v7.23c0,1.27,.27,2.35,1.16,3.19,.68,.65,1.67,1.02,2.86,1.02s2.29-.42,3.09-1.27v1.14h2.28Zm-12.07,0v-1.94h-1.03c-.94,0-1.26-.45-1.26-1.32v-12.64h-2.33v12.77c0,1.67,.96,3.12,3.17,3.12h1.44Zm-9.41-16.47h-1.65c-.14,1.12-1.23,1.56-2.1,1.56-1.14,0-1.99-.51-2.13-1.56h-1.65c.14,2.23,1.6,3.23,3.77,3.23s3.61-1,3.75-3.23m-1.39,10.6c0,1.79-.25,3.55-2.35,3.55s-2.38-1.77-2.38-3.55,.27-3.55,2.38-3.55,2.35,1.77,2.35,3.55m2.33,5.81v-11.25h-2.26v1.2c-.87-1.02-1.81-1.34-3.04-1.34-1.16,0-2.15,.36-2.79,.98-1.12,1.09-1.3,2.68-1.3,4.6s.18,3.51,1.3,4.6c.64,.63,1.6,1,2.77,1s2.15-.31,2.99-1.29v1.45c0,1.52-.76,2.88-2.72,2.88-1.14,0-1.78-.34-2.51-1.01l-1.48,1.45c1.21,1.09,2.33,1.49,4.09,1.49,3.09,0,4.96-2.01,4.96-4.78m-14.92-7.88c0,3.19-.16,4.09-.96,4.94-.57,.6-1.46,.98-2.42,.98s-1.85-.38-2.42-.98c-.8-.85-.96-1.74-.96-4.94s.16-4.09,.96-4.94c.57-.6,1.46-.98,2.42-.98s1.85,.38,2.42,.98c.8,.85,.96,1.74,.96,4.94m2.46,0c0-3.06,.05-4.82-1.55-6.39-1.12-1.09-2.56-1.69-4.3-1.69s-3.16,.6-4.27,1.69c-1.6,1.56-1.57,3.33-1.57,6.39s-.02,4.82,1.57,6.39c1.12,1.09,2.54,1.69,4.27,1.69s3.18-.6,4.3-1.69c1.6-1.56,1.55-3.33,1.55-6.39m-13.39-9.6h-2.24l-6.51,19.2h2.24l6.51-19.2Zm-10.72,17.55v-7.23c0-1.27-.34-2.34-1.23-3.19-.69-.65-1.74-1.02-2.93-1.02-1.53,0-2.7,.54-3.63,1.65-.73-1.09-1.85-1.65-3.29-1.65-1.16,0-2.31,.45-3.09,1.27v-1.14h-2.28v11.32h2.33v-6.9c0-1.74,1.1-2.53,2.4-2.53s2.33,.76,2.33,2.52v6.9h2.33v-7.01c0-1.63,1.14-2.41,2.4-2.41s2.33,.76,2.33,2.52v6.9h2.33Zm-20.38-11.32h-2.33v11.32h2.33v-11.32Zm-5.51,11.32v-2.03h-5.8l5.8-7.48v-1.81h-8.32v2.03h5.44l-5.76,7.48v1.81h8.64Zm-11.7-11.32h-2.33v11.32h2.33v-11.32Zm-4.64,11.32l-5.83-9.66,5.28-6.23h-3.02l-6.65,7.99v-7.99h-2.47v15.89h2.47v-4.62l2.74-3.21,4.57,7.83h2.9Zm-21.64-6.07l-5.28-5.11v2.75l2.47,2.37-2.47,2.39v2.75l5.28-5.13Zm5.78,0l-5.28-5.11v2.75l2.45,2.37-2.45,2.39v2.75l5.28-5.13Z"/><path class="j" d="M248.51,289.09v-2.75l-2.47-2.39,2.47-2.37v-2.75l-5.26,5.11,5.26,5.13Zm-5.78,0v-2.75l-2.44-2.39,2.44-2.37v-2.75l-5.26,5.11,5.26,5.13Zm-13.83-1.78h-2.79v2.72h2.79v-2.72Zm-6.54,2.72v-7.23c0-1.27-.27-2.34-1.16-3.19-.68-.65-1.67-1.02-2.86-1.02s-2.29,.42-3.09,1.27v-1.14h-2.28v11.32h2.33v-6.9c0-1.74,1.1-2.52,2.4-2.52s2.33,.76,2.33,2.52v6.9h2.33Zm-15.01-6.58h-5.21c.02-.69,.07-1.03,.3-1.54,.37-.85,1.21-1.43,2.31-1.43s1.92,.58,2.29,1.43c.23,.51,.3,.85,.32,1.54m2.31,1.58v-1c0-3.22-1.8-5.45-4.91-5.45s-4.91,2.12-4.91,5.78c0,4.31,2.3,5.8,5.21,5.8,2.04,0,3.15-.6,4.34-1.76l-1.48-1.36c-.82,.8-1.51,1.16-2.81,1.16-1.9,0-2.95-1.23-2.95-3.17h7.52Zm-13.05,5v-7.3c0-2.46-1.44-4.15-4.02-4.15-1.15,0-2.2,.42-3,1.27v-5.71h-2.33v15.9h2.33v-6.94c0-1.7,1.05-2.48,2.35-2.48s2.33,.76,2.33,2.48v6.94h2.33Zm-14.97-6.58h-5.21c.02-.69,.07-1.03,.3-1.54,.37-.85,1.21-1.43,2.31-1.43s1.92,.58,2.29,1.43c.23,.51,.3,.85,.32,1.54m2.31,1.58v-1c0-3.22-1.8-5.45-4.91-5.45s-4.91,2.12-4.91,5.78c0,4.31,2.31,5.8,5.21,5.8,2.04,0,3.15-.6,4.34-1.76l-1.48-1.36c-.82,.8-1.51,1.16-2.81,1.16-1.9,0-2.95-1.23-2.95-3.17h7.52Zm-12.29,1.54c0-2.01-1.28-3.02-3.45-3.19l-1.83-.16c-1.23-.11-1.6-.63-1.6-1.3,0-.85,.71-1.45,2.1-1.45,1.1,0,2.13,.22,2.86,.83l1.46-1.45c-1.08-.91-2.56-1.27-4.3-1.27-2.42,0-4.37,1.25-4.37,3.46,0,1.99,1.26,2.95,3.43,3.13l1.85,.16c1.12,.09,1.55,.58,1.55,1.34,0,1.07-1.12,1.57-2.54,1.57-1.14,0-2.4-.25-3.34-1.18l-1.53,1.5c1.37,1.31,2.97,1.63,4.87,1.63,2.77,0,4.82-1.23,4.82-3.59m-10.47-6.92c-.8-.78-1.65-1.07-2.76-1.07-1.3,0-2.49,.56-3.09,1.36v-1.22h-2.28v11.32h2.33v-6.88c0-1.56,1.05-2.55,2.31-2.55,.8,0,1.21,.25,1.74,.76l1.76-1.72Zm-13.76,3.8h-5.21c.02-.69,.07-1.03,.3-1.54,.37-.85,1.21-1.43,2.31-1.43s1.92,.58,2.29,1.43c.23,.51,.3,.85,.32,1.54m2.31,1.58v-1c0-3.22-1.81-5.45-4.91-5.45s-4.91,2.12-4.91,5.78c0,4.31,2.3,5.8,5.21,5.8,2.03,0,3.15-.6,4.34-1.76l-1.49-1.36c-.82,.8-1.51,1.16-2.81,1.16-1.9,0-2.95-1.23-2.95-3.17h7.52Zm-15.49-.67c0,2.01-.3,3.77-2.4,3.77s-2.42-1.77-2.42-3.77,.32-3.75,2.42-3.75,2.4,1.74,2.4,3.75m2.33,5.67v-15.9h-2.33v5.71c-.85-.98-1.81-1.27-3.04-1.27-1.17,0-2.17,.38-2.81,1-1.16,1.14-1.3,3.06-1.3,4.78s.14,3.66,1.3,4.8c.64,.63,1.67,1,2.83,1,1.26,0,2.2-.31,3.06-1.34v1.2h2.28Zm-14.56-6.58h-5.21c.02-.69,.07-1.03,.3-1.54,.37-.85,1.21-1.43,2.31-1.43s1.92,.58,2.29,1.43c.23,.51,.3,.85,.32,1.54m2.31,1.58v-1c0-3.22-1.81-5.45-4.91-5.45s-4.91,2.12-4.91,5.78c0,4.31,2.3,5.8,5.21,5.8,2.03,0,3.15-.6,4.34-1.76l-1.49-1.36c-.82,.8-1.51,1.16-2.81,1.16-1.9,0-2.95-1.23-2.95-3.17h7.52Zm-13.1-10.96h-2.47v2.41h2.47v-2.41Zm-.07,4.64h-2.33v11.32h2.33v-11.32Zm-4.66-4.58h-2.61l-2.83,11.36-3.27-11.36h-1.99l-3.27,11.36-2.83-11.36h-2.61l4.25,15.9h2.15l3.29-11.14,3.31,11.14h2.15l4.25-15.9Zm-26.24,6.54v-1.74h-2.31v-1.65c0-.83,.41-1.33,1.28-1.33h1.03v-1.94h-1.46c-2.17,0-3.17,1.52-3.17,3.15v1.76h-1.33v1.74h1.33v9.35h2.33v-9.35h2.31Zm-8.93,9.35v-11.32h-2.33v6.9c0,1.74-1.1,2.53-2.4,2.53s-2.33-.76-2.33-2.52v-6.9h-2.33v7.23c0,1.27,.27,2.34,1.16,3.19,.68,.65,1.67,1.02,2.86,1.02s2.29-.42,3.09-1.27v1.14h2.28Zm-15.97-5.24h-5l2.54-7.06,2.47,7.06Zm4.43,5.24l-5.96-15.9h-1.99l-5.96,15.9h2.63l1.12-3.19h6.42l1.12,3.19h2.63Z"/><path class="j" d="M174.17,261.45h-2.79v2.72h2.79v-2.72Zm-5.3,2.72l-4.52-6.87,4.02-4.44h-2.83l-4.5,5.22v-9.8h-2.33v15.9h2.33v-3.33l1.71-1.9,3.25,5.22h2.88Zm-13.99,0v-7.23c0-1.27-.27-2.35-1.16-3.19-.68-.65-1.67-1.02-2.86-1.02s-2.29,.42-3.09,1.27v-1.14h-2.28v11.32h2.33v-6.9c0-1.74,1.1-2.52,2.4-2.52s2.33,.76,2.33,2.52v6.9h2.33Zm-15.54-4.08c0,.8-.16,1.34-.5,1.68-.62,.58-1.28,.65-2.17,.65-1.46,0-2.13-.58-2.13-1.61s.71-1.63,2.08-1.63h2.72v.92Zm2.33,4.08v-7.57c0-2.57-1.6-3.88-4.77-3.88-1.92,0-3.06,.38-4.16,1.63l1.53,1.41c.64-.81,1.26-1.1,2.54-1.1,1.81,0,2.54,.69,2.54,2.12v.81h-3.06c-2.65,0-4,1.36-4,3.26,0,.96,.32,1.83,.91,2.43,.71,.69,1.67,1.03,3.11,1.03s2.24-.33,3.09-1.16v1.02h2.28Zm-14.6-8.06c0,2.19-.02,3.91-.87,4.82-.69,.74-1.6,1.07-2.77,1.07h-2.99v-11.57h2.99c1.17,0,2.08,.34,2.77,1.07,.84,.92,.87,2.41,.87,4.6m2.47,0c0-2.3,.11-4.62-1.64-6.34-1.03-1-2.51-1.49-4.21-1.49h-5.71v15.9h5.71c1.69,0,3.18-.49,4.21-1.49,1.76-1.72,1.64-4.26,1.64-6.56m-21.37,8.06v-7.23c0-1.27-.27-2.35-1.16-3.19-.69-.65-1.67-1.02-2.86-1.02s-2.29,.42-3.09,1.27v-1.14h-2.28v11.32h2.33v-6.9c0-1.74,1.1-2.52,2.4-2.52s2.33,.76,2.33,2.52v6.9h2.33Zm-15.01-6.58h-5.21c.02-.69,.07-1.03,.3-1.54,.37-.85,1.21-1.43,2.31-1.43s1.92,.58,2.29,1.43c.23,.51,.3,.85,.32,1.54m2.31,1.58v-1c0-3.22-1.81-5.45-4.91-5.45s-4.91,2.12-4.91,5.78c0,4.31,2.3,5.81,5.21,5.81,2.03,0,3.15-.6,4.34-1.76l-1.49-1.36c-.82,.8-1.51,1.16-2.81,1.16-1.9,0-2.95-1.23-2.95-3.17h7.52Zm-11.45,5v-1.94h-1.03c-.94,0-1.26-.45-1.26-1.32v-12.64h-2.33v12.77c0,1.67,.96,3.12,3.18,3.12h1.44Zm-10.17-6.58h-5.21c.02-.69,.07-1.03,.3-1.54,.37-.85,1.21-1.43,2.31-1.43s1.92,.58,2.29,1.43c.23,.51,.3,.85,.32,1.54m2.31,1.58v-1c0-3.22-1.8-5.45-4.91-5.45s-4.91,2.12-4.91,5.78c0,4.31,2.31,5.81,5.21,5.81,2.04,0,3.15-.6,4.34-1.76l-1.48-1.36c-.82,.8-1.51,1.16-2.81,1.16-1.9,0-2.95-1.23-2.95-3.17h7.52Zm-13.09-10.96h-2.47v2.41h2.47v-2.41Zm-.07,4.64h-2.33v11.32h2.33v-11.32Zm-4.52-4.58h-2.61l-3.75,11.56-3.75-11.56h-2.56l5.35,15.9h1.92l5.39-15.9Z"/><path class="j" d="M914.87,158.04h-2.79v2.72h2.79v-2.72Zm-8.34-3.86h-5.21c.02-.69,.07-1.03,.3-1.54,.37-.85,1.21-1.43,2.31-1.43s1.92,.58,2.29,1.43c.23,.51,.3,.85,.32,1.54m2.31,1.58v-1c0-3.22-1.8-5.45-4.91-5.45s-4.91,2.12-4.91,5.78c0,4.31,2.31,5.81,5.21,5.81,2.04,0,3.15-.6,4.34-1.76l-1.48-1.36c-.82,.8-1.51,1.16-2.81,1.16-1.9,0-2.95-1.23-2.95-3.17h7.52Zm-11.45,5v-1.94h-1.03c-.94,0-1.26-.45-1.26-1.32v-12.64h-2.33v12.77c0,1.67,.96,3.12,3.17,3.12h1.44Zm-8.48,0v-11.32h-2.33v6.9c0,1.74-1.1,2.53-2.4,2.53s-2.33-.76-2.33-2.52v-6.9h-2.33v7.23c0,1.27,.27,2.34,1.16,3.19,.68,.65,1.67,1.02,2.86,1.02s2.29-.42,3.09-1.27v1.14h2.28Zm-13.09,0v-7.3c0-2.45-1.44-4.15-4.02-4.15-1.15,0-2.2,.42-3,1.27v-5.71h-2.33v15.9h2.33v-6.95c0-1.7,1.05-2.48,2.35-2.48s2.33,.76,2.33,2.48v6.95h2.33Zm-12.27-1.47l-1.6-1.49c-.73,.78-1.3,1.07-2.22,1.07s-1.65-.36-2.15-1.01c-.5-.63-.69-1.45-.69-2.77s.18-2.12,.69-2.75c.5-.65,1.26-1.01,2.15-1.01s1.48,.29,2.22,1.07l1.6-1.52c-1.1-1.14-2.22-1.58-3.82-1.58-2.61,0-5.16,1.54-5.16,5.78s2.56,5.8,5.16,5.8c1.6,0,2.72-.47,3.82-1.61m-11.65-3.06c0-1.36-.44-2.5-1.33-3.26-.69-.6-1.53-.96-3.04-1.18l-1.85-.27c-.76-.11-1.42-.38-1.83-.74-.44-.38-.62-.89-.62-1.47,0-1.41,1.05-2.48,2.97-2.48,1.37,0,2.54,.29,3.54,1.23l1.57-1.52c-1.39-1.27-2.9-1.81-5.05-1.81-3.38,0-5.44,1.9-5.44,4.67,0,1.3,.39,2.3,1.19,3.04,.71,.65,1.76,1.1,3.08,1.27l1.92,.27c.96,.13,1.37,.29,1.78,.67,.44,.38,.64,.96,.64,1.65,0,1.54-1.23,2.44-3.36,2.44-1.67,0-2.97-.36-4.16-1.52l-1.64,1.58c1.55,1.54,3.31,2.1,5.76,2.1,3.41,0,5.85-1.74,5.85-4.67m-21.78-2.05h-5.21c.02-.69,.07-1.03,.3-1.54,.37-.85,1.21-1.43,2.31-1.43s1.92,.58,2.29,1.43c.23,.51,.3,.85,.32,1.54m2.31,1.58v-1c0-3.22-1.81-5.45-4.91-5.45s-4.91,2.12-4.91,5.78c0,4.31,2.3,5.81,5.21,5.81,2.03,0,3.15-.6,4.34-1.76l-1.49-1.36c-.82,.8-1.51,1.16-2.81,1.16-1.9,0-2.95-1.23-2.95-3.17h7.52Zm-13.1-10.96h-2.47v2.41h2.47v-2.41Zm-.07,4.64h-2.33v11.32h2.33v-11.32Zm-8.59,5.65c0,2.01-.3,3.77-2.4,3.77s-2.42-1.77-2.42-3.77,.32-3.75,2.42-3.75,2.4,1.74,2.4,3.75m2.33,5.67v-15.9h-2.33v5.71c-.85-.98-1.81-1.27-3.04-1.27-1.17,0-2.17,.38-2.81,1-1.16,1.14-1.3,3.06-1.3,4.78s.13,3.66,1.3,4.8c.64,.63,1.67,1,2.83,1,1.26,0,2.2-.31,3.06-1.34v1.2h2.28Zm-18.46,0v-7.23c0-1.27-.27-2.34-1.16-3.19-.69-.65-1.67-1.02-2.86-1.02s-2.29,.42-3.09,1.27v-1.14h-2.28v11.32h2.33v-6.9c0-1.74,1.1-2.52,2.4-2.52s2.33,.76,2.33,2.52v6.9h2.33Zm-13.25-15.96h-2.47v2.41h2.47v-2.41Zm-.07,4.64h-2.33v11.32h2.33v-11.32Zm-10.17,.94c-.8-.78-1.65-1.07-2.76-1.07-1.3,0-2.49,.56-3.09,1.36v-1.22h-2.28v11.32h2.33v-6.88c0-1.56,1.05-2.55,2.31-2.55,.8,0,1.21,.24,1.74,.76l1.76-1.72Zm-13.76,3.8h-5.21c.02-.69,.07-1.03,.3-1.54,.37-.85,1.21-1.43,2.31-1.43s1.92,.58,2.29,1.43c.23,.51,.3,.85,.32,1.54m2.31,1.58v-1c0-3.22-1.81-5.45-4.91-5.45s-4.91,2.12-4.91,5.78c0,4.31,2.3,5.81,5.21,5.81,2.03,0,3.15-.6,4.34-1.76l-1.49-1.36c-.82,.8-1.51,1.16-2.81,1.16-1.9,0-2.95-1.23-2.95-3.17h7.52Zm-15.49-.67c0,2.01-.3,3.77-2.4,3.77s-2.42-1.77-2.42-3.77,.32-3.75,2.42-3.75,2.4,1.74,2.4,3.75m2.33,5.67v-15.9h-2.33v5.71c-.85-.98-1.81-1.27-3.04-1.27-1.17,0-2.17,.38-2.81,1-1.16,1.14-1.3,3.06-1.3,4.78s.14,3.66,1.3,4.8c.64,.63,1.67,1,2.83,1,1.26,0,2.2-.31,3.06-1.34v1.2h2.28Zm-14.56-6.58h-5.21c.02-.69,.07-1.03,.3-1.54,.37-.85,1.21-1.43,2.31-1.43s1.92,.58,2.29,1.43c.23,.51,.3,.85,.32,1.54m2.31,1.58v-1c0-3.22-1.8-5.45-4.91-5.45s-4.91,2.12-4.91,5.78c0,4.31,2.31,5.81,5.21,5.81,2.04,0,3.15-.6,4.34-1.76l-1.48-1.36c-.82,.8-1.51,1.16-2.81,1.16-1.9,0-2.95-1.23-2.95-3.17h7.52Zm-13.09-10.96h-2.47v2.41h2.47v-2.41Zm-.07,4.64h-2.33v11.32h2.33v-11.32Zm-4.59,0h-2.49l-2.24,7.97-2.67-7.97h-1.8l-2.7,7.97-2.24-7.97h-2.47l3.59,11.32h2.01l2.7-7.9,2.72,7.9h1.99l3.61-11.32Zm-24.68,8.71v-10.67c0-.89-.07-1.76-.55-2.59-.46-.8-1.09-1.41-1.83-2.12l-1.6,1.56c.55,.54,.91,.85,1.26,1.47,.23,.42,.34,1.03,.34,1.81v10.41c0,.78-.11,1.38-.34,1.81-.34,.63-.71,.94-1.26,1.47l1.6,1.56c.73-.71,1.37-1.32,1.83-2.12,.48-.83,.55-1.7,.55-2.59m-7.27,2.61v-7.23c0-1.27-.34-2.34-1.23-3.19-.69-.65-1.74-1.02-2.93-1.02-1.53,0-2.7,.53-3.63,1.65-.73-1.09-1.85-1.65-3.29-1.65-1.17,0-2.31,.44-3.09,1.27v-1.14h-2.28v11.32h2.33v-6.9c0-1.74,1.1-2.52,2.4-2.52s2.33,.76,2.33,2.52v6.9h2.33v-7.01c0-1.63,1.15-2.41,2.4-2.41s2.33,.76,2.33,2.52v6.9h2.33Zm-20.38,0v-11.32h-2.33v6.9c0,1.74-1.1,2.53-2.4,2.53s-2.33-.76-2.33-2.52v-6.9h-2.33v7.23c0,1.27,.27,2.34,1.16,3.19,.68,.65,1.67,1.02,2.86,1.02s2.29-.42,3.09-1.27v1.14h2.28Zm-12.48,0v-1.94h-.96c-.87,0-1.28-.49-1.28-1.31v-6.1h2.24v-1.74h-2.24v-3.46h-2.33v3.46h-1.33v1.74h1.33v6.21c0,1.63,1.01,3.14,3.18,3.14h1.39Zm-10.99-4.08c0,.8-.16,1.34-.5,1.68-.62,.58-1.28,.65-2.17,.65-1.46,0-2.13-.58-2.13-1.61s.71-1.63,2.08-1.63h2.72v.92Zm2.33,4.08v-7.57c0-2.57-1.6-3.88-4.77-3.88-1.92,0-3.06,.38-4.16,1.63l1.53,1.41c.64-.8,1.26-1.1,2.54-1.1,1.81,0,2.54,.69,2.54,2.12v.81h-3.06c-2.65,0-4,1.36-4,3.26,0,.96,.32,1.83,.91,2.44,.71,.69,1.67,1.02,3.11,1.02s2.24-.33,3.09-1.16v1.02h2.28Zm-14.6-8.06c0,2.19-.02,3.91-.87,4.83-.69,.74-1.6,1.07-2.77,1.07h-2.99v-11.57h2.99c1.17,0,2.08,.34,2.77,1.07,.85,.91,.87,2.41,.87,4.6m2.47,0c0-2.3,.12-4.62-1.64-6.34-1.03-1-2.51-1.49-4.2-1.49h-5.71v15.9h5.71c1.69,0,3.18-.49,4.2-1.49,1.76-1.72,1.64-4.26,1.64-6.56m-15.24,8.62c-.55-.54-.94-.85-1.28-1.47-.23-.43-.34-1.03-.34-1.83v-10.41c0-.8,.12-1.41,.34-1.83,.34-.62,.73-.94,1.28-1.47l-1.58-1.54c-.73,.71-1.39,1.32-1.85,2.12-.48,.82-.52,1.69-.52,2.59v10.67c0,.89,.05,1.76,.52,2.59,.46,.8,1.12,1.41,1.85,2.12l1.58-1.54Zm-185.46-.56v-7.23c0-1.27-.34-2.34-1.23-3.19-.69-.65-1.74-1.02-2.93-1.02-1.53,0-2.7,.53-3.63,1.65-.73-1.09-1.85-1.65-3.29-1.65-1.16,0-2.31,.44-3.09,1.27v-1.14h-2.28v11.32h2.33v-6.9c0-1.74,1.1-2.52,2.4-2.52s2.33,.76,2.33,2.52v6.9h2.33v-7.01c0-1.63,1.14-2.41,2.4-2.41s2.33,.76,2.33,2.52v6.9h2.33Zm-22.6-4.08c0,.8-.16,1.34-.5,1.68-.62,.58-1.28,.65-2.17,.65-1.46,0-2.13-.58-2.13-1.61s.71-1.63,2.08-1.63h2.72v.92Zm2.33,4.08v-7.57c0-2.57-1.6-3.88-4.77-3.88-1.92,0-3.06,.38-4.16,1.63l1.53,1.41c.64-.8,1.26-1.1,2.54-1.1,1.81,0,2.54,.69,2.54,2.12v.81h-3.06c-2.65,0-4,1.36-4,3.26,0,.96,.32,1.83,.91,2.44,.71,.69,1.67,1.02,3.11,1.02s2.24-.33,3.09-1.16v1.02h2.28Zm-18.05,0v-7.3c0-2.45-1.44-4.15-4.02-4.15-1.14,0-2.2,.42-3,1.27v-5.71h-2.33v15.9h2.33v-6.95c0-1.7,1.05-2.48,2.35-2.48s2.33,.76,2.33,2.48v6.95h2.33Zm-12.27-1.47l-1.6-1.49c-.73,.78-1.3,1.07-2.22,1.07s-1.65-.36-2.15-1.01c-.5-.63-.69-1.45-.69-2.77s.18-2.12,.69-2.75c.5-.65,1.26-1.01,2.15-1.01s1.48,.29,2.22,1.07l1.6-1.52c-1.1-1.14-2.22-1.58-3.82-1.58-2.61,0-5.16,1.54-5.16,5.78s2.56,5.8,5.16,5.8c1.6,0,2.72-.47,3.82-1.61m-12.25-14.49h-2.47v2.41h2.47v-2.41Zm-.07,4.64h-2.33v11.32h2.33v-11.32Zm-5.12,11.32v-1.94h-1.03c-.94,0-1.26-.45-1.26-1.32v-12.64h-2.33v12.77c0,1.67,.96,3.12,3.18,3.12h1.44Zm-7.75,0v-1.94h-.96c-.87,0-1.28-.49-1.28-1.31v-6.1h2.24v-1.74h-2.24v-3.46h-2.33v3.46h-1.33v1.74h1.33v6.21c0,1.63,1,3.14,3.17,3.14h1.4Zm-8.66,0v-7.3c0-2.45-1.44-4.15-4.02-4.15-1.14,0-2.2,.42-2.99,1.27v-5.71h-2.33v15.9h2.33v-6.95c0-1.7,1.05-2.48,2.35-2.48s2.33,.76,2.33,2.48v6.95h2.33Zm-12.27-1.47l-1.6-1.49c-.73,.78-1.3,1.07-2.22,1.07s-1.65-.36-2.15-1.01c-.5-.63-.69-1.45-.69-2.77s.18-2.12,.69-2.75c.5-.65,1.26-1.01,2.15-1.01s1.49,.29,2.22,1.07l1.6-1.52c-1.1-1.14-2.22-1.58-3.82-1.58-2.61,0-5.16,1.54-5.16,5.78s2.55,5.8,5.16,5.8c1.6,0,2.72-.47,3.82-1.61m-12.25-14.49h-2.47v2.41h2.47v-2.41Zm-.07,4.64h-2.33v11.32h2.33v-11.32Zm-5.39,7.86c0-2.01-1.28-3.02-3.45-3.19l-1.83-.16c-1.23-.11-1.6-.63-1.6-1.3,0-.85,.71-1.45,2.1-1.45,1.1,0,2.12,.22,2.86,.83l1.46-1.45c-1.07-.91-2.56-1.27-4.3-1.27-2.42,0-4.36,1.25-4.36,3.46,0,1.99,1.26,2.95,3.43,3.13l1.85,.16c1.12,.09,1.55,.58,1.55,1.34,0,1.07-1.12,1.57-2.54,1.57-1.14,0-2.4-.25-3.34-1.18l-1.53,1.49c1.37,1.32,2.97,1.63,4.87,1.63,2.76,0,4.82-1.23,4.82-3.59m-11.49,0c0-2.01-1.28-3.02-3.45-3.19l-1.83-.16c-1.23-.11-1.6-.63-1.6-1.3,0-.85,.71-1.45,2.1-1.45,1.1,0,2.13,.22,2.86,.83l1.46-1.45c-1.08-.91-2.56-1.27-4.3-1.27-2.42,0-4.37,1.25-4.37,3.46,0,1.99,1.26,2.95,3.43,3.13l1.85,.16c1.12,.09,1.55,.58,1.55,1.34,0,1.07-1.12,1.57-2.54,1.57-1.14,0-2.4-.25-3.34-1.18l-1.53,1.49c1.37,1.32,2.97,1.63,4.87,1.63,2.77,0,4.82-1.23,4.82-3.59m-12.5,3.46v-11.32h-2.33v6.9c0,1.74-1.1,2.53-2.4,2.53s-2.33-.76-2.33-2.52v-6.9h-2.33v7.23c0,1.27,.27,2.34,1.16,3.19,.69,.65,1.67,1.02,2.86,1.02s2.29-.42,3.09-1.27v1.14h2.28Zm-15.42-4.08c0,.8-.16,1.34-.5,1.68-.62,.58-1.28,.65-2.17,.65-1.46,0-2.13-.58-2.13-1.61s.71-1.63,2.08-1.63h2.72v.92Zm2.33,4.08v-7.57c0-2.57-1.6-3.88-4.77-3.88-1.92,0-3.06,.38-4.16,1.63l1.53,1.41c.64-.8,1.26-1.1,2.54-1.1,1.81,0,2.54,.69,2.54,2.12v.81h-3.06c-2.65,0-4,1.36-4,3.26,0,.96,.32,1.83,.91,2.44,.71,.69,1.67,1.02,3.11,1.02s2.24-.33,3.09-1.16v1.02h2.28Zm-10.42-10.38c-.8-.78-1.65-1.07-2.76-1.07-1.3,0-2.49,.56-3.09,1.36v-1.22h-2.28v11.32h2.33v-6.88c0-1.56,1.05-2.55,2.31-2.55,.8,0,1.21,.24,1.74,.76l1.76-1.72Zm-13.85,4.71c0,1.23-.09,2.41-.8,3.1-.44,.42-1.03,.67-1.72,.67s-1.26-.25-1.69-.67c-.71-.69-.8-1.88-.8-3.1s.09-2.41,.8-3.1c.44-.43,1.01-.65,1.69-.65s1.28,.22,1.72,.65c.71,.69,.8,1.88,.8,3.1m2.33,0c0-1.9-.27-3.33-1.37-4.44-.75-.76-1.9-1.34-3.47-1.34s-2.7,.58-3.45,1.34c-1.09,1.12-1.37,2.55-1.37,4.44s.27,3.35,1.37,4.47c.75,.76,1.87,1.34,3.45,1.34s2.72-.58,3.47-1.34c1.09-1.12,1.37-2.55,1.37-4.47m-11.15-5.65h-2.47l-2.72,7.97-2.74-7.97h-2.47l4.25,11.32h1.9l4.25-11.32Zm-17.64,11.32v-1.94h-.96c-.87,0-1.28-.49-1.28-1.31v-6.1h2.24v-1.74h-2.24v-3.46h-2.33v3.46h-1.33v1.74h1.33v6.21c0,1.63,1,3.14,3.17,3.14h1.39Zm-8.66,0v-7.23c0-1.27-.34-2.34-1.23-3.19-.69-.65-1.74-1.02-2.93-1.02-1.53,0-2.7,.53-3.63,1.65-.73-1.09-1.85-1.65-3.29-1.65-1.17,0-2.31,.44-3.09,1.27v-1.14h-2.28v11.32h2.33v-6.9c0-1.74,1.1-2.52,2.4-2.52s2.33,.76,2.33,2.52v6.9h2.33v-7.01c0-1.63,1.15-2.41,2.4-2.41s2.33,.76,2.33,2.52v6.9h2.33Zm-20.27,0v-7.23c0-1.27-.34-2.34-1.23-3.19-.69-.65-1.73-1.02-2.93-1.02-1.53,0-2.7,.53-3.63,1.65-.73-1.09-1.85-1.65-3.29-1.65-1.17,0-2.31,.44-3.09,1.27v-1.14h-2.28v11.32h2.33v-6.9c0-1.74,1.1-2.52,2.4-2.52s2.33,.76,2.33,2.52v6.9h2.33v-7.01c0-1.63,1.14-2.41,2.4-2.41s2.33,.76,2.33,2.52v6.9h2.33Zm-22.16-5.67c0,1.23-.09,2.41-.8,3.1-.44,.42-1.03,.67-1.72,.67s-1.26-.25-1.69-.67c-.71-.69-.8-1.88-.8-3.1s.09-2.41,.8-3.1c.43-.43,1.01-.65,1.69-.65s1.28,.22,1.72,.65c.71,.69,.8,1.88,.8,3.1m2.33,0c0-1.9-.27-3.33-1.37-4.44-.75-.76-1.9-1.34-3.47-1.34s-2.7,.58-3.45,1.34c-1.1,1.12-1.37,2.55-1.37,4.44s.27,3.35,1.37,4.47c.75,.76,1.87,1.34,3.45,1.34s2.72-.58,3.47-1.34c1.1-1.12,1.37-2.55,1.37-4.47m-11.54,5.67l-4.52-6.87,4.02-4.44h-2.83l-4.5,5.22v-9.8h-2.33v15.9h2.33v-3.33l1.71-1.9,3.25,5.22h2.88Zm-22.14-5.67c0,2.01-.3,3.77-2.4,3.77s-2.42-1.77-2.42-3.77,.32-3.75,2.42-3.75,2.4,1.74,2.4,3.75m2.33,5.67v-15.9h-2.33v5.71c-.85-.98-1.81-1.27-3.04-1.27-1.17,0-2.17,.38-2.81,1-1.16,1.14-1.3,3.06-1.3,4.78s.14,3.66,1.3,4.8c.64,.63,1.67,1,2.83,1,1.26,0,2.2-.31,3.06-1.34v1.2h2.28Zm-12.75,0v-7.23c0-1.27-.27-2.34-1.16-3.19-.69-.65-1.67-1.02-2.86-1.02s-2.29,.42-3.09,1.27v-1.14h-2.28v11.32h2.33v-6.9c0-1.74,1.1-2.52,2.4-2.52s2.33,.76,2.33,2.52v6.9h2.33Zm-13.25-15.96h-2.47v2.41h2.47v-2.41Zm-.07,4.64h-2.33v11.32h2.33v-11.32Zm-4.64,11.32l-5.83-9.67,5.28-6.23h-3.02l-6.65,7.99v-7.99h-2.47v15.9h2.47v-4.62l2.74-3.22,4.57,7.84h2.9Zm-22.49,0v-7.23c0-1.27-.27-2.34-1.16-3.19-.68-.65-1.67-1.02-2.86-1.02s-2.29,.42-3.09,1.27v-1.14h-2.28v11.32h2.33v-6.9c0-1.74,1.1-2.52,2.4-2.52s2.33,.76,2.33,2.52v6.9h2.33Zm-13.25-15.96h-2.47v2.41h2.47v-2.41Zm-.07,4.64h-2.33v11.32h2.33v-11.32Zm-7.95,4.73h-5.21c.02-.69,.07-1.03,.3-1.54,.37-.85,1.21-1.43,2.31-1.43s1.92,.58,2.29,1.43c.23,.51,.3,.85,.32,1.54m2.31,1.58v-1c0-3.22-1.8-5.45-4.91-5.45s-4.91,2.12-4.91,5.78c0,4.31,2.3,5.81,5.21,5.81,2.04,0,3.15-.6,4.34-1.76l-1.48-1.36c-.82,.8-1.51,1.16-2.81,1.16-1.9,0-2.95-1.23-2.95-3.17h7.52Zm-13.41,5v-15.9h-2.47l-4.66,9.89-4.76-9.89h-2.47v15.9h2.47v-10.63l3.84,7.75h1.83l3.75-7.75v10.63h2.47Z"/><path class="j" d="M988.79,80.48h-2.79v2.72h2.79v-2.72Zm-5.3,2.72l-4.52-6.87,4.02-4.44h-2.83l-4.5,5.22v-9.8h-2.33v15.89h2.33v-3.33l1.71-1.9,3.25,5.22h2.88Zm-13.99,0v-7.23c0-1.27-.27-2.34-1.16-3.19-.68-.65-1.67-1.02-2.86-1.02s-2.29,.42-3.09,1.27v-1.14h-2.28v11.32h2.33v-6.9c0-1.74,1.1-2.53,2.4-2.53s2.33,.76,2.33,2.52v6.9h2.33Zm-15.53-4.08c0,.81-.16,1.34-.51,1.68-.62,.58-1.28,.65-2.17,.65-1.46,0-2.13-.58-2.13-1.61s.71-1.63,2.08-1.63h2.72v.92Zm2.33,4.08v-7.57c0-2.57-1.6-3.89-4.77-3.89-1.92,0-3.06,.38-4.16,1.63l1.53,1.41c.64-.8,1.26-1.1,2.54-1.1,1.81,0,2.54,.69,2.54,2.12v.8h-3.06c-2.65,0-4,1.36-4,3.26,0,.96,.32,1.83,.91,2.43,.71,.69,1.66,1.02,3.11,1.02s2.24-.33,3.09-1.16v1.02h2.28Zm-10.42-10.38c-.8-.78-1.65-1.07-2.76-1.07-1.3,0-2.49,.56-3.09,1.36v-1.23h-2.28v11.32h2.33v-6.88c0-1.56,1.05-2.55,2.31-2.55,.8,0,1.21,.25,1.74,.76l1.76-1.72Zm-10.72,10.38l-4.52-6.87,4.02-4.44h-2.83l-4.5,5.22v-9.8h-2.33v15.89h2.33v-3.33l1.72-1.9,3.25,5.22h2.88Zm-19.7,0v-7.3c0-2.46-1.44-4.15-4.02-4.15-1.14,0-2.2,.42-2.99,1.27v-5.71h-2.33v15.89h2.33v-6.94c0-1.7,1.05-2.48,2.35-2.48s2.33,.76,2.33,2.48v6.94h2.33Zm-12.27-1.47l-1.6-1.49c-.73,.78-1.3,1.07-2.22,1.07s-1.65-.36-2.15-1.01c-.5-.63-.69-1.45-.69-2.77s.18-2.12,.69-2.75c.5-.65,1.26-1.01,2.15-1.01s1.49,.29,2.22,1.07l1.6-1.52c-1.1-1.14-2.22-1.58-3.82-1.58-2.61,0-5.16,1.54-5.16,5.78s2.56,5.8,5.16,5.8c1.6,0,2.72-.47,3.82-1.61m-14.1-4.2c0,1.23-.09,2.41-.8,3.1-.44,.43-1.03,.67-1.72,.67s-1.26-.24-1.69-.67c-.71-.69-.8-1.88-.8-3.1s.09-2.41,.8-3.1c.43-.43,1.01-.65,1.69-.65s1.28,.22,1.72,.65c.71,.69,.8,1.88,.8,3.1m2.33,0c0-1.9-.27-3.33-1.37-4.44-.75-.76-1.9-1.34-3.47-1.34s-2.7,.58-3.45,1.34c-1.09,1.12-1.37,2.55-1.37,4.44s.27,3.35,1.37,4.47c.75,.76,1.87,1.34,3.45,1.34s2.72-.58,3.47-1.34c1.1-1.11,1.37-2.55,1.37-4.47m-12.93,5.67v-7.23c0-1.27-.27-2.34-1.16-3.19-.69-.65-1.67-1.02-2.86-1.02s-2.29,.42-3.09,1.27v-1.14h-2.28v11.32h2.33v-6.9c0-1.74,1.1-2.53,2.4-2.53s2.33,.76,2.33,2.52v6.9h2.33Zm-18.3,0v-1.94h-.96c-.87,0-1.28-.49-1.28-1.31v-6.1h2.24v-1.74h-2.24v-3.46h-2.33v3.46h-1.33v1.74h1.33v6.21c0,1.63,1.01,3.14,3.18,3.14h1.39Zm-7.68-3.46c0-2.01-1.28-3.02-3.45-3.19l-1.83-.16c-1.23-.11-1.6-.63-1.6-1.3,0-.85,.71-1.45,2.1-1.45,1.1,0,2.13,.22,2.86,.83l1.46-1.45c-1.08-.91-2.56-1.27-4.3-1.27-2.42,0-4.37,1.25-4.37,3.46,0,1.99,1.26,2.95,3.43,3.13l1.85,.16c1.12,.09,1.55,.58,1.55,1.34,0,1.07-1.12,1.56-2.54,1.56-1.14,0-2.4-.24-3.34-1.18l-1.53,1.5c1.37,1.32,2.97,1.63,4.87,1.63,2.77,0,4.82-1.22,4.82-3.59m-12.43-12.5h-2.47v2.41h2.47v-2.41Zm-.07,4.64h-2.33v11.32h2.33v-11.32Zm-12.07,8.71v-10.67c0-.89-.07-1.77-.55-2.59-.46-.8-1.09-1.41-1.83-2.12l-1.6,1.56c.55,.54,.91,.85,1.26,1.47,.23,.43,.34,1.03,.34,1.81v10.4c0,.78-.11,1.38-.34,1.81-.34,.63-.71,.94-1.26,1.47l1.6,1.56c.73-.71,1.37-1.32,1.83-2.12,.48-.82,.55-1.7,.55-2.59m-6.51-.85c0-2.01-1.28-3.02-3.45-3.19l-1.83-.16c-1.23-.11-1.6-.63-1.6-1.3,0-.85,.71-1.45,2.1-1.45,1.1,0,2.12,.22,2.86,.83l1.46-1.45c-1.07-.91-2.56-1.27-4.3-1.27-2.42,0-4.36,1.25-4.36,3.46,0,1.99,1.26,2.95,3.43,3.13l1.85,.16c1.12,.09,1.55,.58,1.55,1.34,0,1.07-1.12,1.56-2.54,1.56-1.14,0-2.4-.24-3.34-1.18l-1.53,1.5c1.37,1.32,2.97,1.63,4.87,1.63,2.76,0,4.82-1.22,4.82-3.59m-14.19-3.13h-5.21c.02-.69,.07-1.03,.3-1.54,.37-.85,1.21-1.43,2.31-1.43s1.92,.58,2.29,1.43c.23,.51,.3,.85,.32,1.54m2.31,1.58v-1c0-3.22-1.81-5.45-4.91-5.45s-4.91,2.12-4.91,5.78c0,4.31,2.3,5.8,5.21,5.8,2.03,0,3.15-.6,4.34-1.76l-1.49-1.36c-.82,.8-1.51,1.16-2.81,1.16-1.9,0-2.95-1.23-2.95-3.18h7.52Zm-15.49-.67c0,2.01-.3,3.77-2.4,3.77s-2.42-1.77-2.42-3.77,.32-3.75,2.42-3.75,2.4,1.74,2.4,3.75m2.33,5.67v-15.89h-2.33v5.71c-.85-.98-1.81-1.27-3.04-1.27-1.17,0-2.17,.38-2.81,1-1.16,1.14-1.3,3.06-1.3,4.78s.14,3.66,1.3,4.8c.64,.63,1.67,1,2.83,1,1.26,0,2.2-.31,3.06-1.34v1.2h2.28Zm-12.75,0v-7.23c0-1.27-.27-2.34-1.16-3.19-.69-.65-1.67-1.02-2.86-1.02s-2.29,.42-3.09,1.27v-1.14h-2.28v11.32h2.33v-6.9c0-1.74,1.1-2.53,2.4-2.53s2.33,.76,2.33,2.52v6.9h2.33Zm-13.25-15.96h-2.47v2.41h2.47v-2.41Zm-.07,4.64h-2.33v11.32h2.33v-11.32Zm-4.64,11.32l-5.83-9.66,5.28-6.23h-3.02l-6.65,7.99v-7.99h-2.46v15.89h2.46v-4.62l2.74-3.21,4.57,7.83h2.9Zm-21.73-3.46c0-2.01-1.28-3.02-3.45-3.19l-1.83-.16c-1.23-.11-1.6-.63-1.6-1.3,0-.85,.71-1.45,2.1-1.45,1.1,0,2.12,.22,2.86,.83l1.46-1.45c-1.07-.91-2.56-1.27-4.3-1.27-2.42,0-4.36,1.25-4.36,3.46,0,1.99,1.26,2.95,3.43,3.13l1.85,.16c1.12,.09,1.55,.58,1.55,1.34,0,1.07-1.12,1.56-2.54,1.56-1.14,0-2.4-.24-3.34-1.18l-1.53,1.5c1.37,1.32,2.97,1.63,4.87,1.63,2.76,0,4.82-1.22,4.82-3.59m-14.19-3.13h-5.21c.02-.69,.07-1.03,.3-1.54,.37-.85,1.21-1.43,2.31-1.43s1.92,.58,2.29,1.43c.23,.51,.3,.85,.32,1.54m2.31,1.58v-1c0-3.22-1.81-5.45-4.91-5.45s-4.91,2.12-4.91,5.78c0,4.31,2.3,5.8,5.21,5.8,2.03,0,3.15-.6,4.34-1.76l-1.49-1.36c-.82,.8-1.51,1.16-2.81,1.16-1.9,0-2.95-1.23-2.95-3.18h7.52Zm-15.49-.67c0,2.01-.3,3.77-2.4,3.77s-2.42-1.77-2.42-3.77,.32-3.75,2.42-3.75,2.4,1.74,2.4,3.75m2.33,5.67v-15.89h-2.33v5.71c-.85-.98-1.81-1.27-3.04-1.27-1.17,0-2.17,.38-2.81,1-1.16,1.14-1.3,3.06-1.3,4.78s.14,3.66,1.3,4.8c.64,.63,1.67,1,2.83,1,1.26,0,2.2-.31,3.06-1.34v1.2h2.28Zm-20.27-6.58h-5.21c.02-.69,.07-1.03,.3-1.54,.37-.85,1.21-1.43,2.31-1.43s1.92,.58,2.29,1.43c.23,.51,.3,.85,.32,1.54m2.31,1.58v-1c0-3.22-1.81-5.45-4.91-5.45s-4.91,2.12-4.91,5.78c0,4.31,2.3,5.8,5.21,5.8,2.03,0,3.15-.6,4.34-1.76l-1.49-1.36c-.82,.8-1.51,1.16-2.81,1.16-1.9,0-2.95-1.23-2.95-3.18h7.52Zm-13.05,5v-7.23c0-1.27-.34-2.34-1.23-3.19-.69-.65-1.73-1.02-2.93-1.02-1.53,0-2.7,.54-3.63,1.65-.73-1.09-1.85-1.65-3.29-1.65-1.17,0-2.31,.45-3.09,1.27v-1.14h-2.28v11.32h2.33v-6.9c0-1.74,1.1-2.53,2.4-2.53s2.33,.76,2.33,2.52v6.9h2.33v-7.01c0-1.63,1.14-2.41,2.4-2.41s2.33,.76,2.33,2.52v6.9h2.33Zm-22.6-4.08c0,.81-.16,1.34-.5,1.68-.62,.58-1.28,.65-2.17,.65-1.46,0-2.13-.58-2.13-1.61s.71-1.63,2.08-1.63h2.72v.92Zm2.33,4.08v-7.57c0-2.57-1.6-3.89-4.77-3.89-1.92,0-3.06,.38-4.16,1.63l1.53,1.41c.64-.8,1.26-1.1,2.54-1.1,1.81,0,2.54,.69,2.54,2.12v.8h-3.06c-2.65,0-4,1.36-4,3.26,0,.96,.32,1.83,.91,2.43,.71,.69,1.67,1.02,3.11,1.02s2.24-.33,3.09-1.16v1.02h2.28Zm-12.73,0v-15.89h-2.47v11.16l-7.52-11.16h-2.26v15.89h2.47v-11.18l7.52,11.18h2.26Zm-15.93,.56c-.55-.54-.94-.85-1.28-1.47-.23-.42-.34-1.03-.34-1.83v-10.4c0-.8,.11-1.41,.34-1.83,.34-.63,.73-.94,1.28-1.47l-1.58-1.54c-.73,.71-1.39,1.32-1.85,2.12-.48,.82-.52,1.7-.52,2.59v10.67c0,.89,.05,1.77,.52,2.59,.46,.8,1.12,1.41,1.85,2.12l1.58-1.54Zm-303.65-.56v-7.23c0-1.27-.27-2.34-1.16-3.19-.69-.65-1.67-1.02-2.86-1.02s-2.29,.42-3.09,1.27v-1.14h-2.28v11.32h2.33v-6.9c0-1.74,1.1-2.53,2.4-2.53s2.33,.76,2.33,2.52v6.9h2.33Zm-13.21,0v-7.3c0-2.46-1.44-4.15-4.02-4.15-1.15,0-2.2,.42-3,1.27v-5.71h-2.33v15.89h2.33v-6.94c0-1.7,1.05-2.48,2.35-2.48s2.33,.76,2.33,2.48v6.94h2.33Zm-15.06-5.67c0,1.23-.09,2.41-.8,3.1-.44,.43-1.03,.67-1.72,.67s-1.26-.24-1.69-.67c-.71-.69-.8-1.88-.8-3.1s.09-2.41,.8-3.1c.43-.43,1.01-.65,1.69-.65s1.28,.22,1.72,.65c.71,.69,.8,1.88,.8,3.1m2.33,0c0-1.9-.27-3.33-1.37-4.44-.75-.76-1.9-1.34-3.47-1.34s-2.7,.58-3.45,1.34c-1.09,1.12-1.37,2.55-1.37,4.44s.27,3.35,1.37,4.47c.76,.76,1.87,1.34,3.45,1.34s2.72-.58,3.47-1.34c1.1-1.11,1.37-2.55,1.37-4.47m-12.38,1.14c0-1.36-.44-2.5-1.33-3.26-.69-.6-1.53-.96-3.04-1.18l-1.85-.27c-.76-.11-1.42-.38-1.83-.74-.44-.38-.62-.89-.62-1.47,0-1.41,1.05-2.48,2.97-2.48,1.37,0,2.54,.29,3.54,1.23l1.57-1.52c-1.39-1.27-2.9-1.81-5.05-1.81-3.38,0-5.44,1.89-5.44,4.66,0,1.3,.39,2.3,1.19,3.04,.71,.65,1.76,1.1,3.08,1.27l1.92,.27c.96,.13,1.37,.29,1.78,.67,.44,.38,.64,.96,.64,1.65,0,1.54-1.23,2.44-3.36,2.44-1.67,0-2.97-.36-4.16-1.52l-1.64,1.59c1.55,1.54,3.31,2.09,5.76,2.09,3.41,0,5.85-1.74,5.85-4.66m-19.97,4.53v-7.23c0-1.27-.27-2.34-1.16-3.19-.69-.65-1.67-1.02-2.86-1.02s-2.29,.42-3.09,1.27v-1.14h-2.28v11.32h2.33v-6.9c0-1.74,1.1-2.53,2.4-2.53s2.33,.76,2.33,2.52v6.9h2.33Zm-13.25-15.96h-2.47v2.41h2.47v-2.41Zm-.07,4.64h-2.33v11.32h2.33v-11.32Zm-7.95,4.73h-5.21c.02-.69,.07-1.03,.3-1.54,.37-.85,1.21-1.43,2.31-1.43s1.92,.58,2.29,1.43c.23,.51,.3,.85,.32,1.54m2.31,1.58v-1c0-3.22-1.81-5.45-4.91-5.45s-4.91,2.12-4.91,5.78c0,4.31,2.3,5.8,5.21,5.8,2.03,0,3.15-.6,4.34-1.76l-1.49-1.36c-.82,.8-1.51,1.16-2.81,1.16-1.9,0-2.95-1.23-2.95-3.18h7.52Zm-13.41,5v-15.89h-2.47l-4.66,9.89-4.75-9.89h-2.47v15.89h2.47v-10.63l3.84,7.75h1.83l3.75-7.75v10.63h2.47Zm-22.35-17.55h-2.24l-6.51,19.2h2.24l6.51-19.2Zm-14.74,7.16c-.8-.78-1.65-1.07-2.76-1.07-1.3,0-2.49,.56-3.09,1.36v-1.23h-2.28v11.32h2.33v-6.88c0-1.56,1.05-2.55,2.31-2.55,.8,0,1.21,.25,1.74,.76l1.76-1.72Zm-13.76,3.8h-5.21c.02-.69,.07-1.03,.3-1.54,.37-.85,1.21-1.43,2.31-1.43s1.92,.58,2.29,1.43c.23,.51,.3,.85,.32,1.54m2.31,1.58v-1c0-3.22-1.81-5.45-4.91-5.45s-4.91,2.12-4.91,5.78c0,4.31,2.3,5.8,5.21,5.8,2.03,0,3.15-.6,4.34-1.76l-1.49-1.36c-.82,.8-1.51,1.16-2.81,1.16-1.9,0-2.95-1.23-2.95-3.18h7.52Zm-12.36,5v-1.94h-.96c-.87,0-1.28-.49-1.28-1.31v-6.1h2.24v-1.74h-2.24v-3.46h-2.33v3.46h-1.33v1.74h1.33v6.21c0,1.63,1,3.14,3.17,3.14h1.39Zm-8.66,0v-7.3c0-2.46-1.44-4.15-4.02-4.15-1.15,0-2.2,.42-2.99,1.27v-5.71h-2.33v15.89h2.33v-6.94c0-1.7,1.05-2.48,2.35-2.48s2.33,.76,2.33,2.48v6.94h2.33Zm-12.27-1.47l-1.6-1.49c-.73,.78-1.3,1.07-2.22,1.07s-1.65-.36-2.15-1.01c-.5-.63-.69-1.45-.69-2.77s.18-2.12,.69-2.75c.5-.65,1.26-1.01,2.15-1.01s1.49,.29,2.22,1.07l1.6-1.52c-1.1-1.14-2.22-1.58-3.82-1.58-2.61,0-5.16,1.54-5.16,5.78s2.56,5.8,5.16,5.8c1.6,0,2.72-.47,3.82-1.61m-14.1-4.2c0,1.23-.09,2.41-.8,3.1-.44,.43-1.03,.67-1.72,.67s-1.26-.24-1.69-.67c-.71-.69-.8-1.88-.8-3.1s.09-2.41,.8-3.1c.44-.43,1.01-.65,1.69-.65s1.28,.22,1.72,.65c.71,.69,.8,1.88,.8,3.1m2.33,0c0-1.9-.27-3.33-1.37-4.44-.75-.76-1.9-1.34-3.47-1.34s-2.7,.58-3.45,1.34c-1.09,1.12-1.37,2.55-1.37,4.44s.27,3.35,1.37,4.47c.75,.76,1.87,1.34,3.45,1.34s2.72-.58,3.47-1.34c1.09-1.11,1.37-2.55,1.37-4.47m-10.37-8.06v-2.16h-11.42v2.16h4.48v13.73h2.47v-13.73h4.48Zm-21.59,7.15h-5.21c.02-.69,.07-1.03,.3-1.54,.37-.85,1.21-1.43,2.31-1.43s1.92,.58,2.29,1.43c.23,.51,.3,.85,.32,1.54m2.31,1.58v-1c0-3.22-1.8-5.45-4.91-5.45s-4.91,2.12-4.91,5.78c0,4.31,2.3,5.8,5.21,5.8,2.04,0,3.15-.6,4.34-1.76l-1.48-1.36c-.82,.8-1.51,1.16-2.81,1.16-1.9,0-2.95-1.23-2.95-3.18h7.52Zm-13.05,5v-7.23c0-1.27-.27-2.34-1.16-3.19-.69-.65-1.67-1.02-2.86-1.02s-2.29,.42-3.09,1.27v-1.14h-2.28v11.32h2.33v-6.9c0-1.74,1.1-2.53,2.4-2.53s2.33,.76,2.33,2.52v6.9h2.33Zm-13.25-15.96h-2.47v2.41h2.47v-2.41Zm-.07,4.64h-2.33v11.32h2.33v-11.32Zm-7.95,4.73h-5.21c.02-.69,.07-1.03,.3-1.54,.37-.85,1.21-1.43,2.31-1.43s1.92,.58,2.29,1.43c.23,.51,.3,.85,.32,1.54m2.31,1.58v-1c0-3.22-1.8-5.45-4.91-5.45s-4.91,2.12-4.91,5.78c0,4.31,2.31,5.8,5.21,5.8,2.04,0,3.15-.6,4.34-1.76l-1.48-1.36c-.82,.8-1.51,1.16-2.81,1.16-1.9,0-2.95-1.23-2.95-3.18h7.52Zm-13.41,5v-15.89h-2.47l-4.66,9.89-4.75-9.89h-2.47v15.89h2.47v-10.63l3.84,7.75h1.83l3.75-7.75v10.63h2.47Zm-23.31-6.07l-5.28-5.11v2.75l2.47,2.37-2.47,2.39v2.75l5.28-5.13Zm5.78,0l-5.28-5.11v2.75l2.45,2.37-2.45,2.39v2.75l5.28-5.13Z"/></g><rect class="i" x="342.98" y="57.81" width="284.11" height="25.38"/><rect class="i" x="437.79" y="135.37" width="165.92" height="25.38"/></svg>