<?xml version="1.0" encoding="utf-8"?>
<!-- Generator: Adobe Illustrator 26.2.1, SVG Export Plug-In . SVG Version: 6.00 Build 0)  -->
<svg version="1.1" id="Ebene_1" xmlns="http://www.w3.org/2000/svg" xmlns:xlink="http://www.w3.org/1999/xlink" x="0px" y="0px"
	 viewBox="0 0 512 338.27" style="enable-background:new 0 0 512 338.27;" xml:space="preserve">
<style type="text/css">
	.st0{fill:#E59C00;}
	.st1{fill:#2B2961;}
	.st2{clip-path:url(#SVGID_00000074430952022596833740000010181578524554467719_);}
	.st3{clip-path:url(#SVGID_00000173151346476703949570000017091389327438160539_);}
	.st4{clip-path:url(#SVGID_00000127013522074052983910000008208828072952363914_);}
	.st5{clip-path:url(#SVGID_00000045600591713008217320000004727964427938131125_);}
	.st6{fill:#FFFFFF;}
	.st7{clip-path:url(#SVGID_00000015340388473929109410000001084793656407081142_);}
	.st8{clip-path:url(#SVGID_00000113329835628690628210000011526404217103486356_);}
	.st9{clip-path:url(#SVGID_00000071540601949049485790000011519546491392994215_);}
	.st10{clip-path:url(#SVGID_00000036231426555959970600000002628371626647036573_);}
	.st11{clip-path:url(#SVGID_00000070111279799933373450000006582743066330225551_);}
	.st12{clip-path:url(#SVGID_00000126298252076519863510000007278455690302710459_);}
	.st13{clip-path:url(#SVGID_00000054260866559593478610000008204595581187068300_);}
	.st14{clip-path:url(#SVGID_00000171718963660486487910000006207767417474018459_);}
	.st15{clip-path:url(#SVGID_00000183244481656983196060000005386516300386191776_);}
	.st16{clip-path:url(#SVGID_00000176734344635072258290000007288891758915502997_);}
	.st17{clip-path:url(#SVGID_00000168116367065859634040000001414904377914290856_);}
	.st18{clip-path:url(#SVGID_00000067934084981512340330000007441788062934499993_);}
	.st19{clip-path:url(#SVGID_00000140700212497491532030000012203886351269798546_);}
	.st20{clip-path:url(#SVGID_00000038372280401903898540000007995213016220753796_);}
	.st21{clip-path:url(#SVGID_00000146460433793199526530000003919162831011722647_);}
	.st22{clip-path:url(#SVGID_00000020386573344462602440000000459765247345582520_);}
	.st23{clip-path:url(#SVGID_00000005264618984435270850000012019850201359356036_);}
	.st24{clip-path:url(#SVGID_00000162325048389880635440000013698557095231833229_);}
	.st25{clip-path:url(#SVGID_00000011031933130225523440000012885517056859154339_);}
	.st26{clip-path:url(#SVGID_00000098935176324318983500000018109038671238269342_);}
	.st27{clip-path:url(#SVGID_00000127012771851571591050000010032399308495407757_);}
	.st28{clip-path:url(#SVGID_00000121972822420383175010000002636908692106452098_);}
	.st29{clip-path:url(#SVGID_00000047759760408819143720000003911106866455876007_);}
	.st30{clip-path:url(#SVGID_00000075868071152415939820000007204799420215813775_);}
	.st31{clip-path:url(#SVGID_00000067945971231747942300000015963848745409490356_);}
	.st32{clip-path:url(#SVGID_00000075883572965289747490000014997605731985799326_);}
	.st33{clip-path:url(#SVGID_00000026145168616209788960000007914437097915815595_);}
	.st34{clip-path:url(#SVGID_00000123442971048490958940000002630298926128059565_);}
	.st35{clip-path:url(#SVGID_00000114049435945929560470000013562204576724263595_);}
	.st36{clip-path:url(#SVGID_00000163037083267743041140000012459234634219885234_);}
	.st37{clip-path:url(#SVGID_00000090973881354824743350000008168909677135407493_);}
	.st38{clip-path:url(#SVGID_00000135660905560536507040000012845431734612204980_);}
	.st39{clip-path:url(#SVGID_00000061460073134335097050000006093440936709427329_);}
	.st40{clip-path:url(#SVGID_00000059306087853995488930000014541708689498074269_);}
	.st41{clip-path:url(#SVGID_00000034786794249594380630000007790188003531839161_);}
	.st42{clip-path:url(#SVGID_00000055670598000762224380000013306461873491833250_);}
	.st43{clip-path:url(#SVGID_00000075148949377441192420000000204776059840060847_);}
	.st44{clip-path:url(#SVGID_00000098207042484665832720000013666617176796119681_);}
	.st45{opacity:0.52;clip-path:url(#SVGID_00000004521811384237301270000000716153129741456808_);}
	.st46{clip-path:url(#SVGID_00000117645913423479689710000016200308422103766950_);}
	.st47{clip-path:url(#SVGID_00000047763551948142290400000012965733673927518606_);}
	.st48{clip-path:url(#SVGID_00000017481557104624950020000014353421713723895442_);}
	.st49{opacity:0.52;clip-path:url(#SVGID_00000145756809256225591760000014848336075206769831_);}
	.st50{clip-path:url(#SVGID_00000114772472694644427440000003080273251111585944_);}
	.st51{clip-path:url(#SVGID_00000044152901591798120690000000219532992608076716_);}
	.st52{clip-path:url(#SVGID_00000181776520563407672560000010740461863889150346_);}
	.st53{opacity:0.52;clip-path:url(#SVGID_00000032644891370408738810000013347705767269442214_);}
	.st54{clip-path:url(#SVGID_00000181774169449462057440000012820400199388076473_);}
	.st55{clip-path:url(#SVGID_00000101811171543784788210000010921198543480011408_);}
	.st56{clip-path:url(#SVGID_00000103263713253727114640000004839587551574933124_);}
	.st57{opacity:0.52;clip-path:url(#SVGID_00000126306113457501059500000008754507841849690033_);}
	.st58{clip-path:url(#SVGID_00000098179132840937950410000014124547751464969611_);}
	.st59{clip-path:url(#SVGID_00000155135677400895926510000016066097871973047180_);}
	.st60{clip-path:url(#SVGID_00000083799521054888373320000003166978248420972697_);}
	.st61{opacity:0.52;clip-path:url(#SVGID_00000158726161720978323540000015747304160505209225_);}
	.st62{clip-path:url(#SVGID_00000085954061573548314570000014345903763228097201_);}
	.st63{clip-path:url(#SVGID_00000086674611159369007170000011055366748375413930_);}
	.st64{clip-path:url(#SVGID_00000173152822898190623160000018370776298357392062_);}
	.st65{clip-path:url(#SVGID_00000163782435023007432130000005409706298158353310_);}
	.st66{clip-path:url(#SVGID_00000071541977748397137380000008324642821704961161_);}
	.st67{clip-path:url(#SVGID_00000150090328242793233080000014285700982967425463_);}
	.st68{clip-path:url(#SVGID_00000163046906675218313740000008560938524046350499_);}
	.st69{clip-path:url(#SVGID_00000093864893381668273580000000284424266567343744_);}
	.st70{clip-path:url(#SVGID_00000141440588710647020900000015415001631168189352_);}
	.st71{clip-path:url(#SVGID_00000144316922504865554990000016954354101994504098_);}
	.st72{clip-path:url(#SVGID_00000106863901367719344270000006318949916568394154_);}
	.st73{clip-path:url(#SVGID_00000021089477968848346700000004073304057418984602_);}
	.st74{clip-path:url(#SVGID_00000177451754383903294740000016224190812053328788_);}
	.st75{clip-path:url(#SVGID_00000083074415347883099420000002460615378484578483_);}
	.st76{clip-path:url(#SVGID_00000086662275676365440040000001588821251517965706_);}
	.st77{clip-path:url(#SVGID_00000120553544216450244180000014003464010071491995_);}
	.st78{clip-path:url(#SVGID_00000044856794557320548190000005167644480602408075_);}
	.st79{clip-path:url(#SVGID_00000111176869066603190130000007092191463881754267_);}
	.st80{clip-path:url(#SVGID_00000152229397770746270050000005256798527713061792_);}
	.st81{clip-path:url(#SVGID_00000120533552624297624810000004608583097395909524_);}
	.st82{clip-path:url(#SVGID_00000062165873519758216770000016184521519734671504_);}
	.st83{clip-path:url(#SVGID_00000036232425955334480800000017369950621536881072_);}
	.st84{clip-path:url(#SVGID_00000063625134935964060540000003854622890332924596_);}
	.st85{clip-path:url(#SVGID_00000173853787382933353740000013960895302639771009_);}
	.st86{clip-path:url(#SVGID_00000145754747244358512950000009216775338513056172_);}
	.st87{fill:#DAD6E4;}
	.st88{clip-path:url(#SVGID_00000124154239353866597770000006731208460079669407_);}
	.st89{clip-path:url(#SVGID_00000025409498512700779910000003257149189384920717_);}
	.st90{clip-path:url(#SVGID_00000165215252517775693160000014789092708292975271_);}
	.st91{clip-path:url(#SVGID_00000121258688381901041980000013388334756392305817_);}
	.st92{clip-path:url(#SVGID_00000103957094446223392710000000787539785934022789_);}
	.st93{clip-path:url(#SVGID_00000173845470822305268760000008052487836785493940_);}
	.st94{clip-path:url(#SVGID_00000077301783748046304260000012221044737630955413_);}
	.st95{clip-path:url(#SVGID_00000026164223465709568020000013576900663737887155_);}
	.st96{clip-path:url(#SVGID_00000096749114281799685050000014176532752288145848_);}
	.st97{clip-path:url(#SVGID_00000165917333307382559340000013298349360023232386_);}
	.st98{clip-path:url(#SVGID_00000054985254927563352840000010779699562280218284_);}
</style>
<g>
	<g>
		<defs>
			<rect id="SVGID_00000157299364444713540890000003889190856510452924_" y="0" width="512" height="338.27"/>
		</defs>
		<clipPath id="SVGID_00000170968361397601462720000016256466656450146711_">
			<use xlink:href="#SVGID_00000157299364444713540890000003889190856510452924_"  style="overflow:visible;"/>
		</clipPath>
		<g style="clip-path:url(#SVGID_00000170968361397601462720000016256466656450146711_);">
			<path class="st6" d="M17.73,115.09l7.64,29.58c0,0,36.68-11.61,56.63,65.64c19.94,77.19-15.7,92.82-15.7,92.82l8.42,32.59
				l434.76-112.53l-8.39-32.58c0,0-35.26,17.11-55.79-62.37c-20.51-79.44,15.15-94.95,15.15-94.95l-7.96-30.82L17.73,115.09z"/>
		</g>
		<g style="clip-path:url(#SVGID_00000170968361397601462720000016256466656450146711_);">
			<path class="st1" d="M74.72,338.23c-0.45,0-0.89-0.11-1.28-0.34c-0.57-0.34-0.99-0.89-1.16-1.54l-8.42-32.59
				c-0.31-1.19,0.29-2.44,1.42-2.93c0.32-0.15,33.36-16.05,14.27-89.9c-10.19-39.43-24.67-54.65-35.02-60.47
				c-10.26-5.77-18.1-3.49-18.43-3.4c-0.66,0.2-1.37,0.13-1.97-0.2c-0.6-0.34-1.04-0.9-1.21-1.56l-7.64-29.58
				c-0.35-1.34,0.46-2.72,1.8-3.06L451.86,0.04c0.64-0.19,1.33-0.08,1.91,0.26c0.57,0.34,0.99,0.89,1.16,1.54l7.96,30.82
				c0.31,1.19-0.3,2.44-1.43,2.94c-0.32,0.14-33.36,15.97-13.72,92.01c10.51,40.7,24.75,54.89,34.85,59.64
				c9.77,4.6,17.12,1.23,17.43,1.09c0.67-0.33,1.47-0.33,2.15-0.01s1.19,0.92,1.37,1.64l8.39,32.59c0.35,1.35-0.46,2.72-1.8,3.06
				L75.35,338.15C75.14,338.2,74.93,338.23,74.72,338.23z M69.22,304.4l7.3,28.26l429.9-111.27l-7.09-27.53
				c-3.68,0.97-10.57,1.8-18.71-1.97c-16.19-7.48-28.89-28.69-37.76-63.01c-18.28-70.79,7.16-92.23,14.66-96.85l-6.84-26.49
				L20.79,116.89l6.42,24.86c3.71-0.51,11.01-0.53,19.58,4.21c16.4,9.09,29.07,30.53,37.64,63.71
				C102.22,278.52,76.71,299.79,69.22,304.4z"/>
		</g>
	</g>
	<g>
		<polygon class="st0" points="125.2,120.59 165.57,276.79 387.04,219.47 346.66,63.3 		"/>
	</g>
	<g>
		<path class="st0" d="M165.57,277.84c-0.19,0-0.37-0.05-0.53-0.15c-0.24-0.14-0.41-0.37-0.48-0.64l-40.37-156.2
			c-0.14-0.56,0.19-1.13,0.75-1.28L346.4,62.28c0.27-0.07,0.55-0.02,0.79,0.11s0.41,0.37,0.48,0.64l40.38,156.17
			c0.14,0.56-0.19,1.13-0.75,1.28L165.84,277.8C165.75,277.83,165.66,277.84,165.57,277.84z M126.48,121.34l39.85,154.17
			l219.44-56.8L345.91,64.57L126.48,121.34z"/>
	</g>
	<g>
		<path class="st1" d="M150.82,283.39c-0.44,0-0.89-0.11-1.28-0.34c-0.57-0.34-0.99-0.89-1.16-1.54L107.9,124.78
			c-0.35-1.34,0.46-2.72,1.8-3.06l236.61-61.24c0.65-0.18,1.33-0.08,1.91,0.26c0.57,0.34,0.99,0.89,1.16,1.54L389.86,219
			c0.35,1.34-0.46,2.72-1.8,3.06l-236.61,61.25C151.24,283.37,151.03,283.39,150.82,283.39z M113.4,125.95l39.22,151.87
			l231.74-59.99L345.14,65.97L113.4,125.95z"/>
	</g>
	<g>
		<path class="st1" d="M415.84,230.76l-4.5-16.96l4.86-1.29l4.5,16.96L415.84,230.76z M406.84,196.84l-4.5-16.96l4.86-1.29
			l4.5,16.96L406.84,196.84z M397.85,162.91l-4.5-16.96l4.86-1.29l4.5,16.96L397.85,162.91z M388.85,128.99l-4.5-16.96l4.86-1.29
			l4.5,16.96L388.85,128.99z M379.86,95.07l-4.5-16.96l4.86-1.29l4.5,16.96L379.86,95.07z M370.86,61.15l-4.5-16.96l4.86-1.29
			l4.5,16.96L370.86,61.15z"/>
	</g>
	<g>
		<defs>
			<rect id="SVGID_00000052065103466340245960000000046996941835372429_" y="0" width="512" height="338.27"/>
		</defs>
		<clipPath id="SVGID_00000128476818094693834320000003669022989164815238_">
			<use xlink:href="#SVGID_00000052065103466340245960000000046996941835372429_"  style="overflow:visible;"/>
		</clipPath>
		<g style="clip-path:url(#SVGID_00000128476818094693834320000003669022989164815238_);">
			<path class="st6" d="M2.51,107.4v30.62c0,0,37.7,3.64,37.7,83.54c0,79.93-37.7,80.45-37.7,80.45v33.74H451.7v-33.64
				c0,0-37.69,2.03-37.69-80.23c0-82.22,37.69-82.58,37.69-82.58v-31.9H2.51z"/>
		</g>
		<g style="clip-path:url(#SVGID_00000128476818094693834320000003669022989164815238_);">
			<path class="st1" d="M451.7,338.26H2.51c-1.39,0-2.51-1.12-2.51-2.51v-33.73c0-1.37,1.1-2.49,2.48-2.51
				c0.34-0.01,35.22-1.83,35.22-77.95c0-76.28-35.09-81-35.45-81.03c-1.27-0.14-2.26-1.22-2.26-2.5V107.4
				c0-1.39,1.12-2.51,2.51-2.51H451.7c1.39,0,2.51,1.12,2.51,2.51v31.9c0,1.38-1.11,2.5-2.49,2.51c-0.34,0.01-35.2,1.73-35.2,80.07
				c0,42.83,10.39,61.8,19.1,70.17c8.09,7.77,15.63,7.52,15.96,7.54c0.69,0.04,1.36,0.22,1.85,0.7c0.49,0.47,0.78,1.12,0.78,1.81
				v33.64C454.21,337.14,453.09,338.26,451.7,338.26z M5.03,333.24h444.16v-28.78c-3.54-0.47-10.13-2.22-16.85-8.59
				c-13.83-13.1-20.84-38-20.84-73.99c0-72.47,28.85-83.22,37.69-84.82v-27.16H5.03v26.04c8.54,2.16,37.7,14.75,37.7,85.6
				c0,70.53-28.87,81.1-37.7,82.69V333.24z"/>
		</g>
	</g>
	<g>
		<rect x="105.22" y="139.86" class="st0" width="228.82" height="161.43"/>
	</g>
	<g>
		<path class="st0" d="M334.04,302.34H105.22c-0.58,0-1.05-0.47-1.05-1.05V139.87c0-0.58,0.47-1.05,1.05-1.05h228.82
			c0.58,0,1.05,0.47,1.05,1.05V301.3C335.09,301.88,334.62,302.34,334.04,302.34z M106.27,300.25h226.73V140.92H106.27V300.25z"/>
	</g>
	<g>
		<path class="st1" d="M334.43,304.2H89.88c-1.39,0-2.51-1.12-2.51-2.51V139.47c0-1.39,1.12-2.51,2.51-2.51h244.54
			c1.39,0,2.51,1.12,2.51,2.51v162.22C336.94,303.08,335.81,304.2,334.43,304.2z M92.4,299.18h239.52v-157.2H92.4V299.18z"/>
	</g>
	<g>
		<path class="st1" d="M364.18,319.07h-5.03v-17.49h5.03V319.07z M364.18,284.09h-5.03v-17.5h5.03V284.09z M364.18,249.09h-5.03
			v-17.5h5.03V249.09z M364.18,214.1h-5.03v-17.5h5.03V214.1z M364.18,179.1h-5.03v-17.5h5.03V179.1z M364.18,144.11h-5.03v-17.5
			h5.03V144.11z"/>
	</g>
</g>
</svg>
