<?xml version="1.0" encoding="UTF-8"?><svg id="a" xmlns="http://www.w3.org/2000/svg" xmlns:xlink="http://www.w3.org/1999/xlink" viewBox="0 0 1000 385.02"><defs><style>.f{fill:none;}.g{fill:#e59c00;}.h{fill:#fff;}.i{fill:#dad6e4;}.j{fill:#2b2961;}.k{clip-path:url(#c);}.l{clip-path:url(#b);}.m{clip-path:url(#e);}.n{clip-path:url(#d);}</style><clipPath id="b"><rect class="f" y="17.61" width="1000" height="349.8"/></clipPath><clipPath id="c"><rect class="f" y="17.61" width="1000" height="349.8"/></clipPath><clipPath id="d"><rect class="f" y="17.61" width="1000" height="349.8"/></clipPath><clipPath id="e"><rect class="f" y="17.61" width="1000" height="349.8"/></clipPath></defs><polygon class="g" points="3.44 18.34 3.44 357.92 969.34 357.92 991.27 222.27 991.27 18.34 3.44 18.34"/><path class="g" d="M969.58,358.21H3.16V18.05H991.56V222.27l-21.97,135.94Zm-965.85-.58H969.09l21.89-135.41V18.63H3.73V357.63Z"/><g class="l"><path class="j" d="M990.61,358.74H.72c-.4,0-.72-.32-.72-.72V18.33c0-.4,.32-.72,.72-.72H990.61c.4,0,.72,.32,.72,.72V358.02c0,.4-.32,.72-.72,.72ZM1.44,357.3H989.89V19.05H1.44V357.3Z"/></g><polygon class="h" points="9.39 27 9.39 366.69 981.9 366.69 999.28 349.32 999.28 27 9.39 27"/><g class="k"><path class="j" d="M981.9,367.41H9.39c-.4,0-.72-.32-.72-.72V27c0-.4,.32-.72,.72-.72H999.28c.4,0,.72,.32,.72,.72V349.32c0,.19-.08,.37-.21,.51l-17.38,17.37c-.14,.14-.32,.21-.51,.21Zm-971.79-1.44H981.6l16.96-16.95V27.72H10.11V365.97Z"/></g><polygon class="h" points="981.73 349.14 981.73 366.7 999.28 349.14 981.73 349.14"/><g class="n"><path class="j" d="M981.73,367.36c-.09,0-.17-.02-.25-.05-.25-.1-.41-.35-.41-.61v-17.56c0-.37,.3-.66,.66-.66h17.56c.27,0,.51,.16,.61,.41,.1,.25,.05,.53-.14,.72l-17.56,17.56c-.13,.13-.3,.19-.47,.19Zm.66-17.56v15.28l15.29-15.28h-15.29Z"/></g><polygon class="g" points="983.5 349.49 983.5 365.29 998.05 349.49 983.5 349.49"/><path class="g" d="M983.21,366.02v-16.82h15.49l-15.49,16.82Zm.58-16.25v14.77l13.6-14.77h-13.6Z"/><g class="m"><path class="j" d="M981.73,367.36c-.09,0-.17-.02-.25-.05-.25-.1-.41-.35-.41-.61v-17.56c0-.37,.3-.66,.66-.66h17.56c.27,0,.51,.16,.61,.41,.1,.25,.05,.53-.14,.72l-17.56,17.56c-.13,.13-.3,.19-.47,.19Zm.66-17.56v15.28l15.29-15.28h-15.29Z"/><path class="g" d="M984.71,296.64c.59-.7,1.1-1.44,1.55-2.23,.45-.79,.8-1.57,1.05-2.36,.25-.79,.38-1.55,.38-2.26h-2.26c0,.55-.11,1.14-.32,1.76-.21,.62-.51,1.25-.88,1.88-.37,.63-.81,1.24-1.3,1.82-.5,.58-1.02,1.1-1.59,1.55l1.44,1.72c.7-.55,1.34-1.17,1.93-1.87m-4.65-6.86v-4.75c0-.47,.08-.78,.24-.94,.16-.15,.45-.23,.88-.23h4.25v4.85c0,.41-.07,.69-.22,.84s-.41,.23-.79,.23h-4.36Zm6.49,2.54l1.14-2.54v-7.7c-.79-.27-1.56-.47-2.31-.58-.75-.11-1.63-.17-2.65-.17-.96,0-1.77,.08-2.42,.25-.65,.17-1.17,.46-1.55,.87-.38,.41-.65,.97-.82,1.67-.17,.7-.25,1.59-.25,2.67s.06,1.94,.19,2.66c.13,.72,.34,1.29,.62,1.7,.28,.41,.66,.71,1.13,.89,.47,.18,1.06,.27,1.76,.27h5.16Zm-11.77,0v-1.97c-.44-1.64-.84-3.02-1.21-4.12-.37-1.1-.73-2-1.1-2.68-.37-.69-.77-1.21-1.21-1.55-.44-.35-.95-.59-1.54-.71-.59-.12-1.29-.18-2.11-.18-.38,0-.8,.03-1.26,.08-.46,.06-.9,.13-1.33,.24l.64,2.44c.29-.07,.61-.13,.96-.17,.35-.04,.68-.06,.98-.06,.59,0,1.1,.08,1.52,.24,.42,.16,.78,.46,1.1,.9,.31,.44,.62,1.06,.91,1.86,.3,.8,.61,1.85,.95,3.14h-7.56v2.54h10.26Zm-12.86-14.4h-2.24v14.4h2.24v-14.4Zm-11.77,5.99c.4-.03,.84-.05,1.33-.05,.58,0,1.17,.04,1.78,.13,.61,.08,1.25,.21,1.92,.38l.37-2.37c-.38-.14-.8-.25-1.27-.36-.46-.1-.94-.17-1.43-.23-.49-.05-.97-.08-1.46-.08-.93,0-1.69,.09-2.29,.26-.59,.18-1.06,.47-1.4,.87-.34,.4-.58,.96-.72,1.66s-.21,1.58-.21,2.63,.07,1.96,.22,2.67c.14,.72,.39,1.29,.73,1.72,.34,.43,.82,.73,1.43,.91,.61,.18,1.37,.27,2.29,.27h5.05v-2.54h-5.44c-.66,0-1.14-.11-1.46-.34s-.47-.63-.46-1.19v-4.18c.29-.08,.63-.13,1.03-.16m1.33,8.41l-1.9-2.54h-5.87v2.54h7.77Zm-9.72-14.04c.19-.08,.44-.23,.74-.42,.31-.2,.69-.48,1.16-.84l-.39-.71-1.4,.64c-.39-.4-.67-.65-.83-.76-.16-.12-.33-.17-.51-.17-.14,0-.3,.04-.48,.11-.18,.08-.43,.21-.73,.41-.3,.2-.71,.49-1.23,.87l.39,.73,1.39-.66c.38,.38,.65,.63,.81,.75,.16,.12,.35,.18,.56,.18,.15,0,.32-.04,.51-.13m2.87,14.04v-2.54h-2.61v-8.2h-2.24v10.74h4.84Zm-15.77,6c-.15-.07-.23-.23-.23-.49l.02-1.78c.33-.17,.7-.29,1.11-.38,.4-.08,.81-.13,1.22-.15v-1.42c-.79,.02-1.48,.12-2.08,.32-.59,.2-1.06,.52-1.38,.98-.33,.46-.49,1.1-.49,1.94,0,.37,.02,.67,.06,.91,.04,.24,.1,.46,.17,.64l-.96,.27v1.19l5.26-1.42v-1.19l-1.92,.52c-.37,.09-.63,.1-.78,.03m1.19-20.4h-2.24v14.4h2.24v-14.4Zm-6.49,0h-2.24v11.86h-3.61v2.54h5.85v-14.4Zm-4.94,14.4v-2.54h-6.22c-.58,0-1.2-.05-1.85-.14-.65-.09-1.34-.23-2.06-.41l-.37,2.38c.65,.21,1.42,.38,2.3,.51,.88,.13,1.7,.19,2.48,.19h5.71Zm-6.75,6.14c1.09-.14,1.94-.4,2.55-.76,.61-.37,1.03-.85,1.27-1.45,.24-.6,.35-1.36,.35-2.27v-1.65h-2.24v2.63c0,.32-.15,.57-.45,.74-.3,.17-.8,.3-1.51,.37-.71,.07-1.7,.1-2.96,.1h-6.47c-.09-.4-.16-.8-.19-1.21-.04-.41-.06-.89-.06-1.44,0-.64,.06-1.31,.18-2.01,.12-.7,.28-1.43,.48-2.17l-2.19-.37c-.15,.46-.28,.97-.39,1.54-.11,.57-.19,1.16-.24,1.77-.05,.61-.08,1.2-.08,1.78,0,.99,.11,1.79,.34,2.41,.23,.62,.63,1.08,1.2,1.4,.57,.32,1.36,.53,2.36,.64,1.01,.11,2.29,.16,3.84,.16,1.71,0,3.1-.07,4.19-.22m-21.1-20.53h-2.24v14.4h2.24v-14.4Zm-6.49,0h-2.24v11.86h-3.61v2.54h5.85v-14.4Zm-7.52,0h-2.24v11.86h-3.61v2.54h8.43v-2.54h-2.58v-11.86Zm-10.11,.69c.22-.17,.42-.36,.58-.58,.17-.22,.25-.41,.25-.58,0-.18-.08-.38-.25-.61-.17-.22-.36-.41-.57-.57-.21-.16-.41-.24-.59-.24s-.38,.08-.61,.24c-.22,.16-.41,.35-.57,.57-.16,.22-.24,.42-.24,.61,0,.17,.08,.37,.24,.59,.16,.23,.35,.42,.58,.58,.23,.16,.43,.24,.59,.24s.36-.08,.58-.25m-3.54,0c.22-.17,.41-.36,.58-.58,.17-.22,.25-.41,.25-.58,0-.18-.08-.38-.25-.61-.17-.22-.36-.41-.57-.57-.21-.16-.41-.24-.59-.24s-.38,.08-.6,.24c-.22,.16-.41,.35-.57,.57-.16,.22-.24,.42-.24,.61,0,.17,.08,.37,.24,.59,.16,.23,.35,.42,.58,.58,.23,.16,.43,.24,.59,.24s.36-.08,.58-.25m-1.5,11.17v-4.73c0-.46,.07-.77,.22-.93,.14-.16,.41-.24,.81-.24h4.34v4.82c0,.41-.07,.69-.22,.84-.15,.15-.41,.23-.79,.23h-4.37Zm-5.67,2.54h13.28v-10.24c-.89-.27-1.7-.47-2.45-.58-.75-.11-1.58-.17-2.49-.17-.99,0-1.81,.08-2.46,.25-.65,.17-1.16,.43-1.54,.8-.38,.37-.65,.86-.81,1.47-.16,.62-.24,1.39-.24,2.32,0,.87,.02,1.58,.07,2.13,.05,.55,.11,1.04,.2,1.48h-3.56v2.54Zm13.28,0h2.61v-2.54h-2.61v2.54Zm-12.36,0v-2.54h-2.61v-11.86h-2.24v14.4h4.84Zm-12.09-4.03c-.21-.14-.32-.48-.32-.99v-2.93c.47-.27,1.07-.49,1.79-.64,.72-.15,1.44-.23,2.14-.23v-2.54c-2.16,0-3.75,.42-4.77,1.26-1.01,.84-1.52,2.16-1.52,3.98,0,1.33,.22,2.31,.66,2.95l-2.26,.59v2.38l8.87-2.38v-2.38l-3.34,.89c-.62,.17-1.04,.18-1.26,.03m-15.49-5.54l2.22,3.86-2.22,3.86,1.05,.73,3.68-3.63v-1.94l-3.68-3.61-1.05,.73Zm-4.75,0l2.22,3.86-2.22,3.86,1.05,.73,3.66-3.63v-1.94l-3.66-3.61-1.05,.73Z"/><path class="g" d="M980.34,248.45c.22-.17,.41-.36,.58-.58,.17-.22,.25-.41,.25-.58,0-.18-.08-.38-.25-.61-.17-.22-.36-.41-.57-.57-.21-.16-.41-.24-.59-.24s-.38,.08-.61,.24c-.22,.16-.41,.35-.57,.57-.16,.22-.24,.42-.24,.61,0,.17,.08,.37,.24,.59,.16,.23,.36,.42,.58,.58,.23,.16,.43,.24,.59,.24s.36-.08,.58-.25m1.76,3.7c.22-.17,.42-.36,.58-.58,.17-.22,.25-.41,.25-.58,0-.18-.08-.38-.25-.61-.17-.22-.36-.41-.57-.57-.21-.16-.41-.24-.59-.24s-.38,.08-.61,.24c-.22,.16-.41,.35-.57,.57-.16,.22-.24,.42-.24,.61,0,.17,.08,.37,.24,.59,.16,.23,.35,.42,.58,.58,.23,.16,.43,.24,.59,.24s.36-.08,.58-.25m-3.54,0c.22-.17,.41-.36,.58-.58,.17-.22,.25-.41,.25-.58,0-.18-.08-.38-.25-.61-.17-.22-.36-.41-.57-.57-.21-.16-.41-.24-.59-.24s-.38,.08-.61,.24c-.22,.16-.41,.35-.57,.57-.16,.22-.24,.42-.24,.61,0,.17,.08,.37,.24,.59,.16,.23,.36,.42,.58,.58,.23,.16,.43,.24,.59,.24s.36-.08,.58-.25m-5.06,5.03h-2.24v6.15h-3.61v2.54h5.85v-8.68Zm4.76,8.48c.66-.14,1.17-.38,1.52-.72,.35-.34,.59-.82,.72-1.43,.13-.61,.19-1.39,.19-2.33v-4h-2.26v4.94c0,.49-.14,.81-.41,.97-.27,.16-.72,.24-1.35,.24h-3.18v2.54h2.17c1.07,0,1.93-.07,2.59-.21m7.79-.33c.66-.36,1.14-.97,1.42-1.83,.28-.86,.42-2.06,.42-3.6,0-.49-.03-1.02-.09-1.59-.06-.57-.14-1.14-.23-1.69s-.2-1.04-.32-1.45l-2.24,.34c.2,.79,.35,1.57,.46,2.33,.11,.76,.16,1.49,.16,2.17s-.02,1.29-.06,1.83c-.04,.53-.1,1.03-.19,1.48h-2.93c-.61,0-1.06-.08-1.34-.24-.28-.16-.42-.48-.42-.97v-4.94h-2.26v4c0,.95,.07,1.72,.2,2.33,.14,.61,.38,1.08,.72,1.43,.34,.34,.83,.58,1.47,.72,.64,.14,1.47,.21,2.49,.21,1.16,0,2.07-.18,2.73-.54m-20.08,.54v-6.51c0-.78-.09-1.38-.27-1.8-.18-.43-.49-.73-.91-.91-.43-.18-1.03-.27-1.8-.27h-7.04c.09-.47,.23-.96,.42-1.47,.19-.51,.43-1.02,.72-1.54,.29-.52,.61-1.02,.97-1.51,.36-.49,.73-.94,1.11-1.35l-1.85-1.01c-.47,.47-.91,1.01-1.33,1.62-.41,.61-.78,1.24-1.1,1.91-.32,.66-.57,1.31-.76,1.95-.18,.64-.27,1.22-.27,1.74,0,.72,.2,1.26,.59,1.63,.4,.38,.97,.56,1.72,.56h7.54v4.43h-12.25v2.54h14.51Zm0,0h2.58v-2.54h-2.58v2.54Zm-17.7,4.62c.54-.55,.93-1.21,1.18-1.99,.24-.78,.37-1.7,.37-2.76v-10.6h-2.24v10.6c0,.79-.07,1.45-.21,1.97-.14,.52-.37,.95-.71,1.29-.33,.34-.81,.66-1.42,.95l.91,1.99c.87-.41,1.57-.89,2.11-1.44m1.52-4.62h2.58v-2.54h-2.58v2.54Zm-7.26-14.4h-2.24v14.4h2.24v-14.4Zm1.16-6.7v-1.35l-4.55,1.23v1.33l4.55-1.21Zm0,2.4v-1.35l-4.55,1.23v1.33l4.55-1.21Zm-17.08,23.1c.22-.17,.41-.36,.58-.58,.17-.22,.25-.42,.25-.58,0-.18-.08-.38-.25-.61-.17-.22-.36-.41-.57-.57-.21-.16-.41-.24-.59-.24s-.38,.08-.61,.24c-.22,.16-.41,.35-.57,.57-.16,.22-.24,.42-.24,.61,0,.17,.08,.37,.24,.59,.16,.23,.36,.42,.58,.58,.23,.16,.43,.24,.59,.24s.36-.08,.58-.25m1.36-9.39c-.29,.44-.64,.85-1.05,1.22-.41,.37-.89,.67-1.45,.89-.56,.22-1.19,.33-1.91,.33h-4.18v2.54h3.73c.97,0,1.86-.13,2.67-.38,.81-.25,1.53-.62,2.16-1.1,.63-.48,1.18-1.06,1.66-1.74,.47-.68,.86-1.45,1.16-2.32l-2.08-.8c-.18,.46-.42,.91-.71,1.35m1.15-4.09c-.59-.65-1.31-1.14-2.18-1.45-.87-.31-1.94-.47-3.22-.47-.4,0-.82,.01-1.26,.05-.44,.03-.91,.07-1.4,.12l.37,2.47c.4-.03,.77-.06,1.12-.07,.35-.01,.69-.02,1.03-.02,.97,0,1.79,.1,2.46,.3,.66,.2,1.21,.53,1.64,1.01,.43,.47,.78,1.11,1.07,1.92,.17,.44,.38,.76,.65,.97,.27,.2,.64,.31,1.11,.31h2.19v-2.54h-2.08c-.41-1.07-.91-1.93-1.5-2.58m-11.95-4.64c.22-.17,.41-.36,.58-.58,.17-.22,.25-.41,.25-.58,0-.18-.08-.38-.25-.61-.17-.22-.36-.41-.57-.57-.21-.16-.41-.24-.59-.24s-.38,.08-.6,.24c-.22,.16-.41,.35-.57,.57-.16,.22-.24,.42-.24,.61,0,.17,.08,.37,.24,.59,.16,.23,.35,.42,.58,.58,.23,.16,.43,.24,.59,.24s.36-.08,.58-.25m-.98,18.33c.54-.55,.93-1.21,1.18-1.99,.25-.78,.37-1.7,.37-2.76v-10.6h-2.24v10.6c0,.79-.07,1.45-.2,1.97-.14,.52-.37,.95-.71,1.29-.33,.34-.81,.66-1.42,.95l.91,1.99c.87-.41,1.57-.89,2.11-1.44m1.52-4.62h2.58v-2.54h-2.58v2.54Zm-7.44,4.02c.22-.17,.41-.36,.58-.58,.17-.22,.25-.41,.25-.58,0-.18-.08-.38-.25-.61-.17-.22-.36-.41-.57-.57-.21-.16-.41-.24-.59-.24s-.38,.08-.6,.24c-.22,.16-.41,.35-.57,.57-.16,.22-.24,.42-.24,.61,0,.17,.08,.37,.24,.59,.16,.23,.35,.42,.58,.58,.23,.16,.43,.24,.59,.24s.36-.08,.58-.25m-3.54,0c.22-.17,.42-.36,.58-.58,.17-.22,.25-.41,.25-.58,0-.18-.08-.38-.25-.61-.17-.22-.36-.41-.57-.57-.21-.16-.41-.24-.59-.24s-.38,.08-.61,.24c-.22,.16-.41,.35-.57,.57-.16,.22-.24,.42-.24,.61,0,.17,.08,.37,.24,.59,.16,.23,.35,.42,.58,.58,.23,.16,.43,.24,.59,.24s.36-.08,.58-.25m3.74-4.02v-10.74h-2.24v8.2h-3.61v2.54h5.85Zm-19.97,0h15.04v-2.54h-15.04v2.54Zm12.46-14.4h-2.24v12.8h2.24v-12.8Zm-6.56,12.8l-.96-10.86h-2.24l.94,10.86h2.26Zm.21-17.1v-1.35l-4.55,1.23v1.33l4.55-1.21Zm0,2.4v-1.35l-4.55,1.23v1.33l4.55-1.21Z"/><path class="g" d="M987.78,186.48v-7.86c0-.79-.12-1.41-.35-1.86-.24-.45-.63-.77-1.19-.96-.56-.19-1.32-.28-2.3-.28-1.2,0-2.3,.16-3.3,.49-1,.33-1.85,.8-2.55,1.42-.7,.62-1.22,1.36-1.55,2.23v-7.56h-2.24v12.8h2.24c0-2.32,.53-4.03,1.59-5.15,1.06-1.12,2.66-1.68,4.81-1.68,1.2,0,2.07,.08,2.61,.25v8.18h2.24Zm-17.09,0h14.85v-2.54h-14.85v2.54Zm-6.05-13.71c.22-.17,.42-.36,.58-.58,.17-.22,.25-.41,.25-.58,0-.18-.08-.38-.25-.61-.17-.22-.36-.41-.57-.57-.21-.16-.41-.24-.59-.24s-.38,.08-.61,.24c-.22,.16-.41,.35-.57,.57-.16,.22-.24,.42-.24,.61,0,.17,.08,.37,.24,.59,.16,.23,.35,.42,.58,.58,.23,.16,.43,.24,.59,.24s.36-.08,.58-.25m-3.25,11.17v-4.73c0-.46,.07-.77,.22-.93,.14-.16,.41-.24,.81-.24h4.34v4.82c0,.41-.07,.69-.22,.84-.14,.15-.41,.23-.79,.23h-4.36Zm-5.67,2.54h13.28v-10.24c-.88-.27-1.7-.47-2.44-.58-.75-.11-1.58-.17-2.49-.17-.99,0-1.81,.08-2.46,.25-.65,.17-1.16,.43-1.54,.8-.38,.37-.65,.86-.81,1.47-.16,.62-.24,1.39-.24,2.32,0,.87,.02,1.58,.07,2.13,.05,.55,.12,1.04,.21,1.48h-3.56v2.54Zm13.28,0h2.61v-2.54h-2.61v2.54Zm-14.95-14.4h-2.24v11.86h-3.61v2.54h8.43v-2.54h-2.58v-11.86Zm-12.94,24.52c.22-.17,.41-.36,.58-.58,.17-.22,.25-.42,.25-.58,0-.18-.08-.38-.25-.61-.17-.22-.36-.41-.57-.57-.21-.16-.41-.24-.59-.24s-.38,.08-.6,.24c-.22,.16-.41,.35-.57,.57-.16,.22-.24,.42-.24,.61,0,.17,.08,.37,.24,.59,.16,.23,.35,.42,.58,.58,.23,.16,.43,.24,.59,.24s.36-.08,.58-.25m-3.54,0c.22-.17,.42-.36,.58-.58,.17-.22,.25-.42,.25-.58,0-.18-.08-.38-.25-.61-.17-.22-.36-.41-.57-.57-.21-.16-.41-.24-.59-.24s-.38,.08-.61,.24c-.22,.16-.41,.35-.57,.57-.16,.22-.24,.42-.24,.61,0,.17,.08,.37,.24,.59,.16,.23,.35,.42,.58,.58,.23,.16,.43,.24,.59,.24s.36-.08,.58-.25m11.55-10.12v-2.54h-6.22c-.58,0-1.2-.05-1.85-.14-.66-.09-1.34-.23-2.06-.41l-.37,2.38c.65,.21,1.42,.38,2.3,.51,.88,.13,1.7,.19,2.48,.19h5.71Zm-6.75,6.13c1.09-.14,1.94-.4,2.55-.76s1.03-.85,1.27-1.45c.24-.6,.35-1.36,.35-2.27v-1.65h-2.24v2.63c0,.32-.15,.57-.45,.74-.3,.18-.8,.3-1.51,.37-.71,.07-1.69,.1-2.96,.1h-6.47c-.09-.4-.16-.8-.19-1.21-.04-.41-.06-.89-.06-1.44,0-.64,.06-1.31,.18-2.01,.12-.7,.28-1.42,.48-2.17l-2.19-.37c-.15,.46-.28,.97-.39,1.54-.11,.57-.19,1.16-.24,1.77-.06,.61-.08,1.2-.08,1.78,0,.99,.12,1.79,.34,2.41,.23,.62,.63,1.08,1.2,1.4,.57,.32,1.36,.53,2.36,.64s2.29,.16,3.84,.16c1.71,0,3.1-.07,4.19-.22m-35.27-14.82h-2.24v6.15h-3.61v2.54h5.85v-8.68Zm4.77,8.48c.66-.14,1.17-.38,1.52-.72,.35-.34,.59-.82,.72-1.43,.13-.61,.19-1.39,.19-2.33v-4h-2.26v4.94c0,.49-.14,.81-.41,.97-.27,.16-.72,.24-1.35,.24h-3.18v2.54h2.17c1.07,0,1.93-.07,2.6-.21m7.79-.33c.66-.36,1.14-.97,1.42-1.83,.28-.86,.42-2.06,.42-3.6,0-.49-.03-1.02-.09-1.59-.06-.57-.14-1.14-.23-1.69-.09-.56-.2-1.04-.32-1.45l-2.24,.34c.2,.79,.35,1.57,.46,2.33,.11,.76,.16,1.49,.16,2.17s-.02,1.29-.06,1.83c-.04,.53-.1,1.03-.19,1.48h-2.93c-.61,0-1.06-.08-1.34-.24-.28-.16-.42-.48-.42-.97v-4.94h-2.26v4c0,.95,.07,1.72,.2,2.33,.14,.61,.38,1.08,.72,1.43s.83,.58,1.47,.72,1.47,.21,2.49,.21c1.16,0,2.07-.18,2.73-.54m-23.29,4.86c.58-.7,1.1-1.44,1.55-2.23,.45-.78,.8-1.57,1.05-2.36,.25-.79,.38-1.55,.38-2.26h-2.26c0,.55-.11,1.14-.32,1.76-.21,.62-.51,1.25-.88,1.88-.37,.63-.81,1.24-1.3,1.82-.5,.58-1.02,1.1-1.59,1.55l1.44,1.71c.7-.55,1.34-1.17,1.93-1.87m-4.65-6.86v-4.75c0-.47,.08-.78,.24-.94,.16-.15,.45-.23,.88-.23h4.25v4.84c0,.41-.07,.69-.22,.84-.15,.15-.41,.23-.79,.23h-4.37Zm6.49,2.54l1.14-2.54v-7.7c-.79-.27-1.56-.47-2.31-.58-.75-.11-1.63-.17-2.65-.17-.96,0-1.77,.08-2.42,.25-.66,.17-1.17,.46-1.55,.87-.38,.41-.66,.97-.82,1.67-.17,.7-.25,1.59-.25,2.67s.06,1.94,.19,2.66c.13,.72,.33,1.29,.62,1.7,.28,.41,.66,.71,1.13,.89,.47,.18,1.06,.27,1.76,.27h5.16Zm.23,0h3.72v-2.54h-3.72v2.54Zm-16.72-13.71c.22-.17,.42-.36,.58-.58,.17-.22,.25-.41,.25-.58,0-.18-.08-.38-.25-.61-.17-.22-.36-.41-.57-.57-.21-.16-.41-.24-.59-.24s-.38,.08-.61,.24c-.22,.16-.41,.35-.57,.57-.16,.22-.24,.42-.24,.61,0,.17,.08,.37,.24,.59,.16,.23,.35,.42,.58,.58,.23,.16,.43,.24,.59,.24s.36-.08,.58-.25m-3.87,11.17v-4.71c0-.46,.07-.76,.22-.93,.14-.16,.41-.24,.79-.24h4.36v4.8c0,.41-.07,.69-.23,.84-.15,.15-.42,.23-.8,.23h-4.34Zm7.61,2.54v-10.24c-.9-.27-1.72-.47-2.47-.58-.75-.11-1.57-.17-2.47-.17-.99,0-1.81,.08-2.47,.25-.65,.17-1.17,.43-1.55,.8-.38,.37-.65,.86-.81,1.47-.16,.62-.24,1.39-.24,2.32,0,.87,.02,1.58,.07,2.13,.05,.55,.12,1.04,.23,1.48h-6.76c-.12-.39-.21-.82-.26-1.26-.06-.44-.08-.95-.08-1.53,0-.5,.05-1.03,.14-1.59,.09-.56,.23-1.13,.41-1.72l-2.15-.34c-.2,.57-.36,1.22-.48,1.98-.12,.75-.18,1.49-.18,2.21,0,1.16,.11,2.09,.34,2.79,.23,.7,.59,1.21,1.1,1.53,.5,.32,1.16,.48,1.97,.48h15.68Zm-28.35,4.02c.22-.17,.41-.36,.58-.58,.17-.22,.25-.41,.25-.58,0-.18-.08-.38-.25-.61-.17-.22-.36-.41-.57-.57-.21-.16-.41-.24-.59-.24s-.38,.08-.6,.24c-.22,.16-.41,.35-.57,.57-.16,.22-.24,.42-.24,.61,0,.17,.08,.37,.24,.59,.16,.23,.35,.42,.58,.58,.23,.16,.43,.24,.59,.24s.36-.08,.58-.25m-3.54,0c.22-.17,.42-.36,.58-.58,.17-.22,.25-.41,.25-.58,0-.18-.08-.38-.25-.61-.17-.22-.36-.41-.57-.57-.21-.16-.41-.24-.59-.24s-.38,.08-.61,.24c-.22,.16-.41,.35-.57,.57-.16,.22-.24,.42-.24,.61,0,.17,.08,.37,.24,.59,.16,.23,.35,.42,.58,.58,.23,.16,.43,.24,.59,.24s.36-.08,.58-.25m3.74-4.02v-10.74h-2.24v8.2h-3.61v2.54h5.85Zm-20.68,0h3.45v-2.54h-3.45v2.54Zm11.5-8.46c0,1.28-.3,2.36-.9,3.25-.6,.88-1.5,1.55-2.68,2-1.19,.45-2.67,.67-4.45,.67v2.54c1.45,0,2.79-.22,4.03-.66,1.24-.44,2.33-1.05,3.27-1.84,.94-.78,1.67-1.69,2.19-2.73,.52-1.03,.79-2.16,.79-3.38,0-.59-.18-1.07-.54-1.42-.36-.35-.96-.6-1.82-.74-.85-.14-2.03-.22-3.52-.22s-2.62,.07-3.47,.22c-.85,.15-1.46,.39-1.83,.74-.37,.35-.55,.82-.55,1.42,0,1.22,.26,2.35,.79,3.38,.52,1.04,1.26,1.95,2.19,2.73,.94,.79,2.03,1.4,3.27,1.84,1.24,.44,2.58,.66,4.01,.66v-2.54c-1.77,0-3.25-.22-4.43-.67-1.19-.45-2.09-1.12-2.69-2-.6-.89-.9-1.97-.9-3.25h7.25Zm.78,8.46h3.47v-2.54h-3.47v2.54Zm-17.15,4.32c.59-.7,1.1-1.44,1.55-2.23,.45-.78,.8-1.57,1.05-2.36,.25-.79,.38-1.55,.38-2.26h-2.26c0,.55-.11,1.14-.32,1.76-.21,.62-.51,1.25-.88,1.88-.37,.63-.81,1.24-1.3,1.82-.5,.58-1.02,1.1-1.59,1.55l1.44,1.71c.7-.55,1.34-1.17,1.93-1.87m-4.65-6.86v-4.75c0-.47,.08-.78,.24-.94,.16-.15,.45-.23,.88-.23h4.25v4.84c0,.41-.07,.69-.22,.84-.14,.15-.41,.23-.79,.23h-4.36Zm6.49,2.54l1.14-2.54v-7.7c-.79-.27-1.56-.47-2.31-.58-.75-.11-1.63-.17-2.65-.17-.96,0-1.77,.08-2.42,.25-.65,.17-1.17,.46-1.55,.87-.38,.41-.65,.97-.82,1.67-.17,.7-.25,1.59-.25,2.67s.06,1.94,.19,2.66c.13,.72,.34,1.29,.62,1.7,.28,.41,.66,.71,1.13,.89,.47,.18,1.06,.27,1.76,.27h5.16Zm.23,0h3.72v-2.54h-3.72v2.54Zm-12,0v-1.97c-.44-1.65-.84-3.02-1.21-4.13-.37-1.1-.73-2-1.1-2.68-.37-.69-.77-1.21-1.21-1.55-.44-.35-.95-.59-1.54-.71-.59-.12-1.29-.18-2.11-.18-.38,0-.8,.03-1.26,.08-.46,.06-.9,.13-1.33,.24l.64,2.45c.29-.08,.61-.13,.96-.17,.35-.04,.68-.06,.98-.06,.59,0,1.1,.08,1.52,.24,.42,.16,.78,.46,1.1,.9,.31,.44,.62,1.06,.91,1.86,.3,.8,.61,1.85,.95,3.14h-7.56v2.54h10.26Zm-22.68-13.71c.22-.17,.42-.36,.58-.58,.17-.22,.25-.41,.25-.58,0-.18-.08-.38-.25-.61-.17-.22-.36-.41-.57-.57-.21-.16-.41-.24-.59-.24s-.38,.08-.61,.24c-.22,.16-.41,.35-.57,.57-.16,.22-.24,.42-.24,.61,0,.17,.08,.37,.24,.59,.16,.23,.35,.42,.58,.58,.23,.16,.43,.24,.59,.24s.36-.08,.58-.25m-3.25,11.17v-4.73c0-.46,.07-.77,.22-.93,.14-.16,.41-.24,.81-.24h4.34v4.82c0,.41-.07,.69-.22,.84-.14,.15-.41,.23-.79,.23h-4.36Zm-5.67,2.54h13.28v-10.24c-.88-.27-1.7-.47-2.44-.58-.75-.11-1.58-.17-2.49-.17-.99,0-1.81,.08-2.46,.25-.65,.17-1.16,.43-1.54,.8-.38,.37-.65,.86-.81,1.47-.16,.62-.24,1.39-.24,2.32,0,.87,.02,1.58,.07,2.13,.05,.55,.12,1.04,.21,1.48h-3.56v2.54Zm-7.1,10.12c.22-.17,.41-.36,.58-.58s.25-.42,.25-.58c0-.18-.08-.38-.25-.61-.17-.22-.36-.41-.57-.57-.21-.16-.41-.24-.59-.24s-.38,.08-.61,.24c-.22,.16-.41,.35-.57,.57-.16,.22-.24,.42-.24,.61,0,.17,.08,.37,.24,.59,.16,.23,.36,.42,.58,.58,.23,.16,.43,.24,.59,.24s.36-.08,.58-.25m-3.54,0c.22-.17,.42-.36,.58-.58,.17-.22,.25-.42,.25-.58,0-.18-.08-.38-.25-.61-.17-.22-.36-.41-.57-.57-.21-.16-.41-.24-.59-.24s-.38,.08-.61,.24c-.22,.16-.41,.35-.57,.57-.16,.22-.24,.42-.24,.61,0,.17,.08,.37,.24,.59,.16,.23,.35,.42,.58,.58,.23,.16,.43,.24,.59,.24s.36-.08,.58-.25m11.55-10.12v-2.54h-6.22c-.58,0-1.2-.05-1.85-.14-.65-.09-1.34-.23-2.06-.41l-.37,2.38c.65,.21,1.42,.38,2.3,.51,.88,.13,1.7,.19,2.48,.19h5.71Zm-6.75,6.13c1.09-.14,1.94-.4,2.55-.76,.61-.37,1.03-.85,1.27-1.45s.35-1.36,.35-2.27v-1.65h-2.24v2.63c0,.32-.15,.57-.45,.74-.3,.18-.8,.3-1.51,.37-.71,.07-1.7,.1-2.96,.1h-6.47c-.09-.4-.16-.8-.19-1.21-.04-.41-.06-.89-.06-1.44,0-.64,.06-1.31,.18-2.01,.12-.7,.28-1.42,.48-2.17l-2.19-.37c-.15,.46-.28,.97-.39,1.54-.11,.57-.19,1.16-.24,1.77-.05,.61-.08,1.2-.08,1.78,0,.99,.11,1.79,.34,2.41,.23,.62,.63,1.08,1.2,1.4,.57,.32,1.36,.53,2.36,.64s2.29,.16,3.84,.16c1.71,0,3.11-.07,4.19-.22m-19.84-19.85c.22-.17,.42-.36,.58-.58,.17-.22,.25-.41,.25-.58,0-.18-.08-.38-.25-.61-.17-.22-.36-.41-.57-.57-.21-.16-.41-.24-.59-.24s-.38,.08-.61,.24c-.22,.16-.41,.35-.57,.57-.16,.22-.24,.42-.24,.61,0,.17,.08,.37,.24,.59,.16,.23,.35,.42,.58,.58,.23,.16,.43,.24,.59,.24s.36-.08,.58-.25m-3.54,0c.22-.17,.41-.36,.58-.58,.17-.22,.25-.41,.25-.58,0-.18-.08-.38-.25-.61-.17-.22-.36-.41-.57-.57-.21-.16-.41-.24-.59-.24s-.38,.08-.61,.24c-.22,.16-.41,.35-.57,.57-.16,.22-.24,.42-.24,.61,0,.17,.08,.37,.24,.59,.16,.23,.36,.42,.58,.58,.23,.16,.43,.24,.59,.24s.36-.08,.58-.25m2.3,13.71v-10.74h-2.24v8.2h-3.61v2.54h5.85Zm-4.94,0v-2.54h-2.61v-11.86h-2.24v14.4h4.84Zm-10.64,4.62c.54-.55,.93-1.21,1.18-1.99,.24-.78,.37-1.7,.37-2.76v-10.6h-2.24v10.6c0,.79-.07,1.45-.21,1.97-.14,.52-.37,.95-.71,1.29-.33,.34-.81,.66-1.42,.95l.91,1.99c.87-.41,1.57-.89,2.11-1.44m-5.92-.59c.22-.17,.42-.36,.58-.58,.17-.22,.25-.41,.25-.58,0-.18-.08-.38-.25-.61-.17-.22-.36-.41-.57-.57-.21-.16-.41-.24-.59-.24s-.38,.08-.61,.24c-.22,.16-.41,.35-.57,.57-.16,.22-.24,.42-.24,.61,0,.17,.08,.37,.24,.59,.16,.23,.35,.42,.58,.58,.23,.16,.43,.24,.59,.24s.36-.08,.58-.25m-3.54,0c.22-.17,.41-.36,.58-.58,.17-.22,.25-.41,.25-.58,0-.18-.08-.38-.25-.61-.17-.22-.36-.41-.57-.57-.21-.16-.41-.24-.59-.24s-.38,.08-.6,.24c-.22,.16-.41,.35-.57,.57-.16,.22-.24,.42-.24,.61,0,.17,.08,.37,.24,.59,.16,.23,.35,.42,.58,.58,.23,.16,.43,.24,.59,.24s.36-.08,.58-.25m3.74-4.02v-10.74h-2.24v8.2h-3.61v2.54h5.85Zm-11.64-14.24c.22-.17,.41-.36,.58-.58,.17-.22,.25-.42,.25-.58,0-.18-.08-.38-.25-.61-.17-.22-.36-.41-.57-.57-.21-.16-.41-.24-.59-.24s-.38,.08-.61,.24c-.22,.16-.41,.35-.57,.57-.16,.22-.24,.42-.24,.61,0,.17,.08,.37,.24,.59,.16,.23,.35,.42,.58,.58,.23,.16,.43,.24,.6,.24s.36-.08,.58-.25m3.85,8.07c-.41-1.14-.92-2.07-1.52-2.78-.6-.71-1.35-1.22-2.24-1.55-.89-.33-1.98-.49-3.28-.49-.38,0-.79,.01-1.23,.03-.44,.02-.91,.06-1.41,.13l.37,2.47c.38-.03,.75-.05,1.11-.07,.36-.01,.7-.02,1.04-.02,.97,0,1.78,.1,2.42,.31,.64,.2,1.17,.54,1.6,1.01,.43,.46,.81,1.1,1.14,1.91l1.51,3.95c.17,.44,.38,.76,.65,.97,.27,.21,.64,.31,1.11,.31h1.6v-2.54h-1.48l-1.37-3.63Zm-2.41,12.43c.88-.12,1.63-.28,2.28-.48l-.3-2.4c-.82,.2-1.53,.33-2.14,.41-.6,.07-1.21,.11-1.84,.11s-1.18-.01-1.68-.05-.94-.08-1.34-.14v-3.79c0-.85,.27-1.53,.81-2.04s1.36-.89,2.46-1.15c1.1-.26,2.45-.41,4.07-.46l-.62-1.99c-2.06,.07-3.76,.34-5.11,.79-1.35,.45-2.35,1.16-3.02,2.14-.66,.97-.99,2.28-.99,3.91,0,1.01,.06,1.85,.19,2.54,.13,.69,.37,1.23,.71,1.63,.34,.4,.82,.7,1.44,.88,.62,.18,1.41,.27,2.37,.27s1.83-.06,2.71-.18m-334.09-.26c-.15-.07-.23-.23-.23-.49l.02-1.78c.33-.17,.7-.29,1.11-.38,.4-.08,.81-.13,1.22-.15v-1.42c-.79,.01-1.49,.12-2.08,.32-.59,.2-1.06,.52-1.38,.98-.33,.46-.49,1.1-.49,1.94,0,.37,.02,.67,.06,.91,.04,.24,.09,.46,.17,.64l-.96,.27v1.19l5.26-1.42v-1.19l-1.92,.52c-.37,.09-.63,.1-.78,.03m1.19-20.39h-2.24v14.4h2.24v-14.4Zm-6.49,0h-2.24v11.86h-3.61v2.54h5.85v-14.4Zm-4.94,14.4v-2.54h-6.22c-.58,0-1.2-.05-1.85-.14-.66-.09-1.34-.23-2.06-.41l-.37,2.38c.65,.21,1.42,.38,2.29,.51,.88,.13,1.7,.19,2.48,.19h5.71Zm-6.75,6.13c1.09-.14,1.94-.4,2.55-.76,.61-.37,1.03-.85,1.27-1.45,.24-.6,.36-1.36,.36-2.27v-1.65h-2.24v2.63c0,.32-.15,.57-.45,.74-.3,.18-.8,.3-1.51,.37-.71,.07-1.69,.1-2.96,.1h-6.47c-.09-.4-.16-.8-.19-1.21-.04-.41-.06-.89-.06-1.44,0-.64,.06-1.31,.18-2.01,.12-.7,.28-1.42,.48-2.17l-2.19-.37c-.15,.46-.28,.97-.39,1.54-.11,.57-.19,1.16-.24,1.77-.05,.61-.08,1.2-.08,1.78,0,.99,.12,1.79,.34,2.41,.23,.62,.63,1.08,1.2,1.4,.57,.32,1.36,.53,2.37,.64s2.29,.16,3.84,.16c1.71,0,3.1-.07,4.19-.22m-21.1-20.53h-2.24v14.4h2.24v-14.4Zm-6.49,0h-2.24v11.86h-3.61v2.54h5.85v-14.4Zm-14.92,13.12c-.24-.35-.43-.73-.56-1.14-.13-.41-.22-.86-.27-1.35-.06-.49-.08-1.01-.08-1.58,0-.67,.08-1.33,.24-1.99,.16-.65,.37-1.36,.63-2.12l-2.19-.59c-.27,.76-.5,1.53-.66,2.29-.17,.77-.25,1.57-.25,2.41,0,.91,.07,1.77,.22,2.56,.14,.79,.43,1.44,.86,1.94l2.08-.43Zm1.22-9.61c-.63,.07-1.25,.17-1.84,.31s-1.14,.31-1.62,.53l.89,2.15c.69-.18,1.39-.32,2.12-.41,.73-.09,1.42-.14,2.06-.14,.49,0,.91,.01,1.28,.05,.37,.03,.72,.08,1.05,.16v5.71h-11.29v2.54h13.53v-7.79c0-.78-.14-1.4-.42-1.86-.28-.46-.74-.8-1.38-1.02-.64-.21-1.49-.32-2.54-.32-.59,0-1.21,.03-1.84,.1m6.18,10.89h2.58v-2.54h-2.58v2.54Zm-13.87,0v-1.97c-.44-1.65-.85-3.02-1.21-4.13-.37-1.1-.73-2-1.1-2.68-.37-.69-.77-1.21-1.21-1.55-.44-.35-.96-.59-1.54-.71-.59-.12-1.29-.18-2.11-.18-.38,0-.8,.03-1.26,.08-.46,.06-.9,.13-1.33,.24l.64,2.45c.29-.08,.61-.13,.96-.17,.35-.04,.68-.06,.98-.06,.59,0,1.1,.08,1.52,.24,.42,.16,.78,.46,1.1,.9,.31,.44,.62,1.06,.91,1.86,.3,.8,.61,1.85,.95,3.14h-7.57v2.54h10.26Zm-.55,0h1.8v-2.54h-1.8v2.54Zm-13.84,4.62c.54-.55,.93-1.21,1.18-1.99s.37-1.7,.37-2.76v-10.6h-2.24v10.6c0,.79-.07,1.45-.21,1.97-.14,.52-.37,.95-.71,1.29-.33,.34-.81,.66-1.42,.95l.91,1.99c.87-.41,1.57-.89,2.11-1.44m-19.92-13.3h-2.24v6.15h-3.61v2.54h5.85v-8.68Zm4.77,8.48c.66-.14,1.17-.38,1.52-.72,.35-.34,.59-.82,.72-1.43,.13-.61,.19-1.39,.19-2.33v-4h-2.26v4.94c0,.49-.14,.81-.41,.97-.27,.16-.72,.24-1.35,.24h-3.18v2.54h2.17c1.07,0,1.93-.07,2.59-.21m7.79-.33c.66-.36,1.13-.97,1.42-1.83,.28-.86,.42-2.06,.42-3.6,0-.49-.03-1.02-.09-1.59-.06-.57-.14-1.14-.23-1.69-.09-.56-.2-1.04-.32-1.45l-2.24,.34c.2,.79,.35,1.57,.46,2.33,.11,.76,.16,1.49,.16,2.17s-.02,1.29-.06,1.83c-.04,.53-.1,1.03-.19,1.48h-2.93c-.61,0-1.05-.08-1.34-.24-.28-.16-.42-.48-.42-.97v-4.94h-2.26v4c0,.95,.07,1.72,.21,2.33,.14,.61,.38,1.08,.72,1.43,.34,.34,.83,.58,1.47,.72s1.47,.21,2.49,.21c1.16,0,2.07-.18,2.73-.54m-22.62-13.17c.22-.17,.41-.36,.58-.58,.17-.22,.25-.41,.25-.58,0-.18-.08-.38-.25-.61-.17-.22-.36-.41-.57-.57-.21-.16-.41-.24-.59-.24s-.38,.08-.6,.24c-.22,.16-.41,.35-.57,.57-.16,.22-.24,.42-.24,.61,0,.17,.08,.37,.24,.59,.16,.23,.35,.42,.58,.58,.23,.16,.43,.24,.59,.24s.36-.08,.58-.25m-3.54,0c.22-.17,.42-.36,.58-.58,.17-.22,.25-.41,.25-.58,0-.18-.08-.38-.25-.61-.17-.22-.36-.41-.57-.57-.21-.16-.41-.24-.59-.24s-.38,.08-.61,.24c-.22,.16-.41,.35-.57,.57-.16,.22-.24,.42-.24,.61,0,.17,.08,.37,.24,.59,.16,.23,.35,.42,.58,.58,.23,.16,.43,.24,.59,.24s.36-.08,.58-.25m4.06,11.17h-4.52c-.49,0-.84-.09-1.06-.26-.22-.18-.33-.47-.33-.88v-3.38c0-.41,.11-.7,.33-.88,.22-.17,.57-.26,1.06-.26h4.52v5.67Zm-3.47-8.2c-1.01,0-1.83,.07-2.47,.22-.64,.14-1.13,.41-1.47,.79-.34,.38-.58,.92-.71,1.62-.13,.7-.19,1.62-.19,2.74s.06,2.04,.19,2.74c.13,.7,.37,1.24,.71,1.62,.34,.38,.83,.64,1.47,.79,.64,.15,1.46,.22,2.47,.22h5.71v-10.74h-5.71Zm5.67,10.74h2.42v-2.54h-2.42v2.54Z"/><path class="g" d="M987.67,92.7h-2.24v14.4h2.24v-14.4Zm-7.03,18.81c.22-.17,.42-.36,.58-.58,.17-.22,.25-.42,.25-.58,0-.18-.08-.38-.25-.61-.17-.22-.36-.41-.57-.57-.21-.16-.41-.24-.59-.24s-.38,.08-.61,.24c-.22,.16-.41,.35-.57,.57-.16,.22-.24,.42-.24,.61,0,.17,.08,.37,.24,.59,.16,.23,.35,.42,.58,.58,.23,.16,.43,.24,.59,.24s.36-.08,.58-.25m.54-4.41v-10.74h-2.24v8.21h-3.61v2.54h5.85Zm-8.06-13.71c.22-.17,.41-.36,.58-.58,.17-.22,.25-.41,.25-.58,0-.18-.08-.38-.25-.61-.17-.22-.36-.41-.57-.57-.21-.16-.41-.24-.59-.24s-.38,.08-.61,.24c-.22,.16-.41,.35-.57,.57-.16,.22-.24,.42-.24,.61,0,.17,.08,.37,.24,.59,.16,.23,.36,.42,.58,.58,.23,.16,.43,.24,.59,.24s.36-.08,.58-.25m.54,2.97h-2.24v8.21h-3.61v2.54h8.43v-2.54h-2.58v-8.21Zm-6.27-2.97c.22-.17,.42-.36,.58-.58,.17-.22,.25-.41,.25-.58,0-.18-.08-.38-.25-.61-.17-.22-.36-.41-.57-.57-.21-.16-.41-.24-.59-.24s-.38,.08-.61,.24c-.22,.16-.41,.35-.57,.57-.16,.22-.24,.42-.24,.61,0,.17,.08,.37,.24,.59,.16,.23,.35,.42,.58,.58,.23,.16,.43,.24,.59,.24s.36-.08,.58-.25m-3.54,0c.22-.17,.41-.36,.58-.58s.25-.41,.25-.58c0-.18-.08-.38-.25-.61-.17-.22-.36-.41-.57-.57-.21-.16-.41-.24-.59-.24s-.38,.08-.61,.24c-.22,.16-.41,.35-.57,.57-.16,.22-.24,.42-.24,.61,0,.17,.08,.37,.24,.59,.16,.23,.36,.42,.58,.58,.23,.16,.43,.24,.59,.24s.36-.08,.58-.25m2.3,2.97h-2.24v8.21h-3.61v2.54h8.43v-2.54h-2.58v-8.21Zm-12.95,20.87c.22-.17,.41-.36,.58-.58,.17-.22,.25-.42,.25-.58,0-.18-.08-.38-.25-.61-.17-.22-.36-.41-.57-.57-.21-.16-.41-.24-.59-.24s-.38,.08-.61,.24c-.22,.16-.41,.35-.57,.57-.16,.22-.24,.42-.24,.61,0,.17,.08,.37,.24,.59,.16,.23,.36,.42,.58,.58,.23,.16,.43,.24,.59,.24s.36-.08,.58-.25m-3.54,0c.22-.17,.42-.36,.58-.58,.17-.22,.25-.42,.25-.58,0-.18-.08-.38-.25-.61-.17-.22-.36-.41-.57-.57-.21-.16-.41-.24-.59-.24s-.38,.08-.61,.24c-.22,.16-.41,.35-.57,.57-.16,.22-.24,.42-.24,.61,0,.17,.08,.37,.24,.59,.16,.23,.35,.42,.58,.58,.23,.16,.43,.24,.59,.24s.36-.08,.58-.25m11.55-10.12v-2.54h-6.22c-.58,0-1.2-.05-1.85-.14s-1.34-.23-2.06-.41l-.37,2.38c.65,.21,1.42,.38,2.3,.51,.88,.13,1.7,.19,2.48,.19h5.71Zm-6.75,6.14c1.09-.14,1.94-.4,2.55-.76,.61-.37,1.03-.85,1.27-1.45,.24-.6,.35-1.36,.35-2.27v-1.65h-2.24v2.63c0,.32-.15,.57-.45,.74-.3,.18-.8,.3-1.51,.37-.71,.07-1.7,.1-2.96,.1h-6.47c-.09-.4-.16-.8-.19-1.21-.04-.41-.06-.89-.06-1.44,0-.64,.06-1.31,.18-2.01,.12-.7,.28-1.42,.48-2.17l-2.19-.37c-.15,.46-.28,.97-.39,1.54-.11,.57-.19,1.16-.24,1.77-.05,.61-.08,1.2-.08,1.78,0,.99,.11,1.79,.34,2.41,.23,.62,.63,1.09,1.2,1.41,.57,.32,1.36,.53,2.36,.64,1.01,.11,2.29,.16,3.84,.16,1.71,0,3.11-.07,4.19-.22m-13.49-21.33h-.82c-.26,0-.46,.04-.59,.11-.14,.08-.27,.23-.39,.46l-7.43,15.54h.82c.26,0,.46-.04,.6-.11,.15-.08,.27-.23,.38-.46l7.43-15.54Zm-16.84,.8h-2.24v14.4h2.24v-14.4Zm-7.03,18.81c.22-.17,.42-.36,.58-.58,.17-.22,.25-.42,.25-.58,0-.18-.08-.38-.25-.61-.17-.22-.36-.41-.57-.57-.21-.16-.41-.24-.59-.24s-.38,.08-.61,.24c-.22,.16-.41,.35-.57,.57-.16,.22-.24,.42-.24,.61,0,.17,.08,.37,.24,.59,.16,.23,.35,.42,.58,.58,.23,.16,.43,.24,.59,.24s.36-.08,.58-.25m.54-4.41v-10.74h-2.24v8.21h-3.61v2.54h5.85Zm-8.05-13.71c.22-.17,.41-.36,.58-.58,.17-.22,.25-.41,.25-.58,0-.18-.08-.38-.25-.61-.17-.22-.36-.41-.57-.57-.21-.16-.41-.24-.59-.24s-.38,.08-.6,.24c-.22,.16-.41,.35-.57,.57-.16,.22-.24,.42-.24,.61,0,.17,.08,.37,.24,.59,.16,.23,.35,.42,.58,.58,.23,.16,.43,.24,.59,.24s.36-.08,.58-.25m.54,2.97h-2.24v8.21h-3.61v2.54h8.43v-2.54h-2.58v-8.21Zm-12.95,20.87c.22-.17,.42-.36,.58-.58,.17-.22,.25-.42,.25-.58,0-.18-.08-.38-.25-.61-.17-.22-.36-.41-.57-.57-.21-.16-.41-.24-.59-.24s-.38,.08-.61,.24c-.22,.16-.41,.35-.57,.57-.16,.22-.24,.42-.24,.61,0,.17,.08,.37,.24,.59,.16,.23,.35,.42,.58,.58,.23,.16,.43,.24,.59,.24s.36-.08,.58-.25m-3.54,0c.22-.17,.41-.36,.58-.58,.17-.22,.25-.42,.25-.58,0-.18-.08-.38-.25-.61-.17-.22-.36-.41-.57-.57-.21-.16-.41-.24-.59-.24s-.38,.08-.6,.24c-.22,.16-.41,.35-.57,.57-.16,.22-.24,.42-.24,.61,0,.17,.08,.37,.24,.59,.16,.23,.35,.42,.58,.58,.23,.16,.43,.24,.59,.24s.36-.08,.58-.25m11.55-10.12v-2.54h-6.22c-.58,0-1.2-.05-1.85-.14-.65-.09-1.34-.23-2.06-.41l-.37,2.38c.66,.21,1.42,.38,2.3,.51,.88,.13,1.7,.19,2.48,.19h5.71Zm-6.75,6.14c1.09-.14,1.94-.4,2.55-.76,.61-.37,1.03-.85,1.27-1.45,.24-.6,.35-1.36,.35-2.27v-1.65h-2.24v2.63c0,.32-.15,.57-.45,.74-.3,.18-.8,.3-1.51,.37-.71,.07-1.69,.1-2.96,.1h-6.47c-.09-.4-.16-.8-.19-1.21-.04-.41-.06-.89-.06-1.44,0-.64,.06-1.31,.18-2.01,.12-.7,.28-1.42,.48-2.17l-2.19-.37c-.15,.46-.28,.97-.39,1.54-.11,.57-.19,1.16-.24,1.77-.05,.61-.08,1.2-.08,1.78,0,.99,.11,1.79,.34,2.41,.23,.62,.63,1.09,1.2,1.41,.57,.32,1.36,.53,2.36,.64,1.01,.11,2.29,.16,3.84,.16,1.71,0,3.11-.07,4.2-.22m-571.95-20.53h-2.24v14.4h2.24v-14.4Zm-20.68,5.71h-2.24v6.15h-3.61v2.54h5.85v-8.68Zm4.77,8.48c.66-.14,1.17-.38,1.52-.72,.35-.34,.59-.82,.72-1.43,.13-.61,.19-1.39,.19-2.33v-4h-2.26v4.94c0,.49-.14,.81-.41,.97-.27,.16-.72,.24-1.35,.24h-3.18v2.54h2.17c1.07,0,1.93-.07,2.59-.2m7.79-.33c.66-.36,1.13-.97,1.42-1.83,.28-.86,.42-2.06,.42-3.6,0-.49-.03-1.02-.09-1.59-.06-.57-.14-1.13-.23-1.69-.09-.56-.2-1.04-.32-1.45l-2.24,.34c.2,.79,.35,1.57,.46,2.33,.11,.76,.16,1.48,.16,2.17s-.02,1.3-.06,1.83c-.04,.53-.1,1.03-.19,1.49h-2.93c-.61,0-1.05-.08-1.34-.24-.28-.16-.42-.48-.42-.97v-4.94h-2.26v4c0,.95,.07,1.72,.21,2.33,.14,.61,.38,1.08,.72,1.43,.34,.34,.83,.58,1.47,.72s1.47,.2,2.49,.2c1.16,0,2.07-.18,2.73-.54m-27.48-.74c-.24-.35-.43-.73-.56-1.14-.13-.41-.22-.86-.27-1.35-.05-.49-.08-1.01-.08-1.58,0-.67,.08-1.33,.24-1.99,.16-.65,.37-1.36,.63-2.13l-2.19-.59c-.27,.76-.5,1.53-.66,2.3-.17,.77-.25,1.57-.25,2.41,0,.91,.07,1.77,.22,2.56,.14,.79,.43,1.44,.86,1.94l2.08-.44Zm-2.4,8.53c-.24-.93-.41-1.71-.51-2.33-.1-.63-.15-1.2-.15-1.72,0-.7,.03-1.3,.08-1.8,.05-.5,.14-.97,.26-1.4h10.12v-7.79c0-.78-.14-1.4-.42-1.86-.28-.46-.74-.8-1.38-1.02-.64-.21-1.48-.32-2.54-.32-.97,0-1.93,.08-2.86,.25-.93,.17-1.74,.4-2.44,.69l.89,2.15c.66-.18,1.35-.32,2.09-.41,.74-.09,1.44-.14,2.09-.14,.99,0,1.77,.07,2.33,.21v5.71h-7.45c-.73,0-1.32,.18-1.76,.52-.44,.35-.76,.91-.97,1.67-.21,.76-.31,1.77-.31,3.02,0,.58,.03,1.16,.09,1.76,.06,.59,.15,1.17,.25,1.72,.11,.55,.23,1.04,.37,1.48l2.22-.39Zm9.8-7.25h2.58v-2.54h-2.58v2.54Zm-20.68-14.4h-2.24v14.4h2.24v-14.4Zm-6.49,0h-2.24v11.86h-3.61v2.54h5.85v-14.4Zm-7.52,14.4v-7.86c0-.79-.12-1.41-.35-1.86-.24-.45-.63-.77-1.19-.96s-1.32-.29-2.3-.29c-1.2,0-2.3,.16-3.3,.49-1,.33-1.85,.8-2.55,1.42-.7,.62-1.22,1.36-1.55,2.23v-7.57h-2.24v12.8h2.24c0-2.31,.53-4.03,1.59-5.15,1.06-1.12,2.66-1.68,4.81-1.68,1.2,0,2.07,.08,2.61,.25v8.18h2.24Zm-17.09,0h19.68v-2.54h-19.68v2.54Zm-6.05-13.71c.22-.17,.42-.36,.58-.58,.17-.22,.25-.41,.25-.58,0-.18-.08-.38-.25-.61-.17-.22-.36-.41-.57-.57-.21-.16-.41-.24-.59-.24s-.38,.08-.61,.24c-.22,.16-.41,.35-.57,.57-.16,.22-.24,.42-.24,.61,0,.17,.08,.37,.24,.59,.16,.23,.35,.42,.58,.58,.23,.16,.43,.24,.59,.24s.36-.08,.58-.25m-3.25,11.18v-4.73c0-.46,.07-.76,.22-.93,.14-.16,.41-.24,.81-.24h4.34v4.82c0,.41-.07,.7-.22,.85-.14,.15-.41,.23-.79,.23h-4.36Zm-5.67,2.54h13.28v-10.24c-.88-.27-1.7-.47-2.44-.58-.75-.12-1.58-.17-2.49-.17-.99,0-1.81,.08-2.46,.25-.65,.17-1.16,.44-1.54,.8-.38,.37-.65,.86-.81,1.47-.16,.62-.24,1.39-.24,2.32,0,.87,.02,1.58,.07,2.12,.05,.55,.12,1.04,.21,1.49h-3.56v2.54Zm13.28,0h2.61v-2.54h-2.61v2.54Zm-24.19,1.52c-.04-.5-.06-1.08-.06-1.75,0-.73,.05-1.5,.14-2.32,.09-.82,.24-1.66,.43-2.53l-2.1-.34c-.15,.5-.28,1.07-.39,1.71-.11,.64-.19,1.3-.24,1.97-.05,.67-.08,1.33-.08,1.97,0,1.07,.07,1.94,.22,2.62,.14,.68,.42,1.21,.81,1.59,.4,.38,.95,.65,1.67,.81,.71,.16,1.65,.24,2.79,.24,1.28,0,2.31-.07,3.11-.22,.79-.14,1.4-.4,1.84-.76,.43-.36,.73-.86,.88-1.5,.15-.64,.23-1.45,.23-2.42v-15.04h-2.24v16.18c0,.49-.22,.81-.65,.97-.44,.16-1.19,.24-2.25,.24h-3.91c-.09-.46-.16-.93-.19-1.43m9.24-1.52h2.58v-2.54h-2.58v2.54Zm-27.99-1.28c-.24-.35-.43-.73-.56-1.14-.13-.41-.22-.86-.27-1.35-.05-.49-.08-1.01-.08-1.58,0-.67,.08-1.33,.24-1.99,.16-.65,.37-1.36,.63-2.13l-2.19-.59c-.27,.76-.5,1.53-.66,2.3-.17,.77-.25,1.57-.25,2.41,0,.91,.07,1.77,.22,2.56,.14,.79,.43,1.44,.86,1.94l2.08-.44Zm1.22-9.61c-.63,.07-1.25,.17-1.84,.31s-1.13,.31-1.62,.52l.89,2.15c.69-.18,1.4-.32,2.13-.41s1.42-.14,2.06-.14c.49,0,.91,.02,1.28,.05,.37,.03,.72,.08,1.05,.16v5.71h-11.29v2.54h13.53v-7.79c0-.78-.14-1.4-.42-1.86-.28-.46-.74-.8-1.38-1.02-.64-.21-1.48-.32-2.54-.32-.59,0-1.21,.03-1.84,.1m-10.53,15.51c.54-.55,.93-1.21,1.18-1.99,.24-.78,.37-1.7,.37-2.77v-10.6h-2.24v10.6c0,.79-.07,1.45-.2,1.97-.14,.52-.38,.95-.71,1.29-.33,.34-.81,.66-1.42,.95l.91,1.99c.87-.41,1.57-.89,2.11-1.44m1.52-4.62h2.58v-2.54h-2.58v2.54Zm-7.44,4.02c.22-.17,.42-.36,.58-.58,.17-.22,.25-.42,.25-.58,0-.18-.08-.38-.25-.61-.17-.22-.36-.41-.57-.57-.21-.16-.41-.24-.59-.24s-.38,.08-.61,.24c-.22,.16-.41,.35-.57,.57-.16,.22-.24,.42-.24,.61,0,.17,.08,.37,.24,.59,.16,.23,.35,.42,.58,.58,.23,.16,.43,.24,.59,.24s.36-.08,.58-.25m-3.54,0c.22-.17,.41-.36,.58-.58,.17-.22,.25-.42,.25-.58,0-.18-.08-.38-.25-.61-.17-.22-.36-.41-.57-.57-.21-.16-.41-.24-.59-.24s-.38,.08-.61,.24c-.22,.16-.41,.35-.57,.57-.16,.22-.24,.42-.24,.61,0,.17,.08,.37,.24,.59,.16,.23,.36,.42,.58,.58,.23,.16,.43,.24,.59,.24s.36-.08,.58-.25m3.74-4.02v-10.74h-2.24v8.21h-3.61v2.54h5.85Zm-12.19-13.71c.22-.17,.41-.36,.58-.58s.25-.41,.25-.58c0-.18-.08-.38-.25-.61-.17-.22-.36-.41-.57-.57-.21-.16-.41-.24-.59-.24s-.38,.08-.61,.24c-.22,.16-.41,.35-.57,.57-.16,.22-.24,.42-.24,.61,0,.17,.08,.37,.24,.59,.16,.23,.36,.42,.58,.58,.23,.16,.43,.24,.59,.24s.36-.08,.58-.25m4.63,13.71v-7.86c0-.79-.12-1.41-.36-1.86-.24-.45-.63-.77-1.19-.96-.56-.19-1.32-.29-2.29-.29-1.21,0-2.3,.16-3.3,.49-1,.33-1.85,.8-2.55,1.42-.7,.62-1.22,1.36-1.55,2.23v-3.91h-2.24v9.14h2.24c0-2.31,.53-4.03,1.59-5.15,1.06-1.12,2.66-1.68,4.81-1.68,.59,0,1.12,.02,1.56,.07,.45,.05,.8,.11,1.04,.18v8.18h2.24Zm-12.18-2.54v2.54h12.18l-1.08-2.54h-11.11Zm-2.01,7.8c.79-.14,1.4-.4,1.84-.76,.43-.36,.73-.86,.88-1.5,.15-.64,.23-1.45,.23-2.42v-2.19h-2.24v3.34c0,.49-.22,.81-.65,.97-.44,.16-1.19,.24-2.25,.24h-3.91c-.09-.46-.16-.93-.19-1.43-.04-.5-.06-1.08-.06-1.75,0-.62,.06-1.29,.18-1.99,.12-.7,.27-1.42,.46-2.17l-2.24-.34c-.14,.44-.25,.94-.35,1.5s-.17,1.13-.22,1.72c-.05,.59-.07,1.17-.07,1.74,0,1.07,.06,1.94,.19,2.62s.38,1.21,.76,1.59c.38,.38,.93,.65,1.66,.81,.72,.16,1.68,.24,2.87,.24,1.28,0,2.32-.07,3.11-.22m14.19-5.27h2.63v-2.54h-2.63v2.54Zm-28.49-.26c.22,.27,.68,.4,1.38,.4s1.18-.13,1.39-.4,.32-.72,.32-1.36-.11-1.06-.32-1.34c-.21-.28-.67-.42-1.37-.42s-1.18,.14-1.4,.42c-.22,.28-.33,.73-.33,1.34,0,.64,.11,1.09,.33,1.36"/><path class="j" d="M248.51,291.36v-2.81l-2.47-2.44,2.47-2.42v-2.81l-5.26,5.23,5.26,5.25Zm-5.78,0v-2.81l-2.44-2.44,2.44-2.42v-2.81l-5.26,5.23,5.26,5.25Zm-13.83-1.83h-2.79v2.79h2.79v-2.79Zm-6.54,2.79v-7.4c0-1.3-.27-2.4-1.16-3.27-.68-.66-1.67-1.05-2.86-1.05s-2.29,.43-3.09,1.3v-1.16h-2.28v11.58h2.33v-7.06c0-1.78,1.1-2.58,2.4-2.58s2.33,.78,2.33,2.58v7.06h2.33Zm-15.01-6.74h-5.21c.02-.71,.07-1.05,.3-1.58,.37-.87,1.21-1.46,2.31-1.46s1.92,.59,2.29,1.46c.23,.52,.3,.87,.32,1.58m2.31,1.62v-1.03c0-3.29-1.8-5.57-4.91-5.57s-4.91,2.17-4.91,5.92c0,4.41,2.3,5.94,5.21,5.94,2.04,0,3.15-.62,4.34-1.8l-1.48-1.4c-.82,.82-1.51,1.19-2.81,1.19-1.9,0-2.95-1.26-2.95-3.25h7.52Zm-13.05,5.12v-7.47c0-2.51-1.44-4.25-4.02-4.25-1.15,0-2.2,.43-3,1.3v-5.85h-2.33v16.27h2.33v-7.11c0-1.74,1.05-2.54,2.35-2.54s2.33,.78,2.33,2.54v7.11h2.33Zm-14.97-6.74h-5.21c.02-.71,.07-1.05,.3-1.58,.37-.87,1.21-1.46,2.31-1.46s1.92,.59,2.29,1.46c.23,.52,.3,.87,.32,1.58m2.31,1.62v-1.03c0-3.29-1.8-5.57-4.91-5.57s-4.91,2.17-4.91,5.92c0,4.41,2.31,5.94,5.21,5.94,2.04,0,3.15-.62,4.34-1.8l-1.48-1.4c-.82,.82-1.51,1.19-2.81,1.19-1.9,0-2.95-1.26-2.95-3.25h7.52Zm-12.29,1.58c0-2.06-1.28-3.09-3.45-3.27l-1.83-.16c-1.23-.12-1.6-.64-1.6-1.33,0-.87,.71-1.49,2.1-1.49,1.1,0,2.13,.23,2.86,.85l1.46-1.49c-1.08-.94-2.56-1.3-4.3-1.3-2.42,0-4.37,1.28-4.37,3.54,0,2.04,1.26,3.02,3.43,3.2l1.85,.16c1.12,.09,1.55,.59,1.55,1.37,0,1.1-1.12,1.6-2.54,1.6-1.14,0-2.4-.25-3.34-1.21l-1.53,1.53c1.37,1.34,2.97,1.66,4.87,1.66,2.77,0,4.82-1.26,4.82-3.68m-10.47-7.08c-.8-.8-1.65-1.09-2.76-1.09-1.3,0-2.49,.57-3.09,1.39v-1.25h-2.28v11.58h2.33v-7.04c0-1.6,1.05-2.61,2.31-2.61,.8,0,1.21,.25,1.74,.78l1.76-1.76Zm-13.76,3.89h-5.21c.02-.71,.07-1.05,.3-1.58,.37-.87,1.21-1.46,2.31-1.46s1.92,.59,2.29,1.46c.23,.52,.3,.87,.32,1.58m2.31,1.62v-1.03c0-3.29-1.81-5.57-4.91-5.57s-4.91,2.17-4.91,5.92c0,4.41,2.3,5.94,5.21,5.94,2.03,0,3.15-.62,4.34-1.8l-1.49-1.4c-.82,.82-1.51,1.19-2.81,1.19-1.9,0-2.95-1.26-2.95-3.25h7.52Zm-15.49-.68c0,2.06-.3,3.86-2.4,3.86s-2.42-1.81-2.42-3.86,.32-3.84,2.42-3.84,2.4,1.78,2.4,3.84m2.33,5.8v-16.27h-2.33v5.85c-.85-1-1.81-1.3-3.04-1.3-1.17,0-2.17,.39-2.81,1.03-1.16,1.16-1.3,3.13-1.3,4.89s.14,3.75,1.3,4.91c.64,.64,1.67,1.03,2.83,1.03,1.26,0,2.2-.32,3.06-1.37v1.23h2.28Zm-14.56-6.74h-5.21c.02-.71,.07-1.05,.3-1.58,.37-.87,1.21-1.46,2.31-1.46s1.92,.59,2.29,1.46c.23,.52,.3,.87,.32,1.58m2.31,1.62v-1.03c0-3.29-1.81-5.57-4.91-5.57s-4.91,2.17-4.91,5.92c0,4.41,2.3,5.94,5.21,5.94,2.03,0,3.15-.62,4.34-1.8l-1.49-1.4c-.82,.82-1.51,1.19-2.81,1.19-1.9,0-2.95-1.26-2.95-3.25h7.52Zm-13.1-11.22h-2.47v2.47h2.47v-2.47Zm-.07,4.75h-2.33v11.58h2.33v-11.58Zm-4.66-4.69h-2.61l-2.83,11.63-3.27-11.63h-1.99l-3.27,11.63-2.83-11.63h-2.61l4.25,16.27h2.15l3.29-11.4,3.31,11.4h2.15l4.25-16.27Zm-26.24,6.69v-1.78h-2.31v-1.68c0-.85,.41-1.36,1.28-1.36h1.03v-1.98h-1.46c-2.17,0-3.17,1.55-3.17,3.23v1.8h-1.33v1.78h1.33v9.57h2.33v-9.57h2.31Zm-8.93,9.57v-11.58h-2.33v7.06c0,1.78-1.1,2.59-2.4,2.59s-2.33-.78-2.33-2.58v-7.06h-2.33v7.4c0,1.3,.27,2.4,1.16,3.27,.68,.66,1.67,1.05,2.86,1.05s2.29-.43,3.09-1.3v1.16h2.28Zm-15.97-5.37h-5l2.54-7.22,2.47,7.22Zm4.43,5.37l-5.96-16.27h-1.99l-5.96,16.27h2.63l1.12-3.27h6.42l1.12,3.27h2.63Z"/><path class="j" d="M174.17,263.07h-2.79v2.79h2.79v-2.79Zm-5.3,2.79l-4.52-7.04,4.02-4.55h-2.83l-4.5,5.35v-10.03h-2.33v16.27h2.33v-3.4l1.71-1.94,3.25,5.35h2.88Zm-13.99,0v-7.4c0-1.3-.27-2.4-1.16-3.27-.68-.66-1.67-1.05-2.86-1.05s-2.29,.43-3.09,1.3v-1.16h-2.28v11.58h2.33v-7.06c0-1.78,1.1-2.58,2.4-2.58s2.33,.78,2.33,2.58v7.06h2.33Zm-15.54-4.18c0,.82-.16,1.37-.5,1.72-.62,.59-1.28,.66-2.17,.66-1.46,0-2.13-.59-2.13-1.65s.71-1.67,2.08-1.67h2.72v.94Zm2.33,4.18v-7.75c0-2.63-1.6-3.97-4.77-3.97-1.92,0-3.06,.39-4.16,1.66l1.53,1.44c.64-.83,1.26-1.12,2.54-1.12,1.81,0,2.54,.71,2.54,2.17v.83h-3.06c-2.65,0-4,1.39-4,3.33,0,.98,.32,1.87,.91,2.49,.71,.71,1.67,1.05,3.11,1.05s2.24-.34,3.09-1.19v1.05h2.28Zm-14.6-8.25c0,2.24-.02,4-.87,4.94-.69,.76-1.6,1.1-2.77,1.1h-2.99v-11.84h2.99c1.17,0,2.08,.34,2.77,1.1,.84,.94,.87,2.47,.87,4.71m2.47,0c0-2.35,.11-4.73-1.64-6.49-1.03-1.03-2.51-1.53-4.21-1.53h-5.71v16.27h5.71c1.69,0,3.18-.5,4.21-1.53,1.76-1.76,1.64-4.36,1.64-6.72m-21.37,8.25v-7.4c0-1.3-.27-2.4-1.16-3.27-.69-.66-1.67-1.05-2.86-1.05s-2.29,.43-3.09,1.3v-1.16h-2.28v11.58h2.33v-7.06c0-1.78,1.1-2.58,2.4-2.58s2.33,.78,2.33,2.58v7.06h2.33Zm-15.01-6.74h-5.21c.02-.71,.07-1.05,.3-1.58,.37-.87,1.21-1.46,2.31-1.46s1.92,.59,2.29,1.46c.23,.53,.3,.87,.32,1.58m2.31,1.62v-1.03c0-3.29-1.81-5.57-4.91-5.57s-4.91,2.17-4.91,5.92c0,4.41,2.3,5.94,5.21,5.94,2.03,0,3.15-.62,4.34-1.8l-1.49-1.39c-.82,.82-1.51,1.19-2.81,1.19-1.9,0-2.95-1.26-2.95-3.25h7.52Zm-11.45,5.12v-1.99h-1.03c-.94,0-1.26-.46-1.26-1.35v-12.93h-2.33v13.07c0,1.71,.96,3.2,3.18,3.2h1.44Zm-10.17-6.74h-5.21c.02-.71,.07-1.05,.3-1.58,.37-.87,1.21-1.46,2.31-1.46s1.92,.59,2.29,1.46c.23,.53,.3,.87,.32,1.58m2.31,1.62v-1.03c0-3.29-1.8-5.57-4.91-5.57s-4.91,2.17-4.91,5.92c0,4.41,2.31,5.94,5.21,5.94,2.04,0,3.15-.62,4.34-1.8l-1.48-1.39c-.82,.82-1.51,1.19-2.81,1.19-1.9,0-2.95-1.26-2.95-3.25h7.52Zm-13.09-11.22h-2.47v2.47h2.47v-2.47Zm-.07,4.75h-2.33v11.58h2.33v-11.58Zm-4.52-4.68h-2.61l-3.75,11.84-3.75-11.84h-2.56l5.35,16.27h1.92l5.39-16.27Z"/><path class="j" d="M914.87,157.23h-2.79v2.79h2.79v-2.79Zm-8.34-3.95h-5.21c.02-.71,.07-1.05,.3-1.58,.37-.87,1.21-1.46,2.31-1.46s1.92,.59,2.29,1.46c.23,.52,.3,.87,.32,1.58m2.31,1.62v-1.03c0-3.29-1.8-5.57-4.91-5.57s-4.91,2.17-4.91,5.92c0,4.41,2.31,5.94,5.21,5.94,2.04,0,3.15-.62,4.34-1.8l-1.48-1.4c-.82,.82-1.51,1.19-2.81,1.19-1.9,0-2.95-1.26-2.95-3.25h7.52Zm-11.45,5.12v-1.98h-1.03c-.94,0-1.26-.46-1.26-1.35v-12.93h-2.33v13.07c0,1.71,.96,3.2,3.17,3.2h1.44Zm-8.48,0v-11.58h-2.33v7.06c0,1.78-1.1,2.59-2.4,2.59s-2.33-.78-2.33-2.58v-7.06h-2.33v7.4c0,1.3,.27,2.4,1.16,3.27,.68,.66,1.67,1.05,2.86,1.05s2.29-.43,3.09-1.3v1.16h2.28Zm-13.09,0v-7.47c0-2.51-1.44-4.25-4.02-4.25-1.15,0-2.2,.43-3,1.3v-5.85h-2.33v16.27h2.33v-7.11c0-1.74,1.05-2.54,2.35-2.54s2.33,.78,2.33,2.54v7.11h2.33Zm-12.27-1.51l-1.6-1.53c-.73,.8-1.3,1.1-2.22,1.1s-1.65-.37-2.15-1.03c-.5-.64-.69-1.49-.69-2.83s.18-2.17,.69-2.81c.5-.66,1.26-1.03,2.15-1.03s1.48,.3,2.22,1.1l1.6-1.55c-1.1-1.16-2.22-1.62-3.82-1.62-2.61,0-5.16,1.57-5.16,5.92s2.56,5.94,5.16,5.94c1.6,0,2.72-.48,3.82-1.64m-11.65-3.13c0-1.39-.44-2.56-1.33-3.34-.69-.62-1.53-.98-3.04-1.21l-1.85-.28c-.76-.11-1.42-.39-1.83-.75-.44-.39-.62-.91-.62-1.51,0-1.44,1.05-2.54,2.97-2.54,1.37,0,2.54,.3,3.54,1.26l1.57-1.55c-1.39-1.3-2.9-1.85-5.05-1.85-3.38,0-5.44,1.94-5.44,4.77,0,1.33,.39,2.35,1.19,3.11,.71,.66,1.76,1.12,3.08,1.3l1.92,.27c.96,.14,1.37,.3,1.78,.69,.44,.39,.64,.98,.64,1.69,0,1.58-1.23,2.49-3.36,2.49-1.67,0-2.97-.37-4.16-1.55l-1.64,1.62c1.55,1.58,3.31,2.15,5.76,2.15,3.41,0,5.85-1.78,5.85-4.77m-21.78-2.1h-5.21c.02-.71,.07-1.05,.3-1.58,.37-.87,1.21-1.46,2.31-1.46s1.92,.59,2.29,1.46c.23,.52,.3,.87,.32,1.58m2.31,1.62v-1.03c0-3.29-1.81-5.57-4.91-5.57s-4.91,2.17-4.91,5.92c0,4.41,2.3,5.94,5.21,5.94,2.03,0,3.15-.62,4.34-1.8l-1.49-1.4c-.82,.82-1.51,1.19-2.81,1.19-1.9,0-2.95-1.26-2.95-3.25h7.52Zm-13.1-11.22h-2.47v2.47h2.47v-2.47Zm-.07,4.75h-2.33v11.58h2.33v-11.58Zm-8.59,5.78c0,2.06-.3,3.86-2.4,3.86s-2.42-1.81-2.42-3.86,.32-3.84,2.42-3.84,2.4,1.78,2.4,3.84m2.33,5.8v-16.27h-2.33v5.85c-.85-1-1.81-1.3-3.04-1.3-1.17,0-2.17,.39-2.81,1.03-1.16,1.16-1.3,3.13-1.3,4.89s.13,3.75,1.3,4.91c.64,.64,1.67,1.03,2.83,1.03,1.26,0,2.2-.32,3.06-1.37v1.23h2.28Zm-18.46,0v-7.4c0-1.3-.27-2.4-1.16-3.27-.69-.66-1.67-1.05-2.86-1.05s-2.29,.43-3.09,1.3v-1.16h-2.28v11.58h2.33v-7.06c0-1.78,1.1-2.58,2.4-2.58s2.33,.78,2.33,2.58v7.06h2.33Zm-13.25-16.34h-2.47v2.47h2.47v-2.47Zm-.07,4.75h-2.33v11.58h2.33v-11.58Zm-10.17,.96c-.8-.8-1.65-1.09-2.76-1.09-1.3,0-2.49,.57-3.09,1.39v-1.25h-2.28v11.58h2.33v-7.04c0-1.6,1.05-2.61,2.31-2.61,.8,0,1.21,.25,1.74,.78l1.76-1.76Zm-13.76,3.89h-5.21c.02-.71,.07-1.05,.3-1.58,.37-.87,1.21-1.46,2.31-1.46s1.92,.59,2.29,1.46c.23,.52,.3,.87,.32,1.58m2.31,1.62v-1.03c0-3.29-1.81-5.57-4.91-5.57s-4.91,2.17-4.91,5.92c0,4.41,2.3,5.94,5.21,5.94,2.03,0,3.15-.62,4.34-1.8l-1.49-1.4c-.82,.82-1.51,1.19-2.81,1.19-1.9,0-2.95-1.26-2.95-3.25h7.52Zm-15.49-.68c0,2.06-.3,3.86-2.4,3.86s-2.42-1.81-2.42-3.86,.32-3.84,2.42-3.84,2.4,1.78,2.4,3.84m2.33,5.8v-16.27h-2.33v5.85c-.85-1-1.81-1.3-3.04-1.3-1.17,0-2.17,.39-2.81,1.03-1.16,1.16-1.3,3.13-1.3,4.89s.14,3.75,1.3,4.91c.64,.64,1.67,1.03,2.83,1.03,1.26,0,2.2-.32,3.06-1.37v1.23h2.28Zm-14.56-6.74h-5.21c.02-.71,.07-1.05,.3-1.58,.37-.87,1.21-1.46,2.31-1.46s1.92,.59,2.29,1.46c.23,.52,.3,.87,.32,1.58m2.31,1.62v-1.03c0-3.29-1.8-5.57-4.91-5.57s-4.91,2.17-4.91,5.92c0,4.41,2.31,5.94,5.21,5.94,2.04,0,3.15-.62,4.34-1.8l-1.48-1.4c-.82,.82-1.51,1.19-2.81,1.19-1.9,0-2.95-1.26-2.95-3.25h7.52Zm-13.09-11.22h-2.47v2.47h2.47v-2.47Zm-.07,4.75h-2.33v11.58h2.33v-11.58Zm-4.59,0h-2.49l-2.24,8.15-2.67-8.15h-1.8l-2.7,8.15-2.24-8.15h-2.47l3.59,11.58h2.01l2.7-8.09,2.72,8.09h1.99l3.61-11.58Zm-24.68,8.91v-10.92c0-.91-.07-1.8-.55-2.65-.46-.82-1.09-1.44-1.83-2.17l-1.6,1.6c.55,.55,.91,.87,1.26,1.51,.23,.43,.34,1.05,.34,1.85v10.65c0,.8-.11,1.42-.34,1.85-.34,.64-.71,.96-1.26,1.51l1.6,1.6c.73-.73,1.37-1.35,1.83-2.17,.48-.85,.55-1.74,.55-2.65m-7.27,2.67v-7.4c0-1.3-.34-2.4-1.23-3.27-.69-.66-1.74-1.05-2.93-1.05-1.53,0-2.7,.55-3.63,1.69-.73-1.12-1.85-1.69-3.29-1.69-1.17,0-2.31,.45-3.09,1.3v-1.16h-2.28v11.58h2.33v-7.06c0-1.78,1.1-2.58,2.4-2.58s2.33,.78,2.33,2.58v7.06h2.33v-7.18c0-1.67,1.15-2.47,2.4-2.47s2.33,.78,2.33,2.58v7.06h2.33Zm-20.38,0v-11.58h-2.33v7.06c0,1.78-1.1,2.59-2.4,2.59s-2.33-.78-2.33-2.58v-7.06h-2.33v7.4c0,1.3,.27,2.4,1.16,3.27,.68,.66,1.67,1.05,2.86,1.05s2.29-.43,3.09-1.3v1.16h2.28Zm-12.48,0v-1.98h-.96c-.87,0-1.28-.5-1.28-1.34v-6.25h2.24v-1.78h-2.24v-3.54h-2.33v3.54h-1.33v1.78h1.33v6.36c0,1.66,1.01,3.22,3.18,3.22h1.39Zm-10.99-4.18c0,.82-.16,1.37-.5,1.72-.62,.59-1.28,.66-2.17,.66-1.46,0-2.13-.6-2.13-1.65s.71-1.67,2.08-1.67h2.72v.94Zm2.33,4.18v-7.75c0-2.63-1.6-3.97-4.77-3.97-1.92,0-3.06,.39-4.16,1.66l1.53,1.44c.64-.82,1.26-1.12,2.54-1.12,1.81,0,2.54,.71,2.54,2.17v.83h-3.06c-2.65,0-4,1.39-4,3.33,0,.98,.32,1.88,.91,2.49,.71,.71,1.67,1.05,3.11,1.05s2.24-.34,3.09-1.19v1.05h2.28Zm-14.6-8.25c0,2.24-.02,4-.87,4.94-.69,.75-1.6,1.1-2.77,1.1h-2.99v-11.84h2.99c1.17,0,2.08,.34,2.77,1.1,.85,.94,.87,2.47,.87,4.71m2.47,0c0-2.35,.12-4.73-1.64-6.49-1.03-1.03-2.51-1.53-4.2-1.53h-5.71v16.27h5.71c1.69,0,3.18-.5,4.2-1.53,1.76-1.76,1.64-4.36,1.64-6.72m-15.24,8.82c-.55-.55-.94-.87-1.28-1.51-.23-.44-.34-1.05-.34-1.87v-10.65c0-.82,.12-1.44,.34-1.87,.34-.64,.73-.96,1.28-1.51l-1.58-1.58c-.73,.73-1.39,1.35-1.85,2.17-.48,.84-.52,1.73-.52,2.65v10.92c0,.91,.05,1.8,.52,2.65,.46,.82,1.12,1.44,1.85,2.17l1.58-1.58Zm-185.46-.57v-7.4c0-1.3-.34-2.4-1.23-3.27-.69-.66-1.74-1.05-2.93-1.05-1.53,0-2.7,.55-3.63,1.69-.73-1.12-1.85-1.69-3.29-1.69-1.16,0-2.31,.45-3.09,1.3v-1.16h-2.28v11.58h2.33v-7.06c0-1.78,1.1-2.58,2.4-2.58s2.33,.78,2.33,2.58v7.06h2.33v-7.18c0-1.67,1.14-2.47,2.4-2.47s2.33,.78,2.33,2.58v7.06h2.33Zm-22.6-4.18c0,.82-.16,1.37-.5,1.72-.62,.59-1.28,.66-2.17,.66-1.46,0-2.13-.6-2.13-1.65s.71-1.67,2.08-1.67h2.72v.94Zm2.33,4.18v-7.75c0-2.63-1.6-3.97-4.77-3.97-1.92,0-3.06,.39-4.16,1.66l1.53,1.44c.64-.82,1.26-1.12,2.54-1.12,1.81,0,2.54,.71,2.54,2.17v.83h-3.06c-2.65,0-4,1.39-4,3.33,0,.98,.32,1.88,.91,2.49,.71,.71,1.67,1.05,3.11,1.05s2.24-.34,3.09-1.19v1.05h2.28Zm-18.05,0v-7.47c0-2.51-1.44-4.25-4.02-4.25-1.14,0-2.2,.43-3,1.3v-5.85h-2.33v16.27h2.33v-7.11c0-1.74,1.05-2.54,2.35-2.54s2.33,.78,2.33,2.54v7.11h2.33Zm-12.27-1.51l-1.6-1.53c-.73,.8-1.3,1.1-2.22,1.1s-1.65-.37-2.15-1.03c-.5-.64-.69-1.49-.69-2.83s.18-2.17,.69-2.81c.5-.66,1.26-1.03,2.15-1.03s1.48,.3,2.22,1.1l1.6-1.55c-1.1-1.16-2.22-1.62-3.82-1.62-2.61,0-5.16,1.57-5.16,5.92s2.56,5.94,5.16,5.94c1.6,0,2.72-.48,3.82-1.64m-12.25-14.83h-2.47v2.47h2.47v-2.47Zm-.07,4.75h-2.33v11.58h2.33v-11.58Zm-5.12,11.58v-1.98h-1.03c-.94,0-1.26-.46-1.26-1.35v-12.93h-2.33v13.07c0,1.71,.96,3.2,3.18,3.2h1.44Zm-7.75,0v-1.98h-.96c-.87,0-1.28-.5-1.28-1.34v-6.25h2.24v-1.78h-2.24v-3.54h-2.33v3.54h-1.33v1.78h1.33v6.36c0,1.66,1,3.22,3.17,3.22h1.4Zm-8.66,0v-7.47c0-2.51-1.44-4.25-4.02-4.25-1.14,0-2.2,.43-2.99,1.3v-5.85h-2.33v16.27h2.33v-7.11c0-1.74,1.05-2.54,2.35-2.54s2.33,.78,2.33,2.54v7.11h2.33Zm-12.27-1.51l-1.6-1.53c-.73,.8-1.3,1.1-2.22,1.1s-1.65-.37-2.15-1.03c-.5-.64-.69-1.49-.69-2.83s.18-2.17,.69-2.81c.5-.66,1.26-1.03,2.15-1.03s1.49,.3,2.22,1.1l1.6-1.55c-1.1-1.16-2.22-1.62-3.82-1.62-2.61,0-5.16,1.57-5.16,5.92s2.55,5.94,5.16,5.94c1.6,0,2.72-.48,3.82-1.64m-12.25-14.83h-2.47v2.47h2.47v-2.47Zm-.07,4.75h-2.33v11.58h2.33v-11.58Zm-5.39,8.04c0-2.06-1.28-3.09-3.45-3.27l-1.83-.16c-1.23-.12-1.6-.64-1.6-1.33,0-.87,.71-1.49,2.1-1.49,1.1,0,2.12,.23,2.86,.85l1.46-1.49c-1.07-.94-2.56-1.3-4.3-1.3-2.42,0-4.36,1.28-4.36,3.54,0,2.04,1.26,3.02,3.43,3.2l1.85,.16c1.12,.09,1.55,.59,1.55,1.37,0,1.1-1.12,1.6-2.54,1.6-1.14,0-2.4-.25-3.34-1.21l-1.53,1.53c1.37,1.35,2.97,1.67,4.87,1.67,2.76,0,4.82-1.26,4.82-3.68m-11.49,0c0-2.06-1.28-3.09-3.45-3.27l-1.83-.16c-1.23-.12-1.6-.64-1.6-1.33,0-.87,.71-1.49,2.1-1.49,1.1,0,2.13,.23,2.86,.85l1.46-1.49c-1.08-.94-2.56-1.3-4.3-1.3-2.42,0-4.37,1.28-4.37,3.54,0,2.04,1.26,3.02,3.43,3.2l1.85,.16c1.12,.09,1.55,.59,1.55,1.37,0,1.1-1.12,1.6-2.54,1.6-1.14,0-2.4-.25-3.34-1.21l-1.53,1.53c1.37,1.35,2.97,1.67,4.87,1.67,2.77,0,4.82-1.26,4.82-3.68m-12.5,3.54v-11.58h-2.33v7.06c0,1.78-1.1,2.59-2.4,2.59s-2.33-.78-2.33-2.58v-7.06h-2.33v7.4c0,1.3,.27,2.4,1.16,3.27,.69,.66,1.67,1.05,2.86,1.05s2.29-.43,3.09-1.3v1.16h2.28Zm-15.42-4.18c0,.82-.16,1.37-.5,1.72-.62,.59-1.28,.66-2.17,.66-1.46,0-2.13-.6-2.13-1.65s.71-1.67,2.08-1.67h2.72v.94Zm2.33,4.18v-7.75c0-2.63-1.6-3.97-4.77-3.97-1.92,0-3.06,.39-4.16,1.66l1.53,1.44c.64-.82,1.26-1.12,2.54-1.12,1.81,0,2.54,.71,2.54,2.17v.83h-3.06c-2.65,0-4,1.39-4,3.33,0,.98,.32,1.88,.91,2.49,.71,.71,1.67,1.05,3.11,1.05s2.24-.34,3.09-1.19v1.05h2.28Zm-10.42-10.63c-.8-.8-1.65-1.09-2.76-1.09-1.3,0-2.49,.57-3.09,1.39v-1.25h-2.28v11.58h2.33v-7.04c0-1.6,1.05-2.61,2.31-2.61,.8,0,1.21,.25,1.74,.78l1.76-1.76Zm-13.85,4.82c0,1.26-.09,2.47-.8,3.18-.44,.43-1.03,.69-1.72,.69s-1.26-.25-1.69-.69c-.71-.71-.8-1.92-.8-3.18s.09-2.47,.8-3.18c.44-.44,1.01-.66,1.69-.66s1.28,.23,1.72,.66c.71,.71,.8,1.92,.8,3.18m2.33,0c0-1.94-.27-3.41-1.37-4.55-.75-.78-1.9-1.37-3.47-1.37s-2.7,.59-3.45,1.37c-1.09,1.14-1.37,2.61-1.37,4.55s.27,3.43,1.37,4.57c.75,.77,1.87,1.37,3.45,1.37s2.72-.59,3.47-1.37c1.09-1.14,1.37-2.61,1.37-4.57m-11.15-5.78h-2.47l-2.72,8.15-2.74-8.15h-2.47l4.25,11.58h1.9l4.25-11.58Zm-17.64,11.58v-1.98h-.96c-.87,0-1.28-.5-1.28-1.34v-6.25h2.24v-1.78h-2.24v-3.54h-2.33v3.54h-1.33v1.78h1.33v6.36c0,1.66,1,3.22,3.17,3.22h1.39Zm-8.66,0v-7.4c0-1.3-.34-2.4-1.23-3.27-.69-.66-1.74-1.05-2.93-1.05-1.53,0-2.7,.55-3.63,1.69-.73-1.12-1.85-1.69-3.29-1.69-1.17,0-2.31,.45-3.09,1.3v-1.16h-2.28v11.58h2.33v-7.06c0-1.78,1.1-2.58,2.4-2.58s2.33,.78,2.33,2.58v7.06h2.33v-7.18c0-1.67,1.15-2.47,2.4-2.47s2.33,.78,2.33,2.58v7.06h2.33Zm-20.27,0v-7.4c0-1.3-.34-2.4-1.23-3.27-.69-.66-1.73-1.05-2.93-1.05-1.53,0-2.7,.55-3.63,1.69-.73-1.12-1.85-1.69-3.29-1.69-1.17,0-2.31,.45-3.09,1.3v-1.16h-2.28v11.58h2.33v-7.06c0-1.78,1.1-2.58,2.4-2.58s2.33,.78,2.33,2.58v7.06h2.33v-7.18c0-1.67,1.14-2.47,2.4-2.47s2.33,.78,2.33,2.58v7.06h2.33Zm-22.16-5.8c0,1.26-.09,2.47-.8,3.18-.44,.43-1.03,.69-1.72,.69s-1.26-.25-1.69-.69c-.71-.71-.8-1.92-.8-3.18s.09-2.47,.8-3.18c.43-.44,1.01-.66,1.69-.66s1.28,.23,1.72,.66c.71,.71,.8,1.92,.8,3.18m2.33,0c0-1.94-.27-3.41-1.37-4.55-.75-.78-1.9-1.37-3.47-1.37s-2.7,.59-3.45,1.37c-1.1,1.14-1.37,2.61-1.37,4.55s.27,3.43,1.37,4.57c.75,.77,1.87,1.37,3.45,1.37s2.72-.59,3.47-1.37c1.1-1.14,1.37-2.61,1.37-4.57m-11.54,5.8l-4.52-7.04,4.02-4.55h-2.83l-4.5,5.35v-10.03h-2.33v16.27h2.33v-3.4l1.71-1.94,3.25,5.35h2.88Zm-22.14-5.8c0,2.06-.3,3.86-2.4,3.86s-2.42-1.81-2.42-3.86,.32-3.84,2.42-3.84,2.4,1.78,2.4,3.84m2.33,5.8v-16.27h-2.33v5.85c-.85-1-1.81-1.3-3.04-1.3-1.17,0-2.17,.39-2.81,1.03-1.16,1.16-1.3,3.13-1.3,4.89s.14,3.75,1.3,4.91c.64,.64,1.67,1.03,2.83,1.03,1.26,0,2.2-.32,3.06-1.37v1.23h2.28Zm-12.75,0v-7.4c0-1.3-.27-2.4-1.16-3.27-.69-.66-1.67-1.05-2.86-1.05s-2.29,.43-3.09,1.3v-1.16h-2.28v11.58h2.33v-7.06c0-1.78,1.1-2.58,2.4-2.58s2.33,.78,2.33,2.58v7.06h2.33Zm-13.25-16.34h-2.47v2.47h2.47v-2.47Zm-.07,4.75h-2.33v11.58h2.33v-11.58Zm-4.64,11.58l-5.83-9.89,5.28-6.37h-3.02l-6.65,8.18v-8.18h-2.47v16.27h2.47v-4.73l2.74-3.29,4.57,8.02h2.9Zm-22.49,0v-7.4c0-1.3-.27-2.4-1.16-3.27-.68-.66-1.67-1.05-2.86-1.05s-2.29,.43-3.09,1.3v-1.16h-2.28v11.58h2.33v-7.06c0-1.78,1.1-2.58,2.4-2.58s2.33,.78,2.33,2.58v7.06h2.33Zm-13.25-16.34h-2.47v2.47h2.47v-2.47Zm-.07,4.75h-2.33v11.58h2.33v-11.58Zm-7.95,4.84h-5.21c.02-.71,.07-1.05,.3-1.58,.37-.87,1.21-1.46,2.31-1.46s1.92,.59,2.29,1.46c.23,.52,.3,.87,.32,1.58m2.31,1.62v-1.03c0-3.29-1.8-5.57-4.91-5.57s-4.91,2.17-4.91,5.92c0,4.41,2.3,5.94,5.21,5.94,2.04,0,3.15-.62,4.34-1.8l-1.48-1.4c-.82,.82-1.51,1.19-2.81,1.19-1.9,0-2.95-1.26-2.95-3.25h7.52Zm-13.41,5.12v-16.27h-2.47l-4.66,10.12-4.76-10.12h-2.47v16.27h2.47v-10.88l3.84,7.93h1.83l3.75-7.93v10.88h2.47Z"/><path class="j" d="M988.79,77.85h-2.79v2.79h2.79v-2.79Zm-5.3,2.78l-4.52-7.04,4.02-4.55h-2.83l-4.5,5.35v-10.03h-2.33v16.27h2.33v-3.4l1.71-1.94,3.25,5.35h2.88Zm-13.99,0v-7.4c0-1.3-.27-2.4-1.16-3.27-.68-.66-1.67-1.05-2.86-1.05s-2.29,.43-3.09,1.3v-1.16h-2.28v11.58h2.33v-7.06c0-1.78,1.1-2.59,2.4-2.59s2.33,.78,2.33,2.58v7.06h2.33Zm-15.53-4.18c0,.83-.16,1.37-.51,1.72-.62,.6-1.28,.66-2.17,.66-1.46,0-2.13-.59-2.13-1.65s.71-1.67,2.08-1.67h2.72v.94Zm2.33,4.18v-7.74c0-2.63-1.6-3.98-4.77-3.98-1.92,0-3.06,.39-4.16,1.67l1.53,1.44c.64-.82,1.26-1.12,2.54-1.12,1.81,0,2.54,.71,2.54,2.17v.82h-3.06c-2.65,0-4,1.39-4,3.34,0,.98,.32,1.87,.91,2.49,.71,.71,1.66,1.05,3.11,1.05s2.24-.34,3.09-1.19v1.05h2.28Zm-10.42-10.63c-.8-.8-1.65-1.09-2.76-1.09-1.3,0-2.49,.57-3.09,1.39v-1.26h-2.28v11.58h2.33v-7.04c0-1.6,1.05-2.61,2.31-2.61,.8,0,1.21,.25,1.74,.78l1.76-1.76Zm-10.72,10.63l-4.52-7.04,4.02-4.55h-2.83l-4.5,5.35v-10.03h-2.33v16.27h2.33v-3.4l1.72-1.94,3.25,5.35h2.88Zm-19.7,0v-7.47c0-2.51-1.44-4.25-4.02-4.25-1.14,0-2.2,.43-2.99,1.3v-5.85h-2.33v16.27h2.33v-7.11c0-1.74,1.05-2.54,2.35-2.54s2.33,.78,2.33,2.54v7.11h2.33Zm-12.27-1.51l-1.6-1.53c-.73,.8-1.3,1.1-2.22,1.1s-1.65-.37-2.15-1.03c-.5-.64-.69-1.48-.69-2.83s.18-2.17,.69-2.81c.5-.66,1.26-1.03,2.15-1.03s1.49,.3,2.22,1.1l1.6-1.55c-1.1-1.16-2.22-1.62-3.82-1.62-2.61,0-5.16,1.58-5.16,5.92s2.56,5.94,5.16,5.94c1.6,0,2.72-.48,3.82-1.64m-14.1-4.3c0,1.26-.09,2.47-.8,3.18-.44,.44-1.03,.69-1.72,.69s-1.26-.25-1.69-.69c-.71-.71-.8-1.92-.8-3.18s.09-2.47,.8-3.18c.43-.44,1.01-.66,1.69-.66s1.28,.23,1.72,.66c.71,.71,.8,1.92,.8,3.18m2.33,0c0-1.94-.27-3.41-1.37-4.55-.75-.77-1.9-1.37-3.47-1.37s-2.7,.59-3.45,1.37c-1.09,1.14-1.37,2.61-1.37,4.55s.27,3.43,1.37,4.57c.75,.78,1.87,1.37,3.45,1.37s2.72-.59,3.47-1.37c1.1-1.14,1.37-2.61,1.37-4.57m-12.93,5.8v-7.4c0-1.3-.27-2.4-1.16-3.27-.69-.66-1.67-1.05-2.86-1.05s-2.29,.43-3.09,1.3v-1.16h-2.28v11.58h2.33v-7.06c0-1.78,1.1-2.59,2.4-2.59s2.33,.78,2.33,2.58v7.06h2.33Zm-18.3,0v-1.98h-.96c-.87,0-1.28-.5-1.28-1.34v-6.24h2.24v-1.78h-2.24v-3.54h-2.33v3.54h-1.33v1.78h1.33v6.36c0,1.66,1.01,3.22,3.18,3.22h1.39Zm-7.68-3.54c0-2.06-1.28-3.09-3.45-3.27l-1.83-.16c-1.23-.11-1.6-.64-1.6-1.33,0-.87,.71-1.49,2.1-1.49,1.1,0,2.13,.23,2.86,.85l1.46-1.48c-1.08-.94-2.56-1.3-4.3-1.3-2.42,0-4.37,1.28-4.37,3.54,0,2.03,1.26,3.02,3.43,3.2l1.85,.16c1.12,.09,1.55,.59,1.55,1.37,0,1.1-1.12,1.6-2.54,1.6-1.14,0-2.4-.25-3.34-1.21l-1.53,1.53c1.37,1.35,2.97,1.66,4.87,1.66,2.77,0,4.82-1.25,4.82-3.68m-12.43-12.8h-2.47v2.47h2.47v-2.47Zm-.07,4.75h-2.33v11.58h2.33v-11.58Zm-12.07,8.91v-10.92c0-.91-.07-1.81-.55-2.65-.46-.82-1.09-1.44-1.83-2.17l-1.6,1.6c.55,.55,.91,.87,1.26,1.51,.23,.44,.34,1.05,.34,1.85v10.65c0,.8-.11,1.42-.34,1.85-.34,.64-.71,.96-1.26,1.51l1.6,1.6c.73-.73,1.37-1.35,1.83-2.17,.48-.84,.55-1.74,.55-2.65m-6.51-.87c0-2.06-1.28-3.09-3.45-3.27l-1.83-.16c-1.23-.11-1.6-.64-1.6-1.33,0-.87,.71-1.49,2.1-1.49,1.1,0,2.12,.23,2.86,.85l1.46-1.48c-1.07-.94-2.56-1.3-4.3-1.3-2.42,0-4.36,1.28-4.36,3.54,0,2.03,1.26,3.02,3.43,3.2l1.85,.16c1.12,.09,1.55,.59,1.55,1.37,0,1.1-1.12,1.6-2.54,1.6-1.14,0-2.4-.25-3.34-1.21l-1.53,1.53c1.37,1.35,2.97,1.66,4.87,1.66,2.76,0,4.82-1.25,4.82-3.68m-14.19-3.2h-5.21c.02-.71,.07-1.05,.3-1.58,.37-.87,1.21-1.46,2.31-1.46s1.92,.6,2.29,1.46c.23,.53,.3,.87,.32,1.58m2.31,1.62v-1.02c0-3.29-1.81-5.58-4.91-5.58s-4.91,2.17-4.91,5.92c0,4.41,2.3,5.94,5.21,5.94,2.03,0,3.15-.62,4.34-1.8l-1.49-1.4c-.82,.82-1.51,1.19-2.81,1.19-1.9,0-2.95-1.26-2.95-3.25h7.52Zm-15.49-.68c0,2.06-.3,3.86-2.4,3.86s-2.42-1.81-2.42-3.86,.32-3.84,2.42-3.84,2.4,1.78,2.4,3.84m2.33,5.8v-16.27h-2.33v5.85c-.85-1.01-1.81-1.3-3.04-1.3-1.17,0-2.17,.39-2.81,1.03-1.16,1.16-1.3,3.13-1.3,4.89s.14,3.75,1.3,4.91c.64,.64,1.67,1.03,2.83,1.03,1.26,0,2.2-.32,3.06-1.37v1.23h2.28Zm-12.75,0v-7.4c0-1.3-.27-2.4-1.16-3.27-.69-.66-1.67-1.05-2.86-1.05s-2.29,.43-3.09,1.3v-1.16h-2.28v11.58h2.33v-7.06c0-1.78,1.1-2.59,2.4-2.59s2.33,.78,2.33,2.58v7.06h2.33Zm-13.25-16.34h-2.47v2.47h2.47v-2.47Zm-.07,4.75h-2.33v11.58h2.33v-11.58Zm-4.64,11.58l-5.83-9.89,5.28-6.37h-3.02l-6.65,8.18v-8.18h-2.46v16.27h2.46v-4.73l2.74-3.29,4.57,8.02h2.9Zm-21.73-3.54c0-2.06-1.28-3.09-3.45-3.27l-1.83-.16c-1.23-.11-1.6-.64-1.6-1.33,0-.87,.71-1.49,2.1-1.49,1.1,0,2.12,.23,2.86,.85l1.46-1.48c-1.07-.94-2.56-1.3-4.3-1.3-2.42,0-4.36,1.28-4.36,3.54,0,2.03,1.26,3.02,3.43,3.2l1.85,.16c1.12,.09,1.55,.59,1.55,1.37,0,1.1-1.12,1.6-2.54,1.6-1.14,0-2.4-.25-3.34-1.21l-1.53,1.53c1.37,1.35,2.97,1.66,4.87,1.66,2.76,0,4.82-1.25,4.82-3.68m-14.19-3.2h-5.21c.02-.71,.07-1.05,.3-1.58,.37-.87,1.21-1.46,2.31-1.46s1.92,.6,2.29,1.46c.23,.53,.3,.87,.32,1.58m2.31,1.62v-1.02c0-3.29-1.81-5.58-4.91-5.58s-4.91,2.17-4.91,5.92c0,4.41,2.3,5.94,5.21,5.94,2.03,0,3.15-.62,4.34-1.8l-1.49-1.4c-.82,.82-1.51,1.19-2.81,1.19-1.9,0-2.95-1.26-2.95-3.25h7.52Zm-15.49-.68c0,2.06-.3,3.86-2.4,3.86s-2.42-1.81-2.42-3.86,.32-3.84,2.42-3.84,2.4,1.78,2.4,3.84m2.33,5.8v-16.27h-2.33v5.85c-.85-1.01-1.81-1.3-3.04-1.3-1.17,0-2.17,.39-2.81,1.03-1.16,1.16-1.3,3.13-1.3,4.89s.14,3.75,1.3,4.91c.64,.64,1.67,1.03,2.83,1.03,1.26,0,2.2-.32,3.06-1.37v1.23h2.28Zm-20.27-6.74h-5.21c.02-.71,.07-1.05,.3-1.58,.37-.87,1.21-1.46,2.31-1.46s1.92,.6,2.29,1.46c.23,.53,.3,.87,.32,1.58m2.31,1.62v-1.02c0-3.29-1.81-5.58-4.91-5.58s-4.91,2.17-4.91,5.92c0,4.41,2.3,5.94,5.21,5.94,2.03,0,3.15-.62,4.34-1.8l-1.49-1.4c-.82,.82-1.51,1.19-2.81,1.19-1.9,0-2.95-1.26-2.95-3.25h7.52Zm-13.05,5.12v-7.4c0-1.3-.34-2.4-1.23-3.27-.69-.66-1.73-1.05-2.93-1.05-1.53,0-2.7,.55-3.63,1.69-.73-1.12-1.85-1.69-3.29-1.69-1.17,0-2.31,.46-3.09,1.3v-1.16h-2.28v11.58h2.33v-7.06c0-1.78,1.1-2.59,2.4-2.59s2.33,.78,2.33,2.58v7.06h2.33v-7.18c0-1.67,1.14-2.47,2.4-2.47s2.33,.78,2.33,2.58v7.06h2.33Zm-22.6-4.18c0,.83-.16,1.37-.5,1.72-.62,.6-1.28,.66-2.17,.66-1.46,0-2.13-.59-2.13-1.65s.71-1.67,2.08-1.67h2.72v.94Zm2.33,4.18v-7.74c0-2.63-1.6-3.98-4.77-3.98-1.92,0-3.06,.39-4.16,1.67l1.53,1.44c.64-.82,1.26-1.12,2.54-1.12,1.81,0,2.54,.71,2.54,2.17v.82h-3.06c-2.65,0-4,1.39-4,3.34,0,.98,.32,1.87,.91,2.49,.71,.71,1.67,1.05,3.11,1.05s2.24-.34,3.09-1.19v1.05h2.28Zm-12.73,0v-16.27h-2.47v11.42l-7.52-11.42h-2.26v16.27h2.47v-11.45l7.52,11.45h2.26Zm-15.93,.57c-.55-.55-.94-.87-1.28-1.51-.23-.43-.34-1.05-.34-1.87v-10.65c0-.82,.11-1.44,.34-1.87,.34-.64,.73-.96,1.28-1.51l-1.58-1.58c-.73,.73-1.39,1.35-1.85,2.17-.48,.84-.52,1.74-.52,2.65v10.92c0,.91,.05,1.81,.52,2.65,.46,.82,1.12,1.44,1.85,2.17l1.58-1.58Zm-303.65-.57v-7.4c0-1.3-.27-2.4-1.16-3.27-.69-.66-1.67-1.05-2.86-1.05s-2.29,.43-3.09,1.3v-1.16h-2.28v11.58h2.33v-7.06c0-1.78,1.1-2.59,2.4-2.59s2.33,.78,2.33,2.58v7.06h2.33Zm-13.21,0v-7.47c0-2.51-1.44-4.25-4.02-4.25-1.15,0-2.2,.43-3,1.3v-5.85h-2.33v16.27h2.33v-7.11c0-1.74,1.05-2.54,2.35-2.54s2.33,.78,2.33,2.54v7.11h2.33Zm-15.06-5.8c0,1.26-.09,2.47-.8,3.18-.44,.44-1.03,.69-1.72,.69s-1.26-.25-1.69-.69c-.71-.71-.8-1.92-.8-3.18s.09-2.47,.8-3.18c.43-.44,1.01-.66,1.69-.66s1.28,.23,1.72,.66c.71,.71,.8,1.92,.8,3.18m2.33,0c0-1.94-.27-3.41-1.37-4.55-.75-.77-1.9-1.37-3.47-1.37s-2.7,.59-3.45,1.37c-1.09,1.14-1.37,2.61-1.37,4.55s.27,3.43,1.37,4.57c.76,.78,1.87,1.37,3.45,1.37s2.72-.59,3.47-1.37c1.1-1.14,1.37-2.61,1.37-4.57m-12.38,1.17c0-1.4-.44-2.56-1.33-3.34-.69-.62-1.53-.98-3.04-1.21l-1.85-.27c-.76-.12-1.42-.39-1.83-.76-.44-.39-.62-.91-.62-1.51,0-1.44,1.05-2.54,2.97-2.54,1.37,0,2.54,.3,3.54,1.26l1.57-1.55c-1.39-1.3-2.9-1.85-5.05-1.85-3.38,0-5.44,1.94-5.44,4.77,0,1.33,.39,2.35,1.19,3.11,.71,.66,1.76,1.12,3.08,1.3l1.92,.27c.96,.14,1.37,.3,1.78,.69,.44,.39,.64,.98,.64,1.69,0,1.58-1.23,2.49-3.36,2.49-1.67,0-2.97-.37-4.16-1.55l-1.64,1.62c1.55,1.57,3.31,2.14,5.76,2.14,3.41,0,5.85-1.78,5.85-4.77m-19.97,4.64v-7.4c0-1.3-.27-2.4-1.16-3.27-.69-.66-1.67-1.05-2.86-1.05s-2.29,.43-3.09,1.3v-1.16h-2.28v11.58h2.33v-7.06c0-1.78,1.1-2.59,2.4-2.59s2.33,.78,2.33,2.58v7.06h2.33Zm-13.25-16.34h-2.47v2.47h2.47v-2.47Zm-.07,4.75h-2.33v11.58h2.33v-11.58Zm-7.95,4.84h-5.21c.02-.71,.07-1.05,.3-1.58,.37-.87,1.21-1.46,2.31-1.46s1.92,.6,2.29,1.46c.23,.53,.3,.87,.32,1.58m2.31,1.62v-1.02c0-3.29-1.81-5.58-4.91-5.58s-4.91,2.17-4.91,5.92c0,4.41,2.3,5.94,5.21,5.94,2.03,0,3.15-.62,4.34-1.8l-1.49-1.4c-.82,.82-1.51,1.19-2.81,1.19-1.9,0-2.95-1.26-2.95-3.25h7.52Zm-13.41,5.12v-16.27h-2.47l-4.66,10.12-4.75-10.12h-2.47v16.27h2.47v-10.88l3.84,7.93h1.83l3.75-7.93v10.88h2.47Zm-22.35-17.96h-2.24l-6.51,19.65h2.24l6.51-19.65Zm-14.74,7.33c-.8-.8-1.65-1.09-2.76-1.09-1.3,0-2.49,.57-3.09,1.39v-1.26h-2.28v11.58h2.33v-7.04c0-1.6,1.05-2.61,2.31-2.61,.8,0,1.21,.25,1.74,.78l1.76-1.76Zm-13.76,3.89h-5.21c.02-.71,.07-1.05,.3-1.58,.37-.87,1.21-1.46,2.31-1.46s1.92,.6,2.29,1.46c.23,.53,.3,.87,.32,1.58m2.31,1.62v-1.02c0-3.29-1.81-5.58-4.91-5.58s-4.91,2.17-4.91,5.92c0,4.41,2.3,5.94,5.21,5.94,2.03,0,3.15-.62,4.34-1.8l-1.49-1.4c-.82,.82-1.51,1.19-2.81,1.19-1.9,0-2.95-1.26-2.95-3.25h7.52Zm-12.36,5.12v-1.98h-.96c-.87,0-1.28-.5-1.28-1.34v-6.24h2.24v-1.78h-2.24v-3.54h-2.33v3.54h-1.33v1.78h1.33v6.36c0,1.66,1,3.22,3.17,3.22h1.39Zm-8.66,0v-7.47c0-2.51-1.44-4.25-4.02-4.25-1.15,0-2.2,.43-2.99,1.3v-5.85h-2.33v16.27h2.33v-7.11c0-1.74,1.05-2.54,2.35-2.54s2.33,.78,2.33,2.54v7.11h2.33Zm-12.27-1.51l-1.6-1.53c-.73,.8-1.3,1.1-2.22,1.1s-1.65-.37-2.15-1.03c-.5-.64-.69-1.48-.69-2.83s.18-2.17,.69-2.81c.5-.66,1.26-1.03,2.15-1.03s1.49,.3,2.22,1.1l1.6-1.55c-1.1-1.16-2.22-1.62-3.82-1.62-2.61,0-5.16,1.58-5.16,5.92s2.56,5.94,5.16,5.94c1.6,0,2.72-.48,3.82-1.64m-14.1-4.3c0,1.26-.09,2.47-.8,3.18-.44,.44-1.03,.69-1.72,.69s-1.26-.25-1.69-.69c-.71-.71-.8-1.92-.8-3.18s.09-2.47,.8-3.18c.44-.44,1.01-.66,1.69-.66s1.28,.23,1.72,.66c.71,.71,.8,1.92,.8,3.18m2.33,0c0-1.94-.27-3.41-1.37-4.55-.75-.77-1.9-1.37-3.47-1.37s-2.7,.59-3.45,1.37c-1.09,1.14-1.37,2.61-1.37,4.55s.27,3.43,1.37,4.57c.75,.78,1.87,1.37,3.45,1.37s2.72-.59,3.47-1.37c1.09-1.14,1.37-2.61,1.37-4.57m-10.37-8.25v-2.21h-11.42v2.21h4.48v14.05h2.47v-14.05h4.48Zm-21.59,7.32h-5.21c.02-.71,.07-1.05,.3-1.58,.37-.87,1.21-1.46,2.31-1.46s1.92,.6,2.29,1.46c.23,.53,.3,.87,.32,1.58m2.31,1.62v-1.02c0-3.29-1.8-5.58-4.91-5.58s-4.91,2.17-4.91,5.92c0,4.41,2.3,5.94,5.21,5.94,2.04,0,3.15-.62,4.34-1.8l-1.48-1.4c-.82,.82-1.51,1.19-2.81,1.19-1.9,0-2.95-1.26-2.95-3.25h7.52Zm-13.05,5.12v-7.4c0-1.3-.27-2.4-1.16-3.27-.69-.66-1.67-1.05-2.86-1.05s-2.29,.43-3.09,1.3v-1.16h-2.28v11.58h2.33v-7.06c0-1.78,1.1-2.59,2.4-2.59s2.33,.78,2.33,2.58v7.06h2.33Zm-13.25-16.34h-2.47v2.47h2.47v-2.47Zm-.07,4.75h-2.33v11.58h2.33v-11.58Zm-7.95,4.84h-5.21c.02-.71,.07-1.05,.3-1.58,.37-.87,1.21-1.46,2.31-1.46s1.92,.6,2.29,1.46c.23,.53,.3,.87,.32,1.58m2.31,1.62v-1.02c0-3.29-1.8-5.58-4.91-5.58s-4.91,2.17-4.91,5.92c0,4.41,2.31,5.94,5.21,5.94,2.04,0,3.15-.62,4.34-1.8l-1.48-1.4c-.82,.82-1.51,1.19-2.81,1.19-1.9,0-2.95-1.26-2.95-3.25h7.52Zm-13.41,5.12v-16.27h-2.47l-4.66,10.12-4.75-10.12h-2.47v16.27h2.47v-10.88l3.84,7.93h1.83l3.75-7.93v10.88h2.47Zm-23.31-6.21l-5.28-5.23v2.81l2.47,2.42-2.47,2.44v2.81l5.28-5.25Zm5.78,0l-5.28-5.23v2.81l2.45,2.42-2.45,2.44v2.81l5.28-5.25Z"/></g><rect class="i" x="342.98" y="54.65" width="284.11" height="25.98"/><rect class="i" x="437.79" y="134.03" width="165.92" height="25.98"/></svg>