<?xml version="1.0" encoding="UTF-8" standalone="no"?> <svg xmlns="http://www.w3.org/2000/svg" xmlns:xlink="http://www.w3.org/1999/xlink" xmlns:serif="http://www.serif.com/" width="100%" height="100%" viewBox="0 0 308 276" version="1.1" xml:space="preserve" style="fill-rule:evenodd;clip-rule:evenodd;stroke-linecap:round;stroke-linejoin:round;stroke-miterlimit:10;"> <g transform="matrix(0,4.16667,4.16667,0,137.301,259.569)"> <path d="M-3.19,-3.19L3.19,-3.19" style="fill:none;fill-rule:nonzero;stroke:rgb(42,44,104);stroke-width:0.6px;stroke-dasharray:2.13,2.13;"></path> </g> <g transform="matrix(0,4.16667,4.16667,0,184.499,259.569)"> <path d="M-3.19,-3.19L3.19,-3.19" style="fill:none;fill-rule:nonzero;stroke:rgb(42,44,104);stroke-width:0.6px;stroke-dasharray:2.13,2.13;"></path> </g> <g transform="matrix(-3.04533,-2.84378,-2.84378,3.04533,170.475,49.8662)"> <path d="M-7.675,3.027C-4.856,1.72 -1.525,1.673 1.193,3.027" style="fill:none;fill-rule:nonzero;stroke:rgb(42,44,104);stroke-width:0.6px;stroke-dasharray:2.62,2.62;"></path> </g> <g transform="matrix(-2.65584,3.21055,3.21055,2.65584,123.373,90.0067)"> <path d="M-7.244,-3.409C-4.519,-4.721 -1.21,-4.718 1.604,-3.409" style="fill:none;fill-rule:nonzero;stroke:rgb(42,44,104);stroke-width:0.6px;stroke-dasharray:2.61,2.61;"></path> </g> <g transform="matrix(0,4.16667,4.16667,0,166.631,172.329)"> <path d="M-14.365,-14.365L14.365,-14.365" style="fill:none;fill-rule:nonzero;stroke:rgb(42,44,104);stroke-width:0.6px;stroke-dasharray:2.5,2.5;"></path> </g> <g transform="matrix(4.16667,0,0,4.16667,122.038,242.59)"> <path d="M0,0L13.428,0" style="fill:none;fill-rule:nonzero;stroke:rgb(42,44,104);stroke-width:0.6px;stroke-dasharray:2.44,2.44;"></path> </g> <g transform="matrix(0.00783179,-4.16666,-4.16666,-0.00783179,248.156,167.349)"> <path d="M-14.338,14.365L14.392,14.365" style="fill:none;fill-rule:nonzero;stroke:rgb(42,44,104);stroke-width:0.6px;stroke-dasharray:2.5,2.5;"></path> </g> <g transform="matrix(4.16667,0,0,4.16667,152.91,242.205)"> <path d="M0,-45.044C-0.428,-45.105 -0.864,-45.136 -1.305,-45.133C-1.746,-45.13 -2.18,-45.095 -2.606,-45.031M-10.987,-36.184C-11.043,-35.755 -11.071,-35.321 -11.071,-34.882L-11.071,-33.633M-11.071,-1.157L-11.071,0.092L-9.851,0.092M7.24,0.092L8.461,0.092L8.463,-1.157M8.524,-33.633L8.527,-34.882C8.524,-35.322 8.493,-35.757 8.435,-36.187" style="fill:none;fill-rule:nonzero;stroke:rgb(42,44,104);stroke-width:0.6px;"></path> </g> <g transform="matrix(0,4.16667,4.16667,0,31.7725,259.569)"> <path d="M-3.19,-3.19L3.19,-3.19" style="fill:none;fill-rule:nonzero;stroke:rgb(42,44,104);stroke-width:0.6px;stroke-dasharray:2.13,2.13;"></path> </g> <g transform="matrix(0,4.16667,4.16667,0,78.9696,259.569)"> <path d="M-3.19,-3.19L3.19,-3.19" style="fill:none;fill-rule:nonzero;stroke:rgb(42,44,104);stroke-width:0.6px;stroke-dasharray:2.13,2.13;"></path> </g> <g transform="matrix(-3.04533,-2.84378,-2.84378,3.04533,64.946,49.8662)"> <path d="M-7.675,3.027C-4.856,1.72 -1.525,1.673 1.193,3.027" style="fill:none;fill-rule:nonzero;stroke:rgb(42,44,104);stroke-width:0.6px;stroke-dasharray:2.62,2.62;"></path> </g> <g transform="matrix(-2.65584,3.21055,3.21055,2.65584,17.8441,90.0067)"> <path d="M-7.244,-3.409C-4.519,-4.721 -1.21,-4.718 1.604,-3.409" style="fill:none;fill-rule:nonzero;stroke:rgb(42,44,104);stroke-width:0.6px;stroke-dasharray:2.61,2.61;"></path> </g> <g transform="matrix(0,4.16667,4.16667,0,61.1021,172.329)"> <path d="M-14.365,-14.365L14.365,-14.365" style="fill:none;fill-rule:nonzero;stroke:rgb(42,44,104);stroke-width:0.6px;stroke-dasharray:2.5,2.5;"></path> </g> <g transform="matrix(4.16667,0,0,4.16667,16.5096,242.59)"> <path d="M0,0L13.428,0" style="fill:none;fill-rule:nonzero;stroke:rgb(42,44,104);stroke-width:0.6px;stroke-dasharray:2.44,2.44;"></path> </g> <g transform="matrix(0.00783179,-4.16666,-4.16666,-0.00783179,142.627,167.349)"> <path d="M-14.338,14.365L14.392,14.365" style="fill:none;fill-rule:nonzero;stroke:rgb(42,44,104);stroke-width:0.6px;stroke-dasharray:2.5,2.5;"></path> </g> <g transform="matrix(4.16667,0,0,4.16667,47.3808,242.205)"> <path d="M0,-45.044C-0.428,-45.105 -0.864,-45.136 -1.305,-45.133C-1.746,-45.13 -2.18,-45.095 -2.606,-45.031M-10.987,-36.184C-11.043,-35.755 -11.071,-35.321 -11.071,-34.882L-11.071,-33.633M-11.071,-1.157L-11.071,0.092L-9.851,0.092M7.24,0.092L8.461,0.092L8.463,-1.157M8.524,-33.633L8.527,-34.882C8.524,-35.322 8.493,-35.757 8.435,-36.187" style="fill:none;fill-rule:nonzero;stroke:rgb(42,44,104);stroke-width:0.6px;"></path> </g> <g transform="matrix(-3.22035,2.64394,2.64394,3.22035,54.7331,47.7742)"> <path d="M-2.839,-1.016C-1.802,-0.702 -0.684,-0.698 0.364,-1.016" style="fill:none;fill-rule:nonzero;stroke:rgb(42,44,104);stroke-width:0.6px;stroke-dasharray:2.17,2.17;"></path> </g> <g transform="matrix(-2.64394,-3.22035,-3.22035,2.64394,26.3777,31.6392)"> <path d="M-2.617,1.237C-1.581,1.551 -0.463,1.556 0.585,1.237" style="fill:none;fill-rule:nonzero;stroke:rgb(42,44,104);stroke-width:0.6px;stroke-dasharray:2.17,2.17;"></path> </g> <g transform="matrix(3.22035,-2.64394,-2.64394,-3.22035,26.8281,13.7725)"> <path d="M-0.364,1.016C0.673,1.33 1.79,1.334 2.839,1.016" style="fill:none;fill-rule:nonzero;stroke:rgb(42,44,104);stroke-width:0.6px;stroke-dasharray:2.17,2.17;"></path> </g> <g transform="matrix(2.64394,3.22035,3.22035,-2.64394,60.3794,3.73416)"> <path d="M-0.585,-1.237C0.451,-0.924 1.568,-0.92 2.617,-1.238" style="fill:none;fill-rule:nonzero;stroke:rgb(42,44,104);stroke-width:0.6px;stroke-dasharray:2.17,2.17;"></path> </g> <g transform="matrix(4.16667,0,0,4.16667,46.5638,1.68875)"> <path d="M0,10.82C-0.348,10.889 -0.708,10.925 -1.076,10.925C-1.444,10.925 -1.804,10.889 -2.152,10.82M-6.486,6.486C-6.555,6.138 -6.591,5.778 -6.591,5.41C-6.591,5.042 -6.555,4.682 -6.486,4.334M-2.152,0C-1.804,-0.069 -1.444,-0.105 -1.076,-0.105C-0.708,-0.105 -0.348,-0.069 0,0M4.334,4.334C4.403,4.682 4.439,5.042 4.439,5.41C4.439,5.778 4.403,6.138 4.334,6.486" style="fill:none;fill-rule:nonzero;stroke:rgb(42,44,104);stroke-width:0.6px;"></path> </g> <g transform="matrix(0,-4.16667,-4.16667,0,177.044,37.2729)"> <path d="M-1.549,1.549L1.549,1.549" style="fill:none;fill-rule:nonzero;stroke:rgb(42,44,104);stroke-width:0.6px;stroke-dasharray:2.07,2.07;"></path> </g> <g transform="matrix(-3.37987,-2.43671,-2.43671,3.37987,159.235,0.39364)"> <path d="M-2.776,0.896C-1.81,0.608 -0.742,0.603 0.289,0.897" style="fill:none;fill-rule:nonzero;stroke:rgb(42,44,104);stroke-width:0.6px;stroke-dasharray:2.07,2.07;"></path> </g> <g transform="matrix(-2.84668,3.04262,3.04262,2.84668,131.305,15.5664)"> <path d="M-2.577,-1.118C-1.558,-1.423 -0.489,-1.427 0.485,-1.118" style="fill:none;fill-rule:nonzero;stroke:rgb(42,44,104);stroke-width:0.6px;stroke-dasharray:2.07,2.07;"></path> </g> <g transform="matrix(0,4.16667,4.16667,0,130.958,41.1937)"> <path d="M-1.519,-1.519L1.519,-1.519" style="fill:none;fill-rule:nonzero;stroke:rgb(42,44,104);stroke-width:0.6px;stroke-dasharray:2.03,2.03;"></path> </g> <g transform="matrix(4.16667,0,0,4.16667,170.588,1.25)"> <path d="M0,13.294L0,12.261M0,6.063L0,5.03C0,4.678 -0.04,4.334 -0.115,4.003M-4.484,0.088C-4.818,0.03 -5.163,0 -5.515,0C-5.867,0 -6.212,0.03 -6.546,0.088M-10.915,4.003C-10.99,4.334 -11.03,4.678 -11.03,5.03L-11.03,6.042M-11.03,12.118L-11.03,13.13" style="fill:none;fill-rule:nonzero;stroke:rgb(42,44,104);stroke-width:0.6px;"></path> </g> <g transform="matrix(-4.16667,0,0,4.16667,1014.73,-912.303)"> <rect x="170.062" y="267.516" width="16.798" height="9.397" style="fill:rgb(223,128,27);stroke:rgb(223,128,27);stroke-width:0.25px;stroke-linecap:butt;"></rect> </g> <g transform="matrix(4.16667,0,0,4.16667,286.519,57.7658)"> <path d="M0,2.922C-0.478,1.231 -1.94,0 -3.669,0C-5.398,0 -6.859,1.231 -7.338,2.922L0,2.922Z" style="fill:rgb(223,128,27);fill-rule:nonzero;stroke:rgb(223,128,27);stroke-width:0.25px;stroke-linecap:butt;"></path> </g> <g transform="matrix(4.16667,0,0,4.16667,231.22,202.044)"> <path d="M0,0L18.201,0" style="fill:none;fill-rule:nonzero;stroke:rgb(42,44,104);stroke-width:0.4px;stroke-linecap:butt;"></path> </g> <g transform="matrix(0,-4.16667,-4.16667,0,269.08,56.5842)"> <ellipse cx="-4.531" cy="0" rx="4.581" ry="4.531" style="fill:none;stroke:rgb(42,44,104);stroke-width:0.6px;stroke-linecap:butt;"></ellipse> </g> <g transform="matrix(4.16667,0,0,4.16667,250.52,69.2587)"> <path d="M0,0L8.909,0" style="fill:none;fill-rule:nonzero;stroke:rgb(42,44,104);stroke-width:0.4px;stroke-linecap:butt;"></path> </g> <g transform="matrix(0,-4.16667,-4.16667,0,262.513,76.39)"> <path d="M-0.233,-0.233C-0.363,-0.233 -0.468,-0.129 -0.468,-0.001C-0.468,0.128 -0.363,0.233 -0.233,0.233C-0.103,0.233 0.003,0.128 0.003,-0.001C0.003,-0.129 -0.103,-0.233 -0.233,-0.233" style="fill:rgb(42,44,104);fill-rule:nonzero;"></path> </g> <g transform="matrix(0,-4.16667,-4.16667,0,275.647,76.39)"> <path d="M-0.233,-0.233C-0.363,-0.233 -0.468,-0.129 -0.468,-0.001C-0.468,0.128 -0.363,0.233 -0.233,0.233C-0.103,0.233 0.003,0.128 0.003,-0.001C0.003,-0.129 -0.103,-0.233 -0.233,-0.233" style="fill:rgb(42,44,104);fill-rule:nonzero;"></path> </g> <g transform="matrix(0,4.16667,4.16667,0,264.565,258.185)"> <path d="M-3.736,-3.736L3.736,-3.736" style="fill:none;fill-rule:nonzero;stroke:rgb(42,44,104);stroke-width:0.6px;"></path> </g> <g transform="matrix(0,4.16667,4.16667,0,304.385,258.185)"> <path d="M-3.736,-3.736L3.736,-3.736" style="fill:none;fill-rule:nonzero;stroke:rgb(42,44,104);stroke-width:0.6px;"></path> </g> <g transform="matrix(0,4.16667,4.16667,0,268.839,156.984)"> <path d="M-4.468,-4.468L4.468,-4.468" style="fill:none;fill-rule:nonzero;stroke:rgb(42,44,104);stroke-width:0.6px;"></path> </g> <g transform="matrix(4.16667,0,0,4.16667,306.5,200.468)"> <path d="M0,-12.757C0,-18.019 -4.073,-22.698 -9.022,-22.698C-13.972,-22.698 -17.984,-18.019 -17.984,-12.757L-17.984,9.941L-0.061,9.941L0,-12.757Z" style="fill:none;fill-rule:nonzero;stroke:rgb(42,44,104);stroke-width:0.6px;stroke-linecap:butt;"></path> </g> <g transform="matrix(0,4.16667,4.16667,0,283.765,225.433)"> <path d="M-3.907,-3.907L3.907,-3.907" style="fill:none;fill-rule:nonzero;stroke:rgb(42,44,104);stroke-width:0.4px;"></path> </g> <g transform="matrix(0.00856945,4.16666,4.16666,-0.00856945,307.35,156.526)"> <path d="M-4.367,-4.376L4.385,-4.376" style="fill:none;fill-rule:nonzero;stroke:rgb(42,44,104);stroke-width:0.6px;"></path> </g> </svg> 