<?xml version="1.0" encoding="UTF-8" standalone="no"?> <svg xmlns="http://www.w3.org/2000/svg" xmlns:xlink="http://www.w3.org/1999/xlink" xmlns:serif="http://www.serif.com/" width="100%" height="100%" viewBox="0 0 741 819" version="1.1" xml:space="preserve" style="fill-rule:evenodd;clip-rule:evenodd;stroke-linejoin:round;stroke-miterlimit:10;"> <g transform="matrix(4.16667,0,0,4.16667,-1268.44,-2405.82)"> <rect x="306.014" y="594.555" width="23.96" height="9.456" style="fill:rgb(223,128,27);"></rect> </g> <g transform="matrix(4.16667,0,0,4.16667,-1268.44,-2107.48)"> <rect x="306.014" y="558.813" width="23.96" height="9.337" style="fill:rgb(223,128,27);"></rect> </g> <g transform="matrix(4.16667,0,0,4.16667,-1268.44,-1811.37)"> <rect x="306.014" y="523.176" width="23.96" height="9.544" style="fill:rgb(223,128,27);"></rect> </g> <g transform="matrix(4.16667,0,0,4.16667,-1268.44,-1216.05)"> <rect x="306.014" y="451.715" width="23.96" height="9.59" style="fill:rgb(223,128,27);"></rect> </g> <g transform="matrix(4.16667,0,0,4.16667,-1268.44,-1513)"> <rect x="306.014" y="487.434" width="23.96" height="9.419" style="fill:rgb(223,128,27);"></rect> </g> <g transform="matrix(4.16667,0,0,4.16667,-1268.44,-2405.82)"> <rect x="331.264" y="594.555" width="23.96" height="9.456" style="fill:rgb(223,128,27);"></rect> </g> <g transform="matrix(4.16667,0,0,4.16667,-1268.44,-2107.48)"> <rect x="331.264" y="558.813" width="23.96" height="9.337" style="fill:rgb(223,128,27);"></rect> </g> <g transform="matrix(4.16667,0,0,4.16667,-1268.44,-1811.37)"> <rect x="331.264" y="523.176" width="23.96" height="9.544" style="fill:rgb(223,128,27);"></rect> </g> <g transform="matrix(4.16667,0,0,4.16667,-1268.44,-1216.05)"> <rect x="331.264" y="451.715" width="23.96" height="9.59" style="fill:rgb(223,128,27);"></rect> </g> <g transform="matrix(4.16667,0,0,4.16667,-1268.44,-1513)"> <rect x="331.264" y="487.434" width="23.96" height="9.419" style="fill:rgb(223,128,27);"></rect> </g> <g transform="matrix(4.16667,0,0,4.16667,-1268.44,-2405.82)"> <rect x="356.514" y="594.555" width="23.96" height="9.456" style="fill:rgb(223,128,27);"></rect> </g> <g transform="matrix(4.16667,0,0,4.16667,-1268.44,-2107.48)"> <rect x="356.514" y="558.813" width="23.96" height="9.337" style="fill:rgb(223,128,27);"></rect> </g> <g transform="matrix(4.16667,0,0,4.16667,-1268.44,-1811.37)"> <rect x="356.514" y="523.176" width="23.96" height="9.544" style="fill:rgb(223,128,27);"></rect> </g> <g transform="matrix(4.16667,0,0,4.16667,-1268.44,-1216.05)"> <rect x="356.514" y="451.715" width="23.96" height="9.59" style="fill:rgb(223,128,27);"></rect> </g> <g transform="matrix(4.16667,0,0,4.16667,-1268.44,-1513)"> <rect x="356.514" y="487.434" width="23.96" height="9.419" style="fill:rgb(223,128,27);"></rect> </g> <g transform="matrix(4.16667,0,0,4.16667,-1268.44,-2405.82)"> <rect x="381.764" y="594.555" width="23.96" height="9.456" style="fill:rgb(223,128,27);"></rect> </g> <g transform="matrix(4.16667,0,0,4.16667,-1268.44,-2107.48)"> <rect x="381.764" y="558.813" width="23.96" height="9.337" style="fill:rgb(223,128,27);"></rect> </g> <g transform="matrix(4.16667,0,0,4.16667,-1268.44,-1811.37)"> <rect x="381.764" y="523.176" width="23.96" height="9.544" style="fill:rgb(223,128,27);"></rect> </g> <g transform="matrix(4.16667,0,0,4.16667,-1268.44,-1216.05)"> <rect x="381.764" y="451.715" width="23.96" height="9.59" style="fill:rgb(223,128,27);"></rect> </g> <g transform="matrix(4.16667,0,0,4.16667,-1268.44,-1513)"> <rect x="381.764" y="487.434" width="23.96" height="9.419" style="fill:rgb(223,128,27);"></rect> </g> <g transform="matrix(4.16667,0,0,4.16667,-1268.44,-2405.82)"> <rect x="407.172" y="594.555" width="23.96" height="9.456" style="fill:rgb(223,128,27);"></rect> </g> <g transform="matrix(4.16667,0,0,4.16667,-1268.44,-2107.48)"> <rect x="407.172" y="558.813" width="23.96" height="9.337" style="fill:rgb(223,128,27);"></rect> </g> <g transform="matrix(4.16667,0,0,4.16667,-1268.44,-1811.37)"> <rect x="407.172" y="523.176" width="23.96" height="9.544" style="fill:rgb(223,128,27);"></rect> </g> <g transform="matrix(4.16667,0,0,4.16667,-1268.44,-1216.05)"> <rect x="407.172" y="451.715" width="23.96" height="9.59" style="fill:rgb(223,128,27);"></rect> </g> <g transform="matrix(4.16667,0,0,4.16667,-1268.44,-1513)"> <rect x="407.172" y="487.434" width="23.96" height="9.419" style="fill:rgb(223,128,27);"></rect> </g> <g transform="matrix(4.16667,0,0,4.16667,-1268.44,-2405.82)"> <rect x="432.264" y="594.555" width="23.96" height="9.456" style="fill:rgb(223,128,27);"></rect> </g> <g transform="matrix(4.16667,0,0,4.16667,-1268.44,-2107.48)"> <rect x="432.264" y="558.813" width="23.96" height="9.337" style="fill:rgb(223,128,27);"></rect> </g> <g transform="matrix(4.16667,0,0,4.16667,-1268.44,-1811.37)"> <rect x="432.264" y="523.176" width="23.96" height="9.544" style="fill:rgb(223,128,27);"></rect> </g> <g transform="matrix(4.16667,0,0,4.16667,-1268.44,-1216.05)"> <rect x="432.264" y="451.715" width="23.96" height="9.59" style="fill:rgb(223,128,27);"></rect> </g> <g transform="matrix(4.16667,0,0,4.16667,-1268.44,-1513)"> <rect x="432.264" y="487.434" width="23.96" height="9.419" style="fill:rgb(223,128,27);"></rect> </g> <g transform="matrix(4.16667,0,0,4.16667,-1268.44,-2405.82)"> <rect x="457.657" y="594.555" width="23.96" height="9.456" style="fill:rgb(223,128,27);"></rect> </g> <g transform="matrix(4.16667,0,0,4.16667,-1268.44,-2107.48)"> <rect x="457.657" y="558.813" width="23.96" height="9.337" style="fill:rgb(223,128,27);"></rect> </g> <g transform="matrix(4.16667,0,0,4.16667,-1268.44,-1811.37)"> <rect x="457.657" y="523.176" width="23.96" height="9.544" style="fill:rgb(223,128,27);"></rect> </g> <g transform="matrix(4.16667,0,0,4.16667,-1268.44,-1216.05)"> <rect x="457.657" y="451.715" width="23.96" height="9.59" style="fill:rgb(223,128,27);"></rect> </g> <g transform="matrix(4.16667,0,0,4.16667,-1268.44,-1513)"> <rect x="457.657" y="487.434" width="23.96" height="9.419" style="fill:rgb(223,128,27);"></rect> </g> <g transform="matrix(4.16667,0,0,4.16667,-1268.44,-919.675)"> <text x="349.11px" y="231.372px" style="font-family:'ArialMT', 'Arial', sans-serif;font-size:7px;fill:rgb(42,40,102);">S<tspan x="353.62px 358.13px 362.64px 366.757px 371.267px 376.939px 381.449px 385.959px " y="231.372px 231.372px 231.372px 231.372px 231.372px 231.372px 231.372px 231.372px ">EPTEMBER</tspan></text> <text x="391.977px" y="231.372px" style="font-family:'ArialMT', 'Arial', sans-serif;font-size:7px;fill:rgb(223,128,27);">/<tspan x="393.763px 396.125px 400.635px 405.145px 409.655px 413.772px 418.282px 423.955px 428.465px 432.975px " y="231.372px 231.372px 231.372px 231.372px 231.372px 231.372px 231.372px 231.372px 231.372px 231.372px "> SEPTEMBER</tspan></text> </g> <g transform="matrix(4.16667,0,0,4.16667,-1268.44,-919.675)"> <text x="412.193px" y="299.496px" style="font-family:'ArialMT', 'Arial', sans-serif;font-size:11.552px;fill:rgb(223,128,27);">0<tspan x="418.35px " y="299.496px ">9</tspan></text> <text x="412.193px" y="335.198px" style="font-family:'ArialMT', 'Arial', sans-serif;font-size:11.552px;fill:rgb(223,128,27);">1<tspan x="418.35px " y="335.198px ">6</tspan></text> <text x="412.193px" y="370.92px" style="font-family:'ArialMT', 'Arial', sans-serif;font-size:11.552px;fill:rgb(223,128,27);">2<tspan x="418.35px " y="370.92px ">3</tspan></text> </g> <g transform="matrix(4.16667,0,0,4.16667,-1268.44,-919.675)"> <text x="437.443px" y="263.9px" style="font-family:'ArialMT', 'Arial', sans-serif;font-size:11.552px;fill:rgb(223,128,27);">0<tspan x="443.6px " y="263.9px ">3</tspan></text> <text x="437.443px" y="299.492px" style="font-family:'ArialMT', 'Arial', sans-serif;font-size:11.552px;fill:rgb(223,128,27);">1<tspan x="443.6px " y="299.492px ">0</tspan></text> <text x="437.443px" y="335.194px" style="font-family:'ArialMT', 'Arial', sans-serif;font-size:11.552px;fill:rgb(223,128,27);">1<tspan x="443.6px " y="335.194px ">7</tspan></text> <text x="437.443px" y="370.916px" style="font-family:'ArialMT', 'Arial', sans-serif;font-size:11.552px;fill:rgb(223,128,27);">2<tspan x="443.6px " y="370.916px ">4</tspan></text> </g> <g transform="matrix(4.16667,0,0,4.16667,-1268.44,-919.675)"> <text x="462.577px" y="263.9px" style="font-family:'ArialMT', 'Arial', sans-serif;font-size:11.552px;fill:rgb(223,128,27);">0<tspan x="468.735px " y="263.9px ">4</tspan></text> <text x="462.577px" y="299.492px" style="font-family:'ArialMT', 'Arial', sans-serif;font-size:11.552px;fill:rgb(223,128,27);">1<tspan x="468.735px " y="299.492px ">1</tspan></text> <text x="462.577px" y="335.194px" style="font-family:'ArialMT', 'Arial', sans-serif;font-size:11.552px;fill:rgb(223,128,27);">1<tspan x="468.735px " y="335.194px ">8</tspan></text> <text x="462.577px" y="370.916px" style="font-family:'ArialMT', 'Arial', sans-serif;font-size:11.552px;fill:rgb(223,128,27);">2<tspan x="468.735px " y="370.916px ">5</tspan></text> <text x="462.577px" y="406.618px" style="font-family:'ArialMT', 'Arial', sans-serif;font-size:11.552px;fill:rgb(248,219,190);">0<tspan x="468.735px " y="406.618px ">2</tspan></text> </g> <g transform="matrix(4.16667,0,0,4.16667,-1268.44,-919.675)"> <text x="387.15px" y="299.496px" style="font-family:'ArialMT', 'Arial', sans-serif;font-size:11.552px;fill:rgb(223,128,27);">0<tspan x="393.307px " y="299.496px ">8</tspan></text> <text x="387.15px" y="335.198px" style="font-family:'ArialMT', 'Arial', sans-serif;font-size:11.552px;fill:rgb(223,128,27);">1<tspan x="393.307px " y="335.198px ">5</tspan></text> <text x="387.15px" y="370.92px" style="font-family:'ArialMT', 'Arial', sans-serif;font-size:11.552px;fill:rgb(223,128,27);">2<tspan x="393.307px " y="370.92px ">2</tspan></text> <text x="387.15px" y="406.622px" style="font-family:'ArialMT', 'Arial', sans-serif;font-size:11.552px;fill:rgb(223,128,27);">2<tspan x="393.307px " y="406.622px ">9</tspan></text> </g> <g transform="matrix(4.16667,0,0,4.16667,-1268.44,-919.675)"> <text x="361.692px" y="263.9px" style="font-family:'ArialMT', 'Arial', sans-serif;font-size:11.552px;fill:rgb(248,219,190);">3<tspan x="367.85px " y="263.9px ">1</tspan></text> <text x="361.692px" y="299.492px" style="font-family:'ArialMT', 'Arial', sans-serif;font-size:11.552px;fill:rgb(223,128,27);">0<tspan x="367.85px " y="299.492px ">7</tspan></text> <text x="361.692px" y="335.194px" style="font-family:'ArialMT', 'Arial', sans-serif;font-size:11.552px;fill:rgb(223,128,27);">1<tspan x="367.85px " y="335.194px ">4</tspan></text> <text x="361.692px" y="370.916px" style="font-family:'ArialMT', 'Arial', sans-serif;font-size:11.552px;fill:rgb(223,128,27);">2<tspan x="367.85px " y="370.916px ">1</tspan></text> <text x="361.692px" y="406.618px" style="font-family:'ArialMT', 'Arial', sans-serif;font-size:11.552px;fill:rgb(223,128,27);">2<tspan x="367.85px " y="406.618px ">8</tspan></text> </g> <g transform="matrix(4.16667,0,0,4.16667,-1268.44,-919.675)"> <text x="336.442px" y="263.9px" style="font-family:'ArialMT', 'Arial', sans-serif;font-size:11.552px;fill:rgb(248,219,190);">3<tspan x="342.6px " y="263.9px ">0</tspan></text> <text x="336.442px" y="299.492px" style="font-family:'ArialMT', 'Arial', sans-serif;font-size:11.552px;fill:rgb(223,128,27);">0<tspan x="342.6px " y="299.492px ">6</tspan></text> <text x="336.442px" y="335.194px" style="font-family:'ArialMT', 'Arial', sans-serif;font-size:11.552px;fill:rgb(223,128,27);">1<tspan x="342.6px " y="335.194px ">3</tspan></text> <text x="336.442px" y="370.916px" style="font-family:'ArialMT', 'Arial', sans-serif;font-size:11.552px;fill:rgb(223,128,27);">2<tspan x="342.6px " y="370.916px ">0</tspan></text> <text x="336.442px" y="406.618px" style="font-family:'ArialMT', 'Arial', sans-serif;font-size:11.552px;fill:rgb(223,128,27);">2<tspan x="342.6px " y="406.618px ">7</tspan></text> </g> <g transform="matrix(4.16667,0,0,4.16667,-1268.44,-919.675)"> <text x="311.192px" y="263.9px" style="font-family:'ArialMT', 'Arial', sans-serif;font-size:11.552px;fill:rgb(248,219,190);">2<tspan x="317.35px " y="263.9px ">9</tspan></text> <text x="311.192px" y="299.492px" style="font-family:'ArialMT', 'Arial', sans-serif;font-size:11.552px;fill:rgb(223,128,27);">0<tspan x="317.35px " y="299.492px ">5</tspan></text> <text x="311.192px" y="335.194px" style="font-family:'ArialMT', 'Arial', sans-serif;font-size:11.552px;fill:rgb(223,128,27);">1<tspan x="317.35px " y="335.194px ">2</tspan></text> <text x="311.192px" y="370.916px" style="font-family:'ArialMT', 'Arial', sans-serif;font-size:11.552px;fill:rgb(223,128,27);">1<tspan x="317.35px " y="370.916px ">9</tspan></text> <text x="311.192px" y="406.618px" style="font-family:'ArialMT', 'Arial', sans-serif;font-size:11.552px;fill:rgb(223,128,27);">2<tspan x="317.35px " y="406.618px ">6</tspan></text> </g> <g transform="matrix(4.16667,0,0,4.16667,-1268.44,-1769.77)"> <rect x="304.857" y="425.046" width="176.899" height="195.822" style="fill:none;stroke:rgb(42,44,104);stroke-width:0.6px;"></rect> </g> <g transform="matrix(4.16667,0,0,4.16667,1.25,71.3788)"> <path d="M0,0L177.165,0" style="fill:none;fill-rule:nonzero;stroke:rgb(42,44,104);stroke-width:0.6px;"></path> </g> <g transform="matrix(4.16667,0,0,4.16667,1.25,111.467)"> <path d="M0,0L177.165,0" style="fill:none;fill-rule:nonzero;stroke:rgb(42,44,104);stroke-width:0.4px;"></path> </g> <g transform="matrix(4.16667,0,0,4.16667,1.25,259.861)"> <path d="M0,0L177.165,0" style="fill:none;fill-rule:nonzero;stroke:rgb(42,44,104);stroke-width:0.4px;"></path> </g> <g transform="matrix(4.16667,0,0,4.16667,1.25,407.644)"> <path d="M0,0L177.165,0" style="fill:none;fill-rule:nonzero;stroke:rgb(42,44,104);stroke-width:0.4px;"></path> </g> <g transform="matrix(4.16667,0,0,4.16667,1.25,556.464)"> <path d="M0,0L177.165,0" style="fill:none;fill-rule:nonzero;stroke:rgb(42,44,104);stroke-width:0.4px;"></path> </g> <g transform="matrix(4.16667,0,0,4.16667,1.25,705.282)"> <path d="M0,0L177.165,0" style="fill:none;fill-rule:nonzero;stroke:rgb(42,44,104);stroke-width:0.4px;"></path> </g> <g transform="matrix(4.16667,0,0,4.16667,1.25,220.717)"> <path d="M0,0L177.165,0" style="fill:none;fill-rule:nonzero;stroke:rgb(42,44,104);stroke-width:0.6px;"></path> </g> <g transform="matrix(4.16667,0,0,4.16667,1.25,369.084)"> <path d="M0,0L177.165,0" style="fill:none;fill-rule:nonzero;stroke:rgb(42,44,104);stroke-width:0.6px;"></path> </g> <g transform="matrix(4.16667,0,0,4.16667,1.25,519.446)"> <path d="M0,0L177.165,0" style="fill:none;fill-rule:nonzero;stroke:rgb(42,44,104);stroke-width:0.6px;"></path> </g> <g transform="matrix(4.16667,0,0,4.16667,1.25,666.722)"> <path d="M0,0L177.165,0" style="fill:none;fill-rule:nonzero;stroke:rgb(42,44,104);stroke-width:0.6px;"></path> </g> <g transform="matrix(0,4.16667,4.16667,0,477.825,444.016)"> <path d="M-89.433,-89.433L89.433,-89.433" style="fill:none;fill-rule:nonzero;stroke:rgb(42,44,104);stroke-width:0.6px;"></path> </g> <g transform="matrix(0,4.16667,4.16667,0,583.012,444.016)"> <path d="M-89.433,-89.433L89.433,-89.433" style="fill:none;fill-rule:nonzero;stroke:rgb(42,44,104);stroke-width:0.6px;"></path> </g> <g transform="matrix(0,4.16667,4.16667,0,688.13,444.016)"> <path d="M-89.433,-89.433L89.433,-89.433" style="fill:none;fill-rule:nonzero;stroke:rgb(42,44,104);stroke-width:0.6px;"></path> </g> <g transform="matrix(0,4.16667,4.16667,0,793.248,444.016)"> <path d="M-89.433,-89.433L89.433,-89.433" style="fill:none;fill-rule:nonzero;stroke:rgb(42,44,104);stroke-width:0.6px;"></path> </g> <g transform="matrix(0,4.16667,4.16667,0,899.547,444.016)"> <path d="M-89.433,-89.433L89.433,-89.433" style="fill:none;fill-rule:nonzero;stroke:rgb(42,44,104);stroke-width:0.6px;"></path> </g> <g transform="matrix(0,4.16667,4.16667,0,1004.66,444.016)"> <path d="M-89.433,-89.433L89.433,-89.433" style="fill:none;fill-rule:nonzero;stroke:rgb(42,44,104);stroke-width:0.6px;"></path> </g> <g transform="matrix(4.16667,0,0,4.16667,-1268.44,-919.675)"> <text x="411.786px" y="406.616px" style="font-family:'ArialMT', 'Arial', sans-serif;font-size:11.552px;fill:rgb(223,128,27);">3<tspan x="417.943px " y="406.616px ">0</tspan></text> <text x="437.036px" y="406.616px" style="font-family:'ArialMT', 'Arial', sans-serif;font-size:11.552px;fill:rgb(248,219,190);">0<tspan x="443.193px " y="406.616px ">1</tspan></text> </g> <g transform="matrix(4.16667,0,0,4.16667,-1268.44,-919.675)"> <text x="384.779px" y="267.067px" style="font-family:'ArialMT', 'Arial', sans-serif;font-size:16px;fill:rgb(42,44,104);">0<tspan x="393.307px " y="267.067px ">1</tspan></text> <text x="411.902px" y="264.875px" style="font-family:'ArialMT', 'Arial', sans-serif;font-size:11.552px;fill:rgb(223,128,27);">0<tspan x="418.059px " y="264.875px ">2</tspan></text> </g> </svg> 