<?xml version="1.0" encoding="UTF-8" standalone="no"?> <svg xmlns="http://www.w3.org/2000/svg" xmlns:xlink="http://www.w3.org/1999/xlink" xmlns:serif="http://www.serif.com/" width="100%" height="100%" viewBox="0 0 104 227" version="1.1" xml:space="preserve" style="fill-rule:evenodd;clip-rule:evenodd;stroke-linejoin:round;stroke-miterlimit:10;"> <g transform="matrix(-4.16667,0,0,4.16667,1332.19,-2495.6)"> <rect x="305.845" y="638.943" width="12.759" height="6.929" style="fill:rgb(223,128,27);stroke:rgb(223,128,27);stroke-width:0.25px;"></rect> </g> <g transform="matrix(4.16667,0,0,4.16667,43.7371,56.9667)"> <path d="M0,2.225C-0.37,0.937 -1.499,0 -2.835,0C-4.171,0 -5.3,0.937 -5.67,2.225L0,2.225Z" style="fill:rgb(223,128,27);fill-rule:nonzero;stroke:rgb(223,128,27);stroke-width:0.25px;"></path> </g> <g transform="matrix(4.16667,0,0,4.16667,2.19208,164.838)"> <path d="M0,0L13.844,0" style="fill:none;fill-rule:nonzero;stroke:rgb(42,44,104);stroke-width:0.4px;"></path> </g> <g transform="matrix(0,-4.16667,-4.16667,0,30.2425,56.2071)"> <ellipse cx="-3.469" cy="-0.001" rx="3.508" ry="3.469" style="fill:none;stroke:rgb(42,44,104);stroke-width:0.6px;"></ellipse> </g> <g transform="matrix(4.16667,0,0,4.16667,15.7646,65.7508)"> <path d="M0,0L6.951,0" style="fill:none;fill-rule:nonzero;stroke:rgb(42,44,104);stroke-width:0.4px;"></path> </g> <g transform="matrix(0,-4.16667,-4.16667,0,25.1204,71.3833)"> <path d="M-0.182,-0.182C-0.282,-0.182 -0.365,-0.1 -0.365,-0.001C-0.365,0.1 -0.282,0.182 -0.182,0.182C-0.08,0.182 0.002,0.1 0.002,-0.001C0.002,-0.1 -0.08,-0.182 -0.182,-0.182" style="fill:rgb(42,44,104);fill-rule:nonzero;"></path> </g> <g transform="matrix(0,-4.16667,-4.16667,0,35.3688,71.3833)"> <path d="M-0.182,-0.182C-0.282,-0.182 -0.365,-0.1 -0.365,-0.001C-0.365,0.1 -0.282,0.182 -0.182,0.182C-0.08,0.182 0.002,0.1 0.002,-0.001C0.002,-0.1 -0.08,-0.182 -0.182,-0.182" style="fill:rgb(42,44,104);fill-rule:nonzero;"></path> </g> <g transform="matrix(4.16667,0,0,4.16667,14.8517,148.917)"> <path d="M0,11.347L0,18.283M7.324,11.347L7.324,18.283M0.225,-6.936L0.225,-0.001M7.146,-6.936L7.146,-0.001" style="fill:none;fill-rule:nonzero;stroke:rgb(42,44,104);stroke-width:0.6px;stroke-linecap:round;"></path> </g> <g transform="matrix(4.16667,0,0,4.16667,59.1667,164.612)"> <path d="M0,-9.433C0,-13.324 -3.148,-16.785 -6.973,-16.785C-10.799,-16.785 -13.9,-13.324 -13.9,-9.433L-13.9,7.352L-0.047,7.352L0,-9.433Z" style="fill:none;fill-rule:nonzero;stroke:rgb(42,44,104);stroke-width:0.6px;"></path> </g> <g transform="matrix(0,4.16667,4.16667,0,40.6792,184.051)"> <path d="M-2.689,-2.689L2.689,-2.689" style="fill:none;fill-rule:nonzero;stroke:rgb(42,44,104);stroke-width:0.4px;stroke-linecap:round;"></path> </g> <g transform="matrix(4.16667,0,0,4.16667,102.398,29.1333)"> <path d="M0,0C0,-3.696 -2.926,-6.692 -6.536,-6.692C-10.146,-6.692 -13.073,-3.696 -13.073,0C-13.073,1.127 -12.775,2.172 -12.294,3.104C-12.911,3.312 -13.362,3.877 -13.362,4.564C-13.362,5.426 -12.664,6.124 -11.803,6.124C-11.22,6.124 -10.732,5.791 -10.464,5.318C-9.368,6.168 -8.018,6.692 -6.536,6.692C-2.926,6.692 0,3.696 0,0Z" style="fill:none;fill-rule:nonzero;stroke:rgb(42,44,104);stroke-width:0.6px;"></path> </g> <g transform="matrix(4.16667,0,0,4.16667,-1269.68,-650.075)"> <text x="320.011px" y="165px" style="font-family:'ArialMT', 'Arial', sans-serif;font-size:9.5px;fill:rgb(223,128,27);">?</text> </g> </svg> 