<?xml version="1.0" encoding="UTF-8"?><svg id="a" xmlns="http://www.w3.org/2000/svg" xmlns:xlink="http://www.w3.org/1999/xlink" viewBox="0 0 1000 385.02"><defs><style>.f{fill:none;}.g{fill:#e59c00;}.h{fill:#fff;}.i{fill:#dad6e4;}.j{fill:#2b2961;}.k{clip-path:url(#c);}.l{clip-path:url(#b);}.m{clip-path:url(#e);}.n{clip-path:url(#d);}</style><clipPath id="b"><rect class="f" y="17.61" width="1000" height="349.8"/></clipPath><clipPath id="c"><rect class="f" y="17.61" width="1000" height="349.8"/></clipPath><clipPath id="d"><rect class="f" y="17.61" width="1000" height="349.8"/></clipPath><clipPath id="e"><rect class="f" y="17.61" width="1000" height="349.8"/></clipPath></defs><polygon class="g" points="3.44 18.34 3.44 357.92 969.34 357.92 991.27 222.27 991.27 18.34 3.44 18.34"/><path class="g" d="M969.58,358.21H3.16V18.05H991.56V222.27l-21.97,135.94Zm-965.85-.57H969.09l21.89-135.41V18.63H3.73V357.63Z"/><g class="l"><path class="j" d="M990.61,358.74H.72c-.4,0-.72-.32-.72-.72V18.33c0-.4,.32-.72,.72-.72H990.61c.4,0,.72,.32,.72,.72V358.02c0,.4-.32,.72-.72,.72ZM1.44,357.3H989.89V19.05H1.44V357.3Z"/></g><polygon class="h" points="9.39 27 9.39 366.69 981.9 366.69 999.28 349.32 999.28 27 9.39 27"/><g class="k"><path class="j" d="M981.9,367.41H9.39c-.4,0-.72-.32-.72-.72V27c0-.4,.32-.72,.72-.72H999.28c.4,0,.72,.32,.72,.72V349.32c0,.19-.08,.38-.21,.51l-17.38,17.37c-.14,.14-.32,.21-.51,.21Zm-971.79-1.44H981.6l16.96-16.95V27.72H10.11V365.97Z"/></g><polygon class="h" points="981.73 349.14 981.73 366.7 999.28 349.14 981.73 349.14"/><g class="n"><path class="j" d="M981.73,367.36c-.09,0-.17-.02-.25-.05-.25-.1-.41-.35-.41-.62v-17.56c0-.37,.3-.66,.66-.66h17.56c.27,0,.51,.16,.61,.41,.1,.25,.05,.53-.14,.72l-17.56,17.56c-.13,.13-.3,.19-.47,.19Zm.66-17.56v15.28l15.29-15.28h-15.29Z"/></g><polygon class="g" points="983.5 349.49 983.5 365.29 998.05 349.49 983.5 349.49"/><path class="g" d="M983.21,366.02v-16.82h15.49l-15.49,16.82Zm.58-16.25v14.77l13.6-14.77h-13.6Z"/><g class="m"><path class="j" d="M981.73,367.36c-.09,0-.17-.02-.25-.05-.25-.1-.41-.35-.41-.62v-17.56c0-.37,.3-.66,.66-.66h17.56c.27,0,.51,.16,.61,.41,.1,.25,.05,.53-.14,.72l-17.56,17.56c-.13,.13-.3,.19-.47,.19Zm.66-17.56v15.28l15.29-15.28h-15.29Z"/><path class="g" d="M423.58,291.36v-2.81l-2.47-2.44,2.47-2.42v-2.81l-5.26,5.23,5.26,5.25Zm-5.78,0v-2.81l-2.45-2.44,2.45-2.42v-2.81l-5.26,5.23,5.26,5.25Zm-13.83-1.82h-2.79v2.79h2.79v-2.79Zm-8.34-3.95h-5.21c.05-1.6,.73-3.04,2.61-3.04s2.49,1.46,2.61,3.04m2.28,1.64v-1.05c0-3.41-1.9-5.58-4.89-5.58s-4.91,2.24-4.91,5.87c0,3.93,1.78,5.98,5.26,5.98,1.85,0,2.97-.52,4.27-1.8l-1.46-1.4c-.82,.8-1.55,1.21-2.72,1.21-2.17,0-2.99-1.3-3.04-3.25h7.5Zm-13.14,5.09v-11.58h-2.33v4.62h-4.62v-4.62h-2.33v11.58h2.33v-4.94h4.62v4.94h2.33Zm-15.4-4.18c0,1.69-.73,2.38-2.54,2.38-1.58,0-2.29-.53-2.29-1.65s.71-1.65,2.08-1.65h2.74v.91Zm2.31,4.18v-7.75c0-2.63-1.62-3.98-4.84-3.98-1.1,0-1.92,.14-2.58,.46-.57,.25-.87,.52-1.51,1.21l1.53,1.44c.34-.43,.59-.66,.94-.82,.41-.2,.89-.3,1.56-.3,1.83,0,2.61,.64,2.61,2.15v.85h-3.11c-2.47,0-3.98,1.26-3.98,3.36,0,2.24,1.44,3.5,4.02,3.5,1.37,0,2.13-.2,3.09-1.16v1.05h2.28Zm-20.68-11.58v2.95c0,3.56-.59,5.14-1.33,6.61h-1.23v5h2.22v-2.97h7.52v2.97h2.24v-5h-1.6v-9.55h-7.81Zm2.22,2.03h3.27v7.52h-4.36c.66-1.42,1.1-2.99,1.1-5.67v-1.85Zm-19.42,9.55l4.45-6.01v6.01h2.35v-6.01l4.45,6.01h2.81l-4.69-6.14,4.34-5.44h-2.72l-4.2,5.53v-5.53h-2.35v5.53l-4.18-5.53h-2.72l4.34,5.44-4.71,6.14h2.81Zm-4.89,0v-11.58h-2.33l-4.96,7.86v-7.86h-2.33v11.58h2.33l4.96-7.97v7.97h2.33Zm-15.35-3.43c0,.98-.66,1.62-1.76,1.62h-2.88v-3.22h2.88c1.1,0,1.76,.59,1.76,1.6m-.18-4.89c0,.96-.59,1.49-1.72,1.49h-2.74v-2.93h2.74c1.1,0,1.72,.53,1.72,1.44m2.47,5.05c0-1.33-.64-2.2-1.8-2.72,1.07-.5,1.62-1.33,1.62-2.49,0-1.88-1.37-3.11-3.5-3.11h-5.55v11.58h5.73c2.17,0,3.5-1.25,3.5-3.26m-14.94-2.49c0,1.35-.16,2.38-.71,3.04-.41,.48-1.03,.78-1.8,.78-.73,0-1.33-.25-1.74-.73-.52-.59-.76-1.51-.76-3.04,0-1.37,.14-2.45,.71-3.15,.41-.48,1.01-.78,1.78-.78s1.37,.3,1.78,.76c.59,.66,.73,1.69,.73,3.13m2.3-.09c0-2.22-.39-3.5-1.34-4.5-.87-.89-2.08-1.37-3.47-1.37s-2.58,.48-3.45,1.37c-.98,1.03-1.37,2.29-1.37,4.55s.39,3.54,1.37,4.57c.87,.89,2.06,1.37,3.45,1.37s2.61-.48,3.47-1.37c.98-1.03,1.34-2.29,1.34-4.62m-23.24-10.42v4.8c0,3.86-.57,7.06-1.99,9.26h-1.42v5.87h2.4v-3.66h9.87v3.66h2.42v-5.87h-1.92v-14.05h-9.37Zm2.37,2.21h4.53v11.84h-6.12c1.21-2.29,1.6-5.1,1.6-8.21v-3.63Z"/><path class="g" d="M382.09,263.07h-2.79v2.79h2.79v-2.79Zm-8.43-2.97c0,1.35-.16,2.38-.71,3.04-.41,.48-1.03,.78-1.81,.78-.73,0-1.33-.25-1.74-.73-.53-.59-.76-1.51-.76-3.04,0-1.37,.14-2.45,.71-3.15,.41-.48,1.01-.78,1.78-.78s1.37,.3,1.78,.76c.59,.66,.73,1.69,.73,3.13m2.3-.09c0-2.22-.39-3.5-1.34-4.5-.87-.89-2.08-1.37-3.48-1.37s-2.58,.48-3.45,1.37c-.98,1.03-1.37,2.29-1.37,4.55s.39,3.54,1.37,4.57c.87,.89,2.06,1.37,3.45,1.37s2.61-.48,3.48-1.37c.98-1.03,1.34-2.29,1.34-4.62m-11.22-3.7v-2.03h-7.51v11.58h2.33v-9.55h5.19Zm-13.32,3.8c0,1.35-.16,2.38-.71,3.04-.41,.48-1.03,.78-1.81,.78-.73,0-1.33-.25-1.74-.73-.53-.59-.76-1.51-.76-3.04,0-1.37,.14-2.45,.71-3.15,.41-.48,1.01-.78,1.78-.78s1.37,.3,1.78,.76c.6,.66,.73,1.69,.73,3.13m2.3-.09c0-2.22-.39-3.5-1.35-4.5-.87-.89-2.08-1.37-3.47-1.37s-2.58,.48-3.45,1.37c-.98,1.03-1.37,2.29-1.37,4.55s.39,3.54,1.37,4.57c.87,.89,2.06,1.37,3.45,1.37s2.61-.48,3.47-1.37c.98-1.03,1.35-2.29,1.35-4.62m-13.03,5.85v-11.58h-2.33v4.62h-4.62v-4.62h-2.33v11.58h2.33v-4.94h4.62v4.94h2.33Zm-13.23,0v-11.58h-2.28l-3.45,6.9-3.48-6.9h-2.3v11.58h2.33v-7.42l2.72,5.3h1.46l2.67-5.3v7.42h2.33Zm-27.81,0l2.2-4.32h2.13v4.32h2.33v-11.58h-5.46c-2.24,0-3.75,1.46-3.75,3.54,0,1.67,.94,2.88,2.4,3.29l-2.51,4.75h2.67Zm4.34-6.19h-2.72c-1.21,0-1.9-.66-1.9-1.74s.69-1.78,1.9-1.78h2.72v3.52Zm-11.84,.39c0,2.76-.69,3.86-2.4,3.86s-2.42-1.1-2.42-3.77c0-1.33,.14-2.19,.43-2.81,.37-.76,1.01-1.12,1.97-1.12,1.74,0,2.42,1.08,2.42,3.84h0Zm2.3,.05c0-1.37-.07-2.15-.25-2.97-.45-2.01-1.87-2.99-3.93-2.99-1.4,0-2.06,.39-2.99,1.35v-1.21h-2.28v16.27h2.33v-5.87c.87,.96,1.65,1.32,2.97,1.32,1.19,0,2.19-.36,2.88-1.05,.91-.91,1.28-2.33,1.28-4.84h0Zm-15.58,1.57c0,1.69-.73,2.38-2.54,2.38-1.58,0-2.29-.53-2.29-1.65s.71-1.65,2.08-1.65h2.74v.91Zm2.3,4.18v-7.74c0-2.63-1.62-3.98-4.84-3.98-1.1,0-1.92,.14-2.58,.46-.57,.25-.87,.52-1.51,1.21l1.53,1.44c.34-.43,.59-.66,.94-.82,.41-.21,.89-.3,1.55-.3,1.83,0,2.61,.64,2.61,2.15v.85h-3.11c-2.47,0-3.97,1.26-3.97,3.36,0,2.24,1.44,3.5,4.02,3.5,1.37,0,2.13-.2,3.09-1.16v1.05h2.28Zm-20.68-11.58v2.95c0,3.56-.59,5.14-1.33,6.61h-1.23v5h2.22v-2.97h7.51v2.97h2.24v-5h-1.6v-9.55h-7.81Zm2.22,2.03h3.27v7.52h-4.36c.66-1.42,1.1-2.99,1.1-5.67v-1.85Zm-8.75,3.8c0,1.35-.16,2.38-.71,3.04-.41,.48-1.03,.78-1.8,.78-.73,0-1.33-.25-1.74-.73-.52-.59-.76-1.51-.76-3.04,0-1.37,.14-2.45,.71-3.15,.41-.48,1.01-.78,1.78-.78s1.37,.3,1.78,.76c.59,.66,.73,1.69,.73,3.13m2.3-.09c0-2.22-.39-3.5-1.34-4.5-.87-.89-2.08-1.37-3.47-1.37s-2.58,.48-3.45,1.37c-.98,1.03-1.37,2.29-1.37,4.55s.39,3.54,1.37,4.57c.87,.89,2.06,1.37,3.45,1.37s2.61-.48,3.47-1.37c.98-1.03,1.34-2.29,1.34-4.62m-11.22-3.7v-2.03h-7.51v11.58h2.33v-9.55h5.19Zm-13.73,5.37c0,1.69-.73,2.38-2.54,2.38-1.58,0-2.29-.53-2.29-1.65s.71-1.65,2.08-1.65h2.74v.91Zm2.3,4.18v-7.74c0-2.63-1.62-3.98-4.84-3.98-1.1,0-1.92,.14-2.58,.46-.57,.25-.87,.52-1.51,1.21l1.53,1.44c.34-.43,.59-.66,.94-.82,.41-.21,.89-.3,1.55-.3,1.83,0,2.61,.64,2.61,2.15v.85h-3.11c-2.47,0-3.97,1.26-3.97,3.36,0,2.24,1.44,3.5,4.02,3.5,1.37,0,2.13-.2,3.09-1.16v1.05h2.28Zm-12.48,0v-11.58h-7.93v4.82c0,4.48-1.19,4.71-2.19,4.71h-.37v2.05h1.1c2.26,0,3.7-1.28,3.7-6.19v-3.36h3.36v9.55h2.33Zm-14.9-4.93c0,1.69-1.05,2.72-2.83,2.72h-3.7v-5.44h3.7c1.78,0,2.83,1.05,2.83,2.72m2.47,0c0-2.93-1.99-4.93-5.14-4.93h-3.86v-4.19h8v-2.21h-10.46v16.27h6.33c3.18,0,5.14-2.01,5.14-4.93"/><path class="g" d="M802.03,183.69h-2.79v2.79h2.79v-2.79Zm-6.74,.11v-10.92c0-.91-.07-1.8-.55-2.65-.46-.82-1.1-1.44-1.83-2.17l-1.6,1.6c.55,.55,.91,.87,1.26,1.51,.23,.43,.34,1.05,.34,1.85v10.65c0,.8-.12,1.42-.34,1.85-.34,.64-.71,.96-1.26,1.51l1.6,1.6c.73-.73,1.37-1.35,1.83-2.17,.48-.84,.55-1.74,.55-2.65m-9.57-1.51c0,1.69-.73,2.38-2.54,2.38-1.58,0-2.29-.53-2.29-1.65s.71-1.65,2.08-1.65h2.74v.91Zm2.3,4.18v-7.75c0-2.63-1.62-3.98-4.84-3.98-1.1,0-1.92,.14-2.58,.46-.57,.25-.87,.52-1.51,1.21l1.53,1.44c.34-.43,.59-.66,.94-.82,.41-.2,.89-.3,1.56-.3,1.83,0,2.61,.64,2.61,2.15v.85h-3.11c-2.47,0-3.97,1.26-3.97,3.36,0,2.24,1.44,3.5,4.02,3.5,1.37,0,2.13-.2,3.09-1.16v1.05h2.28Zm-10.63-9.55v-2.03h-9.55v2.03h3.68v9.55h2.33v-9.55h3.54Zm-13.85,5.37c0,1.69-.73,2.38-2.54,2.38-1.58,0-2.29-.53-2.29-1.65s.71-1.65,2.08-1.65h2.74v.91Zm2.3,4.18v-7.75c0-2.63-1.62-3.98-4.84-3.98-1.1,0-1.92,.14-2.58,.46-.57,.25-.87,.52-1.51,1.21l1.53,1.44c.34-.43,.59-.66,.94-.82,.41-.2,.89-.3,1.56-.3,1.83,0,2.61,.64,2.61,2.15v.85h-3.11c-2.47,0-3.97,1.26-3.97,3.36,0,2.24,1.44,3.5,4.02,3.5,1.37,0,2.13-.2,3.09-1.16v1.05h2.28Zm-20.68-11.58v2.95c0,3.56-.59,5.14-1.33,6.61h-1.23v5h2.22v-2.97h7.51v2.97h2.24v-5h-1.6v-9.55h-7.81Zm2.22,2.03h3.27v7.52h-4.36c.66-1.42,1.1-2.99,1.1-5.67v-1.85Zm-6.68,10.12c-.55-.55-.94-.87-1.28-1.51-.23-.43-.34-1.05-.34-1.87v-10.65c0-.82,.12-1.44,.34-1.87,.34-.64,.73-.96,1.28-1.51l-1.58-1.58c-.73,.73-1.39,1.35-1.85,2.17-.48,.85-.53,1.74-.53,2.65v10.92c0,.91,.05,1.81,.53,2.65,.45,.82,1.12,1.44,1.85,2.17l1.58-1.58Zm-15.9-4.75c0,1.69-.73,2.38-2.54,2.38-1.58,0-2.29-.53-2.29-1.65s.71-1.65,2.08-1.65h2.74v.91Zm2.3,4.18v-7.75c0-2.63-1.62-3.98-4.84-3.98-1.1,0-1.92,.14-2.58,.46-.57,.25-.87,.52-1.51,1.21l1.53,1.44c.34-.43,.59-.66,.94-.82,.41-.2,.89-.3,1.55-.3,1.83,0,2.61,.64,2.61,2.15v.85h-3.11c-2.47,0-3.97,1.26-3.97,3.36,0,2.24,1.44,3.5,4.02,3.5,1.37,0,2.13-.2,3.09-1.16v1.05h2.28Zm-12.45,0v-11.58h-2.33v4.62h-4.62v-4.62h-2.33v11.58h2.33v-4.94h4.62v4.94h2.33Zm-20.7-5.76c0,1.35-.16,2.38-.71,3.04-.41,.48-1.03,.78-1.81,.78-.73,0-1.33-.25-1.74-.73-.52-.59-.75-1.51-.75-3.04,0-1.37,.14-2.45,.71-3.15,.41-.48,1.01-.78,1.78-.78s1.37,.3,1.78,.76c.59,.66,.73,1.69,.73,3.13m2.31-.09c0-2.22-.39-3.5-1.35-4.5-.87-.89-2.08-1.37-3.47-1.37s-2.58,.48-3.45,1.37c-.98,1.03-1.37,2.29-1.37,4.55s.39,3.54,1.37,4.57c.87,.89,2.06,1.37,3.45,1.37s2.61-.48,3.47-1.37c.98-1.03,1.35-2.29,1.35-4.62m-14.83,2.42c0,.98-.66,1.62-1.76,1.62h-2.88v-3.22h2.88c1.1,0,1.76,.59,1.76,1.6m-.18-4.89c0,.96-.59,1.49-1.72,1.49h-2.74v-2.93h2.74c1.1,0,1.72,.53,1.72,1.44m2.47,5.05c0-1.33-.64-2.2-1.8-2.72,1.07-.5,1.62-1.33,1.62-2.49,0-1.88-1.37-3.11-3.5-3.11h-5.55v11.58h5.74c2.17,0,3.49-1.25,3.49-3.26m-14.94-2.49c0,1.35-.16,2.38-.71,3.04-.41,.48-1.03,.78-1.81,.78-.73,0-1.33-.25-1.74-.73-.52-.59-.75-1.51-.75-3.04,0-1.37,.14-2.45,.71-3.15,.41-.48,1.01-.78,1.78-.78s1.37,.3,1.78,.76c.59,.66,.73,1.69,.73,3.13m2.31-.09c0-2.22-.39-3.5-1.35-4.5-.87-.89-2.08-1.37-3.47-1.37s-2.58,.48-3.45,1.37c-.98,1.03-1.37,2.29-1.37,4.55s.39,3.54,1.37,4.57c.87,.89,2.06,1.37,3.45,1.37s2.61-.48,3.47-1.37c.98-1.03,1.35-2.29,1.35-4.62m-13.03,5.85v-11.58h-2.33v4.62h-4.62v-4.62h-2.33v11.58h2.33v-4.94h4.62v4.94h2.33Zm-11.61-9.55v-2.03h-9.55v2.03h3.68v9.55h2.33v-9.55h3.54Zm-13.43,3.79c0,1.35-.16,2.38-.71,3.04-.41,.48-1.03,.78-1.8,.78-.73,0-1.33-.25-1.74-.73-.52-.59-.76-1.51-.76-3.04,0-1.37,.14-2.45,.71-3.15,.41-.48,1.01-.78,1.78-.78s1.37,.3,1.78,.76c.59,.66,.73,1.69,.73,3.13m2.3-.09c0-2.22-.39-3.5-1.34-4.5-.87-.89-2.08-1.37-3.47-1.37s-2.58,.48-3.45,1.37c-.98,1.03-1.37,2.29-1.37,4.55s.39,3.54,1.37,4.57c.87,.89,2.06,1.37,3.45,1.37s2.61-.48,3.47-1.37c.98-1.03,1.34-2.29,1.34-4.62m-20.43-.89h-5.21c.05-1.6,.73-3.04,2.61-3.04s2.49,1.46,2.61,3.04m2.28,1.64v-1.05c0-3.41-1.9-5.58-4.89-5.58s-4.91,2.24-4.91,5.87c0,3.93,1.78,5.99,5.26,5.99,1.85,0,2.97-.53,4.27-1.8l-1.46-1.4c-.82,.8-1.55,1.21-2.72,1.21-2.17,0-2.99-1.3-3.04-3.25h7.5Zm-11.93,8.07v-5h-1.65v-9.55h-2.33v9.55h-3.91v-9.55h-2.33v9.55h-3.94v-9.55h-2.33v11.58h14.26v2.97h2.22Zm-20.41-2.97v-11.58h-2.33l-4.96,7.86v-7.86h-2.33v11.58h2.33l4.96-7.97v7.97h2.33Zm-13.57,0v-11.58h-7.93v4.82c0,4.48-1.19,4.71-2.19,4.71h-.37v2.05h1.1c2.26,0,3.7-1.28,3.7-6.19v-3.36h3.36v9.55h2.33Zm-12.91,0v-11.58h-2.33l-4.96,7.86v-7.86h-2.33v11.58h2.33l4.96-7.97v7.97h2.33Zm-13.57,0v-11.58h-2.33v5.33c-.64,.11-1.62,.27-2.58,.27-1.08,0-1.69-.48-1.69-1.72v-3.88h-2.33v4.46c0,2.12,1.37,3.22,3.29,3.22,1.35,0,2.52-.2,3.31-.37v4.27h2.33Zm-10.78-11.58h-2.49l-2.7,8.18-2.76-8.18h-2.49l4.07,11.04-.64,1.83c-.34,.98-.71,1.21-1.67,1.21h-.59v2.1h.94c1.67,0,2.65-.71,3.22-2.28l5.12-13.89Zm-20.59,7.4c0,1.69-.73,2.38-2.54,2.38-1.58,0-2.29-.53-2.29-1.65s.71-1.65,2.08-1.65h2.74v.91Zm2.3,4.18v-7.75c0-2.63-1.62-3.98-4.84-3.98-1.1,0-1.92,.14-2.58,.46-.57,.25-.87,.52-1.51,1.21l1.53,1.44c.34-.43,.59-.66,.94-.82,.41-.2,.89-.3,1.55-.3,1.83,0,2.61,.64,2.61,2.15v.85h-3.11c-2.47,0-3.97,1.26-3.97,3.36,0,2.24,1.44,3.5,4.02,3.5,1.37,0,2.13-.2,3.09-1.16v1.05h2.28Zm-12.45,0v-11.58h-2.33v4.62h-4.62v-4.62h-2.33v11.58h2.33v-4.94h4.62v4.94h2.33Zm-20.61-6.74h-5.21c.05-1.6,.73-3.04,2.61-3.04s2.49,1.46,2.61,3.04m2.28,1.64v-1.05c0-3.41-1.89-5.58-4.89-5.58s-4.91,2.24-4.91,5.87c0,3.93,1.78,5.99,5.25,5.99,1.85,0,2.97-.53,4.27-1.8l-1.46-1.4c-.82,.8-1.55,1.21-2.72,1.21-2.17,0-2.99-1.3-3.04-3.25h7.5Zm-21.36-6.49v2.95c0,3.56-.59,5.14-1.33,6.61h-1.23v5h2.22v-2.97h7.52v2.97h2.24v-5h-1.6v-9.55h-7.81Zm2.22,2.03h3.27v7.52h-4.37c.66-1.42,1.1-2.99,1.1-5.67v-1.85Zm-7.2,9.55v-11.58h-2.33l-4.96,7.86v-7.86h-2.33v11.58h2.33l4.96-7.97v7.97h2.33Zm-1.28-16.29h-1.85c-.09,1.08-.71,1.55-1.67,1.55s-1.58-.48-1.67-1.55h-1.85c.12,2.26,1.67,3.08,3.52,3.08s3.43-.82,3.52-3.08m-14.05,10.53c0,1.35-.16,2.38-.71,3.04-.41,.48-1.03,.78-1.81,.78-.73,0-1.33-.25-1.74-.73-.53-.59-.76-1.51-.76-3.04,0-1.37,.14-2.45,.71-3.15,.41-.48,1.01-.78,1.78-.78s1.37,.3,1.78,.76c.59,.66,.73,1.69,.73,3.13m2.3-.09c0-2.22-.39-3.5-1.35-4.5-.87-.89-2.08-1.37-3.47-1.37s-2.58,.48-3.45,1.37c-.98,1.03-1.37,2.29-1.37,4.55s.39,3.54,1.37,4.57c.87,.89,2.06,1.37,3.45,1.37s2.61-.48,3.47-1.37c.98-1.03,1.35-2.29,1.35-4.62m-21.25-5.73v2.95c0,3.56-.59,5.14-1.33,6.61h-1.23v5h2.22v-2.97h7.51v2.97h2.24v-5h-1.6v-9.55h-7.81Zm2.22,2.03h3.27v7.52h-4.36c.66-1.42,1.1-2.99,1.1-5.67v-1.85Zm-14.6,2.81h-5.21c.05-1.6,.73-3.04,2.61-3.04s2.49,1.46,2.61,3.04m2.28,1.64v-1.05c0-3.41-1.89-5.58-4.89-5.58s-4.91,2.24-4.91,5.87c0,3.93,1.78,5.99,5.25,5.99,1.85,0,2.97-.53,4.27-1.8l-1.46-1.4c-.82,.8-1.55,1.21-2.72,1.21-2.17,0-2.99-1.3-3.04-3.25h7.5Zm-11.93,8.07v-5h-1.65v-9.55h-2.33v9.55h-3.91v-9.55h-2.33v9.55h-3.93v-9.55h-2.33v11.58h14.26v2.97h2.22Zm-24.52-12.52v-2.03h-9.55v2.03h3.68v9.55h2.33v-9.55h3.54Zm-10.65,8.04l-1.58-1.55c-.71,.71-1.19,1.12-2.24,1.12-1.87,0-2.83-1.3-2.83-3.86s.96-3.84,2.83-3.84c1.03,0,1.55,.41,2.24,1.1l1.58-1.53c-.73-.73-1.1-.98-1.71-1.26-.59-.25-1.28-.39-2.08-.39-3.25,0-5.18,2.22-5.18,5.87s1.92,5.99,5.18,5.99c.8,0,1.46-.12,2.08-.39,.62-.27,.98-.52,1.71-1.26m-14.1-4.25c0,1.35-.16,2.38-.71,3.04-.41,.48-1.03,.78-1.81,.78-.73,0-1.33-.25-1.74-.73-.53-.59-.76-1.51-.76-3.04,0-1.37,.14-2.45,.71-3.15,.41-.48,1.01-.78,1.78-.78s1.37,.3,1.78,.76c.59,.66,.73,1.69,.73,3.13m2.3-.09c0-2.22-.39-3.5-1.35-4.5-.87-.89-2.08-1.37-3.47-1.37s-2.58,.48-3.45,1.37c-.98,1.03-1.37,2.29-1.37,4.55s.39,3.54,1.37,4.57c.87,.89,2.05,1.37,3.45,1.37s2.61-.48,3.47-1.37c.98-1.03,1.35-2.29,1.35-4.62m-13.03,5.85v-11.58h-2.33v4.62h-4.62v-4.62h-2.33v11.58h2.33v-4.94h4.62v4.94h2.33Zm-11.61-9.55v-2.03h-9.55v2.03h3.68v9.55h2.33v-9.55h3.54Zm-18.53,9.55l2.2-4.32h2.13v4.32h2.33v-11.58h-5.46c-2.24,0-3.75,1.46-3.75,3.54,0,1.67,.94,2.88,2.4,3.29l-2.51,4.75h2.67Zm4.34-6.19h-2.72c-1.21,0-1.9-.66-1.9-1.74s.69-1.78,1.9-1.78h2.72v3.52Zm-11.84,.43c0,1.35-.16,2.38-.71,3.04-.41,.48-1.03,.78-1.81,.78-.73,0-1.33-.25-1.74-.73-.52-.59-.75-1.51-.75-3.04,0-1.37,.14-2.45,.71-3.15,.41-.48,1.01-.78,1.78-.78s1.37,.3,1.78,.76c.59,.66,.73,1.69,.73,3.13m2.31-.09c0-2.22-.39-3.5-1.35-4.5-.87-.89-2.08-1.37-3.47-1.37s-2.58,.48-3.45,1.37c-.98,1.03-1.37,2.29-1.37,4.55s.39,3.54,1.37,4.57c.87,.89,2.06,1.37,3.45,1.37s2.61-.48,3.47-1.37c.98-1.03,1.35-2.29,1.35-4.62m-14.81,.05c0,2.76-.69,3.86-2.4,3.86s-2.42-1.1-2.42-3.77c0-1.33,.14-2.19,.44-2.81,.37-.76,1.01-1.12,1.97-1.12,1.74,0,2.42,1.08,2.42,3.84h0Zm2.3,.05c0-1.37-.07-2.15-.25-2.97-.46-2.01-1.87-2.99-3.93-2.99-1.39,0-2.06,.39-2.99,1.35v-1.21h-2.28v16.27h2.33v-5.87c.87,.96,1.65,1.33,2.97,1.33,1.19,0,2.19-.37,2.88-1.05,.91-.91,1.28-2.33,1.28-4.84h0Zm-15.08-.98h-5.22c.05-1.6,.73-3.04,2.61-3.04s2.49,1.46,2.61,3.04m2.28,1.64v-1.05c0-3.41-1.89-5.58-4.89-5.58s-4.91,2.24-4.91,5.87c0,3.93,1.78,5.99,5.26,5.99,1.85,0,2.97-.53,4.27-1.8l-1.46-1.4c-.82,.8-1.55,1.21-2.72,1.21-2.17,0-3-1.3-3.04-3.25h7.5Zm-14.94,1.67c0,.98-.66,1.62-1.76,1.62h-2.88v-3.22h2.88c1.1,0,1.76,.59,1.76,1.6m-.18-4.89c0,.96-.6,1.49-1.72,1.49h-2.74v-2.93h2.74c1.1,0,1.72,.53,1.72,1.44m2.46,5.05c0-1.33-.64-2.2-1.8-2.72,1.07-.5,1.62-1.33,1.62-2.49,0-1.88-1.37-3.11-3.49-3.11h-5.55v11.58h5.73c2.17,0,3.49-1.25,3.49-3.26m-21.07-.92c0,1.69-.73,2.38-2.54,2.38-1.58,0-2.29-.53-2.29-1.65s.71-1.65,2.08-1.65h2.74v.91Zm2.3,4.18v-7.75c0-2.63-1.62-3.98-4.84-3.98-1.1,0-1.92,.14-2.58,.46-.57,.25-.87,.52-1.51,1.21l1.53,1.44c.34-.43,.59-.66,.94-.82,.41-.2,.89-.3,1.55-.3,1.83,0,2.61,.64,2.61,2.15v.85h-3.11c-2.47,0-3.97,1.26-3.97,3.36,0,2.24,1.44,3.5,4.02,3.5,1.37,0,2.13-.2,3.09-1.16v1.05h2.28Zm-18.14,0v-6.01l4.69,6.01h2.86l-4.96-6.14,4.62-5.44h-2.79l-4.41,5.53v-5.53h-2.35v11.58h2.35Zm-12.98,0l2.2-4.32h2.13v4.32h2.33v-11.58h-5.46c-2.24,0-3.75,1.46-3.75,3.54,0,1.67,.94,2.88,2.4,3.29l-2.51,4.75h2.67Zm4.34-6.19h-2.72c-1.21,0-1.9-.66-1.9-1.74s.69-1.78,1.9-1.78h2.72v3.52Zm-9.05,4.68l-1.58-1.55c-.71,.71-1.19,1.12-2.24,1.12-1.87,0-2.83-1.3-2.83-3.86s.96-3.84,2.83-3.84c1.03,0,1.55,.41,2.24,1.1l1.58-1.53c-.73-.73-1.1-.98-1.71-1.26-.59-.25-1.28-.39-2.08-.39-3.25,0-5.18,2.22-5.18,5.87s1.92,5.99,5.18,5.99c.8,0,1.46-.12,2.08-.39,.62-.27,.98-.52,1.71-1.26m-14.12-1.92c0,.98-.66,1.62-1.76,1.62h-2.88v-3.22h2.88c1.1,0,1.76,.59,1.76,1.6m-.18-4.89c0,.96-.59,1.49-1.71,1.49h-2.74v-2.93h2.74c1.1,0,1.71,.53,1.71,1.44m2.47,5.05c0-1.33-.64-2.2-1.8-2.72,1.07-.5,1.62-1.33,1.62-2.49,0-1.88-1.37-3.11-3.49-3.11h-5.55v11.58h5.74c2.17,0,3.49-1.25,3.49-3.26m-20.65-2.49c0,1.35-.16,2.38-.71,3.04-.41,.48-1.03,.78-1.81,.78-.73,0-1.33-.25-1.74-.73-.53-.59-.76-1.51-.76-3.04,0-1.37,.14-2.45,.71-3.15,.41-.48,1.01-.78,1.78-.78s1.37,.3,1.78,.76c.59,.66,.73,1.69,.73,3.13m2.3-.09c0-2.22-.39-3.5-1.35-4.5-.87-.89-2.08-1.37-3.47-1.37s-2.58,.48-3.45,1.37c-.98,1.03-1.37,2.29-1.37,4.55s.39,3.54,1.37,4.57c.87,.89,2.05,1.37,3.45,1.37s2.61-.48,3.47-1.37c.98-1.03,1.35-2.29,1.35-4.62m-13.03,5.85v-11.58h-9.28v11.58h2.33v-9.55h4.62v9.55h2.33Zm-18.92,0v-11.58h-2.33l-4.96,7.86v-7.86h-2.33v11.58h2.33l4.96-7.97v7.97h2.33Zm-13.57,0v-11.58h-2.28l-3.45,6.9-3.47-6.9h-2.3v11.58h2.33v-7.42l2.72,5.3h1.46l2.67-5.3v7.42h2.33Zm-22.94-5.76c0,1.35-.16,2.38-.71,3.04-.41,.48-1.03,.78-1.81,.78-.73,0-1.33-.25-1.74-.73-.53-.59-.76-1.51-.76-3.04,0-1.37,.14-2.45,.71-3.15,.41-.48,1.01-.78,1.78-.78s1.37,.3,1.78,.76c.59,.66,.73,1.69,.73,3.13m2.3-.09c0-2.22-.39-3.5-1.35-4.5-.87-.89-2.08-1.37-3.47-1.37s-2.58,.48-3.45,1.37c-.98,1.03-1.37,2.29-1.37,4.55s.39,3.54,1.37,4.57c.87,.89,2.05,1.37,3.45,1.37s2.61-.48,3.47-1.37c.98-1.03,1.35-2.29,1.35-4.62m-11.2-3.7v-2.03h-9.55v2.03h3.68v9.55h2.33v-9.55h3.54Zm-13.57,2.81h-5.21c.05-1.6,.73-3.04,2.61-3.04s2.49,1.46,2.61,3.04m2.28,1.64v-1.05c0-3.41-1.89-5.58-4.89-5.58s-4.91,2.24-4.91,5.87c0,3.93,1.78,5.99,5.25,5.99,1.85,0,2.97-.53,4.27-1.8l-1.46-1.4c-.82,.8-1.55,1.21-2.72,1.21-2.17,0-2.99-1.3-3.04-3.25h7.5Zm-11.31-4.45v-2.03h-9.55v2.03h3.68v9.55h2.33v-9.55h3.54Zm-13.57,2.81h-5.21c.05-1.6,.73-3.04,2.61-3.04s2.49,1.46,2.61,3.04m2.28,1.64v-1.05c0-3.41-1.9-5.58-4.89-5.58s-4.91,2.24-4.91,5.87c0,3.93,1.78,5.99,5.25,5.99,1.85,0,2.97-.53,4.27-1.8l-1.46-1.4c-.82,.8-1.55,1.21-2.72,1.21-2.17,0-2.99-1.3-3.04-3.25h7.5Zm-23.35-11.17v4.8c0,3.86-.57,7.06-1.99,9.26h-1.42v5.87h2.4v-3.66h9.87v3.66h2.42v-5.87h-1.92v-14.05h-9.37Zm2.37,2.21h4.53v11.84h-6.12c1.21-2.29,1.6-5.1,1.6-8.21v-3.63Z"/><path class="g" d="M896.01,104.31h-2.79v2.79h2.79v-2.79Zm-6.65,2.78v-11.58h-2.33v4.62h-4.62v-4.62h-2.33v11.58h2.33v-4.94h4.62v4.94h2.33Zm-14.89-6.74h-5.22c.05-1.6,.73-3.04,2.61-3.04s2.49,1.46,2.61,3.04m2.28,1.64v-1.05c0-3.41-1.89-5.58-4.89-5.58s-4.91,2.24-4.91,5.87c0,3.93,1.78,5.98,5.26,5.98,1.85,0,2.97-.52,4.27-1.8l-1.46-1.4c-.82,.8-1.55,1.21-2.72,1.21-2.17,0-3-1.3-3.04-3.25h7.5Zm-13.16,5.09v-11.58h-7.93v4.82c0,4.48-1.19,4.71-2.19,4.71h-.37v2.05h1.1c2.26,0,3.7-1.28,3.7-6.19v-3.36h3.36v9.55h2.33Zm-14.46-5.76c0,1.35-.16,2.38-.71,3.04-.41,.48-1.03,.78-1.81,.78-.73,0-1.33-.25-1.74-.73-.52-.59-.75-1.51-.75-3.04,0-1.37,.14-2.45,.71-3.15,.41-.48,1.01-.78,1.78-.78s1.37,.3,1.78,.76c.59,.66,.73,1.69,.73,3.13m2.31-.09c0-2.22-.39-3.5-1.35-4.5-.87-.89-2.08-1.37-3.47-1.37s-2.58,.48-3.45,1.37c-.98,1.03-1.37,2.29-1.37,4.55s.39,3.54,1.37,4.57c.87,.89,2.06,1.37,3.45,1.37s2.61-.48,3.47-1.37c.98-1.03,1.35-2.29,1.35-4.62m-17.18,5.98c1.33,0,2.54-.48,3.34-1.3,1.01-1.03,1.42-2.35,1.42-4.66,0-2.06-.48-3.79-1.51-4.75-.68-.64-1.71-.98-2.83-.98-1.39,0-2.67,.59-3.18,1.51,0-1.64,.3-2.67,1.4-3.41,1.33-.91,3.68-.76,5.19-.89v-2.05c-2.93,.09-5.4,.11-6.95,1.46-1.46,1.26-1.73,2.54-1.73,7.56,0,1.94,.14,3.95,.69,5.12,.71,1.55,2.26,2.4,4.18,2.4m-.02-2.1c-.69,0-1.28-.23-1.72-.69-.53-.59-.82-1.48-.82-3.13,0-1.53,.3-2.51,.78-3.06,.43-.5,1.05-.73,1.76-.73,.66,0,1.3,.25,1.74,.73,.5,.57,.71,1.55,.71,3.11s-.25,2.52-.73,3.09c-.44,.48-1.08,.69-1.72,.69m-12.2-16h-2.24l-6.51,19.65h2.24l6.51-19.65Zm-18.74,13.78c0,1.69-.73,2.38-2.54,2.38-1.58,0-2.29-.53-2.29-1.65s.71-1.65,2.08-1.65h2.74v.91Zm2.3,4.18v-7.74c0-2.63-1.62-3.98-4.84-3.98-1.1,0-1.92,.14-2.58,.46-.57,.25-.87,.52-1.51,1.21l1.53,1.44c.34-.43,.59-.66,.94-.82,.41-.21,.89-.3,1.55-.3,1.83,0,2.61,.64,2.61,2.15v.85h-3.11c-2.47,0-3.97,1.26-3.97,3.36,0,2.24,1.44,3.5,4.02,3.5,1.37,0,2.13-.2,3.09-1.16v1.05h2.28Zm-12.45,0v-11.58h-2.33v4.62h-4.62v-4.62h-2.33v11.58h2.33v-4.94h4.62v4.94h2.33Zm-13.23,0v-11.58h-7.93v4.82c0,4.48-1.19,4.71-2.19,4.71h-.37v2.05h1.1c2.26,0,3.7-1.28,3.7-6.19v-3.36h3.36v9.55h2.33Zm-14.46-5.76c0,1.35-.16,2.38-.71,3.04-.41,.48-1.03,.78-1.81,.78-.73,0-1.33-.25-1.74-.73-.53-.59-.76-1.51-.76-3.04,0-1.37,.14-2.45,.71-3.15,.41-.48,1.01-.78,1.78-.78s1.37,.3,1.78,.76c.59,.66,.73,1.69,.73,3.13m2.3-.09c0-2.22-.39-3.5-1.35-4.5-.87-.89-2.08-1.37-3.47-1.37s-2.58,.48-3.45,1.37c-.98,1.03-1.37,2.29-1.37,4.55s.39,3.54,1.37,4.57c.87,.89,2.05,1.37,3.45,1.37s2.61-.48,3.47-1.37c.98-1.03,1.35-2.29,1.35-4.62m-17.18,5.98c1.33,0,2.54-.48,3.34-1.3,1-1.03,1.41-2.35,1.41-4.66,0-2.06-.48-3.79-1.51-4.75-.69-.64-1.71-.98-2.83-.98-1.4,0-2.67,.59-3.18,1.51,0-1.64,.3-2.67,1.4-3.41,1.33-.91,3.68-.76,5.19-.89v-2.05c-2.92,.09-5.39,.11-6.95,1.46-1.46,1.26-1.73,2.54-1.73,7.56,0,1.94,.14,3.95,.69,5.12,.71,1.55,2.26,2.4,4.18,2.4m-.02-2.1c-.69,0-1.28-.23-1.72-.69-.52-.59-.82-1.48-.82-3.13,0-1.53,.3-2.51,.78-3.06,.44-.5,1.05-.73,1.76-.73,.66,0,1.3,.25,1.74,.73,.5,.57,.71,1.55,.71,3.11s-.25,2.52-.73,3.09c-.43,.48-1.08,.69-1.72,.69m-15.81-4.78h-5.21c.05-1.6,.73-3.04,2.61-3.04s2.49,1.46,2.61,3.04m2.28,1.64v-1.05c0-3.41-1.9-5.58-4.89-5.58s-4.91,2.24-4.91,5.87c0,3.93,1.78,5.98,5.25,5.98,1.85,0,2.97-.52,4.27-1.8l-1.46-1.4c-.82,.8-1.55,1.21-2.72,1.21-2.17,0-2.99-1.3-3.04-3.25h7.5Zm-20.54-1.64h-5.21c.05-1.6,.73-3.04,2.61-3.04s2.49,1.46,2.61,3.04m2.28,1.64v-1.05c0-3.41-1.9-5.58-4.89-5.58s-4.91,2.24-4.91,5.87c0,3.93,1.78,5.98,5.26,5.98,1.85,0,2.97-.52,4.27-1.8l-1.46-1.4c-.82,.8-1.55,1.21-2.72,1.21-2.17,0-2.99-1.3-3.04-3.25h7.5Zm-11.93,8.07v-5h-1.65v-9.55h-2.33v9.55h-3.91v-9.55h-2.33v9.55h-3.94v-9.55h-2.33v11.58h14.26v2.97h2.22Zm-22.19-8.73c0,1.35-.16,2.38-.71,3.04-.41,.48-1.03,.78-1.81,.78-.73,0-1.33-.25-1.74-.73-.53-.59-.76-1.51-.76-3.04,0-1.37,.14-2.45,.71-3.15,.41-.48,1.01-.78,1.78-.78s1.37,.3,1.78,.76c.6,.66,.73,1.69,.73,3.13m2.3-.09c0-2.22-.39-3.5-1.35-4.5-.87-.89-2.08-1.37-3.47-1.37s-2.58,.48-3.45,1.37c-.98,1.03-1.37,2.29-1.37,4.55s.39,3.54,1.37,4.57c.87,.89,2.06,1.37,3.45,1.37s2.61-.48,3.47-1.37c.98-1.03,1.35-2.29,1.35-4.62m-18.83,3.18v-10.92c0-.91-.07-1.81-.55-2.65-.45-.82-1.09-1.44-1.83-2.17l-1.6,1.6c.55,.55,.91,.87,1.26,1.51,.23,.44,.34,1.05,.34,1.85v10.65c0,.8-.11,1.42-.34,1.85-.34,.64-.71,.96-1.26,1.51l1.6,1.6c.73-.73,1.37-1.35,1.83-2.17,.48-.84,.55-1.74,.55-2.65m-9.16-3.08c0,1.35-.16,2.38-.71,3.04-.41,.48-1.03,.78-1.81,.78-.73,0-1.33-.25-1.74-.73-.53-.59-.76-1.51-.76-3.04,0-1.37,.14-2.45,.71-3.15,.41-.48,1.01-.78,1.78-.78s1.37,.3,1.78,.76c.59,.66,.73,1.69,.73,3.13m2.3-.09c0-2.22-.39-3.5-1.35-4.5-.87-.89-2.08-1.37-3.47-1.37s-2.58,.48-3.45,1.37c-.98,1.03-1.37,2.29-1.37,4.55s.39,3.54,1.37,4.57c.87,.89,2.06,1.37,3.45,1.37s2.61-.48,3.47-1.37c.98-1.03,1.35-2.29,1.35-4.62m-11.2-3.7v-2.03h-9.55v2.03h3.68v9.55h2.33v-9.55h3.54Zm-13.57,2.81h-5.22c.05-1.6,.73-3.04,2.61-3.04s2.49,1.46,2.61,3.04m2.28,1.64v-1.05c0-3.41-1.89-5.58-4.89-5.58s-4.91,2.24-4.91,5.87c0,3.93,1.78,5.98,5.26,5.98,1.85,0,2.97-.52,4.27-1.8l-1.46-1.4c-.82,.8-1.55,1.21-2.72,1.21-2.17,0-3-1.3-3.04-3.25h7.5Zm-11.31-4.46v-2.03h-9.55v2.03h3.68v9.55h2.33v-9.55h3.54Zm-13.57,2.81h-5.21c.05-1.6,.73-3.04,2.61-3.04s2.49,1.46,2.61,3.04m2.28,1.64v-1.05c0-3.41-1.89-5.58-4.89-5.58s-4.91,2.24-4.91,5.87c0,3.93,1.78,5.98,5.25,5.98,1.85,0,2.97-.52,4.27-1.8l-1.46-1.4c-.82,.8-1.55,1.21-2.72,1.21-2.17,0-2.99-1.3-3.04-3.25h7.5Zm-21.36-6.49v2.95c0,3.56-.59,5.14-1.33,6.61h-1.23v5h2.22v-2.97h7.52v2.97h2.24v-5h-1.6v-9.55h-7.81Zm2.22,2.03h3.27v7.52h-4.37c.66-1.42,1.1-2.99,1.1-5.67v-1.85Zm-15.1,5.37c0,1.69-.73,2.38-2.54,2.38-1.58,0-2.29-.53-2.29-1.65s.71-1.65,2.08-1.65h2.74v.91Zm2.3,4.18v-7.74c0-2.63-1.62-3.98-4.84-3.98-1.1,0-1.92,.14-2.58,.46-.57,.25-.87,.52-1.51,1.21l1.53,1.44c.34-.43,.59-.66,.94-.82,.41-.21,.89-.3,1.55-.3,1.83,0,2.61,.64,2.61,2.15v.85h-3.11c-2.47,0-3.97,1.26-3.97,3.36,0,2.24,1.44,3.5,4.02,3.5,1.37,0,2.13-.2,3.09-1.16v1.05h2.28Zm-12.45,0v-11.58h-2.33v4.62h-4.62v-4.62h-2.33v11.58h2.33v-4.94h4.62v4.94h2.33Zm-20.61-6.74h-5.21c.05-1.6,.73-3.04,2.61-3.04s2.49,1.46,2.61,3.04m2.28,1.64v-1.05c0-3.41-1.89-5.58-4.89-5.58s-4.91,2.24-4.91,5.87c0,3.93,1.78,5.98,5.25,5.98,1.85,0,2.97-.52,4.27-1.8l-1.46-1.4c-.82,.8-1.55,1.21-2.72,1.21-2.17,0-2.99-1.3-3.04-3.25h7.5Zm-13.16,5.09v-11.58h-2.28l-3.45,6.9-3.47-6.9h-2.31v11.58h2.33v-7.42l2.72,5.3h1.46l2.67-5.3v7.42h2.33Zm-15.45,0v-11.58h-2.33l-4.96,7.86v-7.86h-2.33v11.58h2.33l4.96-7.97v7.97h2.33Zm-13.03,.57c-.55-.55-.94-.87-1.28-1.51-.23-.43-.34-1.05-.34-1.87v-10.65c0-.82,.11-1.44,.34-1.87,.34-.64,.73-.96,1.28-1.51l-1.58-1.58c-.73,.73-1.39,1.35-1.85,2.17-.48,.84-.52,1.74-.52,2.65v10.92c0,.91,.05,1.81,.52,2.65,.46,.82,1.12,1.44,1.85,2.17l1.58-1.58Zm-180.96-.57v-11.58h-2.33v4.62h-4.62v-4.62h-2.33v11.58h2.33v-4.94h4.62v4.94h2.33Zm-13.21,0v-11.58h-2.33l-4.96,7.86v-7.86h-2.33v11.58h2.33l4.96-7.97v7.97h2.33Zm-12.54-1.51l-1.58-1.55c-.71,.71-1.19,1.12-2.24,1.12-1.87,0-2.83-1.3-2.83-3.86s.96-3.84,2.83-3.84c1.03,0,1.55,.41,2.24,1.1l1.58-1.53c-.73-.73-1.1-.98-1.72-1.26-.59-.25-1.28-.39-2.08-.39-3.25,0-5.18,2.21-5.18,5.87s1.92,5.98,5.18,5.98c.8,0,1.46-.11,2.08-.39,.62-.27,.98-.52,1.72-1.26m-16.43-8.05v-2.03h-9.55v2.03h3.68v9.55h2.33v-9.55h3.54Zm-18.53,9.55l2.2-4.32h2.13v4.32h2.33v-11.58h-5.46c-2.24,0-3.75,1.46-3.75,3.54,0,1.67,.94,2.88,2.4,3.29l-2.51,4.75h2.67Zm4.34-6.19h-2.72c-1.21,0-1.9-.66-1.9-1.74s.69-1.78,1.9-1.78h2.72v3.52Zm-11.84,.43c0,1.35-.16,2.38-.71,3.04-.41,.48-1.03,.78-1.81,.78-.73,0-1.33-.25-1.74-.73-.53-.59-.76-1.51-.76-3.04,0-1.37,.14-2.45,.71-3.15,.41-.48,1.01-.78,1.78-.78s1.37,.3,1.78,.76c.59,.66,.73,1.69,.73,3.13m2.3-.09c0-2.22-.39-3.5-1.35-4.5-.87-.89-2.08-1.37-3.47-1.37s-2.58,.48-3.45,1.37c-.98,1.03-1.37,2.29-1.37,4.55s.39,3.54,1.37,4.57c.87,.89,2.06,1.37,3.45,1.37s2.61-.48,3.47-1.37c.98-1.03,1.35-2.29,1.35-4.62m-13.28,5.85v-16.27h-2.46l-4.69,10.12-4.76-10.12h-2.44v16.27h2.46v-10.88l3.82,7.93h1.83l3.75-7.93v10.88h2.49Zm-22.35-17.96h-2.24l-6.51,19.65h2.24l6.51-19.65Zm-23.2,17.96l2.2-4.32h2.13v4.32h2.33v-11.58h-5.46c-2.24,0-3.75,1.46-3.75,3.54,0,1.67,.94,2.88,2.4,3.29l-2.51,4.75h2.67Zm4.35-6.19h-2.72c-1.21,0-1.9-.66-1.9-1.74s.69-1.78,1.9-1.78h2.72v3.52Zm-11.84,.39c0,2.76-.69,3.86-2.4,3.86s-2.42-1.1-2.42-3.77c0-1.33,.14-2.19,.44-2.81,.37-.76,1.01-1.12,1.97-1.12,1.74,0,2.42,1.08,2.42,3.84h0Zm2.3,.05c0-1.37-.07-2.15-.25-2.97-.46-2.01-1.87-2.99-3.93-2.99-1.4,0-2.06,.39-2.99,1.35v-1.21h-2.28v16.27h2.33v-5.87c.87,.96,1.65,1.32,2.97,1.32,1.19,0,2.19-.36,2.88-1.05,.91-.91,1.28-2.33,1.28-4.84h0Zm-15.08-.98h-5.21c.05-1.6,.73-3.04,2.61-3.04s2.49,1.46,2.61,3.04m2.28,1.64v-1.05c0-3.41-1.89-5.58-4.89-5.58s-4.91,2.24-4.91,5.87c0,3.93,1.78,5.98,5.25,5.98,1.85,0,2.97-.52,4.27-1.8l-1.46-1.4c-.82,.8-1.55,1.21-2.72,1.21-2.17,0-2.99-1.3-3.04-3.25h7.5Zm-11.93,8.07v-5h-1.65v-9.55h-2.33v9.55h-3.91v-9.55h-2.33v9.55h-3.93v-9.55h-2.33v11.58h14.26v2.97h2.22Zm-21.71-6.58c0,1.08-.66,1.72-1.83,1.72h-2.67v-3.41h2.67c1.17,0,1.83,.64,1.83,1.69m2.31,0c0-2.15-1.51-3.61-3.77-3.61h-3.04v-4.37h-5.28v2.03h2.95v9.55h5.37c2.26,0,3.77-1.46,3.77-3.61m-22.67-7.97v2.95c0,3.56-.59,5.14-1.33,6.61h-1.23v5h2.22v-2.97h7.51v2.97h2.24v-5h-1.6v-9.55h-7.81Zm2.22,2.03h3.27v7.52h-4.36c.66-1.42,1.1-2.99,1.1-5.67v-1.85Zm-15.11,5.37c0,1.69-.73,2.38-2.54,2.38-1.58,0-2.29-.53-2.29-1.65s.71-1.65,2.08-1.65h2.74v.91Zm2.3,4.18v-7.74c0-2.63-1.62-3.98-4.84-3.98-1.1,0-1.92,.14-2.58,.46-.57,.25-.87,.52-1.51,1.21l1.53,1.44c.34-.43,.59-.66,.94-.82,.41-.21,.89-.3,1.56-.3,1.83,0,2.61,.64,2.61,2.15v.85h-3.11c-2.47,0-3.97,1.26-3.97,3.36,0,2.24,1.44,3.5,4.02,3.5,1.37,0,2.13-.2,3.09-1.16v1.05h2.28Zm-10.63-9.55v-2.03h-9.55v2.03h3.68v9.55h2.33v-9.55h3.54Zm-18.53,9.55l2.19-4.32h2.13v4.32h2.33v-11.58h-5.46c-2.24,0-3.75,1.46-3.75,3.54,0,1.67,.94,2.88,2.4,3.29l-2.51,4.75h2.67Zm4.34-6.19h-2.72c-1.21,0-1.9-.66-1.9-1.74s.69-1.78,1.9-1.78h2.72v3.52Zm-11.84,.43c0,1.35-.16,2.38-.71,3.04-.41,.48-1.03,.78-1.81,.78-.73,0-1.33-.25-1.74-.73-.53-.59-.76-1.51-.76-3.04,0-1.37,.14-2.45,.71-3.15,.41-.48,1.01-.78,1.78-.78s1.37,.3,1.78,.76c.59,.66,.73,1.69,.73,3.13m2.3-.09c0-2.22-.39-3.5-1.35-4.5-.87-.89-2.08-1.37-3.47-1.37s-2.58,.48-3.45,1.37c-.98,1.03-1.37,2.29-1.37,4.55s.39,3.54,1.37,4.57c.87,.89,2.05,1.37,3.45,1.37s2.61-.48,3.47-1.37c.98-1.03,1.35-2.29,1.35-4.62m-13.28,5.85v-16.27h-2.47l-4.69,10.12-4.76-10.12h-2.44v16.27h2.47v-10.88l3.82,7.93h1.83l3.75-7.93v10.88h2.49Zm-23.31-6.21l-5.28-5.23v2.81l2.47,2.42-2.47,2.44v2.81l5.28-5.25Zm5.78,0l-5.28-5.23v2.81l2.45,2.42-2.45,2.44v2.81l5.28-5.25Z"/><path class="j" d="M248.51,291.36v-2.81l-2.47-2.44,2.47-2.42v-2.81l-5.26,5.23,5.26,5.25Zm-5.78,0v-2.81l-2.44-2.44,2.44-2.42v-2.81l-5.26,5.23,5.26,5.25Zm-13.83-1.83h-2.79v2.79h2.79v-2.79Zm-6.54,2.79v-7.4c0-1.3-.27-2.4-1.16-3.27-.68-.66-1.67-1.05-2.86-1.05s-2.29,.43-3.09,1.3v-1.16h-2.28v11.58h2.33v-7.06c0-1.78,1.1-2.58,2.4-2.58s2.33,.78,2.33,2.58v7.06h2.33Zm-15.01-6.74h-5.21c.02-.71,.07-1.05,.3-1.58,.37-.87,1.21-1.46,2.31-1.46s1.92,.59,2.29,1.46c.23,.52,.3,.87,.32,1.58m2.31,1.62v-1.03c0-3.29-1.8-5.57-4.91-5.57s-4.91,2.17-4.91,5.92c0,4.41,2.3,5.94,5.21,5.94,2.04,0,3.15-.62,4.34-1.8l-1.48-1.4c-.82,.82-1.51,1.19-2.81,1.19-1.9,0-2.95-1.26-2.95-3.25h7.52Zm-13.05,5.12v-7.47c0-2.51-1.44-4.25-4.02-4.25-1.15,0-2.2,.43-3,1.3v-5.85h-2.33v16.27h2.33v-7.11c0-1.74,1.05-2.54,2.35-2.54s2.33,.78,2.33,2.54v7.11h2.33Zm-14.97-6.74h-5.21c.02-.71,.07-1.05,.3-1.58,.37-.87,1.21-1.46,2.31-1.46s1.92,.59,2.29,1.46c.23,.52,.3,.87,.32,1.58m2.31,1.62v-1.03c0-3.29-1.8-5.57-4.91-5.57s-4.91,2.17-4.91,5.92c0,4.41,2.31,5.94,5.21,5.94,2.04,0,3.15-.62,4.34-1.8l-1.48-1.4c-.82,.82-1.51,1.19-2.81,1.19-1.9,0-2.95-1.26-2.95-3.25h7.52Zm-12.29,1.58c0-2.06-1.28-3.09-3.45-3.27l-1.83-.16c-1.23-.12-1.6-.64-1.6-1.33,0-.87,.71-1.49,2.1-1.49,1.1,0,2.13,.23,2.86,.85l1.46-1.49c-1.08-.94-2.56-1.3-4.3-1.3-2.42,0-4.37,1.28-4.37,3.54,0,2.04,1.26,3.02,3.43,3.2l1.85,.16c1.12,.09,1.55,.59,1.55,1.37,0,1.1-1.12,1.6-2.54,1.6-1.14,0-2.4-.25-3.34-1.21l-1.53,1.53c1.37,1.34,2.97,1.66,4.87,1.66,2.77,0,4.82-1.26,4.82-3.68m-10.47-7.08c-.8-.8-1.65-1.09-2.76-1.09-1.3,0-2.49,.57-3.09,1.39v-1.25h-2.28v11.58h2.33v-7.04c0-1.6,1.05-2.61,2.31-2.61,.8,0,1.21,.25,1.74,.78l1.76-1.76Zm-13.76,3.89h-5.21c.02-.71,.07-1.05,.3-1.58,.37-.87,1.21-1.46,2.31-1.46s1.92,.59,2.29,1.46c.23,.52,.3,.87,.32,1.58m2.31,1.62v-1.03c0-3.29-1.81-5.57-4.91-5.57s-4.91,2.17-4.91,5.92c0,4.41,2.3,5.94,5.21,5.94,2.03,0,3.15-.62,4.34-1.8l-1.49-1.4c-.82,.82-1.51,1.19-2.81,1.19-1.9,0-2.95-1.26-2.95-3.25h7.52Zm-15.49-.68c0,2.06-.3,3.86-2.4,3.86s-2.42-1.81-2.42-3.86,.32-3.84,2.42-3.84,2.4,1.78,2.4,3.84m2.33,5.8v-16.27h-2.33v5.85c-.85-1-1.81-1.3-3.04-1.3-1.17,0-2.17,.39-2.81,1.03-1.16,1.16-1.3,3.13-1.3,4.89s.14,3.75,1.3,4.91c.64,.64,1.67,1.03,2.83,1.03,1.26,0,2.2-.32,3.06-1.37v1.23h2.28Zm-14.56-6.74h-5.21c.02-.71,.07-1.05,.3-1.58,.37-.87,1.21-1.46,2.31-1.46s1.92,.59,2.29,1.46c.23,.52,.3,.87,.32,1.58m2.31,1.62v-1.03c0-3.29-1.81-5.57-4.91-5.57s-4.91,2.17-4.91,5.92c0,4.41,2.3,5.94,5.21,5.94,2.03,0,3.15-.62,4.34-1.8l-1.49-1.4c-.82,.82-1.51,1.19-2.81,1.19-1.9,0-2.95-1.26-2.95-3.25h7.52Zm-13.1-11.22h-2.47v2.47h2.47v-2.47Zm-.07,4.75h-2.33v11.58h2.33v-11.58Zm-4.66-4.69h-2.61l-2.83,11.63-3.27-11.63h-1.99l-3.27,11.63-2.83-11.63h-2.61l4.25,16.27h2.15l3.29-11.4,3.31,11.4h2.15l4.25-16.27Zm-26.24,6.69v-1.78h-2.31v-1.68c0-.85,.41-1.36,1.28-1.36h1.03v-1.98h-1.46c-2.17,0-3.17,1.55-3.17,3.23v1.8h-1.33v1.78h1.33v9.57h2.33v-9.57h2.31Zm-8.93,9.57v-11.58h-2.33v7.06c0,1.78-1.1,2.59-2.4,2.59s-2.33-.78-2.33-2.58v-7.06h-2.33v7.4c0,1.3,.27,2.4,1.16,3.27,.68,.66,1.67,1.05,2.86,1.05s2.29-.43,3.09-1.3v1.16h2.28Zm-15.97-5.37h-5l2.54-7.22,2.47,7.22Zm4.43,5.37l-5.96-16.27h-1.99l-5.96,16.27h2.63l1.12-3.27h6.42l1.12,3.27h2.63Z"/><path class="j" d="M174.17,263.07h-2.79v2.79h2.79v-2.79Zm-5.3,2.79l-4.52-7.04,4.02-4.55h-2.83l-4.5,5.35v-10.03h-2.33v16.27h2.33v-3.4l1.71-1.94,3.25,5.35h2.88Zm-13.99,0v-7.4c0-1.3-.27-2.4-1.16-3.27-.68-.66-1.67-1.05-2.86-1.05s-2.29,.43-3.09,1.3v-1.16h-2.28v11.58h2.33v-7.06c0-1.78,1.1-2.58,2.4-2.58s2.33,.78,2.33,2.58v7.06h2.33Zm-15.54-4.18c0,.82-.16,1.37-.5,1.72-.62,.59-1.28,.66-2.17,.66-1.46,0-2.13-.59-2.13-1.65s.71-1.67,2.08-1.67h2.72v.94Zm2.33,4.18v-7.75c0-2.63-1.6-3.97-4.77-3.97-1.92,0-3.06,.39-4.16,1.66l1.53,1.44c.64-.83,1.26-1.12,2.54-1.12,1.81,0,2.54,.71,2.54,2.17v.83h-3.06c-2.65,0-4,1.39-4,3.33,0,.98,.32,1.87,.91,2.49,.71,.71,1.67,1.05,3.11,1.05s2.24-.34,3.09-1.19v1.05h2.28Zm-14.6-8.25c0,2.24-.02,4-.87,4.94-.69,.76-1.6,1.1-2.77,1.1h-2.99v-11.84h2.99c1.17,0,2.08,.34,2.77,1.1,.84,.94,.87,2.47,.87,4.71m2.47,0c0-2.35,.11-4.73-1.64-6.49-1.03-1.03-2.51-1.53-4.21-1.53h-5.71v16.27h5.71c1.69,0,3.18-.5,4.21-1.53,1.76-1.76,1.64-4.36,1.64-6.72m-21.37,8.25v-7.4c0-1.3-.27-2.4-1.16-3.27-.69-.66-1.67-1.05-2.86-1.05s-2.29,.43-3.09,1.3v-1.16h-2.28v11.58h2.33v-7.06c0-1.78,1.1-2.58,2.4-2.58s2.33,.78,2.33,2.58v7.06h2.33Zm-15.01-6.74h-5.21c.02-.71,.07-1.05,.3-1.58,.37-.87,1.21-1.46,2.31-1.46s1.92,.59,2.29,1.46c.23,.53,.3,.87,.32,1.58m2.31,1.62v-1.03c0-3.29-1.81-5.57-4.91-5.57s-4.91,2.17-4.91,5.92c0,4.41,2.3,5.94,5.21,5.94,2.03,0,3.15-.62,4.34-1.8l-1.49-1.39c-.82,.82-1.51,1.19-2.81,1.19-1.9,0-2.95-1.26-2.95-3.25h7.52Zm-11.45,5.12v-1.99h-1.03c-.94,0-1.26-.46-1.26-1.35v-12.93h-2.33v13.07c0,1.71,.96,3.2,3.18,3.2h1.44Zm-10.17-6.74h-5.21c.02-.71,.07-1.05,.3-1.58,.37-.87,1.21-1.46,2.31-1.46s1.92,.59,2.29,1.46c.23,.53,.3,.87,.32,1.58m2.31,1.62v-1.03c0-3.29-1.8-5.57-4.91-5.57s-4.91,2.17-4.91,5.92c0,4.41,2.31,5.94,5.21,5.94,2.04,0,3.15-.62,4.34-1.8l-1.48-1.39c-.82,.82-1.51,1.19-2.81,1.19-1.9,0-2.95-1.26-2.95-3.25h7.52Zm-13.09-11.22h-2.47v2.47h2.47v-2.47Zm-.07,4.75h-2.33v11.58h2.33v-11.58Zm-4.52-4.68h-2.61l-3.75,11.84-3.75-11.84h-2.56l5.35,16.27h1.92l5.39-16.27Z"/><path class="j" d="M914.87,157.23h-2.79v2.79h2.79v-2.79Zm-8.34-3.95h-5.21c.02-.71,.07-1.05,.3-1.58,.37-.87,1.21-1.46,2.31-1.46s1.92,.59,2.29,1.46c.23,.52,.3,.87,.32,1.58m2.31,1.62v-1.03c0-3.29-1.8-5.57-4.91-5.57s-4.91,2.17-4.91,5.92c0,4.41,2.31,5.94,5.21,5.94,2.04,0,3.15-.62,4.34-1.8l-1.48-1.4c-.82,.82-1.51,1.19-2.81,1.19-1.9,0-2.95-1.26-2.95-3.25h7.52Zm-11.45,5.12v-1.98h-1.03c-.94,0-1.26-.46-1.26-1.35v-12.93h-2.33v13.07c0,1.71,.96,3.2,3.17,3.2h1.44Zm-8.48,0v-11.58h-2.33v7.06c0,1.78-1.1,2.59-2.4,2.59s-2.33-.78-2.33-2.58v-7.06h-2.33v7.4c0,1.3,.27,2.4,1.16,3.27,.68,.66,1.67,1.05,2.86,1.05s2.29-.43,3.09-1.3v1.16h2.28Zm-13.09,0v-7.47c0-2.51-1.44-4.25-4.02-4.25-1.15,0-2.2,.43-3,1.3v-5.85h-2.33v16.27h2.33v-7.11c0-1.74,1.05-2.54,2.35-2.54s2.33,.78,2.33,2.54v7.11h2.33Zm-12.27-1.51l-1.6-1.53c-.73,.8-1.3,1.1-2.22,1.1s-1.65-.37-2.15-1.03c-.5-.64-.69-1.49-.69-2.83s.18-2.17,.69-2.81c.5-.66,1.26-1.03,2.15-1.03s1.48,.3,2.22,1.1l1.6-1.55c-1.1-1.16-2.22-1.62-3.82-1.62-2.61,0-5.16,1.57-5.16,5.92s2.56,5.94,5.16,5.94c1.6,0,2.72-.48,3.82-1.64m-11.65-3.13c0-1.39-.44-2.56-1.33-3.34-.69-.62-1.53-.98-3.04-1.21l-1.85-.28c-.76-.11-1.42-.39-1.83-.75-.44-.39-.62-.91-.62-1.51,0-1.44,1.05-2.54,2.97-2.54,1.37,0,2.54,.3,3.54,1.26l1.57-1.55c-1.39-1.3-2.9-1.85-5.05-1.85-3.38,0-5.44,1.94-5.44,4.77,0,1.33,.39,2.35,1.19,3.11,.71,.66,1.76,1.12,3.08,1.3l1.92,.27c.96,.14,1.37,.3,1.78,.69,.44,.39,.64,.98,.64,1.69,0,1.58-1.23,2.49-3.36,2.49-1.67,0-2.97-.37-4.16-1.55l-1.64,1.62c1.55,1.58,3.31,2.15,5.76,2.15,3.41,0,5.85-1.78,5.85-4.77m-21.78-2.1h-5.21c.02-.71,.07-1.05,.3-1.58,.37-.87,1.21-1.46,2.31-1.46s1.92,.59,2.29,1.46c.23,.52,.3,.87,.32,1.58m2.31,1.62v-1.03c0-3.29-1.81-5.57-4.91-5.57s-4.91,2.17-4.91,5.92c0,4.41,2.3,5.94,5.21,5.94,2.03,0,3.15-.62,4.34-1.8l-1.49-1.4c-.82,.82-1.51,1.19-2.81,1.19-1.9,0-2.95-1.26-2.95-3.25h7.52Zm-13.1-11.22h-2.47v2.47h2.47v-2.47Zm-.07,4.75h-2.33v11.58h2.33v-11.58Zm-8.59,5.78c0,2.06-.3,3.86-2.4,3.86s-2.42-1.81-2.42-3.86,.32-3.84,2.42-3.84,2.4,1.78,2.4,3.84m2.33,5.8v-16.27h-2.33v5.85c-.85-1-1.81-1.3-3.04-1.3-1.17,0-2.17,.39-2.81,1.03-1.16,1.16-1.3,3.13-1.3,4.89s.13,3.75,1.3,4.91c.64,.64,1.67,1.03,2.83,1.03,1.26,0,2.2-.32,3.06-1.37v1.23h2.28Zm-18.46,0v-7.4c0-1.3-.27-2.4-1.16-3.27-.69-.66-1.67-1.05-2.86-1.05s-2.29,.43-3.09,1.3v-1.16h-2.28v11.58h2.33v-7.06c0-1.78,1.1-2.58,2.4-2.58s2.33,.78,2.33,2.58v7.06h2.33Zm-13.25-16.34h-2.47v2.47h2.47v-2.47Zm-.07,4.75h-2.33v11.58h2.33v-11.58Zm-10.17,.96c-.8-.8-1.65-1.09-2.76-1.09-1.3,0-2.49,.57-3.09,1.39v-1.25h-2.28v11.58h2.33v-7.04c0-1.6,1.05-2.61,2.31-2.61,.8,0,1.21,.25,1.74,.78l1.76-1.76Zm-13.76,3.89h-5.21c.02-.71,.07-1.05,.3-1.58,.37-.87,1.21-1.46,2.31-1.46s1.92,.59,2.29,1.46c.23,.52,.3,.87,.32,1.58m2.31,1.62v-1.03c0-3.29-1.81-5.57-4.91-5.57s-4.91,2.17-4.91,5.92c0,4.41,2.3,5.94,5.21,5.94,2.03,0,3.15-.62,4.34-1.8l-1.49-1.4c-.82,.82-1.51,1.19-2.81,1.19-1.9,0-2.95-1.26-2.95-3.25h7.52Zm-15.49-.68c0,2.06-.3,3.86-2.4,3.86s-2.42-1.81-2.42-3.86,.32-3.84,2.42-3.84,2.4,1.78,2.4,3.84m2.33,5.8v-16.27h-2.33v5.85c-.85-1-1.81-1.3-3.04-1.3-1.17,0-2.17,.39-2.81,1.03-1.16,1.16-1.3,3.13-1.3,4.89s.14,3.75,1.3,4.91c.64,.64,1.67,1.03,2.83,1.03,1.26,0,2.2-.32,3.06-1.37v1.23h2.28Zm-14.56-6.74h-5.21c.02-.71,.07-1.05,.3-1.58,.37-.87,1.21-1.46,2.31-1.46s1.92,.59,2.29,1.46c.23,.52,.3,.87,.32,1.58m2.31,1.62v-1.03c0-3.29-1.8-5.57-4.91-5.57s-4.91,2.17-4.91,5.92c0,4.41,2.31,5.94,5.21,5.94,2.04,0,3.15-.62,4.34-1.8l-1.48-1.4c-.82,.82-1.51,1.19-2.81,1.19-1.9,0-2.95-1.26-2.95-3.25h7.52Zm-13.09-11.22h-2.47v2.47h2.47v-2.47Zm-.07,4.75h-2.33v11.58h2.33v-11.58Zm-4.59,0h-2.49l-2.24,8.15-2.67-8.15h-1.8l-2.7,8.15-2.24-8.15h-2.47l3.59,11.58h2.01l2.7-8.09,2.72,8.09h1.99l3.61-11.58Zm-24.68,8.91v-10.92c0-.91-.07-1.8-.55-2.65-.46-.82-1.09-1.44-1.83-2.17l-1.6,1.6c.55,.55,.91,.87,1.26,1.51,.23,.43,.34,1.05,.34,1.85v10.65c0,.8-.11,1.42-.34,1.85-.34,.64-.71,.96-1.26,1.51l1.6,1.6c.73-.73,1.37-1.35,1.83-2.17,.48-.85,.55-1.74,.55-2.65m-7.27,2.67v-7.4c0-1.3-.34-2.4-1.23-3.27-.69-.66-1.74-1.05-2.93-1.05-1.53,0-2.7,.55-3.63,1.69-.73-1.12-1.85-1.69-3.29-1.69-1.17,0-2.31,.45-3.09,1.3v-1.16h-2.28v11.58h2.33v-7.06c0-1.78,1.1-2.58,2.4-2.58s2.33,.78,2.33,2.58v7.06h2.33v-7.18c0-1.67,1.15-2.47,2.4-2.47s2.33,.78,2.33,2.58v7.06h2.33Zm-20.38,0v-11.58h-2.33v7.06c0,1.78-1.1,2.59-2.4,2.59s-2.33-.78-2.33-2.58v-7.06h-2.33v7.4c0,1.3,.27,2.4,1.16,3.27,.68,.66,1.67,1.05,2.86,1.05s2.29-.43,3.09-1.3v1.16h2.28Zm-12.48,0v-1.98h-.96c-.87,0-1.28-.5-1.28-1.34v-6.25h2.24v-1.78h-2.24v-3.54h-2.33v3.54h-1.33v1.78h1.33v6.36c0,1.66,1.01,3.22,3.18,3.22h1.39Zm-10.99-4.18c0,.82-.16,1.37-.5,1.72-.62,.59-1.28,.66-2.17,.66-1.46,0-2.13-.6-2.13-1.65s.71-1.67,2.08-1.67h2.72v.94Zm2.33,4.18v-7.75c0-2.63-1.6-3.97-4.77-3.97-1.92,0-3.06,.39-4.16,1.66l1.53,1.44c.64-.82,1.26-1.12,2.54-1.12,1.81,0,2.54,.71,2.54,2.17v.83h-3.06c-2.65,0-4,1.39-4,3.33,0,.98,.32,1.88,.91,2.49,.71,.71,1.67,1.05,3.11,1.05s2.24-.34,3.09-1.19v1.05h2.28Zm-14.6-8.25c0,2.24-.02,4-.87,4.94-.69,.75-1.6,1.1-2.77,1.1h-2.99v-11.84h2.99c1.17,0,2.08,.34,2.77,1.1,.85,.94,.87,2.47,.87,4.71m2.47,0c0-2.35,.12-4.73-1.64-6.49-1.03-1.03-2.51-1.53-4.2-1.53h-5.71v16.27h5.71c1.69,0,3.18-.5,4.2-1.53,1.76-1.76,1.64-4.36,1.64-6.72m-15.24,8.82c-.55-.55-.94-.87-1.28-1.51-.23-.44-.34-1.05-.34-1.87v-10.65c0-.82,.12-1.44,.34-1.87,.34-.64,.73-.96,1.28-1.51l-1.58-1.58c-.73,.73-1.39,1.35-1.85,2.17-.48,.84-.52,1.73-.52,2.65v10.92c0,.91,.05,1.8,.52,2.65,.46,.82,1.12,1.44,1.85,2.17l1.58-1.58Zm-185.46-.57v-7.4c0-1.3-.34-2.4-1.23-3.27-.69-.66-1.74-1.05-2.93-1.05-1.53,0-2.7,.55-3.63,1.69-.73-1.12-1.85-1.69-3.29-1.69-1.16,0-2.31,.45-3.09,1.3v-1.16h-2.28v11.58h2.33v-7.06c0-1.78,1.1-2.58,2.4-2.58s2.33,.78,2.33,2.58v7.06h2.33v-7.18c0-1.67,1.14-2.47,2.4-2.47s2.33,.78,2.33,2.58v7.06h2.33Zm-22.6-4.18c0,.82-.16,1.37-.5,1.72-.62,.59-1.28,.66-2.17,.66-1.46,0-2.13-.6-2.13-1.65s.71-1.67,2.08-1.67h2.72v.94Zm2.33,4.18v-7.75c0-2.63-1.6-3.97-4.77-3.97-1.92,0-3.06,.39-4.16,1.66l1.53,1.44c.64-.82,1.26-1.12,2.54-1.12,1.81,0,2.54,.71,2.54,2.17v.83h-3.06c-2.65,0-4,1.39-4,3.33,0,.98,.32,1.88,.91,2.49,.71,.71,1.67,1.05,3.11,1.05s2.24-.34,3.09-1.19v1.05h2.28Zm-18.05,0v-7.47c0-2.51-1.44-4.25-4.02-4.25-1.14,0-2.2,.43-3,1.3v-5.85h-2.33v16.27h2.33v-7.11c0-1.74,1.05-2.54,2.35-2.54s2.33,.78,2.33,2.54v7.11h2.33Zm-12.27-1.51l-1.6-1.53c-.73,.8-1.3,1.1-2.22,1.1s-1.65-.37-2.15-1.03c-.5-.64-.69-1.49-.69-2.83s.18-2.17,.69-2.81c.5-.66,1.26-1.03,2.15-1.03s1.48,.3,2.22,1.1l1.6-1.55c-1.1-1.16-2.22-1.62-3.82-1.62-2.61,0-5.16,1.57-5.16,5.92s2.56,5.94,5.16,5.94c1.6,0,2.72-.48,3.82-1.64m-12.25-14.83h-2.47v2.47h2.47v-2.47Zm-.07,4.75h-2.33v11.58h2.33v-11.58Zm-5.12,11.58v-1.98h-1.03c-.94,0-1.26-.46-1.26-1.35v-12.93h-2.33v13.07c0,1.71,.96,3.2,3.18,3.2h1.44Zm-7.75,0v-1.98h-.96c-.87,0-1.28-.5-1.28-1.34v-6.25h2.24v-1.78h-2.24v-3.54h-2.33v3.54h-1.33v1.78h1.33v6.36c0,1.66,1,3.22,3.17,3.22h1.4Zm-8.66,0v-7.47c0-2.51-1.44-4.25-4.02-4.25-1.14,0-2.2,.43-2.99,1.3v-5.85h-2.33v16.27h2.33v-7.11c0-1.74,1.05-2.54,2.35-2.54s2.33,.78,2.33,2.54v7.11h2.33Zm-12.27-1.51l-1.6-1.53c-.73,.8-1.3,1.1-2.22,1.1s-1.65-.37-2.15-1.03c-.5-.64-.69-1.49-.69-2.83s.18-2.17,.69-2.81c.5-.66,1.26-1.03,2.15-1.03s1.49,.3,2.22,1.1l1.6-1.55c-1.1-1.16-2.22-1.62-3.82-1.62-2.61,0-5.16,1.57-5.16,5.92s2.55,5.94,5.16,5.94c1.6,0,2.72-.48,3.82-1.64m-12.25-14.83h-2.47v2.47h2.47v-2.47Zm-.07,4.75h-2.33v11.58h2.33v-11.58Zm-5.39,8.04c0-2.06-1.28-3.09-3.45-3.27l-1.83-.16c-1.23-.12-1.6-.64-1.6-1.33,0-.87,.71-1.49,2.1-1.49,1.1,0,2.12,.23,2.86,.85l1.46-1.49c-1.07-.94-2.56-1.3-4.3-1.3-2.42,0-4.36,1.28-4.36,3.54,0,2.04,1.26,3.02,3.43,3.2l1.85,.16c1.12,.09,1.55,.59,1.55,1.37,0,1.1-1.12,1.6-2.54,1.6-1.14,0-2.4-.25-3.34-1.21l-1.53,1.53c1.37,1.35,2.97,1.67,4.87,1.67,2.76,0,4.82-1.26,4.82-3.68m-11.49,0c0-2.06-1.28-3.09-3.45-3.27l-1.83-.16c-1.23-.12-1.6-.64-1.6-1.33,0-.87,.71-1.49,2.1-1.49,1.1,0,2.13,.23,2.86,.85l1.46-1.49c-1.08-.94-2.56-1.3-4.3-1.3-2.42,0-4.37,1.28-4.37,3.54,0,2.04,1.26,3.02,3.43,3.2l1.85,.16c1.12,.09,1.55,.59,1.55,1.37,0,1.1-1.12,1.6-2.54,1.6-1.14,0-2.4-.25-3.34-1.21l-1.53,1.53c1.37,1.35,2.97,1.67,4.87,1.67,2.77,0,4.82-1.26,4.82-3.68m-12.5,3.54v-11.58h-2.33v7.06c0,1.78-1.1,2.59-2.4,2.59s-2.33-.78-2.33-2.58v-7.06h-2.33v7.4c0,1.3,.27,2.4,1.16,3.27,.69,.66,1.67,1.05,2.86,1.05s2.29-.43,3.09-1.3v1.16h2.28Zm-15.42-4.18c0,.82-.16,1.37-.5,1.72-.62,.59-1.28,.66-2.17,.66-1.46,0-2.13-.6-2.13-1.65s.71-1.67,2.08-1.67h2.72v.94Zm2.33,4.18v-7.75c0-2.63-1.6-3.97-4.77-3.97-1.92,0-3.06,.39-4.16,1.66l1.53,1.44c.64-.82,1.26-1.12,2.54-1.12,1.81,0,2.54,.71,2.54,2.17v.83h-3.06c-2.65,0-4,1.39-4,3.33,0,.98,.32,1.88,.91,2.49,.71,.71,1.67,1.05,3.11,1.05s2.24-.34,3.09-1.19v1.05h2.28Zm-10.42-10.63c-.8-.8-1.65-1.09-2.76-1.09-1.3,0-2.49,.57-3.09,1.39v-1.25h-2.28v11.58h2.33v-7.04c0-1.6,1.05-2.61,2.31-2.61,.8,0,1.21,.25,1.74,.78l1.76-1.76Zm-13.85,4.82c0,1.26-.09,2.47-.8,3.18-.44,.43-1.03,.69-1.72,.69s-1.26-.25-1.69-.69c-.71-.71-.8-1.92-.8-3.18s.09-2.47,.8-3.18c.44-.44,1.01-.66,1.69-.66s1.28,.23,1.72,.66c.71,.71,.8,1.92,.8,3.18m2.33,0c0-1.94-.27-3.41-1.37-4.55-.75-.78-1.9-1.37-3.47-1.37s-2.7,.59-3.45,1.37c-1.09,1.14-1.37,2.61-1.37,4.55s.27,3.43,1.37,4.57c.75,.77,1.87,1.37,3.45,1.37s2.72-.59,3.47-1.37c1.09-1.14,1.37-2.61,1.37-4.57m-11.15-5.78h-2.47l-2.72,8.15-2.74-8.15h-2.47l4.25,11.58h1.9l4.25-11.58Zm-17.64,11.58v-1.98h-.96c-.87,0-1.28-.5-1.28-1.34v-6.25h2.24v-1.78h-2.24v-3.54h-2.33v3.54h-1.33v1.78h1.33v6.36c0,1.66,1,3.22,3.17,3.22h1.39Zm-8.66,0v-7.4c0-1.3-.34-2.4-1.23-3.27-.69-.66-1.74-1.05-2.93-1.05-1.53,0-2.7,.55-3.63,1.69-.73-1.12-1.85-1.69-3.29-1.69-1.17,0-2.31,.45-3.09,1.3v-1.16h-2.28v11.58h2.33v-7.06c0-1.78,1.1-2.58,2.4-2.58s2.33,.78,2.33,2.58v7.06h2.33v-7.18c0-1.67,1.15-2.47,2.4-2.47s2.33,.78,2.33,2.58v7.06h2.33Zm-20.27,0v-7.4c0-1.3-.34-2.4-1.23-3.27-.69-.66-1.73-1.05-2.93-1.05-1.53,0-2.7,.55-3.63,1.69-.73-1.12-1.85-1.69-3.29-1.69-1.17,0-2.31,.45-3.09,1.3v-1.16h-2.28v11.58h2.33v-7.06c0-1.78,1.1-2.58,2.4-2.58s2.33,.78,2.33,2.58v7.06h2.33v-7.18c0-1.67,1.14-2.47,2.4-2.47s2.33,.78,2.33,2.58v7.06h2.33Zm-22.16-5.8c0,1.26-.09,2.47-.8,3.18-.44,.43-1.03,.69-1.72,.69s-1.26-.25-1.69-.69c-.71-.71-.8-1.92-.8-3.18s.09-2.47,.8-3.18c.43-.44,1.01-.66,1.69-.66s1.28,.23,1.72,.66c.71,.71,.8,1.92,.8,3.18m2.33,0c0-1.94-.27-3.41-1.37-4.55-.75-.78-1.9-1.37-3.47-1.37s-2.7,.59-3.45,1.37c-1.1,1.14-1.37,2.61-1.37,4.55s.27,3.43,1.37,4.57c.75,.77,1.87,1.37,3.45,1.37s2.72-.59,3.47-1.37c1.1-1.14,1.37-2.61,1.37-4.57m-11.54,5.8l-4.52-7.04,4.02-4.55h-2.83l-4.5,5.35v-10.03h-2.33v16.27h2.33v-3.4l1.71-1.94,3.25,5.35h2.88Zm-22.14-5.8c0,2.06-.3,3.86-2.4,3.86s-2.42-1.81-2.42-3.86,.32-3.84,2.42-3.84,2.4,1.78,2.4,3.84m2.33,5.8v-16.27h-2.33v5.85c-.85-1-1.81-1.3-3.04-1.3-1.17,0-2.17,.39-2.81,1.03-1.16,1.16-1.3,3.13-1.3,4.89s.14,3.75,1.3,4.91c.64,.64,1.67,1.03,2.83,1.03,1.26,0,2.2-.32,3.06-1.37v1.23h2.28Zm-12.75,0v-7.4c0-1.3-.27-2.4-1.16-3.27-.69-.66-1.67-1.05-2.86-1.05s-2.29,.43-3.09,1.3v-1.16h-2.28v11.58h2.33v-7.06c0-1.78,1.1-2.58,2.4-2.58s2.33,.78,2.33,2.58v7.06h2.33Zm-13.25-16.34h-2.47v2.47h2.47v-2.47Zm-.07,4.75h-2.33v11.58h2.33v-11.58Zm-4.64,11.58l-5.83-9.89,5.28-6.37h-3.02l-6.65,8.18v-8.18h-2.47v16.27h2.47v-4.73l2.74-3.29,4.57,8.02h2.9Zm-22.49,0v-7.4c0-1.3-.27-2.4-1.16-3.27-.68-.66-1.67-1.05-2.86-1.05s-2.29,.43-3.09,1.3v-1.16h-2.28v11.58h2.33v-7.06c0-1.78,1.1-2.58,2.4-2.58s2.33,.78,2.33,2.58v7.06h2.33Zm-13.25-16.34h-2.47v2.47h2.47v-2.47Zm-.07,4.75h-2.33v11.58h2.33v-11.58Zm-7.95,4.84h-5.21c.02-.71,.07-1.05,.3-1.58,.37-.87,1.21-1.46,2.31-1.46s1.92,.59,2.29,1.46c.23,.52,.3,.87,.32,1.58m2.31,1.62v-1.03c0-3.29-1.8-5.57-4.91-5.57s-4.91,2.17-4.91,5.92c0,4.41,2.3,5.94,5.21,5.94,2.04,0,3.15-.62,4.34-1.8l-1.48-1.4c-.82,.82-1.51,1.19-2.81,1.19-1.9,0-2.95-1.26-2.95-3.25h7.52Zm-13.41,5.12v-16.27h-2.47l-4.66,10.12-4.76-10.12h-2.47v16.27h2.47v-10.88l3.84,7.93h1.83l3.75-7.93v10.88h2.47Z"/><path class="j" d="M861.97,77.85h-2.79v2.79h2.79v-2.79Zm-5.3,2.78l-4.52-7.04,4.02-4.55h-2.83l-4.5,5.35v-10.03h-2.33v16.27h2.33v-3.4l1.72-1.94,3.25,5.35h2.88Zm-13.99,0v-7.4c0-1.3-.27-2.4-1.16-3.27-.69-.66-1.67-1.05-2.86-1.05s-2.29,.43-3.09,1.3v-1.16h-2.28v11.58h2.33v-7.06c0-1.78,1.1-2.59,2.4-2.59s2.33,.78,2.33,2.58v7.06h2.33Zm-15.54-4.18c0,.83-.16,1.37-.5,1.72-.62,.6-1.28,.66-2.17,.66-1.46,0-2.13-.59-2.13-1.65s.71-1.67,2.08-1.67h2.72v.94Zm2.33,4.18v-7.74c0-2.63-1.6-3.98-4.77-3.98-1.92,0-3.06,.39-4.16,1.67l1.53,1.44c.64-.82,1.26-1.12,2.54-1.12,1.81,0,2.54,.71,2.54,2.17v.82h-3.06c-2.65,0-4,1.39-4,3.34,0,.98,.32,1.87,.91,2.49,.71,.71,1.67,1.05,3.11,1.05s2.24-.34,3.09-1.19v1.05h2.28Zm-10.42-10.63c-.8-.8-1.65-1.09-2.77-1.09-1.3,0-2.49,.57-3.08,1.39v-1.26h-2.28v11.58h2.33v-7.04c0-1.6,1.05-2.61,2.31-2.61,.8,0,1.21,.25,1.74,.78l1.76-1.76Zm-10.72,10.63l-4.52-7.04,4.02-4.55h-2.83l-4.5,5.35v-10.03h-2.33v16.27h2.33v-3.4l1.72-1.94,3.25,5.35h2.88Zm-19.7,0v-7.47c0-2.51-1.44-4.25-4.02-4.25-1.15,0-2.2,.43-3,1.3v-5.85h-2.33v16.27h2.33v-7.11c0-1.74,1.05-2.54,2.35-2.54s2.33,.78,2.33,2.54v7.11h2.33Zm-12.27-1.51l-1.6-1.53c-.73,.8-1.3,1.1-2.22,1.1s-1.65-.37-2.15-1.03c-.5-.64-.69-1.48-.69-2.83s.18-2.17,.69-2.81c.5-.66,1.26-1.03,2.15-1.03s1.48,.3,2.22,1.1l1.6-1.55c-1.1-1.16-2.22-1.62-3.82-1.62-2.61,0-5.16,1.58-5.16,5.92s2.56,5.94,5.16,5.94c1.6,0,2.72-.48,3.82-1.64m-14.1-4.3c0,1.26-.09,2.47-.8,3.18-.44,.44-1.03,.69-1.72,.69s-1.26-.25-1.69-.69c-.71-.71-.8-1.92-.8-3.18s.09-2.47,.8-3.18c.44-.44,1.01-.66,1.69-.66s1.28,.23,1.72,.66c.71,.71,.8,1.92,.8,3.18m2.33,0c0-1.94-.27-3.41-1.37-4.55-.75-.77-1.9-1.37-3.47-1.37s-2.7,.59-3.45,1.37c-1.09,1.14-1.37,2.61-1.37,4.55s.27,3.43,1.37,4.57c.75,.78,1.87,1.37,3.45,1.37s2.72-.59,3.47-1.37c1.09-1.14,1.37-2.61,1.37-4.57m-12.93,5.8v-7.4c0-1.3-.27-2.4-1.16-3.27-.68-.66-1.67-1.05-2.86-1.05s-2.29,.43-3.09,1.3v-1.16h-2.28v11.58h2.33v-7.06c0-1.78,1.1-2.59,2.4-2.59s2.33,.78,2.33,2.58v7.06h2.33Zm-18.3,0v-1.98h-.96c-.87,0-1.28-.5-1.28-1.34v-6.24h2.24v-1.78h-2.24v-3.54h-2.33v3.54h-1.33v1.78h1.33v6.36c0,1.66,1,3.22,3.17,3.22h1.4Zm-7.68-3.54c0-2.06-1.28-3.09-3.45-3.27l-1.83-.16c-1.23-.11-1.6-.64-1.6-1.33,0-.87,.71-1.49,2.1-1.49,1.1,0,2.12,.23,2.86,.85l1.46-1.48c-1.07-.94-2.56-1.3-4.3-1.3-2.42,0-4.36,1.28-4.36,3.54,0,2.03,1.26,3.02,3.43,3.2l1.85,.16c1.12,.09,1.55,.59,1.55,1.37,0,1.1-1.12,1.6-2.54,1.6-1.14,0-2.4-.25-3.34-1.21l-1.53,1.53c1.37,1.35,2.97,1.66,4.87,1.66,2.76,0,4.82-1.25,4.82-3.68m-12.43-12.8h-2.47v2.47h2.47v-2.47Zm-.07,4.75h-2.33v11.58h2.33v-11.58Zm-12.06,8.91v-10.92c0-.91-.07-1.81-.55-2.65-.46-.82-1.1-1.44-1.83-2.17l-1.6,1.6c.55,.55,.91,.87,1.26,1.51,.23,.44,.34,1.05,.34,1.85v10.65c0,.8-.12,1.42-.34,1.85-.34,.64-.71,.96-1.26,1.51l1.6,1.6c.73-.73,1.37-1.35,1.83-2.17,.48-.84,.55-1.74,.55-2.65m-6.51-.87c0-2.06-1.28-3.09-3.45-3.27l-1.83-.16c-1.23-.11-1.6-.64-1.6-1.33,0-.87,.71-1.49,2.1-1.49,1.1,0,2.13,.23,2.86,.85l1.46-1.48c-1.08-.94-2.56-1.3-4.3-1.3-2.42,0-4.37,1.28-4.37,3.54,0,2.03,1.26,3.02,3.43,3.2l1.85,.16c1.12,.09,1.55,.59,1.55,1.37,0,1.1-1.12,1.6-2.54,1.6-1.14,0-2.4-.25-3.34-1.21l-1.53,1.53c1.37,1.35,2.97,1.66,4.87,1.66,2.77,0,4.82-1.25,4.82-3.68m-14.19-3.2h-5.21c.02-.71,.07-1.05,.3-1.58,.37-.87,1.21-1.46,2.31-1.46s1.92,.6,2.29,1.46c.23,.53,.3,.87,.32,1.58m2.31,1.62v-1.02c0-3.29-1.8-5.58-4.91-5.58s-4.91,2.17-4.91,5.92c0,4.41,2.31,5.94,5.21,5.94,2.04,0,3.15-.62,4.34-1.8l-1.48-1.4c-.82,.82-1.51,1.19-2.81,1.19-1.9,0-2.95-1.26-2.95-3.25h7.52Zm-15.49-.68c0,2.06-.3,3.86-2.4,3.86s-2.42-1.81-2.42-3.86,.32-3.84,2.42-3.84,2.4,1.78,2.4,3.84m2.33,5.8v-16.27h-2.33v5.85c-.85-1.01-1.81-1.3-3.04-1.3-1.16,0-2.17,.39-2.81,1.03-1.16,1.16-1.3,3.13-1.3,4.89s.14,3.75,1.3,4.91c.64,.64,1.67,1.03,2.83,1.03,1.26,0,2.19-.32,3.06-1.37v1.23h2.28Zm-12.75,0v-7.4c0-1.3-.27-2.4-1.16-3.27-.69-.66-1.67-1.05-2.86-1.05s-2.29,.43-3.09,1.3v-1.16h-2.28v11.58h2.33v-7.06c0-1.78,1.1-2.59,2.4-2.59s2.33,.78,2.33,2.58v7.06h2.33Zm-13.25-16.34h-2.47v2.47h2.47v-2.47Zm-.07,4.75h-2.33v11.58h2.33v-11.58Zm-4.64,11.58l-5.83-9.89,5.28-6.37h-3.02l-6.65,8.18v-8.18h-2.47v16.27h2.47v-4.73l2.74-3.29,4.57,8.02h2.9Zm-21.73-3.54c0-2.06-1.28-3.09-3.45-3.27l-1.83-.16c-1.23-.11-1.6-.64-1.6-1.33,0-.87,.71-1.49,2.1-1.49,1.1,0,2.13,.23,2.86,.85l1.46-1.48c-1.08-.94-2.56-1.3-4.3-1.3-2.42,0-4.37,1.28-4.37,3.54,0,2.03,1.26,3.02,3.43,3.2l1.85,.16c1.12,.09,1.55,.59,1.55,1.37,0,1.1-1.12,1.6-2.54,1.6-1.14,0-2.4-.25-3.34-1.21l-1.53,1.53c1.37,1.35,2.97,1.66,4.87,1.66,2.77,0,4.82-1.25,4.82-3.68m-14.19-3.2h-5.21c.02-.71,.07-1.05,.3-1.58,.37-.87,1.21-1.46,2.31-1.46s1.92,.6,2.29,1.46c.23,.53,.3,.87,.32,1.58m2.31,1.62v-1.02c0-3.29-1.8-5.58-4.91-5.58s-4.91,2.17-4.91,5.92c0,4.41,2.3,5.94,5.21,5.94,2.04,0,3.15-.62,4.34-1.8l-1.48-1.4c-.82,.82-1.51,1.19-2.81,1.19-1.9,0-2.95-1.26-2.95-3.25h7.52Zm-15.49-.68c0,2.06-.3,3.86-2.4,3.86s-2.42-1.81-2.42-3.86,.32-3.84,2.42-3.84,2.4,1.78,2.4,3.84m2.33,5.8v-16.27h-2.33v5.85c-.85-1.01-1.81-1.3-3.04-1.3-1.16,0-2.17,.39-2.81,1.03-1.16,1.16-1.3,3.13-1.3,4.89s.14,3.75,1.3,4.91c.64,.64,1.67,1.03,2.83,1.03,1.26,0,2.19-.32,3.06-1.37v1.23h2.28Zm-20.27-6.74h-5.21c.02-.71,.07-1.05,.3-1.58,.37-.87,1.21-1.46,2.31-1.46s1.92,.6,2.29,1.46c.23,.53,.3,.87,.32,1.58m2.31,1.62v-1.02c0-3.29-1.81-5.58-4.91-5.58s-4.91,2.17-4.91,5.92c0,4.41,2.3,5.94,5.21,5.94,2.03,0,3.15-.62,4.34-1.8l-1.49-1.4c-.82,.82-1.51,1.19-2.81,1.19-1.9,0-2.95-1.26-2.95-3.25h7.52Zm-13.05,5.12v-7.4c0-1.3-.34-2.4-1.23-3.27-.69-.66-1.74-1.05-2.93-1.05-1.53,0-2.7,.55-3.63,1.69-.73-1.12-1.85-1.69-3.29-1.69-1.16,0-2.31,.46-3.09,1.3v-1.16h-2.28v11.58h2.33v-7.06c0-1.78,1.1-2.59,2.4-2.59s2.33,.78,2.33,2.58v7.06h2.33v-7.18c0-1.67,1.14-2.47,2.4-2.47s2.33,.78,2.33,2.58v7.06h2.33Zm-22.6-4.18c0,.83-.16,1.37-.5,1.72-.62,.6-1.28,.66-2.17,.66-1.46,0-2.13-.59-2.13-1.65s.71-1.67,2.08-1.67h2.72v.94Zm2.33,4.18v-7.74c0-2.63-1.6-3.98-4.77-3.98-1.92,0-3.06,.39-4.16,1.67l1.53,1.44c.64-.82,1.26-1.12,2.54-1.12,1.81,0,2.54,.71,2.54,2.17v.82h-3.06c-2.65,0-4,1.39-4,3.34,0,.98,.32,1.87,.91,2.49,.71,.71,1.67,1.05,3.11,1.05s2.24-.34,3.09-1.19v1.05h2.28Zm-12.73,0v-16.27h-2.46v11.42l-7.52-11.42h-2.26v16.27h2.46v-11.45l7.52,11.45h2.26Zm-15.93,.57c-.55-.55-.94-.87-1.28-1.51-.23-.43-.34-1.05-.34-1.87v-10.65c0-.82,.12-1.44,.34-1.87,.34-.64,.73-.96,1.28-1.51l-1.58-1.58c-.73,.73-1.39,1.35-1.85,2.17-.48,.84-.52,1.74-.52,2.65v10.92c0,.91,.05,1.81,.52,2.65,.46,.82,1.12,1.44,1.85,2.17l1.58-1.58Zm-176.83-.57v-7.4c0-1.3-.27-2.4-1.16-3.27-.69-.66-1.67-1.05-2.86-1.05s-2.29,.43-3.09,1.3v-1.16h-2.28v11.58h2.33v-7.06c0-1.78,1.1-2.59,2.4-2.59s2.33,.78,2.33,2.58v7.06h2.33Zm-13.21,0v-7.47c0-2.51-1.44-4.25-4.02-4.25-1.15,0-2.2,.43-3,1.3v-5.85h-2.33v16.27h2.33v-7.11c0-1.74,1.05-2.54,2.35-2.54s2.33,.78,2.33,2.54v7.11h2.33Zm-15.06-5.8c0,1.26-.09,2.47-.8,3.18-.44,.44-1.03,.69-1.72,.69s-1.26-.25-1.69-.69c-.71-.71-.8-1.92-.8-3.18s.09-2.47,.8-3.18c.43-.44,1.01-.66,1.69-.66s1.28,.23,1.72,.66c.71,.71,.8,1.92,.8,3.18m2.33,0c0-1.94-.27-3.41-1.37-4.55-.75-.77-1.9-1.37-3.47-1.37s-2.7,.59-3.45,1.37c-1.09,1.14-1.37,2.61-1.37,4.55s.27,3.43,1.37,4.57c.76,.78,1.87,1.37,3.45,1.37s2.72-.59,3.47-1.37c1.1-1.14,1.37-2.61,1.37-4.57m-12.38,1.17c0-1.4-.44-2.56-1.33-3.34-.69-.62-1.53-.98-3.04-1.21l-1.85-.27c-.76-.12-1.42-.39-1.83-.76-.44-.39-.62-.91-.62-1.51,0-1.44,1.05-2.54,2.97-2.54,1.37,0,2.54,.3,3.54,1.26l1.57-1.55c-1.39-1.3-2.9-1.85-5.05-1.85-3.38,0-5.44,1.94-5.44,4.77,0,1.33,.39,2.35,1.19,3.11,.71,.66,1.76,1.12,3.08,1.3l1.92,.27c.96,.14,1.37,.3,1.78,.69,.44,.39,.64,.98,.64,1.69,0,1.58-1.23,2.49-3.36,2.49-1.67,0-2.97-.37-4.16-1.55l-1.64,1.62c1.55,1.57,3.31,2.14,5.76,2.14,3.41,0,5.85-1.78,5.85-4.77m-19.97,4.64v-7.4c0-1.3-.27-2.4-1.16-3.27-.69-.66-1.67-1.05-2.86-1.05s-2.29,.43-3.09,1.3v-1.16h-2.28v11.58h2.33v-7.06c0-1.78,1.1-2.59,2.4-2.59s2.33,.78,2.33,2.58v7.06h2.33Zm-13.25-16.34h-2.47v2.47h2.47v-2.47Zm-.07,4.75h-2.33v11.58h2.33v-11.58Zm-7.95,4.84h-5.21c.02-.71,.07-1.05,.3-1.58,.37-.87,1.21-1.46,2.31-1.46s1.92,.6,2.29,1.46c.23,.53,.3,.87,.32,1.58m2.31,1.62v-1.02c0-3.29-1.81-5.58-4.91-5.58s-4.91,2.17-4.91,5.92c0,4.41,2.3,5.94,5.21,5.94,2.03,0,3.15-.62,4.34-1.8l-1.49-1.4c-.82,.82-1.51,1.19-2.81,1.19-1.9,0-2.95-1.26-2.95-3.25h7.52Zm-13.41,5.12v-16.27h-2.47l-4.66,10.12-4.75-10.12h-2.47v16.27h2.47v-10.88l3.84,7.93h1.83l3.75-7.93v10.88h2.47Zm-22.35-17.96h-2.24l-6.51,19.65h2.24l6.51-19.65Zm-14.74,7.33c-.8-.8-1.65-1.09-2.76-1.09-1.3,0-2.49,.57-3.09,1.39v-1.26h-2.28v11.58h2.33v-7.04c0-1.6,1.05-2.61,2.31-2.61,.8,0,1.21,.25,1.74,.78l1.76-1.76Zm-13.76,3.89h-5.21c.02-.71,.07-1.05,.3-1.58,.37-.87,1.21-1.46,2.31-1.46s1.92,.6,2.29,1.46c.23,.53,.3,.87,.32,1.58m2.31,1.62v-1.02c0-3.29-1.81-5.58-4.91-5.58s-4.91,2.17-4.91,5.92c0,4.41,2.3,5.94,5.21,5.94,2.03,0,3.15-.62,4.34-1.8l-1.49-1.4c-.82,.82-1.51,1.19-2.81,1.19-1.9,0-2.95-1.26-2.95-3.25h7.52Zm-12.36,5.12v-1.98h-.96c-.87,0-1.28-.5-1.28-1.34v-6.24h2.24v-1.78h-2.24v-3.54h-2.33v3.54h-1.33v1.78h1.33v6.36c0,1.66,1,3.22,3.17,3.22h1.39Zm-8.66,0v-7.47c0-2.51-1.44-4.25-4.02-4.25-1.15,0-2.2,.43-2.99,1.3v-5.85h-2.33v16.27h2.33v-7.11c0-1.74,1.05-2.54,2.35-2.54s2.33,.78,2.33,2.54v7.11h2.33Zm-12.27-1.51l-1.6-1.53c-.73,.8-1.3,1.1-2.22,1.1s-1.65-.37-2.15-1.03c-.5-.64-.69-1.48-.69-2.83s.18-2.17,.69-2.81c.5-.66,1.26-1.03,2.15-1.03s1.49,.3,2.22,1.1l1.6-1.55c-1.1-1.16-2.22-1.62-3.82-1.62-2.61,0-5.16,1.58-5.16,5.92s2.56,5.94,5.16,5.94c1.6,0,2.72-.48,3.82-1.64m-14.1-4.3c0,1.26-.09,2.47-.8,3.18-.44,.44-1.03,.69-1.72,.69s-1.26-.25-1.69-.69c-.71-.71-.8-1.92-.8-3.18s.09-2.47,.8-3.18c.44-.44,1.01-.66,1.69-.66s1.28,.23,1.72,.66c.71,.71,.8,1.92,.8,3.18m2.33,0c0-1.94-.27-3.41-1.37-4.55-.75-.77-1.9-1.37-3.47-1.37s-2.7,.59-3.45,1.37c-1.09,1.14-1.37,2.61-1.37,4.55s.27,3.43,1.37,4.57c.75,.78,1.87,1.37,3.45,1.37s2.72-.59,3.47-1.37c1.09-1.14,1.37-2.61,1.37-4.57m-10.37-8.25v-2.21h-11.42v2.21h4.48v14.05h2.47v-14.05h4.48Zm-21.59,7.32h-5.21c.02-.71,.07-1.05,.3-1.58,.37-.87,1.21-1.46,2.31-1.46s1.92,.6,2.29,1.46c.23,.53,.3,.87,.32,1.58m2.31,1.62v-1.02c0-3.29-1.8-5.58-4.91-5.58s-4.91,2.17-4.91,5.92c0,4.41,2.3,5.94,5.21,5.94,2.04,0,3.15-.62,4.34-1.8l-1.48-1.4c-.82,.82-1.51,1.19-2.81,1.19-1.9,0-2.95-1.26-2.95-3.25h7.52Zm-13.05,5.12v-7.4c0-1.3-.27-2.4-1.16-3.27-.69-.66-1.67-1.05-2.86-1.05s-2.29,.43-3.09,1.3v-1.16h-2.28v11.58h2.33v-7.06c0-1.78,1.1-2.59,2.4-2.59s2.33,.78,2.33,2.58v7.06h2.33Zm-13.25-16.34h-2.47v2.47h2.47v-2.47Zm-.07,4.75h-2.33v11.58h2.33v-11.58Zm-7.95,4.84h-5.21c.02-.71,.07-1.05,.3-1.58,.37-.87,1.21-1.46,2.31-1.46s1.92,.6,2.29,1.46c.23,.53,.3,.87,.32,1.58m2.31,1.62v-1.02c0-3.29-1.8-5.58-4.91-5.58s-4.91,2.17-4.91,5.92c0,4.41,2.31,5.94,5.21,5.94,2.04,0,3.15-.62,4.34-1.8l-1.48-1.4c-.82,.82-1.51,1.19-2.81,1.19-1.9,0-2.95-1.26-2.95-3.25h7.52Zm-13.41,5.12v-16.27h-2.47l-4.66,10.12-4.75-10.12h-2.47v16.27h2.47v-10.88l3.84,7.93h1.83l3.75-7.93v10.88h2.47Zm-23.31-6.21l-5.28-5.23v2.81l2.47,2.42-2.47,2.44v2.81l5.28-5.25Zm5.78,0l-5.28-5.23v2.81l2.45,2.42-2.45,2.44v2.81l5.28-5.25Z"/></g><rect class="i" x="342.98" y="54.65" width="157.29" height="25.98"/><rect class="i" x="437.79" y="134.03" width="165.92" height="25.98"/></svg>