<?xml version="1.0" encoding="UTF-8" standalone="no"?> <svg xmlns="http://www.w3.org/2000/svg" xmlns:xlink="http://www.w3.org/1999/xlink" xmlns:serif="http://www.serif.com/" width="100%" height="100%" viewBox="0 0 95 144" version="1.1" xml:space="preserve" style="fill-rule:evenodd;clip-rule:evenodd;stroke-linecap:round;stroke-linejoin:round;"> <g transform="matrix(4.16667,0,0,4.16667,-1535.43,-978.031)"> <rect x="368.713" y="234.936" width="22.259" height="34.123" style="fill:white;"></rect> </g> <g transform="matrix(4.16667,0,0,4.16667,-1535.43,-975.148)"> <rect x="369.54" y="235.22" width="21.641" height="32.863" style="fill:rgb(223,128,27);"></rect> </g> <g transform="matrix(4.16667,0,0,4.16667,-1535.43,-978.031)"> <rect x="368.784" y="235.008" width="22.116" height="33.979" style="fill:none;stroke:rgb(42,44,104);stroke-width:0.56px;"></rect> </g> <g transform="matrix(0,-4.16667,-4.16667,0,103.281,86.1821)"> <path d="M-13.449,13.449L13.449,13.449" style="fill:none;fill-rule:nonzero;stroke:rgb(42,44,104);stroke-width:0.56px;"></path> </g> <g transform="matrix(4.16667,0,0,4.16667,13.7838,89.4204)"> <path d="M0,-3.545C0.349,-4.356 0.709,-4.678 1.842,-3.545C2.976,-2.41 4.11,0 2.976,-0.709C1.842,-1.418 1.134,-1.418 1.134,-0.143C1.134,1.133 -1.417,0.424 -0.992,-0.709C-0.567,-1.844 0.283,-1.024 0.283,-1.992C0.283,-2.961 -0.349,-2.733 0,-3.545" style="fill:rgb(42,44,104);fill-rule:nonzero;"></path> </g> <g transform="matrix(4.16667,0,0,4.16667,70.4762,109.489)"> <path d="M0,-3.545C0.349,-4.356 0.709,-4.678 1.843,-3.545C2.976,-2.41 4.11,0 2.976,-0.709C1.843,-1.418 1.134,-1.418 1.134,-0.143C1.134,1.133 -1.417,0.424 -0.992,-0.709C-0.567,-1.844 0.283,-1.024 0.283,-1.992C0.283,-2.961 -0.349,-2.733 0,-3.545" style="fill:rgb(42,44,104);fill-rule:nonzero;"></path> </g> </svg> 