<?xml version="1.0" encoding="UTF-8" standalone="no"?> <svg xmlns:dc="http://purl.org/dc/elements/1.1/" xmlns:cc="http://creativecommons.org/ns#" xmlns:rdf="http://www.w3.org/1999/02/22-rdf-syntax-ns#" xmlns:svg="http://www.w3.org/2000/svg" xmlns="http://www.w3.org/2000/svg" xmlns:sodipodi="http://sodipodi.sourceforge.net/DTD/sodipodi-0.dtd" xmlns:inkscape="http://www.inkscape.org/namespaces/inkscape" version="1.1" id="svg2" xml:space="preserve" width="563.14667" height="812.90668" viewBox="0 0 563.14667 812.90668" sodipodi:docname="Abmelden.eps"><metadata id="metadata8"></metadata><defs id="defs6"></defs><g id="g10" inkscape:groupmode="layer" inkscape:label="ink_ext_XXXXXX" transform="matrix(1.3333333,0,0,-1.3333333,0,812.90667)"><g id="g12" transform="scale(0.1)"><path d="M 4054.74,80.4297 H 39.3984 V 6028.4 H 4145.91 V 963.25" style="fill:#e2900d;fill-opacity:1;fill-rule:nonzero;stroke:none" id="path14"></path><path d="M 4054.74,80.4297 H 39.3984 V 6028.4 H 4145.91 V 963.25 Z" style="fill:none;stroke:#e2900d;stroke-width:2.39;stroke-linecap:butt;stroke-linejoin:miter;stroke-miterlimit:10;stroke-dasharray:none;stroke-opacity:1" id="path16"></path><path d="m 28.082,80.0117 h 4115.09 v 5948.43 H 28.082 Z" style="fill:none;stroke:#282d67;stroke-width:6;stroke-linecap:butt;stroke-linejoin:round;stroke-miterlimit:10;stroke-dasharray:none;stroke-opacity:1" id="path18"></path><path d="M 4106.96,43.9805 H 64.1172 V 5992.41 H 4179.21 V 116.18" style="fill:#ffffff;fill-opacity:1;fill-rule:nonzero;stroke:none" id="path20"></path><path d="M 4106.96,43.9805 H 64.1172 V 5992.41 H 4179.21 V 116.18 Z" style="fill:none;stroke:#282d67;stroke-width:6;stroke-linecap:butt;stroke-linejoin:round;stroke-miterlimit:10;stroke-dasharray:none;stroke-opacity:1" id="path22"></path><path d="m 4106.25,116.93 h 72.98 l -72.98,-72.9808" style="fill:#ffffff;fill-opacity:1;fill-rule:nonzero;stroke:none" id="path24"></path><path d="m 4106.25,116.93 h 72.98 l -72.98,-72.9808 z" style="fill:none;stroke:#282d67;stroke-width:5.53;stroke-linecap:butt;stroke-linejoin:round;stroke-miterlimit:10;stroke-dasharray:none;stroke-opacity:1" id="path26"></path><path d="m 4113.63,115.492 h 60.47 l -60.47,-65.6717" style="fill:#e2900d;fill-opacity:1;fill-rule:nonzero;stroke:none" id="path28"></path><path d="m 4113.63,115.492 h 60.47 l -60.47,-65.6717 z" style="fill:none;stroke:#e2900d;stroke-width:2.39;stroke-linecap:butt;stroke-linejoin:miter;stroke-miterlimit:10;stroke-dasharray:none;stroke-opacity:1" id="path30"></path><path d="m 4106.25,116.93 h 72.98 l -72.98,-72.9808 z" style="fill:none;stroke:#282d67;stroke-width:5.53;stroke-linecap:butt;stroke-linejoin:round;stroke-miterlimit:10;stroke-dasharray:none;stroke-opacity:1" id="path32"></path><g id="g34" transform="scale(10)"><text transform="matrix(1,0,0,-1,222.50839,577.005)" style="font-variant:normal;font-weight:500;font-size:9.5px;font-family:DINPro;-inkscape-font-specification:DINPro-Medium;writing-mode:lr-tb;fill:#282d67;fill-opacity:1;fill-rule:nonzero;stroke:none" id="text38"><tspan x="0 6.5075436 9.5571003 17.983591 20.662647 23.037676 28.386139 33.601639 39.092579" y="0" sodipodi:role="line" id="tspan36">Ulm, den </tspan></text></g><path d="m 2639.7,5770.05 h 612.992 v 108 H 2639.7 Z" style="fill:#d3ccde;fill-opacity:1;fill-rule:nonzero;stroke:none" id="path40"></path><g id="g42" transform="scale(10)"><text transform="matrix(1,0,0,-1,327.74005,577.005)" style="font-variant:normal;font-weight:500;font-size:9.5px;font-family:DINPro;-inkscape-font-specification:DINPro-Medium;writing-mode:lr-tb;fill:#282d67;fill-opacity:1;fill-rule:nonzero;stroke:none" id="text48"><tspan x="0 3.106519 9.5285187 14.658519 18.002443 23.493385 31.919876" y="0" sodipodi:role="line" id="tspan44">(Datum)</tspan><tspan x="-306.23404 -300.20154 -294.85312 -286.42661 -281.21109 -278.25656 -272.90811 -267.41718 -261.92624 -256.61578" y="44" sodipodi:role="line" id="tspan46">Abmeldung </tspan></text></g><path d="m 734.992,5330.05 h 612.988 v 108 H 734.992 Z" style="fill:#d3ccde;fill-opacity:1;fill-rule:nonzero;stroke:none" id="path50"></path><g id="g52" transform="scale(10)"><text transform="matrix(1,0,0,-1,137.26805,533.005)" style="font-variant:normal;font-weight:500;font-size:9.5px;font-family:DINPro;-inkscape-font-specification:DINPro-Medium;writing-mode:lr-tb;fill:#282d67;fill-opacity:1;fill-rule:nonzero;stroke:none" id="text60"><tspan x="0 3.106519 10.060519 15.190519 23.61702 28.832535 31.207592 36.556015 41.77153 46.606979 48.982018 55.328087 57.931137 63.422077 68.770538 73.986038 78.821487 81.928009 84.303055 88.777496 93.97403 99.464973 101.84 107.18846 112.40396 116.66945 119.04449 124.74449 129.44701 134.93796 140.42889 143.38347" y="0" sodipodi:role="line" id="tspan54">(Name des Kindes) von der Schule</tspan><tspan x="-115.76205 -110.06205 -104.84653 -99.355591 -95.090126 -92.71508 -87.40461 -82.189087 -76.973587 -71.482635 -67.217201 -63.920738 -58.705215 -56.33017 -49.908169 -44.778168 -36.351669 -31.136152 -25.64521 -23.270163 -17.779221 -12.28828 -6.9398298 -4.5647726 2.0946798 7.310195 11.575638 15.55609 20.771606 26.262548" y="44" sodipodi:role="line" id="tspan56">Sehr geehrte Damen und Herren,</tspan><tspan x="-115.76205 -108.60857 -106.00551 -101.74006 -99.364998 -94.814545 -92.211479 -86.995979 -81.505035 -76.289513 -70.798569 -68.423523 -63.293533 -54.867054" y="77" sodipodi:role="line" id="tspan58">wir ziehen am </tspan></text></g><path d="m 847.75,4560.05 h 740.551 v 108 H 847.75 Z" style="fill:#d3ccde;fill-opacity:1;fill-rule:nonzero;stroke:none" id="path62"></path><g id="g64" transform="scale(10)"><text transform="matrix(1,0,0,-1,161.30005,456.005)" style="font-variant:normal;font-weight:500;font-size:9.5px;font-family:DINPro;-inkscape-font-specification:DINPro-Medium;writing-mode:lr-tb;fill:#282d67;fill-opacity:1;fill-rule:nonzero;stroke:none" id="text72"><tspan x="0 3.106519 9.5285187 14.658519 18.002453 23.493395 31.919895 34.294933 39.643383 44.85891 49.694309 52.069386 58.576931 67.003395 71.553879 77.0448 82.35527 87.190697 90.297249 92.672272 98.163216 106.58973 109.23167" y="0" sodipodi:role="line" id="tspan66">(Datum des Umzugs) um. </tspan><tspan x="-139.79405 -133.1346 -130.53152 -125.31602 -121.05057 -112.62407 -110.021 -106.67704 -104.30199 -95.875488 -90.659973 -87.705429 -82.35701 -77.141487 -74.766426 -72.163361 -67.460861 -61.969921 -59.594864 -51.168362 -45.952835 -43.34977 -37.858826 -32.643299 -30.268251 -25.613272 -20.41675 -15.714231 -10.223289 -6.9268365 -1.7113214 2.5541406 4.9291883 8.634264 11.009321 19.435774 24.651289 27.254374 32.745316 37.960831 43.451786 45.826832 51.526833 56.723366 62.21431 67.705254 70.080299 74.554741 79.751274 85.242218 87.617249 92.965683 98.180954 102.44643 104.82148 110.52148 115.22397 120.71491 126.20586 129.16042 134.37592 136.75099 141.88095 147.22942" y="33" sodipodi:role="line" id="tspan68">Hiermit melde ich meine Tochter / meinen Sohn von der Schule ab.</tspan><tspan x="-139.79405 -132.84004 -127.71006 -119.28357 -114.06805 -111.693 -106.34455 -101.12905 -96.293625 -93.918564 -87.572525 -84.969437 -79.4785 -74.130066 -68.914543 -64.079117 -61.105663" y="66" sodipodi:role="line" id="tspan70">Name des Kindes: </tspan></text></g><path d="m 1025.68,3900.05 h 786.609 v 108 H 1025.68 Z" style="fill:#d3ccde;fill-opacity:1;fill-rule:nonzero;stroke:none" id="path74"></path><g id="g76" transform="scale(10)"><text transform="matrix(1,0,0,-1,21.5059,357.005)" style="font-variant:normal;font-weight:500;font-size:9.5px;font-family:DINPro;-inkscape-font-specification:DINPro-Medium;writing-mode:lr-tb;fill:#282d67;fill-opacity:1;fill-rule:nonzero;stroke:none" id="text80"><tspan x="0 6.260519 11.47604 16.82448 22.31542 26.580881 29.877335 34.712765 40.061188 45.191189 48.535152 54.026093 62.452595 64.827644 70.176071 75.391594 80.227051 82.602104 88.948151 91.551216 97.04216 102.39059 107.60611 112.44156 115.41502" y="0" sodipodi:role="line" id="tspan78">Geburtsdatum des Kindes: </tspan></text></g><path d="m 1392.94,3570.05 h 786.609 v 108 H 1392.94 Z" style="fill:#d3ccde;fill-opacity:1;fill-rule:nonzero;stroke:none" id="path82"></path><g id="g84" transform="scale(10)"><text transform="matrix(1,0,0,-1,21.5059,324.005)" style="font-variant:normal;font-weight:500;font-size:9.5px;font-family:DINPro;-inkscape-font-specification:DINPro-Medium;writing-mode:lr-tb;fill:#282d67;fill-opacity:1;fill-rule:nonzero;stroke:none" id="text88"><tspan x="0 6.3460512 9.3955984 14.525578 19.313509 24.148941 29.364462 32.337894" y="0" sodipodi:role="line" id="tspan86">Klasse: </tspan></text></g><path d="m 562.18,3240.05 h 786.609 v 108 H 562.18 Z" style="fill:#d3ccde;fill-opacity:1;fill-rule:nonzero;stroke:none" id="path90"></path><g id="g92" transform="scale(10)"><text transform="matrix(1,0,0,-1,21.5059,291.005)" style="font-variant:normal;font-weight:500;font-size:9.5px;font-family:DINPro;-inkscape-font-specification:DINPro-Medium;writing-mode:lr-tb;fill:#282d67;fill-opacity:1;fill-rule:nonzero;stroke:none" id="text96"><tspan x="0 7.8185287 13.034049 15.637115 21.128057 23.503115 29.849154 32.452221 37.943161 43.291595" y="0" sodipodi:role="line" id="tspan94">Mein Kind </tspan></text></g><path d="m 671.711,2910.05 h 687.398 v 108 H 671.711 Z" style="fill:#d3ccde;fill-opacity:1;fill-rule:nonzero;stroke:none" id="path98"></path><g id="g100" transform="scale(10)"><text transform="matrix(1,0,0,-1,138.38205,291.005)" style="font-variant:normal;font-weight:500;font-size:9.5px;font-family:DINPro;-inkscape-font-specification:DINPro-Medium;writing-mode:lr-tb;fill:#282d67;fill-opacity:1;fill-rule:nonzero;stroke:none" id="text104"><tspan x="0 3.106519 10.060519 15.190519 23.61702 28.83252 31.207567 36.556015 41.771545 46.606956 48.982014 55.328056 57.931145 63.422085 68.770546 73.986076 78.821472 81.928024 84.30307 91.456543 94.059616 98.040062 103.38852 105.76355 111.11199 113.7151 118.93062" y="0" sodipodi:role="line" id="tspan102">(Name des Kindes) wird die </tspan></text></g><path d="m 2596.85,2910.05 h 1261.42 v 108 H 2596.85 Z" style="fill:#d3ccde;fill-opacity:1;fill-rule:nonzero;stroke:none" id="path106"></path><g id="g108" transform="scale(10)"><text transform="matrix(1,0,0,-1,21.5059,258.005)" style="font-variant:normal;font-weight:500;font-size:9.5px;font-family:DINPro;-inkscape-font-specification:DINPro-Medium;writing-mode:lr-tb;fill:#282d67;fill-opacity:1;fill-rule:nonzero;stroke:none" id="text112"><tspan x="0 3.1064999 10.0605 15.19049 23.61697 28.832491 31.207539 36.555988 41.771511 46.036972 48.412018 53.902962 59.118477 64.609421 69.824936 75.315887 77.690948 83.390945 88.093445 93.584389 99.075317 102.02985 107.24538 110.35188 112.72694 115.33002 120.82097" y="0" sodipodi:role="line" id="tspan110">(Name der neuen Schule) in </tspan></text></g><path d="m 1446.99,2580.05 h 783.07 v 108 h -783.07 z" style="fill:#d3ccde;fill-opacity:1;fill-rule:nonzero;stroke:none" id="path114"></path><g id="g116" transform="scale(10)"><text transform="matrix(1,0,0,-1,225.47705,258.005)" style="font-variant:normal;font-weight:500;font-size:9.5px;font-family:DINPro;-inkscape-font-specification:DINPro-Medium;writing-mode:lr-tb;fill:#282d67;fill-opacity:1;fill-rule:nonzero;stroke:none" id="text122"><tspan x="0 3.106519 10.060519 15.190499 23.616989 28.832489 31.207565 36.556004 41.77153 46.036964 48.412041 53.902981 59.118481 64.609421 69.824951 75.315895 77.690941 83.390938 86.687424 91.817406 97.16584 100.50981 103.61633 105.99138 111.33981 116.55534 121.39077 126.88174 131.58423 137.07516 142.29066 147.78162 150.42262" y="0" sodipodi:role="line" id="tspan118">(Name der neuen Stadt) besuchen. </tspan><tspan x="-203.97105 -197.46352 -191.97258 -187.13715 -181.92163 -177.94118 -172.72566 -170.3506 -164.85966 -159.64413 -154.1532 -148.93768 -146.56262 -140.53012 -135.18167 -131.20216 -125.98666 -121.19872 -116.36327 -111.14776" y="33" sodipodi:role="line" id="tspan120">Unsere neue Adresse:</tspan></text></g><path d="m 215.063,1920.05 h 1094.88 v 108 H 215.063 Z" style="fill:#d3ccde;fill-opacity:1;fill-rule:nonzero;stroke:none" id="path124"></path><g id="g126" transform="scale(10)"><text transform="matrix(1,0,0,-1,133.46405,192.005)" style="font-variant:normal;font-weight:500;font-size:9.5px;font-family:DINPro;-inkscape-font-specification:DINPro-Medium;writing-mode:lr-tb;fill:#282d67;fill-opacity:1;fill-rule:nonzero;stroke:none" id="text130"><tspan x="0 3.106519 10.060519 15.190519 23.61702 28.83252" y="0" sodipodi:role="line" id="tspan128">(Name)</tspan></text></g><path d="m 215.063,1590.05 h 1094.88 v 108 H 215.063 Z" style="fill:#d3ccde;fill-opacity:1;fill-rule:nonzero;stroke:none" id="path132"></path><g id="g134" transform="scale(10)"><text transform="matrix(1,0,0,-1,133.46405,159.005)" style="font-variant:normal;font-weight:500;font-size:9.5px;font-family:DINPro;-inkscape-font-specification:DINPro-Medium;writing-mode:lr-tb;fill:#282d67;fill-opacity:1;fill-rule:nonzero;stroke:none" id="text138"><tspan x="0 3.106519 8.8065186 12.150462 16.320925 21.450924 26.913448 32.128963" y="0" sodipodi:role="line" id="tspan136">(Straße)</tspan></text></g><path d="m 215.063,1370.05 h 1094.88 v 108 H 215.063 Z" style="fill:#d3ccde;fill-opacity:1;fill-rule:nonzero;stroke:none" id="path140"></path><path d="m 215.063,1150.05 h 1094.88 v 108 H 215.063 Z" style="fill:#d3ccde;fill-opacity:1;fill-rule:nonzero;stroke:none" id="path142"></path><g id="g144" transform="scale(10)"><text transform="matrix(1,0,0,-1,133.46405,115.005)" style="font-variant:normal;font-weight:500;font-size:9.5px;font-family:DINPro;-inkscape-font-specification:DINPro-Medium;writing-mode:lr-tb;fill:#282d67;fill-opacity:1;fill-rule:nonzero;stroke:none" id="text150"><tspan x="0 3.106519 9.0820074 14.278507 19.018942 22.362913 25.317451 30.532967 33.136032 36.479996 41.030445 46.160416 51.651382 54.70092 57.075977 62.566906 68.057854 73.406265 75.781311 81.481308 84.777748 89.907745 95.256157 98.600128" y="0" sodipodi:role="line" id="tspan146">(Postleitzahl und Stadt)</tspan><tspan x="-111.95805 -106.59048 -102.61002 -97.394508 -91.903564 -86.412628 -81.064201 -78.014641 -75.411575 -70.709076 -65.21814 -60.002613 -57.62756 -51.367058 -47.101597 -41.610653 -36.148136" y="33" sodipodi:role="line" id="tspan148">Freundliche Grüße</tspan></text></g><path d="m 215.063,490.051 h 921.258 v 108 H 215.063 Z" style="fill:#d3ccde;fill-opacity:1;fill-rule:nonzero;stroke:none" id="path152"></path><g id="g154" transform="scale(10)"><text transform="matrix(1,0,0,-1,21.5059,27.0051)" style="font-variant:normal;font-weight:500;font-size:9.5px;font-family:DINPro;-inkscape-font-specification:DINPro-Medium;writing-mode:lr-tb;fill:#282d67;fill-opacity:1;fill-rule:nonzero;stroke:none" id="text158"><tspan x="0 6.5075312 11.99847 15.294932 20.51045 24.680912 29.516344 34.218842 39.709778 43.975243 46.578308 49.789345 53.133289 55.508347 61.331821 64.381371 67.677818 72.893356 77.158813" y="0" sodipodi:role="line" id="tspan156">Unterschrift Eltern</tspan></text></g><g id="g160" transform="scale(10)"><text transform="matrix(1,0,0,-1,222.50839,566.005)" style="font-variant:normal;font-weight:500;font-size:9.5px;font-family:DINPro;-inkscape-font-specification:DINPro-Medium;writing-mode:lr-tb;fill:#e2900d;fill-opacity:1;fill-rule:nonzero;stroke:none" id="text196"><tspan x="0 6.5075436 9.5571003 17.983591 20.662838 105.24042 108.34694 113.69537 118.82536 122.12183 127.33733" y="0" sodipodi:role="line" id="tspan162">Ulm, (date)</tspan><tspan x="-201.00249 -194.58049 -189.36497 -185.38451 -180.16901 -174.85855 -172.25546 -167.51503 -164.17108 -160.00063 -154.87064 -151.52667 -148.9236 -143.72708 -138.23613 -85.311272 -82.204773 -77.502274 -72.01133 -69.408264 -66.453728 -61.105278 -59.034248 -54.198811 -51.823753 -46.332813 -41.202843 -32.776344 -27.560816 -24.454317 -22.07926 -18.868212 -14.887769 -9.6912355 -1.2647455 1.1103021 5.9457269 10.648246 16.139189 21.335688 26.532221" y="44" sodipodi:role="line" id="tspan164">Deregistration (child’s name) from school</tspan><tspan x="-201.00249 -196.3475 -191.15099 -188.77594 -181.62247 -176.13152 -170.935 -162.50851 -160.13345 -157.5304 -154.18645 -151.81139 -143.38489 -138.30238 -133.76135 -131.38631 -126.8263 -121.62978 -116.13883 -111.57883 -106.3633 -102.09785 -96.606926" y="88" sodipodi:role="line" id="tspan166">To whom it may concern,</tspan><tspan x="-201.00249 -193.01297 -187.79745 -185.42239 -180.2924 -176.31195 -171.09644 -168.72139 -160.29491 -155.19337 -150.62395 -148.02086 -142.52992 -137.21947 -134.84441 -129.35345 -124.15694 -118.66599 -113.83057 -108.61505 -106.24 -101.04346 -95.552505 -61.371677 -58.265179 -52.916729 -47.786762 -44.490307 -39.27478 -36.899723 -31.703203 -28.492165 -26.117107 -17.690626 -12.589088 -8.1146736 -2.8991463 0.20737265" y="121" sodipodi:role="line" id="tspan168">We are moving house on (date of move).</tspan><tspan x="-201.00249 -198.11444 -195.73938 -190.24846 -185.03294 -181.05249 -175.83696 -170.48851 -165.94749 -163.57243 -158.224 -153.00848 -149.02803 -143.81252 -138.50204 -135.89897 -131.15761 -127.86114 -122.64561 -118.38018 -116.00512 -107.57863 -103.03761 -100.66256 -95.827103 -90.630585 -85.139633 -82.76458 -79.059547 -76.684494 -71.336052 -66.206047 -60.715107 -55.404633 -49.913692 -46.617237 -41.401722 -37.136261 -34.761223 -31.550184 -27.569714 -22.373192 -13.946702 -11.571673 -8.2276735 -2.7367551 2.4787447 4.8538208 9.68927 14.391789 19.882683 25.079508 30.276041 33.3256" y="154" sodipodi:role="line" id="tspan170">I hereby deregister my son / daughter from the school.</tspan><tspan x="-201.00249 -194.94144 -189.45049 -186.84743 -183.89288 -178.54443 -176.4734 -171.63797 -169.26291 -163.77197 -158.64198 -150.21548 -144.99995" y="187" sodipodi:role="line" id="tspan172">Child’s name:</tspan><tspan x="-201.00249" y="209" id="tspan174"> </tspan><tspan x="-201.00249 -194.94144 -189.45049 -186.84743 -183.89288 -178.54443 -176.4734 -171.63797 -169.26291 -163.91446 -158.78447 -155.48801 -150.27249 -147.89743 -142.70091 -139.48988 -137.11482 -131.7664 -129.16331 -124.89787 -121.55391 -116.06297 -113.08921" y="220" sodipodi:role="line" id="tspan176">Child’s date of birth: </tspan><tspan x="-201.00249 -194.94144 -191.89189 -186.7619 -181.97398 -177.13855 -174.16499" y="253" sodipodi:role="line" id="tspan178">Class: </tspan><tspan x="-201.00249 -193.18396 -188.64294 -186.2679 -181.5654 -176.07446 -173.47139 -170.51685 -165.1684 -84.891663 -81.785149 -77.082649 -71.591713 -68.98864 -66.034103 -60.68565 -58.614605 -53.779179 -51.404121 -45.91349 -40.783493 -32.356983 -27.141466 -24.034967 -21.65991 -14.506467 -11.903362 -8.8538055 -5.8042674 -3.4292388 1.7007612 5.0447044 8.3411665 13.556694 19.047636 24.301079" y="286" sodipodi:role="line" id="tspan180">My child (child’s name) will attend </tspan><tspan x="-201.00249 -197.896 -192.40506 -187.27507 -178.84857 -173.63306 -171.258 -166.06148 -162.85045 -160.47539 -154.98445 -149.81644 -142.66298 -140.28792 -135.4525 -130.75 -125.25904 -120.06252 -114.86598 -111.81644 -108.70992 -106.33487 -103.7318 -98.240387 2.5451279 5.651628 11.14257 16.27257 24.69906 29.91456 32.289635 37.486168 40.69751 43.072586 48.563477 53.731522 60.884991 63.260021 66.556503 71.705528 78.858994 84.349937 87.456459" y="319" sodipodi:role="line" id="tspan182">(name of new school) in (name of new town).</tspan><tspan x="-201.00249 -194.77052 -189.27959 -185.01413 -182.63908 -177.14815 -171.98013 -164.82668 -162.45161 -157.32162 -151.97319 -146.62474 -142.64429 -137.42877 -132.64084 -127.80541" y="352" sodipodi:role="line" id="tspan184">Our new address:</tspan><tspan x="-201.00249 -89.375061 -86.268539 -79.314537 -74.18454 -65.757492 -60.541977" y="385" sodipodi:role="line" id="tspan186"> (Name)</tspan><tspan x="-201.00249 -89.375061 -86.268539 -80.236038 -74.887604 -69.53949 -65.559052 -60.343521 -55.555595 -50.720146" y="418" sodipodi:role="line" id="tspan188"> (Address)</tspan><tspan x="-201.00249 -89.185081 -86.07856 -80.103073 -74.906548 -70.166489 -66.822533 -64.447472 -59.887474 -54.690941 -49.342491 -44.126976 -41.751919 -36.621948 -31.131006 -25.782557 -23.407499 -20.111067 -14.962067 -7.8085666 -2.3176482" y="462" sodipodi:role="line" id="tspan190"> (Post code and town)</tspan><tspan x="-201.00249 -196.35693 -191.1604 -185.66946 -181.49901 -176.66357 -174.28851 -169.45309 -166.85002 -161.35909 -156.79909 -151.58356 -147.60312 -142.3876 -139.62306" y="495" sodipodi:role="line" id="tspan192">Yours sincerely</tspan><tspan x="-201.00249 -195.02701 -189.89702 -185.91656 -180.70105 -175.21011 -171.91365 -167.26823 -164.62718 -162.25214 -157.41672 -154.81363 -149.50316 -144.01222 -138.88222 -135.53827 -130.04733 -126.06688" y="550" sodipodi:role="line" id="tspan194">Parents’ signature</tspan></text></g></g></g></svg> 