<?xml version="1.0" encoding="UTF-8" standalone="no"?> <svg xmlns:dc="http://purl.org/dc/elements/1.1/" xmlns:cc="http://creativecommons.org/ns#" xmlns:rdf="http://www.w3.org/1999/02/22-rdf-syntax-ns#" xmlns:svg="http://www.w3.org/2000/svg" xmlns="http://www.w3.org/2000/svg" xmlns:sodipodi="http://sodipodi.sourceforge.net/DTD/sodipodi-0.dtd" xmlns:inkscape="http://www.inkscape.org/namespaces/inkscape" version="1.1" id="svg2" xml:space="preserve" width="563.20001" height="247.46667" viewBox="0 0 563.20001 247.46667" sodipodi:docname="Krankschreiben_2.eps"><metadata id="metadata8"></metadata><defs id="defs6"></defs><g id="g10" inkscape:groupmode="layer" inkscape:label="ink_ext_XXXXXX" transform="matrix(1.3333333,0,0,-1.3333333,0,247.46667)"><g id="g12" transform="scale(0.1)"><path d="M 4060.08,79.75 H 44.7422 V 1810.33 H 4151.25 V 962.57" style="fill:#e2900d;fill-opacity:1;fill-rule:nonzero;stroke:none" id="path14"></path><path d="M 4060.08,79.75 H 44.7422 V 1810.33 H 4151.25 V 962.57 Z" style="fill:none;stroke:#e2900d;stroke-width:2.39;stroke-linecap:butt;stroke-linejoin:miter;stroke-miterlimit:10;stroke-dasharray:none;stroke-opacity:1" id="path16"></path><path d="m 33.4258,79.3281 h 4115.09 v 1731.03 H 33.4258 Z" style="fill:none;stroke:#282d67;stroke-width:6;stroke-linecap:butt;stroke-linejoin:round;stroke-miterlimit:10;stroke-dasharray:none;stroke-opacity:1" id="path18"></path><path d="M 4112.3,43.3008 H 69.4609 V 1774.33 H 4184.55 V 115.5" style="fill:#ffffff;fill-opacity:1;fill-rule:nonzero;stroke:none" id="path20"></path><path d="M 4112.3,43.3008 H 69.4609 V 1774.33 H 4184.55 V 115.5 Z" style="fill:none;stroke:#282d67;stroke-width:6;stroke-linecap:butt;stroke-linejoin:round;stroke-miterlimit:10;stroke-dasharray:none;stroke-opacity:1" id="path22"></path><path d="m 4111.6,116.25 h 72.98 L 4111.6,43.2695" style="fill:#ffffff;fill-opacity:1;fill-rule:nonzero;stroke:none" id="path24"></path><path d="m 4111.6,116.25 h 72.98 L 4111.6,43.2695 Z" style="fill:none;stroke:#282d67;stroke-width:5.53;stroke-linecap:butt;stroke-linejoin:round;stroke-miterlimit:10;stroke-dasharray:none;stroke-opacity:1" id="path26"></path><path d="m 4118.97,114.809 h 60.47 l -60.47,-65.6684" style="fill:#e2900d;fill-opacity:1;fill-rule:nonzero;stroke:none" id="path28"></path><path d="m 4118.97,114.809 h 60.47 l -60.47,-65.6684 z" style="fill:none;stroke:#e2900d;stroke-width:2.39;stroke-linecap:butt;stroke-linejoin:miter;stroke-miterlimit:10;stroke-dasharray:none;stroke-opacity:1" id="path30"></path><path d="m 4111.6,116.25 h 72.98 L 4111.6,43.2695 Z" style="fill:none;stroke:#282d67;stroke-width:5.53;stroke-linecap:butt;stroke-linejoin:round;stroke-miterlimit:10;stroke-dasharray:none;stroke-opacity:1" id="path32"></path><path d="m 1405.29,1483.38 h 694.492 v 108 H 1405.29 Z" style="fill:#d3ccde;fill-opacity:1;fill-rule:nonzero;stroke:none" id="path34"></path><path d="m 220.406,165.371 h 992.133 v 108 H 220.406 Z" style="fill:#d3ccde;fill-opacity:1;fill-rule:nonzero;stroke:none" id="path36"></path><path d="m 423.086,1153.38 h 519.691 v 108 H 423.086 Z" style="fill:#d3ccde;fill-opacity:1;fill-rule:nonzero;stroke:none" id="path38"></path><path d="m 1318.83,1153.38 h 762.523 v 108 H 1318.83 Z" style="fill:#d3ccde;fill-opacity:1;fill-rule:nonzero;stroke:none" id="path40"></path><g id="g42" transform="scale(10)"><text transform="matrix(1,0,0,-1,22.0402,148.4)" style="font-variant:normal;font-weight:500;font-size:9.5px;font-family:DINPro;-inkscape-font-specification:DINPro-Medium;writing-mode:lr-tb;fill:#282d67;fill-opacity:1;fill-rule:nonzero;stroke:none" id="text52"><tspan x="0 7.8185287 13.034049 15.637115 21.128057 26.343576 28.718634 33.373604 38.570137 43.272636 48.76358 52.060043 57.275562 61.541023 63.916073 67.621117 69.996178 78.422661 83.638184 86.241272 91.732216 94.107269 99.807266 105.00379 110.49474 115.98567 189.6122 192.71872 199.67271 204.80272 213.2292 218.4447 220.81976 226.1682 231.38373 236.21918 238.59422 244.94026 247.5433 253.03432 258.38272 263.59827 268.43372 271.54019 276.29031 281.21133 286.40787 291.89883 297.38977 300.68619" y="0" sodipodi:role="line" id="tspan44">Meine Tochter / mein Sohn (Name des Kindes) konnte</tspan><tspan x="0 4.4744334 9.6709642 18.097445 75.098709 80.447174 83.05024 87.885674 90.260719 94.811172 100.30212 108.7286 187.1058 192.45427 195.05731 200.27284 202.64789 208.34789 213.05038 218.54132 224.03227 226.9868 232.20233 234.57741 240.0683 242.6714 247.37393 252.86484 256.2088 258.58383 263.93231 269.14783 273.98328 279.47421 284.17673 289.66766 294.88318 300.37415 302.95718" y="33" sodipodi:role="line" id="tspan46">vom bis zum die Schule nicht besuchen, </tspan><tspan x="0 7.1059618 12.32148 14.924546 17.974094 20.349152 25.184578 27.787645 33.003166 35.378212 39.083271 41.458317 46.67384 50.939301 53.31435 58.615391 62.786816 67.916786 73.407722 78.708786 81.083847 88.190735 93.32074 96.826187" y="66" sodipodi:role="line" id="tspan48">weil sie / er krank war.</tspan><tspan x="0 6.5075312 11.99847 15.294932 20.51045 24.680912 29.516344 34.218842 39.709778 43.975243 46.578308 49.789345 53.133289 55.508347 60.856796 66.072319 70.337761 72.712814 78.536301 81.585838 84.882301 90.097816 94.363281" y="99" sodipodi:role="line" id="tspan50">Unterschrift der Eltern</tspan></text></g><g id="g54" transform="scale(10)"><text transform="matrix(1,0,0,-1,22.0402,137.4)" style="font-variant:normal;font-weight:500;font-size:9.5px;font-family:DINPro;-inkscape-font-specification:DINPro-Medium;writing-mode:lr-tb;fill:#e2900d;fill-opacity:1;fill-rule:nonzero;stroke:none" id="text64"><tspan x="0 7.8185287 12.359548 14.734595 20.083044 25.213034 30.703976 36.014439 41.505379 44.80183 50.017353 54.282814 56.657871 60.362919 62.737976 67.57341 72.769936 78.26088 142.3873 145.4938 150.1963 155.68723 158.29031 161.24484 166.59329 168.664 173.49942 175.87447 181.36542 186.49539 194.92191 200.13744 203.24393 205.619 210.17899 215.37552 220.86649 223.82103 229.16946 231.54454 237.03546 242.23195 245.57593 247.951 253.08096 256.42493 259.72137 264.93689 270.42783 275.77628 278.15134 282.98679 287.68927 293.18021 298.37674 303.57327 306.52783" y="0" sodipodi:role="line" id="tspan56">My daughter / son (child’s name) could not attend school </tspan><tspan x="0 3.2110286 7.1914811 12.388011 20.814455 74.375267 77.67173 82.773254" y="33" sodipodi:role="line" id="tspan58">from to </tspan><tspan x="0 5.3484402 10.839379 16.05488 18.429935 21.726389 26.922918 29.297966 34.133396 36.736465 41.438965 46.739994 52.230938 57.446453 62.234386 67.069832" y="66" sodipodi:role="line" id="tspan60">due to sickness.</tspan><tspan x="0 5.9754791 11.105469 15.085921 20.301441 25.792381 29.088833 33.734257 36.375305 38.750362 43.585781 46.188866 51.499329 56.990269 62.12027 65.464218 70.955154 74.935608" y="99" sodipodi:role="line" id="tspan62">Parents’ signature</tspan></text></g></g></g></svg> 