<?xml version="1.0" encoding="UTF-8"?><svg id="a" xmlns="http://www.w3.org/2000/svg" xmlns:xlink="http://www.w3.org/1999/xlink" viewBox="0 0 1000 850.29"><defs><style>.d{fill:none;}.e{fill:#e59c00;}.f{fill:#fff;}.g{fill:#dad6e4;}.h{fill:#2b2961;}.i{clip-path:url(#c);}.j{clip-path:url(#b);}</style><clipPath id="b"><rect class="d" y="14.2" width="1000" height="821.89"/></clipPath><clipPath id="c"><rect class="d" y="14.2" width="1000" height="821.89"/></clipPath></defs><polygon class="e" points="3.3 14.9 3.3 735.32 928.49 735.32 949.5 210.24 949.5 14.9 3.3 14.9"/><path class="e" d="M928.76,735.6H3.02V14.63H949.77V210.24l-21.02,525.36Zm-925.18-.55H928.23l21-524.82V15.18H3.58V735.05Z"/><g class="j"><path class="h" d="M948.87,736.11H.69c-.38,0-.69-.31-.69-.69V14.89c0-.38,.31-.69,.69-.69H948.87c.38,0,.69,.31,.69,.69V735.42c0,.38-.31,.69-.69,.69ZM1.38,734.73H948.17V15.58H1.38V734.73Z"/></g><polygon class="f" points="9 23.2 9 743.72 848.92 743.72 999.31 835.4 957.17 684.78 957.17 23.2 9 23.2"/><g class="i"><path class="h" d="M999.31,836.09c-.12,0-.25-.03-.36-.1l-150.22-91.57H9c-.38,0-.69-.31-.69-.69V23.2c0-.38,.31-.69,.69-.69H957.17c.38,0,.69,.31,.69,.69V684.68l42.11,150.53c.08,.27-.02,.57-.25,.74-.12,.09-.27,.14-.42,.14ZM9.69,743.03H848.92c.13,0,.25,.03,.36,.1l148.89,90.76-41.67-148.93c-.02-.06-.03-.12-.03-.19V23.89H9.69V743.03Z"/><path class="e" d="M158.39,713.28v-2.69l-2.36-2.34,2.36-2.32v-2.69l-5.03,5.01,5.03,5.03Zm-5.54,0v-2.69l-2.34-2.34,2.34-2.32v-2.69l-5.03,5.01,5.03,5.03Zm-7.77-1.75h-2.67v2.67h2.67v-2.67Zm-2.01-7.51c-.76-.76-1.58-1.05-2.65-1.05-1.25,0-2.39,.55-2.96,1.33v-1.2h-2.19v11.09h2.23v-6.74c0-1.53,1.01-2.5,2.21-2.5,.76,0,1.16,.24,1.66,.74l1.68-1.68Zm-11.49-5.47h-2.36v2.36h2.36v-2.36Zm-.07,4.55h-2.23v11.09h2.23v-11.09Zm-7.7,5.54c0,1.2-.09,2.36-.76,3.04-.42,.41-.99,.66-1.64,.66s-1.21-.24-1.62-.66c-.68-.68-.76-1.84-.76-3.04s.09-2.37,.76-3.04c.42-.42,.97-.64,1.62-.64s1.23,.22,1.64,.64c.68,.68,.76,1.84,.76,3.04m2.23,0c0-1.86-.26-3.26-1.31-4.36-.72-.74-1.82-1.31-3.33-1.31s-2.59,.57-3.31,1.31c-1.05,1.09-1.31,2.5-1.31,4.36s.26,3.28,1.31,4.38c.72,.74,1.79,1.31,3.31,1.31s2.61-.57,3.33-1.31c1.05-1.09,1.31-2.5,1.31-4.38m-10.68-5.54h-2.36l-2.61,7.81-2.63-7.81h-2.36l4.07,11.09h1.82l4.07-11.09Zm-13.53,4.64h-4.99c.02-.68,.07-1.01,.29-1.51,.35-.83,1.16-1.4,2.21-1.4s1.84,.57,2.19,1.4c.22,.5,.29,.83,.31,1.51m2.21,1.55v-.98c0-3.15-1.73-5.34-4.71-5.34s-4.7,2.08-4.7,5.67c0,4.23,2.21,5.69,4.99,5.69,1.95,0,3.02-.59,4.16-1.73l-1.42-1.34c-.79,.79-1.44,1.14-2.69,1.14-1.82,0-2.82-1.21-2.82-3.11h7.2Zm-10.2-5.27c-.77-.76-1.58-1.05-2.65-1.05-1.25,0-2.38,.55-2.95,1.33v-1.2h-2.19v11.09h2.23v-6.74c0-1.53,1.01-2.5,2.21-2.5,.77,0,1.16,.24,1.66,.74l1.69-1.68Zm-17.03,10.18v-11.09h-2.23v6.76c0,1.71-1.05,2.48-2.3,2.48s-2.24-.74-2.24-2.47v-6.76h-2.23v7.09c0,1.25,.26,2.3,1.12,3.13,.65,.63,1.6,1,2.74,1s2.19-.41,2.96-1.25v1.12h2.19Zm-15.3-5.14h-4.79l2.43-6.92,2.36,6.92Zm4.25,5.14l-5.71-15.58h-1.91l-5.71,15.58h2.52l1.07-3.13h6.15l1.07,3.13h2.52Z"/><path class="e" d="M214.32,635.49h-2.67v2.67h2.67v-2.67Zm-8.07-2.89c0,1.97-.28,3.7-2.3,3.7s-2.32-1.73-2.32-3.7,.31-3.68,2.32-3.68,2.3,1.71,2.3,3.68m2.23,0c0-1.69-.13-3.57-1.25-4.68-.61-.61-1.6-.98-2.71-.98-1.21,0-2.1,.3-2.93,1.31v-1.18h-2.19v15.58h2.23v-5.62c.81,.96,1.73,1.27,2.91,1.27,1.12,0,2.08-.37,2.69-.98,1.12-1.12,1.25-3.02,1.25-4.71m-12.85,5.56v-11.09h-2.23v6.76c0,1.71-1.05,2.48-2.3,2.48s-2.24-.74-2.24-2.47v-6.76h-2.23v7.09c0,1.25,.26,2.3,1.12,3.13,.66,.63,1.6,1,2.74,1s2.19-.41,2.96-1.25v1.12h2.19Zm-14.36-5.56c0,1.2-.09,2.36-.77,3.04-.41,.41-.99,.66-1.64,.66s-1.21-.24-1.62-.66c-.68-.68-.77-1.84-.77-3.04s.09-2.37,.77-3.04c.41-.42,.96-.64,1.62-.64s1.23,.22,1.64,.64c.68,.68,.77,1.84,.77,3.04m2.23,0c0-1.86-.26-3.26-1.31-4.36-.72-.74-1.82-1.31-3.33-1.31s-2.58,.57-3.3,1.31c-1.05,1.09-1.31,2.5-1.31,4.36s.26,3.28,1.31,4.38c.72,.74,1.79,1.31,3.3,1.31s2.61-.57,3.33-1.31c1.05-1.09,1.31-2.5,1.31-4.38m-11.14,4.12l-1.53-1.47c-.7,.76-1.25,1.05-2.12,1.05s-1.58-.35-2.06-.99c-.48-.61-.66-1.42-.66-2.71s.18-2.08,.66-2.69c.48-.64,1.2-.99,2.06-.99s1.42,.29,2.12,1.05l1.53-1.49c-1.05-1.12-2.12-1.55-3.65-1.55-2.5,0-4.94,1.51-4.94,5.67s2.45,5.69,4.94,5.69c1.53,0,2.6-.46,3.65-1.57m-11.8,1.44v-11.09h-2.23v6.76c0,1.71-1.05,2.48-2.3,2.48s-2.24-.74-2.24-2.47v-6.76h-2.23v7.09c0,1.25,.26,2.3,1.12,3.13,.66,.63,1.6,1,2.74,1s2.19-.41,2.96-1.25v1.12h2.19Zm-14.77-4c0,.79-.15,1.31-.48,1.64-.59,.57-1.23,.64-2.08,.64-1.4,0-2.04-.57-2.04-1.58s.68-1.6,1.99-1.6h2.61v.9Zm2.23,4v-7.42c0-2.52-1.53-3.81-4.57-3.81-1.84,0-2.93,.37-3.98,1.59l1.46,1.38c.61-.79,1.21-1.07,2.43-1.07,1.73,0,2.43,.68,2.43,2.08v.79h-2.93c-2.54,0-3.83,1.33-3.83,3.19,0,.94,.31,1.8,.87,2.39,.68,.68,1.6,1,2.98,1s2.15-.33,2.96-1.14v1h2.19Zm-13.55-6.45h-4.99c.02-.68,.06-1.01,.28-1.51,.35-.83,1.16-1.4,2.21-1.4s1.84,.57,2.19,1.4c.22,.5,.28,.83,.31,1.51m2.21,1.55v-.98c0-3.15-1.73-5.34-4.71-5.34s-4.7,2.08-4.7,5.67c0,4.23,2.21,5.69,4.99,5.69,1.95,0,3.02-.59,4.16-1.73l-1.42-1.34c-.79,.79-1.44,1.14-2.69,1.14-1.82,0-2.82-1.21-2.82-3.11h7.2Zm-14.31-.65c0,1.97-.29,3.7-2.3,3.7s-2.32-1.73-2.32-3.7,.31-3.68,2.32-3.68,2.3,1.71,2.3,3.68m2.23,0c0-1.69-.13-3.57-1.24-4.68-.61-.61-1.58-.98-2.69-.98-1.18,0-2.1,.28-2.91,1.24v-5.6h-2.23v15.58h2.19v-1.18c.83,1,1.73,1.31,2.94,1.31,1.12,0,2.1-.37,2.71-.98,1.12-1.12,1.24-3.02,1.24-4.71m-18.25-10.09h-2.36v2.36h2.36v-2.36Zm-.07,4.55h-2.23v11.09h2.23v-11.09Zm-5.03,9.65l-1.53-1.47c-.7,.76-1.25,1.05-2.12,1.05s-1.58-.35-2.06-.99c-.48-.61-.66-1.42-.66-2.71s.18-2.08,.66-2.69c.48-.64,1.2-.99,2.06-.99s1.42,.29,2.12,1.05l1.53-1.49c-1.05-1.12-2.12-1.55-3.65-1.55-2.5,0-4.94,1.51-4.94,5.67s2.45,5.69,4.94,5.69c1.53,0,2.6-.46,3.65-1.57m-9.39-8.74c-.77-.76-1.58-1.05-2.65-1.05-1.25,0-2.38,.55-2.95,1.33v-1.2h-2.19v11.09h2.23v-6.74c0-1.53,1.01-2.5,2.21-2.5,.77,0,1.16,.24,1.66,.74l1.69-1.68Zm-13.18,3.72h-4.99c.02-.68,.06-1.01,.28-1.51,.35-.83,1.16-1.4,2.21-1.4s1.84,.57,2.19,1.4c.22,.5,.28,.83,.31,1.51m2.21,1.55v-.98c0-3.15-1.73-5.34-4.71-5.34s-4.7,2.08-4.7,5.67c0,4.23,2.21,5.69,4.99,5.69,1.95,0,3.02-.59,4.16-1.73l-1.42-1.34c-.79,.79-1.44,1.14-2.69,1.14-1.82,0-2.82-1.21-2.82-3.11h7.2Zm-12.85,4.9v-15.58h-2.36l-4.47,9.7-4.56-9.7h-2.36v15.58h2.36v-10.42l3.68,7.59h1.75l3.59-7.59v10.42h2.36Z"/><path class="e" d="M693.4,559.46h-2.67v2.67h2.67v-2.67Zm-7.99-3.79h-4.99c.02-.68,.06-1.01,.28-1.51,.35-.83,1.16-1.4,2.21-1.4s1.84,.57,2.19,1.4c.22,.5,.28,.83,.31,1.51m2.21,1.55v-.98c0-3.15-1.73-5.34-4.71-5.34s-4.71,2.08-4.71,5.67c0,4.23,2.21,5.69,4.99,5.69,1.95,0,3.02-.59,4.16-1.73l-1.42-1.34c-.79,.79-1.44,1.14-2.69,1.14-1.82,0-2.82-1.21-2.82-3.11h7.2Zm-10.97,4.9v-1.9h-.99c-.9,0-1.2-.44-1.2-1.29v-12.39h-2.23v12.52c0,1.64,.92,3.06,3.04,3.06h1.38Zm-9.82-5.56c0,1.2-.09,2.36-.77,3.04-.42,.41-.99,.66-1.64,.66s-1.21-.24-1.62-.66c-.68-.68-.77-1.84-.77-3.04s.09-2.37,.77-3.04c.41-.42,.96-.64,1.62-.64s1.23,.22,1.64,.64c.68,.68,.77,1.84,.77,3.04m2.23,0c0-1.86-.26-3.26-1.31-4.36-.72-.74-1.82-1.31-3.33-1.31s-2.58,.57-3.31,1.31c-1.05,1.09-1.31,2.5-1.31,4.36s.26,3.28,1.31,4.38c.72,.74,1.79,1.31,3.31,1.31s2.61-.57,3.33-1.31c1.05-1.09,1.31-2.5,1.31-4.38m-11.14,4.12l-1.53-1.47c-.7,.76-1.25,1.05-2.12,1.05s-1.58-.35-2.06-.99c-.48-.61-.66-1.42-.66-2.71s.18-2.08,.66-2.69c.48-.64,1.21-.99,2.06-.99s1.42,.29,2.12,1.05l1.53-1.49c-1.05-1.12-2.12-1.55-3.66-1.55-2.5,0-4.94,1.51-4.94,5.67s2.45,5.69,4.94,5.69c1.53,0,2.61-.46,3.66-1.57m-12.87-15.21h-2.47l-1.64,3.54h1.68l2.43-3.54Zm-.55,10.2h-4.99c.02-.68,.06-1.01,.28-1.51,.35-.83,1.16-1.4,2.21-1.4s1.84,.57,2.19,1.4c.22,.5,.28,.83,.31,1.51m2.21,1.55v-.98c0-3.15-1.73-5.34-4.71-5.34s-4.71,2.08-4.71,5.67c0,4.23,2.21,5.69,4.99,5.69,1.95,0,3.02-.59,4.16-1.73l-1.42-1.34c-.79,.79-1.44,1.14-2.69,1.14-1.82,0-2.82-1.21-2.82-3.11h7.2Zm-12.54-8.38v-2.3h-2.45v4.29l2.45-1.99Zm-3.74,13.29v-1.9h-.98c-.9,0-1.21-.44-1.21-1.29v-12.39h-2.23v12.52c0,1.64,.92,3.06,3.04,3.06h1.38Zm-16.66-13.11l-1.64-3.54h-2.47l2.43,3.54h1.68Zm.94,9.11c0,.79-.15,1.31-.48,1.64-.59,.57-1.23,.64-2.08,.64-1.4,0-2.04-.57-2.04-1.58s.68-1.6,1.99-1.6h2.61v.9Zm2.23,4v-7.42c0-2.52-1.53-3.81-4.57-3.81-1.84,0-2.93,.37-3.98,1.59l1.46,1.38c.61-.79,1.21-1.07,2.43-1.07,1.73,0,2.43,.68,2.43,2.08v.79h-2.94c-2.54,0-3.83,1.33-3.83,3.19,0,.94,.31,1.8,.88,2.39,.68,.68,1.59,1,2.97,1s2.15-.33,2.96-1.14v1h2.18Zm-17.49-2.56v-10.46c0-.88-.06-1.73-.53-2.54-.44-.79-1.05-1.38-1.75-2.08l-1.53,1.53c.53,.53,.88,.83,1.21,1.44,.22,.41,.33,1.01,.33,1.77v10.2c0,.76-.11,1.36-.33,1.77-.33,.61-.68,.92-1.21,1.44l1.53,1.53c.7-.7,1.31-1.29,1.75-2.08,.46-.81,.53-1.66,.53-2.54m-5.34-7.62c-.76-.76-1.58-1.05-2.65-1.05-1.25,0-2.39,.55-2.96,1.33v-1.2h-2.19v11.09h2.23v-6.74c0-1.53,1.01-2.5,2.21-2.5,.76,0,1.16,.24,1.66,.74l1.68-1.68Zm-11.56,10.18v-11.09h-2.23v6.76c0,1.71-1.05,2.48-2.3,2.48s-2.23-.74-2.23-2.47v-6.76h-2.23v7.09c0,1.25,.26,2.3,1.12,3.13,.65,.63,1.6,1,2.74,1s2.19-.41,2.96-1.25v1.12h2.19Zm-14.36-5.56c0,1.2-.09,2.36-.76,3.04-.42,.41-.99,.66-1.64,.66s-1.21-.24-1.62-.66c-.68-.68-.76-1.84-.76-3.04s.09-2.37,.76-3.04c.42-.42,.97-.64,1.62-.64s1.23,.22,1.64,.64c.68,.68,.76,1.84,.76,3.04m2.23,0c0-1.86-.26-3.26-1.31-4.36-.72-.74-1.82-1.31-3.33-1.31s-2.59,.57-3.31,1.31c-1.05,1.09-1.31,2.5-1.31,4.36s.26,3.28,1.31,4.38c.72,.74,1.79,1.31,3.31,1.31s2.61-.57,3.33-1.31c1.05-1.09,1.31-2.5,1.31-4.38m-11.73,5.56v-1.9h-.92c-.83,0-1.23-.48-1.23-1.29v-5.98h2.15v-1.71h-2.15v-3.39h-2.23v3.39h-1.27v1.71h1.27v6.09c0,1.59,.96,3.08,3.04,3.08h1.33Zm-10.03-6.45h-4.99c.02-.68,.07-1.01,.29-1.51,.35-.83,1.16-1.4,2.21-1.4s1.84,.57,2.19,1.4c.22,.5,.29,.83,.31,1.51m2.21,1.55v-.98c0-3.15-1.73-5.34-4.71-5.34s-4.7,2.08-4.7,5.67c0,4.23,2.21,5.69,4.99,5.69,1.95,0,3.02-.59,4.16-1.73l-1.42-1.34c-.79,.79-1.44,1.14-2.69,1.14-1.82,0-2.82-1.21-2.82-3.11h7.2Zm-10.2-5.27c-.77-.76-1.58-1.05-2.65-1.05-1.25,0-2.38,.55-2.95,1.33v-1.2h-2.19v11.09h2.23v-6.74c0-1.53,1.01-2.5,2.21-2.5,.77,0,1.16,.24,1.66,.74l1.69-1.68Zm-17.03,10.18v-11.09h-2.23v6.76c0,1.71-1.05,2.48-2.3,2.48s-2.23-.74-2.23-2.47v-6.76h-2.23v7.09c0,1.25,.26,2.3,1.12,3.13,.65,.63,1.6,1,2.73,1s2.19-.41,2.96-1.25v1.12h2.19Zm-14.88-5.56c0,1.97-.28,3.7-2.3,3.7s-2.32-1.73-2.32-3.7,.31-3.68,2.32-3.68,2.3,1.71,2.3,3.68m2.23,5.56v-15.58h-2.23v5.6c-.81-.96-1.73-1.24-2.91-1.24-1.12,0-2.08,.37-2.69,.98-1.12,1.12-1.25,3-1.25,4.68s.13,3.59,1.25,4.71c.61,.61,1.6,.98,2.71,.98,1.2,0,2.1-.31,2.93-1.31v1.18h2.19Zm-19.41-6.45h-4.99c.02-.68,.06-1.01,.28-1.51,.35-.83,1.16-1.4,2.21-1.4s1.84,.57,2.19,1.4c.22,.5,.28,.83,.31,1.51m2.21,1.55v-.98c0-3.15-1.73-5.34-4.71-5.34s-4.71,2.08-4.71,5.67c0,4.23,2.21,5.69,4.99,5.69,1.95,0,3.02-.59,4.16-1.73l-1.42-1.34c-.79,.79-1.44,1.14-2.69,1.14-1.82,0-2.82-1.21-2.82-3.11h7.2Zm-11.84,4.9v-1.9h-.92c-.83,0-1.23-.48-1.23-1.29v-5.98h2.15v-1.71h-2.15v-3.39h-2.23v3.39h-1.27v1.71h1.27v6.09c0,1.59,.96,3.08,3.04,3.08h1.34Zm-10.53-4c0,.79-.15,1.31-.48,1.64-.59,.57-1.23,.64-2.08,.64-1.4,0-2.04-.57-2.04-1.58s.68-1.6,1.99-1.6h2.61v.9Zm2.23,4v-7.42c0-2.52-1.53-3.81-4.57-3.81-1.84,0-2.93,.37-3.98,1.59l1.46,1.38c.61-.79,1.21-1.07,2.43-1.07,1.73,0,2.43,.68,2.43,2.08v.79h-2.93c-2.54,0-3.83,1.33-3.83,3.19,0,.94,.31,1.8,.87,2.39,.68,.68,1.6,1,2.98,1s2.15-.33,2.96-1.14v1h2.19Zm-14.16-5.56c0,1.97-.29,3.7-2.3,3.7s-2.32-1.73-2.32-3.7,.31-3.68,2.32-3.68,2.3,1.71,2.3,3.68m2.23,5.56v-15.58h-2.23v5.6c-.81-.96-1.73-1.24-2.91-1.24-1.12,0-2.08,.37-2.69,.98-1.12,1.12-1.24,3-1.24,4.68s.13,3.59,1.24,4.71c.61,.61,1.6,.98,2.71,.98,1.21,0,2.1-.31,2.94-1.31v1.18h2.19Zm-11.82,.55c-.53-.53-.9-.83-1.23-1.44-.22-.42-.33-1.01-.33-1.79v-10.2c0-.79,.11-1.38,.33-1.79,.33-.61,.7-.92,1.23-1.44l-1.51-1.51c-.7,.7-1.33,1.29-1.77,2.08-.46,.81-.5,1.66-.5,2.54v10.46c0,.88,.04,1.73,.5,2.54,.44,.79,1.07,1.38,1.77,2.08l1.51-1.51Zm-163.93-7h-4.99c.02-.68,.07-1.01,.29-1.51,.35-.83,1.16-1.4,2.21-1.4s1.84,.57,2.19,1.4c.22,.5,.29,.83,.31,1.51m2.21,1.55v-.98c0-3.15-1.73-5.34-4.71-5.34s-4.7,2.08-4.7,5.67c0,4.23,2.21,5.69,4.99,5.69,1.95,0,3.02-.59,4.16-1.73l-1.42-1.34c-.79,.79-1.44,1.14-2.69,1.14-1.82,0-2.82-1.21-2.82-3.11h7.2Zm-10.97,4.9v-1.9h-.98c-.9,0-1.21-.44-1.21-1.29v-12.39h-2.23v12.52c0,1.64,.92,3.06,3.04,3.06h1.38Zm-15.71-4c0,.79-.15,1.31-.48,1.64-.59,.57-1.23,.64-2.08,.64-1.4,0-2.04-.57-2.04-1.58s.68-1.6,1.99-1.6h2.61v.9Zm2.23,4v-7.42c0-2.52-1.53-3.81-4.57-3.81-1.84,0-2.93,.37-3.98,1.59l1.46,1.38c.61-.79,1.21-1.07,2.43-1.07,1.73,0,2.43,.68,2.43,2.08v.79h-2.93c-2.54,0-3.83,1.33-3.83,3.19,0,.94,.31,1.8,.87,2.39,.68,.68,1.6,1,2.98,1s2.15-.33,2.96-1.14v1h2.19Zm-9.98-10.18c-.76-.76-1.58-1.05-2.65-1.05-1.25,0-2.39,.55-2.96,1.33v-1.2h-2.19v11.09h2.23v-6.74c0-1.53,1.01-2.5,2.21-2.5,.76,0,1.16,.24,1.66,.74l1.68-1.68Zm-13.79,4.62c0,1.97-.28,3.7-2.3,3.7s-2.32-1.73-2.32-3.7,.31-3.68,2.32-3.68,2.3,1.71,2.3,3.68m2.23,5.56v-15.58h-2.23v5.6c-.81-.96-1.73-1.24-2.91-1.24-1.12,0-2.08,.37-2.69,.98-1.12,1.12-1.25,3-1.25,4.68s.13,3.59,1.25,4.71c.61,.61,1.6,.98,2.71,.98,1.21,0,2.1-.31,2.93-1.31v1.18h2.19Zm-12.21,0v-7.09c0-1.25-.26-2.3-1.12-3.13-.65-.63-1.6-1-2.74-1s-2.19,.41-2.96,1.24v-1.11h-2.19v11.09h2.23v-6.76c0-1.71,1.05-2.47,2.3-2.47s2.24,.74,2.24,2.47v6.76h2.23Zm-14.38-6.45h-4.99c.02-.68,.06-1.01,.28-1.51,.35-.83,1.16-1.4,2.21-1.4s1.84,.57,2.19,1.4c.22,.5,.28,.83,.31,1.51m2.21,1.55v-.98c0-3.15-1.73-5.34-4.71-5.34s-4.7,2.08-4.7,5.67c0,4.23,2.21,5.69,4.99,5.69,1.95,0,3.02-.59,4.16-1.73l-1.42-1.34c-.79,.79-1.44,1.14-2.69,1.14-1.82,0-2.82-1.21-2.82-3.11h7.2Zm-12.54-10.74h-2.36v2.36h2.36v-2.36Zm-.06,4.55h-2.23v11.09h2.23v-11.09Zm-4.4,0h-2.36l-2.61,7.81-2.63-7.81h-2.36l4.07,11.09h1.82l4.07-11.09Zm-13.53,4.64h-4.99c.02-.68,.07-1.01,.29-1.51,.35-.83,1.16-1.4,2.21-1.4s1.84,.57,2.19,1.4c.22,.5,.29,.83,.31,1.51m2.21,1.55v-.98c0-3.15-1.73-5.34-4.71-5.34s-4.7,2.08-4.7,5.67c0,4.23,2.21,5.69,4.99,5.69,1.95,0,3.02-.59,4.16-1.73l-1.42-1.34c-.79,.79-1.44,1.14-2.69,1.14-1.82,0-2.82-1.21-2.82-3.11h7.2Zm-10.2-5.27c-.77-.76-1.58-1.05-2.65-1.05-1.25,0-2.38,.55-2.95,1.33v-1.2h-2.19v11.09h2.23v-6.74c0-1.53,1.01-2.5,2.21-2.5,.77,0,1.16,.24,1.66,.74l1.69-1.68Zm-16.33,10.18v-1.9h-.92c-.83,0-1.23-.48-1.23-1.29v-5.98h2.15v-1.71h-2.15v-3.39h-2.23v3.39h-1.27v1.71h1.27v6.09c0,1.59,.96,3.08,3.04,3.08h1.34Zm-8.3,0v-7.09c0-1.25-.26-2.3-1.12-3.13-.65-.63-1.6-1-2.74-1s-2.19,.41-2.96,1.24v-1.11h-2.19v11.09h2.23v-6.76c0-1.71,1.05-2.47,2.3-2.47s2.24,.74,2.24,2.47v6.76h2.23Zm-14.88-4c0,.79-.15,1.31-.48,1.64-.59,.57-1.23,.64-2.08,.64-1.4,0-2.04-.57-2.04-1.58s.68-1.6,1.99-1.6h2.61v.9Zm2.23,4v-7.42c0-2.52-1.53-3.81-4.57-3.81-1.84,0-2.93,.37-3.98,1.59l1.47,1.38c.61-.79,1.2-1.07,2.43-1.07,1.73,0,2.43,.68,2.43,2.08v.79h-2.94c-2.54,0-3.83,1.33-3.83,3.19,0,.94,.31,1.8,.88,2.39,.68,.68,1.59,1,2.97,1s2.15-.33,2.96-1.14v1h2.18Zm-10.42-9.17v-1.71h-2.21v-1.61c0-.82,.39-1.3,1.23-1.3h.98v-1.9h-1.4c-2.08,0-3.04,1.49-3.04,3.09v1.72h-1.27v1.71h1.27v9.17h2.23v-9.17h2.21Zm-8.45,9.17v-7.09c0-1.25-.26-2.3-1.11-3.13-.66-.63-1.6-1-2.74-1s-2.19,.41-2.96,1.24v-1.11h-2.19v11.09h2.23v-6.76c0-1.71,1.05-2.47,2.3-2.47s2.24,.74,2.24,2.47v6.76h2.23Zm-14.38-6.45h-4.99c.02-.68,.07-1.01,.29-1.51,.35-.83,1.16-1.4,2.21-1.4s1.84,.57,2.19,1.4c.22,.5,.29,.83,.31,1.51m2.21,1.55v-.98c0-3.15-1.73-5.34-4.71-5.34s-4.7,2.08-4.7,5.67c0,4.23,2.21,5.69,4.99,5.69,1.95,0,3.02-.59,4.16-1.73l-1.42-1.34c-.79,.79-1.44,1.14-2.69,1.14-1.82,0-2.82-1.21-2.82-3.11h7.2Zm-17.97,4.9v-7.09c0-1.25-.26-2.3-1.12-3.13-.65-.63-1.6-1-2.74-1s-2.19,.41-2.96,1.24v-1.11h-2.19v11.09h2.23v-6.76c0-1.71,1.05-2.47,2.3-2.47s2.23,.74,2.23,2.47v6.76h2.23Zm-14.47-5.56c0,1.2-.09,2.36-.77,3.04-.41,.41-.98,.66-1.64,.66s-1.2-.24-1.62-.66c-.68-.68-.77-1.84-.77-3.04s.09-2.37,.77-3.04c.42-.42,.96-.64,1.62-.64s1.23,.22,1.64,.64c.68,.68,.77,1.84,.77,3.04m2.23,0c0-1.86-.26-3.26-1.31-4.36-.72-.74-1.82-1.31-3.33-1.31s-2.58,.57-3.3,1.31c-1.05,1.09-1.31,2.5-1.31,4.36s.26,3.28,1.31,4.38c.72,.74,1.79,1.31,3.3,1.31s2.61-.57,3.33-1.31c1.05-1.09,1.31-2.5,1.31-4.38m-12.74,5.56v-15.58h-2.36l-4.47,9.7-4.56-9.7h-2.36v15.58h2.36v-10.42l3.68,7.59h1.75l3.59-7.59v10.42h2.36Z"/><path class="e" d="M74.88,486.09v-11.09h-2.23v6.76c0,1.71-1.05,2.47-2.3,2.47s-2.24-.74-2.24-2.47v-6.76h-2.23v7.09c0,1.25,.26,2.3,1.11,3.13,.66,.63,1.6,1,2.74,1s2.19-.41,2.96-1.24v1.11h2.19Zm-14.36-5.56c0,1.21-.09,2.36-.77,3.04-.41,.42-.98,.66-1.64,.66s-1.21-.24-1.62-.66c-.68-.68-.76-1.84-.76-3.04s.09-2.36,.76-3.04c.42-.42,.96-.64,1.62-.64s1.23,.22,1.64,.64c.68,.68,.77,1.84,.77,3.04m2.23,0c0-1.86-.26-3.26-1.31-4.36-.72-.74-1.82-1.31-3.33-1.31s-2.59,.57-3.31,1.31c-1.05,1.09-1.31,2.5-1.31,4.36s.26,3.29,1.31,4.38c.72,.74,1.79,1.31,3.31,1.31s2.61-.57,3.33-1.31c1.05-1.09,1.31-2.5,1.31-4.38"/><path class="e" d="M412.46,407.38h-2.67v2.67h2.67v-2.67Zm-7.99-3.79h-4.99c.02-.68,.07-1.01,.29-1.51,.35-.83,1.16-1.4,2.21-1.4s1.84,.57,2.19,1.4c.22,.5,.29,.83,.31,1.51m2.21,1.55v-.98c0-3.15-1.73-5.34-4.71-5.34s-4.7,2.08-4.7,5.67c0,4.23,2.21,5.69,4.99,5.69,1.95,0,3.02-.59,4.16-1.73l-1.42-1.34c-.79,.79-1.44,1.14-2.69,1.14-1.82,0-2.82-1.21-2.82-3.11h7.2Zm-10.97,4.9v-1.9h-.99c-.9,0-1.2-.44-1.2-1.29v-12.39h-2.23v12.52c0,1.64,.92,3.06,3.04,3.06h1.38Zm-9.83-5.56c0,1.2-.09,2.36-.76,3.04-.42,.41-.99,.66-1.64,.66s-1.21-.24-1.62-.66c-.68-.68-.76-1.84-.76-3.04s.09-2.37,.76-3.04c.42-.42,.97-.64,1.62-.64s1.23,.22,1.64,.64c.68,.68,.76,1.84,.76,3.04m2.23,0c0-1.86-.26-3.26-1.31-4.36-.72-.74-1.82-1.31-3.33-1.31s-2.59,.57-3.31,1.31c-1.05,1.09-1.31,2.5-1.31,4.36s.26,3.28,1.31,4.38c.72,.74,1.79,1.31,3.31,1.31s2.61-.57,3.33-1.31c1.05-1.09,1.31-2.5,1.31-4.38m-11.14,4.12l-1.53-1.47c-.7,.76-1.25,1.05-2.12,1.05s-1.58-.35-2.06-.99c-.48-.61-.66-1.42-.66-2.71s.18-2.08,.66-2.69c.48-.64,1.21-.99,2.06-.99s1.42,.29,2.12,1.05l1.53-1.49c-1.05-1.12-2.12-1.55-3.66-1.55-2.5,0-4.94,1.51-4.94,5.67s2.45,5.69,4.94,5.69c1.53,0,2.61-.46,3.66-1.57m-12.87-15.21h-2.47l-1.64,3.54h1.69l2.43-3.54Zm-.55,10.2h-4.99c.02-.68,.07-1.01,.29-1.51,.35-.83,1.16-1.4,2.21-1.4s1.84,.57,2.19,1.4c.22,.5,.29,.83,.31,1.51m2.21,1.55v-.98c0-3.15-1.73-5.34-4.71-5.34s-4.7,2.08-4.7,5.67c0,4.23,2.21,5.69,4.99,5.69,1.95,0,3.02-.59,4.16-1.73l-1.42-1.34c-.79,.79-1.44,1.14-2.69,1.14-1.82,0-2.82-1.21-2.82-3.11h7.2Zm-12.54-8.41v-4.31l-2.45,2.03v2.27h2.45Zm-5.06,13.31v-1.9h-.98c-.9,0-1.21-.44-1.21-1.29v-12.39h-2.23v12.52c0,1.64,.92,3.06,3.04,3.06h1.38Zm-16.66-13.11l-1.64-3.54h-2.47l2.43,3.54h1.68Zm.94,9.11c0,.79-.15,1.31-.48,1.64-.59,.57-1.23,.64-2.08,.64-1.4,0-2.04-.57-2.04-1.58s.68-1.6,1.99-1.6h2.61v.9Zm2.23,4v-7.42c0-2.52-1.53-3.81-4.57-3.81-1.84,0-2.93,.37-3.98,1.59l1.46,1.38c.61-.79,1.21-1.07,2.43-1.07,1.73,0,2.43,.68,2.43,2.08v.79h-2.93c-2.54,0-3.83,1.33-3.83,3.19,0,.94,.31,1.8,.87,2.39,.68,.68,1.6,1,2.98,1s2.15-.33,2.96-1.14v1h2.19Zm-17.29,0v-7.09c0-1.25-.26-2.3-1.12-3.13-.65-.63-1.6-1-2.74-1s-2.19,.41-2.96,1.24v-1.11h-2.19v11.09h2.23v-6.76c0-1.71,1.05-2.47,2.3-2.47s2.23,.74,2.23,2.47v6.76h2.23Zm-12.7-15.65h-2.36v2.36h2.36v-2.36Zm-.06,4.55h-2.23v11.09h2.23v-11.09Zm-8.12,7.09c0,.79-.15,1.31-.48,1.64-.59,.57-1.23,.64-2.08,.64-1.4,0-2.04-.57-2.04-1.58s.68-1.6,1.99-1.6h2.61v.9Zm2.23,4v-7.42c0-2.52-1.53-3.81-4.57-3.81-1.84,0-2.93,.37-3.98,1.59l1.47,1.38c.61-.79,1.2-1.07,2.43-1.07,1.73,0,2.43,.68,2.43,2.08v.79h-2.94c-2.54,0-3.83,1.33-3.83,3.19,0,.94,.31,1.8,.88,2.39,.68,.68,1.59,1,2.97,1s2.15-.33,2.96-1.14v1h2.18Zm-11.82,0v-7.09c0-1.25-.33-2.3-1.18-3.13-.66-.63-1.66-1-2.8-1-1.47,0-2.59,.52-3.48,1.62-.7-1.07-1.77-1.62-3.15-1.62-1.12,0-2.21,.44-2.96,1.24v-1.11h-2.18v11.09h2.23v-6.76c0-1.71,1.05-2.47,2.3-2.47s2.23,.74,2.23,2.47v6.76h2.23v-6.87c0-1.6,1.09-2.36,2.3-2.36s2.24,.74,2.24,2.47v6.76h2.23Zm-21.14-6.45h-4.99c.02-.68,.06-1.01,.28-1.51,.35-.83,1.16-1.4,2.21-1.4s1.84,.57,2.19,1.4c.22,.5,.28,.83,.31,1.51m2.21,1.55v-.98c0-3.15-1.73-5.34-4.71-5.34s-4.71,2.08-4.71,5.67c0,4.23,2.21,5.69,4.99,5.69,1.95,0,3.02-.59,4.16-1.73l-1.42-1.34c-.79,.79-1.44,1.14-2.69,1.14-1.82,0-2.82-1.21-2.82-3.11h7.2Zm-14.84-.65c0,1.97-.28,3.7-2.3,3.7s-2.32-1.73-2.32-3.7,.31-3.68,2.32-3.68,2.3,1.71,2.3,3.68m2.23,5.56v-15.58h-2.23v5.6c-.81-.96-1.73-1.24-2.91-1.24-1.12,0-2.08,.37-2.69,.98-1.12,1.12-1.25,3-1.25,4.68s.13,3.59,1.25,4.71c.61,.61,1.6,.98,2.71,.98,1.2,0,2.1-.31,2.93-1.31v1.18h2.19Zm-17.09,0v-1.9h-.92c-.83,0-1.23-.48-1.23-1.29v-5.98h2.15v-1.71h-2.15v-3.39h-2.23v3.39h-1.27v1.71h1.27v6.09c0,1.59,.96,3.08,3.04,3.08h1.34Zm-8.3,0v-7.09c0-1.25-.26-2.3-1.12-3.13-.65-.63-1.6-1-2.74-1s-2.19,.41-2.96,1.24v-1.11h-2.19v11.09h2.23v-6.76c0-1.71,1.05-2.47,2.3-2.47s2.24,.74,2.24,2.47v6.76h2.23Zm-14.38-6.45h-4.99c.02-.68,.06-1.01,.28-1.51,.35-.83,1.16-1.4,2.21-1.4s1.84,.57,2.19,1.4c.22,.5,.28,.83,.31,1.51m2.21,1.55v-.98c0-3.15-1.73-5.34-4.71-5.34s-4.7,2.08-4.7,5.67c0,4.23,2.21,5.69,4.99,5.69,1.95,0,3.02-.59,4.16-1.73l-1.42-1.34c-.79,.79-1.44,1.14-2.69,1.14-1.82,0-2.82-1.21-2.82-3.11h7.2Zm-12.54-10.74h-2.36v2.36h2.36v-2.36Zm-.06,4.55h-2.23v11.09h2.23v-11.09Zm-4.4,0h-2.36l-2.61,7.81-2.63-7.81h-2.36l4.07,11.09h1.82l4.07-11.09Zm-13.53,4.64h-4.99c.02-.68,.07-1.01,.29-1.51,.35-.83,1.16-1.4,2.21-1.4s1.84,.57,2.19,1.4c.22,.5,.29,.83,.31,1.51m2.21,1.55v-.98c0-3.15-1.73-5.34-4.71-5.34s-4.7,2.08-4.7,5.67c0,4.23,2.21,5.69,4.99,5.69,1.95,0,3.02-.59,4.16-1.73l-1.42-1.34c-.79,.79-1.44,1.14-2.69,1.14-1.82,0-2.82-1.21-2.82-3.11h7.2Zm-10.2-5.27c-.77-.76-1.58-1.05-2.65-1.05-1.25,0-2.38,.55-2.95,1.33v-1.2h-2.19v11.09h2.23v-6.74c0-1.53,1.01-2.5,2.21-2.5,.77,0,1.16,.24,1.66,.74l1.69-1.68Zm-16.33,10.18v-1.9h-.92c-.83,0-1.23-.48-1.23-1.29v-5.98h2.15v-1.71h-2.15v-3.39h-2.23v3.39h-1.27v1.71h1.27v6.09c0,1.59,.96,3.08,3.04,3.08h1.34Zm-8.3,0v-7.09c0-1.25-.26-2.3-1.12-3.13-.65-.63-1.6-1-2.74-1s-2.19,.41-2.96,1.24v-1.11h-2.19v11.09h2.23v-6.76c0-1.71,1.05-2.47,2.3-2.47s2.24,.74,2.24,2.47v6.76h2.23Zm-14.88-4c0,.79-.15,1.31-.48,1.64-.59,.57-1.23,.64-2.08,.64-1.4,0-2.04-.57-2.04-1.58s.68-1.6,1.99-1.6h2.61v.9Zm2.23,4v-7.42c0-2.52-1.53-3.81-4.57-3.81-1.84,0-2.93,.37-3.98,1.59l1.47,1.38c.61-.79,1.2-1.07,2.43-1.07,1.73,0,2.43,.68,2.43,2.08v.79h-2.94c-2.54,0-3.83,1.33-3.83,3.19,0,.94,.31,1.8,.88,2.39,.68,.68,1.59,1,2.97,1s2.15-.33,2.96-1.14v1h2.18Zm-10.42-9.17v-1.71h-2.21v-1.61c0-.82,.39-1.3,1.23-1.3h.98v-1.9h-1.4c-2.08,0-3.04,1.49-3.04,3.09v1.72h-1.27v1.71h1.27v9.17h2.23v-9.17h2.21Zm-8.45,9.17v-7.09c0-1.25-.26-2.3-1.11-3.13-.66-.63-1.6-1-2.74-1s-2.19,.41-2.96,1.24v-1.11h-2.19v11.09h2.23v-6.76c0-1.71,1.05-2.47,2.3-2.47s2.24,.74,2.24,2.47v6.76h2.23Zm-14.38-6.45h-4.99c.02-.68,.07-1.01,.29-1.51,.35-.83,1.16-1.4,2.21-1.4s1.84,.57,2.19,1.4c.22,.5,.29,.83,.31,1.51m2.21,1.55v-.98c0-3.15-1.73-5.34-4.71-5.34s-4.7,2.08-4.7,5.67c0,4.23,2.21,5.69,4.99,5.69,1.95,0,3.02-.59,4.16-1.73l-1.42-1.34c-.79,.79-1.44,1.14-2.69,1.14-1.82,0-2.82-1.21-2.82-3.11h7.2Zm-17.97,4.9v-7.09c0-1.25-.26-2.3-1.12-3.13-.65-.63-1.6-1-2.74-1s-2.19,.41-2.96,1.24v-1.11h-2.19v11.09h2.23v-6.76c0-1.71,1.05-2.47,2.3-2.47s2.23,.74,2.23,2.47v6.76h2.23Zm-14.47-5.56c0,1.2-.09,2.36-.77,3.04-.41,.41-.98,.66-1.64,.66s-1.2-.24-1.62-.66c-.68-.68-.77-1.84-.77-3.04s.09-2.37,.77-3.04c.42-.42,.96-.64,1.62-.64s1.23,.22,1.64,.64c.68,.68,.77,1.84,.77,3.04m2.23,0c0-1.86-.26-3.26-1.31-4.36-.72-.74-1.82-1.31-3.33-1.31s-2.58,.57-3.3,1.31c-1.05,1.09-1.31,2.5-1.31,4.36s.26,3.28,1.31,4.38c.72,.74,1.79,1.31,3.3,1.31s2.61-.57,3.33-1.31c1.05-1.09,1.31-2.5,1.31-4.38m-12.74,5.56v-15.58h-2.36l-4.47,9.7-4.56-9.7h-2.36v15.58h2.36v-10.42l3.68,7.59h1.75l3.59-7.59v10.42h2.36Z"/><path class="e" d="M864.43,331.35h-2.67v2.67h2.67v-2.67Zm-7.99-3.79h-4.99c.02-.68,.07-1.01,.29-1.51,.35-.83,1.16-1.4,2.21-1.4s1.84,.57,2.19,1.4c.22,.5,.29,.83,.31,1.51m2.21,1.55v-.98c0-3.15-1.73-5.34-4.71-5.34s-4.7,2.08-4.7,5.67c0,4.23,2.21,5.69,4.99,5.69,1.95,0,3.02-.59,4.16-1.73l-1.42-1.34c-.79,.79-1.44,1.14-2.69,1.14-1.82,0-2.82-1.21-2.82-3.11h7.2Zm-14.84-.65c0,1.97-.28,3.7-2.3,3.7s-2.32-1.73-2.32-3.7,.31-3.68,2.32-3.68,2.3,1.71,2.3,3.68m2.23,5.56v-15.58h-2.23v5.6c-.81-.96-1.73-1.24-2.91-1.24-1.12,0-2.08,.37-2.69,.98-1.11,1.12-1.24,3-1.24,4.68s.13,3.59,1.24,4.71c.61,.61,1.6,.98,2.71,.98,1.21,0,2.1-.31,2.94-1.31v1.18h2.19Zm-14.44-4c0,.79-.15,1.31-.48,1.64-.59,.57-1.23,.64-2.08,.64-1.4,0-2.04-.57-2.04-1.58s.68-1.6,1.99-1.6h2.61v.9Zm2.23,4v-7.42c0-2.52-1.53-3.81-4.57-3.81-1.84,0-2.93,.37-3.98,1.59l1.47,1.38c.61-.79,1.21-1.07,2.43-1.07,1.73,0,2.43,.68,2.43,2.08v.79h-2.94c-2.54,0-3.83,1.33-3.83,3.19,0,.94,.3,1.8,.87,2.39,.68,.68,1.6,1,2.98,1s2.15-.33,2.96-1.14v1h2.19Zm-10.83,0v-1.9h-.99c-.9,0-1.2-.44-1.2-1.29v-12.39h-2.23v12.52c0,1.64,.92,3.06,3.04,3.06h1.38Zm-10.24-4c0,.79-.15,1.31-.48,1.64-.59,.57-1.23,.64-2.08,.64-1.4,0-2.04-.57-2.04-1.58s.68-1.6,1.99-1.6h2.61v.9Zm2.23,4v-7.42c0-2.52-1.53-3.81-4.57-3.81-1.84,0-2.94,.37-3.98,1.59l1.47,1.38c.61-.79,1.2-1.07,2.43-1.07,1.73,0,2.43,.68,2.43,2.08v.79h-2.94c-2.54,0-3.83,1.33-3.83,3.19,0,.94,.31,1.8,.88,2.39,.68,.68,1.6,1,2.97,1s2.15-.33,2.96-1.14v1h2.19Zm-11.82,0v-7.09c0-1.25-.33-2.3-1.18-3.13-.65-.63-1.66-1-2.8-1-1.47,0-2.58,.52-3.48,1.62-.7-1.07-1.77-1.62-3.15-1.62-1.12,0-2.21,.44-2.96,1.24v-1.11h-2.19v11.09h2.23v-6.76c0-1.71,1.05-2.47,2.3-2.47s2.23,.74,2.23,2.47v6.76h2.23v-6.87c0-1.6,1.09-2.36,2.3-2.36s2.24,.74,2.24,2.47v6.76h2.23Zm-24.3,0v-1.9h-.92c-.83,0-1.23-.48-1.23-1.29v-5.98h2.15v-1.71h-2.15v-3.39h-2.23v3.39h-1.27v1.71h1.27v6.09c0,1.59,.96,3.08,3.04,3.08h1.34Zm-7.35-3.39c0-1.97-1.23-2.96-3.3-3.13l-1.75-.15c-1.18-.11-1.53-.61-1.53-1.27,0-.83,.68-1.42,2.01-1.42,1.05,0,2.03,.22,2.73,.81l1.4-1.42c-1.03-.9-2.45-1.24-4.12-1.24-2.32,0-4.18,1.22-4.18,3.39,0,1.95,1.2,2.89,3.28,3.07l1.77,.15c1.07,.09,1.49,.57,1.49,1.31,0,1.05-1.07,1.53-2.43,1.53-1.09,0-2.3-.24-3.2-1.16l-1.47,1.47c1.31,1.29,2.85,1.59,4.66,1.59,2.65,0,4.62-1.2,4.62-3.52m-13.59-3.06h-4.99c.02-.68,.07-1.01,.29-1.51,.35-.83,1.16-1.4,2.21-1.4s1.84,.57,2.19,1.4c.22,.5,.29,.83,.31,1.51m2.21,1.55v-.98c0-3.15-1.73-5.34-4.71-5.34s-4.7,2.08-4.7,5.67c0,4.23,2.21,5.69,4.99,5.69,1.95,0,3.02-.59,4.16-1.73l-1.42-1.34c-.79,.79-1.44,1.14-2.69,1.14-1.82,0-2.82-1.21-2.82-3.11h7.2Zm-18.17,2.34v-10.46c0-.88-.06-1.73-.53-2.54-.44-.79-1.05-1.38-1.75-2.08l-1.53,1.53c.53,.53,.88,.83,1.21,1.44,.22,.41,.33,1.01,.33,1.77v10.2c0,.76-.11,1.36-.33,1.77-.33,.61-.68,.92-1.21,1.44l1.53,1.53c.7-.7,1.31-1.29,1.75-2.08,.46-.81,.53-1.66,.53-2.54m-6.37,2.56v-1.9h-.92c-.83,0-1.23-.48-1.23-1.29v-5.98h2.15v-1.71h-2.15v-3.39h-2.23v3.39h-1.27v1.71h1.27v6.09c0,1.59,.96,3.08,3.04,3.08h1.34Zm-8.3,0v-7.09c0-1.25-.26-2.3-1.12-3.13-.65-.63-1.6-1-2.74-1s-2.19,.41-2.96,1.24v-1.11h-2.19v11.09h2.23v-6.76c0-1.71,1.05-2.47,2.3-2.47s2.23,.74,2.23,2.47v6.76h2.23Zm-14.88-4c0,.79-.15,1.31-.48,1.64-.59,.57-1.23,.64-2.08,.64-1.4,0-2.04-.57-2.04-1.58s.68-1.6,1.99-1.6h2.61v.9Zm2.23,4v-7.42c0-2.52-1.53-3.81-4.57-3.81-1.84,0-2.93,.37-3.98,1.59l1.46,1.38c.61-.79,1.21-1.07,2.43-1.07,1.73,0,2.43,.68,2.43,2.08v.79h-2.93c-2.54,0-3.83,1.33-3.83,3.19,0,.94,.31,1.8,.87,2.39,.68,.68,1.6,1,2.98,1s2.15-.33,2.96-1.14v1h2.19Zm-10.42-9.17v-1.71h-2.21v-1.61c0-.82,.39-1.3,1.23-1.3h.98v-1.9h-1.4c-2.08,0-3.04,1.49-3.04,3.09v1.72h-1.27v1.71h1.27v9.17h2.23v-9.17h2.21Zm-8.45,9.17v-7.09c0-1.25-.26-2.3-1.12-3.13-.65-.63-1.6-1-2.73-1s-2.19,.41-2.96,1.24v-1.11h-2.19v11.09h2.23v-6.76c0-1.71,1.05-2.47,2.3-2.47s2.23,.74,2.23,2.47v6.76h2.23Zm-14.38-6.45h-4.99c.02-.68,.06-1.01,.28-1.51,.35-.83,1.16-1.4,2.21-1.4s1.84,.57,2.19,1.4c.22,.5,.28,.83,.31,1.51m2.21,1.55v-.98c0-3.15-1.73-5.34-4.71-5.34s-4.7,2.08-4.7,5.67c0,4.23,2.21,5.69,4.99,5.69,1.95,0,3.02-.59,4.16-1.73l-1.42-1.34c-.79,.79-1.44,1.14-2.69,1.14-1.82,0-2.82-1.21-2.82-3.11h7.2Zm-12.54-8.38v-2.3h-2.45v4.29l2.45-1.99Zm-3.74,13.29v-1.9h-.99c-.9,0-1.2-.44-1.2-1.29v-12.39h-2.23v12.52c0,1.64,.92,3.06,3.04,3.06h1.38Zm-15.21-6.45h-4.99c.02-.68,.07-1.01,.29-1.51,.35-.83,1.16-1.4,2.21-1.4s1.84,.57,2.19,1.4c.22,.5,.29,.83,.31,1.51m2.21,1.55v-.98c0-3.15-1.73-5.34-4.71-5.34s-4.7,2.08-4.7,5.67c0,4.23,2.21,5.69,4.99,5.69,1.95,0,3.02-.59,4.16-1.73l-1.42-1.34c-.79,.79-1.44,1.14-2.69,1.14-1.82,0-2.82-1.21-2.82-3.11h7.2Zm-14.84-.65c0,1.97-.28,3.7-2.3,3.7s-2.32-1.73-2.32-3.7,.31-3.68,2.32-3.68,2.3,1.71,2.3,3.68m2.23,5.56v-15.58h-2.23v5.6c-.81-.96-1.73-1.24-2.91-1.24-1.12,0-2.08,.37-2.69,.98-1.11,1.12-1.24,3-1.24,4.68s.13,3.59,1.24,4.71c.61,.61,1.6,.98,2.71,.98,1.21,0,2.1-.31,2.94-1.31v1.18h2.19Zm-17.69,0v-7.09c0-1.25-.33-2.3-1.18-3.13-.66-.63-1.66-1-2.8-1-1.47,0-2.59,.52-3.48,1.62-.7-1.07-1.77-1.62-3.15-1.62-1.12,0-2.21,.44-2.96,1.24v-1.11h-2.19v11.09h2.23v-6.76c0-1.71,1.05-2.47,2.3-2.47s2.24,.74,2.24,2.47v6.76h2.23v-6.87c0-1.6,1.09-2.36,2.3-2.36s2.23,.74,2.23,2.47v6.76h2.23Zm-21.23-5.56c0,1.2-.09,2.36-.76,3.04-.42,.41-.99,.66-1.64,.66s-1.21-.24-1.62-.66c-.68-.68-.76-1.84-.76-3.04s.09-2.37,.76-3.04c.42-.42,.97-.64,1.62-.64s1.23,.22,1.64,.64c.68,.68,.76,1.84,.76,3.04m2.23,0c0-1.86-.26-3.26-1.31-4.36-.72-.74-1.82-1.31-3.33-1.31s-2.59,.57-3.31,1.31c-1.05,1.09-1.31,2.5-1.31,4.36s.26,3.28,1.31,4.38c.72,.74,1.79,1.31,3.31,1.31s2.61-.57,3.33-1.31c1.05-1.09,1.31-2.5,1.31-4.38m-12.39,5.56v-7.09c0-1.25-.26-2.3-1.12-3.13-.65-.63-1.6-1-2.74-1s-2.19,.41-2.96,1.24v-1.11h-2.19v11.09h2.23v-6.76c0-1.71,1.05-2.47,2.3-2.47s2.23,.74,2.23,2.47v6.76h2.23Zm-12.26,.55c-.53-.53-.9-.83-1.23-1.44-.22-.42-.33-1.01-.33-1.79v-10.2c0-.79,.11-1.38,.33-1.79,.33-.61,.7-.92,1.23-1.44l-1.51-1.51c-.7,.7-1.33,1.29-1.77,2.08-.46,.81-.5,1.66-.5,2.54v10.46c0,.88,.04,1.73,.5,2.54,.44,.79,1.07,1.38,1.77,2.08l1.51-1.51Zm-354.5-3.94c0-1.97-1.23-2.96-3.3-3.13l-1.75-.15c-1.18-.11-1.53-.61-1.53-1.27,0-.83,.68-1.42,2.01-1.42,1.05,0,2.03,.22,2.74,.81l1.4-1.42c-1.03-.9-2.45-1.24-4.12-1.24-2.32,0-4.18,1.22-4.18,3.39,0,1.95,1.2,2.89,3.28,3.07l1.77,.15c1.07,.09,1.49,.57,1.49,1.31,0,1.05-1.07,1.53-2.43,1.53-1.09,0-2.3-.24-3.2-1.16l-1.47,1.47c1.31,1.29,2.85,1.59,4.66,1.59,2.65,0,4.62-1.2,4.62-3.52m-10.88,3.39v-1.9h-.98c-.9,0-1.21-.44-1.21-1.29v-12.39h-2.23v12.52c0,1.64,.92,3.06,3.04,3.06h1.38Zm-8.05-15.65h-2.36v2.36h2.36v-2.36Zm-.07,4.55h-2.23v11.09h2.23v-11.09Zm-4.84,1.92v-1.71h-2.21v-1.61c0-.82,.39-1.3,1.23-1.3h.99v-1.9h-1.4c-2.08,0-3.04,1.49-3.04,3.09v1.72h-1.27v1.71h1.27v9.17h2.23v-9.17h2.21Zm-13.92,9.17v-7.09c0-1.25-.26-2.3-1.12-3.13-.66-.63-1.6-1-2.74-1s-2.19,.41-2.96,1.24v-1.11h-2.18v11.09h2.23v-6.76c0-1.71,1.05-2.47,2.3-2.47s2.24,.74,2.24,2.47v6.76h2.23Zm-14.47-5.56c0,1.2-.09,2.36-.77,3.04-.42,.41-.99,.66-1.64,.66s-1.21-.24-1.62-.66c-.68-.68-.77-1.84-.77-3.04s.09-2.37,.77-3.04c.41-.42,.96-.64,1.62-.64s1.23,.22,1.64,.64c.68,.68,.77,1.84,.77,3.04m2.23,0c0-1.86-.26-3.26-1.31-4.36-.72-.74-1.82-1.31-3.33-1.31s-2.58,.57-3.31,1.31c-1.05,1.09-1.31,2.5-1.31,4.36s.26,3.28,1.31,4.38c.72,.74,1.79,1.31,3.31,1.31s2.61-.57,3.33-1.31c1.05-1.09,1.31-2.5,1.31-4.38m-12.39,5.56v-7.09c0-1.25-.33-2.3-1.18-3.13-.66-.63-1.66-1-2.8-1-1.47,0-2.58,.52-3.48,1.62-.7-1.07-1.77-1.62-3.15-1.62-1.12,0-2.21,.44-2.96,1.24v-1.11h-2.19v11.09h2.23v-6.76c0-1.71,1.05-2.47,2.3-2.47s2.23,.74,2.23,2.47v6.76h2.23v-6.87c0-1.6,1.09-2.36,2.3-2.36s2.24,.74,2.24,2.47v6.76h2.23Zm-23.16-17.2h-2.15l-6.24,18.82h2.15l6.24-18.82Zm-17.47,10.75h-4.99c.02-.68,.06-1.01,.28-1.51,.35-.83,1.16-1.4,2.21-1.4s1.84,.57,2.19,1.4c.22,.5,.28,.83,.31,1.51m2.21,1.55v-.98c0-3.15-1.73-5.34-4.71-5.34s-4.7,2.08-4.7,5.67c0,4.23,2.21,5.69,4.99,5.69,1.95,0,3.02-.59,4.16-1.73l-1.42-1.34c-.79,.79-1.44,1.14-2.69,1.14-1.82,0-2.82-1.21-2.82-3.11h7.2Zm-10.97,4.9v-1.9h-.99c-.9,0-1.2-.44-1.2-1.29v-12.39h-2.23v12.52c0,1.64,.92,3.06,3.04,3.06h1.38Zm-7.03,0v-1.9h-.99c-.9,0-1.2-.44-1.2-1.29v-12.39h-2.23v12.52c0,1.64,.92,3.06,3.04,3.06h1.38Zm-8.06-15.65h-2.36v2.36h2.36v-2.36Zm-.07,4.55h-2.23v11.09h2.23v-11.09Zm-4.84,1.92v-1.71h-2.21v-1.61c0-.82,.39-1.3,1.23-1.3h.99v-1.9h-1.4c-2.08,0-3.04,1.49-3.04,3.09v1.72h-1.27v1.71h1.27v9.17h2.23v-9.17h2.21Zm-16.15,5.17c0,.79-.15,1.31-.48,1.64-.59,.57-1.23,.64-2.08,.64-1.4,0-2.04-.57-2.04-1.58s.68-1.6,1.99-1.6h2.61v.9Zm2.23,4v-7.42c0-2.52-1.53-3.81-4.57-3.81-1.84,0-2.93,.37-3.98,1.59l1.47,1.38c.61-.79,1.21-1.07,2.43-1.07,1.73,0,2.43,.68,2.43,2.08v.79h-2.94c-2.54,0-3.83,1.33-3.83,3.19,0,.94,.3,1.8,.87,2.39,.68,.68,1.6,1,2.98,1s2.15-.33,2.96-1.14v1h2.19Zm-12.17,0v-15.58h-2.36l-4.47,9.7-4.56-9.7h-2.36v15.58h2.36v-10.42l3.68,7.59h1.75l3.59-7.59v10.42h2.36Z"/><path class="e" d="M456.28,255.31h-2.67v2.67h2.67v-2.67Zm-161.54-3.79h-4.99c.02-.68,.07-1.01,.29-1.51,.35-.83,1.16-1.4,2.21-1.4s1.84,.57,2.19,1.4c.22,.5,.29,.83,.31,1.51m2.21,1.55v-.98c0-3.15-1.73-5.34-4.71-5.34s-4.7,2.08-4.7,5.67c0,4.23,2.21,5.69,4.99,5.69,1.95,0,3.02-.59,4.16-1.73l-1.42-1.34c-.79,.79-1.44,1.14-2.69,1.14-1.82,0-2.82-1.21-2.82-3.11h7.2Zm-11.78,1.51c0-1.97-1.23-2.96-3.3-3.13l-1.75-.15c-1.18-.11-1.53-.61-1.53-1.27,0-.83,.68-1.42,2.01-1.42,1.05,0,2.03,.22,2.74,.81l1.4-1.42c-1.03-.9-2.45-1.24-4.12-1.24-2.32,0-4.18,1.22-4.18,3.39,0,1.95,1.2,2.89,3.28,3.07l1.77,.15c1.07,.09,1.49,.57,1.49,1.31,0,1.05-1.07,1.53-2.43,1.53-1.09,0-2.3-.24-3.2-1.16l-1.47,1.47c1.31,1.29,2.85,1.59,4.66,1.59,2.65,0,4.62-1.2,4.62-3.52m-11.01,0c0-1.97-1.23-2.96-3.31-3.13l-1.75-.15c-1.18-.11-1.53-.61-1.53-1.27,0-.83,.68-1.42,2.01-1.42,1.05,0,2.04,.22,2.74,.81l1.4-1.42c-1.03-.9-2.45-1.24-4.12-1.24-2.32,0-4.18,1.22-4.18,3.39,0,1.95,1.21,2.89,3.28,3.07l1.77,.15c1.07,.09,1.49,.57,1.49,1.31,0,1.05-1.07,1.53-2.43,1.53-1.09,0-2.3-.24-3.2-1.16l-1.47,1.47c1.31,1.29,2.85,1.59,4.66,1.59,2.65,0,4.62-1.2,4.62-3.52m-14.1-.61c0,.79-.15,1.31-.48,1.64-.59,.57-1.23,.64-2.08,.64-1.4,0-2.04-.57-2.04-1.58s.68-1.6,1.99-1.6h2.61v.9Zm2.23,4v-7.42c0-2.52-1.53-3.81-4.57-3.81-1.84,0-2.93,.37-3.98,1.59l1.46,1.38c.61-.79,1.21-1.07,2.43-1.07,1.73,0,2.43,.68,2.43,2.08v.79h-2.93c-2.54,0-3.83,1.33-3.83,3.19,0,.94,.31,1.8,.87,2.39,.68,.68,1.6,1,2.98,1s2.15-.33,2.96-1.14v1h2.19Zm-10.83,0v-1.9h-.99c-.9,0-1.2-.44-1.2-1.29v-12.39h-2.23v12.52c0,1.64,.92,3.06,3.04,3.06h1.38Zm-7.16-1.44l-1.53-1.47c-.7,.76-1.25,1.05-2.12,1.05s-1.58-.35-2.06-.99c-.48-.61-.66-1.42-.66-2.71s.18-2.08,.66-2.69c.48-.64,1.2-.99,2.06-.99s1.42,.29,2.12,1.05l1.53-1.49c-1.05-1.12-2.12-1.55-3.65-1.55-2.5,0-4.94,1.51-4.94,5.67s2.45,5.69,4.94,5.69c1.53,0,2.6-.46,3.65-1.57m-19.39-2.56c0,.79-.15,1.31-.48,1.64-.59,.57-1.23,.64-2.08,.64-1.4,0-2.04-.57-2.04-1.58s.68-1.6,1.99-1.6h2.61v.9Zm2.23,4v-7.42c0-2.52-1.53-3.81-4.57-3.81-1.84,0-2.94,.37-3.98,1.59l1.47,1.38c.61-.79,1.2-1.07,2.43-1.07,1.73,0,2.43,.68,2.43,2.08v.79h-2.94c-2.54,0-3.83,1.33-3.83,3.19,0,.94,.31,1.8,.88,2.39,.68,.68,1.6,1,2.97,1s2.15-.33,2.96-1.14v1h2.19Zm-10.84,0v-1.9h-.98c-.9,0-1.21-.44-1.21-1.29v-12.39h-2.23v12.52c0,1.64,.92,3.06,3.04,3.06h1.38Zm-12.76-3.39c0-1.97-1.23-2.96-3.3-3.13l-1.75-.15c-1.18-.11-1.53-.61-1.53-1.27,0-.83,.68-1.42,2.01-1.42,1.05,0,2.03,.22,2.74,.81l1.4-1.42c-1.03-.9-2.45-1.24-4.12-1.24-2.32,0-4.18,1.22-4.18,3.39,0,1.95,1.2,2.89,3.28,3.07l1.77,.15c1.07,.09,1.49,.57,1.49,1.31,0,1.05-1.07,1.53-2.43,1.53-1.09,0-2.3-.24-3.2-1.16l-1.47,1.47c1.31,1.29,2.85,1.59,4.66,1.59,2.65,0,4.62-1.2,4.62-3.52m-11.86,3.39v-7.09c0-1.25-.26-2.3-1.12-3.13-.66-.63-1.6-1-2.74-1s-2.19,.41-2.96,1.24v-1.11h-2.18v11.09h2.23v-6.76c0-1.71,1.05-2.47,2.3-2.47s2.24,.74,2.24,2.47v6.76h2.23Zm-14.88-4c0,.79-.15,1.31-.48,1.64-.59,.57-1.23,.64-2.08,.64-1.4,0-2.04-.57-2.04-1.58s.68-1.6,1.99-1.6h2.61v.9Zm2.23,4v-7.42c0-2.52-1.53-3.81-4.57-3.81-1.84,0-2.93,.37-3.98,1.59l1.47,1.38c.61-.79,1.21-1.07,2.43-1.07,1.73,0,2.43,.68,2.43,2.08v.79h-2.94c-2.54,0-3.83,1.33-3.83,3.19,0,.94,.3,1.8,.87,2.39,.68,.68,1.6,1,2.98,1s2.15-.33,2.96-1.14v1h2.19Zm-14.16-5.56c0,1.97-.29,3.7-2.3,3.7s-2.32-1.73-2.32-3.7,.31-3.68,2.32-3.68,2.3,1.71,2.3,3.68m2.23,5.56v-15.58h-2.23v5.6c-.81-.96-1.73-1.24-2.91-1.24-1.12,0-2.08,.37-2.69,.98-1.12,1.12-1.25,3-1.25,4.68s.13,3.59,1.25,4.71c.61,.61,1.6,.98,2.71,.98,1.21,0,2.1-.31,2.94-1.31v1.18h2.18Zm-19.91-4c0,.79-.15,1.31-.48,1.64-.59,.57-1.23,.64-2.08,.64-1.4,0-2.04-.57-2.04-1.58s.68-1.6,1.99-1.6h2.61v.9Zm2.23,4v-7.42c0-2.52-1.53-3.81-4.57-3.81-1.84,0-2.94,.37-3.98,1.59l1.47,1.38c.61-.79,1.2-1.07,2.43-1.07,1.73,0,2.43,.68,2.43,2.08v.79h-2.94c-2.54,0-3.83,1.33-3.83,3.19,0,.94,.31,1.8,.88,2.39,.68,.68,1.6,1,2.98,1s2.15-.33,2.96-1.14v1h2.19Zm-10.11-11.09h-2.36l-2.6,7.81-2.63-7.81h-2.36l4.07,11.09h1.82l4.07-11.09Zm-16.5,11.09v-1.9h-.99c-.9,0-1.2-.44-1.2-1.29v-12.39h-2.23v12.52c0,1.64,.92,3.06,3.04,3.06h1.38Zm-8.06-15.65h-2.36v2.36h2.36v-2.36Zm-.07,4.55h-2.23v11.09h2.23v-11.09Zm-9.63-6.11h-2.15l-6.24,18.82h2.15l6.24-18.82Zm-17.47,10.75h-4.99c.02-.68,.06-1.01,.28-1.51,.35-.83,1.16-1.4,2.21-1.4s1.84,.57,2.19,1.4c.22,.5,.28,.83,.31,1.51m2.21,1.55v-.98c0-3.15-1.73-5.34-4.71-5.34s-4.71,2.08-4.71,5.67c0,4.23,2.21,5.69,4.99,5.69,1.95,0,3.02-.59,4.16-1.73l-1.42-1.34c-.79,.79-1.44,1.14-2.69,1.14-1.82,0-2.82-1.21-2.82-3.11h7.2Zm-10.97,4.9v-1.9h-.99c-.9,0-1.2-.44-1.2-1.29v-12.39h-2.23v12.52c0,1.64,.92,3.06,3.04,3.06h1.38Zm-7.03,0v-1.9h-.98c-.9,0-1.21-.44-1.21-1.29v-12.39h-2.23v12.52c0,1.64,.92,3.06,3.04,3.06h1.38Zm-7.55,0v-2.12h-7.6v-4.69h6.48v-2.1h-6.48v-4.56h7.6v-2.12h-9.96v15.58h9.96Z"/><path class="e" d="M736.63,179.38v-10.46c0-.88-.07-1.73-.53-2.54-.44-.79-1.05-1.38-1.75-2.08l-1.53,1.53c.53,.53,.88,.83,1.2,1.44,.22,.42,.33,1.01,.33,1.77v10.2c0,.77-.11,1.36-.33,1.77-.33,.61-.68,.92-1.2,1.44l1.53,1.53c.7-.7,1.31-1.29,1.75-2.08,.46-.81,.53-1.66,.53-2.54m-6.37,2.56v-1.9h-.92c-.83,0-1.23-.48-1.23-1.29v-5.98h2.15v-1.71h-2.15v-3.39h-2.23v3.39h-1.27v1.71h1.27v6.09c0,1.59,.96,3.08,3.04,3.08h1.33Zm-8.29,0v-7.09c0-1.25-.26-2.3-1.12-3.13-.66-.63-1.6-1-2.74-1s-2.19,.41-2.96,1.25v-1.12h-2.18v11.09h2.23v-6.76c0-1.71,1.05-2.48,2.3-2.48s2.23,.74,2.23,2.47v6.76h2.23Zm-14.88-4c0,.79-.15,1.32-.48,1.64-.59,.57-1.23,.64-2.08,.64-1.4,0-2.04-.57-2.04-1.58s.68-1.6,1.99-1.6h2.61v.9Zm2.23,4v-7.42c0-2.52-1.53-3.81-4.57-3.81-1.84,0-2.93,.37-3.98,1.6l1.47,1.38c.61-.79,1.21-1.07,2.43-1.07,1.73,0,2.43,.68,2.43,2.08v.79h-2.94c-2.54,0-3.83,1.33-3.83,3.19,0,.94,.3,1.8,.87,2.39,.68,.68,1.6,1,2.98,1s2.15-.33,2.96-1.14v1h2.19Zm-10.42-9.17v-1.71h-2.21v-1.61c0-.82,.39-1.3,1.23-1.3h.99v-1.9h-1.4c-2.08,0-3.04,1.49-3.04,3.09v1.72h-1.27v1.71h1.27v9.17h2.23v-9.17h2.21Zm-8.45,9.17v-7.09c0-1.25-.26-2.3-1.12-3.13-.66-.63-1.6-1-2.73-1s-2.19,.41-2.96,1.25v-1.12h-2.19v11.09h2.23v-6.76c0-1.71,1.05-2.48,2.3-2.48s2.23,.74,2.23,2.47v6.76h2.23Zm-14.38-6.45h-4.99c.02-.68,.06-1.01,.28-1.51,.35-.83,1.16-1.4,2.21-1.4s1.84,.57,2.19,1.4c.22,.5,.28,.83,.31,1.51m2.21,1.55v-.98c0-3.15-1.73-5.34-4.71-5.34s-4.71,2.08-4.71,5.67c0,4.23,2.21,5.69,4.99,5.69,1.95,0,3.02-.59,4.16-1.73l-1.42-1.34c-.79,.79-1.44,1.14-2.69,1.14-1.82,0-2.82-1.21-2.82-3.11h7.2Zm-12.54-8.38v-2.29h-2.45v4.29l2.45-1.99Zm-3.74,13.29v-1.9h-.98c-.9,0-1.21-.44-1.21-1.29v-12.39h-2.23v12.52c0,1.64,.92,3.06,3.04,3.06h1.38Zm-15.21-6.45h-4.99c.02-.68,.07-1.01,.29-1.51,.35-.83,1.16-1.4,2.21-1.4s1.84,.57,2.19,1.4c.22,.5,.29,.83,.31,1.51m2.21,1.55v-.98c0-3.15-1.73-5.34-4.71-5.34s-4.7,2.08-4.7,5.67c0,4.23,2.21,5.69,4.99,5.69,1.95,0,3.02-.59,4.16-1.73l-1.42-1.34c-.79,.79-1.44,1.14-2.69,1.14-1.82,0-2.82-1.21-2.82-3.11h7.2Zm-14.84-.65c0,1.97-.29,3.7-2.3,3.7s-2.32-1.73-2.32-3.7,.31-3.68,2.32-3.68,2.3,1.71,2.3,3.68m2.23,5.56v-15.58h-2.23v5.6c-.81-.96-1.73-1.25-2.91-1.25-1.12,0-2.08,.37-2.69,.98-1.12,1.12-1.25,3-1.25,4.68s.13,3.59,1.25,4.71c.61,.61,1.6,.98,2.71,.98,1.21,0,2.1-.3,2.94-1.31v1.18h2.19Zm-17.69,0v-7.09c0-1.25-.33-2.3-1.18-3.13-.65-.63-1.66-1-2.8-1-1.47,0-2.58,.53-3.48,1.62-.7-1.07-1.77-1.62-3.15-1.62-1.12,0-2.21,.44-2.96,1.25v-1.12h-2.19v11.09h2.23v-6.76c0-1.71,1.05-2.48,2.3-2.48s2.23,.74,2.23,2.47v6.76h2.23v-6.87c0-1.6,1.1-2.36,2.3-2.36s2.24,.74,2.24,2.47v6.76h2.23Zm-21.23-5.56c0,1.21-.09,2.36-.77,3.04-.41,.41-.98,.66-1.64,.66s-1.2-.24-1.62-.66c-.68-.68-.77-1.84-.77-3.04s.09-2.36,.77-3.04c.42-.42,.96-.64,1.62-.64s1.23,.22,1.64,.64c.68,.68,.77,1.84,.77,3.04m2.23,0c0-1.86-.26-3.26-1.31-4.36-.72-.74-1.82-1.31-3.33-1.31s-2.58,.57-3.3,1.31c-1.05,1.09-1.31,2.5-1.31,4.36s.26,3.28,1.31,4.38c.72,.74,1.79,1.31,3.3,1.31s2.61-.57,3.33-1.31c1.05-1.09,1.31-2.5,1.31-4.38m-12.39,5.56v-7.09c0-1.25-.26-2.3-1.12-3.13-.66-.63-1.6-1-2.74-1s-2.19,.41-2.96,1.25v-1.12h-2.18v11.09h2.23v-6.76c0-1.71,1.05-2.48,2.3-2.48s2.23,.74,2.23,2.47v6.76h2.23Zm-12.26,.55c-.53-.53-.9-.83-1.23-1.44-.22-.41-.33-1.01-.33-1.79v-10.2c0-.79,.11-1.38,.33-1.79,.33-.61,.7-.92,1.23-1.44l-1.51-1.51c-.7,.7-1.33,1.29-1.77,2.08-.46,.81-.5,1.66-.5,2.54v10.46c0,.88,.04,1.73,.5,2.54,.44,.79,1.07,1.38,1.77,2.08l1.51-1.51Zm-255.53-7h-4.99c.02-.68,.07-1.01,.29-1.51,.35-.83,1.16-1.4,2.21-1.4s1.84,.57,2.19,1.4c.22,.5,.29,.83,.31,1.51m2.21,1.55v-.98c0-3.15-1.73-5.34-4.71-5.34s-4.7,2.08-4.7,5.67c0,4.23,2.21,5.69,4.99,5.69,1.95,0,3.02-.59,4.16-1.73l-1.42-1.34c-.79,.79-1.44,1.14-2.69,1.14-1.82,0-2.82-1.21-2.82-3.11h7.2Zm-14.84-.65c0,1.97-.28,3.7-2.3,3.7s-2.32-1.73-2.32-3.7,.31-3.68,2.32-3.68,2.3,1.71,2.3,3.68m2.23,5.56v-15.58h-2.23v5.6c-.81-.96-1.73-1.25-2.91-1.25-1.12,0-2.08,.37-2.69,.98-1.11,1.12-1.24,3-1.24,4.68s.13,3.59,1.24,4.71c.61,.61,1.6,.98,2.71,.98,1.21,0,2.1-.3,2.94-1.31v1.18h2.19Zm-19.41-6.45h-4.99c.02-.68,.06-1.01,.28-1.51,.35-.83,1.16-1.4,2.21-1.4s1.84,.57,2.19,1.4c.22,.5,.28,.83,.31,1.51m2.21,1.55v-.98c0-3.15-1.73-5.34-4.71-5.34s-4.71,2.08-4.71,5.67c0,4.23,2.21,5.69,4.99,5.69,1.95,0,3.02-.59,4.16-1.73l-1.42-1.34c-.79,.79-1.44,1.14-2.69,1.14-1.82,0-2.82-1.21-2.82-3.11h7.2Zm-10.2-5.27c-.76-.76-1.58-1.05-2.65-1.05-1.25,0-2.39,.55-2.96,1.33v-1.2h-2.19v11.09h2.23v-6.74c0-1.53,1.01-2.5,2.21-2.5,.76,0,1.16,.24,1.66,.74l1.68-1.68Zm-14.47-2.93l-1.64-3.54h-2.47l2.43,3.54h1.68Zm1.29,6.66h-4.99c.02-.68,.07-1.01,.29-1.51,.35-.83,1.16-1.4,2.21-1.4s1.84,.57,2.19,1.4c.22,.5,.29,.83,.31,1.51m2.21,1.55v-.98c0-3.15-1.73-5.34-4.71-5.34s-4.7,2.08-4.7,5.67c0,4.23,2.21,5.69,4.99,5.69,1.95,0,3.02-.59,4.16-1.73l-1.42-1.34c-.79,.79-1.44,1.14-2.69,1.14-1.82,0-2.82-1.21-2.82-3.11h7.2Zm-14.31-.65c0,1.97-.29,3.7-2.3,3.7s-2.32-1.73-2.32-3.7,.31-3.68,2.32-3.68,2.3,1.71,2.3,3.68m2.23,0c0-1.69-.13-3.57-1.25-4.68-.61-.61-1.6-.98-2.71-.98-1.21,0-2.1,.31-2.94,1.31v-1.18h-2.18v15.58h2.23v-5.62c.81,.96,1.73,1.27,2.91,1.27,1.12,0,2.08-.37,2.69-.98,1.12-1.11,1.25-3.02,1.25-4.71m-19.94-.9h-4.99c.02-.68,.06-1.01,.28-1.51,.35-.83,1.16-1.4,2.21-1.4s1.84,.57,2.19,1.4c.22,.5,.28,.83,.31,1.51m2.21,1.55v-.98c0-3.15-1.73-5.34-4.71-5.34s-4.71,2.08-4.71,5.67c0,4.23,2.21,5.69,4.99,5.69,1.95,0,3.02-.59,4.16-1.73l-1.42-1.34c-.79,.79-1.44,1.14-2.69,1.14-1.82,0-2.82-1.21-2.82-3.11h7.2Zm-10.97,4.9v-1.9h-.99c-.9,0-1.2-.44-1.2-1.29v-12.39h-2.23v12.52c0,1.64,.92,3.06,3.04,3.06h1.38Zm-11.75-17.2h-2.15l-6.24,18.82h2.15l6.24-18.82Zm-17.47,10.75h-4.99c.02-.68,.06-1.01,.28-1.51,.35-.83,1.16-1.4,2.21-1.4s1.84,.57,2.19,1.4c.22,.5,.28,.83,.31,1.51m2.21,1.55v-.98c0-3.15-1.73-5.34-4.71-5.34s-4.71,2.08-4.71,5.67c0,4.23,2.21,5.69,4.99,5.69,1.95,0,3.02-.59,4.16-1.73l-1.42-1.34c-.79,.79-1.44,1.14-2.69,1.14-1.82,0-2.82-1.21-2.82-3.11h7.2Zm-10.2-5.27c-.77-.76-1.58-1.05-2.65-1.05-1.25,0-2.38,.55-2.95,1.33v-1.2h-2.19v11.09h2.23v-6.74c0-1.53,1.01-2.5,2.21-2.5,.77,0,1.16,.24,1.66,.74l1.69-1.68Zm-14.47-2.93l-1.64-3.54h-2.47l2.43,3.54h1.68Zm1.29,6.66h-4.99c.02-.68,.07-1.01,.29-1.51,.35-.83,1.16-1.4,2.21-1.4s1.84,.57,2.19,1.4c.22,.5,.29,.83,.31,1.51m2.21,1.55v-.98c0-3.15-1.73-5.34-4.71-5.34s-4.7,2.08-4.7,5.67c0,4.23,2.21,5.69,4.99,5.69,1.95,0,3.02-.59,4.16-1.73l-1.42-1.34c-.79,.79-1.44,1.14-2.69,1.14-1.82,0-2.82-1.21-2.82-3.11h7.2Zm-12.5,4.9v-7.09c0-1.25-.33-2.3-1.18-3.13-.66-.63-1.66-1-2.8-1-1.47,0-2.59,.53-3.48,1.62-.7-1.07-1.77-1.62-3.15-1.62-1.12,0-2.21,.44-2.96,1.25v-1.12h-2.19v11.09h2.23v-6.76c0-1.71,1.05-2.48,2.3-2.48s2.24,.74,2.24,2.47v6.76h2.23v-6.87c0-1.6,1.09-2.36,2.3-2.36s2.23,.74,2.23,2.47v6.76h2.23Zm-27.12-4c0,.79-.15,1.32-.48,1.64-.59,.57-1.23,.64-2.08,.64-1.4,0-2.04-.57-2.04-1.58s.68-1.6,1.99-1.6h2.61v.9Zm2.23,4v-7.42c0-2.52-1.53-3.81-4.57-3.81-1.84,0-2.93,.37-3.98,1.6l1.47,1.38c.61-.79,1.2-1.07,2.43-1.07,1.73,0,2.43,.68,2.43,2.08v.79h-2.94c-2.54,0-3.83,1.33-3.83,3.19,0,.94,.31,1.8,.88,2.39,.68,.68,1.6,1,2.98,1s2.15-.33,2.96-1.14v1h2.19Zm-10.84,0v-1.9h-.98c-.9,0-1.21-.44-1.21-1.29v-12.39h-2.23v12.52c0,1.64,.92,3.06,3.04,3.06h1.38Zm-12.76-3.39c0-1.97-1.23-2.96-3.31-3.13l-1.75-.15c-1.18-.11-1.53-.61-1.53-1.27,0-.83,.68-1.42,2.01-1.42,1.05,0,2.04,.22,2.74,.81l1.4-1.42c-1.03-.9-2.45-1.25-4.12-1.25-2.32,0-4.18,1.22-4.18,3.39,0,1.95,1.21,2.89,3.28,3.06l1.77,.15c1.07,.09,1.49,.57,1.49,1.31,0,1.05-1.07,1.53-2.43,1.53-1.09,0-2.3-.24-3.2-1.16l-1.47,1.47c1.31,1.29,2.85,1.59,4.66,1.59,2.65,0,4.62-1.2,4.62-3.52m-11.91-12.26h-2.36v2.36h2.36v-2.36Zm-.06,4.55h-2.23v11.09h2.23v-11.09Zm-6,11.09v-11.09h-2.23v6.76c0,1.71-1.05,2.47-2.3,2.47s-2.24-.74-2.24-2.47v-6.76h-2.23v7.09c0,1.25,.26,2.3,1.12,3.13,.66,.63,1.6,1,2.74,1s2.19-.41,2.96-1.24v1.11h2.19Zm-11.82-3.39c0-1.97-1.23-2.96-3.3-3.13l-1.75-.15c-1.18-.11-1.53-.61-1.53-1.27,0-.83,.68-1.42,2.01-1.42,1.05,0,2.03,.22,2.74,.81l1.4-1.42c-1.03-.9-2.45-1.25-4.12-1.25-2.32,0-4.18,1.22-4.18,3.39,0,1.95,1.2,2.89,3.28,3.06l1.77,.15c1.07,.09,1.49,.57,1.49,1.31,0,1.05-1.07,1.53-2.43,1.53-1.09,0-2.3-.24-3.2-1.16l-1.47,1.47c1.31,1.29,2.85,1.59,4.66,1.59,2.65,0,4.62-1.2,4.62-3.52m-19.07-3.06h-4.99c.02-.68,.07-1.01,.29-1.51,.35-.83,1.16-1.4,2.21-1.4s1.84,.57,2.19,1.4c.22,.5,.29,.83,.31,1.51m2.21,1.55v-.98c0-3.15-1.73-5.34-4.71-5.34s-4.7,2.08-4.7,5.67c0,4.23,2.21,5.69,4.99,5.69,1.95,0,3.02-.59,4.16-1.73l-1.42-1.34c-.79,.79-1.44,1.14-2.69,1.14-1.82,0-2.82-1.21-2.82-3.11h7.2Zm-12.65-.02v-10.66h-2.36v10.48c0,2.03-1.07,3.11-2.82,3.11-1.14,0-1.66-.39-2.21-.94l-1.58,1.55c1.07,1.07,2.19,1.51,3.79,1.51,2.87,0,5.18-1.81,5.18-5.05"/><path class="e" d="M192.41,105.9v-1.9h-.92c-.83,0-1.23-.48-1.23-1.29v-5.98h2.15v-1.7h-2.15v-3.39h-2.23v3.39h-1.27v1.7h1.27v6.09c0,1.59,.96,3.08,3.04,3.08h1.34Zm-7.35-3.39c0-1.97-1.23-2.96-3.3-3.13l-1.75-.15c-1.18-.11-1.53-.61-1.53-1.27,0-.83,.68-1.42,2.01-1.42,1.05,0,2.03,.22,2.74,.81l1.4-1.42c-1.03-.9-2.45-1.24-4.12-1.24-2.32,0-4.18,1.22-4.18,3.39,0,1.95,1.2,2.89,3.28,3.07l1.77,.15c1.07,.09,1.49,.57,1.49,1.31,0,1.05-1.07,1.53-2.43,1.53-1.09,0-2.3-.24-3.2-1.16l-1.47,1.47c1.31,1.29,2.85,1.6,4.66,1.6,2.65,0,4.62-1.2,4.62-3.52m-13.59-3.06h-4.99c.02-.68,.07-1.01,.29-1.51,.35-.83,1.16-1.4,2.21-1.4s1.84,.57,2.19,1.4c.22,.5,.29,.83,.31,1.51m2.21,1.55v-.98c0-3.15-1.73-5.34-4.71-5.34s-4.7,2.08-4.7,5.67c0,4.23,2.21,5.69,4.99,5.69,1.95,0,3.02-.59,4.16-1.73l-1.42-1.34c-.79,.79-1.44,1.14-2.69,1.14-1.82,0-2.82-1.21-2.82-3.11h7.2Zm-17.97,4.9v-7.09c0-1.25-.33-2.3-1.18-3.13-.66-.63-1.66-1-2.8-1-1.47,0-2.59,.52-3.48,1.62-.7-1.07-1.77-1.62-3.15-1.62-1.12,0-2.21,.44-2.96,1.24v-1.11h-2.19v11.09h2.23v-6.76c0-1.71,1.05-2.47,2.3-2.47s2.24,.74,2.24,2.47v6.76h2.23v-6.87c0-1.6,1.09-2.36,2.3-2.36s2.23,.74,2.23,2.47v6.76h2.23Zm-21.23-5.56c0,1.2-.09,2.36-.77,3.04-.42,.41-.99,.66-1.64,.66s-1.21-.24-1.62-.66c-.68-.68-.77-1.84-.77-3.04s.09-2.37,.77-3.04c.41-.42,.96-.64,1.62-.64s1.23,.22,1.64,.64c.68,.68,.77,1.84,.77,3.04m2.23,0c0-1.86-.26-3.26-1.31-4.36-.72-.74-1.82-1.31-3.33-1.31s-2.58,.57-3.31,1.31c-1.05,1.09-1.31,2.5-1.31,4.36s.26,3.28,1.31,4.38c.72,.74,1.79,1.31,3.31,1.31s2.61-.57,3.33-1.31c1.05-1.09,1.31-2.5,1.31-4.38m-12.39,5.56v-7.09c0-1.25-.26-2.3-1.11-3.13-.66-.63-1.6-1-2.74-1s-2.19,.41-2.96,1.24v-1.11h-2.19v11.09h2.23v-6.76c0-1.71,1.05-2.47,2.3-2.47s2.24,.74,2.24,2.47v6.76h2.23Zm-18.12,0v-7.09c0-1.25-.26-2.3-1.12-3.13-.66-.63-1.6-1-2.74-1s-2.19,.41-2.96,1.24v-1.11h-2.19v11.09h2.23v-6.76c0-1.71,1.05-2.47,2.3-2.47s2.24,.74,2.24,2.47v6.76h2.23Zm-14.47-5.56c0,1.2-.09,2.36-.76,3.04-.42,.41-.99,.66-1.64,.66s-1.21-.24-1.62-.66c-.68-.68-.76-1.84-.76-3.04s.09-2.37,.76-3.04c.42-.42,.97-.64,1.62-.64s1.23,.22,1.64,.64c.68,.68,.76,1.84,.76,3.04m2.23,0c0-1.86-.26-3.26-1.31-4.36-.72-.74-1.82-1.31-3.33-1.31s-2.59,.57-3.31,1.31c-1.05,1.09-1.31,2.5-1.31,4.36s.26,3.28,1.31,4.38c.72,.74,1.79,1.31,3.31,1.31s2.61-.57,3.33-1.31c1.05-1.09,1.31-2.5,1.31-4.38m-12.74,5.56v-15.58h-2.36l-4.47,9.7-4.56-9.7h-2.36v15.58h2.36v-10.42l3.68,7.59h1.75l3.59-7.59v10.42h2.36Zm-17.57-.92v-2.69l-2.36-2.34,2.36-2.32v-2.69l-5.03,5.01,5.03,5.03Zm-5.54,0v-2.69l-2.34-2.34,2.34-2.32v-2.69l-5.03,5.01,5.03,5.03Z"/><path class="h" d="M241.04,687.93v-2.69l-2.36-2.34,2.36-2.32v-2.69l-5.03,5.01,5.03,5.03Zm-5.54,0v-2.69l-2.34-2.34,2.34-2.32v-2.69l-5.03,5.01,5.03,5.03Zm-7.77-1.75h-2.67v2.67h2.67v-2.67Zm-6.26,2.67v-7.09c0-1.25-.26-2.3-1.12-3.13-.65-.63-1.6-1-2.74-1s-2.19,.41-2.96,1.24v-1.11h-2.19v11.09h2.23v-6.76c0-1.71,1.05-2.47,2.3-2.47s2.23,.74,2.23,2.47v6.76h2.23Zm-14.38-6.45h-4.99c.02-.68,.06-1.01,.28-1.51,.35-.83,1.16-1.4,2.21-1.4s1.84,.57,2.19,1.4c.22,.5,.28,.83,.31,1.51m2.21,1.55v-.98c0-3.15-1.73-5.34-4.71-5.34s-4.7,2.08-4.7,5.67c0,4.23,2.21,5.69,4.99,5.69,1.95,0,3.02-.59,4.16-1.73l-1.42-1.34c-.79,.79-1.44,1.14-2.69,1.14-1.82,0-2.82-1.21-2.82-3.11h7.2Zm-12.5,4.9v-7.16c0-2.41-1.38-4.07-3.85-4.07-1.1,0-2.1,.41-2.87,1.24v-5.6h-2.23v15.58h2.23v-6.81c0-1.66,1.01-2.43,2.26-2.43s2.24,.74,2.24,2.43v6.81h2.23Zm-14.34-6.45h-4.99c.02-.68,.06-1.01,.28-1.51,.35-.83,1.16-1.4,2.21-1.4s1.84,.57,2.19,1.4c.22,.5,.28,.83,.31,1.51m2.21,1.55v-.98c0-3.15-1.73-5.34-4.71-5.34s-4.71,2.08-4.71,5.67c0,4.23,2.21,5.69,4.99,5.69,1.95,0,3.02-.59,4.16-1.73l-1.42-1.34c-.79,.79-1.44,1.14-2.69,1.14-1.82,0-2.82-1.21-2.82-3.11h7.2Zm-11.77,1.51c0-1.97-1.23-2.96-3.31-3.13l-1.75-.15c-1.18-.11-1.53-.61-1.53-1.27,0-.83,.68-1.42,2.01-1.42,1.05,0,2.04,.22,2.74,.81l1.4-1.42c-1.03-.9-2.45-1.24-4.12-1.24-2.32,0-4.18,1.22-4.18,3.39,0,1.95,1.21,2.89,3.28,3.07l1.77,.15c1.07,.09,1.49,.57,1.49,1.31,0,1.05-1.07,1.53-2.43,1.53-1.09,0-2.3-.24-3.2-1.16l-1.47,1.47c1.31,1.29,2.85,1.59,4.66,1.59,2.65,0,4.62-1.2,4.62-3.52m-10.03-6.79c-.76-.76-1.58-1.05-2.65-1.05-1.25,0-2.39,.55-2.96,1.33v-1.2h-2.19v11.09h2.23v-6.74c0-1.53,1.01-2.5,2.21-2.5,.76,0,1.16,.24,1.66,.74l1.68-1.68Zm-13.18,3.72h-4.99c.02-.68,.07-1.01,.29-1.51,.35-.83,1.16-1.4,2.21-1.4s1.84,.57,2.19,1.4c.22,.5,.29,.83,.31,1.51m2.21,1.55v-.98c0-3.15-1.73-5.34-4.71-5.34s-4.7,2.08-4.7,5.67c0,4.23,2.21,5.69,4.99,5.69,1.95,0,3.02-.59,4.16-1.73l-1.42-1.34c-.79,.79-1.44,1.14-2.69,1.14-1.82,0-2.82-1.21-2.82-3.11h7.2Zm-14.84-.65c0,1.97-.29,3.7-2.3,3.7s-2.32-1.73-2.32-3.7,.31-3.68,2.32-3.68,2.3,1.71,2.3,3.68m2.23,5.56v-15.58h-2.23v5.6c-.81-.96-1.73-1.24-2.91-1.24-1.12,0-2.08,.37-2.69,.98-1.12,1.12-1.25,3-1.25,4.68s.13,3.59,1.25,4.71c.61,.61,1.6,.98,2.71,.98,1.21,0,2.1-.31,2.94-1.31v1.18h2.19Zm-13.94-6.45h-4.99c.02-.68,.07-1.01,.29-1.51,.35-.83,1.16-1.4,2.21-1.4s1.84,.57,2.19,1.4c.22,.5,.29,.83,.31,1.51m2.21,1.55v-.98c0-3.15-1.73-5.34-4.71-5.34s-4.7,2.08-4.7,5.67c0,4.23,2.21,5.69,4.99,5.69,1.95,0,3.02-.59,4.16-1.73l-1.42-1.34c-.79,.79-1.44,1.14-2.69,1.14-1.82,0-2.82-1.21-2.82-3.11h7.2Zm-12.54-10.74h-2.36v2.36h2.36v-2.36Zm-.06,4.55h-2.23v11.09h2.23v-11.09Zm-4.46-4.49h-2.5l-2.71,11.14-3.13-11.14h-1.9l-3.13,11.14-2.71-11.14h-2.5l4.07,15.58h2.06l3.15-10.92,3.18,10.92h2.06l4.07-15.58Zm-25.13,6.41v-1.71h-2.21v-1.61c0-.82,.39-1.3,1.23-1.3h.98v-1.9h-1.4c-2.08,0-3.04,1.49-3.04,3.09v1.72h-1.27v1.71h1.27v9.17h2.23v-9.17h2.21Zm-8.56,9.17v-11.09h-2.23v6.76c0,1.71-1.05,2.48-2.3,2.48s-2.24-.74-2.24-2.47v-6.76h-2.23v7.09c0,1.25,.26,2.3,1.12,3.13,.65,.63,1.6,1,2.74,1s2.19-.41,2.96-1.25v1.12h2.19Zm-15.3-5.14h-4.79l2.43-6.92,2.36,6.92Zm4.25,5.14l-5.71-15.58h-1.91l-5.71,15.58h2.52l1.07-3.13h6.15l1.07,3.13h2.52Z"/><path class="h" d="M175.31,610.15h-2.67v2.67h2.67v-2.67Zm-5.08,2.67l-4.33-6.74,3.85-4.36h-2.71l-4.31,5.12v-9.61h-2.23v15.58h2.23v-3.26l1.64-1.86,3.11,5.12h2.76Zm-13.4,0v-7.09c0-1.25-.26-2.3-1.12-3.13-.65-.63-1.6-1.01-2.74-1.01s-2.19,.42-2.96,1.25v-1.12h-2.19v11.1h2.23v-6.76c0-1.71,1.05-2.47,2.3-2.47s2.23,.74,2.23,2.47v6.76h2.23Zm-14.88-4c0,.79-.15,1.31-.48,1.64-.59,.57-1.23,.63-2.08,.63-1.4,0-2.04-.57-2.04-1.58s.68-1.6,1.99-1.6h2.61v.9Zm2.23,4v-7.42c0-2.52-1.53-3.81-4.57-3.81-1.84,0-2.93,.37-3.98,1.6l1.46,1.38c.61-.79,1.21-1.07,2.43-1.07,1.73,0,2.43,.68,2.43,2.08v.79h-2.93c-2.54,0-3.83,1.33-3.83,3.2,0,.94,.31,1.79,.87,2.38,.68,.68,1.6,1.01,2.98,1.01s2.15-.33,2.96-1.14v1h2.19Zm-13.98-7.9c0,2.15-.02,3.83-.83,4.73-.66,.72-1.53,1.05-2.65,1.05h-2.87v-11.34h2.87c1.12,0,1.99,.33,2.65,1.05,.81,.9,.83,2.37,.83,4.51m2.36,0c0-2.26,.11-4.53-1.57-6.22-.99-.98-2.41-1.47-4.03-1.47h-5.47v15.58h5.47c1.62,0,3.04-.48,4.03-1.47,1.68-1.68,1.57-4.18,1.57-6.44m-20.47,7.9v-7.09c0-1.25-.26-2.3-1.11-3.13-.66-.63-1.6-1.01-2.74-1.01s-2.19,.42-2.96,1.25v-1.12h-2.19v11.1h2.23v-6.76c0-1.71,1.05-2.47,2.3-2.47s2.24,.74,2.24,2.47v6.76h2.23Zm-14.38-6.46h-4.99c.02-.68,.07-1.01,.29-1.51,.35-.83,1.16-1.4,2.21-1.4s1.84,.57,2.19,1.4c.22,.5,.29,.83,.31,1.51m2.21,1.55v-.98c0-3.15-1.73-5.34-4.71-5.34s-4.7,2.08-4.7,5.67c0,4.23,2.21,5.69,4.99,5.69,1.95,0,3.02-.59,4.16-1.73l-1.42-1.33c-.79,.79-1.44,1.14-2.69,1.14-1.82,0-2.82-1.21-2.82-3.11h7.2Zm-10.97,4.9v-1.9h-.98c-.9,0-1.21-.44-1.21-1.29v-12.39h-2.23v12.52c0,1.64,.92,3.06,3.04,3.06h1.38Zm-9.74-6.46h-4.99c.02-.68,.06-1.01,.28-1.51,.35-.83,1.16-1.4,2.21-1.4s1.84,.57,2.19,1.4c.22,.5,.28,.83,.31,1.51m2.21,1.55v-.98c0-3.15-1.73-5.34-4.71-5.34s-4.71,2.08-4.71,5.67c0,4.23,2.21,5.69,4.99,5.69,1.95,0,3.02-.59,4.16-1.73l-1.42-1.33c-.79,.79-1.44,1.14-2.69,1.14-1.82,0-2.82-1.21-2.82-3.11h7.2Zm-12.54-10.75h-2.36v2.36h2.36v-2.36Zm-.07,4.55h-2.23v11.09h2.23v-11.09Zm-4.33-4.49h-2.5l-3.59,11.34-3.59-11.34h-2.45l5.12,15.58h1.84l5.17-15.58Z"/><path class="h" d="M737.02,534.11h-2.67v2.67h2.67v-2.67Zm-7.99-3.79h-4.99c.02-.68,.07-1.01,.29-1.51,.35-.83,1.16-1.4,2.21-1.4s1.84,.57,2.19,1.4c.22,.5,.29,.83,.31,1.51m2.21,1.55v-.98c0-3.15-1.73-5.34-4.71-5.34s-4.7,2.08-4.7,5.67c0,4.22,2.21,5.69,4.99,5.69,1.95,0,3.02-.59,4.16-1.73l-1.42-1.34c-.79,.79-1.44,1.14-2.69,1.14-1.82,0-2.82-1.21-2.82-3.11h7.2Zm-10.97,4.9v-1.9h-.98c-.9,0-1.21-.44-1.21-1.29v-12.39h-2.23v12.52c0,1.64,.92,3.06,3.04,3.06h1.38Zm-8.12,0v-11.09h-2.23v6.76c0,1.71-1.05,2.48-2.3,2.48s-2.23-.74-2.23-2.47v-6.76h-2.23v7.09c0,1.25,.26,2.3,1.12,3.13,.65,.63,1.6,1,2.73,1s2.19-.41,2.96-1.25v1.12h2.19Zm-12.54,0v-7.16c0-2.41-1.38-4.07-3.85-4.07-1.09,0-2.1,.41-2.87,1.24v-5.6h-2.23v15.58h2.23v-6.81c0-1.66,1.01-2.43,2.26-2.43s2.24,.74,2.24,2.43v6.81h2.23Zm-11.76-1.44l-1.53-1.47c-.7,.76-1.25,1.05-2.12,1.05s-1.58-.35-2.06-.99c-.48-.61-.66-1.42-.66-2.71s.18-2.08,.66-2.69c.48-.64,1.2-.99,2.06-.99s1.42,.29,2.12,1.05l1.53-1.49c-1.05-1.12-2.12-1.55-3.65-1.55-2.5,0-4.94,1.51-4.94,5.67s2.45,5.69,4.94,5.69c1.53,0,2.6-.46,3.65-1.57m-11.16-3c0-1.33-.41-2.45-1.27-3.2-.66-.59-1.47-.94-2.91-1.16l-1.77-.26c-.72-.11-1.36-.37-1.75-.72-.41-.37-.59-.88-.59-1.44,0-1.38,1.01-2.43,2.85-2.43,1.32,0,2.43,.29,3.39,1.21l1.51-1.49c-1.33-1.25-2.78-1.77-4.84-1.77-3.24,0-5.21,1.86-5.21,4.57,0,1.27,.37,2.26,1.14,2.98,.68,.64,1.68,1.07,2.95,1.25l1.84,.26c.92,.13,1.31,.28,1.71,.66,.41,.37,.61,.94,.61,1.62,0,1.51-1.18,2.39-3.22,2.39-1.6,0-2.85-.35-3.98-1.49l-1.58,1.55c1.49,1.51,3.17,2.06,5.52,2.06,3.26,0,5.6-1.71,5.6-4.57m-20.86-2.01h-4.99c.02-.68,.06-1.01,.29-1.51,.35-.83,1.16-1.4,2.21-1.4s1.84,.57,2.19,1.4c.22,.5,.28,.83,.31,1.51m2.21,1.55v-.98c0-3.15-1.73-5.34-4.71-5.34s-4.7,2.08-4.7,5.67c0,4.22,2.21,5.69,4.99,5.69,1.95,0,3.02-.59,4.16-1.73l-1.42-1.34c-.79,.79-1.44,1.14-2.69,1.14-1.82,0-2.82-1.21-2.82-3.11h7.2Zm-12.54-10.74h-2.36v2.36h2.36v-2.36Zm-.06,4.55h-2.23v11.09h2.23v-11.09Zm-8.23,5.54c0,1.97-.29,3.7-2.3,3.7s-2.32-1.73-2.32-3.7,.31-3.68,2.32-3.68,2.3,1.71,2.3,3.68m2.23,5.56v-15.58h-2.23v5.6c-.81-.96-1.73-1.24-2.91-1.24-1.12,0-2.08,.37-2.69,.98-1.12,1.12-1.25,3-1.25,4.68s.13,3.59,1.25,4.71c.61,.61,1.6,.98,2.71,.98,1.21,0,2.1-.31,2.94-1.31v1.18h2.19Zm-17.69,0v-7.09c0-1.25-.26-2.3-1.12-3.13-.66-.63-1.6-1-2.73-1s-2.19,.41-2.96,1.24v-1.11h-2.19v11.09h2.23v-6.76c0-1.71,1.05-2.47,2.3-2.47s2.24,.74,2.24,2.47v6.76h2.23Zm-12.7-15.65h-2.36v2.36h2.36v-2.36Zm-.07,4.55h-2.23v11.09h2.23v-11.09Zm-9.74,.92c-.76-.76-1.58-1.05-2.65-1.05-1.25,0-2.39,.55-2.96,1.33v-1.2h-2.19v11.09h2.23v-6.74c0-1.53,1.01-2.5,2.21-2.5,.76,0,1.16,.24,1.66,.74l1.69-1.68Zm-13.18,3.72h-4.99c.02-.68,.07-1.01,.29-1.51,.35-.83,1.16-1.4,2.21-1.4s1.84,.57,2.19,1.4c.22,.5,.29,.83,.31,1.51m2.21,1.55v-.98c0-3.15-1.73-5.34-4.71-5.34s-4.7,2.08-4.7,5.67c0,4.22,2.21,5.69,4.99,5.69,1.95,0,3.02-.59,4.16-1.73l-1.42-1.34c-.79,.79-1.44,1.14-2.69,1.14-1.82,0-2.82-1.21-2.82-3.11h7.2Zm-14.84-.65c0,1.97-.29,3.7-2.3,3.7s-2.32-1.73-2.32-3.7,.31-3.68,2.32-3.68,2.3,1.71,2.3,3.68m2.23,5.56v-15.58h-2.23v5.6c-.81-.96-1.73-1.24-2.91-1.24-1.12,0-2.08,.37-2.69,.98-1.12,1.12-1.25,3-1.25,4.68s.13,3.59,1.25,4.71c.61,.61,1.6,.98,2.71,.98,1.21,0,2.1-.31,2.94-1.31v1.18h2.19Zm-13.94-6.45h-4.99c.02-.68,.07-1.01,.29-1.51,.35-.83,1.16-1.4,2.21-1.4s1.84,.57,2.19,1.4c.22,.5,.29,.83,.31,1.51m2.21,1.55v-.98c0-3.15-1.73-5.34-4.71-5.34s-4.7,2.08-4.7,5.67c0,4.22,2.21,5.69,4.99,5.69,1.95,0,3.02-.59,4.16-1.73l-1.42-1.34c-.79,.79-1.44,1.14-2.69,1.14-1.82,0-2.82-1.21-2.82-3.11h7.2Zm-12.54-10.74h-2.36v2.36h2.36v-2.36Zm-.06,4.55h-2.23v11.09h2.23v-11.09Zm-4.4,0h-2.38l-2.15,7.81-2.56-7.81h-1.73l-2.58,7.81-2.15-7.81h-2.36l3.44,11.09h1.93l2.58-7.75,2.61,7.75h1.9l3.46-11.09Zm-23.64,8.53v-10.46c0-.88-.07-1.73-.53-2.54-.44-.79-1.05-1.38-1.75-2.08l-1.53,1.53c.53,.53,.88,.83,1.2,1.44,.22,.41,.33,1.01,.33,1.77v10.2c0,.76-.11,1.36-.33,1.77-.33,.61-.68,.92-1.2,1.44l1.53,1.53c.7-.7,1.31-1.29,1.75-2.08,.46-.81,.53-1.66,.53-2.54m-6.96,2.56v-7.09c0-1.25-.33-2.3-1.18-3.13-.65-.63-1.66-1-2.8-1-1.47,0-2.58,.52-3.48,1.62-.7-1.07-1.77-1.62-3.15-1.62-1.12,0-2.21,.44-2.96,1.24v-1.11h-2.19v11.09h2.23v-6.76c0-1.71,1.05-2.47,2.3-2.47s2.23,.74,2.23,2.47v6.76h2.23v-6.87c0-1.6,1.1-2.36,2.3-2.36s2.24,.74,2.24,2.47v6.76h2.23Zm-19.53,0v-11.09h-2.23v6.76c0,1.71-1.05,2.48-2.3,2.48s-2.23-.74-2.23-2.47v-6.76h-2.23v7.09c0,1.25,.26,2.3,1.12,3.13,.66,.63,1.6,1,2.74,1s2.19-.41,2.96-1.25v1.12h2.19Zm-11.95,0v-1.9h-.92c-.83,0-1.23-.48-1.23-1.29v-5.98h2.15v-1.71h-2.15v-3.39h-2.23v3.39h-1.27v1.71h1.27v6.09c0,1.59,.96,3.08,3.04,3.08h1.34Zm-10.53-4c0,.79-.15,1.31-.48,1.64-.59,.57-1.23,.64-2.08,.64-1.4,0-2.04-.57-2.04-1.58s.68-1.6,1.99-1.6h2.61v.9Zm2.23,4v-7.42c0-2.52-1.53-3.81-4.57-3.81-1.84,0-2.93,.37-3.98,1.59l1.46,1.38c.61-.79,1.21-1.07,2.43-1.07,1.73,0,2.43,.68,2.43,2.08v.79h-2.94c-2.54,0-3.83,1.33-3.83,3.19,0,.94,.31,1.8,.88,2.39,.68,.68,1.59,1,2.97,1s2.15-.33,2.96-1.14v1h2.18Zm-13.98-7.9c0,2.15-.02,3.83-.83,4.73-.66,.72-1.53,1.05-2.65,1.05h-2.87v-11.34h2.87c1.12,0,1.99,.33,2.65,1.05,.81,.9,.83,2.36,.83,4.51m2.36,0c0-2.26,.11-4.53-1.57-6.22-.98-.98-2.41-1.47-4.03-1.47h-5.47v15.58h5.47c1.62,0,3.04-.48,4.03-1.47,1.68-1.68,1.57-4.18,1.57-6.44m-14.6,8.45c-.53-.53-.9-.83-1.23-1.44-.22-.42-.33-1.01-.33-1.79v-10.2c0-.79,.11-1.38,.33-1.79,.33-.61,.7-.92,1.23-1.44l-1.51-1.51c-.7,.7-1.33,1.29-1.77,2.08-.46,.81-.5,1.66-.5,2.54v10.46c0,.88,.04,1.73,.5,2.54,.44,.79,1.07,1.38,1.77,2.08l1.51-1.51Zm-182-.55v-7.09c0-1.25-.33-2.3-1.18-3.13-.66-.63-1.66-1-2.8-1-1.47,0-2.59,.52-3.48,1.62-.7-1.07-1.77-1.62-3.15-1.62-1.12,0-2.21,.44-2.96,1.24v-1.11h-2.19v11.09h2.23v-6.76c0-1.71,1.05-2.47,2.3-2.47s2.24,.74,2.24,2.47v6.76h2.23v-6.87c0-1.6,1.09-2.36,2.3-2.36s2.23,.74,2.23,2.47v6.76h2.23Zm-21.65-4c0,.79-.15,1.31-.48,1.64-.59,.57-1.23,.64-2.08,.64-1.4,0-2.04-.57-2.04-1.58s.68-1.6,1.99-1.6h2.61v.9Zm2.23,4v-7.42c0-2.52-1.53-3.81-4.57-3.81-1.84,0-2.93,.37-3.98,1.59l1.47,1.38c.61-.79,1.2-1.07,2.43-1.07,1.73,0,2.43,.68,2.43,2.08v.79h-2.94c-2.54,0-3.83,1.33-3.83,3.19,0,.94,.31,1.8,.88,2.39,.68,.68,1.6,1,2.98,1s2.15-.33,2.96-1.14v1h2.19Zm-16.7,0v-1.9h-.92c-.83,0-1.23-.48-1.23-1.29v-5.98h2.15v-1.71h-2.15v-3.39h-2.23v3.39h-1.27v1.71h1.27v6.09c0,1.59,.96,3.08,3.04,3.08h1.33Zm-8.29,0v-7.09c0-1.25-.33-2.3-1.18-3.13-.66-.63-1.66-1-2.8-1-1.47,0-2.59,.52-3.48,1.62-.7-1.07-1.77-1.62-3.15-1.62-1.12,0-2.21,.44-2.96,1.24v-1.11h-2.19v11.09h2.23v-6.76c0-1.71,1.05-2.47,2.3-2.47s2.24,.74,2.24,2.47v6.76h2.23v-6.87c0-1.6,1.1-2.36,2.3-2.36s2.24,.74,2.24,2.47v6.76h2.23Zm-19.42,0v-7.09c0-1.25-.33-2.3-1.18-3.13-.66-.63-1.66-1-2.8-1-1.47,0-2.59,.52-3.48,1.62-.7-1.07-1.77-1.62-3.15-1.62-1.12,0-2.21,.44-2.96,1.24v-1.11h-2.18v11.09h2.23v-6.76c0-1.71,1.05-2.47,2.3-2.47s2.23,.74,2.23,2.47v6.76h2.23v-6.87c0-1.6,1.09-2.36,2.3-2.36s2.24,.74,2.24,2.47v6.76h2.23Zm-21.23-5.56c0,1.2-.09,2.36-.77,3.04-.42,.41-.99,.66-1.64,.66s-1.21-.24-1.62-.66c-.68-.68-.77-1.84-.77-3.04s.09-2.37,.77-3.04c.41-.42,.96-.64,1.62-.64s1.23,.22,1.64,.64c.68,.68,.77,1.84,.77,3.04m2.23,0c0-1.86-.26-3.26-1.31-4.36-.72-.74-1.82-1.31-3.33-1.31s-2.58,.57-3.3,1.31c-1.05,1.09-1.31,2.5-1.31,4.36s.26,3.28,1.31,4.38c.72,.74,1.79,1.31,3.3,1.31s2.61-.57,3.33-1.31c1.05-1.09,1.31-2.5,1.31-4.38m-11.06,5.56l-4.33-6.74,3.85-4.35h-2.71l-4.31,5.12v-9.61h-2.23v15.58h2.23v-3.26l1.64-1.86,3.11,5.12h2.76Zm-26.68-5.56c0,1.97-.29,3.7-2.3,3.7s-2.32-1.73-2.32-3.7,.31-3.68,2.32-3.68,2.3,1.71,2.3,3.68m2.23,5.56v-15.58h-2.23v5.6c-.81-.96-1.73-1.24-2.91-1.24-1.12,0-2.08,.37-2.69,.98-1.12,1.12-1.25,3-1.25,4.68s.13,3.59,1.25,4.71c.61,.61,1.6,.98,2.71,.98,1.21,0,2.1-.31,2.94-1.31v1.18h2.19Zm-12.21,0v-7.09c0-1.25-.26-2.3-1.12-3.13-.66-.63-1.6-1-2.74-1s-2.19,.41-2.96,1.24v-1.11h-2.18v11.09h2.23v-6.76c0-1.71,1.05-2.47,2.3-2.47s2.24,.74,2.24,2.47v6.76h2.23Zm-12.7-15.65h-2.36v2.36h2.36v-2.36Zm-.07,4.55h-2.23v11.09h2.23v-11.09Zm-4.44,11.09l-5.58-9.48,5.06-6.11h-2.89l-6.37,7.84v-7.84h-2.36v15.58h2.36v-4.53l2.63-3.15,4.38,7.68h2.78Zm-21.54,0v-7.09c0-1.25-.26-2.3-1.12-3.13-.65-.63-1.6-1-2.74-1s-2.19,.41-2.96,1.24v-1.11h-2.19v11.09h2.23v-6.76c0-1.71,1.05-2.47,2.3-2.47s2.23,.74,2.23,2.47v6.76h2.23Zm-12.7-15.65h-2.36v2.36h2.36v-2.36Zm-.06,4.55h-2.23v11.09h2.23v-11.09Zm-7.62,4.64h-4.99c.02-.68,.06-1.01,.28-1.51,.35-.83,1.16-1.4,2.21-1.4s1.84,.57,2.19,1.4c.22,.5,.28,.83,.31,1.51m2.21,1.55v-.98c0-3.15-1.73-5.34-4.71-5.34s-4.7,2.08-4.7,5.67c0,4.22,2.21,5.69,4.99,5.69,1.95,0,3.02-.59,4.16-1.73l-1.42-1.34c-.79,.79-1.44,1.14-2.69,1.14-1.82,0-2.82-1.21-2.82-3.11h7.2Zm-12.85,4.9v-15.58h-2.36l-4.47,9.7-4.56-9.7h-2.36v15.58h2.36v-10.42l3.68,7.59h1.75l3.59-7.59v10.42h2.36Z"/><path class="h" d="M98.13,450.56c-.77-.76-1.58-1.05-2.65-1.05-1.25,0-2.38,.55-2.95,1.33v-1.2h-2.19v11.09h2.23v-6.74c0-1.53,1.01-2.5,2.21-2.5,.77,0,1.16,.24,1.66,.74l1.69-1.68Zm-13.18,3.72h-4.99c.02-.68,.06-1.01,.28-1.51,.35-.83,1.16-1.4,2.21-1.4s1.84,.57,2.19,1.4c.22,.5,.28,.83,.31,1.51m2.21,1.55v-.98c0-3.15-1.73-5.34-4.71-5.34s-4.71,2.08-4.71,5.67c0,4.23,2.21,5.69,4.99,5.69,1.95,0,3.02-.59,4.16-1.73l-1.42-1.34c-.79,.79-1.44,1.14-2.69,1.14-1.82,0-2.82-1.21-2.82-3.11h7.2Zm-14.84-.65c0,1.97-.29,3.7-2.3,3.7s-2.32-1.73-2.32-3.7,.31-3.68,2.32-3.68,2.3,1.71,2.3,3.68m2.23,5.56v-15.58h-2.23v5.6c-.81-.96-1.73-1.25-2.91-1.25-1.12,0-2.08,.37-2.69,.98-1.12,1.12-1.25,3-1.25,4.68s.13,3.59,1.25,4.71c.61,.61,1.6,.98,2.71,.98,1.21,0,2.1-.3,2.94-1.31v1.18h2.18Zm-14.03-5.56c0,1.21-.09,2.36-.77,3.04-.41,.42-.98,.66-1.64,.66s-1.21-.24-1.62-.66c-.68-.68-.76-1.84-.76-3.04s.09-2.36,.76-3.04c.42-.42,.96-.64,1.62-.64s1.23,.22,1.64,.64c.68,.68,.77,1.84,.77,3.04m2.23,0c0-1.86-.26-3.26-1.31-4.36-.72-.74-1.82-1.31-3.33-1.31s-2.59,.57-3.31,1.31c-1.05,1.09-1.31,2.5-1.31,4.36s.26,3.29,1.31,4.38c.72,.74,1.79,1.31,3.31,1.31s2.61-.57,3.33-1.31c1.05-1.09,1.31-2.5,1.31-4.38"/><path class="h" d="M528.07,382.04h-2.67v2.67h2.67v-2.67Zm-7.99-3.79h-4.99c.02-.68,.06-1.01,.28-1.51,.35-.83,1.16-1.4,2.21-1.4s1.84,.57,2.19,1.4c.22,.5,.28,.83,.31,1.51m2.21,1.55v-.98c0-3.15-1.73-5.34-4.71-5.34s-4.71,2.08-4.71,5.67c0,4.22,2.21,5.69,4.99,5.69,1.95,0,3.02-.59,4.16-1.73l-1.42-1.34c-.79,.79-1.44,1.14-2.69,1.14-1.82,0-2.82-1.21-2.82-3.11h7.2Zm-10.97,4.9v-1.9h-.99c-.9,0-1.2-.44-1.2-1.29v-12.39h-2.23v12.52c0,1.64,.92,3.06,3.04,3.06h1.38Zm-8.12,0v-11.09h-2.23v6.76c0,1.71-1.05,2.48-2.3,2.48s-2.23-.74-2.23-2.47v-6.76h-2.23v7.09c0,1.25,.26,2.3,1.12,3.13,.66,.63,1.6,1,2.73,1s2.19-.41,2.96-1.25v1.12h2.19Zm-12.54,0v-7.16c0-2.41-1.38-4.07-3.85-4.07-1.1,0-2.1,.41-2.87,1.24v-5.6h-2.23v15.58h2.23v-6.81c0-1.66,1.01-2.43,2.26-2.43s2.24,.74,2.24,2.43v6.81h2.23Zm-11.75-1.44l-1.53-1.47c-.7,.76-1.25,1.05-2.12,1.05s-1.58-.35-2.06-.99c-.48-.61-.66-1.42-.66-2.71s.18-2.08,.66-2.69c.48-.64,1.21-.99,2.06-.99s1.42,.29,2.12,1.05l1.53-1.49c-1.05-1.12-2.12-1.55-3.66-1.55-2.5,0-4.94,1.51-4.94,5.67s2.45,5.69,4.94,5.69c1.53,0,2.61-.46,3.66-1.57m-11.16-3c0-1.33-.42-2.45-1.27-3.2-.65-.59-1.47-.94-2.91-1.16l-1.77-.26c-.72-.11-1.36-.37-1.75-.72-.42-.37-.59-.88-.59-1.44,0-1.38,1.01-2.43,2.85-2.43,1.31,0,2.43,.29,3.39,1.21l1.51-1.49c-1.33-1.25-2.78-1.77-4.84-1.77-3.24,0-5.21,1.86-5.21,4.57,0,1.27,.37,2.26,1.14,2.98,.68,.64,1.68,1.07,2.95,1.25l1.84,.26c.92,.13,1.31,.28,1.71,.66,.42,.37,.61,.94,.61,1.62,0,1.51-1.18,2.39-3.22,2.39-1.6,0-2.85-.35-3.98-1.49l-1.57,1.55c1.49,1.51,3.17,2.06,5.51,2.06,3.26,0,5.6-1.71,5.6-4.57m-20.86-2.01h-4.99c.02-.68,.07-1.01,.29-1.51,.35-.83,1.16-1.4,2.21-1.4s1.84,.57,2.19,1.4c.22,.5,.29,.83,.31,1.51m2.21,1.55v-.98c0-3.15-1.73-5.34-4.71-5.34s-4.7,2.08-4.7,5.67c0,4.22,2.21,5.69,4.99,5.69,1.95,0,3.02-.59,4.16-1.73l-1.42-1.34c-.79,.79-1.44,1.14-2.69,1.14-1.82,0-2.82-1.21-2.82-3.11h7.2Zm-12.54-10.74h-2.36v2.36h2.36v-2.36Zm-.06,4.55h-2.23v11.09h2.23v-11.09Zm-8.23,5.54c0,1.97-.28,3.7-2.3,3.7s-2.32-1.73-2.32-3.7,.31-3.68,2.32-3.68,2.3,1.71,2.3,3.68m2.23,5.56v-15.58h-2.23v5.6c-.81-.96-1.73-1.24-2.91-1.24-1.12,0-2.08,.37-2.69,.98-1.11,1.12-1.24,3-1.24,4.68s.13,3.59,1.24,4.71c.61,.61,1.6,.98,2.71,.98,1.21,0,2.1-.31,2.94-1.31v1.18h2.19Zm-17.69,0v-7.09c0-1.25-.26-2.3-1.12-3.13-.65-.63-1.6-1-2.74-1s-2.19,.41-2.96,1.24v-1.11h-2.19v11.09h2.23v-6.76c0-1.71,1.05-2.47,2.3-2.47s2.23,.74,2.23,2.47v6.76h2.23Zm-12.7-15.65h-2.36v2.36h2.36v-2.36Zm-.06,4.55h-2.23v11.09h2.23v-11.09Zm-9.74,.92c-.76-.76-1.58-1.05-2.65-1.05-1.25,0-2.39,.55-2.96,1.33v-1.2h-2.18v11.09h2.23v-6.74c0-1.53,1.01-2.5,2.21-2.5,.76,0,1.16,.24,1.66,.74l1.68-1.68Zm-13.18,3.72h-4.99c.02-.68,.07-1.01,.29-1.51,.35-.83,1.16-1.4,2.21-1.4s1.84,.57,2.19,1.4c.22,.5,.29,.83,.31,1.51m2.21,1.55v-.98c0-3.15-1.73-5.34-4.71-5.34s-4.7,2.08-4.7,5.67c0,4.22,2.21,5.69,4.99,5.69,1.95,0,3.02-.59,4.16-1.73l-1.42-1.34c-.79,.79-1.44,1.14-2.69,1.14-1.82,0-2.82-1.21-2.82-3.11h7.2Zm-14.84-.65c0,1.97-.28,3.7-2.3,3.7s-2.32-1.73-2.32-3.7,.31-3.68,2.32-3.68,2.3,1.71,2.3,3.68m2.23,5.56v-15.58h-2.23v5.6c-.81-.96-1.73-1.24-2.91-1.24-1.12,0-2.08,.37-2.69,.98-1.12,1.12-1.25,3-1.25,4.68s.13,3.59,1.25,4.71c.61,.61,1.6,.98,2.71,.98,1.21,0,2.1-.31,2.94-1.31v1.18h2.19Zm-13.94-6.45h-4.99c.02-.68,.06-1.01,.28-1.51,.35-.83,1.16-1.4,2.21-1.4s1.84,.57,2.19,1.4c.22,.5,.28,.83,.31,1.51m2.21,1.55v-.98c0-3.15-1.73-5.34-4.71-5.34s-4.71,2.08-4.71,5.67c0,4.22,2.21,5.69,4.99,5.69,1.95,0,3.02-.59,4.16-1.73l-1.42-1.34c-.79,.79-1.44,1.14-2.69,1.14-1.82,0-2.82-1.21-2.82-3.11h7.2Zm-12.54-10.74h-2.36v2.36h2.36v-2.36Zm-.07,4.55h-2.23v11.09h2.23v-11.09Zm-4.4,0h-2.38l-2.15,7.81-2.56-7.81h-1.73l-2.58,7.81-2.15-7.81h-2.36l3.44,11.09h1.93l2.58-7.75,2.61,7.75h1.9l3.46-11.09Zm-23.44,11.09v-7.09c0-1.25-.26-2.3-1.11-3.13-.66-.63-1.6-1-2.74-1s-2.19,.41-2.96,1.24v-1.11h-2.19v11.09h2.23v-6.76c0-1.71,1.05-2.47,2.3-2.47s2.23,.74,2.23,2.47v6.76h2.23Zm-14.38-6.45h-4.99c.02-.68,.07-1.01,.29-1.51,.35-.83,1.16-1.4,2.21-1.4s1.84,.57,2.19,1.4c.22,.5,.29,.83,.31,1.51m2.21,1.55v-.98c0-3.15-1.73-5.34-4.71-5.34s-4.7,2.08-4.7,5.67c0,4.22,2.21,5.69,4.99,5.69,1.95,0,3.02-.59,4.16-1.73l-1.42-1.34c-.79,.79-1.44,1.14-2.69,1.14-1.82,0-2.82-1.21-2.82-3.11h7.2Zm-14.84-.85c0,1.75-.24,3.48-2.26,3.48s-2.28-1.73-2.28-3.48,.26-3.48,2.28-3.48,2.26,1.73,2.26,3.48m2.23,5.69v-11.03h-2.17v1.18c-.83-1-1.73-1.31-2.91-1.31-1.12,0-2.06,.35-2.67,.96-1.07,1.07-1.25,2.63-1.25,4.51s.18,3.44,1.25,4.51c.61,.61,1.53,.98,2.65,.98s2.06-.31,2.87-1.27v1.42c0,1.49-.72,2.82-2.61,2.82-1.1,0-1.71-.33-2.41-.99l-1.42,1.42c1.16,1.07,2.23,1.47,3.92,1.47,2.96,0,4.75-1.97,4.75-4.68m-9.83-10.11c-.76-.76-1.58-1.05-2.65-1.05-1.25,0-2.39,.55-2.96,1.33v-1.2h-2.19v11.09h2.23v-6.74c0-1.53,1.01-2.5,2.21-2.5,.76,0,1.16,.24,1.66,.74l1.68-1.68Zm-13.26,4.62c0,1.2-.09,2.36-.76,3.04-.42,.41-.99,.66-1.64,.66s-1.21-.24-1.62-.66c-.68-.68-.76-1.84-.76-3.04s.09-2.37,.76-3.04c.42-.42,.97-.64,1.62-.64s1.23,.22,1.64,.64c.68,.68,.76,1.84,.76,3.04m2.23,0c0-1.86-.26-3.26-1.31-4.36-.72-.74-1.82-1.31-3.33-1.31s-2.59,.57-3.31,1.31c-1.05,1.09-1.31,2.5-1.31,4.36s.26,3.28,1.31,4.38c.72,.74,1.79,1.31,3.31,1.31s2.61-.57,3.33-1.31c1.05-1.09,1.31-2.5,1.31-4.38m-12.39,5.56v-7.09c0-1.25-.33-2.3-1.18-3.13-.66-.63-1.66-1-2.8-1-1.47,0-2.59,.52-3.48,1.62-.7-1.07-1.77-1.62-3.15-1.62-1.12,0-2.21,.44-2.96,1.24v-1.11h-2.19v11.09h2.23v-6.76c0-1.71,1.05-2.47,2.3-2.47s2.24,.74,2.24,2.47v6.76h2.23v-6.87c0-1.6,1.09-2.36,2.3-2.36s2.23,.74,2.23,2.47v6.76h2.23Zm-24.3,0v-1.9h-.92c-.83,0-1.23-.48-1.23-1.29v-5.98h2.15v-1.71h-2.15v-3.39h-2.23v3.39h-1.27v1.71h1.27v6.09c0,1.59,.96,3.08,3.04,3.08h1.33Zm-8.29,0v-7.09c0-1.25-.33-2.3-1.18-3.13-.66-.63-1.66-1-2.8-1-1.47,0-2.59,.52-3.48,1.62-.7-1.07-1.77-1.62-3.15-1.62-1.12,0-2.21,.44-2.96,1.24v-1.11h-2.19v11.09h2.23v-6.76c0-1.71,1.05-2.47,2.3-2.47s2.24,.74,2.24,2.47v6.76h2.23v-6.87c0-1.6,1.1-2.36,2.3-2.36s2.24,.74,2.24,2.47v6.76h2.23Zm-19.42,0v-7.09c0-1.25-.33-2.3-1.18-3.13-.66-.63-1.66-1-2.8-1-1.47,0-2.59,.52-3.48,1.62-.7-1.07-1.77-1.62-3.15-1.62-1.12,0-2.21,.44-2.96,1.24v-1.11h-2.18v11.09h2.23v-6.76c0-1.71,1.05-2.47,2.3-2.47s2.23,.74,2.23,2.47v6.76h2.23v-6.87c0-1.6,1.09-2.36,2.3-2.36s2.24,.74,2.24,2.47v6.76h2.23Zm-21.23-5.56c0,1.2-.09,2.36-.77,3.04-.42,.41-.99,.66-1.64,.66s-1.21-.24-1.62-.66c-.68-.68-.77-1.84-.77-3.04s.09-2.37,.77-3.04c.41-.42,.96-.64,1.62-.64s1.23,.22,1.64,.64c.68,.68,.77,1.84,.77,3.04m2.23,0c0-1.86-.26-3.26-1.31-4.36-.72-.74-1.82-1.31-3.33-1.31s-2.58,.57-3.3,1.31c-1.05,1.09-1.31,2.5-1.31,4.36s.26,3.28,1.31,4.38c.72,.74,1.79,1.31,3.3,1.31s2.61-.57,3.33-1.31c1.05-1.09,1.31-2.5,1.31-4.38m-11.06,5.56l-4.33-6.74,3.85-4.35h-2.71l-4.31,5.12v-9.61h-2.23v15.58h2.23v-3.26l1.64-1.86,3.11,5.12h2.76Zm-26.68-5.56c0,1.97-.29,3.7-2.3,3.7s-2.32-1.73-2.32-3.7,.31-3.68,2.32-3.68,2.3,1.71,2.3,3.68m2.23,5.56v-15.58h-2.23v5.6c-.81-.96-1.73-1.24-2.91-1.24-1.12,0-2.08,.37-2.69,.98-1.12,1.12-1.25,3-1.25,4.68s.13,3.59,1.25,4.71c.61,.61,1.6,.98,2.71,.98,1.21,0,2.1-.31,2.94-1.31v1.18h2.19Zm-12.21,0v-7.09c0-1.25-.26-2.3-1.12-3.13-.66-.63-1.6-1-2.74-1s-2.19,.41-2.96,1.24v-1.11h-2.18v11.09h2.23v-6.76c0-1.71,1.05-2.47,2.3-2.47s2.24,.74,2.24,2.47v6.76h2.23Zm-12.7-15.65h-2.36v2.36h2.36v-2.36Zm-.07,4.55h-2.23v11.09h2.23v-11.09Zm-4.44,11.09l-5.58-9.48,5.06-6.11h-2.89l-6.37,7.84v-7.84h-2.36v15.58h2.36v-4.53l2.63-3.15,4.38,7.68h2.78Zm-21.54,0v-7.09c0-1.25-.26-2.3-1.12-3.13-.65-.63-1.6-1-2.74-1s-2.19,.41-2.96,1.24v-1.11h-2.19v11.09h2.23v-6.76c0-1.71,1.05-2.47,2.3-2.47s2.23,.74,2.23,2.47v6.76h2.23Zm-12.7-15.65h-2.36v2.36h2.36v-2.36Zm-.06,4.55h-2.23v11.09h2.23v-11.09Zm-7.62,4.64h-4.99c.02-.68,.06-1.01,.28-1.51,.35-.83,1.16-1.4,2.21-1.4s1.84,.57,2.19,1.4c.22,.5,.28,.83,.31,1.51m2.21,1.55v-.98c0-3.15-1.73-5.34-4.71-5.34s-4.7,2.08-4.7,5.67c0,4.22,2.21,5.69,4.99,5.69,1.95,0,3.02-.59,4.16-1.73l-1.42-1.34c-.79,.79-1.44,1.14-2.69,1.14-1.82,0-2.82-1.21-2.82-3.11h7.2Zm-12.85,4.9v-15.58h-2.36l-4.47,9.7-4.56-9.7h-2.36v15.58h2.36v-10.42l3.68,7.59h1.75l3.59-7.59v10.42h2.36Z"/><path class="h" d="M867.46,306h-2.67v2.67h2.67v-2.67Zm-5.08,2.67l-4.33-6.74,3.85-4.35h-2.71l-4.31,5.12v-9.61h-2.23v15.58h2.23v-3.26l1.64-1.86,3.11,5.12h2.76Zm-13.4,0v-7.09c0-1.25-.26-2.3-1.11-3.13-.66-.63-1.6-1-2.74-1s-2.19,.41-2.96,1.24v-1.11h-2.19v11.09h2.23v-6.76c0-1.71,1.05-2.47,2.3-2.47s2.24,.74,2.24,2.47v6.76h2.23Zm-14.88-4c0,.79-.15,1.31-.48,1.64-.59,.57-1.23,.64-2.08,.64-1.4,0-2.04-.57-2.04-1.58s.68-1.6,1.99-1.6h2.61v.9Zm2.23,4v-7.42c0-2.52-1.53-3.81-4.57-3.81-1.84,0-2.94,.37-3.98,1.59l1.47,1.38c.61-.79,1.2-1.07,2.43-1.07,1.73,0,2.43,.68,2.43,2.08v.79h-2.94c-2.54,0-3.83,1.33-3.83,3.19,0,.94,.31,1.8,.88,2.39,.68,.68,1.6,1,2.97,1s2.15-.33,2.96-1.14v1h2.19Zm-9.98-10.18c-.76-.76-1.57-1.05-2.65-1.05-1.25,0-2.39,.55-2.95,1.33v-1.2h-2.19v11.09h2.23v-6.74c0-1.53,1-2.5,2.21-2.5,.77,0,1.16,.24,1.66,.74l1.68-1.68Zm-10.26,10.18l-4.33-6.74,3.85-4.35h-2.71l-4.31,5.12v-9.61h-2.23v15.58h2.23v-3.26l1.64-1.86,3.11,5.12h2.76Zm-23.75,0v-1.9h-.92c-.83,0-1.23-.48-1.23-1.29v-5.98h2.15v-1.71h-2.15v-3.39h-2.23v3.39h-1.27v1.71h1.27v6.09c0,1.59,.96,3.08,3.04,3.08h1.34Zm-7.35-3.39c0-1.97-1.23-2.96-3.3-3.13l-1.75-.15c-1.18-.11-1.53-.61-1.53-1.27,0-.83,.68-1.42,2.01-1.42,1.05,0,2.03,.22,2.74,.81l1.4-1.42c-1.03-.9-2.45-1.24-4.12-1.24-2.32,0-4.18,1.22-4.18,3.39,0,1.95,1.2,2.89,3.28,3.07l1.77,.15c1.07,.09,1.49,.57,1.49,1.31,0,1.05-1.07,1.53-2.43,1.53-1.09,0-2.3-.24-3.2-1.16l-1.47,1.47c1.31,1.29,2.85,1.59,4.66,1.59,2.65,0,4.62-1.2,4.62-3.52m-11.91-12.26h-2.36v2.36h2.36v-2.36Zm-.07,4.55h-2.23v11.09h2.23v-11.09Zm-11.56,8.53v-10.46c0-.88-.07-1.73-.53-2.54-.44-.79-1.05-1.38-1.75-2.08l-1.53,1.53c.53,.53,.88,.83,1.2,1.44,.22,.41,.33,1.01,.33,1.77v10.2c0,.76-.11,1.36-.33,1.77-.33,.61-.68,.92-1.2,1.44l1.53,1.53c.7-.7,1.31-1.29,1.75-2.08,.46-.81,.53-1.66,.53-2.54m-6.24-.83c0-1.97-1.23-2.96-3.31-3.13l-1.75-.15c-1.18-.11-1.53-.61-1.53-1.27,0-.83,.68-1.42,2.01-1.42,1.05,0,2.04,.22,2.74,.81l1.4-1.42c-1.03-.9-2.45-1.24-4.12-1.24-2.32,0-4.18,1.22-4.18,3.39,0,1.95,1.21,2.89,3.28,3.07l1.77,.15c1.07,.09,1.49,.57,1.49,1.31,0,1.05-1.07,1.53-2.43,1.53-1.09,0-2.3-.24-3.2-1.16l-1.47,1.47c1.31,1.29,2.85,1.59,4.66,1.59,2.65,0,4.62-1.2,4.62-3.52m-13.59-3.06h-4.99c.02-.68,.06-1.01,.28-1.51,.35-.83,1.16-1.4,2.21-1.4s1.84,.57,2.19,1.4c.22,.5,.28,.83,.31,1.51m2.21,1.55v-.98c0-3.15-1.73-5.34-4.71-5.34s-4.7,2.08-4.7,5.67c0,4.23,2.21,5.69,4.99,5.69,1.95,0,3.02-.59,4.16-1.73l-1.42-1.34c-.79,.79-1.44,1.14-2.69,1.14-1.82,0-2.82-1.21-2.82-3.11h7.2Zm-14.84-.65c0,1.97-.29,3.7-2.3,3.7s-2.32-1.73-2.32-3.7,.31-3.68,2.32-3.68,2.3,1.71,2.3,3.68m2.23,5.56v-15.58h-2.23v5.6c-.81-.96-1.73-1.24-2.91-1.24-1.12,0-2.08,.37-2.69,.98-1.12,1.12-1.25,3-1.25,4.68s.13,3.59,1.25,4.71c.61,.61,1.6,.98,2.71,.98,1.21,0,2.1-.31,2.94-1.31v1.18h2.18Zm-12.21,0v-7.09c0-1.25-.26-2.3-1.11-3.13-.66-.63-1.6-1-2.74-1s-2.19,.41-2.96,1.24v-1.11h-2.19v11.09h2.23v-6.76c0-1.71,1.05-2.47,2.3-2.47s2.24,.74,2.24,2.47v6.76h2.23Zm-12.69-15.65h-2.36v2.36h2.36v-2.36Zm-.07,4.55h-2.23v11.09h2.23v-11.09Zm-4.44,11.09l-5.58-9.48,5.06-6.11h-2.89l-6.37,7.84v-7.84h-2.36v15.58h2.36v-4.53l2.63-3.15,4.38,7.68h2.78Zm-20.82-3.39c0-1.97-1.23-2.96-3.31-3.13l-1.75-.15c-1.18-.11-1.53-.61-1.53-1.27,0-.83,.68-1.42,2.01-1.42,1.05,0,2.04,.22,2.74,.81l1.4-1.42c-1.03-.9-2.45-1.24-4.12-1.24-2.32,0-4.18,1.22-4.18,3.39,0,1.95,1.21,2.89,3.28,3.07l1.77,.15c1.07,.09,1.49,.57,1.49,1.31,0,1.05-1.07,1.53-2.43,1.53-1.09,0-2.3-.24-3.2-1.16l-1.47,1.47c1.31,1.29,2.85,1.59,4.66,1.59,2.65,0,4.62-1.2,4.62-3.52m-13.59-3.06h-4.99c.02-.68,.06-1.01,.29-1.51,.35-.83,1.16-1.4,2.21-1.4s1.84,.57,2.19,1.4c.22,.5,.28,.83,.31,1.51m2.21,1.55v-.98c0-3.15-1.73-5.34-4.71-5.34s-4.7,2.08-4.7,5.67c0,4.23,2.21,5.69,4.99,5.69,1.95,0,3.02-.59,4.16-1.73l-1.42-1.34c-.79,.79-1.44,1.14-2.69,1.14-1.82,0-2.82-1.21-2.82-3.11h7.2Zm-14.84-.65c0,1.97-.29,3.7-2.3,3.7s-2.32-1.73-2.32-3.7,.31-3.68,2.32-3.68,2.3,1.71,2.3,3.68m2.23,5.56v-15.58h-2.23v5.6c-.81-.96-1.73-1.24-2.91-1.24-1.12,0-2.08,.37-2.69,.98-1.12,1.12-1.25,3-1.25,4.68s.13,3.59,1.25,4.71c.61,.61,1.6,.98,2.71,.98,1.21,0,2.1-.31,2.94-1.31v1.18h2.19Zm-19.42-6.45h-4.99c.02-.68,.07-1.01,.29-1.51,.35-.83,1.16-1.4,2.21-1.4s1.84,.57,2.19,1.4c.22,.5,.29,.83,.31,1.51m2.21,1.55v-.98c0-3.15-1.73-5.34-4.71-5.34s-4.7,2.08-4.7,5.67c0,4.23,2.21,5.69,4.99,5.69,1.95,0,3.02-.59,4.16-1.73l-1.42-1.34c-.79,.79-1.44,1.14-2.69,1.14-1.82,0-2.82-1.21-2.82-3.11h7.2Zm-12.5,4.9v-7.09c0-1.25-.33-2.3-1.18-3.13-.66-.63-1.66-1-2.8-1-1.47,0-2.59,.52-3.48,1.62-.7-1.07-1.77-1.62-3.15-1.62-1.12,0-2.21,.44-2.96,1.24v-1.11h-2.19v11.09h2.23v-6.76c0-1.71,1.05-2.47,2.3-2.47s2.24,.74,2.24,2.47v6.76h2.23v-6.87c0-1.6,1.09-2.36,2.3-2.36s2.23,.74,2.23,2.47v6.76h2.23Zm-21.65-4c0,.79-.15,1.31-.48,1.64-.59,.57-1.23,.64-2.08,.64-1.4,0-2.04-.57-2.04-1.58s.68-1.6,1.99-1.6h2.61v.9Zm2.23,4v-7.42c0-2.52-1.53-3.81-4.57-3.81-1.84,0-2.93,.37-3.98,1.59l1.47,1.38c.61-.79,1.21-1.07,2.43-1.07,1.73,0,2.43,.68,2.43,2.08v.79h-2.94c-2.54,0-3.83,1.33-3.83,3.19,0,.94,.31,1.8,.88,2.39,.68,.68,1.6,1,2.98,1s2.15-.33,2.96-1.14v1h2.19Zm-12.19,0v-15.58h-2.36v10.94l-7.21-10.94h-2.16v15.58h2.36v-10.97l7.21,10.97h2.16Zm-15.26,.55c-.53-.53-.9-.83-1.23-1.44-.22-.42-.33-1.01-.33-1.79v-10.2c0-.79,.11-1.38,.33-1.79,.33-.61,.7-.92,1.23-1.44l-1.51-1.51c-.7,.7-1.33,1.29-1.77,2.08-.46,.81-.5,1.66-.5,2.54v10.46c0,.88,.04,1.73,.5,2.54,.44,.79,1.07,1.38,1.77,2.08l1.51-1.51Zm-262.55-.55v-7.09c0-1.25-.26-2.3-1.12-3.13-.66-.63-1.6-1-2.74-1s-2.19,.41-2.96,1.24v-1.11h-2.19v11.09h2.23v-6.76c0-1.71,1.05-2.47,2.3-2.47s2.23,.74,2.23,2.47v6.76h2.23Zm-12.65,0v-7.16c0-2.41-1.38-4.07-3.85-4.07-1.09,0-2.1,.41-2.87,1.24v-5.6h-2.23v15.58h2.23v-6.81c0-1.66,1.01-2.43,2.26-2.43s2.23,.74,2.23,2.43v6.81h2.23Zm-14.42-5.56c0,1.2-.09,2.36-.77,3.04-.41,.41-.99,.66-1.64,.66s-1.2-.24-1.62-.66c-.68-.68-.77-1.84-.77-3.04s.09-2.37,.77-3.04c.42-.42,.96-.64,1.62-.64s1.23,.22,1.64,.64c.68,.68,.77,1.84,.77,3.04m2.23,0c0-1.86-.26-3.26-1.31-4.36-.72-.74-1.82-1.31-3.33-1.31s-2.58,.57-3.3,1.31c-1.05,1.09-1.31,2.5-1.31,4.36s.26,3.28,1.31,4.38c.72,.74,1.79,1.31,3.3,1.31s2.61-.57,3.33-1.31c1.05-1.09,1.31-2.5,1.31-4.38m-11.86,1.12c0-1.33-.42-2.45-1.27-3.2-.65-.59-1.47-.94-2.91-1.16l-1.77-.26c-.72-.11-1.36-.37-1.75-.72-.42-.37-.59-.88-.59-1.44,0-1.38,1.01-2.43,2.85-2.43,1.31,0,2.43,.29,3.39,1.21l1.51-1.49c-1.33-1.25-2.78-1.77-4.84-1.77-3.24,0-5.21,1.86-5.21,4.57,0,1.27,.37,2.26,1.14,2.98,.68,.64,1.68,1.07,2.96,1.25l1.84,.26c.92,.13,1.31,.28,1.71,.66,.42,.37,.61,.94,.61,1.62,0,1.51-1.18,2.39-3.22,2.39-1.6,0-2.85-.35-3.98-1.49l-1.57,1.55c1.49,1.51,3.17,2.06,5.51,2.06,3.26,0,5.6-1.71,5.6-4.57m-19.13,4.44v-7.09c0-1.25-.26-2.3-1.12-3.13-.66-.63-1.6-1-2.74-1s-2.19,.41-2.96,1.24v-1.11h-2.18v11.09h2.23v-6.76c0-1.71,1.05-2.47,2.3-2.47s2.23,.74,2.23,2.47v6.76h2.23Zm-12.7-15.65h-2.36v2.36h2.36v-2.36Zm-.07,4.55h-2.23v11.09h2.23v-11.09Zm-7.62,4.64h-4.99c.02-.68,.06-1.01,.28-1.51,.35-.83,1.16-1.4,2.21-1.4s1.84,.57,2.19,1.4c.22,.5,.28,.83,.31,1.51m2.21,1.55v-.98c0-3.15-1.73-5.34-4.71-5.34s-4.71,2.08-4.71,5.67c0,4.23,2.21,5.69,4.99,5.69,1.95,0,3.02-.59,4.16-1.73l-1.42-1.34c-.79,.79-1.44,1.14-2.69,1.14-1.82,0-2.82-1.21-2.82-3.11h7.2Zm-12.5,4.9v-7.09c0-1.25-.33-2.3-1.18-3.13-.65-.63-1.66-1-2.8-1-1.47,0-2.58,.52-3.48,1.62-.7-1.07-1.77-1.62-3.15-1.62-1.12,0-2.21,.44-2.96,1.24v-1.11h-2.19v11.09h2.23v-6.76c0-1.71,1.05-2.47,2.3-2.47s2.23,.74,2.23,2.47v6.76h2.23v-6.87c0-1.6,1.09-2.36,2.3-2.36s2.24,.74,2.24,2.47v6.76h2.23Zm-23.16-17.2h-2.15l-6.24,18.82h2.15l6.24-18.82Zm-14.12,7.03c-.76-.76-1.58-1.05-2.65-1.05-1.25,0-2.39,.55-2.95,1.33v-1.2h-2.19v11.09h2.23v-6.74c0-1.53,1.01-2.5,2.21-2.5,.76,0,1.16,.24,1.66,.74l1.68-1.68Zm-13.18,3.72h-4.99c.02-.68,.06-1.01,.28-1.51,.35-.83,1.16-1.4,2.21-1.4s1.84,.57,2.19,1.4c.22,.5,.28,.83,.31,1.51m2.21,1.55v-.98c0-3.15-1.73-5.34-4.71-5.34s-4.71,2.08-4.71,5.67c0,4.23,2.21,5.69,4.99,5.69,1.95,0,3.02-.59,4.16-1.73l-1.42-1.34c-.79,.79-1.44,1.14-2.69,1.14-1.82,0-2.82-1.21-2.82-3.11h7.2Zm-11.84,4.9v-1.9h-.92c-.83,0-1.23-.48-1.23-1.29v-5.98h2.15v-1.71h-2.15v-3.39h-2.23v3.39h-1.27v1.71h1.27v6.09c0,1.59,.96,3.08,3.04,3.08h1.34Zm-8.3,0v-7.16c0-2.41-1.38-4.07-3.85-4.07-1.09,0-2.1,.41-2.87,1.24v-5.6h-2.23v15.58h2.23v-6.81c0-1.66,1.01-2.43,2.26-2.43s2.23,.74,2.23,2.43v6.81h2.23Zm-11.75-1.44l-1.53-1.47c-.7,.76-1.25,1.05-2.12,1.05s-1.58-.35-2.06-.99c-.48-.61-.66-1.42-.66-2.71s.18-2.08,.66-2.69c.48-.64,1.21-.99,2.06-.99s1.42,.29,2.12,1.05l1.53-1.49c-1.05-1.12-2.12-1.55-3.66-1.55-2.5,0-4.94,1.51-4.94,5.67s2.45,5.69,4.94,5.69c1.53,0,2.61-.46,3.66-1.57m-13.5-4.12c0,1.2-.09,2.36-.77,3.04-.42,.41-.99,.66-1.64,.66s-1.21-.24-1.62-.66c-.68-.68-.77-1.84-.77-3.04s.09-2.37,.77-3.04c.41-.42,.96-.64,1.62-.64s1.23,.22,1.64,.64c.68,.68,.77,1.84,.77,3.04m2.23,0c0-1.86-.26-3.26-1.31-4.36-.72-.74-1.82-1.31-3.33-1.31s-2.58,.57-3.31,1.31c-1.05,1.09-1.31,2.5-1.31,4.36s.26,3.28,1.31,4.38c.72,.74,1.79,1.31,3.31,1.31s2.61-.57,3.33-1.31c1.05-1.09,1.31-2.5,1.31-4.38m-9.94-7.9v-2.12h-10.94v2.12h4.29v13.46h2.36v-13.46h4.29Zm-20.68,7.01h-4.99c.02-.68,.07-1.01,.29-1.51,.35-.83,1.16-1.4,2.21-1.4s1.84,.57,2.19,1.4c.22,.5,.29,.83,.31,1.51m2.21,1.55v-.98c0-3.15-1.73-5.34-4.71-5.34s-4.7,2.08-4.7,5.67c0,4.23,2.21,5.69,4.99,5.69,1.95,0,3.02-.59,4.16-1.73l-1.42-1.34c-.79,.79-1.44,1.14-2.69,1.14-1.82,0-2.82-1.21-2.82-3.11h7.2Zm-12.5,4.9v-7.09c0-1.25-.26-2.3-1.12-3.13-.65-.63-1.6-1-2.74-1s-2.19,.41-2.96,1.24v-1.11h-2.19v11.09h2.23v-6.76c0-1.71,1.05-2.47,2.3-2.47s2.23,.74,2.23,2.47v6.76h2.23Zm-12.7-15.65h-2.36v2.36h2.36v-2.36Zm-.06,4.55h-2.23v11.09h2.23v-11.09Zm-7.62,4.64h-4.99c.02-.68,.06-1.01,.28-1.51,.35-.83,1.16-1.4,2.21-1.4s1.84,.57,2.19,1.4c.22,.5,.28,.83,.31,1.51m2.21,1.55v-.98c0-3.15-1.73-5.34-4.71-5.34s-4.7,2.08-4.7,5.67c0,4.23,2.21,5.69,4.99,5.69,1.95,0,3.02-.59,4.16-1.73l-1.42-1.34c-.79,.79-1.44,1.14-2.69,1.14-1.82,0-2.82-1.21-2.82-3.11h7.2Zm-12.85,4.9v-15.58h-2.36l-4.47,9.7-4.56-9.7h-2.36v15.58h2.36v-10.42l3.68,7.59h1.75l3.59-7.59v10.42h2.36Z"/><path class="h" d="M539.94,229.96h-2.67v2.67h2.67v-2.67Zm-235.75-3.79h-4.99c.02-.68,.06-1.01,.28-1.51,.35-.83,1.16-1.4,2.21-1.4s1.84,.57,2.19,1.4c.22,.5,.28,.83,.31,1.51m2.21,1.55v-.98c0-3.15-1.73-5.34-4.71-5.34s-4.7,2.08-4.7,5.67c0,4.23,2.21,5.69,4.99,5.69,1.95,0,3.02-.59,4.16-1.73l-1.42-1.34c-.79,.79-1.44,1.14-2.69,1.14-1.82,0-2.82-1.21-2.82-3.11h7.2Zm-11.77,1.51c0-1.97-1.23-2.96-3.3-3.13l-1.75-.15c-1.18-.11-1.53-.61-1.53-1.27,0-.83,.68-1.42,2.01-1.42,1.05,0,2.03,.22,2.74,.81l1.4-1.42c-1.03-.9-2.45-1.25-4.12-1.25-2.32,0-4.18,1.22-4.18,3.39,0,1.95,1.2,2.89,3.28,3.06l1.77,.15c1.07,.09,1.49,.57,1.49,1.31,0,1.05-1.07,1.53-2.43,1.53-1.09,0-2.3-.24-3.2-1.16l-1.47,1.47c1.31,1.29,2.85,1.6,4.66,1.6,2.65,0,4.62-1.2,4.62-3.52m-11.01,0c0-1.97-1.23-2.96-3.31-3.13l-1.75-.15c-1.18-.11-1.53-.61-1.53-1.27,0-.83,.68-1.42,2.01-1.42,1.05,0,2.04,.22,2.74,.81l1.4-1.42c-1.03-.9-2.45-1.25-4.12-1.25-2.32,0-4.18,1.22-4.18,3.39,0,1.95,1.21,2.89,3.28,3.06l1.77,.15c1.07,.09,1.49,.57,1.49,1.31,0,1.05-1.07,1.53-2.43,1.53-1.09,0-2.3-.24-3.2-1.16l-1.47,1.47c1.31,1.29,2.85,1.6,4.66,1.6,2.65,0,4.62-1.2,4.62-3.52m-14.1-.62c0,.79-.15,1.32-.48,1.64-.59,.57-1.23,.64-2.08,.64-1.4,0-2.04-.57-2.04-1.58s.68-1.6,1.99-1.6h2.61v.9Zm2.23,4.01v-7.42c0-2.52-1.53-3.81-4.57-3.81-1.84,0-2.93,.37-3.98,1.6l1.47,1.38c.61-.79,1.21-1.07,2.43-1.07,1.73,0,2.43,.68,2.43,2.08v.79h-2.94c-2.54,0-3.83,1.33-3.83,3.2,0,.94,.3,1.79,.87,2.38,.68,.68,1.6,1.01,2.98,1.01s2.15-.33,2.96-1.14v1.01h2.19Zm-10.83,0v-1.9h-.99c-.9,0-1.2-.44-1.2-1.29v-12.39h-2.23v12.52c0,1.64,.92,3.06,3.04,3.06h1.38Zm-6.57,0l-5.58-9.48,5.06-6.11h-2.89l-6.37,7.83v-7.83h-2.36v15.58h2.36v-4.53l2.63-3.15,4.38,7.68h2.78Zm-23.27-6.46h-4.99c.02-.68,.07-1.01,.29-1.51,.35-.83,1.16-1.4,2.21-1.4s1.84,.57,2.19,1.4c.22,.5,.29,.83,.31,1.51m2.21,1.55v-.98c0-3.15-1.73-5.34-4.71-5.34s-4.7,2.08-4.7,5.67c0,4.23,2.21,5.69,4.99,5.69,1.95,0,3.02-.59,4.16-1.73l-1.42-1.34c-.79,.79-1.44,1.14-2.69,1.14-1.82,0-2.82-1.21-2.82-3.11h7.2Zm-12.54-10.75h-2.36v2.36h2.36v-2.36Zm-.06,4.55h-2.23v11.09h2.23v-11.09Zm-8.23,5.54c0,1.97-.28,3.7-2.3,3.7s-2.32-1.73-2.32-3.7,.31-3.68,2.32-3.68,2.3,1.71,2.3,3.68m2.23,5.56v-15.58h-2.23v5.6c-.81-.96-1.73-1.25-2.91-1.25-1.12,0-2.08,.37-2.69,.98-1.12,1.12-1.25,3-1.25,4.68s.13,3.59,1.25,4.71c.61,.61,1.6,.98,2.71,.98,1.21,0,2.1-.31,2.94-1.31v1.18h2.19Zm-17.69,0v-7.09c0-1.25-.26-2.3-1.12-3.13-.65-.63-1.6-1.01-2.74-1.01s-2.19,.42-2.96,1.25v-1.12h-2.19v11.1h2.23v-6.76c0-1.71,1.05-2.47,2.3-2.47s2.23,.74,2.23,2.47v6.76h2.23Zm-12.7-15.65h-2.36v2.36h2.36v-2.36Zm-.06,4.55h-2.23v11.09h2.23v-11.09Zm-10.77,11.1v-1.9h-.92c-.83,0-1.23-.48-1.23-1.29v-5.98h2.15v-1.71h-2.15v-3.39h-2.23v3.39h-1.27v1.71h1.27v6.09c0,1.59,.96,3.08,3.04,3.08h1.34Zm-8.3,0v-7.16c0-2.41-1.38-4.07-3.85-4.07-1.09,0-2.1,.42-2.87,1.25v-5.6h-2.23v15.58h2.23v-6.81c0-1.66,1.01-2.43,2.26-2.43s2.24,.74,2.24,2.43v6.81h2.23Zm-14.34-6.46h-4.99c.02-.68,.07-1.01,.29-1.51,.35-.83,1.16-1.4,2.21-1.4s1.84,.57,2.19,1.4c.22,.5,.29,.83,.31,1.51m2.21,1.55v-.98c0-3.15-1.73-5.34-4.71-5.34s-4.7,2.08-4.7,5.67c0,4.23,2.21,5.69,4.99,5.69,1.95,0,3.02-.59,4.16-1.73l-1.42-1.34c-.79,.79-1.44,1.14-2.69,1.14-1.82,0-2.82-1.21-2.82-3.11h7.2Zm-14.84-.85c0,1.75-.24,3.48-2.26,3.48s-2.28-1.73-2.28-3.48,.26-3.48,2.28-3.48,2.26,1.73,2.26,3.48m2.23,5.69v-11.03h-2.17v1.18c-.83-1-1.73-1.31-2.91-1.31-1.12,0-2.06,.35-2.67,.96-1.07,1.07-1.25,2.62-1.25,4.51s.18,3.44,1.25,4.51c.61,.61,1.53,.98,2.65,.98s2.06-.31,2.87-1.27v1.42c0,1.49-.72,2.83-2.61,2.83-1.1,0-1.71-.33-2.41-.99l-1.42,1.42c1.16,1.07,2.23,1.47,3.92,1.47,2.96,0,4.75-1.97,4.75-4.68m-15.98-10.11c-.77-.76-1.58-1.05-2.65-1.05-1.25,0-2.38,.55-2.95,1.33v-1.2h-2.19v11.1h2.23v-6.74c0-1.53,1.01-2.5,2.21-2.5,.77,0,1.16,.24,1.66,.74l1.69-1.68Zm-13.18,3.72h-4.99c.02-.68,.06-1.01,.28-1.51,.35-.83,1.16-1.4,2.21-1.4s1.84,.57,2.19,1.4c.22,.5,.28,.83,.31,1.51m2.21,1.55v-.98c0-3.15-1.73-5.34-4.71-5.34s-4.7,2.08-4.7,5.67c0,4.23,2.21,5.69,4.99,5.69,1.95,0,3.02-.59,4.16-1.73l-1.42-1.34c-.79,.79-1.44,1.14-2.69,1.14-1.82,0-2.82-1.21-2.82-3.11h7.2Zm-16.24-12.3h-2.15l-6.24,18.82h2.15l6.24-18.82Zm-17.47,10.75h-4.99c.02-.68,.06-1.01,.28-1.51,.35-.83,1.16-1.4,2.21-1.4s1.84,.57,2.19,1.4c.22,.5,.28,.83,.31,1.51m2.21,1.55v-.98c0-3.15-1.73-5.34-4.71-5.34s-4.7,2.08-4.7,5.67c0,4.23,2.21,5.69,4.99,5.69,1.95,0,3.02-.59,4.16-1.73l-1.42-1.34c-.79,.79-1.44,1.14-2.69,1.14-1.82,0-2.82-1.21-2.82-3.11h7.2Zm-12.54-10.75h-2.36v2.36h2.36v-2.36Zm-.07,4.55h-2.23v11.09h2.23v-11.09Zm-5.36,6.65c0-1.34-.41-2.45-1.27-3.2-.66-.59-1.47-.94-2.91-1.16l-1.77-.26c-.72-.11-1.36-.37-1.75-.72-.41-.37-.59-.88-.59-1.44,0-1.38,1.01-2.43,2.85-2.43,1.31,0,2.43,.28,3.39,1.2l1.51-1.49c-1.33-1.25-2.78-1.77-4.84-1.77-3.24,0-5.21,1.86-5.21,4.57,0,1.27,.37,2.26,1.14,2.98,.68,.63,1.68,1.07,2.95,1.25l1.84,.26c.92,.13,1.31,.29,1.71,.66,.41,.37,.61,.94,.61,1.62,0,1.51-1.18,2.38-3.22,2.38-1.6,0-2.85-.35-3.98-1.49l-1.58,1.56c1.49,1.51,3.17,2.06,5.52,2.06,3.26,0,5.6-1.71,5.6-4.57"/><path class="h" d="M757.14,154.03v-10.46c0-.88-.07-1.73-.53-2.54-.44-.79-1.05-1.38-1.75-2.08l-1.53,1.53c.53,.52,.88,.83,1.2,1.44,.22,.42,.33,1.01,.33,1.77v10.2c0,.77-.11,1.36-.33,1.77-.33,.61-.68,.92-1.2,1.44l1.53,1.53c.7-.7,1.31-1.29,1.75-2.08,.46-.81,.53-1.66,.53-2.54m-6.24-.83c0-1.97-1.23-2.96-3.31-3.13l-1.75-.15c-1.18-.11-1.53-.61-1.53-1.27,0-.83,.68-1.42,2.01-1.42,1.05,0,2.04,.22,2.74,.81l1.4-1.42c-1.03-.9-2.45-1.25-4.12-1.25-2.32,0-4.18,1.22-4.18,3.39,0,1.95,1.21,2.89,3.28,3.06l1.77,.15c1.07,.09,1.49,.57,1.49,1.31,0,1.05-1.07,1.53-2.43,1.53-1.09,0-2.3-.24-3.2-1.16l-1.47,1.47c1.31,1.29,2.85,1.59,4.66,1.59,2.65,0,4.62-1.2,4.62-3.52m-13.59-3.06h-4.99c.02-.68,.06-1.01,.28-1.51,.35-.83,1.16-1.4,2.21-1.4s1.84,.57,2.19,1.4c.22,.5,.28,.83,.31,1.51m2.21,1.55v-.98c0-3.15-1.73-5.34-4.71-5.34s-4.7,2.08-4.7,5.67c0,4.23,2.21,5.69,4.99,5.69,1.95,0,3.02-.59,4.16-1.73l-1.42-1.34c-.79,.79-1.44,1.14-2.69,1.14-1.82,0-2.82-1.21-2.82-3.11h7.2Zm-14.84-.65c0,1.97-.29,3.7-2.3,3.7s-2.32-1.73-2.32-3.7,.31-3.68,2.32-3.68,2.3,1.71,2.3,3.68m2.23,5.56v-15.58h-2.23v5.6c-.81-.96-1.73-1.25-2.91-1.25-1.12,0-2.08,.37-2.69,.98-1.12,1.12-1.25,3-1.25,4.68s.13,3.59,1.25,4.71c.61,.61,1.6,.98,2.71,.98,1.21,0,2.1-.3,2.94-1.31v1.18h2.18Zm-12.21,0v-7.09c0-1.25-.26-2.3-1.12-3.13-.66-.64-1.6-1.01-2.74-1.01s-2.19,.41-2.96,1.25v-1.12h-2.19v11.09h2.23v-6.76c0-1.71,1.05-2.48,2.3-2.48s2.24,.74,2.24,2.47v6.76h2.23Zm-12.7-15.65h-2.36v2.36h2.36v-2.36Zm-.07,4.55h-2.23v11.09h2.23v-11.09Zm-4.44,11.09l-5.58-9.47,5.06-6.11h-2.89l-6.37,7.83v-7.83h-2.36v15.58h2.36v-4.53l2.63-3.15,4.38,7.68h2.78Zm-20.82-3.39c0-1.97-1.23-2.96-3.31-3.13l-1.75-.15c-1.18-.11-1.53-.61-1.53-1.27,0-.83,.68-1.42,2.01-1.42,1.05,0,2.04,.22,2.74,.81l1.4-1.42c-1.03-.9-2.45-1.25-4.12-1.25-2.32,0-4.18,1.22-4.18,3.39,0,1.95,1.21,2.89,3.28,3.06l1.77,.15c1.07,.09,1.49,.57,1.49,1.31,0,1.05-1.07,1.53-2.43,1.53-1.09,0-2.3-.24-3.2-1.16l-1.47,1.47c1.31,1.29,2.85,1.59,4.66,1.59,2.65,0,4.62-1.2,4.62-3.52m-13.59-3.06h-4.99c.02-.68,.07-1.01,.29-1.51,.35-.83,1.16-1.4,2.21-1.4s1.84,.57,2.19,1.4c.22,.5,.29,.83,.31,1.51m2.21,1.55v-.98c0-3.15-1.73-5.34-4.71-5.34s-4.7,2.08-4.7,5.67c0,4.23,2.21,5.69,4.99,5.69,1.95,0,3.02-.59,4.16-1.73l-1.42-1.34c-.79,.79-1.44,1.14-2.69,1.14-1.82,0-2.82-1.21-2.82-3.11h7.2Zm-14.84-.65c0,1.97-.29,3.7-2.3,3.7s-2.32-1.73-2.32-3.7,.31-3.68,2.32-3.68,2.3,1.71,2.3,3.68m2.23,5.56v-15.58h-2.23v5.6c-.81-.96-1.73-1.25-2.91-1.25-1.12,0-2.08,.37-2.69,.98-1.12,1.12-1.25,3-1.25,4.68s.13,3.59,1.25,4.71c.61,.61,1.6,.98,2.71,.98,1.21,0,2.1-.3,2.94-1.31v1.18h2.19Zm-19.42-6.45h-4.99c.02-.68,.07-1.01,.29-1.51,.35-.83,1.16-1.4,2.21-1.4s1.84,.57,2.19,1.4c.22,.5,.29,.83,.31,1.51m2.21,1.55v-.98c0-3.15-1.73-5.34-4.71-5.34s-4.7,2.08-4.7,5.67c0,4.23,2.21,5.69,4.99,5.69,1.95,0,3.02-.59,4.16-1.73l-1.42-1.34c-.79,.79-1.44,1.14-2.69,1.14-1.82,0-2.82-1.21-2.82-3.11h7.2Zm-12.5,4.9v-7.09c0-1.25-.33-2.3-1.18-3.13-.66-.64-1.66-1.01-2.8-1.01-1.47,0-2.59,.53-3.48,1.62-.7-1.07-1.77-1.62-3.15-1.62-1.12,0-2.21,.44-2.96,1.25v-1.12h-2.18v11.09h2.23v-6.76c0-1.71,1.05-2.48,2.3-2.48s2.24,.74,2.24,2.47v6.76h2.23v-6.87c0-1.6,1.09-2.36,2.3-2.36s2.24,.74,2.24,2.47v6.76h2.23Zm-21.65-4c0,.79-.15,1.32-.48,1.64-.59,.57-1.23,.64-2.08,.64-1.4,0-2.04-.57-2.04-1.58s.68-1.6,1.99-1.6h2.61v.9Zm2.23,4.01v-7.42c0-2.52-1.53-3.81-4.57-3.81-1.84,0-2.93,.37-3.98,1.6l1.47,1.38c.61-.79,1.21-1.07,2.43-1.07,1.73,0,2.43,.68,2.43,2.08v.79h-2.94c-2.54,0-3.83,1.33-3.83,3.2,0,.94,.3,1.79,.87,2.38,.68,.68,1.6,1,2.98,1s2.15-.33,2.96-1.14v1.01h2.19Zm-12.19,0v-15.58h-2.36v10.94l-7.21-10.94h-2.16v15.58h2.36v-10.96l7.21,10.96h2.16Zm-15.26,.55c-.53-.53-.9-.83-1.23-1.44-.22-.41-.33-1.01-.33-1.79v-10.2c0-.79,.11-1.38,.33-1.79,.33-.61,.7-.92,1.23-1.44l-1.51-1.51c-.7,.7-1.33,1.29-1.77,2.08-.46,.81-.5,1.66-.5,2.54v10.46c0,.88,.04,1.73,.5,2.54,.44,.79,1.07,1.38,1.77,2.08l1.51-1.51Zm-237.19-.55v-7.09c0-1.25-.26-2.3-1.12-3.13-.66-.64-1.6-1.01-2.74-1.01s-2.19,.41-2.96,1.25v-1.12h-2.19v11.09h2.23v-6.76c0-1.71,1.05-2.48,2.3-2.48s2.23,.74,2.23,2.47v6.76h2.23Zm-14.47-5.56c0,1.21-.09,2.36-.77,3.04-.42,.42-.99,.66-1.64,.66s-1.21-.24-1.62-.66c-.68-.68-.77-1.84-.77-3.04s.09-2.36,.77-3.04c.41-.42,.96-.64,1.62-.64s1.23,.22,1.64,.64c.68,.68,.77,1.84,.77,3.04m2.23,0c0-1.86-.26-3.26-1.31-4.36-.72-.74-1.82-1.31-3.33-1.31s-2.58,.57-3.3,1.31c-1.05,1.09-1.31,2.5-1.31,4.36s.26,3.29,1.31,4.38c.72,.74,1.79,1.31,3.3,1.31s2.61-.57,3.33-1.31c1.05-1.09,1.31-2.5,1.31-4.38m-10.68-5.54h-2.36l-2.6,7.81-2.63-7.81h-2.36l4.07,11.09h1.82l4.07-11.09Zm-15.87,.92c-.76-.76-1.58-1.05-2.65-1.05-1.25,0-2.39,.55-2.96,1.33v-1.2h-2.19v11.09h2.23v-6.74c0-1.53,1.01-2.5,2.21-2.5,.76,0,1.16,.24,1.66,.74l1.68-1.68Zm-13.18,3.72h-4.99c.02-.68,.07-1.01,.29-1.51,.35-.83,1.16-1.4,2.21-1.4s1.84,.57,2.19,1.4c.22,.5,.29,.83,.31,1.51m2.21,1.55v-.98c0-3.15-1.73-5.34-4.71-5.34s-4.7,2.08-4.7,5.67c0,4.23,2.21,5.69,4.99,5.69,1.95,0,3.02-.59,4.16-1.73l-1.42-1.34c-.79,.79-1.44,1.14-2.69,1.14-1.82,0-2.82-1.21-2.82-3.11h7.2Zm-11.84,4.9v-1.9h-.92c-.83,0-1.23-.48-1.23-1.29v-5.98h2.15v-1.71h-2.15v-3.39h-2.23v3.39h-1.27v1.71h1.27v6.09c0,1.59,.96,3.08,3.04,3.08h1.33Zm-10.53-4c0,.79-.15,1.32-.48,1.64-.59,.57-1.23,.64-2.08,.64-1.4,0-2.04-.57-2.04-1.58s.68-1.6,1.99-1.6h2.61v.9Zm2.23,4.01v-7.42c0-2.52-1.53-3.81-4.57-3.81-1.84,0-2.93,.37-3.98,1.6l1.47,1.38c.61-.79,1.21-1.07,2.43-1.07,1.73,0,2.43,.68,2.43,2.08v.79h-2.94c-2.54,0-3.83,1.33-3.83,3.2,0,.94,.3,1.79,.87,2.38,.68,.68,1.6,1,2.98,1s2.15-.33,2.96-1.14v1.01h2.19Zm-9.39-15.58h-2.5l-3.59,11.34-3.59-11.34h-2.45l5.12,15.58h1.84l5.17-15.58Zm-17.86-1.62h-2.15l-6.24,18.82h2.15l6.24-18.82Zm-14.12,7.02c-.76-.76-1.58-1.05-2.65-1.05-1.25,0-2.39,.55-2.96,1.33v-1.2h-2.19v11.09h2.23v-6.74c0-1.53,1.01-2.5,2.21-2.5,.76,0,1.16,.24,1.66,.74l1.68-1.68Zm-13.18,3.72h-4.99c.02-.68,.07-1.01,.29-1.51,.35-.83,1.16-1.4,2.21-1.4s1.84,.57,2.19,1.4c.22,.5,.29,.83,.31,1.51m2.21,1.55v-.98c0-3.15-1.73-5.34-4.71-5.34s-4.7,2.08-4.7,5.67c0,4.23,2.21,5.69,4.99,5.69,1.95,0,3.02-.59,4.16-1.73l-1.42-1.34c-.79,.79-1.44,1.14-2.69,1.14-1.82,0-2.82-1.21-2.82-3.11h7.2Zm-11.84,4.9v-1.9h-.92c-.83,0-1.23-.48-1.23-1.29v-5.98h2.15v-1.71h-2.15v-3.39h-2.23v3.39h-1.27v1.71h1.27v6.09c0,1.59,.96,3.08,3.04,3.08h1.33Zm-7.71,0v-1.9h-.92c-.83,0-1.23-.48-1.23-1.29v-5.98h2.15v-1.71h-2.15v-3.39h-2.23v3.39h-1.27v1.71h1.27v6.09c0,1.59,.96,3.08,3.04,3.08h1.33Zm-8.41,0v-11.09h-2.23v6.76c0,1.71-1.05,2.47-2.3,2.47s-2.23-.74-2.23-2.47v-6.76h-2.23v7.09c0,1.25,.26,2.3,1.12,3.13,.66,.63,1.6,1,2.74,1s2.19-.41,2.96-1.24v1.11h2.18Zm-12.89,0v-15.58h-2.36l-4.47,9.69-4.56-9.69h-2.36v15.58h2.36v-10.42l3.68,7.59h1.75l3.59-7.59v10.42h2.36Zm-24.87-6.45h-4.99c.02-.68,.07-1.01,.29-1.51,.35-.83,1.16-1.4,2.21-1.4s1.84,.57,2.19,1.4c.22,.5,.29,.83,.31,1.51m2.21,1.55v-.98c0-3.15-1.73-5.34-4.71-5.34s-4.7,2.08-4.7,5.67c0,4.23,2.21,5.69,4.99,5.69,1.95,0,3.02-.59,4.16-1.73l-1.42-1.34c-.79,.79-1.44,1.14-2.69,1.14-1.82,0-2.82-1.21-2.82-3.11h7.2Zm-12.54-10.74h-2.36v2.36h2.36v-2.36Zm-.06,4.55h-2.23v11.09h2.23v-11.09Zm-8.23,5.54c0,1.97-.28,3.7-2.3,3.7s-2.32-1.73-2.32-3.7,.31-3.68,2.32-3.68,2.3,1.71,2.3,3.68m2.23,5.56v-15.58h-2.23v5.6c-.81-.96-1.73-1.25-2.91-1.25-1.12,0-2.08,.37-2.69,.98-1.11,1.12-1.24,3-1.24,4.68s.13,3.59,1.24,4.71c.61,.61,1.6,.98,2.71,.98,1.21,0,2.1-.3,2.94-1.31v1.18h2.19Zm-17.69,0v-7.09c0-1.25-.26-2.3-1.12-3.13-.66-.64-1.6-1.01-2.74-1.01s-2.19,.41-2.96,1.25v-1.12h-2.19v11.09h2.23v-6.76c0-1.71,1.05-2.48,2.3-2.48s2.23,.74,2.23,2.47v6.76h2.23Zm-12.7-15.65h-2.36v2.36h2.36v-2.36Zm-.06,4.55h-2.23v11.09h2.23v-11.09Zm-7.7,5.54c0,1.97-.29,3.7-2.3,3.7s-2.32-1.73-2.32-3.7,.31-3.68,2.32-3.68,2.3,1.71,2.3,3.68m2.23,0c0-1.69-.13-3.57-1.25-4.68-.61-.61-1.58-.98-2.69-.98-1.18,0-2.1,.28-2.91,1.25v-5.6h-2.23v15.58h2.19v-1.18c.83,1.01,1.73,1.31,2.94,1.31,1.12,0,2.1-.37,2.71-.98,1.12-1.12,1.25-3.02,1.25-4.71m-18.21,5.56v-7.16c0-2.41-1.38-4.07-3.85-4.07-1.1,0-2.1,.41-2.87,1.25v-5.6h-2.23v15.58h2.23v-6.81c0-1.66,1.01-2.43,2.26-2.43s2.24,.74,2.24,2.43v6.81h2.23Zm-11.76-1.44l-1.53-1.47c-.7,.77-1.25,1.05-2.12,1.05s-1.58-.35-2.06-.99c-.48-.61-.66-1.42-.66-2.71s.18-2.08,.66-2.69c.48-.64,1.2-.99,2.06-.99s1.42,.29,2.12,1.05l1.53-1.49c-1.05-1.12-2.12-1.55-3.65-1.55-2.5,0-4.94,1.51-4.94,5.67s2.45,5.69,4.94,5.69c1.53,0,2.6-.46,3.65-1.57m-12.06-14.14h-2.36v15.58h2.36v-15.58Z"/><path class="h" d="M207.66,80.56v-1.9h-.92c-.83,0-1.23-.48-1.23-1.29v-5.98h2.15v-1.71h-2.15v-3.39h-2.23v3.39h-1.27v1.71h1.27v6.09c0,1.59,.96,3.08,3.04,3.08h1.33Zm-7.35-3.39c0-1.97-1.23-2.96-3.31-3.13l-1.75-.15c-1.18-.11-1.53-.61-1.53-1.27,0-.83,.68-1.42,2.01-1.42,1.05,0,2.04,.22,2.74,.81l1.4-1.42c-1.03-.9-2.45-1.25-4.12-1.25-2.32,0-4.18,1.22-4.18,3.39,0,1.95,1.21,2.89,3.28,3.06l1.77,.15c1.07,.09,1.49,.57,1.49,1.31,0,1.05-1.07,1.53-2.43,1.53-1.09,0-2.3-.24-3.2-1.16l-1.47,1.47c1.31,1.29,2.85,1.59,4.66,1.59,2.65,0,4.62-1.2,4.62-3.52m-11.91-12.26h-2.36v2.36h2.36v-2.36Zm-.06,4.55h-2.23v11.09h2.23v-11.09Zm-13.09,4.64h-4.99c.02-.68,.07-1.01,.29-1.51,.35-.83,1.16-1.4,2.21-1.4s1.84,.57,2.19,1.4c.22,.5,.29,.83,.31,1.51m2.21,1.55v-.98c0-3.15-1.73-5.34-4.71-5.34s-4.7,2.08-4.7,5.67c0,4.23,2.21,5.69,4.99,5.69,1.95,0,3.02-.59,4.16-1.73l-1.42-1.34c-.79,.79-1.44,1.14-2.69,1.14-1.82,0-2.82-1.21-2.82-3.11h7.2Zm-12.5,4.9v-7.09c0-1.25-.33-2.3-1.18-3.13-.66-.63-1.66-1-2.8-1-1.47,0-2.59,.53-3.48,1.62-.7-1.07-1.77-1.62-3.15-1.62-1.12,0-2.21,.44-2.96,1.25v-1.12h-2.19v11.09h2.23v-6.76c0-1.71,1.05-2.48,2.3-2.48s2.24,.74,2.24,2.47v6.76h2.23v-6.87c0-1.6,1.09-2.36,2.3-2.36s2.23,.74,2.23,2.47v6.76h2.23Zm-21.65-4c0,.79-.15,1.32-.48,1.64-.59,.57-1.23,.64-2.08,.64-1.4,0-2.04-.57-2.04-1.58s.68-1.6,1.99-1.6h2.61v.9Zm2.23,4v-7.42c0-2.52-1.53-3.81-4.57-3.81-1.84,0-2.93,.37-3.98,1.6l1.47,1.38c.61-.79,1.2-1.07,2.43-1.07,1.73,0,2.43,.68,2.43,2.08v.79h-2.94c-2.54,0-3.83,1.33-3.83,3.2,0,.94,.31,1.79,.88,2.38,.68,.68,1.6,1,2.98,1s2.15-.33,2.96-1.14v1h2.19Zm-12.19,0v-15.58h-2.36v10.94l-7.21-10.94h-2.16v15.58h2.36v-10.96l7.21,10.96h2.16Zm-21.12,0v-7.09c0-1.25-.26-2.3-1.12-3.13-.66-.63-1.6-1-2.74-1s-2.19,.41-2.96,1.25v-1.12h-2.19v11.09h2.23v-6.76c0-1.71,1.05-2.48,2.3-2.48s2.23,.74,2.23,2.47v6.76h2.23Zm-12.7-15.65h-2.36v2.36h2.36v-2.36Zm-.06,4.55h-2.23v11.09h2.23v-11.09Zm-7.62,4.64h-4.99c.02-.68,.06-1.01,.28-1.51,.35-.83,1.16-1.4,2.21-1.4s1.84,.57,2.19,1.4c.22,.5,.28,.83,.31,1.51m2.21,1.55v-.98c0-3.15-1.73-5.34-4.71-5.34s-4.71,2.08-4.71,5.67c0,4.23,2.21,5.69,4.99,5.69,1.95,0,3.02-.59,4.16-1.73l-1.42-1.34c-.79,.79-1.44,1.14-2.69,1.14-1.82,0-2.82-1.21-2.82-3.11h7.2Zm-12.85,4.9v-15.58h-2.36l-4.47,9.69-4.55-9.69h-2.36v15.58h2.36v-10.42l3.68,7.59h1.75l3.59-7.59v10.42h2.36Zm-22.33-5.95l-5.06-5.01v2.69l2.36,2.32-2.36,2.34v2.69l5.06-5.03Zm5.54,0l-5.06-5.01v2.69l2.34,2.32-2.34,2.34v2.69l5.06-5.03Z"/></g><rect class="g" x="214.43" y="55.67" width="272.14" height="24.88"/><rect class="g" x="346.28" y="131.71" width="218.48" height="24.88"/><rect class="g" x="313.28" y="207.75" width="222.07" height="24.88"/><rect class="g" x="325.23" y="283.79" width="243.84" height="24.88"/><rect class="g" x="275.7" y="511.9" width="163.29" height="24.88"/></svg>