<?xml version="1.0" encoding="UTF-8" standalone="no"?> <svg xmlns:dc="http://purl.org/dc/elements/1.1/" xmlns:cc="http://creativecommons.org/ns#" xmlns:rdf="http://www.w3.org/1999/02/22-rdf-syntax-ns#" xmlns:svg="http://www.w3.org/2000/svg" xmlns="http://www.w3.org/2000/svg" xmlns:sodipodi="http://sodipodi.sourceforge.net/DTD/sodipodi-0.dtd" xmlns:inkscape="http://www.inkscape.org/namespaces/inkscape" version="1.1" id="svg2" xml:space="preserve" width="616.73334" height="518.20001" viewBox="0 0 616.73334 518.20001" sodipodi:docname="Allgemeines 13.eps"><metadata id="metadata8"></metadata><defs id="defs6"></defs><g id="g10" inkscape:groupmode="layer" inkscape:label="ink_ext_XXXXXX" transform="matrix(1.3333333,0,0,-1.3333333,0,518.2)"><g id="g12" transform="scale(0.1)"><path d="M 4174.57,564.141 H 159.227 V 3690.78 H 4265.74 v -847.76" style="fill:#e2900d;fill-opacity:1;fill-rule:nonzero;stroke:none" id="path14"></path><path d="M 4174.57,564.141 H 159.227 V 3690.78 H 4265.74 v -847.76 z" style="fill:none;stroke:#e2900d;stroke-width:2.39;stroke-linecap:butt;stroke-linejoin:miter;stroke-miterlimit:10;stroke-dasharray:none;stroke-opacity:1" id="path16"></path><path d="m 147.906,563.719 h 4115.09 v 3127.11 H 147.906 Z" style="fill:none;stroke:#282d67;stroke-width:6;stroke-linecap:butt;stroke-linejoin:round;stroke-miterlimit:10;stroke-dasharray:none;stroke-opacity:1" id="path18"></path><path d="M 4299.03,783.52 V 3654.79 H 183.945 V 527.699 H 3829.24 l 652.67,-397.867" style="fill:#ffffff;fill-opacity:1;fill-rule:nonzero;stroke:none" id="path20"></path><path d="M 4299.03,783.52 V 3654.79 H 183.945 V 527.699 H 3829.24 l 652.67,-397.867 z" style="fill:none;stroke:#282d67;stroke-width:6;stroke-linecap:butt;stroke-linejoin:round;stroke-miterlimit:10;stroke-dasharray:none;stroke-opacity:1" id="path22"></path><g id="g24" transform="scale(10)"><text transform="matrix(1,0,0,-1,37.1676,340.582)" style="font-variant:normal;font-weight:500;font-size:9.5px;font-family:DINPro;-inkscape-font-specification:DINPro-Medium;writing-mode:lr-tb;fill:#282d67;fill-opacity:1;fill-rule:nonzero;stroke:none" id="text28"><tspan x="0 5.7189608 13.537489 18.75301 21.356077 26.847019 29.222067 36.176067 41.306053 49.732552 54.948074 57.323132 59.926189 64.666634" y="0" sodipodi:role="line" id="tspan26">»Mein Name ist</tspan></text></g><path d="m 1075.52,3405.82 h 1181.1 v 108 h -1181.1 z" style="fill:#d3ccde;fill-opacity:1;fill-rule:nonzero;stroke:none" id="path30"></path><g id="g32" transform="scale(10)"><text transform="matrix(1,0,0,-1,37.1676,307.582)" style="font-variant:normal;font-weight:500;font-size:9.5px;font-family:DINPro;-inkscape-font-specification:DINPro-Medium;writing-mode:lr-tb;fill:#282d67;fill-opacity:1;fill-rule:nonzero;stroke:none" id="text36"><tspan x="0 2.888057 7.5905571 13.081488 15.456545 20.804976 23.408043 28.898979 31.274027 36.622482 39.225548 44.441048 46.816105 54.634644 60.125584 63.46954 66.766953 71.982475 76.24791 78.622971 82.328026 84.703079 89.776031 94.906029 98.203445 103.41896 107.68442 110.05947 114.53484 119.73138 125.22231" y="0" sodipodi:role="line" id="tspan34">Ich bin die Mutter / Vater von </tspan></text></g><path d="m 1647.6,3075.82 h 948.188 v 108 H 1647.6 Z" style="fill:#d3ccde;fill-opacity:1;fill-rule:nonzero;stroke:none" id="path38"></path><g id="g40" transform="scale(10)"><text transform="matrix(1,0,0,-1,262.04905,307.582)" style="font-variant:normal;font-weight:500;font-size:9.5px;font-family:DINPro;-inkscape-font-specification:DINPro-Medium;writing-mode:lr-tb;fill:#282d67;fill-opacity:1;fill-rule:nonzero;stroke:none" id="text46"><tspan x="0 3.106519 10.060519 15.190499 23.616989 28.832489 31.207565 36.556004 41.77153 46.606956 48.982002 55.328049 57.931152 63.42207 68.770508 73.986061 78.821457" y="0" sodipodi:role="line" id="tspan42">(Name des Kindes)</tspan><tspan x="-224.88405 -219.18405 -216.58098 -211.36546 -208.99042 -205.28537 -202.91031 -197.69479 -193.42934 -191.05428 -185.74382 -180.52829 -175.03735 -171.69341 -169.31834 -166.71529 -161.22433 -158.84927 -153.50085 -150.89777 -145.68224 -143.30719 -136.96115 -133.91161 -128.78162 -123.99368 -119.15825 -113.94273" y="33.003101" sodipodi:role="line" id="tspan44">Sie / er geht in die Klasse </tspan></text></g><path d="m 1504.82,2745.82 h 963.781 v 108 H 1504.82 Z" style="fill:#d3ccde;fill-opacity:1;fill-rule:nonzero;stroke:none" id="path48"></path><g id="g50" transform="scale(10)"><text transform="matrix(1,0,0,-1,246.954,274.582)" style="font-variant:normal;font-weight:500;font-size:9.5px;font-family:DINPro;-inkscape-font-specification:DINPro-Medium;writing-mode:lr-tb;fill:#282d67;fill-opacity:1;fill-rule:nonzero;stroke:none" id="text58"><tspan x="0" y="0" id="tspan52">.</tspan><tspan x="-209.78799" y="11.0012" id="tspan54"> </tspan><tspan x="-209.78799 -201.96947 -196.75395 -194.15088 -188.65994 -183.44443 -181.06938 -176.4144 -171.21788 -166.51538 -161.02443 -157.72797 -152.51245 -148.24699 -145.87193 -142.16687 -139.79182 -131.36533 -126.1498 -123.54674 -118.05579 -115.68074 -109.98074 -104.78422 -99.293274 -93.80233" y="33.003201" sodipodi:role="line" id="tspan56">Meine Tochter / mein Sohn </tspan></text></g><path d="m 1555.26,2415.82 h 1058.27 v 108 H 1555.26 Z" style="fill:#d3ccde;fill-opacity:1;fill-rule:nonzero;stroke:none" id="path60"></path><g id="g62" transform="scale(10)"><text transform="matrix(1,0,0,-1,263.82305,241.582)" style="font-variant:normal;font-weight:500;font-size:9.5px;font-family:DINPro;-inkscape-font-specification:DINPro-Medium;writing-mode:lr-tb;fill:#282d67;fill-opacity:1;fill-rule:nonzero;stroke:none" id="text74"><tspan x="0 3.106519 10.060519 15.190499 23.616989 28.832489 31.207565 36.556004 41.77153 46.606956 48.982002 55.328049 57.931152 63.42207 68.770508 73.986061 78.821457 81.927979 84.303055 86.906128 91.646561 94.990509 99.740608 105.04166 109.21214 114.34212 119.83304 125.13412" y="0" sodipodi:role="line" id="tspan64">(Name des Kindes) ist krank.</tspan><tspan x="-226.65105" y="11.0012" id="tspan66"> </tspan><tspan x="-226.65105 -218.83252 -213.617 -211.01393 -205.52299 -203.14793 -196.8019 -194.19884 -188.70789 -183.35947 -178.60934 -173.68832 -168.49179 -160.06531 -151.63881 -148.29486 -145.91982 -137.49333 -132.2968 -128.31538 -123.00492 -117.78941 -112.29846 -109.92341 -102.76994 -100.16687 -94.951355 -89.602905 -84.387375 -80.121918 -77.746857 -75.143791 -69.652863 -67.277802 -61.929379 -59.326305 -54.110775 -51.735729 -46.035728 -41.33321 -35.842266 -30.351326 -27.396759 -22.181259" y="33.003201" sodipodi:role="line" id="tspan68">Mein Kind kommt morgen wieder in die Schule.</tspan><tspan x="-226.65105 -221.45451 -216.10608 -210.89055" y="66.005898" sodipodi:role="line" id="tspan70">oder</tspan><tspan x="-226.65105 -218.83252 -213.617 -211.01393 -205.52299 -203.14793 -196.8019 -194.19884 -188.70789 -183.35947 -178.60934 -173.68832 -168.49179 -160.06531 -151.63881 -148.29486 -145.91982 -140.78981 -132.36331" y="99.008598" sodipodi:role="line" id="tspan72">Mein Kind kommt am </tspan></text></g><path d="m 1338.29,1425.82 h 708.66 v 108 h -708.66 z" style="fill:#d3ccde;fill-opacity:1;fill-rule:nonzero;stroke:none" id="path76"></path><g id="g78" transform="scale(10)"><text transform="matrix(1,0,0,-1,207.16505,142.582)" style="font-variant:normal;font-weight:500;font-size:9.5px;font-family:DINPro;-inkscape-font-specification:DINPro-Medium;writing-mode:lr-tb;fill:#282d67;fill-opacity:1;fill-rule:nonzero;stroke:none" id="text86"><tspan x="0 3.106519 9.5285187 14.658519 18.002443 23.493385 31.919876 35.026424 37.401451 44.554924 47.158028 52.373528 57.721966 62.937466 67.20295 69.578018 72.181068 77.672035 80.047066 85.395523 87.998573 93.214104 95.589149 101.28915 105.99167 111.48261 116.97355 119.92809 125.14359" y="0" sodipodi:role="line" id="tspan80">(Datum) wieder in die Schule.</tspan><tspan x="-169.99304 -164.54008 -161.93703 -156.7215 -153.76695 -148.55144 -143.0605 -140.68546 -134.26344 -129.13347 -123.64254 -118.34148" y="33.003101" sodipodi:role="line" id="tspan82">Vielen Dank.</tspan><tspan x="-169.99304 -163.96054 -158.4696 -155.25858 -152.88353 -144.51401 -141.91093 -136.69542 -131.34698 -126.13145 -121.96101 -117.12556 -111.91004 -106.41911 -101.20358 -95.712646 -92.976646" y="66.005798" sodipodi:role="line" id="tspan84">Auf Wiedersehen.«</tspan></text></g><g id="g88" transform="scale(10)"><text transform="matrix(1,0,0,-1,37.1719,329.58)" style="font-variant:normal;font-weight:500;font-size:9.5px;font-family:DINPro;-inkscape-font-specification:DINPro-Medium;writing-mode:lr-tb;fill:#e2900d;fill-opacity:1;fill-rule:nonzero;stroke:none" id="text108"><tspan x="0 5.7189608 13.537489 18.078508 20.453566 25.944508 31.074476 39.500977 44.716492 47.091549 49.694633" y="0" sodipodi:role="line" id="tspan90">»My name is</tspan><tspan x="-0.0042968802 2.8837602 5.2588077 10.388787 18.815289 21.190334 24.534298 30.025221 35.240738 37.615795 46.042274 51.238796 54.582756 60.0737 65.289215 69.55468 71.929726 75.634781 78.009827 81.077415 86.207397 89.551369 95.042297 100.25783 104.52328 106.89832 112.09486 115.30428 224.92694 228.03346 233.5244 238.7209 247.14738 252.36292 254.73796 260.08643 265.30191 268.35147 270.7265 276.07495 281.20493 289.63141 294.97986 297.58292 303.07388 308.27042" y="32.998001" sodipodi:role="line" id="tspan92">I am the mother / father of (nome del bambino)</tspan><tspan x="-0.0042968802 6.6551557 11.870674 14.245721 17.950779 20.325825 25.161257 30.652193 35.867714 38.24276 40.845856 45.681274 48.056332 50.659397 56.150333 58.525391 63.22789 66.277451 71.407417 76.195343" y="65.998001" sodipodi:role="line" id="tspan94">He / she is in class</tspan><tspan x="-0.0042968802 7.8142314 12.35525 14.730308 19.565739 24.762266 30.253208 32.628254 36.333302 38.708359 44.056808 49.186798 54.677738 59.988205 65.479134 68.775597 73.991112 78.256256 226.63754 229.74406 234.44655 239.9375 242.54057 245.4951 250.84357 252.91461 257.75003 260.12509 265.61603 270.746 279.17252 284.38803 287.49454 289.8696 292.47266 297.30814 299.68317 302.28622 305.33575 308.38531" y="98.998001" sodipodi:role="line" id="tspan96">My son / daughter (child’s name) is ill.</tspan><tspan x="-0.0042968802 7.8142314 12.35525 14.730308 19.432808 24.92375 27.526815 30.481344 35.829796 38.204842 45.358315 47.96138 51.010929 54.060474 56.435532 60.994583 66.191116 74.617599 79.833115 82.208168 85.504623 90.701157 93.076202 97.911636 102.61414 108.10508 113.30161 118.49814 121.54768 123.92274 129.05273 134.36319 139.49319 142.09627 147.58719 149.96223 153.25873 158.45522 166.88171 172.07826 176.3437 180.32417 185.47316 192.24664" y="131.998" sodipodi:role="line" id="tspan98">My child will come to school again tomorrow.</tspan><tspan x="-0.0042968802 5.1922336" y="165.0011" sodipodi:role="line" id="tspan100">or</tspan><tspan x="-0.0042968802 7.8142314 12.35525 14.730308 19.432808 24.92375 27.526815 30.481344 35.829796 38.204842 45.358315 47.96138 51.010929 54.060474 56.435532 60.994583 66.191116 74.617599 79.833115 82.208168 85.504623 90.701157 93.076202 97.911636 102.61414 108.10508 113.30161 118.49814 121.54768 123.92274 129.05273 134.36319 139.49319 142.09627 147.58719 149.96223 155.15877 160.64725 269.85315 272.95966 278.30811 283.43808 286.73456 291.94971 295.05621" y="197.998" sodipodi:role="line" id="tspan102">My child will come to school again on (date).</tspan><tspan x="-0.0042968802 5.4106841 10.901624 16.031624 21.52256 26.823603 29.19865 33.64468 38.841202 44.332142" y="230.998" sodipodi:role="line" id="tspan104">Thank you.</tspan><tspan x="-0.0042968802 6.2562222 11.452752 16.649273 21.997723 27.346155 31.792183 37.007706 39.743706" y="264.0011" sodipodi:role="line" id="tspan106">Goodbye.«</tspan></text></g></g></g></svg> 