<?xml version="1.0" encoding="UTF-8" standalone="no"?> <svg xmlns="http://www.w3.org/2000/svg" xmlns:xlink="http://www.w3.org/1999/xlink" xmlns:serif="http://www.serif.com/" width="100%" height="100%" viewBox="0 0 279 276" version="1.1" xml:space="preserve" style="fill-rule:evenodd;clip-rule:evenodd;"> <g transform="matrix(4.16667,0,0,4.16667,173.76,98.6879)"> <path d="M0,-0.001C0,-11.24 -8.96,-20.351 -20.013,-20.351C-31.066,-20.351 -40.027,-11.24 -40.027,-0.001C-40.027,11.238 -31.066,20.35 -20.013,20.35C-8.96,20.35 0,11.238 0,-0.001M-1.53,-0.001C-1.53,10.38 -9.805,18.794 -20.013,18.794C-30.222,18.794 -38.497,10.38 -38.497,-0.001C-38.497,-10.381 -30.222,-18.795 -20.013,-18.795C-9.805,-18.795 -1.53,-10.381 -1.53,-0.001" style="fill:rgb(223,128,27);fill-rule:nonzero;"></path> </g> <g transform="matrix(4.16667,0,0,4.16667,88.1539,20.7467)"> <path d="M0,37.411C10.157,37.411 18.391,29.036 18.391,18.705C18.391,8.375 10.157,0 0,0C-10.157,0 -18.391,8.375 -18.391,18.705C-18.391,29.036 -10.157,37.411 0,37.411Z" style="fill:none;fill-rule:nonzero;stroke:rgb(42,44,104);stroke-width:0.6px;"></path> </g> <g transform="matrix(0,4.16667,4.16667,0,95.5205,28.3821)"> <path d="M-1.839,-1.839L1.839,-1.839" style="fill:none;fill-rule:nonzero;stroke:rgb(42,44,104);stroke-width:0.6px;stroke-linecap:round;"></path> </g> <g transform="matrix(0,4.16667,4.16667,0,93.2464,171.333)"> <path d="M-1.279,-1.279L1.279,-1.279" style="fill:none;fill-rule:nonzero;stroke:rgb(42,44,104);stroke-width:0.6px;stroke-linecap:round;"></path> </g> <g transform="matrix(-4.16667,0,0,4.16667,154.374,98.5062)"> <path d="M-2.505,0L0,0" style="fill:none;fill-rule:nonzero;stroke:rgb(42,44,104);stroke-width:0.6px;stroke-linecap:round;"></path> </g> <g transform="matrix(-4.16667,0,0,4.16667,11.491,98.685)"> <path d="M-2.505,0L0,0" style="fill:none;fill-rule:nonzero;stroke:rgb(42,44,104);stroke-width:0.6px;stroke-linecap:round;"></path> </g> <g transform="matrix(3.62446,2.05533,2.05533,-3.62446,23.9768,57.4326)"> <path d="M-0.159,-0.604L2.291,-0.604" style="fill:none;fill-rule:nonzero;stroke:rgb(42,44,104);stroke-width:0.6px;stroke-linecap:round;"></path> </g> <g transform="matrix(3.62487,2.0546,2.0546,-3.62487,147.086,131.171)"> <path d="M-0.159,-0.605L2.292,-0.604" style="fill:none;fill-rule:nonzero;stroke:rgb(42,44,104);stroke-width:0.6px;stroke-linecap:round;"></path> </g> <g transform="matrix(-1.98484,3.66354,3.66354,1.98484,127.23,40.4159)"> <path d="M-1.829,-1.089L0.649,-1.089" style="fill:none;fill-rule:nonzero;stroke:rgb(42,44,104);stroke-width:0.6px;stroke-linecap:round;"></path> </g> <g transform="matrix(-1.98484,3.66354,3.66354,1.98484,54.7145,165.599)"> <path d="M-1.829,-1.089L0.649,-1.089" style="fill:none;fill-rule:nonzero;stroke:rgb(42,44,104);stroke-width:0.6px;stroke-linecap:round;"></path> </g> <g transform="matrix(3.67331,-1.96669,-1.96669,-3.67331,22.9909,138.433)"> <path d="M-0.145,0.579L2.306,0.579" style="fill:none;fill-rule:nonzero;stroke:rgb(42,44,104);stroke-width:0.6px;stroke-linecap:round;"></path> </g> <g transform="matrix(3.67298,-1.96731,-1.96731,-3.67298,147.651,67.4458)"> <path d="M-0.145,0.579L2.307,0.579" style="fill:none;fill-rule:nonzero;stroke:rgb(42,44,104);stroke-width:0.6px;stroke-linecap:round;"></path> </g> <g transform="matrix(1.89559,3.71051,3.71051,-1.89559,56.2733,31.1195)"> <path d="M-0.676,-1.104L1.804,-1.104" style="fill:none;fill-rule:nonzero;stroke:rgb(42,44,104);stroke-width:0.6px;stroke-linecap:round;"></path> </g> <g transform="matrix(1.89692,3.70983,3.70983,-1.89692,126.087,157.877)"> <path d="M-0.675,-1.104L1.804,-1.104" style="fill:none;fill-rule:nonzero;stroke:rgb(42,44,104);stroke-width:0.6px;stroke-linecap:round;"></path> </g> <g transform="matrix(4.16667,0,0,4.16667,100.078,106.615)"> <path d="M0,3.582L0.406,4.217C0.407,4.22 0.6,4.559 0.601,4.561C0.739,4.804 0.647,5.103 0.886,4.963C1.125,4.824 1.207,4.513 1.069,4.27C1.067,4.267 1.064,4.266 1.062,4.263L1.064,4.262L-2.292,-1.521L-2.864,-1.19L0,3.582Z" style="fill:rgb(223,128,27);fill-rule:nonzero;"></path> </g> <g transform="matrix(4.16667,0,0,4.16667,104.171,101.474)"> <path d="M0,6.469L0.069,6.6C0.075,6.602 0.119,6.636 0.17,6.649C0.416,6.572 0.449,6.444 0.392,6.344C-0.855,4.168 -2.101,1.994 -3.348,-0.18L-3.695,0.023C-2.463,2.172 -1.231,4.321 0,6.469Z" style="fill:none;fill-rule:nonzero;stroke:rgb(42,44,104);stroke-width:0.6px;"></path> </g> <g transform="matrix(4.16667,0,0,4.16667,88.1539,94.9654)"> <path d="M0,1.785C0.485,1.785 0.878,1.386 0.878,0.892C0.878,0.399 0.485,0 0,0C-0.485,0 -0.878,0.399 -0.878,0.892C-0.878,1.386 -0.485,1.785 0,1.785" style="fill:rgb(42,44,104);fill-rule:nonzero;"></path> </g> <g transform="matrix(4.16667,0,0,4.16667,88.1539,13.9283)"> <path d="M0,40.521C11.002,40.521 19.92,31.45 19.92,20.26C19.92,9.07 11.002,0 0,0C-11.002,0 -19.92,9.07 -19.92,20.26C-19.92,31.45 -11.002,40.521 0,40.521Z" style="fill:none;fill-rule:nonzero;stroke:rgb(42,44,104);stroke-width:0.6px;"></path> </g> <g transform="matrix(4.16667,0,0,4.16667,-468.538,-2979.88)"> <rect x="130.986" y="717.609" width="4.641" height="1.017" style="fill:rgb(42,44,104);"></rect> </g> <g transform="matrix(4.16667,0,0,4.16667,-468.538,-2993.44)"> <rect x="130.102" y="718.551" width="6.317" height="2.389" style="fill:rgb(42,44,104);stroke:rgb(42,44,104);stroke-width:0.25px;stroke-linejoin:round;"></rect> </g> <g transform="matrix(-4.16667,0,0,4.16667,952.354,-2559.23)"> <rect x="162.108" y="662.942" width="16.798" height="9.397" style="fill:rgb(223,128,27);stroke:rgb(223,128,27);stroke-width:0.25px;stroke-linejoin:round;stroke-miterlimit:10;"></rect> </g> <g transform="matrix(4.16667,0,0,4.16667,257.278,58.4475)"> <path d="M0,2.922C-0.478,1.231 -1.94,0 -3.669,0C-5.398,0 -6.859,1.231 -7.338,2.922L0,2.922Z" style="fill:rgb(223,128,27);fill-rule:nonzero;stroke:rgb(223,128,27);stroke-width:0.25px;stroke-linejoin:round;stroke-miterlimit:10;"></path> </g> <g transform="matrix(4.16667,0,0,4.16667,201.978,202.726)"> <path d="M0,0L18.201,0" style="fill:none;fill-rule:nonzero;stroke:rgb(42,44,104);stroke-width:0.4px;stroke-linejoin:round;stroke-miterlimit:10;"></path> </g> <g transform="matrix(0,-4.16667,-4.16667,0,239.839,57.2662)"> <ellipse cx="-4.531" cy="0" rx="4.581" ry="4.531" style="fill:none;stroke:rgb(42,44,104);stroke-width:0.6px;stroke-linejoin:round;stroke-miterlimit:10;"></ellipse> </g> <g transform="matrix(4.16667,0,0,4.16667,221.279,69.9404)"> <path d="M0,0L8.909,0" style="fill:none;fill-rule:nonzero;stroke:rgb(42,44,104);stroke-width:0.4px;stroke-linejoin:round;stroke-miterlimit:10;"></path> </g> <g transform="matrix(0,-4.16667,-4.16667,0,233.271,77.0717)"> <path d="M-0.233,-0.233C-0.363,-0.233 -0.468,-0.129 -0.468,-0.001C-0.468,0.128 -0.363,0.233 -0.233,0.233C-0.103,0.233 0.003,0.128 0.003,-0.001C0.003,-0.129 -0.103,-0.233 -0.233,-0.233" style="fill:rgb(42,44,104);fill-rule:nonzero;"></path> </g> <g transform="matrix(0,-4.16667,-4.16667,0,246.406,77.0717)"> <path d="M-0.233,-0.233C-0.363,-0.233 -0.468,-0.129 -0.468,-0.001C-0.468,0.128 -0.363,0.233 -0.233,0.233C-0.103,0.233 0.003,0.128 0.003,-0.001C0.003,-0.129 -0.103,-0.233 -0.233,-0.233" style="fill:rgb(42,44,104);fill-rule:nonzero;"></path> </g> <g transform="matrix(0,4.16667,4.16667,0,235.324,258.867)"> <path d="M-3.736,-3.736L3.736,-3.736" style="fill:none;fill-rule:nonzero;stroke:rgb(42,44,104);stroke-width:0.6px;stroke-linecap:round;stroke-linejoin:round;stroke-miterlimit:10;"></path> </g> <g transform="matrix(0,4.16667,4.16667,0,275.143,258.867)"> <path d="M-3.736,-3.736L3.736,-3.736" style="fill:none;fill-rule:nonzero;stroke:rgb(42,44,104);stroke-width:0.6px;stroke-linecap:round;stroke-linejoin:round;stroke-miterlimit:10;"></path> </g> <g transform="matrix(0,4.16667,4.16667,0,239.598,157.666)"> <path d="M-4.468,-4.468L4.468,-4.468" style="fill:none;fill-rule:nonzero;stroke:rgb(42,44,104);stroke-width:0.6px;stroke-linecap:round;stroke-linejoin:round;stroke-miterlimit:10;"></path> </g> <g transform="matrix(4.16667,0,0,4.16667,277.259,201.15)"> <path d="M0,-12.757C0,-18.019 -4.073,-22.698 -9.022,-22.698C-13.972,-22.698 -17.984,-18.019 -17.984,-12.757L-17.984,9.941L-0.061,9.941L0,-12.757Z" style="fill:none;fill-rule:nonzero;stroke:rgb(42,44,104);stroke-width:0.6px;stroke-linejoin:round;stroke-miterlimit:10;"></path> </g> <g transform="matrix(0,4.16667,4.16667,0,254.524,226.115)"> <path d="M-3.907,-3.907L3.907,-3.907" style="fill:none;fill-rule:nonzero;stroke:rgb(42,44,104);stroke-width:0.4px;stroke-linecap:round;stroke-linejoin:round;stroke-miterlimit:10;"></path> </g> <g transform="matrix(0.00856945,4.16666,4.16666,-0.00856945,278.109,157.208)"> <path d="M-4.367,-4.376L4.385,-4.376" style="fill:none;fill-rule:nonzero;stroke:rgb(42,44,104);stroke-width:0.6px;stroke-linecap:round;stroke-linejoin:round;stroke-miterlimit:10;"></path> </g> </svg> 