<?xml version="1.0" encoding="UTF-8" standalone="no"?> <svg xmlns="http://www.w3.org/2000/svg" xmlns:xlink="http://www.w3.org/1999/xlink" xmlns:serif="http://www.serif.com/" width="100%" height="100%" viewBox="0 0 101 197" version="1.1" xml:space="preserve" style="fill-rule:evenodd;clip-rule:evenodd;stroke-linejoin:round;stroke-miterlimit:10;"> <g transform="matrix(-4.16667,0,0,4.16667,534.938,-1968.39)"> <rect x="114.506" y="505.187" width="12.759" height="6.929" style="fill:rgb(223,128,27);stroke:rgb(223,128,27);stroke-width:0.25px;"></rect> </g> <g transform="matrix(4.16667,0,0,4.16667,43.7375,26.8571)"> <path d="M0,2.225C-0.37,0.937 -1.499,0 -2.835,0C-4.171,0 -5.3,0.937 -5.67,2.225L0,2.225Z" style="fill:rgb(223,128,27);fill-rule:nonzero;stroke:rgb(223,128,27);stroke-width:0.25px;"></path> </g> <g transform="matrix(4.16667,0,0,4.16667,2.19208,134.728)"> <path d="M0,0L13.844,0" style="fill:none;fill-rule:nonzero;stroke:rgb(42,44,104);stroke-width:0.4px;"></path> </g> <g transform="matrix(0,-4.16667,-4.16667,0,30.2429,26.0975)"> <ellipse cx="-3.469" cy="-0.001" rx="3.508" ry="3.469" style="fill:none;stroke:rgb(42,44,104);stroke-width:0.6px;"></ellipse> </g> <g transform="matrix(4.16667,0,0,4.16667,15.7646,35.6413)"> <path d="M0,0L6.951,0" style="fill:none;fill-rule:nonzero;stroke:rgb(42,44,104);stroke-width:0.4px;"></path> </g> <g transform="matrix(0,-4.16667,-4.16667,0,25.1208,41.2738)"> <path d="M-0.182,-0.182C-0.282,-0.182 -0.365,-0.1 -0.365,-0.001C-0.365,0.1 -0.282,0.182 -0.182,0.182C-0.08,0.182 0.002,0.1 0.002,-0.001C0.002,-0.1 -0.08,-0.182 -0.182,-0.182" style="fill:rgb(42,44,104);fill-rule:nonzero;"></path> </g> <g transform="matrix(0,-4.16667,-4.16667,0,35.3688,41.2738)"> <path d="M-0.182,-0.182C-0.282,-0.182 -0.365,-0.1 -0.365,-0.001C-0.365,0.1 -0.282,0.182 -0.182,0.182C-0.08,0.182 0.002,0.1 0.002,-0.001C0.002,-0.1 -0.08,-0.182 -0.182,-0.182" style="fill:rgb(42,44,104);fill-rule:nonzero;"></path> </g> <g transform="matrix(4.16667,0,0,4.16667,14.8517,118.807)"> <path d="M0,11.347L0,18.283M7.324,11.347L7.324,18.283M0.225,-6.936L0.225,-0.001M7.146,-6.936L7.146,-0.001" style="fill:none;fill-rule:nonzero;stroke:rgb(42,44,104);stroke-width:0.6px;stroke-linecap:round;"></path> </g> <g transform="matrix(4.16667,0,0,4.16667,59.1667,134.502)"> <path d="M0,-9.433C0,-13.324 -3.148,-16.785 -6.973,-16.785C-10.799,-16.785 -13.9,-13.324 -13.9,-9.433L-13.9,7.352L-0.047,7.352L0,-9.433Z" style="fill:none;fill-rule:nonzero;stroke:rgb(42,44,104);stroke-width:0.6px;"></path> </g> <g transform="matrix(0,4.16667,4.16667,0,40.6792,153.942)"> <path d="M-2.689,-2.689L2.689,-2.689" style="fill:none;fill-rule:nonzero;stroke:rgb(42,44,104);stroke-width:0.4px;stroke-linecap:round;"></path> </g> <g transform="matrix(4.16667,0,0,4.16667,68.0725,41.6625)"> <path d="M0,-9.873L0,-3.756L-1.091,0L2.739,-1.786L7.65,-1.786L7.65,-9.873L0,-9.873Z" style="fill:rgb(223,128,27);fill-rule:nonzero;stroke:rgb(223,128,27);stroke-width:0.25px;"></path> </g> <g transform="matrix(4.16667,0,0,4.16667,65.8671,42.6433)"> <path d="M0,-9.792L0,-3.725L-1.082,0L2.716,-1.772L8.009,-1.772L8.009,-9.792L0,-9.792Z" style="fill:none;fill-rule:nonzero;stroke:rgb(42,44,104);stroke-width:0.45px;"></path> </g> <g transform="matrix(4.16667,0,0,4.16667,73.6021,26.1367)"> <path d="M0,-4.522L4.636,-4.522M0,-3.391L4.636,-3.391M0,-2.261L4.636,-2.261M0,-1.13L4.636,-1.13M0,0L4.636,0" style="fill:none;fill-rule:nonzero;stroke:rgb(42,44,104);stroke-width:0.3px;stroke-linecap:round;"></path> </g> </svg> 