<?xml version="1.0" encoding="UTF-8" standalone="no"?> <svg xmlns:dc="http://purl.org/dc/elements/1.1/" xmlns:cc="http://creativecommons.org/ns#" xmlns:rdf="http://www.w3.org/1999/02/22-rdf-syntax-ns#" xmlns:svg="http://www.w3.org/2000/svg" xmlns="http://www.w3.org/2000/svg" xmlns:sodipodi="http://sodipodi.sourceforge.net/DTD/sodipodi-0.dtd" xmlns:inkscape="http://www.inkscape.org/namespaces/inkscape" version="1.1" id="svg2" xml:space="preserve" width="564.09332" height="206.08" viewBox="0 0 564.09332 206.08" sodipodi:docname="Krankschreiben.eps"><metadata id="metadata8"></metadata><defs id="defs6"></defs><g id="g10" inkscape:groupmode="layer" inkscape:label="ink_ext_XXXXXX" transform="matrix(1.3333333,0,0,-1.3333333,0,206.08)"><g id="g12" transform="scale(0.1)"><path d="M 4061.86,85.0703 H 46.5195 V 1496.75 H 4153.03 V 648.988" style="fill:#e2900d;fill-opacity:1;fill-rule:nonzero;stroke:none" id="path14"></path><path d="M 4061.86,85.0703 H 46.5195 V 1496.75 H 4153.03 V 648.988 Z" style="fill:none;stroke:#e2900d;stroke-width:2.39;stroke-linecap:butt;stroke-linejoin:miter;stroke-miterlimit:10;stroke-dasharray:none;stroke-opacity:1" id="path16"></path><path d="m 35.2031,84.6484 h 4115.09 v 1412.14 H 35.2031 Z" style="fill:none;stroke:#282d67;stroke-width:6;stroke-linecap:butt;stroke-linejoin:round;stroke-miterlimit:10;stroke-dasharray:none;stroke-opacity:1" id="path18"></path><path d="M 4114.08,48.6211 H 71.2422 V 1460.75 H 4186.33 V 120.82" style="fill:#ffffff;fill-opacity:1;fill-rule:nonzero;stroke:none" id="path20"></path><path d="M 4114.08,48.6211 H 71.2422 V 1460.75 H 4186.33 V 120.82 Z" style="fill:none;stroke:#282d67;stroke-width:6;stroke-linecap:butt;stroke-linejoin:round;stroke-miterlimit:10;stroke-dasharray:none;stroke-opacity:1" id="path22"></path><path d="m 4113.37,121.57 h 72.98 l -72.98,-72.9802" style="fill:#ffffff;fill-opacity:1;fill-rule:nonzero;stroke:none" id="path24"></path><path d="m 4113.37,121.57 h 72.98 l -72.98,-72.9802 z" style="fill:none;stroke:#282d67;stroke-width:5.53;stroke-linecap:butt;stroke-linejoin:round;stroke-miterlimit:10;stroke-dasharray:none;stroke-opacity:1" id="path26"></path><path d="m 4120.75,120.129 h 60.47 l -60.47,-65.6681" style="fill:#e2900d;fill-opacity:1;fill-rule:nonzero;stroke:none" id="path28"></path><path d="m 4120.75,120.129 h 60.47 l -60.47,-65.6681 z" style="fill:none;stroke:#e2900d;stroke-width:2.39;stroke-linecap:butt;stroke-linejoin:miter;stroke-miterlimit:10;stroke-dasharray:none;stroke-opacity:1" id="path30"></path><path d="m 4113.37,121.57 h 72.98 l -72.98,-72.9802 z" style="fill:none;stroke:#282d67;stroke-width:5.53;stroke-linecap:butt;stroke-linejoin:round;stroke-miterlimit:10;stroke-dasharray:none;stroke-opacity:1" id="path32"></path><g id="g34" transform="scale(10)"><text transform="matrix(1,0,0,-1,22.2184,123.779)" style="font-variant:normal;font-weight:500;font-size:9.5px;font-family:DINPro;-inkscape-font-specification:DINPro-Medium;writing-mode:lr-tb;fill:#282d67;fill-opacity:1;fill-rule:nonzero;stroke:none" id="text38"><tspan x="0 5.7189608 13.537489 18.753008 21.356073 26.847013 32.062534 34.43758 39.092564 44.289078 48.991577 54.482525 57.77898 62.994495 67.259956 69.63501 73.340073 75.715126 83.533653 88.749184 91.352249 96.843193 99.218246 104.91825 110.11477 115.60571 121.09666" y="0" sodipodi:role="line" id="tspan36">»Meine Tochter / Mein Sohn </tspan></text></g><path d="m 1456.87,1237.79 h 1181.1 v 108 h -1181.1 z" style="fill:#d3ccde;fill-opacity:1;fill-rule:nonzero;stroke:none" id="path40"></path><g id="g42" transform="scale(10)"><text transform="matrix(1,0,0,-1,266.26805,123.779)" style="font-variant:normal;font-weight:500;font-size:9.5px;font-family:DINPro;-inkscape-font-specification:DINPro-Medium;writing-mode:lr-tb;fill:#282d67;fill-opacity:1;fill-rule:nonzero;stroke:none" id="text48"><tspan x="0 3.106519 10.060576 15.190508 23.617018 28.832518 31.207594 36.55603 41.771557 46.606956 48.982006 55.328075 57.931179 63.422073 68.770538 73.986061 78.82151 81.928009 84.303085 86.906166 91.646599 94.990524 97.365601 102.85657 108.0531 112.75562 118.24651 120.62159 125.92262 130.09308 135.22307 140.71399 146.01506" y="0" sodipodi:role="line" id="tspan44">(Name des Kindes) ist noch krank.</tspan><tspan x="-244.05005 -236.23152 -231.01599 -228.41293 -222.922 -220.54694 -214.2009 -211.59782 -206.10689 -200.75845 -198.38339 -193.46236 -188.26584 -179.83934 -171.41284 -168.06888 -165.69385 -161.21941 -156.02289 -151.85242 -146.72244 -141.23151 -136.44356 -131.60814 -129.00507 -124.30257 -118.81163 -115.46767 -112.41812 -109.81504 -105.11253 -99.62159 -97.246536 -92.11657 -83.690079" y="33" sodipodi:role="line" id="tspan46">Mein Kind kommt voraussichtlich am </tspan></text></g><path d="m 1849.5,907.793 h 689.762 v 108 H 1849.5 Z" style="fill:#d3ccde;fill-opacity:1;fill-rule:nonzero;stroke:none" id="path50"></path><g id="g52" transform="scale(10)"><text transform="matrix(1,0,0,-1,256.39705,90.7789)" style="font-variant:normal;font-weight:500;font-size:9.5px;font-family:DINPro;-inkscape-font-specification:DINPro-Medium;writing-mode:lr-tb;fill:#282d67;fill-opacity:1;fill-rule:nonzero;stroke:none" id="text60"><tspan x="0 3.106519 9.5285187 14.658519 18.002443 23.49341 31.91992 35.02644 37.401485 44.554928 47.158031 52.373535 57.721996 62.937496 67.20295 69.577995 72.181099 77.67202 80.047066 85.395531 87.998604 93.214134 95.58918 101.28918 105.9917 111.48261 116.97358 119.9281 125.14363" y="0" sodipodi:role="line" id="tspan54">(Datum) wieder in die Schule.</tspan><tspan x="-234.17905 -228.72609 -226.12302 -220.9075 -217.95297 -212.73744 -207.24651 -204.87146 -198.44946 -193.31947 -187.82852 -182.5275" y="44" sodipodi:role="line" id="tspan56">Vielen Dank.</tspan><tspan x="-234.17905 -228.14655 -222.65561 -219.44458 -217.06953 -208.70001 -206.09695 -200.88142 -195.53299 -190.31747 -186.147 -181.31158 -176.09607 -170.60513 -165.3896 -159.89867 -157.16266 -154.7876" y="55" sodipodi:role="line" id="tspan58">Auf Wiedersehen. «</tspan></text></g><g id="g62" transform="scale(10)"><text transform="matrix(1,0,0,-1,22.2184,112.779)" style="font-variant:normal;font-weight:500;font-size:9.5px;font-family:DINPro;-inkscape-font-specification:DINPro-Medium;writing-mode:lr-tb;fill:#e2900d;fill-opacity:1;fill-rule:nonzero;stroke:none" id="text72"><tspan x="0 5.7189608 13.537489 18.078508 20.453566 25.288996 30.485518 35.976452 38.351501 42.056557 44.431614 49.780064 54.910034 60.400974 65.711441 71.202385 74.498848 79.714363 83.97982 244.50175 247.10478 251.94023 254.31528 259.05667 262.4006 265.00372 268.05325 271.10275 273.47784 278.31329 280.91635 285.61887 290.91989" y="0" sodipodi:role="line" id="tspan64">»My son / daughter is still sick.</tspan><tspan x="0 7.8185287 12.359548 14.734595 19.437096 24.928034 27.531101 30.48564 35.834087 38.209137 45.362606 47.965675 51.015221 54.06477 56.439827 61.788258 65.768707 70.96524 76.313667 81.443649 86.792099 89.556633 94.097664 96.472725 101.03273 106.22926 114.65575 119.87127 122.24632 125.54278 130.7393 133.11435 137.94978 142.6523 148.1432 153.33974 158.53627 161.58583 163.96089 169.09085 174.40132 179.53131 182.1344 187.62532 190.0004 195.19693 200.68748 333.49814 336.60464 341.95309 347.0831 350.37955 355.59506 358.70157" y="33" sodipodi:role="line" id="tspan66">My child will probably come to school again on (date).</tspan><tspan x="0 62.120888 67.535866 73.02681 78.156799 83.647736 88.948776 91.32383 95.769836 100.96637 106.45731" y="66" sodipodi:role="line" id="tspan68"> Thank you.</tspan><tspan x="0 95.750824 102.01133 107.20787 112.4044 117.75282 123.10127 127.54727 132.7628 135.49881 137.87387" y="77" sodipodi:role="line" id="tspan70"> Goodbye. «</tspan></text></g></g></g></svg> 