<?xml version="1.0" encoding="utf-8"?>
<!-- Generator: Adobe Illustrator 26.0.2, SVG Export Plug-In . SVG Version: 6.00 Build 0)  -->
<svg version="1.1" id="Ebene_1" xmlns="http://www.w3.org/2000/svg" xmlns:xlink="http://www.w3.org/1999/xlink" x="0px" y="0px"
	 viewBox="0 0 159.18 77" style="enable-background:new 0 0 159.18 77;" xml:space="preserve">
<style type="text/css">
	.st0{fill:#6EC3BF;}
	.st1{clip-path:url(#SVGID_00000133524144734577766440000012466674026859978426_);}
	.st2{clip-path:url(#SVGID_00000003785120719333011380000015227908862001224890_);}
	.st3{clip-path:url(#SVGID_00000176013563376371722610000012849360995297297555_);}
	.st4{fill:#2B2961;}
	.st5{clip-path:url(#SVGID_00000086649785076462038170000006158197948412778884_);}
	.st6{clip-path:url(#SVGID_00000108278633936536249080000015641692987224588215_);}
	.st7{clip-path:url(#SVGID_00000139996764064153493600000009976560391210648200_);}
	.st8{clip-path:url(#SVGID_00000027605418273610401930000016141892877311832480_);}
	.st9{clip-path:url(#SVGID_00000111892855829480834710000010397787016252436915_);}
	.st10{clip-path:url(#SVGID_00000072996011758093670830000014608457843756056477_);}
	.st11{clip-path:url(#SVGID_00000067206681115586751680000006320751616299339174_);}
	.st12{fill:#FFFFFF;}
	.st13{clip-path:url(#SVGID_00000011751362561326913690000011343211761003007622_);}
</style>
<g>
	<g>
		<polygon class="st0" points="96.11,54.26 101.08,59.4 101.26,49.29 		"/>
	</g>
	<g>
		<polygon class="st0" points="116.18,54.61 121.14,59.75 121.32,49.64 		"/>
	</g>
	<g>
		<polygon class="st0" points="106.15,54.43 111.11,59.58 111.29,49.47 		"/>
	</g>
	<g>
		<g>
			<defs>
				<rect id="SVGID_1_" y="0" width="159.18" height="77"/>
			</defs>
			<clipPath id="SVGID_00000180339780112266578060000012684956600052414108_">
				<use xlink:href="#SVGID_1_"  style="overflow:visible;"/>
			</clipPath>
			<g style="clip-path:url(#SVGID_00000180339780112266578060000012684956600052414108_);">
				<path class="st0" d="M151,33.05c1.67,0,3.22,0.32,4.51,1.21v-5.82l-0.47,0.66c-0.74,1.54-2.26,2.6-4.04,2.6
					c-1.77,0-3.03-0.75-3.76-2.28l-0.31-0.32v5.09C148.12,33.47,149.51,33.05,151,33.05"/>
			</g>
		</g>
		<g>
			<defs>
				<rect id="SVGID_00000121251257588148680070000000721317478196417694_" y="0" width="159.18" height="77"/>
			</defs>
			<clipPath id="SVGID_00000111879035213083403040000004996832414409020060_">
				<use xlink:href="#SVGID_00000121251257588148680070000000721317478196417694_"  style="overflow:visible;"/>
			</clipPath>
			<g style="clip-path:url(#SVGID_00000111879035213083403040000004996832414409020060_);">
				<path class="st0" d="M155.5,34.39c-0.03,0-0.05-0.01-0.07-0.02c-1.15-0.8-2.6-1.19-4.44-1.19c-1.4,0-2.79,0.39-4.01,1.13
					c-0.04,0.02-0.09,0.02-0.13,0c-0.04-0.02-0.06-0.06-0.06-0.11v-5.1c0-0.05,0.03-0.1,0.08-0.12s0.1-0.01,0.14,0.03l0.31,0.32
					c0.01,0.01,0.02,0.02,0.02,0.03c0.71,1.49,1.91,2.21,3.65,2.21c1.67,0,3.18-0.97,3.93-2.53l0.48-0.68
					c0.03-0.04,0.09-0.06,0.14-0.05c0.05,0.02,0.09,0.06,0.09,0.12v5.82c0,0.05-0.03,0.09-0.07,0.11
					C155.54,34.38,155.52,34.39,155.5,34.39z M151,32.93c1.78,0,3.22,0.36,4.38,1.1v-5.19l-0.24,0.34
					c-0.78,1.63-2.37,2.65-4.14,2.65c-1.82,0-3.12-0.79-3.86-2.34l-0.08-0.08v4.57C148.26,33.29,149.62,32.93,151,32.93z"/>
			</g>
		</g>
		<g>
			<defs>
				<rect id="SVGID_00000034811596022990231130000009298591108160758925_" y="0" width="159.18" height="77"/>
			</defs>
			<clipPath id="SVGID_00000045616361181077939290000005729889094497802378_">
				<use xlink:href="#SVGID_00000034811596022990231130000009298591108160758925_"  style="overflow:visible;"/>
			</clipPath>
			<g style="clip-path:url(#SVGID_00000045616361181077939290000005729889094497802378_);">
				<path class="st4" d="M155.35,34.83c-0.06,0-0.12-0.02-0.17-0.05c-1.32-0.9-3.04-1.46-4.49-1.46c-1.5,0-2.86,0.43-4.16,1.31
					c-0.09,0.06-0.21,0.07-0.31,0.02c-0.1-0.05-0.16-0.15-0.16-0.27v-7.15h0.6v6.6c1.25-0.74,2.6-1.12,4.03-1.12
					c1.42,0,3.01,0.47,4.36,1.27v-6.84h0.6v7.39c0,0.11-0.06,0.21-0.16,0.27C155.45,34.82,155.4,34.83,155.35,34.83z"/>
			</g>
		</g>
	</g>
	<g>
		<rect x="143.75" y="62.74" class="st0" width="15.26" height="8.01"/>
	</g>
	<g>
		<path class="st0" d="M159.01,70.88h-15.26c-0.07,0-0.12-0.06-0.12-0.12v-8.01c0-0.07,0.06-0.12,0.12-0.12h15.26
			c0.07,0,0.12,0.06,0.12,0.12v8.01C159.13,70.82,159.08,70.88,159.01,70.88z M143.88,70.63h15.01v-7.76h-15.01V70.63z"/>
	</g>
	<g>
		<rect x="142.91" y="62.51" class="st4" width="16.09" height="0.4"/>
	</g>
	<g>
		<g>
			<defs>
				<rect id="SVGID_00000101084420885715266160000017082732378373313679_" y="0" width="159.18" height="77"/>
			</defs>
			<clipPath id="SVGID_00000086662221150603054100000001765974711157624223_">
				<use xlink:href="#SVGID_00000101084420885715266160000017082732378373313679_"  style="overflow:visible;"/>
			</clipPath>
			<g style="clip-path:url(#SVGID_00000086662221150603054100000001765974711157624223_);">
				<path class="st4" d="M155.47,77c-0.17,0-0.3-0.13-0.3-0.3v-5.74c0-0.17,0.13-0.3,0.3-0.3s0.3,0.13,0.3,0.3v5.74
					C155.77,76.87,155.64,77,155.47,77z M146.24,77c-0.17,0-0.3-0.13-0.3-0.3v-5.74c0-0.17,0.13-0.3,0.3-0.3s0.3,0.13,0.3,0.3v5.74
					C146.54,76.87,146.4,77,146.24,77z"/>
			</g>
		</g>
	</g>
	<g>
		<path class="st4" d="M155.47,49.42c-0.19,0-0.35-0.16-0.35-0.35v-7.74c0-0.19,0.16-0.35,0.35-0.35s0.35,0.16,0.35,0.35v7.74
			C155.81,49.26,155.66,49.42,155.47,49.42z M146.25,49.42c-0.19,0-0.35-0.16-0.35-0.35v-7.74c0-0.19,0.16-0.35,0.35-0.35
			s0.35,0.16,0.35,0.35v7.74C146.59,49.26,146.44,49.42,146.25,49.42z"/>
	</g>
	<g>
		<g>
			<defs>
				<rect id="SVGID_00000056386356069804045330000015342515178650094507_" y="0" width="159.18" height="77"/>
			</defs>
			<clipPath id="SVGID_00000095297831483300940460000011855740682958734259_">
				<use xlink:href="#SVGID_00000056386356069804045330000015342515178650094507_"  style="overflow:visible;"/>
			</clipPath>
			<g style="clip-path:url(#SVGID_00000095297831483300940460000011855740682958734259_);">
				<path class="st4" d="M158.83,70.94h-16.01c-0.17,0-0.3-0.13-0.3-0.3V41.57c0-4.75,3.8-8.79,8.3-8.82c0.02,0,0.03,0,0.05,0
					c2.04,0,4.02,0.85,5.58,2.39c1.72,1.7,2.72,4.05,2.73,6.44l0,0l-0.05,29.07C159.13,70.81,159,70.94,158.83,70.94z M143.12,70.34
					h15.41l0.05-28.77c-0.01-2.23-0.94-4.42-2.56-6.01c-1.45-1.43-3.27-2.21-5.15-2.21c-0.02,0-0.03,0-0.05,0
					c-4.18,0.03-7.71,3.79-7.71,8.22L143.12,70.34L143.12,70.34z"/>
			</g>
		</g>
		<g>
			<defs>
				<rect id="SVGID_00000003087639111966916660000008864490836835462284_" y="0" width="159.18" height="77"/>
			</defs>
			<clipPath id="SVGID_00000066474384450816337300000012397044757690855065_">
				<use xlink:href="#SVGID_00000003087639111966916660000008864490836835462284_"  style="overflow:visible;"/>
			</clipPath>
			<g style="clip-path:url(#SVGID_00000066474384450816337300000012397044757690855065_);">
				<path class="st0" d="M155.38,25.86c-0.52-1.73-2.12-2.98-4.02-2.98s-3.5,1.26-4.02,2.98H155.38z"/>
			</g>
		</g>
		<g>
			<defs>
				<rect id="SVGID_00000019644362320686404640000013671866227803101866_" y="0" width="159.18" height="77"/>
			</defs>
			<clipPath id="SVGID_00000150101188111660946470000018095409389677597088_">
				<use xlink:href="#SVGID_00000019644362320686404640000013671866227803101866_"  style="overflow:visible;"/>
			</clipPath>
			<g style="clip-path:url(#SVGID_00000150101188111660946470000018095409389677597088_);">
				<path class="st0" d="M155.38,25.98h-8.04c-0.04,0-0.08-0.02-0.1-0.05c-0.02-0.03-0.03-0.07-0.02-0.11
					c0.56-1.84,2.22-3.07,4.14-3.07s3.58,1.23,4.14,3.07c0.01,0.04,0,0.08-0.02,0.11C155.46,25.96,155.42,25.98,155.38,25.98z
					 M147.51,25.73h7.7c-0.57-1.64-2.1-2.73-3.85-2.73S148.09,24.09,147.51,25.73z"/>
			</g>
		</g>
		<g>
			<defs>
				<rect id="SVGID_00000018223356035765945140000003005051787961665927_" y="0" width="159.18" height="77"/>
			</defs>
			<clipPath id="SVGID_00000159431226653540993770000006582828126050984847_">
				<use xlink:href="#SVGID_00000018223356035765945140000003005051787961665927_"  style="overflow:visible;"/>
			</clipPath>
			<g style="clip-path:url(#SVGID_00000159431226653540993770000006582828126050984847_);">
				<path class="st4" d="M150.86,31.86c-2.65,0-4.8-2.17-4.8-4.85s2.15-4.85,4.8-4.85c2.64,0,4.8,2.17,4.8,4.85
					S153.5,31.86,150.86,31.86z M150.86,22.77c-2.31,0-4.2,1.91-4.2,4.25s1.88,4.25,4.2,4.25c2.31,0,4.2-1.91,4.2-4.25
					S153.17,22.77,150.86,22.77z"/>
			</g>
		</g>
	</g>
	<g>
		<rect x="146.54" y="25.73" class="st4" width="8.63" height="0.4"/>
	</g>
	<g>
		<g>
			<defs>
				<rect id="SVGID_00000145056899408067116760000015181256961482176663_" y="0" width="159.18" height="77"/>
			</defs>
			<clipPath id="SVGID_00000101825337025186082090000008242314693257301171_">
				<use xlink:href="#SVGID_00000145056899408067116760000015181256961482176663_"  style="overflow:visible;"/>
			</clipPath>
			<g style="clip-path:url(#SVGID_00000101825337025186082090000008242314693257301171_);">
				<path class="st4" d="M149.45,27.35c0,0.14-0.11,0.25-0.24,0.25s-0.24-0.11-0.24-0.25c0-0.13,0.11-0.24,0.24-0.24
					S149.45,27.22,149.45,27.35"/>
			</g>
		</g>
		<g>
			<defs>
				<rect id="SVGID_00000160871127065196823600000009289145837570914444_" y="0" width="159.18" height="77"/>
			</defs>
			<clipPath id="SVGID_00000082360907144283801300000009264894010845427881_">
				<use xlink:href="#SVGID_00000160871127065196823600000009289145837570914444_"  style="overflow:visible;"/>
			</clipPath>
			<g style="clip-path:url(#SVGID_00000082360907144283801300000009264894010845427881_);">
				<path class="st4" d="M152.74,27.35c0,0.14-0.11,0.25-0.24,0.25s-0.24-0.11-0.24-0.25c0-0.13,0.11-0.24,0.24-0.24
					S152.74,27.22,152.74,27.35"/>
			</g>
		</g>
	</g>
	<g>
		<path class="st12" d="M148.7,47.19l-0.05,15.37h-22.49V47.19h16.54H148.7z M148.71,47.24l-11.26,11.15L126.2,47.24"/>
	</g>
	<g>
		<path class="st4" d="M148.65,62.87h-22.49c-0.17,0-0.3-0.13-0.3-0.3V47.19c0-0.17,0.13-0.3,0.3-0.3h22.54
			c0.08,0,0.16,0.03,0.21,0.09c0.06,0.06,0.09,0.13,0.09,0.21l-0.05,15.37C148.95,62.73,148.82,62.87,148.65,62.87z M126.46,62.27
			h21.89l0.05-14.3L137.67,58.6c-0.12,0.12-0.3,0.12-0.42,0l-10.78-10.68v14.35H126.46z M126.88,47.49l10.58,10.48l10.58-10.48
			H126.88z"/>
	</g>
	<g>
		<path class="st4" d="M148.58,62.69l-11.12-10.88l-11.12,10.88l-0.42-0.43l11.33-11.09c0.12-0.11,0.3-0.11,0.42,0L149,62.26
			L148.58,62.69z"/>
	</g>
	<g>
		<polyline class="st12" points="148.8,47.16 137.46,58.28 126.11,47.16 		"/>
	</g>
	<g>
		<polyline class="st0" points="148.61,47.32 138.12,57.64 127.58,47.32 		"/>
	</g>
	<g>
		<polygon class="st0" points="138.12,57.82 127.49,47.41 127.67,47.23 138.12,57.46 148.52,47.23 148.7,47.41 		"/>
	</g>
	<g>
		<path class="st4" d="M148.65,62.87h-22.49c-0.17,0-0.3-0.13-0.3-0.3V47.19c0-0.17,0.13-0.3,0.3-0.3h22.54
			c0.08,0,0.16,0.03,0.21,0.09c0.06,0.06,0.09,0.13,0.09,0.21l-0.05,15.37C148.95,62.73,148.82,62.87,148.65,62.87z M126.46,62.27
			h21.89l0.05-14.3L137.67,58.6c-0.12,0.12-0.3,0.12-0.42,0l-10.78-10.68v14.35H126.46z M126.88,47.49l10.58,10.48l10.58-10.48
			H126.88z"/>
	</g>
	<g>
		<rect x="16.8" y="48.14" class="st0" width="12.49" height="13.1"/>
	</g>
	<g>
		<rect x="39.55" y="48.14" class="st0" width="12.49" height="13.1"/>
	</g>
	<g>
		<rect x="61.89" y="48.14" class="st0" width="12.49" height="13.1"/>
	</g>
	<g>
		<g>
			<defs>
				<rect id="SVGID_00000149367827948304359590000012460248922249571724_" y="0" width="159.18" height="77"/>
			</defs>
			<clipPath id="SVGID_00000155137987491169717260000015144546815017525385_">
				<use xlink:href="#SVGID_00000149367827948304359590000012460248922249571724_"  style="overflow:visible;"/>
			</clipPath>
			<g style="clip-path:url(#SVGID_00000155137987491169717260000015144546815017525385_);">
				<path class="st4" d="M93.03,77H0.3C0.13,77,0,76.87,0,76.7V19.79c0-0.11,0.06-0.21,0.16-0.26c0.1-0.05,0.21-0.05,0.31,0.01
					l26.99,17.12V19.79c0-0.11,0.06-0.21,0.16-0.26c0.1-0.05,0.21-0.05,0.31,0.01L54.9,36.65V19.79c0-0.11,0.06-0.21,0.16-0.26
					c0.1-0.05,0.21-0.05,0.31,0.01l24.26,15.39l0.59-33.26c0-0.1,0.06-0.2,0.14-0.25C80.46,1.35,82.74,0,86.11,0
					s5.65,1.35,5.74,1.41c0.09,0.05,0.14,0.15,0.14,0.25l1.34,75.03c0,0.08-0.03,0.16-0.09,0.21S93.11,77,93.03,77z M0.6,76.4h92.12
					L91.4,1.85c-0.54-0.28-2.56-1.25-5.29-1.25c-2.74,0-4.75,0.96-5.29,1.25l-0.6,33.62c0,0.11-0.06,0.21-0.16,0.26
					c-0.1,0.05-0.21,0.05-0.3-0.01L55.5,20.33V37.2c0,0.11-0.06,0.21-0.16,0.26s-0.21,0.05-0.31-0.01L28.05,20.33V37.2
					c0,0.11-0.06,0.21-0.16,0.26c-0.09,0.05-0.21,0.05-0.31-0.01L0.6,20.33V76.4z M74.42,61.43H59c-0.17,0-0.3-0.13-0.3-0.3V48.39
					c0-0.17,0.13-0.3,0.3-0.3h15.42c0.17,0,0.3,0.13,0.3,0.3v12.74C74.72,61.3,74.58,61.43,74.42,61.43z M59.3,60.83h14.82V48.69
					H59.3V60.83z M52.06,61.43H36.64c-0.17,0-0.3-0.13-0.3-0.3V48.39c0-0.17,0.13-0.3,0.3-0.3h15.42c0.17,0,0.3,0.13,0.3,0.3v12.74
					C52.36,61.3,52.22,61.43,52.06,61.43z M36.94,60.83h14.82V48.69H36.94V60.83z M29.7,61.43H13.12c-0.17,0-0.3-0.13-0.3-0.3V48.39
					c0-0.17,0.13-0.3,0.3-0.3H29.7c0.17,0,0.3,0.13,0.3,0.3v12.74C30,61.3,29.86,61.43,29.7,61.43z M13.42,60.83H29.4V48.69H13.42
					V60.83z"/>
			</g>
		</g>
	</g>
</g>
</svg>
