<?xml version="1.0" encoding="utf-8"?>
<!-- Generator: Adobe Illustrator 26.0.2, SVG Export Plug-In . SVG Version: 6.00 Build 0)  -->
<svg version="1.1" id="Ebene_1" xmlns="http://www.w3.org/2000/svg" xmlns:xlink="http://www.w3.org/1999/xlink" x="0px" y="0px"
	 viewBox="0 0 54.39 63.07" style="enable-background:new 0 0 54.39 63.07;" xml:space="preserve">
<style type="text/css">
	.st0{clip-path:url(#SVGID_00000047775550287793425880000013086459670291219641_);fill:#6796CF;}
	.st1{clip-path:url(#SVGID_00000047775550287793425880000013086459670291219641_);fill:#2B2961;}
	.st2{fill:#6796CF;}
	.st3{clip-path:url(#SVGID_00000067927654710551757230000013862449156169766575_);fill:#2B2961;}
	.st4{fill:#FFFFFF;}
	.st5{clip-path:url(#SVGID_00000088811550865027681870000013924531181226187956_);fill:#2B2961;}
	.st6{clip-path:url(#SVGID_00000169541262583205449930000007395962872735427243_);fill:#2B2961;}
	.st7{clip-path:url(#SVGID_00000180365568918444147620000017411439020838064002_);fill:#2B2961;}
	.st8{fill:#2B2961;}
	.st9{clip-path:url(#SVGID_00000120558358064434800520000007757364119095926444_);fill:#6796CF;}
	.st10{clip-path:url(#SVGID_00000120558358064434800520000007757364119095926444_);fill:#2B2961;}
	.st11{clip-path:url(#SVGID_00000128470008395336046200000001027191752414046396_);fill:#2B2961;}
	.st12{clip-path:url(#SVGID_00000124874312874549519740000001141087888196179881_);fill:#2B2961;}
	.st13{clip-path:url(#SVGID_00000124874312874549519740000001141087888196179881_);fill:#6796CF;}
	.st14{clip-path:url(#SVGID_00000139295460650768531700000011200566746936733078_);fill:#2B2961;}
	.st15{clip-path:url(#SVGID_00000072274949671086143720000015960512576539829944_);fill:#2B2961;}
	.st16{clip-path:url(#SVGID_00000020373131292192932750000017623532833175957695_);fill:#2B2961;}
	.st17{clip-path:url(#SVGID_00000020373131292192932750000017623532833175957695_);fill:#6796CF;}
	.st18{clip-path:url(#SVGID_00000103979524706860866010000006788120132122088336_);fill:#2B2961;}
	.st19{clip-path:url(#SVGID_00000124863742712434640540000005400280288841354160_);fill:#2B2961;}
	.st20{clip-path:url(#SVGID_00000039831566352887786290000005792646710210257828_);fill:#2B2961;}
	.st21{clip-path:url(#SVGID_00000180355339286632624860000013779219127031379641_);fill:#2B2961;}
	.st22{clip-path:url(#SVGID_00000085227320654283905730000011001436383850359222_);fill:#6796CF;}
	.st23{clip-path:url(#SVGID_00000085227320654283905730000011001436383850359222_);fill:#2B2961;}
	.st24{clip-path:url(#SVGID_00000181082002762463555150000014388143609826314123_);fill:#2B2961;}
	.st25{clip-path:url(#SVGID_00000141438193897782842820000009604254709053930166_);fill:#2B2961;}
	.st26{clip-path:url(#SVGID_00000141438193897782842820000009604254709053930166_);fill:#6796CF;}
	.st27{clip-path:url(#SVGID_00000036247889448922817420000006953575823559842238_);fill:#2B2961;}
	.st28{clip-path:url(#SVGID_00000008141567793193579840000003867865300091461309_);fill:#2B2961;}
	.st29{clip-path:url(#SVGID_00000111185422706667120300000004222825793434034056_);fill:#2B2961;}
	.st30{clip-path:url(#SVGID_00000111185422706667120300000004222825793434034056_);fill:#6796CF;}
	.st31{clip-path:url(#SVGID_00000135656324773978607980000004536443834922248328_);fill:#2B2961;}
	.st32{clip-path:url(#SVGID_00000115488687512717678220000003868918288539689858_);fill:#6796CF;}
	.st33{clip-path:url(#SVGID_00000115488687512717678220000003868918288539689858_);fill:#2B2961;}
	.st34{clip-path:url(#SVGID_00000041973725614939753930000014768968663331921592_);fill:#2B2961;}
	.st35{clip-path:url(#SVGID_00000041973725614939753930000014768968663331921592_);fill:#6796CF;}
	.st36{clip-path:url(#SVGID_00000168099929608187834760000008718999071770736528_);fill:#2B2961;}
	.st37{clip-path:url(#SVGID_00000033331296700042032700000016569274794739915963_);fill:#FFFFFF;}
	.st38{clip-path:url(#SVGID_00000033331296700042032700000016569274794739915963_);fill:#2B2961;}
	.st39{clip-path:url(#SVGID_00000099651225632438239560000005810124601651249316_);fill:#FFFFFF;}
	.st40{clip-path:url(#SVGID_00000099651225632438239560000005810124601651249316_);fill:#2B2961;}
	.st41{clip-path:url(#SVGID_00000101064261258156656020000006873373303477343626_);fill:#6796CF;}
	.st42{clip-path:url(#SVGID_00000101064261258156656020000006873373303477343626_);fill:#2B2961;}
	.st43{clip-path:url(#SVGID_00000013193886350054607520000008947891542723486104_);fill:#2B2961;}
	.st44{clip-path:url(#SVGID_00000133526331135154753710000010866196190919487914_);fill:#6796CF;}
	.st45{clip-path:url(#SVGID_00000133526331135154753710000010866196190919487914_);fill:#2B2961;}
	.st46{clip-path:url(#SVGID_00000062873751870157786640000017527996647011305912_);fill:#2B2961;}
	.st47{clip-path:url(#SVGID_00000104703077927948023210000016482880606897768626_);fill:#2B2961;}
	.st48{clip-path:url(#SVGID_00000104703077927948023210000016482880606897768626_);fill:#6796CF;}
	.st49{clip-path:url(#SVGID_00000070806424412554547190000007329984194726393529_);fill:#2B2961;}
	.st50{clip-path:url(#SVGID_00000176735714782847166260000017635536030697001363_);fill:#2B2961;}
	.st51{clip-path:url(#SVGID_00000182510407558858340360000015720349718635666862_);fill:#2B2961;}
	.st52{clip-path:url(#SVGID_00000182510407558858340360000015720349718635666862_);fill:#6796CF;}
	.st53{clip-path:url(#SVGID_00000070076487398866197990000004300068997457408135_);fill:#2B2961;}
	.st54{clip-path:url(#SVGID_00000164514055324955002380000017385473716185227167_);fill:#2B2961;}
	.st55{clip-path:url(#SVGID_00000170990469893893327990000002182929627151270805_);fill:#2B2961;}
	.st56{clip-path:url(#SVGID_00000164473257944611849880000014127424987035325336_);fill:#2B2961;}
	.st57{clip-path:url(#SVGID_00000024703395508555151680000018002640854627939220_);fill:#6796CF;}
	.st58{clip-path:url(#SVGID_00000162349591607131651720000005383933753484810139_);fill:#2B2961;}
	.st59{clip-path:url(#SVGID_00000164490329850755678920000001901715075452865930_);fill:#2B2961;}
	.st60{clip-path:url(#SVGID_00000173161470464580861840000001155767737719710884_);fill:#6796CF;}
	.st61{clip-path:url(#SVGID_00000066477256430516229550000012939647629572006830_);fill:#2B2961;}
	.st62{clip-path:url(#SVGID_00000164509103079452798410000002953943010854811051_);fill:#2B2961;}
	.st63{clip-path:url(#SVGID_00000164509103079452798410000002953943010854811051_);fill:#6796CF;}
	.st64{clip-path:url(#SVGID_00000123428708080156992650000017984721491495093415_);fill:#2B2961;}
	.st65{clip-path:url(#SVGID_00000078022150382131763850000018359358926630224821_);fill:#6796CF;}
	.st66{clip-path:url(#SVGID_00000078022150382131763850000018359358926630224821_);fill:#2B2961;}
	.st67{clip-path:url(#SVGID_00000065769973733530799460000008921241589802211240_);fill:#2B2961;}
	.st68{clip-path:url(#SVGID_00000002368376034185437990000017659834207996387767_);fill:#2B2961;}
	.st69{clip-path:url(#SVGID_00000002368376034185437990000017659834207996387767_);fill:#6796CF;}
	.st70{clip-path:url(#SVGID_00000027595294234013816880000013890300422557690042_);fill:#2B2961;}
	.st71{clip-path:url(#SVGID_00000050632344407959003790000012681001841996938629_);fill:#2B2961;}
	.st72{clip-path:url(#SVGID_00000090986230187681201140000012671943244968572323_);fill:#2B2961;}
	.st73{clip-path:url(#SVGID_00000090986230187681201140000012671943244968572323_);fill:#6796CF;}
	.st74{clip-path:url(#SVGID_00000116195036825830157510000006487497603981114526_);fill:#2B2961;}
	.st75{clip-path:url(#SVGID_00000183944412941768186210000017847789074688851103_);fill:#2B2961;}
	.st76{clip-path:url(#SVGID_00000123433082916674315330000000836996508782663569_);fill:#2B2961;}
	.st77{clip-path:url(#SVGID_00000148649838928114398110000013835267927688598408_);fill:#2B2961;}
	.st78{clip-path:url(#SVGID_00000037654138665537309360000010907739825575006627_);fill:#6796CF;}
	.st79{clip-path:url(#SVGID_00000037654138665537309360000010907739825575006627_);fill:#2B2961;}
	.st80{clip-path:url(#SVGID_00000114058987435498602430000008745222873030665090_);fill:#FFFFFF;}
	.st81{clip-path:url(#SVGID_00000114058987435498602430000008745222873030665090_);fill:#2B2961;}
	.st82{clip-path:url(#SVGID_00000132082786236568643390000018028553840252690110_);fill:#2B2961;}
	.st83{clip-path:url(#SVGID_00000028309943705560710410000006937175770027555208_);fill:#2B2961;}
	.st84{clip-path:url(#SVGID_00000028309943705560710410000006937175770027555208_);fill:#6796CF;}
	.st85{clip-path:url(#SVGID_00000120532067456965685330000005261968657305085628_);fill:#2B2961;}
	.st86{clip-path:url(#SVGID_00000164496059620362636920000006704614097729922190_);fill:#2B2961;}
	.st87{clip-path:url(#SVGID_00000164496059620362636920000006704614097729922190_);fill:#FFFFFF;}
	.st88{clip-path:url(#SVGID_00000069392568172708214690000011231362389003547018_);fill:#6796CF;}
	.st89{clip-path:url(#SVGID_00000069392568172708214690000011231362389003547018_);fill:#2B2961;}
	.st90{clip-path:url(#SVGID_00000133516772883851382700000005428181735017413015_);fill:#2B2961;}
	.st91{clip-path:url(#SVGID_00000003805645765155755040000015907419207971696050_);fill:#2B2961;}
	.st92{clip-path:url(#SVGID_00000003805645765155755040000015907419207971696050_);fill:#6796CF;}
	.st93{clip-path:url(#SVGID_00000146458906245784759500000012270781219540393890_);fill:#2B2961;}
	.st94{clip-path:url(#SVGID_00000146458906245784759500000012270781219540393890_);fill:#FFFFFF;}
	.st95{clip-path:url(#SVGID_00000005249998864538434150000010502980272442897826_);fill:#6796CF;}
	.st96{clip-path:url(#SVGID_00000005249998864538434150000010502980272442897826_);fill:#2B2961;}
	.st97{clip-path:url(#SVGID_00000005249998864538434150000010502980272442897826_);fill:#FFFFFF;}
	.st98{clip-path:url(#SVGID_00000011747738753002481410000003874431906955745470_);fill:#2B2961;}
	.st99{clip-path:url(#SVGID_00000011747738753002481410000003874431906955745470_);fill:#6796CF;}
	.st100{clip-path:url(#SVGID_00000145024492177506631500000009857209021798776745_);fill:#2B2961;}
	.st101{clip-path:url(#SVGID_00000140720236026948403500000015412951626202324106_);fill:#2B2961;}
	.st102{clip-path:url(#SVGID_00000034063662797455060200000002674834875498495139_);fill:#2B2961;}
	.st103{clip-path:url(#SVGID_00000048492429753580011680000002880466239729516971_);fill:#2B2961;}
	.st104{clip-path:url(#SVGID_00000088116573236746050820000010728519472026193295_);fill:#2B2961;}
	.st105{clip-path:url(#SVGID_00000004543770653238073890000012995582611411437473_);fill:#FFFFFF;}
	.st106{clip-path:url(#SVGID_00000004543770653238073890000012995582611411437473_);fill:#2B2961;}
	.st107{clip-path:url(#SVGID_00000004543770653238073890000012995582611411437473_);fill:#6796CF;}
	.st108{clip-path:url(#SVGID_00000116218182097749496090000010468196247367206043_);fill:#FFFFFF;}
	.st109{clip-path:url(#SVGID_00000137840693285395128440000012137805209969296048_);fill:#2B2961;}
	.st110{clip-path:url(#SVGID_00000137840693285395128440000012137805209969296048_);fill:#FFFFFF;}
	.st111{clip-path:url(#SVGID_00000029728214893964377890000012212109639804222889_);fill:#2B2961;}
	.st112{clip-path:url(#SVGID_00000145774375955687088700000003417427420366486692_);fill:#2B2961;}
	.st113{clip-path:url(#SVGID_00000145774375955687088700000003417427420366486692_);fill:#6796CF;}
	.st114{clip-path:url(#SVGID_00000091712812326318376680000012618675672675083416_);fill:#2B2961;}
	.st115{clip-path:url(#SVGID_00000150095608077328855940000002806741795721252492_);fill:#2B2961;}
	.st116{clip-path:url(#SVGID_00000150095608077328855940000002806741795721252492_);fill:#FFFFFF;}
	.st117{clip-path:url(#SVGID_00000093885480819110521830000017701633302051217538_);fill:#6796CF;}
	.st118{clip-path:url(#SVGID_00000174581944149356268470000016541916377790516625_);fill:#2B2961;}
	.st119{clip-path:url(#SVGID_00000039130519954562867710000014165062026645193090_);fill:#2B2961;}
	.st120{clip-path:url(#SVGID_00000065753014170398828220000004822987519954294923_);fill:#FFFFFF;}
	.st121{clip-path:url(#SVGID_00000065753014170398828220000004822987519954294923_);fill:#2B2961;}
	.st122{clip-path:url(#SVGID_00000034770068851059579100000017856023425813088387_);fill:#FFFFFF;}
	.st123{clip-path:url(#SVGID_00000034770068851059579100000017856023425813088387_);fill:#2B2961;}
	.st124{clip-path:url(#SVGID_00000181076910274987415890000005257679995923533757_);fill:#6796CF;}
	.st125{clip-path:url(#SVGID_00000181076910274987415890000005257679995923533757_);fill:#2B2961;}
	.st126{clip-path:url(#SVGID_00000145039080027800458950000012577078243332191644_);fill:#2B2961;}
	.st127{clip-path:url(#SVGID_00000145039080027800458950000012577078243332191644_);fill:#6796CF;}
	.st128{clip-path:url(#SVGID_00000095336994184752200920000017778663087563629751_);fill:#6796CF;}
	.st129{clip-path:url(#SVGID_00000161597189593592493600000001191230585401499778_);fill:#2B2961;}
	.st130{clip-path:url(#SVGID_00000159465492917671228630000017273158805575625919_);fill:#2B2961;}
	.st131{clip-path:url(#SVGID_00000084525884075531357460000005057121486231631027_);fill:#2B2961;}
	.st132{clip-path:url(#SVGID_00000031912502566130309820000010662079170456392377_);fill:#2B2961;}
	.st133{clip-path:url(#SVGID_00000002369027479867704590000007551370983753927553_);fill:#2B2961;}
	.st134{clip-path:url(#SVGID_00000002369027479867704590000007551370983753927553_);fill:#6796CF;}
	.st135{clip-path:url(#SVGID_00000112627147827778471760000001753188959535667610_);fill:#6796CF;}
	.st136{clip-path:url(#SVGID_00000132048017610725647050000017415714096610535081_);fill:#2B2961;}
	.st137{clip-path:url(#SVGID_00000106133518298365157370000013974092183130042032_);fill:#2B2961;}
	.st138{clip-path:url(#SVGID_00000029014516691794050500000008249168237046934964_);fill:#2B2961;}
	.st139{clip-path:url(#SVGID_00000140701379844336173890000011353908060285293975_);fill:#2B2961;}
	.st140{clip-path:url(#SVGID_00000106858153774403559320000006743043753895784601_);fill:#6796CF;}
	.st141{clip-path:url(#SVGID_00000106858153774403559320000006743043753895784601_);fill:#2B2961;}
	.st142{clip-path:url(#SVGID_00000145024742574347504920000011031514600217343909_);fill:#2B2961;}
	.st143{clip-path:url(#SVGID_00000001658108158443128220000009889478419214096048_);fill:#2B2961;}
	.st144{clip-path:url(#SVGID_00000066492534317132397840000015235903316285975431_);fill:#2B2961;}
	.st145{clip-path:url(#SVGID_00000066492534317132397840000015235903316285975431_);fill:#6796CF;}
	.st146{clip-path:url(#SVGID_00000000186265254185558520000014435539157560593036_);}
	.st147{clip-path:url(#SVGID_00000000186265254185558520000014435539157560593036_);fill:#FFFFFF;}
	.st148{clip-path:url(#SVGID_00000000186265254185558520000014435539157560593036_);fill:#2B2961;}
	.st149{clip-path:url(#SVGID_00000181084850386462339410000004623222511568789891_);fill:#2B2961;}
	.st150{clip-path:url(#SVGID_00000007392697044325292360000005086992376231136651_);fill:#2B2961;}
	.st151{clip-path:url(#SVGID_00000007392697044325292360000005086992376231136651_);fill:#FFFFFF;}
	.st152{clip-path:url(#SVGID_00000007392697044325292360000005086992376231136651_);fill:#6796CF;}
	.st153{clip-path:url(#SVGID_00000090294891063627219340000002217371608514256261_);fill:#2B2961;}
	.st154{clip-path:url(#SVGID_00000021819149253925201390000016353471950263949217_);fill:#2B2961;}
	.st155{clip-path:url(#SVGID_00000151530617955222614110000011693039473616743069_);fill:#6796CF;}
	.st156{clip-path:url(#SVGID_00000151530617955222614110000011693039473616743069_);}
	.st157{clip-path:url(#SVGID_00000100377616402543146950000007645701018463425922_);fill:#2B2961;}
	.st158{clip-path:url(#SVGID_00000151530617955222614110000011693039473616743069_);fill:#FFFFFF;}
	.st159{clip-path:url(#SVGID_00000151530617955222614110000011693039473616743069_);fill:#2B2961;}
	.st160{opacity:0.52;clip-path:url(#SVGID_00000054968027726822431780000008742949177963219381_);}
	.st161{clip-path:url(#SVGID_00000150103508987524731180000008711295466728084110_);fill:#6796CF;}
	.st162{clip-path:url(#SVGID_00000016755956853030593610000014631862243454027664_);fill:#2B2961;}
	.st163{clip-path:url(#SVGID_00000034084097264350322080000003891119324266290591_);fill:#2B2961;}
	.st164{clip-path:url(#SVGID_00000123431882579060754380000008378360099385228209_);fill:#6796CF;}
	.st165{clip-path:url(#SVGID_00000123431882579060754380000008378360099385228209_);fill:#2B2961;}
	.st166{clip-path:url(#SVGID_00000125605337638249410450000013341107309716183192_);fill:#2B2961;}
	.st167{clip-path:url(#SVGID_00000101066189780251195960000017354198985400494724_);fill:#2B2961;}
	.st168{clip-path:url(#SVGID_00000118399114617630188440000000075510372782107802_);fill:#2B2961;}
	.st169{clip-path:url(#SVGID_00000077320983333008469720000018094315661287465611_);fill:#FFFFFF;}
	.st170{clip-path:url(#SVGID_00000077320983333008469720000018094315661287465611_);fill:#2B2961;}
	.st171{clip-path:url(#SVGID_00000077320983333008469720000018094315661287465611_);fill:#6796CF;}
	.st172{clip-path:url(#SVGID_00000008852925412107748790000001406853127276959874_);fill:#6796CF;}
	.st173{clip-path:url(#SVGID_00000037653377108301796970000012652656402330844078_);fill:#2B2961;}
	.st174{clip-path:url(#SVGID_00000148660166851657259830000015162309715908254101_);fill:#2B2961;}
	.st175{clip-path:url(#SVGID_00000148660166851657259830000015162309715908254101_);fill:#FFFFFF;}
	.st176{clip-path:url(#SVGID_00000004525566557461071730000016615116649560680068_);fill:#6796CF;}
	.st177{clip-path:url(#SVGID_00000004525566557461071730000016615116649560680068_);fill:#2B2961;}
	.st178{clip-path:url(#SVGID_00000098936137927741983160000011533928850890831750_);fill:#6796CF;}
	.st179{clip-path:url(#SVGID_00000098936137927741983160000011533928850890831750_);fill:#2B2961;}
	.st180{clip-path:url(#SVGID_00000018216763654586894720000001869754065911472563_);fill:#2B2961;}
	.st181{clip-path:url(#SVGID_00000137118786085741267110000003501302975746942606_);fill:#2B2961;}
	.st182{clip-path:url(#SVGID_00000115513515837065150510000007744146928054333366_);fill:#FFFFFF;}
	.st183{clip-path:url(#SVGID_00000109002765345563065010000015682808003998792620_);fill:#2B2961;}
	.st184{clip-path:url(#SVGID_00000106131278221595999900000012651726937029953667_);fill:#2B2961;}
	.st185{clip-path:url(#SVGID_00000106131278221595999900000012651726937029953667_);fill:#6796CF;}
	.st186{clip-path:url(#SVGID_00000026859262111284776530000011777432620548670849_);fill:#2B2961;}
	.st187{clip-path:url(#SVGID_00000035512858992509640690000002011701659320704407_);fill:#2B2961;}
	.st188{clip-path:url(#SVGID_00000039827627465789268120000001716894645813783448_);fill:#6796CF;}
	.st189{clip-path:url(#SVGID_00000093150830793333225270000002969814761096881033_);fill:#2B2961;}
	.st190{clip-path:url(#SVGID_00000170278387367037696060000005141987475679440801_);fill:#6796CF;}
	.st191{clip-path:url(#SVGID_00000060032064746393028150000006749110110681659319_);fill:#2B2961;}
	.st192{clip-path:url(#SVGID_00000064355087204393877980000011736339468821823928_);fill:#6796CF;}
	.st193{clip-path:url(#SVGID_00000141434615859112304670000010695824216454951852_);fill:#2B2961;}
	.st194{clip-path:url(#SVGID_00000018915954446585132190000001195987614541481400_);}
	.st195{clip-path:url(#SVGID_00000018915954446585132190000001195987614541481400_);fill:#2B2961;}
	.st196{clip-path:url(#SVGID_00000018915954446585132190000001195987614541481400_);fill:#FFFFFF;}
	.st197{clip-path:url(#SVGID_00000152984430286228526660000006549461234110689465_);fill:#2B2961;}
	.st198{clip-path:url(#SVGID_00000049902313190263422980000011572156823158164923_);fill:#2B2961;}
	.st199{clip-path:url(#SVGID_00000103249564288211191420000015179116928326296753_);fill:#2B2961;}
	.st200{clip-path:url(#SVGID_00000123427670932478689410000003562901540058049194_);fill:#2B2961;}
	.st201{clip-path:url(#SVGID_00000136390390855732785300000015527764688742792066_);fill:#2B2961;}
	.st202{clip-path:url(#SVGID_00000009577260927752699760000015972714654325001094_);fill:#2B2961;}
	.st203{clip-path:url(#SVGID_00000078004589930206171170000001844460312530317955_);fill:#2B2961;}
	.st204{clip-path:url(#SVGID_00000032640748344205159760000002070985109119094975_);fill:#2B2961;}
	.st205{clip-path:url(#SVGID_00000158014037272063502800000009050423782429616532_);fill:#2B2961;}
	.st206{clip-path:url(#SVGID_00000057838209702296087020000011291817136084946322_);fill:#FFFFFF;}
	.st207{clip-path:url(#SVGID_00000057838209702296087020000011291817136084946322_);fill:#2B2961;}
	.st208{clip-path:url(#SVGID_00000022526205066302178670000018182618907938750870_);fill:#6796CF;}
	.st209{clip-path:url(#SVGID_00000022526205066302178670000018182618907938750870_);fill:#2B2961;}
	.st210{clip-path:url(#SVGID_00000026158535809977108930000005843652514162406324_);fill:#2B2961;}
	.st211{clip-path:url(#SVGID_00000026158535809977108930000005843652514162406324_);fill:#FFFFFF;}
	.st212{clip-path:url(#SVGID_00000098193414628516274000000013099548979506299831_);fill:#6796CF;}
	.st213{clip-path:url(#SVGID_00000098193414628516274000000013099548979506299831_);fill:#2B2961;}
	.st214{clip-path:url(#SVGID_00000080177717674963342240000004880693787342157479_);fill:#6796CF;}
	.st215{clip-path:url(#SVGID_00000080177717674963342240000004880693787342157479_);fill:#2B2961;}
	.st216{clip-path:url(#SVGID_00000124870066693078916840000012428564296421639808_);}
	.st217{clip-path:url(#SVGID_00000181790718255588433120000003025738882494565504_);}
	.st218{clip-path:url(#SVGID_00000106104833345488562910000009430627012005853328_);}
	.st219{clip-path:url(#SVGID_00000098931060916383547900000013060273634769800370_);}
	.st220{clip-path:url(#SVGID_00000006669335353756227110000011991731238372609449_);}
	.st221{clip-path:url(#SVGID_00000134211756461919998510000002898456577477771160_);}
	.st222{clip-path:url(#SVGID_00000147214944576820808250000002746141856036728239_);}
	.st223{clip-path:url(#SVGID_00000081637966335242476960000012474944766745659539_);}
	.st224{clip-path:url(#SVGID_00000137834875655645350310000002714796042173209760_);}
	.st225{clip-path:url(#SVGID_00000042706473199825984700000013294152971051901619_);}
	.st226{clip-path:url(#SVGID_00000168796460897514982960000001979879562999573918_);}
	.st227{clip-path:url(#SVGID_00000182519506599684192840000013997331773372609686_);}
	.st228{clip-path:url(#SVGID_00000116938237413888579600000016888792378038338704_);}
	.st229{clip-path:url(#SVGID_00000098900045540416539450000003398002342361866163_);}
	.st230{clip-path:url(#SVGID_00000067941325979564124810000005394667263156044726_);fill:#2B2961;}
	.st231{clip-path:url(#SVGID_00000067941325979564124810000005394667263156044726_);fill:#6796CF;}
	.st232{fill:#A2B9E1;}
	.st233{clip-path:url(#SVGID_00000017482132693515434710000012598905743621373597_);}
	.st234{clip-path:url(#SVGID_00000113316204268088336770000001699280471184015274_);}
</style>
<g>
	<g>
		<defs>
			<rect id="SVGID_00000070837458848143200350000006187527123891489668_" width="54.39" height="63.07"/>
		</defs>
		<clipPath id="SVGID_00000167377138167788428000000006633729446911668114_">
			<use xlink:href="#SVGID_00000070837458848143200350000006187527123891489668_"  style="overflow:visible;"/>
		</clipPath>
		<polygon style="clip-path:url(#SVGID_00000167377138167788428000000006633729446911668114_);fill:#6796CF;" points="0.98,0.24 
			0.98,32.7 17.42,32.7 23.36,24.11 23.36,0.24 		"/>
		<path style="clip-path:url(#SVGID_00000167377138167788428000000006633729446911668114_);fill:#6796CF;" d="M17.49,32.82H0.86
			V0.12h22.62v24.03l-0.02,0.03L17.49,32.82z M1.1,32.58h16.26l5.88-8.51V0.36H1.1V32.58z"/>
		<g style="clip-path:url(#SVGID_00000167377138167788428000000006633729446911668114_);">
			<defs>
				<rect id="SVGID_00000159452973487855540100000017825831174180586428_" y="0" width="54.39" height="63.07"/>
			</defs>
			<clipPath id="SVGID_00000107547031904894693340000005703983211933803942_">
				<use xlink:href="#SVGID_00000159452973487855540100000017825831174180586428_"  style="overflow:visible;"/>
			</clipPath>
			<path style="clip-path:url(#SVGID_00000107547031904894693340000005703983211933803942_);fill:#2B2961;" d="M23.12,32.96H0.3
				c-0.17,0-0.3-0.13-0.3-0.3V0.3C0,0.13,0.13,0,0.3,0h22.82c0.17,0,0.3,0.13,0.3,0.3v32.36C23.42,32.83,23.29,32.96,23.12,32.96z
				 M0.6,32.36h22.22V0.6H0.6V32.36z"/>
		</g>
		<polygon style="clip-path:url(#SVGID_00000167377138167788428000000006633729446911668114_);fill:#FFFFFF;" points="20.8,35.02 
			2.66,35.02 2.66,2.66 25.48,2.66 25.48,30.33 		"/>
		<path style="clip-path:url(#SVGID_00000167377138167788428000000006633729446911668114_);fill:#2B2961;" d="M20.8,35.32H2.66
			c-0.17,0-0.3-0.13-0.3-0.3V2.66c0-0.17,0.13-0.3,0.3-0.3h22.82c0.17,0,0.3,0.13,0.3,0.3v27.67c0,0.08-0.03,0.16-0.09,0.21
			l-4.68,4.69C20.95,35.29,20.88,35.32,20.8,35.32z M2.96,34.72h17.71l4.51-4.52V2.96H2.96V34.72z"/>
		<polygon style="clip-path:url(#SVGID_00000167377138167788428000000006633729446911668114_);fill:#FFFFFF;" points="20.91,30.45 
			25.49,30.45 20.91,35.03 		"/>
		<path style="clip-path:url(#SVGID_00000167377138167788428000000006633729446911668114_);fill:#2B2961;" d="M20.91,35.31
			c-0.04,0-0.07-0.01-0.11-0.02c-0.1-0.04-0.17-0.14-0.17-0.26v-4.58c0-0.15,0.12-0.28,0.28-0.28h4.58c0.11,0,0.21,0.07,0.26,0.17
			c0.04,0.1,0.02,0.22-0.06,0.3l-4.58,4.58C21.05,35.28,20.98,35.31,20.91,35.31z M21.18,30.72v3.64l3.64-3.64H21.18z"/>
		<polygon style="clip-path:url(#SVGID_00000167377138167788428000000006633729446911668114_);fill:#6796CF;" points="21.26,30.54 
			25.49,30.54 21.26,34.71 		"/>
		<path style="clip-path:url(#SVGID_00000167377138167788428000000006633729446911668114_);fill:#6796CF;" d="M21.14,34.99v-4.57
			h4.64L21.14,34.99z M21.38,30.66v3.76l3.82-3.76H21.38z"/>
		<path style="clip-path:url(#SVGID_00000167377138167788428000000006633729446911668114_);fill:#6796CF;" d="M20.84,35.22
			c-0.02,0-0.03,0-0.05-0.01c-0.05-0.02-0.08-0.06-0.08-0.12v-4.71c0-0.07,0.06-0.12,0.12-0.12h4.71c0.05,0,0.1,0.03,0.12,0.08
			s0.01,0.1-0.03,0.14l-4.71,4.71C20.91,35.21,20.87,35.22,20.84,35.22z M20.97,30.51v4.29l4.29-4.29H20.97z"/>
		<path style="clip-path:url(#SVGID_00000167377138167788428000000006633729446911668114_);fill:#2B2961;" d="M5.79,27.61
			c-0.17,0-0.3-0.13-0.3-0.3v-7.94c0-0.17,0.13-0.3,0.3-0.3s0.3,0.13,0.3,0.3v7.94C6.09,27.48,5.95,27.61,5.79,27.61z"/>
		
			<rect x="6.35" y="8.33" style="clip-path:url(#SVGID_00000167377138167788428000000006633729446911668114_);fill:#6796CF;" width="5.69" height="11.59"/>
		<g style="clip-path:url(#SVGID_00000167377138167788428000000006633729446911668114_);">
			<defs>
				<rect id="SVGID_00000079464023400145676250000010745531244385527955_" y="0" width="54.39" height="63.07"/>
			</defs>
			<clipPath id="SVGID_00000180361944221157512680000016063077660406457740_">
				<use xlink:href="#SVGID_00000079464023400145676250000010745531244385527955_"  style="overflow:visible;"/>
			</clipPath>
			<g style="opacity:0.52;clip-path:url(#SVGID_00000180361944221157512680000016063077660406457740_);">
				<g>
					<defs>
						<rect id="SVGID_00000060018631903797215960000002387282353212224389_" x="8.7" y="1.33" width="23.62" height="19.59"/>
					</defs>
					<clipPath id="SVGID_00000060717635422098801800000000030088961660460966_">
						<use xlink:href="#SVGID_00000060018631903797215960000002387282353212224389_"  style="overflow:visible;"/>
					</clipPath>
					
						<rect x="17.7" y="8.33" style="clip-path:url(#SVGID_00000060717635422098801800000000030088961660460966_);fill:#6796CF;" width="5.62" height="11.59"/>
				</g>
			</g>
		</g>
		
			<rect x="11.5" y="8.33" style="clip-path:url(#SVGID_00000167377138167788428000000006633729446911668114_);fill:#2B2961;" width="0.4" height="11.28"/>
		
			<rect x="17.05" y="8.33" style="clip-path:url(#SVGID_00000167377138167788428000000006633729446911668114_);fill:#2B2961;" width="0.4" height="11.22"/>
		<path style="clip-path:url(#SVGID_00000167377138167788428000000006633729446911668114_);fill:#2B2961;" d="M22.71,19.7H5.84
			c-0.17,0-0.3-0.13-0.3-0.3V8.45c0-0.17,0.13-0.3,0.3-0.3h16.86c0.17,0,0.3,0.13,0.3,0.3V19.4C23,19.57,22.87,19.7,22.71,19.7z
			 M6.14,19.1h16.26V8.75H6.14V19.1z"/>
		<polygon style="clip-path:url(#SVGID_00000167377138167788428000000006633729446911668114_);fill:#6796CF;" points="26.64,60.45 
			10.19,60.45 10.19,27.99 32.58,27.99 32.58,51.86 		"/>
		<path style="clip-path:url(#SVGID_00000167377138167788428000000006633729446911668114_);fill:#6796CF;" d="M26.7,60.57H10.07
			v-32.7H32.7V51.9l-0.02,0.03L26.7,60.57z M10.31,60.33h16.26l5.88-8.51V28.11H10.31V60.33z"/>
		
			<rect x="9.51" y="28.05" style="clip-path:url(#SVGID_00000167377138167788428000000006633729446911668114_);fill:#6796CF;" width="22.82" height="32.36"/>
		<path style="clip-path:url(#SVGID_00000167377138167788428000000006633729446911668114_);fill:#2B2961;" d="M32.33,60.71H9.51
			c-0.17,0-0.3-0.13-0.3-0.3V28.05c0-0.17,0.13-0.3,0.3-0.3h22.82c0.17,0,0.3,0.13,0.3,0.3v32.36
			C32.63,60.58,32.5,60.71,32.33,60.71z M9.81,60.11h22.22V28.35H9.81V60.11z"/>
		<polygon style="clip-path:url(#SVGID_00000167377138167788428000000006633729446911668114_);fill:#FFFFFF;" points="11.87,30.41 
			11.87,62.77 30.01,62.77 34.69,58.08 34.69,30.41 		"/>
		<g style="clip-path:url(#SVGID_00000167377138167788428000000006633729446911668114_);">
			<defs>
				<rect id="SVGID_00000117671857779813518550000003331496335297863054_" y="0" width="54.39" height="63.07"/>
			</defs>
			<clipPath id="SVGID_00000147196872636885341100000017584404652841284237_">
				<use xlink:href="#SVGID_00000117671857779813518550000003331496335297863054_"  style="overflow:visible;"/>
			</clipPath>
			<path style="clip-path:url(#SVGID_00000147196872636885341100000017584404652841284237_);fill:#2B2961;" d="M30.01,63.07H11.87
				c-0.17,0-0.3-0.13-0.3-0.3V30.41c0-0.17,0.13-0.3,0.3-0.3h22.82c0.17,0,0.3,0.13,0.3,0.3v27.67c0,0.08-0.03,0.16-0.09,0.21
				l-4.68,4.69C30.16,63.04,30.09,63.07,30.01,63.07z M12.17,62.47h17.71l4.51-4.52V30.71H12.17V62.47z"/>
		</g>
		<polygon style="clip-path:url(#SVGID_00000167377138167788428000000006633729446911668114_);fill:#FFFFFF;" points="30.12,58.2 
			30.12,62.78 34.7,58.2 		"/>
		<g style="clip-path:url(#SVGID_00000167377138167788428000000006633729446911668114_);">
			<defs>
				<rect id="SVGID_00000166663616478288001190000011858501452477017492_" y="0" width="54.39" height="63.07"/>
			</defs>
			<clipPath id="SVGID_00000073705104570539152210000013118947307755412655_">
				<use xlink:href="#SVGID_00000166663616478288001190000011858501452477017492_"  style="overflow:visible;"/>
			</clipPath>
			<path style="clip-path:url(#SVGID_00000073705104570539152210000013118947307755412655_);fill:#2B2961;" d="M30.12,63.06
				c-0.04,0-0.07-0.01-0.11-0.02c-0.1-0.04-0.17-0.14-0.17-0.26V58.2c0-0.15,0.12-0.28,0.28-0.28h4.58c0.11,0,0.21,0.07,0.26,0.17
				c0.04,0.1,0.02,0.22-0.06,0.3l-4.58,4.58C30.26,63.03,30.19,63.06,30.12,63.06z M30.4,58.47v3.64l3.64-3.64H30.4z"/>
		</g>
		<polygon style="clip-path:url(#SVGID_00000167377138167788428000000006633729446911668114_);fill:#6796CF;" points="30.47,58.29 
			30.47,62.46 34.7,58.29 		"/>
		<path style="clip-path:url(#SVGID_00000167377138167788428000000006633729446911668114_);fill:#6796CF;" d="M30.35,62.74v-4.57
			h4.64L30.35,62.74z M30.59,58.41v3.76l3.82-3.76H30.59z"/>
		<g style="clip-path:url(#SVGID_00000167377138167788428000000006633729446911668114_);">
			<defs>
				<rect id="SVGID_00000076579153438591393820000008371677760505515695_" y="0" width="54.39" height="63.07"/>
			</defs>
			<clipPath id="SVGID_00000109733147722362677210000000957852706659733382_">
				<use xlink:href="#SVGID_00000076579153438591393820000008371677760505515695_"  style="overflow:visible;"/>
			</clipPath>
			<path style="clip-path:url(#SVGID_00000109733147722362677210000000957852706659733382_);fill:#6796CF;" d="M30.05,62.97
				c-0.02,0-0.03,0-0.05-0.01c-0.05-0.02-0.08-0.06-0.08-0.12v-4.71c0-0.07,0.06-0.12,0.12-0.12h4.71c0.05,0,0.1,0.03,0.12,0.08
				s0.01,0.1-0.03,0.14l-4.71,4.71C30.12,62.96,30.09,62.97,30.05,62.97z M30.18,58.26v4.29l4.29-4.29H30.18z"/>
			<path style="clip-path:url(#SVGID_00000109733147722362677210000000957852706659733382_);fill:#6796CF;" d="M22.86,50.67l4.3-6.3
				c1.48,0.18,3-0.43,3.89-1.74c0.89-1.31,0.9-2.94,0.19-4.25l-1.41,2.07l-3.09-2.09l1.41-2.07c-1.48-0.18-3,0.43-3.9,1.74
				c-0.89,1.31-0.9,2.94-0.19,4.24l-4.3,6.3c-1.48-0.18-3,0.43-3.9,1.74c-0.89,1.31-0.9,2.94-0.19,4.25l1.41-2.07l3.09,2.09
				l-1.41,2.07c1.48,0.18,3-0.43,3.9-1.74C23.56,53.61,23.57,51.97,22.86,50.67"/>
			<path style="clip-path:url(#SVGID_00000109733147722362677210000000957852706659733382_);fill:#6796CF;" d="M19.28,56.82
				c-0.17,0-0.35-0.01-0.53-0.03c-0.04-0.01-0.08-0.03-0.1-0.07c-0.02-0.04-0.01-0.09,0.01-0.12l1.34-1.97l-2.88-1.95l-1.34,1.97
				c-0.02,0.04-0.07,0.06-0.11,0.05c-0.04,0-0.08-0.03-0.1-0.06c-0.77-1.4-0.69-3.08,0.2-4.38c0.87-1.28,2.36-1.97,3.94-1.81
				l4.21-6.18c-0.73-1.38-0.64-3.03,0.23-4.31c0.89-1.3,2.42-1.99,4.01-1.8c0.04,0.01,0.08,0.03,0.1,0.07
				c0.02,0.04,0.01,0.09-0.01,0.12l-1.34,1.97l2.88,1.95l1.34-1.97c0.02-0.04,0.07-0.06,0.11-0.05c0.04,0,0.08,0.03,0.1,0.06
				c0.77,1.4,0.69,3.08-0.2,4.38c-0.87,1.28-2.38,1.96-3.94,1.81L23,50.68c0.73,1.38,0.64,3.03-0.23,4.31
				C21.98,56.14,20.68,56.82,19.28,56.82z M18.99,56.56c1.42,0.1,2.77-0.54,3.57-1.71c0.83-1.22,0.91-2.8,0.18-4.11
				c-0.02-0.04-0.02-0.09,0.01-0.13l4.3-6.3c0.03-0.04,0.07-0.06,0.12-0.05c1.5,0.18,2.94-0.47,3.78-1.69
				c0.8-1.17,0.9-2.65,0.28-3.93l-1.3,1.9c-0.04,0.06-0.12,0.07-0.17,0.03l-3.09-2.09c-0.03-0.02-0.05-0.05-0.05-0.08
				c-0.01-0.03,0-0.07,0.02-0.09l1.29-1.9c-1.42-0.1-2.77,0.54-3.57,1.71c-0.83,1.22-0.9,2.8-0.18,4.11
				c0.02,0.04,0.02,0.09-0.01,0.13l-4.3,6.3c-0.03,0.04-0.07,0.06-0.12,0.05c-1.49-0.18-2.94,0.46-3.78,1.69
				c-0.8,1.17-0.9,2.65-0.28,3.93l1.29-1.9c0.04-0.06,0.12-0.07,0.17-0.03l3.09,2.09c0.03,0.02,0.05,0.05,0.05,0.08
				c0.01,0.03,0,0.07-0.02,0.09L18.99,56.56z"/>
			<path style="clip-path:url(#SVGID_00000109733147722362677210000000957852706659733382_);fill:#2B2961;" d="M19.04,56.33
				c-0.18,0-0.36-0.01-0.54-0.03c-0.07-0.01-0.13-0.05-0.16-0.12c-0.03-0.06-0.02-0.14,0.02-0.2l1.3-1.91l-2.76-1.86l-1.3,1.91
				c-0.04,0.06-0.1,0.09-0.17,0.09c-0.07,0-0.13-0.04-0.17-0.1c-0.78-1.42-0.7-3.13,0.2-4.45c0.88-1.29,2.4-1.98,3.96-1.84l4.16-6.1
				c-0.72-1.4-0.62-3.05,0.26-4.34c0.9-1.32,2.47-2.02,4.08-1.83c0.07,0.01,0.13,0.05,0.16,0.12c0.03,0.06,0.02,0.14-0.02,0.2
				l-1.3,1.91l2.76,1.86l1.3-1.91c0.04-0.06,0.11-0.08,0.17-0.09c0.07,0,0.13,0.04,0.17,0.1c0.78,1.42,0.7,3.13-0.2,4.46
				c-0.88,1.29-2.38,1.99-3.96,1.84l-4.16,6.1c0.72,1.4,0.62,3.05-0.26,4.34C21.78,55.65,20.46,56.33,19.04,56.33z M18.89,55.93
				c1.34,0.05,2.62-0.58,3.37-1.68c0.82-1.2,0.89-2.75,0.18-4.04c-0.04-0.07-0.03-0.15,0.01-0.21l4.3-6.3
				c0.04-0.06,0.11-0.09,0.19-0.09c1.47,0.18,2.89-0.46,3.7-1.66c0.76-1.11,0.87-2.51,0.33-3.74l-1.22,1.79
				c-0.06,0.09-0.19,0.11-0.28,0.05l-3.09-2.09c-0.04-0.03-0.07-0.08-0.08-0.13s0-0.11,0.03-0.15l1.22-1.79
				c-1.36-0.06-2.61,0.58-3.37,1.68c-0.82,1.2-0.89,2.75-0.18,4.04c0.04,0.07,0.03,0.15-0.01,0.21l-4.3,6.3
				c-0.04,0.06-0.11,0.1-0.19,0.09c-1.47-0.18-2.89,0.46-3.71,1.66c-0.76,1.11-0.87,2.51-0.33,3.74l1.22-1.79
				c0.06-0.09,0.18-0.11,0.28-0.05l3.09,2.09c0.04,0.03,0.07,0.08,0.08,0.13s0,0.11-0.03,0.15L18.89,55.93z"/>
		</g>
		<polygon style="clip-path:url(#SVGID_00000167377138167788428000000006633729446911668114_);fill:#6796CF;" points="46.04,37.67 
			29.59,37.67 29.59,5.22 51.98,5.22 51.98,29.09 		"/>
		<path style="clip-path:url(#SVGID_00000167377138167788428000000006633729446911668114_);fill:#6796CF;" d="M46.1,37.79H29.47V5.1
			H52.1v24.03l-0.02,0.03L46.1,37.79z M29.71,37.55h16.26l5.88-8.51V5.33H29.71V37.55z"/>
		
			<rect x="28.91" y="5.27" style="clip-path:url(#SVGID_00000167377138167788428000000006633729446911668114_);fill:#6796CF;" width="22.82" height="32.36"/>
		<path style="clip-path:url(#SVGID_00000167377138167788428000000006633729446911668114_);fill:#2B2961;" d="M51.74,37.94H28.91
			c-0.17,0-0.3-0.13-0.3-0.3V5.27c0-0.17,0.13-0.3,0.3-0.3h22.82c0.17,0,0.3,0.13,0.3,0.3v32.36C52.04,37.8,51.9,37.94,51.74,37.94z
			 M29.21,37.34h22.22V5.57H29.21V37.34z"/>
		<polygon style="clip-path:url(#SVGID_00000167377138167788428000000006633729446911668114_);fill:#FFFFFF;" points="31.27,7.63 
			31.27,39.99 49.41,39.99 54.09,35.3 54.09,7.63 		"/>
		<g style="clip-path:url(#SVGID_00000167377138167788428000000006633729446911668114_);">
			<defs>
				<rect id="SVGID_00000020395850930463463130000000365706840709607089_" y="0" width="54.39" height="63.07"/>
			</defs>
			<clipPath id="SVGID_00000004526902029293724330000007830405197318679962_">
				<use xlink:href="#SVGID_00000020395850930463463130000000365706840709607089_"  style="overflow:visible;"/>
			</clipPath>
			<path style="clip-path:url(#SVGID_00000004526902029293724330000007830405197318679962_);fill:#2B2961;" d="M49.41,40.29H31.27
				c-0.17,0-0.3-0.13-0.3-0.3V7.63c0-0.17,0.13-0.3,0.3-0.3h22.82c0.17,0,0.3,0.13,0.3,0.3V35.3c0,0.08-0.03,0.16-0.09,0.21
				l-4.68,4.69C49.57,40.26,49.49,40.29,49.41,40.29z M31.57,39.7h17.71l4.51-4.52V7.93H31.57V39.7z"/>
		</g>
		<polygon style="clip-path:url(#SVGID_00000167377138167788428000000006633729446911668114_);fill:#FFFFFF;" points="49.52,35.42 
			49.52,40.01 54.1,35.42 		"/>
		<g style="clip-path:url(#SVGID_00000167377138167788428000000006633729446911668114_);">
			<defs>
				<rect id="SVGID_00000028318309954003963460000012884188029722561451_" y="0" width="54.39" height="63.07"/>
			</defs>
			<clipPath id="SVGID_00000033353905218049205920000001717111450444762813_">
				<use xlink:href="#SVGID_00000028318309954003963460000012884188029722561451_"  style="overflow:visible;"/>
			</clipPath>
			<path style="clip-path:url(#SVGID_00000033353905218049205920000001717111450444762813_);fill:#2B2961;" d="M49.52,40.28
				c-0.04,0-0.07-0.01-0.11-0.02c-0.1-0.04-0.17-0.14-0.17-0.26v-4.58c0-0.15,0.12-0.28,0.28-0.28h4.58c0.11,0,0.21,0.07,0.26,0.17
				c0.04,0.1,0.02,0.22-0.06,0.3l-4.58,4.58C49.66,40.25,49.59,40.28,49.52,40.28z M49.8,35.7v3.64l3.64-3.64H49.8z"/>
		</g>
		<polygon style="clip-path:url(#SVGID_00000167377138167788428000000006633729446911668114_);fill:#6796CF;" points="49.87,35.51 
			49.87,39.68 54.1,35.51 		"/>
		<path style="clip-path:url(#SVGID_00000167377138167788428000000006633729446911668114_);fill:#6796CF;" d="M49.75,39.97v-4.57
			h4.64L49.75,39.97z M49.99,35.63v3.76l3.82-3.76H49.99z"/>
		<path style="clip-path:url(#SVGID_00000167377138167788428000000006633729446911668114_);fill:#6796CF;" d="M49.46,40.2
			c-0.02,0-0.03,0-0.05-0.01c-0.05-0.02-0.08-0.06-0.08-0.12v-4.71c0-0.07,0.06-0.12,0.12-0.12h4.71c0.05,0,0.1,0.03,0.12,0.08
			s0.01,0.1-0.03,0.14l-4.71,4.71C49.52,40.18,49.49,40.2,49.46,40.2z M49.58,35.48v4.29l4.29-4.29H49.58z"/>
		<g style="clip-path:url(#SVGID_00000167377138167788428000000006633729446911668114_);">
			<defs>
				<rect id="SVGID_00000032620302329156965760000007808838943649554604_" y="0" width="54.39" height="63.07"/>
			</defs>
			<clipPath id="SVGID_00000112597994220052734540000010848437509880192660_">
				<use xlink:href="#SVGID_00000032620302329156965760000007808838943649554604_"  style="overflow:visible;"/>
			</clipPath>
			<path style="clip-path:url(#SVGID_00000112597994220052734540000010848437509880192660_);fill:#2B2961;" d="M44.75,30.87
				c-0.61,0-1.23-0.15-1.84-0.45c-1.35,0.6-2.69,0.52-3.9-0.24c-1.76-1.11-2.99-3.59-2.99-6.05c0-2.5,0.87-5.49,2.82-6.53
				c1.19-0.64,2.58-0.47,4.14,0.52c1.72-0.94,3.2-1.07,4.41-0.37c1.93,1.12,2.62,4.03,2.62,6.39c0,2.44-1.34,5.02-3.18,6.13
				C46.16,30.67,45.46,30.87,44.75,30.87z M42.93,29.75l0.13,0.07c1.16,0.61,2.36,0.59,3.46-0.07c1.67-1.01,2.89-3.37,2.89-5.62
				c0-2.09-0.61-4.88-2.32-5.87c-1.04-0.6-2.38-0.45-3.97,0.46l-0.16,0.09l-0.16-0.1c-1.42-0.94-2.66-1.14-3.67-0.59
				c-1.72,0.92-2.5,3.76-2.5,6.01c0,2.26,1.11,4.54,2.71,5.54c1.06,0.67,2.26,0.72,3.46,0.14L42.93,29.75z"/>
		</g>
		<path style="clip-path:url(#SVGID_00000167377138167788428000000006633729446911668114_);fill:#2B2961;" d="M42.99,18.33
			c-0.17,0-0.3-0.13-0.3-0.3v-2.04c0-0.17,0.13-0.3,0.3-0.3s0.3,0.13,0.3,0.3v2.04C43.29,18.2,43.15,18.33,42.99,18.33z"/>
		<g style="clip-path:url(#SVGID_00000167377138167788428000000006633729446911668114_);">
			<defs>
				<rect id="SVGID_00000114036031129166692000000017297501198913213100_" y="0" width="54.39" height="63.07"/>
			</defs>
			<clipPath id="SVGID_00000058591435313370292430000007616602915887905965_">
				<use xlink:href="#SVGID_00000114036031129166692000000017297501198913213100_"  style="overflow:visible;"/>
			</clipPath>
			<path style="clip-path:url(#SVGID_00000058591435313370292430000007616602915887905965_);fill:#FFFFFF;" d="M47.14,15.99
				l0.52-1.8 M47.17,16.06l1.7,0.48 M45.97,16.64l0.66-2.26 M46,16.71l2.09,0.59 M44.66,17.37l0.72-2.49 M44.7,17.44l2.49,0.7
				 M48.37,15.31l0.3-1.02 M48.4,15.37l1.02,0.29 M49.98,14.43l-6.83,3.81 M51.21,13.72c0,0-4.65-0.49-6.04,0.2
				c-1.39,0.69-1.96,2.37-1.28,3.75c0.68,1.38,2.44,2.09,3.75,1.25C49.25,17.88,51.21,13.72,51.21,13.72"/>
			<path style="clip-path:url(#SVGID_00000058591435313370292430000007616602915887905965_);fill:#2B2961;" d="M46.4,19.59
				c-0.25,0-0.5-0.03-0.76-0.1c-0.72-0.2-1.37-0.67-1.8-1.29L43.3,18.5c-0.14,0.08-0.33,0.03-0.41-0.12
				c-0.08-0.15-0.03-0.33,0.12-0.41l0.55-0.31c-0.64-1.5,0-3.27,1.48-4.01c1.45-0.72,6.01-0.25,6.2-0.23
				c0.1,0.01,0.18,0.07,0.23,0.15c0.05,0.08,0.05,0.19,0.01,0.27c-0.08,0.17-2.02,4.25-3.68,5.33C47.38,19.45,46.9,19.59,46.4,19.59
				z M44.37,17.9c0.35,0.48,0.86,0.85,1.43,1.01c0.6,0.16,1.19,0.08,1.67-0.23c1.24-0.8,2.75-3.65,3.27-4.69
				c-1.5-0.13-4.47-0.27-5.44,0.21c-1.18,0.59-1.7,1.98-1.22,3.18l0.31-0.17l0.7-2.4c0.05-0.16,0.21-0.25,0.37-0.2
				c0.16,0.05,0.25,0.21,0.2,0.37l-0.53,1.82l0.56-0.31l0.63-2.17c0.05-0.16,0.21-0.25,0.37-0.2c0.16,0.05,0.25,0.21,0.2,0.37
				l-0.46,1.59l0.42-0.24l0.5-1.72c0.05-0.16,0.21-0.25,0.37-0.2c0.16,0.05,0.25,0.21,0.2,0.37l-0.33,1.13l0.48-0.27l0.27-0.94
				c0.05-0.16,0.21-0.25,0.37-0.2c0.16,0.05,0.25,0.21,0.2,0.37l-0.1,0.35l0.99-0.55c0.14-0.08,0.33-0.03,0.41,0.12
				s0.03,0.33-0.12,0.41l-1.02,0.57l0.4,0.11c0.16,0.04,0.25,0.21,0.21,0.37c-0.05,0.16-0.21,0.26-0.37,0.21l-0.98-0.28l-0.49,0.27
				l1.07,0.3c0.16,0.04,0.25,0.21,0.21,0.37c-0.05,0.16-0.21,0.25-0.37,0.21l-1.65-0.47l-0.43,0.24l1.47,0.42
				c0.16,0.04,0.25,0.21,0.21,0.37c-0.05,0.16-0.21,0.25-0.37,0.21l-2.05-0.58l-0.57,0.31l1.86,0.53c0.16,0.04,0.25,0.21,0.21,0.37
				c-0.05,0.16-0.21,0.25-0.37,0.21l-2.44-0.69L44.37,17.9z"/>
			<path style="clip-path:url(#SVGID_00000058591435313370292430000007616602915887905965_);fill:#6796CF;" d="M47.61,15.81
				l0.55-1.92 M47.64,15.88l1.81,0.52 M46.37,16.49l0.69-2.4 M46.41,16.56l2.22,0.64 M44.98,17.26l0.76-2.64 M45.02,17.33l2.64,0.76
				 M48.91,15.09L49.22,14 M48.95,15.16l1.09,0.31 M50.62,14.16l-7.24,4.01 M51.92,13.42c0,0-4.94-0.54-6.41,0.19
				c-1.47,0.73-2.07,2.51-1.34,3.98c0.73,1.47,2.6,2.23,3.98,1.34C49.85,17.83,51.92,13.42,51.92,13.42"/>
			<path style="clip-path:url(#SVGID_00000058591435313370292430000007616602915887905965_);fill:#2B2961;" d="M46.4,19.49
				c-0.24,0-0.49-0.03-0.73-0.1c-0.73-0.2-1.38-0.69-1.79-1.33l-0.63,0.35c-0.1,0.05-0.22,0.02-0.27-0.08
				c-0.05-0.1-0.02-0.22,0.08-0.27l0.63-0.35c-0.68-1.47-0.07-3.23,1.4-3.96c1.42-0.71,5.96-0.24,6.15-0.22
				c0.06,0.01,0.12,0.04,0.15,0.1c0.03,0.06,0.03,0.12,0.01,0.18c-0.08,0.17-2.01,4.22-3.64,5.28
				C47.34,19.35,46.88,19.49,46.4,19.49z M44.23,17.86c0.36,0.55,0.92,0.96,1.55,1.14c0.62,0.17,1.25,0.09,1.76-0.24
				c1.31-0.85,2.92-3.94,3.37-4.86c-1.03-0.09-4.52-0.35-5.64,0.21c-1.26,0.63-1.8,2.14-1.22,3.41l0.45-0.25l0.71-2.44
				c0.03-0.11,0.14-0.17,0.25-0.14c0.11,0.03,0.17,0.14,0.14,0.25l-0.6,2.05l0.81-0.45l0.64-2.21c0.03-0.11,0.14-0.17,0.25-0.14
				c0.11,0.03,0.17,0.14,0.14,0.25l-0.53,1.82l0.67-0.37l0.51-1.76c0.03-0.11,0.14-0.17,0.25-0.14c0.11,0.03,0.17,0.14,0.14,0.25
				l-0.4,1.37l0.73-0.41l0.28-0.98c0.03-0.11,0.14-0.17,0.25-0.14c0.11,0.03,0.17,0.14,0.14,0.25l-0.17,0.59l1.2-0.67
				c0.1-0.05,0.22-0.02,0.27,0.08c0.05,0.1,0.02,0.22-0.08,0.27l-1.23,0.68l0.63,0.18c0.11,0.03,0.17,0.14,0.14,0.25
				c-0.03,0.11-0.14,0.17-0.25,0.14l-1.02-0.29l-0.73,0.41l1.31,0.37c0.11,0.03,0.17,0.14,0.14,0.25c-0.03,0.1-0.14,0.17-0.25,0.14
				l-1.69-0.48l-0.67,0.38l1.7,0.48c0.11,0.03,0.17,0.14,0.14,0.25c-0.03,0.11-0.14,0.17-0.25,0.14l-2.09-0.59l-0.81,0.45l2.09,0.59
				c0.11,0.03,0.17,0.14,0.14,0.25c-0.03,0.11-0.14,0.17-0.25,0.14l-2.48-0.7L44.23,17.86z"/>
		</g>
	</g>
</g>
</svg>
