<?xml version="1.0" encoding="utf-8"?>
<!-- Generator: Adobe Illustrator 26.0.2, SVG Export Plug-In . SVG Version: 6.00 Build 0)  -->
<svg version="1.1" id="Ebene_1" xmlns="http://www.w3.org/2000/svg" xmlns:xlink="http://www.w3.org/1999/xlink" x="0px" y="0px"
	 viewBox="0 0 58.11 51.31" style="enable-background:new 0 0 58.11 51.31;" xml:space="preserve">
<style type="text/css">
	.st0{clip-path:url(#SVGID_00000170974607941299287500000003317171569494343602_);fill:#6796CF;}
	.st1{clip-path:url(#SVGID_00000170974607941299287500000003317171569494343602_);fill:#2B2961;}
	.st2{fill:#6796CF;}
	.st3{clip-path:url(#SVGID_00000054256276504222670630000000216325003231989431_);fill:#2B2961;}
	.st4{fill:#FFFFFF;}
	.st5{clip-path:url(#SVGID_00000112632748349545342840000017882572423095096999_);fill:#2B2961;}
	.st6{clip-path:url(#SVGID_00000026849002306441613210000012109805411827087796_);fill:#2B2961;}
	.st7{clip-path:url(#SVGID_00000140720594674693661760000008032070836656118712_);fill:#2B2961;}
	.st8{fill:#2B2961;}
	.st9{clip-path:url(#SVGID_00000005263192050042745920000000307681990896573886_);fill:#6796CF;}
	.st10{clip-path:url(#SVGID_00000005263192050042745920000000307681990896573886_);fill:#2B2961;}
	.st11{clip-path:url(#SVGID_00000173129452067071214700000006307807576274535098_);fill:#2B2961;}
	.st12{clip-path:url(#SVGID_00000066499192268940363130000007133977473597723276_);fill:#2B2961;}
	.st13{clip-path:url(#SVGID_00000066499192268940363130000007133977473597723276_);fill:#6796CF;}
	.st14{clip-path:url(#SVGID_00000117635482849803047330000012630316197616397487_);fill:#2B2961;}
	.st15{clip-path:url(#SVGID_00000059300339218970947110000017309935657521332921_);fill:#2B2961;}
	.st16{clip-path:url(#SVGID_00000041296612528584322490000002194422621127321261_);fill:#2B2961;}
	.st17{clip-path:url(#SVGID_00000041296612528584322490000002194422621127321261_);fill:#6796CF;}
	.st18{clip-path:url(#SVGID_00000183210665528502141910000006183902018535282357_);fill:#2B2961;}
	.st19{clip-path:url(#SVGID_00000055701600814273514450000015251335891397161368_);fill:#2B2961;}
	.st20{clip-path:url(#SVGID_00000170250095715479577450000007517479227523676047_);fill:#2B2961;}
	.st21{clip-path:url(#SVGID_00000102510749864245093330000012284683018591136177_);fill:#2B2961;}
	.st22{clip-path:url(#SVGID_00000165207684274898877880000000576933779997638075_);fill:#6796CF;}
	.st23{clip-path:url(#SVGID_00000165207684274898877880000000576933779997638075_);fill:#2B2961;}
	.st24{clip-path:url(#SVGID_00000163048138063143976560000001764529777117033373_);fill:#2B2961;}
	.st25{clip-path:url(#SVGID_00000114778530401565053600000010188173998031019694_);fill:#2B2961;}
	.st26{clip-path:url(#SVGID_00000114778530401565053600000010188173998031019694_);fill:#6796CF;}
	.st27{clip-path:url(#SVGID_00000048477312605613340700000016202054596802989985_);fill:#2B2961;}
	.st28{clip-path:url(#SVGID_00000147942633153343216670000010062079933378504882_);fill:#2B2961;}
	.st29{clip-path:url(#SVGID_00000137821247609586511700000001650734683665353392_);fill:#2B2961;}
	.st30{clip-path:url(#SVGID_00000137821247609586511700000001650734683665353392_);fill:#6796CF;}
	.st31{clip-path:url(#SVGID_00000108990689666534637540000016916963284876172220_);fill:#2B2961;}
	.st32{clip-path:url(#SVGID_00000093179300310233388980000009259349643582557375_);fill:#6796CF;}
	.st33{clip-path:url(#SVGID_00000093179300310233388980000009259349643582557375_);fill:#2B2961;}
	.st34{clip-path:url(#SVGID_00000045602003406905643220000008361255322521811879_);fill:#2B2961;}
	.st35{clip-path:url(#SVGID_00000045602003406905643220000008361255322521811879_);fill:#6796CF;}
	.st36{clip-path:url(#SVGID_00000169545017340952699370000018372243718004528319_);fill:#2B2961;}
	.st37{clip-path:url(#SVGID_00000143599357846150013060000013359265232979586702_);fill:#FFFFFF;}
	.st38{clip-path:url(#SVGID_00000143599357846150013060000013359265232979586702_);fill:#2B2961;}
	.st39{clip-path:url(#SVGID_00000114042196458392101670000006321186774379892632_);fill:#FFFFFF;}
	.st40{clip-path:url(#SVGID_00000114042196458392101670000006321186774379892632_);fill:#2B2961;}
	.st41{clip-path:url(#SVGID_00000067937628615052558310000018310952147714818179_);fill:#6796CF;}
	.st42{clip-path:url(#SVGID_00000067937628615052558310000018310952147714818179_);fill:#2B2961;}
	.st43{clip-path:url(#SVGID_00000034786607485634144380000009937108335583077270_);fill:#2B2961;}
	.st44{clip-path:url(#SVGID_00000065048990863626514230000011407334696726397083_);fill:#6796CF;}
	.st45{clip-path:url(#SVGID_00000065048990863626514230000011407334696726397083_);fill:#2B2961;}
	.st46{clip-path:url(#SVGID_00000104678353145574774590000008832504796455055240_);fill:#2B2961;}
	.st47{clip-path:url(#SVGID_00000098223439335457904600000015868002867371315595_);fill:#2B2961;}
	.st48{clip-path:url(#SVGID_00000098223439335457904600000015868002867371315595_);fill:#6796CF;}
	.st49{clip-path:url(#SVGID_00000142174110742039472610000006648478277518854041_);fill:#2B2961;}
	.st50{clip-path:url(#SVGID_00000096757737057499512300000014036886573939936152_);fill:#2B2961;}
	.st51{clip-path:url(#SVGID_00000037660564003993871560000008225507150562548353_);fill:#2B2961;}
	.st52{clip-path:url(#SVGID_00000037660564003993871560000008225507150562548353_);fill:#6796CF;}
	.st53{clip-path:url(#SVGID_00000006674690082723978650000010757278553101925291_);fill:#2B2961;}
	.st54{clip-path:url(#SVGID_00000067948338531349717820000004437398315589759141_);fill:#2B2961;}
	.st55{clip-path:url(#SVGID_00000150099481389619328050000004495534857931508155_);fill:#2B2961;}
	.st56{clip-path:url(#SVGID_00000155139343672562697500000013504304577121218953_);fill:#2B2961;}
	.st57{clip-path:url(#SVGID_00000132779329422655844820000000190240406254669979_);fill:#6796CF;}
	.st58{clip-path:url(#SVGID_00000056416179447086018130000008022473508093582521_);fill:#2B2961;}
	.st59{clip-path:url(#SVGID_00000143577712995106827430000002406338102692565437_);fill:#2B2961;}
	.st60{clip-path:url(#SVGID_00000075868111638444458340000013250585606365998754_);fill:#6796CF;}
	.st61{clip-path:url(#SVGID_00000144304955719971116440000017269736177565771951_);fill:#2B2961;}
	.st62{clip-path:url(#SVGID_00000101803035493106061040000016431806618729342378_);fill:#2B2961;}
	.st63{clip-path:url(#SVGID_00000101803035493106061040000016431806618729342378_);fill:#6796CF;}
	.st64{clip-path:url(#SVGID_00000172412670740996644800000010322325396776421055_);fill:#2B2961;}
	.st65{clip-path:url(#SVGID_00000072969298624231015790000012288584658086300800_);fill:#6796CF;}
	.st66{clip-path:url(#SVGID_00000072969298624231015790000012288584658086300800_);fill:#2B2961;}
	.st67{clip-path:url(#SVGID_00000029018441547399914060000003314693492238394046_);fill:#2B2961;}
	.st68{clip-path:url(#SVGID_00000133513563733035372750000001609257435198839742_);fill:#2B2961;}
	.st69{clip-path:url(#SVGID_00000133513563733035372750000001609257435198839742_);fill:#6796CF;}
	.st70{clip-path:url(#SVGID_00000066474101452937942940000012121217489869810822_);fill:#2B2961;}
	.st71{clip-path:url(#SVGID_00000148659007507356554250000001777923445982921887_);fill:#2B2961;}
	.st72{clip-path:url(#SVGID_00000122722347857545053820000018094025800135902612_);fill:#2B2961;}
	.st73{clip-path:url(#SVGID_00000122722347857545053820000018094025800135902612_);fill:#6796CF;}
	.st74{clip-path:url(#SVGID_00000093865871589876534160000007352931532266895239_);fill:#2B2961;}
	.st75{clip-path:url(#SVGID_00000032633987141538654220000017428770027076714673_);fill:#2B2961;}
	.st76{clip-path:url(#SVGID_00000027603732204170274560000009758003109025370282_);fill:#2B2961;}
	.st77{clip-path:url(#SVGID_00000157276095648555393380000004378308984477032106_);fill:#2B2961;}
	.st78{clip-path:url(#SVGID_00000134236105187069662400000005479800446272839835_);fill:#6796CF;}
	.st79{clip-path:url(#SVGID_00000134236105187069662400000005479800446272839835_);fill:#2B2961;}
	.st80{clip-path:url(#SVGID_00000121990676301496038820000001039921910006039472_);fill:#FFFFFF;}
	.st81{clip-path:url(#SVGID_00000121990676301496038820000001039921910006039472_);fill:#2B2961;}
	.st82{clip-path:url(#SVGID_00000030471363065140755650000015170592672368135838_);fill:#2B2961;}
	.st83{clip-path:url(#SVGID_00000117670806517531834660000018173573091306719109_);fill:#2B2961;}
	.st84{clip-path:url(#SVGID_00000117670806517531834660000018173573091306719109_);fill:#6796CF;}
	.st85{clip-path:url(#SVGID_00000171706709409861821830000003766646368695609477_);fill:#2B2961;}
	.st86{clip-path:url(#SVGID_00000167388143030659982320000007030902450758446212_);fill:#2B2961;}
	.st87{clip-path:url(#SVGID_00000167388143030659982320000007030902450758446212_);fill:#FFFFFF;}
	.st88{clip-path:url(#SVGID_00000029006933657709998840000007620918158629338498_);fill:#6796CF;}
	.st89{clip-path:url(#SVGID_00000029006933657709998840000007620918158629338498_);fill:#2B2961;}
	.st90{clip-path:url(#SVGID_00000180326629457733153020000007135404691007767707_);fill:#2B2961;}
	.st91{clip-path:url(#SVGID_00000172426143968201439410000012457264842521309092_);fill:#2B2961;}
	.st92{clip-path:url(#SVGID_00000172426143968201439410000012457264842521309092_);fill:#6796CF;}
	.st93{clip-path:url(#SVGID_00000018227745972283969860000008230335207235562149_);fill:#2B2961;}
	.st94{clip-path:url(#SVGID_00000018227745972283969860000008230335207235562149_);fill:#FFFFFF;}
	.st95{clip-path:url(#SVGID_00000061468820400146644600000017887825306077814939_);fill:#6796CF;}
	.st96{clip-path:url(#SVGID_00000061468820400146644600000017887825306077814939_);fill:#2B2961;}
	.st97{clip-path:url(#SVGID_00000061468820400146644600000017887825306077814939_);fill:#FFFFFF;}
	.st98{clip-path:url(#SVGID_00000178917837371156235070000002348536006100722855_);fill:#2B2961;}
	.st99{clip-path:url(#SVGID_00000178917837371156235070000002348536006100722855_);fill:#6796CF;}
	.st100{clip-path:url(#SVGID_00000055709459221747486720000011999578059848713103_);fill:#2B2961;}
	.st101{clip-path:url(#SVGID_00000160905751411711800630000002413792448331902372_);fill:#2B2961;}
	.st102{clip-path:url(#SVGID_00000059296062649766483730000008786998494621999790_);fill:#2B2961;}
	.st103{clip-path:url(#SVGID_00000031889025070910072060000007201914595951554458_);fill:#2B2961;}
	.st104{clip-path:url(#SVGID_00000073681195051920575280000008063222826614139520_);fill:#2B2961;}
	.st105{clip-path:url(#SVGID_00000142867968181554038710000006633783304819131783_);fill:#FFFFFF;}
	.st106{clip-path:url(#SVGID_00000142867968181554038710000006633783304819131783_);fill:#2B2961;}
	.st107{clip-path:url(#SVGID_00000142867968181554038710000006633783304819131783_);fill:#6796CF;}
	.st108{clip-path:url(#SVGID_00000027599731312221090460000009668254459338473357_);fill:#FFFFFF;}
	.st109{clip-path:url(#SVGID_00000050627937201224948960000017085088744095883193_);fill:#2B2961;}
	.st110{clip-path:url(#SVGID_00000050627937201224948960000017085088744095883193_);fill:#FFFFFF;}
	.st111{clip-path:url(#SVGID_00000175282880226994146470000014571388181524371598_);fill:#2B2961;}
	.st112{clip-path:url(#SVGID_00000152236658096371849000000010751864345611893667_);fill:#2B2961;}
	.st113{clip-path:url(#SVGID_00000152236658096371849000000010751864345611893667_);fill:#6796CF;}
	.st114{clip-path:url(#SVGID_00000136372688261047075570000005477705747675730070_);fill:#2B2961;}
	.st115{clip-path:url(#SVGID_00000177450098685854732820000001980723040089618071_);fill:#2B2961;}
	.st116{clip-path:url(#SVGID_00000177450098685854732820000001980723040089618071_);fill:#FFFFFF;}
	.st117{clip-path:url(#SVGID_00000056403854270831330000000016537413111554028933_);fill:#6796CF;}
	.st118{clip-path:url(#SVGID_00000177479659198965913490000004367216202940220589_);fill:#2B2961;}
	.st119{clip-path:url(#SVGID_00000090258913498593783780000006438419647493158307_);fill:#2B2961;}
	.st120{clip-path:url(#SVGID_00000119108488240621395730000009209589908460860580_);fill:#FFFFFF;}
	.st121{clip-path:url(#SVGID_00000119108488240621395730000009209589908460860580_);fill:#2B2961;}
	.st122{clip-path:url(#SVGID_00000117669644603827315780000003640655831202687625_);fill:#FFFFFF;}
	.st123{clip-path:url(#SVGID_00000117669644603827315780000003640655831202687625_);fill:#2B2961;}
	.st124{clip-path:url(#SVGID_00000078765091208894048780000017109589021739830165_);fill:#6796CF;}
	.st125{clip-path:url(#SVGID_00000078765091208894048780000017109589021739830165_);fill:#2B2961;}
	.st126{clip-path:url(#SVGID_00000021100991542138381190000013772582911321450381_);fill:#2B2961;}
	.st127{clip-path:url(#SVGID_00000021100991542138381190000013772582911321450381_);fill:#6796CF;}
	.st128{clip-path:url(#SVGID_00000015356671977458834450000015133025688232065159_);fill:#6796CF;}
	.st129{clip-path:url(#SVGID_00000034809263516189807840000002977578770841314435_);fill:#2B2961;}
	.st130{clip-path:url(#SVGID_00000067217816944752222950000008424576808305907382_);fill:#2B2961;}
	.st131{clip-path:url(#SVGID_00000016053942004635817040000014935196520690621059_);fill:#2B2961;}
	.st132{clip-path:url(#SVGID_00000062192760159124259470000003313875109129941411_);fill:#2B2961;}
	.st133{clip-path:url(#SVGID_00000013183950622902000370000013393194391275189652_);fill:#2B2961;}
	.st134{clip-path:url(#SVGID_00000013183950622902000370000013393194391275189652_);fill:#6796CF;}
	.st135{clip-path:url(#SVGID_00000141437344060195579530000016900449386657456293_);fill:#6796CF;}
	.st136{clip-path:url(#SVGID_00000109025942985101347870000004326958062774805692_);fill:#2B2961;}
	.st137{clip-path:url(#SVGID_00000026850043892687049220000010218775331631663265_);fill:#2B2961;}
	.st138{clip-path:url(#SVGID_00000093141631668487576190000007518611473463757983_);fill:#2B2961;}
	.st139{clip-path:url(#SVGID_00000054949595080324872780000014960230503067316883_);fill:#2B2961;}
	.st140{clip-path:url(#SVGID_00000116219486270646532590000011116579668814121098_);fill:#6796CF;}
	.st141{clip-path:url(#SVGID_00000116219486270646532590000011116579668814121098_);fill:#2B2961;}
	.st142{clip-path:url(#SVGID_00000176737687266069270530000005174632878402058382_);fill:#2B2961;}
	.st143{clip-path:url(#SVGID_00000080901125730826601100000009436961776307823491_);fill:#2B2961;}
	.st144{clip-path:url(#SVGID_00000112627073890721022400000011248234392491467682_);fill:#2B2961;}
	.st145{clip-path:url(#SVGID_00000112627073890721022400000011248234392491467682_);fill:#6796CF;}
	.st146{clip-path:url(#SVGID_00000144300805228739807350000017604655194808522142_);}
	.st147{clip-path:url(#SVGID_00000144300805228739807350000017604655194808522142_);fill:#FFFFFF;}
	.st148{clip-path:url(#SVGID_00000144300805228739807350000017604655194808522142_);fill:#2B2961;}
	.st149{clip-path:url(#SVGID_00000124843794294797352460000008263387763067870363_);fill:#2B2961;}
	.st150{clip-path:url(#SVGID_00000032642952848253805320000000632265979211126661_);fill:#2B2961;}
	.st151{clip-path:url(#SVGID_00000032642952848253805320000000632265979211126661_);fill:#FFFFFF;}
	.st152{clip-path:url(#SVGID_00000032642952848253805320000000632265979211126661_);fill:#6796CF;}
	.st153{clip-path:url(#SVGID_00000165941431942857957760000014798052138108272518_);fill:#2B2961;}
	.st154{clip-path:url(#SVGID_00000111180443897580891570000000360311989033519500_);fill:#2B2961;}
	.st155{clip-path:url(#SVGID_00000176007862027827478510000002972221198030225846_);fill:#6796CF;}
	.st156{clip-path:url(#SVGID_00000176007862027827478510000002972221198030225846_);}
	.st157{clip-path:url(#SVGID_00000032610327417506989810000013997564564961320363_);fill:#2B2961;}
	.st158{clip-path:url(#SVGID_00000176007862027827478510000002972221198030225846_);fill:#FFFFFF;}
	.st159{clip-path:url(#SVGID_00000176007862027827478510000002972221198030225846_);fill:#2B2961;}
	.st160{opacity:0.52;clip-path:url(#SVGID_00000064312455988171337280000009134507799585655688_);}
	.st161{clip-path:url(#SVGID_00000025405694856385404690000000994494016756162971_);fill:#6796CF;}
	.st162{clip-path:url(#SVGID_00000161631388958585125000000011485716405870610604_);fill:#2B2961;}
	.st163{clip-path:url(#SVGID_00000005246796925467126040000001125673686883453575_);fill:#2B2961;}
	.st164{clip-path:url(#SVGID_00000072993613615213774680000008416128531439901617_);fill:#6796CF;}
	.st165{clip-path:url(#SVGID_00000072993613615213774680000008416128531439901617_);fill:#2B2961;}
	.st166{clip-path:url(#SVGID_00000030486109044384771680000013138425734023344572_);fill:#2B2961;}
	.st167{clip-path:url(#SVGID_00000116933892546202525370000006797326005725172893_);fill:#2B2961;}
	.st168{clip-path:url(#SVGID_00000165931902496442050710000005668608164552921228_);fill:#2B2961;}
	.st169{clip-path:url(#SVGID_00000149381037772172319320000001587848701587458433_);fill:#FFFFFF;}
	.st170{clip-path:url(#SVGID_00000149381037772172319320000001587848701587458433_);fill:#2B2961;}
	.st171{clip-path:url(#SVGID_00000149381037772172319320000001587848701587458433_);fill:#6796CF;}
	.st172{clip-path:url(#SVGID_00000181789519949661873000000007573976809958032057_);fill:#6796CF;}
	.st173{clip-path:url(#SVGID_00000041986474958840076830000001079465029228982687_);fill:#2B2961;}
	.st174{clip-path:url(#SVGID_00000090288863985294167190000012327760048989024667_);fill:#2B2961;}
	.st175{clip-path:url(#SVGID_00000090288863985294167190000012327760048989024667_);fill:#FFFFFF;}
	.st176{clip-path:url(#SVGID_00000046323400620480191190000007574013900499942305_);fill:#6796CF;}
	.st177{clip-path:url(#SVGID_00000046323400620480191190000007574013900499942305_);fill:#2B2961;}
	.st178{clip-path:url(#SVGID_00000109021661227292078210000004938168522248949945_);fill:#6796CF;}
	.st179{clip-path:url(#SVGID_00000109021661227292078210000004938168522248949945_);fill:#2B2961;}
	.st180{clip-path:url(#SVGID_00000080181052549003929850000016185900726182270112_);fill:#2B2961;}
	.st181{clip-path:url(#SVGID_00000166645279830360206160000006814582063895146651_);fill:#2B2961;}
	.st182{clip-path:url(#SVGID_00000071532521085416978650000016980029925649343901_);fill:#FFFFFF;}
	.st183{clip-path:url(#SVGID_00000062174918790727964080000000815622216207519111_);fill:#2B2961;}
	.st184{clip-path:url(#SVGID_00000083051777521760619790000016951551324000757670_);fill:#2B2961;}
	.st185{clip-path:url(#SVGID_00000083051777521760619790000016951551324000757670_);fill:#6796CF;}
	.st186{clip-path:url(#SVGID_00000030465530624232060300000018343699825661246630_);fill:#2B2961;}
	.st187{clip-path:url(#SVGID_00000047045162139302770670000009874965768305246621_);fill:#2B2961;}
	.st188{clip-path:url(#SVGID_00000096758745775612828460000014258213972938995350_);fill:#6796CF;}
	.st189{clip-path:url(#SVGID_00000023242064659095682580000016604904756109454480_);fill:#2B2961;}
	.st190{clip-path:url(#SVGID_00000129922441172976626740000010675010789107192466_);fill:#6796CF;}
	.st191{clip-path:url(#SVGID_00000177463856095735981930000010014325891801342880_);fill:#2B2961;}
	.st192{clip-path:url(#SVGID_00000096775487250626559970000015117968071520137876_);fill:#6796CF;}
	.st193{clip-path:url(#SVGID_00000143589924029707001970000013283307455315243651_);fill:#2B2961;}
	.st194{clip-path:url(#SVGID_00000170276647047729161230000013227144934709474493_);}
	.st195{clip-path:url(#SVGID_00000170276647047729161230000013227144934709474493_);fill:#2B2961;}
	.st196{clip-path:url(#SVGID_00000170276647047729161230000013227144934709474493_);fill:#FFFFFF;}
	.st197{clip-path:url(#SVGID_00000183244579738078455210000000338386546991996036_);fill:#2B2961;}
	.st198{clip-path:url(#SVGID_00000134235541901468685470000005388135903927346354_);fill:#2B2961;}
	.st199{clip-path:url(#SVGID_00000089572072187639597940000005742411362195270786_);fill:#2B2961;}
	.st200{clip-path:url(#SVGID_00000089564796345934832670000002754358706307869605_);fill:#2B2961;}
	.st201{clip-path:url(#SVGID_00000167380111091822930860000009155761851353581755_);fill:#2B2961;}
	.st202{clip-path:url(#SVGID_00000018933847680120573130000012284215256160650426_);fill:#2B2961;}
	.st203{clip-path:url(#SVGID_00000127741598097251688190000013619666045379654582_);fill:#2B2961;}
	.st204{clip-path:url(#SVGID_00000158006007009675537910000002469863625891852990_);fill:#2B2961;}
	.st205{clip-path:url(#SVGID_00000041974171831954928580000017190197999787344816_);fill:#2B2961;}
	.st206{clip-path:url(#SVGID_00000158027488352730376790000002372977265809447101_);fill:#FFFFFF;}
	.st207{clip-path:url(#SVGID_00000158027488352730376790000002372977265809447101_);fill:#2B2961;}
	.st208{clip-path:url(#SVGID_00000078732620668232417820000003792132789878640012_);fill:#6796CF;}
	.st209{clip-path:url(#SVGID_00000078732620668232417820000003792132789878640012_);fill:#2B2961;}
	.st210{clip-path:url(#SVGID_00000047052734635671258900000003892373469817112722_);fill:#2B2961;}
	.st211{clip-path:url(#SVGID_00000047052734635671258900000003892373469817112722_);fill:#FFFFFF;}
	.st212{clip-path:url(#SVGID_00000181803071733871826990000012629116687983071386_);fill:#6796CF;}
	.st213{clip-path:url(#SVGID_00000181803071733871826990000012629116687983071386_);fill:#2B2961;}
	.st214{clip-path:url(#SVGID_00000111884137729250283410000003321373526252707242_);fill:#6796CF;}
	.st215{clip-path:url(#SVGID_00000111884137729250283410000003321373526252707242_);fill:#2B2961;}
	.st216{clip-path:url(#SVGID_00000005976763806521451040000005338152556125734031_);}
	.st217{clip-path:url(#SVGID_00000071552402476824017310000002901433601999448451_);}
	.st218{clip-path:url(#SVGID_00000024693189196855954630000009520687273180280448_);}
	.st219{clip-path:url(#SVGID_00000116217491491884437990000000659860717497421989_);}
	.st220{clip-path:url(#SVGID_00000143601003473284545150000013862213002334279043_);}
	.st221{clip-path:url(#SVGID_00000021814138357534981280000006653054804546430614_);}
	.st222{clip-path:url(#SVGID_00000026873350133677675010000016811302934742388380_);}
	.st223{clip-path:url(#SVGID_00000087406326285192494930000014887982237159140499_);}
	.st224{clip-path:url(#SVGID_00000059277801248403166310000001887316830549339802_);}
	.st225{clip-path:url(#SVGID_00000031929954198809791500000006798411792435231622_);}
	.st226{clip-path:url(#SVGID_00000078731279462334848680000013832610429907156107_);}
	.st227{clip-path:url(#SVGID_00000043431566573516372270000003647095235617383608_);}
	.st228{clip-path:url(#SVGID_00000091733594337679243710000015536433902633715867_);}
	.st229{clip-path:url(#SVGID_00000114055945706264808840000006499024035671338145_);}
	.st230{clip-path:url(#SVGID_00000168831674656740023020000012818566275594955412_);fill:#2B2961;}
	.st231{clip-path:url(#SVGID_00000168831674656740023020000012818566275594955412_);fill:#6796CF;}
	.st232{fill:#A2B9E1;}
	.st233{clip-path:url(#SVGID_00000071549567087590034490000007648147794901878427_);}
	.st234{clip-path:url(#SVGID_00000036965869877154454440000011269199795629399735_);}
</style>
<g>
	<polygon class="st2" points="25.34,47.57 1.36,47.57 1.36,0.29 34.01,0.29 34.01,35.06 	"/>
	<path class="st2" d="M25.4,47.68H1.25V0.18h32.87v34.92l-0.02,0.03L25.4,47.68z M1.47,47.46h23.82l8.61-12.43V0.4H1.47V47.46z"/>
	<path class="st8" d="M33.75,47.89H0.28C0.12,47.89,0,47.76,0,47.61V0.28C0,0.12,0.12,0,0.28,0h33.47c0.15,0,0.28,0.12,0.28,0.28
		v47.33C34.03,47.76,33.9,47.89,33.75,47.89z M0.55,47.33h32.92V0.55H0.55V47.33z"/>
	<polygon class="st4" points="3.7,3.7 3.7,51.04 30.31,51.04 37.18,44.17 37.18,3.7 	"/>
	<g>
		<path class="st8" d="M30.31,51.31H3.7c-0.15,0-0.28-0.12-0.28-0.28V3.7c0-0.15,0.12-0.28,0.28-0.28h33.47
			c0.15,0,0.28,0.12,0.28,0.28v40.47c0,0.07-0.03,0.14-0.08,0.2l-6.87,6.86C30.45,51.28,30.38,51.31,30.31,51.31z M3.98,50.76h26.21
			l6.71-6.7V3.98H3.98V50.76z"/>
	</g>
	<polygon class="st4" points="30.23,44.09 30.23,51.04 37.18,44.09 	"/>
	<g>
		<path class="st8" d="M30.23,51.29c-0.03,0-0.07-0.01-0.1-0.02c-0.1-0.04-0.16-0.13-0.16-0.24v-6.95c0-0.14,0.12-0.26,0.26-0.26
			h6.95c0.1,0,0.2,0.06,0.24,0.16c0.04,0.1,0.02,0.21-0.06,0.28l-6.95,6.95C30.36,51.27,30.29,51.29,30.23,51.29z M30.48,44.34v6.08
			l6.08-6.08H30.48z"/>
	</g>
	<polygon class="st2" points="30.93,44.23 36.69,44.23 30.93,50.48 	"/>
	<path class="st2" d="M30.82,50.76v-6.65h6.12L30.82,50.76z M31.04,44.34v5.86l5.39-5.86H31.04z"/>
	<g>
		<path class="st8" d="M30.23,51.29c-0.03,0-0.07-0.01-0.1-0.02c-0.1-0.04-0.16-0.13-0.16-0.24v-6.95c0-0.14,0.12-0.26,0.26-0.26
			h6.95c0.1,0,0.2,0.06,0.24,0.16c0.04,0.1,0.02,0.21-0.06,0.28l-6.95,6.95C30.36,51.27,30.29,51.29,30.23,51.29z M30.48,44.34v6.08
			l6.08-6.08H30.48z"/>
	</g>
	<path class="st8" d="M27.81,33.19H7.14c-0.1,0-0.18-0.08-0.18-0.18s0.08-0.18,0.18-0.18h20.67c0.1,0,0.18,0.08,0.18,0.18
		S27.91,33.19,27.81,33.19z"/>
	<path class="st8" d="M31.24,29.34H7.13c-0.1,0-0.18-0.08-0.18-0.18s0.08-0.18,0.18-0.18h24.11c0.1,0,0.18,0.08,0.18,0.18
		S31.35,29.34,31.24,29.34z M31.36,25.42H7.25c-0.1,0-0.18-0.08-0.18-0.18s0.08-0.18,0.18-0.18h24.11c0.1,0,0.18,0.08,0.18,0.18
		S31.46,25.42,31.36,25.42z"/>
	<path class="st8" d="M24.63,21.57H7.25c-0.1,0-0.18-0.08-0.18-0.18s0.08-0.18,0.18-0.18h17.38c0.1,0,0.18,0.08,0.18,0.18
		S24.74,21.57,24.63,21.57z"/>
	<path class="st8" d="M31.24,40H7.13c-0.1,0-0.18-0.08-0.18-0.18s0.08-0.18,0.18-0.18h24.11c0.1,0,0.18,0.08,0.18,0.18
		S31.35,40,31.24,40z M31.36,36.82H7.25c-0.1,0-0.18-0.08-0.18-0.18s0.08-0.18,0.18-0.18h24.11c0.1,0,0.18,0.08,0.18,0.18
		S31.46,36.82,31.36,36.82z"/>
	<path class="st8" d="M20.95,43.63H7.25c-0.1,0-0.18-0.08-0.18-0.18s0.08-0.18,0.18-0.18h13.71c0.1,0,0.18,0.08,0.18,0.18
		S21.06,43.63,20.95,43.63z"/>
	<polygon class="st4" points="21.87,42.99 34.61,36.54 57.83,10.75 50.03,3.73 26.81,29.61 	"/>
	<path class="st8" d="M21.87,43.25c-0.06,0-0.13-0.02-0.18-0.07c-0.08-0.07-0.11-0.19-0.07-0.29l4.93-13.38
		c0.01-0.03,0.03-0.06,0.05-0.08L49.84,3.56c0.05-0.05,0.11-0.08,0.18-0.09c0.06,0,0.14,0.02,0.19,0.07l7.8,7.02
		c0.05,0.05,0.08,0.11,0.09,0.18c0,0.07-0.02,0.14-0.07,0.19L34.81,36.71c-0.02,0.02-0.05,0.04-0.08,0.06l-12.74,6.45
		C21.95,43.24,21.91,43.25,21.87,43.25z M27.04,29.75l-4.68,12.7l12.1-6.12l23.01-25.55L50.05,4.1L27.04,29.75z"/>
	<g>
		<path class="st2" d="M50.93,8.72L30.44,31.47c-0.63,0.7-0.58,1.79,0.13,2.42c0.71,0.63,1.79,0.58,2.42-0.13l20.48-22.75
			L50.93,8.72z"/>
		<path class="st2" d="M31.72,34.45c-0.44,0-0.88-0.15-1.23-0.47c-0.75-0.68-0.81-1.84-0.14-2.59L50.84,8.64
			c0.02-0.02,0.05-0.04,0.08-0.04c0.02,0,0.06,0.01,0.08,0.03l2.55,2.3c0.05,0.04,0.05,0.12,0.01,0.16L33.08,33.84
			C32.72,34.24,32.22,34.45,31.72,34.45z M50.94,8.88L30.53,31.54c-0.59,0.66-0.54,1.67,0.12,2.26c0.66,0.59,1.67,0.54,2.26-0.12
			l20.41-22.66L50.94,8.88z"/>
		<path class="st2" d="M26.87,37.79c-0.83-0.67-2.15-0.64-2.33-0.45l-1.89,5.33l5.39-2.74C28.04,39.93,28.36,38.98,26.87,37.79"/>
		<path class="st2" d="M22.66,42.79c-0.03,0-0.05-0.01-0.08-0.03c-0.04-0.03-0.05-0.08-0.03-0.13l1.89-5.33
			c0-0.01,0.01-0.03,0.02-0.04c0.23-0.25,1.6-0.27,2.48,0.44l0,0c1.53,1.22,1.22,2.23,1.21,2.27c-0.01,0.03-0.03,0.05-0.06,0.07
			l-5.39,2.74C22.69,42.79,22.67,42.79,22.66,42.79z M24.65,37.41l-1.78,5.03l5.08-2.59c0.03-0.19,0.08-1-1.14-1.97l0,0
			C26.03,37.27,24.83,37.28,24.65,37.41z"/>
	</g>
	<path class="st8" d="M21.87,43.26c-0.07,0-0.13-0.02-0.18-0.07c-0.08-0.08-0.12-0.2-0.08-0.3l4.93-13.38
		c0.01-0.03,0.03-0.06,0.05-0.09L49.83,3.55c0.05-0.05,0.12-0.09,0.19-0.09c0.07,0,0.15,0.02,0.2,0.07l7.8,7.02
		c0.05,0.05,0.09,0.12,0.09,0.19c0,0.07-0.02,0.15-0.07,0.2L34.82,36.72c-0.02,0.03-0.05,0.05-0.08,0.06L22,43.23
		C21.96,43.25,21.92,43.26,21.87,43.26z M27.05,29.75l-4.67,12.66l12.06-6.11l23-25.54l-7.39-6.65L27.05,29.75z"/>
	<path class="st8" d="M34.01,36.45c-0.45,0-0.91-0.16-1.27-0.49c-0.56-0.51-0.75-1.27-0.55-1.95c-0.2,0.08-0.41,0.13-0.63,0.14
		c-0.49,0.01-0.99-0.15-1.37-0.49c-0.38-0.34-0.6-0.81-0.63-1.31c-0.01-0.2,0.01-0.39,0.06-0.58c-0.21,0.1-0.44,0.15-0.68,0.17
		c-0.51,0.03-1-0.15-1.37-0.49c-0.38-0.34-0.6-0.81-0.63-1.31c-0.03-0.51,0.15-1,0.49-1.37l0.28,0.25c-0.27,0.3-0.41,0.7-0.39,1.1
		s0.2,0.78,0.5,1.06c0.63,0.57,1.6,0.52,2.16-0.11l0,0c0.02-0.03,0.05-0.06,0.07-0.08L50.41,8.36L48,6.19l0.25-0.28l7.7,6.94
		l-0.25,0.28l-2.47-2.22L32.87,33.52c-0.56,0.63-0.51,1.6,0.11,2.16c0.63,0.57,1.6,0.51,2.16-0.11l0.28,0.25
		C35.05,36.23,34.53,36.45,34.01,36.45z M50.69,8.61L30.32,31.22c-0.27,0.3-0.41,0.7-0.39,1.1c0.02,0.41,0.2,0.78,0.5,1.06
		c0.3,0.27,0.7,0.42,1.1,0.39c0.41-0.02,0.78-0.2,1.06-0.5l20.36-22.62L50.69,8.61z M56.5,12.23l-7.7-6.94l0.25-0.28l7.7,6.94
		L56.5,12.23z"/>
</g>
</svg>
