<?xml version="1.0" encoding="utf-8"?>
<!-- Generator: Adobe Illustrator 26.0.2, SVG Export Plug-In . SVG Version: 6.00 Build 0)  -->
<svg version="1.1" id="Ebene_1" xmlns="http://www.w3.org/2000/svg" xmlns:xlink="http://www.w3.org/1999/xlink" x="0px" y="0px"
	 viewBox="0 0 45.44 62.26" style="enable-background:new 0 0 45.44 62.26;" xml:space="preserve">
<style type="text/css">
	.st0{clip-path:url(#SVGID_00000160165103239541351870000012846706029751375772_);fill:#6796CF;}
	.st1{clip-path:url(#SVGID_00000160165103239541351870000012846706029751375772_);fill:#2B2961;}
	.st2{fill:#6796CF;}
	.st3{clip-path:url(#SVGID_00000012451959877108144030000017627846567277383345_);fill:#2B2961;}
	.st4{fill:#FFFFFF;}
	.st5{clip-path:url(#SVGID_00000059296202969752834830000009570208492847139984_);fill:#2B2961;}
	.st6{clip-path:url(#SVGID_00000139270787922514672630000006085980226260079011_);fill:#2B2961;}
	.st7{clip-path:url(#SVGID_00000119075486338898352410000018239267959694097824_);fill:#2B2961;}
	.st8{fill:#2B2961;}
	.st9{clip-path:url(#SVGID_00000147915329361115834590000004564093438277512871_);fill:#6796CF;}
	.st10{clip-path:url(#SVGID_00000147915329361115834590000004564093438277512871_);fill:#2B2961;}
	.st11{clip-path:url(#SVGID_00000010303023944685548330000015704408407737298878_);fill:#2B2961;}
	.st12{clip-path:url(#SVGID_00000152223228526254539340000006870299324467605687_);fill:#2B2961;}
	.st13{clip-path:url(#SVGID_00000152223228526254539340000006870299324467605687_);fill:#6796CF;}
	.st14{clip-path:url(#SVGID_00000172436661415700227690000000327669301085058999_);fill:#2B2961;}
	.st15{clip-path:url(#SVGID_00000083050439886341544100000013251385979055822212_);fill:#2B2961;}
	.st16{clip-path:url(#SVGID_00000007417092667050596940000003659297364791165093_);fill:#2B2961;}
	.st17{clip-path:url(#SVGID_00000007417092667050596940000003659297364791165093_);fill:#6796CF;}
	.st18{clip-path:url(#SVGID_00000139985340703531257040000011593029850884340100_);fill:#2B2961;}
	.st19{clip-path:url(#SVGID_00000036246130284628956850000001712568619688887222_);fill:#2B2961;}
	.st20{clip-path:url(#SVGID_00000109003461728797638500000017644480878619212691_);fill:#2B2961;}
	.st21{clip-path:url(#SVGID_00000071518542846940509930000011885416035569045663_);fill:#2B2961;}
	.st22{clip-path:url(#SVGID_00000093886420060833796590000010657655627194870202_);fill:#6796CF;}
	.st23{clip-path:url(#SVGID_00000093886420060833796590000010657655627194870202_);fill:#2B2961;}
	.st24{clip-path:url(#SVGID_00000093177861058587790250000009346219101123203991_);fill:#2B2961;}
	.st25{clip-path:url(#SVGID_00000020373778222039333810000006130232568795440796_);fill:#2B2961;}
	.st26{clip-path:url(#SVGID_00000020373778222039333810000006130232568795440796_);fill:#6796CF;}
	.st27{clip-path:url(#SVGID_00000021805402898386363270000016637098502427384756_);fill:#2B2961;}
	.st28{clip-path:url(#SVGID_00000047058208761449059440000006133361570606553021_);fill:#2B2961;}
	.st29{clip-path:url(#SVGID_00000036214723549824867290000001763231997317741754_);fill:#2B2961;}
	.st30{clip-path:url(#SVGID_00000036214723549824867290000001763231997317741754_);fill:#6796CF;}
	.st31{clip-path:url(#SVGID_00000052104965323390867380000011730626339968540858_);fill:#2B2961;}
	.st32{clip-path:url(#SVGID_00000137110210236330338960000017770176913851464857_);fill:#6796CF;}
	.st33{clip-path:url(#SVGID_00000137110210236330338960000017770176913851464857_);fill:#2B2961;}
	.st34{clip-path:url(#SVGID_00000082327291016043203640000009729843477386973077_);fill:#2B2961;}
	.st35{clip-path:url(#SVGID_00000082327291016043203640000009729843477386973077_);fill:#6796CF;}
	.st36{clip-path:url(#SVGID_00000174569057615580782510000007320801642069888128_);fill:#2B2961;}
	.st37{clip-path:url(#SVGID_00000090983515364582293190000007058613210226983572_);fill:#FFFFFF;}
	.st38{clip-path:url(#SVGID_00000090983515364582293190000007058613210226983572_);fill:#2B2961;}
	.st39{clip-path:url(#SVGID_00000078766414147161802260000000601939463276683176_);fill:#FFFFFF;}
	.st40{clip-path:url(#SVGID_00000078766414147161802260000000601939463276683176_);fill:#2B2961;}
	.st41{clip-path:url(#SVGID_00000137850155708060352860000016743857268287324577_);fill:#6796CF;}
	.st42{clip-path:url(#SVGID_00000137850155708060352860000016743857268287324577_);fill:#2B2961;}
	.st43{clip-path:url(#SVGID_00000128459794017088100210000007841357497547391916_);fill:#2B2961;}
	.st44{clip-path:url(#SVGID_00000072994074074866887220000000246628315103114662_);fill:#6796CF;}
	.st45{clip-path:url(#SVGID_00000072994074074866887220000000246628315103114662_);fill:#2B2961;}
	.st46{clip-path:url(#SVGID_00000118397683588494065150000013740025709352336821_);fill:#2B2961;}
	.st47{clip-path:url(#SVGID_00000061459828939455099040000013566961331705918856_);fill:#2B2961;}
	.st48{clip-path:url(#SVGID_00000061459828939455099040000013566961331705918856_);fill:#6796CF;}
	.st49{clip-path:url(#SVGID_00000105425171544822831450000015812577722617924267_);fill:#2B2961;}
	.st50{clip-path:url(#SVGID_00000124135364521241943820000005923511785262722480_);fill:#2B2961;}
	.st51{clip-path:url(#SVGID_00000091709833185858146930000000465720180718799257_);fill:#2B2961;}
	.st52{clip-path:url(#SVGID_00000091709833185858146930000000465720180718799257_);fill:#6796CF;}
	.st53{clip-path:url(#SVGID_00000178192885634442340330000007382200993845914521_);fill:#2B2961;}
	.st54{clip-path:url(#SVGID_00000170250059655570386770000016561614590230385835_);fill:#2B2961;}
	.st55{clip-path:url(#SVGID_00000057843864220802424490000016852782070818887072_);fill:#2B2961;}
	.st56{clip-path:url(#SVGID_00000037682547091880529180000015213355300003412610_);fill:#2B2961;}
	.st57{clip-path:url(#SVGID_00000156587341818980275160000014028061380172886951_);fill:#6796CF;}
	.st58{clip-path:url(#SVGID_00000089546584962701820160000013747410669656159638_);fill:#2B2961;}
	.st59{clip-path:url(#SVGID_00000178914602673542836390000002121293613801162905_);fill:#2B2961;}
	.st60{clip-path:url(#SVGID_00000015320167089909988610000011824106084644259210_);fill:#6796CF;}
	.st61{clip-path:url(#SVGID_00000089545115845208453880000006984816292596969386_);fill:#2B2961;}
	.st62{clip-path:url(#SVGID_00000113312145540064856060000002071357390003005619_);fill:#2B2961;}
	.st63{clip-path:url(#SVGID_00000113312145540064856060000002071357390003005619_);fill:#6796CF;}
	.st64{clip-path:url(#SVGID_00000083075559917884270500000004925151932810888332_);fill:#2B2961;}
	.st65{clip-path:url(#SVGID_00000097464111275167139510000014136708295013452169_);fill:#6796CF;}
	.st66{clip-path:url(#SVGID_00000097464111275167139510000014136708295013452169_);fill:#2B2961;}
	.st67{clip-path:url(#SVGID_00000084516472706834371920000015563308458681728691_);fill:#2B2961;}
	.st68{clip-path:url(#SVGID_00000072273074193357368470000009138086067369733506_);fill:#2B2961;}
	.st69{clip-path:url(#SVGID_00000072273074193357368470000009138086067369733506_);fill:#6796CF;}
	.st70{clip-path:url(#SVGID_00000110428574098110056280000012739575106612391552_);fill:#2B2961;}
	.st71{clip-path:url(#SVGID_00000106850918214838433570000011861696121976361657_);fill:#2B2961;}
	.st72{clip-path:url(#SVGID_00000130640021451054290080000004131932874600007597_);fill:#2B2961;}
	.st73{clip-path:url(#SVGID_00000130640021451054290080000004131932874600007597_);fill:#6796CF;}
	.st74{clip-path:url(#SVGID_00000164504641609842144280000015804686120945096360_);fill:#2B2961;}
	.st75{clip-path:url(#SVGID_00000021828762887648327870000006027295777664339840_);fill:#2B2961;}
	.st76{clip-path:url(#SVGID_00000160165482466426684180000016289025330315104703_);fill:#2B2961;}
	.st77{clip-path:url(#SVGID_00000109710865924635252220000007167898546652222378_);fill:#2B2961;}
	.st78{clip-path:url(#SVGID_00000116938606013681323630000016530366572037574056_);fill:#6796CF;}
	.st79{clip-path:url(#SVGID_00000116938606013681323630000016530366572037574056_);fill:#2B2961;}
	.st80{clip-path:url(#SVGID_00000048472806691494421070000014702525594274851743_);fill:#FFFFFF;}
	.st81{clip-path:url(#SVGID_00000048472806691494421070000014702525594274851743_);fill:#2B2961;}
	.st82{clip-path:url(#SVGID_00000105425485482547838850000001838179879021709971_);fill:#2B2961;}
	.st83{clip-path:url(#SVGID_00000150063461179770954110000010251506931893169584_);fill:#2B2961;}
	.st84{clip-path:url(#SVGID_00000150063461179770954110000010251506931893169584_);fill:#6796CF;}
	.st85{clip-path:url(#SVGID_00000012458044003654284270000017600672771112550533_);fill:#2B2961;}
	.st86{clip-path:url(#SVGID_00000104664161441584328640000012504325815650090427_);fill:#2B2961;}
	.st87{clip-path:url(#SVGID_00000104664161441584328640000012504325815650090427_);fill:#FFFFFF;}
	.st88{clip-path:url(#SVGID_00000029013651190133757010000000549121279468765575_);fill:#6796CF;}
	.st89{clip-path:url(#SVGID_00000029013651190133757010000000549121279468765575_);fill:#2B2961;}
	.st90{clip-path:url(#SVGID_00000183240043512126194700000014877446858171501457_);fill:#2B2961;}
	.st91{clip-path:url(#SVGID_00000129913575333671136750000000946695536214425488_);fill:#2B2961;}
	.st92{clip-path:url(#SVGID_00000129913575333671136750000000946695536214425488_);fill:#6796CF;}
	.st93{clip-path:url(#SVGID_00000148633053501035054500000006074545937828350871_);fill:#2B2961;}
	.st94{clip-path:url(#SVGID_00000148633053501035054500000006074545937828350871_);fill:#FFFFFF;}
	.st95{clip-path:url(#SVGID_00000080168805895278401900000007156728766824240063_);fill:#6796CF;}
	.st96{clip-path:url(#SVGID_00000080168805895278401900000007156728766824240063_);fill:#2B2961;}
	.st97{clip-path:url(#SVGID_00000080168805895278401900000007156728766824240063_);fill:#FFFFFF;}
	.st98{clip-path:url(#SVGID_00000151526278229517091050000008729862926009014915_);fill:#2B2961;}
	.st99{clip-path:url(#SVGID_00000151526278229517091050000008729862926009014915_);fill:#6796CF;}
	.st100{clip-path:url(#SVGID_00000103962709204874715530000001223356403740821944_);fill:#2B2961;}
	.st101{clip-path:url(#SVGID_00000019663633277860216680000003326792178375895728_);fill:#2B2961;}
	.st102{clip-path:url(#SVGID_00000049201895080634565380000006601440238035987607_);fill:#2B2961;}
	.st103{clip-path:url(#SVGID_00000121271197276124805380000012889361399518189186_);fill:#2B2961;}
	.st104{clip-path:url(#SVGID_00000078035668231163355900000011702054805889068725_);fill:#2B2961;}
	.st105{clip-path:url(#SVGID_00000078021238277546241270000005224030044564231855_);fill:#FFFFFF;}
	.st106{clip-path:url(#SVGID_00000078021238277546241270000005224030044564231855_);fill:#2B2961;}
	.st107{clip-path:url(#SVGID_00000078021238277546241270000005224030044564231855_);fill:#6796CF;}
	.st108{clip-path:url(#SVGID_00000119822774330085735550000011624783080336734890_);fill:#FFFFFF;}
	.st109{clip-path:url(#SVGID_00000146485821569550755060000009538677306250801549_);fill:#2B2961;}
	.st110{clip-path:url(#SVGID_00000146485821569550755060000009538677306250801549_);fill:#FFFFFF;}
	.st111{clip-path:url(#SVGID_00000075159956721201426060000004187420524912706702_);fill:#2B2961;}
	.st112{clip-path:url(#SVGID_00000121242606041287547570000000644591450985216445_);fill:#2B2961;}
	.st113{clip-path:url(#SVGID_00000121242606041287547570000000644591450985216445_);fill:#6796CF;}
	.st114{clip-path:url(#SVGID_00000127748748545297392170000014796694491457020840_);fill:#2B2961;}
	.st115{clip-path:url(#SVGID_00000152234925453435961110000010991799733155285939_);fill:#2B2961;}
	.st116{clip-path:url(#SVGID_00000152234925453435961110000010991799733155285939_);fill:#FFFFFF;}
	.st117{clip-path:url(#SVGID_00000035498094497063893200000014522471714117687976_);fill:#6796CF;}
	.st118{clip-path:url(#SVGID_00000035525231687565964120000014439354911222679196_);fill:#2B2961;}
	.st119{clip-path:url(#SVGID_00000114778124861883352500000013367011599719891364_);fill:#2B2961;}
	.st120{clip-path:url(#SVGID_00000085955789398173523630000014645736550974677121_);fill:#FFFFFF;}
	.st121{clip-path:url(#SVGID_00000085955789398173523630000014645736550974677121_);fill:#2B2961;}
	.st122{clip-path:url(#SVGID_00000086663173995187629190000005307445891798327461_);fill:#FFFFFF;}
	.st123{clip-path:url(#SVGID_00000086663173995187629190000005307445891798327461_);fill:#2B2961;}
	.st124{clip-path:url(#SVGID_00000007391024281867126410000008103140016645227653_);fill:#6796CF;}
	.st125{clip-path:url(#SVGID_00000007391024281867126410000008103140016645227653_);fill:#2B2961;}
	.st126{clip-path:url(#SVGID_00000049201336920682293290000011941962030622965182_);fill:#2B2961;}
	.st127{clip-path:url(#SVGID_00000049201336920682293290000011941962030622965182_);fill:#6796CF;}
	.st128{clip-path:url(#SVGID_00000181801392507377716120000005851558385045864326_);fill:#6796CF;}
	.st129{clip-path:url(#SVGID_00000152959821657895118390000018041215080144791208_);fill:#2B2961;}
	.st130{clip-path:url(#SVGID_00000108994700272437645800000005919826221486391938_);fill:#2B2961;}
	.st131{clip-path:url(#SVGID_00000021087573194572315830000010174139134689257656_);fill:#2B2961;}
	.st132{clip-path:url(#SVGID_00000056409070463803749540000009933319018673937802_);fill:#2B2961;}
	.st133{clip-path:url(#SVGID_00000044886525175921345520000000973256879194842506_);fill:#2B2961;}
	.st134{clip-path:url(#SVGID_00000044886525175921345520000000973256879194842506_);fill:#6796CF;}
	.st135{clip-path:url(#SVGID_00000106129174673267934890000010327709348321068986_);fill:#6796CF;}
	.st136{clip-path:url(#SVGID_00000002383284586626985870000017910182753383745726_);fill:#2B2961;}
	.st137{clip-path:url(#SVGID_00000092453402565358457350000014950545671506857615_);fill:#2B2961;}
	.st138{clip-path:url(#SVGID_00000176730462557062177600000013928659719597505975_);fill:#2B2961;}
	.st139{clip-path:url(#SVGID_00000183952431803217031640000016323985145762454438_);fill:#2B2961;}
	.st140{clip-path:url(#SVGID_00000163031544632494263850000015030039736871964348_);fill:#6796CF;}
	.st141{clip-path:url(#SVGID_00000163031544632494263850000015030039736871964348_);fill:#2B2961;}
	.st142{clip-path:url(#SVGID_00000160878495389367033170000003347240115316467642_);fill:#2B2961;}
	.st143{clip-path:url(#SVGID_00000010990499367353051600000006496553129582743993_);fill:#2B2961;}
	.st144{clip-path:url(#SVGID_00000168832624305065637250000015149859226470396558_);fill:#2B2961;}
	.st145{clip-path:url(#SVGID_00000168832624305065637250000015149859226470396558_);fill:#6796CF;}
	.st146{clip-path:url(#SVGID_00000013878856159884564420000001473560064859675825_);}
	.st147{clip-path:url(#SVGID_00000013878856159884564420000001473560064859675825_);fill:#FFFFFF;}
	.st148{clip-path:url(#SVGID_00000013878856159884564420000001473560064859675825_);fill:#2B2961;}
	.st149{clip-path:url(#SVGID_00000018212446748070055810000001238900531760570754_);fill:#2B2961;}
	.st150{clip-path:url(#SVGID_00000008837495943354185830000008529405392099579527_);fill:#2B2961;}
	.st151{clip-path:url(#SVGID_00000008837495943354185830000008529405392099579527_);fill:#FFFFFF;}
	.st152{clip-path:url(#SVGID_00000008837495943354185830000008529405392099579527_);fill:#6796CF;}
	.st153{clip-path:url(#SVGID_00000081642220963735879250000014921194052037502096_);fill:#2B2961;}
	.st154{clip-path:url(#SVGID_00000021088497464475627600000003113934905631707062_);fill:#2B2961;}
	.st155{clip-path:url(#SVGID_00000067943804809917452850000016675498202960268718_);fill:#6796CF;}
	.st156{clip-path:url(#SVGID_00000067943804809917452850000016675498202960268718_);}
	.st157{clip-path:url(#SVGID_00000047047425456039507420000016823456646657422221_);fill:#2B2961;}
	.st158{clip-path:url(#SVGID_00000067943804809917452850000016675498202960268718_);fill:#FFFFFF;}
	.st159{clip-path:url(#SVGID_00000067943804809917452850000016675498202960268718_);fill:#2B2961;}
	.st160{opacity:0.52;clip-path:url(#SVGID_00000177467788943498431480000009859124215995049367_);}
	.st161{clip-path:url(#SVGID_00000027576610581395579430000010388426870603181247_);fill:#6796CF;}
	.st162{clip-path:url(#SVGID_00000121271893866495667510000013350951785532754835_);fill:#2B2961;}
	.st163{clip-path:url(#SVGID_00000159448670980622092410000000101460896947241383_);fill:#2B2961;}
	.st164{clip-path:url(#SVGID_00000162351593253192992690000000050999280170719132_);fill:#6796CF;}
	.st165{clip-path:url(#SVGID_00000162351593253192992690000000050999280170719132_);fill:#2B2961;}
	.st166{clip-path:url(#SVGID_00000110456511769154035290000013138173014571152279_);fill:#2B2961;}
	.st167{clip-path:url(#SVGID_00000010284978513032043190000015766212321407273883_);fill:#2B2961;}
	.st168{clip-path:url(#SVGID_00000160183526739315113680000014449588114407279784_);fill:#2B2961;}
	.st169{clip-path:url(#SVGID_00000106830345974056077180000009783971992582023322_);fill:#FFFFFF;}
	.st170{clip-path:url(#SVGID_00000106830345974056077180000009783971992582023322_);fill:#2B2961;}
	.st171{clip-path:url(#SVGID_00000106830345974056077180000009783971992582023322_);fill:#6796CF;}
	.st172{clip-path:url(#SVGID_00000152231914205849498870000008689422643336532912_);fill:#6796CF;}
	.st173{clip-path:url(#SVGID_00000113334906453733205170000009143325112463972530_);fill:#2B2961;}
	.st174{clip-path:url(#SVGID_00000076588623532909864040000017355907640261350280_);fill:#2B2961;}
	.st175{clip-path:url(#SVGID_00000076588623532909864040000017355907640261350280_);fill:#FFFFFF;}
	.st176{clip-path:url(#SVGID_00000136386428950668375700000016091266536157797506_);fill:#6796CF;}
	.st177{clip-path:url(#SVGID_00000136386428950668375700000016091266536157797506_);fill:#2B2961;}
	.st178{clip-path:url(#SVGID_00000068655783859043342570000005648536226952906880_);fill:#6796CF;}
	.st179{clip-path:url(#SVGID_00000068655783859043342570000005648536226952906880_);fill:#2B2961;}
	.st180{clip-path:url(#SVGID_00000031899566185496682490000001164696872756574649_);fill:#2B2961;}
	.st181{clip-path:url(#SVGID_00000061436702377105873600000007481725794201372076_);fill:#2B2961;}
	.st182{clip-path:url(#SVGID_00000139259911776155008740000005518328466363960463_);fill:#FFFFFF;}
	.st183{clip-path:url(#SVGID_00000102509605742550284670000015476418935383654555_);fill:#2B2961;}
	.st184{clip-path:url(#SVGID_00000024699352519691576660000000733208398903223979_);fill:#2B2961;}
	.st185{clip-path:url(#SVGID_00000024699352519691576660000000733208398903223979_);fill:#6796CF;}
	.st186{clip-path:url(#SVGID_00000089552619883307709630000012964516967828548518_);fill:#2B2961;}
	.st187{clip-path:url(#SVGID_00000144325789458027857310000013753862381604308097_);fill:#2B2961;}
	.st188{clip-path:url(#SVGID_00000152223714711404684990000002679990907947846538_);fill:#6796CF;}
	.st189{clip-path:url(#SVGID_00000124854963810155533000000018006694524291069361_);fill:#2B2961;}
	.st190{clip-path:url(#SVGID_00000126324016872871089940000013505513909881448340_);fill:#6796CF;}
	.st191{clip-path:url(#SVGID_00000121983747857483564430000011532595350504400524_);fill:#2B2961;}
	.st192{clip-path:url(#SVGID_00000168804086829160891910000003247804094634413720_);fill:#6796CF;}
	.st193{clip-path:url(#SVGID_00000155852996383632529690000006283627851111424430_);fill:#2B2961;}
	.st194{clip-path:url(#SVGID_00000127009506741433929650000010758842612946128286_);}
	.st195{clip-path:url(#SVGID_00000127009506741433929650000010758842612946128286_);fill:#2B2961;}
	.st196{clip-path:url(#SVGID_00000127009506741433929650000010758842612946128286_);fill:#FFFFFF;}
	.st197{clip-path:url(#SVGID_00000114792335850417041870000008189412897650869170_);fill:#2B2961;}
	.st198{clip-path:url(#SVGID_00000152250530866980988110000011739597671152389306_);fill:#2B2961;}
	.st199{clip-path:url(#SVGID_00000127747886596390954640000005997629621958623919_);fill:#2B2961;}
	.st200{clip-path:url(#SVGID_00000106833378307802712660000001766333312429383856_);fill:#2B2961;}
	.st201{clip-path:url(#SVGID_00000040552256176139235820000014730184013341715629_);fill:#2B2961;}
	.st202{clip-path:url(#SVGID_00000066498335148227558660000015425227469634876318_);fill:#2B2961;}
	.st203{clip-path:url(#SVGID_00000096043378860361485790000007398368543721452679_);fill:#2B2961;}
	.st204{clip-path:url(#SVGID_00000057107373433652133770000006123007197630574247_);fill:#2B2961;}
	.st205{clip-path:url(#SVGID_00000008839480567259082170000005623320324024378303_);fill:#2B2961;}
	.st206{clip-path:url(#SVGID_00000034055370628908222970000002217953445226020504_);fill:#FFFFFF;}
	.st207{clip-path:url(#SVGID_00000034055370628908222970000002217953445226020504_);fill:#2B2961;}
	.st208{clip-path:url(#SVGID_00000124155026034777472450000013251295959599336870_);fill:#6796CF;}
	.st209{clip-path:url(#SVGID_00000124155026034777472450000013251295959599336870_);fill:#2B2961;}
	.st210{clip-path:url(#SVGID_00000169541055797012101890000003487747727780927634_);fill:#2B2961;}
	.st211{clip-path:url(#SVGID_00000169541055797012101890000003487747727780927634_);fill:#FFFFFF;}
	.st212{clip-path:url(#SVGID_00000123428223492953722460000001403804832231112867_);fill:#6796CF;}
	.st213{clip-path:url(#SVGID_00000123428223492953722460000001403804832231112867_);fill:#2B2961;}
	.st214{clip-path:url(#SVGID_00000163032811028140094240000016841263994063391889_);fill:#6796CF;}
	.st215{clip-path:url(#SVGID_00000163032811028140094240000016841263994063391889_);fill:#2B2961;}
	.st216{clip-path:url(#SVGID_00000127023312284354762610000001523228705270124457_);}
	.st217{clip-path:url(#SVGID_00000170243192473372701930000018214923832359363976_);}
	.st218{clip-path:url(#SVGID_00000039096312896190722820000008645640735390566314_);}
	.st219{clip-path:url(#SVGID_00000109719642573306164470000017244614356862285457_);}
	.st220{clip-path:url(#SVGID_00000076574182444496272410000002857833913925418628_);}
	.st221{clip-path:url(#SVGID_00000052820951662916317450000005815039586981012886_);}
	.st222{clip-path:url(#SVGID_00000157283148117347397920000015305639706319284102_);}
	.st223{clip-path:url(#SVGID_00000067228304152166224630000017934182338765403829_);}
	.st224{clip-path:url(#SVGID_00000066494697843865758840000010073163886109705632_);}
	.st225{clip-path:url(#SVGID_00000121274256815644079470000014877529987973198773_);}
	.st226{clip-path:url(#SVGID_00000040553091370300443020000009260176640240914092_);}
	.st227{clip-path:url(#SVGID_00000111153484027458226480000004254983036158057119_);}
	.st228{clip-path:url(#SVGID_00000018220533113243290130000016529959461075938483_);}
	.st229{clip-path:url(#SVGID_00000183232237014713804410000009656432660823724673_);}
	.st230{clip-path:url(#SVGID_00000152970036948916456230000016233899963159180418_);fill:#2B2961;}
	.st231{clip-path:url(#SVGID_00000152970036948916456230000016233899963159180418_);fill:#6796CF;}
	.st232{fill:#A2B9E1;}
	.st233{clip-path:url(#SVGID_00000010306871610979131470000004445844276932968851_);}
	.st234{clip-path:url(#SVGID_00000116931171149068473070000010670838801541330865_);}
</style>
<g>
	<polygon class="st2" points="30.75,57.73 1.63,57.73 1.63,0.33 41.27,0.33 41.27,42.54 	"/>
	<path class="st2" d="M30.82,57.85H1.51V0.21h39.88v42.37l-0.02,0.03L30.82,57.85z M1.75,57.61h28.94l10.46-15.1V0.45H1.75V57.61z"
		/>
	<path class="st8" d="M40.99,58.1H0.3c-0.17,0-0.3-0.13-0.3-0.3V0.3C0,0.13,0.13,0,0.3,0h40.69c0.17,0,0.3,0.13,0.3,0.3v57.5
		C41.29,57.97,41.15,58.1,40.99,58.1z M0.6,57.5h40.09V0.6H0.6V57.5z"/>
	<polygon class="st4" points="4.45,4.46 4.45,61.96 36.79,61.96 45.14,53.62 45.14,4.46 	"/>
	<g>
		<path class="st8" d="M36.79,62.26H4.46c-0.17,0-0.3-0.13-0.3-0.3V4.45c0-0.17,0.13-0.3,0.3-0.3h40.69c0.17,0,0.3,0.13,0.3,0.3
			v49.17c0,0.08-0.03,0.16-0.09,0.21L37,62.17C36.95,62.23,36.87,62.26,36.79,62.26z M4.75,61.66h31.91l8.17-8.16V4.75H4.75V61.66z"
			/>
	</g>
	<polygon class="st4" points="36.64,53.46 36.64,61.96 45.14,53.46 	"/>
	<g>
		<path class="st8" d="M36.64,62.24c-0.04,0-0.07-0.01-0.11-0.02c-0.1-0.04-0.17-0.14-0.17-0.26v-8.5c0-0.15,0.12-0.28,0.28-0.28
			h8.5c0.11,0,0.21,0.07,0.26,0.17c0.04,0.1,0.02,0.22-0.06,0.3l-8.5,8.5C36.79,62.21,36.71,62.24,36.64,62.24z M36.92,53.74v7.56
			l7.55-7.56H36.92z"/>
	</g>
	<polygon class="st2" points="37.25,53.74 37.25,61.4 45.02,53.74 	"/>
	<path class="st2" d="M37.13,61.68v-8.06h8.18L37.13,61.68z M37.37,53.86v7.25l7.36-7.25H37.37z"/>
	<path class="st8" d="M36.64,62.26c-0.04,0-0.08-0.01-0.12-0.02c-0.11-0.05-0.18-0.16-0.18-0.28v-8.5c0-0.17,0.13-0.3,0.3-0.3h8.5
		c0.12,0,0.23,0.07,0.28,0.19c0.05,0.11,0.02,0.24-0.07,0.33l-8.5,8.5C36.8,62.23,36.72,62.26,36.64,62.26z M36.94,53.76v7.48
		l7.47-7.48H36.94z"/>
	<rect x="10.65" y="15.24" class="st2" width="30.24" height="19.82"/>
	<polygon class="st2" points="40.89,15.24 37.1,15.24 29.22,20.4 29.22,15.24 22.29,15.24 22.29,20.61 13.96,15.24 10.65,15.24 
		10.65,17.92 16.62,21.79 10.65,21.79 10.65,28.66 16.57,28.66 10.65,32.55 10.65,35.06 14.57,35.06 22.29,29.99 22.29,35.06 
		29.22,35.06 29.22,29.9 37.2,35.06 40.89,35.06 40.89,32.58 34.82,28.66 40.89,28.66 40.89,21.79 34.85,21.79 40.89,17.83 	"/>
	<polygon class="st2" points="20.31,21.72 10.65,15.24 10.65,16.95 17.87,21.72 	"/>
	<polygon class="st2" points="31.23,28.73 40.89,35.06 40.89,33.47 33.68,28.73 	"/>
	<polygon class="st2" points="22.22,28.73 20.23,28.73 10.65,35.06 12.94,35.06 22.22,29.04 	"/>
	<polygon class="st2" points="29.29,21.72 31.14,21.72 40.89,15.4 40.89,15.24 38.69,15.24 29.29,21.32 	"/>
	<polygon class="st2" points="40.89,23.25 27.74,23.25 27.74,15.24 23.77,15.24 23.77,23.25 10.65,23.25 10.65,27.2 23.77,27.2 
		23.77,35.06 27.74,35.06 27.74,27.2 40.89,27.2 	"/>
	<polygon class="st4" points="40.25,14.66 36.48,14.66 28.61,19.81 28.61,14.66 21.69,14.66 21.69,20.02 13.38,14.66 10.07,14.66 
		10.07,17.34 16.03,21.19 10.07,21.19 10.07,28.04 15.98,28.04 10.07,31.93 10.07,34.43 13.98,34.43 21.69,29.37 21.69,34.43 
		28.61,34.43 28.61,29.28 36.57,34.43 40.25,34.43 40.25,31.95 34.19,28.04 40.25,28.04 40.25,21.19 34.22,21.19 40.25,17.24 	"/>
	<path class="st8" d="M40.25,34.63h-3.68c-0.04,0-0.08-0.01-0.11-0.03l-7.65-4.95v4.78c0,0.11-0.09,0.2-0.2,0.2h-6.92
		c-0.11,0-0.2-0.09-0.2-0.2v-4.69l-7.4,4.85c-0.03,0.02-0.07,0.03-0.11,0.03h-3.91c-0.11,0-0.2-0.09-0.2-0.2v-2.5
		c0-0.07,0.03-0.13,0.09-0.17l5.35-3.52h-5.24c-0.11,0-0.2-0.09-0.2-0.2v-6.85c0-0.11,0.09-0.2,0.2-0.2h5.28L9.96,17.5
		c-0.06-0.04-0.09-0.1-0.09-0.17v-2.67c0-0.11,0.09-0.2,0.2-0.2h3.31c0.04,0,0.08,0.01,0.11,0.03l8,5.15v-4.99
		c0-0.11,0.09-0.2,0.2-0.2h6.92c0.11,0,0.2,0.09,0.2,0.2v4.77l7.55-4.94c0.03-0.02,0.07-0.03,0.11-0.03h3.78
		c0.11,0,0.2,0.09,0.2,0.2v2.58c0,0.07-0.03,0.13-0.09,0.17l-5.47,3.58h5.36c0.11,0,0.2,0.09,0.2,0.2v6.85c0,0.11-0.09,0.2-0.2,0.2
		h-5.38l5.49,3.54c0.06,0.04,0.09,0.1,0.09,0.17v2.47C40.45,34.54,40.36,34.63,40.25,34.63z M36.63,34.23h3.42v-2.16l-5.96-3.85
		c-0.07-0.05-0.11-0.14-0.08-0.22c0.02-0.08,0.1-0.14,0.19-0.14h5.86v-6.45h-5.83c-0.09,0-0.17-0.06-0.19-0.14
		c-0.03-0.08,0.01-0.18,0.08-0.22l5.94-3.89v-2.27h-3.52l-7.81,5.11c-0.06,0.04-0.14,0.04-0.2,0.01c-0.07-0.03-0.11-0.1-0.11-0.18
		v-4.94h-6.52v5.15c0,0.07-0.04,0.14-0.1,0.18c-0.06,0.04-0.14,0.03-0.2-0.01l-8.26-5.32h-3.05v2.36l5.87,3.8
		c0.07,0.05,0.11,0.14,0.08,0.22c-0.02,0.08-0.1,0.14-0.19,0.14h-5.76v6.45h5.71c0.09,0,0.17,0.06,0.19,0.14
		c0.03,0.08-0.01,0.18-0.08,0.22l-5.82,3.83v2.19h3.65l7.66-5.02c0.06-0.04,0.14-0.04,0.2-0.01c0.07,0.03,0.11,0.1,0.11,0.18v4.86
		h6.52v-4.95c0-0.07,0.04-0.14,0.1-0.18c0.07-0.03,0.14-0.03,0.2,0.01L36.63,34.23z"/>
	<polygon class="st2" points="40.89,22.36 27.74,22.36 27.74,14.35 23.78,14.35 23.78,22.36 10.65,22.36 10.65,26.31 23.78,26.31 
		23.78,34.17 27.74,34.17 27.74,26.31 40.89,26.31 	"/>
	<polygon class="st2" points="29.29,21.12 31.14,21.12 40.89,14.79 40.89,14.64 38.69,14.64 29.29,20.72 	"/>
	<polygon class="st2" points="20.31,21.12 10.65,14.64 10.65,16.35 17.87,21.12 	"/>
	<polygon class="st2" points="22.22,28.12 20.23,28.12 10.65,34.46 12.94,34.46 22.22,28.43 	"/>
	<polygon class="st2" points="31.23,28.12 40.89,34.46 40.89,32.87 33.68,28.12 	"/>
	<path class="st8" d="M40.25,34.73H10.07c-0.17,0-0.3-0.13-0.3-0.3V14.66c0-0.17,0.13-0.3,0.3-0.3h30.18c0.17,0,0.3,0.13,0.3,0.3
		v19.76C40.55,34.59,40.42,34.73,40.25,34.73z M10.37,34.13h29.58V14.96H10.37V34.13z"/>
	<path class="st8" d="M19.68,21.29h-2.43c-0.04,0-0.08-0.01-0.11-0.03l-7.18-4.73c-0.06-0.04-0.09-0.1-0.09-0.17v-1.69
		c0-0.07,0.04-0.14,0.11-0.18c0.07-0.04,0.15-0.03,0.21,0.01l9.61,6.42c0.07,0.05,0.11,0.14,0.08,0.22S19.77,21.29,19.68,21.29z
		 M17.31,20.89h1.71l-8.75-5.85v1.21L17.31,20.89z"/>
	<path class="st8" d="M40.25,34.63c-0.04,0-0.08-0.01-0.11-0.03l-9.59-6.28c-0.07-0.05-0.11-0.14-0.08-0.22s0.1-0.14,0.19-0.14h2.43
		c0.04,0,0.08,0.01,0.11,0.03l7.16,4.7c0.06,0.04,0.09,0.1,0.09,0.17v1.58c0,0.07-0.04,0.14-0.11,0.18
		C40.32,34.62,40.28,34.63,40.25,34.63z M31.33,28.35l8.72,5.71v-1.1l-7.02-4.61H31.33z"/>
	<path class="st8" d="M12.35,34.63h-2.28c-0.09,0-0.17-0.06-0.19-0.14c-0.03-0.08,0.01-0.18,0.08-0.22l9.54-6.28
		c0.03-0.02,0.07-0.03,0.11-0.03h1.98c0.11,0,0.2,0.09,0.2,0.2v0.31c0,0.07-0.03,0.13-0.09,0.17l-9.24,5.97
		C12.43,34.62,12.39,34.63,12.35,34.63z M10.74,34.23h1.56l9.09-5.88h-1.72L10.74,34.23z"/>
	<path class="st8" d="M30.56,21.29h-1.84c-0.11,0-0.2-0.09-0.2-0.2v-0.4c0-0.07,0.04-0.13,0.09-0.17l9.36-6.03
		c0.03-0.02,0.07-0.03,0.11-0.03h2.18c0.11,0,0.2,0.09,0.2,0.2v0.16c0,0.07-0.03,0.13-0.09,0.17l-9.7,6.27
		C30.63,21.28,30.59,21.29,30.56,21.29z M28.91,20.89h1.59l9.32-6.02h-1.69l-9.22,5.93V20.89z"/>
	<path class="st8" d="M27.13,34.63h-3.96c-0.11,0-0.2-0.09-0.2-0.2v-7.64h-12.9c-0.11,0-0.2-0.09-0.2-0.2v-3.94
		c0-0.11,0.09-0.2,0.2-0.2h12.9v-7.78c0-0.11,0.09-0.2,0.2-0.2h3.96c0.11,0,0.2,0.09,0.2,0.2v7.78h12.92c0.11,0,0.2,0.09,0.2,0.2
		v3.94c0,0.11-0.09,0.2-0.2,0.2H27.33v7.64C27.33,34.54,27.24,34.63,27.13,34.63z M23.37,34.23h3.56v-7.64c0-0.11,0.09-0.2,0.2-0.2
		h12.92v-3.54H27.13c-0.11,0-0.2-0.09-0.2-0.2v-7.78h-3.56v7.78c0,0.11-0.09,0.2-0.2,0.2h-12.9v3.54h12.9c0.11,0,0.2,0.09,0.2,0.2
		V34.23z"/>
	<path class="st8" d="M10.07,48.67c-0.17,0-0.3-0.13-0.3-0.3V33.92c0-0.17,0.13-0.3,0.3-0.3s0.3,0.13,0.3,0.3v14.45
		C10.37,48.54,10.24,48.67,10.07,48.67z"/>
</g>
</svg>
