<?xml version="1.0" encoding="utf-8"?>
<!-- Generator: Adobe Illustrator 26.0.2, SVG Export Plug-In . SVG Version: 6.00 Build 0)  -->
<svg version="1.1" id="Ebene_1" xmlns="http://www.w3.org/2000/svg" xmlns:xlink="http://www.w3.org/1999/xlink" x="0px" y="0px"
	 viewBox="0 0 74.29 79.78" style="enable-background:new 0 0 74.29 79.78;" xml:space="preserve">
<style type="text/css">
	.st0{fill:#2B2961;}
	.st1{fill:#6796CF;}
	.st2{fill:#FFFFFF;}
</style>
<g>
	<path class="st0" d="M63.42,69.17c-0.11,0-0.2-0.09-0.2-0.2v-7.86c0-0.11,0.09-0.2,0.2-0.2s0.2,0.09,0.2,0.2v7.86
		C63.62,69.08,63.53,69.17,63.42,69.17z"/>
	<path class="st0" d="M37.4,69.17c-0.11,0-0.2-0.09-0.2-0.2v-7.86c0-0.11,0.09-0.2,0.2-0.2s0.2,0.09,0.2,0.2v7.86
		C37.6,69.08,37.51,69.17,37.4,69.17z"/>
	<path class="st0" d="M10.86,69.17c-0.11,0-0.2-0.09-0.2-0.2v-7.86c0-0.11,0.09-0.2,0.2-0.2s0.2,0.09,0.2,0.2v7.86
		C11.06,69.08,10.97,69.17,10.86,69.17z"/>
	<rect x="54.48" y="58.79" class="st1" width="18.96" height="10.24"/>
	<path class="st1" d="M73.44,69.16H54.48c-0.07,0-0.12-0.06-0.12-0.12V58.79c0-0.07,0.06-0.12,0.12-0.12h18.96
		c0.07,0,0.12,0.06,0.12,0.12v10.24C73.56,69.1,73.51,69.16,73.44,69.16z M54.6,68.91h18.71v-9.99H54.6V68.91z"/>
	<rect x="27.38" y="58.79" class="st1" width="18.96" height="10.24"/>
	<path class="st1" d="M46.34,69.16H27.38c-0.07,0-0.12-0.06-0.12-0.12V58.79c0-0.07,0.06-0.12,0.12-0.12h18.96
		c0.07,0,0.12,0.06,0.12,0.12v10.24C46.47,69.1,46.41,69.16,46.34,69.16z M27.51,68.91h18.71v-9.99H27.51V68.91z"/>
	<rect x="0.86" y="58.79" class="st1" width="18.96" height="10.24"/>
	<path class="st1" d="M19.82,69.16H0.86c-0.07,0-0.12-0.06-0.12-0.12V58.79c0-0.07,0.06-0.12,0.12-0.12h18.96
		c0.07,0,0.12,0.06,0.12,0.12v10.24C19.94,69.1,19.89,69.16,19.82,69.16z M0.98,68.91h18.71v-9.99H0.98V68.91z"/>
	<g>
		<g>
			<path class="st1" d="M68.44,23.68c-0.55-1.95-2.25-3.37-4.25-3.37s-3.69,1.42-4.25,3.37H68.44z"/>
		</g>
		<g>
			<path class="st1" d="M68.44,23.81h-8.49c-0.04,0-0.08-0.02-0.1-0.05s-0.03-0.07-0.02-0.11c0.59-2.07,2.34-3.46,4.37-3.46
				s3.78,1.39,4.37,3.46c0.01,0.04,0,0.08-0.02,0.11S68.48,23.81,68.44,23.81z M60.12,23.56h8.16c-0.6-1.87-2.22-3.12-4.08-3.12
				C62.34,20.44,60.72,21.69,60.12,23.56z"/>
		</g>
		<g>
			<path class="st1" d="M32.38,23.68c0.55-1.95,2.24-3.37,4.25-3.37c2,0,3.69,1.42,4.25,3.37H32.38z"/>
		</g>
		<g>
			<path class="st1" d="M40.87,23.81h-8.49c-0.04,0-0.08-0.02-0.1-0.05s-0.03-0.07-0.02-0.11c0.59-2.07,2.34-3.46,4.37-3.46
				c2.02,0,3.78,1.39,4.37,3.46c0.01,0.04,0,0.08-0.02,0.11S40.91,23.81,40.87,23.81z M32.55,23.56h8.16
				c-0.6-1.87-2.22-3.12-4.08-3.12S33.15,21.69,32.55,23.56z"/>
		</g>
		<g>
			<path class="st1" d="M5.85,23.68c0.55-1.95,2.24-3.37,4.25-3.37c2,0,3.69,1.42,4.25,3.37H5.85z"/>
		</g>
		<g>
			<path class="st1" d="M14.35,23.81h-8.5c-0.04,0-0.08-0.02-0.1-0.05s-0.03-0.07-0.02-0.11c0.59-2.07,2.34-3.46,4.37-3.46
				c2.02,0,3.78,1.39,4.37,3.46c0.01,0.04,0,0.08-0.02,0.11S14.38,23.81,14.35,23.81z M6.02,23.56h8.16
				c-0.6-1.87-2.22-3.12-4.08-3.12S6.62,21.69,6.02,23.56z"/>
		</g>
	</g>
	<rect x="53.66" y="58.18" class="st0" width="20.45" height="0.4"/>
	<rect x="26.72" y="58.18" class="st0" width="20.44" height="0.4"/>
	<g>
		<g>
			<rect x="0.19" y="58.18" class="st0" width="20.44" height="0.4"/>
		</g>
		<g>
			<path class="st0" d="M63.6,30.74c-3.07,0-5.57-2.5-5.57-5.57s2.5-5.57,5.57-5.57s5.57,2.5,5.57,5.57S66.67,30.74,63.6,30.74z
				 M63.6,20.21c-2.74,0-4.97,2.23-4.97,4.97s2.23,4.97,4.97,4.97c2.74,0,4.97-2.23,4.97-4.97S66.34,20.21,63.6,20.21z"/>
		</g>
		<g>
			<path class="st0" d="M37.22,30.74c-3.07,0-5.57-2.5-5.57-5.57s2.5-5.57,5.57-5.57s5.57,2.5,5.57,5.57S40.29,30.74,37.22,30.74z
				 M37.22,20.21c-2.74,0-4.97,2.23-4.97,4.97s2.23,4.97,4.97,4.97s4.97-2.23,4.97-4.97S39.96,20.21,37.22,20.21z"/>
		</g>
		<g>
			<path class="st0" d="M10.69,30.74c-3.07,0-5.57-2.5-5.57-5.57s2.5-5.57,5.57-5.57s5.57,2.5,5.57,5.57S13.76,30.74,10.69,30.74z
				 M10.69,20.21c-2.74,0-4.97,2.23-4.97,4.97s2.23,4.97,4.97,4.97s4.97-2.23,4.97-4.97S13.43,20.21,10.69,20.21z"/>
		</g>
	</g>
	<rect x="58.47" y="23.32" class="st0" width="10.26" height="0.4"/>
	<rect x="32.09" y="23.32" class="st0" width="10.26" height="0.4"/>
	<rect x="5.56" y="23.32" class="st0" width="10.26" height="0.4"/>
	<g>
		<g>
			<path class="st0" d="M61.1,25.7c0,0.15-0.12,0.27-0.27,0.27s-0.27-0.12-0.27-0.27s0.12-0.27,0.27-0.27S61.1,25.55,61.1,25.7"/>
		</g>
		<g>
			<path class="st0" d="M39.72,25.7c0,0.15,0.12,0.27,0.27,0.27s0.27-0.12,0.27-0.27s-0.12-0.27-0.27-0.27S39.72,25.55,39.72,25.7"
				/>
		</g>
		<g>
			<path class="st0" d="M13.19,25.7c0,0.15,0.12,0.27,0.27,0.27s0.27-0.12,0.27-0.27s-0.12-0.27-0.27-0.27S13.19,25.55,13.19,25.7"
				/>
		</g>
		<g>
			<path class="st0" d="M64.73,25.7c0,0.15-0.12,0.27-0.27,0.27c-0.15,0-0.27-0.12-0.27-0.27s0.12-0.27,0.27-0.27
				S64.73,25.55,64.73,25.7"/>
		</g>
		<g>
			<path class="st0" d="M36.09,25.7c0,0.15,0.12,0.27,0.27,0.27s0.27-0.12,0.27-0.27s-0.12-0.27-0.27-0.27S36.09,25.55,36.09,25.7"
				/>
		</g>
		<g>
			<path class="st0" d="M9.56,25.7c0,0.15,0.12,0.27,0.27,0.27s0.27-0.12,0.27-0.27s-0.12-0.27-0.27-0.27S9.56,25.55,9.56,25.7"/>
		</g>
		<g>
			<path class="st0" d="M69.1,79.78c-0.17,0-0.3-0.13-0.3-0.3V69.27c0-0.17,0.13-0.3,0.3-0.3s0.3,0.13,0.3,0.3v10.21
				C69.4,79.65,69.27,79.78,69.1,79.78z M58,79.78c-0.17,0-0.3-0.13-0.3-0.3V69.27c0-0.17,0.13-0.3,0.3-0.3s0.3,0.13,0.3,0.3v10.21
				C58.3,79.65,58.17,79.78,58,79.78z M68.83,52.86c-0.17,0-0.3-0.13-0.3-0.3V42.35c0-0.17,0.13-0.3,0.3-0.3s0.3,0.13,0.3,0.3v10.21
				C69.13,52.73,69,52.86,68.83,52.86z M58.34,52.86c-0.17,0-0.3-0.13-0.3-0.3V42.35c0-0.17,0.13-0.3,0.3-0.3s0.3,0.13,0.3,0.3
				v10.21C58.64,52.73,58.51,52.86,58.34,52.86z"/>
		</g>
		<g>
			<path class="st0" d="M42.82,79.78c-0.17,0-0.3-0.13-0.3-0.3V69.27c0-0.17,0.13-0.3,0.3-0.3s0.3,0.13,0.3,0.3v10.21
				C43.12,79.65,42.99,79.78,42.82,79.78z M31.72,79.78c-0.17,0-0.3-0.13-0.3-0.3V69.27c0-0.17,0.13-0.3,0.3-0.3s0.3,0.13,0.3,0.3
				v10.21C32.02,79.65,31.88,79.78,31.72,79.78z M42.48,52.86c-0.17,0-0.3-0.13-0.3-0.3V42.35c0-0.17,0.13-0.3,0.3-0.3
				s0.3,0.13,0.3,0.3v10.21C42.78,52.73,42.64,52.86,42.48,52.86z M31.99,52.86c-0.17,0-0.3-0.13-0.3-0.3V42.35
				c0-0.17,0.13-0.3,0.3-0.3s0.3,0.13,0.3,0.3v10.21C32.29,52.73,32.15,52.86,31.99,52.86z"/>
		</g>
		<g>
			<path class="st0" d="M16.29,79.78c-0.17,0-0.3-0.13-0.3-0.3V69.27c0-0.17,0.13-0.3,0.3-0.3s0.3,0.13,0.3,0.3v10.21
				C16.59,79.65,16.46,79.78,16.29,79.78z M5.19,79.78c-0.17,0-0.3-0.13-0.3-0.3V69.27c0-0.17,0.13-0.3,0.3-0.3s0.3,0.13,0.3,0.3
				v10.21C5.49,79.65,5.36,79.78,5.19,79.78z M15.95,52.86c-0.17,0-0.3-0.13-0.3-0.3V42.35c0-0.17,0.13-0.3,0.3-0.3
				c0.17,0,0.3,0.13,0.3,0.3v10.21C16.25,52.73,16.12,52.86,15.95,52.86z M5.46,52.86c-0.17,0-0.3-0.13-0.3-0.3V42.35
				c0-0.17,0.13-0.3,0.3-0.3s0.3,0.13,0.3,0.3v10.21C5.76,52.73,5.63,52.86,5.46,52.86z"/>
		</g>
		<g>
			<path class="st0" d="M73.92,69.31H53.18c-0.17,0-0.3-0.13-0.3-0.3V44.29c0-6.03,4.89-11.13,10.67-11.13
				c5.82,0,10.74,5.1,10.74,11.13l0,0l-0.07,24.72C74.22,69.18,74.09,69.31,73.92,69.31z M53.48,68.71h20.14l0.07-24.42
				c0-5.71-4.64-10.53-10.14-10.53c-5.46,0-10.07,4.82-10.07,10.53C53.48,44.29,53.48,68.71,53.48,68.71z"/>
		</g>
		<g>
			<path class="st0" d="M47.64,69.31H26.9c-0.17,0-0.3-0.13-0.3-0.3l-0.07-24.72l0,0c0-6.03,4.92-11.13,10.74-11.13
				c5.78,0,10.67,5.1,10.67,11.13v24.72C47.94,69.18,47.81,69.31,47.64,69.31z M27.2,68.71h20.14V44.29
				c0-5.71-4.61-10.53-10.07-10.53c-5.5,0-10.14,4.82-10.14,10.53L27.2,68.71z"/>
		</g>
		<g>
			<path class="st0" d="M21.11,69.31H0.37c-0.17,0-0.3-0.13-0.3-0.3L0,44.29l0,0c0-6.03,4.92-11.13,10.74-11.13
				c5.78,0,10.67,5.1,10.67,11.13v24.72C21.41,69.18,21.28,69.31,21.11,69.31z M0.67,68.71h20.14V44.29
				c0-5.71-4.61-10.53-10.07-10.53c-5.5,0-10.14,4.82-10.14,10.53L0.67,68.71z"/>
		</g>
		<g>
			<path class="st2" d="M15.56,5.36c0-2.85-2.3-5.16-5.13-5.16S5.3,2.51,5.3,5.36c0,0.1,0,0.19,0.01,0.29
				c0.06,1,0.38,1.93,0.92,2.69c0.02,0.02,0.08,0.12,0.1,0.14l1.48,2.59l5.26,0.01l1.61-2.84c0,0,0-0.01,0.01-0.01l0.32-0.6
				C15.35,6.95,15.56,6.19,15.56,5.36"/>
		</g>
		<g>
			<path class="st0" d="M13.07,11.29L13.07,11.29l-5.26-0.01c-0.07,0-0.14-0.04-0.17-0.1L6.16,8.59l0,0c0,0-0.04-0.05-0.06-0.09
				C5.5,7.65,5.17,6.68,5.11,5.66C5.1,5.56,5.1,5.46,5.1,5.36C5.1,2.41,7.49,0,10.43,0s5.33,2.41,5.33,5.36
				c0,0.81-0.19,1.6-0.57,2.37l-0.32,0.6c0,0.01-0.01,0.02-0.02,0.03l-1.6,2.83C13.21,11.25,13.14,11.29,13.07,11.29z M7.93,10.88
				l5.03,0.01l1.55-2.74c0-0.01,0.01-0.01,0.01-0.02l0.31-0.58c0.35-0.71,0.53-1.44,0.53-2.19c0-2.74-2.21-4.96-4.93-4.96
				S5.5,2.63,5.5,5.36c0,0.09,0,0.19,0.01,0.28C5.56,6.58,5.87,7.48,6.4,8.23l0.03,0.05c0.02,0.03,0.05,0.07,0.06,0.09L7.93,10.88z"
				/>
		</g>
		<g>
			<path class="st2" d="M42.53,5.36c0-2.85-2.3-5.16-5.13-5.16s-5.13,2.31-5.13,5.16c0,0.1,0,0.19,0.01,0.29
				c0.06,1,0.38,1.93,0.92,2.69c0.02,0.02,0.08,0.12,0.1,0.14l1.48,2.59l5.26,0.01l1.61-2.84c0,0,0-0.01,0.01-0.01l0.32-0.6
				C42.32,6.95,42.53,6.19,42.53,5.36"/>
		</g>
		<g>
			<path class="st0" d="M40.04,11.29L40.04,11.29l-5.26-0.01c-0.07,0-0.14-0.04-0.17-0.1l-1.48-2.59l0,0c0,0-0.02-0.03-0.04-0.07
				l-0.04-0.06c-0.57-0.81-0.91-1.78-0.96-2.8c-0.01-0.1-0.01-0.2-0.01-0.3C32.08,2.41,34.47,0,37.4,0s5.33,2.41,5.33,5.36
				c0,0.81-0.19,1.6-0.57,2.37l-0.32,0.6c0,0.01-0.01,0.01-0.01,0.02l-1.61,2.84C40.18,11.25,40.12,11.29,40.04,11.29z M34.9,10.88
				l5.03,0.01l1.55-2.74c0,0,0-0.01,0.01-0.01l0.32-0.59c0.35-0.71,0.53-1.44,0.53-2.19c0-2.74-2.21-4.96-4.93-4.96
				s-4.93,2.23-4.93,4.96c0,0.09,0,0.19,0.01,0.28c0.05,0.94,0.36,1.84,0.89,2.59l0.09,0.14L34.9,10.88z"/>
		</g>
		<g>
			<path class="st2" d="M68.53,5.36c0-2.85-2.3-5.16-5.13-5.16s-5.13,2.31-5.13,5.16c0,0.1,0,0.19,0.01,0.29
				c0.06,1,0.38,1.93,0.92,2.69c0.02,0.02,0.08,0.12,0.1,0.14l1.48,2.59l5.26,0.01l1.61-2.84c0,0,0-0.01,0.01-0.01l0.32-0.6
				C68.32,6.95,68.53,6.19,68.53,5.36"/>
		</g>
		<g>
			<path class="st0" d="M66.05,11.29L66.05,11.29l-5.26-0.01c-0.07,0-0.14-0.04-0.17-0.1l-1.48-2.59c0,0,0,0-0.05-0.07l-0.03-0.05
				c-0.57-0.81-0.91-1.78-0.96-2.8c-0.01-0.1-0.01-0.2-0.01-0.3c0-2.96,2.39-5.36,5.33-5.36c2.94,0,5.33,2.41,5.33,5.36
				c0,0.81-0.19,1.6-0.57,2.37l-0.32,0.6c0,0.01-0.01,0.01-0.01,0.02l-1.61,2.84C66.18,11.25,66.12,11.29,66.05,11.29z M60.9,10.88
				l5.03,0.01l1.55-2.74c0,0,0-0.01,0.01-0.01l0.32-0.59c0.35-0.71,0.53-1.44,0.53-2.19c0-2.74-2.21-4.96-4.93-4.96
				s-4.93,2.23-4.93,4.96c0,0.09,0,0.19,0.01,0.28c0.05,0.94,0.36,1.84,0.89,2.59l0.04,0.06c0.02,0.03,0.04,0.06,0.05,0.07
				L60.9,10.88z"/>
		</g>
		<g>
			<path class="st2" d="M13.68,11.71c0-0.3-0.28-0.55-0.62-0.55H7.81c-0.35,0-0.62,0.25-0.62,0.55s0.28,0.55,0.62,0.55l0,0h3.3h1.95
				C13.4,12.26,13.68,12.01,13.68,11.71"/>
		</g>
		<g>
			<path class="st0" d="M11.1,12.46H7.8c-0.46,0-0.83-0.34-0.83-0.75s0.37-0.75,0.83-0.75h5.25c0.46,0,0.83,0.34,0.83,0.75
				s-0.37,0.75-0.83,0.75H11.1z M7.81,11.36c-0.23,0-0.42,0.16-0.42,0.35s0.19,0.35,0.42,0.35h3.3h1.95c0.23,0,0.42-0.16,0.42-0.35
				s-0.19-0.35-0.42-0.35H7.81z"/>
		</g>
		<g>
			<path class="st2" d="M40.65,11.71c0-0.3-0.28-0.55-0.62-0.55h-5.25c-0.34,0-0.62,0.25-0.62,0.55s0.28,0.55,0.62,0.55l0,0h3.3
				h1.95C40.37,12.26,40.65,12.01,40.65,11.71"/>
		</g>
		<g>
			<path class="st0" d="M38.08,12.46h-3.3c-0.46,0-0.83-0.34-0.83-0.75s0.37-0.75,0.83-0.75h5.25c0.46,0,0.83,0.34,0.83,0.75
				s-0.37,0.75-0.83,0.75H38.08z M34.78,11.36c-0.23,0-0.42,0.16-0.42,0.35s0.19,0.35,0.42,0.35h3.3h1.95
				c0.23,0,0.42-0.16,0.42-0.35s-0.19-0.35-0.42-0.35H34.78z"/>
		</g>
		<g>
			<path class="st2" d="M66.66,11.71c0-0.3-0.28-0.55-0.62-0.55h-5.25c-0.34,0-0.62,0.25-0.62,0.55s0.28,0.55,0.62,0.55l0,0h3.3
				h1.95C66.38,12.26,66.66,12.01,66.66,11.71"/>
		</g>
		<g>
			<path class="st0" d="M64.08,12.46h-3.3c-0.46,0-0.83-0.34-0.83-0.75s0.37-0.75,0.83-0.75h5.25c0.46,0,0.83,0.34,0.83,0.75
				s-0.37,0.75-0.83,0.75H64.08z M60.78,11.36c-0.23,0-0.42,0.16-0.42,0.35s0.19,0.35,0.42,0.35h3.3h1.95
				c0.23,0,0.42-0.16,0.42-0.35s-0.19-0.35-0.42-0.35H60.78z"/>
		</g>
		<g>
			<path class="st2" d="M13.68,13.08c0-0.3-0.28-0.55-0.62-0.55H7.81c-0.35,0-0.62,0.25-0.62,0.55s0.28,0.55,0.62,0.55l0,0h3.3h1.95
				C13.4,13.63,13.68,13.39,13.68,13.08"/>
		</g>
		<g>
			<path class="st0" d="M11.1,13.83H7.8c-0.46,0-0.83-0.34-0.83-0.75s0.37-0.75,0.83-0.75h5.25c0.46,0,0.83,0.34,0.83,0.75
				s-0.37,0.75-0.83,0.75H11.1z M7.81,12.73c-0.23,0-0.42,0.16-0.42,0.35s0.19,0.35,0.42,0.35h3.3h1.95c0.23,0,0.42-0.16,0.42-0.35
				s-0.19-0.35-0.42-0.35H7.81z"/>
		</g>
		<g>
			<path class="st2" d="M40.65,13.08c0-0.3-0.28-0.55-0.62-0.55h-5.25c-0.34,0-0.62,0.25-0.62,0.55s0.28,0.55,0.62,0.55l0,0h3.3
				h1.95C40.37,13.63,40.65,13.39,40.65,13.08"/>
		</g>
		<g>
			<path class="st0" d="M38.08,13.83h-3.3c-0.46,0-0.83-0.34-0.83-0.75s0.37-0.75,0.83-0.75h5.25c0.46,0,0.83,0.34,0.83,0.75
				s-0.37,0.75-0.83,0.75H38.08z M34.78,12.73c-0.23,0-0.42,0.16-0.42,0.35s0.19,0.35,0.42,0.35h3.3h1.95
				c0.23,0,0.42-0.16,0.42-0.35s-0.19-0.35-0.42-0.35H34.78z"/>
		</g>
		<g>
			<path class="st2" d="M66.66,13.08c0-0.3-0.28-0.55-0.62-0.55h-5.25c-0.34,0-0.62,0.25-0.62,0.55s0.28,0.55,0.62,0.55l0,0h3.3
				h1.95C66.38,13.63,66.66,13.39,66.66,13.08"/>
		</g>
		<g>
			<path class="st0" d="M64.08,13.83h-3.3c-0.46,0-0.83-0.34-0.83-0.75s0.37-0.75,0.83-0.75h5.25c0.46,0,0.83,0.34,0.83,0.75
				s-0.37,0.75-0.83,0.75H64.08z M60.78,12.73c-0.23,0-0.42,0.16-0.42,0.35s0.19,0.35,0.42,0.35h3.3h1.95
				c0.23,0,0.42-0.16,0.42-0.35s-0.19-0.35-0.42-0.35H60.78z"/>
		</g>
		<g>
			<path class="st2" d="M13.68,14.37c0-0.3-0.28-0.55-0.62-0.55H7.81c-0.35,0-0.62,0.25-0.62,0.55s0.28,0.55,0.62,0.55l0,0h3.3h1.95
				C13.4,14.92,13.68,14.67,13.68,14.37"/>
		</g>
		<g>
			<path class="st0" d="M11.1,15.12H7.8c-0.46,0-0.83-0.34-0.83-0.75s0.37-0.75,0.83-0.75h5.25c0.46,0,0.83,0.34,0.83,0.75
				s-0.37,0.75-0.83,0.75H11.1z M7.81,14.02c-0.23,0-0.42,0.16-0.42,0.35s0.19,0.35,0.42,0.35h3.3h1.95c0.23,0,0.42-0.16,0.42-0.35
				s-0.19-0.35-0.42-0.35H7.81z"/>
		</g>
		<g>
			<path class="st2" d="M40.65,14.37c0-0.3-0.28-0.55-0.62-0.55h-5.25c-0.34,0-0.62,0.25-0.62,0.55s0.28,0.55,0.62,0.55l0,0h3.3
				h1.95C40.37,14.92,40.65,14.67,40.65,14.37"/>
		</g>
		<g>
			<path class="st0" d="M38.08,15.12h-3.3c-0.46,0-0.83-0.34-0.83-0.75s0.37-0.75,0.83-0.75h5.25c0.46,0,0.83,0.34,0.83,0.75
				s-0.37,0.75-0.83,0.75H38.08z M34.78,14.02c-0.23,0-0.42,0.16-0.42,0.35s0.19,0.35,0.42,0.35h3.3h1.95
				c0.23,0,0.42-0.16,0.42-0.35s-0.19-0.35-0.42-0.35H34.78z"/>
		</g>
		<g>
			<path class="st2" d="M66.66,14.37c0-0.3-0.28-0.55-0.62-0.55h-5.25c-0.34,0-0.62,0.25-0.62,0.55s0.28,0.55,0.62,0.55l0,0h3.3
				h1.95C66.38,14.92,66.66,14.67,66.66,14.37"/>
		</g>
		<g>
			<path class="st0" d="M64.08,15.12h-3.3c-0.46,0-0.83-0.34-0.83-0.75s0.37-0.75,0.83-0.75h5.25c0.46,0,0.83,0.34,0.83,0.75
				s-0.37,0.75-0.83,0.75H64.08z M60.78,14.02c-0.23,0-0.42,0.16-0.42,0.35s0.19,0.35,0.42,0.35h3.3h1.95
				c0.23,0,0.42-0.16,0.42-0.35s-0.19-0.35-0.42-0.35H60.78z"/>
		</g>
		<g>
			<path class="st2" d="M8.08,15.08c0.13,1.19,1.12,2.1,2.35,2.1c1.22,0,2.22-0.91,2.35-2.1H8.08z"/>
		</g>
		<g>
			<path class="st0" d="M10.43,17.37c-1.31,0-2.4-0.98-2.55-2.28c-0.01-0.06,0.01-0.11,0.05-0.16c0.04-0.04,0.09-0.07,0.15-0.07
				h4.69c0.06,0,0.11,0.02,0.15,0.07c0.04,0.04,0.06,0.1,0.05,0.15C12.83,16.4,11.74,17.37,10.43,17.37z M8.32,15.28
				c0.21,0.98,1.08,1.7,2.11,1.7s1.9-0.72,2.11-1.7H8.32z"/>
		</g>
		<g>
			<path class="st2" d="M35.06,15.08c0.13,1.19,1.12,2.1,2.35,2.1c1.22,0,2.22-0.91,2.35-2.1H35.06z"/>
		</g>
		<g>
			<path class="st0" d="M37.4,17.37c-1.31,0-2.4-0.98-2.55-2.28c-0.01-0.06,0.01-0.11,0.05-0.16c0.04-0.04,0.09-0.07,0.15-0.07h4.69
				c0.06,0,0.11,0.02,0.15,0.07c0.04,0.04,0.06,0.1,0.05,0.15C39.81,16.4,38.71,17.37,37.4,17.37z M35.29,15.28
				c0.21,0.98,1.08,1.7,2.11,1.7s1.9-0.72,2.11-1.7H35.29z"/>
		</g>
		<g>
			<path class="st2" d="M61.06,15.08c0.13,1.19,1.12,2.1,2.35,2.1c1.22,0,2.22-0.91,2.35-2.1H61.06z"/>
		</g>
		<g>
			<path class="st0" d="M63.41,17.37c-1.31,0-2.4-0.98-2.55-2.28c-0.01-0.06,0.01-0.11,0.05-0.16c0.04-0.04,0.09-0.07,0.15-0.07
				h4.69c0.06,0,0.11,0.02,0.15,0.07c0.04,0.04,0.06,0.1,0.05,0.15C65.81,16.4,64.71,17.37,63.41,17.37z M61.29,15.28
				c0.21,0.98,1.08,1.7,2.11,1.7s1.9-0.72,2.11-1.7H61.29z"/>
		</g>
	</g>
	<path class="st0" d="M9.3,11.29c-0.11,0-0.2-0.09-0.2-0.2V8.11c0-0.11,0.09-0.2,0.2-0.2S9.5,8,9.5,8.11v2.98
		C9.5,11.2,9.41,11.29,9.3,11.29z"/>
	<path class="st0" d="M11.56,11.29c-0.11,0-0.2-0.09-0.2-0.2V8.11c0-0.11,0.09-0.2,0.2-0.2s0.2,0.09,0.2,0.2v2.98
		C11.76,11.2,11.67,11.29,11.56,11.29z"/>
	<path class="st0" d="M36.28,11.64c-0.11,0-0.2-0.09-0.2-0.2V7.76c0-0.11,0.09-0.2,0.2-0.2s0.2,0.09,0.2,0.2v3.68
		C36.48,11.55,36.39,11.64,36.28,11.64z"/>
	<path class="st0" d="M38.53,11.55c-0.11,0-0.2-0.09-0.2-0.2v-3.5c0-0.11,0.09-0.2,0.2-0.2s0.2,0.09,0.2,0.2v3.51
		C38.73,11.46,38.64,11.55,38.53,11.55z"/>
	<path class="st0" d="M62.28,11.64c-0.11,0-0.2-0.09-0.2-0.2V7.76c0-0.11,0.09-0.2,0.2-0.2s0.2,0.09,0.2,0.2v3.68
		C62.48,11.55,62.39,11.64,62.28,11.64z"/>
	<path class="st0" d="M64.53,11.64c-0.11,0-0.2-0.09-0.2-0.2V7.76c0-0.11,0.09-0.2,0.2-0.2s0.2,0.09,0.2,0.2v3.68
		C64.73,11.55,64.64,11.64,64.53,11.64z"/>
	<g>
		<g>
			<path class="st1" d="M14,12c0-0.32-0.28-0.58-0.63-0.58h-5.3c-0.35,0-0.63,0.26-0.63,0.58s0.28,0.58,0.63,0.58l0,0h3.33h1.97
				C13.72,12.58,14,12.32,14,12"/>
		</g>
		<g>
			<path class="st1" d="M40.97,12c0-0.32-0.28-0.58-0.63-0.58h-5.3c-0.35,0-0.63,0.26-0.63,0.58s0.28,0.58,0.63,0.58l0,0h3.33h1.97
				C40.69,12.58,40.97,12.32,40.97,12"/>
		</g>
		<g>
			<path class="st1" d="M66.97,12c0-0.32-0.28-0.58-0.63-0.58h-5.3c-0.35,0-0.63,0.26-0.63,0.58s0.28,0.58,0.63,0.58l0,0h3.33h1.97
				C66.69,12.58,66.97,12.32,66.97,12"/>
		</g>
		<g>
			<path class="st1" d="M14,13.38c0-0.32-0.28-0.58-0.63-0.58h-5.3c-0.35,0-0.63,0.26-0.63,0.58s0.28,0.58,0.63,0.58l0,0h3.33h1.97
				C13.72,13.96,14,13.7,14,13.38"/>
		</g>
		<g>
			<path class="st1" d="M40.97,13.38c0-0.32-0.28-0.58-0.63-0.58h-5.3c-0.35,0-0.63,0.26-0.63,0.58s0.28,0.58,0.63,0.58l0,0h3.33
				h1.97C40.69,13.96,40.97,13.7,40.97,13.38"/>
		</g>
		<g>
			<path class="st1" d="M66.97,13.38c0-0.32-0.28-0.58-0.63-0.58h-5.3c-0.35,0-0.63,0.26-0.63,0.58s0.28,0.58,0.63,0.58l0,0h3.33
				h1.97C66.69,13.96,66.97,13.7,66.97,13.38"/>
		</g>
		<g>
			<path class="st1" d="M14,14.66c0-0.32-0.28-0.58-0.63-0.58h-5.3c-0.35,0-0.63,0.26-0.63,0.58s0.28,0.58,0.63,0.58h3.33h1.97
				C13.72,15.24,14,14.98,14,14.66"/>
		</g>
		<g>
			<path class="st1" d="M40.97,14.66c0-0.32-0.28-0.58-0.63-0.58h-5.3c-0.35,0-0.63,0.26-0.63,0.58s0.28,0.58,0.63,0.58h3.33h1.97
				C40.69,15.24,40.97,14.98,40.97,14.66"/>
		</g>
		<g>
			<path class="st1" d="M66.97,14.66c0-0.32-0.28-0.58-0.63-0.58h-5.3c-0.35,0-0.63,0.26-0.63,0.58s0.28,0.58,0.63,0.58h3.33h1.97
				C66.69,15.24,66.97,14.98,66.97,14.66"/>
		</g>
		<g>
			<path class="st0" d="M11.1,12.46H7.8c-0.46,0-0.83-0.34-0.83-0.75s0.37-0.75,0.83-0.75h5.25c0.46,0,0.83,0.34,0.83,0.75
				s-0.37,0.75-0.83,0.75H11.1z M7.81,11.36c-0.23,0-0.42,0.16-0.42,0.35s0.19,0.35,0.42,0.35h3.3h1.95c0.23,0,0.42-0.16,0.42-0.35
				s-0.19-0.35-0.42-0.35H7.81z"/>
		</g>
		<g>
			<path class="st0" d="M38.08,12.46h-3.3c-0.46,0-0.83-0.34-0.83-0.75s0.37-0.75,0.83-0.75h5.25c0.46,0,0.83,0.34,0.83,0.75
				s-0.37,0.75-0.83,0.75H38.08z M34.78,11.36c-0.23,0-0.42,0.16-0.42,0.35s0.19,0.35,0.42,0.35h3.3h1.95
				c0.23,0,0.42-0.16,0.42-0.35s-0.19-0.35-0.42-0.35H34.78z"/>
		</g>
		<g>
			<path class="st0" d="M64.08,12.46h-3.3c-0.46,0-0.83-0.34-0.83-0.75s0.37-0.75,0.83-0.75h5.25c0.46,0,0.83,0.34,0.83,0.75
				s-0.37,0.75-0.83,0.75H64.08z M60.78,11.36c-0.23,0-0.42,0.16-0.42,0.35s0.19,0.35,0.42,0.35h3.3h1.95
				c0.23,0,0.42-0.16,0.42-0.35s-0.19-0.35-0.42-0.35H60.78z"/>
		</g>
		<g>
			<path class="st0" d="M11.1,13.83H7.8c-0.46,0-0.83-0.34-0.83-0.75s0.37-0.75,0.83-0.75h5.25c0.46,0,0.83,0.34,0.83,0.75
				s-0.37,0.75-0.83,0.75H11.1z M7.81,12.73c-0.23,0-0.42,0.16-0.42,0.35s0.19,0.35,0.42,0.35h3.3h1.95c0.23,0,0.42-0.16,0.42-0.35
				s-0.19-0.35-0.42-0.35H7.81z"/>
		</g>
		<g>
			<path class="st0" d="M38.08,13.83h-3.3c-0.46,0-0.83-0.34-0.83-0.75s0.37-0.75,0.83-0.75h5.25c0.46,0,0.83,0.34,0.83,0.75
				s-0.37,0.75-0.83,0.75H38.08z M34.78,12.73c-0.23,0-0.42,0.16-0.42,0.35s0.19,0.35,0.42,0.35h3.3h1.95
				c0.23,0,0.42-0.16,0.42-0.35s-0.19-0.35-0.42-0.35H34.78z"/>
		</g>
		<g>
			<path class="st0" d="M64.08,13.83h-3.3c-0.46,0-0.83-0.34-0.83-0.75s0.37-0.75,0.83-0.75h5.25c0.46,0,0.83,0.34,0.83,0.75
				s-0.37,0.75-0.83,0.75H64.08z M60.78,12.73c-0.23,0-0.42,0.16-0.42,0.35s0.19,0.35,0.42,0.35h3.3h1.95
				c0.23,0,0.42-0.16,0.42-0.35s-0.19-0.35-0.42-0.35H60.78z"/>
		</g>
		<g>
			<path class="st0" d="M11.1,15.12H7.8c-0.46,0-0.83-0.34-0.83-0.75s0.37-0.75,0.83-0.75h5.25c0.46,0,0.83,0.34,0.83,0.75
				s-0.37,0.75-0.83,0.75H11.1z M7.81,14.02c-0.23,0-0.42,0.16-0.42,0.35s0.19,0.35,0.42,0.35h3.3h1.95c0.23,0,0.42-0.16,0.42-0.35
				s-0.19-0.35-0.42-0.35H7.81z"/>
		</g>
		<g>
			<path class="st0" d="M38.08,15.12h-3.3c-0.46,0-0.83-0.34-0.83-0.75s0.37-0.75,0.83-0.75h5.25c0.46,0,0.83,0.34,0.83,0.75
				s-0.37,0.75-0.83,0.75H38.08z M34.78,14.02c-0.23,0-0.42,0.16-0.42,0.35s0.19,0.35,0.42,0.35h3.3h1.95
				c0.23,0,0.42-0.16,0.42-0.35s-0.19-0.35-0.42-0.35H34.78z"/>
		</g>
		<g>
			<path class="st0" d="M64.08,15.12h-3.3c-0.46,0-0.83-0.34-0.83-0.75s0.37-0.75,0.83-0.75h5.25c0.46,0,0.83,0.34,0.83,0.75
				s-0.37,0.75-0.83,0.75H64.08z M60.78,14.02c-0.23,0-0.42,0.16-0.42,0.35s0.19,0.35,0.42,0.35h3.3h1.95
				c0.23,0,0.42-0.16,0.42-0.35s-0.19-0.35-0.42-0.35H60.78z"/>
		</g>
	</g>
</g>
</svg>
