<?xml version="1.0" encoding="utf-8"?>
<!-- Generator: Adobe Illustrator 26.0.2, SVG Export Plug-In . SVG Version: 6.00 Build 0)  -->
<svg version="1.1" id="Ebene_1" xmlns="http://www.w3.org/2000/svg" xmlns:xlink="http://www.w3.org/1999/xlink" x="0px" y="0px"
	 viewBox="0 0 45.52 62.37" style="enable-background:new 0 0 45.52 62.37;" xml:space="preserve">
<style type="text/css">
	.st0{clip-path:url(#SVGID_00000129169294000411359440000011719751370262230449_);fill:#6796CF;}
	.st1{clip-path:url(#SVGID_00000129169294000411359440000011719751370262230449_);fill:#2B2961;}
	.st2{fill:#6796CF;}
	.st3{clip-path:url(#SVGID_00000163780605612753140000000000718368485181637778_);fill:#2B2961;}
	.st4{fill:#FFFFFF;}
	.st5{clip-path:url(#SVGID_00000099621625899454481450000006884737428275537308_);fill:#2B2961;}
	.st6{clip-path:url(#SVGID_00000113316307802733100030000011035872518675471545_);fill:#2B2961;}
	.st7{clip-path:url(#SVGID_00000042696848979996608500000004203534337702152598_);fill:#2B2961;}
	.st8{fill:#2B2961;}
	.st9{clip-path:url(#SVGID_00000121995321248861980460000002581219155020895364_);fill:#6796CF;}
	.st10{clip-path:url(#SVGID_00000121995321248861980460000002581219155020895364_);fill:#2B2961;}
	.st11{clip-path:url(#SVGID_00000067953302276651593940000004148947369130935741_);fill:#2B2961;}
	.st12{clip-path:url(#SVGID_00000005254891517027207930000003722856284995219093_);fill:#2B2961;}
	.st13{clip-path:url(#SVGID_00000005254891517027207930000003722856284995219093_);fill:#6796CF;}
	.st14{clip-path:url(#SVGID_00000091006868888252654120000015434147426049351058_);fill:#2B2961;}
	.st15{clip-path:url(#SVGID_00000072255859858197977140000003865345295568204706_);fill:#2B2961;}
	.st16{clip-path:url(#SVGID_00000049192666282246247480000001056564246712416904_);fill:#2B2961;}
	.st17{clip-path:url(#SVGID_00000049192666282246247480000001056564246712416904_);fill:#6796CF;}
	.st18{clip-path:url(#SVGID_00000155144570528152164370000016491179147334709129_);fill:#2B2961;}
	.st19{clip-path:url(#SVGID_00000180335867291035806310000008238478149985731484_);fill:#2B2961;}
	.st20{clip-path:url(#SVGID_00000014620054295204518780000009675620230559565697_);fill:#2B2961;}
	.st21{clip-path:url(#SVGID_00000183954277838915746060000014271836096352549008_);fill:#2B2961;}
	.st22{clip-path:url(#SVGID_00000062175062934670818520000012026908866776233871_);fill:#6796CF;}
	.st23{clip-path:url(#SVGID_00000062175062934670818520000012026908866776233871_);fill:#2B2961;}
	.st24{clip-path:url(#SVGID_00000181781525987470602890000011465592295978695559_);fill:#2B2961;}
	.st25{clip-path:url(#SVGID_00000157295719102038658030000003440376198195390848_);fill:#2B2961;}
	.st26{clip-path:url(#SVGID_00000157295719102038658030000003440376198195390848_);fill:#6796CF;}
	.st27{clip-path:url(#SVGID_00000020379780797865172280000002326878659899853982_);fill:#2B2961;}
	.st28{clip-path:url(#SVGID_00000037657002749115168940000000160925060617057935_);fill:#2B2961;}
	.st29{clip-path:url(#SVGID_00000133518689609295943940000006425481306972195741_);fill:#2B2961;}
	.st30{clip-path:url(#SVGID_00000133518689609295943940000006425481306972195741_);fill:#6796CF;}
	.st31{clip-path:url(#SVGID_00000142156689681646719300000002818856927382892936_);fill:#2B2961;}
	.st32{clip-path:url(#SVGID_00000102528408365021236050000000784560856471513482_);fill:#6796CF;}
	.st33{clip-path:url(#SVGID_00000102528408365021236050000000784560856471513482_);fill:#2B2961;}
	.st34{clip-path:url(#SVGID_00000122716305716638080200000009796624112748037785_);fill:#2B2961;}
	.st35{clip-path:url(#SVGID_00000122716305716638080200000009796624112748037785_);fill:#6796CF;}
	.st36{clip-path:url(#SVGID_00000051355463438231224370000014229895341694188704_);fill:#2B2961;}
	.st37{clip-path:url(#SVGID_00000080889165330856003380000014016601418898395520_);fill:#FFFFFF;}
	.st38{clip-path:url(#SVGID_00000080889165330856003380000014016601418898395520_);fill:#2B2961;}
	.st39{clip-path:url(#SVGID_00000140731595311857285080000015574396931158152109_);fill:#FFFFFF;}
	.st40{clip-path:url(#SVGID_00000140731595311857285080000015574396931158152109_);fill:#2B2961;}
	.st41{clip-path:url(#SVGID_00000069399921774957939970000010367451705443544739_);fill:#6796CF;}
	.st42{clip-path:url(#SVGID_00000069399921774957939970000010367451705443544739_);fill:#2B2961;}
	.st43{clip-path:url(#SVGID_00000140732455297029407820000006850612286519477925_);fill:#2B2961;}
	.st44{clip-path:url(#SVGID_00000093158582166023721470000002816002098398438575_);fill:#6796CF;}
	.st45{clip-path:url(#SVGID_00000093158582166023721470000002816002098398438575_);fill:#2B2961;}
	.st46{clip-path:url(#SVGID_00000093879443920898900530000011268372102765495180_);fill:#2B2961;}
	.st47{clip-path:url(#SVGID_00000031167874170627421930000015521109415407135106_);fill:#2B2961;}
	.st48{clip-path:url(#SVGID_00000031167874170627421930000015521109415407135106_);fill:#6796CF;}
	.st49{clip-path:url(#SVGID_00000036935315302508425990000016053292030551916160_);fill:#2B2961;}
	.st50{clip-path:url(#SVGID_00000149361987230334811500000001864465765769197726_);fill:#2B2961;}
	.st51{clip-path:url(#SVGID_00000137110782997960957620000017400648949552499632_);fill:#2B2961;}
	.st52{clip-path:url(#SVGID_00000137110782997960957620000017400648949552499632_);fill:#6796CF;}
	.st53{clip-path:url(#SVGID_00000125579702884081378940000012676664800331150470_);fill:#2B2961;}
	.st54{clip-path:url(#SVGID_00000156545864535328013440000001734965593967784626_);fill:#2B2961;}
	.st55{clip-path:url(#SVGID_00000044140216414730150740000014312595220693852806_);fill:#2B2961;}
	.st56{clip-path:url(#SVGID_00000168821683497520948350000000624431223803101849_);fill:#2B2961;}
	.st57{clip-path:url(#SVGID_00000004532789048983651890000000973250377532814524_);fill:#6796CF;}
	.st58{clip-path:url(#SVGID_00000108273688181273417970000004509460739795824806_);fill:#2B2961;}
	.st59{clip-path:url(#SVGID_00000064345651829695963580000014378767032802584736_);fill:#2B2961;}
	.st60{clip-path:url(#SVGID_00000038406947740485877490000015662967035603020954_);fill:#6796CF;}
	.st61{clip-path:url(#SVGID_00000003798683093194620600000002293500108870589343_);fill:#2B2961;}
	.st62{clip-path:url(#SVGID_00000084501524794313647540000000671158590483785897_);fill:#2B2961;}
	.st63{clip-path:url(#SVGID_00000084501524794313647540000000671158590483785897_);fill:#6796CF;}
	.st64{clip-path:url(#SVGID_00000098191180833751459770000004511561232519955852_);fill:#2B2961;}
	.st65{clip-path:url(#SVGID_00000172435312789783063930000017309857656364534923_);fill:#6796CF;}
	.st66{clip-path:url(#SVGID_00000172435312789783063930000017309857656364534923_);fill:#2B2961;}
	.st67{clip-path:url(#SVGID_00000177464943429314538550000002922033903700258695_);fill:#2B2961;}
	.st68{clip-path:url(#SVGID_00000067195275172553369310000001964023273318168486_);fill:#2B2961;}
	.st69{clip-path:url(#SVGID_00000067195275172553369310000001964023273318168486_);fill:#6796CF;}
	.st70{clip-path:url(#SVGID_00000132780536594369422590000007030818309392614286_);fill:#2B2961;}
	.st71{clip-path:url(#SVGID_00000029734446558231613110000006208541696188178567_);fill:#2B2961;}
	.st72{clip-path:url(#SVGID_00000157997171361931788000000010154294566263534494_);fill:#2B2961;}
	.st73{clip-path:url(#SVGID_00000157997171361931788000000010154294566263534494_);fill:#6796CF;}
	.st74{clip-path:url(#SVGID_00000088113601816686034960000016883854306307529365_);fill:#2B2961;}
	.st75{clip-path:url(#SVGID_00000061452422767457667560000007904845608797923225_);fill:#2B2961;}
	.st76{clip-path:url(#SVGID_00000140711371127691068310000013609974844811941249_);fill:#2B2961;}
	.st77{clip-path:url(#SVGID_00000055676864696448910750000013165923403939305151_);fill:#2B2961;}
	.st78{clip-path:url(#SVGID_00000183963643073324439170000005998903088634066568_);fill:#6796CF;}
	.st79{clip-path:url(#SVGID_00000183963643073324439170000005998903088634066568_);fill:#2B2961;}
	.st80{clip-path:url(#SVGID_00000070819405062274577950000006936637703391333007_);fill:#FFFFFF;}
	.st81{clip-path:url(#SVGID_00000070819405062274577950000006936637703391333007_);fill:#2B2961;}
	.st82{clip-path:url(#SVGID_00000012459025206646328110000001868204971339790478_);fill:#2B2961;}
	.st83{clip-path:url(#SVGID_00000062175923002245868370000006217596965538152866_);fill:#2B2961;}
	.st84{clip-path:url(#SVGID_00000062175923002245868370000006217596965538152866_);fill:#6796CF;}
	.st85{clip-path:url(#SVGID_00000042013726170961215500000010795798886558572418_);fill:#2B2961;}
	.st86{clip-path:url(#SVGID_00000163043695292020404520000005109514538191325847_);fill:#2B2961;}
	.st87{clip-path:url(#SVGID_00000163043695292020404520000005109514538191325847_);fill:#FFFFFF;}
	.st88{clip-path:url(#SVGID_00000055697156503906368930000000971166444185031303_);fill:#6796CF;}
	.st89{clip-path:url(#SVGID_00000055697156503906368930000000971166444185031303_);fill:#2B2961;}
	.st90{clip-path:url(#SVGID_00000133492512828531997510000008207207256431609742_);fill:#2B2961;}
	.st91{clip-path:url(#SVGID_00000083069761069917792370000010458622027215483571_);fill:#2B2961;}
	.st92{clip-path:url(#SVGID_00000083069761069917792370000010458622027215483571_);fill:#6796CF;}
	.st93{clip-path:url(#SVGID_00000076572651313839633620000017652611530489441679_);fill:#2B2961;}
	.st94{clip-path:url(#SVGID_00000076572651313839633620000017652611530489441679_);fill:#FFFFFF;}
	.st95{clip-path:url(#SVGID_00000111177565079349068460000005054814892883377319_);fill:#6796CF;}
	.st96{clip-path:url(#SVGID_00000111177565079349068460000005054814892883377319_);fill:#2B2961;}
	.st97{clip-path:url(#SVGID_00000111177565079349068460000005054814892883377319_);fill:#FFFFFF;}
	.st98{clip-path:url(#SVGID_00000041281411534229299950000008812875684433078941_);fill:#2B2961;}
	.st99{clip-path:url(#SVGID_00000041281411534229299950000008812875684433078941_);fill:#6796CF;}
	.st100{clip-path:url(#SVGID_00000103225131502575043910000010865736132283325609_);fill:#2B2961;}
	.st101{clip-path:url(#SVGID_00000157303116272975909380000011633001937207866752_);fill:#2B2961;}
	.st102{clip-path:url(#SVGID_00000147902869831604811500000007966900644841302962_);fill:#2B2961;}
	.st103{clip-path:url(#SVGID_00000145033600622870532700000014976013064615007384_);fill:#2B2961;}
	.st104{clip-path:url(#SVGID_00000030479371588072461400000005320729247505201588_);fill:#2B2961;}
	.st105{clip-path:url(#SVGID_00000114046175666307252300000005673468427683371680_);fill:#FFFFFF;}
	.st106{clip-path:url(#SVGID_00000114046175666307252300000005673468427683371680_);fill:#2B2961;}
	.st107{clip-path:url(#SVGID_00000114046175666307252300000005673468427683371680_);fill:#6796CF;}
	.st108{clip-path:url(#SVGID_00000017489265625571090780000003710598543939381667_);fill:#FFFFFF;}
	.st109{clip-path:url(#SVGID_00000026127376363971693840000002759678143082447530_);fill:#2B2961;}
	.st110{clip-path:url(#SVGID_00000026127376363971693840000002759678143082447530_);fill:#FFFFFF;}
	.st111{clip-path:url(#SVGID_00000057830220378622945140000011642277996019727522_);fill:#2B2961;}
	.st112{clip-path:url(#SVGID_00000017504280541413626010000012719273779994166673_);fill:#2B2961;}
	.st113{clip-path:url(#SVGID_00000017504280541413626010000012719273779994166673_);fill:#6796CF;}
	.st114{clip-path:url(#SVGID_00000051369070239102712320000000537822105044755846_);fill:#2B2961;}
	.st115{clip-path:url(#SVGID_00000049217487229555667180000005788480006949488570_);fill:#2B2961;}
	.st116{clip-path:url(#SVGID_00000049217487229555667180000005788480006949488570_);fill:#FFFFFF;}
	.st117{clip-path:url(#SVGID_00000080900875838391900600000018360013257939459471_);fill:#6796CF;}
	.st118{clip-path:url(#SVGID_00000005264589884832695060000014998644651477174673_);fill:#2B2961;}
	.st119{clip-path:url(#SVGID_00000089569173852539247870000017498510925057945493_);fill:#2B2961;}
	.st120{clip-path:url(#SVGID_00000052070288375177518350000004130926860929859247_);fill:#FFFFFF;}
	.st121{clip-path:url(#SVGID_00000052070288375177518350000004130926860929859247_);fill:#2B2961;}
	.st122{clip-path:url(#SVGID_00000163773478245803402150000012887601416412632713_);fill:#FFFFFF;}
	.st123{clip-path:url(#SVGID_00000163773478245803402150000012887601416412632713_);fill:#2B2961;}
	.st124{clip-path:url(#SVGID_00000147917283440643133890000004338536334790663846_);fill:#6796CF;}
	.st125{clip-path:url(#SVGID_00000147917283440643133890000004338536334790663846_);fill:#2B2961;}
	.st126{clip-path:url(#SVGID_00000142892735359153927560000018183450292071879340_);fill:#2B2961;}
	.st127{clip-path:url(#SVGID_00000142892735359153927560000018183450292071879340_);fill:#6796CF;}
	.st128{clip-path:url(#SVGID_00000164476781803938731530000015071040360986390451_);fill:#6796CF;}
	.st129{clip-path:url(#SVGID_00000107569876530448649870000012466132252993485723_);fill:#2B2961;}
	.st130{clip-path:url(#SVGID_00000091718029165162058510000003402564307706740910_);fill:#2B2961;}
	.st131{clip-path:url(#SVGID_00000166662443639463678740000007180310568954526877_);fill:#2B2961;}
	.st132{clip-path:url(#SVGID_00000026141705811968870150000010976886942181335436_);fill:#2B2961;}
	.st133{clip-path:url(#SVGID_00000164507710287436276220000007791557489242176700_);fill:#2B2961;}
	.st134{clip-path:url(#SVGID_00000164507710287436276220000007791557489242176700_);fill:#6796CF;}
	.st135{clip-path:url(#SVGID_00000050632224893912826310000000331840306931687603_);fill:#6796CF;}
	.st136{clip-path:url(#SVGID_00000091734883806800147480000001282193685208781988_);fill:#2B2961;}
	.st137{clip-path:url(#SVGID_00000031924930920599647740000010233118048191968703_);fill:#2B2961;}
	.st138{clip-path:url(#SVGID_00000181793496361094052870000006290292784503562915_);fill:#2B2961;}
	.st139{clip-path:url(#SVGID_00000113331421365661610260000007138414654309826470_);fill:#2B2961;}
	.st140{clip-path:url(#SVGID_00000140715328148480771710000011413446007973148058_);fill:#6796CF;}
	.st141{clip-path:url(#SVGID_00000140715328148480771710000011413446007973148058_);fill:#2B2961;}
	.st142{clip-path:url(#SVGID_00000181077562027676147660000017263994228788015512_);fill:#2B2961;}
	.st143{clip-path:url(#SVGID_00000128449088286968544310000000337002024902208681_);fill:#2B2961;}
	.st144{clip-path:url(#SVGID_00000135672221132372084650000014762677657532648107_);fill:#2B2961;}
	.st145{clip-path:url(#SVGID_00000135672221132372084650000014762677657532648107_);fill:#6796CF;}
	.st146{clip-path:url(#SVGID_00000087391249426897835350000016090090552873798290_);}
	.st147{clip-path:url(#SVGID_00000087391249426897835350000016090090552873798290_);fill:#FFFFFF;}
	.st148{clip-path:url(#SVGID_00000087391249426897835350000016090090552873798290_);fill:#2B2961;}
	.st149{clip-path:url(#SVGID_00000068664612259134083780000014054164001558215868_);fill:#2B2961;}
	.st150{clip-path:url(#SVGID_00000057106744786308723790000003473108185388949160_);fill:#2B2961;}
	.st151{clip-path:url(#SVGID_00000057106744786308723790000003473108185388949160_);fill:#FFFFFF;}
	.st152{clip-path:url(#SVGID_00000057106744786308723790000003473108185388949160_);fill:#6796CF;}
	.st153{clip-path:url(#SVGID_00000173129519772026111010000001481036252972884119_);fill:#2B2961;}
	.st154{clip-path:url(#SVGID_00000075852796442030820100000005403974687758012077_);fill:#2B2961;}
	.st155{clip-path:url(#SVGID_00000006693158210491893720000002158310178252463282_);fill:#6796CF;}
	.st156{clip-path:url(#SVGID_00000006693158210491893720000002158310178252463282_);}
	.st157{clip-path:url(#SVGID_00000141449640372815442240000002450093598812035757_);fill:#2B2961;}
	.st158{clip-path:url(#SVGID_00000006693158210491893720000002158310178252463282_);fill:#FFFFFF;}
	.st159{clip-path:url(#SVGID_00000006693158210491893720000002158310178252463282_);fill:#2B2961;}
	.st160{opacity:0.52;clip-path:url(#SVGID_00000111909523057077715100000008721821554798970036_);}
	.st161{clip-path:url(#SVGID_00000145019447895275483730000000124567578033589401_);fill:#6796CF;}
	.st162{clip-path:url(#SVGID_00000171701969453123737190000015101465585317166746_);fill:#2B2961;}
	.st163{clip-path:url(#SVGID_00000123422581014404216830000004641009883448812207_);fill:#2B2961;}
	.st164{clip-path:url(#SVGID_00000123427189495594860470000005816659721418098314_);fill:#6796CF;}
	.st165{clip-path:url(#SVGID_00000123427189495594860470000005816659721418098314_);fill:#2B2961;}
	.st166{clip-path:url(#SVGID_00000154420019552634994240000011459102126216619660_);fill:#2B2961;}
	.st167{clip-path:url(#SVGID_00000119083172167317054050000013431159879308387225_);fill:#2B2961;}
	.st168{clip-path:url(#SVGID_00000069358418184279757380000011364191901509256333_);fill:#2B2961;}
	.st169{clip-path:url(#SVGID_00000122702228385369679000000015386182227884681889_);fill:#FFFFFF;}
	.st170{clip-path:url(#SVGID_00000122702228385369679000000015386182227884681889_);fill:#2B2961;}
	.st171{clip-path:url(#SVGID_00000122702228385369679000000015386182227884681889_);fill:#6796CF;}
	.st172{clip-path:url(#SVGID_00000002378927407233298660000001936962298940031652_);fill:#6796CF;}
	.st173{clip-path:url(#SVGID_00000132787277852810544160000004678400133025543561_);fill:#2B2961;}
	.st174{clip-path:url(#SVGID_00000171718739000667600560000007147561887463257018_);fill:#2B2961;}
	.st175{clip-path:url(#SVGID_00000171718739000667600560000007147561887463257018_);fill:#FFFFFF;}
	.st176{clip-path:url(#SVGID_00000042729600045169852880000015733712600215698825_);fill:#6796CF;}
	.st177{clip-path:url(#SVGID_00000042729600045169852880000015733712600215698825_);fill:#2B2961;}
	.st178{clip-path:url(#SVGID_00000000934764261541999040000012526846042251607221_);fill:#6796CF;}
	.st179{clip-path:url(#SVGID_00000000934764261541999040000012526846042251607221_);fill:#2B2961;}
	.st180{clip-path:url(#SVGID_00000043427258739625340260000015746944016786643634_);fill:#2B2961;}
	.st181{clip-path:url(#SVGID_00000136382881802379101060000010681735485102608515_);fill:#2B2961;}
	.st182{clip-path:url(#SVGID_00000113337791924240497950000004312336402924522154_);fill:#FFFFFF;}
	.st183{clip-path:url(#SVGID_00000131336761137262491030000014152145658387056260_);fill:#2B2961;}
	.st184{clip-path:url(#SVGID_00000050652537317143362310000010006118098390461118_);fill:#2B2961;}
	.st185{clip-path:url(#SVGID_00000050652537317143362310000010006118098390461118_);fill:#6796CF;}
	.st186{clip-path:url(#SVGID_00000067936774349998773710000001792964450652532410_);fill:#2B2961;}
	.st187{clip-path:url(#SVGID_00000109717956899321154940000016332210563457927082_);fill:#2B2961;}
	.st188{clip-path:url(#SVGID_00000071534456161171365330000005696703333146427540_);fill:#6796CF;}
	.st189{clip-path:url(#SVGID_00000000206851634467909760000007332354394814090137_);fill:#2B2961;}
	.st190{clip-path:url(#SVGID_00000124863208656735610010000017921192754554351528_);fill:#6796CF;}
	.st191{clip-path:url(#SVGID_00000076570748508311799940000010710330752224990131_);fill:#2B2961;}
	.st192{clip-path:url(#SVGID_00000176043282515659109330000008764429283410509455_);fill:#6796CF;}
	.st193{clip-path:url(#SVGID_00000011722988148606917100000006852411517260992946_);fill:#2B2961;}
	.st194{clip-path:url(#SVGID_00000059993002635058071530000014270923341937995398_);}
	.st195{clip-path:url(#SVGID_00000059993002635058071530000014270923341937995398_);fill:#2B2961;}
	.st196{clip-path:url(#SVGID_00000059993002635058071530000014270923341937995398_);fill:#FFFFFF;}
	.st197{clip-path:url(#SVGID_00000177448888277895902310000005064150977744403633_);fill:#2B2961;}
	.st198{clip-path:url(#SVGID_00000111170683638159365220000002199897325380927417_);fill:#2B2961;}
	.st199{clip-path:url(#SVGID_00000050631319276380176920000000542985643150154387_);fill:#2B2961;}
	.st200{clip-path:url(#SVGID_00000136373601214322152950000005611810311260107176_);fill:#2B2961;}
	.st201{clip-path:url(#SVGID_00000130639232696182234380000007776158339730776967_);fill:#2B2961;}
	.st202{clip-path:url(#SVGID_00000041261733955529124500000009768224376720980904_);fill:#2B2961;}
	.st203{clip-path:url(#SVGID_00000078044047264972309480000000752545775709164178_);fill:#2B2961;}
	.st204{clip-path:url(#SVGID_00000056390428129844192050000006418117747544249496_);fill:#2B2961;}
	.st205{clip-path:url(#SVGID_00000121977575186739682500000013285094742979559085_);fill:#2B2961;}
	.st206{clip-path:url(#SVGID_00000116916647074827250490000001853244496165361030_);fill:#FFFFFF;}
	.st207{clip-path:url(#SVGID_00000116916647074827250490000001853244496165361030_);fill:#2B2961;}
	.st208{clip-path:url(#SVGID_00000006695445570062530180000002219690204136148138_);fill:#6796CF;}
	.st209{clip-path:url(#SVGID_00000006695445570062530180000002219690204136148138_);fill:#2B2961;}
	.st210{clip-path:url(#SVGID_00000033341534643258567630000000771146582614597549_);fill:#2B2961;}
	.st211{clip-path:url(#SVGID_00000033341534643258567630000000771146582614597549_);fill:#FFFFFF;}
	.st212{clip-path:url(#SVGID_00000053539380682706027390000013312599635154911920_);fill:#6796CF;}
	.st213{clip-path:url(#SVGID_00000053539380682706027390000013312599635154911920_);fill:#2B2961;}
	.st214{clip-path:url(#SVGID_00000176737053547779136930000011857413709939758527_);fill:#6796CF;}
	.st215{clip-path:url(#SVGID_00000176737053547779136930000011857413709939758527_);fill:#2B2961;}
	.st216{clip-path:url(#SVGID_00000097487582384986428130000014415172643147724222_);}
	.st217{clip-path:url(#SVGID_00000057130967610541203080000015450410248047311521_);}
	.st218{clip-path:url(#SVGID_00000068640072259511004420000009898466579201446847_);}
	.st219{clip-path:url(#SVGID_00000182511832539463785230000015227305008643822770_);}
	.st220{clip-path:url(#SVGID_00000174567006891987959780000010070084088229557890_);}
	.st221{clip-path:url(#SVGID_00000181776873742262392660000002367969550921927326_);}
	.st222{clip-path:url(#SVGID_00000041997878515635344040000010871806588583330695_);}
	.st223{clip-path:url(#SVGID_00000122710218541294314580000009187750901814161839_);}
	.st224{clip-path:url(#SVGID_00000134961051600090780720000013335985931191839643_);}
	.st225{clip-path:url(#SVGID_00000103261127984186505820000011738009155454395050_);}
	.st226{clip-path:url(#SVGID_00000159441988639773191400000007395089662987199123_);}
	.st227{clip-path:url(#SVGID_00000170974438634201691660000016573662630522629521_);}
	.st228{clip-path:url(#SVGID_00000152241175813695053280000012221295396025427891_);}
	.st229{clip-path:url(#SVGID_00000045577941943407192660000011521777320179338681_);}
	.st230{clip-path:url(#SVGID_00000105397430789272645210000000825835635036247978_);fill:#2B2961;}
	.st231{clip-path:url(#SVGID_00000105397430789272645210000000825835635036247978_);fill:#6796CF;}
	.st232{fill:#A2B9E1;}
	.st233{clip-path:url(#SVGID_00000078012234934959753730000004769048479140104112_);}
	.st234{clip-path:url(#SVGID_00000145053307443334334320000011656081562564372408_);}
</style>
<g>
	<polygon class="st2" points="1.63,0.33 1.63,57.83 30.81,57.83 41.35,42.62 41.35,0.33 	"/>
	<path class="st2" d="M30.87,57.95H1.51V0.21h39.95v42.44l-0.02,0.03L30.87,57.95z M1.75,57.71h28.99l10.48-15.13V0.45H1.75V57.71z"
		/>
	<g>
		<path class="st8" d="M41.06,58.21H0.3c-0.17,0-0.3-0.13-0.3-0.3V0.3C0,0.13,0.13,0,0.3,0h40.76c0.17,0,0.3,0.13,0.3,0.3v57.61
			C41.36,58.07,41.23,58.21,41.06,58.21z M0.6,57.61h40.16V0.6H0.6V57.61z"/>
	</g>
	<polygon class="st4" points="4.46,4.46 4.46,62.07 36.86,62.07 45.22,53.72 45.22,4.46 	"/>
	<g>
		<path class="st8" d="M36.86,62.37H4.46c-0.17,0-0.3-0.13-0.3-0.3V4.46c0-0.17,0.13-0.3,0.3-0.3h40.76c0.17,0,0.3,0.13,0.3,0.3
			v49.25c0,0.08-0.03,0.16-0.09,0.21l-8.36,8.35C37.01,62.34,36.94,62.37,36.86,62.37z M4.76,61.77h31.97l8.19-8.18V4.76H4.76V61.77
			z"/>
	</g>
	<polygon class="st4" points="36.71,53.55 36.71,62.07 45.22,53.55 	"/>
	<g>
		<path class="st8" d="M36.71,62.35c-0.04,0-0.07-0.01-0.11-0.02c-0.1-0.04-0.17-0.14-0.17-0.26v-8.51c0-0.15,0.12-0.28,0.28-0.28
			h8.51c0.11,0,0.21,0.07,0.26,0.17c0.04,0.1,0.02,0.22-0.06,0.3l-8.51,8.51C36.85,62.32,36.78,62.35,36.71,62.35z M36.98,53.83
			v7.57l7.57-7.57H36.98z"/>
	</g>
	<polygon class="st2" points="37.58,53.74 37.58,61.4 44.63,53.74 	"/>
	<path class="st2" d="M37.46,61.7v-8.08h7.44L37.46,61.7z M37.7,53.86v7.23l6.65-7.23H37.7z"/>
	<g>
		<path class="st8" d="M36.71,62.37c-0.04,0-0.08-0.01-0.12-0.02c-0.11-0.05-0.18-0.16-0.18-0.28v-8.51c0-0.17,0.13-0.3,0.3-0.3
			h8.51c0.12,0,0.23,0.07,0.28,0.19c0.05,0.11,0.02,0.24-0.07,0.33l-8.51,8.51C36.86,62.34,36.78,62.37,36.71,62.37z M37.01,53.85
			v7.49l7.49-7.49H37.01z"/>
	</g>
	<g>
		<path class="st2" d="M30.07,48.99c-0.18,1.91-0.89,3.4-2.12,4.47c-1.23,1.07-2.87,1.6-4.91,1.6c-1.43,0-2.68-0.34-3.77-1.01
			c-1.09-0.68-1.92-1.64-2.52-2.88c-0.59-1.25-0.9-2.69-0.92-4.34v-1.67c0-1.69,0.3-3.18,0.9-4.46s1.46-2.28,2.58-2.98
			c1.12-0.7,2.41-1.05,3.88-1.05c1.98,0,3.57,0.54,4.77,1.6c1.21,1.07,1.91,2.58,2.1,4.54h-3.1c-0.15-1.29-0.52-2.22-1.12-2.79
			s-1.49-0.85-2.65-0.85c-1.35,0-2.39,0.49-3.12,1.48c-0.73,0.99-1.1,2.44-1.11,4.35v1.59c0,1.94,0.35,3.41,1.04,4.43
			c0.69,1.02,1.71,1.53,3.04,1.53c1.22,0,2.14-0.27,2.75-0.82c0.61-0.55,1-1.46,1.17-2.74H30.07z"/>
	</g>
	<g>
		<path class="st8" d="M22.07,55.27c-1.46,0-2.76-0.35-3.88-1.04c-1.12-0.69-1.99-1.69-2.59-2.97c-0.6-1.27-0.92-2.75-0.94-4.42
			v-1.68c0-1.71,0.31-3.24,0.92-4.55c0.61-1.32,1.5-2.35,2.65-3.06c1.15-0.71,2.49-1.08,3.99-1.08c2.02,0,3.67,0.56,4.9,1.66
			c1.24,1.1,1.97,2.67,2.17,4.67l0.02,0.22h-3.5l-0.02-0.18c-0.14-1.23-0.5-2.13-1.06-2.66c-0.56-0.53-1.41-0.8-2.51-0.8
			c-1.3,0-2.26,0.46-2.96,1.4c-0.7,0.95-1.06,2.38-1.07,4.24v1.59c0,1.89,0.34,3.34,1,4.32c0.66,0.97,1.6,1.44,2.88,1.44
			c1.17,0,2.05-0.26,2.62-0.77c0.57-0.51,0.95-1.39,1.1-2.62l0.02-0.17h3.5l-0.02,0.22c-0.18,1.95-0.92,3.5-2.18,4.6
			C25.84,54.71,24.15,55.27,22.07,55.27z M22.22,36.87c-1.42,0-2.69,0.34-3.77,1.02c-1.08,0.67-1.92,1.65-2.5,2.89
			c-0.58,1.25-0.88,2.73-0.88,4.38v1.67c0.02,1.61,0.33,3.04,0.9,4.26c0.57,1.2,1.39,2.15,2.44,2.8c1.05,0.65,2.28,0.98,3.66,0.98
			c1.98,0,3.59-0.52,4.78-1.56c1.14-0.99,1.82-2.38,2.02-4.12h-2.7c-0.18,1.23-0.59,2.14-1.21,2.69c-0.65,0.58-1.62,0.88-2.89,0.88
			c-1.4,0-2.48-0.54-3.21-1.61c-0.71-1.05-1.07-2.58-1.07-4.54v-1.59c0.02-1.95,0.4-3.45,1.15-4.47c0.76-1.04,1.86-1.56,3.28-1.56
			c1.21,0,2.15,0.31,2.79,0.91c0.61,0.57,1,1.49,1.16,2.73h2.7c-0.22-1.79-0.9-3.2-2.01-4.19C25.69,37.39,24.13,36.87,22.22,36.87z"
			/>
	</g>
	<g>
		<path class="st2" d="M23.91,40.25V22.34h6.14c2.03,0,3.57,0.41,4.62,1.22c1.06,0.81,1.59,2.02,1.59,3.63
			c0,0.82-0.22,1.56-0.66,2.21c-0.44,0.66-1.09,1.16-1.94,1.52c0.97,0.26,1.72,0.76,2.25,1.48c0.53,0.73,0.79,1.6,0.79,2.61
			c0,1.68-0.54,2.97-1.62,3.87c-1.08,0.9-2.62,1.35-4.63,1.35H23.91z M27.02,29.88h3.05c0.97,0,1.72-0.22,2.27-0.66
			s0.82-1.06,0.82-1.86c0-0.89-0.25-1.53-0.76-1.92c-0.5-0.39-1.29-0.59-2.36-0.59h-3.03V29.88z M27.02,32.17v5.6h3.46
			c0.98,0,1.74-0.24,2.29-0.73c0.55-0.48,0.82-1.16,0.82-2.02c0-1.86-0.95-2.81-2.85-2.85H27.02z"/>
	</g>
	<g>
		<path class="st8" d="M29.46,40.45h-6.73V22.14h6.34c2.06,0,3.66,0.42,4.75,1.26c1.1,0.85,1.66,2.12,1.66,3.79
			c0,0.86-0.24,1.64-0.7,2.33c-0.38,0.56-0.91,1.02-1.57,1.38c0.78,0.3,1.41,0.77,1.87,1.4c0.55,0.76,0.83,1.68,0.83,2.73
			c0,1.73-0.57,3.09-1.69,4.03C33.11,39.97,31.51,40.45,29.46,40.45z M23.13,40.05h6.33c1.95,0,3.47-0.44,4.5-1.31
			c1.03-0.86,1.54-2.11,1.54-3.72c0-0.97-0.25-1.81-0.75-2.5c-0.5-0.68-1.22-1.16-2.14-1.41l-0.56-0.15l0.53-0.23
			c0.81-0.34,1.44-0.83,1.86-1.45c0.42-0.62,0.63-1.33,0.63-2.1c0-1.53-0.51-2.7-1.51-3.47c-1.02-0.78-2.53-1.18-4.5-1.18h-5.94
			V40.05z M29.5,37.96h-3.66v-6h3.92c2.03,0.04,3.05,1.07,3.05,3.05c0,0.92-0.3,1.65-0.89,2.17C31.34,37.7,30.52,37.96,29.5,37.96z
			 M26.25,37.56h3.26c0.92,0,1.65-0.23,2.16-0.68c0.51-0.45,0.76-1.06,0.76-1.87c0-1.75-0.87-2.61-2.66-2.65h-3.51V37.56z
			 M29.1,30.08h-3.25v-5.43h3.23c1.11,0,1.94,0.21,2.48,0.63c0.55,0.43,0.83,1.13,0.83,2.08c0,0.86-0.3,1.54-0.89,2.02
			C30.91,29.84,30.11,30.08,29.1,30.08z M26.25,29.68h2.85c0.92,0,1.64-0.21,2.14-0.61c0.5-0.4,0.74-0.96,0.74-1.71
			c0-0.82-0.23-1.41-0.68-1.76c-0.47-0.36-1.22-0.55-2.23-0.55h-2.83V29.68z"/>
	</g>
	<g>
		<path class="st2" d="M23.63,24.7H16.7l-1.45,4.17h-3.23l6.76-17.91h2.79l6.78,17.91H25.1L23.63,24.7z M17.57,22.19h5.19l-2.6-7.43
			L17.57,22.19z"/>
	</g>
	<g>
		<path class="st8" d="M27.66,29.07h-3.68l-1.46-4.17h-6.65l-1.45,4.17h-3.67l6.92-18.31h3.07L27.66,29.07z M24.26,28.67h2.82
			l-6.63-17.51h-2.52l-6.61,17.51h2.8l1.45-4.17h7.22L24.26,28.67z M22.06,22.39h-5.75l2.88-8.24L22.06,22.39z M16.87,21.99h4.63
			l-2.31-6.62L16.87,21.99z"/>
	</g>
</g>
</svg>
