<?xml version="1.0" encoding="utf-8"?>
<!-- Generator: Adobe Illustrator 26.0.2, SVG Export Plug-In . SVG Version: 6.00 Build 0)  -->
<svg version="1.1" id="Ebene_1" xmlns="http://www.w3.org/2000/svg" xmlns:xlink="http://www.w3.org/1999/xlink" x="0px" y="0px"
	 viewBox="0 0 45.81 62.64" style="enable-background:new 0 0 45.81 62.64;" xml:space="preserve">
<style type="text/css">
	.st0{clip-path:url(#SVGID_00000094588627758224667960000015120374489552600722_);fill:#6796CF;}
	.st1{clip-path:url(#SVGID_00000094588627758224667960000015120374489552600722_);fill:#2B2961;}
	.st2{fill:#6796CF;}
	.st3{clip-path:url(#SVGID_00000005977866397980594600000004896322473313017268_);fill:#2B2961;}
	.st4{fill:#FFFFFF;}
	.st5{clip-path:url(#SVGID_00000149382629384177510090000016763502987663396261_);fill:#2B2961;}
	.st6{clip-path:url(#SVGID_00000042719272587755139630000002599269565236612261_);fill:#2B2961;}
	.st7{clip-path:url(#SVGID_00000020357140904571934860000016887911878355628424_);fill:#2B2961;}
	.st8{fill:#2B2961;}
	.st9{clip-path:url(#SVGID_00000057143797849075512890000008278005329122426774_);fill:#6796CF;}
	.st10{clip-path:url(#SVGID_00000057143797849075512890000008278005329122426774_);fill:#2B2961;}
	.st11{clip-path:url(#SVGID_00000054960834494121952460000011918690862947999416_);fill:#2B2961;}
	.st12{clip-path:url(#SVGID_00000093152924142913085290000007613657671520318104_);fill:#2B2961;}
	.st13{clip-path:url(#SVGID_00000093152924142913085290000007613657671520318104_);fill:#6796CF;}
	.st14{clip-path:url(#SVGID_00000078002807771090158750000008023069960854542779_);fill:#2B2961;}
	.st15{clip-path:url(#SVGID_00000014625185023613016090000006475406619589475993_);fill:#2B2961;}
	.st16{clip-path:url(#SVGID_00000182517145620688339890000015460240414349841076_);fill:#2B2961;}
	.st17{clip-path:url(#SVGID_00000182517145620688339890000015460240414349841076_);fill:#6796CF;}
	.st18{clip-path:url(#SVGID_00000133489836449114880240000007774754883963473066_);fill:#2B2961;}
	.st19{clip-path:url(#SVGID_00000163040858507469087690000004344694408817142453_);fill:#2B2961;}
	.st20{clip-path:url(#SVGID_00000018931237696901685550000007578146007878952123_);fill:#2B2961;}
	.st21{clip-path:url(#SVGID_00000042010591818254386080000010106488342190721187_);fill:#2B2961;}
	.st22{clip-path:url(#SVGID_00000144297009564545926530000009524351282036393366_);fill:#6796CF;}
	.st23{clip-path:url(#SVGID_00000144297009564545926530000009524351282036393366_);fill:#2B2961;}
	.st24{clip-path:url(#SVGID_00000048482171575817959760000016577713436325801404_);fill:#2B2961;}
	.st25{clip-path:url(#SVGID_00000028298448822275274970000001491064573624100236_);fill:#2B2961;}
	.st26{clip-path:url(#SVGID_00000028298448822275274970000001491064573624100236_);fill:#6796CF;}
	.st27{clip-path:url(#SVGID_00000054944268365812212810000010000165916896298650_);fill:#2B2961;}
	.st28{clip-path:url(#SVGID_00000181774156128668582460000010590556129343226762_);fill:#2B2961;}
	.st29{clip-path:url(#SVGID_00000058579106378290273920000016782555727166677136_);fill:#2B2961;}
	.st30{clip-path:url(#SVGID_00000058579106378290273920000016782555727166677136_);fill:#6796CF;}
	.st31{clip-path:url(#SVGID_00000125593118138211836540000012305178014907003042_);fill:#2B2961;}
	.st32{clip-path:url(#SVGID_00000003066394882439772140000008643172215963029889_);fill:#6796CF;}
	.st33{clip-path:url(#SVGID_00000003066394882439772140000008643172215963029889_);fill:#2B2961;}
	.st34{clip-path:url(#SVGID_00000032606321229892169400000015426626424831441851_);fill:#2B2961;}
	.st35{clip-path:url(#SVGID_00000032606321229892169400000015426626424831441851_);fill:#6796CF;}
	.st36{clip-path:url(#SVGID_00000078011005300203254120000007629394408258647190_);fill:#2B2961;}
	.st37{clip-path:url(#SVGID_00000023280875101994061500000013340666205906696841_);fill:#FFFFFF;}
	.st38{clip-path:url(#SVGID_00000023280875101994061500000013340666205906696841_);fill:#2B2961;}
	.st39{clip-path:url(#SVGID_00000176016764288376572090000003684056445231250090_);fill:#FFFFFF;}
	.st40{clip-path:url(#SVGID_00000176016764288376572090000003684056445231250090_);fill:#2B2961;}
	.st41{clip-path:url(#SVGID_00000178896165874266625920000000509305878401693112_);fill:#6796CF;}
	.st42{clip-path:url(#SVGID_00000178896165874266625920000000509305878401693112_);fill:#2B2961;}
	.st43{clip-path:url(#SVGID_00000098943202689472914670000008301953331173513918_);fill:#2B2961;}
	.st44{clip-path:url(#SVGID_00000001641763784603924340000002506703326628587435_);fill:#6796CF;}
	.st45{clip-path:url(#SVGID_00000001641763784603924340000002506703326628587435_);fill:#2B2961;}
	.st46{clip-path:url(#SVGID_00000163072385786733473480000017155430138665573270_);fill:#2B2961;}
	.st47{clip-path:url(#SVGID_00000075871337580240197040000007721555749844200321_);fill:#2B2961;}
	.st48{clip-path:url(#SVGID_00000075871337580240197040000007721555749844200321_);fill:#6796CF;}
	.st49{clip-path:url(#SVGID_00000021805915847676906970000011451111003241539252_);fill:#2B2961;}
	.st50{clip-path:url(#SVGID_00000137826534868850748720000002511604500465355665_);fill:#2B2961;}
	.st51{clip-path:url(#SVGID_00000160870672604572171270000015973381457047183501_);fill:#2B2961;}
	.st52{clip-path:url(#SVGID_00000160870672604572171270000015973381457047183501_);fill:#6796CF;}
	.st53{clip-path:url(#SVGID_00000087390654523533752060000018011247017944305827_);fill:#2B2961;}
	.st54{clip-path:url(#SVGID_00000077293857813538478460000005987519249801304754_);fill:#2B2961;}
	.st55{clip-path:url(#SVGID_00000035524247368100625260000012745574281607162258_);fill:#2B2961;}
	.st56{clip-path:url(#SVGID_00000013193239723887290620000001414137741471513020_);fill:#2B2961;}
	.st57{clip-path:url(#SVGID_00000035524330908962933400000013708072952359487922_);fill:#6796CF;}
	.st58{clip-path:url(#SVGID_00000068674669997025020330000018188658724135518908_);fill:#2B2961;}
	.st59{clip-path:url(#SVGID_00000031170856578826299300000013512268460365583488_);fill:#2B2961;}
	.st60{clip-path:url(#SVGID_00000022532127914881459690000009189035729149649302_);fill:#6796CF;}
	.st61{clip-path:url(#SVGID_00000005962167262479093050000008292453384753180823_);fill:#2B2961;}
	.st62{clip-path:url(#SVGID_00000011011177517116219530000005758434396414304403_);fill:#2B2961;}
	.st63{clip-path:url(#SVGID_00000011011177517116219530000005758434396414304403_);fill:#6796CF;}
	.st64{clip-path:url(#SVGID_00000165936465486411163060000011192273504174729617_);fill:#2B2961;}
	.st65{clip-path:url(#SVGID_00000084528147538919547020000013981976035361281925_);fill:#6796CF;}
	.st66{clip-path:url(#SVGID_00000084528147538919547020000013981976035361281925_);fill:#2B2961;}
	.st67{clip-path:url(#SVGID_00000075139906284383124850000013754164449374952079_);fill:#2B2961;}
	.st68{clip-path:url(#SVGID_00000155148699531614604510000005817952891554068410_);fill:#2B2961;}
	.st69{clip-path:url(#SVGID_00000155148699531614604510000005817952891554068410_);fill:#6796CF;}
	.st70{clip-path:url(#SVGID_00000121244820828244815710000017849726336987138707_);fill:#2B2961;}
	.st71{clip-path:url(#SVGID_00000074438810684047802780000011694122416190581636_);fill:#2B2961;}
	.st72{clip-path:url(#SVGID_00000021085299845470356340000012286026852095763368_);fill:#2B2961;}
	.st73{clip-path:url(#SVGID_00000021085299845470356340000012286026852095763368_);fill:#6796CF;}
	.st74{clip-path:url(#SVGID_00000101819503434445637870000012434423259439087003_);fill:#2B2961;}
	.st75{clip-path:url(#SVGID_00000090275463094927000740000017858089017562046351_);fill:#2B2961;}
	.st76{clip-path:url(#SVGID_00000178907560657741516410000018147359531968286607_);fill:#2B2961;}
	.st77{clip-path:url(#SVGID_00000163039531046027269610000001116148426317935250_);fill:#2B2961;}
	.st78{clip-path:url(#SVGID_00000029762959347137526150000007380327130531371398_);fill:#6796CF;}
	.st79{clip-path:url(#SVGID_00000029762959347137526150000007380327130531371398_);fill:#2B2961;}
	.st80{clip-path:url(#SVGID_00000142864324715526823920000001534609501742111144_);fill:#FFFFFF;}
	.st81{clip-path:url(#SVGID_00000142864324715526823920000001534609501742111144_);fill:#2B2961;}
	.st82{clip-path:url(#SVGID_00000074418378643721370460000006794705698460987575_);fill:#2B2961;}
	.st83{clip-path:url(#SVGID_00000062157248130784864100000009162882369145780914_);fill:#2B2961;}
	.st84{clip-path:url(#SVGID_00000062157248130784864100000009162882369145780914_);fill:#6796CF;}
	.st85{clip-path:url(#SVGID_00000135681443937246788420000007627787650878078362_);fill:#2B2961;}
	.st86{clip-path:url(#SVGID_00000084488754167112060790000011986694213263743630_);fill:#2B2961;}
	.st87{clip-path:url(#SVGID_00000084488754167112060790000011986694213263743630_);fill:#FFFFFF;}
	.st88{clip-path:url(#SVGID_00000156547276600550481140000016052541815894853785_);fill:#6796CF;}
	.st89{clip-path:url(#SVGID_00000156547276600550481140000016052541815894853785_);fill:#2B2961;}
	.st90{clip-path:url(#SVGID_00000119104218347140910160000004989376165871869849_);fill:#2B2961;}
	.st91{clip-path:url(#SVGID_00000136412169948090577160000008105225861332242858_);fill:#2B2961;}
	.st92{clip-path:url(#SVGID_00000136412169948090577160000008105225861332242858_);fill:#6796CF;}
	.st93{clip-path:url(#SVGID_00000127759216727556433830000005420642546561822601_);fill:#2B2961;}
	.st94{clip-path:url(#SVGID_00000127759216727556433830000005420642546561822601_);fill:#FFFFFF;}
	.st95{clip-path:url(#SVGID_00000024717721526998883500000004132000828465142673_);fill:#6796CF;}
	.st96{clip-path:url(#SVGID_00000024717721526998883500000004132000828465142673_);fill:#2B2961;}
	.st97{clip-path:url(#SVGID_00000024717721526998883500000004132000828465142673_);fill:#FFFFFF;}
	.st98{clip-path:url(#SVGID_00000147931590640689540210000001445185565901222071_);fill:#2B2961;}
	.st99{clip-path:url(#SVGID_00000147931590640689540210000001445185565901222071_);fill:#6796CF;}
	.st100{clip-path:url(#SVGID_00000098217381314088432900000008046249647921681570_);fill:#2B2961;}
	.st101{clip-path:url(#SVGID_00000129884815866795509050000002339223672080328888_);fill:#2B2961;}
	.st102{clip-path:url(#SVGID_00000018926642804872749980000001213060355938617225_);fill:#2B2961;}
	.st103{clip-path:url(#SVGID_00000160871069712701270380000015220524628870947203_);fill:#2B2961;}
	.st104{clip-path:url(#SVGID_00000139284126266964780050000016295697109173100725_);fill:#2B2961;}
	.st105{clip-path:url(#SVGID_00000134950423193765103780000013687284413566914699_);fill:#FFFFFF;}
	.st106{clip-path:url(#SVGID_00000134950423193765103780000013687284413566914699_);fill:#2B2961;}
	.st107{clip-path:url(#SVGID_00000134950423193765103780000013687284413566914699_);fill:#6796CF;}
	.st108{clip-path:url(#SVGID_00000019680250562848813240000009052246930647894708_);fill:#FFFFFF;}
	.st109{clip-path:url(#SVGID_00000084499803245453093140000006878318128798014093_);fill:#2B2961;}
	.st110{clip-path:url(#SVGID_00000084499803245453093140000006878318128798014093_);fill:#FFFFFF;}
	.st111{clip-path:url(#SVGID_00000023994713327195161600000003008189338304133000_);fill:#2B2961;}
	.st112{clip-path:url(#SVGID_00000183248352523895714630000007040517741496413321_);fill:#2B2961;}
	.st113{clip-path:url(#SVGID_00000183248352523895714630000007040517741496413321_);fill:#6796CF;}
	.st114{clip-path:url(#SVGID_00000171691373497175658440000012252183694225015703_);fill:#2B2961;}
	.st115{clip-path:url(#SVGID_00000139281155223092953310000003640325117334504106_);fill:#2B2961;}
	.st116{clip-path:url(#SVGID_00000139281155223092953310000003640325117334504106_);fill:#FFFFFF;}
	.st117{clip-path:url(#SVGID_00000139291978320886313870000018321597396656949430_);fill:#6796CF;}
	.st118{clip-path:url(#SVGID_00000024000781601459001180000007394289906577011624_);fill:#2B2961;}
	.st119{clip-path:url(#SVGID_00000072976335575196539150000004724276866064227207_);fill:#2B2961;}
	.st120{clip-path:url(#SVGID_00000029745022623936350710000001047743068733472657_);fill:#FFFFFF;}
	.st121{clip-path:url(#SVGID_00000029745022623936350710000001047743068733472657_);fill:#2B2961;}
	.st122{clip-path:url(#SVGID_00000085224549190101137300000008408810312824599712_);fill:#FFFFFF;}
	.st123{clip-path:url(#SVGID_00000085224549190101137300000008408810312824599712_);fill:#2B2961;}
	.st124{clip-path:url(#SVGID_00000003091239812045299380000004521673142350398115_);fill:#6796CF;}
	.st125{clip-path:url(#SVGID_00000003091239812045299380000004521673142350398115_);fill:#2B2961;}
	.st126{clip-path:url(#SVGID_00000124869190238513286720000000236462083658701748_);fill:#2B2961;}
	.st127{clip-path:url(#SVGID_00000124869190238513286720000000236462083658701748_);fill:#6796CF;}
	.st128{clip-path:url(#SVGID_00000135667265860231053320000005979738009703682954_);fill:#6796CF;}
	.st129{clip-path:url(#SVGID_00000108278605971045531410000016526694421652171447_);fill:#2B2961;}
	.st130{clip-path:url(#SVGID_00000041277712597878280770000002284983201377756075_);fill:#2B2961;}
	.st131{clip-path:url(#SVGID_00000159452161292172334680000008878119850426987689_);fill:#2B2961;}
	.st132{clip-path:url(#SVGID_00000098194659740594176440000002646210856044509057_);fill:#2B2961;}
	.st133{clip-path:url(#SVGID_00000146463473261218688830000012895654592723487110_);fill:#2B2961;}
	.st134{clip-path:url(#SVGID_00000146463473261218688830000012895654592723487110_);fill:#6796CF;}
	.st135{clip-path:url(#SVGID_00000158707147197451084820000000818941620909373832_);fill:#6796CF;}
	.st136{clip-path:url(#SVGID_00000124127136814382551640000018297711625539466155_);fill:#2B2961;}
	.st137{clip-path:url(#SVGID_00000036937323034232165440000009586453941760580018_);fill:#2B2961;}
	.st138{clip-path:url(#SVGID_00000102529721537637447220000001076138371748014013_);fill:#2B2961;}
	.st139{clip-path:url(#SVGID_00000170972905595752558740000012551379891240893600_);fill:#2B2961;}
	.st140{clip-path:url(#SVGID_00000066506288875366264720000015111865600678162579_);fill:#6796CF;}
	.st141{clip-path:url(#SVGID_00000066506288875366264720000015111865600678162579_);fill:#2B2961;}
	.st142{clip-path:url(#SVGID_00000072260427658572399700000008223839731548656800_);fill:#2B2961;}
	.st143{clip-path:url(#SVGID_00000052821222420778760600000004625754161105946502_);fill:#2B2961;}
	.st144{clip-path:url(#SVGID_00000119083992430676656670000017418722473019294344_);fill:#2B2961;}
	.st145{clip-path:url(#SVGID_00000119083992430676656670000017418722473019294344_);fill:#6796CF;}
	.st146{clip-path:url(#SVGID_00000143615732018505627300000018419975108403645829_);}
	.st147{clip-path:url(#SVGID_00000143615732018505627300000018419975108403645829_);fill:#FFFFFF;}
	.st148{clip-path:url(#SVGID_00000143615732018505627300000018419975108403645829_);fill:#2B2961;}
	.st149{clip-path:url(#SVGID_00000114053267153843968490000015651225328585066644_);fill:#2B2961;}
	.st150{clip-path:url(#SVGID_00000159443689562852965740000013630195149206145465_);fill:#2B2961;}
	.st151{clip-path:url(#SVGID_00000159443689562852965740000013630195149206145465_);fill:#FFFFFF;}
	.st152{clip-path:url(#SVGID_00000159443689562852965740000013630195149206145465_);fill:#6796CF;}
	.st153{clip-path:url(#SVGID_00000059295178832494172200000015516280508299341964_);fill:#2B2961;}
	.st154{clip-path:url(#SVGID_00000023281979287316975610000014761305046692622477_);fill:#2B2961;}
	.st155{clip-path:url(#SVGID_00000087390329182480943590000012529298282320650680_);fill:#6796CF;}
	.st156{clip-path:url(#SVGID_00000087390329182480943590000012529298282320650680_);}
	.st157{clip-path:url(#SVGID_00000126294519329097557960000014536559645472829600_);fill:#2B2961;}
	.st158{clip-path:url(#SVGID_00000087390329182480943590000012529298282320650680_);fill:#FFFFFF;}
	.st159{clip-path:url(#SVGID_00000087390329182480943590000012529298282320650680_);fill:#2B2961;}
	.st160{opacity:0.52;clip-path:url(#SVGID_00000029732603820035976030000016802990379456866715_);}
	.st161{clip-path:url(#SVGID_00000062890180424873728000000013133356270165666715_);fill:#6796CF;}
	.st162{clip-path:url(#SVGID_00000114034667879418978290000002752232792082959242_);fill:#2B2961;}
	.st163{clip-path:url(#SVGID_00000127037045720307959210000013084254127611975089_);fill:#2B2961;}
	.st164{clip-path:url(#SVGID_00000116939031497242138970000017177135982692871827_);fill:#6796CF;}
	.st165{clip-path:url(#SVGID_00000116939031497242138970000017177135982692871827_);fill:#2B2961;}
	.st166{clip-path:url(#SVGID_00000027578556971391636690000011431551091647731620_);fill:#2B2961;}
	.st167{clip-path:url(#SVGID_00000124142152817390999140000013149505936026777483_);fill:#2B2961;}
	.st168{clip-path:url(#SVGID_00000136385001381566049670000005354305060598813060_);fill:#2B2961;}
	.st169{clip-path:url(#SVGID_00000120544054024837483370000015541553977565659285_);fill:#FFFFFF;}
	.st170{clip-path:url(#SVGID_00000120544054024837483370000015541553977565659285_);fill:#2B2961;}
	.st171{clip-path:url(#SVGID_00000120544054024837483370000015541553977565659285_);fill:#6796CF;}
	.st172{clip-path:url(#SVGID_00000030468129612352521580000013009502412909130683_);fill:#6796CF;}
	.st173{clip-path:url(#SVGID_00000094590102837015663720000003923576351118962817_);fill:#2B2961;}
	.st174{clip-path:url(#SVGID_00000171702748531786022820000008790933815792460184_);fill:#2B2961;}
	.st175{clip-path:url(#SVGID_00000171702748531786022820000008790933815792460184_);fill:#FFFFFF;}
	.st176{clip-path:url(#SVGID_00000029022897445411200930000018314449624577845689_);fill:#6796CF;}
	.st177{clip-path:url(#SVGID_00000029022897445411200930000018314449624577845689_);fill:#2B2961;}
	.st178{clip-path:url(#SVGID_00000016060664531993950450000001269015764123882915_);fill:#6796CF;}
	.st179{clip-path:url(#SVGID_00000016060664531993950450000001269015764123882915_);fill:#2B2961;}
	.st180{clip-path:url(#SVGID_00000057857454919074378330000006104341643245517475_);fill:#2B2961;}
	.st181{clip-path:url(#SVGID_00000089572331597656579250000007172807669539987111_);fill:#2B2961;}
	.st182{clip-path:url(#SVGID_00000083805687292211641160000011574114908058480280_);fill:#FFFFFF;}
	.st183{clip-path:url(#SVGID_00000150788899969269361920000007967732417461494923_);fill:#2B2961;}
	.st184{clip-path:url(#SVGID_00000126312324299670375970000001993329914655210675_);fill:#2B2961;}
	.st185{clip-path:url(#SVGID_00000126312324299670375970000001993329914655210675_);fill:#6796CF;}
	.st186{clip-path:url(#SVGID_00000049912908953277057520000018383599368945227421_);fill:#2B2961;}
	.st187{clip-path:url(#SVGID_00000059302636156141147800000008027211336752093885_);fill:#2B2961;}
	.st188{clip-path:url(#SVGID_00000162352747335320403640000001600865040662013576_);fill:#6796CF;}
	.st189{clip-path:url(#SVGID_00000011031407214752729040000000404401770662897339_);fill:#2B2961;}
	.st190{clip-path:url(#SVGID_00000100362196924552708350000009435887543017492153_);fill:#6796CF;}
	.st191{clip-path:url(#SVGID_00000027568574615495564400000015556009872439067035_);fill:#2B2961;}
	.st192{clip-path:url(#SVGID_00000036961835516365497510000009116810162914459554_);fill:#6796CF;}
	.st193{clip-path:url(#SVGID_00000022536472404567544280000014973865592997904808_);fill:#2B2961;}
	.st194{clip-path:url(#SVGID_00000020360980293181018130000011451522964344985479_);}
	.st195{clip-path:url(#SVGID_00000020360980293181018130000011451522964344985479_);fill:#2B2961;}
	.st196{clip-path:url(#SVGID_00000020360980293181018130000011451522964344985479_);fill:#FFFFFF;}
	.st197{clip-path:url(#SVGID_00000062189154487851353360000004142154132201847170_);fill:#2B2961;}
	.st198{clip-path:url(#SVGID_00000110443932466970612840000018283902727363645880_);fill:#2B2961;}
	.st199{clip-path:url(#SVGID_00000024689728200503192370000012514657764296005799_);fill:#2B2961;}
	.st200{clip-path:url(#SVGID_00000148654229052142162600000002120962773039602818_);fill:#2B2961;}
	.st201{clip-path:url(#SVGID_00000047764964452204750330000012386705306216308363_);fill:#2B2961;}
	.st202{clip-path:url(#SVGID_00000096740234085778554150000016974614287388503738_);fill:#2B2961;}
	.st203{clip-path:url(#SVGID_00000106853017094551431100000012071868201650563258_);fill:#2B2961;}
	.st204{clip-path:url(#SVGID_00000029014761380552731170000001420350139314278324_);fill:#2B2961;}
	.st205{clip-path:url(#SVGID_00000067952955100072824950000016901078325272858036_);fill:#2B2961;}
	.st206{clip-path:url(#SVGID_00000000189394155168717230000009218845021006035631_);fill:#FFFFFF;}
	.st207{clip-path:url(#SVGID_00000000189394155168717230000009218845021006035631_);fill:#2B2961;}
	.st208{clip-path:url(#SVGID_00000031190138047752783380000017330197662133504410_);fill:#6796CF;}
	.st209{clip-path:url(#SVGID_00000031190138047752783380000017330197662133504410_);fill:#2B2961;}
	.st210{clip-path:url(#SVGID_00000109732008330758191080000012630287570141925783_);fill:#2B2961;}
	.st211{clip-path:url(#SVGID_00000109732008330758191080000012630287570141925783_);fill:#FFFFFF;}
	.st212{clip-path:url(#SVGID_00000072238023034589835170000011347705298714732956_);fill:#6796CF;}
	.st213{clip-path:url(#SVGID_00000072238023034589835170000011347705298714732956_);fill:#2B2961;}
	.st214{clip-path:url(#SVGID_00000141422801635740023660000006121406480850004385_);fill:#6796CF;}
	.st215{clip-path:url(#SVGID_00000141422801635740023660000006121406480850004385_);fill:#2B2961;}
	.st216{clip-path:url(#SVGID_00000086664758973105508330000005809051577736236179_);}
	.st217{clip-path:url(#SVGID_00000079469820686869779070000013818753953529810854_);}
	.st218{clip-path:url(#SVGID_00000152976438965410050220000017357580963332667782_);}
	.st219{clip-path:url(#SVGID_00000021803350105018870620000004803012115733515682_);}
	.st220{clip-path:url(#SVGID_00000137089591588800928510000007418478350533046688_);}
	.st221{clip-path:url(#SVGID_00000170994933724789694920000006490053698615839894_);}
	.st222{clip-path:url(#SVGID_00000117678551532664788930000017523445937734269581_);}
	.st223{clip-path:url(#SVGID_00000061433325540493785530000013156966598222420387_);}
	.st224{clip-path:url(#SVGID_00000042736972994394470390000015495341098271601817_);}
	.st225{clip-path:url(#SVGID_00000151538633962301996320000009401702297308650891_);}
	.st226{clip-path:url(#SVGID_00000034800402984154985320000002661711232427515564_);}
	.st227{clip-path:url(#SVGID_00000070815313713676910590000009434891701485883549_);}
	.st228{clip-path:url(#SVGID_00000129894983201786562370000007419172044938858396_);}
	.st229{clip-path:url(#SVGID_00000090982629281763717720000016021496553901552514_);}
	.st230{clip-path:url(#SVGID_00000160898441864956625050000015788323159426649239_);fill:#2B2961;}
	.st231{clip-path:url(#SVGID_00000160898441864956625050000015788323159426649239_);fill:#6796CF;}
	.st232{fill:#A2B9E1;}
	.st233{clip-path:url(#SVGID_00000118373095264748812750000014056999578473554339_);}
	.st234{clip-path:url(#SVGID_00000039842499818140707080000012101790682828185273_);}
</style>
<g>
	<polygon class="st2" points="1.64,0.33 1.64,58.08 30.94,58.08 41.53,42.8 41.53,0.33 	"/>
	<path class="st2" d="M31.01,58.2H1.52V0.21h40.13v42.63l-0.02,0.03L31.01,58.2z M1.76,57.97h29.12l10.53-15.2V0.45H1.76V57.97z"/>
	<g>
		<path class="st8" d="M41.24,58.46H0.3c-0.17,0-0.3-0.13-0.3-0.3V0.3C0,0.13,0.13,0,0.3,0h40.94c0.17,0,0.3,0.13,0.3,0.3v57.86
			C41.54,58.33,41.41,58.46,41.24,58.46z M0.6,57.86h40.34V0.6H0.6V57.86z"/>
	</g>
	<polygon class="st4" points="4.48,4.48 4.48,62.34 37.02,62.34 45.42,53.95 45.42,4.48 	"/>
	<g>
		<path class="st8" d="M37.02,62.64H4.48c-0.17,0-0.3-0.13-0.3-0.3V4.48c0-0.17,0.13-0.3,0.3-0.3h40.94c0.17,0,0.3,0.13,0.3,0.3
			v49.47c0,0.08-0.03,0.16-0.09,0.21l-8.4,8.39C37.18,62.61,37.1,62.64,37.02,62.64z M4.78,62.04H36.9l8.22-8.21V4.78H4.78V62.04z"
			/>
	</g>
	<polygon class="st4" points="36.87,53.79 36.87,62.34 45.43,53.79 	"/>
	<g>
		<path class="st8" d="M36.87,62.62c-0.04,0-0.07-0.01-0.11-0.02c-0.1-0.04-0.17-0.14-0.17-0.26v-8.56c0-0.15,0.12-0.28,0.28-0.28
			h8.55c0.11,0,0.21,0.07,0.26,0.17c0.04,0.1,0.02,0.22-0.06,0.3l-8.55,8.56C37.01,62.59,36.94,62.62,36.87,62.62z M37.15,54.06
			v7.61l7.61-7.61H37.15z"/>
	</g>
	<polygon class="st2" points="37.62,53.93 45.44,53.93 37.62,61.64 	"/>
	<path class="st2" d="M37.58,61.84v-8.11h8.23L37.58,61.84z M37.82,53.97v7.3l7.41-7.3H37.82z"/>
	<g>
		<path class="st8" d="M36.87,62.64c-0.04,0-0.08-0.01-0.12-0.02c-0.11-0.05-0.18-0.16-0.18-0.28v-8.56c0-0.17,0.13-0.3,0.3-0.3
			h8.55c0.12,0,0.23,0.07,0.28,0.19c0.05,0.11,0.02,0.24-0.07,0.33l-8.55,8.56C37.03,62.61,36.95,62.64,36.87,62.64z M37.17,54.09
			v7.53l7.53-7.53H37.17z"/>
	</g>
	<polygon class="st2" points="24.03,19.68 24.03,22.07 32.08,23.32 32.11,20.92 	"/>
	<polygon class="st2" points="16.1,39.47 16.1,40.79 20.77,41.55 20.78,40.23 	"/>
	<g>
		<path class="st2" d="M21.24,31.99c-1.27,0.11-2.21,1.26-2.09,2.56c0.11,1.3,1.23,2.26,2.49,2.14c1.27-0.11,2.21-1.26,2.09-2.56
			C23.62,32.84,22.5,31.88,21.24,31.99"/>
		<path class="st2" d="M14.64,46.44c-0.61,0.06-1.07,0.61-1.01,1.24c0.05,0.63,0.59,1.09,1.21,1.04c0.61-0.06,1.07-0.61,1.01-1.24
			C15.8,46.85,15.26,46.38,14.64,46.44"/>
		<path class="st2" d="M19.32,47.23c-0.61,0.06-1.07,0.61-1.01,1.24c0.05,0.63,0.59,1.09,1.21,1.04c0.61-0.06,1.07-0.61,1.01-1.24
			C20.47,47.64,19.93,47.17,19.32,47.23"/>
		<path class="st2" d="M11.16,38.79c-1.04,0.09-1.81,1.04-1.72,2.1c0.09,1.07,1.01,1.86,2.05,1.76c1.04-0.09,1.81-1.03,1.72-2.1
			C13.12,39.49,12.2,38.7,11.16,38.79"/>
		<path class="st2" d="M39.78,22.49c-1.15,0.1-2,1.14-1.9,2.32c0.1,1.18,1.11,2.05,2.26,1.95c1.15-0.1,2-1.14,1.9-2.32
			C41.94,23.26,40.93,22.39,39.78,22.49"/>
		<path class="st2" d="M30.02,37.86c1.3,0,2.36-1.06,2.36-2.36c0-1.3-1.06-2.36-2.36-2.36c-1.31,0-2.36,1.06-2.36,2.36
			C27.65,36.8,28.71,37.86,30.02,37.86"/>
	</g>
	<path class="st8" d="M31.97,34.25c-0.11,0-0.2-0.09-0.2-0.2V23.58l-8.23-1.34v10.41c0,0.11-0.09,0.2-0.2,0.2s-0.2-0.09-0.2-0.2V22
		c0-0.06,0.03-0.11,0.07-0.15c0.05-0.04,0.11-0.06,0.16-0.04l8.63,1.4c0.1,0.02,0.17,0.1,0.17,0.2v10.65
		C32.17,34.16,32.08,34.25,31.97,34.25z"/>
	<path class="st8" d="M20.63,47.59c-0.11,0-0.2-0.09-0.2-0.2v-5.56l-4.2-0.69v5.49c0,0.11-0.09,0.2-0.2,0.2s-0.2-0.09-0.2-0.2v-5.73
		c0-0.06,0.03-0.11,0.07-0.15c0.05-0.04,0.11-0.05,0.16-0.04l4.6,0.75c0.1,0.02,0.17,0.1,0.17,0.2v5.73
		C20.83,47.5,20.74,47.59,20.63,47.59z"/>
	<path class="st8" d="M13.1,39.63c-0.11,0-0.2-0.09-0.2-0.2v-9.04c0-0.11,0.09-0.2,0.2-0.2s0.2,0.09,0.2,0.2v9.04
		C13.3,39.54,13.21,39.63,13.1,39.63z"/>
	<path class="st8" d="M42.21,23.99c-0.11,0-0.2-0.09-0.2-0.2v-9.04c0-0.11,0.09-0.2,0.2-0.2s0.2,0.09,0.2,0.2v9.04
		C42.41,23.9,42.32,23.99,42.21,23.99z"/>
	<path class="st8" d="M31.97,31.84c-0.11,0-0.2-0.09-0.2-0.2V21.16l-8.23-1.34v10.41c0,0.11-0.09,0.2-0.2,0.2s-0.2-0.09-0.2-0.2
		V19.59c0-0.06,0.03-0.11,0.07-0.15c0.05-0.04,0.11-0.05,0.16-0.04l8.63,1.4c0.1,0.02,0.17,0.1,0.17,0.2v10.65
		C32.17,31.75,32.08,31.84,31.97,31.84z"/>
	<path class="st8" d="M20.63,46.26c-0.11,0-0.2-0.09-0.2-0.2V40.5l-4.2-0.69v5.49c0,0.11-0.09,0.2-0.2,0.2s-0.2-0.09-0.2-0.2v-5.73
		c0-0.06,0.03-0.11,0.07-0.15c0.05-0.04,0.11-0.06,0.16-0.04l4.6,0.76c0.1,0.02,0.17,0.1,0.17,0.2v5.73
		C20.83,46.17,20.74,46.26,20.63,46.26z"/>
	<g>
		<path class="st8" d="M21.04,36.54c-0.61,0-1.19-0.21-1.66-0.61c-0.55-0.46-0.89-1.12-0.95-1.84c-0.12-1.47,0.95-2.78,2.39-2.91
			l0,0c0.69-0.06,1.36,0.15,1.89,0.6c0.55,0.46,0.89,1.12,0.95,1.84c0.12,1.48-0.94,2.78-2.39,2.91
			C21.19,36.54,21.11,36.54,21.04,36.54z M20.85,31.58c-1.22,0.11-2.13,1.22-2.02,2.48c0.05,0.62,0.34,1.18,0.81,1.57
			c0.45,0.38,1.03,0.56,1.6,0.51c1.22-0.11,2.13-1.22,2.02-2.48c-0.05-0.62-0.34-1.18-0.81-1.57C22,31.71,21.43,31.53,20.85,31.58
			L20.85,31.58z"/>
		<path class="st8" d="M14.68,48.84c-0.33,0-0.65-0.12-0.91-0.33c-0.3-0.25-0.49-0.61-0.52-1.01c-0.07-0.81,0.52-1.53,1.31-1.6
			c0.38-0.04,0.75,0.08,1.04,0.33c0.3,0.25,0.49,0.61,0.52,1.01c0.07,0.81-0.52,1.53-1.31,1.6C14.76,48.83,14.72,48.84,14.68,48.84z
			 M14.68,46.29c-0.03,0-0.06,0-0.09,0c-0.57,0.05-1,0.57-0.95,1.16c0.02,0.29,0.16,0.56,0.38,0.74c0.21,0.18,0.48,0.26,0.75,0.24
			c0.57-0.05,1-0.57,0.95-1.17c-0.02-0.29-0.16-0.55-0.38-0.74C15.15,46.37,14.92,46.29,14.68,46.29z"/>
		<path class="st8" d="M11.1,42.78c-0.52,0-1.01-0.18-1.42-0.52c-0.47-0.39-0.76-0.95-0.81-1.57c-0.11-1.26,0.8-2.37,2.04-2.48l0,0
			c0.59-0.05,1.16,0.13,1.62,0.51c0.47,0.39,0.76,0.95,0.81,1.57c0.11,1.26-0.81,2.37-2.04,2.48C11.23,42.78,11.16,42.78,11.1,42.78
			z M11.1,38.59c-0.05,0-0.11,0-0.16,0.01l0,0c-1.01,0.09-1.76,1.01-1.67,2.05c0.04,0.51,0.28,0.97,0.67,1.3
			c0.37,0.31,0.84,0.46,1.33,0.42c1.01-0.09,1.76-1.01,1.67-2.05c-0.04-0.51-0.28-0.98-0.67-1.3C11.93,38.74,11.53,38.59,11.1,38.59
			z"/>
		<path class="st8" d="M40.21,27.14c-0.52,0-1.01-0.18-1.42-0.52c-0.47-0.39-0.76-0.95-0.81-1.57c-0.11-1.26,0.8-2.37,2.04-2.48
			c0.59-0.05,1.16,0.13,1.62,0.51c0.47,0.39,0.76,0.95,0.81,1.57c0.11,1.26-0.81,2.37-2.04,2.48
			C40.35,27.14,40.28,27.14,40.21,27.14z M40.22,22.95c-0.05,0-0.11,0-0.16,0.01c-1.01,0.09-1.76,1.01-1.67,2.05
			c0.04,0.51,0.28,0.97,0.67,1.3c0.37,0.31,0.84,0.46,1.33,0.42c1.01-0.09,1.76-1.01,1.67-2.05c-0.04-0.51-0.28-0.98-0.67-1.3
			C41.05,23.1,40.64,22.95,40.22,22.95z"/>
		<path class="st8" d="M29.63,37.73c-1.45,0-2.63-1.2-2.63-2.69s1.18-2.69,2.63-2.69c1.45,0,2.62,1.2,2.62,2.69
			S31.08,37.73,29.63,37.73z M29.63,32.76c-1.23,0-2.23,1.02-2.23,2.28s1,2.28,2.23,2.28c1.23,0,2.22-1.02,2.22-2.28
			S30.86,32.76,29.63,32.76z"/>
		<path class="st8" d="M19.42,49.49c-0.79,0-1.44-0.66-1.44-1.48s0.65-1.48,1.44-1.48s1.44,0.66,1.44,1.48S20.21,49.49,19.42,49.49z
			 M19.42,46.94c-0.57,0-1.04,0.48-1.04,1.07s0.47,1.07,1.04,1.07s1.04-0.48,1.04-1.07S19.99,46.94,19.42,46.94z"/>
	</g>
</g>
</svg>
