<?xml version="1.0" encoding="utf-8"?>
<!-- Generator: Adobe Illustrator 26.0.2, SVG Export Plug-In . SVG Version: 6.00 Build 0)  -->
<svg version="1.1" id="Ebene_1" xmlns="http://www.w3.org/2000/svg" xmlns:xlink="http://www.w3.org/1999/xlink" x="0px" y="0px"
	 viewBox="0 0 66.04 75.72" style="enable-background:new 0 0 66.04 75.72;" xml:space="preserve">
<style type="text/css">
	.st0{clip-path:url(#SVGID_00000176735076729169302770000010594334150389482129_);fill:#6796CF;}
	.st1{clip-path:url(#SVGID_00000176735076729169302770000010594334150389482129_);fill:#2B2961;}
	.st2{fill:#6796CF;}
	.st3{clip-path:url(#SVGID_00000152984573909743882200000012233988475297023911_);fill:#2B2961;}
	.st4{fill:#FFFFFF;}
	.st5{clip-path:url(#SVGID_00000049909716723544076410000000907717787188602774_);fill:#2B2961;}
	.st6{clip-path:url(#SVGID_00000066518105277746377360000006102147507620820621_);fill:#2B2961;}
	.st7{clip-path:url(#SVGID_00000057838669107398708300000009129790182179658941_);fill:#2B2961;}
	.st8{fill:#2B2961;}
	.st9{clip-path:url(#SVGID_00000152239771933879749510000002398989673310657160_);fill:#6796CF;}
	.st10{clip-path:url(#SVGID_00000152239771933879749510000002398989673310657160_);fill:#2B2961;}
	.st11{clip-path:url(#SVGID_00000021837694456327141530000014437936420827339166_);fill:#2B2961;}
	.st12{clip-path:url(#SVGID_00000053543646869677110430000017084117350821405113_);fill:#2B2961;}
	.st13{clip-path:url(#SVGID_00000053543646869677110430000017084117350821405113_);fill:#6796CF;}
	.st14{clip-path:url(#SVGID_00000091715241267779701650000006165160725563076506_);fill:#2B2961;}
	.st15{clip-path:url(#SVGID_00000026851916293051218870000014180071843927830972_);fill:#2B2961;}
	.st16{clip-path:url(#SVGID_00000140706971869828867960000009737365273312386955_);fill:#2B2961;}
	.st17{clip-path:url(#SVGID_00000140706971869828867960000009737365273312386955_);fill:#6796CF;}
	.st18{clip-path:url(#SVGID_00000167390112475943577810000000332986822575810489_);fill:#2B2961;}
	.st19{clip-path:url(#SVGID_00000111885834255300211220000013023745229348633229_);fill:#2B2961;}
	.st20{clip-path:url(#SVGID_00000074439498711638166090000018345135100672945794_);fill:#2B2961;}
	.st21{clip-path:url(#SVGID_00000127729094121131120100000008009139805365107845_);fill:#2B2961;}
	.st22{clip-path:url(#SVGID_00000069400442613006218310000011196482432618615225_);fill:#6796CF;}
	.st23{clip-path:url(#SVGID_00000069400442613006218310000011196482432618615225_);fill:#2B2961;}
	.st24{clip-path:url(#SVGID_00000087406990988900656570000007076147521959221663_);fill:#2B2961;}
	.st25{clip-path:url(#SVGID_00000110434444251152601960000012028971638103736744_);fill:#2B2961;}
	.st26{clip-path:url(#SVGID_00000110434444251152601960000012028971638103736744_);fill:#6796CF;}
	.st27{clip-path:url(#SVGID_00000035517836449553300010000010637997889164358811_);fill:#2B2961;}
	.st28{clip-path:url(#SVGID_00000130626701237947443280000010463486447437556154_);fill:#2B2961;}
	.st29{clip-path:url(#SVGID_00000096772894200933888830000015995592633773909919_);fill:#2B2961;}
	.st30{clip-path:url(#SVGID_00000096772894200933888830000015995592633773909919_);fill:#6796CF;}
	.st31{clip-path:url(#SVGID_00000008864151103761816480000005178564842019426456_);fill:#2B2961;}
	.st32{clip-path:url(#SVGID_00000129886300160716379010000006220300601701161661_);fill:#6796CF;}
	.st33{clip-path:url(#SVGID_00000129886300160716379010000006220300601701161661_);fill:#2B2961;}
	.st34{clip-path:url(#SVGID_00000116234200383718438920000004213573437788707726_);fill:#2B2961;}
	.st35{clip-path:url(#SVGID_00000116234200383718438920000004213573437788707726_);fill:#6796CF;}
	.st36{clip-path:url(#SVGID_00000085946757121837097690000017699334682185518781_);fill:#2B2961;}
	.st37{clip-path:url(#SVGID_00000041275897855281513070000012976938994445657239_);fill:#FFFFFF;}
	.st38{clip-path:url(#SVGID_00000041275897855281513070000012976938994445657239_);fill:#2B2961;}
	.st39{clip-path:url(#SVGID_00000101096740537198102130000000002165747575415426_);fill:#FFFFFF;}
	.st40{clip-path:url(#SVGID_00000101096740537198102130000000002165747575415426_);fill:#2B2961;}
	.st41{clip-path:url(#SVGID_00000102542895477699190410000011096880158238884234_);fill:#6796CF;}
	.st42{clip-path:url(#SVGID_00000102542895477699190410000011096880158238884234_);fill:#2B2961;}
	.st43{clip-path:url(#SVGID_00000003099494592880268420000011573842528082802866_);fill:#2B2961;}
	.st44{clip-path:url(#SVGID_00000069390747250044813940000012806746950035972769_);fill:#6796CF;}
	.st45{clip-path:url(#SVGID_00000069390747250044813940000012806746950035972769_);fill:#2B2961;}
	.st46{clip-path:url(#SVGID_00000140727187421953783630000014810521207873319587_);fill:#2B2961;}
	.st47{clip-path:url(#SVGID_00000130606962238313134660000000052846614316352431_);fill:#2B2961;}
	.st48{clip-path:url(#SVGID_00000130606962238313134660000000052846614316352431_);fill:#6796CF;}
	.st49{clip-path:url(#SVGID_00000049191950915870960260000011499031001371776687_);fill:#2B2961;}
	.st50{clip-path:url(#SVGID_00000003103066043244836600000004340145936845012370_);fill:#2B2961;}
	.st51{clip-path:url(#SVGID_00000145020538426256051420000013326350870309766273_);fill:#2B2961;}
	.st52{clip-path:url(#SVGID_00000145020538426256051420000013326350870309766273_);fill:#6796CF;}
	.st53{clip-path:url(#SVGID_00000163037925873795192850000013175560807999616682_);fill:#2B2961;}
	.st54{clip-path:url(#SVGID_00000044149980030778970780000002515964900040307588_);fill:#2B2961;}
	.st55{clip-path:url(#SVGID_00000092440755091288191810000017759964976968831415_);fill:#2B2961;}
	.st56{clip-path:url(#SVGID_00000031916237312460604090000014775833237969900700_);fill:#2B2961;}
	.st57{clip-path:url(#SVGID_00000154392796402575563420000000467819310286968485_);fill:#6796CF;}
	.st58{clip-path:url(#SVGID_00000025430759856977548220000012202240677653839502_);fill:#2B2961;}
	.st59{clip-path:url(#SVGID_00000150069466896331850150000001969849412092767403_);fill:#2B2961;}
	.st60{clip-path:url(#SVGID_00000161632222145510580890000006305194014643038339_);fill:#6796CF;}
	.st61{clip-path:url(#SVGID_00000003088696273073334550000017544637916283361717_);fill:#2B2961;}
	.st62{clip-path:url(#SVGID_00000081627586320795198970000005227836110558854784_);fill:#2B2961;}
	.st63{clip-path:url(#SVGID_00000081627586320795198970000005227836110558854784_);fill:#6796CF;}
	.st64{clip-path:url(#SVGID_00000023995102877826809860000011578408204631290807_);fill:#2B2961;}
	.st65{clip-path:url(#SVGID_00000007430763694949353470000001465260503099640487_);fill:#6796CF;}
	.st66{clip-path:url(#SVGID_00000007430763694949353470000001465260503099640487_);fill:#2B2961;}
	.st67{clip-path:url(#SVGID_00000009549831184765678730000003677387270860173974_);fill:#2B2961;}
	.st68{clip-path:url(#SVGID_00000121987075115968293570000014617041532666970003_);fill:#2B2961;}
	.st69{clip-path:url(#SVGID_00000121987075115968293570000014617041532666970003_);fill:#6796CF;}
	.st70{clip-path:url(#SVGID_00000076583191196248616810000015557271339357598128_);fill:#2B2961;}
	.st71{clip-path:url(#SVGID_00000013189753771412097200000014353221179550810550_);fill:#2B2961;}
	.st72{clip-path:url(#SVGID_00000161610408479798531550000008168742819537540250_);fill:#2B2961;}
	.st73{clip-path:url(#SVGID_00000161610408479798531550000008168742819537540250_);fill:#6796CF;}
	.st74{clip-path:url(#SVGID_00000003812790111718958050000017568223314568992642_);fill:#2B2961;}
	.st75{clip-path:url(#SVGID_00000120546073553965490130000002635589513157558917_);fill:#2B2961;}
	.st76{clip-path:url(#SVGID_00000132052762105010575120000013469523631089495483_);fill:#2B2961;}
	.st77{clip-path:url(#SVGID_00000173867390966818957240000011152697951861530269_);fill:#2B2961;}
	.st78{clip-path:url(#SVGID_00000012438624444450264540000004331723887990298755_);fill:#6796CF;}
	.st79{clip-path:url(#SVGID_00000012438624444450264540000004331723887990298755_);fill:#2B2961;}
	.st80{clip-path:url(#SVGID_00000143618898936001670730000014766916883718424473_);fill:#FFFFFF;}
	.st81{clip-path:url(#SVGID_00000143618898936001670730000014766916883718424473_);fill:#2B2961;}
	.st82{clip-path:url(#SVGID_00000175287495565400555820000009472814330414536357_);fill:#2B2961;}
	.st83{clip-path:url(#SVGID_00000075858239611828688390000000771462490730158774_);fill:#2B2961;}
	.st84{clip-path:url(#SVGID_00000075858239611828688390000000771462490730158774_);fill:#6796CF;}
	.st85{clip-path:url(#SVGID_00000000220304982426893490000009753583371413900700_);fill:#2B2961;}
	.st86{clip-path:url(#SVGID_00000040553728479273035070000008807697112205426593_);fill:#2B2961;}
	.st87{clip-path:url(#SVGID_00000040553728479273035070000008807697112205426593_);fill:#FFFFFF;}
	.st88{clip-path:url(#SVGID_00000029744241091669135160000016426741707804511124_);fill:#6796CF;}
	.st89{clip-path:url(#SVGID_00000029744241091669135160000016426741707804511124_);fill:#2B2961;}
	.st90{clip-path:url(#SVGID_00000131331598268417522390000013942444408738151050_);fill:#2B2961;}
	.st91{clip-path:url(#SVGID_00000066477179822430014440000014821314172538111400_);fill:#2B2961;}
	.st92{clip-path:url(#SVGID_00000066477179822430014440000014821314172538111400_);fill:#6796CF;}
	.st93{clip-path:url(#SVGID_00000096775225590845290380000004280494734105664944_);fill:#2B2961;}
	.st94{clip-path:url(#SVGID_00000096775225590845290380000004280494734105664944_);fill:#FFFFFF;}
	.st95{clip-path:url(#SVGID_00000121243634847470092610000013018567128351752078_);fill:#6796CF;}
	.st96{clip-path:url(#SVGID_00000121243634847470092610000013018567128351752078_);fill:#2B2961;}
	.st97{clip-path:url(#SVGID_00000121243634847470092610000013018567128351752078_);fill:#FFFFFF;}
	.st98{clip-path:url(#SVGID_00000028307029489457546120000015391606991068827792_);fill:#2B2961;}
	.st99{clip-path:url(#SVGID_00000028307029489457546120000015391606991068827792_);fill:#6796CF;}
	.st100{clip-path:url(#SVGID_00000024703995036880833090000004429578083047483267_);fill:#2B2961;}
	.st101{clip-path:url(#SVGID_00000023971473559381384140000005042270760262700182_);fill:#2B2961;}
	.st102{clip-path:url(#SVGID_00000180336247561789687020000012164885887965534893_);fill:#2B2961;}
	.st103{clip-path:url(#SVGID_00000158738195868086777070000014924468508418569379_);fill:#2B2961;}
	.st104{clip-path:url(#SVGID_00000130609883238264451980000008554093458653013430_);fill:#2B2961;}
	.st105{clip-path:url(#SVGID_00000085228147288084222130000001796927254117849274_);fill:#FFFFFF;}
	.st106{clip-path:url(#SVGID_00000085228147288084222130000001796927254117849274_);fill:#2B2961;}
	.st107{clip-path:url(#SVGID_00000085228147288084222130000001796927254117849274_);fill:#6796CF;}
	.st108{clip-path:url(#SVGID_00000159441086486410759210000017769941912757427110_);fill:#FFFFFF;}
	.st109{clip-path:url(#SVGID_00000097463601869363045610000012672230952828367551_);fill:#2B2961;}
	.st110{clip-path:url(#SVGID_00000097463601869363045610000012672230952828367551_);fill:#FFFFFF;}
	.st111{clip-path:url(#SVGID_00000142151610252551722500000003674256561097304237_);fill:#2B2961;}
	.st112{clip-path:url(#SVGID_00000006684267347074493120000009242798243874969245_);fill:#2B2961;}
	.st113{clip-path:url(#SVGID_00000006684267347074493120000009242798243874969245_);fill:#6796CF;}
	.st114{clip-path:url(#SVGID_00000112628067128635859870000000501836921816104582_);fill:#2B2961;}
	.st115{clip-path:url(#SVGID_00000108285184130519258750000013449926534995995034_);fill:#2B2961;}
	.st116{clip-path:url(#SVGID_00000108285184130519258750000013449926534995995034_);fill:#FFFFFF;}
	.st117{clip-path:url(#SVGID_00000121274748812768848520000009003478617284857512_);fill:#6796CF;}
	.st118{clip-path:url(#SVGID_00000017492446176526057660000016803436880173776769_);fill:#2B2961;}
	.st119{clip-path:url(#SVGID_00000047056080871970170560000008834932205223882639_);fill:#2B2961;}
	.st120{clip-path:url(#SVGID_00000033347741690597519560000013702003915407121321_);fill:#FFFFFF;}
	.st121{clip-path:url(#SVGID_00000033347741690597519560000013702003915407121321_);fill:#2B2961;}
	.st122{clip-path:url(#SVGID_00000134953283663766019420000004082625397145593523_);fill:#FFFFFF;}
	.st123{clip-path:url(#SVGID_00000134953283663766019420000004082625397145593523_);fill:#2B2961;}
	.st124{clip-path:url(#SVGID_00000163069280031816748000000010528489498027432600_);fill:#6796CF;}
	.st125{clip-path:url(#SVGID_00000163069280031816748000000010528489498027432600_);fill:#2B2961;}
	.st126{clip-path:url(#SVGID_00000161596357114351562590000008182707382799226042_);fill:#2B2961;}
	.st127{clip-path:url(#SVGID_00000161596357114351562590000008182707382799226042_);fill:#6796CF;}
	.st128{clip-path:url(#SVGID_00000044150801649602595300000010942860396753810593_);fill:#6796CF;}
	.st129{clip-path:url(#SVGID_00000031202213338311506120000008882855619511862678_);fill:#2B2961;}
	.st130{clip-path:url(#SVGID_00000128454172867985735520000008625736988640845497_);fill:#2B2961;}
	.st131{clip-path:url(#SVGID_00000070092574934539686370000014726176520388819589_);fill:#2B2961;}
	.st132{clip-path:url(#SVGID_00000085234773565082039430000007237108774592713114_);fill:#2B2961;}
	.st133{clip-path:url(#SVGID_00000008859385851114290670000007396648756534050481_);fill:#2B2961;}
	.st134{clip-path:url(#SVGID_00000008859385851114290670000007396648756534050481_);fill:#6796CF;}
	.st135{clip-path:url(#SVGID_00000176019969770744943980000009098554949454544522_);fill:#6796CF;}
	.st136{clip-path:url(#SVGID_00000162354023525479680490000002655913534843321759_);fill:#2B2961;}
	.st137{clip-path:url(#SVGID_00000003096895861242024770000017656526590281611666_);fill:#2B2961;}
	.st138{clip-path:url(#SVGID_00000021817203957040924380000017383691307652391095_);fill:#2B2961;}
	.st139{clip-path:url(#SVGID_00000075121058902098402560000000269784032083709575_);fill:#2B2961;}
	.st140{clip-path:url(#SVGID_00000018220228709790965330000009643948259816874431_);fill:#6796CF;}
	.st141{clip-path:url(#SVGID_00000018220228709790965330000009643948259816874431_);fill:#2B2961;}
	.st142{clip-path:url(#SVGID_00000178177621764384094180000010821599595937812141_);fill:#2B2961;}
	.st143{clip-path:url(#SVGID_00000088098132325697900210000005765800153620013745_);fill:#2B2961;}
	.st144{clip-path:url(#SVGID_00000068646254722651249260000015314148923462952359_);fill:#2B2961;}
	.st145{clip-path:url(#SVGID_00000068646254722651249260000015314148923462952359_);fill:#6796CF;}
	.st146{clip-path:url(#SVGID_00000006671248908214751860000013849174808344158911_);}
	.st147{clip-path:url(#SVGID_00000006671248908214751860000013849174808344158911_);fill:#FFFFFF;}
	.st148{clip-path:url(#SVGID_00000006671248908214751860000013849174808344158911_);fill:#2B2961;}
	.st149{clip-path:url(#SVGID_00000062187057164472369470000000831299530385767570_);fill:#2B2961;}
	.st150{clip-path:url(#SVGID_00000078753536658570758200000012914551056481047210_);fill:#2B2961;}
	.st151{clip-path:url(#SVGID_00000078753536658570758200000012914551056481047210_);fill:#FFFFFF;}
	.st152{clip-path:url(#SVGID_00000078753536658570758200000012914551056481047210_);fill:#6796CF;}
	.st153{clip-path:url(#SVGID_00000024714056639747418040000017153630568137637054_);fill:#2B2961;}
	.st154{clip-path:url(#SVGID_00000091722124333705550180000009375594766385563308_);fill:#2B2961;}
	.st155{clip-path:url(#SVGID_00000121263950422213269750000008612121691136868480_);fill:#6796CF;}
	.st156{clip-path:url(#SVGID_00000121263950422213269750000008612121691136868480_);}
	.st157{clip-path:url(#SVGID_00000093176989255787362280000016362111523495343755_);fill:#2B2961;}
	.st158{clip-path:url(#SVGID_00000121263950422213269750000008612121691136868480_);fill:#FFFFFF;}
	.st159{clip-path:url(#SVGID_00000121263950422213269750000008612121691136868480_);fill:#2B2961;}
	.st160{opacity:0.52;clip-path:url(#SVGID_00000022553724210451171240000000787514096596032151_);}
	.st161{clip-path:url(#SVGID_00000046329864084113335420000015914383918709793943_);fill:#6796CF;}
	.st162{clip-path:url(#SVGID_00000026859819120917554750000003867084057920149921_);fill:#2B2961;}
	.st163{clip-path:url(#SVGID_00000119795909982318508750000000133442937128756396_);fill:#2B2961;}
	.st164{clip-path:url(#SVGID_00000068653878697592717020000017518242258238848438_);fill:#6796CF;}
	.st165{clip-path:url(#SVGID_00000068653878697592717020000017518242258238848438_);fill:#2B2961;}
	.st166{clip-path:url(#SVGID_00000041258314432322301880000013862014478267762869_);fill:#2B2961;}
	.st167{clip-path:url(#SVGID_00000098205560457025882190000012824249888932998076_);fill:#2B2961;}
	.st168{clip-path:url(#SVGID_00000121977890541992023960000015972570105772363154_);fill:#2B2961;}
	.st169{clip-path:url(#SVGID_00000098900546768050649970000008116946071509678485_);fill:#FFFFFF;}
	.st170{clip-path:url(#SVGID_00000098900546768050649970000008116946071509678485_);fill:#2B2961;}
	.st171{clip-path:url(#SVGID_00000098900546768050649970000008116946071509678485_);fill:#6796CF;}
	.st172{clip-path:url(#SVGID_00000060009440844261073690000000710119834808877709_);fill:#6796CF;}
	.st173{clip-path:url(#SVGID_00000078007786378901234640000005969678351073131190_);fill:#2B2961;}
	.st174{clip-path:url(#SVGID_00000036235596193199010980000004462539201701524925_);fill:#2B2961;}
	.st175{clip-path:url(#SVGID_00000036235596193199010980000004462539201701524925_);fill:#FFFFFF;}
	.st176{clip-path:url(#SVGID_00000164482790801400620140000003738987825486807992_);fill:#6796CF;}
	.st177{clip-path:url(#SVGID_00000164482790801400620140000003738987825486807992_);fill:#2B2961;}
	.st178{clip-path:url(#SVGID_00000182512476427481330080000009790589266112938916_);fill:#6796CF;}
	.st179{clip-path:url(#SVGID_00000182512476427481330080000009790589266112938916_);fill:#2B2961;}
	.st180{clip-path:url(#SVGID_00000108287940636264098420000018362430108355274386_);fill:#2B2961;}
	.st181{clip-path:url(#SVGID_00000000938527044631792640000014879840836810519944_);fill:#2B2961;}
	.st182{clip-path:url(#SVGID_00000062187498979104953880000006020850979792448913_);fill:#FFFFFF;}
	.st183{clip-path:url(#SVGID_00000112624850495590234810000005623133091565576833_);fill:#2B2961;}
	.st184{clip-path:url(#SVGID_00000064348967881619699510000007199119181383951525_);fill:#2B2961;}
	.st185{clip-path:url(#SVGID_00000064348967881619699510000007199119181383951525_);fill:#6796CF;}
	.st186{clip-path:url(#SVGID_00000118370776205930602950000006682410286955386278_);fill:#2B2961;}
	.st187{clip-path:url(#SVGID_00000149357063240014421920000004269594276429237663_);fill:#2B2961;}
	.st188{clip-path:url(#SVGID_00000163754472796523979170000017325925872767953280_);fill:#6796CF;}
	.st189{clip-path:url(#SVGID_00000162335345718791082260000004096989362989448076_);fill:#2B2961;}
	.st190{clip-path:url(#SVGID_00000093173043030424407780000005738093309167184045_);fill:#6796CF;}
	.st191{clip-path:url(#SVGID_00000165195829785714259330000015853348046688187786_);fill:#2B2961;}
	.st192{clip-path:url(#SVGID_00000156586145691057797560000003879769287765647510_);fill:#6796CF;}
	.st193{clip-path:url(#SVGID_00000074428026968220467360000011491718652912562873_);fill:#2B2961;}
	.st194{clip-path:url(#SVGID_00000178187796922762550610000009660638057919110795_);}
	.st195{clip-path:url(#SVGID_00000178187796922762550610000009660638057919110795_);fill:#2B2961;}
	.st196{clip-path:url(#SVGID_00000178187796922762550610000009660638057919110795_);fill:#FFFFFF;}
	.st197{clip-path:url(#SVGID_00000127017877433715274700000009477653753837734799_);fill:#2B2961;}
	.st198{clip-path:url(#SVGID_00000134210999058014970860000013068366547535064244_);fill:#2B2961;}
	.st199{clip-path:url(#SVGID_00000152264984888877959850000018352236793994259390_);fill:#2B2961;}
	.st200{clip-path:url(#SVGID_00000166657904363202132170000001058209614230879654_);fill:#2B2961;}
	.st201{clip-path:url(#SVGID_00000042736392549094969020000017817001658422661536_);fill:#2B2961;}
	.st202{clip-path:url(#SVGID_00000134946036366402863530000004933619768995166346_);fill:#2B2961;}
	.st203{clip-path:url(#SVGID_00000001648833153676521850000009672822021079776142_);fill:#2B2961;}
	.st204{clip-path:url(#SVGID_00000063632953659645120970000003445789557225132192_);fill:#2B2961;}
	.st205{clip-path:url(#SVGID_00000078735807746006667950000015127342667638681519_);fill:#2B2961;}
	.st206{clip-path:url(#SVGID_00000154386671165867881990000007259062649235223999_);fill:#FFFFFF;}
	.st207{clip-path:url(#SVGID_00000154386671165867881990000007259062649235223999_);fill:#2B2961;}
	.st208{clip-path:url(#SVGID_00000155836720811170135020000016113996657414473359_);fill:#6796CF;}
	.st209{clip-path:url(#SVGID_00000155836720811170135020000016113996657414473359_);fill:#2B2961;}
	.st210{clip-path:url(#SVGID_00000032630799527004276070000002473103708486322090_);fill:#2B2961;}
	.st211{clip-path:url(#SVGID_00000032630799527004276070000002473103708486322090_);fill:#FFFFFF;}
	.st212{clip-path:url(#SVGID_00000176026962889530361600000011494798633276270764_);fill:#6796CF;}
	.st213{clip-path:url(#SVGID_00000176026962889530361600000011494798633276270764_);fill:#2B2961;}
	.st214{clip-path:url(#SVGID_00000031187116028583283550000017108950465503149958_);fill:#6796CF;}
	.st215{clip-path:url(#SVGID_00000031187116028583283550000017108950465503149958_);fill:#2B2961;}
	.st216{clip-path:url(#SVGID_00000062165847994727408820000005582864302555829425_);}
	.st217{clip-path:url(#SVGID_00000137110631583525044290000009041012096900921507_);}
	.st218{clip-path:url(#SVGID_00000102507174780541184520000006311499243194342582_);}
	.st219{clip-path:url(#SVGID_00000175315727330790087370000012289285031818985116_);}
	.st220{clip-path:url(#SVGID_00000028289129422812992570000000027117204877456824_);}
	.st221{clip-path:url(#SVGID_00000152947507624063758900000004849067838302662578_);}
	.st222{clip-path:url(#SVGID_00000004524400457740574760000015888400199625496736_);}
	.st223{clip-path:url(#SVGID_00000103246417340835983580000013358504090435672726_);}
	.st224{clip-path:url(#SVGID_00000134207839273822823860000014230553682929127310_);}
	.st225{clip-path:url(#SVGID_00000039822541262337442080000007879943670495945611_);}
	.st226{clip-path:url(#SVGID_00000015330060106441228270000000765609141052861573_);}
	.st227{clip-path:url(#SVGID_00000018220193940064485810000001535843274535258294_);}
	.st228{clip-path:url(#SVGID_00000087385371818257247810000004277546242667626156_);}
	.st229{clip-path:url(#SVGID_00000010302864433222219370000011163940404965446045_);}
	.st230{clip-path:url(#SVGID_00000002378212886175089860000012500919216582035870_);fill:#2B2961;}
	.st231{clip-path:url(#SVGID_00000002378212886175089860000012500919216582035870_);fill:#6796CF;}
	.st232{fill:#A2B9E1;}
	.st233{clip-path:url(#SVGID_00000019656073173053867580000004446616727881770135_);}
	.st234{clip-path:url(#SVGID_00000100359986896830831620000006332773581925535930_);}
</style>
<g>
	<polygon class="st2" points="1.95,0.38 1.95,69.86 37.21,69.86 49.95,51.47 49.95,0.38 	"/>
	<path class="st2" d="M37.28,69.98H1.83V0.26h48.24v51.25l-0.02,0.03L37.28,69.98z M2.07,69.74h35.08l12.68-18.3V0.5H2.07V69.74z"/>
	<g>
		<defs>
			<rect id="SVGID_00000104665145764446955390000015452519005039825073_" width="66.04" height="75.72"/>
		</defs>
		<clipPath id="SVGID_00000022557031939655519030000001994697085006828439_">
			<use xlink:href="#SVGID_00000104665145764446955390000015452519005039825073_"  style="overflow:visible;"/>
		</clipPath>
		<path style="clip-path:url(#SVGID_00000022557031939655519030000001994697085006828439_);fill:#2B2961;" d="M49.64,70.29H0.3
			c-0.17,0-0.3-0.13-0.3-0.3V0.3C0,0.13,0.13,0,0.3,0h49.34c0.17,0,0.3,0.13,0.3,0.3v69.69C49.94,70.15,49.81,70.29,49.64,70.29z
			 M0.6,69.69h48.74V0.6H0.6V69.69z"/>
	</g>
	<polygon class="st4" points="5.33,5.33 5.33,75.01 44.54,75.01 54.67,64.91 54.67,5.33 	"/>
	<g>
		<defs>
			<rect id="SVGID_00000025428339442112907280000015851797845002018947_" width="66.04" height="75.72"/>
		</defs>
		<clipPath id="SVGID_00000168107604337168105550000008534133382401675686_">
			<use xlink:href="#SVGID_00000025428339442112907280000015851797845002018947_"  style="overflow:visible;"/>
		</clipPath>
		<path style="clip-path:url(#SVGID_00000168107604337168105550000008534133382401675686_);fill:#2B2961;" d="M44.54,75.31H5.33
			c-0.17,0-0.3-0.13-0.3-0.3V5.33c0-0.17,0.13-0.3,0.3-0.3h49.34c0.17,0,0.3,0.13,0.3,0.3v59.58c0,0.08-0.03,0.16-0.09,0.21
			l-10.12,10.1C44.7,75.28,44.62,75.31,44.54,75.31z M5.63,74.71h38.79l9.95-9.93V5.63H5.63V74.71z"/>
	</g>
	<polygon class="st4" points="44.27,64.61 44.27,75.01 54.67,64.61 	"/>
	<g>
		<defs>
			<rect id="SVGID_00000080927999755331905840000006757177230083000705_" width="66.04" height="75.72"/>
		</defs>
		<clipPath id="SVGID_00000015340429267491614460000008300875902710125488_">
			<use xlink:href="#SVGID_00000080927999755331905840000006757177230083000705_"  style="overflow:visible;"/>
		</clipPath>
		<path style="clip-path:url(#SVGID_00000015340429267491614460000008300875902710125488_);fill:#2B2961;" d="M44.27,75.28
			c-0.04,0-0.07-0.01-0.11-0.02c-0.1-0.04-0.17-0.14-0.17-0.26v-10.4c0-0.15,0.12-0.28,0.28-0.28h10.4c0.11,0,0.21,0.07,0.26,0.17
			c0.04,0.1,0.02,0.22-0.06,0.3l-10.4,10.4C44.41,75.26,44.34,75.28,44.27,75.28z M44.54,64.89v9.45L54,64.89H44.54z"/>
	</g>
	<polygon class="st2" points="45.03,64.98 54.52,64.98 45.03,74.33 	"/>
	<path class="st2" d="M44.91,74.61v-9.75h9.89L44.91,74.61z M45.15,65.1v8.94l9.07-8.94H45.15z"/>
	<g>
		<defs>
			<rect id="SVGID_00000002374959662984478390000002288254712253336470_" width="66.04" height="75.72"/>
		</defs>
		<clipPath id="SVGID_00000068676583691352551100000003824933012459018675_">
			<use xlink:href="#SVGID_00000002374959662984478390000002288254712253336470_"  style="overflow:visible;"/>
		</clipPath>
		<path style="clip-path:url(#SVGID_00000068676583691352551100000003824933012459018675_);fill:#2B2961;" d="M44.26,75.31
			c-0.04,0-0.08-0.01-0.12-0.02c-0.11-0.05-0.18-0.16-0.18-0.28V64.61c0-0.17,0.13-0.3,0.3-0.3h10.41c0.12,0,0.23,0.07,0.28,0.18
			c0.05,0.11,0.02,0.24-0.07,0.33L44.47,75.22C44.42,75.28,44.34,75.31,44.26,75.31z M44.56,64.91v9.38l9.38-9.38H44.56z"/>
	</g>
	<g>
		<path class="st8" d="M22.17,24.04h-0.99v-3.81L20,20.59v-0.8l2.06-0.74h0.11V24.04z"/>
	</g>
	<g>
		<path class="st8" d="M20.77,33.11h0.53c0.25,0,0.44-0.06,0.56-0.19c0.12-0.13,0.18-0.29,0.18-0.5c0-0.2-0.06-0.36-0.18-0.47
			c-0.12-0.11-0.28-0.17-0.49-0.17c-0.19,0-0.35,0.05-0.47,0.16c-0.13,0.1-0.19,0.24-0.19,0.41h-0.99c0-0.26,0.07-0.49,0.21-0.7
			c0.14-0.21,0.34-0.37,0.59-0.48c0.25-0.12,0.53-0.17,0.83-0.17c0.53,0,0.94,0.13,1.24,0.38c0.3,0.25,0.45,0.6,0.45,1.04
			c0,0.23-0.07,0.44-0.21,0.63c-0.14,0.19-0.32,0.34-0.55,0.44c0.28,0.1,0.49,0.25,0.63,0.45s0.21,0.44,0.21,0.71
			c0,0.44-0.16,0.8-0.48,1.06c-0.32,0.27-0.75,0.4-1.28,0.4c-0.5,0-0.9-0.13-1.22-0.39c-0.32-0.26-0.47-0.61-0.47-1.04h0.99
			c0,0.19,0.07,0.34,0.21,0.46c0.14,0.12,0.31,0.18,0.52,0.18c0.24,0,0.42-0.06,0.55-0.19c0.13-0.12,0.2-0.29,0.2-0.49
			c0-0.5-0.27-0.75-0.82-0.75h-0.52V33.11z"/>
	</g>
	<g>
		<path class="st8" d="M23.18,48.03h-3.41v-0.68l1.61-1.72c0.22-0.24,0.38-0.45,0.49-0.63c0.11-0.18,0.16-0.35,0.16-0.51
			c0-0.22-0.06-0.4-0.17-0.52c-0.11-0.13-0.27-0.19-0.48-0.19c-0.22,0-0.4,0.08-0.53,0.23c-0.13,0.15-0.19,0.36-0.19,0.61h-0.99
			c0-0.3,0.07-0.58,0.22-0.83c0.15-0.25,0.35-0.45,0.61-0.59c0.26-0.14,0.56-0.21,0.9-0.21c0.51,0,0.91,0.12,1.19,0.37
			c0.28,0.25,0.43,0.59,0.43,1.04c0,0.25-0.06,0.5-0.19,0.75c-0.13,0.25-0.35,0.55-0.66,0.89l-1.13,1.19h2.14V48.03z"/>
	</g>
	<g>
		<path class="st8" d="M23.18,60.03h-3.41v-0.68l1.61-1.72c0.22-0.24,0.38-0.45,0.49-0.63c0.11-0.18,0.16-0.35,0.16-0.51
			c0-0.22-0.06-0.4-0.17-0.52c-0.11-0.13-0.27-0.19-0.48-0.19c-0.22,0-0.4,0.08-0.53,0.23c-0.13,0.15-0.19,0.36-0.19,0.61h-0.99
			c0-0.3,0.07-0.58,0.22-0.83c0.15-0.25,0.35-0.45,0.61-0.59c0.26-0.14,0.56-0.21,0.9-0.21c0.51,0,0.91,0.12,1.19,0.37
			c0.28,0.25,0.43,0.59,0.43,1.04c0,0.25-0.06,0.5-0.19,0.75c-0.13,0.25-0.35,0.55-0.66,0.89l-1.13,1.19h2.14V60.03z"/>
	</g>
	<path class="st8" d="M14.84,21.04H9.96c-0.11,0-0.2-0.09-0.2-0.2s0.09-0.2,0.2-0.2h4.88c0.11,0,0.2,0.09,0.2,0.2
		S14.95,21.04,14.84,21.04z"/>
	<path class="st8" d="M32.98,10.3H9.96c-0.11,0-0.2-0.09-0.2-0.2s0.09-0.2,0.2-0.2h23.02c0.11,0,0.2,0.09,0.2,0.2
		S33.09,10.3,32.98,10.3z"/>
	<path class="st8" d="M32.98,67.8H9.96c-0.11,0-0.2-0.09-0.2-0.2s0.09-0.2,0.2-0.2h23.02c0.11,0,0.2,0.09,0.2,0.2
		S33.09,67.8,32.98,67.8z"/>
	<path class="st8" d="M36.17,21.04h-4.88c-0.11,0-0.2-0.09-0.2-0.2s0.09-0.2,0.2-0.2h4.88c0.11,0,0.2,0.09,0.2,0.2
		S36.28,21.04,36.17,21.04z"/>
	<path class="st8" d="M14.84,33.64H9.96c-0.11,0-0.2-0.09-0.2-0.2s0.09-0.2,0.2-0.2h4.88c0.11,0,0.2,0.09,0.2,0.2
		S14.95,33.64,14.84,33.64z"/>
	<path class="st8" d="M36.17,33.64h-4.88c-0.11,0-0.2-0.09-0.2-0.2s0.09-0.2,0.2-0.2h4.88c0.11,0,0.2,0.09,0.2,0.2
		S36.28,33.64,36.17,33.64z"/>
	<path class="st8" d="M14.84,46.17H9.96c-0.11,0-0.2-0.09-0.2-0.2s0.09-0.2,0.2-0.2h4.88c0.11,0,0.2,0.09,0.2,0.2
		S14.95,46.17,14.84,46.17z"/>
	<path class="st8" d="M36.17,46.17h-4.88c-0.11,0-0.2-0.09-0.2-0.2s0.09-0.2,0.2-0.2h4.88c0.11,0,0.2,0.09,0.2,0.2
		S36.28,46.17,36.17,46.17z"/>
	<path class="st8" d="M14.84,58.68H9.96c-0.11,0-0.2-0.09-0.2-0.2s0.09-0.2,0.2-0.2h4.88c0.11,0,0.2,0.09,0.2,0.2
		S14.95,58.68,14.84,58.68z"/>
	<path class="st8" d="M36.17,58.68h-4.88c-0.11,0-0.2-0.09-0.2-0.2s0.09-0.2,0.2-0.2h4.88c0.11,0,0.2,0.09,0.2,0.2
		S36.28,58.68,36.17,58.68z"/>
	<path class="st8" d="M17.93,23.25H9.96c-0.11,0-0.2-0.09-0.2-0.2s0.09-0.2,0.2-0.2h7.97c0.11,0,0.2,0.09,0.2,0.2
		S18.04,23.25,17.93,23.25z"/>
	<path class="st8" d="M46.66,12.51H9.96c-0.11,0-0.2-0.09-0.2-0.2s0.09-0.2,0.2-0.2h36.7c0.11,0,0.2,0.09,0.2,0.2
		S46.77,12.51,46.66,12.51z"/>
	<path class="st8" d="M43.92,70.01H9.96c-0.11,0-0.2-0.09-0.2-0.2s0.09-0.2,0.2-0.2h33.96c0.11,0,0.2,0.09,0.2,0.2
		S44.03,70.01,43.92,70.01z"/>
	<path class="st8" d="M39.26,23.25h-7.97c-0.11,0-0.2-0.09-0.2-0.2s0.09-0.2,0.2-0.2h7.97c0.11,0,0.2,0.09,0.2,0.2
		S39.37,23.25,39.26,23.25z"/>
	<path class="st8" d="M17.93,35.85H9.96c-0.11,0-0.2-0.09-0.2-0.2s0.09-0.2,0.2-0.2h7.97c0.11,0,0.2,0.09,0.2,0.2
		S18.04,35.85,17.93,35.85z"/>
	<path class="st8" d="M39.26,35.85h-7.97c-0.11,0-0.2-0.09-0.2-0.2s0.09-0.2,0.2-0.2h7.97c0.11,0,0.2,0.09,0.2,0.2
		S39.37,35.85,39.26,35.85z"/>
	<path class="st8" d="M17.93,48.38H9.96c-0.11,0-0.2-0.09-0.2-0.2s0.09-0.2,0.2-0.2h7.97c0.11,0,0.2,0.09,0.2,0.2
		S18.04,48.38,17.93,48.38z"/>
	<path class="st8" d="M39.26,48.38h-7.97c-0.11,0-0.2-0.09-0.2-0.2s0.09-0.2,0.2-0.2h7.97c0.11,0,0.2,0.09,0.2,0.2
		S39.37,48.38,39.26,48.38z"/>
	<path class="st8" d="M17.93,60.9H9.96c-0.11,0-0.2-0.09-0.2-0.2s0.09-0.2,0.2-0.2h7.97c0.11,0,0.2,0.09,0.2,0.2
		S18.04,60.9,17.93,60.9z"/>
	<path class="st8" d="M39.26,60.9h-7.97c-0.11,0-0.2-0.09-0.2-0.2s0.09-0.2,0.2-0.2h7.97c0.11,0,0.2,0.09,0.2,0.2
		S39.37,60.9,39.26,60.9z"/>
	<g>
		<path class="st8" d="M46.22,24.04h-3.41v-0.68l1.61-1.72c0.22-0.24,0.38-0.45,0.49-0.63c0.11-0.18,0.16-0.35,0.16-0.51
			c0-0.22-0.06-0.4-0.17-0.52c-0.11-0.13-0.27-0.19-0.48-0.19c-0.22,0-0.4,0.08-0.53,0.23c-0.13,0.15-0.19,0.36-0.19,0.61h-0.99
			c0-0.3,0.07-0.58,0.22-0.83c0.15-0.25,0.35-0.45,0.61-0.59c0.26-0.14,0.56-0.21,0.9-0.21c0.51,0,0.91,0.12,1.19,0.37
			c0.28,0.25,0.43,0.59,0.43,1.04c0,0.25-0.06,0.5-0.19,0.75c-0.13,0.25-0.35,0.55-0.66,0.89l-1.13,1.19h2.14V24.04z"/>
	</g>
	<g>
		<path class="st8" d="M46.22,36.03h-3.41v-0.68l1.61-1.72c0.22-0.24,0.38-0.45,0.49-0.63c0.11-0.18,0.16-0.35,0.16-0.51
			c0-0.22-0.06-0.4-0.17-0.52c-0.11-0.13-0.27-0.19-0.48-0.19c-0.22,0-0.4,0.08-0.53,0.23c-0.13,0.15-0.19,0.36-0.19,0.61h-0.99
			c0-0.3,0.07-0.58,0.22-0.83c0.15-0.25,0.35-0.45,0.61-0.59c0.26-0.14,0.56-0.21,0.9-0.21c0.51,0,0.91,0.12,1.19,0.37
			c0.28,0.25,0.43,0.59,0.43,1.04c0,0.25-0.06,0.5-0.19,0.75c-0.13,0.25-0.35,0.55-0.66,0.89l-1.13,1.19h2.14V36.03z"/>
	</g>
	<g>
		<path class="st8" d="M45.73,46.16h0.56v0.8h-0.56v1.08h-0.99v-1.08H42.7l-0.04-0.62l2.07-3.28h1V46.16z M43.64,46.16h1.1V44.4
			l-0.07,0.11L43.64,46.16z"/>
	</g>
	<g>
		<path class="st8" d="M45.21,60.03h-0.99v-3.81l-1.18,0.37v-0.8l2.06-0.74h0.11V60.03z"/>
	</g>
	<polygon class="st4" points="61.07,57.19 54.48,49.95 47.89,57.19 47.89,43.99 61.07,43.99 	"/>
	<path class="st8" d="M61.07,57.48c-0.08,0-0.16-0.03-0.21-0.09l-6.38-7.01l-6.38,7.01c-0.08,0.09-0.2,0.12-0.31,0.07
		s-0.18-0.15-0.18-0.27v-13.2c0-0.16,0.13-0.29,0.29-0.29h13.18c0.16,0,0.29,0.13,0.29,0.29v13.2c0,0.12-0.07,0.22-0.18,0.27
		C61.14,57.47,61.11,57.48,61.07,57.48z M54.48,49.66c0.08,0,0.16,0.03,0.21,0.09l6.09,6.7V44.27H48.18v12.18l6.09-6.7
		C54.33,49.7,54.4,49.66,54.48,49.66z"/>
	<g>
		<defs>
			<rect id="SVGID_00000031197434432277400010000014107497733565774002_" width="66.04" height="75.72"/>
		</defs>
		<clipPath id="SVGID_00000176028648216693316800000002636792522840338076_">
			<use xlink:href="#SVGID_00000031197434432277400010000014107497733565774002_"  style="overflow:visible;"/>
		</clipPath>
		<path style="clip-path:url(#SVGID_00000176028648216693316800000002636792522840338076_);fill:#FFFFFF;" d="M54.48,46.97
			c5.94,0,10.76-4.82,10.76-10.76s-4.82-10.76-10.76-10.76s-10.76,4.82-10.76,10.76S48.54,46.97,54.48,46.97"/>
		<path style="clip-path:url(#SVGID_00000176028648216693316800000002636792522840338076_);fill:#2B2961;" d="M54.48,47.26
			c-6.09,0-11.05-4.96-11.05-11.05c0-6.09,4.96-11.05,11.05-11.05s11.05,4.96,11.05,11.05C65.53,42.3,60.58,47.26,54.48,47.26z
			 M54.48,25.73c-5.78,0-10.48,4.7-10.48,10.48c0,5.78,4.7,10.48,10.48,10.48c5.78,0,10.48-4.7,10.48-10.48
			C64.96,30.43,60.26,25.73,54.48,25.73z"/>
	</g>
	<polygon class="st2" points="61.87,57.87 55.34,50.7 48.81,57.87 48.81,44.79 61.87,44.79 	"/>
	<g>
		<defs>
			<rect id="SVGID_00000176744602106690962670000016269403411493424306_" width="66.04" height="75.72"/>
		</defs>
		<clipPath id="SVGID_00000137134136860712482830000016021499372206459322_">
			<use xlink:href="#SVGID_00000176744602106690962670000016269403411493424306_"  style="overflow:visible;"/>
		</clipPath>
		<path style="clip-path:url(#SVGID_00000137134136860712482830000016021499372206459322_);fill:#6796CF;" d="M55.34,47.77
			c5.91,0,10.7-4.79,10.7-10.7c0-5.91-4.79-10.7-10.7-10.7s-10.7,4.79-10.7,10.7C44.64,42.98,49.43,47.77,55.34,47.77"/>
		<path style="clip-path:url(#SVGID_00000137134136860712482830000016021499372206459322_);fill:#2B2961;" d="M54.48,47.26
			c-6.09,0-11.05-4.96-11.05-11.05c0-6.09,4.96-11.05,11.05-11.05s11.05,4.96,11.05,11.05C65.53,42.3,60.58,47.26,54.48,47.26z
			 M54.48,25.73c-5.78,0-10.48,4.7-10.48,10.48c0,5.78,4.7,10.48,10.48,10.48c5.78,0,10.48-4.7,10.48-10.48
			C64.96,30.43,60.26,25.73,54.48,25.73z"/>
	</g>
	<path class="st8" d="M61.07,57.47c-0.08,0-0.16-0.03-0.21-0.09l-6.38-6.98l-6.38,6.98c-0.08,0.09-0.2,0.12-0.31,0.07
		c-0.11-0.04-0.18-0.15-0.18-0.27V44.75h0.57v11.71l6.09-6.67c0.11-0.12,0.31-0.12,0.42,0l6.09,6.67V44.75h0.57v12.44
		c0,0.12-0.07,0.22-0.18,0.27C61.14,57.47,61.11,57.47,61.07,57.47z"/>
	<g>
		<defs>
			<rect id="SVGID_00000018223208888832184710000000576521633441705093_" width="66.04" height="75.72"/>
		</defs>
		<clipPath id="SVGID_00000183224377206230188810000009928428137406840728_">
			<use xlink:href="#SVGID_00000018223208888832184710000000576521633441705093_"  style="overflow:visible;"/>
		</clipPath>
		<path style="clip-path:url(#SVGID_00000183224377206230188810000009928428137406840728_);fill:#2B2961;" d="M54.48,43.6
			c-4.07,0-7.38-3.31-7.38-7.39c0-4.07,3.31-7.39,7.38-7.39s7.39,3.31,7.39,7.39C61.87,40.28,58.55,43.6,54.48,43.6z M54.48,29.4
			c-3.76,0-6.81,3.06-6.81,6.81c0,3.76,3.06,6.82,6.81,6.82c3.76,0,6.82-3.06,6.82-6.82C61.3,32.45,58.24,29.4,54.48,29.4z"/>
		<path style="clip-path:url(#SVGID_00000183224377206230188810000009928428137406840728_);fill:#FFFFFF;" d="M54.48,43.31
			c3.92,0,7.1-3.18,7.1-7.1s-3.18-7.1-7.1-7.1s-7.1,3.18-7.1,7.1S50.56,43.31,54.48,43.31"/>
		<path style="clip-path:url(#SVGID_00000183224377206230188810000009928428137406840728_);fill:#2B2961;" d="M54.48,43.6
			c-4.07,0-7.38-3.31-7.38-7.39c0-4.07,3.31-7.39,7.38-7.39s7.39,3.31,7.39,7.39C61.87,40.28,58.55,43.6,54.48,43.6z M54.48,29.4
			c-3.76,0-6.81,3.06-6.81,6.81c0,3.76,3.06,6.82,6.81,6.82c3.76,0,6.82-3.06,6.82-6.82C61.3,32.45,58.24,29.4,54.48,29.4z"/>
	</g>
</g>
</svg>
