<?xml version="1.0" encoding="utf-8"?>
<!-- Generator: Adobe Illustrator 26.0.2, SVG Export Plug-In . SVG Version: 6.00 Build 0)  -->
<svg version="1.1" id="Ebene_1" xmlns="http://www.w3.org/2000/svg" xmlns:xlink="http://www.w3.org/1999/xlink" x="0px" y="0px"
	 viewBox="0 0 93 92.69" style="enable-background:new 0 0 93 92.69;" xml:space="preserve">
<style type="text/css">
	.st0{clip-path:url(#SVGID_00000181059223471017272770000014594596374841394097_);fill:#6796CF;}
	.st1{clip-path:url(#SVGID_00000181059223471017272770000014594596374841394097_);fill:#2B2961;}
	.st2{fill:#6796CF;}
	.st3{clip-path:url(#SVGID_00000023978064033100017060000014159910091361582736_);fill:#2B2961;}
	.st4{fill:#FFFFFF;}
	.st5{clip-path:url(#SVGID_00000146500204842565073940000008092186678907397817_);fill:#2B2961;}
	.st6{clip-path:url(#SVGID_00000128474825207221582930000009502583610198733753_);fill:#2B2961;}
	.st7{clip-path:url(#SVGID_00000179629076886976285380000009593567313771749790_);fill:#2B2961;}
	.st8{fill:#2B2961;}
	.st9{clip-path:url(#SVGID_00000169540319495847958750000007134123496994942607_);fill:#6796CF;}
	.st10{clip-path:url(#SVGID_00000169540319495847958750000007134123496994942607_);fill:#2B2961;}
	.st11{clip-path:url(#SVGID_00000049221390693454019650000018242134794724219796_);fill:#2B2961;}
	.st12{clip-path:url(#SVGID_00000137105025593221019820000010828076165227823785_);fill:#2B2961;}
	.st13{clip-path:url(#SVGID_00000137105025593221019820000010828076165227823785_);fill:#6796CF;}
	.st14{clip-path:url(#SVGID_00000142883625075903777210000004435907856624990850_);fill:#2B2961;}
	.st15{clip-path:url(#SVGID_00000042717036236469088770000005491652202684931991_);fill:#2B2961;}
	.st16{clip-path:url(#SVGID_00000108276394312259237010000006025142983173591694_);fill:#2B2961;}
	.st17{clip-path:url(#SVGID_00000108276394312259237010000006025142983173591694_);fill:#6796CF;}
	.st18{clip-path:url(#SVGID_00000032642415586503946370000004039706374148533891_);fill:#2B2961;}
	.st19{clip-path:url(#SVGID_00000046328873469316672920000008144992966831531929_);fill:#2B2961;}
	.st20{clip-path:url(#SVGID_00000132085676924040490180000016929501973354334391_);fill:#2B2961;}
	.st21{clip-path:url(#SVGID_00000142869710251737121340000013860200613397551754_);fill:#2B2961;}
	.st22{clip-path:url(#SVGID_00000128482603654264095220000000997794403672437412_);fill:#6796CF;}
	.st23{clip-path:url(#SVGID_00000128482603654264095220000000997794403672437412_);fill:#2B2961;}
	.st24{clip-path:url(#SVGID_00000074429174275317018040000017949041870967845038_);fill:#2B2961;}
	.st25{clip-path:url(#SVGID_00000061453900612325590680000013168624742929954966_);fill:#2B2961;}
	.st26{clip-path:url(#SVGID_00000061453900612325590680000013168624742929954966_);fill:#6796CF;}
	.st27{clip-path:url(#SVGID_00000159434910420784904920000001278229895694078853_);fill:#2B2961;}
	.st28{clip-path:url(#SVGID_00000157993644737346446830000003147701686066113427_);fill:#2B2961;}
	.st29{clip-path:url(#SVGID_00000102536679699390550200000004987377841856485537_);fill:#2B2961;}
	.st30{clip-path:url(#SVGID_00000102536679699390550200000004987377841856485537_);fill:#6796CF;}
	.st31{clip-path:url(#SVGID_00000054256075346133065420000000614421188760843440_);fill:#2B2961;}
	.st32{clip-path:url(#SVGID_00000019668305945110905080000017226041055820623505_);fill:#6796CF;}
	.st33{clip-path:url(#SVGID_00000019668305945110905080000017226041055820623505_);fill:#2B2961;}
	.st34{clip-path:url(#SVGID_00000010278220473064697640000002793438180708301700_);fill:#2B2961;}
	.st35{clip-path:url(#SVGID_00000010278220473064697640000002793438180708301700_);fill:#6796CF;}
	.st36{clip-path:url(#SVGID_00000101799909672375005290000010831670209342585233_);fill:#2B2961;}
	.st37{clip-path:url(#SVGID_00000084523138434700678340000009116273720553972390_);fill:#FFFFFF;}
	.st38{clip-path:url(#SVGID_00000084523138434700678340000009116273720553972390_);fill:#2B2961;}
	.st39{clip-path:url(#SVGID_00000126325670134626972980000000557245885672772258_);fill:#FFFFFF;}
	.st40{clip-path:url(#SVGID_00000126325670134626972980000000557245885672772258_);fill:#2B2961;}
	.st41{clip-path:url(#SVGID_00000078030654555933047420000010989914876557636799_);fill:#6796CF;}
	.st42{clip-path:url(#SVGID_00000078030654555933047420000010989914876557636799_);fill:#2B2961;}
	.st43{clip-path:url(#SVGID_00000039093657672420504570000011795715662497162371_);fill:#2B2961;}
	.st44{clip-path:url(#SVGID_00000152955623893219693950000013635281061423329720_);fill:#6796CF;}
	.st45{clip-path:url(#SVGID_00000152955623893219693950000013635281061423329720_);fill:#2B2961;}
	.st46{clip-path:url(#SVGID_00000091721621461446513330000015216792605475769009_);fill:#2B2961;}
	.st47{clip-path:url(#SVGID_00000044886882223569555740000014283714746872155316_);fill:#2B2961;}
	.st48{clip-path:url(#SVGID_00000044886882223569555740000014283714746872155316_);fill:#6796CF;}
	.st49{clip-path:url(#SVGID_00000052808026854554707620000011187143813557326735_);fill:#2B2961;}
	.st50{clip-path:url(#SVGID_00000171698929472400023460000007843632045621088901_);fill:#2B2961;}
	.st51{clip-path:url(#SVGID_00000173875047725252410990000017890351079369203334_);fill:#2B2961;}
	.st52{clip-path:url(#SVGID_00000173875047725252410990000017890351079369203334_);fill:#6796CF;}
	.st53{clip-path:url(#SVGID_00000036228678393928713330000004380002383855053220_);fill:#2B2961;}
	.st54{clip-path:url(#SVGID_00000096752922269812287070000015582465070686316967_);fill:#2B2961;}
	.st55{clip-path:url(#SVGID_00000070833347048863009320000010438476454888551575_);fill:#2B2961;}
	.st56{clip-path:url(#SVGID_00000100352726389037934040000002854457187657866651_);fill:#2B2961;}
	.st57{clip-path:url(#SVGID_00000151507857517524496040000001843585559841379208_);fill:#6796CF;}
	.st58{clip-path:url(#SVGID_00000084530362455947585580000007546477877776567700_);fill:#2B2961;}
	.st59{clip-path:url(#SVGID_00000027587988224144287580000010639880919532356536_);fill:#2B2961;}
	.st60{clip-path:url(#SVGID_00000142864177539663857940000011487848363728949149_);fill:#6796CF;}
	.st61{clip-path:url(#SVGID_00000065771166582026391620000015515835462275646138_);fill:#2B2961;}
	.st62{clip-path:url(#SVGID_00000071549644570132506020000010416907546363082886_);fill:#2B2961;}
	.st63{clip-path:url(#SVGID_00000071549644570132506020000010416907546363082886_);fill:#6796CF;}
	.st64{clip-path:url(#SVGID_00000181057574465152407190000007007125701907413694_);fill:#2B2961;}
	.st65{clip-path:url(#SVGID_00000169516078463140389680000001494494889354203786_);fill:#6796CF;}
	.st66{clip-path:url(#SVGID_00000169516078463140389680000001494494889354203786_);fill:#2B2961;}
	.st67{clip-path:url(#SVGID_00000042702087225290205470000000207397573573555620_);fill:#2B2961;}
	.st68{clip-path:url(#SVGID_00000023985407449653526690000005066595041678467253_);fill:#2B2961;}
	.st69{clip-path:url(#SVGID_00000023985407449653526690000005066595041678467253_);fill:#6796CF;}
	.st70{clip-path:url(#SVGID_00000021821141465911343710000008664727833546129596_);fill:#2B2961;}
	.st71{clip-path:url(#SVGID_00000112600287086100490910000010850257428336348305_);fill:#2B2961;}
	.st72{clip-path:url(#SVGID_00000056409404668908268320000012706212524060678039_);fill:#2B2961;}
	.st73{clip-path:url(#SVGID_00000056409404668908268320000012706212524060678039_);fill:#6796CF;}
	.st74{clip-path:url(#SVGID_00000035528757046935274130000005803257434144501383_);fill:#2B2961;}
	.st75{clip-path:url(#SVGID_00000177469209125879516450000012764618018874978447_);fill:#2B2961;}
	.st76{clip-path:url(#SVGID_00000129168143317804099890000012857428109964131209_);fill:#2B2961;}
	.st77{clip-path:url(#SVGID_00000178179777094925950680000012732472706973685660_);fill:#2B2961;}
	.st78{clip-path:url(#SVGID_00000161613347667105539670000008509102564643254454_);fill:#6796CF;}
	.st79{clip-path:url(#SVGID_00000161613347667105539670000008509102564643254454_);fill:#2B2961;}
	.st80{clip-path:url(#SVGID_00000118368277669104655020000012053666528085112217_);fill:#FFFFFF;}
	.st81{clip-path:url(#SVGID_00000118368277669104655020000012053666528085112217_);fill:#2B2961;}
	.st82{clip-path:url(#SVGID_00000029005476040007647560000002514935699926698633_);fill:#2B2961;}
	.st83{clip-path:url(#SVGID_00000127735531155737240290000005200874479318451874_);fill:#2B2961;}
	.st84{clip-path:url(#SVGID_00000127735531155737240290000005200874479318451874_);fill:#6796CF;}
	.st85{clip-path:url(#SVGID_00000058576180850188133890000003946868548186558592_);fill:#2B2961;}
	.st86{clip-path:url(#SVGID_00000005953417426900171380000001145470567457287827_);fill:#2B2961;}
	.st87{clip-path:url(#SVGID_00000005953417426900171380000001145470567457287827_);fill:#FFFFFF;}
	.st88{clip-path:url(#SVGID_00000090982949979943738450000010625912026853071805_);fill:#6796CF;}
	.st89{clip-path:url(#SVGID_00000090982949979943738450000010625912026853071805_);fill:#2B2961;}
	.st90{clip-path:url(#SVGID_00000031190273078134825290000016457627662883134121_);fill:#2B2961;}
	.st91{clip-path:url(#SVGID_00000040540743435811312490000000665740080499948190_);fill:#2B2961;}
	.st92{clip-path:url(#SVGID_00000040540743435811312490000000665740080499948190_);fill:#6796CF;}
	.st93{clip-path:url(#SVGID_00000169534798372338149090000000493018321966156182_);fill:#2B2961;}
	.st94{clip-path:url(#SVGID_00000169534798372338149090000000493018321966156182_);fill:#FFFFFF;}
	.st95{clip-path:url(#SVGID_00000077301977922795998070000011941545660130768802_);fill:#6796CF;}
	.st96{clip-path:url(#SVGID_00000077301977922795998070000011941545660130768802_);fill:#2B2961;}
	.st97{clip-path:url(#SVGID_00000077301977922795998070000011941545660130768802_);fill:#FFFFFF;}
	.st98{clip-path:url(#SVGID_00000151541176065112927560000012122049642567080358_);fill:#2B2961;}
	.st99{clip-path:url(#SVGID_00000151541176065112927560000012122049642567080358_);fill:#6796CF;}
	.st100{clip-path:url(#SVGID_00000086653339485326042880000015455936110131614900_);fill:#2B2961;}
	.st101{clip-path:url(#SVGID_00000005967292960539169550000009311718796349934470_);fill:#2B2961;}
	.st102{clip-path:url(#SVGID_00000181778068950078661220000005173331853845402812_);fill:#2B2961;}
	.st103{clip-path:url(#SVGID_00000119832351738608048070000018172804959154936491_);fill:#2B2961;}
	.st104{clip-path:url(#SVGID_00000093139720433177433000000002821320203530613156_);fill:#2B2961;}
	.st105{clip-path:url(#SVGID_00000098186263136948238080000006503043959892353720_);fill:#FFFFFF;}
	.st106{clip-path:url(#SVGID_00000098186263136948238080000006503043959892353720_);fill:#2B2961;}
	.st107{clip-path:url(#SVGID_00000098186263136948238080000006503043959892353720_);fill:#6796CF;}
	.st108{clip-path:url(#SVGID_00000140727734770174989940000007495098818475690661_);fill:#FFFFFF;}
	.st109{clip-path:url(#SVGID_00000159462030560493873230000009292970955793421207_);fill:#2B2961;}
	.st110{clip-path:url(#SVGID_00000159462030560493873230000009292970955793421207_);fill:#FFFFFF;}
	.st111{clip-path:url(#SVGID_00000117664183598491971710000005297886115966976433_);fill:#2B2961;}
	.st112{clip-path:url(#SVGID_00000151522156158157536260000007581712427163922100_);fill:#2B2961;}
	.st113{clip-path:url(#SVGID_00000151522156158157536260000007581712427163922100_);fill:#6796CF;}
	.st114{clip-path:url(#SVGID_00000172434160628955167830000010809791793540363711_);fill:#2B2961;}
	.st115{clip-path:url(#SVGID_00000115493937175657086940000003967899342732653448_);fill:#2B2961;}
	.st116{clip-path:url(#SVGID_00000115493937175657086940000003967899342732653448_);fill:#FFFFFF;}
	.st117{clip-path:url(#SVGID_00000152257897869584842130000010910280578414192828_);fill:#6796CF;}
	.st118{clip-path:url(#SVGID_00000165940076719679079360000016082323586044491165_);fill:#2B2961;}
	.st119{clip-path:url(#SVGID_00000124144601095632028560000009481345960008904632_);fill:#2B2961;}
	.st120{clip-path:url(#SVGID_00000169546542569029086230000000610357573609078948_);fill:#FFFFFF;}
	.st121{clip-path:url(#SVGID_00000169546542569029086230000000610357573609078948_);fill:#2B2961;}
	.st122{clip-path:url(#SVGID_00000161612746652819819350000002799567830646866873_);fill:#FFFFFF;}
	.st123{clip-path:url(#SVGID_00000161612746652819819350000002799567830646866873_);fill:#2B2961;}
	.st124{clip-path:url(#SVGID_00000006687376330802170600000005617369950180906140_);fill:#6796CF;}
	.st125{clip-path:url(#SVGID_00000006687376330802170600000005617369950180906140_);fill:#2B2961;}
	.st126{clip-path:url(#SVGID_00000165912993918491942560000017247407308236521120_);fill:#2B2961;}
	.st127{clip-path:url(#SVGID_00000165912993918491942560000017247407308236521120_);fill:#6796CF;}
	.st128{clip-path:url(#SVGID_00000025441709340096326270000000229782590861368709_);fill:#6796CF;}
	.st129{clip-path:url(#SVGID_00000113312336022380278340000007682773434111805056_);fill:#2B2961;}
	.st130{clip-path:url(#SVGID_00000153676686947123624740000002255886874224100538_);fill:#2B2961;}
	.st131{clip-path:url(#SVGID_00000084491823898177032070000008822956167457916323_);fill:#2B2961;}
	.st132{clip-path:url(#SVGID_00000134958488083734454240000017212862429392180639_);fill:#2B2961;}
	.st133{clip-path:url(#SVGID_00000183242600811351658450000007211852959564756381_);fill:#2B2961;}
	.st134{clip-path:url(#SVGID_00000183242600811351658450000007211852959564756381_);fill:#6796CF;}
	.st135{clip-path:url(#SVGID_00000029762886971374676240000015945953870419055764_);fill:#6796CF;}
	.st136{clip-path:url(#SVGID_00000000224710644982303550000018406816708695571080_);fill:#2B2961;}
	.st137{clip-path:url(#SVGID_00000139288458476438463120000001366454869329204653_);fill:#2B2961;}
	.st138{clip-path:url(#SVGID_00000168097388131698746700000013228077955135961758_);fill:#2B2961;}
	.st139{clip-path:url(#SVGID_00000181051971103265860340000010385834532188233407_);fill:#2B2961;}
	.st140{clip-path:url(#SVGID_00000165211524713864366760000013520094658118681775_);fill:#6796CF;}
	.st141{clip-path:url(#SVGID_00000165211524713864366760000013520094658118681775_);fill:#2B2961;}
	.st142{clip-path:url(#SVGID_00000039129828619885608580000004568682173413076371_);fill:#2B2961;}
	.st143{clip-path:url(#SVGID_00000173135434136850792730000013156235882486025103_);fill:#2B2961;}
	.st144{clip-path:url(#SVGID_00000078026949363090099080000008646887263583045528_);fill:#2B2961;}
	.st145{clip-path:url(#SVGID_00000078026949363090099080000008646887263583045528_);fill:#6796CF;}
	.st146{clip-path:url(#SVGID_00000154426617836673654360000016247737469408925073_);}
	.st147{clip-path:url(#SVGID_00000154426617836673654360000016247737469408925073_);fill:#FFFFFF;}
	.st148{clip-path:url(#SVGID_00000154426617836673654360000016247737469408925073_);fill:#2B2961;}
	.st149{clip-path:url(#SVGID_00000178885390830239476950000007959824445903591302_);fill:#2B2961;}
	.st150{clip-path:url(#SVGID_00000156549453386642036930000017129769531181119106_);fill:#2B2961;}
	.st151{clip-path:url(#SVGID_00000156549453386642036930000017129769531181119106_);fill:#FFFFFF;}
	.st152{clip-path:url(#SVGID_00000156549453386642036930000017129769531181119106_);fill:#6796CF;}
	.st153{clip-path:url(#SVGID_00000093868829135081576770000010360845886963529386_);fill:#2B2961;}
	.st154{clip-path:url(#SVGID_00000181791606596630549740000000066342444925687704_);fill:#2B2961;}
	.st155{clip-path:url(#SVGID_00000034809936927906396740000002291267458931760550_);fill:#6796CF;}
	.st156{clip-path:url(#SVGID_00000034809936927906396740000002291267458931760550_);}
	.st157{clip-path:url(#SVGID_00000060018528997274525820000003728491478337832868_);fill:#2B2961;}
	.st158{clip-path:url(#SVGID_00000034809936927906396740000002291267458931760550_);fill:#FFFFFF;}
	.st159{clip-path:url(#SVGID_00000034809936927906396740000002291267458931760550_);fill:#2B2961;}
	.st160{opacity:0.52;clip-path:url(#SVGID_00000104703407005556340600000012974542498030827931_);}
	.st161{clip-path:url(#SVGID_00000165200832929673457720000017979128669708370092_);fill:#6796CF;}
	.st162{clip-path:url(#SVGID_00000177478294640500096680000008220380587121688234_);fill:#2B2961;}
	.st163{clip-path:url(#SVGID_00000154422076303580412450000007349910636191484598_);fill:#2B2961;}
	.st164{clip-path:url(#SVGID_00000138559811685474090990000009488414939683533988_);fill:#6796CF;}
	.st165{clip-path:url(#SVGID_00000138559811685474090990000009488414939683533988_);fill:#2B2961;}
	.st166{clip-path:url(#SVGID_00000052071308232596039400000010054530478136235702_);fill:#2B2961;}
	.st167{clip-path:url(#SVGID_00000145778303649026228900000006414924857782660256_);fill:#2B2961;}
	.st168{clip-path:url(#SVGID_00000167377293400766225890000011759416855599071892_);fill:#2B2961;}
	.st169{clip-path:url(#SVGID_00000066496348493912896960000013822142771428131202_);fill:#FFFFFF;}
	.st170{clip-path:url(#SVGID_00000066496348493912896960000013822142771428131202_);fill:#2B2961;}
	.st171{clip-path:url(#SVGID_00000066496348493912896960000013822142771428131202_);fill:#6796CF;}
	.st172{clip-path:url(#SVGID_00000099656508740220857830000002671335954578669185_);fill:#6796CF;}
	.st173{clip-path:url(#SVGID_00000147933205956213111860000014564564792384752514_);fill:#2B2961;}
	.st174{clip-path:url(#SVGID_00000010999640071639245150000007277791740535715738_);fill:#2B2961;}
	.st175{clip-path:url(#SVGID_00000010999640071639245150000007277791740535715738_);fill:#FFFFFF;}
	.st176{clip-path:url(#SVGID_00000062878142538827517710000018135487275031522740_);fill:#6796CF;}
	.st177{clip-path:url(#SVGID_00000062878142538827517710000018135487275031522740_);fill:#2B2961;}
	.st178{clip-path:url(#SVGID_00000145743465279700309630000004726368749914649528_);fill:#6796CF;}
	.st179{clip-path:url(#SVGID_00000145743465279700309630000004726368749914649528_);fill:#2B2961;}
	.st180{clip-path:url(#SVGID_00000144325389591828670930000009022172452023577761_);fill:#2B2961;}
	.st181{clip-path:url(#SVGID_00000051364863974877628300000003326503206785364399_);fill:#2B2961;}
	.st182{clip-path:url(#SVGID_00000025411910150731503020000002790207529096695943_);fill:#FFFFFF;}
	.st183{clip-path:url(#SVGID_00000096023602521618131680000012613241866493615787_);fill:#2B2961;}
	.st184{clip-path:url(#SVGID_00000050642780088594854590000011160616924253278625_);fill:#2B2961;}
	.st185{clip-path:url(#SVGID_00000050642780088594854590000011160616924253278625_);fill:#6796CF;}
	.st186{clip-path:url(#SVGID_00000033329545073395828030000006072969403399646345_);fill:#2B2961;}
	.st187{clip-path:url(#SVGID_00000116204561368603621150000007495942654230046868_);fill:#2B2961;}
	.st188{clip-path:url(#SVGID_00000182510115649199498040000012258775614267295920_);fill:#6796CF;}
	.st189{clip-path:url(#SVGID_00000013883895860584832590000008255137938569501843_);fill:#2B2961;}
	.st190{clip-path:url(#SVGID_00000057852672400125604830000000200730747247113091_);fill:#6796CF;}
	.st191{clip-path:url(#SVGID_00000061441982513184704960000000318744014451310761_);fill:#2B2961;}
	.st192{clip-path:url(#SVGID_00000091012046298291550530000010318470986204383617_);fill:#6796CF;}
	.st193{clip-path:url(#SVGID_00000085235034845539708090000012231331834962780042_);fill:#2B2961;}
	.st194{clip-path:url(#SVGID_00000129167232253948196540000001622082169040117406_);}
	.st195{clip-path:url(#SVGID_00000129167232253948196540000001622082169040117406_);fill:#2B2961;}
	.st196{clip-path:url(#SVGID_00000129167232253948196540000001622082169040117406_);fill:#FFFFFF;}
	.st197{clip-path:url(#SVGID_00000125580073921108692160000000737923370159129233_);fill:#2B2961;}
	.st198{clip-path:url(#SVGID_00000157284873220892958220000005907771860781634212_);fill:#2B2961;}
	.st199{clip-path:url(#SVGID_00000149375743541739153200000009987355343151560839_);fill:#2B2961;}
	.st200{clip-path:url(#SVGID_00000057867852404037648820000004520376453379565725_);fill:#2B2961;}
	.st201{clip-path:url(#SVGID_00000169557573968576619980000011305274239217887881_);fill:#2B2961;}
	.st202{clip-path:url(#SVGID_00000137128849766742196990000007155496936071003319_);fill:#2B2961;}
	.st203{clip-path:url(#SVGID_00000152241582128993214260000008879840005131966110_);fill:#2B2961;}
	.st204{clip-path:url(#SVGID_00000030488581062676948490000008632565146323132588_);fill:#2B2961;}
	.st205{clip-path:url(#SVGID_00000076576214942483718220000014246834572907097765_);fill:#2B2961;}
	.st206{clip-path:url(#SVGID_00000047036992570928544300000017532452627884763541_);fill:#FFFFFF;}
	.st207{clip-path:url(#SVGID_00000047036992570928544300000017532452627884763541_);fill:#2B2961;}
	.st208{clip-path:url(#SVGID_00000062902999222261294460000007222627130753015178_);fill:#6796CF;}
	.st209{clip-path:url(#SVGID_00000062902999222261294460000007222627130753015178_);fill:#2B2961;}
	.st210{clip-path:url(#SVGID_00000011718512327138575240000007905234887258111653_);fill:#2B2961;}
	.st211{clip-path:url(#SVGID_00000011718512327138575240000007905234887258111653_);fill:#FFFFFF;}
	.st212{clip-path:url(#SVGID_00000127744384511379158130000002605645032615847560_);fill:#6796CF;}
	.st213{clip-path:url(#SVGID_00000127744384511379158130000002605645032615847560_);fill:#2B2961;}
	.st214{clip-path:url(#SVGID_00000117667477469992090360000002123378082930675101_);fill:#6796CF;}
	.st215{clip-path:url(#SVGID_00000117667477469992090360000002123378082930675101_);fill:#2B2961;}
	.st216{clip-path:url(#SVGID_00000072281529651276449410000001492238994360606117_);}
	.st217{clip-path:url(#SVGID_00000067235554389259790360000001004077264280980644_);}
	.st218{clip-path:url(#SVGID_00000049189409522766754950000012926199915287612037_);}
	.st219{clip-path:url(#SVGID_00000078761828857398982810000002902084262287735191_);}
	.st220{clip-path:url(#SVGID_00000070108377086824296490000004145058651272344243_);}
	.st221{clip-path:url(#SVGID_00000070109115971806076910000008487678423778972302_);}
	.st222{clip-path:url(#SVGID_00000036234107600527111850000009391588050518311847_);}
	.st223{clip-path:url(#SVGID_00000083786414948657714690000016588057192506463116_);}
	.st224{clip-path:url(#SVGID_00000096747589219120508560000009780772605462869132_);}
	.st225{clip-path:url(#SVGID_00000135668851348029649640000000252041581570251184_);}
	.st226{clip-path:url(#SVGID_00000181781649891898438330000009672612840505777822_);}
	.st227{clip-path:url(#SVGID_00000034086739809895244600000000445649139699617680_);}
	.st228{clip-path:url(#SVGID_00000049919050576977449760000000004538933518574238_);}
	.st229{clip-path:url(#SVGID_00000103260695153511788420000002212329926184037013_);}
	.st230{clip-path:url(#SVGID_00000074407694481352235110000017132142505098220422_);fill:#2B2961;}
	.st231{clip-path:url(#SVGID_00000074407694481352235110000017132142505098220422_);fill:#6796CF;}
	.st232{fill:#A2B9E1;}
	.st233{clip-path:url(#SVGID_00000096022277471645874650000003675340329909989289_);}
	.st234{clip-path:url(#SVGID_00000148652103659125203090000009261571786541490597_);}
</style>
<g>
	<rect x="28.17" y="39.93" class="st2" width="11.7" height="10.87"/>
	<rect x="47.59" y="39.93" class="st2" width="11.01" height="10.87"/>
	<rect x="66.32" y="39.93" class="st2" width="11.01" height="10.87"/>
	<g>
		<defs>
			<rect id="SVGID_00000075157055934448167640000011907023227040565640_" width="93" height="92.69"/>
		</defs>
		<clipPath id="SVGID_00000044171643765706574990000006895579231321333386_">
			<use xlink:href="#SVGID_00000075157055934448167640000011907023227040565640_"  style="overflow:visible;"/>
		</clipPath>
		<path style="clip-path:url(#SVGID_00000044171643765706574990000006895579231321333386_);fill:#2B2961;" d="M92.69,63.87H15.88
			c-0.17,0-0.3-0.13-0.3-0.3V16.44c0-0.11,0.06-0.21,0.16-0.26c0.1-0.05,0.21-0.05,0.31,0.01l22.28,14.13V16.44
			c0-0.11,0.06-0.21,0.16-0.26s0.21-0.05,0.31,0.01l22.28,14.13V16.44c0-0.11,0.06-0.21,0.16-0.26c0.1-0.05,0.21-0.05,0.31,0.01
			l20.02,12.7l0.49-27.45c0-0.1,0.06-0.2,0.14-0.25C82.26,1.13,84.16,0,86.96,0s4.7,1.13,4.78,1.18c0.09,0.05,0.14,0.15,0.14,0.25
			l1.11,62.14c0,0.08-0.03,0.16-0.09,0.22C92.85,63.84,92.78,63.87,92.69,63.87z M16.18,63.27h76.21l-1.1-61.66
			c-0.48-0.25-2.12-1.01-4.33-1.01s-3.85,0.76-4.33,1.01l-0.5,27.81c0,0.11-0.06,0.21-0.16,0.26c-0.1,0.05-0.21,0.05-0.3-0.01
			L61.66,16.98v13.87c0,0.11-0.06,0.21-0.16,0.26c-0.1,0.05-0.21,0.05-0.31-0.01L38.92,16.98v13.87c0,0.11-0.06,0.21-0.16,0.26
			c-0.1,0.05-0.21,0.05-0.31-0.01L16.18,16.98V63.27z M77.28,50.98H64.5c-0.17,0-0.3-0.13-0.3-0.3V40.13c0-0.17,0.13-0.3,0.3-0.3
			h12.77c0.17,0,0.3,0.13,0.3,0.3v10.55C77.58,50.84,77.44,50.98,77.28,50.98z M64.8,50.38h12.18v-9.95H64.8V50.38z M58.75,50.98
			H45.98c-0.17,0-0.3-0.13-0.3-0.3V40.13c0-0.17,0.13-0.3,0.3-0.3h12.77c0.17,0,0.3,0.13,0.3,0.3v10.55
			C59.05,50.84,58.92,50.98,58.75,50.98z M46.28,50.38h12.18v-9.95H46.28V50.38z M40.23,50.98H26.5c-0.17,0-0.3-0.13-0.3-0.3V40.13
			c0-0.17,0.13-0.3,0.3-0.3h13.73c0.17,0,0.3,0.13,0.3,0.3v10.55C40.53,50.84,40.4,50.98,40.23,50.98z M26.8,50.38h13.13v-9.95H26.8
			V50.38z"/>
	</g>
	<rect x="2.03" y="62.82" class="st4" width="20.62" height="21.15"/>
	<path class="st2" d="M22.65,84.1H2.03c-0.07,0-0.13-0.06-0.13-0.12V62.82c0-0.07,0.06-0.12,0.13-0.12h20.62
		c0.07,0,0.12,0.06,0.12,0.12v21.15C22.77,84.04,22.72,84.1,22.65,84.1z M2.16,83.85h20.37v-20.9H2.16V83.85z"/>
	<polyline class="st4" points="16.42,33.13 16.42,40.96 17.4,40.96 17.4,49.13 22.95,49.13 22.69,62.84 2.05,62.84 2.05,49.13 
		6.3,49.13 6.3,40.96 7.28,40.96 7.28,33.13 9.23,32.15 9.23,40.96 14.46,40.96 14.46,32.15 	"/>
	<g>
		<defs>
			<rect id="SVGID_00000087409672752166351670000005323183297165502644_" width="93" height="92.69"/>
		</defs>
		<clipPath id="SVGID_00000034052876987699905540000011964823554577653918_">
			<use xlink:href="#SVGID_00000087409672752166351670000005323183297165502644_"  style="overflow:visible;"/>
		</clipPath>
		
			<rect x="0.53" y="62.67" style="clip-path:url(#SVGID_00000034052876987699905540000011964823554577653918_);fill:#2B2961;" width="22.48" height="0.4"/>
		<path style="clip-path:url(#SVGID_00000034052876987699905540000011964823554577653918_);fill:#2B2961;" d="M18.22,92.69
			c-0.17,0-0.3-0.13-0.3-0.3v-8.17c0-0.17,0.13-0.3,0.3-0.3s0.3,0.13,0.3,0.3v8.17C18.52,92.56,18.38,92.69,18.22,92.69z
			 M5.07,92.69c-0.17,0-0.3-0.13-0.3-0.3v-8.17c0-0.17,0.13-0.3,0.3-0.3s0.3,0.13,0.3,0.3v8.17C5.37,92.56,5.23,92.69,5.07,92.69z"
			/>
	</g>
	<path class="st8" d="M4.61,54.42c-0.19,0-0.35-0.16-0.35-0.35V43.11c0-0.19,0.16-0.35,0.35-0.35s0.35,0.16,0.35,0.35v10.96
		C4.96,54.27,4.8,54.42,4.61,54.42z M21.04,54.15c-0.15,0-0.3-0.1-0.34-0.26l-2.77-10.61c-0.05-0.19,0.06-0.38,0.25-0.42
		c0.19-0.05,0.38,0.06,0.42,0.25l2.77,10.61c0.05,0.19-0.06,0.38-0.25,0.42C21.1,54.15,21.07,54.15,21.04,54.15z"/>
	<g>
		<defs>
			<rect id="SVGID_00000080911147354817947600000017498322988490586788_" width="93" height="92.69"/>
		</defs>
		<clipPath id="SVGID_00000102506314689695006730000013196113962527860361_">
			<use xlink:href="#SVGID_00000080911147354817947600000017498322988490586788_"  style="overflow:visible;"/>
		</clipPath>
		<path style="clip-path:url(#SVGID_00000102506314689695006730000013196113962527860361_);fill:#FFFFFF;" d="M22.98,43.63
			c-0.04-6.29-5.2-11.88-11.38-11.84C5.36,31.83,0.3,37.36,0.3,43.63v40.39h22.61L22.98,43.63z"/>
		<path style="clip-path:url(#SVGID_00000102506314689695006730000013196113962527860361_);fill:#2B2961;" d="M22.91,84.32H0.3
			c-0.17,0-0.3-0.13-0.3-0.3V43.63c0-6.54,5.31-12.1,11.6-12.14c0.02,0,0.05,0,0.07,0c2.88,0,5.67,1.19,7.86,3.35
			c2.37,2.34,3.73,5.54,3.75,8.79c0,0,0,0,0,0l-0.08,40.39C23.21,84.18,23.07,84.32,22.91,84.32z M0.6,83.72h22.01l0.08-40.09
			c-0.02-3.09-1.32-6.14-3.57-8.36c-2.08-2.05-4.71-3.18-7.44-3.18c-0.02,0-0.04,0-0.07,0C5.64,32.13,0.6,37.41,0.6,43.63V83.72z"/>
		<path style="clip-path:url(#SVGID_00000102506314689695006730000013196113962527860361_);fill:#FFFFFF;" d="M18.02,22.01
			c-0.74-2.44-3-4.22-5.67-4.22c-2.67,0-4.93,1.78-5.67,4.22H18.02z"/>
		<path style="clip-path:url(#SVGID_00000102506314689695006730000013196113962527860361_);fill:#6796CF;" d="M18.02,22.13H6.68
			c-0.04,0-0.08-0.02-0.1-0.05c-0.02-0.03-0.03-0.07-0.02-0.11c0.78-2.58,3.11-4.31,5.79-4.31c2.68,0,5.01,1.73,5.79,4.31
			c0.01,0.04,0,0.08-0.02,0.11C18.1,22.11,18.06,22.13,18.02,22.13z M6.85,21.88h11c-0.79-2.38-2.98-3.97-5.5-3.97
			C9.84,17.91,7.65,19.5,6.85,21.88z"/>
		<path style="clip-path:url(#SVGID_00000102506314689695006730000013196113962527860361_);fill:#FFFFFF;" d="M18.05,23.56
			c0,3.54-2.87,6.4-6.4,6.4c-3.54,0-6.4-2.87-6.4-6.4c0-3.54,2.87-6.4,6.4-6.4C15.18,17.15,18.05,20.02,18.05,23.56"/>
		<path style="clip-path:url(#SVGID_00000102506314689695006730000013196113962527860361_);fill:#2B2961;" d="M11.64,30.26
			c-3.7,0-6.7-3.01-6.7-6.7s3.01-6.7,6.7-6.7c3.7,0,6.7,3.01,6.7,6.7S15.34,30.26,11.64,30.26z M11.64,17.45
			c-3.37,0-6.1,2.74-6.1,6.1c0,3.37,2.74,6.1,6.1,6.1c3.37,0,6.1-2.74,6.1-6.1C17.75,20.19,15.01,17.45,11.64,17.45z"/>
	</g>
	<path class="st8" d="M21.67,22.2H5.58c-0.13,0-0.23-0.1-0.23-0.23s0.1-0.23,0.23-0.23h16.1c0.13,0,0.23,0.1,0.23,0.23
		S21.8,22.2,21.67,22.2z"/>
	<g>
		<defs>
			<rect id="SVGID_00000068644803057851964170000005435738576977849524_" width="93" height="92.69"/>
		</defs>
		<clipPath id="SVGID_00000149341491917063949960000017897108624421876636_">
			<use xlink:href="#SVGID_00000068644803057851964170000005435738576977849524_"  style="overflow:visible;"/>
		</clipPath>
		<path style="clip-path:url(#SVGID_00000149341491917063949960000017897108624421876636_);fill:#FFFFFF;" d="M9.68,24.03
			c0,0.19-0.15,0.34-0.34,0.34c-0.19,0-0.34-0.15-0.34-0.34c0-0.19,0.15-0.34,0.34-0.34C9.53,23.69,9.68,23.84,9.68,24.03"/>
		<path style="clip-path:url(#SVGID_00000149341491917063949960000017897108624421876636_);fill:#FFFFFF;" d="M14.28,24.03
			c0,0.19-0.15,0.34-0.34,0.34c-0.19,0-0.34-0.15-0.34-0.34c0-0.19,0.15-0.34,0.34-0.34C14.13,23.69,14.28,23.84,14.28,24.03"/>
	</g>
	<path class="st8" d="M11.56,84.31c-0.11,0-0.2-0.09-0.2-0.2V66.18c0-0.11,0.09-0.2,0.2-0.2s0.2,0.09,0.2,0.2v17.94
		C11.76,84.22,11.67,84.31,11.56,84.31z"/>
	<path class="st4" d="M0.09,49.15h5.55v-8.17h0.98v-7.84L0.09,49.15z M16.42,40.97h0.98v8.17h5.22l-6.2-16.02V40.97z M9.23,40.97
		h4.57v-8.83H9.23V40.97z"/>
	<g>
		<defs>
			<rect id="SVGID_00000025438118198079769660000015057025733398552971_" width="93" height="92.69"/>
		</defs>
		<clipPath id="SVGID_00000013872590695128336450000001789682822114638778_">
			<use xlink:href="#SVGID_00000025438118198079769660000015057025733398552971_"  style="overflow:visible;"/>
		</clipPath>
		<path style="clip-path:url(#SVGID_00000013872590695128336450000001789682822114638778_);fill:#2B2961;" d="M22.62,49.28H17.4
			c-0.07,0-0.13-0.06-0.13-0.13v-8.04h-0.85c-0.07,0-0.13-0.06-0.13-0.13v-7.84h0.27v7.71h0.85c0.07,0,0.13,0.06,0.13,0.13v8.04
			h5.09V49.28z M5.64,49.28H0.09v-0.27h5.42v-8.04c0-0.07,0.06-0.13,0.13-0.13h0.85v-7.71h0.27v7.84c0,0.07-0.06,0.13-0.13,0.13
			H5.78v8.04C5.78,49.22,5.72,49.28,5.64,49.28z M13.8,41.11H9.23c-0.07,0-0.13-0.06-0.13-0.13v-8.83h0.27v8.69h4.3v-8.69h0.27v8.83
			C13.94,41.05,13.88,41.11,13.8,41.11z"/>
		<path style="clip-path:url(#SVGID_00000013872590695128336450000001789682822114638778_);fill:#FFFFFF;" d="M21.34,55.63
			l1.89-2.78c0.65,0.08,1.32-0.19,1.71-0.77c0.39-0.58,0.4-1.3,0.08-1.88l-0.62,0.92l-1.36-0.92l0.62-0.92
			c-0.65-0.08-1.32,0.19-1.71,0.77c-0.39,0.58-0.4,1.3-0.08,1.88l-1.89,2.78c-0.65-0.08-1.32,0.19-1.71,0.77
			c-0.39,0.58-0.4,1.3-0.08,1.88l0.62-0.92l1.36,0.92l-0.62,0.92c0.65,0.08,1.32-0.19,1.71-0.77C21.65,56.93,21.65,56.2,21.34,55.63
			"/>
		<path style="clip-path:url(#SVGID_00000013872590695128336450000001789682822114638778_);fill:#2B2961;" d="M19.77,58.42
			c-0.08,0-0.16,0-0.24-0.02c-0.05-0.01-0.09-0.04-0.11-0.08c-0.02-0.04-0.02-0.09,0.01-0.13l0.55-0.8l-1.14-0.77l-0.55,0.81
			c-0.03,0.04-0.08,0.05-0.12,0.06c-0.05,0-0.09-0.03-0.11-0.07c-0.35-0.64-0.32-1.42,0.09-2.01c0.39-0.58,1.05-0.89,1.76-0.84
			l1.8-2.65c-0.31-0.63-0.26-1.37,0.13-1.94c0.41-0.6,1.11-0.92,1.84-0.83c0.05,0.01,0.09,0.03,0.11,0.08
			c0.02,0.04,0.02,0.09-0.01,0.13l-0.55,0.8l1.14,0.77l0.55-0.8c0.03-0.04,0.06-0.06,0.12-0.06c0.05,0,0.09,0.03,0.11,0.07
			c0.35,0.64,0.32,1.42-0.09,2.01c-0.39,0.58-1.06,0.9-1.76,0.84l-1.8,2.65c0.31,0.63,0.26,1.36-0.13,1.94
			C21,58.11,20.41,58.42,19.77,58.42z M18.81,56.3c0.03,0,0.05,0.01,0.08,0.02l1.36,0.92c0.03,0.02,0.05,0.05,0.06,0.09
			c0.01,0.04,0,0.07-0.02,0.1l-0.49,0.72c0.54-0.01,1.05-0.27,1.36-0.72c0.35-0.52,0.38-1.18,0.08-1.74
			c-0.02-0.04-0.02-0.1,0.01-0.14l1.89-2.78c0.03-0.04,0.08-0.07,0.13-0.06c0.63,0.07,1.24-0.2,1.59-0.71
			c0.31-0.45,0.37-1.02,0.17-1.53l-0.49,0.72c-0.04,0.06-0.13,0.08-0.19,0.04l-1.36-0.92c-0.03-0.02-0.05-0.05-0.06-0.09
			c-0.01-0.04,0-0.07,0.02-0.1l0.49-0.72c-0.54,0.01-1.05,0.27-1.36,0.72c-0.35,0.51-0.38,1.18-0.08,1.74
			c0.02,0.04,0.02,0.1-0.01,0.14l-1.89,2.78c-0.03,0.04-0.08,0.07-0.13,0.06c-0.62-0.08-1.24,0.2-1.59,0.71
			c-0.31,0.45-0.37,1.02-0.17,1.53l0.49-0.72C18.72,56.32,18.76,56.3,18.81,56.3z"/>
	</g>
	<rect x="8.56" y="44.86" class="st4" width="5.59" height="5.59"/>
	<path class="st8" d="M14.15,50.59H8.56c-0.07,0-0.13-0.06-0.13-0.13v-5.59c0-0.07,0.06-0.13,0.13-0.13h5.59
		c0.07,0,0.13,0.06,0.13,0.13v5.59C14.28,50.53,14.23,50.59,14.15,50.59z M8.69,50.32h5.32v-5.32H8.69V50.32z"/>
	<rect x="2.03" y="62.82" class="st2" width="20.62" height="21.15"/>
	<path class="st2" d="M22.65,84.1H2.03c-0.07,0-0.13-0.06-0.13-0.12V62.82c0-0.07,0.06-0.12,0.13-0.12h20.62
		c0.07,0,0.12,0.06,0.12,0.12v21.15C22.77,84.04,22.72,84.1,22.65,84.1z M2.16,83.85h20.37v-20.9H2.16V83.85z"/>
	<polyline class="st2" points="16.42,33.13 16.42,40.96 17.4,40.96 17.4,49.13 22.95,49.13 22.69,62.84 2.05,62.84 2.05,49.13 
		6.3,49.13 6.3,40.96 7.28,40.96 7.28,33.13 9.23,32.15 9.23,40.96 14.46,40.96 14.46,32.15 	"/>
	<g>
		<defs>
			<rect id="SVGID_00000101077292589760593160000003501136104932894869_" width="93" height="92.69"/>
		</defs>
		<clipPath id="SVGID_00000134931668958092902440000015199690673703212735_">
			<use xlink:href="#SVGID_00000101077292589760593160000003501136104932894869_"  style="overflow:visible;"/>
		</clipPath>
		
			<rect x="0.53" y="62.67" style="clip-path:url(#SVGID_00000134931668958092902440000015199690673703212735_);fill:#2B2961;" width="22.48" height="0.4"/>
		<path style="clip-path:url(#SVGID_00000134931668958092902440000015199690673703212735_);fill:#2B2961;" d="M18.22,92.69
			c-0.17,0-0.3-0.13-0.3-0.3v-8.17c0-0.17,0.13-0.3,0.3-0.3s0.3,0.13,0.3,0.3v8.17C18.52,92.56,18.38,92.69,18.22,92.69z
			 M5.07,92.69c-0.17,0-0.3-0.13-0.3-0.3v-8.17c0-0.17,0.13-0.3,0.3-0.3s0.3,0.13,0.3,0.3v8.17C5.37,92.56,5.23,92.69,5.07,92.69z"
			/>
	</g>
	<path class="st8" d="M4.61,54.42c-0.19,0-0.35-0.16-0.35-0.35V43.11c0-0.19,0.16-0.35,0.35-0.35s0.35,0.16,0.35,0.35v10.96
		C4.96,54.27,4.8,54.42,4.61,54.42z M21.04,54.15c-0.15,0-0.3-0.1-0.34-0.26l-2.77-10.61c-0.05-0.19,0.06-0.38,0.25-0.42
		c0.19-0.05,0.38,0.06,0.42,0.25l2.77,10.61c0.05,0.19-0.06,0.38-0.25,0.42C21.1,54.15,21.07,54.15,21.04,54.15z"/>
	<g>
		<defs>
			<rect id="SVGID_00000135680340051223155920000015562335546389743263_" width="93" height="92.69"/>
		</defs>
		<clipPath id="SVGID_00000051368844720856895930000014611720855740058020_">
			<use xlink:href="#SVGID_00000135680340051223155920000015562335546389743263_"  style="overflow:visible;"/>
		</clipPath>
		<path style="clip-path:url(#SVGID_00000051368844720856895930000014611720855740058020_);fill:#2B2961;" d="M22.91,84.32H0.3
			c-0.17,0-0.3-0.13-0.3-0.3V43.63c0-6.54,5.31-12.1,11.6-12.14c0.02,0,0.05,0,0.07,0c2.88,0,5.67,1.19,7.86,3.35
			c2.37,2.34,3.73,5.54,3.75,8.79c0,0,0,0,0,0l-0.08,40.39C23.21,84.18,23.07,84.32,22.91,84.32z M0.6,83.72h22.01l0.08-40.09
			c-0.02-3.09-1.32-6.14-3.57-8.36c-2.08-2.05-4.71-3.18-7.44-3.18c-0.02,0-0.04,0-0.07,0C5.64,32.13,0.6,37.41,0.6,43.63V83.72z"/>
		<path style="clip-path:url(#SVGID_00000051368844720856895930000014611720855740058020_);fill:#6796CF;" d="M18.02,22.01
			c-0.74-2.44-3-4.22-5.67-4.22c-2.67,0-4.93,1.78-5.67,4.22H18.02z"/>
		<path style="clip-path:url(#SVGID_00000051368844720856895930000014611720855740058020_);fill:#6796CF;" d="M18.02,22.13H6.68
			c-0.04,0-0.08-0.02-0.1-0.05c-0.02-0.03-0.03-0.07-0.02-0.11c0.78-2.58,3.11-4.31,5.79-4.31c2.68,0,5.01,1.73,5.79,4.31
			c0.01,0.04,0,0.08-0.02,0.11C18.1,22.11,18.06,22.13,18.02,22.13z M6.85,21.88h11c-0.79-2.38-2.98-3.97-5.5-3.97
			C9.84,17.91,7.65,19.5,6.85,21.88z"/>
		<path style="clip-path:url(#SVGID_00000051368844720856895930000014611720855740058020_);fill:#2B2961;" d="M11.64,30.26
			c-3.7,0-6.7-3.01-6.7-6.7s3.01-6.7,6.7-6.7c3.7,0,6.7,3.01,6.7,6.7S15.34,30.26,11.64,30.26z M11.64,17.45
			c-3.37,0-6.1,2.74-6.1,6.1c0,3.37,2.74,6.1,6.1,6.1c3.37,0,6.1-2.74,6.1-6.1C17.75,20.19,15.01,17.45,11.64,17.45z"/>
	</g>
	<path class="st8" d="M21.67,22.2H5.58c-0.13,0-0.23-0.1-0.23-0.23s0.1-0.23,0.23-0.23h16.1c0.13,0,0.23,0.1,0.23,0.23
		S21.8,22.2,21.67,22.2z"/>
	<g>
		<defs>
			<rect id="SVGID_00000017506103283189061930000015631035074008049033_" width="93" height="92.69"/>
		</defs>
		<clipPath id="SVGID_00000126300075610692019700000001570558410311791775_">
			<use xlink:href="#SVGID_00000017506103283189061930000015631035074008049033_"  style="overflow:visible;"/>
		</clipPath>
		<path style="clip-path:url(#SVGID_00000126300075610692019700000001570558410311791775_);fill:#2B2961;" d="M9.68,24.03
			c0,0.19-0.15,0.34-0.34,0.34c-0.19,0-0.34-0.15-0.34-0.34c0-0.19,0.15-0.34,0.34-0.34C9.53,23.69,9.68,23.84,9.68,24.03"/>
		<path style="clip-path:url(#SVGID_00000126300075610692019700000001570558410311791775_);fill:#2B2961;" d="M14.28,24.03
			c0,0.19-0.15,0.34-0.34,0.34c-0.19,0-0.34-0.15-0.34-0.34c0-0.19,0.15-0.34,0.34-0.34C14.13,23.69,14.28,23.84,14.28,24.03"/>
	</g>
	<path class="st8" d="M11.56,84.31c-0.11,0-0.2-0.09-0.2-0.2V66.18c0-0.11,0.09-0.2,0.2-0.2s0.2,0.09,0.2,0.2v17.94
		C11.76,84.22,11.67,84.31,11.56,84.31z"/>
	<g>
		<defs>
			<rect id="SVGID_00000104666786599281603930000011811425522269271458_" width="93" height="92.69"/>
		</defs>
		<clipPath id="SVGID_00000072249454252802503120000004929552378002092962_">
			<use xlink:href="#SVGID_00000104666786599281603930000011811425522269271458_"  style="overflow:visible;"/>
		</clipPath>
		<path style="clip-path:url(#SVGID_00000072249454252802503120000004929552378002092962_);fill:#2B2961;" d="M22.62,49.28H17.4
			c-0.07,0-0.13-0.06-0.13-0.13v-8.04h-0.85c-0.07,0-0.13-0.06-0.13-0.13v-7.84h0.27v7.71h0.85c0.07,0,0.13,0.06,0.13,0.13v8.04
			h5.09V49.28z M5.64,49.28H0.09v-0.27h5.42v-8.04c0-0.07,0.06-0.13,0.13-0.13h0.85v-7.71h0.27v7.84c0,0.07-0.06,0.13-0.13,0.13
			H5.78v8.04C5.78,49.22,5.72,49.28,5.64,49.28z M13.8,41.11H9.23c-0.07,0-0.13-0.06-0.13-0.13v-8.83h0.27v8.69h4.3v-8.69h0.27v8.83
			C13.94,41.05,13.88,41.11,13.8,41.11z"/>
		<path style="clip-path:url(#SVGID_00000072249454252802503120000004929552378002092962_);fill:#FFFFFF;" d="M21.34,55.63
			l1.89-2.78c0.65,0.08,1.32-0.19,1.71-0.77c0.39-0.58,0.4-1.3,0.08-1.88l-0.62,0.92l-1.36-0.92l0.62-0.92
			c-0.65-0.08-1.32,0.19-1.71,0.77c-0.39,0.58-0.4,1.3-0.08,1.88l-1.89,2.78c-0.65-0.08-1.32,0.19-1.71,0.77
			c-0.39,0.58-0.4,1.3-0.08,1.88l0.62-0.92l1.36,0.92l-0.62,0.92c0.65,0.08,1.32-0.19,1.71-0.77C21.65,56.93,21.65,56.2,21.34,55.63
			"/>
		<path style="clip-path:url(#SVGID_00000072249454252802503120000004929552378002092962_);fill:#2B2961;" d="M19.77,58.42
			c-0.08,0-0.16,0-0.24-0.02c-0.05-0.01-0.09-0.04-0.11-0.08c-0.02-0.04-0.02-0.09,0.01-0.13l0.55-0.8l-1.14-0.77l-0.55,0.81
			c-0.03,0.04-0.08,0.05-0.12,0.06c-0.05,0-0.09-0.03-0.11-0.07c-0.35-0.64-0.32-1.42,0.09-2.01c0.39-0.58,1.05-0.89,1.76-0.84
			l1.8-2.65c-0.31-0.63-0.26-1.37,0.13-1.94c0.41-0.6,1.11-0.92,1.84-0.83c0.05,0.01,0.09,0.03,0.11,0.08
			c0.02,0.04,0.02,0.09-0.01,0.13l-0.55,0.8l1.14,0.77l0.55-0.8c0.03-0.04,0.06-0.06,0.12-0.06c0.05,0,0.09,0.03,0.11,0.07
			c0.35,0.64,0.32,1.42-0.09,2.01c-0.39,0.58-1.06,0.9-1.76,0.84l-1.8,2.65c0.31,0.63,0.26,1.36-0.13,1.94
			C21,58.11,20.41,58.42,19.77,58.42z M18.81,56.3c0.03,0,0.05,0.01,0.08,0.02l1.36,0.92c0.03,0.02,0.05,0.05,0.06,0.09
			c0.01,0.04,0,0.07-0.02,0.1l-0.49,0.72c0.54-0.01,1.05-0.27,1.36-0.72c0.35-0.52,0.38-1.18,0.08-1.74
			c-0.02-0.04-0.02-0.1,0.01-0.14l1.89-2.78c0.03-0.04,0.08-0.07,0.13-0.06c0.63,0.07,1.24-0.2,1.59-0.71
			c0.31-0.45,0.37-1.02,0.17-1.53l-0.49,0.72c-0.04,0.06-0.13,0.08-0.19,0.04l-1.36-0.92c-0.03-0.02-0.05-0.05-0.06-0.09
			c-0.01-0.04,0-0.07,0.02-0.1l0.49-0.72c-0.54,0.01-1.05,0.27-1.36,0.72c-0.35,0.51-0.38,1.18-0.08,1.74
			c0.02,0.04,0.02,0.1-0.01,0.14l-1.89,2.78c-0.03,0.04-0.08,0.07-0.13,0.06c-0.62-0.08-1.24,0.2-1.59,0.71
			c-0.31,0.45-0.37,1.02-0.17,1.53l0.49-0.72C18.72,56.32,18.76,56.3,18.81,56.3z"/>
	</g>
	<rect x="8.56" y="44.86" class="st2" width="5.59" height="5.59"/>
	<path class="st8" d="M14.15,50.59H8.56c-0.07,0-0.13-0.06-0.13-0.13v-5.59c0-0.07,0.06-0.13,0.13-0.13h5.59
		c0.07,0,0.13,0.06,0.13,0.13v5.59C14.28,50.53,14.23,50.59,14.15,50.59z M8.69,50.32h5.32v-5.32H8.69V50.32z"/>
</g>
</svg>
