<?xml version="1.0" encoding="utf-8"?>
<!-- Generator: Adobe Illustrator 26.0.2, SVG Export Plug-In . SVG Version: 6.00 Build 0)  -->
<svg version="1.1" id="Ebene_1" xmlns="http://www.w3.org/2000/svg" xmlns:xlink="http://www.w3.org/1999/xlink" x="0px" y="0px"
	 viewBox="0 0 123.38 77.02" style="enable-background:new 0 0 123.38 77.02;" xml:space="preserve">
<style type="text/css">
	.st0{clip-path:url(#SVGID_00000098188882849557895170000003229412997760570797_);fill:#6796CF;}
	.st1{clip-path:url(#SVGID_00000098188882849557895170000003229412997760570797_);fill:#2B2961;}
	.st2{fill:#6796CF;}
	.st3{clip-path:url(#SVGID_00000032640237053449286590000005682846797081407665_);fill:#2B2961;}
	.st4{fill:#FFFFFF;}
	.st5{clip-path:url(#SVGID_00000033335348440283213340000011087265952909906850_);fill:#2B2961;}
	.st6{clip-path:url(#SVGID_00000144301090571645434490000014464468611163906965_);fill:#2B2961;}
	.st7{clip-path:url(#SVGID_00000037663199764393057160000010314628345249592964_);fill:#2B2961;}
	.st8{fill:#2B2961;}
	.st9{clip-path:url(#SVGID_00000036974410642330879790000010150028165397140865_);fill:#6796CF;}
	.st10{clip-path:url(#SVGID_00000036974410642330879790000010150028165397140865_);fill:#2B2961;}
	.st11{clip-path:url(#SVGID_00000016754510411166431460000015031259546911762857_);fill:#2B2961;}
	.st12{clip-path:url(#SVGID_00000127759645546134166680000006887083962920508062_);fill:#2B2961;}
	.st13{clip-path:url(#SVGID_00000127759645546134166680000006887083962920508062_);fill:#6796CF;}
	.st14{clip-path:url(#SVGID_00000183932160142949057450000005200084176229721755_);fill:#2B2961;}
	.st15{clip-path:url(#SVGID_00000007394461944156888310000012229673144857773967_);fill:#2B2961;}
	.st16{clip-path:url(#SVGID_00000152230196812244440250000003503390614261103286_);fill:#2B2961;}
	.st17{clip-path:url(#SVGID_00000152230196812244440250000003503390614261103286_);fill:#6796CF;}
	.st18{clip-path:url(#SVGID_00000178913759025042825360000013890328304218372003_);fill:#2B2961;}
	.st19{clip-path:url(#SVGID_00000071537531233867221260000013807700370709026467_);fill:#2B2961;}
	.st20{clip-path:url(#SVGID_00000170253615819010714610000003960910682291056024_);fill:#2B2961;}
	.st21{clip-path:url(#SVGID_00000160175890971838149710000018221778259634467500_);fill:#2B2961;}
	.st22{clip-path:url(#SVGID_00000163065927795456896990000001160101916031517102_);fill:#6796CF;}
	.st23{clip-path:url(#SVGID_00000163065927795456896990000001160101916031517102_);fill:#2B2961;}
	.st24{clip-path:url(#SVGID_00000182521025962138872070000011215340495438230671_);fill:#2B2961;}
	.st25{clip-path:url(#SVGID_00000000908269809530056220000001099890666711916202_);fill:#2B2961;}
	.st26{clip-path:url(#SVGID_00000000908269809530056220000001099890666711916202_);fill:#6796CF;}
	.st27{clip-path:url(#SVGID_00000177476661411976425720000013853757103195006884_);fill:#2B2961;}
	.st28{clip-path:url(#SVGID_00000144296838817142894900000005300386613602373308_);fill:#2B2961;}
	.st29{clip-path:url(#SVGID_00000119824406583995473550000003335537056371994244_);fill:#2B2961;}
	.st30{clip-path:url(#SVGID_00000119824406583995473550000003335537056371994244_);fill:#6796CF;}
	.st31{clip-path:url(#SVGID_00000074435533754971150020000005331493816175107772_);fill:#2B2961;}
	.st32{clip-path:url(#SVGID_00000092446964034410171150000001506971279195018938_);fill:#6796CF;}
	.st33{clip-path:url(#SVGID_00000092446964034410171150000001506971279195018938_);fill:#2B2961;}
	.st34{clip-path:url(#SVGID_00000023992420591406380460000017781459459648064189_);fill:#2B2961;}
	.st35{clip-path:url(#SVGID_00000023992420591406380460000017781459459648064189_);fill:#6796CF;}
	.st36{clip-path:url(#SVGID_00000075879685107333746090000014322385953598198962_);fill:#2B2961;}
	.st37{clip-path:url(#SVGID_00000058561816424240615610000003663971123439975558_);fill:#FFFFFF;}
	.st38{clip-path:url(#SVGID_00000058561816424240615610000003663971123439975558_);fill:#2B2961;}
	.st39{clip-path:url(#SVGID_00000115502661835597442260000002158313607745780374_);fill:#FFFFFF;}
	.st40{clip-path:url(#SVGID_00000115502661835597442260000002158313607745780374_);fill:#2B2961;}
	.st41{clip-path:url(#SVGID_00000120527162768769508270000009041454324614750364_);fill:#6796CF;}
	.st42{clip-path:url(#SVGID_00000120527162768769508270000009041454324614750364_);fill:#2B2961;}
	.st43{clip-path:url(#SVGID_00000121987763950835041660000001171514758597977528_);fill:#2B2961;}
	.st44{clip-path:url(#SVGID_00000127022332657955217040000001979336587124172966_);fill:#6796CF;}
	.st45{clip-path:url(#SVGID_00000127022332657955217040000001979336587124172966_);fill:#2B2961;}
	.st46{clip-path:url(#SVGID_00000085237243910069269160000001280410525942106525_);fill:#2B2961;}
	.st47{clip-path:url(#SVGID_00000129884409920887686490000006906986919835004551_);fill:#2B2961;}
	.st48{clip-path:url(#SVGID_00000129884409920887686490000006906986919835004551_);fill:#6796CF;}
	.st49{clip-path:url(#SVGID_00000112622819234581818230000018280135153037443243_);fill:#2B2961;}
	.st50{clip-path:url(#SVGID_00000178902437998467498510000014594704694904457909_);fill:#2B2961;}
	.st51{clip-path:url(#SVGID_00000085936530434615101790000009072903606061440386_);fill:#2B2961;}
	.st52{clip-path:url(#SVGID_00000085936530434615101790000009072903606061440386_);fill:#6796CF;}
	.st53{clip-path:url(#SVGID_00000173118507694080552040000000945128585258548883_);fill:#2B2961;}
	.st54{clip-path:url(#SVGID_00000155829898586505834590000005815704175452437905_);fill:#2B2961;}
	.st55{clip-path:url(#SVGID_00000042004157438020838140000011436583422604813488_);fill:#2B2961;}
	.st56{clip-path:url(#SVGID_00000106125409515625628070000004630976581656560521_);fill:#2B2961;}
	.st57{clip-path:url(#SVGID_00000003816396228752079600000011343039168745234592_);fill:#6796CF;}
	.st58{clip-path:url(#SVGID_00000138574383398033937510000018060616862285726104_);fill:#2B2961;}
	.st59{clip-path:url(#SVGID_00000074406714174663022740000006673329232842004393_);fill:#2B2961;}
	.st60{clip-path:url(#SVGID_00000155116494887975615960000005868303144958317748_);fill:#6796CF;}
	.st61{clip-path:url(#SVGID_00000106148440234550953050000012152994986360396162_);fill:#2B2961;}
	.st62{clip-path:url(#SVGID_00000116928223937171596410000009639098244386939821_);fill:#2B2961;}
	.st63{clip-path:url(#SVGID_00000116928223937171596410000009639098244386939821_);fill:#6796CF;}
	.st64{clip-path:url(#SVGID_00000127733111283007508280000006726566013257205123_);fill:#2B2961;}
	.st65{clip-path:url(#SVGID_00000034083594627800451940000009721744891779804844_);fill:#6796CF;}
	.st66{clip-path:url(#SVGID_00000034083594627800451940000009721744891779804844_);fill:#2B2961;}
	.st67{clip-path:url(#SVGID_00000108285359927283311490000017108836632673166486_);fill:#2B2961;}
	.st68{clip-path:url(#SVGID_00000026871853985396058160000006433288558607760566_);fill:#2B2961;}
	.st69{clip-path:url(#SVGID_00000026871853985396058160000006433288558607760566_);fill:#6796CF;}
	.st70{clip-path:url(#SVGID_00000152232640067720636500000005103640123086528135_);fill:#2B2961;}
	.st71{clip-path:url(#SVGID_00000145777558754969392630000014974000102484622244_);fill:#2B2961;}
	.st72{clip-path:url(#SVGID_00000100380815936180639760000008190232168282432399_);fill:#2B2961;}
	.st73{clip-path:url(#SVGID_00000100380815936180639760000008190232168282432399_);fill:#6796CF;}
	.st74{clip-path:url(#SVGID_00000022543484039777232060000000829099893443363989_);fill:#2B2961;}
	.st75{clip-path:url(#SVGID_00000038395932037938633420000015471564494103554233_);fill:#2B2961;}
	.st76{clip-path:url(#SVGID_00000171695625419002016370000018010005238615563444_);fill:#2B2961;}
	.st77{clip-path:url(#SVGID_00000089544506968881949080000011880568034468704180_);fill:#2B2961;}
	.st78{clip-path:url(#SVGID_00000108994548033228216830000009880044972828072344_);fill:#6796CF;}
	.st79{clip-path:url(#SVGID_00000108994548033228216830000009880044972828072344_);fill:#2B2961;}
	.st80{clip-path:url(#SVGID_00000013178141421176948550000014333227647649255871_);fill:#FFFFFF;}
	.st81{clip-path:url(#SVGID_00000013178141421176948550000014333227647649255871_);fill:#2B2961;}
	.st82{clip-path:url(#SVGID_00000021824306212744530670000017981186696555907000_);fill:#2B2961;}
	.st83{clip-path:url(#SVGID_00000086673787550430249010000000643920834138983814_);fill:#2B2961;}
	.st84{clip-path:url(#SVGID_00000086673787550430249010000000643920834138983814_);fill:#6796CF;}
	.st85{clip-path:url(#SVGID_00000108272567284683576580000008392392101288368050_);fill:#2B2961;}
	.st86{clip-path:url(#SVGID_00000037680518217682418530000012092652982127838344_);fill:#2B2961;}
	.st87{clip-path:url(#SVGID_00000037680518217682418530000012092652982127838344_);fill:#FFFFFF;}
	.st88{clip-path:url(#SVGID_00000031199680548535302280000001570452858327242675_);fill:#6796CF;}
	.st89{clip-path:url(#SVGID_00000031199680548535302280000001570452858327242675_);fill:#2B2961;}
	.st90{clip-path:url(#SVGID_00000061430373419027575210000001398848642868727995_);fill:#2B2961;}
	.st91{clip-path:url(#SVGID_00000051365186536051529040000014730507717809447849_);fill:#2B2961;}
	.st92{clip-path:url(#SVGID_00000051365186536051529040000014730507717809447849_);fill:#6796CF;}
	.st93{clip-path:url(#SVGID_00000137093538464607696900000010614176141635127706_);fill:#2B2961;}
	.st94{clip-path:url(#SVGID_00000137093538464607696900000010614176141635127706_);fill:#FFFFFF;}
	.st95{clip-path:url(#SVGID_00000129894419319962532260000009873174963206391435_);fill:#6796CF;}
	.st96{clip-path:url(#SVGID_00000129894419319962532260000009873174963206391435_);fill:#2B2961;}
	.st97{clip-path:url(#SVGID_00000129894419319962532260000009873174963206391435_);fill:#FFFFFF;}
	.st98{clip-path:url(#SVGID_00000109748694864964789450000009943491853919395754_);fill:#2B2961;}
	.st99{clip-path:url(#SVGID_00000109748694864964789450000009943491853919395754_);fill:#6796CF;}
	.st100{clip-path:url(#SVGID_00000182500207166816122590000006939208035972165290_);fill:#2B2961;}
	.st101{clip-path:url(#SVGID_00000067203432156146245470000015384892587280029334_);fill:#2B2961;}
	.st102{clip-path:url(#SVGID_00000045621260617531213250000016877877514809343637_);fill:#2B2961;}
	.st103{clip-path:url(#SVGID_00000082361479497897378160000006799334350566700160_);fill:#2B2961;}
	.st104{clip-path:url(#SVGID_00000051380332660338584720000000605998230798752676_);fill:#2B2961;}
	.st105{clip-path:url(#SVGID_00000066477612831362850480000000383710277477440906_);fill:#FFFFFF;}
	.st106{clip-path:url(#SVGID_00000066477612831362850480000000383710277477440906_);fill:#2B2961;}
	.st107{clip-path:url(#SVGID_00000066477612831362850480000000383710277477440906_);fill:#6796CF;}
	.st108{clip-path:url(#SVGID_00000119091081566984192090000010164954973486699667_);fill:#FFFFFF;}
	.st109{clip-path:url(#SVGID_00000043427054234362622100000016104452022913314186_);fill:#2B2961;}
	.st110{clip-path:url(#SVGID_00000043427054234362622100000016104452022913314186_);fill:#FFFFFF;}
	.st111{clip-path:url(#SVGID_00000082356225953257796700000011826879009153094016_);fill:#2B2961;}
	.st112{clip-path:url(#SVGID_00000143600740805090144850000009066104006997768124_);fill:#2B2961;}
	.st113{clip-path:url(#SVGID_00000143600740805090144850000009066104006997768124_);fill:#6796CF;}
	.st114{clip-path:url(#SVGID_00000058589655061866131660000008869466021494251703_);fill:#2B2961;}
	.st115{clip-path:url(#SVGID_00000005266787715731274280000005749331025723207041_);fill:#2B2961;}
	.st116{clip-path:url(#SVGID_00000005266787715731274280000005749331025723207041_);fill:#FFFFFF;}
	.st117{clip-path:url(#SVGID_00000114040378350056633250000005907779605097141413_);fill:#6796CF;}
	.st118{clip-path:url(#SVGID_00000042696009436502577010000011624514316611111321_);fill:#2B2961;}
	.st119{clip-path:url(#SVGID_00000069372906759618841780000005881077210951683485_);fill:#2B2961;}
	.st120{clip-path:url(#SVGID_00000152984151550131633610000009759668492252333442_);fill:#FFFFFF;}
	.st121{clip-path:url(#SVGID_00000152984151550131633610000009759668492252333442_);fill:#2B2961;}
	.st122{clip-path:url(#SVGID_00000152974789307258859300000008427074597586768777_);fill:#FFFFFF;}
	.st123{clip-path:url(#SVGID_00000152974789307258859300000008427074597586768777_);fill:#2B2961;}
	.st124{clip-path:url(#SVGID_00000083053470748035906610000013368004316967925157_);fill:#6796CF;}
	.st125{clip-path:url(#SVGID_00000083053470748035906610000013368004316967925157_);fill:#2B2961;}
	.st126{clip-path:url(#SVGID_00000139989552288384327140000009449482298419400599_);fill:#2B2961;}
	.st127{clip-path:url(#SVGID_00000139989552288384327140000009449482298419400599_);fill:#6796CF;}
	.st128{clip-path:url(#SVGID_00000001666088645667938950000003608051885469922953_);fill:#6796CF;}
	.st129{clip-path:url(#SVGID_00000131362822166461770450000018391207660509145472_);fill:#2B2961;}
	.st130{clip-path:url(#SVGID_00000171710464048502348090000010200175605482344076_);fill:#2B2961;}
	.st131{clip-path:url(#SVGID_00000081637642283679104630000007671482649661031347_);fill:#2B2961;}
	.st132{clip-path:url(#SVGID_00000160901312121695048010000010849725323088337297_);fill:#2B2961;}
	.st133{clip-path:url(#SVGID_00000093899983282605832890000012437692577787258033_);fill:#2B2961;}
	.st134{clip-path:url(#SVGID_00000093899983282605832890000012437692577787258033_);fill:#6796CF;}
	.st135{clip-path:url(#SVGID_00000177466002785628368780000009202590688249167291_);fill:#6796CF;}
	.st136{clip-path:url(#SVGID_00000084504940122901231080000014183914852585095830_);fill:#2B2961;}
	.st137{clip-path:url(#SVGID_00000109723560927410410130000005488335847310403215_);fill:#2B2961;}
	.st138{clip-path:url(#SVGID_00000105408122168453283970000011369242334332828553_);fill:#2B2961;}
	.st139{clip-path:url(#SVGID_00000007395322896674776650000010173401886063980703_);fill:#2B2961;}
	.st140{clip-path:url(#SVGID_00000145020854030266990730000017801478376207442313_);fill:#6796CF;}
	.st141{clip-path:url(#SVGID_00000145020854030266990730000017801478376207442313_);fill:#2B2961;}
	.st142{clip-path:url(#SVGID_00000150067256810392782700000002029619971995641787_);fill:#2B2961;}
	.st143{clip-path:url(#SVGID_00000091008251161088886780000011185353677496080782_);fill:#2B2961;}
	.st144{clip-path:url(#SVGID_00000084511479557768385130000013302680591421761469_);fill:#2B2961;}
	.st145{clip-path:url(#SVGID_00000084511479557768385130000013302680591421761469_);fill:#6796CF;}
	.st146{clip-path:url(#SVGID_00000163759166238937025340000004183189039804853148_);}
	.st147{clip-path:url(#SVGID_00000163759166238937025340000004183189039804853148_);fill:#FFFFFF;}
	.st148{clip-path:url(#SVGID_00000163759166238937025340000004183189039804853148_);fill:#2B2961;}
	.st149{clip-path:url(#SVGID_00000098214192969375448650000004191673319147570862_);fill:#2B2961;}
	.st150{clip-path:url(#SVGID_00000000221543385072560330000003124184969167752378_);fill:#2B2961;}
	.st151{clip-path:url(#SVGID_00000000221543385072560330000003124184969167752378_);fill:#FFFFFF;}
	.st152{clip-path:url(#SVGID_00000000221543385072560330000003124184969167752378_);fill:#6796CF;}
	.st153{clip-path:url(#SVGID_00000153690622882629306250000008619911006401889446_);fill:#2B2961;}
	.st154{clip-path:url(#SVGID_00000075127879462454967730000014952308188908346794_);fill:#2B2961;}
	.st155{clip-path:url(#SVGID_00000006702495989690337790000011707292283894668711_);fill:#6796CF;}
	.st156{clip-path:url(#SVGID_00000006702495989690337790000011707292283894668711_);}
	.st157{clip-path:url(#SVGID_00000018918523343096726960000010365399196451809687_);fill:#2B2961;}
	.st158{clip-path:url(#SVGID_00000006702495989690337790000011707292283894668711_);fill:#FFFFFF;}
	.st159{clip-path:url(#SVGID_00000006702495989690337790000011707292283894668711_);fill:#2B2961;}
	.st160{opacity:0.52;clip-path:url(#SVGID_00000009564781920661997930000012341393729133216651_);}
	.st161{clip-path:url(#SVGID_00000036950716642747984620000014361659030284279740_);fill:#6796CF;}
	.st162{clip-path:url(#SVGID_00000091734808171732479500000013807322285967371401_);fill:#2B2961;}
	.st163{clip-path:url(#SVGID_00000092427291971488064270000014864835451593290680_);fill:#2B2961;}
	.st164{clip-path:url(#SVGID_00000110453353852482653390000010868526610584242355_);fill:#6796CF;}
	.st165{clip-path:url(#SVGID_00000110453353852482653390000010868526610584242355_);fill:#2B2961;}
	.st166{clip-path:url(#SVGID_00000079472860912366725740000016961856323974799496_);fill:#2B2961;}
	.st167{clip-path:url(#SVGID_00000046315202252141196620000005191597919737410999_);fill:#2B2961;}
	.st168{clip-path:url(#SVGID_00000132055472531597740740000008606305213277507461_);fill:#2B2961;}
	.st169{clip-path:url(#SVGID_00000095309063366678930120000013811077465466900143_);fill:#FFFFFF;}
	.st170{clip-path:url(#SVGID_00000095309063366678930120000013811077465466900143_);fill:#2B2961;}
	.st171{clip-path:url(#SVGID_00000095309063366678930120000013811077465466900143_);fill:#6796CF;}
	.st172{clip-path:url(#SVGID_00000034792820644451961610000000819430230688081583_);fill:#6796CF;}
	.st173{clip-path:url(#SVGID_00000126301393244552675870000007787322570494508436_);fill:#2B2961;}
	.st174{clip-path:url(#SVGID_00000087385471365723734450000010882156020867830165_);fill:#2B2961;}
	.st175{clip-path:url(#SVGID_00000087385471365723734450000010882156020867830165_);fill:#FFFFFF;}
	.st176{clip-path:url(#SVGID_00000107565245672567763140000016949421105996489864_);fill:#6796CF;}
	.st177{clip-path:url(#SVGID_00000107565245672567763140000016949421105996489864_);fill:#2B2961;}
	.st178{clip-path:url(#SVGID_00000080924339804561906700000013355998045523957635_);fill:#6796CF;}
	.st179{clip-path:url(#SVGID_00000080924339804561906700000013355998045523957635_);fill:#2B2961;}
	.st180{clip-path:url(#SVGID_00000085224841023432642180000013181966804143361674_);fill:#2B2961;}
	.st181{clip-path:url(#SVGID_00000091725154831244844270000000125248820269628602_);fill:#2B2961;}
	.st182{clip-path:url(#SVGID_00000142172295662046245200000015417356498377787020_);fill:#FFFFFF;}
	.st183{clip-path:url(#SVGID_00000166635273694207072580000017736286755501057443_);fill:#2B2961;}
	.st184{clip-path:url(#SVGID_00000028299426740820710810000005339838474738602403_);fill:#2B2961;}
	.st185{clip-path:url(#SVGID_00000028299426740820710810000005339838474738602403_);fill:#6796CF;}
	.st186{clip-path:url(#SVGID_00000138545406592561099640000012776522837553668513_);fill:#2B2961;}
	.st187{clip-path:url(#SVGID_00000012465173763297180090000005431296537891727769_);fill:#2B2961;}
	.st188{clip-path:url(#SVGID_00000172410566961644973520000009053516138203429518_);fill:#6796CF;}
	.st189{clip-path:url(#SVGID_00000158723310752185506600000013090469470085119643_);fill:#2B2961;}
	.st190{clip-path:url(#SVGID_00000109737809770029054840000011893630925070479509_);fill:#6796CF;}
	.st191{clip-path:url(#SVGID_00000162327572812691684330000004877010893504031361_);fill:#2B2961;}
	.st192{clip-path:url(#SVGID_00000019650168827493649800000001598673348735100852_);fill:#6796CF;}
	.st193{clip-path:url(#SVGID_00000141446499331776735050000001237989053054265784_);fill:#2B2961;}
	.st194{clip-path:url(#SVGID_00000087379760926750921070000008369446255048072591_);}
	.st195{clip-path:url(#SVGID_00000087379760926750921070000008369446255048072591_);fill:#2B2961;}
	.st196{clip-path:url(#SVGID_00000087379760926750921070000008369446255048072591_);fill:#FFFFFF;}
	.st197{clip-path:url(#SVGID_00000137815894012653739200000007266601617877199771_);fill:#2B2961;}
	.st198{clip-path:url(#SVGID_00000139259424105842013830000015194523573455594916_);fill:#2B2961;}
	.st199{clip-path:url(#SVGID_00000132054558752374435300000002416357793976494997_);fill:#2B2961;}
	.st200{clip-path:url(#SVGID_00000122718508007793174660000001240665119456140702_);fill:#2B2961;}
	.st201{clip-path:url(#SVGID_00000104664681889880635670000012400895323653492374_);fill:#2B2961;}
	.st202{clip-path:url(#SVGID_00000167354017560554503290000007322460322699650692_);fill:#2B2961;}
	.st203{clip-path:url(#SVGID_00000115489752206092181970000007702430179511460525_);fill:#2B2961;}
	.st204{clip-path:url(#SVGID_00000124852177908196559250000001179316654481837475_);fill:#2B2961;}
	.st205{clip-path:url(#SVGID_00000080917410697457557350000007946313795974315183_);fill:#2B2961;}
	.st206{clip-path:url(#SVGID_00000047018113812438795680000002475114846628202932_);fill:#FFFFFF;}
	.st207{clip-path:url(#SVGID_00000047018113812438795680000002475114846628202932_);fill:#2B2961;}
	.st208{clip-path:url(#SVGID_00000047055751683092396990000001587518665560159620_);fill:#6796CF;}
	.st209{clip-path:url(#SVGID_00000047055751683092396990000001587518665560159620_);fill:#2B2961;}
	.st210{clip-path:url(#SVGID_00000128480117345839697850000017515666916493562531_);fill:#2B2961;}
	.st211{clip-path:url(#SVGID_00000128480117345839697850000017515666916493562531_);fill:#FFFFFF;}
	.st212{clip-path:url(#SVGID_00000087399082042779821960000005735293372756862888_);fill:#6796CF;}
	.st213{clip-path:url(#SVGID_00000087399082042779821960000005735293372756862888_);fill:#2B2961;}
	.st214{clip-path:url(#SVGID_00000178193314610805099320000015245424046832925840_);fill:#6796CF;}
	.st215{clip-path:url(#SVGID_00000178193314610805099320000015245424046832925840_);fill:#2B2961;}
	.st216{clip-path:url(#SVGID_00000031170609890625179320000013676703130981133221_);}
	.st217{clip-path:url(#SVGID_00000036970718937877877800000001322894041715358626_);}
	.st218{clip-path:url(#SVGID_00000137825371346652807600000017383958204063690637_);}
	.st219{clip-path:url(#SVGID_00000179628130562104397230000017986544566561595069_);}
	.st220{clip-path:url(#SVGID_00000178201833578828000760000018435241266956282299_);}
	.st221{clip-path:url(#SVGID_00000110473283654435827650000002707125436444011681_);}
	.st222{clip-path:url(#SVGID_00000018209558070192182830000002518977352029882527_);}
	.st223{clip-path:url(#SVGID_00000093870739505662903230000010367909525935585408_);}
	.st224{clip-path:url(#SVGID_00000079462437742561827630000014128117570645790392_);}
	.st225{clip-path:url(#SVGID_00000161618768676393816840000008565985531416453294_);}
	.st226{clip-path:url(#SVGID_00000037661095725372426490000011076031612474130599_);}
	.st227{clip-path:url(#SVGID_00000012430301523139278400000012346301493375347117_);}
	.st228{clip-path:url(#SVGID_00000152980513127918366260000011138598936942582402_);}
	.st229{clip-path:url(#SVGID_00000024688716744011046530000006365741656228780427_);}
	.st230{clip-path:url(#SVGID_00000025407227909141363880000015343543095429159320_);fill:#2B2961;}
	.st231{clip-path:url(#SVGID_00000025407227909141363880000015343543095429159320_);fill:#6796CF;}
	.st232{fill:#A2B9E1;}
	.st233{clip-path:url(#SVGID_00000158000460868670439850000015355351877369010058_);}
	.st234{clip-path:url(#SVGID_00000016069580172411427200000015290934918765375909_);}
</style>
<g>
	<g>
		<rect x="51.22" y="11.74" class="st232" width="20.94" height="60.68"/>
	</g>
	<g>
		<rect x="0.52" y="31.63" class="st2" width="122.34" height="14.4"/>
	</g>
	<g>
		<rect x="0.52" class="st2" width="122.34" height="14.4"/>
	</g>
	<g>
		<rect x="0.52" y="62.61" class="st2" width="122.34" height="14.4"/>
	</g>
	<g>
		<defs>
			<rect id="SVGID_00000013150938507201597850000011958460646717773222_" width="123.38" height="77.02"/>
		</defs>
		<clipPath id="SVGID_00000062874092763170810420000006871052613673794492_">
			<use xlink:href="#SVGID_00000013150938507201597850000011958460646717773222_"  style="overflow:visible;"/>
		</clipPath>
		<g style="clip-path:url(#SVGID_00000062874092763170810420000006871052613673794492_);">
			<path class="st8" d="M123.04,46.03H0.35C0.15,46.03,0,45.88,0,45.69V31.98c0-0.19,0.16-0.35,0.35-0.35h122.69
				c0.19,0,0.35,0.16,0.35,0.35v13.71C123.38,45.88,123.23,46.03,123.04,46.03z M0.69,45.34h122V32.32h-122V45.34z"/>
		</g>
		<g style="clip-path:url(#SVGID_00000062874092763170810420000006871052613673794492_);">
			<path class="st8" d="M123.04,14.4H0.35C0.15,14.4,0,14.25,0,14.06V0.35C0,0.15,0.15,0,0.35,0h122.69c0.19,0,0.35,0.16,0.35,0.35
				v13.71C123.38,14.25,123.23,14.4,123.04,14.4z M0.69,13.71h122V0.69h-122V13.71z"/>
		</g>
		<g style="clip-path:url(#SVGID_00000062874092763170810420000006871052613673794492_);">
			<path class="st8" d="M123.04,76.97H0.35c-0.17,0-0.3-0.13-0.3-0.3V62.96c0-0.17,0.13-0.3,0.3-0.3h122.69c0.17,0,0.3,0.13,0.3,0.3
				v13.71C123.34,76.84,123.2,76.97,123.04,76.97z M0.65,76.37h122.09V63.26H0.65V76.37z"/>
		</g>
	</g>
	<g>
		<path class="st4" d="M31.43,35.05l1.64,4.64l1.64-4.64h1.73v6.4h-1.32V39.7l0.13-3.02l-1.73,4.77h-0.91l-1.72-4.76l0.13,3.01v1.75
			h-1.32v-6.4H31.43z"/>
		<path class="st4" d="M37.68,35.46c0-0.19,0.06-0.35,0.19-0.47c0.13-0.12,0.3-0.19,0.52-0.19c0.22,0,0.39,0.06,0.52,0.19
			c0.13,0.12,0.19,0.28,0.19,0.47c0,0.19-0.07,0.35-0.2,0.47c-0.13,0.12-0.3,0.18-0.52,0.18s-0.39-0.06-0.52-0.18
			S37.68,35.65,37.68,35.46z M39.03,41.45h-1.27v-4.76h1.27V41.45z"/>
		<path class="st4" d="M41.78,35.52v1.17h0.81v0.93h-0.81V40c0,0.18,0.03,0.3,0.1,0.38s0.2,0.11,0.39,0.11
			c0.14,0,0.26-0.01,0.37-0.03v0.96c-0.25,0.08-0.51,0.11-0.77,0.11c-0.89,0-1.35-0.45-1.36-1.35v-2.56h-0.69v-0.93h0.69v-1.17
			H41.78z"/>
		<path class="st4" d="M44.98,35.52v1.17h0.81v0.93h-0.81V40c0,0.18,0.03,0.3,0.1,0.38c0.07,0.08,0.2,0.11,0.39,0.11
			c0.14,0,0.26-0.01,0.37-0.03v0.96c-0.25,0.08-0.51,0.11-0.77,0.11c-0.89,0-1.35-0.45-1.36-1.35v-2.56h-0.69v-0.93h0.69v-1.17
			H44.98z"/>
		<path class="st4" d="M48.02,41.45h-1.28v-6.75h1.28V41.45z"/>
		<path class="st4" d="M51.33,41.53c-0.7,0-1.27-0.21-1.7-0.64c-0.44-0.43-0.66-1-0.66-1.71v-0.12c0-0.48,0.09-0.91,0.28-1.28
			c0.18-0.38,0.45-0.67,0.79-0.87c0.34-0.2,0.72-0.3,1.16-0.3c0.65,0,1.16,0.21,1.54,0.62s0.56,0.99,0.56,1.75v0.52h-3.03
			c0.04,0.31,0.16,0.56,0.37,0.75s0.47,0.28,0.79,0.28c0.49,0,0.87-0.18,1.15-0.53l0.62,0.7c-0.19,0.27-0.45,0.48-0.77,0.63
			C52.09,41.46,51.73,41.53,51.33,41.53z M51.19,37.63c-0.25,0-0.46,0.09-0.61,0.26c-0.16,0.17-0.26,0.42-0.3,0.73h1.77v-0.1
			c-0.01-0.28-0.08-0.5-0.23-0.66C51.67,37.7,51.46,37.63,51.19,37.63z"/>
		<path class="st4" d="M56.86,37.88c-0.17-0.02-0.32-0.04-0.46-0.04c-0.48,0-0.79,0.16-0.95,0.49v3.11h-1.27v-4.76h1.2l0.04,0.57
			c0.26-0.44,0.61-0.65,1.06-0.65c0.14,0,0.27,0.02,0.39,0.06L56.86,37.88z"/>
		<path class="st4" d="M59.58,41.53c-0.7,0-1.27-0.21-1.7-0.64c-0.44-0.43-0.66-1-0.66-1.71v-0.12c0-0.48,0.09-0.91,0.28-1.28
			c0.18-0.38,0.45-0.67,0.78-0.87c0.34-0.2,0.72-0.3,1.16-0.3c0.65,0,1.16,0.21,1.54,0.62s0.56,0.99,0.56,1.75v0.52h-3.03
			c0.04,0.31,0.17,0.56,0.37,0.75s0.47,0.28,0.78,0.28c0.49,0,0.87-0.18,1.15-0.53l0.62,0.7c-0.19,0.27-0.45,0.48-0.77,0.63
			C60.34,41.46,59.98,41.53,59.58,41.53z M59.44,37.63c-0.25,0-0.46,0.09-0.61,0.26c-0.16,0.17-0.26,0.42-0.3,0.73h1.77v-0.1
			c-0.01-0.28-0.08-0.5-0.23-0.66C59.92,37.7,59.71,37.63,59.44,37.63z"/>
		<path class="st4" d="M67.31,39.1h-1.05v2.34h-1.32v-6.4h2.38c0.76,0,1.34,0.17,1.75,0.51s0.62,0.81,0.62,1.43
			c0,0.44-0.09,0.8-0.28,1.09c-0.19,0.29-0.48,0.52-0.86,0.7l1.38,2.62v0.06h-1.41L67.31,39.1z M66.26,38.04h1.06
			c0.33,0,0.59-0.08,0.77-0.25c0.18-0.17,0.27-0.4,0.27-0.7c0-0.3-0.08-0.54-0.26-0.71c-0.17-0.17-0.44-0.26-0.79-0.26h-1.06V38.04z
			"/>
		<path class="st4" d="M72.71,41.53c-0.7,0-1.27-0.21-1.7-0.64s-0.66-1-0.66-1.71v-0.12c0-0.48,0.09-0.91,0.28-1.28
			c0.19-0.38,0.45-0.67,0.79-0.87c0.34-0.2,0.72-0.3,1.16-0.3c0.65,0,1.16,0.21,1.54,0.62c0.37,0.41,0.56,0.99,0.56,1.75v0.52h-3.03
			c0.04,0.31,0.17,0.56,0.37,0.75c0.21,0.19,0.47,0.28,0.79,0.28c0.49,0,0.87-0.18,1.15-0.53l0.62,0.7
			c-0.19,0.27-0.45,0.48-0.77,0.63C73.47,41.46,73.11,41.53,72.71,41.53z M72.57,37.63c-0.25,0-0.46,0.09-0.61,0.26
			c-0.16,0.17-0.26,0.42-0.3,0.73h1.77v-0.1c-0.01-0.28-0.08-0.5-0.23-0.66C73.05,37.7,72.84,37.63,72.57,37.63z"/>
		<path class="st4" d="M75.56,35.46c0-0.19,0.06-0.35,0.19-0.47c0.13-0.12,0.3-0.19,0.52-0.19c0.22,0,0.39,0.06,0.52,0.19
			c0.13,0.12,0.19,0.28,0.19,0.47c0,0.19-0.07,0.35-0.2,0.47c-0.13,0.12-0.3,0.18-0.52,0.18c-0.21,0-0.39-0.06-0.52-0.18
			C75.63,35.81,75.56,35.65,75.56,35.46z M76.91,41.45h-1.27v-4.76h1.27V41.45z"/>
		<path class="st4" d="M78.48,41.45v-3.82h-0.71v-0.93h0.71v-0.41c0-0.53,0.15-0.95,0.46-1.24c0.31-0.29,0.73-0.44,1.29-0.44
			c0.18,0,0.39,0.03,0.65,0.09l-0.01,0.99c-0.11-0.03-0.23-0.04-0.39-0.04c-0.48,0-0.72,0.22-0.72,0.67v0.38h0.95v0.93h-0.95v3.82
			H78.48z"/>
		<path class="st4" d="M83.58,41.53c-0.7,0-1.27-0.21-1.7-0.64c-0.44-0.43-0.66-1-0.66-1.71v-0.12c0-0.48,0.09-0.91,0.28-1.28
			c0.18-0.38,0.45-0.67,0.79-0.87c0.34-0.2,0.72-0.3,1.16-0.3c0.65,0,1.16,0.21,1.54,0.62s0.56,0.99,0.56,1.75v0.52h-3.03
			c0.04,0.31,0.16,0.56,0.37,0.75s0.47,0.28,0.79,0.28c0.49,0,0.87-0.18,1.15-0.53l0.62,0.7c-0.19,0.27-0.45,0.48-0.77,0.63
			C84.34,41.46,83.98,41.53,83.58,41.53z M83.44,37.63c-0.25,0-0.46,0.09-0.61,0.26c-0.16,0.17-0.26,0.42-0.3,0.73h1.77v-0.1
			c-0.01-0.28-0.08-0.5-0.23-0.66C83.91,37.7,83.71,37.63,83.44,37.63z"/>
		<path class="st4" d="M89.89,39.49c0-0.41,0.05-0.74,0.15-0.98c0.1-0.24,0.28-0.48,0.55-0.72c0.27-0.24,0.44-0.43,0.53-0.58
			c0.09-0.15,0.13-0.3,0.13-0.47c0-0.5-0.23-0.74-0.69-0.74c-0.22,0-0.39,0.07-0.52,0.2c-0.13,0.13-0.2,0.32-0.2,0.55h-1.27
			c0.01-0.56,0.19-1,0.54-1.32c0.36-0.32,0.84-0.48,1.46-0.48c0.62,0,1.1,0.15,1.45,0.45c0.34,0.3,0.52,0.73,0.52,1.27
			c0,0.25-0.06,0.49-0.17,0.71c-0.11,0.22-0.31,0.47-0.58,0.74l-0.36,0.34c-0.22,0.21-0.35,0.46-0.38,0.75l-0.02,0.27H89.89z
			 M89.76,40.83c0-0.2,0.07-0.36,0.2-0.48s0.3-0.19,0.51-0.19c0.21,0,0.38,0.06,0.51,0.19s0.2,0.29,0.2,0.48
			c0,0.19-0.07,0.35-0.2,0.48c-0.13,0.13-0.3,0.19-0.52,0.19c-0.21,0-0.39-0.06-0.52-0.19C89.83,41.19,89.76,41.03,89.76,40.83z"/>
	</g>
	<g>
		<defs>
			<rect id="SVGID_00000147898264200259830880000002602226311444811709_" width="123.38" height="77.02"/>
		</defs>
		<clipPath id="SVGID_00000145763674601821979800000018226801245534265734_">
			<use xlink:href="#SVGID_00000147898264200259830880000002602226311444811709_"  style="overflow:visible;"/>
		</clipPath>
		<g style="clip-path:url(#SVGID_00000145763674601821979800000018226801245534265734_);">
			<path class="st4" d="M14.09,9.82h-1.32V7.07H10.2v2.74H8.88v-6.4h1.32v2.59h2.57V3.42h1.32V9.82z"/>
			<path class="st4" d="M15.14,7.4c0-0.47,0.09-0.89,0.27-1.26s0.44-0.66,0.79-0.86c0.34-0.2,0.74-0.3,1.19-0.3
				c0.64,0,1.17,0.2,1.57,0.59s0.63,0.93,0.68,1.6l0.01,0.33c0,0.73-0.2,1.32-0.61,1.76C18.63,9.68,18.08,9.9,17.4,9.9
				c-0.69,0-1.23-0.22-1.64-0.66c-0.41-0.44-0.61-1.04-0.61-1.79V7.4z M16.41,7.48c0,0.45,0.09,0.8,0.26,1.04s0.41,0.36,0.73,0.36
				c0.31,0,0.55-0.12,0.72-0.35s0.26-0.61,0.26-1.13c0-0.44-0.09-0.79-0.26-1.03C17.94,6.12,17.7,6,17.39,6
				c-0.31,0-0.55,0.12-0.72,0.36S16.41,6.98,16.41,7.48z"/>
			<path class="st4" d="M22.59,8.88c0.23,0,0.42-0.06,0.57-0.19s0.22-0.3,0.23-0.51h1.19c0,0.32-0.09,0.62-0.26,0.89
				c-0.17,0.27-0.41,0.48-0.71,0.62c-0.3,0.15-0.63,0.22-1,0.22c-0.68,0-1.22-0.22-1.61-0.65s-0.59-1.03-0.59-1.79V7.38
				c0-0.73,0.2-1.32,0.59-1.75c0.39-0.44,0.92-0.65,1.6-0.65c0.6,0,1.07,0.17,1.43,0.51c0.36,0.34,0.54,0.79,0.55,1.35h-1.19
				c-0.01-0.25-0.08-0.45-0.23-0.6S22.82,6,22.58,6c-0.3,0-0.52,0.11-0.67,0.32c-0.15,0.22-0.23,0.57-0.23,1.05V7.5
				c0,0.49,0.07,0.84,0.22,1.06C22.06,8.77,22.28,8.88,22.59,8.88z"/>
			<path class="st4" d="M26.72,5.58c0.34-0.4,0.76-0.61,1.27-0.61c1.03,0,1.55,0.6,1.57,1.8v3.05h-1.27V6.81
				c0-0.27-0.06-0.47-0.18-0.6c-0.12-0.13-0.31-0.2-0.58-0.2c-0.37,0-0.64,0.14-0.81,0.43v3.38h-1.27V3.06h1.27V5.58z"/>
			<path class="st4" d="M33.27,8.5c0-0.16-0.08-0.28-0.23-0.37c-0.15-0.09-0.4-0.17-0.74-0.24c-1.13-0.24-1.7-0.72-1.7-1.44
				c0-0.42,0.18-0.77,0.53-1.06s0.81-0.42,1.37-0.42c0.6,0,1.09,0.14,1.45,0.43c0.36,0.28,0.54,0.65,0.54,1.11h-1.27
				c0-0.18-0.06-0.33-0.18-0.45c-0.12-0.12-0.3-0.18-0.55-0.18c-0.21,0-0.38,0.05-0.5,0.14c-0.12,0.1-0.18,0.22-0.18,0.37
				c0,0.14,0.07,0.25,0.2,0.34c0.13,0.09,0.36,0.16,0.68,0.22c0.32,0.06,0.58,0.13,0.8,0.21c0.67,0.25,1.01,0.67,1.01,1.28
				c0,0.43-0.19,0.79-0.56,1.05c-0.37,0.27-0.85,0.4-1.44,0.4c-0.4,0-0.75-0.07-1.06-0.21c-0.31-0.14-0.55-0.34-0.73-0.58
				s-0.26-0.51-0.26-0.8h1.2c0.01,0.23,0.1,0.4,0.25,0.52C32.06,8.94,32.27,9,32.53,9c0.24,0,0.43-0.05,0.55-0.14
				C33.21,8.77,33.27,8.65,33.27,8.5z"/>
			<path class="st4" d="M37.48,8.88c0.23,0,0.43-0.06,0.57-0.19s0.22-0.3,0.23-0.51h1.19c0,0.32-0.09,0.62-0.26,0.89
				c-0.17,0.27-0.41,0.48-0.71,0.62c-0.3,0.15-0.63,0.22-1,0.22c-0.68,0-1.22-0.22-1.61-0.65C35.5,8.82,35.3,8.23,35.3,7.47V7.38
				c0-0.73,0.2-1.32,0.58-1.75s0.92-0.65,1.6-0.65c0.59,0,1.07,0.17,1.43,0.51c0.36,0.34,0.54,0.79,0.55,1.35h-1.19
				c-0.01-0.25-0.08-0.45-0.23-0.6S37.71,6,37.47,6c-0.3,0-0.52,0.11-0.67,0.32s-0.23,0.57-0.23,1.05V7.5
				c0,0.49,0.08,0.84,0.22,1.06C36.95,8.77,37.18,8.88,37.48,8.88z"/>
			<path class="st4" d="M41.62,5.58c0.34-0.4,0.76-0.61,1.27-0.61c1.03,0,1.55,0.6,1.57,1.8v3.05h-1.27V6.81
				c0-0.27-0.06-0.47-0.18-0.6c-0.12-0.13-0.31-0.2-0.58-0.2c-0.37,0-0.64,0.14-0.81,0.43v3.38h-1.27V3.06h1.27V5.58z"/>
			<path class="st4" d="M48.44,9.33c-0.31,0.38-0.75,0.57-1.3,0.57c-0.51,0-0.9-0.15-1.17-0.44s-0.41-0.72-0.41-1.29V5.06h1.27v3.08
				c0,0.5,0.23,0.74,0.68,0.74c0.43,0,0.73-0.15,0.89-0.45V5.06h1.27v4.76h-1.2L48.44,9.33z"/>
			<path class="st4" d="M52.14,9.82h-1.28V3.06h1.28V9.82z"/>
			<path class="st4" d="M56.03,6.25c-0.17-0.02-0.33-0.04-0.46-0.04c-0.48,0-0.8,0.16-0.95,0.49v3.11h-1.27V5.06h1.2l0.04,0.57
				c0.25-0.44,0.61-0.65,1.06-0.65c0.14,0,0.27,0.02,0.4,0.06L56.03,6.25z"/>
			<path class="st4" d="M58.75,9.9c-0.7,0-1.27-0.21-1.7-0.64c-0.44-0.43-0.66-1-0.66-1.71V7.43c0-0.48,0.09-0.91,0.28-1.28
				c0.18-0.38,0.45-0.67,0.79-0.87c0.34-0.2,0.72-0.3,1.16-0.3c0.65,0,1.16,0.21,1.54,0.62s0.56,0.99,0.56,1.75v0.52h-3.03
				c0.04,0.31,0.16,0.56,0.37,0.75s0.47,0.28,0.79,0.28c0.49,0,0.87-0.18,1.15-0.53l0.62,0.7c-0.19,0.27-0.45,0.48-0.77,0.63
				C59.51,9.83,59.15,9.9,58.75,9.9z M58.61,6C58.36,6,58.15,6.08,58,6.25c-0.16,0.17-0.26,0.42-0.3,0.73h1.77v-0.1
				c-0.01-0.28-0.08-0.5-0.23-0.66C59.09,6.07,58.88,6,58.61,6z"/>
			<path class="st4" d="M61.6,3.83c0-0.19,0.06-0.35,0.19-0.47c0.13-0.12,0.3-0.19,0.52-0.19c0.22,0,0.39,0.06,0.52,0.19
				c0.13,0.12,0.19,0.28,0.19,0.47c0,0.19-0.07,0.35-0.2,0.47c-0.13,0.12-0.3,0.18-0.52,0.18S61.93,4.43,61.8,4.3
				S61.6,4.02,61.6,3.83z M62.95,9.82h-1.27V5.06h1.27V9.82z"/>
			<path class="st4" d="M64.52,9.82V5.99h-0.71V5.06h0.71V4.66c0-0.53,0.15-0.95,0.46-1.24c0.31-0.29,0.73-0.44,1.29-0.44
				c0.18,0,0.39,0.03,0.65,0.09L66.9,4.05c-0.11-0.03-0.23-0.04-0.39-0.04c-0.48,0-0.72,0.22-0.72,0.67v0.38h0.95v0.93H65.8v3.82
				H64.52z"/>
			<path class="st4" d="M69.63,9.9c-0.7,0-1.27-0.21-1.7-0.64s-0.66-1-0.66-1.71V7.43c0-0.48,0.09-0.91,0.28-1.28
				c0.19-0.38,0.45-0.67,0.79-0.87c0.34-0.2,0.72-0.3,1.16-0.3c0.65,0,1.16,0.21,1.54,0.62C71.4,6,71.59,6.58,71.59,7.33v0.52h-3.03
				c0.04,0.31,0.17,0.56,0.37,0.75c0.21,0.19,0.47,0.28,0.79,0.28c0.49,0,0.87-0.18,1.15-0.53l0.62,0.7
				c-0.19,0.27-0.45,0.48-0.77,0.63C70.38,9.83,70.02,9.9,69.63,9.9z M69.48,6c-0.25,0-0.46,0.09-0.61,0.26
				c-0.16,0.17-0.26,0.42-0.3,0.73h1.77v-0.1c-0.01-0.28-0.08-0.5-0.23-0.66C69.96,6.07,69.75,6,69.48,6z"/>
			<path class="st4" d="M74.96,7.21c0-0.67,0.09-1.31,0.27-1.92c0.18-0.61,0.44-1.14,0.79-1.61c0.35-0.47,0.73-0.79,1.13-0.97
				L77.4,3.4c-0.43,0.32-0.76,0.81-1,1.47c-0.24,0.66-0.36,1.44-0.36,2.32v0.14c0,0.89,0.12,1.66,0.36,2.33
				c0.24,0.67,0.57,1.16,1.01,1.49l-0.25,0.67c-0.4-0.18-0.77-0.49-1.12-0.95c-0.34-0.45-0.61-0.98-0.79-1.57
				c-0.18-0.59-0.28-1.21-0.29-1.85V7.21z"/>
			<path class="st4" d="M81.94,8.5h-2.31l-0.44,1.32h-1.4l2.38-6.4h1.22l2.4,6.4h-1.4L81.94,8.5z M79.98,7.43h1.6l-0.8-2.4
				L79.98,7.43z"/>
			<path class="st4" d="M88.76,7.48c0,0.76-0.16,1.36-0.49,1.78C87.95,9.69,87.5,9.9,86.91,9.9c-0.52,0-0.93-0.2-1.24-0.59
				l-0.06,0.51h-1.14V3.06h1.27v2.42c0.29-0.34,0.68-0.51,1.16-0.51c0.58,0,1.04,0.21,1.37,0.64c0.33,0.43,0.49,1.03,0.49,1.8V7.48z
				 M87.49,7.39c0-0.48-0.08-0.83-0.23-1.05c-0.15-0.22-0.38-0.33-0.68-0.33c-0.41,0-0.68,0.17-0.84,0.5v1.88
				c0.16,0.33,0.44,0.5,0.84,0.5c0.41,0,0.68-0.2,0.81-0.61C87.46,8.08,87.49,7.79,87.49,7.39z"/>
			<path class="st4" d="M89.72,3.83c0-0.19,0.06-0.35,0.19-0.47c0.13-0.12,0.3-0.19,0.52-0.19c0.22,0,0.39,0.06,0.52,0.19
				c0.13,0.12,0.19,0.28,0.19,0.47c0,0.19-0.07,0.35-0.2,0.47c-0.13,0.12-0.3,0.18-0.52,0.18s-0.39-0.06-0.52-0.18
				S89.72,4.02,89.72,3.83z M91.07,9.82h-1.27V5.06h1.27V9.82z"/>
			<path class="st4" d="M93.81,3.89v1.17h0.81v0.93h-0.81v2.37c0,0.18,0.03,0.3,0.1,0.38s0.2,0.11,0.39,0.11
				c0.14,0,0.26-0.01,0.37-0.03v0.96c-0.25,0.08-0.51,0.11-0.77,0.11c-0.89,0-1.35-0.45-1.36-1.35V5.99h-0.69V5.06h0.69V3.89H93.81z
				"/>
			<path class="st4" d="M98.36,9.33c-0.31,0.38-0.75,0.57-1.3,0.57c-0.51,0-0.9-0.15-1.17-0.44s-0.41-0.72-0.41-1.29V5.06h1.27v3.08
				c0,0.5,0.23,0.74,0.68,0.74c0.43,0,0.73-0.15,0.89-0.45V5.06h1.27v4.76h-1.2L98.36,9.33z"/>
			<path class="st4" d="M103.41,6.25c-0.17-0.02-0.33-0.04-0.46-0.04c-0.48,0-0.8,0.16-0.95,0.49v3.11h-1.27V5.06h1.2l0.04,0.57
				c0.25-0.44,0.61-0.65,1.06-0.65c0.14,0,0.27,0.02,0.4,0.06L103.41,6.25z"/>
			<path class="st4" d="M106.39,7.32c0,0.66-0.09,1.3-0.29,1.91c-0.19,0.61-0.46,1.15-0.82,1.62s-0.74,0.79-1.15,0.97l-0.25-0.67
				c0.42-0.31,0.74-0.8,0.98-1.45s0.37-1.41,0.37-2.25V7.21c0-0.88-0.12-1.65-0.36-2.32c-0.24-0.67-0.57-1.17-1-1.5l0.25-0.67
				c0.4,0.17,0.77,0.49,1.13,0.94s0.63,0.98,0.82,1.59s0.3,1.23,0.31,1.88V7.32z"/>
			<path class="st4" d="M111,7.86c0-0.41,0.05-0.74,0.15-0.98c0.1-0.24,0.28-0.48,0.55-0.72c0.27-0.24,0.44-0.43,0.53-0.58
				c0.09-0.15,0.13-0.3,0.13-0.47c0-0.5-0.23-0.74-0.69-0.74c-0.22,0-0.39,0.07-0.52,0.2c-0.13,0.13-0.2,0.32-0.2,0.55h-1.27
				c0.01-0.56,0.19-1,0.54-1.32c0.36-0.32,0.84-0.48,1.46-0.48c0.62,0,1.1,0.15,1.45,0.45c0.34,0.3,0.52,0.73,0.52,1.27
				c0,0.25-0.06,0.49-0.17,0.71c-0.11,0.22-0.31,0.47-0.58,0.74l-0.36,0.34c-0.22,0.21-0.35,0.46-0.38,0.75l-0.02,0.27H111z
				 M110.87,9.2c0-0.2,0.07-0.36,0.2-0.48s0.3-0.19,0.51-0.19c0.21,0,0.38,0.06,0.51,0.19s0.2,0.29,0.2,0.48
				c0,0.19-0.07,0.35-0.2,0.48c-0.13,0.13-0.3,0.19-0.52,0.19c-0.21,0-0.39-0.06-0.52-0.19C110.94,9.56,110.87,9.4,110.87,9.2z"/>
		</g>
	</g>
	<g>
		<path class="st4" d="M18.54,72.43h-1.32v-2.74h-2.57v2.74h-1.32v-6.4h1.32v2.59h2.57v-2.59h1.32V72.43z"/>
		<path class="st4" d="M22.55,72.43c-0.06-0.11-0.1-0.26-0.13-0.43c-0.31,0.34-0.71,0.51-1.2,0.51c-0.47,0-0.85-0.13-1.16-0.4
			c-0.31-0.27-0.46-0.61-0.46-1.02c0-0.5,0.19-0.89,0.56-1.16s0.91-0.41,1.62-0.41h0.58v-0.27c0-0.22-0.06-0.4-0.17-0.53
			s-0.29-0.2-0.53-0.2c-0.21,0-0.38,0.05-0.5,0.15s-0.18,0.24-0.18,0.42h-1.27c0-0.28,0.08-0.53,0.25-0.76s0.41-0.42,0.72-0.55
			c0.31-0.13,0.66-0.2,1.05-0.2c0.59,0,1.05,0.15,1.4,0.44c0.34,0.29,0.52,0.71,0.52,1.24v2.06c0,0.45,0.07,0.79,0.19,1.02v0.08
			H22.55z M21.5,71.55c0.19,0,0.36-0.04,0.52-0.12c0.16-0.08,0.28-0.2,0.35-0.34v-0.82h-0.47c-0.64,0-0.97,0.22-1.02,0.66l0,0.07
			c0,0.16,0.06,0.29,0.17,0.39S21.3,71.55,21.5,71.55z"/>
		<path class="st4" d="M27.64,71.95c-0.31,0.38-0.75,0.57-1.3,0.57c-0.51,0-0.9-0.15-1.17-0.44c-0.27-0.29-0.41-0.72-0.41-1.29
			v-3.12h1.27v3.08c0,0.5,0.22,0.74,0.68,0.74c0.43,0,0.73-0.15,0.89-0.45v-3.37h1.28v4.76h-1.2L27.64,71.95z"/>
		<path class="st4" d="M34.28,70.1c0,0.73-0.17,1.32-0.5,1.76c-0.33,0.44-0.78,0.66-1.35,0.66c-0.48,0-0.87-0.17-1.17-0.5v2.24H30
			v-6.58h1.18l0.04,0.47c0.31-0.37,0.71-0.55,1.2-0.55c0.59,0,1.04,0.22,1.37,0.65c0.33,0.43,0.49,1.03,0.49,1.79V70.1z M33.01,70
			c0-0.44-0.08-0.78-0.24-1.02c-0.16-0.24-0.38-0.36-0.68-0.36c-0.4,0-0.67,0.15-0.82,0.46v1.95c0.16,0.31,0.43,0.47,0.83,0.47
			C32.7,71.49,33.01,71,33.01,70z"/>
		<path class="st4" d="M36.77,66.51v1.17h0.81v0.93h-0.81v2.37c0,0.18,0.03,0.3,0.1,0.38s0.2,0.11,0.39,0.11
			c0.14,0,0.26-0.01,0.37-0.03v0.96c-0.25,0.08-0.51,0.11-0.77,0.11c-0.89,0-1.35-0.45-1.36-1.35v-2.56H34.8v-0.93h0.69v-1.17H36.77
			z"/>
		<path class="st4" d="M41.04,71.12c0-0.16-0.08-0.28-0.23-0.37c-0.15-0.09-0.4-0.17-0.74-0.24c-1.13-0.24-1.7-0.72-1.7-1.44
			c0-0.42,0.17-0.77,0.53-1.06s0.81-0.42,1.37-0.42c0.6,0,1.09,0.14,1.45,0.43s0.54,0.65,0.54,1.11H41c0-0.18-0.06-0.33-0.18-0.45
			c-0.12-0.12-0.3-0.18-0.55-0.18c-0.21,0-0.38,0.05-0.5,0.14s-0.18,0.22-0.18,0.37c0,0.14,0.07,0.25,0.2,0.34
			c0.13,0.09,0.36,0.16,0.67,0.22c0.32,0.06,0.58,0.13,0.8,0.21c0.67,0.25,1.01,0.67,1.01,1.28c0,0.43-0.19,0.79-0.56,1.05
			c-0.37,0.27-0.85,0.4-1.44,0.4c-0.4,0-0.75-0.07-1.06-0.21c-0.31-0.14-0.55-0.34-0.73-0.58s-0.26-0.51-0.26-0.8h1.21
			c0.01,0.23,0.09,0.4,0.25,0.52s0.36,0.18,0.62,0.18c0.24,0,0.43-0.05,0.55-0.14C40.98,71.39,41.04,71.27,41.04,71.12z"/>
		<path class="st4" d="M45.26,71.49c0.23,0,0.42-0.06,0.57-0.19s0.22-0.3,0.23-0.51h1.19c0,0.32-0.09,0.62-0.26,0.89
			c-0.17,0.27-0.41,0.48-0.71,0.62c-0.3,0.15-0.63,0.22-1,0.22c-0.68,0-1.22-0.22-1.61-0.65s-0.59-1.03-0.59-1.79V70
			c0-0.73,0.19-1.32,0.58-1.75c0.39-0.44,0.92-0.65,1.6-0.65c0.59,0,1.07,0.17,1.43,0.51c0.36,0.34,0.54,0.79,0.55,1.35h-1.19
			c-0.01-0.25-0.08-0.45-0.23-0.6s-0.34-0.23-0.58-0.23c-0.3,0-0.52,0.11-0.67,0.32c-0.15,0.22-0.23,0.57-0.23,1.05v0.13
			c0,0.49,0.07,0.84,0.22,1.06C44.72,71.39,44.95,71.49,45.26,71.49z"/>
		<path class="st4" d="M49.39,68.19c0.34-0.4,0.76-0.61,1.27-0.61c1.03,0,1.55,0.6,1.57,1.8v3.05h-1.27v-3.01
			c0-0.27-0.06-0.47-0.18-0.6c-0.12-0.13-0.31-0.2-0.58-0.2c-0.37,0-0.64,0.14-0.81,0.43v3.38h-1.27v-6.75h1.27V68.19z"/>
		<path class="st4" d="M56.21,71.95c-0.31,0.38-0.75,0.57-1.3,0.57c-0.51,0-0.9-0.15-1.17-0.44c-0.27-0.29-0.4-0.72-0.41-1.29v-3.12
			h1.27v3.08c0,0.5,0.23,0.74,0.68,0.74c0.43,0,0.73-0.15,0.89-0.45v-3.37h1.27v4.76h-1.2L56.21,71.95z"/>
		<path class="st4" d="M59.92,72.43h-1.27v-6.75h1.27V72.43z"/>
		<path class="st4" d="M63.89,72.43c-0.06-0.11-0.1-0.26-0.13-0.43c-0.31,0.34-0.71,0.51-1.2,0.51c-0.46,0-0.85-0.13-1.16-0.4
			c-0.31-0.27-0.46-0.61-0.46-1.02c0-0.5,0.19-0.89,0.56-1.16s0.91-0.41,1.62-0.41h0.58v-0.27c0-0.22-0.06-0.4-0.17-0.53
			s-0.29-0.2-0.53-0.2c-0.21,0-0.38,0.05-0.5,0.15s-0.18,0.24-0.18,0.42h-1.27c0-0.28,0.08-0.53,0.25-0.76s0.41-0.42,0.72-0.55
			c0.31-0.13,0.66-0.2,1.04-0.2c0.59,0,1.05,0.15,1.4,0.44c0.34,0.29,0.52,0.71,0.52,1.24v2.06c0,0.45,0.07,0.79,0.19,1.02v0.08
			H63.89z M62.84,71.55c0.19,0,0.36-0.04,0.52-0.12c0.16-0.08,0.28-0.2,0.35-0.34v-0.82h-0.47c-0.64,0-0.97,0.22-1.02,0.66l0,0.07
			c0,0.16,0.06,0.29,0.17,0.39S62.65,71.55,62.84,71.55z"/>
		<path class="st4" d="M70.42,70.1c0,0.76-0.16,1.36-0.49,1.78c-0.33,0.43-0.78,0.64-1.36,0.64c-0.52,0-0.93-0.2-1.24-0.59
			l-0.06,0.51h-1.14v-6.75h1.27v2.42c0.29-0.34,0.68-0.51,1.16-0.51c0.58,0,1.04,0.21,1.37,0.64c0.33,0.43,0.49,1.03,0.49,1.8V70.1z
			 M69.15,70c0-0.48-0.08-0.83-0.23-1.05c-0.15-0.22-0.38-0.33-0.68-0.33c-0.41,0-0.68,0.17-0.84,0.5v1.88
			c0.16,0.33,0.44,0.5,0.84,0.5c0.41,0,0.68-0.2,0.81-0.61C69.12,70.69,69.15,70.4,69.15,70z"/>
		<path class="st4" d="M73.96,71.12c0-0.16-0.08-0.28-0.23-0.37c-0.15-0.09-0.4-0.17-0.74-0.24c-1.13-0.24-1.7-0.72-1.7-1.44
			c0-0.42,0.17-0.77,0.53-1.06s0.81-0.42,1.37-0.42c0.6,0,1.09,0.14,1.45,0.43s0.54,0.65,0.54,1.11h-1.27
			c0-0.18-0.06-0.33-0.18-0.45c-0.12-0.12-0.3-0.18-0.55-0.18c-0.21,0-0.38,0.05-0.5,0.14s-0.18,0.22-0.18,0.37
			c0,0.14,0.07,0.25,0.2,0.34c0.13,0.09,0.36,0.16,0.67,0.22c0.32,0.06,0.58,0.13,0.8,0.21c0.67,0.25,1.01,0.67,1.01,1.28
			c0,0.43-0.19,0.79-0.56,1.05c-0.37,0.27-0.85,0.4-1.44,0.4c-0.4,0-0.75-0.07-1.06-0.21c-0.31-0.14-0.55-0.34-0.73-0.58
			s-0.26-0.51-0.26-0.8h1.21c0.01,0.23,0.09,0.4,0.25,0.52s0.36,0.18,0.62,0.18c0.24,0,0.43-0.05,0.55-0.14
			C73.9,71.39,73.96,71.27,73.96,71.12z"/>
		<path class="st4" d="M78.17,71.49c0.23,0,0.42-0.06,0.57-0.19s0.22-0.3,0.23-0.51h1.19c0,0.32-0.09,0.62-0.26,0.89
			c-0.17,0.27-0.41,0.48-0.71,0.62c-0.3,0.15-0.63,0.22-1,0.22c-0.68,0-1.22-0.22-1.61-0.65c-0.39-0.43-0.59-1.03-0.59-1.79V70
			c0-0.73,0.19-1.32,0.58-1.75c0.39-0.44,0.92-0.65,1.61-0.65c0.59,0,1.07,0.17,1.43,0.51c0.36,0.34,0.54,0.79,0.55,1.35h-1.19
			c-0.01-0.25-0.08-0.45-0.23-0.6s-0.34-0.23-0.58-0.23c-0.3,0-0.52,0.11-0.67,0.32c-0.15,0.22-0.23,0.57-0.23,1.05v0.13
			c0,0.49,0.08,0.84,0.22,1.06C77.64,71.39,77.86,71.49,78.17,71.49z"/>
		<path class="st4" d="M82.3,68.19c0.34-0.4,0.76-0.61,1.27-0.61c1.03,0,1.55,0.6,1.57,1.8v3.05h-1.27v-3.01
			c0-0.27-0.06-0.47-0.18-0.6c-0.12-0.13-0.31-0.2-0.58-0.2c-0.37,0-0.64,0.14-0.81,0.43v3.38h-1.27v-6.75h1.27V68.19z"/>
		<path class="st4" d="M87.61,72.43h-1.27v-6.75h1.27V72.43z"/>
		<path class="st4" d="M91.68,71.95c-0.31,0.38-0.75,0.57-1.3,0.57c-0.51,0-0.9-0.15-1.17-0.44s-0.41-0.72-0.41-1.29v-3.12h1.27
			v3.08c0,0.5,0.23,0.74,0.68,0.74c0.43,0,0.73-0.15,0.89-0.45v-3.37h1.28v4.76h-1.2L91.68,71.95z"/>
		<path class="st4" d="M96.63,71.12c0-0.16-0.08-0.28-0.23-0.37c-0.15-0.09-0.4-0.17-0.74-0.24c-1.13-0.24-1.7-0.72-1.7-1.44
			c0-0.42,0.17-0.77,0.53-1.06s0.81-0.42,1.37-0.42c0.6,0,1.09,0.14,1.45,0.43s0.54,0.65,0.54,1.11h-1.27
			c0-0.18-0.06-0.33-0.18-0.45c-0.12-0.12-0.3-0.18-0.55-0.18c-0.21,0-0.38,0.05-0.5,0.14s-0.18,0.22-0.18,0.37
			c0,0.14,0.07,0.25,0.2,0.34c0.13,0.09,0.36,0.16,0.67,0.22c0.32,0.06,0.58,0.13,0.8,0.21c0.67,0.25,1.01,0.67,1.01,1.28
			c0,0.43-0.19,0.79-0.56,1.05c-0.37,0.27-0.85,0.4-1.44,0.4c-0.4,0-0.75-0.07-1.06-0.21c-0.31-0.14-0.55-0.34-0.73-0.58
			s-0.26-0.51-0.26-0.8h1.21c0.01,0.23,0.09,0.4,0.25,0.52s0.36,0.18,0.62,0.18c0.24,0,0.43-0.05,0.55-0.14
			C96.56,71.39,96.63,71.27,96.63,71.12z"/>
		<path class="st4" d="M101.44,71.12c0-0.16-0.08-0.28-0.23-0.37c-0.15-0.09-0.4-0.17-0.74-0.24c-1.13-0.24-1.7-0.72-1.7-1.44
			c0-0.42,0.17-0.77,0.53-1.06c0.35-0.28,0.81-0.42,1.37-0.42c0.6,0,1.09,0.14,1.45,0.43c0.36,0.28,0.54,0.65,0.54,1.11h-1.27
			c0-0.18-0.06-0.33-0.18-0.45c-0.12-0.12-0.3-0.18-0.55-0.18c-0.21,0-0.38,0.05-0.5,0.14s-0.18,0.22-0.18,0.37
			c0,0.14,0.07,0.25,0.2,0.34c0.13,0.09,0.36,0.16,0.67,0.22c0.32,0.06,0.58,0.13,0.8,0.21c0.67,0.25,1.01,0.67,1.01,1.28
			c0,0.43-0.19,0.79-0.56,1.05c-0.37,0.27-0.85,0.4-1.44,0.4c-0.4,0-0.75-0.07-1.06-0.21c-0.31-0.14-0.55-0.34-0.73-0.58
			s-0.26-0.51-0.26-0.8h1.21c0.01,0.23,0.1,0.4,0.25,0.52c0.16,0.12,0.36,0.18,0.62,0.18c0.24,0,0.43-0.05,0.55-0.14
			C101.37,71.39,101.44,71.27,101.44,71.12z"/>
		<path class="st4" d="M107.13,70.47c0-0.41,0.05-0.74,0.15-0.98c0.1-0.24,0.28-0.48,0.55-0.72c0.27-0.24,0.44-0.43,0.53-0.58
			c0.09-0.15,0.13-0.3,0.13-0.47c0-0.5-0.23-0.74-0.69-0.74c-0.22,0-0.39,0.07-0.52,0.2c-0.13,0.13-0.2,0.32-0.2,0.55h-1.27
			c0.01-0.56,0.19-1,0.54-1.32c0.36-0.32,0.84-0.48,1.46-0.48c0.62,0,1.1,0.15,1.45,0.45c0.34,0.3,0.52,0.73,0.52,1.27
			c0,0.25-0.06,0.49-0.17,0.71c-0.11,0.22-0.31,0.47-0.58,0.74l-0.36,0.34c-0.22,0.21-0.35,0.46-0.38,0.75l-0.02,0.27H107.13z
			 M107,71.82c0-0.2,0.07-0.36,0.2-0.48s0.3-0.19,0.51-0.19c0.21,0,0.38,0.06,0.51,0.19s0.2,0.29,0.2,0.48
			c0,0.19-0.07,0.35-0.2,0.48c-0.13,0.13-0.3,0.19-0.52,0.19c-0.21,0-0.39-0.06-0.52-0.19C107.06,72.17,107,72.01,107,71.82z"/>
	</g>
	<g>
		<polygon class="st4" points="55.52,64.17 67.86,64.17 61.69,56 		"/>
	</g>
	<g>
		<polygon class="st4" points="55.52,32.53 67.86,32.53 61.69,24.36 		"/>
	</g>
	<g>
		<polygon class="st4" points="55.52,53.02 67.86,53.02 61.69,44.85 		"/>
	</g>
	<g>
		<polygon class="st4" points="55.52,20.38 67.86,20.38 61.69,12.22 		"/>
	</g>
</g>
</svg>
