<?xml version="1.0" encoding="utf-8"?>
<!-- Generator: Adobe Illustrator 26.0.2, SVG Export Plug-In . SVG Version: 6.00 Build 0)  -->
<svg version="1.1" id="Ebene_1" xmlns="http://www.w3.org/2000/svg" xmlns:xlink="http://www.w3.org/1999/xlink" x="0px" y="0px"
	 viewBox="0 0 177.76 62.33" style="enable-background:new 0 0 177.76 62.33;" xml:space="preserve">
<style type="text/css">
	.st0{clip-path:url(#SVGID_00000042714827061861591960000011524226258836639661_);fill:#6796CF;}
	.st1{clip-path:url(#SVGID_00000042714827061861591960000011524226258836639661_);fill:#2B2961;}
	.st2{fill:#6796CF;}
	.st3{clip-path:url(#SVGID_00000176739891454978075250000000290447085280688270_);fill:#2B2961;}
	.st4{fill:#FFFFFF;}
	.st5{clip-path:url(#SVGID_00000098212177117157703640000008118610855933871258_);fill:#2B2961;}
	.st6{clip-path:url(#SVGID_00000114053728949656872540000000008680213309880706_);fill:#2B2961;}
	.st7{clip-path:url(#SVGID_00000001652410530604076480000016622901769185438353_);fill:#2B2961;}
	.st8{fill:#2B2961;}
	.st9{clip-path:url(#SVGID_00000175321017041134706990000011745484576404288181_);fill:#6796CF;}
	.st10{clip-path:url(#SVGID_00000175321017041134706990000011745484576404288181_);fill:#2B2961;}
	.st11{clip-path:url(#SVGID_00000144304016675524963960000010857139264603621562_);fill:#2B2961;}
	.st12{clip-path:url(#SVGID_00000132773100526308272270000012380236101182725524_);fill:#2B2961;}
	.st13{clip-path:url(#SVGID_00000132773100526308272270000012380236101182725524_);fill:#6796CF;}
	.st14{clip-path:url(#SVGID_00000109746202636918963950000005960395820301823894_);fill:#2B2961;}
	.st15{clip-path:url(#SVGID_00000017518582011348357590000015423706711113502606_);fill:#2B2961;}
	.st16{clip-path:url(#SVGID_00000016787013591535189710000011613670271435081129_);fill:#2B2961;}
	.st17{clip-path:url(#SVGID_00000016787013591535189710000011613670271435081129_);fill:#6796CF;}
	.st18{clip-path:url(#SVGID_00000028305802620391541270000017338780707483328943_);fill:#2B2961;}
	.st19{clip-path:url(#SVGID_00000016052873162695438520000013261254052402202300_);fill:#2B2961;}
	.st20{clip-path:url(#SVGID_00000174568611203622501890000002056568809246872507_);fill:#2B2961;}
	.st21{clip-path:url(#SVGID_00000173853274812529704600000005572187083650409604_);fill:#2B2961;}
	.st22{clip-path:url(#SVGID_00000125566166198537142330000001036065857500371121_);fill:#6796CF;}
	.st23{clip-path:url(#SVGID_00000125566166198537142330000001036065857500371121_);fill:#2B2961;}
	.st24{clip-path:url(#SVGID_00000140700251594496771970000002231270053199999162_);fill:#2B2961;}
	.st25{clip-path:url(#SVGID_00000009566168475368293500000007521839456724997795_);fill:#2B2961;}
	.st26{clip-path:url(#SVGID_00000009566168475368293500000007521839456724997795_);fill:#6796CF;}
	.st27{clip-path:url(#SVGID_00000154415797678229061690000009008789906747753911_);fill:#2B2961;}
	.st28{clip-path:url(#SVGID_00000080885088565603237780000015290348299899763130_);fill:#2B2961;}
	.st29{clip-path:url(#SVGID_00000123412769616795122350000002007479384691120774_);fill:#2B2961;}
	.st30{clip-path:url(#SVGID_00000123412769616795122350000002007479384691120774_);fill:#6796CF;}
	.st31{clip-path:url(#SVGID_00000117645581735705538310000001507585242277831351_);fill:#2B2961;}
	.st32{clip-path:url(#SVGID_00000127030668430803329890000007860071700525238452_);fill:#6796CF;}
	.st33{clip-path:url(#SVGID_00000127030668430803329890000007860071700525238452_);fill:#2B2961;}
	.st34{clip-path:url(#SVGID_00000145035303018598488550000017113455435529255315_);fill:#2B2961;}
	.st35{clip-path:url(#SVGID_00000145035303018598488550000017113455435529255315_);fill:#6796CF;}
	.st36{clip-path:url(#SVGID_00000028322207530835126390000014890257236617025433_);fill:#2B2961;}
	.st37{clip-path:url(#SVGID_00000012460580979568198080000001024686421027995324_);fill:#FFFFFF;}
	.st38{clip-path:url(#SVGID_00000012460580979568198080000001024686421027995324_);fill:#2B2961;}
	.st39{clip-path:url(#SVGID_00000096018971561661978000000000986583913944782751_);fill:#FFFFFF;}
	.st40{clip-path:url(#SVGID_00000096018971561661978000000000986583913944782751_);fill:#2B2961;}
	.st41{clip-path:url(#SVGID_00000158015536155538287310000001457410982724340146_);fill:#6796CF;}
	.st42{clip-path:url(#SVGID_00000158015536155538287310000001457410982724340146_);fill:#2B2961;}
	.st43{clip-path:url(#SVGID_00000011003724260224854940000015093084188460484520_);fill:#2B2961;}
	.st44{clip-path:url(#SVGID_00000178909019303648987850000010447375968499797398_);fill:#6796CF;}
	.st45{clip-path:url(#SVGID_00000178909019303648987850000010447375968499797398_);fill:#2B2961;}
	.st46{clip-path:url(#SVGID_00000128453173765729370190000013009493154015177369_);fill:#2B2961;}
	.st47{clip-path:url(#SVGID_00000019671358560744508000000014700522762273483414_);fill:#2B2961;}
	.st48{clip-path:url(#SVGID_00000019671358560744508000000014700522762273483414_);fill:#6796CF;}
	.st49{clip-path:url(#SVGID_00000053526472597397830970000007085098511302721954_);fill:#2B2961;}
	.st50{clip-path:url(#SVGID_00000082357622366448112040000012097556564715112596_);fill:#2B2961;}
	.st51{clip-path:url(#SVGID_00000072244428714436434830000012875400910969707922_);fill:#2B2961;}
	.st52{clip-path:url(#SVGID_00000072244428714436434830000012875400910969707922_);fill:#6796CF;}
	.st53{clip-path:url(#SVGID_00000033341449472427450160000011673319777495795135_);fill:#2B2961;}
	.st54{clip-path:url(#SVGID_00000081644664626400583640000017355911135743126205_);fill:#2B2961;}
	.st55{clip-path:url(#SVGID_00000059291720972253511110000007068708850394133638_);fill:#2B2961;}
	.st56{clip-path:url(#SVGID_00000030447126031927572080000007244086537711260598_);fill:#2B2961;}
	.st57{clip-path:url(#SVGID_00000044900731204146409980000014947344724326431912_);fill:#6796CF;}
	.st58{clip-path:url(#SVGID_00000093136812161908108760000018115262322074517663_);fill:#2B2961;}
	.st59{clip-path:url(#SVGID_00000072240158442011329990000014893157237689269936_);fill:#2B2961;}
	.st60{clip-path:url(#SVGID_00000080890360140695582710000003949986941098466227_);fill:#6796CF;}
	.st61{clip-path:url(#SVGID_00000040533907565651921470000014649501819423735947_);fill:#2B2961;}
	.st62{clip-path:url(#SVGID_00000056391805275334433400000010239660584702098056_);fill:#2B2961;}
	.st63{clip-path:url(#SVGID_00000056391805275334433400000010239660584702098056_);fill:#6796CF;}
	.st64{clip-path:url(#SVGID_00000147209688648191768810000006918013958683963787_);fill:#2B2961;}
	.st65{clip-path:url(#SVGID_00000009589913391406177860000012529187222459958952_);fill:#6796CF;}
	.st66{clip-path:url(#SVGID_00000009589913391406177860000012529187222459958952_);fill:#2B2961;}
	.st67{clip-path:url(#SVGID_00000083772841346080809300000011769361008835727290_);fill:#2B2961;}
	.st68{clip-path:url(#SVGID_00000031176384000765599990000016418828654153014421_);fill:#2B2961;}
	.st69{clip-path:url(#SVGID_00000031176384000765599990000016418828654153014421_);fill:#6796CF;}
	.st70{clip-path:url(#SVGID_00000010995180872435907300000013498834730155244930_);fill:#2B2961;}
	.st71{clip-path:url(#SVGID_00000019653112430308737040000010797600141645019049_);fill:#2B2961;}
	.st72{clip-path:url(#SVGID_00000055686361709731605710000000678929779159756433_);fill:#2B2961;}
	.st73{clip-path:url(#SVGID_00000055686361709731605710000000678929779159756433_);fill:#6796CF;}
	.st74{clip-path:url(#SVGID_00000011720899912022580140000001335628190288840329_);fill:#2B2961;}
	.st75{clip-path:url(#SVGID_00000011750501467263441710000006832793456255199874_);fill:#2B2961;}
	.st76{clip-path:url(#SVGID_00000075155776477457230410000008072928801320961664_);fill:#2B2961;}
	.st77{clip-path:url(#SVGID_00000003819693163520721970000012010482908129768327_);fill:#2B2961;}
	.st78{clip-path:url(#SVGID_00000139284577699330890860000007743305774181331630_);fill:#6796CF;}
	.st79{clip-path:url(#SVGID_00000139284577699330890860000007743305774181331630_);fill:#2B2961;}
	.st80{clip-path:url(#SVGID_00000075851086669036873580000016010175373505236154_);fill:#FFFFFF;}
	.st81{clip-path:url(#SVGID_00000075851086669036873580000016010175373505236154_);fill:#2B2961;}
	.st82{clip-path:url(#SVGID_00000144320509493827773360000005985852003269170312_);fill:#2B2961;}
	.st83{clip-path:url(#SVGID_00000182527192140237484130000000749937355576937384_);fill:#2B2961;}
	.st84{clip-path:url(#SVGID_00000182527192140237484130000000749937355576937384_);fill:#6796CF;}
	.st85{clip-path:url(#SVGID_00000055668562962243111040000012964405398361289373_);fill:#2B2961;}
	.st86{clip-path:url(#SVGID_00000102541848683097760200000001226792643061120176_);fill:#2B2961;}
	.st87{clip-path:url(#SVGID_00000102541848683097760200000001226792643061120176_);fill:#FFFFFF;}
	.st88{clip-path:url(#SVGID_00000085232467044553515150000004064043971080365709_);fill:#6796CF;}
	.st89{clip-path:url(#SVGID_00000085232467044553515150000004064043971080365709_);fill:#2B2961;}
	.st90{clip-path:url(#SVGID_00000123410295312254377450000000864113284890752670_);fill:#2B2961;}
	.st91{clip-path:url(#SVGID_00000013192569050802477190000004030060527006910371_);fill:#2B2961;}
	.st92{clip-path:url(#SVGID_00000013192569050802477190000004030060527006910371_);fill:#6796CF;}
	.st93{clip-path:url(#SVGID_00000108300465206963613440000006310732850343982984_);fill:#2B2961;}
	.st94{clip-path:url(#SVGID_00000108300465206963613440000006310732850343982984_);fill:#FFFFFF;}
	.st95{clip-path:url(#SVGID_00000064325180185854275420000007704034070070601096_);fill:#6796CF;}
	.st96{clip-path:url(#SVGID_00000064325180185854275420000007704034070070601096_);fill:#2B2961;}
	.st97{clip-path:url(#SVGID_00000064325180185854275420000007704034070070601096_);fill:#FFFFFF;}
	.st98{clip-path:url(#SVGID_00000146467480078059892150000001663162082134996920_);fill:#2B2961;}
	.st99{clip-path:url(#SVGID_00000146467480078059892150000001663162082134996920_);fill:#6796CF;}
	.st100{clip-path:url(#SVGID_00000039840774309959382120000011304401201750975896_);fill:#2B2961;}
	.st101{clip-path:url(#SVGID_00000025424205954945802440000006757038505137968810_);fill:#2B2961;}
	.st102{clip-path:url(#SVGID_00000093867610259906834780000016370839913303440049_);fill:#2B2961;}
	.st103{clip-path:url(#SVGID_00000095297873715123509210000006008092943986755736_);fill:#2B2961;}
	.st104{clip-path:url(#SVGID_00000156552580694921016730000016264173669137979270_);fill:#2B2961;}
	.st105{clip-path:url(#SVGID_00000121275667932628987160000007162015694481485189_);fill:#FFFFFF;}
	.st106{clip-path:url(#SVGID_00000121275667932628987160000007162015694481485189_);fill:#2B2961;}
	.st107{clip-path:url(#SVGID_00000121275667932628987160000007162015694481485189_);fill:#6796CF;}
	.st108{clip-path:url(#SVGID_00000158737440318212985020000008000793814325436584_);fill:#FFFFFF;}
	.st109{clip-path:url(#SVGID_00000119824093987648914760000006404228181631694490_);fill:#2B2961;}
	.st110{clip-path:url(#SVGID_00000119824093987648914760000006404228181631694490_);fill:#FFFFFF;}
	.st111{clip-path:url(#SVGID_00000175299618936409499890000012016046703414130338_);fill:#2B2961;}
	.st112{clip-path:url(#SVGID_00000161620823775137745990000011435143046996071333_);fill:#2B2961;}
	.st113{clip-path:url(#SVGID_00000161620823775137745990000011435143046996071333_);fill:#6796CF;}
	.st114{clip-path:url(#SVGID_00000072991445854374218670000015350930925735407255_);fill:#2B2961;}
	.st115{clip-path:url(#SVGID_00000118391175583725762400000017647290855217440176_);fill:#2B2961;}
	.st116{clip-path:url(#SVGID_00000118391175583725762400000017647290855217440176_);fill:#FFFFFF;}
	.st117{clip-path:url(#SVGID_00000075854198562011134730000017317798696273517991_);fill:#6796CF;}
	.st118{clip-path:url(#SVGID_00000036211011292999941000000006027894184565549984_);fill:#2B2961;}
	.st119{clip-path:url(#SVGID_00000093879279030215621560000016077540516091750807_);fill:#2B2961;}
	.st120{clip-path:url(#SVGID_00000008148435834148015960000002533492577179852425_);fill:#FFFFFF;}
	.st121{clip-path:url(#SVGID_00000008148435834148015960000002533492577179852425_);fill:#2B2961;}
	.st122{clip-path:url(#SVGID_00000170960561554965825700000001979038189624003995_);fill:#FFFFFF;}
	.st123{clip-path:url(#SVGID_00000170960561554965825700000001979038189624003995_);fill:#2B2961;}
	.st124{clip-path:url(#SVGID_00000014596186820152576870000018101019098413583253_);fill:#6796CF;}
	.st125{clip-path:url(#SVGID_00000014596186820152576870000018101019098413583253_);fill:#2B2961;}
	.st126{clip-path:url(#SVGID_00000085969695819183896130000015713385277558814878_);fill:#2B2961;}
	.st127{clip-path:url(#SVGID_00000085969695819183896130000015713385277558814878_);fill:#6796CF;}
	.st128{clip-path:url(#SVGID_00000067225388443157656870000007187260375392276616_);fill:#6796CF;}
	.st129{clip-path:url(#SVGID_00000042006220119675241190000005138311064759595708_);fill:#2B2961;}
	.st130{clip-path:url(#SVGID_00000072278651154944273810000008816675746097506226_);fill:#2B2961;}
	.st131{clip-path:url(#SVGID_00000142890790518313103950000013678504551920490910_);fill:#2B2961;}
	.st132{clip-path:url(#SVGID_00000106825611172966958990000011036319809334479759_);fill:#2B2961;}
	.st133{clip-path:url(#SVGID_00000139261680498088960860000013995042169298560951_);fill:#2B2961;}
	.st134{clip-path:url(#SVGID_00000139261680498088960860000013995042169298560951_);fill:#6796CF;}
	.st135{clip-path:url(#SVGID_00000123423611052633092010000005468877578907123887_);fill:#6796CF;}
	.st136{clip-path:url(#SVGID_00000093177211816536891300000015222388490792426157_);fill:#2B2961;}
	.st137{clip-path:url(#SVGID_00000127025693085352115800000006667416423133543811_);fill:#2B2961;}
	.st138{clip-path:url(#SVGID_00000055679304131152991200000001971399085343104191_);fill:#2B2961;}
	.st139{clip-path:url(#SVGID_00000086676588925540074590000014868273183768383161_);fill:#2B2961;}
	.st140{clip-path:url(#SVGID_00000068636297141771559200000002234607197634216116_);fill:#6796CF;}
	.st141{clip-path:url(#SVGID_00000068636297141771559200000002234607197634216116_);fill:#2B2961;}
	.st142{clip-path:url(#SVGID_00000078742456415299074030000004563368448909404817_);fill:#2B2961;}
	.st143{clip-path:url(#SVGID_00000098922986703685961730000018028428126631865501_);fill:#2B2961;}
	.st144{clip-path:url(#SVGID_00000148661236315843371470000002110203615203738497_);fill:#2B2961;}
	.st145{clip-path:url(#SVGID_00000148661236315843371470000002110203615203738497_);fill:#6796CF;}
	.st146{clip-path:url(#SVGID_00000054952563281272020310000002583995046416233916_);}
	.st147{clip-path:url(#SVGID_00000054952563281272020310000002583995046416233916_);fill:#FFFFFF;}
	.st148{clip-path:url(#SVGID_00000054952563281272020310000002583995046416233916_);fill:#2B2961;}
	.st149{clip-path:url(#SVGID_00000036230424900638988890000013770520897449268638_);fill:#2B2961;}
	.st150{clip-path:url(#SVGID_00000078729152202500198040000005721347739896276616_);fill:#2B2961;}
	.st151{clip-path:url(#SVGID_00000078729152202500198040000005721347739896276616_);fill:#FFFFFF;}
	.st152{clip-path:url(#SVGID_00000078729152202500198040000005721347739896276616_);fill:#6796CF;}
	.st153{clip-path:url(#SVGID_00000120523137522365585000000017881900672839190161_);fill:#2B2961;}
	.st154{clip-path:url(#SVGID_00000122708024002359070850000004321979111609238677_);fill:#2B2961;}
	.st155{clip-path:url(#SVGID_00000051363037138899680900000017147666674036167326_);fill:#6796CF;}
	.st156{clip-path:url(#SVGID_00000051363037138899680900000017147666674036167326_);}
	.st157{clip-path:url(#SVGID_00000163763153435137141740000011815836741890720954_);fill:#2B2961;}
	.st158{clip-path:url(#SVGID_00000051363037138899680900000017147666674036167326_);fill:#FFFFFF;}
	.st159{clip-path:url(#SVGID_00000051363037138899680900000017147666674036167326_);fill:#2B2961;}
	.st160{opacity:0.52;clip-path:url(#SVGID_00000082328636510458745180000018435255023994626480_);}
	.st161{clip-path:url(#SVGID_00000154394389180721274110000000608048343184031883_);fill:#6796CF;}
	.st162{clip-path:url(#SVGID_00000036962583699397090130000004430480851552715435_);fill:#2B2961;}
	.st163{clip-path:url(#SVGID_00000112593960538121557980000005116165199963565210_);fill:#2B2961;}
	.st164{clip-path:url(#SVGID_00000036252342775693477390000006621338213261448602_);fill:#6796CF;}
	.st165{clip-path:url(#SVGID_00000036252342775693477390000006621338213261448602_);fill:#2B2961;}
	.st166{clip-path:url(#SVGID_00000165200042154197714540000018034003527209045688_);fill:#2B2961;}
	.st167{clip-path:url(#SVGID_00000018941091046963689990000007490445410630104193_);fill:#2B2961;}
	.st168{clip-path:url(#SVGID_00000049190128763139060740000003698613263990417586_);fill:#2B2961;}
	.st169{clip-path:url(#SVGID_00000098198092434135431720000003993373654722946440_);fill:#FFFFFF;}
	.st170{clip-path:url(#SVGID_00000098198092434135431720000003993373654722946440_);fill:#2B2961;}
	.st171{clip-path:url(#SVGID_00000098198092434135431720000003993373654722946440_);fill:#6796CF;}
	.st172{clip-path:url(#SVGID_00000041285901737069851660000000360878988590146471_);fill:#6796CF;}
	.st173{clip-path:url(#SVGID_00000162329279453877491360000012513962591944493953_);fill:#2B2961;}
	.st174{clip-path:url(#SVGID_00000162346059682745970550000017749764293758840449_);fill:#2B2961;}
	.st175{clip-path:url(#SVGID_00000162346059682745970550000017749764293758840449_);fill:#FFFFFF;}
	.st176{clip-path:url(#SVGID_00000177466577560158996900000014961401647596602253_);fill:#6796CF;}
	.st177{clip-path:url(#SVGID_00000177466577560158996900000014961401647596602253_);fill:#2B2961;}
	.st178{clip-path:url(#SVGID_00000182519055996228144950000006511670600961449622_);fill:#6796CF;}
	.st179{clip-path:url(#SVGID_00000182519055996228144950000006511670600961449622_);fill:#2B2961;}
	.st180{clip-path:url(#SVGID_00000107565141439965009560000001636779289722484355_);fill:#2B2961;}
	.st181{clip-path:url(#SVGID_00000006698903731756390030000009169431999306190781_);fill:#2B2961;}
	.st182{clip-path:url(#SVGID_00000078047164629492888220000006396273164659556515_);fill:#FFFFFF;}
	.st183{clip-path:url(#SVGID_00000148620764285888423230000015383028516321298856_);fill:#2B2961;}
	.st184{clip-path:url(#SVGID_00000119815301540154161180000010105292240272131775_);fill:#2B2961;}
	.st185{clip-path:url(#SVGID_00000119815301540154161180000010105292240272131775_);fill:#6796CF;}
	.st186{clip-path:url(#SVGID_00000145048864714666040030000013578781692336000134_);fill:#2B2961;}
	.st187{clip-path:url(#SVGID_00000139256696235837571530000000642321195368093072_);fill:#2B2961;}
	.st188{clip-path:url(#SVGID_00000134250927824490558660000016371245338588006060_);fill:#6796CF;}
	.st189{clip-path:url(#SVGID_00000065794921968852878020000011053009602590502051_);fill:#2B2961;}
	.st190{clip-path:url(#SVGID_00000017487571140764206730000010426393626537152903_);fill:#6796CF;}
	.st191{clip-path:url(#SVGID_00000029044228301239215850000006441062802313681341_);fill:#2B2961;}
	.st192{clip-path:url(#SVGID_00000096057947439268325340000009083304904038289825_);fill:#6796CF;}
	.st193{clip-path:url(#SVGID_00000074417260500904121150000013302621586308798086_);fill:#2B2961;}
	.st194{clip-path:url(#SVGID_00000016783553461323716340000008802096617377785761_);}
	.st195{clip-path:url(#SVGID_00000016783553461323716340000008802096617377785761_);fill:#2B2961;}
	.st196{clip-path:url(#SVGID_00000016783553461323716340000008802096617377785761_);fill:#FFFFFF;}
	.st197{clip-path:url(#SVGID_00000130634317618157967810000014448043776275317900_);fill:#2B2961;}
	.st198{clip-path:url(#SVGID_00000079456542853799424140000000864389776734714526_);fill:#2B2961;}
	.st199{clip-path:url(#SVGID_00000002344997257258286440000009435319562158826113_);fill:#2B2961;}
	.st200{clip-path:url(#SVGID_00000183215834615290809130000004800213805510018440_);fill:#2B2961;}
	.st201{clip-path:url(#SVGID_00000028319682834273738400000013816848911719983791_);fill:#2B2961;}
	.st202{clip-path:url(#SVGID_00000081605846006171516980000008878110646629218713_);fill:#2B2961;}
	.st203{clip-path:url(#SVGID_00000170236424934307059750000017286913097660182422_);fill:#2B2961;}
	.st204{clip-path:url(#SVGID_00000013165329807352491220000016220756698219048635_);fill:#2B2961;}
	.st205{clip-path:url(#SVGID_00000080199401812134603340000008965593472558170537_);fill:#2B2961;}
	.st206{clip-path:url(#SVGID_00000044881966689662376810000008840485262706944390_);fill:#FFFFFF;}
	.st207{clip-path:url(#SVGID_00000044881966689662376810000008840485262706944390_);fill:#2B2961;}
	.st208{clip-path:url(#SVGID_00000072990606704578913480000001534497958743341966_);fill:#6796CF;}
	.st209{clip-path:url(#SVGID_00000072990606704578913480000001534497958743341966_);fill:#2B2961;}
	.st210{clip-path:url(#SVGID_00000008864684879262675690000017414591859307582632_);fill:#2B2961;}
	.st211{clip-path:url(#SVGID_00000008864684879262675690000017414591859307582632_);fill:#FFFFFF;}
	.st212{clip-path:url(#SVGID_00000131325862239256277360000007070105238460240037_);fill:#6796CF;}
	.st213{clip-path:url(#SVGID_00000131325862239256277360000007070105238460240037_);fill:#2B2961;}
	.st214{clip-path:url(#SVGID_00000163062030565066533070000004417386450185175713_);fill:#6796CF;}
	.st215{clip-path:url(#SVGID_00000163062030565066533070000004417386450185175713_);fill:#2B2961;}
	.st216{clip-path:url(#SVGID_00000137815719239019166340000000347870246657705629_);}
	.st217{clip-path:url(#SVGID_00000052087090546090956560000011142079302255249341_);}
	.st218{clip-path:url(#SVGID_00000018230254462075218170000015371572918509909911_);}
	.st219{clip-path:url(#SVGID_00000090279814715773815110000014552587325972286909_);}
	.st220{clip-path:url(#SVGID_00000164487088779941541290000006496059188181963435_);}
	.st221{clip-path:url(#SVGID_00000005226628974995475610000012721037451622807182_);}
	.st222{clip-path:url(#SVGID_00000031894836162969599460000017945253302768506771_);}
	.st223{clip-path:url(#SVGID_00000114795901313708526000000014662776581977830333_);}
	.st224{clip-path:url(#SVGID_00000038409544090217049160000013111207954003203744_);}
	.st225{clip-path:url(#SVGID_00000049220218074898899520000003700926140587321014_);}
	.st226{clip-path:url(#SVGID_00000024705928882579727850000004388773745524075191_);}
	.st227{clip-path:url(#SVGID_00000042706487909461258310000000105227365712932249_);}
	.st228{clip-path:url(#SVGID_00000041979246103575209570000007687507730045599881_);}
	.st229{clip-path:url(#SVGID_00000067919134392938056060000001461969283879647624_);}
	.st230{clip-path:url(#SVGID_00000003800956867408667140000013623834156413821629_);fill:#2B2961;}
	.st231{clip-path:url(#SVGID_00000003800956867408667140000013623834156413821629_);fill:#6796CF;}
	.st232{fill:#A2B9E1;}
	.st233{clip-path:url(#SVGID_00000137099057492437174980000011035093789140578468_);}
	.st234{clip-path:url(#SVGID_00000039108779776686839960000011995804382337802384_);}
</style>
<g>
	<g>
		<rect x="78.42" y="13.82" class="st232" width="20.94" height="29.22"/>
	</g>
	<g>
		<rect x="0.55" class="st2" width="176.66" height="20.8"/>
	</g>
	<g>
		<rect x="0.55" y="41.53" class="st2" width="176.66" height="20.8"/>
	</g>
	<g>
		<path class="st8" d="M177.46,20.6H0.3c-0.17,0-0.3-0.13-0.3-0.3V0.5c0-0.17,0.13-0.3,0.3-0.3h177.17c0.17,0,0.3,0.13,0.3,0.3v19.8
			C177.76,20.47,177.63,20.6,177.46,20.6z M0.6,20h176.57V0.8H0.6V20z"/>
	</g>
	<g>
		<path class="st8" d="M177.46,62.13H0.3c-0.17,0-0.3-0.13-0.3-0.3v-19.8c0-0.17,0.13-0.3,0.3-0.3h177.17c0.17,0,0.3,0.13,0.3,0.3
			v19.8C177.76,61.99,177.63,62.13,177.46,62.13z M0.6,61.53h176.57v-19.2H0.6V61.53z"/>
	</g>
	<g>
		<path class="st4" d="M25.31,14.18h-1.9v-3.96H19.7v3.96h-1.9V4.93h1.9v3.75h3.71V4.93h1.9V14.18z"/>
		<path class="st4" d="M26.83,10.68c0-0.68,0.13-1.29,0.39-1.82c0.26-0.53,0.64-0.95,1.13-1.24c0.49-0.29,1.07-0.44,1.72-0.44
			c0.93,0,1.68,0.28,2.27,0.85c0.59,0.57,0.91,1.34,0.98,2.31l0.01,0.47c0,1.05-0.29,1.9-0.88,2.54c-0.59,0.64-1.38,0.96-2.37,0.96
			s-1.78-0.32-2.37-0.95c-0.59-0.63-0.89-1.5-0.89-2.59V10.68z M28.67,10.81c0,0.65,0.12,1.15,0.37,1.5
			c0.25,0.35,0.6,0.52,1.05,0.52c0.44,0,0.79-0.17,1.04-0.51c0.25-0.34,0.37-0.89,0.37-1.64c0-0.64-0.12-1.14-0.37-1.49
			c-0.25-0.35-0.6-0.53-1.05-0.53c-0.45,0-0.8,0.17-1.04,0.52C28.79,9.53,28.67,10.07,28.67,10.81z"/>
		<path class="st4" d="M37.57,12.82c0.34,0,0.61-0.09,0.83-0.28c0.21-0.19,0.32-0.43,0.33-0.74h1.72c0,0.47-0.13,0.89-0.38,1.28
			c-0.25,0.39-0.59,0.69-1.03,0.9c-0.43,0.21-0.91,0.32-1.44,0.32c-0.98,0-1.76-0.31-2.32-0.94c-0.57-0.62-0.85-1.49-0.85-2.59
			v-0.12c0-1.06,0.28-1.9,0.84-2.53c0.56-0.63,1.33-0.95,2.32-0.95c0.86,0,1.55,0.24,2.07,0.73c0.52,0.49,0.78,1.14,0.79,1.95h-1.72
			c-0.01-0.36-0.12-0.65-0.33-0.87c-0.21-0.22-0.49-0.33-0.84-0.33c-0.43,0-0.75,0.16-0.97,0.47c-0.22,0.31-0.33,0.82-0.33,1.52
			v0.19c0,0.71,0.11,1.22,0.32,1.53C36.8,12.67,37.13,12.82,37.57,12.82z"/>
		<path class="st4" d="M43.54,8.06c0.49-0.58,1.1-0.88,1.83-0.88c1.49,0,2.25,0.87,2.27,2.6v4.4h-1.83V9.83
			c0-0.39-0.08-0.68-0.25-0.87c-0.17-0.19-0.45-0.28-0.84-0.28c-0.54,0-0.93,0.21-1.17,0.62v4.88h-1.83V4.43h1.83V8.06z"/>
		<path class="st4" d="M53,12.28c0-0.22-0.11-0.4-0.33-0.53c-0.22-0.13-0.58-0.24-1.07-0.35c-1.63-0.34-2.45-1.04-2.45-2.08
			c0-0.61,0.25-1.12,0.76-1.53c0.5-0.41,1.17-0.61,1.98-0.61c0.87,0,1.57,0.21,2.09,0.62c0.52,0.41,0.78,0.94,0.78,1.6h-1.83
			c0-0.26-0.08-0.48-0.25-0.65c-0.17-0.17-0.43-0.26-0.79-0.26c-0.31,0-0.55,0.07-0.72,0.21c-0.17,0.14-0.25,0.32-0.25,0.53
			c0,0.2,0.1,0.37,0.29,0.49c0.19,0.12,0.52,0.23,0.97,0.32s0.84,0.19,1.16,0.31c0.97,0.36,1.45,0.97,1.45,1.85
			c0,0.63-0.27,1.13-0.81,1.52c-0.54,0.39-1.23,0.58-2.08,0.58c-0.58,0-1.09-0.1-1.53-0.31c-0.45-0.21-0.8-0.49-1.05-0.84
			s-0.38-0.74-0.38-1.16h1.74c0.02,0.33,0.14,0.58,0.36,0.75c0.22,0.17,0.53,0.26,0.9,0.26c0.35,0,0.62-0.07,0.8-0.2
			C52.91,12.67,53,12.49,53,12.28z"/>
		<path class="st4" d="M59.08,12.82c0.34,0,0.61-0.09,0.83-0.28c0.21-0.19,0.32-0.43,0.33-0.74h1.72c0,0.47-0.13,0.89-0.38,1.28
			c-0.25,0.39-0.59,0.69-1.03,0.9c-0.43,0.21-0.91,0.32-1.44,0.32c-0.98,0-1.76-0.31-2.32-0.94c-0.57-0.62-0.85-1.49-0.85-2.59
			v-0.12c0-1.06,0.28-1.9,0.84-2.53c0.56-0.63,1.33-0.95,2.32-0.95c0.86,0,1.55,0.24,2.07,0.73c0.52,0.49,0.78,1.14,0.79,1.95h-1.72
			c-0.01-0.36-0.12-0.65-0.33-0.87c-0.21-0.22-0.49-0.33-0.84-0.33c-0.43,0-0.75,0.16-0.97,0.47c-0.22,0.31-0.33,0.82-0.33,1.52
			v0.19c0,0.71,0.11,1.22,0.32,1.53C58.31,12.67,58.64,12.82,59.08,12.82z"/>
		<path class="st4" d="M65.05,8.06c0.49-0.58,1.1-0.88,1.83-0.88c1.49,0,2.25,0.87,2.27,2.6v4.4h-1.83V9.83
			c0-0.39-0.08-0.68-0.25-0.87c-0.17-0.19-0.45-0.28-0.84-0.28c-0.54,0-0.93,0.21-1.17,0.62v4.88h-1.83V4.43h1.83V8.06z"/>
		<path class="st4" d="M74.91,13.48c-0.45,0.55-1.08,0.83-1.88,0.83c-0.74,0-1.3-0.21-1.68-0.63c-0.39-0.42-0.59-1.04-0.59-1.86
			v-4.5h1.83v4.44c0,0.72,0.33,1.07,0.98,1.07c0.62,0,1.05-0.22,1.28-0.65V7.31h1.84v6.87h-1.73L74.91,13.48z"/>
		<path class="st4" d="M80.25,14.18h-1.84V4.43h1.84V14.18z"/>
		<path class="st4" d="M85.88,9.03c-0.25-0.03-0.47-0.05-0.66-0.05c-0.69,0-1.15,0.24-1.37,0.71v4.49h-1.83V7.31h1.73l0.05,0.82
			c0.37-0.63,0.88-0.95,1.53-0.95c0.2,0,0.39,0.03,0.57,0.08L85.88,9.03z"/>
		<path class="st4" d="M89.81,14.3c-1.01,0-1.83-0.31-2.46-0.93s-0.95-1.44-0.95-2.47v-0.18c0-0.69,0.13-1.31,0.4-1.85
			s0.64-0.96,1.13-1.26c0.49-0.29,1.05-0.44,1.67-0.44c0.94,0,1.68,0.3,2.22,0.89c0.54,0.59,0.81,1.43,0.81,2.52v0.75h-4.37
			c0.06,0.45,0.24,0.81,0.54,1.08c0.3,0.27,0.68,0.41,1.13,0.41c0.71,0,1.26-0.26,1.66-0.77l0.9,1.01
			c-0.28,0.39-0.65,0.69-1.12,0.91S90.38,14.3,89.81,14.3z M89.6,8.66c-0.36,0-0.66,0.12-0.89,0.37c-0.23,0.25-0.37,0.6-0.43,1.06
			h2.55V9.94c-0.01-0.41-0.12-0.72-0.33-0.95C90.29,8.77,89.99,8.66,89.6,8.66z"/>
		<path class="st4" d="M93.92,5.53c0-0.28,0.09-0.5,0.28-0.68c0.18-0.18,0.43-0.27,0.75-0.27c0.31,0,0.56,0.09,0.75,0.27
			c0.19,0.18,0.28,0.4,0.28,0.68c0,0.28-0.09,0.51-0.28,0.69s-0.44,0.27-0.75,0.27c-0.31,0-0.56-0.09-0.75-0.27
			C94.01,6.04,93.92,5.81,93.92,5.53z M95.87,14.18h-1.84V7.31h1.84V14.18z"/>
		<path class="st4" d="M98.14,14.18V8.65h-1.02V7.31h1.02V6.72c0-0.77,0.22-1.37,0.66-1.79c0.44-0.43,1.06-0.64,1.86-0.64
			c0.25,0,0.57,0.04,0.93,0.13l-0.02,1.42c-0.15-0.04-0.34-0.06-0.56-0.06c-0.69,0-1.03,0.32-1.03,0.97v0.55h1.36v1.35h-1.36v5.52
			H98.14z"/>
		<path class="st4" d="M105.51,14.3c-1.01,0-1.83-0.31-2.46-0.93c-0.63-0.62-0.95-1.44-0.95-2.47v-0.18c0-0.69,0.13-1.31,0.4-1.85
			s0.64-0.96,1.13-1.26c0.49-0.29,1.05-0.44,1.67-0.44c0.94,0,1.68,0.3,2.22,0.89c0.54,0.59,0.81,1.43,0.81,2.52v0.75h-4.37
			c0.06,0.45,0.24,0.81,0.54,1.08c0.3,0.27,0.68,0.41,1.13,0.41c0.71,0,1.26-0.26,1.66-0.77l0.9,1.01
			c-0.27,0.39-0.65,0.69-1.12,0.91S106.08,14.3,105.51,14.3z M105.3,8.66c-0.36,0-0.66,0.12-0.89,0.37
			c-0.23,0.25-0.37,0.6-0.43,1.06h2.55V9.94c-0.01-0.41-0.12-0.72-0.33-0.95C105.99,8.77,105.69,8.66,105.3,8.66z"/>
		<path class="st4" d="M113.22,10.42c0-0.97,0.13-1.89,0.39-2.77c0.26-0.88,0.64-1.65,1.14-2.33c0.5-0.67,1.05-1.14,1.64-1.41
			l0.36,0.99c-0.62,0.46-1.1,1.16-1.45,2.12c-0.35,0.96-0.52,2.07-0.52,3.35v0.2c0,1.28,0.17,2.4,0.51,3.37
			c0.34,0.96,0.83,1.68,1.45,2.15l-0.36,0.97c-0.58-0.26-1.11-0.71-1.61-1.37c-0.5-0.65-0.88-1.41-1.14-2.26
			c-0.26-0.86-0.4-1.75-0.42-2.68V10.42z"/>
		<path class="st4" d="M123.3,12.27h-3.34l-0.63,1.9h-2.03l3.44-9.24h1.76l3.46,9.24h-2.03L123.3,12.27z M120.47,10.73h2.31
			l-1.16-3.46L120.47,10.73z"/>
		<path class="st4" d="M133.14,10.8c0,1.1-0.24,1.96-0.71,2.57c-0.47,0.62-1.12,0.92-1.97,0.92c-0.74,0-1.34-0.29-1.78-0.86
			l-0.08,0.73h-1.65V4.43h1.83v3.5c0.42-0.5,0.98-0.74,1.67-0.74c0.84,0,1.5,0.31,1.97,0.92c0.48,0.62,0.71,1.48,0.71,2.6V10.8z
			 M131.31,10.67c0-0.69-0.11-1.2-0.33-1.52c-0.22-0.32-0.55-0.48-0.98-0.48c-0.58,0-0.99,0.24-1.21,0.72v2.71
			c0.22,0.48,0.63,0.72,1.22,0.72c0.59,0,0.98-0.29,1.17-0.88C131.26,11.67,131.31,11.24,131.31,10.67z"/>
		<path class="st4" d="M134.52,5.53c0-0.28,0.09-0.5,0.28-0.68c0.18-0.18,0.44-0.27,0.75-0.27c0.31,0,0.56,0.09,0.75,0.27
			c0.19,0.18,0.28,0.4,0.28,0.68c0,0.28-0.09,0.51-0.28,0.69c-0.19,0.18-0.44,0.27-0.75,0.27c-0.31,0-0.56-0.09-0.75-0.27
			S134.52,5.81,134.52,5.53z M136.47,14.18h-1.84V7.31h1.84V14.18z"/>
		<path class="st4" d="M140.42,5.62v1.69h1.17v1.35h-1.17v3.43c0,0.25,0.05,0.44,0.15,0.55c0.1,0.11,0.28,0.17,0.56,0.17
			c0.2,0,0.38-0.01,0.54-0.04v1.39c-0.36,0.11-0.73,0.17-1.11,0.17c-1.29,0-1.94-0.65-1.97-1.95v-3.7h-1V7.31h1V5.62H140.42z"/>
		<path class="st4" d="M146.99,13.48c-0.45,0.55-1.08,0.83-1.88,0.83c-0.74,0-1.3-0.21-1.68-0.63c-0.39-0.42-0.59-1.04-0.59-1.86
			v-4.5h1.83v4.44c0,0.72,0.33,1.07,0.98,1.07c0.62,0,1.05-0.22,1.28-0.65V7.31h1.84v6.87h-1.73L146.99,13.48z"/>
		<path class="st4" d="M154.27,9.03c-0.25-0.03-0.47-0.05-0.66-0.05c-0.69,0-1.15,0.24-1.37,0.71v4.49h-1.83V7.31h1.73l0.05,0.82
			c0.37-0.63,0.88-0.95,1.53-0.95c0.2,0,0.39,0.03,0.57,0.08L154.27,9.03z"/>
		<path class="st4" d="M158.58,10.56c0,0.96-0.14,1.88-0.41,2.76c-0.28,0.88-0.67,1.67-1.19,2.34c-0.52,0.68-1.07,1.14-1.66,1.4
			l-0.36-0.97c0.6-0.45,1.07-1.15,1.42-2.09c0.35-0.94,0.53-2.03,0.54-3.26v-0.34c0-1.27-0.17-2.38-0.52-3.34
			c-0.35-0.96-0.83-1.69-1.44-2.17l0.36-0.97c0.58,0.25,1.12,0.7,1.63,1.36s0.91,1.42,1.19,2.29c0.28,0.87,0.43,1.77,0.44,2.71
			V10.56z"/>
	</g>
	<g>
		<path class="st4" d="M32.16,52.33h-1.52v3.38h-1.9v-9.24h3.43c1.09,0,1.93,0.24,2.53,0.73c0.59,0.49,0.89,1.17,0.89,2.06
			c0,0.63-0.14,1.16-0.41,1.58c-0.27,0.42-0.69,0.76-1.24,1.01l2,3.78v0.09h-2.04L32.16,52.33z M30.64,50.78h1.54
			c0.48,0,0.85-0.12,1.11-0.37c0.26-0.24,0.39-0.58,0.39-1.01c0-0.44-0.12-0.78-0.37-1.03c-0.25-0.25-0.63-0.37-1.14-0.37h-1.53
			V50.78z"/>
		<path class="st4" d="M39.96,55.84c-1.01,0-1.83-0.31-2.46-0.93s-0.95-1.44-0.95-2.47v-0.18c0-0.69,0.13-1.31,0.4-1.85
			s0.64-0.96,1.13-1.26c0.49-0.29,1.05-0.44,1.67-0.44c0.94,0,1.68,0.3,2.22,0.89c0.54,0.59,0.81,1.43,0.81,2.52v0.75h-4.37
			c0.06,0.45,0.24,0.81,0.54,1.08c0.3,0.27,0.68,0.41,1.13,0.41c0.71,0,1.26-0.26,1.66-0.77l0.9,1.01
			c-0.28,0.39-0.65,0.69-1.12,0.91S40.53,55.84,39.96,55.84z M39.75,50.2c-0.36,0-0.66,0.12-0.89,0.37
			c-0.23,0.25-0.37,0.6-0.43,1.06h2.55v-0.15c-0.01-0.41-0.12-0.72-0.33-0.95C40.44,50.31,40.14,50.2,39.75,50.2z"/>
		<path class="st4" d="M48.06,55.71c-0.08-0.17-0.15-0.37-0.18-0.62c-0.44,0.49-1.02,0.74-1.73,0.74c-0.67,0-1.23-0.19-1.67-0.58
			c-0.44-0.39-0.66-0.88-0.66-1.47c0-0.73,0.27-1.29,0.81-1.68c0.54-0.39,1.32-0.59,2.34-0.59h0.84v-0.39
			c0-0.32-0.08-0.57-0.25-0.76c-0.16-0.19-0.42-0.29-0.77-0.29c-0.31,0-0.55,0.07-0.73,0.22c-0.17,0.15-0.26,0.35-0.26,0.61h-1.83
			c0-0.4,0.12-0.77,0.37-1.11c0.25-0.34,0.59-0.6,1.04-0.8c0.45-0.19,0.95-0.29,1.51-0.29c0.85,0,1.52,0.21,2.02,0.64
			c0.5,0.43,0.75,1.02,0.75,1.79v2.98c0,0.65,0.09,1.14,0.27,1.48v0.11H48.06z M46.55,54.44c0.27,0,0.52-0.06,0.75-0.18
			c0.23-0.12,0.4-0.28,0.51-0.49v-1.18h-0.69c-0.92,0-1.41,0.32-1.47,0.95l-0.01,0.11c0,0.23,0.08,0.42,0.24,0.56
			C46.05,54.36,46.27,54.44,46.55,54.44z"/>
		<path class="st4" d="M53.24,55.71H51.4v-9.75h1.84V55.71z"/>
		<path class="st4" d="M58.73,53.81c0-0.22-0.11-0.4-0.33-0.53c-0.22-0.13-0.58-0.24-1.07-0.35c-1.63-0.34-2.45-1.04-2.45-2.08
			c0-0.61,0.25-1.12,0.76-1.53c0.5-0.41,1.17-0.61,1.98-0.61c0.87,0,1.57,0.21,2.09,0.62c0.52,0.41,0.78,0.94,0.78,1.6h-1.83
			c0-0.26-0.08-0.48-0.25-0.65c-0.17-0.17-0.43-0.26-0.79-0.26c-0.31,0-0.55,0.07-0.72,0.21c-0.17,0.14-0.25,0.32-0.25,0.53
			c0,0.2,0.1,0.37,0.29,0.49c0.19,0.12,0.52,0.23,0.97,0.32s0.84,0.19,1.16,0.31c0.97,0.36,1.45,0.97,1.45,1.85
			c0,0.63-0.27,1.13-0.81,1.52c-0.54,0.39-1.23,0.58-2.08,0.58c-0.58,0-1.09-0.1-1.53-0.31c-0.45-0.21-0.8-0.49-1.05-0.84
			s-0.38-0.74-0.38-1.16h1.74c0.02,0.33,0.14,0.58,0.36,0.75c0.22,0.17,0.53,0.26,0.9,0.26c0.35,0,0.62-0.07,0.8-0.2
			C58.64,54.2,58.73,54.03,58.73,53.81z"/>
		<path class="st4" d="M64.81,54.36c0.34,0,0.61-0.09,0.83-0.28c0.21-0.19,0.32-0.43,0.33-0.74h1.72c0,0.47-0.13,0.89-0.38,1.28
			c-0.25,0.39-0.59,0.69-1.03,0.9s-0.91,0.32-1.44,0.32c-0.98,0-1.76-0.31-2.32-0.94c-0.57-0.62-0.85-1.49-0.85-2.59v-0.12
			c0-1.06,0.28-1.9,0.84-2.53c0.56-0.63,1.33-0.95,2.32-0.95c0.86,0,1.55,0.24,2.07,0.73c0.52,0.49,0.78,1.14,0.79,1.95h-1.72
			c-0.01-0.36-0.12-0.65-0.33-0.87c-0.21-0.22-0.49-0.33-0.84-0.33c-0.43,0-0.75,0.16-0.97,0.47s-0.33,0.82-0.33,1.52v0.19
			c0,0.71,0.11,1.22,0.32,1.53C64.04,54.2,64.37,54.36,64.81,54.36z"/>
		<path class="st4" d="M70.78,49.59c0.49-0.58,1.1-0.88,1.83-0.88c1.49,0,2.25,0.87,2.27,2.6v4.4h-1.83v-4.35
			c0-0.39-0.08-0.68-0.25-0.87c-0.17-0.19-0.45-0.28-0.84-0.28c-0.54,0-0.93,0.21-1.17,0.62v4.88h-1.83v-9.75h1.83V49.59z"/>
		<path class="st4" d="M80.64,55.01c-0.45,0.55-1.08,0.83-1.88,0.83c-0.74,0-1.3-0.21-1.69-0.63c-0.39-0.42-0.58-1.04-0.59-1.86
			v-4.5h1.83v4.44c0,0.72,0.33,1.07,0.98,1.07c0.62,0,1.05-0.22,1.28-0.65v-4.87h1.84v6.87h-1.73L80.64,55.01z"/>
		<path class="st4" d="M86,55.71h-1.84v-9.75H86V55.71z"/>
		<path class="st4" d="M91.75,55.71c-0.08-0.17-0.15-0.37-0.18-0.62c-0.44,0.49-1.02,0.74-1.73,0.74c-0.67,0-1.23-0.19-1.67-0.58
			c-0.44-0.39-0.66-0.88-0.66-1.47c0-0.73,0.27-1.29,0.81-1.68c0.54-0.39,1.32-0.59,2.34-0.59h0.84v-0.39
			c0-0.32-0.08-0.57-0.25-0.76c-0.16-0.19-0.42-0.29-0.77-0.29c-0.31,0-0.55,0.07-0.73,0.22c-0.17,0.15-0.26,0.35-0.26,0.61h-1.83
			c0-0.4,0.12-0.77,0.37-1.11c0.25-0.34,0.59-0.6,1.04-0.8c0.45-0.19,0.95-0.29,1.51-0.29c0.85,0,1.52,0.21,2.02,0.64
			c0.5,0.43,0.75,1.02,0.75,1.79v2.98c0,0.65,0.09,1.14,0.27,1.48v0.11H91.75z M90.23,54.44c0.27,0,0.52-0.06,0.75-0.18
			c0.23-0.12,0.4-0.28,0.51-0.49v-1.18H90.8c-0.92,0-1.41,0.32-1.47,0.95l-0.01,0.11c0,0.23,0.08,0.42,0.24,0.56
			C89.73,54.36,89.95,54.44,90.23,54.44z"/>
		<path class="st4" d="M101.17,52.34c0,1.1-0.24,1.96-0.71,2.57c-0.47,0.62-1.12,0.92-1.97,0.92c-0.74,0-1.34-0.29-1.78-0.86
			l-0.08,0.73h-1.65v-9.75h1.83v3.5c0.42-0.5,0.98-0.74,1.67-0.74c0.84,0,1.5,0.31,1.97,0.92c0.48,0.62,0.71,1.48,0.71,2.6V52.34z
			 M99.34,52.21c0-0.69-0.11-1.2-0.33-1.52c-0.22-0.32-0.55-0.48-0.98-0.48c-0.58,0-0.99,0.24-1.21,0.72v2.71
			c0.22,0.48,0.63,0.72,1.22,0.72c0.59,0,0.98-0.29,1.17-0.88C99.29,53.2,99.34,52.78,99.34,52.21z"/>
		<path class="st4" d="M106.28,53.81c0-0.22-0.11-0.4-0.33-0.53c-0.22-0.13-0.58-0.24-1.07-0.35c-1.63-0.34-2.45-1.04-2.45-2.08
			c0-0.61,0.25-1.12,0.76-1.53c0.5-0.41,1.17-0.61,1.98-0.61c0.87,0,1.57,0.21,2.09,0.62c0.52,0.41,0.78,0.94,0.78,1.6h-1.83
			c0-0.26-0.08-0.48-0.25-0.65c-0.17-0.17-0.43-0.26-0.79-0.26c-0.31,0-0.55,0.07-0.72,0.21c-0.17,0.14-0.25,0.32-0.25,0.53
			c0,0.2,0.1,0.37,0.29,0.49c0.19,0.12,0.52,0.23,0.97,0.32s0.84,0.19,1.16,0.31c0.97,0.36,1.45,0.97,1.45,1.85
			c0,0.63-0.27,1.13-0.81,1.52c-0.54,0.39-1.23,0.58-2.08,0.58c-0.58,0-1.09-0.1-1.53-0.31c-0.45-0.21-0.8-0.49-1.05-0.84
			s-0.38-0.74-0.38-1.16h1.74c0.02,0.33,0.14,0.58,0.36,0.75c0.22,0.17,0.53,0.26,0.9,0.26c0.35,0,0.62-0.07,0.8-0.2
			C106.19,54.2,106.28,54.03,106.28,53.81z"/>
		<path class="st4" d="M112.36,54.36c0.34,0,0.61-0.09,0.83-0.28c0.21-0.19,0.32-0.43,0.33-0.74h1.72c0,0.47-0.13,0.89-0.38,1.28
			c-0.25,0.39-0.59,0.69-1.03,0.9c-0.43,0.21-0.91,0.32-1.44,0.32c-0.98,0-1.76-0.31-2.32-0.94c-0.57-0.62-0.85-1.49-0.85-2.59
			v-0.12c0-1.06,0.28-1.9,0.84-2.53c0.56-0.63,1.33-0.95,2.32-0.95c0.86,0,1.55,0.24,2.07,0.73c0.52,0.49,0.78,1.14,0.79,1.95h-1.72
			c-0.01-0.36-0.12-0.65-0.33-0.87c-0.21-0.22-0.49-0.33-0.84-0.33c-0.43,0-0.75,0.16-0.97,0.47c-0.22,0.31-0.33,0.82-0.33,1.52
			v0.19c0,0.71,0.11,1.22,0.32,1.53C111.59,54.2,111.92,54.36,112.36,54.36z"/>
		<path class="st4" d="M118.32,49.59c0.49-0.58,1.1-0.88,1.83-0.88c1.49,0,2.25,0.87,2.27,2.6v4.4h-1.83v-4.35
			c0-0.39-0.08-0.68-0.25-0.87c-0.17-0.19-0.45-0.28-0.84-0.28c-0.54,0-0.93,0.21-1.17,0.62v4.88h-1.83v-9.75h1.83V49.59z"/>
		<path class="st4" d="M125.99,55.71h-1.84v-9.75h1.84V55.71z"/>
		<path class="st4" d="M131.88,55.01c-0.45,0.55-1.08,0.83-1.88,0.83c-0.74,0-1.3-0.21-1.69-0.63c-0.39-0.42-0.58-1.04-0.59-1.86
			v-4.5h1.83v4.44c0,0.72,0.33,1.07,0.98,1.07c0.62,0,1.05-0.22,1.28-0.65v-4.87h1.84v6.87h-1.73L131.88,55.01z"/>
		<path class="st4" d="M139,53.81c0-0.22-0.11-0.4-0.33-0.53c-0.22-0.13-0.58-0.24-1.07-0.35c-1.63-0.34-2.45-1.04-2.45-2.08
			c0-0.61,0.25-1.12,0.76-1.53c0.5-0.41,1.17-0.61,1.98-0.61c0.87,0,1.57,0.21,2.09,0.62c0.52,0.41,0.78,0.94,0.78,1.6h-1.83
			c0-0.26-0.08-0.48-0.25-0.65c-0.17-0.17-0.43-0.26-0.79-0.26c-0.31,0-0.55,0.07-0.72,0.21c-0.17,0.14-0.25,0.32-0.25,0.53
			c0,0.2,0.1,0.37,0.29,0.49c0.19,0.12,0.52,0.23,0.97,0.32s0.84,0.19,1.16,0.31c0.97,0.36,1.45,0.97,1.45,1.85
			c0,0.63-0.27,1.13-0.81,1.52c-0.54,0.39-1.23,0.58-2.08,0.58c-0.58,0-1.09-0.1-1.53-0.31c-0.45-0.21-0.8-0.49-1.05-0.84
			s-0.38-0.74-0.38-1.16h1.74c0.02,0.33,0.14,0.58,0.36,0.75c0.22,0.17,0.53,0.26,0.9,0.26c0.35,0,0.62-0.07,0.8-0.2
			C138.91,54.2,139,54.03,139,53.81z"/>
		<path class="st4" d="M145.95,53.81c0-0.22-0.11-0.4-0.33-0.53c-0.22-0.13-0.58-0.24-1.07-0.35c-1.63-0.34-2.45-1.04-2.45-2.08
			c0-0.61,0.25-1.12,0.76-1.53c0.5-0.41,1.17-0.61,1.98-0.61c0.87,0,1.57,0.21,2.09,0.62c0.52,0.41,0.78,0.94,0.78,1.6h-1.83
			c0-0.26-0.08-0.48-0.25-0.65c-0.17-0.17-0.43-0.26-0.79-0.26c-0.31,0-0.55,0.07-0.72,0.21c-0.17,0.14-0.25,0.32-0.25,0.53
			c0,0.2,0.1,0.37,0.29,0.49c0.19,0.12,0.52,0.23,0.97,0.32s0.84,0.19,1.16,0.31c0.97,0.36,1.45,0.97,1.45,1.85
			c0,0.63-0.27,1.13-0.81,1.52c-0.54,0.39-1.23,0.58-2.08,0.58c-0.58,0-1.09-0.1-1.53-0.31c-0.45-0.21-0.8-0.49-1.05-0.84
			s-0.38-0.74-0.38-1.16h1.74c0.02,0.33,0.14,0.58,0.36,0.75c0.22,0.17,0.53,0.26,0.9,0.26c0.35,0,0.62-0.07,0.8-0.2
			C145.86,54.2,145.95,54.03,145.95,53.81z"/>
	</g>
	<g>
		<polygon class="st4" points="82.71,25.76 95.06,25.76 88.88,17.6 		"/>
	</g>
	<g>
		<polygon class="st4" points="82.71,35.5 95.06,35.5 88.88,27.33 		"/>
	</g>
	<g>
		<polygon class="st4" points="82.71,45.24 95.06,45.24 88.88,37.07 		"/>
	</g>
</g>
</svg>
