<?xml version="1.0" encoding="utf-8"?>
<!-- Generator: Adobe Illustrator 26.0.2, SVG Export Plug-In . SVG Version: 6.00 Build 0)  -->
<svg version="1.1" id="Ebene_1" xmlns="http://www.w3.org/2000/svg" xmlns:xlink="http://www.w3.org/1999/xlink" x="0px" y="0px"
	 viewBox="0 0 176.55 75.6" style="enable-background:new 0 0 176.55 75.6;" xml:space="preserve">
<style type="text/css">
	.st0{clip-path:url(#SVGID_00000029738098890238902880000000221459531880392848_);fill:#6796CF;}
	.st1{clip-path:url(#SVGID_00000029738098890238902880000000221459531880392848_);fill:#2B2961;}
	.st2{fill:#6796CF;}
	.st3{clip-path:url(#SVGID_00000058552460595342304570000015964161081512915091_);fill:#2B2961;}
	.st4{fill:#FFFFFF;}
	.st5{clip-path:url(#SVGID_00000177455919610523637770000011141545672910805645_);fill:#2B2961;}
	.st6{clip-path:url(#SVGID_00000031918302448229258360000003039529629731279264_);fill:#2B2961;}
	.st7{clip-path:url(#SVGID_00000000220017437080217650000002227534959300416441_);fill:#2B2961;}
	.st8{fill:#2B2961;}
	.st9{clip-path:url(#SVGID_00000170975652848789990780000017339332756436169649_);fill:#6796CF;}
	.st10{clip-path:url(#SVGID_00000170975652848789990780000017339332756436169649_);fill:#2B2961;}
	.st11{clip-path:url(#SVGID_00000175296315884719515700000005478913146399850880_);fill:#2B2961;}
	.st12{clip-path:url(#SVGID_00000031189561485124661130000006956023989161250715_);fill:#2B2961;}
	.st13{clip-path:url(#SVGID_00000031189561485124661130000006956023989161250715_);fill:#6796CF;}
	.st14{clip-path:url(#SVGID_00000001623913794804041950000012694543035900777398_);fill:#2B2961;}
	.st15{clip-path:url(#SVGID_00000057827265961200155570000005638087462159552674_);fill:#2B2961;}
	.st16{clip-path:url(#SVGID_00000008832474388814212630000012925164775178280119_);fill:#2B2961;}
	.st17{clip-path:url(#SVGID_00000008832474388814212630000012925164775178280119_);fill:#6796CF;}
	.st18{clip-path:url(#SVGID_00000067932496048978248270000018330745871248256418_);fill:#2B2961;}
	.st19{clip-path:url(#SVGID_00000165222967842025740650000017585874476007898002_);fill:#2B2961;}
	.st20{clip-path:url(#SVGID_00000062150064215883553920000006914489053754239879_);fill:#2B2961;}
	.st21{clip-path:url(#SVGID_00000054241163842048850870000004383403538307658157_);fill:#2B2961;}
	.st22{clip-path:url(#SVGID_00000097501502405776439110000013157132300574528176_);fill:#6796CF;}
	.st23{clip-path:url(#SVGID_00000097501502405776439110000013157132300574528176_);fill:#2B2961;}
	.st24{clip-path:url(#SVGID_00000087394009079681014640000002890193666009307556_);fill:#2B2961;}
	.st25{clip-path:url(#SVGID_00000145743167241572369810000000584346500642027158_);fill:#2B2961;}
	.st26{clip-path:url(#SVGID_00000145743167241572369810000000584346500642027158_);fill:#6796CF;}
	.st27{clip-path:url(#SVGID_00000138547532335305244890000000824934205915517625_);fill:#2B2961;}
	.st28{clip-path:url(#SVGID_00000177482801037457386410000004662728305795065790_);fill:#2B2961;}
	.st29{clip-path:url(#SVGID_00000135659731622367935180000001255270671639363247_);fill:#2B2961;}
	.st30{clip-path:url(#SVGID_00000135659731622367935180000001255270671639363247_);fill:#6796CF;}
	.st31{clip-path:url(#SVGID_00000132077018243404268560000003734680232404828806_);fill:#2B2961;}
	.st32{clip-path:url(#SVGID_00000003820042508300662010000008757865534649884808_);fill:#6796CF;}
	.st33{clip-path:url(#SVGID_00000003820042508300662010000008757865534649884808_);fill:#2B2961;}
	.st34{clip-path:url(#SVGID_00000122694450163904903680000007877744388679862161_);fill:#2B2961;}
	.st35{clip-path:url(#SVGID_00000122694450163904903680000007877744388679862161_);fill:#6796CF;}
	.st36{clip-path:url(#SVGID_00000088121294224768724270000009797264647221409463_);fill:#2B2961;}
	.st37{clip-path:url(#SVGID_00000077282299224027151080000018282123392268847281_);fill:#FFFFFF;}
	.st38{clip-path:url(#SVGID_00000077282299224027151080000018282123392268847281_);fill:#2B2961;}
	.st39{clip-path:url(#SVGID_00000173866953046058863360000008498281972521757885_);fill:#FFFFFF;}
	.st40{clip-path:url(#SVGID_00000173866953046058863360000008498281972521757885_);fill:#2B2961;}
	.st41{clip-path:url(#SVGID_00000142169509840192876680000007848979760912147086_);fill:#6796CF;}
	.st42{clip-path:url(#SVGID_00000142169509840192876680000007848979760912147086_);fill:#2B2961;}
	.st43{clip-path:url(#SVGID_00000013903420110830329050000017215423463686059920_);fill:#2B2961;}
	.st44{clip-path:url(#SVGID_00000078027983819281286070000004643382066383568797_);fill:#6796CF;}
	.st45{clip-path:url(#SVGID_00000078027983819281286070000004643382066383568797_);fill:#2B2961;}
	.st46{clip-path:url(#SVGID_00000106123304378737161850000013178549288062984873_);fill:#2B2961;}
	.st47{clip-path:url(#SVGID_00000014592352648219093100000001262031048540168620_);fill:#2B2961;}
	.st48{clip-path:url(#SVGID_00000014592352648219093100000001262031048540168620_);fill:#6796CF;}
	.st49{clip-path:url(#SVGID_00000096021878409611109130000009583094366230748061_);fill:#2B2961;}
	.st50{clip-path:url(#SVGID_00000108274233566516279740000018403792266602168503_);fill:#2B2961;}
	.st51{clip-path:url(#SVGID_00000059283473418632200640000004230815647977344386_);fill:#2B2961;}
	.st52{clip-path:url(#SVGID_00000059283473418632200640000004230815647977344386_);fill:#6796CF;}
	.st53{clip-path:url(#SVGID_00000152229034453141248460000009601090142664356286_);fill:#2B2961;}
	.st54{clip-path:url(#SVGID_00000088812529636212965630000010066307248242143654_);fill:#2B2961;}
	.st55{clip-path:url(#SVGID_00000081626631521158537920000007784286095113813891_);fill:#2B2961;}
	.st56{clip-path:url(#SVGID_00000159470332665713493100000001825388829990129295_);fill:#2B2961;}
	.st57{clip-path:url(#SVGID_00000001625973349219620760000001563384628362482067_);fill:#6796CF;}
	.st58{clip-path:url(#SVGID_00000090287782448198038150000007907467242346001592_);fill:#2B2961;}
	.st59{clip-path:url(#SVGID_00000083775300101647485890000009100799732185638020_);fill:#2B2961;}
	.st60{clip-path:url(#SVGID_00000173861873244946599630000006439519529731793053_);fill:#6796CF;}
	.st61{clip-path:url(#SVGID_00000093879836655370740820000009240109552044901270_);fill:#2B2961;}
	.st62{clip-path:url(#SVGID_00000080170071729922819810000001720835832664089988_);fill:#2B2961;}
	.st63{clip-path:url(#SVGID_00000080170071729922819810000001720835832664089988_);fill:#6796CF;}
	.st64{clip-path:url(#SVGID_00000159462153278470506460000008290949865944193940_);fill:#2B2961;}
	.st65{clip-path:url(#SVGID_00000017491953126003396130000008066048126618672019_);fill:#6796CF;}
	.st66{clip-path:url(#SVGID_00000017491953126003396130000008066048126618672019_);fill:#2B2961;}
	.st67{clip-path:url(#SVGID_00000029014986570446899070000011186135483906321045_);fill:#2B2961;}
	.st68{clip-path:url(#SVGID_00000050622008798844780370000014807256217164648610_);fill:#2B2961;}
	.st69{clip-path:url(#SVGID_00000050622008798844780370000014807256217164648610_);fill:#6796CF;}
	.st70{clip-path:url(#SVGID_00000021802164504823252130000012924888475966903438_);fill:#2B2961;}
	.st71{clip-path:url(#SVGID_00000183232626117462549160000011368993146088876718_);fill:#2B2961;}
	.st72{clip-path:url(#SVGID_00000138573260329786489580000009802659707516181950_);fill:#2B2961;}
	.st73{clip-path:url(#SVGID_00000138573260329786489580000009802659707516181950_);fill:#6796CF;}
	.st74{clip-path:url(#SVGID_00000150782723290702785720000003541795344023134858_);fill:#2B2961;}
	.st75{clip-path:url(#SVGID_00000085930429679694526520000002642275146315089555_);fill:#2B2961;}
	.st76{clip-path:url(#SVGID_00000044139730184805563320000006109920875883302566_);fill:#2B2961;}
	.st77{clip-path:url(#SVGID_00000151535638819866254120000006858139964288086441_);fill:#2B2961;}
	.st78{clip-path:url(#SVGID_00000130610787187663912470000003507569207720859038_);fill:#6796CF;}
	.st79{clip-path:url(#SVGID_00000130610787187663912470000003507569207720859038_);fill:#2B2961;}
	.st80{clip-path:url(#SVGID_00000102532653009275751990000006743120466711648927_);fill:#FFFFFF;}
	.st81{clip-path:url(#SVGID_00000102532653009275751990000006743120466711648927_);fill:#2B2961;}
	.st82{clip-path:url(#SVGID_00000137100860781489662180000012554022351877875381_);fill:#2B2961;}
	.st83{clip-path:url(#SVGID_00000124865232333824823140000005464719362364804536_);fill:#2B2961;}
	.st84{clip-path:url(#SVGID_00000124865232333824823140000005464719362364804536_);fill:#6796CF;}
	.st85{clip-path:url(#SVGID_00000111159668342659684750000007238414427490377885_);fill:#2B2961;}
	.st86{clip-path:url(#SVGID_00000118397357266568804860000004488445215387736211_);fill:#2B2961;}
	.st87{clip-path:url(#SVGID_00000118397357266568804860000004488445215387736211_);fill:#FFFFFF;}
	.st88{clip-path:url(#SVGID_00000107551378839921900520000012482209318115694243_);fill:#6796CF;}
	.st89{clip-path:url(#SVGID_00000107551378839921900520000012482209318115694243_);fill:#2B2961;}
	.st90{clip-path:url(#SVGID_00000162336454747848339080000007111802632726916007_);fill:#2B2961;}
	.st91{clip-path:url(#SVGID_00000142876130093766379300000014489862118292125113_);fill:#2B2961;}
	.st92{clip-path:url(#SVGID_00000142876130093766379300000014489862118292125113_);fill:#6796CF;}
	.st93{clip-path:url(#SVGID_00000145041424905814423330000010504335215733647505_);fill:#2B2961;}
	.st94{clip-path:url(#SVGID_00000145041424905814423330000010504335215733647505_);fill:#FFFFFF;}
	.st95{clip-path:url(#SVGID_00000128443797501259170660000017279651080783402655_);fill:#6796CF;}
	.st96{clip-path:url(#SVGID_00000128443797501259170660000017279651080783402655_);fill:#2B2961;}
	.st97{clip-path:url(#SVGID_00000128443797501259170660000017279651080783402655_);fill:#FFFFFF;}
	.st98{clip-path:url(#SVGID_00000078045159353097299630000013884240303829199287_);fill:#2B2961;}
	.st99{clip-path:url(#SVGID_00000078045159353097299630000013884240303829199287_);fill:#6796CF;}
	.st100{clip-path:url(#SVGID_00000143600736562903714220000003117804093081789883_);fill:#2B2961;}
	.st101{clip-path:url(#SVGID_00000147900742564991566310000001093591036613742728_);fill:#2B2961;}
	.st102{clip-path:url(#SVGID_00000001641510191884594300000011471147421292171138_);fill:#2B2961;}
	.st103{clip-path:url(#SVGID_00000012439307935103985330000015600259365510159008_);fill:#2B2961;}
	.st104{clip-path:url(#SVGID_00000167395046857705655510000002321169805223298711_);fill:#2B2961;}
	.st105{clip-path:url(#SVGID_00000009555085208831757190000014645153354307231642_);fill:#FFFFFF;}
	.st106{clip-path:url(#SVGID_00000009555085208831757190000014645153354307231642_);fill:#2B2961;}
	.st107{clip-path:url(#SVGID_00000009555085208831757190000014645153354307231642_);fill:#6796CF;}
	.st108{clip-path:url(#SVGID_00000081650140520782007870000017112174370113171592_);fill:#FFFFFF;}
	.st109{clip-path:url(#SVGID_00000168078529779605682590000008594042617215618446_);fill:#2B2961;}
	.st110{clip-path:url(#SVGID_00000168078529779605682590000008594042617215618446_);fill:#FFFFFF;}
	.st111{clip-path:url(#SVGID_00000129897526481327900350000012339423513185641911_);fill:#2B2961;}
	.st112{clip-path:url(#SVGID_00000099652053103052325220000016532912561682342817_);fill:#2B2961;}
	.st113{clip-path:url(#SVGID_00000099652053103052325220000016532912561682342817_);fill:#6796CF;}
	.st114{clip-path:url(#SVGID_00000023260044648115035210000011277553843274499733_);fill:#2B2961;}
	.st115{clip-path:url(#SVGID_00000170276292897729469420000006275878337881501887_);fill:#2B2961;}
	.st116{clip-path:url(#SVGID_00000170276292897729469420000006275878337881501887_);fill:#FFFFFF;}
	.st117{clip-path:url(#SVGID_00000013183745169440742880000018250154095832679336_);fill:#6796CF;}
	.st118{clip-path:url(#SVGID_00000175307894592173380740000000925037088037825969_);fill:#2B2961;}
	.st119{clip-path:url(#SVGID_00000026852072286425039030000007030684160838025856_);fill:#2B2961;}
	.st120{clip-path:url(#SVGID_00000065057679092181999800000009696516458158284969_);fill:#FFFFFF;}
	.st121{clip-path:url(#SVGID_00000065057679092181999800000009696516458158284969_);fill:#2B2961;}
	.st122{clip-path:url(#SVGID_00000070836959382301594210000003202675946484410813_);fill:#FFFFFF;}
	.st123{clip-path:url(#SVGID_00000070836959382301594210000003202675946484410813_);fill:#2B2961;}
	.st124{clip-path:url(#SVGID_00000123411091145599652200000017404509122941964193_);fill:#6796CF;}
	.st125{clip-path:url(#SVGID_00000123411091145599652200000017404509122941964193_);fill:#2B2961;}
	.st126{clip-path:url(#SVGID_00000049189042841197429260000010560501599002009757_);fill:#2B2961;}
	.st127{clip-path:url(#SVGID_00000049189042841197429260000010560501599002009757_);fill:#6796CF;}
	.st128{clip-path:url(#SVGID_00000117659451346658247630000013558955857832513935_);fill:#6796CF;}
	.st129{clip-path:url(#SVGID_00000059302068492727283070000001820656511900568475_);fill:#2B2961;}
	.st130{clip-path:url(#SVGID_00000026149692928551944340000001539590828895793571_);fill:#2B2961;}
	.st131{clip-path:url(#SVGID_00000075146901400576861420000016824820330592020636_);fill:#2B2961;}
	.st132{clip-path:url(#SVGID_00000124123666823326536910000016891924540973151925_);fill:#2B2961;}
	.st133{clip-path:url(#SVGID_00000058557689680971790760000011466242350534422926_);fill:#2B2961;}
	.st134{clip-path:url(#SVGID_00000058557689680971790760000011466242350534422926_);fill:#6796CF;}
	.st135{clip-path:url(#SVGID_00000145775599885659219990000007440169227258352006_);fill:#6796CF;}
	.st136{clip-path:url(#SVGID_00000150091861236123798240000015800441934963098010_);fill:#2B2961;}
	.st137{clip-path:url(#SVGID_00000094589176523521502700000013339875365056301726_);fill:#2B2961;}
	.st138{clip-path:url(#SVGID_00000129896799408355256120000017371114599643989159_);fill:#2B2961;}
	.st139{clip-path:url(#SVGID_00000126301356888056860220000012341537369766111653_);fill:#2B2961;}
	.st140{clip-path:url(#SVGID_00000147218966624097747270000018145177908682247871_);fill:#6796CF;}
	.st141{clip-path:url(#SVGID_00000147218966624097747270000018145177908682247871_);fill:#2B2961;}
	.st142{clip-path:url(#SVGID_00000056422839228187370040000000277544548937654169_);fill:#2B2961;}
	.st143{clip-path:url(#SVGID_00000103969981334785203900000017542047086233362338_);fill:#2B2961;}
	.st144{clip-path:url(#SVGID_00000009587042662489924500000010050173947475642549_);fill:#2B2961;}
	.st145{clip-path:url(#SVGID_00000009587042662489924500000010050173947475642549_);fill:#6796CF;}
	.st146{clip-path:url(#SVGID_00000150794320854098753220000016818009419022537612_);}
	.st147{clip-path:url(#SVGID_00000150794320854098753220000016818009419022537612_);fill:#FFFFFF;}
	.st148{clip-path:url(#SVGID_00000150794320854098753220000016818009419022537612_);fill:#2B2961;}
	.st149{clip-path:url(#SVGID_00000145747033416834192070000004339652956695654591_);fill:#2B2961;}
	.st150{clip-path:url(#SVGID_00000151502838361254732780000003792938224577242761_);fill:#2B2961;}
	.st151{clip-path:url(#SVGID_00000151502838361254732780000003792938224577242761_);fill:#FFFFFF;}
	.st152{clip-path:url(#SVGID_00000151502838361254732780000003792938224577242761_);fill:#6796CF;}
	.st153{clip-path:url(#SVGID_00000099624313287371073000000007591926298458794910_);fill:#2B2961;}
	.st154{clip-path:url(#SVGID_00000137847305406436199340000012063319576461642393_);fill:#2B2961;}
	.st155{clip-path:url(#SVGID_00000037662438789125634440000016754563287420082576_);fill:#6796CF;}
	.st156{clip-path:url(#SVGID_00000037662438789125634440000016754563287420082576_);}
	.st157{clip-path:url(#SVGID_00000123422372299943103340000006856702302405875595_);fill:#2B2961;}
	.st158{clip-path:url(#SVGID_00000037662438789125634440000016754563287420082576_);fill:#FFFFFF;}
	.st159{clip-path:url(#SVGID_00000037662438789125634440000016754563287420082576_);fill:#2B2961;}
	.st160{opacity:0.52;clip-path:url(#SVGID_00000141438545172262758000000013945044796456632456_);}
	.st161{clip-path:url(#SVGID_00000044895966977801978310000001337958372966759831_);fill:#6796CF;}
	.st162{clip-path:url(#SVGID_00000100371193686954392270000004398131248255044996_);fill:#2B2961;}
	.st163{clip-path:url(#SVGID_00000033371571813993088480000014517850718102111905_);fill:#2B2961;}
	.st164{clip-path:url(#SVGID_00000044179832905954236100000016595493538537592719_);fill:#6796CF;}
	.st165{clip-path:url(#SVGID_00000044179832905954236100000016595493538537592719_);fill:#2B2961;}
	.st166{clip-path:url(#SVGID_00000070797944720672177490000011888467737672644788_);fill:#2B2961;}
	.st167{clip-path:url(#SVGID_00000174567899826154707710000011573408849214140581_);fill:#2B2961;}
	.st168{clip-path:url(#SVGID_00000013191946590813133590000002602130132381137073_);fill:#2B2961;}
	.st169{clip-path:url(#SVGID_00000155835658240548227790000018254172341998288302_);fill:#FFFFFF;}
	.st170{clip-path:url(#SVGID_00000155835658240548227790000018254172341998288302_);fill:#2B2961;}
	.st171{clip-path:url(#SVGID_00000155835658240548227790000018254172341998288302_);fill:#6796CF;}
	.st172{clip-path:url(#SVGID_00000141444251674175451690000000004840345751461783_);fill:#6796CF;}
	.st173{clip-path:url(#SVGID_00000168089529930891261150000017108224037237115567_);fill:#2B2961;}
	.st174{clip-path:url(#SVGID_00000137131009053475750360000007006890479878510468_);fill:#2B2961;}
	.st175{clip-path:url(#SVGID_00000137131009053475750360000007006890479878510468_);fill:#FFFFFF;}
	.st176{clip-path:url(#SVGID_00000013883263284267261050000009138275387093143230_);fill:#6796CF;}
	.st177{clip-path:url(#SVGID_00000013883263284267261050000009138275387093143230_);fill:#2B2961;}
	.st178{clip-path:url(#SVGID_00000107584184472856405830000008924396972366285220_);fill:#6796CF;}
	.st179{clip-path:url(#SVGID_00000107584184472856405830000008924396972366285220_);fill:#2B2961;}
	.st180{clip-path:url(#SVGID_00000173842722833646106860000008758177182981575862_);fill:#2B2961;}
	.st181{clip-path:url(#SVGID_00000132806671244160073200000014180283653523170952_);fill:#2B2961;}
	.st182{clip-path:url(#SVGID_00000001661765533969825940000000086273681423570847_);fill:#FFFFFF;}
	.st183{clip-path:url(#SVGID_00000113319800875933966020000015864119608494719160_);fill:#2B2961;}
	.st184{clip-path:url(#SVGID_00000145018519400325913470000001486891816253684646_);fill:#2B2961;}
	.st185{clip-path:url(#SVGID_00000145018519400325913470000001486891816253684646_);fill:#6796CF;}
	.st186{clip-path:url(#SVGID_00000087413276348422202010000010211944160005538691_);fill:#2B2961;}
	.st187{clip-path:url(#SVGID_00000010300877350517330080000005396608094861838232_);fill:#2B2961;}
	.st188{clip-path:url(#SVGID_00000109027724187784656450000001560745995094140552_);fill:#6796CF;}
	.st189{clip-path:url(#SVGID_00000172424814360201996260000013373744240876687770_);fill:#2B2961;}
	.st190{clip-path:url(#SVGID_00000061462315402312483660000014965888658587364536_);fill:#6796CF;}
	.st191{clip-path:url(#SVGID_00000167383700764804681250000015537388524328906148_);fill:#2B2961;}
	.st192{clip-path:url(#SVGID_00000036215718629077250280000010920385304681212571_);fill:#6796CF;}
	.st193{clip-path:url(#SVGID_00000110452202513359578850000012043980120585217454_);fill:#2B2961;}
	.st194{clip-path:url(#SVGID_00000183945848818271724970000015904840645676235956_);}
	.st195{clip-path:url(#SVGID_00000183945848818271724970000015904840645676235956_);fill:#2B2961;}
	.st196{clip-path:url(#SVGID_00000183945848818271724970000015904840645676235956_);fill:#FFFFFF;}
	.st197{clip-path:url(#SVGID_00000048492526616424405830000014544423877349001351_);fill:#2B2961;}
	.st198{clip-path:url(#SVGID_00000156564877610662242470000001767514102676864920_);fill:#2B2961;}
	.st199{clip-path:url(#SVGID_00000080895507025548355500000016575148460028225162_);fill:#2B2961;}
	.st200{clip-path:url(#SVGID_00000165939436342499264270000014284935530289535617_);fill:#2B2961;}
	.st201{clip-path:url(#SVGID_00000103237440003204530800000011784240754347429302_);fill:#2B2961;}
	.st202{clip-path:url(#SVGID_00000084493435200882333380000011328358423226342820_);fill:#2B2961;}
	.st203{clip-path:url(#SVGID_00000112593754537080531060000009518699710041975721_);fill:#2B2961;}
	.st204{clip-path:url(#SVGID_00000057150090209139288500000016662869723328068995_);fill:#2B2961;}
	.st205{clip-path:url(#SVGID_00000011027831362341703530000013074273589949723272_);fill:#2B2961;}
	.st206{clip-path:url(#SVGID_00000083769804314333065300000012069162081418647956_);fill:#FFFFFF;}
	.st207{clip-path:url(#SVGID_00000083769804314333065300000012069162081418647956_);fill:#2B2961;}
	.st208{clip-path:url(#SVGID_00000170275486013398809090000006419462029091695233_);fill:#6796CF;}
	.st209{clip-path:url(#SVGID_00000170275486013398809090000006419462029091695233_);fill:#2B2961;}
	.st210{clip-path:url(#SVGID_00000088832883754431225780000001215684972686216073_);fill:#2B2961;}
	.st211{clip-path:url(#SVGID_00000088832883754431225780000001215684972686216073_);fill:#FFFFFF;}
	.st212{clip-path:url(#SVGID_00000003068788708478981770000009714494614884311445_);fill:#6796CF;}
	.st213{clip-path:url(#SVGID_00000003068788708478981770000009714494614884311445_);fill:#2B2961;}
	.st214{clip-path:url(#SVGID_00000109717477484455166340000004029286286715868089_);fill:#6796CF;}
	.st215{clip-path:url(#SVGID_00000109717477484455166340000004029286286715868089_);fill:#2B2961;}
	.st216{clip-path:url(#SVGID_00000075137095438285743060000018060705882956987269_);}
	.st217{clip-path:url(#SVGID_00000083063479276198825970000008988296273770122389_);}
	.st218{clip-path:url(#SVGID_00000181068775764521485000000007014538752829437570_);}
	.st219{clip-path:url(#SVGID_00000044148387980025695250000000714220729994433450_);}
	.st220{clip-path:url(#SVGID_00000141423802144781472000000014746595265921740167_);}
	.st221{clip-path:url(#SVGID_00000037655933375647523570000013812721705336518035_);}
	.st222{clip-path:url(#SVGID_00000010273167158338230510000001834194320347045298_);}
	.st223{clip-path:url(#SVGID_00000096026373571408482530000009468932582136759231_);}
	.st224{clip-path:url(#SVGID_00000160907372751163689290000017883252866610411705_);}
	.st225{clip-path:url(#SVGID_00000136387205379932213220000004270179626805614239_);}
	.st226{clip-path:url(#SVGID_00000047757173059695504930000005860830574721024952_);}
	.st227{clip-path:url(#SVGID_00000080890245528109028670000012782644522412060817_);}
	.st228{clip-path:url(#SVGID_00000046331713039107965450000004999859872811721863_);}
	.st229{clip-path:url(#SVGID_00000026133345681991191540000013506206580947908232_);}
	.st230{clip-path:url(#SVGID_00000010294527950026291790000016636397160306155710_);fill:#2B2961;}
	.st231{clip-path:url(#SVGID_00000010294527950026291790000016636397160306155710_);fill:#6796CF;}
	.st232{fill:#A2B9E1;}
	.st233{clip-path:url(#SVGID_00000096039519523981619550000007233819501980935868_);}
	.st234{clip-path:url(#SVGID_00000158738877630068399790000006320420804506112690_);}
</style>
<g>
	<rect x="152.23" y="64.21" class="st2" width="9.49" height="5.12"/>
	<path class="st2" d="M161.71,69.46h-9.49c-0.07,0-0.12-0.06-0.12-0.12v-5.12c0-0.07,0.06-0.12,0.12-0.12h9.49
		c0.07,0,0.12,0.06,0.12,0.12v5.12C161.84,69.4,161.78,69.46,161.71,69.46z M152.35,69.21h9.24v-4.87h-9.24V69.21z"/>
	<rect x="166.57" y="64.21" class="st2" width="9.49" height="5.12"/>
	<path class="st2" d="M176.05,69.46h-9.49c-0.07,0-0.12-0.06-0.12-0.12v-5.12c0-0.07,0.06-0.12,0.12-0.12h9.49
		c0.07,0,0.12,0.06,0.12,0.12v5.12C176.18,69.4,176.12,69.46,176.05,69.46z M166.69,69.21h9.24v-4.87h-9.24V69.21z"/>
	<g>
		<defs>
			<rect id="SVGID_00000155851316887097586160000011000802703508865154_" width="176.55" height="75.6"/>
		</defs>
		<clipPath id="SVGID_00000093136995397145854530000009790736949214137247_">
			<use xlink:href="#SVGID_00000155851316887097586160000011000802703508865154_"  style="overflow:visible;"/>
		</clipPath>
		<path style="clip-path:url(#SVGID_00000093136995397145854530000009790736949214137247_);fill:#6796CF;" d="M173.52,46.1
			c-0.27-0.93-1.11-1.6-2.09-1.6c-0.99,0-1.82,0.68-2.09,1.6H173.52z"/>
		<path style="clip-path:url(#SVGID_00000093136995397145854530000009790736949214137247_);fill:#6796CF;" d="M173.52,46.23h-4.18
			c-0.04,0-0.08-0.02-0.1-0.05c-0.02-0.03-0.03-0.07-0.02-0.11c0.3-1.01,1.19-1.69,2.21-1.69c1.02,0,1.91,0.68,2.21,1.69
			c0.01,0.04,0,0.08-0.02,0.11C173.6,46.21,173.56,46.23,173.52,46.23z M169.51,45.98h3.83c-0.31-0.82-1.06-1.35-1.92-1.35
			C170.57,44.63,169.82,45.16,169.51,45.98z"/>
	</g>
	<path class="st8" d="M153.51,49.67c-0.08,0-0.15-0.03-0.21-0.09c-0.12-0.12-0.12-0.31,0-0.42l0.86-0.87c0.12-0.12,0.31-0.12,0.42,0
		c0.12,0.12,0.12,0.31,0,0.42l-0.86,0.87C153.67,49.64,153.59,49.67,153.51,49.67z"/>
	<path class="st8" d="M159.71,49.67c-0.08,0-0.16-0.03-0.21-0.09l-0.86-0.87c-0.12-0.12-0.11-0.31,0-0.42
		c0.12-0.12,0.31-0.11,0.42,0l0.86,0.87c0.12,0.12,0.11,0.31,0,0.42C159.86,49.64,159.79,49.67,159.71,49.67z"/>
	<g>
		<defs>
			<rect id="SVGID_00000172424486285035325540000013003444176913481912_" width="176.55" height="75.6"/>
		</defs>
		<clipPath id="SVGID_00000036247938928057797380000005497500012169565848_">
			<use xlink:href="#SVGID_00000172424486285035325540000013003444176913481912_"  style="overflow:visible;"/>
		</clipPath>
		<path style="clip-path:url(#SVGID_00000036247938928057797380000005497500012169565848_);fill:#2B2961;" d="M161.75,64.37h-10.36
			v-0.4h10.36V64.37z M176.45,64.01h-10.36v-0.4h10.36V64.01z"/>
		<path style="clip-path:url(#SVGID_00000036247938928057797380000005497500012169565848_);fill:#2B2961;" d="M171.13,49.78
			c-1.56,0-2.82-1.28-2.82-2.85s1.26-2.85,2.82-2.85s2.82,1.28,2.82,2.85S172.68,49.78,171.13,49.78z M171.13,44.68
			c-1.22,0-2.22,1.01-2.22,2.25s1,2.25,2.22,2.25s2.22-1.01,2.22-2.25S172.35,44.68,171.13,44.68z"/>
	</g>
	<rect x="168.53" y="45.93" class="st8" width="5.2" height="0.4"/>
	<g>
		<defs>
			<rect id="SVGID_00000101789881828606250550000013902315963552418463_" width="176.55" height="75.6"/>
		</defs>
		<clipPath id="SVGID_00000168814255829062265450000003474296166035415948_">
			<use xlink:href="#SVGID_00000101789881828606250550000013902315963552418463_"  style="overflow:visible;"/>
		</clipPath>
		<path style="clip-path:url(#SVGID_00000168814255829062265450000003474296166035415948_);fill:#2B2961;" d="M170.34,47.2
			c0,0.08-0.06,0.14-0.14,0.14c-0.08,0-0.14-0.06-0.14-0.14c0-0.08,0.06-0.14,0.14-0.14C170.28,47.06,170.34,47.12,170.34,47.2"/>
		<path style="clip-path:url(#SVGID_00000168814255829062265450000003474296166035415948_);fill:#2B2961;" d="M172.18,47.2
			c0,0.08-0.06,0.14-0.14,0.14c-0.08,0-0.14-0.06-0.14-0.14c0-0.08,0.06-0.14,0.14-0.14C172.12,47.06,172.18,47.12,172.18,47.2"/>
		<path style="clip-path:url(#SVGID_00000168814255829062265450000003474296166035415948_);fill:#2B2961;" d="M173.77,74.9
			c-0.17,0-0.3-0.13-0.3-0.3v-5.15c0-0.17,0.13-0.3,0.3-0.3s0.3,0.13,0.3,0.3v5.15C174.07,74.76,173.94,74.9,173.77,74.9z
			 M168.44,74.9c-0.17,0-0.3-0.13-0.3-0.3v-5.15c0-0.17,0.13-0.3,0.3-0.3s0.3,0.13,0.3,0.3v5.15
			C168.74,74.76,168.6,74.9,168.44,74.9z M173.64,61.32c-0.17,0-0.3-0.13-0.3-0.3v-5.15c0-0.17,0.13-0.3,0.3-0.3s0.3,0.13,0.3,0.3
			v5.15C173.94,61.19,173.81,61.32,173.64,61.32z M168.6,61.32c-0.17,0-0.3-0.13-0.3-0.3v-5.15c0-0.17,0.13-0.3,0.3-0.3
			s0.3,0.13,0.3,0.3v5.15C168.9,61.19,168.77,61.32,168.6,61.32z"/>
		<path style="clip-path:url(#SVGID_00000168814255829062265450000003474296166035415948_);fill:#2B2961;" d="M176.21,69.53H166
			c-0.17,0-0.3-0.13-0.3-0.3V56.78c0-3.12,2.48-5.76,5.41-5.76c2.95,0,5.44,2.64,5.44,5.76v0l-0.04,12.46
			C176.51,69.4,176.38,69.53,176.21,69.53z M166.3,68.94h9.62l0.03-12.16c0-2.79-2.22-5.16-4.84-5.16c-2.61,0-4.81,2.36-4.81,5.16
			V68.94z"/>
		<path style="clip-path:url(#SVGID_00000168814255829062265450000003474296166035415948_);fill:#6796CF;" d="M159.01,46.1
			c-0.27-0.93-1.11-1.6-2.09-1.6c-0.99,0-1.82,0.68-2.09,1.6H159.01z"/>
		<path style="clip-path:url(#SVGID_00000168814255829062265450000003474296166035415948_);fill:#6796CF;" d="M159.01,46.23h-4.18
			c-0.04,0-0.08-0.02-0.1-0.05c-0.02-0.03-0.03-0.07-0.02-0.11c0.3-1.01,1.19-1.69,2.21-1.69s1.91,0.68,2.21,1.69
			c0.01,0.04,0,0.08-0.02,0.11C159.09,46.21,159.05,46.23,159.01,46.23z M155,45.98h3.83c-0.31-0.82-1.06-1.35-1.92-1.35
			S155.31,45.16,155,45.98z"/>
		<path style="clip-path:url(#SVGID_00000168814255829062265450000003474296166035415948_);fill:#2B2961;" d="M156.62,49.78
			c-1.56,0-2.82-1.28-2.82-2.85s1.27-2.85,2.82-2.85s2.82,1.28,2.82,2.85S158.17,49.78,156.62,49.78z M156.62,44.68
			c-1.22,0-2.22,1.01-2.22,2.25s1,2.25,2.22,2.25s2.22-1.01,2.22-2.25S157.84,44.68,156.62,44.68z"/>
	</g>
	<rect x="154.02" y="45.93" class="st8" width="5.2" height="0.4"/>
	<g>
		<defs>
			<rect id="SVGID_00000121274951942026795480000017340118300982362551_" width="176.55" height="75.6"/>
		</defs>
		<clipPath id="SVGID_00000076571821838278461050000004731298717571192459_">
			<use xlink:href="#SVGID_00000121274951942026795480000017340118300982362551_"  style="overflow:visible;"/>
		</clipPath>
		<path style="clip-path:url(#SVGID_00000076571821838278461050000004731298717571192459_);fill:#2B2961;" d="M155.83,47.2
			c0,0.08-0.06,0.14-0.14,0.14c-0.08,0-0.14-0.06-0.14-0.14c0-0.08,0.06-0.14,0.14-0.14C155.77,47.06,155.83,47.12,155.83,47.2"/>
		<path style="clip-path:url(#SVGID_00000076571821838278461050000004731298717571192459_);fill:#2B2961;" d="M157.67,47.2
			c0,0.08-0.06,0.14-0.14,0.14c-0.08,0-0.14-0.06-0.14-0.14c0-0.08,0.06-0.14,0.14-0.14C157.61,47.06,157.67,47.12,157.67,47.2"/>
		<path style="clip-path:url(#SVGID_00000076571821838278461050000004731298717571192459_);fill:#2B2961;" d="M159.26,74.9
			c-0.17,0-0.3-0.13-0.3-0.3v-5.15c0-0.17,0.13-0.3,0.3-0.3s0.3,0.13,0.3,0.3v5.15C159.56,74.76,159.43,74.9,159.26,74.9z
			 M153.93,74.9c-0.17,0-0.3-0.13-0.3-0.3v-5.15c0-0.17,0.13-0.3,0.3-0.3s0.3,0.13,0.3,0.3v5.15
			C154.23,74.76,154.09,74.9,153.93,74.9z M159.13,61.32c-0.17,0-0.3-0.13-0.3-0.3v-5.15c0-0.17,0.13-0.3,0.3-0.3s0.3,0.13,0.3,0.3
			v5.15C159.43,61.19,159.3,61.32,159.13,61.32z M154.09,61.32c-0.17,0-0.3-0.13-0.3-0.3v-5.15c0-0.17,0.13-0.3,0.3-0.3
			s0.3,0.13,0.3,0.3v5.15C154.39,61.19,154.26,61.32,154.09,61.32z"/>
		<path style="clip-path:url(#SVGID_00000076571821838278461050000004731298717571192459_);fill:#2B2961;" d="M161.7,69.53h-10.22
			c-0.17,0-0.3-0.13-0.3-0.3V56.78c0-3.12,2.48-5.76,5.41-5.76c2.95,0,5.44,2.64,5.44,5.76v0L162,69.24
			C162,69.4,161.87,69.53,161.7,69.53z M151.78,68.94h9.62l0.03-12.16c0-2.79-2.22-5.16-4.84-5.16c-2.61,0-4.81,2.36-4.81,5.16
			V68.94z"/>
	</g>
	<rect x="115.29" y="55.83" class="st2" width="13.02" height="13.5"/>
	<path class="st2" d="M128.31,69.46h-13.02c-0.07,0-0.12-0.06-0.12-0.12v-13.5c0-0.07,0.06-0.12,0.12-0.12h13.02
		c0.07,0,0.12,0.06,0.12,0.12v13.5C128.44,69.4,128.38,69.46,128.31,69.46z M115.42,69.21h12.77V55.95h-12.77V69.21z"/>
	<g>
		<defs>
			<rect id="SVGID_00000181074121844956703120000010235706630819371413_" width="176.55" height="75.6"/>
		</defs>
		<clipPath id="SVGID_00000100343750304684164250000002687006888551679121_">
			<use xlink:href="#SVGID_00000181074121844956703120000010235706630819371413_"  style="overflow:visible;"/>
		</clipPath>
		<path style="clip-path:url(#SVGID_00000100343750304684164250000002687006888551679121_);fill:#6796CF;" d="M140.01,35.84
			c1.48,0,2.85,0.28,3.99,1.07v-5.14l-0.41,0.58c-0.65,1.36-2.01,2.3-3.57,2.3c-1.57,0-2.68-0.66-3.33-2.02l-0.28-0.28v4.5
			C137.47,36.21,138.7,35.84,140.01,35.84"/>
		<path style="clip-path:url(#SVGID_00000100343750304684164250000002687006888551679121_);fill:#6796CF;" d="M144,37.03
			c-0.02,0-0.05-0.01-0.07-0.02c-1.02-0.71-2.3-1.05-3.92-1.05c-1.24,0-2.46,0.34-3.54,1c-0.04,0.02-0.09,0.03-0.13,0
			c-0.04-0.02-0.06-0.06-0.06-0.11v-4.5c0-0.05,0.03-0.1,0.08-0.12c0.05-0.02,0.1-0.01,0.14,0.03l0.27,0.28
			c0.01,0.01,0.02,0.02,0.02,0.03c0.63,1.31,1.68,1.95,3.22,1.95c1.48,0,2.8-0.85,3.46-2.23l0.43-0.6c0.03-0.04,0.09-0.06,0.14-0.05
			c0.05,0.02,0.09,0.06,0.09,0.12v5.14c0,0.05-0.03,0.09-0.07,0.11C144.04,37.03,144.02,37.03,144,37.03z M140.01,35.71
			c1.57,0,2.84,0.32,3.86,0.96v-4.52l-0.19,0.26c-0.69,1.44-2.1,2.35-3.68,2.35c-1.61,0-2.77-0.7-3.43-2.07l-0.05-0.05v3.98
			C137.6,36.03,138.8,35.71,140.01,35.71z"/>
		<path style="clip-path:url(#SVGID_00000100343750304684164250000002687006888551679121_);fill:#2B2961;" d="M143.85,37.42
			c-0.06,0-0.12-0.02-0.17-0.05c-1.16-0.79-2.67-1.29-3.94-1.29c-1.32,0-2.51,0.38-3.65,1.16c-0.09,0.06-0.21,0.07-0.31,0.02
			c-0.1-0.05-0.16-0.15-0.16-0.27v-6.32h0.6v5.78c1.09-0.64,2.27-0.96,3.52-0.96c1.24,0,2.63,0.4,3.81,1.09v-5.99h0.6v6.53
			c0,0.11-0.06,0.21-0.16,0.27C143.94,37.41,143.9,37.42,143.85,37.42z"/>
	</g>
	<rect x="133.59" y="62.24" class="st2" width="13.53" height="7.09"/>
	<path class="st2" d="M147.12,69.46h-13.53c-0.07,0-0.12-0.06-0.12-0.12v-7.09c0-0.07,0.06-0.12,0.12-0.12h13.53
		c0.07,0,0.12,0.06,0.12,0.12v7.09C147.24,69.4,147.19,69.46,147.12,69.46z M133.71,69.21h13.28v-6.84h-13.28V69.21z"/>
	<rect x="132.82" y="61.98" class="st8" width="14.29" height="0.4"/>
	<g>
		<defs>
			<rect id="SVGID_00000098179509873977493840000016982625523657025181_" width="176.55" height="75.6"/>
		</defs>
		<clipPath id="SVGID_00000103263170461606708140000011178514168013226402_">
			<use xlink:href="#SVGID_00000098179509873977493840000016982625523657025181_"  style="overflow:visible;"/>
		</clipPath>
		<path style="clip-path:url(#SVGID_00000103263170461606708140000011178514168013226402_);fill:#2B2961;" d="M143.96,74.9
			c-0.17,0-0.3-0.13-0.3-0.3v-5.04c0-0.17,0.13-0.3,0.3-0.3s0.3,0.13,0.3,0.3v5.04C144.26,74.76,144.12,74.9,143.96,74.9z
			 M135.81,74.9c-0.17,0-0.3-0.13-0.3-0.3v-5.04c0-0.17,0.13-0.3,0.3-0.3s0.3,0.13,0.3,0.3v5.04
			C136.11,74.76,135.98,74.9,135.81,74.9z"/>
	</g>
	<path class="st8" d="M143.94,50.39c-0.19,0-0.35-0.16-0.35-0.35v-6.8c0-0.19,0.16-0.35,0.35-0.35s0.35,0.16,0.35,0.35v6.8
		C144.29,50.23,144.14,50.39,143.94,50.39z M135.83,50.39c-0.19,0-0.35-0.16-0.35-0.35v-6.8c0-0.19,0.16-0.35,0.35-0.35
		s0.35,0.16,0.35,0.35v6.8C136.17,50.23,136.02,50.39,135.83,50.39z"/>
	<g>
		<defs>
			<rect id="SVGID_00000174603623922466831730000006523793908444094097_" width="176.55" height="75.6"/>
		</defs>
		<clipPath id="SVGID_00000017500113627181660420000004713286536924467884_">
			<use xlink:href="#SVGID_00000174603623922466831730000006523793908444094097_"  style="overflow:visible;"/>
		</clipPath>
		<path style="clip-path:url(#SVGID_00000017500113627181660420000004713286536924467884_);fill:#2B2961;" d="M146.94,69.52h-14.16
			c-0.17,0-0.3-0.13-0.3-0.3V43.43c0-4.23,3.38-7.83,7.38-7.86c0.02,0,0.03,0,0.05,0c1.81,0,3.56,0.75,4.95,2.12
			c1.54,1.52,2.42,3.61,2.44,5.74c0,0,0,0,0,0l-0.05,25.78C147.24,69.38,147.11,69.52,146.94,69.52z M133.08,68.92h13.56l0.05-25.48
			c-0.01-1.97-0.83-3.91-2.26-5.31c-1.27-1.25-2.88-1.94-4.53-1.94c-0.01,0-0.03,0-0.04,0c-3.68,0.03-6.78,3.35-6.78,7.26V68.92z"/>
		<path style="clip-path:url(#SVGID_00000017500113627181660420000004713286536924467884_);fill:#6796CF;" d="M143.89,29.44
			c-0.46-1.52-1.88-2.62-3.56-2.62c-1.68,0-3.09,1.11-3.56,2.62H143.89z"/>
		<path style="clip-path:url(#SVGID_00000017500113627181660420000004713286536924467884_);fill:#6796CF;" d="M143.89,29.56h-7.12
			c-0.04,0-0.08-0.02-0.1-0.05c-0.02-0.03-0.03-0.07-0.02-0.11c0.5-1.62,1.97-2.71,3.68-2.71s3.18,1.09,3.68,2.71
			c0.01,0.04,0,0.08-0.02,0.11C143.97,29.54,143.93,29.56,143.89,29.56z M136.95,29.31h6.77c-0.51-1.43-1.85-2.37-3.39-2.37
			S137.46,27.89,136.95,29.31z"/>
		<path style="clip-path:url(#SVGID_00000017500113627181660420000004713286536924467884_);fill:#2B2961;" d="M139.89,34.78
			c-2.35,0-4.26-1.93-4.26-4.31s1.91-4.31,4.26-4.31s4.26,1.93,4.26,4.31S142.24,34.78,139.89,34.78z M139.89,26.77
			c-2.02,0-3.66,1.66-3.66,3.71c0,2.04,1.64,3.71,3.66,3.71s3.66-1.66,3.66-3.71C143.55,28.43,141.9,26.77,139.89,26.77z"/>
	</g>
	<rect x="136.05" y="29.34" class="st8" width="7.67" height="0.4"/>
	<g>
		<defs>
			<rect id="SVGID_00000017505001129968521620000008976049693213339804_" width="176.55" height="75.6"/>
		</defs>
		<clipPath id="SVGID_00000082336384762638064150000017611178781330099620_">
			<use xlink:href="#SVGID_00000017505001129968521620000008976049693213339804_"  style="overflow:visible;"/>
		</clipPath>
		<path style="clip-path:url(#SVGID_00000082336384762638064150000017611178781330099620_);fill:#2B2961;" d="M138.64,30.78
			c0,0.12-0.1,0.22-0.22,0.22s-0.22-0.1-0.22-0.22c0-0.12,0.1-0.22,0.22-0.22S138.64,30.66,138.64,30.78"/>
		<path style="clip-path:url(#SVGID_00000082336384762638064150000017611178781330099620_);fill:#2B2961;" d="M141.56,30.78
			c0,0.12-0.1,0.22-0.22,0.22s-0.22-0.1-0.22-0.22c0-0.12,0.1-0.22,0.22-0.22S141.56,30.66,141.56,30.78"/>
	</g>
	<rect x="114.26" y="55.52" class="st8" width="14.29" height="0.4"/>
	<g>
		<defs>
			<rect id="SVGID_00000109737630617612511740000006699213771330497182_" width="176.55" height="75.6"/>
		</defs>
		<clipPath id="SVGID_00000160876795182208534960000005614597055263593358_">
			<use xlink:href="#SVGID_00000109737630617612511740000006699213771330497182_"  style="overflow:visible;"/>
		</clipPath>
		<path style="clip-path:url(#SVGID_00000160876795182208534960000005614597055263593358_);fill:#2B2961;" d="M125.39,74.9
			c-0.17,0-0.3-0.13-0.3-0.3v-5.04c0-0.17,0.13-0.3,0.3-0.3s0.3,0.13,0.3,0.3v5.04C125.69,74.76,125.56,74.9,125.39,74.9z
			 M117.25,74.9c-0.17,0-0.3-0.13-0.3-0.3v-5.04c0-0.17,0.13-0.3,0.3-0.3s0.3,0.13,0.3,0.3v5.04
			C117.55,74.76,117.42,74.9,117.25,74.9z"/>
	</g>
	<path class="st8" d="M125.38,50.39c-0.19,0-0.35-0.16-0.35-0.35v-6.8c0-0.19,0.16-0.35,0.35-0.35s0.35,0.16,0.35,0.35v6.8
		C125.73,50.23,125.57,50.39,125.38,50.39z M117.26,50.39c-0.19,0-0.35-0.16-0.35-0.35v-6.8c0-0.19,0.16-0.35,0.35-0.35
		s0.35,0.16,0.35,0.35v6.8C117.61,50.23,117.46,50.39,117.26,50.39z"/>
	<g>
		<defs>
			<rect id="SVGID_00000047764681344047478560000009833359546172725159_" width="176.55" height="75.6"/>
		</defs>
		<clipPath id="SVGID_00000070819956147182315310000009767925959044047779_">
			<use xlink:href="#SVGID_00000047764681344047478560000009833359546172725159_"  style="overflow:visible;"/>
		</clipPath>
		<path style="clip-path:url(#SVGID_00000070819956147182315310000009767925959044047779_);fill:#2B2961;" d="M128.38,69.52h-14.16
			c-0.17,0-0.3-0.13-0.3-0.3V43.43c0-4.23,3.38-7.83,7.38-7.86c1.84,0,3.6,0.74,4.99,2.12c1.54,1.52,2.42,3.61,2.44,5.74
			c0,0,0,0,0,0l-0.05,25.78C128.68,69.38,128.54,69.52,128.38,69.52z M114.52,68.92h13.56l0.05-25.48
			c-0.01-1.97-0.83-3.91-2.26-5.31c-1.27-1.25-2.88-1.94-4.53-1.94c-0.01,0-0.03,0-0.04,0c-3.68,0.03-6.78,3.35-6.78,7.26V68.92z"/>
		<path style="clip-path:url(#SVGID_00000070819956147182315310000009767925959044047779_);fill:#6796CF;" d="M125.33,29.44
			c-0.46-1.52-1.88-2.62-3.56-2.62c-1.68,0-3.09,1.11-3.56,2.62H125.33z"/>
		<path style="clip-path:url(#SVGID_00000070819956147182315310000009767925959044047779_);fill:#6796CF;" d="M125.33,29.56h-7.12
			c-0.04,0-0.08-0.02-0.1-0.05c-0.02-0.03-0.03-0.07-0.02-0.11c0.5-1.62,1.97-2.71,3.68-2.71s3.18,1.09,3.68,2.71
			c0.01,0.04,0,0.08-0.02,0.11C125.41,29.54,125.37,29.56,125.33,29.56z M118.39,29.31h6.77c-0.51-1.43-1.85-2.37-3.39-2.37
			S118.9,27.89,118.39,29.31z"/>
		<path style="clip-path:url(#SVGID_00000070819956147182315310000009767925959044047779_);fill:#2B2961;" d="M121.32,34.78
			c-2.35,0-4.26-1.93-4.26-4.31s1.91-4.31,4.26-4.31s4.26,1.93,4.26,4.31S123.67,34.78,121.32,34.78z M121.32,26.77
			c-2.02,0-3.66,1.66-3.66,3.71c0,2.04,1.64,3.71,3.66,3.71s3.66-1.66,3.66-3.71C124.98,28.43,123.34,26.77,121.32,26.77z"/>
	</g>
	<rect x="117.49" y="29.34" class="st8" width="7.67" height="0.4"/>
	<g>
		<defs>
			<rect id="SVGID_00000138564980834937510290000015247647252578185884_" width="176.55" height="75.6"/>
		</defs>
		<clipPath id="SVGID_00000097464470499401320260000004966727682608743868_">
			<use xlink:href="#SVGID_00000138564980834937510290000015247647252578185884_"  style="overflow:visible;"/>
		</clipPath>
		<path style="clip-path:url(#SVGID_00000097464470499401320260000004966727682608743868_);fill:#2B2961;" d="M120.08,30.78
			c0,0.12-0.1,0.22-0.22,0.22s-0.22-0.1-0.22-0.22c0-0.12,0.1-0.22,0.22-0.22S120.08,30.66,120.08,30.78"/>
		<path style="clip-path:url(#SVGID_00000097464470499401320260000004966727682608743868_);fill:#2B2961;" d="M123,30.78
			c0,0.12-0.1,0.22-0.22,0.22s-0.22-0.1-0.22-0.22c0-0.12,0.1-0.22,0.22-0.22S123,30.66,123,30.78"/>
	</g>
	<path class="st8" d="M121.33,69.51c-0.11,0-0.2-0.09-0.2-0.2V57.93c0-0.11,0.09-0.2,0.2-0.2s0.2,0.09,0.2,0.2v11.38
		C121.53,69.42,121.44,69.51,121.33,69.51z M170.96,69.46c-0.11,0-0.2-0.09-0.2-0.2v-3.9c0-0.11,0.09-0.2,0.2-0.2s0.2,0.09,0.2,0.2
		v3.9C171.16,69.37,171.07,69.46,170.96,69.46z"/>
	<polygon class="st4" points="0.3,15.97 0.3,19.23 0.3,75.3 59.49,75.3 59.49,16.7 33.34,16.7 33.21,16.63 16.28,0.42 	"/>
	<g>
		<defs>
			<rect id="SVGID_00000131346304803669196330000011502597104775623053_" width="176.55" height="75.6"/>
		</defs>
		<clipPath id="SVGID_00000065772454576206253070000003840445219801348994_">
			<use xlink:href="#SVGID_00000131346304803669196330000011502597104775623053_"  style="overflow:visible;"/>
		</clipPath>
		<path style="clip-path:url(#SVGID_00000065772454576206253070000003840445219801348994_);fill:#2B2961;" d="M59.79,75.6H0l0-59.75
			l0.09-0.09L16.28,0L33.4,16.4h26.39L59.79,75.6z M0.6,75h58.59l0-58H33.34v-0.51L33,16.84L16.28,0.83L0.6,16.1L0.6,75z"/>
	</g>
	<polygon class="st2" points="2.19,14.24 2.19,30.12 16.32,16.05 32.97,32.28 33.43,17 16.32,0.89 2.19,13.88 	"/>
	<rect x="35.51" y="17.13" class="st2" width="23.9" height="15.51"/>
	<g>
		<defs>
			<rect id="SVGID_00000072964104374554460700000006748358448449103517_" width="176.55" height="75.6"/>
		</defs>
		<clipPath id="SVGID_00000098178768047952460000000012483120266557951633_">
			<use xlink:href="#SVGID_00000072964104374554460700000006748358448449103517_"  style="overflow:visible;"/>
		</clipPath>
		<path style="clip-path:url(#SVGID_00000098178768047952460000000012483120266557951633_);fill:#2B2961;" d="M59.79,75.6H0l0-59.75
			l0.09-0.09L16.28,0L33.4,16.4h26.39L59.79,75.6z M0.6,75h58.59l0-58H33.34v-0.51L33,16.84L16.28,0.83L0.6,16.1L0.6,75z"/>
	</g>
	<path class="st8" d="M26.44,61.73c-0.17,0-0.3-0.13-0.3-0.3v-3.48c0-0.17,0.13-0.3,0.3-0.3s0.3,0.13,0.3,0.3v3.48
		C26.74,61.6,26.61,61.73,26.44,61.73z M20.62,61.73c-0.17,0-0.3-0.13-0.3-0.3v-3.48c0-0.17,0.13-0.3,0.3-0.3s0.3,0.13,0.3,0.3v3.48
		C20.92,61.6,20.79,61.73,20.62,61.73z M14.81,61.73c-0.17,0-0.3-0.13-0.3-0.3v-3.48c0-0.17,0.13-0.3,0.3-0.3s0.3,0.13,0.3,0.3v3.48
		C15.11,61.6,14.97,61.73,14.81,61.73z M8.99,61.73c-0.17,0-0.3-0.13-0.3-0.3v-3.48c0-0.17,0.13-0.3,0.3-0.3s0.3,0.13,0.3,0.3v3.48
		C9.29,61.6,9.15,61.73,8.99,61.73z M52.72,52.93c-0.17,0-0.3-0.13-0.3-0.3v-3.48c0-0.17,0.13-0.3,0.3-0.3s0.3,0.13,0.3,0.3v3.48
		C53.02,52.8,52.89,52.93,52.72,52.93z M46.9,52.93c-0.17,0-0.3-0.13-0.3-0.3v-3.48c0-0.17,0.13-0.3,0.3-0.3s0.3,0.13,0.3,0.3v3.48
		C47.2,52.8,47.07,52.93,46.9,52.93z M41.09,52.93c-0.17,0-0.3-0.13-0.3-0.3v-3.48c0-0.17,0.13-0.3,0.3-0.3s0.3,0.13,0.3,0.3v3.48
		C41.39,52.8,41.25,52.93,41.09,52.93z M35.27,52.93c-0.17,0-0.3-0.13-0.3-0.3v-3.48c0-0.17,0.13-0.3,0.3-0.3s0.3,0.13,0.3,0.3v3.48
		C35.57,52.8,35.43,52.93,35.27,52.93z M26.44,52.93c-0.17,0-0.3-0.13-0.3-0.3v-3.48c0-0.17,0.13-0.3,0.3-0.3s0.3,0.13,0.3,0.3v3.48
		C26.74,52.8,26.61,52.93,26.44,52.93z M20.62,52.93c-0.17,0-0.3-0.13-0.3-0.3v-3.48c0-0.17,0.13-0.3,0.3-0.3s0.3,0.13,0.3,0.3v3.48
		C20.92,52.8,20.79,52.93,20.62,52.93z M14.81,52.93c-0.17,0-0.3-0.13-0.3-0.3v-3.48c0-0.17,0.13-0.3,0.3-0.3s0.3,0.13,0.3,0.3v3.48
		C15.11,52.8,14.97,52.93,14.81,52.93z M8.99,52.93c-0.17,0-0.3-0.13-0.3-0.3v-3.48c0-0.17,0.13-0.3,0.3-0.3s0.3,0.13,0.3,0.3v3.48
		C9.29,52.8,9.15,52.93,8.99,52.93z M52.72,43.76c-0.17,0-0.3-0.13-0.3-0.3v-3.48c0-0.17,0.13-0.3,0.3-0.3s0.3,0.13,0.3,0.3v3.48
		C53.02,43.63,52.89,43.76,52.72,43.76z M46.9,43.76c-0.17,0-0.3-0.13-0.3-0.3v-3.48c0-0.17,0.13-0.3,0.3-0.3s0.3,0.13,0.3,0.3v3.48
		C47.2,43.63,47.07,43.76,46.9,43.76z M41.09,43.76c-0.17,0-0.3-0.13-0.3-0.3v-3.48c0-0.17,0.13-0.3,0.3-0.3s0.3,0.13,0.3,0.3v3.48
		C41.39,43.63,41.25,43.76,41.09,43.76z M35.27,43.76c-0.17,0-0.3-0.13-0.3-0.3v-3.48c0-0.17,0.13-0.3,0.3-0.3s0.3,0.13,0.3,0.3
		v3.48C35.57,43.63,35.43,43.76,35.27,43.76z M26.44,43.76c-0.17,0-0.3-0.13-0.3-0.3v-3.48c0-0.17,0.13-0.3,0.3-0.3
		s0.3,0.13,0.3,0.3v3.48C26.74,43.63,26.61,43.76,26.44,43.76z M20.62,43.76c-0.17,0-0.3-0.13-0.3-0.3v-3.48
		c0-0.17,0.13-0.3,0.3-0.3s0.3,0.13,0.3,0.3v3.48C20.92,43.63,20.79,43.76,20.62,43.76z M14.81,43.76c-0.17,0-0.3-0.13-0.3-0.3
		v-3.48c0-0.17,0.13-0.3,0.3-0.3s0.3,0.13,0.3,0.3v3.48C15.11,43.63,14.97,43.76,14.81,43.76z M8.99,43.76c-0.17,0-0.3-0.13-0.3-0.3
		v-3.48c0-0.17,0.13-0.3,0.3-0.3s0.3,0.13,0.3,0.3v3.48C9.29,43.63,9.15,43.76,8.99,43.76z"/>
	<g>
		<defs>
			<rect id="SVGID_00000176755415103050190660000011845919958141219736_" width="176.55" height="75.6"/>
		</defs>
		<clipPath id="SVGID_00000057846913406480233370000001331032671423155340_">
			<use xlink:href="#SVGID_00000176755415103050190660000011845919958141219736_"  style="overflow:visible;"/>
		</clipPath>
		<polygon style="clip-path:url(#SVGID_00000057846913406480233370000001331032671423155340_);fill:#2B2961;" points="59.41,32.89 
			33.05,32.89 32.96,32.81 16.46,16.8 0.74,32.05 0.33,31.61 16.25,16.17 15.97,0.54 16.57,0.53 16.86,16.35 32.98,31.99 
			33.01,16.45 33.61,16.45 33.58,32.3 59.41,32.3 		"/>
		<path style="clip-path:url(#SVGID_00000057846913406480233370000001331032671423155340_);fill:#2B2961;" d="M44.46,74.9
			c-0.16,0-0.28-0.13-0.28-0.28v-6.77c0-0.16,0.13-0.28,0.28-0.28s0.28,0.13,0.28,0.28v6.77C44.74,74.77,44.61,74.9,44.46,74.9z"/>
	</g>
	<polygon class="st2" points="57.4,53.65 63.32,47.52 63.53,59.57 	"/>
	<polygon class="st2" points="81.29,53.23 87.21,47.11 87.42,59.15 	"/>
	<polygon class="st2" points="69.35,53.44 75.26,47.32 75.47,59.36 	"/>
	<path class="st4" d="M117.63,44.13l-0.06,18.42h-26.9V44.12h19.78L117.63,44.13z M117.64,44.18l-13.47,13.36L90.71,44.18"/>
	<path class="st8" d="M117.57,62.85h-26.9c-0.17,0-0.3-0.13-0.3-0.3V44.12c0-0.17,0.13-0.3,0.3-0.3l26.96,0
		c0.08,0,0.16,0.03,0.21,0.09s0.09,0.13,0.09,0.21l-0.06,18.42C117.87,62.72,117.73,62.85,117.57,62.85z M90.97,62.25h26.3
		l0.06-17.33l-12.94,12.84c-0.12,0.12-0.31,0.12-0.42,0l-12.99-12.9V62.25z M91.38,44.42l12.8,12.7l12.79-12.7L91.38,44.42z"/>
	<path class="st8" d="M117.5,62.65l-13.32-13.1l-13.32,13.1l-0.42-0.43l13.53-13.3c0.12-0.12,0.3-0.12,0.42,0l13.53,13.3
		L117.5,62.65z"/>
	<polyline class="st4" points="117.69,44.14 104.18,57.39 90.66,44.14 	"/>
	<polyline class="st2" points="117.48,44.32 104.97,56.66 92.4,44.32 	"/>
	<polygon class="st2" points="104.97,56.84 104.88,56.75 92.31,44.41 92.48,44.23 104.97,56.48 117.39,44.23 117.57,44.41 	"/>
	<path class="st8" d="M117.57,62.85h-26.9c-0.17,0-0.3-0.13-0.3-0.3V44.12c0-0.17,0.13-0.3,0.3-0.3l26.96,0
		c0.08,0,0.16,0.03,0.21,0.09s0.09,0.13,0.09,0.21l-0.06,18.42C117.87,62.72,117.73,62.85,117.57,62.85z M90.97,62.25h26.3
		l0.06-17.33l-12.94,12.84c-0.12,0.12-0.31,0.12-0.42,0l-12.99-12.9V62.25z M91.38,44.42l12.8,12.7l12.79-12.7L91.38,44.42z"/>
</g>
</svg>
