<?xml version="1.0" encoding="utf-8"?>
<!-- Generator: Adobe Illustrator 26.0.2, SVG Export Plug-In . SVG Version: 6.00 Build 0)  -->
<svg version="1.1" id="Ebene_1" xmlns="http://www.w3.org/2000/svg" xmlns:xlink="http://www.w3.org/1999/xlink" x="0px" y="0px"
	 viewBox="0 0 76.02 75.42" style="enable-background:new 0 0 76.02 75.42;" xml:space="preserve">
<style type="text/css">
	.st0{clip-path:url(#SVGID_00000031189218566099795030000010650555706606693761_);fill:#6796CF;}
	.st1{clip-path:url(#SVGID_00000031189218566099795030000010650555706606693761_);fill:#2B2961;}
	.st2{fill:#6796CF;}
	.st3{clip-path:url(#SVGID_00000100368499998544130660000014781126925372194187_);fill:#2B2961;}
	.st4{fill:#FFFFFF;}
	.st5{clip-path:url(#SVGID_00000041290657336845563640000014573053869249707913_);fill:#2B2961;}
	.st6{clip-path:url(#SVGID_00000052066656444461146740000007506275454955718813_);fill:#2B2961;}
	.st7{clip-path:url(#SVGID_00000125577238250002321430000014777124582313137046_);fill:#2B2961;}
	.st8{fill:#2B2961;}
	.st9{clip-path:url(#SVGID_00000011016451871623367540000001876784915080697766_);fill:#6796CF;}
	.st10{clip-path:url(#SVGID_00000011016451871623367540000001876784915080697766_);fill:#2B2961;}
	.st11{clip-path:url(#SVGID_00000124879516728943248410000017334959277018264229_);fill:#2B2961;}
	.st12{clip-path:url(#SVGID_00000158024967837877423370000016507717829690078093_);fill:#2B2961;}
	.st13{clip-path:url(#SVGID_00000158024967837877423370000016507717829690078093_);fill:#6796CF;}
	.st14{clip-path:url(#SVGID_00000007413230336266745940000014052963653058747299_);fill:#2B2961;}
	.st15{clip-path:url(#SVGID_00000098914627775094542970000003957197964752369545_);fill:#2B2961;}
	.st16{clip-path:url(#SVGID_00000109011772680081302100000010652138137343292813_);fill:#2B2961;}
	.st17{clip-path:url(#SVGID_00000109011772680081302100000010652138137343292813_);fill:#6796CF;}
	.st18{clip-path:url(#SVGID_00000075137631569483092110000004567021274257953980_);fill:#2B2961;}
	.st19{clip-path:url(#SVGID_00000103267002298381144610000006617747992479544213_);fill:#2B2961;}
	.st20{clip-path:url(#SVGID_00000021824562962462898650000007529762221787283105_);fill:#2B2961;}
	.st21{clip-path:url(#SVGID_00000036214402785594471890000018185251220752725163_);fill:#2B2961;}
	.st22{clip-path:url(#SVGID_00000070810851193168612510000017383527870373035955_);fill:#6796CF;}
	.st23{clip-path:url(#SVGID_00000070810851193168612510000017383527870373035955_);fill:#2B2961;}
	.st24{clip-path:url(#SVGID_00000016763750769821267440000008656774588984756913_);fill:#2B2961;}
	.st25{clip-path:url(#SVGID_00000143582936970593319800000013445319745167277961_);fill:#2B2961;}
	.st26{clip-path:url(#SVGID_00000143582936970593319800000013445319745167277961_);fill:#6796CF;}
	.st27{clip-path:url(#SVGID_00000023279528818462242790000006725026802181020825_);fill:#2B2961;}
	.st28{clip-path:url(#SVGID_00000107577946509559785720000004278375163273308853_);fill:#2B2961;}
	.st29{clip-path:url(#SVGID_00000059297559100211381340000016392876329077293198_);fill:#2B2961;}
	.st30{clip-path:url(#SVGID_00000059297559100211381340000016392876329077293198_);fill:#6796CF;}
	.st31{clip-path:url(#SVGID_00000142134317046613189450000009955176942536331665_);fill:#2B2961;}
	.st32{clip-path:url(#SVGID_00000031915077503058089170000012743572390026642865_);fill:#6796CF;}
	.st33{clip-path:url(#SVGID_00000031915077503058089170000012743572390026642865_);fill:#2B2961;}
	.st34{clip-path:url(#SVGID_00000132084769485839409210000002368962846970426500_);fill:#2B2961;}
	.st35{clip-path:url(#SVGID_00000132084769485839409210000002368962846970426500_);fill:#6796CF;}
	.st36{clip-path:url(#SVGID_00000119828938680426429960000016678539125469514625_);fill:#2B2961;}
	.st37{clip-path:url(#SVGID_00000025437862112638497400000008541554304724591255_);fill:#FFFFFF;}
	.st38{clip-path:url(#SVGID_00000025437862112638497400000008541554304724591255_);fill:#2B2961;}
	.st39{clip-path:url(#SVGID_00000151509063420564560030000005102379489857143703_);fill:#FFFFFF;}
	.st40{clip-path:url(#SVGID_00000151509063420564560030000005102379489857143703_);fill:#2B2961;}
	.st41{clip-path:url(#SVGID_00000035500798888806643420000007680353363348253111_);fill:#6796CF;}
	.st42{clip-path:url(#SVGID_00000035500798888806643420000007680353363348253111_);fill:#2B2961;}
	.st43{clip-path:url(#SVGID_00000072259244404985029290000013463440681244855195_);fill:#2B2961;}
	.st44{clip-path:url(#SVGID_00000119801612938530967690000006692245520606269077_);fill:#6796CF;}
	.st45{clip-path:url(#SVGID_00000119801612938530967690000006692245520606269077_);fill:#2B2961;}
	.st46{clip-path:url(#SVGID_00000074426672495432606030000001275534688226631348_);fill:#2B2961;}
	.st47{clip-path:url(#SVGID_00000016076998972076266980000010316913206349446556_);fill:#2B2961;}
	.st48{clip-path:url(#SVGID_00000016076998972076266980000010316913206349446556_);fill:#6796CF;}
	.st49{clip-path:url(#SVGID_00000062164318342369796890000003148687031904438410_);fill:#2B2961;}
	.st50{clip-path:url(#SVGID_00000150082672267695196640000015175546622805786256_);fill:#2B2961;}
	.st51{clip-path:url(#SVGID_00000062182754255695140750000017341126959149620401_);fill:#2B2961;}
	.st52{clip-path:url(#SVGID_00000062182754255695140750000017341126959149620401_);fill:#6796CF;}
	.st53{clip-path:url(#SVGID_00000139278001678410080730000016624007974349671326_);fill:#2B2961;}
	.st54{clip-path:url(#SVGID_00000031899737438719770340000009368892668751843722_);fill:#2B2961;}
	.st55{clip-path:url(#SVGID_00000128473093114017584700000003963748330009336707_);fill:#2B2961;}
	.st56{clip-path:url(#SVGID_00000165932782464809582760000009551734146816384667_);fill:#2B2961;}
	.st57{clip-path:url(#SVGID_00000000919456654738497260000006192654261286788739_);fill:#6796CF;}
	.st58{clip-path:url(#SVGID_00000055698770370892708420000010038204293884455064_);fill:#2B2961;}
	.st59{clip-path:url(#SVGID_00000008841306693667316240000011792032519314998427_);fill:#2B2961;}
	.st60{clip-path:url(#SVGID_00000073002500870249400610000018106838824862822281_);fill:#6796CF;}
	.st61{clip-path:url(#SVGID_00000170969644007956912960000016073631450627857075_);fill:#2B2961;}
	.st62{clip-path:url(#SVGID_00000075855767573570133670000005834412065775456175_);fill:#2B2961;}
	.st63{clip-path:url(#SVGID_00000075855767573570133670000005834412065775456175_);fill:#6796CF;}
	.st64{clip-path:url(#SVGID_00000134227229657817940240000013696284267414372012_);fill:#2B2961;}
	.st65{clip-path:url(#SVGID_00000052796927550461465130000009581292675435810189_);fill:#6796CF;}
	.st66{clip-path:url(#SVGID_00000052796927550461465130000009581292675435810189_);fill:#2B2961;}
	.st67{clip-path:url(#SVGID_00000105398641028382075440000014625964680951991438_);fill:#2B2961;}
	.st68{clip-path:url(#SVGID_00000183214402146188473910000002330278109565536653_);fill:#2B2961;}
	.st69{clip-path:url(#SVGID_00000183214402146188473910000002330278109565536653_);fill:#6796CF;}
	.st70{clip-path:url(#SVGID_00000083050749739921690890000017187368508371267484_);fill:#2B2961;}
	.st71{clip-path:url(#SVGID_00000004514567064489692600000012700205615730206141_);fill:#2B2961;}
	.st72{clip-path:url(#SVGID_00000132078412456879591900000009245989381134734728_);fill:#2B2961;}
	.st73{clip-path:url(#SVGID_00000132078412456879591900000009245989381134734728_);fill:#6796CF;}
	.st74{clip-path:url(#SVGID_00000112628374537806860410000015610913140262683027_);fill:#2B2961;}
	.st75{clip-path:url(#SVGID_00000013174535190366001090000011333584969505977775_);fill:#2B2961;}
	.st76{clip-path:url(#SVGID_00000170981586577508397380000012380777048651007393_);fill:#2B2961;}
	.st77{clip-path:url(#SVGID_00000067923160163180594390000017709744919159969159_);fill:#2B2961;}
	.st78{clip-path:url(#SVGID_00000036244258911131850440000010664220182466477710_);fill:#6796CF;}
	.st79{clip-path:url(#SVGID_00000036244258911131850440000010664220182466477710_);fill:#2B2961;}
	.st80{clip-path:url(#SVGID_00000178898237034208625870000004567526411802462597_);fill:#FFFFFF;}
	.st81{clip-path:url(#SVGID_00000178898237034208625870000004567526411802462597_);fill:#2B2961;}
	.st82{clip-path:url(#SVGID_00000070825965574165034230000015085121609742744763_);fill:#2B2961;}
	.st83{clip-path:url(#SVGID_00000150086281452724694030000010436593333574155655_);fill:#2B2961;}
	.st84{clip-path:url(#SVGID_00000150086281452724694030000010436593333574155655_);fill:#6796CF;}
	.st85{clip-path:url(#SVGID_00000136395942123919698470000013226996097748362412_);fill:#2B2961;}
	.st86{clip-path:url(#SVGID_00000019637691970065137380000009438618690098043274_);fill:#2B2961;}
	.st87{clip-path:url(#SVGID_00000019637691970065137380000009438618690098043274_);fill:#FFFFFF;}
	.st88{clip-path:url(#SVGID_00000129903286719779487710000017787894447247989669_);fill:#6796CF;}
	.st89{clip-path:url(#SVGID_00000129903286719779487710000017787894447247989669_);fill:#2B2961;}
	.st90{clip-path:url(#SVGID_00000046303258038342135330000016009670677798761110_);fill:#2B2961;}
	.st91{clip-path:url(#SVGID_00000083777897616764735320000009374104689349244856_);fill:#2B2961;}
	.st92{clip-path:url(#SVGID_00000083777897616764735320000009374104689349244856_);fill:#6796CF;}
	.st93{clip-path:url(#SVGID_00000013872652051844599650000008010617550187748258_);fill:#2B2961;}
	.st94{clip-path:url(#SVGID_00000013872652051844599650000008010617550187748258_);fill:#FFFFFF;}
	.st95{clip-path:url(#SVGID_00000032629193860411615820000010021194010560628898_);fill:#6796CF;}
	.st96{clip-path:url(#SVGID_00000032629193860411615820000010021194010560628898_);fill:#2B2961;}
	.st97{clip-path:url(#SVGID_00000032629193860411615820000010021194010560628898_);fill:#FFFFFF;}
	.st98{clip-path:url(#SVGID_00000042735559663163282090000006416653697701580166_);fill:#2B2961;}
	.st99{clip-path:url(#SVGID_00000042735559663163282090000006416653697701580166_);fill:#6796CF;}
	.st100{clip-path:url(#SVGID_00000109026231115192374680000009387577685038269587_);fill:#2B2961;}
	.st101{clip-path:url(#SVGID_00000039853281461603065470000015428060023390612155_);fill:#2B2961;}
	.st102{clip-path:url(#SVGID_00000060728247930935782830000013425498102506774913_);fill:#2B2961;}
	.st103{clip-path:url(#SVGID_00000072273019687565001500000007515858013564204979_);fill:#2B2961;}
	.st104{clip-path:url(#SVGID_00000100363425257248894650000015424374905980441495_);fill:#2B2961;}
	.st105{clip-path:url(#SVGID_00000045606400127737603030000009371489356175879857_);fill:#FFFFFF;}
	.st106{clip-path:url(#SVGID_00000045606400127737603030000009371489356175879857_);fill:#2B2961;}
	.st107{clip-path:url(#SVGID_00000045606400127737603030000009371489356175879857_);fill:#6796CF;}
	.st108{clip-path:url(#SVGID_00000111191478781996129420000004762016204733833140_);fill:#FFFFFF;}
	.st109{clip-path:url(#SVGID_00000090294931612269823160000017462279254515092361_);fill:#2B2961;}
	.st110{clip-path:url(#SVGID_00000090294931612269823160000017462279254515092361_);fill:#FFFFFF;}
	.st111{clip-path:url(#SVGID_00000040532741668250859790000018180657800116893839_);fill:#2B2961;}
	.st112{clip-path:url(#SVGID_00000075879856061194792560000007366351651706379676_);fill:#2B2961;}
	.st113{clip-path:url(#SVGID_00000075879856061194792560000007366351651706379676_);fill:#6796CF;}
	.st114{clip-path:url(#SVGID_00000007394665291812501070000005432133538629419955_);fill:#2B2961;}
	.st115{clip-path:url(#SVGID_00000027578425090047194590000007595733020014717331_);fill:#2B2961;}
	.st116{clip-path:url(#SVGID_00000027578425090047194590000007595733020014717331_);fill:#FFFFFF;}
	.st117{clip-path:url(#SVGID_00000087387881693545634900000001889209892265090723_);fill:#6796CF;}
	.st118{clip-path:url(#SVGID_00000018932813934816122330000008820369490334731159_);fill:#2B2961;}
	.st119{clip-path:url(#SVGID_00000051360734574524393890000001154381575578531245_);fill:#2B2961;}
	.st120{clip-path:url(#SVGID_00000159448692655497165720000000852567115150933909_);fill:#FFFFFF;}
	.st121{clip-path:url(#SVGID_00000159448692655497165720000000852567115150933909_);fill:#2B2961;}
	.st122{clip-path:url(#SVGID_00000068665345111142998480000009297567849185436605_);fill:#FFFFFF;}
	.st123{clip-path:url(#SVGID_00000068665345111142998480000009297567849185436605_);fill:#2B2961;}
	.st124{clip-path:url(#SVGID_00000054956724762272003210000007706249484611025578_);fill:#6796CF;}
	.st125{clip-path:url(#SVGID_00000054956724762272003210000007706249484611025578_);fill:#2B2961;}
	.st126{clip-path:url(#SVGID_00000167362817226484718040000016792969967907765382_);fill:#2B2961;}
	.st127{clip-path:url(#SVGID_00000167362817226484718040000016792969967907765382_);fill:#6796CF;}
	.st128{clip-path:url(#SVGID_00000094579330841909787740000005152180145686083510_);fill:#6796CF;}
	.st129{clip-path:url(#SVGID_00000077285110592106849000000006464102469196252566_);fill:#2B2961;}
	.st130{clip-path:url(#SVGID_00000178172038949765246210000000919307001902168234_);fill:#2B2961;}
	.st131{clip-path:url(#SVGID_00000072968168235330504930000006448941154204644539_);fill:#2B2961;}
	.st132{clip-path:url(#SVGID_00000023271101832080626560000014092276460155669685_);fill:#2B2961;}
	.st133{clip-path:url(#SVGID_00000058565173685244798800000006059312109102261935_);fill:#2B2961;}
	.st134{clip-path:url(#SVGID_00000058565173685244798800000006059312109102261935_);fill:#6796CF;}
	.st135{clip-path:url(#SVGID_00000006689148181334891640000014662201139628638595_);fill:#6796CF;}
	.st136{clip-path:url(#SVGID_00000113323806327667295460000006243996545748485780_);fill:#2B2961;}
	.st137{clip-path:url(#SVGID_00000066509706762535602910000011055802219989323433_);fill:#2B2961;}
	.st138{clip-path:url(#SVGID_00000034786789084023775300000013197121815604906156_);fill:#2B2961;}
	.st139{clip-path:url(#SVGID_00000108996475601476363580000002615979714974665872_);fill:#2B2961;}
	.st140{clip-path:url(#SVGID_00000125593503630607040240000013282424276071513226_);fill:#6796CF;}
	.st141{clip-path:url(#SVGID_00000125593503630607040240000013282424276071513226_);fill:#2B2961;}
	.st142{clip-path:url(#SVGID_00000042712256494094223360000015701808055836218534_);fill:#2B2961;}
	.st143{clip-path:url(#SVGID_00000039123561943433764090000005952283395235339921_);fill:#2B2961;}
	.st144{clip-path:url(#SVGID_00000022524964761391414520000008498984973303560836_);fill:#2B2961;}
	.st145{clip-path:url(#SVGID_00000022524964761391414520000008498984973303560836_);fill:#6796CF;}
	.st146{clip-path:url(#SVGID_00000097480394891562388510000010422895847749652398_);}
	.st147{clip-path:url(#SVGID_00000097480394891562388510000010422895847749652398_);fill:#FFFFFF;}
	.st148{clip-path:url(#SVGID_00000097480394891562388510000010422895847749652398_);fill:#2B2961;}
	.st149{clip-path:url(#SVGID_00000093144009834628333530000000520331996881037699_);fill:#2B2961;}
	.st150{clip-path:url(#SVGID_00000013906695504929571580000010325642541494032303_);fill:#2B2961;}
	.st151{clip-path:url(#SVGID_00000013906695504929571580000010325642541494032303_);fill:#FFFFFF;}
	.st152{clip-path:url(#SVGID_00000013906695504929571580000010325642541494032303_);fill:#6796CF;}
	.st153{clip-path:url(#SVGID_00000107563466154200016320000014059672809676056765_);fill:#2B2961;}
	.st154{clip-path:url(#SVGID_00000065777114476201398270000008646535657944716456_);fill:#2B2961;}
	.st155{clip-path:url(#SVGID_00000096766119981516419390000008308408066422605462_);fill:#6796CF;}
	.st156{clip-path:url(#SVGID_00000096766119981516419390000008308408066422605462_);}
	.st157{clip-path:url(#SVGID_00000119819246854402702290000015077937031352691591_);fill:#2B2961;}
	.st158{clip-path:url(#SVGID_00000096766119981516419390000008308408066422605462_);fill:#FFFFFF;}
	.st159{clip-path:url(#SVGID_00000096766119981516419390000008308408066422605462_);fill:#2B2961;}
	.st160{opacity:0.52;clip-path:url(#SVGID_00000166637886383653357650000003792112574326901918_);}
	.st161{clip-path:url(#SVGID_00000046321404304034762250000013362728462229782708_);fill:#6796CF;}
	.st162{clip-path:url(#SVGID_00000156563480459453466590000013984864767600940680_);fill:#2B2961;}
	.st163{clip-path:url(#SVGID_00000120516824608824803230000016268832759332787899_);fill:#2B2961;}
	.st164{clip-path:url(#SVGID_00000120560767290650707590000003461206902414314420_);fill:#6796CF;}
	.st165{clip-path:url(#SVGID_00000120560767290650707590000003461206902414314420_);fill:#2B2961;}
	.st166{clip-path:url(#SVGID_00000070799444948411458950000007865420750925683590_);fill:#2B2961;}
	.st167{clip-path:url(#SVGID_00000004505657484670441050000013496391453302765184_);fill:#2B2961;}
	.st168{clip-path:url(#SVGID_00000155146975996650969870000002494826847598846092_);fill:#2B2961;}
	.st169{clip-path:url(#SVGID_00000065755227995409092420000010754897753865273734_);fill:#FFFFFF;}
	.st170{clip-path:url(#SVGID_00000065755227995409092420000010754897753865273734_);fill:#2B2961;}
	.st171{clip-path:url(#SVGID_00000065755227995409092420000010754897753865273734_);fill:#6796CF;}
	.st172{clip-path:url(#SVGID_00000139284507626527536640000001265272277409099197_);fill:#6796CF;}
	.st173{clip-path:url(#SVGID_00000002384453145502465600000018250629859018240147_);fill:#2B2961;}
	.st174{clip-path:url(#SVGID_00000095340036592192748040000002975215731198374550_);fill:#2B2961;}
	.st175{clip-path:url(#SVGID_00000095340036592192748040000002975215731198374550_);fill:#FFFFFF;}
	.st176{clip-path:url(#SVGID_00000152222874669664003880000015822508164837733254_);fill:#6796CF;}
	.st177{clip-path:url(#SVGID_00000152222874669664003880000015822508164837733254_);fill:#2B2961;}
	.st178{clip-path:url(#SVGID_00000148646414610361257720000008237666133380891051_);fill:#6796CF;}
	.st179{clip-path:url(#SVGID_00000148646414610361257720000008237666133380891051_);fill:#2B2961;}
	.st180{clip-path:url(#SVGID_00000082329565594026021130000009147504826697911449_);fill:#2B2961;}
	.st181{clip-path:url(#SVGID_00000073679783955022916120000005669193911218505104_);fill:#2B2961;}
	.st182{clip-path:url(#SVGID_00000064353542164491624460000008632150104510529444_);fill:#FFFFFF;}
	.st183{clip-path:url(#SVGID_00000100375227649949750010000006118635696453687453_);fill:#2B2961;}
	.st184{clip-path:url(#SVGID_00000101090651282074437600000012238159275715238544_);fill:#2B2961;}
	.st185{clip-path:url(#SVGID_00000101090651282074437600000012238159275715238544_);fill:#6796CF;}
	.st186{clip-path:url(#SVGID_00000131327192036245280280000016884097626730275762_);fill:#2B2961;}
	.st187{clip-path:url(#SVGID_00000091733858239270183110000005089189224485739677_);fill:#2B2961;}
	.st188{clip-path:url(#SVGID_00000005265227376374785660000004540473187109533068_);fill:#6796CF;}
	.st189{clip-path:url(#SVGID_00000028286415195983247720000011006234843775547524_);fill:#2B2961;}
	.st190{clip-path:url(#SVGID_00000148654510799543597600000008003007595507282576_);fill:#6796CF;}
	.st191{clip-path:url(#SVGID_00000092448455007508006170000015967318522578420911_);fill:#2B2961;}
	.st192{clip-path:url(#SVGID_00000047052600806300615030000000919937453295052968_);fill:#6796CF;}
	.st193{clip-path:url(#SVGID_00000028287239699252603890000009448446499003900579_);fill:#2B2961;}
	.st194{clip-path:url(#SVGID_00000166647796128639087480000006648597352959323820_);}
	.st195{clip-path:url(#SVGID_00000166647796128639087480000006648597352959323820_);fill:#2B2961;}
	.st196{clip-path:url(#SVGID_00000166647796128639087480000006648597352959323820_);fill:#FFFFFF;}
	.st197{clip-path:url(#SVGID_00000082339897281883086070000008611470282519284926_);fill:#2B2961;}
	.st198{clip-path:url(#SVGID_00000163786338790676168080000002887657181177448127_);fill:#2B2961;}
	.st199{clip-path:url(#SVGID_00000175280497892861455880000017462012847890600594_);fill:#2B2961;}
	.st200{clip-path:url(#SVGID_00000045591577825868904340000009893496080473694885_);fill:#2B2961;}
	.st201{clip-path:url(#SVGID_00000016053253479499348340000007804969453557190820_);fill:#2B2961;}
	.st202{clip-path:url(#SVGID_00000071545839651500092930000000030532953497909892_);fill:#2B2961;}
	.st203{clip-path:url(#SVGID_00000061471950588799978970000001116580067365405350_);fill:#2B2961;}
	.st204{clip-path:url(#SVGID_00000116916781670288904950000018204118282406002307_);fill:#2B2961;}
	.st205{clip-path:url(#SVGID_00000174568291517451595700000006081868729647310010_);fill:#2B2961;}
	.st206{clip-path:url(#SVGID_00000143607386177718612340000006744323733362959761_);fill:#FFFFFF;}
	.st207{clip-path:url(#SVGID_00000143607386177718612340000006744323733362959761_);fill:#2B2961;}
	.st208{clip-path:url(#SVGID_00000064318218930847687050000012898873542576950972_);fill:#6796CF;}
	.st209{clip-path:url(#SVGID_00000064318218930847687050000012898873542576950972_);fill:#2B2961;}
	.st210{clip-path:url(#SVGID_00000125573643221539794610000001222740965454777750_);fill:#2B2961;}
	.st211{clip-path:url(#SVGID_00000125573643221539794610000001222740965454777750_);fill:#FFFFFF;}
	.st212{clip-path:url(#SVGID_00000145776699670097916350000008771521536244506758_);fill:#6796CF;}
	.st213{clip-path:url(#SVGID_00000145776699670097916350000008771521536244506758_);fill:#2B2961;}
	.st214{clip-path:url(#SVGID_00000120543475767370550050000004735924091625856132_);fill:#6796CF;}
	.st215{clip-path:url(#SVGID_00000120543475767370550050000004735924091625856132_);fill:#2B2961;}
	.st216{clip-path:url(#SVGID_00000059282918195455249160000016095684116558794169_);}
	.st217{clip-path:url(#SVGID_00000033359210828304261430000003356085114482216090_);}
	.st218{clip-path:url(#SVGID_00000120537860356086827740000005686542065252816517_);}
	.st219{clip-path:url(#SVGID_00000063626445298122611640000004183145206945583800_);}
	.st220{clip-path:url(#SVGID_00000163044640407304386050000015077566524753358466_);}
	.st221{clip-path:url(#SVGID_00000132059730898406811470000003433554954903576718_);}
	.st222{clip-path:url(#SVGID_00000045588105142730975450000003914728434396293525_);}
	.st223{clip-path:url(#SVGID_00000047743144321444620610000012016655679530867087_);}
	.st224{clip-path:url(#SVGID_00000078032754743447912080000015238487598001747599_);}
	.st225{clip-path:url(#SVGID_00000070819883361288389920000014642070038595546539_);}
	.st226{clip-path:url(#SVGID_00000158017571800714861590000000692802837307420317_);}
	.st227{clip-path:url(#SVGID_00000147182726699275655580000016351182383870089906_);}
	.st228{clip-path:url(#SVGID_00000115479258497583350050000016892164056767386557_);}
	.st229{clip-path:url(#SVGID_00000012450702062028367430000000713467257268365757_);}
	.st230{clip-path:url(#SVGID_00000105387194963035459220000005903481213607588743_);fill:#2B2961;}
	.st231{clip-path:url(#SVGID_00000105387194963035459220000005903481213607588743_);fill:#6796CF;}
	.st232{fill:#A2B9E1;}
	.st233{clip-path:url(#SVGID_00000071549562965618946260000011374739225998373803_);}
	.st234{clip-path:url(#SVGID_00000174567975814817460620000008667430278212172187_);}
</style>
<g>
	<g>
		<defs>
			<rect id="SVGID_00000165206455294889305940000003691400785531410836_" width="76.02" height="75.42"/>
		</defs>
		<clipPath id="SVGID_00000121237327071569704790000017959630048200514743_">
			<use xlink:href="#SVGID_00000165206455294889305940000003691400785531410836_"  style="overflow:visible;"/>
		</clipPath>
		<path style="clip-path:url(#SVGID_00000121237327071569704790000017959630048200514743_);fill:#6796CF;" d="M73.17,37.71
			c0,19.03-15.43,34.47-34.47,34.47c-19.03,0-34.47-15.43-34.47-34.47c0-19.03,15.43-34.47,34.47-34.47
			C57.74,3.24,73.17,18.68,73.17,37.71 M76.02,37.71c0-20.61-16.71-37.32-37.32-37.32C18.09,0.39,1.38,17.1,1.38,37.71
			S18.09,75.03,38.7,75.03C59.31,75.03,76.02,58.32,76.02,37.71"/>
		<path style="clip-path:url(#SVGID_00000121237327071569704790000017959630048200514743_);fill:#2B2961;" d="M37.71,72.56
			c-19.22,0-34.85-15.63-34.85-34.85S18.49,2.86,37.71,2.86s34.85,15.63,34.85,34.85S56.93,72.56,37.71,72.56z M37.71,3.46
			c-18.89,0-34.25,15.37-34.25,34.25s15.37,34.25,34.25,34.25S71.96,56.6,71.96,37.71S56.6,3.46,37.71,3.46z"/>
	</g>
	<path class="st8" d="M37.71,8.63c-0.17,0-0.3-0.13-0.3-0.3V3.14c0-0.17,0.13-0.3,0.3-0.3s0.3,0.13,0.3,0.3v5.19
		C38.01,8.5,37.88,8.63,37.71,8.63z"/>
	<path class="st8" d="M37.71,72.58c-0.17,0-0.3-0.13-0.3-0.3v-5.19c0-0.17,0.13-0.3,0.3-0.3s0.3,0.13,0.3,0.3v5.19
		C38.01,72.44,37.88,72.58,37.71,72.58z"/>
	<path class="st8" d="M72.28,38.01h-5.19c-0.17,0-0.3-0.13-0.3-0.3s0.13-0.3,0.3-0.3h5.19c0.17,0,0.3,0.13,0.3,0.3
		S72.44,38.01,72.28,38.01z"/>
	<path class="st8" d="M8.33,38.01H3.14c-0.17,0-0.3-0.13-0.3-0.3s0.13-0.3,0.3-0.3h5.19c0.17,0,0.3,0.13,0.3,0.3
		S8.5,38.01,8.33,38.01z"/>
	<path class="st8" d="M12.41,23.14c-0.05,0-0.11-0.01-0.16-0.04l-4.5-2.72c-0.14-0.09-0.19-0.27-0.1-0.41
		c0.09-0.14,0.27-0.19,0.41-0.1l4.5,2.72c0.14,0.09,0.19,0.27,0.1,0.41C12.61,23.09,12.51,23.14,12.41,23.14z"/>
	<path class="st8" d="M67.51,55.6c-0.05,0-0.11-0.01-0.16-0.04l-4.5-2.72c-0.14-0.09-0.19-0.27-0.1-0.41
		c0.09-0.14,0.27-0.19,0.41-0.1l4.5,2.72c0.14,0.09,0.19,0.27,0.1,0.41C67.71,55.54,67.61,55.6,67.51,55.6z"/>
	<path class="st8" d="M52.58,12.71c-0.05,0-0.11-0.01-0.16-0.04c-0.14-0.09-0.19-0.27-0.1-0.41l2.72-4.5
		c0.09-0.14,0.27-0.19,0.41-0.1c0.14,0.09,0.19,0.27,0.1,0.41l-2.72,4.5C52.78,12.66,52.68,12.71,52.58,12.71z"/>
	<path class="st8" d="M20.12,67.81c-0.05,0-0.11-0.01-0.16-0.04c-0.14-0.09-0.19-0.27-0.1-0.41l2.72-4.5
		c0.09-0.14,0.27-0.19,0.41-0.1c0.14,0.09,0.19,0.27,0.1,0.41l-2.72,4.5C20.32,67.75,20.23,67.81,20.12,67.81z"/>
	<path class="st8" d="M7.54,54.94c-0.1,0-0.2-0.05-0.26-0.15c-0.08-0.14-0.03-0.33,0.11-0.41l4.55-2.62
		c0.14-0.08,0.33-0.03,0.41,0.11s0.03,0.33-0.11,0.41L7.69,54.9C7.64,54.93,7.59,54.94,7.54,54.94z"/>
	<path class="st8" d="M63.33,23.7c-0.1,0-0.2-0.05-0.26-0.15c-0.08-0.14-0.03-0.33,0.11-0.41l4.55-2.62
		c0.14-0.08,0.33-0.03,0.41,0.11c0.08,0.14,0.03,0.33-0.11,0.41l-4.55,2.62C63.43,23.69,63.38,23.7,63.33,23.7z"/>
	<path class="st8" d="M23.4,12.39c-0.1,0-0.2-0.05-0.26-0.15l-2.62-4.55c-0.08-0.14-0.03-0.33,0.11-0.41
		c0.14-0.08,0.33-0.03,0.41,0.11l2.62,4.55c0.08,0.14,0.03,0.33-0.11,0.41C23.5,12.38,23.45,12.39,23.4,12.39z"/>
	<path class="st8" d="M54.64,68.18c-0.1,0-0.2-0.05-0.26-0.15l-2.62-4.55c-0.08-0.14-0.03-0.33,0.11-0.41
		c0.14-0.08,0.33-0.03,0.41,0.11l2.62,4.55c0.08,0.14,0.03,0.33-0.11,0.41C54.75,68.17,54.69,68.18,54.64,68.18z"/>
	<g>
		<defs>
			<rect id="SVGID_00000131366025373666906660000005162109663550714524_" width="76.02" height="75.42"/>
		</defs>
		<clipPath id="SVGID_00000132048129224270819190000010754418515432247438_">
			<use xlink:href="#SVGID_00000131366025373666906660000005162109663550714524_"  style="overflow:visible;"/>
		</clipPath>
		<path style="clip-path:url(#SVGID_00000132048129224270819190000010754418515432247438_);fill:#6796CF;" d="M38.39,17.61
			l-0.07-1.39c0-0.01,0-0.72,0-0.73c0-0.51,0.42-0.91-0.09-0.91s-0.93,0.42-0.93,0.93c0,0.01,0,0.01,0,0.02h0l0.15,21.85l1.1-0.07
			L38.39,17.61z"/>
		<path style="clip-path:url(#SVGID_00000132048129224270819190000010754418515432247438_);fill:#2B2961;" d="M38.68,37.71h-1.86
			v-0.3c0-7.79,0-15.58,0.01-23.38l-0.01-0.3c0-0.52,0.42-0.94,0.93-0.94c0.25,0,0.48,0.1,0.66,0.27c0.18,0.18,0.27,0.42,0.27,0.67
			l0,0.3V37.71z M37.42,37.11h0.66l0-23.37c0-0.1-0.03-0.19-0.1-0.25c-0.19-0.19-0.56-0.03-0.56,0.24l0.01,0.3
			C37.42,21.72,37.42,29.42,37.42,37.11z"/>
		<path style="clip-path:url(#SVGID_00000132048129224270819190000010754418515432247438_);fill:#6796CF;" d="M43.05,47.77
			l0.76,1.16c0,0.01,0.36,0.63,0.37,0.63c0.26,0.44,0.09,0.99,0.53,0.74c0.44-0.26,0.6-0.83,0.34-1.27c0-0.01-0.01-0.01-0.01-0.01
			l0,0l-6.26-10.6l-1.07,0.61L43.05,47.77z"/>
		<path style="clip-path:url(#SVGID_00000132048129224270819190000010754418515432247438_);fill:#2B2961;" d="M45.28,51.7
			c-0.08,0-0.16-0.01-0.24-0.03c-0.25-0.07-0.45-0.23-0.57-0.45l-1.09-1.86l-6.16-10.58l1.61-0.93l0.15,0.26
			c2.32,3.98,4.63,7.95,6.94,11.93l0.16,0.26c0.13,0.22,0.16,0.47,0.1,0.71c-0.06,0.24-0.22,0.44-0.43,0.57
			C45.6,51.66,45.44,51.7,45.28,51.7z M44.84,50.66l0.16,0.26c0.05,0.09,0.12,0.15,0.21,0.17c0.08,0.02,0.17,0.01,0.25-0.03
			c0.08-0.04,0.13-0.11,0.15-0.2c0.02-0.09,0.01-0.17-0.03-0.25l-0.16-0.26c-2.26-3.9-4.53-7.79-6.79-11.68L38.05,39L44.84,50.66z"
			/>
		<path style="clip-path:url(#SVGID_00000132048129224270819190000010754418515432247438_);fill:#2B2961;" d="M37.71,39.35
			c0.9,0,1.64-0.73,1.64-1.64c0-0.9-0.73-1.64-1.64-1.64c-0.9,0-1.64,0.73-1.64,1.64C36.07,38.61,36.81,39.35,37.71,39.35"/>
		<path style="clip-path:url(#SVGID_00000132048129224270819190000010754418515432247438_);fill:#2B2961;" d="M37.71,75.42
			C16.92,75.42,0,58.5,0,37.71C0,16.92,16.92,0,37.71,0s37.71,16.92,37.71,37.71C75.42,58.5,58.5,75.42,37.71,75.42z M37.71,0.6
			C17.25,0.6,0.6,17.25,0.6,37.71c0,20.46,16.65,37.11,37.11,37.11s37.11-16.65,37.11-37.11C74.82,17.25,58.17,0.6,37.71,0.6z"/>
	</g>
</g>
</svg>
