<?xml version="1.0" encoding="utf-8"?>
<!-- Generator: Adobe Illustrator 26.0.2, SVG Export Plug-In . SVG Version: 6.00 Build 0)  -->
<svg version="1.1" id="Ebene_1" xmlns="http://www.w3.org/2000/svg" xmlns:xlink="http://www.w3.org/1999/xlink" x="0px" y="0px"
	 viewBox="0 0 235.51 61.92" style="enable-background:new 0 0 235.51 61.92;" xml:space="preserve">
<style type="text/css">
	.st0{clip-path:url(#SVGID_00000008830848877174444320000008268615063407980975_);fill:#6796CF;}
	.st1{clip-path:url(#SVGID_00000008830848877174444320000008268615063407980975_);fill:#2B2961;}
	.st2{fill:#6796CF;}
	.st3{clip-path:url(#SVGID_00000114033200431323821770000017322465392251822268_);fill:#2B2961;}
	.st4{fill:#FFFFFF;}
	.st5{clip-path:url(#SVGID_00000106140371668399530020000010012861592270620312_);fill:#2B2961;}
	.st6{clip-path:url(#SVGID_00000014593213897795596340000013905304570395690148_);fill:#2B2961;}
	.st7{clip-path:url(#SVGID_00000090999489256794346890000014014038347843505026_);fill:#2B2961;}
	.st8{fill:#2B2961;}
	.st9{clip-path:url(#SVGID_00000146486808328942138740000010290138450063670207_);fill:#6796CF;}
	.st10{clip-path:url(#SVGID_00000146486808328942138740000010290138450063670207_);fill:#2B2961;}
	.st11{clip-path:url(#SVGID_00000101815629582219486030000000009370961169023888_);fill:#2B2961;}
	.st12{clip-path:url(#SVGID_00000003062477066074411700000009794132409756377769_);fill:#2B2961;}
	.st13{clip-path:url(#SVGID_00000003062477066074411700000009794132409756377769_);fill:#6796CF;}
	.st14{clip-path:url(#SVGID_00000026153263459117600940000007413566672108483215_);fill:#2B2961;}
	.st15{clip-path:url(#SVGID_00000163753206957897366820000009880252300136409003_);fill:#2B2961;}
	.st16{clip-path:url(#SVGID_00000084499220729429974190000006542700456219954310_);fill:#2B2961;}
	.st17{clip-path:url(#SVGID_00000084499220729429974190000006542700456219954310_);fill:#6796CF;}
	.st18{clip-path:url(#SVGID_00000003069145960145392010000016796981643940070067_);fill:#2B2961;}
	.st19{clip-path:url(#SVGID_00000021090248096163867600000013775002388566072707_);fill:#2B2961;}
	.st20{clip-path:url(#SVGID_00000142871867220458485950000010421909747777740687_);fill:#2B2961;}
	.st21{clip-path:url(#SVGID_00000103265523076181182440000015256848306313616523_);fill:#2B2961;}
	.st22{clip-path:url(#SVGID_00000056388240211833376930000005027501420075388552_);fill:#6796CF;}
	.st23{clip-path:url(#SVGID_00000056388240211833376930000005027501420075388552_);fill:#2B2961;}
	.st24{clip-path:url(#SVGID_00000052785344141587800500000004598457229526725279_);fill:#2B2961;}
	.st25{clip-path:url(#SVGID_00000051344158462511166980000018368513109206163337_);fill:#2B2961;}
	.st26{clip-path:url(#SVGID_00000051344158462511166980000018368513109206163337_);fill:#6796CF;}
	.st27{clip-path:url(#SVGID_00000176001987210481941470000008570182576484965813_);fill:#2B2961;}
	.st28{clip-path:url(#SVGID_00000041976684411153440050000012036583069668778674_);fill:#2B2961;}
	.st29{clip-path:url(#SVGID_00000024702452013500201170000006958472604065440914_);fill:#2B2961;}
	.st30{clip-path:url(#SVGID_00000024702452013500201170000006958472604065440914_);fill:#6796CF;}
	.st31{clip-path:url(#SVGID_00000101090409542551735190000007695551296740600233_);fill:#2B2961;}
	.st32{clip-path:url(#SVGID_00000102544284657466252440000013931559981185679531_);fill:#6796CF;}
	.st33{clip-path:url(#SVGID_00000102544284657466252440000013931559981185679531_);fill:#2B2961;}
	.st34{clip-path:url(#SVGID_00000027583282931183160840000012485187471558755468_);fill:#2B2961;}
	.st35{clip-path:url(#SVGID_00000027583282931183160840000012485187471558755468_);fill:#6796CF;}
	.st36{clip-path:url(#SVGID_00000119829907349382079830000000054365029299890078_);fill:#2B2961;}
	.st37{clip-path:url(#SVGID_00000076598820405945591310000007080346431049932960_);fill:#FFFFFF;}
	.st38{clip-path:url(#SVGID_00000076598820405945591310000007080346431049932960_);fill:#2B2961;}
	.st39{clip-path:url(#SVGID_00000122687898690859699100000008729476389044094346_);fill:#FFFFFF;}
	.st40{clip-path:url(#SVGID_00000122687898690859699100000008729476389044094346_);fill:#2B2961;}
	.st41{clip-path:url(#SVGID_00000111890735685401588100000008275951782968324508_);fill:#6796CF;}
	.st42{clip-path:url(#SVGID_00000111890735685401588100000008275951782968324508_);fill:#2B2961;}
	.st43{clip-path:url(#SVGID_00000121988817405920131650000005517576778800402090_);fill:#2B2961;}
	.st44{clip-path:url(#SVGID_00000006695394748938710900000000825281126833628051_);fill:#6796CF;}
	.st45{clip-path:url(#SVGID_00000006695394748938710900000000825281126833628051_);fill:#2B2961;}
	.st46{clip-path:url(#SVGID_00000062191048141531231620000013786145493276811687_);fill:#2B2961;}
	.st47{clip-path:url(#SVGID_00000017512412251669871330000015870391384311571637_);fill:#2B2961;}
	.st48{clip-path:url(#SVGID_00000017512412251669871330000015870391384311571637_);fill:#6796CF;}
	.st49{clip-path:url(#SVGID_00000117648792953328497190000016865243937256458940_);fill:#2B2961;}
	.st50{clip-path:url(#SVGID_00000145745902996922805270000008790967252002629562_);fill:#2B2961;}
	.st51{clip-path:url(#SVGID_00000052822076846353941560000015142369249155518593_);fill:#2B2961;}
	.st52{clip-path:url(#SVGID_00000052822076846353941560000015142369249155518593_);fill:#6796CF;}
	.st53{clip-path:url(#SVGID_00000109731861809608701110000016501243459773075390_);fill:#2B2961;}
	.st54{clip-path:url(#SVGID_00000154406295268295823800000012877663858680437668_);fill:#2B2961;}
	.st55{clip-path:url(#SVGID_00000016791167950288762350000011704637086313864338_);fill:#2B2961;}
	.st56{clip-path:url(#SVGID_00000140699298640310463500000008350434539140832396_);fill:#2B2961;}
	.st57{clip-path:url(#SVGID_00000095329349118476811550000000168332603015461028_);fill:#6796CF;}
	.st58{clip-path:url(#SVGID_00000132078584473235711560000005275616067095515779_);fill:#2B2961;}
	.st59{clip-path:url(#SVGID_00000110431700883752463160000016699461330870414209_);fill:#2B2961;}
	.st60{clip-path:url(#SVGID_00000132067761932008890020000017786466053747639486_);fill:#6796CF;}
	.st61{clip-path:url(#SVGID_00000160175680382011603540000010445373177397205416_);fill:#2B2961;}
	.st62{clip-path:url(#SVGID_00000101080089740820439400000005125789445224190603_);fill:#2B2961;}
	.st63{clip-path:url(#SVGID_00000101080089740820439400000005125789445224190603_);fill:#6796CF;}
	.st64{clip-path:url(#SVGID_00000142870494522358093340000003437227584613544629_);fill:#2B2961;}
	.st65{clip-path:url(#SVGID_00000080204501883976841620000004477148469515542946_);fill:#6796CF;}
	.st66{clip-path:url(#SVGID_00000080204501883976841620000004477148469515542946_);fill:#2B2961;}
	.st67{clip-path:url(#SVGID_00000027569042405152059420000010535390595332497326_);fill:#2B2961;}
	.st68{clip-path:url(#SVGID_00000094578929558267718010000006186634470701554592_);fill:#2B2961;}
	.st69{clip-path:url(#SVGID_00000094578929558267718010000006186634470701554592_);fill:#6796CF;}
	.st70{clip-path:url(#SVGID_00000171714612663834923420000011577072611460449162_);fill:#2B2961;}
	.st71{clip-path:url(#SVGID_00000102534366919838747300000008365442641130833280_);fill:#2B2961;}
	.st72{clip-path:url(#SVGID_00000021803306666634014500000002143113956431997072_);fill:#2B2961;}
	.st73{clip-path:url(#SVGID_00000021803306666634014500000002143113956431997072_);fill:#6796CF;}
	.st74{clip-path:url(#SVGID_00000101101012300798892550000004774632571092423085_);fill:#2B2961;}
	.st75{clip-path:url(#SVGID_00000163058876601587039170000014205460455237033907_);fill:#2B2961;}
	.st76{clip-path:url(#SVGID_00000013164959906812335330000012887418844434645414_);fill:#2B2961;}
	.st77{clip-path:url(#SVGID_00000129895826992110646830000013427285599720119168_);fill:#2B2961;}
	.st78{clip-path:url(#SVGID_00000062180426794965835490000002770281322000799134_);fill:#6796CF;}
	.st79{clip-path:url(#SVGID_00000062180426794965835490000002770281322000799134_);fill:#2B2961;}
	.st80{clip-path:url(#SVGID_00000156552864328816029310000013715342870015731625_);fill:#FFFFFF;}
	.st81{clip-path:url(#SVGID_00000156552864328816029310000013715342870015731625_);fill:#2B2961;}
	.st82{clip-path:url(#SVGID_00000139266497579322034180000006250994603808139420_);fill:#2B2961;}
	.st83{clip-path:url(#SVGID_00000142172512214436107680000011130265138005725607_);fill:#2B2961;}
	.st84{clip-path:url(#SVGID_00000142172512214436107680000011130265138005725607_);fill:#6796CF;}
	.st85{clip-path:url(#SVGID_00000067955234921596704580000006959739340456560815_);fill:#2B2961;}
	.st86{clip-path:url(#SVGID_00000027591372994663087120000011874369548443075721_);fill:#2B2961;}
	.st87{clip-path:url(#SVGID_00000027591372994663087120000011874369548443075721_);fill:#FFFFFF;}
	.st88{clip-path:url(#SVGID_00000059277138646553466510000018054026569557523348_);fill:#6796CF;}
	.st89{clip-path:url(#SVGID_00000059277138646553466510000018054026569557523348_);fill:#2B2961;}
	.st90{clip-path:url(#SVGID_00000012467556347408839360000014056445524484756608_);fill:#2B2961;}
	.st91{clip-path:url(#SVGID_00000011735751618086797780000016282251160021124024_);fill:#2B2961;}
	.st92{clip-path:url(#SVGID_00000011735751618086797780000016282251160021124024_);fill:#6796CF;}
	.st93{clip-path:url(#SVGID_00000072250957343902134010000013268960492215127431_);fill:#2B2961;}
	.st94{clip-path:url(#SVGID_00000072250957343902134010000013268960492215127431_);fill:#FFFFFF;}
	.st95{clip-path:url(#SVGID_00000170974074751435423560000012508421777773384084_);fill:#6796CF;}
	.st96{clip-path:url(#SVGID_00000170974074751435423560000012508421777773384084_);fill:#2B2961;}
	.st97{clip-path:url(#SVGID_00000170974074751435423560000012508421777773384084_);fill:#FFFFFF;}
	.st98{clip-path:url(#SVGID_00000085209064252692129650000012217935812257196199_);fill:#2B2961;}
	.st99{clip-path:url(#SVGID_00000085209064252692129650000012217935812257196199_);fill:#6796CF;}
	.st100{clip-path:url(#SVGID_00000072983694765684313410000017468975204080848295_);fill:#2B2961;}
	.st101{clip-path:url(#SVGID_00000004530826873117471990000003587309414341561008_);fill:#2B2961;}
	.st102{clip-path:url(#SVGID_00000049189332185467907430000003790903614612123808_);fill:#2B2961;}
	.st103{clip-path:url(#SVGID_00000124163692476299108570000009072397245968427178_);fill:#2B2961;}
	.st104{clip-path:url(#SVGID_00000066501342699865930130000014653464929185906623_);fill:#2B2961;}
	.st105{clip-path:url(#SVGID_00000167362737010014107570000000987872796365767069_);fill:#FFFFFF;}
	.st106{clip-path:url(#SVGID_00000167362737010014107570000000987872796365767069_);fill:#2B2961;}
	.st107{clip-path:url(#SVGID_00000167362737010014107570000000987872796365767069_);fill:#6796CF;}
	.st108{clip-path:url(#SVGID_00000008144594294927961050000017953399211418938797_);fill:#FFFFFF;}
	.st109{clip-path:url(#SVGID_00000023993853978576930110000014943729300690739130_);fill:#2B2961;}
	.st110{clip-path:url(#SVGID_00000023993853978576930110000014943729300690739130_);fill:#FFFFFF;}
	.st111{clip-path:url(#SVGID_00000009584141549572729320000000555127619887685046_);fill:#2B2961;}
	.st112{clip-path:url(#SVGID_00000118361293411733394770000017610666465149356690_);fill:#2B2961;}
	.st113{clip-path:url(#SVGID_00000118361293411733394770000017610666465149356690_);fill:#6796CF;}
	.st114{clip-path:url(#SVGID_00000080928324932795690220000013034499558414554283_);fill:#2B2961;}
	.st115{clip-path:url(#SVGID_00000019671687590444926160000008693846006818076840_);fill:#2B2961;}
	.st116{clip-path:url(#SVGID_00000019671687590444926160000008693846006818076840_);fill:#FFFFFF;}
	.st117{clip-path:url(#SVGID_00000113315070209170830600000008003140755872937914_);fill:#6796CF;}
	.st118{clip-path:url(#SVGID_00000055697253324581045940000015279586555113875856_);fill:#2B2961;}
	.st119{clip-path:url(#SVGID_00000050629789756886819290000010116859784076424350_);fill:#2B2961;}
	.st120{clip-path:url(#SVGID_00000019675103348972829380000017856624986056282245_);fill:#FFFFFF;}
	.st121{clip-path:url(#SVGID_00000019675103348972829380000017856624986056282245_);fill:#2B2961;}
	.st122{clip-path:url(#SVGID_00000046327956757476948940000013536471454542131361_);fill:#FFFFFF;}
	.st123{clip-path:url(#SVGID_00000046327956757476948940000013536471454542131361_);fill:#2B2961;}
	.st124{clip-path:url(#SVGID_00000098930949507971807130000002168813428899974308_);fill:#6796CF;}
	.st125{clip-path:url(#SVGID_00000098930949507971807130000002168813428899974308_);fill:#2B2961;}
	.st126{clip-path:url(#SVGID_00000078034448116760171620000009013340031064800396_);fill:#2B2961;}
	.st127{clip-path:url(#SVGID_00000078034448116760171620000009013340031064800396_);fill:#6796CF;}
	.st128{clip-path:url(#SVGID_00000182527954135549940040000005642843572309988281_);fill:#6796CF;}
	.st129{clip-path:url(#SVGID_00000167354026492315989380000017582819510724287649_);fill:#2B2961;}
	.st130{clip-path:url(#SVGID_00000085958123630454090470000007741796534876704650_);fill:#2B2961;}
	.st131{clip-path:url(#SVGID_00000040572898738088647130000009468224430044909731_);fill:#2B2961;}
	.st132{clip-path:url(#SVGID_00000166659185066227428580000006480383579540096660_);fill:#2B2961;}
	.st133{clip-path:url(#SVGID_00000074413896437346735340000008319129796566079397_);fill:#2B2961;}
	.st134{clip-path:url(#SVGID_00000074413896437346735340000008319129796566079397_);fill:#6796CF;}
	.st135{clip-path:url(#SVGID_00000178907439450583028910000016630323181109030322_);fill:#6796CF;}
	.st136{clip-path:url(#SVGID_00000089534559529932067490000005867939173425228221_);fill:#2B2961;}
	.st137{clip-path:url(#SVGID_00000120524532207651405470000007230105391609547673_);fill:#2B2961;}
	.st138{clip-path:url(#SVGID_00000044875523301399994960000003067380609493044923_);fill:#2B2961;}
	.st139{clip-path:url(#SVGID_00000144316842387799295780000002210922649052507319_);fill:#2B2961;}
	.st140{clip-path:url(#SVGID_00000048475892828309658300000016734995488985539723_);fill:#6796CF;}
	.st141{clip-path:url(#SVGID_00000048475892828309658300000016734995488985539723_);fill:#2B2961;}
	.st142{clip-path:url(#SVGID_00000094600584118667911910000010835575110391115696_);fill:#2B2961;}
	.st143{clip-path:url(#SVGID_00000173859224205545840140000014310760717951903651_);fill:#2B2961;}
	.st144{clip-path:url(#SVGID_00000049911677341780050600000007126812681132100778_);fill:#2B2961;}
	.st145{clip-path:url(#SVGID_00000049911677341780050600000007126812681132100778_);fill:#6796CF;}
	.st146{clip-path:url(#SVGID_00000017495676917232998510000016244548360601390509_);}
	.st147{clip-path:url(#SVGID_00000017495676917232998510000016244548360601390509_);fill:#FFFFFF;}
	.st148{clip-path:url(#SVGID_00000017495676917232998510000016244548360601390509_);fill:#2B2961;}
	.st149{clip-path:url(#SVGID_00000054225365393441825540000010553803236953184677_);fill:#2B2961;}
	.st150{clip-path:url(#SVGID_00000180347691890629570360000013626680268128534206_);fill:#2B2961;}
	.st151{clip-path:url(#SVGID_00000180347691890629570360000013626680268128534206_);fill:#FFFFFF;}
	.st152{clip-path:url(#SVGID_00000180347691890629570360000013626680268128534206_);fill:#6796CF;}
	.st153{clip-path:url(#SVGID_00000072972990565468903400000001553721782873535407_);fill:#2B2961;}
	.st154{clip-path:url(#SVGID_00000049914996516937464770000003616456705943998651_);fill:#2B2961;}
	.st155{clip-path:url(#SVGID_00000036241589205964908830000010275227282871549093_);fill:#6796CF;}
	.st156{clip-path:url(#SVGID_00000036241589205964908830000010275227282871549093_);}
	.st157{clip-path:url(#SVGID_00000035498948882587730410000000017006240399993010_);fill:#2B2961;}
	.st158{clip-path:url(#SVGID_00000036241589205964908830000010275227282871549093_);fill:#FFFFFF;}
	.st159{clip-path:url(#SVGID_00000036241589205964908830000010275227282871549093_);fill:#2B2961;}
	.st160{opacity:0.52;clip-path:url(#SVGID_00000136399229448340983660000004030158018434772916_);}
	.st161{clip-path:url(#SVGID_00000124876056918726943350000006285867453778250406_);fill:#6796CF;}
	.st162{clip-path:url(#SVGID_00000028294759674620149870000003179622676992152758_);fill:#2B2961;}
	.st163{clip-path:url(#SVGID_00000150102190397515048910000000261943728487032222_);fill:#2B2961;}
	.st164{clip-path:url(#SVGID_00000006700076270804162610000004713925407689459336_);fill:#6796CF;}
	.st165{clip-path:url(#SVGID_00000006700076270804162610000004713925407689459336_);fill:#2B2961;}
	.st166{clip-path:url(#SVGID_00000142859908499097693720000017066977682080891292_);fill:#2B2961;}
	.st167{clip-path:url(#SVGID_00000042013489976055000030000000262690586489844411_);fill:#2B2961;}
	.st168{clip-path:url(#SVGID_00000173867528303249054540000010565200853107731879_);fill:#2B2961;}
	.st169{clip-path:url(#SVGID_00000005950985551810255370000015779630471499695039_);fill:#FFFFFF;}
	.st170{clip-path:url(#SVGID_00000005950985551810255370000015779630471499695039_);fill:#2B2961;}
	.st171{clip-path:url(#SVGID_00000005950985551810255370000015779630471499695039_);fill:#6796CF;}
	.st172{clip-path:url(#SVGID_00000109742561185133719690000011704931054345184656_);fill:#6796CF;}
	.st173{clip-path:url(#SVGID_00000176043431534841712000000008817833985998997689_);fill:#2B2961;}
	.st174{clip-path:url(#SVGID_00000177456852725634076720000012616379779554340006_);fill:#2B2961;}
	.st175{clip-path:url(#SVGID_00000177456852725634076720000012616379779554340006_);fill:#FFFFFF;}
	.st176{clip-path:url(#SVGID_00000151513596753138774730000017580640489794914691_);fill:#6796CF;}
	.st177{clip-path:url(#SVGID_00000151513596753138774730000017580640489794914691_);fill:#2B2961;}
	.st178{clip-path:url(#SVGID_00000142178122856051029470000004621900828134402696_);fill:#6796CF;}
	.st179{clip-path:url(#SVGID_00000142178122856051029470000004621900828134402696_);fill:#2B2961;}
	.st180{clip-path:url(#SVGID_00000130606946042264927470000013393331257247516288_);fill:#2B2961;}
	.st181{clip-path:url(#SVGID_00000054980062060609311360000004632738665944970629_);fill:#2B2961;}
	.st182{clip-path:url(#SVGID_00000174572049145396011600000002638850280263268750_);fill:#FFFFFF;}
	.st183{clip-path:url(#SVGID_00000117665558533263485920000014572252201733780118_);fill:#2B2961;}
	.st184{clip-path:url(#SVGID_00000130619890647590402170000003720172954178004921_);fill:#2B2961;}
	.st185{clip-path:url(#SVGID_00000130619890647590402170000003720172954178004921_);fill:#6796CF;}
	.st186{clip-path:url(#SVGID_00000038384955223809473100000001545782976832679298_);fill:#2B2961;}
	.st187{clip-path:url(#SVGID_00000005985363045456704730000015745608478752308400_);fill:#2B2961;}
	.st188{clip-path:url(#SVGID_00000040552288164999387380000011667971473653340561_);fill:#6796CF;}
	.st189{clip-path:url(#SVGID_00000033345660202862268500000008625911683258002599_);fill:#2B2961;}
	.st190{clip-path:url(#SVGID_00000031903421832636669170000017900490838087614115_);fill:#6796CF;}
	.st191{clip-path:url(#SVGID_00000158750313803593274200000012663740690967171729_);fill:#2B2961;}
	.st192{clip-path:url(#SVGID_00000004515615776626994840000005999540847065191061_);fill:#6796CF;}
	.st193{clip-path:url(#SVGID_00000003102532397438140260000004652444844300587161_);fill:#2B2961;}
	.st194{clip-path:url(#SVGID_00000033359891800712532870000012340096162720134528_);}
	.st195{clip-path:url(#SVGID_00000033359891800712532870000012340096162720134528_);fill:#2B2961;}
	.st196{clip-path:url(#SVGID_00000033359891800712532870000012340096162720134528_);fill:#FFFFFF;}
	.st197{clip-path:url(#SVGID_00000139285593587968908880000004952935814622644157_);fill:#2B2961;}
	.st198{clip-path:url(#SVGID_00000103960942806171564900000013663974074841264317_);fill:#2B2961;}
	.st199{clip-path:url(#SVGID_00000092421689494646224630000001151298684920135317_);fill:#2B2961;}
	.st200{clip-path:url(#SVGID_00000075853060403434682370000011090698401661339522_);fill:#2B2961;}
	.st201{clip-path:url(#SVGID_00000079444452684189101340000007500357597166675606_);fill:#2B2961;}
	.st202{clip-path:url(#SVGID_00000071525362584883323700000017903898288094425259_);fill:#2B2961;}
	.st203{clip-path:url(#SVGID_00000091004860299684555750000011811339551823144340_);fill:#2B2961;}
	.st204{clip-path:url(#SVGID_00000018951600844955514320000014518378877927863712_);fill:#2B2961;}
	.st205{clip-path:url(#SVGID_00000049942741609235019450000007514712502051107207_);fill:#2B2961;}
	.st206{clip-path:url(#SVGID_00000061470872756935821080000002253654462777772202_);fill:#FFFFFF;}
	.st207{clip-path:url(#SVGID_00000061470872756935821080000002253654462777772202_);fill:#2B2961;}
	.st208{clip-path:url(#SVGID_00000134954367767590417930000000919793598487002780_);fill:#6796CF;}
	.st209{clip-path:url(#SVGID_00000134954367767590417930000000919793598487002780_);fill:#2B2961;}
	.st210{clip-path:url(#SVGID_00000141437478042386587160000001652438195811058619_);fill:#2B2961;}
	.st211{clip-path:url(#SVGID_00000141437478042386587160000001652438195811058619_);fill:#FFFFFF;}
	.st212{clip-path:url(#SVGID_00000126298967537181838640000009783246004466691513_);fill:#6796CF;}
	.st213{clip-path:url(#SVGID_00000126298967537181838640000009783246004466691513_);fill:#2B2961;}
	.st214{clip-path:url(#SVGID_00000049186924345976607360000002991469621155754928_);fill:#6796CF;}
	.st215{clip-path:url(#SVGID_00000049186924345976607360000002991469621155754928_);fill:#2B2961;}
	.st216{clip-path:url(#SVGID_00000134951204550534722040000009408618920257325735_);}
	.st217{clip-path:url(#SVGID_00000092435871735388414760000018112064843657043375_);}
	.st218{clip-path:url(#SVGID_00000092457300344298784190000009652250020078343586_);}
	.st219{clip-path:url(#SVGID_00000068639181490642568190000013904163997367394190_);}
	.st220{clip-path:url(#SVGID_00000011752356847661787330000006801197383677715346_);}
	.st221{clip-path:url(#SVGID_00000008110985108551527070000003183692278186539910_);}
	.st222{clip-path:url(#SVGID_00000009586569659804405050000012151473223155161503_);}
	.st223{clip-path:url(#SVGID_00000041274922041460071930000016423431528190646401_);}
	.st224{clip-path:url(#SVGID_00000086687514623395201540000004987163625355588001_);}
	.st225{clip-path:url(#SVGID_00000075164684947228492110000004120875353472692147_);}
	.st226{clip-path:url(#SVGID_00000093173640162605377850000000670873854160210069_);}
	.st227{clip-path:url(#SVGID_00000124848562663767998220000005129270810511298196_);}
	.st228{clip-path:url(#SVGID_00000047059613608533303610000014887800807760073856_);}
	.st229{clip-path:url(#SVGID_00000073714868079860151580000017590738308476422065_);}
	.st230{clip-path:url(#SVGID_00000016794081861962787460000016672082390053354915_);fill:#2B2961;}
	.st231{clip-path:url(#SVGID_00000016794081861962787460000016672082390053354915_);fill:#6796CF;}
	.st232{fill:#A2B9E1;}
	.st233{clip-path:url(#SVGID_00000183212483953140780020000001412678670607477435_);}
	.st234{clip-path:url(#SVGID_00000160169225067761414440000010965935002667124141_);}
</style>
<g>
	<g>
		<rect x="131.61" y="13.13" class="st232" width="20.94" height="29.22"/>
	</g>
	<g>
		<rect x="57.91" y="13.13" class="st232" width="20.94" height="29.22"/>
	</g>
	<g>
		<rect x="0.44" y="0.46" class="st2" width="113.95" height="20.34"/>
	</g>
	<g>
		<rect x="120.81" class="st2" width="113.95" height="20.8"/>
	</g>
	<g>
		<path class="st8" d="M114.21,20.6H0.3c-0.17,0-0.3-0.13-0.3-0.3V0.5c0-0.17,0.13-0.3,0.3-0.3h113.91c0.17,0,0.3,0.13,0.3,0.3v19.8
			C114.51,20.47,114.38,20.6,114.21,20.6z M0.6,20h113.31V0.8H0.6V20z"/>
	</g>
	<g>
		<path class="st8" d="M234.58,20.6H120.66c-0.17,0-0.3-0.13-0.3-0.3V0.5c0-0.17,0.13-0.3,0.3-0.3h113.91c0.17,0,0.3,0.13,0.3,0.3
			v19.8C234.88,20.47,234.74,20.6,234.58,20.6z M120.96,20h113.31V0.8H120.96V20z"/>
	</g>
	<g>
		<path class="st4" d="M14.71,10.4h-3.66v3.78h-1.9V4.93h6.02v1.54h-4.11v2.39h3.66V10.4z"/>
		<path class="st4" d="M20,14.18c-0.08-0.17-0.15-0.37-0.18-0.62c-0.44,0.49-1.02,0.74-1.73,0.74c-0.67,0-1.23-0.19-1.67-0.58
			c-0.44-0.39-0.66-0.88-0.66-1.47c0-0.73,0.27-1.29,0.81-1.68c0.54-0.39,1.32-0.59,2.34-0.59h0.84V9.59c0-0.32-0.08-0.57-0.25-0.76
			c-0.16-0.19-0.42-0.29-0.77-0.29c-0.31,0-0.55,0.07-0.73,0.22c-0.17,0.15-0.26,0.35-0.26,0.61H15.9c0-0.4,0.12-0.77,0.37-1.11
			c0.25-0.34,0.59-0.6,1.04-0.8c0.45-0.19,0.95-0.29,1.51-0.29c0.85,0,1.52,0.21,2.02,0.64c0.5,0.43,0.75,1.02,0.75,1.79v2.98
			c0,0.65,0.09,1.14,0.27,1.48v0.11H20z M18.48,12.9c0.27,0,0.52-0.06,0.75-0.18c0.23-0.12,0.4-0.28,0.51-0.49v-1.18h-0.69
			c-0.92,0-1.41,0.32-1.47,0.95l-0.01,0.11c0,0.23,0.08,0.42,0.24,0.56C17.98,12.83,18.2,12.9,18.48,12.9z"/>
		<path class="st4" d="M26.11,12.82c0.34,0,0.61-0.09,0.83-0.28c0.21-0.19,0.32-0.43,0.33-0.74h1.72c0,0.47-0.13,0.89-0.38,1.28
			c-0.25,0.39-0.59,0.69-1.03,0.9c-0.43,0.21-0.91,0.32-1.44,0.32c-0.98,0-1.76-0.31-2.32-0.94c-0.57-0.62-0.85-1.49-0.85-2.59
			v-0.12c0-1.06,0.28-1.9,0.84-2.53c0.56-0.63,1.33-0.95,2.32-0.95c0.86,0,1.55,0.24,2.07,0.73c0.52,0.49,0.78,1.14,0.79,1.95h-1.72
			C27.25,9.51,27.14,9.22,26.93,9c-0.21-0.22-0.49-0.33-0.84-0.33c-0.43,0-0.75,0.16-0.97,0.47c-0.22,0.31-0.33,0.82-0.33,1.52v0.19
			c0,0.71,0.11,1.22,0.32,1.53C25.34,12.67,25.67,12.82,26.11,12.82z"/>
		<path class="st4" d="M32.07,8.06c0.49-0.58,1.1-0.88,1.83-0.88c1.49,0,2.25,0.87,2.27,2.6v4.4h-1.83V9.83
			c0-0.39-0.08-0.68-0.25-0.87c-0.17-0.19-0.45-0.28-0.84-0.28c-0.54,0-0.93,0.21-1.17,0.62v4.88h-1.83V4.43h1.83V8.06z"/>
		<path class="st4" d="M39.6,8.06c0.49-0.58,1.1-0.88,1.83-0.88c1.49,0,2.25,0.87,2.27,2.6v4.4h-1.83V9.83
			c0-0.39-0.08-0.68-0.25-0.87c-0.17-0.19-0.45-0.28-0.84-0.28c-0.54,0-0.93,0.21-1.17,0.62v4.88h-1.83V4.43h1.83V8.06z"/>
		<path class="st4" d="M45.04,10.68c0-0.68,0.13-1.29,0.39-1.82c0.26-0.53,0.64-0.95,1.13-1.24c0.49-0.29,1.07-0.44,1.72-0.44
			c0.93,0,1.68,0.28,2.27,0.85c0.59,0.57,0.91,1.34,0.98,2.31l0.01,0.47c0,1.05-0.29,1.9-0.88,2.54c-0.59,0.64-1.38,0.96-2.37,0.96
			s-1.78-0.32-2.37-0.95c-0.59-0.63-0.89-1.5-0.89-2.59V10.68z M46.88,10.81c0,0.65,0.12,1.15,0.37,1.5
			c0.25,0.35,0.6,0.52,1.05,0.52c0.44,0,0.79-0.17,1.04-0.51c0.25-0.34,0.37-0.89,0.37-1.64c0-0.64-0.12-1.14-0.37-1.49
			c-0.25-0.35-0.6-0.53-1.05-0.53c-0.45,0-0.8,0.17-1.04,0.52C47,9.53,46.88,10.08,46.88,10.81z"/>
		<path class="st4" d="M55.79,12.82c0.34,0,0.61-0.09,0.83-0.28c0.21-0.19,0.32-0.43,0.33-0.74h1.72c0,0.47-0.13,0.89-0.38,1.28
			c-0.25,0.39-0.59,0.69-1.03,0.9c-0.43,0.21-0.91,0.32-1.44,0.32c-0.98,0-1.76-0.31-2.32-0.94c-0.57-0.62-0.85-1.49-0.85-2.59
			v-0.12c0-1.06,0.28-1.9,0.84-2.53c0.56-0.63,1.33-0.95,2.32-0.95c0.86,0,1.55,0.24,2.07,0.73c0.52,0.49,0.78,1.14,0.79,1.95h-1.72
			C56.93,9.51,56.82,9.22,56.61,9c-0.21-0.22-0.49-0.33-0.84-0.33c-0.43,0-0.75,0.16-0.97,0.47c-0.22,0.31-0.33,0.82-0.33,1.52v0.19
			c0,0.71,0.11,1.22,0.32,1.53C55.02,12.67,55.34,12.82,55.79,12.82z"/>
		<path class="st4" d="M61.76,8.06c0.49-0.58,1.1-0.88,1.83-0.88c1.49,0,2.25,0.87,2.27,2.6v4.4h-1.83V9.83
			c0-0.39-0.08-0.68-0.25-0.87c-0.17-0.19-0.45-0.28-0.84-0.28c-0.54,0-0.93,0.21-1.17,0.62v4.88h-1.83V4.43h1.83V8.06z"/>
		<path class="st4" d="M71.22,12.28c0-0.22-0.11-0.4-0.33-0.53c-0.22-0.13-0.58-0.24-1.07-0.35c-1.63-0.34-2.45-1.04-2.45-2.08
			c0-0.61,0.25-1.12,0.76-1.53c0.5-0.41,1.17-0.61,1.98-0.61c0.87,0,1.57,0.21,2.09,0.62c0.52,0.41,0.78,0.94,0.78,1.6h-1.83
			c0-0.26-0.08-0.48-0.25-0.65c-0.17-0.17-0.43-0.26-0.79-0.26c-0.31,0-0.55,0.07-0.72,0.21c-0.17,0.14-0.25,0.32-0.25,0.53
			c0,0.2,0.1,0.37,0.29,0.49c0.19,0.12,0.52,0.23,0.97,0.32s0.84,0.19,1.16,0.31c0.97,0.36,1.45,0.97,1.45,1.85
			c0,0.63-0.27,1.13-0.81,1.52c-0.54,0.39-1.23,0.58-2.08,0.58c-0.58,0-1.09-0.1-1.53-0.31c-0.45-0.21-0.8-0.49-1.05-0.84
			s-0.38-0.74-0.38-1.16h1.74c0.02,0.33,0.14,0.58,0.36,0.75c0.22,0.17,0.53,0.26,0.9,0.26c0.35,0,0.62-0.07,0.8-0.2
			C71.13,12.67,71.22,12.49,71.22,12.28z"/>
		<path class="st4" d="M77.3,12.82c0.34,0,0.61-0.09,0.83-0.28c0.21-0.19,0.32-0.43,0.33-0.74h1.72c0,0.47-0.13,0.89-0.38,1.28
			c-0.25,0.39-0.59,0.69-1.03,0.9s-0.91,0.32-1.44,0.32c-0.98,0-1.76-0.31-2.32-0.94c-0.57-0.62-0.85-1.49-0.85-2.59v-0.12
			c0-1.06,0.28-1.9,0.84-2.53c0.56-0.63,1.33-0.95,2.32-0.95c0.86,0,1.55,0.24,2.07,0.73c0.52,0.49,0.78,1.14,0.79,1.95h-1.72
			C78.45,9.51,78.34,9.22,78.13,9c-0.21-0.22-0.49-0.33-0.84-0.33c-0.43,0-0.75,0.16-0.97,0.47S76,9.94,76,10.64v0.19
			c0,0.71,0.11,1.22,0.32,1.53C76.54,12.67,76.86,12.82,77.3,12.82z"/>
		<path class="st4" d="M83.26,8.06c0.49-0.58,1.1-0.88,1.83-0.88c1.49,0,2.25,0.87,2.27,2.6v4.4h-1.83V9.83
			c0-0.39-0.08-0.68-0.25-0.87c-0.17-0.19-0.45-0.28-0.84-0.28c-0.54,0-0.93,0.21-1.17,0.62v4.88h-1.83V4.43h1.83V8.06z"/>
		<path class="st4" d="M93.12,13.48c-0.45,0.55-1.08,0.83-1.88,0.83c-0.74,0-1.3-0.21-1.68-0.63c-0.39-0.42-0.59-1.04-0.59-1.86
			v-4.5h1.83v4.44c0,0.72,0.33,1.07,0.98,1.07c0.62,0,1.05-0.22,1.28-0.65V7.31h1.84v6.87h-1.73L93.12,13.48z"/>
		<path class="st4" d="M98.48,14.18h-1.84V4.43h1.84V14.18z"/>
		<path class="st4" d="M103.27,14.3c-1.01,0-1.83-0.31-2.46-0.93s-0.95-1.44-0.95-2.47v-0.18c0-0.69,0.13-1.31,0.4-1.85
			s0.64-0.96,1.13-1.26c0.49-0.29,1.05-0.44,1.67-0.44c0.94,0,1.68,0.3,2.22,0.89c0.54,0.59,0.81,1.43,0.81,2.52v0.75h-4.37
			c0.06,0.45,0.24,0.81,0.54,1.08c0.3,0.27,0.68,0.41,1.13,0.41c0.71,0,1.26-0.26,1.66-0.77l0.9,1.01
			c-0.28,0.39-0.65,0.69-1.12,0.91S103.84,14.3,103.27,14.3z M103.06,8.66c-0.36,0-0.66,0.12-0.89,0.37
			c-0.23,0.25-0.37,0.6-0.43,1.06h2.55V9.94c-0.01-0.41-0.12-0.72-0.33-0.95C103.75,8.77,103.45,8.66,103.06,8.66z"/>
	</g>
	<g>
		<path class="st4" d="M151.95,4.93v6.09c0,1.01-0.32,1.81-0.95,2.4c-0.63,0.59-1.5,0.88-2.59,0.88c-1.08,0-1.94-0.29-2.57-0.86
			c-0.63-0.57-0.96-1.36-0.97-2.35V4.93h1.9v6.1c0,0.61,0.15,1.05,0.43,1.32c0.29,0.28,0.69,0.42,1.2,0.42
			c1.07,0,1.61-0.56,1.63-1.69V4.93H151.95z"/>
		<path class="st4" d="M155.33,7.31l0.06,0.79c0.49-0.61,1.15-0.92,1.97-0.92c0.73,0,1.27,0.21,1.62,0.64
			c0.36,0.43,0.54,1.07,0.55,1.92v4.44h-1.83V9.78c0-0.39-0.08-0.67-0.25-0.85c-0.17-0.18-0.45-0.26-0.84-0.26
			c-0.52,0-0.9,0.22-1.16,0.66v4.84h-1.83V7.31H155.33z"/>
		<path class="st4" d="M161.17,5.53c0-0.28,0.09-0.5,0.28-0.68c0.18-0.18,0.43-0.27,0.75-0.27c0.31,0,0.56,0.09,0.75,0.27
			c0.19,0.18,0.28,0.4,0.28,0.68c0,0.28-0.09,0.51-0.28,0.69s-0.44,0.27-0.75,0.27c-0.31,0-0.56-0.09-0.75-0.27
			C161.26,6.04,161.17,5.81,161.17,5.53z M163.12,14.18h-1.84V7.31h1.84V14.18z"/>
		<path class="st4" d="M167.45,11.94l1.28-4.63h1.92l-2.32,6.87h-1.75l-2.32-6.87h1.92L167.45,11.94z"/>
		<path class="st4" d="M174.74,14.3c-1.01,0-1.83-0.31-2.46-0.93c-0.63-0.62-0.95-1.44-0.95-2.47v-0.18c0-0.69,0.13-1.31,0.4-1.85
			s0.64-0.96,1.13-1.26c0.49-0.29,1.05-0.44,1.67-0.44c0.94,0,1.68,0.3,2.22,0.89c0.54,0.59,0.81,1.43,0.81,2.52v0.75h-4.37
			c0.06,0.45,0.24,0.81,0.54,1.08c0.3,0.27,0.68,0.41,1.13,0.41c0.71,0,1.26-0.26,1.66-0.77l0.9,1.01
			c-0.27,0.39-0.65,0.69-1.12,0.91S175.31,14.3,174.74,14.3z M174.53,8.66c-0.36,0-0.66,0.12-0.89,0.37
			c-0.23,0.25-0.37,0.6-0.43,1.06h2.55V9.94c-0.01-0.41-0.12-0.72-0.33-0.95C175.22,8.77,174.92,8.66,174.53,8.66z"/>
		<path class="st4" d="M182.72,9.03c-0.25-0.03-0.47-0.05-0.66-0.05c-0.69,0-1.15,0.24-1.36,0.71v4.49h-1.83V7.31h1.73l0.05,0.82
			c0.37-0.63,0.88-0.95,1.53-0.95c0.2,0,0.39,0.03,0.57,0.08L182.72,9.03z"/>
		<path class="st4" d="M187.44,12.28c0-0.22-0.11-0.4-0.33-0.53c-0.22-0.13-0.58-0.24-1.07-0.35c-1.63-0.34-2.45-1.04-2.45-2.08
			c0-0.61,0.25-1.12,0.76-1.53s1.17-0.61,1.98-0.61c0.87,0,1.57,0.21,2.09,0.62c0.52,0.41,0.78,0.94,0.78,1.6h-1.83
			c0-0.26-0.08-0.48-0.25-0.65c-0.17-0.17-0.43-0.26-0.79-0.26c-0.31,0-0.55,0.07-0.72,0.21c-0.17,0.14-0.25,0.32-0.25,0.53
			c0,0.2,0.1,0.37,0.29,0.49s0.52,0.23,0.97,0.32s0.84,0.19,1.16,0.31c0.97,0.36,1.45,0.97,1.45,1.85c0,0.63-0.27,1.13-0.81,1.52
			c-0.54,0.39-1.23,0.58-2.08,0.58c-0.58,0-1.09-0.1-1.53-0.31s-0.8-0.49-1.05-0.84s-0.38-0.74-0.38-1.16h1.74
			c0.02,0.33,0.14,0.58,0.36,0.75c0.22,0.17,0.52,0.26,0.9,0.26c0.35,0,0.62-0.07,0.8-0.2C187.35,12.67,187.44,12.49,187.44,12.28z"
			/>
		<path class="st4" d="M190.65,5.53c0-0.28,0.09-0.5,0.28-0.68c0.18-0.18,0.43-0.27,0.75-0.27c0.31,0,0.56,0.09,0.75,0.27
			c0.19,0.18,0.28,0.4,0.28,0.68c0,0.28-0.09,0.51-0.28,0.69s-0.44,0.27-0.75,0.27c-0.31,0-0.56-0.09-0.75-0.27
			C190.75,6.04,190.65,5.81,190.65,5.53z M192.6,14.18h-1.84V7.31h1.84V14.18z"/>
		<path class="st4" d="M196.56,5.62v1.69h1.17v1.35h-1.17v3.43c0,0.25,0.05,0.44,0.15,0.55c0.1,0.11,0.28,0.17,0.56,0.17
			c0.2,0,0.38-0.01,0.54-0.04v1.39c-0.36,0.11-0.73,0.17-1.11,0.17c-1.29,0-1.94-0.65-1.97-1.95v-3.7h-1V7.31h1V5.62H196.56z"/>
		<path class="st4" d="M202.93,14.18c-0.08-0.17-0.15-0.37-0.18-0.62c-0.44,0.49-1.02,0.74-1.73,0.74c-0.67,0-1.23-0.19-1.67-0.58
			s-0.66-0.88-0.66-1.47c0-0.73,0.27-1.29,0.81-1.68c0.54-0.39,1.32-0.59,2.34-0.59h0.84V9.59c0-0.32-0.08-0.57-0.24-0.76
			c-0.16-0.19-0.42-0.29-0.77-0.29c-0.31,0-0.55,0.07-0.73,0.22c-0.18,0.15-0.26,0.35-0.26,0.61h-1.83c0-0.4,0.12-0.77,0.37-1.11
			c0.25-0.34,0.59-0.6,1.04-0.8c0.45-0.19,0.95-0.29,1.51-0.29c0.85,0,1.52,0.21,2.02,0.64c0.5,0.43,0.75,1.02,0.75,1.79v2.98
			c0,0.65,0.1,1.14,0.27,1.48v0.11H202.93z M201.07,5.51c0,0.23-0.08,0.42-0.25,0.57c-0.17,0.16-0.38,0.23-0.63,0.23
			c-0.26,0-0.47-0.08-0.63-0.24c-0.16-0.16-0.24-0.35-0.24-0.57c0-0.22,0.08-0.41,0.24-0.57c0.16-0.16,0.37-0.24,0.63-0.24
			c0.26,0,0.48,0.08,0.64,0.24C200.99,5.1,201.07,5.29,201.07,5.51z M201.41,12.9c0.27,0,0.52-0.06,0.75-0.18
			c0.23-0.12,0.4-0.28,0.51-0.49v-1.18h-0.69c-0.92,0-1.41,0.32-1.47,0.95l-0.01,0.11c0,0.23,0.08,0.42,0.24,0.56
			C200.91,12.83,201.13,12.9,201.41,12.9z M202.41,5.51c0-0.23,0.09-0.42,0.26-0.58c0.17-0.16,0.38-0.23,0.62-0.23
			c0.25,0,0.46,0.08,0.63,0.24c0.17,0.16,0.25,0.35,0.25,0.57c0,0.22-0.08,0.41-0.24,0.57c-0.16,0.16-0.37,0.24-0.63,0.24
			c-0.26,0-0.47-0.08-0.64-0.24S202.41,5.73,202.41,5.51z"/>
		<path class="st4" d="M208.36,5.62v1.69h1.17v1.35h-1.17v3.43c0,0.25,0.05,0.44,0.15,0.55c0.1,0.11,0.28,0.17,0.56,0.17
			c0.2,0,0.38-0.01,0.54-0.04v1.39c-0.36,0.11-0.73,0.17-1.11,0.17c-1.29,0-1.94-0.65-1.97-1.95v-3.7h-1V7.31h1V5.62H208.36z"/>
	</g>
	<g>
		<polygon class="st4" points="135.91,34.81 148.25,34.81 142.08,26.64 		"/>
	</g>
	<g>
		<polygon class="st4" points="62.21,34.81 74.55,34.81 68.38,26.64 		"/>
	</g>
	<g>
		<rect x="58.55" y="41.12" class="st2" width="176.67" height="20.8"/>
	</g>
	<g>
		<path class="st8" d="M235.21,61.72H58.05c-0.17,0-0.3-0.13-0.3-0.3v-19.8c0-0.17,0.13-0.3,0.3-0.3h177.17c0.17,0,0.3,0.13,0.3,0.3
			v19.8C235.51,61.59,235.38,61.72,235.21,61.72z M58.35,61.12h176.57v-19.2H58.35V61.12z"/>
	</g>
	<g>
		<path class="st4" d="M84.61,55.3h-1.9v-3.96h-3.71v3.96h-1.9v-9.24h1.9v3.75h3.71v-3.75h1.9V55.3z"/>
		<path class="st4" d="M86.12,51.8c0-0.68,0.13-1.29,0.39-1.82c0.26-0.53,0.64-0.95,1.13-1.24c0.49-0.29,1.07-0.44,1.72-0.44
			c0.93,0,1.68,0.28,2.27,0.85s0.91,1.34,0.98,2.31l0.01,0.47c0,1.05-0.29,1.9-0.88,2.54c-0.59,0.64-1.38,0.96-2.37,0.96
			s-1.78-0.32-2.37-0.95c-0.59-0.63-0.89-1.5-0.89-2.59V51.8z M87.96,51.93c0,0.65,0.12,1.15,0.37,1.5c0.25,0.35,0.6,0.52,1.05,0.52
			c0.44,0,0.79-0.17,1.04-0.51c0.25-0.34,0.38-0.89,0.38-1.64c0-0.64-0.12-1.14-0.38-1.49c-0.25-0.35-0.6-0.53-1.05-0.53
			c-0.45,0-0.79,0.17-1.04,0.52C88.08,50.66,87.96,51.2,87.96,51.93z"/>
		<path class="st4" d="M96.86,53.95c0.34,0,0.61-0.09,0.83-0.28c0.21-0.19,0.32-0.43,0.33-0.74h1.72c0,0.47-0.13,0.89-0.38,1.28
			c-0.25,0.39-0.59,0.69-1.03,0.9s-0.91,0.32-1.44,0.32c-0.98,0-1.76-0.31-2.32-0.94C94,53.86,93.72,53,93.72,51.9v-0.12
			c0-1.06,0.28-1.9,0.84-2.53c0.56-0.63,1.33-0.95,2.32-0.95c0.86,0,1.55,0.24,2.07,0.73c0.52,0.49,0.78,1.14,0.79,1.95h-1.72
			c-0.01-0.36-0.12-0.65-0.33-0.87c-0.21-0.22-0.49-0.33-0.84-0.33c-0.43,0-0.75,0.16-0.97,0.47s-0.33,0.82-0.33,1.52v0.19
			c0,0.71,0.11,1.22,0.32,1.53C96.09,53.79,96.42,53.95,96.86,53.95z"/>
		<path class="st4" d="M102.83,49.18c0.49-0.58,1.1-0.88,1.83-0.88c1.49,0,2.25,0.87,2.27,2.6v4.4h-1.83v-4.35
			c0-0.39-0.08-0.68-0.25-0.87c-0.17-0.19-0.45-0.28-0.84-0.28c-0.54,0-0.93,0.21-1.17,0.62v4.88H101v-9.75h1.83V49.18z"/>
		<path class="st4" d="M112.3,53.4c0-0.22-0.11-0.4-0.33-0.53c-0.22-0.13-0.58-0.24-1.07-0.35c-1.63-0.34-2.45-1.04-2.45-2.08
			c0-0.61,0.25-1.12,0.76-1.53s1.17-0.61,1.98-0.61c0.87,0,1.57,0.21,2.09,0.62c0.52,0.41,0.78,0.94,0.78,1.6h-1.83
			c0-0.26-0.08-0.48-0.25-0.65c-0.17-0.17-0.43-0.26-0.79-0.26c-0.31,0-0.55,0.07-0.72,0.21c-0.17,0.14-0.25,0.32-0.25,0.53
			c0,0.2,0.1,0.37,0.29,0.49s0.52,0.23,0.97,0.32s0.84,0.19,1.16,0.31c0.97,0.36,1.45,0.97,1.45,1.85c0,0.63-0.27,1.13-0.81,1.52
			c-0.54,0.39-1.23,0.58-2.08,0.58c-0.58,0-1.09-0.1-1.53-0.31s-0.8-0.49-1.05-0.84s-0.38-0.74-0.38-1.16h1.74
			c0.02,0.33,0.14,0.58,0.36,0.75c0.22,0.17,0.52,0.26,0.9,0.26c0.35,0,0.62-0.07,0.8-0.2C112.21,53.79,112.3,53.62,112.3,53.4z"/>
		<path class="st4" d="M118.38,53.95c0.34,0,0.61-0.09,0.83-0.28c0.21-0.19,0.32-0.43,0.33-0.74h1.72c0,0.47-0.13,0.89-0.38,1.28
			c-0.25,0.39-0.59,0.69-1.03,0.9c-0.43,0.21-0.91,0.32-1.44,0.32c-0.98,0-1.76-0.31-2.32-0.94c-0.57-0.62-0.85-1.49-0.85-2.59
			v-0.12c0-1.06,0.28-1.9,0.84-2.53c0.56-0.63,1.33-0.95,2.32-0.95c0.86,0,1.55,0.24,2.07,0.73c0.52,0.49,0.78,1.14,0.79,1.95h-1.72
			c-0.01-0.36-0.12-0.65-0.33-0.87c-0.21-0.22-0.49-0.33-0.84-0.33c-0.43,0-0.75,0.16-0.97,0.47c-0.22,0.31-0.33,0.82-0.33,1.52
			v0.19c0,0.71,0.11,1.22,0.32,1.53C117.61,53.79,117.94,53.95,118.38,53.95z"/>
		<path class="st4" d="M124.34,49.18c0.49-0.58,1.1-0.88,1.83-0.88c1.49,0,2.25,0.87,2.27,2.6v4.4h-1.83v-4.35
			c0-0.39-0.08-0.68-0.25-0.87c-0.17-0.19-0.45-0.28-0.84-0.28c-0.54,0-0.93,0.21-1.17,0.62v4.88h-1.83v-9.75h1.83V49.18z"/>
		<path class="st4" d="M134.2,54.6c-0.45,0.55-1.08,0.83-1.88,0.83c-0.74,0-1.3-0.21-1.69-0.63c-0.39-0.42-0.58-1.04-0.59-1.86v-4.5
			h1.83v4.44c0,0.72,0.33,1.07,0.98,1.07c0.62,0,1.05-0.22,1.28-0.65v-4.87h1.84v6.87h-1.73L134.2,54.6z"/>
		<path class="st4" d="M139.54,55.3h-1.84v-9.75h1.84V55.3z"/>
		<path class="st4" d="M145.17,50.15c-0.25-0.03-0.47-0.05-0.66-0.05c-0.69,0-1.15,0.24-1.36,0.71v4.49h-1.83v-6.87h1.73l0.05,0.82
			c0.37-0.63,0.88-0.95,1.53-0.95c0.2,0,0.39,0.03,0.57,0.08L145.17,50.15z"/>
		<path class="st4" d="M149.1,55.42c-1.01,0-1.83-0.31-2.46-0.93c-0.63-0.62-0.95-1.44-0.95-2.47v-0.18c0-0.69,0.13-1.31,0.4-1.85
			s0.64-0.96,1.13-1.26c0.49-0.29,1.05-0.44,1.67-0.44c0.94,0,1.68,0.3,2.22,0.89c0.54,0.59,0.81,1.43,0.81,2.52v0.75h-4.37
			c0.06,0.45,0.24,0.81,0.54,1.08c0.3,0.27,0.68,0.41,1.13,0.41c0.71,0,1.26-0.26,1.66-0.77l0.9,1.01
			c-0.27,0.39-0.65,0.69-1.12,0.91S149.67,55.42,149.1,55.42z M148.89,49.78c-0.36,0-0.66,0.12-0.89,0.37
			c-0.23,0.25-0.37,0.6-0.43,1.06h2.55v-0.15c-0.01-0.41-0.12-0.72-0.33-0.95C149.58,49.89,149.28,49.78,148.89,49.78z"/>
		<path class="st4" d="M153.21,46.65c0-0.28,0.09-0.5,0.28-0.68c0.18-0.18,0.44-0.27,0.75-0.27c0.31,0,0.56,0.09,0.75,0.27
			c0.19,0.18,0.28,0.4,0.28,0.68c0,0.28-0.09,0.51-0.28,0.69c-0.19,0.18-0.44,0.27-0.75,0.27c-0.31,0-0.56-0.09-0.75-0.27
			S153.21,46.93,153.21,46.65z M155.16,55.3h-1.84v-6.87h1.84V55.3z"/>
		<path class="st4" d="M157.43,55.3v-5.52h-1.02v-1.35h1.02v-0.58c0-0.77,0.22-1.37,0.66-1.79c0.44-0.43,1.06-0.64,1.86-0.64
			c0.25,0,0.56,0.04,0.93,0.13l-0.02,1.42c-0.15-0.04-0.34-0.06-0.56-0.06c-0.69,0-1.04,0.32-1.04,0.97v0.55h1.37v1.35h-1.37v5.52
			H157.43z"/>
		<path class="st4" d="M164.8,55.42c-1.01,0-1.83-0.31-2.46-0.93s-0.95-1.44-0.95-2.47v-0.18c0-0.69,0.13-1.31,0.4-1.85
			s0.64-0.96,1.13-1.26c0.49-0.29,1.05-0.44,1.67-0.44c0.94,0,1.68,0.3,2.22,0.89c0.54,0.59,0.81,1.43,0.81,2.52v0.75h-4.37
			c0.06,0.45,0.24,0.81,0.54,1.08c0.3,0.27,0.68,0.41,1.13,0.41c0.71,0,1.26-0.26,1.66-0.77l0.9,1.01
			c-0.28,0.39-0.65,0.69-1.12,0.91S165.37,55.42,164.8,55.42z M164.59,49.78c-0.36,0-0.66,0.12-0.89,0.37
			c-0.23,0.25-0.37,0.6-0.43,1.06h2.55v-0.15c-0.01-0.41-0.12-0.72-0.33-0.95C165.28,49.89,164.98,49.78,164.59,49.78z"/>
		<path class="st4" d="M172.51,51.54c0-0.97,0.13-1.89,0.39-2.77c0.26-0.88,0.64-1.65,1.14-2.33c0.5-0.67,1.05-1.14,1.64-1.41
			l0.36,0.99c-0.62,0.46-1.1,1.16-1.45,2.12c-0.35,0.96-0.52,2.07-0.52,3.35v0.2c0,1.28,0.17,2.4,0.51,3.37
			c0.34,0.96,0.83,1.68,1.45,2.15l-0.36,0.97c-0.58-0.26-1.11-0.71-1.61-1.37c-0.5-0.65-0.88-1.41-1.14-2.26
			c-0.26-0.86-0.4-1.75-0.42-2.68V51.54z"/>
		<path class="st4" d="M182.59,53.39h-3.34l-0.63,1.9h-2.02l3.44-9.24h1.76l3.46,9.24h-2.02L182.59,53.39z M179.76,51.85h2.31
			l-1.16-3.46L179.76,51.85z"/>
		<path class="st4" d="M192.43,51.93c0,1.1-0.23,1.96-0.7,2.57c-0.47,0.62-1.13,0.92-1.97,0.92c-0.75,0-1.34-0.29-1.78-0.86
			l-0.08,0.73h-1.65v-9.75h1.83v3.5c0.42-0.5,0.98-0.74,1.67-0.74c0.84,0,1.49,0.31,1.97,0.92c0.48,0.62,0.71,1.48,0.71,2.6V51.93z
			 M190.6,51.79c0-0.69-0.11-1.2-0.33-1.52c-0.22-0.32-0.55-0.48-0.98-0.48c-0.58,0-0.99,0.24-1.21,0.72v2.71
			c0.22,0.48,0.63,0.72,1.22,0.72c0.59,0,0.98-0.29,1.17-0.88C190.55,52.79,190.6,52.36,190.6,51.79z"/>
		<path class="st4" d="M193.81,46.65c0-0.28,0.09-0.5,0.28-0.68c0.18-0.18,0.43-0.27,0.75-0.27c0.31,0,0.56,0.09,0.75,0.27
			c0.19,0.18,0.28,0.4,0.28,0.68c0,0.28-0.09,0.51-0.28,0.69s-0.44,0.27-0.75,0.27c-0.31,0-0.56-0.09-0.75-0.27
			C193.9,47.16,193.81,46.93,193.81,46.65z M195.76,55.3h-1.84v-6.87h1.84V55.3z"/>
		<path class="st4" d="M199.73,46.74v1.69h1.17v1.35h-1.17v3.43c0,0.25,0.05,0.44,0.15,0.55c0.1,0.11,0.28,0.17,0.56,0.17
			c0.2,0,0.38-0.01,0.54-0.04v1.39c-0.36,0.11-0.73,0.17-1.11,0.17c-1.29,0-1.94-0.65-1.97-1.95v-3.7h-1v-1.35h1v-1.69H199.73z"/>
		<path class="st4" d="M206.29,54.6c-0.45,0.55-1.08,0.83-1.88,0.83c-0.74,0-1.3-0.21-1.68-0.63c-0.39-0.42-0.59-1.04-0.59-1.86
			v-4.5h1.83v4.44c0,0.72,0.33,1.07,0.98,1.07c0.62,0,1.05-0.22,1.28-0.65v-4.87h1.84v6.87h-1.73L206.29,54.6z"/>
		<path class="st4" d="M213.58,50.15c-0.25-0.03-0.47-0.05-0.66-0.05c-0.69,0-1.15,0.24-1.37,0.71v4.49h-1.83v-6.87h1.73l0.05,0.82
			c0.37-0.63,0.88-0.95,1.53-0.95c0.2,0,0.39,0.03,0.57,0.08L213.58,50.15z"/>
		<path class="st4" d="M217.88,51.69c0,0.96-0.14,1.88-0.41,2.76c-0.28,0.88-0.67,1.67-1.19,2.34c-0.52,0.68-1.07,1.14-1.66,1.4
			l-0.36-0.97c0.6-0.45,1.07-1.15,1.42-2.09c0.35-0.94,0.53-2.03,0.54-3.26v-0.34c0-1.27-0.17-2.38-0.52-3.34
			c-0.35-0.96-0.83-1.69-1.44-2.17l0.36-0.97c0.58,0.25,1.12,0.7,1.63,1.36s0.91,1.42,1.19,2.29c0.28,0.87,0.43,1.77,0.44,2.71
			V51.69z"/>
	</g>
	<g>
		<polygon class="st4" points="135.91,44.54 148.25,44.54 142.08,36.38 		"/>
	</g>
	<g>
		<polygon class="st4" points="62.21,44.54 74.55,44.54 68.38,36.38 		"/>
	</g>
	<g>
		<polygon class="st4" points="135.91,25.07 148.25,25.07 142.08,16.9 		"/>
	</g>
	<g>
		<polygon class="st4" points="62.21,25.07 74.55,25.07 68.38,16.9 		"/>
	</g>
</g>
</svg>
