<?xml version="1.0" encoding="utf-8"?>
<!-- Generator: Adobe Illustrator 26.0.2, SVG Export Plug-In . SVG Version: 6.00 Build 0)  -->
<svg version="1.1" id="Ebene_1" xmlns="http://www.w3.org/2000/svg" xmlns:xlink="http://www.w3.org/1999/xlink" x="0px" y="0px"
	 viewBox="0 0 58.61 64.64" style="enable-background:new 0 0 58.61 64.64;" xml:space="preserve">
<style type="text/css">
	.st0{clip-path:url(#SVGID_00000149348288272182887180000010576186947643177090_);fill:#6796CF;}
	.st1{clip-path:url(#SVGID_00000149348288272182887180000010576186947643177090_);fill:#2B2961;}
	.st2{fill:#6796CF;}
	.st3{clip-path:url(#SVGID_00000059277804563537808580000011443872865980059057_);fill:#2B2961;}
	.st4{fill:#FFFFFF;}
	.st5{clip-path:url(#SVGID_00000047762988931627398710000004536352301188614555_);fill:#2B2961;}
	.st6{clip-path:url(#SVGID_00000135680090573617810380000000764973311316583614_);fill:#2B2961;}
	.st7{clip-path:url(#SVGID_00000029023088829024486450000004165396739601132477_);fill:#2B2961;}
	.st8{fill:#2B2961;}
	.st9{clip-path:url(#SVGID_00000098190782288050055030000001882685460155273106_);fill:#6796CF;}
	.st10{clip-path:url(#SVGID_00000098190782288050055030000001882685460155273106_);fill:#2B2961;}
	.st11{clip-path:url(#SVGID_00000143604625956390100000000000303482024909080762_);fill:#2B2961;}
	.st12{clip-path:url(#SVGID_00000013170562604434600080000009111387223415343006_);fill:#2B2961;}
	.st13{clip-path:url(#SVGID_00000013170562604434600080000009111387223415343006_);fill:#6796CF;}
	.st14{clip-path:url(#SVGID_00000092442105712771466300000014183716343776540325_);fill:#2B2961;}
	.st15{clip-path:url(#SVGID_00000045588116460342205610000008325927727875069857_);fill:#2B2961;}
	.st16{clip-path:url(#SVGID_00000137093666655029391990000018002870110968091573_);fill:#2B2961;}
	.st17{clip-path:url(#SVGID_00000137093666655029391990000018002870110968091573_);fill:#6796CF;}
	.st18{clip-path:url(#SVGID_00000162320782907772028800000001265683423648431033_);fill:#2B2961;}
	.st19{clip-path:url(#SVGID_00000052072840538422829970000003707004096304855944_);fill:#2B2961;}
	.st20{clip-path:url(#SVGID_00000059293299499511825010000016406929844307923618_);fill:#2B2961;}
	.st21{clip-path:url(#SVGID_00000152263402480257399900000012003400299902271875_);fill:#2B2961;}
	.st22{clip-path:url(#SVGID_00000117637249562955040450000015739901621851262853_);fill:#6796CF;}
	.st23{clip-path:url(#SVGID_00000117637249562955040450000015739901621851262853_);fill:#2B2961;}
	.st24{clip-path:url(#SVGID_00000152958731192600518260000002869819066879765433_);fill:#2B2961;}
	.st25{clip-path:url(#SVGID_00000022551780881128494710000015269620587779568522_);fill:#2B2961;}
	.st26{clip-path:url(#SVGID_00000022551780881128494710000015269620587779568522_);fill:#6796CF;}
	.st27{clip-path:url(#SVGID_00000001630853061865355420000001729814693872764607_);fill:#2B2961;}
	.st28{clip-path:url(#SVGID_00000093875995804298622600000006500708796357082500_);fill:#2B2961;}
	.st29{clip-path:url(#SVGID_00000156554619140811166480000013749803901852827018_);fill:#2B2961;}
	.st30{clip-path:url(#SVGID_00000156554619140811166480000013749803901852827018_);fill:#6796CF;}
	.st31{clip-path:url(#SVGID_00000106105590352101943990000010292145278001533849_);fill:#2B2961;}
	.st32{clip-path:url(#SVGID_00000176753408781038189770000003111289615885685176_);fill:#6796CF;}
	.st33{clip-path:url(#SVGID_00000176753408781038189770000003111289615885685176_);fill:#2B2961;}
	.st34{clip-path:url(#SVGID_00000153681116471737566550000002319114420694328756_);fill:#2B2961;}
	.st35{clip-path:url(#SVGID_00000153681116471737566550000002319114420694328756_);fill:#6796CF;}
	.st36{clip-path:url(#SVGID_00000044879938676955195870000000851116688964480410_);fill:#2B2961;}
	.st37{clip-path:url(#SVGID_00000072980885565211812150000005284498376955365049_);fill:#FFFFFF;}
	.st38{clip-path:url(#SVGID_00000072980885565211812150000005284498376955365049_);fill:#2B2961;}
	.st39{clip-path:url(#SVGID_00000095316342227273134760000009896019480090232253_);fill:#FFFFFF;}
	.st40{clip-path:url(#SVGID_00000095316342227273134760000009896019480090232253_);fill:#2B2961;}
	.st41{clip-path:url(#SVGID_00000127757847993147289310000001095364257568887683_);fill:#6796CF;}
	.st42{clip-path:url(#SVGID_00000127757847993147289310000001095364257568887683_);fill:#2B2961;}
	.st43{clip-path:url(#SVGID_00000158744273812720025790000000198764407978712756_);fill:#2B2961;}
	.st44{clip-path:url(#SVGID_00000173131055780666306660000009439033441510139046_);fill:#6796CF;}
	.st45{clip-path:url(#SVGID_00000173131055780666306660000009439033441510139046_);fill:#2B2961;}
	.st46{clip-path:url(#SVGID_00000118391524165428469310000003541264135431578519_);fill:#2B2961;}
	.st47{clip-path:url(#SVGID_00000113336858269209299050000013482897477263787452_);fill:#2B2961;}
	.st48{clip-path:url(#SVGID_00000113336858269209299050000013482897477263787452_);fill:#6796CF;}
	.st49{clip-path:url(#SVGID_00000112627169914602260480000003359912176170802093_);fill:#2B2961;}
	.st50{clip-path:url(#SVGID_00000152972756860935605160000015218622174829295779_);fill:#2B2961;}
	.st51{clip-path:url(#SVGID_00000049223537864606729340000014596335031012883093_);fill:#2B2961;}
	.st52{clip-path:url(#SVGID_00000049223537864606729340000014596335031012883093_);fill:#6796CF;}
	.st53{clip-path:url(#SVGID_00000032642584303401770770000009894547167539964844_);fill:#2B2961;}
	.st54{clip-path:url(#SVGID_00000129195890289979584740000017005604540420314545_);fill:#2B2961;}
	.st55{clip-path:url(#SVGID_00000044869068179420601030000008399193317698711444_);fill:#2B2961;}
	.st56{clip-path:url(#SVGID_00000019653419331378437220000003292856040568963754_);fill:#2B2961;}
	.st57{clip-path:url(#SVGID_00000116948210205869992940000012641392095720170120_);fill:#6796CF;}
	.st58{clip-path:url(#SVGID_00000044164480407979764310000015004163522316546190_);fill:#2B2961;}
	.st59{clip-path:url(#SVGID_00000136401688371466148820000007156855073831934082_);fill:#2B2961;}
	.st60{clip-path:url(#SVGID_00000007391432441832162380000011626402501719848115_);fill:#6796CF;}
	.st61{clip-path:url(#SVGID_00000161609194132287570700000012262651767948163257_);fill:#2B2961;}
	.st62{clip-path:url(#SVGID_00000120548308866303807760000000150692402009884582_);fill:#2B2961;}
	.st63{clip-path:url(#SVGID_00000120548308866303807760000000150692402009884582_);fill:#6796CF;}
	.st64{clip-path:url(#SVGID_00000023282230808521571250000011963526596067539877_);fill:#2B2961;}
	.st65{clip-path:url(#SVGID_00000036972465786159602580000012665439499819118238_);fill:#6796CF;}
	.st66{clip-path:url(#SVGID_00000036972465786159602580000012665439499819118238_);fill:#2B2961;}
	.st67{clip-path:url(#SVGID_00000168832416659398716420000004170300670842032799_);fill:#2B2961;}
	.st68{clip-path:url(#SVGID_00000091711945570826850760000012886570622931226254_);fill:#2B2961;}
	.st69{clip-path:url(#SVGID_00000091711945570826850760000012886570622931226254_);fill:#6796CF;}
	.st70{clip-path:url(#SVGID_00000031188224314073533590000011219880955709463983_);fill:#2B2961;}
	.st71{clip-path:url(#SVGID_00000135655285492841486850000003995952000232254632_);fill:#2B2961;}
	.st72{clip-path:url(#SVGID_00000115477161745799887960000017040785419995614883_);fill:#2B2961;}
	.st73{clip-path:url(#SVGID_00000115477161745799887960000017040785419995614883_);fill:#6796CF;}
	.st74{clip-path:url(#SVGID_00000061433908631540018330000001069059297441781640_);fill:#2B2961;}
	.st75{clip-path:url(#SVGID_00000170982711442011932700000005242958784217441200_);fill:#2B2961;}
	.st76{clip-path:url(#SVGID_00000179621349123278237530000009357513117422486686_);fill:#2B2961;}
	.st77{clip-path:url(#SVGID_00000165207272241295681180000013671107909182989223_);fill:#2B2961;}
	.st78{clip-path:url(#SVGID_00000085240049916786487600000008128905950547260054_);fill:#6796CF;}
	.st79{clip-path:url(#SVGID_00000085240049916786487600000008128905950547260054_);fill:#2B2961;}
	.st80{clip-path:url(#SVGID_00000140705629870263955690000000683644442228958877_);fill:#FFFFFF;}
	.st81{clip-path:url(#SVGID_00000140705629870263955690000000683644442228958877_);fill:#2B2961;}
	.st82{clip-path:url(#SVGID_00000080199032267189780410000017973820110009788310_);fill:#2B2961;}
	.st83{clip-path:url(#SVGID_00000070821796183846774230000017041983210442148237_);fill:#2B2961;}
	.st84{clip-path:url(#SVGID_00000070821796183846774230000017041983210442148237_);fill:#6796CF;}
	.st85{clip-path:url(#SVGID_00000160155834998110652410000015787873925078270143_);fill:#2B2961;}
	.st86{clip-path:url(#SVGID_00000059993072046423724650000002857557800738685084_);fill:#2B2961;}
	.st87{clip-path:url(#SVGID_00000059993072046423724650000002857557800738685084_);fill:#FFFFFF;}
	.st88{clip-path:url(#SVGID_00000068663670837335270620000003689301699556514441_);fill:#6796CF;}
	.st89{clip-path:url(#SVGID_00000068663670837335270620000003689301699556514441_);fill:#2B2961;}
	.st90{clip-path:url(#SVGID_00000114049905287862794380000014248552483648057510_);fill:#2B2961;}
	.st91{clip-path:url(#SVGID_00000006707775978012341990000007037935540377725840_);fill:#2B2961;}
	.st92{clip-path:url(#SVGID_00000006707775978012341990000007037935540377725840_);fill:#6796CF;}
	.st93{clip-path:url(#SVGID_00000170973989510768082360000006863814224179882389_);fill:#2B2961;}
	.st94{clip-path:url(#SVGID_00000170973989510768082360000006863814224179882389_);fill:#FFFFFF;}
	.st95{clip-path:url(#SVGID_00000065070050233538996120000013146478043302109119_);fill:#6796CF;}
	.st96{clip-path:url(#SVGID_00000065070050233538996120000013146478043302109119_);fill:#2B2961;}
	.st97{clip-path:url(#SVGID_00000065070050233538996120000013146478043302109119_);fill:#FFFFFF;}
	.st98{clip-path:url(#SVGID_00000170989430341596088800000013565519201749334695_);fill:#2B2961;}
	.st99{clip-path:url(#SVGID_00000170989430341596088800000013565519201749334695_);fill:#6796CF;}
	.st100{clip-path:url(#SVGID_00000089573783665388389870000000122330133459731637_);fill:#2B2961;}
	.st101{clip-path:url(#SVGID_00000137822285507214476530000012283956197332266122_);fill:#2B2961;}
	.st102{clip-path:url(#SVGID_00000001653551632062122330000011440478023620827781_);fill:#2B2961;}
	.st103{clip-path:url(#SVGID_00000110459759528505882650000004723525476826341567_);fill:#2B2961;}
	.st104{clip-path:url(#SVGID_00000165223474932591749270000001170075093463744406_);fill:#2B2961;}
	.st105{clip-path:url(#SVGID_00000165920574070088038060000014735783802607834779_);fill:#FFFFFF;}
	.st106{clip-path:url(#SVGID_00000165920574070088038060000014735783802607834779_);fill:#2B2961;}
	.st107{clip-path:url(#SVGID_00000165920574070088038060000014735783802607834779_);fill:#6796CF;}
	.st108{clip-path:url(#SVGID_00000056403566923142698120000006083984881615602860_);fill:#FFFFFF;}
	.st109{clip-path:url(#SVGID_00000067948784216945613620000003978663589869506222_);fill:#2B2961;}
	.st110{clip-path:url(#SVGID_00000067948784216945613620000003978663589869506222_);fill:#FFFFFF;}
	.st111{clip-path:url(#SVGID_00000142888092000767250510000007479327579606062504_);fill:#2B2961;}
	.st112{clip-path:url(#SVGID_00000109747943508282439040000006176481678396418183_);fill:#2B2961;}
	.st113{clip-path:url(#SVGID_00000109747943508282439040000006176481678396418183_);fill:#6796CF;}
	.st114{clip-path:url(#SVGID_00000107557659622551768160000010641648891936972954_);fill:#2B2961;}
	.st115{clip-path:url(#SVGID_00000056389789766599101040000006194431720061473972_);fill:#2B2961;}
	.st116{clip-path:url(#SVGID_00000056389789766599101040000006194431720061473972_);fill:#FFFFFF;}
	.st117{clip-path:url(#SVGID_00000057109619801137426120000001553625675323295909_);fill:#6796CF;}
	.st118{clip-path:url(#SVGID_00000183247922446165839060000008553699519467989430_);fill:#2B2961;}
	.st119{clip-path:url(#SVGID_00000077297491706687011180000012107675017549840828_);fill:#2B2961;}
	.st120{clip-path:url(#SVGID_00000104667679937087584680000014580965513045765026_);fill:#FFFFFF;}
	.st121{clip-path:url(#SVGID_00000104667679937087584680000014580965513045765026_);fill:#2B2961;}
	.st122{clip-path:url(#SVGID_00000056397499769832088140000011404680840071035066_);fill:#FFFFFF;}
	.st123{clip-path:url(#SVGID_00000056397499769832088140000011404680840071035066_);fill:#2B2961;}
	.st124{clip-path:url(#SVGID_00000024690551505540806070000010404581053041966775_);fill:#6796CF;}
	.st125{clip-path:url(#SVGID_00000024690551505540806070000010404581053041966775_);fill:#2B2961;}
	.st126{clip-path:url(#SVGID_00000034795860196215740420000010052454498642591390_);fill:#2B2961;}
	.st127{clip-path:url(#SVGID_00000034795860196215740420000010052454498642591390_);fill:#6796CF;}
	.st128{clip-path:url(#SVGID_00000124874140741032766780000002935908983555376028_);fill:#6796CF;}
	.st129{clip-path:url(#SVGID_00000074412228259057235140000012213406351624428967_);fill:#2B2961;}
	.st130{clip-path:url(#SVGID_00000031921608071551034190000005259308745805203102_);fill:#2B2961;}
	.st131{clip-path:url(#SVGID_00000167365996358109507720000005138714135045858692_);fill:#2B2961;}
	.st132{clip-path:url(#SVGID_00000162310403008071560870000000798559273297790383_);fill:#2B2961;}
	.st133{clip-path:url(#SVGID_00000073680614668452786350000006172287520943497914_);fill:#2B2961;}
	.st134{clip-path:url(#SVGID_00000073680614668452786350000006172287520943497914_);fill:#6796CF;}
	.st135{clip-path:url(#SVGID_00000175297213359053581660000018293613725659505301_);fill:#6796CF;}
	.st136{clip-path:url(#SVGID_00000134958458107924314410000016570619609481194398_);fill:#2B2961;}
	.st137{clip-path:url(#SVGID_00000151525102728311566020000017249003281647370922_);fill:#2B2961;}
	.st138{clip-path:url(#SVGID_00000142858251115250184680000016359041647194872487_);fill:#2B2961;}
	.st139{clip-path:url(#SVGID_00000097490216638202071450000004672607890140110515_);fill:#2B2961;}
	.st140{clip-path:url(#SVGID_00000000193429395107273260000011686730177236167354_);fill:#6796CF;}
	.st141{clip-path:url(#SVGID_00000000193429395107273260000011686730177236167354_);fill:#2B2961;}
	.st142{clip-path:url(#SVGID_00000157266112166280558340000004184009954463762878_);fill:#2B2961;}
	.st143{clip-path:url(#SVGID_00000023278438689643461910000017234462254458517143_);fill:#2B2961;}
	.st144{clip-path:url(#SVGID_00000063602001011670703990000007156316886554449839_);fill:#2B2961;}
	.st145{clip-path:url(#SVGID_00000063602001011670703990000007156316886554449839_);fill:#6796CF;}
	.st146{clip-path:url(#SVGID_00000013894369063992756110000001204516474057998224_);}
	.st147{clip-path:url(#SVGID_00000013894369063992756110000001204516474057998224_);fill:#FFFFFF;}
	.st148{clip-path:url(#SVGID_00000013894369063992756110000001204516474057998224_);fill:#2B2961;}
	.st149{clip-path:url(#SVGID_00000033342125146670984670000006577083963911748251_);fill:#2B2961;}
	.st150{clip-path:url(#SVGID_00000055679417426092675720000015522965399171008151_);fill:#2B2961;}
	.st151{clip-path:url(#SVGID_00000055679417426092675720000015522965399171008151_);fill:#FFFFFF;}
	.st152{clip-path:url(#SVGID_00000055679417426092675720000015522965399171008151_);fill:#6796CF;}
	.st153{clip-path:url(#SVGID_00000170999365141780380680000010273110813571049118_);fill:#2B2961;}
	.st154{clip-path:url(#SVGID_00000010294248478040040140000004719968843333981887_);fill:#2B2961;}
	.st155{clip-path:url(#SVGID_00000173138160433041353570000014101674971444980413_);fill:#6796CF;}
	.st156{clip-path:url(#SVGID_00000173138160433041353570000014101674971444980413_);}
	.st157{clip-path:url(#SVGID_00000036958494271749861850000015057046631792440209_);fill:#2B2961;}
	.st158{clip-path:url(#SVGID_00000173138160433041353570000014101674971444980413_);fill:#FFFFFF;}
	.st159{clip-path:url(#SVGID_00000173138160433041353570000014101674971444980413_);fill:#2B2961;}
	.st160{opacity:0.52;clip-path:url(#SVGID_00000058578739624682438960000015440850213936454316_);}
	.st161{clip-path:url(#SVGID_00000110460081693836369150000001122021345123194025_);fill:#6796CF;}
	.st162{clip-path:url(#SVGID_00000031204349843444598970000004673334639510192299_);fill:#2B2961;}
	.st163{clip-path:url(#SVGID_00000061458559391083287920000017331558543753641150_);fill:#2B2961;}
	.st164{clip-path:url(#SVGID_00000038379690164033412880000015048045598587564167_);fill:#6796CF;}
	.st165{clip-path:url(#SVGID_00000038379690164033412880000015048045598587564167_);fill:#2B2961;}
	.st166{clip-path:url(#SVGID_00000018931716812056274400000001534351896477504423_);fill:#2B2961;}
	.st167{clip-path:url(#SVGID_00000027578894201972241790000006954177847439193474_);fill:#2B2961;}
	.st168{clip-path:url(#SVGID_00000169558118208260680150000005594293119879246522_);fill:#2B2961;}
	.st169{clip-path:url(#SVGID_00000134225167705538765330000004554266227703617935_);fill:#FFFFFF;}
	.st170{clip-path:url(#SVGID_00000134225167705538765330000004554266227703617935_);fill:#2B2961;}
	.st171{clip-path:url(#SVGID_00000134225167705538765330000004554266227703617935_);fill:#6796CF;}
	.st172{clip-path:url(#SVGID_00000041291824701538227450000012422637090476545446_);fill:#6796CF;}
	.st173{clip-path:url(#SVGID_00000002383860107066946140000000716391866439462327_);fill:#2B2961;}
	.st174{clip-path:url(#SVGID_00000115493306227213360220000006986832014928812931_);fill:#2B2961;}
	.st175{clip-path:url(#SVGID_00000115493306227213360220000006986832014928812931_);fill:#FFFFFF;}
	.st176{clip-path:url(#SVGID_00000116216146735689284720000006181855430781318059_);fill:#6796CF;}
	.st177{clip-path:url(#SVGID_00000116216146735689284720000006181855430781318059_);fill:#2B2961;}
	.st178{clip-path:url(#SVGID_00000134240552955352299260000013844984893142993311_);fill:#6796CF;}
	.st179{clip-path:url(#SVGID_00000134240552955352299260000013844984893142993311_);fill:#2B2961;}
	.st180{clip-path:url(#SVGID_00000178178684924850459490000001223762101777351324_);fill:#2B2961;}
	.st181{clip-path:url(#SVGID_00000103259427412847144860000009840367227060365700_);fill:#2B2961;}
	.st182{clip-path:url(#SVGID_00000165945334463968192960000005554445641387515566_);fill:#FFFFFF;}
	.st183{clip-path:url(#SVGID_00000122710474362638833700000013469246054825434294_);fill:#2B2961;}
	.st184{clip-path:url(#SVGID_00000138563886006067891430000011304319363981493147_);fill:#2B2961;}
	.st185{clip-path:url(#SVGID_00000138563886006067891430000011304319363981493147_);fill:#6796CF;}
	.st186{clip-path:url(#SVGID_00000028317817493114820380000009485603652147659426_);fill:#2B2961;}
	.st187{clip-path:url(#SVGID_00000070803002440786631980000015217186438557772438_);fill:#2B2961;}
	.st188{clip-path:url(#SVGID_00000129921390624108121830000018095952497358231737_);fill:#6796CF;}
	.st189{clip-path:url(#SVGID_00000080171438522364443790000017870362106513046155_);fill:#2B2961;}
	.st190{clip-path:url(#SVGID_00000116934425459583264490000018179329748842762394_);fill:#6796CF;}
	.st191{clip-path:url(#SVGID_00000076573022647734253220000003772090542554408635_);fill:#2B2961;}
	.st192{clip-path:url(#SVGID_00000039832743394771365590000012197195451953750705_);fill:#6796CF;}
	.st193{clip-path:url(#SVGID_00000013172374821108088970000003160797624956422533_);fill:#2B2961;}
	.st194{clip-path:url(#SVGID_00000137848160542905175020000011549919816306218169_);}
	.st195{clip-path:url(#SVGID_00000137848160542905175020000011549919816306218169_);fill:#2B2961;}
	.st196{clip-path:url(#SVGID_00000137848160542905175020000011549919816306218169_);fill:#FFFFFF;}
	.st197{clip-path:url(#SVGID_00000140708052908267592800000017106158338560652691_);fill:#2B2961;}
	.st198{clip-path:url(#SVGID_00000095315660404850413410000005397801091680636058_);fill:#2B2961;}
	.st199{clip-path:url(#SVGID_00000049223599209817365290000011689190483677642125_);fill:#2B2961;}
	.st200{clip-path:url(#SVGID_00000150093150933191519750000017068250463145667767_);fill:#2B2961;}
	.st201{clip-path:url(#SVGID_00000103247216929855560790000010126817482723483816_);fill:#2B2961;}
	.st202{clip-path:url(#SVGID_00000082342802093616123620000011482222130428090539_);fill:#2B2961;}
	.st203{clip-path:url(#SVGID_00000046331962448087772390000002516910060704731820_);fill:#2B2961;}
	.st204{clip-path:url(#SVGID_00000029767133515088856900000017977247323574613162_);fill:#2B2961;}
	.st205{clip-path:url(#SVGID_00000140706579794390991140000012598157953172214950_);fill:#2B2961;}
	.st206{clip-path:url(#SVGID_00000180336307801134013430000007034639200998719384_);fill:#FFFFFF;}
	.st207{clip-path:url(#SVGID_00000180336307801134013430000007034639200998719384_);fill:#2B2961;}
	.st208{clip-path:url(#SVGID_00000141421056466694764300000016841665538076397697_);fill:#6796CF;}
	.st209{clip-path:url(#SVGID_00000141421056466694764300000016841665538076397697_);fill:#2B2961;}
	.st210{clip-path:url(#SVGID_00000130605018048510924360000008301686524432363651_);fill:#2B2961;}
	.st211{clip-path:url(#SVGID_00000130605018048510924360000008301686524432363651_);fill:#FFFFFF;}
	.st212{clip-path:url(#SVGID_00000122679218419202703720000009647921098762588091_);fill:#6796CF;}
	.st213{clip-path:url(#SVGID_00000122679218419202703720000009647921098762588091_);fill:#2B2961;}
	.st214{clip-path:url(#SVGID_00000065764640276414498480000003376811819817599642_);fill:#6796CF;}
	.st215{clip-path:url(#SVGID_00000065764640276414498480000003376811819817599642_);fill:#2B2961;}
	.st216{clip-path:url(#SVGID_00000071530999448786851580000004720911894768454801_);}
	.st217{clip-path:url(#SVGID_00000039852598957623514230000002728929135242037413_);}
	.st218{clip-path:url(#SVGID_00000180349663968264768070000001072439647580128700_);}
	.st219{clip-path:url(#SVGID_00000029016569363187028060000007341256110307875221_);}
	.st220{clip-path:url(#SVGID_00000021096098566532103240000016068112258606255038_);}
	.st221{clip-path:url(#SVGID_00000150781662858438238520000007011190122104680864_);}
	.st222{clip-path:url(#SVGID_00000131343110303548605120000011269030616430945686_);}
	.st223{clip-path:url(#SVGID_00000083064091112089822290000016265977181438984856_);}
	.st224{clip-path:url(#SVGID_00000034782077920561458530000002370197468141821850_);}
	.st225{clip-path:url(#SVGID_00000100382386266189481730000017080307307692779137_);}
	.st226{clip-path:url(#SVGID_00000152943292128769570800000010162568834431097534_);}
	.st227{clip-path:url(#SVGID_00000118368170420741260460000001439469424154870701_);}
	.st228{clip-path:url(#SVGID_00000072998691060753655550000000117127426939802803_);}
	.st229{clip-path:url(#SVGID_00000174565360640601688030000000537348051113571716_);}
	.st230{clip-path:url(#SVGID_00000070801126415506710800000006967907374108819842_);fill:#2B2961;}
	.st231{clip-path:url(#SVGID_00000070801126415506710800000006967907374108819842_);fill:#6796CF;}
	.st232{fill:#A2B9E1;}
	.st233{clip-path:url(#SVGID_00000052068602344331058340000009435603865156375450_);}
	.st234{clip-path:url(#SVGID_00000042695103925160672720000012608999411030687116_);}
</style>
<g>
	<rect x="1.65" y="1.68" class="st2" width="56.95" height="37.33"/>
	<polygon class="st2" points="51.48,1.68 36.64,11.39 36.64,1.68 23.57,1.68 23.57,11.79 7.89,1.68 1.65,1.68 1.65,6.73 12.9,14.01 
		1.65,14.01 1.65,26.95 12.81,26.95 1.65,34.29 1.65,39.01 9.03,39.01 23.57,29.46 23.57,39.01 36.64,39.01 36.64,29.29 
		51.66,39.01 58.6,39.01 58.6,34.34 47.17,26.95 58.6,26.95 58.6,14.01 47.23,14.01 58.6,6.55 58.6,1.68 	"/>
	<polygon class="st2" points="19.85,13.89 1.65,1.68 1.65,4.9 15.25,13.89 	"/>
	<polygon class="st2" points="40.43,27.08 58.6,39.01 58.6,36.02 45.03,27.08 	"/>
	<polygon class="st2" points="23.45,27.08 19.7,27.08 1.65,39.01 5.97,39.01 23.45,27.66 	"/>
	<polygon class="st2" points="54.47,1.68 36.76,13.13 36.76,13.89 40.25,13.89 58.6,1.98 58.6,1.68 	"/>
	<polygon class="st2" points="26.37,1.68 26.37,16.76 1.65,16.76 1.65,24.2 26.37,24.2 26.37,39.01 33.84,39.01 33.84,24.2 
		58.6,24.2 58.6,16.76 33.84,16.76 33.84,1.68 	"/>
	<polygon class="st4" points="50.43,0.42 35.53,10.19 35.53,0.42 22.4,0.42 22.4,10.59 6.65,0.42 0.39,0.42 0.39,5.5 11.68,12.83 
		0.39,12.83 0.39,25.85 11.59,25.85 0.39,33.24 0.39,37.99 7.8,37.99 22.4,28.38 22.4,37.99 35.53,37.99 35.53,28.21 50.61,37.99 
		57.58,37.99 57.58,33.29 46.1,25.85 57.58,25.85 57.58,12.83 46.16,12.83 57.58,5.32 57.58,0.42 	"/>
	<g>
		<path class="st8" d="M57.58,38.19h-6.97c-0.04,0-0.08-0.01-0.11-0.03l-14.78-9.58v9.42c0,0.11-0.09,0.2-0.2,0.2H22.4
			c-0.11,0-0.2-0.09-0.2-0.2v-9.24L7.91,38.16c-0.03,0.02-0.07,0.03-0.11,0.03H0.39c-0.11,0-0.2-0.09-0.2-0.2v-4.76
			c0-0.07,0.03-0.13,0.09-0.17l10.65-7.02H0.39c-0.11,0-0.2-0.09-0.2-0.2V12.83c0-0.11,0.09-0.2,0.2-0.2h10.62L0.28,5.67
			C0.22,5.63,0.19,5.57,0.19,5.5V0.42c0-0.11,0.09-0.2,0.2-0.2h6.27c0.04,0,0.08,0.01,0.11,0.03l15.44,9.98V0.42
			c0-0.11,0.09-0.2,0.2-0.2h13.12c0.11,0,0.2,0.09,0.2,0.2v9.41l14.59-9.57c0.03-0.02,0.07-0.03,0.11-0.03h7.16
			c0.11,0,0.2,0.09,0.2,0.2v4.9c0,0.07-0.03,0.13-0.09,0.17l-10.86,7.15h10.75c0.11,0,0.2,0.09,0.2,0.2v13.02
			c0,0.11-0.09,0.2-0.2,0.2h-10.8l10.91,7.07c0.06,0.04,0.09,0.1,0.09,0.17v4.7C57.78,38.1,57.69,38.19,57.58,38.19z M50.67,37.79
			h6.71V33.4L46,26.02c-0.07-0.05-0.11-0.14-0.08-0.22c0.03-0.08,0.1-0.14,0.19-0.14h11.28V13.03H46.16c-0.09,0-0.17-0.06-0.19-0.14
			c-0.03-0.08,0.01-0.18,0.08-0.22l11.33-7.46V0.62h-6.9l-14.85,9.74c-0.06,0.04-0.14,0.04-0.21,0.01c-0.06-0.03-0.1-0.1-0.1-0.18
			V0.62H22.6v9.98c0,0.07-0.04,0.14-0.1,0.18c-0.06,0.03-0.14,0.03-0.2-0.01L6.59,0.62H0.59v4.77l11.2,7.28
			c0.07,0.05,0.11,0.14,0.08,0.22c-0.03,0.08-0.1,0.14-0.19,0.14H0.59v12.62h11c0.09,0,0.17,0.06,0.19,0.14
			c0.03,0.08-0.01,0.18-0.08,0.22L0.59,33.35v4.45h7.15l14.55-9.58c0.06-0.04,0.14-0.04,0.2-0.01c0.06,0.04,0.11,0.1,0.11,0.18v9.42
			h12.72v-9.58c0-0.07,0.04-0.14,0.1-0.18c0.07-0.03,0.14-0.03,0.2,0.01L50.67,37.79z"/>
	</g>
	<polygon class="st2" points="26.38,0 26.38,15.08 1.66,15.08 1.66,22.52 26.38,22.52 26.38,37.33 33.85,37.33 33.85,22.52 
		58.61,22.52 58.61,15.08 33.85,15.08 33.85,0 	"/>
	<polygon class="st2" points="54.47,0.54 36.76,11.99 36.76,12.75 40.25,12.75 58.6,0.84 58.6,0.54 	"/>
	<polygon class="st2" points="1.65,3.76 15.25,12.75 19.85,12.75 1.65,0.54 	"/>
	<polygon class="st2" points="23.45,25.94 19.7,25.94 1.65,37.87 5.97,37.87 23.45,26.52 	"/>
	<polygon class="st2" points="40.43,25.94 58.6,37.87 58.6,34.88 45.03,25.94 	"/>
	<g>
		<path class="st8" d="M57.67,38.38H0.3c-0.17,0-0.3-0.13-0.3-0.3V0.33c0-0.17,0.13-0.3,0.3-0.3h57.37c0.17,0,0.3,0.13,0.3,0.3
			v37.75C57.97,38.25,57.84,38.38,57.67,38.38z M0.6,37.78h56.77V0.63H0.6V37.78z"/>
		<path class="st8" d="M18.84,13.07h-4.67c-0.04,0-0.08-0.01-0.11-0.03L0.28,3.87C0.22,3.83,0.19,3.77,0.19,3.7V0.42
			c0-0.07,0.04-0.14,0.11-0.18C0.36,0.21,0.44,0.21,0.5,0.25L18.95,12.7c0.07,0.05,0.1,0.14,0.08,0.22
			C19,13.01,18.92,13.07,18.84,13.07z M14.23,12.67h3.95L0.59,0.79v2.8L14.23,12.67z"/>
	</g>
	<path class="st8" d="M57.58,38.19c-0.04,0-0.08-0.01-0.11-0.03L39.05,25.98c-0.07-0.05-0.11-0.14-0.08-0.22s0.1-0.14,0.19-0.14
		h4.67c0.04,0,0.08,0.01,0.11,0.03l13.76,9.12c0.06,0.04,0.09,0.1,0.09,0.17v3.06c0,0.07-0.04,0.14-0.11,0.18
		C57.65,38.18,57.62,38.19,57.58,38.19z M39.83,26.02l17.56,11.61v-2.58l-13.62-9.03H39.83z"/>
	<g>
		<path class="st8" d="M4.76,38.19H0.39c-0.09,0-0.17-0.06-0.19-0.14c-0.03-0.08,0.01-0.18,0.08-0.22l18.26-12.18
			c0.03-0.02,0.07-0.03,0.11-0.03h3.79c0.11,0,0.2,0.09,0.2,0.2v0.6c0,0.07-0.03,0.13-0.09,0.17L4.87,38.16
			C4.84,38.18,4.8,38.19,4.76,38.19z M1.05,37.79H4.7l17.54-11.49v-0.29H18.7L1.05,37.79z"/>
		<path class="st8" d="M39.03,13.07H35.5c-0.11,0-0.2-0.09-0.2-0.2V12.1c0-0.07,0.03-0.13,0.09-0.17L53.3,0.25
			c0.03-0.02,0.07-0.03,0.11-0.03h4.18c0.11,0,0.2,0.09,0.2,0.2v0.3c0,0.07-0.03,0.13-0.09,0.17L39.14,13.03
			C39.1,13.06,39.07,13.07,39.03,13.07z M35.7,12.67h3.27L57.38,0.62h-3.91L35.7,12.21V12.67z"/>
		<path class="st8" d="M32.72,38.19h-7.5c-0.11,0-0.2-0.09-0.2-0.2V23.29H0.39c-0.11,0-0.2-0.09-0.2-0.2V15.6
			c0-0.11,0.09-0.2,0.2-0.2h24.63V0.42c0-0.11,0.09-0.2,0.2-0.2h7.5c0.11,0,0.2,0.09,0.2,0.2V15.4h24.67c0.11,0,0.2,0.09,0.2,0.2
			v7.49c0,0.11-0.09,0.2-0.2,0.2H32.92v14.71C32.92,38.1,32.83,38.19,32.72,38.19z M25.42,37.79h7.1V23.09c0-0.11,0.09-0.2,0.2-0.2
			h24.67V15.8H32.72c-0.11,0-0.2-0.09-0.2-0.2V0.62h-7.1V15.6c0,0.11-0.09,0.2-0.2,0.2H0.59v7.09h24.63c0.11,0,0.2,0.09,0.2,0.2
			V37.79z"/>
		<path class="st8" d="M0.31,64.64c-0.17,0-0.3-0.13-0.3-0.3V36.59c0-0.17,0.13-0.3,0.3-0.3s0.3,0.13,0.3,0.3v27.75
			C0.6,64.51,0.47,64.64,0.31,64.64z"/>
	</g>
</g>
</svg>
