<?xml version="1.0" encoding="utf-8"?>
<!-- Generator: Adobe Illustrator 26.0.2, SVG Export Plug-In . SVG Version: 6.00 Build 0)  -->
<svg version="1.1" id="Ebene_1" xmlns="http://www.w3.org/2000/svg" xmlns:xlink="http://www.w3.org/1999/xlink" x="0px" y="0px"
	 viewBox="0 0 45.7 62.62" style="enable-background:new 0 0 45.7 62.62;" xml:space="preserve">
<style type="text/css">
	.st0{clip-path:url(#SVGID_00000106840776144383814450000016559988207808506537_);fill:#6796CF;}
	.st1{clip-path:url(#SVGID_00000106840776144383814450000016559988207808506537_);fill:#2B2961;}
	.st2{fill:#6796CF;}
	.st3{clip-path:url(#SVGID_00000110437968566884931560000000255896391789303486_);fill:#2B2961;}
	.st4{fill:#FFFFFF;}
	.st5{clip-path:url(#SVGID_00000062173947968097875080000001088551132844847530_);fill:#2B2961;}
	.st6{clip-path:url(#SVGID_00000058550294738849460010000006457612835698013314_);fill:#2B2961;}
	.st7{clip-path:url(#SVGID_00000181801022016672844850000005125234934573043380_);fill:#2B2961;}
	.st8{fill:#2B2961;}
	.st9{clip-path:url(#SVGID_00000072279435849146032550000011106461993344339642_);fill:#6796CF;}
	.st10{clip-path:url(#SVGID_00000072279435849146032550000011106461993344339642_);fill:#2B2961;}
	.st11{clip-path:url(#SVGID_00000023983196393686072300000008885755318609842347_);fill:#2B2961;}
	.st12{clip-path:url(#SVGID_00000039133306643868378520000005370056403774100616_);fill:#2B2961;}
	.st13{clip-path:url(#SVGID_00000039133306643868378520000005370056403774100616_);fill:#6796CF;}
	.st14{clip-path:url(#SVGID_00000011747813178856959100000014021028091200595389_);fill:#2B2961;}
	.st15{clip-path:url(#SVGID_00000129173487020172914600000012128007900694725794_);fill:#2B2961;}
	.st16{clip-path:url(#SVGID_00000061448429052327824670000009886383684777100418_);fill:#2B2961;}
	.st17{clip-path:url(#SVGID_00000061448429052327824670000009886383684777100418_);fill:#6796CF;}
	.st18{clip-path:url(#SVGID_00000023967910515782238350000011922743236635340423_);fill:#2B2961;}
	.st19{clip-path:url(#SVGID_00000057847153949489250960000016356650823875843263_);fill:#2B2961;}
	.st20{clip-path:url(#SVGID_00000070829161206488925050000000048819001383631261_);fill:#2B2961;}
	.st21{clip-path:url(#SVGID_00000013902113420143850330000006445071952501109679_);fill:#2B2961;}
	.st22{clip-path:url(#SVGID_00000083078066572322736540000004204854240327014528_);fill:#6796CF;}
	.st23{clip-path:url(#SVGID_00000083078066572322736540000004204854240327014528_);fill:#2B2961;}
	.st24{clip-path:url(#SVGID_00000023996761909251957540000001100558165289892742_);fill:#2B2961;}
	.st25{clip-path:url(#SVGID_00000018207326236285062100000003586235038099173307_);fill:#2B2961;}
	.st26{clip-path:url(#SVGID_00000018207326236285062100000003586235038099173307_);fill:#6796CF;}
	.st27{clip-path:url(#SVGID_00000171715813934459298250000016074516896085393844_);fill:#2B2961;}
	.st28{clip-path:url(#SVGID_00000142136218895321486130000003597739300482753687_);fill:#2B2961;}
	.st29{clip-path:url(#SVGID_00000114045069361997600210000008471720369959659911_);fill:#2B2961;}
	.st30{clip-path:url(#SVGID_00000114045069361997600210000008471720369959659911_);fill:#6796CF;}
	.st31{clip-path:url(#SVGID_00000084526497469891267900000005580692655478682047_);fill:#2B2961;}
	.st32{clip-path:url(#SVGID_00000179632231851343456730000014639387027431474623_);fill:#6796CF;}
	.st33{clip-path:url(#SVGID_00000179632231851343456730000014639387027431474623_);fill:#2B2961;}
	.st34{clip-path:url(#SVGID_00000013914631317027060590000010645152102816764593_);fill:#2B2961;}
	.st35{clip-path:url(#SVGID_00000013914631317027060590000010645152102816764593_);fill:#6796CF;}
	.st36{clip-path:url(#SVGID_00000179646949316859087000000008468604297669966733_);fill:#2B2961;}
	.st37{clip-path:url(#SVGID_00000091710144450702408690000013560634080017032842_);fill:#FFFFFF;}
	.st38{clip-path:url(#SVGID_00000091710144450702408690000013560634080017032842_);fill:#2B2961;}
	.st39{clip-path:url(#SVGID_00000143590199878337469120000008263101635492691593_);fill:#FFFFFF;}
	.st40{clip-path:url(#SVGID_00000143590199878337469120000008263101635492691593_);fill:#2B2961;}
	.st41{clip-path:url(#SVGID_00000031894824644448864720000007286225935640632206_);fill:#6796CF;}
	.st42{clip-path:url(#SVGID_00000031894824644448864720000007286225935640632206_);fill:#2B2961;}
	.st43{clip-path:url(#SVGID_00000072963153812272943390000004487807121467339196_);fill:#2B2961;}
	.st44{clip-path:url(#SVGID_00000061450934419926913010000001938039535134033822_);fill:#6796CF;}
	.st45{clip-path:url(#SVGID_00000061450934419926913010000001938039535134033822_);fill:#2B2961;}
	.st46{clip-path:url(#SVGID_00000094604867243387514360000016451108246744156554_);fill:#2B2961;}
	.st47{clip-path:url(#SVGID_00000110452761241208432670000000761218190755578552_);fill:#2B2961;}
	.st48{clip-path:url(#SVGID_00000110452761241208432670000000761218190755578552_);fill:#6796CF;}
	.st49{clip-path:url(#SVGID_00000091013588803234501000000009799450475009215155_);fill:#2B2961;}
	.st50{clip-path:url(#SVGID_00000057128987678621928500000015244705604865095606_);fill:#2B2961;}
	.st51{clip-path:url(#SVGID_00000089557322904888828700000015657354030977679021_);fill:#2B2961;}
	.st52{clip-path:url(#SVGID_00000089557322904888828700000015657354030977679021_);fill:#6796CF;}
	.st53{clip-path:url(#SVGID_00000013154540120826987930000001492930164504710293_);fill:#2B2961;}
	.st54{clip-path:url(#SVGID_00000032645557893283323370000011549802058423062447_);fill:#2B2961;}
	.st55{clip-path:url(#SVGID_00000107557363700052684740000004449913742010590879_);fill:#2B2961;}
	.st56{clip-path:url(#SVGID_00000063595496145428013250000013205713227016508827_);fill:#2B2961;}
	.st57{clip-path:url(#SVGID_00000177473937162314353170000004773225293668900281_);fill:#6796CF;}
	.st58{clip-path:url(#SVGID_00000173155405119423480970000007389354602151627417_);fill:#2B2961;}
	.st59{clip-path:url(#SVGID_00000004523672176672235500000014853177860646797721_);fill:#2B2961;}
	.st60{clip-path:url(#SVGID_00000137128190826751680920000002038561636326741146_);fill:#6796CF;}
	.st61{clip-path:url(#SVGID_00000127741954387588683450000007265048350448417160_);fill:#2B2961;}
	.st62{clip-path:url(#SVGID_00000128443136830591324600000015350581423181413792_);fill:#2B2961;}
	.st63{clip-path:url(#SVGID_00000128443136830591324600000015350581423181413792_);fill:#6796CF;}
	.st64{clip-path:url(#SVGID_00000012443621633952493330000001840009821066252982_);fill:#2B2961;}
	.st65{clip-path:url(#SVGID_00000165214345168844993850000000146993596376118685_);fill:#6796CF;}
	.st66{clip-path:url(#SVGID_00000165214345168844993850000000146993596376118685_);fill:#2B2961;}
	.st67{clip-path:url(#SVGID_00000143585768179821386620000013407592591177213588_);fill:#2B2961;}
	.st68{clip-path:url(#SVGID_00000024701041523015101280000014913869218276756129_);fill:#2B2961;}
	.st69{clip-path:url(#SVGID_00000024701041523015101280000014913869218276756129_);fill:#6796CF;}
	.st70{clip-path:url(#SVGID_00000129199803230883511000000003919588037852376224_);fill:#2B2961;}
	.st71{clip-path:url(#SVGID_00000080190572299158058780000006834300040153777049_);fill:#2B2961;}
	.st72{clip-path:url(#SVGID_00000135690157010854331610000011964568738210937478_);fill:#2B2961;}
	.st73{clip-path:url(#SVGID_00000135690157010854331610000011964568738210937478_);fill:#6796CF;}
	.st74{clip-path:url(#SVGID_00000011717864556373367470000001683623279960410291_);fill:#2B2961;}
	.st75{clip-path:url(#SVGID_00000127005839891604905370000009928401850090288831_);fill:#2B2961;}
	.st76{clip-path:url(#SVGID_00000137096491077745967440000002599275941952759183_);fill:#2B2961;}
	.st77{clip-path:url(#SVGID_00000155107267670141665930000000283658287286349458_);fill:#2B2961;}
	.st78{clip-path:url(#SVGID_00000046340455464183624290000012040789595608465843_);fill:#6796CF;}
	.st79{clip-path:url(#SVGID_00000046340455464183624290000012040789595608465843_);fill:#2B2961;}
	.st80{clip-path:url(#SVGID_00000019642877489319393510000005951222905225387661_);fill:#FFFFFF;}
	.st81{clip-path:url(#SVGID_00000019642877489319393510000005951222905225387661_);fill:#2B2961;}
	.st82{clip-path:url(#SVGID_00000168082251601879766430000010866799669435711364_);fill:#2B2961;}
	.st83{clip-path:url(#SVGID_00000163057667379274386190000004565011093908836225_);fill:#2B2961;}
	.st84{clip-path:url(#SVGID_00000163057667379274386190000004565011093908836225_);fill:#6796CF;}
	.st85{clip-path:url(#SVGID_00000047769827505847788410000006241433405875562416_);fill:#2B2961;}
	.st86{clip-path:url(#SVGID_00000081620730515327251910000005683843828625339838_);fill:#2B2961;}
	.st87{clip-path:url(#SVGID_00000081620730515327251910000005683843828625339838_);fill:#FFFFFF;}
	.st88{clip-path:url(#SVGID_00000025402084511948329600000003878712590051704979_);fill:#6796CF;}
	.st89{clip-path:url(#SVGID_00000025402084511948329600000003878712590051704979_);fill:#2B2961;}
	.st90{clip-path:url(#SVGID_00000098900698499818837480000008763292459059780774_);fill:#2B2961;}
	.st91{clip-path:url(#SVGID_00000007396654796339491190000016522240967250556038_);fill:#2B2961;}
	.st92{clip-path:url(#SVGID_00000007396654796339491190000016522240967250556038_);fill:#6796CF;}
	.st93{clip-path:url(#SVGID_00000155850007182906409610000009372033604649594527_);fill:#2B2961;}
	.st94{clip-path:url(#SVGID_00000155850007182906409610000009372033604649594527_);fill:#FFFFFF;}
	.st95{clip-path:url(#SVGID_00000106850754636021873600000012729057551068843187_);fill:#6796CF;}
	.st96{clip-path:url(#SVGID_00000106850754636021873600000012729057551068843187_);fill:#2B2961;}
	.st97{clip-path:url(#SVGID_00000106850754636021873600000012729057551068843187_);fill:#FFFFFF;}
	.st98{clip-path:url(#SVGID_00000149375651026932188190000016955264856383974323_);fill:#2B2961;}
	.st99{clip-path:url(#SVGID_00000149375651026932188190000016955264856383974323_);fill:#6796CF;}
	.st100{clip-path:url(#SVGID_00000155850644957318517840000003434536468071874207_);fill:#2B2961;}
	.st101{clip-path:url(#SVGID_00000109715610031142786210000011212274796025942919_);fill:#2B2961;}
	.st102{clip-path:url(#SVGID_00000166673864046340626600000000422966675537941160_);fill:#2B2961;}
	.st103{clip-path:url(#SVGID_00000041297425923346597320000011264960186801733537_);fill:#2B2961;}
	.st104{clip-path:url(#SVGID_00000129887925320439439230000007485787284682977688_);fill:#2B2961;}
	.st105{clip-path:url(#SVGID_00000170969886427733406500000014358004671271412654_);fill:#FFFFFF;}
	.st106{clip-path:url(#SVGID_00000170969886427733406500000014358004671271412654_);fill:#2B2961;}
	.st107{clip-path:url(#SVGID_00000170969886427733406500000014358004671271412654_);fill:#6796CF;}
	.st108{clip-path:url(#SVGID_00000047772963671003427940000008855610624040188836_);fill:#FFFFFF;}
	.st109{clip-path:url(#SVGID_00000036937448744686085390000010494928794068363443_);fill:#2B2961;}
	.st110{clip-path:url(#SVGID_00000036937448744686085390000010494928794068363443_);fill:#FFFFFF;}
	.st111{clip-path:url(#SVGID_00000091705890348823690360000017634788083439079046_);fill:#2B2961;}
	.st112{clip-path:url(#SVGID_00000078014518941373092260000000058606571496029079_);fill:#2B2961;}
	.st113{clip-path:url(#SVGID_00000078014518941373092260000000058606571496029079_);fill:#6796CF;}
	.st114{clip-path:url(#SVGID_00000177455999261415429640000008912215250376846516_);fill:#2B2961;}
	.st115{clip-path:url(#SVGID_00000018953256342726633060000010604504136638009735_);fill:#2B2961;}
	.st116{clip-path:url(#SVGID_00000018953256342726633060000010604504136638009735_);fill:#FFFFFF;}
	.st117{clip-path:url(#SVGID_00000036237829968218628710000006237594864583561370_);fill:#6796CF;}
	.st118{clip-path:url(#SVGID_00000168081994071694079890000007627199247908483977_);fill:#2B2961;}
	.st119{clip-path:url(#SVGID_00000181781156020855604720000014850391381471482266_);fill:#2B2961;}
	.st120{clip-path:url(#SVGID_00000006691118749594714600000001259357495602633137_);fill:#FFFFFF;}
	.st121{clip-path:url(#SVGID_00000006691118749594714600000001259357495602633137_);fill:#2B2961;}
	.st122{clip-path:url(#SVGID_00000053514669784450599850000014060293162420222859_);fill:#FFFFFF;}
	.st123{clip-path:url(#SVGID_00000053514669784450599850000014060293162420222859_);fill:#2B2961;}
	.st124{clip-path:url(#SVGID_00000065773409598760445710000015079883215023440025_);fill:#6796CF;}
	.st125{clip-path:url(#SVGID_00000065773409598760445710000015079883215023440025_);fill:#2B2961;}
	.st126{clip-path:url(#SVGID_00000122000113194598218640000011090292726677974974_);fill:#2B2961;}
	.st127{clip-path:url(#SVGID_00000122000113194598218640000011090292726677974974_);fill:#6796CF;}
	.st128{clip-path:url(#SVGID_00000079452209145576665520000015344330718678929536_);fill:#6796CF;}
	.st129{clip-path:url(#SVGID_00000073714946741478229300000010211781470552730766_);fill:#2B2961;}
	.st130{clip-path:url(#SVGID_00000150806436641341845640000008047984906005134269_);fill:#2B2961;}
	.st131{clip-path:url(#SVGID_00000066512232412529567180000013641883729564954772_);fill:#2B2961;}
	.st132{clip-path:url(#SVGID_00000178885252297931069380000005260376907290519695_);fill:#2B2961;}
	.st133{clip-path:url(#SVGID_00000050627318594431840850000009544461131342027392_);fill:#2B2961;}
	.st134{clip-path:url(#SVGID_00000050627318594431840850000009544461131342027392_);fill:#6796CF;}
	.st135{clip-path:url(#SVGID_00000168111957657889369770000016779441345957859758_);fill:#6796CF;}
	.st136{clip-path:url(#SVGID_00000029014722043694509260000005494452694208727201_);fill:#2B2961;}
	.st137{clip-path:url(#SVGID_00000075156262426418896770000005973277153865632644_);fill:#2B2961;}
	.st138{clip-path:url(#SVGID_00000070115336400411110060000010921357598737118366_);fill:#2B2961;}
	.st139{clip-path:url(#SVGID_00000080167694467665674820000000721496238394935487_);fill:#2B2961;}
	.st140{clip-path:url(#SVGID_00000025423848694189886830000004822444450286981293_);fill:#6796CF;}
	.st141{clip-path:url(#SVGID_00000025423848694189886830000004822444450286981293_);fill:#2B2961;}
	.st142{clip-path:url(#SVGID_00000149365974692427866050000008816196669012091066_);fill:#2B2961;}
	.st143{clip-path:url(#SVGID_00000005245300945002193100000000554213012454238606_);fill:#2B2961;}
	.st144{clip-path:url(#SVGID_00000013908913100541269160000002997677259741409194_);fill:#2B2961;}
	.st145{clip-path:url(#SVGID_00000013908913100541269160000002997677259741409194_);fill:#6796CF;}
	.st146{clip-path:url(#SVGID_00000065765633993722211410000008580819490025878402_);}
	.st147{clip-path:url(#SVGID_00000065765633993722211410000008580819490025878402_);fill:#FFFFFF;}
	.st148{clip-path:url(#SVGID_00000065765633993722211410000008580819490025878402_);fill:#2B2961;}
	.st149{clip-path:url(#SVGID_00000127724944464438983520000006213265163021770632_);fill:#2B2961;}
	.st150{clip-path:url(#SVGID_00000169525963305291694100000005285160854890822584_);fill:#2B2961;}
	.st151{clip-path:url(#SVGID_00000169525963305291694100000005285160854890822584_);fill:#FFFFFF;}
	.st152{clip-path:url(#SVGID_00000169525963305291694100000005285160854890822584_);fill:#6796CF;}
	.st153{clip-path:url(#SVGID_00000122692538288519588190000006009185358650282398_);fill:#2B2961;}
	.st154{clip-path:url(#SVGID_00000174589731645688324600000015830244312199382402_);fill:#2B2961;}
	.st155{clip-path:url(#SVGID_00000127749926462903888750000011176733208477986437_);fill:#6796CF;}
	.st156{clip-path:url(#SVGID_00000127749926462903888750000011176733208477986437_);}
	.st157{clip-path:url(#SVGID_00000096024566284348280490000000789153593293973142_);fill:#2B2961;}
	.st158{clip-path:url(#SVGID_00000127749926462903888750000011176733208477986437_);fill:#FFFFFF;}
	.st159{clip-path:url(#SVGID_00000127749926462903888750000011176733208477986437_);fill:#2B2961;}
	.st160{opacity:0.52;clip-path:url(#SVGID_00000052093637176126086850000007265265130909560741_);}
	.st161{clip-path:url(#SVGID_00000065785173662027194720000015002522306696365739_);fill:#6796CF;}
	.st162{clip-path:url(#SVGID_00000070802755722942066560000007265533328900280196_);fill:#2B2961;}
	.st163{clip-path:url(#SVGID_00000154412754027314065610000009622499026726738323_);fill:#2B2961;}
	.st164{clip-path:url(#SVGID_00000183218932585558937490000001530340774798124713_);fill:#6796CF;}
	.st165{clip-path:url(#SVGID_00000183218932585558937490000001530340774798124713_);fill:#2B2961;}
	.st166{clip-path:url(#SVGID_00000147215297474399384210000008794668951620976768_);fill:#2B2961;}
	.st167{clip-path:url(#SVGID_00000033370909482845065010000018418924950557540242_);fill:#2B2961;}
	.st168{clip-path:url(#SVGID_00000100357195256859287670000007952571609842763410_);fill:#2B2961;}
	.st169{clip-path:url(#SVGID_00000072246940713082960620000005549610081051184280_);fill:#FFFFFF;}
	.st170{clip-path:url(#SVGID_00000072246940713082960620000005549610081051184280_);fill:#2B2961;}
	.st171{clip-path:url(#SVGID_00000072246940713082960620000005549610081051184280_);fill:#6796CF;}
	.st172{clip-path:url(#SVGID_00000114755897253120274880000000093955164610743477_);fill:#6796CF;}
	.st173{clip-path:url(#SVGID_00000057837744335198236240000011354773897560852640_);fill:#2B2961;}
	.st174{clip-path:url(#SVGID_00000044150394767408358110000005701333376315802047_);fill:#2B2961;}
	.st175{clip-path:url(#SVGID_00000044150394767408358110000005701333376315802047_);fill:#FFFFFF;}
	.st176{clip-path:url(#SVGID_00000086664966853155969330000000228940002782591899_);fill:#6796CF;}
	.st177{clip-path:url(#SVGID_00000086664966853155969330000000228940002782591899_);fill:#2B2961;}
	.st178{clip-path:url(#SVGID_00000130608870022343577380000006556086855940630445_);fill:#6796CF;}
	.st179{clip-path:url(#SVGID_00000130608870022343577380000006556086855940630445_);fill:#2B2961;}
	.st180{clip-path:url(#SVGID_00000031201572730933192320000002700997106598408877_);fill:#2B2961;}
	.st181{clip-path:url(#SVGID_00000036211781310118432690000000519572811523197851_);fill:#2B2961;}
	.st182{clip-path:url(#SVGID_00000133499760303107100270000000500499933986706084_);fill:#FFFFFF;}
	.st183{clip-path:url(#SVGID_00000141451217952955996490000001491654757888688006_);fill:#2B2961;}
	.st184{clip-path:url(#SVGID_00000030462990069377739080000018185439158731600062_);fill:#2B2961;}
	.st185{clip-path:url(#SVGID_00000030462990069377739080000018185439158731600062_);fill:#6796CF;}
	.st186{clip-path:url(#SVGID_00000182509223288489415790000001432822205105670843_);fill:#2B2961;}
	.st187{clip-path:url(#SVGID_00000054250440577880591610000002067721380089105028_);fill:#2B2961;}
	.st188{clip-path:url(#SVGID_00000036211811244436299980000004172361752131507118_);fill:#6796CF;}
	.st189{clip-path:url(#SVGID_00000020357743796389554540000005855365801425860490_);fill:#2B2961;}
	.st190{clip-path:url(#SVGID_00000072270339563020346140000001043005146900518837_);fill:#6796CF;}
	.st191{clip-path:url(#SVGID_00000123435629940775803190000011125110153554657922_);fill:#2B2961;}
	.st192{clip-path:url(#SVGID_00000057134088586482482340000009219531009004736422_);fill:#6796CF;}
	.st193{clip-path:url(#SVGID_00000161590816821978519030000001210545558618042047_);fill:#2B2961;}
	.st194{clip-path:url(#SVGID_00000048475548930189829020000006185422486872115618_);}
	.st195{clip-path:url(#SVGID_00000048475548930189829020000006185422486872115618_);fill:#2B2961;}
	.st196{clip-path:url(#SVGID_00000048475548930189829020000006185422486872115618_);fill:#FFFFFF;}
	.st197{clip-path:url(#SVGID_00000005973558301819107630000015920130947170920588_);fill:#2B2961;}
	.st198{clip-path:url(#SVGID_00000078733904275781056920000001520705438969972390_);fill:#2B2961;}
	.st199{clip-path:url(#SVGID_00000083090290462531392320000005171253073424096936_);fill:#2B2961;}
	.st200{clip-path:url(#SVGID_00000082343383752616079780000009067889584213206458_);fill:#2B2961;}
	.st201{clip-path:url(#SVGID_00000038414377385647053420000016813264218492100251_);fill:#2B2961;}
	.st202{clip-path:url(#SVGID_00000089555760870512795720000003101849982934781312_);fill:#2B2961;}
	.st203{clip-path:url(#SVGID_00000131332912682754051610000009344389524747652765_);fill:#2B2961;}
	.st204{clip-path:url(#SVGID_00000075146828328866759030000004331330688105437084_);fill:#2B2961;}
	.st205{clip-path:url(#SVGID_00000048481979376848884060000003469483526149836960_);fill:#2B2961;}
	.st206{clip-path:url(#SVGID_00000104677666646848915650000018184939352772665274_);fill:#FFFFFF;}
	.st207{clip-path:url(#SVGID_00000104677666646848915650000018184939352772665274_);fill:#2B2961;}
	.st208{clip-path:url(#SVGID_00000094583491433652427140000018094051923962942604_);fill:#6796CF;}
	.st209{clip-path:url(#SVGID_00000094583491433652427140000018094051923962942604_);fill:#2B2961;}
	.st210{clip-path:url(#SVGID_00000017478724363399939210000016511037158080512404_);fill:#2B2961;}
	.st211{clip-path:url(#SVGID_00000017478724363399939210000016511037158080512404_);fill:#FFFFFF;}
	.st212{clip-path:url(#SVGID_00000093883480687793291170000005940163252916689808_);fill:#6796CF;}
	.st213{clip-path:url(#SVGID_00000093883480687793291170000005940163252916689808_);fill:#2B2961;}
	.st214{clip-path:url(#SVGID_00000178164211544071542990000012984060737071258506_);fill:#6796CF;}
	.st215{clip-path:url(#SVGID_00000178164211544071542990000012984060737071258506_);fill:#2B2961;}
	.st216{clip-path:url(#SVGID_00000176035551608200046320000001398493575891857572_);}
	.st217{clip-path:url(#SVGID_00000060751897825227866300000018134724538865656470_);}
	.st218{clip-path:url(#SVGID_00000043459050813147911610000010786018223329470143_);}
	.st219{clip-path:url(#SVGID_00000165945485150850394200000016462281038052991125_);}
	.st220{clip-path:url(#SVGID_00000178190533588169216380000016123556229024795290_);}
	.st221{clip-path:url(#SVGID_00000011016568543569033030000009685259394859378110_);}
	.st222{clip-path:url(#SVGID_00000080925519415805730190000003382619576999972762_);}
	.st223{clip-path:url(#SVGID_00000010272948877884609750000009050650595984386729_);}
	.st224{clip-path:url(#SVGID_00000089558448650607227870000013542472299630996096_);}
	.st225{clip-path:url(#SVGID_00000155146824506794037070000014255185494517316029_);}
	.st226{clip-path:url(#SVGID_00000083078727384542759190000015051342597065761460_);}
	.st227{clip-path:url(#SVGID_00000125597104160903236960000007938197879028277390_);}
	.st228{clip-path:url(#SVGID_00000067231691734563326650000008432465171869863072_);}
	.st229{clip-path:url(#SVGID_00000013889612679376271900000003256797785647394709_);}
	.st230{clip-path:url(#SVGID_00000052793913829406252260000012104493353770905995_);fill:#2B2961;}
	.st231{clip-path:url(#SVGID_00000052793913829406252260000012104493353770905995_);fill:#6796CF;}
	.st232{fill:#A2B9E1;}
	.st233{clip-path:url(#SVGID_00000062880535719333252330000005325568980336405148_);}
	.st234{clip-path:url(#SVGID_00000030478740771671958710000008915523966802327728_);}
</style>
<g>
	<polygon class="st2" points="1.62,0.31 1.62,58.06 30.92,58.06 41.51,42.78 41.51,0.31 	"/>
	<path class="st2" d="M30.98,58.18H1.5V0.19h40.13v42.63l-0.02,0.03L30.98,58.18z M1.74,57.94h29.12l10.53-15.2V0.43H1.74V57.94z"/>
	<g>
		<path class="st8" d="M41.22,58.42H0.28C0.12,58.42,0,58.29,0,58.14V0.28C0,0.12,0.12,0,0.28,0h40.94c0.15,0,0.28,0.12,0.28,0.28
			v57.86C41.49,58.29,41.37,58.42,41.22,58.42z M0.55,57.86h40.39V0.55H0.55V57.86z"/>
	</g>
	<polygon class="st4" points="4.46,4.46 4.46,62.32 37,62.32 45.4,53.93 45.4,4.46 	"/>
	<g>
		<path class="st8" d="M37,62.62H4.46c-0.17,0-0.3-0.13-0.3-0.3V4.46c0-0.17,0.13-0.3,0.3-0.3H45.4c0.17,0,0.3,0.13,0.3,0.3v49.47
			c0,0.08-0.03,0.16-0.09,0.21l-8.4,8.39C37.15,62.59,37.08,62.62,37,62.62z M4.76,62.02h32.12l8.22-8.21V4.76H4.76V62.02z"/>
	</g>
	<polygon class="st4" points="36.84,53.76 36.84,62.32 45.4,53.76 	"/>
	<g>
		<path class="st8" d="M36.84,62.6c-0.04,0-0.07-0.01-0.11-0.02c-0.1-0.04-0.17-0.14-0.17-0.26v-8.56c0-0.15,0.12-0.28,0.28-0.28
			h8.55c0.11,0,0.21,0.07,0.26,0.17c0.04,0.1,0.02,0.22-0.06,0.3l-8.55,8.56C36.99,62.57,36.92,62.6,36.84,62.6z M37.12,54.04v7.61
			l7.61-7.61H37.12z"/>
	</g>
	<polygon class="st2" points="37.59,54.05 37.59,61.75 45.4,54.05 	"/>
	<path class="st2" d="M37.47,62.04v-8.11h8.23L37.47,62.04z M37.71,54.17v7.3l7.41-7.3H37.71z"/>
	<g>
		<path class="st8" d="M36.84,62.6c-0.04,0-0.07-0.01-0.11-0.02c-0.1-0.04-0.17-0.14-0.17-0.26v-8.56c0-0.15,0.12-0.28,0.28-0.28
			h8.55c0.11,0,0.21,0.07,0.26,0.17c0.04,0.1,0.02,0.22-0.06,0.3l-8.55,8.56C36.99,62.57,36.92,62.6,36.84,62.6z M37.12,54.04v7.61
			l7.61-7.61H37.12z"/>
	</g>
	<polygon class="st4" points="10.15,47.87 20.86,42.58 40.37,21.42 33.82,15.65 14.3,36.89 	"/>
	<path class="st8" d="M10.15,48.16c-0.07,0-0.14-0.03-0.19-0.07c-0.09-0.08-0.12-0.2-0.08-0.31l4.14-10.98
		c0.01-0.03,0.03-0.07,0.06-0.09l19.52-21.24c0.1-0.12,0.28-0.12,0.4-0.02l6.55,5.76c0.06,0.05,0.09,0.12,0.1,0.2
		c0,0.08-0.02,0.15-0.08,0.21L21.07,42.77c-0.02,0.03-0.05,0.05-0.08,0.06l-10.71,5.29C10.24,48.15,10.2,48.16,10.15,48.16z
		 M14.55,37.05L10.68,47.3l10.01-4.95l19.28-20.91l-6.12-5.39L14.55,37.05z"/>
	<g>
		<path class="st2" d="M34.59,19.73l-17.24,18.7c-0.53,0.58-0.49,1.47,0.11,1.99c0.59,0.52,1.51,0.47,2.04-0.1l17.24-18.7
			L34.59,19.73z"/>
		<path class="st2" d="M18.42,40.9c-0.37,0-0.75-0.13-1.05-0.39c-0.31-0.27-0.5-0.65-0.52-1.06c-0.02-0.41,0.12-0.8,0.4-1.11
			l17.24-18.7c0.04-0.05,0.12-0.05,0.17-0.01l2.15,1.89c0.02,0.02,0.04,0.05,0.04,0.09c0,0.03-0.01,0.07-0.03,0.09L19.59,40.4
			C19.28,40.73,18.85,40.9,18.42,40.9z M34.6,19.9L17.44,38.51c-0.23,0.25-0.35,0.58-0.34,0.92c0.02,0.34,0.17,0.66,0.43,0.89
			c0.54,0.48,1.38,0.43,1.87-0.1l17.15-18.6L34.6,19.9z"/>
		<path class="st2" d="M14.29,43.68c-0.7-0.54-1.79-0.52-1.94-0.36l-1.57,4.34l4.49-2.23C15.27,45.43,15.53,44.65,14.29,43.68"/>
		<path class="st2" d="M10.78,47.78c-0.03,0-0.06-0.01-0.08-0.03c-0.04-0.03-0.05-0.09-0.03-0.14l1.58-4.34
			c0-0.02,0.01-0.03,0.03-0.04c0.22-0.24,1.4-0.2,2.11,0.35c1.29,1.01,1.03,1.85,1.02,1.88c-0.01,0.03-0.03,0.06-0.06,0.07
			l-4.49,2.23C10.82,47.78,10.8,47.78,10.78,47.78z M12.46,43.4l-1.46,4.01l4.16-2.07c0.02-0.17,0.03-0.8-0.94-1.56l0,0
			C13.6,43.3,12.64,43.3,12.46,43.4z"/>
	</g>
	<path class="st8" d="M10.15,48.17c-0.07,0-0.15-0.03-0.2-0.08c-0.09-0.08-0.12-0.21-0.08-0.33l4.14-10.98
		c0.01-0.04,0.03-0.07,0.06-0.1L33.6,15.45c0.11-0.12,0.3-0.13,0.42-0.02l6.55,5.76c0.06,0.05,0.1,0.13,0.1,0.21
		c0,0.08-0.02,0.16-0.08,0.22L21.08,42.78c-0.03,0.03-0.05,0.05-0.09,0.07l-10.71,5.29C10.25,48.16,10.2,48.17,10.15,48.17z
		 M14.56,37.06L10.7,47.27l9.97-4.93l19.27-20.9l-6.1-5.37L14.56,37.06z"/>
	<g>
		<path class="st8" d="M20.36,42.55c-0.39,0-0.78-0.14-1.1-0.41c-0.33-0.29-0.52-0.68-0.54-1.11c-0.01-0.15,0.01-0.31,0.04-0.45
			c-0.55,0.19-1.18,0.09-1.64-0.32c-0.33-0.29-0.52-0.68-0.54-1.12c-0.01-0.14,0-0.27,0.03-0.4c-0.56,0.21-1.22,0.12-1.69-0.3
			c-0.33-0.29-0.52-0.68-0.54-1.12c-0.02-0.43,0.13-0.84,0.42-1.16l0.29,0.27c-0.22,0.24-0.33,0.55-0.32,0.87
			c0.02,0.32,0.16,0.62,0.41,0.84c0.51,0.45,1.3,0.41,1.76-0.09l0,0c0.02-0.02,0.04-0.05,0.06-0.07l17.1-18.54l-1.99-1.75l0.26-0.3
			l6.48,5.7l-0.26,0.3l-2.04-1.8l-17.1,18.55c-0.22,0.24-0.33,0.55-0.32,0.87c0.02,0.32,0.16,0.62,0.41,0.84
			c0.51,0.45,1.3,0.41,1.76-0.09l0.29,0.27C21.26,42.37,20.81,42.55,20.36,42.55z M34.39,19.7l-17.1,18.54
			c-0.22,0.24-0.33,0.55-0.32,0.87c0.02,0.32,0.16,0.62,0.41,0.84c0.51,0.45,1.3,0.41,1.76-0.09l17.09-18.54L34.39,19.7z
			 M39.25,22.65l-6.48-5.7l0.26-0.3l6.48,5.7L39.25,22.65z"/>
	</g>
</g>
</svg>
