<?xml version="1.0" encoding="utf-8"?>
<!-- Generator: Adobe Illustrator 26.0.2, SVG Export Plug-In . SVG Version: 6.00 Build 0)  -->
<svg version="1.1" id="Ebene_1" xmlns="http://www.w3.org/2000/svg" xmlns:xlink="http://www.w3.org/1999/xlink" x="0px" y="0px"
	 viewBox="0 0 79.69 86.4" style="enable-background:new 0 0 79.69 86.4;" xml:space="preserve">
<style type="text/css">
	.st0{clip-path:url(#SVGID_00000086657594315646544850000010391695921166042555_);fill:#6796CF;}
	.st1{clip-path:url(#SVGID_00000086657594315646544850000010391695921166042555_);fill:#2B2961;}
	.st2{fill:#6796CF;}
	.st3{clip-path:url(#SVGID_00000089542824449636117400000007529528196128903808_);fill:#2B2961;}
	.st4{fill:#FFFFFF;}
	.st5{clip-path:url(#SVGID_00000061444319313417596260000001681897419422793881_);fill:#2B2961;}
	.st6{clip-path:url(#SVGID_00000146499823579585254020000011993189746942628010_);fill:#2B2961;}
	.st7{clip-path:url(#SVGID_00000150094462812430444500000003205237923340736953_);fill:#2B2961;}
	.st8{fill:#2B2961;}
	.st9{clip-path:url(#SVGID_00000079446323929933205790000014048301970040694679_);fill:#6796CF;}
	.st10{clip-path:url(#SVGID_00000079446323929933205790000014048301970040694679_);fill:#2B2961;}
	.st11{clip-path:url(#SVGID_00000127005297842489824180000012381015200463722409_);fill:#2B2961;}
	.st12{clip-path:url(#SVGID_00000051363876770997935360000004772740376289093516_);fill:#2B2961;}
	.st13{clip-path:url(#SVGID_00000051363876770997935360000004772740376289093516_);fill:#6796CF;}
	.st14{clip-path:url(#SVGID_00000085936170219502937390000007630820828202481323_);fill:#2B2961;}
	.st15{clip-path:url(#SVGID_00000155858578701650977160000017949778919936041890_);fill:#2B2961;}
	.st16{clip-path:url(#SVGID_00000139974368154042898090000005916550675228703678_);fill:#2B2961;}
	.st17{clip-path:url(#SVGID_00000139974368154042898090000005916550675228703678_);fill:#6796CF;}
	.st18{clip-path:url(#SVGID_00000039132813968107097830000003052297727355542446_);fill:#2B2961;}
	.st19{clip-path:url(#SVGID_00000049183215030720640590000000243181096180128396_);fill:#2B2961;}
	.st20{clip-path:url(#SVGID_00000127005998409876670610000012449289395251028144_);fill:#2B2961;}
	.st21{clip-path:url(#SVGID_00000173875613812015626160000017655277562219183492_);fill:#2B2961;}
	.st22{clip-path:url(#SVGID_00000046302228658332383250000003375604245777453996_);fill:#6796CF;}
	.st23{clip-path:url(#SVGID_00000046302228658332383250000003375604245777453996_);fill:#2B2961;}
	.st24{clip-path:url(#SVGID_00000085221033136239153700000018120852993876409004_);fill:#2B2961;}
	.st25{clip-path:url(#SVGID_00000150791496550949736430000001877024771460893590_);fill:#2B2961;}
	.st26{clip-path:url(#SVGID_00000150791496550949736430000001877024771460893590_);fill:#6796CF;}
	.st27{clip-path:url(#SVGID_00000168098901571064081080000008133016180416581511_);fill:#2B2961;}
	.st28{clip-path:url(#SVGID_00000115513080328193062350000015865592713844181694_);fill:#2B2961;}
	.st29{clip-path:url(#SVGID_00000054231376987896711440000015997835785922156691_);fill:#2B2961;}
	.st30{clip-path:url(#SVGID_00000054231376987896711440000015997835785922156691_);fill:#6796CF;}
	.st31{clip-path:url(#SVGID_00000131350855855637584480000015049313067126237067_);fill:#2B2961;}
	.st32{clip-path:url(#SVGID_00000021104065719831849540000005542369969487858609_);fill:#6796CF;}
	.st33{clip-path:url(#SVGID_00000021104065719831849540000005542369969487858609_);fill:#2B2961;}
	.st34{clip-path:url(#SVGID_00000112619260818445270180000002625060877593679020_);fill:#2B2961;}
	.st35{clip-path:url(#SVGID_00000112619260818445270180000002625060877593679020_);fill:#6796CF;}
	.st36{clip-path:url(#SVGID_00000169525839363772820890000002907263082003996343_);fill:#2B2961;}
	.st37{clip-path:url(#SVGID_00000018220499831578016690000012213642423934137256_);fill:#FFFFFF;}
	.st38{clip-path:url(#SVGID_00000018220499831578016690000012213642423934137256_);fill:#2B2961;}
	.st39{clip-path:url(#SVGID_00000178912352561821496840000003728366673904958130_);fill:#FFFFFF;}
	.st40{clip-path:url(#SVGID_00000178912352561821496840000003728366673904958130_);fill:#2B2961;}
	.st41{clip-path:url(#SVGID_00000062163020254931488250000013365410019150727824_);fill:#6796CF;}
	.st42{clip-path:url(#SVGID_00000062163020254931488250000013365410019150727824_);fill:#2B2961;}
	.st43{clip-path:url(#SVGID_00000082355751734981189420000001622578828859698307_);fill:#2B2961;}
	.st44{clip-path:url(#SVGID_00000170264148123466003650000002530516863737936319_);fill:#6796CF;}
	.st45{clip-path:url(#SVGID_00000170264148123466003650000002530516863737936319_);fill:#2B2961;}
	.st46{clip-path:url(#SVGID_00000127027851523896093480000015418034139677076924_);fill:#2B2961;}
	.st47{clip-path:url(#SVGID_00000124842132887095671060000009054371609183386552_);fill:#2B2961;}
	.st48{clip-path:url(#SVGID_00000124842132887095671060000009054371609183386552_);fill:#6796CF;}
	.st49{clip-path:url(#SVGID_00000129892773884175527670000006330252606164620962_);fill:#2B2961;}
	.st50{clip-path:url(#SVGID_00000165199855183236892060000010179991950217122977_);fill:#2B2961;}
	.st51{clip-path:url(#SVGID_00000018921913996204708280000014182606369839149231_);fill:#2B2961;}
	.st52{clip-path:url(#SVGID_00000018921913996204708280000014182606369839149231_);fill:#6796CF;}
	.st53{clip-path:url(#SVGID_00000168805908084860354930000012326653314009895066_);fill:#2B2961;}
	.st54{clip-path:url(#SVGID_00000075853935574663109810000015918201657414132637_);fill:#2B2961;}
	.st55{clip-path:url(#SVGID_00000108310442795148804710000013748346811062566844_);fill:#2B2961;}
	.st56{clip-path:url(#SVGID_00000011744449650896990850000017681437914653185161_);fill:#2B2961;}
	.st57{clip-path:url(#SVGID_00000052809812583176781780000004418155252212796325_);fill:#6796CF;}
	.st58{clip-path:url(#SVGID_00000051375501474943230400000008312775585419708327_);fill:#2B2961;}
	.st59{clip-path:url(#SVGID_00000027598504627894467510000006329516905091822782_);fill:#2B2961;}
	.st60{clip-path:url(#SVGID_00000137824050990858573180000003490112472378975883_);fill:#6796CF;}
	.st61{clip-path:url(#SVGID_00000108281346782064086580000016017848936478621568_);fill:#2B2961;}
	.st62{clip-path:url(#SVGID_00000150064332974194868480000011488710542800030603_);fill:#2B2961;}
	.st63{clip-path:url(#SVGID_00000150064332974194868480000011488710542800030603_);fill:#6796CF;}
	.st64{clip-path:url(#SVGID_00000058551958207066437770000012514729640481647749_);fill:#2B2961;}
	.st65{clip-path:url(#SVGID_00000139976448500138025280000003403498944546055564_);fill:#6796CF;}
	.st66{clip-path:url(#SVGID_00000139976448500138025280000003403498944546055564_);fill:#2B2961;}
	.st67{clip-path:url(#SVGID_00000005977931538162975770000006553641227643735983_);fill:#2B2961;}
	.st68{clip-path:url(#SVGID_00000164516462177728728780000003076515045649978038_);fill:#2B2961;}
	.st69{clip-path:url(#SVGID_00000164516462177728728780000003076515045649978038_);fill:#6796CF;}
	.st70{clip-path:url(#SVGID_00000098213101310423587900000015750731457031268762_);fill:#2B2961;}
	.st71{clip-path:url(#SVGID_00000140725016236749505170000014734616651434941585_);fill:#2B2961;}
	.st72{clip-path:url(#SVGID_00000015329083399032894230000004442974363172006579_);fill:#2B2961;}
	.st73{clip-path:url(#SVGID_00000015329083399032894230000004442974363172006579_);fill:#6796CF;}
	.st74{clip-path:url(#SVGID_00000183224157867984740380000013010061533119316637_);fill:#2B2961;}
	.st75{clip-path:url(#SVGID_00000101811824286761369470000003492561905796080256_);fill:#2B2961;}
	.st76{clip-path:url(#SVGID_00000079453310054728262980000011323150911130537403_);fill:#2B2961;}
	.st77{clip-path:url(#SVGID_00000089564639741518155090000000550339065631021453_);fill:#2B2961;}
	.st78{clip-path:url(#SVGID_00000047752870452680849920000017029739496879938449_);fill:#6796CF;}
	.st79{clip-path:url(#SVGID_00000047752870452680849920000017029739496879938449_);fill:#2B2961;}
	.st80{clip-path:url(#SVGID_00000111162785920836828690000006680286481324428945_);fill:#FFFFFF;}
	.st81{clip-path:url(#SVGID_00000111162785920836828690000006680286481324428945_);fill:#2B2961;}
	.st82{clip-path:url(#SVGID_00000173137777249501990190000006818348802688291745_);fill:#2B2961;}
	.st83{clip-path:url(#SVGID_00000047031176068136971950000014301507495401526199_);fill:#2B2961;}
	.st84{clip-path:url(#SVGID_00000047031176068136971950000014301507495401526199_);fill:#6796CF;}
	.st85{clip-path:url(#SVGID_00000150784312769602363060000002978787316331324300_);fill:#2B2961;}
	.st86{clip-path:url(#SVGID_00000178898756965484189190000018219854000306902145_);fill:#2B2961;}
	.st87{clip-path:url(#SVGID_00000178898756965484189190000018219854000306902145_);fill:#FFFFFF;}
	.st88{clip-path:url(#SVGID_00000133514974132031948000000000626091035279832245_);fill:#6796CF;}
	.st89{clip-path:url(#SVGID_00000133514974132031948000000000626091035279832245_);fill:#2B2961;}
	.st90{clip-path:url(#SVGID_00000127025359790098219610000018196033016560796298_);fill:#2B2961;}
	.st91{clip-path:url(#SVGID_00000112624007664979735790000010287079578391343525_);fill:#2B2961;}
	.st92{clip-path:url(#SVGID_00000112624007664979735790000010287079578391343525_);fill:#6796CF;}
	.st93{clip-path:url(#SVGID_00000147199722840647564320000005271943170587506563_);fill:#2B2961;}
	.st94{clip-path:url(#SVGID_00000147199722840647564320000005271943170587506563_);fill:#FFFFFF;}
	.st95{clip-path:url(#SVGID_00000170984584824092741370000018059692413326417298_);fill:#6796CF;}
	.st96{clip-path:url(#SVGID_00000170984584824092741370000018059692413326417298_);fill:#2B2961;}
	.st97{clip-path:url(#SVGID_00000170984584824092741370000018059692413326417298_);fill:#FFFFFF;}
	.st98{clip-path:url(#SVGID_00000061453972825519919540000003613749789681963160_);fill:#2B2961;}
	.st99{clip-path:url(#SVGID_00000061453972825519919540000003613749789681963160_);fill:#6796CF;}
	.st100{clip-path:url(#SVGID_00000030486190147324236120000017425478509909270182_);fill:#2B2961;}
	.st101{clip-path:url(#SVGID_00000106141400288494253020000004073034740114277781_);fill:#2B2961;}
	.st102{clip-path:url(#SVGID_00000090979985556878066840000014519417878083947445_);fill:#2B2961;}
	.st103{clip-path:url(#SVGID_00000134226342811062890120000006230739180729088147_);fill:#2B2961;}
	.st104{clip-path:url(#SVGID_00000022520539142599394490000010675126103739102634_);fill:#2B2961;}
	.st105{clip-path:url(#SVGID_00000174602199486593832030000001925473023244138675_);fill:#FFFFFF;}
	.st106{clip-path:url(#SVGID_00000174602199486593832030000001925473023244138675_);fill:#2B2961;}
	.st107{clip-path:url(#SVGID_00000174602199486593832030000001925473023244138675_);fill:#6796CF;}
	.st108{clip-path:url(#SVGID_00000167376219793520173500000007846222784147428029_);fill:#FFFFFF;}
	.st109{clip-path:url(#SVGID_00000169539095493420006080000009039096457885830321_);fill:#2B2961;}
	.st110{clip-path:url(#SVGID_00000169539095493420006080000009039096457885830321_);fill:#FFFFFF;}
	.st111{clip-path:url(#SVGID_00000077315997435704449110000002716338464090818997_);fill:#2B2961;}
	.st112{clip-path:url(#SVGID_00000183207728905039522670000005012740514470063506_);fill:#2B2961;}
	.st113{clip-path:url(#SVGID_00000183207728905039522670000005012740514470063506_);fill:#6796CF;}
	.st114{clip-path:url(#SVGID_00000129196246780624556450000013192928972007042208_);fill:#2B2961;}
	.st115{clip-path:url(#SVGID_00000088098183296655955720000007701829859257489843_);fill:#2B2961;}
	.st116{clip-path:url(#SVGID_00000088098183296655955720000007701829859257489843_);fill:#FFFFFF;}
	.st117{clip-path:url(#SVGID_00000013898489838083953260000016047526099772573351_);fill:#6796CF;}
	.st118{clip-path:url(#SVGID_00000111183235099190102260000014698829662819515785_);fill:#2B2961;}
	.st119{clip-path:url(#SVGID_00000050651622883385243660000011772510295758306201_);fill:#2B2961;}
	.st120{clip-path:url(#SVGID_00000054967396391502105740000011810617153132027525_);fill:#FFFFFF;}
	.st121{clip-path:url(#SVGID_00000054967396391502105740000011810617153132027525_);fill:#2B2961;}
	.st122{clip-path:url(#SVGID_00000054252069193776240780000009453308198217977503_);fill:#FFFFFF;}
	.st123{clip-path:url(#SVGID_00000054252069193776240780000009453308198217977503_);fill:#2B2961;}
	.st124{clip-path:url(#SVGID_00000105402361399910588360000001104277994805975943_);fill:#6796CF;}
	.st125{clip-path:url(#SVGID_00000105402361399910588360000001104277994805975943_);fill:#2B2961;}
	.st126{clip-path:url(#SVGID_00000074426265490820890740000011522925834597095099_);fill:#2B2961;}
	.st127{clip-path:url(#SVGID_00000074426265490820890740000011522925834597095099_);fill:#6796CF;}
	.st128{clip-path:url(#SVGID_00000091693476520384939600000017422916034624227733_);fill:#6796CF;}
	.st129{clip-path:url(#SVGID_00000087378731153445534950000018073564071698015144_);fill:#2B2961;}
	.st130{clip-path:url(#SVGID_00000163765367337138122690000004464120071746634379_);fill:#2B2961;}
	.st131{clip-path:url(#SVGID_00000107583611284324235570000001484261745283533706_);fill:#2B2961;}
	.st132{clip-path:url(#SVGID_00000140727045309850292080000007550279792729416118_);fill:#2B2961;}
	.st133{clip-path:url(#SVGID_00000174596302745683074520000005740172799888435855_);fill:#2B2961;}
	.st134{clip-path:url(#SVGID_00000174596302745683074520000005740172799888435855_);fill:#6796CF;}
	.st135{clip-path:url(#SVGID_00000016794679094577209250000008951014224283760306_);fill:#6796CF;}
	.st136{clip-path:url(#SVGID_00000034797243358797207680000009700695020066415291_);fill:#2B2961;}
	.st137{clip-path:url(#SVGID_00000114053168003969328970000011236660786281906602_);fill:#2B2961;}
	.st138{clip-path:url(#SVGID_00000114073011181541991730000012241027628062527657_);fill:#2B2961;}
	.st139{clip-path:url(#SVGID_00000026847446697957361060000011655576260887691424_);fill:#2B2961;}
	.st140{clip-path:url(#SVGID_00000168096589757928094190000012573930915077092503_);fill:#6796CF;}
	.st141{clip-path:url(#SVGID_00000168096589757928094190000012573930915077092503_);fill:#2B2961;}
	.st142{clip-path:url(#SVGID_00000034083370576503628450000009665445320385459371_);fill:#2B2961;}
	.st143{clip-path:url(#SVGID_00000143600608584603362260000010972867498960300694_);fill:#2B2961;}
	.st144{clip-path:url(#SVGID_00000080195932706139009210000001318777509314404484_);fill:#2B2961;}
	.st145{clip-path:url(#SVGID_00000080195932706139009210000001318777509314404484_);fill:#6796CF;}
	.st146{clip-path:url(#SVGID_00000122698348657671335470000015584438190276970915_);}
	.st147{clip-path:url(#SVGID_00000122698348657671335470000015584438190276970915_);fill:#FFFFFF;}
	.st148{clip-path:url(#SVGID_00000122698348657671335470000015584438190276970915_);fill:#2B2961;}
	.st149{clip-path:url(#SVGID_00000062900751173522054570000001546530493167428017_);fill:#2B2961;}
	.st150{clip-path:url(#SVGID_00000176033030528469935910000010858633565391678888_);fill:#2B2961;}
	.st151{clip-path:url(#SVGID_00000176033030528469935910000010858633565391678888_);fill:#FFFFFF;}
	.st152{clip-path:url(#SVGID_00000176033030528469935910000010858633565391678888_);fill:#6796CF;}
	.st153{clip-path:url(#SVGID_00000150813883905547498490000017740545019620394123_);fill:#2B2961;}
	.st154{clip-path:url(#SVGID_00000018214591169101162840000002324682828702505880_);fill:#2B2961;}
	.st155{clip-path:url(#SVGID_00000095334525335261215230000004262540940796177589_);fill:#6796CF;}
	.st156{clip-path:url(#SVGID_00000095334525335261215230000004262540940796177589_);}
	.st157{clip-path:url(#SVGID_00000104691887215870636770000005105573018099748009_);fill:#2B2961;}
	.st158{clip-path:url(#SVGID_00000095334525335261215230000004262540940796177589_);fill:#FFFFFF;}
	.st159{clip-path:url(#SVGID_00000095334525335261215230000004262540940796177589_);fill:#2B2961;}
	.st160{opacity:0.52;clip-path:url(#SVGID_00000086680690246767312130000010264788860884423818_);}
	.st161{clip-path:url(#SVGID_00000147929292255504121800000005505798042879244437_);fill:#6796CF;}
	.st162{clip-path:url(#SVGID_00000132781162822858020530000011872305284204285371_);fill:#2B2961;}
	.st163{clip-path:url(#SVGID_00000152965999032868206440000011542280303059034249_);fill:#2B2961;}
	.st164{clip-path:url(#SVGID_00000089534123014813525010000005306248678347336325_);fill:#6796CF;}
	.st165{clip-path:url(#SVGID_00000089534123014813525010000005306248678347336325_);fill:#2B2961;}
	.st166{clip-path:url(#SVGID_00000105394263939984899930000005858020872326952350_);fill:#2B2961;}
	.st167{clip-path:url(#SVGID_00000101815556495499136650000000685651718129697951_);fill:#2B2961;}
	.st168{clip-path:url(#SVGID_00000032645236580788007850000014965678763178901905_);fill:#2B2961;}
	.st169{clip-path:url(#SVGID_00000081619577701242187940000014439630906205903243_);fill:#FFFFFF;}
	.st170{clip-path:url(#SVGID_00000081619577701242187940000014439630906205903243_);fill:#2B2961;}
	.st171{clip-path:url(#SVGID_00000081619577701242187940000014439630906205903243_);fill:#6796CF;}
	.st172{clip-path:url(#SVGID_00000148627411009991601350000014938002654024848514_);fill:#6796CF;}
	.st173{clip-path:url(#SVGID_00000113327001352704746910000017655748026574895752_);fill:#2B2961;}
	.st174{clip-path:url(#SVGID_00000152973662176727058300000013716094553611867273_);fill:#2B2961;}
	.st175{clip-path:url(#SVGID_00000152973662176727058300000013716094553611867273_);fill:#FFFFFF;}
	.st176{clip-path:url(#SVGID_00000054976496860252849300000011444399325142026141_);fill:#6796CF;}
	.st177{clip-path:url(#SVGID_00000054976496860252849300000011444399325142026141_);fill:#2B2961;}
	.st178{clip-path:url(#SVGID_00000172415076110006807010000014131519379661797565_);fill:#6796CF;}
	.st179{clip-path:url(#SVGID_00000172415076110006807010000014131519379661797565_);fill:#2B2961;}
	.st180{clip-path:url(#SVGID_00000037669922548014935970000005397511421548990111_);fill:#2B2961;}
	.st181{clip-path:url(#SVGID_00000109710104501988742810000009497893358511662010_);fill:#2B2961;}
	.st182{clip-path:url(#SVGID_00000097493938720334704060000003007913596615582605_);fill:#FFFFFF;}
	.st183{clip-path:url(#SVGID_00000155826569687469961740000000340934184704497340_);fill:#2B2961;}
	.st184{clip-path:url(#SVGID_00000097469879419410774310000004089608514604148641_);fill:#2B2961;}
	.st185{clip-path:url(#SVGID_00000097469879419410774310000004089608514604148641_);fill:#6796CF;}
	.st186{clip-path:url(#SVGID_00000000911715706712702110000004765549182628041647_);fill:#2B2961;}
	.st187{clip-path:url(#SVGID_00000032619615911671695400000009660513392560536449_);fill:#2B2961;}
	.st188{clip-path:url(#SVGID_00000088824318807619227230000016197631066348572574_);fill:#6796CF;}
	.st189{clip-path:url(#SVGID_00000173862754562006730330000018177976498008711593_);fill:#2B2961;}
	.st190{clip-path:url(#SVGID_00000128477317862942204290000013225899210860093362_);fill:#6796CF;}
	.st191{clip-path:url(#SVGID_00000000927251526324059970000009786448517017032856_);fill:#2B2961;}
	.st192{clip-path:url(#SVGID_00000130634558277065086990000005675318354779391909_);fill:#6796CF;}
	.st193{clip-path:url(#SVGID_00000083777657160607041560000009438418500951485603_);fill:#2B2961;}
	.st194{clip-path:url(#SVGID_00000142163874190235132010000014896566889719556011_);}
	.st195{clip-path:url(#SVGID_00000142163874190235132010000014896566889719556011_);fill:#2B2961;}
	.st196{clip-path:url(#SVGID_00000142163874190235132010000014896566889719556011_);fill:#FFFFFF;}
	.st197{clip-path:url(#SVGID_00000161609394760169955790000009399790550333028758_);fill:#2B2961;}
	.st198{clip-path:url(#SVGID_00000148635745687806481220000010307190288267957667_);fill:#2B2961;}
	.st199{clip-path:url(#SVGID_00000008107190834648363460000006787247488208254138_);fill:#2B2961;}
	.st200{clip-path:url(#SVGID_00000029765978232592014080000005648110141620294017_);fill:#2B2961;}
	.st201{clip-path:url(#SVGID_00000044866890494477849890000001646817760120447616_);fill:#2B2961;}
	.st202{clip-path:url(#SVGID_00000117649955701353194050000005778215596118394518_);fill:#2B2961;}
	.st203{clip-path:url(#SVGID_00000060712925834207955180000012777884662730458539_);fill:#2B2961;}
	.st204{clip-path:url(#SVGID_00000119096214474041747890000004495718952779783590_);fill:#2B2961;}
	.st205{clip-path:url(#SVGID_00000137129089719112780340000012474235044076939661_);fill:#2B2961;}
	.st206{clip-path:url(#SVGID_00000019675095123882588690000011921278765452258967_);fill:#FFFFFF;}
	.st207{clip-path:url(#SVGID_00000019675095123882588690000011921278765452258967_);fill:#2B2961;}
	.st208{clip-path:url(#SVGID_00000071556573725129700060000006327888473151881860_);fill:#6796CF;}
	.st209{clip-path:url(#SVGID_00000071556573725129700060000006327888473151881860_);fill:#2B2961;}
	.st210{clip-path:url(#SVGID_00000070804984188816959130000004772516401008733103_);fill:#2B2961;}
	.st211{clip-path:url(#SVGID_00000070804984188816959130000004772516401008733103_);fill:#FFFFFF;}
	.st212{clip-path:url(#SVGID_00000173157574084130892420000014128623012878434967_);fill:#6796CF;}
	.st213{clip-path:url(#SVGID_00000173157574084130892420000014128623012878434967_);fill:#2B2961;}
	.st214{clip-path:url(#SVGID_00000000939146822032332330000001904904130440043443_);fill:#6796CF;}
	.st215{clip-path:url(#SVGID_00000000939146822032332330000001904904130440043443_);fill:#2B2961;}
	.st216{clip-path:url(#SVGID_00000170248993252085665330000015583707418762625939_);}
	.st217{clip-path:url(#SVGID_00000142147925859866161960000000401316778587660455_);}
	.st218{clip-path:url(#SVGID_00000137108900111824120310000011462529177064841390_);}
	.st219{clip-path:url(#SVGID_00000127016954178493919880000014019320452855669892_);}
	.st220{clip-path:url(#SVGID_00000048462837970169899680000016252237630564778887_);}
	.st221{clip-path:url(#SVGID_00000116194561131556560840000014088954235612751294_);}
	.st222{clip-path:url(#SVGID_00000065042348443924628540000015693775066972808627_);}
	.st223{clip-path:url(#SVGID_00000020358522803847774990000004277435436012263101_);}
	.st224{clip-path:url(#SVGID_00000011029765025395743940000012834197961165328295_);}
	.st225{clip-path:url(#SVGID_00000165222303058631786870000016368829351148281729_);}
	.st226{clip-path:url(#SVGID_00000027571506733697754860000016331503410642293125_);}
	.st227{clip-path:url(#SVGID_00000111881532677346402850000004836479261536507317_);}
	.st228{clip-path:url(#SVGID_00000045615895553350839170000014413449959782515098_);}
	.st229{clip-path:url(#SVGID_00000166657634681962791940000005473653977579881630_);}
	.st230{clip-path:url(#SVGID_00000026842073961833323050000008905918714748557970_);fill:#2B2961;}
	.st231{clip-path:url(#SVGID_00000026842073961833323050000008905918714748557970_);fill:#6796CF;}
	.st232{fill:#A2B9E1;}
	.st233{clip-path:url(#SVGID_00000121241304365075417740000011627105710669635201_);}
	.st234{clip-path:url(#SVGID_00000105399023597461128950000017014529165694624952_);}
</style>
<g>
	<g>
		<polygon class="st4" points="48.5,0.44 48.5,8.47 48.5,11.66 46.49,18.55 53.52,15.27 63.33,15.27 63.33,0.44 		"/>
		<polygon class="st2" points="49.2,0.85 49.2,8.89 49.2,12.08 47.19,18.97 54.23,15.69 63.26,15.69 63.26,0.85 		"/>
		<path class="st2" d="M47.19,19.07c-0.02,0-0.04-0.01-0.06-0.02c-0.03-0.02-0.04-0.06-0.03-0.1l2-6.88V0.85
			c0-0.05,0.04-0.09,0.09-0.09h14.06c0.05,0,0.09,0.04,0.09,0.09V15.7c0,0.05-0.04,0.09-0.09,0.09h-9.01l-7.02,3.27
			C47.22,19.06,47.21,19.07,47.19,19.07z M49.29,0.95v11.13c0,0.01,0,0.02,0,0.03l-1.95,6.7l6.85-3.19
			c0.01-0.01,0.03-0.01,0.04-0.01h8.93V0.95H49.29z"/>
		<g>
			<path class="st8" d="M46.47,18.79c-0.05,0-0.1-0.02-0.15-0.05c-0.07-0.06-0.09-0.15-0.07-0.23l2-6.87V0.42
				c0-0.12,0.1-0.22,0.22-0.22h14.86c0.12,0,0.22,0.1,0.22,0.22v14.86c0,0.12-0.1,0.22-0.22,0.22h-9.77l-7,3.26
				C46.54,18.78,46.5,18.79,46.47,18.79z M48.71,0.65v11.02c0,0.02,0,0.04-0.01,0.06l-1.87,6.43l6.6-3.07
				c0.03-0.01,0.06-0.02,0.09-0.02h9.6V0.65H48.71z"/>
		</g>
		<polygon class="st4" points="64.98,22.8 64.98,30.83 64.98,34.02 66.98,40.91 59.95,37.63 50.15,37.63 50.15,22.8 		"/>
		<polygon class="st2" points="64.28,23.21 64.28,31.25 64.28,34.44 66.28,41.33 59.24,38.06 50.21,38.06 50.21,23.21 		"/>
		<path class="st2" d="M66.28,41.43c-0.01,0-0.03,0-0.04-0.01l-7.02-3.27h-9.01c-0.05,0-0.09-0.04-0.09-0.09V23.21
			c0-0.05,0.04-0.09,0.09-0.09h14.06c0.05,0,0.09,0.04,0.09,0.09v11.21l2,6.88c0.01,0.03,0,0.07-0.03,0.1
			C66.33,41.42,66.3,41.43,66.28,41.43z M50.31,37.96h8.93c0.01,0,0.03,0,0.04,0.01l6.85,3.19l-1.95-6.7c0-0.01,0-0.02,0-0.03V23.31
			H50.31V37.96z"/>
		<path class="st8" d="M67,41.15c-0.03,0-0.06-0.01-0.09-0.02l-7-3.26h-9.77c-0.12,0-0.22-0.1-0.22-0.22V22.78
			c0-0.12,0.1-0.22,0.22-0.22h14.86c0.12,0,0.22,0.1,0.22,0.22v11.21l2,6.87c0.02,0.08,0,0.18-0.07,0.23
			C67.11,41.13,67.05,41.15,67,41.15z M50.35,37.42h9.6c0.03,0,0.07,0.01,0.09,0.02l6.6,3.07l-1.87-6.43
			c-0.01-0.02-0.01-0.04-0.01-0.06V23.01H50.35V37.42z"/>
		<rect x="2.14" y="58.39" class="st2" width="19.23" height="19.73"/>
		<path class="st2" d="M21.37,78.24H2.14c-0.07,0-0.12-0.06-0.12-0.12V58.39c0-0.07,0.06-0.12,0.12-0.12h19.23
			c0.07,0,0.12,0.06,0.12,0.12v19.73C21.49,78.19,21.44,78.24,21.37,78.24z M2.26,78h18.98V58.52H2.26V78z"/>
		<g>
			<path class="st2" d="M38.49,29.43c2.19,0,4.23,0.41,5.92,1.58v-7.58l-0.62,0.86c-0.97,2.01-2.98,3.39-5.3,3.39
				s-4.01-0.4-4.98-2.4l-0.47-0.83l0.1,6.48C34.71,29.98,36.53,29.43,38.49,29.43"/>
			<path class="st2" d="M44.41,31.14c-0.02,0-0.05-0.01-0.07-0.02c-1.52-1.05-3.43-1.56-5.85-1.56c-1.85,0-3.68,0.51-5.29,1.48
				c-0.04,0.02-0.09,0.02-0.13,0c-0.04-0.02-0.06-0.06-0.06-0.11v-6.64c0-0.05,0.03-0.1,0.08-0.11c0.05-0.02,0.1-0.01,0.14,0.03
				l0.17,0.9c0.01,0.01,0.29,0.22,0.29,0.24c0.94,1.96,2.49,2.22,4.8,2.22c2.22,0,4.21-1.27,5.19-3.32l0.63-0.88
				c0.03-0.04,0.09-0.06,0.14-0.05c0.05,0.02,0.09,0.06,0.09,0.12v7.58c0,0.05-0.03,0.09-0.07,0.11
				C44.45,31.13,44.43,31.14,44.41,31.14z M38.49,29.31c2.37,0,4.27,0.48,5.8,1.47v-6.96l-0.39,0.54c-1.02,2.12-3.09,3.44-5.41,3.44
				c-2.37,0-4.07-1.02-5.04-3.03l-0.18-0.18v6.12C34.86,29.79,36.67,29.31,38.49,29.31z"/>
			<path class="st8" d="M44.26,31.71c-0.06,0-0.12-0.02-0.17-0.05c-1.77-1.19-4.07-1.92-6.01-1.92c-1.99,0-3.86,0.58-5.57,1.73
				c-0.09,0.06-0.21,0.07-0.31,0.02c-0.1-0.05-0.16-0.15-0.16-0.26v-9.32h0.6v8.77c1.68-1.02,3.51-1.53,5.44-1.53
				c1.92,0,4.08,0.64,5.88,1.73v-9.08h0.6v9.63c0,0.11-0.06,0.21-0.16,0.26C44.36,31.7,44.31,31.71,44.26,31.71z"/>
		</g>
		<rect x="29" y="67.7" class="st2" width="19.98" height="10.42"/>
		<path class="st2" d="M48.98,78.24H29c-0.07,0-0.12-0.06-0.12-0.12V67.7c0-0.07,0.06-0.12,0.12-0.12h19.98
			c0.07,0,0.12,0.06,0.12,0.12v10.42C49.1,78.19,49.05,78.24,48.98,78.24z M29.12,78h19.73V67.83H29.12V78z"/>
		<rect x="27.93" y="67.52" class="st8" width="20.98" height="0.4"/>
		<g>
			<path class="st8" d="M44.42,86.15c-0.16,0-0.3-0.13-0.3-0.3v-7.59c0-0.17,0.13-0.3,0.3-0.3c0.16,0,0.3,0.13,0.3,0.3v7.59
				C44.72,86.02,44.59,86.15,44.42,86.15z M32.18,86.15c-0.16,0-0.3-0.13-0.3-0.3v-7.59c0-0.17,0.13-0.3,0.3-0.3
				c0.16,0,0.3,0.13,0.3,0.3v7.59C32.48,86.02,32.35,86.15,32.18,86.15z"/>
		</g>
		<path class="st8" d="M44.43,50.54c-0.19,0-0.35-0.15-0.35-0.35V40.01c0-0.19,0.16-0.35,0.35-0.35c0.19,0,0.35,0.15,0.35,0.35V50.2
			C44.77,50.39,44.62,50.54,44.43,50.54z M32.18,50.54c-0.19,0-0.35-0.15-0.35-0.35V40.01c0-0.19,0.16-0.35,0.35-0.35
			c0.19,0,0.35,0.15,0.35,0.35V50.2C32.53,50.39,32.37,50.54,32.18,50.54z"/>
		<g>
			<path class="st8" d="M48.8,78.33H27.73c-0.16,0-0.3-0.13-0.3-0.3V40.36c0-6.11,4.96-11.3,10.83-11.34
				c2.72-0.03,5.34,1.09,7.4,3.13c2.21,2.18,3.49,5.18,3.5,8.21c0,0,0,0,0,0L49.1,78.03C49.1,78.2,48.96,78.33,48.8,78.33z
				 M28.03,77.74H48.5l0.07-37.37c-0.02-2.88-1.23-5.72-3.33-7.79c-1.95-1.92-4.42-3-6.98-2.95c-5.55,0.04-10.24,4.96-10.24,10.74
				V77.74z"/>
			<path class="st2" d="M44.25,20.16c-0.69-2.27-2.79-3.93-5.28-3.93c-2.49,0-4.59,1.65-5.28,3.93H44.25z"/>
			<path class="st2" d="M44.25,20.29H33.68c-0.04,0-0.08-0.02-0.1-0.05c-0.02-0.03-0.03-0.07-0.02-0.11c0.73-2.4,2.9-4.01,5.4-4.01
				c2.5,0,4.67,1.61,5.4,4.01c0.01,0.04,0,0.08-0.02,0.11C44.32,20.27,44.29,20.29,44.25,20.29z M33.85,20.04h10.22
				c-0.74-2.21-2.78-3.68-5.11-3.68C36.63,16.36,34.6,17.83,33.85,20.04z"/>
			<path class="st8" d="M38.3,27.87c-3.45,0-6.26-2.81-6.26-6.26s2.81-6.26,6.26-6.26c3.45,0,6.26,2.81,6.26,6.26
				S41.75,27.87,38.3,27.87z M38.3,15.96c-3.12,0-5.66,2.54-5.66,5.66s2.54,5.66,5.66,5.66c3.12,0,5.66-2.54,5.66-5.66
				S41.42,15.96,38.3,15.96z"/>
		</g>
		<rect x="32.68" y="19.96" class="st8" width="11.26" height="0.4"/>
		<g>
			<path class="st8" d="M38,22.82c0,0.18-0.14,0.32-0.32,0.32c-0.17,0-0.32-0.14-0.32-0.32c0-0.17,0.14-0.32,0.32-0.32
				C37.86,22.5,38,22.64,38,22.82"/>
			<path class="st8" d="M42.29,22.82c0,0.18-0.14,0.32-0.32,0.32c-0.17,0-0.32-0.14-0.32-0.32c0-0.17,0.14-0.32,0.32-0.32
				C42.15,22.5,42.29,22.64,42.29,22.82"/>
			<rect x="0.68" y="58.11" class="st8" width="20.98" height="0.4"/>
			<path class="st8" d="M17.17,86.15c-0.16,0-0.3-0.13-0.3-0.3v-7.59c0-0.17,0.13-0.3,0.3-0.3s0.3,0.13,0.3,0.3v7.59
				C17.47,86.02,17.33,86.15,17.17,86.15z M4.93,86.15c-0.16,0-0.3-0.13-0.3-0.3v-7.59c0-0.17,0.13-0.3,0.3-0.3
				c0.16,0,0.3,0.13,0.3,0.3v7.59C5.23,86.02,5.1,86.15,4.93,86.15z"/>
		</g>
		<path class="st8" d="M17.17,50.54c-0.19,0-0.35-0.15-0.35-0.35V40.01c0-0.19,0.16-0.35,0.35-0.35s0.35,0.15,0.35,0.35V50.2
			C17.52,50.39,17.36,50.54,17.17,50.54z M4.93,50.54c-0.19,0-0.35-0.15-0.35-0.35V40.01c0-0.19,0.16-0.35,0.35-0.35
			c0.19,0,0.35,0.15,0.35,0.35V50.2C5.27,50.39,5.12,50.54,4.93,50.54z"/>
		<g>
			<path class="st8" d="M21.55,78.33H0.48c-0.16,0-0.3-0.13-0.3-0.3V40.36c0-6.11,4.96-11.3,10.83-11.34
				c2.69,0.01,5.34,1.09,7.4,3.13c2.21,2.18,3.49,5.18,3.5,8.21c0,0,0,0,0,0l-0.07,37.67C21.85,78.2,21.71,78.33,21.55,78.33z
				 M0.78,77.74h20.47l0.07-37.37c-0.02-2.88-1.23-5.72-3.33-7.79c-1.95-1.92-4.45-2.99-6.98-2.96C5.47,29.66,0.78,34.58,0.78,40.36
				V77.74z"/>
			<path class="st2" d="M17,20.16c-0.69-2.27-2.79-3.93-5.28-3.93c-2.49,0-4.59,1.65-5.28,3.93H17z"/>
			<path class="st2" d="M17,20.29H6.43c-0.04,0-0.08-0.02-0.1-0.05c-0.02-0.03-0.03-0.07-0.02-0.11c0.73-2.4,2.9-4.01,5.4-4.01
				c2.5,0,4.68,1.61,5.4,4.01c0.01,0.04,0,0.08-0.02,0.11C17.07,20.27,17.04,20.29,17,20.29z M6.6,20.04h10.22
				c-0.74-2.21-2.78-3.68-5.11-3.68C9.38,16.36,7.34,17.83,6.6,20.04z"/>
			<path class="st8" d="M11.05,27.87c-3.45,0-6.26-2.81-6.26-6.26s2.81-6.26,6.26-6.26s6.26,2.81,6.26,6.26S14.5,27.87,11.05,27.87z
				 M11.05,15.96c-3.12,0-5.66,2.54-5.66,5.66s2.54,5.66,5.66,5.66s5.66-2.54,5.66-5.66S14.17,15.96,11.05,15.96z"/>
		</g>
		<rect x="5.42" y="19.96" class="st8" width="11.26" height="0.4"/>
		<g>
			<path class="st8" d="M10.75,22.82c0,0.18-0.14,0.32-0.32,0.32c-0.17,0-0.32-0.14-0.32-0.32c0-0.17,0.14-0.32,0.32-0.32
				C10.6,22.5,10.75,22.64,10.75,22.82"/>
			<path class="st8" d="M15.04,22.82c0,0.18-0.14,0.32-0.32,0.32c-0.17,0-0.32-0.14-0.32-0.32c0-0.17,0.14-0.32,0.32-0.32
				C14.89,22.5,15.04,22.64,15.04,22.82"/>
		</g>
		<path class="st8" d="M10.97,78.33c-0.11,0-0.2-0.09-0.2-0.2V61.41c0-0.11,0.09-0.2,0.2-0.2s0.2,0.09,0.2,0.2v16.72
			C11.17,78.24,11.08,78.33,10.97,78.33z"/>
		<path class="st8" d="M71.39,78.3c-0.11,0-0.2-0.09-0.2-0.2v-5.75c0-0.11,0.09-0.2,0.2-0.2s0.2,0.09,0.2,0.2v5.75
			C71.59,78.21,71.5,78.3,71.39,78.3z"/>
		<rect x="64.79" y="70.61" class="st2" width="14.05" height="7.56"/>
		<path class="st2" d="M78.83,78.3H64.79c-0.07,0-0.12-0.06-0.12-0.12v-7.56c0-0.07,0.06-0.12,0.12-0.12h14.05
			c0.07,0,0.12,0.06,0.12,0.12v7.56C78.96,78.24,78.9,78.3,78.83,78.3z M64.91,78.05h13.8v-7.31h-13.8V78.05z"/>
		<g>
			<path class="st2" d="M75.12,44.43c-0.41-1.41-1.65-2.44-3.13-2.44c-1.47,0-2.72,1.03-3.13,2.44H75.12z"/>
			<path class="st2" d="M75.12,44.55h-6.26c-0.04,0-0.08-0.02-0.1-0.05c-0.02-0.03-0.03-0.07-0.02-0.11
				c0.44-1.51,1.74-2.53,3.25-2.53c1.51,0,2.81,1.02,3.25,2.53c0.01,0.04,0,0.08-0.02,0.11C75.19,44.53,75.15,44.55,75.12,44.55z
				 M69.03,44.3h5.92c-0.45-1.32-1.62-2.19-2.96-2.19C70.65,42.11,69.48,42.98,69.03,44.3z"/>
			<rect x="64.15" y="70.06" class="st8" width="15.21" height="0.4"/>
			<path class="st8" d="M71.54,49.71c-2.28,0-4.14-1.86-4.14-4.14c0-2.28,1.86-4.14,4.14-4.14c2.28,0,4.14,1.86,4.14,4.14
				C75.69,47.85,73.83,49.71,71.54,49.71z M71.54,42.02c-1.95,0-3.54,1.59-3.54,3.55c0,1.95,1.59,3.54,3.54,3.54
				c1.95,0,3.54-1.59,3.54-3.54C75.09,43.62,73.5,42.02,71.54,42.02z"/>
		</g>
		<rect x="67.73" y="44.18" class="st8" width="7.64" height="0.4"/>
		<g>
			<path class="st8" d="M69.09,45.36c0,0.11-0.09,0.2-0.2,0.2c-0.11,0-0.2-0.09-0.2-0.2c0-0.11,0.09-0.2,0.2-0.2
				C69,45.16,69.09,45.25,69.09,45.36"/>
			<path class="st8" d="M71.79,45.36c0,0.11-0.09,0.2-0.2,0.2c-0.11,0-0.2-0.09-0.2-0.2c0-0.11,0.09-0.2,0.2-0.2
				C71.7,45.16,71.79,45.25,71.79,45.36"/>
			<path class="st8" d="M75.56,86.2c-0.16,0-0.3-0.13-0.3-0.3v-7.56c0-0.17,0.13-0.3,0.3-0.3c0.16,0,0.3,0.13,0.3,0.3v7.56
				C75.86,86.07,75.73,86.2,75.56,86.2z M67.45,86.2c-0.16,0-0.3-0.13-0.3-0.3v-7.56c0-0.17,0.13-0.3,0.3-0.3
				c0.16,0,0.3,0.13,0.3,0.3v7.56C67.75,86.07,67.62,86.2,67.45,86.2z M75.37,66.28c-0.16,0-0.3-0.13-0.3-0.3v-7.56
				c0-0.17,0.13-0.3,0.3-0.3c0.16,0,0.3,0.13,0.3,0.3v7.56C75.67,66.14,75.53,66.28,75.37,66.28z M67.7,66.28
				c-0.16,0-0.3-0.13-0.3-0.3v-7.56c0-0.17,0.13-0.3,0.3-0.3c0.16,0,0.3,0.13,0.3,0.3v7.56C68,66.14,67.87,66.28,67.7,66.28z"/>
			<path class="st8" d="M79.15,78.41H63.87c-0.16,0-0.3-0.13-0.3-0.3V59.82c0-4.5,3.64-8.31,7.94-8.31c4.33,0,7.99,3.8,7.99,8.31v0
				l-0.05,18.29C79.45,78.28,79.32,78.41,79.15,78.41z M64.17,77.81h14.69l0.05-17.99c0-4.18-3.39-7.71-7.4-7.71
				c-3.98,0-7.34,3.53-7.34,7.71V77.81z"/>
		</g>
	</g>
	<g>
		<g>
			<g>
				<path class="st4" d="M57.13,35.09c-0.57,0-1.03-0.46-1.03-1.03c0-0.57,0.46-1.03,1.03-1.03c0.57,0,1.03,0.46,1.03,1.03
					C58.16,34.62,57.7,35.09,57.13,35.09z"/>
				<path class="st4" d="M57.13,32.69c-0.45,0-0.81-0.36-0.81-0.81v-5.55c0-0.45,0.36-0.81,0.81-0.81c0.45,0,0.81,0.36,0.81,0.81
					v5.55C57.94,32.33,57.58,32.69,57.13,32.69z"/>
			</g>
		</g>
	</g>
	<g>
		<g>
			<g>
				<path class="st8" d="M57.5,34.52c-0.57,0-1.03-0.46-1.03-1.03c0-0.57,0.46-1.03,1.03-1.03c0.57,0,1.03,0.46,1.03,1.03
					C58.53,34.06,58.07,34.52,57.5,34.52z M57.5,32.85c-0.35,0-0.64,0.29-0.64,0.64c0,0.35,0.29,0.64,0.64,0.64
					c0.35,0,0.64-0.29,0.64-0.64C58.14,33.14,57.86,32.85,57.5,32.85z"/>
				<path class="st8" d="M57.5,32.12c-0.45,0-0.81-0.36-0.81-0.81v-5.55c0-0.45,0.36-0.81,0.81-0.81c0.45,0,0.81,0.36,0.81,0.81
					v5.55C58.31,31.76,57.95,32.12,57.5,32.12z M57.5,25.34c-0.23,0-0.42,0.19-0.42,0.42v5.55c0,0.23,0.19,0.42,0.42,0.42
					c0.23,0,0.42-0.19,0.42-0.42v-5.55C57.93,25.53,57.74,25.34,57.5,25.34z"/>
			</g>
		</g>
	</g>
	<path class="st4" d="M56,12.35c-0.49-0.01-0.87-0.41-0.86-0.89c0.01-0.49,0.41-0.87,0.89-0.86c0.49,0.01,0.87,0.41,0.86,0.89
		C56.89,11.97,56.49,12.36,56,12.35z M56.66,8.3l-0.01,0.84c-0.01,0.34-0.28,0.61-0.62,0.6c-0.34-0.01-0.61-0.28-0.6-0.62l0-0.21
		l0.02-1.15c0.01-0.34,0.28-0.61,0.62-0.6c0.07,0,0.22,0,0.24,0c0.58,0.01,1.05-0.45,1.06-1.03c0.01-0.58-0.45-1.05-1.03-1.06
		c-0.57-0.01-1.04,0.44-1.06,1.01l0,0.01c-0.01,0.32-0.27,0.58-0.6,0.58s-0.58-0.27-0.58-0.6l0-0.01c0.03-1.22,1.03-2.18,2.25-2.16
		c1.22,0.02,2.2,1.03,2.18,2.25C58.52,7.25,57.71,8.14,56.66,8.3z"/>
	<path class="st8" d="M55.75,12.32c-0.6-0.01-1.07-0.5-1.06-1.1c0.01-0.6,0.5-1.07,1.1-1.06c0.6,0.01,1.07,0.5,1.07,1.1
		C56.84,11.85,56.34,12.33,55.75,12.32z M55.77,10.56c-0.37-0.01-0.68,0.29-0.68,0.66c-0.01,0.37,0.29,0.68,0.66,0.69
		c0.37,0.01,0.68-0.29,0.69-0.66C56.44,10.88,56.15,10.57,55.77,10.56z"/>
	<path class="st8" d="M55.77,9.83c-0.47-0.01-0.84-0.39-0.83-0.86l0.02-1.44c0.01-0.47,0.39-0.84,0.86-0.83l0.25,0
		c0.49,0.01,0.9-0.39,0.91-0.88c0.01-0.49-0.39-0.9-0.88-0.91c-0.49-0.01-0.89,0.38-0.91,0.87c-0.01,0.46-0.38,0.82-0.84,0.82
		c-0.45-0.01-0.82-0.38-0.81-0.84c0.03-1.4,1.19-2.52,2.58-2.49c1.4,0.02,2.52,1.18,2.5,2.58c-0.02,1.18-0.84,2.18-1.98,2.43
		l-0.01,0.72C56.62,9.46,56.23,9.84,55.77,9.83z M56.1,4.5c0.72,0.01,1.3,0.61,1.28,1.33c-0.01,0.72-0.61,1.29-1.33,1.28l-0.25,0
		c-0.24,0-0.44,0.19-0.45,0.43l-0.02,1.44c0,0.24,0.19,0.44,0.43,0.45c0.24,0,0.44-0.19,0.45-0.43l0.02-1.06l0.17-0.03
		c1.03-0.16,1.79-1.03,1.81-2.07c0.02-1.18-0.92-2.15-2.1-2.17c-1.17-0.02-2.14,0.92-2.17,2.09c0,0.24,0.18,0.43,0.41,0.43
		S54.78,6,54.78,5.77C54.8,5.05,55.39,4.49,56.1,4.5z"/>
</g>
</svg>
