<?xml version="1.0" encoding="utf-8"?>
<!-- Generator: Adobe Illustrator 26.0.2, SVG Export Plug-In . SVG Version: 6.00 Build 0)  -->
<svg version="1.1" id="Ebene_1" xmlns="http://www.w3.org/2000/svg" xmlns:xlink="http://www.w3.org/1999/xlink" x="0px" y="0px"
	 viewBox="0 0 45.37 62.36" style="enable-background:new 0 0 45.37 62.36;" xml:space="preserve">
<style type="text/css">
	.st0{clip-path:url(#SVGID_00000044869869443004831170000005514522970280954294_);fill:#6796CF;}
	.st1{clip-path:url(#SVGID_00000044869869443004831170000005514522970280954294_);fill:#2B2961;}
	.st2{fill:#6796CF;}
	.st3{clip-path:url(#SVGID_00000152948054223241852810000006706074418476216241_);fill:#2B2961;}
	.st4{fill:#FFFFFF;}
	.st5{clip-path:url(#SVGID_00000178194178922543942700000016477405752879274122_);fill:#2B2961;}
	.st6{clip-path:url(#SVGID_00000140712273537375005930000007908753913845986956_);fill:#2B2961;}
	.st7{clip-path:url(#SVGID_00000147199251293442623910000011338623123506743207_);fill:#2B2961;}
	.st8{fill:#2B2961;}
	.st9{clip-path:url(#SVGID_00000023265604238831983730000018197080296506176662_);fill:#6796CF;}
	.st10{clip-path:url(#SVGID_00000023265604238831983730000018197080296506176662_);fill:#2B2961;}
	.st11{clip-path:url(#SVGID_00000050645607217620433330000016111384365447065736_);fill:#2B2961;}
	.st12{clip-path:url(#SVGID_00000165915492397479143770000018146712253542034058_);fill:#2B2961;}
	.st13{clip-path:url(#SVGID_00000165915492397479143770000018146712253542034058_);fill:#6796CF;}
	.st14{clip-path:url(#SVGID_00000113334878642207349570000004433262027115424388_);fill:#2B2961;}
	.st15{clip-path:url(#SVGID_00000142176302324354913980000000806137077269899184_);fill:#2B2961;}
	.st16{clip-path:url(#SVGID_00000013189331596996822430000003407505996702229638_);fill:#2B2961;}
	.st17{clip-path:url(#SVGID_00000013189331596996822430000003407505996702229638_);fill:#6796CF;}
	.st18{clip-path:url(#SVGID_00000177442704840301506700000003106625004120102584_);fill:#2B2961;}
	.st19{clip-path:url(#SVGID_00000085239474902165727520000017517976606272547477_);fill:#2B2961;}
	.st20{clip-path:url(#SVGID_00000075858537341169732310000008643001983608317571_);fill:#2B2961;}
	.st21{clip-path:url(#SVGID_00000017486078187830965260000006975892314241017986_);fill:#2B2961;}
	.st22{clip-path:url(#SVGID_00000170983344059509331100000011931905951234024603_);fill:#6796CF;}
	.st23{clip-path:url(#SVGID_00000170983344059509331100000011931905951234024603_);fill:#2B2961;}
	.st24{clip-path:url(#SVGID_00000081617122179941907050000000544052958238572477_);fill:#2B2961;}
	.st25{clip-path:url(#SVGID_00000094586401850415902870000002842149278687582353_);fill:#2B2961;}
	.st26{clip-path:url(#SVGID_00000094586401850415902870000002842149278687582353_);fill:#6796CF;}
	.st27{clip-path:url(#SVGID_00000076575178391222608150000012215293395468053648_);fill:#2B2961;}
	.st28{clip-path:url(#SVGID_00000056424149207127683700000004382965994075294092_);fill:#2B2961;}
	.st29{clip-path:url(#SVGID_00000016066442441833565860000009227121473315825829_);fill:#2B2961;}
	.st30{clip-path:url(#SVGID_00000016066442441833565860000009227121473315825829_);fill:#6796CF;}
	.st31{clip-path:url(#SVGID_00000003796405709733974090000013185433721795589762_);fill:#2B2961;}
	.st32{clip-path:url(#SVGID_00000088104079429032007570000017069445913547639197_);fill:#6796CF;}
	.st33{clip-path:url(#SVGID_00000088104079429032007570000017069445913547639197_);fill:#2B2961;}
	.st34{clip-path:url(#SVGID_00000138571326024425130650000006840194313069712309_);fill:#2B2961;}
	.st35{clip-path:url(#SVGID_00000138571326024425130650000006840194313069712309_);fill:#6796CF;}
	.st36{clip-path:url(#SVGID_00000047740316266220566120000008905194138507479213_);fill:#2B2961;}
	.st37{clip-path:url(#SVGID_00000124864014860715138670000015710634281708906671_);fill:#FFFFFF;}
	.st38{clip-path:url(#SVGID_00000124864014860715138670000015710634281708906671_);fill:#2B2961;}
	.st39{clip-path:url(#SVGID_00000054224287289392342280000003639912913802135940_);fill:#FFFFFF;}
	.st40{clip-path:url(#SVGID_00000054224287289392342280000003639912913802135940_);fill:#2B2961;}
	.st41{clip-path:url(#SVGID_00000069374571084759986130000011669781554715174060_);fill:#6796CF;}
	.st42{clip-path:url(#SVGID_00000069374571084759986130000011669781554715174060_);fill:#2B2961;}
	.st43{clip-path:url(#SVGID_00000163063298495621649230000017576678679548901559_);fill:#2B2961;}
	.st44{clip-path:url(#SVGID_00000178181903717336755660000011251754778762683274_);fill:#6796CF;}
	.st45{clip-path:url(#SVGID_00000178181903717336755660000011251754778762683274_);fill:#2B2961;}
	.st46{clip-path:url(#SVGID_00000091708733110167034900000011784271126892016007_);fill:#2B2961;}
	.st47{clip-path:url(#SVGID_00000090274999610557846080000016720761056946449833_);fill:#2B2961;}
	.st48{clip-path:url(#SVGID_00000090274999610557846080000016720761056946449833_);fill:#6796CF;}
	.st49{clip-path:url(#SVGID_00000062152661288208841490000017611600470647204006_);fill:#2B2961;}
	.st50{clip-path:url(#SVGID_00000004543981744430080490000003759369747226542756_);fill:#2B2961;}
	.st51{clip-path:url(#SVGID_00000054960599362087973070000016623866366487506081_);fill:#2B2961;}
	.st52{clip-path:url(#SVGID_00000054960599362087973070000016623866366487506081_);fill:#6796CF;}
	.st53{clip-path:url(#SVGID_00000039120173306530572710000009902291430758357407_);fill:#2B2961;}
	.st54{clip-path:url(#SVGID_00000056423281390168459670000007079989363010084258_);fill:#2B2961;}
	.st55{clip-path:url(#SVGID_00000148639749934920423810000005544372406335236538_);fill:#2B2961;}
	.st56{clip-path:url(#SVGID_00000068652434475441487920000005621860151776652460_);fill:#2B2961;}
	.st57{clip-path:url(#SVGID_00000127766728733499545570000010632867038777458571_);fill:#6796CF;}
	.st58{clip-path:url(#SVGID_00000145035978672623895350000001191204782664793010_);fill:#2B2961;}
	.st59{clip-path:url(#SVGID_00000023247058760725958530000009122280563638327472_);fill:#2B2961;}
	.st60{clip-path:url(#SVGID_00000101814501908406881340000001563831599699367558_);fill:#6796CF;}
	.st61{clip-path:url(#SVGID_00000075135914677932321350000014986844247244232594_);fill:#2B2961;}
	.st62{clip-path:url(#SVGID_00000115485891558367906070000014995336037212862643_);fill:#2B2961;}
	.st63{clip-path:url(#SVGID_00000115485891558367906070000014995336037212862643_);fill:#6796CF;}
	.st64{clip-path:url(#SVGID_00000142158501183493342250000001084235231814227598_);fill:#2B2961;}
	.st65{clip-path:url(#SVGID_00000090279019220293340580000014932780173829238145_);fill:#6796CF;}
	.st66{clip-path:url(#SVGID_00000090279019220293340580000014932780173829238145_);fill:#2B2961;}
	.st67{clip-path:url(#SVGID_00000029743613234815850970000005641606113229531800_);fill:#2B2961;}
	.st68{clip-path:url(#SVGID_00000073713094875168387860000018250085871779637377_);fill:#2B2961;}
	.st69{clip-path:url(#SVGID_00000073713094875168387860000018250085871779637377_);fill:#6796CF;}
	.st70{clip-path:url(#SVGID_00000157297490861774639960000017277132509231983544_);fill:#2B2961;}
	.st71{clip-path:url(#SVGID_00000020363059894767061240000014685253542474354088_);fill:#2B2961;}
	.st72{clip-path:url(#SVGID_00000177452566446957788410000018229027756554671803_);fill:#2B2961;}
	.st73{clip-path:url(#SVGID_00000177452566446957788410000018229027756554671803_);fill:#6796CF;}
	.st74{clip-path:url(#SVGID_00000114061047582759045950000008797475085751788971_);fill:#2B2961;}
	.st75{clip-path:url(#SVGID_00000183953832786882244770000015424181977521082812_);fill:#2B2961;}
	.st76{clip-path:url(#SVGID_00000000927324876540233250000005803463716940670119_);fill:#2B2961;}
	.st77{clip-path:url(#SVGID_00000004507594990640418280000010982389077949696660_);fill:#2B2961;}
	.st78{clip-path:url(#SVGID_00000090985156330261777800000006002977614733342108_);fill:#6796CF;}
	.st79{clip-path:url(#SVGID_00000090985156330261777800000006002977614733342108_);fill:#2B2961;}
	.st80{clip-path:url(#SVGID_00000131359950378193741980000003929103180754740151_);fill:#FFFFFF;}
	.st81{clip-path:url(#SVGID_00000131359950378193741980000003929103180754740151_);fill:#2B2961;}
	.st82{clip-path:url(#SVGID_00000147937286030043994570000011370234067545872036_);fill:#2B2961;}
	.st83{clip-path:url(#SVGID_00000152260574244740661700000009047881450475292590_);fill:#2B2961;}
	.st84{clip-path:url(#SVGID_00000152260574244740661700000009047881450475292590_);fill:#6796CF;}
	.st85{clip-path:url(#SVGID_00000075883276810467694000000004174397182178973357_);fill:#2B2961;}
	.st86{clip-path:url(#SVGID_00000051367566796279898540000002586506368503050906_);fill:#2B2961;}
	.st87{clip-path:url(#SVGID_00000051367566796279898540000002586506368503050906_);fill:#FFFFFF;}
	.st88{clip-path:url(#SVGID_00000013179720301721433250000018137873381980703402_);fill:#6796CF;}
	.st89{clip-path:url(#SVGID_00000013179720301721433250000018137873381980703402_);fill:#2B2961;}
	.st90{clip-path:url(#SVGID_00000170998369742012041510000016466271911165009307_);fill:#2B2961;}
	.st91{clip-path:url(#SVGID_00000015313763730190304900000007787807053837319057_);fill:#2B2961;}
	.st92{clip-path:url(#SVGID_00000015313763730190304900000007787807053837319057_);fill:#6796CF;}
	.st93{clip-path:url(#SVGID_00000136381110896152735180000000662230605227079076_);fill:#2B2961;}
	.st94{clip-path:url(#SVGID_00000136381110896152735180000000662230605227079076_);fill:#FFFFFF;}
	.st95{clip-path:url(#SVGID_00000106148604497312712280000014019820335417451910_);fill:#6796CF;}
	.st96{clip-path:url(#SVGID_00000106148604497312712280000014019820335417451910_);fill:#2B2961;}
	.st97{clip-path:url(#SVGID_00000106148604497312712280000014019820335417451910_);fill:#FFFFFF;}
	.st98{clip-path:url(#SVGID_00000183219577813029917700000007207072105543065535_);fill:#2B2961;}
	.st99{clip-path:url(#SVGID_00000183219577813029917700000007207072105543065535_);fill:#6796CF;}
	.st100{clip-path:url(#SVGID_00000181782588801350970700000011906087145449543321_);fill:#2B2961;}
	.st101{clip-path:url(#SVGID_00000077298731495884605290000005624351932172112562_);fill:#2B2961;}
	.st102{clip-path:url(#SVGID_00000106118570688487047870000012827415173964533175_);fill:#2B2961;}
	.st103{clip-path:url(#SVGID_00000070086377941117532370000009681106625255260307_);fill:#2B2961;}
	.st104{clip-path:url(#SVGID_00000103980072620109250930000007309713150697302417_);fill:#2B2961;}
	.st105{clip-path:url(#SVGID_00000096748383861157726920000000947617366345729423_);fill:#FFFFFF;}
	.st106{clip-path:url(#SVGID_00000096748383861157726920000000947617366345729423_);fill:#2B2961;}
	.st107{clip-path:url(#SVGID_00000096748383861157726920000000947617366345729423_);fill:#6796CF;}
	.st108{clip-path:url(#SVGID_00000095331643126287357570000011445528166197700282_);fill:#FFFFFF;}
	.st109{clip-path:url(#SVGID_00000015340923683605574890000003182807804112173464_);fill:#2B2961;}
	.st110{clip-path:url(#SVGID_00000015340923683605574890000003182807804112173464_);fill:#FFFFFF;}
	.st111{clip-path:url(#SVGID_00000070804808056468801170000014739700187075798413_);fill:#2B2961;}
	.st112{clip-path:url(#SVGID_00000032610664598293181070000007233923115053598615_);fill:#2B2961;}
	.st113{clip-path:url(#SVGID_00000032610664598293181070000007233923115053598615_);fill:#6796CF;}
	.st114{clip-path:url(#SVGID_00000157278680273569063220000010826061702992660620_);fill:#2B2961;}
	.st115{clip-path:url(#SVGID_00000012456364032044685020000000752941125004507802_);fill:#2B2961;}
	.st116{clip-path:url(#SVGID_00000012456364032044685020000000752941125004507802_);fill:#FFFFFF;}
	.st117{clip-path:url(#SVGID_00000057850081013541295990000012244724847492497288_);fill:#6796CF;}
	.st118{clip-path:url(#SVGID_00000026125327117950712000000009006555287555646347_);fill:#2B2961;}
	.st119{clip-path:url(#SVGID_00000023967912040503888800000009267251490314508427_);fill:#2B2961;}
	.st120{clip-path:url(#SVGID_00000043449212965784293390000002461358187687507872_);fill:#FFFFFF;}
	.st121{clip-path:url(#SVGID_00000043449212965784293390000002461358187687507872_);fill:#2B2961;}
	.st122{clip-path:url(#SVGID_00000035521376493580203540000016413159953173848709_);fill:#FFFFFF;}
	.st123{clip-path:url(#SVGID_00000035521376493580203540000016413159953173848709_);fill:#2B2961;}
	.st124{clip-path:url(#SVGID_00000111153651442879124190000015052417242469787054_);fill:#6796CF;}
	.st125{clip-path:url(#SVGID_00000111153651442879124190000015052417242469787054_);fill:#2B2961;}
	.st126{clip-path:url(#SVGID_00000032649884838669892750000011326131594596810416_);fill:#2B2961;}
	.st127{clip-path:url(#SVGID_00000032649884838669892750000011326131594596810416_);fill:#6796CF;}
	.st128{clip-path:url(#SVGID_00000161630574584766687960000017357942858878999483_);fill:#6796CF;}
	.st129{clip-path:url(#SVGID_00000152257652848947650550000000344736518391254414_);fill:#2B2961;}
	.st130{clip-path:url(#SVGID_00000143604786388087887440000007393150568056637850_);fill:#2B2961;}
	.st131{clip-path:url(#SVGID_00000158744367406615082510000000412493505360219798_);fill:#2B2961;}
	.st132{clip-path:url(#SVGID_00000016762565634366094130000008033910865156264890_);fill:#2B2961;}
	.st133{clip-path:url(#SVGID_00000164478259773425893880000015290007644588356502_);fill:#2B2961;}
	.st134{clip-path:url(#SVGID_00000164478259773425893880000015290007644588356502_);fill:#6796CF;}
	.st135{clip-path:url(#SVGID_00000176758501157736782000000004715319655215604105_);fill:#6796CF;}
	.st136{clip-path:url(#SVGID_00000044166549291695751740000010226327020368803492_);fill:#2B2961;}
	.st137{clip-path:url(#SVGID_00000147940311787720397650000007936720031949343658_);fill:#2B2961;}
	.st138{clip-path:url(#SVGID_00000075128171041964563990000015057992640611021465_);fill:#2B2961;}
	.st139{clip-path:url(#SVGID_00000153707835493775003870000008473761442233541561_);fill:#2B2961;}
	.st140{clip-path:url(#SVGID_00000041979203505212573020000001296371089784515498_);fill:#6796CF;}
	.st141{clip-path:url(#SVGID_00000041979203505212573020000001296371089784515498_);fill:#2B2961;}
	.st142{clip-path:url(#SVGID_00000135683088753101573150000002161730403733366669_);fill:#2B2961;}
	.st143{clip-path:url(#SVGID_00000117678492892558552380000012503760255053560502_);fill:#2B2961;}
	.st144{clip-path:url(#SVGID_00000115495259495478672050000003576585210381216912_);fill:#2B2961;}
	.st145{clip-path:url(#SVGID_00000115495259495478672050000003576585210381216912_);fill:#6796CF;}
	.st146{clip-path:url(#SVGID_00000096749020093974935880000002147083432991571378_);}
	.st147{clip-path:url(#SVGID_00000096749020093974935880000002147083432991571378_);fill:#FFFFFF;}
	.st148{clip-path:url(#SVGID_00000096749020093974935880000002147083432991571378_);fill:#2B2961;}
	.st149{clip-path:url(#SVGID_00000143592372564530561540000000998194503210853544_);fill:#2B2961;}
	.st150{clip-path:url(#SVGID_00000152959078377381158540000008473026658211891371_);fill:#2B2961;}
	.st151{clip-path:url(#SVGID_00000152959078377381158540000008473026658211891371_);fill:#FFFFFF;}
	.st152{clip-path:url(#SVGID_00000152959078377381158540000008473026658211891371_);fill:#6796CF;}
	.st153{clip-path:url(#SVGID_00000150815809940989352900000007426197360471598777_);fill:#2B2961;}
	.st154{clip-path:url(#SVGID_00000160878721201701571200000010604481479188626579_);fill:#2B2961;}
	.st155{clip-path:url(#SVGID_00000000943833411215289570000008795338369638320813_);fill:#6796CF;}
	.st156{clip-path:url(#SVGID_00000000943833411215289570000008795338369638320813_);}
	.st157{clip-path:url(#SVGID_00000156569659041360127460000011425874930812219323_);fill:#2B2961;}
	.st158{clip-path:url(#SVGID_00000000943833411215289570000008795338369638320813_);fill:#FFFFFF;}
	.st159{clip-path:url(#SVGID_00000000943833411215289570000008795338369638320813_);fill:#2B2961;}
	.st160{opacity:0.52;clip-path:url(#SVGID_00000075850273242181761440000015163092638081466524_);}
	.st161{clip-path:url(#SVGID_00000151507198579613135640000015831860381335264660_);fill:#6796CF;}
	.st162{clip-path:url(#SVGID_00000029006340506076068110000013421006597688362421_);fill:#2B2961;}
	.st163{clip-path:url(#SVGID_00000135691533991989309880000014854508746146602402_);fill:#2B2961;}
	.st164{clip-path:url(#SVGID_00000020382142376760141890000005270874987399856274_);fill:#6796CF;}
	.st165{clip-path:url(#SVGID_00000020382142376760141890000005270874987399856274_);fill:#2B2961;}
	.st166{clip-path:url(#SVGID_00000172426745011354873410000009881572641589609399_);fill:#2B2961;}
	.st167{clip-path:url(#SVGID_00000104702900712608699020000015182317504574100135_);fill:#2B2961;}
	.st168{clip-path:url(#SVGID_00000078754887825426891690000017967112363956259235_);fill:#2B2961;}
	.st169{clip-path:url(#SVGID_00000016796540503323710480000004016239110308388264_);fill:#FFFFFF;}
	.st170{clip-path:url(#SVGID_00000016796540503323710480000004016239110308388264_);fill:#2B2961;}
	.st171{clip-path:url(#SVGID_00000016796540503323710480000004016239110308388264_);fill:#6796CF;}
	.st172{clip-path:url(#SVGID_00000179616165141847047060000010491695895173226133_);fill:#6796CF;}
	.st173{clip-path:url(#SVGID_00000070092985407045086680000000303161799322565044_);fill:#2B2961;}
	.st174{clip-path:url(#SVGID_00000014630785418223398700000012663318541377072554_);fill:#2B2961;}
	.st175{clip-path:url(#SVGID_00000014630785418223398700000012663318541377072554_);fill:#FFFFFF;}
	.st176{clip-path:url(#SVGID_00000046315498042517128430000016825340503009850523_);fill:#6796CF;}
	.st177{clip-path:url(#SVGID_00000046315498042517128430000016825340503009850523_);fill:#2B2961;}
	.st178{clip-path:url(#SVGID_00000083085377962461520260000014909218883057808256_);fill:#6796CF;}
	.st179{clip-path:url(#SVGID_00000083085377962461520260000014909218883057808256_);fill:#2B2961;}
	.st180{clip-path:url(#SVGID_00000037669685739148890690000002343925654088672930_);fill:#2B2961;}
	.st181{clip-path:url(#SVGID_00000149361637289694818290000018004982587132208791_);fill:#2B2961;}
	.st182{clip-path:url(#SVGID_00000108279464507128937220000016285143299671887499_);fill:#FFFFFF;}
	.st183{clip-path:url(#SVGID_00000002370939454666713380000018437909067156437416_);fill:#2B2961;}
	.st184{clip-path:url(#SVGID_00000170241199949108958690000003942319024192922553_);fill:#2B2961;}
	.st185{clip-path:url(#SVGID_00000170241199949108958690000003942319024192922553_);fill:#6796CF;}
	.st186{clip-path:url(#SVGID_00000160902236842249136630000012746915838700073911_);fill:#2B2961;}
	.st187{clip-path:url(#SVGID_00000000180968958343125580000015389209405363744177_);fill:#2B2961;}
	.st188{clip-path:url(#SVGID_00000145033975661131901880000005362475045624186286_);fill:#6796CF;}
	.st189{clip-path:url(#SVGID_00000117674999687871299100000009720549998253308839_);fill:#2B2961;}
	.st190{clip-path:url(#SVGID_00000012470228595156702270000006272199379600297632_);fill:#6796CF;}
	.st191{clip-path:url(#SVGID_00000044874557888950965860000002431861778097017011_);fill:#2B2961;}
	.st192{clip-path:url(#SVGID_00000152960975932667830170000002657194421165199503_);fill:#6796CF;}
	.st193{clip-path:url(#SVGID_00000119089117821766516100000002974077695953710747_);fill:#2B2961;}
	.st194{clip-path:url(#SVGID_00000047021690231745288560000014399414917222889104_);}
	.st195{clip-path:url(#SVGID_00000047021690231745288560000014399414917222889104_);fill:#2B2961;}
	.st196{clip-path:url(#SVGID_00000047021690231745288560000014399414917222889104_);fill:#FFFFFF;}
	.st197{clip-path:url(#SVGID_00000106856183972070772360000007854419013283988646_);fill:#2B2961;}
	.st198{clip-path:url(#SVGID_00000145050532479074390180000012885337099197213827_);fill:#2B2961;}
	.st199{clip-path:url(#SVGID_00000082338528570769818920000003708209921198687653_);fill:#2B2961;}
	.st200{clip-path:url(#SVGID_00000086678329216873927500000003823023222350629265_);fill:#2B2961;}
	.st201{clip-path:url(#SVGID_00000147923261985031805120000003629028061649886364_);fill:#2B2961;}
	.st202{clip-path:url(#SVGID_00000103972837328139614160000015303151108981468290_);fill:#2B2961;}
	.st203{clip-path:url(#SVGID_00000138546763760597050000000005047107841779679886_);fill:#2B2961;}
	.st204{clip-path:url(#SVGID_00000111872301266691468500000018325183097926721166_);fill:#2B2961;}
	.st205{clip-path:url(#SVGID_00000090259107672099729510000010853589373094712226_);fill:#2B2961;}
	.st206{clip-path:url(#SVGID_00000173144914557628150250000009993010356353395114_);fill:#FFFFFF;}
	.st207{clip-path:url(#SVGID_00000173144914557628150250000009993010356353395114_);fill:#2B2961;}
	.st208{clip-path:url(#SVGID_00000150068003086418127030000004865886604827257493_);fill:#6796CF;}
	.st209{clip-path:url(#SVGID_00000150068003086418127030000004865886604827257493_);fill:#2B2961;}
	.st210{clip-path:url(#SVGID_00000127731481259153895480000016394913073974621341_);fill:#2B2961;}
	.st211{clip-path:url(#SVGID_00000127731481259153895480000016394913073974621341_);fill:#FFFFFF;}
	.st212{clip-path:url(#SVGID_00000182493489985553814000000007293451693977041809_);fill:#6796CF;}
	.st213{clip-path:url(#SVGID_00000182493489985553814000000007293451693977041809_);fill:#2B2961;}
	.st214{clip-path:url(#SVGID_00000036941352273168716190000001645099502634807209_);fill:#6796CF;}
	.st215{clip-path:url(#SVGID_00000036941352273168716190000001645099502634807209_);fill:#2B2961;}
	.st216{clip-path:url(#SVGID_00000067935607196812496680000015510106148659669948_);}
	.st217{clip-path:url(#SVGID_00000094580834093718589460000017351026416868509099_);}
	.st218{clip-path:url(#SVGID_00000148652417005474098890000013201034129327808395_);}
	.st219{clip-path:url(#SVGID_00000139276872428706357920000004301619058693116055_);}
	.st220{clip-path:url(#SVGID_00000070110092413349620640000004558098217354512039_);}
	.st221{clip-path:url(#SVGID_00000085935001112709929480000002886375011561758897_);}
	.st222{clip-path:url(#SVGID_00000154421274064641229880000014788487881147784332_);}
	.st223{clip-path:url(#SVGID_00000012462055135483857280000017650721571574919091_);}
	.st224{clip-path:url(#SVGID_00000172402134333496518870000001390186321695744180_);}
	.st225{clip-path:url(#SVGID_00000072250731562353309540000001444836144543939233_);}
	.st226{clip-path:url(#SVGID_00000092414257895873450530000007459400739603309466_);}
	.st227{clip-path:url(#SVGID_00000152249372697162746830000005378021557338819458_);}
	.st228{clip-path:url(#SVGID_00000085939157430009400870000004332758822513543593_);}
	.st229{clip-path:url(#SVGID_00000015347569862923841360000017289239672504786066_);}
	.st230{clip-path:url(#SVGID_00000029727013196778326550000012156265178963633300_);fill:#2B2961;}
	.st231{clip-path:url(#SVGID_00000029727013196778326550000012156265178963633300_);fill:#6796CF;}
	.st232{fill:#A2B9E1;}
	.st233{clip-path:url(#SVGID_00000081629336667195231530000013766057318816193717_);}
	.st234{clip-path:url(#SVGID_00000095326872017707448820000016389215862521600676_);}
</style>
<g>
	<polygon class="st2" points="1.63,0.33 1.63,57.64 30.71,57.64 41.21,42.48 41.21,0.33 	"/>
	<path class="st2" d="M30.77,57.76H1.51V0.21h39.82v42.3l-0.02,0.03L30.77,57.76z M1.75,57.52h28.9l10.45-15.08V0.45H1.75V57.52z"/>
	<g>
		<path class="st8" d="M40.92,58.02H0.3c-0.17,0-0.3-0.13-0.3-0.3V0.3C0,0.13,0.13,0,0.3,0h40.62c0.17,0,0.3,0.13,0.3,0.3v57.42
			C41.22,57.88,41.09,58.02,40.92,58.02z M0.6,57.42h40.02V0.6H0.6V57.42z"/>
	</g>
	<polygon class="st4" points="4.45,4.45 4.45,61.86 36.74,61.86 45.07,53.54 45.07,4.45 	"/>
	<g>
		<path class="st8" d="M36.74,62.16H4.45c-0.17,0-0.3-0.13-0.3-0.3V4.45c0-0.17,0.13-0.3,0.3-0.3h40.62c0.17,0,0.3,0.13,0.3,0.3
			v49.09c0,0.08-0.03,0.16-0.09,0.21l-8.34,8.32C36.89,62.13,36.82,62.16,36.74,62.16z M4.75,61.56h31.87l8.16-8.15V4.75H4.75V61.56
			z"/>
	</g>
	<polygon class="st4" points="36.59,53.58 36.59,62.06 45.07,53.58 	"/>
	<g>
		<path class="st8" d="M36.59,62.34c-0.04,0-0.07-0.01-0.11-0.02c-0.1-0.04-0.17-0.14-0.17-0.26v-8.49c0-0.15,0.12-0.28,0.28-0.28
			h8.49c0.11,0,0.21,0.07,0.26,0.17c0.04,0.1,0.02,0.22-0.06,0.3l-8.49,8.49C36.73,62.31,36.66,62.34,36.59,62.34z M36.86,53.85
			v7.54l7.54-7.54H36.86z"/>
	</g>
	<polygon class="st2" points="37.32,53.85 45.08,53.85 37.32,61.5 	"/>
	<path class="st2" d="M37.2,61.79v-8.05h8.17L37.2,61.79z M37.44,53.97v7.24l7.34-7.24H37.44z"/>
	<g>
		<path class="st8" d="M36.59,62.36c-0.04,0-0.08-0.01-0.12-0.02c-0.11-0.05-0.18-0.16-0.18-0.28v-8.49c0-0.17,0.13-0.3,0.3-0.3
			h8.49c0.12,0,0.23,0.07,0.28,0.19c0.05,0.11,0.02,0.24-0.07,0.33l-8.49,8.49C36.74,62.33,36.67,62.36,36.59,62.36z M36.89,53.88
			v7.46l7.46-7.46H36.89z"/>
	</g>
	<path class="st8" d="M40.63,47.97c-0.06,0-0.12-0.03-0.16-0.08l-8.79-11.81c-0.07-0.09-0.05-0.21,0.04-0.28
		c0.08-0.06,0.21-0.05,0.28,0.04l8.79,11.81c0.07,0.09,0.05,0.21-0.04,0.28C40.71,47.96,40.67,47.97,40.63,47.97z"/>
	<g>
		<path class="st4" d="M33.02,24.67c0,6.73-5.21,12.18-11.64,12.18S9.74,31.4,9.74,24.67c0-0.47,0.02-0.93,0.07-1.39
			c0.66-6.07,5.58-10.79,11.56-10.79C27.81,12.5,33.02,17.95,33.02,24.67"/>
		<path class="st8" d="M21.38,37.05c-6.53,0-11.84-5.55-11.84-12.38c0-0.47,0.03-0.95,0.08-1.41c0.68-6.25,5.74-10.97,11.76-10.97
			c6.53,0,11.84,5.55,11.84,12.38S27.91,37.05,21.38,37.05z M21.38,12.7c-5.82,0-10.71,4.56-11.36,10.61
			c-0.05,0.45-0.07,0.91-0.07,1.37c0,6.6,5.13,11.98,11.44,11.98c6.31,0,11.44-5.37,11.44-11.98S27.69,12.7,21.38,12.7z"/>
		<path class="st2" d="M29.01,14.55c0.2,0.15,0.34,0.25,0.53,0.41c5.05,4.2,6.36,11.42,2.81,16.78c-1.52,2.3-3.71,3.91-6.18,4.77
			l0.07-0.03c-5.7-4.65-4.82-11.97-4.82-11.97C27.71,22.7,28.91,14.47,29.01,14.55"/>
		<path class="st8" d="M24.28,22.46c-4.89-5.83-12.41-4.51-12.48-4.5l-0.07-0.39c0.08-0.01,7.82-1.38,12.86,4.63L24.28,22.46z
			 M27.13,18.25c-4.13-5.07-10.36-4.46-10.43-4.45l-0.04-0.4c0.06-0.01,6.51-0.65,10.78,4.59L27.13,18.25z"/>
		<path class="st8" d="M20.2,37.05c-0.06-0.07-6.18-6.9-2.56-14.16l0.36,0.18c-3.49,7.02,2.44,13.64,2.5,13.71L20.2,37.05z
			 M14.65,35.01c-0.05-0.05-4.54-5.46-2.16-12.03l0.38,0.14c-2.29,6.35,2.05,11.58,2.09,11.63L14.65,35.01z M23.86,33.16l-0.09-0.39
			c6.29-1.41,8.93-8,8.95-8.07l0.37,0.15C33.07,24.92,30.36,31.7,23.86,33.16z M21.66,28.93l-0.07-0.39
			c7.94-1.48,9.71-9.53,9.73-9.61l0.39,0.08C31.69,19.09,29.85,27.4,21.66,28.93z"/>
		<path class="st8" d="M26.19,35.85c-0.06-0.05-5.97-4.88-5.03-11.08l0.4,0.06c-0.9,5.97,4.83,10.66,4.88,10.71L26.19,35.85z"/>
	</g>
	<path class="st8" d="M34.98,51.6c-0.06,0-0.12-0.03-0.16-0.08L26.03,39.7c-0.07-0.09-0.05-0.21,0.04-0.28
		c0.08-0.06,0.21-0.05,0.28,0.04l8.79,11.81c0.07,0.09,0.05,0.21-0.04,0.28C35.06,51.58,35.02,51.6,34.98,51.6z"/>
	<path class="st8" d="M38.51,50.9c-0.06,0-0.12-0.03-0.16-0.08l-8.79-11.81c-0.07-0.09-0.05-0.21,0.04-0.28
		c0.09-0.06,0.21-0.05,0.28,0.04l8.79,11.81c0.07,0.09,0.05,0.21-0.04,0.28C38.6,50.89,38.56,50.9,38.51,50.9z"/>
	<g>
		<path class="st8" d="M21.29,37.14c-6.53,0-11.84-5.55-11.84-12.38c0-0.48,0.03-0.96,0.08-1.41c0.68-6.25,5.73-10.96,11.76-10.96
			c6.53,0,11.84,5.55,11.84,12.38S27.81,37.14,21.29,37.14z M9.87,24.12c-0.01,0.21-0.02,0.43-0.02,0.65
			c0,6.6,5.13,11.98,11.44,11.98s11.44-5.37,11.44-11.98c0-3.86-1.75-7.3-4.47-9.49c-0.86,6.59-6.81,9.64-6.87,9.67
			c-0.07,0.04-0.16,0.02-0.22-0.03C16.99,21.38,10.77,23.75,9.87,24.12z M15.44,22.6c1.95,0,4.08,0.46,5.87,1.93
			c0.83-0.46,5.91-3.51,6.57-9.54c-1.87-1.38-4.14-2.2-6.6-2.2c-5.82,0-10.71,4.56-11.36,10.61c-0.01,0.09-0.02,0.18-0.03,0.28
			C10.69,23.37,12.91,22.6,15.44,22.6z"/>
	</g>
</g>
</svg>
