<?xml version="1.0" encoding="utf-8"?>
<!-- Generator: Adobe Illustrator 26.0.2, SVG Export Plug-In . SVG Version: 6.00 Build 0)  -->
<svg version="1.1" id="Ebene_1" xmlns="http://www.w3.org/2000/svg" xmlns:xlink="http://www.w3.org/1999/xlink" x="0px" y="0px"
	 viewBox="0 0 177.76 62.63" style="enable-background:new 0 0 177.76 62.63;" xml:space="preserve">
<style type="text/css">
	.st0{clip-path:url(#SVGID_00000112617895563299744850000014240740962436754598_);fill:#6796CF;}
	.st1{clip-path:url(#SVGID_00000112617895563299744850000014240740962436754598_);fill:#2B2961;}
	.st2{fill:#6796CF;}
	.st3{clip-path:url(#SVGID_00000147181990342047316730000016500531567100643723_);fill:#2B2961;}
	.st4{fill:#FFFFFF;}
	.st5{clip-path:url(#SVGID_00000156564839827823447750000018234900103569202587_);fill:#2B2961;}
	.st6{clip-path:url(#SVGID_00000085950788941564291210000013737725604415749557_);fill:#2B2961;}
	.st7{clip-path:url(#SVGID_00000112626364063034089600000013015254979951829180_);fill:#2B2961;}
	.st8{fill:#2B2961;}
	.st9{clip-path:url(#SVGID_00000113326557506322394010000010009906417668149923_);fill:#6796CF;}
	.st10{clip-path:url(#SVGID_00000113326557506322394010000010009906417668149923_);fill:#2B2961;}
	.st11{clip-path:url(#SVGID_00000121255382954838946840000015026742504488672652_);fill:#2B2961;}
	.st12{clip-path:url(#SVGID_00000145760260966794614170000013624464172293364876_);fill:#2B2961;}
	.st13{clip-path:url(#SVGID_00000145760260966794614170000013624464172293364876_);fill:#6796CF;}
	.st14{clip-path:url(#SVGID_00000047035706104279791440000002629922625954144901_);fill:#2B2961;}
	.st15{clip-path:url(#SVGID_00000026150856002915405650000011594235296621460103_);fill:#2B2961;}
	.st16{clip-path:url(#SVGID_00000096026236334809919730000016050029327249448621_);fill:#2B2961;}
	.st17{clip-path:url(#SVGID_00000096026236334809919730000016050029327249448621_);fill:#6796CF;}
	.st18{clip-path:url(#SVGID_00000047031853105968952820000014801326908217763234_);fill:#2B2961;}
	.st19{clip-path:url(#SVGID_00000080167684279440846030000004580987921671863740_);fill:#2B2961;}
	.st20{clip-path:url(#SVGID_00000018935153109223316710000001081289599611698101_);fill:#2B2961;}
	.st21{clip-path:url(#SVGID_00000115507421708589092660000008013219058815557506_);fill:#2B2961;}
	.st22{clip-path:url(#SVGID_00000045590034547692523270000005218315537044601275_);fill:#6796CF;}
	.st23{clip-path:url(#SVGID_00000045590034547692523270000005218315537044601275_);fill:#2B2961;}
	.st24{clip-path:url(#SVGID_00000084496523312029766310000017279783321474344375_);fill:#2B2961;}
	.st25{clip-path:url(#SVGID_00000086691762041342650800000010155133154855205040_);fill:#2B2961;}
	.st26{clip-path:url(#SVGID_00000086691762041342650800000010155133154855205040_);fill:#6796CF;}
	.st27{clip-path:url(#SVGID_00000134226632550181002780000016246069463796701081_);fill:#2B2961;}
	.st28{clip-path:url(#SVGID_00000156558510377628773720000000623440822810110874_);fill:#2B2961;}
	.st29{clip-path:url(#SVGID_00000030465853433084456030000010855860037763510695_);fill:#2B2961;}
	.st30{clip-path:url(#SVGID_00000030465853433084456030000010855860037763510695_);fill:#6796CF;}
	.st31{clip-path:url(#SVGID_00000109743882227764278820000005251733857077306003_);fill:#2B2961;}
	.st32{clip-path:url(#SVGID_00000062893140263581818270000013809555285500589964_);fill:#6796CF;}
	.st33{clip-path:url(#SVGID_00000062893140263581818270000013809555285500589964_);fill:#2B2961;}
	.st34{clip-path:url(#SVGID_00000100350862931946064590000005499717459373694080_);fill:#2B2961;}
	.st35{clip-path:url(#SVGID_00000100350862931946064590000005499717459373694080_);fill:#6796CF;}
	.st36{clip-path:url(#SVGID_00000067215798399346878970000011636203149130187919_);fill:#2B2961;}
	.st37{clip-path:url(#SVGID_00000078724769991308898140000005083924595694313606_);fill:#FFFFFF;}
	.st38{clip-path:url(#SVGID_00000078724769991308898140000005083924595694313606_);fill:#2B2961;}
	.st39{clip-path:url(#SVGID_00000044882904289645825160000009047142280033155744_);fill:#FFFFFF;}
	.st40{clip-path:url(#SVGID_00000044882904289645825160000009047142280033155744_);fill:#2B2961;}
	.st41{clip-path:url(#SVGID_00000140695499751836148590000007404027584305114295_);fill:#6796CF;}
	.st42{clip-path:url(#SVGID_00000140695499751836148590000007404027584305114295_);fill:#2B2961;}
	.st43{clip-path:url(#SVGID_00000015356983159707036850000013885593514547935678_);fill:#2B2961;}
	.st44{clip-path:url(#SVGID_00000168106621227957478980000008585919608512027043_);fill:#6796CF;}
	.st45{clip-path:url(#SVGID_00000168106621227957478980000008585919608512027043_);fill:#2B2961;}
	.st46{clip-path:url(#SVGID_00000079483400259762126160000012903922598458203779_);fill:#2B2961;}
	.st47{clip-path:url(#SVGID_00000148639877215014438510000003535894210867128989_);fill:#2B2961;}
	.st48{clip-path:url(#SVGID_00000148639877215014438510000003535894210867128989_);fill:#6796CF;}
	.st49{clip-path:url(#SVGID_00000165947356785109059370000010160532907171477384_);fill:#2B2961;}
	.st50{clip-path:url(#SVGID_00000051369670695191577400000010618564885793365382_);fill:#2B2961;}
	.st51{clip-path:url(#SVGID_00000068671520481183773230000001718918231254726053_);fill:#2B2961;}
	.st52{clip-path:url(#SVGID_00000068671520481183773230000001718918231254726053_);fill:#6796CF;}
	.st53{clip-path:url(#SVGID_00000137089655907217196650000007497376637776817303_);fill:#2B2961;}
	.st54{clip-path:url(#SVGID_00000158024866364128449340000016721457147884445324_);fill:#2B2961;}
	.st55{clip-path:url(#SVGID_00000146501213239248193360000004018009929616293505_);fill:#2B2961;}
	.st56{clip-path:url(#SVGID_00000142136102420045834540000005162585917176692909_);fill:#2B2961;}
	.st57{clip-path:url(#SVGID_00000005237161130855008210000015726034358686589573_);fill:#6796CF;}
	.st58{clip-path:url(#SVGID_00000031177085155870880750000004333306125413985969_);fill:#2B2961;}
	.st59{clip-path:url(#SVGID_00000182530063195641035210000011368463057116291734_);fill:#2B2961;}
	.st60{clip-path:url(#SVGID_00000083808758005750771920000013803770953069061017_);fill:#6796CF;}
	.st61{clip-path:url(#SVGID_00000139983390374301498150000015519032815624111793_);fill:#2B2961;}
	.st62{clip-path:url(#SVGID_00000097460370880981732730000005246814261816484504_);fill:#2B2961;}
	.st63{clip-path:url(#SVGID_00000097460370880981732730000005246814261816484504_);fill:#6796CF;}
	.st64{clip-path:url(#SVGID_00000157994125473402711030000000325478956117828530_);fill:#2B2961;}
	.st65{clip-path:url(#SVGID_00000153690479109958714800000016090580767598494362_);fill:#6796CF;}
	.st66{clip-path:url(#SVGID_00000153690479109958714800000016090580767598494362_);fill:#2B2961;}
	.st67{clip-path:url(#SVGID_00000163768951078906285430000002629770397588932251_);fill:#2B2961;}
	.st68{clip-path:url(#SVGID_00000159458445079326062920000010114476233919169189_);fill:#2B2961;}
	.st69{clip-path:url(#SVGID_00000159458445079326062920000010114476233919169189_);fill:#6796CF;}
	.st70{clip-path:url(#SVGID_00000127722967734409035960000013227356180270257809_);fill:#2B2961;}
	.st71{clip-path:url(#SVGID_00000058548284039609379650000003654846525935507864_);fill:#2B2961;}
	.st72{clip-path:url(#SVGID_00000152963049188673822060000012669100513408525451_);fill:#2B2961;}
	.st73{clip-path:url(#SVGID_00000152963049188673822060000012669100513408525451_);fill:#6796CF;}
	.st74{clip-path:url(#SVGID_00000160185484279918840680000004326367233953930428_);fill:#2B2961;}
	.st75{clip-path:url(#SVGID_00000072959924777549834530000011664379365632467858_);fill:#2B2961;}
	.st76{clip-path:url(#SVGID_00000118369656155582565920000010530869155429618577_);fill:#2B2961;}
	.st77{clip-path:url(#SVGID_00000083055760745866029170000000362555945071520669_);fill:#2B2961;}
	.st78{clip-path:url(#SVGID_00000073690997884422599050000008621988356869846402_);fill:#6796CF;}
	.st79{clip-path:url(#SVGID_00000073690997884422599050000008621988356869846402_);fill:#2B2961;}
	.st80{clip-path:url(#SVGID_00000014598644906484604050000009968045521392828544_);fill:#FFFFFF;}
	.st81{clip-path:url(#SVGID_00000014598644906484604050000009968045521392828544_);fill:#2B2961;}
	.st82{clip-path:url(#SVGID_00000128486863796698805040000017473060254476225967_);fill:#2B2961;}
	.st83{clip-path:url(#SVGID_00000058587543706424336540000016444396665215018125_);fill:#2B2961;}
	.st84{clip-path:url(#SVGID_00000058587543706424336540000016444396665215018125_);fill:#6796CF;}
	.st85{clip-path:url(#SVGID_00000026142222268445341040000014976032870796259260_);fill:#2B2961;}
	.st86{clip-path:url(#SVGID_00000006670845358835361490000016955299597996738733_);fill:#2B2961;}
	.st87{clip-path:url(#SVGID_00000006670845358835361490000016955299597996738733_);fill:#FFFFFF;}
	.st88{clip-path:url(#SVGID_00000150091881888713040270000008606870367229332639_);fill:#6796CF;}
	.st89{clip-path:url(#SVGID_00000150091881888713040270000008606870367229332639_);fill:#2B2961;}
	.st90{clip-path:url(#SVGID_00000064346072891773084150000000425993579999616652_);fill:#2B2961;}
	.st91{clip-path:url(#SVGID_00000019658585317768828360000006296515604222961333_);fill:#2B2961;}
	.st92{clip-path:url(#SVGID_00000019658585317768828360000006296515604222961333_);fill:#6796CF;}
	.st93{clip-path:url(#SVGID_00000023967261218842816970000001674694473980280211_);fill:#2B2961;}
	.st94{clip-path:url(#SVGID_00000023967261218842816970000001674694473980280211_);fill:#FFFFFF;}
	.st95{clip-path:url(#SVGID_00000152967200029684919120000000866374735728504752_);fill:#6796CF;}
	.st96{clip-path:url(#SVGID_00000152967200029684919120000000866374735728504752_);fill:#2B2961;}
	.st97{clip-path:url(#SVGID_00000152967200029684919120000000866374735728504752_);fill:#FFFFFF;}
	.st98{clip-path:url(#SVGID_00000075876395083303114990000010382277429207282851_);fill:#2B2961;}
	.st99{clip-path:url(#SVGID_00000075876395083303114990000010382277429207282851_);fill:#6796CF;}
	.st100{clip-path:url(#SVGID_00000169528609348707185950000007531320719804338316_);fill:#2B2961;}
	.st101{clip-path:url(#SVGID_00000029036099693884783190000009003347997106864265_);fill:#2B2961;}
	.st102{clip-path:url(#SVGID_00000155854098804767476630000014364349648293499057_);fill:#2B2961;}
	.st103{clip-path:url(#SVGID_00000050662861534609162190000008738765062101036434_);fill:#2B2961;}
	.st104{clip-path:url(#SVGID_00000145746690008978166510000017711640210031351723_);fill:#2B2961;}
	.st105{clip-path:url(#SVGID_00000144330336788012623830000011083559186600459429_);fill:#FFFFFF;}
	.st106{clip-path:url(#SVGID_00000144330336788012623830000011083559186600459429_);fill:#2B2961;}
	.st107{clip-path:url(#SVGID_00000144330336788012623830000011083559186600459429_);fill:#6796CF;}
	.st108{clip-path:url(#SVGID_00000010997082848337989750000007708187223028702137_);fill:#FFFFFF;}
	.st109{clip-path:url(#SVGID_00000071560875676158756700000012946073005209472163_);fill:#2B2961;}
	.st110{clip-path:url(#SVGID_00000071560875676158756700000012946073005209472163_);fill:#FFFFFF;}
	.st111{clip-path:url(#SVGID_00000004539756891671514950000018313847718221675683_);fill:#2B2961;}
	.st112{clip-path:url(#SVGID_00000142153707046006960630000005625683338807612094_);fill:#2B2961;}
	.st113{clip-path:url(#SVGID_00000142153707046006960630000005625683338807612094_);fill:#6796CF;}
	.st114{clip-path:url(#SVGID_00000033359263090589628960000004604860766655960481_);fill:#2B2961;}
	.st115{clip-path:url(#SVGID_00000029034341447308274210000016984309312974513331_);fill:#2B2961;}
	.st116{clip-path:url(#SVGID_00000029034341447308274210000016984309312974513331_);fill:#FFFFFF;}
	.st117{clip-path:url(#SVGID_00000117650801102497939810000016050629371051892112_);fill:#6796CF;}
	.st118{clip-path:url(#SVGID_00000128474809452702607010000000772233686069182902_);fill:#2B2961;}
	.st119{clip-path:url(#SVGID_00000152980895464831446580000007570970027474185892_);fill:#2B2961;}
	.st120{clip-path:url(#SVGID_00000041283344322949324650000017664371044687038394_);fill:#FFFFFF;}
	.st121{clip-path:url(#SVGID_00000041283344322949324650000017664371044687038394_);fill:#2B2961;}
	.st122{clip-path:url(#SVGID_00000144307997922801760390000015607626827614576805_);fill:#FFFFFF;}
	.st123{clip-path:url(#SVGID_00000144307997922801760390000015607626827614576805_);fill:#2B2961;}
	.st124{clip-path:url(#SVGID_00000121965312275593186640000007676184286671759267_);fill:#6796CF;}
	.st125{clip-path:url(#SVGID_00000121965312275593186640000007676184286671759267_);fill:#2B2961;}
	.st126{clip-path:url(#SVGID_00000029025393051292534570000013723216618105942414_);fill:#2B2961;}
	.st127{clip-path:url(#SVGID_00000029025393051292534570000013723216618105942414_);fill:#6796CF;}
	.st128{clip-path:url(#SVGID_00000087397246699993142160000015875797380988250263_);fill:#6796CF;}
	.st129{clip-path:url(#SVGID_00000152951907621970031280000015287172144452564379_);fill:#2B2961;}
	.st130{clip-path:url(#SVGID_00000005227057585639369150000001953211442864680578_);fill:#2B2961;}
	.st131{clip-path:url(#SVGID_00000119105798319775174350000005274520971741763207_);fill:#2B2961;}
	.st132{clip-path:url(#SVGID_00000150096091234138645550000005155490527425991610_);fill:#2B2961;}
	.st133{clip-path:url(#SVGID_00000143610627951346602360000016379442568380535942_);fill:#2B2961;}
	.st134{clip-path:url(#SVGID_00000143610627951346602360000016379442568380535942_);fill:#6796CF;}
	.st135{clip-path:url(#SVGID_00000088092828217270597390000015205537819792367805_);fill:#6796CF;}
	.st136{clip-path:url(#SVGID_00000031177484413704265170000010375150010532041633_);fill:#2B2961;}
	.st137{clip-path:url(#SVGID_00000011746908338451138130000006687944931689857691_);fill:#2B2961;}
	.st138{clip-path:url(#SVGID_00000088817281273145010360000015106903653768572078_);fill:#2B2961;}
	.st139{clip-path:url(#SVGID_00000134228449675011447740000003926181650118390459_);fill:#2B2961;}
	.st140{clip-path:url(#SVGID_00000036942955516295000660000004417272951586968495_);fill:#6796CF;}
	.st141{clip-path:url(#SVGID_00000036942955516295000660000004417272951586968495_);fill:#2B2961;}
	.st142{clip-path:url(#SVGID_00000007408597815984002020000010295477256632078743_);fill:#2B2961;}
	.st143{clip-path:url(#SVGID_00000178201900684315657770000002348618173341223591_);fill:#2B2961;}
	.st144{clip-path:url(#SVGID_00000115484100482197689550000014988727755192045982_);fill:#2B2961;}
	.st145{clip-path:url(#SVGID_00000115484100482197689550000014988727755192045982_);fill:#6796CF;}
	.st146{clip-path:url(#SVGID_00000118359656740859451120000002022767141785292989_);}
	.st147{clip-path:url(#SVGID_00000118359656740859451120000002022767141785292989_);fill:#FFFFFF;}
	.st148{clip-path:url(#SVGID_00000118359656740859451120000002022767141785292989_);fill:#2B2961;}
	.st149{clip-path:url(#SVGID_00000007413802508525605420000001638127957907839619_);fill:#2B2961;}
	.st150{clip-path:url(#SVGID_00000179640776924698292370000016293027393275889594_);fill:#2B2961;}
	.st151{clip-path:url(#SVGID_00000179640776924698292370000016293027393275889594_);fill:#FFFFFF;}
	.st152{clip-path:url(#SVGID_00000179640776924698292370000016293027393275889594_);fill:#6796CF;}
	.st153{clip-path:url(#SVGID_00000131341705952012025250000000049288201534124184_);fill:#2B2961;}
	.st154{clip-path:url(#SVGID_00000089558688288603137640000005823240223475554467_);fill:#2B2961;}
	.st155{clip-path:url(#SVGID_00000079485891871088394500000004685444853014691000_);fill:#6796CF;}
	.st156{clip-path:url(#SVGID_00000079485891871088394500000004685444853014691000_);}
	.st157{clip-path:url(#SVGID_00000076567213466186698290000013222074452224386963_);fill:#2B2961;}
	.st158{clip-path:url(#SVGID_00000079485891871088394500000004685444853014691000_);fill:#FFFFFF;}
	.st159{clip-path:url(#SVGID_00000079485891871088394500000004685444853014691000_);fill:#2B2961;}
	.st160{opacity:0.52;clip-path:url(#SVGID_00000063605483389762721350000017600261219997401742_);}
	.st161{clip-path:url(#SVGID_00000119082057225236770390000014162165033895472559_);fill:#6796CF;}
	.st162{clip-path:url(#SVGID_00000085963498837772176720000013995937887131242118_);fill:#2B2961;}
	.st163{clip-path:url(#SVGID_00000067201897789012053300000007558614298738884773_);fill:#2B2961;}
	.st164{clip-path:url(#SVGID_00000128448550784263084690000003160553852963063972_);fill:#6796CF;}
	.st165{clip-path:url(#SVGID_00000128448550784263084690000003160553852963063972_);fill:#2B2961;}
	.st166{clip-path:url(#SVGID_00000054961764933916762900000011019570577793106307_);fill:#2B2961;}
	.st167{clip-path:url(#SVGID_00000076570420088439711200000010338977938723477133_);fill:#2B2961;}
	.st168{clip-path:url(#SVGID_00000165932658139008548560000002924442134248553644_);fill:#2B2961;}
	.st169{clip-path:url(#SVGID_00000157274691984430050260000001990189890016143786_);fill:#FFFFFF;}
	.st170{clip-path:url(#SVGID_00000157274691984430050260000001990189890016143786_);fill:#2B2961;}
	.st171{clip-path:url(#SVGID_00000157274691984430050260000001990189890016143786_);fill:#6796CF;}
	.st172{clip-path:url(#SVGID_00000167393785982243498710000003172729439076936367_);fill:#6796CF;}
	.st173{clip-path:url(#SVGID_00000060027576409370071710000007845301783259709366_);fill:#2B2961;}
	.st174{clip-path:url(#SVGID_00000066493380656157708630000013652843654567708300_);fill:#2B2961;}
	.st175{clip-path:url(#SVGID_00000066493380656157708630000013652843654567708300_);fill:#FFFFFF;}
	.st176{clip-path:url(#SVGID_00000082354884808459249960000009423918334547418790_);fill:#6796CF;}
	.st177{clip-path:url(#SVGID_00000082354884808459249960000009423918334547418790_);fill:#2B2961;}
	.st178{clip-path:url(#SVGID_00000179634176093712775910000000002452635500653472_);fill:#6796CF;}
	.st179{clip-path:url(#SVGID_00000179634176093712775910000000002452635500653472_);fill:#2B2961;}
	.st180{clip-path:url(#SVGID_00000112623856098405365390000010121797767961448113_);fill:#2B2961;}
	.st181{clip-path:url(#SVGID_00000106137896177518885270000000383160988472805562_);fill:#2B2961;}
	.st182{clip-path:url(#SVGID_00000050662069058344347990000005690062734662471858_);fill:#FFFFFF;}
	.st183{clip-path:url(#SVGID_00000100376641560132487550000011505929227950818737_);fill:#2B2961;}
	.st184{clip-path:url(#SVGID_00000137816212785335792440000002329847476927803045_);fill:#2B2961;}
	.st185{clip-path:url(#SVGID_00000137816212785335792440000002329847476927803045_);fill:#6796CF;}
	.st186{clip-path:url(#SVGID_00000127044931149042667400000012791267360743316922_);fill:#2B2961;}
	.st187{clip-path:url(#SVGID_00000036212825209064037590000009067782854444954521_);fill:#2B2961;}
	.st188{clip-path:url(#SVGID_00000080904044890193849980000009544800957899674796_);fill:#6796CF;}
	.st189{clip-path:url(#SVGID_00000072244980700685910960000010873888489233979832_);fill:#2B2961;}
	.st190{clip-path:url(#SVGID_00000009553551656483603300000002096127722691397507_);fill:#6796CF;}
	.st191{clip-path:url(#SVGID_00000107573823527258181580000000895233518593337752_);fill:#2B2961;}
	.st192{clip-path:url(#SVGID_00000031207457834783295930000006566731924740341918_);fill:#6796CF;}
	.st193{clip-path:url(#SVGID_00000001662844525596716850000009708840378527382677_);fill:#2B2961;}
	.st194{clip-path:url(#SVGID_00000150815252231096559430000001947349388409254016_);}
	.st195{clip-path:url(#SVGID_00000150815252231096559430000001947349388409254016_);fill:#2B2961;}
	.st196{clip-path:url(#SVGID_00000150815252231096559430000001947349388409254016_);fill:#FFFFFF;}
	.st197{clip-path:url(#SVGID_00000026160442091538235140000002753483263309882295_);fill:#2B2961;}
	.st198{clip-path:url(#SVGID_00000111892916022555995380000007801761148467186820_);fill:#2B2961;}
	.st199{clip-path:url(#SVGID_00000083806309922918533660000003994153801309196428_);fill:#2B2961;}
	.st200{clip-path:url(#SVGID_00000060743294800524559340000014807709891943041671_);fill:#2B2961;}
	.st201{clip-path:url(#SVGID_00000021110489981123828430000006367731502588329887_);fill:#2B2961;}
	.st202{clip-path:url(#SVGID_00000173868087998111419250000005126846788229173175_);fill:#2B2961;}
	.st203{clip-path:url(#SVGID_00000113332545754547366840000016841946595584853683_);fill:#2B2961;}
	.st204{clip-path:url(#SVGID_00000123432319756405117560000005590925350378094522_);fill:#2B2961;}
	.st205{clip-path:url(#SVGID_00000057856107616263695640000008920484575013746308_);fill:#2B2961;}
	.st206{clip-path:url(#SVGID_00000161606951183689850770000010978165214660066951_);fill:#FFFFFF;}
	.st207{clip-path:url(#SVGID_00000161606951183689850770000010978165214660066951_);fill:#2B2961;}
	.st208{clip-path:url(#SVGID_00000006685082376318047510000009657641406124767636_);fill:#6796CF;}
	.st209{clip-path:url(#SVGID_00000006685082376318047510000009657641406124767636_);fill:#2B2961;}
	.st210{clip-path:url(#SVGID_00000124858552949540586400000000099725518589143459_);fill:#2B2961;}
	.st211{clip-path:url(#SVGID_00000124858552949540586400000000099725518589143459_);fill:#FFFFFF;}
	.st212{clip-path:url(#SVGID_00000106126226030402680590000015029958593373266569_);fill:#6796CF;}
	.st213{clip-path:url(#SVGID_00000106126226030402680590000015029958593373266569_);fill:#2B2961;}
	.st214{clip-path:url(#SVGID_00000113316347587578229160000004116720371611075200_);fill:#6796CF;}
	.st215{clip-path:url(#SVGID_00000113316347587578229160000004116720371611075200_);fill:#2B2961;}
	.st216{clip-path:url(#SVGID_00000118365613994106846720000009678977181359327369_);}
	.st217{clip-path:url(#SVGID_00000102511781665461247040000002591663309936048318_);}
	.st218{clip-path:url(#SVGID_00000072279554873766672330000003383584917132540085_);}
	.st219{clip-path:url(#SVGID_00000074431915624180068010000001842968546629118137_);}
	.st220{clip-path:url(#SVGID_00000026860096928820645810000005136628554641705603_);}
	.st221{clip-path:url(#SVGID_00000008843365857114085060000009027671894333983139_);}
	.st222{clip-path:url(#SVGID_00000106133358530038121110000013384752749298762377_);}
	.st223{clip-path:url(#SVGID_00000132055319124033715530000005683336448381772959_);}
	.st224{clip-path:url(#SVGID_00000060728270753337713060000015887510210725032336_);}
	.st225{clip-path:url(#SVGID_00000108282324899924630040000005203131818811962278_);}
	.st226{clip-path:url(#SVGID_00000141456153820006672150000013990365013466502046_);}
	.st227{clip-path:url(#SVGID_00000073002321722333852240000018020023045259005094_);}
	.st228{clip-path:url(#SVGID_00000081608895059429054560000017325766687411583367_);}
	.st229{clip-path:url(#SVGID_00000070810322661701741560000003413376706304976786_);}
	.st230{clip-path:url(#SVGID_00000173144205941024676170000004121684385579379094_);fill:#2B2961;}
	.st231{clip-path:url(#SVGID_00000173144205941024676170000004121684385579379094_);fill:#6796CF;}
	.st232{fill:#A2B9E1;}
	.st233{clip-path:url(#SVGID_00000158732820216434355140000016581851537824003456_);}
	.st234{clip-path:url(#SVGID_00000178925675417489546980000004638553691531874988_);}
</style>
<g>
	<g>
		<rect x="78.42" y="12.81" class="st232" width="20.94" height="29.22"/>
	</g>
	<g>
		<polygon class="st4" points="82.71,34.49 95.06,34.49 88.88,26.32 		"/>
	</g>
	<g>
		<rect x="0.55" class="st2" width="176.66" height="20.8"/>
	</g>
	<g>
		<rect x="0.55" y="41.83" class="st2" width="176.66" height="20.8"/>
	</g>
	<g>
		<path class="st8" d="M177.46,20.6H0.3c-0.17,0-0.3-0.13-0.3-0.3V0.5c0-0.17,0.13-0.3,0.3-0.3h177.17c0.17,0,0.3,0.13,0.3,0.3v19.8
			C177.76,20.47,177.63,20.6,177.46,20.6z M0.6,20h176.57V0.8H0.6V20z"/>
	</g>
	<g>
		<path class="st8" d="M177.46,62.43H0.3c-0.17,0-0.3-0.13-0.3-0.3v-19.8c0-0.17,0.13-0.3,0.3-0.3h177.17c0.17,0,0.3,0.13,0.3,0.3
			v19.8C177.76,62.3,177.63,62.43,177.46,62.43z M0.6,61.83h176.57v-19.2H0.6V61.83z"/>
	</g>
	<g>
		<path class="st4" d="M46.01,10.4h-3.66v3.78h-1.9V4.93h6.02v1.54h-4.11v2.39h3.66V10.4z"/>
		<path class="st4" d="M51.3,14.18c-0.08-0.17-0.15-0.37-0.18-0.62c-0.44,0.49-1.02,0.74-1.73,0.74c-0.67,0-1.23-0.19-1.67-0.58
			c-0.44-0.39-0.66-0.88-0.66-1.47c0-0.73,0.27-1.29,0.81-1.68c0.54-0.39,1.32-0.59,2.34-0.59h0.84V9.59c0-0.32-0.08-0.57-0.25-0.76
			c-0.16-0.19-0.42-0.29-0.77-0.29c-0.31,0-0.55,0.07-0.73,0.22c-0.17,0.15-0.26,0.35-0.26,0.61H47.2c0-0.4,0.12-0.77,0.37-1.11
			c0.25-0.34,0.59-0.6,1.04-0.8c0.45-0.19,0.95-0.29,1.51-0.29c0.85,0,1.52,0.21,2.02,0.64c0.5,0.43,0.75,1.02,0.75,1.79v2.98
			c0,0.65,0.09,1.14,0.27,1.48v0.11H51.3z M49.79,12.9c0.27,0,0.52-0.06,0.75-0.18c0.23-0.12,0.4-0.28,0.51-0.49v-1.18h-0.69
			c-0.92,0-1.41,0.32-1.47,0.95l-0.01,0.11c0,0.23,0.08,0.42,0.24,0.56C49.29,12.83,49.51,12.9,49.79,12.9z"/>
		<path class="st4" d="M57.41,12.82c0.34,0,0.61-0.09,0.83-0.28c0.21-0.19,0.32-0.43,0.33-0.74h1.72c0,0.47-0.13,0.89-0.38,1.28
			c-0.25,0.39-0.59,0.69-1.03,0.9c-0.43,0.21-0.91,0.32-1.44,0.32c-0.98,0-1.76-0.31-2.32-0.94c-0.57-0.62-0.85-1.49-0.85-2.59
			v-0.12c0-1.06,0.28-1.9,0.84-2.53c0.56-0.63,1.33-0.95,2.32-0.95c0.86,0,1.55,0.24,2.07,0.73c0.52,0.49,0.78,1.14,0.79,1.95h-1.72
			C58.56,9.51,58.45,9.22,58.23,9c-0.21-0.22-0.49-0.33-0.84-0.33c-0.43,0-0.75,0.16-0.97,0.47c-0.22,0.31-0.33,0.82-0.33,1.52v0.19
			c0,0.71,0.11,1.22,0.32,1.53C56.64,12.67,56.97,12.82,57.41,12.82z"/>
		<path class="st4" d="M63.38,8.06c0.49-0.58,1.1-0.88,1.83-0.88c1.49,0,2.25,0.87,2.27,2.6v4.4h-1.83V9.83
			c0-0.39-0.08-0.68-0.25-0.87c-0.17-0.19-0.45-0.28-0.84-0.28c-0.54,0-0.93,0.21-1.17,0.62v4.88h-1.83V4.43h1.83V8.06z"/>
		<path class="st4" d="M70.9,8.06c0.49-0.58,1.1-0.88,1.83-0.88c1.49,0,2.25,0.87,2.27,2.6v4.4h-1.83V9.83
			c0-0.39-0.08-0.68-0.25-0.87c-0.17-0.19-0.45-0.28-0.84-0.28c-0.54,0-0.93,0.21-1.17,0.62v4.88h-1.83V4.43h1.83V8.06z"/>
		<path class="st4" d="M76.36,10.68c0-0.68,0.13-1.29,0.39-1.82c0.26-0.53,0.64-0.95,1.13-1.24c0.49-0.29,1.07-0.44,1.72-0.44
			c0.93,0,1.68,0.28,2.27,0.85s0.91,1.34,0.98,2.31l0.01,0.47c0,1.05-0.29,1.9-0.88,2.54c-0.59,0.64-1.38,0.96-2.37,0.96
			s-1.78-0.32-2.37-0.95c-0.59-0.63-0.89-1.5-0.89-2.59V10.68z M78.2,10.81c0,0.65,0.12,1.15,0.37,1.5c0.25,0.35,0.6,0.52,1.05,0.52
			c0.44,0,0.79-0.17,1.04-0.51c0.25-0.34,0.38-0.89,0.38-1.64c0-0.64-0.12-1.14-0.38-1.49c-0.25-0.35-0.6-0.53-1.05-0.53
			c-0.45,0-0.79,0.17-1.04,0.52C78.32,9.53,78.2,10.08,78.2,10.81z"/>
		<path class="st4" d="M87.12,12.82c0.34,0,0.61-0.09,0.83-0.28c0.21-0.19,0.32-0.43,0.33-0.74h1.72c0,0.47-0.13,0.89-0.38,1.28
			c-0.25,0.39-0.59,0.69-1.03,0.9c-0.43,0.21-0.91,0.32-1.44,0.32c-0.98,0-1.76-0.31-2.32-0.94c-0.57-0.62-0.85-1.49-0.85-2.59
			v-0.12c0-1.06,0.28-1.9,0.84-2.53c0.56-0.63,1.33-0.95,2.32-0.95c0.86,0,1.55,0.24,2.07,0.73c0.52,0.49,0.78,1.14,0.79,1.95h-1.72
			C88.26,9.51,88.15,9.22,87.94,9c-0.21-0.22-0.49-0.33-0.84-0.33c-0.43,0-0.75,0.16-0.97,0.47c-0.22,0.31-0.33,0.82-0.33,1.52v0.19
			c0,0.71,0.11,1.22,0.32,1.53C86.35,12.67,86.67,12.82,87.12,12.82z"/>
		<path class="st4" d="M93.07,8.06c0.49-0.58,1.1-0.88,1.83-0.88c1.49,0,2.25,0.87,2.27,2.6v4.4h-1.83V9.83
			c0-0.39-0.08-0.68-0.25-0.87c-0.17-0.19-0.45-0.28-0.84-0.28c-0.54,0-0.93,0.21-1.17,0.62v4.88h-1.83V4.43h1.83V8.06z"/>
		<path class="st4" d="M102.54,12.28c0-0.22-0.11-0.4-0.33-0.53c-0.22-0.13-0.58-0.24-1.07-0.35c-1.63-0.34-2.45-1.04-2.45-2.08
			c0-0.61,0.25-1.12,0.76-1.53s1.17-0.61,1.98-0.61c0.87,0,1.57,0.21,2.09,0.62c0.52,0.41,0.78,0.94,0.78,1.6h-1.83
			c0-0.26-0.08-0.48-0.25-0.65c-0.17-0.17-0.43-0.26-0.79-0.26c-0.31,0-0.55,0.07-0.72,0.21c-0.17,0.14-0.25,0.32-0.25,0.53
			c0,0.2,0.1,0.37,0.29,0.49s0.52,0.23,0.97,0.32s0.84,0.19,1.16,0.31c0.97,0.36,1.45,0.97,1.45,1.85c0,0.63-0.27,1.13-0.81,1.52
			c-0.54,0.39-1.23,0.58-2.08,0.58c-0.58,0-1.09-0.1-1.53-0.31s-0.8-0.49-1.05-0.84s-0.38-0.74-0.38-1.16h1.74
			c0.02,0.33,0.14,0.58,0.36,0.75c0.22,0.17,0.52,0.26,0.9,0.26c0.35,0,0.62-0.07,0.8-0.2C102.45,12.67,102.54,12.49,102.54,12.28z"
			/>
		<path class="st4" d="M108.62,12.82c0.34,0,0.61-0.09,0.83-0.28c0.21-0.19,0.32-0.43,0.33-0.74h1.72c0,0.47-0.13,0.89-0.38,1.28
			c-0.25,0.39-0.59,0.69-1.03,0.9s-0.91,0.32-1.44,0.32c-0.98,0-1.76-0.31-2.32-0.94c-0.57-0.62-0.85-1.49-0.85-2.59v-0.12
			c0-1.06,0.28-1.9,0.84-2.53c0.56-0.63,1.33-0.95,2.32-0.95c0.86,0,1.55,0.24,2.07,0.73c0.52,0.49,0.78,1.14,0.79,1.95h-1.72
			c-0.01-0.36-0.12-0.65-0.33-0.87c-0.21-0.22-0.49-0.33-0.84-0.33c-0.43,0-0.75,0.16-0.97,0.47s-0.33,0.82-0.33,1.52v0.19
			c0,0.71,0.11,1.22,0.32,1.53C107.85,12.67,108.18,12.82,108.62,12.82z"/>
		<path class="st4" d="M114.58,8.06c0.49-0.58,1.1-0.88,1.83-0.88c1.49,0,2.25,0.87,2.27,2.6v4.4h-1.83V9.83
			c0-0.39-0.08-0.68-0.25-0.87c-0.17-0.19-0.45-0.28-0.84-0.28c-0.54,0-0.93,0.21-1.17,0.62v4.88h-1.83V4.43h1.83V8.06z"/>
		<path class="st4" d="M124.44,13.48c-0.45,0.55-1.08,0.83-1.88,0.83c-0.74,0-1.3-0.21-1.69-0.63c-0.39-0.42-0.58-1.04-0.59-1.86
			v-4.5h1.83v4.44c0,0.72,0.33,1.07,0.98,1.07c0.62,0,1.05-0.22,1.28-0.65V7.31h1.84v6.87h-1.73L124.44,13.48z"/>
		<path class="st4" d="M129.78,14.18h-1.84V4.43h1.84V14.18z"/>
		<path class="st4" d="M134.58,14.3c-1.01,0-1.83-0.31-2.46-0.93c-0.63-0.62-0.95-1.44-0.95-2.47v-0.18c0-0.69,0.13-1.31,0.4-1.85
			s0.64-0.96,1.13-1.26c0.49-0.29,1.05-0.44,1.67-0.44c0.94,0,1.68,0.3,2.22,0.89c0.54,0.59,0.81,1.43,0.81,2.52v0.75h-4.37
			c0.06,0.45,0.24,0.81,0.54,1.08c0.3,0.27,0.68,0.41,1.13,0.41c0.71,0,1.26-0.26,1.66-0.77l0.9,1.01
			c-0.27,0.39-0.65,0.69-1.12,0.91S135.15,14.3,134.58,14.3z M134.37,8.66c-0.36,0-0.66,0.12-0.89,0.37
			c-0.23,0.25-0.37,0.6-0.43,1.06h2.55V9.94c-0.01-0.41-0.12-0.72-0.33-0.95C135.06,8.77,134.76,8.66,134.37,8.66z"/>
	</g>
	<g>
		<path class="st4" d="M35.2,52.23h-3.66v3.78h-1.9v-9.24h6.02v1.54h-4.11v2.39h3.66V52.23z"/>
		<path class="st4" d="M40.49,56.01c-0.08-0.17-0.15-0.37-0.18-0.62c-0.44,0.49-1.02,0.74-1.73,0.74c-0.67,0-1.23-0.19-1.67-0.58
			c-0.44-0.39-0.66-0.88-0.66-1.47c0-0.73,0.27-1.29,0.81-1.68c0.54-0.39,1.32-0.59,2.34-0.59h0.84v-0.39
			c0-0.32-0.08-0.57-0.25-0.76c-0.16-0.19-0.42-0.29-0.77-0.29c-0.31,0-0.55,0.07-0.73,0.22c-0.17,0.15-0.26,0.35-0.26,0.61h-1.83
			c0-0.4,0.12-0.77,0.37-1.11c0.25-0.34,0.59-0.6,1.04-0.8c0.45-0.19,0.95-0.29,1.51-0.29c0.85,0,1.52,0.21,2.02,0.64
			c0.5,0.43,0.75,1.02,0.75,1.79v2.98c0,0.65,0.09,1.14,0.27,1.48v0.11H40.49z M38.97,54.73c0.27,0,0.52-0.06,0.75-0.18
			c0.23-0.12,0.4-0.28,0.51-0.49v-1.18h-0.69c-0.92,0-1.41,0.32-1.47,0.95l-0.01,0.11c0,0.23,0.08,0.42,0.24,0.56
			C38.47,54.66,38.69,54.73,38.97,54.73z"/>
		<path class="st4" d="M46.59,54.66c0.34,0,0.61-0.09,0.83-0.28c0.21-0.19,0.32-0.43,0.33-0.74h1.72c0,0.47-0.13,0.89-0.38,1.28
			c-0.25,0.39-0.59,0.69-1.03,0.9c-0.43,0.21-0.91,0.32-1.44,0.32c-0.98,0-1.76-0.31-2.32-0.94c-0.57-0.62-0.85-1.49-0.85-2.59
			v-0.12c0-1.06,0.28-1.9,0.84-2.53c0.56-0.63,1.33-0.95,2.32-0.95c0.86,0,1.55,0.24,2.07,0.73c0.52,0.49,0.78,1.14,0.79,1.95h-1.72
			c-0.01-0.36-0.12-0.65-0.33-0.87c-0.21-0.22-0.49-0.33-0.84-0.33c-0.43,0-0.75,0.16-0.97,0.47c-0.22,0.31-0.33,0.82-0.33,1.52
			v0.19c0,0.71,0.11,1.22,0.32,1.53C45.82,54.5,46.15,54.66,46.59,54.66z"/>
		<path class="st4" d="M52.55,49.89c0.49-0.58,1.1-0.88,1.83-0.88c1.49,0,2.25,0.87,2.27,2.6v4.4h-1.83v-4.35
			c0-0.39-0.08-0.68-0.25-0.87c-0.17-0.19-0.45-0.28-0.84-0.28c-0.54,0-0.93,0.21-1.17,0.62v4.88h-1.83v-9.75h1.83V49.89z"/>
		<path class="st4" d="M60.09,49.89c0.49-0.58,1.1-0.88,1.83-0.88c1.49,0,2.25,0.87,2.27,2.6v4.4h-1.83v-4.35
			c0-0.39-0.08-0.68-0.25-0.87c-0.17-0.19-0.45-0.28-0.84-0.28c-0.54,0-0.93,0.21-1.17,0.62v4.88h-1.83v-9.75h1.83V49.89z"/>
		<path class="st4" d="M65.53,52.51c0-0.68,0.13-1.29,0.39-1.82c0.26-0.53,0.64-0.95,1.13-1.24c0.49-0.29,1.07-0.44,1.72-0.44
			c0.93,0,1.68,0.28,2.27,0.85c0.59,0.57,0.91,1.34,0.98,2.31l0.01,0.47c0,1.05-0.29,1.9-0.88,2.54c-0.59,0.64-1.38,0.96-2.37,0.96
			s-1.78-0.32-2.37-0.95c-0.59-0.63-0.89-1.5-0.89-2.59V52.51z M67.37,52.64c0,0.65,0.12,1.15,0.37,1.5
			c0.25,0.35,0.6,0.52,1.05,0.52c0.44,0,0.79-0.17,1.04-0.51c0.25-0.34,0.37-0.89,0.37-1.64c0-0.64-0.12-1.14-0.37-1.49
			c-0.25-0.35-0.6-0.53-1.05-0.53c-0.45,0-0.8,0.17-1.04,0.52C67.49,51.37,67.37,51.91,67.37,52.64z"/>
		<path class="st4" d="M76.29,54.66c0.34,0,0.61-0.09,0.83-0.28c0.21-0.19,0.32-0.43,0.33-0.74h1.72c0,0.47-0.13,0.89-0.38,1.28
			c-0.25,0.39-0.59,0.69-1.03,0.9s-0.91,0.32-1.44,0.32c-0.98,0-1.76-0.31-2.32-0.94c-0.57-0.62-0.85-1.49-0.85-2.59v-0.12
			c0-1.06,0.28-1.9,0.84-2.53c0.56-0.63,1.33-0.95,2.32-0.95c0.86,0,1.55,0.24,2.07,0.73c0.52,0.49,0.78,1.14,0.79,1.95h-1.72
			c-0.01-0.36-0.12-0.65-0.33-0.87c-0.21-0.22-0.49-0.33-0.84-0.33c-0.43,0-0.75,0.16-0.97,0.47s-0.33,0.82-0.33,1.52v0.19
			c0,0.71,0.11,1.22,0.32,1.53C75.52,54.5,75.85,54.66,76.29,54.66z"/>
		<path class="st4" d="M82.26,49.89c0.49-0.58,1.1-0.88,1.83-0.88c1.49,0,2.25,0.87,2.27,2.6v4.4h-1.83v-4.35
			c0-0.39-0.08-0.68-0.25-0.87c-0.17-0.19-0.45-0.28-0.84-0.28c-0.54,0-0.93,0.21-1.17,0.62v4.88h-1.83v-9.75h1.83V49.89z"/>
		<path class="st4" d="M91.72,54.11c0-0.22-0.11-0.4-0.33-0.53c-0.22-0.13-0.58-0.24-1.07-0.35c-1.63-0.34-2.45-1.04-2.45-2.08
			c0-0.61,0.25-1.12,0.76-1.53s1.17-0.61,1.98-0.61c0.87,0,1.57,0.21,2.09,0.62c0.52,0.41,0.78,0.94,0.78,1.6h-1.83
			c0-0.26-0.08-0.48-0.25-0.65c-0.17-0.17-0.43-0.26-0.79-0.26c-0.31,0-0.55,0.07-0.72,0.21c-0.17,0.14-0.25,0.32-0.25,0.53
			c0,0.2,0.1,0.37,0.29,0.49s0.52,0.23,0.97,0.32s0.84,0.19,1.16,0.31c0.97,0.36,1.45,0.97,1.45,1.85c0,0.63-0.27,1.13-0.81,1.52
			c-0.54,0.39-1.23,0.58-2.08,0.58c-0.58,0-1.09-0.1-1.53-0.31s-0.8-0.49-1.05-0.84s-0.38-0.74-0.38-1.16h1.74
			c0.02,0.33,0.14,0.58,0.36,0.75c0.22,0.17,0.52,0.26,0.9,0.26c0.35,0,0.62-0.07,0.8-0.2C91.63,54.5,91.72,54.33,91.72,54.11z"/>
		<path class="st4" d="M97.8,54.66c0.34,0,0.61-0.09,0.83-0.28c0.21-0.19,0.32-0.43,0.33-0.74h1.72c0,0.47-0.13,0.89-0.38,1.28
			c-0.25,0.39-0.59,0.69-1.03,0.9s-0.91,0.32-1.44,0.32c-0.98,0-1.76-0.31-2.32-0.94c-0.57-0.62-0.85-1.49-0.85-2.59v-0.12
			c0-1.06,0.28-1.9,0.84-2.53c0.56-0.63,1.33-0.95,2.32-0.95c0.86,0,1.55,0.24,2.07,0.73c0.52,0.49,0.78,1.14,0.79,1.95h-1.72
			c-0.01-0.36-0.12-0.65-0.33-0.87c-0.21-0.22-0.49-0.33-0.84-0.33c-0.43,0-0.75,0.16-0.97,0.47s-0.33,0.82-0.33,1.52v0.19
			c0,0.71,0.11,1.22,0.32,1.53C97.04,54.5,97.36,54.66,97.8,54.66z"/>
		<path class="st4" d="M103.76,49.89c0.49-0.58,1.1-0.88,1.83-0.88c1.49,0,2.25,0.87,2.27,2.6v4.4h-1.83v-4.35
			c0-0.39-0.08-0.68-0.25-0.87c-0.17-0.19-0.45-0.28-0.84-0.28c-0.54,0-0.93,0.21-1.17,0.62v4.88h-1.83v-9.75h1.83V49.89z"/>
		<path class="st4" d="M113.62,55.31c-0.45,0.55-1.08,0.83-1.88,0.83c-0.74,0-1.3-0.21-1.69-0.63c-0.39-0.42-0.58-1.04-0.59-1.86
			v-4.5h1.83v4.44c0,0.72,0.33,1.07,0.98,1.07c0.62,0,1.05-0.22,1.28-0.65v-4.87h1.84v6.87h-1.73L113.62,55.31z"/>
		<path class="st4" d="M118.98,56.01h-1.84v-9.75h1.84V56.01z"/>
		<path class="st4" d="M124.59,50.86c-0.25-0.03-0.47-0.05-0.66-0.05c-0.69,0-1.15,0.24-1.36,0.71v4.49h-1.83v-6.87h1.73l0.05,0.82
			c0.37-0.63,0.88-0.95,1.53-0.95c0.2,0,0.39,0.03,0.57,0.08L124.59,50.86z"/>
		<path class="st4" d="M128.52,56.14c-1.01,0-1.83-0.31-2.46-0.93s-0.95-1.44-0.95-2.47v-0.18c0-0.69,0.13-1.31,0.4-1.85
			s0.64-0.96,1.13-1.26c0.49-0.29,1.05-0.44,1.67-0.44c0.94,0,1.68,0.3,2.22,0.89c0.54,0.59,0.81,1.43,0.81,2.52v0.75h-4.37
			c0.06,0.45,0.24,0.81,0.54,1.08c0.3,0.27,0.68,0.41,1.13,0.41c0.71,0,1.26-0.26,1.66-0.77l0.9,1.01
			c-0.28,0.39-0.65,0.69-1.12,0.91S129.09,56.14,128.52,56.14z M128.31,50.49c-0.36,0-0.66,0.12-0.89,0.37
			c-0.23,0.25-0.37,0.6-0.43,1.06h2.55v-0.15c-0.01-0.41-0.12-0.72-0.33-0.95C129,50.61,128.7,50.49,128.31,50.49z"/>
		<path class="st4" d="M132.63,47.36c0-0.28,0.09-0.5,0.28-0.68c0.18-0.18,0.44-0.27,0.75-0.27c0.31,0,0.56,0.09,0.75,0.27
			c0.19,0.18,0.28,0.4,0.28,0.68c0,0.28-0.09,0.51-0.28,0.69c-0.19,0.18-0.44,0.27-0.75,0.27c-0.31,0-0.56-0.09-0.75-0.27
			S132.63,47.64,132.63,47.36z M134.58,56.01h-1.84v-6.87h1.84V56.01z"/>
		<path class="st4" d="M136.86,56.01v-5.52h-1.02v-1.35h1.02v-0.58c0-0.77,0.22-1.37,0.66-1.79c0.44-0.43,1.06-0.64,1.86-0.64
			c0.25,0,0.57,0.04,0.93,0.13l-0.02,1.42c-0.15-0.04-0.34-0.06-0.56-0.06c-0.69,0-1.03,0.32-1.03,0.97v0.55h1.36v1.35h-1.36v5.52
			H136.86z"/>
		<path class="st4" d="M144.23,56.14c-1.01,0-1.83-0.31-2.46-0.93s-0.95-1.44-0.95-2.47v-0.18c0-0.69,0.13-1.31,0.4-1.85
			s0.64-0.96,1.13-1.26c0.49-0.29,1.05-0.44,1.67-0.44c0.94,0,1.68,0.3,2.22,0.89c0.54,0.59,0.81,1.43,0.81,2.52v0.75h-4.37
			c0.06,0.45,0.24,0.81,0.54,1.08c0.3,0.27,0.68,0.41,1.13,0.41c0.71,0,1.26-0.26,1.66-0.77l0.9,1.01
			c-0.28,0.39-0.65,0.69-1.12,0.91S144.8,56.14,144.23,56.14z M144.02,50.49c-0.36,0-0.66,0.12-0.89,0.37
			c-0.23,0.25-0.37,0.6-0.43,1.06h2.55v-0.15c-0.01-0.41-0.12-0.72-0.33-0.95C144.71,50.61,144.41,50.49,144.02,50.49z"/>
	</g>
	<g>
		<polygon class="st4" points="82.71,44.22 95.06,44.22 88.88,36.06 		"/>
	</g>
	<g>
		<polygon class="st4" points="82.71,24.75 95.06,24.75 88.88,16.58 		"/>
	</g>
</g>
</svg>
