<?xml version="1.0" encoding="utf-8"?>
<!-- Generator: Adobe Illustrator 26.0.2, SVG Export Plug-In . SVG Version: 6.00 Build 0)  -->
<svg version="1.1" id="Ebene_1" xmlns="http://www.w3.org/2000/svg" xmlns:xlink="http://www.w3.org/1999/xlink" x="0px" y="0px"
	 viewBox="0 0 177.76 62.4" style="enable-background:new 0 0 177.76 62.4;" xml:space="preserve">
<style type="text/css">
	.st0{clip-path:url(#SVGID_00000124874987650847992340000007976656262760179105_);fill:#6796CF;}
	.st1{clip-path:url(#SVGID_00000124874987650847992340000007976656262760179105_);fill:#2B2961;}
	.st2{fill:#6796CF;}
	.st3{clip-path:url(#SVGID_00000172401339523452997770000018229035679478619022_);fill:#2B2961;}
	.st4{fill:#FFFFFF;}
	.st5{clip-path:url(#SVGID_00000052809833169330388320000004909074436460913577_);fill:#2B2961;}
	.st6{clip-path:url(#SVGID_00000132789709129733195970000003862617938998390711_);fill:#2B2961;}
	.st7{clip-path:url(#SVGID_00000044171890325879081900000002122704533922373018_);fill:#2B2961;}
	.st8{fill:#2B2961;}
	.st9{clip-path:url(#SVGID_00000098928152987167172920000002570977377568425088_);fill:#6796CF;}
	.st10{clip-path:url(#SVGID_00000098928152987167172920000002570977377568425088_);fill:#2B2961;}
	.st11{clip-path:url(#SVGID_00000077323000577357475890000012964914080414315163_);fill:#2B2961;}
	.st12{clip-path:url(#SVGID_00000101786656380646813010000006794485441958865027_);fill:#2B2961;}
	.st13{clip-path:url(#SVGID_00000101786656380646813010000006794485441958865027_);fill:#6796CF;}
	.st14{clip-path:url(#SVGID_00000179609112002772549780000011894450699631777708_);fill:#2B2961;}
	.st15{clip-path:url(#SVGID_00000008127274480332057120000005719610281816858790_);fill:#2B2961;}
	.st16{clip-path:url(#SVGID_00000085232287769471046740000010565971694993538692_);fill:#2B2961;}
	.st17{clip-path:url(#SVGID_00000085232287769471046740000010565971694993538692_);fill:#6796CF;}
	.st18{clip-path:url(#SVGID_00000164482494718728669770000007100331813561278379_);fill:#2B2961;}
	.st19{clip-path:url(#SVGID_00000065785802695363818580000004937681154233408389_);fill:#2B2961;}
	.st20{clip-path:url(#SVGID_00000163062476459967307190000003895082410577248153_);fill:#2B2961;}
	.st21{clip-path:url(#SVGID_00000093862164427540357410000011702046659128403608_);fill:#2B2961;}
	.st22{clip-path:url(#SVGID_00000121244208666008740420000001942852763021819319_);fill:#6796CF;}
	.st23{clip-path:url(#SVGID_00000121244208666008740420000001942852763021819319_);fill:#2B2961;}
	.st24{clip-path:url(#SVGID_00000114790419726493509780000004311710008773170864_);fill:#2B2961;}
	.st25{clip-path:url(#SVGID_00000025433008878999529080000016006834418087457708_);fill:#2B2961;}
	.st26{clip-path:url(#SVGID_00000025433008878999529080000016006834418087457708_);fill:#6796CF;}
	.st27{clip-path:url(#SVGID_00000033331539769673357100000017599823834215500697_);fill:#2B2961;}
	.st28{clip-path:url(#SVGID_00000124865593043660368400000000328926659172239491_);fill:#2B2961;}
	.st29{clip-path:url(#SVGID_00000005984093038321822790000006845118612490681504_);fill:#2B2961;}
	.st30{clip-path:url(#SVGID_00000005984093038321822790000006845118612490681504_);fill:#6796CF;}
	.st31{clip-path:url(#SVGID_00000156570983301870237590000016790296940557012656_);fill:#2B2961;}
	.st32{clip-path:url(#SVGID_00000044873228929597377570000011198850986452714918_);fill:#6796CF;}
	.st33{clip-path:url(#SVGID_00000044873228929597377570000011198850986452714918_);fill:#2B2961;}
	.st34{clip-path:url(#SVGID_00000121981685033738380960000005774118937157625750_);fill:#2B2961;}
	.st35{clip-path:url(#SVGID_00000121981685033738380960000005774118937157625750_);fill:#6796CF;}
	.st36{clip-path:url(#SVGID_00000039093589315634036440000010247255465513586576_);fill:#2B2961;}
	.st37{clip-path:url(#SVGID_00000068667156860520164390000017440913403523547777_);fill:#FFFFFF;}
	.st38{clip-path:url(#SVGID_00000068667156860520164390000017440913403523547777_);fill:#2B2961;}
	.st39{clip-path:url(#SVGID_00000176018032557284178360000014339740378437767819_);fill:#FFFFFF;}
	.st40{clip-path:url(#SVGID_00000176018032557284178360000014339740378437767819_);fill:#2B2961;}
	.st41{clip-path:url(#SVGID_00000129197275782062431520000000199679824503137187_);fill:#6796CF;}
	.st42{clip-path:url(#SVGID_00000129197275782062431520000000199679824503137187_);fill:#2B2961;}
	.st43{clip-path:url(#SVGID_00000145759645695682970300000005626300014636688305_);fill:#2B2961;}
	.st44{clip-path:url(#SVGID_00000085237115163288960480000005326120528448219560_);fill:#6796CF;}
	.st45{clip-path:url(#SVGID_00000085237115163288960480000005326120528448219560_);fill:#2B2961;}
	.st46{clip-path:url(#SVGID_00000085247296505320478080000001677251283687623079_);fill:#2B2961;}
	.st47{clip-path:url(#SVGID_00000012473518643318870700000014106747133929299124_);fill:#2B2961;}
	.st48{clip-path:url(#SVGID_00000012473518643318870700000014106747133929299124_);fill:#6796CF;}
	.st49{clip-path:url(#SVGID_00000050622561643459816690000000494849919188062080_);fill:#2B2961;}
	.st50{clip-path:url(#SVGID_00000155854988994228643190000011600757681390264722_);fill:#2B2961;}
	.st51{clip-path:url(#SVGID_00000170976472433107570720000007943654676126444717_);fill:#2B2961;}
	.st52{clip-path:url(#SVGID_00000170976472433107570720000007943654676126444717_);fill:#6796CF;}
	.st53{clip-path:url(#SVGID_00000052788219711847331440000011129337513464530576_);fill:#2B2961;}
	.st54{clip-path:url(#SVGID_00000175287989903168319790000007022275552817457332_);fill:#2B2961;}
	.st55{clip-path:url(#SVGID_00000163771074156586411270000000515178326132868490_);fill:#2B2961;}
	.st56{clip-path:url(#SVGID_00000018213998043214897480000017352653066127502235_);fill:#2B2961;}
	.st57{clip-path:url(#SVGID_00000032645186470099841570000003629200901050857645_);fill:#6796CF;}
	.st58{clip-path:url(#SVGID_00000038393243360205174990000015280591059556858554_);fill:#2B2961;}
	.st59{clip-path:url(#SVGID_00000084501938166610602330000007821317799494248638_);fill:#2B2961;}
	.st60{clip-path:url(#SVGID_00000029041101346603811240000014822636318086023353_);fill:#6796CF;}
	.st61{clip-path:url(#SVGID_00000014596896080173332980000015815820671013558423_);fill:#2B2961;}
	.st62{clip-path:url(#SVGID_00000067220205928725518230000003445873884237336500_);fill:#2B2961;}
	.st63{clip-path:url(#SVGID_00000067220205928725518230000003445873884237336500_);fill:#6796CF;}
	.st64{clip-path:url(#SVGID_00000036964894648421436260000013017763415344963227_);fill:#2B2961;}
	.st65{clip-path:url(#SVGID_00000103970852040903876680000007528571651728233377_);fill:#6796CF;}
	.st66{clip-path:url(#SVGID_00000103970852040903876680000007528571651728233377_);fill:#2B2961;}
	.st67{clip-path:url(#SVGID_00000057826669706318237950000009833887651553105050_);fill:#2B2961;}
	.st68{clip-path:url(#SVGID_00000178180788026696950680000012733854060647218871_);fill:#2B2961;}
	.st69{clip-path:url(#SVGID_00000178180788026696950680000012733854060647218871_);fill:#6796CF;}
	.st70{clip-path:url(#SVGID_00000074412650190271023850000001833070348013949572_);fill:#2B2961;}
	.st71{clip-path:url(#SVGID_00000001626837395272258610000015986167809353569408_);fill:#2B2961;}
	.st72{clip-path:url(#SVGID_00000121281333050496061390000006114041018823192495_);fill:#2B2961;}
	.st73{clip-path:url(#SVGID_00000121281333050496061390000006114041018823192495_);fill:#6796CF;}
	.st74{clip-path:url(#SVGID_00000086686271065813860500000001086886438723281853_);fill:#2B2961;}
	.st75{clip-path:url(#SVGID_00000057144234287296503260000011462376504120520632_);fill:#2B2961;}
	.st76{clip-path:url(#SVGID_00000029021494583416478880000002844120655640758461_);fill:#2B2961;}
	.st77{clip-path:url(#SVGID_00000026880709767008741890000005398227060036053397_);fill:#2B2961;}
	.st78{clip-path:url(#SVGID_00000036243760347732851860000015729815460265894286_);fill:#6796CF;}
	.st79{clip-path:url(#SVGID_00000036243760347732851860000015729815460265894286_);fill:#2B2961;}
	.st80{clip-path:url(#SVGID_00000041291377628401993400000008425211719283333289_);fill:#FFFFFF;}
	.st81{clip-path:url(#SVGID_00000041291377628401993400000008425211719283333289_);fill:#2B2961;}
	.st82{clip-path:url(#SVGID_00000089544680085531686600000001729545863905505196_);fill:#2B2961;}
	.st83{clip-path:url(#SVGID_00000171713164325026625190000016234601278888298683_);fill:#2B2961;}
	.st84{clip-path:url(#SVGID_00000171713164325026625190000016234601278888298683_);fill:#6796CF;}
	.st85{clip-path:url(#SVGID_00000129911384079440823000000011561995944919978685_);fill:#2B2961;}
	.st86{clip-path:url(#SVGID_00000071518604093555450970000008062219479568755114_);fill:#2B2961;}
	.st87{clip-path:url(#SVGID_00000071518604093555450970000008062219479568755114_);fill:#FFFFFF;}
	.st88{clip-path:url(#SVGID_00000155138975099742793750000012053309849554853822_);fill:#6796CF;}
	.st89{clip-path:url(#SVGID_00000155138975099742793750000012053309849554853822_);fill:#2B2961;}
	.st90{clip-path:url(#SVGID_00000066507428147906584500000005327335833867105711_);fill:#2B2961;}
	.st91{clip-path:url(#SVGID_00000128452978403793459340000011908601423293298617_);fill:#2B2961;}
	.st92{clip-path:url(#SVGID_00000128452978403793459340000011908601423293298617_);fill:#6796CF;}
	.st93{clip-path:url(#SVGID_00000074437112199224625200000015074547447852569730_);fill:#2B2961;}
	.st94{clip-path:url(#SVGID_00000074437112199224625200000015074547447852569730_);fill:#FFFFFF;}
	.st95{clip-path:url(#SVGID_00000003083876649076698620000010782154116653017728_);fill:#6796CF;}
	.st96{clip-path:url(#SVGID_00000003083876649076698620000010782154116653017728_);fill:#2B2961;}
	.st97{clip-path:url(#SVGID_00000003083876649076698620000010782154116653017728_);fill:#FFFFFF;}
	.st98{clip-path:url(#SVGID_00000008117259345416925530000014567496723909301161_);fill:#2B2961;}
	.st99{clip-path:url(#SVGID_00000008117259345416925530000014567496723909301161_);fill:#6796CF;}
	.st100{clip-path:url(#SVGID_00000042704115517997378670000004187027790393066373_);fill:#2B2961;}
	.st101{clip-path:url(#SVGID_00000142876613193655016520000013672653569938539689_);fill:#2B2961;}
	.st102{clip-path:url(#SVGID_00000149363813709165105670000001213761463679335591_);fill:#2B2961;}
	.st103{clip-path:url(#SVGID_00000031196659342811231620000009252623587449754269_);fill:#2B2961;}
	.st104{clip-path:url(#SVGID_00000110462942626905750990000017399493630705260198_);fill:#2B2961;}
	.st105{clip-path:url(#SVGID_00000007408754119499927100000004172754464754741133_);fill:#FFFFFF;}
	.st106{clip-path:url(#SVGID_00000007408754119499927100000004172754464754741133_);fill:#2B2961;}
	.st107{clip-path:url(#SVGID_00000007408754119499927100000004172754464754741133_);fill:#6796CF;}
	.st108{clip-path:url(#SVGID_00000069368803154468871690000015800917611824138659_);fill:#FFFFFF;}
	.st109{clip-path:url(#SVGID_00000022518154113753817960000007003773447837866374_);fill:#2B2961;}
	.st110{clip-path:url(#SVGID_00000022518154113753817960000007003773447837866374_);fill:#FFFFFF;}
	.st111{clip-path:url(#SVGID_00000142170841141537464830000001715983547336033693_);fill:#2B2961;}
	.st112{clip-path:url(#SVGID_00000078747844091843916140000011144198311508084099_);fill:#2B2961;}
	.st113{clip-path:url(#SVGID_00000078747844091843916140000011144198311508084099_);fill:#6796CF;}
	.st114{clip-path:url(#SVGID_00000129182326426938951660000015676438412123479967_);fill:#2B2961;}
	.st115{clip-path:url(#SVGID_00000097489760507823052070000007574502192260714145_);fill:#2B2961;}
	.st116{clip-path:url(#SVGID_00000097489760507823052070000007574502192260714145_);fill:#FFFFFF;}
	.st117{clip-path:url(#SVGID_00000109721390293917605950000001225562313985319088_);fill:#6796CF;}
	.st118{clip-path:url(#SVGID_00000161623362047669463480000007319580628380694697_);fill:#2B2961;}
	.st119{clip-path:url(#SVGID_00000181765594878563802770000006312534092813699498_);fill:#2B2961;}
	.st120{clip-path:url(#SVGID_00000033349756315225316980000017003274502469383825_);fill:#FFFFFF;}
	.st121{clip-path:url(#SVGID_00000033349756315225316980000017003274502469383825_);fill:#2B2961;}
	.st122{clip-path:url(#SVGID_00000053520915296957050240000016911620914281156000_);fill:#FFFFFF;}
	.st123{clip-path:url(#SVGID_00000053520915296957050240000016911620914281156000_);fill:#2B2961;}
	.st124{clip-path:url(#SVGID_00000050638943039582654550000001531846425269550991_);fill:#6796CF;}
	.st125{clip-path:url(#SVGID_00000050638943039582654550000001531846425269550991_);fill:#2B2961;}
	.st126{clip-path:url(#SVGID_00000146492494574707678250000012372992043962382767_);fill:#2B2961;}
	.st127{clip-path:url(#SVGID_00000146492494574707678250000012372992043962382767_);fill:#6796CF;}
	.st128{clip-path:url(#SVGID_00000124148581486097286390000005078953033988927656_);fill:#6796CF;}
	.st129{clip-path:url(#SVGID_00000012432705074886441950000015670334409482511508_);fill:#2B2961;}
	.st130{clip-path:url(#SVGID_00000162322522451173220550000008446190624750885293_);fill:#2B2961;}
	.st131{clip-path:url(#SVGID_00000036949850434472721360000000043690134329872314_);fill:#2B2961;}
	.st132{clip-path:url(#SVGID_00000129889111631544892510000007377160734993913481_);fill:#2B2961;}
	.st133{clip-path:url(#SVGID_00000104667371546596606370000010884570591220133534_);fill:#2B2961;}
	.st134{clip-path:url(#SVGID_00000104667371546596606370000010884570591220133534_);fill:#6796CF;}
	.st135{clip-path:url(#SVGID_00000137111372619453065210000016078310646475553947_);fill:#6796CF;}
	.st136{clip-path:url(#SVGID_00000106139148767445916640000014475574752153032382_);fill:#2B2961;}
	.st137{clip-path:url(#SVGID_00000160148463022558641860000012474444947340486032_);fill:#2B2961;}
	.st138{clip-path:url(#SVGID_00000025416561539352862700000012316230156695500459_);fill:#2B2961;}
	.st139{clip-path:url(#SVGID_00000165196026354042303470000000750291609565551775_);fill:#2B2961;}
	.st140{clip-path:url(#SVGID_00000171720381755818401110000017164499795221022854_);fill:#6796CF;}
	.st141{clip-path:url(#SVGID_00000171720381755818401110000017164499795221022854_);fill:#2B2961;}
	.st142{clip-path:url(#SVGID_00000136410779142272997420000013753251606906857149_);fill:#2B2961;}
	.st143{clip-path:url(#SVGID_00000148660486740119042170000008267608690017064632_);fill:#2B2961;}
	.st144{clip-path:url(#SVGID_00000122721143763827963920000009175381203938043266_);fill:#2B2961;}
	.st145{clip-path:url(#SVGID_00000122721143763827963920000009175381203938043266_);fill:#6796CF;}
	.st146{clip-path:url(#SVGID_00000014602439630908257510000008758080849261451433_);}
	.st147{clip-path:url(#SVGID_00000014602439630908257510000008758080849261451433_);fill:#FFFFFF;}
	.st148{clip-path:url(#SVGID_00000014602439630908257510000008758080849261451433_);fill:#2B2961;}
	.st149{clip-path:url(#SVGID_00000178194130704811129000000007900631003421853570_);fill:#2B2961;}
	.st150{clip-path:url(#SVGID_00000100345118761535132030000011745578576882978480_);fill:#2B2961;}
	.st151{clip-path:url(#SVGID_00000100345118761535132030000011745578576882978480_);fill:#FFFFFF;}
	.st152{clip-path:url(#SVGID_00000100345118761535132030000011745578576882978480_);fill:#6796CF;}
	.st153{clip-path:url(#SVGID_00000089542513596026103450000005301457833498645671_);fill:#2B2961;}
	.st154{clip-path:url(#SVGID_00000134929894311122495690000008495413905909023872_);fill:#2B2961;}
	.st155{clip-path:url(#SVGID_00000181059660643113530850000017300516274418497668_);fill:#6796CF;}
	.st156{clip-path:url(#SVGID_00000181059660643113530850000017300516274418497668_);}
	.st157{clip-path:url(#SVGID_00000127763799524617101920000011140808716915012766_);fill:#2B2961;}
	.st158{clip-path:url(#SVGID_00000181059660643113530850000017300516274418497668_);fill:#FFFFFF;}
	.st159{clip-path:url(#SVGID_00000181059660643113530850000017300516274418497668_);fill:#2B2961;}
	.st160{opacity:0.52;clip-path:url(#SVGID_00000049939898748837068880000008676326640326733977_);}
	.st161{clip-path:url(#SVGID_00000152228895662012312580000000352553724256859270_);fill:#6796CF;}
	.st162{clip-path:url(#SVGID_00000066515887795108730710000016197754274933155738_);fill:#2B2961;}
	.st163{clip-path:url(#SVGID_00000081623760706718181640000016603822557424766898_);fill:#2B2961;}
	.st164{clip-path:url(#SVGID_00000103228425484130561470000000791569060897618854_);fill:#6796CF;}
	.st165{clip-path:url(#SVGID_00000103228425484130561470000000791569060897618854_);fill:#2B2961;}
	.st166{clip-path:url(#SVGID_00000080178496855277839350000013524074941542788266_);fill:#2B2961;}
	.st167{clip-path:url(#SVGID_00000164475846214813575300000012529739353814589365_);fill:#2B2961;}
	.st168{clip-path:url(#SVGID_00000040551917573559131990000015187840103689817774_);fill:#2B2961;}
	.st169{clip-path:url(#SVGID_00000144298834553886838260000008028652830882475677_);fill:#FFFFFF;}
	.st170{clip-path:url(#SVGID_00000144298834553886838260000008028652830882475677_);fill:#2B2961;}
	.st171{clip-path:url(#SVGID_00000144298834553886838260000008028652830882475677_);fill:#6796CF;}
	.st172{clip-path:url(#SVGID_00000094607610707945330650000011667470939563251114_);fill:#6796CF;}
	.st173{clip-path:url(#SVGID_00000104681661063094574970000008865757197805878184_);fill:#2B2961;}
	.st174{clip-path:url(#SVGID_00000026159413696013721300000017140227158867283096_);fill:#2B2961;}
	.st175{clip-path:url(#SVGID_00000026159413696013721300000017140227158867283096_);fill:#FFFFFF;}
	.st176{clip-path:url(#SVGID_00000113342513885664082070000014720299519921683389_);fill:#6796CF;}
	.st177{clip-path:url(#SVGID_00000113342513885664082070000014720299519921683389_);fill:#2B2961;}
	.st178{clip-path:url(#SVGID_00000104701145203708312520000003543152745320856760_);fill:#6796CF;}
	.st179{clip-path:url(#SVGID_00000104701145203708312520000003543152745320856760_);fill:#2B2961;}
	.st180{clip-path:url(#SVGID_00000014600409799116131150000005987397203686740895_);fill:#2B2961;}
	.st181{clip-path:url(#SVGID_00000031196883542433005870000014837555266057826945_);fill:#2B2961;}
	.st182{clip-path:url(#SVGID_00000049202819218028060780000015983415658832120750_);fill:#FFFFFF;}
	.st183{clip-path:url(#SVGID_00000053547773761549629330000012563900334243784378_);fill:#2B2961;}
	.st184{clip-path:url(#SVGID_00000063625832581037177060000018438079271450378679_);fill:#2B2961;}
	.st185{clip-path:url(#SVGID_00000063625832581037177060000018438079271450378679_);fill:#6796CF;}
	.st186{clip-path:url(#SVGID_00000126317796199998770950000012288374763632711587_);fill:#2B2961;}
	.st187{clip-path:url(#SVGID_00000045608163494995792150000001426444990048503178_);fill:#2B2961;}
	.st188{clip-path:url(#SVGID_00000171684524748544483370000016368620078135832225_);fill:#6796CF;}
	.st189{clip-path:url(#SVGID_00000132070968599435493390000008780506255933627281_);fill:#2B2961;}
	.st190{clip-path:url(#SVGID_00000008113803731644811110000000989117411267748500_);fill:#6796CF;}
	.st191{clip-path:url(#SVGID_00000054266006389377618210000013936322371052014244_);fill:#2B2961;}
	.st192{clip-path:url(#SVGID_00000090983968295012546240000007293798389407753917_);fill:#6796CF;}
	.st193{clip-path:url(#SVGID_00000100378603269414864480000008956044675065749387_);fill:#2B2961;}
	.st194{clip-path:url(#SVGID_00000151534635275195436990000016881616600590742451_);}
	.st195{clip-path:url(#SVGID_00000151534635275195436990000016881616600590742451_);fill:#2B2961;}
	.st196{clip-path:url(#SVGID_00000151534635275195436990000016881616600590742451_);fill:#FFFFFF;}
	.st197{clip-path:url(#SVGID_00000083771954265368819170000005083257913458641331_);fill:#2B2961;}
	.st198{clip-path:url(#SVGID_00000138543096318159650320000017067157238666965155_);fill:#2B2961;}
	.st199{clip-path:url(#SVGID_00000065756074493845936140000002276970931289826485_);fill:#2B2961;}
	.st200{clip-path:url(#SVGID_00000083074446577997232560000017291362391343627167_);fill:#2B2961;}
	.st201{clip-path:url(#SVGID_00000081605716258448638490000018358572811968366727_);fill:#2B2961;}
	.st202{clip-path:url(#SVGID_00000183230227064526048350000017578103050705250478_);fill:#2B2961;}
	.st203{clip-path:url(#SVGID_00000068670062025002578620000014692244572138051762_);fill:#2B2961;}
	.st204{clip-path:url(#SVGID_00000146496478118455714110000004800265823370187925_);fill:#2B2961;}
	.st205{clip-path:url(#SVGID_00000053525198873706626370000004291263258892936124_);fill:#2B2961;}
	.st206{clip-path:url(#SVGID_00000155828249154854371060000004877642044769604793_);fill:#FFFFFF;}
	.st207{clip-path:url(#SVGID_00000155828249154854371060000004877642044769604793_);fill:#2B2961;}
	.st208{clip-path:url(#SVGID_00000070807606833250338600000002032668548053706424_);fill:#6796CF;}
	.st209{clip-path:url(#SVGID_00000070807606833250338600000002032668548053706424_);fill:#2B2961;}
	.st210{clip-path:url(#SVGID_00000090281547127715503760000015802155253886182282_);fill:#2B2961;}
	.st211{clip-path:url(#SVGID_00000090281547127715503760000015802155253886182282_);fill:#FFFFFF;}
	.st212{clip-path:url(#SVGID_00000173151636204657090400000015673192704132816793_);fill:#6796CF;}
	.st213{clip-path:url(#SVGID_00000173151636204657090400000015673192704132816793_);fill:#2B2961;}
	.st214{clip-path:url(#SVGID_00000100346977462156238710000014032864460626120380_);fill:#6796CF;}
	.st215{clip-path:url(#SVGID_00000100346977462156238710000014032864460626120380_);fill:#2B2961;}
	.st216{clip-path:url(#SVGID_00000061449651132142321030000010647365023495891889_);}
	.st217{clip-path:url(#SVGID_00000121253754959767278030000011701020055993771423_);}
	.st218{clip-path:url(#SVGID_00000036241296551838761630000012065362022320834462_);}
	.st219{clip-path:url(#SVGID_00000044899845135983257590000010770657951439248050_);}
	.st220{clip-path:url(#SVGID_00000106148876031216400500000015620678522970254984_);}
	.st221{clip-path:url(#SVGID_00000008835101203930185930000012374775680388543923_);}
	.st222{clip-path:url(#SVGID_00000091705942141603443540000005718681632981821868_);}
	.st223{clip-path:url(#SVGID_00000046323666348753621470000010009000947011602867_);}
	.st224{clip-path:url(#SVGID_00000012441865826253406270000010387048889218576022_);}
	.st225{clip-path:url(#SVGID_00000093868921644329209720000009915376035326403737_);}
	.st226{clip-path:url(#SVGID_00000034795775741315733230000011191418658845821093_);}
	.st227{clip-path:url(#SVGID_00000097498133723090894330000016912673881297314993_);}
	.st228{clip-path:url(#SVGID_00000018942919262495812720000004506728116457241486_);}
	.st229{clip-path:url(#SVGID_00000149370663238116020260000004556024750837883069_);}
	.st230{clip-path:url(#SVGID_00000078041865484880437660000017395014422522239897_);fill:#2B2961;}
	.st231{clip-path:url(#SVGID_00000078041865484880437660000017395014422522239897_);fill:#6796CF;}
	.st232{fill:#A2B9E1;}
	.st233{clip-path:url(#SVGID_00000027574071069973672900000010092375068217145475_);}
	.st234{clip-path:url(#SVGID_00000001661790654923829690000001377514703216348094_);}
</style>
<g>
	<g>
		<rect x="78.41" y="13.98" class="st232" width="20.94" height="29.22"/>
	</g>
	<g>
		<rect x="0.3" y="0.3" class="st2" width="177.16" height="19.8"/>
	</g>
	<g>
		<path class="st8" d="M177.46,20.4H0.3c-0.17,0-0.3-0.13-0.3-0.3V0.3C0,0.13,0.13,0,0.3,0h177.17c0.17,0,0.3,0.13,0.3,0.3v19.8
			C177.76,20.27,177.63,20.4,177.46,20.4z M0.6,19.8h176.57V0.6H0.6V19.8z"/>
	</g>
	<g>
		<rect x="0.3" y="42.3" class="st2" width="177.16" height="19.8"/>
	</g>
	<g>
		<path class="st8" d="M177.46,62.4H0.3c-0.17,0-0.3-0.13-0.3-0.3V42.3C0,42.13,0.13,42,0.3,42h177.17c0.17,0,0.3,0.13,0.3,0.3v19.8
			C177.76,62.27,177.63,62.4,177.46,62.4z M0.6,61.8h176.57V42.6H0.6V61.8z"/>
	</g>
	<g>
		<path class="st4" d="M25.31,13.98h-1.9v-3.96H19.7v3.96h-1.9V4.73h1.9v3.75h3.71V4.73h1.9V13.98z"/>
		<path class="st4" d="M26.83,10.48c0-0.68,0.13-1.29,0.39-1.82c0.26-0.53,0.64-0.95,1.13-1.24c0.49-0.29,1.07-0.44,1.72-0.44
			c0.93,0,1.68,0.28,2.27,0.85s0.91,1.34,0.98,2.31l0.01,0.47c0,1.05-0.29,1.9-0.88,2.54c-0.59,0.64-1.38,0.96-2.37,0.96
			s-1.78-0.32-2.37-0.95c-0.59-0.63-0.89-1.5-0.89-2.59V10.48z M28.67,10.61c0,0.65,0.12,1.15,0.37,1.5
			c0.25,0.35,0.6,0.52,1.05,0.52c0.44,0,0.79-0.17,1.04-0.51c0.25-0.34,0.38-0.89,0.38-1.64c0-0.64-0.12-1.14-0.38-1.49
			c-0.25-0.35-0.6-0.53-1.05-0.53c-0.45,0-0.79,0.17-1.04,0.52C28.79,9.33,28.67,9.88,28.67,10.61z"/>
		<path class="st4" d="M37.57,12.62c0.34,0,0.61-0.09,0.83-0.28c0.21-0.19,0.32-0.43,0.33-0.74h1.72c0,0.47-0.13,0.89-0.38,1.28
			c-0.25,0.39-0.59,0.69-1.03,0.9s-0.91,0.32-1.44,0.32c-0.98,0-1.76-0.31-2.32-0.94c-0.57-0.62-0.85-1.49-0.85-2.59v-0.12
			c0-1.06,0.28-1.9,0.84-2.53c0.56-0.63,1.33-0.95,2.32-0.95c0.86,0,1.55,0.24,2.07,0.73c0.52,0.49,0.78,1.14,0.79,1.95h-1.72
			c-0.01-0.36-0.12-0.65-0.33-0.87c-0.21-0.22-0.49-0.33-0.84-0.33c-0.43,0-0.75,0.16-0.97,0.47s-0.33,0.82-0.33,1.52v0.19
			c0,0.71,0.11,1.22,0.32,1.53C36.8,12.47,37.13,12.62,37.57,12.62z"/>
		<path class="st4" d="M43.54,7.86c0.49-0.58,1.1-0.88,1.83-0.88c1.49,0,2.25,0.87,2.27,2.6v4.4h-1.83V9.63
			c0-0.39-0.08-0.68-0.25-0.87c-0.17-0.19-0.45-0.28-0.84-0.28c-0.54,0-0.93,0.21-1.17,0.62v4.88h-1.83V4.23h1.83V7.86z"/>
		<path class="st4" d="M53,12.08c0-0.22-0.11-0.4-0.33-0.53c-0.22-0.13-0.58-0.24-1.07-0.35c-1.63-0.34-2.45-1.04-2.45-2.08
			c0-0.61,0.25-1.12,0.76-1.53s1.17-0.61,1.98-0.61c0.87,0,1.57,0.21,2.09,0.62c0.52,0.41,0.78,0.94,0.78,1.6h-1.83
			c0-0.26-0.08-0.48-0.25-0.65c-0.17-0.17-0.43-0.26-0.79-0.26c-0.31,0-0.55,0.07-0.72,0.21c-0.17,0.14-0.25,0.32-0.25,0.53
			c0,0.2,0.1,0.37,0.29,0.49s0.52,0.23,0.97,0.32s0.84,0.19,1.16,0.31c0.97,0.36,1.45,0.97,1.45,1.85c0,0.63-0.27,1.13-0.81,1.52
			c-0.54,0.39-1.23,0.58-2.08,0.58c-0.58,0-1.09-0.1-1.53-0.31s-0.8-0.49-1.05-0.84s-0.38-0.74-0.38-1.16h1.74
			c0.02,0.33,0.14,0.58,0.36,0.75c0.22,0.17,0.52,0.26,0.9,0.26c0.35,0,0.62-0.07,0.8-0.2C52.91,12.47,53,12.29,53,12.08z"/>
		<path class="st4" d="M59.08,12.62c0.34,0,0.61-0.09,0.83-0.28c0.21-0.19,0.32-0.43,0.33-0.74h1.72c0,0.47-0.13,0.89-0.38,1.28
			c-0.25,0.39-0.59,0.69-1.03,0.9s-0.91,0.32-1.44,0.32c-0.98,0-1.76-0.31-2.32-0.94c-0.57-0.62-0.85-1.49-0.85-2.59v-0.12
			c0-1.06,0.28-1.9,0.84-2.53c0.56-0.63,1.33-0.95,2.32-0.95c0.86,0,1.55,0.24,2.07,0.73c0.52,0.49,0.78,1.14,0.79,1.95h-1.72
			c-0.01-0.36-0.12-0.65-0.33-0.87c-0.21-0.22-0.49-0.33-0.84-0.33c-0.43,0-0.75,0.16-0.97,0.47s-0.33,0.82-0.33,1.52v0.19
			c0,0.71,0.11,1.22,0.32,1.53C58.31,12.47,58.64,12.62,59.08,12.62z"/>
		<path class="st4" d="M65.05,7.86c0.49-0.58,1.1-0.88,1.83-0.88c1.49,0,2.25,0.87,2.27,2.6v4.4h-1.83V9.63
			c0-0.39-0.08-0.68-0.25-0.87c-0.17-0.19-0.45-0.28-0.84-0.28c-0.54,0-0.93,0.21-1.17,0.62v4.88h-1.83V4.23h1.83V7.86z"/>
		<path class="st4" d="M74.91,13.28c-0.45,0.55-1.08,0.83-1.88,0.83c-0.74,0-1.3-0.21-1.69-0.63c-0.39-0.42-0.58-1.04-0.59-1.86
			v-4.5h1.83v4.44c0,0.72,0.33,1.07,0.98,1.07c0.62,0,1.05-0.22,1.28-0.65V7.11h1.84v6.87h-1.73L74.91,13.28z"/>
		<path class="st4" d="M80.25,13.98h-1.84V4.23h1.84V13.98z"/>
		<path class="st4" d="M85.88,8.83c-0.25-0.03-0.47-0.05-0.66-0.05c-0.69,0-1.15,0.24-1.36,0.71v4.49h-1.83V7.11h1.73l0.05,0.82
			c0.37-0.63,0.88-0.95,1.53-0.95c0.2,0,0.39,0.03,0.57,0.08L85.88,8.83z"/>
		<path class="st4" d="M89.81,14.1c-1.01,0-1.83-0.31-2.46-0.93c-0.63-0.62-0.95-1.44-0.95-2.47v-0.18c0-0.69,0.13-1.31,0.4-1.85
			s0.64-0.96,1.13-1.26c0.49-0.29,1.05-0.44,1.67-0.44c0.94,0,1.68,0.3,2.22,0.89c0.54,0.59,0.81,1.43,0.81,2.52v0.75h-4.37
			c0.06,0.45,0.24,0.81,0.54,1.08c0.3,0.27,0.68,0.41,1.13,0.41c0.71,0,1.26-0.26,1.66-0.77l0.9,1.01
			c-0.27,0.39-0.65,0.69-1.12,0.91S90.38,14.1,89.81,14.1z M89.6,8.46c-0.36,0-0.66,0.12-0.89,0.37c-0.23,0.25-0.37,0.6-0.43,1.06
			h2.55V9.74c-0.01-0.41-0.12-0.72-0.33-0.95C90.29,8.57,89.99,8.46,89.6,8.46z"/>
		<path class="st4" d="M93.92,5.33c0-0.28,0.09-0.5,0.28-0.68c0.18-0.18,0.44-0.27,0.75-0.27c0.31,0,0.56,0.09,0.75,0.27
			c0.19,0.18,0.28,0.4,0.28,0.68c0,0.28-0.09,0.51-0.28,0.69c-0.19,0.18-0.44,0.27-0.75,0.27c-0.31,0-0.56-0.09-0.75-0.27
			S93.92,5.61,93.92,5.33z M95.87,13.98h-1.84V7.11h1.84V13.98z"/>
		<path class="st4" d="M98.14,13.98V8.45h-1.02V7.11h1.02V6.52c0-0.77,0.22-1.37,0.66-1.79c0.44-0.43,1.06-0.64,1.86-0.64
			c0.25,0,0.56,0.04,0.93,0.13l-0.02,1.42c-0.15-0.04-0.34-0.06-0.56-0.06c-0.69,0-1.04,0.32-1.04,0.97v0.55h1.37v1.35h-1.37v5.52
			H98.14z"/>
		<path class="st4" d="M105.51,14.1c-1.01,0-1.83-0.31-2.46-0.93s-0.95-1.44-0.95-2.47v-0.18c0-0.69,0.13-1.31,0.4-1.85
			s0.64-0.96,1.13-1.26c0.49-0.29,1.05-0.44,1.67-0.44c0.94,0,1.68,0.3,2.22,0.89c0.54,0.59,0.81,1.43,0.81,2.52v0.75h-4.37
			c0.06,0.45,0.24,0.81,0.54,1.08c0.3,0.27,0.68,0.41,1.13,0.41c0.71,0,1.26-0.26,1.66-0.77l0.9,1.01
			c-0.28,0.39-0.65,0.69-1.12,0.91S106.08,14.1,105.51,14.1z M105.3,8.46c-0.36,0-0.66,0.12-0.89,0.37
			c-0.23,0.25-0.37,0.6-0.43,1.06h2.55V9.74c-0.01-0.41-0.12-0.72-0.33-0.95C105.99,8.57,105.69,8.46,105.3,8.46z"/>
		<path class="st4" d="M113.22,10.22c0-0.97,0.13-1.89,0.39-2.77c0.26-0.88,0.64-1.65,1.14-2.33c0.5-0.67,1.05-1.14,1.64-1.41
			l0.36,0.99c-0.62,0.46-1.1,1.16-1.45,2.12c-0.35,0.96-0.52,2.07-0.52,3.35v0.2c0,1.28,0.17,2.4,0.51,3.37
			c0.34,0.96,0.83,1.68,1.45,2.15l-0.36,0.97c-0.58-0.26-1.11-0.71-1.61-1.37c-0.5-0.65-0.88-1.41-1.14-2.26
			c-0.26-0.86-0.4-1.75-0.42-2.68V10.22z"/>
		<path class="st4" d="M123.3,12.07h-3.34l-0.63,1.9h-2.02l3.44-9.24h1.76l3.46,9.24h-2.02L123.3,12.07z M120.47,10.53h2.31
			l-1.16-3.46L120.47,10.53z"/>
		<path class="st4" d="M133.14,10.6c0,1.1-0.23,1.96-0.7,2.57c-0.47,0.62-1.13,0.92-1.97,0.92c-0.75,0-1.34-0.29-1.78-0.86
			l-0.08,0.73h-1.65V4.23h1.83v3.5c0.42-0.5,0.98-0.74,1.67-0.74c0.84,0,1.49,0.31,1.97,0.92c0.48,0.62,0.71,1.48,0.71,2.6V10.6z
			 M131.31,10.47c0-0.69-0.11-1.2-0.33-1.52c-0.22-0.32-0.55-0.48-0.98-0.48c-0.58,0-0.99,0.24-1.21,0.72v2.71
			c0.22,0.48,0.63,0.72,1.22,0.72c0.59,0,0.98-0.29,1.17-0.88C131.26,11.47,131.31,11.04,131.31,10.47z"/>
		<path class="st4" d="M134.52,5.33c0-0.28,0.09-0.5,0.28-0.68c0.18-0.18,0.43-0.27,0.75-0.27c0.31,0,0.56,0.09,0.75,0.27
			c0.19,0.18,0.28,0.4,0.28,0.68c0,0.28-0.09,0.51-0.28,0.69s-0.44,0.27-0.75,0.27c-0.31,0-0.56-0.09-0.75-0.27
			C134.61,5.84,134.52,5.61,134.52,5.33z M136.47,13.98h-1.84V7.11h1.84V13.98z"/>
		<path class="st4" d="M140.42,5.42v1.69h1.17v1.35h-1.17v3.43c0,0.25,0.05,0.44,0.15,0.55c0.1,0.11,0.28,0.17,0.56,0.17
			c0.2,0,0.38-0.01,0.54-0.04v1.39c-0.36,0.11-0.73,0.17-1.11,0.17c-1.29,0-1.94-0.65-1.97-1.95v-3.7h-1V7.11h1V5.42H140.42z"/>
		<path class="st4" d="M146.99,13.28c-0.45,0.55-1.08,0.83-1.88,0.83c-0.74,0-1.3-0.21-1.69-0.63c-0.39-0.42-0.58-1.04-0.59-1.86
			v-4.5h1.83v4.44c0,0.72,0.33,1.07,0.98,1.07c0.62,0,1.05-0.22,1.28-0.65V7.11h1.84v6.87h-1.73L146.99,13.28z"/>
		<path class="st4" d="M154.27,8.83c-0.25-0.03-0.47-0.05-0.66-0.05c-0.69,0-1.15,0.24-1.36,0.71v4.49h-1.83V7.11h1.73l0.05,0.82
			c0.37-0.63,0.88-0.95,1.53-0.95c0.2,0,0.39,0.03,0.57,0.08L154.27,8.83z"/>
		<path class="st4" d="M158.58,10.36c0,0.96-0.14,1.88-0.41,2.76c-0.27,0.88-0.67,1.67-1.19,2.34c-0.52,0.68-1.07,1.14-1.66,1.4
			l-0.36-0.97c0.6-0.45,1.08-1.15,1.42-2.09c0.35-0.94,0.53-2.03,0.54-3.26v-0.34c0-1.27-0.17-2.38-0.52-3.34s-0.83-1.69-1.44-2.17
			l0.36-0.97c0.58,0.25,1.12,0.7,1.63,1.36c0.51,0.66,0.91,1.42,1.19,2.29c0.28,0.87,0.43,1.77,0.44,2.71V10.36z"/>
	</g>
	<g>
		<path class="st4" d="M21.04,53.31l1.24-6.58h1.9l-2.05,9.24h-1.92l-1.5-6.18l-1.5,6.18h-1.92l-2.05-9.24h1.9l1.25,6.56l1.52-6.56
			h1.61L21.04,53.31z"/>
		<path class="st4" d="M27.99,56.11c-1.01,0-1.83-0.31-2.46-0.93s-0.95-1.44-0.95-2.47v-0.18c0-0.69,0.13-1.31,0.4-1.85
			s0.64-0.96,1.13-1.26c0.49-0.29,1.05-0.44,1.67-0.44c0.94,0,1.68,0.3,2.22,0.89c0.54,0.59,0.81,1.43,0.81,2.52v0.75h-4.37
			c0.06,0.45,0.24,0.81,0.54,1.08c0.3,0.27,0.68,0.41,1.13,0.41c0.71,0,1.26-0.26,1.66-0.77l0.9,1.01
			c-0.28,0.39-0.65,0.69-1.12,0.91S28.56,56.11,27.99,56.11z M27.78,50.46c-0.36,0-0.66,0.12-0.89,0.37
			c-0.23,0.25-0.37,0.6-0.43,1.06h2.55v-0.15c-0.01-0.41-0.12-0.72-0.33-0.95C28.47,50.57,28.17,50.46,27.78,50.46z"/>
		<path class="st4" d="M35.97,50.83c-0.25-0.03-0.47-0.05-0.66-0.05c-0.69,0-1.15,0.24-1.36,0.71v4.49h-1.83v-6.87h1.73l0.05,0.82
			c0.37-0.63,0.88-0.95,1.53-0.95c0.2,0,0.39,0.03,0.57,0.08L35.97,50.83z"/>
		<path class="st4" d="M39.61,53.22l-0.66,0.66v2.09h-1.83v-9.75h1.83v5.4l0.36-0.46l1.76-2.06h2.2l-2.48,2.86l2.7,4.01h-2.11
			L39.61,53.22z"/>
		<path class="st4" d="M48.18,50.83c-0.25-0.03-0.47-0.05-0.66-0.05c-0.69,0-1.15,0.24-1.36,0.71v4.49h-1.83v-6.87h1.73l0.05,0.82
			c0.37-0.63,0.88-0.95,1.53-0.95c0.2,0,0.39,0.03,0.57,0.08L48.18,50.83z"/>
		<path class="st4" d="M52.09,56.11c-1.01,0-1.83-0.31-2.46-0.93s-0.95-1.44-0.95-2.47v-0.18c0-0.69,0.13-1.31,0.4-1.85
			s0.64-0.96,1.13-1.26c0.49-0.29,1.05-0.44,1.67-0.44c0.94,0,1.68,0.3,2.22,0.89c0.54,0.59,0.81,1.43,0.81,2.52v0.75h-4.37
			c0.06,0.45,0.24,0.81,0.54,1.08c0.3,0.27,0.68,0.41,1.13,0.41c0.71,0,1.26-0.26,1.66-0.77l0.9,1.01
			c-0.28,0.39-0.65,0.69-1.12,0.91S52.67,56.11,52.09,56.11z M51.88,50.46c-0.36,0-0.66,0.12-0.89,0.37
			c-0.23,0.25-0.37,0.6-0.43,1.06h2.55v-0.15c-0.01-0.41-0.12-0.72-0.33-0.95C52.58,50.57,52.27,50.46,51.88,50.46z"/>
		<path class="st4" d="M60.2,55.98c-0.08-0.17-0.15-0.37-0.18-0.62c-0.44,0.49-1.02,0.74-1.73,0.74c-0.67,0-1.23-0.19-1.67-0.58
			s-0.66-0.88-0.66-1.47c0-0.73,0.27-1.29,0.81-1.68c0.54-0.39,1.32-0.59,2.34-0.59h0.84v-0.39c0-0.32-0.08-0.57-0.24-0.76
			c-0.16-0.19-0.42-0.29-0.77-0.29c-0.31,0-0.55,0.07-0.73,0.22c-0.18,0.15-0.26,0.35-0.26,0.61H56.1c0-0.4,0.12-0.77,0.37-1.11
			c0.25-0.34,0.59-0.6,1.04-0.8c0.45-0.19,0.95-0.29,1.51-0.29c0.85,0,1.52,0.21,2.02,0.64c0.5,0.43,0.75,1.02,0.75,1.79v2.98
			c0,0.65,0.1,1.14,0.27,1.48v0.11H60.2z M58.68,54.7c0.27,0,0.52-0.06,0.75-0.18c0.23-0.12,0.4-0.28,0.51-0.49v-1.18h-0.69
			c-0.92,0-1.41,0.32-1.47,0.95l-0.01,0.11c0,0.23,0.08,0.42,0.24,0.56C58.18,54.63,58.4,54.7,58.68,54.7z"/>
		<path class="st4" d="M65.37,55.98h-1.84v-9.75h1.84V55.98z"/>
		<path class="st4" d="M70.86,54.08c0-0.22-0.11-0.4-0.33-0.53c-0.22-0.13-0.58-0.24-1.07-0.35c-1.63-0.34-2.45-1.04-2.45-2.08
			c0-0.61,0.25-1.12,0.76-1.53c0.5-0.41,1.17-0.61,1.98-0.61c0.87,0,1.57,0.21,2.09,0.62c0.52,0.41,0.78,0.94,0.78,1.6h-1.83
			c0-0.26-0.08-0.48-0.25-0.65c-0.17-0.17-0.43-0.26-0.79-0.26c-0.31,0-0.55,0.07-0.72,0.21c-0.17,0.14-0.25,0.32-0.25,0.53
			c0,0.2,0.1,0.37,0.29,0.49c0.19,0.12,0.52,0.23,0.97,0.32s0.84,0.19,1.16,0.31c0.97,0.36,1.45,0.97,1.45,1.85
			c0,0.63-0.27,1.13-0.81,1.52c-0.54,0.39-1.23,0.58-2.08,0.58c-0.58,0-1.09-0.1-1.53-0.31c-0.45-0.21-0.8-0.49-1.05-0.84
			s-0.38-0.74-0.38-1.16h1.74c0.02,0.33,0.14,0.58,0.36,0.75c0.22,0.17,0.53,0.26,0.9,0.26c0.35,0,0.62-0.07,0.8-0.2
			C70.77,54.47,70.86,54.3,70.86,54.08z"/>
		<path class="st4" d="M76.94,54.63c0.34,0,0.61-0.09,0.83-0.28c0.21-0.19,0.32-0.43,0.33-0.74h1.72c0,0.47-0.13,0.89-0.38,1.28
			c-0.25,0.39-0.59,0.69-1.03,0.9c-0.43,0.21-0.91,0.32-1.44,0.32c-0.98,0-1.76-0.31-2.32-0.94c-0.57-0.62-0.85-1.49-0.85-2.59
			v-0.12c0-1.06,0.28-1.9,0.84-2.53c0.56-0.63,1.33-0.95,2.32-0.95c0.86,0,1.55,0.24,2.07,0.73c0.52,0.49,0.78,1.14,0.79,1.95H78.1
			c-0.01-0.36-0.12-0.65-0.33-0.87c-0.21-0.22-0.49-0.33-0.84-0.33c-0.43,0-0.75,0.16-0.97,0.47c-0.22,0.31-0.33,0.82-0.33,1.52
			v0.19c0,0.71,0.11,1.22,0.32,1.53C76.18,54.47,76.5,54.63,76.94,54.63z"/>
		<path class="st4" d="M82.9,49.86c0.49-0.58,1.1-0.88,1.83-0.88c1.49,0,2.25,0.87,2.27,2.6v4.4h-1.83v-4.35
			c0-0.39-0.08-0.68-0.25-0.87c-0.17-0.19-0.45-0.28-0.84-0.28c-0.54,0-0.93,0.21-1.17,0.62v4.88h-1.83v-9.75h1.83V49.86z"/>
		<path class="st4" d="M92.76,55.28c-0.45,0.55-1.08,0.83-1.88,0.83c-0.74,0-1.3-0.21-1.69-0.63c-0.39-0.42-0.58-1.04-0.59-1.86
			v-4.5h1.83v4.44c0,0.72,0.33,1.07,0.98,1.07c0.62,0,1.05-0.22,1.28-0.65v-4.87h1.84v6.87h-1.73L92.76,55.28z"/>
		<path class="st4" d="M98.12,55.98h-1.84v-9.75h1.84V55.98z"/>
		<path class="st4" d="M103.86,55.98c-0.08-0.17-0.15-0.37-0.18-0.62c-0.44,0.49-1.02,0.74-1.73,0.74c-0.67,0-1.23-0.19-1.67-0.58
			c-0.44-0.39-0.66-0.88-0.66-1.47c0-0.73,0.27-1.29,0.81-1.68c0.54-0.39,1.32-0.59,2.34-0.59h0.84v-0.39
			c0-0.32-0.08-0.57-0.25-0.76c-0.16-0.19-0.42-0.29-0.77-0.29c-0.31,0-0.55,0.07-0.73,0.22c-0.17,0.15-0.26,0.35-0.26,0.61h-1.83
			c0-0.4,0.12-0.77,0.37-1.11c0.25-0.34,0.59-0.6,1.04-0.8c0.45-0.19,0.95-0.29,1.51-0.29c0.85,0,1.52,0.21,2.02,0.64
			c0.5,0.43,0.75,1.02,0.75,1.79v2.98c0,0.65,0.09,1.14,0.27,1.48v0.11H103.86z M102.34,54.7c0.27,0,0.52-0.06,0.75-0.18
			c0.23-0.12,0.4-0.28,0.51-0.49v-1.18h-0.69c-0.92,0-1.41,0.32-1.47,0.95l-0.01,0.11c0,0.23,0.08,0.42,0.24,0.56
			C101.84,54.63,102.06,54.7,102.34,54.7z"/>
		<path class="st4" d="M113.29,52.61c0,1.1-0.23,1.96-0.7,2.57c-0.47,0.62-1.13,0.92-1.97,0.92c-0.75,0-1.34-0.29-1.78-0.86
			l-0.08,0.73h-1.65v-9.75h1.83v3.5c0.42-0.5,0.98-0.74,1.67-0.74c0.84,0,1.49,0.31,1.97,0.92c0.48,0.62,0.71,1.48,0.71,2.6V52.61z
			 M111.46,52.47c0-0.69-0.11-1.2-0.33-1.52c-0.22-0.32-0.55-0.48-0.98-0.48c-0.58,0-0.99,0.24-1.21,0.72v2.71
			c0.22,0.48,0.63,0.72,1.22,0.72c0.59,0,0.98-0.29,1.17-0.88C111.42,53.47,111.46,53.05,111.46,52.47z"/>
		<path class="st4" d="M118.41,54.08c0-0.22-0.11-0.4-0.33-0.53c-0.22-0.13-0.58-0.24-1.07-0.35c-1.63-0.34-2.45-1.04-2.45-2.08
			c0-0.61,0.25-1.12,0.76-1.53s1.17-0.61,1.98-0.61c0.87,0,1.57,0.21,2.09,0.62c0.52,0.41,0.78,0.94,0.78,1.6h-1.83
			c0-0.26-0.08-0.48-0.25-0.65c-0.17-0.17-0.43-0.26-0.79-0.26c-0.31,0-0.55,0.07-0.72,0.21c-0.17,0.14-0.25,0.32-0.25,0.53
			c0,0.2,0.1,0.37,0.29,0.49s0.52,0.23,0.97,0.32s0.84,0.19,1.16,0.31c0.97,0.36,1.45,0.97,1.45,1.85c0,0.63-0.27,1.13-0.81,1.52
			c-0.54,0.39-1.23,0.58-2.08,0.58c-0.58,0-1.09-0.1-1.53-0.31s-0.8-0.49-1.05-0.84s-0.38-0.74-0.38-1.16h1.74
			c0.02,0.33,0.14,0.58,0.36,0.75c0.22,0.17,0.52,0.26,0.9,0.26c0.35,0,0.62-0.07,0.8-0.2C118.32,54.47,118.41,54.3,118.41,54.08z"
			/>
		<path class="st4" d="M124.49,54.63c0.34,0,0.61-0.09,0.83-0.28c0.21-0.19,0.32-0.43,0.33-0.74h1.72c0,0.47-0.13,0.89-0.38,1.28
			c-0.25,0.39-0.59,0.69-1.03,0.9s-0.91,0.32-1.44,0.32c-0.98,0-1.76-0.31-2.32-0.94c-0.57-0.62-0.85-1.49-0.85-2.59v-0.12
			c0-1.06,0.28-1.9,0.84-2.53c0.56-0.63,1.33-0.95,2.32-0.95c0.86,0,1.55,0.24,2.07,0.73c0.52,0.49,0.78,1.14,0.79,1.95h-1.72
			c-0.01-0.36-0.12-0.65-0.33-0.87c-0.21-0.22-0.49-0.33-0.84-0.33c-0.43,0-0.75,0.16-0.97,0.47s-0.33,0.82-0.33,1.52v0.19
			c0,0.71,0.11,1.22,0.32,1.53C123.72,54.47,124.05,54.63,124.49,54.63z"/>
		<path class="st4" d="M130.45,49.86c0.49-0.58,1.1-0.88,1.83-0.88c1.49,0,2.25,0.87,2.27,2.6v4.4h-1.83v-4.35
			c0-0.39-0.08-0.68-0.25-0.87c-0.17-0.19-0.45-0.28-0.84-0.28c-0.54,0-0.93,0.21-1.17,0.62v4.88h-1.83v-9.75h1.83V49.86z"/>
		<path class="st4" d="M138.13,55.98h-1.84v-9.75h1.84V55.98z"/>
		<path class="st4" d="M144.01,55.28c-0.45,0.55-1.08,0.83-1.88,0.83c-0.74,0-1.3-0.21-1.68-0.63c-0.39-0.42-0.59-1.04-0.59-1.86
			v-4.5h1.83v4.44c0,0.72,0.33,1.07,0.98,1.07c0.62,0,1.05-0.22,1.28-0.65v-4.87h1.84v6.87h-1.73L144.01,55.28z"/>
		<path class="st4" d="M151.15,54.08c0-0.22-0.11-0.4-0.33-0.53c-0.22-0.13-0.58-0.24-1.07-0.35c-1.63-0.34-2.45-1.04-2.45-2.08
			c0-0.61,0.25-1.12,0.76-1.53c0.5-0.41,1.17-0.61,1.98-0.61c0.87,0,1.57,0.21,2.09,0.62c0.52,0.41,0.78,0.94,0.78,1.6h-1.83
			c0-0.26-0.08-0.48-0.25-0.65c-0.17-0.17-0.43-0.26-0.79-0.26c-0.31,0-0.55,0.07-0.72,0.21c-0.17,0.14-0.25,0.32-0.25,0.53
			c0,0.2,0.1,0.37,0.29,0.49c0.19,0.12,0.52,0.23,0.97,0.32s0.84,0.19,1.16,0.31c0.97,0.36,1.45,0.97,1.45,1.85
			c0,0.63-0.27,1.13-0.81,1.52c-0.54,0.39-1.23,0.58-2.08,0.58c-0.58,0-1.09-0.1-1.53-0.31c-0.45-0.21-0.8-0.49-1.05-0.84
			s-0.38-0.74-0.38-1.16h1.74c0.02,0.33,0.14,0.58,0.36,0.75c0.22,0.17,0.53,0.26,0.9,0.26c0.35,0,0.62-0.07,0.8-0.2
			C151.06,54.47,151.15,54.3,151.15,54.08z"/>
		<path class="st4" d="M158.09,54.08c0-0.22-0.11-0.4-0.33-0.53c-0.22-0.13-0.58-0.24-1.07-0.35c-1.63-0.34-2.45-1.04-2.45-2.08
			c0-0.61,0.25-1.12,0.76-1.53c0.5-0.41,1.17-0.61,1.98-0.61c0.87,0,1.57,0.21,2.09,0.62c0.52,0.41,0.78,0.94,0.78,1.6h-1.83
			c0-0.26-0.08-0.48-0.25-0.65c-0.17-0.17-0.43-0.26-0.79-0.26c-0.31,0-0.55,0.07-0.72,0.21c-0.17,0.14-0.25,0.32-0.25,0.53
			c0,0.2,0.1,0.37,0.29,0.49c0.19,0.12,0.52,0.23,0.97,0.32s0.84,0.19,1.16,0.31c0.97,0.36,1.45,0.97,1.45,1.85
			c0,0.63-0.27,1.13-0.81,1.52c-0.54,0.39-1.23,0.58-2.08,0.58c-0.58,0-1.09-0.1-1.53-0.31c-0.45-0.21-0.8-0.49-1.05-0.84
			s-0.38-0.74-0.38-1.16h1.74c0.02,0.33,0.14,0.58,0.36,0.75c0.22,0.17,0.53,0.26,0.9,0.26c0.35,0,0.62-0.07,0.8-0.2
			C158,54.47,158.09,54.3,158.09,54.08z"/>
	</g>
	<g>
		<polygon class="st4" points="82.71,25.93 95.05,25.93 88.88,17.76 		"/>
	</g>
	<g>
		<polygon class="st4" points="82.71,35.97 95.05,35.97 88.88,27.8 		"/>
	</g>
	<g>
		<polygon class="st4" points="82.71,46.02 95.05,46.02 88.88,37.85 		"/>
	</g>
</g>
</svg>
