<?xml version="1.0" encoding="utf-8"?>
<!-- Generator: Adobe Illustrator 26.0.2, SVG Export Plug-In . SVG Version: 6.00 Build 0)  -->
<svg version="1.1" id="Ebene_1" xmlns="http://www.w3.org/2000/svg" xmlns:xlink="http://www.w3.org/1999/xlink" x="0px" y="0px"
	 viewBox="0 0 89.55 86.11" style="enable-background:new 0 0 89.55 86.11;" xml:space="preserve">
<style type="text/css">
	.st0{clip-path:url(#SVGID_00000142157555416084199160000011635598505095541147_);fill:#6796CF;}
	.st1{clip-path:url(#SVGID_00000142157555416084199160000011635598505095541147_);fill:#2B2961;}
	.st2{fill:#6796CF;}
	.st3{clip-path:url(#SVGID_00000183933714154472061700000006918415583488500159_);fill:#2B2961;}
	.st4{fill:#FFFFFF;}
	.st5{clip-path:url(#SVGID_00000093135872963590653890000018207764769693644430_);fill:#2B2961;}
	.st6{clip-path:url(#SVGID_00000020381381344189503980000001724880357960421004_);fill:#2B2961;}
	.st7{clip-path:url(#SVGID_00000152239945957781810340000001868447713194484621_);fill:#2B2961;}
	.st8{fill:#2B2961;}
	.st9{clip-path:url(#SVGID_00000147931486006557365420000015859144656266885308_);fill:#6796CF;}
	.st10{clip-path:url(#SVGID_00000147931486006557365420000015859144656266885308_);fill:#2B2961;}
	.st11{clip-path:url(#SVGID_00000149370992955853839310000003683327579123538876_);fill:#2B2961;}
	.st12{clip-path:url(#SVGID_00000124877972238123148810000008231391512930639772_);fill:#2B2961;}
	.st13{clip-path:url(#SVGID_00000124877972238123148810000008231391512930639772_);fill:#6796CF;}
	.st14{clip-path:url(#SVGID_00000109743791956384551090000013017258324651507097_);fill:#2B2961;}
	.st15{clip-path:url(#SVGID_00000013189090689948053330000005600038414921659017_);fill:#2B2961;}
	.st16{clip-path:url(#SVGID_00000097484781785059763630000017555133929208179619_);fill:#2B2961;}
	.st17{clip-path:url(#SVGID_00000097484781785059763630000017555133929208179619_);fill:#6796CF;}
	.st18{clip-path:url(#SVGID_00000109027547976995213000000000463618032970726798_);fill:#2B2961;}
	.st19{clip-path:url(#SVGID_00000033368277234532337800000006621799820436193450_);fill:#2B2961;}
	.st20{clip-path:url(#SVGID_00000084510118137454944400000015653980015015447198_);fill:#2B2961;}
	.st21{clip-path:url(#SVGID_00000118368442630887593500000011762583763671451265_);fill:#2B2961;}
	.st22{clip-path:url(#SVGID_00000056407277615599101960000013597939179238770835_);fill:#6796CF;}
	.st23{clip-path:url(#SVGID_00000056407277615599101960000013597939179238770835_);fill:#2B2961;}
	.st24{clip-path:url(#SVGID_00000165955952274077838120000009078950585136126902_);fill:#2B2961;}
	.st25{clip-path:url(#SVGID_00000151510618554709220600000007827212577823266713_);fill:#2B2961;}
	.st26{clip-path:url(#SVGID_00000151510618554709220600000007827212577823266713_);fill:#6796CF;}
	.st27{clip-path:url(#SVGID_00000179614258372569755140000013607437990910382731_);fill:#2B2961;}
	.st28{clip-path:url(#SVGID_00000093153525312628870150000008755135648524057498_);fill:#2B2961;}
	.st29{clip-path:url(#SVGID_00000109735087645923092630000015512052473448068021_);fill:#2B2961;}
	.st30{clip-path:url(#SVGID_00000109735087645923092630000015512052473448068021_);fill:#6796CF;}
	.st31{clip-path:url(#SVGID_00000150784894768173551440000012201217221699685272_);fill:#2B2961;}
	.st32{clip-path:url(#SVGID_00000152254119356557475200000005099564709714041261_);fill:#6796CF;}
	.st33{clip-path:url(#SVGID_00000152254119356557475200000005099564709714041261_);fill:#2B2961;}
	.st34{clip-path:url(#SVGID_00000011710506290893189160000010867908209252970681_);fill:#2B2961;}
	.st35{clip-path:url(#SVGID_00000011710506290893189160000010867908209252970681_);fill:#6796CF;}
	.st36{clip-path:url(#SVGID_00000121965583620039539600000009526969254806461886_);fill:#2B2961;}
	.st37{clip-path:url(#SVGID_00000134959637237581580560000012989423920494465182_);fill:#FFFFFF;}
	.st38{clip-path:url(#SVGID_00000134959637237581580560000012989423920494465182_);fill:#2B2961;}
	.st39{clip-path:url(#SVGID_00000124858805804603348740000008740305319775272374_);fill:#FFFFFF;}
	.st40{clip-path:url(#SVGID_00000124858805804603348740000008740305319775272374_);fill:#2B2961;}
	.st41{clip-path:url(#SVGID_00000097480271707875298170000007621104252443200931_);fill:#6796CF;}
	.st42{clip-path:url(#SVGID_00000097480271707875298170000007621104252443200931_);fill:#2B2961;}
	.st43{clip-path:url(#SVGID_00000002347089533125236910000000058129244926664602_);fill:#2B2961;}
	.st44{clip-path:url(#SVGID_00000114039226833342466240000017680701911830135199_);fill:#6796CF;}
	.st45{clip-path:url(#SVGID_00000114039226833342466240000017680701911830135199_);fill:#2B2961;}
	.st46{clip-path:url(#SVGID_00000088827343538547838360000017246997068592116866_);fill:#2B2961;}
	.st47{clip-path:url(#SVGID_00000041297927781755772590000004001394536286298009_);fill:#2B2961;}
	.st48{clip-path:url(#SVGID_00000041297927781755772590000004001394536286298009_);fill:#6796CF;}
	.st49{clip-path:url(#SVGID_00000127724989608139303130000005196532864907847847_);fill:#2B2961;}
	.st50{clip-path:url(#SVGID_00000067930672489892444910000005013285959122425731_);fill:#2B2961;}
	.st51{clip-path:url(#SVGID_00000016770445634815149990000000098078576630393011_);fill:#2B2961;}
	.st52{clip-path:url(#SVGID_00000016770445634815149990000000098078576630393011_);fill:#6796CF;}
	.st53{clip-path:url(#SVGID_00000008842097369323709430000004919801111479752125_);fill:#2B2961;}
	.st54{clip-path:url(#SVGID_00000157278775502308375310000013630398194929637031_);fill:#2B2961;}
	.st55{clip-path:url(#SVGID_00000138569980828465201950000011555145872470778020_);fill:#2B2961;}
	.st56{clip-path:url(#SVGID_00000098933337182472210960000016484287740700756100_);fill:#2B2961;}
	.st57{clip-path:url(#SVGID_00000077301594215963442830000013853168371156815806_);fill:#6796CF;}
	.st58{clip-path:url(#SVGID_00000076604637135692127680000001365846695774908080_);fill:#2B2961;}
	.st59{clip-path:url(#SVGID_00000047028759358242262350000008036462373221927562_);fill:#2B2961;}
	.st60{clip-path:url(#SVGID_00000114031242007491870360000017561458523099864208_);fill:#6796CF;}
	.st61{clip-path:url(#SVGID_00000111879012927116220960000001588722847312482462_);fill:#2B2961;}
	.st62{clip-path:url(#SVGID_00000089544323208534495480000016859892586491719299_);fill:#2B2961;}
	.st63{clip-path:url(#SVGID_00000089544323208534495480000016859892586491719299_);fill:#6796CF;}
	.st64{clip-path:url(#SVGID_00000090976115653455301800000000051251589716783256_);fill:#2B2961;}
	.st65{clip-path:url(#SVGID_00000090270657931944479380000007295450139381649560_);fill:#6796CF;}
	.st66{clip-path:url(#SVGID_00000090270657931944479380000007295450139381649560_);fill:#2B2961;}
	.st67{clip-path:url(#SVGID_00000089555135257026533200000018378152824737516457_);fill:#2B2961;}
	.st68{clip-path:url(#SVGID_00000134208981626767461360000004885175228041548710_);fill:#2B2961;}
	.st69{clip-path:url(#SVGID_00000134208981626767461360000004885175228041548710_);fill:#6796CF;}
	.st70{clip-path:url(#SVGID_00000096030044168152481830000009403864527450855811_);fill:#2B2961;}
	.st71{clip-path:url(#SVGID_00000131338866327828310120000003838712181767562132_);fill:#2B2961;}
	.st72{clip-path:url(#SVGID_00000052811500226317041610000006178837384374187446_);fill:#2B2961;}
	.st73{clip-path:url(#SVGID_00000052811500226317041610000006178837384374187446_);fill:#6796CF;}
	.st74{clip-path:url(#SVGID_00000080925607680286590730000004322519227005300106_);fill:#2B2961;}
	.st75{clip-path:url(#SVGID_00000070815616636835612090000016953772582592194236_);fill:#2B2961;}
	.st76{clip-path:url(#SVGID_00000177479024375071827670000016656551366076286113_);fill:#2B2961;}
	.st77{clip-path:url(#SVGID_00000116236419641881102090000006333125517152986032_);fill:#2B2961;}
	.st78{clip-path:url(#SVGID_00000145761166992309035540000003717094738090045584_);fill:#6796CF;}
	.st79{clip-path:url(#SVGID_00000145761166992309035540000003717094738090045584_);fill:#2B2961;}
	.st80{clip-path:url(#SVGID_00000114796460328263465320000008261438319031659449_);fill:#FFFFFF;}
	.st81{clip-path:url(#SVGID_00000114796460328263465320000008261438319031659449_);fill:#2B2961;}
	.st82{clip-path:url(#SVGID_00000061430379458474102460000015657222339222588812_);fill:#2B2961;}
	.st83{clip-path:url(#SVGID_00000076602657679260413490000002569888729936462258_);fill:#2B2961;}
	.st84{clip-path:url(#SVGID_00000076602657679260413490000002569888729936462258_);fill:#6796CF;}
	.st85{clip-path:url(#SVGID_00000052077974491126650590000011338951081263732613_);fill:#2B2961;}
	.st86{clip-path:url(#SVGID_00000127043920553264999740000004836562954068428161_);fill:#2B2961;}
	.st87{clip-path:url(#SVGID_00000127043920553264999740000004836562954068428161_);fill:#FFFFFF;}
	.st88{clip-path:url(#SVGID_00000116947178148602065040000015240488314153352120_);fill:#6796CF;}
	.st89{clip-path:url(#SVGID_00000116947178148602065040000015240488314153352120_);fill:#2B2961;}
	.st90{clip-path:url(#SVGID_00000018930618136662500500000016195756899172947630_);fill:#2B2961;}
	.st91{clip-path:url(#SVGID_00000173880871393189722940000011063942454284477859_);fill:#2B2961;}
	.st92{clip-path:url(#SVGID_00000173880871393189722940000011063942454284477859_);fill:#6796CF;}
	.st93{clip-path:url(#SVGID_00000013184666251906650050000009781860449768685993_);fill:#2B2961;}
	.st94{clip-path:url(#SVGID_00000013184666251906650050000009781860449768685993_);fill:#FFFFFF;}
	.st95{clip-path:url(#SVGID_00000062185839363631807030000000903866561100826777_);fill:#6796CF;}
	.st96{clip-path:url(#SVGID_00000062185839363631807030000000903866561100826777_);fill:#2B2961;}
	.st97{clip-path:url(#SVGID_00000062185839363631807030000000903866561100826777_);fill:#FFFFFF;}
	.st98{clip-path:url(#SVGID_00000170985210895542259810000000572748748572823179_);fill:#2B2961;}
	.st99{clip-path:url(#SVGID_00000170985210895542259810000000572748748572823179_);fill:#6796CF;}
	.st100{clip-path:url(#SVGID_00000108271397474415383870000007870384141370367630_);fill:#2B2961;}
	.st101{clip-path:url(#SVGID_00000003104845602880639140000001742958529960878470_);fill:#2B2961;}
	.st102{clip-path:url(#SVGID_00000103260566925288704250000018231944004905672633_);fill:#2B2961;}
	.st103{clip-path:url(#SVGID_00000043426855201851840650000006859500255390747558_);fill:#2B2961;}
	.st104{clip-path:url(#SVGID_00000057845600869681873290000014699425353246037913_);fill:#2B2961;}
	.st105{clip-path:url(#SVGID_00000147906465374102123820000015508608063043150988_);fill:#FFFFFF;}
	.st106{clip-path:url(#SVGID_00000147906465374102123820000015508608063043150988_);fill:#2B2961;}
	.st107{clip-path:url(#SVGID_00000147906465374102123820000015508608063043150988_);fill:#6796CF;}
	.st108{clip-path:url(#SVGID_00000079456727584852866450000006749480392526229915_);fill:#FFFFFF;}
	.st109{clip-path:url(#SVGID_00000036963525729992640350000009853960847609080979_);fill:#2B2961;}
	.st110{clip-path:url(#SVGID_00000036963525729992640350000009853960847609080979_);fill:#FFFFFF;}
	.st111{clip-path:url(#SVGID_00000016055996683616235790000016182463942377728640_);fill:#2B2961;}
	.st112{clip-path:url(#SVGID_00000027567081283629176200000007999835582415393449_);fill:#2B2961;}
	.st113{clip-path:url(#SVGID_00000027567081283629176200000007999835582415393449_);fill:#6796CF;}
	.st114{clip-path:url(#SVGID_00000042702868617334349820000016247111969300772784_);fill:#2B2961;}
	.st115{clip-path:url(#SVGID_00000041985273380585899410000004057023170771359110_);fill:#2B2961;}
	.st116{clip-path:url(#SVGID_00000041985273380585899410000004057023170771359110_);fill:#FFFFFF;}
	.st117{clip-path:url(#SVGID_00000074417857719462086960000001535671577637984190_);fill:#6796CF;}
	.st118{clip-path:url(#SVGID_00000091016763674668846010000005540296558661326505_);fill:#2B2961;}
	.st119{clip-path:url(#SVGID_00000063618914919043513640000001767370442460670112_);fill:#2B2961;}
	.st120{clip-path:url(#SVGID_00000116942789849422336550000017785471547595746730_);fill:#FFFFFF;}
	.st121{clip-path:url(#SVGID_00000116942789849422336550000017785471547595746730_);fill:#2B2961;}
	.st122{clip-path:url(#SVGID_00000122679430194213034340000018075231525345371564_);fill:#FFFFFF;}
	.st123{clip-path:url(#SVGID_00000122679430194213034340000018075231525345371564_);fill:#2B2961;}
	.st124{clip-path:url(#SVGID_00000148631758837851986870000018288663420124702372_);fill:#6796CF;}
	.st125{clip-path:url(#SVGID_00000148631758837851986870000018288663420124702372_);fill:#2B2961;}
	.st126{clip-path:url(#SVGID_00000061459492902870578360000003818153057605611147_);fill:#2B2961;}
	.st127{clip-path:url(#SVGID_00000061459492902870578360000003818153057605611147_);fill:#6796CF;}
	.st128{clip-path:url(#SVGID_00000014635496516940937090000008076835902230416304_);fill:#6796CF;}
	.st129{clip-path:url(#SVGID_00000183229647163607123790000004870223267601442493_);fill:#2B2961;}
	.st130{clip-path:url(#SVGID_00000056425535945641449250000011636706536169723813_);fill:#2B2961;}
	.st131{clip-path:url(#SVGID_00000015330688176298747550000006879417523632584113_);fill:#2B2961;}
	.st132{clip-path:url(#SVGID_00000024681894335594027050000011097273464231574673_);fill:#2B2961;}
	.st133{clip-path:url(#SVGID_00000103227182256482816100000002110774459585144731_);fill:#2B2961;}
	.st134{clip-path:url(#SVGID_00000103227182256482816100000002110774459585144731_);fill:#6796CF;}
	.st135{clip-path:url(#SVGID_00000049182832358106022900000011855709607686009492_);fill:#6796CF;}
	.st136{clip-path:url(#SVGID_00000044157192658201380020000011691566478563995777_);fill:#2B2961;}
	.st137{clip-path:url(#SVGID_00000137112431020826630390000016448141030212804745_);fill:#2B2961;}
	.st138{clip-path:url(#SVGID_00000007409480339231247510000003720436340475017639_);fill:#2B2961;}
	.st139{clip-path:url(#SVGID_00000167366177543448268350000008885952927104130186_);fill:#2B2961;}
	.st140{clip-path:url(#SVGID_00000121251543663606266800000005489131659246550938_);fill:#6796CF;}
	.st141{clip-path:url(#SVGID_00000121251543663606266800000005489131659246550938_);fill:#2B2961;}
	.st142{clip-path:url(#SVGID_00000022532961078392301050000009943310748970392199_);fill:#2B2961;}
	.st143{clip-path:url(#SVGID_00000165223267432257331540000002219865254556369814_);fill:#2B2961;}
	.st144{clip-path:url(#SVGID_00000103973090030123802020000005265898550286970783_);fill:#2B2961;}
	.st145{clip-path:url(#SVGID_00000103973090030123802020000005265898550286970783_);fill:#6796CF;}
	.st146{clip-path:url(#SVGID_00000100362737041002219600000005514998470932366488_);}
	.st147{clip-path:url(#SVGID_00000100362737041002219600000005514998470932366488_);fill:#FFFFFF;}
	.st148{clip-path:url(#SVGID_00000100362737041002219600000005514998470932366488_);fill:#2B2961;}
	.st149{clip-path:url(#SVGID_00000005973727668309691230000000167384008823878541_);fill:#2B2961;}
	.st150{clip-path:url(#SVGID_00000162316401521184056510000003246990244361985162_);fill:#2B2961;}
	.st151{clip-path:url(#SVGID_00000162316401521184056510000003246990244361985162_);fill:#FFFFFF;}
	.st152{clip-path:url(#SVGID_00000162316401521184056510000003246990244361985162_);fill:#6796CF;}
	.st153{clip-path:url(#SVGID_00000147941870329032166150000006739036858904086945_);fill:#2B2961;}
	.st154{clip-path:url(#SVGID_00000038384118730205439240000006993446070529619342_);fill:#2B2961;}
	.st155{clip-path:url(#SVGID_00000167387737189153467770000008321732867093229486_);fill:#6796CF;}
	.st156{clip-path:url(#SVGID_00000167387737189153467770000008321732867093229486_);}
	.st157{clip-path:url(#SVGID_00000120529948594631101680000002619967271889119915_);fill:#2B2961;}
	.st158{clip-path:url(#SVGID_00000167387737189153467770000008321732867093229486_);fill:#FFFFFF;}
	.st159{clip-path:url(#SVGID_00000167387737189153467770000008321732867093229486_);fill:#2B2961;}
	.st160{opacity:0.52;clip-path:url(#SVGID_00000021091223990215274170000004136168101421308549_);}
	.st161{clip-path:url(#SVGID_00000091725851230724648010000000833772539200348830_);fill:#6796CF;}
	.st162{clip-path:url(#SVGID_00000183250502821834773330000006026410701661090692_);fill:#2B2961;}
	.st163{clip-path:url(#SVGID_00000002342542771040647600000008611357739193073809_);fill:#2B2961;}
	.st164{clip-path:url(#SVGID_00000102504841580126645720000005684150186078615721_);fill:#6796CF;}
	.st165{clip-path:url(#SVGID_00000102504841580126645720000005684150186078615721_);fill:#2B2961;}
	.st166{clip-path:url(#SVGID_00000034075100889060839810000006063835915402838155_);fill:#2B2961;}
	.st167{clip-path:url(#SVGID_00000052789383064683477260000016112822336872343476_);fill:#2B2961;}
	.st168{clip-path:url(#SVGID_00000158719222180516014530000016343677187654792331_);fill:#2B2961;}
	.st169{clip-path:url(#SVGID_00000083783244170905104580000013209058673105728183_);fill:#FFFFFF;}
	.st170{clip-path:url(#SVGID_00000083783244170905104580000013209058673105728183_);fill:#2B2961;}
	.st171{clip-path:url(#SVGID_00000083783244170905104580000013209058673105728183_);fill:#6796CF;}
	.st172{clip-path:url(#SVGID_00000028301344518993457090000000864737820500457907_);fill:#6796CF;}
	.st173{clip-path:url(#SVGID_00000111907466520590370710000017832065492284910519_);fill:#2B2961;}
	.st174{clip-path:url(#SVGID_00000015344936274091889900000011055267084176473241_);fill:#2B2961;}
	.st175{clip-path:url(#SVGID_00000015344936274091889900000011055267084176473241_);fill:#FFFFFF;}
	.st176{clip-path:url(#SVGID_00000061468393916672479710000018250839860159621293_);fill:#6796CF;}
	.st177{clip-path:url(#SVGID_00000061468393916672479710000018250839860159621293_);fill:#2B2961;}
	.st178{clip-path:url(#SVGID_00000177475526946350455470000018117936804767402390_);fill:#6796CF;}
	.st179{clip-path:url(#SVGID_00000177475526946350455470000018117936804767402390_);fill:#2B2961;}
	.st180{clip-path:url(#SVGID_00000141444249519411670400000000761501150037576093_);fill:#2B2961;}
	.st181{clip-path:url(#SVGID_00000142890942379635510480000014928068232263636157_);fill:#2B2961;}
	.st182{clip-path:url(#SVGID_00000070834312470867524570000013309177161705781906_);fill:#FFFFFF;}
	.st183{clip-path:url(#SVGID_00000101091967979695498810000000639506969609156256_);fill:#2B2961;}
	.st184{clip-path:url(#SVGID_00000181778371925965736720000010665476253480477370_);fill:#2B2961;}
	.st185{clip-path:url(#SVGID_00000181778371925965736720000010665476253480477370_);fill:#6796CF;}
	.st186{clip-path:url(#SVGID_00000064353756644280223090000012426878687431737231_);fill:#2B2961;}
	.st187{clip-path:url(#SVGID_00000161629958929861382660000009494401980824495744_);fill:#2B2961;}
	.st188{clip-path:url(#SVGID_00000062901245306615702670000008251116300178461351_);fill:#6796CF;}
	.st189{clip-path:url(#SVGID_00000091700259230104775050000002992881791807308444_);fill:#2B2961;}
	.st190{clip-path:url(#SVGID_00000152246607166945508930000015588034744176479104_);fill:#6796CF;}
	.st191{clip-path:url(#SVGID_00000069381848616537616740000010139820876190486931_);fill:#2B2961;}
	.st192{clip-path:url(#SVGID_00000149354126014526267410000009162479907352384391_);fill:#6796CF;}
	.st193{clip-path:url(#SVGID_00000140725217665098031390000017694492504783283352_);fill:#2B2961;}
	.st194{clip-path:url(#SVGID_00000074416609180309271500000009515786393567742364_);}
	.st195{clip-path:url(#SVGID_00000074416609180309271500000009515786393567742364_);fill:#2B2961;}
	.st196{clip-path:url(#SVGID_00000074416609180309271500000009515786393567742364_);fill:#FFFFFF;}
	.st197{clip-path:url(#SVGID_00000128445117461354388180000017628328426709399484_);fill:#2B2961;}
	.st198{clip-path:url(#SVGID_00000178201212834198780730000001192964957682371202_);fill:#2B2961;}
	.st199{clip-path:url(#SVGID_00000097498026633325938010000013137393591143007409_);fill:#2B2961;}
	.st200{clip-path:url(#SVGID_00000075154445808731649440000010260823580451862176_);fill:#2B2961;}
	.st201{clip-path:url(#SVGID_00000033362797104194257020000014736979795781023370_);fill:#2B2961;}
	.st202{clip-path:url(#SVGID_00000011732735852112734410000016184516299634474394_);fill:#2B2961;}
	.st203{clip-path:url(#SVGID_00000140726921445634895440000002086725759389901734_);fill:#2B2961;}
	.st204{clip-path:url(#SVGID_00000127028423414042821030000001810329794780858779_);fill:#2B2961;}
	.st205{clip-path:url(#SVGID_00000091727288533088842370000017238206271000072611_);fill:#2B2961;}
	.st206{clip-path:url(#SVGID_00000102513596551065743860000000541114798994752679_);fill:#FFFFFF;}
	.st207{clip-path:url(#SVGID_00000102513596551065743860000000541114798994752679_);fill:#2B2961;}
	.st208{clip-path:url(#SVGID_00000064312877489117579180000001077987547703220616_);fill:#6796CF;}
	.st209{clip-path:url(#SVGID_00000064312877489117579180000001077987547703220616_);fill:#2B2961;}
	.st210{clip-path:url(#SVGID_00000155852530620612577870000006577969929266832268_);fill:#2B2961;}
	.st211{clip-path:url(#SVGID_00000155852530620612577870000006577969929266832268_);fill:#FFFFFF;}
	.st212{clip-path:url(#SVGID_00000152972542088840484860000015257758410173077659_);fill:#6796CF;}
	.st213{clip-path:url(#SVGID_00000152972542088840484860000015257758410173077659_);fill:#2B2961;}
	.st214{clip-path:url(#SVGID_00000118358176099264631760000016993781063629493402_);fill:#6796CF;}
	.st215{clip-path:url(#SVGID_00000118358176099264631760000016993781063629493402_);fill:#2B2961;}
	.st216{clip-path:url(#SVGID_00000106830997100393567300000015523680412742453667_);}
	.st217{clip-path:url(#SVGID_00000125603073750028314130000003703619321766322089_);}
	.st218{clip-path:url(#SVGID_00000138539402383441423820000015578336780168427947_);}
	.st219{clip-path:url(#SVGID_00000088828035840784078500000012748855438066565287_);}
	.st220{clip-path:url(#SVGID_00000149375679111761176890000003023024737694483364_);}
	.st221{clip-path:url(#SVGID_00000182494145897705636750000006615612488621034402_);}
	.st222{clip-path:url(#SVGID_00000176005380342767386750000002473313188752450210_);}
	.st223{clip-path:url(#SVGID_00000070816834125185525970000015428520307509745338_);}
	.st224{clip-path:url(#SVGID_00000039130957694077659650000011744702416936139402_);}
	.st225{clip-path:url(#SVGID_00000182490824290506589000000003945218000554719907_);}
	.st226{clip-path:url(#SVGID_00000137845551003585443700000018408578754747441818_);}
	.st227{clip-path:url(#SVGID_00000001637240961254269670000012280063291789139094_);}
	.st228{clip-path:url(#SVGID_00000028308425366392465140000005701704842543292341_);}
	.st229{clip-path:url(#SVGID_00000088113592898114074830000005624936447297271222_);}
	.st230{clip-path:url(#SVGID_00000176042119464257584940000011199667110329511050_);fill:#2B2961;}
	.st231{clip-path:url(#SVGID_00000176042119464257584940000011199667110329511050_);fill:#6796CF;}
	.st232{fill:#A2B9E1;}
	.st233{clip-path:url(#SVGID_00000030459669617235095990000006856916069916475282_);}
	.st234{clip-path:url(#SVGID_00000145058133809656880250000000804679132118048906_);}
</style>
<g>
	<rect x="1.93" y="57.81" class="st2" width="19.52" height="20.03"/>
	<path class="st2" d="M21.45,77.97H1.93c-0.07,0-0.12-0.06-0.12-0.12V57.81c0-0.07,0.06-0.12,0.12-0.12h19.52
		c0.07,0,0.12,0.06,0.12,0.12v20.03C21.58,77.91,21.52,77.97,21.45,77.97z M2.06,77.72h19.27V57.94H2.06V77.72z"/>
	<polyline class="st2" points="15.55,29.68 15.55,37.1 16.48,37.1 16.48,44.83 21.74,44.83 21.5,57.83 1.94,57.83 1.94,44.83 
		5.97,44.83 5.97,37.1 6.89,37.1 6.89,29.68 8.75,28.75 8.75,37.1 13.7,37.1 13.7,28.75 	"/>
	<g>
		<defs>
			<rect id="SVGID_00000101067162364862774100000009608169384023255691_" width="89.55" height="86.11"/>
		</defs>
		<clipPath id="SVGID_00000122708658476414556980000013407628734026661296_">
			<use xlink:href="#SVGID_00000101067162364862774100000009608169384023255691_"  style="overflow:visible;"/>
		</clipPath>
		
			<rect x="0.5" y="57.65" style="clip-path:url(#SVGID_00000122708658476414556980000013407628734026661296_);fill:#2B2961;" width="21.3" height="0.4"/>
		<path style="clip-path:url(#SVGID_00000122708658476414556980000013407628734026661296_);fill:#2B2961;" d="M17.25,86.11
			c-0.17,0-0.3-0.13-0.3-0.3V78.1c0-0.17,0.13-0.3,0.3-0.3s0.3,0.13,0.3,0.3v7.71C17.54,85.98,17.41,86.11,17.25,86.11z M4.82,86.11
			c-0.17,0-0.3-0.13-0.3-0.3V78.1c0-0.17,0.13-0.3,0.3-0.3s0.3,0.13,0.3,0.3v7.71C5.12,85.98,4.98,86.11,4.82,86.11z"/>
	</g>
	<path class="st8" d="M4.39,49.85c-0.19,0-0.35-0.16-0.35-0.35V39.15c0-0.19,0.16-0.35,0.35-0.35s0.35,0.16,0.35,0.35v10.35
		C4.73,49.7,4.58,49.85,4.39,49.85z M19.92,49.6c-0.15,0-0.3-0.1-0.34-0.26l-2.62-10.01c-0.05-0.19,0.06-0.38,0.25-0.42
		c0.18-0.05,0.38,0.06,0.42,0.25l2.62,10.01c0.05,0.19-0.06,0.38-0.25,0.42C19.98,49.59,19.95,49.6,19.92,49.6z"/>
	<g>
		<defs>
			<rect id="SVGID_00000036966900388004239680000009348826171203778183_" width="89.55" height="86.11"/>
		</defs>
		<clipPath id="SVGID_00000165956479864418997740000012616927947800280979_">
			<use xlink:href="#SVGID_00000036966900388004239680000009348826171203778183_"  style="overflow:visible;"/>
		</clipPath>
		<path style="clip-path:url(#SVGID_00000165956479864418997740000012616927947800280979_);fill:#2B2961;" d="M21.69,78.18H0.3
			c-0.17,0-0.3-0.13-0.3-0.3V39.63c0-6.2,5.03-11.47,10.99-11.51c0.02,0,0.04,0,0.07,0c2.73,0,5.37,1.13,7.45,3.17
			c2.24,2.22,3.54,5.25,3.56,8.33c0,0,0,0,0,0l-0.07,38.24C21.99,78.04,21.85,78.18,21.69,78.18z M0.6,77.58h20.79l0.07-37.94
			c-0.02-2.92-1.25-5.81-3.38-7.91c-1.96-1.94-4.45-3-7.02-3c-0.02,0-0.04,0-0.06,0C5.36,28.76,0.6,33.76,0.6,39.63V77.58z"/>
		<path style="clip-path:url(#SVGID_00000165956479864418997740000012616927947800280979_);fill:#6796CF;" d="M17.07,19.13
			c-0.7-2.31-2.84-3.99-5.36-3.99s-4.66,1.68-5.36,3.99H17.07z"/>
		<path style="clip-path:url(#SVGID_00000165956479864418997740000012616927947800280979_);fill:#6796CF;" d="M17.07,19.26H6.34
			c-0.04,0-0.08-0.02-0.1-0.05c-0.02-0.03-0.03-0.07-0.02-0.11c0.74-2.44,2.94-4.08,5.48-4.08c2.54,0,4.74,1.64,5.48,4.08
			c0.01,0.04,0,0.08-0.02,0.11C17.14,19.24,17.11,19.26,17.07,19.26z M6.51,19.01h10.39c-0.75-2.24-2.82-3.74-5.19-3.74
			C9.33,15.27,7.26,16.76,6.51,19.01z"/>
		<path style="clip-path:url(#SVGID_00000165956479864418997740000012616927947800280979_);fill:#2B2961;" d="M11.03,26.96
			c-3.5,0-6.35-2.85-6.35-6.35c0-3.5,2.85-6.35,6.35-6.35c3.5,0,6.35,2.85,6.35,6.35C17.38,24.11,14.53,26.96,11.03,26.96z
			 M11.03,14.86c-3.17,0-5.75,2.58-5.75,5.75s2.58,5.75,5.75,5.75s5.75-2.58,5.75-5.75S14.2,14.86,11.03,14.86z"/>
	</g>
	<path class="st8" d="M20.52,19.35H5.3c-0.13,0-0.23-0.1-0.23-0.23s0.1-0.23,0.23-0.23h15.23c0.13,0,0.23,0.1,0.23,0.23
		S20.65,19.35,20.52,19.35z"/>
	<g>
		<defs>
			<rect id="SVGID_00000040533668766898238510000014023925943352729271_" width="89.55" height="86.11"/>
		</defs>
		<clipPath id="SVGID_00000129893944501242047640000000765934355132122802_">
			<use xlink:href="#SVGID_00000040533668766898238510000014023925943352729271_"  style="overflow:visible;"/>
		</clipPath>
		<path style="clip-path:url(#SVGID_00000129893944501242047640000000765934355132122802_);fill:#2B2961;" d="M9.17,21.05
			c0,0.18-0.14,0.32-0.32,0.32s-0.32-0.14-0.32-0.32c0-0.18,0.14-0.32,0.32-0.32S9.17,20.88,9.17,21.05"/>
		<path style="clip-path:url(#SVGID_00000129893944501242047640000000765934355132122802_);fill:#2B2961;" d="M13.53,21.05
			c0,0.18-0.14,0.32-0.32,0.32s-0.32-0.14-0.32-0.32c0-0.18,0.14-0.32,0.32-0.32S13.53,20.88,13.53,21.05"/>
	</g>
	<path class="st8" d="M10.95,78.17c-0.11,0-0.2-0.09-0.2-0.2V61c0-0.11,0.09-0.2,0.2-0.2s0.2,0.09,0.2,0.2v16.97
		C11.15,78.08,11.06,78.17,10.95,78.17z"/>
	<g>
		<defs>
			<rect id="SVGID_00000124147041337798060260000004025147089278164101_" width="89.55" height="86.11"/>
		</defs>
		<clipPath id="SVGID_00000065032836148769233870000004516821632925071268_">
			<use xlink:href="#SVGID_00000124147041337798060260000004025147089278164101_"  style="overflow:visible;"/>
		</clipPath>
		<path style="clip-path:url(#SVGID_00000065032836148769233870000004516821632925071268_);fill:#2B2961;" d="M21.43,44.98h-4.95
			c-0.07,0-0.13-0.06-0.13-0.13v-7.61h-0.79c-0.07,0-0.13-0.06-0.13-0.13v-7.43h0.27v7.29h0.79c0.07,0,0.13,0.06,0.13,0.13v7.61
			h4.82V44.98z M5.35,44.98H0.09v-0.27h5.12v-7.61c0-0.07,0.06-0.13,0.13-0.13h0.79v-7.29h0.27v7.43c0,0.07-0.06,0.13-0.13,0.13
			H5.48v7.61C5.48,44.92,5.42,44.98,5.35,44.98z M13.08,37.24H8.75c-0.07,0-0.13-0.06-0.13-0.13v-8.36h0.27v8.22h4.06v-8.22h0.27
			v8.36C13.21,37.18,13.15,37.24,13.08,37.24z"/>
		<path style="clip-path:url(#SVGID_00000065032836148769233870000004516821632925071268_);fill:#FFFFFF;" d="M20.22,50.99
			l1.79-2.63c0.61,0.08,1.25-0.18,1.62-0.73C24,47.09,24,46.4,23.71,45.86l-0.59,0.87l-1.28-0.87l0.59-0.87
			c-0.61-0.07-1.25,0.18-1.62,0.73c-0.37,0.55-0.38,1.23-0.08,1.77l-1.79,2.63c-0.61-0.08-1.25,0.18-1.62,0.73
			c-0.37,0.55-0.38,1.23-0.08,1.77l0.59-0.86l1.28,0.87l-0.59,0.87c0.61,0.07,1.25-0.18,1.62-0.73
			C20.51,52.22,20.52,51.54,20.22,50.99"/>
		<path style="clip-path:url(#SVGID_00000065032836148769233870000004516821632925071268_);fill:#2B2961;" d="M18.73,53.64
			c-0.08,0-0.15,0-0.23-0.01c-0.05-0.01-0.09-0.03-0.11-0.08c-0.02-0.04-0.02-0.09,0.01-0.13l0.51-0.76l-1.06-0.72l-0.51,0.75
			c-0.03,0.04-0.07,0.05-0.12,0.06c-0.05,0-0.09-0.03-0.11-0.07c-0.33-0.61-0.3-1.34,0.09-1.91c0.37-0.55,1-0.85,1.67-0.79l1.7-2.5
			c-0.29-0.6-0.25-1.29,0.12-1.84c0.39-0.57,1.05-0.87,1.75-0.79c0.05,0.01,0.09,0.03,0.11,0.08c0.02,0.04,0.02,0.09-0.01,0.13
			l-0.51,0.76l1.06,0.72l0.51-0.75c0.03-0.04,0.07-0.06,0.12-0.06c0.05,0,0.09,0.03,0.11,0.07c0.33,0.61,0.3,1.34-0.09,1.91
			c-0.37,0.55-1.01,0.84-1.67,0.79l-1.7,2.5c0.29,0.6,0.25,1.29-0.12,1.84C19.91,53.35,19.34,53.64,18.73,53.64z M17.82,51.62
			c0.03,0,0.05,0.01,0.08,0.02l1.28,0.87c0.03,0.02,0.05,0.05,0.06,0.09c0.01,0.04,0,0.07-0.02,0.1l-0.45,0.67
			c0.51-0.01,0.98-0.26,1.26-0.68c0.33-0.48,0.36-1.11,0.07-1.63c-0.02-0.04-0.02-0.1,0.01-0.14l1.79-2.63
			c0.03-0.04,0.08-0.07,0.13-0.06c0.59,0.07,1.16-0.18,1.49-0.67c0.29-0.42,0.35-0.95,0.17-1.43l-0.45,0.67
			c-0.04,0.06-0.13,0.08-0.19,0.04l-1.28-0.87c-0.03-0.02-0.05-0.05-0.06-0.09c-0.01-0.04,0-0.07,0.02-0.1l0.45-0.67
			c-0.51,0.01-0.98,0.26-1.26,0.68c-0.33,0.49-0.36,1.11-0.07,1.63c0.02,0.04,0.02,0.1-0.01,0.14l-1.79,2.63
			c-0.03,0.04-0.08,0.07-0.13,0.06c-0.6-0.07-1.16,0.19-1.49,0.67c-0.29,0.42-0.35,0.95-0.17,1.43l0.45-0.67
			C17.74,51.64,17.78,51.62,17.82,51.62z"/>
	</g>
	<rect x="8.12" y="40.8" class="st2" width="5.28" height="5.28"/>
	<path class="st8" d="M13.4,46.22H8.12c-0.07,0-0.13-0.06-0.13-0.13V40.8c0-0.07,0.06-0.13,0.13-0.13h5.28
		c0.07,0,0.13,0.06,0.13,0.13v5.28C13.53,46.16,13.48,46.22,13.4,46.22z M8.25,45.95h5.02v-5.02H8.25V45.95z"/>
	<rect x="32.01" y="55.73" class="st2" width="14.4" height="19.41"/>
	<g>
		<defs>
			<rect id="SVGID_00000031927320166186758830000002465069183578936985_" width="89.55" height="86.11"/>
		</defs>
		<clipPath id="SVGID_00000016792599306221721460000006630607975697115802_">
			<use xlink:href="#SVGID_00000031927320166186758830000002465069183578936985_"  style="overflow:visible;"/>
		</clipPath>
		<path style="clip-path:url(#SVGID_00000016792599306221721460000006630607975697115802_);fill:#6796CF;" d="M38.77,27.85
			c2.25,0,4.35,0.42,6.08,1.62v-7.79l-0.63,0.88c-0.99,2.06-3.06,3.49-5.45,3.49c-2.39,0-4.08-1-5.08-3.06l-0.42-0.42v6.82
			C34.89,28.42,36.77,27.85,38.77,27.85"/>
		<path style="clip-path:url(#SVGID_00000016792599306221721460000006630607975697115802_);fill:#6796CF;" d="M44.86,29.6
			c-0.02,0-0.05-0.01-0.07-0.02c-1.56-1.08-3.53-1.6-6.01-1.6c-1.9,0-3.78,0.52-5.43,1.52c-0.04,0.02-0.09,0.02-0.13,0
			c-0.04-0.02-0.06-0.06-0.06-0.11v-6.82c0-0.05,0.03-0.1,0.08-0.12c0.05-0.02,0.1-0.01,0.14,0.03l0.42,0.42
			c0.01,0.01,0.02,0.02,0.02,0.03c0.97,2.01,2.59,2.99,4.97,2.99c2.28,0,4.32-1.31,5.34-3.42l0.64-0.9
			c0.03-0.04,0.09-0.06,0.14-0.05c0.05,0.02,0.09,0.06,0.09,0.12v7.8c0,0.05-0.03,0.09-0.07,0.11C44.9,29.6,44.88,29.6,44.86,29.6z
			 M38.77,27.73c2.44,0,4.39,0.5,5.96,1.52v-7.17l-0.41,0.57c-1.05,2.18-3.18,3.54-5.55,3.54c-2.44,0-4.18-1.05-5.18-3.11
			l-0.19-0.19v6.3C35.04,28.22,36.9,27.73,38.77,27.73z"/>
		<path style="clip-path:url(#SVGID_00000016792599306221721460000006630607975697115802_);fill:#2B2961;" d="M44.71,30.18
			c-0.06,0-0.12-0.02-0.17-0.05c-1.82-1.22-4.19-1.98-6.19-1.98c-2.07,0-3.95,0.58-5.73,1.78C32.53,30,32.41,30,32.31,29.95
			c-0.1-0.05-0.16-0.15-0.16-0.26V20.1h0.6v9.03c1.73-1.05,3.62-1.58,5.6-1.58c1.94,0,4.21,0.67,6.06,1.78v-9.35h0.6v9.9
			c0,0.11-0.06,0.21-0.16,0.26C44.81,30.17,44.76,30.18,44.71,30.18z"/>
	</g>
	<rect x="27.93" y="55.53" class="st8" width="21.56" height="0.4"/>
	<g>
		<defs>
			<rect id="SVGID_00000092437697266274583160000016578125889901059724_" width="89.55" height="86.11"/>
		</defs>
		<clipPath id="SVGID_00000104673167504824982730000014073026746681176704_">
			<use xlink:href="#SVGID_00000092437697266274583160000016578125889901059724_"  style="overflow:visible;"/>
		</clipPath>
		<path style="clip-path:url(#SVGID_00000104673167504824982730000014073026746681176704_);fill:#2B2961;" d="M44.88,86.11
			c-0.17,0-0.3-0.13-0.3-0.3V78c0-0.17,0.13-0.3,0.3-0.3s0.3,0.13,0.3,0.3v7.81C45.18,85.98,45.04,86.11,44.88,86.11z M32.29,86.11
			c-0.17,0-0.3-0.13-0.3-0.3V78c0-0.17,0.13-0.3,0.3-0.3s0.3,0.13,0.3,0.3v7.81C32.59,85.98,32.46,86.11,32.29,86.11z"/>
	</g>
	<path class="st8" d="M44.88,49.54c-0.19,0-0.35-0.16-0.35-0.35V38.7c0-0.19,0.16-0.35,0.35-0.35s0.35,0.16,0.35,0.35v10.49
		C45.23,49.38,45.07,49.54,44.88,49.54z M32.29,49.54c-0.19,0-0.35-0.16-0.35-0.35V38.7c0-0.19,0.16-0.35,0.35-0.35
		s0.35,0.16,0.35,0.35v10.49C32.63,49.38,32.48,49.54,32.29,49.54z"/>
	<g>
		<defs>
			<rect id="SVGID_00000171720210083691642810000006033460670911022218_" width="89.55" height="86.11"/>
		</defs>
		<clipPath id="SVGID_00000181798774300403936650000018069738073041501348_">
			<use xlink:href="#SVGID_00000171720210083691642810000006033460670911022218_"  style="overflow:visible;"/>
		</clipPath>
		<path style="clip-path:url(#SVGID_00000181798774300403936650000018069738073041501348_);fill:#2B2961;" d="M49.37,78.08H27.72
			c-0.17,0-0.3-0.13-0.3-0.3V39.07c0-6.27,5.09-11.6,11.12-11.65c0.02,0,0.05,0,0.07,0c2.76,0,5.44,1.14,7.54,3.21
			c2.27,2.24,3.58,5.31,3.6,8.43c0,0,0,0,0,0l-0.07,38.71C49.67,77.95,49.54,78.08,49.37,78.08z M28.02,77.48h21.06l0.07-38.41
			c-0.02-2.96-1.26-5.88-3.42-8.01c-1.99-1.96-4.51-3.04-7.11-3.04c-0.02,0-0.04,0-0.06,0c-5.71,0.04-10.53,5.1-10.53,11.05V77.48z"
			/>
		<path style="clip-path:url(#SVGID_00000181798774300403936650000018069738073041501348_);fill:#6796CF;" d="M44.69,18.33
			c-0.71-2.34-2.87-4.04-5.43-4.04c-2.56,0-4.72,1.7-5.43,4.04H44.69z"/>
		<path style="clip-path:url(#SVGID_00000181798774300403936650000018069738073041501348_);fill:#6796CF;" d="M44.69,18.45H33.83
			c-0.04,0-0.08-0.02-0.1-0.05c-0.02-0.03-0.03-0.07-0.02-0.11c0.75-2.47,2.98-4.13,5.55-4.13s4.8,1.66,5.55,4.13
			c0.01,0.04,0,0.08-0.02,0.11C44.77,18.43,44.73,18.45,44.69,18.45z M34,18.2h10.52c-0.76-2.27-2.85-3.79-5.26-3.79
			C36.86,14.41,34.77,15.93,34,18.2z"/>
		<path style="clip-path:url(#SVGID_00000181798774300403936650000018069738073041501348_);fill:#2B2961;" d="M38.58,26.25
			c-3.54,0-6.43-2.88-6.43-6.43s2.88-6.43,6.43-6.43s6.43,2.88,6.43,6.43S42.13,26.25,38.58,26.25z M38.58,13.99
			c-3.21,0-5.83,2.61-5.83,5.83c0,3.21,2.61,5.83,5.83,5.83s5.83-2.61,5.83-5.83C44.41,16.61,41.8,13.99,38.58,13.99z"/>
	</g>
	<rect x="32.8" y="18.12" class="st8" width="11.56" height="0.4"/>
	<g>
		<defs>
			<rect id="SVGID_00000052803761527254572040000002038963098628892345_" width="89.55" height="86.11"/>
		</defs>
		<clipPath id="SVGID_00000116928766894851803430000007402540128157669053_">
			<use xlink:href="#SVGID_00000052803761527254572040000002038963098628892345_"  style="overflow:visible;"/>
		</clipPath>
		<path style="clip-path:url(#SVGID_00000116928766894851803430000007402540128157669053_);fill:#2B2961;" d="M36.7,20.27
			c0,0.18-0.15,0.33-0.33,0.33c-0.18,0-0.33-0.15-0.33-0.33c0-0.18,0.15-0.32,0.33-0.32C36.56,19.95,36.7,20.09,36.7,20.27"/>
		<path style="clip-path:url(#SVGID_00000116928766894851803430000007402540128157669053_);fill:#2B2961;" d="M41.11,20.27
			c0,0.18-0.15,0.33-0.33,0.33c-0.18,0-0.33-0.15-0.33-0.33c0-0.18,0.15-0.32,0.33-0.32C40.97,19.95,41.11,20.09,41.11,20.27"/>
		<path style="clip-path:url(#SVGID_00000116928766894851803430000007402540128157669053_);fill:#FFFFFF;" d="M46.13,3.9
			c0-1.99-1.62-3.61-3.62-3.61c-0.69,0-1.33,0.21-1.89,0.54c-0.55-0.34-1.19-0.54-1.89-0.54s-1.33,0.21-1.89,0.54
			c-0.55-0.34-1.19-0.54-1.89-0.54c-2,0-3.61,1.62-3.61,3.61c0,1.24,0.62,2.33,1.57,2.98v10.69h11.32V7.05
			C45.36,6.44,46.13,5.27,46.13,3.9"/>
		<path style="clip-path:url(#SVGID_00000116928766894851803430000007402540128157669053_);fill:#2B2961;" d="M44.24,17.85H32.92
			c-0.16,0-0.29-0.13-0.29-0.29V7.03c-0.99-0.74-1.57-1.89-1.57-3.12c0-2.15,1.75-3.9,3.9-3.9c0.65,0,1.3,0.17,1.89,0.5
			c1.17-0.65,2.6-0.65,3.77,0C41.21,0.17,41.86,0,42.51,0c2.15,0,3.9,1.75,3.9,3.9c0,1.35-0.72,2.61-1.89,3.32v10.34
			C44.53,17.72,44.4,17.85,44.24,17.85z M33.21,17.28h10.74V7.05c0-0.1,0.06-0.2,0.15-0.25c1.07-0.59,1.74-1.7,1.74-2.9
			c0-1.83-1.49-3.33-3.33-3.33c-0.6,0-1.2,0.17-1.74,0.5c-0.09,0.06-0.21,0.06-0.3,0c-1.06-0.65-2.4-0.66-3.47,0
			c-0.09,0.06-0.21,0.06-0.3,0c-0.53-0.33-1.13-0.5-1.73-0.5c-1.83,0-3.33,1.49-3.33,3.33c0,1.09,0.54,2.12,1.45,2.74
			c0.08,0.05,0.12,0.14,0.12,0.24V17.28z"/>
	</g>
	<path class="st8" d="M46.43,75.36H30.74c-0.11,0-0.2-0.09-0.2-0.2V55.73h0.4v19.23h15.29V55.73h0.4v19.43
		C46.63,75.27,46.54,75.36,46.43,75.36z"/>
	<polygon class="st2" points="84.48,38.49 88.23,41.97 80.92,44.92 81.18,38.91 	"/>
	<path class="st2" d="M80.92,45.05c-0.03,0-0.05-0.01-0.07-0.02c-0.04-0.02-0.06-0.07-0.05-0.11l0.26-6.02
		c0-0.06,0.05-0.11,0.11-0.12l3.3-0.42c0.03-0.01,0.07,0.01,0.1,0.03l3.74,3.48c0.03,0.03,0.05,0.07,0.04,0.12s-0.04,0.08-0.08,0.09
		l-7.3,2.95C80.95,45.05,80.94,45.05,80.92,45.05z M81.3,39.02l-0.25,5.71L88,41.93l-3.55-3.31L81.3,39.02z"/>
	<g>
		<defs>
			<rect id="SVGID_00000021090497617088071850000002290626901619020182_" width="89.55" height="86.11"/>
		</defs>
		<clipPath id="SVGID_00000002372964881492463110000004316874174157048733_">
			<use xlink:href="#SVGID_00000021090497617088071850000002290626901619020182_"  style="overflow:visible;"/>
		</clipPath>
		<path style="clip-path:url(#SVGID_00000002372964881492463110000004316874174157048733_);fill:#6796CF;" d="M76.82,39.46
			c-0.44-9.51-8.99-12.02-8.99-12.02c-6-0.23-10.87,5.36-10.87,11.4v38.88H76.5L76.82,39.46z"/>
		<path style="clip-path:url(#SVGID_00000002372964881492463110000004316874174157048733_);fill:#6796CF;" d="M76.5,77.85H56.97
			c-0.07,0-0.13-0.06-0.13-0.13V38.84c0-3.22,1.34-6.35,3.68-8.61c2.06-1.98,4.65-3.02,7.31-2.92c0.12,0.03,8.67,2.65,9.11,12.14
			c0,0,0,0,0,0.01l-0.32,38.26C76.62,77.79,76.57,77.85,76.5,77.85z M57.1,77.59h19.28l0.32-38.13c-0.43-9.31-8.81-11.88-8.9-11.9
			c-2.55-0.11-5.09,0.92-7.1,2.85c-2.26,2.17-3.61,5.32-3.61,8.43V77.59z"/>
		<path style="clip-path:url(#SVGID_00000002372964881492463110000004316874174157048733_);fill:#6796CF;" d="M69.58,13.56
			c-0.01-1.74-1.44-3.29-3.14-3.27c-1.72,0.01-3.12,1.54-3.12,3.27v2.64h6.24L69.58,13.56z"/>
		<path style="clip-path:url(#SVGID_00000002372964881492463110000004316874174157048733_);fill:#6796CF;" d="M69.56,16.32h-6.24
			c-0.07,0-0.13-0.06-0.13-0.13v-2.64c0-1.83,1.49-3.39,3.24-3.4c0.01,0,0.01,0,0.02,0c0.85,0,1.66,0.36,2.28,1.02
			c0.61,0.65,0.96,1.51,0.97,2.38c0,0,0,0,0,0l-0.02,2.64C69.69,16.26,69.63,16.32,69.56,16.32z M63.45,16.07h5.99l0.02-2.51
			c0-0.8-0.33-1.61-0.9-2.21c-0.58-0.61-1.32-0.94-2.1-0.94c-0.01,0-0.01,0-0.02,0c-1.62,0.01-2.99,1.45-2.99,3.15V16.07z"/>
		<path style="clip-path:url(#SVGID_00000002372964881492463110000004316874174157048733_);fill:#2B2961;" d="M68.89,24.69h-6.28
			c-0.17,0-0.3-0.13-0.3-0.3V13.22c0-1.93,1.57-3.56,3.44-3.57c0.87,0.01,1.71,0.35,2.36,0.99c0.69,0.69,1.1,1.63,1.1,2.58
			c0,0,0,0,0,0l-0.02,11.17C69.19,24.56,69.06,24.69,68.89,24.69z M62.91,24.09h5.68l0.02-10.87c0-0.79-0.34-1.58-0.92-2.16
			c-0.54-0.53-1.23-0.83-1.94-0.82c-1.54,0.01-2.84,1.37-2.84,2.97V24.09z"/>
		<path style="clip-path:url(#SVGID_00000002372964881492463110000004316874174157048733_);fill:#FFFFFF;" d="M71.83,19.47
			c0,3.4-2.76,6.16-6.16,6.16c-3.4,0-6.16-2.76-6.16-6.16c0-3.4,2.76-6.16,6.16-6.16C69.07,13.31,71.83,16.07,71.83,19.47"/>
		<path style="clip-path:url(#SVGID_00000002372964881492463110000004316874174157048733_);fill:#2B2961;" d="M65.67,25.94
			c-3.56,0-6.46-2.9-6.46-6.46c0-3.56,2.9-6.46,6.46-6.46c3.56,0,6.46,2.9,6.46,6.46C72.13,23.04,69.23,25.94,65.67,25.94z
			 M65.67,13.61c-3.23,0-5.86,2.63-5.86,5.86c0,3.23,2.63,5.86,5.86,5.86c3.23,0,5.86-2.63,5.86-5.86
			C71.53,16.24,68.9,13.61,65.67,13.61z"/>
	</g>
	<rect x="55.1" y="57.17" class="st8" width="21.67" height="0.4"/>
	<g>
		<defs>
			<rect id="SVGID_00000041262442047944901040000006154064895367129742_" width="89.55" height="86.11"/>
		</defs>
		<clipPath id="SVGID_00000074436129666621651130000012823509848987132818_">
			<use xlink:href="#SVGID_00000041262442047944901040000006154064895367129742_"  style="overflow:visible;"/>
		</clipPath>
		<path style="clip-path:url(#SVGID_00000074436129666621651130000012823509848987132818_);fill:#2B2961;" d="M72.73,86.11
			c-0.17,0-0.3-0.13-0.3-0.3v-7.86c0-0.17,0.13-0.3,0.3-0.3s0.3,0.13,0.3,0.3v7.86C73.03,85.98,72.89,86.11,72.73,86.11z
			 M60.08,86.11c-0.17,0-0.3-0.13-0.3-0.3v-7.86c0-0.17,0.13-0.3,0.3-0.3s0.3,0.13,0.3,0.3v7.86
			C60.38,85.98,60.24,86.11,60.08,86.11z"/>
		<path style="clip-path:url(#SVGID_00000074436129666621651130000012823509848987132818_);fill:#2B2961;" d="M76.52,78.04H54.75
			c-0.17,0-0.3-0.13-0.3-0.3V38.83c0-6.3,5.12-11.67,11.18-11.71c0.02,0,0.05,0,0.07,0c2.78,0,5.47,1.15,7.58,3.23
			c2.28,2.25,3.6,5.34,3.62,8.48c0,0,0,0,0,0l-0.07,38.91C76.82,77.91,76.68,78.04,76.52,78.04z M55.05,77.44h21.17l0.07-38.61
			c-0.02-2.97-1.27-5.91-3.44-8.05c-2-1.97-4.54-3.06-7.15-3.06c-0.02,0-0.04,0-0.06,0c-5.74,0.04-10.59,5.13-10.59,11.11V77.44z"/>
		<path style="clip-path:url(#SVGID_00000074436129666621651130000012823509848987132818_);fill:#6796CF;" d="M71.81,17.98
			c-0.71-2.35-2.89-4.06-5.46-4.06c-2.57,0-4.75,1.71-5.46,4.06H71.81z"/>
		<path style="clip-path:url(#SVGID_00000074436129666621651130000012823509848987132818_);fill:#6796CF;" d="M71.81,18.1H60.89
			c-0.04,0-0.08-0.02-0.1-0.05c-0.02-0.03-0.03-0.07-0.02-0.11c0.75-2.48,2.99-4.15,5.58-4.15c2.58,0,4.83,1.67,5.58,4.15
			c0.01,0.04,0,0.08-0.02,0.11C71.89,18.08,71.85,18.1,71.81,18.1z M61.07,17.85h10.57c-0.77-2.29-2.87-3.81-5.29-3.81
			C63.94,14.04,61.83,15.56,61.07,17.85z"/>
	</g>
	<rect x="59.86" y="17.77" class="st8" width="11.62" height="0.4"/>
	<g>
		<defs>
			<rect id="SVGID_00000056410789346641616310000010893250421176146563_" width="89.55" height="86.11"/>
		</defs>
		<clipPath id="SVGID_00000134248487223735247680000003805044553169224091_">
			<use xlink:href="#SVGID_00000056410789346641616310000010893250421176146563_"  style="overflow:visible;"/>
		</clipPath>
		<path style="clip-path:url(#SVGID_00000134248487223735247680000003805044553169224091_);fill:#2B2961;" d="M63.78,19.93
			c0,0.18-0.15,0.33-0.33,0.33c-0.18,0-0.33-0.15-0.33-0.33c0-0.18,0.15-0.33,0.33-0.33C63.63,19.6,63.78,19.75,63.78,19.93"/>
		<path style="clip-path:url(#SVGID_00000134248487223735247680000003805044553169224091_);fill:#2B2961;" d="M68.21,19.93
			c0,0.18-0.15,0.33-0.33,0.33c-0.18,0-0.33-0.15-0.33-0.33c0-0.18,0.15-0.33,0.33-0.33C68.06,19.6,68.21,19.75,68.21,19.93"/>
	</g>
	<path class="st8" d="M65.79,78.03c-0.11,0-0.2-0.09-0.2-0.2V60.59c0-0.11,0.09-0.2,0.2-0.2s0.2,0.09,0.2,0.2v17.25
		C65.99,77.94,65.9,78.03,65.79,78.03z M65.79,57.29c-0.11,0-0.2-0.09-0.2-0.2V27.8c0-0.11,0.09-0.2,0.2-0.2s0.2,0.09,0.2,0.2v29.29
		C65.99,57.2,65.9,57.29,65.79,57.29z"/>
	<g>
		<defs>
			<rect id="SVGID_00000057857100485165238390000010398423582991703966_" width="89.55" height="86.11"/>
		</defs>
		<clipPath id="SVGID_00000104680361376407090300000013355714652378099358_">
			<use xlink:href="#SVGID_00000057857100485165238390000010398423582991703966_"  style="overflow:visible;"/>
		</clipPath>
		<path style="clip-path:url(#SVGID_00000104680361376407090300000013355714652378099358_);fill:#2B2961;" d="M65.67,25.94
			c-3.56,0-6.46-2.9-6.46-6.46c0-3.56,2.9-6.46,6.46-6.46c3.56,0,6.46,2.9,6.46,6.46C72.13,23.04,69.23,25.94,65.67,25.94z
			 M65.67,13.61c-3.23,0-5.86,2.63-5.86,5.86c0,3.23,2.63,5.86,5.86,5.86c3.23,0,5.86-2.63,5.86-5.86
			C71.53,16.24,68.9,13.61,65.67,13.61z"/>
	</g>
	<path class="st8" d="M70.96,39.17c-0.16,0-0.3-0.11-0.34-0.27c-0.04-0.19,0.08-0.37,0.27-0.41l10.32-2.24
		c0.19-0.04,0.37,0.08,0.41,0.27c0.04,0.19-0.08,0.37-0.27,0.41l-10.32,2.24C71.01,39.17,70.99,39.17,70.96,39.17z"/>
	<g>
		<defs>
			<rect id="SVGID_00000026135133074821468910000006054721422908018098_" width="89.55" height="86.11"/>
		</defs>
		<clipPath id="SVGID_00000038409721355137193980000011540889019872823181_">
			<use xlink:href="#SVGID_00000026135133074821468910000006054721422908018098_"  style="overflow:visible;"/>
		</clipPath>
		<path style="clip-path:url(#SVGID_00000038409721355137193980000011540889019872823181_);fill:#2B2961;" d="M81.18,45.05
			c-0.06,0-0.12-0.02-0.18-0.06c-0.08-0.06-0.13-0.16-0.12-0.26l0.52-7.87c0-0.01,0-0.03,0.01-0.04l-1.17-2.89L80.06,34
			c-0.15,0.06-0.33-0.01-0.39-0.17l-0.38-0.93c-0.03-0.07-0.03-0.16,0-0.23c0.03-0.07,0.09-0.13,0.16-0.16l2.52-1.02
			c0.15-0.06,0.33,0.01,0.39,0.17l0.38,0.93c0.03,0.07,0.03,0.16,0,0.23c-0.03,0.07-0.09,0.13-0.16,0.16l-0.18,0.07l1.24,3.07
			l5.81,5.15c0.08,0.07,0.11,0.17,0.1,0.28c-0.02,0.1-0.09,0.19-0.18,0.23l-8.07,3.25C81.26,45.04,81.22,45.05,81.18,45.05z
			 M81.99,37.03l-0.48,7.26l7.18-2.9l-5.5-4.88c-0.03-0.03-0.06-0.07-0.08-0.11L81.73,33c-0.03-0.07-0.03-0.16,0-0.23
			c0.03-0.07,0.09-0.13,0.16-0.16l0.18-0.07l-0.15-0.38l-1.96,0.79l0.15,0.38l0.18-0.07c0.15-0.06,0.33,0.01,0.39,0.17l1.34,3.32
			C82.06,36.84,82.05,36.95,81.99,37.03z"/>
	</g>
	<path class="st8" d="M59.68,49c-0.19,0-0.35-0.16-0.35-0.35V38.17c0-0.19,0.16-0.35,0.35-0.35s0.35,0.16,0.35,0.35v10.48
		C60.03,48.84,59.87,49,59.68,49z"/>
</g>
</svg>
