<?xml version="1.0" encoding="utf-8"?>
<!-- Generator: Adobe Illustrator 26.0.2, SVG Export Plug-In . SVG Version: 6.00 Build 0)  -->
<svg version="1.1" id="Ebene_1" xmlns="http://www.w3.org/2000/svg" xmlns:xlink="http://www.w3.org/1999/xlink" x="0px" y="0px"
	 viewBox="0 0 109.76 73.97" style="enable-background:new 0 0 109.76 73.97;" xml:space="preserve">
<style type="text/css">
	.st0{clip-path:url(#SVGID_00000007395352443044472980000002770508481552086662_);fill:#6796CF;}
	.st1{clip-path:url(#SVGID_00000007395352443044472980000002770508481552086662_);fill:#2B2961;}
	.st2{fill:#6796CF;}
	.st3{clip-path:url(#SVGID_00000134950814466558778590000003890648526539218580_);fill:#2B2961;}
	.st4{fill:#FFFFFF;}
	.st5{clip-path:url(#SVGID_00000083071823679877477690000015163344998250661813_);fill:#2B2961;}
	.st6{clip-path:url(#SVGID_00000158013210274328054530000007002351801193531798_);fill:#2B2961;}
	.st7{clip-path:url(#SVGID_00000005247636220166435590000001202093441044234131_);fill:#2B2961;}
	.st8{fill:#2B2961;}
	.st9{clip-path:url(#SVGID_00000027571471023059399450000014221929788047858565_);fill:#6796CF;}
	.st10{clip-path:url(#SVGID_00000027571471023059399450000014221929788047858565_);fill:#2B2961;}
	.st11{clip-path:url(#SVGID_00000181048649214257388000000006752361885470568331_);fill:#2B2961;}
	.st12{clip-path:url(#SVGID_00000166642546979641613990000008608451210631767191_);fill:#2B2961;}
	.st13{clip-path:url(#SVGID_00000166642546979641613990000008608451210631767191_);fill:#6796CF;}
	.st14{clip-path:url(#SVGID_00000050661904219105482030000012452776891673679744_);fill:#2B2961;}
	.st15{clip-path:url(#SVGID_00000098939974007676266070000005626132357335548327_);fill:#2B2961;}
	.st16{clip-path:url(#SVGID_00000026874415662680782950000000037771850055672245_);fill:#2B2961;}
	.st17{clip-path:url(#SVGID_00000026874415662680782950000000037771850055672245_);fill:#6796CF;}
	.st18{clip-path:url(#SVGID_00000083057245069795396740000007440912339676816259_);fill:#2B2961;}
	.st19{clip-path:url(#SVGID_00000141453263388505174120000000306238197458250904_);fill:#2B2961;}
	.st20{clip-path:url(#SVGID_00000096032744980556558070000014367253603153944491_);fill:#2B2961;}
	.st21{clip-path:url(#SVGID_00000158708354904830461530000014743299630974271879_);fill:#2B2961;}
	.st22{clip-path:url(#SVGID_00000058583493967439832750000004675335221038334097_);fill:#6796CF;}
	.st23{clip-path:url(#SVGID_00000058583493967439832750000004675335221038334097_);fill:#2B2961;}
	.st24{clip-path:url(#SVGID_00000142136866665201531560000009771559651893423508_);fill:#2B2961;}
	.st25{clip-path:url(#SVGID_00000042726262291540080730000016849986232427260348_);fill:#2B2961;}
	.st26{clip-path:url(#SVGID_00000042726262291540080730000016849986232427260348_);fill:#6796CF;}
	.st27{clip-path:url(#SVGID_00000071529428311081154380000018297036832489828287_);fill:#2B2961;}
	.st28{clip-path:url(#SVGID_00000058562149025547702940000010653834387249376181_);fill:#2B2961;}
	.st29{clip-path:url(#SVGID_00000180341971117677857760000002196843876613165756_);fill:#2B2961;}
	.st30{clip-path:url(#SVGID_00000180341971117677857760000002196843876613165756_);fill:#6796CF;}
	.st31{clip-path:url(#SVGID_00000183930518436606955970000013887904277046901424_);fill:#2B2961;}
	.st32{clip-path:url(#SVGID_00000071517418848924329310000017995011016964095395_);fill:#6796CF;}
	.st33{clip-path:url(#SVGID_00000071517418848924329310000017995011016964095395_);fill:#2B2961;}
	.st34{clip-path:url(#SVGID_00000170260079198193657280000003000304932442116224_);fill:#2B2961;}
	.st35{clip-path:url(#SVGID_00000170260079198193657280000003000304932442116224_);fill:#6796CF;}
	.st36{clip-path:url(#SVGID_00000021822865556954406250000010318305888373752752_);fill:#2B2961;}
	.st37{clip-path:url(#SVGID_00000009591419746339406670000010506508388292329863_);fill:#FFFFFF;}
	.st38{clip-path:url(#SVGID_00000009591419746339406670000010506508388292329863_);fill:#2B2961;}
	.st39{clip-path:url(#SVGID_00000062185754758548193570000004831859585397867436_);fill:#FFFFFF;}
	.st40{clip-path:url(#SVGID_00000062185754758548193570000004831859585397867436_);fill:#2B2961;}
	.st41{clip-path:url(#SVGID_00000021085158478149222790000008238564629566952580_);fill:#6796CF;}
	.st42{clip-path:url(#SVGID_00000021085158478149222790000008238564629566952580_);fill:#2B2961;}
	.st43{clip-path:url(#SVGID_00000178164095002740887630000000079530075279560891_);fill:#2B2961;}
	.st44{clip-path:url(#SVGID_00000177447175850819040050000015715611313843105706_);fill:#6796CF;}
	.st45{clip-path:url(#SVGID_00000177447175850819040050000015715611313843105706_);fill:#2B2961;}
	.st46{clip-path:url(#SVGID_00000183930004595623894700000001058825890045230258_);fill:#2B2961;}
	.st47{clip-path:url(#SVGID_00000035532341581580960600000000959324000436761484_);fill:#2B2961;}
	.st48{clip-path:url(#SVGID_00000035532341581580960600000000959324000436761484_);fill:#6796CF;}
	.st49{clip-path:url(#SVGID_00000017514860541553917940000015300082595120525993_);fill:#2B2961;}
	.st50{clip-path:url(#SVGID_00000043431866461897988950000003912532491330327440_);fill:#2B2961;}
	.st51{clip-path:url(#SVGID_00000065039205967660706790000002035495258441218728_);fill:#2B2961;}
	.st52{clip-path:url(#SVGID_00000065039205967660706790000002035495258441218728_);fill:#6796CF;}
	.st53{clip-path:url(#SVGID_00000036243485912379131640000002913106109096786576_);fill:#2B2961;}
	.st54{clip-path:url(#SVGID_00000042726943134710820060000001649498786768123269_);fill:#2B2961;}
	.st55{clip-path:url(#SVGID_00000019651909038959813270000009826296657272931745_);fill:#2B2961;}
	.st56{clip-path:url(#SVGID_00000172422000723574575440000002466267825467615924_);fill:#2B2961;}
	.st57{clip-path:url(#SVGID_00000082360325325783385660000002050324659798206134_);fill:#6796CF;}
	.st58{clip-path:url(#SVGID_00000110463023492160152570000006268889302926521495_);fill:#2B2961;}
	.st59{clip-path:url(#SVGID_00000102542555544772082500000008845518082851988105_);fill:#2B2961;}
	.st60{clip-path:url(#SVGID_00000044862499749892087520000008552176585064101282_);fill:#6796CF;}
	.st61{clip-path:url(#SVGID_00000036972915661878479370000001630981915998312376_);fill:#2B2961;}
	.st62{clip-path:url(#SVGID_00000064349892040610440050000010447902714505818518_);fill:#2B2961;}
	.st63{clip-path:url(#SVGID_00000064349892040610440050000010447902714505818518_);fill:#6796CF;}
	.st64{clip-path:url(#SVGID_00000066481132750004130970000002132108991780478634_);fill:#2B2961;}
	.st65{clip-path:url(#SVGID_00000091007270890356055380000017863681500788849295_);fill:#6796CF;}
	.st66{clip-path:url(#SVGID_00000091007270890356055380000017863681500788849295_);fill:#2B2961;}
	.st67{clip-path:url(#SVGID_00000008840741990014399000000010893005675732214946_);fill:#2B2961;}
	.st68{clip-path:url(#SVGID_00000018916634429173116950000017971599254166126992_);fill:#2B2961;}
	.st69{clip-path:url(#SVGID_00000018916634429173116950000017971599254166126992_);fill:#6796CF;}
	.st70{clip-path:url(#SVGID_00000087393316991857463590000010457572442202594182_);fill:#2B2961;}
	.st71{clip-path:url(#SVGID_00000042696959634125163430000002986216522403587971_);fill:#2B2961;}
	.st72{clip-path:url(#SVGID_00000100373467224922213190000003854565477940354491_);fill:#2B2961;}
	.st73{clip-path:url(#SVGID_00000100373467224922213190000003854565477940354491_);fill:#6796CF;}
	.st74{clip-path:url(#SVGID_00000106115569346964787090000015799946962003032483_);fill:#2B2961;}
	.st75{clip-path:url(#SVGID_00000148650857574025510860000008213462218518744486_);fill:#2B2961;}
	.st76{clip-path:url(#SVGID_00000150073919233353564450000002552649803558333356_);fill:#2B2961;}
	.st77{clip-path:url(#SVGID_00000101811480250318836870000006076606615797162667_);fill:#2B2961;}
	.st78{clip-path:url(#SVGID_00000088837141371367738150000008638388597759926165_);fill:#6796CF;}
	.st79{clip-path:url(#SVGID_00000088837141371367738150000008638388597759926165_);fill:#2B2961;}
	.st80{clip-path:url(#SVGID_00000122709675150681383290000003399139182615394702_);fill:#FFFFFF;}
	.st81{clip-path:url(#SVGID_00000122709675150681383290000003399139182615394702_);fill:#2B2961;}
	.st82{clip-path:url(#SVGID_00000099624249815891392750000016645499363076737940_);fill:#2B2961;}
	.st83{clip-path:url(#SVGID_00000132047552382538457660000015160154636411245211_);fill:#2B2961;}
	.st84{clip-path:url(#SVGID_00000132047552382538457660000015160154636411245211_);fill:#6796CF;}
	.st85{clip-path:url(#SVGID_00000125599816206166140500000015503910855804837285_);fill:#2B2961;}
	.st86{clip-path:url(#SVGID_00000106853130761828191750000010281027822578468774_);fill:#2B2961;}
	.st87{clip-path:url(#SVGID_00000106853130761828191750000010281027822578468774_);fill:#FFFFFF;}
	.st88{clip-path:url(#SVGID_00000170261066819128724450000002494795920630207874_);fill:#6796CF;}
	.st89{clip-path:url(#SVGID_00000170261066819128724450000002494795920630207874_);fill:#2B2961;}
	.st90{clip-path:url(#SVGID_00000035506133922570176290000011196341459794683821_);fill:#2B2961;}
	.st91{clip-path:url(#SVGID_00000066493496415010151610000017783822219836490113_);fill:#2B2961;}
	.st92{clip-path:url(#SVGID_00000066493496415010151610000017783822219836490113_);fill:#6796CF;}
	.st93{clip-path:url(#SVGID_00000058580195233795892090000000498337357476975493_);fill:#2B2961;}
	.st94{clip-path:url(#SVGID_00000058580195233795892090000000498337357476975493_);fill:#FFFFFF;}
	.st95{clip-path:url(#SVGID_00000030482863693283251670000016776989163609621695_);fill:#6796CF;}
	.st96{clip-path:url(#SVGID_00000030482863693283251670000016776989163609621695_);fill:#2B2961;}
	.st97{clip-path:url(#SVGID_00000030482863693283251670000016776989163609621695_);fill:#FFFFFF;}
	.st98{clip-path:url(#SVGID_00000055704273781080657380000001437678194152015251_);fill:#2B2961;}
	.st99{clip-path:url(#SVGID_00000055704273781080657380000001437678194152015251_);fill:#6796CF;}
	.st100{clip-path:url(#SVGID_00000106132668921061379460000013626148185361421207_);fill:#2B2961;}
	.st101{clip-path:url(#SVGID_00000079485685053259586460000010176667039170400175_);fill:#2B2961;}
	.st102{clip-path:url(#SVGID_00000029005685197689935990000005505597066971347350_);fill:#2B2961;}
	.st103{clip-path:url(#SVGID_00000179640408806532444130000013208435809268694412_);fill:#2B2961;}
	.st104{clip-path:url(#SVGID_00000131338583912936471100000006563264676971661206_);fill:#2B2961;}
	.st105{clip-path:url(#SVGID_00000166673216948271062530000006520990519346637457_);fill:#FFFFFF;}
	.st106{clip-path:url(#SVGID_00000166673216948271062530000006520990519346637457_);fill:#2B2961;}
	.st107{clip-path:url(#SVGID_00000166673216948271062530000006520990519346637457_);fill:#6796CF;}
	.st108{clip-path:url(#SVGID_00000070112812809549692300000002627072290306341548_);fill:#FFFFFF;}
	.st109{clip-path:url(#SVGID_00000001632424597397924170000011542545054437627029_);fill:#2B2961;}
	.st110{clip-path:url(#SVGID_00000001632424597397924170000011542545054437627029_);fill:#FFFFFF;}
	.st111{clip-path:url(#SVGID_00000118394988185935948720000010665804651938835075_);fill:#2B2961;}
	.st112{clip-path:url(#SVGID_00000119110710259588438980000008974953502775755912_);fill:#2B2961;}
	.st113{clip-path:url(#SVGID_00000119110710259588438980000008974953502775755912_);fill:#6796CF;}
	.st114{clip-path:url(#SVGID_00000131343176084771972680000014015922590144029835_);fill:#2B2961;}
	.st115{clip-path:url(#SVGID_00000059296269059530428390000011335172713014224830_);fill:#2B2961;}
	.st116{clip-path:url(#SVGID_00000059296269059530428390000011335172713014224830_);fill:#FFFFFF;}
	.st117{clip-path:url(#SVGID_00000025420040131740638800000001419130905605720246_);fill:#6796CF;}
	.st118{clip-path:url(#SVGID_00000105419045033538430800000012902097457719015828_);fill:#2B2961;}
	.st119{clip-path:url(#SVGID_00000010288469291462563710000014281535414722003843_);fill:#2B2961;}
	.st120{clip-path:url(#SVGID_00000152960907770841330260000017968678761142352273_);fill:#FFFFFF;}
	.st121{clip-path:url(#SVGID_00000152960907770841330260000017968678761142352273_);fill:#2B2961;}
	.st122{clip-path:url(#SVGID_00000183208433112803586810000014704175293530558621_);fill:#FFFFFF;}
	.st123{clip-path:url(#SVGID_00000183208433112803586810000014704175293530558621_);fill:#2B2961;}
	.st124{clip-path:url(#SVGID_00000137103864574138892540000012871154839731224721_);fill:#6796CF;}
	.st125{clip-path:url(#SVGID_00000137103864574138892540000012871154839731224721_);fill:#2B2961;}
	.st126{clip-path:url(#SVGID_00000164479985391375149870000010526368216119083153_);fill:#2B2961;}
	.st127{clip-path:url(#SVGID_00000164479985391375149870000010526368216119083153_);fill:#6796CF;}
	.st128{clip-path:url(#SVGID_00000016793257712697413210000008357808715218590134_);fill:#6796CF;}
	.st129{clip-path:url(#SVGID_00000071533276075847768680000010487370282031759807_);fill:#2B2961;}
	.st130{clip-path:url(#SVGID_00000114787825695717355300000007327132146026759048_);fill:#2B2961;}
	.st131{clip-path:url(#SVGID_00000016765268764701302940000016128263851903853219_);fill:#2B2961;}
	.st132{clip-path:url(#SVGID_00000115473890222132075790000004154196295220366748_);fill:#2B2961;}
	.st133{clip-path:url(#SVGID_00000038402943262746319140000018424026044646911886_);fill:#2B2961;}
	.st134{clip-path:url(#SVGID_00000038402943262746319140000018424026044646911886_);fill:#6796CF;}
	.st135{clip-path:url(#SVGID_00000093862964876711842470000002211243303974240184_);fill:#6796CF;}
	.st136{clip-path:url(#SVGID_00000010311397085424592540000012264124126454526081_);fill:#2B2961;}
	.st137{clip-path:url(#SVGID_00000046316820538527800840000013758457170750795194_);fill:#2B2961;}
	.st138{clip-path:url(#SVGID_00000043419920095708742800000011382140153438467501_);fill:#2B2961;}
	.st139{clip-path:url(#SVGID_00000088828560427310032420000008252891854973515919_);fill:#2B2961;}
	.st140{clip-path:url(#SVGID_00000040534160630889356330000000487805530938542005_);fill:#6796CF;}
	.st141{clip-path:url(#SVGID_00000040534160630889356330000000487805530938542005_);fill:#2B2961;}
	.st142{clip-path:url(#SVGID_00000024000143101531003410000014312673475652280497_);fill:#2B2961;}
	.st143{clip-path:url(#SVGID_00000064343934971212969550000012796297675383658375_);fill:#2B2961;}
	.st144{clip-path:url(#SVGID_00000098913937204179221000000012786830357457155227_);fill:#2B2961;}
	.st145{clip-path:url(#SVGID_00000098913937204179221000000012786830357457155227_);fill:#6796CF;}
	.st146{clip-path:url(#SVGID_00000023242775063632514470000009475380261180791690_);}
	.st147{clip-path:url(#SVGID_00000023242775063632514470000009475380261180791690_);fill:#FFFFFF;}
	.st148{clip-path:url(#SVGID_00000023242775063632514470000009475380261180791690_);fill:#2B2961;}
	.st149{clip-path:url(#SVGID_00000155839769449725586460000005209226993992793011_);fill:#2B2961;}
	.st150{clip-path:url(#SVGID_00000003807822333855049950000003805185498133433485_);fill:#2B2961;}
	.st151{clip-path:url(#SVGID_00000003807822333855049950000003805185498133433485_);fill:#FFFFFF;}
	.st152{clip-path:url(#SVGID_00000003807822333855049950000003805185498133433485_);fill:#6796CF;}
	.st153{clip-path:url(#SVGID_00000060722301603766056290000001788042620605232063_);fill:#2B2961;}
	.st154{clip-path:url(#SVGID_00000108301255030350876000000007287169375476008085_);fill:#2B2961;}
	.st155{clip-path:url(#SVGID_00000052080449272684878630000010317970774152499605_);fill:#6796CF;}
	.st156{clip-path:url(#SVGID_00000052080449272684878630000010317970774152499605_);}
	.st157{clip-path:url(#SVGID_00000119094405564825377590000004016392685720691123_);fill:#2B2961;}
	.st158{clip-path:url(#SVGID_00000052080449272684878630000010317970774152499605_);fill:#FFFFFF;}
	.st159{clip-path:url(#SVGID_00000052080449272684878630000010317970774152499605_);fill:#2B2961;}
	.st160{opacity:0.52;clip-path:url(#SVGID_00000157997216459664918690000012773519376738260903_);}
	.st161{clip-path:url(#SVGID_00000147927094637937988960000007631397533212922774_);fill:#6796CF;}
	.st162{clip-path:url(#SVGID_00000036249059101625418990000002352608280049776306_);fill:#2B2961;}
	.st163{clip-path:url(#SVGID_00000096754183805530076090000006677655494906844079_);fill:#2B2961;}
	.st164{clip-path:url(#SVGID_00000055672897782020285200000001292229579719212185_);fill:#6796CF;}
	.st165{clip-path:url(#SVGID_00000055672897782020285200000001292229579719212185_);fill:#2B2961;}
	.st166{clip-path:url(#SVGID_00000161613936897510604300000018114295951540722078_);fill:#2B2961;}
	.st167{clip-path:url(#SVGID_00000115474175184384137450000005625002466124049301_);fill:#2B2961;}
	.st168{clip-path:url(#SVGID_00000033332950424195511010000010513015955711539633_);fill:#2B2961;}
	.st169{clip-path:url(#SVGID_00000152957946104649136950000005413374146900358075_);fill:#FFFFFF;}
	.st170{clip-path:url(#SVGID_00000152957946104649136950000005413374146900358075_);fill:#2B2961;}
	.st171{clip-path:url(#SVGID_00000152957946104649136950000005413374146900358075_);fill:#6796CF;}
	.st172{clip-path:url(#SVGID_00000127731410923540971480000017889098151947839873_);fill:#6796CF;}
	.st173{clip-path:url(#SVGID_00000139263453776736388030000007912849237724534155_);fill:#2B2961;}
	.st174{clip-path:url(#SVGID_00000023265086867080095710000000370988567000971431_);fill:#2B2961;}
	.st175{clip-path:url(#SVGID_00000023265086867080095710000000370988567000971431_);fill:#FFFFFF;}
	.st176{clip-path:url(#SVGID_00000016067674460371197350000017099743720586461079_);fill:#6796CF;}
	.st177{clip-path:url(#SVGID_00000016067674460371197350000017099743720586461079_);fill:#2B2961;}
	.st178{clip-path:url(#SVGID_00000143601907797167239230000011966019757860913038_);fill:#6796CF;}
	.st179{clip-path:url(#SVGID_00000143601907797167239230000011966019757860913038_);fill:#2B2961;}
	.st180{clip-path:url(#SVGID_00000120539940394949023670000001623272680475530128_);fill:#2B2961;}
	.st181{clip-path:url(#SVGID_00000008849857304037716640000012910055139458381750_);fill:#2B2961;}
	.st182{clip-path:url(#SVGID_00000147201627517235337130000002109887540531108532_);fill:#FFFFFF;}
	.st183{clip-path:url(#SVGID_00000176761802846592027080000017503646692655436704_);fill:#2B2961;}
	.st184{clip-path:url(#SVGID_00000016776046355437374540000013257034171969402290_);fill:#2B2961;}
	.st185{clip-path:url(#SVGID_00000016776046355437374540000013257034171969402290_);fill:#6796CF;}
	.st186{clip-path:url(#SVGID_00000106836208774162490090000009518602322823615111_);fill:#2B2961;}
	.st187{clip-path:url(#SVGID_00000023969164552176809600000003377789939175006619_);fill:#2B2961;}
	.st188{clip-path:url(#SVGID_00000091008768047332489820000015682908337006067091_);fill:#6796CF;}
	.st189{clip-path:url(#SVGID_00000035507539819812794320000012443882892697056673_);fill:#2B2961;}
	.st190{clip-path:url(#SVGID_00000058586240318118992900000018390225453800809344_);fill:#6796CF;}
	.st191{clip-path:url(#SVGID_00000084524134569335917100000009994869646318407587_);fill:#2B2961;}
	.st192{clip-path:url(#SVGID_00000121274061091402640300000015102477884903283132_);fill:#6796CF;}
	.st193{clip-path:url(#SVGID_00000011711322521665124010000006425709310473091225_);fill:#2B2961;}
	.st194{clip-path:url(#SVGID_00000119081113257371901580000018408420474706757051_);}
	.st195{clip-path:url(#SVGID_00000119081113257371901580000018408420474706757051_);fill:#2B2961;}
	.st196{clip-path:url(#SVGID_00000119081113257371901580000018408420474706757051_);fill:#FFFFFF;}
	.st197{clip-path:url(#SVGID_00000153669793177556501860000008092655400335411359_);fill:#2B2961;}
	.st198{clip-path:url(#SVGID_00000043416300758760200090000002998766306058085006_);fill:#2B2961;}
	.st199{clip-path:url(#SVGID_00000085948244056310017120000012015443542823093396_);fill:#2B2961;}
	.st200{clip-path:url(#SVGID_00000179625435032230739900000001835494032975940251_);fill:#2B2961;}
	.st201{clip-path:url(#SVGID_00000140004250587096730980000012849470313659556532_);fill:#2B2961;}
	.st202{clip-path:url(#SVGID_00000147178648184912008570000009460931173717330359_);fill:#2B2961;}
	.st203{clip-path:url(#SVGID_00000018222198391641733140000012119443535179193496_);fill:#2B2961;}
	.st204{clip-path:url(#SVGID_00000173129360533506785640000013594276003372067502_);fill:#2B2961;}
	.st205{clip-path:url(#SVGID_00000146477257026768937490000013470432807825317789_);fill:#2B2961;}
	.st206{clip-path:url(#SVGID_00000066515688355739969070000004508196846870139809_);fill:#FFFFFF;}
	.st207{clip-path:url(#SVGID_00000066515688355739969070000004508196846870139809_);fill:#2B2961;}
	.st208{clip-path:url(#SVGID_00000171703885449459866250000010562120530383943816_);fill:#6796CF;}
	.st209{clip-path:url(#SVGID_00000171703885449459866250000010562120530383943816_);fill:#2B2961;}
	.st210{clip-path:url(#SVGID_00000142880632232901681140000015841127230913973929_);fill:#2B2961;}
	.st211{clip-path:url(#SVGID_00000142880632232901681140000015841127230913973929_);fill:#FFFFFF;}
	.st212{clip-path:url(#SVGID_00000015322123185202764100000006371505308736496522_);fill:#6796CF;}
	.st213{clip-path:url(#SVGID_00000015322123185202764100000006371505308736496522_);fill:#2B2961;}
	.st214{clip-path:url(#SVGID_00000057111951921315152530000015979606205266536581_);fill:#6796CF;}
	.st215{clip-path:url(#SVGID_00000057111951921315152530000015979606205266536581_);fill:#2B2961;}
	.st216{clip-path:url(#SVGID_00000062169021744456680450000000165797161401331344_);}
	.st217{clip-path:url(#SVGID_00000033344126212624810080000012364695286091056001_);}
	.st218{clip-path:url(#SVGID_00000057140176872158045030000004189141035044951978_);}
	.st219{clip-path:url(#SVGID_00000054247816272632203650000014281308595889525129_);}
	.st220{clip-path:url(#SVGID_00000079445081977089892390000012794462816096364189_);}
	.st221{clip-path:url(#SVGID_00000080910162490566054080000004205567876160490394_);}
	.st222{clip-path:url(#SVGID_00000137814584891462350520000002956357597741271957_);}
	.st223{clip-path:url(#SVGID_00000118381587345119847570000005266908663768082080_);}
	.st224{clip-path:url(#SVGID_00000116955842048137820520000017656280568222258870_);}
	.st225{clip-path:url(#SVGID_00000136374573322527070120000003661363967789174170_);}
	.st226{clip-path:url(#SVGID_00000147200341337141929400000006886622349586351018_);}
	.st227{clip-path:url(#SVGID_00000125568137780526029030000001362350756892112817_);}
	.st228{clip-path:url(#SVGID_00000049923003676035661850000001096985433804675979_);}
	.st229{clip-path:url(#SVGID_00000093890454345028917630000004813461766259287481_);}
	.st230{clip-path:url(#SVGID_00000114794204868334707110000014010082047111374256_);fill:#2B2961;}
	.st231{clip-path:url(#SVGID_00000114794204868334707110000014010082047111374256_);fill:#6796CF;}
	.st232{fill:#A2B9E1;}
	.st233{clip-path:url(#SVGID_00000161594506159378130290000002698270734834059967_);}
	.st234{clip-path:url(#SVGID_00000003104730214279072850000011262060382789933967_);}
</style>
<g>
	<rect x="25.35" y="9.96" class="st2" width="84.11" height="24.46"/>
	<g>
		<defs>
			<rect id="SVGID_00000081644262308856994860000001920925512278005648_" width="109.76" height="73.97"/>
		</defs>
		<clipPath id="SVGID_00000058583306241973737400000001840040315725630868_">
			<use xlink:href="#SVGID_00000081644262308856994860000001920925512278005648_"  style="overflow:visible;"/>
		</clipPath>
		<path style="clip-path:url(#SVGID_00000058583306241973737400000001840040315725630868_);fill:#2B2961;" d="M109.76,34.72H25.05
			V9.66h84.71V34.72z M25.65,34.12h83.51V10.26H25.65V34.12z"/>
	</g>
	<rect x="0.3" y="31.66" class="st2" width="60.25" height="24.46"/>
	<g>
		<defs>
			<rect id="SVGID_00000166671413848308628680000000598318580618573469_" width="109.76" height="73.97"/>
		</defs>
		<clipPath id="SVGID_00000018956307217725284930000017921409658546003354_">
			<use xlink:href="#SVGID_00000166671413848308628680000000598318580618573469_"  style="overflow:visible;"/>
		</clipPath>
		<path style="clip-path:url(#SVGID_00000018956307217725284930000017921409658546003354_);fill:#2B2961;" d="M60.85,56.42H0V31.36
			h60.85V56.42z M0.6,55.82h59.65V31.96H0.6V55.82z"/>
	</g>
	<g>
		<path class="st8" d="M35.85,23.49l0.13,0.89l0.19-0.8l1.34-4.71h0.75l1.3,4.71l0.19,0.82l0.14-0.91l1.05-4.62h0.9l-1.64,6.75
			h-0.81l-1.39-4.92l-0.11-0.51l-0.11,0.51l-1.44,4.92h-0.81l-1.63-6.75h0.89L35.85,23.49z"/>
		<path class="st8" d="M44.49,25.71c-0.68,0-1.23-0.22-1.66-0.67c-0.43-0.45-0.64-1.04-0.64-1.79v-0.16c0-0.5,0.09-0.94,0.29-1.33
			c0.19-0.39,0.46-0.7,0.8-0.92c0.34-0.22,0.71-0.33,1.11-0.33c0.65,0,1.16,0.21,1.52,0.64c0.36,0.43,0.54,1.04,0.54,1.85v0.36h-3.4
			c0.01,0.5,0.16,0.89,0.43,1.2c0.28,0.3,0.63,0.46,1.05,0.46c0.3,0,0.56-0.06,0.77-0.19c0.21-0.12,0.39-0.29,0.55-0.49l0.52,0.41
			C45.96,25.39,45.33,25.71,44.49,25.71z M44.39,21.22c-0.35,0-0.64,0.13-0.87,0.38c-0.24,0.25-0.38,0.6-0.44,1.06h2.51v-0.06
			c-0.03-0.44-0.14-0.77-0.35-1.01C45.03,21.33,44.74,21.22,44.39,21.22z"/>
		<path class="st8" d="M49.96,21.37c-0.13-0.02-0.27-0.03-0.42-0.03c-0.56,0-0.94,0.24-1.15,0.72v3.56h-0.86V20.6h0.83l0.01,0.58
			c0.28-0.45,0.68-0.67,1.2-0.67c0.17,0,0.29,0.02,0.38,0.06V21.37z"/>
		<path class="st8" d="M52.24,23.3l-0.54,0.56v1.76h-0.86V18.5h0.86v4.31l0.46-0.55l1.56-1.65h1.04l-1.95,2.1l2.18,2.92h-1.01
			L52.24,23.3z"/>
		<path class="st8" d="M58.17,21.37c-0.13-0.02-0.27-0.03-0.42-0.03c-0.56,0-0.94,0.24-1.15,0.72v3.56h-0.86V20.6h0.83l0.01,0.58
			c0.28-0.45,0.68-0.67,1.2-0.67c0.17,0,0.29,0.02,0.38,0.06V21.37z"/>
		<path class="st8" d="M60.86,25.71c-0.68,0-1.23-0.22-1.66-0.67c-0.43-0.45-0.64-1.04-0.64-1.79v-0.16c0-0.5,0.09-0.94,0.29-1.33
			c0.19-0.39,0.46-0.7,0.8-0.92c0.34-0.22,0.71-0.33,1.11-0.33c0.65,0,1.16,0.21,1.52,0.64c0.36,0.43,0.54,1.04,0.54,1.85v0.36h-3.4
			c0.01,0.5,0.16,0.89,0.43,1.2c0.28,0.3,0.63,0.46,1.06,0.46c0.3,0,0.56-0.06,0.77-0.19c0.21-0.12,0.39-0.29,0.55-0.49l0.52,0.41
			C62.33,25.39,61.7,25.71,60.86,25.71z M60.75,21.22c-0.35,0-0.64,0.13-0.87,0.38c-0.23,0.25-0.38,0.6-0.44,1.06h2.51v-0.06
			c-0.02-0.44-0.14-0.77-0.35-1.01C61.39,21.33,61.11,21.22,60.75,21.22z"/>
		<path class="st8" d="M67,25.62c-0.05-0.1-0.09-0.28-0.12-0.53c-0.4,0.42-0.88,0.62-1.43,0.62c-0.49,0-0.9-0.14-1.22-0.42
			c-0.32-0.28-0.47-0.63-0.47-1.06c0-0.52,0.2-0.93,0.6-1.22s0.96-0.43,1.68-0.43h0.83v-0.39c0-0.3-0.09-0.54-0.27-0.72
			c-0.18-0.18-0.44-0.27-0.79-0.27c-0.31,0-0.56,0.08-0.77,0.23c-0.21,0.15-0.31,0.34-0.31,0.56h-0.86c0-0.25,0.09-0.49,0.27-0.73
			s0.42-0.42,0.72-0.55c0.3-0.14,0.64-0.2,1-0.2c0.58,0,1.03,0.14,1.36,0.43c0.33,0.29,0.5,0.69,0.51,1.19v2.31
			c0,0.46,0.06,0.83,0.18,1.1v0.07H67z M65.57,24.97c0.27,0,0.52-0.07,0.76-0.21c0.24-0.14,0.42-0.32,0.52-0.54v-1.03h-0.67
			c-1.05,0-1.58,0.31-1.58,0.92c0,0.27,0.09,0.48,0.27,0.63C65.06,24.89,65.29,24.97,65.57,24.97z"/>
		<path class="st8" d="M70.09,25.62h-0.86V18.5h0.86V25.62z"/>
		<path class="st8" d="M74.48,24.29c0-0.23-0.09-0.41-0.26-0.54c-0.17-0.13-0.48-0.24-0.91-0.33s-0.78-0.2-1.03-0.33
			s-0.44-0.29-0.57-0.46c-0.12-0.18-0.18-0.39-0.18-0.64c0-0.41,0.17-0.76,0.52-1.04c0.35-0.28,0.79-0.43,1.33-0.43
			c0.57,0,1.03,0.15,1.38,0.44c0.35,0.29,0.53,0.67,0.53,1.13h-0.86c0-0.24-0.1-0.44-0.3-0.61c-0.2-0.17-0.45-0.25-0.75-0.25
			c-0.31,0-0.56,0.07-0.73,0.2c-0.18,0.14-0.26,0.31-0.26,0.53c0,0.21,0.08,0.36,0.25,0.47c0.16,0.11,0.46,0.21,0.89,0.3
			c0.43,0.1,0.78,0.21,1.04,0.34c0.27,0.13,0.46,0.29,0.59,0.48c0.13,0.19,0.19,0.42,0.19,0.68c0,0.45-0.18,0.81-0.54,1.08
			c-0.36,0.27-0.82,0.41-1.4,0.41c-0.4,0-0.76-0.07-1.07-0.21c-0.31-0.14-0.55-0.34-0.73-0.6s-0.26-0.53-0.26-0.83h0.86
			c0.02,0.29,0.13,0.52,0.35,0.68c0.21,0.17,0.5,0.25,0.85,0.25c0.33,0,0.58-0.07,0.78-0.2C74.39,24.68,74.48,24.51,74.48,24.29z"/>
		<path class="st8" d="M78.57,25.01c0.31,0,0.57-0.09,0.8-0.28s0.36-0.42,0.38-0.7h0.81c-0.02,0.29-0.11,0.56-0.3,0.82
			s-0.43,0.47-0.73,0.62c-0.3,0.15-0.63,0.23-0.97,0.23c-0.68,0-1.23-0.23-1.63-0.68c-0.4-0.46-0.61-1.08-0.61-1.87v-0.14
			c0-0.49,0.09-0.92,0.27-1.3c0.18-0.38,0.44-0.68,0.77-0.89c0.34-0.21,0.73-0.31,1.19-0.31c0.56,0,1.03,0.17,1.4,0.5
			c0.37,0.34,0.57,0.77,0.6,1.31h-0.81c-0.03-0.33-0.15-0.59-0.37-0.8c-0.22-0.21-0.49-0.31-0.82-0.31c-0.44,0-0.77,0.16-1.01,0.47
			c-0.24,0.31-0.36,0.77-0.36,1.36v0.16c0,0.58,0.12,1.02,0.36,1.34S78.13,25.01,78.57,25.01z"/>
		<path class="st8" d="M82.48,21.21c0.38-0.47,0.88-0.7,1.48-0.7c1.06,0,1.6,0.6,1.6,1.79v3.32h-0.86V22.3
			c0-0.36-0.09-0.63-0.25-0.8c-0.16-0.17-0.42-0.26-0.76-0.26c-0.28,0-0.52,0.07-0.73,0.22c-0.21,0.15-0.37,0.34-0.49,0.58v3.58
			h-0.86V18.5h0.86V21.21z"/>
		<path class="st8" d="M90.05,25.13c-0.33,0.39-0.82,0.59-1.47,0.59c-0.53,0-0.94-0.16-1.22-0.47c-0.28-0.31-0.42-0.77-0.42-1.38
			V20.6h0.86v3.24c0,0.76,0.31,1.14,0.93,1.14c0.66,0,1.09-0.24,1.31-0.73V20.6h0.86v5.02h-0.82L90.05,25.13z"/>
		<path class="st8" d="M93.22,25.62h-0.86V18.5h0.86V25.62z"/>
		<path class="st8" d="M96.67,25.71c-0.68,0-1.23-0.22-1.66-0.67c-0.43-0.45-0.64-1.04-0.64-1.79v-0.16c0-0.5,0.09-0.94,0.29-1.33
			c0.19-0.39,0.46-0.7,0.8-0.92c0.34-0.22,0.71-0.33,1.11-0.33c0.65,0,1.16,0.21,1.52,0.64c0.36,0.43,0.54,1.04,0.54,1.85v0.36h-3.4
			c0.01,0.5,0.16,0.89,0.43,1.2c0.28,0.3,0.63,0.46,1.05,0.46c0.3,0,0.56-0.06,0.77-0.19c0.21-0.12,0.39-0.29,0.55-0.49l0.52,0.41
			C98.14,25.39,97.51,25.71,96.67,25.71z M96.57,21.22c-0.35,0-0.64,0.13-0.87,0.38c-0.24,0.25-0.38,0.6-0.44,1.06h2.51v-0.06
			c-0.03-0.44-0.14-0.77-0.35-1.01C97.21,21.33,96.92,21.22,96.57,21.22z"/>
	</g>
	<g>
		<path class="st8" d="M9.21,45.15c-0.23,0.33-0.55,0.57-0.96,0.74c-0.41,0.16-0.89,0.24-1.43,0.24c-0.55,0-1.04-0.13-1.47-0.39
			c-0.43-0.26-0.76-0.62-0.99-1.1C4.13,44.16,4.01,43.61,4,42.98v-0.59c0-1.02,0.24-1.81,0.71-2.37s1.14-0.84,2-0.84
			c0.71,0,1.27,0.18,1.7,0.54c0.43,0.36,0.69,0.87,0.79,1.53H8.32c-0.17-0.9-0.7-1.34-1.6-1.34c-0.6,0-1.05,0.21-1.36,0.63
			S4.9,41.57,4.9,42.37v0.55c0,0.76,0.17,1.36,0.52,1.81s0.81,0.67,1.41,0.67c0.33,0,0.63-0.04,0.88-0.11
			c0.25-0.07,0.46-0.2,0.62-0.38V43.4H6.76v-0.73h2.45V45.15z"/>
		<path class="st8" d="M12.24,44.78l1.17-3.76h0.92l-2.02,5.79c-0.31,0.83-0.81,1.25-1.49,1.25l-0.16-0.01l-0.32-0.06v-0.7
			l0.23,0.02c0.29,0,0.52-0.06,0.68-0.18c0.16-0.12,0.3-0.33,0.4-0.64l0.19-0.51l-1.79-4.96h0.94L12.24,44.78z"/>
		<path class="st8" d="M16,41.02l0.02,0.56c0.37-0.43,0.86-0.65,1.49-0.65c0.7,0,1.18,0.27,1.43,0.81c0.17-0.24,0.38-0.44,0.65-0.58
			s0.58-0.22,0.95-0.22c1.1,0,1.66,0.58,1.68,1.75v3.36h-0.86v-3.31c0-0.36-0.08-0.63-0.25-0.8c-0.16-0.18-0.44-0.27-0.83-0.27
			c-0.32,0-0.58,0.1-0.79,0.29c-0.21,0.19-0.33,0.45-0.37,0.77v3.33h-0.86v-3.29c0-0.73-0.36-1.09-1.07-1.09
			c-0.56,0-0.95,0.24-1.16,0.72v3.66h-0.86v-5.02H16z"/>
		<path class="st8" d="M24.43,41.02l0.03,0.63c0.38-0.48,0.88-0.72,1.5-0.72c1.06,0,1.6,0.6,1.6,1.79v3.32H26.7v-3.32
			c0-0.36-0.09-0.63-0.25-0.8c-0.16-0.17-0.42-0.26-0.76-0.26c-0.28,0-0.52,0.07-0.73,0.22c-0.21,0.15-0.37,0.34-0.49,0.58v3.58
			h-0.86v-5.02H24.43z"/>
		<path class="st8" d="M32.04,46.04c-0.05-0.1-0.09-0.28-0.12-0.53c-0.4,0.42-0.88,0.62-1.43,0.62c-0.5,0-0.9-0.14-1.22-0.42
			c-0.32-0.28-0.48-0.63-0.48-1.06c0-0.52,0.2-0.93,0.6-1.22s0.96-0.43,1.68-0.43h0.83V42.6c0-0.3-0.09-0.54-0.27-0.72
			c-0.18-0.18-0.44-0.27-0.79-0.27c-0.31,0-0.56,0.08-0.77,0.23c-0.21,0.15-0.31,0.34-0.31,0.56H28.9c0-0.25,0.09-0.49,0.27-0.73
			c0.18-0.23,0.42-0.42,0.72-0.55c0.3-0.14,0.64-0.2,1-0.2c0.58,0,1.03,0.14,1.36,0.43c0.33,0.29,0.5,0.69,0.51,1.19v2.31
			c0,0.46,0.06,0.83,0.18,1.1v0.07H32.04z M30.62,45.38c0.27,0,0.52-0.07,0.77-0.21c0.24-0.14,0.42-0.32,0.52-0.54V43.6h-0.67
			c-1.05,0-1.58,0.31-1.58,0.92c0,0.27,0.09,0.48,0.27,0.63C30.1,45.31,30.33,45.38,30.62,45.38z"/>
		<path class="st8" d="M37.13,44.71c0-0.23-0.09-0.41-0.26-0.54c-0.17-0.13-0.48-0.24-0.91-0.33c-0.43-0.09-0.78-0.2-1.04-0.33
			c-0.25-0.13-0.44-0.29-0.57-0.46c-0.12-0.18-0.18-0.39-0.18-0.64c0-0.41,0.17-0.76,0.52-1.04c0.35-0.28,0.79-0.43,1.33-0.43
			c0.57,0,1.03,0.15,1.38,0.44s0.53,0.67,0.53,1.13h-0.86c0-0.24-0.1-0.44-0.3-0.61s-0.45-0.25-0.75-0.25
			c-0.31,0-0.56,0.07-0.73,0.2c-0.18,0.14-0.26,0.31-0.26,0.53c0,0.21,0.08,0.36,0.25,0.47c0.16,0.11,0.46,0.21,0.89,0.3
			c0.43,0.1,0.78,0.21,1.04,0.34c0.27,0.13,0.46,0.29,0.59,0.48c0.13,0.19,0.19,0.42,0.19,0.68c0,0.45-0.18,0.81-0.54,1.08
			c-0.36,0.27-0.82,0.41-1.4,0.41c-0.4,0-0.76-0.07-1.07-0.21c-0.31-0.14-0.55-0.34-0.73-0.6s-0.26-0.53-0.26-0.83h0.86
			c0.02,0.29,0.13,0.52,0.35,0.68s0.5,0.25,0.85,0.25c0.32,0,0.58-0.07,0.78-0.2S37.13,44.93,37.13,44.71z"/>
		<path class="st8" d="M39.19,39.69c0-0.14,0.04-0.26,0.13-0.35s0.21-0.14,0.38-0.14s0.29,0.05,0.38,0.14
			c0.09,0.1,0.13,0.21,0.13,0.35c0,0.14-0.04,0.25-0.13,0.35c-0.09,0.09-0.21,0.14-0.38,0.14s-0.29-0.05-0.38-0.14
			C39.23,39.94,39.19,39.83,39.19,39.69z M40.12,46.04h-0.86v-5.02h0.86V46.04z"/>
		<path class="st8" d="M44.69,45.54c-0.33,0.39-0.82,0.59-1.47,0.59c-0.54,0-0.94-0.16-1.22-0.47c-0.28-0.31-0.42-0.77-0.42-1.38
			v-3.27h0.86v3.24c0,0.76,0.31,1.14,0.93,1.14c0.66,0,1.09-0.24,1.31-0.73v-3.65h0.86v5.02h-0.82L44.69,45.54z"/>
		<path class="st8" d="M47.72,41.02l0.02,0.56c0.37-0.43,0.86-0.65,1.49-0.65c0.7,0,1.18,0.27,1.43,0.81
			c0.17-0.24,0.38-0.44,0.65-0.58s0.58-0.22,0.95-0.22c1.1,0,1.66,0.58,1.68,1.75v3.36h-0.86v-3.31c0-0.36-0.08-0.63-0.25-0.8
			c-0.16-0.18-0.44-0.27-0.83-0.27c-0.32,0-0.58,0.1-0.79,0.29c-0.21,0.19-0.33,0.45-0.37,0.77v3.33h-0.86v-3.29
			c0-0.73-0.36-1.09-1.07-1.09c-0.56,0-0.95,0.24-1.16,0.72v3.66h-0.86v-5.02H47.72z"/>
	</g>
	<rect x="43.25" y="42.4" class="st2" width="56.07" height="24.46"/>
	<path class="st8" d="M99.62,67.15H42.95V42.1h56.67V67.15z M43.55,66.55h55.47V42.7H43.55V66.55z"/>
	<g>
		<path class="st8" d="M49.82,55.47h-1.59v2.73h-0.9v-6.75h2.24c0.76,0,1.35,0.17,1.76,0.52s0.62,0.85,0.62,1.51
			c0,0.42-0.11,0.79-0.34,1.1c-0.23,0.31-0.54,0.55-0.95,0.7l1.59,2.87v0.06h-0.96L49.82,55.47z M48.24,54.74h1.37
			c0.44,0,0.79-0.11,1.05-0.34c0.26-0.23,0.39-0.54,0.39-0.92c0-0.42-0.12-0.74-0.37-0.96c-0.25-0.22-0.61-0.34-1.08-0.34h-1.36
			V54.74z"/>
		<path class="st8" d="M54.96,58.29c-0.68,0-1.23-0.22-1.66-0.67c-0.43-0.45-0.64-1.04-0.64-1.79v-0.16c0-0.5,0.09-0.94,0.29-1.33
			c0.19-0.39,0.46-0.7,0.8-0.92c0.34-0.22,0.71-0.33,1.11-0.33c0.65,0,1.16,0.21,1.52,0.64c0.36,0.43,0.54,1.04,0.54,1.85v0.36h-3.4
			c0.01,0.5,0.16,0.89,0.43,1.2c0.28,0.3,0.63,0.46,1.06,0.46c0.3,0,0.56-0.06,0.77-0.19c0.21-0.12,0.39-0.29,0.55-0.49l0.52,0.41
			C56.44,57.97,55.8,58.29,54.96,58.29z M54.86,53.79c-0.35,0-0.64,0.13-0.87,0.38c-0.23,0.25-0.38,0.6-0.44,1.06h2.51v-0.06
			c-0.02-0.44-0.14-0.77-0.35-1.01C55.5,53.91,55.22,53.79,54.86,53.79z"/>
		<path class="st8" d="M61.1,58.2c-0.05-0.1-0.09-0.28-0.12-0.53c-0.4,0.42-0.88,0.62-1.43,0.62c-0.49,0-0.9-0.14-1.22-0.42
			c-0.32-0.28-0.47-0.63-0.47-1.06c0-0.52,0.2-0.93,0.6-1.22s0.96-0.43,1.68-0.43h0.83v-0.39c0-0.3-0.09-0.54-0.27-0.72
			c-0.18-0.18-0.44-0.27-0.79-0.27c-0.31,0-0.56,0.08-0.77,0.23c-0.21,0.15-0.31,0.34-0.31,0.56h-0.86c0-0.25,0.09-0.49,0.27-0.73
			s0.42-0.42,0.72-0.55c0.3-0.14,0.64-0.2,1-0.2c0.58,0,1.03,0.14,1.36,0.43c0.33,0.29,0.5,0.69,0.51,1.19v2.31
			c0,0.46,0.06,0.83,0.18,1.1v0.07H61.1z M59.67,57.54c0.27,0,0.52-0.07,0.76-0.21c0.24-0.14,0.42-0.32,0.52-0.54v-1.03h-0.67
			c-1.05,0-1.58,0.31-1.58,0.92c0,0.27,0.09,0.48,0.27,0.63C59.16,57.47,59.39,57.54,59.67,57.54z"/>
		<path class="st8" d="M64.19,58.2h-0.86v-7.12h0.86V58.2z"/>
		<path class="st8" d="M68.58,56.87c0-0.23-0.09-0.41-0.26-0.54c-0.17-0.13-0.48-0.24-0.91-0.33s-0.78-0.2-1.03-0.33
			s-0.44-0.29-0.57-0.46c-0.12-0.18-0.18-0.39-0.18-0.64c0-0.41,0.17-0.76,0.52-1.04c0.35-0.28,0.79-0.43,1.33-0.43
			c0.57,0,1.03,0.15,1.38,0.44c0.35,0.29,0.53,0.67,0.53,1.13h-0.86c0-0.24-0.1-0.44-0.3-0.61c-0.2-0.17-0.45-0.25-0.75-0.25
			c-0.31,0-0.56,0.07-0.73,0.2c-0.18,0.14-0.26,0.31-0.26,0.53c0,0.21,0.08,0.36,0.25,0.47c0.16,0.11,0.46,0.21,0.89,0.3
			c0.43,0.1,0.78,0.21,1.04,0.34c0.27,0.13,0.46,0.29,0.59,0.48c0.13,0.19,0.19,0.42,0.19,0.68c0,0.45-0.18,0.81-0.54,1.08
			c-0.36,0.27-0.82,0.41-1.4,0.41c-0.4,0-0.76-0.07-1.07-0.21c-0.31-0.14-0.55-0.34-0.73-0.6s-0.26-0.53-0.26-0.83h0.86
			c0.02,0.29,0.13,0.52,0.35,0.68c0.21,0.17,0.5,0.25,0.85,0.25c0.33,0,0.58-0.07,0.78-0.2C68.49,57.26,68.58,57.09,68.58,56.87z"/>
		<path class="st8" d="M72.67,57.59c0.31,0,0.57-0.09,0.8-0.28c0.23-0.19,0.36-0.42,0.38-0.7h0.81c-0.02,0.29-0.11,0.56-0.3,0.82
			s-0.43,0.47-0.73,0.62c-0.3,0.15-0.63,0.23-0.97,0.23c-0.68,0-1.23-0.23-1.63-0.68c-0.4-0.46-0.61-1.08-0.61-1.87v-0.14
			c0-0.49,0.09-0.92,0.27-1.3c0.18-0.38,0.44-0.68,0.77-0.89c0.33-0.21,0.73-0.31,1.19-0.31c0.56,0,1.03,0.17,1.4,0.5
			c0.37,0.34,0.57,0.77,0.6,1.31h-0.81c-0.02-0.33-0.15-0.59-0.37-0.8c-0.22-0.21-0.49-0.31-0.82-0.31c-0.44,0-0.77,0.16-1.01,0.47
			c-0.24,0.31-0.36,0.77-0.36,1.36v0.16c0,0.58,0.12,1.02,0.36,1.34S72.23,57.59,72.67,57.59z"/>
		<path class="st8" d="M76.57,53.79c0.38-0.47,0.88-0.7,1.48-0.7c1.06,0,1.6,0.6,1.6,1.79v3.32H78.8v-3.32
			c0-0.36-0.09-0.63-0.25-0.8c-0.16-0.17-0.42-0.26-0.76-0.26c-0.28,0-0.52,0.07-0.73,0.22s-0.37,0.34-0.49,0.58v3.58h-0.86v-7.12
			h0.86V53.79z"/>
		<path class="st8" d="M84.14,57.7c-0.33,0.39-0.82,0.59-1.47,0.59c-0.54,0-0.94-0.16-1.22-0.47c-0.28-0.31-0.42-0.77-0.42-1.38
			v-3.27h0.86v3.24c0,0.76,0.31,1.14,0.93,1.14c0.66,0,1.09-0.24,1.31-0.73v-3.65h0.86v5.02h-0.82L84.14,57.7z"/>
		<path class="st8" d="M87.31,58.2h-0.86v-7.12h0.86V58.2z"/>
		<path class="st8" d="M90.76,58.29c-0.68,0-1.23-0.22-1.66-0.67c-0.43-0.45-0.64-1.04-0.64-1.79v-0.16c0-0.5,0.09-0.94,0.29-1.33
			c0.19-0.39,0.46-0.7,0.8-0.92c0.34-0.22,0.71-0.33,1.11-0.33c0.65,0,1.16,0.21,1.52,0.64c0.36,0.43,0.54,1.04,0.54,1.85v0.36h-3.4
			c0.01,0.5,0.16,0.89,0.43,1.2c0.28,0.3,0.63,0.46,1.06,0.46c0.3,0,0.56-0.06,0.77-0.19c0.21-0.12,0.39-0.29,0.55-0.49l0.52,0.41
			C92.23,57.97,91.6,58.29,90.76,58.29z M90.65,53.79c-0.35,0-0.64,0.13-0.87,0.38c-0.23,0.25-0.38,0.6-0.44,1.06h2.51v-0.06
			c-0.02-0.44-0.14-0.77-0.35-1.01C91.3,53.91,91.01,53.79,90.65,53.79z"/>
	</g>
	<g>
		<defs>
			<rect id="SVGID_00000116926494991208320190000015067793644403819168_" width="109.76" height="73.97"/>
		</defs>
		<clipPath id="SVGID_00000083067256702800882560000003746650560423753911_">
			<use xlink:href="#SVGID_00000116926494991208320190000015067793644403819168_"  style="overflow:visible;"/>
		</clipPath>
		<path style="clip-path:url(#SVGID_00000083067256702800882560000003746650560423753911_);fill:#2B2961;" d="M79.93,73.97
			c-0.08,0-0.15-0.03-0.21-0.09L6.35,0.51c-0.12-0.12-0.12-0.31,0-0.42c0.12-0.12,0.31-0.12,0.42,0l73.37,73.37
			c0.12,0.12,0.12,0.31,0,0.42C80.09,73.94,80.01,73.97,79.93,73.97z"/>
		<path style="clip-path:url(#SVGID_00000083067256702800882560000003746650560423753911_);fill:#2B2961;" d="M6.57,73.97
			c-0.08,0-0.15-0.03-0.21-0.09c-0.12-0.12-0.12-0.31,0-0.42L79.72,0.09c0.12-0.12,0.31-0.12,0.42,0c0.12,0.12,0.12,0.31,0,0.42
			L6.78,73.88C6.72,73.94,6.64,73.97,6.57,73.97z"/>
	</g>
</g>
</svg>
