<?xml version="1.0" encoding="utf-8"?>
<!-- Generator: Adobe Illustrator 26.0.2, SVG Export Plug-In . SVG Version: 6.00 Build 0)  -->
<svg version="1.1" id="Ebene_1" xmlns="http://www.w3.org/2000/svg" xmlns:xlink="http://www.w3.org/1999/xlink" x="0px" y="0px"
	 viewBox="0 0 45.58 62.45" style="enable-background:new 0 0 45.58 62.45;" xml:space="preserve">
<style type="text/css">
	.st0{fill:#6796CF;}
	.st1{clip-path:url(#SVGID_00000054229789825153632580000006993467109552161444_);fill:#2B2961;}
	.st2{fill:#FFFFFF;}
	.st3{clip-path:url(#SVGID_00000157279705736676576800000002972959576612718773_);fill:#2B2961;}
	.st4{clip-path:url(#SVGID_00000176725600312849105260000006144559049079489982_);fill:#2B2961;}
	.st5{clip-path:url(#SVGID_00000145773065867084529370000015198584129210090630_);fill:#2B2961;}
	.st6{clip-path:url(#SVGID_00000067952314816383508890000014940966072317486729_);fill:#6796CF;}
	.st7{clip-path:url(#SVGID_00000042708505220186531050000003160404836553486504_);fill:#6796CF;}
	.st8{clip-path:url(#SVGID_00000005971602892901358340000003689750539682836634_);fill:#6796CF;}
	.st9{clip-path:url(#SVGID_00000155132969322493879170000006611901385466600370_);fill:#6796CF;}
	.st10{fill:#2B2961;}
	.st11{clip-path:url(#SVGID_00000053541608089108110230000005726729775632789950_);fill:#2B2961;}
	.st12{clip-path:url(#SVGID_00000096739116080824293290000004962001887671336123_);fill:#2B2961;}
	.st13{clip-path:url(#SVGID_00000094611081442328101820000010871787636382582198_);fill:#2B2961;}
	.st14{clip-path:url(#SVGID_00000110440095053075706090000016334527861635684534_);fill:#2B2961;}
	.st15{clip-path:url(#SVGID_00000065761601846653685010000014535865020117082264_);fill:#2B2961;}
</style>
<g>
	<polygon class="st0" points="1.64,0.33 1.64,57.9 30.85,57.9 41.4,42.67 41.4,0.33 	"/>
	<path class="st0" d="M30.91,58.02H1.52V0.21h40V42.7l-0.02,0.03L30.91,58.02z M1.76,57.79h29.03l10.5-15.15V0.45H1.76V57.79z"/>
	<g>
		<g>
			<defs>
				<rect id="SVGID_1_" y="0" width="45.58" height="62.45"/>
			</defs>
			<clipPath id="SVGID_00000142166795640071778550000010348499359530074005_">
				<use xlink:href="#SVGID_1_"  style="overflow:visible;"/>
			</clipPath>
			<path style="clip-path:url(#SVGID_00000142166795640071778550000010348499359530074005_);fill:#2B2961;" d="M41.11,58.28H0.3
				c-0.17,0-0.3-0.13-0.3-0.3V0.3C0,0.13,0.13,0,0.3,0h40.81c0.17,0,0.3,0.13,0.3,0.3v57.68C41.41,58.15,41.28,58.28,41.11,58.28z
				 M0.6,57.68h40.21V0.6H0.6V57.68z"/>
		</g>
	</g>
	<polygon class="st2" points="4.47,4.47 4.47,62.15 36.91,62.15 45.28,53.78 45.28,4.47 	"/>
	<g>
		<g>
			<defs>
				<rect id="SVGID_00000029031082460567798780000010003106525805985175_" y="0" width="45.58" height="62.45"/>
			</defs>
			<clipPath id="SVGID_00000142896925849231362550000004348531120526967727_">
				<use xlink:href="#SVGID_00000029031082460567798780000010003106525805985175_"  style="overflow:visible;"/>
			</clipPath>
			<path style="clip-path:url(#SVGID_00000142896925849231362550000004348531120526967727_);fill:#2B2961;" d="M36.9,62.45H4.47
				c-0.17,0-0.3-0.13-0.3-0.3V4.47c0-0.17,0.13-0.3,0.3-0.3h40.81c0.17,0,0.3,0.13,0.3,0.3v49.32c0,0.08-0.03,0.16-0.09,0.21
				l-8.37,8.36C37.06,62.42,36.98,62.45,36.9,62.45z M4.77,61.85h32.01l8.2-8.19V4.77H4.77V61.85z"/>
		</g>
	</g>
	<polygon class="st2" points="36.75,53.62 36.75,62.15 45.28,53.62 	"/>
	<g>
		<g>
			<defs>
				<rect id="SVGID_00000073694897030254549580000006764477843020125354_" y="0" width="45.58" height="62.45"/>
			</defs>
			<clipPath id="SVGID_00000110460253228518972180000014976726331341687734_">
				<use xlink:href="#SVGID_00000073694897030254549580000006764477843020125354_"  style="overflow:visible;"/>
			</clipPath>
			<path style="clip-path:url(#SVGID_00000110460253228518972180000014976726331341687734_);fill:#2B2961;" d="M36.75,62.42
				c-0.04,0-0.07-0.01-0.11-0.02c-0.1-0.04-0.17-0.14-0.17-0.26v-8.53c0-0.15,0.12-0.28,0.28-0.28h8.53c0.11,0,0.21,0.07,0.26,0.17
				c0.04,0.1,0.02,0.22-0.06,0.3l-8.53,8.53C36.9,62.4,36.82,62.42,36.75,62.42z M37.03,53.9v7.58l7.58-7.58H37.03z"/>
		</g>
	</g>
	<polygon class="st0" points="37.49,53.9 37.49,61.58 45.28,53.9 	"/>
	<path class="st0" d="M37.37,61.87v-8.09h8.2L37.37,61.87z M37.61,54.02v7.28l7.38-7.28H37.61z"/>
	<g>
		<g>
			<defs>
				<rect id="SVGID_00000095326984685513493400000017749148257957534882_" y="0" width="45.58" height="62.45"/>
			</defs>
			<clipPath id="SVGID_00000063608757299656634890000002162957468804491406_">
				<use xlink:href="#SVGID_00000095326984685513493400000017749148257957534882_"  style="overflow:visible;"/>
			</clipPath>
			<path style="clip-path:url(#SVGID_00000063608757299656634890000002162957468804491406_);fill:#2B2961;" d="M36.75,62.45
				c-0.04,0-0.08-0.01-0.12-0.02c-0.11-0.05-0.18-0.16-0.18-0.28v-8.53c0-0.17,0.13-0.3,0.3-0.3h8.53c0.12,0,0.23,0.07,0.28,0.19
				c0.05,0.11,0.02,0.24-0.07,0.33l-8.53,8.53C36.91,62.42,36.83,62.45,36.75,62.45z M37.05,53.92v7.5l7.5-7.5H37.05z"/>
		</g>
		<g>
			<defs>
				<rect id="SVGID_00000114789894597266693240000009528295351008611748_" y="0" width="45.58" height="62.45"/>
			</defs>
			<clipPath id="SVGID_00000088100866758506414200000017163543176277808813_">
				<use xlink:href="#SVGID_00000114789894597266693240000009528295351008611748_"  style="overflow:visible;"/>
			</clipPath>
			<path style="clip-path:url(#SVGID_00000088100866758506414200000017163543176277808813_);fill:#6796CF;" d="M14.48,29.87
				l2.38-3.5c0.82,0.1,1.67-0.24,2.16-0.97c0.5-0.73,0.5-1.64,0.1-2.36l-0.78,1.15l-1.71-1.16l0.78-1.15
				c-0.82-0.1-1.66,0.24-2.16,0.97s-0.5,1.64-0.11,2.36l-2.38,3.5c-0.82-0.1-1.66,0.24-2.16,0.97c-0.49,0.73-0.5,1.64-0.1,2.36
				l0.78-1.15l1.71,1.16l-0.78,1.15c0.82,0.1,1.66-0.24,2.16-0.97C14.87,31.5,14.87,30.6,14.48,29.87"/>
		</g>
		<g>
			<defs>
				<rect id="SVGID_00000101077578188737822070000013071857378302827678_" y="0" width="45.58" height="62.45"/>
			</defs>
			<clipPath id="SVGID_00000004545519909907507700000009849277218005312148_">
				<use xlink:href="#SVGID_00000101077578188737822070000013071857378302827678_"  style="overflow:visible;"/>
			</clipPath>
			<path style="clip-path:url(#SVGID_00000004545519909907507700000009849277218005312148_);fill:#6796CF;" d="M12.5,33.34
				c-0.1,0-0.2-0.01-0.3-0.02c-0.04-0.01-0.08-0.03-0.1-0.07s-0.01-0.09,0.01-0.12l0.71-1.05l-1.51-1.02l-0.71,1.05
				c-0.02,0.04-0.06,0.06-0.11,0.05c-0.04,0-0.08-0.03-0.1-0.06c-0.43-0.8-0.39-1.75,0.11-2.49c0.49-0.72,1.34-1.11,2.2-1.03
				L15,25.2c-0.4-0.78-0.34-1.7,0.15-2.42c0.5-0.74,1.38-1.13,2.28-1.02c0.04,0.01,0.08,0.03,0.1,0.07
				c0.02,0.04,0.01,0.09-0.01,0.12L16.8,23l1.51,1.02l0.71-1.05c0.02-0.04,0.07-0.05,0.11-0.05s0.08,0.03,0.1,0.06
				c0.44,0.8,0.39,1.75-0.11,2.49c-0.49,0.72-1.33,1.11-2.2,1.03l-2.3,3.38c0.4,0.78,0.34,1.7-0.15,2.42
				C14.03,32.96,13.29,33.34,12.5,33.34z M12.43,33.09c0.02,0,0.04,0,0.06,0c0.71,0,1.37-0.34,1.77-0.93
				c0.45-0.66,0.49-1.52,0.1-2.23c-0.02-0.04-0.02-0.09,0.01-0.13l2.38-3.5c0.03-0.04,0.06-0.06,0.12-0.05
				c0.8,0.09,1.59-0.25,2.04-0.92c0.41-0.6,0.48-1.37,0.19-2.04l-0.66,0.97c-0.04,0.06-0.12,0.07-0.17,0.03l-1.71-1.16
				c-0.03-0.02-0.05-0.05-0.05-0.08c-0.01-0.03,0-0.07,0.02-0.09l0.66-0.97c-0.02,0-0.04,0-0.06,0c-0.71,0-1.37,0.34-1.77,0.93
				c-0.45,0.66-0.49,1.52-0.1,2.23c0.02,0.04,0.02,0.09-0.01,0.13l-2.38,3.5c-0.03,0.04-0.07,0.06-0.12,0.05
				c-0.8-0.09-1.59,0.25-2.04,0.92c-0.41,0.6-0.48,1.37-0.19,2.04l0.66-0.97c0.04-0.06,0.12-0.07,0.17-0.03l1.71,1.16
				c0.03,0.02,0.05,0.05,0.05,0.08c0.01,0.03,0,0.07-0.02,0.09L12.43,33.09z"/>
		</g>
	</g>
	<rect x="20.05" y="38.9" class="st0" width="12.89" height="7"/>
	<path class="st0" d="M32.94,46.03H20.05c-0.07,0-0.12-0.06-0.12-0.12v-7c0-0.07,0.06-0.12,0.12-0.12h12.89
		c0.07,0,0.12,0.06,0.12,0.12v7C33.07,45.97,33.01,46.03,32.94,46.03z M20.17,45.78h12.64v-6.75H20.17V45.78z"/>
	<g>
		<g>
			<defs>
				<rect id="SVGID_00000005971227432549470170000004155912066811196073_" y="0" width="45.58" height="62.45"/>
			</defs>
			<clipPath id="SVGID_00000168105122535398276240000015980103211056688026_">
				<use xlink:href="#SVGID_00000005971227432549470170000004155912066811196073_"  style="overflow:visible;"/>
			</clipPath>
			<path style="clip-path:url(#SVGID_00000168105122535398276240000015980103211056688026_);fill:#6796CF;" d="M29.52,14.55
				c-0.37-1.3-1.52-2.25-2.87-2.25c-1.35,0-2.49,0.95-2.86,2.25H29.52z"/>
		</g>
		<g>
			<defs>
				<rect id="SVGID_00000070827990374205999380000017706324802507195539_" y="0" width="45.58" height="62.45"/>
			</defs>
			<clipPath id="SVGID_00000052085536311484746920000001694839490234380678_">
				<use xlink:href="#SVGID_00000070827990374205999380000017706324802507195539_"  style="overflow:visible;"/>
			</clipPath>
			<path style="clip-path:url(#SVGID_00000052085536311484746920000001694839490234380678_);fill:#6796CF;" d="M29.52,14.68h-5.73
				c-0.04,0-0.08-0.02-0.1-0.05s-0.03-0.07-0.02-0.11c0.39-1.38,1.62-2.34,2.98-2.34c1.38,0,2.58,0.94,2.99,2.34
				c0.01,0.04,0,0.08-0.02,0.11S29.56,14.68,29.52,14.68z M23.96,14.43h5.39c-0.41-1.2-1.48-2-2.7-2S24.38,13.22,23.96,14.43z"/>
		</g>
	</g>
	<rect x="19.45" y="38.27" class="st10" width="13.99" height="0.4"/>
	<g>
		<g>
			<defs>
				<rect id="SVGID_00000147924098034553634940000016111910999095433378_" y="0" width="45.58" height="62.45"/>
			</defs>
			<clipPath id="SVGID_00000050636448997005002560000007254249890256676781_">
				<use xlink:href="#SVGID_00000147924098034553634940000016111910999095433378_"  style="overflow:visible;"/>
			</clipPath>
			<path style="clip-path:url(#SVGID_00000050636448997005002560000007254249890256676781_);fill:#2B2961;" d="M26.25,19.47
				c-2.1,0-3.81-1.73-3.81-3.85s1.71-3.85,3.81-3.85s3.81,1.73,3.81,3.85S28.35,19.47,26.25,19.47z M26.25,12.37
				c-1.77,0-3.21,1.46-3.21,3.25s1.44,3.25,3.21,3.25c1.77,0,3.21-1.46,3.21-3.25S28.02,12.37,26.25,12.37z"/>
		</g>
	</g>
	<rect x="22.74" y="14.27" class="st10" width="7.02" height="0.4"/>
	<g>
		<g>
			<defs>
				<rect id="SVGID_00000093160965296625027540000017678373700621914286_" y="0" width="45.58" height="62.45"/>
			</defs>
			<clipPath id="SVGID_00000083049086205576488830000010307551186072190125_">
				<use xlink:href="#SVGID_00000093160965296625027540000017678373700621914286_"  style="overflow:visible;"/>
			</clipPath>
			<path style="clip-path:url(#SVGID_00000083049086205576488830000010307551186072190125_);fill:#2B2961;" d="M25.19,15.98
				c0,0.1-0.08,0.19-0.18,0.19s-0.18-0.08-0.18-0.19c0-0.1,0.08-0.18,0.18-0.18S25.19,15.88,25.19,15.98"/>
		</g>
		<g>
			<defs>
				<rect id="SVGID_00000119804759220354377540000006046891131111294383_" y="0" width="45.58" height="62.45"/>
			</defs>
			<clipPath id="SVGID_00000116215817866366136340000010336357899015102371_">
				<use xlink:href="#SVGID_00000119804759220354377540000006046891131111294383_"  style="overflow:visible;"/>
			</clipPath>
			<path style="clip-path:url(#SVGID_00000116215817866366136340000010336357899015102371_);fill:#2B2961;" d="M27.68,15.98
				c0,0.1-0.08,0.19-0.18,0.19s-0.18-0.08-0.18-0.19c0-0.1,0.08-0.18,0.18-0.18S27.68,15.88,27.68,15.98"/>
		</g>
	</g>
	<path class="st10" d="M29.92,53.37c-0.17,0-0.3-0.13-0.3-0.3v-6.92c0-0.17,0.13-0.3,0.3-0.3s0.3,0.13,0.3,0.3v6.92
		C30.22,53.24,30.09,53.37,29.92,53.37z M22.52,53.37c-0.17,0-0.3-0.13-0.3-0.3v-6.92c0-0.17,0.13-0.3,0.3-0.3s0.3,0.13,0.3,0.3
		v6.92C22.82,53.24,22.68,53.37,22.52,53.37z"/>
	<g>
		<g>
			<defs>
				<rect id="SVGID_00000145041125066350633540000007870028087126632587_" y="0" width="45.58" height="62.45"/>
			</defs>
			<clipPath id="SVGID_00000028294835555399986020000009322165079039671937_">
				<use xlink:href="#SVGID_00000145041125066350633540000007870028087126632587_"  style="overflow:visible;"/>
			</clipPath>
			<path style="clip-path:url(#SVGID_00000028294835555399986020000009322165079039671937_);fill:#2B2961;" d="M33.22,46.14h-14
				c-0.17,0-0.3-0.13-0.3-0.3V28.87c0-4.19,3.34-7.73,7.3-7.73c3.98,0,7.35,3.54,7.35,7.73l0,0l-0.05,16.96
				C33.52,46,33.39,46.14,33.22,46.14z M19.52,45.54h13.4l0.05-16.66c0-3.86-3.09-7.13-6.75-7.13c-3.63,0-6.7,3.27-6.7,7.13
				C19.52,28.88,19.52,45.54,19.52,45.54z"/>
		</g>
	</g>
	<path class="st10" d="M25.97,46.04c-0.11,0-0.2-0.09-0.2-0.2V40.4c0-0.11,0.09-0.2,0.2-0.2s0.2,0.09,0.2,0.2v5.44
		C26.17,45.95,26.08,46.04,25.97,46.04z"/>
	<g>
		<g>
			<defs>
				<rect id="SVGID_00000034057204863851832080000002569668630855640217_" y="0" width="45.58" height="62.45"/>
			</defs>
			<clipPath id="SVGID_00000109021002868293235310000017934424174707171753_">
				<use xlink:href="#SVGID_00000034057204863851832080000002569668630855640217_"  style="overflow:visible;"/>
			</clipPath>
			<path style="clip-path:url(#SVGID_00000109021002868293235310000017934424174707171753_);fill:#2B2961;" d="M11.99,33.4
				c-0.1,0-0.21-0.01-0.31-0.02c-0.1-0.01-0.19-0.08-0.24-0.17c-0.04-0.1-0.03-0.21,0.03-0.29l0.6-0.88l-1.17-0.8l-0.6,0.88
				c-0.06,0.09-0.16,0.14-0.26,0.13s-0.2-0.06-0.25-0.16c-0.46-0.84-0.41-1.84,0.12-2.62c0.49-0.73,1.33-1.14,2.2-1.09l2.12-3.14
				c-0.36-0.8-0.29-1.73,0.2-2.46c0.53-0.78,1.44-1.2,2.39-1.08c0.1,0.01,0.19,0.08,0.24,0.17c0.04,0.09,0.03,0.21-0.03,0.29
				l-0.6,0.88l1.17,0.8l0.6-0.88c0.06-0.09,0.16-0.13,0.26-0.13c0.1,0.01,0.2,0.06,0.25,0.16c0.46,0.84,0.41,1.84-0.12,2.62
				c-0.5,0.73-1.33,1.14-2.2,1.09l-2.12,3.14c0.36,0.8,0.29,1.73-0.2,2.46C13.6,33,12.82,33.4,11.99,33.4z M10.81,30.52
				c0.06,0,0.12,0.02,0.17,0.05l1.67,1.14c0.14,0.09,0.17,0.28,0.08,0.42l-0.44,0.65c0.52-0.08,0.99-0.37,1.29-0.81
				c0.4-0.59,0.44-1.36,0.09-2c-0.05-0.1-0.05-0.22,0.02-0.31L16,26.23c0.06-0.09,0.17-0.15,0.28-0.13
				c0.72,0.09,1.42-0.23,1.82-0.82c0.3-0.44,0.4-0.99,0.28-1.5l-0.44,0.65c-0.04,0.07-0.11,0.11-0.19,0.13
				c-0.08,0.02-0.16,0-0.23-0.05l-1.67-1.14c-0.14-0.09-0.17-0.28-0.08-0.42l0.44-0.65c-0.52,0.08-0.99,0.37-1.29,0.81
				c-0.4,0.59-0.44,1.36-0.09,2c0.05,0.1,0.05,0.22-0.02,0.31l-2.32,3.43c-0.06,0.09-0.18,0.14-0.28,0.13
				c-0.71-0.08-1.42,0.23-1.82,0.82c-0.3,0.45-0.4,0.99-0.28,1.5l0.44-0.65c0.04-0.07,0.11-0.11,0.19-0.13
				C10.77,30.52,10.79,30.52,10.81,30.52z"/>
		</g>
	</g>
	<path class="st10" d="M15.52,28.02c-0.16,0-0.3-0.13-0.3-0.29c0-0.17,0.13-0.3,0.29-0.31l6.92-0.13c0.17,0.01,0.3,0.13,0.31,0.29
		c0,0.17-0.13,0.3-0.29,0.31L15.52,28.02L15.52,28.02z"/>
	<path class="st10" d="M24.07,32.13c-0.09,0-0.17-0.04-0.23-0.11c-0.11-0.13-0.09-0.32,0.04-0.42l5.28-4.41
		c0.13-0.11,0.32-0.09,0.42,0.04c0.11,0.13,0.09,0.32-0.04,0.42l-5.28,4.41C24.21,32.1,24.14,32.13,24.07,32.13z"/>
	<polygon class="st2" points="23.11,25.08 22.13,25.6 21.65,24.7 17.64,26.81 18.82,29 20.93,27.89 22.82,26.89 23.8,26.37 	"/>
	<path class="st10" d="M18.82,29.3c-0.11,0-0.21-0.06-0.26-0.16l-1.17-2.19c-0.04-0.07-0.05-0.15-0.02-0.23
		c0.02-0.08,0.08-0.14,0.15-0.18l4-2.11c0.14-0.08,0.33-0.02,0.4,0.12l0.34,0.64l0.72-0.38c0.14-0.08,0.33-0.02,0.4,0.12l0.69,1.29
		c0.04,0.07,0.05,0.15,0.02,0.23c-0.02,0.08-0.08,0.14-0.15,0.18l-4.99,2.63C18.91,29.29,18.87,29.3,18.82,29.3z M18.05,26.94
		l0.89,1.66l4.45-2.35l-0.41-0.76l-0.72,0.38c-0.14,0.08-0.33,0.02-0.4-0.12l-0.34-0.64L18.05,26.94z"/>
	<polygon class="st0" points="23.62,25.24 22.71,25.72 22.25,24.85 18.54,26.82 19.67,28.93 21.62,27.9 23.38,26.97 24.29,26.48 	
		"/>
	<path class="st0" d="M19.67,29.06c-0.04,0-0.09-0.02-0.11-0.07l-1.13-2.11c-0.02-0.03-0.02-0.06-0.01-0.1s0.03-0.06,0.06-0.07
		l3.71-1.97c0.06-0.03,0.14-0.01,0.17,0.05l0.4,0.76l0.8-0.42c0.06-0.03,0.14-0.01,0.17,0.05l0.66,1.24
		c0.02,0.03,0.02,0.06,0.01,0.1c-0.01,0.03-0.03,0.06-0.06,0.07l-4.62,2.45C19.71,29.05,19.69,29.06,19.67,29.06z M18.71,26.87
		l1.01,1.89l4.4-2.33l-0.55-1.02l-0.8,0.42c-0.06,0.03-0.14,0.01-0.17-0.05l-0.4-0.76L18.71,26.87z"/>
	<path class="st10" d="M18.82,29.3c-0.11,0-0.21-0.06-0.26-0.16l-1.17-2.19c-0.04-0.07-0.05-0.15-0.02-0.23
		c0.02-0.08,0.08-0.14,0.15-0.18l4-2.11c0.14-0.08,0.33-0.02,0.4,0.12l0.34,0.64l0.72-0.38c0.14-0.08,0.33-0.02,0.4,0.12l0.69,1.29
		c0.04,0.07,0.05,0.15,0.02,0.23c-0.02,0.08-0.08,0.14-0.15,0.18l-4.99,2.63C18.91,29.29,18.87,29.3,18.82,29.3z M18.05,26.94
		l0.89,1.66l4.45-2.35l-0.41-0.76l-0.72,0.38c-0.14,0.08-0.33,0.02-0.4-0.12l-0.34-0.64L18.05,26.94z"/>
	<polygon class="st2" points="20.48,28.22 25.75,38.18 27.5,37.24 22.24,27.28 	"/>
	<path class="st10" d="M25.75,38.48c-0.03,0-0.06,0-0.09-0.01c-0.08-0.02-0.14-0.08-0.18-0.15l-5.26-9.96
		c-0.08-0.15-0.02-0.33,0.12-0.4l1.76-0.94c0.07-0.04,0.15-0.05,0.23-0.02c0.08,0.02,0.14,0.08,0.18,0.15l5.26,9.96
		c0.08,0.15,0.02,0.33-0.12,0.4l-1.76,0.94C25.84,38.47,25.8,38.48,25.75,38.48z M20.89,28.35l4.98,9.43l1.23-0.66l-4.98-9.43
		L20.89,28.35z"/>
	<polygon class="st0" points="24.54,34.45 26.43,38.02 27.92,37.23 26.03,33.66 	"/>
	<path class="st0" d="M26.43,38.15c-0.01,0-0.02,0-0.04-0.01c-0.03-0.01-0.06-0.03-0.07-0.06l-1.89-3.57
		c-0.03-0.06-0.01-0.14,0.05-0.17l1.49-0.79c0.03-0.02,0.06-0.02,0.09-0.01c0.03,0.01,0.06,0.03,0.07,0.06l1.89,3.57
		c0.03,0.06,0.01,0.14-0.05,0.17l-1.49,0.8C26.47,38.15,26.45,38.15,26.43,38.15z M24.7,34.51l1.78,3.35l1.27-0.68l-1.77-3.35
		L24.7,34.51z"/>
	<path class="st10" d="M25.75,38.48c-0.03,0-0.06,0-0.09-0.01c-0.08-0.02-0.14-0.08-0.18-0.15l-5.26-9.96
		c-0.08-0.15-0.02-0.33,0.12-0.4l1.76-0.94c0.07-0.04,0.15-0.05,0.23-0.02c0.08,0.02,0.14,0.08,0.18,0.15l5.26,9.96
		c0.08,0.15,0.02,0.33-0.12,0.4l-1.76,0.94C25.84,38.47,25.8,38.48,25.75,38.48z M20.89,28.35l4.98,9.43l1.23-0.66l-4.98-9.43
		L20.89,28.35z"/>
	
		<rect x="23.86" y="33.94" transform="matrix(0.9046 -0.4263 0.4263 0.9046 -12.2303 13.831)" class="st10" width="1.84" height="0.6"/>
</g>
</svg>
