<?xml version="1.0" encoding="utf-8"?>
<!-- Generator: Adobe Illustrator 26.0.2, SVG Export Plug-In . SVG Version: 6.00 Build 0)  -->
<svg version="1.1" id="Ebene_1" xmlns="http://www.w3.org/2000/svg" xmlns:xlink="http://www.w3.org/1999/xlink" x="0px" y="0px"
	 viewBox="0 0 19.28 24" style="enable-background:new 0 0 19.28 24;" xml:space="preserve">
<style type="text/css">
	.st0{fill:#DF8000;}
	.st1{fill:#FFFFFF;}
	.st2{fill:#d7768d;}
	.st3{fill:#E1694F;}
	.st4{fill:#6796CF;}
	.st5{fill:#6EC3BF;}
	.st6{fill:#61B87A;}
</style>
<g>
	<path class="st2" d="M9.64,24c0,0,9.64-9.04,9.64-14.36C19.28,4.32,14.96,0,9.64,0S0,4.32,0,9.64C0,14.97,9.64,24,9.64,24"/>
</g>
<g>
	<path class="st1" d="M7.67,13.53H6.01v-5.3L4.38,8.71V7.45l3.15-1.09h0.15V13.53z"/>
	<path class="st1" d="M14.81,10.6c0,0.97-0.22,1.71-0.65,2.24c-0.43,0.53-1.05,0.79-1.84,0.79c-0.8,0-1.41-0.26-1.85-0.79
		c-0.44-0.53-0.65-1.27-0.65-2.23V9.3c0-0.97,0.22-1.71,0.65-2.24c0.44-0.52,1.05-0.79,1.84-0.79c0.79,0,1.41,0.26,1.85,0.79
		c0.44,0.53,0.65,1.28,0.65,2.24V10.6z M13.15,9.08c0-0.52-0.07-0.9-0.2-1.15c-0.13-0.25-0.35-0.38-0.64-0.38
		c-0.29,0-0.49,0.12-0.62,0.35c-0.13,0.24-0.2,0.59-0.21,1.07v1.83c0,0.54,0.07,0.93,0.2,1.17s0.35,0.37,0.64,0.37
		c0.28,0,0.49-0.12,0.62-0.36c0.13-0.24,0.2-0.62,0.21-1.13V9.08z"/>
</g>
</svg>
