<?xml version="1.0" encoding="utf-8"?>
<!-- Generator: Adobe Illustrator 26.0.2, SVG Export Plug-In . SVG Version: 6.00 Build 0)  -->
<svg version="1.1" id="Ebene_1" xmlns="http://www.w3.org/2000/svg" xmlns:xlink="http://www.w3.org/1999/xlink" x="0px" y="0px"
	 viewBox="0 0 19.28 24" style="enable-background:new 0 0 19.28 24;" xml:space="preserve">
<style type="text/css">
	.st0{fill:#DF8000;}
	.st1{fill:#FFFFFF;}
	.st2{fill:#E59C00;}
	.st3{fill:#E1694F;}
	.st4{fill:#6796CF;}
	.st5{fill:#6EC3BF;}
	.st6{fill:#61B87A;}
</style>
<g>
	<path class="st5" d="M9.64,24c0,0,9.64-9.04,9.64-14.36C19.28,4.32,14.96,0,9.64,0S0,4.32,0,9.64C0,14.97,9.64,24,9.64,24"/>
</g>
<g>
	<path class="st1" d="M7.92,13.53H6.25v-5.3L4.62,8.71V7.45l3.15-1.09h0.15V13.53z"/>
	<path class="st1" d="M14.08,6.26v1.3h-0.07c-0.62,0-1.13,0.15-1.53,0.45s-0.64,0.71-0.74,1.24c0.37-0.37,0.85-0.55,1.42-0.55
		c0.62,0,1.11,0.23,1.48,0.68c0.37,0.45,0.55,1.05,0.55,1.78c0,0.46-0.11,0.87-0.32,1.25s-0.51,0.68-0.9,0.89s-0.81,0.32-1.28,0.32
		c-0.51,0-0.96-0.12-1.36-0.35c-0.4-0.23-0.71-0.56-0.94-0.99c-0.22-0.43-0.34-0.93-0.34-1.49v-0.67c0-0.74,0.16-1.4,0.47-1.99
		s0.77-1.05,1.36-1.39c0.59-0.33,1.24-0.5,1.95-0.5H14.08z M12.59,9.97c-0.22,0-0.4,0.05-0.55,0.15s-0.26,0.23-0.33,0.37v0.5
		c0,0.91,0.31,1.36,0.94,1.36c0.25,0,0.46-0.11,0.63-0.34c0.17-0.23,0.25-0.51,0.25-0.85c0-0.35-0.09-0.64-0.26-0.86
		C13.1,10.08,12.87,9.97,12.59,9.97z"/>
</g>
</svg>
