<?xml version="1.0" encoding="utf-8"?>
<!-- Generator: Adobe Illustrator 26.0.2, SVG Export Plug-In . SVG Version: 6.00 Build 0)  -->
<svg version="1.1" id="Ebene_1" xmlns="http://www.w3.org/2000/svg" xmlns:xlink="http://www.w3.org/1999/xlink" x="0px" y="0px"
	 viewBox="0 0 19.28 24" style="enable-background:new 0 0 19.28 24;" xml:space="preserve">
<style type="text/css">
	.st0{fill:#DF8000;}
	.st1{fill:#FFFFFF;}
	.st2{fill:#E59C00;}
	.st3{fill:#E1694F;}
	.st4{fill:#6796CF;}
	.st5{fill:#6EC3BF;}
	.st6{fill:#61B87A;}
</style>
<g>
	<path class="st4" d="M9.64,24c0,0,9.64-9.04,9.64-14.36C19.28,4.32,14.96,0,9.64,0S0,4.32,0,9.64C0,14.97,9.64,24,9.64,24"/>
</g>
<g>
	<path class="st1" d="M5.76,9.25h0.78c0.62,0,0.93-0.3,0.93-0.91c0-0.24-0.07-0.43-0.22-0.58S6.89,7.54,6.62,7.54
		c-0.22,0-0.41,0.06-0.57,0.19S5.81,8.02,5.81,8.21H4.15c0-0.38,0.1-0.71,0.31-1.01c0.21-0.3,0.5-0.53,0.87-0.69
		c0.37-0.17,0.78-0.25,1.23-0.25c0.8,0,1.42,0.18,1.88,0.55s0.68,0.87,0.68,1.5c0,0.31-0.09,0.6-0.28,0.87
		c-0.19,0.27-0.46,0.5-0.82,0.67c0.38,0.14,0.68,0.35,0.9,0.63c0.22,0.28,0.32,0.63,0.32,1.04c0,0.64-0.25,1.15-0.74,1.54
		s-1.14,0.58-1.94,0.58c-0.47,0-0.91-0.09-1.31-0.27c-0.4-0.18-0.71-0.43-0.91-0.74c-0.21-0.32-0.31-0.68-0.31-1.08H5.7
		c0,0.22,0.09,0.41,0.27,0.57c0.18,0.16,0.4,0.24,0.65,0.24c0.29,0,0.53-0.08,0.7-0.24s0.26-0.37,0.26-0.62
		c0-0.36-0.09-0.62-0.27-0.77c-0.18-0.15-0.43-0.23-0.75-0.23H5.76V9.25z"/>
	<path class="st1" d="M15.08,13.53h-5v-1.08l2.3-2.42c0.57-0.65,0.85-1.16,0.85-1.54c0-0.31-0.07-0.54-0.2-0.7
		c-0.13-0.16-0.33-0.24-0.58-0.24c-0.25,0-0.46,0.11-0.62,0.32c-0.16,0.22-0.24,0.48-0.24,0.8H9.93c0-0.44,0.11-0.85,0.33-1.22
		s0.52-0.66,0.92-0.87c0.39-0.21,0.83-0.31,1.31-0.31c0.77,0,1.37,0.18,1.79,0.54c0.42,0.36,0.63,0.87,0.63,1.54
		c0,0.28-0.05,0.56-0.16,0.82c-0.1,0.27-0.27,0.55-0.49,0.84s-0.58,0.69-1.07,1.18l-0.93,1.07h2.82V13.53z"/>
</g>
</svg>
