<?xml version="1.0" encoding="utf-8"?>
<!-- Generator: Adobe Illustrator 26.0.2, SVG Export Plug-In . SVG Version: 6.00 Build 0)  -->
<svg version="1.1" id="Ebene_1" xmlns="http://www.w3.org/2000/svg" xmlns:xlink="http://www.w3.org/1999/xlink" x="0px" y="0px"
	 viewBox="0 0 19.28 24" style="enable-background:new 0 0 19.28 24;" xml:space="preserve">
<style type="text/css">
	.st0{fill:#DF8000;}
	.st1{fill:#FFFFFF;}
	.st2{fill:#E59C00;}
	.st3{fill:#E1694F;}
	.st4{fill:#6796CF;}
	.st5{fill:#6EC3BF;}
	.st6{fill:#61B87A;}
</style>
<g>
	<path class="st3" d="M9.64,24c0,0,9.64-9.04,9.64-14.36C19.28,4.32,14.96,0,9.64,0S0,4.32,0,9.64C0,14.97,9.64,24,9.64,24"/>
</g>
<g>
	<path class="st1" d="M7.39,10.03l0.44-3.67h4.19v1.29H9.18L9.01,9.08C9.13,9.01,9.29,8.95,9.48,8.9s0.38-0.08,0.56-0.08
		c0.71,0,1.26,0.21,1.64,0.63c0.38,0.42,0.57,1.01,0.57,1.77c0,0.46-0.1,0.88-0.31,1.25s-0.49,0.66-0.86,0.86
		c-0.37,0.2-0.81,0.3-1.31,0.3c-0.45,0-0.87-0.09-1.26-0.28c-0.39-0.18-0.7-0.44-0.93-0.76c-0.22-0.32-0.33-0.69-0.33-1.09h1.66
		c0.02,0.26,0.1,0.47,0.25,0.62c0.15,0.15,0.35,0.23,0.6,0.23c0.56,0,0.84-0.41,0.84-1.24c0-0.76-0.34-1.14-1.02-1.14
		c-0.39,0-0.68,0.12-0.87,0.37L7.39,10.03z"/>
</g>
</svg>
