<?xml version="1.0" encoding="utf-8"?>
<!-- Generator: Adobe Illustrator 26.0.2, SVG Export Plug-In . SVG Version: 6.00 Build 0)  -->
<svg version="1.1" id="Ebene_1" xmlns="http://www.w3.org/2000/svg" xmlns:xlink="http://www.w3.org/1999/xlink" x="0px" y="0px"
	 viewBox="0 0 19.28 24" style="enable-background:new 0 0 19.28 24;" xml:space="preserve">
<style type="text/css">
	.st0{fill:#DF8000;}
	.st1{fill:#FFFFFF;}
	.st2{fill:#d7768d;}
	.st3{fill:#E1694F;}
	.st4{fill:#6796CF;}
	.st5{fill:#6EC3BF;}
	.st6{fill:#61B87A;}
</style>
<g>
	<path class="st2" d="M9.64,24c0,0,9.64-9.04,9.64-14.36C19.28,4.32,14.96,0,9.64,0S0,4.32,0,9.64C0,14.97,9.64,24,9.64,24"/>
</g>
<g>
	<path class="st1" d="M12.12,8.28c0,0.35-0.09,0.66-0.26,0.92c-0.17,0.27-0.41,0.48-0.71,0.64c0.34,0.17,0.61,0.4,0.81,0.69
		s0.3,0.63,0.3,1.03c0,0.64-0.22,1.15-0.66,1.52c-0.44,0.37-1.05,0.56-1.82,0.56c-0.78,0-1.39-0.19-1.84-0.56
		c-0.45-0.37-0.67-0.88-0.67-1.51c0-0.38,0.1-0.72,0.3-1.02c0.2-0.3,0.48-0.53,0.84-0.7C8.09,9.68,7.85,9.47,7.68,9.2
		C7.51,8.94,7.42,8.63,7.42,8.28c0-0.62,0.21-1.12,0.64-1.48c0.42-0.36,0.99-0.54,1.71-0.54c0.73,0,1.3,0.18,1.72,0.54
		C11.91,7.17,12.12,7.66,12.12,8.28z M10.6,11.43c0-0.3-0.08-0.52-0.23-0.68c-0.15-0.16-0.35-0.24-0.6-0.24
		c-0.25,0-0.45,0.08-0.6,0.24c-0.15,0.16-0.23,0.39-0.23,0.68c0,0.29,0.08,0.51,0.23,0.68c0.16,0.17,0.36,0.25,0.61,0.25
		c0.25,0,0.44-0.08,0.6-0.25S10.6,11.72,10.6,11.43z M9.77,7.54c-0.22,0-0.39,0.07-0.51,0.22C9.14,7.91,9.08,8.11,9.08,8.37
		c0,0.26,0.06,0.46,0.18,0.62s0.29,0.24,0.52,0.24c0.23,0,0.4-0.08,0.51-0.24s0.17-0.36,0.17-0.62s-0.06-0.46-0.17-0.61
		C10.17,7.62,10,7.54,9.77,7.54z"/>
</g>
</svg>
