<?xml version="1.0" encoding="utf-8"?>
<!-- Generator: Adobe Illustrator 26.0.2, SVG Export Plug-In . SVG Version: 6.00 Build 0)  -->
<svg version="1.1" id="Ebene_1" xmlns="http://www.w3.org/2000/svg" xmlns:xlink="http://www.w3.org/1999/xlink" x="0px" y="0px"
	 viewBox="0 0 19.28 24" style="enable-background:new 0 0 19.28 24;" xml:space="preserve">
<style type="text/css">
	.st0{fill:#DF8000;}
	.st1{fill:#FFFFFF;}
	.st2{fill:#E59C00;}
	.st3{fill:#E1694F;}
	.st4{fill:#6796CF;}
	.st5{fill:#6EC3BF;}
	.st6{fill:#61B87A;}
</style>
<g>
	<path class="st3" d="M9.64,24c0,0,9.64-9.04,9.64-14.36C19.28,4.32,14.96,0,9.64,0S0,4.32,0,9.64C0,14.97,9.64,24,9.64,24"/>
</g>
<g>
	<path class="st1" d="M5.76,9.25h0.78c0.62,0,0.93-0.3,0.93-0.91c0-0.24-0.07-0.43-0.22-0.58S6.89,7.54,6.62,7.54
		c-0.22,0-0.41,0.06-0.57,0.19C5.89,7.86,5.81,8.02,5.81,8.21H4.15c0-0.38,0.1-0.71,0.31-1.01c0.21-0.3,0.5-0.53,0.87-0.69
		c0.37-0.17,0.78-0.25,1.23-0.25c0.8,0,1.42,0.18,1.88,0.55c0.46,0.36,0.68,0.87,0.68,1.5c0,0.31-0.09,0.6-0.28,0.87
		c-0.19,0.27-0.46,0.5-0.82,0.67c0.38,0.14,0.68,0.35,0.9,0.63c0.22,0.28,0.33,0.63,0.33,1.04c0,0.64-0.25,1.15-0.74,1.54
		s-1.14,0.58-1.94,0.58c-0.47,0-0.9-0.09-1.31-0.27s-0.71-0.43-0.91-0.74s-0.31-0.68-0.31-1.08H5.7c0,0.22,0.09,0.41,0.27,0.57
		c0.18,0.16,0.4,0.24,0.66,0.24c0.29,0,0.52-0.08,0.7-0.24s0.26-0.37,0.26-0.62c0-0.36-0.09-0.62-0.27-0.77
		c-0.18-0.15-0.43-0.23-0.75-0.23H5.76V9.25z"/>
	<path class="st1" d="M14.09,6.26v1.3h-0.07c-0.62,0-1.13,0.15-1.53,0.45s-0.64,0.71-0.74,1.24c0.37-0.37,0.85-0.55,1.42-0.55
		c0.62,0,1.11,0.23,1.48,0.68c0.37,0.45,0.55,1.05,0.55,1.78c0,0.46-0.11,0.87-0.32,1.25s-0.51,0.68-0.9,0.89s-0.81,0.32-1.28,0.32
		c-0.51,0-0.96-0.12-1.36-0.35c-0.4-0.23-0.71-0.56-0.94-0.99c-0.22-0.43-0.34-0.93-0.34-1.49v-0.67c0-0.74,0.16-1.4,0.47-1.99
		s0.77-1.05,1.36-1.39c0.59-0.33,1.24-0.5,1.95-0.5H14.09z M12.59,9.97c-0.22,0-0.4,0.05-0.55,0.15s-0.26,0.23-0.33,0.37v0.5
		c0,0.91,0.31,1.36,0.94,1.36c0.25,0,0.46-0.11,0.63-0.34c0.17-0.23,0.25-0.51,0.25-0.85c0-0.35-0.09-0.64-0.26-0.86
		C13.1,10.08,12.88,9.97,12.59,9.97z"/>
</g>
</svg>
