<?xml version="1.0" encoding="utf-8"?>
<!-- Generator: Adobe Illustrator 26.0.2, SVG Export Plug-In . SVG Version: 6.00 Build 0)  -->
<svg version="1.1" id="Ebene_1" xmlns="http://www.w3.org/2000/svg" xmlns:xlink="http://www.w3.org/1999/xlink" x="0px" y="0px"
	 viewBox="0 0 19.28 24" style="enable-background:new 0 0 19.28 24;" xml:space="preserve">
<style type="text/css">
	.st0{fill:#DF8000;}
	.st1{fill:#FFFFFF;}
	.st2{fill:#E59C00;}
	.st3{fill:#E1694F;}
	.st4{fill:#6796CF;}
	.st5{fill:#6EC3BF;}
	.st6{fill:#61B87A;}
</style>
<g>
	<path class="st3" d="M9.64,24c0,0,9.64-9.04,9.64-14.36C19.28,4.32,14.96,0,9.64,0S0,4.32,0,9.64C0,14.97,9.64,24,9.64,24"/>
</g>
<g>
	<path class="st1" d="M9.24,13.53h-5v-1.08l2.3-2.42C7.11,9.38,7.4,8.87,7.4,8.49c0-0.31-0.07-0.54-0.2-0.7
		C7.06,7.62,6.87,7.54,6.61,7.54c-0.25,0-0.46,0.11-0.62,0.32c-0.16,0.22-0.24,0.48-0.24,0.8H4.09c0-0.44,0.11-0.85,0.33-1.22
		s0.52-0.66,0.92-0.87c0.39-0.21,0.83-0.31,1.31-0.31c0.77,0,1.37,0.18,1.79,0.54c0.42,0.36,0.63,0.87,0.63,1.54
		c0,0.28-0.05,0.56-0.16,0.82s-0.27,0.55-0.49,0.84s-0.58,0.69-1.07,1.18l-0.93,1.07h2.82V13.53z"/>
	<path class="st1" d="M14.09,6.26v1.3h-0.07c-0.62,0-1.13,0.15-1.53,0.45c-0.4,0.3-0.64,0.71-0.74,1.24
		c0.37-0.37,0.85-0.55,1.42-0.55c0.62,0,1.11,0.23,1.48,0.68c0.37,0.45,0.55,1.05,0.55,1.78c0,0.46-0.11,0.87-0.32,1.25
		s-0.52,0.68-0.9,0.89c-0.39,0.21-0.81,0.32-1.28,0.32c-0.51,0-0.96-0.12-1.36-0.35c-0.4-0.23-0.71-0.56-0.94-0.99
		s-0.34-0.93-0.34-1.49v-0.67c0-0.74,0.16-1.4,0.47-1.99c0.32-0.59,0.77-1.05,1.36-1.39s1.24-0.5,1.95-0.5H14.09z M12.59,9.97
		c-0.22,0-0.4,0.05-0.55,0.15s-0.26,0.23-0.33,0.37v0.5c0,0.91,0.31,1.36,0.94,1.36c0.25,0,0.46-0.11,0.63-0.34
		c0.17-0.23,0.25-0.51,0.25-0.85c0-0.35-0.09-0.64-0.26-0.86S12.88,9.97,12.59,9.97z"/>
</g>
</svg>
