<?xml version="1.0" encoding="utf-8"?>
<!-- Generator: Adobe Illustrator 26.0.2, SVG Export Plug-In . SVG Version: 6.00 Build 0)  -->
<svg version="1.1" id="Ebene_1" xmlns="http://www.w3.org/2000/svg" xmlns:xlink="http://www.w3.org/1999/xlink" x="0px" y="0px"
	 viewBox="0 0 19.28 24" style="enable-background:new 0 0 19.28 24;" xml:space="preserve">
<style type="text/css">
	.st0{fill:#DF8000;}
	.st1{fill:#FFFFFF;}
	.st2{fill:#d7768d;}
	.st3{fill:#E1694F;}
	.st4{fill:#6796CF;}
	.st5{fill:#6EC3BF;}
	.st6{fill:#61B87A;}
</style>
<g>
	<path class="st2" d="M9.64,24c0,0,9.64-9.04,9.64-14.36C19.28,4.32,14.96,0,9.64,0S0,4.32,0,9.64C0,14.97,9.64,24,9.64,24"/>
</g>
<g>
	<path class="st1" d="M7.92,13.53H6.25v-5.3L4.62,8.71V7.45l3.14-1.09h0.15V13.53z"/>
	<path class="st1" d="M13.35,10.76c-0.36,0.32-0.76,0.48-1.2,0.48c-0.65,0-1.17-0.22-1.54-0.66c-0.38-0.44-0.57-1.03-0.57-1.76
		c0-0.46,0.11-0.89,0.32-1.28c0.21-0.39,0.51-0.71,0.9-0.93s0.81-0.34,1.28-0.34c0.47,0,0.9,0.12,1.28,0.36
		c0.38,0.24,0.68,0.57,0.89,1.01c0.21,0.43,0.32,0.94,0.33,1.5v0.63c0,0.79-0.16,1.48-0.47,2.06c-0.31,0.58-0.75,1.03-1.33,1.34
		s-1.24,0.47-2.01,0.47h-0.1V12.3l0.31,0C12.58,12.24,13.22,11.73,13.35,10.76z M12.59,10.05c0.36,0,0.62-0.16,0.78-0.47V8.89
		c0-0.46-0.08-0.8-0.23-1.02c-0.15-0.22-0.36-0.33-0.62-0.33c-0.23,0-0.43,0.12-0.59,0.37c-0.16,0.25-0.24,0.55-0.24,0.91
		c0,0.37,0.08,0.67,0.24,0.89C12.1,9.94,12.31,10.05,12.59,10.05z"/>
</g>
</svg>
