<?xml version="1.0" encoding="utf-8"?>
<!-- Generator: Adobe Illustrator 26.0.2, SVG Export Plug-In . SVG Version: 6.00 Build 0)  -->
<svg version="1.1" id="Ebene_1" xmlns="http://www.w3.org/2000/svg" xmlns:xlink="http://www.w3.org/1999/xlink" x="0px" y="0px"
	 viewBox="0 0 41.69 59.09" style="enable-background:new 0 0 41.69 59.09;" xml:space="preserve">
<style type="text/css">
	.st0{clip-path:url(#SVGID_00000009556259033195234360000013804154018191812766_);}
	.st1{fill:#61B87A;}
	.st2{fill:#2B2961;}
	.st3{clip-path:url(#SVGID_00000108995250505988480960000004212104212830035882_);}
	.st4{fill:#FFFFFF;}
	.st5{clip-path:url(#SVGID_00000051372802606182786240000018281245551992126350_);}
	.st6{clip-path:url(#SVGID_00000096758322434112636440000006718066866948819867_);}
	.st7{clip-path:url(#SVGID_00000075131386522414865070000005171030841908461236_);}
	.st8{clip-path:url(#SVGID_00000046327341174552760630000014486626702398072501_);}
	.st9{clip-path:url(#SVGID_00000082344709016049102700000018110749377789146264_);}
	.st10{clip-path:url(#SVGID_00000064337171558617962380000014912456527264298173_);}
	.st11{clip-path:url(#SVGID_00000162350880368205040850000015024933320485157805_);}
	.st12{clip-path:url(#SVGID_00000026143265125774589840000015357342500392390844_);}
	.st13{clip-path:url(#SVGID_00000088130811733475233040000004350049558488930973_);}
	.st14{clip-path:url(#SVGID_00000078754387745220903960000012617792476065330575_);}
	.st15{clip-path:url(#SVGID_00000067228104968450156470000013030744922962340283_);}
	.st16{clip-path:url(#SVGID_00000104682101133564676840000011268713040828379054_);}
	.st17{clip-path:url(#SVGID_00000008862691820799908190000016325576862207144883_);}
	.st18{clip-path:url(#SVGID_00000028326899297343534820000017369548079428357252_);}
	.st19{clip-path:url(#SVGID_00000045620335101155727970000008458274724260320653_);}
	.st20{clip-path:url(#SVGID_00000093173087373135518970000004137632424778655147_);}
	.st21{clip-path:url(#SVGID_00000111185432255174256200000000388766722987415179_);}
	.st22{clip-path:url(#SVGID_00000017509323620998315930000014891770302721890689_);}
	.st23{clip-path:url(#SVGID_00000090261586668507955090000016061926661461420950_);}
	.st24{clip-path:url(#SVGID_00000070833213331605900270000009216676335166921898_);}
	.st25{clip-path:url(#SVGID_00000160890504275154843780000007081332206730619033_);}
	.st26{clip-path:url(#SVGID_00000008864922598122559970000011434156643747803820_);}
	.st27{clip-path:url(#SVGID_00000132052160510576222450000009847822858646459285_);}
	.st28{clip-path:url(#SVGID_00000138554072904776732130000006227767690626520740_);}
	.st29{clip-path:url(#SVGID_00000142888710809781038780000000068488963972695732_);}
	.st30{clip-path:url(#SVGID_00000029034404073965725360000013862219033325404847_);}
	.st31{clip-path:url(#SVGID_00000147910293564044975410000017730939555299463611_);}
	.st32{clip-path:url(#SVGID_00000103224604509167301070000016595274024106792840_);}
	.st33{clip-path:url(#SVGID_00000176034704197842750800000006471604018782395575_);}
	.st34{clip-path:url(#SVGID_00000026870247698819333400000006457074265457581207_);}
	.st35{clip-path:url(#SVGID_00000021115842594170306360000004150528243540030592_);}
	.st36{clip-path:url(#SVGID_00000035498105148397629810000003882959337213511347_);}
	.st37{clip-path:url(#SVGID_00000098179879171045345880000011564883040840393655_);}
	.st38{clip-path:url(#SVGID_00000167361940613223579960000017152533015167832216_);}
	.st39{clip-path:url(#SVGID_00000179620250395998198230000000967399600526975380_);}
	.st40{clip-path:url(#SVGID_00000105413951814795348230000014265037113366305673_);}
	.st41{clip-path:url(#SVGID_00000024684740381209960770000003486649181067828611_);}
	.st42{clip-path:url(#SVGID_00000129911876652945547530000015720213052265672329_);}
	.st43{clip-path:url(#SVGID_00000152964569558555887710000006517334810407547535_);}
	.st44{clip-path:url(#SVGID_00000127722171087970196910000015208362309981073073_);}
	.st45{clip-path:url(#SVGID_00000039848554622304225040000001731117248290072722_);}
	.st46{clip-path:url(#SVGID_00000172411653074199054750000001330538210343986310_);}
	.st47{clip-path:url(#SVGID_00000151532663394507056190000009134807061478534843_);}
	.st48{clip-path:url(#SVGID_00000028285421204652994420000007476038738885553334_);}
	.st49{clip-path:url(#SVGID_00000163030962758342178230000017390284177243080375_);}
	.st50{clip-path:url(#SVGID_00000097489916574092611840000012336236510493476783_);}
	.st51{clip-path:url(#SVGID_00000100343194187917223700000008211878309654235012_);}
	.st52{clip-path:url(#SVGID_00000155847674561723434540000004655018465335068076_);}
	.st53{clip-path:url(#SVGID_00000165227467283892422240000003264975425880357774_);}
	.st54{clip-path:url(#SVGID_00000041295907290229741320000017810238733326928826_);}
	.st55{clip-path:url(#SVGID_00000104664504202893877510000013480580857059875995_);}
	.st56{clip-path:url(#SVGID_00000088107383331223886960000014085015579234209461_);}
	.st57{clip-path:url(#SVGID_00000049934983934016568650000006619290146477756577_);}
	.st58{clip-path:url(#SVGID_00000022519478388894833540000014784023221892195483_);}
	.st59{clip-path:url(#SVGID_00000152958972009485868630000005437481502961026464_);}
	.st60{clip-path:url(#SVGID_00000114048176699762783940000012504214409859765433_);}
	.st61{clip-path:url(#SVGID_00000042016210394098503640000013143247729315920794_);}
	.st62{clip-path:url(#SVGID_00000031195854721065566830000013693064792953442701_);}
</style>
<g>
	<g>
		<defs>
			<rect id="SVGID_00000049939987989698951940000007735414982747438769_" width="41.69" height="59.09"/>
		</defs>
		<clipPath id="SVGID_00000021091476719054457530000012212701107457831312_">
			<use xlink:href="#SVGID_00000049939987989698951940000007735414982747438769_"  style="overflow:visible;"/>
		</clipPath>
		<g style="clip-path:url(#SVGID_00000021091476719054457530000012212701107457831312_);">
			<path class="st4" d="M13.84,5.22c0,2.72-2.18,4.92-4.87,4.92c-2.69,0-4.87-2.2-4.87-4.92c0-2.72,2.18-4.92,4.87-4.92
				C11.66,0.3,13.84,2.5,13.84,5.22"/>
		</g>
		<g style="clip-path:url(#SVGID_00000021091476719054457530000012212701107457831312_);">
			<path class="st2" d="M8.98,10.45c-2.85,0-5.17-2.34-5.17-5.22S6.13,0,8.98,0c2.85,0,5.17,2.34,5.17,5.22S11.83,10.45,8.98,10.45z
				 M8.98,0.6c-2.52,0-4.57,2.07-4.57,4.62s2.05,4.62,4.57,4.62c2.52,0,4.57-2.07,4.57-4.62S11.5,0.6,8.98,0.6z"/>
		</g>
		<g style="clip-path:url(#SVGID_00000021091476719054457530000012212701107457831312_);">
			<path class="st4" d="M37.58,5.22c0,2.72-2.18,4.92-4.87,4.92c-2.69,0-4.87-2.2-4.87-4.92c0-2.72,2.18-4.92,4.87-4.92
				C35.4,0.3,37.58,2.5,37.58,5.22"/>
		</g>
		<g style="clip-path:url(#SVGID_00000021091476719054457530000012212701107457831312_);">
			<path class="st2" d="M32.71,10.45c-2.85,0-5.17-2.34-5.17-5.22S29.86,0,32.71,0c2.85,0,5.17,2.34,5.17,5.22
				S35.56,10.45,32.71,10.45z M32.71,0.6c-2.52,0-4.57,2.07-4.57,4.62s2.05,4.62,4.57,4.62c2.52,0,4.57-2.07,4.57-4.62
				S35.23,0.6,32.71,0.6z"/>
		</g>
		<g style="clip-path:url(#SVGID_00000021091476719054457530000012212701107457831312_);">
			<path class="st4" d="M17.65,20.9c-0.03-4.88-3.98-9.23-8.7-9.19C4.17,11.74,0.3,16.03,0.3,20.9v31.37h17.29L17.65,20.9z"/>
		</g>
		<g style="clip-path:url(#SVGID_00000021091476719054457530000012212701107457831312_);">
			<path class="st2" d="M17.59,52.56H0.3c-0.17,0-0.3-0.13-0.3-0.3V20.9c0-5.11,4.1-9.46,8.95-9.49c2.22-0.05,4.37,0.9,6.07,2.57
				c1.85,1.83,2.93,4.35,2.94,6.92c0,0,0,0,0,0l-0.06,31.36C17.89,52.43,17.76,52.56,17.59,52.56z M0.6,51.96h16.69l0.06-31.06
				c-0.01-2.41-1.02-4.78-2.76-6.5c-1.58-1.56-3.56-2.4-5.64-2.4c-4.53,0.03-8.35,4.1-8.35,8.89V51.96z"/>
		</g>
		<g style="clip-path:url(#SVGID_00000021091476719054457530000012212701107457831312_);">
			<path class="st4" d="M41.39,20.9c-0.03-4.88-3.98-9.23-8.71-9.19c-4.78,0.03-8.65,4.33-8.65,9.19v31.37h17.29L41.39,20.9z"/>
		</g>
		<g style="clip-path:url(#SVGID_00000021091476719054457530000012212701107457831312_);">
			<path class="st2" d="M41.33,52.56H24.04c-0.17,0-0.3-0.13-0.3-0.3V20.9c0-5.11,4.1-9.46,8.94-9.49c2.22-0.05,4.37,0.9,6.07,2.57
				c1.85,1.83,2.93,4.35,2.94,6.92c0,0,0,0,0,0l-0.06,31.36C41.63,52.43,41.5,52.56,41.33,52.56z M24.34,51.96h16.69l0.06-31.06
				c-0.01-2.41-1.02-4.78-2.76-6.5c-1.58-1.56-3.56-2.4-5.64-2.4c-4.53,0.03-8.35,4.1-8.35,8.89V51.96z"/>
		</g>
		<g style="clip-path:url(#SVGID_00000021091476719054457530000012212701107457831312_);">
			<path class="st1" d="M9.13,11.73c1.8,0,3.48,0.34,4.87,1.31V6.76l-0.51,0.71c-0.8,1.66-2.45,2.81-4.36,2.81S5.86,9.47,5.07,7.81
				L4.73,7.47v5.5C6.02,12.19,7.52,11.73,9.13,11.73"/>
		</g>
		<g style="clip-path:url(#SVGID_00000021091476719054457530000012212701107457831312_);">
			<path class="st1" d="M14,13.17c-0.02,0-0.05-0.01-0.07-0.02c-1.24-0.87-2.81-1.29-4.8-1.29c-1.52,0-3.01,0.42-4.33,1.22
				c-0.04,0.02-0.09,0.02-0.13,0c-0.04-0.02-0.06-0.06-0.06-0.11v-5.5c0-0.05,0.03-0.1,0.08-0.12c0.04-0.02,0.1-0.01,0.14,0.03
				l0.34,0.34c0.01,0.01,0.02,0.02,0.02,0.03c0.77,1.61,2.06,2.4,3.95,2.4c1.81,0,3.44-1.05,4.25-2.74l0.52-0.73
				c0.03-0.04,0.09-0.06,0.14-0.05c0.05,0.02,0.09,0.06,0.09,0.12v6.29c0,0.05-0.03,0.09-0.07,0.11
				C14.04,13.17,14.02,13.17,14,13.17z M9.13,11.61c1.93,0,3.49,0.39,4.74,1.2V7.15l-0.28,0.39c-0.84,1.76-2.55,2.86-4.46,2.86
				c-1.96,0-3.36-0.85-4.16-2.52L4.86,7.77v4.98C6.17,12.01,7.64,11.61,9.13,11.61z"/>
		</g>
		<g style="clip-path:url(#SVGID_00000021091476719054457530000012212701107457831312_);">
			<path class="st1" d="M32.87,10.18c1.8,0,3.48,0.2,4.87,0.78V7.21l-0.51,0.42c-0.79,0.99-2.57,2.57-4.49,2.57
				c-1.91,0-3.58-1.04-4.11-2.13l-0.16-0.44v3.28C29.76,10.45,31.26,10.18,32.87,10.18"/>
		</g>
		<g style="clip-path:url(#SVGID_00000021091476719054457530000012212701107457831312_);">
			<path class="st1" d="M37.73,11.08c-0.02,0-0.03,0-0.05-0.01c-1.19-0.49-2.66-0.74-4.51-0.77c-0.29,0.04-0.59,0.03-0.87,0.01
				c-1.33,0.05-2.63,0.3-3.8,0.72c-0.04,0.01-0.08,0.01-0.11-0.02c-0.03-0.02-0.05-0.06-0.05-0.1V7.64c0-0.06,0.04-0.11,0.1-0.12
				c0.06-0.01,0.12,0.02,0.14,0.08l0.16,0.44c0.45,0.91,1.82,1.89,3.56,2.03c0.29-0.01,0.58-0.01,0.86-0.01
				c1.59-0.19,3.1-1.43,3.96-2.5l0.52-0.44c0.04-0.03,0.09-0.04,0.13-0.02c0.04,0.02,0.07,0.06,0.07,0.11v3.75
				c0,0.04-0.02,0.08-0.06,0.1C37.78,11.08,37.76,11.08,37.73,11.08z M34.11,10.09c1.37,0.08,2.53,0.31,3.5,0.69V7.48l-0.3,0.25
				C36.6,8.62,35.42,9.63,34.11,10.09z M28.59,8.28v2.46c0.85-0.29,1.76-0.49,2.71-0.6C30.02,9.79,29.03,9.03,28.59,8.28z"/>
		</g>
		<g style="clip-path:url(#SVGID_00000021091476719054457530000012212701107457831312_);">
			<path class="st2" d="M13.84,13.64c-0.06,0-0.12-0.02-0.17-0.05c-1.44-0.98-3.31-1.59-4.88-1.59c-1.61,0-3.13,0.48-4.52,1.42
				c-0.09,0.06-0.21,0.07-0.31,0.02c-0.1-0.05-0.16-0.15-0.16-0.27V5.45h0.6v7.18c1.36-0.82,2.83-1.23,4.39-1.23
				c1.55,0,3.28,0.51,4.75,1.39V5.36h0.6v7.98c0,0.11-0.06,0.21-0.16,0.27C13.94,13.63,13.89,13.64,13.84,13.64z"/>
		</g>
		<g style="clip-path:url(#SVGID_00000021091476719054457530000012212701107457831312_);">
			<path class="st2" d="M27.84,11.7c-0.04,0-0.08-0.01-0.12-0.02c-0.11-0.05-0.18-0.16-0.18-0.28V5.45h0.6v5.38
				c2.04-1.08,7.09-0.94,9.14,0.04V5.36h0.6v6.04c0,0.11-0.07,0.22-0.17,0.27c-0.1,0.05-0.23,0.04-0.32-0.03
				c-1.49-1.17-7.89-1.4-9.34-0.02C27.99,11.67,27.92,11.7,27.84,11.7z"/>
		</g>
	</g>
	<g>
		<rect x="1.31" y="43.71" class="st1" width="16.46" height="8.65"/>
	</g>
	<g>
		<path class="st1" d="M17.77,52.49H1.31c-0.07,0-0.12-0.06-0.12-0.12v-8.65c0-0.07,0.06-0.12,0.12-0.12h16.46
			c0.07,0,0.12,0.06,0.12,0.12v8.65C17.9,52.43,17.84,52.49,17.77,52.49z M1.44,52.24h16.21v-8.4H1.44V52.24z"/>
	</g>
	<g>
		<rect x="25.05" y="43.71" class="st1" width="16.46" height="8.65"/>
	</g>
	<g>
		<defs>
			<rect id="SVGID_00000030477731749115324160000017339542723788610444_" width="41.69" height="59.09"/>
		</defs>
		<clipPath id="SVGID_00000088850580582551455120000009324113028059587203_">
			<use xlink:href="#SVGID_00000030477731749115324160000017339542723788610444_"  style="overflow:visible;"/>
		</clipPath>
		<g style="clip-path:url(#SVGID_00000088850580582551455120000009324113028059587203_);">
			<path class="st1" d="M41.51,52.49H25.05c-0.07,0-0.12-0.06-0.12-0.12v-8.65c0-0.07,0.06-0.12,0.12-0.12h16.46
				c0.07,0,0.12,0.06,0.12,0.12v8.65C41.63,52.43,41.58,52.49,41.51,52.49z M25.17,52.24h16.21v-8.4H25.17V52.24z"/>
		</g>
		<g style="clip-path:url(#SVGID_00000088850580582551455120000009324113028059587203_);">
			<rect x="0.41" y="43.49" class="st2" width="17.33" height="0.4"/>
		</g>
		<g style="clip-path:url(#SVGID_00000088850580582551455120000009324113028059587203_);">
			<rect x="24.15" y="43.49" class="st2" width="17.33" height="0.4"/>
		</g>
		<g style="clip-path:url(#SVGID_00000088850580582551455120000009324113028059587203_);">
			<path class="st2" d="M13.98,59.09c-0.17,0-0.3-0.13-0.3-0.3v-6.23c0-0.17,0.13-0.3,0.3-0.3s0.3,0.13,0.3,0.3v6.23
				C14.28,58.95,14.14,59.09,13.98,59.09z M3.98,59.09c-0.17,0-0.3-0.13-0.3-0.3v-6.23c0-0.17,0.13-0.3,0.3-0.3
				c0.17,0,0.3,0.13,0.3,0.3v6.23C4.28,58.95,4.14,59.09,3.98,59.09z"/>
		</g>
		<g style="clip-path:url(#SVGID_00000088850580582551455120000009324113028059587203_);">
			<path class="st2" d="M37.71,59.09c-0.17,0-0.3-0.13-0.3-0.3v-6.23c0-0.17,0.13-0.3,0.3-0.3s0.3,0.13,0.3,0.3v6.23
				C38.01,58.95,37.88,59.09,37.71,59.09z M27.71,59.09c-0.17,0-0.3-0.13-0.3-0.3v-6.23c0-0.17,0.13-0.3,0.3-0.3s0.3,0.13,0.3,0.3
				v6.23C28.01,58.95,27.88,59.09,27.71,59.09z"/>
		</g>
	</g>
	<g>
		<path class="st2" d="M3.95,29.37c-0.19,0-0.35-0.16-0.35-0.35v-8.39c0-0.19,0.16-0.35,0.35-0.35c0.19,0,0.35,0.16,0.35,0.35v8.39
			C4.3,29.21,4.15,29.37,3.95,29.37z"/>
	</g>
	<g>
		<path class="st2" d="M27.69,29.37c-0.19,0-0.35-0.16-0.35-0.35v-8.39c0-0.19,0.16-0.35,0.35-0.35s0.35,0.16,0.35,0.35v8.39
			C28.04,29.21,27.88,29.37,27.69,29.37z"/>
	</g>
	<g>
		<defs>
			<rect id="SVGID_00000163786967776816268450000009317162924368305055_" width="41.69" height="59.09"/>
		</defs>
		<clipPath id="SVGID_00000047738579799222758080000010951796163509520519_">
			<use xlink:href="#SVGID_00000163786967776816268450000009317162924368305055_"  style="overflow:visible;"/>
		</clipPath>
		<g style="clip-path:url(#SVGID_00000047738579799222758080000010951796163509520519_);">
			<path class="st1" d="M13.86,3.99c-0.57-1.87-2.3-3.23-4.34-3.23c-2.05,0-3.78,1.36-4.34,3.23H13.86z"/>
		</g>
		<g style="clip-path:url(#SVGID_00000047738579799222758080000010951796163509520519_);">
			<path class="st1" d="M13.86,4.11H5.18c-0.04,0-0.08-0.02-0.1-0.05C5.06,4.03,5.05,3.99,5.06,3.95c0.6-1.99,2.39-3.32,4.46-3.32
				c2.07,0,3.86,1.34,4.46,3.32c0.01,0.04,0,0.08-0.02,0.11C13.94,4.09,13.9,4.11,13.86,4.11z M5.35,3.86h8.34
				c-0.62-1.79-2.27-2.98-4.17-2.98C7.62,0.88,5.97,2.07,5.35,3.86z"/>
		</g>
		<g style="clip-path:url(#SVGID_00000047738579799222758080000010951796163509520519_);">
			<path class="st1" d="M37.6,3.99c-0.57-1.87-2.3-3.23-4.34-3.23c-2.05,0-3.78,1.36-4.34,3.23H37.6z"/>
		</g>
		<g style="clip-path:url(#SVGID_00000047738579799222758080000010951796163509520519_);">
			<path class="st1" d="M37.6,4.11h-8.68c-0.04,0-0.08-0.02-0.1-0.05c-0.02-0.03-0.03-0.07-0.02-0.11c0.6-1.99,2.39-3.32,4.46-3.32
				c2.07,0,3.86,1.34,4.46,3.32c0.01,0.04,0,0.08-0.02,0.11C37.68,4.09,37.64,4.11,37.6,4.11z M29.09,3.86h8.34
				c-0.62-1.79-2.27-2.98-4.17-2.98C31.36,0.88,29.7,2.07,29.09,3.86z"/>
		</g>
		<g style="clip-path:url(#SVGID_00000047738579799222758080000010951796163509520519_);">
			<path class="st2" d="M8.98,10.45c-2.85,0-5.17-2.34-5.17-5.22S6.13,0,8.98,0c2.85,0,5.17,2.34,5.17,5.22S11.83,10.45,8.98,10.45z
				 M8.98,0.6c-2.52,0-4.57,2.07-4.57,4.62s2.05,4.62,4.57,4.62c2.52,0,4.57-2.07,4.57-4.62S11.5,0.6,8.98,0.6z"/>
		</g>
		<g style="clip-path:url(#SVGID_00000047738579799222758080000010951796163509520519_);">
			<path class="st2" d="M32.71,10.45c-2.85,0-5.17-2.34-5.17-5.22S29.86,0,32.71,0c2.85,0,5.17,2.34,5.17,5.22
				S35.56,10.45,32.71,10.45z M32.71,0.6c-2.52,0-4.57,2.07-4.57,4.62s2.05,4.62,4.57,4.62c2.52,0,4.57-2.07,4.57-4.62
				S35.23,0.6,32.71,0.6z"/>
		</g>
	</g>
	<g>
		<rect x="4.33" y="3.84" class="st2" width="9.3" height="0.4"/>
	</g>
	<g>
		<rect x="28.06" y="3.84" class="st2" width="9.3" height="0.4"/>
	</g>
	<g>
		<defs>
			<rect id="SVGID_00000035529335760185363300000001931067923076403853_" width="41.69" height="59.09"/>
		</defs>
		<clipPath id="SVGID_00000106859365991338299720000011172901047007967388_">
			<use xlink:href="#SVGID_00000035529335760185363300000001931067923076403853_"  style="overflow:visible;"/>
		</clipPath>
		<g style="clip-path:url(#SVGID_00000106859365991338299720000011172901047007967388_);">
			<path class="st2" d="M7.38,5.59c0,0.15-0.12,0.26-0.26,0.26S6.86,5.74,6.86,5.59c0-0.15,0.12-0.26,0.26-0.26S7.38,5.44,7.38,5.59
				"/>
		</g>
		<g style="clip-path:url(#SVGID_00000106859365991338299720000011172901047007967388_);">
			<path class="st2" d="M31.12,5.59c0,0.15-0.12,0.26-0.26,0.26c-0.14,0-0.26-0.12-0.26-0.26c0-0.15,0.12-0.26,0.26-0.26
				C31,5.33,31.12,5.44,31.12,5.59"/>
		</g>
		<g style="clip-path:url(#SVGID_00000106859365991338299720000011172901047007967388_);">
			<path class="st2" d="M10.92,5.59c0,0.15-0.12,0.26-0.26,0.26S10.4,5.74,10.4,5.59c0-0.15,0.12-0.26,0.26-0.26
				S10.92,5.44,10.92,5.59"/>
		</g>
		<g style="clip-path:url(#SVGID_00000106859365991338299720000011172901047007967388_);">
			<path class="st2" d="M34.66,5.59c0,0.15-0.12,0.26-0.26,0.26s-0.26-0.12-0.26-0.26c0-0.15,0.12-0.26,0.26-0.26
				S34.66,5.44,34.66,5.59"/>
		</g>
	</g>
	<g>
		<path class="st2" d="M14.02,29.37c-0.19,0-0.35-0.16-0.35-0.35v-8.39c0-0.19,0.16-0.35,0.35-0.35s0.35,0.16,0.35,0.35v8.39
			C14.37,29.21,14.21,29.37,14.02,29.37z"/>
	</g>
	<g>
		<path class="st2" d="M37.76,29.37c-0.19,0-0.35-0.16-0.35-0.35v-8.39c0-0.19,0.16-0.35,0.35-0.35s0.35,0.16,0.35,0.35v8.39
			C38.1,29.21,37.95,29.37,37.76,29.37z"/>
	</g>
	<g>
		<defs>
			<rect id="SVGID_00000016058171531024372570000012809322875582972072_" width="41.69" height="59.09"/>
		</defs>
		<clipPath id="SVGID_00000053539638178772882710000014946554909708286881_">
			<use xlink:href="#SVGID_00000016058171531024372570000012809322875582972072_"  style="overflow:visible;"/>
		</clipPath>
		<g style="clip-path:url(#SVGID_00000053539638178772882710000014946554909708286881_);">
			<path class="st2" d="M17.59,52.56H0.3c-0.17,0-0.3-0.13-0.3-0.3V20.9c0-5.11,4.1-9.46,8.95-9.49c2.22-0.05,4.37,0.9,6.07,2.57
				c1.85,1.83,2.93,4.35,2.94,6.92c0,0,0,0,0,0l-0.06,31.36C17.89,52.43,17.76,52.56,17.59,52.56z M0.6,51.96h16.69l0.06-31.06
				c-0.01-2.41-1.02-4.78-2.76-6.5c-1.58-1.56-3.56-2.4-5.64-2.4c-4.53,0.03-8.35,4.1-8.35,8.89V51.96z"/>
		</g>
		<g style="clip-path:url(#SVGID_00000053539638178772882710000014946554909708286881_);">
			<path class="st2" d="M41.33,52.56H24.04c-0.17,0-0.3-0.13-0.3-0.3V20.9c0-5.11,4.1-9.46,8.94-9.49c2.22-0.05,4.37,0.9,6.07,2.57
				c1.85,1.83,2.93,4.35,2.94,6.92c0,0,0,0,0,0l-0.06,31.36C41.63,52.43,41.5,52.56,41.33,52.56z M24.34,51.96h16.69l0.06-31.06
				c-0.01-2.41-1.02-4.78-2.76-6.5c-1.58-1.56-3.56-2.4-5.64-2.4c-4.53,0.03-8.35,4.1-8.35,8.89V51.96z"/>
		</g>
	</g>
</g>
</svg>
