<?xml version="1.0" encoding="utf-8"?>
<!-- Generator: Adobe Illustrator 26.0.2, SVG Export Plug-In . SVG Version: 6.00 Build 0)  -->
<svg version="1.1" id="Ebene_1" xmlns="http://www.w3.org/2000/svg" xmlns:xlink="http://www.w3.org/1999/xlink" x="0px" y="0px"
	 viewBox="0 0 69.33 32" style="enable-background:new 0 0 69.33 32;" xml:space="preserve">
<style type="text/css">
	.st0{clip-path:url(#SVGID_00000078742482256626129120000015948329490370105787_);}
	.st1{fill:#61B87A;}
	.st2{fill:#2B2961;}
	.st3{clip-path:url(#SVGID_00000103252768367667424720000006434597659152695436_);}
	.st4{fill:#FFFFFF;}
	.st5{clip-path:url(#SVGID_00000089540251044575112680000016116983290026587306_);}
	.st6{clip-path:url(#SVGID_00000090274469102288677120000002804124126825319581_);}
	.st7{clip-path:url(#SVGID_00000003091071455546288790000007045830197930423426_);}
	.st8{clip-path:url(#SVGID_00000157276261812399378730000012550871714936770712_);}
	.st9{clip-path:url(#SVGID_00000131340903070566312580000006736065359752750267_);}
	.st10{clip-path:url(#SVGID_00000178887267583389933070000006941159412302975630_);}
	.st11{clip-path:url(#SVGID_00000035524305734310702520000012352627492629844124_);}
	.st12{clip-path:url(#SVGID_00000021833692476212703510000006202380441722290051_);}
	.st13{clip-path:url(#SVGID_00000150789749447235352890000013746601161342847387_);}
	.st14{clip-path:url(#SVGID_00000115491831300430701910000000380025381856287892_);}
	.st15{clip-path:url(#SVGID_00000166671016701784315440000005212677211321016727_);}
	.st16{clip-path:url(#SVGID_00000136409778670261957040000006152573402303536543_);}
	.st17{clip-path:url(#SVGID_00000041270929942465683360000004153564808854132099_);}
	.st18{clip-path:url(#SVGID_00000066499925579285883990000001929504019354451585_);}
	.st19{clip-path:url(#SVGID_00000090263706040583600050000007167264341482322320_);}
	.st20{clip-path:url(#SVGID_00000124849683430491405590000016067590440632054174_);}
	.st21{clip-path:url(#SVGID_00000171718282733356683280000007515107834884781976_);}
	.st22{clip-path:url(#SVGID_00000005986484956428794610000000206927125124852114_);}
	.st23{clip-path:url(#SVGID_00000085210757804760201340000001667145045699126180_);}
	.st24{clip-path:url(#SVGID_00000105393202722004396620000011468160301620676760_);}
	.st25{clip-path:url(#SVGID_00000085228041944693642040000011867958714785622457_);}
	.st26{clip-path:url(#SVGID_00000026161445930603900560000002881962735585563571_);}
	.st27{clip-path:url(#SVGID_00000044878250306768700310000010475511661958857605_);}
	.st28{clip-path:url(#SVGID_00000140009331702794637920000016979723851757575316_);}
	.st29{clip-path:url(#SVGID_00000128487116057817223480000015994115917482733713_);}
	.st30{clip-path:url(#SVGID_00000179644647573874810220000013554395883223056008_);}
	.st31{clip-path:url(#SVGID_00000054950575558981199190000014735273570187700638_);}
	.st32{clip-path:url(#SVGID_00000149341842582432889440000014798450442856038820_);}
	.st33{clip-path:url(#SVGID_00000083788229299604669360000015008374371970242442_);}
	.st34{clip-path:url(#SVGID_00000005978737683995457690000008200054282437990326_);}
	.st35{clip-path:url(#SVGID_00000070080973226972272830000010586078647261672073_);}
	.st36{clip-path:url(#SVGID_00000123430188059820708260000000893999694516600488_);}
	.st37{clip-path:url(#SVGID_00000170983436805117566270000002599376175956180636_);}
	.st38{clip-path:url(#SVGID_00000052101814572926387680000007201746445479627711_);}
	.st39{clip-path:url(#SVGID_00000129889436686122960860000004674367753621790387_);}
	.st40{clip-path:url(#SVGID_00000110464122348184708850000013783727014753658276_);}
	.st41{clip-path:url(#SVGID_00000176729834806079039420000017334711014492854709_);}
	.st42{clip-path:url(#SVGID_00000125593947390962532740000013733293932058477732_);}
	.st43{clip-path:url(#SVGID_00000103980556717199111360000005720407527175122327_);}
	.st44{clip-path:url(#SVGID_00000154396824810348384220000008422692986844637099_);}
	.st45{clip-path:url(#SVGID_00000014617917506675427230000013143683512803372705_);}
	.st46{clip-path:url(#SVGID_00000101807787763307828010000009515994670031034538_);}
	.st47{clip-path:url(#SVGID_00000152976423761585169070000005896949925482300580_);}
	.st48{clip-path:url(#SVGID_00000137101984778263073690000000600580533744718727_);}
	.st49{clip-path:url(#SVGID_00000084488022228275221560000005601543294188530351_);}
	.st50{clip-path:url(#SVGID_00000085941125803767682170000007108337292252071608_);}
	.st51{clip-path:url(#SVGID_00000073000053513802818170000011714201424601441974_);}
	.st52{clip-path:url(#SVGID_00000070801653411403451580000016176928973572591757_);}
	.st53{clip-path:url(#SVGID_00000082353450528272469160000018285101024893211561_);}
	.st54{clip-path:url(#SVGID_00000004518790188335328660000006890456955873166239_);}
	.st55{clip-path:url(#SVGID_00000073711833420217392190000016118655514856354950_);}
	.st56{clip-path:url(#SVGID_00000170989830754703094860000017570501669632310918_);}
	.st57{clip-path:url(#SVGID_00000152239787093597170900000016057746180596695214_);}
	.st58{clip-path:url(#SVGID_00000141436014382809115270000017939077386260478090_);}
	.st59{clip-path:url(#SVGID_00000066486649924679479000000007466504396386096783_);}
	.st60{clip-path:url(#SVGID_00000022524701127486866280000015946165998735024553_);}
	.st61{clip-path:url(#SVGID_00000099664044664529418920000001894495276563002540_);}
	.st62{clip-path:url(#SVGID_00000137115299310946043820000017403248806399101844_);}
</style>
<g>
	<g>
		<rect x="3.82" y="0.33" class="st1" width="65.38" height="31.2"/>
	</g>
	<g>
		<path class="st1" d="M69.21,31.66H3.82c-0.07,0-0.13-0.06-0.13-0.13V0.33c0-0.07,0.06-0.13,0.13-0.13h65.38
			c0.07,0,0.13,0.06,0.13,0.13v31.2C69.33,31.61,69.28,31.66,69.21,31.66z M3.95,31.41h65.13V0.46H3.95V31.41z"/>
	</g>
	<g>
		<g>
			<path class="st2" d="M69.03,32H0.3C0.13,32,0,31.86,0,31.7V0.3C0,0.13,0.13,0,0.3,0h68.73c0.17,0,0.3,0.13,0.3,0.3v31.4
				C69.33,31.86,69.2,32,69.03,32z M0.6,31.4h68.13V0.6H0.6V31.4z"/>
		</g>
	</g>
	<g>
		<path class="st4" d="M22.98,23.22H20.3V12.88l-3.2,0.99v-2.18l5.59-2h0.29V23.22z"/>
		<path class="st4" d="M36.65,17.63c0,1.87-0.39,3.3-1.16,4.29c-0.77,0.99-1.91,1.48-3.4,1.48c-1.47,0-2.6-0.49-3.38-1.46
			c-0.78-0.97-1.18-2.36-1.2-4.17v-2.49c0-1.89,0.39-3.32,1.17-4.3c0.78-0.98,1.91-1.47,3.38-1.47c1.47,0,2.6,0.48,3.38,1.45
			s1.18,2.36,1.2,4.17V17.63z M33.97,14.9c0-1.12-0.15-1.94-0.46-2.45c-0.31-0.51-0.78-0.77-1.43-0.77c-0.63,0-1.1,0.24-1.4,0.73
			c-0.3,0.49-0.46,1.25-0.48,2.28v3.29c0,1.1,0.15,1.92,0.45,2.46c0.3,0.54,0.78,0.8,1.44,0.8c0.66,0,1.13-0.26,1.42-0.77
			c0.29-0.51,0.44-1.3,0.45-2.36V14.9z"/>
		<path class="st4" d="M50.92,18.43h-3.11c0.03,0.91,0.27,1.59,0.73,2.05c0.46,0.46,1.16,0.69,2.12,0.69c0.65,0,1.24-0.1,1.76-0.29
			l0.33,2.25c-0.77,0.18-1.56,0.27-2.38,0.27c-1.63,0-2.91-0.44-3.86-1.31c-0.95-0.88-1.45-2.09-1.5-3.65h-1.57v-1.41h1.57v-1.15
			h-1.57v-1.41h1.59c0.1-1.56,0.65-2.77,1.63-3.63c0.98-0.86,2.28-1.29,3.9-1.29c0.65,0,1.38,0.1,2.19,0.29l-0.33,2.25
			c-0.58-0.2-1.15-0.3-1.72-0.3c-1.75,0-2.71,0.89-2.88,2.68h3.09v1.41h-3.11v1.15h3.11V18.43z"/>
	</g>
</g>
</svg>
