<?xml version="1.0" encoding="utf-8"?>
<!-- Generator: Adobe Illustrator 26.0.2, SVG Export Plug-In . SVG Version: 6.00 Build 0)  -->
<svg version="1.1" id="Ebene_1" xmlns="http://www.w3.org/2000/svg" xmlns:xlink="http://www.w3.org/1999/xlink" x="0px" y="0px"
	 viewBox="0 0 65.53 32.74" style="enable-background:new 0 0 65.53 32.74;" xml:space="preserve">
<style type="text/css">
	.st0{clip-path:url(#SVGID_00000021092650669785606670000007305192132270423229_);}
	.st1{fill:#61B87A;}
	.st2{fill:#2B2961;}
	.st3{clip-path:url(#SVGID_00000152243002694684284650000000904603558187323789_);}
	.st4{fill:#FFFFFF;}
	.st5{clip-path:url(#SVGID_00000032613585030925288580000003038402518926595993_);}
	.st6{clip-path:url(#SVGID_00000059275120370164616310000002181380981974207142_);}
	.st7{clip-path:url(#SVGID_00000067928287624117060370000001038395204921806991_);}
	.st8{clip-path:url(#SVGID_00000119838575439760018460000000874711279451349924_);}
	.st9{clip-path:url(#SVGID_00000139974128318079617190000013579290946494159519_);}
	.st10{clip-path:url(#SVGID_00000086656505846803982600000004388181317428889517_);}
	.st11{clip-path:url(#SVGID_00000166664240908371849910000010731471898848477847_);}
	.st12{clip-path:url(#SVGID_00000069361509356653262520000004183310349821944482_);}
	.st13{clip-path:url(#SVGID_00000166640445194523568410000005031273662952893090_);}
	.st14{clip-path:url(#SVGID_00000046312174059095271760000008402301673752220853_);}
	.st15{clip-path:url(#SVGID_00000047746376377260368420000002486033890803950263_);}
	.st16{clip-path:url(#SVGID_00000177462736989406384160000010867382059795386811_);}
	.st17{clip-path:url(#SVGID_00000123412709617270819110000002569676203874519979_);}
	.st18{clip-path:url(#SVGID_00000156568545574618395150000011273644073587058336_);}
	.st19{clip-path:url(#SVGID_00000069359440651450412800000013781049245973220235_);}
	.st20{clip-path:url(#SVGID_00000001631712884396612800000005419911611165267632_);}
	.st21{clip-path:url(#SVGID_00000116935565051730596260000005435827394999267736_);}
	.st22{clip-path:url(#SVGID_00000104664709342047322200000016026211477200379012_);}
	.st23{clip-path:url(#SVGID_00000173122136468702011500000003692917226125992092_);}
	.st24{clip-path:url(#SVGID_00000097485347489224597300000013150559848268863659_);}
	.st25{clip-path:url(#SVGID_00000078741203643685510110000001412447398320767632_);}
	.st26{clip-path:url(#SVGID_00000167373634868026392300000013229543938705566388_);}
	.st27{clip-path:url(#SVGID_00000013879052472755822650000003168177698651838122_);}
	.st28{clip-path:url(#SVGID_00000152229602475394889600000004337948760497935265_);}
	.st29{clip-path:url(#SVGID_00000034082571824842646640000000477088830665255836_);}
	.st30{clip-path:url(#SVGID_00000127040094305844788870000001790651629953689477_);}
	.st31{clip-path:url(#SVGID_00000019640369028050621770000012240544653471629989_);}
	.st32{clip-path:url(#SVGID_00000051368212306398853900000016175745149207677578_);}
	.st33{clip-path:url(#SVGID_00000157304188224419549550000001349879349674047633_);}
	.st34{clip-path:url(#SVGID_00000139280523447672894580000005202158144057716112_);}
	.st35{clip-path:url(#SVGID_00000023275096385093246580000004284775244336797344_);}
	.st36{clip-path:url(#SVGID_00000128477448165420280100000013975229141138973580_);}
	.st37{clip-path:url(#SVGID_00000123430057814558985060000008833212392610570642_);}
	.st38{clip-path:url(#SVGID_00000044898855855163214620000015698816986146324904_);}
	.st39{clip-path:url(#SVGID_00000133530389472240659350000010341411739679147904_);}
	.st40{clip-path:url(#SVGID_00000079485991631966498980000012605435680212564873_);}
	.st41{clip-path:url(#SVGID_00000115480987054703080270000004953013476772477857_);}
	.st42{clip-path:url(#SVGID_00000136409735915280210890000017061143991703165585_);}
	.st43{clip-path:url(#SVGID_00000175322915586602509100000014164722619373961390_);}
	.st44{clip-path:url(#SVGID_00000024723193712806702490000010694231595762405793_);}
	.st45{clip-path:url(#SVGID_00000093163656288537042780000011947140474174179769_);}
	.st46{clip-path:url(#SVGID_00000004546760164830501770000015865608388845429168_);}
	.st47{clip-path:url(#SVGID_00000162347357226394457460000009570029395490162583_);}
	.st48{clip-path:url(#SVGID_00000173882283172732556840000007444807054222205068_);}
	.st49{clip-path:url(#SVGID_00000052800831462764993840000007226881498336131468_);}
	.st50{clip-path:url(#SVGID_00000147220448280902772650000009979236967298853544_);}
	.st51{clip-path:url(#SVGID_00000022553540970574981580000018290207734714283921_);}
	.st52{clip-path:url(#SVGID_00000121997884637032646920000013280358204038392746_);}
	.st53{clip-path:url(#SVGID_00000038394929089027120920000016616264668057607581_);}
	.st54{clip-path:url(#SVGID_00000019635870269663041080000004785880021288583321_);}
	.st55{clip-path:url(#SVGID_00000000939227928388943570000004029689371776995247_);}
	.st56{clip-path:url(#SVGID_00000108294112767458820070000005393334222460191636_);}
	.st57{clip-path:url(#SVGID_00000150791882199997718930000013464763627726604185_);}
	.st58{clip-path:url(#SVGID_00000060023402255470924920000013825244889821935527_);}
	.st59{clip-path:url(#SVGID_00000014606645341627442800000011722874401546003892_);}
	.st60{clip-path:url(#SVGID_00000111872578706435932130000016992850787006445712_);}
	.st61{clip-path:url(#SVGID_00000140704905285229790960000008514737608303052455_);}
	.st62{clip-path:url(#SVGID_00000022529961658287322070000006175544339366787215_);}
</style>
<g>
	<g>
		<defs>
			<rect id="SVGID_00000003087003945411613520000001571414991380608151_" width="65.53" height="32.74"/>
		</defs>
		<clipPath id="SVGID_00000036239443669484436980000002712259369193622961_">
			<use xlink:href="#SVGID_00000003087003945411613520000001571414991380608151_"  style="overflow:visible;"/>
		</clipPath>
		<g style="clip-path:url(#SVGID_00000036239443669484436980000002712259369193622961_);">
			<path class="st1" d="M16.08,1.78c0.16,0.12,0.28,0.21,0.43,0.34c4.16,3.45,5.23,9.38,2.31,13.79c-1.25,1.89-3.05,3.22-5.08,3.92
				l0.06-0.02c-4.69-3.82-3.96-9.84-3.96-9.84C15.01,8.47,16,1.71,16.08,1.78"/>
		</g>
		<g style="clip-path:url(#SVGID_00000036239443669484436980000002712259369193622961_);">
			<path class="st2" d="M9.73,20.35C4.37,20.35,0,15.78,0,10.17C0,9.79,0.02,9.4,0.06,9.02C0.62,3.88,4.78,0,9.73,0
				c5.37,0,9.73,4.56,9.73,10.17S15.1,20.35,9.73,20.35z M0.41,9.67C0.4,9.84,0.4,10.01,0.4,10.17c0,5.39,4.19,9.77,9.33,9.77
				s9.33-4.38,9.33-9.77c0-3.13-1.41-5.92-3.6-7.71c-0.74,5.37-5.59,7.86-5.64,7.89c-0.07,0.04-0.16,0.02-0.22-0.03
				C6.24,7.46,1.22,9.34,0.41,9.67z M4.95,8.36c1.6,0,3.34,0.37,4.81,1.57c0.73-0.41,4.79-2.9,5.34-7.75
				C13.58,1.06,11.73,0.4,9.73,0.4C4.98,0.4,1,4.12,0.46,9.06C0.45,9.11,0.45,9.17,0.44,9.23C1.14,8.96,2.92,8.36,4.95,8.36z"/>
		</g>
		<g style="clip-path:url(#SVGID_00000036239443669484436980000002712259369193622961_);">
			<path class="st2" d="M12.15,8.27C8.16,3.54,2.01,4.61,1.95,4.62L1.87,4.23C1.94,4.22,8.31,3.1,12.45,8.02L12.15,8.27z
				 M14.48,4.84c-3.37-4.11-8.47-3.62-8.52-3.61l-0.04-0.4c0.06-0.01,5.36-0.53,8.87,3.76L14.48,4.84z"/>
		</g>
		<g style="clip-path:url(#SVGID_00000036239443669484436980000002712259369193622961_);">
			<path class="st2" d="M8.82,20.27c-0.05-0.06-5.07-5.67-2.1-11.65l0.36,0.18C4.22,14.52,9.06,19.95,9.11,20L8.82,20.27z
				 M4.27,18.6c-0.04-0.04-3.73-4.5-1.78-9.9l0.38,0.14C1,14.02,4.54,18.3,4.58,18.34L4.27,18.6z M11.85,17.09l-0.09-0.39
				c5.13-1.15,7.28-6.54,7.3-6.59l0.37,0.14C19.42,10.31,17.19,15.89,11.85,17.09z M10.05,13.62l-0.07-0.39
				c6.47-1.21,7.92-7.79,7.94-7.86l0.39,0.08C18.29,5.52,16.78,12.36,10.05,13.62z"/>
		</g>
		<g style="clip-path:url(#SVGID_00000036239443669484436980000002712259369193622961_);">
			<path class="st2" d="M13.72,19.28c-0.05-0.04-4.85-4.01-4.09-9.11l0.4,0.06c-0.73,4.87,3.9,8.7,3.95,8.74L13.72,19.28z"/>
		</g>
		<g style="clip-path:url(#SVGID_00000036239443669484436980000002712259369193622961_);">
			<path class="st2" d="M20.95,32.23c-0.06,0-0.12-0.03-0.16-0.08l-7.15-9.64c-0.07-0.09-0.05-0.21,0.04-0.28
				c0.09-0.06,0.21-0.05,0.28,0.04l7.15,9.64c0.07,0.09,0.05,0.21-0.04,0.28C21.03,32.21,20.99,32.23,20.95,32.23z"/>
		</g>
	</g>
	<g>
		<path class="st2" d="M23.86,31.66c-0.06,0-0.12-0.03-0.16-0.08l-7.15-9.64c-0.07-0.09-0.05-0.21,0.04-0.28
			c0.09-0.07,0.21-0.05,0.28,0.04l7.15,9.64c0.07,0.09,0.05,0.21-0.04,0.28C23.94,31.64,23.9,31.66,23.86,31.66z"/>
	</g>
	<g>
		<path class="st2" d="M25.6,28.68c-0.06,0-0.12-0.03-0.16-0.08l-7.16-9.64c-0.07-0.09-0.05-0.21,0.04-0.28
			c0.09-0.07,0.21-0.05,0.28,0.04l7.16,9.64c0.07,0.09,0.05,0.21-0.04,0.28C25.68,28.66,25.64,28.68,25.6,28.68z"/>
	</g>
	<g>
		<polygon class="st1" points="49.6,4.8 49.6,7.05 57.14,8.22 57.16,5.97 		"/>
	</g>
	<g>
		<polygon class="st1" points="42.17,23.34 42.17,24.58 46.55,25.29 46.56,24.06 		"/>
	</g>
	<g>
		<defs>
			<rect id="SVGID_00000164504419790256212040000014501961391496380082_" width="65.53" height="32.74"/>
		</defs>
		<clipPath id="SVGID_00000178898748806019414340000001112661422897933197_">
			<use xlink:href="#SVGID_00000164504419790256212040000014501961391496380082_"  style="overflow:visible;"/>
		</clipPath>
		<g style="clip-path:url(#SVGID_00000178898748806019414340000001112661422897933197_);">
			<path class="st1" d="M46.99,16.34c-1.19,0.11-2.07,1.18-1.96,2.39c0.1,1.22,1.15,2.12,2.34,2.01c1.19-0.11,2.06-1.18,1.96-2.39
				C49.22,17.13,48.17,16.23,46.99,16.34"/>
		</g>
		<g style="clip-path:url(#SVGID_00000178898748806019414340000001112661422897933197_);">
			<path class="st1" d="M40.81,29.87c-0.57,0.05-1,0.57-0.95,1.16s0.56,1.02,1.13,0.97c0.57-0.05,1-0.57,0.95-1.16
				C41.89,30.25,41.38,29.82,40.81,29.87"/>
		</g>
		<g style="clip-path:url(#SVGID_00000178898748806019414340000001112661422897933197_);">
			<path class="st1" d="M45.19,30.61c-0.57,0.05-1,0.57-0.95,1.16s0.56,1.02,1.13,0.97c0.57-0.05,1-0.57,0.95-1.16
				C46.27,30.99,45.77,30.56,45.19,30.61"/>
		</g>
		<g style="clip-path:url(#SVGID_00000178898748806019414340000001112661422897933197_);">
			<path class="st1" d="M37.54,22.71c-0.98,0.09-1.7,0.97-1.61,1.97c0.09,1,0.95,1.74,1.92,1.65c0.98-0.09,1.7-0.97,1.61-1.97
				C39.38,23.36,38.52,22.62,37.54,22.71"/>
		</g>
		<g style="clip-path:url(#SVGID_00000178898748806019414340000001112661422897933197_);">
			<path class="st1" d="M63.02,7.44c-1.08,0.1-1.87,1.07-1.78,2.17c0.09,1.1,1.04,1.92,2.12,1.82c1.08-0.1,1.87-1.07,1.78-2.17
				C65.05,8.16,64.1,7.35,63.02,7.44"/>
		</g>
		<g style="clip-path:url(#SVGID_00000178898748806019414340000001112661422897933197_);">
			<path class="st1" d="M55.21,21.83c1.22,0,2.21-0.99,2.21-2.21c0-1.22-0.99-2.21-2.21-2.21c-1.22,0-2.21,0.99-2.21,2.21
				C52.99,20.84,53.98,21.83,55.21,21.83"/>
		</g>
	</g>
	<g>
		<path class="st2" d="M57.03,18.46c-0.11,0-0.2-0.09-0.2-0.2V8.48l-7.66-1.25v9.71c0,0.11-0.09,0.2-0.2,0.2s-0.2-0.09-0.2-0.2V7
			c0-0.06,0.03-0.11,0.07-0.15c0.04-0.04,0.1-0.05,0.16-0.04l8.06,1.31c0.1,0.02,0.17,0.1,0.17,0.2v9.95
			C57.23,18.37,57.14,18.46,57.03,18.46z"/>
	</g>
	<g>
		<path class="st2" d="M46.4,30.95c-0.11,0-0.2-0.09-0.2-0.2v-5.17l-3.88-0.64v5.11c0,0.11-0.09,0.2-0.2,0.2s-0.2-0.09-0.2-0.2V24.7
			c0-0.06,0.03-0.11,0.07-0.15c0.05-0.04,0.1-0.05,0.16-0.04l4.28,0.7c0.1,0.02,0.17,0.1,0.17,0.2v5.34
			C46.6,30.86,46.51,30.95,46.4,30.95z"/>
	</g>
	<g>
		<path class="st2" d="M39.37,23.49c-0.11,0-0.2-0.09-0.2-0.2v-8.44c0-0.11,0.09-0.2,0.2-0.2s0.2,0.09,0.2,0.2v8.44
			C39.57,23.4,39.48,23.49,39.37,23.49z"/>
	</g>
	<g>
		<defs>
			<rect id="SVGID_00000052808694506222745700000011034849913897072003_" width="65.53" height="32.74"/>
		</defs>
		<clipPath id="SVGID_00000134236850721778139930000015092218633200593038_">
			<use xlink:href="#SVGID_00000052808694506222745700000011034849913897072003_"  style="overflow:visible;"/>
		</clipPath>
		<g style="clip-path:url(#SVGID_00000134236850721778139930000015092218633200593038_);">
			<path class="st2" d="M65.29,8.84c-0.11,0-0.2-0.09-0.2-0.2V0.2c0-0.11,0.09-0.2,0.2-0.2s0.2,0.09,0.2,0.2v8.44
				C65.49,8.75,65.4,8.84,65.29,8.84z"/>
		</g>
	</g>
	<g>
		<path class="st2" d="M57.03,16.19c-0.11,0-0.2-0.09-0.2-0.2V6.21l-7.66-1.25v9.71c0,0.11-0.09,0.2-0.2,0.2s-0.2-0.09-0.2-0.2V4.73
			c0-0.06,0.03-0.11,0.07-0.15c0.04-0.04,0.1-0.06,0.16-0.04l8.06,1.31c0.1,0.02,0.17,0.1,0.17,0.2v9.95
			C57.23,16.1,57.14,16.19,57.03,16.19z"/>
	</g>
	<g>
		<path class="st2" d="M46.4,29.7c-0.11,0-0.2-0.09-0.2-0.2v-5.17l-3.88-0.64v5.11c0,0.11-0.09,0.2-0.2,0.2s-0.2-0.09-0.2-0.2v-5.34
			c0-0.06,0.03-0.11,0.07-0.15c0.05-0.04,0.1-0.05,0.16-0.04l4.28,0.71c0.1,0.02,0.17,0.1,0.17,0.2v5.34
			C46.6,29.61,46.51,29.7,46.4,29.7z"/>
	</g>
	<g>
		<defs>
			<rect id="SVGID_00000093864690809573443590000010486602356200711827_" width="65.53" height="32.74"/>
		</defs>
		<clipPath id="SVGID_00000135683937539912200030000010464217954846577559_">
			<use xlink:href="#SVGID_00000093864690809573443590000010486602356200711827_"  style="overflow:visible;"/>
		</clipPath>
		<g style="clip-path:url(#SVGID_00000135683937539912200030000010464217954846577559_);">
			<path class="st2" d="M46.8,20.6c-0.57,0-1.11-0.2-1.56-0.57c-0.52-0.43-0.83-1.05-0.89-1.73c-0.12-1.38,0.88-2.6,2.23-2.72l0,0
				c0.65-0.06,1.27,0.14,1.77,0.56c0.52,0.43,0.83,1.05,0.89,1.73c0.12,1.38-0.88,2.6-2.23,2.72C46.94,20.59,46.87,20.6,46.8,20.6z
				 M46.62,15.98c-1.13,0.1-1.97,1.13-1.87,2.29c0.05,0.57,0.31,1.09,0.75,1.45c0.42,0.35,0.95,0.52,1.48,0.47
				c1.13-0.1,1.97-1.13,1.87-2.29c-0.05-0.57-0.31-1.09-0.75-1.45C47.68,16.09,47.16,15.93,46.62,15.98L46.62,15.98z"/>
		</g>
		<g style="clip-path:url(#SVGID_00000135683937539912200030000010464217954846577559_);">
			<path class="st2" d="M40.84,32.11c-0.31,0-0.61-0.11-0.85-0.31c-0.28-0.24-0.46-0.57-0.49-0.95c-0.06-0.76,0.49-1.43,1.23-1.5
				l0,0c0.36-0.03,0.7,0.08,0.97,0.31c0.28,0.24,0.46,0.57,0.49,0.95c0.07,0.76-0.48,1.43-1.23,1.5
				C40.92,32.11,40.88,32.11,40.84,32.11z M40.76,29.75c-0.52,0.05-0.91,0.52-0.87,1.06c0.02,0.27,0.15,0.51,0.35,0.67
				c0.19,0.16,0.44,0.24,0.68,0.22c0.52-0.05,0.91-0.52,0.86-1.06c-0.02-0.27-0.15-0.51-0.35-0.68
				C41.25,29.81,41.01,29.73,40.76,29.75L40.76,29.75z"/>
		</g>
		<g style="clip-path:url(#SVGID_00000135683937539912200030000010464217954846577559_);">
			<path class="st2" d="M37.49,26.44c-0.48,0-0.95-0.17-1.33-0.49c-0.44-0.37-0.71-0.89-0.76-1.47c-0.1-1.18,0.75-2.22,1.91-2.33
				l0,0c0.55-0.05,1.09,0.12,1.52,0.48c0.44,0.37,0.71,0.89,0.76,1.47c0.1,1.18-0.75,2.22-1.91,2.33
				C37.61,26.44,37.55,26.44,37.49,26.44z M37.34,22.55c-0.93,0.08-1.63,0.93-1.54,1.89c0.04,0.47,0.26,0.9,0.62,1.2
				c0.34,0.29,0.77,0.42,1.22,0.39c0.93-0.08,1.63-0.93,1.54-1.89c-0.04-0.47-0.26-0.9-0.62-1.2
				C38.22,22.65,37.78,22.51,37.34,22.55L37.34,22.55z"/>
		</g>
		<g style="clip-path:url(#SVGID_00000135683937539912200030000010464217954846577559_);">
			<path class="st2" d="M63.43,11.79c-0.48,0-0.95-0.17-1.33-0.49c-0.44-0.37-0.71-0.89-0.76-1.47c-0.1-1.18,0.75-2.22,1.91-2.33
				l0,0c0.55-0.05,1.09,0.12,1.52,0.48c0.44,0.37,0.71,0.89,0.76,1.47c0.1,1.18-0.75,2.22-1.91,2.33
				C63.55,11.79,63.49,11.79,63.43,11.79z M63.44,7.9c-0.05,0-0.1,0-0.15,0.01l0,0c-0.93,0.08-1.63,0.93-1.54,1.89
				c0.04,0.47,0.26,0.9,0.62,1.2c0.34,0.29,0.78,0.42,1.22,0.39c0.93-0.08,1.63-0.93,1.54-1.89c-0.04-0.47-0.26-0.9-0.62-1.2
				C64.2,8.04,63.83,7.9,63.44,7.9z"/>
		</g>
		<g style="clip-path:url(#SVGID_00000135683937539912200030000010464217954846577559_);">
			<path class="st2" d="M54.85,21.72c-1.36,0-2.46-1.13-2.46-2.52s1.1-2.52,2.46-2.52s2.46,1.13,2.46,2.52S56.21,21.72,54.85,21.72z
				 M54.85,17.09c-1.14,0-2.06,0.95-2.06,2.11s0.92,2.11,2.06,2.11s2.06-0.95,2.06-2.11S55.98,17.09,54.85,17.09z"/>
		</g>
		<g style="clip-path:url(#SVGID_00000135683937539912200030000010464217954846577559_);">
			<path class="st2" d="M45.28,32.73c-0.75,0-1.35-0.62-1.35-1.38c0-0.76,0.61-1.38,1.35-1.38s1.35,0.62,1.35,1.38
				C46.63,32.11,46.03,32.73,45.28,32.73z M45.28,30.37c-0.52,0-0.95,0.44-0.95,0.98c0,0.54,0.43,0.98,0.95,0.98
				s0.95-0.44,0.95-0.98C46.23,30.81,45.81,30.37,45.28,30.37z"/>
		</g>
	</g>
</g>
</svg>
