<?xml version="1.0" encoding="utf-8"?>
<!-- Generator: Adobe Illustrator 26.0.2, SVG Export Plug-In . SVG Version: 6.00 Build 0)  -->
<svg version="1.1" id="Ebene_1" xmlns="http://www.w3.org/2000/svg" xmlns:xlink="http://www.w3.org/1999/xlink" x="0px" y="0px"
	 viewBox="0 0 39.53 54.15" style="enable-background:new 0 0 39.53 54.15;" xml:space="preserve">
<style type="text/css">
	.st0{clip-path:url(#SVGID_00000086674997153098394720000006535121420257197714_);}
	.st1{fill:#61B87A;}
	.st2{fill:#2B2961;}
	.st3{clip-path:url(#SVGID_00000177466979752683109270000007170304594171390609_);}
	.st4{fill:#FFFFFF;}
	.st5{clip-path:url(#SVGID_00000159470758628367731820000015000948559170186390_);}
	.st6{clip-path:url(#SVGID_00000060744874763484184710000010763270191027506319_);}
	.st7{clip-path:url(#SVGID_00000102541303918723241790000005958433635899811515_);}
	.st8{clip-path:url(#SVGID_00000139275859752565074090000017918340727692989373_);}
	.st9{clip-path:url(#SVGID_00000108989231187877757900000000735541518895615920_);}
	.st10{clip-path:url(#SVGID_00000151513689880823955950000018096791047418075575_);}
	.st11{clip-path:url(#SVGID_00000032636962453946631110000017043997236944558217_);}
	.st12{clip-path:url(#SVGID_00000137100202269968933160000014273228605674391687_);}
	.st13{clip-path:url(#SVGID_00000148636779289613513710000002565045090777147306_);}
	.st14{clip-path:url(#SVGID_00000096778606862188723720000007860424816246097557_);}
	.st15{clip-path:url(#SVGID_00000181061769816049475720000008640960609481059745_);}
	.st16{clip-path:url(#SVGID_00000115491750784134550360000007383459412792071561_);}
	.st17{clip-path:url(#SVGID_00000154406671522374439260000013297710341293665714_);}
	.st18{clip-path:url(#SVGID_00000080926508139819593860000016376948385446657418_);}
	.st19{clip-path:url(#SVGID_00000070094910378559797820000003194616734738316471_);}
	.st20{clip-path:url(#SVGID_00000137818266098162275490000004120108949101021336_);}
	.st21{clip-path:url(#SVGID_00000001651252405484882210000012030818708533751992_);}
	.st22{clip-path:url(#SVGID_00000042715489599595990330000013272018816404561538_);}
	.st23{clip-path:url(#SVGID_00000121971112005514416970000017574360750248069791_);}
	.st24{clip-path:url(#SVGID_00000042734066030117150950000011407670602109983166_);}
	.st25{clip-path:url(#SVGID_00000074401454362269894770000018276179173837743275_);}
	.st26{clip-path:url(#SVGID_00000081609767318102382120000017989401274913874064_);}
	.st27{clip-path:url(#SVGID_00000098214440393744991340000014642350263643937972_);}
	.st28{clip-path:url(#SVGID_00000011031753083546788520000001430949403224487089_);}
	.st29{clip-path:url(#SVGID_00000075843261428579962880000016639830015528430468_);}
	.st30{clip-path:url(#SVGID_00000155109611574180668260000010656649897566728101_);}
	.st31{clip-path:url(#SVGID_00000026853117824627131500000010954239509190218374_);}
	.st32{clip-path:url(#SVGID_00000124154147700457585730000015987488168459522217_);}
	.st33{clip-path:url(#SVGID_00000139282780636509692790000013506032084391355574_);}
	.st34{clip-path:url(#SVGID_00000124157099537433476930000015969449592305729703_);}
	.st35{clip-path:url(#SVGID_00000098918727454290576320000000574091036098676147_);}
	.st36{clip-path:url(#SVGID_00000129204224920779700730000003817630642727301277_);}
	.st37{clip-path:url(#SVGID_00000009558475567181895320000005760503911682752416_);}
	.st38{clip-path:url(#SVGID_00000176002447716299792440000006368925409732244629_);}
	.st39{clip-path:url(#SVGID_00000116214812918426568460000007419116927656014515_);}
	.st40{clip-path:url(#SVGID_00000123398689274868080780000014214795331711101569_);}
	.st41{clip-path:url(#SVGID_00000000933459949296417970000007328134909171801506_);}
	.st42{clip-path:url(#SVGID_00000032641567609104120180000018389204284757037234_);}
	.st43{clip-path:url(#SVGID_00000033346427922537285560000008843126740290134463_);}
	.st44{clip-path:url(#SVGID_00000013883424196004266590000013757991289938518965_);}
	.st45{clip-path:url(#SVGID_00000079476926961003878420000016757135417444696756_);}
	.st46{clip-path:url(#SVGID_00000103963236458030658300000008030553428593932182_);}
	.st47{clip-path:url(#SVGID_00000061438257312395885530000015862877867087335084_);}
	.st48{clip-path:url(#SVGID_00000121966350908316907650000014133627309439856033_);}
	.st49{clip-path:url(#SVGID_00000125569849465281940790000014977864876418176907_);}
	.st50{clip-path:url(#SVGID_00000161590730329864295180000001987817647800027029_);}
	.st51{clip-path:url(#SVGID_00000012458107939907878130000011565672772776790412_);}
	.st52{clip-path:url(#SVGID_00000120521662152224089350000009386503408229753787_);}
	.st53{clip-path:url(#SVGID_00000174588803980989348370000011501281157941246603_);}
	.st54{clip-path:url(#SVGID_00000055700828510321299740000014617847359300315028_);}
	.st55{clip-path:url(#SVGID_00000142152837962170068140000002700636567377879433_);}
	.st56{clip-path:url(#SVGID_00000127021968330066441890000016808926463377143186_);}
	.st57{clip-path:url(#SVGID_00000135666985198063057670000009082510547245352635_);}
	.st58{clip-path:url(#SVGID_00000088844313259709168150000010930437127351094156_);}
	.st59{clip-path:url(#SVGID_00000114038251837444059340000013750850888375859884_);}
	.st60{clip-path:url(#SVGID_00000018233533141539074320000006488656870954199180_);}
	.st61{clip-path:url(#SVGID_00000173138161538875221010000007853543600727457192_);}
	.st62{clip-path:url(#SVGID_00000065032997322757587570000004214913885468287928_);}
</style>
<g>
	<g>
		<polygon class="st1" points="26.74,50.2 1.44,50.2 1.44,0.3 35.89,0.3 35.89,37 		"/>
	</g>
	<g>
		<path class="st1" d="M26.81,50.32H1.32V0.19h34.69v36.85l-0.02,0.03L26.81,50.32z M1.55,50.08h25.13l9.09-13.12V0.42H1.55V50.08z"
			/>
	</g>
	<g>
		<defs>
			<rect id="SVGID_00000160173045797565429960000016655440663067100569_" width="39.53" height="54.15"/>
		</defs>
		<clipPath id="SVGID_00000174593440445769800070000005401927392716928401_">
			<use xlink:href="#SVGID_00000160173045797565429960000016655440663067100569_"  style="overflow:visible;"/>
		</clipPath>
		<g style="clip-path:url(#SVGID_00000174593440445769800070000005401927392716928401_);">
			<path class="st2" d="M35.61,50.54H0.3c-0.17,0-0.3-0.13-0.3-0.3V0.3C0,0.13,0.13,0,0.3,0h35.31c0.17,0,0.3,0.13,0.3,0.3v49.94
				C35.91,50.41,35.78,50.54,35.61,50.54z M0.6,49.94h34.71V0.6H0.6V49.94z"/>
		</g>
	</g>
	<g>
		<polygon class="st4" points="3.91,3.91 3.91,53.85 31.98,53.85 39.23,46.61 39.23,3.91 		"/>
	</g>
	<g>
		<defs>
			<rect id="SVGID_00000105424858203560888500000007180165264165500345_" width="39.53" height="54.15"/>
		</defs>
		<clipPath id="SVGID_00000148660360776161286210000017953605601140578993_">
			<use xlink:href="#SVGID_00000105424858203560888500000007180165264165500345_"  style="overflow:visible;"/>
		</clipPath>
		<g style="clip-path:url(#SVGID_00000148660360776161286210000017953605601140578993_);">
			<path class="st2" d="M31.98,54.15H3.91c-0.17,0-0.3-0.13-0.3-0.3V3.91c0-0.17,0.13-0.3,0.3-0.3h35.31c0.17,0,0.3,0.13,0.3,0.3
				v42.7c0,0.08-0.03,0.16-0.09,0.21l-7.25,7.24C32.14,54.12,32.06,54.15,31.98,54.15z M4.21,53.55h27.64l7.07-7.07V4.21H4.21V53.55
				z"/>
		</g>
	</g>
	<g>
		<polygon class="st4" points="31.91,46.54 31.91,53.86 39.23,46.54 		"/>
	</g>
	<g>
		<defs>
			<rect id="SVGID_00000075160475632004939150000015920684767323649182_" width="39.53" height="54.15"/>
		</defs>
		<clipPath id="SVGID_00000046315801522560193540000010990245416429932442_">
			<use xlink:href="#SVGID_00000075160475632004939150000015920684767323649182_"  style="overflow:visible;"/>
		</clipPath>
		<g style="clip-path:url(#SVGID_00000046315801522560193540000010990245416429932442_);">
			<path class="st2" d="M31.91,54.13c-0.04,0-0.07-0.01-0.11-0.02c-0.1-0.04-0.17-0.14-0.17-0.26v-7.32c0-0.15,0.12-0.28,0.28-0.28
				h7.32c0.11,0,0.21,0.07,0.26,0.17c0.04,0.1,0.02,0.22-0.06,0.3l-7.32,7.32C32.05,54.11,31.98,54.13,31.91,54.13z M32.18,46.81
				v6.38l6.38-6.38H32.18z"/>
		</g>
	</g>
	<g>
		<polygon class="st1" points="32.65,46.68 32.65,53.27 38.71,46.68 		"/>
	</g>
	<g>
		<path class="st1" d="M32.53,53.57v-7.01h6.46L32.53,53.57z M32.77,46.8v6.16l5.67-6.16H32.77z"/>
	</g>
	<g>
		<defs>
			<rect id="SVGID_00000183227023445021974400000017538380218890446000_" width="39.53" height="54.15"/>
		</defs>
		<clipPath id="SVGID_00000062186278455640794730000013129900013083623832_">
			<use xlink:href="#SVGID_00000183227023445021974400000017538380218890446000_"  style="overflow:visible;"/>
		</clipPath>
		<g style="clip-path:url(#SVGID_00000062186278455640794730000013129900013083623832_);">
			<path class="st2" d="M31.91,54.13c-0.04,0-0.07-0.01-0.11-0.02c-0.1-0.04-0.17-0.14-0.17-0.26v-7.32c0-0.15,0.12-0.28,0.28-0.28
				h7.32c0.11,0,0.21,0.07,0.26,0.17c0.04,0.1,0.02,0.22-0.06,0.3l-7.32,7.32C32.05,54.11,31.98,54.13,31.91,54.13z M32.18,46.81
				v6.38l6.38-6.38H32.18z"/>
		</g>
	</g>
	<g>
		<rect x="14.37" y="14.23" class="st4" width="14.48" height="29.42"/>
	</g>
	<g>
		<path class="st2" d="M28.85,43.95H14.37c-0.17,0-0.3-0.13-0.3-0.3V14.23c0-0.17,0.13-0.3,0.3-0.3h14.48c0.17,0,0.3,0.13,0.3,0.3
			v29.42C29.15,43.82,29.02,43.95,28.85,43.95z M14.67,43.36h13.88V14.53H14.67V43.36z"/>
	</g>
	<g>
		<path class="st2" d="M6.33,27.67c-0.17,0-0.3-0.13-0.3-0.3v-8.02c0-0.17,0.13-0.3,0.3-0.3s0.3,0.13,0.3,0.3v8.02
			C6.63,27.53,6.5,27.67,6.33,27.67z"/>
	</g>
	<g>
		<path class="st2" d="M6.33,43.95c-0.17,0-0.3-0.13-0.3-0.3V29.97c0-0.17,0.13-0.3,0.3-0.3s0.3,0.13,0.3,0.3v13.69
			C6.63,43.82,6.5,43.95,6.33,43.95z"/>
	</g>
	<g>
		<path class="st2" d="M28.85,46.61H14.37c-0.17,0-0.3-0.13-0.3-0.3s0.13-0.3,0.3-0.3h14.48c0.17,0,0.3,0.13,0.3,0.3
			S29.02,46.61,28.85,46.61z"/>
	</g>
	<g>
		<path class="st2" d="M28.81,11.88H14.33c-0.17,0-0.3-0.13-0.3-0.3s0.13-0.3,0.3-0.3h14.48c0.17,0,0.3,0.13,0.3,0.3
			S28.98,11.88,28.81,11.88z"/>
	</g>
	<g>
		<path class="st2" d="M34.41,7.42H14.37c-0.17,0-0.3-0.13-0.3-0.3s0.13-0.3,0.3-0.3h20.04c0.17,0,0.3,0.13,0.3,0.3
			S34.58,7.42,34.41,7.42z"/>
	</g>
	<g>
		<path class="st2" d="M28.85,49.3H14.37c-0.17,0-0.3-0.13-0.3-0.3s0.13-0.3,0.3-0.3h14.48c0.17,0,0.3,0.13,0.3,0.3
			S29.02,49.3,28.85,49.3z"/>
	</g>
</g>
</svg>
