<?xml version="1.0" encoding="utf-8"?>
<!-- Generator: Adobe Illustrator 26.0.2, SVG Export Plug-In . SVG Version: 6.00 Build 0)  -->
<svg version="1.1" id="Ebene_1" xmlns="http://www.w3.org/2000/svg" xmlns:xlink="http://www.w3.org/1999/xlink" x="0px" y="0px"
	 viewBox="0 0 92.83 71.38" style="enable-background:new 0 0 92.83 71.38;" xml:space="preserve">
<style type="text/css">
	.st0{clip-path:url(#SVGID_00000144340020072988661590000018146237980433126531_);}
	.st1{fill:#61B87A;}
	.st2{fill:#2B2961;}
	.st3{clip-path:url(#SVGID_00000070086380700469732330000016879571379960316817_);}
	.st4{fill:#FFFFFF;}
	.st5{clip-path:url(#SVGID_00000146465642347420119680000016104324828101470337_);}
	.st6{clip-path:url(#SVGID_00000183965350269304648300000005311686658476258210_);}
	.st7{clip-path:url(#SVGID_00000047023075364996866460000014318929750698532534_);}
	.st8{clip-path:url(#SVGID_00000132776088675875846290000001863861705022856329_);}
	.st9{clip-path:url(#SVGID_00000036216744301917064010000011053992047824643256_);}
	.st10{clip-path:url(#SVGID_00000066490844008328691360000005971698959030668949_);}
	.st11{clip-path:url(#SVGID_00000140708000156738596440000000233420399577159312_);}
	.st12{clip-path:url(#SVGID_00000007394281701950038340000007807997992269326231_);}
	.st13{clip-path:url(#SVGID_00000173844517569057803690000009111390706418276518_);}
	.st14{clip-path:url(#SVGID_00000031925969183184581430000015417318730393020822_);}
	.st15{clip-path:url(#SVGID_00000016791851662450700600000007081300726632821401_);}
	.st16{clip-path:url(#SVGID_00000129919742834426489800000015544624788731884968_);}
	.st17{clip-path:url(#SVGID_00000147189914392202805860000014118114516086330549_);}
	.st18{clip-path:url(#SVGID_00000131343815901537661550000009324824147597927325_);}
	.st19{clip-path:url(#SVGID_00000014635830282875465170000002016511362571436189_);}
	.st20{clip-path:url(#SVGID_00000121990613474389141400000003938535828506845610_);}
	.st21{clip-path:url(#SVGID_00000109751366435436012390000010041783441576615612_);}
	.st22{clip-path:url(#SVGID_00000044859499212317427460000015363371812034019990_);}
	.st23{clip-path:url(#SVGID_00000105403628154271672090000006212389793731002242_);}
	.st24{clip-path:url(#SVGID_00000028317203662800941860000009874890229468646819_);}
	.st25{clip-path:url(#SVGID_00000008849466956444615400000006928206753764233868_);}
	.st26{clip-path:url(#SVGID_00000106138508377393903240000001033877104490441896_);}
	.st27{clip-path:url(#SVGID_00000009556443204596753580000003012795220128505271_);}
	.st28{clip-path:url(#SVGID_00000015350727370179336610000000862603697793301159_);}
	.st29{clip-path:url(#SVGID_00000031919665625214929080000012858844434453941163_);}
	.st30{clip-path:url(#SVGID_00000109716658582974807190000012509101029582253710_);}
	.st31{clip-path:url(#SVGID_00000059996123315409413330000001223339110774985621_);}
	.st32{clip-path:url(#SVGID_00000076596686742719489130000003318103861007203491_);}
	.st33{clip-path:url(#SVGID_00000137100616761971751020000014825937360045607826_);}
	.st34{clip-path:url(#SVGID_00000112633956179403536510000008797755223642657930_);}
	.st35{clip-path:url(#SVGID_00000021091502424661776870000002503698967131321744_);}
	.st36{clip-path:url(#SVGID_00000171718587047895006940000001049590532396557478_);}
	.st37{clip-path:url(#SVGID_00000085212971153030894730000017114468169803017390_);}
	.st38{clip-path:url(#SVGID_00000037690927360046833780000011424467795463081641_);}
	.st39{clip-path:url(#SVGID_00000114038641159455563670000014781566607478525115_);}
	.st40{clip-path:url(#SVGID_00000145057687428123775700000002527548532420675237_);}
	.st41{clip-path:url(#SVGID_00000030463016701523511960000002883997726417304205_);}
	.st42{clip-path:url(#SVGID_00000030449585663302466100000013853802256956458649_);}
	.st43{clip-path:url(#SVGID_00000053516343546124876410000015903475401016769695_);}
	.st44{clip-path:url(#SVGID_00000071557770101687073510000002474079584174322104_);}
	.st45{clip-path:url(#SVGID_00000060031719653149987160000004002736647616339625_);}
	.st46{clip-path:url(#SVGID_00000049185936154904526330000010436408853372036284_);}
	.st47{clip-path:url(#SVGID_00000026154739618740959630000014055614081829045908_);}
	.st48{clip-path:url(#SVGID_00000183971412077897850230000003504199865974675635_);}
	.st49{clip-path:url(#SVGID_00000175306985850985770720000002884190982183958451_);}
	.st50{clip-path:url(#SVGID_00000000194669045431091960000001822801386511720363_);}
	.st51{clip-path:url(#SVGID_00000103954234419513522570000016830352708367234470_);}
	.st52{clip-path:url(#SVGID_00000158713103556681398340000014056029325826216639_);}
	.st53{clip-path:url(#SVGID_00000182527349784302012740000009902698275115730096_);}
	.st54{clip-path:url(#SVGID_00000027598095289302226980000016043898207874354109_);}
	.st55{clip-path:url(#SVGID_00000120535506678590926470000016163874573204458881_);}
	.st56{clip-path:url(#SVGID_00000150067914545398214840000013567030381425701038_);}
	.st57{clip-path:url(#SVGID_00000069378101992306045270000005829642968118067341_);}
	.st58{clip-path:url(#SVGID_00000178886910523420652130000001672655540154829222_);}
	.st59{clip-path:url(#SVGID_00000085953572187408837690000004174603419197039503_);}
	.st60{clip-path:url(#SVGID_00000176754014550453683190000008881369796325145488_);}
	.st61{clip-path:url(#SVGID_00000009592396562492433990000010091489273575827388_);}
	.st62{clip-path:url(#SVGID_00000120529841582309418360000014904998470056697473_);}
</style>
<g>
	<g>
		<rect x="1.28" y="54.46" class="st1" width="15.21" height="8.38"/>
	</g>
	<g>
		<path class="st1" d="M16.49,62.96H1.28c-0.07,0-0.12-0.06-0.12-0.12v-8.38c0-0.07,0.06-0.12,0.12-0.12h15.21
			c0.07,0,0.12,0.06,0.12,0.12v8.38C16.61,62.91,16.56,62.96,16.49,62.96z M1.4,62.71h14.96v-8.13H1.4V62.71z"/>
	</g>
	<g>
		<defs>
			<rect id="SVGID_00000163773509108519554770000011171735537486438074_" width="92.83" height="71.38"/>
		</defs>
		<clipPath id="SVGID_00000097480864937400315090000011713705260061377467_">
			<use xlink:href="#SVGID_00000163773509108519554770000011171735537486438074_"  style="overflow:visible;"/>
		</clipPath>
		<g style="clip-path:url(#SVGID_00000097480864937400315090000011713705260061377467_);">
			<path class="st1" d="M12.17,26.91c-0.43-1.51-1.75-2.62-3.3-2.62c-1.56,0-2.87,1.1-3.3,2.62H12.17z"/>
		</g>
		<g style="clip-path:url(#SVGID_00000097480864937400315090000011713705260061377467_);">
			<path class="st1" d="M12.17,27.03h-6.6c-0.04,0-0.08-0.02-0.1-0.05c-0.02-0.03-0.03-0.07-0.02-0.11
				c0.46-1.62,1.83-2.71,3.42-2.71c1.59,0,2.96,1.09,3.42,2.71c0.01,0.04,0,0.08-0.02,0.11C12.25,27.02,12.21,27.03,12.17,27.03z
				 M5.74,26.78H12c-0.47-1.42-1.71-2.37-3.13-2.37C7.45,24.42,6.21,25.36,5.74,26.78z"/>
		</g>
		<g style="clip-path:url(#SVGID_00000097480864937400315090000011713705260061377467_);">
			<rect x="0.28" y="54.1" class="st2" width="16.36" height="0.4"/>
		</g>
		<g style="clip-path:url(#SVGID_00000097480864937400315090000011713705260061377467_);">
			<path class="st2" d="M8.4,32.53c-2.41,0-4.36-1.98-4.36-4.41c0-2.43,1.96-4.41,4.36-4.41c2.41,0,4.36,1.98,4.36,4.41
				C12.77,30.55,10.81,32.53,8.4,32.53z M8.4,24.31c-2.08,0-3.76,1.71-3.76,3.81c0,2.1,1.69,3.81,3.76,3.81s3.76-1.71,3.76-3.81
				C12.17,26.02,10.48,24.31,8.4,24.31z"/>
		</g>
	</g>
	<g>
		<rect x="4.38" y="26.54" class="st2" width="8.05" height="0.4"/>
	</g>
	<g>
		<defs>
			<rect id="SVGID_00000119076581326813535300000015148295968754160563_" width="92.83" height="71.38"/>
		</defs>
		<clipPath id="SVGID_00000130632215584880192840000016211063325226060171_">
			<use xlink:href="#SVGID_00000119076581326813535300000015148295968754160563_"  style="overflow:visible;"/>
		</clipPath>
		<g style="clip-path:url(#SVGID_00000130632215584880192840000016211063325226060171_);">
			<path class="st2" d="M7.19,28.53c0,0.12-0.09,0.21-0.21,0.21c-0.12,0-0.21-0.1-0.21-0.21c0-0.12,0.09-0.21,0.21-0.21
				C7.1,28.32,7.19,28.41,7.19,28.53"/>
		</g>
		<g style="clip-path:url(#SVGID_00000130632215584880192840000016211063325226060171_);">
			<path class="st2" d="M10.04,28.53c0,0.12-0.09,0.21-0.21,0.21c-0.12,0-0.21-0.1-0.21-0.21c0-0.12,0.09-0.21,0.21-0.21
				C9.94,28.32,10.04,28.41,10.04,28.53"/>
		</g>
		<g style="clip-path:url(#SVGID_00000130632215584880192840000016211063325226060171_);">
			<path class="st2" d="M12.65,71.38c-0.17,0-0.3-0.13-0.3-0.3v-8.06c0-0.17,0.13-0.3,0.3-0.3s0.3,0.13,0.3,0.3v8.06
				C12.95,71.24,12.82,71.38,12.65,71.38z M4.08,71.38c-0.17,0-0.3-0.13-0.3-0.3v-8.06c0-0.17,0.13-0.3,0.3-0.3
				c0.17,0,0.3,0.13,0.3,0.3v8.06C4.38,71.24,4.25,71.38,4.08,71.38z M12.45,50.14c-0.17,0-0.3-0.13-0.3-0.3v-8.06
				c0-0.17,0.13-0.3,0.3-0.3s0.3,0.13,0.3,0.3v8.06C12.75,50.01,12.61,50.14,12.45,50.14z M4.34,50.14c-0.17,0-0.3-0.13-0.3-0.3
				v-8.06c0-0.17,0.13-0.3,0.3-0.3s0.3,0.13,0.3,0.3v8.06C4.64,50.01,4.51,50.14,4.34,50.14z"/>
		</g>
		<g style="clip-path:url(#SVGID_00000130632215584880192840000016211063325226060171_);">
			<path class="st2" d="M16.43,63.09H0.3c-0.17,0-0.3-0.13-0.3-0.3v-19.5c0-4.79,3.83-8.84,8.37-8.84c4.56,0,8.42,4.05,8.42,8.84
				c0,0,0,0,0,0l-0.05,19.5C16.73,62.95,16.6,63.09,16.43,63.09z M0.6,62.49h15.54l0.05-19.2c0-4.47-3.58-8.24-7.82-8.24
				c-4.21,0-7.77,3.77-7.77,8.24V62.49z"/>
		</g>
	</g>
	<g>
		<path class="st2" d="M8.12,62.97c-0.11,0-0.2-0.09-0.2-0.2v-6.29c0-0.11,0.09-0.2,0.2-0.2s0.2,0.09,0.2,0.2v6.29
			C8.32,62.88,8.23,62.97,8.12,62.97z"/>
	</g>
	<g>
		<rect x="31.28" y="3.36" class="st1" width="45.38" height="33.32"/>
	</g>
	<g>
		<path class="st1" d="M76.66,36.78H31.28c-0.05,0-0.09-0.04-0.09-0.09V3.36c0-0.05,0.04-0.09,0.09-0.09h45.38
			c0.05,0,0.09,0.04,0.09,0.09v33.32C76.75,36.74,76.71,36.78,76.66,36.78z M31.37,36.59h45.19V3.45H31.37V36.59z"/>
	</g>
	<g>
		<defs>
			<rect id="SVGID_00000056405363081453718680000005362927470438963615_" width="92.83" height="71.38"/>
		</defs>
		<clipPath id="SVGID_00000067198248899735399570000015946403680021425805_">
			<use xlink:href="#SVGID_00000056405363081453718680000005362927470438963615_"  style="overflow:visible;"/>
		</clipPath>
		<g style="clip-path:url(#SVGID_00000067198248899735399570000015946403680021425805_);">
			<path class="st2" d="M78.95,38.89H27.71c-0.17,0-0.3-0.14-0.3-0.3V0.3c0-0.17,0.14-0.3,0.3-0.3h51.24c0.17,0,0.3,0.14,0.3,0.3
				v38.29C79.25,38.76,79.11,38.89,78.95,38.89z M28.01,38.29h50.63V0.61H28.01V38.29z"/>
		</g>
	</g>
	<g>
		<path class="st2" d="M76.49,36.32H30.17c-0.17,0-0.3-0.13-0.3-0.3V2.74c0-0.17,0.13-0.3,0.3-0.3h46.32c0.17,0,0.3,0.13,0.3,0.3
			v33.29C76.79,36.19,76.65,36.32,76.49,36.32z M30.47,35.73h45.72V3.04H30.47V35.73z"/>
	</g>
	<g>
		<defs>
			<rect id="SVGID_00000091006343979632241830000007005628387243006096_" width="92.83" height="71.38"/>
		</defs>
		<clipPath id="SVGID_00000107555594112191393020000018240512269716372923_">
			<use xlink:href="#SVGID_00000091006343979632241830000007005628387243006096_"  style="overflow:visible;"/>
		</clipPath>
		<g style="clip-path:url(#SVGID_00000107555594112191393020000018240512269716372923_);">
			<path class="st4" d="M83.39,32.85c-0.03-4.93-4.07-9.32-8.91-9.28c-4.88,0.03-8.84,4.37-8.84,9.28v31.67h17.69L83.39,32.85z"/>
		</g>
		<g style="clip-path:url(#SVGID_00000107555594112191393020000018240512269716372923_);">
			<path class="st4" d="M79.51,17.07c0,2.76-2.24,5-5,5c-2.76,0-5-2.24-5-5c0-2.76,2.24-4.99,5-4.99
				C77.27,12.07,79.51,14.31,79.51,17.07"/>
		</g>
	</g>
	<g>
		<rect x="67.03" y="48.04" class="st1" width="16.14" height="16.57"/>
	</g>
	<g>
		<path class="st1" d="M83.18,64.73H67.03c-0.07,0-0.12-0.06-0.12-0.12V48.04c0-0.07,0.06-0.12,0.12-0.12h16.14
			c0.07,0,0.12,0.06,0.12,0.12V64.6C83.3,64.67,83.25,64.73,83.18,64.73z M67.16,64.48h15.89V48.16H67.16V64.48z"/>
	</g>
	<g>
		<rect x="65.78" y="47.74" class="st2" width="17.66" height="0.4"/>
	</g>
	<g>
		<defs>
			<rect id="SVGID_00000132048314681248668960000000646830218583132351_" width="92.83" height="71.38"/>
		</defs>
		<clipPath id="SVGID_00000030475127634719749450000002737687554493195911_">
			<use xlink:href="#SVGID_00000132048314681248668960000000646830218583132351_"  style="overflow:visible;"/>
		</clipPath>
		<g style="clip-path:url(#SVGID_00000030475127634719749450000002737687554493195911_);">
			<path class="st2" d="M79.61,71.38c-0.17,0-0.3-0.13-0.3-0.3v-6.29c0-0.17,0.13-0.3,0.3-0.3s0.3,0.13,0.3,0.3v6.29
				C79.91,71.25,79.78,71.38,79.61,71.38z M69.41,71.38c-0.17,0-0.3-0.13-0.3-0.3v-6.29c0-0.17,0.13-0.3,0.3-0.3s0.3,0.13,0.3,0.3
				v6.29C69.71,71.25,69.58,71.38,69.41,71.38z"/>
		</g>
	</g>
	<g>
		<path class="st2" d="M77.4,41.37c-0.19,0-0.35-0.16-0.35-0.35v-8.5c0-0.19,0.16-0.35,0.35-0.35s0.35,0.16,0.35,0.35v8.5
			C77.75,41.21,77.59,41.37,77.4,41.37z M65.65,32.24c-0.11,0-0.22-0.05-0.29-0.15l-4.86-6.97c-0.11-0.16-0.07-0.37,0.09-0.48
			c0.16-0.11,0.37-0.07,0.48,0.09l4.86,6.97c0.11,0.16,0.07,0.37-0.09,0.48C65.79,32.22,65.72,32.24,65.65,32.24z"/>
	</g>
	<g>
		<defs>
			<rect id="SVGID_00000172419005189623395390000000092448417311414428_" width="92.83" height="71.38"/>
		</defs>
		<clipPath id="SVGID_00000044880820493203381700000015574207979304546993_">
			<use xlink:href="#SVGID_00000172419005189623395390000000092448417311414428_"  style="overflow:visible;"/>
		</clipPath>
		<g style="clip-path:url(#SVGID_00000044880820493203381700000015574207979304546993_);">
			<path class="st2" d="M83.3,64.8H65.67c-0.17,0-0.3-0.13-0.3-0.3V32.87c0-5.15,4.17-9.54,9.11-9.57c0.02,0,0.04,0,0.06,0
				c2.26,0,4.45,0.93,6.16,2.63c1.87,1.84,2.94,4.37,2.96,6.94c0,0,0,0,0,0L83.6,64.5C83.6,64.67,83.46,64.8,83.3,64.8z M65.97,64.2
				H83l0.06-31.33c-0.01-2.41-1.03-4.78-2.78-6.52c-1.62-1.6-3.69-2.5-5.79-2.46c-4.62,0.03-8.52,4.14-8.52,8.97V64.2z"/>
		</g>
		<g style="clip-path:url(#SVGID_00000044880820493203381700000015574207979304546993_);">
			<path class="st1" d="M79.5,15.82c-0.58-1.89-2.34-3.26-4.43-3.26c-2.09,0-3.85,1.38-4.43,3.26H79.5z"/>
		</g>
		<g style="clip-path:url(#SVGID_00000044880820493203381700000015574207979304546993_);">
			<path class="st1" d="M79.49,15.95h-8.85c-0.04,0-0.08-0.02-0.1-0.05c-0.02-0.03-0.03-0.07-0.02-0.11
				c0.61-2.01,2.44-3.35,4.55-3.35s3.93,1.35,4.55,3.35c0.01,0.04,0,0.08-0.02,0.11C79.57,15.93,79.53,15.95,79.49,15.95z
				 M70.82,15.7h8.51c-0.63-1.81-2.31-3.01-4.25-3.01C73.13,12.68,71.44,13.89,70.82,15.7z"/>
		</g>
		<g style="clip-path:url(#SVGID_00000044880820493203381700000015574207979304546993_);">
			<path class="st2" d="M74.51,22.33c-2.9,0-5.27-2.36-5.27-5.27s2.36-5.27,5.27-5.27s5.27,2.36,5.27,5.27S77.42,22.33,74.51,22.33z
				 M74.51,12.4c-2.57,0-4.67,2.09-4.67,4.67c0,2.57,2.09,4.67,4.67,4.67c2.57,0,4.67-2.09,4.67-4.67
				C79.18,14.49,77.09,12.4,74.51,12.4z"/>
		</g>
	</g>
	<g>
		<rect x="69.78" y="15.66" class="st2" width="9.47" height="0.4"/>
	</g>
	<g>
		<defs>
			<rect id="SVGID_00000023971003726284202880000017143661852379527093_" width="92.83" height="71.38"/>
		</defs>
		<clipPath id="SVGID_00000067199280664473463620000009468917721064914822_">
			<use xlink:href="#SVGID_00000023971003726284202880000017143661852379527093_"  style="overflow:visible;"/>
		</clipPath>
		<g style="clip-path:url(#SVGID_00000067199280664473463620000009468917721064914822_);">
			<path class="st2" d="M72.97,17.44c0,0.15-0.12,0.27-0.27,0.27c-0.15,0-0.27-0.12-0.27-0.27c0-0.15,0.12-0.27,0.27-0.27
				C72.85,17.17,72.97,17.29,72.97,17.44"/>
		</g>
		<g style="clip-path:url(#SVGID_00000067199280664473463620000009468917721064914822_);">
			<path class="st2" d="M76.58,17.44c0,0.15-0.12,0.27-0.27,0.27c-0.15,0-0.27-0.12-0.27-0.27c0-0.15,0.12-0.27,0.27-0.27
				C76.46,17.17,76.58,17.29,76.58,17.44"/>
		</g>
	</g>
	<g>
		<path class="st2" d="M74.44,64.8c-0.11,0-0.2-0.09-0.2-0.2v-14c0-0.11,0.09-0.2,0.2-0.2s0.2,0.09,0.2,0.2v14
			C74.64,64.71,74.55,64.8,74.44,64.8z"/>
	</g>
	<g>
		<polygon class="st4" points="80.15,2.12 80.15,8.88 80.15,11.57 78.46,17.36 84.38,14.61 92.63,14.61 92.63,2.12 		"/>
	</g>
	<g>
		<polygon class="st1" points="80.75,2.48 80.75,9.24 80.75,11.92 79.07,17.71 84.98,14.95 92.56,14.95 92.56,2.48 		"/>
	</g>
	<g>
		<path class="st1" d="M79.07,17.8c-0.02,0-0.04-0.01-0.06-0.02c-0.03-0.02-0.04-0.06-0.03-0.1l1.68-5.78V2.48
			c0-0.05,0.04-0.09,0.09-0.09h11.81c0.05,0,0.09,0.04,0.09,0.09v12.47c0,0.05-0.04,0.09-0.09,0.09H85l-5.89,2.75
			C79.09,17.8,79.08,17.8,79.07,17.8z M80.85,2.58v9.34c0,0.01,0,0.02,0,0.03l-1.63,5.59l5.72-2.67c0.01-0.01,0.03-0.01,0.04-0.01
			h7.49V2.58H80.85z"/>
	</g>
	<g>
		<defs>
			<rect id="SVGID_00000165224434289277690020000015584544933976310931_" width="92.83" height="71.38"/>
		</defs>
		<clipPath id="SVGID_00000072241910754720993000000013415985571786561444_">
			<use xlink:href="#SVGID_00000165224434289277690020000015584544933976310931_"  style="overflow:visible;"/>
		</clipPath>
		<g style="clip-path:url(#SVGID_00000072241910754720993000000013415985571786561444_);">
			<path class="st2" d="M78.48,17.57c-0.05,0-0.1-0.02-0.15-0.05c-0.07-0.06-0.09-0.15-0.07-0.23l1.67-5.75V2.15
				c0-0.12,0.1-0.23,0.23-0.23h12.44c0.12,0,0.23,0.1,0.23,0.23v12.45c0,0.12-0.1,0.23-0.23,0.23h-8.17l-5.86,2.73
				C78.55,17.56,78.51,17.57,78.48,17.57z M80.39,2.37v9.19c0,0.02,0,0.04-0.01,0.06l-1.54,5.3l5.45-2.54
				c0.03-0.01,0.06-0.02,0.1-0.02h8v-12H80.39z"/>
		</g>
		<g style="clip-path:url(#SVGID_00000072241910754720993000000013415985571786561444_);">
			<path class="st2" d="M17.67,23.79c-1.58,0-3.11-0.5-4.44-1.45c-0.39,0.5-0.98,0.8-1.61,0.8c-1.15,0-2.09-0.94-2.09-2.09
				c0-0.77,0.44-1.47,1.12-1.83c-0.52-1.1-0.79-2.25-0.79-3.41c0-4.4,3.5-7.98,7.81-7.98c4.3,0,7.81,3.58,7.81,7.98
				S21.98,23.79,17.67,23.79z M13.16,21.62c0.07,0,0.13,0.02,0.18,0.06c1.28,0.99,2.77,1.51,4.33,1.51c3.97,0,7.21-3.31,7.21-7.39
				c0-4.07-3.23-7.38-7.21-7.38c-3.97,0-7.21,3.31-7.21,7.38c0,1.17,0.29,2.32,0.86,3.43c0.04,0.08,0.04,0.17,0.01,0.25
				c-0.03,0.08-0.1,0.14-0.18,0.17c-0.61,0.21-1.02,0.77-1.02,1.39c0,0.82,0.67,1.49,1.49,1.49c0.52,0,1-0.29,1.27-0.77
				c0.04-0.08,0.12-0.13,0.2-0.15C13.12,21.62,13.14,21.62,13.16,21.62z"/>
		</g>
	</g>
	<g>
		<polygon class="st4" points="14.41,19.85 17.06,18.24 21.98,12.36 20.44,11.06 15.51,16.96 		"/>
	</g>
	<g>
		<path class="st2" d="M14.41,20.14c-0.06,0-0.13-0.02-0.18-0.07c-0.09-0.08-0.13-0.21-0.08-0.32l1.1-2.9
			c0.01-0.03,0.03-0.06,0.05-0.08l4.93-5.9c0.05-0.06,0.12-0.09,0.19-0.1c0.07-0.01,0.15,0.02,0.21,0.07l1.55,1.3
			c0.12,0.1,0.14,0.28,0.04,0.4l-4.93,5.88c-0.02,0.02-0.04,0.04-0.07,0.06l-2.65,1.62C14.51,20.13,14.46,20.14,14.41,20.14z
			 M15.76,17.1l-0.79,2.07l1.9-1.16l4.71-5.62l-1.11-0.93L15.76,17.1z"/>
	</g>
	<g>
		<defs>
			<rect id="SVGID_00000023995172362840286690000011403768327454478509_" width="92.83" height="71.38"/>
		</defs>
		<clipPath id="SVGID_00000114046429854849623050000002348463224370219682_">
			<use xlink:href="#SVGID_00000023995172362840286690000011403768327454478509_"  style="overflow:visible;"/>
		</clipPath>
		<g style="clip-path:url(#SVGID_00000114046429854849623050000002348463224370219682_);">
			<path class="st1" d="M20.68,12.03l-4.41,5.26c-0.14,0.16-0.14,0.38-0.01,0.49c0.13,0.11,0.35,0.07,0.48-0.1l4.41-5.26
				L20.68,12.03z"/>
		</g>
		<g style="clip-path:url(#SVGID_00000114046429854849623050000002348463224370219682_);">
			<path class="st1" d="M16.43,17.98c-0.1,0-0.19-0.03-0.26-0.09c-0.08-0.07-0.13-0.16-0.14-0.27c-0.01-0.14,0.04-0.28,0.13-0.4
				l4.41-5.26c0.02-0.03,0.05-0.04,0.08-0.04c0.03-0.01,0.07,0.01,0.09,0.03l0.47,0.4c0.05,0.04,0.06,0.12,0.02,0.18l-4.41,5.26
				c-0.1,0.12-0.23,0.19-0.37,0.2C16.45,17.98,16.44,17.98,16.43,17.98z M20.69,12.21l-4.33,5.17c-0.05,0.06-0.08,0.14-0.08,0.21
				c0,0.03,0.01,0.07,0.05,0.11s0.08,0.03,0.11,0.03c0.07-0.01,0.14-0.05,0.2-0.11l4.33-5.17L20.69,12.21z"/>
		</g>
		<g style="clip-path:url(#SVGID_00000114046429854849623050000002348463224370219682_);">
			<path class="st1" d="M15.31,18.88c-0.16-0.12-0.41-0.1-0.45-0.06l-0.36,1.06l1.03-0.6C15.53,19.28,15.59,19.09,15.31,18.88"/>
		</g>
		<g style="clip-path:url(#SVGID_00000114046429854849623050000002348463224370219682_);">
			<path class="st1" d="M14.5,20.01c-0.03,0-0.06-0.01-0.08-0.03c-0.04-0.03-0.06-0.09-0.04-0.14l0.36-1.06
				c0-0.02,0.01-0.03,0.02-0.04c0.09-0.1,0.42-0.1,0.62,0.04c0,0,0,0,0,0c0.35,0.26,0.28,0.51,0.27,0.54
				c-0.01,0.03-0.03,0.05-0.06,0.07l-1.03,0.6C14.54,20,14.52,20.01,14.5,20.01z M14.96,18.92l-0.23,0.69l0.69-0.4
				c-0.01-0.04-0.05-0.13-0.18-0.23l0,0C15.15,18.92,15.02,18.91,14.96,18.92z"/>
		</g>
		<g style="clip-path:url(#SVGID_00000114046429854849623050000002348463224370219682_);">
			<path class="st1" d="M83.62,11.66c-0.16-0.12-0.41-0.09-0.44-0.06l-0.36,1.04l1.02-0.59C83.84,12.06,83.9,11.87,83.62,11.66"/>
		</g>
		<g style="clip-path:url(#SVGID_00000114046429854849623050000002348463224370219682_);">
			<path class="st1" d="M82.82,12.78c-0.03,0-0.06-0.01-0.08-0.03c-0.04-0.03-0.06-0.09-0.04-0.14l0.35-1.04
				c0-0.01,0.01-0.03,0.02-0.04c0.09-0.11,0.42-0.11,0.61,0.03l0,0c0.34,0.25,0.28,0.51,0.27,0.53c-0.01,0.03-0.03,0.05-0.06,0.07
				l-1.02,0.59C82.87,12.77,82.84,12.78,82.82,12.78z M83.28,11.7l-0.23,0.67l0.67-0.39c-0.01-0.04-0.05-0.13-0.18-0.22l0,0
				C83.46,11.7,83.34,11.7,83.28,11.7z"/>
		</g>
	</g>
	<g>
		<path class="st2" d="M14.41,20.14c-0.06,0-0.13-0.02-0.18-0.07c-0.09-0.08-0.13-0.21-0.08-0.32l1.1-2.9
			c0.01-0.03,0.03-0.06,0.05-0.08l4.93-5.9c0.05-0.06,0.12-0.09,0.19-0.1c0.07-0.01,0.15,0.02,0.21,0.07l1.55,1.3
			c0.12,0.1,0.14,0.28,0.04,0.4l-4.93,5.88c-0.02,0.02-0.04,0.04-0.07,0.06l-2.65,1.62C14.51,20.13,14.46,20.14,14.41,20.14z
			 M15.76,17.1l-0.79,2.07l1.9-1.16l4.71-5.62l-1.11-0.93L15.76,17.1z"/>
	</g>
	<g>
		<defs>
			<rect id="SVGID_00000005947431609861994180000012999079668098387117_" width="92.83" height="71.38"/>
		</defs>
		<clipPath id="SVGID_00000137091806195640379080000013776476437148016796_">
			<use xlink:href="#SVGID_00000005947431609861994180000012999079668098387117_"  style="overflow:visible;"/>
		</clipPath>
		<g style="clip-path:url(#SVGID_00000137091806195640379080000013776476437148016796_);">
			<path class="st2" d="M16.98,18.39c-0.13,0-0.25-0.04-0.35-0.13c-0.1-0.08-0.16-0.19-0.18-0.32c-0.12,0-0.25-0.04-0.35-0.12
				c-0.1-0.08-0.16-0.19-0.18-0.3c-0.15,0-0.26-0.04-0.37-0.12c-0.24-0.2-0.26-0.56-0.05-0.81l0.33,0.27
				c-0.06,0.07-0.06,0.17,0,0.21c0.06,0.05,0.15,0.03,0.21-0.04v0c0-0.01,0.01-0.01,0.01-0.02l4.21-5.02l-0.37-0.31l0.17-0.2h0
				l0.27-0.33l1.6,1.34l-0.27,0.33v0l-0.17,0.2l-0.38-0.32l-4.21,5.02c-0.03,0.04-0.05,0.09-0.04,0.13c0,0.02,0.01,0.06,0.04,0.08
				c0.03,0.03,0.06,0.03,0.09,0.03c0.05,0,0.09-0.03,0.12-0.07l0.33,0.27c-0.1,0.12-0.25,0.2-0.41,0.22
				C17.01,18.39,16.99,18.39,16.98,18.39z M20.59,12.26l-4.21,5.02c-0.06,0.07-0.06,0.17,0,0.21c0.06,0.05,0.15,0.03,0.21-0.04
				l4.21-5.02L20.59,12.26z"/>
		</g>
	</g>
	<g>
		<polygon class="st4" points="51.56,30.49 54.18,28.9 59.04,23.09 57.51,21.81 52.65,27.63 		"/>
	</g>
	<g>
		<path class="st2" d="M51.56,30.78c-0.06,0-0.13-0.02-0.18-0.07c-0.09-0.08-0.13-0.21-0.08-0.32l1.09-2.86
			c0.01-0.03,0.03-0.06,0.05-0.08l4.87-5.82c0.05-0.06,0.12-0.09,0.19-0.1c0.07-0.01,0.15,0.02,0.21,0.07l1.53,1.28
			c0.12,0.1,0.14,0.28,0.04,0.4l-4.87,5.8c-0.02,0.02-0.04,0.04-0.07,0.06l-2.62,1.6C51.66,30.76,51.61,30.78,51.56,30.78z
			 M52.9,27.78l-0.77,2.04l1.87-1.14l4.65-5.55l-1.09-0.92L52.9,27.78z"/>
	</g>
	<g>
		<defs>
			<rect id="SVGID_00000163794577676279644130000001821117367270371475_" width="92.83" height="71.38"/>
		</defs>
		<clipPath id="SVGID_00000160903677581289635810000008329240589083656840_">
			<use xlink:href="#SVGID_00000163794577676279644130000001821117367270371475_"  style="overflow:visible;"/>
		</clipPath>
		<g style="clip-path:url(#SVGID_00000160903677581289635810000008329240589083656840_);">
			<path class="st1" d="M57.75,22.77l-4.36,5.2c-0.14,0.16-0.14,0.38-0.01,0.49c0.13,0.11,0.34,0.07,0.48-0.09l4.36-5.2L57.75,22.77
				z"/>
		</g>
		<g style="clip-path:url(#SVGID_00000160903677581289635810000008329240589083656840_);">
			<path class="st1" d="M53.56,28.64c-0.1,0-0.18-0.03-0.25-0.09c-0.18-0.15-0.18-0.45-0.01-0.66l4.36-5.2
				c0.02-0.03,0.05-0.04,0.08-0.04c0.03-0.01,0.07,0.01,0.09,0.03l0.47,0.39c0.05,0.04,0.06,0.12,0.02,0.18l-4.36,5.2
				c-0.1,0.11-0.23,0.19-0.36,0.2C53.58,28.64,53.57,28.64,53.56,28.64z M57.77,22.94l-4.28,5.1c-0.09,0.11-0.1,0.25-0.02,0.31
				c0.04,0.03,0.08,0.03,0.11,0.03c0.07-0.01,0.14-0.05,0.19-0.11l4.28-5.1L57.77,22.94z"/>
		</g>
		<g style="clip-path:url(#SVGID_00000160903677581289635810000008329240589083656840_);">
			<path class="st1" d="M52.44,29.53c-0.16-0.12-0.41-0.09-0.44-0.06l-0.35,1.04l1.02-0.59C52.67,29.93,52.73,29.74,52.44,29.53"/>
		</g>
		<g style="clip-path:url(#SVGID_00000160903677581289635810000008329240589083656840_);">
			<path class="st1" d="M51.65,30.64c-0.03,0-0.06-0.01-0.08-0.03c-0.04-0.03-0.06-0.09-0.04-0.14l0.35-1.04
				c0-0.01,0.01-0.03,0.02-0.04c0.09-0.11,0.42-0.11,0.61,0.03l0,0c0.34,0.25,0.28,0.5,0.27,0.53c-0.01,0.03-0.03,0.06-0.06,0.07
				l-1.02,0.59C51.69,30.64,51.67,30.64,51.65,30.64z M52.1,29.57l-0.23,0.67l0.67-0.39c-0.01-0.04-0.05-0.13-0.17-0.22l0,0
				C52.29,29.57,52.16,29.57,52.1,29.57z"/>
		</g>
	</g>
	<g>
		<path class="st2" d="M51.56,30.78c-0.06,0-0.13-0.02-0.18-0.07c-0.09-0.08-0.13-0.21-0.08-0.32l1.09-2.86
			c0.01-0.03,0.03-0.06,0.05-0.08l4.87-5.82c0.05-0.06,0.12-0.09,0.19-0.1c0.07-0.01,0.15,0.02,0.21,0.07l1.53,1.28
			c0.12,0.1,0.14,0.28,0.04,0.4l-4.87,5.8c-0.02,0.02-0.04,0.04-0.07,0.06l-2.62,1.6C51.66,30.76,51.61,30.78,51.56,30.78z
			 M52.9,27.78l-0.77,2.04l1.87-1.14l4.65-5.55l-1.09-0.92L52.9,27.78z"/>
	</g>
	<g>
		<defs>
			<rect id="SVGID_00000055706712408467273160000012795653972950788739_" width="92.83" height="71.38"/>
		</defs>
		<clipPath id="SVGID_00000071535601499525858780000013090985516649510565_">
			<use xlink:href="#SVGID_00000055706712408467273160000012795653972950788739_"  style="overflow:visible;"/>
		</clipPath>
		<g style="clip-path:url(#SVGID_00000071535601499525858780000013090985516649510565_);">
			<path class="st2" d="M54.1,29.05c-0.13,0-0.25-0.04-0.35-0.12c-0.1-0.08-0.16-0.19-0.18-0.31c-0.12,0-0.24-0.04-0.34-0.12
				c-0.09-0.08-0.15-0.18-0.18-0.3c-0.13,0-0.26-0.04-0.36-0.12c-0.23-0.2-0.25-0.56-0.05-0.81l0.33,0.27
				c-0.06,0.07-0.06,0.16-0.01,0.21c0.05,0.04,0.15,0.03,0.2-0.04v0c0.01-0.01,0.01-0.01,0.02-0.02l4.16-4.95l-0.36-0.3l0.17-0.2
				l0,0l0.27-0.33L59,23.22l-0.27,0.33l0,0l-0.17,0.2l-0.37-0.31l-4.16,4.96c0,0,0,0,0,0l0,0c0,0,0,0,0,0
				c-0.03,0.04-0.04,0.08-0.04,0.12c0,0.02,0.01,0.06,0.04,0.09c0.03,0.02,0.06,0.02,0.09,0.02c0.04,0,0.09-0.03,0.12-0.07
				l0.33,0.27c-0.1,0.12-0.25,0.2-0.41,0.22C54.13,29.05,54.11,29.05,54.1,29.05z M57.66,23l-4.16,4.95
				c-0.03,0.04-0.05,0.08-0.04,0.13c0,0.02,0.01,0.06,0.04,0.08c0.05,0.04,0.15,0.03,0.2-0.04l4.16-4.95L57.66,23z"/>
		</g>
	</g>
	<g>
		<polygon class="st4" points="36.89,25.35 39.48,25.35 38.19,23.64 		"/>
	</g>
	<g>
		<polygon class="st4" points="36.89,28.75 39.48,28.75 38.19,27.04 		"/>
	</g>
	<g>
		<polygon class="st4" points="36.89,32.15 39.48,32.15 38.19,30.44 		"/>
	</g>
	<g>
		<polygon class="st4" points="36.89,21.94 39.48,21.94 38.19,20.23 		"/>
	</g>
	<g>
		<polygon class="st4" points="36.89,15.13 39.48,15.13 38.19,13.42 		"/>
	</g>
	<g>
		<polygon class="st4" points="36.89,18.54 39.48,18.54 38.19,16.82 		"/>
	</g>
	<g>
		<polygon class="st4" points="47.25,10.02 47.25,12.6 48.97,11.31 		"/>
	</g>
	<g>
		<polygon class="st4" points="43.85,10.02 43.85,12.6 45.56,11.31 		"/>
	</g>
	<g>
		<polygon class="st4" points="40.45,10.02 40.45,12.6 42.16,11.31 		"/>
	</g>
	<g>
		<polygon class="st4" points="47.42,24.98 47.42,27.57 49.14,26.27 		"/>
	</g>
	<g>
		<polygon class="st4" points="44.02,24.98 44.02,27.57 45.73,26.27 		"/>
	</g>
	<g>
		<polygon class="st4" points="40.62,24.98 40.62,27.57 42.33,26.27 		"/>
	</g>
	<g>
		<polygon class="st4" points="37.04,10.02 37.04,12.6 38.75,11.31 		"/>
	</g>
	<g>
		<polygon class="st4" points="66.7,15.95 66.7,4.69 50.57,4.69 50.57,15.95 57.86,15.95 57.86,17.86 55.31,17.86 55.31,19.19 
			61.97,19.19 61.97,17.86 59.42,17.86 59.42,15.95 		"/>
	</g>
	<g>
		<path class="st2" d="M61.97,19.49h-6.66c-0.17,0-0.3-0.13-0.3-0.3v-1.33c0-0.17,0.13-0.3,0.3-0.3h2.25v-1.31h-6.98
			c-0.17,0-0.3-0.13-0.3-0.3V4.69c0-0.17,0.13-0.3,0.3-0.3H66.7c0.17,0,0.3,0.13,0.3,0.3v11.26c0,0.17-0.13,0.3-0.3,0.3h-6.98v1.31
			h2.25c0.17,0,0.3,0.13,0.3,0.3v1.33C62.27,19.36,62.13,19.49,61.97,19.49z M55.61,18.89h6.06v-0.73h-2.25
			c-0.17,0-0.3-0.13-0.3-0.3v-1.91c0-0.17,0.13-0.3,0.3-0.3h6.98V4.99H50.87v10.66h6.98c0.17,0,0.3,0.13,0.3,0.3v1.91
			c0,0.17-0.13,0.3-0.3,0.3h-2.25V18.89z"/>
	</g>
	<g>
		<polygon class="st4" points="91.26,10.56 91.26,3.88 81.66,3.88 81.66,10.56 86,10.56 86,11.7 84.48,11.7 84.48,12.49 
			88.44,12.49 88.44,11.7 86.93,11.7 86.93,10.56 		"/>
	</g>
	<g>
		<path class="st2" d="M88.44,12.69h-3.96c-0.11,0-0.2-0.09-0.2-0.2V11.7c0-0.11,0.09-0.2,0.2-0.2h1.32v-0.73h-4.14
			c-0.11,0-0.2-0.09-0.2-0.2V3.88c0-0.11,0.09-0.2,0.2-0.2h9.6c0.11,0,0.2,0.09,0.2,0.2v6.69c0,0.11-0.09,0.2-0.2,0.2h-4.14v0.73
			h1.32c0.11,0,0.2,0.09,0.2,0.2v0.79C88.64,12.6,88.55,12.69,88.44,12.69z M84.68,12.29h3.56V11.9h-1.32c-0.11,0-0.2-0.09-0.2-0.2
			v-1.13c0-0.11,0.09-0.2,0.2-0.2h4.14V4.08h-9.2v6.28H86c0.11,0,0.2,0.09,0.2,0.2v1.13c0,0.11-0.09,0.2-0.2,0.2h-1.32V12.29z"/>
	</g>
	<g>
		<rect x="52.72" y="6.25" class="st1" width="13.05" height="8.13"/>
	</g>
	<g>
		<rect x="82.86" y="4.72" class="st1" width="7.94" height="4.95"/>
	</g>
	<g>
		<polygon class="st4" points="56.13,13.33 58.12,12.11 61.82,7.69 60.66,6.71 56.96,11.15 		"/>
	</g>
	<g>
		<path class="st2" d="M56.13,13.45c-0.03,0-0.06-0.01-0.08-0.03c-0.04-0.03-0.06-0.09-0.04-0.14l0.83-2.18
			c0-0.01,0.01-0.02,0.02-0.04l3.7-4.44c0.02-0.03,0.05-0.04,0.09-0.04c0.03-0.01,0.07,0.01,0.09,0.03l1.16,0.98
			c0.05,0.04,0.06,0.12,0.02,0.18l-3.7,4.42c-0.01,0.01-0.02,0.02-0.03,0.03l-1.99,1.22C56.18,13.45,56.15,13.45,56.13,13.45z
			 M57.07,11.21l-0.69,1.82l1.66-1.02l3.6-4.31l-0.97-0.82L57.07,11.21z"/>
	</g>
	<g>
		<polygon class="st4" points="84.98,8.74 86.16,8.02 88.35,5.39 87.66,4.81 85.47,7.45 		"/>
	</g>
	<g>
		<path class="st2" d="M84.98,8.87c-0.03,0-0.06-0.01-0.08-0.03c-0.04-0.03-0.06-0.09-0.04-0.14l0.49-1.29
			c0-0.01,0.01-0.03,0.02-0.04l2.19-2.64c0.02-0.03,0.05-0.04,0.09-0.04c0.03-0.01,0.07,0.01,0.09,0.03l0.69,0.58
			c0.05,0.04,0.06,0.12,0.02,0.18L86.26,8.1c-0.01,0.01-0.02,0.02-0.03,0.03l-1.18,0.72C85.03,8.86,85.01,8.87,84.98,8.87z
			 M85.58,7.51l-0.35,0.93l0.85-0.52l2.09-2.52l-0.5-0.42L85.58,7.51z"/>
	</g>
	<g>
		<defs>
			<rect id="SVGID_00000095328707714884089550000007298512647029496965_" width="92.83" height="71.38"/>
		</defs>
		<clipPath id="SVGID_00000000916900435811168530000000662062518834851465_">
			<use xlink:href="#SVGID_00000095328707714884089550000007298512647029496965_"  style="overflow:visible;"/>
		</clipPath>
		<g style="clip-path:url(#SVGID_00000000916900435811168530000000662062518834851465_);">
			<path class="st1" d="M60.85,7.43l-3.32,3.97c-0.1,0.12-0.11,0.29-0.01,0.37c0.1,0.08,0.26,0.05,0.37-0.07l3.32-3.97L60.85,7.43z"
				/>
		</g>
		<g style="clip-path:url(#SVGID_00000000916900435811168530000000662062518834851465_);">
			<path class="st1" d="M57.65,11.94c-0.08,0-0.15-0.03-0.21-0.08c-0.15-0.13-0.15-0.37-0.01-0.55l3.32-3.97
				c0.02-0.03,0.05-0.04,0.08-0.04c0.03-0.01,0.07,0.01,0.09,0.03l0.36,0.3c0.05,0.04,0.06,0.12,0.02,0.18l-3.32,3.97
				c-0.08,0.09-0.18,0.15-0.29,0.16C57.67,11.94,57.66,11.94,57.65,11.94z M60.86,7.61l-3.24,3.87c-0.06,0.08-0.06,0.16-0.02,0.2
				c0.02,0.02,0.05,0.02,0.06,0.02c0.04,0,0.09-0.03,0.13-0.07l3.24-3.87L60.86,7.61z"/>
		</g>
		<g style="clip-path:url(#SVGID_00000000916900435811168530000000662062518834851465_);">
			<path class="st1" d="M87.77,5.25l-1.94,2.33c-0.06,0.07-0.06,0.17,0,0.22c0.06,0.05,0.15,0.03,0.21-0.04l1.93-2.33L87.77,5.25z"
				/>
		</g>
		<g style="clip-path:url(#SVGID_00000000916900435811168530000000662062518834851465_);">
			<path class="st1" d="M85.91,7.95c-0.06,0-0.11-0.02-0.16-0.06c-0.11-0.09-0.11-0.27-0.01-0.39l1.93-2.33
				c0.02-0.03,0.05-0.04,0.09-0.04c0.03-0.01,0.07,0.01,0.09,0.03l0.21,0.18c0.05,0.04,0.06,0.12,0.02,0.18l-1.94,2.33
				c-0.05,0.06-0.13,0.11-0.21,0.11C85.92,7.95,85.91,7.95,85.91,7.95z M87.78,5.43l-1.85,2.23c-0.02,0.02-0.02,0.04-0.02,0.05
				c0,0,0.02-0.01,0.03-0.03l1.86-2.23L87.78,5.43z"/>
		</g>
		<g style="clip-path:url(#SVGID_00000000916900435811168530000000662062518834851465_);">
			<path class="st1" d="M56.75,12.66c-0.11-0.08-0.29-0.07-0.32-0.04l-0.26,0.75l0.73-0.43C56.91,12.94,56.95,12.81,56.75,12.66"/>
		</g>
		<g style="clip-path:url(#SVGID_00000000916900435811168530000000662062518834851465_);">
			<path class="st1" d="M56.18,13.49c-0.03,0-0.06-0.01-0.08-0.03c-0.04-0.03-0.06-0.09-0.04-0.14l0.25-0.75
				c0-0.01,0.01-0.03,0.02-0.04c0.08-0.1,0.34-0.09,0.49,0.02c0,0,0,0,0,0c0.27,0.2,0.21,0.4,0.2,0.42
				c-0.01,0.03-0.03,0.06-0.06,0.07l-0.73,0.43C56.22,13.49,56.2,13.49,56.18,13.49z M56.53,12.72l-0.13,0.37l0.38-0.22
				c-0.01-0.03-0.04-0.07-0.1-0.12C56.64,12.73,56.57,12.71,56.53,12.72z"/>
		</g>
		<g style="clip-path:url(#SVGID_00000000916900435811168530000000662062518834851465_);">
			<path class="st1" d="M85.29,8.43c-0.05-0.04-0.14-0.03-0.15-0.02l-0.12,0.36l0.35-0.21C85.36,8.56,85.38,8.5,85.29,8.43"/>
		</g>
		<g style="clip-path:url(#SVGID_00000000916900435811168530000000662062518834851465_);">
			<path class="st1" d="M85.01,8.89c-0.03,0-0.06-0.01-0.08-0.03c-0.04-0.03-0.06-0.09-0.04-0.14l0.12-0.36
				c0-0.01,0.01-0.03,0.02-0.04c0.07-0.08,0.23-0.07,0.32,0l0,0c0.12,0.09,0.14,0.2,0.12,0.27c-0.01,0.03-0.03,0.05-0.06,0.07
				l-0.35,0.21C85.06,8.89,85.04,8.89,85.01,8.89z M85.24,8.48L85.24,8.48l0.04-0.06L85.24,8.48z"/>
		</g>
	</g>
	<g>
		<path class="st2" d="M56.13,13.45c-0.03,0-0.06-0.01-0.08-0.03c-0.04-0.03-0.06-0.09-0.04-0.14l0.83-2.18
			c0-0.01,0.01-0.02,0.02-0.04l3.7-4.44c0.02-0.03,0.05-0.04,0.09-0.04c0.03-0.01,0.07,0.01,0.09,0.03l1.16,0.98
			c0.05,0.04,0.06,0.12,0.02,0.18l-3.7,4.42c-0.01,0.01-0.02,0.02-0.03,0.03l-1.99,1.22C56.18,13.45,56.15,13.45,56.13,13.45z
			 M57.07,11.21l-0.69,1.82l1.66-1.02l3.6-4.31l-0.97-0.82L57.07,11.21z"/>
	</g>
	<g>
		<path class="st2" d="M84.98,8.87c-0.03,0-0.06-0.01-0.08-0.03c-0.04-0.03-0.06-0.09-0.04-0.14l0.49-1.29
			c0-0.01,0.01-0.03,0.02-0.04l2.19-2.64c0.02-0.03,0.05-0.04,0.09-0.04c0.03-0.01,0.07,0.01,0.09,0.03l0.69,0.58
			c0.05,0.04,0.06,0.12,0.02,0.18L86.26,8.1c-0.01,0.01-0.02,0.02-0.03,0.03l-1.18,0.72C85.03,8.86,85.01,8.87,84.98,8.87z
			 M85.58,7.51l-0.35,0.93l0.85-0.52l2.09-2.52l-0.5-0.42L85.58,7.51z"/>
	</g>
	<g>
		<defs>
			<rect id="SVGID_00000056418501714750592730000001387080639717615235_" width="92.83" height="71.38"/>
		</defs>
		<clipPath id="SVGID_00000087371772044440597450000015838474457132552580_">
			<use xlink:href="#SVGID_00000056418501714750592730000001387080639717615235_"  style="overflow:visible;"/>
		</clipPath>
		<g style="clip-path:url(#SVGID_00000087371772044440597450000015838474457132552580_);">
			<path class="st2" d="M58.07,12.18c-0.09,0-0.17-0.03-0.24-0.09c-0.08-0.06-0.12-0.15-0.13-0.25c-0.1,0.01-0.19-0.02-0.27-0.08
				c-0.07-0.06-0.12-0.15-0.13-0.24c-0.01,0-0.03,0-0.04,0c-0.09,0-0.17-0.03-0.24-0.09c-0.16-0.14-0.18-0.39-0.03-0.56l0.19,0.16
				c-0.06,0.07-0.06,0.16,0,0.21c0.03,0.03,0.07,0.03,0.09,0.03c0.04,0,0.09-0.03,0.12-0.06l0,0c0,0,0.01-0.01,0.01-0.01l3.19-3.81
				l-0.3-0.26l0.13-0.15l0,0l0.16-0.19l1.21,1.01l-0.29,0.34l-0.31-0.26l-3.19,3.81c0,0,0,0,0,0c-0.06,0.07-0.06,0.16,0,0.21
				c0.03,0.03,0.07,0.03,0.09,0.03c0.04,0,0.09-0.03,0.12-0.06l0.19,0.16c-0.07,0.09-0.18,0.14-0.29,0.15
				C58.09,12.18,58.08,12.18,58.07,12.18z M60.78,7.55l-3.19,3.81c-0.06,0.07-0.06,0.16,0,0.21c0.02,0.02,0.06,0.03,0.09,0.03
				c0.04,0,0.08-0.03,0.11-0.06l3.19-3.81L60.78,7.55z"/>
		</g>
		<g style="clip-path:url(#SVGID_00000087371772044440597450000015838474457132552580_);">
			<path class="st2" d="M86.15,8.09c-0.06,0-0.13-0.02-0.17-0.06c-0.04-0.04-0.07-0.08-0.09-0.14c-0.06,0-0.11-0.03-0.15-0.06
				C85.7,7.8,85.67,7.75,85.65,7.7c-0.06,0-0.11-0.02-0.16-0.06c-0.12-0.1-0.13-0.28-0.02-0.41l0.19,0.16
				c-0.02,0.02-0.02,0.04-0.01,0.05c0.01,0.01,0.04,0,0.05-0.02l0,0c0,0,0-0.01,0.01-0.01l1.86-2.21l-0.14-0.12l0.24-0.28l0.71,0.6
				L88.3,5.5l0,0l-0.16,0.19l-0.15-0.12l-1.86,2.21c0,0,0,0,0,0c-0.02,0.02-0.02,0.04,0,0.05c0.03,0,0.04,0,0.05-0.02l0.19,0.16
				c-0.05,0.06-0.12,0.1-0.2,0.11C86.16,8.09,86.16,8.09,86.15,8.09z M87.76,5.37L85.9,7.59c-0.01,0.01-0.01,0.02-0.01,0.04
				c0.04,0.02,0.05,0.01,0.06,0l1.86-2.22L87.76,5.37z"/>
		</g>
	</g>
	<g>
		<path class="st2" d="M65.47,14.16H51.8c-0.17,0-0.3-0.13-0.3-0.3V6.03c0-0.17,0.13-0.3,0.3-0.3h13.67c0.17,0,0.3,0.13,0.3,0.3
			v7.84C65.77,14.03,65.64,14.16,65.47,14.16z M52.1,13.56h13.07V6.33H52.1V13.56z"/>
	</g>
	<g>
		<path class="st2" d="M90.51,9.44h-8.1c-0.11,0-0.2-0.09-0.2-0.2V4.69c0-0.11,0.09-0.2,0.2-0.2h8.1c0.11,0,0.2,0.09,0.2,0.2v4.55
			C90.71,9.35,90.62,9.44,90.51,9.44z M82.61,9.04h7.7V4.89h-7.7V9.04z"/>
	</g>
	<g>
		<rect x="55.3" y="17.66" class="st2" width="6.78" height="0.6"/>
	</g>
	<g>
		<rect x="84.39" y="11.54" class="st2" width="4.08" height="0.4"/>
	</g>
</g>
</svg>
