<?xml version="1.0" encoding="utf-8"?>
<!-- Generator: Adobe Illustrator 26.0.2, SVG Export Plug-In . SVG Version: 6.00 Build 0)  -->
<svg version="1.1" id="Ebene_1" xmlns="http://www.w3.org/2000/svg" xmlns:xlink="http://www.w3.org/1999/xlink" x="0px" y="0px"
	 viewBox="0 0 121.96 85.09" style="enable-background:new 0 0 121.96 85.09;" xml:space="preserve">
<style type="text/css">
	.st0{clip-path:url(#SVGID_00000171708225786661499010000018084985204806015875_);}
	.st1{fill:#61B87A;}
	.st2{fill:#2B2961;}
	.st3{clip-path:url(#SVGID_00000007421900531220321880000008261241390597731479_);}
	.st4{fill:#FFFFFF;}
	.st5{clip-path:url(#SVGID_00000155138865873203335940000018158753938758475700_);}
	.st6{clip-path:url(#SVGID_00000095321120660866859140000009768497843046708380_);}
	.st7{clip-path:url(#SVGID_00000017498150875614325260000004176556074398644413_);}
	.st8{clip-path:url(#SVGID_00000065781153592372174950000004357320343989059257_);}
	.st9{clip-path:url(#SVGID_00000026147211345429543420000000037824113729753482_);}
	.st10{clip-path:url(#SVGID_00000097494905337376058450000005834823531164744833_);}
	.st11{clip-path:url(#SVGID_00000064315914776320134610000005505010269072847765_);}
	.st12{clip-path:url(#SVGID_00000057842765992516622520000008966930243974422956_);}
	.st13{clip-path:url(#SVGID_00000144326118436209338010000016463653664621522345_);}
	.st14{clip-path:url(#SVGID_00000146489858511336296570000002734303333215982014_);}
	.st15{clip-path:url(#SVGID_00000049179839117829555950000003132331020607842725_);}
	.st16{clip-path:url(#SVGID_00000008130696202891929890000014484347131055489929_);}
	.st17{clip-path:url(#SVGID_00000146484225580948124840000008817160448035927448_);}
	.st18{clip-path:url(#SVGID_00000168830979688728397160000017148667839495597716_);}
	.st19{clip-path:url(#SVGID_00000063612828727119968650000002741477265674807201_);}
	.st20{clip-path:url(#SVGID_00000004540979762041078250000005184783054683265450_);}
	.st21{clip-path:url(#SVGID_00000027580035423769063990000014728069526466937740_);}
	.st22{clip-path:url(#SVGID_00000045583981929118484300000000686187405827019413_);}
	.st23{clip-path:url(#SVGID_00000137113826055358298020000014827704303243201169_);}
	.st24{clip-path:url(#SVGID_00000111892253795422908960000016549694767482077610_);}
	.st25{clip-path:url(#SVGID_00000146468318633787420360000016768840450812099485_);}
	.st26{clip-path:url(#SVGID_00000067230773465947741410000000466454743121774510_);}
	.st27{clip-path:url(#SVGID_00000083793444228605471840000010402178945912776863_);}
	.st28{clip-path:url(#SVGID_00000031206090310046734150000014010754192107090356_);}
	.st29{clip-path:url(#SVGID_00000088127346405970801830000001376815951233725887_);}
	.st30{clip-path:url(#SVGID_00000062180620186393542730000003644743769123876492_);}
	.st31{clip-path:url(#SVGID_00000069366591333485102180000013208635595417486475_);}
	.st32{clip-path:url(#SVGID_00000092424986827570930770000014930907634693334975_);}
	.st33{clip-path:url(#SVGID_00000162340309375114442770000011234150285097486725_);}
	.st34{clip-path:url(#SVGID_00000168093044445207222740000001488337796090052993_);}
	.st35{clip-path:url(#SVGID_00000121978278448515155200000009331111977529621166_);}
	.st36{clip-path:url(#SVGID_00000061458114153601164090000000366133532481545643_);}
	.st37{clip-path:url(#SVGID_00000003090155987187997520000006948658029749893813_);}
	.st38{clip-path:url(#SVGID_00000156587300046231006930000002441151669424771484_);}
	.st39{clip-path:url(#SVGID_00000006686388223899467590000006935618306781657004_);}
	.st40{clip-path:url(#SVGID_00000132797939075548564300000000615333178756794283_);}
	.st41{clip-path:url(#SVGID_00000050661908130999720340000007307766029633483963_);}
	.st42{clip-path:url(#SVGID_00000096020371761805420200000014180471326889408951_);}
	.st43{clip-path:url(#SVGID_00000134939350779123983250000016233522436550936470_);}
	.st44{clip-path:url(#SVGID_00000110450139959878167220000006750927020639939234_);}
	.st45{clip-path:url(#SVGID_00000136389159049960592140000013501476242691372466_);}
	.st46{clip-path:url(#SVGID_00000028317582214501972030000009053113870422671262_);}
	.st47{clip-path:url(#SVGID_00000007421034830084458130000007721209086768283829_);}
	.st48{clip-path:url(#SVGID_00000008146540360696663460000002412323493334457776_);}
	.st49{clip-path:url(#SVGID_00000087382280193353555750000015695562928717413250_);}
	.st50{clip-path:url(#SVGID_00000027567447031818995800000006169930048425700792_);}
	.st51{clip-path:url(#SVGID_00000116236161509897459070000006161052871166163126_);}
	.st52{clip-path:url(#SVGID_00000070082238006117414300000006308046272477010591_);}
	.st53{clip-path:url(#SVGID_00000106852168703071904600000005637052384470741936_);}
	.st54{clip-path:url(#SVGID_00000109728706980612062270000011699951411247981495_);}
	.st55{clip-path:url(#SVGID_00000155148289975742722710000005195481281236598954_);}
	.st56{clip-path:url(#SVGID_00000088854483560257257330000017749258788173638027_);}
	.st57{clip-path:url(#SVGID_00000118385816990379476090000004998696017234692515_);}
	.st58{clip-path:url(#SVGID_00000055678740914863208360000015415414879424621442_);}
	.st59{clip-path:url(#SVGID_00000178883274435722086230000015788689465501671311_);}
	.st60{clip-path:url(#SVGID_00000152261967145337773380000005927330795665963439_);}
	.st61{clip-path:url(#SVGID_00000129170855666329187520000015858325130820283012_);}
	.st62{clip-path:url(#SVGID_00000062183149558328833290000010117179170917659285_);}
</style>
<g>
	<g>
		<g>
			<path class="st2" d="M78.13,26.89c0,0.15-0.12,0.28-0.28,0.28s-0.28-0.12-0.28-0.28c0-0.15,0.12-0.28,0.28-0.28
				S78.13,26.73,78.13,26.89"/>
		</g>
		<g>
			<path class="st2" d="M81.86,26.89c0,0.15-0.12,0.28-0.28,0.28s-0.28-0.12-0.28-0.28c0-0.15,0.12-0.28,0.28-0.28
				S81.86,26.73,81.86,26.89"/>
		</g>
		<g>
			<path class="st2" d="M33.47,85.25C33.47,85.25,33.47,85.25,33.47,85.25c-0.17,0-0.3-0.14-0.3-0.3l0.03-8.89
				c0-0.17,0.13-0.3,0.3-0.3c0,0,0,0,0,0c0.17,0,0.3,0.14,0.3,0.3l-0.03,8.89C33.77,85.11,33.64,85.25,33.47,85.25z M24.69,85.25
				C24.69,85.25,24.69,85.25,24.69,85.25c-0.17,0-0.3-0.14-0.3-0.3l0.03-8.89c0-0.17,0.13-0.3,0.3-0.3c0,0,0,0,0,0
				c0.17,0,0.3,0.14,0.3,0.3l-0.03,8.89C24.99,85.11,24.86,85.25,24.69,85.25z M33.29,62.16c-0.17,0-0.3-0.13-0.3-0.3v-7.53
				c0-0.17,0.13-0.3,0.3-0.3s0.3,0.13,0.3,0.3v7.53C33.59,62.03,33.46,62.16,33.29,62.16z M25,62.16c-0.17,0-0.3-0.13-0.3-0.3v-7.53
				c0-0.17,0.13-0.3,0.3-0.3s0.3,0.13,0.3,0.3v7.53C25.3,62.03,25.16,62.16,25,62.16z"/>
		</g>
	</g>
	<g>
		<rect x="21.88" y="69.25" class="st1" width="15.19" height="8.21"/>
	</g>
	<g>
		<path class="st1" d="M37.07,77.58H21.88c-0.07,0-0.12-0.06-0.12-0.12v-8.21c0-0.07,0.06-0.12,0.12-0.12h15.19
			c0.07,0,0.12,0.06,0.12,0.12v8.21C37.2,77.52,37.14,77.58,37.07,77.58z M22.01,77.33h14.94v-7.96H22.01V77.33z"/>
	</g>
	<g>
		<path class="st2" d="M24.07,44.7c-0.08,0-0.15-0.03-0.21-0.09c-0.12-0.12-0.12-0.31,0-0.42l1.61-1.64c0.12-0.12,0.31-0.12,0.42,0
			c0.12,0.12,0.12,0.31,0,0.42l-1.61,1.64C24.22,44.67,24.14,44.7,24.07,44.7z"/>
	</g>
	<g>
		<path class="st2" d="M34.22,44.7c-0.08,0-0.15-0.03-0.21-0.09L32.39,43c-0.12-0.12-0.12-0.31,0-0.42c0.12-0.12,0.31-0.12,0.42,0
			l1.62,1.61c0.12,0.12,0.12,0.31,0,0.42C34.38,44.67,34.3,44.7,34.22,44.7z"/>
	</g>
	<g>
		<g>
			<path class="st1" d="M33.01,39.13c-0.44-1.55-1.79-2.68-3.38-2.68c-1.59,0-2.94,1.13-3.38,2.68H33.01z"/>
		</g>
		<g>
			<path class="st1" d="M33.01,39.26h-6.76c-0.04,0-0.08-0.02-0.1-0.05c-0.02-0.03-0.03-0.07-0.02-0.11
				c0.47-1.66,1.88-2.77,3.5-2.77s3.03,1.11,3.5,2.77c0.01,0.04,0,0.08-0.02,0.11C33.09,39.24,33.05,39.26,33.01,39.26z
				 M26.42,39.01h6.42c-0.48-1.46-1.75-2.43-3.21-2.43S26.9,37.55,26.42,39.01z"/>
		</g>
		<g>
			<path class="st2" d="M29.16,44.87c-2.46,0-4.46-2.02-4.46-4.51s2-4.51,4.46-4.51c2.46,0,4.46,2.02,4.46,4.51
				S31.62,44.87,29.16,44.87z M29.16,36.46c-2.13,0-3.86,1.75-3.86,3.91s1.73,3.91,3.86,3.91c2.13,0,3.86-1.75,3.86-3.91
				S31.28,36.46,29.16,36.46z"/>
		</g>
	</g>
	<g>
		<rect x="25.04" y="38.85" class="st2" width="8.23" height="0.4"/>
	</g>
	<g>
		<g>
			<path class="st2" d="M27.91,40.78c0,0.12-0.1,0.22-0.22,0.22c-0.12,0-0.21-0.1-0.21-0.22c0-0.12,0.1-0.22,0.21-0.22
				C27.82,40.57,27.91,40.66,27.91,40.78"/>
		</g>
		<g>
			<path class="st2" d="M30.83,40.78c0,0.12-0.1,0.22-0.22,0.22c-0.12,0-0.21-0.1-0.21-0.22c0-0.12,0.1-0.22,0.21-0.22
				C30.73,40.57,30.83,40.66,30.83,40.78"/>
		</g>
		<g>
			<path class="st2" d="M37.37,77.88H20.86c-0.17,0-0.3-0.13-0.3-0.3V55.87c0-4.9,3.92-9.04,8.55-9.04c4.67,0,8.61,4.14,8.61,9.04
				c0,0,0,0,0,0l-0.06,21.71C37.67,77.74,37.54,77.88,37.37,77.88z M21.16,77.28h15.91l0.06-21.41c0-4.57-3.67-8.44-8.01-8.44
				c-4.31,0-7.95,3.86-7.95,8.44V77.28z"/>
		</g>
	</g>
	<g>
		<rect x="20.56" y="69.06" class="st2" width="16.74" height="0.4"/>
	</g>
	<g>
		<g>
			<path class="st2" d="M10.83,85.25C10.83,85.25,10.83,85.25,10.83,85.25c-0.17,0-0.3-0.14-0.3-0.3l0.03-7.57
				c0-0.17,0.13-0.33,0.3-0.3c0.17,0,0.3,0.14,0.3,0.3l-0.03,7.57C11.13,85.11,10.99,85.25,10.83,85.25z M3.52,85.25
				C3.52,85.25,3.52,85.25,3.52,85.25c-0.17,0-0.3-0.14-0.3-0.3l0.03-7.57c0-0.17,0.13-0.3,0.3-0.3c0,0,0,0,0,0
				c0.17,0,0.3,0.14,0.3,0.3l-0.03,7.57C3.82,85.11,3.69,85.25,3.52,85.25z M10.68,66.35c-0.17,0-0.3-0.13-0.3-0.3v-6.92
				c0-0.17,0.13-0.3,0.3-0.3s0.3,0.13,0.3,0.3v6.92C10.98,66.22,10.85,66.35,10.68,66.35z M3.78,66.35c-0.17,0-0.3-0.13-0.3-0.3
				v-6.92c0-0.17,0.13-0.3,0.3-0.3s0.3,0.13,0.3,0.3v6.92C4.08,66.22,3.95,66.35,3.78,66.35z"/>
		</g>
	</g>
	<g>
		<rect x="1.35" y="70.3" class="st1" width="12.73" height="6.91"/>
	</g>
	<g>
		<path class="st1" d="M14.07,77.34H1.35c-0.07,0-0.12-0.06-0.12-0.12V70.3c0-0.07,0.06-0.12,0.12-0.12h12.73
			c0.07,0,0.12,0.06,0.12,0.12v6.91C14.2,77.28,14.14,77.34,14.07,77.34z M1.47,77.09h12.48v-6.66H1.47V77.09z"/>
	</g>
	<g>
		<path class="st2" d="M3,50.97c-0.08,0-0.15-0.03-0.21-0.09c-0.12-0.12-0.12-0.31,0-0.42l1.34-1.36c0.12-0.12,0.31-0.12,0.42,0
			c0.12,0.12,0.12,0.31,0,0.42l-1.34,1.36C3.15,50.94,3.08,50.97,3,50.97z"/>
	</g>
	<g>
		<path class="st2" d="M11.47,50.97c-0.08,0-0.15-0.03-0.21-0.09l-1.34-1.36c-0.12-0.12-0.11-0.31,0-0.42
			c0.12-0.12,0.31-0.11,0.42,0l1.34,1.36c0.12,0.12,0.11,0.31,0,0.42C11.62,50.94,11.54,50.97,11.47,50.97z"/>
	</g>
	<g>
		<g>
			<path class="st1" d="M10.47,46.26c-0.37-1.28-1.5-2.22-2.83-2.22s-2.46,0.94-2.83,2.22H10.47z"/>
		</g>
		<g>
			<path class="st1" d="M10.47,46.38H4.82c-0.04,0-0.08-0.02-0.1-0.05c-0.02-0.03-0.03-0.07-0.02-0.11c0.4-1.38,1.58-2.31,2.95-2.31
				c1.37,0,2.55,0.93,2.95,2.31c0.01,0.04,0,0.08-0.02,0.11C10.55,46.36,10.51,46.38,10.47,46.38z M4.99,46.13h5.31
				c-0.41-1.18-1.46-1.97-2.66-1.97S5.39,44.95,4.99,46.13z"/>
		</g>
		<g>
			<path class="st2" d="M7.24,51.12c-2.07,0-3.76-1.7-3.76-3.8c0-2.09,1.69-3.8,3.76-3.8s3.76,1.7,3.76,3.8
				C11,49.41,9.32,51.12,7.24,51.12z M7.24,44.12c-1.74,0-3.16,1.44-3.16,3.2c0,1.76,1.42,3.2,3.16,3.2s3.16-1.44,3.16-3.2
				C10.4,45.55,8.98,44.12,7.24,44.12z"/>
		</g>
	</g>
	<g>
		<rect x="3.77" y="46.04" class="st2" width="6.93" height="0.4"/>
	</g>
	<g>
		<g>
			<path class="st2" d="M6.2,47.67c0,0.1-0.08,0.18-0.18,0.18s-0.18-0.08-0.18-0.18c0-0.1,0.08-0.18,0.18-0.18S6.2,47.57,6.2,47.67"
				/>
		</g>
		<g>
			<path class="st2" d="M8.65,47.67c0,0.1-0.08,0.18-0.18,0.18c-0.1,0-0.18-0.08-0.18-0.18c0-0.1,0.08-0.18,0.18-0.18
				C8.57,47.49,8.65,47.57,8.65,47.67"/>
		</g>
		<g>
			<path class="st2" d="M14.12,77.88H0.3c-0.17,0-0.3-0.13-0.3-0.3V60.4c0-4.14,3.3-7.63,7.21-7.63c3.93,0,7.26,3.5,7.26,7.63
				c0,0,0,0,0,0l-0.05,17.18C14.42,77.74,14.28,77.88,14.12,77.88z M0.6,77.28h13.22l0.05-16.88c0-3.81-3.05-7.03-6.66-7.03
				c-3.58,0-6.61,3.22-6.61,7.03V77.28z"/>
		</g>
		<g>
			<rect x="0.07" y="70.18" class="st2" width="14.13" height="0.4"/>
		</g>
		<g>
			<path class="st1" d="M84.49,24.8c-0.57-2.03-2.31-3.5-4.36-3.5s-3.79,1.48-4.36,3.5H84.49z"/>
		</g>
		<g>
			<path class="st1" d="M84.49,24.93h-8.73c-0.04,0-0.08-0.02-0.1-0.05c-0.02-0.03-0.03-0.07-0.02-0.11c0.6-2.15,2.4-3.59,4.48-3.59
				c2.08,0,3.88,1.44,4.48,3.59c0.01,0.04,0,0.08-0.02,0.11C84.57,24.91,84.53,24.93,84.49,24.93z M75.93,24.68h8.39
				c-0.62-1.95-2.28-3.25-4.2-3.25S76.55,22.73,75.93,24.68z"/>
		</g>
		<g>
			<path class="st2" d="M84.93,85.39c-0.17,0-0.3-0.13-0.3-0.3v-6.91c0-0.17,0.13-0.3,0.3-0.3s0.3,0.13,0.3,0.3v6.91
				C85.23,85.26,85.09,85.39,84.93,85.39z M73.88,85.39c-0.17,0-0.3-0.13-0.3-0.3v-6.91c0-0.17,0.13-0.3,0.3-0.3s0.3,0.13,0.3,0.3
				v6.91C74.18,85.26,74.04,85.39,73.88,85.39z"/>
		</g>
	</g>
	<g>
		<path class="st2" d="M72.92,31.9c-0.08,0-0.15-0.03-0.21-0.09c-0.12-0.12-0.12-0.31,0-0.42l2.08-2.09c0.12-0.12,0.31-0.12,0.42,0
			c0.12,0.12,0.12,0.31,0,0.42l-2.08,2.09C73.07,31.87,72.99,31.9,72.92,31.9z"/>
	</g>
	<g>
		<path class="st2" d="M86.09,31.9c-0.08,0-0.15-0.03-0.21-0.08l-2.11-2.05c-0.12-0.12-0.12-0.31-0.01-0.42
			c0.12-0.12,0.31-0.12,0.42-0.01l2.11,2.05c0.12,0.12,0.12,0.31,0.01,0.42C86.25,31.87,86.17,31.9,86.09,31.9z"/>
	</g>
	<g>
		<g>
			<path class="st2" d="M79.52,32.12c-3.15,0-5.71-2.59-5.71-5.77c0-3.18,2.56-5.77,5.71-5.77c3.15,0,5.71,2.59,5.71,5.77
				C85.23,29.53,82.67,32.12,79.52,32.12z M79.52,21.17c-2.82,0-5.12,2.32-5.12,5.17c0,2.85,2.29,5.18,5.12,5.18
				c2.82,0,5.11-2.32,5.11-5.18C84.63,23.5,82.34,21.17,79.52,21.17z"/>
		</g>
	</g>
	<g>
		<rect x="70.97" y="68.48" class="st1" width="18.12" height="9.54"/>
	</g>
	<g>
		<path class="st1" d="M89.08,78.14H70.97c-0.07,0-0.12-0.06-0.12-0.12v-9.54c0-0.07,0.06-0.12,0.12-0.12h18.12
			c0.07,0,0.12,0.06,0.12,0.12v9.54C89.21,78.08,89.15,78.14,89.08,78.14z M71.09,77.89h17.87V68.6H71.09V77.89z"/>
	</g>
	<g>
		<rect x="69.99" y="68.28" class="st2" width="19.05" height="0.4"/>
	</g>
	<g>
		<path class="st2" d="M84.93,52.73c-0.19,0-0.35-0.16-0.35-0.35v-9.29c0-0.19,0.16-0.35,0.35-0.35s0.35,0.16,0.35,0.35v9.29
			C85.28,52.57,85.12,52.73,84.93,52.73z M73.88,52.73c-0.19,0-0.35-0.16-0.35-0.35v-9.29c0-0.19,0.16-0.35,0.35-0.35
			s0.35,0.16,0.35,0.35v9.29C74.23,52.57,74.07,52.73,73.88,52.73z"/>
	</g>
	<g>
		<g>
			<path class="st2" d="M88.9,78.22H69.84c-0.17,0-0.3-0.13-0.3-0.3V43.4c0-5.61,4.5-10.38,9.83-10.42c0.02,0,0.04,0,0.06,0
				c2.42,0,4.77,1,6.62,2.83c2.03,2.01,3.21,4.78,3.23,7.59c0,0,0,0,0,0L89.2,77.92C89.2,78.09,89.07,78.22,88.9,78.22z
				 M70.14,77.62h18.47l0.06-34.22c-0.01-2.65-1.12-5.27-3.05-7.16c-1.75-1.73-3.98-2.69-6.25-2.65c-5.01,0.03-9.24,4.53-9.24,9.82
				V77.62z"/>
		</g>
		<g>
			<path class="st2" d="M58.96,85.25c-0.17,0-0.3-0.13-0.3-0.3v-9.73c0-0.17,0.13-0.3,0.3-0.3s0.3,0.13,0.3,0.3v9.73
				C59.26,85.11,59.12,85.25,58.96,85.25z M48.52,85.25c-0.17,0-0.3-0.13-0.3-0.3v-9.73c0-0.17,0.13-0.3,0.3-0.3s0.3,0.13,0.3,0.3
				v9.73C48.82,85.11,48.68,85.25,48.52,85.25z M58.7,58.19c-0.17,0-0.3-0.13-0.3-0.3v-8.31c0-0.17,0.13-0.3,0.3-0.3
				s0.3,0.13,0.3,0.3v8.31C59,58.05,58.87,58.19,58.7,58.19z M48.84,58.19c-0.17,0-0.3-0.13-0.3-0.3v-8.31c0-0.17,0.13-0.3,0.3-0.3
				s0.3,0.13,0.3,0.3v8.31C49.14,58.05,49,58.19,48.84,58.19z"/>
		</g>
	</g>
	<g>
		<path class="st2" d="M47.74,38.29c-0.08,0-0.15-0.03-0.21-0.09c-0.12-0.12-0.12-0.31,0-0.42l1.87-1.87c0.12-0.12,0.31-0.12,0.42,0
			c0.12,0.12,0.12,0.31,0,0.42l-1.87,1.87C47.89,38.26,47.82,38.29,47.74,38.29z"/>
	</g>
	<g>
		<path class="st2" d="M59.8,38.29c-0.08,0-0.15-0.03-0.21-0.09l-1.94-1.93c-0.12-0.12-0.12-0.31,0-0.42c0.12-0.12,0.31-0.12,0.42,0
			l1.94,1.93c0.12,0.12,0.12,0.31,0,0.42C59.95,38.26,59.88,38.29,59.8,38.29z"/>
	</g>
	<g>
		<g>
			<path class="st1" d="M58.34,31.76c-0.52-1.85-2.11-3.2-4-3.2c-1.89,0-3.48,1.35-4,3.2H58.34z"/>
		</g>
		<g>
			<path class="st1" d="M58.34,31.89h-8c-0.04,0-0.08-0.02-0.1-0.05c-0.02-0.03-0.03-0.07-0.02-0.11c0.55-1.97,2.21-3.29,4.12-3.29
				s3.56,1.32,4.12,3.29c0.01,0.04,0,0.08-0.02,0.11C58.42,31.87,58.38,31.89,58.34,31.89z M50.51,31.64h7.66
				c-0.57-1.77-2.09-2.95-3.83-2.95S51.08,29.87,50.51,31.64z"/>
		</g>
		<g>
			<path class="st2" d="M53.78,38.5c-2.9,0-5.25-2.38-5.25-5.31s2.35-5.31,5.25-5.31s5.25,2.38,5.25,5.31S56.68,38.5,53.78,38.5z
				 M53.78,28.49c-2.56,0-4.65,2.11-4.65,4.71s2.09,4.71,4.65,4.71c2.56,0,4.65-2.11,4.65-4.71S56.35,28.49,53.78,28.49z"/>
		</g>
	</g>
	<g>
		<rect x="48.94" y="31.41" class="st2" width="9.68" height="0.4"/>
	</g>
	<g>
		<g>
			<path class="st2" d="M52.32,33.69c0,0.14-0.11,0.26-0.25,0.26c-0.14,0-0.25-0.11-0.25-0.26c0-0.14,0.11-0.25,0.25-0.25
				C52.21,33.43,52.32,33.55,52.32,33.69"/>
		</g>
		<g>
			<path class="st2" d="M55.75,33.69c0,0.14-0.11,0.26-0.25,0.26c-0.14,0-0.25-0.11-0.25-0.26c0-0.14,0.11-0.25,0.25-0.25
				C55.63,33.43,55.75,33.55,55.75,33.69"/>
		</g>
	</g>
	<g>
		<rect x="45" y="68.88" class="st1" width="18.12" height="9.14"/>
	</g>
	<g>
		<path class="st1" d="M63.12,78.14H45c-0.07,0-0.12-0.06-0.12-0.12v-9.14c0-0.07,0.06-0.12,0.12-0.12h18.12
			c0.07,0,0.12,0.06,0.12,0.12v9.14C63.24,78.08,63.19,78.14,63.12,78.14z M45.13,77.89h17.87V69H45.13V77.89z"/>
	</g>
	<g>
		<rect x="44.02" y="68.68" class="st2" width="19.05" height="0.4"/>
	</g>
	<g>
		<g>
			<path class="st2" d="M63.13,78.18H44.07c-0.17,0-0.3-0.13-0.3-0.3V50.84c0-5.61,4.5-10.38,9.83-10.42c0.02,0,0.04,0,0.06,0
				c2.42,0,4.77,1,6.61,2.83c2.03,2.01,3.21,4.78,3.23,7.59c0,0,0,0,0,0l-0.06,27.04C63.43,78.05,63.3,78.18,63.13,78.18z
				 M44.37,77.58h18.47l0.06-26.74c-0.01-2.65-1.12-5.27-3.05-7.16c-1.75-1.73-3.98-2.64-6.25-2.65c-5.01,0.03-9.24,4.53-9.24,9.82
				V77.58z"/>
		</g>
	</g>
	<g>
		<rect x="74.45" y="24.43" class="st2" width="10.19" height="0.4"/>
	</g>
	<g>
		<polygon class="st4" points="92.21,0.3 92.21,10.88 92.21,15.07 89.57,24.15 98.83,19.83 121.66,19.83 121.66,0.3 		"/>
	</g>
	<g>
		<polygon class="st1" points="93.14,0.85 93.14,11.43 93.14,15.62 90.5,24.69 99.76,20.38 121.56,20.38 121.56,0.85 		"/>
	</g>
	<g>
		<path class="st1" d="M90.5,24.83c-0.03,0-0.06-0.01-0.09-0.03c-0.04-0.03-0.06-0.09-0.04-0.14l2.63-9.05V0.85
			c0-0.07,0.06-0.13,0.13-0.13h28.42c0.07,0,0.13,0.06,0.13,0.13v19.53c0,0.07-0.06,0.13-0.13,0.13H99.79l-9.24,4.3
			C90.54,24.82,90.52,24.83,90.5,24.83z M93.27,0.98v14.64c0,0.01,0,0.02,0,0.04l-2.56,8.79l9-4.19c0.02-0.01,0.04-0.01,0.06-0.01
			h21.67V0.98H93.27z"/>
	</g>
	<g>
		<path class="st2" d="M89.57,24.44c-0.07,0-0.14-0.02-0.2-0.07c-0.09-0.08-0.13-0.2-0.09-0.31l2.63-9.03V0.3
			c0-0.17,0.13-0.3,0.3-0.3h29.45c0.17,0,0.3,0.13,0.3,0.3v19.53c0,0.17-0.13,0.3-0.3,0.3H98.9l-9.2,4.29
			C89.66,24.44,89.61,24.44,89.57,24.44z M92.51,0.6v14.47c0,0.03,0,0.06-0.01,0.08l-2.45,8.44l8.66-4.04
			c0.04-0.02,0.08-0.03,0.13-0.03h22.53V0.6H92.51z"/>
	</g>
	<g>
		<path class="st4" d="M98.58,10.2l2.96,1.04v1.46l-4.48-1.9V9.58l4.48-1.9v1.46L98.58,10.2z"/>
		<path class="st4" d="M108.66,13.42h-5.19v-1.03l2.45-2.61c0.34-0.37,0.58-0.69,0.75-0.96c0.16-0.27,0.24-0.53,0.24-0.78
			c0-0.34-0.08-0.6-0.25-0.79c-0.17-0.19-0.41-0.29-0.73-0.29c-0.34,0-0.61,0.12-0.8,0.35c-0.2,0.23-0.29,0.54-0.29,0.92h-1.51
			c0-0.46,0.11-0.88,0.33-1.26c0.22-0.38,0.53-0.68,0.93-0.9s0.86-0.33,1.37-0.33c0.78,0,1.39,0.19,1.82,0.56
			c0.43,0.38,0.65,0.9,0.65,1.59c0,0.37-0.1,0.76-0.29,1.14c-0.19,0.39-0.53,0.84-1,1.36l-1.72,1.82h3.26V13.42z"/>
		<path class="st4" d="M110.54,9.69l0.44-3.85h4.24V7.1h-3.01l-0.19,1.63c0.36-0.19,0.74-0.29,1.14-0.29c0.72,0,1.29,0.22,1.7,0.67
			c0.41,0.45,0.61,1.07,0.61,1.88c0,0.49-0.1,0.93-0.31,1.31s-0.5,0.69-0.89,0.9s-0.84,0.32-1.36,0.32c-0.46,0-0.88-0.09-1.27-0.28
			c-0.39-0.19-0.7-0.45-0.93-0.78c-0.23-0.34-0.35-0.72-0.36-1.15h1.49c0.03,0.32,0.14,0.56,0.33,0.74
			c0.19,0.17,0.44,0.26,0.74,0.26c0.34,0,0.6-0.12,0.79-0.37c0.18-0.24,0.28-0.59,0.28-1.04c0-0.43-0.11-0.76-0.32-0.99
			c-0.21-0.23-0.51-0.34-0.9-0.34c-0.36,0-0.65,0.09-0.87,0.28l-0.15,0.13L110.54,9.69z"/>
	</g>
</g>
</svg>
