<?xml version="1.0" encoding="utf-8"?>
<!-- Generator: Adobe Illustrator 26.0.2, SVG Export Plug-In . SVG Version: 6.00 Build 0)  -->
<svg version="1.1" id="Ebene_1" xmlns="http://www.w3.org/2000/svg" xmlns:xlink="http://www.w3.org/1999/xlink" x="0px" y="0px"
	 viewBox="0 0 47.19 32.59" style="enable-background:new 0 0 47.19 32.59;" xml:space="preserve">
<style type="text/css">
	.st0{clip-path:url(#SVGID_00000089574224689041907390000011928451685700560304_);}
	.st1{fill:#61B87A;}
	.st2{fill:#2B2961;}
	.st3{clip-path:url(#SVGID_00000067917432228947799850000012797836031811310500_);}
	.st4{fill:#FFFFFF;}
	.st5{clip-path:url(#SVGID_00000036244720120931572580000010743971899263826349_);}
	.st6{clip-path:url(#SVGID_00000144317014140370096030000000891909140051648903_);}
	.st7{clip-path:url(#SVGID_00000147914295679626342350000015203471320902769039_);}
	.st8{clip-path:url(#SVGID_00000152231219224837728100000015863852967400544416_);}
	.st9{clip-path:url(#SVGID_00000058563859935025227540000011111192922311368083_);}
	.st10{clip-path:url(#SVGID_00000126311120054728586710000013494846070029030028_);}
	.st11{clip-path:url(#SVGID_00000106107478824192909700000015134939630147344061_);}
	.st12{clip-path:url(#SVGID_00000032636557677406295340000015542484721363651978_);}
	.st13{clip-path:url(#SVGID_00000057847625882662082940000006800206270706179992_);}
	.st14{clip-path:url(#SVGID_00000089566701747173928280000016490941377381637006_);}
	.st15{clip-path:url(#SVGID_00000145052759518836991110000006843650896628136623_);}
	.st16{clip-path:url(#SVGID_00000044136525460712558080000012531867467582195853_);}
	.st17{clip-path:url(#SVGID_00000034777640189201867080000007479652917261336502_);}
	.st18{clip-path:url(#SVGID_00000072998885328784192640000003041288484445529264_);}
	.st19{clip-path:url(#SVGID_00000033337200285813528140000011664208455840540545_);}
	.st20{clip-path:url(#SVGID_00000124164099809109639500000000598689223324049816_);}
	.st21{clip-path:url(#SVGID_00000118396457086534492890000005574872951869156017_);}
	.st22{clip-path:url(#SVGID_00000018220555369764877380000001655176418517809830_);}
	.st23{clip-path:url(#SVGID_00000068640733797246987140000017809103706577946244_);}
	.st24{clip-path:url(#SVGID_00000018924577767558133410000007158940785341711254_);}
	.st25{clip-path:url(#SVGID_00000088816001426112784610000006824166177508035515_);}
	.st26{clip-path:url(#SVGID_00000119117206763503530240000014975065421981337740_);}
	.st27{clip-path:url(#SVGID_00000081648612883134201030000004540238438533261990_);}
	.st28{clip-path:url(#SVGID_00000078020323788453477180000012518860899690054579_);}
	.st29{clip-path:url(#SVGID_00000030456109047872928280000018205941816132243328_);}
	.st30{clip-path:url(#SVGID_00000080208963307227803340000012173709455992115868_);}
	.st31{clip-path:url(#SVGID_00000146492222557046159200000015047252951204812713_);}
	.st32{clip-path:url(#SVGID_00000010283340394973263310000012387575719830736513_);}
	.st33{clip-path:url(#SVGID_00000039836855388802955360000014633378732562583220_);}
	.st34{clip-path:url(#SVGID_00000144315806783697685420000003321728038266860947_);}
	.st35{clip-path:url(#SVGID_00000150809175163595273300000015997320826131744416_);}
	.st36{clip-path:url(#SVGID_00000176749048440568907500000011286852068444073866_);}
	.st37{clip-path:url(#SVGID_00000016053694613409249230000005133428521349187205_);}
	.st38{clip-path:url(#SVGID_00000128447790924549467330000012001298890216642987_);}
	.st39{clip-path:url(#SVGID_00000123413797875342623260000015562745722774587571_);}
	.st40{clip-path:url(#SVGID_00000105392045827326889650000007005090874895760532_);}
	.st41{clip-path:url(#SVGID_00000116929539393234695590000012740817106804693908_);}
	.st42{clip-path:url(#SVGID_00000114058758430091945980000012073398737643552695_);}
	.st43{clip-path:url(#SVGID_00000024703481937620860420000004060061404992974015_);}
	.st44{clip-path:url(#SVGID_00000075851605962371493390000003913190806299099789_);}
	.st45{clip-path:url(#SVGID_00000021828896416119188230000016590992904769157014_);}
	.st46{clip-path:url(#SVGID_00000039095471645759646720000008595034015629523117_);}
	.st47{clip-path:url(#SVGID_00000093870050989510929760000015705302321861009802_);}
	.st48{clip-path:url(#SVGID_00000022549666554689796800000009539975235496502147_);}
	.st49{clip-path:url(#SVGID_00000104682092671062129920000005315078430787051648_);}
	.st50{clip-path:url(#SVGID_00000152957432370293315750000015027873738418109348_);}
	.st51{clip-path:url(#SVGID_00000042722117712776049580000015768600015640533665_);}
	.st52{clip-path:url(#SVGID_00000125570066744993395560000016017906691010490013_);}
	.st53{clip-path:url(#SVGID_00000165194057992033276160000000636739121695814555_);}
	.st54{clip-path:url(#SVGID_00000119799255143170356580000014498227711873403067_);}
	.st55{clip-path:url(#SVGID_00000150780994691437082690000003209447131059285429_);}
	.st56{clip-path:url(#SVGID_00000170992913509245397390000011862503774340986300_);}
	.st57{clip-path:url(#SVGID_00000080169261736277933280000013206303701351256997_);}
	.st58{clip-path:url(#SVGID_00000127032868450257508160000001853025674805914264_);}
	.st59{clip-path:url(#SVGID_00000052787089610295553970000018427220134991924134_);}
	.st60{clip-path:url(#SVGID_00000146481514288333508020000003250919937359196057_);}
	.st61{clip-path:url(#SVGID_00000000917137385792162730000015082517062896656517_);}
	.st62{clip-path:url(#SVGID_00000029038131020282708500000012375720998174516662_);}
</style>
<g>
	<g>
		<g>
			<path class="st4" d="M39.36,18.55L34.47,0.3L0.3,9.45c0.08,0.07,0.16,0.16,0.19,0.28c0.06,0.22-0.02,0.43-0.18,0.57l0.14,0.51
				c0.2,0.04,0.38,0.19,0.44,0.4c0.06,0.21-0.02,0.43-0.18,0.57l0.14,0.51c0.2,0.04,0.38,0.19,0.44,0.4
				c0.06,0.21-0.02,0.43-0.18,0.57l0.14,0.51c0.2,0.04,0.38,0.19,0.44,0.4c0.06,0.22-0.02,0.43-0.18,0.57l0.14,0.51
				c0.2,0.04,0.38,0.19,0.44,0.4c0.06,0.21-0.02,0.43-0.18,0.57l0.14,0.51c0.21,0.04,0.38,0.19,0.44,0.4
				c0.06,0.21-0.02,0.43-0.18,0.57l0.14,0.51c0.2,0.04,0.38,0.19,0.44,0.4c0.06,0.21-0.02,0.43-0.18,0.57l0.14,0.51
				c0.2,0.04,0.38,0.19,0.44,0.4c0.06,0.22-0.02,0.43-0.18,0.57l0.14,0.51c0.2,0.04,0.38,0.19,0.44,0.4
				c0.06,0.21-0.02,0.43-0.18,0.57l0.14,0.51c0.21,0.04,0.38,0.19,0.44,0.4c0.06,0.22-0.02,0.43-0.18,0.57l0.14,0.51
				c0.2,0.04,0.38,0.19,0.44,0.4c0.06,0.21-0.02,0.43-0.18,0.57l0.14,0.51c0.2,0.04,0.38,0.19,0.44,0.41
				c0.06,0.21-0.02,0.43-0.18,0.57l0.14,0.51c0.2,0.04,0.38,0.19,0.44,0.4c0.01,0.06,0.01,0.12,0.01,0.18L39.36,18.55z"/>
		</g>
		<g>
			<path class="st2" d="M5.27,27.97c-0.07,0-0.13-0.02-0.19-0.07C5,27.85,4.96,27.75,4.97,27.66c0-0.04,0-0.07,0-0.09
				c-0.03-0.11-0.13-0.17-0.21-0.18c-0.11-0.02-0.2-0.11-0.23-0.22l-0.14-0.51c-0.03-0.11,0.01-0.23,0.09-0.3
				c0.08-0.07,0.11-0.17,0.09-0.26c-0.03-0.1-0.1-0.17-0.21-0.19c-0.11-0.02-0.2-0.11-0.23-0.22L4,25.18
				c-0.03-0.11,0.01-0.23,0.09-0.3c0.06-0.05,0.12-0.15,0.09-0.27c-0.03-0.09-0.1-0.17-0.21-0.19c-0.11-0.02-0.2-0.11-0.23-0.22
				L3.6,23.7c-0.03-0.11,0.01-0.23,0.09-0.3c0.06-0.05,0.12-0.15,0.08-0.26c-0.03-0.1-0.1-0.17-0.21-0.19
				c-0.11-0.02-0.2-0.11-0.23-0.22L3.2,22.22c-0.03-0.11,0.01-0.23,0.09-0.3c0.06-0.06,0.12-0.15,0.09-0.27
				c-0.03-0.11-0.13-0.17-0.21-0.19c-0.11-0.02-0.2-0.11-0.23-0.22L2.8,20.74c-0.03-0.11,0.01-0.23,0.09-0.3
				c0.06-0.05,0.12-0.15,0.08-0.26C2.95,20.06,2.85,20,2.77,19.98c-0.11-0.02-0.2-0.11-0.23-0.22l-0.14-0.51
				c-0.03-0.11,0.01-0.23,0.09-0.3c0.06-0.05,0.12-0.15,0.09-0.26c-0.03-0.1-0.1-0.17-0.21-0.19c-0.11-0.02-0.2-0.11-0.23-0.22
				l-0.14-0.51c-0.03-0.11,0.01-0.23,0.09-0.3c0.06-0.05,0.12-0.15,0.09-0.27c-0.03-0.1-0.1-0.17-0.21-0.19
				C1.87,17,1.78,16.91,1.75,16.8L1.61,16.3c-0.03-0.11,0-0.23,0.09-0.3c0.06-0.06,0.12-0.16,0.09-0.27
				c-0.03-0.1-0.1-0.17-0.21-0.19c-0.11-0.02-0.2-0.11-0.23-0.22l-0.14-0.51c-0.03-0.11,0.01-0.23,0.09-0.3
				c0.08-0.07,0.11-0.17,0.09-0.27c-0.03-0.1-0.1-0.17-0.21-0.19c-0.11-0.02-0.2-0.11-0.23-0.22l-0.14-0.51
				c-0.03-0.11,0.01-0.23,0.09-0.3c0.06-0.05,0.12-0.15,0.09-0.27c-0.03-0.11-0.13-0.17-0.21-0.19c-0.11-0.02-0.2-0.11-0.23-0.22
				l-0.14-0.51c-0.03-0.11,0.01-0.23,0.09-0.3c0.06-0.05,0.12-0.15,0.09-0.27c-0.03-0.11-0.13-0.17-0.21-0.19
				c-0.11-0.02-0.2-0.11-0.23-0.22l-0.14-0.51c-0.03-0.11,0.01-0.23,0.09-0.3C0.17,10.01,0.23,9.91,0.2,9.8
				C0.19,9.77,0.17,9.73,0.11,9.67C0.02,9.6-0.02,9.49,0.01,9.38s0.11-0.2,0.22-0.22l34.17-9.14c0.16-0.04,0.33,0.05,0.37,0.21
				l4.9,18.25c0.02,0.08,0.01,0.16-0.03,0.23c-0.04,0.07-0.11,0.12-0.18,0.14L5.35,27.96C5.32,27.97,5.29,27.97,5.27,27.97z
				 M5.07,26.86c0.2,0.09,0.35,0.24,0.44,0.44l33.49-8.96L34.25,0.67L0.77,9.63c0,0.01,0,0.01,0,0.02c0.07,0.25,0.02,0.52-0.14,0.72
				l0.05,0.2c0.24,0.11,0.41,0.31,0.48,0.56s0.02,0.52-0.13,0.72l0.05,0.2c0.23,0.11,0.41,0.31,0.48,0.56
				c0.07,0.25,0.02,0.52-0.14,0.72l0.05,0.2c0.23,0.1,0.41,0.31,0.48,0.56c0.07,0.25,0.01,0.52-0.14,0.72l0.05,0.2
				c0.23,0.1,0.41,0.31,0.48,0.56c0.07,0.25,0.02,0.52-0.13,0.73l0.05,0.2c0.23,0.1,0.41,0.31,0.48,0.56
				c0.07,0.25,0.02,0.52-0.14,0.73l0.05,0.2c0.24,0.11,0.41,0.31,0.48,0.56c0.07,0.25,0.02,0.51-0.13,0.72l0.05,0.2
				c0.24,0.11,0.41,0.31,0.48,0.56c0.07,0.25,0.02,0.52-0.13,0.72l0.05,0.2c0.23,0.11,0.41,0.31,0.48,0.56
				c0.07,0.25,0.02,0.51-0.13,0.72l0.05,0.2c0.24,0.11,0.41,0.31,0.48,0.56c0.07,0.25,0.02,0.52-0.13,0.72l0.05,0.2
				c0.23,0.1,0.41,0.31,0.48,0.56c0.07,0.25,0.02,0.52-0.13,0.73l0.05,0.2c0.23,0.11,0.41,0.31,0.48,0.56
				c0.07,0.25,0.02,0.51-0.13,0.72L5.07,26.86z"/>
		</g>
	</g>
	<g>
		<polyline class="st1" points="28.05,21.87 31.38,1.26 34.79,0.35 39.72,18.74 27.68,21.97 		"/>
	</g>
	<g>
		<g>
			<path class="st2" d="M5.27,27.97c-0.07,0-0.13-0.02-0.19-0.07C5,27.85,4.96,27.75,4.97,27.66c0-0.02,0-0.07,0-0.08
				c-0.03-0.1-0.1-0.17-0.21-0.19c-0.11-0.02-0.2-0.11-0.23-0.22l-0.14-0.51c-0.03-0.11,0.01-0.23,0.09-0.3
				c0.08-0.07,0.11-0.17,0.09-0.27s-0.1-0.17-0.21-0.19c-0.11-0.02-0.2-0.11-0.23-0.22L4,25.18c-0.03-0.11,0.01-0.23,0.09-0.3
				c0.06-0.05,0.12-0.15,0.08-0.26c-0.03-0.11-0.13-0.17-0.21-0.19c-0.11-0.02-0.2-0.11-0.23-0.22L3.6,23.7
				c-0.03-0.11,0.01-0.23,0.09-0.3c0.06-0.05,0.12-0.15,0.08-0.26c-0.03-0.1-0.1-0.17-0.21-0.19c-0.11-0.02-0.2-0.11-0.23-0.22
				L3.2,22.22c-0.03-0.11,0.01-0.23,0.09-0.3c0.06-0.05,0.12-0.15,0.09-0.27c-0.03-0.11-0.13-0.17-0.21-0.19
				c-0.11-0.02-0.2-0.11-0.23-0.22L2.8,20.74c-0.03-0.11,0.01-0.23,0.09-0.3c0.06-0.05,0.12-0.15,0.09-0.27
				C2.95,20.06,2.85,20,2.77,19.98c-0.11-0.02-0.2-0.11-0.23-0.22l-0.14-0.51c-0.03-0.11,0.01-0.23,0.09-0.3
				c0.06-0.05,0.12-0.15,0.08-0.26c-0.03-0.1-0.1-0.17-0.21-0.19c-0.11-0.02-0.2-0.11-0.23-0.22l-0.14-0.51
				c-0.03-0.11,0.01-0.23,0.09-0.3c0.08-0.07,0.11-0.17,0.09-0.27c-0.03-0.11-0.13-0.17-0.21-0.19C1.87,17,1.78,16.91,1.75,16.8
				L1.61,16.3c-0.03-0.11,0.01-0.23,0.09-0.3c0.06-0.05,0.12-0.15,0.09-0.27c-0.03-0.11-0.13-0.17-0.21-0.19
				c-0.11-0.02-0.2-0.11-0.23-0.22l-0.14-0.51c-0.03-0.11,0.01-0.23,0.09-0.3c0.08-0.07,0.11-0.17,0.09-0.27
				c-0.03-0.11-0.13-0.17-0.21-0.19c-0.11-0.02-0.2-0.11-0.23-0.22l-0.14-0.51c-0.03-0.11,0.01-0.23,0.09-0.3
				c0.06-0.05,0.12-0.15,0.09-0.27c-0.03-0.11-0.13-0.17-0.21-0.19c-0.11-0.02-0.2-0.11-0.23-0.22l-0.14-0.51
				c-0.03-0.11,0.01-0.23,0.09-0.3c0.06-0.06,0.12-0.15,0.09-0.27s-0.13-0.17-0.21-0.19c-0.11-0.02-0.2-0.11-0.23-0.22l-0.14-0.51
				c-0.03-0.11,0.01-0.23,0.09-0.3C0.17,10.01,0.23,9.91,0.2,9.8C0.19,9.76,0.16,9.72,0.11,9.68C0.02,9.6-0.02,9.49,0.01,9.38
				s0.11-0.2,0.22-0.23l34.17-9.15c0.08-0.02,0.16-0.01,0.23,0.03c0.07,0.04,0.12,0.11,0.14,0.19c0.03,0.11,0,0.25-0.09,0.32
				c-0.06,0.05-0.12,0.15-0.09,0.27c0.03,0.1,0.1,0.17,0.21,0.19c0.11,0.02,0.2,0.11,0.23,0.22l0.14,0.51
				c0.03,0.11-0.01,0.23-0.09,0.3c-0.06,0.05-0.12,0.15-0.09,0.27c0.03,0.1,0.1,0.17,0.21,0.19c0.11,0.02,0.2,0.11,0.23,0.22
				l0.14,0.51c0.03,0.11-0.01,0.23-0.09,0.3c-0.06,0.05-0.11,0.15-0.08,0.26c0.03,0.1,0.1,0.17,0.21,0.19
				c0.11,0.02,0.2,0.11,0.23,0.22l0.14,0.51c0.03,0.11-0.01,0.23-0.09,0.3c-0.06,0.05-0.12,0.15-0.09,0.27
				c0.03,0.11,0.13,0.17,0.21,0.19c0.11,0.02,0.2,0.11,0.23,0.22l0.14,0.51c0.03,0.11-0.01,0.23-0.09,0.3
				c-0.08,0.07-0.11,0.17-0.09,0.27c0.03,0.11,0.13,0.17,0.21,0.19c0.11,0.02,0.2,0.11,0.23,0.22l0.14,0.51
				c0.03,0.11-0.01,0.23-0.09,0.3c-0.08,0.07-0.11,0.17-0.08,0.26c0.03,0.11,0.13,0.17,0.21,0.19c0.11,0.02,0.2,0.11,0.23,0.22
				l0.14,0.51c0.03,0.11-0.01,0.23-0.09,0.3c-0.06,0.05-0.12,0.15-0.09,0.27c0.03,0.09,0.1,0.17,0.21,0.19
				c0.11,0.02,0.2,0.11,0.23,0.22l0.14,0.51c0.03,0.11-0.01,0.23-0.09,0.3c-0.06,0.05-0.12,0.15-0.09,0.27
				c0.03,0.11,0.13,0.17,0.21,0.19c0.11,0.02,0.2,0.11,0.23,0.22l0.14,0.51c0.03,0.11-0.01,0.23-0.09,0.3
				c-0.08,0.07-0.11,0.17-0.09,0.27c0.03,0.11,0.13,0.17,0.21,0.19c0.11,0.02,0.2,0.11,0.23,0.22l0.14,0.51
				c0.03,0.11-0.01,0.23-0.09,0.3c-0.06,0.05-0.12,0.15-0.09,0.27c0.03,0.11,0.13,0.17,0.21,0.19c0.11,0.02,0.2,0.11,0.23,0.22
				l0.14,0.51c0.03,0.11-0.01,0.22-0.09,0.3c-0.06,0.06-0.12,0.16-0.09,0.27c0.03,0.11,0.13,0.17,0.21,0.19
				c0.11,0.02,0.2,0.11,0.23,0.22l0.14,0.51c0.03,0.11-0.01,0.23-0.09,0.3c-0.06,0.05-0.12,0.15-0.09,0.26
				c0.03,0.1,0.1,0.17,0.21,0.19c0.11,0.02,0.2,0.11,0.23,0.22l0.14,0.51c0.03,0.11-0.01,0.23-0.09,0.3
				c-0.07,0.06-0.1,0.15-0.08,0.25c0.03,0.15-0.06,0.31-0.22,0.35L5.34,27.96C5.32,27.97,5.29,27.97,5.27,27.97z M5.07,26.86
				c0.2,0.09,0.35,0.24,0.44,0.44l33.26-8.9c0.02-0.14,0.07-0.27,0.15-0.38l-0.05-0.2c-0.23-0.1-0.41-0.31-0.48-0.56c0,0,0,0,0,0
				c-0.07-0.25-0.02-0.52,0.13-0.72l-0.05-0.2c-0.23-0.11-0.41-0.31-0.48-0.56c-0.07-0.25-0.02-0.51,0.13-0.72l-0.05-0.2
				c-0.24-0.1-0.41-0.31-0.48-0.56c-0.07-0.25-0.02-0.51,0.13-0.72l-0.05-0.2c-0.23-0.1-0.41-0.31-0.48-0.56
				c-0.07-0.25-0.02-0.51,0.13-0.72l-0.05-0.2c-0.23-0.1-0.41-0.31-0.48-0.56c-0.07-0.25-0.02-0.52,0.13-0.72l-0.05-0.2
				c-0.24-0.11-0.41-0.31-0.48-0.56c-0.07-0.25-0.02-0.52,0.14-0.72l-0.05-0.2c-0.23-0.1-0.41-0.31-0.48-0.56
				c-0.07-0.25-0.02-0.52,0.13-0.72l-0.05-0.2c-0.23-0.11-0.41-0.31-0.48-0.56c-0.07-0.25-0.01-0.52,0.14-0.73l-0.05-0.2
				c-0.24-0.11-0.41-0.31-0.48-0.56c-0.07-0.25-0.02-0.51,0.13-0.72l-0.05-0.2c-0.24-0.11-0.41-0.31-0.48-0.56
				c-0.07-0.25-0.02-0.51,0.13-0.72l-0.05-0.2c-0.23-0.1-0.41-0.31-0.48-0.56c-0.07-0.25-0.02-0.52,0.13-0.72l-0.05-0.2
				c-0.23-0.11-0.41-0.31-0.48-0.56c-0.02-0.08-0.03-0.15-0.03-0.23L0.77,9.63c0,0.01,0,0.01,0,0.02c0.07,0.25,0.02,0.52-0.14,0.72
				l0.05,0.2c0.24,0.11,0.41,0.31,0.48,0.56c0.07,0.25,0.02,0.51-0.13,0.72l0.05,0.2c0.24,0.11,0.41,0.31,0.48,0.56
				c0.07,0.25,0.02,0.51-0.13,0.72l0.05,0.2c0.23,0.1,0.41,0.31,0.48,0.56c0.07,0.25,0.02,0.51-0.13,0.72l0.05,0.2
				c0.23,0.1,0.41,0.31,0.48,0.56c0.07,0.25,0.02,0.52-0.14,0.73l0.05,0.2c0.23,0.11,0.41,0.31,0.48,0.56
				c0.07,0.25,0.02,0.52-0.13,0.72l0.05,0.2c0.23,0.11,0.41,0.31,0.48,0.56c0.07,0.25,0.02,0.52-0.13,0.72l0.05,0.2
				c0.23,0.11,0.41,0.31,0.48,0.56c0.07,0.25,0.02,0.52-0.14,0.72l0.05,0.2c0.23,0.11,0.41,0.31,0.48,0.56
				c0.07,0.25,0.02,0.52-0.14,0.72l0.05,0.2c0.24,0.11,0.41,0.31,0.48,0.56c0.07,0.25,0.02,0.51-0.13,0.72l0.05,0.2
				c0.23,0.1,0.41,0.31,0.48,0.56c0.07,0.25,0.02,0.52-0.13,0.72l0.05,0.2c0.23,0.11,0.41,0.31,0.48,0.56
				c0.07,0.25,0.02,0.51-0.13,0.72L5.07,26.86z"/>
		</g>
	</g>
	<g>
		<path class="st2" d="M28.85,17.85c-0.27-0.04-0.46-0.29-0.42-0.57l0,0c0.04-0.27,0.29-0.46,0.57-0.42l0,0
			c0.27,0.04,0.46,0.3,0.42,0.57l0,0c-0.04,0.25-0.25,0.43-0.49,0.43l0,0C28.9,17.86,28.88,17.85,28.85,17.85z M29.29,14.84
			c-0.27-0.04-0.46-0.3-0.42-0.57l0,0c0.04-0.27,0.29-0.46,0.56-0.42l0,0c0.28,0.04,0.47,0.29,0.43,0.56l0,0
			c-0.04,0.25-0.25,0.43-0.5,0.43l0,0C29.34,14.84,29.31,14.84,29.29,14.84z M29.73,11.82c-0.28-0.04-0.47-0.29-0.43-0.56l0,0
			c0.04-0.28,0.3-0.47,0.57-0.43l0,0c0.27,0.04,0.46,0.3,0.42,0.57l0,0c-0.03,0.25-0.25,0.43-0.49,0.43l0,0
			C29.77,11.83,29.75,11.83,29.73,11.82z M30.16,8.81c-0.27-0.04-0.46-0.29-0.42-0.57l0,0c0.04-0.27,0.29-0.46,0.57-0.42l0,0
			c0.27,0.04,0.46,0.29,0.42,0.57l0,0c-0.04,0.24-0.25,0.43-0.49,0.43l0,0C30.21,8.82,30.19,8.81,30.16,8.81z M30.6,5.8
			c-0.27-0.04-0.46-0.3-0.42-0.57l0,0c0.04-0.27,0.29-0.46,0.56-0.42l0,0c0.28,0.04,0.47,0.29,0.43,0.56l0,0
			c-0.04,0.25-0.25,0.43-0.5,0.43l0,0C30.65,5.8,30.62,5.8,30.6,5.8z"/>
	</g>
	<g>
		<path class="st2" d="M28.5,20.87c-0.02,0-0.05,0-0.07-0.01c-0.27-0.04-0.46-0.29-0.42-0.57l2.61-18.08
			c0.04-0.27,0.3-0.46,0.57-0.42c0.27,0.04,0.46,0.29,0.42,0.57L29,20.44C28.96,20.69,28.75,20.87,28.5,20.87z"/>
	</g>
	<g>
		<path class="st2" d="M11.95,11.94l-1.29,0.34l0.95,3.54l-0.71,0.19l-0.95-3.54l-1.27,0.34l-0.15-0.58l3.27-0.88L11.95,11.94z"/>
		<path class="st2" d="M12.39,11.48c-0.03-0.11-0.02-0.2,0.03-0.29c0.05-0.09,0.13-0.15,0.26-0.18c0.12-0.03,0.23-0.02,0.32,0.03
			c0.09,0.05,0.14,0.13,0.17,0.24c0.03,0.1,0.02,0.2-0.03,0.29c-0.05,0.09-0.14,0.15-0.26,0.18c-0.12,0.03-0.23,0.03-0.32-0.03
			C12.48,11.66,12.42,11.58,12.39,11.48z M14.16,15.14l-0.69,0.18l-0.82-3.06l0.69-0.18L14.16,15.14z"/>
		<path class="st2" d="M16.09,14.1c0.17-0.05,0.3-0.13,0.39-0.26c0.09-0.13,0.11-0.27,0.08-0.42l0.65-0.17
			c0.04,0.19,0.03,0.39-0.04,0.58c-0.07,0.2-0.18,0.37-0.35,0.51c-0.17,0.15-0.36,0.25-0.58,0.31c-0.43,0.11-0.8,0.07-1.13-0.14
			c-0.32-0.21-0.55-0.56-0.68-1.05l-0.02-0.07c-0.12-0.47-0.1-0.87,0.07-1.22c0.17-0.35,0.48-0.58,0.91-0.69
			c0.36-0.1,0.69-0.07,0.97,0.08c0.29,0.15,0.48,0.4,0.58,0.74l-0.65,0.17c-0.05-0.17-0.15-0.3-0.3-0.39
			c-0.14-0.08-0.3-0.1-0.47-0.05c-0.22,0.06-0.37,0.19-0.45,0.38c-0.08,0.19-0.07,0.46,0.01,0.78l0.03,0.11
			c0.09,0.33,0.21,0.56,0.38,0.69C15.67,14.12,15.86,14.16,16.09,14.1z"/>
		<path class="st2" d="M18.7,12.52l-0.22,0.4l0.27,1l-0.69,0.18l-1.16-4.35l0.69-0.18l0.67,2.51l0.14-0.33l0.59-1.18l0.83-0.22
			l-0.8,1.58l1.74,1.45l-0.79,0.21L18.7,12.52z"/>
		<path class="st2" d="M22.28,13.03c-0.44,0.12-0.83,0.07-1.17-0.13c-0.34-0.2-0.58-0.53-0.7-0.99l-0.02-0.08
			c-0.08-0.31-0.1-0.59-0.04-0.87c0.05-0.27,0.17-0.5,0.35-0.69c0.18-0.19,0.4-0.32,0.66-0.39c0.42-0.11,0.78-0.07,1.07,0.14
			c0.3,0.2,0.51,0.55,0.64,1.04l0.07,0.28l-2,0.54c0.09,0.25,0.23,0.42,0.41,0.53c0.19,0.11,0.39,0.13,0.62,0.07
			c0.32-0.08,0.54-0.28,0.67-0.59l0.47,0.25c-0.07,0.22-0.2,0.4-0.38,0.56C22.75,12.85,22.53,12.96,22.28,13.03z M21.49,10.43
			c-0.19,0.05-0.32,0.16-0.4,0.32c-0.08,0.16-0.1,0.37-0.07,0.61l1.31-0.35l-0.01-0.05c-0.08-0.23-0.18-0.38-0.32-0.47
			C21.85,10.39,21.68,10.37,21.49,10.43z"/>
		<path class="st2" d="M23.92,8.45l0.2,0.74l0.54-0.15l0.14,0.51L24.25,9.7l0.46,1.71c0.03,0.12,0.08,0.2,0.14,0.23
			c0.06,0.04,0.15,0.04,0.27,0.01c0.08-0.02,0.16-0.05,0.23-0.09l0.14,0.53c-0.15,0.08-0.29,0.15-0.44,0.19
			c-0.53,0.14-0.87-0.08-1.03-0.66l-0.46-1.73l-0.5,0.14l-0.14-0.51l0.5-0.14l-0.2-0.74L23.92,8.45z"/>
	</g>
	<g>
		<path class="st1" d="M13.5,17.73l-1.28,0.34l0.95,3.54l-0.71,0.19l-0.95-3.54l-1.27,0.34l-0.15-0.58l3.27-0.88L13.5,17.73z"/>
		<path class="st1" d="M13.95,17.28c-0.03-0.11-0.02-0.2,0.03-0.29c0.05-0.09,0.13-0.15,0.26-0.18c0.12-0.03,0.23-0.02,0.32,0.03
			s0.14,0.13,0.17,0.24c0.03,0.1,0.02,0.2-0.03,0.29c-0.05,0.09-0.14,0.15-0.26,0.18c-0.12,0.03-0.23,0.02-0.32-0.03
			C14.03,17.46,13.97,17.38,13.95,17.28z M15.71,20.94l-0.69,0.18l-0.82-3.06l0.69-0.18L15.71,20.94z"/>
		<path class="st1" d="M17.64,19.89c0.17-0.05,0.3-0.13,0.39-0.26c0.09-0.13,0.11-0.27,0.08-0.42l0.65-0.17
			c0.04,0.19,0.03,0.39-0.04,0.58c-0.07,0.2-0.18,0.37-0.35,0.51c-0.17,0.15-0.36,0.25-0.58,0.31c-0.43,0.12-0.81,0.07-1.13-0.14
			c-0.32-0.21-0.55-0.56-0.68-1.05l-0.02-0.07c-0.12-0.47-0.1-0.87,0.07-1.22c0.17-0.35,0.48-0.58,0.91-0.69
			c0.36-0.1,0.69-0.07,0.97,0.08c0.29,0.15,0.48,0.4,0.58,0.74l-0.65,0.17c-0.05-0.17-0.15-0.3-0.3-0.38
			c-0.14-0.08-0.3-0.1-0.47-0.05c-0.22,0.06-0.37,0.19-0.45,0.38c-0.08,0.19-0.07,0.46,0.01,0.78l0.03,0.11
			c0.09,0.33,0.21,0.56,0.38,0.69C17.22,19.92,17.42,19.95,17.64,19.89z"/>
		<path class="st1" d="M20.25,18.31l-0.22,0.4l0.27,1l-0.69,0.18l-1.16-4.35l0.69-0.18l0.67,2.51l0.14-0.33l0.59-1.18l0.83-0.22
			l-0.8,1.58l1.74,1.45l-0.79,0.21L20.25,18.31z"/>
		<path class="st1" d="M23.82,18.82c-0.44,0.12-0.83,0.07-1.17-0.13s-0.58-0.53-0.7-0.99l-0.02-0.08c-0.08-0.31-0.1-0.59-0.04-0.87
			s0.17-0.5,0.35-0.69c0.18-0.19,0.4-0.32,0.66-0.39c0.42-0.11,0.78-0.07,1.07,0.14c0.3,0.2,0.51,0.55,0.64,1.04l0.07,0.28l-2,0.54
			c0.09,0.25,0.23,0.42,0.41,0.53c0.19,0.11,0.39,0.13,0.62,0.07c0.32-0.08,0.54-0.28,0.67-0.59l0.47,0.25
			c-0.07,0.22-0.2,0.4-0.38,0.56S24.08,18.76,23.82,18.82z M23.04,16.22c-0.19,0.05-0.32,0.16-0.4,0.32
			c-0.08,0.16-0.1,0.37-0.07,0.61l1.31-0.35l-0.01-0.05c-0.08-0.23-0.18-0.39-0.32-0.47C23.39,16.19,23.23,16.17,23.04,16.22z"/>
		<path class="st1" d="M25.46,14.24l0.2,0.74l0.54-0.14l0.14,0.51L25.8,15.5l0.46,1.71c0.03,0.12,0.08,0.2,0.14,0.23
			c0.06,0.04,0.15,0.04,0.27,0.01c0.08-0.02,0.16-0.05,0.23-0.09l0.14,0.53c-0.15,0.08-0.29,0.15-0.44,0.19
			c-0.53,0.14-0.87-0.08-1.03-0.66l-0.46-1.73l-0.5,0.13l-0.14-0.51l0.5-0.13l-0.2-0.74L25.46,14.24z"/>
	</g>
	<g>
		<g>
			<path class="st4" d="M46.89,32.29V13.43H11.52c0.06,0.09,0.11,0.2,0.11,0.32c0,0.22-0.13,0.41-0.32,0.5v0.53
				c0.19,0.09,0.32,0.28,0.32,0.5c0,0.22-0.13,0.41-0.32,0.5v0.53c0.19,0.09,0.32,0.28,0.32,0.5c0,0.22-0.13,0.41-0.32,0.5v0.53
				c0.19,0.09,0.32,0.28,0.32,0.5c0,0.22-0.13,0.41-0.32,0.5v0.53c0.19,0.09,0.32,0.28,0.32,0.5c0,0.22-0.13,0.41-0.32,0.5v0.53
				c0.19,0.09,0.32,0.28,0.32,0.5c0,0.22-0.13,0.41-0.32,0.5v0.53c0.19,0.09,0.32,0.28,0.32,0.5c0,0.22-0.13,0.41-0.32,0.5v0.53
				c0.19,0.09,0.32,0.28,0.32,0.5c0,0.22-0.13,0.41-0.32,0.5v0.53c0.19,0.09,0.32,0.28,0.32,0.5s-0.13,0.41-0.32,0.5v0.52
				c0.19,0.09,0.32,0.28,0.32,0.5s-0.13,0.41-0.32,0.5v0.53c0.19,0.09,0.32,0.28,0.32,0.5c0,0.22-0.13,0.41-0.32,0.5v0.53
				c0.19,0.09,0.32,0.28,0.32,0.5c0,0.22-0.13,0.41-0.32,0.5v0.52c0.19,0.09,0.32,0.28,0.32,0.5c0,0.06-0.02,0.12-0.03,0.17H46.89z"
				/>
		</g>
		<g>
			<path class="st2" d="M46.89,32.59H11.6c-0.1,0-0.19-0.05-0.24-0.12c-0.06-0.08-0.07-0.18-0.04-0.27
				c0.01-0.03,0.02-0.06,0.02-0.08c0-0.1-0.06-0.19-0.15-0.23c-0.1-0.05-0.17-0.15-0.17-0.27v-0.52c0-0.11,0.06-0.22,0.17-0.27
				c0.1-0.05,0.15-0.14,0.15-0.23s-0.06-0.19-0.15-0.23c-0.1-0.05-0.17-0.15-0.17-0.27v-0.53c0-0.11,0.06-0.22,0.17-0.27
				c0.07-0.04,0.15-0.12,0.15-0.23c0-0.12-0.08-0.2-0.15-0.23c-0.1-0.05-0.17-0.15-0.17-0.27v-0.53c0-0.11,0.06-0.22,0.17-0.27
				c0.07-0.04,0.15-0.12,0.15-0.23c0-0.1-0.06-0.19-0.15-0.23c-0.1-0.05-0.17-0.15-0.17-0.27v-0.53c0-0.11,0.06-0.22,0.17-0.27
				c0.1-0.05,0.15-0.14,0.15-0.23c0-0.1-0.06-0.19-0.15-0.23c-0.1-0.05-0.17-0.15-0.17-0.27v-0.53c0-0.11,0.06-0.22,0.17-0.27
				c0.09-0.05,0.15-0.13,0.15-0.23c0-0.1-0.06-0.19-0.15-0.23c-0.1-0.05-0.17-0.15-0.17-0.27v-0.53c0-0.11,0.06-0.22,0.17-0.27
				c0.07-0.04,0.15-0.12,0.15-0.23c0-0.12-0.08-0.2-0.15-0.23c-0.1-0.05-0.17-0.15-0.17-0.27V21.9c0-0.11,0.06-0.22,0.17-0.27
				c0.07-0.04,0.15-0.12,0.15-0.23c0-0.12-0.08-0.2-0.15-0.23c-0.1-0.05-0.17-0.15-0.17-0.27v-0.53c0-0.11,0.06-0.22,0.17-0.27
				c0.09-0.05,0.15-0.13,0.15-0.23c0-0.1-0.06-0.19-0.15-0.23c-0.1-0.05-0.17-0.15-0.17-0.27v-0.53c0-0.11,0.06-0.22,0.17-0.27
				c0.09-0.05,0.15-0.13,0.15-0.23c0-0.1-0.06-0.19-0.15-0.23c-0.1-0.05-0.17-0.15-0.17-0.27v-0.53c0-0.11,0.06-0.22,0.17-0.27
				c0.07-0.04,0.15-0.12,0.15-0.23s-0.08-0.2-0.15-0.23c-0.1-0.05-0.17-0.15-0.17-0.27v-0.53c0-0.11,0.06-0.22,0.17-0.27
				c0.07-0.04,0.15-0.12,0.15-0.23c0-0.12-0.08-0.2-0.15-0.23c-0.1-0.05-0.17-0.15-0.17-0.27v-0.53c0-0.11,0.06-0.22,0.17-0.27
				c0.09-0.05,0.15-0.13,0.15-0.23c0-0.04-0.02-0.09-0.06-0.14c-0.06-0.09-0.07-0.21-0.02-0.31c0.05-0.1,0.15-0.16,0.27-0.16h35.36
				c0.17,0,0.3,0.13,0.3,0.3v18.86C47.19,32.45,47.05,32.59,46.89,32.59z M11.92,31.99h34.66V13.73H11.93c0,0.01,0,0.01,0,0.02
				c0,0.26-0.12,0.5-0.32,0.66v0.2c0.2,0.16,0.32,0.4,0.32,0.66c0,0.26-0.12,0.5-0.32,0.67v0.2c0.2,0.16,0.32,0.4,0.32,0.66
				c0,0.26-0.12,0.5-0.32,0.66v0.2c0.2,0.16,0.32,0.4,0.32,0.66c0,0.26-0.12,0.5-0.32,0.66v0.2c0.2,0.16,0.32,0.4,0.32,0.66
				c0,0.26-0.12,0.5-0.32,0.66v0.2c0.2,0.16,0.32,0.4,0.32,0.66s-0.12,0.5-0.32,0.66v0.2c0.2,0.16,0.32,0.4,0.32,0.67
				c0,0.26-0.12,0.5-0.32,0.66v0.2c0.2,0.16,0.32,0.4,0.32,0.66s-0.12,0.5-0.32,0.66v0.2c0.2,0.16,0.32,0.4,0.32,0.66
				s-0.12,0.5-0.32,0.66v0.2c0.2,0.16,0.32,0.4,0.32,0.66c0,0.26-0.12,0.5-0.32,0.66v0.2c0.2,0.16,0.32,0.4,0.32,0.67
				c0,0.26-0.12,0.5-0.32,0.66v0.2c0.2,0.16,0.32,0.4,0.32,0.66c0,0.26-0.12,0.5-0.32,0.66v0.2C11.78,31.59,11.89,31.78,11.92,31.99
				z"/>
		</g>
	</g>
	<g>
		<polygon class="st1" points="43.66,13.54 35.11,32.59 34.73,32.59 47.19,32.59 47.19,13.54 		"/>
	</g>
	<g>
		<g>
			<path class="st2" d="M46.58,32.59H11.6c-0.1,0-0.19-0.05-0.24-0.12c-0.06-0.08-0.07-0.18-0.04-0.27
				c0.01-0.02,0.02-0.06,0.02-0.08c0-0.12-0.08-0.2-0.15-0.23c-0.1-0.05-0.17-0.15-0.17-0.27v-0.53c0-0.11,0.06-0.22,0.17-0.27
				c0.09-0.05,0.15-0.14,0.15-0.23c0-0.12-0.08-0.2-0.15-0.23c-0.1-0.05-0.17-0.15-0.17-0.27v-0.53c0-0.11,0.06-0.22,0.17-0.27
				c0.09-0.05,0.15-0.14,0.15-0.23c0-0.1-0.06-0.19-0.15-0.23c-0.1-0.05-0.17-0.15-0.17-0.27v-0.53c0-0.11,0.06-0.22,0.17-0.27
				c0.07-0.04,0.15-0.12,0.15-0.23c0-0.1-0.06-0.19-0.15-0.23c-0.1-0.05-0.17-0.15-0.17-0.27v-0.53c0-0.11,0.06-0.22,0.17-0.27
				c0.07-0.04,0.15-0.12,0.15-0.23c0-0.12-0.08-0.2-0.15-0.23c-0.1-0.05-0.17-0.15-0.17-0.27v-0.53c0-0.11,0.06-0.22,0.17-0.27
				c0.09-0.05,0.15-0.13,0.15-0.23c0-0.12-0.08-0.2-0.15-0.23c-0.1-0.05-0.17-0.15-0.17-0.27v-0.53c0-0.11,0.06-0.22,0.17-0.27
				c0.07-0.04,0.15-0.12,0.15-0.23c0-0.1-0.06-0.19-0.15-0.23c-0.1-0.05-0.17-0.15-0.17-0.27V21.9c0-0.11,0.06-0.22,0.17-0.27
				c0.07-0.04,0.15-0.12,0.15-0.23c0-0.12-0.08-0.2-0.15-0.23c-0.1-0.05-0.17-0.15-0.17-0.27v-0.53c0-0.11,0.06-0.22,0.17-0.27
				c0.09-0.05,0.15-0.13,0.15-0.23c0-0.12-0.08-0.2-0.15-0.23c-0.1-0.05-0.17-0.15-0.17-0.27v-0.53c0-0.11,0.06-0.22,0.17-0.27
				c0.07-0.04,0.15-0.12,0.15-0.23c0-0.1-0.06-0.19-0.15-0.23c-0.1-0.05-0.17-0.15-0.17-0.27v-0.53c0-0.11,0.06-0.22,0.17-0.27
				c0.07-0.04,0.15-0.12,0.15-0.23s-0.08-0.2-0.15-0.23c-0.1-0.05-0.17-0.15-0.17-0.27v-0.53c0-0.11,0.06-0.22,0.17-0.27
				c0.07-0.04,0.15-0.12,0.15-0.23s-0.08-0.2-0.15-0.23c-0.1-0.05-0.17-0.15-0.17-0.27v-0.53c0-0.11,0.06-0.22,0.17-0.27
				c0.07-0.04,0.15-0.12,0.15-0.23c0-0.03-0.01-0.07-0.06-0.15c-0.06-0.09-0.07-0.21-0.02-0.31c0.05-0.1,0.15-0.16,0.27-0.16h35.36
				c0.17,0,0.3,0.13,0.3,0.3c0,0.11-0.06,0.24-0.17,0.3c-0.07,0.04-0.15,0.12-0.15,0.23c0,0.1,0.06,0.19,0.15,0.23
				c0.1,0.05,0.17,0.15,0.17,0.27v0.52c0,0.11-0.06,0.22-0.17,0.27c-0.1,0.05-0.15,0.14-0.15,0.24c0,0.12,0.08,0.2,0.15,0.23
				c0.1,0.05,0.17,0.15,0.17,0.27v0.53c0,0.11-0.06,0.22-0.17,0.27c-0.09,0.05-0.15,0.13-0.15,0.23c0,0.12,0.08,0.2,0.15,0.23
				c0.1,0.05,0.17,0.15,0.17,0.27v0.53c0,0.11-0.06,0.22-0.17,0.27c-0.09,0.05-0.15,0.13-0.15,0.23c0,0.1,0.06,0.19,0.15,0.23
				c0.1,0.05,0.17,0.15,0.17,0.27v0.53c0,0.11-0.06,0.22-0.17,0.27c-0.07,0.04-0.15,0.12-0.15,0.23c0,0.1,0.06,0.19,0.15,0.23
				c0.1,0.05,0.17,0.15,0.17,0.27v0.53c0,0.11-0.06,0.22-0.17,0.27c-0.07,0.04-0.15,0.12-0.15,0.23c0,0.12,0.08,0.2,0.15,0.23
				c0.1,0.05,0.17,0.15,0.17,0.27v0.53c0,0.11-0.06,0.22-0.17,0.27c-0.09,0.05-0.15,0.13-0.15,0.23c0,0.12,0.08,0.2,0.15,0.23
				c0.1,0.05,0.17,0.15,0.17,0.27v0.52c0,0.11-0.06,0.22-0.17,0.27c-0.1,0.05-0.15,0.14-0.15,0.24c0,0.1,0.06,0.19,0.15,0.23
				c0.1,0.05,0.17,0.15,0.17,0.27v0.53c0,0.11-0.06,0.22-0.17,0.27c-0.07,0.04-0.15,0.12-0.15,0.23c0,0.1,0.06,0.19,0.15,0.23
				c0.1,0.05,0.17,0.15,0.17,0.27v0.53c0,0.11-0.06,0.22-0.17,0.27c-0.07,0.04-0.15,0.12-0.15,0.23c0,0.12,0.08,0.2,0.15,0.23
				c0.1,0.05,0.17,0.15,0.17,0.27v0.53c0,0.11-0.06,0.22-0.17,0.27c-0.09,0.05-0.15,0.13-0.15,0.23c0,0.12,0.08,0.2,0.15,0.23
				c0.1,0.05,0.17,0.15,0.17,0.27v0.52c0,0.11-0.06,0.22-0.17,0.27c-0.1,0.05-0.15,0.14-0.15,0.24c0,0.1,0.06,0.19,0.15,0.23
				c0.1,0.05,0.17,0.15,0.17,0.27v0.53c0,0.11-0.06,0.22-0.17,0.27c-0.08,0.04-0.14,0.12-0.14,0.22
				C46.87,32.47,46.74,32.59,46.58,32.59z M11.92,31.99h34.42c0.05-0.13,0.14-0.24,0.24-0.33v-0.2c-0.2-0.16-0.32-0.4-0.32-0.66
				c0-0.26,0.12-0.5,0.32-0.66v-0.2c-0.2-0.16-0.32-0.4-0.32-0.66c0-0.26,0.12-0.5,0.32-0.66v-0.2c-0.2-0.16-0.32-0.4-0.32-0.67
				c0-0.26,0.12-0.5,0.32-0.66v-0.2c-0.2-0.16-0.32-0.4-0.32-0.66c0-0.26,0.12-0.5,0.32-0.66v-0.2c-0.2-0.16-0.32-0.4-0.32-0.66
				c0-0.26,0.12-0.5,0.32-0.66v-0.2c-0.2-0.16-0.32-0.4-0.32-0.66c0-0.26,0.12-0.5,0.32-0.66v-0.2c-0.2-0.16-0.32-0.4-0.32-0.66
				s0.12-0.5,0.32-0.66v-0.2c-0.2-0.16-0.32-0.4-0.32-0.66s0.12-0.5,0.32-0.66v-0.2c-0.2-0.16-0.32-0.4-0.32-0.66
				s0.12-0.5,0.32-0.66v-0.2c-0.2-0.16-0.32-0.4-0.32-0.66c0-0.26,0.12-0.5,0.32-0.66v-0.2c-0.2-0.16-0.32-0.4-0.32-0.66
				c0-0.26,0.12-0.5,0.32-0.66v-0.2c-0.2-0.16-0.32-0.4-0.32-0.66c0-0.08,0.01-0.16,0.03-0.23H11.93c0,0.01,0,0.01,0,0.02
				c0,0.26-0.12,0.5-0.32,0.66v0.2c0.2,0.16,0.32,0.4,0.32,0.66s-0.12,0.5-0.32,0.66v0.2c0.2,0.16,0.32,0.4,0.32,0.66
				s-0.12,0.5-0.32,0.66v0.2c0.2,0.16,0.32,0.4,0.32,0.66c0,0.26-0.12,0.5-0.32,0.66v0.2c0.2,0.16,0.32,0.4,0.32,0.66
				c0,0.26-0.12,0.5-0.32,0.66v0.2c0.2,0.16,0.32,0.4,0.32,0.66c0,0.26-0.12,0.5-0.32,0.66v0.2c0.2,0.16,0.32,0.4,0.32,0.66
				c0,0.26-0.12,0.5-0.32,0.66v0.2c0.2,0.16,0.32,0.4,0.32,0.66c0,0.26-0.12,0.5-0.32,0.66v0.2c0.2,0.16,0.32,0.4,0.32,0.66
				c0,0.26-0.12,0.5-0.32,0.66v0.2c0.2,0.16,0.32,0.4,0.32,0.66s-0.12,0.5-0.32,0.66v0.2c0.2,0.16,0.32,0.4,0.32,0.66
				c0,0.26-0.12,0.5-0.32,0.66v0.2c0.2,0.16,0.32,0.4,0.32,0.66s-0.12,0.5-0.32,0.66v0.2C11.78,31.59,11.89,31.78,11.92,31.99z"/>
		</g>
	</g>
	<g>
		<path class="st2" d="M36.91,28.9c-0.25-0.11-0.37-0.4-0.26-0.66l0,0c0.11-0.25,0.41-0.37,0.66-0.26l0,0
			c0.25,0.11,0.37,0.41,0.26,0.66l0,0c-0.08,0.19-0.27,0.3-0.46,0.3l0,0C37.04,28.94,36.98,28.93,36.91,28.9z M38.12,26.11
			c-0.25-0.11-0.37-0.4-0.26-0.66l0,0c0.11-0.25,0.4-0.37,0.66-0.26l0,0c0.25,0.11,0.37,0.41,0.26,0.66l0,0
			c-0.09,0.19-0.27,0.3-0.46,0.3l0,0C38.25,26.15,38.18,26.14,38.12,26.11z M39.33,23.32c-0.26-0.11-0.37-0.4-0.26-0.66l0,0
			c0.11-0.25,0.4-0.37,0.65-0.26l0,0c0.26,0.11,0.37,0.41,0.26,0.66l0,0c-0.08,0.19-0.26,0.3-0.46,0.3l0,0
			C39.46,23.36,39.39,23.35,39.33,23.32z M40.53,20.53c-0.25-0.11-0.37-0.4-0.26-0.66l0,0c0.11-0.25,0.41-0.37,0.66-0.26l0,0
			c0.25,0.11,0.37,0.41,0.26,0.66l0,0c-0.08,0.19-0.26,0.3-0.46,0.3l0,0C40.67,20.57,40.6,20.56,40.53,20.53z M41.74,17.74
			c-0.25-0.11-0.37-0.4-0.26-0.66l0,0c0.11-0.25,0.41-0.37,0.66-0.26l0,0c0.25,0.11,0.37,0.41,0.26,0.66l0,0
			c-0.08,0.19-0.27,0.3-0.46,0.3l0,0C41.87,17.78,41.81,17.77,41.74,17.74z"/>
	</g>
	<g>
		<g>
			<path class="st2" d="M35.91,31.73c-0.07,0-0.13-0.01-0.2-0.04c-0.25-0.11-0.37-0.4-0.26-0.66l7.24-16.74
				c0.11-0.25,0.4-0.37,0.66-0.26c0.25,0.11,0.37,0.4,0.26,0.66l-7.24,16.74C36.29,31.62,36.11,31.73,35.91,31.73z"/>
		</g>
	</g>
	<g>
		<path class="st2" d="M22.13,18.83H20.8v3.67h-0.74v-3.67h-1.32v-0.6h3.38V18.83z"/>
		<path class="st2" d="M22.67,18.5c0-0.11,0.03-0.2,0.1-0.27s0.17-0.11,0.3-0.11s0.23,0.04,0.3,0.11s0.11,0.16,0.11,0.27
			c0,0.11-0.04,0.2-0.11,0.27s-0.17,0.11-0.3,0.11s-0.23-0.04-0.3-0.11S22.67,18.61,22.67,18.5z M23.43,22.49h-0.71v-3.17h0.71
			V22.49z"/>
		<path class="st2" d="M25.57,21.98c0.18,0,0.33-0.05,0.44-0.16s0.18-0.23,0.19-0.38h0.67c-0.01,0.2-0.07,0.38-0.18,0.55
			s-0.27,0.31-0.47,0.41s-0.41,0.15-0.64,0.15c-0.44,0-0.79-0.14-1.05-0.43s-0.39-0.68-0.39-1.19v-0.07c0-0.48,0.13-0.87,0.39-1.16
			c0.26-0.29,0.61-0.44,1.05-0.44c0.38,0,0.68,0.11,0.92,0.33c0.24,0.22,0.36,0.51,0.37,0.87H26.2c-0.01-0.18-0.07-0.33-0.19-0.45
			s-0.26-0.18-0.44-0.18c-0.23,0-0.41,0.08-0.53,0.25c-0.12,0.17-0.19,0.42-0.19,0.76v0.11c0,0.34,0.06,0.6,0.19,0.77
			C25.15,21.9,25.33,21.98,25.57,21.98z"/>
		<path class="st2" d="M28.49,21.14l-0.32,0.33v1.03h-0.71v-4.5h0.71v2.6l0.22-0.28l0.88-0.99h0.86l-1.18,1.32l1.3,1.85h-0.82
			L28.49,21.14z"/>
		<path class="st2" d="M31.81,22.55c-0.45,0-0.82-0.14-1.1-0.43c-0.28-0.29-0.42-0.66-0.42-1.14V20.9c0-0.32,0.06-0.6,0.18-0.85
			c0.12-0.25,0.29-0.44,0.51-0.58s0.47-0.21,0.74-0.21c0.43,0,0.77,0.14,1,0.41s0.35,0.67,0.35,1.17v0.29h-2.07
			c0.02,0.26,0.11,0.47,0.26,0.62s0.35,0.23,0.58,0.23c0.33,0,0.59-0.13,0.8-0.4l0.38,0.37c-0.13,0.19-0.3,0.34-0.51,0.44
			C32.31,22.5,32.08,22.55,31.81,22.55z M31.73,19.84c-0.2,0-0.35,0.07-0.47,0.21s-0.2,0.33-0.23,0.57h1.36v-0.05
			c-0.02-0.24-0.08-0.42-0.19-0.54C32.08,19.9,31.92,19.84,31.73,19.84z"/>
		<path class="st2" d="M34.58,18.55v0.77h0.56v0.53h-0.56v1.77c0,0.12,0.02,0.21,0.07,0.26c0.05,0.05,0.13,0.08,0.26,0.08
			c0.08,0,0.17-0.01,0.25-0.03v0.55c-0.16,0.04-0.32,0.07-0.47,0.07c-0.55,0-0.82-0.3-0.82-0.91v-1.8h-0.52v-0.53h0.52v-0.77H34.58z
			"/>
	</g>
	<g>
		<path class="st1" d="M22.13,24.83H20.8v3.67h-0.74v-3.67h-1.32v-0.6h3.38V24.83z"/>
		<path class="st1" d="M22.67,24.5c0-0.11,0.03-0.2,0.1-0.27s0.17-0.11,0.3-0.11s0.23,0.04,0.3,0.11s0.11,0.16,0.11,0.27
			c0,0.11-0.04,0.2-0.11,0.27s-0.17,0.11-0.3,0.11s-0.23-0.04-0.3-0.11S22.67,24.61,22.67,24.5z M23.43,28.49h-0.71v-3.17h0.71
			V28.49z"/>
		<path class="st1" d="M25.57,27.98c0.18,0,0.33-0.05,0.44-0.16s0.18-0.23,0.19-0.38h0.67c-0.01,0.2-0.07,0.38-0.18,0.55
			s-0.27,0.31-0.47,0.41s-0.41,0.15-0.64,0.15c-0.44,0-0.79-0.14-1.05-0.43s-0.39-0.68-0.39-1.19v-0.07c0-0.48,0.13-0.87,0.39-1.16
			c0.26-0.29,0.61-0.44,1.05-0.44c0.38,0,0.68,0.11,0.92,0.33c0.24,0.22,0.36,0.51,0.37,0.87H26.2c-0.01-0.18-0.07-0.33-0.19-0.45
			s-0.26-0.18-0.44-0.18c-0.23,0-0.41,0.08-0.53,0.25c-0.12,0.17-0.19,0.42-0.19,0.76v0.11c0,0.34,0.06,0.6,0.19,0.77
			C25.15,27.9,25.33,27.98,25.57,27.98z"/>
		<path class="st1" d="M28.49,27.14l-0.32,0.33v1.03h-0.71v-4.5h0.71v2.6l0.22-0.28l0.88-0.99h0.86l-1.18,1.32l1.3,1.85h-0.82
			L28.49,27.14z"/>
		<path class="st1" d="M31.81,28.55c-0.45,0-0.82-0.14-1.1-0.43c-0.28-0.29-0.42-0.66-0.42-1.14V26.9c0-0.32,0.06-0.6,0.18-0.85
			c0.12-0.25,0.29-0.44,0.51-0.58s0.47-0.21,0.74-0.21c0.43,0,0.77,0.14,1,0.41s0.35,0.67,0.35,1.17v0.29h-2.07
			c0.02,0.26,0.11,0.47,0.26,0.62s0.35,0.23,0.58,0.23c0.33,0,0.59-0.13,0.8-0.4l0.38,0.37c-0.13,0.19-0.3,0.34-0.51,0.44
			C32.31,28.5,32.08,28.55,31.81,28.55z M31.73,25.84c-0.2,0-0.35,0.07-0.47,0.21s-0.2,0.33-0.23,0.57h1.36v-0.05
			c-0.02-0.24-0.08-0.42-0.19-0.54C32.08,25.9,31.92,25.84,31.73,25.84z"/>
		<path class="st1" d="M34.58,24.55v0.77h0.56v0.53h-0.56v1.77c0,0.12,0.02,0.21,0.07,0.26c0.05,0.05,0.13,0.08,0.26,0.08
			c0.08,0,0.17-0.01,0.25-0.03v0.55c-0.16,0.04-0.32,0.07-0.47,0.07c-0.55,0-0.82-0.3-0.82-0.91v-1.8h-0.52v-0.53h0.52v-0.77H34.58z
			"/>
	</g>
</g>
</svg>
